<svg width="105" height="103" viewBox="0 0 105 103" fill="none" xmlns="http://www.w3.org/2000/svg">
<path fill-rule="evenodd" clip-rule="evenodd" d="M24.4074 22.9785C24.8027 23.9888 26.428 34.0478 25.9448 34.9703C25.0663 36.7712 25.6373 38.2208 26.8233 39.5825C27.5261 40.3292 28.3168 41.032 29.0636 41.8227C29.5028 42.3059 30.0299 42.7891 30.4253 43.3162C31.787 45.0732 31.4355 46.347 29.371 47.1816C29.1514 47.2695 28.9318 47.3573 28.7121 47.4452C28.2729 47.6648 28.0972 48.1041 28.2729 48.5433C28.4047 48.8508 28.5804 49.1144 28.7121 49.4219C29.1075 50.3004 28.9318 51.0471 28.0972 51.5742C27.7019 51.7938 27.2187 51.9696 26.8233 52.1453C26.428 52.321 26.0766 52.4527 25.7252 52.7602C26.0766 52.8481 26.428 52.892 26.7794 52.9798C27.3065 53.1116 27.8776 53.1556 28.3607 53.3752C29.1953 53.6827 29.415 54.3855 29.0636 55.1322C29.0196 55.3079 28.9318 55.4397 28.8439 55.5715C27.9215 56.7135 27.9215 57.9874 28.3607 59.3052C28.7561 60.5351 28.4047 61.3697 27.2187 61.9407C25.6813 62.6435 24.0121 62.7314 22.3868 62.8192C21.9036 62.8632 21.3765 62.8192 20.8933 62.8192C19.8831 62.8632 19.4438 63.6538 19.1802 64.4006C18.8288 65.4987 18.5653 66.6408 18.3017 67.7828C18.1699 68.1782 18.126 68.5735 17.555 68.5296C17.0718 68.4417 16.8522 68.0903 16.984 67.5193C17.2475 66.4211 17.5111 65.323 17.8185 64.2249C17.9503 63.7417 18.2578 63.3024 18.5214 62.8632C19.1363 61.765 20.1466 61.5015 21.3326 61.4575C22.7822 61.4136 24.2317 61.2379 25.6813 61.0622C25.9009 61.0183 26.1205 60.9304 26.3402 60.8865C27.1747 60.5351 27.2626 60.3594 26.999 59.4809C26.5598 57.8995 26.5598 56.3182 27.6579 54.9126C27.7019 54.8687 27.7458 54.7808 27.7897 54.693C27.7897 54.693 27.7897 54.649 27.7897 54.5173C27.3065 54.4294 26.8233 54.4294 26.3841 54.2537C25.6813 54.0341 24.9785 53.7705 24.4074 53.4191C23.7925 53.0238 23.7925 52.3649 24.3635 51.8817C24.7588 51.5742 25.2859 51.3546 25.7252 51.135C26.2084 50.9153 26.6916 50.7396 27.1747 50.5639C27.5261 50.4321 27.6579 50.2125 27.4383 49.8611C27.3065 49.6415 27.2187 49.4219 27.1308 49.2462C26.5598 48.1919 26.999 46.6106 28.3607 46.1274C28.5804 46.0396 28.8439 45.9517 29.0636 45.8639C29.986 45.4685 30.1178 45.1171 29.4589 44.3265C28.7121 43.404 27.8336 42.5255 26.9551 41.647C25.7252 40.461 24.5831 39.2311 24.2317 37.474C24.1439 36.9469 24.1878 36.3759 24.2756 35.8488C24.3635 35.3656 24.5831 34.9263 24.7149 34.4871C24.9785 33.7843 23.441 24.1206 23.0896 23.4178L24.4074 22.9785Z" fill="#F58B71" stroke="#F58B71" stroke-width="0.0135276"/>
<path fill-rule="evenodd" clip-rule="evenodd" d="M50.3805 52.836C50.2926 57.3603 48.7991 61.3136 45.7682 64.652C45.5925 64.8277 45.4608 65.0034 45.2411 65.1791C44.8458 65.5305 44.4065 65.5305 44.0112 65.1791C43.6159 64.7838 43.6159 64.3006 43.9673 63.9053C44.3187 63.466 44.758 63.0707 45.1094 62.6314C48.7552 57.8435 49.5459 52.5724 47.4374 46.9499C46.6907 45.0611 45.5925 43.4358 44.2308 41.9424C43.9673 41.6788 43.7477 41.1956 43.7916 40.8881C43.8794 40.1414 44.758 40.0096 45.3729 40.5807C46.9103 42.1181 48.0524 43.8751 48.9309 45.8078C49.8973 48.0481 50.3805 50.42 50.3805 52.836Z" fill="#F58B71"/>
<path fill-rule="evenodd" clip-rule="evenodd" d="M50.3805 52.836C50.2926 57.3603 48.7991 61.3136 45.7682 64.652C45.5925 64.8277 45.4608 65.0034 45.2411 65.1791C44.8458 65.5305 44.4065 65.5305 44.0112 65.1791C43.6159 64.7838 43.6159 64.3006 43.9673 63.9053C44.3187 63.466 44.758 63.0707 45.1094 62.6314C48.7552 57.8435 49.5459 52.5724 47.4374 46.9499C46.6907 45.0611 45.5925 43.4358 44.2308 41.9424C43.9673 41.6788 43.7477 41.1956 43.7916 40.8881C43.8794 40.1414 44.758 40.0096 45.3729 40.5807C46.9103 42.1181 48.0524 43.8751 48.9309 45.8078C49.8973 48.0481 50.3805 50.42 50.3805 52.836Z" stroke="#F58B71" stroke-width="0.0135276"/>
<path fill-rule="evenodd" clip-rule="evenodd" d="M44.4281 54.1118C44.3842 56.352 43.1982 59.4708 40.8262 62.1063C40.7383 62.2381 40.6505 62.3259 40.5187 62.4577C40.0794 62.897 39.5963 63.0288 39.1131 62.5456C38.6299 62.1063 38.8056 61.6231 39.2009 61.1839C40.4308 59.9539 41.3972 58.5044 41.9243 56.7913C43.3739 52.3548 42.5832 48.3136 39.4645 44.7117C39.3327 44.5799 39.157 44.4481 39.0691 44.2724C38.7617 43.8771 38.7177 43.4378 39.1131 43.0864C39.4645 42.7789 39.9477 42.6472 40.3869 43.0425C40.7822 43.4378 41.1776 43.8771 41.529 44.3164C43.4178 46.8201 44.4281 49.6753 44.4281 54.1118Z" fill="#F58B71"/>
<path fill-rule="evenodd" clip-rule="evenodd" d="M44.4281 54.1118C44.3842 56.352 43.1982 59.4708 40.8262 62.1063C40.7383 62.2381 40.6505 62.3259 40.5187 62.4577C40.0794 62.897 39.5963 63.0288 39.1131 62.5456C38.6299 62.1063 38.8056 61.6231 39.2009 61.1839C40.4308 59.9539 41.3972 58.5044 41.9243 56.7913C43.3739 52.3548 42.5832 48.3136 39.4645 44.7117C39.3327 44.5799 39.157 44.4481 39.0691 44.2724C38.7617 43.8771 38.7177 43.4378 39.1131 43.0864C39.4645 42.7789 39.9477 42.6472 40.3869 43.0425C40.7822 43.4378 41.1776 43.8771 41.529 44.3164C43.4178 46.8201 44.4281 49.6753 44.4281 54.1118Z" stroke="#F58B71" stroke-width="0.0135276"/>
<path fill-rule="evenodd" clip-rule="evenodd" d="M36.6184 52.6439C36.5744 50.5355 35.7838 48.6467 34.2903 47.0214C33.6753 46.3625 33.7632 45.6597 34.5538 45.4401C34.8613 45.3522 35.3445 45.5279 35.5641 45.7476C37.6286 47.8999 38.5511 50.4916 38.3754 53.4346C38.2436 55.8505 37.3212 57.959 35.6959 59.7599C35.2567 60.1992 34.8174 60.5067 34.2024 60.0235C33.7632 59.6721 33.8071 59.101 34.3781 58.4861C35.8277 56.8608 36.5744 54.972 36.6184 52.6439Z" fill="#F58B71"/>
<path fill-rule="evenodd" clip-rule="evenodd" d="M36.6184 52.6439C36.5744 50.5355 35.7838 48.6467 34.2903 47.0214C33.6753 46.3625 33.7632 45.6597 34.5538 45.4401C34.8613 45.3522 35.3445 45.5279 35.5641 45.7476C37.6286 47.8999 38.5511 50.4916 38.3754 53.4346C38.2436 55.8505 37.3212 57.959 35.6959 59.7599C35.2567 60.1992 34.8174 60.5067 34.2024 60.0235C33.7632 59.6721 33.8071 59.101 34.3781 58.4861C35.8277 56.8608 36.5744 54.972 36.6184 52.6439Z" stroke="#F58B71" stroke-width="0.0135276"/>
<path fill-rule="evenodd" clip-rule="evenodd" d="M38.3502 91.6199C44.1367 93.823 50.4671 95.037 57.1036 95.037C65.3177 95.037 73.0926 93.1482 79.945 89.8538C71.5551 96.1791 61.1447 99.9567 49.8558 99.9567C43.4332 99.9567 37.2948 98.7433 31.6575 96.5336L38.3502 91.6199ZM24.2902 83.4884C13.8669 74.9342 7.29168 62.3743 7.29168 48.3878C7.29168 22.6473 29.5621 1.73861 57.1036 1.73861C59.1241 1.73861 61.1447 1.87039 63.1214 2.09002C58.9045 0.904024 54.4241 0.289062 49.8558 0.289062C22.3143 0.289062 0 22.6034 0 50.1449C0 67.691 9.08574 83.1267 22.8177 92.0011L24.2902 83.4884Z" fill="#F47D5C"/>
<path d="M28.3006 80.376L21.4043 102.954L39.7653 85.9106L28.3006 80.376Z" fill="#377044"/>
<path fill-rule="evenodd" clip-rule="evenodd" d="M15.671 49.2438C15.671 70.4599 32.846 87.6349 54.0621 87.6349C67.7052 87.6349 79.6886 80.5033 86.4861 69.7542H91.3808C84.14 82.9295 70.1392 91.8518 54.0621 91.8518C30.5179 91.8518 11.4541 72.788 11.4541 49.2438C11.4541 25.6995 30.5179 6.63574 54.0621 6.63574C70.1369 6.63574 84.1359 15.5555 91.3776 28.7275H86.4824C79.6843 17.9817 67.7028 10.8526 54.0621 10.8526C32.846 10.8526 15.671 28.0276 15.671 49.2438Z" fill="#377044"/>
<path d="M67.5291 37.7022V48.5518C67.3974 48.6836 67.1777 48.8154 66.9142 48.9033C66.6506 48.9911 66.3432 49.035 65.9917 49.035C65.816 49.035 65.6843 48.9911 65.5964 48.9911C64.9375 48.464 64.2786 48.0247 63.7076 47.6294C63.0926 47.1901 62.5216 46.7948 61.9066 46.4434C61.2917 46.092 60.6767 45.7406 60.0618 45.4331C59.4029 45.0817 58.744 44.7742 58.0412 44.4228C57.8655 44.1593 57.7337 43.8518 57.6458 43.4565C57.5141 43.0611 57.4701 42.6658 57.4701 42.2705C57.4701 42.1826 57.5141 42.0948 57.5141 42.0069C57.5141 41.919 57.5141 41.8312 57.5141 41.7433C58.0412 41.4359 58.5683 41.0845 59.1832 40.777C59.7543 40.4256 60.3692 40.1181 61.0281 39.8545C61.6431 39.5471 62.302 39.2835 62.9169 39.0639C63.5758 38.8442 64.1908 38.6246 64.8057 38.4928V37.7022H57.1627C56.8552 37.7022 56.6355 37.6143 56.4598 37.4386C56.2841 37.2629 56.1963 36.9994 56.1963 36.604C56.1963 36.3844 56.2402 36.2087 56.2841 36.033C56.3281 35.8573 56.4159 35.6816 56.4598 35.5498H69.374C69.6815 35.5498 69.9011 35.6377 70.0768 35.8134C70.2525 35.9891 70.3404 36.2526 70.3404 36.648C70.3404 36.8676 70.2965 37.0433 70.2525 37.219C70.2086 37.3947 70.1647 37.5704 70.0768 37.7022H67.5291ZM64.7618 40.9966C63.9712 41.2162 63.2244 41.4798 62.4777 41.8312C61.7309 42.1387 61.0721 42.4901 60.4571 42.8415C60.8524 43.0611 61.2478 43.2807 61.6431 43.5004C62.0384 43.72 62.4338 43.9396 62.8291 44.1593C63.1805 44.4228 63.5758 44.6424 63.9272 44.8621C64.2786 45.0817 64.5861 45.3013 64.8936 45.521C64.8497 45.3453 64.8497 45.1256 64.8497 44.906C64.8057 44.6864 64.8057 44.4667 64.8057 44.2032C64.8057 43.9836 64.8057 43.7639 64.7618 43.5443C64.7618 43.3247 64.7618 43.149 64.7618 42.9733V40.9966Z" fill="#377044"/>
<path d="M70.0653 43.105C70.0653 41.8751 70.241 40.8209 70.5924 39.9424C70.9438 39.0639 71.3831 38.3171 71.9102 37.7022H68.5718C68.2644 37.7022 68.0447 37.6143 67.869 37.4386C67.6933 37.2629 67.6055 36.9994 67.6055 36.604C67.6055 36.3844 67.6494 36.2087 67.6933 36.033C67.7372 35.8573 67.7812 35.6816 67.869 35.5498H76.3906C76.6542 35.5498 76.9177 35.6377 77.0495 35.8134C77.2252 35.9891 77.3131 36.2526 77.3131 36.648C77.3131 36.8676 77.3131 37.0433 77.2691 37.219C77.2252 37.3947 77.1374 37.5704 77.0934 37.7022H74.9411C74.7215 37.8339 74.4579 38.0536 74.2383 38.3611C73.9747 38.6685 73.7551 39.0199 73.5794 39.4592C73.3598 39.8985 73.184 40.3816 73.0523 40.9527C72.9205 41.4798 72.8766 42.0508 72.8766 42.6658C72.8766 43.3686 72.9644 43.9396 73.0962 44.5107C73.2719 45.0378 73.4476 45.477 73.7112 45.8724C73.9747 46.3116 74.2822 46.6191 74.5897 46.9266C74.9411 47.1901 75.2486 47.4537 75.6439 47.6294C75.6439 47.6733 75.6439 47.7612 75.6439 47.8051C75.6439 47.893 75.6439 47.9369 75.6439 48.0247C75.6439 48.464 75.5121 48.7715 75.2925 49.035C75.0289 49.2547 74.7215 49.3864 74.2822 49.3864C73.8429 49.3864 73.3598 49.2547 72.8326 48.9911C72.3495 48.6836 71.9102 48.2883 71.4709 47.7173C71.0756 47.1901 70.7242 46.5313 70.4606 45.7406C70.1971 44.9939 70.0653 44.1153 70.0653 43.105Z" fill="#377044"/>
<path d="M88.8238 37.7022V48.7275C88.7799 48.7275 88.6042 48.7715 88.3846 48.8154C88.1649 48.8593 87.9453 48.8593 87.6817 48.8593C87.1986 48.8593 86.8032 48.7715 86.5397 48.5958C86.2322 48.4201 86.1004 48.0687 86.1004 47.5416V41.5237C85.9686 41.4798 85.8369 41.4359 85.6612 41.4359C84.9583 41.4359 84.563 41.919 84.3873 42.8415L84.2995 43.6761C84.1677 43.7639 83.992 43.8079 83.7724 43.8518C83.5966 43.8957 83.3331 43.8957 83.1135 43.8957C82.8938 43.8957 82.6742 43.8957 82.4546 43.8518C82.2789 43.8079 82.1032 43.7639 81.9714 43.6761L81.8396 42.9293C81.7518 42.4462 81.5761 42.0508 81.3125 41.8312C81.005 41.5676 80.6975 41.4359 80.3022 41.4359C79.9069 41.4359 79.5994 41.5676 79.3358 41.8312C79.0723 42.0948 78.9405 42.4901 78.9405 42.9733C78.9405 43.4125 79.0723 43.7639 79.3798 44.0275C79.6433 44.291 79.9947 44.4228 80.3901 44.4228C80.4779 44.4228 80.5218 44.4228 80.6097 44.4228C80.6975 44.4228 80.7415 44.4228 80.7854 44.3789C80.8732 44.5107 80.9172 44.6424 80.9611 44.7742C80.9611 44.906 81.005 45.0378 81.005 45.1696C81.005 45.6527 80.8732 46.0041 80.5658 46.2238C80.2583 46.4434 79.863 46.5752 79.2919 46.5752C78.9405 46.5752 78.5891 46.4873 78.1938 46.3556C77.7984 46.1799 77.447 45.9602 77.1396 45.6527C76.8321 45.3892 76.5685 44.9939 76.3928 44.5546C76.1732 44.0714 76.0853 43.5443 76.0853 42.9293C76.0853 42.2265 76.2171 41.6555 76.4367 41.1723C76.6564 40.6891 76.9638 40.2938 77.3153 39.9863C77.6667 39.6788 78.1059 39.4592 78.5452 39.2835C78.9844 39.1517 79.4237 39.0639 79.863 39.0639C80.5658 39.0639 81.2247 39.2396 81.7518 39.5471C82.2789 39.8985 82.6742 40.2938 82.8938 40.7331C83.0695 40.2499 83.4209 39.8106 83.9041 39.5031C84.3873 39.2396 84.9583 39.0639 85.5294 39.0639C85.749 39.0639 85.9247 39.1078 86.1004 39.1078V37.7022H75.69C75.3825 37.7022 75.1629 37.6143 74.9872 37.4386C74.8115 37.2629 74.7236 36.9994 74.7236 36.604C74.7236 36.3844 74.7676 36.2087 74.8115 36.033C74.8554 35.8573 74.8993 35.6816 74.9872 35.5498H90.6687C90.9762 35.5498 91.1958 35.6377 91.3715 35.8134C91.5472 35.9891 91.6351 36.2526 91.6351 36.648C91.6351 36.8676 91.6351 37.0433 91.5911 37.219C91.5033 37.3947 91.4594 37.5704 91.4154 37.7022H88.8238Z" fill="#377044"/>
<path d="M89.9761 37.7022C89.6687 37.7022 89.449 37.6143 89.2733 37.4386C89.0976 37.2629 89.0098 36.9994 89.0098 36.604C89.0098 36.3844 89.0537 36.2087 89.0976 36.033C89.1415 35.8573 89.2294 35.6816 89.2733 35.5498H91.6892C92.1285 35.5498 92.5238 35.6377 92.9192 35.8134C93.2706 35.9891 93.578 36.2526 93.7538 36.5601C93.8855 36.2087 94.1052 35.9451 94.4126 35.8134C94.7201 35.6377 95.0276 35.5498 95.4229 35.5498H96.4772C96.7846 35.5498 97.0043 35.6377 97.18 35.8134C97.3557 35.9891 97.4435 36.2526 97.4435 36.648C97.4435 36.8676 97.3996 37.0433 97.3557 37.219C97.3117 37.3947 97.2678 37.5704 97.18 37.7022H95.6426C95.3351 37.7022 95.1155 37.79 94.9398 37.9218C94.7201 38.0536 94.6323 38.3611 94.6323 38.7564V48.9472C94.5444 48.9911 94.4126 49.035 94.193 49.035C93.9734 49.079 93.7538 49.1229 93.4902 49.1229C93.007 49.1229 92.6117 49.035 92.3042 48.8593C92.0406 48.6836 91.8649 48.3322 91.8649 47.7612V38.3611C91.8649 38.1854 91.821 38.0097 91.7332 37.8779C91.6014 37.7461 91.4696 37.7022 91.2939 37.7022H89.9761Z" fill="#377044"/>
<path d="M70.6313 62.0891C70.5874 61.9573 70.5435 61.7816 70.5435 61.6498C70.5435 61.4741 70.5874 61.3424 70.6313 61.2106C70.6753 61.1227 70.7192 60.9909 70.8071 60.947C71.0267 60.947 71.2463 60.9909 71.5099 61.0349C71.7734 61.0349 72.037 61.0349 72.2566 61.0349C73.0912 61.0349 73.7501 60.8592 74.2333 60.5078C74.6725 60.2003 74.8922 59.7171 74.8922 59.1461C74.8922 58.7068 74.7604 58.3554 74.5407 58.0918C74.2772 57.8722 74.0136 57.7404 73.6183 57.7404C73.3108 57.7404 73.0033 57.8283 72.7837 58.0479C72.5641 58.2675 72.4762 58.5311 72.4762 58.9264C72.4762 59.0143 72.4762 59.1461 72.5202 59.2339C72.5202 59.3657 72.5641 59.4535 72.608 59.4975C72.4323 59.761 72.2127 59.8489 71.8613 59.8489C71.6416 59.8489 71.422 59.761 71.2463 59.5853C71.0706 59.4096 70.9828 59.1021 70.9828 58.7068C70.9828 58.4432 71.0267 58.1797 71.1145 57.9601C71.2024 57.7404 71.3781 57.5208 71.5538 57.3451C71.7295 57.1694 71.9491 57.0376 72.2127 56.9058C72.4323 56.7741 72.7398 56.7301 73.0033 56.6862H70.0603C69.7089 56.6862 69.5332 56.4666 69.5332 56.0713C69.5332 55.9834 69.5332 55.8956 69.5332 55.7638C69.5771 55.6759 69.6211 55.5881 69.6211 55.5441H75.0239C75.0679 55.4563 75.0679 55.3684 75.1118 55.2806C75.1118 55.2367 75.1557 55.1488 75.1557 55.061C75.1557 54.8413 75.0679 54.6656 74.8922 54.5338C74.7164 54.4021 74.4529 54.3142 74.0576 54.3142C73.9258 54.3142 73.794 54.3142 73.6622 54.3142C73.5744 54.3581 73.4426 54.3581 73.3547 54.3581C73.223 54.3581 73.0912 54.3581 72.9594 54.3581C72.8276 54.3581 72.6519 54.3581 72.4762 54.3581C71.7295 54.3581 71.1585 54.2264 70.7631 53.875C70.3678 53.5675 70.1482 53.1721 70.1482 52.645C70.1482 52.3376 70.236 52.074 70.3678 51.8983C70.5435 51.6787 70.7631 51.5908 71.0267 51.5908C71.1585 51.5908 71.2902 51.6347 71.3781 51.6787C71.4659 51.7226 71.5538 51.7665 71.6416 51.8104C71.5977 51.8544 71.5977 51.9422 71.5977 51.9862C71.5977 52.074 71.5977 52.1619 71.5977 52.2497C71.5977 52.9086 71.993 53.2161 72.7837 53.2161C73.0473 53.2161 73.3108 53.2161 73.5744 53.2161C73.8379 53.2161 74.1015 53.1721 74.409 53.1721C75.0679 53.1721 75.595 53.3479 75.9464 53.6114C76.2978 53.9189 76.5174 54.2703 76.5174 54.7535C76.5174 54.9292 76.4735 55.061 76.4296 55.1927C76.3856 55.3245 76.3417 55.4124 76.2978 55.5441H77.3081C77.6595 55.5441 77.8352 55.7198 77.8352 56.1152C77.8352 56.203 77.7913 56.2909 77.7913 56.3787C77.7473 56.5105 77.7473 56.5984 77.7034 56.6862H74.1015C74.4529 56.7301 74.7604 56.818 75.0239 56.9058C75.2875 57.0376 75.5071 57.2133 75.7267 57.433C75.9464 57.6526 76.0781 57.9161 76.2099 58.1797C76.3417 58.4872 76.3856 58.8386 76.3856 59.19C76.3856 59.6292 76.2978 60.0246 76.1221 60.376C75.9464 60.7274 75.7267 60.9909 75.4193 61.2106C75.1118 61.4741 74.7604 61.6498 74.365 61.7377C73.9697 61.8695 73.5744 61.9573 73.1351 61.9573C73.794 62.2209 74.365 62.4405 74.9361 62.7041C75.5071 62.9237 75.9464 63.0994 76.2539 63.2751C76.4735 63.3629 76.6053 63.4508 76.737 63.5826C76.8249 63.7143 76.9127 63.8461 76.9127 64.0218C76.9127 64.1975 76.8249 64.3732 76.737 64.505C76.6492 64.6807 76.5174 64.7686 76.3417 64.8564C75.7707 64.5489 75.2436 64.2854 74.8043 64.0218C74.365 63.8022 73.9258 63.5826 73.4865 63.3629C73.0473 63.1433 72.608 62.9676 72.1688 62.748C71.7295 62.5283 71.2024 62.3087 70.6313 62.0891Z" fill="#373435"/>
<path d="M79.7282 56.6795V64.059C79.6403 64.103 79.5525 64.103 79.4646 64.103C79.3768 64.1469 79.245 64.1469 79.1132 64.1469C78.8497 64.1469 78.63 64.103 78.4983 64.0151C78.3665 63.9273 78.2786 63.7516 78.2786 63.4441V56.6795H77.2683C76.9169 56.6795 76.7852 56.4599 76.7852 56.0645C76.7852 55.9767 76.7852 55.8888 76.7852 55.7571C76.8291 55.6692 76.873 55.5814 76.873 55.5374H78.1469C78.059 55.4056 77.9712 55.2299 77.8833 55.0542C77.8394 54.8346 77.7954 54.615 77.7954 54.3954C77.7954 54 77.8833 53.6486 78.059 53.3411C78.2347 53.0337 78.4983 52.7701 78.8057 52.5505C79.1132 52.3308 79.5086 52.1551 79.9478 52.0234C80.431 51.8916 80.9142 51.8477 81.4852 51.8477C81.9684 51.8477 82.4516 51.8916 82.8908 51.9794C83.3301 52.0673 83.7254 52.1551 84.0768 52.2869C84.4282 52.3748 84.7357 52.5065 84.9554 52.6383C85.2189 52.7701 85.4385 52.8579 85.5703 52.9458C85.7899 53.1215 85.9657 53.2972 86.0535 53.429C86.1414 53.5168 86.1853 53.6486 86.1853 53.7804C86.1853 53.9561 86.1414 54.1318 86.0096 54.2197C85.9217 54.3514 85.7899 54.3954 85.6582 54.4832C85.1311 54.0879 84.5161 53.7804 83.8133 53.4729C83.1105 53.2094 82.3198 53.0776 81.5291 53.0776C80.8263 53.0776 80.2992 53.2094 79.9039 53.4729C79.5086 53.7365 79.2889 54.0879 79.2889 54.5711C79.2889 54.7907 79.3329 55.0103 79.4207 55.1421C79.4646 55.3178 79.5525 55.4496 79.6403 55.5374H81.002C81.1777 55.5374 81.3095 55.5814 81.3974 55.6692C81.4852 55.7571 81.5291 55.8888 81.5291 56.1085C81.5291 56.1963 81.5291 56.2842 81.4852 56.372C81.4852 56.5038 81.4413 56.5916 81.3974 56.6795H79.7282Z" fill="#373435"/>
<path d="M91.9373 55.541C92.2887 55.541 92.4644 55.7167 92.4644 56.1121C92.4644 56.1999 92.4644 56.2878 92.4205 56.3756C92.4205 56.5074 92.3766 56.5952 92.3326 56.6831H88.0279V58.9672C88.2915 58.8355 88.555 58.6597 88.8625 58.484C89.17 58.2644 89.4774 58.0887 89.7849 57.8691C89.9167 58.0009 90.0924 58.1326 90.2681 58.2644C90.4438 58.4401 90.5756 58.6597 90.7074 58.8794C90.8391 59.099 90.9709 59.3186 91.0588 59.6261C91.1466 59.8897 91.1906 60.1972 91.1906 60.5486C91.1906 61.0757 91.1027 61.5589 90.8831 61.9542C90.6634 62.3934 90.356 62.7009 89.9606 63.0084C89.6092 63.272 89.17 63.4916 88.6429 63.6234C88.1597 63.7551 87.6326 63.843 87.0615 63.843C86.4026 63.843 85.7877 63.7551 85.2166 63.5794C84.6017 63.4037 84.0746 63.1402 83.5914 62.7888C83.1082 62.4374 82.7129 62.042 82.3175 61.5149C81.9661 61.0317 81.7026 60.4168 81.5269 59.7579C81.4829 59.6261 81.4829 59.4943 81.439 59.3186C81.439 59.1869 81.3951 59.0112 81.3951 58.9233C81.3951 58.5719 81.4829 58.3083 81.6147 58.1326C81.7465 57.9569 81.9661 57.8691 82.2736 57.8691C82.4054 57.8691 82.4932 57.8691 82.625 57.913C82.7129 57.913 82.7568 57.9569 82.8447 58.0009L82.8886 58.484C82.9325 59.1869 83.1082 59.8018 83.3718 60.3289C83.6353 60.856 83.9428 61.2953 84.2942 61.6028C84.6895 61.9542 85.1288 62.2177 85.612 62.3934C86.0512 62.5252 86.5783 62.6131 87.0615 62.6131C87.4129 62.6131 87.7643 62.5691 88.0718 62.4813C88.4232 62.3934 88.6868 62.2617 88.9064 62.042C89.17 61.8663 89.3457 61.6467 89.4774 61.4271C89.6532 61.1635 89.6971 60.856 89.6971 60.5486C89.6971 60.285 89.6971 60.0654 89.6092 59.8897C89.5653 59.714 89.4774 59.5383 89.3896 59.4065C89.0821 59.6261 88.7307 59.8018 88.4672 59.9775C88.1597 60.1532 87.8522 60.3289 87.5447 60.4607C87.369 60.4168 87.1933 60.3289 87.0176 60.1972C86.8419 60.0214 86.7101 59.8897 86.6662 59.7579V59.099C86.5783 58.9672 86.4905 58.8355 86.3587 58.7915C86.2269 58.7037 86.0952 58.6597 85.9634 58.6597C85.7438 58.6597 85.5681 58.7476 85.4363 58.8794C85.3045 59.0112 85.2606 59.1869 85.2606 59.3626C85.2606 59.4504 85.2606 59.5383 85.2606 59.6261C85.3045 59.714 85.3045 59.7579 85.3484 59.8457C85.3045 59.9336 85.2606 60.0214 85.1288 60.1093C85.0409 60.1972 84.9092 60.1972 84.7335 60.1972C84.5138 60.1972 84.2942 60.1093 84.1185 59.9336C83.9428 59.7579 83.8549 59.4943 83.8549 59.1429C83.8549 58.8794 83.8989 58.6597 83.9867 58.4401C84.1185 58.2205 84.2503 58.0887 84.3821 57.913C84.5578 57.7812 84.7774 57.6934 84.997 57.6055C85.2166 57.5616 85.4363 57.5177 85.6998 57.5177C85.9195 57.5177 86.0952 57.5177 86.2269 57.6055C86.4026 57.6495 86.5344 57.6934 86.6662 57.7812V56.6831H80.9998C80.6484 56.6831 80.4727 56.4635 80.4727 56.0681C80.4727 55.9803 80.5166 55.8924 80.5166 55.7606C80.5605 55.6728 80.5605 55.5849 80.6044 55.541H91.9373Z" fill="#373435"/>
<path d="M92.9983 63.9308C92.9983 63.6673 93.0861 63.4477 93.2618 63.3159C93.3936 63.1402 93.6132 63.0523 93.8768 63.0523C94.1404 63.0523 94.36 63.1402 94.5357 63.3159C94.6675 63.4477 94.7553 63.6673 94.7553 63.9308C94.7553 64.1505 94.6675 64.3701 94.5357 64.5458C94.36 64.6776 94.1404 64.7654 93.8768 64.7654C93.6132 64.7654 93.3936 64.6776 93.2618 64.5458C93.0861 64.3701 92.9983 64.1505 92.9983 63.9308ZM99.2357 56.6831V63.8869C99.1479 63.9748 99.0161 64.0187 98.8843 64.0626C98.7526 64.1065 98.5769 64.1505 98.4012 64.1505C98.3572 64.1505 98.2694 64.1505 98.1815 64.1065C97.7423 63.7991 97.303 63.5355 96.8638 63.272C96.4684 63.0084 96.0292 62.7888 95.5899 62.5252C95.1506 62.3056 94.7553 62.086 94.3161 61.9103C93.8768 61.6906 93.4375 61.471 92.9544 61.2953C92.8665 61.1635 92.8226 60.9878 92.7787 60.8121C92.7347 60.5925 92.6908 60.4168 92.6908 60.1972C92.6908 60.1532 92.6908 60.1093 92.6908 60.0654C92.6908 59.9775 92.6908 59.9336 92.6908 59.8897C92.8226 59.8018 92.9983 59.714 93.2179 59.6261C93.4375 59.4943 93.6572 59.4065 93.8768 59.2747C94.0964 59.1869 94.3161 59.099 94.5357 58.9672C94.7553 58.8794 94.931 58.7915 95.0628 58.7476L92.6908 57.6934C92.5151 57.6055 92.4272 57.5616 92.3833 57.4738C92.2955 57.4298 92.2515 57.298 92.2515 57.1663C92.2515 57.0784 92.2955 56.9906 92.2955 56.9027C92.3394 56.8149 92.3833 56.727 92.4272 56.6831H91.8562C91.5048 56.6831 91.3291 56.4635 91.3291 56.0681C91.3291 55.9803 91.3291 55.8924 91.373 55.7606C91.373 55.6728 91.417 55.5849 91.4609 55.541H100.51C100.861 55.541 101.037 55.7167 101.037 56.1121C101.037 56.1999 101.037 56.2878 100.993 56.3756C100.993 56.5074 100.949 56.5952 100.949 56.6831H99.2357ZM96.4245 58.1326C96.4245 58.2205 96.4684 58.3083 96.4684 58.3962C96.4684 58.484 96.4684 58.5719 96.4684 58.7037C96.4684 58.8355 96.4684 58.9233 96.4684 59.0551C96.4245 59.1429 96.4245 59.2308 96.3806 59.3186C96.2488 59.4065 96.0731 59.4943 95.8535 59.5822C95.6778 59.714 95.5021 59.8018 95.2824 59.8897C95.1067 60.0214 94.8871 60.1093 94.7114 60.1972C94.5357 60.285 94.4039 60.3729 94.2721 60.4607C94.7992 60.7243 95.4142 61.0317 96.0731 61.3392C96.6881 61.6906 97.303 62.086 97.874 62.4374C97.874 62.3056 97.8301 62.1738 97.8301 61.9981C97.8301 61.8224 97.8301 61.6467 97.7862 61.471C97.7862 61.2953 97.7862 61.1196 97.7862 60.9439C97.7862 60.7682 97.7862 60.6364 97.7862 60.5046V56.6831H93.4815C93.6572 56.727 93.8768 56.8588 94.1404 56.9906C94.4039 57.0784 94.7114 57.2102 94.9749 57.3859C95.2824 57.5177 95.546 57.6495 95.7656 57.7812C96.0292 57.913 96.2488 58.0448 96.4245 58.1326Z" fill="#373435"/>
<path d="M100.131 56.6831C99.7792 56.6831 99.6035 56.4635 99.6035 56.0681C99.6035 55.9803 99.6474 55.8924 99.6474 55.7606C99.6914 55.6728 99.6914 55.5849 99.7353 55.541H101.229C101.492 55.541 101.756 55.5849 101.976 55.6728C102.151 55.8046 102.327 55.9363 102.415 56.156C102.503 55.9363 102.634 55.7606 102.81 55.6728C102.986 55.5849 103.162 55.541 103.381 55.541H104.216C104.348 55.541 104.479 55.5849 104.567 55.6728C104.655 55.7606 104.699 55.8924 104.699 56.1121C104.699 56.1999 104.699 56.2878 104.699 56.3756C104.655 56.5074 104.655 56.5952 104.611 56.6831H103.557C103.337 56.6831 103.205 56.727 103.074 56.8149C102.942 56.9027 102.898 57.0784 102.898 57.298V64.1066C102.854 64.1066 102.766 64.1505 102.634 64.1505C102.547 64.1505 102.415 64.1944 102.283 64.1944C102.019 64.1944 101.844 64.1505 101.668 64.0626C101.536 63.9748 101.448 63.7551 101.448 63.4916V57.1223C101.448 56.8149 101.317 56.6831 101.009 56.6831H100.131Z" fill="#373435"/>
</svg>
