<svg width="52" height="52" viewBox="0 0 52 52" fill="none" xmlns="http://www.w3.org/2000/svg">
<path d="M26.0006 47.6654C37.9668 47.6654 47.6673 37.9649 47.6673 25.9987C47.6673 14.0325 37.9668 4.33203 26.0006 4.33203C14.0345 4.33203 4.33398 14.0325 4.33398 25.9987C4.33398 37.9649 14.0345 47.6654 26.0006 47.6654Z" stroke="#959595" stroke-width="2" stroke-linecap="round"/>
<path d="M17.334 19.6073V19.3906" stroke="#959595" stroke-width="2" stroke-linecap="round"/>
<path d="M34.668 19.6073V19.3906" stroke="#959595" stroke-width="2" stroke-linecap="round"/>
<path d="M26.0007 38.9987C28.2992 38.9987 30.5036 38.0856 32.1289 36.4603C33.7542 34.835 34.6673 32.6306 34.6673 30.332H17.334C17.334 32.6306 18.2471 34.835 19.8724 36.4603C21.4977 38.0856 23.7021 38.9987 26.0007 38.9987Z" stroke="#959595" stroke-width="2" stroke-linecap="round" stroke-linejoin="round"/>
</svg>
