<svg width="100" height="103" viewBox="0 0 100 103" fill="none" xmlns="http://www.w3.org/2000/svg">
<path fill-rule="evenodd" clip-rule="evenodd" d="M40.5846 56.2001C40.5846 58.7478 40.5407 61.3395 40.5846 63.8872C40.5846 64.9414 40.4089 65.8199 39.3108 66.2152C38.2126 66.6106 37.4659 66.0834 36.7631 65.3367C35.8845 64.3264 35.05 63.2722 34.0397 62.3937C33.6004 62.0423 32.7219 61.8226 32.1948 61.9983C31.7555 62.1301 31.3163 62.9208 31.2723 63.4479C31.2284 63.9311 31.7116 64.5021 32.063 64.9414C34.6107 67.8405 37.1145 70.7396 38.6079 74.3854C39.2668 76.0546 40.6285 77.0649 42.4295 77.2845C43.5276 77.4602 44.7136 77.5481 45.8557 77.5481C49.6773 77.5042 52.6203 75.3957 52.9717 71.6181C53.4109 67.2694 53.2352 62.8769 53.2352 58.4843C53.2352 57.6058 52.4885 57.0787 51.61 57.0787C50.7754 57.0787 50.1604 57.6497 50.0287 58.5282C49.9408 59.1871 50.0726 59.9338 49.9408 60.6366C49.8969 60.988 49.5894 61.603 49.3258 61.6469C48.5791 61.7348 48.5791 61.0759 48.5791 60.5488C48.5791 58.9675 48.623 57.3861 48.5791 55.8048C48.5352 54.487 47.5688 53.6964 46.4707 54.0038C45.5922 54.3113 45.2847 54.9702 45.2847 55.8048C45.2847 57.474 45.2847 59.0992 45.2407 60.7245C45.2407 61.032 45.0211 61.3834 44.8015 61.6469C44.7576 61.7348 44.2744 61.6469 44.2305 61.5591C44.0548 61.2077 43.923 60.8123 43.923 60.4609C43.879 56.9469 43.879 53.4767 43.879 50.0066C43.879 49.2159 44.0548 48.3813 43.8351 47.6785C43.6594 47.1075 43.0884 46.4047 42.5613 46.229C42.122 46.0533 41.3313 46.4486 40.9799 46.8439C40.6725 47.1953 40.5846 47.8982 40.5846 48.4253C40.5407 51.0169 40.5846 53.6085 40.5846 56.2001ZM45.2847 52.8178C48.1838 52.115 49.5455 52.9935 50.1165 55.9366C50.3801 55.8927 50.5997 55.8048 50.8193 55.7609C52.8399 55.2777 54.6848 56.5955 54.6848 58.7478C54.7287 62.8769 54.7726 67.0059 54.553 71.091C54.3334 75.3957 51.3025 78.2948 47.0856 78.8659C45.0211 79.1294 43.0005 79.0416 41.0239 78.4266C39.4865 77.9434 38.1687 76.977 37.5537 75.4836C35.9724 71.7059 33.4247 68.5872 30.7013 65.6003C29.4714 64.1946 29.5153 62.2619 30.7892 61.1198C32.1509 59.9338 34.0397 60.1095 35.3135 61.5591C36.1481 62.4815 36.9827 63.404 37.8612 64.3264C38.1248 64.546 38.4762 64.6778 38.7837 64.8535C38.9154 64.5021 39.179 64.1507 39.179 63.7993C39.2229 59.5824 39.2229 55.3216 39.2229 51.1047C39.2229 49.9187 39.179 48.7327 39.2229 47.5467C39.2668 45.9215 40.5407 44.7355 42.1659 44.6916C43.7912 44.6476 45.1529 45.8776 45.2407 47.5467C45.2847 48.4253 45.2847 49.3038 45.2847 50.1823C45.2847 51.0608 45.2847 51.8954 45.2847 52.8178Z" fill="#F58B71"/>
<path fill-rule="evenodd" clip-rule="evenodd" d="M40.5846 56.2001C40.5846 58.7478 40.5407 61.3395 40.5846 63.8872C40.5846 64.9414 40.4089 65.8199 39.3108 66.2152C38.2126 66.6106 37.4659 66.0834 36.7631 65.3367C35.8845 64.3264 35.05 63.2722 34.0397 62.3937C33.6004 62.0423 32.7219 61.8226 32.1948 61.9983C31.7555 62.1301 31.3163 62.9208 31.2723 63.4479C31.2284 63.9311 31.7116 64.5021 32.063 64.9414C34.6107 67.8405 37.1145 70.7396 38.6079 74.3854C39.2668 76.0546 40.6285 77.0649 42.4295 77.2845C43.5276 77.4602 44.7136 77.5481 45.8557 77.5481C49.6773 77.5042 52.6203 75.3957 52.9717 71.6181C53.4109 67.2694 53.2352 62.8769 53.2352 58.4843C53.2352 57.6058 52.4885 57.0787 51.61 57.0787C50.7754 57.0787 50.1604 57.6497 50.0287 58.5282C49.9408 59.1871 50.0726 59.9338 49.9408 60.6366C49.8969 60.988 49.5894 61.603 49.3258 61.6469C48.5791 61.7348 48.5791 61.0759 48.5791 60.5488C48.5791 58.9675 48.623 57.3861 48.5791 55.8048C48.5352 54.487 47.5688 53.6964 46.4707 54.0038C45.5922 54.3113 45.2847 54.9702 45.2847 55.8048C45.2847 57.474 45.2847 59.0992 45.2407 60.7245C45.2407 61.032 45.0211 61.3834 44.8015 61.6469C44.7576 61.7348 44.2744 61.6469 44.2305 61.5591C44.0548 61.2077 43.923 60.8123 43.923 60.4609C43.879 56.9469 43.879 53.4767 43.879 50.0066C43.879 49.2159 44.0548 48.3813 43.8351 47.6785C43.6594 47.1075 43.0884 46.4047 42.5613 46.229C42.122 46.0533 41.3313 46.4486 40.9799 46.8439C40.6725 47.1953 40.5846 47.8982 40.5846 48.4253C40.5407 51.0169 40.5846 53.6085 40.5846 56.2001ZM45.2847 52.8178C48.1838 52.115 49.5455 52.9935 50.1165 55.9366C50.3801 55.8927 50.5997 55.8048 50.8193 55.7609C52.8399 55.2777 54.6848 56.5955 54.6848 58.7478C54.7287 62.8769 54.7726 67.0059 54.553 71.091C54.3334 75.3957 51.3025 78.2948 47.0856 78.8659C45.0211 79.1294 43.0005 79.0416 41.0239 78.4266C39.4865 77.9434 38.1687 76.977 37.5537 75.4836C35.9724 71.7059 33.4247 68.5872 30.7013 65.6003C29.4714 64.1946 29.5153 62.2619 30.7892 61.1198C32.1509 59.9338 34.0397 60.1095 35.3135 61.5591C36.1481 62.4815 36.9827 63.404 37.8612 64.3264C38.1248 64.546 38.4762 64.6778 38.7837 64.8535C38.9154 64.5021 39.179 64.1507 39.179 63.7993C39.2229 59.5824 39.2229 55.3216 39.2229 51.1047C39.2229 49.9187 39.179 48.7327 39.2229 47.5467C39.2668 45.9215 40.5407 44.7355 42.1659 44.6916C43.7912 44.6476 45.1529 45.8776 45.2407 47.5467C45.2847 48.4253 45.2847 49.3038 45.2847 50.1823C45.2847 51.0608 45.2847 51.8954 45.2847 52.8178Z" stroke="#F58B71" stroke-width="0.0135276"/>
<path fill-rule="evenodd" clip-rule="evenodd" d="M23.5466 36.8513C26.6654 36.8074 26.5336 36.7635 26.4897 39.7944C26.4897 41.2439 26.314 41.4196 24.8205 41.4635C23.8541 41.4635 22.8438 41.4635 21.8335 41.4196C21.6139 41.4196 21.3504 41.5075 21.1747 41.3757C19.7251 40.585 20.5158 39.1794 20.384 37.9934C20.2961 37.2027 20.9111 36.8513 21.6578 36.8513C22.3167 36.8513 22.9317 36.8513 23.5466 36.8513Z" fill="#F58B71"/>
<path fill-rule="evenodd" clip-rule="evenodd" d="M23.5466 36.8513C26.6654 36.8074 26.5336 36.7635 26.4897 39.7944C26.4897 41.2439 26.314 41.4196 24.8205 41.4635C23.8541 41.4635 22.8438 41.4635 21.8335 41.4196C21.6139 41.4196 21.3504 41.5075 21.1747 41.3757C19.7251 40.585 20.5158 39.1794 20.384 37.9934C20.2961 37.2027 20.9111 36.8513 21.6578 36.8513C22.3167 36.8513 22.9317 36.8513 23.5466 36.8513Z" stroke="#F58B71" stroke-width="0.0135276"/>
<path fill-rule="evenodd" clip-rule="evenodd" d="M32.7596 41.4276C29.4651 41.4276 29.8165 41.6033 29.8165 38.3968C29.8165 37.079 30.0362 36.8154 31.3539 36.8154C32.4082 36.7715 33.5063 36.8154 34.5605 36.8154C35.483 36.8154 35.9222 37.2108 35.8783 38.1771C35.8344 38.7482 35.8783 39.3631 35.8783 39.9342C35.8344 41.1641 35.6147 41.3837 34.3409 41.4276C33.8138 41.4276 33.2867 41.4276 32.7596 41.4276Z" fill="#F58B71"/>
<path fill-rule="evenodd" clip-rule="evenodd" d="M32.7596 41.4276C29.4651 41.4276 29.8165 41.6033 29.8165 38.3968C29.8165 37.079 30.0362 36.8154 31.3539 36.8154C32.4082 36.7715 33.5063 36.8154 34.5605 36.8154C35.483 36.8154 35.9222 37.2108 35.8783 38.1771C35.8344 38.7482 35.8783 39.3631 35.8783 39.9342C35.8344 41.1641 35.6147 41.3837 34.3409 41.4276C33.8138 41.4276 33.2867 41.4276 32.7596 41.4276Z" stroke="#F58B71" stroke-width="0.0135276"/>
<path fill-rule="evenodd" clip-rule="evenodd" d="M42.1493 41.453C38.9427 41.453 39.2501 41.6287 39.2501 38.4661C39.2501 37.0604 39.4698 36.8408 40.9193 36.8408C41.9736 36.8408 42.9838 36.8408 44.0381 36.8408C44.8287 36.8408 45.3119 37.1922 45.268 38.0268C45.268 38.7296 45.3119 39.4324 45.3119 40.1353C45.3119 41.0577 44.8287 41.497 43.9063 41.453C43.3353 41.4091 42.7203 41.453 42.1493 41.453Z" fill="#F58B71"/>
<path fill-rule="evenodd" clip-rule="evenodd" d="M42.1493 41.453C38.9427 41.453 39.2501 41.6287 39.2501 38.4661C39.2501 37.0604 39.4698 36.8408 40.9193 36.8408C41.9736 36.8408 42.9838 36.8408 44.0381 36.8408C44.8287 36.8408 45.3119 37.1922 45.268 38.0268C45.268 38.7296 45.3119 39.4324 45.3119 40.1353C45.3119 41.0577 44.8287 41.497 43.9063 41.453C43.3353 41.4091 42.7203 41.453 42.1493 41.453Z" stroke="#F58B71" stroke-width="0.0135276"/>
<path fill-rule="evenodd" clip-rule="evenodd" d="M23.4236 49.2343H23.2918C20.0852 49.2782 20.3488 49.4979 20.3927 45.852C20.3927 45.1492 20.788 44.71 21.5787 44.71C22.8086 44.71 24.0825 44.666 25.3124 44.71C26.4105 44.71 26.5423 45.1053 26.5423 47.7408C26.4984 48.5754 26.4105 49.2782 25.3124 49.2343C24.6535 49.2343 24.0386 49.2343 23.4236 49.2343Z" fill="#F58B71"/>
<path fill-rule="evenodd" clip-rule="evenodd" d="M23.4236 49.2343H23.2918C20.0852 49.2782 20.3488 49.4979 20.3927 45.852C20.3927 45.1492 20.788 44.71 21.5787 44.71C22.8086 44.71 24.0825 44.666 25.3124 44.71C26.4105 44.71 26.5423 45.1053 26.5423 47.7408C26.4984 48.5754 26.4105 49.2782 25.3124 49.2343C24.6535 49.2343 24.0386 49.2343 23.4236 49.2343Z" stroke="#F58B71" stroke-width="0.0135276"/>
<path fill-rule="evenodd" clip-rule="evenodd" d="M23.3144 57.0284C22.7873 57.0284 22.2162 56.9845 21.6452 57.0284C20.6788 57.1163 20.3274 56.5892 20.3274 55.7106C20.3274 52.2405 20.1078 52.548 23.3144 52.548C23.9732 52.548 24.6321 52.548 25.291 52.548C26.1695 52.548 26.5209 52.9433 26.477 53.7779C26.477 57.3359 26.9163 57.0723 23.3144 57.0284Z" fill="#F58B71"/>
<path fill-rule="evenodd" clip-rule="evenodd" d="M23.3144 57.0284C22.7873 57.0284 22.2162 56.9845 21.6452 57.0284C20.6788 57.1163 20.3274 56.5892 20.3274 55.7106C20.3274 52.2405 20.1078 52.548 23.3144 52.548C23.9732 52.548 24.6321 52.548 25.291 52.548C26.1695 52.548 26.5209 52.9433 26.477 53.7779C26.477 57.3359 26.9163 57.0723 23.3144 57.0284Z" stroke="#F58B71" stroke-width="0.0135276"/>
<path fill-rule="evenodd" clip-rule="evenodd" d="M32.7632 49.2138C29.6444 49.2138 29.7762 49.6091 29.8201 46.3147C29.8201 44.953 30.0398 44.6894 31.4015 44.6455C32.4557 44.6455 33.5099 44.6455 34.6081 44.6894C35.4426 44.6894 35.9258 45.0408 35.8819 45.9633C35.838 46.5782 35.838 47.1932 35.8819 47.8521C35.9698 48.9063 35.4426 49.3016 34.4323 49.2577C33.8613 49.2138 33.2903 49.2138 32.7632 49.2138Z" fill="#F58B71"/>
<path fill-rule="evenodd" clip-rule="evenodd" d="M32.7632 49.2138C29.6444 49.2138 29.7762 49.6091 29.8201 46.3147C29.8201 44.953 30.0398 44.6894 31.4015 44.6455C32.4557 44.6455 33.5099 44.6455 34.6081 44.6894C35.4426 44.6894 35.9258 45.0408 35.8819 45.9633C35.838 46.5782 35.838 47.1932 35.8819 47.8521C35.9698 48.9063 35.4426 49.3016 34.4323 49.2577C33.8613 49.2138 33.2903 49.2138 32.7632 49.2138Z" stroke="#F58B71" stroke-width="0.0135276"/>
<path fill-rule="evenodd" clip-rule="evenodd" d="M32.7596 57.0324C29.4651 57.0764 29.8165 57.2521 29.8165 54.1333C29.8165 52.6838 29.9483 52.552 31.4418 52.552C32.4082 52.552 33.4184 52.552 34.4287 52.552C34.6484 52.552 34.9119 52.5081 35.0876 52.5959C36.669 53.3866 35.6147 54.8361 35.8344 55.9782C36.0101 56.681 35.439 57.0324 34.7362 57.0324C34.0773 57.0324 33.4184 57.0324 32.7596 57.0324Z" fill="#F58B71"/>
<path fill-rule="evenodd" clip-rule="evenodd" d="M32.7596 57.0324C29.4651 57.0764 29.8165 57.2521 29.8165 54.1333C29.8165 52.6838 29.9483 52.552 31.4418 52.552C32.4082 52.552 33.4184 52.552 34.4287 52.552C34.6484 52.552 34.9119 52.5081 35.0876 52.5959C36.669 53.3866 35.6147 54.8361 35.8344 55.9782C36.0101 56.681 35.439 57.0324 34.7362 57.0324C34.0773 57.0324 33.4184 57.0324 32.7596 57.0324Z" stroke="#F58B71" stroke-width="0.0135276"/>
<path fill-rule="evenodd" clip-rule="evenodd" d="M39.067 91.6194C44.8577 93.8228 51.1912 95.037 57.8282 95.037C66.0423 95.037 73.7732 93.1482 80.6257 89.8538C72.2798 96.1791 61.8693 99.9567 50.5365 99.9567C44.1234 99.9567 37.9923 98.743 32.3604 96.5328L39.067 91.6194ZM24.9726 83.4695C14.5508 74.9157 7.97237 62.364 7.97237 48.3878C7.97237 22.6473 30.2867 1.73861 57.8282 1.73861C59.8488 1.73861 61.8693 1.87039 63.8021 2.09002C59.5852 0.904024 55.1487 0.289062 50.5365 0.289062C23.0389 0.289062 0.724609 22.6034 0.724609 50.1449C0.724609 67.678 9.79685 83.1038 23.5003 91.9813L24.9726 83.4695Z" fill="#F47D5C"/>
<path d="M28.9793 80.376L22.0391 102.954L40.444 85.9106L28.9793 80.376Z" fill="#377044"/>
<path fill-rule="evenodd" clip-rule="evenodd" d="M16.3497 49.2047C16.3497 70.4209 33.5686 87.5959 54.7409 87.5959C68.4121 87.5959 80.4054 80.4644 87.2065 69.7155H92.1019C84.858 82.8906 70.8479 91.8128 54.7409 91.8128C31.1966 91.8128 12.1328 72.749 12.1328 49.2047C12.1328 25.6605 31.1966 6.59668 54.7409 6.59668C70.8458 6.59668 84.8544 15.5165 92.0991 28.6888H87.2033C80.4016 17.9428 68.41 10.8136 54.7409 10.8136C33.5686 10.8136 16.3497 27.9886 16.3497 49.2047Z" fill="#377044"/>
<path d="M61.7097 37.8001V49.0452C61.6218 49.0891 61.4461 49.133 61.2265 49.133C61.0508 49.1769 60.7872 49.2209 60.5237 49.2209C60.0405 49.2209 59.6452 49.133 59.3816 48.9573C59.0741 48.7816 58.9423 48.4302 58.9423 47.8592V37.8001H57.6246C57.3171 37.8001 57.0975 37.7123 56.9218 37.5366C56.7461 37.4048 56.6582 37.0973 56.6582 36.702C56.6582 36.5263 56.6582 36.3067 56.7461 36.131C56.79 35.9553 56.8339 35.8235 56.9218 35.6917H58.8106C58.6788 35.516 58.5031 35.2524 58.3713 34.945C58.2395 34.6375 58.1956 34.2422 58.1956 33.8468C58.1956 33.1879 58.3274 32.6169 58.6349 32.1337C58.9423 31.6066 59.3816 31.1673 59.9087 30.8159C60.4358 30.4645 61.0508 30.201 61.7975 30.0253C62.5443 29.8496 63.3349 29.7617 64.2134 29.7617C65.0041 29.7617 65.7069 29.8056 66.3658 29.9374C67.0247 30.0692 67.6397 30.201 68.1668 30.3767C68.7378 30.5524 69.1771 30.772 69.5724 30.9477C69.9677 31.1234 70.2752 31.2991 70.4509 31.4309C70.9341 31.7384 71.2416 32.0019 71.4173 32.2216C71.5491 32.4412 71.6369 32.7047 71.6369 32.9244C71.6369 33.2758 71.5491 33.5393 71.3294 33.759C71.1537 33.9786 70.8902 34.1543 70.6266 34.2861C70.1874 33.9786 69.7481 33.715 69.2649 33.4515C68.8257 33.1879 68.2985 32.9683 67.7714 32.7487C67.2443 32.529 66.6733 32.3973 66.1023 32.2655C65.5312 32.1337 64.9163 32.0898 64.2574 32.0898C63.7742 32.0898 63.3789 32.1337 62.9835 32.2216C62.5882 32.3094 62.2368 32.4412 61.9293 32.6169C61.6657 32.7926 61.4461 33.0122 61.2704 33.2758C61.0947 33.5393 61.0508 33.8468 61.0508 34.1982C61.0508 34.5936 61.0947 34.901 61.1826 35.1207C61.3143 35.3842 61.4461 35.5599 61.5779 35.6917H63.5546C63.8181 35.6917 64.0817 35.7796 64.2134 35.9113C64.3891 36.087 64.477 36.3945 64.477 36.7459C64.477 36.9656 64.477 37.1413 64.4331 37.3609C64.3891 37.5366 64.3013 37.6684 64.2574 37.8001H61.7097Z" fill="#377044"/>
<path d="M76.7242 37.7872V48.8125C76.6363 48.8565 76.4606 48.8565 76.241 48.9004C76.0214 48.9443 75.8017 48.9443 75.5382 48.9443C75.055 48.9443 74.6597 48.8565 74.3961 48.7247C74.0886 48.549 73.9569 48.1976 73.9569 47.6265V41.6087C73.8251 41.5648 73.6933 41.5648 73.5176 41.5648C72.8148 41.5648 72.4195 42.048 72.2438 42.9704L72.1559 43.805C72.0241 43.8489 71.8484 43.9368 71.6727 43.9368C71.4531 43.9807 71.1895 44.0246 70.9699 44.0246C70.7503 44.0246 70.5307 43.9807 70.3549 43.9368C70.1353 43.9368 69.9596 43.8489 69.8278 43.805L69.6961 43.0143C69.6082 42.5311 69.4325 42.1797 69.169 41.9162C68.8615 41.6965 68.554 41.5648 68.1587 41.5648C67.7633 41.5648 67.4558 41.6965 67.1923 41.9601C66.9287 42.2237 66.797 42.5751 66.797 43.0582C66.797 43.5414 66.9287 43.8928 67.2362 44.1564C67.4998 44.376 67.8512 44.5078 68.2465 44.5078C68.3344 44.5078 68.3783 44.5078 68.4661 44.5078C68.554 44.5078 68.5979 44.5078 68.6418 44.5078C68.7297 44.5957 68.7736 44.7274 68.8175 44.8592C68.8615 44.991 68.8615 45.1228 68.8615 45.2985C68.8615 45.7377 68.7297 46.0891 68.4222 46.3088C68.1147 46.5284 67.7194 46.6602 67.1484 46.6602C66.797 46.6602 66.4455 46.5723 66.0502 46.4405C65.6549 46.3088 65.3474 46.0891 64.996 45.7816C64.6885 45.4742 64.4689 45.1228 64.2493 44.6396C64.0296 44.2003 63.9418 43.6732 63.9418 43.0143C63.9418 42.3554 64.0736 41.7844 64.2932 41.3012C64.5128 40.818 64.8203 40.4227 65.1717 40.1152C65.567 39.7638 65.9624 39.5442 66.4016 39.4124C66.8409 39.2367 67.2801 39.1928 67.7194 39.1928C68.4222 39.1928 69.0811 39.3246 69.6082 39.676C70.1353 39.9834 70.5307 40.3788 70.7503 40.862C70.926 40.3348 71.2774 39.9395 71.7606 39.632C72.2438 39.3246 72.8148 39.1928 73.3858 39.1928C73.6055 39.1928 73.7812 39.1928 73.9569 39.2367V37.7872H63.5464C63.239 37.7872 63.0193 37.6993 62.8436 37.5236C62.6679 37.3918 62.5801 37.0843 62.5801 36.689C62.5801 36.5133 62.624 36.2937 62.6679 36.118C62.7119 35.9423 62.7558 35.8105 62.8436 35.6787H78.5691C78.8326 35.6787 79.0523 35.7666 79.228 35.8983C79.4037 36.074 79.4915 36.3815 79.4915 36.7329C79.4915 36.9526 79.4915 37.1283 79.4476 37.3479C79.4037 37.5236 79.3158 37.6554 79.2719 37.7872H76.7242Z" fill="#377044"/>
<path d="M88.5685 49.0828C87.8657 48.5557 87.1629 48.0725 86.504 47.6333C85.8451 47.194 85.1423 46.7987 84.4834 46.4473C83.7806 46.0519 83.0778 45.7005 82.331 45.393C81.5843 45.0416 80.7497 44.6902 79.9151 44.3827C79.8273 44.207 79.7394 43.9435 79.6955 43.636C79.6076 43.3285 79.5637 42.9771 79.5637 42.5818C79.5637 42.4061 79.6076 42.2304 79.6076 42.0547C79.6516 41.879 79.6516 41.7472 79.6955 41.6593L81.0133 41.3958C82.0236 41.1762 82.7703 40.9126 83.2096 40.5173C83.6488 40.1659 83.8684 39.7266 83.8684 39.2434C83.8684 39.0677 83.8684 38.9359 83.8245 38.8042C83.7806 38.6724 83.7367 38.5845 83.6488 38.4528C83.2974 38.7163 82.8581 38.9799 82.375 39.1556C81.8918 39.3752 81.4086 39.463 80.8376 39.463C79.959 39.463 79.2562 39.2434 78.7291 38.8481C78.1581 38.4088 77.8945 37.8817 77.8945 37.1789C77.8945 36.6518 78.0702 36.2565 78.3777 35.9929C78.6852 35.6854 79.0366 35.5537 79.4759 35.5537C79.7394 35.5537 80.003 35.5976 80.1787 35.6854C80.2226 36.2125 80.3544 36.5639 80.574 36.7836C80.7936 36.9593 81.1011 37.0471 81.4086 37.0471C81.6282 37.0471 81.8918 37.0032 82.1114 36.9593C82.331 36.8714 82.5946 36.7396 82.8142 36.6079C83.0339 36.4322 83.2974 36.3004 83.561 36.0808C83.7806 35.8611 84.0881 35.6415 84.3956 35.4219C84.6591 35.6415 84.9666 35.8611 85.2301 36.1247C85.4937 36.3882 85.7133 36.6957 85.933 37.0032C86.1526 37.3546 86.3283 37.706 86.4601 38.0574C86.5918 38.4528 86.6358 38.8481 86.6358 39.2434C86.6358 40.2976 86.3283 41.1322 85.6694 41.7472C84.9666 42.3622 84.132 42.8014 83.0339 43.065C83.4292 43.2407 83.8245 43.4164 84.2638 43.636C84.703 43.8117 85.1423 44.0313 85.5815 44.2949C85.9769 44.5145 86.4161 44.7781 86.8115 45.0416C87.2068 45.2613 87.5582 45.5248 87.8657 45.7444C87.8218 45.3491 87.8218 44.9099 87.7778 44.4267C87.7778 43.9435 87.7778 43.5042 87.7778 43.1528V37.6182C87.7778 37.0911 87.9096 36.6079 88.2171 36.2565C88.5246 35.8611 89.0078 35.6854 89.6227 35.6854H92.39C92.6536 35.6854 92.8732 35.7733 93.0489 35.9051C93.2246 36.0808 93.3125 36.3882 93.3125 36.7396C93.3125 36.9593 93.3125 37.135 93.2686 37.3546C93.2246 37.5303 93.1368 37.6621 93.0929 37.7939H90.5012V48.6435C90.1938 48.995 89.7106 49.1267 88.9638 49.1267C88.8321 49.1267 88.7003 49.1267 88.5685 49.0828Z" fill="#377044"/>
<path d="M91.6392 37.7872C91.3317 37.7872 91.1121 37.6993 90.9364 37.5236C90.7607 37.3918 90.6729 37.0843 90.6729 36.689C90.6729 36.5133 90.6729 36.2937 90.7607 36.118C90.8046 35.9423 90.8486 35.8105 90.9364 35.6787H93.3523C93.7916 35.6787 94.1869 35.7666 94.5383 35.8983C94.9337 36.074 95.1972 36.3376 95.4168 36.689C95.5486 36.3376 95.7682 36.074 96.0757 35.8983C96.3393 35.7666 96.6907 35.6787 97.086 35.6787H98.1402C98.4038 35.6787 98.6673 35.7666 98.8431 35.8983C99.0188 36.074 99.1066 36.3815 99.1066 36.7329C99.1066 36.9526 99.0627 37.1283 99.0188 37.3479C98.9748 37.5236 98.887 37.6554 98.8431 37.7872H97.3056C96.9982 37.7872 96.7346 37.875 96.5589 38.0068C96.3832 38.1825 96.2954 38.446 96.2954 38.8414V49.0761C96.2075 49.0761 96.0757 49.12 95.8561 49.1639C95.6365 49.2079 95.3729 49.2079 95.1094 49.2079C94.6262 49.2079 94.2748 49.12 93.9673 48.9443C93.6598 48.7686 93.528 48.4172 93.528 47.8901V38.49C93.528 38.2703 93.4841 38.0946 93.3523 38.0068C93.2645 37.875 93.0888 37.7872 92.9131 37.7872H91.6392Z" fill="#377044"/>
<path d="M74.1891 56.3423C74.0134 56.4301 73.8816 56.5619 73.7059 56.7815C73.5302 57.0012 73.3985 57.2647 73.2228 57.5722C73.091 57.8797 72.9592 58.2311 72.8713 58.5825C72.7835 58.9778 72.7396 59.3731 72.7396 59.7685C72.7396 60.2077 72.7835 60.647 72.8713 60.9984C73.0031 61.3498 73.1349 61.6573 73.3106 61.9208C73.4863 62.1844 73.662 62.404 73.8816 62.5797C74.1013 62.7994 74.3209 62.9311 74.5405 63.019C74.5405 63.0629 74.5405 63.1068 74.5405 63.1508C74.5405 63.1947 74.5405 63.2386 74.5405 63.2825C74.5405 63.5022 74.4966 63.6779 74.3648 63.8097C74.233 63.9414 74.0573 63.9854 73.7938 63.9854C73.5302 63.9854 73.2667 63.8975 72.9592 63.7218C72.6956 63.5461 72.3882 63.2825 72.1685 62.9311C71.905 62.5797 71.6854 62.1844 71.5096 61.7012C71.3339 61.1741 71.2461 60.647 71.2461 60.032C71.2461 59.2853 71.3339 58.6264 71.5536 58.0554C71.7293 57.4404 71.9928 56.9572 72.2564 56.518C72.5639 56.0787 72.8713 55.7712 73.1788 55.5516C73.5302 55.288 73.7938 55.2002 74.0573 55.2002H74.9798C75.2873 55.2002 75.463 55.3759 75.463 55.7712C75.463 55.8591 75.463 55.9469 75.419 56.0787C75.419 56.1666 75.3751 56.2544 75.3312 56.3423H74.1891Z" fill="#373435"/>
<path d="M76.9733 56.3423V57.8797C76.9733 58.0554 76.9733 58.2311 76.9733 58.4068C76.9294 58.6264 76.9294 58.8021 76.9294 58.9778C76.8855 59.1535 76.8855 59.3292 76.8416 59.5049C76.8416 59.6806 76.7976 59.8124 76.7976 59.9003C77.0173 59.6367 77.3247 59.3731 77.6322 59.1096C77.9397 58.846 78.2911 58.6264 78.6425 58.3629C78.9939 58.1432 79.3453 57.9675 79.6967 57.7918C80.0481 57.6161 80.4435 57.5283 80.7949 57.4404C80.9267 57.4843 81.1024 57.6161 81.2341 57.7918C81.4098 57.9675 81.4977 58.1432 81.5856 58.3189C81.4977 58.5386 81.4538 58.7582 81.3659 58.9778C81.2781 59.2414 81.2341 59.5049 81.1902 59.8124C81.1024 60.1199 81.0584 60.4274 81.0145 60.8227C81.0145 61.1741 80.9706 61.5694 80.9706 62.0526C80.9706 62.404 81.0145 62.7554 81.0145 63.0629C81.0584 63.4143 81.1024 63.6779 81.1902 63.9414C81.1024 64.0293 81.0145 64.1171 80.9267 64.1611C80.7949 64.205 80.707 64.2489 80.5313 64.2489C80.3996 64.2489 80.2239 64.205 80.0921 64.1611C80.0042 64.0732 79.8724 63.9854 79.7846 63.8097C79.6528 63.634 79.6089 63.4582 79.521 63.1947C79.4771 62.8872 79.4771 62.5797 79.4771 62.1844C79.4771 61.7891 79.4771 61.4816 79.521 61.1302C79.565 60.7788 79.6528 60.4713 79.7407 60.2077C79.7846 59.9003 79.8724 59.6806 79.9603 59.461C80.0481 59.2414 80.136 59.0657 80.1799 58.9339C79.8724 59.0657 79.6089 59.1974 79.3014 59.4171C78.9939 59.5928 78.6864 59.8124 78.4229 60.076C78.1154 60.2956 77.8519 60.5591 77.5883 60.8227C77.2808 61.0863 77.0612 61.3937 76.8416 61.6573C76.7537 61.6573 76.6219 61.7012 76.5341 61.7012C76.3145 61.7012 76.1388 61.6573 75.9191 61.5694C75.7434 61.4816 75.6116 61.3498 75.5238 61.218V56.3423H74.6453C74.2939 56.3423 74.1182 56.1226 74.1182 55.7273C74.1182 55.6395 74.1182 55.5516 74.1621 55.4638C74.1621 55.332 74.206 55.2441 74.2499 55.2002H82.3323C82.6837 55.2002 82.8594 55.3759 82.8594 55.7712C82.8594 55.8591 82.8594 55.9469 82.8155 56.0787C82.8155 56.1666 82.7715 56.2544 82.7276 56.3423H76.9733Z" fill="#373435"/>
<path d="M82.9905 60.032C82.9905 59.1974 83.1223 58.4507 83.3858 57.8357C83.6494 57.2208 83.9569 56.6937 84.3083 56.3423H81.9363C81.5849 56.3423 81.4092 56.1226 81.4092 55.7273C81.4092 55.6395 81.4531 55.5516 81.4531 55.4638C81.497 55.332 81.497 55.2441 81.541 55.2002H86.856C87.2074 55.2002 87.3831 55.3759 87.3831 55.7712C87.3831 55.8591 87.3392 55.9469 87.3392 56.0787C87.2952 56.1666 87.2952 56.2544 87.2513 56.3423H85.8457C85.7139 56.4301 85.5382 56.5619 85.4064 56.7815C85.2307 57.0012 85.0989 57.2647 84.9672 57.5722C84.8354 57.8357 84.7036 58.1872 84.6158 58.5825C84.5279 58.9339 84.484 59.3292 84.484 59.7246C84.484 60.2077 84.5279 60.6031 84.6158 60.9984C84.7475 61.3498 84.8793 61.6573 85.055 61.9208C85.2307 62.1844 85.4064 62.404 85.6261 62.6237C85.8457 62.7994 86.0653 62.9311 86.2849 63.019C86.2849 63.0629 86.2849 63.1068 86.2849 63.1508C86.2849 63.1947 86.2849 63.2386 86.2849 63.2825C86.2849 63.5022 86.241 63.6779 86.1092 63.8097C85.9775 63.9414 85.8018 63.9854 85.5382 63.9854C85.2747 63.9854 85.0111 63.8975 84.7036 63.7218C84.3961 63.5461 84.1326 63.2825 83.869 62.9311C83.6494 62.6237 83.4298 62.1844 83.2541 61.7012C83.0784 61.218 82.9905 60.647 82.9905 60.032Z" fill="#373435"/>
<path d="M92.8495 63.7686C92.4542 63.4172 92.0149 63.1097 91.5757 62.8461C91.1364 62.5387 90.6972 62.2751 90.214 62.0115C89.7747 61.7919 89.2915 61.5284 88.8083 61.3087C88.3252 61.0452 87.798 60.8256 87.227 60.6059C87.1831 60.4741 87.1392 60.3424 87.0952 60.1667C87.0952 60.0349 87.0513 59.8153 87.0513 59.6396C87.0513 59.5517 87.0513 59.4639 87.0952 59.3321C87.0952 59.2442 87.0952 59.1564 87.1392 59.1124L88.0177 58.9367C88.7205 58.805 89.2476 58.5853 89.599 58.3218C89.9504 58.0582 90.1261 57.7068 90.1261 57.3115C90.1261 57.1797 90.0822 57.0479 90.0383 56.9162C89.9943 56.8283 89.9504 56.7405 89.9065 56.6526C89.6429 56.8722 89.3355 57.0479 89.028 57.2236C88.6766 57.3993 88.2812 57.4872 87.8859 57.4872C87.3149 57.4872 86.8756 57.3554 86.5242 57.0919C86.2167 56.8283 86.041 56.4769 86.041 56.0376C86.041 55.7302 86.1289 55.5105 86.3046 55.3788C86.4803 55.247 86.656 55.1591 86.8756 55.1591C87.0513 55.1591 87.1831 55.203 87.2709 55.247C87.2709 55.5545 87.3588 55.818 87.5345 55.9937C87.6663 56.1255 87.8859 56.2133 88.1495 56.2133C88.4569 56.2133 88.8083 56.1255 89.0719 55.9059C89.3794 55.6862 89.7747 55.3788 90.17 55.0273C90.3457 55.1591 90.5214 55.2909 90.6972 55.4227C90.8729 55.5984 91.0046 55.7741 91.1364 55.9498C91.2682 56.1694 91.4 56.389 91.4439 56.6087C91.5317 56.8283 91.5757 57.0919 91.5757 57.3554C91.5757 57.7068 91.5317 58.0143 91.4 58.2779C91.2682 58.5853 91.0486 58.805 90.8289 59.0246C90.6093 59.2442 90.3018 59.4199 89.9504 59.5517C89.6429 59.7274 89.2915 59.8153 88.8962 59.9031C89.2037 60.0349 89.5112 60.1667 89.8186 60.3424C90.17 60.5181 90.4775 60.6938 90.8289 60.8695C91.1364 61.0891 91.4439 61.2648 91.7514 61.4405C92.0589 61.6601 92.3224 61.8358 92.542 62.0115C92.542 61.748 92.4981 61.3966 92.4542 61.0452C92.4542 60.6938 92.4542 60.3863 92.4542 60.1227V56.2573C92.4542 55.9498 92.542 55.7302 92.7177 55.5105C92.8934 55.2909 93.157 55.203 93.5084 55.203H95.1776C95.529 55.203 95.7047 55.3788 95.7047 55.7741C95.7047 55.8619 95.7047 55.9498 95.6608 56.0816C95.6608 56.1694 95.6168 56.2573 95.5729 56.3451H93.9037V63.549C93.728 63.7247 93.4645 63.8125 93.0691 63.8125C93.0252 63.8125 92.9374 63.7686 92.8495 63.7686Z" fill="#373435"/>
<path d="M94.8045 56.3423C94.497 56.3423 94.3213 56.1226 94.3213 55.7273C94.3213 55.6395 94.3213 55.5516 94.3213 55.4638C94.3652 55.332 94.4091 55.2441 94.4091 55.2002H95.9026C96.2101 55.2002 96.4297 55.2441 96.6494 55.332C96.869 55.4638 97.0008 55.5955 97.0886 55.8152C97.1765 55.5955 97.3082 55.4198 97.4839 55.332C97.6597 55.2441 97.8354 55.2002 98.055 55.2002H98.8896C99.0214 55.2002 99.1531 55.2441 99.241 55.332C99.3728 55.4198 99.4167 55.5516 99.4167 55.7712C99.4167 55.8591 99.3728 55.9469 99.3728 56.0787C99.3288 56.1666 99.3288 56.2544 99.2849 56.3423H98.2307C98.0111 56.3423 97.8793 56.3862 97.7475 56.474C97.6157 56.5619 97.5718 56.7376 97.5718 57.0012V63.7657C97.5279 63.7657 97.44 63.8097 97.3522 63.8097C97.2204 63.8536 97.0886 63.8536 96.9568 63.8536C96.7372 63.8536 96.5176 63.8097 96.3858 63.7218C96.2101 63.634 96.1222 63.4582 96.1222 63.1508V56.7815C96.1222 56.474 95.9905 56.3423 95.7269 56.3423H94.8045Z" fill="#373435"/>
</svg>
