<?xml version="1.0" encoding="UTF-8"?>
<!DOCTYPE svg PUBLIC "-//W3C//DTD SVG 1.1//EN" "http://www.w3.org/Graphics/SVG/1.1/DTD/svg11.dtd">
<!-- Creator: CorelDRAW X7 -->
<svg xmlns="http://www.w3.org/2000/svg" xml:space="preserve" width="484px" height="611px" version="1.1" style="shape-rendering:geometricPrecision; text-rendering:geometricPrecision; image-rendering:optimizeQuality; fill-rule:evenodd; clip-rule:evenodd"
viewBox="0 0 19851 25049"
 xmlns:xlink="http://www.w3.org/1999/xlink">
 <defs>
  <style type="text/css">
   <![CDATA[
    .fil3 {fill:none}
    .fil5 {fill:#70342D}
    .fil22 {fill:#70352E}
    .fil15 {fill:#BD8617}
    .fil19 {fill:#FFFBC2}
    .fil18 {fill:white}
    .fil16 {fill:#70342D;fill-rule:nonzero}
    .fil11 {fill:#F0E673;fill-rule:nonzero}
    .fil6 {fill:#FFEEC2;fill-rule:nonzero}
    .fil7 {fill:#FFF7EB;fill-rule:nonzero}
    .fil21 {fill:white;fill-rule:nonzero}
    .fil1 {fill:#FFF0D4;fill-rule:nonzero;fill-opacity:0.501961}
    .fil13 {fill:url(#id0)}
    .fil10 {fill:url(#id1)}
    .fil12 {fill:url(#id2)}
    .fil8 {fill:url(#id3)}
    .fil2 {fill:url(#id4)}
    .fil4 {fill:url(#id5)}
    .fil9 {fill:url(#id6)}
    .fil14 {fill:url(#id7)}
    .fil0 {fill:url(#id8)}
    .fil17 {fill:url(#id9)}
    .fil20 {fill:url(#id10);fill-rule:nonzero}
    .fil23 {fill:url(#id11);fill-rule:nonzero}
   ]]>
  </style>
  <linearGradient id="id0" gradientUnits="userSpaceOnUse" x1="9925.61" y1="5260.23" x2="9925.61" y2="16070">
   <stop offset="0" style="stop-opacity:1; stop-color:#F0E673"/>
   <stop offset="0.278431" style="stop-opacity:1; stop-color:#AF813C"/>
   <stop offset="0.501961" style="stop-opacity:1; stop-color:#7E3D30"/>
   <stop offset="1" style="stop-opacity:1; stop-color:#CC983B"/>
  </linearGradient>
  <linearGradient id="id1" gradientUnits="userSpaceOnUse" x1="9925.61" y1="2762.7" x2="9925.8" y2="17759.6">
   <stop offset="0" style="stop-opacity:1; stop-color:#F5E534"/>
   <stop offset="0.521569" style="stop-opacity:1; stop-color:#80210E"/>
   <stop offset="1" style="stop-opacity:1; stop-color:#DDB343"/>
  </linearGradient>
  <linearGradient id="id2" gradientUnits="userSpaceOnUse" x1="9930.64" y1="10002.9" x2="9930.64" y2="17146.7">
   <stop offset="0" style="stop-opacity:1; stop-color:#BD8617"/>
   <stop offset="0.568627" style="stop-opacity:1; stop-color:#DEBF61"/>
   <stop offset="1" style="stop-opacity:1; stop-color:#FFF9AB"/>
  </linearGradient>
  <linearGradient id="id3" gradientUnits="userSpaceOnUse" x1="1653.67" y1="8311.78" x2="1663.45" y2="11139.5">
   <stop offset="0" style="stop-opacity:1; stop-color:#ECDF56"/>
   <stop offset="1" style="stop-opacity:1; stop-color:#CC983B"/>
  </linearGradient>
  <linearGradient id="id4" gradientUnits="userSpaceOnUse" x1="4987.74" y1="19835.9" x2="9018.96" y2="17266.8">
   <stop offset="0" style="stop-opacity:1; stop-color:#B00205"/>
   <stop offset="1" style="stop-opacity:1; stop-color:red"/>
  </linearGradient>
  <linearGradient id="id5" gradientUnits="userSpaceOnUse" x1="9962.55" y1="879.44" x2="9962.55" y2="19806.7">
   <stop offset="0" style="stop-opacity:1; stop-color:#FFF9AB"/>
   <stop offset="0.211765" style="stop-opacity:1; stop-color:#E8DA3A"/>
   <stop offset="0.639216" style="stop-opacity:1; stop-color:#782211"/>
   <stop offset="1" style="stop-opacity:1; stop-color:#CF8D1B"/>
  </linearGradient>
  <linearGradient id="id6" gradientUnits="userSpaceOnUse" xlink:href="#id3" x1="18500.8" y1="8311.78" x2="18510.6" y2="11139.5">
  </linearGradient>
  <linearGradient id="id7" gradientUnits="userSpaceOnUse" x1="10509.9" y1="4393.13" x2="10510.1" y2="15589.3">
   <stop offset="0" style="stop-opacity:1; stop-color:#FFF9AB"/>
   <stop offset="1" style="stop-opacity:1; stop-color:#C18A3A"/>
  </linearGradient>
  <linearGradient id="id8" gradientUnits="userSpaceOnUse" x1="15001.3" y1="18186.7" x2="9998.62" y2="18911">
   <stop offset="0" style="stop-opacity:1; stop-color:red"/>
   <stop offset="1" style="stop-opacity:1; stop-color:#B00205"/>
  </linearGradient>
  <radialGradient id="id9" gradientUnits="userSpaceOnUse" gradientTransform="matrix(4.63065E-005 0.482816 -1.2903 -0.0437288 31141 12607)" cx="9741.77" cy="16584.9" r="4200.53" fx="9741.77" fy="16584.9">
   <stop offset="0" style="stop-opacity:1; stop-color:#FEFEFE"/>
   <stop offset="0.921569" style="stop-opacity:1; stop-color:#EDD8A0"/>
   <stop offset="1" style="stop-opacity:1; stop-color:#DDB343"/>
  </radialGradient>
  <linearGradient id="id10" gradientUnits="userSpaceOnUse" x1="9401.89" y1="2513.7" x2="9401.89" y2="1001.98">
   <stop offset="0" style="stop-opacity:1; stop-color:#ECDF56"/>
   <stop offset="0.560784" style="stop-opacity:1; stop-color:#F3E971"/>
   <stop offset="1" style="stop-opacity:1; stop-color:#FBF38C"/>
  </linearGradient>
  <linearGradient id="id11" gradientUnits="userSpaceOnUse" x1="9104.61" y1="12218.8" x2="9104.66" y2="6843.26">
   <stop offset="0" style="stop-opacity:1; stop-color:#DDB343"/>
   <stop offset="1" style="stop-opacity:1; stop-color:#ECDF56"/>
  </linearGradient>
 </defs>
 <g id="Layer_x0020_1">
  <metadata id="CorelCorpID_0Corel-Layer"/>
  <g id="_825329320">
   <g>
    <path class="fil0" d="M9801 19242l-945 194 -261 53 -176 36 -158 32 -75 16 -23 5 76 130 1569 2726 1438 2498c81,126 175,155 288,53l1943 -2370c52,-98 130,-169 267,-181l3010 -502c198,-12 244,-112 139,-299l-1824 -3217 -61 -108 -9 -16 -33 -59 -25 -43 -32 6 -260 53 -140 29 -88 18 -4620 946z"/>
    <path class="fil1" d="M14498 18429l74 -43 -86 -147 -73 42 85 148zm-5915 1079l-74 42 85 149 74 -43 -85 -148zm170 296l-74 43 85 148 74 -43 -85 -148zm170 296l-74 43 85 148 74 -43 -85 -148zm171 297l-74 42 85 148 74 -42 -85 -148zm170 296l-74 42 85 148 74 -42 -85 -148zm170 296l-74 43 85 148 74 -43 -85 -148zm170 296l-74 43 85 148 74 -43 -85 -148zm171 296l-75 43 86 148 74 -42 -85 -149zm170 297l-74 42 85 148 74 -42 -85 -148zm170 296l-74 42 85 148 74 -42 -85 -148zm170 296l-74 43 85 148 74 -43 -85 -148zm170 296l-74 43 86 148 74 -43 -86 -148zm171 296l-74 43 85 148 74 -42 -85 -149zm170 297l-74 42 85 148 74 -42 -85 -148zm170 296l-74 42 85 148 74 -42 -85 -148zm170 296l-74 43 85 148 74 -43 -85 -148zm170 296l-74 43 85 148 75 -43 -86 -148zm105 248l65 55 110 -131 -66 -55 -109 131zm218 -262l66 55 110 -132 -66 -54 -110 131zm219 -262l66 54 109 -131 -65 -55 -110 132zm219 -263l66 55 109 -131 -65 -55 -110 131zm219 -262l66 55 109 -131 -65 -55 -110 131zm219 -262l66 55 109 -132 -65 -54 -110 131zm219 -262l66 54 109 -131 -65 -55 -110 132zm219 -263l66 55 109 -131 -65 -55 -110 131zm219 -262l66 55 109 -131 -65 -55 -110 131zm219 -262l13 11 30 54 163 -26 -13 -85 -179 29 -14 17zm361 -73l14 85 168 -27 -13 -85 -169 27zm338 -54l13 85 169 -27 -14 -85 -168 27zm337 -54l13 85 169 -27 -13 -85 -169 27zm337 -54l14 85 169 -27 -14 -85 -169 27zm338 -54l13 85 169 -27 -14 -85 -168 27zm337 -54l14 84 168 -27 -13 -84 -169 27zm337 -54l14 85 168 -27 -13 -85 -169 27zm338 -54l13 85 169 -27 -14 -85 -168 27zm279 -4l73 -42 -85 -148 -74 43 86 147zm-172 -295l74 -43 -86 -148 -73 43 85 148zm-171 -296l74 -43 -86 -147 -74 42 86 148zm-171 -295l73 -43 -85 -148 -74 43 86 148zm-172 -296l74 -43 -86 -148 -73 43 85 148zm-171 -296l74 -42 -86 -148 -74 43 86 147zm-171 -295l74 -43 -86 -148 -74 43 86 148zm-172 -296l74 -42 -85 -148 -74 43 85 147zm-171 -295l74 -43 -86 -148 -74 43 86 148zm-171 -296l74 -43 -86 -147 -74 42 86 148zm-172 -295l74 -43 -85 -148 -74 43 85 148z"/>
    <path class="fil2" d="M4674 18192c-651,1148 -1302,2296 -1952,3444 -106,187 -59,286 138,299 1004,167 2007,334 3011,501 137,13 215,84 267,182 647,790 1295,1580 1942,2370 113,102 208,72 289,-54 1027,-1784 2055,-3569 3082,-5354 -2259,-463 -4518,-925 -6777,-1388z"/>
    <path class="fil1" d="M5094 18385l-74 -42 85 -148 74 43 -85 147zm5915 1079l74 43 -85 148 -74 -43 85 -148zm-170 296l74 43 -85 148 -75 -43 86 -148zm-171 297l74 42 -85 148 -74 -42 85 -148zm-170 296l74 42 -85 148 -74 -42 85 -148zm-170 296l74 42 -85 149 -74 -43 85 -148zm-170 296l74 43 -85 148 -74 -43 85 -148zm-171 296l74 43 -85 148 -74 -42 85 -149zm-170 297l74 42 -85 148 -74 -42 85 -148zm-170 296l74 42 -85 148 -74 -42 85 -148zm-170 296l74 43 -85 148 -74 -43 85 -148zm-171 296l75 43 -86 148 -74 -43 85 -148zm-170 296l74 43 -85 148 -74 -42 85 -149zm-170 297l74 42 -85 148 -74 -42 85 -148zm-170 296l74 42 -85 149 -74 -43 85 -148zm-170 296l74 43 -86 148 -74 -43 86 -148zm-171 296l74 43 -85 148 -74 -43 85 -148zm-170 296l74 43 -85 148 -74 -43 85 -148zm-104 248l-65 55 -110 -131 66 -55 109 131zm-219 -262l-65 55 -110 -131 66 -55 109 131zm-219 -262l-65 54 -110 -131 66 -54 109 131zm-219 -263l-65 55 -110 -131 66 -55 109 131zm-219 -262l-65 55 -110 -131 66 -55 109 131zm-219 -262l-65 55 -110 -131 66 -55 109 131zm-218 -262l-66 55 -110 -132 66 -54 110 131zm-219 -262l-66 54 -109 -131 65 -55 110 132zm-219 -263l-66 55 -109 -131 65 -55 110 131zm-219 -262l-13 11 -31 54 -162 -26 13 -84 178 28 15 17zm-362 -73l-13 85 -169 -27 14 -85 168 27zm-337 -54l-13 85 -169 -27 13 -85 169 27zm-337 -54l-14 85 -168 -27 13 -85 169 27zm-338 -54l-13 85 -169 -27 14 -85 168 27zm-337 -54l-14 85 -168 -27 13 -85 169 27zm-337 -54l-14 85 -168 -27 13 -85 169 27zm-338 -54l-13 85 -169 -27 14 -85 168 27zm-337 -54l-13 85 -169 -27 13 -85 169 27zm-279 -3l-74 -43 86 -148 74 43 -86 148zm172 -296l-74 -43 85 -148 74 43 -85 148zm171 -296l-74 -42 86 -148 73 43 -85 147zm171 -295l-74 -43 86 -148 74 43 -86 148zm171 -296l-73 -43 85 -147 74 42 -86 148zm172 -295l-74 -43 86 -148 73 43 -85 148zm171 -296l-74 -43 86 -148 74 43 -86 148zm171 -296l-74 -42 86 -148 74 43 -86 147zm172 -295l-74 -43 85 -148 74 43 -85 148zm171 -296l-74 -42 86 -148 74 43 -86 147zm171 -295l-74 -43 86 -148 74 43 -86 148z"/>
   </g>
   <circle class="fil3" cx="9925" cy="9849" r="9849"/>
   <path class="fil4" d="M9925 0c5482,0 9926,4444 9926,9925 0,5482 -4444,9926 -9926,9926 -5481,0 -9925,-4444 -9925,-9926 0,-5481 4444,-9925 9925,-9925zm0 2707c3987,0 7219,3232 7219,7218 0,3987 -3232,7219 -7219,7219 -3986,0 -7218,-3232 -7218,-7219 0,-3986 3232,-7218 7218,-7218z"/>
   <path class="fil5" d="M1717 11585c-54,-272 -95,-547 -122,-823 -27,-276 -40,-554 -40,-831 0,-278 13,-556 40,-832 27,-276 68,-551 122,-823 9,-44 -20,-87 -64,-96 -45,-9 -88,20 -97,64 -55,277 -96,557 -124,839 -28,281 -42,564 -42,848 0,283 14,566 42,847 28,282 69,562 124,839 9,44 52,73 97,64 44,-9 73,-52 64,-96z"/>
   <path class="fil6" d="M9925 124c2707,0 5157,1097 6931,2871 1774,1773 2871,4224 2871,6930 0,2707 -1097,5157 -2871,6931 -1774,1774 -4224,2871 -6931,2871 -2706,0 -5157,-1097 -6930,-2871 -1774,-1774 -2871,-4224 -2871,-6931 0,-2706 1097,-5157 2871,-6930 1773,-1774 4224,-2871 6930,-2871zm6871 2931c-1759,-1758 -4188,-2846 -6871,-2846 -2683,0 -5112,1088 -6870,2846 -1758,1758 -2846,4187 -2846,6870 0,2683 1088,5112 2846,6871 1758,1758 4187,2845 6870,2845 2683,0 5112,-1087 6871,-2845 1758,-1759 2845,-4188 2845,-6871 0,-2683 -1087,-5112 -2845,-6870z"/>
   <path class="fil7" d="M9925 271c2666,0 5080,1080 6827,2827 1747,1748 2828,4161 2828,6827 0,2667 -1081,5080 -2828,6827 -1747,1747 -4160,2828 -6827,2828 -2666,0 -5079,-1081 -6827,-2828 -1747,-1747 -2827,-4161 -2827,-6827 0,-2666 1080,-5079 2827,-6827 1748,-1747 4161,-2827 6827,-2827zm6767 2888c-1732,-1732 -4124,-2803 -6767,-2803 -2642,0 -5034,1071 -6766,2803 -1732,1732 -2803,4124 -2803,6766 0,2643 1071,5035 2803,6767 1732,1732 4124,2803 6766,2803 2643,0 5035,-1071 6767,-2803 1732,-1732 2803,-4124 2803,-6767 0,-2642 -1071,-5034 -2803,-6766z"/>
   <path class="fil5" d="M18250 8276c54,272 95,547 122,823 27,276 40,554 40,832 0,277 -13,555 -40,831 -27,276 -68,551 -122,823 -9,44 20,87 64,96 45,9 88,-20 97,-64 55,-277 96,-557 124,-838 28,-282 42,-565 42,-848 0,-284 -14,-567 -42,-848 -28,-282 -69,-561 -124,-839 -9,-44 -52,-73 -97,-64 -44,9 -73,52 -64,96z"/>
   <path class="fil8" d="M1665 11580c-55,-272 -96,-547 -123,-823 -27,-276 -40,-554 -40,-832 0,-277 13,-555 40,-831 27,-276 68,-551 123,-823 8,-44 -20,-87 -65,-96 -44,-9 -88,20 -96,64 -56,277 -97,557 -125,838 -27,282 -41,565 -41,848 0,284 14,567 41,848 28,282 69,561 125,839 8,44 52,73 96,64 44,-9 73,-52 65,-96z"/>
   <path class="fil9" d="M18186 8271c54,272 95,547 123,823 27,276 40,554 40,831 0,278 -13,556 -40,832 -28,276 -69,551 -123,823 -9,44 20,87 65,96 44,9 87,-20 96,-64 55,-278 97,-557 124,-839 28,-281 42,-564 42,-848 0,-283 -14,-566 -42,-848 -27,-281 -69,-561 -124,-838 -9,-44 -52,-73 -96,-64 -45,9 -74,52 -65,96z"/>
   <circle class="fil10" cx="9925" cy="9925" r="7226"/>
   <path class="fil11" d="M15888 7594c-30,-80 -152,-60 -152,30 0,10 1,18 5,27 19,49 37,98 55,147 35,91 173,51 151,-47l-3 -8c-18,-50 -37,-100 -56,-149zm-11759 9c13,-35 2,-72 -28,-94 -44,-29 -98,-13 -119,35 -20,50 -39,99 -57,149 -31,81 76,149 136,76 5,-6 9,-13 12,-21 18,-48 37,-97 56,-145zm-245 739c23,-83 -94,-140 -145,-59 -3,7 -6,12 -8,20 -13,51 -26,103 -39,155 -21,96 120,140 153,40 13,-52 26,-104 39,-156zm-151 765c13,-95 -128,-128 -155,-28l-1 8c-7,53 -14,105 -19,158 -3,30 9,57 33,73 48,35 119,2 124,-56 5,-52 11,-104 18,-155zm-53 777c0,-83 -114,-111 -152,-32 -4,11 -6,20 -6,32 -1,53 0,106 1,159 4,101 148,104 157,4 2,-54 -1,-109 0,-163zm44 778c-13,-97 -158,-90 -158,12 5,54 14,112 22,166 2,17 12,35 25,47 56,49 141,4 131,-70 -7,-52 -14,-103 -20,-155zm140 766c-26,-98 -172,-65 -153,36 12,52 26,106 41,158 24,88 159,71 155,-27 -1,-6 -2,-10 -3,-16 -14,-50 -27,-100 -40,-151zm235 743c-30,-77 -148,-61 -152,27 0,12 1,20 5,31 19,50 39,99 59,148 16,37 56,57 95,46 45,-13 69,-64 51,-107 -20,-48 -39,-96 -58,-145zm325 709c-46,-84 -175,-28 -144,63 1,4 3,8 5,12 25,47 51,93 77,140 40,73 160,39 147,-53 -2,-10 -5,-17 -10,-26 -25,-37 -53,-95 -75,-136zm410 663c-47,-69 -162,-23 -141,65 3,10 6,17 13,26 30,44 62,87 94,129 58,75 173,5 134,-80 -2,-5 -5,-10 -8,-14 -31,-42 -62,-84 -92,-126zm490 606c-63,-66 -170,6 -128,90 4,7 7,11 12,17 36,39 72,78 109,116 66,67 175,-15 122,-100 -3,-3 -6,-7 -9,-10 -36,-37 -71,-75 -106,-113zm561 540c-51,-46 -136,-3 -129,66 1,21 12,41 28,54 40,35 81,69 123,102 38,30 91,21 116,-20 21,-33 13,-79 -17,-103 -41,-33 -81,-66 -121,-99zm625 465c-34,-21 -76,-15 -102,15 -32,35 -24,92 16,118 45,29 90,57 135,85 73,46 161,-46 101,-119 -5,-6 -11,-11 -18,-15 -44,-28 -88,-55 -132,-84zm678 384c-83,-40 -156,72 -83,133 5,4 9,7 15,9 48,24 96,46 144,68 88,38 155,-81 78,-136 -4,-3 -8,-6 -13,-8 -47,-21 -94,-43 -141,-66zm721 298c-92,-30 -147,95 -64,144 5,2 8,4 13,5 50,17 101,34 152,50 88,28 145,-96 62,-144 -5,-3 -10,-5 -15,-7 -50,-15 -99,-32 -148,-48zm751 206c-81,-19 -135,93 -57,144 9,5 15,8 25,10 52,11 105,21 157,31 92,16 133,-115 42,-152 -5,-2 -9,-3 -14,-4 -51,-9 -102,-19 -153,-29zm772 110c-91,-8 -122,123 -30,154 6,2 11,3 17,3 54,4 107,8 160,11 88,4 117,-119 31,-153 -7,-3 -15,-4 -23,-5 -52,-3 -104,-6 -155,-10zm778 13c-87,3 -104,130 -17,155 9,2 16,3 25,2 53,-2 107,-5 160,-9 95,-8 99,-149 -2,-158 -3,0 -7,0 -10,0 -52,4 -104,7 -156,10zm775 -85c-91,16 -85,152 13,157 5,0 10,-1 15,-2 52,-9 104,-18 157,-29 99,-23 73,-169 -29,-155 -52,10 -104,20 -156,29zm758 -181c-94,30 -60,171 39,153 52,-13 109,-33 160,-50 80,-26 69,-150 -24,-154 -10,0 -17,1 -26,4 -49,17 -99,33 -149,47zm730 -273c-79,34 -52,160 42,151 8,-1 15,-3 23,-6 48,-22 97,-45 145,-67 18,-9 31,-23 39,-42 27,-67 -42,-132 -107,-101 -47,22 -94,44 -142,65zm691 -361c-80,51 -23,172 67,142 5,-2 9,-4 15,-7 45,-27 90,-56 135,-84 71,-45 31,-157 -54,-145 -12,2 -21,5 -31,12 -44,28 -88,55 -132,82zm640 -444c-68,53 -11,166 77,136 8,-4 14,-7 21,-12 42,-34 83,-67 124,-101 24,-21 34,-51 25,-82 -15,-55 -82,-76 -126,-39 -40,33 -81,66 -121,98zm579 -521c-63,63 15,171 98,123 6,-3 10,-7 15,-12 38,-38 74,-77 111,-116 64,-72 -28,-173 -106,-116 -3,3 -6,5 -10,9 -35,38 -71,75 -108,112zm510 -589c-52,66 28,162 106,114 8,-5 14,-11 20,-19 32,-42 64,-85 95,-128 55,-80 -49,-168 -119,-103 -3,3 -7,7 -9,11 -31,42 -62,84 -93,125zm432 -648c-48,88 74,166 134,84 28,-46 55,-97 81,-145 45,-81 -66,-161 -130,-88 -3,4 -6,8 -8,13 -25,45 -51,90 -77,136zm348 -697c-35,81 75,152 135,79 5,-6 8,-11 11,-18 21,-49 40,-99 60,-148 33,-87 -83,-150 -138,-74 -3,5 -6,10 -9,16 -20,46 -39,98 -59,145zm260 -735c-10,34 4,69 34,88 44,27 104,5 117,-45 15,-52 28,-103 42,-155 21,-77 -79,-136 -137,-69 -8,10 -12,18 -16,30 -13,50 -26,101 -40,151zm165 -762c-11,85 98,125 144,55 6,-10 11,-20 12,-31 8,-53 16,-106 22,-159 12,-87 -112,-126 -151,-40 -2,7 -4,13 -5,21 -7,51 -14,103 -22,154zm70 -776c-4,83 113,114 150,36 5,-11 7,-20 7,-32 2,-53 3,-106 3,-160 0,-81 -110,-111 -150,-35 -5,12 -8,22 -8,35 0,52 -1,104 -2,156zm-28 -779c7,89 139,99 156,5 1,-7 2,-13 1,-20 -5,-53 -11,-106 -18,-159 -12,-95 -152,-92 -157,8 0,4 0,8 1,11 6,52 12,104 17,155zm-125 -769c22,93 165,76 156,-27l-2 -8c-12,-52 -24,-104 -37,-156 -27,-98 -172,-65 -154,36 12,52 25,103 37,155z"/>
   <path class="fil12" d="M9925 2677c2002,0 3814,812 5126,2123 1311,1312 2123,3124 2123,5125 0,2002 -812,3814 -2123,5126 -1312,1311 -3124,2123 -5126,2123 -2001,0 -3813,-812 -5125,-2123 -1311,-1312 -2123,-3124 -2123,-5126 0,-2001 812,-3813 2123,-5125 1312,-1311 3124,-2123 5125,-2123zm0 86c3956,0 7163,3207 7163,7162 0,3956 -3207,7163 -7163,7163 -3955,0 -7162,-3207 -7162,-7163 0,-3955 3207,-7162 7162,-7162z"/>
   <circle class="fil13" cx="9925" cy="9925" r="5576"/>
   <path class="fil14" d="M9925 4356c1538,0 2931,623 3939,1631 1007,1008 1631,2401 1631,3938 0,1538 -624,2931 -1631,3938 -1008,1008 -2401,1632 -3939,1632 -1537,0 -2930,-624 -3938,-1632 -1007,-1007 -1631,-2400 -1631,-3938 0,-1537 624,-2930 1631,-3938 1008,-1007 2401,-1631 3938,-1631zm0 85c3029,0 5484,2456 5484,5484 0,3029 -2455,5484 -5484,5484 -3028,0 -5483,-2455 -5483,-5484 0,-3028 2455,-5484 5483,-5484z"/>
   <path class="fil15" d="M9925 2677c4001,0 7244,3235 7244,7226 0,30 -1,60 -1,90 -49,-3950 -3272,-7136 -7243,-7136 -3970,0 -7194,3186 -7242,7136 0,-30 -1,-60 -1,-90 0,-3991 3243,-7226 7243,-7226z"/>
   <path class="fil3" d="M9925 3882c3338,0 6044,2706 6044,6043 0,3338 -2706,6044 -6044,6044 -3337,0 -6043,-2706 -6043,-6044 0,-3337 2706,-6043 6043,-6043z"/>
  </g>
  <path class="fil16" d="M6992 17934c1,6 2,14 1,25 -1,11 -4,23 -8,34 -10,24 -26,40 -48,49 -22,8 -52,5 -90,-10 -29,-12 -56,-29 -81,-51 -26,-22 -46,-49 -61,-81 -16,-32 -24,-67 -26,-107 -2,-39 6,-82 25,-127 9,-25 21,-46 34,-65l-13 -9c-19,-10 -36,-15 -52,-12 -16,2 -31,15 -45,38l-374 630c-6,-1 -15,-4 -26,-8 -10,-4 -22,-10 -35,-18 -23,-13 -39,-29 -48,-45 -10,-17 -7,-38 9,-64l352 -593c17,-28 12,-50 -15,-66l-8 -5 -74 -44 -2 -1 -83 -50 -403 678c-6,-1 -14,-4 -25,-9 -10,-5 -22,-10 -33,-17 -24,-15 -41,-30 -50,-47 -9,-17 -7,-37 8,-62l176 -296c-8,-15 -25,-30 -50,-45 -35,-21 -91,-24 -170,-12 -66,11 -120,14 -164,10 -43,-3 -82,-16 -116,-36l-5 -3c-25,-15 -41,-32 -48,-52 -7,-20 -5,-41 8,-63 11,-18 26,-33 44,-45l45 27c40,24 79,33 118,28 39,-5 70,-26 92,-63 18,-31 26,-63 23,-96 -3,-32 -18,-70 -44,-111l-33 -50c-7,-12 -11,-23 -13,-32 -2,-10 1,-21 8,-33 7,-12 17,-21 30,-28l-64 -39 -2 -1 -36 -21c-19,0 -42,5 -69,16 -28,11 -57,27 -87,47 -31,21 -61,46 -91,76 -29,29 -55,63 -78,102 -25,41 -42,81 -52,120 -10,39 -15,75 -14,109 1,35 6,67 16,96 10,29 22,55 37,77 -2,5 -4,9 -6,12 -2,4 -4,7 -6,12 -12,19 -27,31 -47,36 -19,6 -40,2 -61,-11 -24,-14 -45,-38 -62,-72 -18,-33 -29,-73 -34,-118 -5,-46 -2,-96 10,-152 11,-55 34,-111 68,-168 40,-68 85,-124 136,-168 50,-44 101,-78 151,-102 50,-24 97,-37 140,-41 43,-3 77,2 102,17l10 6 73 43 1 1 678 402 73 44 2 1 63 38c26,15 46,34 59,55 14,22 20,45 17,69 19,-16 40,-25 61,-24 22,0 43,7 64,19l61 36c12,-6 24,-12 37,-16 35,-13 71,-18 109,-16 38,2 74,9 108,23 52,21 93,49 121,83 28,35 48,69 58,102 14,-22 33,-37 56,-46 24,-8 51,-7 81,6l152 61c35,14 45,41 29,79 -4,10 -9,20 -15,28 -6,9 -13,17 -20,24l-169 -69 -295 731c-6,0 -15,-2 -27,-5 -12,-3 -24,-7 -36,-12 -27,-11 -45,-24 -56,-39 -12,-14 -12,-35 -1,-62l221 -548c-1,-20 -5,-39 -11,-59 -6,-20 -15,-38 -25,-56 -11,-17 -25,-33 -41,-47 -16,-14 -34,-26 -55,-34 -40,-16 -79,-17 -116,-3 -37,14 -65,44 -83,90 -17,41 -17,80 0,116 18,36 46,63 87,79 11,5 21,7 28,8 7,1 13,1 20,2zm6995 -847l-2 1 -239 118c27,-9 56,-13 89,-12 32,1 64,8 96,21 32,13 63,34 93,61 30,27 55,63 77,106 28,58 43,115 45,170 1,55 -8,106 -28,155 -20,48 -49,91 -88,130 -40,39 -86,71 -138,98 -55,27 -110,44 -165,53 -54,8 -107,7 -159,-2 -51,-10 -100,-29 -146,-56 -47,-28 -90,-64 -129,-108 -17,-17 -32,-35 -46,-55 -14,-21 -26,-41 -36,-62 -14,-27 -17,-51 -9,-73 8,-21 23,-38 47,-50 13,-6 24,-10 34,-12 10,-1 20,-2 29,-1l28 43c38,60 78,108 120,143 42,35 84,61 125,75 42,15 84,21 126,17 42,-4 82,-16 121,-35 35,-17 64,-39 88,-64 25,-26 42,-54 54,-86 11,-31 15,-65 12,-102 -3,-37 -15,-75 -34,-115 -28,-56 -60,-92 -98,-109 -38,-17 -74,-17 -108,0 -35,17 -56,41 -63,71 -8,30 -3,61 13,93 9,19 20,34 31,46 11,11 23,20 34,27 0,12 -4,25 -13,39 -9,14 -22,26 -40,34 -24,12 -52,13 -82,1 -30,-11 -57,-40 -80,-86 -12,-24 -19,-50 -22,-77 -3,-27 -1,-54 6,-80 7,-26 19,-52 36,-76 17,-25 39,-46 66,-65l-417 207c1,9 1,19 0,27l-109 37c-20,7 -34,17 -43,30 -9,14 -9,34 0,60l234 694c-4,4 -12,9 -23,14 -10,6 -22,11 -36,15 -25,9 -48,11 -66,7 -19,-3 -33,-20 -43,-48l-220 -653c-11,-32 -31,-42 -60,-32l-19 6 -72 24 -1 1 -519 175 54 159c5,16 11,34 16,55 6,20 11,40 15,60 5,20 9,39 12,56 3,17 6,31 7,41 16,-35 35,-72 59,-109 24,-38 49,-74 77,-109 28,-35 58,-67 90,-97 32,-30 65,-55 98,-75 18,2 38,9 60,22 22,12 40,26 53,41 0,24 0,49 1,76 1,28 4,58 8,90 5,33 11,69 20,108 10,40 22,83 38,129 13,39 27,74 41,104 15,31 30,59 45,85 -4,11 -10,22 -19,31 -9,9 -21,16 -36,21 -16,6 -32,7 -47,5 -16,-3 -31,-10 -47,-23 -15,-13 -31,-32 -45,-57 -15,-26 -29,-60 -43,-101 -13,-36 -22,-73 -29,-109 -6,-36 -11,-70 -13,-101 -1,-32 -2,-60 -1,-86 0,-25 2,-46 5,-62 -26,23 -51,50 -75,81 -24,30 -47,63 -68,98 -22,34 -41,71 -59,108 -19,37 -34,73 -47,108 -9,6 -19,11 -30,15 -21,7 -43,10 -66,7 -22,-2 -40,-9 -53,-20l-165 -489 -94 18 -1 0c-8,3 -16,5 -23,5l-7 1 145 775c-5,3 -14,6 -25,10 -12,3 -24,6 -38,9 -27,5 -50,4 -67,-2 -18,-7 -29,-24 -34,-53l-109 -581c-12,-15 -26,-30 -42,-43 -15,-13 -32,-24 -51,-33 -18,-9 -38,-15 -59,-19 -22,-3 -43,-3 -65,2 -43,8 -76,28 -100,60 -23,31 -31,72 -21,120 8,44 29,76 63,98 34,21 72,28 115,19 12,-2 22,-5 28,-8 6,-3 12,-6 18,-9 4,4 9,11 15,21 5,10 9,21 11,33 5,25 0,47 -14,66 -14,20 -41,33 -81,41 -31,5 -63,6 -96,1 -34,-5 -65,-17 -95,-36 -30,-18 -57,-44 -80,-76 -22,-32 -38,-72 -47,-121 -9,-46 -9,-89 1,-129 10,-39 27,-73 50,-103 23,-29 51,-53 84,-72 32,-19 67,-32 103,-39 55,-10 104,-8 147,5 42,14 77,32 104,55 0,-26 7,-49 22,-69 15,-20 39,-33 71,-39l47 -9 709 -239 71 -24 2 0 79 -27c29,-10 56,-13 81,-9 25,4 46,14 63,32 0,-11 2,-21 4,-30l-2 -9c-3,-10 -4,-20 -4,-29l921 -456 68 -34 1 0 75 -38c27,-13 53,-20 79,-19 25,0 48,8 67,23 -3,-25 1,-47 13,-64 12,-18 29,-33 51,-44l78 -38c15,-8 30,-10 43,-6 14,5 25,17 35,37 5,9 9,19 11,30 3,10 4,21 5,30l-103 51c-19,9 -32,21 -39,36 -7,15 -4,34 8,59l326 657c-5,4 -12,9 -21,16 -10,7 -21,14 -34,20 -24,12 -46,18 -65,16 -19,-1 -35,-15 -49,-42l-306 -618c-14,-29 -36,-37 -63,-23l-19 9 0 0 -67 33zm-5044 1010l-92 775c-19,16 -49,21 -90,16 -7,-1 -15,-3 -22,-6 -42,-41 -83,-79 -122,-114 -39,-36 -79,-69 -118,-101 -40,-32 -80,-63 -121,-93 -42,-30 -85,-59 -132,-89 -7,-16 -11,-35 -13,-57 -3,-22 -2,-44 0,-66 1,-5 1,-10 2,-15 1,-6 2,-11 3,-15 38,-21 79,-41 124,-59 45,-19 92,-36 139,-51 48,-15 95,-29 142,-40 48,-12 93,-20 137,-26l9 -78 -544 -64c-37,-5 -53,-28 -48,-70 1,-11 3,-21 7,-32 4,-10 8,-19 13,-26l879 105c18,2 31,8 39,18l872 30c37,1 56,22 54,64 0,10 -2,21 -5,32 -2,10 -6,20 -10,28l-184 -6 -26 781c-19,17 -48,24 -88,23 -5,0 -9,-1 -13,-1 -3,-1 -7,-2 -11,-3 -44,-37 -87,-72 -129,-104 -42,-32 -84,-62 -127,-90 -43,-29 -86,-56 -129,-82 -44,-27 -90,-53 -137,-78 -9,-15 -16,-34 -20,-55 -4,-22 -6,-45 -5,-67 0,-5 0,-10 1,-15 1,-5 2,-10 3,-15 35,-24 75,-47 118,-70 44,-22 88,-43 135,-62 46,-19 92,-36 138,-52 46,-15 90,-27 133,-37l3 -78 -550 -19c-18,0 -32,-6 -41,-16l-174 -20zm-181 203c-63,9 -127,24 -191,45 -65,20 -123,43 -176,68 34,24 66,48 98,72 32,25 63,50 91,73 28,24 55,47 80,69 24,22 45,41 63,58 0,-14 0,-30 1,-48 2,-18 3,-37 4,-56 1,-19 3,-37 4,-55 2,-18 4,-33 5,-45l21 -181zm935 468c-1,-16 -2,-36 -3,-62 0,-25 -1,-50 -2,-75l-254 -169c-19,9 -37,19 -54,28 -18,9 -34,18 -49,29 36,20 71,42 106,64 35,23 68,45 99,67 31,23 60,44 87,64 27,19 51,37 70,54zm2 -398c-30,6 -61,15 -91,25 -31,10 -62,21 -94,34l179 122 6 -181zm393 259c-19,-43 -29,-82 -32,-115 -2,-31 4,-56 18,-74 15,-18 35,-28 60,-30 13,-1 24,-1 33,1 9,2 16,4 21,7l9 38c14,65 33,120 59,165 25,44 54,80 86,107 33,27 68,46 106,57 38,11 75,15 112,12 34,-3 64,-9 88,-21 23,-11 43,-24 58,-41 15,-17 26,-36 32,-56 7,-21 9,-43 7,-65 -1,-11 -2,-20 -5,-28 -3,-8 -6,-16 -9,-23 -18,8 -38,17 -60,26 -22,9 -44,18 -66,26 -21,8 -42,15 -62,21 -20,6 -37,9 -50,10 -28,2 -51,-3 -68,-16 -18,-12 -32,-33 -43,-63 -11,-30 -20,-65 -28,-104 -7,-39 -13,-81 -17,-127 -28,-10 -56,-24 -83,-40 -27,-16 -51,-34 -72,-53 -22,-20 -39,-40 -53,-61 -14,-21 -21,-43 -23,-64 -2,-24 4,-44 19,-60 14,-15 34,-24 59,-26 12,-1 22,0 31,2 37,77 81,135 131,175 7,-62 29,-113 66,-154 37,-40 91,-63 162,-69 33,-2 64,0 91,8 27,8 51,19 71,35 20,15 36,34 47,55 12,21 18,45 20,70 3,35 -2,65 -13,90 -12,25 -29,46 -51,62 -22,17 -48,30 -78,40 -31,10 -63,16 -97,18 -30,3 -57,2 -78,-3 3,29 7,58 13,85 5,28 11,51 17,69 22,-7 55,-19 99,-37 45,-18 104,-42 178,-73 10,7 21,17 33,29 12,12 23,26 34,43 11,17 20,35 28,56 8,21 13,44 15,70 4,48 -2,91 -17,129 -15,39 -37,72 -67,100 -29,28 -65,50 -108,67 -43,17 -91,27 -143,31 -51,4 -100,0 -148,-11 -48,-11 -93,-30 -136,-56 -42,-26 -80,-58 -113,-98 -34,-39 -61,-84 -83,-136zm486 -522c-13,1 -25,4 -37,10 -12,5 -23,13 -32,24 -10,11 -17,25 -23,42 -5,18 -7,39 -5,64 12,2 24,4 37,5 12,1 25,1 38,0 27,-3 52,-10 73,-23 21,-14 30,-34 28,-61 -2,-19 -10,-35 -25,-46 -15,-11 -33,-16 -54,-15zm545 -36l148 788c-6,3 -14,7 -25,11 -11,4 -24,7 -38,10 -27,5 -49,4 -67,-3 -18,-6 -30,-24 -35,-54l-136 -723 -105 20c-37,7 -58,-11 -66,-53 -2,-10 -3,-21 -3,-32 1,-11 2,-21 5,-29l135 -25c-14,-11 -26,-27 -37,-46 -11,-20 -19,-43 -24,-68 -8,-41 -5,-80 7,-116 12,-36 33,-70 63,-100 30,-30 68,-56 113,-78 46,-22 98,-38 157,-49 54,-10 104,-15 153,-15 48,1 92,3 131,9 40,5 74,12 104,21 30,9 53,16 69,23 30,13 50,26 61,38 11,11 18,24 21,37 3,19 1,36 -8,50 -9,13 -20,25 -34,33 -65,-29 -137,-52 -218,-68 -80,-16 -163,-15 -250,1 -73,14 -128,39 -165,76 -37,37 -51,79 -42,128 5,25 12,45 23,60 11,15 22,27 35,34l144 -27c17,-3 31,-1 43,7 12,7 20,22 24,44 2,11 3,21 2,32 0,11 -2,21 -4,30l-181 34zm-5104 -636c13,8 23,15 31,22 9,7 15,14 20,20l121 -202 -325 -193c13,19 24,40 33,65 10,24 17,50 20,78 3,28 2,56 -2,86 -5,29 -15,58 -32,86l-5 9c23,-2 47,-1 71,4 24,4 47,12 68,25z"/>
  <path class="fil17" d="M6992 17876c1,6 2,14 1,25 -1,11 -4,23 -8,34 -10,24 -26,40 -48,48 -22,9 -52,6 -90,-9 -29,-12 -56,-29 -81,-51 -26,-22 -46,-49 -61,-81 -16,-32 -24,-67 -26,-107 -2,-39 6,-82 25,-128 9,-24 21,-45 34,-65l-13 -8c-19,-11 -36,-15 -52,-13 -16,3 -31,16 -45,39l-374 630c-6,-1 -15,-4 -26,-8 -10,-4 -22,-10 -35,-18 -23,-14 -39,-29 -48,-46 -10,-16 -7,-38 9,-63l352 -593c17,-28 12,-50 -15,-66l-8 -6 -74 -43 -2 -1 -83 -50 -403 678c-6,-1 -14,-4 -25,-9 -10,-5 -22,-10 -33,-17 -24,-15 -41,-30 -50,-47 -9,-17 -7,-38 8,-63l176 -295c-8,-15 -25,-30 -50,-45 -35,-21 -91,-25 -170,-12 -66,11 -120,14 -164,10 -43,-4 -82,-16 -116,-36l-5 -3c-25,-15 -41,-32 -48,-52 -7,-20 -5,-41 8,-63 11,-18 26,-33 44,-45l45 27c40,24 79,33 118,28 39,-5 70,-26 92,-63 18,-31 26,-63 23,-96 -3,-33 -18,-70 -44,-111l-33 -50c-7,-12 -11,-23 -13,-33 -2,-9 1,-20 8,-32 7,-12 17,-21 30,-28l-64 -39 -2 -1 -36 -21c-19,0 -42,5 -69,16 -28,11 -57,27 -87,47 -31,21 -61,46 -91,76 -29,29 -55,63 -78,102 -25,41 -42,81 -52,120 -10,38 -15,75 -14,109 1,35 6,66 16,96 10,29 22,55 37,77 -2,5 -4,9 -6,12 -2,4 -4,7 -6,12 -12,19 -27,31 -47,36 -19,6 -40,2 -61,-11 -24,-14 -45,-38 -62,-72 -18,-33 -29,-73 -34,-118 -5,-46 -2,-96 10,-152 11,-55 34,-111 68,-168 40,-68 85,-124 136,-168 50,-44 101,-78 151,-102 50,-24 97,-37 140,-41 43,-3 77,2 102,17l10 6 73 43 1 1 678 402 73 44 2 1 63 38c26,15 46,34 59,55 14,22 20,45 17,69 19,-17 40,-25 61,-24 22,0 43,7 64,19l61 36c12,-6 24,-12 37,-16 35,-13 71,-18 109,-16 38,1 74,9 108,23 52,21 93,49 121,83 28,34 48,68 58,102 14,-22 33,-37 56,-46 24,-8 51,-7 81,6l152 61c35,14 45,41 29,79 -4,10 -9,19 -15,28 -6,9 -13,17 -20,24l-169 -69 -295 731c-6,0 -15,-2 -27,-5 -12,-3 -24,-7 -36,-12 -27,-11 -45,-24 -56,-39 -12,-15 -12,-35 -1,-62l221 -548c-1,-20 -5,-39 -11,-59 -6,-20 -15,-38 -25,-56 -11,-17 -25,-33 -41,-47 -16,-15 -34,-26 -55,-34 -40,-17 -79,-18 -116,-3 -37,14 -65,44 -83,90 -17,41 -17,80 0,116 18,36 46,62 87,79 11,4 21,7 28,8 7,1 13,1 20,2zm6995 -847l-2 1 -239 118c27,-9 56,-13 89,-12 32,1 64,8 96,21 32,13 63,34 93,61 30,27 55,63 77,106 28,58 43,115 45,170 1,55 -8,106 -28,155 -20,48 -49,91 -88,130 -40,39 -86,71 -138,98 -55,27 -110,44 -165,53 -54,8 -107,7 -159,-3 -51,-9 -100,-28 -146,-56 -47,-27 -90,-63 -129,-108 -17,-16 -32,-34 -46,-55 -14,-20 -26,-40 -36,-61 -14,-27 -17,-51 -9,-73 8,-21 23,-38 47,-50 13,-6 24,-10 34,-12 10,-2 20,-2 29,-1l28 43c38,60 78,107 120,143 42,35 84,60 125,75 42,15 84,21 126,17 42,-4 82,-16 121,-35 35,-17 64,-39 88,-64 25,-26 42,-54 54,-86 11,-31 15,-66 12,-102 -3,-37 -15,-75 -34,-115 -28,-56 -60,-92 -98,-109 -38,-17 -74,-17 -108,0 -35,17 -56,41 -63,71 -8,30 -3,61 13,93 9,19 20,34 31,45 11,12 23,21 34,28 0,12 -4,25 -13,39 -9,14 -22,26 -40,34 -24,12 -52,13 -82,1 -30,-11 -57,-40 -80,-86 -12,-24 -19,-50 -22,-77 -3,-27 -1,-54 6,-80 7,-26 19,-52 36,-76 17,-25 39,-47 66,-65l-417 207c1,9 1,18 0,27l-109 37c-20,7 -34,17 -43,30 -9,14 -9,34 0,59l234 695c-4,4 -12,8 -23,14 -10,6 -22,11 -36,15 -25,9 -48,11 -66,7 -19,-4 -33,-20 -43,-48l-220 -654c-11,-31 -31,-41 -60,-31l-19 6 -72 24 -1 1 -519 175 54 159c5,16 11,34 16,54 6,21 11,41 15,61 5,20 9,39 12,56 3,17 6,31 7,41 16,-35 35,-72 59,-109 24,-38 49,-74 77,-109 28,-35 58,-67 90,-97 32,-30 65,-55 98,-75 18,2 38,9 60,22 22,12 40,26 53,41 0,24 0,49 1,76 1,27 4,57 8,90 5,33 11,69 20,108 10,39 22,83 38,129 13,39 27,73 41,104 15,31 30,59 45,85 -4,11 -10,22 -19,31 -9,9 -21,16 -36,21 -16,5 -32,7 -47,5 -16,-3 -31,-10 -47,-23 -15,-13 -31,-32 -45,-58 -15,-25 -29,-59 -43,-100 -13,-37 -22,-73 -29,-109 -6,-36 -11,-70 -13,-102 -1,-31 -2,-59 -1,-85 0,-25 2,-46 5,-62 -26,23 -51,50 -75,80 -24,31 -47,64 -68,99 -22,34 -41,70 -59,108 -19,37 -34,73 -47,108 -9,6 -19,11 -30,15 -21,7 -43,9 -66,7 -22,-2 -40,-9 -53,-21l-165 -488 -94 18 -1 0c-8,3 -16,4 -23,4l-7 2 145 775c-5,3 -14,6 -25,10 -12,3 -24,6 -38,9 -27,5 -50,4 -67,-2 -18,-7 -29,-25 -34,-53l-109 -581c-12,-15 -26,-30 -42,-43 -15,-13 -32,-24 -51,-33 -18,-9 -38,-15 -59,-19 -22,-3 -43,-3 -65,1 -43,8 -76,28 -100,60 -23,32 -31,73 -21,121 8,44 29,76 63,98 34,21 72,27 115,19 12,-2 22,-5 28,-8 6,-3 12,-6 18,-9 4,4 9,11 15,21 5,10 9,21 11,33 5,25 0,47 -14,66 -14,20 -41,33 -81,41 -31,5 -63,6 -96,1 -34,-5 -65,-17 -95,-36 -30,-18 -57,-44 -80,-76 -22,-32 -38,-72 -47,-121 -9,-46 -9,-89 1,-129 10,-39 27,-73 50,-103 23,-29 51,-53 84,-72 32,-19 67,-32 103,-39 55,-10 104,-8 147,5 42,14 77,32 104,55 0,-26 7,-49 22,-69 15,-20 39,-33 71,-39l47 -9 709 -239 71 -24 2 -1 79 -26c29,-10 56,-13 81,-9 25,4 46,14 63,32 0,-11 2,-21 4,-30l-2 -9c-3,-10 -4,-20 -4,-29l921 -456 68 -34 1 -1 75 -37c27,-13 53,-20 79,-19 25,0 48,8 67,23 -3,-25 1,-47 13,-65 12,-17 29,-32 51,-43l78 -38c15,-8 30,-10 43,-6 14,4 25,17 35,36 5,10 9,20 11,31 3,10 4,20 5,30l-103 51c-19,9 -32,21 -39,36 -7,15 -4,34 8,59l326 656c-5,5 -12,10 -21,17 -10,7 -21,14 -34,20 -24,12 -46,18 -65,16 -19,-1 -35,-15 -49,-42l-306 -618c-14,-29 -36,-37 -63,-24l-19 9 0 1 -67 33zm-5044 1010l-92 775c-19,15 -49,21 -90,16 -7,-1 -15,-3 -22,-6 -42,-41 -83,-79 -122,-114 -39,-36 -79,-69 -118,-101 -40,-32 -80,-63 -121,-93 -42,-30 -85,-60 -132,-89 -7,-16 -11,-35 -13,-57 -3,-22 -2,-44 0,-66 1,-5 1,-10 2,-16 1,-5 2,-10 3,-14 38,-21 79,-41 124,-60 45,-18 92,-35 139,-50 48,-16 95,-29 142,-40 48,-12 93,-20 137,-26l9 -78 -544 -64c-37,-5 -53,-28 -48,-71 1,-10 3,-21 7,-31 4,-10 8,-19 13,-26l879 105c18,2 31,8 39,18l872 29c37,2 56,23 54,65 0,10 -2,21 -5,32 -2,10 -6,20 -10,28l-184 -6 -26 781c-19,16 -48,24 -88,23 -5,0 -9,-1 -13,-1 -3,-1 -7,-2 -11,-3 -44,-37 -87,-72 -129,-104 -42,-32 -84,-62 -127,-90 -43,-29 -86,-56 -129,-83 -44,-26 -90,-52 -137,-77 -9,-15 -16,-34 -20,-56 -4,-22 -6,-44 -5,-66 0,-5 0,-10 1,-15 1,-5 2,-10 3,-15 35,-24 75,-47 118,-70 44,-22 88,-43 135,-62 46,-19 92,-36 138,-52 46,-15 90,-28 133,-37l3 -78 -550 -19c-18,0 -32,-6 -41,-16l-174 -20zm-181 203c-63,9 -127,24 -191,45 -65,20 -123,43 -176,68 34,24 66,48 98,72 32,25 63,49 91,73 28,24 55,47 80,69 24,22 45,41 63,58 0,-14 0,-30 1,-48 2,-19 3,-37 4,-56 1,-19 3,-37 4,-55 2,-18 4,-33 5,-46l21 -180zm935 467c-1,-15 -2,-35 -3,-61 0,-25 -1,-50 -2,-75l-254 -169c-19,9 -37,18 -54,28 -18,9 -34,18 -49,28 36,21 71,42 106,65 35,23 68,45 99,67 31,23 60,44 87,63 27,20 51,38 70,54zm2 -398c-30,7 -61,16 -91,26 -31,10 -62,21 -94,34l179 122 6 -182zm393 260c-19,-43 -29,-82 -32,-116 -2,-30 4,-55 18,-73 15,-18 35,-28 60,-30 13,-1 24,-1 33,1 9,2 16,4 21,6l9 39c14,65 33,120 59,165 25,44 54,80 86,107 33,27 68,46 106,57 38,11 75,15 112,12 34,-3 64,-10 88,-21 23,-11 43,-25 58,-41 15,-17 26,-36 32,-57 7,-20 9,-42 7,-64 -1,-11 -2,-20 -5,-28 -3,-8 -6,-16 -9,-23 -18,8 -38,17 -60,26 -22,9 -44,18 -66,26 -21,8 -42,15 -62,21 -20,6 -37,9 -50,10 -28,2 -51,-3 -68,-16 -18,-12 -32,-34 -43,-63 -11,-30 -20,-65 -28,-104 -7,-39 -13,-81 -17,-127 -28,-10 -56,-24 -83,-40 -27,-16 -51,-34 -72,-53 -22,-20 -39,-40 -53,-61 -14,-22 -21,-43 -23,-64 -2,-24 4,-44 19,-60 14,-15 34,-24 59,-26 12,-1 22,0 31,2 37,77 81,135 131,175 7,-62 29,-113 66,-154 37,-40 91,-63 162,-69 33,-2 64,0 91,8 27,8 51,19 71,34 20,16 36,34 47,56 12,21 18,45 20,70 3,34 -2,64 -13,90 -12,25 -29,46 -51,62 -22,17 -48,30 -78,40 -31,9 -63,15 -97,18 -30,2 -57,1 -78,-3 3,29 7,58 13,85 5,28 11,51 17,69 22,-7 55,-19 99,-37 45,-18 104,-42 178,-73 10,7 21,17 33,29 12,12 23,26 34,43 11,17 20,35 28,56 8,21 13,44 15,70 4,48 -2,91 -17,129 -15,39 -37,72 -67,100 -29,28 -65,50 -108,67 -43,17 -91,27 -143,31 -51,4 -100,0 -148,-11 -48,-11 -93,-30 -136,-56 -42,-26 -80,-58 -113,-98 -34,-39 -61,-84 -83,-136zm486 -522c-13,1 -25,4 -37,9 -12,6 -23,14 -32,25 -10,11 -17,25 -23,42 -5,18 -7,39 -5,64 12,2 24,3 37,4 12,1 25,1 38,0 27,-2 52,-9 73,-23 21,-13 30,-33 28,-60 -2,-19 -10,-35 -25,-46 -15,-12 -33,-16 -54,-15zm545 -36l148 788c-6,3 -14,6 -25,10 -11,4 -24,8 -38,11 -27,5 -49,4 -67,-3 -18,-6 -30,-24 -35,-54l-136 -723 -105 20c-37,6 -58,-11 -66,-53 -2,-10 -3,-21 -3,-32 1,-11 2,-21 5,-29l135 -25c-14,-12 -26,-27 -37,-47 -11,-19 -19,-42 -24,-67 -8,-41 -5,-80 7,-116 12,-37 33,-70 63,-100 30,-30 68,-56 113,-78 46,-22 98,-38 157,-49 54,-10 104,-15 153,-15 48,0 92,3 131,9 40,5 74,12 104,21 30,9 53,16 69,23 30,13 50,26 61,37 11,12 18,25 21,38 3,19 1,36 -8,49 -9,14 -20,26 -34,34 -65,-29 -137,-52 -218,-68 -80,-16 -163,-16 -250,1 -73,13 -128,39 -165,76 -37,37 -51,79 -42,128 5,25 12,45 23,60 11,15 22,26 35,34l144 -27c17,-3 31,-1 43,7 12,7 20,22 24,44 2,10 3,21 2,32 0,11 -2,21 -4,30l-181 34zm-5104 -636c13,7 23,15 31,22 9,7 15,14 20,20l121 -202 -325 -193c13,19 24,40 33,65 10,24 17,50 20,78 3,28 2,56 -2,86 -5,29 -15,58 -32,86l-5 9c23,-2 47,-1 71,4 24,4 47,12 68,25z"/>
  <path class="fil18" d="M6992 17876c1,6 2,14 1,25 -1,11 -3,21 -8,32l-13 -1c-7,-1 -17,-3 -28,-8 -41,-16 -69,-43 -87,-79 -13,-27 -16,-56 -10,-87 3,10 6,20 10,29 18,36 46,62 87,79 11,4 21,7 28,8 7,1 13,1 20,2zm-312 -122c-1,-6 -1,-12 -1,-19 -2,-39 6,-82 25,-128 3,-7 6,-14 9,-21 4,2 8,4 12,6l13 9c-13,19 -25,40 -34,65 -13,30 -21,60 -24,88zm-532 370l-3 -6c-10,-16 -7,-38 9,-63l351 -591c14,15 14,33 1,56l-352 593c-2,4 -5,7 -6,11zm-332 -218l-3 -5c-9,-17 -7,-38 8,-63l156 -261c9,8 16,16 20,24l-176 296c-2,3 -3,6 -5,9zm-369 -495l-3 -6c-7,-20 -5,-41 8,-63 11,-18 26,-33 44,-45l45 27c40,24 79,33 118,28 39,-5 70,-26 92,-63 10,-18 17,-35 21,-53 1,5 2,10 2,15 3,33 -5,65 -23,96 -22,37 -53,58 -92,63 -39,5 -78,-4 -118,-28l-45 -27c-18,12 -33,27 -44,45 -2,4 -4,8 -5,11zm246 -387c-5,-9 -8,-17 -9,-25 -1,-6 0,-14 4,-23l34 21c-12,7 -22,16 -29,27zm-463 344c2,27 7,52 15,76 10,29 22,55 37,77 -2,5 -4,9 -6,12 -2,4 -4,7 -6,12l-5 6c-7,-15 -14,-31 -20,-49 -10,-29 -15,-61 -16,-96 0,-12 0,-25 1,-38zm-165 -2c-3,-42 1,-88 11,-138 11,-55 34,-111 68,-168 40,-68 85,-124 136,-168 50,-44 101,-78 151,-102 50,-24 97,-37 140,-41 43,-3 77,2 102,17l10 6 73 43 1 1 678 402 73 44 2 1 63 38c26,15 46,34 59,55 14,22 20,45 17,69 19,-17 40,-25 61,-24 22,0 43,7 64,19l61 36c12,-6 24,-12 37,-16 35,-13 71,-18 109,-16 38,1 74,9 108,23 52,21 93,49 121,83 28,34 48,68 58,102 14,-22 33,-37 56,-46 24,-8 51,-7 81,6l152 61c35,14 45,41 29,79l0 1c-6,-9 -15,-16 -29,-22l-152 -61c-30,-13 -57,-14 -81,-6 -23,9 -42,24 -56,46 -10,-33 -30,-67 -58,-102 -28,-34 -69,-62 -121,-83 -34,-14 -70,-21 -108,-23 -38,-2 -74,3 -109,16 -13,4 -25,10 -37,16l-61 -36c-21,-12 -42,-19 -64,-19 -21,-1 -42,8 -61,24 3,-24 -3,-47 -17,-69 -13,-21 -33,-40 -59,-55l-63 -38 -2 -1 -73 -44 -678 -402 -1 -1 -73 -43 -10 -6c-25,-15 -59,-20 -102,-17 -43,4 -90,17 -140,41 -50,24 -101,58 -151,102 -51,44 -96,100 -136,168 -34,57 -57,113 -68,168 -6,28 -10,54 -11,80zm1901 1022c-10,-14 -9,-35 1,-60l215 -532c3,14 5,28 6,42l-221 548 -1 2zm6912 -1247c18,3 36,9 53,16 32,13 63,34 93,61 30,27 55,63 77,106 28,58 43,115 45,170 0,13 0,26 -1,39 -4,-49 -19,-99 -44,-151 -22,-43 -47,-79 -77,-106 -30,-27 -61,-48 -93,-61 -32,-13 -64,-20 -96,-21 -33,-1 -62,3 -89,12l132 -65zm-675 488c-6,-20 -7,-38 -1,-55 8,-21 23,-38 47,-50 13,-6 24,-10 34,-12 10,-2 20,-2 29,-1l28 43c38,60 78,107 120,143 42,35 84,60 125,75 42,15 84,21 126,17 42,-4 82,-16 121,-35 35,-17 64,-39 88,-64 25,-26 42,-54 54,-86 5,-16 9,-33 11,-50l1 6c3,37 -1,71 -12,102 -12,32 -29,60 -54,86 -24,25 -53,47 -88,64 -39,19 -79,31 -121,35 -42,4 -84,-2 -126,-17 -41,-14 -83,-40 -125,-75 -42,-35 -82,-83 -120,-143l-28 -43c-9,-1 -19,0 -29,1 -10,2 -21,6 -34,12 -23,11 -38,27 -46,47zm480 -222c3,12 7,23 13,35 9,19 20,34 31,45 11,12 23,21 34,28 0,12 -4,25 -13,39 -1,2 -3,4 -4,6 -6,-4 -11,-9 -17,-14 -11,-12 -22,-27 -31,-46 -16,-32 -21,-63 -13,-93l0 0zm-158 26l-1 -7c-3,-27 -1,-54 6,-80 4,-14 9,-27 15,-40l87 -43c-27,19 -49,40 -66,65 -17,24 -29,50 -36,76 -2,9 -4,19 -5,29zm-462 132l0 0 234 695c-3,3 -9,6 -16,10l-218 -646c-9,-26 -9,-46 0,-59zm-807 256l36 107c5,16 11,34 16,54 6,21 11,41 15,61 5,20 9,39 12,56 3,17 6,31 7,41 16,-35 35,-72 59,-109 24,-38 49,-74 77,-109 28,-35 58,-67 90,-97 32,-30 65,-55 98,-75 18,2 38,9 60,22 22,12 40,26 53,41 0,24 0,49 1,76 1,27 4,57 8,90 5,33 11,69 20,108 10,39 22,83 38,129 13,39 27,73 41,104 15,31 30,59 45,85 -3,10 -9,20 -17,28 -9,-17 -19,-35 -28,-55 -14,-30 -28,-65 -41,-104 -16,-46 -28,-89 -38,-129 -9,-39 -15,-75 -20,-108 -4,-32 -7,-62 -8,-90 -1,-27 -1,-52 -1,-76 -13,-15 -31,-29 -53,-41 -22,-13 -42,-20 -60,-22 -33,20 -66,45 -98,75 -32,30 -62,62 -90,97 -28,35 -53,71 -77,109 -24,37 -43,74 -59,109 -1,-10 -4,-24 -7,-41 -3,-17 -7,-36 -12,-56 -4,-20 -9,-40 -15,-60 -5,-21 -11,-39 -16,-55l-54 -159 18 -6zm396 214c-1,-17 -1,-34 0,-49l5 -5c-3,15 -4,33 -5,54zm-672 -124l134 719c-2,1 -6,3 -10,4l-135 -721 7 -1 4 -1zm-479 181l2 8c8,44 29,76 63,98 34,21 72,27 115,19 12,-2 22,-5 28,-8 6,-3 12,-6 18,-9 4,4 9,11 15,21 5,10 9,21 11,33 3,16 2,32 -3,46 -2,-8 -5,-15 -8,-21 -6,-10 -11,-17 -15,-21 -6,3 -12,6 -18,9 -6,3 -16,6 -28,8 -43,9 -81,2 -115,-19 -34,-22 -55,-54 -63,-98 -5,-24 -5,-46 -2,-66zm-166 3c-3,-33 -1,-65 6,-95 10,-39 27,-73 50,-103 23,-29 51,-53 84,-72 32,-19 67,-32 103,-39 55,-10 104,-8 147,5 42,14 77,32 104,55 0,-26 7,-49 22,-69 15,-20 39,-33 71,-39l47 -9 709 -239 71 -24 2 -1 79 -26c29,-10 56,-13 81,-9 24,3 44,13 61,30 1,6 2,14 4,21l2 9c-2,9 -4,19 -4,30 -17,-18 -38,-28 -63,-32 -25,-4 -52,-1 -81,9l-79 27 -2 0 -71 24 -709 239 -47 9c-32,6 -56,19 -71,39 -15,20 -22,43 -22,69 -27,-23 -62,-41 -104,-55 -43,-13 -92,-15 -147,-5 -36,7 -71,20 -103,39 -33,19 -61,43 -84,72 -23,30 -40,64 -50,103 -3,12 -5,25 -6,37zm1640 -644c0,-7 1,-13 3,-19l-2 -9c-3,-10 -4,-20 -4,-29l921 -456 68 -34 1 -1 75 -37c27,-13 53,-20 79,-19 25,0 48,8 67,23 -3,-25 1,-47 13,-65 12,-17 29,-32 51,-43l78 -38c15,-8 30,-10 43,-6 14,4 25,17 35,36 5,10 9,20 11,31 3,10 4,20 5,30l-12 6 -4 -8c-10,-20 -21,-32 -35,-37 -13,-4 -28,-2 -43,6l-78 38c-22,11 -39,26 -51,44 -12,17 -16,39 -13,64 -19,-15 -42,-23 -67,-23 -26,-1 -52,6 -79,19l-75 38 -1 0 -68 34 -918 455zm1306 -498l4 8 326 656c-5,5 -12,10 -21,17l-305 -615c-12,-25 -15,-44 -8,-59 1,-2 3,-5 4,-7zm-6049 1416c-2,-22 -1,-44 1,-65 1,-5 1,-10 2,-16 1,-5 2,-10 3,-14 38,-21 79,-41 124,-60 45,-18 92,-35 139,-50 48,-16 95,-29 142,-40 48,-12 93,-20 137,-26l2 -20 7 0 -9 78c-44,6 -89,14 -137,26 -47,11 -94,25 -142,40 -47,15 -94,32 -139,51 -45,18 -86,38 -124,59 -1,4 -2,9 -3,15 -1,5 -1,10 -2,15l-1 7zm-32 -444c-4,-10 -5,-24 -3,-40 1,-10 3,-21 7,-31 4,-10 8,-19 13,-26l879 105c18,2 31,8 39,18l872 29c37,2 56,23 54,65 0,9 -1,18 -3,27 -7,-21 -24,-33 -51,-33l-872 -30c-8,-10 -21,-16 -39,-18l-879 -105c-5,7 -9,16 -13,26 -2,5 -3,9 -4,13zm978 540c-1,-14 -2,-28 -1,-42 0,-5 0,-10 1,-15 1,-5 2,-10 3,-15 35,-24 75,-47 118,-70 44,-22 88,-43 135,-62 46,-19 92,-36 138,-52 46,-15 90,-28 133,-37l1 -20 2 0 -3 78c-43,10 -87,22 -133,37 -46,16 -92,33 -138,52 -47,19 -91,40 -135,62 -43,23 -83,46 -118,70 -1,4 -2,9 -3,14zm-733 -74c16,12 32,24 48,36 32,25 63,49 91,73 28,24 55,47 80,69 24,22 45,41 63,58 0,-14 0,-30 1,-48 2,-19 3,-37 4,-56 1,-19 3,-37 4,-55 2,-18 4,-33 5,-46l14 -121 7 -1 -21 181c-1,12 -3,27 -5,45 -1,18 -3,36 -4,55 -1,19 -2,38 -4,56 -1,18 -1,34 -1,48 -18,-17 -39,-36 -63,-58 -25,-22 -52,-45 -80,-69 -28,-23 -59,-48 -91,-73 -32,-24 -64,-48 -98,-72 16,-7 33,-15 50,-22zm939 98c19,12 38,24 57,36 35,23 68,45 99,67 31,23 60,44 87,63 26,19 48,36 67,52 1,25 2,45 3,61 -19,-17 -43,-35 -70,-54 -27,-20 -56,-41 -87,-64 -31,-22 -64,-44 -99,-67 -35,-22 -70,-44 -106,-64 15,-11 31,-20 49,-29l0 -1zm185 -81l124 85 4 -123 2 0 -6 181 -179 -122c19,-8 37,-14 55,-21zm493 67c-1,-7 -1,-13 -2,-20 -2,-30 4,-55 18,-73 15,-18 35,-28 60,-30 13,-1 24,-1 33,1 9,2 16,4 21,6l9 39c14,65 33,120 59,165 25,44 54,80 86,107 33,27 68,46 106,57 38,11 75,15 112,12 34,-3 64,-10 88,-21 23,-11 43,-25 58,-41 15,-17 26,-36 32,-57 2,-7 4,-14 5,-21 1,5 2,10 2,15 2,22 0,44 -7,65 -6,20 -17,39 -32,56 -15,17 -35,30 -58,41 -24,12 -54,18 -88,21 -37,3 -74,-1 -112,-12 -38,-11 -73,-30 -106,-57 -32,-27 -61,-63 -86,-107 -26,-45 -45,-100 -59,-165l-9 -38c-5,-3 -12,-5 -21,-7 -9,-2 -20,-2 -33,-1 -25,2 -45,12 -60,30 -7,10 -13,21 -16,35zm52 -392c-2,-8 -3,-15 -4,-23 -2,-24 4,-44 19,-60 14,-15 34,-24 59,-26 12,-1 22,0 31,2 37,77 81,135 131,175 7,-62 29,-113 66,-154 37,-40 91,-63 162,-69 33,-2 64,0 91,8 27,8 51,19 71,34 20,16 36,34 47,56 4,6 7,13 9,20 1,7 1,14 3,21 2,10 4,19 8,27l0 2c2,17 1,32 -1,47 -3,-21 -9,-41 -19,-59 -11,-21 -27,-40 -47,-55 -20,-16 -44,-27 -71,-35 -27,-8 -58,-10 -91,-8 -71,6 -125,29 -162,69 -37,41 -59,92 -66,154 -50,-40 -94,-98 -131,-175 -9,-2 -19,-3 -31,-2 -25,2 -45,11 -59,26 -7,8 -12,16 -15,25zm384 280l5 25c5,28 11,51 17,69 22,-7 55,-19 99,-37 45,-18 104,-42 178,-73 10,7 21,17 33,29 12,12 23,26 34,43 11,17 20,35 28,56 8,21 13,44 15,70 1,20 1,38 0,56 -2,-25 -7,-48 -15,-68 -8,-21 -17,-39 -28,-56 -11,-17 -22,-31 -34,-43 -12,-12 -23,-22 -33,-29 -74,31 -133,55 -178,73 -44,18 -77,30 -99,37 -6,-18 -12,-41 -17,-69 -6,-27 -10,-56 -13,-85l8 2zm-13 -173c10,1 21,3 33,3 12,1 25,1 38,0 27,-2 52,-9 73,-23 10,-6 18,-14 22,-24 3,6 5,14 6,22 2,27 -7,47 -28,61 -21,13 -46,20 -73,23 -13,1 -26,1 -38,0 -13,-1 -25,-3 -37,-5 -2,-22 -1,-41 4,-57zm648 -121l138 732c-3,1 -6,3 -10,5l-138 -735 10 -2zm-334 -57l0 -3c-2,-10 -3,-21 -3,-32 1,-11 2,-21 5,-29l95 -18 3 5c11,19 23,35 37,46l-135 25 -2 6zm73 -220c-4,-35 -1,-68 10,-99 12,-37 33,-70 63,-100 30,-30 68,-56 113,-78 46,-22 98,-38 157,-49 54,-10 104,-15 153,-15 48,0 92,3 131,9 40,5 74,12 104,21 30,9 53,16 69,23 30,13 50,26 61,37 11,12 18,25 21,38 3,16 1,31 -5,44 -4,-8 -9,-16 -16,-23 -11,-12 -31,-25 -61,-38 -16,-7 -39,-14 -69,-23 -30,-9 -64,-16 -104,-21 -39,-6 -83,-8 -131,-9 -49,0 -99,5 -153,15 -59,11 -111,27 -157,49 -45,22 -83,48 -113,78 -30,30 -51,64 -63,100 -5,13 -8,27 -10,41zm165 9c5,24 13,43 23,58 11,15 22,26 35,34l144 -27c17,-3 31,-1 43,7 12,7 20,22 24,44 2,10 3,21 2,32 0,9 -1,17 -3,24 -4,-21 -12,-35 -23,-42 -12,-8 -26,-10 -43,-7l-144 27c-13,-7 -24,-19 -35,-34 -11,-15 -18,-35 -23,-60 -4,-20 -4,-39 0,-56zm-5018 -424c13,7 23,15 31,22 9,7 15,14 20,20l95 -159 26 15 -121 202c-5,-6 -11,-13 -20,-20 -8,-7 -18,-14 -31,-22 -21,-13 -44,-21 -68,-25 -24,-5 -48,-6 -71,-4l5 -9c10,-16 17,-33 23,-50 14,1 29,2 43,5 24,4 47,12 68,25zm-113 -271c6,19 10,40 13,61 2,21 2,42 0,64l0 -6c-3,-28 -10,-54 -20,-78 -9,-25 -20,-46 -33,-65l40 24z"/>
  <path class="fil19" d="M11358 3586l-115 650c-5,1 -12,1 -22,1 -9,0 -20,-1 -32,-3 -22,-4 -39,-11 -51,-22 -12,-10 -15,-27 -11,-51l105 -597 -47 -9 -68 -12 -1 0 -2 0 -77 -14 -113 639c-5,1 -13,1 -23,1 -10,-1 -20,-2 -31,-4 -23,-4 -40,-11 -52,-21 -11,-10 -15,-27 -11,-51l85 -479c-5,-15 -11,-30 -19,-45 -9,-15 -19,-29 -30,-41 -12,-12 -25,-22 -41,-31 -15,-9 -32,-15 -50,-18 -35,-6 -67,-1 -94,17 -28,18 -45,47 -52,87 -6,36 1,67 21,93 20,27 47,43 83,49 10,2 18,2 24,2 5,-1 11,-1 16,-2 2,4 4,11 5,20 1,9 1,19 -1,29 -3,21 -13,36 -30,47 -16,11 -41,14 -74,8 -25,-5 -50,-14 -74,-27 -24,-14 -45,-32 -63,-55 -18,-23 -31,-50 -39,-82 -8,-31 -9,-67 -2,-107 7,-38 20,-71 39,-99 19,-27 42,-49 68,-65 26,-16 55,-26 85,-31 31,-5 62,-5 92,0 45,8 82,23 111,46 29,23 50,47 64,72 8,-19 20,-35 38,-46 17,-11 39,-14 66,-9l64 11 69 12 1 0 1 1 66 11c-11,-50 -27,-95 -49,-134 -23,-38 -49,-72 -80,-99 -31,-28 -65,-50 -102,-68 -37,-17 -77,-29 -120,-36 -30,-6 -58,-8 -82,-8 -23,0 -44,2 -60,7 -17,4 -30,10 -39,17 -9,7 -15,15 -16,23 -4,19 9,31 38,36l250 44c31,5 44,26 37,62 -1,8 -3,15 -6,22 -4,7 -7,12 -10,17l-317 -56c-46,-9 -80,-25 -101,-49 -21,-25 -29,-54 -22,-90 4,-24 16,-46 35,-66 20,-19 45,-35 76,-47 31,-12 67,-19 108,-22 41,-3 85,0 132,8 64,11 123,31 175,58 52,28 98,61 136,101 39,40 70,86 94,137 24,51 40,106 49,165l129 23c15,3 25,9 32,18 7,9 9,23 5,41 -1,9 -4,17 -8,25 -4,9 -7,16 -11,23l-151 -27zm-2920 20c15,1 26,6 33,13 8,8 12,16 14,25 3,10 3,18 1,25 -2,8 -5,14 -7,20 -7,0 -14,-1 -20,-1 -7,0 -15,1 -24,3 -14,3 -27,11 -38,23 -11,13 -14,29 -9,50 4,18 13,32 28,41 14,9 32,11 53,6 15,-4 32,-11 49,-23 18,-11 40,-29 67,-54l51 -49c12,5 26,12 42,22 16,10 32,24 49,40 16,16 32,36 45,59 14,23 25,49 32,80 9,38 9,75 0,111 -8,35 -24,66 -47,94 -22,29 -51,53 -85,73 -35,20 -74,35 -117,45 -50,12 -99,15 -147,10 -47,-5 -92,-17 -135,-37 -42,-20 -81,-48 -116,-83 -36,-35 -67,-77 -93,-126 -8,-15 -15,-31 -21,-46 -5,-16 -10,-31 -14,-48 -6,-25 -3,-46 8,-62 11,-16 27,-27 48,-32 11,-2 21,-3 30,-2 8,1 16,2 23,4l15 43c19,57 42,104 70,142 28,39 59,68 92,90 33,21 68,35 105,40 37,6 74,5 110,-4 23,-5 44,-13 63,-24 20,-11 36,-24 50,-40 13,-16 23,-34 29,-55 6,-20 6,-43 0,-67 -9,-39 -25,-67 -48,-86 -23,23 -46,42 -69,59 -23,16 -52,28 -88,37 -22,5 -45,6 -68,4 -22,-3 -43,-9 -62,-19 -18,-10 -35,-24 -49,-42 -14,-18 -23,-40 -29,-66 -9,-35 -6,-68 7,-98 13,-29 33,-53 58,-69l-378 87c-14,4 -26,2 -36,-4 -10,-6 -18,-18 -22,-36 -2,-9 -3,-18 -3,-27 0,-9 1,-17 3,-24l798 -184 0 0 78 -18 1 0 0 0 1 0 49 -12c24,-5 46,-6 67,0 20,5 37,15 49,31 2,-21 10,-37 23,-49 13,-12 29,-21 49,-25l70 -16c14,-3 26,-2 35,4 10,6 17,18 22,35 2,9 3,18 3,27 0,9 -1,17 -3,25l-92 21c-17,4 -29,11 -38,22 -8,10 -9,26 -4,48l135 588c-4,3 -10,6 -19,10 -9,4 -20,7 -31,9 -22,5 -40,6 -55,1 -15,-5 -26,-19 -31,-43l-128 -554c-6,-26 -22,-36 -46,-31l-77 18 -2 0 -1 1 -303 70zm1003 -162l15 660c-4,2 -12,4 -21,5 -10,2 -20,3 -32,4 -23,0 -41,-3 -54,-11 -14,-8 -21,-24 -22,-49l-14 -606 -89 2c-30,1 -45,-16 -46,-51 -1,-9 0,-18 2,-26 2,-9 4,-17 7,-23l114 -3c-10,-11 -18,-25 -24,-42 -7,-18 -10,-37 -11,-59 -1,-34 6,-65 21,-93 15,-28 37,-52 65,-73 28,-20 62,-36 102,-48 40,-12 85,-18 134,-20 45,-1 87,2 126,9 39,7 75,15 106,24 31,10 58,20 81,31 23,11 41,21 53,28 23,15 38,28 45,39 8,11 12,22 12,33 0,16 -4,29 -13,39 -9,10 -20,18 -32,23 -49,-32 -105,-60 -168,-84 -63,-24 -131,-34 -203,-33 -62,2 -110,15 -145,40 -35,25 -52,58 -51,99 1,20 4,38 11,52 7,13 15,24 24,32l84 -2 0 0 36 -1 1 0 764 -18c30,-1 46,16 47,50 0,9 -1,18 -3,27 -1,8 -3,16 -6,24l-151 3 15 643c-6,7 -16,12 -28,17 -12,5 -27,7 -43,8 -7,0 -13,-1 -20,-2 -41,-26 -81,-50 -119,-72 -38,-22 -77,-43 -115,-62 -38,-19 -77,-38 -116,-55 -39,-18 -80,-35 -123,-51 -7,-12 -13,-27 -18,-44 -4,-17 -6,-35 -7,-54 0,-4 0,-8 0,-13 0,-5 0,-9 1,-13 12,-7 27,-16 45,-26 19,-10 38,-20 57,-30 20,-10 39,-20 58,-29 19,-9 35,-17 46,-24l-213 -88c-13,-5 -23,-11 -29,-17 -6,-6 -9,-15 -9,-26 -1,-9 1,-18 4,-26 3,-8 6,-15 10,-21l-9 0 -36 1 -116 2zm657 500c-1,-12 -2,-25 -4,-41 -1,-15 -3,-31 -4,-47 -1,-16 -2,-31 -3,-47 0,-15 -1,-27 -1,-38l-1 -46 -125 -57c-13,7 -28,16 -45,26 -17,10 -34,20 -52,29 -17,10 -34,19 -50,28 -16,9 -29,17 -39,24 48,21 102,47 160,76 59,30 113,61 164,93zm-404 -506c15,6 38,16 70,30 31,14 66,30 105,48 38,17 76,34 115,52 38,17 71,32 98,44l-4 -183 -384 9z"/>
  <path class="fil16" d="M7888 1615l-2 1 -132 37 301 1061c-7,13 -20,27 -39,40 -18,13 -41,23 -69,31 -10,3 -21,4 -32,5 -80,-26 -156,-49 -229,-68 -73,-20 -146,-38 -218,-54 -72,-15 -144,-29 -216,-41 -73,-12 -148,-23 -226,-32 -17,-17 -33,-38 -48,-65 -15,-27 -26,-56 -35,-86 -2,-7 -4,-14 -6,-22 -3,-8 -4,-15 -4,-22 16,-18 37,-39 64,-63 26,-25 53,-50 82,-75 28,-25 56,-49 84,-72 27,-24 49,-44 66,-60l-393 -54c-23,-4 -42,-9 -54,-16 -13,-7 -22,-20 -28,-40 -4,-14 -5,-29 -4,-44 2,-14 5,-28 8,-40l-75 21c-51,15 -85,-7 -101,-65 -4,-14 -7,-29 -8,-45 -1,-15 0,-29 2,-41l1205 -342 0 0 116 -33 103 -29c41,-12 79,-14 114,-7 36,7 65,24 88,50 1,-36 12,-65 34,-87 21,-21 49,-37 81,-46l119 -34c23,-6 44,-5 62,4 17,9 30,29 39,59 4,15 6,30 7,45 1,15 0,30 -2,43l-155 44c-29,9 -50,22 -63,41 -14,18 -15,46 -5,83l283 995c-7,5 -18,11 -33,18 -15,8 -32,14 -52,19 -37,11 -68,13 -94,6 -26,-7 -45,-31 -57,-71l-266 -937c-13,-45 -40,-61 -82,-49l-14 4 -116 33zm6740 1160l-61 95c62,43 115,90 159,140 44,50 77,102 99,156 23,54 32,108 30,163 -2,54 -20,107 -53,159 -28,43 -58,76 -92,100 -34,23 -69,39 -104,46 -36,7 -70,8 -104,1 -34,-7 -64,-20 -92,-37 -37,-24 -59,-51 -66,-82 -7,-30 -1,-61 18,-90 16,-25 32,-41 49,-50l27 18c33,21 65,28 97,23 31,-6 58,-25 80,-59 30,-47 32,-99 6,-156 -26,-57 -77,-115 -155,-175l-433 677c-34,7 -75,-5 -124,-36 -5,-3 -10,-7 -14,-10 -3,-3 -7,-7 -11,-11 -26,-76 -52,-148 -78,-216 -26,-68 -54,-134 -84,-198 -30,-64 -61,-127 -94,-189 -33,-63 -68,-127 -107,-194 1,-24 7,-51 17,-80 11,-30 25,-58 42,-84 4,-6 8,-12 12,-18 4,-7 8,-12 13,-18 61,-3 125,-3 191,0 67,3 135,9 203,18 68,9 135,20 201,34 66,14 128,30 185,49l60 -93 -640 -410c-21,-13 -33,-30 -38,-50 -4,-20 2,-43 19,-69 8,-13 18,-24 30,-35 11,-10 22,-19 31,-26l1394 894c21,13 34,29 38,49 5,19 -1,42 -18,68 -8,13 -18,25 -29,35 -11,11 -22,20 -33,28l-571 -367zm-4185 -1386l-28 1113c-8,2 -21,4 -37,6 -17,1 -34,2 -54,2 -39,-1 -70,-9 -93,-23 -23,-15 -34,-42 -33,-83l12 -486c-20,-13 -50,-20 -92,-21 -57,-1 -129,33 -217,104 -74,58 -139,100 -195,125 -56,25 -112,37 -168,36l-8 -1c-41,-1 -73,-11 -96,-31 -23,-19 -34,-47 -33,-83 1,-30 9,-58 23,-85l74 2c65,1 120,-14 165,-47 44,-33 68,-81 69,-142 1,-51 -11,-95 -38,-133 -26,-39 -69,-74 -130,-107l-75 -39c-18,-10 -31,-20 -39,-31 -9,-10 -13,-26 -12,-46 0,-19 6,-38 17,-55l-106 -3c-53,-1 -79,-32 -78,-92 1,-15 3,-30 7,-45 3,-15 8,-28 14,-38l1354 34c53,1 79,31 78,90 0,15 -3,30 -6,45 -4,15 -9,28 -15,41l-260 -7zm-319 310c20,0 38,2 53,5 15,3 28,7 38,11l9 -332 -533 -13c28,14 57,33 86,56 29,24 55,51 78,83 23,32 42,68 56,107 15,40 22,83 21,129l-1 14c28,-18 58,-33 91,-44 32,-12 66,-17 102,-16zm1774 -106l-195 1096c-9,1 -21,2 -38,1 -16,-1 -34,-3 -53,-7 -39,-7 -69,-19 -89,-36 -21,-18 -27,-47 -20,-87l47 -260c-16,-37 -35,-71 -58,-104 -22,-34 -48,-63 -76,-89 -28,-26 -58,-48 -90,-66 -32,-18 -66,-30 -101,-37 -57,-10 -102,-5 -135,17 -32,21 -51,50 -58,86 -6,36 2,68 24,94 22,26 55,43 98,51 27,5 50,6 70,4 20,-2 39,-6 56,-11 21,30 28,65 21,104 -5,32 -26,57 -62,73 -35,17 -86,19 -152,7 -47,-8 -90,-23 -127,-43 -38,-21 -70,-47 -95,-78 -25,-30 -43,-66 -54,-106 -11,-40 -12,-84 -4,-131 11,-56 31,-102 61,-138 29,-36 64,-63 104,-82 -15,-27 -27,-60 -37,-101 -11,-40 -11,-87 -2,-139 7,-37 17,-70 31,-100 13,-30 30,-55 49,-76l-202 -36c-53,-9 -74,-43 -63,-103 3,-14 7,-29 13,-43 6,-14 13,-26 20,-36l1344 240c52,9 73,43 63,101 -3,15 -7,29 -13,43 -6,14 -13,27 -20,38l-257 -46zm-639 222c76,13 143,42 201,87 59,44 104,90 136,137l87 -484 -442 -79c-19,18 -35,41 -48,70 -14,28 -24,60 -30,95 -11,62 -8,118 10,167 24,-2 53,1 86,7zm2404 203c48,19 62,56 40,111 -6,13 -13,27 -21,40 -9,12 -18,23 -28,33l-240 -95 -405 1026c-31,14 -74,10 -128,-11 -10,-4 -19,-9 -28,-16 -52,-77 -103,-149 -153,-215 -51,-66 -102,-130 -154,-192 -52,-62 -107,-122 -164,-180 -57,-59 -118,-118 -183,-180 -2,-17 -1,-38 3,-63 4,-26 12,-53 23,-81 5,-14 11,-27 19,-39 7,-13 13,-23 20,-31l129 33c118,31 210,33 276,9 66,-25 112,-69 138,-134 21,-54 22,-98 3,-133 -18,-35 -46,-60 -82,-75 -39,-15 -75,-15 -110,-1 -35,14 -61,42 -77,84 -9,22 -13,41 -14,57 -1,17 0,33 1,48 -34,25 -74,28 -121,10 -33,-13 -58,-38 -75,-76 -18,-38 -16,-85 6,-141 17,-42 40,-77 70,-107 30,-29 65,-51 105,-65 40,-14 84,-20 130,-18 46,2 94,13 143,32 51,20 95,46 132,79 38,32 66,69 85,110 19,41 29,86 30,134 0,48 -9,98 -29,148 -38,96 -102,162 -194,201 -91,38 -199,46 -325,25 39,37 77,77 116,120 39,43 76,87 113,132 37,44 71,88 103,131 31,42 60,82 85,118 5,-19 11,-41 20,-66 8,-25 17,-51 26,-78 9,-26 18,-52 26,-75 9,-24 17,-44 23,-61l217 -551c17,-40 42,-71 78,-91 36,-21 80,-21 131,-1l240 95zm213 -553c25,12 44,29 56,51 13,23 14,47 4,72 -10,24 -38,45 -85,64 -19,7 -47,18 -86,33 -38,15 -79,31 -124,47 -44,16 -87,31 -129,46 -42,14 -75,25 -100,31 -34,-13 -58,-36 -72,-67 -14,-31 -15,-62 -3,-93 5,-13 9,-22 13,-28 30,-10 69,-22 116,-37 47,-14 95,-29 146,-43 51,-15 99,-29 147,-43 47,-13 86,-24 117,-33zm397 1458c-83,-26 -170,-44 -262,-56 -92,-12 -178,-18 -257,-16 52,98 99,196 141,293 41,97 73,179 96,246 9,-17 20,-37 32,-60 12,-23 25,-46 38,-69 13,-23 27,-46 40,-68 13,-21 24,-40 34,-54l138 -216zm-8848 -280c25,-4 45,-2 61,7 16,9 28,20 35,33 9,15 14,29 14,42 0,12 0,24 -2,36 -11,2 -22,5 -33,8 -11,3 -24,8 -38,16 -21,13 -38,32 -50,58 -12,25 -8,54 10,86 16,27 37,45 65,52 28,8 58,2 90,-16 24,-14 47,-34 70,-61 23,-28 50,-69 82,-123l60 -105c22,1 48,7 80,15 32,9 65,22 100,41 35,18 70,43 104,73 34,31 65,70 91,116 34,59 53,120 56,182 4,62 -6,121 -29,179 -23,57 -58,111 -105,161 -46,51 -103,95 -169,133 -76,44 -154,73 -235,89 -81,16 -161,18 -240,6 -80,-12 -157,-38 -233,-78 -76,-40 -147,-93 -214,-161 -22,-20 -41,-42 -58,-65 -17,-22 -32,-46 -46,-71 -23,-39 -29,-74 -19,-106 10,-32 31,-57 63,-75 18,-11 34,-17 48,-20 14,-2 28,-4 40,-5l46 64c59,84 121,150 186,199 65,48 130,82 195,100 65,19 129,24 193,15 63,-9 123,-30 179,-62 34,-19 64,-43 91,-71 26,-28 47,-58 61,-91 14,-33 21,-67 21,-104 -1,-37 -12,-73 -33,-110 -34,-59 -74,-98 -121,-117 -28,49 -56,92 -85,130 -29,38 -71,73 -126,105 -34,19 -71,33 -109,40 -38,7 -75,7 -111,0 -36,-7 -69,-22 -101,-45 -32,-22 -60,-53 -82,-92 -31,-55 -44,-110 -37,-165 7,-55 28,-103 61,-142l-577 332c-21,12 -42,15 -61,10 -20,-5 -38,-22 -53,-49 -8,-13 -14,-27 -18,-41 -5,-15 -8,-29 -8,-41l1217 -700 119 -68 1 -1 1 0 1 -1 75 -43c37,-21 73,-33 109,-34 36,-2 69,7 97,27 -7,-35 -3,-66 12,-92 16,-27 39,-48 68,-65l107 -62c21,-12 41,-16 61,-11 19,5 36,21 52,48 8,13 13,27 18,41 5,15 8,29 9,43l-140 80c-26,15 -44,33 -52,55 -8,21 -3,48 16,81l516 898c-5,6 -15,15 -28,25 -12,11 -28,21 -46,31 -33,19 -63,29 -90,29 -27,-1 -51,-19 -72,-56l-485 -844c-23,-40 -53,-49 -90,-29l-2 1 -117 68 -2 1 -464 266zm2373 -84c-7,-20 -15,-42 -24,-67 -9,-25 -18,-50 -27,-76 -9,-26 -17,-52 -25,-76 -8,-25 -14,-46 -19,-63l-22 -77 -231 -41c-19,18 -40,39 -64,63 -24,24 -48,47 -73,71 -24,23 -48,46 -71,68 -23,22 -41,41 -55,56 89,14 189,34 299,58 109,24 214,52 312,84zm-888 -666c27,4 69,10 128,20 59,9 124,20 195,33 71,12 142,25 213,37 71,13 132,23 183,32l-86 -302 -633 180z"/>
  <path class="fil20" d="M7888 1557l-2 1 -132 37 301 1061c-7,13 -20,26 -39,39 -18,13 -41,24 -69,32 -10,3 -21,4 -32,5 -80,-26 -156,-49 -229,-68 -73,-20 -146,-38 -218,-54 -72,-15 -144,-29 -216,-41 -73,-13 -148,-23 -226,-32 -17,-17 -33,-38 -48,-65 -15,-27 -26,-56 -35,-86 -2,-7 -4,-14 -6,-22 -3,-8 -4,-15 -4,-22 16,-18 37,-39 64,-63 26,-25 53,-50 82,-75 28,-25 56,-49 84,-73 27,-23 49,-43 66,-59l-393 -55c-23,-3 -42,-8 -54,-15 -13,-7 -22,-20 -28,-40 -4,-15 -5,-29 -4,-44 2,-14 5,-28 8,-40l-75 21c-51,15 -85,-7 -101,-65 -4,-14 -7,-29 -8,-45 -1,-15 0,-29 2,-41l1205 -342 0 0 116 -33 103 -29c41,-12 79,-14 114,-7 36,7 65,24 88,50 1,-36 12,-65 34,-87 21,-21 49,-37 81,-46l119 -34c23,-7 44,-5 62,4 17,9 30,29 39,59 4,15 6,29 7,45 1,15 0,30 -2,43l-155 44c-29,8 -50,22 -63,40 -14,19 -15,47 -5,84l283 995c-7,5 -18,11 -33,18 -15,7 -32,14 -52,19 -37,11 -68,13 -94,6 -26,-7 -45,-31 -57,-71l-266 -937c-13,-45 -40,-61 -82,-49l-14 4 -116 33zm6740 1160l-61 95c62,43 115,90 159,140 44,50 77,102 99,156 23,54 32,108 30,163 -2,54 -20,107 -53,159 -28,43 -58,76 -92,100 -34,23 -69,39 -104,46 -36,7 -70,7 -104,0 -34,-7 -64,-19 -92,-37 -37,-23 -59,-50 -66,-81 -7,-30 -1,-61 18,-91 16,-24 32,-40 49,-49l27 18c33,21 65,28 97,23 31,-6 58,-25 80,-59 30,-47 32,-99 6,-156 -26,-57 -77,-115 -155,-175l-433 677c-34,7 -75,-5 -124,-36 -5,-3 -10,-7 -14,-10 -3,-3 -7,-7 -11,-11 -26,-76 -52,-148 -78,-216 -26,-68 -54,-134 -84,-198 -30,-64 -61,-127 -94,-189 -33,-63 -68,-127 -107,-194 1,-24 7,-51 17,-80 11,-30 25,-58 42,-84 4,-6 8,-12 12,-19 4,-6 8,-12 13,-17 61,-3 125,-3 191,0 67,3 135,9 203,18 68,9 135,20 201,34 66,14 128,30 185,49l60 -93 -640 -410c-21,-14 -33,-30 -38,-50 -4,-20 2,-43 19,-69 8,-13 18,-25 30,-35 11,-10 22,-19 31,-26l1394 894c21,13 34,29 38,48 5,20 -1,43 -18,69 -8,13 -18,24 -29,35 -11,11 -22,20 -33,28l-571 -367zm-4185 -1386l-28 1112c-8,3 -21,5 -37,7 -17,1 -34,2 -54,1 -39,-1 -70,-8 -93,-22 -23,-15 -34,-42 -33,-83l12 -486c-20,-13 -50,-20 -92,-21 -57,-1 -129,33 -217,103 -74,59 -139,101 -195,126 -56,25 -112,37 -168,35l-8 0c-41,-1 -73,-11 -96,-31 -23,-20 -34,-47 -33,-83 1,-30 9,-58 23,-85l74 2c65,1 120,-14 165,-47 44,-33 68,-81 69,-142 1,-51 -11,-95 -38,-133 -26,-39 -69,-74 -130,-107l-75 -39c-18,-10 -31,-20 -39,-31 -9,-10 -13,-26 -12,-46 0,-19 6,-38 17,-55l-106 -3c-53,-1 -79,-32 -78,-92 1,-15 3,-30 7,-45 3,-15 8,-28 14,-39l1354 35c53,1 79,31 78,90 0,15 -3,30 -6,45 -4,15 -9,28 -15,40l-260 -6zm-319 310c20,0 38,2 53,5 15,3 28,7 38,11l9 -332 -533 -13c28,14 57,33 86,56 29,24 55,51 78,83 23,32 42,68 56,107 15,40 22,83 21,129l-1 14c28,-18 58,-33 91,-45 32,-11 66,-16 102,-15zm1774 -106l-195 1096c-9,1 -21,1 -38,1 -16,-1 -34,-3 -53,-7 -39,-7 -69,-19 -89,-37 -21,-17 -27,-46 -20,-86l47 -261c-16,-36 -35,-70 -58,-104 -22,-33 -48,-62 -76,-88 -28,-26 -58,-48 -90,-66 -32,-18 -66,-31 -101,-37 -57,-10 -102,-5 -135,17 -32,21 -51,50 -58,86 -6,36 2,68 24,94 22,26 55,43 98,51 27,4 50,6 70,4 20,-2 39,-6 56,-11 21,30 28,65 21,104 -5,32 -26,56 -62,73 -35,17 -86,19 -152,7 -47,-8 -90,-23 -127,-43 -38,-21 -70,-47 -95,-78 -25,-31 -43,-66 -54,-106 -11,-40 -12,-84 -4,-131 11,-56 31,-102 61,-138 29,-36 64,-63 104,-82 -15,-27 -27,-60 -37,-101 -11,-40 -11,-87 -2,-139 7,-37 17,-70 31,-100 13,-30 30,-56 49,-76l-202 -36c-53,-9 -74,-43 -63,-103 3,-14 7,-29 13,-43 6,-14 13,-26 20,-36l1344 240c52,9 73,43 63,101 -3,14 -7,29 -13,43 -6,14 -13,27 -20,38l-257 -46zm-639 221c76,14 143,43 201,87 59,45 104,91 136,138l87 -484 -442 -79c-19,17 -35,41 -48,69 -14,29 -24,61 -30,96 -11,62 -8,117 10,166 24,-1 53,1 86,7zm2404 204c48,19 62,56 40,110 -6,14 -13,28 -21,40 -9,13 -18,24 -28,34l-240 -95 -405 1026c-31,14 -74,10 -128,-11 -10,-4 -19,-9 -28,-16 -52,-77 -103,-149 -153,-215 -51,-67 -102,-130 -154,-192 -52,-62 -107,-122 -164,-180 -57,-59 -118,-119 -183,-180 -2,-17 -1,-38 3,-63 4,-26 12,-53 23,-81 5,-14 11,-27 19,-39 7,-13 13,-23 20,-31l129 33c118,31 210,33 276,9 66,-25 112,-69 138,-134 21,-54 22,-98 3,-133 -18,-35 -46,-60 -82,-75 -39,-15 -75,-15 -110,-1 -35,14 -61,42 -77,84 -9,22 -13,41 -14,57 -1,17 0,33 1,48 -34,25 -74,28 -121,10 -33,-13 -58,-39 -75,-76 -18,-38 -16,-85 6,-141 17,-42 40,-77 70,-107 30,-29 65,-51 105,-65 40,-14 84,-21 130,-18 46,2 94,12 143,32 51,20 95,46 132,78 38,33 66,70 85,111 19,41 29,86 30,134 0,48 -9,97 -29,148 -38,96 -102,162 -194,200 -91,39 -199,47 -325,25 39,38 77,78 116,121 39,43 76,87 113,132 37,44 71,88 103,130 31,43 60,83 85,119 5,-19 11,-41 20,-66 8,-25 17,-51 26,-78 9,-26 18,-52 26,-75 9,-24 17,-44 23,-61l217 -551c17,-41 42,-71 78,-91 36,-21 80,-21 131,-1l240 95zm213 -553c25,12 44,29 56,51 13,23 14,47 4,72 -10,24 -38,45 -85,64 -19,7 -47,18 -86,33 -38,15 -79,30 -124,47 -44,16 -87,31 -129,46 -42,14 -75,25 -100,31 -34,-14 -58,-36 -72,-67 -14,-32 -15,-62 -3,-93 5,-13 9,-22 13,-28 30,-10 69,-22 116,-37 47,-14 95,-29 146,-43 51,-15 99,-29 147,-43 47,-13 86,-24 117,-33zm397 1458c-83,-26 -170,-44 -262,-56 -92,-12 -178,-18 -257,-16 52,98 99,196 141,293 41,97 73,179 96,245 9,-16 20,-36 32,-59 12,-23 25,-46 38,-69 13,-24 27,-46 40,-68 13,-21 24,-40 34,-55l138 -215zm-8848 -280c25,-4 45,-2 61,7 16,9 28,20 35,33 9,15 14,29 14,42 0,12 0,24 -2,36 -11,2 -22,4 -33,7 -11,4 -24,9 -38,17 -21,13 -38,32 -50,57 -12,26 -8,55 10,87 16,27 37,45 65,52 28,8 58,2 90,-16 24,-14 47,-34 70,-61 23,-28 50,-69 82,-123l60 -106c22,2 48,7 80,16 32,9 65,22 100,40 35,19 70,44 104,74 34,31 65,70 91,116 34,59 53,120 56,182 4,61 -6,121 -29,178 -23,58 -58,112 -105,162 -46,51 -103,95 -169,133 -76,44 -154,73 -235,89 -81,16 -161,18 -240,6 -80,-12 -157,-38 -233,-78 -76,-40 -147,-94 -214,-161 -22,-20 -41,-42 -58,-65 -17,-22 -32,-46 -46,-71 -23,-39 -29,-74 -19,-106 10,-32 31,-57 63,-76 18,-10 34,-16 48,-19 14,-3 28,-4 40,-5l46 64c59,84 121,150 186,198 65,49 130,83 195,101 65,19 129,24 193,15 63,-9 123,-30 179,-62 34,-20 64,-43 91,-71 26,-28 47,-58 61,-91 14,-33 21,-67 21,-104 -1,-37 -12,-73 -33,-110 -34,-59 -74,-98 -121,-117 -28,49 -56,92 -85,130 -29,38 -71,73 -126,104 -34,20 -71,34 -109,41 -38,7 -75,7 -111,0 -36,-7 -69,-22 -101,-45 -32,-22 -60,-53 -82,-92 -31,-55 -44,-110 -37,-165 7,-55 28,-103 61,-143l-577 332c-21,13 -42,16 -61,11 -20,-5 -38,-22 -53,-49 -8,-13 -14,-27 -18,-42 -5,-14 -8,-28 -8,-40l1217 -700 119 -68 1 -1 1 0 1 -1 75 -43c37,-21 73,-33 109,-34 36,-2 69,7 97,26 -7,-35 -3,-65 12,-92 16,-26 39,-48 68,-65l107 -61c21,-12 41,-16 61,-11 19,5 36,20 52,48 8,13 13,27 18,41 5,15 8,29 9,42l-140 81c-26,15 -44,33 -52,55 -8,21 -3,48 16,81l516 898c-5,6 -15,15 -28,25 -12,11 -28,21 -46,31 -33,19 -63,29 -90,28 -27,0 -51,-18 -72,-55l-485 -844c-23,-40 -53,-49 -90,-29l-2 1 -117 68 -2 1 -464 266zm2373 -84c-7,-20 -15,-42 -24,-67 -9,-25 -18,-50 -27,-76 -9,-26 -17,-52 -25,-76 -8,-25 -14,-46 -19,-63l-22 -77 -231 -41c-19,18 -40,39 -64,63 -24,24 -48,47 -73,71 -24,23 -48,46 -71,68 -23,22 -41,41 -55,56 89,14 189,34 299,58 109,24 214,52 312,84zm-888 -666c27,3 69,10 128,20 59,9 124,20 195,33 71,12 142,25 213,37 71,13 132,23 183,32l-86 -302 -633 180z"/>
  <path class="fil21" d="M7769 1649l286 1007c-3,5 -7,11 -12,16l-289 -1019 15 -4zm-825 739l-1 -2c-2,-7 -4,-14 -6,-22 -3,-8 -4,-15 -4,-22 16,-18 37,-39 64,-63 26,-25 53,-50 82,-75 28,-25 56,-49 84,-73l10 -9 56 8c-17,16 -39,36 -66,60 -28,23 -56,47 -84,72 -29,25 -56,50 -82,75 -21,19 -39,36 -53,51zm-191 -431c-1,-6 -2,-12 -3,-19l8 -2c-2,7 -3,14 -5,21zm-177 -149c-1,-6 -1,-12 -2,-19 -1,-15 0,-29 2,-41l1205 -342 0 0 116 -33 103 -29c41,-12 79,-14 114,-7 36,7 65,24 88,50 1,-36 12,-65 34,-87 21,-21 49,-37 81,-46l119 -34c23,-7 44,-5 62,4 17,9 30,29 39,59 4,15 6,29 7,45 1,15 0,29 -1,42 -2,-10 -4,-19 -6,-29 -9,-30 -22,-50 -39,-59 -18,-9 -39,-10 -62,-4l-119 34c-32,9 -60,25 -81,46 -22,22 -33,51 -34,87 -23,-26 -52,-43 -88,-50 -35,-7 -73,-5 -114,7l-103 29 -116 33 0 0 -1205 342 0 2zm1741 -281l2 12 283 995c-3,3 -8,6 -14,9l-269 -946c-8,-29 -9,-52 -2,-70zm6276 1304c51,37 95,78 133,121 44,50 77,102 99,156 23,54 32,108 30,163l-1 12c-3,-39 -13,-78 -29,-117 -22,-54 -55,-106 -99,-156 -44,-50 -97,-97 -159,-140l26 -39zm-248 631l-1 -4c-7,-30 -1,-61 18,-91 16,-24 32,-40 49,-49l27 18c33,21 65,28 97,23 31,-6 58,-25 80,-59 10,-16 17,-34 21,-52 8,40 0,76 -21,110 -22,34 -49,53 -80,59 -32,5 -64,-2 -97,-23l-27 -18c-17,9 -33,25 -49,50 -8,12 -13,24 -17,36zm-817 -658l-7 -12c1,-24 7,-51 17,-80 11,-30 25,-58 42,-84 4,-6 8,-12 12,-19 4,-6 8,-12 13,-17 61,-3 125,-3 191,0 67,3 135,9 203,18 68,9 135,20 201,34 66,14 128,30 185,49l34 -52 26 17 -60 93c-57,-19 -119,-35 -185,-49 -66,-14 -133,-25 -201,-34 -68,-9 -136,-15 -203,-18 -66,-3 -130,-3 -191,0 -5,6 -9,11 -13,18 -4,6 -8,12 -12,18 -17,26 -31,54 -42,84 -4,11 -7,23 -10,34zm245 -649c-3,-5 -5,-10 -6,-15 -4,-20 2,-43 19,-69 8,-13 18,-25 30,-35 11,-10 22,-19 31,-26l1394 894c21,13 34,29 38,48 4,13 2,28 -5,44 -6,-13 -17,-24 -33,-34l-1394 -894c-9,7 -20,16 -31,26 -12,11 -22,22 -30,35 -6,9 -10,18 -13,26zm-3574 214c-1,-7 -1,-15 -1,-23l11 -429 1 1 -11 451zm-795 -349c-2,-9 -3,-20 -3,-31 1,-30 9,-58 23,-85l74 2c65,1 120,-14 165,-47 39,-29 61,-69 68,-120 1,12 1,24 1,36 -1,61 -25,109 -69,142 -45,33 -100,48 -165,47l-74 -2c-10,19 -17,38 -20,58zm38 -627c-3,-8 -5,-18 -4,-29l17 0c-6,9 -10,19 -13,29zm-168 -150c-2,-9 -3,-20 -3,-32 1,-15 3,-30 7,-45 3,-15 8,-28 14,-39l1354 35c53,1 79,31 78,90 0,9 -1,17 -3,26 -7,-38 -32,-57 -75,-58l-1354 -34c-6,10 -11,23 -14,38 -2,7 -3,13 -4,19zm850 398c20,0 38,2 53,5 15,3 28,7 38,11l7 -274 2 0 -9 332c-10,-4 -23,-8 -38,-11 -15,-3 -33,-5 -53,-5 -36,-1 -70,4 -102,16 -33,11 -63,26 -91,44l1 -14c1,-46 -6,-89 -21,-129 -14,-39 -33,-75 -56,-107 -23,-32 -49,-59 -78,-83 -29,-23 -58,-42 -86,-56l90 2c27,23 52,49 74,79 23,32 42,68 56,107 15,40 22,83 21,129l-1 14c28,-18 58,-33 91,-45 32,-11 66,-16 102,-15zm1380 916c-5,-15 -5,-33 -1,-55l39 -219 8 17 -46 257zm-471 -456c4,15 12,29 23,42 22,26 55,43 98,51 27,4 50,6 70,4 20,-2 39,-6 56,-11 21,30 28,65 21,104l0 1c-4,-17 -11,-32 -21,-47 -17,5 -36,9 -56,11 -20,2 -43,1 -70,-4 -43,-8 -76,-25 -98,-51 -22,-26 -30,-58 -24,-94l1 -6zm-230 0c-2,-28 -1,-57 4,-88 11,-56 31,-102 61,-138 24,-29 52,-53 83,-71 6,17 13,33 21,47 -40,19 -75,46 -104,82 -30,36 -50,82 -61,138 -1,10 -3,20 -4,30zm125 -449c-3,-30 -1,-63 5,-99 7,-37 17,-70 31,-100 4,-9 8,-17 12,-24l37 6c-19,21 -36,46 -49,76 -14,30 -24,63 -31,100 -2,14 -4,28 -5,41zm-179 -360c-5,-14 -5,-32 -1,-54 3,-14 7,-29 13,-43 6,-14 13,-26 20,-36l1344 240c52,9 73,43 63,101l-1 5c-8,-26 -29,-42 -62,-48l-1344 -240c-7,10 -14,22 -20,36 -5,13 -10,26 -12,39zm510 464c76,14 143,43 201,87 59,45 104,91 136,138l76 -428 11 2 -87 484c-32,-47 -77,-93 -136,-137 -58,-45 -125,-74 -201,-87 -33,-6 -62,-9 -86,-7 -14,-39 -19,-81 -15,-128 2,25 7,48 15,69 24,-1 53,1 86,7zm2404 204c44,17 59,49 45,97 -7,-17 -22,-30 -45,-39l-240 -95c-51,-20 -95,-20 -131,1 -36,20 -61,51 -78,91l-217 551c-6,17 -14,37 -23,61 -8,23 -17,49 -26,75 -9,27 -18,53 -26,78 -9,25 -15,47 -20,66 -25,-36 -54,-76 -85,-118 -32,-43 -66,-87 -103,-131 -37,-45 -74,-89 -113,-132 -39,-43 -77,-83 -116,-120 23,3 45,6 66,8 17,18 33,35 50,54 39,43 76,87 113,132 37,44 71,88 103,130 31,43 60,83 85,119 5,-19 11,-41 20,-66 8,-25 17,-51 26,-78 9,-26 18,-52 26,-75 9,-24 17,-44 23,-61l217 -551c17,-41 42,-71 78,-91 36,-21 80,-21 131,-1l240 95zm-1462 323l-2 -2c-2,-17 -1,-38 3,-63 4,-26 12,-53 23,-81 5,-14 11,-27 19,-39 7,-13 13,-23 20,-31l129 33c118,31 210,33 276,9 66,-25 112,-69 138,-134 6,-17 11,-33 13,-47 7,29 2,64 -13,105 -26,65 -72,109 -138,134 -66,24 -158,22 -276,-9l-129 -33c-7,8 -13,18 -20,31 -8,12 -14,25 -19,39 -11,28 -19,55 -23,81l-1 7zm327 -329l0 1 0 0 0 -1zm-205 -93c-7,-32 -2,-70 15,-113 17,-42 40,-77 70,-107 30,-29 65,-51 105,-65 40,-14 84,-21 130,-18 46,2 94,12 143,32 51,20 95,46 132,78 38,33 66,70 85,111 19,41 29,86 30,134 0,11 -1,23 -2,35 -3,-40 -12,-77 -28,-111 -19,-41 -47,-78 -85,-110 -37,-33 -81,-59 -132,-79 -49,-19 -97,-30 -143,-32 -46,-2 -90,4 -130,18 -40,14 -75,36 -105,65 -30,30 -53,65 -70,107 -7,20 -12,38 -15,55zm1553 -454c25,12 44,29 56,51 12,22 14,44 5,68 -1,-3 -3,-6 -5,-10 -12,-22 -31,-39 -56,-51 -31,9 -70,20 -117,33 -48,14 -96,28 -147,43 -51,14 -99,29 -146,43 -47,15 -86,27 -116,37 -4,6 -8,15 -13,28 -2,5 -3,9 -5,14 -6,-24 -5,-48 5,-72 5,-13 9,-22 13,-28 30,-10 69,-22 116,-37 47,-14 95,-29 146,-43 51,-15 99,-29 147,-43 47,-13 86,-24 117,-33zm-92 1444c41,78 77,157 111,235 41,97 73,179 96,245 9,-16 20,-36 32,-59 12,-23 25,-46 38,-69 13,-24 27,-46 40,-68 13,-21 24,-40 34,-55l107 -166 31 9 -138 216c-10,14 -21,33 -34,54 -13,22 -27,45 -40,68 -13,23 -26,46 -38,69 -12,23 -23,43 -32,60 -23,-67 -55,-149 -96,-246 -42,-97 -89,-195 -141,-293l30 0zm-8284 -250c9,7 16,15 21,24 9,15 14,29 14,42 0,12 0,24 -2,36l-2 0c-2,-6 -5,-13 -10,-20 -7,-13 -19,-24 -35,-33 -16,-9 -36,-11 -61,-7l75 -42zm-89 246c2,8 6,16 11,24 16,27 37,45 65,52 28,8 58,2 90,-16 24,-14 47,-34 70,-61 23,-28 50,-69 82,-123l60 -106c22,2 48,7 80,16 32,9 65,22 100,40 35,19 70,44 104,74 34,31 65,70 91,116 34,59 53,120 56,182 1,17 1,34 0,52 -4,-60 -23,-119 -56,-176 -26,-46 -57,-85 -91,-116 -34,-30 -69,-55 -104,-73 -35,-19 -68,-32 -100,-41 -32,-8 -58,-14 -80,-15l-60 105c-32,54 -59,95 -82,123 -23,27 -46,47 -70,61 -32,18 -62,24 -90,16 -28,-7 -49,-25 -65,-52 -17,-30 -21,-58 -11,-82zm-540 345c-5,-21 -5,-41 1,-60 10,-32 31,-57 63,-76 18,-10 34,-16 48,-19 14,-3 28,-4 40,-5l46 64c59,84 121,150 186,198 65,49 130,83 195,101 65,19 129,24 193,15 63,-9 123,-30 179,-62 34,-20 64,-43 91,-71 26,-28 47,-58 61,-91 10,-22 16,-45 19,-69 1,8 2,15 2,23 0,37 -7,71 -21,104 -14,33 -35,63 -61,91 -27,28 -57,52 -91,71 -56,32 -116,53 -179,62 -64,9 -128,4 -193,-15 -65,-18 -130,-52 -195,-100 -65,-49 -127,-115 -186,-199l-46 -64c-12,1 -26,3 -40,5 -14,3 -30,9 -48,20 -32,18 -53,43 -63,75l-1 2zm319 -305c-2,-20 -2,-39 0,-59 3,-20 7,-39 13,-57l48 -27c-33,39 -54,87 -61,142l0 1zm-645 62l-3 -12c-5,-14 -8,-28 -8,-40l1217 -700 119 -68 1 -1 1 0 1 -1 75 -43c37,-21 73,-33 109,-34 36,-2 68,7 96,26 -4,18 -3,37 1,59 -28,-20 -61,-29 -97,-27 -36,1 -72,13 -109,34l-75 43 -1 1 -1 0 -1 1 -119 68 -1206 694zm1609 -875c-7,-34 -3,-64 12,-90 16,-26 39,-48 68,-65l107 -61c21,-12 41,-16 61,-11 19,5 36,20 52,48 8,13 13,27 18,41 5,15 8,29 9,42l-12 7c-4,-11 -9,-22 -15,-32 -16,-27 -33,-43 -52,-48 -20,-5 -40,-1 -61,11l-107 62c-29,17 -52,38 -68,65 -6,9 -10,20 -12,31zm138 92c3,9 7,19 13,29l516 898c-5,5 -12,12 -21,20l-495 -860c-19,-33 -24,-60 -16,-81l3 -6zm944 201c76,13 159,30 250,50 101,22 197,48 288,76 9,25 17,47 24,66 -98,-32 -203,-60 -312,-84 -110,-24 -210,-44 -299,-58 13,-14 29,-30 49,-50zm-194 -512c58,10 121,20 191,33 71,12 142,25 213,37 63,11 118,21 165,29l18 61c-51,-9 -112,-19 -183,-32 -71,-12 -142,-25 -213,-37 -71,-13 -136,-24 -195,-33 -59,-10 -101,-16 -128,-20l132 -38z"/>
  <g id="_825335776">
   <path class="fil22" d="M7737 12417c-797,-653 -1301,-1612 -1301,-2682 0,-1968 1705,-3564 3809,-3564 156,0 309,9 460,26 -324,-89 -664,-137 -1015,-137 -2104,0 -3809,1705 -3809,3808 0,1343 694,2522 1743,3201l113 -652zm2508 883c-506,0 -989,-93 -1431,-261l-513 377c430,168 899,261 1389,261 864,0 1660,-288 2299,-773 -522,253 -1115,396 -1744,396zm3375 -2932l-1 0 -68 0 0 552c-6,6 -14,10 -25,14 -10,4 -23,6 -37,6 -5,0 -11,-1 -16,-2 -35,-23 -69,-45 -101,-64 -33,-20 -65,-38 -98,-56 -32,-17 -65,-34 -98,-49 -34,-16 -68,-32 -105,-47 -6,-10 -10,-23 -14,-38 -3,-15 -5,-30 -5,-46 0,-3 0,-7 0,-11 0,-4 0,-8 1,-11 10,-6 23,-14 39,-22 17,-8 33,-16 50,-24 17,-9 34,-17 51,-24 16,-8 29,-14 40,-20l-182 -80c-11,-4 -19,-9 -24,-14 -5,-6 -8,-13 -8,-23 0,-8 1,-15 4,-22 3,-7 6,-13 9,-19l-18 0 -27 0 -1 0 -413 0 0 119c0,12 -1,25 -2,41 -1,15 -2,29 -3,44 -2,14 -3,27 -5,40 -2,12 -3,22 -4,28 18,-19 39,-39 64,-59 24,-20 49,-38 76,-56 27,-17 54,-32 82,-44 28,-13 56,-22 82,-28 12,5 24,14 36,28 12,13 20,26 26,39 -6,16 -11,33 -17,52 -5,18 -10,39 -15,62 -4,23 -8,48 -10,77 -3,28 -4,60 -4,95 0,28 1,55 4,78 2,24 6,47 11,67 -5,7 -12,13 -20,17 -8,4 -18,6 -29,6 -12,0 -23,-3 -33,-8 -9,-5 -18,-14 -26,-26 -7,-12 -13,-28 -17,-48 -4,-21 -6,-46 -6,-77 0,-28 2,-54 5,-80 4,-25 9,-49 15,-71 5,-21 11,-40 18,-57 6,-17 12,-30 17,-41 -22,10 -45,22 -68,37 -23,15 -46,32 -68,51 -22,18 -43,38 -64,59 -21,21 -39,41 -55,62 -8,2 -16,3 -24,3 -16,0 -31,-3 -46,-10 -14,-6 -25,-15 -31,-26l0 -127c-8,-10 -18,-19 -29,-29 -11,-10 -24,-18 -37,-25 -13,-7 -28,-13 -43,-18 -16,-4 -31,-6 -46,-6 -30,0 -53,7 -70,22 -17,15 -25,35 -25,60 0,7 1,13 2,20 2,6 4,12 7,18 -3,7 -8,14 -17,20 -8,6 -19,9 -31,9 -19,0 -34,-7 -47,-21 -13,-14 -20,-34 -20,-62 0,-25 5,-47 15,-67 10,-19 23,-36 40,-49 17,-12 36,-22 59,-29 23,-6 47,-9 72,-9 36,0 69,5 97,17 29,12 53,25 73,41l0 -139 -359 0 -31 0 -1 0 -98 0 0 567c-4,1 -11,3 -19,4 -8,1 -17,2 -27,2 -20,0 -35,-3 -47,-10 -11,-7 -17,-21 -17,-42l0 -521 -43 0 -33 0 -1 0 -240 0c25,4 47,11 68,21 21,9 39,23 55,39 16,16 28,36 37,58 9,22 13,47 13,74 0,35 -6,66 -20,92 -13,26 -31,47 -54,65 -23,18 -49,32 -80,41 -30,9 -61,14 -95,16 50,19 96,37 139,55 43,18 76,32 100,43 16,8 28,16 36,25 9,9 13,20 13,34 0,15 -4,28 -12,38 -8,11 -18,19 -31,24 -43,-23 -82,-44 -116,-61 -35,-18 -68,-35 -101,-51 -33,-16 -67,-32 -101,-48 -35,-16 -74,-33 -117,-51 -5,-10 -7,-21 -7,-34 0,-11 2,-21 6,-31 3,-9 8,-17 14,-22 15,2 33,4 54,6 20,1 40,2 57,2 65,0 114,-13 149,-40 35,-26 52,-61 52,-105 0,-35 -9,-61 -27,-80 -19,-18 -42,-27 -69,-27 -26,0 -47,8 -64,24 -17,16 -25,38 -25,66 0,9 1,17 3,25 2,8 4,14 7,20 -12,18 -31,27 -55,27 -18,0 -34,-7 -49,-21 -14,-14 -21,-36 -21,-67 0,-20 4,-39 12,-57 8,-18 19,-34 33,-47 14,-14 30,-25 49,-34 19,-9 40,-15 63,-19l-228 0c-27,0 -40,-15 -40,-45 0,-7 1,-15 3,-22 1,-8 4,-14 6,-20l411 0c3,-5 6,-11 7,-17 2,-5 3,-12 3,-20 0,-16 -6,-29 -19,-39 -12,-10 -33,-15 -63,-15 -12,0 -22,0 -30,0 -9,1 -17,1 -26,2 -9,0 -18,0 -28,1 -11,0 -23,0 -38,0 -56,0 -99,-12 -130,-36 -31,-25 -47,-56 -47,-95 0,-26 6,-45 18,-59 11,-14 27,-21 47,-21 12,0 21,1 29,5 7,3 13,7 18,10 -1,5 -1,10 -1,15 -1,5 -1,11 -1,18 0,51 31,76 91,76 21,0 41,-1 60,-2 20,-1 41,-1 64,-1 52,0 91,11 119,33 27,21 41,51 41,88 0,11 -2,22 -5,32 -3,9 -7,18 -11,25l45 0 32 0 1 0 65 0c-8,-9 -15,-22 -20,-37 -5,-15 -8,-31 -8,-50 0,-29 7,-56 20,-79 13,-24 32,-44 57,-61 25,-18 54,-31 89,-40 34,-9 73,-14 115,-14 38,0 74,3 108,10 33,6 63,14 90,23 27,9 50,18 69,28 20,10 35,19 45,25 19,13 32,25 38,34 6,10 9,19 9,29 0,14 -4,25 -12,33 -7,9 -17,15 -28,19 -41,-28 -88,-54 -142,-75 -54,-22 -112,-32 -174,-32 -52,0 -94,10 -124,31 -31,21 -46,49 -46,83 0,18 3,33 8,45 6,12 12,21 20,28l72 0 31 0 1 0 0 0 1 0 883 0 26 0 1 0 606 0 61 0 1 0 51 0c22,0 40,4 56,13 16,8 28,20 36,35 5,-17 15,-29 28,-36 13,-8 28,-12 46,-12l61 0c12,0 22,4 29,11 8,6 11,18 11,33 0,8 -1,15 -2,23 -2,7 -4,14 -7,20l-81 0c-15,0 -27,4 -36,11 -9,7 -13,21 -13,40l0 518c-5,1 -11,3 -19,4 -8,1 -17,2 -28,2 -19,0 -34,-3 -46,-10 -11,-7 -17,-21 -17,-42l0 -488c0,-23 -11,-35 -33,-35l-6 0 -62 0zm-284 114c2,6 4,12 4,19 1,7 1,15 1,22 0,10 0,19 -2,27 -1,8 -3,15 -5,22 -12,6 -25,13 -39,21 -15,7 -30,15 -45,23 -14,8 -29,16 -43,23 -14,8 -25,14 -34,20 41,19 86,42 136,69 50,26 96,54 139,83 -1,-11 -2,-22 -3,-36 -1,-13 -1,-27 -2,-40 -1,-14 -1,-27 -2,-40 0,-13 0,-24 0,-33l0 -294 -330 0c15,7 32,15 53,24 20,10 41,20 63,31 21,11 42,22 61,32 20,11 36,20 48,27zm-261 441c0,-19 6,-35 19,-47 13,-12 29,-18 49,-18 20,0 36,6 49,18 13,13 19,28 19,47 0,19 -6,35 -19,47 -13,13 -29,19 -49,19 -20,0 -36,-6 -49,-19 -13,-12 -19,-28 -19,-47zm-561 -1171c-9,-19 -13,-38 -13,-56 0,-26 8,-50 23,-71 16,-21 39,-35 69,-41 46,21 90,44 133,69 44,26 79,47 105,65 20,14 35,27 44,40 10,13 15,29 15,48 0,21 -7,40 -21,57 -14,17 -33,28 -57,33l-298 -144zm-1215 -579c-57,15 -112,35 -167,61 -54,26 -102,53 -143,80 54,31 109,64 166,100 57,36 109,70 154,103 -2,-14 -4,-29 -5,-47 -1,-17 -2,-35 -2,-52 -1,-17 -1,-34 -2,-51 0,-16 -1,-31 -1,-43l0 -151zm1730 0c-60,15 -119,35 -176,61 -57,26 -108,53 -152,80 30,15 59,31 90,49 30,17 59,34 88,52 29,17 57,35 84,52 27,18 52,34 74,50 -1,-14 -2,-29 -3,-47 -1,-17 -2,-35 -2,-52 -1,-17 -1,-34 -2,-51 -1,-16 -1,-31 -1,-43l0 -151zm-1519 -254l0 62c57,2 111,10 162,24 51,14 95,34 133,60 38,27 68,59 91,97 22,38 33,82 33,133 0,41 -6,77 -19,108 -13,31 -29,56 -49,76 -20,20 -43,35 -68,45 -26,10 -51,15 -77,15 -39,0 -69,-10 -89,-31 -21,-22 -31,-48 -31,-80 0,-12 1,-25 4,-37 3,-12 6,-21 10,-28l24 0c21,0 40,-6 55,-19 16,-12 24,-33 24,-60 0,-34 -16,-62 -49,-85 -33,-22 -84,-37 -154,-43l0 593c-22,24 -61,36 -117,36 -7,0 -13,0 -18,-1 -5,0 -9,-1 -14,-2 -48,-38 -95,-73 -138,-104 -44,-31 -88,-60 -133,-87 -44,-27 -90,-53 -137,-79 -47,-25 -98,-51 -153,-77 -14,-20 -24,-46 -31,-76 -7,-30 -10,-60 -10,-91 0,-7 0,-14 1,-20 0,-7 1,-13 2,-18 38,-26 79,-52 123,-77 44,-25 89,-48 136,-70 47,-21 95,-41 142,-59 48,-18 94,-33 140,-44l0 -61 -493 0 -80 0 -1 0 -1 0 -37 0c-18,10 -38,27 -58,50 -21,24 -40,53 -57,88 -18,34 -32,72 -43,115 -11,43 -17,88 -17,134 0,50 6,94 18,133 11,40 27,74 47,105 20,31 43,57 68,79 24,23 51,40 78,54 1,6 2,11 2,16 0,5 0,11 0,16 0,32 -10,57 -28,76 -19,19 -44,29 -77,29 -35,0 -71,-11 -109,-33 -37,-22 -72,-53 -103,-94 -32,-41 -58,-92 -79,-152 -20,-59 -31,-127 -31,-202 0,-89 13,-169 37,-240 25,-71 56,-132 92,-182 37,-49 76,-88 117,-114 41,-27 79,-41 113,-41l15 0 80 0 1 0 1 0 1122 0 109 0 1 0 1 0 73 0c33,0 64,6 92,19 28,13 50,32 65,59 11,-28 28,-48 50,-60 23,-12 48,-18 78,-18l29 0 52 0 1 0 1 0 840 0 109 0 1 0 1 0 73 0c34,0 64,6 92,19 28,13 50,32 65,59 11,-28 28,-48 50,-60 23,-12 48,-18 78,-18l81 0c22,0 40,6 53,19 13,13 20,34 20,64 0,15 -2,30 -6,44 -3,14 -8,26 -13,36l-117 0c-24,0 -43,6 -57,17 -14,11 -21,33 -21,64l0 780c-7,2 -18,5 -34,7 -17,3 -35,4 -55,4 -37,0 -67,-6 -89,-19 -22,-14 -33,-41 -33,-82l0 -718c0,-16 -4,-29 -13,-38 -8,-10 -19,-14 -32,-15l0 0 -1 0 -100 0 -1 0 -1 0 -84 0 0 830c-22,24 -61,36 -117,36 -10,0 -21,-1 -32,-3 -49,-38 -97,-73 -142,-105 -46,-31 -91,-61 -137,-89 -46,-27 -93,-53 -141,-79 -49,-25 -100,-50 -155,-74 -14,-20 -24,-46 -31,-76 -7,-30 -10,-60 -10,-91 0,-7 0,-14 0,-20 0,-7 0,-13 1,-18 39,-26 82,-52 127,-77 46,-25 92,-48 140,-70 49,-21 97,-41 146,-59 49,-18 97,-33 144,-44l0 -61 -547 0 -54 0 -1 0 -1 0 -62 0c-23,0 -42,6 -56,17 -14,11 -21,33 -21,64l0 780c-7,2 -18,5 -34,7 -17,3 -35,4 -55,4 -37,0 -67,-6 -89,-19 -22,-14 -33,-41 -33,-82l0 -718c0,-16 -4,-29 -13,-38 -8,-10 -19,-14 -32,-15l0 0 -1 0 -100 0 -1 0 -1 0 -420 0zm-3518 3434l-477 1554 1205 -1118c396,172 833,267 1292,267 1230,0 2300,-682 2854,-1689l-374 0c-520,822 -1436,1367 -2480,1367 -1194,0 -2221,-713 -2679,-1736 4,-13 8,-25 12,-38 21,-57 52,-118 130,-119 38,-1 76,1 114,-1 126,-6 253,-12 369,-67 91,-43 117,-108 87,-202 -32,-101 -33,-198 37,-286 8,-9 13,-20 18,-31 26,-59 8,-113 -53,-137 -39,-15 -82,-20 -123,-29 -27,-6 -53,-11 -80,-17 27,-22 55,-33 83,-45 33,-15 69,-27 99,-46 62,-39 78,-97 48,-164 -10,-22 -24,-44 -33,-66 -16,-35 -3,-68 31,-84 17,-9 35,-14 53,-21 155,-64 181,-161 79,-294 -32,-42 -69,-80 -106,-117 -56,-58 -117,-111 -170,-172 -91,-102 -133,-213 -65,-349 29,-59 -46,-571 -93,-806 538,-637 1343,-1042 2242,-1042 1044,0 1960,545 2480,1366l374 0c-554,-1006 -1624,-1688 -2854,-1688 -1799,0 -3256,1458 -3256,3256 0,1035 483,1958 1236,2554zm-713 -1485c-130,-331 -201,-692 -201,-1069 0,-672 226,-1290 606,-1785 42,238 98,623 85,660 -12,35 -29,68 -35,104 -6,41 -10,85 -2,125 26,133 113,228 206,320 66,66 133,132 193,204 51,60 40,86 -32,117 -17,7 -35,13 -53,20 -103,39 -139,157 -95,238 8,15 14,32 24,46 18,27 8,44 -18,55 -37,15 -75,26 -111,43 -37,17 -75,34 -106,60 -42,34 -42,86 3,115 46,29 99,48 150,65 35,12 74,14 110,20 -1,9 -1,12 -1,15 -3,5 -6,10 -10,15 -84,106 -82,226 -49,350 18,65 12,80 -51,105 -17,6 -34,13 -51,15 -110,12 -221,28 -331,31 -92,2 -168,24 -217,107 -4,8 -9,16 -14,24zm1401 -806c-3,-160 -62,-307 -178,-431 -46,-50 -38,-104 20,-120 23,-6 60,6 77,24 157,164 230,361 217,588 -11,184 -81,345 -206,481 -33,35 -68,58 -113,22 -35,-28 -30,-70 12,-117 112,-125 169,-270 171,-447zm594 111c-2,172 -92,408 -273,610 -8,9 -16,17 -24,26 -34,35 -72,45 -109,9 -35,-35 -23,-71 9,-104 93,-97 166,-207 207,-336 110,-342 49,-651 -187,-923 -11,-12 -23,-23 -33,-35 -23,-31 -26,-65 4,-91 29,-24 65,-32 97,-2 31,31 61,62 87,97 146,192 223,408 222,749zm457 -97c-5,345 -120,647 -353,902 -12,14 -24,27 -38,39 -31,27 -65,30 -95,0 -30,-30 -29,-65 -3,-97 28,-34 60,-63 87,-97 279,-367 338,-767 176,-1199 -54,-144 -141,-268 -245,-381 -19,-21 -35,-56 -32,-83 8,-56 75,-67 121,-21 116,115 206,250 271,400 74,171 112,350 111,537z"/>
   <path class="fil23" d="M7737 12359c-797,-653 -1301,-1612 -1301,-2682 0,-1968 1705,-3564 3809,-3564 156,0 309,9 460,26 -324,-89 -664,-137 -1015,-137 -2104,0 -3809,1705 -3809,3808 0,1342 694,2522 1743,3201l113 -652zm2508 882c-506,0 -989,-92 -1431,-260l-513 377c430,168 899,261 1389,261 864,0 1660,-288 2299,-773 -522,253 -1115,395 -1744,395zm3375 -2931l-1 0 -68 0 0 552c-6,6 -14,10 -25,14 -10,4 -23,6 -37,6 -5,0 -11,-1 -16,-2 -35,-23 -69,-45 -101,-64 -33,-20 -65,-38 -98,-56 -32,-17 -65,-34 -98,-50 -34,-15 -68,-31 -105,-46 -6,-10 -10,-23 -14,-38 -3,-15 -5,-30 -5,-46 0,-3 0,-7 0,-11 0,-4 0,-8 1,-11 10,-7 23,-14 39,-22 17,-8 33,-16 50,-25 17,-8 34,-16 51,-23 16,-8 29,-14 40,-20l-182 -80c-11,-4 -19,-9 -24,-15 -5,-5 -8,-12 -8,-23 0,-7 1,-14 4,-21 3,-7 6,-13 9,-19l-18 0 -27 0 -1 0 -413 0 0 119c0,12 -1,25 -2,40 -1,15 -2,30 -3,45 -2,14 -3,27 -5,40 -2,12 -3,21 -4,28 18,-20 39,-39 64,-59 24,-20 49,-39 76,-56 27,-17 54,-32 82,-44 28,-13 56,-22 82,-28 12,5 24,14 36,28 12,13 20,26 26,39 -6,16 -11,33 -17,52 -5,18 -10,39 -15,62 -4,23 -8,48 -10,77 -3,28 -4,60 -4,94 0,29 1,55 4,79 2,24 6,47 11,67 -5,7 -12,12 -20,16 -8,5 -18,7 -29,7 -12,0 -23,-3 -33,-8 -9,-5 -18,-14 -26,-26 -7,-12 -13,-28 -17,-48 -4,-21 -6,-47 -6,-77 0,-28 2,-54 5,-80 4,-25 9,-49 15,-71 5,-21 11,-40 18,-57 6,-17 12,-30 17,-41 -22,10 -45,22 -68,37 -23,15 -46,32 -68,51 -22,18 -43,38 -64,59 -21,20 -39,41 -55,62 -8,2 -16,3 -24,3 -16,0 -31,-4 -46,-10 -14,-7 -25,-15 -31,-26l0 -127c-8,-10 -18,-20 -29,-29 -11,-10 -24,-18 -37,-25 -13,-7 -28,-13 -43,-18 -16,-4 -31,-6 -46,-6 -30,0 -53,7 -70,22 -17,15 -25,35 -25,60 0,7 1,13 2,20 2,6 4,12 7,18 -3,7 -8,14 -17,20 -8,6 -19,8 -31,8 -19,0 -34,-6 -47,-20 -13,-14 -20,-34 -20,-62 0,-25 5,-47 15,-67 10,-19 23,-36 40,-49 17,-13 36,-22 59,-29 23,-6 47,-10 72,-10 36,0 69,6 97,18 29,11 53,25 73,41l0 -139 -359 0 -31 0 -1 0 -98 0 0 567c-4,1 -11,2 -19,4 -8,1 -17,2 -27,2 -20,0 -35,-4 -47,-10 -11,-7 -17,-21 -17,-42l0 -521 -43 0 -33 0 -1 0 -240 0c25,4 47,10 68,20 21,10 39,23 55,40 16,16 28,36 37,58 9,22 13,47 13,74 0,35 -6,66 -20,92 -13,26 -31,47 -54,65 -23,18 -49,31 -80,41 -30,9 -61,14 -95,16 50,19 96,37 139,55 43,18 76,32 100,43 16,8 28,16 36,25 9,9 13,20 13,34 0,15 -4,27 -12,38 -8,11 -18,19 -31,24 -43,-23 -82,-44 -116,-61 -35,-18 -68,-35 -101,-51 -33,-16 -67,-32 -101,-48 -35,-16 -74,-33 -117,-51 -5,-10 -7,-21 -7,-34 0,-11 2,-21 6,-31 3,-9 8,-17 14,-22 15,2 33,4 54,6 20,1 40,2 57,2 65,0 114,-13 149,-40 35,-26 52,-61 52,-105 0,-35 -9,-61 -27,-80 -19,-18 -42,-28 -69,-28 -26,0 -47,8 -64,25 -17,16 -25,38 -25,66 0,9 1,17 3,25 2,8 4,14 7,20 -12,18 -31,27 -55,27 -18,0 -34,-7 -49,-21 -14,-15 -21,-37 -21,-67 0,-20 4,-39 12,-57 8,-18 19,-34 33,-47 14,-14 30,-25 49,-34 19,-9 40,-15 63,-19l-228 0c-27,0 -40,-15 -40,-45 0,-7 1,-15 3,-22 1,-8 4,-14 6,-20l411 0c3,-5 6,-11 7,-17 2,-6 3,-12 3,-20 0,-16 -6,-29 -19,-39 -12,-10 -33,-15 -63,-15 -12,0 -22,0 -30,0 -9,1 -17,1 -26,1 -9,1 -18,1 -28,1 -11,1 -23,1 -38,1 -56,0 -99,-12 -130,-36 -31,-25 -47,-56 -47,-95 0,-26 6,-45 18,-59 11,-14 27,-21 47,-21 12,0 21,1 29,5 7,3 13,7 18,10 -1,5 -1,10 -1,15 -1,5 -1,11 -1,18 0,50 31,76 91,76 21,0 41,-1 60,-2 20,-1 41,-1 64,-1 52,0 91,11 119,33 27,21 41,51 41,88 0,11 -2,22 -5,32 -3,9 -7,18 -11,25l45 0 32 0 1 0 65 0c-8,-9 -15,-22 -20,-37 -5,-15 -8,-32 -8,-50 0,-29 7,-56 20,-80 13,-23 32,-43 57,-61 25,-17 54,-30 89,-39 34,-9 73,-14 115,-14 38,0 74,3 108,10 33,6 63,14 90,23 27,9 50,18 69,28 20,10 35,18 45,25 19,13 32,25 38,34 6,10 9,19 9,29 0,14 -4,25 -12,33 -7,9 -17,15 -28,19 -41,-29 -88,-54 -142,-75 -54,-22 -112,-33 -174,-33 -52,0 -94,11 -124,32 -31,21 -46,48 -46,83 0,18 3,33 8,45 6,12 12,21 20,28l72 0 31 0 1 0 0 0 1 0 883 0 26 0 1 0 606 0 61 0 1 0 51 0c22,0 40,4 56,13 16,8 28,20 36,35 5,-17 15,-29 28,-37 13,-7 28,-11 46,-11l61 0c12,0 22,4 29,10 8,7 11,19 11,34 0,8 -1,15 -2,23 -2,7 -4,14 -7,20l-81 0c-15,0 -27,4 -36,11 -9,7 -13,21 -13,40l0 518c-5,1 -11,2 -19,4 -8,1 -17,2 -28,2 -19,0 -34,-4 -46,-10 -11,-7 -17,-21 -17,-42l0 -488c0,-23 -11,-35 -33,-35l-6 0 -62 0zm-284 114c2,6 4,12 4,19 1,7 1,15 1,22 0,10 0,19 -2,27 -1,8 -3,15 -5,22 -12,6 -25,13 -39,21 -15,7 -30,15 -45,23 -14,8 -29,16 -43,23 -14,8 -25,14 -34,20 41,19 86,42 136,68 50,27 96,55 139,84 -1,-11 -2,-23 -3,-36 -1,-13 -1,-27 -2,-40 -1,-14 -1,-27 -2,-40 0,-13 0,-24 0,-33l0 -294 -330 0c15,7 32,14 53,24 20,10 41,20 63,31 21,11 42,21 61,32 20,11 36,20 48,27zm-261 441c0,-19 6,-35 19,-47 13,-12 29,-18 49,-18 20,0 36,6 49,18 13,13 19,28 19,47 0,19 -6,34 -19,47 -13,13 -29,19 -49,19 -20,0 -36,-6 -49,-19 -13,-13 -19,-28 -19,-47zm-561 -1171c-9,-19 -13,-38 -13,-56 0,-26 8,-50 23,-71 16,-21 39,-35 69,-41 46,21 90,44 133,69 44,26 79,47 105,65 20,14 35,27 44,40 10,13 15,29 15,48 0,21 -7,40 -21,57 -14,17 -33,28 -57,33l-298 -144zm-1215 -579c-57,15 -112,35 -167,61 -54,26 -102,53 -143,80 54,31 109,64 166,100 57,36 109,70 154,103 -2,-14 -4,-29 -5,-47 -1,-17 -2,-35 -2,-52 -1,-18 -1,-34 -2,-51 0,-16 -1,-31 -1,-43l0 -151zm1730 0c-60,15 -119,35 -176,61 -57,26 -108,53 -152,80 30,15 59,31 90,48 30,18 59,35 88,53 29,17 57,35 84,52 27,17 52,34 74,50 -1,-14 -2,-29 -3,-47 -1,-17 -2,-35 -2,-52 -1,-18 -1,-34 -2,-51 -1,-16 -1,-31 -1,-43l0 -151zm-1519 -254l0 62c57,2 111,10 162,24 51,14 95,34 133,60 38,27 68,59 91,97 22,38 33,82 33,133 0,41 -6,77 -19,108 -13,30 -29,56 -49,76 -20,20 -43,35 -68,45 -26,10 -51,15 -77,15 -39,0 -69,-10 -89,-32 -21,-21 -31,-47 -31,-79 0,-12 1,-25 4,-37 3,-12 6,-21 10,-28l24 0c21,0 40,-6 55,-19 16,-13 24,-33 24,-60 0,-34 -16,-62 -49,-85 -33,-23 -84,-37 -154,-44l0 593c-22,25 -61,37 -117,37 -7,0 -13,0 -18,-1 -5,0 -9,-1 -14,-2 -48,-38 -95,-73 -138,-104 -44,-31 -88,-60 -133,-87 -44,-27 -90,-53 -137,-79 -47,-25 -98,-51 -153,-77 -14,-21 -24,-46 -31,-76 -7,-30 -10,-60 -10,-91 0,-7 0,-14 1,-21 0,-6 1,-12 2,-17 38,-26 79,-52 123,-77 44,-25 89,-48 136,-70 47,-21 95,-41 142,-59 48,-18 94,-33 140,-44l0 -61 -493 0 -80 0 -1 0 -1 0 -37 0c-18,10 -38,26 -58,50 -21,24 -40,53 -57,87 -18,35 -32,73 -43,116 -11,43 -17,88 -17,134 0,50 6,94 18,133 11,39 27,74 47,105 20,31 43,57 68,79 24,22 51,40 78,54 1,5 2,11 2,16 0,5 0,11 0,16 0,32 -10,57 -28,76 -19,19 -44,28 -77,28 -35,0 -71,-10 -109,-32 -37,-22 -72,-53 -103,-94 -32,-42 -58,-92 -79,-152 -20,-59 -31,-127 -31,-202 0,-89 13,-169 37,-240 25,-71 56,-132 92,-182 37,-49 76,-88 117,-115 41,-27 79,-40 113,-40l15 0 80 0 1 0 1 0 1122 0 109 0 1 0 1 0 73 0c33,0 64,6 92,19 28,13 50,32 65,59 11,-28 28,-48 50,-60 23,-12 48,-18 78,-18l29 0 52 0 1 0 1 0 840 0 109 0 1 0 1 0 73 0c34,0 64,6 92,19 28,13 50,32 65,59 11,-28 28,-48 50,-60 23,-12 48,-18 78,-18l81 0c22,0 40,6 53,19 13,13 20,34 20,63 0,16 -2,31 -6,45 -3,14 -8,26 -13,36l-117 0c-24,0 -43,6 -57,17 -14,11 -21,32 -21,64l0 780c-7,2 -18,5 -34,7 -17,3 -35,4 -55,4 -37,0 -67,-6 -89,-20 -22,-13 -33,-40 -33,-81l0 -718c0,-16 -4,-29 -13,-38 -8,-10 -19,-14 -32,-15l0 0 -1 0 -100 0 -1 0 -1 0 -84 0 0 829c-22,25 -61,37 -117,37 -10,0 -21,-1 -32,-3 -49,-38 -97,-73 -142,-105 -46,-32 -91,-61 -137,-89 -46,-27 -93,-54 -141,-79 -49,-25 -100,-50 -155,-74 -14,-21 -24,-46 -31,-76 -7,-30 -10,-60 -10,-91 0,-7 0,-14 0,-21 0,-6 0,-12 1,-17 39,-26 82,-52 127,-77 46,-25 92,-48 140,-70 49,-21 97,-41 146,-59 49,-18 97,-33 144,-44l0 -61 -547 0 -54 0 -1 0 -1 0 -62 0c-23,0 -42,6 -56,17 -14,11 -21,32 -21,64l0 780c-7,2 -18,5 -34,7 -17,3 -35,4 -55,4 -37,0 -67,-6 -89,-20 -22,-13 -33,-40 -33,-81l0 -718c0,-16 -4,-29 -13,-38 -8,-10 -19,-14 -32,-15l0 0 -1 0 -100 0 -1 0 -1 0 -420 0zm-3518 3434l-477 1554 1205 -1118c396,172 833,267 1292,267 1230,0 2300,-682 2854,-1689l-374 0c-520,822 -1436,1367 -2480,1367 -1194,0 -2221,-713 -2679,-1736 4,-13 8,-25 12,-38 21,-58 52,-118 130,-119 38,-1 76,1 114,-1 126,-6 253,-12 369,-67 91,-43 117,-109 87,-202 -32,-101 -33,-198 37,-286 8,-9 13,-20 18,-31 26,-59 8,-113 -53,-137 -39,-15 -82,-20 -123,-29 -27,-6 -53,-12 -80,-17 27,-22 55,-33 83,-45 33,-15 69,-27 99,-46 62,-39 78,-97 48,-164 -10,-23 -24,-44 -33,-66 -16,-35 -3,-68 31,-84 17,-9 35,-14 53,-21 155,-64 181,-161 79,-294 -32,-42 -69,-80 -106,-117 -56,-58 -117,-111 -170,-172 -91,-102 -133,-213 -65,-349 29,-59 -46,-571 -93,-806 538,-637 1343,-1042 2242,-1042 1044,0 1960,545 2480,1366l374 0c-554,-1006 -1624,-1688 -2854,-1688 -1799,0 -3256,1458 -3256,3256 0,1035 483,1958 1236,2554zm-713 -1485c-130,-331 -201,-692 -201,-1069 0,-672 226,-1291 606,-1785 42,238 98,623 85,660 -12,35 -29,68 -35,104 -6,41 -10,85 -2,125 26,133 113,228 206,320 66,66 133,132 193,203 51,61 40,87 -32,118 -17,7 -35,13 -53,20 -103,39 -139,157 -95,238 8,15 14,32 24,46 18,27 8,44 -18,55 -37,15 -75,26 -111,43 -37,17 -75,34 -106,59 -42,35 -42,87 3,116 46,29 99,48 150,65 35,12 74,14 110,20 -1,9 -1,12 -1,15 -3,5 -6,10 -10,14 -84,107 -82,227 -49,350 18,66 12,81 -51,106 -17,6 -34,13 -51,15 -110,12 -221,28 -331,31 -92,2 -168,23 -217,106 -4,9 -9,17 -14,25zm1401 -806c-3,-160 -62,-307 -178,-431 -46,-50 -38,-104 20,-120 23,-6 60,6 77,24 157,163 230,361 217,588 -11,184 -81,345 -206,481 -33,35 -68,58 -113,22 -35,-28 -30,-70 12,-117 112,-125 169,-270 171,-447zm594 111c-2,172 -92,408 -273,610 -8,9 -16,17 -24,26 -34,34 -72,45 -109,9 -35,-35 -23,-72 9,-104 93,-97 166,-207 207,-336 110,-342 49,-651 -187,-923 -11,-12 -23,-23 -33,-35 -23,-31 -26,-65 4,-91 29,-25 65,-32 97,-2 31,31 61,62 87,97 146,192 223,408 222,749zm457 -97c-5,345 -120,647 -353,902 -12,13 -24,27 -38,39 -31,27 -65,29 -95,0 -30,-30 -29,-65 -3,-97 28,-34 60,-63 87,-98 279,-366 338,-766 176,-1198 -54,-144 -141,-268 -245,-381 -19,-21 -35,-57 -32,-83 8,-56 75,-67 121,-22 116,116 206,251 271,401 74,171 112,350 111,537z"/>
   <path class="fil21" d="M7737 12359c-788,-645 -1289,-1590 -1300,-2645l-1 21c0,1066 500,2022 1292,2675l9 -51zm2593 -6245c127,2 251,11 375,25 -324,-89 -664,-137 -1015,-137 -2104,0 -3809,1705 -3809,3808l0 37c12,-2094 1713,-3787 3809,-3787 218,0 432,18 640,54zm-85 7127c-506,0 -989,-92 -1431,-260l-513 377c17,6 35,13 52,20l461 -339c442,168 925,261 1431,261 540,0 1054,-106 1520,-296 77,-50 152,-103 224,-158 -522,253 -1115,395 -1744,395zm2810 -2626c-2,-12 -3,-23 -3,-35 0,-3 0,-7 0,-11 0,-4 0,-8 1,-11 10,-7 23,-14 39,-22 17,-8 33,-16 50,-25l27 -12 64 27c-11,6 -24,12 -40,20 -17,7 -34,15 -51,24 -17,8 -33,16 -50,24 -15,8 -27,15 -37,21zm-26 -240l-2 -2c-2,-1 -3,-3 -4,-5l9 0 -3 7zm-461 198c16,-17 34,-34 55,-50 24,-20 49,-39 76,-56 27,-17 54,-32 82,-44 28,-13 56,-22 82,-28 12,5 24,14 36,28 12,13 20,26 26,39 -4,12 -8,24 -12,37 -4,-6 -9,-12 -14,-18 -12,-14 -24,-23 -36,-28 -26,6 -54,15 -82,28 -28,12 -55,27 -82,44 -27,18 -52,36 -76,56 -25,20 -46,40 -64,59 1,-6 2,-16 4,-28 2,-12 3,-25 5,-39zm311 201c1,18 2,36 4,52 2,24 6,47 11,67 -3,4 -6,7 -9,9l-2 -18c-3,-23 -4,-50 -4,-78l0 -32zm-116 12c0,-10 0,-19 0,-29 0,-28 2,-54 5,-80 4,-25 9,-49 15,-71 2,-9 5,-18 7,-26 10,-5 19,-10 28,-14 -5,11 -11,24 -17,41 -7,17 -13,36 -18,57 -6,22 -11,46 -15,71 -2,17 -4,33 -5,51zm-546 -197c1,3 2,7 4,10 -2,5 -5,9 -9,13 0,-8 2,-16 5,-23zm-108 -16c-2,-8 -3,-18 -3,-28 0,-25 5,-47 15,-67 10,-19 23,-36 40,-49 17,-13 36,-22 59,-29 23,-6 47,-10 72,-10 36,0 69,6 97,18 29,11 53,25 73,41l0 58c-20,-16 -44,-29 -73,-41 -28,-12 -61,-17 -97,-17 -25,0 -49,3 -72,9 -23,7 -42,17 -59,29 -17,13 -30,30 -40,49 -6,11 -10,24 -12,37zm-441 -205l1 2c16,16 28,36 37,58 9,22 13,47 13,74 0,11 0,20 -1,30 -2,-16 -6,-32 -12,-46 -9,-22 -21,-42 -37,-58 -16,-16 -34,-30 -55,-39 -21,-10 -43,-17 -68,-21l122 0zm-96 388l37 15c43,18 76,32 100,43 16,8 28,16 36,25 9,9 13,20 13,34 0,11 -2,22 -7,31 -2,-3 -3,-5 -6,-7 -8,-9 -20,-17 -36,-25 -24,-11 -57,-25 -100,-43 -43,-18 -89,-36 -139,-55 34,-2 65,-7 95,-16l7 -2zm-294 -37c-3,-9 -5,-18 -5,-29 0,-11 2,-21 6,-31 3,-9 8,-17 14,-22 15,2 33,4 54,6 20,1 40,2 57,2 65,0 114,-13 149,-40 27,-20 44,-46 50,-77 2,10 2,20 2,30 0,44 -17,79 -52,105 -35,27 -84,40 -149,40 -17,0 -37,-1 -57,-2 -21,-2 -39,-4 -54,-6 -6,5 -11,13 -14,22l-1 2zm146 -208c2,6 4,12 6,17 -3,4 -6,8 -10,11 0,-10 1,-20 4,-28zm-116 -14c-2,-9 -3,-19 -3,-30 0,-20 4,-39 12,-57 6,-15 16,-29 27,-42l118 0c-23,4 -44,10 -63,19 -19,9 -35,20 -49,34 -14,13 -25,29 -33,47 -4,9 -7,19 -9,29zm-109 -205c-3,-7 -5,-16 -5,-27 0,-7 1,-15 3,-22 1,-8 4,-14 6,-20l411 0 3 -5c5,7 7,16 7,26 0,8 -1,15 -3,20 -1,6 -4,12 -7,17l-411 0c-1,3 -3,7 -4,11zm47 -259c-2,-10 -3,-19 -3,-29 0,-26 6,-45 18,-59 11,-14 27,-21 47,-21 12,0 21,1 29,5 7,3 13,7 18,10 -1,5 -1,10 -1,15 -1,5 -1,11 -1,18 0,50 31,76 91,76 21,0 41,-1 60,-2 20,-1 41,-1 64,-1 52,0 91,11 119,33 27,21 41,51 41,88 0,10 -2,19 -4,28 -6,-24 -18,-43 -37,-58 -28,-22 -67,-33 -119,-33 -23,0 -44,0 -64,1 -19,1 -39,2 -60,2 -60,0 -91,-25 -91,-76 0,-7 0,-13 1,-18 0,-5 0,-10 1,-15 -5,-3 -11,-7 -18,-10 -8,-4 -17,-5 -29,-5 -20,0 -36,7 -47,21 -7,8 -12,18 -15,30zm482 190l29 0 32 0 1 0 39 0c2,8 3,15 6,21 5,15 12,28 20,37l-65 0 -1 0 -32 0 -45 0c4,-7 8,-16 11,-25 3,-10 5,-21 5,-32l0 -1zm101 -58c-1,-9 -2,-19 -2,-29 0,-29 7,-56 20,-80 13,-23 32,-43 57,-61 25,-17 54,-30 89,-39 34,-9 73,-14 115,-14 38,0 74,3 108,10 33,6 63,14 90,23 27,9 50,18 69,28 20,10 35,18 45,25 19,13 32,25 38,34 6,10 9,19 9,29 0,12 -3,22 -9,30l0 -1c-6,-9 -19,-21 -38,-34 -10,-6 -25,-15 -45,-25 -19,-10 -42,-19 -69,-28 -27,-9 -57,-17 -90,-23 -34,-7 -70,-10 -108,-10 -42,0 -81,5 -115,14 -35,9 -64,22 -89,40 -25,17 -44,37 -57,61 -9,15 -15,32 -18,50zm115 16c2,5 3,10 5,14 6,12 12,21 20,28l72 0 31 0 1 0 0 0 1 0 883 0 26 0 1 0 606 0 61 0 1 0 51 0c22,0 40,4 56,13 16,8 28,20 36,35 5,-17 15,-29 28,-37 13,-7 28,-11 46,-11l61 0c12,0 22,4 29,10 8,7 11,19 11,34 0,8 -1,15 -2,23 -1,3 -2,6 -3,9 -1,-3 -3,-5 -6,-7 -7,-7 -17,-11 -29,-11l-61 0c-18,0 -33,4 -46,12 -13,7 -23,19 -28,36 -8,-15 -20,-27 -36,-35 -16,-9 -34,-13 -56,-13l-51 0 -1 0 -61 0 -606 0 -1 0 -26 0 -883 0 -1 0 0 0 -1 0 -31 0 -72 0c-8,-7 -14,-16 -20,-28 -5,-12 -8,-27 -8,-45 0,-9 1,-18 3,-27zm1392 243c2,6 4,12 4,19 1,7 1,15 1,22 0,10 0,19 -2,27l0 1c-1,-4 -2,-7 -3,-11 -12,-7 -28,-16 -48,-27 -19,-10 -40,-21 -61,-32 -22,-11 -43,-21 -63,-31 -21,-9 -38,-17 -53,-24l123 0c19,10 37,20 54,29 20,11 36,20 48,27zm-107 204c25,12 52,26 80,41 48,26 93,53 135,81l1 25c1,14 2,25 3,36 -43,-29 -89,-57 -139,-83 -50,-27 -95,-50 -136,-69 9,-6 20,-12 34,-20l22 -11zm-154 237c0,-19 6,-35 19,-47 13,-12 29,-18 49,-18 20,0 36,6 49,18 13,13 19,28 19,47 0,11 -2,20 -6,29 -3,-6 -8,-12 -13,-18 -13,-12 -29,-18 -49,-18 -20,0 -36,6 -49,18 -6,5 -10,11 -13,18 -4,-9 -6,-18 -6,-29zm-570 -1198c-3,-10 -4,-19 -4,-29 0,-26 8,-50 23,-71 16,-21 39,-35 69,-41 46,21 90,44 133,69 44,26 79,47 105,65 20,14 35,27 44,40 10,13 15,29 15,48 0,10 -2,19 -5,28 -2,-6 -5,-12 -10,-18 -9,-13 -24,-26 -44,-40 -26,-18 -61,-39 -105,-65 -43,-25 -87,-48 -133,-69 -30,6 -53,20 -69,41 -9,13 -16,27 -19,42zm-1468 -383c39,23 78,47 118,72 55,34 104,67 148,99l1 15c1,18 3,33 5,47 -45,-33 -97,-67 -154,-103 -57,-36 -112,-69 -166,-100 15,-10 31,-20 48,-30zm1717 0c12,6 24,13 37,20 30,18 59,35 88,53 29,17 57,35 84,52 26,16 49,32 70,47l1 14c1,18 2,33 3,47 -22,-16 -47,-32 -74,-50 -27,-17 -55,-35 -84,-52 -29,-18 -58,-35 -88,-52 -31,-18 -60,-34 -90,-49 17,-10 34,-20 53,-30zm-1244 -361c57,2 111,10 162,24 51,14 95,34 133,60 38,27 68,59 91,97 22,38 33,82 33,133 0,10 -1,20 -1,30 -4,-39 -14,-74 -32,-105 -23,-38 -53,-70 -91,-97 -38,-26 -82,-46 -133,-60 -51,-14 -105,-22 -162,-24l0 -58zm89 474c-2,-8 -3,-17 -3,-27 0,-12 1,-25 4,-37 3,-12 6,-21 10,-28l24 0c21,0 40,-6 55,-19 10,-7 16,-17 20,-30 3,9 4,18 4,28 0,27 -8,48 -24,60 -15,13 -34,19 -55,19l-24 0c-4,7 -7,16 -10,28l-1 6zm-839 -155c-1,-10 -1,-21 -1,-32 0,-7 0,-14 1,-21 0,-6 1,-12 2,-17 38,-26 79,-52 123,-77 44,-25 89,-48 136,-70 47,-21 95,-41 142,-59 48,-18 94,-33 140,-44l0 58c-46,11 -92,26 -140,44 -47,18 -95,38 -142,59 -47,22 -92,45 -136,70 -44,25 -85,51 -123,77 -1,4 -1,8 -2,12zm-243 35c2,38 7,73 17,104 11,39 27,74 47,105 20,31 43,57 68,79 24,22 51,40 78,54 1,5 2,11 2,16 0,5 0,11 0,16 0,9 -1,18 -3,26 -27,-14 -53,-32 -77,-54 -25,-22 -48,-48 -68,-79 -20,-31 -36,-65 -47,-105 -12,-39 -18,-83 -18,-133 0,-9 0,-19 1,-29zm-214 26c-1,-9 -1,-19 -1,-28 0,-89 13,-169 37,-240 25,-71 56,-132 92,-182 37,-49 76,-88 117,-115 41,-27 79,-40 113,-40l15 0 80 0 1 0 1 0 1122 0 109 0 1 0 1 0 73 0c33,0 64,6 92,19 28,13 50,32 65,59 11,-28 28,-48 50,-60 23,-12 48,-18 78,-18l29 0 52 0 1 0 1 0 840 0 109 0 1 0 1 0 73 0c34,0 64,6 92,19 28,13 50,32 65,59 11,-28 28,-48 50,-60 23,-12 48,-18 78,-18l81 0c22,0 40,6 53,19 13,13 20,34 20,63 0,11 -1,21 -3,31 -3,-16 -8,-28 -17,-36 -13,-13 -31,-19 -53,-19l-81 0c-30,0 -55,6 -78,18 -22,12 -39,32 -50,60 -15,-27 -37,-46 -65,-59 -28,-13 -58,-19 -92,-19l-73 0 -1 0 -1 0 -109 0 -840 0 -1 0 -1 0 -52 0 -29 0c-30,0 -55,6 -78,18 -22,12 -39,32 -50,60 -15,-27 -37,-46 -65,-59 -28,-13 -59,-19 -92,-19l-73 0 -1 0 -1 0 -109 0 -1122 0 -1 0 -1 0 -80 0 -15 0c-34,0 -72,14 -113,41 -41,26 -80,65 -117,114 -36,50 -67,111 -92,182 -22,63 -34,133 -36,210zm2170 -68c0,-8 0,-17 0,-25 0,-7 0,-14 0,-21 0,-6 0,-12 1,-17 39,-26 82,-52 127,-77 46,-25 92,-48 140,-70 49,-21 97,-41 146,-59 49,-18 97,-33 144,-44l0 58c-47,11 -95,26 -144,44 -49,18 -97,38 -146,59 -48,22 -94,45 -140,70 -45,25 -88,51 -127,77l-1 5zm-4496 3107l-462 1507 25 -23 452 -1473 -15 -11zm4856 -975c12,-19 23,-38 33,-58l-374 0c-520,822 -1436,1367 -2480,1367 -1184,0 -2204,-702 -2668,-1712 -4,11 -7,22 -11,34 458,1023 1485,1736 2679,1736 1044,0 1960,-545 2480,-1367l341 0zm-4779 -759c6,-28 2,-59 -9,-95 -10,-31 -17,-62 -20,-92 -5,49 4,99 20,150 4,13 7,25 9,37zm53 -433c14,-51 -6,-95 -60,-116 -39,-15 -82,-20 -123,-29l-5 -1c-25,11 -50,22 -75,42 27,6 53,11 80,17 41,9 84,14 123,29 32,13 52,33 60,58zm-22 -327c7,-27 4,-58 -11,-90 -10,-22 -23,-43 -33,-65 -9,16 -9,36 0,57 9,22 23,44 33,66 5,11 9,22 11,32zm177 -386c11,-48 -8,-104 -58,-169 -32,-42 -69,-80 -106,-117 -56,-58 -117,-111 -170,-172 -52,-59 -89,-121 -97,-189 -10,91 30,172 97,247 53,61 114,114 170,172 37,37 74,75 106,117 31,41 51,78 58,111zm-393 -839c7,-120 -48,-504 -90,-727l-9 11c37,186 92,545 99,716zm4964 -450l33 0c-554,-1006 -1624,-1688 -2854,-1688 -1799,0 -3256,1458 -3256,3256l0 37c11,-1788 1464,-3235 3256,-3235 1206,0 2259,656 2821,1630zm-5554 2637c-127,-323 -198,-674 -201,-1041l0 30c0,377 71,738 201,1069 5,-8 10,-16 14,-24 49,-83 125,-105 217,-107 110,-3 221,-19 331,-31 17,-2 34,-9 51,-15 59,-23 68,-38 54,-93 -7,14 -25,23 -54,35 -17,6 -34,13 -51,15 -110,12 -221,28 -331,31 -92,2 -168,23 -217,106 -4,9 -9,17 -14,25zm490 -2195l0 1c-12,35 -29,68 -35,104 -5,33 -8,69 -5,103 1,-15 3,-30 5,-45 6,-36 23,-69 35,-104 3,-7 3,-28 0,-59zm383 839c-11,11 -28,21 -53,32 -17,7 -35,13 -53,20 -85,32 -124,117 -111,192 10,-57 48,-110 111,-134 18,-7 36,-13 53,-20 60,-26 77,-48 53,-90zm-183 385c-3,2 -7,4 -12,6 -37,15 -75,26 -111,43 -37,17 -75,34 -106,59 -31,25 -39,60 -24,87 5,-10 13,-20 24,-28 31,-26 69,-43 106,-60 36,-17 74,-28 111,-43 26,-11 36,-28 18,-55 -2,-3 -4,-6 -6,-9zm6 363c-44,66 -57,138 -52,211 4,-62 25,-121 69,-177 4,-5 7,-10 10,-15 0,-3 0,-6 1,-15 -9,-2 -19,-3 -28,-4zm505 -662c-18,-39 -3,-75 42,-87 23,-6 60,6 77,24 152,158 226,348 218,566 -6,-194 -79,-364 -218,-508 -17,-18 -54,-30 -77,-24 -20,5 -35,16 -42,29zm1 1010c-16,-27 -6,-61 28,-99 105,-117 162,-252 170,-414 0,8 0,16 1,25 -2,177 -59,322 -171,447 -13,14 -22,28 -28,41zm793 -435l0 13c-6,-316 -83,-521 -222,-704 -26,-35 -56,-66 -87,-97 -32,-30 -68,-22 -97,2 -6,5 -11,11 -14,17 -13,-27 -11,-54 14,-75 29,-25 65,-32 97,-2 31,31 61,62 87,97 146,192 223,408 222,749zm-419 628c-18,-30 -5,-60 22,-87 93,-97 166,-207 207,-336 32,-99 50,-195 53,-289 3,112 -14,228 -53,347 -41,129 -114,239 -207,336 -10,9 -17,19 -22,29zm876 -725l-1 17c-3,-172 -41,-337 -110,-496 -65,-150 -155,-285 -271,-400 -40,-40 -96,-37 -115,2 -5,-14 -7,-27 -6,-39 8,-56 75,-67 121,-22 116,116 206,251 271,401 74,171 112,350 111,537zm-501 921c-14,-25 -8,-52 12,-77 28,-34 60,-63 87,-98 170,-223 259,-459 265,-707 7,269 -82,525 -265,766 -27,34 -59,63 -87,97 -5,7 -9,13 -12,19z"/>
  </g>
 </g>
</svg>
