<?xml version="1.0" encoding="UTF-8"?>
<!DOCTYPE svg PUBLIC "-//W3C//DTD SVG 1.1//EN" "http://www.w3.org/Graphics/SVG/1.1/DTD/svg11.dtd">
<!-- Creator: CorelDRAW X7 -->
<svg xmlns="http://www.w3.org/2000/svg" xml:space="preserve" width="484px" height="611px" version="1.1" style="shape-rendering:geometricPrecision; text-rendering:geometricPrecision; image-rendering:optimizeQuality; fill-rule:evenodd; clip-rule:evenodd"
viewBox="0 0 9575 12084"
 xmlns:xlink="http://www.w3.org/1999/xlink">
 <defs>
  <style type="text/css">
   <![CDATA[
    .fil3 {fill:none}
    .fil5 {fill:#70342D}
    .fil20 {fill:#7A1C09}
    .fil14 {fill:#C4491C}
    .fil24 {fill:white}
    .fil16 {fill:#FFF5DF;fill-rule:nonzero}
    .fil17 {fill:#7A1C09;fill-rule:nonzero}
    .fil22 {fill:#7A1C09;fill-rule:nonzero}
    .fil11 {fill:#F6DFB4;fill-rule:nonzero}
    .fil6 {fill:#FFEBBF;fill-rule:nonzero}
    .fil7 {fill:#FFF7EB;fill-rule:nonzero}
    .fil19 {fill:white;fill-rule:nonzero}
    .fil1 {fill:#FFF0D4;fill-rule:nonzero;fill-opacity:0.501961}
    .fil13 {fill:url(#id0)}
    .fil10 {fill:url(#id1)}
    .fil4 {fill:url(#id2)}
    .fil12 {fill:url(#id3)}
    .fil9 {fill:url(#id4)}
    .fil8 {fill:url(#id5)}
    .fil0 {fill:url(#id6)}
    .fil2 {fill:url(#id7)}
    .fil15 {fill:url(#id8)}
    .fil23 {fill:url(#id9)}
    .fil21 {fill:url(#id10);fill-rule:nonzero}
    .fil18 {fill:url(#id11);fill-rule:nonzero}
   ]]>
  </style>
  <linearGradient id="id0" gradientUnits="userSpaceOnUse" x1="4787.75" y1="2098.23" x2="4787.75" y2="7751.59">
   <stop offset="0" style="stop-opacity:1; stop-color:#F4D8BA"/>
   <stop offset="0.278431" style="stop-opacity:1; stop-color:#F28F1D"/>
   <stop offset="0.541176" style="stop-opacity:1; stop-color:#BF391B"/>
   <stop offset="1" style="stop-opacity:1; stop-color:#D9601F"/>
  </linearGradient>
  <linearGradient id="id1" gradientUnits="userSpaceOnUse" x1="4787.66" y1="2119.2" x2="4787.75" y2="8000.71">
   <stop offset="0" style="stop-opacity:1; stop-color:#F08B18"/>
   <stop offset="0.470588" style="stop-opacity:1; stop-color:#AB1916"/>
   <stop offset="1" style="stop-opacity:1; stop-color:#D95E1C"/>
  </linearGradient>
  <linearGradient id="id2" gradientUnits="userSpaceOnUse" x1="4805.57" y1="424.21" x2="4805.57" y2="9554.04">
   <stop offset="0" style="stop-opacity:1; stop-color:#FFD991"/>
   <stop offset="0.258824" style="stop-opacity:1; stop-color:#EC9A3E"/>
   <stop offset="0.611765" style="stop-opacity:1; stop-color:#A12224"/>
   <stop offset="1" style="stop-opacity:1; stop-color:#CF5A1B"/>
  </linearGradient>
  <linearGradient id="id3" gradientUnits="userSpaceOnUse" x1="4786.47" y1="8304.46" x2="4786.56" y2="4787.66">
   <stop offset="0" style="stop-opacity:1; stop-color:#F6DFB4"/>
   <stop offset="1" style="stop-opacity:1; stop-color:#BC3416"/>
  </linearGradient>
  <linearGradient id="id4" gradientUnits="userSpaceOnUse" x1="8924.1" y1="4009.32" x2="8928.82" y2="5373.27">
   <stop offset="0" style="stop-opacity:1; stop-color:#FCE0AB"/>
   <stop offset="1" style="stop-opacity:1; stop-color:#D15C1E"/>
  </linearGradient>
  <linearGradient id="id5" gradientUnits="userSpaceOnUse" xlink:href="#id4" x1="797.671" y1="4009.32" x2="802.388" y2="5373.27">
  </linearGradient>
  <linearGradient id="id6" gradientUnits="userSpaceOnUse" x1="7235.93" y1="8774.07" x2="4822.83" y2="9123.48">
   <stop offset="0" style="stop-opacity:1; stop-color:red"/>
   <stop offset="1" style="stop-opacity:1; stop-color:#B00205"/>
  </linearGradient>
  <linearGradient id="id7" gradientUnits="userSpaceOnUse" x1="2405.76" y1="9569.62" x2="4350.28" y2="8330.36">
   <stop offset="0" style="stop-opacity:1; stop-color:#B00205"/>
   <stop offset="1" style="stop-opacity:1; stop-color:red"/>
  </linearGradient>
  <linearGradient id="id8" gradientUnits="objectBoundingBox" x1="55.2471%" y1="0.332958%" x2="55.2489%" y2="100.849%">
   <stop offset="0" style="stop-opacity:1; stop-color:#FFF4DF"/>
   <stop offset="1" style="stop-opacity:1; stop-color:#D65B1E"/>
  </linearGradient>
  <radialGradient id="id9" gradientUnits="userSpaceOnUse" gradientTransform="matrix(3.4938E-005 0.625052 -0.997375 0.00503923 12597 4953)" cx="4691.95" cy="7926.03" r="2197.7" fx="4691.95" fy="7926.03">
   <stop offset="0" style="stop-opacity:1; stop-color:#FEFEFE"/>
   <stop offset="0.878431" style="stop-opacity:1; stop-color:#F2D5B8"/>
   <stop offset="1" style="stop-opacity:1; stop-color:#E6AC73"/>
  </radialGradient>
  <linearGradient id="id10" gradientUnits="userSpaceOnUse" x1="3570.52" y1="5756.68" x2="3570.75" y2="2908.3">
   <stop offset="0" style="stop-opacity:1; stop-color:#E3A96A"/>
   <stop offset="1" style="stop-opacity:1; stop-color:#FCE0AB"/>
  </linearGradient>
  <linearGradient id="id11" gradientUnits="userSpaceOnUse" x1="4535.15" y1="996.744" x2="4535.15" y2="428.367">
   <stop offset="0" style="stop-opacity:1; stop-color:#F4D8BA"/>
   <stop offset="0.560784" style="stop-opacity:1; stop-color:#F9EBDC"/>
   <stop offset="1" style="stop-opacity:1; stop-color:white"/>
  </linearGradient>
 </defs>
 <g id="Layer_x0020_1">
  <metadata id="CorelCorpID_0Corel-Layer"/>
  <g id="_766171552">
   <g>
    <g>
     <path class="fil0" d="M4728 9283l-456 94 -126 25 -85 18 -76 15 -37 8 -10 2 36 63 757 1315 694 1205c39,60 84,75 139,25l937 -1143c25,-47 62,-81 128,-87l1453 -242c95,-6 117,-54 67,-144l-880 -1552 -30 -52 -4 -8 -16 -28 -12 -21 -16 3 -125 25 -67 14 -43 9 -2228 456z"/>
     <path class="fil1" d="M6993 8891l36 -21 -41 -71 -36 21 41 71zm-2853 520l-36 21 41 71 36 -20 -41 -72zm82 143l-36 21 41 71 36 -20 -41 -72zm82 143l-36 21 41 71 36 -20 -41 -72zm82 143l-35 21 41 71 35 -20 -41 -72zm82 143l-35 20 41 72 35 -21 -41 -71zm83 143l-36 20 41 72 36 -21 -41 -71zm82 143l-36 20 41 72 36 -21 -41 -71zm82 143l-36 20 41 72 36 -21 -41 -71zm82 142l-36 21 41 71 36 -20 -41 -72zm82 143l-36 21 41 71 36 -20 -41 -72zm82 143l-36 21 41 71 36 -20 -41 -72zm82 143l-36 21 42 71 35 -20 -41 -72zm82 143l-35 21 41 71 35 -21 -41 -71zm82 143l-35 20 41 72 35 -21 -41 -71zm83 143l-36 20 41 72 36 -21 -41 -71zm82 143l-36 20 41 72 36 -21 -41 -71zm82 142l-36 21 41 71 36 -20 -41 -72zm50 120l32 26 52 -63 -31 -26 -53 63zm106 -126l31 26 53 -63 -32 -27 -52 64zm105 -127l32 26 53 -63 -32 -26 -53 63zm106 -126l31 26 53 -63 -31 -27 -53 64zm105 -127l32 26 53 -63 -32 -26 -53 63zm106 -126l32 26 52 -63 -31 -27 -53 64zm106 -127l31 26 53 -63 -32 -26 -52 63zm105 -126l32 26 53 -63 -32 -27 -53 64zm106 -127l31 26 53 -63 -31 -26 -53 63zm105 -126l6 5 15 26 79 -13 -7 -40 -86 13 -7 9zm175 -35l6 40 82 -13 -7 -40 -81 13zm162 -27l7 41 81 -13 -6 -41 -82 13zm163 -26l7 41 81 -13 -7 -41 -81 13zm163 -26l6 41 82 -13 -7 -41 -81 13zm163 -26l6 41 81 -13 -6 -41 -81 13zm162 -26l7 41 81 -13 -6 -41 -82 13zm163 -26l6 41 82 -13 -7 -41 -81 13zm163 -26l6 41 81 -13 -6 -41 -81 13zm134 -2l36 -20 -41 -72 -36 21 41 71zm-82 -142l35 -21 -41 -71 -36 20 42 72zm-83 -143l36 -20 -42 -72 -35 21 41 71zm-83 -142l36 -21 -41 -71 -36 20 41 72zm-82 -143l35 -21 -41 -71 -36 21 42 71zm-83 -143l36 -20 -42 -72 -35 21 41 71zm-83 -142l36 -21 -41 -71 -36 21 41 71zm-82 -143l35 -20 -41 -72 -36 21 42 71zm-83 -142l36 -21 -42 -71 -35 20 41 72zm-82 -143l35 -20 -41 -72 -36 21 42 71zm-83 -142l36 -21 -42 -71 -35 20 41 72z"/>
     <path class="fil2" d="M2254 8777c-314,553 -627,1107 -941,1661 -51,90 -29,138 67,144 484,81 968,161 1452,242 66,6 104,40 128,88 313,381 625,762 938,1143 54,49 100,35 139,-26 495,-861 991,-1722 1487,-2583 -1090,-223 -2180,-446 -3270,-669z"/>
     <path class="fil1" d="M2457 8870l-36 -21 41 -71 36 21 -41 71zm2853 520l36 21 -41 71 -36 -20 41 -72zm-82 143l36 21 -41 71 -36 -20 41 -72zm-82 143l36 21 -41 71 -36 -21 41 -71zm-82 143l35 20 -41 72 -35 -21 41 -71zm-82 143l35 20 -41 72 -35 -21 41 -71zm-82 143l35 20 -41 72 -36 -21 42 -71zm-83 143l36 20 -41 72 -36 -21 41 -71zm-82 142l36 21 -41 71 -36 -20 41 -72zm-82 143l36 21 -41 71 -36 -20 41 -72zm-82 143l36 21 -41 71 -36 -20 41 -72zm-82 143l36 21 -41 71 -36 -20 41 -72zm-82 143l36 20 -41 72 -36 -21 41 -71zm-82 143l35 20 -41 72 -35 -21 41 -71zm-82 143l35 20 -41 72 -35 -21 41 -71zm-83 143l36 20 -41 72 -36 -21 41 -71zm-82 142l36 21 -41 71 -36 -20 41 -72zm-82 143l36 21 -41 71 -36 -20 41 -72zm-50 120l-31 26 -53 -63 31 -26 53 63zm-105 -127l-32 27 -53 -63 32 -27 53 63zm-106 -126l-32 26 -52 -63 31 -26 53 63zm-106 -127l-31 27 -53 -63 32 -27 52 63zm-105 -126l-32 26 -53 -63 32 -26 53 63zm-106 -127l-32 27 -52 -63 31 -27 53 63zm-106 -126l-31 26 -53 -63 32 -26 52 63zm-105 -127l-32 27 -53 -63 32 -27 53 63zm-106 -126l-31 26 -53 -63 31 -26 53 63zm-105 -127l-6 6 -15 26 -79 -13 7 -41 86 14 7 8zm-175 -35l-6 41 -81 -13 6 -41 81 13zm-162 -26l-7 41 -81 -13 6 -41 82 13zm-163 -26l-7 41 -81 -13 7 -41 81 13zm-163 -26l-6 41 -82 -13 7 -41 81 13zm-163 -26l-6 41 -81 -13 6 -41 81 13zm-162 -26l-7 41 -81 -13 6 -41 82 13zm-163 -26l-6 41 -82 -13 7 -41 81 13zm-163 -26l-6 41 -81 -13 6 -41 81 13zm-134 -2l-36 -20 42 -72 35 21 -41 71zm83 -142l-36 -21 41 -71 36 20 -41 72zm82 -143l-35 -21 41 -71 35 21 -41 71zm83 -143l-36 -20 41 -72 36 21 -41 71zm82 -142l-35 -21 41 -71 36 21 -42 71zm83 -143l-36 -20 42 -72 35 21 -41 71zm83 -142l-36 -21 41 -71 36 20 -41 72zm82 -143l-35 -21 41 -71 36 21 -42 71zm83 -142l-36 -21 42 -71 35 20 -41 72zm83 -143l-36 -21 41 -71 36 21 -41 71zm82 -143l-35 -20 41 -71 35 20 -41 71z"/>
    </g>
    <g>
     <circle class="fil3" cx="4788" cy="4751" r="4751"/>
     <path class="fil4" d="M4788 0c2644,0 4787,2143 4787,4788 0,2644 -2143,4787 -4787,4787 -2645,0 -4788,-2143 -4788,-4787 0,-2645 2143,-4788 4788,-4788zm0 1306c1923,0 3482,1559 3482,3482 0,1923 -1559,3482 -3482,3482 -1923,0 -3482,-1559 -3482,-3482 0,-1923 1559,-3482 3482,-3482z"/>
     <path class="fil5" d="M828 5588c-26,-131 -46,-264 -59,-397 -13,-133 -19,-267 -19,-401 0,-134 6,-268 19,-401 13,-133 33,-266 59,-397 5,-21 -9,-42 -31,-46 -21,-5 -42,9 -46,31 -27,133 -47,268 -60,404 -14,136 -20,273 -20,409 0,137 6,273 20,409 13,136 33,271 60,404 4,22 25,36 46,32 22,-5 36,-26 31,-47z"/>
     <path class="fil6" d="M4788 60c1305,0 2487,529 3343,1385 855,855 1385,2037 1385,3343 0,1305 -530,2487 -1385,3343 -856,855 -2038,1385 -3343,1385 -1306,0 -2488,-530 -3343,-1385 -856,-856 -1385,-2038 -1385,-3343 0,-1306 529,-2488 1385,-3343 855,-856 2037,-1385 3343,-1385zm3314 1414c-848,-848 -2020,-1373 -3314,-1373 -1295,0 -2466,525 -3314,1373 -848,848 -1373,2019 -1373,3314 0,1294 525,2465 1373,3314 848,848 2019,1372 3314,1372 1294,0 2466,-524 3314,-1372 848,-849 1372,-2020 1372,-3314 0,-1295 -524,-2466 -1372,-3314z"/>
     <path class="fil7" d="M4788 131c1286,0 2450,521 3293,1364 842,842 1364,2007 1364,3293 0,1286 -522,2450 -1364,3293 -843,842 -2007,1364 -3293,1364 -1286,0 -2451,-522 -3293,-1364 -843,-843 -1364,-2007 -1364,-3293 0,-1286 521,-2451 1364,-3293 842,-843 2007,-1364 3293,-1364zm3264 1393c-836,-836 -1990,-1352 -3264,-1352 -1275,0 -2429,516 -3264,1352 -836,835 -1352,1989 -1352,3264 0,1274 516,2428 1352,3264 835,835 1989,1352 3264,1352 1274,0 2428,-517 3264,-1352 835,-836 1352,-1990 1352,-3264 0,-1275 -517,-2429 -1352,-3264z"/>
     <path class="fil5" d="M8803 3992c26,131 46,264 59,397 13,133 19,267 19,401 0,134 -6,268 -19,401 -13,134 -33,266 -59,397 -4,21 10,42 31,47 22,4 42,-10 47,-31 26,-134 46,-269 60,-405 13,-136 20,-272 20,-409 0,-136 -7,-273 -20,-409 -14,-136 -34,-271 -60,-404 -5,-22 -25,-36 -47,-31 -21,4 -35,25 -31,46z"/>
     <path class="fil8" d="M803 5586c-26,-132 -46,-264 -59,-397 -13,-133 -20,-267 -20,-401 0,-134 7,-268 20,-402 13,-133 33,-265 59,-396 4,-22 -10,-43 -31,-47 -22,-4 -42,10 -47,31 -26,134 -46,269 -60,405 -13,136 -20,272 -20,409 0,136 7,273 20,409 14,135 34,270 60,404 5,21 25,35 47,31 21,-4 35,-25 31,-46z"/>
     <path class="fil9" d="M8772 3990c27,131 46,263 59,396 14,134 20,268 20,402 0,134 -6,268 -20,401 -13,133 -32,265 -59,397 -4,21 10,42 31,46 22,4 43,-10 47,-31 27,-134 47,-269 60,-404 13,-136 20,-273 20,-409 0,-137 -7,-273 -20,-409 -13,-136 -33,-271 -60,-405 -4,-21 -25,-35 -47,-31 -21,4 -35,25 -31,47z"/>
     <circle class="fil10" cx="4788" cy="4788" r="3485"/>
     <path class="fil11" d="M7664 3663c-15,-38 -74,-29 -74,14 0,5 1,9 3,14 9,23 18,47 26,70 17,45 84,25 73,-22l-1 -4c-9,-24 -18,-48 -27,-72zm-5672 4c6,-17 1,-34 -14,-45 -21,-14 -47,-6 -57,17 -10,24 -19,48 -28,72 -15,39 37,72 66,36 2,-3 4,-6 6,-10 8,-23 17,-46 27,-70zm-119 357c12,-40 -45,-68 -69,-29 -2,4 -3,6 -4,10 -7,25 -13,50 -19,75 -10,46 58,67 74,19 6,-25 12,-50 18,-75zm-72 369c6,-46 -62,-62 -75,-14l-1 4c-3,26 -6,51 -9,77 -1,14 5,27 16,35 23,17 57,1 60,-27 3,-25 6,-50 9,-75zm-26 375c0,-40 -55,-54 -73,-16 -2,6 -3,10 -3,15 0,26 0,52 0,78 2,48 72,50 76,1 1,-26 0,-52 0,-78zm21 375c-6,-47 -76,-44 -76,6 2,26 7,54 11,80 1,8 5,17 12,22 27,24 68,2 63,-33 -4,-25 -7,-50 -10,-75zm68 370c-13,-48 -83,-32 -74,17 6,25 13,51 20,76 11,43 77,34 74,-13 0,-3 0,-5 -1,-8 -7,-24 -13,-48 -19,-72zm113 358c-14,-37 -71,-29 -73,13 0,5 0,10 2,15 10,24 19,48 29,71 8,18 27,28 45,22 22,-6 34,-30 25,-51 -9,-23 -19,-47 -28,-70zm157 342c-22,-41 -84,-14 -70,30 1,2 2,4 3,6 12,23 25,45 37,68 20,35 77,18 71,-26 -1,-5 -2,-8 -5,-12 -12,-19 -25,-46 -36,-66zm198 319c-23,-33 -78,-10 -68,32 1,5 3,8 6,13 15,21 30,41 45,62 28,36 84,2 65,-39 -1,-2 -2,-5 -4,-7 -15,-20 -30,-40 -44,-61zm236 293c-30,-32 -82,3 -62,44 2,3 4,5 6,8 17,18 35,37 53,56 32,32 84,-8 58,-49 -1,-1 -2,-3 -4,-4 -17,-18 -34,-37 -51,-55zm271 260c-25,-22 -66,-1 -63,32 1,11 6,20 14,27 19,16 39,33 59,49 18,14 44,10 56,-10 11,-16 7,-38 -8,-50 -20,-16 -39,-31 -58,-48zm301 225c-16,-11 -37,-8 -49,7 -15,17 -11,45 8,57 21,14 43,27 65,41 35,22 77,-22 49,-58 -3,-3 -6,-5 -9,-7 -22,-13 -43,-26 -64,-40zm327 185c-40,-19 -75,35 -40,64 2,2 5,3 7,5 23,11 47,22 70,32 43,19 75,-39 37,-66 -1,-1 -3,-2 -6,-3 -22,-10 -45,-21 -68,-32zm348 144c-44,-15 -71,46 -31,69 2,1 4,2 6,3 25,8 49,16 74,24 42,13 70,-47 29,-70 -2,-1 -4,-2 -7,-3 -24,-8 -47,-15 -71,-23zm362 99c-39,-9 -65,45 -27,70 4,2 7,3 12,5 25,5 50,10 76,14 44,8 64,-55 20,-73 -2,-1 -5,-1 -7,-2 -24,-4 -49,-9 -74,-14zm372 53c-43,-4 -58,60 -14,75 3,0 6,1 8,1 26,2 52,4 78,5 42,2 56,-57 15,-74 -4,-1 -8,-2 -12,-2 -25,-1 -50,-3 -75,-5zm376 6c-42,2 -50,63 -8,75 4,1 7,1 12,1 26,-1 51,-2 77,-4 46,-4 48,-72 -1,-76 -1,0 -3,0 -5,0 -25,2 -50,3 -75,4zm374 -41c-44,8 -41,74 6,76 2,0 5,0 7,-1 25,-4 51,-9 76,-14 48,-11 35,-81 -14,-75 -25,5 -50,10 -75,14zm366 -87c-46,15 -30,83 18,74 26,-6 53,-16 77,-24 39,-13 33,-72 -11,-74 -5,0 -8,0 -13,2 -24,7 -48,15 -71,22zm352 -131c-39,16 -25,77 20,72 4,0 7,-1 11,-3 23,-10 47,-21 70,-32 8,-4 15,-11 19,-20 13,-33 -21,-64 -52,-49 -23,11 -45,21 -68,32zm333 -175c-39,25 -11,83 32,69 3,-1 5,-2 7,-4 22,-13 44,-26 66,-40 34,-22 15,-76 -27,-70 -5,1 -10,3 -15,6 -21,13 -42,26 -63,39zm308 -214c-32,26 -5,80 38,66 4,-2 6,-4 10,-6 20,-16 40,-32 60,-49 11,-10 16,-25 12,-39 -8,-27 -40,-37 -61,-19 -20,16 -39,32 -59,47zm280 -251c-30,30 7,82 47,59 3,-2 5,-3 7,-6 18,-18 36,-37 54,-55 31,-35 -14,-84 -51,-57 -2,2 -3,3 -5,5 -17,18 -34,36 -52,54zm246 -284c-25,32 13,78 51,55 4,-3 7,-6 10,-9 15,-21 31,-41 46,-62 26,-39 -24,-81 -58,-50 -2,2 -3,4 -4,5 -15,21 -30,41 -45,61zm208 -313c-23,42 36,80 65,41 13,-22 26,-47 39,-70 21,-39 -32,-78 -63,-43 -1,2 -3,4 -4,6 -12,22 -24,44 -37,66zm168 -336c-17,39 36,73 65,38 2,-3 4,-5 5,-9 10,-23 20,-47 30,-71 16,-42 -41,-72 -67,-36 -2,3 -3,5 -4,8 -10,22 -19,47 -29,70zm125 -355c-4,17 2,34 17,43 21,13 50,2 57,-22 7,-25 13,-50 20,-75 10,-37 -39,-65 -67,-33 -3,5 -5,9 -7,15 -6,24 -13,48 -20,72zm80 -367c-5,41 47,60 70,26 3,-4 5,-9 5,-15 4,-25 8,-51 11,-76 6,-43 -54,-61 -73,-20 -1,4 -2,7 -2,10 -4,25 -7,50 -11,75zm34 -374c-2,40 54,54 72,17 3,-6 4,-10 4,-16 0,-25 1,-51 1,-77 0,-39 -53,-53 -72,-16 -3,5 -4,10 -4,16 0,25 -1,50 -1,76zm-14 -376c4,42 68,47 76,2 0,-3 0,-6 0,-10 -2,-25 -5,-51 -8,-76 -6,-46 -74,-44 -76,4 0,2 0,3 0,5 3,25 6,50 8,75zm-60 -371c10,45 79,36 75,-13l-1 -4c-5,-25 -11,-50 -18,-75 -12,-47 -83,-32 -74,17 6,25 13,50 18,75z"/>
     <path class="fil12" d="M4788 1291c965,0 1839,392 2472,1024 633,633 1024,1507 1024,2473 0,965 -391,1839 -1024,2472 -633,633 -1507,1024 -2472,1024 -966,0 -1840,-391 -2473,-1024 -632,-633 -1024,-1507 -1024,-2472 0,-966 392,-1840 1024,-2473 633,-632 1507,-1024 2473,-1024zm0 42c1908,0 3455,1546 3455,3455 0,1908 -1547,3455 -3455,3455 -1908,0 -3455,-1547 -3455,-3455 0,-1909 1547,-3455 3455,-3455z"/>
     <circle class="fil13" cx="4788" cy="4788" r="2689"/>
     <path class="fil14" d="M4788 1291c1929,0 3494,1561 3494,3486 0,14 -1,29 -1,43 -23,-1905 -1578,-3442 -3493,-3442 -1916,0 -3471,1537 -3494,3442 0,-14 0,-29 0,-43 0,-1925 1564,-3486 3494,-3486z"/>
    </g>
   </g>
   <path class="fil15" d="M4788 2101c741,0 1413,301 1899,787 486,486 787,1158 787,1900 0,741 -301,1413 -787,1899 -486,486 -1158,787 -1899,787 -742,0 -1414,-301 -1900,-787 -486,-486 -787,-1158 -787,-1899 0,-742 301,-1414 787,-1900 486,-486 1158,-787 1900,-787zm0 41c1461,0 2645,1185 2645,2646 0,1461 -1184,2645 -2645,2645 -1461,0 -2646,-1184 -2646,-2645 0,-1461 1185,-2646 2646,-2646z"/>
  </g>
  <path class="fil3" d="M4788 1872c1610,0 2915,1306 2915,2916 0,1610 -1305,2915 -2915,2915 -1610,0 -2915,-1305 -2915,-2915 0,-1610 1305,-2916 2915,-2916z"/>
  <path class="fil16" d="M4070 1739c7,1 13,3 16,7 4,4 6,8 7,12 1,5 1,9 0,12 -1,3 -2,7 -3,10 -3,-1 -7,-1 -10,-1 -3,0 -7,0 -11,1 -7,2 -13,6 -18,12 -6,6 -7,14 -5,24 2,8 7,15 13,19 7,5 16,6 26,3 7,-2 15,-5 24,-11 8,-5 19,-14 32,-26l25 -23c5,2 12,5 20,10 8,5 16,12 24,19 7,8 15,18 21,29 7,11 12,24 16,38 4,19 4,37 0,54 -4,17 -12,32 -23,46 -11,13 -24,25 -41,35 -17,9 -36,17 -57,21 -24,6 -47,8 -70,5 -23,-2 -45,-8 -65,-18 -21,-10 -39,-23 -57,-40 -17,-17 -31,-37 -44,-61 -4,-7 -8,-14 -10,-22 -3,-7 -5,-15 -7,-23 -3,-12 -2,-22 4,-30 5,-8 13,-13 23,-15 5,-1 10,-2 14,-1 4,0 8,1 11,2l8 20c9,28 20,51 34,69 13,19 28,33 44,43 16,11 33,17 51,20 17,3 35,2 53,-2 11,-3 21,-6 30,-12 9,-5 17,-12 24,-19 7,-8 11,-17 14,-27 3,-9 3,-20 0,-32 -4,-19 -12,-32 -23,-41 -11,11 -22,20 -33,28 -11,8 -25,14 -43,18 -11,2 -21,3 -32,2 -11,-2 -21,-5 -30,-9 -9,-5 -17,-12 -24,-21 -7,-8 -11,-19 -14,-31 -4,-18 -3,-33 3,-48 7,-14 16,-25 28,-33l-182 42c-7,2 -13,1 -18,-2 -5,-3 -8,-9 -10,-18 -1,-4 -1,-8 -1,-12 0,-5 0,-8 1,-12l422 -97c7,-2 13,-1 18,2 4,2 8,8 10,17 1,4 1,8 1,12 0,5 0,9 -1,12l-185 43zm148 -34c-15,4 -24,-3 -28,-19 -1,-5 -1,-9 -1,-13 0,-4 0,-8 1,-12l62 -14c12,-3 22,-3 32,0 10,2 18,7 24,15 1,-10 5,-18 11,-24 6,-6 14,-10 24,-12l33 -8c7,-1 13,-1 18,2 4,3 8,9 10,17 1,4 1,9 1,13 0,4 0,8 -1,12l-44 10c-8,2 -15,6 -19,11 -3,5 -4,13 -2,23l66 284c-2,1 -6,3 -10,4 -4,2 -9,4 -15,5 -10,3 -19,3 -26,0 -8,-2 -13,-9 -15,-21l-62 -266c-3,-13 -10,-18 -22,-15l-37 8zm336 -44l7 319c-2,1 -5,1 -10,2 -5,1 -10,2 -15,2 -11,0 -20,-2 -27,-5 -6,-4 -10,-12 -10,-24l-7 -292 -42 1c-15,0 -23,-8 -23,-25 0,-4 0,-8 1,-13 1,-4 2,-8 4,-11l54 -1c-4,-5 -8,-12 -11,-21 -3,-8 -5,-17 -5,-28 -1,-16 3,-31 10,-45 7,-13 17,-25 31,-35 14,-10 30,-17 49,-23 20,-6 41,-9 65,-9 22,-1 42,0 61,4 19,3 36,7 51,11 15,5 28,10 39,15 11,6 20,10 26,14 10,7 18,13 21,18 4,6 6,11 6,16 0,8 -2,14 -6,19 -5,5 -10,9 -16,11 -23,-15 -50,-29 -81,-40 -30,-11 -63,-17 -98,-16 -30,1 -53,7 -70,19 -16,12 -25,28 -24,48 0,10 2,18 5,25 3,7 7,12 11,15l59 -1c7,0 12,2 16,5 4,4 6,11 7,19 0,5 -1,9 -1,13 -1,4 -2,8 -4,12l-73 1zm369 -8l7 310c-3,3 -7,6 -13,8 -6,2 -13,3 -21,4 -3,0 -6,-1 -9,-1 -20,-13 -40,-24 -58,-35 -19,-10 -37,-20 -56,-30 -18,-9 -37,-18 -56,-26 -18,-9 -38,-17 -59,-25 -3,-6 -6,-13 -8,-21 -2,-9 -4,-17 -4,-26 0,-2 0,-4 0,-6 0,-3 0,-5 1,-7 5,-3 12,-8 21,-12 9,-5 19,-10 28,-15 10,-5 19,-9 28,-14 9,-4 17,-8 22,-11l-103 -43c-6,-2 -11,-5 -14,-8 -3,-3 -4,-7 -4,-13 0,-4 0,-8 2,-12 1,-4 3,-7 5,-10l-22 0c-15,0 -23,-8 -23,-25 0,-4 0,-8 1,-12 1,-5 2,-8 3,-11l387 -10c14,0 22,8 22,25 0,4 0,8 -1,12 -1,5 -2,8 -3,12l-73 2zm-52 250c0,-6 -1,-13 -2,-20 -1,-8 -1,-15 -2,-23 0,-8 -1,-15 -1,-22 -1,-8 -1,-14 -1,-19l0 -22 -61 -28c-6,4 -13,8 -21,13 -9,5 -17,9 -25,14 -9,5 -17,9 -24,13 -8,5 -15,9 -19,12 23,10 49,22 77,37 28,14 54,29 79,45zm-195 -244c7,2 18,7 34,14 15,7 32,14 50,23 19,8 37,17 56,25 18,8 34,16 47,21l-2 -88 -185 5zm509 138c1,2 2,5 3,10 1,4 0,9 0,14 -2,9 -7,17 -15,22 -8,5 -20,7 -36,4 -12,-2 -24,-7 -36,-13 -11,-7 -21,-16 -30,-27 -9,-11 -15,-24 -19,-39 -4,-15 -4,-32 -1,-52 4,-18 10,-34 19,-47 9,-14 20,-24 33,-32 12,-7 26,-13 41,-15 15,-2 30,-2 44,0 22,4 40,11 54,23 14,11 24,22 31,34 3,-9 9,-17 18,-22 8,-5 19,-7 32,-5l64 12c15,2 21,12 18,28 -1,4 -2,8 -4,12 -2,4 -4,8 -6,11l-71 -13 -55 309c-2,0 -6,0 -11,0 -4,0 -9,-1 -15,-2 -11,-2 -19,-5 -25,-10 -5,-5 -7,-13 -5,-25l41 -231c-2,-7 -5,-14 -9,-22 -4,-7 -9,-13 -15,-19 -5,-6 -12,-11 -19,-15 -8,-5 -16,-7 -25,-9 -17,-3 -32,0 -45,8 -13,9 -22,23 -25,42 -3,18 0,33 10,45 10,13 23,21 40,24 5,1 9,1 12,1 2,-1 5,-1 7,-1zm294 -67l-56 313c-2,1 -6,1 -10,1 -5,0 -10,-1 -16,-2 -10,-2 -19,-5 -24,-10 -6,-5 -8,-13 -6,-25l51 -288 -56 -10c-14,-2 -20,-12 -17,-29 0,-4 2,-8 3,-12 2,-4 4,-7 6,-10l66 12c-5,-25 -13,-46 -24,-65 -11,-19 -23,-35 -38,-48 -15,-13 -32,-24 -50,-32 -18,-9 -37,-15 -57,-18 -15,-3 -28,-4 -40,-4 -11,0 -21,1 -29,3 -8,2 -14,5 -19,9 -4,3 -7,7 -8,11 -1,9 5,14 19,17l120 21c16,3 22,13 18,30 0,4 -1,8 -3,11 -1,3 -3,6 -5,8l-152 -27c-23,-4 -39,-12 -49,-24 -10,-11 -14,-26 -11,-43 2,-12 8,-22 17,-32 10,-9 22,-17 37,-23 15,-5 32,-9 52,-10 20,-2 41,0 64,4 31,5 59,15 84,28 25,13 47,29 66,49 18,19 33,41 45,66 11,24 19,51 24,79l62 11c7,2 12,4 15,9 4,4 4,11 3,20 -1,4 -2,8 -4,12 -2,4 -4,7 -5,11l-73 -13z"/>
  <path class="fil17" d="M3805 779l-1 0 -64 18 145 512c-3,7 -9,13 -18,19 -9,6 -20,12 -33,15 -6,2 -11,3 -16,3 -39,-13 -75,-24 -111,-33 -35,-10 -70,-18 -105,-26 -34,-7 -69,-14 -104,-20 -35,-6 -71,-11 -109,-15 -8,-8 -16,-19 -23,-32 -7,-13 -13,-27 -17,-41 -1,-3 -2,-7 -3,-11 -1,-4 -2,-7 -2,-10 8,-9 18,-19 31,-31 13,-12 26,-24 40,-36 13,-12 27,-24 40,-35 13,-11 24,-21 32,-28l-189 -27c-12,-1 -21,-4 -27,-7 -6,-4 -10,-10 -13,-20 -2,-7 -3,-14 -2,-21 1,-7 2,-13 4,-19l-36 10c-25,7 -41,-3 -49,-31 -2,-7 -3,-14 -4,-22 0,-7 0,-14 1,-20l581 -165 0 0 56 -16 50 -14c20,-5 38,-6 55,-3 17,3 31,11 42,24 1,-17 6,-31 17,-42 10,-10 23,-18 39,-22l57 -16c12,-4 21,-3 30,1 8,5 15,14 19,29 2,7 3,14 3,22 1,7 0,14 0,20l-76 22c-14,4 -24,10 -30,19 -6,9 -7,22 -2,40l136 480c-3,3 -8,6 -16,9 -7,4 -15,7 -25,9 -17,5 -33,6 -45,3 -13,-3 -22,-15 -27,-34l-129 -452c-6,-22 -19,-30 -39,-24l-7 2 -56 16zm3251 560l-29 46c29,20 55,43 76,67 22,24 38,49 48,75 11,26 16,52 15,79 -2,26 -10,52 -26,77 -13,20 -28,36 -45,48 -16,11 -33,18 -50,22 -17,3 -34,4 -50,0 -16,-3 -31,-9 -44,-18 -18,-11 -28,-24 -32,-39 -3,-15 0,-29 9,-44 7,-11 15,-19 23,-23l14 8c15,10 31,14 46,11 15,-3 28,-12 39,-28 14,-23 15,-48 3,-75 -13,-28 -38,-56 -75,-85l-209 327c-16,3 -36,-3 -60,-17 -2,-2 -5,-4 -6,-5 -2,-2 -4,-4 -6,-6 -12,-37 -25,-71 -37,-104 -13,-33 -27,-65 -41,-95 -14,-31 -29,-62 -45,-92 -16,-30 -33,-61 -52,-93 0,-12 3,-25 8,-39 6,-14 12,-28 21,-41 1,-2 3,-5 5,-8 2,-3 4,-6 7,-9 29,-1 60,-1 92,0 32,2 65,5 98,9 33,4 65,10 97,16 31,7 61,15 89,24l29 -45 -309 -198c-10,-6 -16,-14 -18,-24 -2,-9 1,-20 9,-33 4,-6 9,-12 14,-17 6,-5 11,-9 15,-12l673 431c10,6 16,14 18,23 3,9 0,20 -9,33 -4,6 -8,12 -13,17 -6,5 -11,10 -17,13l-275 -176zm-2019 -669l-13 537c-4,1 -10,2 -18,3 -8,0 -17,1 -26,1 -19,-1 -34,-5 -45,-12 -11,-6 -16,-20 -16,-39l6 -235c-10,-6 -24,-9 -44,-10 -28,0 -63,16 -105,50 -36,28 -67,48 -94,60 -27,13 -54,18 -81,18l-4 0c-20,-1 -35,-6 -46,-15 -11,-10 -17,-23 -16,-40 0,-15 4,-29 11,-42l35 1c32,1 59,-7 80,-22 22,-16 33,-39 33,-69 1,-24 -5,-46 -18,-64 -12,-19 -33,-36 -63,-52l-36 -18c-8,-5 -15,-10 -19,-15 -4,-5 -6,-13 -6,-23 1,-9 3,-18 9,-26l-51 -1c-26,-1 -39,-16 -38,-45 0,-7 1,-14 3,-22 2,-7 4,-13 7,-18l653 16c26,1 39,16 38,44 0,7 -1,14 -3,22 -2,7 -4,13 -7,19l-126 -3zm-154 149c10,1 19,2 26,3 7,2 13,3 19,5l4 -160 -257 -6c13,7 27,16 41,27 14,11 26,25 38,40 11,16 20,33 27,52 7,19 10,39 10,62l0 7c13,-9 27,-16 43,-22 16,-6 32,-8 49,-8zm856 -50l-94 528c-4,1 -10,1 -18,0 -8,0 -17,-1 -26,-3 -19,-3 -33,-9 -43,-17 -10,-9 -13,-23 -9,-42l22 -126c-8,-17 -17,-34 -28,-50 -10,-16 -23,-30 -36,-43 -14,-12 -28,-23 -44,-32 -15,-8 -31,-14 -48,-17 -28,-5 -50,-3 -65,8 -16,10 -25,24 -29,41 -3,18 1,33 12,46 11,12 27,20 47,24 13,2 25,3 34,2 10,-1 19,-3 27,-5 10,14 14,31 10,50 -2,16 -12,27 -30,35 -17,8 -41,9 -73,4 -23,-4 -43,-11 -62,-21 -18,-10 -33,-23 -45,-38 -12,-14 -21,-32 -26,-51 -5,-19 -6,-40 -2,-63 5,-27 15,-49 29,-67 15,-17 31,-30 50,-39 -7,-13 -13,-29 -18,-49 -4,-19 -5,-42 0,-67 3,-18 8,-34 14,-48 7,-15 15,-27 24,-37l-97 -17c-26,-5 -36,-21 -31,-50 2,-7 4,-14 7,-21 3,-6 6,-12 9,-17l649 116c25,4 35,20 30,48 -1,8 -3,15 -6,21 -3,7 -6,13 -10,19l-124 -22zm-308 106c36,7 69,21 97,42 28,22 50,44 66,67l41 -234 -213 -38c-9,8 -17,20 -23,34 -6,13 -11,29 -14,46 -6,30 -4,56 5,80 11,-1 25,0 41,3zm1159 98c24,10 30,27 20,54 -3,6 -6,13 -10,19 -5,6 -9,12 -14,16l-116 -46 -195 495c-15,7 -36,5 -61,-5 -5,-2 -10,-4 -14,-8 -25,-37 -50,-72 -74,-104 -24,-32 -49,-62 -74,-92 -25,-30 -52,-59 -79,-87 -28,-28 -57,-57 -89,-87 -1,-8 0,-18 2,-30 2,-13 5,-26 11,-39 2,-7 5,-13 9,-19 3,-6 7,-11 9,-15l63 16c57,15 101,16 133,4 32,-12 54,-33 66,-64 11,-26 11,-48 2,-65 -9,-17 -22,-29 -40,-36 -18,-7 -36,-7 -53,0 -16,7 -29,20 -37,40 -4,11 -6,20 -7,28 0,8 0,16 1,23 -16,12 -36,14 -58,5 -16,-7 -28,-19 -37,-37 -8,-18 -7,-41 4,-68 8,-20 19,-37 33,-51 15,-14 32,-25 51,-32 19,-7 40,-10 62,-9 23,1 46,7 70,16 24,10 45,22 63,38 18,15 32,33 41,53 9,20 14,42 14,65 1,23 -4,47 -13,71 -19,46 -50,78 -94,97 -44,18 -96,22 -157,12 19,18 37,37 56,58 19,21 37,42 55,64 18,21 34,42 49,63 16,20 29,39 42,57 2,-9 5,-20 9,-32 4,-12 8,-25 13,-38 4,-12 8,-25 12,-36 5,-11 8,-21 11,-29l105 -266c8,-20 20,-34 38,-44 17,-10 38,-10 63,0l115 45zm103 -266c12,5 21,13 27,24 6,11 7,23 2,35 -4,12 -18,22 -41,31 -9,3 -23,9 -41,16 -18,7 -38,15 -60,22 -21,8 -42,16 -62,23 -20,6 -36,12 -48,15 -17,-7 -29,-18 -35,-33 -7,-15 -8,-30 -2,-45 3,-6 5,-10 7,-13 14,-5 33,-11 55,-18 23,-7 47,-14 71,-21 24,-7 48,-14 71,-20 22,-7 41,-12 56,-16zm192 703c-40,-12 -82,-21 -127,-27 -44,-6 -85,-9 -123,-8 25,48 47,95 67,142 20,47 36,86 47,118 4,-8 9,-18 15,-29 6,-11 12,-22 19,-33 6,-11 12,-22 19,-33 6,-10 11,-19 16,-26l67 -104zm-4268 -135c12,-2 21,-1 29,3 8,5 14,10 17,16 5,8 7,14 7,20 0,6 0,12 -1,18 -5,1 -11,2 -16,3 -5,2 -11,5 -18,9 -10,6 -19,15 -24,27 -6,13 -5,27 4,42 8,13 18,21 32,25 13,4 28,1 43,-8 12,-6 23,-16 34,-29 11,-14 24,-33 40,-60l28 -50c11,0 24,3 39,7 15,4 31,11 48,20 17,9 34,20 50,35 17,15 32,34 44,56 17,28 26,58 27,88 2,29 -3,58 -14,86 -11,28 -28,54 -50,78 -23,24 -50,46 -82,64 -36,21 -74,35 -113,43 -39,7 -78,8 -116,3 -38,-6 -76,-19 -112,-38 -37,-19 -71,-45 -104,-77 -10,-10 -19,-21 -27,-32 -9,-11 -16,-22 -23,-34 -11,-19 -14,-36 -9,-51 5,-16 15,-28 30,-37 9,-5 17,-8 24,-9 7,-1 13,-2 19,-2l22 30c29,41 59,73 90,96 31,24 63,40 94,49 31,9 62,11 93,7 31,-5 59,-14 86,-30 17,-9 31,-21 44,-34 13,-14 23,-28 30,-44 7,-16 10,-33 10,-50 -1,-18 -6,-36 -16,-53 -17,-29 -36,-48 -59,-57 -13,24 -26,45 -41,63 -14,18 -34,35 -60,50 -17,10 -34,16 -53,20 -18,3 -36,3 -53,0 -18,-4 -34,-11 -49,-22 -16,-11 -29,-26 -40,-44 -15,-27 -21,-53 -17,-80 3,-26 13,-49 29,-69l-279 161c-10,5 -20,7 -29,5 -10,-3 -18,-11 -26,-24 -3,-6 -6,-13 -8,-20 -2,-7 -4,-14 -4,-20l587 -337 57 -33 1 0 0 -1 1 0 36 -21c18,-10 35,-15 53,-16 17,-1 33,3 47,13 -4,-17 -2,-32 5,-45 8,-12 19,-23 33,-31l52 -30c10,-6 20,-7 29,-5 9,2 18,10 25,23 4,6 7,13 9,20 2,7 3,14 4,20l-68 39c-12,8 -20,16 -24,27 -4,10 -2,23 7,39l249 433c-2,3 -7,7 -13,12 -6,5 -14,10 -22,15 -16,9 -31,14 -44,14 -13,0 -24,-9 -35,-27l-234 -407c-11,-19 -25,-24 -43,-14l-1 0 -56 33 -1 1 -224 128zm1144 -41c-3,-9 -7,-20 -11,-32 -5,-12 -9,-24 -13,-37 -5,-12 -8,-24 -12,-36 -4,-12 -7,-22 -9,-31l-11 -37 -111 -20c-9,9 -20,19 -31,31 -12,11 -23,23 -35,34 -12,11 -24,22 -35,33 -11,10 -20,19 -26,27 43,7 91,16 144,28 53,12 103,25 150,40zm-428 -321c13,2 34,5 62,10 28,4 60,10 94,16 34,6 68,12 103,18 34,6 63,11 88,15l-42 -146 -305 87z"/>
  <path class="fil18" d="M3805 751l-1 0 -64 18 145 512c-3,7 -9,13 -18,19 -9,6 -20,11 -33,15 -6,2 -11,3 -16,3 -39,-13 -75,-24 -111,-33 -35,-10 -70,-18 -105,-26 -34,-7 -69,-14 -104,-20 -35,-6 -71,-11 -109,-15 -8,-8 -16,-19 -23,-32 -7,-13 -13,-27 -17,-41 -1,-3 -2,-7 -3,-11 -1,-4 -2,-7 -2,-10 8,-9 18,-19 31,-31 13,-12 26,-24 40,-36 13,-12 27,-24 40,-35 13,-11 24,-21 32,-28l-189 -27c-12,-1 -21,-4 -27,-7 -6,-4 -10,-10 -13,-20 -2,-7 -3,-14 -2,-21 1,-7 2,-13 4,-19l-36 10c-25,7 -41,-3 -49,-31 -2,-7 -3,-14 -4,-22 0,-7 0,-14 1,-20l581 -165 0 0 56 -16 50 -14c20,-5 38,-6 55,-3 17,3 31,11 42,24 1,-17 6,-31 17,-42 10,-10 23,-18 39,-22l57 -16c12,-4 21,-3 30,1 8,5 15,14 19,29 2,7 3,14 3,21 1,8 0,15 0,21l-76 22c-14,4 -24,10 -30,19 -6,9 -7,22 -2,40l136 480c-3,3 -8,6 -16,9 -7,4 -15,7 -25,9 -17,5 -33,6 -45,3 -13,-3 -22,-15 -27,-34l-129 -452c-6,-22 -19,-30 -39,-24l-7 2 -56 16zm3251 560l-29 46c29,20 55,43 76,67 22,24 38,49 48,75 11,26 16,52 15,79 -2,26 -10,52 -26,77 -13,20 -28,36 -45,48 -16,11 -33,18 -50,22 -17,3 -34,4 -50,0 -16,-3 -31,-9 -44,-18 -18,-11 -28,-24 -32,-39 -3,-15 0,-29 9,-44 7,-11 15,-19 23,-23l14 8c15,10 31,14 46,11 15,-3 28,-12 39,-28 14,-23 15,-48 3,-75 -13,-28 -38,-56 -75,-85l-209 327c-16,3 -36,-3 -60,-17 -2,-2 -5,-4 -6,-5 -2,-2 -4,-4 -6,-6 -12,-37 -25,-71 -37,-104 -13,-33 -27,-65 -41,-95 -14,-31 -29,-62 -45,-92 -16,-30 -33,-61 -52,-93 0,-12 3,-25 8,-39 6,-14 12,-28 21,-41 1,-2 3,-5 5,-8 2,-3 4,-6 7,-9 29,-1 60,-1 92,0 32,2 65,5 98,9 33,4 65,10 97,16 31,7 61,15 89,24l29 -45 -309 -198c-10,-6 -16,-14 -18,-24 -2,-9 1,-20 9,-33 4,-6 9,-12 14,-17 6,-5 11,-9 15,-13l673 432c10,6 16,14 18,23 3,9 0,20 -9,33 -4,6 -8,12 -13,17 -6,5 -11,10 -17,13l-275 -176zm-2019 -669l-13 537c-4,1 -10,2 -18,3 -8,0 -17,1 -26,0 -19,0 -34,-4 -45,-11 -11,-6 -16,-20 -16,-40l6 -234c-10,-6 -24,-9 -44,-10 -28,0 -63,16 -105,50 -36,28 -67,48 -94,60 -27,13 -54,18 -81,18l-4 0c-20,-1 -35,-6 -46,-15 -11,-10 -17,-23 -16,-40 0,-15 4,-29 11,-42l35 1c32,1 59,-7 80,-22 22,-16 33,-39 33,-69 1,-24 -5,-46 -18,-64 -12,-19 -33,-36 -63,-52l-36 -18c-8,-5 -15,-10 -19,-15 -4,-5 -6,-13 -6,-23 1,-9 3,-18 9,-26l-51 -1c-26,-1 -39,-16 -38,-45 0,-7 1,-14 3,-22 2,-7 4,-13 7,-18l653 16c26,1 39,16 38,44 0,7 -1,14 -3,22 -2,7 -4,13 -7,19l-126 -3zm-154 149c10,1 19,1 26,3 7,1 13,3 19,5l4 -160 -257 -6c13,7 27,16 41,27 14,11 26,25 38,40 11,16 20,33 27,52 7,19 10,39 10,62l0 7c13,-9 27,-16 43,-22 16,-6 32,-8 49,-8zm856 -50l-94 528c-4,1 -10,1 -18,0 -8,0 -17,-1 -26,-3 -19,-3 -33,-9 -43,-17 -10,-9 -13,-23 -9,-42l22 -126c-8,-17 -17,-34 -28,-50 -10,-16 -23,-30 -36,-43 -14,-12 -28,-23 -44,-32 -15,-8 -31,-14 -48,-17 -28,-5 -50,-3 -65,8 -16,10 -25,24 -29,41 -3,18 1,33 12,46 11,12 27,20 47,24 13,2 25,3 34,2 10,-1 19,-3 27,-5 10,14 14,31 10,50 -2,16 -12,27 -30,35 -17,8 -41,9 -73,4 -23,-4 -43,-11 -62,-21 -18,-10 -33,-23 -45,-38 -12,-14 -21,-32 -26,-51 -5,-19 -6,-40 -2,-63 5,-27 15,-49 29,-67 15,-17 31,-30 50,-39 -7,-13 -13,-29 -18,-49 -4,-19 -5,-42 0,-67 3,-18 8,-34 14,-48 7,-15 15,-27 24,-37l-97 -17c-26,-5 -36,-21 -31,-50 2,-7 4,-14 7,-21 3,-7 6,-12 9,-17l649 116c25,4 35,20 30,48 -1,8 -3,15 -6,21 -3,7 -6,13 -10,19l-124 -22zm-308 106c36,7 69,21 97,42 28,22 50,44 66,67l41 -234 -213 -38c-9,8 -17,20 -23,33 -6,14 -11,30 -14,47 -6,30 -4,56 5,80 11,-1 25,0 41,3zm1159 98c24,10 30,27 20,54 -3,6 -6,13 -10,19 -5,6 -9,12 -14,16l-116 -46 -195 495c-15,7 -36,5 -61,-5 -5,-2 -10,-5 -14,-8 -25,-37 -50,-72 -74,-104 -24,-32 -49,-62 -74,-92 -25,-30 -52,-59 -79,-87 -28,-28 -57,-57 -89,-87 -1,-8 0,-18 2,-30 2,-13 5,-26 11,-39 2,-7 5,-13 9,-19 3,-6 7,-11 9,-15l63 16c57,15 101,16 133,4 32,-12 54,-33 66,-64 11,-26 11,-48 2,-65 -9,-17 -22,-29 -40,-36 -18,-7 -36,-7 -53,0 -16,7 -29,20 -37,40 -4,11 -6,20 -7,28 0,8 0,16 1,23 -16,12 -36,14 -58,5 -16,-7 -28,-19 -37,-37 -8,-18 -7,-41 4,-68 8,-20 19,-37 33,-51 15,-14 32,-25 51,-32 19,-7 40,-10 62,-9 23,1 46,7 70,16 24,10 45,22 63,38 18,15 32,33 41,53 9,20 14,42 14,65 1,23 -4,47 -13,71 -19,46 -50,78 -94,97 -44,18 -96,22 -157,12 19,18 37,37 56,58 19,21 37,42 55,64 18,21 34,42 49,63 16,20 29,39 42,57 2,-9 5,-20 9,-32 4,-12 8,-25 13,-38 4,-12 8,-25 12,-36 5,-11 8,-21 11,-29l105 -266c8,-20 20,-34 38,-44 17,-10 38,-10 63,0l115 45zm103 -266c12,5 21,13 27,24 6,11 7,23 2,35 -4,12 -18,22 -41,31 -9,3 -23,9 -41,16 -18,7 -38,15 -60,22 -21,8 -42,16 -62,23 -20,6 -36,11 -48,15 -17,-7 -29,-18 -35,-33 -7,-15 -8,-30 -2,-45 3,-6 5,-10 7,-13 14,-5 33,-11 55,-18 23,-7 47,-14 71,-21 24,-7 48,-14 71,-20 22,-7 41,-12 56,-16zm192 703c-40,-12 -82,-21 -127,-27 -44,-6 -85,-9 -123,-8 25,48 47,95 67,142 20,47 36,86 47,118 4,-8 9,-18 15,-29 6,-11 12,-22 19,-33 6,-11 12,-22 19,-33 6,-10 11,-19 16,-26l67 -104zm-4268 -135c12,-2 21,-1 29,3 8,5 14,10 17,16 5,7 7,14 7,20 0,6 0,12 -1,18 -5,1 -11,2 -16,3 -5,2 -11,5 -18,9 -10,5 -19,15 -24,27 -6,13 -5,26 4,42 8,13 18,21 32,25 13,4 28,1 43,-8 12,-6 23,-16 34,-29 11,-14 24,-33 40,-60l28 -50c11,0 24,3 39,7 15,4 31,11 48,20 17,9 34,20 50,35 17,15 32,34 44,56 17,28 26,58 27,88 2,29 -3,58 -14,86 -11,28 -28,54 -50,78 -23,24 -50,46 -82,64 -36,21 -74,35 -113,43 -39,7 -78,8 -116,3 -38,-6 -76,-19 -112,-38 -37,-19 -71,-45 -104,-77 -10,-10 -19,-21 -27,-32 -9,-11 -16,-22 -23,-34 -11,-19 -14,-36 -9,-51 5,-16 15,-28 30,-37 9,-5 17,-8 24,-9 7,-1 13,-2 19,-2l22 30c29,41 59,73 90,96 31,24 63,40 94,49 31,9 62,11 93,7 31,-5 59,-15 86,-30 17,-9 31,-21 44,-34 13,-14 23,-28 30,-44 7,-16 10,-33 10,-50 -1,-18 -6,-36 -16,-53 -17,-29 -36,-48 -59,-57 -13,24 -26,45 -41,63 -14,18 -34,35 -60,50 -17,10 -34,16 -53,20 -18,3 -36,3 -53,0 -18,-4 -34,-11 -49,-22 -16,-11 -29,-26 -40,-44 -15,-27 -21,-53 -17,-80 3,-26 13,-49 29,-69l-279 161c-10,5 -20,7 -29,5 -10,-3 -18,-11 -26,-24 -3,-6 -6,-13 -8,-20 -2,-7 -4,-14 -4,-20l587 -337 57 -33 1 0 0 -1 1 0 36 -21c18,-10 35,-16 53,-16 17,-1 33,3 47,13 -4,-17 -2,-32 5,-45 8,-12 19,-23 33,-31l52 -30c10,-6 20,-7 29,-5 9,2 18,10 25,23 4,6 7,13 9,20 2,7 3,14 4,20l-68 39c-12,8 -20,16 -24,27 -4,10 -2,23 7,39l249 433c-2,3 -7,7 -13,12 -6,5 -14,10 -22,15 -16,9 -31,14 -44,14 -13,0 -24,-9 -35,-27l-234 -407c-11,-19 -25,-24 -43,-14l-1 0 -56 33 -1 1 -224 128zm1144 -41c-3,-9 -7,-20 -11,-32 -5,-12 -9,-24 -13,-37 -5,-12 -8,-25 -12,-36 -4,-12 -7,-23 -9,-31l-11 -37 -111 -20c-9,9 -20,19 -31,31 -12,11 -23,23 -35,34 -12,11 -24,22 -35,33 -11,10 -20,19 -26,27 43,7 91,16 144,28 53,11 103,25 150,40zm-428 -321c13,2 34,5 62,10 28,4 60,10 94,16 34,6 68,12 103,18 34,6 63,11 88,15l-42 -146 -305 87z"/>
  <path class="fil19" d="M3747 795l138 486c-1,3 -3,5 -5,8l-140 -492 7 -2zm-398 357l0 -1c-1,-3 -2,-7 -3,-11 -1,-4 -2,-7 -2,-10 8,-9 18,-19 31,-31 13,-12 26,-24 40,-36 13,-12 27,-24 40,-35l5 -4 27 4c-8,7 -19,17 -32,28 -13,11 -27,23 -40,35 -14,12 -27,24 -40,36 -10,10 -19,18 -26,25zm-92 -208c0,-3 -1,-6 -1,-9l4 -1c-1,3 -2,7 -3,10zm-85 -72c0,-3 -1,-6 -1,-9 0,-7 0,-14 1,-20l581 -165 0 0 56 -16 50 -14c20,-5 38,-6 55,-3 17,3 31,11 42,24 1,-17 6,-31 17,-42 10,-10 23,-18 39,-22l57 -16c12,-4 21,-3 30,1 8,5 15,14 19,29 2,7 3,14 3,21 1,8 1,15 0,21 -1,-5 -2,-10 -3,-14 -4,-15 -11,-24 -19,-29 -9,-4 -18,-5 -30,-1l-57 16c-16,4 -29,12 -39,22 -11,11 -16,25 -17,42 -11,-13 -25,-21 -42,-24 -17,-3 -35,-2 -55,3l-50 14 -56 16 0 0 -581 165 0 1zm840 -135l1 5 136 480c-1,2 -4,3 -6,5l-130 -457c-4,-14 -4,-25 -1,-33zm3027 628c25,19 46,38 64,59 22,24 38,49 48,75 11,26 16,52 15,79l-1 6c-1,-19 -6,-38 -14,-57 -10,-26 -26,-51 -48,-75 -21,-24 -47,-47 -76,-67l12 -20zm-119 305l-1 -2c-3,-15 0,-29 9,-44 7,-11 15,-19 23,-23l14 8c15,10 31,14 46,11 15,-3 28,-12 39,-28 5,-8 8,-16 10,-25 4,19 0,37 -10,53 -11,16 -24,25 -39,28 -15,3 -31,-1 -46,-11l-14 -8c-8,4 -16,12 -23,23 -4,6 -7,12 -8,18zm-395 -318l-3 -5c0,-12 3,-25 8,-39 6,-14 12,-28 21,-41 1,-2 3,-5 5,-8 2,-3 4,-6 7,-9 29,-1 60,-1 92,0 32,2 65,5 98,9 33,4 65,10 97,16 31,7 61,15 89,24l16 -25 13 8 -29 45c-28,-9 -58,-17 -89,-24 -32,-6 -64,-12 -97,-16 -33,-4 -66,-7 -98,-9 -32,-1 -63,-1 -92,0 -3,3 -5,6 -7,9 -2,3 -4,6 -5,8 -9,13 -15,27 -21,41 -2,6 -3,11 -5,16zm118 -312c-1,-3 -2,-5 -2,-8 -2,-9 1,-20 9,-33 4,-6 9,-12 14,-17 6,-5 11,-9 15,-13l673 432c10,6 16,14 18,23 2,6 1,13 -2,21 -3,-6 -9,-12 -16,-16l-673 -431c-4,3 -9,7 -15,12 -5,5 -10,11 -14,17 -3,4 -5,8 -7,13zm-1723 103c-1,-4 -1,-7 -1,-12l5 -206 1 0 -5 218zm-384 -169c-1,-4 -1,-9 -1,-14 0,-15 4,-29 11,-42l35 1c32,1 59,-7 80,-22 19,-14 30,-34 33,-58 0,5 1,11 0,17 0,30 -11,53 -33,69 -21,15 -48,23 -80,22l-35 -1c-5,9 -8,19 -10,28zm18 -302c-1,-4 -2,-9 -2,-14l9 0c-3,4 -5,9 -7,14zm-81 -72c-1,-5 -1,-10 -1,-16 0,-7 1,-14 3,-22 2,-7 4,-13 7,-18l653 16c26,1 39,16 38,44 0,4 -1,8 -1,13 -4,-19 -16,-28 -37,-29l-653 -16c-3,5 -5,11 -7,18 -1,4 -1,7 -2,10zm410 191c10,1 19,1 26,3 7,1 13,3 19,5l3 -132 1 0 -4 160c-6,-2 -12,-3 -19,-5 -7,-1 -16,-2 -26,-3 -17,0 -33,2 -49,8 -16,6 -30,13 -43,22l0 -7c0,-23 -3,-43 -10,-62 -7,-19 -16,-36 -27,-52 -12,-15 -24,-29 -38,-40 -14,-11 -28,-20 -41,-27l43 1c13,11 25,23 36,38 11,16 20,33 27,52 7,19 10,39 10,62l0 7c13,-9 27,-16 43,-22 16,-6 32,-8 49,-8zm666 442c-2,-7 -2,-16 0,-26l18 -106 4 8 -22 124zm-227 -220c2,8 6,14 11,21 11,12 27,20 47,24 13,2 25,3 34,2 10,-1 19,-3 27,-5 10,14 14,31 10,50l0 1c-2,-8 -5,-16 -10,-23 -8,2 -17,4 -27,5 -9,1 -21,0 -34,-2 -20,-4 -36,-12 -47,-24 -11,-13 -15,-28 -12,-46l1 -3zm-111 1c-1,-14 -1,-28 2,-43 5,-27 15,-49 29,-67 12,-14 25,-25 40,-34 3,9 7,16 10,23 -19,9 -35,22 -50,39 -14,18 -24,40 -29,67 -1,5 -1,10 -2,15zm60 -217c-1,-15 0,-31 3,-48 3,-18 8,-34 14,-48 2,-4 4,-8 6,-12l18 3c-9,10 -17,22 -24,37 -6,14 -11,30 -14,48 -1,7 -2,14 -3,20zm-86 -174c-2,-7 -2,-15 -1,-26 2,-7 4,-14 7,-21 3,-7 6,-12 9,-17l649 116c25,4 35,20 30,48l0 3c-4,-13 -14,-20 -30,-23l-649 -116c-3,5 -6,11 -9,17 -3,7 -5,13 -6,19zm246 224c36,7 69,21 97,42 28,22 50,44 66,67l36 -207 5 1 -41 234c-16,-23 -38,-45 -66,-67 -28,-21 -61,-35 -97,-42 -16,-3 -30,-4 -41,-3 -7,-19 -10,-39 -8,-61 1,11 4,22 8,33 11,-1 25,0 41,3zm1159 98c22,9 29,24 22,47 -3,-8 -11,-14 -22,-19l-115 -45c-25,-10 -46,-10 -63,0 -18,10 -30,24 -38,44l-105 266c-3,8 -6,18 -11,29 -4,11 -8,24 -12,36 -5,13 -9,26 -13,38 -4,12 -7,23 -9,32 -13,-18 -26,-37 -42,-57 -15,-21 -31,-42 -49,-63 -18,-22 -36,-43 -55,-64 -19,-21 -37,-40 -56,-58 11,2 22,3 32,4 8,8 16,17 24,26 19,21 37,42 55,64 18,21 34,42 49,63 16,20 29,39 42,57 2,-9 5,-20 9,-32 4,-12 8,-25 13,-38 4,-12 8,-25 12,-36 5,-11 8,-21 11,-29l105 -266c8,-20 20,-34 38,-44 17,-10 38,-10 63,0l115 45zm-705 156l-1 -1c-1,-8 0,-18 2,-30 2,-13 5,-26 11,-39 2,-7 5,-13 9,-19 3,-6 7,-11 9,-15l63 16c57,15 101,16 133,4 32,-12 54,-33 66,-64 4,-9 6,-16 7,-23 3,14 1,31 -7,51 -12,31 -34,52 -66,64 -32,12 -76,11 -133,-4l-63 -16c-2,4 -6,9 -9,15 -4,6 -7,12 -9,19 -6,13 -9,26 -11,39l-1 3zm158 -158l0 0 0 0 0 0zm-99 -45c-3,-16 -1,-34 8,-55 8,-20 19,-37 33,-51 15,-14 32,-25 51,-32 19,-7 40,-10 62,-9 23,1 46,7 70,16 24,10 45,22 63,38 18,15 32,33 41,53 9,20 14,42 14,65 0,5 0,11 0,16 -2,-19 -6,-36 -14,-53 -9,-20 -23,-38 -41,-53 -18,-16 -39,-28 -63,-38 -24,-9 -47,-15 -70,-16 -22,-1 -43,2 -62,9 -19,7 -36,18 -51,32 -14,14 -25,31 -33,51 -4,10 -7,18 -8,27zm749 -219c12,5 21,13 27,24 6,11 7,22 3,33 -1,-1 -2,-3 -3,-5 -6,-11 -15,-19 -27,-24 -15,4 -34,9 -56,16 -23,6 -47,13 -71,20 -24,7 -48,14 -71,21 -22,7 -41,13 -55,18 -2,3 -4,7 -7,13 -1,3 -1,5 -2,7 -3,-12 -2,-23 2,-35 3,-6 5,-10 7,-13 14,-5 33,-11 55,-18 23,-7 47,-14 71,-21 24,-7 48,-14 71,-20 22,-7 41,-12 56,-16zm-44 696c20,38 37,76 53,114 20,47 36,86 47,118 4,-8 9,-18 15,-29 6,-11 12,-22 19,-33 6,-11 12,-22 19,-33 6,-10 11,-19 16,-26l52 -81 15 5 -67 104c-5,7 -10,16 -16,26 -7,11 -13,22 -19,33 -7,11 -13,22 -19,33 -6,11 -11,21 -15,29 -11,-32 -27,-71 -47,-118 -20,-47 -42,-94 -67,-142l14 0zm-3996 -121c4,4 8,8 10,12 5,7 7,14 7,20 0,6 0,12 -1,18l-1 0c-1,-3 -3,-6 -5,-10 -3,-6 -9,-11 -17,-16 -8,-4 -17,-5 -29,-3l36 -21zm-43 119c1,4 3,8 5,12 8,13 18,21 32,25 13,4 28,1 43,-8 12,-6 23,-16 34,-29 11,-14 24,-33 40,-60l28 -50c11,0 24,3 39,7 15,4 31,11 48,20 17,9 34,20 50,35 17,15 32,34 44,56 17,28 26,58 27,88 1,8 1,16 0,25 -2,-29 -11,-57 -27,-85 -12,-22 -27,-41 -44,-56 -16,-15 -33,-26 -50,-35 -17,-9 -33,-16 -48,-20 -15,-4 -28,-7 -39,-7l-28 50c-16,27 -29,46 -40,60 -11,13 -22,23 -34,29 -15,9 -30,12 -43,8 -14,-4 -24,-12 -32,-25 -8,-15 -10,-28 -5,-40zm-260 167c-3,-10 -3,-20 0,-29 5,-16 15,-28 30,-37 9,-5 17,-8 24,-9 7,-1 13,-2 19,-2l22 30c29,41 59,73 90,96 31,24 63,40 94,49 31,9 62,11 93,7 31,-5 59,-15 86,-30 17,-9 31,-21 44,-34 13,-14 23,-28 30,-44 4,-11 7,-22 9,-34 0,4 1,8 1,12 0,17 -3,34 -10,50 -7,16 -17,30 -30,44 -13,13 -27,25 -44,34 -27,16 -55,25 -86,30 -31,4 -62,2 -93,-7 -31,-9 -63,-25 -94,-49 -31,-23 -61,-55 -90,-96l-22 -30c-6,0 -12,1 -19,2 -7,1 -15,4 -24,9 -15,9 -25,21 -30,37l0 1zm154 -147c-2,-10 -2,-19 0,-29 1,-9 3,-19 6,-27l23 -14c-16,20 -26,43 -29,69l0 1zm-312 29l-1 -5c-2,-7 -4,-14 -4,-20l587 -337 57 -33 1 0 0 -1 1 0 36 -21c18,-10 35,-16 53,-16 17,-1 32,3 46,12 -2,9 -2,18 1,29 -14,-10 -30,-14 -47,-13 -18,1 -35,6 -53,16l-36 21 -1 0 0 1 -1 0 -57 33 -582 334zm776 -422c-3,-16 -1,-30 6,-43 8,-12 19,-23 33,-31l52 -30c10,-6 20,-7 29,-5 9,2 18,10 25,23 4,6 7,13 9,20 2,7 3,14 4,20l-6 4c-2,-6 -4,-11 -7,-16 -7,-13 -16,-21 -25,-23 -9,-2 -19,-1 -29,5l-52 30c-14,8 -25,19 -33,31 -2,5 -4,10 -6,15zm67 45c1,4 4,9 6,14l249 433c-2,2 -5,6 -10,10l-239 -415c-9,-16 -11,-29 -7,-39l1 -3zm455 97c37,6 77,14 121,24 48,11 95,23 139,37 4,11 8,22 11,31 -47,-15 -97,-28 -150,-40 -53,-12 -101,-21 -144,-28 6,-7 14,-15 23,-24zm-93 -247c28,4 58,10 92,16 34,6 68,12 103,18 30,5 57,10 79,13l9 30c-25,-4 -54,-9 -88,-15 -35,-6 -69,-12 -103,-18 -34,-6 -66,-12 -94,-16 -28,-5 -49,-8 -62,-10l64 -18z"/>
  <path class="fil15" d="M4788 2101c741,0 1413,301 1899,787 486,486 787,1158 787,1900 0,741 -301,1413 -787,1899 -486,486 -1158,787 -1899,787 -742,0 -1414,-301 -1900,-787 -486,-486 -787,-1158 -787,-1899 0,-742 301,-1414 787,-1900 486,-486 1158,-787 1900,-787zm0 41c1461,0 2645,1185 2645,2646 0,1461 -1184,2645 -2645,2645 -1461,0 -2646,-1184 -2646,-2645 0,-1461 1185,-2646 2646,-2646z"/>
  <g id="_766175824">
   <path class="fil20" d="M3732 5990c-385,-315 -627,-778 -627,-1294 0,-950 822,-1719 1837,-1719 75,0 149,4 222,12 -156,-43 -321,-66 -490,-66 -1015,0 -1837,823 -1837,1837 0,648 335,1217 841,1544l54 -314zm1210 425c-244,0 -477,-44 -690,-125l-248 181c208,82 434,126 670,126 417,0 801,-139 1109,-372 -252,121 -538,190 -841,190zm1628 -1414l-1 0 -33 0 0 267c-2,2 -6,4 -11,6 -5,2 -11,3 -18,3 -3,0 -6,0 -8,-1 -17,-11 -33,-22 -49,-31 -16,-9 -31,-18 -47,-27 -16,-8 -32,-16 -48,-24 -16,-7 -32,-15 -50,-22 -3,-5 -5,-11 -7,-18 -1,-7 -2,-15 -2,-22 0,-2 0,-4 0,-6 0,-2 0,-4 0,-5 5,-3 12,-7 19,-11 8,-4 16,-8 24,-12 9,-4 17,-7 25,-11 8,-4 14,-7 19,-9l-88 -39c-5,-2 -9,-5 -11,-7 -3,-3 -4,-6 -4,-11 0,-4 1,-7 2,-11 1,-3 3,-6 4,-9l-9 0 -12 0 -1 0 -199 0 0 58c0,5 -1,12 -1,19 -1,7 -1,14 -2,21 0,7 -1,14 -2,20 -1,6 -2,10 -2,14 9,-10 19,-20 31,-29 11,-10 24,-19 37,-27 12,-8 26,-15 39,-21 14,-7 27,-11 40,-14 5,3 11,7 17,14 6,6 10,12 12,19 -2,7 -5,15 -7,24 -3,9 -6,19 -8,30 -2,11 -4,24 -5,37 -1,14 -2,29 -2,46 0,14 1,27 2,38 1,12 3,23 6,32 -3,4 -6,6 -10,8 -4,2 -9,3 -14,3 -6,0 -11,-1 -16,-3 -5,-3 -9,-7 -12,-13 -4,-6 -7,-13 -9,-23 -2,-10 -3,-23 -3,-37 0,-14 1,-26 3,-39 2,-12 4,-23 7,-34 3,-10 6,-19 9,-28 3,-8 5,-14 8,-19 -11,5 -22,10 -33,18 -11,7 -22,15 -33,24 -10,9 -21,18 -31,28 -9,10 -18,20 -26,30 -4,1 -8,2 -12,2 -7,0 -15,-2 -22,-5 -7,-3 -12,-7 -15,-12l0 -62c-4,-4 -8,-9 -14,-14 -5,-4 -11,-8 -18,-12 -6,-3 -13,-6 -20,-8 -8,-2 -15,-3 -22,-3 -15,0 -26,3 -34,10 -8,8 -12,17 -12,29 0,3 0,7 1,10 1,3 2,6 3,8 -1,4 -4,7 -8,10 -4,3 -9,4 -15,4 -9,0 -17,-3 -23,-10 -6,-6 -9,-16 -9,-29 0,-13 2,-23 7,-33 4,-9 11,-17 19,-23 8,-6 18,-11 28,-14 11,-3 23,-5 35,-5 18,0 33,3 47,8 14,6 26,13 35,20l0 -67 -173 0 -15 0 0 0 -48 0 0 274c-2,0 -5,1 -9,2 -4,0 -8,1 -13,1 -9,0 -17,-2 -22,-5 -6,-4 -9,-10 -9,-21l0 -251 -21 0 -15 0 -1 0 -116 0c12,2 23,5 33,10 10,5 19,11 27,19 7,8 13,17 18,28 4,11 6,23 6,36 0,17 -3,31 -10,44 -6,12 -15,23 -26,32 -11,8 -24,15 -38,19 -15,5 -30,7 -46,8 24,9 46,18 67,27 20,8 36,15 48,20 8,4 13,8 18,12 4,5 6,10 6,17 0,7 -2,13 -6,18 -4,5 -9,9 -15,12 -21,-11 -39,-21 -56,-30 -17,-9 -33,-17 -49,-24 -16,-8 -32,-16 -49,-23 -16,-8 -35,-16 -56,-25 -2,-5 -3,-10 -3,-17 0,-5 1,-10 2,-14 2,-5 4,-9 7,-11 8,1 16,2 26,3 10,0 19,1 28,1 31,0 55,-7 72,-19 17,-13 25,-30 25,-51 0,-17 -4,-30 -13,-39 -9,-9 -20,-13 -33,-13 -13,0 -23,4 -31,12 -8,7 -13,18 -13,32 0,4 1,8 2,12 1,3 2,7 3,9 -5,9 -14,13 -26,13 -9,0 -17,-3 -24,-10 -6,-7 -10,-17 -10,-32 0,-10 2,-19 6,-28 4,-8 9,-16 16,-22 6,-7 14,-12 24,-17 9,-4 19,-7 30,-9l-110 0c-13,0 -19,-7 -19,-21 0,-4 0,-8 1,-11 1,-4 2,-7 3,-10l198 0c2,-2 3,-5 4,-8 1,-3 1,-6 1,-10 0,-7 -3,-14 -9,-19 -6,-4 -16,-7 -31,-7 -5,0 -10,0 -14,1 -4,0 -8,0 -13,0 -4,0 -8,0 -13,1 -5,0 -11,0 -19,0 -26,0 -47,-6 -62,-18 -15,-12 -23,-27 -23,-46 0,-12 3,-21 9,-28 5,-7 13,-10 23,-10 5,0 10,1 13,2 4,2 7,4 9,5 0,3 0,5 0,7 -1,3 -1,6 -1,9 0,24 15,37 44,37 10,0 20,-1 29,-1 10,-1 20,-1 31,-1 25,0 44,5 57,16 13,11 20,25 20,43 0,5 -1,10 -2,15 -2,5 -3,9 -5,12l21 0 16 0 0 0 31 0c-4,-4 -7,-10 -9,-18 -3,-7 -4,-15 -4,-24 0,-14 3,-27 10,-38 6,-11 15,-21 27,-30 12,-8 26,-14 43,-19 17,-4 35,-6 56,-6 18,0 35,1 51,4 17,4 31,7 44,12 13,4 24,8 33,13 10,5 17,9 22,12 9,7 15,12 18,17 3,4 5,9 5,13 0,7 -2,12 -6,17 -4,4 -8,7 -14,9 -19,-14 -42,-26 -68,-37 -26,-10 -54,-15 -84,-15 -25,0 -45,5 -60,15 -15,10 -22,23 -22,40 0,9 1,16 4,22 2,5 6,10 9,13l35 0 15 0 0 0 1 0 0 0 426 0 13 0 0 0 292 0 30 0 0 0 25 0c10,0 19,2 27,6 8,4 13,10 17,18 3,-9 7,-15 14,-18 6,-4 13,-6 22,-6l29 0c6,0 11,2 14,5 4,4 6,9 6,17 0,3 -1,7 -2,10 0,4 -1,7 -3,10l-39 0c-7,0 -13,2 -17,6 -4,3 -7,9 -7,19l0 250c-2,0 -5,1 -9,2 -3,0 -8,0 -13,0 -9,0 -17,-1 -22,-4 -6,-4 -9,-11 -9,-21l0 -235c0,-11 -5,-17 -15,-17l-3 0 -30 0zm-137 55c1,3 2,6 2,9 0,4 0,7 0,11 0,5 0,9 -1,13 0,4 -1,7 -2,10 -6,3 -12,7 -19,11 -7,3 -14,7 -21,11 -8,4 -14,7 -21,11 -7,4 -13,7 -17,9 20,10 42,21 66,34 24,12 46,26 67,40 -1,-5 -1,-11 -1,-17 -1,-7 -1,-13 -2,-20 0,-7 0,-13 0,-19 -1,-7 -1,-12 -1,-16l0 -142 -159 0c7,3 16,7 26,12 10,4 20,9 30,15 11,5 20,10 30,15 9,5 17,10 23,13zm-126 213c0,-9 3,-17 9,-23 6,-6 14,-9 24,-9 9,0 17,3 23,9 6,6 9,14 9,23 0,9 -3,17 -9,23 -6,6 -14,9 -23,9 -10,0 -18,-3 -24,-9 -6,-6 -9,-14 -9,-23zm-271 -565c-4,-9 -6,-18 -6,-27 0,-13 4,-24 11,-34 8,-10 19,-17 33,-20 22,10 44,21 65,33 21,13 37,23 50,32 10,6 17,13 22,19 4,6 7,14 7,23 0,10 -4,19 -10,27 -7,9 -16,14 -28,16l-144 -69zm-586 -279c-27,7 -54,17 -80,29 -26,13 -50,26 -69,39 26,15 52,31 80,48 27,17 52,34 74,50 -1,-7 -2,-14 -2,-23 -1,-8 -1,-17 -1,-25 -1,-9 -1,-17 -1,-25 0,-7 -1,-14 -1,-21l0 -72zm835 0c-29,7 -58,17 -85,29 -28,13 -52,26 -74,39 15,7 29,15 44,23 14,9 29,17 43,25 14,9 27,17 40,26 13,8 25,16 36,24 -1,-7 -1,-14 -2,-23 0,-8 -1,-17 -1,-25 0,-9 -1,-17 -1,-25 0,-7 0,-14 0,-21l0 -72zm-733 -123l0 30c28,1 54,5 78,12 25,6 46,16 64,29 19,12 33,28 44,46 11,19 16,40 16,65 0,20 -3,37 -9,52 -6,14 -14,27 -24,36 -10,10 -20,17 -33,22 -12,5 -24,7 -36,7 -19,0 -34,-5 -44,-15 -10,-10 -15,-23 -15,-38 0,-6 1,-12 2,-18 2,-6 3,-10 5,-13l12 0c10,0 19,-4 27,-10 7,-6 11,-15 11,-29 0,-16 -8,-30 -24,-41 -15,-11 -40,-18 -74,-21l0 286c-11,12 -29,18 -56,18 -4,0 -7,0 -9,0 -3,-1 -5,-1 -7,-2 -23,-18 -45,-35 -67,-50 -21,-15 -42,-29 -64,-42 -21,-13 -43,-25 -66,-38 -22,-12 -47,-24 -73,-37 -7,-10 -12,-22 -15,-36 -4,-15 -5,-30 -5,-44 0,-4 0,-7 0,-10 0,-3 1,-6 1,-9 19,-12 38,-25 59,-37 22,-12 44,-23 66,-33 23,-11 46,-20 69,-29 23,-9 45,-16 67,-22l0 -29 -238 0 -38 0 -1 0 0 0 -18 0c-9,5 -18,13 -28,24 -10,12 -19,26 -28,43 -8,16 -15,35 -20,55 -6,21 -8,43 -8,65 0,24 2,45 8,64 6,19 13,36 23,51 10,14 21,27 33,38 11,11 24,19 37,26 1,2 1,5 1,8 0,2 0,5 0,7 0,16 -4,28 -13,37 -9,9 -22,14 -37,14 -17,0 -35,-6 -53,-16 -18,-10 -35,-26 -50,-45 -15,-20 -28,-45 -38,-74 -10,-28 -15,-61 -15,-97 0,-43 6,-81 18,-116 12,-34 27,-63 45,-87 17,-24 36,-43 56,-56 20,-13 38,-19 54,-19l8 0 38 0 1 0 0 0 541 0 53 0 1 0 0 0 35 0c16,0 31,3 45,9 13,6 24,15 31,28 5,-13 14,-23 24,-29 11,-5 23,-8 38,-8l13 0 26 0 0 0 1 0 405 0 53 0 0 0 1 0 35 0c16,0 31,3 44,9 14,6 24,15 31,28 6,-13 14,-23 25,-29 10,-5 23,-8 37,-8l39 0c11,0 19,3 26,9 6,6 9,16 9,30 0,8 -1,15 -2,22 -2,6 -4,12 -7,17l-56 0c-12,0 -21,3 -28,8 -6,6 -10,16 -10,31l0 377c-3,1 -8,2 -16,3 -8,1 -17,2 -27,2 -18,0 -32,-3 -43,-10 -10,-6 -16,-19 -16,-39l0 -346c0,-8 -2,-14 -6,-19 -4,-4 -9,-6 -15,-7l0 0 -1 0 -48 0 0 0 -1 0 -40 0 0 400c-11,12 -30,18 -57,18 -5,0 -10,-1 -15,-2 -24,-18 -47,-35 -69,-50 -22,-15 -44,-30 -66,-43 -22,-13 -45,-26 -68,-38 -23,-12 -48,-24 -75,-36 -6,-10 -11,-22 -15,-36 -3,-15 -5,-30 -5,-44 0,-4 0,-7 0,-10 0,-3 1,-6 1,-9 19,-12 39,-25 61,-37 22,-12 45,-23 68,-33 23,-11 47,-20 70,-29 24,-9 47,-16 70,-22l0 -29 -264 0 -26 0 -1 0 0 0 -30 0c-11,0 -20,3 -27,8 -7,6 -10,16 -10,31l0 377c-3,1 -9,2 -17,3 -8,1 -16,2 -26,2 -18,0 -32,-3 -43,-10 -11,-6 -16,-19 -16,-39l0 -346c0,-8 -2,-14 -6,-19 -4,-4 -9,-6 -16,-7l0 0 0 0 -48 0 -1 0 0 0 -203 0zm-1697 1657l-230 749 581 -539c191,83 402,129 623,129 594,0 1110,-329 1377,-815l-180 0c-251,396 -693,659 -1197,659 -575,0 -1071,-344 -1292,-837 2,-6 4,-12 6,-18 10,-28 25,-57 62,-58 19,0 37,1 56,0 60,-3 122,-6 178,-32 43,-21 56,-53 42,-98 -16,-49 -16,-96 18,-138 3,-4 6,-10 8,-15 13,-28 4,-54 -25,-66 -19,-7 -40,-9 -60,-14 -13,-3 -25,-5 -38,-8 13,-11 26,-16 40,-22 16,-7 33,-13 48,-22 29,-19 37,-47 23,-79 -5,-11 -12,-21 -16,-32 -8,-17 -2,-33 15,-41 8,-4 17,-6 25,-10 75,-31 88,-77 39,-141 -16,-21 -34,-39 -52,-57 -27,-28 -56,-54 -82,-83 -44,-49 -64,-103 -31,-168 14,-29 -22,-275 -45,-389 260,-307 648,-503 1081,-503 504,0 946,263 1197,660l180 0c-267,-486 -783,-815 -1377,-815 -867,0 -1570,703 -1570,1571 0,499 233,944 596,1232zm-344 -717c-63,-159 -97,-333 -97,-515 0,-324 109,-623 292,-861 21,114 48,300 42,318 -6,17 -15,33 -17,50 -3,20 -5,41 -1,61 12,64 54,110 99,154 32,32 64,63 93,98 24,29 20,42 -15,57 -9,3 -17,6 -26,9 -50,19 -67,76 -46,115 4,7 7,15 12,22 9,13 4,22 -9,27 -18,7 -36,13 -53,21 -18,8 -37,16 -52,28 -20,17 -20,42 2,56 22,14 47,23 73,32 16,5 35,6 52,9 0,4 0,6 0,7 -2,3 -3,5 -5,7 -41,52 -40,110 -23,169 8,32 5,39 -25,51 -8,3 -16,6 -25,7 -53,6 -106,14 -160,15 -44,1 -81,11 -104,52 -2,3 -5,7 -7,11zm676 -389c-1,-77 -30,-147 -86,-207 -22,-24 -18,-51 10,-58 11,-3 29,3 37,11 76,79 111,174 105,284 -6,89 -39,166 -100,232 -16,17 -33,28 -54,11 -17,-14 -15,-34 6,-57 53,-60 81,-130 82,-216zm286 54c0,83 -44,197 -131,294 -4,5 -8,9 -12,13 -16,17 -35,22 -52,4 -17,-17 -12,-34 4,-50 45,-47 80,-100 100,-162 53,-165 23,-314 -91,-445 -5,-6 -11,-11 -15,-17 -12,-15 -13,-32 2,-44 13,-12 31,-16 46,-1 15,15 30,30 43,47 70,92 107,196 106,361zm221 -47c-2,167 -58,312 -170,436 -6,6 -12,12 -19,18 -15,13 -31,14 -46,0 -14,-14 -13,-31 -1,-46 13,-17 29,-31 42,-48 135,-176 163,-370 85,-578 -26,-69 -68,-129 -118,-184 -10,-10 -17,-27 -16,-40 4,-27 36,-32 59,-10 56,56 99,121 130,193 36,83 55,169 54,259z"/>
   <path class="fil21" d="M3732 5962c-385,-315 -627,-778 -627,-1294 0,-950 822,-1719 1837,-1719 75,0 149,4 222,12 -156,-43 -321,-66 -490,-66 -1015,0 -1837,823 -1837,1837 0,648 335,1217 841,1544l54 -314zm1210 425c-244,0 -477,-44 -690,-125l-248 181c208,82 434,126 670,126 417,0 801,-139 1109,-372 -252,121 -538,190 -841,190zm1628 -1414l-1 0 -33 0 0 267c-2,2 -6,4 -11,6 -5,2 -11,3 -18,3 -3,0 -6,0 -8,-1 -17,-11 -33,-22 -49,-31 -16,-9 -31,-18 -47,-27 -16,-8 -32,-16 -48,-24 -16,-7 -32,-15 -50,-22 -3,-5 -5,-11 -7,-18 -1,-7 -2,-15 -2,-22 0,-2 0,-4 0,-6 0,-2 0,-4 0,-5 5,-3 12,-7 19,-11 8,-4 16,-8 24,-12 9,-4 17,-7 25,-11 8,-4 14,-7 19,-9l-88 -39c-5,-2 -9,-5 -11,-7 -3,-3 -4,-6 -4,-11 0,-4 1,-7 2,-11 1,-3 3,-6 4,-9l-9 0 -12 0 -1 0 -199 0 0 58c0,5 -1,12 -1,19 -1,7 -1,14 -2,21 0,7 -1,14 -2,20 -1,6 -2,10 -2,13 9,-9 19,-19 31,-28 11,-10 24,-19 37,-27 12,-8 26,-15 39,-21 14,-7 27,-11 40,-14 5,3 11,7 17,14 6,6 10,12 12,19 -2,7 -5,15 -7,24 -3,9 -6,19 -8,30 -2,11 -4,24 -5,37 -1,14 -2,29 -2,46 0,14 1,27 2,38 1,12 3,23 6,32 -3,4 -6,6 -10,8 -4,2 -9,3 -14,3 -6,0 -11,-1 -16,-3 -5,-3 -9,-7 -12,-13 -4,-6 -7,-13 -9,-23 -2,-10 -3,-23 -3,-37 0,-14 1,-26 3,-39 2,-12 4,-23 7,-34 3,-10 6,-20 9,-28 3,-8 5,-14 8,-19 -11,4 -22,10 -33,18 -11,7 -22,15 -33,24 -10,9 -21,18 -31,28 -9,10 -18,20 -26,30 -4,1 -8,2 -12,2 -7,0 -15,-2 -22,-5 -7,-3 -12,-7 -15,-13l0 -61c-4,-4 -8,-9 -14,-14 -5,-4 -11,-8 -18,-12 -6,-3 -13,-6 -20,-8 -8,-2 -15,-3 -22,-3 -15,0 -26,3 -34,10 -8,8 -12,17 -12,29 0,3 0,7 1,10 1,3 2,6 3,8 -1,4 -4,7 -8,10 -4,3 -9,4 -15,4 -9,0 -17,-3 -23,-10 -6,-6 -9,-16 -9,-29 0,-13 2,-23 7,-33 4,-9 11,-17 19,-23 8,-7 18,-11 28,-14 11,-3 23,-5 35,-5 18,0 33,3 47,8 14,6 26,13 35,20l0 -67 -173 0 -15 0 0 0 -48 0 0 274c-2,0 -5,1 -9,1 -4,1 -8,1 -13,1 -9,0 -17,-1 -22,-4 -6,-4 -9,-11 -9,-21l0 -251 -21 0 -15 0 -1 0 -116 0c12,2 23,5 33,10 10,5 19,11 27,19 7,8 13,17 18,28 4,11 6,23 6,36 0,17 -3,31 -10,44 -6,12 -15,23 -26,32 -11,8 -24,15 -38,19 -15,5 -30,7 -46,8 24,9 46,18 67,27 20,8 36,15 48,20 8,4 13,8 18,12 4,4 6,10 6,17 0,7 -2,13 -6,18 -4,5 -9,9 -15,12 -21,-11 -39,-21 -56,-30 -17,-9 -33,-17 -49,-24 -16,-8 -32,-16 -49,-23 -16,-8 -35,-16 -56,-25 -2,-5 -3,-10 -3,-17 0,-5 1,-10 2,-14 2,-5 4,-9 7,-11 8,1 16,2 26,3 10,0 19,1 28,1 31,0 55,-7 72,-19 17,-13 25,-30 25,-51 0,-17 -4,-30 -13,-39 -9,-9 -20,-13 -33,-13 -13,0 -23,4 -31,12 -8,7 -13,18 -13,31 0,5 1,9 2,13 1,3 2,7 3,9 -5,9 -14,13 -26,13 -9,0 -17,-3 -24,-10 -6,-7 -10,-17 -10,-32 0,-10 2,-19 6,-28 4,-8 9,-16 16,-22 6,-7 14,-12 24,-17 9,-4 19,-7 30,-9l-110 0c-13,0 -19,-7 -19,-21 0,-4 0,-8 1,-11 1,-4 2,-7 3,-10l198 0c2,-2 3,-5 4,-8 1,-3 1,-6 1,-10 0,-7 -3,-14 -9,-19 -6,-4 -16,-7 -31,-7 -5,0 -10,0 -14,0 -4,1 -8,1 -13,1 -4,0 -8,0 -13,0 -5,1 -11,1 -19,1 -26,0 -47,-6 -62,-18 -15,-12 -23,-27 -23,-46 0,-12 3,-21 9,-28 5,-7 13,-10 23,-10 5,0 10,1 13,2 4,2 7,4 9,5 0,3 0,5 0,7 -1,3 -1,6 -1,9 0,24 15,37 44,37 10,0 20,-1 29,-1 10,-1 20,-1 31,-1 25,0 44,5 57,16 13,11 20,25 20,43 0,5 -1,10 -2,15 -2,5 -3,9 -5,12l21 0 16 0 0 0 31 0c-4,-4 -7,-10 -9,-18 -3,-7 -4,-15 -4,-24 0,-14 3,-27 10,-38 6,-11 15,-21 27,-30 12,-8 26,-14 43,-19 17,-4 35,-6 56,-6 18,0 35,1 51,4 17,4 31,7 44,12 13,4 24,8 33,13 10,5 17,9 22,12 9,7 15,12 18,17 3,4 5,9 5,13 0,7 -2,12 -6,17 -4,4 -8,7 -14,9 -19,-14 -42,-26 -68,-37 -26,-10 -54,-15 -84,-15 -25,0 -45,5 -60,15 -15,10 -22,23 -22,40 0,9 1,16 4,22 2,5 6,10 9,13l35 0 15 0 0 0 1 0 0 0 426 0 13 0 0 0 292 0 30 0 0 0 25 0c10,0 19,2 27,6 8,4 13,10 17,18 3,-9 7,-15 14,-18 6,-4 13,-6 22,-6l29 0c6,0 11,2 14,5 4,4 6,9 6,17 0,3 -1,7 -2,10 0,4 -1,7 -3,10l-39 0c-7,0 -13,2 -17,6 -4,3 -7,9 -7,19l0 250c-2,0 -5,1 -9,1 -3,1 -8,1 -13,1 -9,0 -17,-1 -22,-4 -6,-4 -9,-11 -9,-21l0 -235c0,-11 -5,-17 -15,-17l-3 0 -30 0zm-137 55c1,3 2,6 2,9 0,4 0,7 0,11 0,5 0,9 -1,13 0,4 -1,7 -2,10 -6,3 -12,7 -19,10 -7,4 -14,8 -21,12 -8,4 -14,7 -21,11 -7,4 -13,7 -17,9 20,10 42,21 66,34 24,12 46,26 67,40 -1,-5 -1,-11 -1,-17 -1,-7 -1,-13 -2,-20 0,-7 0,-13 0,-19 -1,-7 -1,-12 -1,-16l0 -142 -159 0c7,3 16,7 26,12 10,4 20,9 30,15 11,5 20,10 30,15 9,5 17,10 23,13zm-126 213c0,-9 3,-17 9,-23 6,-6 14,-9 24,-9 9,0 17,3 23,9 6,6 9,14 9,23 0,9 -3,16 -9,23 -6,6 -14,9 -23,9 -10,0 -18,-3 -24,-9 -6,-7 -9,-14 -9,-23zm-271 -565c-4,-9 -6,-18 -6,-27 0,-13 4,-24 11,-34 8,-11 19,-17 33,-20 22,10 44,21 65,33 21,13 37,23 50,32 10,6 17,13 22,19 4,6 7,14 7,23 0,10 -4,19 -10,27 -7,9 -16,14 -28,16l-144 -69zm-586 -279c-27,7 -54,17 -80,29 -26,13 -50,26 -69,39 26,15 52,31 80,48 27,17 52,34 74,50 -1,-7 -2,-14 -2,-23 -1,-8 -1,-17 -1,-25 -1,-9 -1,-17 -1,-25 0,-7 -1,-14 -1,-21l0 -72zm835 0c-29,7 -58,17 -85,29 -28,13 -52,26 -74,39 15,7 29,15 44,23 14,9 29,17 43,25 14,9 27,17 40,26 13,8 25,16 36,24 -1,-7 -1,-14 -2,-23 0,-8 -1,-17 -1,-25 0,-9 -1,-17 -1,-25 0,-7 0,-14 0,-21l0 -72zm-733 -123l0 30c28,1 54,5 78,12 25,6 46,16 64,29 19,12 33,28 44,46 11,19 16,40 16,65 0,20 -3,37 -9,52 -6,14 -14,27 -24,36 -10,10 -20,17 -33,22 -12,5 -24,7 -36,7 -19,0 -34,-5 -44,-15 -10,-10 -15,-23 -15,-38 0,-6 1,-12 2,-18 2,-6 3,-10 5,-14l12 0c10,0 19,-3 27,-9 7,-6 11,-16 11,-29 0,-16 -8,-30 -24,-41 -15,-11 -40,-18 -74,-21l0 286c-11,12 -29,18 -56,18 -4,0 -7,0 -9,0 -3,-1 -5,-1 -7,-2 -23,-18 -45,-35 -67,-50 -21,-15 -42,-29 -64,-42 -21,-13 -43,-25 -66,-38 -22,-12 -47,-24 -73,-37 -7,-10 -12,-22 -15,-36 -4,-15 -5,-30 -5,-44 0,-4 0,-7 0,-10 0,-3 1,-6 1,-9 19,-12 38,-25 59,-37 22,-12 44,-23 66,-34 23,-10 46,-19 69,-28 23,-9 45,-16 67,-22l0 -29 -238 0 -38 0 -1 0 0 0 -18 0c-9,5 -18,13 -28,24 -10,12 -19,26 -28,43 -8,16 -15,35 -20,55 -6,21 -8,43 -8,65 0,24 2,45 8,64 6,19 13,36 23,51 10,14 21,27 33,38 11,11 24,19 37,26 1,2 1,5 1,8 0,2 0,5 0,7 0,16 -4,28 -13,37 -9,9 -22,14 -37,14 -17,0 -35,-6 -53,-16 -18,-10 -35,-26 -50,-46 -15,-19 -28,-44 -38,-73 -10,-28 -15,-61 -15,-97 0,-43 6,-81 18,-116 12,-34 27,-63 45,-87 17,-24 36,-43 56,-56 20,-13 38,-19 54,-19l8 0 38 0 1 0 0 0 541 0 53 0 1 0 0 0 35 0c16,0 31,3 45,9 13,6 24,15 31,28 5,-13 14,-23 24,-29 11,-5 23,-8 38,-8l13 0 26 0 0 0 1 0 405 0 53 0 0 0 1 0 35 0c16,0 31,3 44,9 14,6 24,15 31,28 6,-13 14,-23 25,-29 10,-5 23,-8 37,-8l39 0c11,0 19,3 26,9 6,6 9,16 9,30 0,8 -1,15 -2,22 -2,6 -4,12 -7,17l-56 0c-12,0 -21,3 -28,8 -6,6 -10,16 -10,31l0 377c-3,1 -8,2 -16,3 -8,1 -17,2 -27,2 -18,0 -32,-3 -43,-10 -10,-6 -16,-19 -16,-39l0 -346c0,-8 -2,-14 -6,-19 -4,-4 -9,-7 -15,-7l0 0 -1 0 -48 0 0 0 -1 0 -40 0 0 400c-11,12 -30,18 -57,18 -5,0 -10,-1 -15,-2 -24,-18 -47,-35 -69,-50 -22,-15 -44,-30 -66,-43 -22,-13 -45,-26 -68,-38 -23,-12 -48,-24 -75,-36 -6,-10 -11,-22 -15,-36 -3,-15 -5,-30 -5,-44 0,-4 0,-7 0,-10 0,-3 1,-6 1,-9 19,-12 39,-25 61,-37 22,-12 45,-23 68,-34 23,-10 47,-19 70,-28 24,-9 47,-16 70,-22l0 -29 -264 0 -26 0 -1 0 0 0 -30 0c-11,0 -20,3 -27,8 -7,6 -10,16 -10,31l0 377c-3,1 -9,2 -17,3 -8,1 -16,2 -26,2 -18,0 -32,-3 -43,-10 -11,-6 -16,-19 -16,-39l0 -346c0,-8 -2,-14 -6,-19 -4,-4 -9,-7 -16,-7l0 0 0 0 -48 0 -1 0 0 0 -203 0zm-1697 1657l-230 749 581 -539c191,83 402,129 623,129 594,0 1110,-329 1377,-815l-180 0c-251,396 -693,659 -1197,659 -575,0 -1071,-344 -1292,-837 2,-6 4,-12 6,-18 10,-28 25,-57 62,-58 19,0 37,1 56,0 60,-3 122,-6 178,-33 43,-20 56,-52 42,-97 -16,-49 -16,-96 18,-138 3,-4 6,-10 8,-15 13,-28 4,-54 -25,-66 -19,-7 -40,-9 -60,-14 -13,-3 -25,-5 -38,-8 13,-11 26,-16 40,-22 16,-7 33,-13 48,-22 29,-19 37,-47 23,-79 -5,-11 -12,-21 -16,-32 -8,-17 -2,-33 15,-41 8,-4 17,-6 25,-10 75,-31 88,-77 39,-141 -16,-21 -34,-39 -52,-57 -27,-28 -56,-54 -82,-83 -44,-49 -64,-103 -31,-168 14,-29 -22,-275 -45,-389 260,-307 648,-503 1081,-503 504,0 946,263 1197,660l180 0c-267,-486 -783,-815 -1377,-815 -867,0 -1570,703 -1570,1571 0,499 233,944 596,1232zm-344 -717c-63,-159 -97,-333 -97,-515 0,-324 109,-623 292,-861 21,114 48,300 42,318 -6,17 -15,33 -17,50 -3,20 -5,41 -1,61 12,64 54,110 99,154 32,31 64,63 93,98 24,29 20,42 -15,57 -9,3 -17,6 -26,9 -50,19 -67,76 -46,115 4,7 7,15 12,22 9,13 4,22 -9,27 -18,7 -36,12 -53,21 -18,8 -37,16 -52,28 -20,17 -20,42 2,56 22,14 47,23 73,32 16,5 35,6 52,9 0,4 0,6 0,7 -2,3 -3,5 -5,7 -41,52 -40,110 -23,169 8,31 5,39 -25,51 -8,3 -16,6 -25,7 -53,6 -106,14 -160,15 -44,1 -81,11 -104,52 -2,3 -5,7 -7,11zm676 -389c-1,-77 -30,-147 -86,-207 -22,-24 -18,-51 10,-58 11,-3 29,3 37,11 76,79 111,174 105,284 -6,89 -39,166 -100,232 -16,17 -33,28 -54,11 -17,-14 -15,-34 6,-57 53,-60 81,-130 82,-216zm286 54c0,83 -44,197 -131,294 -4,5 -8,9 -12,13 -16,17 -35,22 -52,4 -17,-17 -12,-34 4,-50 45,-47 80,-100 100,-162 53,-165 23,-314 -91,-445 -5,-6 -11,-11 -15,-17 -12,-15 -13,-32 2,-44 13,-12 31,-16 46,-1 15,15 30,30 43,47 70,92 107,196 106,361zm221 -47c-2,167 -58,312 -170,436 -6,6 -12,12 -19,18 -15,13 -31,14 -46,0 -14,-14 -13,-31 -1,-46 13,-17 29,-31 42,-48 135,-176 163,-370 85,-578 -26,-69 -68,-129 -118,-184 -10,-10 -17,-27 -16,-40 4,-27 36,-32 59,-10 56,56 99,121 130,193 36,83 55,169 54,259z"/>
   <path class="fil19" d="M3732 5962c-380,-312 -622,-768 -627,-1276l0 10c0,514 241,975 623,1290l4 -24zm1251 -3013c61,1 121,5 181,12 -156,-43 -321,-66 -490,-66 -1015,0 -1837,823 -1837,1837l0 18c6,-1010 826,-1827 1837,-1827 105,0 208,9 309,26zm-41 3438c-244,0 -477,-44 -690,-125l-248 181c8,4 17,7 25,10l223 -163c213,81 446,125 690,125 260,0 508,-51 733,-142 37,-24 73,-50 108,-76 -252,121 -538,190 -841,190zm1355 -1267c-1,-5 -1,-11 -1,-16 0,-2 0,-4 0,-6 0,-2 0,-4 0,-5 5,-3 12,-7 19,-11 8,-4 16,-8 24,-12l13 -6 31 14c-5,2 -11,5 -19,9 -8,4 -16,7 -25,11 -8,4 -16,8 -24,12 -7,4 -13,7 -18,10zm-12 -115l-1 -1c-1,-1 -2,-2 -2,-3l4 0 -1 4zm-223 95c8,-8 17,-16 27,-24 11,-10 24,-19 37,-27 12,-8 26,-15 39,-21 14,-7 27,-11 40,-14 5,3 11,7 17,14 6,6 10,12 12,19 -1,5 -3,11 -5,17 -2,-3 -5,-6 -7,-8 -6,-7 -12,-11 -17,-14 -13,3 -26,7 -40,14 -13,6 -27,13 -39,21 -13,8 -26,17 -37,27 -12,9 -22,19 -31,29 0,-4 1,-8 2,-14 1,-6 2,-12 2,-19zm150 97c1,9 1,17 2,25 1,12 3,23 6,32 -2,2 -3,4 -5,5l-1 -9c-1,-11 -2,-24 -2,-38l0 -15zm-55 6c-1,-5 -1,-9 -1,-14 0,-14 1,-26 3,-39 2,-12 4,-23 7,-34 1,-4 2,-9 4,-13 4,-2 9,-4 13,-6 -3,5 -5,11 -8,19 -3,9 -6,18 -9,28 -3,11 -5,22 -7,34 -1,8 -2,16 -2,25zm-264 -95c1,1 1,3 2,4 -1,3 -2,5 -4,7 0,-4 1,-8 2,-11zm-52 -8c-1,-4 -1,-8 -1,-13 0,-13 2,-23 7,-33 4,-9 11,-17 19,-23 8,-7 18,-11 28,-14 11,-3 23,-5 35,-5 18,0 33,3 47,8 14,6 26,13 35,20l0 28c-9,-7 -21,-14 -35,-20 -14,-5 -29,-8 -47,-8 -12,0 -24,2 -35,5 -10,3 -20,8 -28,14 -8,6 -15,14 -19,23 -3,6 -5,12 -6,18zm-213 -99l1 1c7,8 13,17 18,28 4,11 6,23 6,36 0,5 0,10 -1,14 -1,-8 -3,-15 -5,-22 -5,-11 -11,-20 -18,-28 -8,-8 -17,-14 -27,-19 -10,-5 -21,-8 -33,-10l59 0zm-46 187l18 8c20,8 36,15 48,20 8,4 13,8 18,12 4,4 6,10 6,17 0,5 -1,10 -4,14 -1,-1 -1,-2 -2,-3 -5,-4 -10,-8 -18,-12 -12,-5 -28,-12 -48,-20 -21,-9 -43,-18 -67,-27 16,-1 31,-3 46,-8l3 -1zm-142 -18c-1,-4 -2,-8 -2,-14 0,-5 1,-10 2,-14 2,-5 4,-9 7,-11 8,1 16,2 26,3 10,0 19,1 28,1 31,0 55,-7 72,-19 13,-10 21,-23 24,-38 1,5 1,10 1,15 0,21 -8,38 -25,51 -17,12 -41,19 -72,19 -9,0 -18,-1 -28,-1 -10,-1 -18,-2 -26,-3 -3,2 -5,6 -7,11l0 0zm70 -100c1,3 2,6 3,8 -1,2 -3,4 -5,6 1,-5 1,-10 2,-14zm-56 -7c0,-4 -1,-9 -1,-14 0,-10 2,-19 6,-28 3,-7 7,-14 13,-20l57 0c-11,2 -21,5 -30,9 -10,5 -18,10 -24,17 -7,6 -12,14 -16,22 -2,5 -4,9 -5,14zm-52 -99c-2,-3 -2,-7 -2,-12 0,-4 0,-8 1,-11 1,-4 2,-7 3,-10l198 0 2 -2c2,3 3,8 3,12 0,4 0,7 -1,10 -1,3 -2,6 -4,8l-198 0c-1,2 -1,3 -2,5zm23 -125c-1,-4 -2,-9 -2,-14 0,-12 3,-21 9,-28 5,-7 13,-10 23,-10 5,0 10,1 13,2 4,2 7,4 9,5 0,3 0,5 0,7 -1,3 -1,6 -1,9 0,24 15,37 44,37 10,0 20,-1 29,-1 10,-1 20,-1 31,-1 25,0 44,5 57,16 13,11 20,25 20,43 0,4 -1,9 -2,13 -2,-11 -8,-20 -18,-28 -13,-11 -32,-16 -57,-16 -11,0 -21,0 -31,1 -9,0 -19,1 -29,1 -29,0 -44,-13 -44,-37 0,-3 0,-6 1,-9 0,-2 0,-4 0,-7 -2,-1 -5,-3 -9,-5 -3,-1 -8,-2 -13,-2 -10,0 -18,3 -23,10 -3,4 -6,9 -7,14zm232 92l14 0 16 0 0 0 19 0c1,4 2,7 3,10 2,8 5,14 9,18l-31 0 0 0 -16 0 -21 0c2,-3 3,-7 5,-12 1,-5 2,-10 2,-15l0 -1zm49 -28c-1,-4 -1,-9 -1,-14 0,-14 3,-27 10,-38 6,-11 15,-21 27,-30 12,-8 26,-14 43,-19 17,-4 35,-6 56,-6 18,0 35,1 51,4 17,4 31,7 44,12 13,4 24,8 33,13 10,5 17,9 22,12 9,7 15,12 18,17 3,4 5,9 5,13 0,6 -2,11 -5,15l0 0c-3,-5 -9,-10 -18,-17 -5,-3 -12,-7 -22,-12 -9,-5 -20,-9 -33,-13 -13,-5 -27,-8 -44,-12 -16,-3 -33,-4 -51,-4 -21,0 -39,2 -56,6 -17,5 -31,11 -43,19 -12,9 -21,19 -27,30 -5,7 -7,16 -9,24zm56 8c0,2 1,5 2,7 2,5 6,10 9,13l35 0 15 0 0 0 1 0 0 0 426 0 13 0 0 0 292 0 30 0 0 0 25 0c10,0 19,2 27,6 8,4 13,10 17,18 3,-9 7,-15 14,-18 6,-4 13,-6 22,-6l29 0c6,0 11,2 14,5 4,4 6,9 6,17 0,3 -1,7 -2,10 0,2 0,4 -1,5 -1,-1 -1,-3 -3,-4 -3,-3 -8,-5 -14,-5l-29 0c-9,0 -16,2 -22,6 -7,3 -11,9 -14,18 -4,-8 -9,-14 -17,-18 -8,-4 -17,-6 -27,-6l-25 0 0 0 -30 0 -292 0 0 0 -13 0 -426 0 0 0 -1 0 0 0 -15 0 -35 0c-3,-3 -7,-8 -9,-13 -3,-6 -4,-13 -4,-22 0,-4 0,-9 2,-13zm671 117c1,3 2,6 2,9 0,4 0,7 0,11 0,5 0,9 -1,13l0 0c0,-1 -1,-3 -1,-5 -6,-3 -14,-8 -23,-13 -10,-5 -19,-10 -30,-15 -10,-6 -20,-11 -30,-15 -10,-5 -19,-9 -26,-12l60 0c9,5 18,10 26,14 9,5 17,10 23,13zm-52 98c12,7 25,13 39,21 23,12 45,25 65,38l1 13c0,6 0,12 1,17 -21,-14 -43,-28 -67,-40 -24,-13 -46,-24 -66,-34 4,-2 10,-5 17,-9l10 -6zm-74 115c0,-9 3,-17 9,-23 6,-6 14,-9 24,-9 9,0 17,3 23,9 6,6 9,14 9,23 0,5 0,10 -2,14 -2,-3 -4,-6 -7,-9 -6,-6 -14,-9 -23,-9 -10,0 -18,3 -24,9 -3,3 -5,5 -6,9 -2,-4 -3,-9 -3,-14zm-275 -578c-1,-5 -2,-9 -2,-14 0,-13 4,-24 11,-34 8,-11 19,-17 33,-20 22,10 44,21 65,33 21,13 37,23 50,32 10,6 17,13 22,19 4,6 7,14 7,23 0,5 -1,9 -3,14 -1,-4 -2,-6 -4,-9 -5,-6 -12,-13 -22,-19 -13,-9 -29,-19 -50,-32 -21,-12 -43,-23 -65,-33 -14,3 -25,10 -33,20 -4,6 -7,13 -9,20zm-708 -185c19,11 37,23 57,35 26,17 50,33 71,48l1 7c0,9 1,16 2,23 -22,-16 -47,-33 -74,-50 -28,-17 -54,-33 -80,-48 7,-5 15,-10 23,-15zm828 0c6,3 12,7 18,10 14,9 29,17 43,25 14,9 27,17 40,26 12,8 24,15 34,22l0 7c1,9 1,16 2,23 -11,-8 -23,-16 -36,-24 -13,-9 -26,-17 -40,-26 -14,-8 -29,-16 -43,-25 -15,-8 -29,-16 -44,-23 9,-5 17,-10 26,-15zm-600 -174c28,1 54,5 78,12 25,6 46,16 64,29 19,12 33,28 44,46 11,19 16,40 16,65 0,5 0,9 -1,14 -1,-19 -6,-36 -15,-51 -11,-18 -25,-34 -44,-46 -18,-13 -39,-23 -64,-29 -24,-7 -50,-11 -78,-12l0 -28zm43 229c-1,-4 -2,-9 -2,-13 0,-6 1,-12 2,-18 2,-6 3,-10 5,-14l12 0c10,0 19,-3 27,-9 4,-3 7,-8 9,-14 1,4 2,9 2,13 0,14 -4,23 -11,29 -8,6 -17,10 -27,10l-12 0c-2,3 -3,7 -5,13l0 3zm-405 -75c0,-5 0,-10 0,-15 0,-4 0,-7 0,-10 0,-3 1,-6 1,-9 19,-12 38,-25 59,-37 22,-12 44,-23 66,-34 23,-10 46,-19 69,-28 23,-9 45,-16 67,-22l0 28c-22,6 -44,13 -67,22 -23,9 -46,18 -69,29 -22,10 -44,21 -66,33 -21,12 -40,25 -59,37 0,2 0,4 -1,6zm-117 17c1,18 4,35 8,50 6,19 13,36 23,51 10,14 21,27 33,38 11,11 24,19 37,26 1,2 1,5 1,8 0,2 0,5 0,7 0,5 0,9 -1,13 -13,-7 -26,-15 -37,-26 -12,-11 -23,-24 -33,-38 -10,-15 -17,-32 -23,-51 -6,-19 -8,-40 -8,-64 0,-5 0,-9 0,-14zm-103 12c-1,-4 -1,-9 -1,-13 0,-43 6,-81 18,-116 12,-34 27,-63 45,-87 17,-24 36,-43 56,-56 20,-13 38,-19 54,-19l8 0 38 0 1 0 0 0 541 0 53 0 1 0 0 0 35 0c16,0 31,3 45,9 13,6 24,15 31,28 5,-13 14,-23 24,-29 11,-5 23,-8 38,-8l13 0 26 0 0 0 1 0 405 0 53 0 0 0 1 0 35 0c16,0 31,3 44,9 14,6 24,15 31,28 6,-13 14,-23 25,-29 10,-5 23,-8 37,-8l39 0c11,0 19,3 26,9 6,6 9,16 9,30 0,5 0,10 -1,15 -1,-8 -4,-13 -8,-17 -7,-6 -15,-9 -26,-9l-39 0c-14,0 -27,3 -37,8 -11,6 -19,16 -25,29 -7,-13 -17,-22 -31,-28 -13,-6 -28,-9 -44,-9l-35 0 -1 0 0 0 -53 0 -405 0 -1 0 0 0 -26 0 -13 0c-15,0 -27,3 -38,8 -10,6 -19,16 -24,29 -7,-13 -18,-22 -31,-28 -14,-6 -29,-9 -45,-9l-35 0 0 0 -1 0 -53 0 -541 0 0 0 -1 0 -38 0 -8 0c-16,0 -34,6 -54,19 -20,13 -39,32 -56,56 -18,24 -33,53 -45,87 -10,31 -16,64 -17,101zm1047 -32c-1,-4 -1,-8 -1,-12 0,-4 0,-7 0,-10 0,-3 1,-6 1,-9 19,-12 39,-25 61,-37 22,-12 45,-23 68,-34 23,-10 47,-19 70,-28 24,-9 47,-16 70,-22l0 28c-23,6 -46,13 -70,22 -23,9 -47,18 -70,29 -23,10 -46,21 -68,33 -22,12 -42,25 -61,37l0 3zm-2169 1498l-223 727 12 -11 218 -710 -7 -6zm2342 -470c6,-9 11,-18 16,-28l-180 0c-251,396 -693,659 -1197,659 -571,0 -1063,-338 -1286,-825 -2,5 -4,10 -6,16 221,493 717,837 1292,837 504,0 946,-263 1197,-659l164 0zm-2305 -366c3,-13 1,-29 -4,-46 -5,-15 -9,-30 -10,-44 -2,23 2,47 10,72 2,6 3,12 4,18zm26 -209c6,-24 -3,-46 -29,-56 -19,-7 -40,-9 -60,-14l-2 0c-12,5 -24,10 -36,20 13,3 25,5 38,8 20,5 41,7 60,14 15,6 25,16 29,28zm-11 -158c3,-13 2,-27 -5,-43 -5,-11 -12,-21 -16,-31 -5,7 -5,17 0,27 4,11 11,21 16,32 2,5 4,10 5,15zm85 -186c6,-23 -3,-50 -27,-81 -16,-21 -34,-39 -52,-57 -27,-28 -56,-54 -82,-83 -25,-28 -43,-58 -46,-91 -6,44 14,83 46,119 26,29 55,55 82,83 18,18 36,36 52,57 14,19 24,37 27,53zm-189 -404c3,-58 -23,-244 -44,-351l-4 5c18,90 44,263 48,346zm2394 -217l16 0c-267,-486 -783,-815 -1377,-815 -867,0 -1570,703 -1570,1571l0 18c5,-863 706,-1561 1570,-1561 582,0 1090,317 1361,787zm-2679 1271c-61,-155 -95,-325 -97,-502l0 15c0,182 34,356 97,515 2,-4 5,-8 7,-11 23,-41 60,-51 104,-52 54,-1 107,-9 160,-15 9,-1 17,-4 25,-7 28,-11 33,-18 26,-45 -4,7 -12,11 -26,17 -8,3 -16,6 -25,7 -53,6 -106,14 -160,15 -44,1 -81,11 -104,52 -2,3 -5,7 -7,11zm237 -1058l0 0c-6,17 -15,33 -17,50 -3,16 -4,34 -3,50 1,-8 2,-15 3,-22 2,-17 11,-33 17,-50 1,-3 1,-14 0,-28zm184 404c-5,6 -13,10 -25,16 -9,3 -17,6 -26,9 -41,16 -60,57 -53,93 4,-27 23,-53 53,-65 9,-3 17,-6 26,-9 29,-13 37,-24 25,-44zm-88 186c-2,1 -4,2 -6,3 -18,7 -36,12 -53,21 -18,8 -37,16 -52,28 -14,12 -18,29 -11,42 2,-5 6,-9 11,-14 15,-12 34,-20 52,-28 17,-8 35,-14 53,-21 13,-5 18,-14 9,-27 -1,-1 -2,-3 -3,-4zm3 175c-22,32 -28,66 -25,102 2,-30 12,-59 33,-86 2,-2 3,-4 5,-7 0,-1 0,-3 0,-7 -4,-1 -9,-1 -13,-2zm243 -319c-8,-19 -1,-36 21,-42 11,-3 29,3 37,11 73,77 109,168 105,273 -3,-93 -38,-175 -105,-245 -8,-8 -26,-14 -37,-11 -10,2 -17,7 -21,14zm1 487c-8,-13 -3,-30 14,-48 50,-56 78,-121 81,-200 1,4 1,8 1,12 -1,86 -29,156 -82,216 -7,7 -11,14 -14,20zm382 -210l0 6c-2,-152 -39,-251 -106,-339 -13,-17 -28,-32 -43,-47 -15,-15 -33,-11 -46,1 -3,3 -5,5 -7,8 -7,-13 -5,-26 7,-36 13,-12 31,-16 46,-1 15,15 30,30 43,47 70,92 107,196 106,361zm-202 303c-8,-14 -2,-29 11,-42 45,-47 80,-100 100,-162 15,-48 24,-94 25,-139 2,54 -7,109 -25,167 -20,62 -55,115 -100,162 -5,4 -8,9 -11,14zm423 -350l0 9c-2,-83 -21,-163 -54,-240 -31,-72 -74,-137 -130,-193 -20,-19 -47,-17 -56,1 -2,-6 -3,-13 -3,-19 4,-27 36,-32 59,-10 56,56 99,121 130,193 36,83 55,169 54,259zm-242 445c-6,-12 -4,-25 6,-37 13,-17 29,-31 42,-48 82,-107 125,-221 128,-341 3,130 -40,253 -128,369 -13,17 -29,31 -42,48 -2,3 -4,6 -6,9z"/>
  </g>
  <path class="fil22" d="M3315 8538c5,-13 5,-26 -1,-39 -5,-13 -16,-23 -31,-29 -18,-8 -34,-9 -47,-3 -12,5 -22,15 -27,29 -3,6 -4,12 -5,19 0,6 0,11 1,15 -11,12 -26,14 -42,7 -13,-5 -21,-14 -27,-27 -5,-13 -4,-30 4,-49 5,-14 14,-27 25,-37 11,-10 24,-17 39,-22 15,-4 31,-6 48,-5 18,1 35,5 54,12 20,9 37,19 50,32 13,13 22,26 27,41 16,-6 33,-10 51,-11 18,0 37,4 56,11 30,12 51,29 64,50 12,21 14,44 4,67 -3,7 -7,14 -11,19 -5,5 -10,9 -16,12 -6,3 -11,6 -17,7 -6,1 -11,1 -16,0 5,4 9,8 13,13 4,6 7,12 9,18 2,7 3,14 3,22 0,8 -1,16 -4,24 -5,12 -12,22 -20,29 -8,8 -17,13 -27,16 2,5 4,11 5,17 1,5 2,10 1,15 -14,10 -28,24 -41,41 -13,16 -26,40 -38,70 -13,32 -21,62 -26,91 -5,3 -10,4 -16,5 -6,1 -12,0 -20,-3 -7,-3 -13,-8 -19,-13 -5,-5 -9,-13 -11,-22 -1,-9 -1,-20 1,-33 3,-14 8,-30 15,-49 12,-30 27,-54 43,-75 17,-20 32,-35 45,-45 -8,-2 -16,-5 -25,-8 -28,-12 -50,-28 -64,-49 -14,-22 -21,-46 -22,-73l-48 17c-12,4 -21,9 -27,13 -6,4 -10,9 -12,15 -3,8 -3,15 1,21 3,7 10,11 18,15 9,3 17,5 25,5 8,1 16,0 23,-1 5,8 9,17 13,27 4,9 7,19 9,29 2,10 3,21 2,31 -1,11 -3,21 -7,30 -7,18 -16,32 -28,42 -11,11 -25,18 -40,23 -15,4 -31,5 -48,3 -18,-1 -36,-6 -54,-13 -21,-9 -40,-20 -57,-34 -17,-14 -31,-32 -43,-52 -12,-20 -21,-44 -26,-70 -5,-27 -6,-57 -3,-90 1,-11 3,-24 6,-38 2,-14 5,-25 9,-34 6,-15 14,-25 25,-28 10,-3 21,-3 32,2 5,2 9,4 13,7 3,2 6,5 8,7l-7 40c-13,66 -13,118 0,154 13,36 36,61 69,74 15,7 29,8 43,5 13,-3 23,-12 29,-27 3,-6 4,-13 5,-19 1,-7 0,-12 -1,-15 -4,-1 -10,-1 -16,-2 -6,-1 -14,-4 -22,-7 -11,-5 -21,-10 -29,-17 -8,-7 -15,-15 -20,-24 -4,-9 -7,-19 -8,-29 0,-11 2,-23 7,-35 3,-9 8,-17 13,-23 6,-7 12,-13 20,-18 7,-6 16,-10 26,-15 10,-4 22,-8 35,-12 23,-8 42,-15 54,-21 13,-6 21,-15 26,-26zm2262 285c2,2 4,5 7,10 2,4 4,10 5,16 3,12 0,22 -7,32 -6,9 -19,15 -39,19 -14,3 -30,3 -46,1 -16,-3 -31,-9 -46,-18 -14,-8 -27,-21 -38,-36 -11,-16 -19,-35 -23,-59 -4,-22 -4,-43 1,-62 5,-19 12,-35 24,-49 11,-15 24,-26 40,-35 16,-10 33,-16 50,-19 27,-5 50,-4 71,2 20,7 37,16 50,27 0,-13 3,-24 11,-33 7,-10 18,-16 34,-19l78 -15c5,-1 9,-1 13,0l278 -94 34 -11 1 -1 38 -13c14,-4 27,-6 39,-4 12,2 22,7 31,16 0,-9 1,-16 4,-22l0 -1 1 -1c2,-2 3,-4 5,-6 7,-8 16,-14 27,-18l40 -13c2,-1 4,-1 7,-2l364 -181 33 -16 1 0 36 -18c13,-6 26,-10 38,-9 12,0 23,3 32,11 -1,-12 1,-23 7,-31 5,-9 14,-16 24,-21l38 -19c7,-3 14,-4 21,-2 6,2 12,7 17,17 2,5 4,10 5,15 1,5 2,10 2,14l-50 25c-9,4 -15,10 -18,17 -4,7 -2,17 4,28l157 317c-3,2 -6,5 -10,8 -5,4 -11,7 -17,10 -12,6 -22,8 -31,8 -9,-1 -17,-8 -24,-21l-147 -298c-7,-14 -18,-18 -31,-11l-9 4 0 0 -32 16 -1 1 -115 57c13,-4 27,-6 42,-6 16,0 31,4 47,10 15,7 30,16 44,30 15,13 27,30 38,51 13,28 21,55 21,82 1,26 -3,51 -13,74 -10,24 -24,45 -43,63 -19,19 -41,35 -66,47 -27,13 -53,22 -79,26 -27,4 -52,4 -77,-1 -25,-5 -49,-14 -71,-27 -23,-14 -43,-31 -62,-52 -8,-8 -16,-17 -22,-27 -7,-9 -13,-19 -18,-29 -6,-13 -8,-25 -4,-36 4,-10 11,-18 23,-24 6,-3 11,-5 16,-5 5,-1 10,-1 14,-1l13 21c19,29 38,52 58,69 21,17 41,29 61,36 20,7 40,10 61,8 20,-2 39,-8 58,-17 17,-8 31,-19 43,-31 11,-12 20,-26 25,-41 6,-15 8,-32 6,-50 -1,-17 -7,-36 -16,-55 -14,-27 -29,-44 -47,-52 -19,-9 -36,-9 -53,0 -16,8 -27,19 -30,34 -4,14 -1,29 6,45 5,9 10,16 15,22 6,5 11,9 17,13 0,6 -2,12 -7,19 -4,7 -10,12 -19,16 -11,6 -25,6 -39,1 -15,-6 -28,-20 -39,-42 -6,-11 -9,-24 -11,-37 -1,-13 0,-26 4,-39 3,-12 9,-25 17,-36 8,-12 19,-23 31,-32l-206 103 0 1 -5 1 -62 31c-2,1 -5,2 -8,3 -3,6 -2,15 1,26l114 335c-3,1 -6,4 -11,6 -6,3 -11,5 -18,8 -12,4 -23,5 -32,3 -9,-2 -16,-10 -21,-23l-106 -315c-5,-16 -15,-21 -29,-16l-9 3 -35 12 0 0 -250 85 26 76c2,8 5,17 7,27 3,10 5,19 8,29 2,10 4,19 5,27 2,8 3,15 4,19 7,-16 17,-34 28,-52 12,-18 24,-36 38,-53 13,-16 27,-32 43,-46 15,-15 31,-27 47,-36 9,1 18,4 29,10 11,6 19,13 25,20 0,11 0,24 1,37 0,13 2,27 4,43 2,16 5,33 10,52 4,19 10,40 18,62 6,19 13,36 20,51 7,15 14,28 22,40 -3,6 -6,11 -10,15 -4,5 -10,8 -17,11 -8,2 -15,3 -23,2 -8,-1 -15,-5 -22,-11 -8,-6 -15,-15 -22,-28 -8,-12 -14,-28 -21,-48 -6,-18 -11,-35 -14,-53 -3,-17 -5,-34 -6,-49 -1,-15 -1,-29 -1,-41 0,-12 1,-22 2,-30 -12,11 -24,24 -36,39 -11,15 -22,30 -32,47 -11,17 -20,34 -29,52 -9,18 -16,36 -22,53 -5,2 -10,5 -15,7 -10,3 -21,4 -32,3 -10,-1 -19,-4 -26,-10l-81 -241 -44 14c-6,3 -12,3 -17,2l69 364c-3,1 -7,3 -13,5 -5,1 -11,3 -18,4 -13,3 -24,2 -32,-1 -9,-3 -14,-12 -17,-25l-52 -281c-6,-7 -13,-14 -20,-20 -8,-7 -16,-12 -25,-16 -9,-5 -18,-8 -29,-9 -10,-2 -20,-2 -31,0 -21,4 -37,14 -48,29 -11,16 -15,35 -10,58 3,22 14,37 30,47 16,11 35,14 56,10 6,-1 10,-2 13,-4 3,-1 6,-3 9,-4zm-1290 -90l-69 370c-9,6 -24,8 -43,4 -4,0 -8,-1 -11,-3 -19,-21 -37,-41 -55,-59 -18,-18 -35,-36 -54,-52 -18,-17 -36,-33 -55,-49 -19,-16 -39,-31 -60,-47 -3,-8 -4,-17 -5,-28 0,-10 1,-21 3,-32 0,-2 0,-5 1,-7 0,-2 1,-5 2,-7 19,-9 39,-17 61,-24 23,-8 45,-14 69,-20 24,-6 47,-11 70,-15 23,-4 45,-7 66,-8l7 -37 -260 -49c-17,-3 -25,-15 -21,-35 1,-5 3,-10 5,-15 2,-5 4,-9 7,-12l419 78c1,-4 3,-7 4,-10l428 33c8,0 15,3 19,8 1,-3 3,-6 6,-8 7,-7 17,-11 29,-11 5,-1 10,0 14,1 17,38 37,67 60,87 5,-29 16,-54 35,-73 19,-18 45,-28 79,-30 17,0 31,2 44,6 13,4 25,10 34,18 4,4 8,8 12,12l0 -4c0,-5 1,-10 2,-14l65 -12c-6,-6 -12,-13 -18,-22 -5,-10 -9,-21 -11,-33 -4,-20 -3,-39 3,-56 6,-18 16,-34 31,-48 14,-15 32,-27 54,-38 22,-10 48,-18 76,-24 26,-4 50,-7 73,-7 24,1 45,2 64,5 19,2 36,6 50,10 14,4 25,8 33,11 15,6 24,12 30,18 5,6 8,12 10,18 1,9 0,17 -4,24 -4,7 -10,12 -17,16 -31,-14 -66,-25 -105,-33 -38,-7 -78,-7 -120,1 -36,6 -62,18 -80,36 -18,18 -24,39 -20,62 2,12 6,22 11,29 5,7 11,13 17,17l69 -13c8,-2 15,-1 21,3 6,3 10,10 12,21 1,5 1,10 1,16 0,5 -1,10 -2,14l-88 17 72 379c-3,2 -7,4 -12,6 -6,1 -12,3 -19,4 -13,3 -23,2 -32,-1 -9,-3 -14,-11 -17,-26l-65 -349 -51 10c-7,1 -12,1 -17,-1 1,4 2,9 2,14 0,17 -3,31 -9,43 -6,12 -14,21 -25,29 -11,8 -24,13 -39,17 -15,4 -30,7 -47,7 -15,1 -27,0 -38,-3 1,14 3,28 5,42 2,13 4,24 7,33 11,-3 27,-8 49,-16 21,-7 50,-18 87,-31 5,3 10,8 15,14 5,6 10,13 15,22 5,8 10,17 13,27 3,10 5,22 6,34 0,23 -3,44 -11,62 -8,18 -20,34 -34,47 -15,13 -33,23 -54,30 -21,7 -44,11 -69,12 -25,1 -49,-2 -72,-8 -23,-7 -44,-17 -64,-30 -20,-13 -37,-30 -53,-49 -15,-20 -27,-42 -37,-68 -8,-21 -12,-40 -13,-56 0,-15 3,-27 11,-35 7,-8 17,-13 29,-13 6,0 11,0 16,1 4,1 8,2 10,3l4 19c5,32 13,59 24,81 12,22 25,40 40,53 15,14 32,24 50,30 18,6 35,8 53,8 17,-1 31,-3 43,-8 12,-5 22,-11 29,-19 8,-8 13,-17 17,-27 3,-10 5,-20 4,-31 0,-5 0,-9 -2,-13 -1,-4 -2,-8 -3,-12 -9,4 -19,8 -30,12 -11,4 -21,8 -32,11 -11,3 -21,6 -31,9 -9,2 -17,4 -24,4 -13,0 -24,-3 -32,-9 -9,-7 -15,-17 -20,-31 -4,-15 -8,-32 -11,-51 -3,-19 -5,-40 -6,-62 -13,-5 -26,-12 -39,-21 -12,-8 -24,-17 -34,-27 -10,-10 -18,-20 -24,-30 -1,-3 -3,-6 -4,-8 -1,3 -2,6 -4,9l-89 -7 -28 376c-9,7 -23,10 -43,9 -2,0 -4,0 -6,-1 -2,0 -3,-1 -5,-1 -21,-19 -41,-37 -60,-53 -20,-16 -40,-32 -60,-46 -20,-15 -40,-29 -60,-42 -21,-14 -42,-27 -65,-41 -4,-7 -7,-16 -8,-27 -2,-10 -2,-21 -1,-32 0,-2 0,-5 1,-7 0,-3 1,-5 1,-7 18,-11 37,-22 59,-31 21,-10 43,-19 66,-28 22,-8 45,-15 68,-22 22,-6 44,-11 65,-15l2 -38 -264 -20 -4 0c-2,4 -4,8 -7,12l-87 -16zm-93 92c-31,2 -62,7 -93,15 -32,8 -61,17 -87,27 15,13 30,25 45,38 14,13 28,26 41,38 13,13 25,24 36,36 11,11 21,21 29,30 0,-7 1,-15 2,-23 1,-9 2,-18 3,-27 1,-9 3,-18 4,-26 1,-9 3,-16 4,-22l16 -86zm438 229c-1,-8 -1,-18 0,-30 0,-12 0,-24 0,-36l-119 -87c-9,4 -18,8 -27,12 -8,4 -16,9 -24,13 17,11 33,22 50,34 16,11 32,23 46,34 15,11 29,22 41,32 13,10 24,20 33,28zm9 -192c-15,3 -30,6 -45,10 -15,5 -30,9 -46,15l84 62 7 -87zm395 -120c-6,0 -12,1 -18,3 -6,3 -11,6 -16,11 -5,6 -9,12 -12,21 -3,8 -4,18 -3,30 5,1 11,2 17,3 6,1 12,1 18,1 14,-1 26,-4 36,-10 10,-6 15,-15 15,-28 0,-10 -4,-17 -11,-23 -7,-6 -16,-9 -26,-8zm-1988 -387l-188 373c-5,2 -11,2 -19,1 -7,-1 -15,-4 -24,-8 -4,-2 -7,-4 -10,-7 -6,-11 -14,-22 -23,-32 -10,-10 -24,-21 -44,-30 -7,-4 -14,-7 -20,-10 -5,-3 -11,-5 -18,-8 -6,-2 -13,-6 -20,-9 -8,-4 -17,-8 -28,-14 -17,-8 -31,-18 -42,-28 -11,-10 -19,-20 -23,-31 -5,-11 -7,-22 -7,-33 1,-11 4,-21 9,-32 7,-15 17,-24 27,-28 11,-3 21,-3 31,2 6,3 11,7 14,11 4,4 7,7 8,11 -2,3 -4,6 -5,9 -2,2 -3,5 -5,9 -6,11 -7,22 -4,33 4,10 14,19 31,28 12,6 21,10 28,13 7,3 13,6 18,8 5,2 9,4 14,6 5,2 11,5 19,9 14,7 27,15 38,24 10,9 19,19 25,30 4,-9 7,-18 11,-27 3,-9 7,-18 11,-28 -25,-37 -52,-74 -81,-110 -29,-36 -59,-70 -89,-102 -1,-5 0,-12 3,-22 3,-10 6,-18 9,-25 4,-7 7,-12 11,-16 17,-1 37,0 59,1 22,1 45,4 68,7 23,3 46,7 69,11 24,5 45,10 66,15l17 -33 -250 -126c-17,-8 -20,-22 -11,-40 3,-5 5,-9 9,-13 3,-4 6,-7 10,-10l395 199c15,8 19,21 10,39 -3,4 -5,9 -9,13 -3,4 -7,7 -10,10l-80 -40zm-165 180c4,-12 10,-25 16,-39 6,-14 11,-26 16,-37l25 -49c-30,-8 -61,-15 -93,-19 -31,-4 -60,-7 -85,-7 22,23 44,48 65,75 22,26 40,52 56,76zm577 2c-12,-5 -25,-7 -37,-5 -13,1 -24,5 -35,11 0,3 -1,6 -2,9 -1,3 -2,5 -3,8 -5,13 -12,24 -20,32 -7,20 -7,39 0,58 7,18 21,32 41,40 24,9 39,5 46,-12 3,-7 3,-14 0,-21 -4,-7 -12,-13 -24,-18l-24 -10c-2,-8 -1,-17 3,-26 5,-12 10,-19 15,-24l23 10c12,4 21,6 29,3 7,-2 12,-7 15,-14 3,-8 2,-16 -3,-23 -5,-7 -13,-13 -24,-18z"/>
  <path class="fil23" d="M3315 8510c5,-13 5,-26 -1,-39 -5,-13 -16,-23 -31,-29 -18,-8 -34,-9 -47,-3 -12,5 -22,15 -27,29 -3,6 -4,12 -5,18 0,7 0,12 1,16 -11,12 -26,14 -42,7 -13,-5 -21,-14 -27,-27 -5,-13 -4,-30 4,-49 5,-14 14,-27 25,-37 11,-10 24,-17 39,-22 15,-4 31,-6 48,-5 18,1 35,5 54,12 20,8 37,19 50,32 13,13 22,26 27,41 16,-7 33,-10 51,-11 18,0 37,3 56,11 30,12 51,29 64,50 12,21 14,44 4,67 -3,7 -7,14 -11,19 -5,5 -10,9 -16,12 -6,3 -11,6 -17,7 -6,1 -11,1 -16,0 5,4 9,8 13,13 4,6 7,12 9,18 2,7 3,14 3,22 0,8 -1,16 -4,24 -5,12 -12,22 -20,29 -8,8 -17,13 -27,16 2,5 4,11 5,17 1,5 2,10 1,15 -14,10 -28,24 -41,41 -13,16 -26,40 -38,70 -13,32 -21,62 -26,91 -5,3 -10,4 -16,5 -6,1 -12,0 -20,-3 -7,-3 -13,-8 -19,-13 -5,-5 -9,-13 -11,-22 -1,-9 -1,-20 1,-33 3,-14 8,-30 15,-49 12,-30 27,-54 43,-75 17,-20 32,-35 45,-45 -8,-2 -16,-5 -25,-8 -28,-12 -50,-28 -64,-49 -14,-22 -21,-46 -22,-73l-48 17c-12,4 -21,9 -27,13 -6,4 -10,9 -12,15 -3,8 -3,15 1,21 3,7 10,11 18,15 9,3 17,5 25,5 8,1 16,0 23,-1 5,8 9,17 13,27 4,9 7,19 9,29 2,10 3,21 2,31 -1,11 -3,21 -7,30 -7,18 -16,32 -28,42 -11,11 -25,18 -40,23 -15,4 -31,5 -48,3 -18,-1 -36,-6 -54,-13 -21,-9 -40,-20 -57,-34 -17,-14 -31,-32 -43,-52 -12,-20 -21,-44 -26,-70 -5,-27 -6,-57 -3,-90 1,-11 3,-24 6,-38 2,-14 5,-25 9,-34 6,-15 14,-25 25,-28 10,-3 21,-3 32,2 5,2 9,4 13,7 3,2 6,5 8,7l-7 40c-13,66 -13,118 0,154 13,36 36,61 69,74 15,6 29,8 43,5 13,-3 23,-12 29,-27 3,-6 4,-13 5,-19 1,-7 0,-12 -1,-15 -4,-1 -10,-1 -16,-2 -6,-1 -14,-4 -22,-7 -11,-5 -21,-10 -29,-17 -8,-7 -15,-15 -20,-24 -4,-9 -7,-19 -8,-29 0,-11 2,-23 7,-35 3,-9 8,-17 13,-23 6,-7 12,-13 20,-18 7,-6 16,-10 26,-15 10,-4 22,-8 35,-12 23,-8 42,-15 54,-21 13,-6 21,-15 26,-26zm2262 285c2,2 4,5 7,10 2,4 4,10 5,16 3,12 0,22 -7,32 -6,9 -19,15 -39,19 -14,3 -30,3 -46,1 -16,-3 -31,-9 -46,-18 -14,-8 -27,-21 -38,-36 -11,-16 -19,-35 -23,-59 -4,-22 -4,-43 1,-62 5,-19 12,-35 24,-49 11,-15 24,-26 40,-35 16,-10 33,-16 50,-19 27,-5 50,-4 71,2 20,7 37,16 50,27 0,-13 3,-24 11,-33 7,-10 18,-16 34,-19l78 -15c5,-1 9,-1 13,0l278 -94 34 -11 1 -1 38 -13c14,-4 27,-6 39,-4 12,2 22,7 31,16 0,-9 1,-16 4,-22l0 -1 1 -1c2,-2 3,-4 5,-6 7,-8 16,-14 27,-18l40 -13c2,-1 4,-1 7,-2l364 -181 33 -16 1 0 36 -18c13,-6 26,-10 38,-9 12,0 23,3 32,11 -1,-12 1,-23 7,-31 5,-9 14,-16 24,-21l38 -19c7,-4 14,-4 21,-2 6,2 12,7 17,17 2,5 4,10 5,15 1,5 2,10 2,14l-50 25c-9,4 -15,10 -18,17 -4,7 -2,17 4,28l157 317c-3,2 -6,5 -10,8 -5,4 -11,7 -17,10 -12,6 -22,8 -31,8 -9,-1 -17,-8 -24,-21l-147 -298c-7,-14 -18,-18 -31,-11l-9 4 0 0 -32 16 -1 1 -115 57c13,-4 27,-6 42,-6 16,0 31,4 47,10 15,7 30,16 44,30 15,13 27,30 38,51 13,28 21,55 21,82 1,26 -3,51 -13,74 -10,24 -24,45 -43,63 -19,19 -41,35 -66,47 -27,13 -53,22 -79,26 -27,4 -52,4 -77,-1 -25,-5 -49,-14 -71,-27 -23,-14 -43,-31 -62,-52 -8,-8 -16,-17 -22,-27 -7,-10 -13,-19 -18,-29 -6,-13 -8,-25 -4,-36 4,-10 11,-18 23,-24 6,-3 11,-5 16,-5 5,-1 10,-1 14,-1l13 21c19,29 38,52 58,69 21,17 41,29 61,36 20,7 40,10 61,8 20,-2 39,-8 58,-17 17,-8 31,-19 43,-31 11,-12 20,-26 25,-41 6,-15 8,-32 6,-50 -1,-17 -7,-36 -16,-55 -14,-27 -29,-44 -47,-52 -19,-9 -36,-9 -53,0 -16,8 -27,19 -30,34 -4,14 -1,29 6,45 5,9 10,16 15,22 6,5 11,9 17,13 0,6 -2,12 -7,19 -4,7 -10,12 -19,16 -11,6 -25,6 -39,1 -15,-6 -28,-20 -39,-42 -6,-11 -9,-24 -11,-37 -1,-13 0,-26 4,-39 3,-12 9,-25 17,-36 8,-12 19,-23 31,-32l-206 103 0 1 -5 1 -62 31c-2,1 -5,2 -8,3 -3,6 -2,15 1,25l114 336c-3,1 -6,4 -11,6 -6,3 -11,5 -18,8 -12,4 -23,5 -32,3 -9,-2 -16,-10 -21,-23l-106 -316c-5,-15 -15,-20 -29,-15l-9 3 -35 12 0 0 -250 84 26 77c2,8 5,17 7,27 3,10 5,19 8,29 2,10 4,19 5,27 2,8 3,15 4,19 7,-16 17,-34 28,-52 12,-18 24,-36 38,-53 13,-16 27,-32 43,-46 15,-15 31,-27 47,-36 9,1 18,4 29,10 11,6 19,13 25,20 0,11 0,24 1,37 0,13 2,27 4,43 2,16 5,33 10,52 4,19 10,40 18,62 6,19 13,36 20,51 7,15 14,28 22,40 -3,6 -6,11 -10,15 -4,5 -10,8 -17,11 -8,2 -15,3 -23,2 -8,-1 -15,-5 -22,-11 -8,-6 -15,-15 -22,-28 -8,-12 -14,-28 -21,-48 -6,-18 -11,-36 -14,-53 -3,-17 -5,-34 -6,-49 -1,-15 -1,-29 -1,-41 0,-12 1,-22 2,-30 -12,11 -24,24 -36,39 -11,15 -22,30 -32,47 -11,17 -20,34 -29,52 -9,18 -16,36 -22,52 -5,3 -10,6 -15,8 -10,3 -21,4 -32,3 -10,-1 -19,-4 -26,-10l-81 -241 -44 14c-6,3 -12,3 -17,2l69 364c-3,1 -7,3 -13,5 -5,1 -11,3 -18,4 -13,3 -24,2 -32,-1 -9,-3 -14,-12 -17,-25l-52 -281c-6,-7 -13,-14 -20,-20 -8,-7 -16,-12 -25,-16 -9,-5 -18,-8 -29,-9 -10,-2 -20,-2 -31,0 -21,4 -37,14 -48,29 -11,16 -15,35 -10,58 3,22 14,37 30,47 16,11 35,14 56,10 6,-1 10,-2 13,-4 3,-2 6,-3 9,-4zm-1290 -90l-69 370c-9,6 -24,8 -43,4 -4,0 -8,-1 -11,-3 -19,-21 -37,-41 -55,-59 -18,-18 -35,-36 -54,-52 -18,-17 -36,-33 -55,-49 -19,-16 -39,-31 -60,-47 -3,-8 -4,-17 -5,-28 0,-10 1,-21 3,-32 0,-2 0,-5 1,-7 0,-2 1,-5 2,-7 19,-9 39,-17 61,-24 23,-8 45,-14 69,-20 24,-6 47,-11 70,-15 23,-4 45,-7 66,-8l7 -37 -260 -49c-17,-3 -25,-15 -21,-35 1,-5 3,-10 5,-15 2,-5 4,-9 7,-12l419 78c1,-4 3,-7 4,-10l428 33c8,0 15,3 19,8 1,-3 3,-6 6,-8 7,-7 17,-11 29,-11 5,-1 10,0 14,1 17,38 37,67 60,87 5,-29 16,-54 35,-73 19,-18 45,-28 79,-30 17,0 31,2 44,6 13,4 25,10 34,18 4,4 8,8 12,12l0 -4c0,-5 1,-10 2,-14l65 -12c-6,-6 -12,-13 -18,-22 -5,-10 -9,-21 -11,-33 -4,-20 -3,-39 3,-56 6,-18 16,-34 31,-48 14,-15 32,-27 54,-38 22,-10 48,-18 76,-24 26,-4 50,-7 73,-7 24,0 45,2 64,4 19,3 36,7 50,11 14,4 25,8 33,11 15,6 24,12 30,18 5,6 8,12 10,18 1,9 0,17 -4,24 -4,7 -10,12 -17,16 -31,-14 -66,-25 -105,-33 -38,-7 -78,-7 -120,1 -36,6 -62,18 -80,36 -18,18 -24,39 -20,62 2,12 6,22 11,29 5,7 11,13 17,16l69 -13c8,-1 15,0 21,4 6,3 10,10 12,21 1,5 1,10 1,16 0,5 -1,10 -2,14l-88 16 72 380c-3,2 -7,4 -12,6 -6,1 -12,3 -19,4 -13,3 -23,2 -32,-1 -9,-3 -14,-12 -17,-26l-65 -349 -51 10c-7,1 -12,1 -17,-1 1,4 2,9 2,14 0,17 -3,31 -9,43 -6,12 -14,21 -25,29 -11,8 -24,13 -39,17 -15,4 -30,7 -47,7 -15,1 -27,0 -38,-3 1,14 3,28 5,42 2,13 4,24 7,33 11,-3 27,-8 49,-16 21,-7 50,-18 87,-31 5,3 10,8 15,14 5,6 10,13 15,22 5,8 10,17 13,27 3,10 5,22 6,34 0,23 -3,44 -11,62 -8,18 -20,34 -34,47 -15,13 -33,23 -54,30 -21,7 -44,11 -69,12 -25,1 -49,-2 -72,-8 -23,-7 -44,-17 -64,-30 -20,-13 -37,-30 -53,-49 -15,-20 -27,-42 -37,-68 -8,-21 -12,-40 -13,-56 0,-15 3,-27 11,-35 7,-8 17,-13 29,-13 6,0 11,0 16,1 4,1 8,2 10,3l4 19c5,32 13,59 24,81 12,22 25,40 40,53 15,14 32,24 50,30 18,6 35,8 53,8 17,-1 31,-3 43,-8 12,-5 22,-11 29,-19 8,-8 13,-17 17,-27 3,-10 5,-20 4,-31 0,-5 0,-9 -2,-13 -1,-4 -2,-8 -3,-12 -9,4 -19,8 -30,12 -11,4 -21,8 -32,11 -11,3 -21,6 -31,9 -9,2 -17,4 -24,4 -13,0 -24,-3 -32,-9 -9,-7 -15,-17 -20,-31 -4,-15 -8,-32 -11,-51 -3,-19 -5,-40 -6,-62 -13,-5 -26,-12 -39,-21 -12,-8 -24,-17 -34,-27 -10,-10 -18,-20 -24,-30 -1,-3 -3,-6 -4,-8 -1,3 -2,6 -4,9l-89 -7 -28 376c-9,7 -23,10 -43,9 -2,0 -4,0 -6,-1 -2,0 -3,-1 -5,-1 -21,-19 -41,-37 -60,-53 -20,-16 -40,-32 -60,-46 -20,-15 -40,-29 -60,-42 -21,-14 -42,-27 -65,-41 -4,-7 -7,-16 -8,-27 -2,-10 -2,-21 -1,-32 0,-2 0,-5 1,-7 0,-3 1,-5 1,-7 18,-11 37,-22 59,-31 21,-10 43,-19 66,-28 22,-8 45,-15 68,-22 22,-6 44,-11 65,-15l2 -38 -264 -20 -4 0c-2,4 -4,8 -7,12l-87 -16zm-93 92c-31,2 -62,7 -93,15 -32,8 -61,17 -87,27 15,13 30,25 45,38 14,13 28,26 41,38 13,13 25,24 36,36 11,11 21,21 29,30 0,-7 1,-15 2,-23 1,-9 2,-18 3,-27 1,-9 3,-18 4,-26 1,-9 3,-16 4,-22l16 -86zm438 229c-1,-8 -1,-18 0,-30 0,-12 0,-24 0,-36l-119 -87c-9,4 -18,8 -27,12 -8,4 -16,9 -24,13 17,11 33,22 50,34 16,11 32,23 46,34 15,11 29,22 41,32 13,10 24,20 33,28zm9 -192c-15,3 -30,6 -45,10 -15,4 -30,9 -46,15l84 62 7 -87zm395 -120c-6,0 -12,1 -18,3 -6,3 -11,6 -16,11 -5,6 -9,12 -12,20 -3,9 -4,19 -3,31 5,1 11,2 17,3 6,1 12,1 18,1 14,-1 26,-4 36,-10 10,-6 15,-15 15,-28 0,-10 -4,-17 -11,-23 -7,-6 -16,-9 -26,-8zm-1988 -387l-188 373c-5,2 -11,2 -19,1 -7,-1 -15,-4 -24,-8 -4,-2 -7,-4 -10,-7 -6,-11 -14,-22 -23,-32 -10,-11 -24,-21 -44,-30 -7,-4 -14,-7 -20,-10 -5,-3 -11,-5 -18,-8 -6,-3 -13,-6 -20,-9 -8,-4 -17,-8 -28,-14 -17,-8 -31,-18 -42,-28 -11,-10 -19,-20 -23,-31 -5,-11 -7,-22 -7,-33 1,-11 4,-21 9,-32 7,-15 17,-24 27,-28 11,-3 21,-3 31,2 6,3 11,7 14,11 4,4 7,7 8,11 -2,3 -4,6 -5,9 -2,2 -3,5 -5,9 -6,11 -7,22 -4,32 4,11 14,20 31,29 12,6 21,10 28,13 7,3 13,6 18,8 5,2 9,4 14,6 5,2 11,5 19,9 14,7 27,15 38,24 10,9 19,19 25,29 4,-8 7,-17 11,-26 3,-9 7,-18 11,-28 -25,-37 -52,-74 -81,-110 -29,-36 -59,-70 -89,-102 -1,-5 0,-12 3,-22 3,-10 6,-18 9,-25 4,-7 7,-12 11,-16 17,-1 37,0 59,1 22,1 45,4 68,7 23,3 46,7 69,11 24,5 45,10 66,15l17 -33 -250 -126c-17,-8 -20,-22 -11,-40 3,-5 5,-9 9,-13 3,-4 6,-7 10,-10l395 199c15,8 19,21 10,39 -3,4 -5,9 -9,13 -3,4 -7,7 -10,10l-80 -40zm-165 180c4,-12 10,-25 16,-39 6,-14 11,-26 16,-37l25 -49c-30,-8 -61,-15 -93,-19 -31,-4 -60,-7 -85,-7 22,23 44,48 65,75 22,26 40,52 56,76zm577 2c-12,-5 -25,-7 -37,-5 -13,1 -24,5 -35,11 0,3 -1,6 -2,9 -1,3 -2,5 -3,8 -5,13 -12,24 -20,32 -7,20 -7,39 0,58 7,18 21,32 41,40 24,9 39,5 46,-12 3,-7 3,-14 0,-21 -4,-7 -12,-13 -24,-18l-24 -10c-2,-8 -1,-17 3,-26 5,-12 10,-19 15,-24l23 10c12,4 21,6 29,3 7,-2 12,-7 15,-14 3,-8 2,-16 -3,-23 -5,-7 -13,-13 -24,-18z"/>
  <path class="fil24" d="M3315 8510c1,-2 1,-4 2,-5 3,11 2,22 -2,33 -5,11 -13,20 -26,26 -12,6 -31,13 -54,21 -13,4 -25,8 -35,12 -10,5 -19,9 -26,15 -8,5 -14,11 -20,18 -5,6 -10,14 -13,23 -3,6 -4,11 -5,17 -1,-3 -1,-7 -2,-10 0,-11 2,-23 7,-35 3,-9 8,-17 13,-23 6,-7 12,-13 20,-18 7,-6 16,-10 26,-15 10,-4 22,-8 35,-12 23,-8 42,-15 54,-21 13,-6 21,-15 26,-26zm-180 -33c-4,-12 -2,-27 5,-44 5,-14 14,-27 25,-37 11,-10 24,-17 39,-22 15,-4 31,-6 48,-5 18,1 35,5 54,12 20,8 37,19 50,32 13,13 22,26 27,41 16,-7 33,-10 51,-11 18,0 37,3 56,11 30,12 51,29 64,50 9,17 13,34 9,52 -2,-8 -5,-16 -9,-24 -13,-21 -34,-38 -64,-50 -19,-7 -38,-11 -56,-11 -18,1 -35,5 -51,11 -5,-15 -14,-28 -27,-41 -13,-13 -30,-23 -50,-32 -19,-7 -36,-11 -54,-12 -17,-1 -33,1 -48,5 -15,5 -28,12 -39,22 -11,10 -20,23 -25,37 -3,6 -4,11 -5,16zm383 159c1,1 2,3 2,4 2,7 3,14 3,22 0,5 0,9 -1,14 -1,-3 -1,-5 -2,-8 -2,-6 -5,-12 -9,-18 -4,-5 -8,-9 -13,-13 5,1 10,1 16,0 1,0 3,-1 4,-1zm-40 121c0,2 0,4 0,6l-4 2 -2 -6c2,0 4,-1 6,-2zm-171 175c-1,-9 -1,-20 1,-33 3,-14 8,-30 15,-49 12,-30 27,-54 43,-75 8,-9 15,-17 22,-24 8,3 15,5 23,7 -13,10 -28,25 -45,45 -16,21 -31,45 -43,75 -7,19 -12,35 -15,49l-1 5zm-92 -264c4,6 10,10 17,13 9,3 17,5 25,5 8,1 16,0 23,-1 5,8 9,17 13,27 4,9 7,19 9,29 2,10 3,21 2,31l0 6c-1,-3 -1,-6 -2,-9 -2,-10 -5,-20 -9,-29 -4,-10 -8,-19 -13,-27 -7,1 -15,2 -23,1 -8,0 -16,-2 -25,-5 -8,-4 -15,-8 -18,-15 -4,-6 -4,-13 -1,-21 0,-2 1,-3 2,-5zm-218 -6c-1,-16 -1,-33 1,-51 1,-11 3,-24 6,-38 2,-14 5,-25 9,-34 6,-15 14,-25 25,-28 10,-3 21,-3 32,2 5,2 9,4 13,7 3,2 6,5 8,7l-4 24 -4 -3c-4,-3 -8,-5 -13,-7 -11,-5 -22,-5 -32,-2 -11,3 -19,13 -25,28 -4,9 -7,20 -9,34 -3,14 -5,27 -6,38 -1,8 -1,16 -1,23zm77 6c1,21 4,38 10,53 13,36 36,61 69,74 15,6 29,8 43,5 13,-3 23,-12 29,-27 1,-2 2,-4 3,-6l1 0c1,3 2,8 1,15 -1,6 -2,13 -5,19 -6,15 -16,24 -29,27 -14,3 -28,2 -43,-5 -33,-13 -56,-38 -69,-74 -8,-21 -11,-48 -10,-81zm2503 127c2,2 4,5 7,10 2,4 4,10 5,16 2,8 1,15 -1,22 -1,-4 -3,-7 -4,-10 -3,-5 -5,-8 -7,-10 -3,1 -6,3 -9,4 -3,2 -7,3 -13,4 -21,4 -40,1 -56,-10 -16,-10 -27,-25 -30,-47 -3,-11 -3,-22 -1,-32l1 4c3,22 14,37 30,47 16,11 35,14 56,10 6,-1 10,-2 13,-4 3,-2 6,-3 9,-4zm-189 -51c-2,-16 -1,-31 3,-46 5,-19 12,-35 24,-49 11,-15 24,-26 40,-35 16,-10 33,-16 50,-19 27,-5 50,-4 71,2 20,7 37,16 50,27 0,-13 3,-24 11,-33 7,-10 18,-16 34,-19l78 -15c5,-1 9,-1 13,0l278 -94 34 -11 1 -1 38 -13c14,-4 27,-6 39,-4 12,2 22,7 31,16 0,-9 1,-16 4,-22l0 -1 1 -1c2,-2 3,-4 5,-6 7,-8 16,-14 27,-18l40 -13c2,-1 4,-1 7,-2l364 -181 33 -16 1 0 36 -18c13,-6 26,-10 38,-9 12,0 23,3 32,11 -1,-12 1,-23 7,-31 5,-9 14,-16 24,-21l38 -19c7,-4 14,-4 21,-2 6,2 12,7 17,17 2,5 4,10 5,15 1,5 2,10 2,14l-6 3 -1 -4c-5,-10 -11,-15 -17,-17 -7,-2 -14,-1 -21,2l-38 19c-10,5 -19,12 -24,21 -6,8 -8,19 -7,31 -9,-8 -20,-11 -32,-11 -12,-1 -25,3 -38,9l-36 18 -1 0 -33 16 -364 181c-3,1 -5,1 -7,2l-40 13c-11,4 -20,10 -27,18 -2,2 -3,4 -5,6l-1 1 0 1c-3,6 -4,13 -4,22 -9,-9 -19,-14 -31,-16 -12,-2 -25,0 -39,4l-38 13 -1 1 -34 11 -278 94c-4,-1 -8,-1 -13,0l-78 15c-16,3 -27,9 -34,19 -8,9 -11,20 -11,33 -13,-11 -30,-20 -50,-27 -21,-6 -44,-7 -71,-2 -17,3 -34,9 -50,19 -16,9 -29,20 -40,35 -12,14 -19,30 -24,49 -2,6 -3,12 -3,18zm1431 -530l2 3 157 317c-2,2 -6,5 -10,8l-147 -297c-6,-11 -8,-21 -4,-28 0,-1 1,-2 2,-3zm-195 90c9,2 17,5 26,8 15,7 30,16 44,30 15,13 27,30 38,51 13,28 21,55 21,82 1,6 0,12 0,19 -2,-24 -9,-48 -21,-73 -11,-21 -23,-38 -38,-51 -14,-14 -29,-23 -44,-30 -16,-6 -31,-10 -47,-10 -15,0 -29,2 -42,6l63 -32zm-325 236c-4,-10 -4,-18 -1,-27 4,-10 11,-18 23,-24 6,-3 11,-5 16,-5 5,-1 10,-1 14,-1l13 21c19,29 38,52 58,69 21,17 41,29 61,36 20,7 40,10 61,8 20,-2 39,-8 58,-17 17,-8 31,-19 43,-31 11,-12 20,-26 25,-41 3,-8 5,-16 6,-24l0 2c2,18 0,35 -6,50 -5,15 -14,29 -25,41 -12,12 -26,23 -43,31 -19,9 -38,15 -58,17 -21,2 -41,-1 -61,-8 -20,-7 -40,-19 -61,-36 -20,-17 -39,-40 -58,-69l-13 -21c-4,0 -9,0 -14,1 -5,0 -10,2 -16,5 -11,6 -18,13 -22,23zm231 -107c1,5 3,11 6,17 5,9 10,16 15,22 6,5 11,9 17,13 0,6 -2,12 -7,19 0,1 -1,2 -2,3 -2,-2 -5,-5 -8,-7 -5,-6 -10,-13 -15,-22 -7,-16 -10,-31 -6,-45l0 0zm-76 12l-1 -3c-1,-13 0,-26 4,-39 1,-6 4,-13 7,-19l41 -21c-12,9 -23,20 -31,32 -8,11 -14,24 -17,36 -2,5 -3,9 -3,14zm-228 56l113 334c-2,1 -5,3 -8,4l-106 -311c-3,-11 -4,-20 -1,-26l2 -1zm-390 122l18 51c2,8 5,17 7,27 3,10 5,19 8,29 2,10 4,19 5,27 2,8 3,15 4,19 7,-16 17,-34 28,-52 12,-18 24,-36 38,-53 13,-16 27,-32 43,-46 15,-15 31,-27 47,-36 9,1 18,4 29,10 11,6 19,13 25,20 0,11 0,24 1,37 0,13 2,27 4,43 2,16 5,33 10,52 4,19 10,40 18,62 6,19 13,36 20,51 7,15 14,28 22,40 -2,5 -5,10 -9,14 -4,-8 -9,-17 -13,-26 -7,-15 -14,-32 -20,-51 -8,-22 -14,-43 -18,-62 -5,-19 -8,-36 -10,-52 -2,-16 -4,-30 -4,-43 -1,-13 -1,-26 -1,-37 -6,-7 -14,-14 -25,-20 -11,-6 -20,-9 -29,-10 -16,9 -32,21 -47,36 -16,14 -30,30 -43,46 -14,17 -26,35 -38,53 -11,18 -21,36 -28,52 -1,-4 -2,-11 -4,-19 -1,-8 -3,-17 -5,-27 -3,-10 -5,-19 -8,-29 -2,-10 -5,-19 -7,-27l-26 -76 8 -3zm191 103c0,-8 0,-16 0,-24l2 -2c-1,7 -1,16 -2,26zm-326 -60l63 336c-2,1 -3,1 -5,2l-64 -338c2,0 4,0 6,0zm-1765 184c-1,-3 -1,-6 -1,-9 0,-10 1,-21 3,-32 0,-2 0,-5 1,-7 0,-2 1,-5 2,-7 19,-9 39,-17 61,-24 23,-8 45,-14 69,-20 24,-6 47,-11 70,-15 23,-4 45,-7 66,-8l2 -10 5 1 -7 37c-21,1 -43,4 -66,8 -23,4 -46,9 -70,15 -24,6 -46,12 -69,20 -22,7 -42,15 -61,24 -1,2 -2,5 -2,7 -1,2 -1,5 -1,7 -1,4 -2,9 -2,13zm-1 -221c-3,-6 -4,-13 -2,-22 1,-5 3,-10 5,-15 2,-5 4,-9 7,-12l419 78c1,-4 3,-7 4,-10l428 33c8,0 15,3 19,8 1,-3 3,-6 6,-8 7,-7 17,-11 29,-11 5,-1 10,0 14,1 17,38 37,67 60,87 5,-29 16,-54 35,-73 19,-18 45,-28 79,-30 17,0 31,2 44,6 13,4 25,10 34,18 4,4 8,8 12,12l0 -4c0,-5 1,-10 2,-14l46 -9 1 3c6,9 12,16 18,22l-65 12c-1,4 -2,9 -2,14l0 4c-4,-4 -8,-8 -12,-12 -9,-8 -21,-14 -34,-18 -13,-4 -27,-6 -44,-6 -34,2 -60,12 -79,30 -19,19 -30,44 -35,73 -23,-20 -43,-49 -60,-87 -4,-1 -9,-2 -14,-1 -12,0 -22,4 -29,11 -3,2 -5,5 -6,8 -4,-5 -11,-8 -19,-8l-428 -33c-1,3 -3,6 -4,10l-419 -78c-3,3 -5,7 -7,12 -1,3 -2,6 -3,9zm1229 -31c-2,-17 0,-33 5,-48 6,-18 16,-34 31,-48 14,-15 32,-27 54,-38 22,-10 48,-18 76,-24 26,-4 50,-7 73,-7 24,0 45,2 64,4 19,3 36,7 50,11 14,4 25,8 33,11 15,6 24,12 30,18 5,6 8,12 10,18 1,8 0,15 -3,21 -1,-4 -4,-8 -7,-11 -6,-6 -15,-12 -30,-18 -8,-3 -19,-7 -33,-11 -14,-4 -31,-8 -50,-10 -19,-3 -40,-4 -64,-5 -23,0 -47,3 -73,7 -28,6 -54,14 -76,24 -22,11 -40,23 -54,38 -15,14 -25,30 -31,48 -2,6 -4,13 -5,20zm80 4c2,11 6,21 11,28 5,7 11,13 17,16l69 -13c8,-1 15,0 21,4 6,3 10,10 12,21 1,5 1,10 1,16 0,4 -1,8 -2,11 -2,-10 -5,-17 -11,-20 -6,-4 -13,-5 -21,-3l-69 13c-6,-4 -12,-10 -17,-17 -5,-7 -9,-17 -11,-29 -2,-9 -2,-18 0,-27zm46 130l67 352c-2,1 -3,2 -5,3l-67 -354 5 -1zm-145 23l0 4 -1 -4 1 0zm-154 108l2 13c2,13 4,24 7,33 11,-3 27,-8 49,-16 21,-7 50,-18 87,-31 5,3 10,8 15,14 5,6 10,13 15,22 5,8 10,17 13,27 3,10 5,22 6,34 0,7 0,14 -1,20 -1,-9 -2,-18 -5,-26 -3,-10 -8,-19 -13,-27 -5,-9 -10,-16 -15,-22 -5,-6 -10,-11 -15,-14 -37,13 -66,24 -87,31 -22,8 -38,13 -49,16 -3,-9 -5,-20 -7,-33 -2,-14 -4,-28 -5,-42l3 1zm-212 49c0,-5 -1,-9 -1,-13 0,-15 3,-27 11,-35 7,-8 17,-13 29,-13 6,0 11,0 16,1 4,1 8,2 10,3l4 19c5,32 13,59 24,81 12,22 25,40 40,53 15,14 32,24 50,30 18,6 35,8 53,8 17,-1 31,-3 43,-8 12,-5 22,-11 29,-19 8,-8 13,-17 17,-27 1,-4 2,-9 3,-13 1,3 1,7 1,10 1,11 -1,21 -4,31 -4,10 -9,19 -17,27 -7,8 -17,14 -29,19 -12,5 -26,7 -43,8 -18,0 -35,-2 -53,-8 -18,-6 -35,-16 -50,-30 -15,-13 -28,-31 -40,-53 -11,-22 -19,-49 -24,-81l-4 -19c-2,-1 -6,-2 -10,-3 -5,-1 -10,-1 -16,-1 -12,0 -22,5 -29,13 -5,5 -8,12 -10,20zm-392 -10c-1,-8 -1,-16 0,-25 0,-2 0,-5 1,-7 0,-3 1,-5 1,-7 18,-11 37,-22 59,-31 21,-10 43,-19 66,-28 22,-8 45,-15 68,-22 22,-6 44,-11 65,-15l0 -10 2 0 -2 38c-21,4 -43,9 -65,15 -23,7 -46,14 -68,22 -23,9 -45,18 -66,28 -22,9 -41,20 -59,31 0,2 -1,4 -1,7l-1 4zm-350 -43c7,6 15,12 22,18 14,13 28,26 41,38 13,13 25,24 36,36 11,11 21,21 29,30 0,-7 1,-15 2,-23 1,-9 2,-18 3,-27 1,-9 3,-18 4,-26 1,-9 3,-16 4,-22l11 -58 5 0 -16 86c-1,6 -3,13 -4,22 -1,8 -3,17 -4,26 -1,9 -2,18 -3,27 -1,8 -2,16 -2,23 -8,-9 -18,-19 -29,-30 -11,-12 -23,-23 -36,-36 -13,-12 -27,-25 -41,-38 -15,-13 -30,-25 -45,-38 7,-3 15,-6 23,-8zm595 162c-1,-6 -1,-15 0,-25l0 -8 0 0c0,11 0,22 0,33zm-146 -107c8,6 17,11 26,18 16,11 32,23 46,34 15,11 29,22 41,32 13,10 23,19 33,28 -1,11 -1,21 0,28 -9,-8 -20,-18 -33,-28 -12,-10 -26,-21 -41,-32 -14,-11 -30,-23 -46,-34 -17,-12 -33,-23 -50,-34 8,-4 15,-8 24,-12zm90 -36l58 43 5 -59 2 0 -7 87 -84 -62c9,-3 18,-6 26,-9zm413 -98c5,1 10,1 15,2 6,1 12,1 18,1 14,-1 26,-4 36,-10 6,-3 10,-7 12,-13 2,4 3,8 3,13 0,13 -5,22 -15,28 -10,6 -22,9 -36,10 -6,0 -12,0 -18,-1 -6,-1 -12,-2 -17,-3 -1,-11 0,-20 2,-27zm-2405 -272c-2,-5 -2,-11 -2,-17 1,-11 4,-21 9,-32 7,-15 17,-24 27,-28 11,-3 21,-3 31,2 6,3 11,7 14,11 4,4 7,7 8,11 -2,3 -4,6 -5,9 -1,2 -3,4 -4,7 -3,-4 -8,-7 -13,-10 -10,-5 -20,-5 -31,-2 -10,4 -20,13 -27,28 -4,7 -6,14 -7,21zm74 -1c4,10 14,19 30,27 12,6 21,10 28,13 7,3 13,6 18,8 5,2 9,4 14,6 5,2 11,5 19,9 14,7 27,15 38,24 10,9 19,19 25,29 4,-8 7,-17 11,-26l4 -11 7 11c-4,10 -8,19 -11,28 -4,9 -7,18 -11,27 -6,-11 -15,-21 -25,-30 -11,-9 -24,-17 -38,-24 -8,-4 -14,-7 -19,-9 -5,-2 -9,-4 -14,-6 -5,-2 -11,-5 -18,-8 -7,-3 -16,-7 -28,-13 -17,-9 -27,-18 -31,-28 -2,-9 -2,-18 1,-27zm28 -146l-4 -4c-1,-5 0,-12 3,-22 3,-10 6,-18 9,-25 4,-7 7,-12 11,-16 17,-1 37,0 59,1 22,1 45,4 68,7 23,3 46,7 69,11 24,5 45,10 66,15l6 -11 11 6 -17 33c-21,-5 -42,-10 -66,-15 -23,-4 -46,-8 -69,-11 -23,-3 -46,-6 -68,-7 -22,-1 -42,-2 -59,-1 -4,4 -7,9 -11,16 -3,6 -6,14 -8,23zm36 -202c-5,-7 -5,-17 1,-30 3,-5 5,-9 9,-13 3,-4 6,-7 10,-10l395 199c15,7 19,20 11,37 -3,-4 -7,-7 -11,-9l-395 -199c-4,3 -7,6 -10,10 -4,4 -6,8 -9,13l-1 2zm161 348c4,-12 10,-25 16,-39 6,-14 11,-26 16,-37l13 -24 12 3 -25 49c-5,11 -10,23 -16,37 -6,14 -12,27 -16,39 -16,-24 -34,-50 -56,-76 -21,-27 -43,-52 -65,-75 9,0 18,0 27,1 13,15 26,30 38,46 22,26 40,52 56,76zm476 100c1,5 2,10 4,15 7,18 21,32 41,40 21,9 36,6 44,-8l2 3c3,7 3,14 0,21 -7,17 -22,21 -46,12 -20,-8 -34,-22 -41,-40 -5,-14 -7,-28 -4,-43zm46 -4l-3 -2c-2,-8 -1,-17 3,-26 5,-12 10,-19 15,-24l23 10c12,4 21,6 29,3 5,-2 9,-5 12,-9l0 0c5,7 6,15 3,23 -3,7 -8,12 -15,14 -8,3 -17,1 -29,-3l-23 -10c-5,5 -10,12 -15,24z"/>
 </g>
</svg>
