<svg width="185" height="27" viewBox="0 0 185 27" fill="none" xmlns="http://www.w3.org/2000/svg">
<path d="M0.88 26V6.272L0.16 2.672L0.88 0.512H10.24C12.064 0.512 13.636 0.727999 14.956 1.16C16.3 1.568 17.344 2.24 18.088 3.176C18.832 4.112 19.204 5.36 19.204 6.92C19.204 7.88 19.036 8.792 18.7 9.656C18.388 10.496 17.848 11.204 17.08 11.78C18.592 12.308 19.744 13.1 20.536 14.156C21.328 15.212 21.724 16.616 21.724 18.368C21.724 21.032 20.98 22.976 19.492 24.2C18.004 25.4 15.76 26 12.76 26H0.88ZM5.92 10.772H10.888C12.904 10.772 13.912 9.884 13.912 8.108C13.912 7.22 13.708 6.512 13.3 5.984C12.892 5.456 12.088 5.192 10.888 5.192H5.92V10.772ZM5.92 21.32H12.4C13.672 21.32 14.596 21.032 15.172 20.456C15.772 19.88 16.072 19.076 16.072 18.044C16.072 17.06 15.748 16.316 15.1 15.812C14.476 15.308 13.456 15.056 12.04 15.056H5.92V21.32ZM23.1879 26V6.272L22.4679 2.672L23.1879 0.512H28.2279V6.344L27.8679 10.34L28.2279 10.52C28.5159 10.088 29.0439 9.668 29.8119 9.26C30.6039 8.828 31.6359 8.612 32.9079 8.612C35.0679 8.612 36.6879 9.224 37.7679 10.448C38.8479 11.672 39.3879 13.388 39.3879 15.596V20.276L40.1439 23.804L39.3879 26H34.3479V15.452C34.3479 14.54 34.0239 13.844 33.3759 13.364C32.7519 12.86 32.0199 12.608 31.1799 12.608L28.2279 13.652V26H23.1879ZM46.297 26.36C44.689 26.36 43.321 25.952 42.193 25.136C41.089 24.296 40.537 23 40.537 21.248C40.537 19.4 41.125 17.996 42.301 17.036C43.477 16.052 45.049 15.56 47.017 15.56C48.457 15.56 49.549 15.68 50.293 15.92C51.061 16.16 51.565 16.34 51.805 16.46L52.057 16.244C52.057 15.524 51.997 14.888 51.877 14.336C51.757 13.784 51.481 13.364 51.049 13.076C50.617 12.764 49.945 12.608 49.033 12.608C47.401 12.608 45.937 12.74 44.641 13.004C43.369 13.268 42.361 13.508 41.617 13.724V9.764C42.361 9.5 43.489 9.26 45.001 9.044C46.513 8.804 48.145 8.684 49.897 8.684C51.385 8.684 52.597 8.888 53.533 9.296C54.493 9.68 55.225 10.208 55.729 10.88C56.257 11.552 56.617 12.296 56.809 13.112C57.025 13.904 57.133 14.696 57.133 15.488V20.276L57.853 23.912L57.133 26.036H52.417V24.272L52.057 24.092C51.865 24.332 51.529 24.632 51.049 24.992C50.593 25.352 49.969 25.676 49.177 25.964C48.409 26.228 47.449 26.36 46.297 26.36ZM48.277 22.364C49.309 22.364 50.113 22.268 50.689 22.076C51.289 21.884 51.745 21.692 52.057 21.5V20.816C52.057 20.36 51.781 19.904 51.229 19.448C50.701 18.992 49.825 18.764 48.601 18.764C47.689 18.764 47.017 18.944 46.585 19.304C46.153 19.664 45.937 20.12 45.937 20.672C45.937 21.248 46.141 21.68 46.549 21.968C46.957 22.232 47.533 22.364 48.277 22.364ZM64.8485 26.36C63.3125 26.36 62.0285 26.228 60.9965 25.964C59.9885 25.7 59.1725 25.4 58.5485 25.064V20.816C59.4125 21.272 60.3965 21.668 61.5005 22.004C62.6285 22.316 63.7085 22.472 64.7405 22.472C65.9645 22.472 66.5765 22.076 66.5765 21.284C66.5765 20.852 66.3965 20.528 66.0365 20.312C65.7005 20.096 65.2205 19.904 64.5965 19.736C63.9965 19.544 63.3005 19.316 62.5085 19.052C61.1405 18.572 60.0845 17.96 59.3405 17.216C58.5965 16.472 58.2245 15.308 58.2245 13.724C58.2245 12.02 58.8125 10.748 59.9885 9.908C61.1885 9.068 62.7605 8.648 64.7045 8.648C65.4965 8.648 66.1685 8.696 66.7205 8.792C67.2725 8.864 67.7765 8.936 68.2325 9.008L71.5085 10.808L70.1045 14.3L64.7045 12.572C64.2485 12.572 63.8765 12.668 63.5885 12.86C63.3245 13.028 63.1925 13.268 63.1925 13.58C63.1925 14.084 63.4445 14.468 63.9485 14.732C64.4525 14.972 65.1845 15.236 66.1445 15.524C68.0885 16.1 69.5165 16.796 70.4285 17.612C71.3405 18.428 71.7965 19.628 71.7965 21.212C71.7965 22.676 71.2205 23.9 70.0685 24.884C68.9405 25.868 67.2005 26.36 64.8485 26.36ZM72.8754 26V6.272L72.1554 2.672L72.8754 0.512H77.9154V6.344L77.5554 10.34L77.9154 10.52C78.2034 10.088 78.7314 9.668 79.4994 9.26C80.2914 8.828 81.3234 8.612 82.5954 8.612C84.7554 8.612 86.3754 9.224 87.4554 10.448C88.5354 11.672 89.0754 13.388 89.0754 15.596V20.276L89.8314 23.804L89.0754 26H84.0354V15.452C84.0354 14.54 83.7114 13.844 83.0634 13.364C82.4394 12.86 81.7074 12.608 80.8674 12.608L77.9154 13.652V26H72.8754ZM95.9845 26.36C94.3765 26.36 93.0085 25.952 91.8805 25.136C90.7765 24.296 90.2245 23 90.2245 21.248C90.2245 19.4 90.8125 17.996 91.9885 17.036C93.1645 16.052 94.7365 15.56 96.7045 15.56C98.1445 15.56 99.2365 15.68 99.9805 15.92C100.749 16.16 101.253 16.34 101.493 16.46L101.745 16.244C101.745 15.524 101.685 14.888 101.565 14.336C101.445 13.784 101.169 13.364 100.737 13.076C100.305 12.764 99.6325 12.608 98.7205 12.608C97.0885 12.608 95.6245 12.74 94.3285 13.004C93.0565 13.268 92.0485 13.508 91.3045 13.724V9.764C92.0485 9.5 93.1765 9.26 94.6885 9.044C96.2005 8.804 97.8325 8.684 99.5845 8.684C101.073 8.684 102.285 8.888 103.221 9.296C104.181 9.68 104.913 10.208 105.417 10.88C105.945 11.552 106.305 12.296 106.497 13.112C106.713 13.904 106.821 14.696 106.821 15.488V20.276L107.541 23.912L106.821 26.036H102.105V24.272L101.745 24.092C101.553 24.332 101.217 24.632 100.737 24.992C100.281 25.352 99.6565 25.676 98.8645 25.964C98.0965 26.228 97.1365 26.36 95.9845 26.36ZM97.9645 22.364C98.9965 22.364 99.8005 22.268 100.377 22.076C100.977 21.884 101.433 21.692 101.745 21.5V20.816C101.745 20.36 101.469 19.904 100.917 19.448C100.389 18.992 99.5125 18.764 98.2885 18.764C97.3765 18.764 96.7045 18.944 96.2725 19.304C95.8405 19.664 95.6245 20.12 95.6245 20.672C95.6245 21.248 95.8285 21.68 96.2365 21.968C96.6445 22.232 97.2205 22.364 97.9645 22.364Z" fill="#E0E2DB"/>
<path d="M109.712 26V6.308L108.992 2.708L109.712 0.512H117.56C119.288 0.512 120.944 0.68 122.528 1.016C124.136 1.328 125.564 1.928 126.812 2.816C128.084 3.704 129.08 4.976 129.8 6.632C130.544 8.288 130.916 10.436 130.916 13.076C130.916 15.716 130.544 17.888 129.8 19.592C129.056 21.272 128.048 22.58 126.776 23.516C125.504 24.452 124.064 25.1 122.456 25.46C120.872 25.82 119.24 26 117.56 26H109.712ZM114.824 21.32H118.64C121.136 21.32 122.912 20.588 123.968 19.124C125.024 17.636 125.552 15.62 125.552 13.076C125.552 10.532 125.012 8.588 123.932 7.244C122.876 5.876 121.112 5.192 118.64 5.192H114.824V21.32ZM137.336 26.36C135.728 26.36 134.36 25.952 133.232 25.136C132.128 24.296 131.576 23 131.576 21.248C131.576 19.4 132.164 17.996 133.34 17.036C134.516 16.052 136.088 15.56 138.056 15.56C139.496 15.56 140.588 15.68 141.332 15.92C142.1 16.16 142.604 16.34 142.844 16.46L143.096 16.244C143.096 15.524 143.036 14.888 142.916 14.336C142.796 13.784 142.52 13.364 142.088 13.076C141.656 12.764 140.984 12.608 140.072 12.608C138.44 12.608 136.976 12.74 135.68 13.004C134.408 13.268 133.4 13.508 132.656 13.724V9.764C133.4 9.5 134.528 9.26 136.04 9.044C137.552 8.804 139.184 8.684 140.936 8.684C142.424 8.684 143.636 8.888 144.572 9.296C145.532 9.68 146.264 10.208 146.768 10.88C147.296 11.552 147.656 12.296 147.848 13.112C148.064 13.904 148.172 14.696 148.172 15.488V20.276L148.892 23.912L148.172 26.036H143.456V24.272L143.096 24.092C142.904 24.332 142.568 24.632 142.088 24.992C141.632 25.352 141.008 25.676 140.216 25.964C139.448 26.228 138.488 26.36 137.336 26.36ZM139.316 22.364C140.348 22.364 141.152 22.268 141.728 22.076C142.328 21.884 142.784 21.692 143.096 21.5V20.816C143.096 20.36 142.82 19.904 142.268 19.448C141.74 18.992 140.864 18.764 139.64 18.764C138.728 18.764 138.056 18.944 137.624 19.304C137.192 19.664 136.976 20.12 136.976 20.672C136.976 21.248 137.18 21.68 137.588 21.968C137.996 22.232 138.572 22.364 139.316 22.364ZM155.024 26.36C153.416 26.36 152.048 25.952 150.92 25.136C149.816 24.296 149.264 23 149.264 21.248C149.264 19.4 149.852 17.996 151.028 17.036C152.204 16.052 153.776 15.56 155.744 15.56C157.184 15.56 158.276 15.68 159.02 15.92C159.788 16.16 160.292 16.34 160.532 16.46L160.784 16.244C160.784 15.524 160.724 14.888 160.604 14.336C160.484 13.784 160.208 13.364 159.776 13.076C159.344 12.764 158.672 12.608 157.76 12.608C156.128 12.608 154.664 12.74 153.368 13.004C152.096 13.268 151.088 13.508 150.344 13.724V9.764C151.088 9.5 152.216 9.26 153.728 9.044C155.24 8.804 156.872 8.684 158.624 8.684C160.112 8.684 161.324 8.888 162.26 9.296C163.22 9.68 163.952 10.208 164.456 10.88C164.984 11.552 165.344 12.296 165.536 13.112C165.752 13.904 165.86 14.696 165.86 15.488V20.276L166.58 23.912L165.86 26.036H161.144V24.272L160.784 24.092C160.592 24.332 160.256 24.632 159.776 24.992C159.32 25.352 158.696 25.676 157.904 25.964C157.136 26.228 156.176 26.36 155.024 26.36ZM157.004 22.364C158.036 22.364 158.84 22.268 159.416 22.076C160.016 21.884 160.472 21.692 160.784 21.5V20.816C160.784 20.36 160.508 19.904 159.956 19.448C159.428 18.992 158.552 18.764 157.328 18.764C156.416 18.764 155.744 18.944 155.312 19.304C154.88 19.664 154.664 20.12 154.664 20.672C154.664 21.248 154.868 21.68 155.276 21.968C155.684 22.232 156.26 22.364 157.004 22.364ZM168.031 26V15.164L167.311 11.204L168.427 9.008H172.351V10.556L172.675 10.772C172.939 10.532 173.299 10.256 173.755 9.944C174.235 9.608 174.811 9.308 175.483 9.044C176.155 8.78 176.911 8.648 177.751 8.648C179.911 8.648 181.531 9.26 182.611 10.484C183.691 11.708 184.231 13.424 184.231 15.632V20.204L184.987 23.804L184.231 26H179.191V15.488C179.191 14.576 178.987 13.88 178.579 13.4C178.195 12.896 177.583 12.644 176.743 12.644L173.071 13.328V26H168.031Z" fill="#FFBF00"/>
</svg>
