<svg width="152" height="23" viewBox="0 0 152 23" fill="none" xmlns="http://www.w3.org/2000/svg">
<path d="M1.4 22V5.56L0.8 2.56L1.4 0.76H9.2C10.72 0.76 12.03 0.939999 13.13 1.3C14.25 1.64 15.12 2.2 15.74 2.98C16.36 3.76 16.67 4.8 16.67 6.1C16.67 6.9 16.53 7.66 16.25 8.38C15.99 9.08 15.54 9.67 14.9 10.15C16.16 10.59 17.12 11.25 17.78 12.13C18.44 13.01 18.77 14.18 18.77 15.64C18.77 17.86 18.15 19.48 16.91 20.5C15.67 21.5 13.8 22 11.3 22H1.4ZM5.6 9.31H9.74C11.42 9.31 12.26 8.57 12.26 7.09C12.26 6.35 12.09 5.76 11.75 5.32C11.41 4.88 10.74 4.66 9.74 4.66H5.6V9.31ZM5.6 18.1H11C12.06 18.1 12.83 17.86 13.31 17.38C13.81 16.9 14.06 16.23 14.06 15.37C14.06 14.55 13.79 13.93 13.25 13.51C12.73 13.09 11.88 12.88 10.7 12.88H5.6V18.1ZM19.6566 22V5.56L19.0566 2.56L19.6566 0.76H23.8566V5.62L23.5566 8.95L23.8566 9.1C24.0966 8.74 24.5366 8.39 25.1766 8.05C25.8366 7.69 26.6966 7.51 27.7566 7.51C29.5566 7.51 30.9066 8.02 31.8066 9.04C32.7066 10.06 33.1566 11.49 33.1566 13.33V17.23L33.7866 20.17L33.1566 22H28.9566V13.21C28.9566 12.45 28.6866 11.87 28.1466 11.47C27.6266 11.05 27.0166 10.84 26.3166 10.84L23.8566 11.71V22H19.6566ZM38.5809 22.3C37.2409 22.3 36.1009 21.96 35.1609 21.28C34.2409 20.58 33.7809 19.5 33.7809 18.04C33.7809 16.5 34.2709 15.33 35.2509 14.53C36.2309 13.71 37.5409 13.3 39.1809 13.3C40.3809 13.3 41.2909 13.4 41.9109 13.6C42.5509 13.8 42.9709 13.95 43.1709 14.05L43.3809 13.87C43.3809 13.27 43.3309 12.74 43.2309 12.28C43.1309 11.82 42.9009 11.47 42.5409 11.23C42.1809 10.97 41.6209 10.84 40.8609 10.84C39.5009 10.84 38.2809 10.95 37.2009 11.17C36.1409 11.39 35.3009 11.59 34.6809 11.77V8.47C35.3009 8.25 36.2409 8.05 37.5009 7.87C38.7609 7.67 40.1209 7.57 41.5809 7.57C42.8209 7.57 43.8309 7.74 44.6109 8.08C45.4109 8.4 46.0209 8.84 46.4409 9.4C46.8809 9.96 47.1809 10.58 47.3409 11.26C47.5209 11.92 47.6109 12.58 47.6109 13.24V17.23L48.2109 20.26L47.6109 22.03H43.6809V20.56L43.3809 20.41C43.2209 20.61 42.9409 20.86 42.5409 21.16C42.1609 21.46 41.6409 21.73 40.9809 21.97C40.3409 22.19 39.5409 22.3 38.5809 22.3ZM40.2309 18.97C41.0909 18.97 41.7609 18.89 42.2409 18.73C42.7409 18.57 43.1209 18.41 43.3809 18.25V17.68C43.3809 17.3 43.1509 16.92 42.6909 16.54C42.2509 16.16 41.5209 15.97 40.5009 15.97C39.7409 15.97 39.1809 16.12 38.8209 16.42C38.4609 16.72 38.2809 17.1 38.2809 17.56C38.2809 18.04 38.4509 18.4 38.7909 18.64C39.1309 18.86 39.6109 18.97 40.2309 18.97ZM53.7071 22.3C52.4271 22.3 51.3571 22.19 50.4971 21.97C49.6571 21.75 48.9771 21.5 48.4571 21.22V17.68C49.1771 18.06 49.9971 18.39 50.9171 18.67C51.8571 18.93 52.7571 19.06 53.6171 19.06C54.6371 19.06 55.1471 18.73 55.1471 18.07C55.1471 17.71 54.9971 17.44 54.6971 17.26C54.4171 17.08 54.0171 16.92 53.4971 16.78C52.9971 16.62 52.4171 16.43 51.7571 16.21C50.6171 15.81 49.7371 15.3 49.1171 14.68C48.4971 14.06 48.1871 13.09 48.1871 11.77C48.1871 10.35 48.6771 9.29 49.6571 8.59C50.6571 7.89 51.9671 7.54 53.5871 7.54C54.2471 7.54 54.8071 7.58 55.2671 7.66C55.7271 7.72 56.1471 7.78 56.5271 7.84L59.2571 9.34L58.0871 12.25L53.5871 10.81C53.2071 10.81 52.8971 10.89 52.6571 11.05C52.4371 11.19 52.3271 11.39 52.3271 11.65C52.3271 12.07 52.5371 12.39 52.9571 12.61C53.3771 12.81 53.9871 13.03 54.7871 13.27C56.4071 13.75 57.5971 14.33 58.3571 15.01C59.1171 15.69 59.4971 16.69 59.4971 18.01C59.4971 19.23 59.0171 20.25 58.0571 21.07C57.1171 21.89 55.6671 22.3 53.7071 22.3ZM60.0628 22V5.56L59.4628 2.56L60.0628 0.76H64.2628V5.62L63.9628 8.95L64.2628 9.1C64.5028 8.74 64.9428 8.39 65.5828 8.05C66.2428 7.69 67.1028 7.51 68.1628 7.51C69.9628 7.51 71.3128 8.02 72.2128 9.04C73.1128 10.06 73.5628 11.49 73.5628 13.33V17.23L74.1928 20.17L73.5628 22H69.3628V13.21C69.3628 12.45 69.0928 11.87 68.5528 11.47C68.0328 11.05 67.4228 10.84 66.7228 10.84L64.2628 11.71V22H60.0628ZM78.9871 22.3C77.6471 22.3 76.5071 21.96 75.5671 21.28C74.6471 20.58 74.1871 19.5 74.1871 18.04C74.1871 16.5 74.6771 15.33 75.6571 14.53C76.6371 13.71 77.9471 13.3 79.5871 13.3C80.7871 13.3 81.6971 13.4 82.3171 13.6C82.9571 13.8 83.3771 13.95 83.5771 14.05L83.7871 13.87C83.7871 13.27 83.7371 12.74 83.6371 12.28C83.5371 11.82 83.3071 11.47 82.9471 11.23C82.5871 10.97 82.0271 10.84 81.2671 10.84C79.9071 10.84 78.6871 10.95 77.6071 11.17C76.5471 11.39 75.7071 11.59 75.0871 11.77V8.47C75.7071 8.25 76.6471 8.05 77.9071 7.87C79.1671 7.67 80.5271 7.57 81.9871 7.57C83.2271 7.57 84.2371 7.74 85.0171 8.08C85.8171 8.4 86.4271 8.84 86.8471 9.4C87.2871 9.96 87.5871 10.58 87.7471 11.26C87.9271 11.92 88.0171 12.58 88.0171 13.24V17.23L88.6171 20.26L88.0171 22.03H84.0871V20.56L83.7871 20.41C83.6271 20.61 83.3471 20.86 82.9471 21.16C82.5671 21.46 82.0471 21.73 81.3871 21.97C80.7471 22.19 79.9471 22.3 78.9871 22.3ZM80.6371 18.97C81.4971 18.97 82.1671 18.89 82.6471 18.73C83.1471 18.57 83.5271 18.41 83.7871 18.25V17.68C83.7871 17.3 83.5571 16.92 83.0971 16.54C82.6571 16.16 81.9271 15.97 80.9071 15.97C80.1471 15.97 79.5871 16.12 79.2271 16.42C78.8671 16.72 78.6871 17.1 78.6871 17.56C78.6871 18.04 78.8571 18.4 79.1971 18.64C79.5371 18.86 80.0171 18.97 80.6371 18.97Z" fill="#142747"/>
<path d="M90.0934 22V5.59L89.4934 2.59L90.0934 0.76H96.6334C98.0734 0.76 99.4534 0.9 100.773 1.18C102.113 1.44 103.303 1.94 104.343 2.68C105.403 3.42 106.233 4.48 106.833 5.86C107.453 7.24 107.763 9.03 107.763 11.23C107.763 13.43 107.453 15.24 106.833 16.66C106.213 18.06 105.373 19.15 104.313 19.93C103.253 20.71 102.053 21.25 100.713 21.55C99.3934 21.85 98.0334 22 96.6334 22H90.0934ZM94.3534 18.1H97.5334C99.6134 18.1 101.093 17.49 101.973 16.27C102.853 15.03 103.293 13.35 103.293 11.23C103.293 9.11 102.843 7.49 101.943 6.37C101.063 5.23 99.5934 4.66 97.5334 4.66H94.3534V18.1ZM112.78 22.3C111.44 22.3 110.3 21.96 109.36 21.28C108.44 20.58 107.98 19.5 107.98 18.04C107.98 16.5 108.47 15.33 109.45 14.53C110.43 13.71 111.74 13.3 113.38 13.3C114.58 13.3 115.49 13.4 116.11 13.6C116.75 13.8 117.17 13.95 117.37 14.05L117.58 13.87C117.58 13.27 117.53 12.74 117.43 12.28C117.33 11.82 117.1 11.47 116.74 11.23C116.38 10.97 115.82 10.84 115.06 10.84C113.7 10.84 112.48 10.95 111.4 11.17C110.34 11.39 109.5 11.59 108.88 11.77V8.47C109.5 8.25 110.44 8.05 111.7 7.87C112.96 7.67 114.32 7.57 115.78 7.57C117.02 7.57 118.03 7.74 118.81 8.08C119.61 8.4 120.22 8.84 120.64 9.4C121.08 9.96 121.38 10.58 121.54 11.26C121.72 11.92 121.81 12.58 121.81 13.24V17.23L122.41 20.26L121.81 22.03H117.88V20.56L117.58 20.41C117.42 20.61 117.14 20.86 116.74 21.16C116.36 21.46 115.84 21.73 115.18 21.97C114.54 22.19 113.74 22.3 112.78 22.3ZM114.43 18.97C115.29 18.97 115.96 18.89 116.44 18.73C116.94 18.57 117.32 18.41 117.58 18.25V17.68C117.58 17.3 117.35 16.92 116.89 16.54C116.45 16.16 115.72 15.97 114.7 15.97C113.94 15.97 113.38 16.12 113.02 16.42C112.66 16.72 112.48 17.1 112.48 17.56C112.48 18.04 112.65 18.4 112.99 18.64C113.33 18.86 113.81 18.97 114.43 18.97ZM127.186 22.3C125.846 22.3 124.706 21.96 123.766 21.28C122.846 20.58 122.386 19.5 122.386 18.04C122.386 16.5 122.876 15.33 123.856 14.53C124.836 13.71 126.146 13.3 127.786 13.3C128.986 13.3 129.896 13.4 130.516 13.6C131.156 13.8 131.576 13.95 131.776 14.05L131.986 13.87C131.986 13.27 131.936 12.74 131.836 12.28C131.736 11.82 131.506 11.47 131.146 11.23C130.786 10.97 130.226 10.84 129.466 10.84C128.106 10.84 126.886 10.95 125.806 11.17C124.746 11.39 123.906 11.59 123.286 11.77V8.47C123.906 8.25 124.846 8.05 126.106 7.87C127.366 7.67 128.726 7.57 130.186 7.57C131.426 7.57 132.436 7.74 133.216 8.08C134.016 8.4 134.626 8.84 135.046 9.4C135.486 9.96 135.786 10.58 135.946 11.26C136.126 11.92 136.216 12.58 136.216 13.24V17.23L136.816 20.26L136.216 22.03H132.286V20.56L131.986 20.41C131.826 20.61 131.546 20.86 131.146 21.16C130.766 21.46 130.246 21.73 129.586 21.97C128.946 22.19 128.146 22.3 127.186 22.3ZM128.836 18.97C129.696 18.97 130.366 18.89 130.846 18.73C131.346 18.57 131.726 18.41 131.986 18.25V17.68C131.986 17.3 131.756 16.92 131.296 16.54C130.856 16.16 130.126 15.97 129.106 15.97C128.346 15.97 127.786 16.12 127.426 16.42C127.066 16.72 126.886 17.1 126.886 17.56C126.886 18.04 127.056 18.4 127.396 18.64C127.736 18.86 128.216 18.97 128.836 18.97ZM137.693 22V12.97L137.093 9.67L138.023 7.84H141.293V9.13L141.563 9.31C141.783 9.11 142.083 8.88 142.463 8.62C142.863 8.34 143.343 8.09 143.903 7.87C144.463 7.65 145.093 7.54 145.793 7.54C147.593 7.54 148.943 8.05 149.843 9.07C150.743 10.09 151.193 11.52 151.193 13.36V17.17L151.823 20.17L151.193 22H146.993V13.24C146.993 12.48 146.823 11.9 146.483 11.5C146.163 11.08 145.653 10.87 144.953 10.87L141.893 11.44V22H137.693Z" fill="#FFBF00"/>
</svg>
