<svg width="106" height="103" viewBox="0 0 106 103" fill="none" xmlns="http://www.w3.org/2000/svg">
<path fill-rule="evenodd" clip-rule="evenodd" d="M40.5851 56.1953C40.5851 58.7429 40.5412 61.3346 40.5851 63.8823C40.5851 64.9365 40.4094 65.815 39.3113 66.2103C38.2131 66.6057 37.4664 66.0786 36.7636 65.3318C35.885 64.3215 35.0504 63.2673 34.0402 62.3888C33.6009 62.0374 32.7224 61.8178 32.1953 61.9935C31.756 62.1252 31.3168 62.9159 31.2728 63.443C31.2289 63.9262 31.7121 64.4972 32.0635 64.9365C34.6112 67.8356 37.115 70.7347 38.6084 74.3805C39.2673 76.0497 40.629 77.06 42.43 77.2796C43.5281 77.4553 44.7141 77.5432 45.8562 77.5432C49.6777 77.4993 52.6208 75.3908 52.9722 71.6132C53.4114 67.2646 53.2357 62.872 53.2357 58.4794C53.2357 57.6009 52.489 57.0738 51.6105 57.0738C50.7759 57.0738 50.1609 57.6448 50.0291 58.5233C49.9413 59.1822 50.0731 59.9289 49.9413 60.6318C49.8974 60.9832 49.5899 61.5981 49.3263 61.6421C48.5796 61.7299 48.5796 61.071 48.5796 60.5439C48.5796 58.9626 48.6235 57.3812 48.5796 55.7999C48.5357 54.4821 47.5693 53.6915 46.4712 53.999C45.5926 54.3064 45.2852 54.9653 45.2852 55.7999C45.2852 57.4691 45.2852 59.0944 45.2412 60.7196C45.2412 61.0271 45.0216 61.3785 44.802 61.6421C44.7581 61.7299 44.2749 61.6421 44.2309 61.5542C44.0552 61.2028 43.9235 60.8075 43.9235 60.4561C43.8795 56.942 43.8795 53.4719 43.8795 50.0017C43.8795 49.211 44.0552 48.3765 43.8356 47.6736C43.6599 47.1026 43.0889 46.3998 42.5618 46.2241C42.1225 46.0484 41.3318 46.4437 40.9804 46.8391C40.673 47.1905 40.5851 47.8933 40.5851 48.4204C40.5412 51.012 40.5851 53.6036 40.5851 56.1953ZM45.2852 52.813C48.1843 52.1101 49.546 52.9887 50.117 55.9317C50.3806 55.8878 50.6002 55.7999 50.8198 55.756C52.8404 55.2728 54.6853 56.5906 54.6853 58.7429C54.7292 62.872 54.7731 67.001 54.5535 71.0861C54.3339 75.3908 51.303 78.2899 47.0861 78.861C45.0216 79.1245 43.001 79.0367 41.0244 78.4217C39.487 77.9385 38.1692 76.9722 37.5542 75.4787C35.9729 71.7011 33.4252 68.5823 30.7018 65.5954C29.4719 64.1897 29.5158 62.257 30.7896 61.1149C32.1513 59.9289 34.0402 60.1046 35.314 61.5542C36.1486 62.4766 36.9832 63.3991 37.8617 64.3215C38.1253 64.5412 38.4767 64.6729 38.7841 64.8486C38.9159 64.4972 39.1795 64.1458 39.1795 63.7944C39.2234 59.5775 39.2234 55.3167 39.2234 51.0999C39.2234 49.9139 39.1795 48.7279 39.2234 47.5419C39.2673 45.9166 40.5412 44.7306 42.1664 44.6867C43.7917 44.6428 45.1534 45.8727 45.2412 47.5419C45.2852 48.4204 45.2852 49.2989 45.2852 50.1774C45.2852 51.0559 45.2852 51.8905 45.2852 52.813Z" fill="#F58B71"/>
<path fill-rule="evenodd" clip-rule="evenodd" d="M40.5851 56.1953C40.5851 58.7429 40.5412 61.3346 40.5851 63.8823C40.5851 64.9365 40.4094 65.815 39.3113 66.2103C38.2131 66.6057 37.4664 66.0786 36.7636 65.3318C35.885 64.3215 35.0504 63.2673 34.0402 62.3888C33.6009 62.0374 32.7224 61.8178 32.1953 61.9935C31.756 62.1252 31.3168 62.9159 31.2728 63.443C31.2289 63.9262 31.7121 64.4972 32.0635 64.9365C34.6112 67.8356 37.115 70.7347 38.6084 74.3805C39.2673 76.0497 40.629 77.06 42.43 77.2796C43.5281 77.4553 44.7141 77.5432 45.8562 77.5432C49.6777 77.4993 52.6208 75.3908 52.9722 71.6132C53.4114 67.2646 53.2357 62.872 53.2357 58.4794C53.2357 57.6009 52.489 57.0738 51.6105 57.0738C50.7759 57.0738 50.1609 57.6448 50.0291 58.5233C49.9413 59.1822 50.0731 59.9289 49.9413 60.6318C49.8974 60.9832 49.5899 61.5981 49.3263 61.6421C48.5796 61.7299 48.5796 61.071 48.5796 60.5439C48.5796 58.9626 48.6235 57.3812 48.5796 55.7999C48.5357 54.4821 47.5693 53.6915 46.4712 53.999C45.5926 54.3064 45.2852 54.9653 45.2852 55.7999C45.2852 57.4691 45.2852 59.0944 45.2412 60.7196C45.2412 61.0271 45.0216 61.3785 44.802 61.6421C44.7581 61.7299 44.2749 61.6421 44.2309 61.5542C44.0552 61.2028 43.9235 60.8075 43.9235 60.4561C43.8795 56.942 43.8795 53.4719 43.8795 50.0017C43.8795 49.211 44.0552 48.3765 43.8356 47.6736C43.6599 47.1026 43.0889 46.3998 42.5618 46.2241C42.1225 46.0484 41.3318 46.4437 40.9804 46.8391C40.673 47.1905 40.5851 47.8933 40.5851 48.4204C40.5412 51.012 40.5851 53.6036 40.5851 56.1953ZM45.2852 52.813C48.1843 52.1101 49.546 52.9887 50.117 55.9317C50.3806 55.8878 50.6002 55.7999 50.8198 55.756C52.8404 55.2728 54.6853 56.5906 54.6853 58.7429C54.7292 62.872 54.7731 67.001 54.5535 71.0861C54.3339 75.3908 51.303 78.2899 47.0861 78.861C45.0216 79.1245 43.001 79.0367 41.0244 78.4217C39.487 77.9385 38.1692 76.9722 37.5542 75.4787C35.9729 71.7011 33.4252 68.5823 30.7018 65.5954C29.4719 64.1897 29.5158 62.257 30.7896 61.1149C32.1513 59.9289 34.0402 60.1046 35.314 61.5542C36.1486 62.4766 36.9832 63.3991 37.8617 64.3215C38.1253 64.5412 38.4767 64.6729 38.7841 64.8486C38.9159 64.4972 39.1795 64.1458 39.1795 63.7944C39.2234 59.5775 39.2234 55.3167 39.2234 51.0999C39.2234 49.9139 39.1795 48.7279 39.2234 47.5419C39.2673 45.9166 40.5412 44.7306 42.1664 44.6867C43.7917 44.6428 45.1534 45.8727 45.2412 47.5419C45.2852 48.4204 45.2852 49.2989 45.2852 50.1774C45.2852 51.0559 45.2852 51.8905 45.2852 52.813Z" stroke="#F58B71" stroke-width="0.0135276"/>
<path fill-rule="evenodd" clip-rule="evenodd" d="M23.5471 36.8455C26.6659 36.8015 26.5341 36.7576 26.4902 39.7885C26.4902 41.238 26.3145 41.4137 24.821 41.4577C23.8546 41.4577 22.8443 41.4577 21.834 41.4137C21.6144 41.4137 21.3508 41.5016 21.1751 41.3698C19.7256 40.5792 20.5163 39.1735 20.3845 37.9875C20.2966 37.1969 20.9116 36.8455 21.6583 36.8455C22.3172 36.8455 22.9322 36.8455 23.5471 36.8455Z" fill="#F58B71"/>
<path fill-rule="evenodd" clip-rule="evenodd" d="M23.5471 36.8455C26.6659 36.8015 26.5341 36.7576 26.4902 39.7885C26.4902 41.238 26.3145 41.4137 24.821 41.4577C23.8546 41.4577 22.8443 41.4577 21.834 41.4137C21.6144 41.4137 21.3508 41.5016 21.1751 41.3698C19.7256 40.5792 20.5163 39.1735 20.3845 37.9875C20.2966 37.1969 20.9116 36.8455 21.6583 36.8455C22.3172 36.8455 22.9322 36.8455 23.5471 36.8455Z" stroke="#F58B71" stroke-width="0.0135276"/>
<path fill-rule="evenodd" clip-rule="evenodd" d="M32.76 41.4667C29.4656 41.4667 29.817 41.6424 29.817 38.4358C29.817 37.118 30.0366 36.8545 31.3544 36.8545C32.4086 36.8106 33.5068 36.8545 34.561 36.8545C35.4834 36.8545 35.9227 37.2498 35.8788 38.2162C35.8349 38.7872 35.8788 39.4022 35.8788 39.9732C35.8349 41.2031 35.6152 41.4228 34.3414 41.4667C33.8143 41.4667 33.2872 41.4667 32.76 41.4667Z" fill="#F58B71"/>
<path fill-rule="evenodd" clip-rule="evenodd" d="M32.76 41.4667C29.4656 41.4667 29.817 41.6424 29.817 38.4358C29.817 37.118 30.0366 36.8545 31.3544 36.8545C32.4086 36.8106 33.5068 36.8545 34.561 36.8545C35.4834 36.8545 35.9227 37.2498 35.8788 38.2162C35.8349 38.7872 35.8788 39.4022 35.8788 39.9732C35.8349 41.2031 35.6152 41.4228 34.3414 41.4667C33.8143 41.4667 33.2872 41.4667 32.76 41.4667Z" stroke="#F58B71" stroke-width="0.0135276"/>
<path fill-rule="evenodd" clip-rule="evenodd" d="M42.1053 41.4472C38.8987 41.4472 39.2062 41.6229 39.2062 38.4602C39.2062 37.0546 39.4258 36.835 40.8754 36.835C41.9296 36.835 42.9399 36.835 43.9941 36.835C44.7848 36.835 45.268 37.1864 45.224 38.021C45.224 38.7238 45.268 39.4266 45.268 40.1294C45.268 41.0518 44.7848 41.4911 43.8623 41.4472C43.2913 41.4032 42.6763 41.4472 42.1053 41.4472Z" fill="#F58B71"/>
<path fill-rule="evenodd" clip-rule="evenodd" d="M42.1053 41.4472C38.8987 41.4472 39.2062 41.6229 39.2062 38.4602C39.2062 37.0546 39.4258 36.835 40.8754 36.835C41.9296 36.835 42.9399 36.835 43.9941 36.835C44.7848 36.835 45.268 37.1864 45.224 38.021C45.224 38.7238 45.268 39.4266 45.268 40.1294C45.268 41.0518 44.7848 41.4911 43.8623 41.4472C43.2913 41.4032 42.6763 41.4472 42.1053 41.4472Z" stroke="#F58B71" stroke-width="0.0135276"/>
<path fill-rule="evenodd" clip-rule="evenodd" d="M23.4241 49.2294H23.2923C20.0857 49.2734 20.3493 49.493 20.3932 45.8471C20.3932 45.1443 20.7885 44.7051 21.5792 44.7051C22.8091 44.7051 24.083 44.6611 25.3129 44.7051C26.411 44.7051 26.5428 45.1004 26.5428 47.736C26.4989 48.5705 26.411 49.2734 25.3129 49.2294C24.654 49.2294 24.039 49.2294 23.4241 49.2294Z" fill="#F58B71"/>
<path fill-rule="evenodd" clip-rule="evenodd" d="M23.4241 49.2294H23.2923C20.0857 49.2734 20.3493 49.493 20.3932 45.8471C20.3932 45.1443 20.7885 44.7051 21.5792 44.7051C22.8091 44.7051 24.083 44.6611 25.3129 44.7051C26.411 44.7051 26.5428 45.1004 26.5428 47.736C26.4989 48.5705 26.411 49.2734 25.3129 49.2294C24.654 49.2294 24.039 49.2294 23.4241 49.2294Z" stroke="#F58B71" stroke-width="0.0135276"/>
<path fill-rule="evenodd" clip-rule="evenodd" d="M23.3149 57.0226C22.7877 57.0226 22.2167 56.9786 21.6457 57.0226C20.6793 57.1104 20.3279 56.5833 20.3279 55.7048C20.3279 52.2346 20.1083 52.5421 23.3149 52.5421C23.9737 52.5421 24.6326 52.5421 25.2915 52.5421C26.17 52.5421 26.5214 52.9375 26.4775 53.772C26.4775 57.33 26.9168 57.0665 23.3149 57.0226Z" fill="#F58B71"/>
<path fill-rule="evenodd" clip-rule="evenodd" d="M23.3149 57.0226C22.7877 57.0226 22.2167 56.9786 21.6457 57.0226C20.6793 57.1104 20.3279 56.5833 20.3279 55.7048C20.3279 52.2346 20.1083 52.5421 23.3149 52.5421C23.9737 52.5421 24.6326 52.5421 25.2915 52.5421C26.17 52.5421 26.5214 52.9375 26.4775 53.772C26.4775 57.33 26.9168 57.0665 23.3149 57.0226Z" stroke="#F58B71" stroke-width="0.0135276"/>
<path fill-rule="evenodd" clip-rule="evenodd" d="M32.7637 49.2138C29.6449 49.2138 29.7767 49.6091 29.8206 46.3147C29.8206 44.953 30.0403 44.6894 31.402 44.6455C32.4562 44.6455 33.5104 44.6455 34.6085 44.6894C35.4431 44.6894 35.9263 45.0408 35.8824 45.9633C35.8385 46.5782 35.8385 47.1932 35.8824 47.8521C35.9702 48.9063 35.4431 49.3016 34.4328 49.2577C33.8618 49.2138 33.2908 49.2138 32.7637 49.2138Z" fill="#F58B71"/>
<path fill-rule="evenodd" clip-rule="evenodd" d="M32.7637 49.2138C29.6449 49.2138 29.7767 49.6091 29.8206 46.3147C29.8206 44.953 30.0403 44.6894 31.402 44.6455C32.4562 44.6455 33.5104 44.6455 34.6085 44.6894C35.4431 44.6894 35.9263 45.0408 35.8824 45.9633C35.8385 46.5782 35.8385 47.1932 35.8824 47.8521C35.9702 48.9063 35.4431 49.3016 34.4328 49.2577C33.8618 49.2138 33.2908 49.2138 32.7637 49.2138Z" stroke="#F58B71" stroke-width="0.0135276"/>
<path fill-rule="evenodd" clip-rule="evenodd" d="M32.76 57.0266C29.4656 57.0705 29.817 57.2462 29.817 54.1275C29.817 52.6779 29.9488 52.5461 31.4423 52.5461C32.4086 52.5461 33.4189 52.5461 34.4292 52.5461C34.6489 52.5461 34.9124 52.5022 35.0881 52.5901C36.6694 53.3807 35.6152 54.8303 35.8349 55.9724C36.0106 56.6752 35.4395 57.0266 34.7367 57.0266C34.0778 57.0266 33.4189 57.0266 32.76 57.0266Z" fill="#F58B71"/>
<path fill-rule="evenodd" clip-rule="evenodd" d="M32.76 57.0266C29.4656 57.0705 29.817 57.2462 29.817 54.1275C29.817 52.6779 29.9488 52.5461 31.4423 52.5461C32.4086 52.5461 33.4189 52.5461 34.4292 52.5461C34.6489 52.5461 34.9124 52.5022 35.0881 52.5901C36.6694 53.3807 35.6152 54.8303 35.8349 55.9724C36.0106 56.6752 35.4395 57.0266 34.7367 57.0266C34.0778 57.0266 33.4189 57.0266 32.76 57.0266Z" stroke="#F58B71" stroke-width="0.0135276"/>
<path fill-rule="evenodd" clip-rule="evenodd" d="M39.0528 91.6309C44.8353 93.827 51.1583 95.037 57.7837 95.037C65.9979 95.037 73.7288 93.1482 80.5812 89.8538C72.2353 96.1791 61.8249 99.9567 50.4921 99.9567C44.0903 99.9567 37.9696 98.7473 32.3459 96.5445L39.0528 91.6309ZM24.968 83.5021C14.5232 74.9476 7.92794 62.3818 7.92794 48.3878C7.92794 22.6473 30.2422 1.73861 57.7837 1.73861C59.8043 1.73861 61.8249 1.87039 63.7576 2.09002C59.5408 0.904024 55.1043 0.289062 50.4921 0.289062C22.9945 0.289062 0.680176 22.6034 0.680176 50.1449C0.680176 67.6954 9.77045 83.1344 23.4967 92.0077L24.968 83.5021Z" fill="#F47D5C"/>
<path d="M28.9803 80.376L22.04 102.954L40.445 85.9106L28.9803 80.376Z" fill="#377044"/>
<path fill-rule="evenodd" clip-rule="evenodd" d="M16.3507 49.2438C16.3507 70.4599 33.5696 87.6349 54.7418 87.6349C68.4132 87.6349 80.4066 80.5033 87.2077 69.7542H92.103C84.8592 82.9295 70.849 91.8518 54.7418 91.8518C31.1976 91.8518 12.1338 72.788 12.1338 49.2438C12.1338 25.6995 31.1976 6.63574 54.7418 6.63574C70.8466 6.63574 84.8551 15.5555 92.0999 28.7275H87.2041C80.4023 17.9817 68.4108 10.8526 54.7418 10.8526C33.5696 10.8526 16.3507 28.0276 16.3507 49.2438Z" fill="#377044"/>
<path d="M63.5588 37.7872C63.2952 37.9189 63.0756 38.1386 62.7681 38.446C62.5046 38.7535 62.2849 39.1489 62.0214 39.5881C61.8017 40.0274 61.626 40.5545 61.4943 41.1255C61.3186 41.6526 61.2746 42.2676 61.2746 42.8825C61.2746 43.4975 61.3186 44.1125 61.4943 44.5957C61.626 45.1228 61.8457 45.562 62.1092 45.9574C62.3728 46.3966 62.6803 46.7041 62.9877 47.0116C63.3391 47.3191 63.6466 47.5387 64.042 47.7144C64.042 47.8022 64.042 47.8462 64.042 47.934C64.042 47.9779 64.042 48.0658 64.042 48.1536C64.042 48.549 63.9102 48.9004 63.6906 49.12C63.427 49.3836 63.1195 49.5153 62.6803 49.5153C62.1971 49.5153 61.7578 49.3836 61.2307 49.0761C60.7475 48.8125 60.3083 48.3733 59.9129 47.8462C59.4737 47.3191 59.1223 46.6602 58.8587 45.8695C58.5952 45.0788 58.4634 44.2003 58.4634 43.234C58.4634 42.048 58.6391 40.9937 58.9466 40.0713C59.254 39.1489 59.6933 38.3582 60.1326 37.6993C60.6157 37.0404 61.1429 36.5572 61.67 36.2058C62.1971 35.8544 62.7242 35.6787 63.1634 35.6787H64.3934C64.7008 35.6787 64.9205 35.7666 65.0962 35.8983C65.2719 36.074 65.3597 36.3815 65.3597 36.7329C65.3597 36.9526 65.3158 37.1283 65.2719 37.3479C65.228 37.5236 65.184 37.6554 65.0962 37.7872H63.5588Z" fill="#377044"/>
<path d="M77.2398 37.7872V48.8125C77.152 48.8565 77.0202 48.8565 76.8006 48.9004C76.5809 48.9443 76.3613 48.9443 76.0978 48.9443C75.6146 48.9443 75.2192 48.8565 74.9118 48.7247C74.6482 48.549 74.5164 48.1976 74.5164 47.6265V41.6087C74.3847 41.5648 74.209 41.5648 74.0772 41.5648C73.3744 41.5648 72.979 42.048 72.8033 42.9704L72.6716 43.805C72.5837 43.8489 72.408 43.9368 72.1884 43.9368C71.9687 43.9807 71.7491 44.0246 71.5295 44.0246C71.3098 44.0246 71.0902 43.9807 70.8706 43.9368C70.6949 43.9368 70.5192 43.8489 70.3874 43.805L70.2556 43.0143C70.1678 42.5311 69.9921 42.1797 69.6846 41.9162C69.421 41.6965 69.1136 41.5648 68.7182 41.5648C68.3229 41.5648 68.0154 41.6965 67.7519 41.9601C67.4883 42.2237 67.3565 42.5751 67.3565 43.0582C67.3565 43.5414 67.4883 43.8928 67.7958 44.1564C68.0593 44.376 68.4107 44.5078 68.8061 44.5078C68.8939 44.5078 68.9379 44.5078 69.0257 44.5078C69.0696 44.5078 69.1575 44.5078 69.2014 44.5078C69.2453 44.5957 69.2893 44.7274 69.3332 44.8592C69.3771 44.991 69.421 45.1228 69.421 45.2985C69.421 45.7377 69.2453 46.0891 68.9818 46.3088C68.6743 46.5284 68.235 46.6602 67.7079 46.6602C67.3565 46.6602 66.9612 46.5723 66.6098 46.4405C66.2145 46.3088 65.863 46.0891 65.5556 45.7816C65.2481 45.4742 64.9845 45.1228 64.8088 44.6396C64.5892 44.2003 64.5013 43.6732 64.5013 43.0143C64.5013 42.3554 64.6331 41.7844 64.8528 41.3012C65.0724 40.818 65.3799 40.4227 65.7313 40.1152C66.0827 39.7638 66.5219 39.5442 66.9612 39.4124C67.4005 39.2367 67.8397 39.1928 68.235 39.1928C68.9818 39.1928 69.5967 39.3246 70.1678 39.676C70.6949 39.9834 71.0463 40.3788 71.3098 40.862C71.4856 40.3348 71.837 39.9395 72.3201 39.632C72.8033 39.3246 73.3304 39.1928 73.9454 39.1928C74.165 39.1928 74.3407 39.1928 74.5164 39.2367V37.7872H64.0621C63.7985 37.7872 63.5789 37.6993 63.4032 37.5236C63.2275 37.3918 63.1396 37.0843 63.1396 36.689C63.1396 36.5133 63.1396 36.2937 63.2275 36.118C63.2714 35.9423 63.3154 35.8105 63.4032 35.6787H79.0847C79.3922 35.6787 79.6118 35.7666 79.7875 35.8983C79.9632 36.074 80.0511 36.3815 80.0511 36.7329C80.0511 36.9526 80.0511 37.1283 79.9632 37.3479C79.9193 37.5236 79.8754 37.6554 79.7875 37.7872H77.2398Z" fill="#377044"/>
<path d="M79.7528 43.234C79.7528 42.004 79.9285 40.9498 80.2799 40.0713C80.6314 39.1489 81.0706 38.4021 81.5977 37.7872H78.2594C77.9958 37.7872 77.7762 37.6993 77.6005 37.5236C77.4248 37.3918 77.3369 37.0843 77.3369 36.689C77.3369 36.5133 77.3369 36.2937 77.3808 36.118C77.4248 35.9423 77.5126 35.8105 77.5565 35.6787H86.0782C86.3856 35.6787 86.6053 35.7666 86.781 35.8983C86.9567 36.074 87.0445 36.3815 87.0445 36.7329C87.0445 36.9526 87.0006 37.1283 86.9567 37.3479C86.9127 37.5236 86.8688 37.6554 86.781 37.7872H84.6286C84.409 37.9629 84.1893 38.1825 83.9258 38.49C83.7062 38.7535 83.4865 39.1489 83.2669 39.5881C83.0473 40.0274 82.9155 40.5106 82.7837 41.0377C82.6519 41.6087 82.5641 42.1797 82.5641 42.7947C82.5641 43.4536 82.6519 44.0685 82.7837 44.5957C82.9594 45.1228 83.179 45.6059 83.4426 46.0013C83.6622 46.3966 83.9697 46.748 84.3211 47.0116C84.6286 47.3191 84.98 47.5387 85.3314 47.7144C85.3314 47.8022 85.3314 47.8462 85.3314 47.934C85.3314 47.9779 85.3314 48.0658 85.3314 48.1536C85.3314 48.549 85.2436 48.9004 84.98 49.12C84.7604 49.3836 84.409 49.5153 83.9697 49.5153C83.5305 49.5153 83.0473 49.3836 82.5641 49.0761C82.037 48.8125 81.5977 48.3733 81.2024 47.8462C80.7631 47.3191 80.4556 46.6602 80.1921 45.8695C79.8846 45.0788 79.7528 44.2003 79.7528 43.234Z" fill="#377044"/>
<path d="M95.342 49.0828C94.6391 48.5557 93.9363 48.0725 93.2774 47.6333C92.6186 47.194 91.9597 46.7987 91.2569 46.4473C90.554 46.0519 89.8512 45.7005 89.1045 45.393C88.3578 45.0416 87.5671 44.6902 86.7325 44.3827C86.6007 44.207 86.5568 43.9435 86.4689 43.636C86.3811 43.3285 86.3811 42.9771 86.3811 42.5818C86.3811 42.4061 86.3811 42.2304 86.425 42.0547C86.425 41.879 86.4689 41.7472 86.4689 41.6593L87.7867 41.3958C88.797 41.1762 89.5438 40.9126 89.983 40.5173C90.4662 40.1659 90.6858 39.7266 90.6858 39.2434C90.6858 39.0677 90.6419 38.9359 90.598 38.8042C90.554 38.6724 90.5101 38.5845 90.4662 38.4528C90.0709 38.7163 89.6755 38.9799 89.1923 39.1556C88.7092 39.3752 88.1821 39.463 87.611 39.463C86.7325 39.463 86.0297 39.2434 85.5026 38.8481C84.9755 38.4088 84.7119 37.8817 84.7119 37.1789C84.7119 36.6518 84.8437 36.2565 85.1512 35.9929C85.5026 35.6854 85.854 35.5537 86.2493 35.5537C86.5568 35.5537 86.7764 35.5976 86.9961 35.6854C86.9961 36.2125 87.1278 36.5639 87.3475 36.7836C87.611 36.9593 87.8746 37.0471 88.1821 37.0471C88.4456 37.0471 88.6652 37.0032 88.8849 36.9593C89.1484 36.8714 89.368 36.7396 89.5877 36.6079C89.8512 36.4322 90.0709 36.3004 90.3344 36.0808C90.598 35.8611 90.8615 35.6415 91.169 35.4219C91.4765 35.6415 91.74 35.8611 92.0036 36.1247C92.2672 36.3882 92.5307 36.6957 92.7503 37.0032C92.926 37.3546 93.1017 37.706 93.2335 38.0574C93.3653 38.4528 93.4532 38.8481 93.4532 39.2434C93.4532 40.2976 93.1017 41.1322 92.4429 41.7472C91.784 42.3622 90.9055 42.8014 89.8073 43.065C90.2026 43.2407 90.6419 43.4164 91.0812 43.636C91.4765 43.8117 91.9157 44.0313 92.355 44.2949C92.7943 44.5145 93.1896 44.7781 93.5849 45.0416C93.9803 45.2613 94.3317 45.5248 94.6391 45.7444C94.6391 45.3491 94.5952 44.9099 94.5952 44.4267C94.5513 43.9435 94.5513 43.5042 94.5513 43.1528V37.6182C94.5513 37.0911 94.727 36.6079 94.9906 36.2565C95.298 35.8611 95.7812 35.6854 96.4401 35.6854H99.1635C99.471 35.6854 99.6906 35.7733 99.8663 35.9051C100.042 36.0808 100.13 36.3882 100.13 36.7396C100.13 36.9593 100.086 37.135 100.042 37.3546C99.9981 37.5303 99.9542 37.6621 99.8663 37.7939H97.2747V48.6435C97.0111 48.995 96.484 49.1267 95.7373 49.1267C95.6055 49.1267 95.4737 49.1267 95.342 49.0828Z" fill="#377044"/>
<path d="M98.4229 37.7872C98.1154 37.7872 97.8958 37.6993 97.7201 37.5236C97.5444 37.3918 97.4565 37.0843 97.4565 36.689C97.4565 36.5133 97.5005 36.2937 97.5444 36.118C97.5883 35.9423 97.6762 35.8105 97.7201 35.6787H100.136C100.575 35.6787 100.971 35.7666 101.366 35.8983C101.717 36.074 101.981 36.3376 102.201 36.689C102.332 36.3376 102.552 36.074 102.859 35.8983C103.167 35.7666 103.474 35.6787 103.87 35.6787H104.924C105.231 35.6787 105.451 35.7666 105.627 35.8983C105.802 36.074 105.89 36.3815 105.89 36.7329C105.89 36.9526 105.846 37.1283 105.802 37.3479C105.759 37.5236 105.715 37.6554 105.627 37.7872H104.089C103.782 37.7872 103.562 37.875 103.387 38.0068C103.167 38.1825 103.079 38.446 103.079 38.8414V49.0761C102.991 49.0761 102.859 49.12 102.64 49.1639C102.42 49.2079 102.201 49.2079 101.937 49.2079C101.454 49.2079 101.058 49.12 100.751 48.9443C100.487 48.7686 100.312 48.4172 100.312 47.8901V38.49C100.312 38.2703 100.268 38.0946 100.18 38.0068C100.048 37.875 99.9164 37.7872 99.7407 37.7872H98.4229Z" fill="#377044"/>
<path d="M71.2715 61.7493C71.2275 61.6175 71.1836 61.4857 71.1836 61.31C71.1836 61.1343 71.2275 61.0025 71.2715 60.9147C71.3154 60.7829 71.3593 60.6511 71.4472 60.6072C71.6668 60.6511 71.8864 60.6511 72.15 60.695C72.4135 60.695 72.6771 60.695 72.8967 60.695C73.7313 60.695 74.3902 60.5193 74.8295 60.2119C75.3126 59.8605 75.5323 59.3773 75.5323 58.8062C75.5323 58.367 75.4005 58.0156 75.1809 57.752C74.9173 57.5324 74.6098 57.4006 74.2584 57.4006C73.9509 57.4006 73.6435 57.5324 73.4238 57.7081C73.2042 57.9277 73.1164 58.2352 73.1164 58.5866C73.1164 58.7184 73.1164 58.8062 73.1603 58.938C73.1603 59.0259 73.2042 59.1137 73.2481 59.1576C73.0724 59.4212 72.8528 59.509 72.5014 59.509C72.2818 59.509 72.0621 59.4212 71.8864 59.2455C71.7107 59.0698 71.5789 58.7623 71.5789 58.367C71.5789 58.1034 71.6668 57.8838 71.7546 57.6202C71.8425 57.4006 72.0182 57.181 72.1939 57.0053C72.3696 56.8296 72.5892 56.6978 72.8528 56.566C73.0724 56.4782 73.3799 56.3903 73.6435 56.3464H70.6565C70.3051 56.3464 70.1294 56.1268 70.1294 55.7314C70.1294 55.6436 70.1733 55.5557 70.1733 55.4679C70.2172 55.3361 70.2172 55.2482 70.2612 55.2043H75.6201C75.664 55.1165 75.708 55.0286 75.7519 54.9847C75.7519 54.8968 75.7958 54.809 75.7958 54.7211C75.7958 54.5015 75.708 54.3258 75.5323 54.194C75.3566 54.0622 75.093 54.0183 74.6977 54.0183C74.5659 54.0183 74.4341 54.0183 74.3023 54.0183C74.2145 54.0183 74.0827 54.0183 73.9509 54.0183C73.8631 54.0183 73.7313 54.0183 73.5995 54.0183C73.4678 54.0183 73.2921 54.0183 73.1164 54.0183C72.3696 54.0183 71.7986 53.8865 71.4032 53.5791C71.0079 53.2277 70.7883 52.8323 70.7883 52.3052C70.7883 51.9977 70.8761 51.7342 71.0079 51.5585C71.1836 51.3828 71.4032 51.2949 71.6229 51.2949C71.7986 51.2949 71.9304 51.2949 72.0182 51.3388C72.1061 51.3828 72.1939 51.4267 72.2378 51.4706C72.2378 51.5585 72.2378 51.6024 72.2378 51.6903C72.2378 51.7342 72.2378 51.822 72.2378 51.9099C72.2378 52.5688 72.6332 52.8763 73.4238 52.8763C73.6874 52.8763 73.9509 52.8763 74.2145 52.8763C74.4781 52.8763 74.7416 52.8763 75.0491 52.8763C75.708 52.8763 76.2351 53.008 76.5865 53.2716C76.9379 53.5791 77.1136 53.9744 77.1136 54.4576C77.1136 54.5894 77.1136 54.7211 77.0697 54.8529C77.0257 54.9847 76.9818 55.0725 76.9379 55.2043H77.9482C78.2996 55.2043 78.4753 55.38 78.4753 55.7754C78.4753 55.8632 78.4314 55.9511 78.4314 56.0828C78.3874 56.1707 78.3874 56.2585 78.3435 56.3464H74.7416C75.093 56.3903 75.3566 56.4782 75.664 56.6099C75.9276 56.7417 76.1472 56.9174 76.3669 57.0931C76.5865 57.3128 76.7183 57.5763 76.85 57.8838C76.9818 58.1473 77.0257 58.4988 77.0257 58.8502C77.0257 59.2894 76.9379 59.6848 76.7622 60.0362C76.5865 60.3876 76.3669 60.6511 76.0594 60.9147C75.7519 61.1343 75.4005 61.31 75.0052 61.4418C74.6098 61.5296 74.2145 61.6175 73.7752 61.6175C74.4341 61.881 75.0052 62.1446 75.5762 62.3642C76.1472 62.5839 76.5865 62.7596 76.894 62.9353C77.1136 63.0231 77.2454 63.111 77.3772 63.2427C77.465 63.3745 77.5529 63.5063 77.5529 63.682C77.5529 63.9016 77.465 64.0334 77.3772 64.2091C77.2454 64.3409 77.1136 64.4287 76.9818 64.5166C76.4108 64.2091 75.8837 63.9456 75.4444 63.682C75.0052 63.4624 74.5659 63.2427 74.1266 63.0231C73.6874 62.8474 73.2481 62.6278 72.8089 62.4082C72.3696 62.1885 71.8425 61.9689 71.2715 61.7493Z" fill="#373435"/>
<path d="M80.3244 56.3387V63.7182C80.2805 63.7621 80.1926 63.7621 80.1047 63.8061C79.973 63.8061 79.8851 63.8061 79.7533 63.8061C79.4898 63.8061 79.2702 63.7621 79.1384 63.6743C78.9627 63.5864 78.9188 63.4107 78.9188 63.1472V56.3387H77.9085C77.5571 56.3387 77.3813 56.119 77.3813 55.7237C77.3813 55.6359 77.4253 55.548 77.4253 55.4602C77.4692 55.3284 77.4692 55.2405 77.5131 55.1966H78.787C78.6991 55.0648 78.6113 54.8891 78.5234 54.7134C78.4795 54.4938 78.4356 54.2742 78.4356 54.0545C78.4356 53.6592 78.5234 53.3078 78.6991 53.0003C78.8748 52.6928 79.1384 52.4293 79.4459 52.2096C79.7533 51.99 80.1487 51.8143 80.5879 51.6825C81.0711 51.5508 81.5543 51.5068 82.1253 51.5068C82.6085 51.5068 83.0917 51.5508 83.531 51.6386C83.9702 51.7265 84.3656 51.8143 84.717 51.9461C85.0684 52.0339 85.3758 52.1657 85.5955 52.2975C85.859 52.4293 86.0787 52.5611 86.2104 52.6489C86.4301 52.8246 86.6058 52.9564 86.6936 53.0882C86.7815 53.2199 86.8254 53.3078 86.8254 53.4396C86.8254 53.6153 86.7815 53.791 86.6497 53.8788C86.5618 54.0106 86.4301 54.0985 86.2983 54.1424C85.7712 53.7471 85.1123 53.4396 84.4095 53.1321C83.7067 52.8685 82.9599 52.7368 82.1693 52.7368C81.4664 52.7368 80.9393 52.8685 80.544 53.1321C80.1047 53.3956 79.929 53.791 79.929 54.2302C79.929 54.4499 79.973 54.6695 80.0169 54.8013C80.1047 54.977 80.1926 55.1088 80.2805 55.1966H81.6422C81.8179 55.1966 81.9496 55.2405 82.0375 55.3284C82.1253 55.4162 82.1693 55.548 82.1693 55.7676C82.1693 55.8555 82.1693 55.9433 82.1253 56.0751C82.1253 56.163 82.0814 56.2508 82.0375 56.3387H80.3244Z" fill="#373435"/>
<path d="M92.573 55.1943C92.9244 55.1943 93.1001 55.37 93.1001 55.7654C93.1001 55.8532 93.0562 55.9411 93.0562 56.0729C93.0123 56.1607 93.0123 56.2486 92.9684 56.3364H88.6636V58.6205C88.8833 58.4888 89.1907 58.3131 89.4982 58.1374C89.8057 57.9177 90.1132 57.742 90.4207 57.5663C90.5524 57.6542 90.7282 57.786 90.9039 57.9617C91.0356 58.0934 91.2113 58.3131 91.3431 58.5327C91.4749 58.7523 91.6067 59.0159 91.6945 59.2794C91.7824 59.543 91.8263 59.8505 91.8263 60.2019C91.8263 60.729 91.6945 61.2122 91.4749 61.6075C91.2553 62.0468 90.9917 62.3982 90.5964 62.6617C90.245 62.9253 89.8057 63.1449 89.2786 63.2767C88.7954 63.4524 88.2244 63.4963 87.6973 63.4963C87.0384 63.4963 86.4234 63.4085 85.8524 63.2328C85.2374 63.0571 84.7103 62.7935 84.2271 62.4421C83.7439 62.1346 83.3047 61.6954 82.9533 61.1682C82.6019 60.6851 82.3383 60.114 82.1626 59.4112C82.1187 59.2794 82.0748 59.1477 82.0748 59.0159C82.0308 58.8402 82.0308 58.7084 82.0308 58.5766C82.0308 58.2252 82.1187 58.0056 82.2505 57.786C82.3822 57.6103 82.6019 57.5224 82.9094 57.5224C83.0411 57.5224 83.129 57.5224 83.2168 57.5663C83.3047 57.6103 83.3925 57.6103 83.4804 57.6542L83.5243 58.1374C83.5682 58.8841 83.7439 59.4991 84.0075 59.9822C84.2271 60.5094 84.5785 60.9486 84.9299 61.3C85.3253 61.6075 85.7645 61.8711 86.2477 62.0468C86.687 62.1785 87.2141 62.2664 87.6973 62.2664C88.0487 62.2664 88.4001 62.2225 88.7076 62.1346C89.015 62.0468 89.3225 61.915 89.5422 61.7393C89.8057 61.5636 89.9814 61.3439 90.1132 61.0804C90.245 60.8168 90.3328 60.5094 90.3328 60.2019C90.3328 59.9383 90.2889 59.7187 90.245 59.543C90.201 59.3673 90.1132 59.1916 90.0253 59.0598C89.6739 59.2794 89.3665 59.4991 89.1029 59.6308C88.7954 59.8065 88.4879 59.9822 88.1805 60.114C88.0048 60.0701 87.829 59.9822 87.6533 59.8505C87.4776 59.6748 87.3459 59.543 87.3019 59.4112V58.7523C87.2141 58.6205 87.1262 58.5327 86.9945 58.4448C86.8627 58.357 86.7309 58.357 86.5552 58.357C86.3356 58.357 86.1599 58.4009 86.072 58.5327C85.9402 58.6645 85.8963 58.8402 85.8963 59.0159C85.8963 59.1037 85.8963 59.1916 85.8963 59.2794C85.9402 59.3673 85.9402 59.4112 85.9842 59.4991C85.9402 59.5869 85.8963 59.6748 85.7645 59.7626C85.6767 59.8505 85.5449 59.8944 85.3692 59.8944C85.1496 59.8944 84.9299 59.8065 84.7542 59.6308C84.5785 59.4112 84.4907 59.1477 84.4907 58.8402C84.4907 58.5327 84.5346 58.3131 84.6225 58.0934C84.7103 57.9177 84.8421 57.742 85.0178 57.6103C85.1935 57.4346 85.3692 57.3467 85.5888 57.2588C85.8524 57.2149 86.072 57.171 86.3356 57.171C86.5552 57.171 86.7309 57.2149 86.8627 57.2588C87.0384 57.3028 87.1702 57.3906 87.3019 57.4785V56.3364H81.6355C81.2841 56.3364 81.1084 56.1168 81.1084 55.7214C81.1084 55.6336 81.1084 55.5457 81.1523 55.4579C81.1523 55.3261 81.1963 55.2383 81.2402 55.1943H92.573Z" fill="#373435"/>
<path d="M93.633 63.5842C93.633 63.3206 93.7209 63.101 93.8527 62.9692C94.0284 62.7935 94.248 62.7057 94.5116 62.7057C94.7751 62.7057 94.9947 62.7935 95.1705 62.9692C95.3022 63.1449 95.3901 63.3206 95.3901 63.5842C95.3901 63.8477 95.3022 64.0234 95.1705 64.1991C94.9947 64.3748 94.7751 64.4627 94.5116 64.4627C94.248 64.4627 94.0284 64.3748 93.8527 64.1991C93.7209 64.0234 93.633 63.8477 93.633 63.5842ZM99.8266 56.3364V63.5402C99.7827 63.6281 99.6509 63.672 99.5191 63.7159C99.3873 63.7599 99.2116 63.8038 99.0359 63.8038C98.9481 63.8038 98.9041 63.8038 98.8163 63.7599C98.377 63.4524 97.9378 63.1888 97.4985 62.9253C97.0593 62.6617 96.6639 62.4421 96.2247 62.2225C95.7854 61.9589 95.3901 61.7832 94.9508 61.5636C94.5116 61.3439 94.0284 61.1682 93.5891 60.9486C93.5013 60.8168 93.4134 60.6411 93.3695 60.4654C93.3256 60.2458 93.3256 60.0701 93.3256 59.8505C93.3256 59.8065 93.3256 59.7626 93.3256 59.7187C93.3256 59.6308 93.3256 59.5869 93.3256 59.543C93.4573 59.4991 93.633 59.3673 93.8527 59.2794C94.0723 59.1477 94.2919 59.0598 94.5116 58.972C94.7312 58.8402 94.9508 58.7523 95.1705 58.6645C95.3901 58.5327 95.5658 58.4448 95.6976 58.4009L93.3256 57.3467C93.1499 57.2588 93.062 57.2149 92.9742 57.1271C92.9302 57.0831 92.8863 56.9953 92.8863 56.8635C92.8863 56.7317 92.9302 56.6439 92.9302 56.556C92.9742 56.4682 93.0181 56.3803 93.062 56.3364H92.491C92.1396 56.3364 91.9639 56.1168 91.9639 55.7214C91.9639 55.6336 91.9639 55.5457 91.9639 55.4579C92.0078 55.3261 92.0517 55.2383 92.0517 55.1943H101.144C101.496 55.1943 101.671 55.37 101.671 55.7654C101.671 55.8532 101.671 55.9411 101.628 56.0729C101.628 56.1607 101.584 56.2486 101.54 56.3364H99.8266ZM97.0593 57.8299C97.0593 57.8738 97.1032 57.9617 97.1032 58.0495C97.1032 58.1374 97.1032 58.2691 97.1032 58.357C97.1032 58.4888 97.1032 58.5766 97.0593 58.7084C97.0593 58.7963 97.0593 58.8841 97.0153 58.972C96.8396 59.0598 96.7079 59.1477 96.4882 59.2355C96.3125 59.3673 96.0929 59.4551 95.9172 59.543C95.7415 59.6748 95.5219 59.7626 95.3462 59.8505C95.1705 59.9822 95.0387 60.0701 94.9069 60.114C95.434 60.3776 96.049 60.6851 96.6639 61.0365C97.3228 61.3879 97.9378 61.7393 98.5088 62.0907C98.5088 61.9589 98.4649 61.8271 98.4649 61.6514C98.4649 61.4757 98.4649 61.3 98.421 61.1243C98.421 60.9486 98.421 60.7729 98.421 60.5972C98.421 60.4215 98.421 60.2897 98.421 60.158V56.3364H94.1162C94.2919 56.4243 94.5116 56.5121 94.7751 56.6439C95.0387 56.7757 95.3462 56.9074 95.6097 57.0392C95.8733 57.171 96.1807 57.3028 96.4004 57.4785C96.6639 57.6103 96.8836 57.6981 97.0593 57.8299Z" fill="#373435"/>
<path d="M100.771 56.3364C100.42 56.3364 100.244 56.1168 100.244 55.7214C100.244 55.6336 100.288 55.5457 100.288 55.4579C100.332 55.3261 100.332 55.2383 100.376 55.1943H101.869C102.133 55.1943 102.397 55.2383 102.616 55.3261C102.792 55.4579 102.968 55.5897 103.055 55.8093C103.143 55.5897 103.275 55.414 103.451 55.3261C103.583 55.2383 103.802 55.1943 104.022 55.1943H104.812C104.988 55.1943 105.12 55.2383 105.208 55.3261C105.296 55.414 105.34 55.5457 105.34 55.7654C105.34 55.8532 105.34 55.9411 105.34 56.0729C105.296 56.1607 105.252 56.2486 105.252 56.3364H104.154C103.978 56.3364 103.802 56.3803 103.714 56.4682C103.583 56.556 103.539 56.7317 103.539 56.9953V63.7599C103.495 63.7599 103.407 63.8038 103.275 63.8038C103.187 63.8477 103.055 63.8477 102.924 63.8477C102.66 63.8477 102.484 63.8038 102.309 63.7159C102.177 63.6281 102.089 63.4524 102.089 63.1449V56.7757C102.089 56.4682 101.957 56.3364 101.65 56.3364H100.771Z" fill="#373435"/>
</svg>
