<svg width="111" height="103" viewBox="0 0 111 103" fill="none" xmlns="http://www.w3.org/2000/svg">
<path fill-rule="evenodd" clip-rule="evenodd" d="M30.4835 30.6171C35.7107 30.661 40.1911 33.7798 42.0799 38.6555C43.9248 43.4434 42.7827 48.6267 38.7855 52.0529C36.106 54.337 34.9639 57.1922 34.6125 60.5745C34.2172 64.0007 31.3181 66.6802 28.0237 66.7241C24.5535 66.768 21.6105 64.3082 21.0395 60.7941C20.9955 60.4867 20.8638 60.0913 20.9955 59.8278C21.1712 59.4764 21.5666 58.9493 21.8301 58.9493C22.2255 58.9493 22.7086 59.3007 22.9283 59.6521C23.1479 59.9595 23.0601 60.4427 23.1479 60.8381C23.6311 63.1222 25.7395 64.7914 27.9797 64.6596C30.3957 64.5718 32.3284 62.7269 32.6359 60.3549C32.7237 59.3446 32.8994 58.3782 33.1191 57.3679C33.6462 54.7763 35.0518 52.6679 37.0724 50.9548C39.1369 49.2856 40.279 47.1332 40.7182 44.4977C41.6407 39.1387 37.5995 33.5601 32.1966 32.8134C28.5508 32.3302 25.432 33.2966 22.8843 36.0639C22.4451 36.5471 22.0058 36.9424 21.3909 36.3275C20.8198 35.8003 20.9077 35.2293 21.3909 34.6583C23.3236 32.1545 26.8816 30.5732 30.4835 30.6171Z" fill="#F58B71"/>
<path fill-rule="evenodd" clip-rule="evenodd" d="M30.4835 30.6171C35.7107 30.661 40.1911 33.7798 42.0799 38.6555C43.9248 43.4434 42.7827 48.6267 38.7855 52.0529C36.106 54.337 34.9639 57.1922 34.6125 60.5745C34.2172 64.0007 31.3181 66.6802 28.0237 66.7241C24.5535 66.768 21.6105 64.3082 21.0395 60.7941C20.9955 60.4867 20.8638 60.0913 20.9955 59.8278C21.1712 59.4764 21.5666 58.9493 21.8301 58.9493C22.2255 58.9493 22.7086 59.3007 22.9283 59.6521C23.1479 59.9595 23.0601 60.4427 23.1479 60.8381C23.6311 63.1222 25.7395 64.7914 27.9797 64.6596C30.3957 64.5718 32.3284 62.7269 32.6359 60.3549C32.7237 59.3446 32.8994 58.3782 33.1191 57.3679C33.6462 54.7763 35.0518 52.6679 37.0724 50.9548C39.1369 49.2856 40.279 47.1332 40.7182 44.4977C41.6407 39.1387 37.5995 33.5601 32.1966 32.8134C28.5508 32.3302 25.432 33.2966 22.8843 36.0639C22.4451 36.5471 22.0058 36.9424 21.3909 36.3275C20.8198 35.8003 20.9077 35.2293 21.3909 34.6583C23.3236 32.1545 26.8816 30.5732 30.4835 30.6171Z" stroke="#F58B71" stroke-width="0.0135276"/>
<path fill-rule="evenodd" clip-rule="evenodd" d="M30.3823 50.3596C30.3823 48.9539 30.6459 48.4268 31.3926 48.4707C32.6665 48.5586 32.359 49.5689 32.4468 50.3156C32.7104 53.4344 30.6898 56.2895 27.9225 56.9045C26.429 57.1681 25.1551 56.8606 24.1888 55.7624C23.1785 54.5325 22.9149 53.1269 23.5738 51.7213C23.9692 50.8427 24.5841 50.0521 25.243 49.3932C26.3411 48.2511 26.429 47.9876 25.5066 46.6698C25.3309 46.3623 25.1112 46.0548 24.8916 45.7913C22.9589 43.5511 23.5299 41.1351 24.8916 39.1585C27.1318 35.8201 31.9637 35.2051 35.0385 37.7968C38.0254 40.3445 38.245 45.1763 35.3899 47.9876C35.1263 48.2511 34.7749 48.5586 34.4235 48.5586C34.116 48.6025 33.545 48.295 33.5011 47.9876C33.3693 47.6362 33.5011 47.0651 33.7646 46.8016C34.7749 45.7034 35.4338 44.4735 35.4338 42.9361C35.3899 40.608 33.545 38.5435 31.173 38.236C29.0645 37.9725 26.5168 39.5977 25.9019 41.5744C25.5944 42.5408 25.7701 43.3753 26.3411 44.166C26.8243 44.9128 27.3514 45.6156 27.7907 46.4062C28.4935 47.6801 28.3617 48.91 27.3954 50.0081C26.9122 50.5353 26.429 51.0184 25.9458 51.5895C25.1991 52.4241 25.1112 53.6101 25.6823 54.3129C26.2533 55.0157 27.3954 55.1035 28.4496 54.4886C29.6795 53.7858 30.4262 52.2484 30.3823 50.3596Z" fill="#F58B71"/>
<path fill-rule="evenodd" clip-rule="evenodd" d="M30.3823 50.3596C30.3823 48.9539 30.6459 48.4268 31.3926 48.4707C32.6665 48.5586 32.359 49.5689 32.4468 50.3156C32.7104 53.4344 30.6898 56.2895 27.9225 56.9045C26.429 57.1681 25.1551 56.8606 24.1888 55.7624C23.1785 54.5325 22.9149 53.1269 23.5738 51.7213C23.9692 50.8427 24.5841 50.0521 25.243 49.3932C26.3411 48.2511 26.429 47.9876 25.5066 46.6698C25.3309 46.3623 25.1112 46.0548 24.8916 45.7913C22.9589 43.5511 23.5299 41.1351 24.8916 39.1585C27.1318 35.8201 31.9637 35.2051 35.0385 37.7968C38.0254 40.3445 38.245 45.1763 35.3899 47.9876C35.1263 48.2511 34.7749 48.5586 34.4235 48.5586C34.116 48.6025 33.545 48.295 33.5011 47.9876C33.3693 47.6362 33.5011 47.0651 33.7646 46.8016C34.7749 45.7034 35.4338 44.4735 35.4338 42.9361C35.3899 40.608 33.545 38.5435 31.173 38.236C29.0645 37.9725 26.5168 39.5977 25.9019 41.5744C25.5944 42.5408 25.7701 43.3753 26.3411 44.166C26.8243 44.9128 27.3514 45.6156 27.7907 46.4062C28.4935 47.6801 28.3617 48.91 27.3954 50.0081C26.9122 50.5353 26.429 51.0184 25.9458 51.5895C25.1991 52.4241 25.1112 53.6101 25.6823 54.3129C26.2533 55.0157 27.3954 55.1035 28.4496 54.4886C29.6795 53.7858 30.4262 52.2484 30.3823 50.3596Z" stroke="#F58B71" stroke-width="0.0135276"/>
<path fill-rule="evenodd" clip-rule="evenodd" d="M52.8373 54.032C52.8373 59.8302 48.9279 64.7938 43.2615 65.9798C42.2951 66.1994 41.2409 66.1994 40.2306 66.0677C39.8792 66.0237 39.396 65.4088 39.3082 65.0134C39.2203 64.3985 39.7035 64.1349 40.3624 64.1349C48.0933 63.9153 52.5738 57.4582 50.1579 49.9908C49.9382 49.2441 49.5868 48.5413 49.2793 47.8384C49.0158 47.1796 49.1036 46.6524 49.7625 46.301C50.4653 45.9936 50.9046 46.345 51.1681 47.0038C52.2224 49.2001 52.8813 51.5282 52.8373 54.032Z" fill="#F58B71"/>
<path fill-rule="evenodd" clip-rule="evenodd" d="M52.8373 54.032C52.8373 59.8302 48.9279 64.7938 43.2615 65.9798C42.2951 66.1994 41.2409 66.1994 40.2306 66.0677C39.8792 66.0237 39.396 65.4088 39.3082 65.0134C39.2203 64.3985 39.7035 64.1349 40.3624 64.1349C48.0933 63.9153 52.5738 57.4582 50.1579 49.9908C49.9382 49.2441 49.5868 48.5413 49.2793 47.8384C49.0158 47.1796 49.1036 46.6524 49.7625 46.301C50.4653 45.9936 50.9046 46.345 51.1681 47.0038C52.2224 49.2001 52.8813 51.5282 52.8373 54.032Z" stroke="#F58B71" stroke-width="0.0135276"/>
<path fill-rule="evenodd" clip-rule="evenodd" d="M48.7071 53.5357C48.6192 58.3236 44.622 62.1012 39.9658 61.7059C39.263 61.662 38.8677 61.2666 38.8677 60.6517C38.8677 60.0367 39.263 59.6853 39.9219 59.6853C40.6247 59.6414 41.3714 59.5975 42.0743 59.3778C45.5444 58.4993 47.2136 55.2049 46.1594 51.4712C46.0276 51.0319 45.8519 50.6366 45.6762 50.1973C45.4565 49.4945 45.5883 48.9235 46.3351 48.616C47.0818 48.3524 47.4332 48.8796 47.6089 49.4067C48.0042 50.7684 48.3117 52.174 48.7071 53.5357Z" fill="#F58B71"/>
<path fill-rule="evenodd" clip-rule="evenodd" d="M48.7071 53.5357C48.6192 58.3236 44.622 62.1012 39.9658 61.7059C39.263 61.662 38.8677 61.2666 38.8677 60.6517C38.8677 60.0367 39.263 59.6853 39.9219 59.6853C40.6247 59.6414 41.3714 59.5975 42.0743 59.3778C45.5444 58.4993 47.2136 55.2049 46.1594 51.4712C46.0276 51.0319 45.8519 50.6366 45.6762 50.1973C45.4565 49.4945 45.5883 48.9235 46.3351 48.616C47.0818 48.3524 47.4332 48.8796 47.6089 49.4067C48.0042 50.7684 48.3117 52.174 48.7071 53.5357Z" stroke="#F58B71" stroke-width="0.0135276"/>
<path fill-rule="evenodd" clip-rule="evenodd" d="M44.007 53.6604C43.8752 55.8128 42.1621 57.4819 40.1415 57.4819C39.3948 57.4819 38.9116 57.1305 38.8677 56.3838C38.8677 55.681 39.3509 55.4614 40.0097 55.4174C41.7229 55.2417 42.2939 54.2754 41.5032 52.738C41.1957 52.0791 41.1957 51.5959 41.8986 51.2445C42.5574 50.8491 43.0846 51.2006 43.3481 51.8155C43.6556 52.3866 43.7874 53.0454 44.007 53.6604Z" fill="#F58B71"/>
<path fill-rule="evenodd" clip-rule="evenodd" d="M44.007 53.6604C43.8752 55.8128 42.1621 57.4819 40.1415 57.4819C39.3948 57.4819 38.9116 57.1305 38.8677 56.3838C38.8677 55.681 39.3509 55.4614 40.0097 55.4174C41.7229 55.2417 42.2939 54.2754 41.5032 52.738C41.1957 52.0791 41.1957 51.5959 41.8986 51.2445C42.5574 50.8491 43.0846 51.2006 43.3481 51.8155C43.6556 52.3866 43.7874 53.0454 44.007 53.6604Z" stroke="#F58B71" stroke-width="0.0135276"/>
<path fill-rule="evenodd" clip-rule="evenodd" d="M38.6164 91.6152C44.404 93.8213 50.7332 95.037 57.3638 95.037C65.5779 95.037 73.3528 93.1482 80.2052 89.8538C71.8154 96.1791 61.405 99.9567 50.1161 99.9567C43.6933 99.9567 37.5549 98.7432 31.9174 96.5334L38.6164 91.6152ZM24.5522 83.4753C14.1334 74.9214 7.55194 62.3671 7.55194 48.3878C7.55194 22.6473 29.8663 1.73861 57.3638 1.73861C59.3844 1.73861 61.405 1.87039 63.3816 2.09002C59.1648 0.904024 54.6843 0.289062 50.1161 0.289062C22.5746 0.289062 0.260254 22.6034 0.260254 50.1449C0.260254 67.6908 9.3458 83.1264 23.0775 92.0008L24.5522 83.4753Z" fill="#F47D5C"/>
<path d="M28.6048 80.376L21.6646 102.954L40.0255 85.9106L28.6048 80.376Z" fill="#377044"/>
<path fill-rule="evenodd" clip-rule="evenodd" d="M15.9307 49.2438C15.9307 70.4599 33.1057 87.6349 54.3219 87.6349C67.965 87.6349 79.9666 80.5033 86.7771 69.7542H91.6741C84.4203 82.9295 70.399 91.8518 54.3219 91.8518C30.7777 91.8518 11.7139 72.788 11.7139 49.2438C11.7139 25.6995 30.7777 6.63574 54.3219 6.63574C70.3967 6.63574 84.4162 15.5555 91.6709 28.7275H86.7734C79.9623 17.9817 67.9626 10.8526 54.3219 10.8526C33.1057 10.8526 15.9307 28.0276 15.9307 49.2438Z" fill="#377044"/>
<path d="M63.2223 37.6582C62.9588 37.79 62.7392 38.0097 62.4756 38.3171C62.1681 38.6246 61.9485 39.0199 61.7289 39.4592C61.4653 39.9424 61.2896 40.4256 61.1578 40.9966C61.0261 41.5676 60.9382 42.1387 60.9382 42.7536C60.9382 43.4125 61.0261 43.9836 61.1578 44.4667C61.3335 44.9939 61.5092 45.4331 61.7728 45.8724C62.0364 46.2677 62.3438 46.6191 62.6513 46.8827C63.0027 47.1901 63.3102 47.4098 63.7055 47.5855C63.7055 47.6733 63.7055 47.7173 63.7055 47.8051C63.7055 47.893 63.7055 47.9369 63.7055 48.0247C63.7055 48.4201 63.5738 48.7715 63.3541 48.9911C63.0906 49.2547 62.7831 49.3864 62.3438 49.3864C61.9046 49.3864 61.4214 49.2547 60.9382 48.9472C60.4111 48.6836 59.9718 48.2444 59.5765 47.7173C59.1372 47.1901 58.7858 46.5313 58.5223 45.7406C58.2587 44.9499 58.127 44.0714 58.127 43.105C58.127 41.919 58.3027 40.8648 58.6101 39.9424C58.9615 39.0199 59.3569 38.2293 59.8401 37.5704C60.2793 36.9115 60.8064 36.4283 61.3335 36.0769C61.9046 35.7255 62.3878 35.5498 62.827 35.5498H64.0569C64.3644 35.5498 64.584 35.6377 64.7598 35.8134C64.9355 35.9451 65.0233 36.2526 65.0233 36.604C65.0233 36.8237 64.9794 37.0433 64.9355 37.219C64.8915 37.3947 64.8476 37.5265 64.7598 37.6582H63.2223Z" fill="#377044"/>
<path d="M64.9995 35.5565C66.0098 35.5565 66.8005 35.7322 67.4154 36.0397C67.9865 36.3472 68.4257 36.7864 68.6893 37.2696C69.0407 36.6107 69.4799 36.1276 70.0949 35.8201C70.6659 35.4687 71.3688 35.293 72.1155 35.293C72.7305 35.293 73.2576 35.4247 73.7847 35.6444C74.2679 35.9079 74.7071 36.2593 75.0146 36.7425C75.1025 36.3911 75.3221 36.0836 75.6296 35.864C75.8931 35.6444 76.2884 35.5565 76.7716 35.5565H79.0558C79.3193 35.5565 79.539 35.6444 79.7147 35.8201C79.8904 35.9519 79.9782 36.2593 79.9782 36.6107C79.9782 36.8304 79.9782 37.05 79.9343 37.2257C79.8904 37.4014 79.8025 37.5332 79.7586 37.665H77.2109V48.6903C77.123 48.7343 76.9473 48.7782 76.7277 48.7782C76.552 48.8221 76.2884 48.866 76.0249 48.866C75.5417 48.866 75.1464 48.7782 74.8828 48.6025C74.5753 48.4268 74.4436 48.0754 74.4436 47.5043V39.5538C74.2679 38.9827 74.0043 38.5435 73.609 38.1921C73.2576 37.8407 72.7744 37.665 72.2033 37.665C71.6323 37.665 71.1491 37.8407 70.7977 38.1921C70.4463 38.5435 70.2267 39.0267 70.2267 39.5977C70.2267 40.1687 70.4024 40.608 70.7977 40.9155C71.1491 41.2669 71.5884 41.3987 72.0716 41.3987C72.3791 41.3987 72.5987 41.3987 72.7744 41.3547C72.8622 41.4865 72.9501 41.6183 72.994 41.8379C73.0379 42.0136 73.0819 42.1893 73.0819 42.365C73.0819 42.8921 72.9062 43.2435 72.5987 43.5071C72.2912 43.7267 71.8519 43.8585 71.2809 43.8585C70.7538 43.8585 70.2706 43.7267 69.7874 43.4632C69.3482 43.1557 68.9968 42.8043 68.7332 42.2772C68.5575 42.7604 68.2061 43.1557 67.7229 43.4632C67.2397 43.7267 66.6687 43.9024 66.0098 43.9024C65.4388 43.9024 64.9995 43.7707 64.6481 43.5071C64.2967 43.2435 64.1649 42.8921 64.1649 42.409C64.1649 41.9258 64.2528 41.5304 64.4724 41.2669C64.6042 41.3108 64.736 41.3547 64.9117 41.3987C65.0874 41.3987 65.2631 41.3987 65.4388 41.3987C65.9659 41.3987 66.4051 41.2669 66.7565 40.9594C67.108 40.6958 67.2837 40.2127 67.2837 39.5977C67.2837 39.0267 67.108 38.5874 66.7126 38.236C66.3612 37.8846 65.7902 37.665 64.9995 37.665H63.7696C63.4621 37.665 63.2425 37.621 63.0668 37.4453C62.8911 37.2696 62.8032 36.9621 62.8032 36.5668C62.8032 36.3911 62.8471 36.1715 62.8911 35.9958C62.935 35.8201 62.9789 35.6883 63.0668 35.5565H64.9995Z" fill="#377044"/>
<path d="M78.313 37.6582C78.0056 37.6582 77.7859 37.6143 77.6102 37.4386C77.4345 37.2629 77.3467 36.9554 77.3467 36.5601C77.3467 36.3844 77.3906 36.1648 77.4345 35.9891C77.4785 35.8134 77.5663 35.6816 77.6102 35.5498H80.0262C80.4654 35.5498 80.9047 35.6377 81.2561 35.8134C81.6075 35.9451 81.915 36.2087 82.0907 36.5601C82.2224 36.2087 82.4421 35.9451 82.7496 35.7694C83.057 35.6377 83.3645 35.5498 83.7598 35.5498H84.8141C85.1215 35.5498 85.3412 35.6377 85.5169 35.8134C85.6926 35.9451 85.7804 36.2526 85.7804 36.604C85.7804 36.8237 85.7804 37.0433 85.6926 37.219C85.6487 37.3947 85.6047 37.5265 85.5169 37.6582H83.9795C83.7159 37.6582 83.4524 37.7461 83.2767 37.8779C83.057 38.0536 82.9692 38.3171 82.9692 38.7564V48.9472C82.8813 48.9911 82.7496 48.9911 82.5299 49.035C82.3103 49.079 82.0907 49.079 81.8271 49.079C81.3439 49.079 80.9486 48.9911 80.6411 48.8154C80.3776 48.6397 80.2019 48.2883 80.2019 47.7612V38.3611C80.2019 38.1414 80.1579 38.0097 80.0701 37.8779C79.9383 37.7461 79.8065 37.6582 79.6308 37.6582H78.313Z" fill="#377044"/>
<path d="M85.5063 43.105C85.5063 41.8751 85.682 40.8209 86.0334 39.9424C86.3848 39.0199 86.824 38.2732 87.3511 37.6582H84.0128C83.7492 37.6582 83.5296 37.6143 83.3539 37.4386C83.1782 37.2629 83.0903 36.9554 83.0903 36.5601C83.0903 36.3844 83.0903 36.1648 83.1343 35.9891C83.1782 35.8134 83.266 35.6816 83.31 35.5498H91.8316C92.139 35.5498 92.3587 35.6377 92.5344 35.8134C92.7101 35.9451 92.7979 36.2526 92.7979 36.604C92.7979 36.8237 92.754 37.0433 92.7101 37.219C92.6662 37.3947 92.6222 37.5265 92.5344 37.6582H90.382C90.1624 37.8339 89.9428 38.0536 89.6792 38.3611C89.4596 38.6685 89.2399 39.0199 89.0203 39.4592C88.8007 39.8985 88.6689 40.3816 88.5371 40.9088C88.4054 41.4798 88.3175 42.0508 88.3175 42.6658C88.3175 43.3247 88.4054 43.9396 88.5371 44.4667C88.7128 44.9939 88.9325 45.477 89.1521 45.8724C89.4156 46.2677 89.7231 46.6191 90.0745 46.8827C90.382 47.1901 90.7334 47.4098 91.0848 47.5855C91.0848 47.6733 91.0848 47.7173 91.0848 47.8051C91.0848 47.893 91.0848 47.9369 91.0848 48.0247C91.0848 48.4201 90.997 48.7715 90.7334 48.9911C90.5138 49.2547 90.1624 49.3864 89.7231 49.3864C89.2839 49.3864 88.8007 49.2547 88.3175 48.9472C87.7904 48.6836 87.3511 48.2444 86.9558 47.7173C86.5165 47.1901 86.2091 46.5313 85.9455 45.7406C85.638 44.9499 85.5063 44.0714 85.5063 43.105Z" fill="#377044"/>
<path d="M101.854 37.6582V48.6836C101.766 48.7275 101.59 48.7715 101.371 48.7715C101.195 48.8154 100.931 48.8593 100.668 48.8593C100.185 48.8593 99.7892 48.7715 99.5256 48.5958C99.2182 48.4201 99.0864 48.0687 99.0864 47.4976V44.3789C98.735 43.72 98.2957 43.1929 97.7686 42.7976C97.2415 42.4022 96.7144 42.1826 96.1433 42.1826C95.7041 42.1826 95.3088 42.3144 95.0452 42.5779C94.7377 42.8415 94.6059 43.149 94.6059 43.5443C94.6059 43.7639 94.6499 43.9396 94.6938 44.1153C94.7377 44.2471 94.8256 44.4228 94.9134 44.6424C94.7816 44.8182 94.6059 44.9939 94.3863 45.1256C94.1667 45.2574 93.8592 45.3453 93.5078 45.3453C93.0246 45.3453 92.5854 45.1696 92.2339 44.7742C91.8825 44.4228 91.7068 43.8957 91.7068 43.149C91.7068 42.5779 91.7947 42.0948 92.0143 41.6994C92.19 41.2602 92.4975 40.9088 92.8489 40.6452C93.2003 40.3377 93.6396 40.1181 94.1228 39.9863C94.6059 39.8106 95.0891 39.7667 95.6602 39.7667C96.0555 39.7667 96.4069 39.8106 96.7583 39.8985C97.1097 39.9424 97.4172 40.0742 97.7247 40.2059C98.0322 40.3377 98.2957 40.5134 98.5153 40.6452C98.735 40.8209 98.9107 40.9966 99.0864 41.1284V37.6582H91.1358C90.8283 37.6582 90.6087 37.6143 90.433 37.4386C90.2573 37.2629 90.1694 36.9554 90.1694 36.5601C90.1694 36.3844 90.2134 36.1648 90.2573 35.9891C90.3012 35.8134 90.3891 35.6816 90.433 35.5498H103.699C103.962 35.5498 104.182 35.6377 104.357 35.8134C104.533 35.9451 104.621 36.2526 104.621 36.604C104.621 36.8237 104.621 37.0433 104.577 37.219C104.533 37.3947 104.445 37.5265 104.401 37.6582H101.854Z" fill="#377044"/>
<path d="M102.975 37.6582C102.668 37.6582 102.448 37.6143 102.272 37.4386C102.097 37.2629 102.009 36.9554 102.009 36.5601C102.009 36.3844 102.053 36.1648 102.097 35.9891C102.141 35.8134 102.228 35.6816 102.272 35.5498H104.688C105.128 35.5498 105.567 35.6377 105.918 35.8134C106.27 35.9451 106.577 36.2087 106.753 36.5601C106.885 36.2087 107.104 35.9451 107.412 35.7694C107.719 35.6377 108.027 35.5498 108.422 35.5498H109.476C109.784 35.5498 110.003 35.6377 110.179 35.8134C110.355 35.9451 110.443 36.2526 110.443 36.604C110.443 36.8237 110.399 37.0433 110.355 37.219C110.311 37.3947 110.267 37.5265 110.179 37.6582H108.642C108.378 37.6582 108.114 37.7461 107.939 37.8779C107.719 38.0536 107.631 38.3171 107.631 38.7564V48.9472C107.543 48.9911 107.412 48.9911 107.192 49.035C106.972 49.079 106.753 49.079 106.489 49.079C106.006 49.079 105.611 48.9911 105.303 48.8154C105.04 48.6397 104.864 48.2883 104.864 47.7612V38.3611C104.864 38.1414 104.82 38.0097 104.732 37.8779C104.6 37.7461 104.469 37.6582 104.293 37.6582H102.975Z" fill="#377044"/>
<path d="M70.896 61.7883C70.8081 61.6566 70.8081 61.5248 70.8081 61.3491C70.8081 61.2173 70.8081 61.0855 70.8521 60.9537C70.896 60.822 70.9838 60.7341 71.0278 60.6463C71.2474 60.6902 71.467 60.7341 71.7745 60.7341C72.038 60.7341 72.2577 60.778 72.5212 60.778C73.3558 60.778 74.0147 60.6023 74.454 60.2509C74.8932 59.8995 75.1568 59.4603 75.1568 58.8892C75.1568 58.406 75.025 58.0546 74.7614 57.835C74.5418 57.5715 74.2343 57.4397 73.8829 57.4397C73.5315 57.4397 73.268 57.5715 73.0483 57.7911C72.8287 57.9668 72.6969 58.2743 72.6969 58.6257C72.6969 58.7574 72.7409 58.8453 72.7409 58.9771C72.7848 59.0649 72.7848 59.1528 72.8287 59.2406C72.6969 59.4603 72.4334 59.592 72.1259 59.592C71.8623 59.592 71.6866 59.5042 71.467 59.2846C71.2913 59.1089 71.2035 58.8453 71.2035 58.45C71.2035 58.1864 71.2474 57.9229 71.3352 57.7032C71.467 57.4397 71.5988 57.264 71.7745 57.0883C71.9502 56.9126 72.1698 56.7369 72.4334 56.649C72.6969 56.5172 72.9605 56.4294 73.268 56.3855H70.281C69.9296 56.3855 69.7539 56.2097 69.7539 55.8144C69.7539 55.6826 69.7539 55.5948 69.7978 55.5069C69.7978 55.4191 69.8418 55.3312 69.8857 55.2434H75.2446C75.2886 55.1555 75.3325 55.1116 75.3325 55.0238C75.3764 54.9359 75.3764 54.848 75.3764 54.7602C75.3764 54.5406 75.2886 54.3649 75.1568 54.2331C74.9811 54.1013 74.7175 54.0574 74.3222 54.0574C74.1465 54.0574 74.0147 54.0574 73.9269 54.0574C73.7951 54.0574 73.6633 54.0574 73.5755 54.0574C73.4437 54.0574 73.3558 54.0574 73.224 54.1013C73.0483 54.1013 72.9166 54.1013 72.6969 54.1013C71.9941 54.1013 71.4231 53.9256 71.0278 53.6181C70.5885 53.3106 70.4128 52.8714 70.4128 52.3882C70.4128 52.0368 70.4567 51.7732 70.6324 51.5975C70.7642 51.4218 70.9838 51.334 71.2474 51.334C71.3792 51.334 71.5109 51.334 71.5988 51.3779C71.7306 51.4218 71.8184 51.4658 71.8623 51.5097C71.8623 51.5975 71.8623 51.6415 71.8184 51.7293C71.8184 51.7732 71.8184 51.8611 71.8184 51.9489C71.8184 52.6078 72.2138 52.9592 73.0483 52.9592C73.3119 52.9592 73.5755 52.9592 73.7951 52.9153C74.0586 52.9153 74.3222 52.9153 74.6297 52.9153C75.3325 52.9153 75.8157 53.0471 76.211 53.3546C76.5624 53.6181 76.7381 54.0135 76.7381 54.4966C76.7381 54.6284 76.6942 54.8041 76.6503 54.892C76.6503 55.0238 76.6063 55.1555 76.5185 55.2434H77.5288C77.8802 55.2434 78.0559 55.4191 78.0559 55.8144C78.0559 55.9023 78.0559 56.034 78.012 56.1219C78.012 56.2097 77.968 56.2976 77.9241 56.3855H74.3661C74.6736 56.4294 74.9811 56.5172 75.2446 56.649C75.5082 56.7808 75.7717 56.9565 75.9474 57.1761C76.1671 57.3957 76.3428 57.6154 76.4306 57.9229C76.5624 58.2303 76.6063 58.5378 76.6063 58.8892C76.6063 59.3724 76.5185 59.7677 76.3428 60.0752C76.1671 60.4266 75.9474 60.7341 75.64 60.9537C75.3325 61.1734 75.025 61.3491 74.6297 61.4808C74.2343 61.6126 73.7951 61.6566 73.3558 61.7005C74.0147 61.9201 74.6297 62.1837 75.2007 62.4033C75.7278 62.6229 76.1671 62.8425 76.4746 62.9743C76.6942 63.0622 76.8699 63.194 76.9577 63.2818C77.0895 63.4136 77.1334 63.5454 77.1334 63.7211C77.1334 63.9407 77.0895 64.1164 76.9577 64.2482C76.8699 64.38 76.7381 64.4678 76.5624 64.5557C75.9914 64.2482 75.5082 63.9846 75.0689 63.765C74.5857 63.5014 74.1465 63.2818 73.7072 63.1061C73.3119 62.8865 72.8726 62.6668 72.3895 62.4472C71.9502 62.2715 71.4231 62.0519 70.896 61.7883Z" fill="#373435"/>
<path d="M79.9435 56.3836V63.8071C79.8996 63.8071 79.8117 63.8071 79.68 63.851C79.5921 63.851 79.4603 63.8949 79.3286 63.8949C79.065 63.8949 78.8893 63.8071 78.7136 63.7192C78.5818 63.6314 78.494 63.4557 78.494 63.1921V56.3836H77.5276C77.1762 56.3836 77.0005 56.2079 77.0005 55.8126C77.0005 55.6808 77.0005 55.5929 77.0444 55.5051C77.0444 55.4172 77.0883 55.3294 77.1323 55.2415H78.4061C78.2743 55.1097 78.1865 54.978 78.1426 54.7583C78.0547 54.5826 78.0108 54.363 78.0108 54.0995C78.0108 53.7041 78.0986 53.3527 78.2743 53.0452C78.45 52.7378 78.7136 52.4742 79.0211 52.2546C79.3725 52.0349 79.7678 51.8592 80.2071 51.7275C80.6463 51.6396 81.1734 51.5518 81.7006 51.5518C82.2277 51.5518 82.6669 51.5957 83.1062 51.6835C83.5454 51.7714 83.9408 51.8592 84.2922 51.991C84.6436 52.1228 84.9511 52.2546 85.2146 52.3424C85.4782 52.4742 85.6539 52.606 85.7857 52.6938C86.0492 52.8695 86.2249 53.0013 86.2688 53.1331C86.3567 53.2649 86.4006 53.3966 86.4006 53.5284C86.4006 53.7041 86.3567 53.8359 86.2688 53.9677C86.1371 54.0555 86.0492 54.1434 85.8735 54.1873C85.3464 53.8359 84.7314 53.4845 84.0286 53.2209C83.3258 52.9135 82.5791 52.7817 81.7445 52.7817C81.0417 52.7817 80.5146 52.9135 80.1192 53.177C79.7239 53.4845 79.5043 53.8359 79.5043 54.2752C79.5043 54.5387 79.5482 54.7144 79.636 54.8901C79.68 55.0219 79.7678 55.1537 79.8996 55.2415H81.2613C81.3931 55.2415 81.5248 55.2855 81.6127 55.3733C81.7006 55.4612 81.7445 55.5929 81.7445 55.8126C81.7445 55.9004 81.7445 56.0322 81.7445 56.12C81.7006 56.2079 81.7006 56.2957 81.6566 56.3836H79.9435Z" fill="#373435"/>
<path d="M92.1536 55.2393C92.505 55.2393 92.6807 55.415 92.6807 55.8103C92.6807 55.8981 92.6807 56.0299 92.6368 56.1178C92.6368 56.2056 92.5929 56.2935 92.549 56.3813H88.2882V58.7094C88.5078 58.5776 88.7713 58.4019 89.0788 58.1823C89.3863 58.0066 89.6938 57.787 90.0013 57.6113C90.177 57.6991 90.3087 57.8309 90.4844 58.0066C90.6601 58.1823 90.7919 58.358 90.9676 58.5776C91.0994 58.7972 91.1873 59.0608 91.2751 59.3244C91.363 59.6318 91.4069 59.9393 91.4069 60.2468C91.4069 60.8178 91.319 61.2571 91.0994 61.6964C90.8798 62.0917 90.5723 62.4431 90.2209 62.7066C89.8256 63.0141 89.3863 63.1898 88.9031 63.3655C88.376 63.4973 87.8489 63.5412 87.2779 63.5412C86.619 63.5412 86.004 63.4534 85.433 63.3216C84.8619 63.1459 84.2909 62.8823 83.8077 62.5309C83.3245 62.1795 82.9292 61.7403 82.5778 61.2571C82.2264 60.73 81.9628 60.1589 81.7432 59.5001C81.7432 59.3683 81.6993 59.1926 81.6554 59.0608C81.6554 58.8851 81.6554 58.7533 81.6554 58.6215C81.6554 58.3141 81.6993 58.0505 81.875 57.8748C82.0068 57.6552 82.2264 57.5673 82.5339 57.5673C82.6217 57.5673 82.7535 57.6113 82.8413 57.6113C82.9292 57.6552 83.0171 57.6991 83.061 57.743L83.1049 58.2262C83.1928 58.929 83.3245 59.544 83.5881 60.0711C83.8516 60.5982 84.1591 60.9935 84.5545 61.3449C84.9498 61.6964 85.3451 61.916 85.8283 62.0917C86.3115 62.2674 86.7947 62.3552 87.3218 62.3552C87.6732 62.3552 87.9807 62.3113 88.3321 62.1795C88.6396 62.0917 88.9031 61.9599 89.1667 61.7842C89.3863 61.6085 89.6059 61.3889 89.7377 61.1253C89.8695 60.8618 89.9573 60.5982 89.9573 60.2468C89.9573 59.9832 89.9134 59.7636 89.8695 59.5879C89.7816 59.4122 89.7377 59.2365 89.6059 59.1487C89.2984 59.3683 88.991 59.544 88.6835 59.7197C88.376 59.8515 88.0685 60.0272 87.761 60.1589C87.5853 60.115 87.4096 60.0272 87.2339 59.8954C87.1022 59.7636 86.9704 59.6318 86.8825 59.5001V58.7972C86.8386 58.6655 86.7068 58.5776 86.575 58.4898C86.4872 58.4458 86.3115 58.4019 86.1797 58.4019C85.9601 58.4019 85.7844 58.4458 85.6526 58.5776C85.5208 58.7094 85.4769 58.8851 85.4769 59.0608C85.4769 59.1487 85.4769 59.2365 85.5208 59.3244C85.5208 59.4122 85.5647 59.5001 85.6087 59.544C85.5647 59.6758 85.4769 59.7636 85.389 59.8075C85.2573 59.8954 85.1255 59.9393 84.9498 59.9393C84.7302 59.9393 84.5545 59.8515 84.3788 59.6758C84.203 59.5001 84.1152 59.2365 84.1152 58.8851C84.1152 58.6215 84.1591 58.358 84.247 58.1823C84.3348 57.9627 84.4666 57.787 84.6423 57.6552C84.7741 57.5234 84.9937 57.3916 85.2133 57.3477C85.433 57.2598 85.6526 57.2159 85.9162 57.2159C86.1358 57.2159 86.3115 57.2598 86.4872 57.3038C86.619 57.3477 86.7947 57.4355 86.8825 57.5234V56.3813H81.26C80.9086 56.3813 80.7329 56.2056 80.7329 55.8103C80.7329 55.6785 80.7329 55.5907 80.7329 55.5028C80.7768 55.415 80.8208 55.3271 80.8208 55.2393H92.1536Z" fill="#373435"/>
<path d="M93.2131 63.6291C93.2131 63.3655 93.301 63.1898 93.4767 63.0141C93.6524 62.8823 93.872 62.7945 94.1356 62.7945C94.3552 62.7945 94.5748 62.8823 94.7505 63.0141C94.9262 63.1898 95.0141 63.4095 95.0141 63.6291C95.0141 63.8926 94.9262 64.0683 94.7505 64.244C94.5748 64.4198 94.3552 64.5076 94.1356 64.5076C93.872 64.5076 93.6524 64.4198 93.4767 64.244C93.301 64.0683 93.2131 63.8926 93.2131 63.6291ZM99.4506 56.3813V63.5852C99.3627 63.673 99.2749 63.7169 99.1431 63.8048C99.0113 63.8487 98.8356 63.8487 98.6599 63.8487C98.5721 63.8487 98.4842 63.8487 98.4403 63.8487C97.9571 63.5412 97.5179 63.2338 97.1225 62.9702C96.6833 62.7506 96.244 62.487 95.8487 62.2674C95.4094 62.0478 94.9702 61.8281 94.5309 61.6085C94.0916 61.3889 93.6524 61.2132 93.1692 60.9935C93.0813 60.8618 93.0374 60.73 92.9935 60.5104C92.9496 60.3347 92.9056 60.115 92.9056 59.8954C92.9056 59.8515 92.9056 59.8075 92.9056 59.7636C92.9056 59.7197 92.9056 59.6758 92.9496 59.6318C93.0813 59.544 93.2571 59.4561 93.4328 59.3244C93.6524 59.2365 93.872 59.1047 94.0916 59.0169C94.3113 58.8851 94.5309 58.7972 94.7505 58.7094C94.9702 58.6215 95.1459 58.5337 95.2776 58.4458L92.9056 57.3916C92.7739 57.3477 92.6421 57.2598 92.5982 57.2159C92.5103 57.1281 92.5103 57.0402 92.5103 56.9084C92.5103 56.8206 92.5103 56.7327 92.5542 56.6449C92.5982 56.5131 92.6421 56.4692 92.686 56.3813H92.0711C91.7196 56.3813 91.5439 56.2056 91.5439 55.8103C91.5439 55.6785 91.5439 55.5907 91.5879 55.5028C91.5879 55.415 91.6318 55.3271 91.6757 55.2393H100.768C101.12 55.2393 101.252 55.415 101.252 55.8103C101.252 55.8981 101.252 56.0299 101.252 56.1178C101.208 56.2056 101.208 56.2935 101.164 56.3813H99.4506ZM96.6393 57.8748C96.6833 57.9627 96.6833 58.0066 96.6833 58.1384C96.6833 58.2262 96.7272 58.3141 96.7272 58.4019C96.7272 58.5337 96.6833 58.6655 96.6833 58.7533C96.6833 58.8851 96.6393 58.973 96.5954 59.0608C96.4636 59.1047 96.2879 59.1926 96.1122 59.3244C95.8926 59.4122 95.7169 59.5001 95.4973 59.6318C95.3216 59.7197 95.1459 59.8075 94.9702 59.9393C94.7505 60.0272 94.6188 60.115 94.487 60.1589C95.058 60.4225 95.629 60.73 96.2879 61.0814C96.9468 61.4328 97.5179 61.7842 98.0889 62.1795C98.0889 62.0478 98.0889 61.8721 98.0889 61.6964C98.045 61.5206 98.045 61.3449 98.045 61.1692C98.045 60.9935 98.001 60.8178 98.001 60.6421C98.001 60.4664 98.001 60.3347 98.001 60.2029V56.3813H93.6963C93.872 56.4692 94.1356 56.557 94.3991 56.6888C94.6627 56.8206 94.9262 56.9524 95.1898 57.0841C95.4973 57.2159 95.7608 57.3916 96.0244 57.5234C96.2879 57.6552 96.4636 57.787 96.6393 57.8748Z" fill="#373435"/>
<path d="M100.351 56.3813C99.9999 56.3813 99.8242 56.2056 99.8242 55.8103C99.8242 55.6785 99.8242 55.5907 99.8242 55.5028C99.8681 55.415 99.9121 55.3271 99.9121 55.2393H101.406C101.713 55.2393 101.933 55.2832 102.152 55.415C102.372 55.5028 102.504 55.6785 102.635 55.8542C102.679 55.6346 102.811 55.5028 102.987 55.371C103.163 55.2832 103.338 55.2393 103.602 55.2393H104.393C104.568 55.2393 104.656 55.2832 104.788 55.371C104.876 55.4589 104.92 55.5907 104.92 55.8103C104.92 55.8981 104.92 56.0299 104.876 56.1178C104.876 56.2056 104.832 56.2935 104.788 56.3813H103.734C103.514 56.3813 103.382 56.4253 103.25 56.5131C103.163 56.601 103.075 56.7767 103.075 57.0402V63.8048C103.031 63.8487 102.943 63.8487 102.855 63.8926C102.723 63.8926 102.635 63.8926 102.504 63.8926C102.24 63.8926 102.021 63.8487 101.889 63.7609C101.713 63.673 101.669 63.4973 101.669 63.2338V56.8206C101.669 56.5131 101.493 56.3813 101.23 56.3813H100.351Z" fill="#373435"/>
</svg>
