<?xml version="1.0" encoding="UTF-8"?>
<!DOCTYPE svg PUBLIC "-//W3C//DTD SVG 1.1//EN" "http://www.w3.org/Graphics/SVG/1.1/DTD/svg11.dtd">
<!-- Creator: CorelDRAW X7 -->
<svg xmlns="http://www.w3.org/2000/svg" xml:space="preserve" width="484px" height="611px" version="1.1" style="shape-rendering:geometricPrecision; text-rendering:geometricPrecision; image-rendering:optimizeQuality; fill-rule:evenodd; clip-rule:evenodd"
viewBox="0 0 9575 12084"
 xmlns:xlink="http://www.w3.org/1999/xlink">
 <defs>
  <style type="text/css">
   <![CDATA[
    .fil3 {fill:none}
    .fil5 {fill:#70342D}
    .fil23 {fill:#7A1C09}
    .fil14 {fill:#C4491C}
    .fil19 {fill:#FFF5DF}
    .fil22 {fill:white}
    .fil16 {fill:#7A1C09;fill-rule:nonzero}
    .fil20 {fill:#7A1C09;fill-rule:nonzero}
    .fil11 {fill:#F6DFB4;fill-rule:nonzero}
    .fil6 {fill:#FFEBBF;fill-rule:nonzero}
    .fil7 {fill:#FFF7EB;fill-rule:nonzero}
    .fil18 {fill:white;fill-rule:nonzero}
    .fil1 {fill:#FFF0D4;fill-rule:nonzero;fill-opacity:0.501961}
    .fil13 {fill:url(#id0)}
    .fil10 {fill:url(#id1)}
    .fil4 {fill:url(#id2)}
    .fil12 {fill:url(#id3)}
    .fil9 {fill:url(#id4)}
    .fil8 {fill:url(#id5)}
    .fil0 {fill:url(#id6)}
    .fil2 {fill:url(#id7)}
    .fil24 {fill:url(#id8)}
    .fil15 {fill:url(#id9)}
    .fil21 {fill:url(#id10)}
    .fil17 {fill:url(#id11);fill-rule:nonzero}
   ]]>
  </style>
  <linearGradient id="id0" gradientUnits="userSpaceOnUse" x1="4787.75" y1="2098.23" x2="4787.75" y2="7751.59">
   <stop offset="0" style="stop-opacity:1; stop-color:#F4D8BA"/>
   <stop offset="0.278431" style="stop-opacity:1; stop-color:#F28F1D"/>
   <stop offset="0.541176" style="stop-opacity:1; stop-color:#BF391B"/>
   <stop offset="1" style="stop-opacity:1; stop-color:#D9601F"/>
  </linearGradient>
  <linearGradient id="id1" gradientUnits="userSpaceOnUse" x1="4787.66" y1="2119.2" x2="4787.75" y2="8000.71">
   <stop offset="0" style="stop-opacity:1; stop-color:#F08B18"/>
   <stop offset="0.470588" style="stop-opacity:1; stop-color:#AB1916"/>
   <stop offset="1" style="stop-opacity:1; stop-color:#D95E1C"/>
  </linearGradient>
  <linearGradient id="id2" gradientUnits="userSpaceOnUse" x1="4805.57" y1="424.21" x2="4805.57" y2="9554.04">
   <stop offset="0" style="stop-opacity:1; stop-color:#FFD991"/>
   <stop offset="0.258824" style="stop-opacity:1; stop-color:#EC9A3E"/>
   <stop offset="0.611765" style="stop-opacity:1; stop-color:#A12224"/>
   <stop offset="1" style="stop-opacity:1; stop-color:#CF5A1B"/>
  </linearGradient>
  <linearGradient id="id3" gradientUnits="userSpaceOnUse" x1="4786.47" y1="8304.46" x2="4786.56" y2="4787.66">
   <stop offset="0" style="stop-opacity:1; stop-color:#F6DFB4"/>
   <stop offset="1" style="stop-opacity:1; stop-color:#BC3416"/>
  </linearGradient>
  <linearGradient id="id4" gradientUnits="userSpaceOnUse" x1="8924.1" y1="4009.32" x2="8928.82" y2="5373.27">
   <stop offset="0" style="stop-opacity:1; stop-color:#FCE0AB"/>
   <stop offset="1" style="stop-opacity:1; stop-color:#D15C1E"/>
  </linearGradient>
  <linearGradient id="id5" gradientUnits="userSpaceOnUse" xlink:href="#id4" x1="797.671" y1="4009.32" x2="802.388" y2="5373.27">
  </linearGradient>
  <linearGradient id="id6" gradientUnits="userSpaceOnUse" x1="7235.93" y1="8774.07" x2="4822.83" y2="9123.48">
   <stop offset="0" style="stop-opacity:1; stop-color:red"/>
   <stop offset="1" style="stop-opacity:1; stop-color:#B00205"/>
  </linearGradient>
  <linearGradient id="id7" gradientUnits="userSpaceOnUse" x1="2405.76" y1="9569.62" x2="4350.28" y2="8330.36">
   <stop offset="0" style="stop-opacity:1; stop-color:#B00205"/>
   <stop offset="1" style="stop-opacity:1; stop-color:red"/>
  </linearGradient>
  <linearGradient id="id8" gradientUnits="userSpaceOnUse" x1="3583.53" y1="5756.68" x2="3583.76" y2="2908.3">
   <stop offset="0" style="stop-opacity:1; stop-color:#E3A96A"/>
   <stop offset="1" style="stop-opacity:1; stop-color:#FCE0AB"/>
  </linearGradient>
  <linearGradient id="id9" gradientUnits="userSpaceOnUse" x1="5069.59" y1="2119.09" x2="5069.69" y2="7519.71">
   <stop offset="0" style="stop-opacity:1; stop-color:#FFF4DF"/>
   <stop offset="1" style="stop-opacity:1; stop-color:#D65B1E"/>
  </linearGradient>
  <radialGradient id="id10" gradientUnits="userSpaceOnUse" gradientTransform="matrix(3.4938E-005 0.66846 -0.997371 0.00538916 12257 4454)" cx="4664.16" cy="7613.05" r="2673.83" fx="4664.16" fy="7613.05">
   <stop offset="0" style="stop-opacity:1; stop-color:#FEFEFE"/>
   <stop offset="0.878431" style="stop-opacity:1; stop-color:#F2D5B8"/>
   <stop offset="1" style="stop-opacity:1; stop-color:#E6AC73"/>
  </radialGradient>
  <linearGradient id="id11" gradientUnits="userSpaceOnUse" x1="4517.59" y1="1012.81" x2="4517.59" y2="425.237">
   <stop offset="0" style="stop-opacity:1; stop-color:#F4D8BA"/>
   <stop offset="0.560784" style="stop-opacity:1; stop-color:#F9EBDC"/>
   <stop offset="1" style="stop-opacity:1; stop-color:white"/>
  </linearGradient>
 </defs>
 <g id="Layer_x0020_1">
  <metadata id="CorelCorpID_0Corel-Layer"/>
  <g id="_1217157856">
   <g>
    <g>
     <path class="fil0" d="M4728 9283l-456 94 -126 25 -85 18 -76 15 -37 8 -10 2 36 63 757 1315 694 1205c39,60 84,75 139,25l937 -1143c25,-47 62,-81 128,-87l1453 -242c95,-6 117,-54 67,-144l-880 -1552 -30 -52 -4 -8 -16 -28 -12 -21 -16 3 -125 25 -67 14 -43 9 -2228 456z"/>
     <path class="fil1" d="M6993 8891l36 -21 -41 -71 -36 21 41 71zm-2853 520l-36 21 41 71 36 -20 -41 -72zm82 143l-36 21 41 71 36 -20 -41 -72zm82 143l-36 21 41 71 36 -20 -41 -72zm82 143l-35 21 41 71 35 -20 -41 -72zm82 143l-35 20 41 72 35 -21 -41 -71zm83 143l-36 20 41 72 36 -21 -41 -71zm82 143l-36 20 41 72 36 -21 -41 -71zm82 143l-36 20 41 72 36 -21 -41 -71zm82 142l-36 21 41 71 36 -20 -41 -72zm82 143l-36 21 41 71 36 -20 -41 -72zm82 143l-36 21 41 71 36 -20 -41 -72zm82 143l-36 21 42 71 35 -20 -41 -72zm82 143l-35 21 41 71 35 -21 -41 -71zm82 143l-35 20 41 72 35 -21 -41 -71zm83 143l-36 20 41 72 36 -21 -41 -71zm82 143l-36 20 41 72 36 -21 -41 -71zm82 142l-36 21 41 71 36 -20 -41 -72zm50 120l32 26 52 -63 -31 -26 -53 63zm106 -126l31 26 53 -63 -32 -27 -52 64zm105 -127l32 26 53 -63 -32 -26 -53 63zm106 -126l31 26 53 -63 -31 -27 -53 64zm105 -127l32 26 53 -63 -32 -26 -53 63zm106 -126l32 26 52 -63 -31 -27 -53 64zm106 -127l31 26 53 -63 -32 -26 -52 63zm105 -126l32 26 53 -63 -32 -27 -53 64zm106 -127l31 26 53 -63 -31 -26 -53 63zm105 -126l6 5 15 26 79 -13 -7 -40 -86 13 -7 9zm175 -35l6 40 82 -13 -7 -40 -81 13zm162 -27l7 41 81 -13 -6 -41 -82 13zm163 -26l7 41 81 -13 -7 -41 -81 13zm163 -26l6 41 82 -13 -7 -41 -81 13zm163 -26l6 41 81 -13 -6 -41 -81 13zm162 -26l7 41 81 -13 -6 -41 -82 13zm163 -26l6 41 82 -13 -7 -41 -81 13zm163 -26l6 41 81 -13 -6 -41 -81 13zm134 -2l36 -20 -41 -72 -36 21 41 71zm-82 -142l35 -21 -41 -71 -36 20 42 72zm-83 -143l36 -20 -42 -72 -35 21 41 71zm-83 -142l36 -21 -41 -71 -36 20 41 72zm-82 -143l35 -21 -41 -71 -36 21 42 71zm-83 -143l36 -20 -42 -72 -35 21 41 71zm-83 -142l36 -21 -41 -71 -36 21 41 71zm-82 -143l35 -20 -41 -72 -36 21 42 71zm-83 -142l36 -21 -42 -71 -35 20 41 72zm-82 -143l35 -20 -41 -72 -36 21 42 71zm-83 -142l36 -21 -42 -71 -35 20 41 72z"/>
     <path class="fil2" d="M2254 8777c-314,553 -627,1107 -941,1661 -51,90 -29,138 67,144 484,81 968,161 1452,242 66,6 104,40 128,88 313,381 625,762 938,1143 54,49 100,35 139,-26 495,-861 991,-1722 1487,-2583 -1090,-223 -2180,-446 -3270,-669z"/>
     <path class="fil1" d="M2457 8870l-36 -21 41 -71 36 21 -41 71zm2853 520l36 21 -41 71 -36 -20 41 -72zm-82 143l36 21 -41 71 -36 -20 41 -72zm-82 143l36 21 -41 71 -36 -21 41 -71zm-82 143l35 20 -41 72 -35 -21 41 -71zm-82 143l35 20 -41 72 -35 -21 41 -71zm-82 143l35 20 -41 72 -36 -21 42 -71zm-83 143l36 20 -41 72 -36 -21 41 -71zm-82 142l36 21 -41 71 -36 -20 41 -72zm-82 143l36 21 -41 71 -36 -20 41 -72zm-82 143l36 21 -41 71 -36 -20 41 -72zm-82 143l36 21 -41 71 -36 -20 41 -72zm-82 143l36 20 -41 72 -36 -21 41 -71zm-82 143l35 20 -41 72 -35 -21 41 -71zm-82 143l35 20 -41 72 -35 -21 41 -71zm-83 143l36 20 -41 72 -36 -21 41 -71zm-82 142l36 21 -41 71 -36 -20 41 -72zm-82 143l36 21 -41 71 -36 -20 41 -72zm-50 120l-31 26 -53 -63 31 -26 53 63zm-105 -127l-32 27 -53 -63 32 -27 53 63zm-106 -126l-32 26 -52 -63 31 -26 53 63zm-106 -127l-31 27 -53 -63 32 -27 52 63zm-105 -126l-32 26 -53 -63 32 -26 53 63zm-106 -127l-32 27 -52 -63 31 -27 53 63zm-106 -126l-31 26 -53 -63 32 -26 52 63zm-105 -127l-32 27 -53 -63 32 -27 53 63zm-106 -126l-31 26 -53 -63 31 -26 53 63zm-105 -127l-6 6 -15 26 -79 -13 7 -41 86 14 7 8zm-175 -35l-6 41 -81 -13 6 -41 81 13zm-162 -26l-7 41 -81 -13 6 -41 82 13zm-163 -26l-7 41 -81 -13 7 -41 81 13zm-163 -26l-6 41 -82 -13 7 -41 81 13zm-163 -26l-6 41 -81 -13 6 -41 81 13zm-162 -26l-7 41 -81 -13 6 -41 82 13zm-163 -26l-6 41 -82 -13 7 -41 81 13zm-163 -26l-6 41 -81 -13 6 -41 81 13zm-134 -2l-36 -20 42 -72 35 21 -41 71zm83 -142l-36 -21 41 -71 36 20 -41 72zm82 -143l-35 -21 41 -71 35 21 -41 71zm83 -143l-36 -20 41 -72 36 21 -41 71zm82 -142l-35 -21 41 -71 36 21 -42 71zm83 -143l-36 -20 42 -72 35 21 -41 71zm83 -142l-36 -21 41 -71 36 20 -41 72zm82 -143l-35 -21 41 -71 36 21 -42 71zm83 -142l-36 -21 42 -71 35 20 -41 72zm83 -143l-36 -21 41 -71 36 21 -41 71zm82 -143l-35 -20 41 -71 35 20 -41 71z"/>
    </g>
    <g>
     <circle class="fil3" cx="4788" cy="4751" r="4751"/>
     <path class="fil4" d="M4788 0c2644,0 4787,2143 4787,4788 0,2644 -2143,4787 -4787,4787 -2645,0 -4788,-2143 -4788,-4787 0,-2645 2143,-4788 4788,-4788zm0 1306c1923,0 3482,1559 3482,3482 0,1923 -1559,3482 -3482,3482 -1923,0 -3482,-1559 -3482,-3482 0,-1923 1559,-3482 3482,-3482z"/>
     <path class="fil5" d="M828 5588c-26,-131 -46,-264 -59,-397 -13,-133 -19,-267 -19,-401 0,-134 6,-268 19,-401 13,-133 33,-266 59,-397 5,-21 -9,-42 -31,-46 -21,-5 -42,9 -46,31 -27,133 -47,268 -60,404 -14,136 -20,273 -20,409 0,137 6,273 20,409 13,136 33,271 60,404 4,22 25,36 46,32 22,-5 36,-26 31,-47z"/>
     <path class="fil6" d="M4788 60c1305,0 2487,529 3343,1385 855,855 1385,2037 1385,3343 0,1305 -530,2487 -1385,3343 -856,855 -2038,1385 -3343,1385 -1306,0 -2488,-530 -3343,-1385 -856,-856 -1385,-2038 -1385,-3343 0,-1306 529,-2488 1385,-3343 855,-856 2037,-1385 3343,-1385zm3314 1414c-848,-848 -2020,-1373 -3314,-1373 -1295,0 -2466,525 -3314,1373 -848,848 -1373,2019 -1373,3314 0,1294 525,2465 1373,3314 848,848 2019,1372 3314,1372 1294,0 2466,-524 3314,-1372 848,-849 1372,-2020 1372,-3314 0,-1295 -524,-2466 -1372,-3314z"/>
     <path class="fil7" d="M4788 131c1286,0 2450,521 3293,1364 842,842 1364,2007 1364,3293 0,1286 -522,2450 -1364,3293 -843,842 -2007,1364 -3293,1364 -1286,0 -2451,-522 -3293,-1364 -843,-843 -1364,-2007 -1364,-3293 0,-1286 521,-2451 1364,-3293 842,-843 2007,-1364 3293,-1364zm3264 1393c-836,-836 -1990,-1352 -3264,-1352 -1275,0 -2429,516 -3264,1352 -836,835 -1352,1989 -1352,3264 0,1274 516,2428 1352,3264 835,835 1989,1352 3264,1352 1274,0 2428,-517 3264,-1352 835,-836 1352,-1990 1352,-3264 0,-1275 -517,-2429 -1352,-3264z"/>
     <path class="fil5" d="M8803 3992c26,131 46,264 59,397 13,133 19,267 19,401 0,134 -6,268 -19,401 -13,134 -33,266 -59,397 -4,21 10,42 31,47 22,4 42,-10 47,-31 26,-134 46,-269 60,-405 13,-136 20,-272 20,-409 0,-136 -7,-273 -20,-409 -14,-136 -34,-271 -60,-404 -5,-22 -25,-36 -47,-31 -21,4 -35,25 -31,46z"/>
     <path class="fil8" d="M803 5586c-26,-132 -46,-264 -59,-397 -13,-133 -20,-267 -20,-401 0,-134 7,-268 20,-402 13,-133 33,-265 59,-396 4,-22 -10,-43 -31,-47 -22,-4 -42,10 -47,31 -26,134 -46,269 -60,405 -13,136 -20,272 -20,409 0,136 7,273 20,409 14,135 34,270 60,404 5,21 25,35 47,31 21,-4 35,-25 31,-46z"/>
     <path class="fil9" d="M8772 3990c27,131 46,263 59,396 14,134 20,268 20,402 0,134 -6,268 -20,401 -13,133 -32,265 -59,397 -4,21 10,42 31,46 22,4 43,-10 47,-31 27,-134 47,-269 60,-404 13,-136 20,-273 20,-409 0,-137 -7,-273 -20,-409 -13,-136 -33,-271 -60,-405 -4,-21 -25,-35 -47,-31 -21,4 -35,25 -31,47z"/>
     <circle class="fil10" cx="4788" cy="4788" r="3485"/>
     <path class="fil11" d="M7664 3663c-15,-38 -74,-29 -74,14 0,5 1,9 3,14 9,23 18,47 26,70 17,45 84,25 73,-22l-1 -4c-9,-24 -18,-48 -27,-72zm-5672 4c6,-17 1,-34 -14,-45 -21,-14 -47,-6 -57,17 -10,24 -19,48 -28,72 -15,39 37,72 66,36 2,-3 4,-6 6,-10 8,-23 17,-46 27,-70zm-119 357c12,-40 -45,-68 -69,-29 -2,4 -3,6 -4,10 -7,25 -13,50 -19,75 -10,46 58,67 74,19 6,-25 12,-50 18,-75zm-72 369c6,-46 -62,-62 -75,-14l-1 4c-3,26 -6,51 -9,77 -1,14 5,27 16,35 23,17 57,1 60,-27 3,-25 6,-50 9,-75zm-26 375c0,-40 -55,-54 -73,-16 -2,6 -3,10 -3,15 0,26 0,52 0,78 2,48 72,50 76,1 1,-26 0,-52 0,-78zm21 375c-6,-47 -76,-44 -76,6 2,26 7,54 11,80 1,8 5,17 12,22 27,24 68,2 63,-33 -4,-25 -7,-50 -10,-75zm68 370c-13,-48 -83,-32 -74,17 6,25 13,51 20,76 11,43 77,34 74,-13 0,-3 0,-5 -1,-8 -7,-24 -13,-48 -19,-72zm113 358c-14,-37 -71,-29 -73,13 0,5 0,10 2,15 10,24 19,48 29,71 8,18 27,28 45,22 22,-6 34,-30 25,-51 -9,-23 -19,-47 -28,-70zm157 342c-22,-41 -84,-14 -70,30 1,2 2,4 3,6 12,23 25,45 37,68 20,35 77,18 71,-26 -1,-5 -2,-8 -5,-12 -12,-19 -25,-46 -36,-66zm198 319c-23,-33 -78,-10 -68,32 1,5 3,8 6,13 15,21 30,41 45,62 28,36 84,2 65,-39 -1,-2 -2,-5 -4,-7 -15,-20 -30,-40 -44,-61zm236 293c-30,-32 -82,3 -62,44 2,3 4,5 6,8 17,18 35,37 53,56 32,32 84,-8 58,-49 -1,-1 -2,-3 -4,-4 -17,-18 -34,-37 -51,-55zm271 260c-25,-22 -66,-1 -63,32 1,11 6,20 14,27 19,16 39,33 59,49 18,14 44,10 56,-10 11,-16 7,-38 -8,-50 -20,-16 -39,-31 -58,-48zm301 225c-16,-11 -37,-8 -49,7 -15,17 -11,45 8,57 21,14 43,27 65,41 35,22 77,-22 49,-58 -3,-3 -6,-5 -9,-7 -22,-13 -43,-26 -64,-40zm327 185c-40,-19 -75,35 -40,64 2,2 5,3 7,5 23,11 47,22 70,32 43,19 75,-39 37,-66 -1,-1 -3,-2 -6,-3 -22,-10 -45,-21 -68,-32zm348 144c-44,-15 -71,46 -31,69 2,1 4,2 6,3 25,8 49,16 74,24 42,13 70,-47 29,-70 -2,-1 -4,-2 -7,-3 -24,-8 -47,-15 -71,-23zm362 99c-39,-9 -65,45 -27,70 4,2 7,3 12,5 25,5 50,10 76,14 44,8 64,-55 20,-73 -2,-1 -5,-1 -7,-2 -24,-4 -49,-9 -74,-14zm372 53c-43,-4 -58,60 -14,75 3,0 6,1 8,1 26,2 52,4 78,5 42,2 56,-57 15,-74 -4,-1 -8,-2 -12,-2 -25,-1 -50,-3 -75,-5zm376 6c-42,2 -50,63 -8,75 4,1 7,1 12,1 26,-1 51,-2 77,-4 46,-4 48,-72 -1,-76 -1,0 -3,0 -5,0 -25,2 -50,3 -75,4zm374 -41c-44,8 -41,74 6,76 2,0 5,0 7,-1 25,-4 51,-9 76,-14 48,-11 35,-81 -14,-75 -25,5 -50,10 -75,14zm366 -87c-46,15 -30,83 18,74 26,-6 53,-16 77,-24 39,-13 33,-72 -11,-74 -5,0 -8,0 -13,2 -24,7 -48,15 -71,22zm352 -131c-39,16 -25,77 20,72 4,0 7,-1 11,-3 23,-10 47,-21 70,-32 8,-4 15,-11 19,-20 13,-33 -21,-64 -52,-49 -23,11 -45,21 -68,32zm333 -175c-39,25 -11,83 32,69 3,-1 5,-2 7,-4 22,-13 44,-26 66,-40 34,-22 15,-76 -27,-70 -5,1 -10,3 -15,6 -21,13 -42,26 -63,39zm308 -214c-32,26 -5,80 38,66 4,-2 6,-4 10,-6 20,-16 40,-32 60,-49 11,-10 16,-25 12,-39 -8,-27 -40,-37 -61,-19 -20,16 -39,32 -59,47zm280 -251c-30,30 7,82 47,59 3,-2 5,-3 7,-6 18,-18 36,-37 54,-55 31,-35 -14,-84 -51,-57 -2,2 -3,3 -5,5 -17,18 -34,36 -52,54zm246 -284c-25,32 13,78 51,55 4,-3 7,-6 10,-9 15,-21 31,-41 46,-62 26,-39 -24,-81 -58,-50 -2,2 -3,4 -4,5 -15,21 -30,41 -45,61zm208 -313c-23,42 36,80 65,41 13,-22 26,-47 39,-70 21,-39 -32,-78 -63,-43 -1,2 -3,4 -4,6 -12,22 -24,44 -37,66zm168 -336c-17,39 36,73 65,38 2,-3 4,-5 5,-9 10,-23 20,-47 30,-71 16,-42 -41,-72 -67,-36 -2,3 -3,5 -4,8 -10,22 -19,47 -29,70zm125 -355c-4,17 2,34 17,43 21,13 50,2 57,-22 7,-25 13,-50 20,-75 10,-37 -39,-65 -67,-33 -3,5 -5,9 -7,15 -6,24 -13,48 -20,72zm80 -367c-5,41 47,60 70,26 3,-4 5,-9 5,-15 4,-25 8,-51 11,-76 6,-43 -54,-61 -73,-20 -1,4 -2,7 -2,10 -4,25 -7,50 -11,75zm34 -374c-2,40 54,54 72,17 3,-6 4,-10 4,-16 0,-25 1,-51 1,-77 0,-39 -53,-53 -72,-16 -3,5 -4,10 -4,16 0,25 -1,50 -1,76zm-14 -376c4,42 68,47 76,2 0,-3 0,-6 0,-10 -2,-25 -5,-51 -8,-76 -6,-46 -74,-44 -76,4 0,2 0,3 0,5 3,25 6,50 8,75zm-60 -371c10,45 79,36 75,-13l-1 -4c-5,-25 -11,-50 -18,-75 -12,-47 -83,-32 -74,17 6,25 13,50 18,75z"/>
     <path class="fil12" d="M4788 1291c965,0 1839,392 2472,1024 633,633 1024,1507 1024,2473 0,965 -391,1839 -1024,2472 -633,633 -1507,1024 -2472,1024 -966,0 -1840,-391 -2473,-1024 -632,-633 -1024,-1507 -1024,-2472 0,-966 392,-1840 1024,-2473 633,-632 1507,-1024 2473,-1024zm0 42c1908,0 3455,1546 3455,3455 0,1908 -1547,3455 -3455,3455 -1908,0 -3455,-1547 -3455,-3455 0,-1909 1547,-3455 3455,-3455z"/>
     <circle class="fil13" cx="4788" cy="4788" r="2689"/>
     <path class="fil14" d="M4788 1291c1929,0 3494,1561 3494,3486 0,14 -1,29 -1,43 -23,-1905 -1578,-3442 -3493,-3442 -1916,0 -3471,1537 -3494,3442 0,-14 0,-29 0,-43 0,-1925 1564,-3486 3494,-3486z"/>
    </g>
   </g>
   <path class="fil15" d="M4788 2101c741,0 1413,301 1899,787 486,486 787,1158 787,1900 0,741 -301,1413 -787,1899 -486,486 -1158,787 -1899,787 -742,0 -1414,-301 -1900,-787 -486,-486 -787,-1158 -787,-1899 0,-742 301,-1414 787,-1900 486,-486 1158,-787 1900,-787zm0 41c1461,0 2645,1185 2645,2646 0,1461 -1184,2645 -2645,2645 -1461,0 -2646,-1184 -2646,-2645 0,-1461 1185,-2646 2646,-2646z"/>
  </g>
  <path class="fil16" d="M7115 1377l-29 45c29,21 55,43 76,68 22,24 37,49 48,75 11,26 16,52 14,79 -1,26 -9,51 -25,76 -13,21 -28,37 -45,48 -16,12 -33,19 -50,23 -17,3 -34,3 -50,0 -16,-3 -31,-9 -44,-18 -18,-11 -28,-24 -32,-39 -3,-15 -1,-29 9,-44 7,-11 15,-19 23,-24l13 9c16,10 31,14 47,11 15,-3 28,-12 38,-28 15,-23 16,-48 4,-76 -13,-27 -38,-55 -75,-84l-209 326c-16,4 -36,-2 -60,-17 -2,-1 -5,-3 -6,-5 -2,-1 -4,-3 -6,-5 -12,-37 -25,-72 -37,-104 -13,-33 -27,-65 -41,-96 -14,-30 -29,-61 -45,-91 -16,-30 -33,-61 -52,-94 0,-11 3,-24 8,-38 6,-14 12,-28 21,-41 1,-3 3,-5 5,-8 2,-4 4,-6 7,-9 29,-1 60,-1 92,0 32,2 65,5 98,9 33,4 65,10 97,16 31,7 61,15 89,24l29 -45 -309 -198c-10,-6 -16,-14 -18,-24 -2,-9 1,-21 9,-33 4,-6 9,-12 14,-17 6,-5 11,-9 15,-13l673 431c10,7 16,15 18,24 2,9 0,20 -9,33 -4,6 -8,12 -13,17 -6,5 -11,10 -17,13l-275 -176zm-4369 -184l-1 1 -217 139c12,-3 22,-2 30,2 8,4 14,9 18,15 4,7 7,14 7,20 0,6 0,12 0,17 -5,1 -11,3 -16,5 -5,1 -11,4 -18,9 -10,6 -17,16 -22,28 -6,13 -3,27 6,42 8,13 19,21 33,23 14,3 28,0 43,-9 11,-8 22,-18 32,-32 11,-13 23,-34 37,-61l26 -52c11,0 24,2 39,6 16,3 32,9 49,17 18,8 35,19 52,33 17,14 33,32 47,54 18,27 28,56 31,86 3,30 0,59 -10,87 -10,28 -25,55 -47,80 -21,25 -47,48 -78,68 -36,23 -73,39 -111,48 -39,10 -77,13 -116,9 -38,-4 -76,-15 -114,-32 -37,-18 -73,-42 -107,-73 -11,-9 -20,-19 -29,-30 -9,-10 -17,-21 -24,-33 -12,-18 -16,-35 -12,-51 5,-15 14,-28 29,-38 8,-5 16,-8 23,-10 7,-2 13,-3 19,-3l23 29c31,39 62,70 95,92 32,22 64,36 96,44 32,7 63,8 93,2 31,-6 59,-17 85,-34 16,-10 30,-22 42,-36 12,-14 22,-29 28,-45 6,-16 8,-33 7,-51 -1,-18 -7,-35 -18,-52 -18,-28 -38,-46 -61,-54 -12,24 -25,46 -38,65 -13,19 -33,37 -58,53 -16,11 -34,18 -52,22 -18,5 -36,5 -53,3 -18,-3 -34,-9 -50,-19 -16,-11 -30,-25 -42,-43 -16,-26 -23,-52 -21,-78 2,-27 10,-51 26,-71l-271 174c-10,6 -19,8 -29,6 -10,-2 -18,-9 -27,-22 -4,-6 -7,-13 -9,-20 -3,-7 -4,-13 -5,-19l626 -401 36 -24c18,-11 35,-17 52,-19 18,-1 33,2 48,11 -5,-17 -4,-32 3,-45 7,-13 18,-24 31,-33l50 -32c10,-6 20,-8 29,-6 10,1 19,9 27,21 4,6 7,13 9,20 3,7 5,14 6,20l-66 42c-12,8 -20,17 -24,28 -3,10 0,23 10,39l270 420c-3,3 -7,8 -13,13 -6,5 -13,11 -22,16 -15,10 -29,15 -42,16 -13,0 -25,-8 -36,-25l-254 -396c-12,-19 -27,-22 -45,-11l-55 35zm953 -384l145 512c-3,6 -9,13 -18,19 -9,6 -20,11 -34,15 -5,1 -10,2 -15,2 -39,-12 -76,-23 -111,-32 -35,-10 -70,-19 -105,-26 -34,-8 -69,-14 -104,-20 -35,-6 -71,-11 -109,-16 -8,-8 -16,-18 -23,-31 -7,-13 -13,-27 -17,-42 -1,-3 -2,-6 -3,-10 -1,-4 -2,-7 -2,-11 8,-8 18,-18 31,-30 13,-12 26,-24 40,-36 13,-12 27,-24 40,-35 13,-11 24,-21 32,-29l-190 -26c-11,-2 -20,-4 -26,-8 -6,-3 -10,-9 -13,-19 -2,-7 -3,-14 -2,-21 1,-7 2,-14 4,-20l-36 11c-25,7 -41,-4 -49,-32 -2,-7 -3,-14 -4,-21 0,-8 0,-14 1,-20l581 -165 0 0 106 -30c19,-6 38,-7 55,-3 17,3 31,11 42,24 1,-18 6,-32 17,-42 10,-11 23,-18 39,-23l57 -16c11,-3 21,-2 30,2 8,5 15,14 19,29 2,7 3,14 3,21 1,8 0,15 0,21l-76 21c-14,4 -24,11 -30,20 -6,9 -7,22 -2,40l136 480c-3,3 -8,5 -16,9 -7,3 -15,6 -25,9 -18,5 -33,6 -45,3 -13,-4 -22,-15 -28,-35l-128 -451c-6,-22 -19,-30 -39,-24l-7 2 -121 34zm21 437c-3,-9 -7,-20 -11,-32 -5,-12 -9,-25 -13,-37 -5,-13 -9,-25 -12,-37 -4,-12 -7,-22 -9,-30l-11 -37 -111 -20c-10,9 -20,19 -31,30 -12,12 -24,23 -35,35 -12,11 -24,22 -35,32 -11,11 -20,20 -26,28 43,7 91,16 144,28 53,11 103,25 150,40zm-428 -321c13,1 34,5 62,9 28,5 60,10 94,16 34,6 68,12 103,18 34,6 63,11 88,15l-42 -145 -305 87zm1676 -266l13 537c-4,1 -9,3 -17,4 -8,1 -17,2 -26,2 -19,0 -34,-3 -46,-9 -11,-6 -17,-19 -18,-39l-5 -234c-11,-6 -25,-9 -45,-8 -28,1 -62,19 -103,55 -34,30 -64,52 -90,65 -27,14 -53,21 -81,21l-3 0c-20,1 -36,-3 -47,-12 -12,-9 -18,-22 -18,-39 0,-15 2,-29 9,-42l35 -1c32,-1 58,-10 79,-27 20,-17 30,-40 30,-70 -1,-24 -8,-45 -22,-63 -13,-18 -35,-34 -65,-48l-37 -17c-9,-4 -15,-9 -20,-14 -4,-5 -7,-12 -7,-22 0,-9 2,-18 7,-27l-51 1c-26,1 -39,-13 -40,-42 0,-7 1,-15 2,-22 2,-7 4,-13 6,-19l653 -16c26,-1 39,13 40,41 0,7 0,15 -2,22 -1,7 -3,14 -6,20l-125 3zm-147 157c10,0 19,0 26,1 7,2 14,3 19,5l-4 -160 -257 6c14,7 28,15 43,25 14,11 27,24 39,38 12,15 22,32 30,51 8,18 13,39 13,61l0 7c13,-9 27,-17 43,-24 15,-6 31,-9 48,-10zm913 -48l-94 528c-4,1 -10,1 -18,1 -8,-1 -17,-2 -26,-4 -19,-3 -33,-9 -43,-17 -10,-9 -13,-23 -9,-42l22 -126c-8,-17 -17,-34 -28,-50 -11,-16 -23,-30 -36,-43 -14,-12 -28,-23 -44,-31 -15,-9 -31,-15 -48,-18 -28,-5 -50,-2 -66,8 -15,10 -24,24 -28,42 -3,17 1,32 12,45 11,12 27,21 47,24 13,3 25,3 34,2 10,-1 19,-2 27,-5 10,15 14,31 10,50 -3,16 -12,27 -30,35 -17,8 -41,10 -73,4 -23,-4 -43,-11 -62,-21 -18,-10 -33,-23 -45,-37 -12,-15 -21,-32 -26,-52 -5,-19 -6,-40 -2,-63 5,-27 15,-49 29,-66 15,-18 31,-31 50,-40 -7,-13 -13,-29 -18,-49 -4,-19 -5,-42 0,-67 3,-17 8,-34 14,-48 7,-15 15,-27 24,-37l-97 -17c-26,-4 -36,-21 -31,-50 2,-7 4,-14 7,-20 3,-7 6,-13 9,-18l648 116c26,4 36,21 31,49 -1,7 -3,14 -6,20 -3,7 -6,13 -10,19l-124 -22zm-308 106c36,7 69,21 97,42 28,22 50,44 65,67l42 -234 -213 -38c-9,9 -17,20 -23,34 -7,14 -11,29 -14,46 -6,30 -4,56 4,80 12,-1 26,0 42,3zm1195 111c23,10 29,27 19,54 -3,6 -6,13 -10,19 -4,6 -9,11 -14,16l-115 -46 -196 495c-15,7 -35,5 -61,-5 -5,-2 -10,-5 -14,-8 -25,-37 -50,-72 -74,-104 -24,-32 -49,-62 -74,-92 -25,-30 -51,-59 -79,-87 -27,-28 -57,-57 -89,-87 -1,-8 0,-18 2,-30 2,-13 6,-26 11,-39 3,-7 6,-13 9,-19 4,-6 7,-11 10,-15l62 16c57,15 101,16 133,4 32,-12 54,-33 67,-65 10,-25 10,-47 1,-64 -8,-17 -22,-29 -40,-36 -18,-7 -36,-7 -52,0 -17,7 -30,20 -38,40 -4,11 -6,20 -6,28 -1,8 0,16 0,23 -16,12 -35,14 -58,5 -16,-7 -28,-19 -37,-37 -8,-18 -7,-41 4,-68 8,-20 19,-37 33,-51 15,-15 32,-25 51,-32 20,-7 40,-10 63,-9 22,1 45,6 69,16 24,10 46,22 64,38 18,15 31,33 40,53 9,20 14,41 15,65 0,23 -5,47 -14,71 -18,46 -50,78 -94,97 -44,18 -96,22 -156,12 18,18 37,37 55,58 19,21 37,42 55,63 18,22 34,43 50,64 15,20 29,39 41,57 2,-9 5,-20 9,-32 4,-12 8,-25 13,-38 4,-12 8,-25 13,-36 4,-12 7,-21 11,-29l104 -266c8,-20 21,-34 38,-44 17,-10 38,-10 63,0l116 45zm103 -266c12,5 21,13 27,24 6,11 6,23 1,35 -4,12 -18,22 -40,31 -10,3 -23,8 -42,16 -18,7 -38,14 -60,22 -21,8 -42,15 -62,22 -20,7 -36,12 -48,16 -17,-7 -28,-18 -35,-33 -7,-15 -7,-30 -2,-45 3,-6 5,-10 7,-13 14,-5 33,-11 56,-18 22,-7 46,-14 70,-21 25,-7 48,-14 71,-20 23,-7 42,-12 57,-16zm220 729c-40,-13 -82,-22 -127,-27 -44,-6 -85,-9 -123,-8 25,47 47,95 67,141 20,47 36,87 47,119 4,-8 9,-18 15,-29 6,-11 12,-22 19,-33 6,-12 12,-22 19,-33 6,-10 11,-19 16,-26l67 -104z"/>
  <path class="fil17" d="M7115 1349l-29 45c29,21 55,43 76,68 22,24 37,49 48,75 11,26 16,52 14,79 -1,26 -9,51 -25,76 -13,21 -28,37 -45,48 -16,12 -33,19 -50,23 -17,3 -34,3 -50,0 -16,-3 -31,-9 -44,-18 -18,-11 -28,-24 -32,-39 -3,-15 -1,-29 9,-44 7,-12 15,-19 23,-24l13 9c16,10 31,14 47,11 15,-3 28,-12 38,-28 15,-23 16,-48 4,-76 -13,-27 -38,-55 -75,-84l-209 326c-16,4 -36,-2 -60,-17 -2,-1 -5,-3 -6,-5 -2,-1 -4,-3 -6,-5 -12,-37 -25,-72 -37,-104 -13,-33 -27,-65 -41,-96 -14,-30 -29,-61 -45,-91 -16,-30 -33,-61 -52,-94 0,-11 3,-24 8,-38 6,-14 12,-28 21,-41 1,-3 3,-5 5,-9 2,-3 4,-5 7,-8 29,-1 60,-1 92,0 32,2 65,5 98,9 33,4 65,10 97,16 31,7 61,15 89,24l29 -45 -309 -198c-10,-6 -16,-14 -18,-24 -2,-9 1,-21 9,-33 4,-6 9,-12 14,-17 6,-5 11,-9 15,-13l673 431c10,7 16,15 18,24 2,9 0,20 -9,33 -4,6 -8,12 -13,17 -6,5 -11,10 -17,13l-275 -176zm-4369 -184l-1 1 -217 139c12,-3 22,-2 30,2 8,4 14,9 18,15 4,7 7,14 7,20 0,6 0,12 0,17 -5,1 -11,3 -16,5 -5,1 -11,4 -18,9 -10,6 -17,16 -22,28 -6,13 -3,27 6,42 8,13 19,20 33,23 14,3 28,0 43,-9 11,-8 22,-18 32,-32 11,-13 23,-34 37,-61l26 -52c11,0 24,2 39,6 16,3 32,9 49,17 18,8 35,19 52,33 17,14 33,32 47,54 18,27 28,56 31,86 3,30 0,59 -10,87 -10,28 -25,55 -47,80 -21,25 -47,48 -78,68 -36,23 -73,39 -111,48 -39,10 -77,13 -116,9 -38,-4 -76,-15 -114,-32 -37,-18 -73,-42 -107,-73 -11,-9 -20,-19 -29,-30 -9,-10 -17,-21 -24,-33 -12,-18 -16,-35 -12,-51 5,-15 14,-28 29,-38 8,-5 16,-8 23,-10 7,-2 13,-3 19,-3l23 29c31,39 62,70 95,92 32,22 64,36 96,44 32,7 63,8 93,2 31,-6 59,-17 85,-34 16,-10 30,-22 42,-36 12,-14 22,-29 28,-45 6,-16 8,-33 7,-51 -1,-18 -7,-35 -18,-52 -18,-28 -38,-46 -61,-54 -12,24 -25,46 -38,65 -13,19 -33,37 -58,53 -16,10 -34,18 -52,22 -18,4 -36,5 -53,3 -18,-3 -34,-9 -50,-19 -16,-11 -30,-25 -42,-43 -16,-26 -23,-52 -21,-78 2,-27 10,-51 26,-71l-271 174c-10,6 -19,8 -29,6 -10,-2 -18,-9 -27,-22 -4,-6 -7,-13 -9,-20 -3,-7 -4,-13 -5,-19l626 -401 36 -24c18,-11 35,-17 52,-19 18,-1 33,2 48,11 -5,-17 -4,-32 3,-45 7,-13 18,-24 31,-33l50 -32c10,-6 20,-8 29,-7 10,2 19,10 27,22 4,6 7,13 9,20 3,7 5,14 6,20l-66 42c-12,8 -20,17 -24,28 -3,10 0,23 10,39l270 420c-3,3 -7,8 -13,13 -6,5 -13,11 -22,16 -15,10 -29,15 -42,16 -13,0 -25,-8 -36,-25l-254 -396c-12,-19 -27,-22 -45,-11l-55 35zm953 -384l145 512c-3,6 -9,13 -18,19 -9,6 -20,11 -34,15 -5,1 -10,2 -15,2 -39,-12 -76,-23 -111,-32 -35,-10 -70,-19 -105,-26 -34,-8 -69,-15 -104,-20 -35,-6 -71,-11 -109,-16 -8,-8 -16,-18 -23,-31 -7,-13 -13,-27 -17,-42 -1,-3 -2,-6 -3,-10 -1,-4 -2,-7 -2,-11 8,-8 18,-18 31,-30 13,-12 26,-24 40,-36 13,-12 27,-24 40,-35 13,-11 24,-21 32,-29l-190 -26c-11,-2 -20,-4 -26,-8 -6,-3 -10,-9 -13,-19 -2,-7 -3,-14 -2,-21 1,-7 2,-14 4,-20l-36 11c-25,7 -41,-4 -49,-32 -2,-7 -3,-14 -4,-21 0,-8 0,-14 1,-20l581 -165 0 0 106 -30c19,-6 38,-7 55,-3 17,3 31,11 42,24 1,-18 6,-32 17,-42 10,-11 23,-18 39,-23l57 -16c11,-3 21,-2 30,2 8,4 15,14 19,29 2,7 3,14 3,21 1,8 0,15 0,21l-76 21c-14,4 -24,11 -30,20 -6,9 -7,22 -2,40l136 480c-3,3 -8,5 -16,9 -7,3 -15,6 -25,9 -18,5 -33,6 -45,3 -13,-4 -22,-15 -28,-35l-128 -451c-6,-22 -19,-30 -39,-24l-7 2 -121 34zm21 437c-3,-9 -7,-20 -11,-32 -5,-12 -9,-25 -13,-37 -5,-13 -9,-25 -12,-37 -4,-12 -7,-22 -9,-30l-11 -37 -111 -20c-10,9 -20,19 -31,30 -12,12 -24,23 -35,35 -12,11 -24,22 -35,32 -11,11 -20,20 -26,28 43,7 91,16 144,27 53,12 103,26 150,41zm-428 -321c13,1 34,5 62,9 28,5 60,10 94,16 34,6 68,12 103,18 34,6 63,11 88,15l-42 -145 -305 87zm1676 -266l13 537c-4,1 -9,2 -17,4 -8,1 -17,2 -26,2 -19,0 -34,-3 -46,-9 -11,-6 -17,-19 -18,-39l-5 -234c-11,-6 -25,-9 -45,-8 -28,1 -62,19 -103,55 -34,30 -64,52 -90,65 -27,14 -53,21 -81,21l-3 0c-20,1 -36,-3 -47,-12 -12,-9 -18,-22 -18,-39 0,-15 2,-29 9,-42l35 -1c32,-1 58,-10 79,-27 20,-17 30,-40 30,-70 -1,-24 -8,-45 -22,-63 -13,-18 -35,-34 -65,-48l-37 -17c-9,-4 -15,-9 -20,-14 -4,-5 -7,-12 -7,-22 0,-9 2,-18 7,-27l-51 1c-26,1 -39,-13 -40,-42 0,-7 1,-15 2,-22 2,-7 4,-13 6,-19l653 -16c26,-1 39,13 40,41 0,7 0,15 -2,22 -1,7 -3,14 -6,20l-125 3zm-147 157c10,0 19,0 26,1 7,2 14,3 19,5l-4 -160 -257 6c14,7 28,15 43,25 14,11 27,24 39,38 12,15 22,32 30,51 8,18 13,39 13,61l0 7c13,-10 27,-17 43,-24 15,-6 31,-9 48,-10zm913 -48l-94 528c-4,1 -10,1 -18,0 -8,0 -17,-1 -26,-3 -19,-3 -33,-9 -43,-17 -10,-9 -13,-23 -9,-42l22 -126c-8,-17 -17,-34 -28,-50 -11,-16 -23,-30 -36,-43 -14,-12 -28,-23 -44,-31 -15,-9 -31,-15 -48,-18 -28,-5 -50,-2 -66,8 -15,10 -24,24 -28,41 -3,18 1,33 12,46 11,12 27,21 47,24 13,3 25,3 34,2 10,-1 19,-2 27,-5 10,15 14,31 10,50 -3,16 -12,27 -30,35 -17,8 -41,10 -73,4 -23,-4 -43,-11 -62,-21 -18,-10 -33,-23 -45,-37 -12,-15 -21,-32 -26,-52 -5,-19 -6,-40 -2,-63 5,-27 15,-49 29,-66 15,-18 31,-31 50,-40 -7,-13 -13,-29 -18,-49 -4,-19 -5,-42 0,-67 3,-18 8,-34 14,-48 7,-15 15,-27 24,-37l-97 -17c-26,-4 -36,-21 -31,-50 2,-7 4,-14 7,-21 3,-6 6,-12 9,-17l648 116c26,4 36,21 31,48 -1,8 -3,15 -6,21 -3,7 -6,13 -10,19l-124 -22zm-308 106c36,7 69,21 97,42 28,22 50,44 65,67l42 -234 -213 -38c-9,9 -17,20 -23,34 -7,14 -11,29 -14,46 -6,30 -4,56 4,80 12,-1 26,0 42,3zm1195 111c23,9 29,27 19,54 -3,6 -6,13 -10,19 -4,6 -9,11 -14,16l-115 -46 -196 495c-15,7 -35,5 -61,-5 -5,-2 -10,-5 -14,-8 -25,-37 -50,-72 -74,-104 -24,-32 -49,-62 -74,-92 -25,-30 -51,-59 -79,-87 -27,-28 -57,-57 -89,-87 -1,-8 0,-18 2,-30 2,-13 6,-26 11,-39 3,-7 6,-13 9,-19 4,-6 7,-11 10,-15l62 16c57,15 101,16 133,4 32,-12 54,-33 67,-65 10,-25 10,-47 1,-64 -8,-17 -22,-29 -40,-36 -18,-7 -36,-7 -52,0 -17,7 -30,20 -38,40 -4,11 -6,20 -6,28 -1,8 0,16 0,23 -16,12 -35,14 -58,5 -16,-7 -28,-19 -37,-37 -8,-18 -7,-41 4,-68 8,-20 19,-37 33,-51 15,-15 32,-25 51,-32 20,-7 40,-10 63,-9 22,1 45,6 69,16 24,10 46,22 64,38 18,15 31,33 40,53 9,20 14,41 15,65 0,23 -5,47 -14,71 -18,46 -50,78 -94,97 -44,18 -96,22 -156,12 18,18 37,37 55,58 19,21 37,42 55,63 18,22 34,43 50,64 15,20 29,39 41,57 2,-9 5,-20 9,-32 4,-12 8,-25 13,-38 4,-13 8,-25 13,-36 4,-12 7,-21 11,-29l104 -266c8,-20 21,-34 38,-44 17,-10 38,-10 63,0l116 45zm103 -266c12,5 21,13 27,24 6,11 6,23 1,35 -4,12 -18,22 -40,31 -10,3 -23,8 -42,16 -18,7 -38,14 -60,22 -21,8 -42,15 -62,22 -20,7 -36,12 -48,16 -17,-7 -28,-18 -35,-33 -7,-15 -7,-30 -2,-45 3,-6 5,-10 7,-13 14,-5 33,-11 56,-18 22,-7 46,-14 70,-21 25,-7 48,-14 71,-20 23,-7 42,-12 57,-16zm220 729c-40,-13 -82,-22 -127,-27 -44,-6 -85,-9 -123,-8 25,47 47,95 67,141 20,47 36,87 47,119 4,-8 9,-18 15,-29 6,-11 12,-22 19,-33 6,-12 12,-22 19,-33 6,-10 11,-19 16,-26l67 -104z"/>
  <path class="fil18" d="M7098 1403c25,18 46,38 64,59 22,24 37,49 48,75 11,26 16,52 14,79l0 6c-1,-19 -6,-38 -14,-57 -11,-26 -26,-51 -48,-75 -21,-25 -47,-47 -76,-68l12 -19zm-119 305l-1 -2c-3,-15 -1,-29 9,-44 7,-12 15,-19 23,-24l13 9c16,10 31,14 47,11 15,-3 28,-12 38,-28 6,-8 9,-17 11,-25 3,19 0,36 -11,53 -10,16 -23,25 -38,28 -16,3 -31,-1 -47,-11l-13 -9c-8,5 -16,13 -23,24 -4,6 -7,12 -8,18zm-395 -318l-3 -6c0,-11 3,-24 8,-38 6,-14 12,-28 21,-41 1,-3 3,-5 5,-9 2,-3 4,-5 7,-8 29,-1 60,-1 92,0 32,2 65,5 98,9 33,4 65,10 97,16 31,7 61,15 89,24l16 -25 13 8 -29 45c-28,-9 -58,-17 -89,-24 -32,-6 -64,-12 -97,-16 -33,-4 -66,-7 -98,-9 -32,-1 -63,-1 -92,0 -3,3 -5,5 -7,9 -2,3 -4,5 -5,8 -9,13 -15,27 -21,41 -2,5 -3,11 -5,16zm118 -313c-1,-2 -2,-4 -2,-7 -2,-9 1,-21 9,-33 4,-6 9,-12 14,-17 6,-5 11,-9 15,-13l673 431c10,7 16,15 18,24 2,6 1,13 -2,21 -3,-6 -9,-12 -16,-17l-673 -431c-4,4 -9,8 -15,13 -5,5 -10,11 -14,17 -3,4 -5,8 -7,12zm-4138 233c5,4 9,7 12,12 4,7 7,14 7,20 0,6 0,12 0,17l-2 1c-2,-3 -3,-7 -5,-10 -4,-6 -10,-11 -18,-15 -8,-4 -18,-5 -30,-2l36 -23zm-37 119c1,5 3,9 6,14 8,13 19,20 33,23 14,3 28,0 43,-9 11,-8 22,-18 32,-32 11,-13 23,-34 37,-61l26 -52c11,0 24,2 39,6 16,3 32,9 49,17 18,8 35,19 52,33 17,14 33,32 47,54 18,27 28,56 31,86 1,12 1,23 1,35l-1 -7c-3,-30 -13,-59 -31,-86 -14,-22 -30,-40 -47,-54 -17,-14 -34,-25 -52,-33 -17,-8 -33,-14 -49,-17 -15,-4 -28,-6 -39,-6l-26 52c-14,27 -26,48 -37,61 -10,14 -21,24 -32,32 -15,9 -29,12 -43,9 -14,-2 -25,-10 -33,-23 -9,-15 -12,-29 -6,-42zm-252 179c-3,-9 -3,-18 -1,-27 5,-15 14,-28 29,-38 8,-5 16,-8 23,-10 7,-2 13,-3 19,-3l23 29c31,39 62,70 95,92 32,22 64,36 96,44 32,7 63,8 93,2 31,-6 59,-17 85,-34 16,-10 30,-22 42,-36 12,-14 22,-29 28,-45 3,-9 6,-19 7,-29l0 6c1,18 -1,35 -7,51 -6,16 -16,31 -28,45 -12,14 -26,26 -42,36 -26,17 -54,28 -85,34 -30,6 -61,5 -93,-2 -32,-8 -64,-22 -96,-44 -33,-22 -64,-53 -95,-92l-23 -29c-6,0 -12,1 -19,3 -7,2 -15,5 -23,10 -15,10 -24,22 -28,37zm146 -158c-1,-7 -1,-15 0,-22 0,-11 2,-20 5,-29l21 -14c-15,19 -23,41 -26,65zm-309 50l-1 -5c-3,-7 -4,-13 -5,-19l626 -401 36 -24c18,-11 35,-17 52,-19 17,-1 32,2 46,10 -2,9 -1,19 2,29 -15,-9 -30,-12 -48,-11 -17,2 -34,8 -52,19l-36 24 -620 397zm755 -461c-4,-15 -2,-29 4,-41 7,-13 18,-24 31,-33l50 -32c10,-6 20,-8 29,-7 10,2 19,10 27,22 4,6 7,13 9,20 3,7 5,14 6,20l-7 4c-2,-5 -5,-11 -8,-16 -8,-12 -17,-20 -27,-21 -9,-2 -19,0 -29,6l-50 32c-13,9 -24,20 -31,33 -2,4 -3,8 -4,13zm68 42c2,5 5,10 8,16l270 420c-3,3 -6,7 -11,11l-259 -403c-10,-16 -13,-29 -10,-39 1,-2 2,-3 2,-5zm771 -274l138 486c-1,2 -3,5 -5,8l-140 -492 7 -2zm-398 357l0 -2c-1,-3 -2,-6 -3,-10 -1,-4 -2,-7 -2,-11 8,-8 18,-18 31,-30 13,-12 26,-24 40,-36 13,-12 27,-24 40,-35l5 -5 27 4c-8,8 -19,18 -32,29 -13,11 -27,23 -40,35 -14,12 -27,24 -40,36 -10,9 -19,17 -26,25zm-92 -208c0,-3 -1,-6 -1,-9l4 -2c-1,4 -2,7 -3,11zm-85 -72c0,-3 -1,-6 -1,-9 0,-8 0,-14 1,-20l581 -165 0 0 106 -30c19,-6 38,-7 55,-3 17,3 31,11 42,24 1,-18 6,-32 17,-42 10,-11 23,-18 39,-23l57 -16c11,-3 21,-2 30,2 8,4 15,14 19,29 2,7 3,14 3,21 1,7 0,14 0,20 -1,-4 -2,-9 -3,-13 -4,-15 -11,-24 -19,-29 -9,-4 -19,-5 -30,-2l-57 16c-16,5 -29,12 -39,23 -11,10 -16,24 -17,42 -11,-13 -25,-21 -42,-24 -17,-4 -36,-3 -55,3l-106 30 0 0 -581 165 0 1zm840 -136l1 6 136 480c-1,1 -4,3 -6,4l-130 -456c-4,-14 -4,-25 -1,-34zm-522 406c37,6 77,14 121,23 48,11 95,23 139,37 4,12 8,23 11,32 -47,-15 -97,-29 -150,-40 -53,-12 -101,-21 -144,-28 6,-7 14,-15 23,-24zm-93 -247c28,4 58,9 92,15 34,6 68,12 103,18 30,6 57,10 79,14l9 29c-25,-4 -54,-9 -88,-15 -35,-6 -69,-12 -103,-18 -34,-6 -66,-11 -94,-16 -28,-4 -49,-8 -62,-9l64 -18zm1612 -248l13 509 0 0 -13 -509 0 0zm-485 326c-1,-4 -1,-7 -1,-11 0,-15 2,-29 9,-42l35 -1c32,-1 58,-10 79,-27 16,-13 26,-31 29,-53 0,4 1,8 1,11 0,30 -10,53 -30,70 -21,17 -47,26 -79,27l-35 1c-4,8 -7,16 -8,25zm3 -302c-1,-3 -2,-7 -2,-12l7 0c-2,4 -4,8 -5,12zm-85 -70c0,-3 -1,-7 -1,-11 0,-7 1,-15 2,-22 2,-7 4,-13 6,-19l653 -16c26,-1 39,13 40,41 0,6 0,11 -1,17 -4,-21 -16,-31 -39,-30l-653 16c-2,6 -4,12 -6,19l-1 5zm420 175c10,0 19,0 26,1 7,2 13,3 18,5l1 28c-5,-2 -12,-3 -19,-5 -7,-1 -16,-1 -26,-1 -17,1 -33,4 -48,10 -16,7 -30,15 -43,24l0 -7c0,-22 -5,-43 -13,-61 -8,-19 -18,-36 -30,-51 -12,-14 -25,-27 -39,-38 -15,-10 -29,-18 -43,-25l45 -1c14,10 26,22 37,36 12,15 22,32 30,51 8,18 13,39 13,61l0 7c13,-10 27,-17 43,-24 15,-6 31,-9 48,-10zm723 445c-2,-8 -2,-17 0,-27l18 -106 4 8 -22 125zm-227 -221c2,8 6,15 11,21 11,12 27,21 47,24 13,3 25,3 34,2 10,-1 19,-2 27,-5 10,15 14,31 10,50l0 1c-2,-8 -5,-16 -10,-23 -8,3 -17,4 -27,5 -9,1 -21,1 -34,-2 -20,-3 -36,-12 -47,-24 -11,-13 -15,-28 -12,-45l1 -4zm-111 1c-1,-14 -1,-28 2,-43 5,-27 15,-49 29,-66 12,-15 25,-26 40,-35 3,9 7,16 10,23 -19,9 -35,22 -50,40 -14,17 -24,39 -29,66 -1,5 -1,10 -2,15zm60 -217c-1,-15 0,-31 3,-48 3,-18 8,-34 14,-48 2,-4 4,-8 6,-12l18 3c-9,10 -17,22 -24,37 -6,14 -11,31 -14,48 -1,7 -2,14 -3,20zm-86 -174c-2,-7 -2,-15 -1,-26 2,-7 4,-14 7,-21 3,-6 6,-12 9,-17l648 116c26,4 36,21 31,48l-1 3c-3,-13 -13,-20 -30,-23l-648 -116c-3,5 -6,11 -9,18 -3,6 -5,12 -6,18zm246 224c36,7 69,21 97,42 28,22 50,44 65,67l37 -207 5 1 -42 234c-15,-23 -37,-45 -65,-67 -28,-21 -61,-35 -97,-42 -16,-3 -30,-4 -42,-3 -6,-19 -9,-39 -7,-61 1,11 4,22 7,33 12,-1 26,0 42,3zm1195 111c21,9 28,24 21,47 -3,-8 -10,-14 -21,-19l-116 -45c-25,-10 -46,-10 -63,0 -17,10 -30,24 -38,44l-104 266c-4,8 -7,17 -11,29 -5,11 -9,24 -13,36 -5,13 -9,26 -13,38 -4,12 -7,23 -9,32 -12,-18 -26,-37 -41,-57 -16,-21 -32,-42 -50,-64 -18,-21 -36,-42 -55,-63 -18,-21 -37,-40 -55,-58 11,2 21,3 32,4 7,8 15,17 23,26 19,21 37,42 55,63 18,22 34,43 50,64 15,20 29,39 41,57 2,-9 5,-20 9,-32 4,-12 8,-25 13,-38 4,-13 8,-25 13,-36 4,-12 7,-21 11,-29l104 -266c8,-20 21,-34 38,-44 17,-10 38,-10 63,0l116 45zm-706 156l-1 -1c-1,-8 0,-18 2,-30 2,-13 6,-26 11,-39 3,-7 6,-13 9,-19 4,-6 7,-11 10,-15l62 16c57,15 101,16 133,4 32,-12 54,-33 67,-65 3,-8 5,-15 6,-22 4,14 1,31 -6,50 -13,32 -35,53 -67,65 -32,12 -76,11 -133,-4l-62 -16c-3,4 -6,9 -10,15 -3,6 -6,12 -9,19 -5,13 -9,26 -11,39l-1 3zm158 -158l0 0 0 0 0 0zm-99 -45c-3,-16 0,-34 8,-55 8,-20 19,-37 33,-51 15,-15 32,-25 51,-32 20,-7 40,-10 63,-9 22,1 45,6 69,16 24,10 46,22 64,38 18,15 31,33 40,53 9,20 14,41 15,65 0,5 0,11 -1,16 -1,-19 -6,-36 -14,-53 -9,-20 -22,-38 -40,-53 -18,-16 -40,-28 -64,-38 -24,-10 -47,-15 -69,-16 -23,-1 -43,2 -63,9 -19,7 -36,17 -51,32 -14,14 -25,31 -33,51 -4,10 -6,18 -8,27zm750 -219c12,5 21,13 27,24 5,11 6,22 2,33 -1,-1 -1,-3 -2,-5 -6,-11 -15,-19 -27,-24 -15,4 -34,9 -57,16 -23,6 -46,13 -71,20 -24,7 -48,14 -70,21 -23,7 -42,13 -56,18 -2,3 -4,7 -7,13 0,3 -1,5 -2,7 -3,-12 -2,-23 2,-35 3,-6 5,-10 7,-13 14,-5 33,-11 56,-18 22,-7 46,-14 70,-21 25,-7 48,-14 71,-20 23,-7 42,-12 57,-16zm-16 722c20,38 37,76 53,113 20,47 36,87 47,119 4,-8 9,-18 15,-29 6,-11 12,-22 19,-33 6,-12 12,-22 19,-33 6,-10 11,-19 16,-26l52 -81 15 5 -67 104c-5,7 -10,16 -16,26 -7,11 -13,21 -19,33 -7,11 -13,22 -19,33 -6,11 -11,21 -15,29 -11,-32 -27,-72 -47,-119 -20,-46 -42,-94 -67,-141l14 0z"/>
  <path class="fil19" d="M5480 1730l-55 313c-3,1 -6,1 -11,1 -5,0 -10,-1 -15,-2 -11,-2 -19,-5 -25,-10 -6,-5 -8,-13 -5,-25l50 -288 -22 -4 -72 -12 -54 308c-3,0 -6,0 -11,0 -5,0 -10,-1 -15,-2 -11,-2 -19,-5 -25,-10 -6,-5 -8,-13 -6,-24l17 -95c-4,-10 -8,-20 -13,-29 -5,-9 -11,-17 -18,-24 -7,-8 -15,-14 -23,-19 -8,-5 -17,-9 -26,-10 -14,-3 -25,-1 -35,5 -9,6 -15,15 -17,26 -1,7 -1,13 0,18 1,6 2,11 3,16 -3,4 -8,7 -14,10 -6,2 -12,3 -20,1 -11,-2 -21,-8 -28,-19 -7,-10 -9,-25 -6,-44 3,-14 8,-27 15,-37 8,-10 17,-17 27,-23 11,-6 23,-10 36,-11 13,-2 26,-1 39,1 12,2 22,5 32,10 10,4 19,9 27,15 8,6 14,12 20,19 6,7 11,13 15,19l19 -112 -223 -40c-15,-2 -21,-12 -18,-29 1,-4 2,-8 4,-12 1,-4 3,-7 5,-10l323 57 66 12c-5,-25 -13,-46 -24,-65 -10,-18 -23,-34 -38,-48 -15,-13 -31,-24 -49,-32 -18,-9 -38,-14 -58,-18 -15,-3 -28,-4 -39,-4 -12,0 -22,1 -30,4 -8,2 -14,4 -18,8 -5,3 -8,7 -8,11 -2,9 4,15 18,17l121 21c15,3 21,13 18,31 -1,3 -2,7 -3,10 -2,3 -4,6 -5,8l-153 -27c-22,-4 -39,-12 -49,-23 -10,-12 -14,-27 -11,-44 3,-11 8,-22 18,-31 9,-10 21,-18 36,-23 15,-6 33,-10 52,-11 20,-1 41,0 64,4 31,5 59,15 84,28 26,13 47,30 66,49 19,19 34,41 45,66 12,24 20,51 24,80l62 11c7,1 12,4 16,8 3,5 4,11 2,20 0,4 -2,8 -4,12 -2,4 -3,8 -5,11l-73 -13zm-1411 10c7,0 12,3 16,6 3,4 6,8 7,12 1,5 1,9 0,12 -1,4 -2,7 -4,10 -3,0 -6,-1 -9,-1 -3,0 -7,1 -12,2 -7,1 -13,5 -18,11 -5,6 -7,14 -4,24 2,9 6,15 13,20 7,4 15,5 26,3 7,-2 15,-6 23,-11 9,-6 19,-15 32,-27l25 -23c6,2 13,6 20,11 8,4 16,11 24,19 8,8 15,17 22,28 7,11 12,24 15,39 5,18 5,36 0,53 -4,17 -11,32 -22,46 -11,13 -25,25 -42,35 -16,10 -35,17 -56,22 -24,5 -48,7 -71,5 -23,-3 -44,-9 -65,-19 -20,-9 -39,-23 -56,-40 -17,-16 -32,-37 -44,-60 -5,-8 -8,-15 -11,-22 -2,-8 -5,-16 -6,-23 -3,-13 -2,-23 3,-31 6,-7 13,-12 23,-15 6,-1 11,-1 15,-1 4,0 8,1 11,2l7 21c9,27 21,50 34,69 14,18 28,32 44,43 16,10 33,16 51,19 18,3 36,2 53,-2 11,-2 21,-6 31,-11 9,-6 17,-12 24,-20 6,-8 11,-16 14,-26 2,-10 3,-21 0,-33 -4,-18 -12,-32 -23,-41 -12,11 -23,20 -34,28 -11,8 -25,14 -42,18 -11,2 -22,3 -33,2 -11,-1 -21,-4 -30,-9 -9,-5 -17,-12 -23,-20 -7,-9 -12,-20 -15,-32 -4,-17 -3,-33 4,-47 6,-15 16,-26 28,-34l-183 42c-6,2 -12,1 -17,-2 -5,-3 -8,-9 -10,-17 -1,-4 -2,-9 -2,-13 0,-4 1,-8 1,-11l385 -89 0 0 63 -15c11,-2 22,-3 32,0 10,2 18,7 24,15 1,-10 4,-18 11,-24 6,-6 14,-9 23,-12l34 -7c7,-2 12,-1 17,1 5,3 8,9 10,18 1,4 2,8 2,12 0,5 -1,9 -1,12l-45 11c-8,2 -14,5 -18,10 -4,5 -5,13 -2,23l65 284c-2,1 -5,3 -9,5 -5,2 -10,3 -15,4 -11,3 -20,3 -27,1 -7,-3 -12,-10 -15,-21l-61 -267c-3,-13 -11,-18 -23,-15l-37 9 0 0 -147 34zm483 -79l8 319c-2,1 -6,1 -10,2 -5,1 -10,2 -16,2 -11,0 -19,-2 -26,-5 -7,-4 -10,-12 -10,-24l-7 -292 -43 1c-15,0 -22,-8 -22,-25 -1,-4 0,-8 1,-13 1,-4 2,-8 3,-11l55 -1c-5,-5 -9,-12 -12,-20 -3,-9 -5,-18 -5,-29 0,-16 3,-31 10,-45 8,-13 18,-25 32,-35 13,-10 30,-17 49,-23 19,-6 41,-9 65,-9 21,-1 41,1 60,4 19,3 36,7 51,12 15,4 29,9 40,14 11,6 19,10 25,14 11,7 18,13 22,18 3,6 5,11 5,17 1,7 -1,14 -6,18 -4,5 -9,9 -15,11 -24,-15 -51,-29 -81,-40 -31,-11 -63,-17 -98,-16 -30,1 -53,7 -70,19 -17,12 -25,28 -25,48 1,10 2,18 6,25 3,7 7,12 11,16l41 -1 0 0 386 -10c15,0 22,8 23,25 0,4 -1,8 -1,12 -1,5 -2,9 -3,12l-74 2 8 310c-3,3 -8,6 -14,8 -6,2 -13,4 -21,4 -3,0 -6,-1 -9,-1 -20,-13 -39,-24 -58,-35 -18,-10 -37,-20 -55,-30 -19,-9 -37,-18 -56,-26 -19,-9 -39,-17 -59,-25 -4,-6 -7,-13 -9,-21 -2,-9 -3,-17 -3,-26 0,-2 0,-4 0,-6 0,-3 0,-5 0,-7 6,-3 13,-8 22,-12 9,-5 18,-10 28,-15 9,-5 18,-9 28,-14 9,-4 16,-8 22,-11l-103 -43c-7,-2 -11,-5 -14,-8 -3,-3 -5,-7 -5,-13 0,-4 1,-8 2,-12 2,-4 3,-7 5,-10l-4 0 -74 1zm318 242c-1,-6 -2,-13 -2,-20 -1,-8 -2,-15 -2,-23 -1,-8 -1,-15 -2,-22 0,-8 0,-14 0,-19l-1 -22 -60 -28c-6,4 -14,8 -22,13 -8,5 -16,9 -25,14 -8,5 -16,9 -24,14 -8,4 -14,8 -19,11 23,10 49,22 77,37 29,14 55,29 80,45zm-195 -244c7,2 18,7 33,14 15,7 32,14 51,23 18,8 37,17 55,25 19,8 35,16 48,21l-2 -88 -185 5z"/>
  <path class="fil3" d="M8408 4788c0,1999 -1621,3620 -3620,3620 -1999,0 -3620,-1621 -3620,-3620"/>
  <g>
   <path class="fil20" d="M2709 8220l-245 340c-5,1 -11,1 -18,-1 -8,-2 -15,-5 -24,-11 -3,-2 -6,-4 -8,-7 -6,-12 -12,-24 -21,-35 -8,-11 -22,-22 -40,-34 -7,-5 -13,-8 -19,-12 -5,-3 -11,-6 -17,-9 -6,-3 -13,-7 -20,-12 -7,-4 -16,-9 -26,-16 -16,-10 -29,-21 -39,-32 -10,-11 -16,-22 -20,-33 -4,-12 -5,-23 -3,-33 1,-11 5,-22 12,-31 9,-15 19,-23 30,-25 11,-3 21,-1 30,4 6,4 10,8 13,12 3,5 6,9 7,12 -2,3 -4,6 -6,8 -2,3 -4,6 -6,9 -7,11 -9,22 -7,32 3,11 12,21 27,31 12,7 21,13 28,17 6,3 12,7 16,9 5,3 9,5 14,7 5,3 11,6 18,11 14,9 25,18 35,28 9,10 17,21 23,32 4,-9 8,-17 13,-26 4,-8 9,-17 14,-26 -21,-40 -45,-79 -70,-118 -26,-39 -52,-76 -79,-111 0,-4 2,-11 6,-21 3,-9 7,-17 11,-24 4,-6 8,-11 12,-15 18,1 37,4 59,7 22,4 44,8 67,14 23,5 46,11 68,18 23,7 44,14 64,22l20 -32 -204 -130 -1 0 -51 -33c-9,0 -20,2 -34,7 -13,5 -27,12 -42,22 -15,9 -30,21 -45,35 -15,14 -28,30 -39,48 -13,20 -22,39 -27,57 -5,19 -8,36 -8,53 0,16 2,32 6,46 4,14 10,27 17,38 -1,2 -2,4 -3,6 -1,1 -2,3 -3,5 -6,9 -14,15 -23,17 -10,2 -19,0 -30,-6 -11,-8 -21,-19 -29,-36 -8,-16 -12,-35 -14,-57 -2,-23 0,-47 7,-73 6,-27 18,-54 35,-81 20,-32 43,-58 68,-79 25,-20 50,-36 74,-47 25,-10 47,-16 68,-17 21,-2 37,2 49,9l39 25 1 0 340 216 1 1 30 18c12,8 21,17 27,28 7,11 9,22 8,34 9,-8 19,-12 29,-11 11,0 21,4 31,10l35 22c7,5 12,10 13,17 2,7 0,14 -6,23 -2,5 -6,9 -9,13 -4,3 -8,6 -12,9l-47 -30c-8,-5 -16,-8 -24,-7 -8,1 -15,7 -22,18l-190 299c-3,-1 -7,-2 -12,-4 -5,-3 -11,-6 -17,-9 -11,-7 -18,-15 -22,-23 -5,-8 -3,-19 5,-31l178 -281c9,-13 6,-24 -6,-32l-60 -38zm21 13l-42 -26 42 26zm359 259c6,-13 6,-26 1,-39 -5,-14 -15,-24 -31,-31 -18,-8 -33,-9 -46,-4 -13,5 -23,14 -29,28 -3,6 -4,12 -5,18 -1,7 0,12 1,16 -12,11 -27,13 -43,6 -12,-6 -21,-15 -26,-28 -5,-14 -3,-30 6,-49 6,-14 15,-26 26,-36 12,-10 25,-17 40,-21 15,-4 31,-5 48,-3 18,1 35,6 53,14 20,9 36,20 49,33 12,13 21,28 26,43 16,-7 33,-10 51,-9 19,0 37,4 56,12 29,13 50,31 62,52 11,22 12,44 2,67 -3,8 -7,14 -12,19 -5,5 -11,9 -16,12 -6,3 -12,5 -18,6 -6,1 -11,1 -15,0 4,3 8,8 12,13 4,6 6,12 8,19 2,6 3,14 3,21 0,8 -2,16 -6,24 -5,12 -12,22 -20,29 -9,7 -18,12 -27,14 1,6 3,11 4,17 1,6 1,11 0,15 -15,10 -29,23 -43,40 -13,16 -27,39 -40,68 -14,32 -24,62 -29,91 -5,2 -10,4 -16,4 -6,1 -13,-1 -20,-4 -7,-3 -13,-8 -18,-13 -6,-6 -9,-13 -11,-22 -1,-10 0,-21 2,-34 3,-13 9,-29 17,-48 13,-29 28,-53 46,-73 17,-20 33,-34 46,-44 -8,-2 -16,-5 -24,-9 -28,-12 -49,-29 -63,-51 -13,-22 -20,-47 -19,-74l-49 16c-12,4 -21,8 -27,11 -6,4 -10,9 -13,15 -4,8 -3,15 0,21 4,7 10,12 18,16 9,4 17,6 25,6 8,1 16,1 23,0 5,8 9,17 12,27 4,9 6,19 8,30 2,10 2,20 1,31 -1,10 -4,20 -8,29 -8,17 -18,31 -30,41 -12,11 -25,18 -40,21 -16,4 -32,5 -49,2 -17,-2 -35,-7 -53,-15 -20,-9 -39,-21 -56,-36 -16,-15 -30,-33 -41,-54 -12,-20 -19,-44 -23,-71 -5,-26 -5,-56 0,-89 1,-12 4,-24 7,-38 3,-14 6,-25 10,-34 7,-15 15,-24 26,-27 10,-3 21,-2 32,3 5,2 9,5 13,7 3,3 6,6 8,8l-9 39c-16,66 -17,118 -6,155 12,36 34,62 67,76 15,7 29,9 43,6 13,-2 23,-11 30,-26 3,-6 5,-12 5,-19 1,-6 1,-11 0,-15 -4,0 -10,-1 -16,-2 -6,-1 -14,-4 -22,-8 -11,-5 -20,-11 -28,-18 -8,-7 -15,-15 -19,-24 -4,-9 -7,-19 -7,-30 0,-11 2,-22 8,-34 4,-9 9,-17 14,-23 6,-7 12,-12 20,-18 8,-5 17,-9 27,-13 10,-4 22,-8 35,-11 24,-7 43,-13 55,-19 13,-6 22,-14 27,-25zm840 221l-47 -9c-9,3 -18,9 -29,19 -11,9 -21,21 -32,35 -10,15 -20,31 -28,50 -9,18 -15,38 -19,59 -4,23 -5,44 -3,63 1,19 5,36 12,52 6,15 13,29 23,40 9,12 19,22 29,29 0,3 0,5 0,7 -1,2 -1,4 -2,6 -2,11 -7,19 -14,24 -8,6 -18,8 -30,5 -14,-2 -27,-10 -40,-22 -14,-12 -25,-28 -35,-48 -10,-20 -17,-43 -21,-70 -4,-27 -3,-56 3,-88 7,-37 18,-70 34,-98 16,-29 33,-53 51,-72 19,-19 38,-33 57,-41 19,-9 35,-12 49,-10l46 9 0 0 380 71 77 15c14,2 26,7 36,15 9,8 16,17 19,29 6,-11 14,-18 23,-22 10,-3 21,-4 33,-1l41 7c5,1 10,3 13,6 16,-12 34,-22 54,-28 22,-8 46,-11 71,-10 29,1 55,7 76,18 22,11 40,24 54,39 2,-12 8,-23 17,-31 10,-9 22,-12 39,-12l79 3c8,0 15,3 19,7 5,5 7,13 7,24 0,5 -1,10 -3,15 -1,5 -3,10 -4,14l-89 -3 -13 381c-3,1 -7,1 -13,2 -6,0 -12,0 -19,0 -13,0 -23,-3 -31,-8 -8,-5 -11,-14 -11,-28l10 -285c-13,-20 -30,-36 -49,-49 -20,-13 -43,-20 -67,-21 -16,-1 -30,1 -43,5 -12,4 -23,10 -33,18 -9,7 -17,16 -23,27 -6,10 -10,21 -11,33 7,-2 15,-4 24,-6 10,-1 20,-2 31,-2 13,1 25,3 36,7 11,5 21,11 29,18 8,8 15,17 19,28 4,11 6,23 6,36 -2,40 -24,74 -68,104 -9,6 -17,10 -25,13 -8,4 -16,5 -24,5 -11,0 -20,-5 -26,-13 -7,-8 -12,-18 -14,-31 10,-5 19,-10 28,-16 10,-6 18,-13 25,-19 7,-7 12,-13 17,-20 4,-7 7,-14 7,-21 0,-8 -3,-15 -8,-21 -5,-5 -13,-8 -23,-8 -11,-1 -26,2 -43,6l-22 6c-2,0 -6,1 -9,2 -3,0 -7,1 -10,0 -10,0 -17,-6 -21,-17 -5,-11 -7,-25 -6,-41 1,-25 6,-48 16,-68l2 -4 -16 -3c-10,-1 -18,-1 -25,3 -7,4 -12,12 -14,25l-65 348c-3,0 -8,0 -13,0 -6,0 -12,-1 -19,-2 -13,-3 -23,-7 -30,-13 -7,-6 -9,-16 -6,-30l61 -327c3,-16 -3,-25 -18,-28l-5 -1 -87 -16 -69 370c-5,3 -11,5 -19,6 -7,2 -16,1 -25,0 -4,-1 -7,-2 -11,-4 -20,-20 -40,-38 -60,-56 -19,-17 -38,-33 -58,-49 -20,-16 -40,-31 -60,-46 -20,-15 -41,-29 -64,-44 -3,-8 -5,-17 -5,-27 -1,-11 0,-21 2,-32 0,-2 1,-5 2,-7 0,-3 1,-6 2,-8 8,-3 18,-6 29,-9 12,-4 24,-7 37,-11 12,-3 25,-6 37,-9 12,-3 21,-6 29,-8l-113 -77c-6,-4 -10,-8 -13,-12 -3,-5 -4,-10 -2,-17 1,-5 2,-10 5,-14 3,-4 6,-8 9,-11zm2599 -308l-1 0 -172 78 16 35c24,-10 47,-17 70,-20 22,-3 44,-3 63,1 20,3 37,11 52,21 15,11 27,26 36,45 7,16 11,31 11,45 1,14 -1,27 -6,39 -4,11 -10,21 -19,30 -8,8 -17,14 -27,19 -14,6 -26,7 -36,4 -10,-4 -18,-11 -23,-22 -4,-9 -5,-17 -5,-23l10 -5c12,-5 21,-13 25,-23 4,-10 4,-22 -2,-34 -8,-18 -22,-28 -44,-31 -21,-3 -47,1 -78,12l113 250c-4,11 -15,21 -33,29 -2,1 -4,1 -6,2 -1,0 -3,1 -5,1 -27,-7 -52,-13 -77,-18 -24,-5 -48,-9 -72,-13 -24,-3 -48,-6 -72,-8 -24,-2 -49,-4 -75,-5 -7,-5 -13,-12 -20,-20 -6,-9 -12,-18 -16,-28 -1,-2 -2,-4 -3,-7 -1,-2 -2,-4 -3,-7 11,-18 23,-36 36,-54 13,-19 28,-37 43,-55 15,-18 31,-35 47,-51 16,-17 32,-31 48,-44l-15 -35 -237 107c-8,4 -15,4 -21,2 -7,-3 -12,-9 -16,-19 -3,-4 -4,-9 -5,-14 -1,-6 -1,-10 -2,-14l516 -234c5,-2 9,-3 14,-3 -4,0 -9,1 -13,3l31 -14c13,-6 26,-9 38,-8 12,1 23,5 32,12 -1,-12 1,-22 7,-31 7,-8 15,-15 26,-19l38 -18c8,-3 15,-4 21,-2 6,3 12,9 16,18 2,5 4,10 5,15 1,5 2,10 2,15l-51 23c-9,4 -16,9 -19,16 -4,7 -3,17 3,29l145 322c-2,2 -5,5 -10,8 -5,3 -10,6 -17,9 -11,5 -22,7 -31,6 -9,-1 -17,-8 -23,-21l-137 -303c-6,-14 -17,-19 -30,-12l-42 19zm540 -318l214 310c-2,11 -11,23 -27,34 -3,2 -7,4 -10,5 -29,-1 -55,-2 -81,-2 -25,-1 -50,0 -75,1 -24,1 -49,3 -73,5 -25,3 -50,6 -76,10 -8,-4 -15,-9 -23,-16 -8,-8 -15,-16 -21,-25 -2,-2 -3,-4 -4,-6 -2,-2 -3,-4 -4,-6 7,-20 16,-40 26,-61 11,-22 22,-42 34,-63 12,-21 25,-41 39,-60 13,-19 27,-37 41,-53l-21 -31 -222 154c-15,10 -28,7 -40,-10 -3,-4 -5,-9 -7,-14 -2,-5 -4,-9 -4,-13l356 -247 1 0 32 -22c-26,-17 -51,-29 -76,-36 -25,-7 -50,-10 -74,-9 -24,2 -48,6 -71,15 -22,8 -44,19 -65,34 -15,10 -27,20 -37,30 -10,10 -17,19 -22,28 -5,9 -8,16 -9,23 -1,7 0,12 2,16 7,9 17,9 31,-1l122 -84c16,-11 29,-7 42,10 2,4 4,8 6,12 1,4 2,8 3,11l-155 107c-23,16 -44,23 -63,22 -18,-2 -34,-11 -46,-28 -8,-12 -12,-26 -12,-43 0,-16 4,-33 12,-50 8,-18 20,-36 36,-54 16,-18 35,-35 58,-51 32,-22 64,-38 97,-48 33,-10 66,-15 98,-14 33,1 65,7 96,18 31,12 60,28 88,49l63 -44c7,-5 14,-7 21,-6 7,1 13,6 19,15 3,4 5,9 7,14 2,5 3,10 5,14l-74 51 220 318c-2,2 -5,5 -9,9 -4,4 -9,8 -15,12 -10,8 -20,12 -29,12 -10,1 -18,-4 -27,-16l-202 -292 -23 16 -11 7 -22 16 -1 0 -38 27zm-1 131c-20,24 -38,49 -55,77 -16,28 -30,55 -41,81 19,-2 39,-4 58,-5 20,-1 39,-2 56,-3 18,0 35,0 51,0 16,0 30,0 42,1 -5,-5 -10,-11 -15,-18 -6,-7 -11,-14 -17,-22 -5,-7 -11,-14 -16,-21 -5,-7 -9,-13 -13,-18l-50 -72zm-27 349c-7,-12 -10,-23 -7,-35 2,-12 9,-21 20,-29 12,-8 23,-11 35,-9 12,2 21,9 29,20 7,10 10,21 7,33 -2,12 -8,22 -20,30 -11,7 -22,10 -35,8 -12,-2 -21,-8 -29,-18zm-708 45c-23,19 -45,40 -65,64 -21,25 -38,48 -52,71 37,3 74,8 110,14 35,6 65,13 88,18 -3,-5 -7,-12 -11,-20 -4,-8 -9,-16 -13,-24 -4,-8 -8,-16 -12,-24 -4,-7 -7,-14 -9,-19l-36 -80zm-413 35l86 370c-3,2 -7,4 -12,6 -5,2 -11,3 -18,5 -13,3 -24,3 -33,0 -8,-3 -14,-11 -17,-24l-27 -114c-9,-10 -18,-18 -28,-26 -10,-8 -21,-14 -32,-19 -11,-5 -23,-8 -34,-10 -12,-2 -23,-2 -34,1 -17,4 -29,11 -37,22 -7,11 -10,24 -6,38 1,8 4,15 8,20 4,6 7,11 11,16 -2,6 -6,12 -11,18 -5,5 -13,9 -22,11 -13,3 -27,0 -40,-8 -13,-8 -22,-24 -27,-47 -4,-17 -5,-33 -1,-48 3,-15 10,-28 19,-39 9,-11 20,-21 34,-29 14,-8 29,-14 45,-18 14,-3 27,-4 41,-4 13,0 25,2 37,5 11,3 22,6 31,11 10,5 18,10 25,15l-31 -135 -202 46c0,2 0,4 0,6 -1,5 -2,10 -3,14l-55 7c-10,1 -18,5 -24,10 -5,6 -7,15 -6,28l42 351c-3,1 -7,3 -12,4 -6,2 -12,3 -19,4 -13,2 -23,1 -32,-3 -8,-4 -13,-13 -15,-27l-39 -331c-2,-15 -10,-22 -25,-21l-10 2 0 0 -299 35 10 81c0,8 1,17 2,27 0,10 1,20 1,30 0,10 0,19 0,28 0,8 -1,15 -1,19 11,-15 24,-30 39,-45 15,-15 30,-30 47,-44 17,-13 34,-26 52,-37 18,-10 36,-19 54,-25 8,2 17,8 26,16 9,8 16,16 21,25 -3,11 -5,23 -7,36 -3,13 -4,27 -5,43 -2,16 -2,34 -2,53 1,19 3,41 5,65 3,19 6,37 9,53 4,16 9,31 13,44 -3,5 -7,10 -12,13 -5,3 -11,6 -19,6 -8,1 -16,0 -23,-2 -7,-3 -13,-8 -19,-15 -6,-8 -12,-19 -16,-32 -5,-14 -8,-31 -11,-52 -2,-18 -3,-36 -2,-54 0,-18 2,-34 4,-49 2,-15 5,-29 8,-41 2,-11 5,-21 8,-28 -14,8 -29,18 -43,30 -15,12 -28,25 -42,40 -14,14 -27,29 -39,45 -12,15 -23,31 -32,46 -5,2 -11,4 -16,4 -11,1 -21,0 -32,-3 -10,-3 -18,-8 -23,-15l-30 -253 -46 5c-18,2 -28,-7 -31,-27 0,-5 0,-10 0,-16 1,-5 2,-9 3,-13l384 -46 77 -9c15,-2 28,0 39,4 12,4 21,11 27,21 2,-12 8,-21 16,-27l1 -1 0 -3c0,-5 0,-9 1,-14l429 -98c18,-5 29,3 33,23 2,5 2,10 2,15 0,5 0,10 -1,15l-87 20zm-1802 180c1,4 1,9 1,14 0,4 -1,9 -2,15 -1,6 -3,12 -4,17 -2,6 -4,10 -7,14 -8,3 -18,6 -29,9 -11,4 -22,7 -33,10 -11,4 -21,7 -32,10 -10,4 -18,7 -25,9 25,18 53,39 83,63 30,25 57,49 83,74 0,-7 1,-15 2,-24 1,-9 2,-19 3,-28 1,-9 3,-18 4,-27 1,-9 3,-16 4,-22l37 -197 -220 -41c8,6 19,13 32,22 12,9 25,19 38,29 13,10 26,20 37,29 12,10 21,18 28,24zm-1611 -457c6,-12 13,-24 20,-37 7,-14 14,-25 20,-35l30 -46c-30,-12 -60,-21 -91,-29 -31,-7 -59,-12 -84,-16 20,26 39,53 58,82 19,28 34,55 47,81zm728 126c-12,-5 -25,-7 -37,-7 -13,1 -24,5 -35,11 -1,2 -2,5 -3,8 -1,3 -2,6 -3,8 -6,13 -13,24 -21,32 -8,19 -9,38 -2,57 7,19 20,33 39,42 24,10 39,7 47,-11 3,-7 3,-13 0,-20 -3,-7 -11,-14 -23,-19l-24 -11c-1,-8 0,-17 5,-26 5,-11 10,-19 16,-23l22 10c12,5 21,7 28,5 8,-2 13,-7 16,-14 4,-8 3,-16 -1,-23 -5,-7 -13,-14 -24,-19z"/>
  </g>
  <path class="fil21" d="M2709 8192l-245 340c-5,1 -11,1 -18,-1 -8,-2 -15,-5 -24,-11 -3,-2 -6,-4 -8,-7 -6,-12 -12,-24 -21,-35 -8,-11 -22,-22 -40,-34 -7,-5 -13,-8 -19,-12 -5,-3 -11,-6 -17,-9 -6,-3 -13,-7 -20,-12 -7,-4 -16,-9 -26,-16 -16,-10 -29,-21 -39,-32 -10,-11 -16,-22 -20,-33 -4,-12 -5,-23 -3,-33 1,-11 5,-22 12,-32 9,-14 19,-22 30,-24 11,-3 21,-1 30,4 6,4 10,8 13,12 3,5 6,9 7,12 -2,3 -4,6 -6,8 -2,3 -4,6 -6,9 -7,11 -9,22 -7,32 3,11 12,21 27,31 12,7 21,13 28,17 6,3 12,6 16,9 5,3 9,5 14,7 5,3 11,6 18,11 14,9 25,18 35,28 9,10 17,20 23,32 4,-9 8,-17 13,-26 4,-8 9,-17 14,-26 -21,-40 -45,-79 -70,-118 -26,-39 -52,-76 -79,-111 0,-4 2,-11 6,-21 3,-9 7,-17 11,-24 4,-6 8,-11 12,-15 18,1 37,4 59,7 22,4 44,8 67,14 23,5 46,11 68,18 23,7 44,14 64,22l20 -32 -204 -130 -1 0 -51 -33c-9,0 -20,2 -34,7 -13,5 -27,12 -42,22 -15,9 -30,21 -45,35 -15,14 -28,30 -39,48 -13,20 -22,39 -27,57 -5,19 -8,36 -8,53 0,16 2,32 6,46 4,14 10,27 17,38 -1,2 -2,4 -3,6 -1,1 -2,3 -3,5 -6,9 -14,15 -23,17 -10,2 -19,0 -30,-6 -11,-8 -21,-19 -29,-36 -8,-16 -12,-35 -14,-57 -2,-23 0,-47 7,-73 6,-27 18,-54 35,-81 20,-32 43,-58 68,-79 25,-20 50,-36 74,-47 25,-10 47,-16 68,-17 21,-2 37,2 49,9l39 25 1 0 340 216 1 0 30 19c12,8 21,17 27,28 7,11 9,22 8,34 9,-8 19,-12 29,-11 11,0 21,4 31,10l35 22c7,5 12,10 13,17 2,7 0,14 -6,23 -2,5 -6,9 -9,12 -4,4 -8,7 -12,10l-47 -30c-8,-5 -16,-8 -24,-7 -8,1 -15,7 -22,18l-190 299c-3,-1 -7,-2 -12,-5 -5,-2 -11,-5 -17,-8 -11,-7 -18,-15 -22,-23 -5,-8 -3,-19 5,-31l178 -281c9,-13 6,-24 -6,-32l-60 -38zm21 13l-42 -26m401 285c6,-13 6,-26 1,-40 -5,-13 -15,-23 -31,-30 -18,-8 -33,-9 -46,-4 -13,5 -23,14 -29,28 -3,6 -4,12 -5,18 -1,7 0,12 1,16 -12,11 -27,13 -43,6 -12,-6 -21,-15 -26,-28 -5,-14 -3,-30 6,-49 6,-14 15,-26 26,-36 12,-10 25,-17 40,-21 15,-4 31,-5 48,-4 18,2 35,7 53,15 20,9 36,20 49,33 12,13 21,28 26,43 16,-7 33,-10 51,-9 19,0 37,4 56,12 29,13 50,31 62,52 11,22 12,44 2,67 -3,8 -7,14 -12,19 -5,5 -11,9 -16,12 -6,3 -12,5 -18,6 -6,1 -11,1 -15,0 4,3 8,8 12,13 4,6 6,12 8,19 2,6 3,14 3,21 0,8 -2,16 -6,24 -5,12 -12,22 -20,29 -9,7 -18,12 -27,14 1,6 3,11 4,17 1,6 1,11 0,15 -15,10 -29,23 -43,40 -13,16 -27,39 -40,68 -14,32 -24,62 -29,91 -5,2 -10,4 -16,4 -6,1 -13,-1 -20,-4 -7,-3 -13,-8 -18,-13 -6,-6 -9,-13 -11,-22 -1,-10 0,-21 2,-34 3,-13 9,-29 17,-48 13,-29 28,-53 46,-73 17,-20 33,-34 46,-44 -8,-2 -16,-5 -24,-9 -28,-12 -49,-29 -63,-51 -13,-22 -20,-47 -19,-74l-49 16c-12,4 -21,7 -27,11 -6,4 -10,9 -13,15 -4,8 -3,15 0,21 4,7 10,12 18,16 9,4 17,6 25,6 8,1 16,1 23,0 5,8 9,17 12,27 4,9 6,19 8,30 2,10 2,20 1,31 -1,10 -4,20 -8,29 -8,17 -18,31 -30,41 -12,11 -25,18 -40,21 -16,4 -32,5 -49,2 -17,-2 -35,-7 -53,-15 -20,-9 -39,-21 -56,-36 -16,-15 -30,-33 -41,-54 -12,-20 -19,-44 -23,-71 -5,-27 -5,-56 0,-89 1,-12 4,-24 7,-38 3,-14 6,-25 10,-34 7,-15 15,-24 26,-27 10,-3 21,-2 32,3 5,2 9,5 13,7 3,3 6,6 8,8l-9 39c-16,66 -17,118 -6,155 12,36 34,62 67,76 15,7 29,9 43,6 13,-2 23,-11 30,-26 3,-6 5,-12 5,-19 1,-6 1,-11 0,-15 -4,0 -10,-1 -16,-2 -6,-2 -14,-4 -22,-8 -11,-5 -20,-11 -28,-18 -8,-7 -15,-15 -19,-24 -4,-9 -7,-19 -7,-30 0,-11 2,-22 8,-34 4,-9 9,-17 14,-23 6,-7 12,-12 20,-18 8,-5 17,-9 27,-13 10,-4 22,-8 35,-11 24,-7 43,-13 55,-19 13,-6 22,-14 27,-25zm840 221l-47 -9c-9,3 -18,9 -29,19 -11,9 -21,21 -32,35 -10,15 -20,31 -28,50 -9,18 -15,38 -19,59 -4,23 -5,44 -3,63 1,19 5,36 12,52 6,15 13,29 23,40 9,12 19,22 29,29 0,3 0,5 0,7 -1,2 -1,4 -2,6 -2,10 -7,19 -14,24 -8,6 -18,8 -30,5 -14,-2 -27,-10 -40,-22 -14,-12 -25,-28 -35,-48 -10,-20 -17,-43 -21,-70 -4,-27 -3,-56 3,-88 7,-37 18,-70 34,-98 16,-29 33,-53 51,-72 19,-19 38,-33 57,-41 19,-9 35,-12 49,-10l46 9 0 0 380 71 77 15c14,2 26,7 36,15 9,8 16,17 19,29 6,-11 14,-18 23,-22 10,-3 21,-4 33,-2l41 8c5,1 10,3 13,6 16,-12 34,-22 54,-28 22,-8 46,-11 71,-10 29,1 55,7 76,18 22,11 40,24 54,39 2,-13 8,-23 17,-31 10,-9 22,-13 39,-12l79 3c8,0 15,3 19,7 5,5 7,13 7,24 0,5 -1,10 -3,15 -1,5 -3,10 -4,14l-89 -3 -13 381c-3,1 -7,1 -13,2 -6,0 -12,0 -19,0 -13,0 -23,-3 -31,-8 -8,-5 -11,-14 -11,-28l10 -285c-13,-20 -30,-36 -49,-49 -20,-13 -43,-20 -67,-21 -16,-1 -30,1 -43,5 -12,4 -23,10 -33,18 -9,7 -17,16 -23,27 -6,10 -10,21 -11,33 7,-2 15,-4 24,-6 10,-1 20,-2 31,-2 13,1 25,3 36,7 11,5 21,11 29,18 8,8 15,17 19,28 4,11 6,23 6,36 -2,40 -24,74 -68,104 -9,6 -17,10 -25,13 -8,4 -16,5 -24,5 -11,-1 -20,-5 -26,-13 -7,-8 -12,-18 -14,-31 10,-5 19,-10 28,-16 10,-6 18,-13 25,-19 7,-7 12,-13 17,-20 4,-7 7,-14 7,-21 0,-9 -3,-15 -8,-21 -5,-5 -13,-8 -23,-8 -11,-1 -26,2 -43,6l-22 6c-2,0 -6,1 -9,2 -3,0 -7,1 -10,0 -10,0 -17,-6 -21,-17 -5,-11 -7,-25 -6,-41 1,-25 6,-48 16,-68l2 -4 -16 -3c-10,-1 -18,-1 -25,3 -7,4 -12,12 -14,25l-65 348c-3,0 -8,0 -13,0 -6,0 -12,-1 -19,-2 -13,-3 -23,-7 -30,-13 -7,-6 -9,-16 -6,-30l61 -327c3,-16 -3,-25 -18,-28l-5 -1 -87 -16 -69 370c-5,3 -11,5 -19,6 -7,2 -16,1 -25,0 -4,-1 -7,-2 -11,-4 -20,-20 -40,-38 -60,-56 -19,-17 -38,-33 -58,-49 -20,-16 -40,-31 -60,-46 -20,-15 -41,-29 -64,-44 -3,-8 -5,-17 -5,-27 -1,-11 0,-21 2,-32 0,-2 1,-5 2,-7 0,-3 1,-6 2,-8 8,-3 18,-6 29,-9 12,-4 24,-7 37,-11 12,-3 25,-6 37,-9 12,-3 21,-6 29,-8l-113 -77c-6,-4 -10,-8 -13,-12 -3,-5 -4,-10 -2,-17 1,-5 2,-10 5,-14 3,-4 6,-8 9,-11zm2599 -308l-1 0 -172 78 16 35c24,-10 47,-17 70,-20 22,-3 44,-3 63,1 20,3 37,11 52,21 15,11 27,26 36,45 7,16 11,31 11,45 1,14 -1,27 -6,39 -4,11 -10,21 -19,29 -8,9 -17,15 -27,20 -14,6 -26,7 -36,4 -10,-4 -18,-11 -23,-22 -4,-9 -5,-17 -5,-23l10 -5c12,-5 21,-13 25,-23 4,-11 4,-22 -2,-34 -8,-18 -22,-28 -44,-31 -21,-3 -47,1 -78,12l113 250c-4,11 -15,21 -33,29 -2,1 -4,1 -6,2 -1,0 -3,1 -5,1 -27,-7 -52,-13 -77,-18 -24,-5 -48,-9 -72,-13 -24,-3 -48,-6 -72,-8 -24,-2 -49,-4 -75,-5 -7,-5 -13,-12 -20,-20 -6,-9 -12,-18 -16,-28 -1,-2 -2,-4 -3,-7 -1,-2 -2,-4 -3,-7 11,-18 23,-36 36,-54 13,-19 28,-37 43,-55 15,-18 31,-35 47,-51 16,-17 32,-31 48,-44l-15 -35 -237 107c-8,4 -15,4 -21,2 -7,-3 -12,-9 -16,-19 -3,-4 -4,-9 -5,-14 -1,-6 -1,-10 -2,-14l516 -234c5,-2 9,-3 14,-3 -4,0 -9,1 -13,3l31 -14c13,-6 26,-9 38,-8 12,0 23,5 32,12 -1,-12 1,-22 7,-31 7,-8 15,-15 26,-19l38 -18c8,-3 15,-4 21,-2 6,3 12,9 16,18 2,5 4,10 5,15 1,5 2,10 2,15l-51 23c-9,4 -16,9 -19,16 -4,7 -3,17 3,29l145 322c-2,2 -5,4 -10,8 -5,3 -10,6 -17,9 -11,5 -22,7 -31,6 -9,-1 -17,-8 -23,-21l-137 -303c-6,-14 -17,-19 -30,-12l-42 19zm540 -318l214 310c-2,11 -11,23 -27,34 -3,2 -7,4 -10,5 -29,-1 -55,-2 -81,-2 -25,-1 -50,0 -75,1 -24,1 -49,3 -73,5 -25,2 -50,6 -76,10 -8,-4 -15,-9 -23,-16 -8,-8 -15,-16 -21,-25 -2,-2 -3,-4 -4,-6 -2,-2 -3,-4 -4,-6 7,-20 16,-40 26,-61 11,-22 22,-42 34,-63 12,-21 25,-41 39,-60 13,-19 27,-37 41,-53l-21 -31 -222 154c-15,10 -28,7 -40,-10 -3,-5 -5,-9 -7,-14 -2,-5 -4,-9 -4,-13l356 -247 1 0 32 -22c-26,-17 -51,-29 -76,-36 -25,-7 -50,-10 -74,-9 -24,2 -48,6 -71,15 -22,8 -44,19 -65,34 -15,10 -27,20 -37,30 -10,10 -17,19 -22,28 -5,8 -8,16 -9,23 -1,7 0,12 2,16 7,9 17,9 31,-1l122 -84c16,-11 29,-7 42,10 2,4 4,8 6,12 1,4 2,8 3,11l-155 107c-23,16 -44,23 -63,22 -18,-2 -34,-11 -46,-28 -8,-12 -12,-26 -12,-43 0,-16 4,-33 12,-50 8,-18 20,-36 36,-54 16,-18 35,-35 58,-51 32,-22 64,-38 97,-48 33,-10 66,-15 98,-14 33,1 65,7 96,18 31,12 60,28 88,49l63 -44c7,-5 14,-7 21,-6 7,1 13,6 19,15 3,4 5,9 7,14 2,5 3,10 5,14l-74 51 220 318c-2,2 -5,5 -9,9 -4,4 -9,8 -15,12 -10,8 -20,12 -29,12 -10,1 -18,-4 -27,-16l-202 -292 -23 16 -11 7 -22 16 -1 0 -38 27zm-1 131c-20,24 -38,49 -55,77 -16,28 -30,55 -41,81 19,-2 39,-4 58,-5 20,-1 39,-2 56,-3 18,0 35,0 51,0 16,0 30,0 42,1 -5,-5 -10,-11 -15,-18 -6,-7 -11,-14 -17,-22 -5,-7 -11,-14 -16,-21 -5,-7 -9,-13 -13,-18l-50 -72zm-27 349c-7,-12 -10,-23 -7,-35 2,-12 9,-21 20,-29 12,-8 23,-11 35,-9 12,2 21,9 29,20 7,10 10,21 7,33 -2,12 -8,22 -20,30 -11,7 -22,10 -35,8 -12,-2 -21,-8 -29,-18zm-708 45c-23,19 -45,40 -65,64 -21,25 -38,48 -52,71 37,3 74,8 110,14 35,6 65,13 88,18 -3,-5 -7,-12 -11,-20 -4,-8 -9,-16 -13,-24 -4,-8 -8,-16 -12,-24 -4,-7 -7,-14 -9,-20l-36 -79zm-413 35l86 370c-3,2 -7,4 -12,6 -5,1 -11,3 -18,5 -13,3 -24,3 -33,0 -8,-3 -14,-11 -17,-25l-27 -113c-9,-10 -18,-19 -28,-26 -10,-8 -21,-14 -32,-19 -11,-5 -23,-8 -34,-10 -12,-2 -23,-2 -34,1 -17,4 -29,11 -37,22 -7,11 -10,24 -6,38 1,8 4,14 8,20 4,6 7,11 11,16 -2,6 -6,12 -11,17 -5,6 -13,10 -22,12 -13,3 -27,0 -40,-8 -13,-8 -22,-24 -27,-47 -4,-17 -5,-33 -1,-48 3,-15 10,-28 19,-39 9,-12 20,-21 34,-29 14,-8 29,-14 45,-18 14,-3 27,-4 41,-4 13,0 25,2 37,5 11,3 22,6 31,11 10,5 18,10 25,15l-31 -135 -202 46c0,2 0,4 0,6 -1,5 -2,10 -3,14l-55 7c-10,1 -18,5 -24,10 -5,6 -7,15 -6,28l42 351c-3,1 -7,3 -12,4 -6,2 -12,3 -19,4 -13,2 -23,1 -32,-3 -8,-4 -13,-13 -15,-27l-39 -331c-2,-15 -10,-22 -25,-21l-10 2 0 0 -299 35 10 81c0,7 1,17 2,27 0,10 1,20 1,30 0,10 0,19 0,28 0,8 -1,15 -1,19 11,-15 24,-30 39,-45 15,-16 30,-30 47,-44 17,-14 34,-26 52,-37 18,-10 36,-19 54,-25 8,2 17,8 26,16 9,8 16,16 21,25 -3,11 -5,23 -7,36 -3,13 -4,27 -5,43 -2,16 -2,34 -2,53 1,19 3,41 5,65 3,19 6,37 9,53 4,16 9,31 13,44 -3,5 -7,9 -12,13 -5,3 -11,5 -19,6 -8,1 -16,0 -23,-2 -7,-3 -13,-8 -19,-15 -6,-8 -12,-19 -16,-32 -5,-14 -8,-31 -11,-52 -2,-18 -3,-36 -2,-54 0,-18 2,-34 4,-49 2,-15 5,-29 8,-41 2,-11 5,-21 8,-29 -14,9 -29,19 -43,31 -15,12 -28,25 -42,40 -14,14 -27,29 -39,45 -12,15 -23,31 -32,46 -5,2 -11,3 -16,4 -11,1 -21,0 -32,-3 -10,-3 -18,-8 -23,-15l-30 -253 -46 5c-18,2 -28,-7 -31,-27 0,-5 0,-10 0,-16 1,-5 2,-9 3,-13l384 -46 77 -9c15,-2 28,0 39,4 12,4 21,11 27,21 2,-12 8,-21 16,-27l1 -1 0 -3c0,-5 0,-9 1,-14l429 -98c18,-5 29,3 33,23 2,5 2,10 2,15 0,5 0,10 -1,15l-87 20zm-1802 180c1,4 1,9 1,14 0,4 -1,9 -2,15 -1,6 -3,12 -4,17 -2,5 -4,10 -7,14 -8,3 -18,6 -29,9 -11,4 -22,7 -33,10 -11,4 -21,7 -32,10 -10,4 -18,7 -25,9 25,18 53,39 83,63 30,25 57,49 83,74 0,-7 1,-15 2,-24 1,-10 2,-19 3,-28 1,-9 3,-18 4,-27 1,-9 3,-16 4,-22l37 -197 -220 -41c8,6 19,13 32,22 12,9 25,19 38,29 13,10 26,20 37,29 12,10 21,18 28,24zm-1611 -457c6,-12 13,-24 20,-38 7,-13 14,-24 20,-34l30 -46c-30,-12 -60,-21 -91,-29 -31,-7 -59,-12 -84,-16 20,26 39,53 58,82 19,28 34,55 47,81zm728 126c-12,-5 -25,-7 -37,-7 -13,1 -24,5 -35,11 -1,2 -2,5 -3,8 -1,3 -2,6 -3,8 -6,13 -13,24 -21,31 -8,20 -9,39 -2,58 7,19 20,33 39,42 24,10 39,7 47,-11 3,-7 3,-13 0,-20 -3,-7 -11,-14 -23,-19l-24 -11c-1,-8 0,-17 5,-26 5,-11 10,-19 16,-23l22 10c12,5 21,7 28,5 8,-2 13,-7 16,-14 4,-8 3,-16 -1,-23 -5,-7 -13,-14 -24,-19z"/>
  <path class="fil22" d="M2210 8321c-2,-8 -2,-16 -1,-24 1,-11 5,-22 12,-32 9,-14 19,-22 30,-24 11,-3 21,-1 30,4 6,4 10,8 13,12 3,5 6,9 7,12 -2,3 -4,6 -6,8l-4 5c-2,-3 -6,-6 -10,-9 -9,-5 -19,-7 -30,-4 -11,2 -21,10 -30,25 -6,8 -10,17 -11,27zm74 3c4,8 12,17 25,25 12,7 21,13 28,17 6,3 12,6 16,9 5,3 9,5 14,7 5,3 11,6 18,11 14,9 25,18 35,28 9,10 17,20 23,32 4,-9 8,-17 13,-26l6 -12 8 14c-5,9 -10,18 -14,26 -5,9 -9,17 -13,26 -6,-11 -14,-22 -23,-32 -10,-10 -21,-19 -35,-28 -7,-5 -13,-8 -18,-11 -5,-2 -9,-4 -14,-7 -4,-2 -10,-6 -16,-9 -7,-4 -16,-10 -28,-17 -15,-10 -24,-20 -27,-31 -2,-7 -1,-15 2,-22zm43 -144l-6 -8c0,-4 2,-11 6,-21 3,-9 7,-17 11,-24 4,-6 8,-11 12,-15 18,1 37,4 59,7 22,4 44,8 67,14 23,5 46,11 68,18 23,7 44,14 64,22l7 -12 13 8 -20 32c-20,-8 -41,-15 -64,-22 -22,-7 -45,-13 -68,-18 -23,-6 -45,-10 -67,-14 -22,-3 -41,-6 -59,-7 -4,4 -8,9 -12,15 -4,7 -8,15 -11,24l0 1zm-149 34c0,11 2,22 5,32 4,14 10,27 17,38 -1,2 -2,4 -3,6 -1,1 -2,3 -3,5l-2 2c-3,-7 -6,-15 -9,-23 -4,-14 -6,-30 -6,-46 0,-5 0,-9 1,-14zm-80 -2c-2,-22 1,-46 7,-72 6,-27 18,-54 35,-81 20,-32 43,-58 68,-79 25,-20 50,-36 74,-47 25,-10 47,-16 68,-17 21,-2 37,2 49,9l39 25 1 0 340 216 1 0 30 19c12,8 21,17 27,28 7,11 9,22 8,34 9,-8 19,-12 29,-11 11,0 21,4 31,10l35 22c7,5 12,10 13,17 2,6 1,12 -4,20 -2,-3 -5,-6 -9,-9l-35 -22c-10,-6 -20,-10 -31,-10 -10,-1 -20,3 -29,11 1,-12 -1,-23 -8,-34 -6,-11 -15,-20 -27,-28l-30 -18 -1 -1 -340 -216 -1 0 -39 -25c-12,-7 -28,-11 -49,-9 -21,1 -43,7 -68,17 -24,11 -49,27 -74,47 -25,21 -48,47 -68,79 -17,27 -29,54 -35,81 -4,15 -6,30 -7,44zm495 365l-1 -3c-5,-8 -3,-19 5,-31l178 -280c7,7 7,16 0,27l-178 281c-1,2 -3,4 -4,6zm496 -113c1,-3 2,-5 2,-7 4,12 3,23 -2,35 -5,11 -14,19 -27,25 -12,6 -31,12 -55,19 -13,3 -25,7 -35,11 -10,4 -19,8 -27,13 -8,6 -14,11 -20,18 -5,6 -10,14 -14,23 -3,6 -5,13 -7,19 0,-4 -1,-9 -1,-13 0,-11 2,-22 8,-34 4,-9 9,-17 14,-23 6,-7 12,-12 20,-18 8,-5 17,-9 27,-13 10,-4 22,-8 35,-11 24,-7 43,-13 55,-19 13,-6 22,-14 27,-25zm-179 -37c-3,-13 -1,-29 7,-46 6,-14 15,-26 26,-36 12,-10 25,-17 40,-21 15,-4 31,-5 48,-4 18,2 35,7 53,15 20,9 36,20 49,33 12,13 21,28 26,43 16,-7 33,-10 51,-9 19,0 37,4 56,12 29,13 50,31 62,52 8,17 11,33 8,50 -2,-7 -5,-14 -8,-22 -12,-21 -33,-39 -62,-52 -19,-8 -37,-12 -56,-12 -18,-1 -35,2 -51,9 -5,-15 -14,-30 -26,-43 -13,-13 -29,-24 -49,-33 -18,-8 -35,-13 -53,-14 -17,-2 -33,-1 -48,3 -15,4 -28,11 -40,21 -11,10 -20,22 -26,36 -3,6 -5,12 -7,18zm378 170c0,1 1,3 1,5 2,6 3,14 3,21 0,4 -1,8 -2,11l-1 -4c-2,-7 -4,-13 -8,-19 -4,-5 -8,-10 -12,-13 4,1 9,1 15,0l4 -1zm-45 120c0,2 0,4 0,5l-3 2 -1 -6 4 -1zm-176 171l-1 -2c-1,-10 0,-21 2,-34 3,-13 9,-29 17,-48 13,-29 28,-53 46,-73 8,-9 16,-17 23,-24 8,3 15,6 23,8 -13,10 -29,24 -46,44 -18,20 -33,44 -46,73 -8,19 -14,35 -17,48 0,3 -1,5 -1,8zm-83 -269c4,5 9,10 16,13 9,4 17,6 25,6 8,1 16,1 23,0 5,8 9,17 12,27 4,9 6,19 8,30 2,10 2,20 1,31l0 1 -1 -4c-2,-11 -4,-21 -8,-30 -3,-10 -7,-19 -12,-27 -7,1 -15,1 -23,0 -8,0 -16,-2 -25,-6 -8,-4 -14,-9 -18,-16 -3,-6 -4,-13 0,-21 1,-1 1,-2 2,-4zm-218 -3c-1,-20 0,-40 3,-62 1,-12 4,-24 7,-38 3,-14 6,-25 10,-34 7,-15 15,-24 26,-27 10,-3 21,-2 32,3 5,2 9,5 13,7 3,3 6,6 8,8l-6 23 -2 -3c-4,-2 -8,-5 -13,-7 -11,-5 -22,-6 -32,-3 -11,3 -19,12 -26,27 -4,9 -7,20 -10,34 -3,14 -6,26 -7,38 -2,12 -3,23 -3,34zm77 8c1,16 3,30 7,43 12,36 34,62 67,76 15,7 29,9 43,6 13,-2 23,-11 30,-26 1,-2 2,-4 2,-6l3 0c1,4 1,9 0,15 0,7 -2,13 -5,19 -7,15 -17,24 -30,26 -14,3 -28,1 -43,-6 -33,-14 -55,-40 -67,-76 -6,-20 -8,-43 -7,-71zm927 274l1 4c1,19 5,36 12,52 6,15 13,29 23,40 9,12 19,22 29,29 0,3 0,5 0,7 -1,2 -1,4 -2,6 0,4 -2,8 -3,11 -9,-7 -17,-15 -24,-25 -10,-11 -17,-25 -23,-40 -7,-16 -11,-33 -12,-52 -1,-10 -2,-21 -1,-32zm-79 7c-1,-21 1,-44 5,-68 7,-37 18,-70 34,-98 16,-29 33,-53 51,-72 19,-19 38,-33 57,-41 19,-9 35,-12 49,-10l46 9 0 0 380 71 77 15c14,2 26,7 36,15 9,8 16,17 19,29 6,-11 14,-18 23,-22 10,-3 21,-4 33,-2l41 8c5,1 10,3 13,6 16,-12 34,-22 54,-28 22,-8 46,-11 71,-10 29,1 55,7 76,18 22,11 40,24 54,39 2,-13 8,-23 17,-31 10,-9 22,-13 39,-12l79 3c8,0 15,3 19,7 5,5 7,13 7,24 0,4 -1,8 -2,12 -1,-3 -3,-5 -5,-8 -4,-4 -11,-7 -19,-7l-79 -3c-17,0 -29,3 -39,12 -9,8 -15,19 -17,31 -14,-15 -32,-28 -54,-39 -21,-11 -47,-17 -76,-18 -25,-1 -49,2 -71,10 -20,6 -38,16 -54,28 -3,-3 -8,-5 -13,-6l-41 -7c-12,-3 -23,-2 -33,1 -9,4 -17,11 -23,22 -3,-12 -10,-21 -19,-29 -10,-8 -22,-13 -36,-15l-77 -15 -380 -71 0 0 -46 -9c-14,-2 -30,1 -49,10 -19,8 -38,22 -57,41 -18,19 -35,43 -51,72 -16,28 -27,61 -34,98 -2,14 -4,27 -5,40zm1098 233c-1,-3 -1,-6 -1,-10l9 -258 1 1 -9 267zm-207 -285c4,-1 9,-2 14,-3 10,-1 20,-2 31,-2 13,1 25,3 36,7 11,5 21,11 29,18 8,8 15,17 19,28 4,11 6,23 6,36 0,4 -1,7 -1,11 -1,-7 -3,-13 -5,-19 -4,-11 -11,-20 -19,-28 -8,-7 -18,-13 -29,-18 -11,-4 -23,-6 -36,-7 -11,0 -21,1 -31,2 -9,2 -17,4 -24,6 1,-11 5,-21 10,-31zm-14 186c-4,-7 -6,-15 -8,-24 10,-5 19,-10 28,-16 10,-6 18,-13 25,-19 7,-7 12,-13 17,-20 1,-3 3,-5 4,-8 2,5 3,9 3,15 0,7 -3,14 -7,21 -5,7 -10,13 -17,20 -7,6 -15,13 -25,19 -6,4 -13,8 -20,12zm-73 -155c0,-5 0,-11 0,-18 0,-16 3,-31 7,-46l11 2 -2 4c-8,18 -14,37 -16,58zm-169 261c-3,-6 -3,-14 -1,-23l59 -317c3,4 3,10 2,18l-60 322zm-421 -237c0,-3 0,-5 0,-8 -1,-11 0,-21 2,-32 0,-2 1,-5 2,-7 0,-3 1,-6 2,-8 8,-3 18,-6 29,-9 12,-4 24,-7 37,-11 12,-3 25,-6 37,-9l29 20c-8,2 -17,5 -29,8 -12,3 -25,6 -37,9 -13,4 -25,7 -37,11 -11,3 -21,6 -29,9 -1,2 -2,5 -2,8 -1,2 -2,5 -2,7 -1,4 -1,8 -2,12zm13 -180l-1 -1c-3,-5 -4,-10 -2,-17l14 3c-3,3 -6,7 -9,11 -1,1 -2,3 -2,4zm2448 -250l5 12c24,-10 47,-17 70,-20 22,-3 44,-3 63,1 20,3 37,11 52,21 15,11 27,26 36,45 7,16 11,31 11,45 1,7 0,13 0,18 -2,-11 -5,-22 -11,-35 -9,-19 -21,-34 -36,-45 -15,-10 -32,-18 -52,-21 -19,-4 -41,-4 -63,-1 -23,3 -46,10 -70,20l-16 -35 11 -5zm127 176l-1 -2c-4,-9 -5,-17 -5,-23l10 -5c12,-5 21,-13 25,-23l0 -1c4,10 4,20 0,29 -4,10 -13,18 -25,23l-4 2zm-84 -82l102 226c-2,4 -4,8 -8,12l-105 -234c3,-2 7,-3 11,-4zm-273 169l-1 -3c-1,-2 -2,-4 -3,-7 -1,-2 -2,-4 -3,-7 11,-18 23,-36 36,-54 13,-19 28,-37 43,-55 15,-18 31,-35 47,-51 13,-14 26,-26 39,-37l9 21c-16,13 -32,27 -48,44 -16,16 -32,33 -47,51 -15,18 -30,36 -43,55 -11,14 -20,29 -29,43zm-124 -168c-1,-4 -2,-8 -3,-12 -1,-6 -1,-10 -2,-14l516 -234c5,-2 9,-3 14,-3 -4,0 -9,1 -13,3l31 -14c13,-6 26,-9 38,-8 12,0 23,5 32,12 -1,-12 1,-22 7,-31 7,-8 15,-15 26,-19l38 -18c8,-3 15,-4 21,-2 6,3 12,9 16,18 2,5 4,10 5,15 1,5 2,10 2,15l-5 2 -2 -4c-4,-9 -10,-15 -16,-18 -6,-2 -13,-1 -21,2l-38 18c-11,4 -19,11 -26,19 -6,9 -8,19 -7,31 -9,-7 -20,-11 -32,-12 -12,-1 -25,2 -38,8l-31 14c4,-2 9,-3 13,-3 -5,0 -9,1 -14,3l-511 232zm659 -227l2 3 145 322c-2,2 -5,4 -9,7l-136 -301c-6,-12 -7,-22 -3,-29l1 -2zm410 -268l201 291c-1,5 -3,11 -8,16l-206 -298 13 -9zm-186 302l-3 -5c-2,-2 -3,-4 -4,-6 7,-20 16,-40 26,-61 11,-22 22,-42 34,-63 12,-21 25,-41 39,-60 10,-14 20,-28 31,-40l10 15c-14,16 -28,34 -41,53 -14,19 -27,39 -39,60 -12,21 -23,41 -34,63 -7,15 -14,29 -19,44zm-153 -140c-2,-3 -3,-6 -4,-9 -2,-5 -4,-9 -4,-13l356 -247 1 0 10 -8c7,4 14,9 22,14l-32 22 -1 0 -348 241zm30 -189c6,8 16,8 30,-2l122 -84c16,-11 29,-7 42,10 2,4 4,8 6,12 1,4 2,8 3,11l-9 6 0 -1c-13,-17 -26,-21 -42,-10l-122 84c-14,10 -24,10 -31,1 -2,-4 -3,-9 -2,-16 0,-3 1,-7 3,-11zm-72 19c-1,-4 -1,-9 -1,-14 0,-16 4,-33 12,-50 8,-18 20,-36 36,-54 16,-18 35,-35 58,-51 32,-22 64,-38 97,-48 33,-10 66,-15 98,-14 33,1 65,7 96,18 31,12 60,28 88,49l63 -44c7,-5 14,-7 21,-6 7,1 13,6 19,15 3,4 5,9 7,14 2,5 3,10 5,14l-9 6c-1,-2 -2,-4 -3,-6 -6,-9 -12,-14 -19,-15 -7,-1 -14,1 -21,6l-63 44c-28,-21 -57,-37 -88,-49 -31,-11 -63,-17 -96,-18 -32,-1 -65,4 -98,14 -33,10 -65,26 -97,48 -23,16 -42,33 -58,51 -16,18 -28,36 -36,54 -6,12 -9,24 -11,36zm538 -101l207 299c-2,2 -5,5 -9,9l-2 3 -209 -302 13 -9zm-254 378c15,-2 30,-3 45,-4 20,-1 39,-2 56,-3 18,0 35,0 51,0l18 0 9 11c5,7 10,13 15,18 -12,-1 -26,-1 -42,-1 -16,0 -33,0 -51,0 -17,1 -36,2 -56,3 -19,1 -39,3 -58,5 4,-9 8,-19 13,-29zm50 180c-2,-7 -3,-15 -1,-23 2,-12 9,-21 20,-29 12,-8 23,-11 35,-9 12,2 21,9 29,20 7,10 10,21 7,33 0,2 -1,4 -1,6 -2,-4 -3,-8 -6,-11 -8,-11 -17,-18 -29,-20 -12,-2 -23,1 -35,9 -9,7 -15,15 -19,24zm-802 194c32,3 63,7 93,12 27,5 50,10 70,14l7 12c4,8 8,15 11,20 -23,-5 -53,-12 -88,-18 -36,-6 -73,-11 -110,-14 5,-9 11,-17 17,-26zm-307 -76l80 344c-2,1 -4,2 -6,3l-80 -345 6 -2zm-198 226c2,6 5,12 8,17 4,6 7,11 11,16 -2,5 -5,10 -9,15l-2 -3c-4,-5 -7,-12 -8,-20 -3,-9 -2,-18 0,-25zm-84 -5c-1,-13 -1,-25 2,-36 3,-15 10,-28 19,-39 9,-12 20,-21 34,-29 14,-8 29,-14 45,-18 14,-3 27,-4 41,-4 13,0 25,2 37,5 11,3 22,6 31,11 6,3 12,7 18,10l7 33c-7,-5 -15,-10 -25,-15 -9,-5 -20,-8 -31,-11 -12,-3 -24,-5 -37,-5 -14,0 -27,1 -41,4 -16,4 -31,10 -45,18 -14,8 -25,18 -34,29 -9,11 -16,24 -19,39 -1,3 -1,5 -2,8zm-85 -110l40 342 -3 2 -39 -325c0,-8 0,-14 2,-19zm-408 33l7 53c0,7 1,17 2,27 0,10 1,20 1,30 0,10 0,19 0,28l0 2 0 -2c0,-10 -1,-20 -1,-30 -1,-10 -2,-19 -2,-27l-10 -81 3 0zm10 156c11,-14 23,-29 38,-44 15,-16 30,-30 47,-44 17,-14 34,-26 52,-37 18,-10 36,-19 54,-25 8,2 17,8 26,16 9,8 16,16 21,25 -2,6 -3,13 -5,21 -4,-6 -9,-12 -16,-18 -9,-8 -18,-14 -26,-16 -18,6 -36,15 -54,25 -18,11 -35,24 -52,37 -17,14 -32,29 -47,44 -15,15 -28,30 -39,45 0,-4 1,-11 1,-19l0 -10zm224 22l0 1c1,19 3,41 5,65 3,19 6,37 9,53 4,16 9,31 13,44 -1,3 -4,6 -6,8 -2,-8 -5,-16 -7,-24 -3,-16 -6,-34 -9,-53 -2,-24 -4,-46 -5,-65 0,-10 0,-20 0,-29zm-75 51c0,-8 0,-16 0,-24 0,-18 2,-34 4,-49 2,-13 4,-25 6,-36 4,-2 7,-4 10,-5 -3,7 -6,17 -8,28 -3,12 -6,26 -8,41 -2,14 -3,29 -4,45zm-313 -264c0,-2 -1,-4 -1,-6 0,-5 0,-10 0,-16 1,-5 2,-9 3,-13l384 -46 77 -9c15,-2 28,0 39,4 12,4 21,11 27,21 2,-12 8,-21 16,-27l1 -1 0 -3c0,-5 0,-9 1,-14l429 -98c18,-5 29,3 33,23 2,5 2,10 2,15 0,5 0,10 -1,15l0 0 -1 -2c-4,-20 -15,-28 -33,-23l-429 98c-1,5 -1,9 -1,14l0 3 -1 1c-8,6 -14,15 -16,27 -6,-10 -15,-17 -27,-21 -11,-4 -24,-6 -39,-4l-77 9 -384 46c-1,2 -1,4 -2,7zm-879 45c1,4 1,9 1,14 0,4 -1,9 -2,13 -6,-6 -15,-14 -27,-23 -11,-9 -24,-19 -37,-29 -13,-10 -26,-20 -38,-29 -13,-9 -24,-16 -32,-22l53 10 17 13c13,10 26,20 37,29 12,10 21,18 28,24zm-105 117c18,14 37,28 57,44 30,25 57,49 83,74 0,-7 1,-15 2,-24 1,-10 2,-19 3,-28 1,-9 3,-18 4,-27 1,-9 3,-16 4,-22l32 -170 5 1 -37 197c-1,6 -3,13 -4,22 -1,9 -3,18 -4,27 -1,9 -2,19 -3,28 -1,9 -2,17 -2,24 -26,-25 -53,-49 -83,-74 -30,-24 -58,-45 -83,-63 7,-2 15,-5 25,-9l1 0zm-1506 -574c6,-12 13,-24 20,-38 7,-13 14,-24 20,-34l15 -24 15 6 -30 46c-6,10 -13,21 -20,35 -7,13 -14,25 -20,37 -13,-26 -28,-53 -47,-81 -19,-29 -38,-56 -58,-82 8,1 16,3 24,4 11,16 23,33 34,50 19,28 34,55 47,81zm624 223c1,4 2,8 3,12 7,19 20,33 39,42 22,9 37,7 45,-7 1,1 2,2 2,4 3,7 3,13 0,20 -8,18 -23,21 -47,11 -19,-9 -32,-23 -39,-42 -5,-13 -6,-26 -3,-40zm46 -5l-4 -2c-1,-8 0,-17 5,-26 5,-11 10,-19 16,-23l22 10c12,5 21,7 28,5 6,-2 11,-5 14,-10l1 1c4,7 5,15 1,23 -3,7 -8,12 -16,14 -7,2 -16,0 -28,-5l-22 -10c-6,4 -11,12 -16,23l-1 0z"/>
  <g>
   <path class="fil23" d="M3753 5990c-385,-315 -627,-778 -627,-1294 0,-950 822,-1719 1837,-1719 75,0 149,4 221,12 -155,-43 -320,-66 -489,-66 -1015,0 -1837,823 -1837,1837 0,648 335,1217 841,1544l54 -314zm123 -31l-230 749 581 -539c191,83 402,129 623,129 594,0 1110,-329 1377,-815l-180 0c-251,396 -693,659 -1197,659 -575,0 -1071,-344 -1292,-837 2,-6 4,-12 6,-18 10,-28 25,-57 62,-58 19,0 37,1 56,0 60,-3 122,-6 178,-32 43,-21 56,-53 41,-98 -15,-49 -16,-96 19,-138 3,-4 6,-10 8,-15 13,-28 4,-54 -25,-66 -19,-7 -40,-9 -60,-14 -13,-3 -25,-5 -38,-8 13,-11 26,-16 40,-22 16,-7 33,-13 48,-22 29,-19 37,-47 23,-79 -5,-11 -12,-21 -17,-32 -7,-17 -1,-33 15,-41 9,-4 18,-6 26,-10 75,-31 88,-77 38,-141 -15,-21 -33,-39 -51,-57 -27,-28 -56,-54 -82,-83 -44,-49 -64,-103 -31,-168 14,-29 -22,-275 -45,-389 259,-307 648,-503 1081,-503 504,0 946,263 1197,660l180 0c-267,-486 -783,-815 -1377,-815 -867,0 -1570,703 -1570,1571 0,499 233,944 596,1232zm-344 -717c-63,-159 -97,-333 -97,-515 0,-324 109,-623 292,-861 21,114 48,300 41,318 -5,17 -14,33 -16,50 -3,20 -5,41 -1,61 12,64 54,110 99,154 32,32 64,63 93,98 24,29 19,42 -15,57 -9,3 -17,6 -26,9 -50,19 -67,76 -46,115 4,7 7,15 12,22 8,13 4,22 -9,27 -18,7 -36,13 -53,21 -18,8 -37,16 -52,28 -20,17 -20,42 2,56 22,14 47,23 72,32 17,5 36,6 53,9 0,4 0,6 0,7 -2,3 -3,5 -5,7 -41,52 -40,110 -24,169 9,32 6,39 -24,51 -8,3 -16,6 -25,7 -53,6 -106,14 -160,15 -44,1 -81,11 -104,52 -2,3 -5,7 -7,11zm1815 -940l0 400c-6,6 -13,10 -23,13 -9,3 -21,5 -35,5 -5,0 -10,-1 -14,-2 -25,-18 -48,-35 -70,-50 -22,-15 -44,-30 -66,-43 -22,-13 -45,-26 -68,-38 -23,-12 -48,-24 -75,-36 -6,-10 -11,-22 -14,-36 -4,-15 -5,-30 -5,-44 0,-4 0,-7 0,-10 0,-3 1,-6 1,-9 18,-12 39,-25 61,-37 21,-12 44,-23 68,-33 23,-11 46,-20 70,-29 23,-9 46,-16 69,-22l0 -29 -282 0c-10,0 -19,-3 -25,-9 -7,-7 -10,-17 -10,-31 0,-8 1,-15 3,-22 2,-6 5,-12 7,-16l421 0 56 0 206 0 52 0 475 0 53 0 36 0c16,0 31,3 44,9 14,6 24,15 31,28 6,-13 14,-23 25,-29 11,-5 23,-8 37,-8l39 0c11,0 20,3 26,9 6,6 10,16 10,30 0,8 -1,15 -3,22 -2,6 -4,12 -7,17l-56 0c-11,0 -21,3 -27,8 -7,6 -11,16 -11,31l0 377c-3,1 -8,2 -16,3 -8,1 -17,2 -27,2 -17,0 -32,-3 -42,-10 -11,-6 -16,-19 -16,-39l0 -346c0,-8 -2,-14 -7,-19 -4,-4 -9,-6 -15,-7l-1 0 -48 0 -1 0 -40 0 0 406c-3,1 -9,3 -17,4 -7,1 -16,2 -26,2 -18,0 -32,-3 -43,-10 -10,-6 -16,-19 -16,-39l0 -222c-4,-1 -10,-2 -16,-2 -25,0 -40,17 -46,52l-4 30c-4,3 -10,5 -18,6 -8,1 -17,2 -26,2 -8,0 -15,-1 -23,-2 -8,-1 -14,-3 -19,-6l-5 -28c-3,-18 -9,-32 -19,-41 -11,-9 -23,-13 -36,-13 -15,0 -27,5 -37,14 -10,10 -15,24 -15,42 0,16 6,30 16,39 11,9 24,14 39,14 2,0 5,0 7,0 3,0 5,0 7,-1 2,4 4,9 6,14 1,5 2,10 2,15 0,17 -6,30 -17,38 -11,9 -26,13 -46,13 -13,0 -27,-3 -41,-8 -14,-5 -27,-14 -38,-25 -12,-11 -21,-24 -28,-41 -8,-17 -11,-37 -11,-60 0,-25 4,-46 12,-64 9,-18 20,-33 33,-44 14,-12 29,-20 45,-26 16,-5 32,-8 48,-8 27,0 50,6 70,18 20,12 34,26 42,44 8,-19 20,-34 38,-45 18,-12 38,-17 60,-17 8,0 15,1 20,2l0 -53 -332 0 -52 0 -1 0 -26 0c-8,5 -17,14 -26,25 -9,11 -17,25 -24,41 -8,16 -14,34 -19,54 -5,20 -7,41 -7,64 0,25 3,47 8,67 6,19 14,37 23,51 10,15 21,28 33,38 12,11 24,19 38,26 0,2 1,5 1,8 0,2 0,5 0,7 0,16 -5,28 -14,37 -9,9 -21,14 -37,14 -17,0 -34,-6 -53,-16 -18,-10 -35,-26 -50,-45 -15,-20 -27,-45 -37,-74 -10,-28 -15,-61 -15,-97 0,-45 6,-84 19,-117 13,-33 29,-60 48,-83l-67 0 -55 0 -1 0 -38 0zm-102 123c-29,7 -57,17 -85,29 -27,13 -52,26 -73,39 14,7 28,15 43,23 14,9 29,17 43,25 14,9 27,17 40,26 13,8 25,16 36,24 -1,-7 -1,-14 -2,-23 0,-8 -1,-17 -1,-25 0,-9 0,-17 -1,-25 0,-7 0,-14 0,-21l0 -72zm217 776c-2,-5 -3,-10 -3,-17 0,-5 1,-10 2,-14 2,-5 4,-9 7,-11 8,1 16,2 26,3 10,0 19,1 28,1 31,0 55,-7 72,-19 17,-13 25,-30 25,-51 0,-17 -4,-30 -13,-39 -9,-9 -20,-13 -34,-13 -12,0 -22,4 -30,12 -9,7 -13,18 -13,32 0,4 1,8 2,12 1,3 2,7 3,9 -6,9 -14,13 -26,13 -9,0 -17,-3 -24,-10 -7,-7 -10,-17 -10,-32 0,-10 2,-19 6,-28 3,-8 9,-16 16,-22 6,-7 14,-12 24,-17 9,-4 19,-7 30,-9l-110 0c-13,0 -19,-7 -19,-21 0,-4 0,-8 1,-11 1,-4 2,-7 3,-10l198 0c2,-2 3,-5 4,-8 0,-3 1,-6 1,-10 0,-7 -3,-14 -9,-19 -6,-4 -16,-7 -31,-7 -5,0 -10,0 -14,1 -4,0 -9,0 -13,0 -4,0 -8,0 -13,1 -5,0 -11,0 -19,0 -26,0 -47,-6 -62,-18 -15,-12 -23,-27 -23,-46 0,-12 3,-21 9,-28 5,-7 13,-10 22,-10 6,0 11,1 14,2 4,2 7,4 9,5 0,3 0,5 -1,7 0,3 0,6 0,9 0,24 15,37 44,37 10,0 20,-1 29,-1 10,-1 20,-1 31,-1 25,0 44,5 57,16 13,11 20,25 20,43 0,5 -1,10 -2,15 -2,5 -4,9 -6,12l22 0 16 0 31 0c-4,-4 -7,-10 -9,-18 -3,-7 -4,-15 -4,-24 0,-14 3,-27 10,-38 6,-11 15,-21 27,-30 12,-8 26,-14 43,-19 16,-4 35,-6 55,-6 19,0 36,1 52,4 17,4 31,7 44,12 13,4 24,8 33,13 10,5 17,9 22,12 9,7 15,12 18,17 3,4 5,9 5,13 0,7 -2,12 -6,17 -4,4 -8,7 -14,9 -19,-14 -42,-26 -68,-37 -26,-10 -54,-15 -84,-15 -25,0 -46,5 -60,15 -15,10 -22,23 -22,40 0,9 1,16 4,22 2,5 6,10 9,13l35 0 16 0 384 0 19 0 286 0 30 0 25 0c10,0 19,2 27,6 8,4 13,10 17,18 3,-9 7,-15 14,-18 6,-4 13,-6 22,-6l29 0c6,0 11,2 14,5 4,4 6,9 6,17 0,3 -1,7 -2,10 -1,4 -2,7 -3,10l-39 0c-7,0 -13,2 -17,6 -5,3 -7,9 -7,19l0 250c-2,0 -5,1 -9,2 -4,0 -8,0 -13,0 -9,0 -17,-1 -22,-4 -6,-4 -9,-11 -9,-21l0 -235c0,-11 -5,-17 -16,-17l-3 0 -29 0 -1 0 -33 0 0 267c-2,2 -6,4 -11,6 -6,2 -12,3 -19,3 -2,0 -5,0 -7,-1 -17,-11 -34,-22 -49,-31 -16,-9 -32,-18 -47,-27 -16,-8 -32,-16 -48,-24 -16,-7 -32,-15 -50,-22 -3,-5 -5,-11 -7,-18 -2,-7 -2,-15 -2,-22 0,-2 0,-4 0,-6 0,-2 0,-4 0,-5 5,-3 11,-7 19,-11 8,-4 16,-8 24,-12 8,-4 17,-7 24,-11 8,-4 15,-7 20,-9l-88 -39c-5,-2 -9,-5 -11,-7 -3,-3 -4,-6 -4,-11 0,-4 1,-7 2,-11 1,-3 3,-6 4,-9l-3 0 -18 0 -1 0 -140 0 0 86c9,-5 19,-12 30,-19 12,-7 23,-15 34,-22 6,4 12,9 18,15 6,6 12,13 17,22 5,8 9,17 13,27 3,10 5,22 5,34 0,20 -4,38 -12,53 -8,15 -19,28 -33,38 -14,10 -30,18 -49,23 -19,5 -38,8 -59,8 -24,0 -47,-3 -68,-10 -22,-6 -42,-16 -59,-28 -18,-13 -34,-29 -47,-47 -13,-19 -23,-41 -30,-65 -1,-5 -2,-10 -3,-16 -1,-6 -1,-11 -1,-16 0,-12 3,-21 8,-28 5,-7 13,-11 24,-11 5,0 9,1 12,2 3,1 6,3 8,4l2 18c3,26 9,49 18,68 9,19 21,35 35,47 14,13 30,22 47,28 18,6 36,9 55,9 13,0 25,-2 37,-5 12,-4 22,-9 31,-15 9,-7 16,-15 21,-25 5,-9 8,-20 8,-32 0,-9 -1,-17 -3,-24 -3,-7 -5,-13 -9,-17 -12,8 -23,15 -34,21 -11,6 -22,12 -34,17 -7,-1 -13,-5 -19,-10 -6,-5 -11,-10 -14,-15l0 -26c-2,-4 -6,-8 -10,-10 -5,-3 -10,-4 -16,-4 -8,0 -14,2 -19,7 -4,5 -6,11 -6,17 0,4 0,7 1,10 0,3 1,6 2,9 -1,3 -3,7 -7,9 -4,3 -9,5 -15,5 -9,0 -16,-4 -23,-10 -6,-7 -9,-17 -9,-30 0,-9 1,-18 5,-26 3,-7 8,-14 14,-19 6,-5 13,-9 22,-11 8,-3 17,-4 26,-4 8,0 15,1 20,3 6,2 11,4 15,7l0 -42 -193 0 -15 0 0 0 -48 0 0 274c-2,0 -5,1 -9,2 -4,0 -8,1 -13,1 -9,0 -17,-2 -22,-5 -6,-4 -9,-10 -9,-21l0 -251 -21 0 -15 0 -1 0 -116 0c12,2 23,5 33,10 10,5 19,11 27,19 7,8 13,17 17,28 5,11 7,23 7,36 0,17 -3,31 -10,44 -6,12 -15,23 -26,32 -11,8 -24,15 -38,19 -15,5 -30,7 -46,8 24,9 46,18 67,27 20,8 36,15 48,20 8,4 13,8 18,12 4,5 6,10 6,17 0,7 -2,13 -6,18 -4,5 -9,9 -15,12 -21,-11 -40,-21 -56,-30 -17,-9 -33,-17 -49,-24 -16,-8 -32,-16 -49,-23 -16,-8 -35,-16 -56,-25zm824 68c0,-9 3,-17 9,-23 6,-6 14,-9 24,-9 9,0 17,3 23,9 6,6 9,14 9,23 0,9 -3,17 -9,23 -6,6 -14,9 -23,9 -10,0 -18,-3 -24,-9 -6,-6 -9,-14 -9,-23zm126 -213c1,3 1,6 2,9 0,4 0,7 0,11 0,5 0,9 -1,13 0,4 -1,7 -2,10 -6,3 -12,7 -19,11 -7,3 -14,7 -22,11 -7,4 -14,7 -20,11 -7,4 -13,7 -17,9 20,10 42,21 66,34 24,12 46,26 67,40 -1,-5 -1,-11 -2,-17 0,-7 0,-13 -1,-20 0,-7 0,-13 -1,-19 0,-7 0,-12 0,-16l0 -142 -159 0c7,3 16,7 26,12 10,4 20,9 30,15 10,5 20,10 30,15 9,5 17,10 23,13zm-2204 -203c-2,-77 -30,-147 -86,-207 -22,-24 -18,-51 10,-58 11,-3 29,3 37,11 76,79 111,174 105,284 -6,89 -39,166 -100,232 -16,17 -33,28 -54,11 -17,-14 -15,-34 5,-57 54,-60 82,-130 83,-216zm286 54c0,83 -44,197 -131,294 -4,5 -8,9 -12,13 -16,17 -35,22 -52,4 -17,-17 -12,-34 4,-50 45,-47 80,-100 100,-162 53,-165 23,-314 -91,-445 -5,-6 -11,-11 -15,-17 -12,-15 -13,-32 2,-44 13,-12 31,-16 46,-1 15,15 30,30 42,47 71,92 108,196 107,361zm221 -47c-3,167 -58,312 -171,436 -5,6 -11,12 -18,18 -15,13 -31,14 -46,0 -14,-14 -14,-31 -1,-46 13,-17 29,-31 42,-48 135,-176 163,-370 85,-578 -26,-69 -68,-129 -118,-184 -10,-10 -17,-27 -16,-40 4,-27 36,-32 59,-10 56,56 99,121 130,193 36,83 54,169 54,259zm248 1555c-244,0 -477,-44 -690,-125l-248 181c207,82 433,126 670,126 417,0 801,-139 1109,-372 -252,121 -538,190 -841,190z"/>
   <path class="fil24" d="M3753 5962c-385,-315 -627,-778 -627,-1294 0,-950 822,-1719 1837,-1719 75,0 149,4 221,12 -155,-43 -320,-66 -489,-66 -1015,0 -1837,823 -1837,1837 0,648 335,1217 841,1544l54 -314zm123 -31l-230 749 581 -539c191,83 402,129 623,129 594,0 1110,-329 1377,-815l-180 0c-251,396 -693,659 -1197,659 -575,0 -1071,-344 -1292,-837 2,-6 4,-12 6,-18 10,-28 25,-57 62,-58 19,0 37,1 56,0 60,-3 122,-6 178,-33 43,-20 56,-52 41,-97 -15,-49 -16,-96 19,-138 3,-4 6,-10 8,-15 13,-28 4,-54 -25,-66 -19,-7 -40,-9 -60,-14 -13,-3 -25,-5 -38,-8 13,-11 26,-16 40,-22 16,-7 33,-13 48,-22 29,-19 37,-47 23,-79 -5,-11 -12,-21 -17,-32 -7,-17 -1,-33 15,-41 9,-4 18,-6 26,-10 75,-31 88,-77 38,-141 -15,-21 -33,-39 -51,-57 -27,-28 -56,-54 -82,-83 -44,-49 -64,-103 -31,-168 14,-29 -22,-275 -45,-389 259,-307 648,-503 1081,-503 504,0 946,263 1197,660l180 0c-267,-486 -783,-815 -1377,-815 -867,0 -1570,703 -1570,1571 0,499 233,944 596,1232zm-344 -717c-63,-159 -97,-333 -97,-515 0,-324 109,-623 292,-861 21,114 48,300 41,318 -5,17 -14,33 -16,50 -3,20 -5,41 -1,61 12,64 54,110 99,154 32,31 64,63 93,98 24,29 19,42 -15,57 -9,3 -17,6 -26,9 -50,19 -67,76 -46,115 4,7 7,15 12,22 8,13 4,22 -9,27 -18,7 -36,12 -53,21 -18,8 -37,16 -52,28 -20,17 -20,42 2,56 22,14 47,23 72,32 17,5 36,6 53,9 0,4 0,6 0,7 -2,3 -3,5 -5,7 -41,52 -40,110 -24,169 9,31 6,39 -24,51 -8,3 -16,6 -25,7 -53,6 -106,14 -160,15 -44,1 -81,11 -104,52 -2,3 -5,7 -7,11zm1815 -940l0 400c-6,6 -13,10 -23,13 -9,3 -21,5 -35,5 -5,0 -10,-1 -14,-2 -25,-18 -48,-35 -70,-50 -22,-15 -44,-30 -66,-43 -22,-13 -45,-26 -68,-38 -23,-12 -48,-24 -75,-36 -6,-10 -11,-22 -14,-36 -4,-15 -5,-30 -5,-44 0,-4 0,-7 0,-10 0,-3 1,-6 1,-9 18,-12 39,-25 61,-37 21,-12 44,-23 68,-34 23,-10 46,-19 70,-28 23,-9 46,-16 69,-22l0 -29 -282 0c-10,0 -19,-3 -25,-9 -7,-7 -10,-17 -10,-31 0,-8 1,-15 3,-22 2,-6 5,-12 7,-16l421 0 56 0 206 0 52 0 475 0 53 0 36 0c16,0 31,3 44,9 14,6 24,15 31,28 6,-13 14,-23 25,-29 11,-5 23,-8 37,-8l39 0c11,0 20,3 26,9 6,6 10,16 10,30 0,8 -1,15 -3,22 -2,6 -4,12 -7,17l-56 0c-11,0 -21,3 -27,8 -7,6 -11,16 -11,31l0 377c-3,1 -8,2 -16,3 -8,1 -17,2 -27,2 -17,0 -32,-3 -42,-10 -11,-6 -16,-19 -16,-39l0 -346c0,-8 -2,-14 -7,-19 -4,-4 -9,-7 -15,-7l-1 0 -48 0 -1 0 -40 0 0 406c-3,1 -9,3 -17,4 -7,1 -16,2 -26,2 -18,0 -32,-3 -43,-10 -10,-6 -16,-19 -16,-39l0 -222c-4,-1 -10,-2 -16,-2 -25,0 -40,17 -46,52l-4 30c-4,3 -10,5 -18,6 -8,1 -17,2 -26,2 -8,0 -15,-1 -23,-2 -8,-1 -14,-3 -19,-6l-5 -28c-3,-18 -9,-32 -19,-41 -11,-9 -23,-13 -36,-13 -15,0 -27,5 -37,14 -10,10 -15,24 -15,42 0,16 6,30 16,39 11,9 24,14 39,14 2,0 5,0 7,0 3,0 5,0 7,-1 2,4 4,9 6,14 1,5 2,10 2,15 0,17 -6,30 -17,38 -11,9 -26,13 -46,13 -13,0 -27,-3 -41,-8 -14,-5 -27,-14 -38,-25 -12,-11 -21,-24 -28,-41 -8,-17 -11,-37 -11,-60 0,-25 4,-46 12,-64 9,-18 20,-33 33,-44 14,-12 29,-20 45,-26 16,-5 32,-8 48,-8 27,0 50,6 70,18 20,12 34,26 42,44 8,-19 20,-34 38,-45 18,-12 38,-17 60,-17 8,0 15,1 20,2l0 -53 -332 0 -52 0 -1 0 -26 0c-8,5 -17,14 -26,25 -9,11 -17,25 -24,41 -8,16 -14,34 -19,54 -5,20 -7,41 -7,64 0,25 3,47 8,67 6,19 14,37 23,51 10,15 21,28 33,38 12,11 24,19 38,26 0,2 1,5 1,8 0,2 0,5 0,7 0,16 -5,28 -14,37 -9,9 -21,14 -37,14 -17,0 -34,-6 -53,-16 -18,-10 -35,-26 -50,-46 -15,-19 -27,-44 -37,-73 -10,-28 -15,-61 -15,-97 0,-45 6,-84 19,-117 13,-33 29,-60 48,-83l-67 0 -55 0 -1 0 -38 0zm-102 123c-29,7 -57,17 -85,29 -27,13 -52,26 -73,39 14,7 28,15 43,23 14,9 29,17 43,25 14,9 27,17 40,26 13,8 25,16 36,24 -1,-7 -1,-14 -2,-23 0,-8 -1,-17 -1,-25 0,-9 0,-17 -1,-25 0,-7 0,-14 0,-21l0 -72zm217 776c-2,-5 -3,-10 -3,-17 0,-5 1,-10 2,-14 2,-5 4,-9 7,-11 8,1 16,2 26,3 10,0 19,1 28,1 31,0 55,-7 72,-19 17,-13 25,-30 25,-51 0,-17 -4,-30 -13,-39 -9,-9 -20,-13 -34,-13 -12,0 -22,4 -30,12 -9,7 -13,18 -13,31 0,5 1,9 2,13 1,3 2,7 3,9 -6,9 -14,13 -26,13 -9,0 -17,-3 -24,-10 -7,-7 -10,-17 -10,-32 0,-10 2,-19 6,-28 3,-8 9,-16 16,-22 6,-7 14,-12 24,-17 9,-4 19,-7 30,-9l-110 0c-13,0 -19,-7 -19,-21 0,-4 0,-8 1,-11 1,-4 2,-7 3,-10l198 0c2,-2 3,-5 4,-8 0,-3 1,-6 1,-10 0,-7 -3,-14 -9,-19 -6,-4 -16,-7 -31,-7 -5,0 -10,0 -14,0 -4,1 -9,1 -13,1 -4,0 -8,0 -13,0 -5,1 -11,1 -19,1 -26,0 -47,-6 -62,-18 -15,-12 -23,-27 -23,-46 0,-12 3,-21 9,-28 5,-7 13,-10 22,-10 6,0 11,1 14,2 4,2 7,4 9,5 0,3 0,5 -1,7 0,3 0,6 0,9 0,24 15,37 44,37 10,0 20,-1 29,-1 10,-1 20,-1 31,-1 25,0 44,5 57,16 13,11 20,25 20,43 0,5 -1,10 -2,15 -2,5 -4,9 -6,12l22 0 16 0 31 0c-4,-4 -7,-10 -9,-18 -3,-7 -4,-15 -4,-24 0,-14 3,-27 10,-38 6,-11 15,-21 27,-30 12,-8 26,-14 43,-19 16,-4 35,-6 55,-6 19,0 36,1 52,4 17,4 31,7 44,12 13,4 24,8 33,13 10,5 17,9 22,12 9,7 15,12 18,17 3,4 5,9 5,13 0,7 -2,12 -6,17 -4,4 -8,7 -14,9 -19,-14 -42,-26 -68,-37 -26,-10 -54,-15 -84,-15 -25,0 -46,5 -60,15 -15,10 -22,23 -22,40 0,9 1,16 4,22 2,5 6,10 9,13l35 0 16 0 384 0 19 0 286 0 30 0 25 0c10,0 19,2 27,6 8,4 13,10 17,18 3,-9 7,-15 14,-18 6,-4 13,-6 22,-6l29 0c6,0 11,2 14,5 4,4 6,9 6,17 0,3 -1,7 -2,10 -1,4 -2,7 -3,10l-39 0c-7,0 -13,2 -17,6 -5,3 -7,9 -7,19l0 250c-2,0 -5,1 -9,1 -4,1 -8,1 -13,1 -9,0 -17,-1 -22,-4 -6,-4 -9,-11 -9,-21l0 -235c0,-11 -5,-17 -16,-17l-3 0 -29 0 -1 0 -33 0 0 267c-2,2 -6,4 -11,6 -6,2 -12,3 -19,3 -2,0 -5,0 -7,-1 -17,-11 -34,-22 -49,-31 -16,-9 -32,-18 -47,-27 -16,-8 -32,-16 -48,-24 -16,-7 -32,-15 -50,-22 -3,-5 -5,-11 -7,-18 -2,-7 -2,-15 -2,-22 0,-2 0,-4 0,-6 0,-2 0,-4 0,-5 5,-3 11,-7 19,-11 8,-4 16,-8 24,-12 8,-4 17,-7 24,-11 8,-4 15,-7 20,-9l-88 -39c-5,-2 -9,-5 -11,-7 -3,-3 -4,-6 -4,-11 0,-4 1,-7 2,-11 1,-3 3,-6 4,-9l-3 0 -18 0 -1 0 -140 0 0 85c9,-4 19,-11 30,-18 12,-8 23,-15 34,-22 6,4 12,9 18,15 6,6 12,13 17,22 5,8 9,17 13,27 3,10 5,22 5,34 0,20 -4,38 -12,53 -8,15 -19,28 -33,38 -14,10 -30,18 -49,23 -19,5 -38,8 -59,8 -24,0 -47,-3 -68,-10 -22,-6 -42,-16 -59,-28 -18,-13 -34,-29 -47,-47 -13,-19 -23,-41 -30,-65 -1,-5 -2,-10 -3,-16 -1,-6 -1,-11 -1,-16 0,-12 3,-21 8,-28 5,-7 13,-11 24,-11 5,0 9,1 12,2 3,1 6,3 8,4l2 18c3,26 9,49 18,68 9,19 21,35 35,47 14,13 30,22 47,28 18,6 36,9 55,9 13,0 25,-2 37,-5 12,-4 22,-9 31,-15 9,-7 16,-15 21,-25 5,-9 8,-20 8,-32 0,-9 -1,-17 -3,-24 -3,-7 -5,-13 -9,-17 -12,8 -23,15 -34,21 -11,6 -22,12 -34,17 -7,-1 -13,-5 -19,-10 -6,-5 -11,-10 -14,-15l0 -26c-2,-4 -6,-8 -10,-10 -5,-3 -10,-4 -16,-4 -8,0 -14,2 -19,7 -4,5 -6,11 -6,17 0,4 0,7 1,10 0,3 1,6 2,9 -1,3 -3,6 -7,9 -4,3 -9,4 -15,4 -9,0 -16,-3 -23,-9 -6,-7 -9,-17 -9,-30 0,-9 1,-18 5,-26 3,-7 8,-14 14,-19 6,-5 13,-9 22,-12 8,-2 17,-3 26,-3 8,0 15,1 20,2 6,2 11,5 15,8l0 -42 -193 0 -15 0 0 0 -48 0 0 274c-2,0 -5,1 -9,1 -4,1 -8,1 -13,1 -9,0 -17,-1 -22,-4 -6,-4 -9,-11 -9,-21l0 -251 -21 0 -15 0 -1 0 -116 0c12,2 23,5 33,10 10,5 19,11 27,19 7,8 13,17 17,28 5,11 7,23 7,36 0,17 -3,31 -10,44 -6,12 -15,23 -26,32 -11,8 -24,15 -38,19 -15,5 -30,7 -46,8 24,9 46,18 67,27 20,8 36,15 48,20 8,4 13,8 18,12 4,4 6,10 6,17 0,7 -2,13 -6,18 -4,5 -9,9 -15,12 -21,-11 -40,-21 -56,-30 -17,-9 -33,-17 -49,-24 -16,-8 -32,-16 -49,-23 -16,-8 -35,-16 -56,-25zm824 68c0,-9 3,-17 9,-23 6,-6 14,-9 24,-9 9,0 17,3 23,9 6,6 9,14 9,23 0,9 -3,16 -9,23 -6,6 -14,9 -23,9 -10,0 -18,-3 -24,-9 -6,-7 -9,-14 -9,-23zm126 -213c1,3 1,6 2,9 0,4 0,7 0,11 0,5 0,9 -1,13 0,4 -1,7 -2,10 -6,3 -12,7 -19,10 -7,4 -14,8 -22,12 -7,4 -14,7 -20,11 -7,4 -13,7 -17,9 20,10 42,21 66,34 24,12 46,26 67,40 -1,-5 -1,-11 -2,-17 0,-7 0,-13 -1,-20 0,-7 0,-13 -1,-19 0,-7 0,-12 0,-16l0 -142 -159 0c7,3 16,7 26,12 10,4 20,9 30,15 10,5 20,10 30,15 9,5 17,10 23,13zm-2204 -203c-2,-77 -30,-147 -86,-207 -22,-24 -18,-51 10,-58 11,-3 29,3 37,11 76,79 111,174 105,284 -6,89 -39,166 -100,232 -16,17 -33,28 -54,11 -17,-14 -15,-34 5,-57 54,-60 82,-130 83,-216zm286 54c0,83 -44,197 -131,294 -4,5 -8,9 -12,13 -16,17 -35,22 -52,4 -17,-17 -12,-34 4,-50 45,-47 80,-100 100,-162 53,-165 23,-314 -91,-445 -5,-6 -11,-11 -15,-17 -12,-15 -13,-32 2,-44 13,-12 31,-16 46,-1 15,15 30,30 42,47 71,92 108,196 107,361zm221 -47c-3,167 -58,312 -171,436 -5,6 -11,12 -18,18 -15,13 -31,14 -46,0 -14,-14 -14,-31 -1,-46 13,-17 29,-31 42,-48 135,-176 163,-370 85,-578 -26,-69 -68,-129 -118,-184 -10,-10 -17,-27 -16,-40 4,-27 36,-32 59,-10 56,56 99,121 130,193 36,83 54,169 54,259zm248 1555c-244,0 -477,-44 -690,-125l-248 181c207,82 433,126 670,126 417,0 801,-139 1109,-372 -252,121 -538,190 -841,190z"/>
   <path class="fil22" d="M3753 5962c-380,-312 -622,-768 -627,-1276l0 10c0,514 241,975 623,1290l4 -24zm1251 -3013c61,1 121,5 180,12 -155,-43 -320,-66 -489,-66 -1015,0 -1837,823 -1837,1837l0 18c6,-1010 826,-1827 1837,-1827 105,0 208,9 309,26zm-1135 3004l-223 727 12 -11 218 -710 -7 -6zm2342 -470c6,-9 11,-18 16,-28l-180 0c-251,396 -693,659 -1197,659 -571,0 -1063,-338 -1287,-825 -1,5 -3,10 -5,16 221,493 717,837 1292,837 504,0 946,-263 1197,-659l164 0zm-2305 -366c3,-13 1,-29 -5,-46 -4,-15 -8,-30 -9,-44 -2,23 2,47 9,72 2,6 4,12 5,18zm26 -209c6,-24 -3,-46 -29,-56 -19,-7 -40,-9 -60,-14l-2 0c-12,5 -24,10 -36,20 13,3 25,5 38,8 20,5 41,7 60,14 15,6 25,16 29,28zm-11 -158c3,-13 2,-27 -5,-43 -5,-11 -12,-21 -16,-31 -5,7 -5,17 -1,27 5,11 12,21 17,32 2,5 4,10 5,15zm85 -186c6,-23 -3,-50 -28,-81 -15,-21 -33,-39 -51,-57 -27,-28 -56,-54 -82,-83 -25,-28 -43,-58 -47,-91 -5,44 15,83 47,119 26,29 55,55 82,83 18,18 36,36 51,57 15,19 25,37 28,53zm-190 -404c4,-58 -22,-244 -43,-351l-4 5c18,90 44,263 47,346zm2395 -217l16 0c-267,-486 -783,-815 -1377,-815 -867,0 -1570,703 -1570,1571l0 18c5,-863 706,-1561 1570,-1561 582,0 1090,317 1361,787zm-2679 1271c-61,-155 -95,-325 -97,-502l0 15c0,182 34,356 97,515 2,-4 5,-8 7,-11 23,-41 60,-51 104,-52 54,-1 107,-9 160,-15 9,-1 17,-4 25,-7 28,-11 32,-18 26,-45 -4,7 -12,11 -26,17 -8,3 -16,6 -25,7 -53,6 -106,14 -160,15 -44,1 -81,11 -104,52 -2,3 -5,7 -7,11zm237 -1058l-1 0c-5,17 -14,33 -16,50 -3,16 -4,34 -3,50 1,-8 2,-15 3,-22 2,-17 11,-33 16,-50 2,-3 2,-14 1,-28zm184 404c-5,6 -13,10 -25,16 -9,3 -17,6 -26,9 -41,16 -60,57 -53,93 4,-27 23,-53 53,-65 9,-3 17,-6 26,-9 29,-13 37,-24 25,-44zm-88 186c-2,1 -4,2 -6,3 -18,7 -36,12 -53,21 -18,8 -37,16 -52,28 -14,12 -18,29 -11,42 2,-5 6,-9 11,-14 15,-12 34,-20 52,-28 17,-8 35,-14 53,-21 13,-5 17,-14 9,-27 -1,-1 -2,-3 -3,-4zm3 175c-22,32 -28,66 -25,102 2,-30 12,-59 33,-86 2,-2 3,-4 5,-7 0,-1 0,-3 0,-7 -4,-1 -9,-1 -13,-2zm1109 -463c0,-5 0,-10 0,-15 0,-4 0,-7 0,-10 0,-3 1,-6 1,-9 18,-12 39,-25 61,-37 21,-12 44,-23 68,-34 23,-10 46,-19 70,-28 23,-9 46,-16 69,-22l0 28c-23,6 -46,13 -69,22 -24,9 -47,18 -70,29 -24,10 -47,21 -68,33 -22,12 -43,25 -61,37 0,2 -1,4 -1,6zm-47 -210c0,-4 -1,-9 -1,-14 0,-8 1,-15 3,-22 2,-6 5,-12 7,-16l421 0 56 0 206 0 52 0 475 0 53 0 36 0c16,0 31,3 44,9 14,6 24,15 31,28 6,-13 14,-23 25,-29 11,-5 23,-8 37,-8l39 0c11,0 20,3 26,9 6,6 10,16 10,30 0,5 -1,10 -2,15 -1,-8 -4,-13 -8,-17 -6,-6 -15,-9 -26,-9l-39 0c-14,0 -26,3 -37,8 -11,6 -19,16 -25,29 -7,-13 -17,-22 -31,-28 -13,-6 -28,-9 -44,-9l-36 0 -53 0 -475 0 -52 0 -206 0 -56 0 -421 0c-2,4 -5,10 -7,16 -1,3 -1,5 -2,8zm839 234c2,11 7,19 14,26 11,9 24,14 39,14 2,0 5,0 7,0 3,0 5,0 7,-1 2,4 4,9 6,14 1,5 2,10 2,15 0,6 -1,11 -2,15l0 -2c-2,-5 -4,-10 -6,-14 -2,1 -4,1 -7,1 -2,0 -5,0 -7,0 -15,0 -28,-5 -39,-14 -10,-9 -16,-23 -16,-39 0,-6 1,-10 2,-15zm-106 -1c0,-5 0,-9 0,-14 0,-25 4,-46 12,-64 9,-18 20,-33 33,-44 14,-12 29,-20 45,-26 16,-5 32,-8 48,-8 27,0 50,6 70,18 20,12 34,26 42,44 8,-19 20,-34 38,-45 18,-12 38,-17 60,-17 8,0 15,1 20,2l0 28c-5,-1 -12,-2 -20,-2 -22,0 -42,5 -60,17 -18,11 -30,26 -38,45 -8,-18 -22,-32 -42,-44 -20,-12 -43,-18 -70,-18 -16,0 -32,3 -48,8 -16,6 -31,14 -45,26 -13,11 -24,26 -33,44 -7,14 -11,31 -12,50zm-119 -9c1,19 4,37 8,53 6,19 14,37 23,51 10,15 21,28 33,38 12,11 24,19 38,26 0,2 1,5 1,8 0,2 0,5 0,7 0,5 -1,9 -2,13 -13,-7 -25,-15 -37,-26 -12,-10 -23,-23 -33,-38 -9,-14 -17,-32 -23,-51 -5,-20 -8,-42 -8,-67 0,-5 0,-9 0,-14zm-103 15c0,-4 0,-8 0,-13 0,-45 6,-84 19,-117 8,-20 17,-38 28,-55l20 0c-19,23 -35,50 -48,83 -11,30 -18,64 -19,102zm-329 -9c6,3 12,7 18,10 14,9 29,17 43,25 14,9 27,17 40,26 13,8 24,15 34,22l0 7c1,9 1,16 2,23 -11,-8 -23,-16 -36,-24 -13,-9 -26,-17 -40,-26 -14,-8 -29,-16 -43,-25 -15,-8 -29,-16 -43,-23 8,-5 16,-10 25,-15zm349 692c-2,-4 -2,-8 -2,-14 0,-5 1,-10 2,-14 2,-5 4,-9 7,-11 8,1 16,2 26,3 10,0 19,1 28,1 31,0 55,-7 72,-19 13,-10 21,-23 24,-38 1,5 1,10 1,15 0,21 -8,38 -25,51 -17,12 -41,19 -72,19 -9,0 -18,-1 -28,-1 -10,-1 -18,-2 -26,-3 -3,2 -5,6 -7,11l0 0zm70 -100c1,3 2,6 3,8 -1,2 -3,4 -5,6 0,-5 1,-10 2,-14zm-56 -7c-1,-4 -1,-9 -1,-14 0,-10 2,-19 6,-28 3,-7 7,-14 13,-20l57 0c-11,2 -21,5 -30,9 -10,5 -18,10 -24,17 -7,6 -13,14 -16,22 -2,5 -4,9 -5,14zm-52 -99c-2,-3 -2,-7 -2,-12 0,-4 0,-8 1,-11 1,-4 2,-7 3,-10l198 0 1 -2c3,3 4,8 4,12 0,4 -1,7 -1,10 -1,3 -2,6 -4,8l-198 0c-1,2 -1,3 -2,5zm23 -125c-1,-4 -2,-9 -2,-14 0,-12 3,-21 9,-28 5,-7 13,-10 22,-10 6,0 11,1 14,2 4,2 7,4 9,5 0,3 0,5 -1,7 0,3 0,6 0,9 0,24 15,37 44,37 10,0 20,-1 29,-1 10,-1 20,-1 31,-1 25,0 44,5 57,16 13,11 20,25 20,43 0,4 -1,9 -2,13 -3,-11 -9,-20 -18,-28 -13,-11 -32,-16 -57,-16 -11,0 -21,0 -31,1 -9,0 -19,1 -29,1 -29,0 -44,-13 -44,-37 0,-3 0,-6 0,-9 1,-2 1,-4 1,-7 -2,-1 -5,-3 -9,-5 -3,-1 -8,-2 -14,-2 -9,0 -17,3 -22,10 -4,4 -6,9 -7,14zm232 92l14 0 16 0 19 0c1,4 1,7 3,10 2,8 5,14 9,18l-31 0 -16 0 -22 0c2,-3 4,-7 6,-12 1,-5 2,-10 2,-15l0 -1zm49 -28c-1,-4 -1,-9 -1,-14 0,-14 3,-27 10,-38 6,-11 15,-21 27,-30 12,-8 26,-14 43,-19 16,-4 35,-6 55,-6 19,0 36,1 52,4 17,4 31,7 44,12 13,4 24,8 33,13 10,5 17,9 22,12 9,7 15,12 18,17 3,4 5,9 5,13 0,6 -2,11 -5,15l0 0c-3,-5 -9,-10 -18,-17 -5,-3 -12,-7 -22,-12 -9,-5 -20,-9 -33,-13 -13,-5 -27,-8 -44,-12 -16,-3 -33,-4 -52,-4 -20,0 -39,2 -55,6 -17,5 -31,11 -43,19 -12,9 -21,19 -27,30 -5,7 -8,16 -9,24zm55 8c1,2 2,5 3,7 2,5 6,10 9,13l35 0 16 0 384 0 19 0 286 0 30 0 25 0c10,0 19,2 27,6 8,4 13,10 17,18 3,-9 7,-15 14,-18 6,-4 13,-6 22,-6l29 0c6,0 11,2 14,5 4,4 6,9 6,17 0,3 -1,7 -2,10 0,2 0,4 -1,5 -1,-1 -2,-3 -3,-4 -3,-3 -8,-5 -14,-5l-29 0c-9,0 -16,2 -22,6 -7,3 -11,9 -14,18 -4,-8 -9,-14 -17,-18 -8,-4 -17,-6 -27,-6l-25 0 -30 0 -286 0 -19 0 -384 0 -16 0 -35 0c-3,-3 -7,-8 -9,-13 -3,-6 -4,-13 -4,-22 0,-4 0,-9 1,-13zm494 209c-1,-5 -1,-11 -1,-16 0,-2 0,-4 0,-6 0,-2 0,-4 0,-5 5,-3 11,-7 19,-11 8,-4 16,-8 24,-12l13 -6 31 14c-5,2 -12,5 -20,9 -7,4 -16,7 -24,11 -8,4 -16,8 -24,12 -7,4 -13,7 -18,10zm-13 -115l0 -1c-1,-1 -2,-2 -2,-3l1 0 3 0 -2 4zm-160 53c9,-4 19,-11 30,-18 12,-8 23,-15 34,-22 6,4 12,9 18,15 6,6 12,13 17,22 5,8 9,17 13,27 3,10 5,22 5,34 0,5 -1,10 -1,15 -1,-8 -2,-14 -4,-21 -4,-10 -8,-19 -13,-27 -5,-9 -11,-16 -17,-22 -6,-6 -12,-11 -18,-15 -11,7 -22,15 -34,22 -11,7 -21,14 -30,19l0 -29zm-243 13c-1,-5 -1,-10 -1,-15 0,-12 3,-21 8,-28 5,-7 13,-11 24,-11 5,0 9,1 12,2 3,1 6,3 8,4l2 18c3,26 9,49 18,68 9,19 21,35 35,47 14,13 30,22 47,28 18,6 36,9 55,9 13,0 25,-2 37,-5 12,-4 22,-9 31,-15 9,-7 16,-15 21,-25 3,-6 6,-12 7,-19 0,5 1,10 1,15 0,12 -3,23 -8,32 -5,10 -12,18 -21,25 -9,6 -19,11 -31,15 -12,3 -24,5 -37,5 -19,0 -37,-3 -55,-9 -17,-6 -33,-15 -47,-28 -14,-12 -26,-28 -35,-47 -9,-19 -15,-42 -18,-68l-2 -18c-2,-1 -5,-3 -8,-4 -3,-1 -7,-2 -12,-2 -11,0 -19,4 -24,11 -3,4 -6,9 -7,15zm143 17l1 3c0,2 -2,4 -3,6 0,-3 1,-6 2,-9zm-52 -9c-1,-4 -1,-9 -1,-14 0,-9 1,-18 5,-26 3,-7 8,-14 14,-19 6,-5 13,-9 22,-12 8,-2 17,-3 26,-3 8,0 15,1 20,2 6,2 11,5 15,8l0 28c-4,-3 -9,-5 -15,-7 -5,-2 -12,-3 -20,-3 -9,0 -18,1 -26,4 -9,2 -16,6 -22,11 -6,5 -11,12 -14,19 -2,4 -3,8 -4,12zm-302 -78l1 1c7,8 13,17 17,28 5,11 7,23 7,36 0,5 0,10 -1,14 -1,-8 -3,-15 -6,-22 -4,-11 -10,-20 -17,-28 -8,-8 -17,-14 -27,-19 -10,-5 -21,-8 -33,-10l59 0zm-46 187l18 8c20,8 36,15 48,20 8,4 13,8 18,12 4,4 6,10 6,17 0,5 -1,10 -4,14 -1,-1 -1,-2 -2,-3 -5,-4 -10,-8 -18,-12 -12,-5 -28,-12 -48,-20 -21,-9 -43,-18 -67,-27 16,-1 31,-3 46,-8l3 -1zm683 53c0,-9 3,-17 9,-23 6,-6 14,-9 24,-9 9,0 17,3 23,9 6,6 9,14 9,23 0,5 -1,10 -3,14 -1,-3 -3,-6 -6,-9 -6,-6 -14,-9 -23,-9 -10,0 -18,3 -24,9 -3,3 -5,5 -6,9 -2,-4 -3,-9 -3,-14zm126 -213c1,3 1,6 2,9 0,4 0,7 0,11 0,5 0,9 -1,13l0 0c0,-1 -1,-3 -1,-5 -6,-3 -14,-8 -23,-13 -10,-5 -20,-10 -30,-15 -10,-6 -20,-11 -30,-15 -10,-5 -19,-9 -26,-12l60 0c9,5 17,10 26,14 9,5 17,10 23,13zm-52 98c12,7 25,13 39,21 23,12 44,25 65,38l0 13c1,6 1,12 2,17 -21,-14 -43,-28 -67,-40 -24,-13 -46,-24 -66,-34 4,-2 10,-5 17,-9l10 -6zm-2249 -524c-8,-19 -1,-36 21,-42 11,-3 29,3 37,11 73,77 109,168 105,273 -3,-93 -38,-175 -105,-245 -8,-8 -26,-14 -37,-11 -10,2 -17,7 -21,14zm1 487c-8,-13 -3,-30 13,-48 51,-56 79,-121 82,-200 0,4 1,8 1,12 -1,86 -29,156 -83,216 -6,7 -10,14 -13,20zm382 -210l0 6c-2,-152 -39,-251 -107,-339 -12,-17 -27,-32 -42,-47 -15,-15 -33,-11 -46,1 -3,3 -6,5 -7,8 -7,-13 -5,-26 7,-36 13,-12 31,-16 46,-1 15,15 30,30 42,47 71,92 108,196 107,361zm-202 303c-8,-14 -2,-29 11,-42 45,-47 80,-100 100,-162 15,-48 24,-94 25,-139 2,54 -7,109 -25,167 -20,62 -55,115 -100,162 -5,4 -8,9 -11,14zm423 -350l0 9c-2,-83 -21,-163 -54,-240 -31,-72 -74,-137 -130,-193 -20,-19 -47,-17 -56,1 -2,-6 -3,-13 -3,-19 4,-27 36,-32 59,-10 56,56 99,121 130,193 36,83 54,169 54,259zm-242 445c-6,-12 -4,-25 6,-37 13,-17 29,-31 42,-48 82,-107 125,-221 128,-341 3,130 -40,253 -128,369 -13,17 -29,31 -42,48 -2,3 -4,6 -6,9zm490 1110c-244,0 -477,-44 -690,-125l-248 181c8,4 17,7 25,10l223 -163c213,81 446,125 690,125 260,0 508,-51 733,-142 37,-24 73,-50 108,-76 -252,121 -538,190 -841,190z"/>
  </g>
 </g>
</svg>
