<?xml version="1.0" encoding="UTF-8"?>
<!DOCTYPE svg PUBLIC "-//W3C//DTD SVG 1.1//EN" "http://www.w3.org/Graphics/SVG/1.1/DTD/svg11.dtd">
<!-- Creator: CorelDRAW X7 -->
<svg xmlns="http://www.w3.org/2000/svg" xml:space="preserve" width="484px" height="611px" version="1.1" style="shape-rendering:geometricPrecision; text-rendering:geometricPrecision; image-rendering:optimizeQuality; fill-rule:evenodd; clip-rule:evenodd"
viewBox="0 0 19851 25049"
 xmlns:xlink="http://www.w3.org/1999/xlink">
 <defs>
  <style type="text/css">
   <![CDATA[
    .fil3 {fill:none}
    .fil5 {fill:#70342D}
    .fil22 {fill:#70352E}
    .fil15 {fill:#BD8617}
    .fil21 {fill:#FFFBC2}
    .fil18 {fill:white}
    .fil16 {fill:#70342D;fill-rule:nonzero}
    .fil11 {fill:#F0E673;fill-rule:nonzero}
    .fil6 {fill:#FFEEC2;fill-rule:nonzero}
    .fil7 {fill:#FFF7EB;fill-rule:nonzero}
    .fil20 {fill:white;fill-rule:nonzero}
    .fil1 {fill:#FFF0D4;fill-rule:nonzero;fill-opacity:0.501961}
    .fil13 {fill:url(#id0)}
    .fil10 {fill:url(#id1)}
    .fil12 {fill:url(#id2)}
    .fil8 {fill:url(#id3)}
    .fil2 {fill:url(#id4)}
    .fil4 {fill:url(#id5)}
    .fil9 {fill:url(#id6)}
    .fil14 {fill:url(#id7)}
    .fil0 {fill:url(#id8)}
    .fil17 {fill:url(#id9)}
    .fil19 {fill:url(#id10);fill-rule:nonzero}
    .fil23 {fill:url(#id11);fill-rule:nonzero}
   ]]>
  </style>
  <linearGradient id="id0" gradientUnits="userSpaceOnUse" x1="9925.61" y1="5260.23" x2="9925.61" y2="16070">
   <stop offset="0" style="stop-opacity:1; stop-color:#F0E673"/>
   <stop offset="0.278431" style="stop-opacity:1; stop-color:#AF813C"/>
   <stop offset="0.501961" style="stop-opacity:1; stop-color:#7E3D30"/>
   <stop offset="1" style="stop-opacity:1; stop-color:#CC983B"/>
  </linearGradient>
  <linearGradient id="id1" gradientUnits="userSpaceOnUse" x1="9925.61" y1="2762.7" x2="9925.8" y2="17759.6">
   <stop offset="0" style="stop-opacity:1; stop-color:#F5E534"/>
   <stop offset="0.521569" style="stop-opacity:1; stop-color:#80210E"/>
   <stop offset="1" style="stop-opacity:1; stop-color:#DDB343"/>
  </linearGradient>
  <linearGradient id="id2" gradientUnits="userSpaceOnUse" x1="9930.64" y1="10002.9" x2="9930.64" y2="17146.7">
   <stop offset="0" style="stop-opacity:1; stop-color:#BD8617"/>
   <stop offset="0.568627" style="stop-opacity:1; stop-color:#DEBF61"/>
   <stop offset="1" style="stop-opacity:1; stop-color:#FFF9AB"/>
  </linearGradient>
  <linearGradient id="id3" gradientUnits="userSpaceOnUse" x1="1653.67" y1="8311.78" x2="1663.45" y2="11139.5">
   <stop offset="0" style="stop-opacity:1; stop-color:#ECDF56"/>
   <stop offset="1" style="stop-opacity:1; stop-color:#CC983B"/>
  </linearGradient>
  <linearGradient id="id4" gradientUnits="userSpaceOnUse" x1="4987.74" y1="19835.9" x2="9018.96" y2="17266.8">
   <stop offset="0" style="stop-opacity:1; stop-color:#B00205"/>
   <stop offset="1" style="stop-opacity:1; stop-color:red"/>
  </linearGradient>
  <linearGradient id="id5" gradientUnits="userSpaceOnUse" x1="9962.55" y1="879.44" x2="9962.55" y2="19806.7">
   <stop offset="0" style="stop-opacity:1; stop-color:#FFF9AB"/>
   <stop offset="0.211765" style="stop-opacity:1; stop-color:#E8DA3A"/>
   <stop offset="0.639216" style="stop-opacity:1; stop-color:#782211"/>
   <stop offset="1" style="stop-opacity:1; stop-color:#CF8D1B"/>
  </linearGradient>
  <linearGradient id="id6" gradientUnits="userSpaceOnUse" xlink:href="#id3" x1="18500.8" y1="8311.78" x2="18510.6" y2="11139.5">
  </linearGradient>
  <linearGradient id="id7" gradientUnits="userSpaceOnUse" x1="10509.9" y1="4393.13" x2="10510.1" y2="15589.3">
   <stop offset="0" style="stop-opacity:1; stop-color:#FFF9AB"/>
   <stop offset="1" style="stop-opacity:1; stop-color:#C18A3A"/>
  </linearGradient>
  <linearGradient id="id8" gradientUnits="userSpaceOnUse" x1="15001.3" y1="18186.7" x2="9998.62" y2="18911">
   <stop offset="0" style="stop-opacity:1; stop-color:red"/>
   <stop offset="1" style="stop-opacity:1; stop-color:#B00205"/>
  </linearGradient>
  <radialGradient id="id9" gradientUnits="userSpaceOnUse" gradientTransform="matrix(4.63062E-005 0.523132 -1.29026 -0.0473789 31082 12038)" cx="9883.63" cy="16429.9" r="4305.55" fx="9883.63" fy="16429.9">
   <stop offset="0" style="stop-opacity:1; stop-color:#FEFEFE"/>
   <stop offset="0.921569" style="stop-opacity:1; stop-color:#EDD8A0"/>
   <stop offset="1" style="stop-opacity:1; stop-color:#DDB343"/>
  </radialGradient>
  <linearGradient id="id10" gradientUnits="userSpaceOnUse" x1="9365.48" y1="2562.11" x2="9365.48" y2="999.368">
   <stop offset="0" style="stop-opacity:1; stop-color:#ECDF56"/>
   <stop offset="0.560784" style="stop-opacity:1; stop-color:#F3E971"/>
   <stop offset="1" style="stop-opacity:1; stop-color:#FBF38C"/>
  </linearGradient>
  <linearGradient id="id11" gradientUnits="userSpaceOnUse" x1="9070.86" y1="12218.8" x2="9070.96" y2="6843.21">
   <stop offset="0" style="stop-opacity:1; stop-color:#DDB343"/>
   <stop offset="1" style="stop-opacity:1; stop-color:#ECDF56"/>
  </linearGradient>
 </defs>
 <g id="Layer_x0020_1">
  <metadata id="CorelCorpID_0Corel-Layer"/>
  <g id="_1070304432">
   <g>
    <path class="fil0" d="M9801 19242l-945 194 -261 53 -176 36 -158 32 -75 16 -23 5 76 130 1569 2726 1438 2498c81,126 175,155 288,53l1943 -2370c52,-98 130,-169 267,-181l3010 -502c198,-12 244,-112 139,-299l-1824 -3217 -61 -108 -9 -16 -33 -59 -25 -43 -32 6 -260 53 -140 29 -88 18 -4620 946z"/>
    <path class="fil1" d="M14498 18429l74 -43 -86 -147 -73 42 85 148zm-5915 1079l-74 42 85 149 74 -43 -85 -148zm170 296l-74 43 85 148 74 -43 -85 -148zm170 296l-74 43 85 148 74 -43 -85 -148zm171 297l-74 42 85 148 74 -42 -85 -148zm170 296l-74 42 85 148 74 -42 -85 -148zm170 296l-74 43 85 148 74 -43 -85 -148zm170 296l-74 43 85 148 74 -43 -85 -148zm171 296l-75 43 86 148 74 -42 -85 -149zm170 297l-74 42 85 148 74 -42 -85 -148zm170 296l-74 42 85 148 74 -42 -85 -148zm170 296l-74 43 85 148 74 -43 -85 -148zm170 296l-74 43 86 148 74 -43 -86 -148zm171 296l-74 43 85 148 74 -42 -85 -149zm170 297l-74 42 85 148 74 -42 -85 -148zm170 296l-74 42 85 148 74 -42 -85 -148zm170 296l-74 43 85 148 74 -43 -85 -148zm170 296l-74 43 85 148 75 -43 -86 -148zm105 248l65 55 110 -131 -66 -55 -109 131zm218 -262l66 55 110 -132 -66 -54 -110 131zm219 -262l66 54 109 -131 -65 -55 -110 132zm219 -263l66 55 109 -131 -65 -55 -110 131zm219 -262l66 55 109 -131 -65 -55 -110 131zm219 -262l66 55 109 -132 -65 -54 -110 131zm219 -262l66 54 109 -131 -65 -55 -110 132zm219 -263l66 55 109 -131 -65 -55 -110 131zm219 -262l66 55 109 -131 -65 -55 -110 131zm219 -262l13 11 30 54 163 -26 -13 -85 -179 29 -14 17zm361 -73l14 85 168 -27 -13 -85 -169 27zm338 -54l13 85 169 -27 -14 -85 -168 27zm337 -54l13 85 169 -27 -13 -85 -169 27zm337 -54l14 85 169 -27 -14 -85 -169 27zm338 -54l13 85 169 -27 -14 -85 -168 27zm337 -54l14 84 168 -27 -13 -84 -169 27zm337 -54l14 85 168 -27 -13 -85 -169 27zm338 -54l13 85 169 -27 -14 -85 -168 27zm279 -4l73 -42 -85 -148 -74 43 86 147zm-172 -295l74 -43 -86 -148 -73 43 85 148zm-171 -296l74 -43 -86 -147 -74 42 86 148zm-171 -295l73 -43 -85 -148 -74 43 86 148zm-172 -296l74 -43 -86 -148 -73 43 85 148zm-171 -296l74 -42 -86 -148 -74 43 86 147zm-171 -295l74 -43 -86 -148 -74 43 86 148zm-172 -296l74 -42 -85 -148 -74 43 85 147zm-171 -295l74 -43 -86 -148 -74 43 86 148zm-171 -296l74 -43 -86 -147 -74 42 86 148zm-172 -295l74 -43 -85 -148 -74 43 85 148z"/>
    <path class="fil2" d="M4674 18192c-651,1148 -1302,2296 -1952,3444 -106,187 -59,286 138,299 1004,167 2007,334 3011,501 137,13 215,84 267,182 647,790 1295,1580 1942,2370 113,102 208,72 289,-54 1027,-1784 2055,-3569 3082,-5354 -2259,-463 -4518,-925 -6777,-1388z"/>
    <path class="fil1" d="M5094 18385l-74 -42 85 -148 74 43 -85 147zm5915 1079l74 43 -85 148 -74 -43 85 -148zm-170 296l74 43 -85 148 -75 -43 86 -148zm-171 297l74 42 -85 148 -74 -42 85 -148zm-170 296l74 42 -85 148 -74 -42 85 -148zm-170 296l74 42 -85 149 -74 -43 85 -148zm-170 296l74 43 -85 148 -74 -43 85 -148zm-171 296l74 43 -85 148 -74 -42 85 -149zm-170 297l74 42 -85 148 -74 -42 85 -148zm-170 296l74 42 -85 148 -74 -42 85 -148zm-170 296l74 43 -85 148 -74 -43 85 -148zm-171 296l75 43 -86 148 -74 -43 85 -148zm-170 296l74 43 -85 148 -74 -42 85 -149zm-170 297l74 42 -85 148 -74 -42 85 -148zm-170 296l74 42 -85 149 -74 -43 85 -148zm-170 296l74 43 -86 148 -74 -43 86 -148zm-171 296l74 43 -85 148 -74 -43 85 -148zm-170 296l74 43 -85 148 -74 -43 85 -148zm-104 248l-65 55 -110 -131 66 -55 109 131zm-219 -262l-65 55 -110 -131 66 -55 109 131zm-219 -262l-65 54 -110 -131 66 -54 109 131zm-219 -263l-65 55 -110 -131 66 -55 109 131zm-219 -262l-65 55 -110 -131 66 -55 109 131zm-219 -262l-65 55 -110 -131 66 -55 109 131zm-218 -262l-66 55 -110 -132 66 -54 110 131zm-219 -262l-66 54 -109 -131 65 -55 110 132zm-219 -263l-66 55 -109 -131 65 -55 110 131zm-219 -262l-13 11 -31 54 -162 -26 13 -84 178 28 15 17zm-362 -73l-13 85 -169 -27 14 -85 168 27zm-337 -54l-13 85 -169 -27 13 -85 169 27zm-337 -54l-14 85 -168 -27 13 -85 169 27zm-338 -54l-13 85 -169 -27 14 -85 168 27zm-337 -54l-14 85 -168 -27 13 -85 169 27zm-337 -54l-14 85 -168 -27 13 -85 169 27zm-338 -54l-13 85 -169 -27 14 -85 168 27zm-337 -54l-13 85 -169 -27 13 -85 169 27zm-279 -3l-74 -43 86 -148 74 43 -86 148zm172 -296l-74 -43 85 -148 74 43 -85 148zm171 -296l-74 -42 86 -148 73 43 -85 147zm171 -295l-74 -43 86 -148 74 43 -86 148zm171 -296l-73 -43 85 -147 74 42 -86 148zm172 -295l-74 -43 86 -148 73 43 -85 148zm171 -296l-74 -43 86 -148 74 43 -86 148zm171 -296l-74 -42 86 -148 74 43 -86 147zm172 -295l-74 -43 85 -148 74 43 -85 148zm171 -296l-74 -42 86 -148 74 43 -86 147zm171 -295l-74 -43 86 -148 74 43 -86 148z"/>
   </g>
   <circle class="fil3" cx="9925" cy="9849" r="9849"/>
   <path class="fil4" d="M9925 0c5482,0 9926,4444 9926,9925 0,5482 -4444,9926 -9926,9926 -5481,0 -9925,-4444 -9925,-9926 0,-5481 4444,-9925 9925,-9925zm0 2707c3987,0 7219,3232 7219,7218 0,3987 -3232,7219 -7219,7219 -3986,0 -7218,-3232 -7218,-7219 0,-3986 3232,-7218 7218,-7218z"/>
   <path class="fil5" d="M1717 11585c-54,-272 -95,-547 -122,-823 -27,-276 -40,-554 -40,-831 0,-278 13,-556 40,-832 27,-276 68,-551 122,-823 9,-44 -20,-87 -64,-96 -45,-9 -88,20 -97,64 -55,277 -96,557 -124,839 -28,281 -42,564 -42,848 0,283 14,566 42,847 28,282 69,562 124,839 9,44 52,73 97,64 44,-9 73,-52 64,-96z"/>
   <path class="fil6" d="M9925 124c2707,0 5157,1097 6931,2871 1774,1773 2871,4224 2871,6930 0,2707 -1097,5157 -2871,6931 -1774,1774 -4224,2871 -6931,2871 -2706,0 -5157,-1097 -6930,-2871 -1774,-1774 -2871,-4224 -2871,-6931 0,-2706 1097,-5157 2871,-6930 1773,-1774 4224,-2871 6930,-2871zm6871 2931c-1759,-1758 -4188,-2846 -6871,-2846 -2683,0 -5112,1088 -6870,2846 -1758,1758 -2846,4187 -2846,6870 0,2683 1088,5112 2846,6871 1758,1758 4187,2845 6870,2845 2683,0 5112,-1087 6871,-2845 1758,-1759 2845,-4188 2845,-6871 0,-2683 -1087,-5112 -2845,-6870z"/>
   <path class="fil7" d="M9925 271c2666,0 5080,1080 6827,2827 1747,1748 2828,4161 2828,6827 0,2667 -1081,5080 -2828,6827 -1747,1747 -4160,2828 -6827,2828 -2666,0 -5079,-1081 -6827,-2828 -1747,-1747 -2827,-4161 -2827,-6827 0,-2666 1080,-5079 2827,-6827 1748,-1747 4161,-2827 6827,-2827zm6767 2888c-1732,-1732 -4124,-2803 -6767,-2803 -2642,0 -5034,1071 -6766,2803 -1732,1732 -2803,4124 -2803,6766 0,2643 1071,5035 2803,6767 1732,1732 4124,2803 6766,2803 2643,0 5035,-1071 6767,-2803 1732,-1732 2803,-4124 2803,-6767 0,-2642 -1071,-5034 -2803,-6766z"/>
   <path class="fil5" d="M18250 8276c54,272 95,547 122,823 27,276 40,554 40,832 0,277 -13,555 -40,831 -27,276 -68,551 -122,823 -9,44 20,87 64,96 45,9 88,-20 97,-64 55,-277 96,-557 124,-838 28,-282 42,-565 42,-848 0,-284 -14,-567 -42,-848 -28,-282 -69,-561 -124,-839 -9,-44 -52,-73 -97,-64 -44,9 -73,52 -64,96z"/>
   <path class="fil8" d="M1665 11580c-55,-272 -96,-547 -123,-823 -27,-276 -40,-554 -40,-832 0,-277 13,-555 40,-831 27,-276 68,-551 123,-823 8,-44 -20,-87 -65,-96 -44,-9 -88,20 -96,64 -56,277 -97,557 -125,838 -27,282 -41,565 -41,848 0,284 14,567 41,848 28,282 69,561 125,839 8,44 52,73 96,64 44,-9 73,-52 65,-96z"/>
   <path class="fil9" d="M18186 8271c54,272 95,547 123,823 27,276 40,554 40,831 0,278 -13,556 -40,832 -28,276 -69,551 -123,823 -9,44 20,87 65,96 44,9 87,-20 96,-64 55,-278 97,-557 124,-839 28,-281 42,-564 42,-848 0,-283 -14,-566 -42,-848 -27,-281 -69,-561 -124,-838 -9,-44 -52,-73 -96,-64 -45,9 -74,52 -65,96z"/>
   <circle class="fil10" cx="9925" cy="9925" r="7226"/>
   <path class="fil11" d="M15888 7594c-30,-80 -152,-60 -152,30 0,10 1,18 5,27 19,49 37,98 55,147 35,91 173,51 151,-47l-3 -8c-18,-50 -37,-100 -56,-149zm-11759 9c13,-35 2,-72 -28,-94 -44,-29 -98,-13 -119,35 -20,50 -39,99 -57,149 -31,81 76,149 136,76 5,-6 9,-13 12,-21 18,-48 37,-97 56,-145zm-245 739c23,-83 -94,-140 -145,-59 -3,7 -6,12 -8,20 -13,51 -26,103 -39,155 -21,96 120,140 153,40 13,-52 26,-104 39,-156zm-151 765c13,-95 -128,-128 -155,-28l-1 8c-7,53 -14,105 -19,158 -3,30 9,57 33,73 48,35 119,2 124,-56 5,-52 11,-104 18,-155zm-53 777c0,-83 -114,-111 -152,-32 -4,11 -6,20 -6,32 -1,53 0,106 1,159 4,101 148,104 157,4 2,-54 -1,-109 0,-163zm44 778c-13,-97 -158,-90 -158,12 5,54 14,112 22,166 2,17 12,35 25,47 56,49 141,4 131,-70 -7,-52 -14,-103 -20,-155zm140 766c-26,-98 -172,-65 -153,36 12,52 26,106 41,158 24,88 159,71 155,-27 -1,-6 -2,-10 -3,-16 -14,-50 -27,-100 -40,-151zm235 743c-30,-77 -148,-61 -152,27 0,12 1,20 5,31 19,50 39,99 59,148 16,37 56,57 95,46 45,-13 69,-64 51,-107 -20,-48 -39,-96 -58,-145zm325 709c-46,-84 -175,-28 -144,63 1,4 3,8 5,12 25,47 51,93 77,140 40,73 160,39 147,-53 -2,-10 -5,-17 -10,-26 -25,-37 -53,-95 -75,-136zm410 663c-47,-69 -162,-23 -141,65 3,10 6,17 13,26 30,44 62,87 94,129 58,75 173,5 134,-80 -2,-5 -5,-10 -8,-14 -31,-42 -62,-84 -92,-126zm490 606c-63,-66 -170,6 -128,90 4,7 7,11 12,17 36,39 72,78 109,116 66,67 175,-15 122,-100 -3,-3 -6,-7 -9,-10 -36,-37 -71,-75 -106,-113zm561 540c-51,-46 -136,-3 -129,66 1,21 12,41 28,54 40,35 81,69 123,102 38,30 91,21 116,-20 21,-33 13,-79 -17,-103 -41,-33 -81,-66 -121,-99zm625 465c-34,-21 -76,-15 -102,15 -32,35 -24,92 16,118 45,29 90,57 135,85 73,46 161,-46 101,-119 -5,-6 -11,-11 -18,-15 -44,-28 -88,-55 -132,-84zm678 384c-83,-40 -156,72 -83,133 5,4 9,7 15,9 48,24 96,46 144,68 88,38 155,-81 78,-136 -4,-3 -8,-6 -13,-8 -47,-21 -94,-43 -141,-66zm721 298c-92,-30 -147,95 -64,144 5,2 8,4 13,5 50,17 101,34 152,50 88,28 145,-96 62,-144 -5,-3 -10,-5 -15,-7 -50,-15 -99,-32 -148,-48zm751 206c-81,-19 -135,93 -57,144 9,5 15,8 25,10 52,11 105,21 157,31 92,16 133,-115 42,-152 -5,-2 -9,-3 -14,-4 -51,-9 -102,-19 -153,-29zm772 110c-91,-8 -122,123 -30,154 6,2 11,3 17,3 54,4 107,8 160,11 88,4 117,-119 31,-153 -7,-3 -15,-4 -23,-5 -52,-3 -104,-6 -155,-10zm778 13c-87,3 -104,130 -17,155 9,2 16,3 25,2 53,-2 107,-5 160,-9 95,-8 99,-149 -2,-158 -3,0 -7,0 -10,0 -52,4 -104,7 -156,10zm775 -85c-91,16 -85,152 13,157 5,0 10,-1 15,-2 52,-9 104,-18 157,-29 99,-23 73,-169 -29,-155 -52,10 -104,20 -156,29zm758 -181c-94,30 -60,171 39,153 52,-13 109,-33 160,-50 80,-26 69,-150 -24,-154 -10,0 -17,1 -26,4 -49,17 -99,33 -149,47zm730 -273c-79,34 -52,160 42,151 8,-1 15,-3 23,-6 48,-22 97,-45 145,-67 18,-9 31,-23 39,-42 27,-67 -42,-132 -107,-101 -47,22 -94,44 -142,65zm691 -361c-80,51 -23,172 67,142 5,-2 9,-4 15,-7 45,-27 90,-56 135,-84 71,-45 31,-157 -54,-145 -12,2 -21,5 -31,12 -44,28 -88,55 -132,82zm640 -444c-68,53 -11,166 77,136 8,-4 14,-7 21,-12 42,-34 83,-67 124,-101 24,-21 34,-51 25,-82 -15,-55 -82,-76 -126,-39 -40,33 -81,66 -121,98zm579 -521c-63,63 15,171 98,123 6,-3 10,-7 15,-12 38,-38 74,-77 111,-116 64,-72 -28,-173 -106,-116 -3,3 -6,5 -10,9 -35,38 -71,75 -108,112zm510 -589c-52,66 28,162 106,114 8,-5 14,-11 20,-19 32,-42 64,-85 95,-128 55,-80 -49,-168 -119,-103 -3,3 -7,7 -9,11 -31,42 -62,84 -93,125zm432 -648c-48,88 74,166 134,84 28,-46 55,-97 81,-145 45,-81 -66,-161 -130,-88 -3,4 -6,8 -8,13 -25,45 -51,90 -77,136zm348 -697c-35,81 75,152 135,79 5,-6 8,-11 11,-18 21,-49 40,-99 60,-148 33,-87 -83,-150 -138,-74 -3,5 -6,10 -9,16 -20,46 -39,98 -59,145zm260 -735c-10,34 4,69 34,88 44,27 104,5 117,-45 15,-52 28,-103 42,-155 21,-77 -79,-136 -137,-69 -8,10 -12,18 -16,30 -13,50 -26,101 -40,151zm165 -762c-11,85 98,125 144,55 6,-10 11,-20 12,-31 8,-53 16,-106 22,-159 12,-87 -112,-126 -151,-40 -2,7 -4,13 -5,21 -7,51 -14,103 -22,154zm70 -776c-4,83 113,114 150,36 5,-11 7,-20 7,-32 2,-53 3,-106 3,-160 0,-81 -110,-111 -150,-35 -5,12 -8,22 -8,35 0,52 -1,104 -2,156zm-28 -779c7,89 139,99 156,5 1,-7 2,-13 1,-20 -5,-53 -11,-106 -18,-159 -12,-95 -152,-92 -157,8 0,4 0,8 1,11 6,52 12,104 17,155zm-125 -769c22,93 165,76 156,-27l-2 -8c-12,-52 -24,-104 -37,-156 -27,-98 -172,-65 -154,36 12,52 25,103 37,155z"/>
   <path class="fil12" d="M9925 2677c2002,0 3814,812 5126,2123 1311,1312 2123,3124 2123,5125 0,2002 -812,3814 -2123,5126 -1312,1311 -3124,2123 -5126,2123 -2001,0 -3813,-812 -5125,-2123 -1311,-1312 -2123,-3124 -2123,-5126 0,-2001 812,-3813 2123,-5125 1312,-1311 3124,-2123 5125,-2123zm0 86c3956,0 7163,3207 7163,7162 0,3956 -3207,7163 -7163,7163 -3955,0 -7162,-3207 -7162,-7163 0,-3955 3207,-7162 7162,-7162z"/>
   <circle class="fil13" cx="9925" cy="9925" r="5576"/>
   <path class="fil14" d="M9925 4356c1538,0 2931,623 3939,1631 1007,1008 1631,2401 1631,3938 0,1538 -624,2931 -1631,3938 -1008,1008 -2401,1632 -3939,1632 -1537,0 -2930,-624 -3938,-1632 -1007,-1007 -1631,-2400 -1631,-3938 0,-1537 624,-2930 1631,-3938 1008,-1007 2401,-1631 3938,-1631zm0 85c3029,0 5484,2456 5484,5484 0,3029 -2455,5484 -5484,5484 -3028,0 -5483,-2455 -5483,-5484 0,-3028 2455,-5484 5483,-5484z"/>
   <path class="fil15" d="M9925 2677c4001,0 7244,3235 7244,7226 0,30 -1,60 -1,90 -49,-3950 -3272,-7136 -7243,-7136 -3970,0 -7194,3186 -7242,7136 0,-30 -1,-60 -1,-90 0,-3991 3243,-7226 7243,-7226z"/>
   <path class="fil3" d="M9925 3882c3338,0 6044,2706 6044,6043 0,3338 -2706,6044 -6044,6044 -3337,0 -6043,-2706 -6043,-6044 0,-3337 2706,-6043 6043,-6043z"/>
   <path class="fil3" d="M17784 9993c0,4327 -3507,7834 -7834,7834 -4326,0 -7834,-3507 -7834,-7834"/>
   <path class="fil3" d="M17784 9925c0,4327 -3507,7835 -7834,7835 -4326,0 -7834,-3508 -7834,-7835"/>
   <path class="fil3" d="M17784 9988c0,4327 -3507,7835 -7834,7835 -4326,0 -7834,-3508 -7834,-7835"/>
  </g>
  <path class="fil3" d="M17424 9925c0,4145 -3360,7505 -7505,7505 -4145,0 -7505,-3360 -7505,-7505"/>
  <path class="fil16" d="M13206 17572l-363 147 30 74c50,-18 99,-30 146,-34 47,-5 90,-3 131,6 40,9 75,26 106,49 30,24 54,56 70,97 13,33 20,64 20,93 0,30 -5,56 -16,80 -10,23 -24,43 -42,60 -18,16 -38,29 -59,38 -29,11 -53,13 -74,5 -21,-9 -36,-25 -45,-48 -8,-19 -11,-35 -9,-48l22 -9c25,-10 43,-26 52,-46 10,-21 10,-44 -1,-70 -14,-37 -44,-60 -87,-68 -44,-9 -99,-3 -165,18l214 527c-10,23 -34,42 -71,57 -5,2 -9,3 -12,4 -3,1 -7,2 -11,2 -55,-16 -107,-31 -157,-44 -50,-12 -99,-23 -148,-32 -49,-9 -99,-17 -148,-23 -50,-7 -102,-13 -156,-18 -14,-10 -27,-24 -39,-43 -13,-18 -24,-38 -32,-58 -2,-5 -4,-9 -6,-14 -2,-5 -3,-10 -4,-15 23,-36 49,-73 78,-111 29,-37 60,-74 94,-110 33,-35 67,-69 101,-102 35,-32 70,-61 105,-87l-30 -72 -499 202c-16,6 -31,7 -44,1 -10,-4 -18,-12 -25,-23l-168 38 177 769c-5,3 -13,6 -24,10 -11,4 -23,8 -37,11 -27,6 -50,7 -68,1 -18,-6 -31,-23 -37,-51l-55 -236c-18,-20 -38,-38 -59,-54 -21,-16 -43,-29 -66,-39 -23,-10 -47,-17 -71,-21 -23,-4 -47,-3 -69,2 -35,8 -61,24 -77,47 -16,23 -20,49 -13,78 3,16 9,30 17,42 7,11 15,22 23,32 -5,13 -12,26 -23,37 -11,11 -26,19 -46,24 -27,6 -55,1 -82,-17 -28,-17 -47,-50 -58,-97 -8,-36 -8,-69 -1,-99 7,-31 21,-58 39,-82 19,-23 43,-44 71,-60 29,-17 60,-29 93,-36 29,-7 57,-10 85,-9 27,0 53,3 76,9 24,6 46,14 66,24 19,10 37,20 52,31l-65 -281 -385 89 -1 10c-2,11 -4,21 -7,30l-114 9c-22,1 -38,8 -50,19 -12,11 -17,30 -15,57l56 731c-6,2 -14,5 -26,8 -11,3 -24,5 -38,6 -27,2 -49,-1 -67,-10 -17,-8 -27,-28 -29,-57l-52 -688c-3,-33 -19,-48 -50,-46l-20 2 -623 47 13 168c1,17 2,35 2,57 0,21 0,42 0,62 -1,21 -2,40 -3,57 -1,18 -2,32 -3,41 24,-30 52,-60 84,-90 32,-31 66,-60 102,-87 36,-27 73,-51 111,-72 38,-21 76,-37 113,-48 17,6 34,18 53,36 18,17 32,35 41,53 -6,22 -12,47 -18,74 -6,26 -10,56 -14,89 -4,33 -6,69 -7,110 -1,40 1,85 4,134 3,41 8,78 15,111 6,34 14,65 23,93 -7,10 -16,19 -27,25 -10,7 -24,11 -40,12 -17,1 -32,-1 -47,-7 -14,-6 -28,-18 -39,-34 -12,-16 -22,-38 -30,-67 -8,-28 -14,-64 -17,-107 -3,-39 -3,-77 -1,-113 3,-37 7,-71 13,-102 6,-31 12,-58 19,-83 7,-24 14,-44 20,-59 -31,16 -61,36 -92,60 -31,23 -61,50 -90,78 -30,28 -58,58 -84,90 -27,32 -51,63 -72,94 -10,3 -21,6 -33,6 -22,2 -44,-1 -65,-8 -22,-8 -37,-19 -47,-34l-40 -527 -96 7c-37,3 -58,-17 -61,-59 -1,-11 -1,-21 1,-32 2,-11 4,-20 7,-28l799 -61 161 -12c30,-3 57,1 80,11 24,10 42,25 54,47 1,-6 3,-11 5,-15 -2,-10 -3,-20 -3,-29 0,-11 1,-21 3,-29l888 -205c30,-7 51,2 63,28l984 -398 149 -60c28,-12 55,-16 80,-14 26,2 47,12 66,29 -1,-11 -1,-20 1,-29 -2,-8 -4,-16 -4,-22l19 -12 1 -1c14,-17 32,-30 54,-39l45 -18 655 -384 2 -1 70 -41c-50,-38 -100,-66 -151,-85 -51,-18 -102,-28 -152,-29 -50,-2 -99,4 -148,18 -48,13 -94,34 -139,60 -33,19 -60,38 -82,57 -22,19 -39,37 -51,54 -12,17 -19,33 -22,47 -3,14 -2,25 3,34 11,20 33,21 64,2l265 -155c34,-20 62,-10 84,28 5,9 9,17 11,26 2,9 4,16 4,23l-337 197c-49,29 -93,40 -132,34 -39,-5 -69,-27 -91,-65 -15,-26 -22,-55 -19,-89 3,-34 14,-68 33,-103 19,-36 47,-71 82,-106 36,-35 79,-67 129,-96 68,-40 138,-68 207,-84 70,-15 139,-20 206,-13 67,6 132,24 194,53 62,28 121,66 176,114l137 -81c16,-9 30,-12 44,-8 13,3 26,14 37,33 5,9 9,19 12,30 3,11 6,21 7,30l-160 93 405 692c-4,5 -10,11 -19,18 -10,8 -20,15 -33,23 -23,13 -44,20 -64,20 -19,0 -36,-13 -51,-39l-372 -635 -50 29 -68 40 -5 3 -85 50 395 674c-6,24 -27,46 -62,66 -7,4 -14,7 -22,10 -58,-8 -113,-14 -166,-18 -52,-5 -104,-8 -155,-10 -51,-1 -102,-1 -153,0 -50,1 -103,4 -158,8 -15,-8 -30,-21 -45,-37 -15,-16 -29,-34 -40,-53 -2,-5 -5,-9 -8,-14 -2,-4 -4,-9 -6,-13 18,-40 40,-81 64,-123 25,-42 52,-83 80,-124 28,-41 58,-80 89,-118 31,-38 63,-72 94,-103l-40 -67 -341 199c0,5 0,9 0,13l-68 27 -73 43 -5 3 -1 3c-8,14 -7,33 3,59l275 679c-5,4 -12,9 -22,16 -10,6 -22,11 -35,17 -26,10 -48,14 -66,11 -19,-3 -34,-18 -46,-46l-258 -639c-12,-31 -33,-40 -62,-29l-89 36zm-6179 -418c18,9 30,21 38,37 9,17 9,34 1,51 -8,17 -28,31 -62,43 -14,4 -34,11 -62,21 -27,9 -57,19 -89,29 -32,10 -63,20 -93,29 -30,9 -54,15 -71,19 -24,-11 -41,-28 -50,-50 -9,-23 -9,-45 1,-66 4,-9 7,-15 10,-19 22,-6 50,-14 83,-23 34,-8 69,-17 105,-26 36,-9 71,-17 105,-25 34,-9 62,-15 84,-20zm7079 219c-45,46 -87,96 -126,151 -39,56 -72,109 -99,161 41,-2 82,-2 122,-2 41,1 80,2 117,4 37,1 72,4 105,6 32,3 61,6 85,8 -9,-10 -18,-23 -28,-39 -10,-15 -20,-31 -31,-47 -10,-15 -20,-31 -29,-46 -10,-15 -18,-28 -24,-39l-92 -157zm-111 716c-14,-24 -17,-48 -10,-72 7,-24 23,-43 47,-57 25,-14 49,-18 73,-12 24,5 43,20 57,44 13,22 17,46 10,70 -6,25 -22,44 -46,58 -24,14 -49,18 -73,12 -25,-6 -44,-20 -58,-43zm-1212 -104c-49,37 -95,80 -140,128 -45,48 -83,96 -114,142 78,10 154,23 227,39 73,16 133,31 181,45 -6,-12 -13,-27 -21,-43 -9,-17 -17,-34 -25,-51 -8,-17 -15,-34 -22,-50 -8,-16 -13,-30 -18,-42l-68 -168zm-2769 151c17,0 31,6 41,16 10,10 14,26 14,48 -1,11 -3,21 -6,32 -3,10 -6,20 -10,29l-184 -7 -27 790c-6,1 -15,3 -27,4 -12,1 -25,1 -38,1 -27,-1 -49,-7 -65,-17 -16,-10 -24,-30 -23,-59l20 -589c-26,-42 -60,-76 -102,-103 -41,-27 -87,-42 -138,-43 -32,-1 -61,2 -88,10 -26,9 -49,21 -69,37 -19,15 -35,34 -47,55 -13,22 -21,45 -24,70 14,-4 31,-8 51,-12 19,-4 41,-5 64,-4 27,1 52,6 75,15 23,9 43,21 60,36 17,16 30,35 38,58 9,22 13,48 12,76 -2,81 -49,152 -141,214 -17,12 -35,22 -51,28 -17,7 -34,10 -50,9 -22,0 -40,-9 -54,-26 -14,-17 -24,-38 -29,-64 21,-11 41,-22 60,-35 18,-12 35,-25 50,-39 14,-13 26,-27 35,-41 9,-14 14,-29 15,-43 0,-18 -5,-32 -16,-43 -12,-11 -27,-17 -48,-18 -23,0 -53,4 -90,13l-44 12c-6,2 -12,3 -19,4 -7,2 -14,2 -22,2 -19,-1 -34,-13 -43,-37 -9,-23 -14,-51 -12,-84 1,-52 13,-99 33,-141 7,-14 15,-27 24,-40l-46 -8c-21,-4 -39,-2 -53,5 -14,8 -24,25 -29,52l-135 720c-6,1 -15,2 -27,1 -12,0 -25,-1 -39,-4 -26,-5 -47,-14 -61,-26 -15,-13 -19,-34 -14,-63l128 -678c6,-33 -7,-52 -37,-57l-11 -2 -180 -34 -144 768c-9,6 -22,10 -38,12 -16,3 -34,2 -53,-1 -8,-2 -15,-4 -22,-8 -43,-41 -84,-80 -124,-115 -40,-36 -80,-70 -121,-103 -41,-32 -82,-64 -124,-95 -42,-30 -86,-61 -133,-91 -7,-16 -11,-35 -11,-57 -1,-22 0,-43 4,-65 1,-5 3,-10 4,-16 2,-6 3,-11 5,-15 16,-6 36,-13 61,-20 24,-7 50,-14 75,-21 26,-7 52,-14 77,-20 24,-6 45,-12 60,-16l-233 -159c-13,-9 -22,-17 -28,-26 -6,-9 -7,-21 -5,-35 2,-11 6,-20 12,-29 5,-9 11,-17 17,-23l-97 -19c-18,7 -38,20 -60,39 -21,20 -43,45 -65,74 -22,30 -42,64 -59,102 -18,38 -30,79 -39,123 -9,48 -11,91 -7,131 4,40 12,75 25,107 12,32 28,60 47,85 19,24 40,44 61,60 0,5 0,9 -1,13 0,4 -1,8 -2,13 -4,22 -14,38 -31,50 -16,12 -37,15 -62,11 -27,-6 -55,-21 -83,-46 -27,-26 -51,-59 -72,-100 -20,-41 -34,-90 -43,-146 -8,-55 -6,-116 6,-182 15,-77 38,-145 71,-204 32,-59 67,-108 106,-147 39,-40 78,-69 118,-87 39,-18 73,-24 102,-19l94 18 0 0 789 148 158 29c30,6 55,17 75,32 20,16 33,36 40,59 12,-22 28,-37 49,-44 20,-7 42,-8 66,-3l86 16c17,3 29,10 38,22 1,2 3,5 4,8 27,-18 57,-33 90,-43 46,-15 94,-22 147,-20 61,2 113,15 158,37 45,23 82,50 112,81 5,-26 17,-47 36,-65 19,-17 45,-25 79,-24l164 6zm-2100 -115l-54 -11 54 11zm391 237c2,8 2,17 2,28 -1,10 -2,20 -4,31 -2,13 -5,25 -10,36 -4,11 -8,21 -12,29 -18,5 -38,12 -61,19 -22,7 -45,14 -68,21 -23,7 -45,14 -66,21 -21,7 -38,13 -52,18 52,37 109,81 171,131 62,50 119,101 172,152 0,-15 2,-31 5,-50 2,-19 5,-38 7,-57 2,-19 4,-38 7,-56 3,-18 6,-34 8,-46l77 -408 -457 -86c18,12 41,28 67,47 26,18 52,38 79,59 28,21 53,41 78,61 24,20 43,36 57,50zm-2126 -1020c15,8 24,20 28,33 2,7 2,14 0,22 27,-6 55,-7 83,-5 38,3 74,12 108,27 51,23 90,52 117,87 27,36 46,70 55,104 15,-21 34,-35 57,-43 24,-8 51,-6 81,8l150 67c34,15 43,42 26,80 -4,9 -10,19 -16,27 -7,9 -14,17 -21,23l-167 -74 -321 720c-6,-1 -15,-3 -26,-7 -12,-3 -24,-8 -36,-13 -26,-12 -44,-25 -55,-40 -10,-16 -10,-37 2,-63l241 -540c-1,-19 -4,-39 -10,-59 -5,-20 -13,-39 -23,-56 -10,-18 -23,-35 -39,-49 -15,-15 -33,-27 -54,-36 -39,-18 -78,-21 -116,-8 -37,13 -66,42 -86,87 -18,41 -19,80 -3,117 16,36 43,64 83,81 12,5 21,9 28,10 7,1 13,1 20,2 1,6 1,14 0,26 -1,11 -4,22 -10,33 -10,23 -26,39 -49,47 -22,8 -52,3 -89,-13 -29,-13 -55,-31 -80,-54 -24,-23 -44,-51 -58,-83 -14,-32 -22,-68 -22,-108 -1,-39 9,-81 29,-126 20,-44 45,-79 75,-105 8,-7 16,-14 24,-20l-104 -62c5,21 5,43 1,67 -4,24 -13,48 -27,71 -21,35 -48,60 -82,75 -34,15 -70,21 -110,17l-316 532c-11,3 -24,2 -39,-1 -15,-3 -30,-10 -47,-20 -4,-2 -8,-5 -10,-7 -3,-2 -6,-4 -8,-7 -42,-76 -85,-147 -130,-215 -45,-68 -93,-138 -144,-211 -1,-10 2,-24 8,-42 6,-17 13,-32 20,-45 8,-13 16,-24 25,-33 33,1 70,3 111,7 40,3 82,7 123,12 42,5 82,11 120,17 38,7 72,14 102,21l36 -61c-44,-28 -80,-67 -110,-115 -29,-48 -41,-105 -36,-170 -25,18 -51,32 -78,41 -27,9 -55,14 -84,15 -29,1 -57,-2 -85,-10 -27,-7 -54,-18 -79,-33 -56,-34 -71,-73 -44,-119 9,-15 23,-29 41,-40l41 24c25,15 51,25 79,30 27,5 54,5 81,0 27,-6 53,-17 77,-32 24,-17 45,-38 64,-65l-272 -162c-33,-20 -38,-48 -16,-84 5,-9 12,-18 19,-26 8,-8 15,-14 23,-19l924 551zm-329 76c16,-27 19,-55 11,-83 -8,-29 -27,-53 -57,-73l-170 -101c-22,66 -28,123 -18,171 10,49 37,87 82,114 32,18 61,25 89,18 27,-6 48,-21 63,-46zm-430 531c12,-23 25,-49 40,-76 14,-27 27,-50 38,-68l44 -75c-21,-4 -44,-8 -69,-12 -24,-4 -49,-7 -74,-10 -25,-3 -49,-5 -72,-7 -23,-1 -45,-2 -65,-3 10,15 22,33 36,54 13,21 27,43 41,65 14,23 29,46 43,69 14,23 27,44 38,63z"/>
  <path class="fil17" d="M13206 17514l-363 147 30 74c50,-18 99,-30 146,-35 47,-5 90,-2 131,7 40,9 75,26 106,49 30,24 54,56 70,97 13,33 20,64 20,93 0,30 -5,56 -16,79 -10,24 -24,44 -42,61 -18,16 -38,29 -59,38 -29,11 -53,13 -74,4 -21,-8 -36,-24 -45,-47 -8,-19 -11,-35 -9,-48l22 -9c25,-10 43,-26 52,-46 10,-21 10,-44 -1,-70 -14,-37 -44,-60 -87,-68 -44,-9 -99,-3 -165,17l214 528c-10,23 -34,42 -71,57 -5,2 -9,3 -12,4 -3,1 -7,1 -11,2 -55,-17 -107,-31 -157,-44 -50,-12 -99,-23 -148,-32 -49,-9 -99,-17 -148,-23 -50,-7 -102,-13 -156,-18 -14,-10 -27,-24 -39,-43 -13,-18 -24,-38 -32,-58 -2,-5 -4,-10 -6,-14 -2,-5 -3,-10 -4,-15 23,-36 49,-73 78,-111 29,-37 60,-74 94,-110 33,-35 67,-70 101,-102 35,-32 70,-61 105,-87l-30 -72 -499 202c-16,6 -31,7 -44,1 -10,-4 -18,-12 -25,-24l-168 39 177 768c-5,4 -13,7 -24,11 -11,4 -23,8 -37,11 -27,6 -50,7 -68,1 -18,-6 -31,-23 -37,-51l-55 -236c-18,-20 -38,-38 -59,-54 -21,-16 -43,-29 -66,-39 -23,-10 -47,-17 -71,-21 -23,-4 -47,-3 -69,2 -35,8 -61,24 -77,47 -16,23 -20,49 -13,78 3,16 9,30 17,42 7,11 15,22 23,32 -5,13 -12,25 -23,37 -11,11 -26,19 -46,24 -27,6 -55,1 -82,-17 -28,-17 -47,-50 -58,-97 -8,-36 -8,-69 -1,-99 7,-31 21,-58 39,-82 19,-24 43,-44 71,-60 29,-17 60,-29 93,-36 29,-7 57,-10 85,-10 27,1 53,4 76,10 24,6 46,14 66,24 19,10 37,20 52,30l-65 -280 -385 89 -1 10c-2,11 -4,21 -7,30l-114 9c-22,1 -38,8 -50,19 -12,11 -17,30 -15,57l56 731c-6,2 -14,5 -26,8 -11,2 -24,4 -38,6 -27,2 -49,-2 -67,-10 -17,-8 -27,-28 -29,-58l-52 -687c-3,-33 -19,-48 -50,-46l-20 2 -623 47 13 168c1,16 2,35 2,57 0,21 0,42 0,62 -1,21 -2,40 -3,57 -1,18 -2,31 -3,41 24,-30 52,-60 84,-91 32,-30 66,-59 102,-86 36,-27 73,-51 111,-72 38,-21 76,-37 113,-48 17,6 34,18 53,36 18,17 32,35 41,53 -6,22 -12,47 -18,74 -6,26 -10,56 -14,89 -4,33 -6,69 -7,110 -1,40 1,85 4,134 3,40 8,78 15,111 6,33 14,64 23,93 -7,10 -16,19 -27,25 -10,7 -24,11 -40,12 -17,1 -32,-1 -47,-7 -14,-7 -28,-18 -39,-34 -12,-16 -22,-38 -30,-67 -8,-28 -14,-64 -17,-108 -3,-38 -3,-76 -1,-112 3,-37 7,-71 13,-102 6,-31 12,-58 19,-83 7,-24 14,-44 20,-59 -31,16 -61,36 -92,60 -31,23 -61,49 -90,78 -30,28 -58,58 -84,90 -27,32 -51,63 -72,93 -10,4 -21,6 -33,7 -22,2 -44,-1 -65,-9 -22,-7 -37,-18 -47,-33l-40 -527 -96 7c-37,3 -58,-17 -61,-59 -1,-11 -1,-21 1,-32 2,-11 4,-20 7,-28l799 -61 161 -13c30,-2 57,2 80,12 24,10 42,25 54,47 1,-6 3,-11 5,-16 -2,-9 -3,-19 -3,-29 0,-10 1,-20 3,-28l888 -206c30,-7 51,3 63,29l984 -398 149 -60c28,-12 55,-16 80,-14 26,2 47,12 66,28 -1,-10 -1,-19 1,-28 -2,-8 -4,-16 -4,-23l19 -11 1 -1c14,-17 32,-30 54,-39l45 -18 655 -384 2 -1 70 -41c-50,-38 -100,-67 -151,-85 -51,-18 -102,-28 -152,-29 -50,-2 -99,4 -148,18 -48,13 -94,33 -139,60 -33,19 -60,38 -82,57 -22,19 -39,37 -51,54 -12,17 -19,33 -22,47 -3,14 -2,25 3,33 11,20 33,21 64,3l265 -155c34,-20 62,-10 84,28 5,8 9,17 11,26 2,8 4,16 4,23l-337 197c-49,29 -93,40 -132,34 -39,-6 -69,-27 -91,-65 -15,-26 -22,-55 -19,-89 3,-34 14,-68 33,-103 19,-36 47,-71 82,-106 36,-35 79,-67 129,-96 68,-40 138,-68 207,-84 70,-15 139,-20 206,-13 67,6 132,24 194,52 62,29 121,67 176,115l137 -81c16,-9 30,-12 44,-8 13,3 26,14 37,33 5,9 9,19 12,30 3,11 6,20 7,29l-160 94 405 692c-4,4 -10,11 -19,18 -10,8 -20,15 -33,22 -23,14 -44,21 -64,21 -19,0 -36,-13 -51,-39l-372 -635 -50 29 -68 40 -5 3 -85 50 395 674c-6,24 -27,46 -62,66 -7,4 -14,7 -22,9 -58,-7 -113,-13 -166,-17 -52,-5 -104,-8 -155,-10 -51,-1 -102,-2 -153,0 -50,1 -103,3 -158,8 -15,-9 -30,-21 -45,-37 -15,-17 -29,-34 -40,-53 -2,-5 -5,-9 -8,-14 -2,-4 -4,-9 -6,-14 18,-39 40,-80 64,-122 25,-42 52,-84 80,-124 28,-41 58,-80 89,-118 31,-38 63,-72 94,-103l-40 -68 -341 200c0,4 0,8 0,12l-68 28 -73 43 -5 2 -1 4c-8,14 -7,33 3,58l275 680c-5,4 -12,9 -22,15 -10,7 -22,12 -35,18 -26,10 -48,14 -66,11 -19,-3 -34,-18 -46,-46l-258 -639c-12,-31 -33,-40 -62,-29l-89 36zm-6179 -418c18,9 30,21 38,37 9,17 9,34 1,51 -8,17 -28,31 -62,43 -14,4 -34,11 -62,21 -27,9 -57,19 -89,29 -32,10 -63,20 -93,29 -30,8 -54,15 -71,19 -24,-11 -41,-28 -50,-50 -9,-23 -9,-45 1,-66 4,-9 7,-15 10,-19 22,-6 50,-14 83,-23 34,-9 69,-17 105,-26 36,-9 71,-17 105,-26 34,-8 62,-14 84,-19zm7079 219c-45,46 -87,96 -126,151 -39,56 -72,109 -99,161 41,-2 82,-2 122,-2 41,0 80,2 117,4 37,1 72,4 105,6 32,3 61,5 85,8 -9,-11 -18,-24 -28,-39 -10,-15 -20,-31 -31,-47 -10,-16 -20,-31 -29,-46 -10,-15 -18,-28 -24,-39l-92 -157zm-111 716c-14,-24 -17,-48 -10,-72 7,-24 23,-43 47,-57 25,-14 49,-19 73,-13 24,6 43,21 57,44 13,23 17,47 10,71 -6,25 -22,44 -46,58 -24,14 -49,18 -73,12 -25,-6 -44,-20 -58,-43zm-1212 -105c-49,38 -95,81 -140,129 -45,48 -83,96 -114,142 78,10 154,23 227,39 73,15 133,30 181,45 -6,-12 -13,-27 -21,-43 -9,-17 -17,-34 -25,-51 -8,-17 -15,-34 -22,-50 -8,-17 -13,-31 -18,-42l-68 -169zm-2769 152c17,0 31,5 41,15 10,10 14,27 14,49 -1,11 -3,21 -6,32 -3,10 -6,20 -10,28l-184 -6 -27 789c-6,2 -15,4 -27,5 -12,1 -25,1 -38,1 -27,-1 -49,-7 -65,-17 -16,-11 -24,-30 -23,-59l20 -589c-26,-42 -60,-76 -102,-103 -41,-27 -87,-42 -138,-43 -32,-1 -61,2 -88,10 -26,9 -49,21 -69,37 -19,15 -35,34 -47,55 -13,22 -21,45 -24,70 14,-4 31,-8 51,-12 19,-4 41,-5 64,-4 27,0 52,5 75,14 23,9 43,22 60,37 17,16 30,35 38,58 9,22 13,47 12,76 -2,81 -49,152 -141,214 -17,12 -35,21 -51,28 -17,7 -34,10 -50,9 -22,0 -40,-9 -54,-26 -14,-17 -24,-38 -29,-64 21,-11 41,-22 60,-35 18,-12 35,-25 50,-39 14,-13 26,-27 35,-41 9,-15 14,-29 15,-43 0,-18 -5,-32 -16,-43 -12,-11 -27,-17 -48,-18 -23,0 -53,4 -90,13l-44 12c-6,1 -12,3 -19,4 -7,1 -14,2 -22,2 -19,-1 -34,-13 -43,-37 -9,-23 -14,-51 -12,-84 1,-53 13,-99 33,-141 7,-14 15,-27 24,-40l-46 -8c-21,-4 -39,-2 -53,5 -14,8 -24,25 -29,52l-135 720c-6,1 -15,2 -27,1 -12,0 -25,-1 -39,-4 -26,-5 -47,-14 -61,-26 -15,-13 -19,-34 -14,-64l128 -677c6,-33 -7,-52 -37,-57l-11 -2 -180 -34 -144 767c-9,7 -22,11 -38,13 -16,3 -34,2 -53,-2 -8,-1 -15,-3 -22,-7 -43,-41 -84,-80 -124,-115 -40,-36 -80,-70 -121,-103 -41,-32 -82,-64 -124,-95 -42,-30 -86,-61 -133,-91 -7,-16 -11,-35 -11,-57 -1,-22 0,-44 4,-65 1,-5 3,-10 4,-16 2,-6 3,-11 5,-15 16,-6 36,-13 61,-20 24,-7 50,-14 75,-21 26,-7 52,-14 77,-20 24,-6 45,-12 60,-17l-233 -159c-13,-8 -22,-17 -28,-26 -6,-8 -7,-20 -5,-34 2,-11 6,-20 12,-29 5,-9 11,-17 17,-24l-97 -18c-18,7 -38,20 -60,39 -21,20 -43,45 -65,74 -22,30 -42,64 -59,102 -18,38 -30,79 -39,123 -9,48 -11,91 -7,131 4,39 12,75 25,107 12,32 28,60 47,84 19,25 40,45 61,61 0,5 0,9 -1,13 0,4 -1,8 -2,13 -4,22 -14,38 -31,50 -16,12 -37,15 -62,11 -27,-6 -55,-21 -83,-46 -27,-26 -51,-59 -72,-100 -20,-42 -34,-90 -43,-146 -8,-55 -6,-116 6,-182 15,-77 38,-145 71,-204 32,-59 67,-108 106,-147 39,-40 78,-69 118,-87 39,-18 73,-25 102,-19l94 18 0 0 789 148 158 29c30,6 55,16 75,32 20,16 33,35 40,59 12,-22 28,-37 49,-44 20,-7 42,-8 66,-3l86 16c17,3 29,10 38,21 1,3 3,6 4,9 27,-18 57,-33 90,-43 46,-15 94,-22 147,-20 61,2 113,14 158,37 45,23 82,50 112,81 5,-26 17,-48 36,-65 19,-17 45,-25 79,-24l164 6zm-2100 -116l-54 -10 54 10zm391 238c2,8 2,17 2,27 -1,11 -2,21 -4,32 -2,13 -5,25 -10,36 -4,11 -8,21 -12,29 -18,5 -38,12 -61,19 -22,7 -45,14 -68,21 -23,7 -45,14 -66,21 -21,7 -38,13 -52,18 52,37 109,81 171,131 62,50 119,101 172,152 0,-15 2,-31 5,-50 2,-19 5,-38 7,-57 2,-19 4,-38 7,-56 3,-18 6,-34 8,-46l77 -408 -457 -86c18,12 41,28 67,47 26,18 52,38 79,59 28,21 53,41 78,61 24,20 43,36 57,50zm-2126 -1021c15,9 24,21 28,34 2,7 2,14 0,22 27,-6 55,-7 83,-5 38,3 74,12 108,27 51,23 90,52 117,87 27,36 46,70 55,104 15,-21 34,-35 57,-43 24,-8 51,-6 81,8l150 67c34,15 43,42 26,80 -4,9 -10,19 -16,27 -7,9 -14,17 -21,23l-167 -74 -321 720c-6,-1 -15,-3 -26,-7 -12,-3 -24,-8 -36,-13 -26,-12 -44,-25 -55,-41 -10,-15 -10,-36 2,-62l241 -540c-1,-19 -4,-39 -10,-59 -5,-20 -13,-39 -23,-57 -10,-17 -23,-34 -39,-49 -15,-14 -33,-26 -54,-35 -39,-18 -78,-21 -116,-8 -37,13 -66,42 -86,87 -18,41 -19,80 -3,117 16,36 43,64 83,81 12,5 21,8 28,9 7,1 13,2 20,3 1,6 1,14 0,25 -1,12 -4,23 -10,34 -10,23 -26,39 -49,47 -22,8 -52,3 -89,-13 -29,-13 -55,-31 -80,-54 -24,-23 -44,-51 -58,-83 -14,-32 -22,-68 -22,-108 -1,-39 9,-81 29,-126 20,-44 45,-79 75,-105 8,-7 16,-14 24,-20l-104 -62c5,21 5,43 1,67 -4,24 -13,48 -27,71 -21,35 -48,60 -82,75 -34,15 -70,21 -110,17l-316 532c-11,2 -24,2 -39,-1 -15,-3 -30,-10 -47,-20 -4,-2 -8,-5 -10,-7 -3,-2 -6,-4 -8,-7 -42,-76 -85,-147 -130,-215 -45,-68 -93,-138 -144,-212 -1,-9 2,-23 8,-41 6,-17 13,-33 20,-45 8,-13 16,-24 25,-33 33,1 70,3 111,6 40,4 82,8 123,13 42,5 82,11 120,17 38,7 72,14 102,21l36 -61c-44,-28 -80,-67 -110,-115 -29,-48 -41,-105 -36,-170 -25,18 -51,32 -78,41 -27,9 -55,14 -84,15 -29,1 -57,-2 -85,-10 -27,-7 -54,-18 -79,-33 -56,-34 -71,-74 -44,-119 9,-15 23,-29 41,-40l41 24c25,15 51,25 79,30 27,5 54,5 81,0 27,-6 53,-17 77,-33 24,-16 45,-37 64,-65l-272 -161c-33,-20 -38,-48 -16,-84 5,-9 12,-18 19,-26 8,-8 15,-14 23,-19l924 550zm-329 77c16,-27 19,-55 11,-83 -8,-29 -27,-53 -57,-73l-170 -101c-22,65 -28,123 -18,171 10,49 37,87 82,113 32,19 61,26 89,19 27,-6 48,-22 63,-46zm-430 531c12,-23 25,-49 40,-76 14,-27 27,-50 38,-69l44 -74c-21,-4 -44,-8 -69,-12 -24,-4 -49,-7 -74,-10 -25,-3 -49,-5 -72,-7 -23,-1 -45,-2 -65,-3 10,15 22,33 36,54 13,21 27,43 41,65 14,23 29,46 43,69 14,23 27,44 38,63z"/>
  <path class="fil18" d="M12863 17711l10 24c50,-18 99,-30 146,-35 47,-5 90,-2 131,7 40,9 75,26 106,49 30,24 54,56 70,97 13,33 20,64 20,93 0,10 -1,20 -2,29 -3,-20 -9,-42 -18,-64 -16,-41 -40,-73 -70,-97 -31,-23 -66,-40 -106,-49 -41,-9 -84,-11 -131,-6 -47,4 -96,16 -146,34l-30 -74 20 -8zm249 375l-2 -5c-8,-19 -11,-35 -9,-48l22 -9c25,-10 43,-26 52,-46l2 -5c8,23 7,44 -2,63 -9,20 -27,36 -52,46l-11 4zm-169 -177l193 476c-4,8 -8,15 -15,22l-199 -491c8,-3 15,-5 21,-7zm-578 329l-3 -8c-2,-5 -4,-10 -6,-14 -2,-5 -3,-10 -4,-15 23,-36 49,-73 78,-111 29,-37 60,-74 94,-110 33,-35 67,-70 101,-102 29,-27 58,-51 87,-73l18 44c-35,26 -70,55 -105,87 -34,33 -68,67 -101,102 -34,36 -65,73 -94,110 -24,30 -45,60 -65,90zm-389 -245l165 712c-3,2 -7,4 -12,6l-165 -716 12 -2zm-410 466c3,14 9,26 16,37 7,11 15,22 23,32 -4,11 -10,22 -19,32l-4 -6c-8,-12 -14,-26 -17,-42 -5,-19 -4,-36 1,-53zm-174 -9c-4,-26 -3,-51 3,-74 7,-31 21,-58 39,-82 19,-24 43,-44 71,-60 29,-17 60,-29 93,-36 29,-7 57,-10 85,-10 27,1 53,4 76,10 24,6 46,14 66,24 13,7 25,13 36,20l16 69c-15,-11 -33,-21 -52,-31 -20,-10 -42,-18 -66,-24 -23,-6 -49,-9 -76,-9 -28,-1 -56,2 -85,9 -33,7 -64,19 -93,36 -28,16 -52,37 -71,60 -18,24 -32,51 -39,82 -1,5 -2,11 -3,16zm-150 -240l54 707 -4 2 -52 -675c-1,-13 0,-24 2,-34zm-847 27l9 110c1,16 2,35 2,57 0,16 0,33 0,49 0,-18 -1,-34 -2,-48l-13 -168 4 0zm10 322c22,-28 49,-57 79,-86 32,-30 66,-59 102,-86 36,-27 73,-51 111,-72 38,-21 76,-37 113,-48 17,6 34,18 53,36 18,17 32,35 41,53 -4,13 -7,26 -10,41 -8,-12 -19,-24 -31,-36 -19,-18 -36,-30 -53,-36 -37,11 -75,27 -113,48 -38,21 -75,45 -111,72 -36,27 -70,56 -102,87 -32,30 -60,60 -84,90 1,-9 2,-23 3,-41l2 -22zm460 122c1,26 2,53 4,82 3,40 8,78 15,111 6,33 14,64 23,93 -4,5 -8,10 -13,14 -3,-15 -7,-32 -10,-49 -7,-33 -12,-70 -15,-111 -3,-49 -5,-94 -4,-134l0 -6zm-160 76c-1,-28 -1,-55 1,-81 3,-37 7,-71 13,-102 5,-26 10,-49 16,-71 8,-4 15,-9 23,-13 -6,15 -13,35 -20,59 -7,25 -13,52 -19,83 -6,31 -10,65 -13,102l-1 23zm-625 -600c-1,-6 -2,-12 -2,-18 -1,-11 -1,-21 1,-32 2,-11 4,-20 7,-28l799 -61 161 -13c30,-2 57,2 80,12 24,10 42,25 54,47 1,-6 3,-11 5,-15 -2,8 -3,18 -3,29 0,9 1,19 3,29 -2,4 -4,9 -5,15 -12,-22 -30,-37 -54,-47 -23,-10 -50,-14 -80,-11l-161 12 -799 61c-2,6 -4,12 -6,20zm1105 -108l0 -1c-2,-9 -3,-19 -3,-29 0,-10 1,-20 3,-28l888 -206c30,-7 51,3 63,29l984 -398 149 -60c28,-12 55,-16 80,-14 26,2 47,12 66,28 -1,-10 -1,-19 1,-28 -2,-8 -4,-16 -4,-23l19 -11 1 -1c14,-17 32,-30 54,-39l45 -18 655 -384 2 -1 25 -15c15,10 30,21 45,32l-70 41 -2 1 -655 384 -45 18c-22,9 -40,22 -54,39l-1 1 -19 12c0,6 2,14 4,22 -2,9 -2,18 -1,29 -19,-17 -40,-27 -66,-29 -25,-2 -52,2 -80,14l-149 60 -984 398c-12,-26 -33,-35 -63,-28l-888 205zm2334 -1064c13,14 33,14 61,-3l265 -155c34,-20 62,-10 84,28 5,8 9,17 11,26 2,8 4,16 4,23l-15 9c-23,-38 -51,-48 -84,-28l-265 155c-31,19 -53,18 -64,-2 -5,-9 -6,-20 -3,-34 1,-6 3,-13 6,-19zm-152 39c-3,-14 -3,-28 -2,-43 3,-34 14,-68 33,-103 19,-36 47,-71 82,-106 36,-35 79,-67 129,-96 68,-40 138,-68 207,-84 70,-15 139,-20 206,-13 67,6 132,24 194,52 62,29 121,67 176,115l137 -81c16,-9 30,-12 44,-8 13,3 26,14 37,33 5,9 9,19 12,30 3,11 6,20 7,29l-14 9c-2,-3 -3,-7 -5,-10 -11,-19 -24,-30 -37,-33 -14,-4 -28,-1 -44,8l-137 81c-55,-48 -114,-86 -176,-114 -62,-29 -127,-47 -194,-53 -67,-7 -136,-2 -206,13 -69,16 -139,44 -207,84 -50,29 -93,61 -129,96 -35,35 -63,70 -82,106 -16,30 -27,59 -31,88zm1127 -137l380 648c-4,4 -10,11 -19,18l-3 2 -383 -654 25 -14zm-342 200l370 631c-3,10 -8,20 -16,30l-379 -646 25 -15zm-430 597l-1 0c-2,-5 -5,-9 -8,-14 -2,-4 -4,-9 -6,-14 18,-39 40,-80 64,-122 25,-42 52,-84 80,-124 28,-41 58,-80 89,-118 24,-29 48,-56 73,-81l21 36c-31,31 -63,65 -94,103 -31,38 -61,77 -89,118 -28,41 -55,82 -80,124 -18,31 -35,62 -49,92zm-214 -220l1 4 275 680c-4,4 -10,8 -18,13l-257 -634c-10,-26 -11,-45 -3,-59l1 -3 1 -1zm-6481 -368c18,9 30,21 38,37 9,17 9,34 1,51l-2 4c-8,-14 -20,-26 -37,-34 -22,5 -50,11 -84,20 -34,8 -69,16 -105,25 -36,9 -71,18 -105,26 -33,9 -61,17 -83,23 -3,4 -6,10 -10,19l-2 5c-8,-22 -7,-43 2,-63 4,-9 7,-15 10,-19 22,-6 50,-14 83,-23 34,-9 69,-17 105,-26 36,-9 71,-17 105,-26 34,-8 62,-14 84,-19zm6887 530c30,-1 60,-1 89,-1 41,0 80,2 117,4 37,1 72,4 105,6l42 4 15 23c10,16 19,29 28,39 -24,-2 -53,-5 -85,-8 -33,-2 -68,-5 -105,-6 -37,-2 -76,-3 -117,-4 -40,0 -81,0 -122,2 11,-20 21,-39 33,-59zm73 386c-7,-18 -7,-35 -2,-53 7,-24 23,-43 47,-57 25,-14 49,-19 73,-13 24,6 43,21 57,44 13,23 17,47 10,71l-2 6c-2,-6 -4,-12 -8,-18 -14,-24 -33,-39 -57,-44 -24,-6 -48,-2 -73,12 -22,13 -38,31 -45,52zm-1420 190c65,9 128,20 189,34 57,12 106,24 148,35l12 25c8,16 15,31 21,43 -48,-14 -108,-29 -181,-45 -73,-16 -149,-29 -227,-39 12,-18 25,-35 38,-53zm-2553 -124c17,0 31,5 41,15 10,10 14,27 14,49 -1,9 -2,17 -4,26 -3,-7 -6,-12 -10,-16 -10,-10 -24,-16 -41,-16l-164 -6c-34,-1 -60,7 -79,24 -19,18 -31,39 -36,65 -30,-31 -67,-58 -112,-81 -45,-22 -97,-35 -158,-37 -53,-2 -101,5 -147,20 -33,10 -63,25 -90,43 -1,-3 -3,-6 -4,-8 -9,-12 -21,-19 -38,-22l-86 -16c-24,-5 -46,-4 -66,3 -21,7 -37,22 -49,44 -7,-23 -20,-43 -40,-59 -20,-15 -45,-26 -75,-32l-158 -29 -789 -148 0 0 -94 -18c-29,-5 -63,1 -102,19 -40,18 -79,47 -118,87 -39,39 -74,88 -106,147 -33,59 -56,127 -71,204 -5,29 -8,57 -10,83 -2,-44 1,-91 10,-141 15,-77 38,-145 71,-204 32,-59 67,-108 106,-147 39,-40 78,-69 118,-87 39,-18 73,-25 102,-19l94 18 0 0 789 148 158 29c30,6 55,16 75,32 20,16 33,35 40,59 12,-22 28,-37 49,-44 20,-7 42,-8 66,-3l86 16c17,3 29,10 38,21 1,3 3,6 4,9 27,-18 57,-33 90,-43 46,-15 94,-22 147,-20 61,2 113,14 158,37 45,23 82,50 112,81 5,-26 17,-48 36,-65 19,-17 45,-25 79,-24l164 6zm-324 859c-1,-6 -1,-14 -1,-22l18 -534 2 3 -19 553zm-429 -591c10,-2 20,-4 31,-6 19,-4 41,-5 64,-4 27,0 52,5 75,14 23,9 43,22 60,37 17,16 30,35 38,58 9,22 13,47 12,76 0,7 0,14 -1,21 -2,-14 -6,-27 -11,-39 -8,-23 -21,-42 -38,-58 -17,-15 -37,-27 -60,-36 -23,-9 -48,-14 -75,-15 -23,-1 -45,0 -64,4 -20,4 -37,8 -51,12 3,-23 10,-44 20,-64zm-27 385c-8,-14 -14,-30 -18,-49 21,-11 41,-22 60,-35 18,-12 35,-25 50,-39 14,-13 26,-27 35,-41 3,-5 6,-10 8,-15 5,8 7,18 7,30 -1,14 -6,29 -15,43 -9,14 -21,28 -35,41 -15,14 -32,27 -50,39 -14,9 -28,18 -42,26zm-151 -321c-1,-11 -2,-24 -1,-37 1,-47 11,-90 27,-128l30 5c-9,13 -17,26 -24,40 -18,36 -29,76 -32,120zm-346 506c-5,-12 -5,-28 -2,-48l124 -657c5,10 7,22 4,38l-126 667zm-871 -491c-1,-5 -1,-11 -1,-17 -1,-22 0,-44 4,-65 1,-5 3,-10 4,-16 2,-6 3,-11 5,-15 16,-6 36,-13 61,-20 24,-7 50,-14 75,-21 26,-7 52,-14 77,-20l60 42c-15,4 -36,10 -60,16 -25,6 -51,13 -77,20 -25,7 -51,14 -75,21 -25,7 -45,14 -61,20 -2,4 -3,9 -5,15 -1,6 -3,11 -4,16 -1,8 -2,16 -3,24zm26 -373l-2 -3c-6,-8 -7,-20 -5,-34l29 6c-6,6 -12,14 -17,23 -2,3 -4,5 -5,8zm-306 352l1 9c4,39 12,75 25,107 12,32 28,60 47,84 19,25 40,45 61,61 0,5 0,9 -1,13 0,4 -1,8 -2,13 -2,8 -4,16 -8,23 -17,-14 -34,-31 -50,-51 -19,-25 -35,-53 -47,-85 -13,-32 -21,-67 -25,-107 -2,-21 -3,-43 -1,-67zm719 -204c2,8 2,17 2,27 0,10 -2,20 -3,29 -14,-13 -33,-29 -56,-48 -25,-20 -50,-40 -78,-61 -27,-21 -53,-41 -79,-59 -26,-19 -49,-35 -67,-47l111 21 35 27c28,21 53,41 78,61 24,20 43,36 57,50zm-217 242c36,28 76,59 117,92 62,50 119,101 172,152 0,-15 2,-31 5,-50 2,-19 5,-38 7,-57 2,-19 4,-38 7,-56 3,-18 6,-34 8,-46l66 -352 11 2 -77 408c-2,12 -5,28 -8,46 -3,18 -5,37 -7,56 -2,19 -5,38 -7,57 -3,19 -5,35 -5,50 -53,-51 -110,-102 -172,-152 -62,-50 -119,-94 -171,-131 14,-5 31,-11 52,-18l2 -1zm-1909 -1263c15,9 24,21 28,34 2,7 2,14 0,22 27,-6 55,-7 83,-5 38,3 74,12 108,27 51,23 90,52 117,87 27,36 46,70 55,104 15,-21 34,-35 57,-43 24,-8 51,-6 81,8l150 67c34,15 43,41 27,78 -6,-8 -15,-15 -27,-20l-150 -67c-30,-14 -57,-16 -81,-8 -23,8 -42,22 -57,43 -9,-34 -28,-68 -55,-104 -27,-35 -66,-64 -117,-87 -34,-15 -70,-24 -108,-27 -28,-2 -56,-1 -83,5 2,-8 2,-15 0,-22 -4,-13 -13,-25 -28,-33l-924 -551c-8,5 -15,11 -23,19 -7,8 -14,17 -19,26l-5 8c-13,-18 -11,-40 5,-66 5,-9 12,-18 19,-26 8,-8 15,-14 23,-19l924 550zm63 1016c-10,-15 -10,-36 2,-62l235 -527c3,15 5,30 6,45l-241 540 -2 4zm-96 -631c2,8 4,17 8,25 16,36 43,64 83,81 12,5 21,8 28,9 7,1 13,2 20,3 1,6 1,14 0,25 -1,11 -4,21 -9,32l-11 -1c-7,-1 -16,-5 -28,-10 -40,-17 -67,-45 -83,-81 -12,-27 -14,-54 -8,-83zm-168 -5c0,-10 -1,-19 -1,-29 -1,-39 9,-81 29,-126 16,-36 36,-66 59,-90l40 23c-8,6 -16,13 -24,20 -30,26 -55,61 -75,105 -15,34 -24,66 -28,97zm25 -283l-1 5 -1 -6 2 1zm-905 254l-9 -13c-1,-9 2,-23 8,-41 6,-17 13,-33 20,-45 8,-13 16,-24 25,-33 33,1 70,3 111,6 40,4 82,8 123,13 42,5 82,11 120,17 38,7 72,14 102,21l12 -20c7,6 16,12 24,17l-36 61c-30,-7 -64,-14 -102,-21 -38,-6 -78,-12 -120,-17 -41,-5 -83,-9 -123,-12 -41,-4 -78,-6 -111,-7 -9,9 -17,20 -25,33 -7,12 -13,25 -19,41zm14 -457c-11,-21 -9,-45 6,-70 9,-15 23,-29 41,-40l41 24c25,15 51,25 79,30 27,5 54,5 81,0 27,-6 53,-17 77,-33 11,-7 22,-16 32,-26l32 20c-19,27 -40,48 -64,65 -24,15 -50,26 -77,32 -27,5 -54,5 -81,0 -28,-5 -54,-15 -79,-30l-41 -24c-18,11 -32,25 -41,40 -2,4 -4,8 -6,12zm738 183c5,-9 9,-17 11,-25l0 0c8,28 5,56 -11,83 -15,25 -36,40 -63,46 -28,7 -57,0 -89,-18 -45,-27 -72,-65 -82,-114 -5,-23 -6,-49 -3,-77 1,7 2,13 3,19 10,49 37,87 82,113 32,19 61,26 89,19 27,-6 48,-22 63,-46zm-430 531c12,-23 25,-49 40,-76 14,-27 27,-50 38,-69l13 -22 31 6 -44 75c-11,18 -24,41 -38,68 -15,27 -28,53 -40,76 -11,-19 -24,-40 -38,-63 -14,-23 -29,-46 -43,-69 -14,-22 -28,-44 -41,-65 -14,-21 -26,-39 -36,-54 13,0 26,1 39,2l38 59c14,23 29,46 43,69 14,23 27,44 38,63z"/>
  <path class="fil16" d="M14750 2854l-61 95c62,43 115,89 159,139 44,51 77,103 100,157 22,54 32,108 29,162 -2,55 -20,108 -53,160 -27,42 -58,75 -92,99 -34,24 -68,39 -104,46 -35,8 -70,8 -104,1 -33,-7 -64,-19 -92,-37 -36,-24 -58,-51 -66,-81 -7,-31 -1,-61 18,-91 16,-24 32,-41 49,-49l28 17c32,21 64,29 96,23 32,-5 58,-25 80,-58 30,-47 32,-99 6,-157 -25,-57 -77,-115 -154,-174l-434 676c-34,8 -75,-4 -123,-35 -6,-4 -11,-7 -15,-10 -3,-4 -7,-7 -11,-11 -25,-77 -51,-149 -78,-217 -26,-68 -54,-134 -84,-197 -29,-64 -61,-127 -94,-190 -33,-62 -68,-127 -107,-194 1,-24 7,-50 18,-80 11,-29 25,-58 41,-84 4,-6 8,-12 12,-18 4,-6 9,-12 13,-17 61,-3 125,-4 192,0 67,3 134,9 202,18 69,8 136,20 201,33 66,14 128,31 186,50l59 -93 -640 -411c-21,-13 -33,-30 -37,-49 -5,-20 2,-43 19,-70 8,-13 17,-24 29,-34 12,-11 22,-20 31,-27l1395 894c20,13 33,30 38,49 4,19 -2,42 -19,69 -8,12 -17,24 -28,35 -11,11 -22,20 -34,27l-571 -366zm-9056 -380l-3 1 -449 289c24,-6 44,-5 60,3 17,8 29,19 37,31 10,15 15,29 16,42 1,12 1,24 0,36 -11,2 -22,6 -33,9 -11,4 -23,10 -37,19 -21,13 -36,33 -47,59 -11,27 -6,55 14,86 17,27 39,43 68,49 28,6 58,0 89,-20 23,-15 45,-37 67,-65 21,-29 47,-71 76,-127l54 -108c22,1 49,5 81,12 32,7 66,19 102,35 36,17 72,40 107,69 36,29 68,66 97,111 37,58 58,117 65,179 6,62 -1,122 -21,180 -20,59 -53,114 -97,167 -44,52 -98,99 -163,141 -73,47 -150,80 -230,100 -80,19 -160,25 -240,17 -79,-8 -158,-30 -236,-66 -77,-37 -151,-87 -221,-150 -23,-20 -43,-41 -61,-63 -18,-21 -35,-44 -50,-68 -25,-38 -32,-74 -24,-106 9,-32 28,-58 60,-78 17,-11 32,-18 47,-22 14,-3 27,-5 39,-7l49 61c63,82 128,145 196,190 67,46 133,76 199,91 66,16 131,17 194,5 62,-11 121,-35 175,-69 33,-22 63,-47 88,-76 25,-29 44,-61 57,-94 12,-33 18,-68 15,-105 -2,-36 -15,-72 -38,-108 -37,-58 -79,-95 -127,-111 -25,50 -51,95 -78,134 -27,40 -68,76 -121,110 -33,22 -69,37 -107,46 -38,9 -75,11 -111,5 -36,-5 -70,-18 -103,-39 -33,-21 -62,-51 -86,-89 -34,-53 -49,-107 -45,-162 5,-56 23,-104 55,-146l-561 360c-21,13 -41,17 -61,13 -20,-4 -38,-20 -55,-46 -8,-13 -15,-26 -20,-41 -5,-14 -9,-28 -10,-40l1298 -832 75 -48c36,-23 72,-36 108,-40 36,-4 68,4 98,22 -9,-34 -7,-65 8,-92 14,-27 35,-50 64,-69l104 -66c20,-13 41,-18 60,-14 19,4 38,19 55,45 8,13 14,26 20,41 5,14 8,28 11,42l-137 87c-25,16 -41,35 -49,57 -7,21 0,48 21,81l558 871c-5,7 -14,16 -26,27 -13,11 -27,22 -45,33 -32,21 -62,32 -88,33 -27,1 -52,-17 -75,-52l-526 -820c-25,-39 -56,-47 -92,-23l-114 73zm1975 -797l301 1061c-8,13 -21,27 -39,40 -18,13 -41,23 -69,31 -10,3 -21,5 -32,5 -80,-26 -156,-48 -230,-68 -73,-20 -145,-37 -217,-53 -72,-16 -144,-30 -217,-42 -72,-12 -147,-23 -225,-32 -17,-16 -33,-38 -48,-65 -15,-27 -27,-56 -35,-86 -2,-7 -4,-14 -6,-22 -3,-8 -4,-15 -5,-22 17,-17 38,-38 65,-63 26,-25 53,-49 82,-74 28,-26 56,-50 83,-73 28,-24 50,-43 67,-60l-393 -54c-24,-3 -42,-9 -54,-16 -13,-7 -22,-20 -28,-40 -4,-14 -5,-29 -4,-43 2,-15 4,-29 8,-41l-75 21c-51,15 -85,-7 -101,-65 -5,-14 -7,-29 -8,-44 -1,-16 0,-30 2,-41l1205 -343 0 0 219 -62c41,-11 79,-14 114,-7 35,7 65,24 88,50 1,-36 12,-65 34,-86 21,-22 48,-38 81,-47l119 -34c23,-6 44,-5 61,4 18,9 31,29 40,59 4,15 6,30 7,45 1,16 0,30 -2,43l-155 44c-29,9 -50,22 -64,41 -13,18 -14,46 -4,83l283 996c-7,5 -18,10 -33,18 -15,7 -32,13 -52,19 -37,10 -68,12 -95,5 -26,-7 -44,-30 -56,-71l-266 -937c-13,-44 -40,-61 -82,-49l-14 4 -250 71zm44 906c-7,-19 -15,-42 -24,-67 -10,-25 -19,-50 -27,-76 -9,-26 -17,-51 -25,-76 -8,-25 -14,-46 -19,-63l-22 -77 -231 -41c-19,18 -40,39 -64,63 -24,24 -48,48 -73,71 -24,23 -48,46 -71,68 -23,22 -41,41 -55,56 89,15 188,34 298,58 110,24 214,52 313,84zm-888 -666c26,4 69,10 128,20 59,10 124,21 195,33 71,13 142,25 213,38 71,12 132,22 182,31l-85 -302 -633 180zm3474 -551l28 1113c-8,3 -20,6 -37,8 -16,3 -34,4 -53,5 -40,1 -71,-6 -95,-19 -23,-13 -36,-40 -37,-81l-12 -485c-21,-12 -52,-17 -93,-16 -57,1 -128,39 -212,114 -71,62 -134,107 -188,135 -55,28 -110,42 -166,44l-8 0c-41,1 -74,-8 -97,-26 -24,-19 -36,-46 -37,-81 -1,-30 5,-59 18,-87l74 -2c65,-1 119,-20 162,-55 43,-35 64,-84 62,-145 -1,-51 -16,-94 -44,-131 -28,-37 -74,-71 -136,-100l-77 -35c-18,-9 -31,-19 -40,-29 -9,-10 -14,-25 -15,-46 0,-19 5,-38 15,-56l-106 3c-54,1 -81,-28 -83,-88 0,-15 1,-30 4,-45 3,-15 8,-28 13,-39l1354 -35c53,-1 81,28 82,86 1,15 -1,30 -4,45 -3,16 -7,29 -12,42l-260 6zm-304 326c21,-1 39,0 54,3 15,2 28,5 39,9l-8 -332 -533 13c29,13 58,31 88,53 30,21 58,48 82,78 25,31 46,66 62,105 17,38 26,81 27,127l0 14c27,-20 57,-36 88,-49 32,-13 66,-20 101,-21zm1893 -100l-196 1095c-8,2 -21,2 -37,1 -17,-1 -34,-3 -53,-6 -39,-7 -69,-20 -89,-37 -21,-18 -28,-47 -20,-87l46 -260c-16,-37 -35,-71 -57,-104 -23,-34 -48,-63 -76,-89 -28,-26 -58,-48 -90,-66 -32,-18 -66,-30 -101,-37 -58,-10 -103,-4 -135,17 -32,21 -52,50 -58,86 -7,37 1,68 24,94 22,26 55,43 98,51 27,5 50,6 70,4 20,-2 38,-6 56,-11 21,30 28,65 21,104 -6,32 -27,57 -62,73 -36,17 -86,19 -152,7 -47,-8 -90,-22 -128,-43 -38,-21 -69,-47 -94,-77 -25,-31 -43,-67 -54,-107 -11,-40 -12,-84 -4,-131 10,-56 30,-102 60,-138 30,-35 65,-63 104,-82 -14,-26 -27,-60 -37,-101 -10,-40 -10,-87 -1,-139 6,-37 17,-70 30,-100 14,-30 30,-55 49,-76l-202 -36c-52,-9 -73,-43 -62,-102 2,-15 7,-30 13,-44 6,-14 12,-26 19,-36l1344 240c53,10 74,43 63,101 -2,15 -7,29 -12,43 -7,15 -13,27 -21,38l-256 -45zm-639 221c75,13 142,42 201,87 59,44 104,90 136,137l86 -484 -442 -79c-18,18 -34,41 -48,70 -13,29 -23,60 -29,95 -11,62 -8,118 10,167 23,-2 52,1 86,7zm2476 230c49,19 62,56 41,110 -6,14 -13,28 -22,40 -8,13 -18,24 -27,34l-240 -95 -405 1026c-32,13 -75,10 -128,-11 -10,-4 -20,-10 -29,-16 -52,-78 -103,-150 -153,-216 -50,-66 -101,-130 -153,-191 -52,-62 -107,-122 -164,-181 -57,-58 -118,-118 -184,-179 -2,-17 -1,-38 3,-64 5,-25 12,-52 23,-80 6,-14 12,-27 19,-40 7,-12 14,-23 20,-30l130 33c117,30 209,33 275,9 67,-25 113,-70 138,-135 21,-53 23,-97 4,-132 -18,-36 -46,-60 -83,-75 -38,-15 -75,-15 -109,-1 -35,14 -61,42 -78,84 -8,21 -13,41 -14,57 0,17 0,33 1,48 -33,25 -73,28 -120,10 -33,-13 -58,-39 -76,-77 -17,-37 -15,-84 7,-140 17,-42 40,-78 70,-107 30,-29 65,-51 105,-65 40,-15 83,-21 129,-19 47,2 94,13 144,33 51,20 95,46 132,78 37,33 65,69 84,111 19,41 29,86 30,134 1,48 -9,97 -29,148 -37,95 -102,162 -193,200 -92,38 -200,47 -325,25 38,37 77,77 115,121 39,43 77,87 114,131 36,45 71,89 102,131 32,43 61,82 86,119 4,-19 11,-41 19,-66 9,-26 18,-52 27,-78 9,-27 17,-52 26,-76 9,-23 16,-44 23,-60l217 -551c16,-41 42,-71 78,-92 36,-20 79,-20 130,0l240 95zm214 -553c25,11 44,28 56,51 12,22 14,46 4,72 -10,24 -38,45 -85,63 -19,8 -48,19 -86,34 -38,15 -80,30 -124,47 -45,16 -88,31 -129,45 -42,15 -75,25 -100,32 -34,-14 -58,-36 -73,-67 -14,-32 -15,-63 -3,-93 5,-13 10,-22 14,-28 30,-10 69,-22 115,-37 47,-14 96,-29 147,-44 50,-14 99,-28 146,-42 48,-14 87,-25 118,-33zm456 1511c-82,-25 -170,-44 -262,-56 -92,-12 -178,-17 -256,-16 52,99 99,196 140,294 42,97 74,179 96,245 9,-17 20,-37 32,-60 13,-23 25,-46 39,-69 13,-23 26,-46 39,-67 13,-22 24,-40 34,-55l138 -216z"/>
  <path class="fil19" d="M14750 2796l-61 95c62,43 115,89 159,139 44,50 77,103 100,157 22,54 32,108 29,162 -2,55 -20,108 -53,159 -27,43 -58,76 -92,100 -34,24 -68,39 -104,46 -35,8 -70,8 -104,1 -33,-7 -64,-20 -92,-37 -36,-24 -58,-51 -66,-81 -7,-31 -1,-61 18,-91 16,-24 32,-41 49,-49l28 17c32,21 64,29 96,23 32,-5 58,-25 80,-58 30,-47 32,-100 6,-157 -25,-57 -77,-115 -154,-174l-434 676c-34,8 -75,-4 -123,-35 -6,-4 -11,-7 -15,-10 -3,-4 -7,-7 -11,-11 -25,-77 -51,-149 -78,-217 -26,-68 -54,-134 -84,-198 -29,-63 -61,-126 -94,-189 -33,-62 -68,-127 -107,-194 1,-24 7,-50 18,-80 11,-30 25,-58 41,-84 4,-6 8,-12 12,-18 4,-6 9,-12 13,-17 61,-4 125,-4 192,0 67,3 134,9 202,17 69,9 136,21 201,34 66,14 128,31 186,50l59 -93 -640 -411c-21,-13 -33,-30 -37,-50 -5,-19 2,-43 19,-69 8,-13 17,-24 29,-35 12,-10 22,-19 31,-26l1395 894c20,13 33,30 38,49 4,19 -2,42 -19,68 -8,13 -17,25 -28,36 -11,10 -22,20 -34,27l-571 -366zm-9056 -380l-3 1 -449 289c24,-6 44,-5 60,3 17,8 29,19 37,31 10,15 15,29 16,42 1,12 1,24 0,36 -11,2 -22,5 -33,9 -11,4 -23,10 -37,19 -21,13 -36,33 -47,59 -11,26 -6,55 14,86 17,27 39,43 68,49 28,6 58,-1 89,-20 23,-15 45,-37 67,-65 21,-29 47,-71 76,-127l54 -108c22,1 49,5 81,12 32,7 66,19 102,35 36,17 72,40 107,69 36,29 68,66 97,111 37,58 58,117 65,179 6,62 -1,122 -21,180 -20,58 -53,114 -97,167 -44,52 -98,99 -163,140 -73,48 -150,81 -230,101 -80,19 -160,25 -240,17 -79,-8 -158,-30 -236,-66 -77,-37 -151,-87 -221,-151 -23,-19 -43,-40 -61,-62 -18,-21 -35,-44 -50,-69 -25,-38 -32,-73 -24,-105 9,-32 28,-58 60,-78 17,-11 32,-18 47,-22 14,-3 27,-5 39,-7l49 61c63,81 128,145 196,190 67,45 133,76 199,91 66,16 131,17 194,5 62,-12 121,-35 175,-70 33,-21 63,-46 88,-75 25,-29 44,-61 57,-94 12,-33 18,-68 15,-105 -2,-36 -15,-73 -38,-108 -37,-58 -79,-95 -127,-111 -25,50 -51,95 -78,134 -27,40 -68,76 -121,110 -33,22 -69,37 -107,46 -38,9 -75,11 -111,5 -36,-5 -70,-18 -103,-39 -33,-22 -62,-51 -86,-89 -34,-53 -49,-107 -45,-163 5,-55 23,-103 55,-145l-561 360c-21,13 -41,17 -61,13 -20,-4 -38,-20 -55,-46 -8,-13 -15,-27 -20,-41 -5,-15 -9,-28 -10,-40l1298 -832 75 -48c36,-23 72,-37 108,-40 36,-4 68,4 98,22 -9,-34 -7,-65 8,-92 14,-27 35,-50 64,-69l104 -66c20,-13 41,-18 60,-14 19,4 38,19 55,45 8,13 14,26 20,41 5,14 8,28 11,42l-137 87c-25,16 -41,35 -49,57 -7,21 0,48 21,81l558 871c-5,7 -14,16 -26,27 -13,11 -27,22 -45,33 -32,21 -62,32 -88,33 -27,1 -52,-17 -75,-52l-526 -820c-25,-39 -56,-47 -92,-23l-114 73zm1975 -797l301 1061c-8,13 -21,27 -39,40 -18,13 -41,23 -69,31 -10,3 -21,5 -32,5 -80,-26 -156,-48 -230,-68 -73,-20 -145,-38 -217,-53 -72,-16 -144,-30 -217,-42 -72,-12 -147,-23 -225,-32 -17,-17 -33,-38 -48,-65 -15,-27 -27,-56 -35,-86 -2,-7 -4,-14 -6,-22 -3,-8 -4,-15 -5,-22 17,-18 38,-39 65,-63 26,-25 53,-49 82,-75 28,-25 56,-49 83,-72 28,-24 50,-44 67,-60l-393 -54c-24,-4 -42,-9 -54,-16 -13,-7 -22,-20 -28,-40 -4,-14 -5,-29 -4,-44 2,-14 4,-28 8,-40l-75 21c-51,15 -85,-7 -101,-65 -5,-14 -7,-29 -8,-45 -1,-15 0,-29 2,-41l1205 -342 0 0 219 -62c41,-11 79,-14 114,-7 35,7 65,24 88,50 1,-36 12,-65 34,-86 21,-22 48,-38 81,-47l119 -34c23,-6 44,-5 61,4 18,9 31,29 40,59 4,15 6,30 7,45 1,15 0,30 -2,43l-155 44c-29,9 -50,22 -64,41 -13,18 -14,46 -4,83l283 996c-7,4 -18,10 -33,18 -15,7 -32,13 -52,19 -37,10 -68,12 -95,5 -26,-7 -44,-31 -56,-71l-266 -937c-13,-44 -40,-61 -82,-49l-14 4 -250 71zm44 906c-7,-19 -15,-42 -24,-67 -10,-25 -19,-50 -27,-76 -9,-26 -17,-51 -25,-76 -8,-25 -14,-46 -19,-63l-22 -77 -231 -41c-19,18 -40,39 -64,63 -24,24 -48,47 -73,71 -24,23 -48,46 -71,68 -23,22 -41,41 -55,56 89,15 188,34 298,58 110,24 214,52 313,84zm-888 -666c26,4 69,10 128,20 59,9 124,20 195,33 71,12 142,25 213,37 71,13 132,23 182,32l-85 -302 -633 180zm3474 -551l28 1113c-8,3 -20,6 -37,8 -16,2 -34,4 -53,4 -40,1 -71,-5 -95,-18 -23,-13 -36,-40 -37,-81l-12 -485c-21,-12 -52,-17 -93,-16 -57,1 -128,39 -212,114 -71,62 -134,106 -188,135 -55,28 -110,42 -166,44l-8 0c-41,1 -74,-8 -97,-26 -24,-19 -36,-46 -37,-81 -1,-30 5,-59 18,-87l74 -2c65,-1 119,-20 162,-55 43,-35 64,-84 62,-145 -1,-51 -16,-95 -44,-131 -28,-37 -74,-71 -136,-101l-77 -34c-18,-10 -31,-19 -40,-29 -9,-10 -14,-25 -15,-46 0,-19 5,-38 15,-56l-106 3c-54,1 -81,-28 -83,-88 0,-15 1,-30 4,-45 3,-15 8,-29 13,-40l1354 -34c53,-1 81,27 82,86 1,15 -1,30 -4,45 -3,16 -7,29 -12,42l-260 6zm-304 326c21,-1 39,0 54,3 15,2 28,5 39,9l-8 -332 -533 13c29,13 58,31 88,52 30,22 58,49 82,79 25,31 46,66 62,104 17,39 26,81 27,128l0 14c27,-20 57,-36 88,-49 32,-13 66,-20 101,-21zm1893 -100l-196 1095c-8,1 -21,2 -37,1 -17,-1 -34,-3 -53,-7 -39,-7 -69,-19 -89,-36 -21,-18 -28,-47 -20,-87l46 -260c-16,-37 -35,-71 -57,-104 -23,-34 -48,-63 -76,-89 -28,-26 -58,-48 -90,-66 -32,-18 -66,-30 -101,-37 -58,-10 -103,-5 -135,17 -32,21 -52,50 -58,86 -7,37 1,68 24,94 22,26 55,43 98,51 27,5 50,6 70,4 20,-2 38,-6 56,-11 21,30 28,65 21,104 -6,32 -27,57 -62,73 -36,17 -86,19 -152,7 -47,-8 -90,-23 -128,-43 -38,-21 -69,-47 -94,-78 -25,-30 -43,-66 -54,-106 -11,-40 -12,-84 -4,-131 10,-56 30,-102 60,-138 30,-35 65,-63 104,-82 -14,-26 -27,-60 -37,-101 -10,-40 -10,-87 -1,-139 6,-37 17,-70 30,-100 14,-30 30,-55 49,-76l-202 -36c-52,-9 -73,-43 -62,-102 2,-15 7,-30 13,-44 6,-14 12,-26 19,-36l1344 240c53,9 74,43 63,101 -2,15 -7,29 -12,43 -7,15 -13,27 -21,38l-256 -45zm-639 221c75,13 142,42 201,87 59,44 104,90 136,137l86 -484 -442 -79c-18,18 -34,41 -48,70 -13,28 -23,60 -29,95 -11,62 -8,118 10,167 23,-2 52,1 86,7zm2476 230c49,19 62,55 41,110 -6,14 -13,27 -22,40 -8,13 -18,24 -27,33l-240 -94 -405 1025c-32,14 -75,11 -128,-10 -10,-4 -20,-10 -29,-16 -52,-78 -103,-150 -153,-216 -50,-66 -101,-130 -153,-191 -52,-62 -107,-122 -164,-181 -57,-58 -118,-118 -184,-179 -2,-17 -1,-38 3,-64 5,-25 12,-52 23,-80 6,-14 12,-27 19,-40 7,-12 14,-23 20,-31l130 34c117,30 209,33 275,8 67,-24 113,-69 138,-134 21,-53 23,-97 4,-132 -18,-36 -46,-61 -83,-75 -38,-15 -75,-16 -109,-1 -35,14 -61,42 -78,84 -8,21 -13,40 -14,57 0,17 0,33 1,48 -33,25 -73,28 -120,9 -33,-13 -58,-38 -76,-76 -17,-37 -15,-84 7,-140 17,-42 40,-78 70,-107 30,-29 65,-51 105,-65 40,-15 83,-21 129,-19 47,2 94,13 144,33 51,20 95,46 132,78 37,33 65,69 84,111 19,41 29,86 30,134 1,48 -9,97 -29,148 -37,95 -102,162 -193,200 -92,38 -200,47 -325,25 38,37 77,77 115,121 39,43 77,87 114,131 36,45 71,89 102,131 32,43 61,82 86,119 4,-19 11,-41 19,-66 9,-26 18,-52 27,-78 9,-27 17,-52 26,-76 9,-24 16,-44 23,-60l217 -551c16,-41 42,-71 78,-92 36,-20 79,-20 130,0l240 95zm214 -553c25,11 44,28 56,51 12,22 14,46 4,72 -10,24 -38,45 -85,63 -19,7 -48,19 -86,34 -38,15 -80,30 -124,46 -45,17 -88,32 -129,46 -42,15 -75,25 -100,32 -34,-14 -58,-36 -73,-68 -14,-31 -15,-62 -3,-92 5,-13 10,-22 14,-28 30,-10 69,-22 115,-37 47,-15 96,-29 147,-44 50,-14 99,-28 146,-42 48,-14 87,-25 118,-33zm456 1511c-82,-25 -170,-44 -262,-56 -92,-12 -178,-17 -256,-16 52,98 99,196 140,294 42,97 74,179 96,245 9,-17 20,-37 32,-60 13,-23 25,-46 39,-69 13,-23 26,-46 39,-67 13,-22 24,-40 34,-55l138 -216z"/>
  <path class="fil20" d="M14715 2909c51,38 95,78 133,121 44,50 77,103 100,157 22,54 32,108 29,162l-1 13c-3,-39 -12,-78 -28,-117 -23,-54 -56,-106 -100,-157 -44,-50 -97,-96 -159,-139l26 -40zm-248 632l-1 -4c-7,-31 -1,-61 18,-91 16,-24 32,-41 49,-49l28 17c32,21 64,29 96,23 32,-5 58,-25 80,-58 10,-17 18,-34 21,-52 8,39 1,76 -21,110 -22,33 -48,53 -80,58 -32,6 -64,-2 -96,-23l-28 -17c-17,8 -33,25 -49,49 -7,12 -13,24 -17,37zm-817 -659l-7 -12c1,-24 7,-50 18,-80 11,-30 25,-58 41,-84 4,-6 8,-12 12,-18 4,-6 9,-12 13,-17 61,-4 125,-4 192,0 67,3 134,9 202,17 69,9 136,21 201,34 66,14 128,31 186,50l33 -52 26 17 -59 93c-58,-19 -120,-36 -186,-50 -65,-13 -132,-25 -201,-33 -68,-9 -135,-15 -202,-18 -67,-4 -131,-3 -192,0 -4,5 -9,11 -13,17 -4,6 -8,12 -12,18 -16,26 -30,55 -41,84 -5,12 -8,23 -11,34zm245 -649c-3,-4 -4,-9 -5,-15 -5,-19 2,-43 19,-69 8,-13 17,-24 29,-35 12,-10 22,-19 31,-26l1395 894c20,13 33,30 38,49 3,13 1,27 -6,44 -6,-13 -17,-25 -32,-35l-1395 -894c-9,7 -19,16 -31,27 -12,10 -21,21 -29,34 -6,9 -11,18 -14,26zm-8580 484c10,6 19,14 24,23 10,15 15,29 16,42 1,12 1,24 0,36l-5 1c-3,-7 -6,-13 -11,-21 -8,-12 -20,-23 -37,-31 -16,-8 -36,-9 -60,-3l73 -47zm-77 246c3,9 8,19 14,28 17,27 39,43 68,49 28,6 58,-1 89,-20 23,-15 45,-37 67,-65 21,-29 47,-71 76,-127l54 -108c22,1 49,5 81,12 32,7 66,19 102,35 36,17 72,40 107,69 36,29 68,66 97,111 37,58 58,117 65,179 2,24 3,48 1,72l-1 -14c-7,-62 -28,-121 -65,-179 -29,-45 -61,-82 -97,-111 -35,-29 -71,-52 -107,-69 -36,-16 -70,-28 -102,-35 -32,-7 -59,-11 -81,-12l-54 108c-29,56 -55,98 -76,127 -22,28 -44,50 -67,65 -31,20 -61,26 -89,20 -29,-6 -51,-22 -68,-49 -20,-31 -25,-59 -14,-86zm-522 371c-5,-20 -6,-38 -1,-56 9,-32 28,-58 60,-78 17,-11 32,-18 47,-22 14,-3 27,-5 39,-7l49 61c63,81 128,145 196,190 67,45 133,76 199,91 66,16 131,17 194,5 62,-12 121,-35 175,-70 33,-21 63,-46 88,-75 25,-29 44,-61 57,-94 7,-19 12,-38 14,-58l1 11c3,37 -3,72 -15,105 -13,33 -32,65 -57,94 -25,29 -55,54 -88,76 -54,34 -113,58 -175,69 -63,12 -128,11 -194,-5 -66,-15 -132,-45 -199,-91 -68,-45 -133,-108 -196,-190l-49 -61c-12,2 -25,4 -39,7 -15,4 -30,11 -47,22 -31,19 -50,44 -59,76zm303 -327c-1,-16 -2,-32 -1,-48 2,-20 6,-40 11,-59l44 -28c-30,39 -48,84 -54,135zm-640 103l-3 -10c-5,-15 -9,-28 -10,-40l1298 -832 75 -48c36,-23 72,-37 108,-40 34,-3 66,3 94,20 -3,19 -2,39 4,60 -30,-18 -62,-26 -98,-22 -36,4 -72,17 -108,40l-75 48 -1285 824zm1564 -957c-7,-31 -4,-59 10,-83 14,-27 35,-50 64,-69l104 -66c20,-13 41,-18 60,-14 19,4 38,19 55,45 8,13 14,26 20,41 5,14 8,28 11,42l-14 8c-5,-11 -11,-22 -17,-33 -17,-26 -36,-41 -55,-45 -19,-4 -40,1 -60,14l-104 66c-29,19 -50,42 -64,69 -5,8 -8,16 -10,25zm142 89c4,10 9,20 17,32l558 871c-5,6 -12,14 -22,23l-536 -836c-21,-33 -28,-60 -21,-81 1,-3 3,-6 4,-9zm1599 -569l286 1007c-3,5 -7,11 -12,16l-289 -1019 15 -4zm-825 739l-1 -2c-2,-7 -4,-14 -6,-22 -3,-8 -4,-15 -5,-22 17,-18 38,-39 65,-63 26,-25 53,-49 82,-75 28,-25 56,-49 83,-72l11 -9 56 7c-17,17 -39,36 -67,60 -27,23 -55,47 -83,73 -29,25 -56,49 -82,74 -21,19 -39,36 -53,51zm-191 -430c-2,-7 -3,-13 -3,-20l8 -2c-2,7 -4,14 -5,22zm-177 -150c-1,-6 -2,-12 -2,-19 -1,-15 0,-29 2,-41l1205 -342 0 0 219 -62c41,-11 79,-14 114,-7 35,7 65,24 88,50 1,-36 12,-65 34,-86 21,-22 48,-38 81,-47l119 -34c23,-6 44,-5 61,4 18,9 31,29 40,59 4,15 6,30 7,45 1,15 0,29 -2,42 -1,-10 -3,-19 -5,-29 -9,-30 -22,-50 -40,-59 -17,-9 -38,-10 -61,-4l-119 34c-33,9 -60,25 -81,47 -22,21 -33,50 -34,86 -23,-26 -53,-43 -88,-50 -35,-7 -73,-4 -114,7l-219 62 0 0 -1205 343 0 1zm1740 -280l3 11 283 996c-4,2 -8,5 -14,8l-269 -946c-8,-29 -9,-52 -3,-69zm-1081 839c77,14 160,30 250,50 101,22 198,48 289,76 9,25 17,47 24,66 -99,-32 -203,-60 -313,-84 -110,-24 -209,-43 -298,-58 12,-14 29,-30 48,-50zm-193 -512c58,10 121,21 191,33 71,12 142,25 213,37 63,12 118,21 165,29l17 61c-50,-9 -111,-19 -182,-31 -71,-13 -142,-25 -213,-38 -71,-12 -136,-23 -195,-33 -59,-10 -102,-16 -128,-20l132 -38zm3343 -513l27 1055 -2 0 -26 -1055 1 0zm-1006 675c-1,-7 -2,-14 -2,-22 -1,-30 5,-59 18,-87l74 -2c65,-1 119,-20 162,-55 35,-29 55,-65 61,-111 0,8 1,16 1,24 2,61 -19,110 -62,145 -43,35 -97,54 -162,55l-74 2c-8,17 -13,34 -16,51zm6 -625c-2,-7 -3,-15 -4,-24l15 -1c-5,9 -8,17 -11,25zm-175 -145c-2,-7 -2,-15 -3,-23 0,-15 1,-30 4,-45 3,-15 8,-29 13,-40l1354 -34c53,-1 81,27 82,86 1,12 0,24 -2,35 -8,-43 -34,-64 -80,-63l-1354 35c-5,11 -10,24 -13,39l-1 10zm870 363c21,-1 39,0 54,3 14,2 27,5 37,8l2 59c-11,-4 -24,-7 -39,-9 -15,-3 -33,-4 -54,-3 -35,1 -69,8 -101,21 -31,13 -61,29 -88,49l0 -14c-1,-46 -10,-89 -27,-127 -16,-39 -37,-74 -62,-105 -24,-30 -52,-57 -82,-78 -30,-22 -59,-40 -88,-53l93 -2c28,21 54,46 77,75 25,31 46,66 62,104 17,39 26,81 27,128l0 14c27,-20 57,-36 88,-49 32,-13 66,-20 101,-21zm1498 921c-4,-15 -4,-33 0,-55l39 -219 7 17 -46 257zm-470 -456c4,15 12,29 23,42 22,26 55,43 98,51 27,5 50,6 70,4 20,-2 38,-6 56,-11 21,30 28,65 21,104l0 1c-4,-16 -11,-32 -21,-47 -18,5 -36,9 -56,11 -20,2 -43,1 -70,-4 -43,-8 -76,-25 -98,-51 -23,-26 -31,-57 -24,-94l1 -6zm-230 0c-3,-27 -2,-57 4,-88 10,-56 30,-102 60,-138 25,-29 52,-53 83,-71 7,18 14,33 21,47 -39,19 -74,47 -104,82 -30,36 -50,82 -60,138 -2,10 -3,20 -4,30zm124 -448c-2,-31 0,-64 6,-100 6,-37 17,-70 30,-100 4,-8 8,-16 12,-24l37 6c-19,21 -35,46 -49,76 -13,30 -24,63 -30,100 -3,14 -4,28 -6,42zm-179 -361c-4,-14 -4,-32 0,-53 2,-15 7,-30 13,-44 6,-14 12,-26 19,-36l1344 240c53,9 74,43 63,101l-1 5c-7,-26 -28,-42 -62,-48l-1344 -240c-7,10 -13,22 -19,36 -6,13 -10,26 -13,39zm511 465c75,13 142,42 201,87 59,44 104,90 136,137l76 -428 10 2 -86 484c-32,-47 -77,-93 -136,-137 -59,-45 -126,-74 -201,-87 -34,-6 -63,-9 -86,-7 -14,-39 -19,-81 -15,-128 2,25 7,48 15,70 23,-2 52,1 86,7zm2476 230c45,17 60,49 45,96 -7,-17 -22,-29 -45,-38l-240 -95c-51,-20 -94,-20 -130,0 -36,21 -62,51 -78,92l-217 551c-7,16 -14,37 -23,60 -9,24 -17,49 -26,76 -9,26 -18,52 -27,78 -8,25 -15,47 -19,66 -25,-37 -54,-76 -86,-119 -31,-42 -66,-86 -102,-131 -37,-44 -75,-88 -114,-131 -38,-44 -77,-84 -115,-121 23,4 44,7 66,9 16,17 33,35 49,54 39,43 77,87 114,131 36,45 71,89 102,131 32,43 61,82 86,119 4,-19 11,-41 19,-66 9,-26 18,-52 27,-78 9,-27 17,-52 26,-76 9,-24 16,-44 23,-60l217 -551c16,-41 42,-71 78,-92 36,-20 79,-20 130,0l240 95zm-1462 323l-2 -2c-2,-17 -1,-38 3,-64 5,-25 12,-52 23,-80 6,-14 12,-27 19,-40 7,-12 14,-23 20,-31l130 34c117,30 209,33 275,8 67,-24 113,-69 138,-134 7,-16 11,-32 14,-47 7,30 2,65 -14,105 -25,65 -71,110 -138,135 -66,24 -158,21 -275,-9l-130 -33c-6,7 -13,18 -20,30 -7,13 -13,26 -19,40 -11,28 -18,55 -23,80l-1 8zm327 -329l0 1 0 0 0 -1zm-205 -93c-6,-32 -1,-70 16,-113 17,-42 40,-78 70,-107 30,-29 65,-51 105,-65 40,-15 83,-21 129,-19 47,2 94,13 144,33 51,20 95,46 132,78 37,33 65,69 84,111 19,41 29,86 30,134 0,11 0,23 -1,34 -3,-39 -13,-76 -29,-110 -19,-42 -47,-78 -84,-111 -37,-32 -81,-58 -132,-78 -50,-20 -97,-31 -144,-33 -46,-2 -89,4 -129,19 -40,14 -75,36 -105,65 -30,29 -53,65 -70,107 -8,19 -13,38 -16,55zm1554 -454c25,11 44,28 56,51 12,21 13,44 5,68 -2,-3 -3,-7 -5,-10 -12,-23 -31,-40 -56,-51 -31,8 -70,19 -118,33 -47,14 -96,28 -146,42 -51,15 -100,30 -147,44 -46,15 -85,27 -115,37 -4,6 -9,15 -14,28 -1,4 -3,9 -4,13 -6,-24 -5,-48 4,-71 5,-13 10,-22 14,-28 30,-10 69,-22 115,-37 47,-15 96,-29 147,-44 50,-14 99,-28 146,-42 48,-14 87,-25 118,-33zm-32 1497c40,79 77,157 110,236 42,97 74,179 96,245 9,-17 20,-37 32,-60 13,-23 25,-46 39,-69 13,-23 26,-46 39,-67 13,-22 24,-40 34,-55l107 -167 31 9 -138 216c-10,15 -21,33 -34,55 -13,21 -26,44 -39,67 -14,23 -26,46 -39,69 -12,23 -23,43 -32,60 -22,-66 -54,-148 -96,-245 -41,-98 -88,-195 -140,-294l30 0z"/>
  <path class="fil21" d="M11361 3587l-115 649c-5,1 -12,1 -22,1 -9,0 -20,-1 -32,-3 -22,-4 -39,-11 -51,-21 -12,-10 -16,-28 -11,-52l105 -597 -46 -8 -149 -26 -113 639c-5,1 -13,1 -22,0 -10,0 -20,-1 -31,-3 -23,-4 -40,-11 -52,-22 -12,-10 -16,-27 -12,-50l35 -197c-8,-21 -17,-41 -28,-59 -11,-19 -23,-36 -38,-51 -14,-15 -29,-28 -46,-39 -17,-11 -35,-18 -53,-21 -29,-5 -54,-2 -73,11 -20,12 -32,30 -36,55 -3,13 -3,25 -1,37 2,11 5,22 8,32 -8,8 -18,15 -30,20 -12,5 -26,7 -42,4 -23,-4 -42,-17 -57,-39 -15,-23 -19,-53 -12,-92 5,-30 15,-56 31,-76 15,-21 34,-37 56,-49 22,-12 46,-20 73,-23 27,-4 54,-3 82,2 24,4 46,11 67,20 21,10 39,21 55,33 16,12 30,25 42,39 11,13 21,27 30,40l41 -234 -464 -82c-31,-5 -43,-25 -37,-60 2,-8 4,-17 8,-25 3,-8 7,-15 11,-21l670 119 137 24c-11,-51 -27,-95 -49,-134 -23,-39 -49,-72 -80,-100 -31,-27 -65,-50 -102,-67 -38,-17 -78,-29 -120,-37 -31,-5 -58,-8 -82,-8 -24,0 -44,3 -60,7 -17,4 -30,10 -39,18 -10,7 -15,14 -16,22 -4,19 9,31 38,36l250 44c31,6 44,27 37,63 -1,8 -3,15 -7,22 -3,6 -6,12 -9,16l-317 -56c-46,-8 -80,-24 -101,-49 -21,-24 -29,-54 -23,-89 5,-25 17,-47 36,-66 20,-20 45,-36 76,-48 31,-11 67,-19 108,-22 41,-3 85,0 132,8 64,12 123,31 175,59 52,27 97,61 136,101 39,40 70,85 94,137 23,51 40,106 49,165l129 23c14,2 25,8 32,18 7,9 8,23 5,41 -1,8 -4,17 -8,25 -4,8 -7,16 -11,22l-151 -26zm-2926 19c15,2 26,6 33,14 8,8 12,16 14,24 3,11 3,19 1,26 -2,7 -5,14 -7,20 -7,-1 -14,-1 -20,-1 -7,0 -15,1 -24,3 -14,3 -27,11 -38,23 -11,12 -14,29 -9,50 4,18 13,31 28,40 14,9 32,11 53,7 15,-4 32,-12 49,-23 18,-11 40,-29 67,-55l51 -48c12,4 26,12 42,22 16,10 33,23 49,40 16,16 32,35 45,58 14,23 25,50 32,80 9,39 9,76 0,111 -8,35 -24,67 -47,95 -22,28 -51,52 -85,73 -35,20 -74,35 -117,45 -50,12 -99,15 -147,10 -47,-5 -92,-17 -135,-38 -42,-20 -81,-47 -116,-82 -36,-36 -67,-78 -93,-126 -8,-16 -15,-31 -21,-46 -5,-16 -10,-32 -14,-48 -6,-26 -3,-47 8,-63 11,-16 27,-26 48,-31 12,-3 22,-3 30,-3 8,1 16,3 23,4l15 43c19,58 42,105 70,143 28,38 59,68 92,89 33,22 68,35 105,41 37,6 74,5 110,-4 23,-5 44,-13 63,-24 20,-11 36,-25 50,-40 13,-16 23,-35 29,-55 6,-21 6,-43 0,-67 -8,-39 -24,-68 -48,-86 -23,23 -46,42 -69,58 -23,17 -52,29 -88,37 -22,6 -45,7 -68,4 -22,-2 -43,-9 -62,-18 -18,-11 -35,-25 -49,-43 -13,-18 -23,-39 -29,-65 -9,-36 -6,-68 7,-98 13,-30 33,-53 58,-69l-378 87c-14,3 -26,2 -36,-5 -10,-6 -17,-18 -22,-36 -2,-8 -3,-17 -3,-26 0,-9 1,-17 3,-24l798 -184 0 0 129 -30c24,-6 46,-6 67,-1 20,5 37,16 49,32 2,-21 10,-38 23,-50 13,-12 29,-20 49,-24l70 -17c14,-3 26,-1 36,4 9,6 17,18 21,36 2,9 3,17 3,26 0,9 -1,18 -3,25l-92 22c-17,4 -29,11 -38,21 -8,11 -9,27 -4,49l136 588c-5,3 -11,6 -20,9 -9,4 -20,7 -31,10 -22,5 -40,5 -55,0 -15,-4 -26,-19 -31,-43l-128 -553c-6,-26 -22,-37 -46,-31l-77 18 -1 0 -305 70zm1003 -162l15 660c-4,2 -12,4 -21,5 -10,2 -20,3 -32,4 -23,0 -41,-3 -54,-11 -14,-8 -21,-24 -22,-49l-14 -606 -89 2c-30,1 -45,-16 -46,-51 -1,-9 0,-18 2,-26 2,-9 4,-17 7,-23l114 -3c-10,-11 -18,-25 -24,-42 -7,-18 -10,-37 -11,-59 -1,-34 6,-65 21,-93 15,-28 37,-52 65,-73 28,-20 62,-36 102,-48 40,-12 85,-18 134,-19 45,-2 87,1 126,8 39,7 75,15 106,24 31,10 58,20 81,31 23,11 41,21 53,28 23,15 38,28 45,39 8,11 12,22 12,33 0,16 -4,29 -13,39 -9,10 -20,18 -32,23 -49,-32 -105,-60 -168,-84 -63,-23 -131,-34 -203,-33 -62,2 -110,15 -145,40 -35,25 -52,58 -51,99 1,21 4,38 11,52 7,13 15,24 24,32l84 -2 0 0 801 -19c30,-1 46,16 47,50 0,9 -1,18 -3,27 -1,9 -3,17 -6,24l-151 3 15 643c-6,7 -16,13 -28,17 -12,5 -27,7 -43,8 -7,0 -13,-1 -20,-2 -41,-26 -81,-50 -119,-72 -38,-22 -77,-42 -115,-62 -38,-19 -77,-38 -116,-55 -39,-18 -80,-35 -123,-51 -7,-12 -13,-27 -18,-44 -4,-17 -6,-35 -7,-54 0,-4 0,-8 0,-13 0,-4 0,-9 1,-13 11,-7 27,-16 45,-26 19,-10 38,-20 57,-30 20,-10 39,-20 58,-29 19,-9 35,-17 46,-24l-213 -88c-13,-5 -23,-11 -29,-17 -6,-6 -9,-14 -9,-26 -1,-9 1,-18 4,-26 3,-8 6,-15 10,-21l-9 0 -152 3zm657 500c-1,-12 -2,-25 -4,-41 -1,-15 -3,-31 -4,-47 -1,-16 -2,-31 -3,-47 0,-15 -1,-27 -1,-38l-1 -46 -125 -57c-13,7 -28,16 -45,26 -17,10 -34,20 -52,29 -17,10 -34,19 -50,28 -16,9 -29,17 -39,24 48,21 102,47 160,76 59,30 113,61 164,93zm-404 -506c15,6 38,16 70,30 31,14 66,30 105,48 38,17 76,34 115,52 38,17 71,32 98,44l-4 -183 -384 9z"/>
  <g id="_1070300472">
   <path class="fil22" d="M8025 8374c400,4 743,242 886,615 140,365 52,763 -250,1024 -205,177 -293,395 -322,653 -28,262 -251,465 -502,469 -266,5 -492,-185 -535,-452 -4,-25 -11,-55 -2,-75 14,-28 42,-67 64,-66 29,0 65,28 84,54 16,22 10,59 17,89 36,174 197,302 369,294 184,-9 333,-150 354,-332 8,-75 21,-151 37,-226 41,-200 147,-360 304,-490 156,-128 245,-294 279,-494 69,-411 -239,-836 -651,-893 -280,-38 -519,37 -712,247 -34,37 -69,67 -116,22 -44,-41 -35,-84 0,-129 149,-190 421,-312 696,-310zm5540 544l-2 0 -84 0 0 842c-6,2 -18,4 -34,7 -17,3 -35,4 -55,4 -37,0 -67,-7 -89,-20 -22,-13 -33,-40 -33,-82l0 -237c-27,-51 -61,-92 -101,-122 -39,-31 -81,-46 -124,-46 -34,0 -62,9 -83,29 -22,19 -33,43 -33,72 0,18 2,33 6,44 5,12 10,25 16,40 -10,15 -24,28 -41,38 -17,11 -38,16 -65,16 -37,0 -69,-14 -97,-41 -28,-28 -42,-70 -42,-127 0,-41 8,-78 23,-110 16,-33 38,-60 65,-82 28,-22 60,-39 96,-50 37,-11 76,-17 118,-17 31,0 60,4 86,10 26,6 51,15 73,25 22,11 42,22 59,34 18,13 32,25 44,38l0 -265 -499 0 -108 0 -1 0 -56 0c-17,11 -35,27 -53,51 -19,23 -36,51 -51,84 -15,34 -28,71 -38,113 -10,42 -15,86 -15,132 0,52 6,98 17,139 12,41 28,77 48,107 20,31 42,57 67,79 25,21 51,39 79,53 1,5 1,10 1,16 0,5 0,10 0,15 0,32 -9,58 -28,77 -18,19 -44,28 -76,28 -35,0 -72,-11 -110,-32 -38,-22 -73,-53 -104,-95 -31,-41 -57,-91 -77,-151 -21,-60 -31,-127 -31,-202 0,-93 13,-174 40,-242 27,-68 60,-126 99,-172l-139 0 -114 0 -1 0 -3 0c-23,0 -42,5 -56,17 -14,11 -21,32 -21,64l0 780c-7,2 -18,4 -34,7 -17,3 -35,4 -55,4 -37,0 -67,-7 -89,-20 -22,-13 -33,-40 -33,-82l0 -718c0,-16 -4,-28 -13,-38 -8,-9 -19,-14 -32,-14l-1 0 -100 0 -1 0 -85 0 0 842c-6,2 -17,4 -34,7 -16,3 -34,4 -54,4 -37,0 -67,-7 -89,-20 -22,-13 -34,-40 -34,-82l0 -610c-11,-42 -32,-76 -61,-102 -30,-26 -66,-39 -108,-39 -45,0 -81,13 -109,39 -28,26 -42,62 -42,108 0,43 14,76 41,101 28,25 61,37 100,37 23,0 40,-2 53,-6 7,11 13,23 16,37 4,15 6,28 6,42 0,39 -12,68 -36,86 -24,18 -57,27 -99,27 -40,0 -78,-11 -114,-31 -36,-21 -63,-50 -81,-88 -15,36 -41,65 -78,88 -38,23 -82,34 -131,34 -42,0 -77,-10 -103,-29 -27,-20 -40,-48 -40,-85 0,-36 8,-65 24,-86 10,4 22,7 35,9 12,2 26,2 41,2 40,0 73,-11 100,-34 26,-23 39,-58 39,-105 0,-42 -14,-77 -41,-105 -29,-27 -73,-41 -133,-41l-19 0 -74 0 -1 0 -44 0c-18,9 -37,26 -58,50 -20,24 -39,53 -57,87 -17,34 -32,73 -43,116 -11,43 -16,87 -16,134 0,49 6,94 17,133 12,39 28,74 48,105 20,30 42,57 67,79 25,22 51,40 79,54 1,5 1,10 1,16 0,5 0,10 0,15 0,32 -9,58 -28,77 -18,19 -44,28 -76,28 -35,0 -71,-11 -109,-32 -38,-22 -72,-53 -104,-95 -32,-41 -58,-91 -78,-151 -21,-60 -31,-127 -31,-202 0,-89 12,-169 37,-240 25,-72 55,-132 92,-182 36,-50 75,-88 116,-115 42,-27 79,-40 113,-40l21 0 75 0 74 0c76,0 137,12 182,37 45,25 78,56 98,93 27,-48 62,-85 107,-111 45,-25 97,-38 157,-38 44,0 86,9 125,27 39,18 71,45 95,82 8,-26 24,-48 46,-65 22,-17 51,-25 87,-25l67 0 109 0 75 0c33,0 64,6 92,19 28,12 50,32 65,58 11,-27 28,-47 50,-59 13,-7 27,-12 43,-15l2 -3 32 0 83 0 428 0 108 0 796 0 109 0 75 0c34,0 65,6 93,19 28,12 49,32 64,58 12,-27 29,-47 51,-59 22,-12 48,-18 77,-18l81 0c23,0 40,6 53,19 14,12 20,33 20,63 0,16 -2,31 -5,44 -4,14 -9,26 -14,37l-117 0c-23,0 -42,5 -56,17 -15,11 -22,32 -22,64l0 780c-6,2 -17,4 -34,7 -16,3 -34,4 -55,4 -37,0 -66,-7 -88,-20 -23,-13 -34,-40 -34,-82l0 -718c0,-16 -4,-28 -12,-38 -9,-9 -20,-14 -33,-14l-1 0 -99 0zm-2453 1842c-5,-10 -7,-21 -7,-34 0,-11 2,-21 6,-31 3,-9 8,-17 14,-22 15,3 33,5 54,6 20,1 40,2 57,2 65,0 114,-13 149,-39 35,-27 52,-62 52,-106 0,-34 -9,-61 -27,-80 -19,-18 -42,-27 -69,-27 -26,0 -47,8 -64,24 -17,16 -25,38 -25,66 0,9 1,17 3,25 2,8 4,15 7,20 -12,18 -31,27 -55,27 -18,0 -34,-7 -49,-21 -14,-14 -21,-36 -21,-66 0,-21 4,-40 12,-58 7,-18 18,-33 32,-47 14,-14 31,-25 50,-34 19,-9 40,-15 63,-18l-228 0c-27,0 -40,-15 -40,-46 0,-7 1,-15 3,-22 1,-8 4,-14 6,-20l411 0c3,-5 6,-11 7,-17 2,-5 3,-12 3,-20 0,-16 -6,-29 -19,-39 -12,-10 -33,-15 -63,-15 -12,0 -22,0 -31,1 -8,0 -17,0 -25,1 -9,0 -18,0 -28,1 -11,0 -23,0 -38,0 -56,0 -99,-12 -130,-36 -31,-25 -47,-56 -47,-95 0,-25 6,-45 18,-59 11,-14 27,-21 47,-21 12,0 21,2 29,5 7,3 13,7 18,10 -1,5 -1,10 -1,15 -1,5 -1,11 -1,18 0,51 30,76 91,76 21,0 41,-1 60,-2 20,-1 41,-1 63,-1 52,0 92,11 119,33 28,22 41,51 41,88 0,12 -1,22 -4,32 -3,9 -7,18 -11,25l45 0 32 0 66 0c-9,-9 -15,-21 -20,-37 -5,-15 -8,-31 -8,-50 0,-29 7,-56 20,-79 13,-24 32,-44 57,-61 25,-17 54,-31 89,-40 34,-9 73,-14 115,-14 38,0 74,4 108,10 33,7 63,14 90,23 27,9 50,18 69,28 20,10 35,19 45,25 19,13 32,25 38,34 6,10 9,19 9,29 0,14 -4,25 -12,33 -8,9 -17,15 -28,19 -41,-28 -88,-53 -142,-75 -54,-22 -112,-32 -174,-32 -53,0 -94,10 -124,31 -31,21 -46,49 -46,84 0,17 3,32 8,44 6,12 12,22 20,28l72 0 32 0 796 0 38 0 595 0 62 0 52 0c21,0 40,5 56,13 16,8 28,20 35,36 6,-17 15,-30 29,-37 13,-8 28,-12 45,-12l62 0c12,0 22,4 29,11 7,6 11,18 11,34 0,7 -1,15 -3,22 -1,8 -4,14 -6,21l-81 0c-15,0 -27,3 -36,10 -9,8 -14,21 -14,40l0 518c-4,1 -10,3 -18,4 -8,1 -18,2 -28,2 -19,0 -34,-3 -46,-10 -12,-7 -17,-21 -17,-42l0 -488c0,-23 -11,-34 -33,-34l-6 0 -62 0 -70 0 0 552c-5,5 -13,10 -24,13 -10,4 -23,6 -37,6 -6,0 -11,-1 -17,-2 -35,-23 -68,-45 -101,-64 -32,-20 -65,-38 -97,-56 -33,-17 -66,-34 -99,-49 -33,-16 -68,-31 -104,-46 -6,-11 -11,-23 -14,-38 -4,-15 -5,-31 -5,-47 0,-3 0,-7 0,-11 0,-4 0,-8 1,-11 10,-6 23,-14 39,-22 16,-8 33,-16 50,-24 17,-9 34,-16 50,-24 17,-7 30,-14 40,-19l-181 -80c-11,-5 -19,-10 -24,-15 -6,-5 -8,-13 -8,-23 0,-8 1,-15 4,-22 3,-7 6,-13 9,-18l-7 0 -38 0 -290 0 0 176c17,-10 38,-23 62,-38 23,-16 47,-31 70,-45 12,8 25,18 38,31 12,12 24,27 34,44 11,17 20,36 27,57 6,21 10,45 10,71 0,41 -9,77 -25,109 -17,31 -40,58 -69,79 -28,21 -62,37 -101,48 -38,11 -79,16 -122,16 -49,0 -96,-6 -141,-20 -45,-13 -86,-33 -123,-59 -37,-26 -69,-59 -96,-98 -28,-38 -48,-83 -62,-134 -3,-10 -5,-21 -6,-33 -2,-13 -3,-24 -3,-33 0,-25 5,-44 16,-59 11,-14 28,-21 51,-21 9,0 17,1 24,3 7,3 13,5 18,8l3 37c5,55 18,102 37,142 20,39 44,72 73,98 29,25 62,44 98,57 36,13 74,19 113,19 27,0 53,-3 77,-11 25,-7 46,-17 64,-31 19,-15 33,-31 44,-51 11,-19 16,-41 16,-66 0,-20 -2,-37 -7,-51 -4,-14 -10,-26 -17,-35 -25,16 -49,31 -71,43 -23,13 -47,25 -71,37 -13,-3 -26,-11 -39,-22 -13,-11 -22,-21 -28,-31l0 -53c-5,-9 -13,-17 -23,-22 -9,-6 -20,-9 -31,-9 -17,0 -31,6 -40,16 -9,10 -14,22 -14,36 0,7 1,14 2,20 2,6 4,12 7,18 -3,7 -9,14 -17,20 -8,6 -18,8 -31,8 -17,0 -33,-6 -46,-20 -14,-14 -20,-34 -20,-61 0,-20 3,-38 10,-54 8,-16 18,-29 30,-39 13,-11 28,-19 45,-25 17,-5 35,-8 54,-8 17,0 31,2 43,6 12,4 22,10 31,17l0 -87 -401 0 -31 0 -99 0 0 566c-4,1 -11,3 -19,4 -8,1 -17,2 -28,2 -19,0 -34,-3 -46,-10 -11,-7 -17,-21 -17,-42l0 -520 -43 0 -33 0 -241 0c25,3 47,10 68,20 21,10 39,23 55,39 16,17 28,36 37,58 9,22 13,47 13,74 0,35 -6,66 -20,92 -13,26 -31,48 -54,65 -23,18 -50,32 -80,41 -30,9 -62,14 -95,16 50,19 96,37 139,55 43,18 76,32 100,43 16,8 28,16 36,25 9,9 13,20 13,34 0,15 -4,28 -12,38 -8,11 -19,19 -31,24 -43,-23 -82,-43 -116,-61 -35,-18 -69,-35 -101,-51 -33,-16 -67,-32 -101,-48 -35,-15 -74,-32 -117,-51zm1707 142c0,-20 7,-36 20,-48 13,-12 29,-18 49,-18 20,0 36,6 49,18 12,13 19,28 19,48 0,18 -7,34 -19,46 -13,13 -29,19 -49,19 -20,0 -36,-6 -49,-19 -13,-12 -20,-28 -20,-46zm262 -442c2,6 3,12 4,19 1,8 1,15 1,23 0,9 -1,18 -2,26 -1,8 -3,16 -5,22 -12,6 -25,13 -40,21 -14,8 -29,15 -44,23 -15,8 -29,16 -43,23 -14,8 -25,14 -34,20 41,19 86,42 136,69 49,26 96,54 139,83 -1,-10 -2,-22 -3,-36 -1,-13 -2,-26 -2,-40 -1,-14 -2,-27 -2,-40 0,-13 0,-24 0,-33l0 -293 -330 0c15,6 32,14 53,23 20,10 41,20 63,31 21,11 42,22 61,32 20,11 36,20 48,27zm-5255 1893l-476 1554 1204 -1118c396,172 833,267 1292,267 1230,0 2301,-682 2855,-1689l-374 0c-520,822 -1437,1367 -2481,1367 -1620,0 -2934,-1314 -2934,-2935 0,-1620 1314,-2934 2934,-2934 1044,0 1961,545 2481,1366l374 0c-554,-1006 -1625,-1688 -2855,-1688 -1798,0 -3256,1458 -3256,3256 0,1035 483,1958 1236,2554zm2253 946c-506,0 -988,-92 -1430,-260l-514 377c431,168 899,261 1389,261 864,0 1661,-288 2300,-773 -523,253 -1116,395 -1745,395zm-2508 -882c-797,-653 -1300,-1612 -1300,-2682 0,-1968 1705,-3564 3808,-3564 156,0 309,9 460,26 -323,-89 -663,-137 -1015,-137 -2103,0 -3808,1705 -3808,3808 0,1342 694,2522 1743,3201l112 -652zm1486 -2278c-9,163 -138,293 -294,291 -59,0 -95,-28 -96,-84 -1,-53 35,-70 86,-75 131,-10 173,-84 116,-203 -25,-51 -24,-88 27,-115 53,-28 92,-2 113,43 22,45 33,95 48,143zm360 -10c-7,367 -310,653 -669,624 -54,-4 -81,-34 -81,-82 0,-46 28,-72 79,-74 56,-2 113,-7 166,-21 263,-70 391,-319 311,-604 -9,-34 -25,-66 -35,-100 -17,-53 -7,-97 50,-119 57,-21 82,19 94,61 32,104 57,210 85,315zm318 35c-1,443 -301,823 -732,916 -75,16 -157,15 -235,6 -26,-3 -63,-51 -68,-82 -7,-46 30,-67 80,-68 592,-16 932,-508 748,-1081 -18,-56 -42,-109 -65,-163 -22,-50 -13,-92 36,-116 53,-26 86,3 108,51 79,170 129,348 128,537zm-1716 -277c-1,-109 18,-148 78,-145 94,6 73,85 78,140 20,239 -135,459 -346,503 -112,23 -210,0 -285,-87 -78,-91 -95,-200 -47,-307 29,-66 77,-126 127,-178 85,-88 91,-107 23,-209 -16,-23 -31,-47 -50,-68 -148,-168 -104,-356 0,-507 173,-253 542,-300 777,-102 229,194 244,563 28,778 -21,20 -50,44 -75,45 -25,1 -66,-23 -72,-43 -7,-28 2,-71 22,-93 77,-84 127,-176 126,-294 -3,-180 -143,-335 -325,-359 -159,-22 -357,103 -404,256 -22,70 -8,135 34,195 40,57 79,113 113,173 53,98 43,192 -32,276 -36,40 -75,77 -109,118 -57,67 -64,157 -20,211 44,53 131,59 210,14 95,-55 151,-174 149,-317z"/>
   <path class="fil23" d="M8025 8316c400,4 743,242 886,615 140,365 52,763 -250,1024 -205,177 -293,394 -322,653 -28,262 -251,465 -502,469 -266,5 -492,-185 -535,-452 -4,-25 -11,-55 -2,-75 14,-28 42,-67 64,-66 29,0 65,28 84,54 16,22 10,59 17,89 36,174 197,302 369,294 184,-9 333,-150 354,-332 8,-76 21,-151 37,-226 41,-200 147,-360 304,-490 156,-128 245,-294 279,-494 69,-411 -239,-836 -651,-893 -280,-39 -519,37 -712,247 -34,37 -69,67 -116,22 -44,-42 -35,-84 0,-129 149,-190 421,-313 696,-310zm5540 544l-2 0 -84 0 0 842c-6,2 -18,4 -34,7 -17,2 -35,4 -55,4 -37,0 -67,-7 -89,-20 -22,-13 -33,-40 -33,-82l0 -237c-27,-51 -61,-92 -101,-123 -39,-30 -81,-46 -124,-46 -34,0 -62,10 -83,30 -22,19 -33,43 -33,72 0,18 2,33 6,44 5,12 10,25 16,40 -10,15 -24,27 -41,38 -17,11 -38,16 -65,16 -37,0 -69,-14 -97,-41 -28,-28 -42,-70 -42,-127 0,-41 8,-78 23,-110 16,-33 38,-60 65,-82 28,-22 60,-39 96,-50 37,-11 76,-17 118,-17 31,0 60,4 86,10 26,6 51,15 73,25 22,11 42,22 59,34 18,12 32,25 44,38l0 -265 -499 0 -108 0 -1 0 -56 0c-17,10 -35,27 -53,51 -19,23 -36,51 -51,84 -15,34 -28,71 -38,113 -10,42 -15,86 -15,132 0,52 6,98 17,139 12,41 28,76 48,107 20,31 42,57 67,79 25,21 51,39 79,53 1,5 1,10 1,16 0,5 0,10 0,15 0,32 -9,57 -28,77 -18,19 -44,28 -76,28 -35,0 -72,-11 -110,-32 -38,-22 -73,-54 -104,-95 -31,-41 -57,-91 -77,-151 -21,-60 -31,-127 -31,-202 0,-93 13,-174 40,-242 27,-68 60,-126 99,-172l-139 0 -114 0 -1 0 -3 0c-23,0 -42,5 -56,16 -14,12 -21,33 -21,65l0 780c-7,2 -18,4 -34,7 -17,3 -35,4 -55,4 -37,0 -67,-7 -89,-20 -22,-13 -33,-40 -33,-82l0 -718c0,-16 -4,-28 -13,-38 -8,-9 -19,-14 -32,-14l-1 0 -100 0 -1 0 -85 0 0 842c-6,2 -17,4 -34,7 -16,2 -34,4 -54,4 -37,0 -67,-7 -89,-20 -22,-13 -34,-40 -34,-82l0 -610c-11,-42 -32,-76 -61,-102 -30,-26 -66,-39 -108,-39 -45,0 -81,13 -109,39 -28,26 -42,62 -42,108 0,43 14,76 41,101 28,25 61,37 100,37 23,0 40,-2 53,-6 7,10 13,23 16,37 4,14 6,28 6,42 0,39 -12,68 -36,86 -24,18 -57,27 -99,27 -40,0 -78,-11 -114,-31 -36,-21 -63,-50 -81,-88 -15,36 -41,65 -78,88 -38,23 -82,34 -131,34 -42,0 -77,-10 -103,-29 -27,-20 -40,-48 -40,-85 0,-36 8,-65 24,-86 10,4 22,7 35,9 12,1 26,2 41,2 40,0 73,-11 100,-34 26,-23 39,-58 39,-105 0,-43 -14,-77 -41,-105 -29,-27 -73,-41 -133,-41l-19 0 -74 0 -1 0 -44 0c-18,9 -37,26 -58,50 -20,24 -39,53 -57,87 -17,34 -32,73 -43,116 -11,43 -16,87 -16,134 0,49 6,94 17,133 12,39 28,74 48,104 20,31 42,58 67,80 25,22 51,40 79,54 1,5 1,10 1,16 0,5 0,10 0,15 0,32 -9,57 -28,77 -18,19 -44,28 -76,28 -35,0 -71,-11 -109,-32 -38,-22 -72,-54 -104,-95 -32,-41 -58,-91 -78,-151 -21,-60 -31,-127 -31,-202 0,-89 12,-169 37,-241 25,-71 55,-131 92,-181 36,-50 75,-88 116,-115 42,-27 79,-40 113,-40l21 0 75 0 74 0c76,0 137,12 182,37 45,25 78,56 98,93 27,-48 62,-85 107,-111 45,-26 97,-38 157,-38 44,0 86,8 125,26 39,18 71,46 95,83 8,-27 24,-48 46,-65 22,-17 51,-25 87,-25l67 0 109 0 75 0c33,0 64,6 92,19 28,12 50,32 65,58 11,-27 28,-47 50,-59 13,-7 27,-12 43,-15l2 -3 32 0 83 0 428 0 108 0 796 0 109 0 75 0c34,0 65,6 93,19 28,12 49,32 64,58 12,-27 29,-47 51,-59 22,-12 48,-18 77,-18l81 0c23,0 40,6 53,19 14,12 20,33 20,63 0,16 -2,31 -5,44 -4,14 -9,26 -14,37l-117 0c-23,0 -42,5 -56,16 -15,12 -22,33 -22,65l0 780c-6,2 -17,4 -34,7 -16,3 -34,4 -55,4 -37,0 -66,-7 -88,-20 -23,-13 -34,-40 -34,-82l0 -718c0,-16 -4,-28 -12,-38 -9,-9 -20,-14 -33,-14l-1 0 -99 0zm-2453 1842c-5,-10 -7,-21 -7,-34 0,-11 2,-21 6,-31 3,-9 8,-17 14,-22 15,2 33,5 54,6 20,1 40,2 57,2 65,0 114,-13 149,-40 35,-26 52,-61 52,-105 0,-35 -9,-61 -27,-80 -19,-18 -42,-27 -69,-27 -26,0 -47,8 -64,24 -17,16 -25,38 -25,66 0,9 1,17 3,25 2,8 4,15 7,20 -12,18 -31,27 -55,27 -18,0 -34,-7 -49,-21 -14,-14 -21,-36 -21,-67 0,-20 4,-39 12,-57 7,-18 18,-34 32,-47 14,-14 31,-25 50,-34 19,-9 40,-15 63,-19l-228 0c-27,0 -40,-15 -40,-45 0,-7 1,-15 3,-22 1,-8 4,-14 6,-20l411 0c3,-5 6,-11 7,-17 2,-5 3,-12 3,-20 0,-16 -6,-29 -19,-39 -12,-10 -33,-15 -63,-15 -12,0 -22,0 -31,1 -8,0 -17,0 -25,1 -9,0 -18,0 -28,1 -11,0 -23,0 -38,0 -56,0 -99,-12 -130,-36 -31,-25 -47,-56 -47,-95 0,-26 6,-45 18,-59 11,-14 27,-21 47,-21 12,0 21,1 29,5 7,3 13,7 18,10 -1,5 -1,10 -1,15 -1,5 -1,11 -1,18 0,51 30,76 91,76 21,0 41,-1 60,-2 20,-1 41,-1 63,-1 52,0 92,11 119,33 28,21 41,51 41,88 0,11 -1,22 -4,32 -3,9 -7,18 -11,25l45 0 32 0 66 0c-9,-9 -15,-22 -20,-37 -5,-15 -8,-31 -8,-50 0,-29 7,-56 20,-79 13,-24 32,-44 57,-61 25,-18 54,-31 89,-40 34,-9 73,-14 115,-14 38,0 74,3 108,10 33,6 63,14 90,23 27,9 50,18 69,28 20,10 35,19 45,25 19,13 32,25 38,34 6,10 9,19 9,29 0,14 -4,25 -12,33 -8,9 -17,15 -28,19 -41,-28 -88,-54 -142,-75 -54,-22 -112,-32 -174,-32 -53,0 -94,10 -124,31 -31,21 -46,49 -46,83 0,18 3,33 8,45 6,12 12,21 20,28l72 0 32 0 796 0 38 0 595 0 62 0 52 0c21,0 40,4 56,13 16,8 28,20 35,36 6,-18 15,-30 29,-37 13,-8 28,-12 45,-12l62 0c12,0 22,4 29,11 7,6 11,18 11,33 0,8 -1,15 -3,23 -1,8 -4,14 -6,20l-81 0c-15,0 -27,4 -36,11 -9,7 -14,21 -14,40l0 518c-4,1 -10,3 -18,4 -8,1 -18,2 -28,2 -19,0 -34,-3 -46,-10 -12,-7 -17,-21 -17,-42l0 -488c0,-23 -11,-35 -33,-35l-6 0 -62 0 -70 0 0 552c-5,6 -13,11 -24,14 -10,4 -23,6 -37,6 -6,0 -11,-1 -17,-2 -35,-23 -68,-45 -101,-64 -32,-20 -65,-38 -97,-56 -33,-17 -66,-34 -99,-49 -33,-16 -68,-32 -104,-47 -6,-10 -11,-22 -14,-38 -4,-15 -5,-30 -5,-46 0,-3 0,-7 0,-11 0,-4 0,-8 1,-11 10,-6 23,-14 39,-22 16,-8 33,-16 50,-24 17,-9 34,-17 50,-24 17,-8 30,-14 40,-20l-181 -80c-11,-4 -19,-9 -24,-14 -6,-6 -8,-13 -8,-24 0,-7 1,-14 4,-21 3,-7 6,-13 9,-19l-7 0 -38 0 -290 0 0 177c17,-10 38,-23 62,-39 23,-15 47,-30 70,-44 12,8 25,18 38,31 12,12 24,27 34,44 11,17 20,36 27,57 6,21 10,45 10,71 0,41 -9,77 -25,109 -17,31 -40,57 -69,79 -28,21 -62,37 -101,48 -38,11 -79,16 -122,16 -49,0 -96,-6 -141,-20 -45,-13 -86,-33 -123,-59 -37,-26 -69,-59 -96,-98 -28,-38 -48,-83 -62,-135 -3,-9 -5,-20 -6,-32 -2,-13 -3,-24 -3,-33 0,-25 5,-44 16,-59 11,-14 28,-21 51,-21 9,0 17,1 24,3 7,3 13,5 18,8l3 37c5,55 18,102 37,142 20,39 44,72 73,98 29,25 62,44 98,57 36,13 74,19 113,19 27,0 53,-4 77,-11 25,-7 46,-18 64,-32 19,-14 33,-30 44,-50 11,-19 16,-41 16,-66 0,-20 -2,-37 -7,-51 -4,-14 -10,-26 -17,-35 -25,16 -49,31 -71,43 -23,13 -47,25 -71,37 -13,-4 -26,-11 -39,-22 -13,-11 -22,-21 -28,-32l0 -52c-5,-9 -13,-17 -23,-22 -9,-6 -20,-9 -31,-9 -17,0 -31,5 -40,16 -9,10 -14,22 -14,36 0,7 1,14 2,20 2,6 4,12 7,18 -3,7 -9,14 -17,20 -8,5 -18,8 -31,8 -17,0 -33,-6 -46,-20 -14,-14 -20,-34 -20,-61 0,-20 3,-38 10,-54 8,-16 18,-29 30,-40 13,-10 28,-18 45,-24 17,-5 35,-8 54,-8 17,0 31,2 43,6 12,4 22,10 31,17l0 -88 -401 0 -31 0 -99 0 0 567c-4,1 -11,3 -19,4 -8,1 -17,2 -28,2 -19,0 -34,-3 -46,-10 -11,-7 -17,-21 -17,-42l0 -521 -43 0 -33 0 -241 0c25,4 47,11 68,20 21,10 39,24 55,40 16,16 28,36 37,58 9,22 13,47 13,74 0,35 -6,66 -20,92 -13,26 -31,48 -54,65 -23,18 -50,32 -80,41 -30,9 -62,14 -95,16 50,19 96,37 139,55 43,18 76,32 100,43 16,8 28,16 36,25 9,9 13,20 13,34 0,15 -4,28 -12,38 -8,11 -19,19 -31,24 -43,-23 -82,-44 -116,-61 -35,-18 -69,-35 -101,-51 -33,-16 -67,-32 -101,-48 -35,-15 -74,-33 -117,-51zm1707 141c0,-19 7,-35 20,-47 13,-12 29,-18 49,-18 20,0 36,6 49,18 12,13 19,28 19,47 0,19 -7,35 -19,47 -13,13 -29,19 -49,19 -20,0 -36,-6 -49,-19 -13,-12 -20,-28 -20,-47zm262 -441c2,6 3,12 4,19 1,8 1,15 1,22 0,10 -1,19 -2,27 -1,8 -3,15 -5,22 -12,6 -25,13 -40,21 -14,8 -29,15 -44,23 -15,8 -29,16 -43,23 -14,8 -25,14 -34,20 41,19 86,42 136,69 49,26 96,54 139,83 -1,-11 -2,-22 -3,-36 -1,-13 -2,-27 -2,-40 -1,-14 -2,-27 -2,-40 0,-13 0,-24 0,-33l0 -294 -330 0c15,7 32,15 53,24 20,10 41,20 63,31 21,11 42,22 61,32 20,11 36,20 48,27zm-5255 1893l-476 1554 1204 -1118c396,172 833,267 1292,267 1230,0 2301,-682 2855,-1689l-374 0c-520,821 -1437,1367 -2481,1367 -1620,0 -2934,-1314 -2934,-2935 0,-1620 1314,-2934 2934,-2934 1044,0 1961,545 2481,1366l374 0c-554,-1006 -1625,-1688 -2855,-1688 -1798,0 -3256,1458 -3256,3256 0,1035 483,1958 1236,2554zm2253 946c-506,0 -988,-92 -1430,-260l-514 377c431,168 899,261 1389,261 864,0 1661,-288 2300,-773 -523,253 -1116,395 -1745,395zm-2508 -882c-797,-653 -1300,-1612 -1300,-2682 0,-1968 1705,-3564 3808,-3564 156,0 309,9 460,26 -323,-89 -663,-137 -1015,-137 -2103,0 -3808,1705 -3808,3808 0,1342 694,2522 1743,3201l112 -652zm1486 -2278c-9,163 -138,293 -294,291 -59,0 -95,-28 -96,-84 -1,-53 35,-70 86,-75 131,-10 173,-84 116,-203 -25,-51 -24,-88 27,-115 53,-28 92,-2 113,43 22,45 33,95 48,143zm360 -10c-7,367 -310,653 -669,624 -54,-5 -81,-34 -81,-82 0,-47 28,-72 79,-74 56,-3 113,-7 166,-21 263,-70 391,-319 311,-604 -9,-34 -25,-67 -35,-100 -17,-53 -7,-97 50,-119 57,-21 82,19 94,61 32,104 57,210 85,315zm318 35c-1,443 -301,823 -732,916 -75,16 -157,15 -235,6 -26,-3 -63,-51 -68,-82 -7,-46 30,-67 80,-68 592,-16 932,-508 748,-1081 -18,-56 -42,-109 -65,-163 -22,-50 -13,-92 36,-116 53,-27 86,2 108,51 79,170 129,348 128,537zm-1716 -277c-1,-109 18,-148 78,-145 94,6 73,85 78,140 20,239 -135,459 -346,503 -112,23 -210,0 -285,-87 -78,-91 -95,-200 -47,-308 29,-65 77,-125 127,-178 85,-87 91,-106 23,-208 -16,-23 -31,-47 -50,-68 -148,-169 -104,-356 0,-507 173,-253 542,-300 777,-102 229,194 244,563 28,778 -21,20 -50,44 -75,45 -25,1 -66,-23 -72,-43 -7,-28 2,-72 22,-93 77,-84 127,-177 126,-294 -3,-180 -143,-335 -325,-360 -159,-21 -357,104 -404,257 -22,70 -8,135 34,195 40,57 79,113 113,173 53,98 43,192 -32,276 -36,40 -75,77 -109,118 -57,67 -64,157 -20,210 44,54 131,60 210,14 95,-54 151,-173 149,-316z"/>
   <path class="fil18" d="M8025 8316c400,4 743,242 886,615 47,123 68,249 64,373 -3,-105 -25,-211 -64,-315 -143,-373 -486,-611 -886,-615 -275,-2 -547,120 -696,310 -10,14 -18,27 -23,40 -15,-32 -3,-64 23,-98 149,-190 421,-313 696,-310zm-726 2294c-3,-21 -7,-44 1,-60 14,-28 42,-67 64,-66 29,0 65,28 84,54 16,22 10,59 17,89 36,174 197,302 369,294 184,-9 333,-150 354,-332 8,-76 21,-151 37,-226 41,-200 147,-360 304,-490 156,-128 245,-294 279,-494 5,-30 8,-59 9,-89 2,49 -1,98 -9,147 -34,200 -123,366 -279,494 -157,130 -263,290 -304,490 -16,75 -29,151 -37,226 -21,182 -170,323 -354,332 -172,8 -333,-120 -369,-294 -7,-30 -1,-67 -17,-89 -19,-26 -55,-54 -84,-54 -22,-1 -50,38 -64,66l-1 2zm5631 -1270c1,4 2,8 3,11 5,12 10,25 16,40 -4,6 -10,13 -16,18 -4,-11 -6,-26 -6,-44 0,-9 1,-17 3,-25zm-225 -34c-1,-9 -1,-19 -1,-29 0,-41 8,-78 23,-110 16,-33 38,-60 65,-82 28,-22 60,-39 96,-50 37,-11 76,-17 118,-17 31,0 60,4 86,10 26,6 51,15 73,25 22,11 42,22 59,34 18,12 32,25 44,38l0 58c-12,-13 -26,-25 -44,-38 -17,-12 -37,-23 -59,-34 -22,-10 -47,-19 -73,-25 -26,-6 -55,-10 -86,-10 -42,0 -81,6 -118,17 -36,11 -68,28 -96,50 -27,22 -49,49 -65,82 -12,24 -19,51 -22,81zm-258 -36c2,40 8,76 17,109 12,41 28,76 48,107 20,31 42,57 67,79 25,21 51,39 79,53 1,5 1,10 1,16 0,5 0,10 0,15 0,10 -1,18 -2,26 -27,-13 -53,-31 -78,-52 -25,-22 -47,-48 -67,-79 -20,-30 -36,-66 -48,-107 -11,-41 -17,-87 -17,-139 0,-9 0,-19 0,-28zm-214 32c0,-10 0,-19 0,-28 0,-93 13,-174 40,-242 17,-42 36,-80 57,-114l42 0c-39,46 -72,104 -99,172 -24,61 -37,131 -40,212zm-1167 -267c5,30 18,54 39,73 28,25 61,37 100,37 23,0 40,-2 53,-6 7,10 13,23 16,37 4,14 6,28 6,42 0,11 -1,21 -3,30 -1,-5 -2,-9 -3,-14 -3,-14 -9,-26 -16,-37 -13,4 -30,6 -53,6 -39,0 -72,-12 -100,-37 -27,-25 -41,-58 -41,-101 0,-10 1,-20 2,-30zm-465 211c-2,-8 -3,-17 -3,-26 0,-36 8,-65 24,-86 10,4 22,7 35,9 12,1 26,2 41,2 40,0 73,-11 100,-34 20,-17 33,-42 37,-74 2,8 2,17 2,27 0,47 -13,82 -39,105 -27,23 -60,34 -100,34 -15,0 -29,0 -41,-2 -13,-2 -25,-5 -35,-9 -11,15 -18,32 -21,54zm-250 30c2,38 8,73 17,104 12,39 28,74 48,104 20,31 42,58 67,80 25,22 51,40 79,54 1,5 1,10 1,16 0,5 0,10 0,15 0,10 -1,18 -2,26 -27,-13 -53,-31 -78,-53 -25,-22 -47,-49 -67,-79 -20,-31 -36,-66 -48,-105 -11,-39 -17,-84 -17,-133 0,-10 0,-20 0,-29zm-214 25c0,-9 0,-18 0,-27 0,-89 12,-169 37,-241 25,-71 55,-131 92,-181 36,-50 75,-88 116,-115 42,-27 79,-40 113,-40l21 0 75 0 74 0c76,0 137,12 182,37 45,25 78,56 98,93 27,-48 62,-85 107,-111 45,-26 97,-38 157,-38 44,0 86,8 125,26 39,18 71,46 95,83 8,-27 24,-48 46,-65 22,-17 51,-25 87,-25l67 0 109 0 75 0c33,0 64,6 92,19 28,12 50,32 65,58 11,-27 28,-47 50,-59 13,-7 27,-12 43,-15l2 -3 32 0 83 0 428 0 108 0 796 0 109 0 75 0c34,0 65,6 93,19 28,12 49,32 64,58 12,-27 29,-47 51,-59 22,-12 48,-18 77,-18l81 0c23,0 40,6 53,19 14,12 20,33 20,63 0,11 -1,21 -2,30 -3,-15 -9,-27 -18,-35 -13,-13 -30,-19 -53,-19l-81 0c-29,0 -55,6 -77,18 -22,12 -39,32 -51,59 -15,-26 -36,-46 -64,-58 -28,-13 -59,-19 -93,-19l-75 0 -109 0 -796 0 -108 0 -428 0 -83 0 -32 0 -2 3c-16,3 -30,8 -43,15 -22,12 -39,32 -50,59 -15,-26 -37,-46 -65,-58 -28,-13 -59,-19 -92,-19l-75 0 -109 0 -67 0c-36,0 -65,8 -87,25 -22,17 -38,39 -46,65 -24,-37 -56,-64 -95,-82 -39,-18 -81,-27 -125,-27 -60,0 -112,13 -157,38 -45,26 -80,63 -107,111 -20,-37 -53,-68 -98,-93 -45,-25 -106,-37 -182,-37l-74 0 -75 0 -21 0c-34,0 -71,13 -113,40 -41,27 -80,65 -116,115 -37,50 -67,110 -92,182 -22,63 -34,133 -37,209zm973 1396c-3,-8 -5,-18 -5,-29 0,-11 2,-21 6,-31 3,-9 8,-17 14,-22 15,2 33,5 54,6 20,1 40,2 57,2 65,0 114,-13 149,-40 27,-20 44,-46 50,-77 1,10 2,20 2,30 0,44 -17,79 -52,106 -35,26 -84,39 -149,39 -17,0 -37,-1 -57,-2 -21,-1 -39,-3 -54,-6 -6,5 -11,13 -14,22l-1 2zm146 -208c1,6 4,12 6,17 -3,4 -7,8 -10,12 0,-11 1,-20 4,-29zm-116 -14c-2,-9 -3,-19 -3,-30 0,-20 4,-39 12,-57 6,-15 15,-29 27,-41l118 0c-23,3 -44,9 -63,18 -19,9 -36,20 -50,34 -14,14 -25,29 -32,47 -4,9 -7,19 -9,29zm-109 -205c-3,-7 -5,-16 -5,-27 0,-7 1,-15 3,-22 1,-8 4,-14 6,-20l411 0 3 -5c4,7 7,16 7,26 0,8 -1,15 -3,20 -1,6 -4,12 -7,17l-411 0c-1,3 -3,7 -4,11zm47 -259c-2,-10 -3,-19 -3,-29 0,-26 6,-45 18,-59 11,-14 27,-21 47,-21 12,0 21,1 29,5 7,3 13,7 18,10 -1,5 -1,10 -1,15 -1,5 -1,11 -1,18 0,51 30,76 91,76 21,0 41,-1 60,-2 20,-1 41,-1 63,-1 52,0 92,11 119,33 28,21 41,51 41,88 0,10 -1,19 -3,28 -6,-23 -18,-43 -38,-58 -27,-22 -67,-33 -119,-33 -22,0 -43,0 -63,1 -19,1 -39,2 -60,2 -61,0 -91,-25 -91,-76 0,-7 0,-13 1,-18 0,-5 0,-10 1,-15 -5,-3 -11,-7 -18,-10 -8,-3 -17,-5 -29,-5 -20,0 -36,7 -47,21 -7,8 -12,18 -15,30zm481 190l30 0 32 0 40 0c2,8 3,15 6,21 5,16 11,28 20,37l-66 0 -32 0 -45 0c4,-7 8,-16 11,-25 3,-10 4,-20 4,-32l0 -1zm102 -58c-1,-9 -2,-19 -2,-29 0,-29 7,-56 20,-79 13,-24 32,-44 57,-61 25,-18 54,-31 89,-40 34,-9 73,-14 115,-14 38,0 74,3 108,10 33,6 63,14 90,23 27,9 50,18 69,28 20,10 35,19 45,25 19,13 32,25 38,34 6,10 9,19 9,29 0,12 -3,22 -9,30l0 -1c-6,-9 -19,-21 -38,-34 -10,-6 -25,-15 -45,-25 -19,-10 -42,-19 -69,-28 -27,-9 -57,-16 -90,-23 -34,-6 -70,-10 -108,-10 -42,0 -81,5 -115,14 -35,9 -64,23 -89,40 -25,17 -44,37 -57,61 -9,15 -15,32 -18,50zm115 16c2,5 3,10 5,14 6,12 12,21 20,28l72 0 32 0 796 0 38 0 595 0 62 0 52 0c21,0 40,4 56,13 16,8 28,20 35,36 6,-18 15,-30 29,-37 13,-8 28,-12 45,-12l62 0c12,0 22,4 29,11 7,6 11,18 11,33 0,8 -1,15 -3,23 0,3 -1,6 -2,9 -2,-3 -4,-5 -6,-7 -7,-7 -17,-11 -29,-11l-62 0c-17,0 -32,4 -45,12 -14,7 -23,20 -29,37 -7,-16 -19,-28 -35,-36 -16,-8 -35,-13 -56,-13l-52 0 -62 0 -595 0 -38 0 -796 0 -32 0 -72 0c-8,-6 -14,-16 -20,-28 -5,-12 -8,-27 -8,-44 0,-10 1,-19 3,-28zm1023 434c-1,-11 -2,-23 -2,-35 0,-3 0,-7 0,-11 0,-4 0,-8 1,-11 10,-6 23,-14 39,-22 16,-8 33,-16 50,-24l27 -13 63 28c-10,5 -23,12 -40,19 -16,8 -33,15 -50,24 -17,8 -34,16 -50,24 -15,8 -28,15 -38,21zm-26 -240l-1 -1c-2,-2 -3,-4 -4,-5l2 0 7 0 -4 6zm-331 112c17,-10 38,-23 62,-39 23,-15 47,-30 70,-44 12,8 25,18 38,31 12,12 24,27 34,44 11,17 20,36 27,57 6,21 10,45 10,71 0,10 -1,20 -2,29 -1,-15 -4,-29 -8,-42 -7,-21 -16,-40 -27,-57 -10,-17 -22,-32 -34,-44 -13,-13 -26,-23 -38,-31 -23,14 -47,29 -70,45 -24,15 -45,28 -62,38l0 -58zm-505 27c-1,-12 -2,-23 -2,-32 0,-25 5,-44 16,-59 11,-14 28,-21 51,-21 9,0 17,1 24,3 7,3 13,5 18,8l3 37c5,55 18,102 37,142 20,39 44,72 73,98 29,25 62,44 98,57 36,13 74,19 113,19 27,0 53,-4 77,-11 25,-7 46,-18 64,-32 19,-14 33,-30 44,-50 7,-12 11,-25 14,-39 1,9 2,20 2,31 0,25 -5,47 -16,66 -11,20 -25,36 -44,51 -18,14 -39,24 -64,31 -24,8 -50,11 -77,11 -39,0 -77,-6 -113,-19 -36,-13 -69,-32 -98,-57 -29,-26 -53,-59 -73,-98 -19,-40 -32,-87 -37,-142l-3 -37c-5,-3 -11,-5 -18,-8 -7,-2 -15,-3 -24,-3 -23,0 -40,7 -51,21 -6,9 -11,20 -14,33zm297 35l3 5c-2,4 -5,8 -8,12 1,-6 3,-12 5,-17zm-108 -20c-2,-8 -3,-17 -3,-28 0,-20 3,-38 10,-54 8,-16 18,-29 30,-40 13,-10 28,-18 45,-24 17,-5 35,-8 54,-8 17,0 31,2 43,6 12,4 22,10 31,17l0 58c-9,-7 -19,-13 -31,-17 -12,-4 -26,-6 -43,-6 -19,0 -37,3 -54,8 -17,6 -32,14 -45,25 -12,10 -22,23 -30,39 -3,8 -6,16 -7,24zm-626 -160l1 1c16,16 28,36 37,58 9,22 13,47 13,74 0,11 0,21 -1,30 -3,-16 -6,-32 -12,-46 -9,-22 -21,-41 -37,-58 -16,-16 -34,-29 -55,-39 -21,-10 -43,-17 -68,-20l122 0zm-96 387l37 15c43,18 76,32 100,43 16,8 28,16 36,25 9,9 13,20 13,34 0,11 -2,22 -7,31 -2,-3 -4,-5 -6,-7 -8,-9 -20,-17 -36,-25 -24,-11 -57,-25 -100,-43 -43,-18 -89,-36 -139,-55 33,-2 65,-7 95,-16l7 -2zm1415 109c0,-19 7,-35 20,-47 13,-12 29,-18 49,-18 20,0 36,6 49,18 12,13 19,28 19,47 0,11 -2,21 -6,29 -4,-6 -8,-12 -13,-18 -13,-12 -29,-18 -49,-18 -20,0 -36,6 -49,18 -6,5 -10,11 -14,18 -4,-9 -6,-18 -6,-29zm262 -441c2,6 3,12 4,19 1,8 1,15 1,22 0,10 -1,19 -2,27l0 1c-1,-4 -2,-7 -3,-11 -12,-7 -28,-16 -48,-27 -19,-10 -40,-21 -61,-32 -22,-11 -43,-21 -63,-31 -21,-9 -38,-17 -53,-23l123 0c19,9 37,19 54,28 20,11 36,20 48,27zm-107 204c25,13 52,26 80,42 48,25 93,52 134,80l2 25c1,14 2,26 3,36 -43,-29 -90,-57 -139,-83 -50,-27 -95,-50 -136,-69 9,-6 20,-12 34,-20l22 -11zm-5162 1736l-462 1507 24 -23 452 -1473 -14 -11zm4856 -975c11,-19 22,-38 33,-58l-374 0c-520,821 -1437,1367 -2481,1367 -1610,0 -2918,-1298 -2933,-2906l-1 29c0,1621 1314,2935 2934,2935 1044,0 1961,-545 2481,-1367l341 0zm0 -3194l33 0c-554,-1006 -1625,-1688 -2855,-1688 -1798,0 -3256,1458 -3256,3256l0 37c12,-1788 1465,-3235 3256,-3235 1207,0 2259,656 2822,1630zm-2589 5068c-506,0 -988,-92 -1430,-260l-514 377c18,6 35,13 52,20l462 -339c442,168 924,260 1430,260 541,0 1055,-105 1520,-295 77,-50 152,-103 225,-158 -523,253 -1116,395 -1745,395zm-2508 -882c-787,-645 -1288,-1590 -1300,-2645l0 21c0,1066 500,2022 1292,2675l8 -51zm2594 -6245c126,2 251,11 374,25 -323,-89 -663,-137 -1015,-137 -2103,0 -3808,1705 -3808,3808l0 37c12,-2094 1712,-3787 3808,-3787 218,0 432,18 641,54zm-1108 3967c0,14 -2,28 -5,42 -13,-43 -24,-87 -43,-127 -21,-45 -60,-71 -113,-43 -18,10 -30,21 -37,34 -13,-40 -6,-70 37,-92 53,-28 92,-2 113,43 22,45 33,95 48,143zm-386 235c-2,-8 -4,-18 -4,-28 -1,-53 35,-70 86,-75 79,-6 125,-35 138,-83 17,82 -31,133 -138,141 -40,4 -71,15 -82,45zm746 -245c0,16 -1,32 -2,48 -27,-102 -52,-204 -83,-305 -12,-42 -37,-82 -94,-61 -29,11 -46,28 -54,49 -12,-48 1,-87 54,-107 57,-21 82,19 94,61 32,104 57,210 85,315zm-746 572c-3,-9 -4,-19 -4,-30 0,-47 28,-72 79,-74 56,-3 113,-7 166,-21 201,-53 323,-212 334,-410 12,225 -113,410 -334,468 -53,14 -110,19 -166,21 -39,2 -65,17 -75,46zm1064 -537l0 24c-5,-177 -54,-343 -128,-503 -22,-48 -55,-77 -108,-51 -22,10 -35,24 -42,41 -13,-43 -2,-78 42,-99 53,-27 86,2 108,51 79,170 129,348 128,537zm-1028 861c-4,-8 -6,-15 -7,-21 -7,-46 30,-67 80,-68 472,-13 783,-327 798,-745 13,446 -305,790 -798,803 -33,1 -61,11 -73,31zm-688 -1138c-1,-109 18,-148 78,-145 94,6 73,85 78,140 2,24 2,48 1,71l-1 -13c-5,-55 16,-134 -78,-140 -60,-3 -79,36 -78,145 2,143 -54,262 -149,317 -79,45 -166,39 -210,-14 -25,-31 -34,-73 -26,-115 4,21 13,40 26,56 44,54 131,60 210,14 95,-54 151,-173 149,-316zm-547 253c-6,-49 3,-99 25,-150 29,-65 77,-125 127,-178 33,-33 54,-56 63,-78 18,47 -3,74 -63,137 -50,52 -98,112 -127,178 -14,30 -22,61 -25,91zm31 -813c-9,-105 32,-208 94,-298 173,-253 542,-300 777,-102 128,108 189,271 180,431 -7,-141 -68,-278 -180,-373 -235,-198 -604,-151 -777,102 -51,74 -87,156 -94,240zm754 384c-1,-1 -1,-3 -2,-4 -7,-28 2,-72 22,-93 69,-75 117,-158 125,-259 0,8 1,16 1,23 1,118 -49,210 -126,294 -9,10 -16,24 -20,39zm-591 -401c5,36 20,69 42,102 40,57 79,113 113,173 28,51 38,101 31,149 -4,-29 -15,-60 -31,-91 -34,-60 -73,-116 -113,-173 -35,-50 -50,-103 -42,-160z"/>
  </g>
 </g>
</svg>
