<svg width="218" height="268" viewBox="0 0 218 268" fill="none" xmlns="http://www.w3.org/2000/svg">
<path d="M86.0098 29.7983C84.9084 29.7983 84.0273 30.669 84.0273 31.7573V50.0412C84.0273 51.1295 84.9084 52.0002 86.0098 52.0002H131.385C132.487 52.0002 133.368 51.1295 133.368 50.0412V31.7573C133.368 30.669 132.487 29.7983 131.385 29.7983H86.0098ZM129.403 44.1642C129.403 45.2526 128.522 46.1232 127.42 46.1232H90.1949C89.0935 46.1232 88.2125 45.2526 88.2125 44.1642V35.893C88.2125 34.8046 89.0935 33.934 90.1949 33.934H127.42C128.522 33.934 129.403 34.8046 129.403 35.893V44.1642Z" fill="#FFE287"/>
<path d="M140.045 0L114.918 37.8775H127.37L155.388 0H140.045Z" fill="#0FA711"/>
<path d="M127.377 0L102.473 37.8775H114.925L140.052 0H127.377Z" fill="white"/>
<path d="M114.924 0L90.0195 37.8775H102.472L127.376 0H114.924Z" fill="#FF7600"/>
<path d="M90.0177 37.8775H102.47L77.343 0H62L90.0177 37.8775Z" fill="#FF7600"/>
<path d="M102.471 37.8775H114.923L90.0184 0H77.3438L102.471 37.8775Z" fill="white"/>
<path opacity="0.5" d="M110.695 6.27979L104.469 15.6931L119.145 37.8818H127.372L129.596 34.744L110.695 6.27979Z" fill="#3E4347"/>
<path d="M114.924 37.8775H127.376L102.472 0H90.0195L114.924 37.8775Z" fill="#0FA711"/>
<g filter="url(#filter0_ii)">
<path d="M218 159C218 219.199 169.199 268 109 268C48.801 268 0 219.199 0 159C0 98.801 48.801 50 109 50C169.199 50 218 98.801 218 159Z" fill="#FDD24F" fill-opacity="0.8"/>
</g>
<path d="M214.5 159C214.5 217.266 167.266 264.5 109 264.5C50.734 264.5 3.5 217.266 3.5 159C3.5 100.734 50.734 53.5 109 53.5C167.266 53.5 214.5 100.734 214.5 159Z" stroke="#DFDFDF" stroke-width="7"/>
<path d="M214.5 159C214.5 217.266 167.266 264.5 109 264.5C50.734 264.5 3.5 217.266 3.5 159C3.5 100.734 50.734 53.5 109 53.5C167.266 53.5 214.5 100.734 214.5 159Z" stroke="url(#paint0_linear)" stroke-width="7"/>
<path d="M196 159C196 207.049 157.049 246 109 246C60.9512 246 22 207.049 22 159C22 110.951 60.9512 72 109 72C157.049 72 196 110.951 196 159Z" fill="#EEB42F"/>
<path fill-rule="evenodd" clip-rule="evenodd" d="M109 87C69.2355 87 37 119.235 37 159C37 198.764 69.2355 231 109 231C148.764 231 181 198.764 181 159C181 119.235 148.764 87 109 87ZM7 159C7 102.667 52.667 57 109 57C165.333 57 211 102.667 211 159C211 215.333 165.333 261 109 261C52.667 261 7 215.333 7 159Z" fill="#F9C54C"/>
<path d="M109 82C66.5591 82 32 116.357 32 159C32 201.643 66.357 236 109 236C151.643 236 186 201.643 186 159C186 116.357 151.441 82 109 82ZM93.6404 89.4777C93.8425 89.4777 93.8425 89.4777 93.6404 89.4777C95.0551 92.5092 97.6824 94.3281 100.31 93.7218C102.937 93.3176 105.564 91.4987 105.766 87.8609C106.171 87.8609 106.575 87.8609 106.979 87.8609C106.979 98.7743 106.171 110.496 104.958 123.228C104.756 124.441 104.756 125.654 104.756 126.866C104.352 125.856 103.948 124.643 103.543 123.228C99.2992 112.517 95.4593 100.997 92.4278 89.6798C93.0341 89.6798 93.2362 89.4777 93.6404 89.4777ZM76.0577 95.7428C78.2808 98.3701 81.1102 99.3806 83.5354 98.168C86.3648 96.9554 87.9816 94.126 87.3753 91.0945C87.7795 90.8924 88.1837 90.8924 88.5879 90.6903C91.2152 101.199 93.8425 112.719 95.8635 125.451C96.0656 126.866 96.2677 127.877 96.6719 129.089C96.0656 128.079 95.4593 127.068 94.4488 125.856C87.5774 116.559 80.9081 106.454 75.0472 96.3491C75.2493 96.147 75.6535 95.9449 76.0577 95.7428ZM60.4961 106.656C63.3255 108.475 66.357 108.677 68.378 107.06C69.9948 105.848 70.8032 104.029 70.8032 102.21C70.8032 101.199 70.6011 100.189 69.9948 99.3806C70.399 99.1785 70.6011 98.9764 71.0052 98.7743C76.4619 108.071 81.7165 118.782 87.1732 130.302C87.7795 131.514 88.3858 132.525 88.79 133.535C87.9816 132.727 86.9711 131.919 85.9606 131.11C77.0682 123.633 67.9738 115.549 59.6877 107.465C59.8898 107.06 60.294 106.858 60.4961 106.656ZM48.3701 121.005C48.5722 121.005 48.5722 121.005 48.3701 121.005C51.6037 122.016 54.6352 121.612 56.0499 119.388C56.4541 118.782 57.4646 117.165 57.4646 115.549C57.4646 114.538 57.0604 112.921 55.8478 111.507C56.0499 111.304 56.4541 110.9 56.6562 110.698C64.336 118.378 72.2178 127.27 80.5039 136.971C81.3123 137.982 82.1207 138.79 82.9291 139.598C81.9186 138.992 80.706 138.588 79.4934 137.982C68.9843 133.131 58.0709 127.675 47.7638 122.016C47.9659 121.612 48.168 121.409 48.3701 121.005ZM40.4882 137.982C40.4882 137.982 40.4882 137.78 40.4882 137.982C43.9239 138.184 46.5512 136.971 47.5617 134.344C47.7638 133.738 47.9659 132.929 47.9659 131.717C47.9659 130.504 47.5617 128.281 45.1365 126.664C45.3386 126.26 45.5407 126.058 45.7428 125.654C55.0394 131.11 65.1444 137.577 75.4514 144.853C76.4619 145.661 77.6745 146.268 78.4829 146.874C77.4724 146.672 76.0577 146.47 74.643 146.066C63.3255 144.449 51.4016 142.024 39.8819 138.992C40.2861 138.79 40.4882 138.386 40.4882 137.982ZM37.2546 156.373C37.2546 156.373 37.2546 156.171 37.2546 156.373C40.4882 155.766 42.9134 153.745 43.1155 151.118C43.1155 150.916 43.1155 150.714 43.1155 150.31C43.1155 147.885 41.9029 145.257 38.8714 144.247C38.8714 143.843 39.0735 143.438 39.0735 143.034C49.5827 145.864 60.9003 149.703 72.8242 153.948C74.0368 154.352 75.2493 154.756 76.2598 154.958C75.0472 154.958 73.8346 155.16 72.42 155.16C61.1024 156.575 48.7743 157.181 37.0525 157.383C37.2546 157.181 37.2546 156.777 37.2546 156.373ZM38.8714 175.168C38.8714 174.966 38.8714 174.966 38.8714 175.168C41.4987 173.753 43.1155 171.732 43.1155 169.307C43.1155 169.105 43.1155 168.701 43.1155 168.499C42.7113 165.871 40.8924 163.244 37.2546 163.042C37.2546 162.638 37.2546 162.234 37.2546 161.829C48.168 161.829 59.8898 162.436 72.622 163.446C74.0367 163.648 75.2493 163.648 76.2598 163.648C75.2493 164.053 74.0367 164.457 72.622 164.861C61.9108 169.105 50.3911 172.945 39.0735 176.178C39.0735 175.976 39.0735 175.572 38.8714 175.168ZM45.3386 192.751C45.3386 192.751 45.3386 192.549 45.3386 192.751C47.1575 191.134 48.168 189.315 48.168 187.294C48.168 186.486 47.9659 185.879 47.7638 185.273C46.7533 182.848 44.3281 180.827 40.6903 181.635C40.4882 181.231 40.4882 180.827 40.2861 180.423C50.7953 177.593 62.315 175.168 74.8451 172.945C76.2598 172.743 77.2703 172.339 78.4829 172.136C77.4724 172.743 76.4619 173.349 75.2493 174.36C65.9528 181.231 55.8478 187.9 45.7428 193.963C45.7428 193.357 45.5407 193.155 45.3386 192.751ZM56.252 208.11C57.2625 206.493 57.6667 205.079 57.6667 203.462C57.6667 202.249 57.2625 201.037 56.4541 200.228C54.8373 198.207 51.8058 196.793 48.5722 198.409C48.3701 198.005 48.168 197.803 47.9659 197.399C57.2625 191.942 67.9738 186.486 79.4934 181.029C80.706 180.423 81.7165 179.816 82.727 179.412C81.9186 180.22 81.1102 181.231 80.3018 182.241C73.2283 191.336 65.1444 200.43 57.0604 208.919C56.8583 208.717 56.4541 208.514 56.252 208.11ZM70.6011 220.034C70.8032 218.822 71.0052 217.811 71.0052 216.801C71.0052 214.78 70.1969 213.163 68.7822 212.354C66.7612 210.94 63.5276 210.131 60.9003 212.759C60.4961 212.556 60.294 212.152 60.0919 211.95C67.7717 204.27 76.4619 196.186 86.1627 188.102C87.1732 187.294 87.9816 186.486 88.79 185.677C88.1837 186.688 87.7795 187.9 87.1732 189.113C82.727 199.622 77.4724 210.535 71.6115 220.64C71.4095 220.438 71.0052 220.236 70.6011 220.034ZM87.5774 227.916C87.7795 224.48 86.3648 221.853 83.9396 220.843C81.5144 220.034 78.2808 220.236 76.2598 223.268C75.8556 223.066 75.6535 222.864 75.2493 222.661C80.706 213.365 86.9711 203.26 94.2467 192.751C95.0551 191.538 95.6614 190.528 96.2677 189.719C96.0656 190.73 95.8635 192.144 95.4593 193.559C93.8425 204.877 91.4173 216.801 88.5879 228.32C88.3858 228.118 87.9816 228.118 87.5774 227.916ZM105.969 230.948C105.362 227.714 103.341 225.289 100.714 225.087C98.0866 224.885 95.0551 225.895 94.0446 229.331C93.6404 229.331 93.2362 229.129 92.832 229.129C95.6614 218.619 99.2992 207.302 103.543 195.378C103.948 194.165 104.352 192.953 104.554 191.942C104.554 193.155 104.756 194.367 104.756 195.782C106.171 207.1 106.979 219.428 107.181 231.15C106.777 231.15 106.373 231.15 105.969 230.948ZM178.927 144.449C176.299 145.864 174.48 147.885 174.48 150.31C174.48 150.512 174.48 150.916 174.48 151.118C174.885 153.745 176.703 156.373 180.341 156.575C180.341 156.979 180.341 157.383 180.341 157.787C169.63 157.787 157.706 156.979 144.974 155.766C143.559 155.564 142.346 155.564 141.336 155.564C142.346 155.16 143.559 154.756 144.974 154.352C155.685 150.108 167.205 146.268 178.522 143.236C178.724 143.64 178.724 144.045 178.927 144.449ZM172.661 126.866C172.661 126.866 172.661 127.068 172.661 126.866C170.843 128.483 169.832 130.302 169.832 132.323C169.832 133.131 170.034 133.738 170.236 134.344C171.247 136.769 173.672 138.79 177.31 138.184C177.512 138.588 177.512 138.992 177.714 139.396C167.205 142.024 155.483 144.449 142.953 146.672C141.538 146.874 140.528 147.076 139.315 147.48C140.325 146.874 141.336 146.268 142.549 145.459C151.845 138.386 161.95 131.717 172.055 125.856C172.257 126.26 172.459 126.462 172.661 126.866ZM162.152 111.709C161.142 113.325 160.535 114.942 160.535 116.357C160.535 117.57 160.94 118.782 161.748 119.591C163.365 121.612 166.194 123.026 169.428 121.409C169.63 121.814 169.832 122.016 170.034 122.42C160.535 127.675 150.026 133.131 138.304 138.184C137.092 138.79 136.081 139.194 135.071 139.801C135.879 138.992 136.688 137.982 137.698 136.971C144.974 128.079 153.058 118.984 161.344 110.698C161.546 111.102 161.95 111.304 162.152 111.709ZM147.601 99.1785C147.601 99.1785 147.803 99.3806 147.601 99.1785C147.399 100.391 146.995 101.402 146.995 102.412C146.995 104.231 147.803 105.848 149.218 106.858C151.239 108.273 154.472 109.081 157.1 106.656C157.302 106.858 157.706 107.262 157.908 107.465C150.228 115.144 141.336 123.026 131.433 131.11C130.423 131.919 129.412 132.727 128.806 133.535C129.412 132.525 129.816 131.514 130.423 130.1C135.071 119.591 140.528 108.677 146.388 98.5722C146.995 98.7743 147.197 98.9764 147.601 99.1785ZM130.625 91.2966C130.827 91.2966 130.827 91.2966 130.625 91.2966C130.423 94.7323 131.837 97.3596 134.262 98.3701C136.688 99.3806 139.921 99.1785 141.942 95.9449C142.346 96.147 142.549 96.3491 142.953 96.5512C137.496 105.848 131.029 115.751 123.551 126.26C122.743 127.27 122.136 128.281 121.53 129.291C121.732 128.281 122.136 126.866 122.339 125.451C124.157 114.134 126.583 102.21 129.412 90.8924C130.018 90.8924 130.22 91.0945 130.625 91.2966ZM112.436 87.8609C112.436 87.8609 112.638 87.8609 112.436 87.8609C113.042 91.0945 115.063 93.5197 117.69 93.7218C120.318 93.9239 123.349 92.9134 124.562 89.4777C124.966 89.4777 125.37 89.6798 125.774 89.6798C122.945 100.189 119.105 111.507 114.659 123.228C114.255 124.441 113.85 125.654 113.446 126.664C113.446 125.451 113.244 124.239 113.244 122.824C112.032 111.507 111.223 99.1785 111.223 87.4567C111.627 87.8609 112.032 87.8609 112.436 87.8609ZM124.36 229.331C122.743 226.299 120.318 224.682 117.69 225.087C115.063 225.491 112.436 227.31 112.234 230.948C111.829 230.948 111.425 230.948 111.021 230.948C111.021 220.034 111.627 208.312 112.84 195.58C113.042 194.367 113.042 193.357 113.042 192.346C113.042 192.144 113.042 192.144 113.042 191.942C113.446 192.953 113.85 194.165 114.255 195.58C118.499 206.291 122.339 217.811 125.572 229.129C125.168 229.331 124.764 229.331 124.36 229.331ZM141.74 223.066C141.74 223.066 141.538 223.066 141.74 223.066C139.517 220.438 136.688 219.428 134.262 220.64C131.433 221.853 129.816 224.682 130.625 227.714C130.22 227.916 129.816 227.916 129.412 228.118C126.583 217.609 124.157 206.089 122.136 193.559C121.934 192.144 121.732 191.134 121.328 189.921C121.934 190.932 122.541 191.942 123.551 193.155C130.423 202.451 137.092 212.556 142.953 222.661C142.346 222.864 142.144 222.864 141.74 223.066ZM157.302 212.152C157.302 212.354 157.302 212.354 157.302 212.152C154.472 210.333 151.441 210.131 149.42 211.748C147.803 212.961 146.995 214.78 146.995 216.598C146.995 217.609 147.197 218.619 147.803 219.428C147.399 219.63 147.197 219.832 146.793 220.034C141.336 210.738 135.879 200.026 130.625 188.507C130.018 187.294 129.412 186.283 129.008 185.273C129.816 186.081 130.827 186.89 131.837 187.698C140.932 194.772 150.026 202.856 158.312 211.142C157.908 211.748 157.706 211.95 157.302 212.152ZM169.226 198.005C169.226 198.005 169.226 198.207 169.226 198.005C165.992 196.995 162.961 197.399 161.546 199.622C161.142 200.228 160.131 201.845 160.131 203.462C160.131 204.472 160.535 206.089 161.748 207.504C161.546 207.706 161.142 208.11 160.94 208.312C153.26 200.633 145.378 191.74 137.294 182.039C136.486 181.029 135.677 180.018 134.869 179.412C135.879 180.018 137.092 180.423 138.304 181.029C148.814 185.677 159.727 191.134 170.034 196.793C169.63 197.399 169.428 197.601 169.226 198.005ZM177.108 181.029C177.108 181.231 177.108 181.231 177.108 181.029C173.672 180.827 171.045 182.039 170.034 184.667C169.832 185.273 169.63 186.081 169.63 187.294C169.63 188.507 170.034 190.73 172.459 192.346C172.257 192.751 172.055 192.953 171.853 193.357C162.556 187.9 152.451 181.433 142.144 174.157C141.134 173.349 139.921 172.743 139.113 172.136C140.123 172.339 141.538 172.743 142.953 172.945C154.27 174.562 166.194 176.987 177.512 180.018C177.31 180.423 177.31 180.827 177.108 181.029ZM180.341 162.84C177.108 163.446 174.682 165.265 174.48 167.892C174.48 168.094 174.48 168.297 174.48 168.701C174.48 171.126 175.693 173.753 178.724 174.764C178.724 175.168 178.522 175.572 178.522 175.976C168.013 173.147 156.696 169.509 144.772 165.063C143.559 164.659 142.346 164.255 141.336 164.052C142.549 164.052 143.761 163.85 145.176 163.85C156.493 162.638 168.822 161.829 180.543 161.829C180.543 162.032 180.341 162.436 180.341 162.84Z" fill="#FFE287"/>
<circle cx="109" cy="159" r="77" stroke="url(#paint1_linear)" stroke-width="2"/>
<circle cx="109" cy="159" r="101" stroke="url(#paint2_linear)" stroke-width="2"/>
<g filter="url(#filter1_i)">
<circle cx="109" cy="159" r="50" fill="#FDD24F"/>
</g>
<mask id="mask0" mask-type="alpha" maskUnits="userSpaceOnUse" x="59" y="109" width="100" height="100">
<circle cx="109" cy="159" r="50" fill="#C3863A"/>
</mask>
<g mask="url(#mask0)">
<path d="M82.6969 107.385L82.6979 107.386L82.948 107.755C83.1118 107.996 83.3522 108.351 83.6587 108.803C84.2716 109.708 85.1489 111.003 86.2061 112.568C88.3206 115.698 91.1554 119.904 94.0364 124.21C96.917 128.516 99.8455 132.924 102.147 136.456C103.297 138.222 104.293 139.772 105.048 140.983C105.788 142.169 106.335 143.088 106.55 143.554C106.628 143.723 106.657 143.91 106.632 144.094C106.534 144.829 106.129 145.471 105.646 146.005C105.156 146.547 104.516 147.053 103.813 147.52C102.404 148.455 100.608 149.318 98.8706 150.047C97.125 150.779 95.4 151.393 94.1146 151.823C93.6747 151.97 93.2852 152.095 92.9629 152.198C93.1439 152.686 93.3873 153.329 93.6735 154.051C94.3132 155.666 95.1542 157.645 95.9843 159.186C96.4389 160.031 96.1789 160.859 95.7262 161.467C95.3 162.04 94.6303 162.543 93.9004 162.984C92.419 163.877 90.3247 164.724 88.2437 165.448C86.3521 166.107 84.4214 166.682 82.875 167.113C83.4397 167.304 84.052 167.513 84.687 167.732C87.3423 168.647 90.4545 169.766 92.1006 170.526C93.8143 171.317 94.6604 172.287 94.7213 173.384C94.7496 173.893 94.5932 174.305 94.4453 174.575C94.3705 174.712 94.2935 174.82 94.2321 174.898C94.2011 174.937 94.1733 174.97 94.1506 174.995L94.1371 175.01C94.1295 175.019 94.1172 175.034 94.1009 175.055C94.0648 175.101 94.0092 175.173 93.9405 175.272C93.8027 175.468 93.6142 175.764 93.4245 176.144C93.0436 176.905 92.6701 177.98 92.6701 179.259C92.6701 179.659 92.6801 180.157 92.6916 180.725L92.6916 180.726V180.726C92.7201 182.144 92.7574 183.997 92.669 185.832C92.5466 188.371 92.1799 191.179 91.0541 193.008C90.7744 193.463 90.3091 193.739 89.8966 193.918C89.4594 194.109 88.9312 194.254 88.3535 194.37C87.195 194.603 85.6931 194.742 83.9974 194.818C80.5971 194.969 76.2723 194.868 72.0358 194.668C67.7934 194.469 63.6152 194.169 60.4994 193.92C58.941 193.795 57.6472 193.683 56.7427 193.601C56.2904 193.561 55.9354 193.528 55.6932 193.505L55.4164 193.479L55.3682 193.475H33.6015C33.06 193.475 32.6211 193.036 32.6211 192.494V108.916C32.6211 108.382 33.048 107.947 33.5816 107.936L81.8659 106.955C82.1977 106.949 82.5104 107.11 82.6969 107.385Z" fill="white"/>
<path fill-rule="evenodd" clip-rule="evenodd" d="M114.267 151.364C113.599 152.033 113.638 153.118 114.209 153.872C115.402 155.445 116.109 157.406 116.109 159.533C116.109 161.506 115.5 163.337 114.46 164.847C113.94 165.603 113.928 166.646 114.577 167.295C115.23 167.948 116.301 167.951 116.86 167.215C118.481 165.081 119.442 162.419 119.442 159.533C119.442 156.437 118.336 153.6 116.497 151.395C115.926 150.709 114.898 150.733 114.267 151.364ZM119.872 170.245C119.292 170.957 119.286 172.004 119.936 172.653C120.588 173.306 121.652 173.308 122.247 172.603C125.223 169.072 127.017 164.512 127.017 159.533C127.017 154.356 125.078 149.631 121.886 146.046C121.284 145.371 120.245 145.386 119.606 146.026C118.944 146.687 118.965 147.759 119.576 148.468C122.136 151.438 123.684 155.305 123.684 159.533C123.684 163.596 122.255 167.325 119.872 170.245ZM125.634 176.002C125.03 176.695 125.027 177.744 125.677 178.394C126.328 179.046 127.39 179.048 128.001 178.358C132.439 173.346 135.134 166.755 135.134 159.534C135.134 152.119 132.293 145.368 127.64 140.309C127.024 139.64 125.98 139.651 125.337 140.294C124.679 140.953 124.693 142.019 125.318 142.71C129.346 147.158 131.8 153.059 131.8 159.534C131.8 165.837 129.474 171.597 125.634 176.002Z" fill="white"/>
</g>
<path d="M58.7976 90.7998L53.5977 83.2998L55.9977 81.5998C56.7977 80.9998 57.4976 80.7998 58.1976 80.7998C58.7976 80.8998 59.3976 81.1998 59.7976 81.8998C59.9976 82.1998 60.1977 82.5998 60.0977 82.9998C60.0977 83.3998 59.9976 83.7998 59.6976 84.1998C60.1976 83.9998 60.5977 83.9998 61.0977 84.1998C61.5977 84.3998 61.8976 84.5998 62.1976 85.0998C62.6976 85.7998 62.7977 86.3998 62.5977 87.0998C62.3977 87.7998 61.9976 88.3998 61.1976 88.8998L58.7976 90.7998ZM56.7976 85.8998L58.2976 84.8998C58.6976 84.5998 58.9977 84.2998 59.0977 83.8998C59.1977 83.4998 59.0976 83.0998 58.8976 82.7998C58.5976 82.3998 58.2976 82.1998 57.8976 82.1998C57.4976 82.1998 57.0977 82.2998 56.5977 82.6998L55.0977 83.6998L56.7976 85.8998ZM57.3976 86.6998L59.2976 89.3998L60.8976 88.2998C61.3976 87.9998 61.5976 87.5998 61.6976 87.1998C61.7976 86.7998 61.6976 86.3998 61.3976 85.8998C60.7976 84.9998 59.9977 84.8998 58.9977 85.5998L57.3976 86.6998Z" fill="white"/>
<path d="M62.9992 80.9999C63.0992 80.1999 63.4992 79.5999 64.2992 79.1999C65.4992 78.4999 66.5992 78.7999 67.3992 80.1999L69.5992 84.0999L68.5992 84.6999L66.3992 80.7999C66.1992 80.3999 65.8992 80.0999 65.5992 79.9999C65.2992 79.8999 64.8992 79.9999 64.4992 80.1999C64.1992 80.3999 63.8992 80.5999 63.7992 80.9999C63.6992 81.2999 63.5992 81.6999 63.5992 81.9999L65.9992 86.1999L64.9992 86.7999L60.1992 78.4999L61.1992 77.8999L62.9992 80.9999Z" fill="white"/>
<path d="M74.4984 81.6002C74.3984 81.5002 74.1984 81.3002 73.9984 81.0002C73.7984 81.7002 73.2985 82.3002 72.5985 82.6002C71.9985 82.9002 71.3985 82.9002 70.8985 82.8002C70.3985 82.6002 69.9985 82.3002 69.6985 81.8002C69.3985 81.2002 69.3985 80.6002 69.6985 80.0002C69.9985 79.4002 70.5984 78.9002 71.4984 78.5002L72.4984 78.0002L72.2985 77.5002C72.0985 77.1002 71.8985 76.9002 71.5985 76.8002C71.2985 76.7002 70.8984 76.7002 70.4984 76.9002C70.0984 77.1002 69.8985 77.3002 69.6985 77.6002C69.4985 77.9002 69.4985 78.2002 69.5985 78.5002L68.5985 79.0002C68.4985 78.7002 68.3984 78.4002 68.4984 78.0002C68.5984 77.6002 68.7985 77.3002 69.0985 76.9002C69.3985 76.6002 69.7985 76.3002 70.1985 76.1002C70.8985 75.8002 71.4985 75.7002 72.0985 75.8002C72.6985 76.0002 73.0985 76.3002 73.3985 77.0002L74.6985 79.8002C74.9985 80.4002 75.1984 80.8002 75.4984 81.0002V81.1002L74.4984 81.6002ZM72.3985 81.6002C72.6985 81.4002 72.9985 81.2002 73.1985 80.9002C73.3985 80.6002 73.4984 80.3002 73.4984 79.9002L72.8985 78.7002L72.0985 79.1002C70.7985 79.7002 70.3985 80.4002 70.6985 81.1002C70.8985 81.4002 71.0985 81.6002 71.3985 81.7002C71.6985 81.8002 72.0985 81.8002 72.3985 81.6002Z" fill="white"/>
<path d="M79.697 77.4998C79.597 77.1998 79.397 76.9998 79.097 76.8998C78.797 76.7998 78.397 76.7998 77.797 76.8998C77.197 76.9998 76.697 76.9998 76.297 76.9998C75.897 76.9998 75.597 76.8998 75.397 76.6998C75.197 76.4998 74.997 76.2998 74.897 75.9998C74.697 75.4998 74.797 74.9998 75.097 74.3998C75.397 73.7998 75.897 73.4998 76.597 73.1998C77.297 72.8998 77.997 72.8998 78.497 73.0998C79.097 73.2998 79.497 73.6998 79.697 74.2998L78.597 74.6998C78.497 74.3998 78.297 74.1998 77.897 74.0998C77.497 73.9998 77.197 73.9998 76.797 74.0998C76.397 74.2998 76.097 74.4998 75.997 74.6998C75.797 74.9998 75.797 75.1998 75.897 75.4998C75.997 75.7998 76.197 75.8998 76.397 75.9998C76.597 76.0998 77.097 75.9998 77.697 75.8998C78.297 75.7998 78.797 75.7998 79.197 75.7998C79.597 75.7998 79.897 75.8998 80.197 76.0998C80.497 76.2998 80.597 76.4998 80.797 76.8998C80.997 77.4998 80.997 77.9998 80.597 78.4998C80.297 78.9998 79.797 79.3998 78.997 79.6998C78.497 79.8998 77.997 79.9998 77.597 79.8998C77.197 79.7998 76.697 79.6998 76.397 79.4998C76.097 79.2998 75.797 78.9998 75.697 78.5998L76.797 78.1998C76.997 78.5998 77.197 78.7998 77.597 78.8998C77.997 78.9998 78.297 78.9998 78.797 78.7998C79.197 78.5998 79.497 78.3998 79.697 78.1998C79.797 78.0998 79.797 77.7998 79.697 77.4998Z" fill="white"/>
<path d="M81.9984 72.3999C82.2984 71.6999 82.8984 71.1999 83.5984 70.8999C84.9984 70.4999 85.8984 71.0999 86.3984 72.5999L87.6984 76.8999L86.5984 77.1999L85.2985 72.8999C85.1985 72.3999 84.8984 72.0999 84.6984 71.9999C84.4984 71.8999 84.0984 71.7999 83.5984 71.9999C83.1984 72.0999 82.9984 72.2999 82.6984 72.5999C82.4984 72.8999 82.3985 73.1999 82.2985 73.4999L83.6984 78.0999L82.5984 78.3999L79.8984 69.1999L80.9984 68.8999L81.9984 72.3999Z" fill="white"/>
<path d="M87.0977 68.2999C87.0977 68.0999 87.0976 67.9999 87.1976 67.7999C87.2976 67.5999 87.3977 67.4999 87.5977 67.4999C87.7977 67.3999 87.9977 67.4999 88.0977 67.5999C88.1977 67.6999 88.2976 67.7999 88.3976 67.9999C88.3976 68.1999 88.3977 68.2999 88.2977 68.4999C88.1977 68.5999 88.0977 68.6999 87.7977 68.7999C87.5977 68.8999 87.3977 68.7999 87.2977 68.6999C87.1977 68.5999 87.0977 68.4999 87.0977 68.2999ZM90.2977 76.2999L89.1976 76.5999L87.5977 69.9999L88.6976 69.6999L90.2977 76.2999Z" fill="white"/>
<path d="M91.6976 69.1001L91.8976 69.9001C92.2976 69.2001 92.8976 68.7001 93.6976 68.6001C95.0976 68.4001 95.9976 69.0001 96.1976 70.6001L96.9976 75.0001L95.8976 75.2001L95.0977 70.8001C94.9977 70.3001 94.7977 70.0001 94.5977 69.8001C94.2977 69.6001 93.9976 69.6001 93.4976 69.6001C93.0976 69.7001 92.7977 69.8001 92.5977 70.1001C92.3977 70.4001 92.1977 70.6001 92.0977 71.0001L92.8976 75.7001L91.7977 75.9001L90.5977 69.3001L91.6976 69.1001Z" fill="white"/>
<path d="M97.4961 66.4C97.4961 66.2 97.4961 66.1 97.5961 65.9C97.6961 65.8 97.8961 65.7 98.0961 65.6C98.2961 65.5 98.4961 65.6 98.5961 65.7C98.6961 65.8 98.7961 66 98.7961 66.1C98.7961 66.3 98.7961 66.4 98.6961 66.6C98.5961 66.8 98.3961 66.8 98.1961 66.8C97.9961 66.8 97.7961 66.8 97.6961 66.7C97.5961 66.7 97.4961 66.5 97.4961 66.4ZM99.6961 74.7L98.5961 74.8L97.7961 68.1L98.8961 68L99.6961 74.7Z" fill="white"/>
<path d="M104.199 69.5002C104.199 69.1002 104.299 68.8002 104.499 68.6002C104.699 68.4002 104.999 68.2002 105.399 68.2002C105.799 68.2002 106.099 68.3002 106.299 68.5002C106.499 68.7002 106.699 69.0002 106.699 69.4002V69.6002C106.699 70.0002 106.599 70.3002 106.399 70.5002C106.199 70.7002 105.899 70.9002 105.499 70.9002C105.099 70.9002 104.799 70.8002 104.599 70.6002C104.399 70.4002 104.199 70.1002 104.199 69.7002V69.5002Z" fill="white"/>
<path d="M111.598 74.1L112.098 65L115.098 65.2C116.098 65.3 116.798 65.5 117.298 65.9C117.798 66.3 117.998 67 117.898 67.7C117.898 68.1 117.698 68.5 117.498 68.8C117.298 69.1 116.898 69.3 116.498 69.5C116.998 69.7 117.398 69.9 117.598 70.3C117.898 70.7 117.998 71.2 117.898 71.7C117.898 72.5 117.598 73.1 116.998 73.6C116.398 74 115.698 74.2 114.698 74.2L111.598 74.1ZM112.998 69.9L112.798 73.2L114.798 73.3C115.398 73.3 115.798 73.2 116.098 72.9C116.398 72.6 116.598 72.2 116.698 71.7C116.798 70.6 116.198 70 114.998 70L112.998 69.9ZM113.098 69L114.898 69.1C115.398 69.1 115.798 69 116.198 68.8C116.498 68.6 116.698 68.2 116.698 67.8C116.698 67.3 116.598 66.9 116.298 66.7C115.998 66.5 115.598 66.3 114.998 66.3L113.198 66.2L113.098 69Z" fill="white"/>
<path d="M119.099 71.1999C119.199 70.4999 119.399 69.9999 119.699 69.4999C119.999 68.9999 120.399 68.6999 120.899 68.3999C121.399 68.1999 121.899 68.0999 122.499 68.1999C123.399 68.2999 124.099 68.7999 124.599 69.4999C125.099 70.1999 125.199 71.0999 125.099 72.0999V72.1999C124.999 72.7999 124.799 73.3999 124.499 73.8999C124.199 74.3999 123.799 74.6999 123.299 74.9999C122.799 75.1999 122.199 75.2999 121.599 75.1999C120.699 75.0999 119.999 74.5999 119.499 73.8999C119.099 73.1999 118.999 72.2999 119.099 71.1999ZM120.299 71.4999C120.199 72.1999 120.299 72.8999 120.599 73.3999C120.899 73.8999 121.299 74.1999 121.899 74.2999C122.499 74.3999 122.999 74.1999 123.399 73.7999C123.799 73.3999 124.099 72.7999 124.199 71.9999C124.299 71.2999 124.199 70.6999 123.899 70.0999C123.599 69.4999 123.199 69.2999 122.599 69.1999C121.999 69.0999 121.599 69.2999 121.099 69.6999C120.599 69.9999 120.399 70.5999 120.299 71.4999Z" fill="white"/>
<path d="M127.096 75.9999L125.996 75.7999L127.896 66.3999L128.996 66.5999L127.096 75.9999Z" fill="white"/>
<path d="M129.198 72.9C129.398 72.3 129.598 71.7 129.998 71.3C130.398 70.9 130.798 70.6 131.398 70.4C131.998 70.2 132.498 70.2 132.998 70.4C133.898 70.6 134.498 71.1 134.898 71.9C135.298 72.7 135.298 73.5 135.098 74.6V74.7C134.898 75.3 134.698 75.9 134.298 76.3C133.898 76.7 133.498 77 132.898 77.2C132.298 77.4 131.798 77.4 131.198 77.2C130.298 77 129.698 76.5 129.298 75.7C128.898 74.9 128.898 74 129.198 72.9ZM130.298 73.3C130.098 74 130.098 74.6 130.298 75.2C130.498 75.7 130.898 76.1 131.498 76.2C132.098 76.4 132.598 76.2 132.998 75.9C133.498 75.5 133.798 75 133.998 74.2C134.198 73.5 134.198 72.9 133.998 72.3C133.798 71.8 133.398 71.4 132.798 71.3C132.298 71.2 131.698 71.3 131.298 71.6C130.798 71.9 130.498 72.5 130.298 73.3Z" fill="white"/>
<path d="M139.596 79.6998L138.496 79.2998L141.696 70.7998L142.796 71.1998L139.596 79.6998Z" fill="white"/>
<path d="M144.898 74.5001L144.598 75.3001C145.298 74.9001 146.098 74.9001 146.798 75.2001C148.098 75.8001 148.398 76.8001 147.798 78.3001L145.998 82.4001L144.898 81.9001L146.698 77.8001C146.898 77.4001 146.898 77.0001 146.798 76.7001C146.698 76.4001 146.398 76.2001 145.998 76.0001C145.698 75.8001 145.298 75.8001 144.998 75.9001C144.698 76.0001 144.398 76.1001 144.098 76.4001L142.198 80.8001L141.098 80.3001L143.798 74.1001L144.898 74.5001Z" fill="white"/>
<path d="M148.698 79.9002C149.198 79.0002 149.798 78.4002 150.498 78.1002C151.198 77.8002 151.898 77.8002 152.598 78.2002C153.298 78.6002 153.698 79.1002 153.898 79.8002L155.598 76.7002L156.598 77.2002L151.998 85.6002L151.098 85.1002L151.398 84.4002C150.698 84.7002 149.998 84.6002 149.298 84.2002C148.598 83.8002 148.198 83.2002 148.098 82.4002C147.898 81.7002 148.098 80.8002 148.698 79.9002ZM149.598 80.5002C149.198 81.2002 149.098 81.8002 149.198 82.3002C149.298 82.8002 149.598 83.2002 149.998 83.5002C150.598 83.8002 151.298 83.8002 151.898 83.4002L153.398 80.7002C153.398 80.0002 153.098 79.4002 152.498 79.1002C151.998 78.8002 151.498 78.8002 150.998 79.0002C150.498 79.3002 149.998 79.8002 149.598 80.5002Z" fill="white"/>
<path d="M154.398 87.0998L153.398 86.4998L156.898 80.7998L157.898 81.3998L154.398 87.0998ZM157.798 79.0998C157.898 78.8998 157.998 78.7998 158.198 78.7998C158.398 78.7998 158.498 78.7998 158.698 78.8998C158.898 78.9998 158.998 79.1998 158.998 79.2998C158.998 79.4998 158.998 79.5998 158.898 79.7998C158.798 79.9998 158.698 80.0998 158.498 80.0998C158.298 80.0998 158.198 80.0998 157.998 79.9998C157.798 79.8998 157.698 79.6998 157.698 79.5998C157.698 79.4998 157.698 79.2998 157.798 79.0998Z" fill="white"/>
<path d="M159.099 90.3002C159.099 90.2002 159.199 89.9002 159.399 89.6002C158.599 89.7002 157.999 89.6002 157.299 89.2002C156.799 88.8002 156.399 88.4002 156.299 87.8002C156.199 87.2002 156.299 86.7002 156.599 86.3002C156.999 85.7002 157.499 85.4002 158.199 85.4002C158.899 85.4002 159.599 85.7002 160.399 86.2002L161.299 86.8002L161.599 86.4002C161.799 86.1002 161.899 85.7002 161.899 85.4002C161.799 85.1002 161.599 84.8002 161.199 84.5002C160.899 84.3002 160.499 84.2002 160.199 84.2002C159.899 84.2002 159.599 84.3002 159.399 84.6002L158.499 83.9002C158.699 83.6002 158.999 83.4002 159.399 83.3002C159.799 83.2002 160.199 83.2002 160.599 83.2002C160.999 83.3002 161.499 83.5002 161.899 83.7002C162.499 84.1002 162.899 84.7002 163.099 85.2002C163.199 85.8002 163.099 86.3002 162.699 86.9002L160.899 89.4002C160.499 89.9002 160.299 90.4002 160.199 90.7002L160.099 90.8002L159.099 90.3002ZM158.099 88.4002C158.399 88.6002 158.699 88.7002 159.099 88.8002C159.499 88.9002 159.799 88.8002 160.099 88.6002L160.899 87.5002L160.199 87.0002C158.999 86.2002 158.199 86.1002 157.799 86.8002C157.599 87.1002 157.499 87.4002 157.599 87.7002C157.599 88.0002 157.799 88.2002 158.099 88.4002Z" fill="white"/>
<path d="M23 195.3L31.2 191.5L32.4 194.2C32.8 195.1 32.9 195.9 32.8 196.5C32.6 197.1 32.2 197.6 31.5 197.9C31.1 198.1 30.7 198.1 30.3 198C29.9 197.9 29.5 197.7 29.2 197.4C29.3 197.9 29.2 198.4 29 198.8C28.8 199.2 28.4 199.5 27.9 199.8C27.2 200.1 26.5 200.2 25.8 199.9C25.2 199.6 24.6 199 24.2 198.2L23 195.3ZM27.3 194.6L24.3 196L25.1 197.8C25.3 198.3 25.6 198.6 26 198.8C26.4 199 26.8 199 27.3 198.7C28.3 198.2 28.5 197.5 28 196.4L27.3 194.6ZM28.2 194.2L29 195.8C29.2 196.3 29.5 196.6 29.9 196.8C30.3 197 30.7 197 31.1 196.8C31.6 196.6 31.8 196.3 31.9 195.9C32 195.5 31.9 195.1 31.7 194.6L31 193L28.2 194.2Z" fill="white"/>
<path d="M32.2 200.7C33 200.8 33.6 201.3 34 202C34.7 203.2 34.4 204.3 33 205.1L29.1 207.3L28.5 206.3L32.4 204.1C32.8 203.9 33.1 203.6 33.2 203.3C33.3 203 33.2 202.6 33 202.2C32.8 201.9 32.6 201.6 32.3 201.5C32 201.4 31.7 201.3 31.3 201.3L27.1 203.7L26.5 202.7L34.8 198L35.4 199L32.2 200.7Z" fill="white"/>
<path d="M32.5017 212.5C32.6017 212.4 32.7017 212.2 33.0017 212C32.2017 211.9 31.7017 211.5 31.2017 210.9C30.8017 210.3 30.7017 209.8 30.8017 209.2C30.9017 208.6 31.1017 208.2 31.6017 207.9C32.2017 207.5 32.8017 207.4 33.4017 207.6C34.0017 207.8 34.6017 208.3 35.1017 209.1L35.7017 210L36.1017 209.7C36.4017 209.5 36.6017 209.2 36.7017 208.9C36.8017 208.6 36.7017 208.2 36.4017 207.8C36.2017 207.5 35.9017 207.2 35.6017 207.1C35.3017 207 35.0017 207 34.7017 207.2L34.1017 206.2C34.4017 206 34.7017 205.9 35.1017 206C35.5017 206.1 35.9017 206.2 36.3017 206.4C36.7017 206.6 37.0017 207 37.3017 207.4C37.7017 208 37.9017 208.7 37.8017 209.2C37.7017 209.8 37.4017 210.3 36.9017 210.7L34.4017 212.4C33.9017 212.7 33.5017 213.1 33.3017 213.4L33.2017 213.5L32.5017 212.5ZM32.2017 210.4C32.4017 210.7 32.7017 210.9 33.0017 211.1C33.3017 211.3 33.7017 211.3 34.0017 211.3L35.1017 210.5L34.6017 209.8C33.8017 208.6 33.1017 208.3 32.4017 208.7C32.1017 208.9 31.9017 209.2 31.9017 209.5C31.9017 209.8 32.0017 210.1 32.2017 210.4Z" fill="white"/>
<path d="M38.1984 217C38.3984 216.8 38.5984 216.6 38.5984 216.3C38.5984 216 38.4984 215.6 38.1984 215.1C37.8984 214.6 37.7984 214.1 37.6984 213.7C37.5984 213.3 37.5984 213 37.6984 212.7C37.7984 212.4 37.9984 212.2 38.1984 212C38.5984 211.7 39.0984 211.6 39.6984 211.7C40.2984 211.8 40.7984 212.2 41.2984 212.7C41.7984 213.3 41.9984 213.9 41.9984 214.5C41.9984 215.1 41.6984 215.6 41.2984 216L40.5984 215.1C40.7984 214.9 40.9984 214.6 40.9984 214.3C40.9984 214 40.8984 213.6 40.5984 213.3C40.2984 213 40.0984 212.8 39.7984 212.7C39.4984 212.6 39.1984 212.7 38.9984 212.9C38.7984 213.1 38.6984 213.3 38.6984 213.5C38.6984 213.8 38.8984 214.2 39.0984 214.7C39.3984 215.2 39.4984 215.7 39.5984 216.1C39.6984 216.5 39.6984 216.8 39.5984 217.1C39.4984 217.4 39.2984 217.6 38.9984 217.9C38.4984 218.3 37.9984 218.4 37.3984 218.2C36.7984 218 36.2984 217.7 35.7984 217.1C35.4984 216.7 35.1984 216.2 35.0984 215.8C34.9984 215.4 34.9984 214.9 35.0984 214.5C35.1984 214.1 35.3984 213.8 35.7984 213.5L36.4984 214.4C36.1984 214.7 36.0984 215 36.0984 215.3C36.0984 215.7 36.1984 216 36.4984 216.4C36.7984 216.7 37.0984 217 37.3984 217.1C37.6984 217.2 37.8984 217.2 38.1984 217Z" fill="white"/>
<path d="M43.7992 217.2C44.5992 217.2 45.2992 217.4 45.7992 218C46.7992 219 46.6992 220.1 45.4992 221.2L42.1992 224.2L41.3992 223.4L44.6992 220.4C45.0992 220.1 45.1992 219.7 45.2992 219.4C45.2992 219.1 45.1992 218.8 44.8992 218.4C44.5992 218.1 44.3992 218 43.9992 217.9C43.5992 217.8 43.2992 217.8 42.9992 217.9L39.4992 221.2L38.6992 220.4L45.6992 213.9L46.4992 214.7L43.7992 217.2Z" fill="white"/>
<path d="M46.8005 228.6C46.8005 228.5 47.0005 228.2 47.2005 228C46.4005 228 45.8005 227.8 45.2005 227.3C44.7005 226.8 44.4005 226.3 44.4005 225.8C44.3005 225.2 44.5005 224.7 44.9005 224.3C45.4005 223.8 45.9005 223.6 46.6005 223.6C47.3005 223.6 47.9005 224 48.6005 224.7L49.4005 225.5L49.8005 225.1C50.1005 224.8 50.2005 224.5 50.2005 224.1C50.2005 223.8 50.0005 223.4 49.7005 223.1C49.4005 222.8 49.1005 222.7 48.7005 222.6C48.4005 222.6 48.1005 222.7 47.9005 222.9L47.1005 222.1C47.3005 221.9 47.6005 221.7 48.0005 221.6C48.4005 221.5 48.8005 221.6 49.2005 221.7C49.6005 221.8 50.0005 222.1 50.4005 222.4C51.0005 222.9 51.3005 223.5 51.3005 224.1C51.4005 224.7 51.2005 225.2 50.7005 225.7L48.6005 228C48.2005 228.5 47.9005 228.9 47.8005 229.2L47.7005 229.3L46.8005 228.6ZM46.0005 226.6C46.3005 226.8 46.6005 227 46.9005 227.1C47.3005 227.2 47.6005 227.2 47.9005 227L48.8005 226L48.1005 225.4C47.1005 224.4 46.3005 224.3 45.7005 224.9C45.5005 225.2 45.4005 225.5 45.4005 225.8C45.5005 226.1 45.7005 226.4 46.0005 226.6Z" fill="white"/>
<path d="M56.3984 231.2C55.6984 230.4 55.3984 229.6 55.1984 229C55.0984 228.4 55.1984 227.8 55.5984 227.3C55.9984 226.7 56.5984 226.4 57.2984 226.4C57.9984 226.4 58.7984 226.6 59.4984 227.2C59.9984 227.6 60.3984 228 60.5984 228.5C60.8984 229 60.9984 229.5 60.8984 230C60.7984 230.5 60.6984 231 60.3984 231.4L59.3984 230.7C59.6984 230.3 59.7984 229.8 59.6984 229.3C59.5984 228.8 59.2984 228.4 58.7984 228C58.2984 227.7 57.8984 227.5 57.4984 227.5C57.0984 227.5 56.6984 227.7 56.4984 228.1C56.2984 228.4 56.1984 228.7 56.2984 229.1C56.3984 229.5 56.6984 230 57.1984 230.6C57.6984 231.2 57.9984 231.8 58.1984 232.2C58.3984 232.7 58.4984 233.1 58.3984 233.5C58.3984 233.9 58.1984 234.3 57.8984 234.7C57.4984 235.3 56.8984 235.6 56.1984 235.6C55.4984 235.6 54.6984 235.3 53.9984 234.8C53.4984 234.4 53.0984 234 52.7984 233.5C52.4984 233 52.3984 232.5 52.3984 232C52.3984 231.5 52.5984 231 52.8984 230.6L53.8984 231.3C53.5984 231.7 53.4984 232.2 53.5984 232.7C53.6984 233.2 54.0984 233.6 54.5984 234C55.0984 234.4 55.5984 234.6 55.9984 234.5C56.3984 234.5 56.7984 234.3 56.9984 233.9C57.2984 233.5 57.2984 233.2 57.1984 232.8C57.1984 232.4 56.8984 231.9 56.3984 231.2Z" fill="white"/>
<path d="M61.7017 239.6C61.7017 239.5 61.8017 239.2 61.9017 238.9C61.2017 239.1 60.5017 239 59.8017 238.6C59.2017 238.3 58.9017 237.8 58.7017 237.3C58.5017 236.8 58.6017 236.2 58.9017 235.7C59.3017 235.1 59.8017 234.8 60.4017 234.7C61.1017 234.6 61.8017 234.9 62.6017 235.4L63.6017 236L63.9017 235.5C64.1017 235.2 64.2017 234.8 64.1017 234.5C64.0017 234.2 63.8017 233.9 63.4017 233.6C63.0017 233.4 62.7017 233.3 62.4017 233.3C62.1017 233.3 61.8017 233.5 61.6017 233.7L60.6017 233.1C60.8017 232.8 61.0017 232.6 61.4017 232.5C61.8017 232.4 62.2017 232.3 62.6017 232.4C63.0017 232.5 63.5017 232.6 63.9017 232.9C64.6017 233.3 65.0017 233.8 65.1017 234.4C65.3017 235 65.2017 235.5 64.8017 236.1L63.2017 238.7C62.9017 239.2 62.7017 239.7 62.6017 240.1L62.5017 240.2L61.7017 239.6ZM60.6017 237.8C60.9017 238 61.2017 238.1 61.6017 238.1C62.0017 238.1 62.3017 238 62.6017 237.8L63.3017 236.6L62.5017 236.1C61.3017 235.4 60.5017 235.3 60.0017 236C59.8017 236.3 59.8017 236.6 59.9017 236.9C60.0017 237.4 60.2017 237.6 60.6017 237.8Z" fill="white"/>
<path d="M68.3992 235.7L68.0992 236.4C68.7992 236.1 69.4993 236.1 70.2993 236.5C71.0993 236.9 71.5992 237.5 71.5992 238.3C71.8992 238.1 72.2992 238 72.6992 238C73.0992 238 73.4992 238.1 73.9992 238.3C75.2992 238.9 75.6992 240 74.9992 241.4L72.9992 245.5L71.9992 245L73.8992 241C74.0992 240.6 74.1992 240.2 74.0992 239.9C73.9992 239.6 73.6993 239.3 73.2993 239.1C72.8993 238.9 72.4992 238.9 72.1992 239C71.8992 239.1 71.4993 239.3 71.2993 239.7L69.3992 243.7L68.3992 243.2L70.2993 239.2C70.6993 238.3 70.4992 237.7 69.5992 237.3C68.8992 237 68.2992 237 67.7992 237.5L65.6992 241.9L64.6992 241.4L67.5992 235.3L68.3992 235.7Z" fill="white"/>
<path d="M79.0012 247.5C79.0012 247.4 79.0012 247.1 79.1012 246.8C78.4012 247.1 77.7012 247.2 77.0012 246.9C76.4012 246.7 75.9012 246.3 75.7012 245.8C75.5012 245.3 75.4012 244.8 75.6012 244.2C75.8012 243.5 76.3012 243.1 76.9012 242.9C77.5012 242.7 78.3012 242.8 79.2012 243.1L80.3012 243.5L80.5012 243C80.6012 242.6 80.6012 242.3 80.5012 242C80.4012 241.7 80.1012 241.5 79.6012 241.3C79.2012 241.2 78.9012 241.1 78.5012 241.2C78.2012 241.3 78.0012 241.5 77.9012 241.8L76.8012 241.4C76.9012 241.1 77.1012 240.8 77.5012 240.6C77.9012 240.4 78.2012 240.3 78.7012 240.2C79.1012 240.2 79.6012 240.2 80.1012 240.4C80.8012 240.7 81.3012 241.1 81.6012 241.6C81.9012 242.1 81.9012 242.7 81.7012 243.3L80.6012 246.2C80.4012 246.8 80.3012 247.3 80.3012 247.7V247.8L79.0012 247.5ZM77.5012 246.1C77.8012 246.2 78.2012 246.3 78.6012 246.2C79.0012 246.1 79.3012 246 79.5012 245.8L80.0012 244.5L79.2012 244.2C77.9012 243.7 77.1012 243.9 76.8012 244.6C76.7012 244.9 76.7012 245.2 76.9012 245.5C76.9012 245.7 77.1012 245.9 77.5012 246.1Z" fill="white"/>
<path d="M86.6 243.9C86.4 243.8 86.3 243.8 86.1 243.7C85.4 243.5 84.8 243.7 84.4 244.2L83.1 248.8L82 248.5L83.9 242L85 242.3L84.8 243.1C85.3 242.6 85.9 242.5 86.6 242.7C86.8 242.8 87 242.8 87.1 242.9L86.6 243.9Z" fill="white"/>
<path d="M89.9992 242L89.5992 243.6L90.7993 243.9L90.5992 244.8L89.3992 244.5L88.3992 248.6C88.2992 248.9 88.2992 249.1 88.3992 249.2C88.4992 249.4 88.5992 249.5 88.8992 249.5C88.9992 249.5 89.1992 249.5 89.4992 249.6L89.3992 250.4C89.0992 250.4 88.7992 250.4 88.4992 250.3C87.9992 250.2 87.6992 249.9 87.4992 249.6C87.2992 249.2 87.2992 248.8 87.3992 248.2L88.3992 244.1L87.1992 243.8L87.3992 242.9L88.5992 243.2L88.9992 241.6L89.9992 242Z" fill="white"/>
<path d="M93.1016 245.1C93.7016 244.6 94.4015 244.4 95.2015 244.5C96.6015 244.7 97.2016 245.7 96.9016 247.2L96.2015 251.6L95.1016 251.4L95.8016 247C95.9016 246.5 95.8015 246.1 95.7015 245.9C95.6015 245.7 95.2016 245.5 94.8016 245.4C94.4016 245.3 94.1016 245.4 93.8016 245.5C93.5016 245.6 93.2015 245.9 93.0015 246.2L92.2015 250.9L91.1016 250.7L92.7015 241.3L93.8016 241.5L93.1016 245.1Z" fill="white"/>
<path d="M102.401 252.3C102.301 252.2 102.301 251.9 102.301 251.6C101.701 252.1 101.101 252.3 100.301 252.3C99.6013 252.2 99.1013 252 98.7013 251.6C98.3013 251.2 98.1013 250.7 98.2013 250.1C98.3013 249.4 98.6013 248.9 99.1013 248.5C99.6013 248.1 100.401 248 101.401 248.1L102.501 248.2V247.7C102.501 247.3 102.401 247 102.201 246.7C102.001 246.4 101.601 246.3 101.201 246.2C100.801 246.2 100.401 246.2 100.101 246.4C99.8013 246.6 99.6013 246.8 99.6013 247.1L98.4013 247C98.4013 246.7 98.6013 246.4 98.8013 246.1C99.1013 245.8 99.4013 245.6 99.8013 245.4C100.201 245.3 100.701 245.2 101.201 245.2C102.001 245.3 102.601 245.5 103.001 245.9C103.401 246.3 103.601 246.9 103.501 247.6L103.201 250.7C103.101 251.3 103.201 251.8 103.301 252.2V252.3H102.401ZM100.501 251.3C100.901 251.3 101.201 251.3 101.501 251.1C101.801 250.9 102.101 250.7 102.301 250.4L102.401 249L101.501 248.9C100.101 248.8 99.4013 249.1 99.3013 249.9C99.3013 250.3 99.4013 250.6 99.6013 250.8C99.8013 251 100.201 251.2 100.501 251.3Z" fill="white"/>
<path d="M107.4 249.4L106.7 250.1V252.5H105.5L105.7 242.9H106.9L106.8 248.7L107.4 248L109.5 245.8H110.9L108.2 248.6L111.1 252.6H109.7L107.4 249.4Z" fill="white"/>
<path d="M115.102 247.6C115.102 247.2 115.202 246.9 115.402 246.7C115.602 246.5 115.902 246.3 116.302 246.3C116.702 246.3 117.002 246.4 117.202 246.6C117.502 246.8 117.602 247.1 117.602 247.5V247.7C117.602 248.1 117.502 248.4 117.302 248.6C117.102 248.8 116.802 249 116.402 249C116.002 249 115.702 248.9 115.502 248.7C115.302 248.5 115.102 248.2 115.102 247.8V247.6Z" fill="white"/>
<path d="M130 249.1C129.8 249.6 129.4 250 128.9 250.3C128.4 250.6 127.8 250.8 127.1 251C126.4 251.1 125.7 251.1 125.1 250.9C124.5 250.7 123.9 250.3 123.5 249.7C123.1 249.1 122.8 248.4 122.6 247.6L122.5 246.8C122.2 245.5 122.4 244.4 122.9 243.5C123.4 242.6 124.2 242.1 125.3 241.9C126.2 241.7 127 241.8 127.7 242.2C128.4 242.6 128.8 243.2 129.1 244L127.9 244.2C127.5 243.1 126.6 242.6 125.5 242.8C124.7 242.9 124.2 243.3 123.9 244C123.6 244.7 123.5 245.5 123.7 246.5L123.8 247.2C124 248.2 124.4 249 124.9 249.5C125.4 250 126.1 250.2 126.9 250C127.3 249.9 127.7 249.8 128 249.6C128.3 249.4 128.6 249.2 128.7 249L128.3 247L126.2 247.4L126 246.4L129.2 245.8L130 249.1Z" fill="white"/>
<path d="M131.099 246.5C130.899 245.9 130.899 245.3 130.999 244.7C131.099 244.1 131.299 243.6 131.699 243.2C132.099 242.8 132.499 242.5 133.099 242.4C133.999 242.2 134.799 242.3 135.499 242.7C136.199 243.2 136.699 243.9 136.999 244.9V245C137.199 245.6 137.199 246.2 137.099 246.8C136.999 247.4 136.799 247.9 136.399 248.3C135.999 248.7 135.599 249 134.999 249.2C134.099 249.4 133.299 249.3 132.599 248.9C131.899 248.4 131.399 247.6 131.099 246.5ZM132.299 246.4C132.499 247.1 132.799 247.6 133.299 248C133.799 248.3 134.299 248.4 134.799 248.3C135.399 248.1 135.699 247.8 135.999 247.3C136.199 246.8 136.199 246.1 135.999 245.3C135.799 244.6 135.499 244.1 134.999 243.7C134.499 243.3 133.999 243.3 133.499 243.4C132.999 243.6 132.599 243.9 132.399 244.4C131.999 244.9 132.099 245.5 132.299 246.4Z" fill="white"/>
<path d="M140.802 247.2L139.702 247.6L136.602 238.6L137.702 238.2L140.802 247.2Z" fill="white"/>
<path d="M141.201 243.4C140.801 242.4 140.701 241.6 140.901 240.8C141.101 240 141.601 239.5 142.301 239.2C143.001 238.9 143.701 238.9 144.301 239.2L143.001 236L144.101 235.6L147.801 244.4L146.801 244.8L146.501 244.2C146.301 244.9 145.801 245.4 145.001 245.7C144.301 246 143.601 245.9 142.901 245.5C142.201 245.1 141.601 244.5 141.201 243.4ZM142.301 243.1C142.601 243.8 143.001 244.3 143.401 244.6C143.801 244.9 144.301 244.9 144.901 244.7C145.601 244.4 145.901 243.9 146.001 243.2L144.801 240.3C144.201 239.8 143.601 239.8 143.001 240C142.501 240.2 142.201 240.6 142.001 241.1C141.901 241.7 142.001 242.3 142.301 243.1Z" fill="white"/>
<path d="M157.299 236.1C157.699 237 157.699 237.8 157.499 238.6C157.199 239.3 156.699 240 155.799 240.5C154.899 241 153.899 241.1 152.999 240.8C152.099 240.5 151.299 239.7 150.599 238.6L150.199 237.8C149.799 237.1 149.499 236.3 149.499 235.6C149.399 234.9 149.599 234.3 149.899 233.7C150.199 233.1 150.699 232.7 151.299 232.3C152.099 231.8 152.899 231.7 153.699 231.9C154.499 232.1 155.099 232.6 155.699 233.3L154.699 233.9C154.299 233.3 153.799 233 153.299 232.9C152.799 232.8 152.299 232.9 151.799 233.2C151.099 233.6 150.799 234.1 150.699 234.8C150.599 235.5 150.799 236.3 151.299 237.2L151.699 238C152.199 238.9 152.799 239.4 153.399 239.7C153.999 240 154.699 240 155.299 239.6C155.899 239.3 156.199 238.9 156.399 238.5C156.599 238.1 156.499 237.5 156.199 236.8L157.299 236.1Z" fill="white"/>
<path d="M158.001 235C157.601 234.5 157.401 233.9 157.301 233.3C157.201 232.7 157.301 232.2 157.501 231.7C157.701 231.2 158.101 230.8 158.601 230.4C159.401 229.9 160.101 229.7 161.001 229.9C161.801 230.1 162.501 230.6 163.101 231.5V231.6C163.501 232.1 163.701 232.7 163.801 233.3C163.901 233.9 163.801 234.4 163.601 234.9C163.401 235.4 163.001 235.8 162.501 236.2C161.701 236.7 161.001 236.9 160.101 236.7C159.401 236.4 158.701 235.9 158.001 235ZM159.101 234.4C159.501 235 160.001 235.4 160.501 235.6C161.001 235.8 161.601 235.7 162.001 235.4C162.501 235.1 162.701 234.6 162.801 234C162.801 233.4 162.601 232.8 162.101 232.1C161.701 231.5 161.201 231.1 160.601 230.9C160.101 230.7 159.501 230.8 159.101 231.1C158.601 231.4 158.401 231.9 158.401 232.4C158.401 233.1 158.601 233.7 159.101 234.4Z" fill="white"/>
<path d="M163.101 227.3L163.701 227.9C163.701 227.1 164.001 226.4 164.701 225.9C165.801 225 166.901 225.2 167.901 226.4L170.701 229.9L169.801 230.6L167.001 227.1C166.701 226.7 166.401 226.5 166.101 226.5C165.801 226.5 165.401 226.6 165.101 226.9C164.801 227.1 164.601 227.4 164.501 227.8C164.401 228.1 164.401 228.5 164.501 228.8L167.501 232.5L166.601 233.2L162.301 228L163.101 227.3Z" fill="white"/>
<path d="M167.502 221.3L168.602 222.5L169.502 221.6L170.102 222.3L169.202 223.2L172.002 226.3C172.202 226.5 172.402 226.6 172.502 226.6C172.602 226.6 172.902 226.5 173.102 226.4C173.202 226.3 173.302 226.2 173.502 226L174.102 226.7C173.902 227 173.702 227.2 173.502 227.4C173.102 227.7 172.702 227.9 172.302 227.8C171.902 227.7 171.502 227.5 171.102 227.1L168.302 224L167.402 224.8L166.802 224.1L167.702 223.3L166.602 222.1L167.502 221.3Z" fill="white"/>
<path d="M173.5 219.2C173.4 219.3 173.2 219.4 173.1 219.6C172.6 220.1 172.4 220.7 172.7 221.4L176.1 224.8L175.3 225.6L170.5 220.9L171.3 220.1L171.9 220.6C171.7 219.9 171.9 219.3 172.4 218.8C172.6 218.6 172.7 218.5 172.8 218.5L173.5 219.2Z" fill="white"/>
<path d="M172.098 216.6C171.998 216.5 171.898 216.3 171.898 216.2C171.898 216.1 171.898 215.9 172.098 215.7C172.298 215.5 172.398 215.5 172.598 215.5C172.798 215.5 172.898 215.6 173.098 215.7C173.198 215.8 173.298 216 173.298 216.1C173.298 216.3 173.198 216.4 173.098 216.6C172.898 216.8 172.798 216.8 172.598 216.8C172.398 216.7 172.198 216.7 172.098 216.6ZM179.198 221.4L178.398 222.3L173.398 217.8L174.198 216.9L179.198 221.4Z" fill="white"/>
<path d="M181.701 213.3C182.501 213.9 183.001 214.7 183.201 215.4C183.401 216.2 183.201 216.9 182.701 217.5C182.201 218.2 181.501 218.5 180.801 218.5L181.401 219L180.701 219.8L173.301 213.8L174.001 212.9L176.801 215.1C176.601 214.4 176.801 213.7 177.301 213.1C177.801 212.5 178.501 212.2 179.201 212.2C179.901 212.2 180.701 212.6 181.701 213.3ZM180.801 214.1C180.201 213.6 179.601 213.3 179.101 213.3C178.601 213.3 178.101 213.5 177.801 213.9C177.301 214.5 177.301 215.1 177.601 215.8L179.901 217.6C180.701 217.8 181.301 217.6 181.801 217C182.101 216.6 182.301 216.1 182.101 215.6C181.901 215.2 181.501 214.7 180.801 214.1Z" fill="white"/>
<path d="M187.099 210.1C187.299 210.8 187.099 211.5 186.599 212.2C186.199 212.8 185.699 213.1 185.199 213.2C184.699 213.3 183.999 213.1 183.299 212.6L179.699 210.1L180.399 209.1L183.999 211.6C184.799 212.2 185.499 212.1 185.999 211.4C186.499 210.7 186.599 210 186.199 209.4L182.199 206.6L182.899 205.6L188.499 209.4L187.899 210.3L187.099 210.1Z" fill="white"/>
<path d="M183 202.2L184.4 203L185 201.9L185.8 202.4L185.2 203.5L188.8 205.6C189 205.7 189.2 205.8 189.4 205.8C189.6 205.8 189.7 205.6 189.9 205.4C190 205.3 190 205.1 190.1 204.9L190.9 205.4C190.8 205.7 190.7 206 190.6 206.2C190.3 206.6 190 206.9 189.6 207C189.2 207.1 188.8 207 188.3 206.7L184.7 204.6L184.1 205.7L183.3 205.2L183.9 204.1L182.5 203.3L183 202.2Z" fill="white"/>
<path d="M188.398 202.8C187.798 202.5 187.298 202.1 186.998 201.6C186.598 201.1 186.498 200.6 186.398 200.1C186.398 199.6 186.498 199 186.698 198.5C187.098 197.7 187.698 197.2 188.598 197C189.498 196.8 190.298 196.9 191.198 197.4H191.298C191.898 197.7 192.298 198.1 192.698 198.5C193.098 198.9 193.198 199.5 193.298 200C193.298 200.5 193.198 201.1 192.998 201.6C192.598 202.4 191.998 202.9 191.098 203.1C190.198 203.4 189.398 203.3 188.398 202.8ZM188.998 201.8C189.698 202.1 190.298 202.3 190.798 202.2C191.398 202.1 191.798 201.8 191.998 201.3C192.298 200.8 192.298 200.3 191.998 199.7C191.698 199.2 191.298 198.7 190.498 198.4C189.798 198.1 189.198 197.9 188.698 198C188.198 198.1 187.698 198.4 187.398 198.9C187.098 199.4 187.098 199.9 187.398 200.4C187.798 201 188.298 201.4 188.998 201.8Z" fill="white"/>
<path d="M190.999 192C190.899 192.1 190.799 192.3 190.699 192.5C190.399 193.2 190.499 193.8 190.999 194.3L195.399 196.2L194.899 197.3L188.699 194.6L189.099 193.6L189.799 193.9C189.399 193.3 189.299 192.7 189.599 192.1C189.699 191.9 189.799 191.7 189.899 191.7L190.999 192Z" fill="white"/>
<defs>
<filter id="filter0_ii" x="0" y="50" width="218" height="218" filterUnits="userSpaceOnUse" color-interpolation-filters="sRGB">
<feFlood flood-opacity="0" result="BackgroundImageFix"/>
<feBlend mode="normal" in="SourceGraphic" in2="BackgroundImageFix" result="shape"/>
<feColorMatrix in="SourceAlpha" type="matrix" values="0 0 0 0 0 0 0 0 0 0 0 0 0 0 0 0 0 0 127 0" result="hardAlpha"/>
<feOffset/>
<feGaussianBlur stdDeviation="4"/>
<feComposite in2="hardAlpha" operator="arithmetic" k2="-1" k3="1"/>
<feColorMatrix type="matrix" values="0 0 0 0 0.9875 0 0 0 0 0.722843 0 0 0 0 0.386771 0 0 0 1 0"/>
<feBlend mode="normal" in2="shape" result="effect1_innerShadow"/>
<feColorMatrix in="SourceAlpha" type="matrix" values="0 0 0 0 0 0 0 0 0 0 0 0 0 0 0 0 0 0 127 0" result="hardAlpha"/>
<feOffset/>
<feGaussianBlur stdDeviation="6"/>
<feComposite in2="hardAlpha" operator="arithmetic" k2="-1" k3="1"/>
<feColorMatrix type="matrix" values="0 0 0 0 0 0 0 0 0 0 0 0 0 0 0 0 0 0 0.2 0"/>
<feBlend mode="normal" in2="effect1_innerShadow" result="effect2_innerShadow"/>
</filter>
<filter id="filter1_i" x="59" y="109" width="100" height="100" filterUnits="userSpaceOnUse" color-interpolation-filters="sRGB">
<feFlood flood-opacity="0" result="BackgroundImageFix"/>
<feBlend mode="normal" in="SourceGraphic" in2="BackgroundImageFix" result="shape"/>
<feColorMatrix in="SourceAlpha" type="matrix" values="0 0 0 0 0 0 0 0 0 0 0 0 0 0 0 0 0 0 127 0" result="hardAlpha"/>
<feOffset/>
<feGaussianBlur stdDeviation="6"/>
<feComposite in2="hardAlpha" operator="arithmetic" k2="-1" k3="1"/>
<feColorMatrix type="matrix" values="0 0 0 0 0.75 0 0 0 0 0.525098 0 0 0 0 0.00937498 0 0 0 1 0"/>
<feBlend mode="normal" in2="shape" result="effect1_innerShadow"/>
</filter>
<linearGradient id="paint0_linear" x1="51.775" y1="57.4937" x2="233.571" y2="236.338" gradientUnits="userSpaceOnUse">
<stop stop-color="white"/>
<stop offset="1" stop-color="#E3BC43"/>
</linearGradient>
<linearGradient id="paint1_linear" x1="174.52" y1="213.6" x2="38.8" y2="107.52" gradientUnits="userSpaceOnUse">
<stop stop-color="#FFFEFB"/>
<stop offset="1" stop-color="#8C6A00" stop-opacity="0"/>
</linearGradient>
<linearGradient id="paint2_linear" x1="194.68" y1="230.4" x2="17.2" y2="91.68" gradientUnits="userSpaceOnUse">
<stop stop-color="#FFFEFC"/>
<stop offset="1" stop-color="#8C6A00" stop-opacity="0"/>
</linearGradient>
</defs>
</svg>
