<svg width="132" height="161" viewBox="0 0 132 161" fill="none" xmlns="http://www.w3.org/2000/svg">
<path d="M51.7641 18.2422C51.0727 18.2422 50.5195 18.7752 50.5195 19.4415V30.6355C50.5195 31.3018 51.0727 31.8348 51.7641 31.8348H80.2502C80.9416 31.8348 81.4947 31.3018 81.4947 30.6355V19.4415C81.4947 18.7752 80.9416 18.2422 80.2502 18.2422H51.7641ZM79.0056 27.0374C79.0056 27.7037 78.4525 28.2368 77.7611 28.2368H54.3914C53.7 28.2368 53.1469 27.7037 53.1469 27.0374V21.9735C53.1469 21.3072 53.7 20.7741 54.3914 20.7741H77.7611C78.4525 20.7741 79.0056 21.3072 79.0056 21.9735V27.0374Z" fill="#D9B68B"/>
<path d="M85.6806 0L69.9062 23.1898H77.7237L95.3128 0H85.6806Z" fill="#0FA711"/>
<path d="M77.7325 0L62.0977 23.1898H69.9151L85.6895 0H77.7325Z" fill="white"/>
<path d="M69.9121 0L54.2773 23.1898H62.0947L77.7295 0H69.9121Z" fill="#FF7600"/>
<path d="M54.2767 23.1898H62.0941L46.3197 0H36.6875L54.2767 23.1898Z" fill="#FF7600"/>
<path d="M62.0869 23.1898H69.9043L54.2695 0H46.3125L62.0869 23.1898Z" fill="white"/>
<path opacity="0.5" d="M67.2564 3.8457L63.3477 9.60885L72.561 23.1934H77.7261L79.1221 21.2724L67.2564 3.8457Z" fill="#3E4347"/>
<path d="M69.9121 23.1898H77.7295L62.0947 0H54.2773L69.9121 23.1898Z" fill="#0FA711"/>
<g filter="url(#filter0_ii)">
<path d="M131.129 94.4364C131.129 130.647 101.774 160.001 65.5643 160.001C29.3541 160.001 0 130.647 0 94.4364C0 58.2262 29.3541 28.8721 65.5643 28.8721C101.774 28.8721 131.129 58.2262 131.129 94.4364Z" fill="#C18A43" fill-opacity="0.7"/>
</g>
<path d="M127.629 94.4364C127.629 128.714 99.8415 156.501 65.5643 156.501C31.2871 156.501 3.5 128.714 3.5 94.4364C3.5 60.1592 31.2871 32.3721 65.5643 32.3721C99.8415 32.3721 127.629 60.1592 127.629 94.4364Z" stroke="#E29435" stroke-width="7"/>
<path d="M127.629 94.4364C127.629 128.714 99.8415 156.501 65.5643 156.501C31.2871 156.501 3.5 128.714 3.5 94.4364C3.5 60.1592 31.2871 32.3721 65.5643 32.3721C99.8415 32.3721 127.629 60.1592 127.629 94.4364Z" stroke="url(#paint0_linear)" stroke-width="7"/>
<path d="M117.897 94.4376C117.897 123.339 94.4672 146.769 65.5655 146.769C36.6638 146.769 13.2344 123.339 13.2344 94.4376C13.2344 65.5359 36.6638 42.1064 65.5655 42.1064C94.4672 42.1064 117.897 65.5359 117.897 94.4376Z" fill="#764B16"/>
<path fill-rule="evenodd" clip-rule="evenodd" d="M65.5608 51.1282C41.6421 51.1282 22.2523 70.5181 22.2523 94.4368C22.2523 118.355 41.6421 137.745 65.5608 137.745C89.4794 137.745 108.869 118.355 108.869 94.4368C108.869 70.5181 89.4794 51.1282 65.5608 51.1282ZM4.20703 94.4368C4.20703 60.552 31.676 33.083 65.5608 33.083C99.4455 33.083 126.915 60.552 126.915 94.4368C126.915 128.322 99.4455 155.791 65.5608 155.791C31.676 155.791 4.20703 128.322 4.20703 94.4368Z" fill="#805726"/>
<path d="M65.5588 48.1221C40.03 48.1221 19.2422 68.7883 19.2422 94.4387C19.2422 120.089 39.9084 140.755 65.5588 140.755C91.2093 140.755 111.875 120.089 111.875 94.4387C111.875 68.7883 91.0877 48.1221 65.5588 48.1221ZM56.3198 52.62C56.4414 52.62 56.4414 52.62 56.3198 52.62C57.1708 54.4435 58.7511 55.5376 60.3315 55.1729C61.9119 54.9298 63.4922 53.8357 63.6138 51.6475C63.8569 51.6475 64.1001 51.6475 64.3432 51.6475C64.3432 58.212 63.8569 65.2629 63.1275 72.9215C63.006 73.6509 63.006 74.3803 63.006 75.1097C62.7628 74.5019 62.5197 73.7725 62.2766 72.9215C59.7237 66.4785 57.4139 59.5493 55.5904 52.7416C55.9551 52.7416 56.0767 52.62 56.3198 52.62ZM45.7436 56.3886C47.0808 57.9689 48.7827 58.5767 50.2415 57.8474C51.9434 57.118 52.916 55.416 52.5513 53.5925C52.7944 53.471 53.0375 53.471 53.2807 53.3494C54.861 59.6708 56.4414 66.6001 57.6571 74.2588C57.7786 75.1097 57.9002 75.7176 58.1433 76.447C57.7786 75.8391 57.4139 75.2313 56.8061 74.5019C52.6728 68.9099 48.6612 62.8316 45.1357 56.7533C45.2573 56.6317 45.5004 56.5101 45.7436 56.3886ZM36.383 62.9531C38.0849 64.0472 39.9084 64.1688 41.1241 63.1963C42.0966 62.4669 42.5829 61.3728 42.5829 60.2787C42.5829 59.6708 42.4613 59.063 42.0966 58.5767C42.3397 58.4552 42.4613 58.3336 42.7044 58.2121C45.9867 63.8041 49.1474 70.2471 52.4297 77.1763C52.7944 77.9057 53.1591 78.5136 53.4022 79.1214C52.916 78.6351 52.3081 78.1489 51.7003 77.6626C46.3514 73.1647 40.8809 68.302 35.8967 63.4394C36.0183 63.1963 36.2614 63.0747 36.383 62.9531ZM29.089 71.5843C29.2106 71.5843 29.2106 71.5843 29.089 71.5843C31.0341 72.1921 32.8576 71.949 33.7085 70.6118C33.9517 70.2471 34.5595 69.2746 34.5595 68.302C34.5595 67.6942 34.3164 66.7217 33.587 65.8707C33.7085 65.7491 33.9517 65.506 34.0732 65.3844C38.6928 70.004 43.4338 75.3529 48.418 81.188C48.9043 81.7959 49.3906 82.2821 49.8768 82.7684C49.269 82.4037 48.5396 82.1606 47.8102 81.7959C41.4888 78.8783 34.9242 75.596 28.7243 72.1921C28.8459 71.949 28.9675 71.8274 29.089 71.5843ZM24.348 81.7959C24.348 81.7959 24.348 81.6743 24.348 81.7959C26.4146 81.9174 27.9949 81.188 28.6028 79.6077C28.7243 79.243 28.8459 78.7567 28.8459 78.0273C28.8459 77.2979 28.6028 75.9607 27.144 74.9882C27.2655 74.745 27.3871 74.6235 27.5087 74.3803C33.1007 77.6626 39.179 81.5527 45.3789 85.9291C45.9867 86.4154 46.7161 86.7801 47.2024 87.1448C46.5945 87.0232 45.7436 86.9016 44.8926 86.6585C38.0849 85.686 30.9125 84.2272 23.9833 82.4037C24.2264 82.2821 24.348 82.039 24.348 81.7959ZM22.4029 92.8584C22.4029 92.8584 22.4029 92.7368 22.4029 92.8584C24.348 92.4937 25.8068 91.278 25.9283 89.6976C25.9283 89.5761 25.9283 89.4545 25.9283 89.2114C25.9283 87.7526 25.1989 86.1722 23.3754 85.5644C23.3754 85.3213 23.497 85.0781 23.497 84.835C29.8184 86.5369 36.6261 88.8467 43.7985 91.3996C44.5279 91.6427 45.2573 91.8858 45.8651 92.0074C45.1357 92.0074 44.4064 92.129 43.5554 92.129C36.7477 92.9799 29.3322 93.3446 22.2813 93.4662C22.4029 93.3446 22.4029 93.1015 22.4029 92.8584ZM23.3754 104.164C23.3754 104.042 23.3754 104.042 23.3754 104.164C24.9558 103.313 25.9283 102.097 25.9283 100.639C25.9283 100.517 25.9283 100.274 25.9283 100.152C25.6852 98.572 24.5911 96.9916 22.4029 96.87C22.4029 96.6269 22.4029 96.3838 22.4029 96.1406C28.9675 96.1406 36.0183 96.5054 43.677 97.1132C44.5279 97.2347 45.2573 97.2347 45.8651 97.2347C45.2573 97.4779 44.5279 97.721 43.677 97.9641C37.234 100.517 30.3047 102.827 23.497 104.772C23.497 104.65 23.497 104.407 23.3754 104.164ZM27.2655 114.74C27.2655 114.74 27.2655 114.619 27.2655 114.74C28.3596 113.768 28.9675 112.674 28.9675 111.458C28.9675 110.972 28.8459 110.607 28.7243 110.242C28.1165 108.784 26.6577 107.568 24.4695 108.054C24.348 107.811 24.348 107.568 24.2264 107.325C30.5478 105.623 37.4771 104.164 45.0142 102.827C45.8651 102.705 46.473 102.462 47.2024 102.341C46.5945 102.705 45.9867 103.07 45.2573 103.678C39.6653 107.811 33.587 111.823 27.5087 115.47C27.5087 115.105 27.3871 114.983 27.2655 114.74ZM33.8301 123.979C34.4379 123.007 34.6811 122.156 34.6811 121.183C34.6811 120.454 34.4379 119.724 33.9517 119.238C32.9791 118.023 31.1557 117.172 29.2106 118.144C29.089 117.901 28.9675 117.779 28.8459 117.536C34.4379 114.254 40.8809 110.972 47.8102 107.689C48.5396 107.325 49.1474 106.96 49.7553 106.717C49.269 107.203 48.7827 107.811 48.2965 108.419C44.0417 113.889 39.179 119.36 34.3164 124.466C34.1948 124.344 33.9517 124.222 33.8301 123.979ZM42.4613 131.152C42.5829 130.422 42.7044 129.814 42.7044 129.207C42.7044 127.991 42.2182 127.018 41.3672 126.532C40.1515 125.681 38.2065 125.195 36.6261 126.775C36.383 126.654 36.2614 126.411 36.1399 126.289C40.7594 121.67 45.9867 116.807 51.8219 111.944C52.4297 111.458 52.916 110.972 53.4022 110.485C53.0375 111.093 52.7944 111.823 52.4297 112.552C49.7553 118.873 46.5945 125.438 43.0691 131.516C42.9476 131.395 42.7044 131.273 42.4613 131.152ZM52.6728 135.893C52.7944 133.826 51.9434 132.246 50.4847 131.638C49.0259 131.152 47.0808 131.273 45.8651 133.097C45.622 132.975 45.5004 132.854 45.2573 132.732C48.5396 127.14 52.3081 121.062 56.6845 114.74C57.1708 114.011 57.5355 113.403 57.9002 112.917C57.7786 113.525 57.657 114.376 57.4139 115.227C56.4414 122.034 54.9826 129.207 53.2807 136.136C53.1591 136.014 52.916 136.014 52.6728 135.893ZM63.7354 137.716C63.3707 135.771 62.155 134.312 60.5746 134.191C58.9943 134.069 57.1708 134.677 56.563 136.744C56.3198 136.744 56.0767 136.622 55.8336 136.622C57.5355 130.301 59.7237 123.493 62.2766 116.321C62.5197 115.591 62.7628 114.862 62.8844 114.254C62.8844 114.983 63.006 115.713 63.006 116.564C63.8569 123.371 64.3432 130.787 64.4647 137.838C64.2216 137.838 63.9785 137.838 63.7354 137.716ZM107.621 85.686C106.04 86.5369 104.946 87.7526 104.946 89.2114C104.946 89.333 104.946 89.5761 104.946 89.6976C105.189 91.278 106.283 92.8584 108.472 92.9799C108.472 93.2231 108.472 93.4662 108.472 93.7093C102.029 93.7093 94.8562 93.2231 87.1976 92.4937C86.3466 92.3721 85.6172 92.3721 85.0094 92.3721C85.6172 92.129 86.3466 91.8858 87.1976 91.6427C93.6406 89.0898 100.57 86.7801 107.378 84.9566C107.499 85.1997 107.499 85.4428 107.621 85.686ZM103.852 75.1097C103.852 75.1097 103.852 75.2313 103.852 75.1097C102.758 76.0823 102.15 77.1763 102.15 78.392C102.15 78.8783 102.272 79.243 102.393 79.6077C103.001 81.0665 104.46 82.2821 106.648 81.9174C106.77 82.1606 106.77 82.4037 106.891 82.6468C100.57 84.2272 93.519 85.686 85.9819 87.0232C85.131 87.1448 84.5231 87.2663 83.7937 87.5095C84.4016 87.1448 85.0094 86.7801 85.7388 86.2938C91.3308 82.039 97.4091 78.0273 103.487 74.5019C103.609 74.745 103.731 74.8666 103.852 75.1097ZM97.5307 65.9923C96.9229 66.9648 96.5582 67.9373 96.5582 68.7883C96.5582 69.5177 96.8013 70.2471 97.2876 70.7334C98.2601 71.949 99.962 72.8 101.907 71.8274C102.029 72.0706 102.15 72.1921 102.272 72.4353C96.5582 75.596 90.2367 78.8783 83.1859 81.9174C82.4565 82.2821 81.8487 82.5253 81.2409 82.89C81.7271 82.4037 82.2134 81.7959 82.8212 81.188C87.1976 75.8391 92.0602 70.3687 97.0444 65.3844C97.166 65.6276 97.4091 65.7491 97.5307 65.9923ZM88.778 58.4552C88.778 58.4552 88.8995 58.5767 88.778 58.4552C88.6564 59.1846 88.4133 59.7924 88.4133 60.4002C88.4133 61.4943 88.8995 62.4669 89.7505 63.0747C90.9661 63.9257 92.9112 64.4119 94.4916 62.9531C94.6131 63.0747 94.8563 63.3178 94.9778 63.4394C90.3583 68.0589 85.0094 72.8 79.0527 77.6626C78.4448 78.1489 77.837 78.6351 77.4723 79.1214C77.837 78.5136 78.0801 77.9057 78.4448 77.0548C81.2409 70.7334 84.5231 64.1688 88.0486 58.0905C88.4133 58.2121 88.5348 58.3336 88.778 58.4552ZM78.5664 53.7141C78.688 53.7141 78.688 53.7141 78.5664 53.7141C78.4448 55.7807 79.2958 57.3611 80.7546 57.9689C82.2134 58.5767 84.1584 58.4552 85.3741 56.5101C85.6172 56.6317 85.7388 56.7533 85.9819 56.8748C82.6996 62.4669 78.8095 68.4236 74.3116 74.745C73.8253 75.3529 73.4606 75.9607 73.0959 76.5685C73.2175 75.9607 73.4606 75.1097 73.5822 74.2588C74.6763 67.4511 76.1351 60.2787 77.837 53.471C78.2017 53.471 78.3233 53.5925 78.5664 53.7141ZM67.6255 51.6475C67.6255 51.6475 67.747 51.6475 67.6255 51.6475C67.9902 53.5925 69.2058 55.0513 70.7862 55.1729C72.3665 55.2945 74.19 54.6866 74.9194 52.62C75.1626 52.62 75.4057 52.7416 75.6488 52.7416C73.9469 59.063 71.6371 65.8707 68.9627 72.9215C68.7196 73.6509 68.4764 74.3803 68.2333 74.9882C68.2333 74.2588 68.1117 73.5294 68.1117 72.6784C67.3823 65.8707 66.8961 58.4552 66.8961 51.4044C67.1392 51.6475 67.3823 51.6475 67.6255 51.6475ZM74.7979 136.744C73.8253 134.92 72.3665 133.948 70.7862 134.191C69.2058 134.434 67.6255 135.528 67.5039 137.716C67.2608 137.716 67.0176 137.716 66.7745 137.716C66.7745 131.152 67.1392 124.101 67.8686 116.442C67.9902 115.713 67.9902 115.105 67.9902 114.497C67.9902 114.376 67.9902 114.376 67.9902 114.254C68.2333 114.862 68.4764 115.591 68.7196 116.442C71.2724 122.885 73.5822 129.814 75.5273 136.622C75.2841 136.744 75.041 136.744 74.7979 136.744ZM85.2525 132.975C85.2525 132.975 85.131 132.975 85.2525 132.975C83.9153 131.395 82.2134 130.787 80.7546 131.516C79.0527 132.246 78.0801 133.948 78.5664 135.771C78.3233 135.893 78.0801 135.893 77.837 136.014C76.1351 129.693 74.6763 122.764 73.4606 115.227C73.3391 114.376 73.2175 113.768 72.9744 113.038C73.3391 113.646 73.7038 114.254 74.3116 114.983C78.4448 120.575 82.4565 126.654 85.9819 132.732C85.6172 132.854 85.4957 132.854 85.2525 132.975ZM94.6131 126.411C94.6131 126.532 94.6131 126.532 94.6131 126.411C92.9112 125.316 91.0877 125.195 89.872 126.167C88.8995 126.897 88.4133 127.991 88.4133 129.085C88.4133 129.693 88.5348 130.301 88.8995 130.787C88.6564 130.909 88.5348 131.03 88.2917 131.152C85.0094 125.56 81.7271 119.117 78.5664 112.187C78.2017 111.458 77.837 110.85 77.5939 110.242C78.0801 110.729 78.688 111.215 79.2958 111.701C84.7663 115.956 90.2367 120.819 95.2209 125.803C94.9778 126.167 94.8562 126.289 94.6131 126.411ZM101.786 117.901C101.786 117.901 101.786 118.023 101.786 117.901C99.8405 117.293 98.017 117.536 97.166 118.873C96.9229 119.238 96.315 120.211 96.315 121.183C96.315 121.791 96.5582 122.764 97.2876 123.615C97.166 123.736 96.9229 123.979 96.8013 124.101C92.1818 119.481 87.4407 114.132 82.5781 108.297C82.0918 107.689 81.6056 107.082 81.1193 106.717C81.7271 107.082 82.4565 107.325 83.1859 107.689C89.5073 110.485 96.0719 113.768 102.272 117.172C102.029 117.536 101.907 117.658 101.786 117.901ZM106.527 107.689C106.527 107.811 106.527 107.811 106.527 107.689C104.46 107.568 102.88 108.297 102.272 109.878C102.15 110.242 102.029 110.729 102.029 111.458C102.029 112.187 102.272 113.525 103.731 114.497C103.609 114.74 103.487 114.862 103.366 115.105C97.7738 111.823 91.6955 107.933 85.4957 103.556C84.8878 103.07 84.1584 102.705 83.6722 102.341C84.28 102.462 85.131 102.705 85.9819 102.827C92.7896 103.799 99.962 105.258 106.77 107.082C106.648 107.325 106.648 107.568 106.527 107.689ZM108.472 96.7485C106.527 97.1132 105.068 98.2073 104.946 99.7876C104.946 99.9092 104.946 100.031 104.946 100.274C104.946 101.733 105.676 103.313 107.499 103.921C107.499 104.164 107.378 104.407 107.378 104.65C101.056 102.948 94.2484 100.76 87.076 98.0857C86.3466 97.8426 85.6172 97.5994 85.0094 97.4779C85.7388 97.4779 86.4682 97.3563 87.3192 97.3563C94.1269 96.6269 101.542 96.1406 108.593 96.1406C108.593 96.2622 108.472 96.5053 108.472 96.7485Z" fill="#D9B68B"/>
<g filter="url(#filter1_i)">
<circle cx="65.5676" cy="94.4377" r="30.0754" fill="#805726"/>
</g>
<mask id="mask0" mask-type="alpha" maskUnits="userSpaceOnUse" x="35" y="64" width="61" height="61">
<circle cx="65.5676" cy="94.4377" r="30.0754" fill="#C3863A"/>
</mask>
<g mask="url(#mask0)">
<path d="M49.7498 63.3922L49.7505 63.3931L49.9009 63.6148L50.3284 64.2453C50.6971 64.7894 51.2247 65.5688 51.8607 66.5101C53.1326 68.3925 54.8377 70.9226 56.5707 73.5128C58.3034 76.1027 60.0649 78.7541 61.449 80.8788C62.1409 81.9408 62.7399 82.8734 63.1944 83.6018C63.6396 84.3154 63.9686 84.868 64.098 85.1483C64.1448 85.2498 64.1618 85.3626 64.1471 85.4734C64.0881 85.9155 63.8447 86.3014 63.554 86.6225C63.2591 86.9484 62.8745 87.2529 62.4512 87.5338C61.6041 88.0962 60.5234 88.6151 59.4784 89.0537C58.4285 89.4943 57.3909 89.8634 56.6177 90.1219C56.3531 90.2104 56.1188 90.2861 55.9249 90.3475C56.0338 90.6413 56.1802 91.0279 56.3524 91.4624C56.7371 92.4335 57.243 93.624 57.7423 94.5513C58.0158 95.0591 57.8594 95.5572 57.5871 95.9232C57.3307 96.2678 56.9279 96.5705 56.4888 96.8354C55.5978 97.373 54.3381 97.8821 53.0863 98.3179C51.9485 98.714 50.7872 99.0597 49.857 99.3195C50.1966 99.4342 50.565 99.5597 50.9469 99.6914C52.5441 100.242 54.4161 100.915 55.4062 101.372C56.4371 101.848 56.946 102.431 56.9826 103.091C56.9997 103.397 56.9056 103.645 56.8166 103.808C56.7716 103.89 56.7253 103.955 56.6884 104.002C56.6697 104.026 56.653 104.045 56.6394 104.06L56.6312 104.069C56.6267 104.075 56.6193 104.084 56.6094 104.096C56.5878 104.124 56.5543 104.168 56.513 104.227C56.4301 104.345 56.3167 104.523 56.2026 104.751C55.9735 105.209 55.7488 105.856 55.7488 106.625C55.7488 106.866 55.7549 107.165 55.7617 107.507L55.7617 107.507V107.507C55.7789 108.361 55.8013 109.475 55.7482 110.579C55.6745 112.106 55.454 113.795 54.7768 114.895C54.6085 115.169 54.3287 115.335 54.0806 115.443C53.8176 115.557 53.4998 115.645 53.1524 115.715C52.4555 115.855 51.5521 115.939 50.5321 115.984C48.4868 116.075 45.8854 116.014 43.3371 115.894C40.7853 115.774 38.2721 115.594 36.3979 115.444C35.4605 115.369 34.6823 115.301 34.1382 115.252C33.8662 115.228 33.6526 115.208 33.5069 115.194L33.3405 115.179L33.3115 115.176H20.2186C19.8929 115.176 19.6289 114.912 19.6289 114.586V64.3132C19.6289 63.9922 19.8857 63.7301 20.2066 63.7236L49.25 63.1339C49.4496 63.1299 49.6377 63.2271 49.7498 63.3922Z" fill="#FFE4C1"/>
<path fill-rule="evenodd" clip-rule="evenodd" d="M68.7502 89.8477C68.348 90.2499 68.3718 90.9028 68.7153 91.3561C69.4325 92.3025 69.858 93.4821 69.858 94.7612C69.858 95.9479 69.4917 97.0491 68.8659 97.9579C68.5531 98.4121 68.5463 99.0398 68.9363 99.4299C69.3295 99.8231 69.9736 99.8249 70.3098 99.382C71.2846 98.0984 71.8631 96.4973 71.8631 94.7612C71.8631 92.899 71.1976 91.1923 70.0915 89.8659C69.7477 89.4537 69.1297 89.4682 68.7502 89.8477ZM72.1216 101.205C71.7724 101.633 71.7692 102.263 72.1598 102.653C72.5523 103.046 73.1924 103.047 73.5501 102.623C75.3403 100.499 76.4191 97.7563 76.4191 94.7613C76.4191 91.647 75.2527 88.8052 73.3328 86.6488C72.971 86.2425 72.346 86.2519 71.9613 86.6366C71.5634 87.0345 71.576 87.6794 71.9434 88.1056C73.4832 89.8919 74.4141 92.2179 74.4141 94.7613C74.4141 97.2051 73.5547 99.4481 72.1216 101.205ZM75.5873 104.667C75.224 105.084 75.222 105.716 75.6129 106.106C76.0051 106.499 76.6435 106.5 77.0112 106.085C79.6808 103.07 81.3015 99.105 81.3015 94.7616C81.3015 90.3016 79.5927 86.2407 76.794 83.198C76.4237 82.7954 75.7957 82.8022 75.4089 83.189C75.0129 83.585 75.0213 84.2267 75.3972 84.6418C77.8204 87.3177 79.2965 90.8673 79.2965 94.7616C79.2965 98.553 77.8974 102.018 75.5873 104.667Z" fill="#FFE4C1"/>
</g>
<circle cx="65.5699" cy="94.4381" r="45.9176" stroke="url(#paint1_linear)" stroke-width="2"/>
<circle cx="65.5608" cy="94.4368" r="60.3537" stroke="url(#paint2_linear)" stroke-width="2"/>
<path d="M13.8359 73.2041L14.1968 72.362L19.3097 71.5199L15.3397 69.7154L15.6405 69.0537L20.4525 71.2191L20.0916 72.0612L14.9187 72.9635L18.8886 74.768L18.5878 75.4297L13.8359 73.2041Z" fill="#FFFDFD"/>
<path d="M18.2873 68.8703C18.2271 68.6297 18.2271 68.3891 18.2873 68.0883C18.3475 67.8477 18.4076 67.6071 18.5279 67.3665C18.6482 67.1259 18.7685 66.9455 18.949 66.8252C19.1294 66.7049 19.2497 66.5846 19.4302 66.5846C19.6106 66.5244 19.7309 66.5244 19.9114 66.5244C20.0918 66.5244 20.2121 66.5846 20.3324 66.6447L21.8963 67.547C22.0166 67.6071 22.0768 67.6673 22.1971 67.7274C22.3174 67.7876 22.3775 67.7876 22.4377 67.8477L22.1369 68.3891C21.9565 68.3289 21.8362 68.2086 21.6557 68.1485C21.776 68.3891 21.8362 68.6297 21.8362 68.8703C21.8362 69.1109 21.7159 69.3515 21.5956 69.532C21.5354 69.6523 21.4151 69.7726 21.2948 69.8929C21.1745 70.0132 21.0542 70.0733 20.9339 70.1335C20.8136 70.1936 20.6332 70.1936 20.5129 70.1936C20.3926 70.1936 20.2121 70.1335 20.0918 70.0733C19.9114 69.953 19.7309 69.8327 19.6708 69.6523C19.6106 69.4718 19.5505 69.2914 19.5505 69.1109C19.5505 68.9305 19.6106 68.6898 19.6708 68.4492C19.7309 68.2086 19.8512 67.968 19.9715 67.7876L20.2121 67.3665L20.0918 67.3064C20.0317 67.2462 19.9114 67.2462 19.8512 67.2462C19.7911 67.2462 19.6708 67.2462 19.5505 67.2462C19.4302 67.2462 19.37 67.3064 19.2497 67.3665C19.1294 67.4267 19.0693 67.547 19.0091 67.6673C18.949 67.7876 18.8888 67.9079 18.8888 67.968C18.8888 68.0883 18.8287 68.1485 18.8287 68.2688C18.8287 68.3289 18.8287 68.4492 18.8287 68.5094C18.8287 68.5695 18.8287 68.6898 18.8888 68.75L18.2873 68.8703ZM20.4527 67.9079C20.3926 68.0282 20.2723 68.2086 20.2121 68.3289C20.152 68.5094 20.0918 68.6297 20.0918 68.75C20.0918 68.8703 20.0918 69.0507 20.0918 69.171C20.152 69.2913 20.2121 69.4116 20.3324 69.4718C20.5129 69.5921 20.6933 69.5921 20.8136 69.532C20.9339 69.4718 21.1144 69.2914 21.1745 69.1109C21.2948 68.9305 21.2948 68.8101 21.355 68.6297C21.4151 68.4492 21.355 68.3289 21.2948 68.2086C21.2347 68.0883 21.1745 67.968 21.1144 67.9079C21.0542 67.7876 20.9339 67.7274 20.8136 67.6673L20.6332 67.547L20.4527 67.9079Z" fill="#FFFDFD"/>
<path d="M21.4146 64.0004L20.8733 64.7823L22.1966 65.6846C22.2567 65.7447 22.377 65.8049 22.4372 65.865C22.4973 65.9252 22.6176 65.9252 22.6778 65.9854C22.738 65.9854 22.8583 65.9854 22.9184 65.9854C22.9786 65.9854 23.0387 65.8651 23.159 65.8049C23.2192 65.7448 23.2192 65.6846 23.2793 65.5643C23.3395 65.444 23.3395 65.3838 23.3395 65.3237L23.8207 65.6846C23.8207 65.8049 23.7605 65.865 23.7004 65.9854C23.6402 66.1057 23.5801 66.1658 23.5801 66.2259C23.4598 66.4666 23.2793 66.5869 23.159 66.647C23.0387 66.7072 22.8583 66.7673 22.738 66.7673C22.6176 66.7673 22.4973 66.7072 22.377 66.647C22.2567 66.5869 22.1364 66.5267 22.0161 66.4064L20.4522 65.3838L20.0312 66.0455L19.55 65.7448L19.971 65.0831L19.1289 64.5417L19.4898 64.0004L20.3319 64.5417L20.8733 63.7598L21.4146 64.0004Z" fill="#FFFDFD"/>
<path d="M20.3328 62.3148C20.2125 62.2546 20.1523 62.1343 20.1523 62.014C20.1523 61.8937 20.1523 61.7734 20.2125 61.6531C20.2726 61.5328 20.3929 61.4727 20.5132 61.4727C20.6335 61.4727 20.7539 61.4727 20.8742 61.5328C20.9945 61.593 21.0546 61.7133 21.0546 61.8336C21.0546 61.9539 21.0546 62.0742 20.9945 62.1945C20.9343 62.3148 20.814 62.3749 20.6937 62.3749C20.5734 62.3749 20.4531 62.3749 20.3328 62.3148ZM21.4757 62.9163L21.8366 62.3749L24.7238 64.42L24.3629 64.9614L21.4757 62.9163Z" fill="#FFFDFD"/>
<path d="M23.7593 62.736C23.5789 62.5556 23.3984 62.3751 23.2781 62.1947C23.1578 61.9541 23.0977 61.7736 23.0977 61.533C23.0977 61.2924 23.0977 61.0518 23.1578 60.8112C23.218 60.5706 23.3383 60.33 23.5187 60.1495C23.6992 59.9691 23.8796 59.7886 24.1202 59.6683C24.3608 59.548 24.5413 59.4879 24.7819 59.4277C25.0225 59.4277 25.2631 59.4277 25.5037 59.4879C25.7443 59.548 25.9849 59.6683 26.1653 59.8488C26.3458 60.0292 26.5262 60.2097 26.6465 60.3901C26.7669 60.6308 26.827 60.8112 26.827 61.0518C26.827 61.2924 26.827 61.533 26.7669 61.7736C26.7067 62.0142 26.5864 62.2548 26.4059 62.4353C26.2255 62.6157 26.045 62.7962 25.8044 62.9165C25.5638 63.0368 25.3834 63.0969 25.1428 63.1571C24.9022 63.1571 24.6616 63.1571 24.421 63.0969C24.1804 62.9766 23.9398 62.8563 23.7593 62.736ZM24.1804 62.1345C24.3007 62.2548 24.4811 62.315 24.6014 62.3751C24.7819 62.4353 24.9022 62.4353 25.0225 62.4353C25.1428 62.4353 25.3232 62.3751 25.4435 62.315C25.5638 62.2548 25.6841 62.1345 25.8044 62.0142C25.9247 61.8939 25.9849 61.7135 26.045 61.5932C26.1052 61.4127 26.1052 61.2924 26.1052 61.1721C26.1052 61.0518 26.045 60.8713 25.9247 60.751C25.8646 60.6307 25.7443 60.5105 25.5638 60.3901C25.4435 60.2698 25.2631 60.2097 25.1428 60.1495C24.9623 60.0894 24.842 60.0894 24.7217 60.0894C24.6014 60.0894 24.421 60.1495 24.3007 60.2097C24.1804 60.2698 24.0601 60.3901 23.9398 60.5104C23.8195 60.6307 23.7593 60.8112 23.6992 60.9315C23.639 61.112 23.639 61.2322 23.639 61.3525C23.639 61.4728 23.6992 61.6533 23.8195 61.7736C23.9398 61.8939 24.0601 62.0142 24.1804 62.1345Z" fill="#FFFDFD"/>
<path d="M25.3242 57.9858L25.8054 57.5046L26.2265 57.8655C26.1663 57.685 26.1663 57.4444 26.1663 57.2038C26.2265 56.9632 26.3468 56.7827 26.5272 56.5421C26.6475 56.4218 26.7678 56.3015 26.9483 56.2414C27.0686 56.1812 27.249 56.1211 27.4295 56.1211C27.6099 56.1211 27.7302 56.1211 27.9107 56.1812C28.0912 56.2414 28.2716 56.3617 28.4521 56.5421L30.0761 58.1061L29.5949 58.5873L28.0912 57.1436C27.9709 57.0233 27.8505 56.9632 27.7302 56.903C27.6099 56.8429 27.4896 56.8429 27.4295 56.8429C27.3693 56.8429 27.249 56.903 27.1287 56.903C27.0084 56.903 26.9483 57.0234 26.8881 57.0835C26.7678 57.2038 26.7077 57.264 26.6475 57.3843C26.5874 57.5046 26.5874 57.6249 26.5874 57.7452C26.5874 57.8655 26.6475 57.9858 26.7077 58.1662C26.7678 58.3467 26.8881 58.467 27.0686 58.5873L28.3919 59.8504L27.9107 60.3316L25.3242 57.9858Z" fill="#FFFDFD"/>
<path d="M28.5703 55.2772C28.5703 55.0366 28.6906 54.796 28.8109 54.5554C28.9312 54.3148 29.1117 54.1343 29.2921 53.9539C29.4726 53.7734 29.653 53.6531 29.8335 53.5929C30.0139 53.5328 30.1944 53.4727 30.3748 53.4727C30.5553 53.4727 30.6756 53.5328 30.7959 53.5929C30.9162 53.6531 31.0365 53.7734 31.1568 53.8335L32.3598 55.1569C32.42 55.2772 32.5403 55.3373 32.6004 55.3975C32.6606 55.4576 32.7207 55.5178 32.841 55.5779L32.42 55.999C32.2997 55.8787 32.1794 55.7584 32.0591 55.6381C32.1192 55.8787 32.0591 56.1193 31.9989 56.3599C31.9388 56.5403 31.7583 56.7809 31.5778 56.9614C31.4575 57.0817 31.3372 57.1418 31.1568 57.202C31.0365 57.2621 30.856 57.3223 30.7357 57.3223C30.6154 57.3223 30.435 57.3223 30.3147 57.2621C30.1944 57.202 30.0741 57.1418 29.9538 56.9614C29.7733 56.7809 29.7132 56.6005 29.653 56.42C29.653 56.2396 29.653 56.0591 29.7132 55.8787C29.7733 55.6982 29.8936 55.5178 30.0139 55.3373C30.1342 55.1569 30.3147 54.9764 30.5553 54.796L30.9162 54.4351L30.7959 54.3148C30.7357 54.2546 30.6756 54.1945 30.5553 54.1343C30.4951 54.0741 30.3748 54.0742 30.2545 54.0742C30.1342 54.0742 30.0741 54.0741 29.9538 54.1343C29.8335 54.1945 29.7132 54.2546 29.653 54.3148C29.5327 54.3749 29.4726 54.4952 29.4124 54.5554C29.3523 54.6155 29.2921 54.7358 29.2921 54.796C29.2921 54.8561 29.232 54.9764 29.232 55.0366C29.232 55.0967 29.232 55.217 29.1718 55.2772H28.5703ZM30.9162 55.0366C30.7959 55.1569 30.6756 55.2772 30.5553 55.3975C30.435 55.5178 30.3748 55.6381 30.3147 55.7584C30.2545 55.8787 30.1944 55.999 30.1944 56.1193C30.1944 56.2396 30.2545 56.3599 30.3147 56.4802C30.435 56.6005 30.6154 56.7208 30.7357 56.6606C30.9162 56.6606 31.0365 56.5403 31.2169 56.3599C31.3372 56.2396 31.4575 56.1193 31.5177 55.999C31.5779 55.8787 31.5778 55.7584 31.5778 55.6381C31.5778 55.5178 31.5177 55.3975 31.4575 55.2772C31.3974 55.1569 31.3372 55.0366 31.2771 54.9764L31.0966 54.796L30.9162 55.0366Z" fill="#FFFDFD"/>
<path d="M29.8945 50.7062L30.4359 50.2852L33.9848 54.616L33.4434 55.0371L29.8945 50.7062Z" fill="#FFFDFD"/>
<path d="M33.4453 48.4201L34.0468 47.999L36.6333 51.7885L38.6183 50.4051L38.9792 50.9464L36.3927 52.7509L33.4453 48.4201Z" fill="#FFFDFD"/>
<path d="M37.7773 48.12C37.8375 47.8794 37.9578 47.6388 38.1382 47.4583C38.3187 47.2779 38.4992 47.0974 38.7398 46.9771C38.9804 46.8568 39.1608 46.7365 39.3413 46.7365C39.5217 46.6764 39.7022 46.6764 39.8826 46.7365C40.0631 46.7967 40.1834 46.8568 40.3037 46.917C40.424 47.0373 40.5443 47.0974 40.6044 47.2779L41.5067 48.8418C41.5668 48.9621 41.627 49.0222 41.6871 49.1425C41.7473 49.2027 41.8074 49.323 41.8676 49.3831L41.3262 49.6839C41.2059 49.5636 41.1458 49.3832 41.0255 49.2027C41.0255 49.5035 40.9653 49.6839 40.7849 49.8644C40.6646 50.0448 40.4841 50.2253 40.2435 50.3456C40.1232 50.4057 39.9428 50.4659 39.8225 50.526C39.642 50.5862 39.5217 50.5862 39.4014 50.526C39.2811 50.4659 39.1007 50.4659 38.9804 50.3456C38.8601 50.2854 38.7398 50.1651 38.6796 49.9847C38.5593 49.8042 38.4992 49.6238 38.4992 49.3831C38.4992 49.1425 38.5593 49.0222 38.6796 48.8418C38.7999 48.6613 38.9202 48.4809 39.1007 48.3606C39.2811 48.1801 39.4616 48.0598 39.7022 47.9395L40.1232 47.6989L40.0631 47.5786C40.0029 47.5185 39.9428 47.4583 39.8826 47.3982C39.8225 47.338 39.7022 47.2779 39.642 47.2779C39.5217 47.2779 39.4616 47.2177 39.3413 47.2779C39.221 47.2779 39.1007 47.338 38.9804 47.3982C38.8601 47.4583 38.7999 47.5185 38.6796 47.5786C38.5593 47.6388 38.5593 47.6989 38.4992 47.8192C38.439 47.8794 38.3789 47.9395 38.3789 48.0598C38.3187 48.12 38.3187 48.1801 38.3187 48.3004L37.7773 48.12ZM40.1232 48.4207C40.0029 48.4809 39.8225 48.6012 39.7022 48.6614C39.5819 48.7817 39.4616 48.8418 39.3413 48.9621C39.221 49.0824 39.1608 49.2027 39.1608 49.323C39.1608 49.4433 39.1608 49.5636 39.221 49.6839C39.3413 49.8644 39.4616 49.9245 39.642 49.9847C39.8225 49.9847 40.0029 49.9245 40.1834 49.8042C40.3638 49.6839 40.4841 49.6238 40.5443 49.5035C40.6044 49.3832 40.6646 49.2628 40.6646 49.1425C40.6646 49.0222 40.6646 48.9019 40.6646 48.7816C40.6044 48.6613 40.6044 48.541 40.5443 48.4207L40.424 48.2403L40.1232 48.4207Z" fill="#FFFDFD"/>
<path d="M40.9648 45.8331L41.5664 45.5324L41.807 46.0136C41.807 45.8331 41.8671 45.5925 41.9874 45.4121C42.1077 45.2316 42.2882 45.0512 42.5889 44.9309C42.7694 44.8707 42.8897 44.8105 43.0701 44.8105C43.2506 44.8105 43.3709 44.8106 43.5513 44.8707C43.7318 44.9309 43.8521 44.991 43.9724 45.1113C44.0927 45.2316 44.213 45.4121 44.3333 45.5925L45.2957 47.6376L44.6942 47.9384L43.7919 46.0737C43.7318 45.9534 43.6115 45.8331 43.5513 45.7128C43.431 45.6527 43.3709 45.5925 43.2506 45.5324C43.1303 45.4722 43.0701 45.4722 42.9498 45.5324C42.8295 45.5324 42.7694 45.5925 42.6491 45.5925C42.5288 45.6527 42.4085 45.7128 42.3483 45.8331C42.2882 45.9534 42.228 46.0136 42.1679 46.1339C42.1077 46.2542 42.1077 46.3745 42.1679 46.5549C42.1679 46.7354 42.228 46.8557 42.3483 47.0361L43.1303 48.6602L42.5288 48.961L40.9648 45.8331Z" fill="#FFFDFD"/>
<path d="M49.3207 46.0149C49.441 46.2555 49.441 46.4961 49.441 46.7367C49.441 46.9773 49.3809 47.2179 49.2606 47.3984C49.1403 47.639 49.02 47.8194 48.8395 47.9397C48.6591 48.1202 48.4185 48.2405 48.1779 48.3608C47.8771 48.4811 47.5763 48.5412 47.2756 48.5412C46.9748 48.5412 46.6741 48.4811 46.3733 48.3608L46.6139 47.639C46.8545 47.7593 47.0951 47.8194 47.2756 47.8194C47.456 47.8194 47.7568 47.8194 47.9974 47.6991C48.238 47.639 48.4185 47.5187 48.5388 47.3984C48.6591 47.2781 48.7794 47.1578 48.7794 46.9773C48.7794 46.7969 48.8395 46.6766 48.8395 46.5563C48.8395 46.436 48.7794 46.2555 48.7192 46.1352L48.5388 45.654C48.4786 45.8946 48.4185 46.1352 48.238 46.2555C48.0576 46.436 47.8771 46.5563 47.6365 46.6766C47.3959 46.7969 47.1553 46.7969 46.9147 46.7969C46.6741 46.7969 46.4335 46.7367 46.253 46.6766C46.0726 46.5563 45.832 46.436 45.7117 46.2555C45.5914 46.0751 45.4109 45.8946 45.3508 45.654C45.2305 45.4134 45.2305 45.1728 45.2305 44.9322C45.2305 44.6916 45.2906 44.451 45.3508 44.2705C45.4109 44.0299 45.5914 43.8495 45.7117 43.669C45.8921 43.4886 46.0726 43.3683 46.3733 43.248C46.6139 43.1878 46.8545 43.1277 47.0951 43.1277C47.3357 43.1277 47.5764 43.1878 47.7568 43.3683L47.5763 42.8871L48.1779 42.6465L49.3207 46.0149ZM46.5538 43.9096C46.3733 43.9698 46.253 44.0901 46.1327 44.1503C46.0124 44.2706 45.9523 44.3908 45.8921 44.5111C45.832 44.6314 45.832 44.8119 45.832 44.9322C45.832 45.0525 45.8921 45.233 45.9523 45.4134C46.0726 45.7743 46.253 45.9548 46.5538 46.0751C46.8545 46.1954 47.1553 46.1954 47.456 46.0751C47.817 45.9548 47.9974 45.7142 48.1177 45.4736C48.238 45.233 48.238 44.8721 48.1177 44.5713C48.0576 44.3908 47.9974 44.2706 47.8771 44.1503C47.7568 44.03 47.6365 43.9096 47.5162 43.8495C47.3959 43.7893 47.2154 43.7292 47.0951 43.7292C46.8545 43.8495 46.7342 43.8495 46.5538 43.9096Z" fill="#FFFDFD"/>
<path d="M53.1137 44.8725L52.452 45.053L52.2716 44.5116C52.2716 44.6921 52.1513 44.9327 51.9708 45.053C51.7904 45.2334 51.6099 45.3537 51.3092 45.4139C51.1287 45.474 51.0084 45.474 50.828 45.474C50.6475 45.474 50.5272 45.4139 50.3468 45.3537C50.1663 45.2936 50.046 45.1733 49.9858 45.053C49.8655 44.9327 49.8054 44.7522 49.6851 44.5116L49.0234 42.3462L49.6851 42.1657L50.2866 44.1507C50.3468 44.3312 50.4069 44.4515 50.4671 44.5116C50.5272 44.6319 50.6475 44.6921 50.7077 44.7522C50.828 44.8124 50.8881 44.8124 51.0084 44.8124C51.1287 44.8124 51.1889 44.8124 51.3092 44.7522C51.4295 44.6921 51.5498 44.6319 51.6701 44.5718C51.7904 44.5116 51.8505 44.3913 51.9107 44.271C51.9708 44.1507 51.9708 44.0304 52.031 43.85C52.031 43.6695 52.031 43.4891 51.9708 43.3086L51.4295 41.5642L52.0911 41.3838L53.1137 44.8725Z" fill="#FFFDFD"/>
<path d="M53.2383 41.6855C53.3586 41.505 53.5992 41.3246 53.7796 41.1441C54.0202 41.0238 54.2608 40.9035 54.5014 40.8434C54.742 40.7832 54.9827 40.7832 55.1631 40.7832C55.3436 40.7832 55.524 40.8433 55.6443 40.9636C55.7646 41.0238 55.8849 41.1441 56.0052 41.2644C56.0654 41.3847 56.1255 41.505 56.1857 41.6855L56.5466 43.4298C56.5466 43.5501 56.6067 43.6704 56.6067 43.7907C56.6067 43.911 56.6669 43.9712 56.6669 44.0915L56.0654 44.2118C56.0052 44.0313 55.9451 43.8509 55.9451 43.6704C55.8248 43.911 55.7045 44.0915 55.524 44.2719C55.3436 44.3922 55.103 44.5125 54.8623 44.5727C54.6819 44.6328 54.5616 44.6328 54.3811 44.6328C54.2007 44.6328 54.0804 44.5727 53.9601 44.5125C53.8398 44.4524 53.7195 44.3321 53.6593 44.2719C53.5992 44.2118 53.4789 44.0313 53.4789 43.8509C53.4187 43.6103 53.4187 43.4298 53.4789 43.2494C53.539 43.0689 53.6593 42.9486 53.7796 42.7682C53.9601 42.6479 54.1405 42.5276 54.321 42.4073C54.5616 42.287 54.8022 42.2268 55.0428 42.1667L55.524 42.0464L55.4639 41.9261C55.4639 41.8659 55.4037 41.7456 55.3436 41.6855C55.2834 41.6253 55.2233 41.5652 55.1631 41.505C55.103 41.4449 54.9827 41.3847 54.8623 41.3847C54.742 41.3847 54.6217 41.3847 54.5014 41.3847C54.3811 41.3847 54.2608 41.4449 54.2007 41.505C54.1405 41.5652 54.0202 41.6253 53.9601 41.6253C53.8999 41.6855 53.8398 41.7456 53.7796 41.8058C53.7195 41.8659 53.6593 41.9261 53.5992 41.9862L53.2383 41.6855ZM55.4037 42.6479C55.2233 42.708 55.103 42.708 54.9225 42.7682C54.7421 42.8283 54.6217 42.8885 54.5014 42.9486C54.3811 43.0088 54.2608 43.1291 54.2007 43.2494C54.1405 43.3697 54.1405 43.49 54.1405 43.6103C54.2007 43.7907 54.2608 43.911 54.4413 43.9712C54.6217 44.0313 54.8022 44.0313 54.9827 43.9712C55.1631 43.911 55.2834 43.8509 55.4037 43.7907C55.524 43.7306 55.5842 43.6103 55.6443 43.49C55.7045 43.3697 55.7045 43.2494 55.7646 43.1291C55.7646 43.0088 55.7646 42.8885 55.7646 42.7682L55.7045 42.5276L55.4037 42.6479Z" fill="#FFFDFD"/>
<path d="M60.9326 43.4282C60.9928 43.6688 60.9326 43.9696 60.8725 44.15C60.8123 44.3906 60.692 44.5711 60.5717 44.7515C60.4514 44.932 60.271 45.1124 60.0304 45.2327C59.7898 45.353 59.5492 45.4132 59.2484 45.4733C58.8875 45.5335 58.5867 45.5335 58.286 45.4733C57.9852 45.4132 57.6845 45.2929 57.4439 45.1124L57.8048 44.5109C57.9852 44.6913 58.2258 44.8117 58.4063 44.8718C58.6469 44.932 58.8273 44.932 59.1281 44.932C59.3687 44.8718 59.5492 44.8117 59.7296 44.7515C59.9101 44.6312 59.9702 44.5711 60.0905 44.4508C60.1507 44.3305 60.2108 44.2101 60.2108 44.0297C60.2108 43.8492 60.2108 43.7289 60.2108 43.6086L60.1507 43.0673C60.0304 43.3079 59.9101 43.4883 59.6695 43.6086C59.489 43.7289 59.2484 43.8493 59.0078 43.8493C58.7672 43.9094 58.5266 43.8492 58.286 43.7891C58.0454 43.7289 57.8649 43.6086 57.6845 43.4883C57.504 43.368 57.3837 43.1876 57.2634 42.947C57.1431 42.7665 57.083 42.5259 57.0228 42.2252C56.9627 41.9244 57.0228 41.744 57.0228 41.5034C57.083 41.2628 57.1431 41.0823 57.3236 40.8417C57.504 40.6011 57.6243 40.4808 57.8048 40.3605C57.9852 40.2402 58.2258 40.18 58.5266 40.1199C58.7672 40.0597 59.0078 40.1199 59.2484 40.1801C59.489 40.2402 59.6695 40.3605 59.8499 40.541L59.7898 40.0597L60.4514 39.9395L60.9326 43.4282ZM58.7672 40.7214C58.5867 40.7214 58.4063 40.7815 58.286 40.9019C58.1657 41.0222 58.0454 41.0823 57.9852 41.2026C57.9251 41.3229 57.8649 41.4432 57.8048 41.6237C57.7446 41.8041 57.7446 41.9244 57.8048 42.1049C57.8649 42.4658 57.9852 42.7064 58.2258 42.8868C58.4664 43.0673 58.7672 43.1274 59.1281 43.0673C59.489 43.0071 59.7296 42.8868 59.9101 42.6462C60.0905 42.4056 60.1507 42.1049 60.0905 41.744C60.0905 41.5635 60.0304 41.3831 59.9702 41.2628C59.9101 41.1425 59.7898 41.0222 59.6695 40.9019C59.5492 40.7815 59.4289 40.7214 59.2484 40.7214C59.068 40.7214 58.8875 40.7214 58.7672 40.7214Z" fill="#FFFDFD"/>
<path d="M62.196 41.8646C62.196 42.0451 62.2562 42.1654 62.3163 42.2857C62.3765 42.406 62.4968 42.5263 62.6171 42.5865C62.7374 42.6466 62.8577 42.7068 62.978 42.7669C63.0983 42.8271 63.2787 42.8271 63.399 42.8271C63.5795 42.8271 63.7599 42.7669 63.9404 42.6466C64.0607 42.5263 64.2411 42.406 64.3614 42.2256L64.9028 42.5865C64.5419 43.0677 64.0607 43.3684 63.399 43.3684C63.0983 43.3684 62.8577 43.3684 62.6171 43.2481C62.3765 43.188 62.196 43.0677 62.0156 42.8872C61.8351 42.7068 61.7148 42.5263 61.5945 42.3459C61.4742 42.1053 61.4141 41.8647 61.4141 41.624C61.4141 41.3834 61.4141 41.1428 61.5344 40.9022C61.5945 40.6616 61.7148 40.4812 61.8953 40.3007C62.0757 40.1203 62.2562 40 62.4366 39.8797C62.6772 39.7594 62.9178 39.6992 63.1584 39.6992C63.4592 39.6992 63.7599 39.6992 63.9404 39.8195C64.181 39.9398 64.3614 40.0601 64.4817 40.2406C64.6021 40.421 64.7224 40.6015 64.8427 40.8421C64.963 41.0827 64.963 41.2631 64.963 41.5037V41.7444L62.196 41.8646ZM64.2411 41.203C64.2411 41.0827 64.181 40.9022 64.1208 40.7819C64.0607 40.6616 64.0005 40.5413 63.9404 40.4812C63.8802 40.421 63.7599 40.3007 63.6396 40.3007C63.5193 40.3007 63.3389 40.2406 63.2186 40.2406C63.0381 40.2406 62.9178 40.3007 62.7975 40.3609C62.6772 40.421 62.5569 40.5413 62.4366 40.6015C62.3765 40.7218 62.2562 40.8421 62.2562 40.9624C62.196 41.0827 62.196 41.203 62.196 41.3233L64.2411 41.203Z" fill="#FFFDFD"/>
<path d="M69.1764 38.6765L67.4922 38.5562L67.5523 37.8945L71.6426 38.1351L71.5824 38.7968L69.8982 38.6765L69.6576 43.248L68.9358 43.1878L69.1764 38.6765Z" fill="#FFFDFD"/>
<path d="M71.4593 39.9395L72.121 39.9996L72.0608 40.541C72.121 40.4808 72.1811 40.3605 72.2413 40.3003C72.3014 40.2402 72.4217 40.18 72.4819 40.1199C72.6022 40.0597 72.6623 40.0597 72.7826 39.9996C72.9029 39.9394 73.0232 39.9996 73.0834 39.9996C73.1435 39.9996 73.2638 40.0597 73.3841 40.0597L73.2638 40.7816C73.2037 40.7816 73.1435 40.7214 73.0834 40.7214C73.0232 40.7214 72.9631 40.7214 72.9029 40.6613C72.6022 40.6011 72.3014 40.6613 72.121 40.8417C71.9405 41.0222 71.8202 41.2628 71.7601 41.6838L71.5796 43.4282L70.918 43.368L71.4593 39.9395Z" fill="#FFFDFD"/>
<path d="M74.2251 40.6623C74.4657 40.542 74.7063 40.4217 74.9469 40.3615C75.1875 40.3014 75.4281 40.3014 75.7289 40.3615C75.9695 40.4217 76.2101 40.4818 76.3906 40.542C76.571 40.6623 76.6913 40.7224 76.8116 40.9029C76.9319 41.0232 76.9921 41.1435 76.9921 41.3239C77.0522 41.4442 77.0522 41.6247 76.9921 41.8051L76.6913 43.5495C76.6913 43.6698 76.6312 43.7901 76.6312 43.9104C76.6312 44.0307 76.6312 44.0909 76.6312 44.2112L76.0297 44.0909C76.0297 43.9104 76.0898 43.73 76.0898 43.5495C75.9094 43.73 75.7289 43.8503 75.4883 43.9104C75.2477 43.9706 75.0071 43.9706 74.7665 43.9104C74.586 43.9104 74.4657 43.8503 74.3454 43.7901C74.2251 43.73 74.1048 43.6097 73.9845 43.5495C73.8642 43.4292 73.8041 43.3089 73.8041 43.1886C73.8041 43.0683 73.7439 42.8878 73.8041 42.7074C73.8642 42.4668 73.9244 42.2863 74.0447 42.166C74.165 42.0457 74.3454 41.9254 74.5259 41.8653C74.7063 41.8051 74.9469 41.745 75.1875 41.745C75.4281 41.745 75.6688 41.745 75.9695 41.8051L76.4507 41.8653V41.745C76.4507 41.6848 76.4507 41.5645 76.4507 41.4442C76.4507 41.3239 76.3906 41.2638 76.3304 41.2036C76.2703 41.1435 76.2101 41.0232 76.0898 40.963C75.9695 40.9029 75.8492 40.8427 75.7289 40.8427C75.6086 40.8427 75.4883 40.8427 75.368 40.8427C75.2477 40.8427 75.1875 40.8427 75.0672 40.9029C75.0071 40.9029 74.8868 40.963 74.8266 41.0232C74.7665 41.0833 74.7063 41.0833 74.6462 41.1435L74.2251 40.6623ZM75.8492 42.3465C75.6688 42.3465 75.5485 42.2864 75.368 42.2864C75.1875 42.2864 75.0672 42.2864 74.8868 42.2864C74.7665 42.2864 74.6462 42.3465 74.5259 42.4066C74.4056 42.4668 74.3454 42.5871 74.3454 42.7074C74.2853 42.8878 74.3454 43.0683 74.4657 43.1886C74.586 43.3089 74.7665 43.3691 75.0071 43.4292C75.1875 43.4894 75.368 43.4292 75.4883 43.4292C75.6086 43.3691 75.7289 43.3089 75.8492 43.2488C75.9695 43.1886 76.0297 43.0683 76.0898 42.948C76.15 42.8277 76.2101 42.7074 76.2101 42.5871L76.2703 42.3465H75.8492Z" fill="#FFFDFD"/>
<path d="M78.1327 40.9629L78.7944 41.1434L78.6741 41.6847C78.7944 41.5043 78.9748 41.3839 79.2154 41.3238C79.456 41.2636 79.6966 41.2636 79.9373 41.3238C80.1177 41.3839 80.238 41.4441 80.4185 41.5042C80.5388 41.5644 80.6591 41.6847 80.7794 41.8652C80.8395 41.9855 80.8997 42.1659 80.9598 42.3464C81.02 42.5268 80.9598 42.7073 80.8997 42.9479L80.3583 45.1734L79.6966 44.9328L80.1779 42.8877C80.238 42.7073 80.238 42.587 80.238 42.4667C80.238 42.3464 80.1779 42.2261 80.1177 42.1659C80.0576 42.1058 79.9974 41.9855 79.8771 41.9253C79.817 41.8652 79.6966 41.805 79.5763 41.805C79.456 41.7448 79.3357 41.7448 79.1553 41.805C79.035 41.805 78.9147 41.8652 78.7944 41.9253C78.6741 41.9855 78.6139 42.1058 78.4936 42.2261C78.4335 42.3464 78.3132 42.5268 78.3132 42.7073L77.8921 44.4516L77.2305 44.2712L78.1327 40.9629Z" fill="#FFFDFD"/>
<path d="M83.7326 43.4286C83.6724 43.3083 83.6123 43.188 83.5521 43.1278C83.492 43.0677 83.3115 42.9474 83.1912 42.8872C83.0108 42.8271 82.8905 42.8271 82.7702 42.8271C82.6499 42.8271 82.5296 42.9474 82.5296 43.0677C82.4694 43.188 82.5296 43.2481 82.5296 43.3684C82.5897 43.4286 82.6499 43.5489 82.71 43.609C82.7702 43.6692 82.8905 43.7294 82.9506 43.7895C83.0108 43.8497 83.1311 43.9098 83.1912 43.9098C83.3115 43.9699 83.4318 44.0903 83.5521 44.1504C83.6724 44.2106 83.7326 44.3309 83.7927 44.4512C83.8529 44.5715 83.913 44.6918 83.913 44.8121C83.913 44.9324 83.913 45.0527 83.8529 45.2331C83.7927 45.4136 83.6724 45.594 83.5521 45.6542C83.4318 45.7143 83.3115 45.8346 83.1311 45.8948C82.9506 45.9549 82.8303 45.9549 82.6499 45.9549C82.4694 45.9549 82.2889 45.8948 82.1686 45.8346C81.8679 45.7143 81.6874 45.594 81.507 45.4737C81.3265 45.3534 81.2062 45.1128 81.0859 44.8121L81.6874 44.5715C81.7476 44.6918 81.8679 44.8121 81.928 44.9324C82.0483 45.0527 82.1686 45.173 82.3491 45.2331C82.4093 45.2331 82.5296 45.2933 82.5897 45.2933C82.6499 45.2933 82.7702 45.2933 82.8303 45.2933C82.8905 45.2933 82.9506 45.2331 83.0108 45.2331C83.0709 45.173 83.1311 45.1128 83.1311 45.0527C83.1912 44.9324 83.1311 44.8722 83.1311 44.8121C83.0709 44.7519 83.0108 44.6316 82.9506 44.5715C82.8905 44.5113 82.8303 44.4512 82.71 44.391C82.5897 44.3309 82.5296 44.2707 82.4694 44.2707C82.3491 44.2106 82.2288 44.0903 82.1085 44.0301C81.9882 43.97 81.928 43.8497 81.8679 43.7294C81.8077 43.6091 81.7476 43.4887 81.7476 43.3684C81.7476 43.2481 81.7476 43.1279 81.8077 42.9474C81.8679 42.7669 81.928 42.6466 82.0483 42.5263C82.1686 42.406 82.2889 42.3459 82.4694 42.2857C82.6499 42.2256 82.7702 42.2256 82.9506 42.2256C83.1311 42.2256 83.2514 42.2857 83.4318 42.2857C83.6724 42.3459 83.8529 42.4662 84.0333 42.6466C84.2138 42.8271 84.3341 43.0076 84.3942 43.2482L83.7326 43.4286Z" fill="#FFFDFD"/>
<path d="M86.1373 41.1445L86.7388 41.3851L84.7539 46.6182L84.1523 46.3776L86.1373 41.1445Z" fill="#FFFDFD"/>
<path d="M86.9155 44.1496C87.1561 44.0895 87.3967 44.0293 87.6975 44.0293C87.9982 44.0293 88.1787 44.0894 88.4193 44.2097C88.6599 44.33 88.8403 44.4503 88.9606 44.5706C89.0809 44.691 89.2012 44.8714 89.2614 44.9917C89.3215 45.112 89.3817 45.2925 89.3215 45.4128C89.2614 45.5331 89.2614 45.7135 89.2012 45.8338L88.4794 47.4579C88.4193 47.5782 88.3591 47.6985 88.3591 47.7586C88.299 47.879 88.299 47.9391 88.2388 48.0594L87.6975 47.8188C87.7576 47.6383 87.8178 47.4579 87.8779 47.3376C87.6373 47.4579 87.3967 47.5782 87.2163 47.5782C86.9757 47.5782 86.7351 47.518 86.4945 47.3977C86.3742 47.3376 86.1937 47.2774 86.0734 47.1571C85.9531 47.0368 85.893 46.9165 85.7727 46.7962C85.7125 46.6759 85.6523 46.5556 85.6523 46.3752C85.6523 46.1947 85.6524 46.0744 85.7727 45.894C85.893 45.7135 86.0132 45.5331 86.1336 45.4128C86.314 45.2925 86.4945 45.2323 86.6749 45.2323C86.8554 45.2323 87.096 45.2323 87.3366 45.2925C87.5772 45.3526 87.8178 45.4128 88.0584 45.5331L88.4794 45.7135L88.5396 45.5932C88.5997 45.5331 88.5997 45.4128 88.5997 45.3526C88.5997 45.2925 88.5997 45.1722 88.5396 45.0519C88.4794 44.9316 88.4193 44.8714 88.3591 44.8112C88.299 44.7511 88.1787 44.691 88.0584 44.6308C87.9381 44.5707 87.8178 44.5706 87.7576 44.5105C87.6373 44.5105 87.5772 44.5105 87.4569 44.5105C87.3967 44.5105 87.2764 44.5105 87.2163 44.5706C87.1561 44.5706 87.0358 44.6308 86.9757 44.6308L86.9155 44.1496ZM88.0584 46.1947C87.9381 46.1346 87.7576 46.0744 87.5772 46.0143C87.3967 45.9541 87.2764 45.9541 87.096 45.894C86.9757 45.894 86.7952 45.894 86.7351 45.9541C86.6148 46.0143 86.5546 46.0744 86.4945 46.1947C86.4343 46.3752 86.4343 46.5556 86.4945 46.6759C86.5546 46.7962 86.7351 46.9165 86.9757 47.0368C87.1561 47.097 87.2764 47.1571 87.4569 47.1571C87.5772 47.1571 87.7576 47.097 87.8178 47.0368C87.9381 46.9767 87.9982 46.9165 88.1185 46.7962C88.1787 46.6759 88.2388 46.6158 88.299 46.4955L88.3591 46.315L88.0584 46.1947Z" fill="#FFFDFD"/>
<path d="M92.0326 46.7367L91.1905 46.3157L90.4687 47.7593C90.4085 47.8194 90.4085 47.9397 90.3484 47.9999C90.2882 48.06 90.2882 48.1803 90.2882 48.2405C90.2882 48.3006 90.2882 48.4209 90.3484 48.4811C90.4085 48.5412 90.4687 48.6014 90.589 48.6615C90.6491 48.7217 90.7093 48.7217 90.8296 48.7818C90.8897 48.7818 91.01 48.842 91.0702 48.842L90.7694 49.3833C90.6491 49.3833 90.589 49.3833 90.4687 49.3232C90.3484 49.263 90.2281 49.2631 90.1679 49.2029C89.9273 49.0826 89.807 48.9623 89.6867 48.842C89.5664 48.7217 89.5664 48.6014 89.5664 48.4209C89.5664 48.3006 89.5664 48.1803 89.6266 47.9999C89.6867 47.8796 89.7469 47.7593 89.807 47.639L90.6491 46.0149L89.9875 45.654L90.2281 45.1126L90.8897 45.4736L91.3709 44.5713L91.9724 44.872L91.4912 45.7743L92.3333 46.1954L92.0326 46.7367Z" fill="#FFFDFD"/>
<path d="M93.178 46.676L93.7795 47.0369L92.0351 50.1046L91.4336 49.7436L93.178 46.676ZM93.6592 45.5331C93.7193 45.4128 93.8396 45.3526 93.9599 45.2925C94.0802 45.2323 94.2005 45.2925 94.3208 45.3526C94.4411 45.4128 94.5013 45.5331 94.5614 45.6534C94.6216 45.7737 94.5614 45.894 94.5013 46.0143C94.4411 46.1346 94.3208 46.1948 94.2005 46.2549C94.0802 46.3151 93.9599 46.2549 93.8396 46.1948C93.7193 46.1346 93.6592 46.0143 93.599 45.894C93.5389 45.7737 93.599 45.6534 93.6592 45.5331Z" fill="#FFFDFD"/>
<path d="M93.592 48.9615C93.7123 48.7209 93.8927 48.5404 94.1333 48.4201C94.3739 48.2998 94.5544 48.1795 94.795 48.1193C95.0356 48.0592 95.2762 48.0592 95.5168 48.1193C95.7574 48.1795 95.998 48.2396 96.2386 48.4201C96.4792 48.6005 96.6596 48.7209 96.7799 48.9615C96.9002 49.2021 97.0205 49.3825 97.0807 49.6231C97.1408 49.8637 97.1408 50.1043 97.0807 50.3449C97.0205 50.5855 96.9604 50.8261 96.7799 51.0066C96.6596 51.2472 96.4792 51.4276 96.2386 51.5479C96.0581 51.6682 95.8175 51.7885 95.5769 51.8487C95.3363 51.9088 95.0957 51.9088 94.8551 51.8487C94.6145 51.7885 94.3739 51.7284 94.1333 51.5479C93.8927 51.3675 93.7123 51.2472 93.592 51.0066C93.4717 50.766 93.3514 50.5855 93.2912 50.3449C93.2311 50.1043 93.2311 49.8637 93.2912 49.6231C93.3514 49.3825 93.4717 49.2021 93.592 48.9615ZM94.1935 49.3825C94.0732 49.5028 94.013 49.6833 94.013 49.8637C93.9529 50.0442 93.9529 50.1645 94.013 50.2848C94.013 50.4051 94.0732 50.5855 94.1935 50.7058C94.3138 50.8261 94.3739 50.9464 94.5544 51.0667C94.6747 51.187 94.8551 51.2472 95.0356 51.2472C95.216 51.2472 95.3363 51.2472 95.4566 51.2472C95.5769 51.187 95.7574 51.1269 95.8777 51.0667C95.998 50.9464 96.1183 50.8261 96.2386 50.7058C96.3589 50.5855 96.419 50.4051 96.419 50.2246C96.4792 50.0442 96.4792 49.9239 96.419 49.8036C96.419 49.6833 96.3589 49.5028 96.2386 49.3825C96.1183 49.2622 96.0581 49.1419 95.8777 49.0216C95.7574 48.9013 95.5769 48.8411 95.3965 48.8411C95.216 48.8411 95.0957 48.8411 94.9754 48.8411C94.8551 48.9013 94.6747 48.9614 94.5544 49.0216C94.4341 49.0817 94.3138 49.202 94.1935 49.3825Z" fill="#FFFDFD"/>
<path d="M98.4686 50.0459L99.0099 50.467L98.7092 50.888C98.8896 50.7677 99.0701 50.7677 99.3107 50.7677C99.5513 50.7677 99.7919 50.888 99.9723 51.0685C100.093 51.1888 100.213 51.3091 100.333 51.4294C100.454 51.5497 100.514 51.7301 100.514 51.8504C100.514 51.9707 100.514 52.1512 100.454 52.3316C100.393 52.5121 100.333 52.6925 100.153 52.873L98.7693 54.6775L98.228 54.2564L99.4911 52.6324C99.6114 52.5121 99.6716 52.3918 99.6716 52.2715C99.7317 52.1512 99.7317 52.0309 99.7317 51.9106C99.7317 51.7903 99.6716 51.7301 99.6114 51.6098C99.5513 51.4895 99.4911 51.4294 99.431 51.3692C99.3107 51.3091 99.1904 51.2489 99.0701 51.1888C98.9498 51.1286 98.8295 51.1286 98.7092 51.1888C98.5889 51.1888 98.4686 51.2489 98.3483 51.3692C98.228 51.4294 98.1077 51.6098 97.9873 51.7301L96.9046 53.1737L96.3633 52.7527L98.4686 50.0459Z" fill="#FFFDFD"/>
<path d="M104.722 52.8711L105.443 53.653L103.759 57.623L107.789 55.9989L108.511 56.7809L104.782 60.4501L104.3 59.9689L107.368 56.9613L103.037 58.7057L102.676 58.3448L104.541 54.014L101.473 57.0215L100.992 56.5403L104.722 52.8711Z" fill="#FFFDFD"/>
<path d="M108.09 59.0079L108.511 59.5493L105.804 61.835L105.383 61.2936L108.09 59.0079ZM108.992 58.1056C109.112 58.0455 109.232 57.9854 109.353 57.9854C109.473 57.9854 109.593 58.0455 109.714 58.1658C109.774 58.2861 109.834 58.4064 109.834 58.5267C109.834 58.647 109.774 58.7673 109.654 58.8876C109.533 58.9478 109.413 59.0079 109.293 59.0079C109.172 59.0079 109.052 58.9478 108.932 58.8275C108.872 58.7072 108.811 58.5869 108.811 58.4666C108.811 58.2861 108.872 58.1658 108.992 58.1056Z" fill="#FFFDFD"/>
<path d="M109.65 62.4362C109.71 62.3159 109.71 62.1956 109.65 62.0753C109.65 61.955 109.59 61.8347 109.47 61.6542C109.349 61.5339 109.289 61.4136 109.169 61.4136C109.049 61.3535 108.928 61.3535 108.808 61.4738C108.748 61.5339 108.688 61.5941 108.688 61.7144C108.688 61.8347 108.688 61.8948 108.688 62.0151C108.688 62.1354 108.748 62.1956 108.808 62.3159C108.868 62.4362 108.868 62.4963 108.928 62.5565C108.989 62.6768 109.049 62.7971 109.049 62.9775C109.109 63.0978 109.109 63.2181 109.109 63.3384C109.109 63.4587 109.049 63.5791 108.989 63.6994C108.928 63.8197 108.808 63.94 108.688 64.0001C108.507 64.1204 108.387 64.1806 108.207 64.1806C108.026 64.1806 107.906 64.1805 107.725 64.1204C107.545 64.0602 107.425 64.0001 107.304 63.8798C107.184 63.7595 107.064 63.6392 106.943 63.5189C106.763 63.2783 106.643 63.0377 106.582 62.7971C106.522 62.5565 106.522 62.3159 106.643 62.0151L107.304 62.1354C107.304 62.3159 107.304 62.4362 107.304 62.6166C107.304 62.7971 107.364 62.9174 107.485 63.0978C107.545 63.158 107.605 63.2181 107.665 63.2783C107.725 63.3384 107.785 63.3986 107.846 63.3986C107.906 63.4588 107.966 63.4587 108.086 63.4587C108.146 63.4587 108.207 63.4588 108.267 63.3986C108.327 63.3384 108.387 63.2783 108.387 63.158C108.387 63.0978 108.387 62.9775 108.387 62.9174C108.387 62.7971 108.327 62.7369 108.267 62.6166C108.207 62.4963 108.207 62.4362 108.146 62.376C108.086 62.2557 108.026 62.1354 107.966 61.955C107.906 61.8347 107.906 61.7144 107.906 61.5941C107.906 61.4738 107.906 61.3535 107.966 61.2332C108.026 61.1129 108.086 60.9926 108.267 60.9324C108.387 60.8121 108.567 60.752 108.748 60.752C108.928 60.752 109.049 60.752 109.229 60.8121C109.41 60.8723 109.53 60.9324 109.65 61.0527C109.77 61.173 109.891 61.2933 110.011 61.4136C110.131 61.5941 110.252 61.8347 110.312 62.0151C110.372 62.2557 110.372 62.4963 110.252 62.6768L109.65 62.4362Z" fill="#FFFDFD"/>
<path d="M111.52 65.142C111.58 65.0217 111.58 64.9014 111.58 64.7811C111.58 64.6608 111.52 64.4804 111.4 64.36C111.339 64.2397 111.219 64.1194 111.099 64.0593C110.979 63.9991 110.858 63.9991 110.738 64.0593C110.678 64.1194 110.618 64.1796 110.558 64.2999C110.497 64.4202 110.558 64.4804 110.558 64.6007C110.558 64.721 110.618 64.7811 110.618 64.9014C110.618 65.0217 110.678 65.0819 110.738 65.142C110.798 65.2623 110.858 65.4428 110.858 65.5631C110.858 65.6834 110.918 65.8037 110.858 65.924C110.798 66.0443 110.798 66.1646 110.738 66.2849C110.678 66.4052 110.558 66.4653 110.437 66.5856C110.257 66.7059 110.136 66.7661 109.956 66.7661C109.776 66.7661 109.655 66.7661 109.475 66.7059C109.294 66.6458 109.174 66.5255 109.054 66.4052C108.933 66.2849 108.813 66.1646 108.693 65.9841C108.512 65.7435 108.452 65.5029 108.392 65.2623C108.332 65.0217 108.392 64.7811 108.452 64.4804L109.054 64.6608C109.054 64.8413 108.994 64.9616 108.994 65.142C108.994 65.3225 109.054 65.4428 109.174 65.6232C109.234 65.6834 109.294 65.7435 109.355 65.8037C109.415 65.8638 109.475 65.924 109.535 65.924C109.595 65.9841 109.655 65.9841 109.715 65.9841C109.776 65.9841 109.836 65.9841 109.896 65.924C109.956 65.8638 110.016 65.8037 110.076 65.6834C110.076 65.6232 110.076 65.5029 110.076 65.4428C110.076 65.3225 110.016 65.2623 110.016 65.142C110.016 65.0217 109.956 64.9616 109.896 64.9014C109.836 64.7811 109.776 64.6007 109.776 64.4804C109.715 64.3601 109.715 64.2398 109.715 64.1195C109.715 63.9991 109.776 63.8788 109.836 63.7585C109.896 63.6382 110.016 63.5179 110.136 63.4578C110.317 63.3375 110.437 63.2773 110.618 63.2773C110.798 63.2773 110.918 63.2773 111.099 63.3375C111.219 63.3976 111.4 63.4578 111.52 63.5781C111.64 63.6984 111.761 63.8187 111.821 63.939C111.941 64.1195 112.061 64.3601 112.061 64.6007C112.121 64.8413 112.061 65.0819 112.001 65.2623L111.52 65.142Z" fill="#FFFDFD"/>
<path d="M113.082 65.9241L113.443 66.5256L110.435 68.3302L110.074 67.7287L113.082 65.9241ZM114.104 65.1422C114.225 65.082 114.345 65.082 114.465 65.082C114.586 65.082 114.706 65.2023 114.766 65.3226C114.826 65.4429 114.826 65.5632 114.826 65.6835C114.826 65.8038 114.706 65.9241 114.586 65.9843C114.465 66.0444 114.345 66.0444 114.225 66.0444C114.104 66.0444 113.984 65.9241 113.924 65.8038C113.864 65.6835 113.864 65.5632 113.864 65.4429C113.864 65.3226 113.984 65.2023 114.104 65.1422Z" fill="#FFFDFD"/>
<path d="M112.361 68.1502C112.601 68.0299 112.842 67.9697 113.083 67.9697C113.323 67.9697 113.564 67.9697 113.804 68.0299C114.045 68.09 114.226 68.2103 114.406 68.3908C114.586 68.5712 114.767 68.7517 114.887 68.9923C115.007 69.2329 115.068 69.4735 115.128 69.7141C115.128 69.9547 115.128 70.1953 115.068 70.4359C115.007 70.6765 114.887 70.857 114.707 71.0374C114.526 71.2179 114.346 71.3983 114.165 71.5186C113.985 71.6389 113.684 71.6991 113.444 71.6991C113.203 71.6991 112.962 71.6991 112.722 71.6389C112.481 71.5788 112.301 71.4585 112.12 71.278C111.94 71.0976 111.759 70.9171 111.639 70.6765C111.519 70.4359 111.459 70.1953 111.398 69.9547C111.398 69.7141 111.398 69.4735 111.459 69.2329C111.519 68.9923 111.639 68.8118 111.819 68.6314C112 68.4509 112.18 68.2705 112.361 68.1502ZM112.722 68.7517C112.541 68.8118 112.421 68.9321 112.301 69.0525C112.18 69.1728 112.12 69.2931 112.06 69.4134C112 69.5337 112 69.7141 112 69.8344C112 69.9547 112.06 70.1352 112.12 70.3156C112.18 70.4961 112.301 70.6164 112.421 70.6765C112.541 70.7968 112.662 70.857 112.842 70.857C112.962 70.9171 113.143 70.9171 113.263 70.857C113.444 70.857 113.564 70.7968 113.744 70.6765C113.925 70.6164 114.045 70.4961 114.165 70.3758C114.286 70.2555 114.346 70.1352 114.406 70.0149C114.466 69.8946 114.466 69.7141 114.466 69.5938C114.466 69.4735 114.406 69.2931 114.346 69.1126C114.286 68.9322 114.165 68.8118 114.045 68.7517C113.925 68.6314 113.804 68.5712 113.624 68.5712C113.504 68.5111 113.323 68.5111 113.203 68.5712C113.083 68.6314 112.902 68.6915 112.722 68.7517Z" fill="#FFFDFD"/>
<path d="M116.093 71.46L116.334 72.0615L115.853 72.3021C116.033 72.3021 116.274 72.3622 116.454 72.5427C116.635 72.663 116.815 72.9036 116.875 73.1442C116.936 73.3246 116.996 73.4449 116.996 73.6254C116.996 73.8058 116.996 73.9261 116.936 74.1066C116.875 74.2269 116.815 74.4074 116.635 74.5277C116.514 74.648 116.334 74.7682 116.093 74.8885L113.988 75.7908L113.748 75.1893L115.672 74.3472C115.793 74.287 115.913 74.2269 116.033 74.1066C116.093 74.0464 116.214 73.9261 116.214 73.8058C116.274 73.6855 116.274 73.6254 116.274 73.5051C116.274 73.3848 116.214 73.3246 116.214 73.2043C116.154 73.084 116.093 72.9637 115.973 72.9036C115.913 72.7833 115.793 72.7231 115.672 72.7231C115.552 72.663 115.432 72.663 115.251 72.663C115.071 72.663 114.951 72.7231 114.71 72.7833L113.026 73.5051L112.785 72.9036L116.093 71.46Z" fill="#FFFDFD"/>
<path d="M26.8926 126.432L28.0956 127.815C28.2159 127.996 28.3362 128.176 28.4565 128.356C28.5167 128.537 28.5768 128.717 28.5768 128.898C28.5768 129.078 28.5768 129.259 28.5167 129.439C28.4565 129.62 28.3362 129.74 28.1558 129.92C27.9152 130.101 27.6746 130.221 27.434 130.221C27.1934 130.221 26.9528 130.161 26.7122 129.981C26.8325 130.101 26.8926 130.221 26.8926 130.402C26.9528 130.522 26.9528 130.702 26.8926 130.883C26.8926 131.063 26.8325 131.184 26.7723 131.304C26.7122 131.424 26.5919 131.605 26.4716 131.665C26.2911 131.845 26.1107 131.905 25.9302 131.966C25.7498 132.026 25.5091 132.026 25.3287 131.966C25.1482 131.905 24.9076 131.845 24.7272 131.725C24.5467 131.605 24.3663 131.424 24.1858 131.244L23.043 129.92L26.8926 126.432ZM23.8851 129.981L24.5467 130.763C24.6069 130.823 24.7272 130.943 24.7873 131.003C24.8475 131.063 25.0279 131.123 25.1482 131.184C25.2685 131.244 25.3888 131.244 25.5091 131.244C25.6295 131.244 25.8099 131.184 25.9302 131.063C26.1708 130.883 26.2911 130.642 26.231 130.402C26.231 130.161 26.1107 129.92 25.8701 129.62L25.2084 128.838L23.8851 129.981ZM25.7498 128.356L26.3513 129.078C26.4114 129.199 26.5317 129.259 26.652 129.319C26.7723 129.379 26.8325 129.439 26.9528 129.439C27.0731 129.439 27.1934 129.439 27.2535 129.439C27.3738 129.439 27.4941 129.379 27.5543 129.259C27.7347 129.138 27.7949 128.958 27.855 128.778C27.855 128.597 27.7949 128.356 27.6144 128.176L26.8926 127.334L25.7498 128.356Z" fill="#FFFDFD"/>
<path d="M27.1937 131.968C27.3742 131.788 27.5546 131.667 27.7952 131.547C28.0358 131.427 28.2764 131.427 28.4569 131.427C28.6373 131.427 28.9381 131.487 29.1787 131.547C29.4193 131.607 29.5997 131.788 29.7802 131.968C29.9606 132.149 30.0809 132.329 30.2012 132.57C30.3215 132.81 30.3215 133.051 30.3215 133.291C30.3215 133.532 30.2614 133.773 30.2012 133.953C30.1411 134.134 29.9606 134.374 29.7802 134.555C29.5997 134.735 29.4193 134.855 29.1787 134.976C28.9381 135.096 28.6975 135.096 28.517 135.096C28.3366 135.096 28.0358 135.036 27.7952 134.976C27.5546 134.916 27.3742 134.735 27.1937 134.555C27.0132 134.374 26.8929 134.194 26.7726 133.953C26.6523 133.712 26.6523 133.472 26.6523 133.291C26.6523 133.111 26.7125 132.81 26.7726 132.63C26.8328 132.329 27.0132 132.149 27.1937 131.968ZM27.6749 132.449C27.5546 132.57 27.4343 132.69 27.3742 132.87C27.314 133.051 27.2539 133.171 27.2539 133.291C27.2539 133.412 27.2539 133.592 27.314 133.712C27.3742 133.833 27.4945 134.013 27.6148 134.134C27.7351 134.254 27.8554 134.374 28.0358 134.374C28.1561 134.434 28.3366 134.434 28.4569 134.434C28.5772 134.434 28.7576 134.374 28.8779 134.314C28.9982 134.254 29.1787 134.134 29.299 134.013C29.4193 133.893 29.5396 133.773 29.5997 133.592C29.6599 133.412 29.72 133.291 29.72 133.171C29.72 133.051 29.72 132.87 29.6599 132.75C29.5997 132.63 29.4794 132.449 29.3591 132.329C29.2388 132.209 29.1185 132.088 28.9381 132.088C28.8178 132.028 28.6373 132.028 28.517 132.028C28.3967 132.028 28.2163 132.088 28.096 132.149C27.9155 132.209 27.7952 132.329 27.6749 132.449Z" fill="#FFFDFD"/>
<path d="M33.0286 132.268L33.5098 132.689L29.8406 136.899L29.3594 136.478L33.0286 132.268Z" fill="#FFFDFD"/>
<path d="M31.7061 136.237C31.8866 136.057 32.067 135.877 32.2475 135.756C32.4279 135.636 32.6685 135.576 32.9091 135.516C33.1498 135.516 33.3904 135.516 33.631 135.576C33.8716 135.636 34.1122 135.756 34.2926 135.937C34.4731 136.117 34.6535 136.298 34.7738 136.478C34.8941 136.719 34.9543 136.899 35.0144 137.14C35.0144 137.38 35.0144 137.621 34.9543 137.861C34.8941 138.102 34.7738 138.283 34.6535 138.523C34.4731 138.704 34.2926 138.884 34.1122 139.004C33.8716 139.125 33.6911 139.185 33.4505 139.245C33.2099 139.245 32.9693 139.245 32.7287 139.185C32.4881 139.125 32.2475 139.004 32.067 138.824C31.8866 138.643 31.7061 138.463 31.5858 138.283C31.4655 138.042 31.4054 137.862 31.3452 137.621C31.2851 137.38 31.3452 137.14 31.4054 136.899C31.4655 136.658 31.5858 136.418 31.7061 136.237ZM32.3076 136.658C32.1873 136.779 32.1272 136.959 32.067 137.08C32.0069 137.2 32.0069 137.38 32.0069 137.501C32.0069 137.621 32.067 137.801 32.1272 137.922C32.1873 138.042 32.3076 138.162 32.4279 138.283C32.5482 138.403 32.7287 138.463 32.849 138.523C32.9693 138.583 33.1497 138.583 33.2701 138.523C33.3904 138.463 33.5708 138.463 33.6911 138.343C33.8114 138.283 33.9317 138.162 34.052 137.982C34.1723 137.862 34.2325 137.681 34.2926 137.561C34.3528 137.38 34.3528 137.26 34.3528 137.14C34.3528 137.019 34.2926 136.839 34.2325 136.719C34.1723 136.598 34.052 136.478 33.9317 136.358C33.8114 136.237 33.631 136.177 33.5107 136.117C33.3904 136.057 33.2099 136.057 33.0896 136.117C32.9693 136.117 32.7888 136.177 32.6685 136.298C32.5482 136.418 32.3678 136.478 32.3076 136.658Z" fill="#FFFDFD"/>
<path d="M39.1068 137.26L39.7083 137.621L36.9414 142.012L36.3398 141.651L39.1068 137.26Z" fill="#FFFDFD"/>
<path d="M39.7022 139.729L40.3037 140.029L40.0631 140.51C40.2436 140.39 40.424 140.33 40.6646 140.33C40.9052 140.33 41.1458 140.39 41.3864 140.51C41.5067 140.571 41.6872 140.691 41.7473 140.811C41.8676 140.932 41.9278 141.052 41.9879 141.232C42.0481 141.353 42.0481 141.533 42.0481 141.713C42.0481 141.894 41.9879 142.074 41.8676 142.315L40.7849 144.3L40.1834 143.999L41.1458 142.195C41.206 142.074 41.2661 141.894 41.2661 141.774C41.2661 141.653 41.2661 141.533 41.2661 141.473C41.206 141.353 41.206 141.292 41.1458 141.232C41.0857 141.172 41.0255 141.112 40.9052 141.052C40.7849 140.992 40.6646 140.932 40.5443 140.932C40.424 140.932 40.3037 140.932 40.1834 140.992C40.0631 141.052 39.9428 141.112 39.8225 141.232C39.7022 141.353 39.5819 141.473 39.5217 141.653L38.6796 143.217L38.0781 142.916L39.7022 139.729Z" fill="#FFFDFD"/>
<path d="M44.995 146.223L44.3935 145.922L44.5739 145.441C44.3935 145.561 44.1529 145.621 43.9123 145.621C43.6717 145.621 43.4311 145.561 43.2506 145.501C43.01 145.38 42.8295 145.26 42.6491 145.08C42.4686 144.899 42.3483 144.719 42.2882 144.478C42.228 144.238 42.1679 144.057 42.228 143.817C42.228 143.576 42.2882 143.335 42.4085 143.095C42.5288 142.854 42.6491 142.674 42.8295 142.493C43.01 142.313 43.1905 142.192 43.3709 142.132C43.5514 142.072 43.792 142.012 44.0326 142.012C44.2732 142.012 44.5138 142.072 44.7544 142.192C44.995 142.313 45.1754 142.433 45.3559 142.614C45.5363 142.794 45.5965 142.974 45.6566 143.215L46.7393 140.869L47.3409 141.17L44.995 146.223ZM43.6115 145.02C43.792 145.08 43.9123 145.14 44.0927 145.14C44.2732 145.14 44.3935 145.14 44.5138 145.08C44.6341 145.02 44.7544 144.959 44.8747 144.839C44.995 144.719 45.0551 144.598 45.1754 144.418C45.2957 144.238 45.2957 144.117 45.2957 143.937C45.2957 143.756 45.2957 143.636 45.2356 143.516C45.1754 143.395 45.1153 143.275 44.995 143.155C44.8747 143.035 44.7544 142.974 44.5739 142.854C44.3935 142.734 44.2732 142.734 44.0927 142.734C43.9123 142.734 43.792 142.734 43.6717 142.794C43.5514 142.854 43.4311 142.914 43.3108 143.035C43.1905 143.155 43.1303 143.275 43.01 143.456C42.8897 143.636 42.8897 143.756 42.8897 143.937C42.8897 144.117 42.8897 144.238 42.9498 144.358C43.01 144.478 43.0701 144.598 43.1905 144.719C43.3108 144.839 43.4311 144.959 43.6115 145.02Z" fill="#FFFDFD"/>
<path d="M47.4038 143.397L48.0053 143.638L46.7421 146.886L46.1406 146.645L47.4038 143.397ZM47.7045 142.194C47.7647 142.074 47.8248 141.953 47.9451 141.953C48.0654 141.893 48.1858 141.893 48.3061 141.953C48.4264 142.013 48.5467 142.074 48.5467 142.194C48.5467 142.314 48.6068 142.435 48.5467 142.555C48.4865 142.675 48.4264 142.795 48.3061 142.795C48.1858 142.795 48.0654 142.856 47.9451 142.795C47.8248 142.735 47.7045 142.675 47.7045 142.555C47.6444 142.435 47.6444 142.314 47.7045 142.194Z" fill="#FFFDFD"/>
<path d="M48.8476 144.417C49.0882 144.296 49.3288 144.236 49.5694 144.236C49.81 144.236 50.0506 144.236 50.2912 144.357C50.5318 144.417 50.7122 144.537 50.8927 144.657C51.0732 144.778 51.1935 144.898 51.2536 145.018C51.3138 145.139 51.3739 145.319 51.3739 145.439C51.3739 145.56 51.3739 145.74 51.3138 145.86L50.7724 147.545C50.7122 147.665 50.7122 147.785 50.6521 147.845C50.6521 147.966 50.5919 148.026 50.5919 148.146L50.0506 147.966C50.1107 147.785 50.1107 147.605 50.1709 147.484C49.9904 147.665 49.7498 147.725 49.5092 147.785C49.2686 147.785 49.028 147.785 48.7874 147.725C48.607 147.665 48.4867 147.605 48.3664 147.545C48.2461 147.484 48.1258 147.364 48.0656 147.244C48.0055 147.124 47.9453 147.003 47.9453 146.823C47.9453 146.703 47.9453 146.522 48.0055 146.342C48.0656 146.101 48.1859 145.981 48.3062 145.86C48.4265 145.74 48.607 145.68 48.7874 145.62C48.9679 145.56 49.2085 145.56 49.4491 145.62C49.6897 145.68 49.9303 145.68 50.1709 145.8L50.6521 145.921L50.7122 145.8C50.7122 145.74 50.7724 145.62 50.7724 145.56C50.7724 145.439 50.7122 145.379 50.7122 145.259C50.6521 145.199 50.5919 145.078 50.5318 145.018C50.4716 144.958 50.3513 144.898 50.231 144.838C50.1107 144.778 49.9904 144.778 49.9303 144.778C49.81 144.778 49.7498 144.778 49.6295 144.778C49.5092 144.778 49.4491 144.778 49.3889 144.838C49.3288 144.838 49.2686 144.898 49.1483 144.898L48.8476 144.417ZM50.1709 146.281C50.0506 146.221 49.8701 146.221 49.6897 146.161C49.5092 146.101 49.3889 146.101 49.2085 146.101C49.0882 146.101 48.9679 146.161 48.8476 146.221C48.7273 146.281 48.6671 146.402 48.607 146.522C48.5468 146.703 48.5468 146.883 48.6671 147.003C48.7874 147.124 48.9077 147.244 49.1483 147.304C49.3288 147.364 49.4491 147.364 49.6295 147.364C49.7498 147.364 49.8701 147.304 49.9904 147.244C50.1107 147.184 50.1709 147.063 50.231 147.003C50.2912 146.943 50.3513 146.763 50.4115 146.703L50.4716 146.522L50.1709 146.281Z" fill="#FFFDFD"/>
<path d="M54.3242 146.462C54.3844 146.282 54.4445 146.101 54.5047 145.981C54.625 145.861 54.7453 145.741 54.8656 145.62C54.9859 145.5 55.1663 145.44 55.3468 145.44C55.5272 145.44 55.7077 145.38 55.8881 145.44C56.0686 145.5 56.249 145.56 56.3693 145.62C56.4896 145.741 56.6099 145.861 56.7302 145.981C56.8505 146.101 56.9107 146.282 56.9107 146.462C56.9708 146.643 56.9708 146.823 56.9107 147.004C56.8505 147.184 56.7904 147.365 56.7302 147.485C56.6099 147.605 56.4896 147.726 56.3693 147.846C56.249 147.966 56.0686 148.026 55.8881 148.026C55.7077 148.026 55.5272 148.086 55.3468 148.026C55.1663 147.966 54.9859 147.906 54.8656 147.846C54.7453 147.786 54.625 147.605 54.5047 147.485C54.3844 147.365 54.3242 147.184 54.3242 147.004C54.3242 146.823 54.3242 146.643 54.3242 146.462Z" fill="#FFFDFD"/>
<path d="M60.339 144.841L62.1435 145.021C62.3842 145.021 62.5646 145.081 62.7451 145.142C62.9255 145.202 63.106 145.322 63.2263 145.442C63.3466 145.563 63.4669 145.683 63.527 145.863C63.5872 146.044 63.6473 146.224 63.5872 146.465C63.5872 146.766 63.4669 147.006 63.2864 147.187C63.106 147.367 62.8654 147.487 62.6248 147.548C62.8052 147.548 62.9255 147.608 63.0458 147.728C63.1661 147.788 63.2864 147.909 63.4067 148.029C63.527 148.149 63.5872 148.269 63.5872 148.45C63.5872 148.63 63.6473 148.751 63.6473 148.931C63.6473 149.172 63.5872 149.352 63.4669 149.533C63.3466 149.713 63.2263 149.833 63.0458 149.954C62.8654 150.074 62.6849 150.134 62.4443 150.194C62.2037 150.254 61.9631 150.254 61.7225 150.254L59.918 150.074L60.339 144.841ZM60.6398 149.472L61.6623 149.593C61.7826 149.593 61.9029 149.593 62.0232 149.593C62.1435 149.593 62.2638 149.533 62.3841 149.472C62.5044 149.412 62.6248 149.352 62.6849 149.232C62.7451 149.112 62.8052 148.991 62.8654 148.811C62.8654 148.51 62.8052 148.269 62.6248 148.089C62.4443 147.909 62.1435 147.848 61.8428 147.788L60.8202 147.728L60.6398 149.472ZM60.8202 147.066L61.7826 147.127C61.9029 147.127 62.0232 147.127 62.1435 147.127C62.2638 147.127 62.3842 147.066 62.4443 147.006C62.5646 146.946 62.6248 146.886 62.6849 146.766C62.7451 146.645 62.8052 146.525 62.8052 146.405C62.8052 146.224 62.7451 146.044 62.6248 145.863C62.5045 145.683 62.324 145.623 62.0232 145.563L60.9405 145.442L60.8202 147.066Z" fill="#FFFDFD"/>
<path d="M64.5422 146.884H65.2038V147.426C65.264 147.305 65.3241 147.245 65.3843 147.185C65.4444 147.125 65.5647 147.065 65.6249 147.005C65.7452 146.945 65.8053 146.884 65.9256 146.884C66.0459 146.884 66.1662 146.824 66.2264 146.824C66.3467 146.824 66.4068 146.824 66.5272 146.884L66.467 147.606C66.4069 147.606 66.3467 147.606 66.2865 147.546C66.2264 147.546 66.1662 147.546 66.1061 147.546C65.8053 147.546 65.5046 147.606 65.3843 147.787C65.264 147.967 65.1437 148.268 65.0835 148.629V150.373H64.4219L64.5422 146.884Z" fill="#FFFDFD"/>
<path d="M67.0156 148.69C67.0156 148.45 67.0156 148.209 67.1359 147.969C67.1961 147.728 67.3164 147.548 67.4968 147.367C67.6773 147.187 67.8577 147.066 68.0382 146.946C68.2186 146.826 68.5194 146.766 68.76 146.766C69.0006 146.766 69.2412 146.766 69.4818 146.886C69.7224 146.946 69.9029 147.066 70.0833 147.247C70.2638 147.427 70.3841 147.608 70.5044 147.788C70.6247 147.969 70.6848 148.269 70.6848 148.51C70.6848 148.751 70.6848 148.991 70.5645 149.232C70.5044 149.472 70.3841 149.653 70.2036 149.833C70.0232 150.014 69.8427 150.134 69.6623 150.254C69.4818 150.375 69.181 150.435 68.9404 150.435C68.6998 150.435 68.4592 150.435 68.2186 150.315C67.978 150.254 67.7976 150.134 67.6171 149.954C67.4367 149.773 67.3164 149.593 67.1961 149.412C67.0758 149.172 67.0156 148.931 67.0156 148.69ZM67.7374 148.63C67.7374 148.811 67.7976 148.991 67.8577 149.112C67.9179 149.232 67.978 149.352 68.0983 149.472C68.2186 149.593 68.3389 149.653 68.4592 149.713C68.5795 149.773 68.76 149.773 68.9404 149.773C69.1209 149.773 69.3014 149.713 69.4217 149.653C69.542 149.593 69.6623 149.472 69.7826 149.412C69.9029 149.292 69.963 149.172 69.963 148.991C70.0232 148.811 70.0232 148.69 70.0232 148.51C70.0232 148.33 69.963 148.149 69.9029 148.029C69.8427 147.908 69.7826 147.788 69.6623 147.668C69.542 147.548 69.4217 147.487 69.3014 147.427C69.181 147.367 69.0006 147.367 68.8201 147.367C68.6397 147.367 68.4592 147.427 68.3389 147.487C68.2186 147.548 68.0983 147.668 67.978 147.728C67.8577 147.788 67.7976 147.969 67.7976 148.149C67.7374 148.33 67.7374 148.45 67.7374 148.63Z" fill="#FFFDFD"/>
<path d="M71.4023 146.704L72.064 146.643L72.1242 147.185C72.1843 147.004 72.3046 146.824 72.4851 146.704C72.6655 146.583 72.9061 146.463 73.1467 146.463C73.3272 146.463 73.4475 146.463 73.6279 146.463C73.8084 146.523 73.9287 146.583 74.049 146.643C74.1693 146.764 74.2896 146.884 74.3497 147.004C74.4099 147.125 74.47 147.365 74.5302 147.606L74.8309 149.831L74.1693 149.891L73.9287 147.846C73.9287 147.666 73.8685 147.546 73.8084 147.425C73.7482 147.305 73.6881 147.245 73.6279 147.185C73.5678 147.125 73.4475 147.064 73.3272 147.064C73.2069 147.064 73.1467 147.064 73.0264 147.064C72.9061 147.064 72.7858 147.125 72.6655 147.185C72.5452 147.245 72.4851 147.305 72.3648 147.425C72.2445 147.546 72.2445 147.666 72.1843 147.786C72.1242 147.967 72.1242 148.087 72.1843 148.328L72.4249 150.132L71.7633 150.192L71.4023 146.704Z" fill="#FFFDFD"/>
<path d="M75.6687 148.988L77.1725 146.341L75.3078 146.702L75.1875 146.16L77.8341 145.619L77.9544 146.221L76.4507 148.867L78.4958 148.446L78.6161 148.988L75.789 149.529L75.6687 148.988Z" fill="#FFFDFD"/>
<path d="M79.6468 147.245C79.7069 147.366 79.7671 147.546 79.8272 147.606C79.9475 147.727 80.0077 147.787 80.1882 147.847C80.3085 147.907 80.4288 147.967 80.6092 147.967C80.7295 147.967 80.91 147.967 81.0303 147.907C81.2107 147.847 81.3912 147.787 81.5115 147.606C81.6318 147.486 81.7521 147.306 81.8122 147.125L82.4137 147.366C82.1731 147.907 81.7521 148.268 81.0904 148.448C80.8498 148.509 80.5491 148.569 80.3085 148.509C80.0679 148.448 79.8273 148.388 79.6468 148.268C79.4663 148.148 79.2859 147.967 79.1656 147.787C79.0453 147.606 78.925 147.366 78.8648 147.125C78.8047 146.884 78.8047 146.644 78.8047 146.403C78.8047 146.163 78.925 145.922 78.9851 145.742C79.0453 145.561 79.2257 145.381 79.4062 145.2C79.5866 145.08 79.8272 144.96 80.0679 144.9C80.3686 144.839 80.6092 144.779 80.8498 144.839C81.0904 144.9 81.2709 144.96 81.4513 145.08C81.6318 145.2 81.7521 145.381 81.8724 145.561C81.9927 145.742 82.0528 145.982 82.113 146.163L82.1731 146.403L79.6468 147.245ZM81.5115 146.163C81.4513 146.042 81.3912 145.922 81.331 145.802C81.2709 145.681 81.1506 145.621 81.0904 145.561C80.9701 145.501 80.8498 145.441 80.7295 145.441C80.6092 145.441 80.4288 145.441 80.3085 145.501C80.128 145.561 80.0077 145.621 79.8874 145.681C79.7671 145.742 79.7069 145.862 79.6468 145.982C79.5866 146.103 79.5265 146.223 79.5265 146.343C79.5265 146.463 79.5265 146.584 79.5265 146.704L81.5115 146.163Z" fill="#FFFDFD"/>
<path d="M83.2578 142.315L84.0398 142.014L87.0473 145.382L86.927 140.871L87.6488 140.57L87.709 146.164L87.1075 146.405L83.2578 142.315Z" fill="#FFFDFD"/>
<path d="M88.4297 142.494C88.55 142.253 88.6703 142.073 88.8507 141.832C89.0312 141.591 89.2116 141.471 89.4522 141.411C89.6929 141.291 89.8733 141.23 90.1139 141.23C90.2944 141.23 90.4748 141.23 90.6553 141.23C90.8357 141.291 90.956 141.351 91.0763 141.471C91.1966 141.591 91.2568 141.712 91.3169 141.832L92.0989 143.396C92.159 143.516 92.2192 143.576 92.2793 143.697C92.3395 143.817 92.3996 143.877 92.3996 143.937L91.8583 144.178C91.738 143.997 91.6778 143.877 91.6177 143.697C91.5575 143.937 91.4974 144.178 91.3771 144.358C91.2568 144.539 91.0763 144.659 90.8357 144.779C90.7154 144.84 90.535 144.9 90.4147 144.9C90.2342 144.9 90.1139 144.9 89.9936 144.9C89.8733 144.9 89.753 144.84 89.6327 144.719C89.5124 144.599 89.4522 144.539 89.3319 144.358C89.2116 144.178 89.2116 143.937 89.2116 143.757C89.2116 143.576 89.332 143.396 89.3921 143.215C89.4523 143.035 89.6327 142.915 89.8733 142.734C90.0538 142.614 90.2944 142.494 90.535 142.373L90.956 142.133L90.8959 142.012C90.8357 141.952 90.7756 141.892 90.7154 141.772C90.6553 141.712 90.535 141.652 90.4748 141.652C90.3545 141.591 90.2944 141.591 90.1741 141.591C90.0538 141.591 89.9335 141.652 89.8132 141.712C89.6929 141.772 89.6327 141.832 89.5124 141.892C89.4523 141.952 89.3921 142.012 89.3319 142.073C89.2718 142.133 89.2116 142.193 89.2116 142.253C89.2116 142.313 89.1515 142.373 89.0913 142.433L88.4297 142.494ZM90.7154 142.915C90.5951 142.975 90.4147 143.035 90.2944 143.155C90.1741 143.215 90.0538 143.336 89.9335 143.456C89.8132 143.576 89.753 143.697 89.753 143.817C89.753 143.937 89.753 144.058 89.8132 144.178C89.8733 144.358 90.0538 144.479 90.1741 144.479C90.3545 144.479 90.535 144.479 90.7154 144.358C90.8959 144.298 91.0162 144.178 91.0763 144.058C91.1365 143.937 91.1966 143.817 91.2568 143.697C91.2568 143.576 91.2568 143.456 91.2568 143.336C91.2568 143.215 91.1966 143.095 91.1365 142.975L91.0162 142.794L90.7154 142.915Z" fill="#FFFDFD"/>
<path d="M90.5898 138.584L91.1914 138.283L93.8981 143.155L93.2966 143.456L90.5898 138.584Z" fill="#FFFDFD"/>
<path d="M92.3375 138.524C92.2773 138.403 92.2773 138.283 92.2773 138.163C92.3375 138.042 92.3977 137.922 92.518 137.862C92.6383 137.802 92.7585 137.802 92.8789 137.802C92.9992 137.862 93.1195 137.922 93.1796 138.042C93.2398 138.163 93.2398 138.283 93.2398 138.403C93.1796 138.524 93.1195 138.644 92.9992 138.704C92.8789 138.764 92.7586 138.764 92.6383 138.764C92.518 138.704 92.4578 138.644 92.3375 138.524ZM93.1195 139.486L93.6608 139.125L95.4653 142.133L94.924 142.494L93.1195 139.486Z" fill="#FFFDFD"/>
<path d="M99.4363 139.545L98.895 139.906L98.5942 139.485C98.5942 139.726 98.5341 139.906 98.4138 140.147C98.2935 140.387 98.113 140.508 97.9326 140.688C97.6919 140.868 97.5115 140.929 97.2709 140.989C97.0303 141.049 96.7897 141.049 96.6092 140.989C96.3686 140.929 96.1882 140.868 96.0077 140.688C95.8273 140.568 95.6468 140.387 95.4664 140.147C95.2859 139.906 95.2258 139.726 95.1656 139.485C95.1055 139.244 95.1055 139.004 95.1055 138.823C95.1656 138.583 95.2258 138.402 95.3461 138.162C95.4664 137.981 95.6468 137.801 95.8874 137.62C96.0679 137.5 96.3085 137.38 96.5491 137.38C96.7897 137.32 97.0303 137.38 97.2107 137.44L95.7671 135.335L96.3085 134.974L99.4363 139.545ZM97.6318 140.147C97.7521 140.026 97.8724 139.906 97.9927 139.786C98.0528 139.665 98.113 139.545 98.1732 139.365C98.1732 139.244 98.1732 139.064 98.1732 138.944C98.113 138.763 98.0529 138.643 97.9326 138.523C97.8123 138.402 97.6919 138.282 97.5716 138.162C97.4513 138.041 97.331 137.981 97.1506 137.981C97.0303 137.921 96.8498 137.921 96.7295 137.981C96.5491 138.041 96.4288 138.101 96.3085 138.162C96.1882 138.282 96.0679 138.402 95.9476 138.523C95.8874 138.643 95.8273 138.763 95.7671 138.944C95.7671 139.064 95.7671 139.244 95.7671 139.365C95.8273 139.545 95.8874 139.665 96.0077 139.786C96.128 139.906 96.2483 140.026 96.3686 140.147C96.4889 140.267 96.6092 140.327 96.7897 140.327C96.91 140.387 97.0904 140.387 97.2107 140.327C97.331 140.327 97.5115 140.207 97.6318 140.147Z" fill="#FFFDFD"/>
<path d="M98.4688 136.416C98.5289 136.176 98.5891 135.935 98.7094 135.694C98.8297 135.454 99.0101 135.273 99.1906 135.153C99.371 134.973 99.5515 134.852 99.7319 134.792C99.9124 134.732 100.093 134.672 100.273 134.732C100.454 134.732 100.574 134.792 100.694 134.852C100.815 134.912 100.935 135.033 101.055 135.153L102.198 136.536C102.258 136.657 102.318 136.717 102.439 136.777C102.559 136.837 102.559 136.897 102.619 137.018L102.138 137.379C102.018 137.258 101.897 137.138 101.777 136.958C101.777 137.198 101.777 137.439 101.657 137.679C101.536 137.86 101.416 138.04 101.176 138.221C101.055 138.341 100.935 138.401 100.754 138.461C100.634 138.521 100.454 138.521 100.333 138.521C100.213 138.521 100.033 138.521 99.9124 138.461C99.7921 138.401 99.6718 138.281 99.5515 138.161C99.4312 137.98 99.3109 137.8 99.3109 137.619C99.3109 137.439 99.3109 137.258 99.371 137.078C99.4312 136.897 99.5515 136.717 99.7319 136.536C99.9124 136.356 100.093 136.176 100.273 135.995L100.634 135.694L100.514 135.574C100.454 135.514 100.394 135.454 100.333 135.394C100.273 135.333 100.153 135.333 100.093 135.333C100.033 135.333 99.9124 135.333 99.7921 135.394C99.6718 135.454 99.5515 135.514 99.4913 135.574C99.371 135.634 99.3109 135.755 99.2507 135.815C99.1906 135.875 99.1304 135.995 99.1304 136.055C99.0703 136.115 99.0703 136.236 99.0703 136.296C99.0703 136.356 99.0101 136.476 99.0101 136.536L98.4688 136.416ZM100.754 136.296C100.634 136.416 100.514 136.476 100.394 136.597C100.273 136.717 100.153 136.837 100.093 136.958C100.033 137.078 99.9725 137.198 99.9725 137.318C99.9725 137.439 99.9725 137.559 100.093 137.679C100.213 137.86 100.333 137.92 100.514 137.86C100.694 137.8 100.815 137.739 100.995 137.619C101.115 137.499 101.236 137.379 101.296 137.258C101.356 137.138 101.356 137.018 101.356 136.897C101.356 136.777 101.356 136.657 101.296 136.536C101.236 136.416 101.176 136.296 101.115 136.236L100.995 136.055L100.754 136.296Z" fill="#FFFDFD"/>
<path d="M102.861 132.868L102.139 133.53L103.222 134.673C103.282 134.733 103.342 134.793 103.402 134.853C103.462 134.913 103.522 134.974 103.643 135.034C103.703 135.094 103.823 135.094 103.883 135.094C103.943 135.094 104.064 135.034 104.124 134.974C104.184 134.913 104.244 134.853 104.304 134.793C104.365 134.733 104.365 134.673 104.425 134.553L104.846 134.974C104.846 135.034 104.786 135.154 104.665 135.274C104.605 135.395 104.545 135.455 104.485 135.515C104.304 135.695 104.124 135.816 104.004 135.816C103.823 135.876 103.703 135.876 103.583 135.816C103.462 135.756 103.342 135.695 103.222 135.635C103.101 135.575 103.041 135.455 102.921 135.334L101.718 134.011L101.177 134.553L100.816 134.131L101.357 133.59L100.695 132.868L101.177 132.447L101.838 133.169L102.56 132.507L102.861 132.868Z" fill="#FFFDFD"/>
<path d="M104.19 133.229C104.009 133.049 103.889 132.868 103.769 132.627C103.648 132.387 103.648 132.206 103.648 131.966C103.648 131.725 103.709 131.485 103.769 131.244C103.829 131.003 104.009 130.823 104.19 130.643C104.37 130.462 104.551 130.342 104.791 130.221C105.032 130.101 105.273 130.101 105.453 130.041C105.694 130.041 105.934 130.101 106.115 130.161C106.355 130.221 106.536 130.402 106.716 130.522C106.897 130.703 107.017 130.883 107.137 131.124C107.257 131.364 107.257 131.605 107.257 131.785C107.257 132.026 107.197 132.267 107.137 132.507C107.077 132.748 106.897 132.928 106.716 133.109C106.536 133.289 106.355 133.409 106.115 133.53C105.874 133.65 105.633 133.65 105.453 133.71C105.273 133.77 104.972 133.65 104.791 133.59C104.551 133.53 104.37 133.409 104.19 133.229ZM104.671 132.748C104.791 132.868 104.912 132.988 105.092 133.049C105.212 133.109 105.393 133.169 105.513 133.169C105.633 133.169 105.814 133.169 105.934 133.109C106.054 133.049 106.235 132.928 106.355 132.808C106.476 132.688 106.536 132.567 106.596 132.387C106.656 132.267 106.656 132.086 106.656 131.966C106.656 131.846 106.596 131.665 106.536 131.545C106.476 131.424 106.355 131.244 106.235 131.124C106.115 131.003 105.994 130.883 105.814 130.823C105.694 130.763 105.513 130.703 105.393 130.703C105.273 130.703 105.092 130.703 104.972 130.763C104.851 130.823 104.671 130.943 104.551 131.064C104.43 131.184 104.37 131.304 104.31 131.485C104.25 131.605 104.25 131.785 104.25 131.906C104.25 132.026 104.31 132.206 104.37 132.327C104.43 132.447 104.551 132.567 104.671 132.748Z" fill="#FFFDFD"/>
<path d="M105.992 128.72L106.413 128.238L106.834 128.599C106.774 128.479 106.774 128.419 106.774 128.299C106.774 128.178 106.774 128.118 106.774 127.998C106.774 127.877 106.834 127.817 106.894 127.697C106.955 127.577 107.015 127.517 107.075 127.396C107.135 127.276 107.195 127.276 107.316 127.216L107.857 127.697C107.797 127.757 107.797 127.757 107.737 127.817C107.676 127.877 107.676 127.877 107.616 127.938C107.436 128.178 107.316 128.419 107.376 128.659C107.436 128.9 107.556 129.141 107.857 129.381L109.18 130.524L108.759 131.005L105.992 128.72Z" fill="#FFFDFD"/>
<defs>
<filter id="filter0_ii" x="0" y="28.8721" width="131.129" height="131.129" filterUnits="userSpaceOnUse" color-interpolation-filters="sRGB">
<feFlood flood-opacity="0" result="BackgroundImageFix"/>
<feBlend mode="normal" in="SourceGraphic" in2="BackgroundImageFix" result="shape"/>
<feColorMatrix in="SourceAlpha" type="matrix" values="0 0 0 0 0 0 0 0 0 0 0 0 0 0 0 0 0 0 127 0" result="hardAlpha"/>
<feOffset/>
<feGaussianBlur stdDeviation="4"/>
<feComposite in2="hardAlpha" operator="arithmetic" k2="-1" k3="1"/>
<feColorMatrix type="matrix" values="0 0 0 0 0.9875 0 0 0 0 0.722843 0 0 0 0 0.386771 0 0 0 1 0"/>
<feBlend mode="normal" in2="shape" result="effect1_innerShadow"/>
<feColorMatrix in="SourceAlpha" type="matrix" values="0 0 0 0 0 0 0 0 0 0 0 0 0 0 0 0 0 0 127 0" result="hardAlpha"/>
<feOffset/>
<feGaussianBlur stdDeviation="6"/>
<feComposite in2="hardAlpha" operator="arithmetic" k2="-1" k3="1"/>
<feColorMatrix type="matrix" values="0 0 0 0 0 0 0 0 0 0 0 0 0 0 0 0 0 0 0.2 0"/>
<feBlend mode="normal" in2="effect1_innerShadow" result="effect2_innerShadow"/>
</filter>
<filter id="filter1_i" x="35.4922" y="64.3623" width="60.1507" height="60.1507" filterUnits="userSpaceOnUse" color-interpolation-filters="sRGB">
<feFlood flood-opacity="0" result="BackgroundImageFix"/>
<feBlend mode="normal" in="SourceGraphic" in2="BackgroundImageFix" result="shape"/>
<feColorMatrix in="SourceAlpha" type="matrix" values="0 0 0 0 0 0 0 0 0 0 0 0 0 0 0 0 0 0 127 0" result="hardAlpha"/>
<feOffset/>
<feGaussianBlur stdDeviation="6"/>
<feComposite in2="hardAlpha" operator="arithmetic" k2="-1" k3="1"/>
<feColorMatrix type="matrix" values="0 0 0 0 0 0 0 0 0 0 0 0 0 0 0 0 0 0 0.4 0"/>
<feBlend mode="normal" in2="shape" result="effect1_innerShadow"/>
</filter>
<linearGradient id="paint0_linear" x1="31.143" y1="33.3796" x2="131.129" y2="146.888" gradientUnits="userSpaceOnUse">
<stop stop-color="white"/>
<stop offset="1" stop-color="#705F5F" stop-opacity="0"/>
</linearGradient>
<linearGradient id="paint1_linear" x1="104.981" y1="127.28" x2="23.3441" y2="63.4725" gradientUnits="userSpaceOnUse">
<stop stop-color="#FFE4C1"/>
<stop offset="1" stop-color="#383838" stop-opacity="0"/>
</linearGradient>
<linearGradient id="paint2_linear" x1="117.098" y1="137.384" x2="10.3424" y2="53.9433" gradientUnits="userSpaceOnUse">
<stop stop-color="#FFE4C1"/>
<stop offset="1" stop-color="#383838" stop-opacity="0"/>
</linearGradient>
</defs>
</svg>
