<svg width="159" height="188" viewBox="0 0 159 188" fill="none" xmlns="http://www.w3.org/2000/svg">
<g filter="url(#filter0_d)">
<path d="M65.0248 26.6855C64.3166 26.6855 63.75 27.2315 63.75 27.914V39.3797C63.75 40.0622 64.3166 40.6081 65.0248 40.6081H94.2023C94.9105 40.6081 95.4771 40.0622 95.4771 39.3797V27.914C95.4771 27.2315 94.9105 26.6855 94.2023 26.6855H65.0248ZM92.9276 35.6943C92.9276 36.3768 92.361 36.9228 91.6528 36.9228H67.7159C67.0077 36.9228 66.4411 36.3768 66.4411 35.6943V30.5074C66.4411 29.825 67.0077 29.279 67.7159 29.279H91.6528C92.361 29.279 92.9276 29.825 92.9276 30.5074V35.6943Z" fill="#D9B68B"/>
<path d="M99.7667 8L83.6094 31.7527H91.6166L109.633 8H99.7667Z" fill="#0FA711"/>
<path d="M91.6237 8L75.6094 31.7527H83.6165L99.7739 8H91.6237Z" fill="white"/>
<path d="M83.612 8L67.5977 31.7527H75.6048L91.6192 8H83.612Z" fill="#FF7600"/>
<path d="M67.5982 31.7527H75.6053L59.448 8H49.582L67.5982 31.7527Z" fill="#FF7600"/>
<path d="M75.5987 31.7527H83.6059L67.5916 8H59.4414L75.5987 31.7527Z" fill="white"/>
<path opacity="0.5" d="M80.8942 11.9395L76.8906 17.8425L86.3277 31.7568H91.6181L93.048 29.7891L80.8942 11.9395Z" fill="#3E4347"/>
<path d="M83.612 31.7527H91.6192L75.6048 8H67.5977L83.612 31.7527Z" fill="#0FA711"/>
<g filter="url(#filter1_ii)">
<path d="M146.312 104.729C146.312 141.818 116.245 171.885 79.1559 171.885C42.0667 171.885 12 141.818 12 104.729C12 67.64 42.0667 37.5732 79.1559 37.5732C116.245 37.5732 146.312 67.64 146.312 104.729Z" fill="#C18A43" fill-opacity="0.7"/>
</g>
<path d="M142.812 104.729C142.812 139.885 114.312 168.385 79.1559 168.385C43.9997 168.385 15.5 139.885 15.5 104.729C15.5 69.573 43.9997 41.0732 79.1559 41.0732C114.312 41.0732 142.812 69.573 142.812 104.729Z" stroke="#E29435" stroke-width="7"/>
<path d="M142.812 104.729C142.812 139.885 114.312 168.385 79.1559 168.385C43.9997 168.385 15.5 139.885 15.5 104.729C15.5 69.573 43.9997 41.0732 79.1559 41.0732C114.312 41.0732 142.812 69.573 142.812 104.729Z" stroke="url(#paint0_linear)" stroke-width="7"/>
<path d="M132.758 104.731C132.758 134.335 108.759 158.333 79.1562 158.333C49.5529 158.333 25.5547 134.335 25.5547 104.731C25.5547 75.1281 49.5529 51.1299 79.1562 51.1299C108.759 51.1299 132.758 75.1281 132.758 104.731Z" fill="#764B16"/>
<path fill-rule="evenodd" clip-rule="evenodd" d="M79.1556 60.371C54.6564 60.371 34.7958 80.2316 34.7958 104.731C34.7958 129.23 54.6564 149.091 79.1556 149.091C103.655 149.091 123.515 129.23 123.515 104.731C123.515 80.2316 103.655 60.371 79.1556 60.371ZM16.3125 104.731C16.3125 70.0235 44.4483 41.8877 79.1556 41.8877C113.863 41.8877 141.999 70.0235 141.999 104.731C141.999 139.438 113.863 167.574 79.1556 167.574C44.4483 167.574 16.3125 139.438 16.3125 104.731Z" fill="#805726"/>
<path d="M79.1558 57.2891C53.0073 57.2891 31.7148 78.457 31.7148 104.73C31.7148 131.003 52.8827 152.171 79.1558 152.171C105.429 152.171 126.597 131.003 126.597 104.73C126.597 78.457 105.304 57.2891 79.1558 57.2891ZM69.6925 61.8962C69.8171 61.8962 69.8171 61.8962 69.6925 61.8962C70.5642 63.764 72.1829 64.8846 73.8016 64.5111C75.4203 64.262 77.0391 63.1414 77.1636 60.9001C77.4126 60.9001 77.6616 60.9001 77.9107 60.9001C77.9107 67.624 77.4126 74.846 76.6655 82.6905C76.541 83.4376 76.541 84.1847 76.541 84.9319C76.292 84.3093 76.0429 83.5622 75.7939 82.6905C73.179 76.0911 70.8132 68.9937 68.9454 62.0207C69.319 62.0207 69.4435 61.8962 69.6925 61.8962ZM58.8596 65.7562C60.2293 67.3749 61.9725 67.9975 63.4667 67.2504C65.2099 66.5033 66.2061 64.7601 65.8325 62.8923C66.0816 62.7678 66.3306 62.7678 66.5796 62.6433C68.1983 69.1182 69.8171 76.2157 71.0622 84.0602C71.1868 84.9319 71.3113 85.5544 71.5603 86.3015C71.1868 85.679 70.8132 85.0564 70.1906 84.3093C65.957 78.5815 61.848 72.3556 58.237 66.1298C58.3615 66.0053 58.6105 65.8807 58.8596 65.7562ZM49.2717 72.4801C51.015 73.6008 52.8827 73.7253 54.1279 72.7292C55.1241 71.9821 55.6221 70.8614 55.6221 69.7408C55.6221 69.1182 55.4976 68.4956 55.1241 67.9975C55.3731 67.873 55.4976 67.7485 55.7466 67.624C59.1086 73.3518 62.346 79.9512 65.708 87.0486C66.0816 87.7957 66.4551 88.4183 66.7041 89.0409C66.2061 88.5429 65.5835 88.0448 64.9609 87.5467C59.4822 82.9396 53.8789 77.9589 48.7737 72.9782C48.8982 72.7292 49.1472 72.6047 49.2717 72.4801ZM41.8007 81.3209C41.9252 81.3209 41.9252 81.3209 41.8007 81.3209C43.793 81.9434 45.6608 81.6944 46.5324 80.3247C46.7814 79.9512 47.404 78.955 47.404 77.9589C47.404 77.3363 47.155 76.3402 46.4079 75.4686C46.5324 75.344 46.7814 75.095 46.9059 74.9705C51.6376 79.7021 56.4937 85.1809 61.5989 91.1577C62.097 91.7803 62.5951 92.2784 63.0931 92.7764C62.4706 92.4029 61.7235 92.1538 60.9764 91.7803C54.5015 88.7919 47.7775 85.4299 41.4272 81.9434C41.5517 81.6944 41.6762 81.5699 41.8007 81.3209ZM36.9446 91.7803C36.9446 91.7803 36.9446 91.6558 36.9446 91.7803C39.0614 91.9048 40.6801 91.1577 41.3027 89.539C41.4272 89.1654 41.5517 88.6674 41.5517 87.9203C41.5517 87.1732 41.3027 85.8035 39.8085 84.8073C39.933 84.5583 40.0575 84.4338 40.182 84.1847C45.9098 87.5467 52.1356 91.5313 58.486 96.0139C59.1086 96.5119 59.8557 96.8855 60.3538 97.259C59.7312 97.1345 58.8596 97.01 57.9879 96.761C51.015 95.7648 43.6685 94.2706 36.571 92.4029C36.82 92.2784 36.9446 92.0293 36.9446 91.7803ZM34.9523 103.111C34.9523 103.111 34.9523 102.987 34.9523 103.111C36.9446 102.738 38.4388 101.493 38.5633 99.8739C38.5633 99.7494 38.5633 99.6249 38.5633 99.3758C38.5633 97.8816 37.8162 96.2629 35.9484 95.6403C35.9484 95.3913 36.0729 95.1423 36.0729 94.8932C42.5478 96.6365 49.5208 99.0023 56.8673 101.617C57.6144 101.866 58.3615 102.115 58.9841 102.24C58.237 102.24 57.4899 102.364 56.6183 102.364C49.6453 103.236 42.0498 103.609 34.8278 103.734C34.9523 103.609 34.9523 103.36 34.9523 103.111ZM35.9484 114.691C35.9484 114.567 35.9484 114.567 35.9484 114.691C37.5671 113.82 38.5633 112.575 38.5633 111.08C38.5633 110.956 38.5633 110.707 38.5633 110.582C38.3142 108.964 37.1936 107.345 34.9523 107.22C34.9523 106.971 34.9523 106.722 34.9523 106.473C41.6762 106.473 48.8982 106.847 56.7428 107.469C57.6144 107.594 58.3615 107.594 58.9841 107.594C58.3615 107.843 57.6144 108.092 56.7428 108.341C50.1434 110.956 43.0459 113.322 36.0729 115.314C36.0729 115.189 36.0729 114.94 35.9484 114.691ZM39.933 125.524C39.933 125.524 39.933 125.4 39.933 125.524C41.0536 124.528 41.6762 123.408 41.6762 122.162C41.6762 121.664 41.5517 121.291 41.4272 120.917C40.8046 119.423 39.3104 118.178 37.0691 118.676C36.9446 118.427 36.9446 118.178 36.82 117.929C43.2949 116.186 50.3924 114.691 58.1125 113.322C58.9841 113.197 59.6067 112.948 60.3538 112.824C59.7312 113.197 59.1086 113.571 58.3615 114.193C52.6337 118.427 46.4079 122.536 40.182 126.272C40.182 125.898 40.0575 125.773 39.933 125.524ZM46.6569 134.988C47.2795 133.992 47.5285 133.12 47.5285 132.124C47.5285 131.377 47.2795 130.63 46.7814 130.132C45.7853 128.886 43.9175 128.015 41.9252 129.011C41.8007 128.762 41.6762 128.637 41.5517 128.388C47.2795 125.026 53.8789 121.664 60.9764 118.302C61.7235 117.929 62.346 117.555 62.9686 117.306C62.4706 117.804 61.9725 118.427 61.4744 119.05C57.1163 124.653 52.1356 130.256 47.155 135.486C47.0304 135.361 46.7814 135.237 46.6569 134.988ZM55.4976 142.334C55.6221 141.587 55.7466 140.965 55.7466 140.342C55.7466 139.097 55.2486 138.101 54.377 137.603C53.1318 136.731 51.1395 136.233 49.5208 137.852C49.2717 137.727 49.1472 137.478 49.0227 137.354C53.7544 132.622 59.1086 127.641 65.0854 122.661C65.708 122.162 66.2061 121.664 66.7041 121.166C66.3306 121.789 66.0816 122.536 65.708 123.283C62.9686 129.758 59.7312 136.482 56.1202 142.708C55.9957 142.583 55.7466 142.459 55.4976 142.334ZM65.957 147.19C66.0816 145.074 65.2099 143.455 63.7157 142.832C62.2215 142.334 60.2292 142.459 58.9841 144.326C58.735 144.202 58.6105 144.077 58.3615 143.953C61.7235 138.225 65.5835 131.999 70.0661 125.524C70.5642 124.777 70.9377 124.155 71.3113 123.657C71.1868 124.279 71.0622 125.151 70.8132 126.022C69.8171 132.995 68.3229 140.342 66.5796 147.439C66.4551 147.315 66.2061 147.315 65.957 147.19ZM77.2881 149.058C76.9145 147.066 75.6694 145.572 74.0506 145.447C72.4319 145.323 70.5642 145.945 69.9416 148.062C69.6926 148.062 69.4435 147.937 69.1945 147.937C70.9377 141.463 73.179 134.49 75.7939 127.143C76.0429 126.396 76.292 125.649 76.4165 125.026C76.4165 125.773 76.541 126.521 76.541 127.392C77.4126 134.365 77.9107 141.961 78.0352 149.183C77.7862 149.183 77.5371 149.183 77.2881 149.058ZM122.239 95.7648C120.62 96.6365 119.499 97.8816 119.499 99.3758C119.499 99.5004 119.499 99.7494 119.499 99.8739C119.748 101.493 120.869 103.111 123.11 103.236C123.11 103.485 123.11 103.734 123.11 103.983C116.511 103.983 109.164 103.485 101.32 102.738C100.448 102.613 99.7012 102.613 99.0786 102.613C99.7012 102.364 100.448 102.115 101.32 101.866C107.919 99.2513 115.017 96.8855 121.99 95.0177C122.114 95.2668 122.114 95.5158 122.239 95.7648ZM118.379 84.9319C118.379 84.9319 118.379 85.0564 118.379 84.9319C117.258 85.928 116.635 87.0486 116.635 88.2938C116.635 88.7919 116.76 89.1654 116.885 89.539C117.507 91.0332 119.001 92.2784 121.243 91.9048C121.367 92.1538 121.367 92.4029 121.492 92.6519C115.017 94.2706 107.795 95.7648 100.075 97.1345C99.2031 97.259 98.5805 97.3836 97.8334 97.6326C98.456 97.259 99.0786 96.8855 99.8257 96.3874C105.553 92.0293 111.779 87.9203 118.005 84.3093C118.13 84.5583 118.254 84.6828 118.379 84.9319ZM111.904 75.5931C111.281 76.5892 110.908 77.5853 110.908 78.457C110.908 79.2041 111.157 79.9512 111.655 80.4492C112.651 81.6944 114.394 82.566 116.386 81.5699C116.511 81.8189 116.635 81.9434 116.76 82.1925C110.908 85.4299 104.433 88.7919 97.2108 91.9048C96.4637 92.2784 95.8411 92.5274 95.2185 92.9009C95.7166 92.4029 96.2147 91.7803 96.8373 91.1577C101.32 85.679 106.301 80.0757 111.406 74.9705C111.53 75.2195 111.779 75.344 111.904 75.5931ZM102.939 67.873C102.939 67.873 103.063 67.9975 102.939 67.873C102.814 68.6201 102.565 69.2427 102.565 69.8653C102.565 70.9859 103.063 71.9821 103.935 72.6047C105.18 73.4763 107.172 73.9743 108.791 72.4801C108.915 72.6047 109.164 72.8537 109.289 72.9782C104.557 77.7099 99.0786 82.566 92.9772 87.5467C92.3547 88.0448 91.7321 88.5429 91.3585 89.0409C91.7321 88.4183 91.9811 87.7957 92.3547 86.9241C95.2186 80.4492 98.5805 73.7253 102.192 67.4995C102.565 67.624 102.69 67.7485 102.939 67.873ZM92.4792 63.0168C92.6037 63.0168 92.6037 63.0168 92.4792 63.0168C92.3547 65.1336 93.2263 66.7524 94.7205 67.3749C96.2147 67.9975 98.207 67.873 99.4521 65.8807C99.7012 66.0053 99.8257 66.1298 100.075 66.2543C96.7128 71.9821 92.7282 78.0834 88.1211 84.5583C87.623 85.1809 87.2495 85.8035 86.8759 86.4261C87.0004 85.8035 87.2495 84.9319 87.374 84.0602C88.4946 77.0873 89.9888 69.7408 91.7321 62.7678C92.1056 62.7678 92.2301 62.8923 92.4792 63.0168ZM81.2726 60.9001C81.2726 60.9001 81.3972 60.9001 81.2726 60.9001C81.6462 62.8923 82.8914 64.3865 84.5101 64.5111C86.1288 64.6356 87.9966 64.013 88.7437 61.8962C88.9927 61.8962 89.2417 62.0207 89.4908 62.0207C87.7475 68.4956 85.3817 75.4686 82.6423 82.6905C82.3933 83.4376 82.1443 84.1847 81.8952 84.8073C81.8952 84.0602 81.7707 83.3131 81.7707 82.4415C81.0236 75.4686 80.5255 67.873 80.5255 60.651C80.7746 60.9001 81.0236 60.9001 81.2726 60.9001ZM88.6191 148.062C87.623 146.194 86.1288 145.198 84.5101 145.447C82.8914 145.696 81.2726 146.817 81.1481 149.058C80.8991 149.058 80.6501 149.058 80.401 149.058C80.401 142.334 80.7746 135.112 81.5217 127.268C81.6462 126.521 81.6462 125.898 81.6462 125.275C81.6462 125.151 81.6462 125.151 81.6462 125.026C81.8952 125.649 82.1443 126.396 82.3933 127.268C85.0082 133.867 87.374 140.965 89.3662 147.937C89.1172 148.062 88.8682 148.062 88.6191 148.062ZM99.3276 144.202C99.3276 144.202 99.2031 144.202 99.3276 144.202C97.9579 142.583 96.2147 141.961 94.7205 142.708C92.9772 143.455 91.9811 145.198 92.4792 147.066C92.2301 147.19 91.9811 147.19 91.7321 147.315C89.9888 140.84 88.4946 133.743 87.2495 126.022C87.1249 125.151 87.0004 124.528 86.7514 123.781C87.1249 124.404 87.4985 125.026 88.1211 125.773C92.3547 131.501 96.4637 137.727 100.075 143.953C99.7012 144.077 99.5766 144.077 99.3276 144.202ZM108.915 137.478C108.915 137.603 108.915 137.603 108.915 137.478C107.172 136.357 105.304 136.233 104.059 137.229C103.063 137.976 102.565 139.097 102.565 140.217C102.565 140.84 102.69 141.463 103.063 141.961C102.814 142.085 102.69 142.21 102.441 142.334C99.0786 136.606 95.7166 130.007 92.4792 122.91C92.1056 122.162 91.7321 121.54 91.483 120.917C91.9811 121.415 92.6037 121.913 93.2263 122.411C98.8295 126.77 104.433 131.75 109.538 136.855C109.289 137.229 109.164 137.354 108.915 137.478ZM116.262 128.762C116.262 128.762 116.262 128.886 116.262 128.762C114.27 128.139 112.402 128.388 111.53 129.758C111.281 130.132 110.659 131.128 110.659 132.124C110.659 132.746 110.908 133.743 111.655 134.614C111.53 134.739 111.281 134.988 111.157 135.112C106.425 130.381 101.569 124.902 96.5882 118.925C96.0902 118.302 95.5921 117.68 95.094 117.306C95.7166 117.68 96.4637 117.929 97.2108 118.302C103.686 121.166 110.41 124.528 116.76 128.015C116.511 128.388 116.386 128.513 116.262 128.762ZM121.118 118.302C121.118 118.427 121.118 118.427 121.118 118.302C119.001 118.178 117.383 118.925 116.76 120.544C116.635 120.917 116.511 121.415 116.511 122.162C116.511 122.91 116.76 124.279 118.254 125.275C118.13 125.524 118.005 125.649 117.881 125.898C112.153 122.536 105.927 118.551 99.5766 114.069C98.9541 113.571 98.207 113.197 97.7089 112.824C98.3315 112.948 99.2031 113.197 100.075 113.322C107.048 114.318 114.394 115.812 121.367 117.68C121.243 117.929 121.243 118.178 121.118 118.302ZM123.11 107.096C121.118 107.469 119.624 108.59 119.499 110.209C119.499 110.333 119.499 110.458 119.499 110.707C119.499 112.201 120.246 113.82 122.114 114.442C122.114 114.691 121.99 114.94 121.99 115.189C115.515 113.446 108.542 111.205 101.195 108.466C100.448 108.217 99.7012 107.968 99.0786 107.843C99.8257 107.843 100.573 107.718 101.444 107.718C108.417 106.971 116.013 106.473 123.235 106.473C123.235 106.598 123.11 106.847 123.11 107.096Z" fill="#D9B68B"/>
<g filter="url(#filter2_i)">
<circle cx="79.157" cy="104.731" r="30.8055" fill="#805726"/>
</g>
<mask id="mask0" mask-type="alpha" maskUnits="userSpaceOnUse" x="48" y="73" width="62" height="63">
<circle cx="79.157" cy="104.731" r="30.8055" fill="#C3863A"/>
</mask>
<g mask="url(#mask0)">
<path d="M62.9498 72.9287L62.9504 72.9297L63.1045 73.1567L63.5424 73.8026C63.92 74.3599 64.4605 75.1582 65.1119 76.1223C66.4146 78.0505 68.1612 80.642 69.9362 83.2951C71.711 85.9478 73.5152 88.6636 74.933 90.8398C75.6416 91.9276 76.2552 92.8829 76.7207 93.6289C77.1767 94.3598 77.5137 94.9259 77.6462 95.213C77.6942 95.317 77.7116 95.4325 77.6965 95.546C77.6361 95.9988 77.3868 96.394 77.0891 96.723C76.7869 97.0567 76.3931 97.3686 75.9595 97.6564C75.0918 98.2324 73.9849 98.764 72.9146 99.2131C71.8391 99.6645 70.7763 100.043 69.9843 100.307C69.7133 100.398 69.4734 100.475 69.2748 100.538C69.3863 100.839 69.5363 101.235 69.7126 101.68C70.1067 102.675 70.6249 103.894 71.1363 104.844C71.4164 105.364 71.2562 105.875 70.9773 106.249C70.7147 106.602 70.3021 106.912 69.8524 107.184C68.9397 107.734 67.6494 108.256 66.3672 108.702C65.2018 109.108 64.0123 109.462 63.0595 109.728C63.4074 109.846 63.7847 109.974 64.1759 110.109C65.8119 110.673 67.7294 111.362 68.7435 111.831C69.7993 112.318 70.3206 112.916 70.3582 113.591C70.3756 113.905 70.2792 114.159 70.1881 114.325C70.142 114.41 70.0946 114.476 70.0568 114.524C70.0377 114.549 70.0205 114.569 70.0066 114.584L69.9982 114.593C69.9935 114.599 69.986 114.608 69.9759 114.621C69.9537 114.649 69.9194 114.694 69.8771 114.754C69.7922 114.876 69.676 115.058 69.5592 115.292C69.3245 115.761 69.0944 116.423 69.0944 117.211C69.0944 117.458 69.1006 117.765 69.1076 118.115V118.115V118.115C69.1252 118.989 69.1482 120.13 69.0937 121.261C69.0183 122.825 68.7924 124.555 68.0988 125.682C67.9264 125.962 67.6398 126.132 67.3856 126.243C67.1163 126.36 66.7908 126.45 66.4349 126.521C65.7211 126.665 64.7958 126.751 63.7511 126.797C61.6561 126.89 58.9916 126.828 56.3814 126.705C53.7676 126.582 51.1934 126.397 49.2737 126.244C48.3136 126.167 47.5165 126.098 46.9592 126.048C46.6805 126.023 46.4618 126.002 46.3126 125.989L46.1421 125.972L46.1124 125.97H32.7017C32.3681 125.97 32.0977 125.699 32.0977 125.366V73.8721C32.0977 73.5433 32.3607 73.2749 32.6894 73.2682L62.4378 72.6642C62.6423 72.66 62.8349 72.7596 62.9498 72.9287Z" fill="#FFE4C1"/>
<path fill-rule="evenodd" clip-rule="evenodd" d="M82.4058 100.022C81.9939 100.434 82.0183 101.103 82.3701 101.567C83.1047 102.537 83.5406 103.745 83.5406 105.055C83.5406 106.271 83.1654 107.399 82.5244 108.329C82.204 108.795 82.197 109.438 82.5965 109.837C82.9992 110.24 83.6589 110.242 84.0034 109.788C85.0018 108.473 85.5943 106.833 85.5943 105.055C85.5943 103.148 84.9126 101.4 83.7797 100.041C83.4275 99.6187 82.7946 99.6336 82.4058 100.022ZM85.8591 111.655C85.5014 112.093 85.4981 112.739 85.8982 113.139C86.3002 113.541 86.9559 113.542 87.3223 113.108C89.156 110.932 90.2609 108.123 90.2609 105.055C90.2609 101.865 89.0661 98.9544 87.0997 96.7458C86.7291 96.3296 86.0889 96.3392 85.6949 96.7332C85.2874 97.1408 85.3003 97.8013 85.6766 98.2379C87.2537 100.068 88.2073 102.45 88.2073 105.055C88.2073 107.558 87.327 109.856 85.8591 111.655ZM89.4089 115.202C89.0369 115.629 89.0348 116.275 89.4352 116.676C89.8368 117.077 90.4908 117.079 90.8674 116.653C93.6018 113.565 95.2618 109.504 95.2618 105.055C95.2618 100.487 93.5115 96.3278 90.6449 93.2111C90.2656 92.7988 89.6224 92.8057 89.2262 93.2019C88.8206 93.6075 88.8292 94.2648 89.2142 94.69C91.6962 97.4308 93.2081 101.067 93.2081 105.055C93.2081 108.939 91.7751 112.488 89.4089 115.202Z" fill="#FFE4C1"/>
</g>
<circle cx="79.1581" cy="104.731" r="47.0565" stroke="url(#paint1_linear)" stroke-width="2"/>
<circle cx="79.1556" cy="104.731" r="61.8431" stroke="url(#paint2_linear)" stroke-width="2"/>
<path d="M26.1719 82.9816L26.5415 82.1191L31.7785 81.2565L27.7121 79.4082L28.0202 78.7305L32.9491 80.9485L32.5794 81.811L27.2809 82.7352L31.3472 84.5835L31.0391 85.2612L26.1719 82.9816Z" fill="#FFFDFD"/>
<path d="M30.7298 78.5454C30.6682 78.299 30.6682 78.0525 30.7298 77.7445C30.7914 77.498 30.853 77.2516 30.9762 77.0051C31.0995 76.7587 31.2227 76.5739 31.4075 76.4506C31.5924 76.3274 31.7156 76.2042 31.9004 76.2042C32.0852 76.1426 32.2085 76.1426 32.3933 76.1426C32.5781 76.1426 32.7014 76.2042 32.8246 76.2658L34.4265 77.19C34.5497 77.2516 34.6113 77.3132 34.7345 77.3748C34.8577 77.4364 34.9193 77.4364 34.981 77.498L34.6729 78.0525C34.4881 77.9909 34.3648 77.8677 34.18 77.8061C34.3032 78.0525 34.3648 78.299 34.3648 78.5454C34.3648 78.7918 34.2416 79.0383 34.1184 79.2231C34.0568 79.3463 33.9336 79.4696 33.8103 79.5928C33.6871 79.716 33.5639 79.7776 33.4407 79.8392C33.3175 79.9008 33.1326 79.9008 33.0094 79.9008C32.8862 79.9008 32.7014 79.8392 32.5781 79.7776C32.3933 79.6544 32.2085 79.5312 32.1469 79.3464C32.0852 79.1615 32.0236 78.9767 32.0236 78.7919C32.0236 78.607 32.0852 78.3606 32.1469 78.1141C32.2085 77.8677 32.3317 77.6212 32.4549 77.4364L32.7014 77.0051L32.5781 76.9435C32.5165 76.8819 32.3933 76.8819 32.3317 76.8819C32.2701 76.8819 32.1469 76.8819 32.0236 76.8819C31.9004 76.8819 31.8388 76.9435 31.7156 77.0051C31.5924 77.0667 31.5307 77.19 31.4691 77.3132C31.4075 77.4364 31.3459 77.5596 31.3459 77.6212C31.3459 77.7445 31.2843 77.8061 31.2843 77.9293C31.2843 77.9909 31.2843 78.1141 31.2843 78.1757C31.2843 78.2374 31.2843 78.3606 31.3459 78.4222L30.7298 78.5454ZM32.9478 77.5596C32.8862 77.6829 32.763 77.8677 32.7014 77.9909C32.6397 78.1757 32.5781 78.299 32.5781 78.4222C32.5781 78.5454 32.5781 78.7302 32.5781 78.8535C32.6397 78.9767 32.7014 79.0999 32.8246 79.1615C33.0094 79.2847 33.1942 79.2847 33.3175 79.2231C33.4407 79.1615 33.6255 78.9767 33.6871 78.7919C33.8103 78.607 33.8103 78.4838 33.872 78.299C33.9336 78.1141 33.872 77.9909 33.8103 77.8677C33.7487 77.7445 33.6871 77.6213 33.6255 77.5596C33.5639 77.4364 33.4407 77.3748 33.3175 77.3132L33.1326 77.19L32.9478 77.5596Z" fill="#FFFDFD"/>
<path d="M33.935 73.5551L33.3805 74.356L34.7359 75.2802C34.7975 75.3418 34.9207 75.4034 34.9824 75.465C35.044 75.5266 35.1672 75.5266 35.2288 75.5882C35.2904 75.5882 35.4136 75.5882 35.4752 75.5882C35.5368 75.5882 35.5985 75.465 35.7217 75.4034C35.7833 75.3418 35.7833 75.2801 35.8449 75.1569C35.9065 75.0337 35.9065 74.9721 35.9065 74.9105L36.3994 75.2802C36.3994 75.4034 36.3378 75.465 36.2762 75.5882C36.2146 75.7114 36.153 75.773 36.153 75.8346C36.0297 76.0811 35.8449 76.2043 35.7217 76.2659C35.5985 76.3275 35.4136 76.3891 35.2904 76.3891C35.1672 76.3891 35.044 76.3275 34.9207 76.2659C34.7975 76.2043 34.6743 76.1427 34.5511 76.0195L32.9492 74.9721L32.5179 75.6498L32.025 75.3418L32.4563 74.664L31.5938 74.1095L31.9634 73.5551L32.826 74.1095L33.3805 73.3086L33.935 73.5551Z" fill="#FFFDFD"/>
<path d="M32.8255 71.8293C32.7022 71.7677 32.6406 71.6445 32.6406 71.5213C32.6406 71.3981 32.6406 71.2748 32.7022 71.1516C32.7638 71.0284 32.8871 70.9668 33.0103 70.9668C33.1335 70.9668 33.2567 70.9668 33.38 71.0284C33.5032 71.09 33.5648 71.2132 33.5648 71.3365C33.5648 71.4597 33.5648 71.5829 33.5032 71.7061C33.4416 71.8294 33.3183 71.891 33.1951 71.891C33.0719 71.891 32.9487 71.891 32.8255 71.8293ZM33.9961 72.4455L34.3657 71.891L37.3231 73.9857L36.9534 74.5402L33.9961 72.4455Z" fill="#FFFDFD"/>
<path d="M36.334 72.2607C36.1491 72.0758 35.9643 71.891 35.8411 71.7062C35.7179 71.4597 35.6562 71.2749 35.6562 71.0285C35.6562 70.782 35.6563 70.5356 35.7179 70.2891C35.7795 70.0427 35.9027 69.7962 36.0875 69.6114C36.2724 69.4266 36.4572 69.2417 36.7036 69.1185C36.9501 68.9953 37.1349 68.9337 37.3814 68.8721C37.6278 68.8721 37.8742 68.8721 38.1207 68.9337C38.3671 68.9953 38.6136 69.1185 38.7984 69.3033C38.9832 69.4882 39.1681 69.673 39.2913 69.8578C39.4145 70.1043 39.4761 70.2891 39.4761 70.5356C39.4761 70.782 39.4761 71.0284 39.4145 71.2749C39.3529 71.5213 39.2297 71.7678 39.0449 71.9526C38.86 72.1374 38.6752 72.3223 38.4287 72.4455C38.1823 72.5687 37.9975 72.6303 37.751 72.6919C37.5046 72.6919 37.2581 72.692 37.0117 72.6303C36.7652 72.5071 36.5188 72.3839 36.334 72.2607ZM36.7652 71.6446C36.8885 71.7678 37.0733 71.8294 37.1965 71.891C37.3814 71.9526 37.5046 71.9526 37.6278 71.9526C37.751 71.9526 37.9359 71.891 38.0591 71.8294C38.1823 71.7678 38.3055 71.6446 38.4287 71.5213C38.552 71.3981 38.6136 71.2133 38.6752 71.0901C38.7368 70.9052 38.7368 70.782 38.7368 70.6588C38.7368 70.5356 38.6752 70.3507 38.552 70.2275C38.4904 70.1043 38.3671 69.9811 38.1823 69.8578C38.0591 69.7346 37.8742 69.673 37.751 69.6114C37.5662 69.5498 37.443 69.5498 37.3197 69.5498C37.1965 69.5498 37.0117 69.6114 36.8885 69.673C36.7652 69.7346 36.642 69.8578 36.5188 69.9811C36.3956 70.1043 36.334 70.2891 36.2724 70.4123C36.2107 70.5972 36.2107 70.7204 36.2107 70.8436C36.2107 70.9668 36.2724 71.1517 36.3956 71.2749C36.5188 71.3981 36.642 71.5213 36.7652 71.6446Z" fill="#FFFDFD"/>
<path d="M37.9414 67.3943L38.4343 66.9014L38.8656 67.2711C38.804 67.0863 38.804 66.8398 38.804 66.5934C38.8656 66.3469 38.9888 66.1621 39.1736 65.9156C39.2968 65.7924 39.4201 65.6692 39.6049 65.6076C39.7281 65.546 39.913 65.4844 40.0978 65.4844C40.2826 65.4844 40.4058 65.4844 40.5907 65.546C40.7755 65.6076 40.9603 65.7308 41.1452 65.9156L42.8087 67.5175L42.3158 68.0104L40.7755 66.5317C40.6523 66.4085 40.5291 66.3469 40.4058 66.2853C40.2826 66.2237 40.1594 66.2237 40.0978 66.2237C40.0362 66.2237 39.913 66.2853 39.7897 66.2853C39.6665 66.2853 39.6049 66.4085 39.5433 66.4702C39.4201 66.5934 39.3585 66.655 39.2968 66.7782C39.2352 66.9014 39.2352 67.0246 39.2352 67.1479C39.2352 67.2711 39.2968 67.3943 39.3585 67.5791C39.4201 67.764 39.5433 67.8872 39.7281 68.0104L41.0836 69.3042L40.5907 69.7971L37.9414 67.3943Z" fill="#FFFDFD"/>
<path d="M41.2656 64.6208C41.2656 64.3743 41.3888 64.1279 41.5121 63.8814C41.6353 63.635 41.8201 63.4502 42.005 63.2653C42.1898 63.0805 42.3746 62.9573 42.5595 62.8957C42.7443 62.8341 42.9291 62.7725 43.114 62.7725C43.2988 62.7725 43.422 62.8341 43.5452 62.8957C43.6685 62.9573 43.7917 63.0805 43.9149 63.1421L45.1471 64.4976C45.2087 64.6208 45.3319 64.6824 45.3936 64.744C45.4552 64.8056 45.5168 64.8672 45.64 64.9288L45.2087 65.3601C45.0855 65.2369 44.9623 65.1137 44.8391 64.9904C44.9007 65.2369 44.8391 65.4833 44.7774 65.7298C44.7158 65.9146 44.531 66.1611 44.3462 66.3459C44.2229 66.4691 44.0997 66.5307 43.9149 66.5923C43.7917 66.6539 43.6068 66.7156 43.4836 66.7156C43.3604 66.7156 43.1756 66.7156 43.0523 66.6539C42.9291 66.5923 42.8059 66.5307 42.6827 66.3459C42.4978 66.1611 42.4362 65.9762 42.3746 65.7914C42.3746 65.6066 42.3746 65.4217 42.4362 65.2369C42.4978 65.0521 42.6211 64.8672 42.7443 64.6824C42.8675 64.4976 43.0523 64.3127 43.2988 64.1279L43.6685 63.7582L43.5452 63.635C43.4836 63.5734 43.422 63.5118 43.2988 63.4502C43.2372 63.3886 43.114 63.3886 42.9907 63.3886C42.8675 63.3886 42.8059 63.3886 42.6827 63.4502C42.5595 63.5118 42.4362 63.5734 42.3746 63.635C42.2514 63.6966 42.1898 63.8198 42.1282 63.8814C42.0666 63.9431 42.005 64.0663 42.005 64.1279C42.005 64.1895 41.9433 64.3127 41.9433 64.3743C41.9433 64.4359 41.9433 64.5592 41.8817 64.6208H41.2656ZM43.6685 64.3743C43.5452 64.4976 43.422 64.6208 43.2988 64.744C43.1756 64.8672 43.114 64.9904 43.0523 65.1137C42.9907 65.2369 42.9291 65.3601 42.9291 65.4833C42.9291 65.6066 42.9907 65.7298 43.0523 65.853C43.1756 65.9762 43.3604 66.0994 43.4836 66.0378C43.6684 66.0378 43.7917 65.9146 43.9765 65.7298C44.0997 65.6066 44.2229 65.4833 44.2846 65.3601C44.3462 65.2369 44.3462 65.1137 44.3462 64.9904C44.3462 64.8672 44.2846 64.744 44.2229 64.6208C44.1613 64.4976 44.0997 64.3743 44.0381 64.3127L43.8533 64.1279L43.6685 64.3743Z" fill="#FFFDFD"/>
<path d="M42.6211 59.9391L43.1756 59.5078L46.8106 63.9438L46.2561 64.3751L42.6211 59.9391Z" fill="#FFFDFD"/>
<path d="M46.2578 57.5963L46.8739 57.165L49.5232 61.0465L51.5564 59.6295L51.926 60.184L49.2767 62.0323L46.2578 57.5963Z" fill="#FFFDFD"/>
<path d="M50.6953 57.2904C50.7569 57.044 50.8801 56.7975 51.065 56.6127C51.2498 56.4279 51.4346 56.243 51.6811 56.1198C51.9275 55.9966 52.1124 55.8734 52.2972 55.8734C52.482 55.8117 52.6669 55.8117 52.8517 55.8734C53.0365 55.935 53.1597 55.9966 53.283 56.0582C53.4062 56.1814 53.5294 56.243 53.591 56.4279L54.5152 58.0297C54.5768 58.153 54.6384 58.2146 54.7 58.3378C54.7616 58.3994 54.8232 58.5226 54.8849 58.5842L54.3304 58.8923C54.2071 58.7691 54.1455 58.5842 54.0223 58.3994C54.0223 58.7075 53.9607 58.8923 53.7759 59.0771C53.6526 59.262 53.4678 59.4468 53.2214 59.57C53.0981 59.6316 52.9133 59.6932 52.7901 59.7548C52.6053 59.8164 52.482 59.8164 52.3588 59.7548C52.2356 59.6932 52.0508 59.6932 51.9275 59.57C51.8043 59.5084 51.6811 59.3852 51.6195 59.2003C51.4963 59.0155 51.4346 58.8307 51.4346 58.5842C51.4346 58.3378 51.4963 58.2146 51.6195 58.0297C51.7427 57.8449 51.8659 57.6601 52.0508 57.5369C52.2356 57.352 52.4204 57.2288 52.6669 57.1056L53.0981 56.8591L53.0365 56.7359C52.9749 56.6743 52.9133 56.6127 52.8517 56.5511C52.7901 56.4895 52.6669 56.4279 52.6053 56.4279C52.482 56.4279 52.4204 56.3662 52.2972 56.4279C52.174 56.4279 52.0508 56.4895 51.9275 56.5511C51.8043 56.6127 51.7427 56.6743 51.6195 56.7359C51.4963 56.7975 51.4963 56.8591 51.4346 56.9823C51.373 57.044 51.3114 57.1056 51.3114 57.2288C51.2498 57.2904 51.2498 57.352 51.2498 57.4752L50.6953 57.2904ZM53.0981 57.5985C52.9749 57.6601 52.7901 57.7833 52.6669 57.8449C52.5436 57.9681 52.4204 58.0297 52.2972 58.153C52.174 58.2762 52.1124 58.3994 52.1124 58.5226C52.1124 58.6458 52.1124 58.7691 52.174 58.8923C52.2972 59.0771 52.4204 59.1387 52.6053 59.2003C52.7901 59.2003 52.9749 59.1387 53.1597 59.0155C53.3446 58.8923 53.4678 58.8307 53.5294 58.7075C53.591 58.5842 53.6526 58.461 53.6526 58.3378C53.6526 58.2146 53.6526 58.0913 53.6526 57.9681C53.591 57.8449 53.591 57.7217 53.5294 57.5985L53.4062 57.4136L53.0981 57.5985Z" fill="#FFFDFD"/>
<path d="M53.9609 54.9478L54.577 54.6397L54.8235 55.1326C54.8235 54.9478 54.8851 54.7013 55.0083 54.5165C55.1315 54.3317 55.3164 54.1468 55.6244 54.0236C55.8093 53.962 55.9325 53.9004 56.1173 53.9004C56.3022 53.9004 56.4254 53.9004 56.6102 53.962C56.795 54.0236 56.9183 54.0852 57.0415 54.2084C57.1647 54.3317 57.2879 54.5165 57.4112 54.7013L58.3969 56.7961L57.7808 57.1042L56.8567 55.1942C56.795 55.071 56.6718 54.9478 56.6102 54.8246C56.487 54.7629 56.4254 54.7013 56.3022 54.6397C56.1789 54.5781 56.1173 54.5781 55.9941 54.6397C55.8709 54.6397 55.8093 54.7013 55.686 54.7013C55.5628 54.763 55.4396 54.8246 55.378 54.9478C55.3164 55.071 55.2548 55.1326 55.1932 55.2558C55.1315 55.3791 55.1315 55.5023 55.1932 55.6871C55.1932 55.872 55.2548 55.9952 55.378 56.18L56.1789 57.8435L55.5628 58.1516L53.9609 54.9478Z" fill="#FFFDFD"/>
<path d="M62.5216 55.1338C62.6448 55.3802 62.6448 55.6267 62.6448 55.8731C62.6448 56.1196 62.5832 56.366 62.46 56.5509C62.3367 56.7973 62.2135 56.9821 62.0287 57.1053C61.8439 57.2902 61.5974 57.4134 61.351 57.5366C61.0429 57.6599 60.7349 57.7215 60.4268 57.7215C60.1187 57.7215 59.8107 57.6599 59.5026 57.5366L59.7491 56.7973C59.9955 56.9205 60.242 56.9821 60.4268 56.9821C60.6116 56.9821 60.9197 56.9821 61.1661 56.8589C61.4126 56.7973 61.5974 56.6741 61.7206 56.5509C61.8439 56.4276 61.9671 56.3044 61.9671 56.1196C61.9671 55.9347 62.0287 55.8115 62.0287 55.6883C62.0287 55.5651 61.9671 55.3802 61.9055 55.257L61.7206 54.7641C61.659 55.0106 61.5974 55.257 61.4126 55.3802C61.2277 55.5651 61.0429 55.6883 60.7965 55.8115C60.55 55.9347 60.3036 55.9347 60.0571 55.9347C59.8107 55.9347 59.5643 55.8731 59.3794 55.8115C59.1946 55.6883 58.9481 55.5651 58.8249 55.3802C58.7017 55.1954 58.5169 55.0106 58.4553 54.7641C58.332 54.5177 58.332 54.2712 58.332 54.0248C58.332 53.7784 58.3936 53.5319 58.4553 53.3471C58.5169 53.1006 58.7017 52.9158 58.8249 52.731C59.0098 52.5461 59.1946 52.4229 59.5026 52.2997C59.7491 52.2381 59.9955 52.1765 60.242 52.1765C60.4884 52.1765 60.7349 52.2381 60.9197 52.4229L60.7349 51.93L61.351 51.6836L62.5216 55.1338ZM59.6875 52.9774C59.5026 53.039 59.3794 53.1623 59.2562 53.2239C59.133 53.3471 59.0714 53.4703 59.0098 53.5935C58.9481 53.7167 58.9481 53.9016 58.9481 54.0248C58.9481 54.148 59.0098 54.3328 59.0714 54.5177C59.1946 54.8873 59.3794 55.0722 59.6875 55.1954C59.9955 55.3186 60.3036 55.3186 60.6116 55.1954C60.9813 55.0722 61.1661 54.8257 61.2894 54.5793C61.4126 54.3329 61.4126 53.9632 61.2894 53.6551C61.2277 53.4703 61.1661 53.3471 61.0429 53.2239C60.9197 53.1006 60.7965 52.9774 60.6732 52.9158C60.55 52.8542 60.3652 52.7926 60.242 52.7926C59.9955 52.9158 59.8723 52.9158 59.6875 52.9774Z" fill="#FFFDFD"/>
<path d="M66.4044 53.9631L65.7267 54.1479L65.5418 53.5934C65.5418 53.7782 65.4186 54.0247 65.2338 54.1479C65.0489 54.3328 64.8641 54.456 64.5561 54.5176C64.3712 54.5792 64.248 54.5792 64.0632 54.5792C63.8783 54.5792 63.7551 54.5176 63.5703 54.456C63.3854 54.3944 63.2622 54.2711 63.2006 54.1479C63.0774 54.0247 63.0158 53.8398 62.8926 53.5934L62.2148 51.3754L62.8926 51.1906L63.5087 53.2238C63.5703 53.4086 63.6319 53.5318 63.6935 53.5934C63.7551 53.7166 63.8783 53.7783 63.94 53.8399C64.0632 53.9015 64.1248 53.9015 64.248 53.9015C64.3712 53.9015 64.4328 53.9015 64.5561 53.8399C64.6793 53.7783 64.8025 53.7166 64.9257 53.655C65.0489 53.5934 65.1106 53.4702 65.1722 53.347C65.2338 53.2237 65.2338 53.1005 65.2954 52.9157C65.2954 52.7309 65.2954 52.546 65.2338 52.3612L64.6793 50.5745L65.357 50.3896L66.4044 53.9631Z" fill="#FFFDFD"/>
<path d="M66.5273 50.6966C66.6506 50.5118 66.897 50.327 67.0818 50.1421C67.3283 50.0189 67.5747 49.8957 67.8212 49.8341C68.0676 49.7725 68.3141 49.7725 68.4989 49.7725C68.6837 49.7725 68.8686 49.8341 68.9918 49.9573C69.115 50.0189 69.2382 50.1421 69.3614 50.2653C69.4231 50.3886 69.4847 50.5118 69.5463 50.6966L69.9159 52.4833C69.9159 52.6066 69.9776 52.7298 69.9776 52.853C69.9776 52.9762 70.0392 53.0378 70.0392 53.1611L69.4231 53.2843C69.3614 53.0994 69.2998 52.9146 69.2998 52.7298C69.1766 52.9762 69.0534 53.1611 68.8686 53.3459C68.6837 53.4691 68.4373 53.5923 68.1908 53.6539C68.006 53.7156 67.8828 53.7156 67.698 53.7156C67.5131 53.7156 67.3899 53.6539 67.2667 53.5923C67.1435 53.5307 67.0202 53.4075 66.9586 53.3459C66.897 53.2843 66.7738 53.0995 66.7738 52.9146C66.7122 52.6682 66.7122 52.4833 66.7738 52.2985C66.8354 52.1137 66.9586 51.9904 67.0818 51.8056C67.2667 51.6824 67.4515 51.5592 67.6363 51.4359C67.8828 51.3127 68.1292 51.2511 68.3757 51.1895L68.8686 51.0663L68.8069 50.9431C68.8069 50.8815 68.7453 50.7582 68.6837 50.6966C68.6221 50.635 68.5605 50.5734 68.4989 50.5118C68.4373 50.4502 68.3141 50.3886 68.1908 50.3886C68.0676 50.3886 67.9444 50.3886 67.8212 50.3886C67.698 50.3886 67.5747 50.4502 67.5131 50.5118C67.4515 50.5734 67.3283 50.635 67.2667 50.635C67.2051 50.6966 67.1435 50.7582 67.0818 50.8198C67.0202 50.8814 66.9586 50.9431 66.897 51.0047L66.5273 50.6966ZM68.7453 51.6824C68.5605 51.744 68.4373 51.744 68.2525 51.8056C68.0676 51.8672 67.9444 51.9288 67.8212 51.9905C67.698 52.0521 67.5747 52.1753 67.5131 52.2985C67.4515 52.4217 67.4515 52.5449 67.4515 52.6682C67.5131 52.853 67.5747 52.9762 67.7596 53.0378C67.9444 53.0994 68.1292 53.0994 68.3141 53.0378C68.4989 52.9762 68.6221 52.9146 68.7453 52.853C68.8686 52.7914 68.9302 52.6682 68.9918 52.545C69.0534 52.4217 69.0534 52.2985 69.115 52.1753C69.115 52.0521 69.115 51.9288 69.115 51.8056L69.0534 51.5592L68.7453 51.6824Z" fill="#FFFDFD"/>
<path d="M74.411 52.4826C74.4726 52.729 74.411 53.0371 74.3494 53.2219C74.2878 53.4684 74.1646 53.6532 74.0413 53.8381C73.9181 54.0229 73.7333 54.2077 73.4868 54.3309C73.2404 54.4542 72.9939 54.5158 72.6859 54.5774C72.3162 54.639 72.0082 54.639 71.7001 54.5774C71.3921 54.5158 71.084 54.3925 70.8376 54.2077L71.2072 53.5916C71.3921 53.7764 71.6385 53.8997 71.8233 53.9613C72.0698 54.0229 72.2546 54.0229 72.5627 54.0229C72.8091 53.9613 72.9939 53.8997 73.1788 53.8381C73.3636 53.7148 73.4252 53.6532 73.5484 53.53C73.6101 53.4068 73.6717 53.2835 73.6717 53.0987C73.6717 52.9139 73.6717 52.7907 73.6717 52.6674L73.6101 52.1129C73.4868 52.3594 73.3636 52.5442 73.1172 52.6674C72.9323 52.7907 72.6859 52.9139 72.4394 52.9139C72.193 52.9755 71.9466 52.9139 71.7001 52.8523C71.4537 52.7907 71.2688 52.6674 71.084 52.5442C70.8992 52.421 70.776 52.2362 70.6527 51.9897C70.5295 51.8049 70.4679 51.5584 70.4063 51.2504C70.3447 50.9423 70.4063 50.7575 70.4063 50.511C70.4679 50.2646 70.5295 50.0798 70.7143 49.8333C70.8992 49.5869 71.0224 49.4637 71.2072 49.3404C71.3921 49.2172 71.6385 49.1556 71.9466 49.094C72.193 49.0324 72.4394 49.094 72.6859 49.1556C72.9323 49.2172 73.1172 49.3405 73.302 49.5253L73.2404 49.0324L73.9181 48.9092L74.411 52.4826ZM72.193 49.7101C72.0082 49.7101 71.8233 49.7717 71.7001 49.8949C71.5769 50.0182 71.4537 50.0798 71.3921 50.203C71.3305 50.3262 71.2688 50.4494 71.2072 50.6343C71.1456 50.8191 71.1456 50.9423 71.2072 51.1272C71.2688 51.4968 71.3921 51.7433 71.6385 51.9281C71.885 52.1129 72.193 52.1745 72.5627 52.1129C72.9323 52.0513 73.1788 51.9281 73.3636 51.6817C73.5484 51.4352 73.6101 51.1272 73.5484 50.7575C73.5484 50.5727 73.4868 50.3878 73.4252 50.2646C73.3636 50.1414 73.2404 50.0182 73.1172 49.8949C72.9939 49.7717 72.8707 49.7101 72.6859 49.7101C72.5011 49.7101 72.3162 49.7101 72.193 49.7101Z" fill="#FFFDFD"/>
<path d="M75.7072 50.8821C75.7072 51.0669 75.7688 51.1901 75.8304 51.3133C75.892 51.4366 76.0152 51.5598 76.1385 51.6214C76.2617 51.683 76.3849 51.7446 76.5081 51.8062C76.6314 51.8678 76.8162 51.8678 76.9394 51.8678C77.1242 51.8678 77.3091 51.8062 77.4939 51.683C77.6171 51.5598 77.802 51.4366 77.9252 51.2517L78.4797 51.6214C78.11 52.1143 77.6171 52.4223 76.9394 52.4223C76.6314 52.4223 76.3849 52.4223 76.1385 52.2991C75.892 52.2375 75.7072 52.1143 75.5224 51.9295C75.3375 51.7446 75.2143 51.5598 75.0911 51.375C74.9679 51.1285 74.9062 50.8821 74.9062 50.6356C74.9062 50.3892 74.9063 50.1427 75.0295 49.8963C75.0911 49.6498 75.2143 49.465 75.3991 49.2802C75.584 49.0953 75.7688 48.9721 75.9536 48.8489C76.2001 48.7257 76.4465 48.6641 76.693 48.6641C77.001 48.6641 77.3091 48.6641 77.4939 48.7873C77.7404 48.9105 77.9252 49.0337 78.0484 49.2186C78.1716 49.4034 78.2949 49.5882 78.4181 49.8347C78.5413 50.0811 78.5413 50.2659 78.5413 50.5124V50.7588L75.7072 50.8821ZM77.802 50.2043C77.802 50.0811 77.7404 49.8963 77.6787 49.7731C77.6171 49.6498 77.5555 49.5266 77.4939 49.465C77.4323 49.4034 77.3091 49.2802 77.1859 49.2802C77.0626 49.2802 76.8778 49.2186 76.7546 49.2186C76.5697 49.2186 76.4465 49.2802 76.3233 49.3418C76.2001 49.4034 76.0769 49.5266 75.9536 49.5882C75.892 49.7114 75.7688 49.8347 75.7688 49.9579C75.7072 50.0811 75.7072 50.2043 75.7072 50.3276L77.802 50.2043Z" fill="#FFFDFD"/>
<path d="M82.854 47.6164L81.1289 47.4932L81.1905 46.8154L85.3801 47.0619L85.3185 47.7396L83.5933 47.6164L83.3469 52.2988L82.6076 52.2372L82.854 47.6164Z" fill="#FFFDFD"/>
<path d="M85.1951 48.9092L85.8728 48.9708L85.8112 49.5253C85.8728 49.4637 85.9345 49.3404 85.9961 49.2788C86.0577 49.2172 86.1809 49.1556 86.2425 49.094C86.3657 49.0324 86.4273 49.0324 86.5506 48.9708C86.6738 48.9092 86.797 48.9708 86.8586 48.9708C86.9202 48.9708 87.0434 49.0324 87.1667 49.0324L87.0435 49.7717C86.9818 49.7717 86.9202 49.7101 86.8586 49.7101C86.797 49.7101 86.7354 49.7101 86.6738 49.6485C86.3657 49.5869 86.0577 49.6485 85.8728 49.8333C85.688 50.0182 85.5648 50.2646 85.5032 50.6959L85.3183 52.4826L84.6406 52.421L85.1951 48.9092Z" fill="#FFFDFD"/>
<path d="M88.029 49.6502C88.2754 49.5269 88.5219 49.4037 88.7683 49.3421C89.0147 49.2805 89.2612 49.2805 89.5692 49.3421C89.8157 49.4037 90.0621 49.4653 90.247 49.527C90.4318 49.6502 90.555 49.7118 90.6782 49.8966C90.8015 50.0198 90.8631 50.1431 90.8631 50.3279C90.9247 50.4511 90.9247 50.6359 90.8631 50.8208L90.555 52.6075C90.555 52.7307 90.4934 52.8539 90.4934 52.9771C90.4934 53.1004 90.4934 53.162 90.4934 53.2852L89.8773 53.162C89.8773 52.9772 89.9389 52.7923 89.9389 52.6075C89.7541 52.7923 89.5692 52.9155 89.3228 52.9771C89.0764 53.0388 88.8299 53.0388 88.5835 52.9771C88.3986 52.9771 88.2754 52.9155 88.1522 52.8539C88.029 52.7923 87.9058 52.6691 87.7825 52.6075C87.6593 52.4843 87.5977 52.361 87.5977 52.2378C87.5977 52.1146 87.5361 51.9298 87.5977 51.7449C87.6593 51.4985 87.7209 51.3137 87.8441 51.1904C87.9674 51.0672 88.1522 50.944 88.337 50.8824C88.5219 50.8208 88.7683 50.7592 89.0147 50.7592C89.2612 50.7592 89.5076 50.7592 89.8157 50.8208L90.3086 50.8824V50.7592C90.3086 50.6976 90.3086 50.5743 90.3086 50.4511C90.3086 50.3279 90.247 50.2663 90.1854 50.2047C90.1237 50.143 90.0621 50.0198 89.9389 49.9582C89.8157 49.8966 89.6925 49.835 89.5692 49.835C89.446 49.835 89.3228 49.835 89.1996 49.835C89.0764 49.835 89.0148 49.835 88.8915 49.8966C88.8299 49.8966 88.7067 49.9582 88.6451 50.0198C88.5835 50.0814 88.5219 50.0814 88.4602 50.1431L88.029 49.6502ZM89.6925 51.3753C89.5076 51.3753 89.3844 51.3137 89.1996 51.3137C89.0148 51.3137 88.8915 51.3137 88.7067 51.3137C88.5835 51.3137 88.4603 51.3753 88.337 51.4369C88.2138 51.4985 88.1522 51.6217 88.1522 51.7449C88.0906 51.9298 88.1522 52.1146 88.2754 52.2378C88.3986 52.361 88.5835 52.4227 88.8299 52.4843C89.0147 52.5459 89.1996 52.4843 89.3228 52.4843C89.446 52.4227 89.5692 52.3611 89.6925 52.2994C89.8157 52.2378 89.8773 52.1146 89.9389 51.9914C90.0005 51.8682 90.0621 51.7449 90.0621 51.6217L90.1237 51.3753H89.6925Z" fill="#FFFDFD"/>
<path d="M92.0335 49.958L92.7113 50.1429L92.588 50.6973C92.7113 50.5125 92.8961 50.3893 93.1425 50.3277C93.389 50.2661 93.6354 50.2661 93.8819 50.3277C94.0667 50.3893 94.1899 50.4509 94.3748 50.5125C94.498 50.5741 94.6212 50.6973 94.7444 50.8822C94.806 51.0054 94.8676 51.1902 94.9292 51.3751C94.9909 51.5599 94.9293 51.7447 94.8676 51.9912L94.3131 54.2708L93.6354 54.0243L94.1283 51.9296C94.1899 51.7447 94.1899 51.6215 94.1899 51.4983C94.1899 51.3751 94.1283 51.2518 94.0667 51.1902C94.0051 51.1286 93.9435 51.0054 93.8203 50.9438C93.7586 50.8822 93.6354 50.8206 93.5122 50.8206C93.389 50.7589 93.2658 50.7589 93.0809 50.8206C92.9577 50.8206 92.8345 50.8822 92.7113 50.9438C92.588 51.0054 92.5264 51.1286 92.4032 51.2518C92.3416 51.3751 92.2184 51.5599 92.2184 51.7447L91.7871 53.5315L91.1094 53.3466L92.0335 49.958Z" fill="#FFFDFD"/>
<path d="M97.7656 52.4832C97.704 52.36 97.6423 52.2368 97.5807 52.1751C97.5191 52.1135 97.3343 51.9903 97.2111 51.9287C97.0262 51.8671 96.903 51.8671 96.7798 51.8671C96.6566 51.8671 96.5333 51.9903 96.5333 52.1135C96.4717 52.2367 96.5333 52.2984 96.5333 52.4216C96.595 52.4832 96.6566 52.6064 96.7182 52.668C96.7798 52.7296 96.903 52.7913 96.9646 52.8529C97.0262 52.9145 97.1495 52.9761 97.2111 52.9761C97.3343 53.0377 97.4575 53.1609 97.5807 53.2225C97.704 53.2841 97.7656 53.4074 97.8272 53.5306C97.8888 53.6538 97.9504 53.777 97.9504 53.9002C97.9504 54.0235 97.9504 54.1467 97.8888 54.3315C97.8272 54.5164 97.704 54.7012 97.5807 54.7628C97.4575 54.8244 97.3343 54.9476 97.1495 55.0092C96.9646 55.0709 96.8414 55.0709 96.6566 55.0709C96.4717 55.0709 96.2869 55.0092 96.1637 54.9476C95.8556 54.8244 95.6708 54.7012 95.486 54.578C95.3011 54.4547 95.1779 54.2083 95.0547 53.9002L95.6708 53.6538C95.7324 53.777 95.8556 53.9002 95.9172 54.0235C96.0405 54.1467 96.1637 54.2699 96.3485 54.3315C96.4101 54.3315 96.5333 54.3931 96.595 54.3931C96.6566 54.3931 96.7798 54.3931 96.8414 54.3931C96.903 54.3931 96.9646 54.3315 97.0262 54.3315C97.0878 54.2699 97.1495 54.2083 97.1495 54.1467C97.2111 54.0235 97.1495 53.9618 97.1495 53.9002C97.0878 53.8386 97.0262 53.7154 96.9646 53.6538C96.903 53.5922 96.8414 53.5306 96.7182 53.469C96.595 53.4074 96.5333 53.3457 96.4717 53.3457C96.3485 53.2841 96.2253 53.1609 96.1021 53.0993C95.9788 53.0377 95.9172 52.9145 95.8556 52.7912C95.794 52.668 95.7324 52.5448 95.7324 52.4216C95.7324 52.2984 95.7324 52.1751 95.794 51.9903C95.8556 51.8055 95.9172 51.6823 96.0405 51.559C96.1637 51.4358 96.2869 51.3742 96.4717 51.3126C96.6566 51.251 96.7798 51.251 96.9646 51.251C97.1495 51.251 97.2727 51.3126 97.4575 51.3126C97.704 51.3742 97.8888 51.4974 98.0736 51.6823C98.2585 51.8671 98.3817 52.0519 98.4433 52.2984L97.7656 52.4832Z" fill="#FFFDFD"/>
<path d="M100.228 50.1436L100.845 50.39L98.8114 55.7501L98.1953 55.5037L100.228 50.1436Z" fill="#FFFDFD"/>
<path d="M101.028 53.2228C101.275 53.1612 101.521 53.0996 101.829 53.0996C102.137 53.0996 102.322 53.1612 102.568 53.2844C102.815 53.4077 103 53.5309 103.123 53.6541C103.246 53.7773 103.369 53.9622 103.431 54.0854C103.493 54.2086 103.554 54.3934 103.493 54.5167C103.431 54.6399 103.431 54.8247 103.369 54.9479L102.63 56.6114C102.568 56.7347 102.507 56.8579 102.507 56.9195C102.445 57.0427 102.445 57.1043 102.384 57.2275L101.829 56.9811C101.891 56.7963 101.952 56.6114 102.014 56.4882C101.768 56.6114 101.521 56.7346 101.336 56.7346C101.09 56.7346 100.843 56.673 100.597 56.5498C100.474 56.4882 100.289 56.4266 100.166 56.3034C100.042 56.1802 99.9808 56.0569 99.8576 55.9337C99.796 55.8105 99.7344 55.6873 99.7344 55.5024C99.7344 55.3176 99.7344 55.1944 99.8576 55.0096C99.9808 54.8247 100.104 54.6399 100.227 54.5167C100.412 54.3934 100.597 54.3318 100.782 54.3318C100.967 54.3318 101.213 54.3318 101.459 54.3934C101.706 54.4551 101.952 54.5167 102.199 54.6399L102.63 54.8247L102.692 54.7015C102.753 54.6399 102.753 54.5167 102.753 54.4551C102.753 54.3934 102.753 54.2702 102.692 54.147C102.63 54.0238 102.568 53.9622 102.507 53.9005C102.445 53.8389 102.322 53.7773 102.199 53.7157C102.076 53.6541 101.952 53.6541 101.891 53.5925C101.768 53.5925 101.706 53.5925 101.583 53.5925C101.521 53.5925 101.398 53.5925 101.336 53.6541C101.275 53.6541 101.151 53.7157 101.09 53.7157L101.028 53.2228ZM102.199 55.3176C102.076 55.256 101.891 55.1944 101.706 55.1328C101.521 55.0712 101.398 55.0712 101.213 55.0096C101.09 55.0096 100.905 55.0096 100.843 55.0712C100.72 55.1328 100.659 55.1944 100.597 55.3176C100.535 55.5024 100.535 55.6873 100.597 55.8105C100.659 55.9337 100.843 56.0569 101.09 56.1802C101.275 56.2418 101.398 56.3034 101.583 56.3034C101.706 56.3034 101.891 56.2418 101.952 56.1802C102.076 56.1185 102.137 56.0569 102.26 55.9337C102.322 55.8105 102.384 55.7489 102.445 55.6257L102.507 55.4408L102.199 55.3176Z" fill="#FFFDFD"/>
<path d="M106.264 55.8723L105.402 55.441L104.662 56.9197C104.601 56.9813 104.601 57.1045 104.539 57.1661C104.478 57.2277 104.478 57.351 104.478 57.4126C104.478 57.4742 104.478 57.5974 104.539 57.659C104.601 57.7206 104.662 57.7822 104.786 57.8438C104.847 57.9055 104.909 57.9054 105.032 57.9671C105.094 57.9671 105.217 58.0287 105.279 58.0287L104.97 58.5832C104.847 58.5832 104.786 58.5832 104.662 58.5216C104.539 58.4599 104.416 58.46 104.354 58.3983C104.108 58.2751 103.985 58.1519 103.862 58.0287C103.738 57.9055 103.738 57.7822 103.738 57.5974C103.738 57.4742 103.738 57.351 103.8 57.1661C103.862 57.0429 103.923 56.9197 103.985 56.7965L104.847 55.133L104.17 54.7633L104.416 54.2088L105.094 54.5785L105.587 53.6543L106.203 53.9624L105.71 54.8865L106.572 55.3178L106.264 55.8723Z" fill="#FFFDFD"/>
<path d="M107.439 55.8088L108.055 56.1784L106.268 59.3206L105.652 58.9509L107.439 55.8088ZM107.932 54.6382C107.994 54.5149 108.117 54.4533 108.24 54.3917C108.363 54.3301 108.486 54.3917 108.61 54.4533C108.733 54.515 108.794 54.6382 108.856 54.7614C108.918 54.8846 108.856 55.0078 108.795 55.131C108.733 55.2543 108.61 55.3159 108.486 55.3775C108.363 55.4391 108.24 55.3775 108.117 55.3159C107.994 55.2543 107.932 55.1311 107.87 55.0078C107.809 54.8846 107.87 54.7614 107.932 54.6382Z" fill="#FFFDFD"/>
<path d="M107.866 58.1519C107.989 57.9055 108.174 57.7206 108.42 57.5974C108.667 57.4742 108.852 57.351 109.098 57.2894C109.345 57.2278 109.591 57.2278 109.838 57.2894C110.084 57.351 110.33 57.4126 110.577 57.5974C110.823 57.7823 111.008 57.9055 111.131 58.1519C111.255 58.3984 111.378 58.5832 111.439 58.8296C111.501 59.0761 111.501 59.3225 111.439 59.569C111.378 59.8154 111.316 60.0619 111.131 60.2467C111.008 60.4932 110.823 60.678 110.577 60.8012C110.392 60.9244 110.146 61.0476 109.899 61.1093C109.653 61.1709 109.406 61.1709 109.16 61.1093C108.913 61.0476 108.667 60.986 108.42 60.8012C108.174 60.6164 107.989 60.4932 107.866 60.2467C107.743 60.0003 107.62 59.8154 107.558 59.569C107.496 59.3225 107.496 59.0761 107.558 58.8296C107.62 58.5832 107.743 58.3984 107.866 58.1519ZM108.482 58.5832C108.359 58.7064 108.297 58.8913 108.297 59.0761C108.236 59.2609 108.236 59.3841 108.297 59.5074C108.297 59.6306 108.359 59.8154 108.482 59.9387C108.605 60.0619 108.667 60.1851 108.852 60.3083C108.975 60.4315 109.16 60.4931 109.345 60.4931C109.529 60.4931 109.653 60.4931 109.776 60.4931C109.899 60.4315 110.084 60.3699 110.207 60.3083C110.33 60.1851 110.454 60.0619 110.577 59.9387C110.7 59.8154 110.762 59.6306 110.762 59.4458C110.823 59.2609 110.823 59.1377 110.762 59.0145C110.762 58.8913 110.7 58.7064 110.577 58.5832C110.454 58.46 110.392 58.3368 110.207 58.2135C110.084 58.0903 109.899 58.0287 109.714 58.0287C109.529 58.0287 109.406 58.0287 109.283 58.0287C109.16 58.0903 108.975 58.1519 108.852 58.2135C108.729 58.2751 108.605 58.3984 108.482 58.5832Z" fill="#FFFDFD"/>
<path d="M112.86 59.2598L113.414 59.691L113.106 60.1223C113.291 59.9991 113.476 59.9991 113.722 59.9991C113.969 59.9991 114.215 60.1223 114.4 60.3072C114.523 60.4304 114.646 60.5536 114.769 60.6768C114.893 60.8 114.954 60.9849 114.954 61.1081C114.954 61.2313 114.954 61.4161 114.893 61.601C114.831 61.7858 114.769 61.9707 114.585 62.1555L113.168 64.0038L112.613 63.5725L113.907 61.909C114.03 61.7858 114.092 61.6626 114.092 61.5394C114.153 61.4162 114.153 61.2929 114.153 61.1697C114.153 61.0465 114.092 60.9849 114.03 60.8617C113.969 60.7384 113.907 60.6768 113.845 60.6152C113.722 60.5536 113.599 60.492 113.476 60.4304C113.352 60.3688 113.229 60.3688 113.106 60.4304C112.983 60.4304 112.86 60.492 112.736 60.6152C112.613 60.6768 112.49 60.8616 112.367 60.9849L111.258 62.4635L110.703 62.0323L112.86 59.2598Z" fill="#FFFDFD"/>
<path d="M119.265 62.1562L120.005 62.9572L118.279 67.0235L122.407 65.36L123.147 66.161L119.327 69.9192L118.834 69.4263L121.976 66.3458L117.54 68.1325L117.17 67.7628L119.08 63.3269L115.938 66.4074L115.445 65.9145L119.265 62.1562Z" fill="#FFFDFD"/>
<path d="M122.714 68.44L123.145 68.9944L120.373 71.3357L119.941 70.7812L122.714 68.44ZM123.638 67.5158C123.761 67.4542 123.885 67.3926 124.008 67.3926C124.131 67.3926 124.254 67.4542 124.377 67.5774C124.439 67.7006 124.501 67.8239 124.501 67.9471C124.501 68.0703 124.439 68.1935 124.316 68.3167C124.193 68.3784 124.069 68.44 123.946 68.44C123.823 68.44 123.7 68.3783 123.576 68.2551C123.515 68.1319 123.453 68.0087 123.453 67.8855C123.453 67.7006 123.515 67.5774 123.638 67.5158Z" fill="#FFFDFD"/>
<path d="M124.315 71.9517C124.377 71.8285 124.377 71.7052 124.315 71.582C124.315 71.4588 124.254 71.3356 124.131 71.1507C124.007 71.0275 123.946 70.9043 123.823 70.9043C123.699 70.8427 123.576 70.8427 123.453 70.9659C123.391 71.0275 123.33 71.0891 123.33 71.2123C123.33 71.3356 123.33 71.3972 123.33 71.5204C123.33 71.6436 123.391 71.7052 123.453 71.8284C123.514 71.9517 123.515 72.0133 123.576 72.0749C123.638 72.1981 123.699 72.3213 123.699 72.5062C123.761 72.6294 123.761 72.7526 123.761 72.8758C123.761 72.9991 123.699 73.1223 123.638 73.2455C123.576 73.3687 123.453 73.492 123.33 73.5536C123.145 73.6768 123.022 73.7384 122.837 73.7384C122.652 73.7384 122.529 73.7384 122.344 73.6768C122.159 73.6152 122.036 73.5536 121.913 73.4303C121.789 73.3071 121.666 73.1839 121.543 73.0607C121.358 72.8142 121.235 72.5678 121.173 72.3213C121.112 72.0749 121.112 71.8284 121.235 71.5204L121.913 71.6436C121.913 71.8285 121.913 71.9517 121.913 72.1365C121.913 72.3213 121.974 72.4446 122.097 72.6294C122.159 72.691 122.221 72.7526 122.282 72.8142C122.344 72.8758 122.406 72.9375 122.467 72.9375C122.529 72.9991 122.59 72.9991 122.714 72.9991C122.775 72.9991 122.837 72.9991 122.898 72.9375C122.96 72.8758 123.022 72.8142 123.022 72.691C123.022 72.6294 123.022 72.5062 123.022 72.4446C123.022 72.3213 122.96 72.2597 122.898 72.1365C122.837 72.0133 122.837 71.9517 122.775 71.8901C122.714 71.7668 122.652 71.6436 122.59 71.4588C122.529 71.3356 122.529 71.2124 122.529 71.0891C122.529 70.9659 122.529 70.8427 122.59 70.7195C122.652 70.5962 122.714 70.473 122.898 70.4114C123.022 70.2882 123.206 70.2266 123.391 70.2266C123.576 70.2266 123.699 70.2266 123.884 70.2882C124.069 70.3498 124.192 70.4114 124.315 70.5346C124.439 70.6578 124.562 70.7811 124.685 70.9043C124.808 71.0891 124.932 71.3356 124.993 71.5204C125.055 71.7668 125.055 72.0133 124.932 72.1981L124.315 71.9517Z" fill="#FFFDFD"/>
<path d="M126.229 74.7254C126.291 74.6021 126.291 74.4789 126.291 74.3557C126.291 74.2325 126.229 74.0476 126.106 73.9244C126.044 73.8012 125.921 73.678 125.798 73.6164C125.675 73.5548 125.552 73.5548 125.428 73.6164C125.367 73.678 125.305 73.7396 125.244 73.8628C125.182 73.986 125.244 74.0477 125.244 74.1709C125.244 74.2941 125.305 74.3557 125.305 74.4789C125.305 74.6022 125.367 74.6638 125.428 74.7254C125.49 74.8486 125.552 75.0334 125.552 75.1566C125.552 75.2799 125.613 75.4031 125.552 75.5263C125.49 75.6495 125.49 75.7728 125.428 75.896C125.367 76.0192 125.244 76.0808 125.12 76.204C124.935 76.3273 124.812 76.3889 124.627 76.3889C124.443 76.3889 124.319 76.3889 124.135 76.3273C123.95 76.2656 123.826 76.1424 123.703 76.0192C123.58 75.896 123.457 75.7728 123.334 75.5879C123.149 75.3415 123.087 75.095 123.026 74.8486C122.964 74.6021 123.026 74.3557 123.087 74.0476L123.703 74.2325C123.703 74.4173 123.642 74.5405 123.642 74.7254C123.642 74.9102 123.703 75.0334 123.826 75.2183C123.888 75.2799 123.95 75.3415 124.011 75.4031C124.073 75.4647 124.135 75.5263 124.196 75.5263C124.258 75.5879 124.319 75.5879 124.381 75.5879C124.443 75.5879 124.504 75.5879 124.566 75.5263C124.627 75.4647 124.689 75.4031 124.751 75.2799C124.751 75.2183 124.751 75.095 124.751 75.0334C124.751 74.9102 124.689 74.8486 124.689 74.7254C124.689 74.6021 124.627 74.5405 124.566 74.4789C124.504 74.3557 124.443 74.1709 124.443 74.0476C124.381 73.9244 124.381 73.8012 124.381 73.678C124.381 73.5548 124.443 73.4315 124.504 73.3083C124.566 73.1851 124.689 73.0619 124.812 73.0003C124.997 72.877 125.12 72.8154 125.305 72.8154C125.49 72.8154 125.613 72.8154 125.798 72.877C125.921 72.9387 126.106 73.0003 126.229 73.1235C126.353 73.2467 126.476 73.3699 126.537 73.4932C126.661 73.678 126.784 73.9244 126.784 74.1709C126.845 74.4173 126.784 74.6637 126.722 74.8486L126.229 74.7254Z" fill="#FFFDFD"/>
<path d="M127.831 75.5256L128.2 76.1417L125.12 77.9901L124.75 77.374L127.831 75.5256ZM128.878 74.7247C129.001 74.6631 129.124 74.6631 129.248 74.6631C129.371 74.6631 129.494 74.7863 129.556 74.9095C129.617 75.0327 129.617 75.156 129.617 75.2792C129.617 75.4024 129.494 75.5256 129.371 75.5872C129.248 75.6489 129.124 75.6489 129.001 75.6489C128.878 75.6489 128.755 75.5256 128.693 75.4024C128.631 75.2792 128.631 75.156 128.631 75.0328C128.631 74.9095 128.755 74.7863 128.878 74.7247Z" fill="#FFFDFD"/>
<path d="M127.091 77.805C127.338 77.6817 127.584 77.6201 127.831 77.6201C128.077 77.6201 128.323 77.6201 128.57 77.6817C128.816 77.7433 129.001 77.8666 129.186 78.0514C129.371 78.2362 129.556 78.4211 129.679 78.6675C129.802 78.914 129.864 79.1604 129.925 79.4068C129.925 79.6533 129.925 79.8997 129.864 80.1462C129.802 80.3926 129.679 80.5774 129.494 80.7623C129.309 80.9471 129.124 81.132 128.94 81.2552C128.755 81.3784 128.447 81.44 128.2 81.44C127.954 81.44 127.707 81.44 127.461 81.3784C127.214 81.3168 127.03 81.1936 126.845 81.0087C126.66 80.8239 126.475 80.6391 126.352 80.3926C126.229 80.1462 126.167 79.8997 126.105 79.6533C126.105 79.4068 126.105 79.1604 126.167 78.914C126.229 78.6675 126.352 78.4827 126.537 78.2978C126.722 78.113 126.906 77.9282 127.091 77.805ZM127.461 78.4211C127.276 78.4827 127.153 78.6059 127.03 78.7291C126.906 78.8523 126.845 78.9756 126.783 79.0988C126.722 79.222 126.722 79.4068 126.722 79.5301C126.722 79.6533 126.783 79.8381 126.845 80.023C126.906 80.2078 127.03 80.331 127.153 80.3926C127.276 80.5158 127.399 80.5775 127.584 80.5775C127.707 80.6391 127.892 80.6391 128.015 80.5775C128.2 80.5775 128.323 80.5158 128.508 80.3926C128.693 80.331 128.816 80.2078 128.94 80.0846C129.063 79.9613 129.124 79.8381 129.186 79.7149C129.248 79.5917 129.248 79.4068 129.248 79.2836C129.248 79.1604 129.186 78.9756 129.124 78.7907C129.063 78.6059 128.94 78.4827 128.816 78.4211C128.693 78.2978 128.57 78.2362 128.385 78.2362C128.262 78.1746 128.077 78.1746 127.954 78.2362C127.831 78.2978 127.646 78.3595 127.461 78.4211Z" fill="#FFFDFD"/>
<path d="M130.912 81.1953L131.158 81.8114L130.666 82.0579C130.85 82.0579 131.097 82.1195 131.282 82.3043C131.467 82.4275 131.651 82.674 131.713 82.9204C131.775 83.1052 131.836 83.2285 131.836 83.4133C131.836 83.5981 131.836 83.7214 131.775 83.9062C131.713 84.0294 131.651 84.2143 131.467 84.3375C131.343 84.4607 131.158 84.5839 130.912 84.7071L128.756 85.6313L128.509 85.0152L130.481 84.1526C130.604 84.091 130.727 84.0294 130.85 83.9062C130.912 83.8446 131.035 83.7214 131.035 83.5981C131.097 83.4749 131.097 83.4133 131.097 83.2901C131.097 83.1669 131.035 83.1052 131.035 82.982C130.974 82.8588 130.912 82.7356 130.789 82.674C130.727 82.5507 130.604 82.4891 130.481 82.4891C130.358 82.4275 130.234 82.4275 130.049 82.4275C129.865 82.4275 129.741 82.4891 129.495 82.5507L127.77 83.2901L127.523 82.674L130.912 81.1953Z" fill="#FFFDFD"/>
<path d="M39.5408 137.506L40.773 138.923C40.8962 139.108 41.0194 139.293 41.1426 139.477C41.2042 139.662 41.2659 139.847 41.2659 140.032C41.2659 140.217 41.2659 140.402 41.2043 140.586C41.1426 140.771 41.0194 140.894 40.8346 141.079C40.5881 141.264 40.3417 141.387 40.0953 141.387C39.8488 141.387 39.6024 141.326 39.3559 141.141C39.4791 141.264 39.5408 141.387 39.5408 141.572C39.6024 141.695 39.6024 141.88 39.5408 142.065C39.5408 142.25 39.4791 142.373 39.4175 142.496C39.3559 142.62 39.2327 142.804 39.1095 142.866C38.9246 143.051 38.7398 143.112 38.555 143.174C38.3701 143.236 38.1237 143.236 37.9389 143.174C37.754 143.112 37.5076 143.051 37.3228 142.928C37.1379 142.804 36.9531 142.62 36.7683 142.435L35.5977 141.079L39.5408 137.506ZM36.4602 141.141L37.1379 141.942C37.1995 142.003 37.3228 142.127 37.3844 142.188C37.446 142.25 37.6308 142.312 37.754 142.373C37.8773 142.435 38.0005 142.435 38.1237 142.435C38.2469 142.435 38.4318 142.373 38.555 142.25C38.8014 142.065 38.9246 141.819 38.863 141.572C38.863 141.326 38.7398 141.079 38.4934 140.771L37.8156 139.97L36.4602 141.141ZM38.3701 139.477L38.9863 140.217C39.0479 140.34 39.1711 140.402 39.2943 140.463C39.4175 140.525 39.4791 140.586 39.6024 140.586C39.7256 140.586 39.8488 140.586 39.9104 140.586C40.0336 140.586 40.1569 140.525 40.2185 140.402C40.4033 140.278 40.4649 140.094 40.5265 139.909C40.5265 139.724 40.4649 139.477 40.2801 139.293L39.5408 138.43L38.3701 139.477Z" fill="#FFFDFD"/>
<path d="M39.8475 143.177C40.0323 142.992 40.2171 142.869 40.4636 142.745C40.71 142.622 40.9565 142.622 41.1413 142.622C41.3261 142.622 41.6342 142.684 41.8806 142.745C42.1271 142.807 42.3119 142.992 42.4967 143.177C42.6816 143.361 42.8048 143.546 42.928 143.793C43.0512 144.039 43.0512 144.286 43.0512 144.532C43.0512 144.778 42.9896 145.025 42.928 145.21C42.8664 145.395 42.6816 145.641 42.4967 145.826C42.3119 146.011 42.1271 146.134 41.8806 146.257C41.6342 146.38 41.3877 146.38 41.2029 146.38C41.0181 146.38 40.71 146.319 40.4636 146.257C40.2171 146.196 40.0323 146.011 39.8475 145.826C39.6626 145.641 39.5394 145.456 39.4162 145.21C39.293 144.963 39.293 144.717 39.293 144.532C39.293 144.347 39.3546 144.039 39.4162 143.854C39.4778 143.546 39.6626 143.361 39.8475 143.177ZM40.3404 143.669C40.2171 143.793 40.0939 143.916 40.0323 144.101C39.9707 144.286 39.9091 144.409 39.9091 144.532C39.9091 144.655 39.9091 144.84 39.9707 144.963C40.0323 145.087 40.1555 145.271 40.2787 145.395C40.402 145.518 40.5252 145.641 40.71 145.641C40.8332 145.703 41.0181 145.703 41.1413 145.703C41.2645 145.703 41.4494 145.641 41.5726 145.579C41.6958 145.518 41.8806 145.395 42.0038 145.271C42.1271 145.148 42.2503 145.025 42.3119 144.84C42.3735 144.655 42.4351 144.532 42.4351 144.409C42.4351 144.286 42.4351 144.101 42.3735 143.978C42.3119 143.854 42.1887 143.669 42.0655 143.546C41.9422 143.423 41.819 143.3 41.6342 143.3C41.511 143.238 41.3261 143.238 41.2029 143.238C41.0797 143.238 40.8949 143.3 40.7716 143.361C40.5868 143.423 40.4636 143.546 40.3404 143.669Z" fill="#FFFDFD"/>
<path d="M45.8247 143.482L46.3176 143.914L42.5593 148.226L42.0664 147.795L45.8247 143.482Z" fill="#FFFDFD"/>
<path d="M44.4694 147.55C44.6542 147.365 44.8391 147.18 45.0239 147.057C45.2087 146.934 45.4552 146.872 45.7016 146.811C45.9481 146.811 46.1945 146.811 46.441 146.872C46.6874 146.934 46.9338 147.057 47.1187 147.242C47.3035 147.427 47.4883 147.611 47.6116 147.796C47.7348 148.043 47.7964 148.228 47.858 148.474C47.858 148.72 47.858 148.967 47.7964 149.213C47.7348 149.46 47.6116 149.645 47.4883 149.891C47.3035 150.076 47.1187 150.261 46.9338 150.384C46.6874 150.507 46.5026 150.569 46.2561 150.63C46.0097 150.63 45.7632 150.63 45.5168 150.569C45.2703 150.507 45.0239 150.384 44.8391 150.199C44.6542 150.014 44.4694 149.829 44.3462 149.645C44.223 149.398 44.1613 149.213 44.0997 148.967C44.0381 148.72 44.0997 148.474 44.1614 148.228C44.223 147.981 44.3462 147.735 44.4694 147.55ZM45.0855 147.981C44.9623 148.104 44.9007 148.289 44.8391 148.412C44.7775 148.536 44.7775 148.72 44.7775 148.844C44.7775 148.967 44.8391 149.152 44.9007 149.275C44.9623 149.398 45.0855 149.521 45.2087 149.645C45.332 149.768 45.5168 149.829 45.64 149.891C45.7632 149.953 45.9481 149.953 46.0713 149.891C46.1945 149.829 46.3793 149.829 46.5026 149.706C46.6258 149.645 46.749 149.521 46.8722 149.337C46.9955 149.213 47.0571 149.029 47.1187 148.905C47.1803 148.72 47.1803 148.597 47.1803 148.474C47.1803 148.351 47.1187 148.166 47.0571 148.043C46.9955 147.92 46.8722 147.796 46.749 147.673C46.6258 147.55 46.441 147.488 46.3177 147.427C46.1945 147.365 46.0097 147.365 45.8865 147.427C45.7632 147.427 45.5784 147.488 45.4552 147.611C45.332 147.735 45.1471 147.796 45.0855 147.981Z" fill="#FFFDFD"/>
<path d="M52.0489 148.596L52.6651 148.965L49.831 153.463L49.2148 153.093L52.0489 148.596Z" fill="#FFFDFD"/>
<path d="M52.6635 151.124L53.2796 151.432L53.0332 151.925C53.218 151.802 53.4028 151.74 53.6493 151.74C53.8957 151.74 54.1422 151.802 54.3886 151.925C54.5118 151.987 54.6967 152.11 54.7583 152.233C54.8815 152.356 54.9431 152.479 55.0047 152.664C55.0663 152.788 55.0663 152.972 55.0663 153.157C55.0663 153.342 55.0047 153.527 54.8815 153.773L53.7725 155.806L53.1564 155.498L54.1422 153.65C54.2038 153.527 54.2654 153.342 54.2654 153.219C54.2654 153.096 54.2654 152.972 54.2654 152.911C54.2038 152.788 54.2038 152.726 54.1422 152.664C54.0805 152.603 54.0189 152.541 53.8957 152.479C53.7725 152.418 53.6493 152.356 53.526 152.356C53.4028 152.356 53.2796 152.356 53.1564 152.418C53.0332 152.479 52.9099 152.541 52.7867 152.664C52.6635 152.788 52.5403 152.911 52.4787 153.096L51.6161 154.697L51 154.389L52.6635 151.124Z" fill="#FFFDFD"/>
<path d="M58.0862 157.776L57.4701 157.468L57.6549 156.975C57.4701 157.099 57.2236 157.16 56.9772 157.16C56.7307 157.16 56.4843 157.099 56.2995 157.037C56.053 156.914 55.8682 156.791 55.6834 156.606C55.4985 156.421 55.3753 156.236 55.3137 155.99C55.2521 155.743 55.1905 155.558 55.2521 155.312C55.2521 155.065 55.3137 154.819 55.4369 154.573C55.5601 154.326 55.6834 154.141 55.8682 153.956C56.053 153.772 56.2379 153.648 56.4227 153.587C56.6075 153.525 56.854 153.464 57.1004 153.464C57.3469 153.464 57.5933 153.525 57.8397 153.648C58.0862 153.772 58.271 153.895 58.4559 154.08C58.6407 154.265 58.7023 154.449 58.7639 154.696L59.8729 152.293L60.489 152.601L58.0862 157.776ZM56.6691 156.544C56.854 156.606 56.9772 156.667 57.162 156.667C57.3469 156.667 57.4701 156.667 57.5933 156.606C57.7165 156.544 57.8397 156.483 57.963 156.359C58.0862 156.236 58.1478 156.113 58.271 155.928C58.3942 155.743 58.3942 155.62 58.3942 155.435C58.3942 155.25 58.3942 155.127 58.3326 155.004C58.271 154.881 58.2094 154.757 58.0862 154.634C57.963 154.511 57.8397 154.449 57.6549 154.326C57.4701 154.203 57.3469 154.203 57.162 154.203C56.9772 154.203 56.854 154.203 56.7307 154.265C56.6075 154.326 56.4843 154.388 56.3611 154.511C56.2379 154.634 56.1762 154.757 56.053 154.942C55.9298 155.127 55.9298 155.25 55.9298 155.435C55.9298 155.62 55.9298 155.743 55.9914 155.866C56.053 155.99 56.1146 156.113 56.2379 156.236C56.3611 156.359 56.4843 156.483 56.6691 156.544Z" fill="#FFFDFD"/>
<path d="M60.5516 154.882L61.1678 155.129L59.8739 158.456L59.2578 158.209L60.5516 154.882ZM60.8597 153.65C60.9213 153.527 60.9829 153.404 61.1061 153.404C61.2294 153.342 61.3526 153.342 61.4758 153.404C61.599 153.465 61.7222 153.527 61.7222 153.65C61.7222 153.773 61.7839 153.897 61.7222 154.02C61.6606 154.143 61.599 154.266 61.4758 154.266C61.3526 154.266 61.2294 154.328 61.1061 154.266C60.9829 154.205 60.8597 154.143 60.8597 154.02C60.7981 153.897 60.7981 153.773 60.8597 153.65Z" fill="#FFFDFD"/>
<path d="M62.0257 155.929C62.2722 155.806 62.5186 155.744 62.7651 155.744C63.0115 155.744 63.2579 155.744 63.5044 155.867C63.7508 155.929 63.9357 156.052 64.1205 156.175C64.3053 156.299 64.4286 156.422 64.4902 156.545C64.5518 156.668 64.6134 156.853 64.6134 156.976C64.6134 157.1 64.6134 157.284 64.5518 157.408L63.9973 159.133C63.9357 159.256 63.9357 159.379 63.8741 159.441C63.8741 159.564 63.8124 159.626 63.8124 159.749L63.2579 159.564C63.3196 159.379 63.3196 159.194 63.3812 159.071C63.1963 159.256 62.9499 159.318 62.7034 159.379C62.457 159.379 62.2106 159.379 61.9641 159.318C61.7793 159.256 61.6561 159.194 61.5328 159.133C61.4096 159.071 61.2864 158.948 61.2248 158.825C61.1632 158.701 61.1016 158.578 61.1016 158.393C61.1016 158.27 61.1016 158.085 61.1632 157.901C61.2248 157.654 61.348 157.531 61.4712 157.408C61.5945 157.284 61.7793 157.223 61.9641 157.161C62.1489 157.1 62.3954 157.1 62.6418 157.161C62.8883 157.223 63.1347 157.223 63.3812 157.346L63.8741 157.469L63.9357 157.346C63.9357 157.284 63.9973 157.161 63.9973 157.1C63.9973 156.976 63.9357 156.915 63.9357 156.792C63.8741 156.73 63.8124 156.607 63.7508 156.545C63.6892 156.483 63.566 156.422 63.4428 156.36C63.3196 156.299 63.1963 156.299 63.1347 156.299C63.0115 156.299 62.9499 156.299 62.8267 156.299C62.7034 156.299 62.6418 156.299 62.5802 156.36C62.5186 156.36 62.457 156.422 62.3338 156.422L62.0257 155.929ZM63.3812 157.839C63.2579 157.777 63.0731 157.777 62.8883 157.716C62.7034 157.654 62.5802 157.654 62.3954 157.654C62.2722 157.654 62.1489 157.716 62.0257 157.777C61.9025 157.839 61.8409 157.962 61.7793 158.085C61.7177 158.27 61.7177 158.455 61.8409 158.578C61.9641 158.701 62.0873 158.825 62.3338 158.886C62.5186 158.948 62.6418 158.948 62.8267 158.948C62.9499 158.948 63.0731 158.886 63.1963 158.825C63.3196 158.763 63.3812 158.64 63.4428 158.578C63.5044 158.517 63.566 158.332 63.6276 158.27L63.6892 158.085L63.3812 157.839Z" fill="#FFFDFD"/>
<path d="M67.6367 158.023C67.6983 157.838 67.7599 157.653 67.8215 157.53C67.9448 157.407 68.068 157.284 68.1912 157.16C68.3144 157.037 68.4993 156.976 68.6841 156.976C68.8689 156.976 69.0538 156.914 69.2386 156.976C69.4234 157.037 69.6083 157.099 69.7315 157.16C69.8547 157.284 69.9779 157.407 70.1012 157.53C70.2244 157.653 70.286 157.838 70.286 158.023C70.3476 158.208 70.3476 158.393 70.286 158.578C70.2244 158.762 70.1628 158.947 70.1012 159.07C69.9779 159.194 69.8547 159.317 69.7315 159.44C69.6083 159.563 69.4234 159.625 69.2386 159.625C69.0538 159.625 68.8689 159.686 68.6841 159.625C68.4993 159.563 68.3144 159.502 68.1912 159.44C68.068 159.378 67.9448 159.194 67.8215 159.07C67.6983 158.947 67.6367 158.762 67.6367 158.578C67.6367 158.393 67.6367 158.208 67.6367 158.023Z" fill="#FFFDFD"/>
<path d="M73.7985 156.36L75.6468 156.545C75.8932 156.545 76.0781 156.607 76.2629 156.668C76.4477 156.73 76.6326 156.853 76.7558 156.976C76.879 157.1 77.0022 157.223 77.0638 157.408C77.1255 157.593 77.1871 157.777 77.1255 158.024C77.1255 158.332 77.0022 158.578 76.8174 158.763C76.6326 158.948 76.3861 159.071 76.1397 159.133C76.3245 159.133 76.4477 159.194 76.571 159.318C76.6942 159.379 76.8174 159.503 76.9406 159.626C77.0638 159.749 77.1255 159.872 77.1255 160.057C77.1255 160.242 77.1871 160.365 77.1871 160.55C77.1871 160.796 77.1255 160.981 77.0022 161.166C76.879 161.351 76.7558 161.474 76.571 161.597C76.3861 161.721 76.2013 161.782 75.9548 161.844C75.7084 161.905 75.462 161.905 75.2155 161.905L73.3672 161.72L73.7985 156.36ZM74.1065 161.104L75.1539 161.228C75.2771 161.228 75.4003 161.228 75.5236 161.228C75.6468 161.228 75.77 161.166 75.8932 161.104C76.0165 161.043 76.1397 160.981 76.2013 160.858C76.2629 160.735 76.3245 160.612 76.3861 160.427C76.3861 160.119 76.3245 159.872 76.1397 159.687C75.9548 159.503 75.6468 159.441 75.3387 159.379L74.2914 159.318L74.1065 161.104ZM74.2914 158.64L75.2771 158.702C75.4003 158.702 75.5236 158.702 75.6468 158.702C75.77 158.702 75.8932 158.64 75.9548 158.578C76.0781 158.517 76.1397 158.455 76.2013 158.332C76.2629 158.209 76.3245 158.085 76.3245 157.962C76.3245 157.777 76.2629 157.593 76.1397 157.408C76.0165 157.223 75.8316 157.161 75.5236 157.1L74.4146 156.976L74.2914 158.64Z" fill="#FFFDFD"/>
<path d="M78.1076 158.456H78.7853V159.011C78.8469 158.887 78.9085 158.826 78.9701 158.764C79.0318 158.703 79.155 158.641 79.2166 158.579C79.3398 158.518 79.4014 158.456 79.5246 158.456C79.6479 158.456 79.7711 158.395 79.8327 158.395C79.9559 158.395 80.0175 158.395 80.1408 158.456L80.0791 159.195C80.0175 159.195 79.9559 159.195 79.8943 159.134C79.8327 159.134 79.7711 159.134 79.7095 159.134C79.4014 159.134 79.0934 159.195 78.9701 159.38C78.8469 159.565 78.7237 159.873 78.6621 160.243V162.03H77.9844L78.1076 158.456Z" fill="#FFFDFD"/>
<path d="M80.6367 160.304C80.6367 160.057 80.6367 159.811 80.7599 159.564C80.8215 159.318 80.9448 159.133 81.1296 158.948C81.3144 158.763 81.4993 158.64 81.6841 158.517C81.8689 158.394 82.177 158.332 82.4234 158.332C82.6699 158.332 82.9163 158.332 83.1628 158.455C83.4092 158.517 83.594 158.64 83.7789 158.825C83.9637 159.01 84.0869 159.195 84.2101 159.379C84.3334 159.564 84.395 159.872 84.395 160.119C84.395 160.365 84.395 160.612 84.2718 160.858C84.2102 161.105 84.0869 161.289 83.9021 161.474C83.7173 161.659 83.5324 161.782 83.3476 161.905C83.1628 162.029 82.8547 162.09 82.6083 162.09C82.3618 162.09 82.1154 162.09 81.8689 161.967C81.6225 161.905 81.4377 161.782 81.2528 161.597C81.068 161.413 80.9448 161.228 80.8215 161.043C80.6983 160.796 80.6367 160.55 80.6367 160.304ZM81.376 160.242C81.376 160.427 81.4377 160.612 81.4993 160.735C81.5609 160.858 81.6225 160.981 81.7457 161.105C81.8689 161.228 81.9922 161.289 82.1154 161.351C82.2386 161.413 82.4234 161.413 82.6083 161.413C82.7931 161.413 82.9779 161.351 83.1012 161.289C83.2244 161.228 83.3476 161.105 83.4708 161.043C83.594 160.92 83.6557 160.796 83.6557 160.612C83.7173 160.427 83.7173 160.304 83.7173 160.119C83.7173 159.934 83.6557 159.749 83.594 159.626C83.5324 159.503 83.4708 159.379 83.3476 159.256C83.2244 159.133 83.1012 159.071 82.9779 159.01C82.8547 158.948 82.6699 158.948 82.485 158.948C82.3002 158.948 82.1154 159.01 81.9922 159.071C81.8689 159.133 81.7457 159.256 81.6225 159.318C81.4993 159.379 81.4377 159.564 81.4377 159.749C81.376 159.934 81.376 160.057 81.376 160.242Z" fill="#FFFDFD"/>
<path d="M85.1328 158.27L85.8105 158.208L85.8721 158.763C85.9338 158.578 86.057 158.393 86.2418 158.27C86.4266 158.147 86.6731 158.023 86.9195 158.023C87.1044 158.023 87.2276 158.023 87.4124 158.023C87.5973 158.085 87.7205 158.147 87.8437 158.208C87.9669 158.332 88.0901 158.455 88.1517 158.578C88.2134 158.701 88.275 158.948 88.3366 159.194L88.6446 161.474L87.9669 161.535L87.7205 159.44C87.7205 159.256 87.6589 159.132 87.5972 159.009C87.5356 158.886 87.474 158.824 87.4124 158.763C87.3508 158.701 87.2276 158.64 87.1044 158.64C86.9811 158.64 86.9195 158.64 86.7963 158.64C86.6731 158.64 86.5499 158.701 86.4266 158.763C86.3034 158.824 86.2418 158.886 86.1186 159.009C85.9954 159.132 85.9954 159.256 85.9338 159.379C85.8721 159.564 85.8721 159.687 85.9338 159.933L86.1802 161.782L85.5025 161.843L85.1328 158.27Z" fill="#FFFDFD"/>
<path d="M89.5046 160.611L91.0449 157.9L89.1349 158.27L89.0117 157.716L91.7226 157.161L91.8458 157.777L90.3055 160.488L92.4003 160.057L92.5235 160.611L89.6278 161.166L89.5046 160.611Z" fill="#FFFDFD"/>
<path d="M93.5735 158.826C93.6351 158.949 93.6967 159.134 93.7583 159.196C93.8815 159.319 93.9432 159.38 94.128 159.442C94.2512 159.504 94.3744 159.565 94.5593 159.565C94.6825 159.565 94.8673 159.565 94.9905 159.504C95.1754 159.442 95.3602 159.38 95.4834 159.196C95.6067 159.072 95.7299 158.887 95.7915 158.703L96.4076 158.949C96.1611 159.504 95.7299 159.873 95.0522 160.058C94.8057 160.12 94.4977 160.181 94.2512 160.12C94.0048 160.058 93.7583 159.996 93.5735 159.873C93.3887 159.75 93.2038 159.565 93.0806 159.38C92.9574 159.196 92.8342 158.949 92.7725 158.703C92.7109 158.456 92.7109 158.21 92.7109 157.963C92.7109 157.717 92.8342 157.47 92.8958 157.286C92.9574 157.101 93.1422 156.916 93.327 156.731C93.5119 156.608 93.7583 156.485 94.0048 156.423C94.3128 156.361 94.5593 156.3 94.8057 156.361C95.0522 156.423 95.237 156.485 95.4218 156.608C95.6067 156.731 95.7299 156.916 95.8531 157.101C95.9763 157.286 96.0379 157.532 96.0995 157.717L96.1611 157.963L93.5735 158.826ZM95.4834 157.717C95.4218 157.594 95.3602 157.47 95.2986 157.347C95.237 157.224 95.1138 157.162 95.0522 157.101C94.9289 157.039 94.8057 156.978 94.6825 156.978C94.5593 156.978 94.3744 156.978 94.2512 157.039C94.0664 157.101 93.9432 157.162 93.8199 157.224C93.6967 157.286 93.6351 157.409 93.5735 157.532C93.5119 157.655 93.4503 157.779 93.4503 157.902C93.4503 158.025 93.4503 158.148 93.4503 158.271L95.4834 157.717Z" fill="#FFFDFD"/>
<path d="M97.2734 153.773L98.0744 153.465L101.155 156.915L101.032 152.294L101.771 151.986L101.833 157.716L101.217 157.963L97.2734 153.773Z" fill="#FFFDFD"/>
<path d="M102.57 153.958C102.694 153.711 102.817 153.527 103.002 153.28C103.186 153.034 103.371 152.91 103.618 152.849C103.864 152.726 104.049 152.664 104.295 152.664C104.48 152.664 104.665 152.664 104.85 152.664C105.035 152.726 105.158 152.787 105.281 152.911C105.404 153.034 105.466 153.157 105.528 153.28L106.329 154.882C106.39 155.005 106.452 155.067 106.513 155.19C106.575 155.313 106.637 155.375 106.637 155.437L106.082 155.683C105.959 155.498 105.897 155.375 105.836 155.19C105.774 155.437 105.712 155.683 105.589 155.868C105.466 156.053 105.281 156.176 105.035 156.299C104.912 156.361 104.727 156.422 104.603 156.422C104.419 156.422 104.295 156.422 104.172 156.422C104.049 156.422 103.926 156.361 103.803 156.237C103.679 156.114 103.618 156.053 103.494 155.868C103.371 155.683 103.371 155.437 103.371 155.252C103.371 155.067 103.494 154.882 103.556 154.697C103.618 154.512 103.803 154.389 104.049 154.204C104.234 154.081 104.48 153.958 104.727 153.835L105.158 153.588L105.096 153.465C105.035 153.403 104.973 153.342 104.912 153.219C104.85 153.157 104.727 153.095 104.665 153.095C104.542 153.034 104.48 153.034 104.357 153.034C104.234 153.034 104.111 153.095 103.987 153.157C103.864 153.219 103.803 153.28 103.679 153.342C103.618 153.403 103.556 153.465 103.494 153.527C103.433 153.588 103.371 153.65 103.371 153.711C103.371 153.773 103.31 153.835 103.248 153.896L102.57 153.958ZM104.912 154.389C104.788 154.451 104.603 154.512 104.48 154.636C104.357 154.697 104.234 154.82 104.111 154.944C103.987 155.067 103.926 155.19 103.926 155.313C103.926 155.437 103.926 155.56 103.987 155.683C104.049 155.868 104.234 155.991 104.357 155.991C104.542 155.991 104.727 155.991 104.912 155.868C105.096 155.806 105.22 155.683 105.281 155.56C105.343 155.437 105.404 155.313 105.466 155.19C105.466 155.067 105.466 154.944 105.466 154.82C105.466 154.697 105.404 154.574 105.343 154.451L105.22 154.266L104.912 154.389Z" fill="#FFFDFD"/>
<path d="M104.785 149.953L105.401 149.645L108.174 154.635L107.558 154.943L104.785 149.953Z" fill="#FFFDFD"/>
<path d="M106.573 149.893C106.512 149.769 106.512 149.646 106.512 149.523C106.573 149.4 106.635 149.277 106.758 149.215C106.881 149.153 107.005 149.153 107.128 149.153C107.251 149.215 107.374 149.277 107.436 149.4C107.497 149.523 107.497 149.646 107.497 149.769C107.436 149.893 107.374 150.016 107.251 150.077C107.128 150.139 107.005 150.139 106.881 150.139C106.758 150.077 106.697 150.016 106.573 149.893ZM107.374 150.878L107.929 150.509L109.777 153.589L109.223 153.959L107.374 150.878Z" fill="#FFFDFD"/>
<path d="M113.846 150.938L113.292 151.308L112.984 150.877C112.984 151.123 112.922 151.308 112.799 151.554C112.676 151.801 112.491 151.924 112.306 152.109C112.059 152.294 111.875 152.355 111.628 152.417C111.382 152.479 111.135 152.479 110.95 152.417C110.704 152.355 110.519 152.294 110.334 152.109C110.149 151.986 109.965 151.801 109.78 151.554C109.595 151.308 109.533 151.123 109.472 150.877C109.41 150.63 109.41 150.384 109.41 150.199C109.472 149.953 109.533 149.768 109.657 149.521C109.78 149.336 109.965 149.152 110.211 148.967C110.396 148.844 110.642 148.72 110.889 148.72C111.135 148.659 111.382 148.72 111.567 148.782L110.088 146.626L110.642 146.256L113.846 150.938ZM111.998 151.554C112.121 151.431 112.244 151.308 112.367 151.185C112.429 151.062 112.491 150.938 112.552 150.753C112.552 150.63 112.552 150.445 112.552 150.322C112.491 150.137 112.429 150.014 112.306 149.891C112.183 149.768 112.059 149.644 111.936 149.521C111.813 149.398 111.69 149.336 111.505 149.336C111.382 149.275 111.197 149.275 111.074 149.336C110.889 149.398 110.766 149.46 110.642 149.521C110.519 149.644 110.396 149.768 110.273 149.891C110.211 150.014 110.149 150.137 110.088 150.322C110.088 150.445 110.088 150.63 110.088 150.753C110.149 150.938 110.211 151.062 110.334 151.185C110.458 151.308 110.581 151.431 110.704 151.554C110.827 151.678 110.95 151.739 111.135 151.739C111.258 151.801 111.443 151.801 111.567 151.739C111.69 151.739 111.875 151.616 111.998 151.554Z" fill="#FFFDFD"/>
<path d="M112.855 147.734C112.917 147.488 112.979 147.241 113.102 146.995C113.225 146.748 113.41 146.563 113.595 146.44C113.78 146.255 113.964 146.132 114.149 146.071C114.334 146.009 114.519 145.947 114.704 146.009C114.889 146.009 115.012 146.071 115.135 146.132C115.258 146.194 115.382 146.317 115.505 146.44L116.675 147.857C116.737 147.98 116.799 148.042 116.922 148.104C117.045 148.165 117.045 148.227 117.107 148.35L116.614 148.72C116.491 148.597 116.367 148.473 116.244 148.289C116.244 148.535 116.244 148.781 116.121 149.028C115.998 149.213 115.874 149.398 115.628 149.582C115.505 149.706 115.382 149.767 115.197 149.829C115.073 149.89 114.889 149.89 114.765 149.89C114.642 149.89 114.457 149.89 114.334 149.829C114.211 149.767 114.088 149.644 113.964 149.521C113.841 149.336 113.718 149.151 113.718 148.966C113.718 148.781 113.718 148.597 113.78 148.412C113.841 148.227 113.964 148.042 114.149 147.857C114.334 147.672 114.519 147.488 114.704 147.303L115.073 146.995L114.95 146.871C114.889 146.81 114.827 146.748 114.765 146.687C114.704 146.625 114.581 146.625 114.519 146.625C114.457 146.625 114.334 146.625 114.211 146.687C114.088 146.748 113.964 146.81 113.903 146.871C113.78 146.933 113.718 147.056 113.656 147.118C113.595 147.18 113.533 147.303 113.533 147.364C113.472 147.426 113.472 147.549 113.472 147.611C113.472 147.672 113.41 147.796 113.41 147.857L112.855 147.734ZM115.197 147.611C115.073 147.734 114.95 147.796 114.827 147.919C114.704 148.042 114.581 148.165 114.519 148.289C114.457 148.412 114.396 148.535 114.396 148.658C114.396 148.781 114.396 148.905 114.519 149.028C114.642 149.213 114.765 149.274 114.95 149.213C115.135 149.151 115.258 149.089 115.443 148.966C115.566 148.843 115.69 148.72 115.751 148.597C115.813 148.473 115.813 148.35 115.813 148.227C115.813 148.104 115.813 147.98 115.751 147.857C115.69 147.734 115.628 147.611 115.566 147.549L115.443 147.364L115.197 147.611Z" fill="#FFFDFD"/>
<path d="M117.355 144.099L116.615 144.777L117.724 145.948C117.786 146.009 117.848 146.071 117.909 146.132C117.971 146.194 118.032 146.256 118.156 146.317C118.217 146.379 118.34 146.379 118.402 146.379C118.464 146.379 118.587 146.317 118.649 146.256C118.71 146.194 118.772 146.132 118.833 146.071C118.895 146.009 118.895 145.948 118.957 145.824L119.388 146.256C119.388 146.317 119.326 146.44 119.203 146.564C119.141 146.687 119.08 146.749 119.018 146.81C118.833 146.995 118.649 147.118 118.525 147.118C118.34 147.18 118.217 147.18 118.094 147.118C117.971 147.057 117.848 146.995 117.724 146.933C117.601 146.872 117.54 146.749 117.416 146.625L116.184 145.27L115.63 145.824L115.26 145.393L115.814 144.839L115.137 144.099L115.63 143.668L116.307 144.407L117.047 143.73L117.355 144.099Z" fill="#FFFDFD"/>
<path d="M118.711 144.468C118.526 144.284 118.403 144.099 118.279 143.852C118.156 143.606 118.156 143.421 118.156 143.175C118.156 142.928 118.218 142.682 118.279 142.435C118.341 142.189 118.526 142.004 118.711 141.819C118.896 141.634 119.08 141.511 119.327 141.388C119.573 141.265 119.82 141.265 120.005 141.203C120.251 141.203 120.497 141.265 120.682 141.326C120.929 141.388 121.114 141.573 121.298 141.696C121.483 141.881 121.606 142.066 121.73 142.312C121.853 142.559 121.853 142.805 121.853 142.99C121.853 143.236 121.791 143.483 121.73 143.729C121.668 143.976 121.483 144.16 121.298 144.345C121.114 144.53 120.929 144.653 120.682 144.777C120.436 144.9 120.189 144.9 120.005 144.961C119.82 145.023 119.512 144.9 119.327 144.838C119.08 144.777 118.896 144.653 118.711 144.468ZM119.204 143.976C119.327 144.099 119.45 144.222 119.635 144.284C119.758 144.345 119.943 144.407 120.066 144.407C120.189 144.407 120.374 144.407 120.497 144.345C120.621 144.284 120.806 144.16 120.929 144.037C121.052 143.914 121.114 143.791 121.175 143.606C121.237 143.483 121.237 143.298 121.237 143.175C121.237 143.051 121.175 142.867 121.114 142.743C121.052 142.62 120.929 142.435 120.806 142.312C120.682 142.189 120.559 142.066 120.374 142.004C120.251 141.942 120.066 141.881 119.943 141.881C119.82 141.881 119.635 141.881 119.512 141.942C119.388 142.004 119.204 142.127 119.08 142.251C118.957 142.374 118.896 142.497 118.834 142.682C118.772 142.805 118.772 142.99 118.772 143.113C118.772 143.236 118.834 143.421 118.896 143.544C118.957 143.668 119.08 143.791 119.204 143.976Z" fill="#FFFDFD"/>
<path d="M120.559 139.849L120.99 139.356L121.421 139.726C121.36 139.602 121.36 139.541 121.36 139.418C121.36 139.294 121.36 139.233 121.36 139.11C121.36 138.986 121.421 138.925 121.483 138.801C121.544 138.678 121.606 138.617 121.668 138.493C121.729 138.37 121.791 138.37 121.914 138.309L122.469 138.801C122.407 138.863 122.407 138.863 122.345 138.925C122.284 138.986 122.284 138.986 122.222 139.048C122.037 139.294 121.914 139.541 121.976 139.787C122.037 140.034 122.16 140.28 122.469 140.527L123.824 141.697L123.393 142.19L120.559 139.849Z" fill="#FFFDFD"/>
</g>
<defs>
<filter id="filter0_d" x="0" y="0" width="158.312" height="187.885" filterUnits="userSpaceOnUse" color-interpolation-filters="sRGB">
<feFlood flood-opacity="0" result="BackgroundImageFix"/>
<feColorMatrix in="SourceAlpha" type="matrix" values="0 0 0 0 0 0 0 0 0 0 0 0 0 0 0 0 0 0 127 0"/>
<feOffset dy="4"/>
<feGaussianBlur stdDeviation="6"/>
<feColorMatrix type="matrix" values="0 0 0 0 0 0 0 0 0 0.482353 0 0 0 0 1 0 0 0 0.2 0"/>
<feBlend mode="normal" in2="BackgroundImageFix" result="effect1_dropShadow"/>
<feBlend mode="normal" in="SourceGraphic" in2="effect1_dropShadow" result="shape"/>
</filter>
<filter id="filter1_ii" x="12" y="37.5732" width="134.312" height="134.312" filterUnits="userSpaceOnUse" color-interpolation-filters="sRGB">
<feFlood flood-opacity="0" result="BackgroundImageFix"/>
<feBlend mode="normal" in="SourceGraphic" in2="BackgroundImageFix" result="shape"/>
<feColorMatrix in="SourceAlpha" type="matrix" values="0 0 0 0 0 0 0 0 0 0 0 0 0 0 0 0 0 0 127 0" result="hardAlpha"/>
<feOffset/>
<feGaussianBlur stdDeviation="4"/>
<feComposite in2="hardAlpha" operator="arithmetic" k2="-1" k3="1"/>
<feColorMatrix type="matrix" values="0 0 0 0 0.9875 0 0 0 0 0.722843 0 0 0 0 0.386771 0 0 0 1 0"/>
<feBlend mode="normal" in2="shape" result="effect1_innerShadow"/>
<feColorMatrix in="SourceAlpha" type="matrix" values="0 0 0 0 0 0 0 0 0 0 0 0 0 0 0 0 0 0 127 0" result="hardAlpha"/>
<feOffset/>
<feGaussianBlur stdDeviation="6"/>
<feComposite in2="hardAlpha" operator="arithmetic" k2="-1" k3="1"/>
<feColorMatrix type="matrix" values="0 0 0 0 0 0 0 0 0 0 0 0 0 0 0 0 0 0 0.2 0"/>
<feBlend mode="normal" in2="effect1_innerShadow" result="effect2_innerShadow"/>
</filter>
<filter id="filter2_i" x="48.3516" y="73.9258" width="61.6109" height="61.6109" filterUnits="userSpaceOnUse" color-interpolation-filters="sRGB">
<feFlood flood-opacity="0" result="BackgroundImageFix"/>
<feBlend mode="normal" in="SourceGraphic" in2="BackgroundImageFix" result="shape"/>
<feColorMatrix in="SourceAlpha" type="matrix" values="0 0 0 0 0 0 0 0 0 0 0 0 0 0 0 0 0 0 127 0" result="hardAlpha"/>
<feOffset/>
<feGaussianBlur stdDeviation="6"/>
<feComposite in2="hardAlpha" operator="arithmetic" k2="-1" k3="1"/>
<feColorMatrix type="matrix" values="0 0 0 0 0 0 0 0 0 0 0 0 0 0 0 0 0 0 0.4 0"/>
<feBlend mode="normal" in2="shape" result="effect1_innerShadow"/>
</filter>
<linearGradient id="paint0_linear" x1="43.899" y1="42.1902" x2="146.312" y2="158.454" gradientUnits="userSpaceOnUse">
<stop stop-color="white"/>
<stop offset="1" stop-color="#705F5F" stop-opacity="0"/>
</linearGradient>
<linearGradient id="paint1_linear" x1="119.526" y1="138.371" x2="35.9072" y2="73.014" gradientUnits="userSpaceOnUse">
<stop stop-color="#FFE4C1"/>
<stop offset="1" stop-color="#383838" stop-opacity="0"/>
</linearGradient>
<linearGradient id="paint2_linear" x1="131.944" y1="148.721" x2="22.5968" y2="63.2544" gradientUnits="userSpaceOnUse">
<stop stop-color="#FFE4C1"/>
<stop offset="1" stop-color="#383838" stop-opacity="0"/>
</linearGradient>
</defs>
</svg>
