<svg width="218" height="266" viewBox="0 0 218 266" fill="none" xmlns="http://www.w3.org/2000/svg">
<path d="M86.0098 29.7983C84.9084 29.7983 84.0273 30.669 84.0273 31.7573V50.0412C84.0273 51.1295 84.9084 52.0002 86.0098 52.0002H131.385C132.487 52.0002 133.368 51.1295 133.368 50.0412V31.7573C133.368 30.669 132.487 29.7983 131.385 29.7983H86.0098ZM129.403 44.1642C129.403 45.2526 128.522 46.1232 127.42 46.1232H90.1949C89.0935 46.1232 88.2125 45.2526 88.2125 44.1642V35.893C88.2125 34.8046 89.0935 33.934 90.1949 33.934H127.42C128.522 33.934 129.403 34.8046 129.403 35.893V44.1642Z" fill="#D9B68B"/>
<path d="M140.045 0L114.918 37.8775H127.37L155.388 0H140.045Z" fill="#0FA711"/>
<path d="M127.377 0L102.473 37.8775H114.925L140.052 0H127.377Z" fill="white"/>
<path d="M114.924 0L90.0195 37.8775H102.472L127.376 0H114.924Z" fill="#FF7600"/>
<path d="M90.0177 37.8775H102.47L77.343 0H62L90.0177 37.8775Z" fill="#FF7600"/>
<path d="M102.471 37.8775H114.923L90.0184 0H77.3438L102.471 37.8775Z" fill="white"/>
<path opacity="0.5" d="M110.695 6.27979L104.469 15.6931L119.145 37.8818H127.372L129.596 34.744L110.695 6.27979Z" fill="#3E4347"/>
<path d="M114.924 37.8775H127.376L102.472 0H90.0195L114.924 37.8775Z" fill="#0FA711"/>
<g filter="url(#filter0_ii)">
<path d="M218 157C218 217.199 169.199 266 109 266C48.801 266 0 217.199 0 157C0 96.801 48.801 48 109 48C169.199 48 218 96.801 218 157Z" fill="#C18A43" fill-opacity="0.7"/>
</g>
<path d="M214.5 157C214.5 215.266 167.266 262.5 109 262.5C50.734 262.5 3.5 215.266 3.5 157C3.5 98.734 50.734 51.5 109 51.5C167.266 51.5 214.5 98.734 214.5 157Z" stroke="#E29435" stroke-width="7"/>
<path d="M214.5 157C214.5 215.266 167.266 262.5 109 262.5C50.734 262.5 3.5 215.266 3.5 157C3.5 98.734 50.734 51.5 109 51.5C167.266 51.5 214.5 98.734 214.5 157Z" stroke="url(#paint0_linear)" stroke-width="7"/>
<path d="M196 157C196 205.049 157.049 244 109 244C60.9512 244 22 205.049 22 157C22 108.951 60.9512 70 109 70C157.049 70 196 108.951 196 157Z" fill="#764B16"/>
<path fill-rule="evenodd" clip-rule="evenodd" d="M109 85C69.2355 85 37 117.235 37 157C37 196.764 69.2355 229 109 229C148.764 229 181 196.764 181 157C181 117.235 148.764 85 109 85ZM7 157C7 100.667 52.667 55 109 55C165.333 55 211 100.667 211 157C211 213.333 165.333 259 109 259C52.667 259 7 213.333 7 157Z" fill="#805726"/>
<path d="M109.001 80C66.5595 80 32 114.357 32 157.001C32 199.645 66.3574 234.002 109.001 234.002C151.645 234.002 186.002 199.645 186.002 157.001C186.002 114.357 151.442 80 109.001 80ZM93.6412 87.4778C93.8433 87.4778 93.8433 87.4778 93.6412 87.4778C95.0559 90.5093 97.6833 92.3282 100.311 91.7219C102.938 91.3177 105.565 89.4988 105.767 85.861C106.172 85.861 106.576 85.861 106.98 85.861C106.98 96.7745 106.172 108.496 104.959 121.229C104.757 122.441 104.757 123.654 104.757 124.867C104.353 123.856 103.948 122.644 103.544 121.229C99.3001 110.517 95.4601 98.9976 92.4286 87.6799C93.0349 87.6799 93.237 87.4778 93.6412 87.4778ZM76.0583 93.743C78.2814 96.3703 81.1109 97.3808 83.5361 96.1682C86.3655 94.9556 87.9823 92.1261 87.376 89.0946C87.7802 88.8925 88.1844 88.8925 88.5886 88.6904C91.216 99.1997 93.8433 110.72 95.8643 123.452C96.0664 124.867 96.2685 125.877 96.6727 127.09C96.0664 126.079 95.4601 125.069 94.4496 123.856C87.5781 114.559 80.9088 104.454 75.0478 94.3493C75.2499 94.1472 75.6541 93.9451 76.0583 93.743ZM60.4964 104.656C63.3259 106.475 66.3574 106.678 68.3784 105.061C69.9952 103.848 70.8036 102.029 70.8036 100.21C70.8036 99.1997 70.6015 98.1892 69.9952 97.3808C70.3994 97.1787 70.6015 96.9766 71.0057 96.7745C76.4625 106.071 81.7172 116.783 87.1739 128.302C87.7802 129.515 88.3865 130.526 88.7907 131.536C87.9823 130.728 86.9718 129.919 85.9613 129.111C77.0688 121.633 67.9742 113.549 59.688 105.465C59.8901 105.061 60.2943 104.859 60.4964 104.656ZM48.3703 119.006C48.5724 119.006 48.5724 119.006 48.3703 119.006C51.6039 120.016 54.6355 119.612 56.0502 117.389C56.4544 116.783 57.4649 115.166 57.4649 113.549C57.4649 112.538 57.0607 110.922 55.8481 109.507C56.0502 109.305 56.4544 108.901 56.6565 108.699C64.3364 116.378 72.2184 125.271 80.5046 134.972C81.313 135.982 82.1214 136.791 82.9298 137.599C81.9193 136.993 80.7067 136.589 79.494 135.982C68.9847 131.132 58.0712 125.675 47.764 120.016C47.9661 119.612 48.1682 119.41 48.3703 119.006ZM40.4883 135.982C40.4883 135.982 40.4883 135.78 40.4883 135.982C43.924 136.184 46.5514 134.972 47.5619 132.344C47.764 131.738 47.9661 130.93 47.9661 129.717C47.9661 128.505 47.5619 126.281 45.1367 124.665C45.3388 124.26 45.5409 124.058 45.743 123.654C55.0397 129.111 65.1448 135.578 75.452 142.854C76.4625 143.662 77.6751 144.269 78.4835 144.875C77.473 144.673 76.0583 144.471 74.6436 144.066C63.3259 142.45 51.4018 140.024 39.882 136.993C40.2862 136.791 40.4883 136.387 40.4883 135.982ZM37.2547 154.374C37.2547 154.374 37.2547 154.172 37.2547 154.374C40.4883 153.767 42.9135 151.746 43.1156 149.119C43.1156 148.917 43.1156 148.715 43.1156 148.311C43.1156 145.885 41.903 143.258 38.8715 142.248C38.8715 141.843 39.0736 141.439 39.0736 141.035C49.5829 143.864 60.9006 147.704 72.8247 151.948C74.0373 152.353 75.2499 152.757 76.2604 152.959C75.0478 152.959 73.8352 153.161 72.4205 153.161C61.1027 154.576 48.7745 155.182 37.0526 155.384C37.2547 155.182 37.2547 154.778 37.2547 154.374ZM38.8715 173.169C38.8715 172.967 38.8715 172.967 38.8715 173.169C41.4988 171.754 43.1156 169.733 43.1156 167.308C43.1156 167.106 43.1156 166.702 43.1156 166.5C42.7114 163.872 40.8925 161.245 37.2547 161.043C37.2547 160.639 37.2547 160.235 37.2547 159.83C48.1682 159.83 59.8901 160.437 72.6226 161.447C74.0373 161.649 75.2499 161.649 76.2604 161.649C75.2499 162.054 74.0373 162.458 72.6226 162.862C61.9111 167.106 50.3913 170.946 39.0736 174.18C39.0736 173.978 39.0736 173.573 38.8715 173.169ZM45.3387 190.752C45.3387 190.752 45.3387 190.55 45.3387 190.752C47.1577 189.135 48.1682 187.316 48.1682 185.295C48.1682 184.487 47.9661 183.881 47.764 183.274C46.7535 180.849 44.3282 178.828 40.6904 179.636C40.4883 179.232 40.4883 178.828 40.2862 178.424C50.7955 175.594 62.3153 173.169 74.8457 170.946C76.2604 170.744 77.2709 170.34 78.4835 170.138C77.473 170.744 76.4625 171.35 75.2499 172.361C65.9532 179.232 55.8481 185.902 45.743 191.965C45.743 191.358 45.5409 191.156 45.3387 190.752ZM56.2523 206.112C57.2628 204.495 57.667 203.08 57.667 201.463C57.667 200.251 57.2628 199.038 56.4544 198.23C54.8376 196.209 51.806 194.794 48.5724 196.411C48.3703 196.007 48.1682 195.805 47.9661 195.4C57.2628 189.944 67.9742 184.487 79.494 179.03C80.7067 178.424 81.7172 177.818 82.7277 177.413C81.9193 178.222 81.1109 179.232 80.3024 180.243C73.2289 189.337 65.1448 198.432 57.0607 206.92C56.8586 206.718 56.4544 206.516 56.2523 206.112ZM70.6015 218.036C70.8036 216.823 71.0057 215.813 71.0057 214.802C71.0057 212.781 70.1973 211.164 68.7826 210.356C66.7616 208.941 63.528 208.133 60.9006 210.76C60.4964 210.558 60.2943 210.154 60.0922 209.952C67.7721 202.272 76.4625 194.188 86.1634 186.104C87.1739 185.295 87.9823 184.487 88.7907 183.678C88.1844 184.689 87.7802 185.902 87.1739 187.114C82.7277 197.624 77.473 208.537 71.612 218.642C71.4099 218.44 71.0057 218.238 70.6015 218.036ZM87.5781 225.918C87.7802 222.482 86.3655 219.855 83.9403 218.844C81.5151 218.036 78.2814 218.238 76.2604 221.27C75.8562 221.067 75.6541 220.865 75.2499 220.663C80.7066 211.367 86.9718 201.261 94.2475 190.752C95.0559 189.539 95.6622 188.529 96.2685 187.721C96.0664 188.731 95.8643 190.146 95.4601 191.56C93.8433 202.878 91.4181 214.802 88.5886 226.322C88.3865 226.12 87.9823 226.12 87.5781 225.918ZM105.969 228.949C105.363 225.716 103.342 223.291 100.715 223.088C98.0874 222.886 95.0559 223.897 94.0454 227.333C93.6412 227.333 93.237 227.13 92.8328 227.13C95.6622 216.621 99.3001 205.303 103.544 193.379C103.948 192.167 104.353 190.954 104.555 189.944C104.555 191.156 104.757 192.369 104.757 193.784C106.172 205.101 106.98 217.43 107.182 229.151C106.778 229.151 106.374 229.151 105.969 228.949ZM178.928 142.45C176.301 143.864 174.482 145.885 174.482 148.311C174.482 148.513 174.482 148.917 174.482 149.119C174.886 151.746 176.705 154.374 180.343 154.576C180.343 154.98 180.343 155.384 180.343 155.788C169.632 155.788 157.708 154.98 144.975 153.767C143.56 153.565 142.348 153.565 141.337 153.565C142.348 153.161 143.56 152.757 144.975 152.353C155.687 148.108 167.206 144.269 178.524 141.237C178.726 141.641 178.726 142.045 178.928 142.45ZM172.663 124.867C172.663 124.867 172.663 125.069 172.663 124.867C170.844 126.484 169.834 128.302 169.834 130.323C169.834 131.132 170.036 131.738 170.238 132.344C171.248 134.77 173.674 136.791 177.312 136.184C177.514 136.589 177.514 136.993 177.716 137.397C167.206 140.024 155.485 142.45 142.954 144.673C141.539 144.875 140.529 145.077 139.316 145.481C140.327 144.875 141.337 144.269 142.55 143.46C151.847 136.387 161.952 129.717 172.057 123.856C172.259 124.26 172.461 124.463 172.663 124.867ZM162.154 109.709C161.143 111.326 160.537 112.943 160.537 114.357C160.537 115.57 160.941 116.783 161.75 117.591C163.366 119.612 166.196 121.027 169.43 119.41C169.632 119.814 169.834 120.016 170.036 120.42C160.537 125.675 150.028 131.132 138.306 136.184C137.093 136.791 136.083 137.195 135.072 137.801C135.881 136.993 136.689 135.982 137.7 134.972C144.975 126.079 153.059 116.985 161.345 108.699C161.548 109.103 161.952 109.305 162.154 109.709ZM147.603 97.1787C147.603 97.1787 147.805 97.3808 147.603 97.1787C147.4 98.3913 146.996 99.4018 146.996 100.412C146.996 102.231 147.805 103.848 149.219 104.859C151.24 106.273 154.474 107.082 157.101 104.656C157.303 104.859 157.708 105.263 157.91 105.465C150.23 113.145 141.337 121.027 131.434 129.111C130.424 129.919 129.413 130.728 128.807 131.536C129.413 130.526 129.818 129.515 130.424 128.1C135.072 117.591 140.529 106.678 146.39 96.5724C146.996 96.7745 147.198 96.9766 147.603 97.1787ZM130.626 89.2967C130.828 89.2967 130.828 89.2967 130.626 89.2967C130.424 92.7324 131.839 95.3598 134.264 96.3703C136.689 97.3808 139.923 97.1787 141.944 93.9451C142.348 94.1472 142.55 94.3493 142.954 94.5514C137.497 103.848 131.03 113.751 123.552 124.26C122.744 125.271 122.138 126.281 121.531 127.292C121.733 126.281 122.138 124.867 122.34 123.452C124.159 112.134 126.584 100.21 129.413 88.8925C130.02 88.8925 130.222 89.0946 130.626 89.2967ZM112.437 85.861C112.437 85.861 112.639 85.861 112.437 85.861C113.043 89.0946 115.064 91.5198 117.691 91.7219C120.319 91.924 123.35 90.9135 124.563 87.4778C124.967 87.4778 125.371 87.6799 125.775 87.6799C122.946 98.1892 119.106 109.507 114.66 121.229C114.256 122.441 113.851 123.654 113.447 124.665C113.447 123.452 113.245 122.239 113.245 120.825C112.033 109.507 111.224 97.1787 111.224 85.4568C111.628 85.861 112.033 85.861 112.437 85.861ZM124.361 227.333C122.744 224.301 120.319 222.684 117.691 223.088C115.064 223.493 112.437 225.312 112.235 228.949C111.83 228.949 111.426 228.949 111.022 228.949C111.022 218.036 111.628 206.314 112.841 193.581C113.043 192.369 113.043 191.358 113.043 190.348C113.043 190.146 113.043 190.146 113.043 189.944C113.447 190.954 113.851 192.167 114.256 193.581C118.5 204.293 122.34 215.813 125.573 227.13C125.169 227.333 124.765 227.333 124.361 227.333ZM141.742 221.067C141.742 221.067 141.539 221.067 141.742 221.067C139.518 218.44 136.689 217.43 134.264 218.642C131.434 219.855 129.818 222.684 130.626 225.716C130.222 225.918 129.818 225.918 129.413 226.12C126.584 215.611 124.159 204.091 122.138 191.56C121.936 190.146 121.733 189.135 121.329 187.923C121.936 188.933 122.542 189.944 123.552 191.156C130.424 200.453 137.093 210.558 142.954 220.663C142.348 220.865 142.146 220.865 141.742 221.067ZM157.303 210.154C157.303 210.356 157.303 210.356 157.303 210.154C154.474 208.335 151.442 208.133 149.421 209.75C147.805 210.962 146.996 212.781 146.996 214.6C146.996 215.611 147.198 216.621 147.805 217.43C147.4 217.632 147.198 217.834 146.794 218.036C141.337 208.739 135.881 198.028 130.626 186.508C130.02 185.295 129.413 184.285 129.009 183.274C129.818 184.083 130.828 184.891 131.839 185.699C140.933 192.773 150.028 200.857 158.314 209.143C157.91 209.75 157.708 209.952 157.303 210.154ZM169.227 196.007C169.227 196.007 169.227 196.209 169.227 196.007C165.994 194.996 162.962 195.4 161.548 197.624C161.143 198.23 160.133 199.847 160.133 201.463C160.133 202.474 160.537 204.091 161.75 205.506C161.548 205.708 161.143 206.112 160.941 206.314C153.261 198.634 145.379 189.742 137.295 180.041C136.487 179.03 135.678 178.02 134.87 177.413C135.881 178.02 137.093 178.424 138.306 179.03C148.815 183.678 159.729 189.135 170.036 194.794C169.632 195.4 169.43 195.603 169.227 196.007ZM177.109 179.03C177.109 179.232 177.109 179.232 177.109 179.03C173.674 178.828 171.046 180.041 170.036 182.668C169.834 183.274 169.632 184.083 169.632 185.295C169.632 186.508 170.036 188.731 172.461 190.348C172.259 190.752 172.057 190.954 171.855 191.358C162.558 185.902 152.453 179.434 142.146 172.159C141.135 171.35 139.923 170.744 139.114 170.138C140.125 170.34 141.539 170.744 142.954 170.946C154.272 172.563 166.196 174.988 177.514 178.02C177.312 178.424 177.312 178.828 177.109 179.03ZM180.343 160.841C177.109 161.447 174.684 163.266 174.482 165.893C174.482 166.096 174.482 166.298 174.482 166.702C174.482 169.127 175.695 171.754 178.726 172.765C178.726 173.169 178.524 173.573 178.524 173.978C168.015 171.148 156.697 167.51 144.773 163.064C143.56 162.66 142.348 162.256 141.337 162.054C142.55 162.054 143.763 161.851 145.177 161.851C156.495 160.639 168.823 159.83 180.545 159.83C180.545 160.033 180.343 160.437 180.343 160.841Z" fill="#D9B68B"/>
<g filter="url(#filter1_i)">
<circle cx="109" cy="157" r="50" fill="#805726"/>
</g>
<mask id="mask0" mask-type="alpha" maskUnits="userSpaceOnUse" x="59" y="107" width="100" height="100">
<circle cx="109" cy="157" r="50" fill="#C3863A"/>
</mask>
<g mask="url(#mask0)">
<path d="M82.6969 105.385L82.6979 105.386L82.948 105.755C83.1118 105.996 83.3522 106.351 83.6587 106.803C84.2716 107.708 85.1489 109.003 86.2061 110.568C88.3206 113.698 91.1554 117.904 94.0364 122.21C96.917 126.516 99.8455 130.924 102.147 134.456C103.297 136.222 104.293 137.772 105.048 138.983C105.788 140.169 106.335 141.088 106.55 141.554C106.628 141.723 106.657 141.91 106.632 142.094C106.534 142.829 106.129 143.471 105.646 144.005C105.156 144.547 104.516 145.053 103.813 145.52C102.404 146.455 100.608 147.318 98.8706 148.047C97.125 148.779 95.4 149.393 94.1146 149.823C93.6747 149.97 93.2852 150.095 92.9629 150.198C93.1439 150.686 93.3873 151.329 93.6735 152.051C94.3132 153.666 95.1542 155.645 95.9843 157.186C96.4389 158.031 96.1789 158.859 95.7262 159.467C95.3 160.04 94.6303 160.543 93.9004 160.984C92.419 161.877 90.3247 162.724 88.2437 163.448C86.3521 164.107 84.4214 164.682 82.875 165.113C83.4397 165.304 84.052 165.513 84.687 165.732C87.3423 166.647 90.4545 167.766 92.1006 168.526C93.8143 169.317 94.6604 170.287 94.7213 171.384C94.7496 171.893 94.5932 172.305 94.4453 172.575C94.3705 172.712 94.2935 172.82 94.2321 172.898C94.2011 172.937 94.1733 172.97 94.1506 172.995L94.1371 173.01C94.1295 173.019 94.1172 173.034 94.1009 173.055C94.0648 173.101 94.0092 173.173 93.9405 173.272C93.8027 173.468 93.6142 173.764 93.4245 174.144C93.0436 174.905 92.6701 175.98 92.6701 177.259C92.6701 177.659 92.6801 178.157 92.6916 178.725L92.6916 178.726V178.726C92.7201 180.144 92.7574 181.997 92.669 183.832C92.5466 186.371 92.1799 189.179 91.0541 191.008C90.7744 191.463 90.3091 191.739 89.8966 191.918C89.4594 192.109 88.9312 192.254 88.3535 192.37C87.195 192.603 85.6931 192.742 83.9974 192.818C80.5971 192.969 76.2723 192.868 72.0358 192.668C67.7934 192.469 63.6152 192.169 60.4994 191.92C58.941 191.795 57.6472 191.683 56.7427 191.601C56.2904 191.561 55.9354 191.528 55.6932 191.505L55.4164 191.479L55.3682 191.475H33.6015C33.06 191.475 32.6211 191.036 32.6211 190.494V106.916C32.6211 106.382 33.048 105.947 33.5816 105.936L81.8659 104.955C82.1977 104.949 82.5104 105.11 82.6969 105.385Z" fill="#FFE4C1"/>
<path fill-rule="evenodd" clip-rule="evenodd" d="M114.267 149.364C113.599 150.033 113.638 151.118 114.209 151.872C115.402 153.445 116.109 155.406 116.109 157.533C116.109 159.506 115.5 161.337 114.46 162.847C113.94 163.603 113.928 164.646 114.577 165.295C115.23 165.948 116.301 165.951 116.86 165.215C118.481 163.081 119.442 160.419 119.442 157.533C119.442 154.437 118.336 151.6 116.497 149.395C115.926 148.709 114.898 148.733 114.267 149.364ZM119.872 168.245C119.292 168.957 119.286 170.004 119.936 170.653C120.588 171.306 121.652 171.308 122.247 170.603C125.223 167.072 127.017 162.512 127.017 157.533C127.017 152.356 125.078 147.631 121.886 144.046C121.284 143.371 120.245 143.386 119.606 144.026C118.944 144.687 118.965 145.759 119.576 146.468C122.136 149.438 123.684 153.305 123.684 157.533C123.684 161.596 122.255 165.325 119.872 168.245ZM125.634 174.002C125.03 174.695 125.027 175.744 125.677 176.394C126.328 177.046 127.39 177.048 128.001 176.358C132.439 171.346 135.134 164.755 135.134 157.534C135.134 150.119 132.293 143.368 127.64 138.309C127.024 137.64 125.98 137.651 125.337 138.294C124.679 138.953 124.693 140.019 125.318 140.71C129.346 145.158 131.8 151.059 131.8 157.534C131.8 163.837 129.474 169.597 125.634 174.002Z" fill="#FFE4C1"/>
</g>
<circle cx="109" cy="157" r="77" stroke="url(#paint1_linear)" stroke-width="2"/>
<circle cx="109" cy="157" r="101" stroke="url(#paint2_linear)" stroke-width="2"/>
<path d="M51.8008 81.2002L54.3008 79.4002C54.6008 79.2002 54.9008 79.0002 55.3008 78.9002C55.6008 78.8002 55.9008 78.7002 56.2008 78.7002C56.5008 78.7002 56.8008 78.8002 57.1008 78.9002C57.4008 79.0002 57.6008 79.3002 57.9008 79.6002C58.2008 80.0002 58.3008 80.4002 58.3008 80.9002C58.3008 81.3002 58.1008 81.7002 57.8008 82.1002C58.0008 82.0002 58.3008 81.9002 58.5008 81.8002C58.8008 81.8002 59.0008 81.8002 59.3008 81.8002C59.6008 81.8002 59.8008 82.0002 60.0008 82.1002C60.2008 82.3002 60.4008 82.5002 60.6008 82.7002C60.8008 83.0002 61.0008 83.4002 61.0008 83.7002C61.0008 84.0002 61.0008 84.4002 60.9008 84.7002C60.8008 85.0002 60.6008 85.4002 60.4008 85.7002C60.2008 86.0002 59.9008 86.3002 59.5008 86.6002L57.0008 88.4002L51.8008 81.2002ZM55.0008 83.6002L56.4008 82.6002C56.6008 82.5002 56.7008 82.3002 56.9008 82.2002C57.0008 82.0002 57.1008 81.9002 57.2008 81.7002C57.3008 81.5002 57.3008 81.3002 57.2008 81.1002C57.2008 80.9002 57.1008 80.7002 56.9008 80.5002C56.7008 80.2002 56.4008 80.0002 56.1008 79.9002C55.8008 79.8002 55.4008 79.9002 55.0008 80.2002L53.4008 81.4002L55.0008 83.6002ZM57.4008 87.0002L58.9008 85.9002C59.1008 85.8002 59.2008 85.7002 59.4008 85.5002C59.6008 85.3002 59.7008 85.2002 59.8008 84.9002C59.9008 84.7002 59.9008 84.5002 59.9008 84.2002C59.9008 83.9002 59.8008 83.7002 59.6008 83.4002C59.3008 83.0002 58.9008 82.7002 58.5008 82.7002C58.1008 82.7002 57.6008 82.9002 57.1008 83.2002L55.6008 84.4002L57.4008 87.0002Z" fill="white"/>
<path d="M58.1016 76.1L59.1016 75.5L61.4016 79.4C61.4016 79 61.4016 78.7 61.6016 78.3C61.8016 77.9 62.1016 77.6 62.5016 77.4C62.7016 77.3 63.0016 77.1 63.3016 77.1C63.6016 77.1 63.8016 77 64.1016 77.1C64.4016 77.2 64.6016 77.3 64.9016 77.5C65.2016 77.7 65.4016 78 65.6016 78.3L67.6016 81.6L66.6016 82.2L64.8016 79.1C64.7016 78.9 64.5016 78.7 64.3016 78.5C64.1016 78.4 64.0016 78.3 63.8016 78.2C63.6016 78.1 63.5016 78.2 63.3016 78.2C63.1016 78.2 63.0016 78.3 62.8016 78.4C62.6016 78.5 62.4016 78.7 62.3016 78.8C62.2016 79 62.1016 79.2 62.0016 79.4C62.0016 79.6 62.0016 79.9 62.0016 80.1C62.1016 80.4 62.2016 80.6 62.4016 80.9L64.0016 83.6L63.0016 84.2L58.1016 76.1Z" fill="white"/>
<path d="M66.5 76.1999C66.7 75.7999 66.9 75.3999 67.2 75.0999C67.5 74.7999 67.9 74.4999 68.2 74.2999C68.6 74.0999 69 73.9999 69.3 73.8999C69.6 73.8999 69.9 73.8999 70.2 73.8999C70.5 73.9999 70.7 74.0999 70.9 74.2999C71.1 74.4999 71.3 74.6999 71.4 74.8999L72.8 77.6999C72.9 77.8999 73 78.0999 73.1 78.1999C73.2 78.3999 73.3 78.4999 73.4 78.5999L72.5 79.0999C72.3 78.7999 72.2 78.5999 72.1 78.2999C72 78.7999 71.9 79.0999 71.7 79.3999C71.5 79.6999 71.1 79.9999 70.7 80.1999C70.4 80.2999 70.2 80.3999 69.9 80.4999C69.6 80.4999 69.4 80.4999 69.1 80.4999C68.9 80.3999 68.6 80.2999 68.4 80.1999C68.2 79.9999 68 79.7999 67.9 79.5999C67.7 79.1999 67.7 78.8999 67.7 78.5999C67.7 78.2999 67.9 77.9999 68.1 77.6999C68.3 77.3999 68.6 77.1999 68.9 76.8999C69.2 76.6999 69.6 76.3999 70 76.1999L70.8 75.7999L70.7 75.5999C70.6 75.4999 70.5 75.2999 70.4 75.1999C70.3 75.0999 70.1 74.9999 70 74.8999C69.8 74.7999 69.7 74.7999 69.5 74.7999C69.3 74.7999 69.1 74.8999 68.9 74.9999C68.7 75.0999 68.5 75.1999 68.4 75.2999C68.3 75.3999 68.2 75.4999 68.1 75.5999C68 75.6999 67.9 75.7999 67.9 75.9999C67.8 76.0999 67.8 76.1999 67.7 76.3999L66.5 76.1999ZM70.5 76.8999C70.3 76.9999 70 77.1999 69.8 77.2999C69.6 77.4999 69.4 77.5999 69.2 77.7999C69 77.9999 68.9 78.1999 68.8 78.3999C68.7 78.5999 68.8 78.7999 68.9 78.9999C69.1 79.2999 69.3 79.4999 69.5 79.4999C69.8 79.4999 70.1 79.4999 70.5 79.2999C70.8 79.1999 71 78.9999 71.1 78.7999C71.3 78.5999 71.3 78.3999 71.4 78.1999C71.5 77.9999 71.4 77.7999 71.4 77.5999C71.4 77.3999 71.3 77.1999 71.2 76.9999L71 76.6999L70.5 76.8999Z" fill="white"/>
<path d="M75.8024 72.6998C75.6024 72.5998 75.4024 72.4998 75.2024 72.4998C75.0024 72.4998 74.7024 72.4998 74.5024 72.5998C74.2024 72.6998 74.1024 72.7998 73.9024 72.9998C73.8024 73.1998 73.7024 73.3998 73.8024 73.5998C73.9024 73.7998 74.0024 73.8998 74.1024 73.8998C74.2024 73.8998 74.4024 73.9998 74.6024 73.9998C74.8024 73.9998 74.9024 73.9998 75.1024 73.8998C75.3024 73.8998 75.4024 73.7998 75.6024 73.7998C75.9024 73.7998 76.1024 73.6998 76.3024 73.6998C76.5024 73.6998 76.7024 73.6998 76.9024 73.7998C77.1024 73.8998 77.3024 73.9998 77.4024 74.0998C77.6024 74.1998 77.7024 74.3998 77.8024 74.6998C77.9024 74.9998 78.0024 75.2998 77.9024 75.5998C77.9024 75.8998 77.8024 76.0998 77.6024 76.3998C77.4024 76.5998 77.2024 76.7998 77.0024 76.9998C76.8024 77.1998 76.5024 77.2998 76.2024 77.3998C75.7024 77.5998 75.3024 77.6998 74.9024 77.6998C74.5024 77.6998 74.1024 77.5998 73.6024 77.2998L74.1024 76.2998C74.3024 76.3998 74.6024 76.4998 74.9024 76.4998C75.2024 76.4998 75.5024 76.4998 75.8024 76.3998C75.9024 76.2998 76.1024 76.2998 76.2024 76.1998C76.3024 76.0998 76.4024 75.9998 76.5024 75.8998C76.6024 75.7998 76.6024 75.6998 76.7024 75.5998C76.7024 75.4998 76.7024 75.3998 76.7024 75.1998C76.6024 74.9998 76.5024 74.8998 76.4024 74.8998C76.3024 74.7998 76.1024 74.7998 75.9024 74.7998C75.7024 74.7998 75.6024 74.7998 75.4024 74.7998C75.2024 74.7998 75.1024 74.8998 75.0024 74.8998C74.7024 74.8998 74.5024 74.9998 74.3024 74.9998C74.1024 74.9998 73.8024 74.9998 73.6024 74.8998C73.4024 74.7998 73.2024 74.6998 73.0024 74.5998C72.8024 74.4998 72.7024 74.2998 72.6024 73.9998C72.5024 73.6998 72.4024 73.3998 72.5024 73.1998C72.5024 72.8998 72.6024 72.6998 72.8024 72.4998C73.0024 72.2998 73.1024 72.0998 73.4024 71.8998C73.6024 71.6998 73.9024 71.5998 74.1024 71.4998C74.5024 71.2998 74.9024 71.2998 75.3024 71.2998C75.7024 71.2998 76.1024 71.3998 76.4024 71.6998L75.8024 72.6998Z" fill="white"/>
<path d="M76.5 67.0001L77.6 66.6001L79 70.9001C79 70.5001 79.2 70.2001 79.5 69.9001C79.8 69.6001 80.1 69.4001 80.6 69.2001C80.9 69.1001 81.2 69.1001 81.4 69.1001C81.7 69.1001 81.9 69.2001 82.2 69.3001C82.4 69.4001 82.7 69.6001 82.9 69.8001C83.1 70.0001 83.3 70.4001 83.4 70.7001L84.6 74.4001L83.5 74.8001L82.4 71.4001C82.3 71.1001 82.2 70.9001 82.1 70.8001C82 70.7001 81.8 70.5001 81.7 70.4001C81.6 70.3001 81.4 70.3001 81.2 70.3001C81 70.3001 80.9 70.3001 80.7 70.4001C80.5 70.5001 80.3 70.6001 80.1 70.7001C79.9 70.8001 79.8 71.0001 79.7 71.2001C79.6 71.4001 79.6 71.6001 79.6 71.9001C79.6 72.2001 79.7 72.5001 79.8 72.8001L80.8 75.8001L79.7 76.2001L76.5 67.0001Z" fill="white"/>
<path d="M83.7016 66.2001C83.6016 66.0001 83.7016 65.8001 83.8016 65.6001C83.9016 65.4001 84.1016 65.3001 84.3016 65.2001C84.5016 65.1001 84.7016 65.2001 84.9016 65.3001C85.1016 65.4001 85.2016 65.6001 85.3016 65.8001C85.4016 66.0001 85.3016 66.2001 85.2016 66.4001C85.1016 66.6001 84.9016 66.7001 84.7016 66.8001C84.5016 66.9001 84.3016 66.8001 84.1016 66.7001C83.9016 66.6001 83.8016 66.4001 83.7016 66.2001ZM84.5016 68.2001L85.6016 67.9001L87.2016 73.7001L86.1016 74.0001L84.5016 68.2001Z" fill="white"/>
<path d="M87.5 67.4L88.6 67.2L88.8 68.1C88.9 67.8 89.1 67.4 89.4 67.2C89.7 66.9 90.1 66.7 90.5 66.7C90.8 66.6 91.1 66.6 91.3 66.7C91.6 66.7 91.8 66.8 92.1 67C92.3 67.1 92.5 67.3 92.7 67.6C92.9 67.9 93 68.2 93.1 68.6L93.9 72.4L92.8 72.6L92.1 69.1C92 68.8 92 68.6 91.8 68.4C91.7 68.2 91.6 68.1 91.4 68C91.2 67.9 91.1 67.8 90.9 67.8C90.7 67.8 90.6 67.8 90.4 67.8C90.2 67.8 90 67.9 89.8 68C89.6 68.1 89.5 68.3 89.3 68.5C89.2 68.7 89.1 68.9 89.1 69.2C89.1 69.5 89.1 69.8 89.2 70.1L89.8 73.1L88.7 73.3L87.5 67.4Z" fill="white"/>
<path d="M94 63.9C94 63.7 94 63.5 94.2 63.3C94.3 63.1 94.5 63 94.7 63C94.9 63 95.1 63 95.3 63.2C95.5 63.3 95.7 63.5 95.7 63.7C95.7 63.9 95.7 64.1 95.5 64.3C95.4 64.5 95.2 64.6 95 64.6C94.8 64.6 94.6 64.6 94.4 64.4C94.2 64.3 94.1 64.2 94 63.9ZM94.6 66L95.7 65.9L96.6 71.9L95.5 72.1L94.6 66Z" fill="white"/>
<path d="M101.402 66.6999C101.402 66.3999 101.402 66.0999 101.502 65.7999C101.602 65.4999 101.802 65.2999 101.902 65.0999C102.102 64.8999 102.302 64.6999 102.602 64.5999C102.902 64.4999 103.202 64.3999 103.502 64.3999C103.802 64.3999 104.102 64.3999 104.402 64.4999C104.702 64.5999 104.902 64.6999 105.102 64.8999C105.302 65.0999 105.502 65.3999 105.702 65.5999C105.802 65.8999 105.902 66.1999 105.902 66.4999C105.902 66.7999 105.902 67.0999 105.802 67.3999C105.702 67.6999 105.502 67.8999 105.402 68.0999C105.202 68.2999 105.002 68.4999 104.702 68.5999C104.402 68.6999 104.102 68.7999 103.802 68.7999C103.502 68.7999 103.202 68.7999 102.902 68.6999C102.602 68.5999 102.402 68.3999 102.202 68.2999C102.002 68.0999 101.802 67.8999 101.702 67.5999C101.502 67.3999 101.402 67.0999 101.402 66.6999Z" fill="white"/>
<path d="M111.801 62L114.901 62.2C115.301 62.2 115.701 62.3 116.001 62.4C116.301 62.5 116.601 62.7 116.801 62.9C117.001 63.1 117.201 63.3 117.301 63.6C117.401 63.9 117.501 64.2 117.401 64.6C117.401 65.1 117.201 65.5 116.901 65.8C116.601 66.1 116.201 66.3 115.701 66.5C116.001 66.5 116.201 66.6 116.501 66.8C116.701 66.9 116.901 67.1 117.101 67.3C117.301 67.5 117.401 67.8 117.501 68C117.601 68.3 117.601 68.6 117.601 68.9C117.601 69.3 117.501 69.7 117.301 70C117.101 70.3 116.901 70.5 116.601 70.7C116.301 70.9 116.001 71 115.601 71.1C115.201 71.2 114.801 71.2 114.401 71.2L111.301 71L111.801 62ZM112.501 70L114.301 70.1C114.501 70.1 114.701 70.1 114.901 70.1C115.101 70.1 115.301 70 115.501 69.9C115.701 69.8 115.901 69.7 116.001 69.5C116.101 69.3 116.201 69.1 116.301 68.7C116.301 68.2 116.201 67.8 115.901 67.5C115.601 67.2 115.101 67 114.501 67L112.701 66.9L112.501 70ZM112.801 65.8L114.501 65.9C114.701 65.9 114.901 65.9 115.201 65.9C115.401 65.9 115.601 65.8 115.701 65.7C115.901 65.6 116.001 65.5 116.101 65.3C116.201 65.1 116.301 64.9 116.301 64.7C116.301 64.3 116.201 64 116.001 63.7C115.801 63.4 115.401 63.3 114.901 63.2L113.001 63.1L112.801 65.8Z" fill="white"/>
<path d="M118.699 68.4998C118.799 68.0998 118.899 67.6998 119.099 67.2998C119.299 66.8998 119.599 66.5998 119.899 66.3998C120.199 66.1998 120.599 65.9998 120.999 65.8998C121.399 65.7998 121.799 65.7998 122.299 65.7998C122.699 65.8998 123.099 65.9998 123.499 66.1998C123.899 66.3998 124.199 66.6998 124.399 66.9998C124.599 67.2998 124.799 67.6998 124.899 68.0998C124.999 68.4998 124.999 68.8998 124.999 69.3998C124.999 69.8998 124.799 70.1998 124.599 70.5998C124.399 70.9998 124.099 71.2998 123.799 71.4998C123.499 71.6998 123.099 71.8998 122.699 71.9998C122.299 72.0998 121.899 72.0998 121.399 72.0998C120.999 71.9998 120.599 71.8998 120.199 71.6998C119.799 71.4998 119.499 71.1998 119.299 70.8998C119.099 70.5998 118.899 70.1998 118.799 69.7998C118.699 69.2998 118.699 68.8998 118.699 68.4998ZM119.899 68.5998C119.899 68.8998 119.899 69.1998 119.899 69.4998C119.999 69.7998 120.099 69.9998 120.199 70.1998C120.299 70.3998 120.499 70.5998 120.799 70.6998C120.999 70.7998 121.299 70.8998 121.599 70.9998C121.899 71.0998 122.199 70.9998 122.399 70.9998C122.699 70.8998 122.899 70.7998 123.099 70.6998C123.299 70.5998 123.499 70.2998 123.599 70.0998C123.699 69.8998 123.799 69.5998 123.899 69.2998C123.899 68.9998 123.899 68.6998 123.899 68.3998C123.799 68.0998 123.699 67.8998 123.599 67.6998C123.499 67.4998 123.299 67.2998 122.999 67.1998C122.699 67.0998 122.499 66.9998 122.199 66.8998C121.899 66.7998 121.599 66.8998 121.399 66.8998C121.099 66.9998 120.899 67.0998 120.699 67.1998C120.499 67.3998 120.299 67.5998 120.199 67.7998C120.099 68.0998 119.999 68.2998 119.899 68.5998Z" fill="white"/>
<path d="M127.902 63.2998L129.002 63.4998L127.002 72.8998L125.902 72.6998L127.902 63.2998Z" fill="white"/>
<path d="M129.099 70.2999C129.199 69.8999 129.399 69.4999 129.699 69.1999C129.999 68.8999 130.299 68.5999 130.599 68.3999C130.999 68.1999 131.299 68.0999 131.799 67.9999C132.199 67.8999 132.599 67.9999 133.099 68.0999C133.499 68.1999 133.899 68.3999 134.299 68.6999C134.599 68.9999 134.899 69.2999 135.099 69.5999C135.299 69.9999 135.399 70.2999 135.499 70.7999C135.599 71.1999 135.499 71.5999 135.399 72.0999C135.299 72.5999 135.099 72.8999 134.799 73.1999C134.499 73.4999 134.199 73.7999 133.899 73.9999C133.499 74.1999 133.199 74.2999 132.699 74.3999C132.199 74.4999 131.899 74.3999 131.399 74.2999C130.899 74.1999 130.599 73.9999 130.199 73.6999C129.799 73.3999 129.599 73.0999 129.399 72.7999C129.199 72.3999 129.099 72.0999 128.999 71.5999C128.899 71.0999 128.899 70.6999 129.099 70.2999ZM130.199 70.5999C130.099 70.8999 130.099 71.1999 130.099 71.4999C130.099 71.7999 130.199 71.9999 130.299 72.1999C130.399 72.3999 130.599 72.5999 130.799 72.7999C130.999 72.9999 131.299 73.0999 131.599 73.1999C131.899 73.2999 132.199 73.2999 132.399 73.2999C132.699 73.2999 132.899 73.1999 133.099 72.9999C133.299 72.8999 133.499 72.6999 133.699 72.4999C133.899 72.2999 133.999 71.9999 134.099 71.6999C134.199 71.3999 134.199 71.0999 134.199 70.7999C134.199 70.4999 134.099 70.2999 133.999 70.0999C133.899 69.8999 133.699 69.6999 133.499 69.4999C133.299 69.2999 132.999 69.1999 132.699 69.0999C132.399 68.9999 132.099 68.9999 131.899 68.9999C131.599 68.9999 131.399 69.0999 131.199 69.2999C130.999 69.3999 130.799 69.5999 130.599 69.7999C130.399 69.9999 130.299 70.2999 130.199 70.5999Z" fill="white"/>
<path d="M142.3 68.1001L143.4 68.5001L140.1 76.9001L139 76.5001L142.3 68.1001Z" fill="white"/>
<path d="M144.299 72.1001L145.299 72.6001L144.899 73.4001C145.199 73.2001 145.499 73.0001 145.899 73.0001C146.299 73.0001 146.699 73.0001 147.099 73.2001C147.399 73.3001 147.599 73.5001 147.799 73.7001C147.999 73.9001 148.199 74.1001 148.299 74.4001C148.399 74.7001 148.399 74.9001 148.399 75.3001C148.399 75.7001 148.299 76.0001 148.099 76.3001L146.499 79.8001L145.499 79.3001L146.999 76.1001C147.099 75.8001 147.199 75.6001 147.199 75.4001C147.199 75.2001 147.199 75.0001 147.099 74.8001C146.999 74.6001 146.899 74.5001 146.799 74.4001C146.699 74.3001 146.499 74.2001 146.399 74.1001C146.199 74.0001 145.999 73.9001 145.699 73.9001C145.499 73.9001 145.299 73.9001 145.099 74.0001C144.899 74.1001 144.699 74.2001 144.499 74.4001C144.299 74.6001 144.199 74.9001 143.999 75.2001L142.699 78.0001L141.699 77.5001L144.299 72.1001Z" fill="white"/>
<path d="M153.102 83.4002L152.102 82.8002L152.502 82.0002C152.102 82.2002 151.802 82.2002 151.302 82.2002C150.902 82.2002 150.502 82.0002 150.102 81.8002C149.702 81.6002 149.402 81.3002 149.102 81.0002C148.902 80.7002 148.702 80.3002 148.602 79.9002C148.502 79.5002 148.502 79.1002 148.602 78.7002C148.702 78.3002 148.802 77.9002 149.002 77.5002C149.202 77.1002 149.502 76.8002 149.802 76.5002C150.102 76.2002 150.502 76.0002 150.802 75.9002C151.202 75.8002 151.602 75.7002 152.002 75.8002C152.402 75.8002 152.802 76.0002 153.202 76.2002C153.602 76.4002 153.902 76.7002 154.102 77.0002C154.302 77.3002 154.502 77.7002 154.502 78.1002L156.702 74.2002L157.702 74.8002L153.102 83.4002ZM150.802 81.1002C151.102 81.3002 151.302 81.3002 151.602 81.4002C151.902 81.4002 152.102 81.4002 152.402 81.3002C152.602 81.2002 152.902 81.1002 153.102 80.9002C153.302 80.7002 153.502 80.5002 153.602 80.2002C153.802 79.9002 153.802 79.7002 153.902 79.4002C153.902 79.1002 153.902 78.9002 153.902 78.6002C153.802 78.4002 153.702 78.1002 153.602 77.9002C153.402 77.7002 153.202 77.5002 153.002 77.4002C152.702 77.2002 152.502 77.2002 152.202 77.1002C151.902 77.1002 151.702 77.1002 151.402 77.2002C151.202 77.3002 150.902 77.4002 150.702 77.6002C150.502 77.8002 150.302 78.0002 150.202 78.3002C150.002 78.6002 150.002 78.8002 149.902 79.1002C149.902 79.4002 149.902 79.6002 149.902 79.9002C150.002 80.1002 150.102 80.4002 150.202 80.6002C150.302 80.8002 150.602 80.9002 150.802 81.1002Z" fill="white"/>
<path d="M157.702 79.1999L158.702 79.7999L155.402 84.8999L154.402 84.2999L157.702 79.1999ZM158.702 77.2999C158.802 77.0999 159.002 76.9999 159.202 76.8999C159.402 76.8999 159.602 76.8999 159.802 76.9999C160.002 77.0999 160.102 77.2999 160.202 77.4999C160.302 77.6999 160.202 77.8999 160.102 78.0999C160.002 78.2999 159.802 78.3999 159.602 78.4999C159.402 78.5999 159.202 78.4999 159.002 78.3999C158.802 78.2999 158.702 78.0999 158.602 77.8999C158.502 77.6999 158.502 77.4999 158.702 77.2999Z" fill="white"/>
<path d="M159.802 81.4999C160.202 81.3999 160.702 81.4999 161.102 81.5999C161.502 81.6999 161.902 81.8999 162.302 82.1999C162.702 82.4999 162.902 82.6999 163.102 82.9999C163.302 83.2999 163.402 83.5999 163.502 83.7999C163.602 84.0999 163.502 84.2999 163.502 84.5999C163.402 84.8999 163.302 85.0999 163.202 85.2999L161.402 87.7999C161.302 87.9999 161.202 88.0999 161.102 88.2999C161.002 88.4999 160.902 88.5999 160.802 88.6999L160.002 88.0999C160.202 87.7999 160.302 87.5999 160.502 87.2999C160.102 87.4999 159.702 87.4999 159.302 87.3999C158.902 87.2999 158.502 87.1999 158.202 86.8999C158.002 86.6999 157.802 86.4999 157.602 86.2999C157.402 86.0999 157.302 85.8999 157.302 85.5999C157.302 85.2999 157.202 85.0999 157.302 84.8999C157.302 84.6999 157.502 84.3999 157.602 84.1999C157.802 83.8999 158.102 83.6999 158.402 83.5999C158.702 83.4999 159.002 83.4999 159.402 83.4999C159.702 83.4999 160.102 83.6999 160.502 83.7999C160.902 83.9999 161.202 84.1999 161.602 84.4999L162.302 84.9999L162.502 84.7999C162.602 84.6999 162.702 84.4999 162.702 84.3999C162.702 84.1999 162.802 84.0999 162.702 83.8999C162.602 83.6999 162.602 83.5999 162.502 83.3999C162.402 83.1999 162.202 83.0999 162.002 82.8999C161.802 82.7999 161.702 82.6999 161.502 82.5999C161.302 82.4999 161.202 82.4999 161.002 82.4999C160.802 82.4999 160.702 82.4999 160.602 82.4999C160.502 82.4999 160.302 82.4999 160.202 82.4999L159.802 81.4999ZM161.002 85.3999C160.802 85.1999 160.502 85.0999 160.302 84.8999C160.102 84.7999 159.802 84.5999 159.602 84.5999C159.402 84.4999 159.102 84.4999 158.902 84.5999C158.702 84.5999 158.502 84.7999 158.402 84.8999C158.202 85.1999 158.102 85.4999 158.202 85.6999C158.302 85.8999 158.502 86.1999 158.802 86.3999C159.102 86.5999 159.302 86.6999 159.502 86.6999C159.702 86.6999 160.002 86.6999 160.202 86.6999C160.402 86.5999 160.602 86.4999 160.802 86.3999C161.002 86.2999 161.102 86.0999 161.202 85.9999L161.402 85.6999L161.002 85.3999Z" fill="white"/>
<path d="M27.7 181.5L28.7 184.5C28.8 184.9 28.9 185.2 28.9 185.6C28.9 185.9 28.9 186.3 28.8 186.6C28.7 186.9 28.5 187.1 28.3 187.4C28.1 187.7 27.8 187.8 27.4 187.9C26.9 188.1 26.5 188.1 26.1 187.9C25.7 187.7 25.3 187.5 25.1 187.1C25.2 187.4 25.2 187.6 25.1 187.9C25.1 188.2 25 188.4 24.8 188.6C24.7 188.8 24.5 189 24.3 189.2C24.1 189.4 23.8 189.5 23.5 189.6C23.1 189.7 22.7 189.8 22.4 189.7C22.1 189.6 21.7 189.5 21.4 189.3C21.1 189.1 20.8 188.8 20.6 188.5C20.4 188.2 20.2 187.8 20 187.4L19 184.5L27.7 181.5ZM20.6 185.2L21.2 186.9C21.3 187.1 21.3 187.3 21.5 187.5C21.6 187.7 21.7 187.9 21.9 188C22.1 188.1 22.3 188.3 22.5 188.3C22.7 188.4 23 188.3 23.3 188.2C23.8 188 24.1 187.7 24.3 187.3C24.4 186.9 24.4 186.4 24.2 185.8L23.6 184.1L20.6 185.2ZM24.6 183.8L25.1 185.4C25.2 185.6 25.3 185.8 25.4 186C25.5 186.2 25.6 186.3 25.8 186.4C26 186.5 26.1 186.6 26.3 186.6C26.5 186.6 26.7 186.6 26.9 186.5C27.2 186.4 27.5 186.2 27.7 185.9C27.9 185.6 27.9 185.2 27.7 184.7L27.1 182.9L24.6 183.8Z" fill="white"/>
<path d="M30.6984 188.2L31.1984 189.3L27.0984 191.1C27.4984 191.1 27.7984 191.2 28.0984 191.5C28.3984 191.8 28.6984 192.1 28.8984 192.5C28.9984 192.8 29.0984 193 29.0984 193.3C29.0984 193.6 29.0984 193.9 28.9984 194.1C28.8984 194.4 28.7984 194.6 28.4984 194.8C28.1984 195 27.9984 195.2 27.5984 195.4L23.9984 197L23.4984 196L26.7984 194.6C27.0984 194.5 27.2984 194.4 27.3984 194.2C27.4984 194 27.6984 193.9 27.6984 193.7C27.7984 193.5 27.7984 193.4 27.7984 193.2C27.7984 193 27.6984 192.9 27.6984 192.7C27.5984 192.5 27.4984 192.3 27.2984 192.1C27.0984 191.9 26.9984 191.8 26.7984 191.8C26.5984 191.7 26.2984 191.7 26.0984 191.7C25.8984 191.7 25.4984 191.8 25.1984 191.9L22.3984 193.2L21.8984 192.1L30.6984 188.2Z" fill="white"/>
<path d="M29.6992 196.3C30.0992 196.4 30.4992 196.7 30.7992 197C31.0992 197.3 31.3992 197.6 31.5992 198C31.7992 198.4 31.8992 198.8 31.9992 199.1C32.0992 199.4 31.9992 199.7 31.9992 200C31.8992 200.3 31.7992 200.5 31.5992 200.7C31.3992 200.9 31.1992 201.1 30.9992 201.2L28.2992 202.7C28.0992 202.8 27.8992 202.9 27.7992 203C27.6992 203.1 27.4992 203.2 27.3992 203.3L26.8992 202.4C27.1992 202.2 27.3992 202.1 27.6992 201.9C27.1992 201.9 26.7992 201.7 26.4992 201.5C26.1992 201.3 25.8992 201 25.6992 200.5C25.5992 200.3 25.4992 200 25.3992 199.7C25.2992 199.4 25.2992 199.2 25.3992 198.9C25.3992 198.7 25.4992 198.4 25.6992 198.2C25.7992 198 26.0992 197.8 26.2992 197.7C26.5992 197.5 26.9992 197.4 27.2992 197.5C27.5992 197.5 27.8992 197.6 28.1992 197.8C28.4992 198 28.7992 198.2 28.9992 198.6C29.2992 198.9 29.4992 199.3 29.6992 199.7L30.0992 200.4L30.2992 200.3C30.3992 200.2 30.5992 200.1 30.6992 200C30.7992 199.9 30.8992 199.7 30.8992 199.6C30.9992 199.4 30.9992 199.3 30.8992 199.1C30.7992 198.9 30.7992 198.7 30.6992 198.5C30.5992 198.3 30.4992 198.1 30.3992 198C30.2992 197.9 30.1992 197.8 29.9992 197.7C29.7992 197.6 29.7992 197.5 29.5992 197.5C29.4992 197.4 29.3992 197.4 29.1992 197.3L29.6992 196.3ZM29.0992 200.3C28.9992 200.1 28.7992 199.8 28.6992 199.6C28.4992 199.4 28.3992 199.2 28.1992 199C27.9992 198.8 27.7992 198.7 27.5992 198.7C27.3992 198.6 27.1992 198.7 26.9992 198.8C26.6992 199 26.4992 199.2 26.4992 199.5C26.4992 199.8 26.5992 200.1 26.6992 200.4C26.7992 200.7 26.9992 200.9 27.1992 201C27.3992 201.1 27.5992 201.2 27.7992 201.3C27.9992 201.3 28.1992 201.3 28.3992 201.3C28.5992 201.3 28.7992 201.2 28.9992 201.1L29.2992 200.9L29.0992 200.3Z" fill="white"/>
<path d="M33.8994 205.2C33.9994 205 33.9994 204.8 33.9994 204.5C33.9994 204.2 33.8994 204 33.7994 203.8C33.6994 203.6 33.4994 203.4 33.2994 203.3C33.0994 203.2 32.8994 203.2 32.6994 203.3C32.4994 203.4 32.4994 203.5 32.3994 203.7C32.3994 203.9 32.3994 204 32.3994 204.2C32.3994 204.4 32.4994 204.5 32.4994 204.7C32.5994 204.9 32.5994 205 32.6994 205.1C32.7994 205.3 32.7994 205.6 32.8994 205.8C32.8994 206 32.8994 206.2 32.8994 206.5C32.8994 206.7 32.7994 206.9 32.6994 207.1C32.5994 207.3 32.3994 207.4 32.1994 207.6C31.8994 207.8 31.5994 207.9 31.2994 207.9C30.9994 207.9 30.7994 207.9 30.4994 207.7C30.1994 207.5 29.9994 207.4 29.7994 207.2C29.5994 207 29.3994 206.8 29.1994 206.5C28.8994 206.1 28.7994 205.7 28.6994 205.3C28.5994 204.9 28.6994 204.5 28.8994 204L29.9994 204.4C29.8994 204.7 29.8994 204.9 29.8994 205.2C29.8994 205.5 29.9994 205.7 30.1994 206C30.2994 206.1 30.3994 206.2 30.4994 206.3C30.5994 206.4 30.6994 206.5 30.7994 206.6C30.8994 206.7 30.9994 206.7 31.1994 206.7C31.2994 206.7 31.3994 206.7 31.4994 206.6C31.5994 206.5 31.6994 206.4 31.7994 206.2C31.7994 206.1 31.7994 205.9 31.7994 205.7C31.7994 205.5 31.6994 205.4 31.6994 205.2C31.5994 205 31.5994 204.9 31.4994 204.8C31.3994 204.6 31.3994 204.3 31.2994 204.1C31.1994 203.9 31.1994 203.7 31.1994 203.4C31.1994 203.2 31.2994 203 31.3994 202.8C31.4994 202.6 31.6994 202.4 31.8994 202.3C32.1994 202.1 32.3994 202 32.6994 202C32.9994 202 33.1994 202 33.4994 202.1C33.7994 202.2 33.9994 202.3 34.1994 202.5C34.3994 202.7 34.5994 202.9 34.6994 203.1C34.8994 203.4 35.0994 203.8 35.0994 204.2C35.1994 204.6 35.0994 205 34.8994 205.4L33.8994 205.2Z" fill="white"/>
<path d="M39.4008 204.2L40.1008 205.1L36.4008 207.8C36.7008 207.7 37.1008 207.8 37.5008 207.9C37.9008 208 38.2008 208.3 38.5008 208.7C38.7008 208.9 38.8008 209.2 38.9008 209.5C39.0008 209.8 39.0008 210 39.0008 210.3C39.0008 210.6 38.9008 210.8 38.7008 211.1C38.5008 211.4 38.3008 211.6 38.0008 211.9L34.9008 214.2L34.2008 213.3L37.1008 211.2C37.3008 211 37.5008 210.9 37.6008 210.7C37.7008 210.5 37.8008 210.3 37.8008 210.2C37.8008 210 37.8008 209.9 37.8008 209.7C37.7008 209.5 37.7008 209.4 37.6008 209.2C37.5008 209 37.3008 208.9 37.1008 208.7C36.9008 208.5 36.7008 208.5 36.5008 208.5C36.3008 208.5 36.0008 208.5 35.8008 208.6C35.5008 208.7 35.3008 208.8 35.0008 209L32.5008 210.8L31.8008 209.9L39.4008 204.2Z" fill="white"/>
<path d="M40.1 212.4C40.5 212.5 40.9 212.6 41.3 212.8C41.7 213 42 213.3 42.3 213.6C42.6 213.9 42.8 214.3 42.9 214.6C43 214.9 43.1 215.2 43.1 215.5C43.1 215.8 43 216 42.9 216.3C42.8 216.5 42.6 216.7 42.4 216.9L40.1 218.9C39.9 219 39.8 219.2 39.7 219.3C39.6 219.4 39.4 219.5 39.3 219.7L38.6 218.9C38.8 218.7 39 218.5 39.3 218.3C38.8 218.4 38.4 218.3 38.1 218.2C37.8 218.1 37.4 217.8 37.1 217.4C36.9 217.2 36.8 217 36.7 216.7C36.6 216.5 36.5 216.2 36.5 216C36.5 215.8 36.5 215.5 36.6 215.3C36.7 215.1 36.9 214.9 37.1 214.7C37.4 214.4 37.7 214.3 38 214.3C38.3 214.3 38.6 214.3 39 214.4C39.3 214.5 39.6 214.7 40 215C40.4 215.3 40.6 215.6 40.9 215.9L41.4 216.5L41.6 216.3C41.7 216.2 41.8 216.1 41.9 215.9C42 215.8 42 215.6 42 215.4C42 215.2 42 215.1 41.9 214.9C41.8 214.7 41.7 214.5 41.6 214.3C41.5 214.1 41.3 214 41.2 213.9C41.1 213.8 40.9 213.7 40.8 213.7C40.7 213.6 40.5 213.6 40.4 213.6C40.3 213.6 40.1 213.5 40 213.5L40.1 212.4ZM40.4 216.5C40.2 216.3 40 216.1 39.8 215.9C39.6 215.7 39.4 215.5 39.2 215.4C39 215.3 38.8 215.2 38.6 215.2C38.4 215.2 38.2 215.3 38 215.4C37.7 215.6 37.6 215.9 37.7 216.2C37.8 216.5 37.9 216.8 38.1 217.1C38.3 217.3 38.5 217.5 38.7 217.6C38.9 217.7 39.1 217.7 39.4 217.7C39.7 217.7 39.8 217.6 40 217.6C40.2 217.5 40.4 217.4 40.5 217.3L40.8 217.1L40.4 216.5Z" fill="white"/>
<path d="M48.7 222.6C48.7 222.4 48.7 222.2 48.6 221.9C48.5 221.7 48.4 221.5 48.2 221.3C48 221.1 47.8 221 47.6 220.9C47.4 220.8 47.2 220.9 47 221.1C46.9 221.2 46.8 221.4 46.8 221.5C46.8 221.7 46.8 221.8 46.9 222C47 222.2 47.1 222.3 47.2 222.5C47.3 222.6 47.4 222.8 47.5 222.9C47.6 223.1 47.8 223.3 47.9 223.5C48 223.7 48.1 223.9 48.1 224.1C48.1 224.3 48.1 224.5 48 224.7C47.9 224.9 47.8 225.1 47.6 225.3C47.4 225.5 47.1 225.7 46.8 225.8C46.5 225.9 46.3 225.9 46 225.8C45.7 225.8 45.5 225.7 45.2 225.5C44.9 225.3 44.7 225.2 44.5 225C44.1 224.7 43.9 224.3 43.7 223.9C43.5 223.5 43.5 223.1 43.5 222.6L44.6 222.7C44.6 223 44.6 223.2 44.7 223.5C44.8 223.8 44.9 224 45.2 224.2C45.3 224.3 45.4 224.4 45.6 224.5C45.7 224.6 45.9 224.6 46 224.7C46.1 224.8 46.3 224.7 46.4 224.7C46.5 224.7 46.6 224.6 46.7 224.5C46.8 224.4 46.9 224.2 46.9 224.1C46.9 223.9 46.9 223.8 46.8 223.6C46.7 223.4 46.7 223.3 46.6 223.2C46.5 223.1 46.4 222.9 46.3 222.8C46.2 222.6 46 222.4 45.9 222.2C45.8 222 45.7 221.8 45.7 221.6C45.7 221.4 45.7 221.2 45.7 221C45.8 220.8 45.9 220.6 46.1 220.4C46.3 220.2 46.6 220 46.8 219.9C47.1 219.8 47.3 219.8 47.6 219.8C47.9 219.8 48.1 219.9 48.4 220.1C48.7 220.2 48.9 220.4 49.1 220.6C49.4 220.9 49.6 221.2 49.8 221.6C50 222 50 222.4 49.9 222.8L48.7 222.6Z" fill="white"/>
<path d="M51.0015 223.7C51.4015 223.7 51.9015 223.7 52.3015 223.9C52.7015 224.1 53.1015 224.3 53.4015 224.5C53.7015 224.8 54.0015 225.1 54.2015 225.4C54.4015 225.7 54.5015 226 54.5015 226.2C54.5015 226.5 54.5015 226.7 54.4015 227C54.3015 227.3 54.2015 227.5 54.0015 227.7L52.0015 230.1C51.9015 230.3 51.7015 230.4 51.6015 230.6C51.5015 230.7 51.4015 230.9 51.3015 231L50.5015 230.4C50.7015 230.1 50.9015 229.9 51.1015 229.7C50.7015 229.8 50.2015 229.9 49.9015 229.8C49.5015 229.7 49.2015 229.5 48.8015 229.2C48.6015 229 48.4015 228.8 48.3015 228.6C48.2015 228.4 48.1015 228.1 48.0015 227.9C47.9015 227.7 48.0015 227.4 48.0015 227.2C48.1015 227 48.2015 226.7 48.4015 226.5C48.6015 226.2 48.9015 226 49.2015 225.9C49.5015 225.8 49.8015 225.8 50.2015 225.9C50.5015 226 50.9015 226.1 51.2015 226.3C51.6015 226.5 51.9015 226.7 52.3015 227L53.0015 227.5L53.2015 227.3C53.3015 227.2 53.4015 227 53.4015 226.9C53.4015 226.8 53.5015 226.6 53.5015 226.4C53.5015 226.2 53.4015 226.1 53.3015 225.9C53.2015 225.7 53.1015 225.6 52.9015 225.4C52.7015 225.3 52.6015 225.2 52.4015 225.1C52.2015 225 52.1015 225 51.9015 224.9C51.8015 224.9 51.6015 224.8 51.5015 224.8C51.4015 224.8 51.2015 224.8 51.1015 224.8L51.0015 223.7ZM52.0015 227.6C51.8015 227.4 51.6015 227.3 51.3015 227.1C51.1015 226.9 50.8015 226.8 50.6015 226.7C50.4015 226.6 50.1015 226.6 49.9015 226.6C49.7015 226.6 49.5015 226.7 49.4015 226.9C49.2015 227.2 49.1015 227.4 49.2015 227.7C49.3015 228 49.5015 228.2 49.8015 228.5C50.0015 228.7 50.3015 228.8 50.5015 228.9C50.7015 229 51.0015 229 51.2015 228.9C51.4015 228.9 51.6015 228.8 51.8015 228.6C52.0015 228.5 52.1015 228.3 52.3015 228.2L52.5015 227.9L52.0015 227.6Z" fill="white"/>
<path d="M56.4992 227.2L57.3992 227.8L56.8992 228.6C56.9992 228.5 57.0992 228.5 57.1992 228.4C57.2992 228.3 57.4992 228.3 57.6992 228.3C57.8992 228.3 58.0992 228.3 58.3992 228.4C58.5992 228.5 58.8992 228.6 59.0992 228.7C59.4992 228.9 59.6992 229.2 59.8992 229.6C60.0992 230 60.0992 230.3 60.0992 230.7C60.4992 230.5 60.8992 230.4 61.2992 230.5C61.6992 230.5 62.0992 230.7 62.3992 230.9C62.7992 231.2 63.0992 231.4 63.1992 231.7C63.3992 232 63.3992 232.3 63.3992 232.6C63.3992 232.9 63.2992 233.2 63.1992 233.5C63.0992 233.8 62.8992 234.1 62.6992 234.4L60.7992 237.3L59.7992 236.7L61.6992 233.9C61.7992 233.7 61.8992 233.5 61.9992 233.3C62.0992 233.1 62.0992 232.9 62.1992 232.7C62.1992 232.5 62.1992 232.3 62.0992 232.2C61.9992 232 61.8992 231.9 61.5992 231.7C61.0992 231.4 60.6992 231.3 60.2992 231.5C59.8992 231.7 59.5992 231.9 59.2992 232.4L57.4992 235.2L56.4992 234.6L58.2992 232C58.4992 231.8 58.5992 231.5 58.6992 231.3C58.7992 231.1 58.8992 230.9 58.8992 230.7C58.8992 230.5 58.8992 230.3 58.7992 230.1C58.6992 229.9 58.5992 229.8 58.2992 229.6C58.0992 229.5 57.8992 229.4 57.6992 229.4C57.4992 229.4 57.2992 229.4 57.0992 229.4C56.8992 229.5 56.6992 229.6 56.4992 229.7C56.2992 229.9 56.0992 230.1 55.8992 230.4L54.1992 233L53.1992 232.4L56.4992 227.2Z" fill="white"/>
<path d="M65.2 233.7C65.6 233.6 66.1 233.6 66.5 233.6C66.9 233.7 67.4 233.8 67.7 234C68.1 234.2 68.4 234.4 68.6 234.7C68.8 234.9 69 235.2 69.1 235.5C69.2 235.8 69.2 236 69.2 236.3C69.2 236.6 69.1 236.8 69 237L67.6 239.7C67.5 239.9 67.4 240.1 67.3 240.2C67.2 240.4 67.2 240.5 67.1 240.7L66.2 240.2C66.3 239.9 66.5 239.6 66.6 239.4C66.2 239.6 65.8 239.7 65.4 239.7C65 239.7 64.6 239.6 64.2 239.3C64 239.2 63.7 239 63.5 238.8C63.3 238.6 63.2 238.4 63.1 238.2C63 238 63 237.7 63 237.5C63 237.3 63.1 237 63.2 236.7C63.4 236.4 63.6 236.1 63.9 236C64.2 235.8 64.5 235.8 64.8 235.8C65.1 235.8 65.5 235.9 65.9 236C66.3 236.1 66.7 236.3 67.1 236.5L67.8 236.9L67.9 236.7C68 236.6 68 236.4 68 236.3C68 236.1 68 236 68 235.8C68 235.6 67.9 235.5 67.7 235.3C67.6 235.2 67.4 235 67.2 234.9C67 234.8 66.8 234.7 66.7 234.7C66.5 234.7 66.4 234.6 66.2 234.6C66 234.6 65.9 234.6 65.8 234.6C65.7 234.6 65.5 234.6 65.4 234.7L65.2 233.7ZM66.9 237.3C66.7 237.2 66.4 237.1 66.1 236.9C65.8 236.8 65.6 236.7 65.3 236.7C65.1 236.7 64.8 236.7 64.6 236.7C64.4 236.8 64.2 236.9 64.1 237.1C63.9 237.4 63.9 237.7 64.1 237.9C64.3 238.1 64.5 238.4 64.8 238.5C65.1 238.6 65.3 238.7 65.6 238.7C65.8 238.7 66.1 238.7 66.3 238.6C66.5 238.5 66.7 238.4 66.8 238.2C66.9 238 67.1 237.9 67.2 237.7L67.4 237.4L66.9 237.3Z" fill="white"/>
<path d="M71.2992 236L72.2992 236.5L71.8992 237.3C71.9992 237.2 72.1992 237.1 72.3992 237C72.5992 236.9 72.6992 236.9 72.8992 236.9C73.0992 236.9 73.2992 236.9 73.4992 236.9C73.6992 236.9 73.8992 237 73.9992 237.1C74.1992 237.2 74.2992 237.3 74.3992 237.4L73.7992 238.5C73.6992 238.4 73.5992 238.4 73.5992 238.3C73.4992 238.2 73.3992 238.2 73.3992 238.2C72.8992 238 72.3992 237.9 71.9992 238.1C71.5992 238.3 71.2992 238.6 70.9992 239.3L69.6992 242.1L68.6992 241.6L71.2992 236Z" fill="white"/>
<path d="M78.2 240L76.7 239.4L75.7 242C75.6 242.2 75.6 242.3 75.5 242.5C75.4 242.7 75.4 242.8 75.4 243C75.4 243.2 75.4 243.3 75.5 243.4C75.6 243.5 75.7 243.6 75.9 243.7C76 243.7 76.2 243.8 76.3 243.8C76.4 243.8 76.6 243.8 76.7 243.8L76.3 244.8C76.1 244.8 76 244.8 75.7 244.8C75.5 244.7 75.3 244.7 75.2 244.7C74.8 244.5 74.5 244.4 74.3 244.2C74.1 244 74 243.8 74 243.6C74 243.4 74 243.1 74 242.9C74.1 242.7 74.1 242.4 74.2 242.2L75.3 239.3L74.1 238.8L74.5 237.9L75.7 238.4L76.3 236.8L77.4 237.2L76.8 238.8L78.3 239.4L78.2 240Z" fill="white"/>
<path d="M80.9016 236.1L82.0016 236.4L80.6016 240.7C80.8016 240.4 81.2016 240.3 81.6016 240.2C82.0016 240.1 82.4016 240.1 82.9016 240.3C83.2016 240.4 83.4016 240.5 83.7016 240.7C83.9016 240.9 84.1016 241.1 84.2016 241.3C84.3016 241.5 84.4016 241.8 84.4016 242.1C84.4016 242.4 84.4016 242.8 84.3016 243.1L83.1016 246.8L82.0016 246.5L83.1016 243.1C83.2016 242.8 83.2016 242.6 83.2016 242.4C83.2016 242.2 83.1016 242 83.1016 241.8C83.0016 241.6 82.9016 241.5 82.8016 241.4C82.7016 241.3 82.5016 241.2 82.3016 241.2C82.1016 241.1 81.9016 241.1 81.6016 241.1C81.3016 241.1 81.2016 241.2 81.0016 241.3C80.8016 241.4 80.6016 241.6 80.5016 241.8C80.3016 242 80.2016 242.3 80.1016 242.6L79.2016 245.6L78.1016 245.3L80.9016 236.1Z" fill="white"/>
<path d="M86.4016 242.3C86.8016 242.1 87.2016 242 87.6016 241.9C88.0016 241.8 88.5016 241.9 88.9016 242C89.3016 242.1 89.7016 242.2 90.0016 242.4C90.3016 242.6 90.5016 242.8 90.7016 243C90.9016 243.2 91.0016 243.5 91.0016 243.7C91.0016 244 91.0016 244.2 91.0016 244.5L90.3016 247.5C90.3016 247.7 90.2016 247.9 90.2016 248.1C90.2016 248.3 90.1016 248.4 90.1016 248.6L89.1016 248.4C89.1016 248.1 89.2016 247.8 89.3016 247.5C89.0016 247.8 88.6016 248 88.2016 248.1C87.8016 248.2 87.4016 248.2 87.0016 248.1C86.7016 248 86.5016 247.9 86.2016 247.8C86.0016 247.7 85.8016 247.5 85.6016 247.3C85.4016 247.1 85.3016 246.9 85.3016 246.6C85.2016 246.4 85.2016 246.1 85.3016 245.8C85.4016 245.4 85.5016 245.1 85.8016 244.9C86.0016 244.7 86.3016 244.5 86.6016 244.4C86.9016 244.3 87.3016 244.3 87.7016 244.3C88.1016 244.3 88.5016 244.4 89.0016 244.5L89.8016 244.7L89.9016 244.5C89.9016 244.4 89.9016 244.2 89.9016 244C89.9016 243.8 89.8016 243.7 89.7016 243.5C89.6016 243.4 89.5016 243.2 89.3016 243.1C89.1016 243 88.9016 242.9 88.7016 242.9C88.5016 242.9 88.3016 242.8 88.1016 242.8C87.9016 242.8 87.8016 242.8 87.6016 242.9C87.5016 242.9 87.3016 243 87.2016 243C87.1016 243.1 87.0016 243.1 86.8016 243.2L86.4016 242.3ZM89.0016 245.4C88.7016 245.3 88.5016 245.3 88.2016 245.3C87.9016 245.3 87.6016 245.3 87.4016 245.3C87.2016 245.3 86.9016 245.4 86.8016 245.5C86.7016 245.6 86.5016 245.8 86.5016 246C86.4016 246.3 86.5016 246.6 86.7016 246.8C86.9016 247 87.2016 247.1 87.6016 247.2C87.9016 247.3 88.2016 247.3 88.4016 247.2C88.6016 247.1 88.8016 247.1 89.0016 246.9C89.2016 246.7 89.3016 246.6 89.4016 246.4C89.5016 246.2 89.6016 246 89.6016 245.8L89.7016 245.4H89.0016Z" fill="white"/>
<path d="M93.4 239.4L94.5 239.6L93.6 245.8L96.6 243.6L98.2 243.8L95 246.1L97.5 249.8L95.9 249.6L93.6 246.1L93.1 249.2L92 249L93.4 239.4Z" fill="white"/>
<path d="M102.801 245.7C102.801 245.4 102.901 245.1 103.001 244.8C103.101 244.5 103.301 244.3 103.501 244.1C103.701 243.9 104.001 243.8 104.201 243.6C104.501 243.5 104.801 243.4 105.101 243.5C105.401 243.5 105.701 243.6 106.001 243.7C106.301 243.8 106.501 244 106.701 244.2C106.901 244.4 107.001 244.7 107.201 244.9C107.301 245.2 107.401 245.5 107.301 245.8C107.301 246.1 107.201 246.4 107.101 246.7C107.001 247 106.801 247.2 106.601 247.4C106.401 247.6 106.101 247.7 105.901 247.9C105.601 248 105.301 248.1 105.001 248C104.701 248 104.401 247.9 104.101 247.8C103.801 247.7 103.601 247.5 103.401 247.3C103.201 247.1 103.101 246.8 102.901 246.6C102.801 246.3 102.801 246 102.801 245.7Z" fill="white"/>
<path d="M112.602 241.3L115.702 241.1C116.102 241.1 116.502 241.1 116.802 241.2C117.102 241.3 117.402 241.4 117.702 241.5C118.002 241.6 118.202 241.9 118.302 242.2C118.502 242.5 118.602 242.8 118.602 243.2C118.602 243.7 118.502 244.2 118.302 244.5C118.002 244.8 117.702 245.1 117.202 245.3C117.502 245.3 117.702 245.3 118.002 245.5C118.202 245.6 118.502 245.7 118.702 245.9C118.902 246.1 119.002 246.3 119.202 246.6C119.302 246.9 119.402 247.1 119.402 247.4C119.402 247.8 119.402 248.2 119.202 248.5C119.002 248.8 118.902 249.1 118.602 249.3C118.302 249.5 118.002 249.7 117.602 249.9C117.202 250 116.802 250.1 116.402 250.2L113.302 250.4L112.602 241.3ZM114.102 245L115.802 244.9C116.002 244.9 116.202 244.8 116.402 244.8C116.602 244.7 116.802 244.6 116.902 244.5C117.002 244.4 117.202 244.2 117.202 244.1C117.302 243.9 117.302 243.7 117.302 243.5C117.302 243.1 117.102 242.8 116.902 242.6C116.702 242.4 116.302 242.3 115.802 242.3L113.902 242.4L114.102 245ZM114.402 249.2L116.202 249.1C116.402 249.1 116.602 249.1 116.802 249C117.002 248.9 117.202 248.9 117.402 248.7C117.602 248.6 117.702 248.4 117.902 248.2C118.002 248 118.102 247.7 118.002 247.4C118.002 246.9 117.802 246.5 117.402 246.2C117.002 246 116.602 245.9 116.002 245.9L114.202 246L114.402 249.2Z" fill="white"/>
<path d="M120.398 243.6L121.498 243.4L121.598 244.3C121.698 244.1 121.698 244 121.798 243.8C121.898 243.7 121.998 243.5 122.198 243.4C122.298 243.3 122.498 243.2 122.698 243.1C122.898 243 123.098 243 123.198 242.9C123.398 242.9 123.598 242.9 123.698 242.9L123.798 244.1C123.698 244.1 123.598 244.1 123.498 244.1C123.398 244.1 123.298 244.1 123.198 244.1C122.598 244.2 122.198 244.4 121.998 244.8C121.798 245.2 121.698 245.7 121.798 246.3L122.298 249.3L121.198 249.5L120.398 243.6Z" fill="white"/>
<path d="M125.098 246C124.998 245.6 124.998 245.1 125.098 244.7C125.198 244.3 125.298 243.9 125.598 243.6C125.798 243.3 126.098 243 126.498 242.7C126.798 242.5 127.198 242.3 127.698 242.2C128.098 242.1 128.598 242.1 128.998 242.2C129.398 242.3 129.798 242.4 130.098 242.6C130.398 242.8 130.698 243.1 130.998 243.4C131.198 243.7 131.398 244.1 131.498 244.6C131.598 245 131.598 245.5 131.498 245.9C131.398 246.3 131.298 246.7 130.998 247C130.798 247.3 130.498 247.6 130.098 247.9C129.698 248.2 129.398 248.3 128.898 248.4C128.398 248.5 127.998 248.5 127.598 248.4C127.198 248.3 126.798 248.2 126.498 248C126.198 247.8 125.898 247.5 125.598 247.2C125.398 246.8 125.198 246.4 125.098 246ZM126.298 245.7C126.398 246 126.498 246.3 126.598 246.5C126.698 246.7 126.898 246.9 127.098 247.1C127.298 247.2 127.498 247.3 127.798 247.4C128.098 247.5 128.298 247.4 128.598 247.4C128.898 247.3 129.198 247.2 129.398 247.1C129.598 246.9 129.798 246.8 129.898 246.5C129.998 246.3 130.098 246 130.098 245.8C130.098 245.6 130.098 245.2 130.098 244.9C129.998 244.6 129.898 244.3 129.798 244.1C129.698 243.9 129.498 243.7 129.298 243.5C129.098 243.4 128.898 243.3 128.598 243.2C128.298 243.1 128.098 243.2 127.798 243.2C127.498 243.3 127.198 243.4 126.998 243.5C126.798 243.7 126.598 243.8 126.498 244.1C126.398 244.3 126.298 244.6 126.298 244.8C126.298 245.1 126.298 245.4 126.298 245.7Z" fill="white"/>
<path d="M132 241.3L133.1 241L133.4 241.9C133.4 241.5 133.6 241.2 133.9 240.9C134.2 240.6 134.5 240.4 135 240.2C135.3 240.1 135.6 240.1 135.8 240.1C136.1 240.1 136.3 240.2 136.6 240.3C136.8 240.4 137.1 240.6 137.3 240.8C137.5 241 137.7 241.4 137.8 241.7L138.9 245.4L137.8 245.7L136.8 242.3C136.7 242 136.6 241.8 136.5 241.6C136.4 241.4 136.2 241.3 136.1 241.2C135.9 241.1 135.8 241.1 135.6 241.1C135.4 241.1 135.3 241.1 135.1 241.2C134.9 241.3 134.7 241.4 134.5 241.5C134.3 241.6 134.2 241.8 134.1 242C134 242.2 134 242.4 133.9 242.7C133.9 243 133.9 243.3 134 243.6L134.9 246.6L133.8 246.9L132 241.3Z" fill="white"/>
<path d="M140.101 244L141.801 239L138.701 240.2L138.301 239.3L142.701 237.6L143.101 238.5L141.301 243.5L144.701 242.2L145.101 243.1L140.401 244.9L140.101 244Z" fill="white"/>
<path d="M146.302 239.8C146.402 240 146.602 240.2 146.802 240.4C147.002 240.5 147.202 240.6 147.402 240.7C147.602 240.8 147.902 240.8 148.102 240.7C148.402 240.7 148.602 240.6 148.802 240.5C149.102 240.3 149.402 240.1 149.502 239.9C149.702 239.6 149.802 239.3 149.902 239L151.002 239.2C150.802 240.2 150.202 241 149.102 241.5C148.702 241.7 148.202 241.8 147.802 241.8C147.402 241.8 147.002 241.8 146.602 241.6C146.202 241.5 145.902 241.2 145.602 241C145.302 240.8 145.102 240.4 144.902 240C144.702 239.6 144.602 239.2 144.602 238.8C144.602 238.4 144.602 238 144.802 237.6C144.902 237.2 145.102 236.9 145.402 236.6C145.702 236.3 146.002 236 146.402 235.8C146.902 235.6 147.302 235.5 147.702 235.5C148.102 235.5 148.502 235.6 148.802 235.8C149.102 236 149.402 236.2 149.702 236.5C150.002 236.8 150.202 237.1 150.302 237.5L150.502 237.9L146.302 239.8ZM149.202 237.4C149.102 237.2 148.902 237 148.802 236.8C148.602 236.6 148.502 236.5 148.302 236.4C148.102 236.3 147.902 236.3 147.702 236.3C147.502 236.3 147.202 236.4 147.002 236.5C146.702 236.6 146.502 236.8 146.402 237C146.202 237.2 146.102 237.4 146.002 237.6C145.902 237.8 145.902 238 145.902 238.3C145.902 238.5 146.002 238.7 146.002 238.9L149.202 237.4Z" fill="white"/>
<path d="M158.301 227.8C157.901 227.7 157.501 227.6 157.101 227.7C156.701 227.8 156.301 227.9 155.901 228.1C155.501 228.4 155.101 228.7 154.901 229.1C154.701 229.5 154.501 229.9 154.401 230.3C154.301 230.7 154.401 231.2 154.501 231.7C154.601 232.2 154.801 232.6 155.101 233C155.401 233.4 155.701 233.7 156.001 234C156.401 234.3 156.701 234.5 157.201 234.6C157.601 234.7 158.101 234.7 158.501 234.7C158.901 234.7 159.401 234.5 159.801 234.2C160.201 233.9 160.601 233.6 160.801 233.2C161.001 232.8 161.101 232.4 161.101 231.9L162.401 232C162.401 232.1 162.401 232.3 162.301 232.5C162.201 232.7 162.201 233 162.001 233.3C161.901 233.6 161.701 233.9 161.401 234.2C161.101 234.5 160.801 234.8 160.401 235.1C159.801 235.5 159.201 235.7 158.601 235.8C158.001 235.9 157.401 235.9 156.801 235.7C156.201 235.5 155.701 235.3 155.201 234.9C154.701 234.5 154.301 234.1 154.001 233.7C153.601 233.1 153.401 232.5 153.201 231.9C153.001 231.3 153.101 230.7 153.201 230.1C153.301 229.5 153.501 229 153.901 228.5C154.301 228 154.701 227.5 155.301 227.2C155.801 226.9 156.401 226.7 157.001 226.5C157.601 226.4 158.201 226.4 158.801 226.6L158.301 227.8Z" fill="white"/>
<path d="M162.399 230C162.099 229.7 161.899 229.3 161.799 228.9C161.699 228.5 161.699 228.1 161.699 227.7C161.699 227.3 161.899 226.9 162.099 226.5C162.299 226.1 162.599 225.8 162.899 225.5C163.299 225.2 163.599 225 163.999 224.9C164.399 224.8 164.799 224.8 165.199 224.8C165.599 224.8 165.999 225 166.399 225.2C166.799 225.4 167.099 225.7 167.399 226C167.699 226.3 167.899 226.7 167.999 227.1C168.099 227.5 168.099 227.9 168.099 228.3C167.999 228.7 167.899 229.1 167.699 229.5C167.499 229.9 167.199 230.2 166.899 230.5C166.499 230.8 166.199 231 165.799 231.1C165.399 231.2 164.999 231.2 164.599 231.2C164.199 231.2 163.799 231 163.399 230.8C162.999 230.6 162.599 230.3 162.399 230ZM163.299 229.2C163.499 229.4 163.699 229.6 163.899 229.8C164.099 229.9 164.399 230 164.599 230.1C164.799 230.1 165.099 230.1 165.399 230.1C165.699 230 165.899 229.9 166.199 229.7C166.399 229.5 166.599 229.3 166.799 229.1C166.999 228.9 166.999 228.6 166.999 228.4C166.999 228.2 166.999 227.9 166.899 227.6C166.799 227.3 166.699 227.1 166.499 226.8C166.299 226.5 166.099 226.4 165.899 226.2C165.699 226.1 165.399 226 165.199 225.9C164.999 225.9 164.699 225.9 164.399 225.9C164.099 226 163.899 226.1 163.599 226.3C163.299 226.5 163.199 226.7 162.999 226.9C162.799 227.1 162.799 227.4 162.799 227.6C162.799 227.8 162.799 228.1 162.899 228.4C162.999 228.7 163.099 229 163.299 229.2Z" fill="white"/>
<path d="M166.5 222.7L167.3 221.9L167.9 222.6C167.8 222.3 167.8 221.9 167.9 221.5C168 221.1 168.3 220.8 168.6 220.4C168.8 220.2 169 220 169.3 219.9C169.6 219.8 169.8 219.7 170.1 219.7C170.4 219.7 170.7 219.8 170.9 219.9C171.2 220 171.5 220.2 171.7 220.5L174.3 223.3L173.5 224.1L171.1 221.5C170.9 221.3 170.7 221.1 170.5 221.1C170.3 221 170.1 221 169.9 221C169.7 221 169.6 221 169.4 221.1C169.2 221.2 169.1 221.3 169 221.4C168.8 221.6 168.7 221.7 168.6 221.9C168.5 222.1 168.5 222.3 168.5 222.5C168.5 222.7 168.6 223 168.7 223.2C168.8 223.4 169 223.7 169.2 224L171.3 226.3L170.5 227.1L166.5 222.7Z" fill="white"/>
<path d="M174.499 216.2L173.399 217.4L175.399 219.3C175.499 219.4 175.599 219.5 175.799 219.6C175.899 219.7 176.099 219.8 176.199 219.8C176.299 219.9 176.499 219.9 176.599 219.8C176.699 219.8 176.899 219.7 176.999 219.5C177.099 219.4 177.199 219.3 177.299 219.2C177.399 219.1 177.399 219 177.499 218.8L178.299 219.5C178.299 219.7 178.199 219.8 178.099 220C177.999 220.2 177.899 220.3 177.799 220.4C177.499 220.7 177.199 220.9 176.999 221C176.799 221.1 176.499 221.1 176.299 221.1C176.099 221 175.899 220.9 175.699 220.8C175.499 220.6 175.299 220.5 175.099 220.3L172.799 218.1L171.899 219.1L171.199 218.4L172.099 217.4L170.699 216.4L171.499 215.6L172.699 216.8L173.799 215.6L174.499 216.2Z" fill="white"/>
<path d="M174.699 214.5L175.399 213.6L176.099 214.2C175.999 214 175.999 213.9 175.999 213.7C175.999 213.5 175.999 213.3 175.999 213.2C175.999 213 176.099 212.8 176.199 212.7C176.299 212.5 176.399 212.4 176.499 212.2C176.599 212 176.799 211.9 176.899 211.9L177.799 212.7C177.699 212.8 177.599 212.8 177.599 212.9C177.599 213 177.499 213 177.399 213.1C176.999 213.5 176.899 214 176.899 214.4C176.899 214.8 177.199 215.3 177.699 215.7L179.999 217.7L179.299 218.6L174.699 214.5Z" fill="white"/>
<path d="M175.902 209.7C175.702 209.6 175.602 209.4 175.602 209.1C175.602 208.8 175.602 208.7 175.802 208.5C176.002 208.3 176.102 208.2 176.402 208.2C176.702 208.2 176.802 208.2 177.002 208.4C177.202 208.6 177.302 208.7 177.302 209C177.302 209.3 177.302 209.4 177.102 209.6C176.902 209.8 176.802 209.9 176.502 209.9C176.202 209.9 176.102 209.9 175.902 209.7ZM177.802 210.8L178.502 209.9L183.302 213.6L182.602 214.5L177.802 210.8Z" fill="white"/>
<path d="M176.602 206.5L177.202 205.6L180.902 208.1C180.802 207.8 180.702 207.4 180.802 207C180.902 206.6 181.002 206.2 181.302 205.8C181.602 205.4 181.902 205.1 182.202 204.9C182.502 204.7 182.902 204.5 183.302 204.5C183.702 204.4 184.102 204.5 184.502 204.6C184.902 204.7 185.302 204.9 185.702 205.1C186.102 205.3 186.402 205.6 186.602 206C186.802 206.3 187.002 206.7 187.102 207.1C187.202 207.5 187.202 207.9 187.102 208.3C187.002 208.7 186.802 209.1 186.602 209.5C186.402 209.8 186.102 210.1 185.702 210.3C185.302 210.5 185.002 210.6 184.602 210.6L185.302 211.1L184.702 212L176.602 206.5ZM185.602 208.9C185.802 208.6 185.902 208.4 185.902 208.1C186.002 207.8 185.902 207.6 185.902 207.3C185.802 207.1 185.702 206.8 185.602 206.6C185.402 206.4 185.202 206.2 185.002 206C184.702 205.8 184.502 205.7 184.202 205.6C183.902 205.5 183.702 205.5 183.402 205.6C183.102 205.7 182.902 205.7 182.702 205.9C182.502 206 182.302 206.2 182.102 206.5C181.902 206.8 181.802 207 181.802 207.3C181.802 207.6 181.802 207.8 181.802 208.1C181.902 208.3 182.002 208.6 182.102 208.8C182.302 209 182.502 209.2 182.702 209.4C183.002 209.6 183.202 209.7 183.502 209.8C183.802 209.9 184.002 209.9 184.302 209.8C184.502 209.8 184.802 209.7 185.002 209.5C185.202 209.3 185.402 209.1 185.602 208.9Z" fill="white"/>
<path d="M191.701 200.5L191.101 201.5L190.301 201C190.501 201.3 190.601 201.6 190.601 202C190.601 202.4 190.501 202.8 190.301 203.2C190.201 203.5 190.001 203.7 189.801 203.9C189.601 204.1 189.401 204.2 189.101 204.3C188.801 204.4 188.601 204.4 188.201 204.4C187.901 204.4 187.601 204.2 187.201 204L183.801 202.1L184.401 201.1L187.501 202.9C187.701 203 188.001 203.1 188.201 203.2C188.401 203.2 188.601 203.2 188.801 203.2C189.001 203.1 189.101 203.1 189.301 202.9C189.501 202.7 189.501 202.6 189.601 202.5C189.701 202.3 189.801 202.1 189.801 201.9C189.801 201.7 189.801 201.5 189.701 201.3C189.601 201.1 189.501 200.9 189.301 200.7C189.101 200.5 188.901 200.3 188.601 200.1L185.901 198.6L186.501 197.6L191.701 200.5Z" fill="white"/>
<path d="M189.499 193.6L188.799 195.1L191.299 196.3C191.499 196.4 191.599 196.4 191.799 196.5C191.999 196.6 192.099 196.6 192.199 196.6C192.299 196.6 192.499 196.6 192.599 196.5C192.699 196.4 192.799 196.3 192.899 196.1C192.999 196 192.999 195.8 192.999 195.7C192.999 195.6 193.099 195.4 192.999 195.3L193.899 195.8C193.899 196 193.899 196.1 193.799 196.3C193.699 196.5 193.699 196.7 193.599 196.8C193.399 197.2 193.199 197.5 192.999 197.6C192.799 197.8 192.599 197.9 192.299 197.9C192.099 197.9 191.799 197.9 191.599 197.8C191.399 197.7 191.099 197.6 190.899 197.5L188.099 196.1L187.499 197.3L186.599 196.9L187.199 195.7L185.699 195L186.199 194L187.699 194.7L188.399 193.2L189.499 193.6Z" fill="white"/>
<path d="M191.901 193.3C191.501 193.1 191.101 192.9 190.801 192.6C190.501 192.3 190.301 192 190.101 191.6C189.901 191.2 189.901 190.8 189.801 190.4C189.801 190 189.901 189.6 190.001 189.1C190.201 188.7 190.401 188.3 190.701 188C191.001 187.7 191.301 187.5 191.701 187.3C192.101 187.1 192.501 187.1 192.901 187C193.301 187 193.701 187.1 194.101 187.2C194.501 187.4 194.901 187.6 195.201 187.9C195.501 188.2 195.701 188.5 195.901 188.9C196.101 189.3 196.101 189.7 196.101 190.1C196.101 190.5 196.001 190.9 195.901 191.4C195.701 191.8 195.501 192.2 195.201 192.5C194.901 192.8 194.601 193 194.201 193.2C193.801 193.4 193.401 193.4 193.001 193.5C192.701 193.5 192.301 193.5 191.901 193.3ZM192.301 192.2C192.601 192.3 192.901 192.4 193.101 192.4C193.401 192.4 193.601 192.4 193.901 192.3C194.101 192.2 194.301 192.1 194.501 191.9C194.701 191.7 194.801 191.5 195.001 191.2C195.101 190.9 195.201 190.6 195.201 190.4C195.201 190.1 195.101 189.9 195.001 189.7C194.901 189.5 194.701 189.3 194.501 189.1C194.301 188.9 194.001 188.8 193.801 188.7C193.501 188.6 193.201 188.5 193.001 188.5C192.701 188.5 192.501 188.5 192.201 188.6C192.001 188.7 191.801 188.8 191.601 189C191.401 189.2 191.301 189.4 191.101 189.7C191.001 190 190.901 190.3 190.901 190.5C190.901 190.8 191.001 191 191.101 191.2C191.201 191.4 191.401 191.6 191.601 191.8C191.801 191.9 192.001 192 192.301 192.2Z" fill="white"/>
<path d="M191.801 184.9L192.201 183.8L193.101 184.1C193.001 184 192.901 183.8 192.801 183.7C192.701 183.5 192.701 183.4 192.601 183.2C192.601 183 192.501 182.8 192.501 182.6C192.501 182.4 192.501 182.2 192.601 182C192.701 181.8 192.701 181.7 192.801 181.5L194.001 181.9C193.901 182 193.901 182.1 193.901 182.1C193.901 182.1 193.801 182.3 193.801 182.4C193.601 182.9 193.601 183.4 193.901 183.8C194.101 184.2 194.501 184.5 195.201 184.7L198.101 185.6L197.701 186.7L191.801 184.9Z" fill="white"/>
<defs>
<filter id="filter0_ii" x="0" y="48" width="218" height="218" filterUnits="userSpaceOnUse" color-interpolation-filters="sRGB">
<feFlood flood-opacity="0" result="BackgroundImageFix"/>
<feBlend mode="normal" in="SourceGraphic" in2="BackgroundImageFix" result="shape"/>
<feColorMatrix in="SourceAlpha" type="matrix" values="0 0 0 0 0 0 0 0 0 0 0 0 0 0 0 0 0 0 127 0" result="hardAlpha"/>
<feOffset/>
<feGaussianBlur stdDeviation="4"/>
<feComposite in2="hardAlpha" operator="arithmetic" k2="-1" k3="1"/>
<feColorMatrix type="matrix" values="0 0 0 0 0.9875 0 0 0 0 0.722843 0 0 0 0 0.386771 0 0 0 1 0"/>
<feBlend mode="normal" in2="shape" result="effect1_innerShadow"/>
<feColorMatrix in="SourceAlpha" type="matrix" values="0 0 0 0 0 0 0 0 0 0 0 0 0 0 0 0 0 0 127 0" result="hardAlpha"/>
<feOffset/>
<feGaussianBlur stdDeviation="6"/>
<feComposite in2="hardAlpha" operator="arithmetic" k2="-1" k3="1"/>
<feColorMatrix type="matrix" values="0 0 0 0 0 0 0 0 0 0 0 0 0 0 0 0 0 0 0.2 0"/>
<feBlend mode="normal" in2="effect1_innerShadow" result="effect2_innerShadow"/>
</filter>
<filter id="filter1_i" x="59" y="107" width="100" height="100" filterUnits="userSpaceOnUse" color-interpolation-filters="sRGB">
<feFlood flood-opacity="0" result="BackgroundImageFix"/>
<feBlend mode="normal" in="SourceGraphic" in2="BackgroundImageFix" result="shape"/>
<feColorMatrix in="SourceAlpha" type="matrix" values="0 0 0 0 0 0 0 0 0 0 0 0 0 0 0 0 0 0 127 0" result="hardAlpha"/>
<feOffset/>
<feGaussianBlur stdDeviation="6"/>
<feComposite in2="hardAlpha" operator="arithmetic" k2="-1" k3="1"/>
<feColorMatrix type="matrix" values="0 0 0 0 0 0 0 0 0 0 0 0 0 0 0 0 0 0 0.4 0"/>
<feBlend mode="normal" in2="shape" result="effect1_innerShadow"/>
</filter>
<linearGradient id="paint0_linear" x1="51.775" y1="55.4938" x2="218" y2="244.2" gradientUnits="userSpaceOnUse">
<stop stop-color="white"/>
<stop offset="1" stop-color="#705F5F" stop-opacity="0"/>
</linearGradient>
<linearGradient id="paint1_linear" x1="174.52" y1="211.6" x2="38.8" y2="105.52" gradientUnits="userSpaceOnUse">
<stop stop-color="#FFE4C1"/>
<stop offset="1" stop-color="#383838" stop-opacity="0"/>
</linearGradient>
<linearGradient id="paint2_linear" x1="194.68" y1="228.4" x2="17.2" y2="89.68" gradientUnits="userSpaceOnUse">
<stop stop-color="#FFE4C1"/>
<stop offset="1" stop-color="#383838" stop-opacity="0"/>
</linearGradient>
</defs>
</svg>
