<svg width="218" height="268" viewBox="0 0 218 268" fill="none" xmlns="http://www.w3.org/2000/svg">
<path d="M86.0098 29.7983C84.9084 29.7983 84.0273 30.669 84.0273 31.7573V50.0412C84.0273 51.1295 84.9084 52.0002 86.0098 52.0002H131.385C132.487 52.0002 133.368 51.1295 133.368 50.0412V31.7573C133.368 30.669 132.487 29.7983 131.385 29.7983H86.0098ZM129.403 44.1642C129.403 45.2526 128.522 46.1232 127.42 46.1232H90.1949C89.0935 46.1232 88.2125 45.2526 88.2125 44.1642V35.893C88.2125 34.8046 89.0935 33.934 90.1949 33.934H127.42C128.522 33.934 129.403 34.8046 129.403 35.893V44.1642Z" fill="#D9B68B"/>
<path d="M140.045 0L114.918 37.8775H127.37L155.388 0H140.045Z" fill="#0FA711"/>
<path d="M127.377 0L102.473 37.8775H114.925L140.052 0H127.377Z" fill="white"/>
<path d="M114.924 0L90.0195 37.8775H102.472L127.376 0H114.924Z" fill="#FF7600"/>
<path d="M90.0177 37.8775H102.47L77.343 0H62L90.0177 37.8775Z" fill="#FF7600"/>
<path d="M102.471 37.8775H114.923L90.0184 0H77.3438L102.471 37.8775Z" fill="white"/>
<path opacity="0.5" d="M110.695 6.27979L104.469 15.6931L119.145 37.8818H127.372L129.596 34.744L110.695 6.27979Z" fill="#3E4347"/>
<path d="M114.924 37.8775H127.376L102.472 0H90.0195L114.924 37.8775Z" fill="#0FA711"/>
<g filter="url(#filter0_ii)">
<path d="M218 159C218 219.199 169.199 268 109 268C48.801 268 0 219.199 0 159C0 98.801 48.801 50 109 50C169.199 50 218 98.801 218 159Z" fill="#C18A43" fill-opacity="0.7"/>
</g>
<path d="M214.5 159C214.5 217.266 167.266 264.5 109 264.5C50.734 264.5 3.5 217.266 3.5 159C3.5 100.734 50.734 53.5 109 53.5C167.266 53.5 214.5 100.734 214.5 159Z" stroke="#E29435" stroke-width="7"/>
<path d="M214.5 159C214.5 217.266 167.266 264.5 109 264.5C50.734 264.5 3.5 217.266 3.5 159C3.5 100.734 50.734 53.5 109 53.5C167.266 53.5 214.5 100.734 214.5 159Z" stroke="url(#paint0_linear)" stroke-width="7"/>
<path d="M196 159C196 207.049 157.049 246 109 246C60.9512 246 22 207.049 22 159C22 110.951 60.9512 72 109 72C157.049 72 196 110.951 196 159Z" fill="#764B16"/>
<path fill-rule="evenodd" clip-rule="evenodd" d="M109 87C69.2355 87 37 119.235 37 159C37 198.764 69.2355 231 109 231C148.764 231 181 198.764 181 159C181 119.235 148.764 87 109 87ZM7 159C7 102.667 52.667 57 109 57C165.333 57 211 102.667 211 159C211 215.333 165.333 261 109 261C52.667 261 7 215.333 7 159Z" fill="#805726"/>
<path d="M109.001 82C66.5595 82 32 116.357 32 159.001C32 201.645 66.3574 236.002 109.001 236.002C151.645 236.002 186.002 201.645 186.002 159.001C186.002 116.357 151.442 82 109.001 82ZM93.6412 89.4778C93.8433 89.4778 93.8433 89.4778 93.6412 89.4778C95.0559 92.5093 97.6833 94.3282 100.311 93.7219C102.938 93.3177 105.565 91.4988 105.767 87.861C106.172 87.861 106.576 87.861 106.98 87.861C106.98 98.7745 106.172 110.496 104.959 123.229C104.757 124.441 104.757 125.654 104.757 126.867C104.353 125.856 103.948 124.644 103.544 123.229C99.3001 112.517 95.4601 100.998 92.4286 89.6799C93.0349 89.6799 93.237 89.4778 93.6412 89.4778ZM76.0583 95.743C78.2814 98.3703 81.1109 99.3808 83.5361 98.1682C86.3655 96.9556 87.9823 94.1261 87.376 91.0946C87.7802 90.8925 88.1844 90.8925 88.5886 90.6904C91.216 101.2 93.8433 112.72 95.8643 125.452C96.0664 126.867 96.2685 127.877 96.6727 129.09C96.0664 128.079 95.4601 127.069 94.4496 125.856C87.5781 116.559 80.9088 106.454 75.0478 96.3493C75.2499 96.1472 75.6541 95.9451 76.0583 95.743ZM60.4964 106.656C63.3259 108.475 66.3574 108.678 68.3784 107.061C69.9952 105.848 70.8036 104.029 70.8036 102.21C70.8036 101.2 70.6015 100.189 69.9952 99.3808C70.3994 99.1787 70.6015 98.9766 71.0057 98.7745C76.4625 108.071 81.7172 118.783 87.1739 130.302C87.7802 131.515 88.3865 132.526 88.7907 133.536C87.9823 132.728 86.9718 131.919 85.9613 131.111C77.0688 123.633 67.9742 115.549 59.688 107.465C59.8901 107.061 60.2943 106.859 60.4964 106.656ZM48.3703 121.006C48.5724 121.006 48.5724 121.006 48.3703 121.006C51.6039 122.016 54.6355 121.612 56.0502 119.389C56.4544 118.783 57.4649 117.166 57.4649 115.549C57.4649 114.538 57.0607 112.922 55.8481 111.507C56.0502 111.305 56.4544 110.901 56.6565 110.699C64.3364 118.378 72.2184 127.271 80.5046 136.972C81.313 137.982 82.1214 138.791 82.9298 139.599C81.9193 138.993 80.7067 138.589 79.494 137.982C68.9847 133.132 58.0712 127.675 47.764 122.016C47.9661 121.612 48.1682 121.41 48.3703 121.006ZM40.4883 137.982C40.4883 137.982 40.4883 137.78 40.4883 137.982C43.924 138.184 46.5514 136.972 47.5619 134.344C47.764 133.738 47.9661 132.93 47.9661 131.717C47.9661 130.505 47.5619 128.281 45.1367 126.665C45.3388 126.26 45.5409 126.058 45.743 125.654C55.0397 131.111 65.1448 137.578 75.452 144.854C76.4625 145.662 77.6751 146.269 78.4835 146.875C77.473 146.673 76.0583 146.471 74.6436 146.066C63.3259 144.45 51.4018 142.024 39.882 138.993C40.2862 138.791 40.4883 138.387 40.4883 137.982ZM37.2547 156.374C37.2547 156.374 37.2547 156.172 37.2547 156.374C40.4883 155.767 42.9135 153.746 43.1156 151.119C43.1156 150.917 43.1156 150.715 43.1156 150.311C43.1156 147.885 41.903 145.258 38.8715 144.248C38.8715 143.843 39.0736 143.439 39.0736 143.035C49.5829 145.864 60.9006 149.704 72.8247 153.948C74.0373 154.353 75.2499 154.757 76.2604 154.959C75.0478 154.959 73.8352 155.161 72.4205 155.161C61.1027 156.576 48.7745 157.182 37.0526 157.384C37.2547 157.182 37.2547 156.778 37.2547 156.374ZM38.8715 175.169C38.8715 174.967 38.8715 174.967 38.8715 175.169C41.4988 173.754 43.1156 171.733 43.1156 169.308C43.1156 169.106 43.1156 168.702 43.1156 168.5C42.7114 165.872 40.8925 163.245 37.2547 163.043C37.2547 162.639 37.2547 162.235 37.2547 161.83C48.1682 161.83 59.8901 162.437 72.6226 163.447C74.0373 163.649 75.2499 163.649 76.2604 163.649C75.2499 164.054 74.0373 164.458 72.6226 164.862C61.9111 169.106 50.3913 172.946 39.0736 176.18C39.0736 175.978 39.0736 175.573 38.8715 175.169ZM45.3387 192.752C45.3387 192.752 45.3387 192.55 45.3387 192.752C47.1577 191.135 48.1682 189.316 48.1682 187.295C48.1682 186.487 47.9661 185.881 47.764 185.274C46.7535 182.849 44.3282 180.828 40.6904 181.636C40.4883 181.232 40.4883 180.828 40.2862 180.424C50.7955 177.594 62.3153 175.169 74.8457 172.946C76.2604 172.744 77.2709 172.34 78.4835 172.138C77.473 172.744 76.4625 173.35 75.2499 174.361C65.9532 181.232 55.8481 187.902 45.743 193.965C45.743 193.358 45.5409 193.156 45.3387 192.752ZM56.2523 208.112C57.2628 206.495 57.667 205.08 57.667 203.463C57.667 202.251 57.2628 201.038 56.4544 200.23C54.8376 198.209 51.806 196.794 48.5724 198.411C48.3703 198.007 48.1682 197.805 47.9661 197.4C57.2628 191.944 67.9742 186.487 79.494 181.03C80.7067 180.424 81.7172 179.818 82.7277 179.413C81.9193 180.222 81.1109 181.232 80.3024 182.243C73.2289 191.337 65.1448 200.432 57.0607 208.92C56.8586 208.718 56.4544 208.516 56.2523 208.112ZM70.6015 220.036C70.8036 218.823 71.0057 217.813 71.0057 216.802C71.0057 214.781 70.1973 213.164 68.7826 212.356C66.7616 210.941 63.528 210.133 60.9006 212.76C60.4964 212.558 60.2943 212.154 60.0922 211.952C67.7721 204.272 76.4625 196.188 86.1634 188.104C87.1739 187.295 87.9823 186.487 88.7907 185.678C88.1844 186.689 87.7802 187.902 87.1739 189.114C82.7277 199.624 77.473 210.537 71.612 220.642C71.4099 220.44 71.0057 220.238 70.6015 220.036ZM87.5781 227.918C87.7802 224.482 86.3655 221.855 83.9403 220.844C81.5151 220.036 78.2814 220.238 76.2604 223.27C75.8562 223.067 75.6541 222.865 75.2499 222.663C80.7066 213.367 86.9718 203.261 94.2475 192.752C95.0559 191.539 95.6622 190.529 96.2685 189.721C96.0664 190.731 95.8643 192.146 95.4601 193.56C93.8433 204.878 91.4181 216.802 88.5886 228.322C88.3865 228.12 87.9823 228.12 87.5781 227.918ZM105.969 230.949C105.363 227.716 103.342 225.291 100.715 225.088C98.0874 224.886 95.0559 225.897 94.0454 229.333C93.6412 229.333 93.237 229.13 92.8328 229.13C95.6622 218.621 99.3001 207.303 103.544 195.379C103.948 194.167 104.353 192.954 104.555 191.944C104.555 193.156 104.757 194.369 104.757 195.784C106.172 207.101 106.98 219.43 107.182 231.151C106.778 231.151 106.374 231.151 105.969 230.949ZM178.928 144.45C176.301 145.864 174.482 147.885 174.482 150.311C174.482 150.513 174.482 150.917 174.482 151.119C174.886 153.746 176.705 156.374 180.343 156.576C180.343 156.98 180.343 157.384 180.343 157.788C169.632 157.788 157.708 156.98 144.975 155.767C143.56 155.565 142.348 155.565 141.337 155.565C142.348 155.161 143.56 154.757 144.975 154.353C155.687 150.108 167.206 146.269 178.524 143.237C178.726 143.641 178.726 144.045 178.928 144.45ZM172.663 126.867C172.663 126.867 172.663 127.069 172.663 126.867C170.844 128.484 169.834 130.302 169.834 132.323C169.834 133.132 170.036 133.738 170.238 134.344C171.248 136.77 173.674 138.791 177.312 138.184C177.514 138.589 177.514 138.993 177.716 139.397C167.206 142.024 155.485 144.45 142.954 146.673C141.539 146.875 140.529 147.077 139.316 147.481C140.327 146.875 141.337 146.269 142.55 145.46C151.847 138.387 161.952 131.717 172.057 125.856C172.259 126.26 172.461 126.463 172.663 126.867ZM162.154 111.709C161.143 113.326 160.537 114.943 160.537 116.357C160.537 117.57 160.941 118.783 161.75 119.591C163.366 121.612 166.196 123.027 169.43 121.41C169.632 121.814 169.834 122.016 170.036 122.42C160.537 127.675 150.028 133.132 138.306 138.184C137.093 138.791 136.083 139.195 135.072 139.801C135.881 138.993 136.689 137.982 137.7 136.972C144.975 128.079 153.059 118.985 161.345 110.699C161.548 111.103 161.952 111.305 162.154 111.709ZM147.603 99.1787C147.603 99.1787 147.805 99.3808 147.603 99.1787C147.4 100.391 146.996 101.402 146.996 102.412C146.996 104.231 147.805 105.848 149.219 106.859C151.24 108.273 154.474 109.082 157.101 106.656C157.303 106.859 157.708 107.263 157.91 107.465C150.23 115.145 141.337 123.027 131.434 131.111C130.424 131.919 129.413 132.728 128.807 133.536C129.413 132.526 129.818 131.515 130.424 130.1C135.072 119.591 140.529 108.678 146.39 98.5724C146.996 98.7745 147.198 98.9766 147.603 99.1787ZM130.626 91.2967C130.828 91.2967 130.828 91.2967 130.626 91.2967C130.424 94.7324 131.839 97.3598 134.264 98.3703C136.689 99.3808 139.923 99.1787 141.944 95.9451C142.348 96.1472 142.55 96.3493 142.954 96.5514C137.497 105.848 131.03 115.751 123.552 126.26C122.744 127.271 122.138 128.281 121.531 129.292C121.733 128.281 122.138 126.867 122.34 125.452C124.159 114.134 126.584 102.21 129.413 90.8925C130.02 90.8925 130.222 91.0946 130.626 91.2967ZM112.437 87.861C112.437 87.861 112.639 87.861 112.437 87.861C113.043 91.0946 115.064 93.5198 117.691 93.7219C120.319 93.924 123.35 92.9135 124.563 89.4778C124.967 89.4778 125.371 89.6799 125.775 89.6799C122.946 100.189 119.106 111.507 114.66 123.229C114.256 124.441 113.851 125.654 113.447 126.665C113.447 125.452 113.245 124.239 113.245 122.825C112.033 111.507 111.224 99.1787 111.224 87.4568C111.628 87.861 112.033 87.861 112.437 87.861ZM124.361 229.333C122.744 226.301 120.319 224.684 117.691 225.088C115.064 225.493 112.437 227.312 112.235 230.949C111.83 230.949 111.426 230.949 111.022 230.949C111.022 220.036 111.628 208.314 112.841 195.581C113.043 194.369 113.043 193.358 113.043 192.348C113.043 192.146 113.043 192.146 113.043 191.944C113.447 192.954 113.851 194.167 114.256 195.581C118.5 206.293 122.34 217.813 125.573 229.13C125.169 229.333 124.765 229.333 124.361 229.333ZM141.742 223.067C141.742 223.067 141.539 223.067 141.742 223.067C139.518 220.44 136.689 219.43 134.264 220.642C131.434 221.855 129.818 224.684 130.626 227.716C130.222 227.918 129.818 227.918 129.413 228.12C126.584 217.611 124.159 206.091 122.138 193.56C121.936 192.146 121.733 191.135 121.329 189.923C121.936 190.933 122.542 191.944 123.552 193.156C130.424 202.453 137.093 212.558 142.954 222.663C142.348 222.865 142.146 222.865 141.742 223.067ZM157.303 212.154C157.303 212.356 157.303 212.356 157.303 212.154C154.474 210.335 151.442 210.133 149.421 211.75C147.805 212.962 146.996 214.781 146.996 216.6C146.996 217.611 147.198 218.621 147.805 219.43C147.4 219.632 147.198 219.834 146.794 220.036C141.337 210.739 135.881 200.028 130.626 188.508C130.02 187.295 129.413 186.285 129.009 185.274C129.818 186.083 130.828 186.891 131.839 187.699C140.933 194.773 150.028 202.857 158.314 211.143C157.91 211.75 157.708 211.952 157.303 212.154ZM169.227 198.007C169.227 198.007 169.227 198.209 169.227 198.007C165.994 196.996 162.962 197.4 161.548 199.624C161.143 200.23 160.133 201.847 160.133 203.463C160.133 204.474 160.537 206.091 161.75 207.506C161.548 207.708 161.143 208.112 160.941 208.314C153.261 200.634 145.379 191.742 137.295 182.041C136.487 181.03 135.678 180.02 134.87 179.413C135.881 180.02 137.093 180.424 138.306 181.03C148.815 185.678 159.729 191.135 170.036 196.794C169.632 197.4 169.43 197.603 169.227 198.007ZM177.109 181.03C177.109 181.232 177.109 181.232 177.109 181.03C173.674 180.828 171.046 182.041 170.036 184.668C169.834 185.274 169.632 186.083 169.632 187.295C169.632 188.508 170.036 190.731 172.461 192.348C172.259 192.752 172.057 192.954 171.855 193.358C162.558 187.902 152.453 181.434 142.146 174.159C141.135 173.35 139.923 172.744 139.114 172.138C140.125 172.34 141.539 172.744 142.954 172.946C154.272 174.563 166.196 176.988 177.514 180.02C177.312 180.424 177.312 180.828 177.109 181.03ZM180.343 162.841C177.109 163.447 174.684 165.266 174.482 167.893C174.482 168.096 174.482 168.298 174.482 168.702C174.482 171.127 175.695 173.754 178.726 174.765C178.726 175.169 178.524 175.573 178.524 175.978C168.015 173.148 156.697 169.51 144.773 165.064C143.56 164.66 142.348 164.256 141.337 164.054C142.55 164.054 143.763 163.851 145.177 163.851C156.495 162.639 168.823 161.83 180.545 161.83C180.545 162.033 180.343 162.437 180.343 162.841Z" fill="#D9B68B"/>
<g filter="url(#filter1_i)">
<circle cx="109" cy="159" r="50" fill="#805726"/>
</g>
<mask id="mask0" mask-type="alpha" maskUnits="userSpaceOnUse" x="59" y="109" width="100" height="100">
<circle cx="109" cy="159" r="50" fill="#C3863A"/>
</mask>
<g mask="url(#mask0)">
<path d="M82.6969 107.385L82.6979 107.386L82.948 107.755C83.1118 107.996 83.3522 108.351 83.6587 108.803C84.2716 109.708 85.1489 111.003 86.2061 112.568C88.3206 115.698 91.1554 119.904 94.0364 124.21C96.917 128.516 99.8455 132.924 102.147 136.456C103.297 138.222 104.293 139.772 105.048 140.983C105.788 142.169 106.335 143.088 106.55 143.554C106.628 143.723 106.657 143.91 106.632 144.094C106.534 144.829 106.129 145.471 105.646 146.005C105.156 146.547 104.516 147.053 103.813 147.52C102.404 148.455 100.608 149.318 98.8706 150.047C97.125 150.779 95.4 151.393 94.1146 151.823C93.6747 151.97 93.2852 152.095 92.9629 152.198C93.1439 152.686 93.3873 153.329 93.6735 154.051C94.3132 155.666 95.1542 157.645 95.9843 159.186C96.4389 160.031 96.1789 160.859 95.7262 161.467C95.3 162.04 94.6303 162.543 93.9004 162.984C92.419 163.877 90.3247 164.724 88.2437 165.448C86.3521 166.107 84.4214 166.682 82.875 167.113C83.4397 167.304 84.052 167.513 84.687 167.732C87.3423 168.647 90.4545 169.766 92.1006 170.526C93.8143 171.317 94.6604 172.287 94.7213 173.384C94.7496 173.893 94.5932 174.305 94.4453 174.575C94.3705 174.712 94.2935 174.82 94.2321 174.898C94.2011 174.937 94.1733 174.97 94.1506 174.995L94.1371 175.01C94.1295 175.019 94.1172 175.034 94.1009 175.055C94.0648 175.101 94.0092 175.173 93.9405 175.272C93.8027 175.468 93.6142 175.764 93.4245 176.144C93.0436 176.905 92.6701 177.98 92.6701 179.259C92.6701 179.659 92.6801 180.157 92.6916 180.725L92.6916 180.726V180.726C92.7201 182.144 92.7574 183.997 92.669 185.832C92.5466 188.371 92.1799 191.179 91.0541 193.008C90.7744 193.463 90.3091 193.739 89.8966 193.918C89.4594 194.109 88.9312 194.254 88.3535 194.37C87.195 194.603 85.6931 194.742 83.9974 194.818C80.5971 194.969 76.2723 194.868 72.0358 194.668C67.7934 194.469 63.6152 194.169 60.4994 193.92C58.941 193.795 57.6472 193.683 56.7427 193.601C56.2904 193.561 55.9354 193.528 55.6932 193.505L55.4164 193.479L55.3682 193.475H33.6015C33.06 193.475 32.6211 193.036 32.6211 192.494V108.916C32.6211 108.382 33.048 107.947 33.5816 107.936L81.8659 106.955C82.1977 106.949 82.5104 107.11 82.6969 107.385Z" fill="#FFE4C1"/>
<path fill-rule="evenodd" clip-rule="evenodd" d="M114.267 151.364C113.599 152.033 113.638 153.118 114.209 153.872C115.402 155.445 116.109 157.406 116.109 159.533C116.109 161.506 115.5 163.337 114.46 164.847C113.94 165.603 113.928 166.646 114.577 167.295C115.23 167.948 116.301 167.951 116.86 167.215C118.481 165.081 119.442 162.419 119.442 159.533C119.442 156.437 118.336 153.6 116.497 151.395C115.926 150.709 114.898 150.733 114.267 151.364ZM119.872 170.245C119.292 170.957 119.286 172.004 119.936 172.653C120.588 173.306 121.652 173.308 122.247 172.603C125.223 169.072 127.017 164.512 127.017 159.533C127.017 154.356 125.078 149.631 121.886 146.046C121.284 145.371 120.245 145.386 119.606 146.026C118.944 146.687 118.965 147.759 119.576 148.468C122.136 151.438 123.684 155.305 123.684 159.533C123.684 163.596 122.255 167.325 119.872 170.245ZM125.634 176.002C125.03 176.695 125.027 177.744 125.677 178.394C126.328 179.046 127.39 179.048 128.001 178.358C132.439 173.346 135.134 166.755 135.134 159.534C135.134 152.119 132.293 145.368 127.64 140.309C127.024 139.64 125.98 139.651 125.337 140.294C124.679 140.953 124.693 142.019 125.318 142.71C129.346 147.158 131.8 153.059 131.8 159.534C131.8 165.837 129.474 171.597 125.634 176.002Z" fill="#FFE4C1"/>
</g>
<circle cx="109" cy="159" r="77" stroke="url(#paint1_linear)" stroke-width="2"/>
<circle cx="109" cy="159" r="101" stroke="url(#paint2_linear)" stroke-width="2"/>
<path d="M59.2 90.7998L54 83.2998L56.4 81.5998C57.2 80.9998 57.9 80.7998 58.6 80.7998C59.3 80.7998 59.8 81.1998 60.2 81.8998C60.4 82.1998 60.6 82.5998 60.5 82.9998C60.4 83.3998 60.4 83.7998 60.1 84.1998C60.6 83.9998 61 83.9998 61.5 84.1998C62 84.3998 62.3 84.5998 62.6 85.0998C63.1 85.7998 63.2 86.3998 63 87.0998C62.8 87.7998 62.4 88.3998 61.6 88.8998L59.2 90.7998ZM57.2 85.8998L58.7 84.8998C59.1 84.5998 59.4 84.2998 59.5 83.8998C59.6 83.4998 59.5 83.0998 59.3 82.7998C59 82.3998 58.7 82.1998 58.3 82.1998C57.9 82.1998 57.5 82.2998 57 82.6998L55.5 83.6998L57.2 85.8998ZM57.7 86.6998L59.6 89.3998L61.2 88.2998C61.7 87.9998 61.9 87.5998 62 87.1998C62.1 86.7998 62 86.3998 61.7 85.8998C61.1 84.9998 60.3 84.8998 59.3 85.5998L57.7 86.6998Z" fill="white"/>
<path d="M63.3 80.9999C63.4 80.1999 63.8 79.5999 64.6 79.1999C65.8 78.4999 66.9 78.7999 67.7 80.1999L69.9 84.0999L68.9 84.6999L66.7 80.7999C66.5 80.3999 66.2 80.0999 65.9 79.9999C65.6 79.8999 65.2 79.9999 64.8 80.1999C64.5 80.3999 64.2 80.5999 64.1 80.9999C64 81.2999 63.9 81.6999 63.9 81.9999L66.3 86.1999L65.3 86.7999L60.5 78.4999L61.5 77.8999L63.3 80.9999Z" fill="white"/>
<path d="M74.9008 81.6002C74.8008 81.5002 74.6008 81.3002 74.4008 81.0002C74.2008 81.7002 73.7008 82.3002 73.0008 82.6002C72.4008 82.9002 71.8008 82.9002 71.3008 82.8002C70.8008 82.6002 70.4008 82.3002 70.1008 81.8002C69.8008 81.2002 69.8008 80.6002 70.1008 80.0002C70.4008 79.4002 71.0008 78.9002 71.9008 78.5002L72.9008 78.0002L72.7008 77.5002C72.5008 77.1002 72.3008 76.9002 72.0008 76.8002C71.7008 76.7002 71.3008 76.7002 70.9008 76.9002C70.5008 77.1002 70.3008 77.3002 70.1008 77.6002C69.9008 77.9002 69.9008 78.2002 70.0008 78.5002L69.0008 79.0002C68.9008 78.7002 68.8008 78.4002 68.9008 78.0002C69.0008 77.6002 69.2008 77.3002 69.5008 76.9002C69.8008 76.6002 70.2008 76.3002 70.6008 76.1002C71.3008 75.8002 71.9008 75.7002 72.5008 75.8002C73.1008 76.0002 73.5008 76.3002 73.8008 77.0002L75.1008 79.8002C75.4008 80.4002 75.6008 80.8002 75.9008 81.0002V81.1002L74.9008 81.6002ZM72.8008 81.7002C73.1008 81.5002 73.4008 81.3002 73.6008 81.0002C73.8008 80.7002 73.9008 80.4002 73.9008 80.0002L73.3008 78.8002L72.5008 79.2002C71.2008 79.8002 70.8008 80.5002 71.1008 81.2002C71.3008 81.5002 71.5008 81.7002 71.8008 81.8002C72.1008 81.9002 72.4008 81.8002 72.8008 81.7002Z" fill="white"/>
<path d="M80.0994 77.5999C79.9994 77.2999 79.7994 77.0999 79.4994 76.9999C79.1994 76.8999 78.7994 76.8999 78.1994 76.9999C77.5994 77.0999 77.0994 77.0999 76.6994 77.0999C76.2994 77.0999 75.9994 76.9999 75.7994 76.7999C75.5994 76.5999 75.3994 76.3999 75.2994 76.0999C75.0994 75.5999 75.1994 75.0999 75.4994 74.4999C75.7994 73.9999 76.2994 73.5999 76.9994 73.2999C77.6994 72.9999 78.3994 72.9999 78.8994 73.1999C79.4994 73.3999 79.8994 73.7999 80.0994 74.3999L78.9994 74.7999C78.8994 74.4999 78.6994 74.2999 78.2994 74.1999C77.8994 74.0999 77.5994 74.0999 77.1994 74.1999C76.7994 74.3999 76.4994 74.5999 76.3994 74.7999C76.1994 75.0999 76.1994 75.2999 76.2994 75.5999C76.3994 75.8999 76.5994 75.9999 76.7994 76.0999C77.0994 76.1999 77.4994 76.0999 78.0994 75.9999C78.6994 75.8999 79.1994 75.8999 79.5994 75.8999C79.9994 75.8999 80.2994 75.9999 80.5994 76.1999C80.8994 76.3999 80.9994 76.5999 81.1994 76.9999C81.3994 77.5999 81.3994 78.0999 80.9994 78.5999C80.6994 79.0999 80.1994 79.4999 79.3994 79.7999C78.8994 79.9999 78.3994 80.0999 77.9994 79.9999C77.5994 79.8999 77.0994 79.7999 76.7994 79.5999C76.4994 79.3999 76.1994 79.0999 76.0994 78.6999L77.1994 78.2999C77.3994 78.6999 77.5994 78.8999 77.9994 78.9999C78.3994 79.0999 78.6994 79.0999 79.1994 78.8999C79.5994 78.6999 79.8994 78.4999 80.0994 78.2999C80.2994 78.0999 80.1994 77.7999 80.0994 77.5999Z" fill="white"/>
<path d="M82.2992 72.3999C82.5992 71.6999 83.1992 71.1999 83.8992 70.8999C85.2992 70.4999 86.1992 71.0999 86.6992 72.5999L87.9992 76.8999L86.8992 77.1999L85.5992 72.8999C85.4992 72.3999 85.1992 72.0999 84.9992 71.9999C84.7992 71.8999 84.3992 71.7999 83.8992 71.9999C83.4992 72.0999 83.2992 72.2999 82.9992 72.5999C82.7992 72.8999 82.6992 73.1999 82.5992 73.4999L83.9992 78.0999L82.8992 78.3999L80.1992 69.1999L81.2992 68.8999L82.2992 72.3999Z" fill="white"/>
<path d="M87.5 68.2999C87.5 68.0999 87.5 67.9999 87.6 67.7999C87.7 67.5999 87.8 67.4999 88 67.4999C88.2 67.3999 88.4 67.4999 88.5 67.5999C88.6 67.6999 88.7 67.7999 88.8 67.9999C88.9 68.1999 88.8 68.2999 88.7 68.4999C88.6 68.5999 88.5 68.6999 88.2 68.7999C87.9 68.8999 87.8 68.7999 87.7 68.6999C87.6 68.5999 87.5 68.4999 87.5 68.2999ZM90.6 76.2999L89.5 76.5999L87.9 69.9999L89 69.6999L90.6 76.2999Z" fill="white"/>
<path d="M92.1 69.1001L92.3 69.9001C92.7 69.2001 93.3 68.7001 94.1 68.6001C95.5 68.4001 96.4 69.0001 96.6 70.6001L97.4 75.0001L96.3 75.2001L95.5 70.8001C95.4 70.3001 95.2 70.0001 95 69.8001C94.7 69.6001 94.4 69.6001 93.9 69.6001C93.5 69.7001 93.2 69.8001 93 70.1001C92.8 70.3001 92.6 70.6001 92.5 71.0001L93.3 75.7001L92.2 75.9001L91 69.3001L92.1 69.1001Z" fill="white"/>
<path d="M97.8008 66.4001C97.8008 66.2001 97.8008 66.1001 97.9008 65.9001C98.0008 65.8001 98.2008 65.7001 98.4008 65.6001C98.6008 65.6001 98.8008 65.6001 98.9008 65.7001C99.0008 65.8001 99.1008 66.0001 99.1008 66.1001C99.1008 66.3001 99.1008 66.4001 99.0008 66.6001C98.9008 66.8001 98.7008 66.8001 98.5008 66.8001C98.3008 66.8001 98.1008 66.8001 98.0008 66.7001C97.9008 66.7001 97.9008 66.6001 97.8008 66.4001ZM100.101 74.7001L99.0008 74.8001L98.2008 68.1001L99.3008 68.0001L100.101 74.7001Z" fill="white"/>
<path d="M104.5 69.5002C104.5 69.1002 104.6 68.8002 104.8 68.6002C105 68.4002 105.3 68.2002 105.7 68.2002C106.1 68.2002 106.4 68.3002 106.6 68.5002C106.8 68.7002 107 69.0002 107 69.4002V69.6002C107 70.0002 106.9 70.3002 106.7 70.5002C106.5 70.7002 106.2 70.9002 105.8 70.9002C105.4 70.9002 105.1 70.8002 104.9 70.6002C104.7 70.4002 104.5 70.1002 104.5 69.7002V69.5002Z" fill="white"/>
<path d="M111.898 74.1L112.398 65L115.398 65.2C116.398 65.3 117.098 65.5 117.598 65.9C118.098 66.3 118.298 67 118.198 67.7C118.198 68.1 117.998 68.5 117.798 68.8C117.598 69.1 117.198 69.3 116.798 69.5C117.298 69.7 117.698 69.9 117.898 70.3C118.198 70.7 118.298 71.2 118.198 71.7C118.198 72.5 117.898 73.1 117.298 73.6C116.698 74 115.998 74.2 114.998 74.2L111.898 74.1ZM113.398 70L113.198 73.3L115.198 73.4C115.798 73.4 116.198 73.3 116.498 73C116.798 72.7 116.998 72.3 117.098 71.8C117.198 70.7 116.598 70.1 115.398 70.1L113.398 70ZM113.398 69L115.198 69.1C115.698 69.1 116.098 69 116.498 68.8C116.798 68.6 116.998 68.2 116.998 67.8C116.998 67.3 116.898 66.9 116.598 66.7C116.298 66.5 115.898 66.3 115.298 66.3L113.498 66.2L113.398 69Z" fill="white"/>
<path d="M119.5 71.1999C119.6 70.4999 119.8 69.9999 120.1 69.4999C120.4 68.9999 120.8 68.6999 121.3 68.3999C121.8 68.1999 122.3 68.0999 122.9 68.1999C123.8 68.2999 124.5 68.7999 125 69.4999C125.5 70.1999 125.6 71.0999 125.5 72.0999V72.1999C125.4 72.7999 125.2 73.3999 124.9 73.8999C124.6 74.3999 124.2 74.6999 123.7 74.8999C123.2 75.0999 122.6 75.1999 122 75.0999C121.1 74.9999 120.4 74.4999 119.9 73.7999C119.5 73.1999 119.3 72.2999 119.5 71.1999ZM120.6 71.4999C120.5 72.1999 120.6 72.8999 120.9 73.3999C121.2 73.8999 121.6 74.1999 122.2 74.2999C122.8 74.3999 123.3 74.1999 123.7 73.7999C124.1 73.3999 124.4 72.7999 124.5 71.9999C124.6 71.2999 124.5 70.6999 124.2 70.0999C123.9 69.5999 123.5 69.2999 122.9 69.1999C122.3 69.0999 121.9 69.2999 121.4 69.6999C120.9 70.0999 120.7 70.6999 120.6 71.4999Z" fill="white"/>
<path d="M127.401 75.9999L126.301 75.7999L128.201 66.3999L129.301 66.5999L127.401 75.9999Z" fill="white"/>
<path d="M129.601 72.9C129.801 72.3 130.001 71.7 130.401 71.3C130.801 70.9 131.201 70.6 131.801 70.4C132.401 70.2 132.901 70.2 133.401 70.4C134.301 70.6 134.901 71.1 135.301 71.9C135.701 72.7 135.701 73.5 135.501 74.6V74.7C135.301 75.3 135.101 75.9 134.701 76.3C134.301 76.7 133.901 77 133.301 77.2C132.801 77.4 132.201 77.4 131.601 77.2C130.701 77 130.101 76.5 129.701 75.7C129.301 74.9 129.301 74 129.601 72.9ZM130.701 73.3C130.501 74 130.501 74.6 130.701 75.2C130.901 75.7 131.301 76.1 131.901 76.2C132.501 76.4 133.001 76.2 133.401 75.9C133.901 75.5 134.201 75 134.401 74.2C134.601 73.5 134.601 72.9 134.401 72.3C134.201 71.7 133.801 71.4 133.201 71.3C132.701 71.2 132.101 71.3 131.701 71.6C131.201 71.9 130.901 72.5 130.701 73.3Z" fill="white"/>
<path d="M139.901 79.6998L138.801 79.2998L142.001 70.7998L143.101 71.1998L139.901 79.6998Z" fill="white"/>
<path d="M145.3 74.5001L145 75.3001C145.7 74.9001 146.5 74.9001 147.2 75.2001C148.5 75.8001 148.8 76.8001 148.2 78.3001L146.4 82.4001L145.3 81.9001L147.1 77.8001C147.3 77.4001 147.3 77.0001 147.2 76.7001C147.1 76.4001 146.8 76.2001 146.4 76.0001C146.1 75.8001 145.7 75.8001 145.4 75.9001C145.1 76.0001 144.8 76.1001 144.5 76.4001L142.6 80.8001L141.5 80.3001L144.2 74.1001L145.3 74.5001Z" fill="white"/>
<path d="M149 79.9002C149.5 79.0002 150.1 78.4002 150.8 78.1002C151.5 77.8002 152.2 77.8002 152.9 78.2002C153.6 78.6002 154 79.1002 154.2 79.8002L155.9 76.7002L156.9 77.2002L152.3 85.6002L151.4 85.1002L151.7 84.4002C151 84.7002 150.3 84.6002 149.6 84.2002C148.9 83.8002 148.5 83.2002 148.4 82.4002C148.3 81.7002 148.5 80.9002 149 79.9002ZM150 80.5002C149.6 81.2002 149.5 81.8002 149.6 82.3002C149.7 82.8002 150 83.2002 150.4 83.5002C151 83.8002 151.7 83.8002 152.3 83.4002L153.8 80.7002C153.8 80.0002 153.5 79.4002 152.9 79.1002C152.4 78.8002 151.9 78.8002 151.4 79.0002C150.8 79.3002 150.4 79.8002 150 80.5002Z" fill="white"/>
<path d="M154.801 87.0999L153.801 86.4999L157.301 80.7999L158.301 81.3999L154.801 87.0999ZM158.201 79.1999C158.301 78.9999 158.401 78.8999 158.601 78.8999C158.801 78.8999 158.901 78.8999 159.101 78.9999C159.301 79.0999 159.401 79.2999 159.401 79.3999C159.401 79.5999 159.401 79.6999 159.301 79.8999C159.201 80.0999 159.101 80.1999 158.901 80.1999C158.701 80.1999 158.601 80.1999 158.401 80.0999C158.201 79.9999 158.101 79.7999 158.101 79.6999C158.101 79.5999 158.101 79.2999 158.201 79.1999Z" fill="white"/>
<path d="M159.502 90.3002C159.502 90.2002 159.602 89.9002 159.802 89.6002C159.002 89.7002 158.402 89.6002 157.702 89.2002C157.202 88.8002 156.802 88.4002 156.702 87.8002C156.602 87.2002 156.702 86.7002 157.002 86.3002C157.402 85.7002 157.902 85.4002 158.602 85.4002C159.302 85.4002 160.002 85.7002 160.802 86.2002L161.702 86.8002L162.002 86.4002C162.202 86.1002 162.302 85.7002 162.302 85.4002C162.302 85.1002 162.002 84.8002 161.602 84.5002C161.302 84.3002 160.902 84.2002 160.602 84.2002C160.302 84.2002 160.002 84.3002 159.802 84.6002L158.902 83.9002C159.102 83.6002 159.402 83.4002 159.802 83.3002C160.202 83.2002 160.602 83.2002 161.002 83.2002C161.402 83.3002 161.902 83.5002 162.302 83.7002C162.902 84.1002 163.302 84.7002 163.502 85.2002C163.602 85.8002 163.502 86.3002 163.102 86.9002L161.302 89.4002C160.902 89.9002 160.702 90.4002 160.602 90.7002L160.502 90.8002L159.502 90.3002ZM158.402 88.5002C158.702 88.7002 159.002 88.8002 159.402 88.9002C159.802 88.9002 160.102 88.9002 160.402 88.7002L161.202 87.6002L160.502 87.1002C159.302 86.3002 158.502 86.2002 158.102 86.9002C157.902 87.2002 157.802 87.5002 157.902 87.8002C157.902 88.0002 158.102 88.2002 158.402 88.5002Z" fill="white"/>
<path d="M20 188.8L28.5 185.6L29.5 188.4C29.8 189.3 29.9 190.1 29.7 190.7C29.5 191.3 29 191.8 28.3 192C27.9 192.1 27.5 192.2 27.1 192.1C26.7 192 26.4 191.8 26 191.4C26 191.9 25.9 192.4 25.7 192.8C25.4 193.2 25.1 193.5 24.6 193.7C23.8 194 23.1 194 22.5 193.6C21.9 193.3 21.4 192.7 21.1 191.7L20 188.8ZM24.4 188.5L21.3 189.6L22 191.5C22.2 192 22.5 192.4 22.9 192.6C23.3 192.8 23.7 192.8 24.2 192.6C25.2 192.2 25.5 191.5 25.1 190.4L24.4 188.5ZM25.3 188.1L25.9 189.8C26.1 190.3 26.4 190.6 26.7 190.8C27.1 191 27.4 191 27.9 190.9C28.4 190.7 28.7 190.5 28.8 190.1C28.9 189.7 28.9 189.3 28.7 188.7L28.1 187L25.3 188.1Z" fill="white"/>
<path d="M28.7984 194.9C29.5984 195.1 30.1984 195.6 30.4984 196.3C31.0984 197.6 30.6984 198.6 29.1984 199.3L25.1984 201.2L24.6984 200.2L28.6984 198.3C29.0984 198.1 29.3984 197.8 29.4984 197.5C29.5984 197.2 29.5984 196.8 29.3984 196.4C29.1984 196.1 28.9984 195.8 28.6984 195.6C28.3984 195.4 28.0984 195.3 27.6984 195.3L23.3984 197.4L22.8984 196.4L31.5984 192.3L32.0984 193.3L28.7984 194.9Z" fill="white"/>
<path d="M28.2016 206.7C28.3016 206.6 28.5016 206.4 28.7016 206.2C28.0016 206 27.4016 205.6 27.0016 205C26.7016 204.4 26.6016 203.9 26.7016 203.3C26.8016 202.7 27.1016 202.3 27.6016 202C28.2016 201.7 28.8016 201.6 29.4016 201.9C30.0016 202.2 30.5016 202.7 31.0016 203.6L31.6016 204.6L32.1016 204.3C32.4016 204.1 32.7016 203.8 32.8016 203.5C32.9016 203.2 32.8016 202.8 32.6016 202.4C32.4016 202 32.1016 201.8 31.8016 201.7C31.5016 201.6 31.2016 201.6 30.9016 201.7L30.3016 200.7C30.6016 200.5 30.9016 200.5 31.3016 200.5C31.7016 200.6 32.1016 200.7 32.4016 201C32.8016 201.3 33.1016 201.6 33.3016 202C33.7016 202.7 33.8016 203.3 33.7016 203.9C33.6016 204.5 33.2016 204.9 32.6016 205.3L29.9016 206.8C29.4016 207.1 29.0016 207.4 28.7016 207.7H28.6016L28.2016 206.7ZM28.0016 204.6C28.2016 204.9 28.4016 205.2 28.8016 205.4C29.2016 205.6 29.5016 205.7 29.8016 205.6L31.0016 204.9L30.6016 204.1C29.9016 202.9 29.2016 202.5 28.5016 202.9C28.2016 203.1 28.0016 203.3 27.9016 203.6C27.8016 203.9 27.8016 204.3 28.0016 204.6Z" fill="white"/>
<path d="M33.5 211.6C33.8 211.4 33.9 211.2 33.9 210.9C33.9 210.6 33.8 210.2 33.6 209.6C33.4 209 33.2 208.6 33.2 208.2C33.2 207.8 33.2 207.5 33.3 207.2C33.4 206.9 33.6 206.7 33.9 206.5C34.4 206.2 34.9 206.1 35.5 206.3C36.1 206.5 36.6 206.9 37 207.5C37.4 208.1 37.6 208.8 37.6 209.4C37.5 210 37.3 210.5 36.7 210.8L36.1 209.8C36.4 209.6 36.5 209.4 36.5 209C36.5 208.7 36.4 208.3 36.2 208C36 207.7 35.7 207.4 35.4 207.3C35.1 207.2 34.9 207.2 34.6 207.4C34.4 207.6 34.3 207.8 34.3 208C34.3 208.3 34.4 208.7 34.6 209.2C34.8 209.7 35 210.2 35 210.6C35.1 211 35 211.3 34.9 211.6C34.8 211.9 34.6 212.1 34.3 212.3C33.8 212.6 33.3 212.7 32.7 212.5C32.1 212.3 31.6 211.9 31.2 211.3C30.9 210.9 30.7 210.4 30.6 210C30.5 209.5 30.6 209.1 30.7 208.7C30.9 208.3 31.1 208 31.4 207.8L32 208.8C31.7 209 31.5 209.3 31.5 209.7C31.5 210.1 31.6 210.4 31.9 210.8C32.1 211.2 32.4 211.4 32.7 211.5C33 211.8 33.3 211.8 33.5 211.6Z" fill="white"/>
<path d="M39.1008 212.3C39.9008 212.3 40.6008 212.6 41.1008 213.3C42.0008 214.4 41.8008 215.5 40.6008 216.5L37.1008 219.3L36.4008 218.4L39.9008 215.6C40.3008 215.3 40.5008 215 40.5008 214.7C40.5008 214.4 40.4008 214 40.1008 213.7C39.9008 213.4 39.6008 213.2 39.3008 213.1C39.0008 213 38.6008 213 38.3008 213.1L34.5008 216.1L33.8008 215.2L41.3008 209.2L42.0008 210.1L39.1008 212.3Z" fill="white"/>
<path d="M41.3016 223.8C41.4016 223.7 41.5016 223.5 41.7016 223.2C40.9016 223.2 40.3016 222.9 39.8016 222.4C39.3016 221.9 39.1016 221.4 39.1016 220.8C39.1016 220.2 39.3016 219.8 39.7016 219.4C40.2016 218.9 40.8016 218.7 41.4016 218.9C42.0016 219 42.7016 219.4 43.4016 220.2L44.2016 221L44.5016 220.5C44.8016 220.2 44.9016 219.9 45.0016 219.6C45.1016 219.3 44.9016 218.9 44.5016 218.6C44.2016 218.3 43.9016 218.1 43.6016 218.1C43.3016 218 43.0016 218.1 42.8016 218.3L42.0016 217.5C42.2016 217.3 42.6016 217.1 43.0016 217.1C43.4016 217.1 43.8016 217.1 44.2016 217.3C44.6016 217.5 45.0016 217.7 45.3016 218.1C45.8016 218.7 46.1016 219.2 46.1016 219.8C46.1016 220.4 45.9016 220.9 45.4016 221.4L43.1016 223.5C42.6016 223.9 42.3016 224.3 42.2016 224.7L42.1016 224.8L41.3016 223.8ZM40.6016 221.8C40.8016 222.1 41.1016 222.3 41.5016 222.4C41.9016 222.5 42.2016 222.5 42.5016 222.4L43.5016 221.5L42.9016 220.8C41.9016 219.8 41.2016 219.5 40.5016 220.1C40.2016 220.3 40.1016 220.6 40.1016 220.9C40.2016 221.2 40.4016 221.5 40.6016 221.8Z" fill="white"/>
<path d="M50.7 227.1C50.1 226.2 49.8 225.5 49.7 224.8C49.6 224.2 49.8 223.6 50.2 223.1C50.7 222.6 51.3 222.3 52 222.3C52.7 222.3 53.5 222.6 54.1 223.2C54.6 223.6 54.9 224.1 55.1 224.6C55.3 225.1 55.4 225.6 55.3 226.1C55.2 226.6 55 227 54.7 227.4L53.8 226.6C54.2 226.2 54.3 225.7 54.2 225.3C54.1 224.8 53.9 224.4 53.4 224C53 223.6 52.5 223.4 52.1 223.4C51.7 223.4 51.3 223.6 51 223.9C50.8 224.2 50.7 224.5 50.7 224.9C50.8 225.3 51 225.8 51.5 226.5C51.9 227.1 52.2 227.7 52.4 228.2C52.6 228.7 52.6 229.1 52.5 229.5C52.4 229.9 52.3 230.3 52 230.6C51.5 231.2 50.9 231.4 50.2 231.4C49.5 231.4 48.8 231 48 230.4C47.5 230 47.2 229.5 46.9 229C46.6 228.5 46.5 227.9 46.6 227.4C46.6 226.9 46.8 226.4 47.2 226L48.1 226.8C47.7 227.2 47.6 227.7 47.7 228.2C47.8 228.7 48.1 229.2 48.6 229.6C49.1 230 49.5 230.2 50 230.2C50.4 230.2 50.8 230.1 51.1 229.7C51.4 229.3 51.5 229 51.4 228.6C51.3 228.2 51.2 227.8 50.7 227.1Z" fill="white"/>
<path d="M55.4016 235.8C55.4016 235.7 55.5016 235.4 55.7016 235.1C54.9016 235.2 54.3016 235.1 53.7016 234.7C53.2016 234.3 52.8016 233.8 52.7016 233.3C52.6016 232.7 52.7016 232.2 53.0016 231.8C53.4016 231.2 53.9016 230.9 54.6016 230.9C55.3016 230.9 56.0016 231.2 56.8016 231.7L57.7016 232.4L58.0016 232C58.2016 231.7 58.3016 231.3 58.3016 231C58.2016 230.7 58.0016 230.4 57.6016 230.1C57.3016 229.9 56.9016 229.7 56.6016 229.7C56.3016 229.7 56.0016 229.8 55.8016 230.1L54.9016 229.4C55.1016 229.1 55.4016 228.9 55.8016 228.8C56.2016 228.7 56.6016 228.7 57.0016 228.8C57.4016 228.9 57.9016 229.1 58.3016 229.4C58.9016 229.9 59.3016 230.4 59.4016 230.9C59.5016 231.5 59.4016 232 59.0016 232.6L57.2016 235.1C56.8016 235.6 56.6016 236 56.5016 236.4L56.4016 236.5L55.4016 235.8ZM54.3016 234C54.6016 234.2 54.9016 234.3 55.3016 234.4C55.7016 234.4 56.0016 234.4 56.3016 234.2L57.1016 233.1L56.4016 232.6C55.3016 231.8 54.4016 231.7 54.0016 232.4C53.8016 232.7 53.7016 233 53.8016 233.3C53.8016 233.5 54.0016 233.8 54.3016 234Z" fill="white"/>
<path d="M62.2992 232.4L61.9992 233.1C62.6992 232.8 63.3992 232.9 64.1992 233.3C64.9992 233.8 65.3992 234.4 65.2992 235.2C65.6992 235 65.9992 235 66.4992 235C66.9992 235 67.2992 235.1 67.7992 235.4C69.0992 236.1 69.2992 237.2 68.5992 238.6L66.2992 242.5L65.2992 241.9L67.4992 238C67.6992 237.6 67.7992 237.2 67.7992 236.9C67.6992 236.6 67.4992 236.3 66.9992 236C66.5992 235.8 66.2992 235.7 65.8992 235.8C65.4992 235.9 65.1992 236.1 64.9992 236.4L62.7992 240.3L61.7992 239.7L63.9992 235.9C64.4992 235.1 64.2992 234.4 63.4992 233.9C62.7992 233.5 62.1992 233.5 61.6992 234L59.1992 238.3L58.1992 237.7L61.5992 231.9L62.2992 232.4Z" fill="white"/>
<path d="M72.0008 245.1C72.0008 245 72.0008 244.7 72.1008 244.4C71.4008 244.7 70.7008 244.7 70.0008 244.4C69.4008 244.1 69.0008 243.7 68.7008 243.2C68.5008 242.7 68.5008 242.2 68.7008 241.6C69.0008 241 69.5008 240.6 70.1008 240.4C70.7008 240.3 71.5008 240.4 72.4008 240.8L73.4008 241.3L73.6008 240.8C73.8008 240.4 73.8008 240.1 73.7008 239.8C73.6008 239.5 73.3008 239.2 72.9008 239C72.5008 238.8 72.2008 238.8 71.8008 238.9C71.5008 239 71.2008 239.1 71.1008 239.4L70.0008 238.9C70.1008 238.6 70.4008 238.3 70.7008 238.2C71.0008 238.1 71.4008 237.9 71.9008 237.9C72.3008 237.9 72.8008 238 73.2008 238.2C73.9008 238.5 74.4008 238.9 74.6008 239.5C74.8008 240 74.8008 240.6 74.6008 241.2L73.3008 244C73.0008 244.6 72.9008 245 72.9008 245.4V245.5L72.0008 245.1ZM70.6008 243.5C70.9008 243.6 71.3008 243.7 71.7008 243.7C72.1008 243.7 72.4008 243.5 72.6008 243.3L73.2008 242L72.4008 241.6C71.1008 241 70.3008 241.1 70.0008 241.9C69.9008 242.2 69.8008 242.5 70.0008 242.8C70.0008 243.1 70.3008 243.3 70.6008 243.5Z" fill="white"/>
<path d="M79.9008 242C79.7008 241.9 79.6008 241.8 79.4008 241.8C78.7008 241.5 78.1008 241.7 77.6008 242.2L75.9008 246.7L74.8008 246.3L77.2008 240L78.3008 240.4L78.0008 241.1C78.6008 240.7 79.2008 240.6 79.8008 240.8C80.0008 240.9 80.2008 241 80.2008 241.1L79.9008 242Z" fill="white"/>
<path d="M83.3998 240.3L82.8998 241.9L84.0998 242.3L83.7998 243.1L82.5998 242.7L81.2998 246.7C81.1998 247 81.1998 247.2 81.2998 247.3C81.3998 247.5 81.4998 247.6 81.7998 247.7C81.8998 247.7 82.0998 247.8 82.2998 247.8L81.9998 248.7C81.6998 248.7 81.3998 248.6 81.0998 248.6C80.5998 248.4 80.2998 248.2 80.0998 247.8C79.8998 247.4 79.9998 247 80.0998 246.4L81.3998 242.4L80.1998 242L80.4998 241.2L81.6998 241.6L82.1998 240L83.3998 240.3Z" fill="white"/>
<path d="M86.1992 243.7C86.7992 243.2 87.5992 243.1 88.3992 243.3C89.7992 243.6 90.2992 244.6 89.8992 246.2L88.7992 250.5L87.6992 250.2L88.7992 245.9C88.8992 245.4 88.8992 245.1 88.6992 244.8C88.4992 244.5 88.1992 244.3 87.7992 244.2C87.3992 244.1 87.0992 244.1 86.7992 244.3C86.4992 244.4 86.1992 244.6 85.9992 244.9L84.7992 249.6L83.6992 249.3L85.9992 240L87.0992 240.3L86.1992 243.7Z" fill="white"/>
<path d="M94.9986 251.6C94.9986 251.5 94.8986 251.2 94.9986 250.9C94.3986 251.4 93.6986 251.5 92.9986 251.4C92.2986 251.3 91.7986 251 91.4986 250.6C91.0986 250.2 90.9986 249.7 91.0986 249.1C91.1986 248.4 91.5986 247.9 92.1986 247.6C92.7986 247.3 93.5986 247.2 94.4986 247.4L95.4986 247.5L95.5986 247C95.6986 246.6 95.5986 246.3 95.3986 246C95.1986 245.7 94.8986 245.5 94.3986 245.5C93.9986 245.4 93.5986 245.5 93.2986 245.6C92.9986 245.8 92.7986 246 92.7986 246.3L91.6986 246.1C91.7986 245.8 91.8986 245.5 92.1986 245.2C92.4986 244.9 92.7986 244.7 93.2986 244.6C93.6986 244.5 94.1986 244.5 94.6986 244.6C95.4986 244.7 95.9986 245 96.3986 245.5C96.7986 246 96.8986 246.5 96.7986 247.2L96.2986 250.3C96.1986 250.9 96.1986 251.4 96.2986 251.8V251.9L94.9986 251.6ZM93.1986 250.4C93.5986 250.5 93.8986 250.4 94.2986 250.3C94.6986 250.2 94.8986 250 95.0986 249.7L95.2986 248.3L94.3986 248.2C92.9986 248 92.1986 248.3 92.0986 249.1C91.9986 249.5 92.0986 249.8 92.2986 250C92.5986 250.2 92.8986 250.3 93.1986 250.4Z" fill="white"/>
<path d="M100.202 249L99.4016 249.7L99.2016 252.1L98.1016 252L99.0016 242.5L100.102 242.6L99.6016 248.4L100.302 247.7L102.602 245.7L104.002 245.8L101.102 248.4L103.702 252.6L102.402 252.5L100.202 249Z" fill="white"/>
<path d="M108 247.8C108 247.4 108.1 247.1 108.3 246.9C108.5 246.7 108.8 246.5 109.2 246.5C109.6 246.5 109.9 246.6 110.1 246.8C110.3 247 110.5 247.3 110.5 247.7V247.9C110.5 248.3 110.4 248.6 110.2 248.8C110 249 109.7 249.2 109.3 249.2C108.9 249.2 108.6 249.1 108.4 248.9C108.2 248.7 108 248.4 108 248V247.8Z" fill="white"/>
<path d="M116.199 252.3L115.199 243.3L118.099 243C119.099 242.9 119.799 243 120.399 243.4C120.899 243.8 121.199 244.3 121.299 245.1C121.299 245.5 121.299 245.9 121.099 246.3C120.899 246.6 120.599 246.9 120.199 247.2C120.699 247.3 121.099 247.5 121.399 247.9C121.699 248.3 121.899 248.7 121.999 249.2C122.099 250 121.899 250.7 121.399 251.2C120.899 251.7 120.199 252 119.299 252.1L116.199 252.3ZM116.799 247L118.599 246.8C119.099 246.7 119.499 246.6 119.799 246.3C120.099 246 120.199 245.6 120.199 245.2C120.099 244.7 119.999 244.4 119.599 244.2C119.199 244 118.799 243.9 118.199 244L116.399 244.2L116.799 247ZM116.899 248L117.299 251.2L119.299 251C119.899 250.9 120.299 250.7 120.599 250.4C120.899 250.1 120.999 249.7 120.999 249.2C120.899 248.1 120.199 247.6 119.099 247.8L116.899 248Z" fill="white"/>
<path d="M126.4 245.1C126.2 245.1 126 245.1 125.8 245.2C125.1 245.3 124.6 245.7 124.5 246.4L125.3 251.1L124.2 251.3L123 244.7L124.1 244.5L124.3 245.3C124.6 244.6 125 244.3 125.7 244.1C125.9 244.1 126.1 244.1 126.2 244.1L126.4 245.1Z" fill="white"/>
<path d="M127.502 247.3C127.302 246.7 127.302 246.1 127.502 245.5C127.702 244.9 127.902 244.4 128.302 244.1C128.702 243.7 129.202 243.4 129.702 243.3C130.602 243.1 131.402 243.2 132.102 243.7C132.802 244.2 133.302 244.9 133.502 246V246.1C133.702 246.7 133.702 247.3 133.602 247.9C133.502 248.5 133.202 248.9 132.802 249.3C132.402 249.7 131.902 250 131.302 250.1C130.402 250.3 129.602 250.2 128.902 249.7C128.202 249.2 127.802 248.4 127.502 247.3ZM128.702 247.1C128.902 247.8 129.202 248.4 129.602 248.7C130.002 249.1 130.502 249.2 131.102 249C131.702 248.9 132.102 248.5 132.302 248C132.502 247.5 132.502 246.8 132.302 246C132.102 245.3 131.802 244.7 131.402 244.4C130.902 244 130.402 243.9 129.902 244.1C129.302 244.2 129.002 244.6 128.702 245.1C128.502 245.6 128.502 246.3 128.702 247.1Z" fill="white"/>
<path d="M134.901 241.9L135.201 242.7C135.501 241.9 136.001 241.4 136.801 241.1C138.201 240.6 139.101 241.2 139.601 242.7L141.001 246.9L139.901 247.3L138.501 243.1C138.301 242.6 138.101 242.3 137.801 242.2C137.501 242 137.201 242 136.701 242.2C136.301 242.3 136.101 242.5 135.901 242.8C135.701 243.1 135.601 243.4 135.501 243.8L137.001 248.4L135.901 248.8L133.801 242.4L134.901 241.9Z" fill="white"/>
<path d="M143.602 244.9L147.202 243.4L147.602 244.3L142.702 246.4L142.402 245.6L143.902 239.6L140.502 241L140.102 240.1L144.802 238.1L145.102 238.9L143.602 244.9Z" fill="white"/>
<path d="M151.502 242.4C150.702 242.8 149.902 242.9 149.102 242.6C148.302 242.3 147.702 241.7 147.202 240.8L147.102 240.6C146.802 240 146.602 239.4 146.602 238.8C146.602 238.2 146.702 237.7 147.002 237.2C147.302 236.7 147.702 236.4 148.102 236.1C148.902 235.7 149.602 235.7 150.302 235.9C151.002 236.1 151.602 236.8 152.102 237.8L152.302 238.2L148.202 240.3C148.502 240.9 148.902 241.3 149.402 241.5C149.902 241.7 150.402 241.7 150.902 241.4C151.302 241.2 151.502 241 151.702 240.7C151.902 240.4 152.002 240.1 152.102 239.8L153.002 240C153.102 241.2 152.502 241.9 151.502 242.4ZM148.702 237.1C148.302 237.3 148.002 237.6 147.902 238.1C147.802 238.5 147.802 239.1 148.002 239.6L151.002 238.1V238C150.702 237.5 150.402 237.2 150.002 237C149.602 236.8 149.102 236.9 148.702 237.1Z" fill="white"/>
<path d="M162.3 232.4C162.7 233.3 162.9 234.1 162.7 234.8C162.5 235.6 162 236.2 161.2 236.8C160.3 237.4 159.4 237.6 158.4 237.3C157.4 237 156.6 236.3 155.9 235.3L155.4 234.6C154.9 233.9 154.6 233.2 154.5 232.5C154.4 231.8 154.5 231.2 154.7 230.6C154.9 230 155.4 229.5 156 229.1C156.8 228.6 157.6 228.4 158.4 228.5C159.2 228.6 159.9 229.1 160.5 229.8L159.5 230.5C159 230 158.5 229.6 158.1 229.6C157.7 229.6 157.1 229.7 156.6 230C156 230.4 155.6 231 155.6 231.7C155.6 232.4 155.8 233.2 156.4 234.1L156.9 234.8C157.4 235.6 158.1 236.2 158.7 236.4C159.3 236.6 160 236.6 160.6 236.2C161.2 235.8 161.5 235.4 161.6 235C161.7 234.6 161.6 234 161.3 233.3L162.3 232.4Z" fill="white"/>
<path d="M162.998 231.2C162.598 230.7 162.298 230.1 162.198 229.6C162.098 229 162.099 228.5 162.299 228C162.499 227.5 162.799 227 163.299 226.7C163.999 226.1 164.799 225.9 165.599 226C166.399 226.1 167.199 226.6 167.799 227.4L167.898 227.5C168.298 228 168.598 228.5 168.698 229.1C168.798 229.7 168.799 230.2 168.599 230.7C168.399 231.2 168.099 231.7 167.599 232C166.899 232.6 166.099 232.8 165.299 232.6C164.499 232.4 163.698 232.1 162.998 231.2ZM163.998 230.6C164.498 231.2 164.998 231.5 165.498 231.7C165.998 231.9 166.598 231.7 166.998 231.4C167.498 231 167.698 230.6 167.698 230C167.698 229.4 167.398 228.8 166.898 228.2C166.398 227.6 165.898 227.3 165.398 227.1C164.798 227 164.298 227.1 163.898 227.4C163.498 227.8 163.199 228.2 163.299 228.8C163.399 229.4 163.398 229.9 163.998 230.6Z" fill="white"/>
<path d="M167.399 223.2L167.999 223.8C167.899 223 168.199 222.3 168.799 221.7C169.799 220.7 170.899 220.8 171.999 222L175.099 225.2L174.299 226L171.199 222.8C170.899 222.4 170.499 222.3 170.199 222.2C169.899 222.1 169.599 222.3 169.199 222.6C168.899 222.9 168.799 223.2 168.699 223.5C168.599 223.8 168.699 224.2 168.799 224.5L172.099 228L171.299 228.8L166.699 223.9L167.399 223.2Z" fill="white"/>
<path d="M171.501 216.9L172.701 218L173.601 217.1L174.301 217.7L173.401 218.6L176.501 221.5C176.701 221.7 176.901 221.8 177.101 221.8C177.301 221.8 177.501 221.7 177.601 221.5C177.701 221.4 177.801 221.3 177.901 221L178.601 221.6C178.501 221.9 178.301 222.1 178.101 222.3C177.701 222.7 177.401 222.9 177.001 222.8C176.601 222.8 176.201 222.6 175.801 222.2L172.701 219.3L171.901 220.2L171.201 219.6L172.001 218.7L170.801 217.6L171.501 216.9Z" fill="white"/>
<path d="M177.198 214.3C177.098 214.4 176.898 214.5 176.798 214.7C176.298 215.3 176.198 215.9 176.498 216.5L180.098 219.6L179.498 220.5L174.398 216.1L175.098 215.2L175.698 215.7C175.498 215 175.598 214.4 176.098 213.9C176.198 213.7 176.398 213.6 176.498 213.6L177.198 214.3Z" fill="white"/>
<path d="M175.601 211.8C175.501 211.7 175.401 211.5 175.301 211.4C175.301 211.2 175.301 211.1 175.501 210.9C175.601 210.7 175.801 210.6 176.001 210.6C176.201 210.6 176.301 210.6 176.501 210.8C176.601 210.9 176.701 211.1 176.801 211.2C176.801 211.4 176.801 211.5 176.601 211.7C176.501 211.9 176.301 212 176.101 212C175.901 211.9 175.801 211.9 175.601 211.8ZM183.101 216.1L182.401 217L177.101 212.8L177.801 211.9L183.101 216.1Z" fill="white"/>
<path d="M185 207.8C185.8 208.4 186.4 209.1 186.6 209.8C186.8 210.5 186.7 211.2 186.3 211.9C185.8 212.6 185.2 213 184.4 213L185 213.5L184.4 214.4L176.5 208.9L177.2 208L180.1 210C179.9 209.3 180 208.6 180.5 207.9C181 207.2 181.6 206.9 182.4 206.8C183.2 206.9 184 207.2 185 207.8ZM184.2 208.7C183.6 208.3 183 208 182.4 208C181.9 208 181.5 208.2 181.1 208.7C180.7 209.3 180.6 210 181 210.6L183.4 212.3C184.2 212.4 184.8 212.2 185.2 211.5C185.5 211 185.6 210.6 185.4 210.1C185.2 209.6 184.9 209.2 184.2 208.7Z" fill="white"/>
<path d="M190.099 204.2C190.299 204.9 190.199 205.6 189.799 206.3C189.399 206.9 188.999 207.3 188.399 207.4C187.899 207.5 187.199 207.4 186.499 207L182.699 204.8L183.299 203.8L187.099 206C187.999 206.5 188.599 206.4 189.099 205.7C189.499 204.9 189.599 204.3 189.099 203.7L184.899 201.2L185.499 200.2L191.299 203.6L190.699 204.5L190.099 204.2Z" fill="white"/>
<path d="M185.401 196.6L186.901 197.3L187.501 196.2L188.301 196.6L187.701 197.7L191.401 199.6C191.601 199.7 191.801 199.8 192.001 199.7C192.201 199.6 192.301 199.5 192.401 199.3C192.501 199.2 192.501 199 192.601 198.8L193.401 199.2C193.301 199.5 193.201 199.8 193.101 200C192.901 200.5 192.601 200.7 192.201 200.8C191.801 200.9 191.401 200.8 190.801 200.6L187.101 198.7L186.601 199.8L185.801 199.4L186.301 198.3L184.801 197.6L185.401 196.6Z" fill="white"/>
<path d="M190.899 196.9C190.299 196.6 189.799 196.3 189.399 195.8C188.999 195.4 188.799 194.9 188.699 194.3C188.599 193.7 188.699 193.2 188.899 192.7C189.299 191.9 189.799 191.3 190.599 191C191.399 190.7 192.299 190.8 193.299 191.2H193.399C193.999 191.5 194.499 191.8 194.899 192.2C195.299 192.6 195.499 193.1 195.599 193.7C195.699 194.2 195.599 194.8 195.399 195.4C194.999 196.2 194.499 196.8 193.699 197.1C192.799 197.4 191.899 197.3 190.899 196.9ZM191.399 195.9C192.099 196.2 192.699 196.3 193.299 196.1C193.899 195.9 194.199 195.6 194.499 195.1C194.699 194.6 194.699 194 194.399 193.5C194.099 193 193.599 192.6 192.799 192.3C192.099 192 191.499 191.9 190.899 192.1C190.299 192.2 189.899 192.6 189.699 193.1C189.499 193.6 189.499 194.1 189.799 194.6C190.099 195.1 190.699 195.5 191.399 195.9Z" fill="white"/>
<path d="M192.702 185.9C192.602 186.1 192.502 186.2 192.502 186.4C192.302 187.1 192.402 187.7 192.902 188.2L197.402 189.8L197.002 190.9L190.602 188.7L191.002 187.6L191.702 187.8C191.302 187.2 191.102 186.6 191.402 186C191.502 185.8 191.602 185.6 191.702 185.5L192.702 185.9Z" fill="white"/>
<defs>
<filter id="filter0_ii" x="0" y="50" width="218" height="218" filterUnits="userSpaceOnUse" color-interpolation-filters="sRGB">
<feFlood flood-opacity="0" result="BackgroundImageFix"/>
<feBlend mode="normal" in="SourceGraphic" in2="BackgroundImageFix" result="shape"/>
<feColorMatrix in="SourceAlpha" type="matrix" values="0 0 0 0 0 0 0 0 0 0 0 0 0 0 0 0 0 0 127 0" result="hardAlpha"/>
<feOffset/>
<feGaussianBlur stdDeviation="4"/>
<feComposite in2="hardAlpha" operator="arithmetic" k2="-1" k3="1"/>
<feColorMatrix type="matrix" values="0 0 0 0 0.9875 0 0 0 0 0.722843 0 0 0 0 0.386771 0 0 0 1 0"/>
<feBlend mode="normal" in2="shape" result="effect1_innerShadow"/>
<feColorMatrix in="SourceAlpha" type="matrix" values="0 0 0 0 0 0 0 0 0 0 0 0 0 0 0 0 0 0 127 0" result="hardAlpha"/>
<feOffset/>
<feGaussianBlur stdDeviation="6"/>
<feComposite in2="hardAlpha" operator="arithmetic" k2="-1" k3="1"/>
<feColorMatrix type="matrix" values="0 0 0 0 0 0 0 0 0 0 0 0 0 0 0 0 0 0 0.2 0"/>
<feBlend mode="normal" in2="effect1_innerShadow" result="effect2_innerShadow"/>
</filter>
<filter id="filter1_i" x="59" y="109" width="100" height="100" filterUnits="userSpaceOnUse" color-interpolation-filters="sRGB">
<feFlood flood-opacity="0" result="BackgroundImageFix"/>
<feBlend mode="normal" in="SourceGraphic" in2="BackgroundImageFix" result="shape"/>
<feColorMatrix in="SourceAlpha" type="matrix" values="0 0 0 0 0 0 0 0 0 0 0 0 0 0 0 0 0 0 127 0" result="hardAlpha"/>
<feOffset/>
<feGaussianBlur stdDeviation="6"/>
<feComposite in2="hardAlpha" operator="arithmetic" k2="-1" k3="1"/>
<feColorMatrix type="matrix" values="0 0 0 0 0 0 0 0 0 0 0 0 0 0 0 0 0 0 0.4 0"/>
<feBlend mode="normal" in2="shape" result="effect1_innerShadow"/>
</filter>
<linearGradient id="paint0_linear" x1="51.775" y1="57.4938" x2="218" y2="246.2" gradientUnits="userSpaceOnUse">
<stop stop-color="white"/>
<stop offset="1" stop-color="#705F5F" stop-opacity="0"/>
</linearGradient>
<linearGradient id="paint1_linear" x1="174.52" y1="213.6" x2="38.8" y2="107.52" gradientUnits="userSpaceOnUse">
<stop stop-color="#FFE4C1"/>
<stop offset="1" stop-color="#383838" stop-opacity="0"/>
</linearGradient>
<linearGradient id="paint2_linear" x1="194.68" y1="230.4" x2="17.2" y2="91.68" gradientUnits="userSpaceOnUse">
<stop stop-color="#FFE4C1"/>
<stop offset="1" stop-color="#383838" stop-opacity="0"/>
</linearGradient>
</defs>
</svg>
