<svg width="298" height="67" viewBox="0 0 298 67" fill="none" xmlns="http://www.w3.org/2000/svg">
<g opacity="0.45">
<path d="M214.522 55L212.23 49.1437H204.69L202.425 55H200L207.434 36H209.592L217 55H214.522ZM209.379 41.2999C209.326 41.1585 209.237 40.9024 209.113 40.5314C208.989 40.1604 208.864 39.7806 208.74 39.3919C208.633 38.9856 208.544 38.6764 208.473 38.4644C208.349 39.0121 208.207 39.5509 208.047 40.0809C207.887 40.5932 207.754 40.9995 207.647 41.2999L205.489 47.0237H211.511L209.379 41.2999Z" fill="#FF7F11"/>
<path d="M128.482 28.2612V30.5493H124.309V36.624H115.188C113.813 36.624 113.126 37.0161 113.126 37.8003C113.126 38.2407 113.362 38.8477 113.835 39.6211C114.318 40.3945 114.77 40.9531 115.188 41.2969C116.811 40.2334 118.374 39.7017 119.877 39.7017C121.349 39.7017 122.638 40.2388 123.745 41.313C124.851 42.3872 125.404 43.5366 125.404 44.7612C125.404 46.5337 124.405 48.2202 122.407 49.8208L120.554 48C123.025 46.3457 124.26 44.9707 124.26 43.875C124.26 43.2412 124.008 42.7256 123.503 42.3281C122.998 41.9199 122.337 41.7158 121.521 41.7158C120.071 41.7158 118.631 42.167 117.203 43.0693C115.774 43.9609 115.06 45.0728 115.06 46.4048C115.06 47.9624 116.198 49.5791 118.476 51.2549C120.764 52.9307 123.884 54.3486 127.837 55.5088L127.628 56.1855L126.452 55.7988C122.509 54.499 119.233 52.8823 116.623 50.9487C114.012 49.0259 112.707 47.1138 112.707 45.2124C112.707 44.063 113.325 42.9243 114.56 41.7964C112.841 39.7983 111.982 38.1709 111.982 36.9141C111.982 35.1953 113.319 34.3359 115.994 34.3359H121.763V30.5493H110V28.2612H122.649L120.184 25.0547C118.486 22.8418 116.735 21.7354 114.931 21.7354H113.142L112.111 18.9961H113.352C114.544 18.9961 115.656 19.3184 116.687 19.9629C117.718 20.5967 119.018 21.9771 120.586 24.104L123.664 28.2612H128.482Z" fill="#98A0A0"/>
<path d="M256.825 18.9512C256.532 18.931 256.234 18.9209 255.932 18.9209C254.701 18.9209 253.712 19.2186 252.965 19.814C252.228 20.4093 251.86 21.2419 251.86 22.3115C251.86 24.6527 253.389 25.8232 256.446 25.8232C258.293 25.8232 259.923 25.3792 261.335 24.4912C262.758 23.6032 263.863 22.3923 264.65 20.8584C265.438 19.3145 265.831 17.7756 265.831 16.2417C265.831 14.6473 265.589 13.4364 265.104 12.6089C264.62 11.7713 263.914 11.3525 262.985 11.3525C262.299 11.3525 261.754 11.5645 261.351 11.9883C260.957 12.402 260.76 12.9066 260.76 13.502C260.76 14.5817 261.124 15.4142 261.85 15.9995C262.587 16.5848 263.677 17.0187 265.12 17.3013L264.348 19.5264C260.321 18.4567 258.308 16.494 258.308 13.6382C258.308 12.3062 258.712 11.2214 259.519 10.3838C260.336 9.53613 261.441 9.1123 262.834 9.1123C264.509 9.1123 265.851 9.72786 266.86 10.959C267.869 12.1901 268.374 13.951 268.374 16.2417C268.374 18.1994 267.885 20.1167 266.906 21.9937C265.937 23.8605 264.549 25.3439 262.743 26.4438C260.937 27.5438 258.858 28.0938 256.507 28.0938C254.246 28.0938 252.491 27.5741 251.239 26.5347C249.988 25.4953 249.362 24.0977 249.362 22.3418C249.362 20.7777 249.887 19.4759 250.937 18.4365C249.938 17.7705 249.196 17.0339 248.711 16.2266C248.237 15.4193 248 14.506 248 13.4868C248 12.2254 248.464 11.181 249.393 10.3535C250.331 9.52604 251.587 9.1123 253.162 9.1123C254.181 9.1123 255.145 9.22331 256.053 9.44531L255.629 11.6704C254.781 11.4787 254.05 11.3828 253.434 11.3828C252.506 11.3828 251.784 11.5897 251.27 12.0034C250.755 12.4071 250.498 12.9621 250.498 13.6685C250.498 14.4455 250.709 15.1064 251.133 15.6514C251.567 16.1963 252.213 16.6857 253.071 17.1196C253.918 16.8068 254.862 16.6504 255.901 16.6504C256.154 16.6504 256.557 16.6706 257.112 16.7109L256.825 18.9512Z" fill="#F3C2A0"/>
<path d="M262.94 7.9165C262.415 5.9891 261.83 4.57129 261.184 3.66309C260.528 2.75488 259.665 2.30078 258.596 2.30078C258.031 2.30078 257.496 2.39665 256.991 2.58838L256.265 0.378418C257.092 0.126139 257.925 0 258.762 0C260.044 0 261.073 0.30778 261.85 0.92334C262.617 1.52881 263.263 2.42692 263.788 3.61768C264.302 4.80843 264.756 6.24137 265.15 7.9165H262.94Z" fill="#F3C2A0"/>
<path d="M152 20.6992C152 19.3789 152.28 18.2194 152.841 17.2207C153.402 16.2051 154.175 15.418 155.161 14.8594C156.164 14.2839 157.328 13.9961 158.654 13.9961C159.996 13.9961 161.161 14.2754 162.146 14.834C163.149 15.3757 163.931 16.1458 164.492 17.1445C165.053 18.1432 165.333 19.3197 165.333 20.6738C165.333 21.3001 165.265 21.901 165.129 22.4766C165.792 23.3229 166.463 23.9577 167.143 24.3809C167.823 24.7871 168.562 24.9902 169.361 24.9902C170.228 24.9902 170.891 24.7194 171.35 24.1777C171.808 23.6191 172.038 22.8236 172.038 21.791C172.038 20.8092 171.834 19.9544 171.426 19.2266C171.035 18.4818 170.5 17.847 169.82 17.3223C169.157 16.7806 168.401 16.3236 167.551 15.9512L168.494 13.9961C169.548 14.4362 170.5 15.0286 171.35 15.7734C172.199 16.5182 172.879 17.3815 173.389 18.3633C173.899 19.3451 174.154 20.4368 174.154 21.6387C174.154 21.9941 174.137 22.3242 174.103 22.6289C174.749 23.4245 175.403 24.0169 176.066 24.4063C176.729 24.7956 177.442 24.9902 178.207 24.9902C179.074 24.9902 179.737 24.7194 180.196 24.1777C180.655 23.6191 180.884 22.8236 180.884 21.791C180.884 20.8092 180.68 19.9544 180.272 19.2266C179.881 18.4818 179.346 17.847 178.666 17.3223C178.003 16.7806 177.247 16.3236 176.397 15.9512L177.34 13.9961C178.394 14.4362 179.346 15.0286 180.196 15.7734C181.046 16.5182 181.725 17.3815 182.235 18.3633C182.745 19.3451 183 20.4368 183 21.6387C183 23.3145 182.575 24.6263 181.725 25.5742C180.876 26.5221 179.643 26.9961 178.029 26.9961C177.094 26.9961 176.244 26.793 175.479 26.3867C174.732 25.9805 174.06 25.4388 173.465 24.7617C173.075 25.4727 172.514 26.0228 171.783 26.4121C171.069 26.8014 170.202 26.9961 169.183 26.9961C168.146 26.9961 167.228 26.7591 166.429 26.2852C165.63 25.7943 164.917 25.151 164.288 24.3555C163.727 25.1849 162.962 25.8366 161.993 26.3105C161.042 26.7676 159.928 26.9961 158.654 26.9961C157.311 26.9961 156.138 26.7337 155.136 26.209C154.15 25.6842 153.377 24.9564 152.816 24.0254C152.272 23.0775 152 21.9687 152 20.6992ZM154.116 20.4707C154.116 21.791 154.498 22.8743 155.263 23.7207C156.028 24.5671 157.158 24.9902 158.654 24.9902C160.166 24.9902 161.305 24.584 162.07 23.7715C162.835 22.9421 163.217 21.8841 163.217 20.5977C163.217 19.7513 163.047 18.9811 162.707 18.2871C162.384 17.5931 161.883 17.043 161.203 16.6367C160.54 16.2135 159.691 16.002 158.654 16.002C157.617 16.002 156.759 16.2135 156.079 16.6367C155.416 17.043 154.923 17.5846 154.6 18.2617C154.277 18.9388 154.116 19.6751 154.116 20.4707Z" fill="#FF7F11"/>
<path d="M160.675 53.6158V54.9538H158.171C158.263 55.1144 158.327 55.2839 158.364 55.4623C158.419 55.6407 158.446 55.828 158.446 56.0243C158.446 56.6487 158.3 57.2285 158.006 57.7637C157.713 58.2811 157.309 58.6825 156.795 58.9679C157.382 59.3069 157.85 59.7886 158.199 60.413C158.547 61.0196 158.721 61.6975 158.721 62.4468C158.721 63.6956 158.07 64.766 156.768 65.6581C155.484 66.5501 153.934 66.9961 152.118 66.9961C151.054 66.9961 150.146 66.7106 149.394 66.1398C148.642 65.5689 148.266 64.8731 148.266 64.0524C148.266 63.3923 148.587 62.8304 149.229 62.3665C149.871 61.8848 150.65 61.644 151.568 61.644C152.32 61.644 153.118 61.8937 153.961 62.3933C154.805 62.875 155.612 63.5618 156.383 64.4538C156.695 64.1506 156.933 63.8294 157.098 63.4905C157.263 63.1337 157.346 62.7858 157.346 62.4468C157.346 61.9473 157.171 61.4656 156.823 61.0017C156.474 60.52 156.007 60.1097 155.42 59.7707C155.071 59.8599 154.64 59.9313 154.126 59.9848C153.631 60.0205 153.053 60.0383 152.393 60.0383C151.476 60.0383 150.696 59.9135 150.054 59.6637C149.412 59.3961 149.091 59.075 149.091 58.7003C149.091 58.397 149.33 58.1473 149.807 57.951C150.302 57.7369 150.889 57.6299 151.568 57.6299C152.081 57.6299 152.622 57.6923 153.191 57.8172C153.778 57.9243 154.383 58.0848 155.007 58.2989C155.631 58.0135 156.126 57.6656 156.493 57.2552C156.878 56.8449 157.071 56.4346 157.071 56.0243C157.071 55.828 157.034 55.6407 156.961 55.4623C156.887 55.2839 156.786 55.1144 156.658 54.9538H147V53.6158H160.675ZM149.641 64.1862C149.641 64.5966 149.88 64.9445 150.357 65.2299C150.852 65.5153 151.439 65.6581 152.118 65.6581C152.668 65.6581 153.228 65.5956 153.796 65.4707C154.383 65.328 154.97 65.1229 155.557 64.8552C154.823 64.2487 154.108 63.7848 153.411 63.4637C152.732 63.1426 152.118 62.982 151.568 62.982C151.036 62.982 150.577 63.098 150.192 63.3299C149.825 63.5618 149.641 63.8473 149.641 64.1862Z" fill="#98A0A0"/>
<path d="M156.544 51.7426C156.544 50.7078 156.92 49.8247 157.672 49.0933C158.424 48.3618 159.332 47.9961 160.396 47.9961C161.46 47.9961 162.368 48.3618 163.12 49.0933C163.872 49.8247 164.248 50.7078 164.248 51.7426V53.6158H167V54.9538H164.248V66.9961H162.873V54.9538H160.121V53.6158H162.873V51.7426C162.873 51.0825 162.625 50.5205 162.13 50.0567C161.653 49.575 161.075 49.3341 160.396 49.3341C159.718 49.3341 159.14 49.575 158.663 50.0567C158.168 50.5205 157.92 51.0825 157.92 51.7426V53.6158H156.544V51.7426Z" fill="#98A0A0"/>
<path opacity="0.4" d="M73.0136 4C74.1897 4 75.1487 4.20906 75.8906 4.62718C76.6325 5.02787 77.2296 5.58537 77.6819 6.29965C78.3152 5.44599 79.0028 4.85366 79.7447 4.52265C80.4866 4.17422 81.3913 4 82.4589 4C83.8521 4 85.0283 4.3223 85.9873 4.9669C86.9644 5.59408 87.7062 6.44774 88.2129 7.52787C88.7376 8.60801 89 9.81882 89 11.1603C89 12.885 88.6381 14.3659 87.9143 15.6028C87.2087 16.8397 86.1682 17.9721 84.793 19L83.3545 17.4059C84.3135 16.7439 85.0916 15.9251 85.6887 14.9495C86.3039 13.9564 86.6115 12.6934 86.6115 11.1603C86.6115 10.1498 86.4396 9.25261 86.0958 8.46864C85.752 7.66725 85.2635 7.04007 84.6302 6.58711C84.015 6.11673 83.2822 5.88153 82.4317 5.88153C81.6718 5.88153 81.0475 6.0122 80.5589 6.27352C80.0885 6.51742 79.7085 6.89199 79.419 7.39721C79.1838 7.79791 79.03 8.26829 78.9576 8.80836C78.8852 9.34843 78.849 10.1324 78.849 11.1603V18.7909H76.5148V10.5331C76.5148 9.62718 76.4425 8.86934 76.2977 8.25958C76.171 7.64983 75.9268 7.16202 75.5649 6.79617C75.2935 6.5 74.9497 6.27352 74.5335 6.11672C74.1173 5.95993 73.6016 5.88153 72.9864 5.88153C72.4255 5.88153 71.937 5.97735 71.5208 6.16899C71.1046 6.34321 70.7518 6.5784 70.4623 6.87456C70.1185 7.24042 69.8651 7.7108 69.7023 8.28572C69.5394 8.86063 69.458 9.68815 69.458 10.7683V18.7909H67.1238V11.1603C67.1238 10.1672 67.0876 9.39199 67.0153 8.8345C66.9429 8.25958 66.78 7.78049 66.5267 7.39721C65.9115 6.38676 64.9525 5.88153 63.6497 5.88153C62.8174 5.88153 62.0755 6.11673 61.4241 6.58711C60.7908 7.04007 60.2932 7.66725 59.9313 8.46864C59.5694 9.25261 59.3885 10.1498 59.3885 11.1603C59.3885 12.7456 59.7051 14.0261 60.3384 15.0017C60.9898 15.9774 61.7588 16.7613 62.6455 17.3537L61.0712 19C60.2932 18.3902 59.5966 17.7282 58.9813 17.0139C58.3661 16.2822 57.8776 15.446 57.5157 14.5052C57.1719 13.547 57 12.4321 57 11.1603C57 9.74913 57.2714 8.5122 57.8142 7.44948C58.3752 6.36934 59.1623 5.52439 60.1756 4.91464C61.1889 4.30488 62.3831 4 63.7583 4C64.9163 4 65.8482 4.22648 66.5539 4.67944C67.2595 5.11498 67.8386 5.66376 68.2909 6.32578C69.4309 4.77526 71.0051 4 73.0136 4Z" fill="#FF7F11"/>
<path d="M10.8034 45.59V46.1671L10.5227 46.4335C10.1582 46.759 9.97602 47.2078 9.97602 47.78C10.173 48.0759 10.5867 48.288 11.2171 48.4163C11.749 48.5445 12.0987 48.7023 12.2661 48.8898C12.7389 49.3633 12.9704 50.1327 12.9605 51.1981C12.8817 53.2401 12.4385 55.0306 11.6308 56.5695C10.8625 58.0985 9.79872 59.4105 8.43944 60.5055C7.26731 61.4426 6.00652 61.9112 4.65709 61.9112C3.34706 61.8718 2.3473 61.4476 1.65781 60.6387C0.505371 59.3069 -0.0462217 57.4672 0.00302762 55.1194C0.0621268 53.3437 0.451197 51.2869 1.17024 48.949C1.60363 47.489 1.85973 46.7245 1.93853 46.6554C2.11582 46.5272 2.24387 46.5617 2.32267 46.759C2.36207 46.8971 2.34237 47.1289 2.26357 47.4545C1.80063 49.3583 1.48543 50.9515 1.31798 52.2339C1.09144 54.1082 1.39678 55.6718 2.23402 56.9246C2.52952 57.3685 2.93829 57.7236 3.46033 57.99C4.43547 58.4832 5.62238 58.503 7.02106 58.0492C9.01073 57.3784 10.4734 56.096 11.4092 54.2019C11.6653 53.6692 11.7933 53.2204 11.7933 52.8554V52.5151C11.5175 52.2487 11.0743 52.0416 10.4636 51.8936C9.321 51.7062 8.66106 51.0995 8.48376 50.0735C8.37542 49.4422 8.40497 48.6432 8.57241 47.6764C8.86791 46.7491 9.42443 45.9008 10.242 45.1313C10.2715 45.1412 10.37 45.2201 10.5375 45.3681L10.8034 45.59Z" fill="#4D82F7"/>
<path d="M13.9652 47.3953L14.0539 47.484C13.8076 48.3916 13.4875 49.7727 13.0935 51.6272C12.9655 52.3178 12.9014 52.9639 12.9014 53.5657C12.9014 55.6471 13.586 57.0627 14.9551 57.8124C15.8121 58.2761 16.7527 58.5079 17.7771 58.5079C19.3531 58.5079 20.8749 58.0344 22.3425 57.0874C23.8988 56.1009 24.9084 54.8777 25.3714 53.4177C25.4502 52.8949 25.4896 52.2783 25.4896 51.568C25.4896 51.3313 25.46 50.4731 25.4009 48.9934C25.3615 47.9477 25.3714 47.0993 25.4305 46.4483C25.7161 45.3533 26.1003 44.2435 26.5829 43.1189C26.7208 42.9709 26.8538 42.9611 26.9818 43.0893C27.0212 43.4543 26.9966 44.4309 26.9079 46.0191C26.8882 47.2128 26.8685 48.4064 26.8488 49.6C26.7897 51.0107 26.6321 52.1501 26.376 53.0182C25.6472 55.3462 24.544 57.3685 23.0665 59.085C21.855 60.2391 20.5252 61.0678 19.0773 61.5709C18.2499 61.857 17.4028 62 16.536 62C15.5707 62 14.7335 61.8175 14.0243 61.4525C12.4483 60.4167 11.6603 58.5375 11.6603 55.8148C11.6603 54.2759 11.9115 52.5693 12.4139 50.695C12.4139 50.547 12.4582 50.3645 12.5468 50.1475C12.6453 49.9206 12.6946 49.7579 12.6946 49.6592C12.8522 49.1561 13.1526 48.4311 13.5958 47.484C13.7436 47.2769 13.8667 47.2473 13.9652 47.3953Z" fill="#4D82F7"/>
<path d="M292.935 40.6245C292.935 41.0955 293.097 41.5022 293.419 41.8447C293.763 42.1658 294.161 42.3264 294.613 42.3264C295.086 42.3264 295.484 42.1658 295.806 41.8447C296.151 41.5022 296.323 41.0955 296.323 40.6245C296.323 40.175 296.151 39.7897 295.806 39.4686C295.484 39.1475 295.086 38.9869 294.613 38.9869C294.161 38.9869 293.763 39.1475 293.419 39.4686C293.097 39.7897 292.935 40.175 292.935 40.6245ZM288.806 41.4594H288.548C288.097 42.2514 287.505 42.8722 286.774 43.3218C286.065 43.7713 285.301 43.9961 284.484 43.9961C282.978 43.9961 281.688 43.386 280.613 42.1658C279.538 40.9242 279 39.4365 279 37.7025C279 35.3264 279.839 33.2606 281.516 31.5053C283.215 29.7499 285.312 28.7545 287.806 28.519L287.484 24.6979V22.9961H289.968V24.6979L289.613 28.6475C291.118 28.7759 292.495 29.0649 293.742 29.5144C295.011 29.964 296.086 30.5741 296.968 31.3447L295.516 32.7576C294.656 32.0511 293.645 31.5053 292.484 31.1199C291.323 30.7346 290.075 30.542 288.742 30.542C287.086 30.542 285.624 30.8952 284.355 31.6016C283.108 32.2866 282.269 33.1964 281.839 34.331H297.581V36.4502H281.29C281.226 36.5573 281.172 36.7178 281.129 36.9319C281.108 37.1459 281.097 37.4028 281.097 37.7025C281.097 38.8585 281.43 39.8432 282.097 40.6566C282.763 41.4701 283.559 41.8768 284.484 41.8768C285.452 41.8768 286.269 41.4701 286.935 40.6566C287.602 39.8432 287.935 38.8585 287.935 37.7025H289.484C289.484 38.6016 289.656 39.3829 290 40.0466C290.344 40.6888 290.806 41.1169 291.387 41.331L291.258 40.6245C291.258 39.704 291.581 38.912 292.226 38.2484C292.892 37.5848 293.688 37.253 294.613 37.253C295.559 37.253 296.355 37.5848 297 38.2484C297.667 38.912 298 39.704 298 40.6245C298 41.545 297.613 42.3371 296.839 43.0007C296.086 43.6643 295.172 43.9961 294.097 43.9961C292.892 43.9961 291.817 43.7713 290.871 43.3218C289.946 42.8722 289.258 42.2514 288.806 41.4594Z" fill="#2961AD"/>
<path d="M255.829 59.9524C254.316 59.9524 253.198 59.6126 252.472 58.933C251.747 58.2372 251.384 57.3472 251.384 56.2631C251.384 55.2113 251.755 54.378 252.495 53.7631C253.252 53.132 254.316 52.8165 255.69 52.8165C256.878 52.8165 257.927 53.0511 258.838 53.5204C259.748 53.9896 260.543 54.6531 261.222 55.5107C261.531 54.9767 261.755 54.3942 261.894 53.7631C262.032 53.132 262.102 52.4767 262.102 51.7971C262.102 50.4378 261.87 49.4508 261.407 48.8359C260.944 48.221 260.312 47.9136 259.509 47.9136C258.83 47.9136 258.275 48.1725 257.843 48.6903C257.41 49.1919 257.14 49.8715 257.032 50.7291H255.204C255.096 49.8068 254.81 49.111 254.347 48.6417C253.9 48.1563 253.352 47.9136 252.704 47.9136C252.086 47.9136 251.631 48.0754 251.338 48.399C251.045 48.7064 250.898 49.1191 250.898 49.6369C250.898 49.9443 250.937 50.2598 251.014 50.5835C251.106 50.8909 251.199 51.1417 251.292 51.3359L249.532 51.9184C249.394 51.611 249.27 51.2631 249.162 50.8747C249.054 50.4702 249 50.009 249 49.4912C249 48.7793 249.162 48.1644 249.486 47.6466C249.81 47.1126 250.242 46.7081 250.782 46.433C251.323 46.1417 251.917 45.9961 252.565 45.9961C253.367 45.9961 254.046 46.166 254.602 46.5058C255.157 46.8456 255.667 47.4039 256.13 48.1806C256.623 47.2744 257.187 46.6838 257.819 46.4087C258.452 46.1336 259.077 45.9961 259.694 45.9961C260.728 45.9961 261.562 46.2793 262.194 46.8456C262.827 47.412 263.282 48.1401 263.56 49.0301C263.853 49.92 264 50.8424 264 51.7971C264 52.6385 263.869 53.5365 263.606 54.4912C263.36 55.4298 262.92 56.2954 262.287 57.0883C262.58 57.6385 262.827 58.2048 263.028 58.7874C263.228 59.3699 263.39 59.9767 263.514 60.6077L261.593 60.9961C261.407 60.0252 261.153 59.1595 260.829 58.399C260.227 58.8521 259.509 59.2242 258.676 59.5155C257.858 59.8068 256.909 59.9524 255.829 59.9524ZM253.259 56.2388C253.259 56.8213 253.468 57.2825 253.884 57.6223C254.316 57.9621 255.003 58.132 255.944 58.132C256.84 58.132 257.619 58.0268 258.282 57.8165C258.961 57.5899 259.54 57.2825 260.019 56.8942C259.525 56.1822 258.915 55.6239 258.19 55.2194C257.48 54.7987 256.647 54.5883 255.69 54.5883C254.903 54.5883 254.301 54.734 253.884 55.0252C253.468 55.3165 253.259 55.721 253.259 56.2388Z" fill="#2961AD"/>
</g>
</svg>
