<svg width="366" height="60" viewBox="0 0 366 60" fill="none" xmlns="http://www.w3.org/2000/svg">
<g opacity="0.3">
<path d="M254.546 32.4414H253.428V29.3883C253.049 30.3277 252.479 31.0731 251.72 31.6245C250.961 32.1691 250.153 32.4414 249.294 32.4414C248.036 32.4414 247.004 32.0194 246.198 31.1752C245.399 30.3243 245 29.2249 245 27.8771C245 26.8424 245.286 25.9744 245.859 25.2733C246.438 24.5653 247.303 24.0241 248.455 23.6497C249.7 23.2481 250.479 22.8056 250.792 22.3223C251.111 21.8321 251.271 21.2467 251.271 20.566C251.271 20.001 251.184 19.5755 251.011 19.2896C250.845 19.0037 250.595 18.8607 250.262 18.8607C249.93 18.8607 249.677 18.9765 249.504 19.2079C249.33 19.4326 249.244 19.9023 249.244 20.617V22.0262H248.355V20.617C248.355 20.0316 248.285 19.5925 248.146 19.2998C248.006 19.0071 247.719 18.8607 247.287 18.8607C246.947 18.8607 246.688 19.0037 246.508 19.2896C246.328 19.5687 246.232 19.9874 246.218 20.5456C246.351 20.5183 246.445 20.5047 246.498 20.5047C246.764 20.5047 246.964 20.5932 247.097 20.7702C247.23 20.9472 247.297 21.2127 247.297 21.5667C247.297 21.8458 247.21 22.0738 247.037 22.2508C246.871 22.421 246.674 22.5061 246.448 22.5061C246.115 22.5061 245.855 22.3257 245.669 21.9649C245.483 21.5973 245.389 21.1446 245.389 20.6068C245.389 19.7219 245.592 18.9765 245.999 18.3706C246.405 17.7579 246.917 17.4516 247.536 17.4516C247.849 17.4516 248.116 17.5333 248.335 17.6967C248.562 17.8533 248.745 18.0881 248.884 18.4012C249.038 18.0813 249.231 17.843 249.464 17.6865C249.697 17.5231 249.966 17.4414 250.272 17.4414C250.785 17.4414 251.228 17.7307 251.601 18.3093C251.98 18.888 252.17 19.6402 252.17 20.566C252.17 21.5871 251.923 22.421 251.431 23.0677C250.938 23.7076 250.129 24.2079 249.004 24.5687C248.039 24.8818 247.317 25.3107 246.837 25.8553C246.358 26.3931 246.118 27.0466 246.118 27.8158C246.118 28.762 246.431 29.5176 247.057 30.0827C247.689 30.6477 248.455 30.9302 249.354 30.9302C250.252 30.9302 251.041 30.6102 251.72 29.9703C252.399 29.3304 252.969 28.3672 253.428 27.0806V17.4516H254.546V32.4414ZM259 32.4414H257.882V17.4516H259V32.4414Z" fill="#42BF2E"/>
<path d="M112.884 44.3867C113.726 44.3867 114.446 44.4881 115.044 44.6907C115.652 44.8827 116.153 45.1654 116.548 45.5387C116.985 45.9441 117.305 46.4347 117.508 47.0107C117.721 47.5761 117.828 48.3014 117.828 49.1867V53.4427H108.18V49.1547C108.18 48.3227 108.281 47.6134 108.484 47.0267C108.686 46.4401 109.001 45.9494 109.428 45.5547C109.822 45.1814 110.297 44.8934 110.852 44.6907C111.417 44.4881 112.094 44.3867 112.884 44.3867ZM112.132 45.5227C111.684 45.5227 111.289 45.6347 110.948 45.8587C110.606 46.0827 110.329 46.3814 110.116 46.7547C109.945 47.0534 109.806 47.4214 109.7 47.8587C109.604 48.2854 109.556 48.8187 109.556 49.4587V52.3547H109.636C110.361 51.8107 111.006 51.2401 111.572 50.6427C112.137 50.0454 112.58 49.4374 112.9 48.8187C113.23 48.2001 113.396 47.5974 113.396 47.0107C113.396 46.5734 113.294 46.2161 113.092 45.9387C112.889 45.6614 112.569 45.5227 112.132 45.5227ZM114.772 47.1547C114.772 48.0401 114.489 48.9094 113.924 49.7627C113.358 50.6054 112.585 51.4747 111.604 52.3707C111.838 52.3601 112.068 52.3494 112.292 52.3387C112.516 52.3281 112.745 52.3227 112.98 52.3227H116.452V49.4587C116.452 48.3067 116.281 47.4374 115.94 46.8507C115.598 46.2534 115.028 45.8321 114.228 45.5867C114.388 45.8001 114.516 46.0294 114.612 46.2747C114.718 46.5094 114.772 46.8027 114.772 47.1547Z" fill="#FF7F11"/>
<path d="M94.9344 31.6328C93.8038 31.6328 92.9184 31.3608 92.2784 30.8168C91.6491 30.2728 91.3344 29.5634 91.3344 28.6888C91.3344 27.7714 91.7078 27.0514 92.4544 26.5288L90.9824 26.5448V25.4408H94.3104C94.4278 25.3554 94.5238 25.2488 94.5984 25.1208C94.6838 24.9821 94.7264 24.8274 94.7264 24.6568C94.7264 24.5074 94.6998 24.3634 94.6464 24.2248C94.6038 24.0861 94.5451 23.9634 94.4704 23.8568H90.9824V22.6248H95.7504C96.3264 22.6248 96.7318 22.5981 96.9664 22.5448C97.2011 22.4914 97.3718 22.4221 97.4784 22.3368C97.6171 22.2301 97.7078 22.1128 97.7504 21.9848C97.8038 21.8461 97.8304 21.7021 97.8304 21.5528C97.8304 20.8701 97.4838 20.1821 96.7904 19.4888L97.8304 18.8008C98.3318 19.3554 98.6731 19.8568 98.8544 20.3048C99.0358 20.7421 99.1264 21.1901 99.1264 21.6488C99.1264 21.8514 99.0838 22.1021 98.9984 22.4008C98.9238 22.6888 98.7478 22.9501 98.4704 23.1848C98.2038 23.4194 97.8838 23.5901 97.5104 23.6968C97.1478 23.8034 96.6571 23.8568 96.0384 23.8568H95.7504C95.9104 24.1554 95.9904 24.4274 95.9904 24.6728C95.9904 24.8434 95.9691 24.9928 95.9264 25.1208C95.8944 25.2381 95.8464 25.3448 95.7824 25.4408H99.0304V26.5448L97.4624 26.5288C97.8251 26.7314 98.1131 27.0194 98.3264 27.3928C98.5504 27.7661 98.6624 28.1874 98.6624 28.6568C98.6624 29.5421 98.3478 30.2621 97.7184 30.8168C97.0998 31.3608 96.1718 31.6328 94.9344 31.6328ZM94.9984 30.3848C95.8518 30.3848 96.4598 30.2034 96.8224 29.8408C97.1958 29.4674 97.3824 29.0194 97.3824 28.4968C97.3824 27.8994 97.1798 27.4248 96.7744 27.0728C96.3798 26.7208 95.7878 26.5448 94.9984 26.5448C94.1878 26.5448 93.5851 26.7314 93.1904 27.1048C92.8064 27.4674 92.6144 27.9314 92.6144 28.4968C92.6144 29.0621 92.8118 29.5208 93.2064 29.8728C93.6011 30.2141 94.1984 30.3848 94.9984 30.3848Z" fill="#AD61ED"/>
<path d="M66.6371 27.0898C67.9277 27.0898 69.1064 27.2338 70.1731 27.5218C71.2397 27.8098 72.3811 28.2258 73.5971 28.7698V30.0178C71.1864 28.8125 68.8771 28.2098 66.6691 28.2098C66.1037 28.2098 65.6664 28.3592 65.3571 28.6578C65.0477 28.9458 64.8931 29.3512 64.8931 29.8738V31.1698H66.7331V32.2418H64.8931V41.4418H63.6451V32.2418H61.7891V31.1698H63.6451V29.8418C63.6451 29.0205 63.9171 28.3592 64.4611 27.8578C65.0157 27.3458 65.7411 27.0898 66.6371 27.0898Z" fill="#FFB200"/>
<path d="M73.4154 34.7538H69.5754C68.9781 34.7538 68.6794 34.9938 68.6794 35.4738C68.6794 35.7512 68.7541 36.0018 68.9034 36.2258C69.0528 36.4392 69.2288 36.5938 69.4314 36.6898C69.8794 36.5298 70.3968 36.4498 70.9834 36.4498C71.8581 36.4498 72.5301 36.6632 72.9994 37.0898C73.4688 37.5058 73.7034 38.0072 73.7034 38.5938C73.7034 38.9458 73.6448 39.2445 73.5274 39.4898H72.2954C72.4448 39.2872 72.5194 39.0098 72.5194 38.6578C72.5194 38.3165 72.3861 38.0392 72.1194 37.8258C71.8634 37.6018 71.4794 37.4898 70.9674 37.4898C70.2634 37.4898 69.7141 37.6445 69.3194 37.9538C68.9248 38.2632 68.7274 38.6365 68.7274 39.0738C68.7274 39.6072 68.9568 40.0445 69.4154 40.3858C69.8741 40.7165 70.5728 40.8818 71.5114 40.8818C72.1621 40.8818 72.8288 40.7858 73.5114 40.5938V41.6658C72.7754 41.8472 72.0768 41.9378 71.4154 41.9378C70.1568 41.9378 69.1861 41.6498 68.5034 41.0738C67.8208 40.4978 67.4794 39.8258 67.4794 39.0578C67.4794 38.3005 67.8154 37.6712 68.4874 37.1698C67.7728 36.7005 67.4154 36.0818 67.4154 35.3138C67.4154 34.8018 67.5968 34.4072 67.9594 34.1298C68.3221 33.8525 68.7914 33.7138 69.3674 33.7138H72.1834V32.2418H66.0234V31.1698H75.2234V32.2418H73.4154V34.7538Z" fill="#FFB200"/>
<path d="M281.979 45.0762C282.682 44.5879 283.404 44.1224 284.146 43.6797C284.889 43.2305 285.65 42.8008 286.432 42.3906L287.809 44.5293C286.949 44.9915 286.184 45.4147 285.514 45.7988C284.85 46.1829 284.28 46.5312 283.805 46.8438C284.365 47.5143 284.778 48.1849 285.045 48.8555C285.312 49.5195 285.445 50.2161 285.445 50.9453C285.445 52.0716 285.087 52.9701 284.371 53.6406C283.661 54.3112 282.682 54.6465 281.432 54.6465C280.195 54.6465 279.231 54.3145 278.541 53.6504C277.857 52.9798 277.516 52.1367 277.516 51.1211C277.516 50.2292 277.717 49.4414 278.121 48.7578C278.531 48.0742 279.179 47.3483 280.064 46.5801C279.661 46.2285 279.199 45.9193 278.678 45.6523C278.163 45.3854 277.594 45.1608 276.969 44.9785C277.158 45.5319 277.252 46.0495 277.252 46.5312C277.252 47.5339 276.92 48.3346 276.256 48.9336C275.592 49.526 274.615 49.8223 273.326 49.8223C272.167 49.8223 271.246 49.4935 270.562 48.8359C269.879 48.1784 269.537 47.3125 269.537 46.2383C269.537 45.5221 269.742 44.8678 270.152 44.2754C270.569 43.6829 271.161 43.2207 271.93 42.8887C272.704 42.5566 273.603 42.3906 274.625 42.3906C276.116 42.3906 277.451 42.6087 278.629 43.0449C279.807 43.4811 280.924 44.1582 281.979 45.0762ZM274.459 44.5586C273.743 44.5586 273.183 44.7116 272.779 45.0176C272.382 45.3236 272.184 45.7272 272.184 46.2285C272.184 46.6517 272.291 46.9837 272.506 47.2246C272.727 47.459 273.027 47.5762 273.404 47.5762C273.86 47.5762 274.212 47.446 274.459 47.1855C274.706 46.9251 274.83 46.5833 274.83 46.1602C274.83 45.5938 274.706 45.0599 274.459 44.5586ZM281.744 48.2793C281.256 48.696 280.868 49.1224 280.582 49.5586C280.302 49.9948 280.162 50.4798 280.162 51.0137C280.162 51.4629 280.273 51.8112 280.494 52.0586C280.715 52.2995 281.028 52.4199 281.432 52.4199C281.861 52.4199 282.19 52.2995 282.418 52.0586C282.646 51.8112 282.76 51.4596 282.76 51.0039C282.76 50.5352 282.675 50.0762 282.506 49.627C282.337 49.1712 282.083 48.722 281.744 48.2793Z" fill="#2961AD"/>
<path d="M342.781 32V34.2H340.861V44.44H338.221C337.474 43.36 336.507 42.48 335.321 41.8C334.147 41.1067 332.814 40.6333 331.321 40.38L330.321 38.02C331.494 37.3667 332.774 36.7333 334.161 36.12C335.547 35.5067 336.927 35.0133 338.301 34.64V34.2H329.801V32H342.781ZM333.681 38.88C334.427 39.0267 335.207 39.3133 336.021 39.74C336.834 40.1667 337.574 40.7267 338.241 41.42C338.227 41.0333 338.221 40.6533 338.221 40.28V37.02C337.434 37.2733 336.674 37.5533 335.941 37.86C335.221 38.1667 334.467 38.5067 333.681 38.88Z" fill="#FF7F11"/>
<path d="M168.574 24.6341C167.934 24.6341 167.358 24.5328 166.846 24.3301C166.334 24.1275 165.929 23.8288 165.63 23.4341C165.332 23.0395 165.182 22.5648 165.182 22.0101C165.182 21.4555 165.321 20.9701 165.598 20.5541C165.886 20.1381 166.34 19.8181 166.958 19.5941V15.5781H175.326V16.7301H172.334V19.1941C173.209 19.2155 173.982 19.3488 174.654 19.5941C175.337 19.8288 175.87 20.2128 176.254 20.7461C176.638 21.2795 176.83 21.9888 176.83 22.8741C176.83 23.5888 176.697 24.1861 176.43 24.6661C176.164 25.1568 175.785 25.5835 175.294 25.9461C174.772 26.3195 174.137 26.5755 173.39 26.7141C172.654 26.8635 171.71 26.9381 170.558 26.9381H168.75C168.302 26.9381 167.956 26.9701 167.71 27.0341C167.465 27.0981 167.252 27.1888 167.07 27.3061C166.9 27.4235 166.766 27.5888 166.67 27.8021C166.574 28.0155 166.526 28.2981 166.526 28.6501C166.526 28.9701 166.542 29.2581 166.574 29.5141L165.262 29.5781C165.23 29.3861 165.204 29.1728 165.182 28.9381C165.161 28.7141 165.15 28.5115 165.15 28.3301C165.15 27.8608 165.236 27.4608 165.406 27.1301C165.577 26.8101 165.796 26.5488 166.062 26.3461C166.34 26.1435 166.649 25.9995 166.99 25.9141C167.342 25.8288 167.785 25.7861 168.318 25.7861H170.062C171.012 25.7861 171.79 25.7435 172.398 25.6581C173.006 25.5835 173.497 25.4608 173.87 25.2901C174.244 25.1301 174.553 24.9168 174.798 24.6501C175.236 24.1808 175.454 23.5515 175.454 22.7621C175.454 22.1328 175.305 21.6475 175.006 21.3061C174.708 20.9541 174.318 20.7088 173.838 20.5701C173.358 20.4315 172.857 20.3515 172.334 20.3301V20.8261C172.334 21.5408 172.27 22.1008 172.142 22.5061C172.025 22.9115 171.854 23.2528 171.63 23.5301C171.3 23.9355 170.873 24.2235 170.35 24.3941C169.838 24.5541 169.246 24.6341 168.574 24.6341ZM168.222 16.7301V19.2901C168.67 19.2261 169.166 19.1941 169.71 19.1941H170.974V16.7301H168.222ZM166.558 21.9941C166.558 22.4848 166.761 22.8581 167.166 23.1141C167.572 23.3595 168.084 23.4821 168.702 23.4821C169.172 23.4821 169.572 23.4128 169.902 23.2741C170.244 23.1248 170.505 22.8741 170.686 22.5221C170.878 22.1595 170.974 21.6635 170.974 21.0341V20.3141H169.598C169.054 20.3141 168.59 20.3461 168.206 20.4101C167.833 20.4741 167.513 20.5808 167.246 20.7301C166.788 20.9968 166.558 21.4181 166.558 21.9941Z" fill="#FF7F11"/>
<path d="M144.57 36.1523H143.953C143.641 36.1523 143.365 36.1107 143.125 36.0273C142.891 35.9388 142.651 35.8008 142.406 35.6133C142.188 35.8112 141.992 35.944 141.82 36.0117C141.576 36.1055 141.219 36.1523 140.75 36.1523H139.789C139.789 36.6315 139.674 37.0977 139.445 37.5508C139.148 38.1393 138.695 38.6055 138.086 38.9492C137.32 39.3815 136.362 39.5977 135.211 39.5977C134.169 39.5977 133.372 39.4154 132.82 39.0508C132.216 38.6497 131.914 38.0352 131.914 37.207C131.914 36.7591 131.969 36.306 132.078 35.8477C132.188 35.3893 132.336 34.9284 132.523 34.4648C132.638 34.1836 132.836 33.7513 133.117 33.168L133.43 33.3086C133.065 34.0586 132.823 34.6497 132.703 35.082C132.589 35.5143 132.531 35.9102 132.531 36.2695C132.531 36.9154 132.76 37.4076 133.219 37.7461C133.682 38.0794 134.341 38.2461 135.195 38.2461C136.195 38.2461 137.089 38.0716 137.875 37.7227C138.854 37.2904 139.344 36.6862 139.344 35.9102C139.344 35.3893 139.247 34.8945 139.055 34.4258C138.904 34.056 138.69 33.7018 138.414 33.3633L139.062 31.7617C139.323 32.1888 139.5 32.5664 139.594 32.8945C139.724 33.3581 139.789 33.9909 139.789 34.793H140.75C141.245 34.793 141.596 34.7174 141.805 34.5664C141.987 34.4362 142.078 34.2357 142.078 33.9648C142.078 33.8138 142.068 33.6628 142.047 33.5117C142.031 33.3555 142.005 33.1862 141.969 33.0039L142.281 32.5352L142.406 33.293C142.521 33.8034 142.674 34.1706 142.867 34.3945C143.081 34.6445 143.383 34.7695 143.773 34.7695C143.893 34.7695 143.984 34.7331 144.047 34.6602C144.115 34.582 144.148 34.4857 144.148 34.3711C144.148 34.1107 144.068 33.832 143.906 33.5352C143.786 33.3164 143.628 33.0977 143.43 32.8789L143.953 32.0273C144.198 32.4284 144.346 32.7018 144.398 32.8477C144.513 33.1758 144.57 33.6523 144.57 34.2773V36.1523Z" fill="#FFB200"/>
<path d="M171.578 59.6317C170.287 59.6317 169.215 59.4611 168.362 59.1197C167.519 58.7677 166.89 58.2931 166.474 57.6957C166.058 57.0877 165.85 56.4051 165.85 55.6477C165.85 55.0504 165.972 54.5277 166.218 54.0797C166.474 53.6211 166.82 53.2691 167.258 53.0237C167.695 52.7677 168.196 52.6397 168.762 52.6397C169.434 52.6397 169.956 52.8211 170.33 53.1837C170.714 53.5464 170.906 54.0264 170.906 54.6237C170.906 55.2744 170.682 55.7971 170.234 56.1917C169.796 56.5757 169.178 56.7677 168.378 56.7677C168.154 56.7677 167.946 56.7517 167.754 56.7197C167.562 56.6771 167.375 56.6184 167.194 56.5437C167.471 57.1517 167.988 57.6104 168.746 57.9197C169.503 58.2184 170.42 58.3677 171.498 58.3677C172.458 58.3677 173.236 58.2664 173.834 58.0637C174.431 57.8504 174.89 57.5837 175.21 57.2637C175.53 56.9331 175.743 56.5917 175.85 56.2397C175.647 56.4104 175.418 56.5437 175.162 56.6397C174.916 56.7251 174.623 56.7677 174.282 56.7677C173.663 56.7677 173.156 56.5917 172.762 56.2397C172.367 55.8877 172.17 55.4077 172.17 54.7997C172.17 54.2024 172.356 53.7384 172.73 53.4077C173.114 53.0664 173.62 52.8957 174.25 52.8957C174.314 52.8957 174.394 52.9011 174.49 52.9117C174.33 52.8584 174.154 52.8104 173.962 52.7677C173.78 52.7144 173.594 52.6717 173.402 52.6397C173.306 52.6397 173.204 52.6397 173.098 52.6397H171.034V51.4397H173.578C173.919 51.4397 174.175 51.4237 174.346 51.3917C174.527 51.3491 174.671 51.2851 174.778 51.1997C174.938 51.0504 175.018 50.8531 175.018 50.6077C175.018 50.3197 174.932 50.1064 174.762 49.9677C174.655 49.8824 174.522 49.8184 174.362 49.7757C174.202 49.7331 173.935 49.7117 173.562 49.7117H167.77V48.5117H173.466C174.052 48.5117 174.511 48.5544 174.842 48.6397C175.183 48.7251 175.476 48.8744 175.722 49.0877C175.903 49.2477 176.047 49.4504 176.154 49.6957C176.271 49.9304 176.33 50.2291 176.33 50.5917C176.33 50.9544 176.26 51.2531 176.122 51.4877C175.983 51.7224 175.828 51.9091 175.658 52.0477C175.54 52.1437 175.407 52.2291 175.258 52.3037C175.908 52.6664 176.388 53.1251 176.698 53.6797C177.007 54.2344 177.162 54.8477 177.162 55.5197C177.162 56.2984 176.964 57.0024 176.57 57.6317C176.186 58.2504 175.583 58.7411 174.762 59.1037C173.94 59.4557 172.879 59.6317 171.578 59.6317ZM173.434 54.7517C173.434 54.9864 173.519 55.1944 173.69 55.3757C173.86 55.5571 174.127 55.6477 174.49 55.6477C174.863 55.6477 175.162 55.5571 175.386 55.3757C175.62 55.1944 175.791 54.9491 175.898 54.6397C175.78 54.3944 175.599 54.1917 175.354 54.0317C175.119 53.8611 174.831 53.7757 174.49 53.7757C174.223 53.7757 173.978 53.8557 173.754 54.0157C173.54 54.1651 173.434 54.4104 173.434 54.7517ZM168.682 53.7757C168.234 53.7757 167.855 53.9197 167.546 54.2077C167.236 54.4957 167.06 54.8637 167.018 55.3117C167.188 55.4184 167.37 55.5037 167.562 55.5677C167.754 55.6211 167.962 55.6477 168.186 55.6477C168.708 55.6477 169.076 55.5517 169.29 55.3597C169.514 55.1677 169.626 54.9224 169.626 54.6237C169.626 54.3464 169.54 54.1384 169.37 53.9997C169.21 53.8504 168.98 53.7757 168.682 53.7757Z" fill="#2961AD"/>
<path d="M7.68852 42.9864L5.84426 38.1044C5.78962 37.9592 5.73224 37.7917 5.67213 37.6019C5.61202 37.4065 5.55465 37.2 5.5 36.9822C5.38525 37.4344 5.26776 37.8113 5.14754 38.1127L3.30328 42.9864H7.68852ZM11 47.4414H9.77049C9.62841 47.4414 9.51366 47.4051 9.42623 47.3325C9.3388 47.26 9.27322 47.1679 9.22951 47.0562L8.13115 44.1588H2.86066L1.7623 47.0562C1.72951 47.1567 1.66667 47.246 1.57377 47.3242C1.48087 47.4023 1.36612 47.4414 1.22951 47.4414H0L4.69672 35.4414H6.30328L11 47.4414Z" fill="#FF7F11"/>
<path d="M33.3752 21.9843C32.6499 21.9843 31.9566 21.8136 31.2952 21.4723C30.6339 21.1309 30.0099 20.5549 29.4232 19.7443C28.8472 18.9229 28.3139 17.7976 27.8232 16.3683L28.9912 15.9843C29.5566 17.6589 30.1806 18.8749 30.8632 19.6323C31.5566 20.3896 32.4046 20.7683 33.4072 20.7683C34.2926 20.7683 34.9166 20.5656 35.2792 20.1603C35.6526 19.7443 35.8392 19.2376 35.8392 18.6403C35.8392 18.0216 35.6686 17.5203 35.3272 17.1363C34.9966 16.7523 34.5806 16.5603 34.0792 16.5603C33.3646 16.5603 33.0072 16.8696 33.0072 17.4883C33.0072 17.5629 33.0179 17.6643 33.0392 17.7923C33.0606 17.9203 33.0926 18.0376 33.1352 18.1443L31.9192 18.3843C31.8446 18.1603 31.7859 17.9576 31.7432 17.7763C31.7112 17.5843 31.6952 17.4029 31.6952 17.2323C31.6952 16.8589 31.7966 16.5443 31.9992 16.2883C32.2019 16.0216 32.4632 15.8189 32.7832 15.6803C32.6872 15.4456 32.5379 15.2376 32.3352 15.0563C32.1432 14.8749 31.8819 14.7309 31.5512 14.6243H27.1992V13.4883H41.8072V14.6243H40.1272V23.4403H38.8952C38.5966 22.8429 38.2339 22.3203 37.8072 21.8723C37.3806 21.4136 36.9272 21.0136 36.4472 20.6723C36.1486 21.0669 35.7432 21.3869 35.2312 21.6323C34.7192 21.8669 34.1006 21.9843 33.3752 21.9843ZM37.0552 18.7363C37.0552 19.0563 37.0126 19.3656 36.9272 19.6643C37.3112 19.9096 37.6899 20.2189 38.0632 20.5923C38.4472 20.9549 38.7406 21.3229 38.9432 21.6963C38.9326 21.4616 38.9219 21.2429 38.9112 21.0403C38.9006 20.8269 38.8952 20.5923 38.8952 20.3363V14.6243H33.4552C33.7219 14.8483 33.9086 15.1203 34.0152 15.4403C34.6339 15.4509 35.1672 15.6003 35.6152 15.8883C36.0739 16.1656 36.4259 16.5496 36.6712 17.0403C36.9272 17.5309 37.0552 18.0963 37.0552 18.7363Z" fill="#2961AD"/>
<path d="M305.96 20.6406C305.294 20.6406 304.694 20.5406 304.16 20.3406C303.64 20.1273 303.187 19.8806 302.8 19.6006C302.427 19.3073 302.12 19.034 301.88 18.7806C301.64 18.514 301.48 18.3273 301.4 18.2206L302.4 16.8006V6.14062H303.92V14.6606L309.96 6.14062L311.26 7.08063L303.44 18.1006C303.494 18.1406 303.62 18.2473 303.82 18.4206C304.034 18.594 304.32 18.7606 304.68 18.9206C305.04 19.0673 305.467 19.1406 305.96 19.1406C306.44 19.1406 306.88 19.0406 307.28 18.8406C307.694 18.6273 308.054 18.3873 308.36 18.1206C308.667 17.8406 308.907 17.594 309.08 17.3806C309.267 17.154 309.367 17.0273 309.38 17.0006L310.5 18.0806C310.394 18.2006 310.214 18.4006 309.96 18.6806C309.72 18.9606 309.407 19.254 309.02 19.5606C308.647 19.854 308.2 20.1073 307.68 20.3206C307.174 20.534 306.6 20.6406 305.96 20.6406Z" fill="#AD61ED"/>
<path d="M121.07 7.23997V6.16797H130.926V7.23997H129.086V16.44H127.838V11.96H124.478V14.136H123.39L122.99 13.24C122.702 12.5573 122.558 12.0773 122.558 11.8C122.558 11.5866 122.617 11.4053 122.734 11.256C122.862 11.1066 123.028 11.0053 123.23 10.952V7.23997H121.07ZM127.838 7.23997H124.478V10.904H127.838V7.23997Z" fill="#42BF2E"/>
<path d="M238.298 57.4398H242.693C243.084 57.4398 243.418 57.3011 243.695 57.0238C243.973 56.7429 244.112 56.4069 244.112 56.0158V52.5118L244.655 52.1278L244.09 50.1758L242.437 51.5624C242.213 51.7509 242.147 51.9909 242.24 52.2824L243.013 54.6184C243.066 54.782 243.063 54.9064 243.002 54.9918C242.942 55.0736 242.803 55.1144 242.586 55.1144H238.373C238.014 55.1144 237.824 54.974 237.802 54.6931C237.802 54.6753 237.802 54.6576 237.802 54.6398C237.802 54.4976 237.841 54.3607 237.92 54.2291C238.001 54.0976 238.081 54.0016 238.16 53.9411L238.282 53.8504L237.711 53.4131C237.569 53.4913 237.441 53.5873 237.328 53.7011C237.214 53.8149 237.121 53.9287 237.05 54.0424C236.983 54.1562 236.922 54.2824 236.869 54.4211C236.819 54.5562 236.782 54.6718 236.757 54.7678C236.736 54.8638 236.718 54.9669 236.704 55.0771C236.693 55.1838 236.688 55.2513 236.688 55.2798C236.688 55.3082 236.688 55.3349 236.688 55.3598V55.8291C236.688 56.2736 236.844 56.654 237.157 56.9704C237.473 57.2833 237.854 57.4398 238.298 57.4398ZM239.882 54.4158H240.938C241.052 54.4158 241.141 54.3767 241.205 54.2984C241.269 54.2167 241.301 54.1224 241.301 54.0158V53.9624C241.301 53.8096 241.28 53.6833 241.237 53.5838C241.198 53.4807 241.139 53.406 241.061 53.3598C240.983 53.31 240.901 53.278 240.816 53.2638C240.73 53.246 240.629 53.2389 240.511 53.2424L240.986 53.0878V52.6344L239.898 52.9918V53.3331C239.898 53.4007 239.923 53.4593 239.973 53.5091C240.023 53.5589 240.117 53.5838 240.255 53.5838H240.709C240.783 53.5838 240.842 53.6051 240.885 53.6478C240.931 53.6904 240.956 53.7313 240.959 53.7704L240.97 53.8344H239.445L239.882 54.4158Z" fill="#AD61ED"/>
<path d="M34.3945 56.5158L30.9538 53.0322C30.64 53.4493 30.4831 53.9735 30.4831 54.6049C30.4831 55.3039 30.6941 55.8788 31.1161 56.3298C31.5489 56.7695 32.1007 56.9893 32.7715 56.9893C33.4207 56.9893 33.9617 56.8315 34.3945 56.5158ZM38.7116 48.5846V49.7176H36.8289V59.4414H35.563V56.6849C35.2709 57.0908 34.8706 57.4234 34.362 57.6827C33.8535 57.942 33.2855 58.0716 32.6579 58.0716C31.7166 58.0716 30.9105 57.7503 30.2397 57.1077C29.5797 56.4538 29.2497 55.6139 29.2497 54.588C29.2497 53.562 29.5797 52.7221 30.2397 52.0682C30.9105 51.4031 31.7653 51.0705 32.804 51.0705C33.2368 51.0705 33.6858 51.1269 34.151 51.2396V52.4065C33.7182 52.2599 33.2963 52.1866 32.8851 52.1866C32.3874 52.1866 31.9654 52.2824 31.6192 52.4741L35.0112 55.9408C35.3791 55.4561 35.563 54.898 35.563 54.2667V49.7176H28V48.5846H38.7116Z" fill="#42BF2E"/>
<path d="M41.0849 48.5846H43V49.7176H41.1174V59.4414H39.8677V49.7176H37.985V48.5846H39.6892L38.3583 46.4707C37.9904 45.8845 37.4981 45.5913 36.8814 45.5913C36.665 45.5913 36.3945 45.6252 36.0699 45.6928V44.5429C36.4595 44.4752 36.7516 44.4414 36.9463 44.4414C37.4981 44.4414 37.9688 44.5654 38.3583 44.8134C38.7478 45.0502 39.1049 45.4335 39.4295 45.9634L41.0849 48.5846Z" fill="#42BF2E"/>
<path d="M214.488 35.6162H209.392V37.1422C209.803 36.7782 210.298 36.5962 210.876 36.5962C211.707 36.5962 212.374 36.8575 212.878 37.3802C213.392 37.8935 213.648 38.5515 213.648 39.3542C213.648 40.2222 213.359 40.9175 212.78 41.4402C212.202 41.9535 211.46 42.2102 210.554 42.2102C210.414 42.2102 210.307 42.2055 210.232 42.1962V40.6142C210.288 40.6235 210.363 40.6282 210.456 40.6282C210.839 40.6282 211.133 40.5115 211.338 40.2782C211.553 40.0449 211.66 39.7462 211.66 39.3822C211.66 39.0462 211.562 38.7615 211.366 38.5282C211.17 38.2855 210.886 38.1642 210.512 38.1642C210.186 38.1642 209.915 38.2855 209.7 38.5282C209.495 38.7615 209.392 39.0742 209.392 39.4662V43.4422H207.404V41.8182C207.003 42.1729 206.508 42.3502 205.92 42.3502C205.09 42.3502 204.418 42.0935 203.904 41.5802C203.4 41.0575 203.148 40.3949 203.148 39.5922C203.148 38.7242 203.438 38.0335 204.016 37.5202C204.595 36.9975 205.337 36.7362 206.242 36.7362C206.373 36.7362 206.48 36.7409 206.564 36.7502V38.3322C206.508 38.3229 206.434 38.3182 206.34 38.3182C205.958 38.3182 205.659 38.4349 205.444 38.6682C205.239 38.9015 205.136 39.2002 205.136 39.5642C205.136 39.9002 205.234 40.1895 205.43 40.4322C205.626 40.6655 205.911 40.7822 206.284 40.7822C206.611 40.7822 206.877 40.6655 207.082 40.4322C207.297 40.1895 207.404 39.8722 207.404 39.4802V35.6162H202.322V34.0482H214.488V35.6162Z" fill="#FFB200"/>
<path d="M215.547 31.7802L217.017 34.0482H218.417V35.6162H217.017V43.4422H215.043V35.6162H213.643V34.0482H214.903L213.965 32.6762C213.713 32.2935 213.358 32.1022 212.901 32.1022C212.611 32.1022 212.313 32.1489 212.005 32.2422V30.5902C212.341 30.5249 212.695 30.4922 213.069 30.4922C213.638 30.5015 214.119 30.6042 214.511 30.8002C214.903 30.9962 215.248 31.3229 215.547 31.7802ZM216.919 30.8982C217.143 30.6742 217.418 30.5622 217.745 30.5622C218.071 30.5622 218.342 30.6742 218.557 30.8982C218.781 31.1222 218.893 31.3929 218.893 31.7102C218.893 32.0275 218.781 32.2982 218.557 32.5222C218.342 32.7462 218.071 32.8582 217.745 32.8582C217.418 32.8582 217.143 32.7462 216.919 32.5222C216.704 32.2982 216.597 32.0275 216.597 31.7102C216.597 31.3929 216.704 31.1222 216.919 30.8982Z" fill="#FFB200"/>
<path d="M365.641 0V1.42H363.541V12.44H362.001V9.22C361.361 8.40667 360.661 7.72667 359.901 7.18C359.141 6.63333 358.401 6.36 357.681 6.36C357.187 6.36 356.767 6.48667 356.421 6.74C356.087 6.99333 355.921 7.37333 355.921 7.88C355.921 8.62667 356.494 9.22667 357.641 9.68L356.881 11.12C356.067 10.7733 355.427 10.32 354.961 9.76C354.507 9.18667 354.281 8.54 354.281 7.82C354.281 7.16667 354.434 6.62667 354.741 6.2C355.061 5.77333 355.461 5.45333 355.941 5.24C356.434 5.02667 356.934 4.92 357.441 4.92C357.547 4.92 357.654 4.92 357.761 4.92C357.627 4.44 357.421 4.05333 357.141 3.76C356.861 3.45333 356.441 3.20667 355.881 3.02C355.334 2.83333 354.587 2.68 353.641 2.56L353.821 1.42H352.801V0H365.641ZM359.221 5.02C359.221 5.1 359.221 5.17333 359.221 5.24C359.754 5.44 360.247 5.72 360.701 6.08C361.167 6.44 361.614 6.84667 362.041 7.3C362.027 7.07333 362.014 6.84 362.001 6.6C362.001 6.34667 362.001 6.09333 362.001 5.84V1.42H355.141C356.474 1.60667 357.487 2.02667 358.181 2.68C358.874 3.32 359.221 4.1 359.221 5.02Z" fill="#42BF2E"/>
</g>
</svg>
