<svg width="13" height="14" viewBox="0 0 13 14" fill="none" xmlns="http://www.w3.org/2000/svg">
<path d="M7.90994 7.00019L12.2099 2.71019C12.3982 2.52188 12.504 2.26649 12.504 2.00019C12.504 1.73388 12.3982 1.47849 12.2099 1.29019C12.0216 1.10188 11.7662 0.996094 11.4999 0.996094C11.2336 0.996094 10.9782 1.10188 10.7899 1.29019L6.49994 5.59019L2.20994 1.29019C2.02164 1.10188 1.76624 0.996094 1.49994 0.996094C1.23364 0.996094 0.978243 1.10188 0.789939 1.29019C0.601635 1.47849 0.495847 1.73388 0.495847 2.00019C0.495847 2.26649 0.601635 2.52188 0.789939 2.71019L5.08994 7.00019L0.789939 11.2902C0.696211 11.3831 0.621816 11.4937 0.571048 11.6156C0.520279 11.7375 0.494141 11.8682 0.494141 12.0002C0.494141 12.1322 0.520279 12.2629 0.571048 12.3848C0.621816 12.5066 0.696211 12.6172 0.789939 12.7102C0.882902 12.8039 0.993503 12.8783 1.11536 12.9291C1.23722 12.9798 1.36793 13.006 1.49994 13.006C1.63195 13.006 1.76266 12.9798 1.88452 12.9291C2.00638 12.8783 2.11698 12.8039 2.20994 12.7102L6.49994 8.41019L10.7899 12.7102C10.8829 12.8039 10.9935 12.8783 11.1154 12.9291C11.2372 12.9798 11.3679 13.006 11.4999 13.006C11.632 13.006 11.7627 12.9798 11.8845 12.9291C12.0064 12.8783 12.117 12.8039 12.2099 12.7102C12.3037 12.6172 12.3781 12.5066 12.4288 12.3848C12.4796 12.2629 12.5057 12.1322 12.5057 12.0002C12.5057 11.8682 12.4796 11.7375 12.4288 11.6156C12.3781 11.4937 12.3037 11.3831 12.2099 11.2902L7.90994 7.00019Z" fill="#007BFF"/>
</svg>
