<svg width="218" height="268" viewBox="0 0 218 268" fill="none" xmlns="http://www.w3.org/2000/svg">
<path d="M87.0059 29.7979C85.9045 29.7979 85.0234 30.6685 85.0234 31.7568V50.0407C85.0234 51.129 85.9045 51.9997 87.0059 51.9997H132.381C133.483 51.9997 134.364 51.129 134.364 50.0407V31.7568C134.364 30.6685 133.483 29.7979 132.381 29.7979H87.0059ZM130.399 44.1637C130.399 45.2521 129.518 46.1227 128.416 46.1227H91.191C90.0896 46.1227 89.2086 45.2521 89.2086 44.1637V35.8925C89.2086 34.8041 90.0896 33.9335 91.191 33.9335H128.416C129.518 33.9335 130.399 34.8041 130.399 35.8925V44.1637Z" fill="#BABABA"/>
<path d="M141.045 0L115.918 37.8775H128.37L156.388 0H141.045Z" fill="#0FA711"/>
<path d="M128.377 0L103.473 37.8775H115.925L141.052 0H128.377Z" fill="white"/>
<path d="M115.924 0L91.0195 37.8775H103.472L128.376 0H115.924Z" fill="#FF7600"/>
<path d="M91.0177 37.8775H103.47L78.343 0H63L91.0177 37.8775Z" fill="#FF7600"/>
<path d="M103.471 37.8775H115.923L91.0184 0H78.3438L103.471 37.8775Z" fill="white"/>
<path opacity="0.5" d="M111.695 6.28027L105.469 15.6936L120.145 37.8823H128.372L130.596 34.7445L111.695 6.28027Z" fill="#3E4347"/>
<path d="M115.924 37.8775H128.376L103.472 0H91.0195L115.924 37.8775Z" fill="#0FA711"/>
<g filter="url(#filter0_ii)">
<path d="M218 159C218 219.199 169.199 268 109 268C48.801 268 0 219.199 0 159C0 98.801 48.801 50 109 50C169.199 50 218 98.801 218 159Z" fill="#D5D5D5" fill-opacity="0.8"/>
</g>
<path d="M214.5 159C214.5 217.266 167.266 264.5 109 264.5C50.734 264.5 3.5 217.266 3.5 159C3.5 100.734 50.734 53.5 109 53.5C167.266 53.5 214.5 100.734 214.5 159Z" stroke="#DFDFDF" stroke-width="7"/>
<path d="M214.5 159C214.5 217.266 167.266 264.5 109 264.5C50.734 264.5 3.5 217.266 3.5 159C3.5 100.734 50.734 53.5 109 53.5C167.266 53.5 214.5 100.734 214.5 159Z" stroke="url(#paint0_linear)" stroke-width="7"/>
<g filter="url(#filter1_i)">
<path d="M196 159C196 207.049 157.049 246 109 246C60.9512 246 22 207.049 22 159C22 110.951 60.9512 72 109 72C157.049 72 196 110.951 196 159Z" fill="#A0A0A0"/>
</g>
<path d="M196 159C196 207.049 157.049 246 109 246C60.9512 246 22 207.049 22 159C22 110.951 60.9512 72 109 72C157.049 72 196 110.951 196 159Z" stroke="#BABABA" stroke-width="30"/>
<path d="M109.001 82C66.5595 82 32 116.357 32 159.001C32 201.645 66.3574 236.002 109.001 236.002C151.645 236.002 186.002 201.645 186.002 159.001C186.002 116.357 151.442 82 109.001 82ZM93.6412 89.4778C93.8433 89.4778 93.8433 89.4778 93.6412 89.4778C95.0559 92.5093 97.6833 94.3282 100.311 93.7219C102.938 93.3177 105.565 91.4988 105.767 87.861C106.172 87.861 106.576 87.861 106.98 87.861C106.98 98.7745 106.172 110.496 104.959 123.229C104.757 124.441 104.757 125.654 104.757 126.867C104.353 125.856 103.948 124.644 103.544 123.229C99.3001 112.517 95.4601 100.998 92.4286 89.6799C93.0349 89.6799 93.237 89.4778 93.6412 89.4778ZM76.0583 95.743C78.2814 98.3703 81.1109 99.3808 83.5361 98.1682C86.3655 96.9556 87.9823 94.1261 87.376 91.0946C87.7802 90.8925 88.1844 90.8925 88.5886 90.6904C91.216 101.2 93.8433 112.72 95.8643 125.452C96.0664 126.867 96.2685 127.877 96.6727 129.09C96.0664 128.079 95.4601 127.069 94.4496 125.856C87.5781 116.559 80.9088 106.454 75.0478 96.3493C75.2499 96.1472 75.6541 95.9451 76.0583 95.743ZM60.4964 106.656C63.3259 108.475 66.3574 108.678 68.3784 107.061C69.9952 105.848 70.8036 104.029 70.8036 102.21C70.8036 101.2 70.6015 100.189 69.9952 99.3808C70.3994 99.1787 70.6015 98.9766 71.0057 98.7745C76.4625 108.071 81.7172 118.783 87.1739 130.302C87.7802 131.515 88.3865 132.526 88.7907 133.536C87.9823 132.728 86.9718 131.919 85.9613 131.111C77.0688 123.633 67.9742 115.549 59.688 107.465C59.8901 107.061 60.2943 106.859 60.4964 106.656ZM48.3703 121.006C48.5724 121.006 48.5724 121.006 48.3703 121.006C51.6039 122.016 54.6355 121.612 56.0502 119.389C56.4544 118.783 57.4649 117.166 57.4649 115.549C57.4649 114.538 57.0607 112.922 55.8481 111.507C56.0502 111.305 56.4544 110.901 56.6565 110.699C64.3364 118.378 72.2184 127.271 80.5046 136.972C81.313 137.982 82.1214 138.791 82.9298 139.599C81.9193 138.993 80.7067 138.589 79.494 137.982C68.9847 133.132 58.0712 127.675 47.764 122.016C47.9661 121.612 48.1682 121.41 48.3703 121.006ZM40.4883 137.982C40.4883 137.982 40.4883 137.78 40.4883 137.982C43.924 138.184 46.5514 136.972 47.5619 134.344C47.764 133.738 47.9661 132.93 47.9661 131.717C47.9661 130.505 47.5619 128.281 45.1367 126.665C45.3388 126.26 45.5409 126.058 45.743 125.654C55.0397 131.111 65.1448 137.578 75.452 144.854C76.4625 145.662 77.6751 146.269 78.4835 146.875C77.473 146.673 76.0583 146.471 74.6436 146.066C63.3259 144.45 51.4018 142.024 39.882 138.993C40.2862 138.791 40.4883 138.387 40.4883 137.982ZM37.2547 156.374C37.2547 156.374 37.2547 156.172 37.2547 156.374C40.4883 155.767 42.9135 153.746 43.1156 151.119C43.1156 150.917 43.1156 150.715 43.1156 150.311C43.1156 147.885 41.903 145.258 38.8715 144.248C38.8715 143.843 39.0736 143.439 39.0736 143.035C49.5829 145.864 60.9006 149.704 72.8247 153.948C74.0373 154.353 75.2499 154.757 76.2604 154.959C75.0478 154.959 73.8352 155.161 72.4205 155.161C61.1027 156.576 48.7745 157.182 37.0526 157.384C37.2547 157.182 37.2547 156.778 37.2547 156.374ZM38.8715 175.169C38.8715 174.967 38.8715 174.967 38.8715 175.169C41.4988 173.754 43.1156 171.733 43.1156 169.308C43.1156 169.106 43.1156 168.702 43.1156 168.5C42.7114 165.872 40.8925 163.245 37.2547 163.043C37.2547 162.639 37.2547 162.235 37.2547 161.83C48.1682 161.83 59.8901 162.437 72.6226 163.447C74.0373 163.649 75.2499 163.649 76.2604 163.649C75.2499 164.054 74.0373 164.458 72.6226 164.862C61.9111 169.106 50.3913 172.946 39.0736 176.18C39.0736 175.978 39.0736 175.573 38.8715 175.169ZM45.3387 192.752C45.3387 192.752 45.3387 192.55 45.3387 192.752C47.1577 191.135 48.1682 189.316 48.1682 187.295C48.1682 186.487 47.9661 185.881 47.764 185.274C46.7535 182.849 44.3282 180.828 40.6904 181.636C40.4883 181.232 40.4883 180.828 40.2862 180.424C50.7955 177.594 62.3153 175.169 74.8457 172.946C76.2604 172.744 77.2709 172.34 78.4835 172.138C77.473 172.744 76.4625 173.35 75.2499 174.361C65.9532 181.232 55.8481 187.902 45.743 193.965C45.743 193.358 45.5409 193.156 45.3387 192.752ZM56.2523 208.112C57.2628 206.495 57.667 205.08 57.667 203.463C57.667 202.251 57.2628 201.038 56.4544 200.23C54.8376 198.209 51.806 196.794 48.5724 198.411C48.3703 198.007 48.1682 197.805 47.9661 197.4C57.2628 191.944 67.9742 186.487 79.494 181.03C80.7067 180.424 81.7172 179.818 82.7277 179.413C81.9193 180.222 81.1109 181.232 80.3024 182.243C73.2289 191.337 65.1448 200.432 57.0607 208.92C56.8586 208.718 56.4544 208.516 56.2523 208.112ZM70.6015 220.036C70.8036 218.823 71.0057 217.813 71.0057 216.802C71.0057 214.781 70.1973 213.164 68.7826 212.356C66.7616 210.941 63.528 210.133 60.9006 212.76C60.4964 212.558 60.2943 212.154 60.0922 211.952C67.7721 204.272 76.4625 196.188 86.1634 188.104C87.1739 187.295 87.9823 186.487 88.7907 185.678C88.1844 186.689 87.7802 187.902 87.1739 189.114C82.7277 199.624 77.473 210.537 71.612 220.642C71.4099 220.44 71.0057 220.238 70.6015 220.036ZM87.5781 227.918C87.7802 224.482 86.3655 221.855 83.9403 220.844C81.5151 220.036 78.2814 220.238 76.2604 223.27C75.8562 223.067 75.6541 222.865 75.2499 222.663C80.7066 213.367 86.9718 203.261 94.2475 192.752C95.0559 191.539 95.6622 190.529 96.2685 189.721C96.0664 190.731 95.8643 192.146 95.4601 193.56C93.8433 204.878 91.4181 216.802 88.5886 228.322C88.3865 228.12 87.9823 228.12 87.5781 227.918ZM105.969 230.949C105.363 227.716 103.342 225.291 100.715 225.088C98.0874 224.886 95.0559 225.897 94.0454 229.333C93.6412 229.333 93.237 229.13 92.8328 229.13C95.6622 218.621 99.3001 207.303 103.544 195.379C103.948 194.167 104.353 192.954 104.555 191.944C104.555 193.156 104.757 194.369 104.757 195.784C106.172 207.101 106.98 219.43 107.182 231.151C106.778 231.151 106.374 231.151 105.969 230.949ZM178.928 144.45C176.301 145.864 174.482 147.885 174.482 150.311C174.482 150.513 174.482 150.917 174.482 151.119C174.886 153.746 176.705 156.374 180.343 156.576C180.343 156.98 180.343 157.384 180.343 157.788C169.632 157.788 157.708 156.98 144.975 155.767C143.56 155.565 142.348 155.565 141.337 155.565C142.348 155.161 143.56 154.757 144.975 154.353C155.687 150.108 167.206 146.269 178.524 143.237C178.726 143.641 178.726 144.045 178.928 144.45ZM172.663 126.867C172.663 126.867 172.663 127.069 172.663 126.867C170.844 128.484 169.834 130.302 169.834 132.323C169.834 133.132 170.036 133.738 170.238 134.344C171.248 136.77 173.674 138.791 177.312 138.184C177.514 138.589 177.514 138.993 177.716 139.397C167.206 142.024 155.485 144.45 142.954 146.673C141.539 146.875 140.529 147.077 139.316 147.481C140.327 146.875 141.337 146.269 142.55 145.46C151.847 138.387 161.952 131.717 172.057 125.856C172.259 126.26 172.461 126.463 172.663 126.867ZM162.154 111.709C161.143 113.326 160.537 114.943 160.537 116.357C160.537 117.57 160.941 118.783 161.75 119.591C163.366 121.612 166.196 123.027 169.43 121.41C169.632 121.814 169.834 122.016 170.036 122.42C160.537 127.675 150.028 133.132 138.306 138.184C137.093 138.791 136.083 139.195 135.072 139.801C135.881 138.993 136.689 137.982 137.7 136.972C144.975 128.079 153.059 118.985 161.345 110.699C161.548 111.103 161.952 111.305 162.154 111.709ZM147.603 99.1787C147.603 99.1787 147.805 99.3808 147.603 99.1787C147.4 100.391 146.996 101.402 146.996 102.412C146.996 104.231 147.805 105.848 149.219 106.859C151.24 108.273 154.474 109.082 157.101 106.656C157.303 106.859 157.708 107.263 157.91 107.465C150.23 115.145 141.337 123.027 131.434 131.111C130.424 131.919 129.413 132.728 128.807 133.536C129.413 132.526 129.818 131.515 130.424 130.1C135.072 119.591 140.529 108.678 146.39 98.5724C146.996 98.7745 147.198 98.9766 147.603 99.1787ZM130.626 91.2967C130.828 91.2967 130.828 91.2967 130.626 91.2967C130.424 94.7324 131.839 97.3598 134.264 98.3703C136.689 99.3808 139.923 99.1787 141.944 95.9451C142.348 96.1472 142.55 96.3493 142.954 96.5514C137.497 105.848 131.03 115.751 123.552 126.26C122.744 127.271 122.138 128.281 121.531 129.292C121.733 128.281 122.138 126.867 122.34 125.452C124.159 114.134 126.584 102.21 129.413 90.8925C130.02 90.8925 130.222 91.0946 130.626 91.2967ZM112.437 87.861C112.437 87.861 112.639 87.861 112.437 87.861C113.043 91.0946 115.064 93.5198 117.691 93.7219C120.319 93.924 123.35 92.9135 124.563 89.4778C124.967 89.4778 125.371 89.6799 125.775 89.6799C122.946 100.189 119.106 111.507 114.66 123.229C114.256 124.441 113.851 125.654 113.447 126.665C113.447 125.452 113.245 124.239 113.245 122.825C112.033 111.507 111.224 99.1787 111.224 87.4568C111.628 87.861 112.033 87.861 112.437 87.861ZM124.361 229.333C122.744 226.301 120.319 224.684 117.691 225.088C115.064 225.493 112.437 227.312 112.235 230.949C111.83 230.949 111.426 230.949 111.022 230.949C111.022 220.036 111.628 208.314 112.841 195.581C113.043 194.369 113.043 193.358 113.043 192.348C113.043 192.146 113.043 192.146 113.043 191.944C113.447 192.954 113.851 194.167 114.256 195.581C118.5 206.293 122.34 217.813 125.573 229.13C125.169 229.333 124.765 229.333 124.361 229.333ZM141.742 223.067C141.742 223.067 141.539 223.067 141.742 223.067C139.518 220.44 136.689 219.43 134.264 220.642C131.434 221.855 129.818 224.684 130.626 227.716C130.222 227.918 129.818 227.918 129.413 228.12C126.584 217.611 124.159 206.091 122.138 193.56C121.936 192.146 121.733 191.135 121.329 189.923C121.936 190.933 122.542 191.944 123.552 193.156C130.424 202.453 137.093 212.558 142.954 222.663C142.348 222.865 142.146 222.865 141.742 223.067ZM157.303 212.154C157.303 212.356 157.303 212.356 157.303 212.154C154.474 210.335 151.442 210.133 149.421 211.75C147.805 212.962 146.996 214.781 146.996 216.6C146.996 217.611 147.198 218.621 147.805 219.43C147.4 219.632 147.198 219.834 146.794 220.036C141.337 210.739 135.881 200.028 130.626 188.508C130.02 187.295 129.413 186.285 129.009 185.274C129.818 186.083 130.828 186.891 131.839 187.699C140.933 194.773 150.028 202.857 158.314 211.143C157.91 211.75 157.708 211.952 157.303 212.154ZM169.227 198.007C169.227 198.007 169.227 198.209 169.227 198.007C165.994 196.996 162.962 197.4 161.548 199.624C161.143 200.23 160.133 201.847 160.133 203.463C160.133 204.474 160.537 206.091 161.75 207.506C161.548 207.708 161.143 208.112 160.941 208.314C153.261 200.634 145.379 191.742 137.295 182.041C136.487 181.03 135.678 180.02 134.87 179.413C135.881 180.02 137.093 180.424 138.306 181.03C148.815 185.678 159.729 191.135 170.036 196.794C169.632 197.4 169.43 197.603 169.227 198.007ZM177.109 181.03C177.109 181.232 177.109 181.232 177.109 181.03C173.674 180.828 171.046 182.041 170.036 184.668C169.834 185.274 169.632 186.083 169.632 187.295C169.632 188.508 170.036 190.731 172.461 192.348C172.259 192.752 172.057 192.954 171.855 193.358C162.558 187.902 152.453 181.434 142.146 174.159C141.135 173.35 139.923 172.744 139.114 172.138C140.125 172.34 141.539 172.744 142.954 172.946C154.272 174.563 166.196 176.988 177.514 180.02C177.312 180.424 177.312 180.828 177.109 181.03ZM180.343 162.841C177.109 163.447 174.684 165.266 174.482 167.893C174.482 168.096 174.482 168.298 174.482 168.702C174.482 171.127 175.695 173.754 178.726 174.765C178.726 175.169 178.524 175.573 178.524 175.978C168.015 173.148 156.697 169.51 144.773 165.064C143.56 164.66 142.348 164.256 141.337 164.054C142.55 164.054 143.763 163.851 145.177 163.851C156.495 162.639 168.823 161.83 180.545 161.83C180.545 162.033 180.343 162.437 180.343 162.841Z" fill="#D1D1D1"/>
<circle cx="109" cy="159" r="77" stroke="url(#paint1_linear)" stroke-width="2"/>
<circle cx="109" cy="159" r="101" stroke="url(#paint2_linear)" stroke-width="2"/>
<g filter="url(#filter2_i)">
<circle cx="109" cy="159" r="50" fill="#AEAEAE"/>
</g>
<path fill-rule="evenodd" clip-rule="evenodd" d="M83.168 135.786V134H112.692V162.571H83.168V135.786ZM97.161 152.75L93.2143 148.931L87.2685 157.214H92.3942H93.8718H101.988H103.466H110.026L102.645 142.829L97.161 152.75ZM131.144 159H116.382V155.429H134.835V184H105.311V166.143H109.001V180.429H131.144V159ZM127.96 164.525V161.731H120.929V164.525H122.626V169.84H119.165C118.739 169.458 118.218 169.216 117.601 169.117C118.335 168.884 118.901 168.46 119.298 167.844C119.694 167.229 119.893 166.488 119.893 165.623C119.893 164.359 119.511 163.369 118.747 162.654C117.983 161.922 116.895 161.556 115.485 161.556C114.5 161.556 113.648 161.714 112.928 162.03V165.199C113.721 164.783 114.493 164.575 115.242 164.575C116.271 164.575 116.785 165.074 116.785 166.072C116.785 167.104 116.175 167.619 114.956 167.619H114.272V170.564H115.176C115.97 170.564 116.513 170.722 116.807 171.038C117.116 171.354 117.27 171.778 117.27 172.31C117.27 173.708 116.623 174.406 115.33 174.406C114.375 174.406 113.427 174.124 112.487 173.558V176.802C113.413 177.168 114.412 177.351 115.485 177.351C117.072 177.351 118.262 176.935 119.055 176.103C119.863 175.271 120.267 174.19 120.267 172.859V172.685H122.626V178.474H125.756V164.525H127.96Z" fill="white"/>
<path d="M48.1992 86.2004L50.5992 84.2004C50.8992 84.0004 51.1992 83.8004 51.4992 83.6004C51.7992 83.5004 52.0992 83.4004 52.3992 83.4004C52.6992 83.4004 52.9992 83.4004 53.2992 83.6004C53.5992 83.8004 53.8992 83.9004 54.0992 84.2004C54.3992 84.6004 54.5992 85.0004 54.5992 85.5004C54.5992 85.9004 54.3992 86.4004 54.1992 86.8004C54.3992 86.6004 54.6992 86.5004 54.8992 86.5004C55.1992 86.4004 55.3992 86.4004 55.6992 86.5004C55.9992 86.5004 56.1992 86.6004 56.4992 86.8004C56.6992 86.9004 56.9992 87.1004 57.1992 87.4004C57.4992 87.7004 57.5992 88.0004 57.6992 88.4004C57.7992 88.7004 57.7992 89.1004 57.6992 89.4004C57.5992 89.7004 57.4992 90.1004 57.1992 90.4004C56.9992 90.7004 56.6992 91.0004 56.3992 91.3004L53.9992 93.3004L48.1992 86.2004ZM51.5992 88.4004L52.8992 87.3004C53.0992 87.2004 53.1992 87.0004 53.3992 86.8004C53.5992 86.6004 53.5992 86.5004 53.6992 86.3004C53.6992 86.1004 53.7992 85.9004 53.6992 85.7004C53.6992 85.5004 53.5992 85.3004 53.3992 85.1004C53.1992 84.8004 52.8992 84.7004 52.4992 84.6004C52.1992 84.5004 51.7992 84.7004 51.3992 85.0004L49.8992 86.2004L51.5992 88.4004ZM54.1992 91.6004L55.5992 90.5004C55.6992 90.4004 55.8992 90.2004 55.9992 90.1004C56.0992 90.0004 56.2992 89.7004 56.2992 89.5004C56.2992 89.3004 56.3992 89.1004 56.3992 88.8004C56.3992 88.6004 56.2992 88.3004 56.0992 88.1004C55.7992 87.7004 55.3992 87.5004 54.8992 87.5004C54.3992 87.5004 53.9992 87.7004 53.5992 88.1004L52.1992 89.3004L54.1992 91.6004Z" fill="white"/>
<path d="M54.1992 80.6004L55.0992 79.9004L57.6992 83.6004C57.5992 83.3004 57.6992 82.9004 57.8992 82.5004C58.0992 82.1004 58.3992 81.8004 58.6992 81.6004C58.8992 81.4004 59.1992 81.3004 59.4992 81.2004C59.7992 81.1004 59.9992 81.1004 60.2992 81.1004C60.5992 81.1004 60.7992 81.2004 61.0992 81.4004C61.3992 81.6004 61.5992 81.8004 61.7992 82.2004L63.9992 85.4004L63.0992 86.1004L61.0992 83.2004C60.8992 83.0004 60.7992 82.8004 60.5992 82.7004C60.3992 82.6004 60.1992 82.5004 60.0992 82.5004C59.8992 82.5004 59.7992 82.5004 59.5992 82.5004C59.3992 82.5004 59.2992 82.6004 59.0992 82.7004C58.8992 82.8004 58.6992 83.0004 58.5992 83.2004C58.4992 83.4004 58.3992 83.6004 58.3992 83.8004C58.3992 84.0004 58.3992 84.3004 58.4992 84.5004C58.5992 84.8004 58.6992 85.0004 58.8992 85.3004L60.6992 87.9004L59.7992 88.6004L54.1992 80.6004Z" fill="white"/>
<path d="M62.5977 80.2002C62.6977 79.8002 62.8976 79.4002 63.1976 79.1002C63.4976 78.8002 63.7976 78.5002 64.1976 78.3002C64.5976 78.1002 64.8976 77.9002 65.2976 77.9002C65.5976 77.8002 65.8976 77.8002 66.1976 77.9002C66.4976 78.0002 66.6976 78.1002 66.8976 78.2002C67.0976 78.4002 67.2976 78.6002 67.3976 78.8002L68.9977 81.5002C69.0977 81.7002 69.1976 81.9002 69.2976 82.0002C69.3976 82.2002 69.4977 82.3002 69.5977 82.4002L68.6976 82.9002C68.4976 82.6002 68.3976 82.4002 68.1976 82.1002C68.1976 82.6002 68.0976 83.0002 67.7976 83.3002C67.5976 83.6002 67.2976 83.9002 66.8976 84.1002C66.6976 84.2002 66.3977 84.3002 66.0977 84.4002C65.7977 84.5002 65.5976 84.5002 65.2976 84.4002C65.0976 84.4002 64.7977 84.3002 64.5977 84.1002C64.3977 84.0002 64.1977 83.8002 64.0977 83.5002C63.8977 83.2002 63.7976 82.8002 63.7976 82.5002C63.7976 82.2002 63.8977 81.9002 64.0977 81.6002C64.2977 81.3002 64.4976 81.0002 64.7976 80.8002C65.0976 80.5002 65.4976 80.3002 65.8976 80.1002L66.5977 79.7002L66.4977 79.5002C66.3977 79.4002 66.2976 79.3002 66.1976 79.1002C66.0976 79.0002 65.8976 78.9002 65.7976 78.9002C65.6976 78.9002 65.4976 78.8002 65.2976 78.9002C65.0976 78.9002 64.8976 79.0002 64.6976 79.1002C64.4976 79.2002 64.3976 79.3002 64.1976 79.4002C64.0976 79.5002 63.9976 79.6002 63.8976 79.8002C63.7976 79.9002 63.6976 80.0002 63.6976 80.2002C63.6976 80.4002 63.5977 80.5002 63.4977 80.6002L62.5977 80.2002ZM66.6976 80.6002C66.4976 80.7002 66.1977 80.9002 65.9977 81.1002C65.7977 81.3002 65.5976 81.4002 65.3976 81.6002C65.1976 81.8002 65.0977 82.0002 65.0977 82.2002C65.0977 82.4002 65.0976 82.6002 65.1976 82.8002C65.3976 83.1002 65.5976 83.3002 65.8976 83.3002C66.1976 83.3002 66.4976 83.2002 66.7976 83.0002C67.0976 82.8002 67.2976 82.7002 67.3976 82.5002C67.4976 82.3002 67.5976 82.1002 67.6976 81.9002C67.6976 81.7002 67.6976 81.5002 67.6976 81.3002C67.5976 81.1002 67.5977 80.9002 67.4977 80.7002L67.2976 80.4002L66.6976 80.6002Z" fill="white"/>
<path d="M71.7 76.2C71.5 76.1 71.3 76.1 71.1 76C70.9 76 70.6 76 70.4 76.2C70.2 76.3 70 76.5 69.8 76.7C69.7 76.9 69.7 77.1 69.8 77.3C69.9 77.5 70 77.6 70.1 77.6C70.3 77.6 70.4 77.7 70.6 77.7C70.8 77.7 70.9 77.7 71.1 77.6C71.3 77.6 71.4 77.5 71.6 77.5C71.8 77.4 72.1 77.4 72.3 77.4C72.5 77.4 72.7 77.4 73 77.4C73.2 77.5 73.4 77.5 73.6 77.7C73.8 77.8 73.9 78 74 78.3C74.2 78.6 74.2 78.9 74.2 79.2C74.2 79.5 74.1 79.7 74 80C73.9 80.2 73.7 80.5 73.4 80.6C73.2 80.8 72.9 81 72.6 81.1C72.1 81.3 71.7 81.4 71.3 81.5C70.9 81.5 70.5 81.4 70 81.2L70.5 80.2C70.7 80.3 71 80.3 71.3 80.4C71.6 80.4 71.9 80.4 72.2 80.2C72.3 80.1 72.5 80.1 72.6 80C72.7 79.9 72.8 79.8 72.9 79.7C73 79.6 73 79.5 73 79.4C73 79.3 73 79.2 72.9 79C72.8 78.8 72.7 78.7 72.6 78.7C72.5 78.6 72.3 78.6 72.1 78.6C71.9 78.6 71.8 78.6 71.6 78.7C71.4 78.8 71.3 78.8 71.2 78.8C71 78.9 70.7 78.9 70.5 78.9C70.3 78.9 70 78.9 69.8 78.9C69.6 78.9 69.4 78.8 69.2 78.6C69 78.5 68.9 78.3 68.7 78C68.6 77.7 68.5 77.4 68.5 77.2C68.5 76.9 68.6 76.7 68.7 76.4C68.8 76.2 69 76 69.2 75.8C69.4 75.6 69.6 75.5 69.9 75.3C70.3 75.1 70.7 75 71.1 75C71.5 75 71.9 75.1 72.2 75.3L71.7 76.2Z" fill="white"/>
<path d="M71.8984 70.4L72.9984 70L74.6984 74.2C74.6984 73.8 74.7984 73.5 75.0984 73.2C75.3984 72.9 75.6984 72.6 76.0984 72.5C76.3984 72.4 76.5984 72.3 76.8984 72.3C77.1984 72.3 77.4984 72.3 77.6984 72.4C77.9984 72.5 78.1984 72.7 78.3984 72.9C78.5984 73.1 78.7984 73.4 78.9984 73.8L80.4984 77.4L79.3984 77.8L78.0984 74.5C77.9984 74.2 77.8984 74 77.6984 73.9C77.5984 73.7 77.3984 73.6 77.1984 73.6C76.9984 73.5 76.8984 73.5 76.6984 73.5C76.4984 73.5 76.3984 73.6 76.1984 73.6C75.9984 73.7 75.7984 73.8 75.5984 74C75.3984 74.1 75.2984 74.3 75.1984 74.5C75.0984 74.7 75.0984 75 75.0984 75.2C75.0984 75.4 75.1984 75.8 75.2984 76.1L76.4984 79L75.3984 79.4L71.8984 70.4Z" fill="white"/>
<path d="M79.0984 69.2C78.9984 69 78.9984 68.8 79.0984 68.6C79.1984 68.4 79.3984 68.2 79.5984 68.2C79.7984 68.1 79.9984 68.1 80.1984 68.2C80.3984 68.3 80.5984 68.5 80.5984 68.7C80.6984 68.9 80.6984 69.1 80.5984 69.3C80.4984 69.5 80.2984 69.7 80.0984 69.7C79.8984 69.8 79.6984 69.8 79.4984 69.7C79.2984 69.5 79.1984 69.4 79.0984 69.2ZM80.0984 71.1L81.1984 70.7L83.1984 76.4L82.0984 76.8L80.0984 71.1Z" fill="white"/>
<path d="M83 70.1L84.1 69.8L84.3 70.7C84.4 70.3 84.5 70 84.8 69.7C85.1 69.4 85.5 69.2 85.9 69.1C86.2 69 86.5 69 86.7 69C86.9 69 87.2 69.1 87.5 69.2C87.7 69.3 88 69.5 88.2 69.8C88.4 70 88.5 70.4 88.7 70.8L89.7 74.5L88.6 74.8L87.6 71.4C87.5 71.1 87.4 70.9 87.3 70.7C87.2 70.5 87 70.4 86.9 70.3C86.7 70.2 86.6 70.2 86.4 70.2C86.2 70.2 86.1 70.2 85.9 70.3C85.7 70.4 85.5 70.5 85.3 70.6C85.1 70.7 85 70.9 84.9 71.1C84.8 71.3 84.7 71.5 84.7 71.8C84.7 72.1 84.7 72.4 84.8 72.7L85.6 75.7L84.5 76L83 70.1Z" fill="white"/>
<path d="M89.3008 66.2002C89.3008 66.0002 89.3008 65.8002 89.4008 65.6002C89.5008 65.4002 89.7008 65.3002 89.9008 65.2002C90.1008 65.2002 90.3008 65.2002 90.5008 65.3002C90.7008 65.4002 90.8008 65.6002 90.9008 65.8002C91.0008 66.0002 90.9008 66.2001 90.8008 66.4001C90.7008 66.6001 90.5008 66.7002 90.3008 66.8002C90.1008 66.8002 89.9008 66.8002 89.7008 66.7002C89.5008 66.6002 89.3008 66.4002 89.3008 66.2002ZM90.0008 68.3002L91.1008 68.1002L92.4008 74.0002L91.3008 74.2002L90.0008 68.3002Z" fill="white"/>
<path d="M96.8008 68.6004C96.8008 68.3004 96.8008 68.0004 96.9008 67.7004C97.0008 67.4004 97.1008 67.2004 97.3008 66.9004C97.5008 66.7004 97.7008 66.5004 98.0008 66.3004C98.3008 66.1004 98.5008 66.1004 98.9008 66.0004C99.3008 65.9004 99.5008 66.0004 99.8008 66.1004C100.101 66.2004 100.301 66.3004 100.601 66.5004C100.801 66.7004 101.001 66.9004 101.201 67.2004C101.401 67.5004 101.401 67.7004 101.501 68.1004C101.601 68.5004 101.501 68.7004 101.401 69.0004C101.301 69.3004 101.201 69.5004 101.001 69.8004C100.801 70.1004 100.601 70.2004 100.301 70.4004C100.001 70.6004 99.8008 70.6004 99.4008 70.7004C99.1008 70.7004 98.8008 70.7004 98.5008 70.6004C98.2008 70.5004 98.0008 70.4004 97.7008 70.2004C97.5008 70.0004 97.3008 69.8004 97.1008 69.5004C96.9008 69.2004 96.8008 68.9004 96.8008 68.6004Z" fill="white"/>
<path d="M106.801 63L110.001 63.1C110.601 63.1 111.201 63.2 111.701 63.3C112.201 63.4 112.601 63.7 112.901 63.9C113.201 64.1 113.501 64.4 113.801 64.7C114.101 65 114.201 65.3 114.301 65.7C114.401 66.1 114.501 66.4 114.601 66.7C114.701 67 114.701 67.3 114.701 67.6C114.701 68.2 114.601 68.7 114.401 69.3C114.201 69.8 113.901 70.3 113.401 70.7C113.001 71.1 112.501 71.4 111.801 71.7C111.201 71.9 110.501 72.1 109.701 72H106.801V63ZM107.901 70.9H109.401C109.901 70.9 110.401 70.8 110.901 70.7C111.401 70.6 111.801 70.4 112.101 70.1C112.501 69.8 112.701 69.5 112.901 69.1C113.101 68.7 113.201 68.2 113.201 67.6C113.201 67.3 113.201 67 113.101 66.6C113.001 66.2 112.801 65.8 112.601 65.5C112.301 65.1 112.001 64.8 111.501 64.6C111.001 64.4 110.501 64.2 109.701 64.2H107.901V70.9Z" fill="white"/>
<path d="M116.7 69.7996C116.7 70.0996 116.7 70.2996 116.8 70.4996C116.9 70.6996 117 70.8996 117.2 71.0996C117.4 71.2996 117.6 71.3996 117.8 71.4996C118 71.5996 118.3 71.6996 118.5 71.6996C118.9 71.6996 119.2 71.6996 119.5 71.4996C119.8 71.2996 120 71.1996 120.3 70.8996L121.1 71.5996C120.4 72.3996 119.5 72.6996 118.3 72.5996C117.8 72.5996 117.4 72.3996 117 72.1996C116.6 71.9996 116.3 71.6996 116.1 71.3996C115.9 71.0996 115.7 70.6996 115.6 70.2996C115.5 69.8996 115.5 69.4996 115.5 68.9996C115.5 68.5996 115.7 68.0996 115.9 67.7996C116.1 67.3996 116.3 67.0996 116.6 66.8996C116.9 66.6996 117.3 66.4996 117.6 66.2996C118 66.1996 118.4 66.0996 118.9 66.1996C119.4 66.2996 119.9 66.3996 120.2 66.5996C120.6 66.7996 120.8 67.0996 121 67.3996C121.2 67.6996 121.3 68.0996 121.4 68.4996C121.5 68.8996 121.5 69.2996 121.4 69.6996V70.0996L116.7 69.7996ZM120.4 69.1996C120.4 68.8996 120.4 68.6996 120.3 68.4996C120.2 68.2996 120.2 68.0996 120 67.8996C119.9 67.6996 119.7 67.5996 119.5 67.4996C119.3 67.3996 119 67.2996 118.8 67.2996C118.5 67.2996 118.3 67.2996 118 67.3996C117.7 67.4996 117.5 67.5996 117.4 67.7996C117.2 67.9996 117.1 68.0996 117 68.2996C116.9 68.4996 116.8 68.6996 116.8 68.8996L120.4 69.1996Z" fill="white"/>
<path d="M124.001 63.5L125.101 63.7L124.001 69.8L127.001 67.7L128.601 68L125.301 70.2L127.701 74L126.101 73.7L123.901 70.1L123.401 73.2L122.301 73L124.001 63.5Z" fill="white"/>
<path d="M130.9 64.7998L132 65.0998L130.9 69.4998C131.1 69.1998 131.4 68.9998 131.8 68.8998C132.2 68.7998 132.6 68.7998 133.1 68.8998C133.4 68.9998 133.6 69.0998 133.9 69.1998C134.2 69.2998 134.3 69.4998 134.5 69.7998C134.6 69.9998 134.7 70.2998 134.8 70.5998C134.8 70.8998 134.8 71.2998 134.7 71.6998L133.7 75.4998L132.6 75.1998L133.5 71.6998C133.6 71.3998 133.6 71.1998 133.6 70.9998C133.6 70.7998 133.5 70.5998 133.4 70.4998C133.3 70.2998 133.2 70.1998 133 70.0998C132.9 69.9998 132.7 69.8998 132.5 69.8998C132.3 69.7998 132 69.7998 131.8 69.7998C131.6 69.7998 131.4 69.8998 131.2 69.9998C131 70.0998 130.8 70.2998 130.7 70.4998C130.6 70.6998 130.4 70.9998 130.4 71.2998L129.6 74.2998L128.5 73.9998L130.9 64.7998Z" fill="white"/>
<path d="M135.7 72.8998C135.8 72.4998 136.1 72.0998 136.3 71.7998C136.6 71.4998 136.9 71.2998 137.3 71.0998C137.7 70.8998 138.1 70.7998 138.5 70.7998C138.9 70.7998 139.3 70.7998 139.8 70.9998C140.2 71.0998 140.6 71.3998 140.9 71.5998C141.2 71.8998 141.5 72.1998 141.6 72.5998C141.8 72.9998 141.9 73.3998 141.9 73.7998C141.9 74.1998 141.9 74.5998 141.7 75.0998C141.6 75.4998 141.3 75.8998 141.1 76.1998C140.8 76.4998 140.5 76.7998 140.1 76.8998C139.7 77.0998 139.3 77.1998 138.9 77.1998C138.5 77.1998 138.1 77.1998 137.6 76.9998C137.2 76.8998 136.8 76.5998 136.5 76.3998C136.2 76.0998 135.9 75.7998 135.8 75.3998C135.6 74.9998 135.5 74.5998 135.5 74.1998C135.5 73.6998 135.6 73.2998 135.7 72.8998ZM136.9 73.2998C136.8 73.5998 136.8 73.8998 136.8 74.0998C136.8 74.3998 136.9 74.5998 137 74.8998C137.1 75.1998 137.2 75.2998 137.4 75.4998C137.6 75.6998 137.8 75.7998 138.1 75.8998C138.4 75.9998 138.7 75.9998 138.9 75.9998C139.1 75.9998 139.4 75.8998 139.6 75.7998C139.8 75.6998 140 75.4998 140.2 75.2998C140.4 75.0998 140.5 74.7998 140.6 74.4998C140.7 74.1998 140.7 73.8998 140.7 73.6998C140.7 73.3998 140.6 73.1998 140.5 72.8998C140.4 72.5998 140.3 72.4998 140.1 72.2998C139.9 72.0998 139.7 71.9998 139.4 71.8998C139.1 71.7998 138.8 71.7998 138.6 71.7998C138.3 71.7998 138.1 71.8998 137.9 71.9998C137.7 72.0998 137.5 72.2998 137.3 72.4998C137.1 72.7998 137 72.9998 136.9 73.2998Z" fill="white"/>
<path d="M148.999 71.5996L150.099 72.0996L146.299 80.2996L145.199 79.7996L148.999 71.5996Z" fill="white"/>
<path d="M150.8 75.7002L151.8 76.2002L151.4 77.0002C151.7 76.8002 152 76.7002 152.4 76.7002C152.8 76.7002 153.2 76.8002 153.6 77.0002C153.9 77.1002 154.1 77.3002 154.3 77.5002C154.5 77.7002 154.6 77.9002 154.7 78.2002C154.8 78.5002 154.8 78.7002 154.8 79.1002C154.8 79.4002 154.7 79.7002 154.5 80.1002L152.6 83.5002L151.6 83.0002L153.3 79.9001C153.4 79.7001 153.5 79.4002 153.5 79.2002C153.5 79.0002 153.5 78.8002 153.5 78.6002C153.4 78.4002 153.4 78.3002 153.2 78.2002C153.1 78.1002 152.9 78.0001 152.8 77.9001C152.6 77.8001 152.4 77.7002 152.2 77.7002C152 77.7002 151.8 77.7002 151.6 77.8002C151.4 77.9002 151.2 78.0002 151 78.2002C150.8 78.4002 150.6 78.6001 150.5 78.9001L149 81.6002L148 81.1002L150.8 75.7002Z" fill="white"/>
<path d="M158.898 87.6L157.898 87L158.398 86.3C157.998 86.4 157.598 86.5 157.198 86.4C156.798 86.3 156.398 86.2 156.098 86C155.698 85.7 155.398 85.4 155.198 85.1C154.998 84.8 154.798 84.4 154.798 84C154.798 83.6 154.698 83.2 154.798 82.8C154.898 82.4 155.098 82 155.298 81.6C155.498 81.2 155.798 80.9 156.198 80.7C156.598 80.5 156.898 80.3 157.298 80.2C157.698 80.1 158.098 80.1 158.498 80.2C158.898 80.3 159.298 80.4 159.698 80.7C160.098 80.9 160.398 81.2 160.598 81.6C160.798 82 160.898 82.3 160.898 82.7L163.298 79L164.298 79.6L158.898 87.6ZM156.698 85.1C156.998 85.3 157.198 85.4 157.498 85.4C157.798 85.4 157.998 85.4 158.298 85.4C158.498 85.3 158.798 85.2 158.998 85.1C159.198 84.9 159.398 84.7 159.598 84.5C159.798 84.3 159.898 84 159.898 83.7C159.998 83.4 159.998 83.2 159.898 82.9C159.798 82.6 159.798 82.4 159.598 82.2C159.498 82 159.298 81.8 158.998 81.6C158.698 81.4 158.498 81.3 158.198 81.3C157.898 81.3 157.698 81.3 157.398 81.3C157.098 81.3 156.898 81.5 156.698 81.6C156.498 81.8 156.298 82 156.098 82.2C155.898 82.5 155.798 82.7 155.798 83C155.698 83.3 155.698 83.5 155.798 83.8C155.898 84.1 155.898 84.3 156.098 84.5C156.298 84.8 156.498 84.9 156.698 85.1Z" fill="white"/>
<path d="M163.698 83.7L164.598 84.4L160.998 89.2L160.098 88.5L163.698 83.7ZM164.798 81.8C164.898 81.6 165.098 81.5 165.398 81.5C165.598 81.5 165.798 81.5 165.998 81.7C166.198 81.8 166.298 82 166.298 82.3C166.298 82.6 166.298 82.7 166.098 82.9C165.998 83.1 165.798 83.2 165.498 83.2C165.298 83.2 165.098 83.2 164.898 83C164.698 82.9 164.598 82.7 164.598 82.4C164.598 82.2 164.598 82 164.798 81.8Z" fill="white"/>
<path d="M165.701 86.0996C166.101 86.0996 166.601 86.0996 167.001 86.2996C167.401 86.4996 167.801 86.6996 168.101 86.8996C168.401 87.1996 168.701 87.4996 168.901 87.7996C169.101 88.0996 169.201 88.3996 169.201 88.5996C169.201 88.8996 169.201 89.0996 169.101 89.3996C169.001 89.5996 168.901 89.8996 168.701 90.0996L166.701 92.4996C166.601 92.6996 166.401 92.7996 166.301 92.9996C166.201 93.0996 166.101 93.2996 166.001 93.3996L165.201 92.6996C165.401 92.3996 165.601 92.1996 165.801 91.9996C165.401 92.0996 164.901 92.1996 164.601 92.0996C164.301 91.9996 163.901 91.7996 163.501 91.4996C163.301 91.2996 163.101 91.0996 163.001 90.8996C162.901 90.6996 162.801 90.3996 162.701 90.1996C162.601 89.9996 162.701 89.6996 162.701 89.4996C162.701 89.2996 162.901 88.9996 163.101 88.7996C163.401 88.4996 163.601 88.2996 163.901 88.1996C164.201 88.0996 164.501 88.0996 164.901 88.1996C165.201 88.2996 165.601 88.3996 165.901 88.5996C166.201 88.7996 166.601 89.0996 167.001 89.2996L167.601 89.7996L167.801 89.5996C167.901 89.4996 168.001 89.2996 168.001 89.1996C168.101 88.9996 168.101 88.8996 168.101 88.6996C168.101 88.4996 168.001 88.3996 167.901 88.1996C167.801 87.9996 167.701 87.8996 167.501 87.6996C167.301 87.5996 167.201 87.4996 167.001 87.3996C166.801 87.2996 166.701 87.2996 166.501 87.1996C166.301 87.0996 166.201 87.0996 166.101 87.0996C166.001 87.0996 165.801 87.0996 165.701 87.0996V86.0996ZM166.701 90.0996C166.501 89.8996 166.301 89.7996 166.001 89.5996C165.801 89.3996 165.501 89.2996 165.301 89.1996C165.101 89.0996 164.801 89.0996 164.601 89.0996C164.401 89.0996 164.201 89.1996 164.101 89.3996C163.901 89.6996 163.801 89.8996 163.901 90.1996C164.001 90.4996 164.201 90.6996 164.501 90.9996C164.701 91.1996 165.001 91.2996 165.201 91.3996C165.401 91.4996 165.701 91.4996 165.901 91.3996C166.101 91.3996 166.301 91.2996 166.501 91.1996C166.701 91.0996 166.801 90.8996 167.001 90.7996L167.201 90.4996L166.701 90.0996Z" fill="white"/>
<path d="M30.2 186.6L31.4 189.5C31.5 189.9 31.6 190.2 31.7 190.6C31.7 190.9 31.7 191.3 31.6 191.6C31.5 191.9 31.4 192.2 31.2 192.4C31 192.6 30.7 192.8 30.3 193C29.8 193.2 29.4 193.2 29 193.1C28.6 193 28.2 192.7 27.9 192.3C28 192.6 28 192.8 28 193.1C28 193.4 27.9 193.6 27.8 193.9C27.7 194.1 27.5 194.4 27.3 194.5C27.1 194.7 26.8 194.8 26.6 195C26.2 195.2 25.9 195.2 25.5 195.2C25.1 195.2 24.8 195 24.5 194.9C24.2 194.7 23.9 194.5 23.7 194.1C23.5 193.8 23.3 193.4 23.1 193L22 190.1L30.2 186.6ZM23.3 190.7L24 192.4C24.1 192.6 24.2 192.8 24.3 193C24.4 193.2 24.6 193.4 24.7 193.5C24.9 193.6 25.1 193.7 25.3 193.8C25.5 193.9 25.8 193.8 26.1 193.7C26.6 193.5 26.9 193.2 27 192.8C27.1 192.4 27.1 191.9 26.8 191.3L26.1 189.6L23.3 190.7ZM27.2 189.1L27.8 190.7C27.9 190.9 28 191.1 28.1 191.3C28.2 191.5 28.4 191.6 28.5 191.7C28.7 191.8 28.8 191.9 29 191.9C29.2 191.9 29.4 191.9 29.6 191.8C29.9 191.7 30.2 191.4 30.3 191.1C30.5 190.8 30.4 190.4 30.3 189.9L29.6 188.1L27.2 189.1Z" fill="white"/>
<path d="M33.5984 193.1L34.0984 194.1L30.0984 196.1C30.4984 196.1 30.7984 196.2 31.0984 196.4C31.3984 196.6 31.6984 197 31.8984 197.4C31.9984 197.7 32.0984 197.9 32.1984 198.2C32.1984 198.5 32.1984 198.8 32.0984 199C31.9984 199.3 31.8984 199.5 31.6984 199.8C31.4984 200.1 31.1984 200.2 30.8984 200.4L27.3984 202.1L26.8984 201.1L30.0984 199.5C30.3984 199.4 30.4984 199.2 30.6984 199.1C30.7984 198.9 30.8984 198.8 30.9984 198.6C31.0984 198.4 31.0984 198.3 30.9984 198.1C30.9984 197.9 30.8984 197.8 30.7984 197.6C30.6984 197.4 30.5984 197.2 30.3984 197.1C30.1984 197 30.0984 196.8 29.7984 196.8C29.4984 196.8 29.2984 196.7 29.0984 196.8C28.7984 196.8 28.4984 196.9 28.1984 197.1L25.3984 198.5L24.8984 197.5L33.5984 193.1Z" fill="white"/>
<path d="M32.8992 201.3C33.2992 201.4 33.6992 201.6 34.0992 201.9C34.3992 202.2 34.6992 202.5 34.8992 202.9C35.0992 203.3 35.2992 203.6 35.2992 204C35.3992 204.3 35.3992 204.6 35.2992 204.9C35.1992 205.2 35.0992 205.4 34.9992 205.6C34.8992 205.8 34.6992 206 34.3992 206.1L31.7992 207.7C31.5992 207.8 31.4992 207.9 31.2992 208C31.1992 208.1 30.9992 208.2 30.8992 208.3L30.3992 207.4C30.5992 207.2 30.8992 207.1 31.1992 206.9C30.6992 206.9 30.2992 206.8 29.9992 206.6C29.6992 206.4 29.3992 206.1 29.1992 205.7C29.0992 205.5 28.9992 205.2 28.8992 205C28.7992 204.7 28.7992 204.5 28.8992 204.2C28.8992 204 28.9992 203.7 29.1992 203.5C29.3992 203.3 29.4992 203.1 29.7992 203C30.0992 202.8 30.4992 202.7 30.7992 202.7C31.0992 202.7 31.3992 202.8 31.6992 203C31.9992 203.2 32.2992 203.4 32.5992 203.7C32.8992 204 33.0992 204.4 33.3992 204.8L33.7992 205.5L33.9992 205.4C34.0992 205.3 34.1992 205.2 34.2992 205.1C34.3992 205 34.4992 204.8 34.4992 204.7C34.4992 204.5 34.5992 204.4 34.4992 204.2C34.3992 204 34.3992 203.8 34.2992 203.6C34.1992 203.4 34.0992 203.3 33.8992 203.1C33.6992 202.9 33.6992 202.9 33.4992 202.8C33.3992 202.7 33.1992 202.6 33.0992 202.6C32.9992 202.6 32.7992 202.5 32.6992 202.5L32.8992 201.3ZM32.4992 205.3C32.3992 205.1 32.1992 204.8 31.9992 204.6C31.7992 204.4 31.5992 204.2 31.4992 204C31.2992 203.8 31.0992 203.7 30.8992 203.7C30.6992 203.7 30.4992 203.7 30.2992 203.8C29.9992 204 29.7992 204.2 29.7992 204.5C29.7992 204.8 29.8992 205.1 30.0992 205.4C30.2992 205.7 30.3992 205.9 30.6992 206C30.9992 206.1 31.0992 206.2 31.2992 206.2C31.4992 206.2 31.6992 206.2 31.8992 206.2C32.0992 206.2 32.2992 206.1 32.4992 206L32.7992 205.8L32.4992 205.3Z" fill="white"/>
<path d="M37.5993 210C37.6993 209.8 37.6993 209.6 37.6993 209.3C37.6993 209 37.5993 208.8 37.3993 208.6C37.1993 208.4 37.0993 208.2 36.8993 208.1C36.6993 208 36.4993 208 36.2993 208.1C36.1993 208.2 36.0993 208.3 35.9993 208.5C35.9993 208.7 35.9993 208.8 35.9993 209C35.9993 209.2 36.0993 209.3 36.1993 209.5C36.2993 209.7 36.2993 209.8 36.3993 209.9C36.4993 210.1 36.5993 210.4 36.5993 210.6C36.5993 210.8 36.6993 211 36.6993 211.2C36.6993 211.4 36.5993 211.6 36.4993 211.8C36.3993 212 36.1993 212.2 35.9993 212.3C35.6993 212.5 35.3993 212.6 35.1993 212.6C34.9993 212.6 34.5993 212.6 34.3993 212.5C34.0993 212.4 33.8993 212.2 33.6993 212C33.4993 211.8 33.2993 211.6 33.0993 211.3C32.7993 210.9 32.5993 210.5 32.4993 210.1C32.3993 209.7 32.3993 209.3 32.5993 208.8L33.6993 209.1C33.6993 209.4 33.5993 209.6 33.6993 209.9C33.6993 210.2 33.7993 210.4 33.9993 210.7C34.0993 210.8 34.1993 210.9 34.2993 211C34.3993 211.1 34.4993 211.2 34.5993 211.2C34.6993 211.2 34.7993 211.3 34.9993 211.3C35.0993 211.3 35.1993 211.3 35.2993 211.2C35.3993 211.1 35.4993 211 35.5993 210.8C35.5993 210.6 35.5993 210.5 35.5993 210.3C35.5993 210.1 35.4993 210 35.4993 209.8C35.3993 209.6 35.3993 209.5 35.2993 209.4C35.1993 209.2 35.0993 208.9 35.0993 208.7C34.9993 208.5 34.9993 208.3 34.9993 208C34.9993 207.7 35.0993 207.6 35.1993 207.4C35.2993 207.2 35.4993 207 35.6993 206.9C35.9993 206.7 36.1993 206.6 36.4993 206.6C36.7993 206.6 36.9993 206.6 37.2993 206.7C37.5993 206.8 37.7993 206.9 37.9993 207.1C38.1993 207.3 38.3993 207.5 38.5993 207.7C38.7993 208 38.9993 208.4 39.0993 208.8C39.1993 209.2 39.1993 209.6 38.9993 210H37.5993Z" fill="white"/>
<path d="M43 208.699L43.7 209.599L40.2 212.499C40.5 212.399 40.9 212.399 41.3 212.599C41.7 212.799 42 212.999 42.3 213.399C42.5 213.599 42.6 213.899 42.7 214.099C42.8 214.399 42.8 214.599 42.8 214.899C42.8 215.199 42.7 215.399 42.5 215.699C42.3 215.999 42.1 216.199 41.8 216.499L38.8 218.999L38.1 218.099L40.9 215.799C41.1 215.599 41.3 215.399 41.4 215.299C41.5 215.099 41.6 214.899 41.6 214.799C41.6 214.599 41.6 214.499 41.5 214.299C41.4 214.099 41.4 213.999 41.2 213.799C41 213.599 40.9 213.499 40.7 213.399C40.5 213.299 40.3 213.199 40.1 213.199C39.9 213.199 39.6 213.199 39.4 213.299C39.1 213.399 38.9 213.599 38.6 213.799L36.2 215.799L35.5 214.899L43 208.699Z" fill="white"/>
<path d="M44.1008 216.899C44.5008 216.899 45.0008 216.999 45.4008 217.299C45.8008 217.599 46.1008 217.799 46.4008 218.099C46.7008 218.399 46.9008 218.699 47.1008 218.999C47.2008 219.299 47.3008 219.599 47.3008 219.899C47.3008 220.199 47.3008 220.399 47.1008 220.699C47.0008 220.899 46.8008 221.099 46.7008 221.299L44.5008 223.399C44.3008 223.499 44.2008 223.699 44.1008 223.799C44.0008 223.899 43.9008 224.099 43.8008 224.199L43.1008 223.499C43.3008 223.299 43.5008 223.099 43.7008 222.799C43.2008 222.899 42.8008 222.899 42.5008 222.699C42.1008 222.599 41.8008 222.299 41.5008 221.999C41.3008 221.799 41.2008 221.599 41.0008 221.299C40.9008 221.099 40.8008 220.799 40.8008 220.599C40.8008 220.399 40.8008 220.099 40.9008 219.899C41.0008 219.699 41.1008 219.399 41.4008 219.199C41.7008 218.899 42.0008 218.799 42.3008 218.699C42.6008 218.599 42.9008 218.699 43.3008 218.799C43.7008 218.899 44.0008 219.099 44.3008 219.299C44.6008 219.499 45.0008 219.799 45.3008 220.199L45.9008 220.799L46.1008 220.599C46.2008 220.499 46.3008 220.399 46.4008 220.199C46.5008 220.099 46.5008 219.899 46.5008 219.699C46.5008 219.499 46.5008 219.399 46.4008 219.199C46.3008 218.999 46.2008 218.799 46.0008 218.699C45.8008 218.499 45.7008 218.399 45.6008 218.299C45.5008 218.199 45.3008 218.099 45.2008 218.099C45.1008 217.999 44.9008 217.999 44.8008 217.999C44.7008 217.999 44.5008 217.999 44.4008 217.899L44.1008 216.899ZM44.6008 220.899C44.4008 220.699 44.2008 220.499 44.0008 220.299C43.8008 220.099 43.6008 219.999 43.3008 219.899C43.1008 219.799 42.9008 219.699 42.6008 219.699C42.4008 219.699 42.2008 219.799 42.0008 219.899C41.7008 220.099 41.6008 220.399 41.7008 220.699C41.7008 220.999 41.9008 221.299 42.2008 221.499C42.4008 221.699 42.6008 221.899 42.9008 221.999C43.1008 222.099 43.4008 222.099 43.6008 222.099C43.8008 222.099 44.0008 221.999 44.2008 221.899C44.4008 221.799 44.6008 221.699 44.7008 221.499L45.0008 221.199L44.6008 220.899Z" fill="white"/>
<path d="M53.2017 226.699C53.2017 226.499 53.2017 226.299 53.1017 225.999C53.0017 225.699 52.9017 225.599 52.7017 225.399C52.5017 225.199 52.3017 225.099 52.0017 225.099C51.8017 225.099 51.6017 225.099 51.4017 225.299C51.3017 225.399 51.2017 225.599 51.3017 225.699C51.3017 225.899 51.4017 225.999 51.4017 226.199C51.5017 226.399 51.6017 226.499 51.7017 226.599C51.8017 226.699 51.9017 226.899 52.0017 226.999C52.1017 227.199 52.3017 227.399 52.4017 227.599C52.5017 227.799 52.6017 227.999 52.6017 228.199C52.6017 228.399 52.6017 228.599 52.6017 228.799C52.6017 228.999 52.4017 229.199 52.2017 229.399C52.0017 229.699 51.7017 229.799 51.5017 229.899C51.2017 229.999 51.0017 229.999 50.7017 229.999C50.4017 229.999 50.2017 229.899 49.9017 229.699C49.6017 229.599 49.4017 229.399 49.2017 229.199C48.8017 228.899 48.5017 228.499 48.3017 228.199C48.1017 227.799 48.0017 227.399 48.1017 226.899H49.2017C49.2017 227.199 49.3017 227.399 49.4017 227.699C49.5017 227.999 49.6017 228.199 49.9017 228.399C50.0017 228.499 50.1017 228.599 50.3017 228.699C50.4017 228.799 50.6017 228.799 50.7017 228.799C50.8017 228.799 51.0017 228.799 51.1017 228.799C51.2017 228.799 51.3017 228.699 51.4017 228.599C51.5017 228.499 51.6017 228.299 51.6017 228.199C51.6017 227.999 51.5017 227.899 51.5017 227.799C51.4017 227.699 51.3017 227.499 51.2017 227.399C51.1017 227.299 51.0017 227.099 50.9017 226.999C50.8017 226.799 50.6017 226.599 50.5017 226.399C50.4017 226.199 50.3017 225.999 50.3017 225.799C50.3017 225.599 50.3017 225.399 50.3017 225.199C50.3017 224.999 50.5017 224.799 50.7017 224.499C50.9017 224.299 51.1017 224.099 51.4017 223.999C51.7017 223.899 51.9017 223.899 52.2017 223.899C52.5017 223.899 52.7017 223.999 53.0017 224.099C53.3017 224.199 53.5017 224.399 53.7017 224.599C54.0017 224.899 54.3017 225.199 54.4017 225.499C54.6017 225.899 54.6017 226.199 54.6017 226.699H53.2017Z" fill="white"/>
<path d="M55.5984 227.6C55.9984 227.6 56.4984 227.6 56.8984 227.7C57.2984 227.8 57.6984 228 58.0984 228.3C58.4984 228.6 58.6984 228.8 58.8984 229.1C59.0984 229.4 59.1984 229.7 59.2984 229.9C59.3984 230.2 59.2984 230.4 59.2984 230.7C59.2984 231 59.0984 231.2 58.9984 231.4L57.1984 233.9C57.0984 234.1 56.9984 234.2 56.8984 234.4C56.7984 234.5 56.6984 234.7 56.5984 234.8L55.7984 234.2C55.9984 233.9 56.0984 233.7 56.2984 233.4C55.8984 233.6 55.4984 233.6 55.0984 233.5C54.6984 233.4 54.2984 233.2 53.9984 233C53.7984 232.8 53.5984 232.6 53.3984 232.4C53.1984 232.2 53.0984 232 53.0984 231.7C52.9984 231.5 52.9984 231.2 53.0984 231C53.1984 230.8 53.2984 230.5 53.3984 230.3C53.5984 230 53.8984 229.8 54.1984 229.7C54.4984 229.6 54.7984 229.6 55.1984 229.6C55.4984 229.6 55.8984 229.8 56.2984 229.9C56.6984 230.1 56.9984 230.3 57.3984 230.6L58.0984 231.1L58.2984 230.9C58.3984 230.8 58.4984 230.6 58.4984 230.5C58.4984 230.3 58.5984 230.2 58.4984 230C58.4984 229.8 58.3984 229.7 58.2984 229.5C58.1984 229.3 58.0984 229.2 57.8984 229C57.6984 228.9 57.5984 228.8 57.3984 228.7C57.1984 228.6 57.0984 228.6 56.8984 228.6C56.7984 228.6 56.5984 228.6 56.4984 228.6C56.3984 228.6 56.1984 228.6 56.0984 228.6L55.5984 227.6ZM56.6984 231.4C56.4984 231.2 56.1984 231.1 55.9984 230.9C55.7984 230.8 55.4984 230.6 55.2984 230.6C55.0984 230.5 54.7984 230.5 54.5984 230.5C54.3984 230.5 54.1984 230.6 54.0984 230.8C53.8984 231.1 53.7984 231.4 53.8984 231.6C53.9984 231.9 54.1984 232.1 54.4984 232.3C54.7984 232.5 54.9984 232.6 55.1984 232.6C55.3984 232.6 55.6984 232.6 55.8984 232.6C56.0984 232.5 56.2984 232.4 56.4984 232.3C56.6984 232.2 56.7984 232 56.8984 231.9L57.0984 231.6L56.6984 231.4Z" fill="white"/>
<path d="M61.2 230.899L62.1 231.399L61.6 232.199C61.7 232.099 61.8 232.099 61.9 231.999C62.1 231.899 62.2 231.899 62.4 231.899C62.6 231.899 62.8 231.899 63.1 231.899C63.3 231.899 63.6 231.999 63.8 232.199C64.2 232.399 64.5 232.699 64.6 232.999C64.7 233.299 64.8 233.699 64.8 234.099C65.2 233.899 65.5 233.799 65.9 233.799C66.3 233.799 66.7 233.899 67 234.099C67.4 234.299 67.7 234.599 67.9 234.899C68.1 235.199 68.2 235.499 68.2 235.799C68.2 236.099 68.2 236.399 68.1 236.699C68 236.999 67.9 237.299 67.7 237.599L65.9 240.599L64.9 239.999L66.6 237.099C66.7 236.899 66.8 236.699 66.9 236.499C67 236.299 67 236.099 67 235.899C67 235.699 67 235.499 66.9 235.399C66.8 235.299 66.6 235.099 66.4 234.899C65.9 234.599 65.5 234.599 65.1 234.699C64.7 234.899 64.4 235.199 64.1 235.599L62.4 238.399L61.4 237.799L63 235.099C63.1 234.899 63.3 234.599 63.4 234.399C63.5 234.199 63.6 233.999 63.6 233.799C63.6 233.599 63.6 233.399 63.5 233.299C63.4 233.099 63.2 232.999 63 232.799C62.8 232.699 62.6 232.599 62.4 232.599C62.2 232.599 62 232.599 61.8 232.699C61.6 232.799 61.4 232.899 61.2 233.099C61 233.299 60.8 233.499 60.6 233.799L59 236.499L58 235.899L61.2 230.899Z" fill="white"/>
<path d="M70.2015 236.899C70.6015 236.799 71.1016 236.699 71.5016 236.799C71.9016 236.899 72.4015 236.999 72.7015 237.099C73.1015 237.299 73.4015 237.499 73.7015 237.699C74.0015 237.899 74.1015 238.199 74.2015 238.399C74.3015 238.699 74.4015 238.899 74.3015 239.199C74.3015 239.499 74.2016 239.699 74.1016 239.899L72.8015 242.699C72.7015 242.899 72.6016 243.099 72.6016 243.199C72.6016 243.299 72.5016 243.499 72.4016 243.699L71.5016 243.299C71.6016 242.999 71.7016 242.699 71.9016 242.499C71.5016 242.699 71.1015 242.899 70.7015 242.899C70.3015 242.899 69.9016 242.799 69.5016 242.599C69.2016 242.499 69.0015 242.299 68.8015 242.199C68.6015 241.999 68.4015 241.799 68.3015 241.599C68.2015 241.399 68.1016 241.099 68.1016 240.899C68.1016 240.599 68.2015 240.399 68.3015 240.099C68.5015 239.699 68.7016 239.499 69.0016 239.299C69.3016 239.099 69.6016 238.999 69.9016 238.999C70.2016 238.999 70.6016 238.999 71.0016 239.099C71.4016 239.199 71.8015 239.399 72.2015 239.599L73.0016 239.999L73.1016 239.799C73.2016 239.699 73.2015 239.499 73.2015 239.299C73.2015 239.099 73.2016 238.999 73.1016 238.799C73.0016 238.599 73.0015 238.499 72.8015 238.299C72.6015 238.099 72.5015 237.999 72.3015 237.899C72.1015 237.799 71.9015 237.699 71.7015 237.699C71.5015 237.699 71.4015 237.699 71.2015 237.699C71.0015 237.699 70.9015 237.699 70.8015 237.699C70.7015 237.699 70.5016 237.799 70.4016 237.799L70.2015 236.899ZM72.1016 240.399C71.9016 240.299 71.6015 240.199 71.3015 240.099C71.0015 239.999 70.8016 239.899 70.5016 239.899C70.3016 239.899 70.0015 239.899 69.8015 239.999C69.6015 240.099 69.4015 240.199 69.3015 240.399C69.2015 240.699 69.2015 240.999 69.3015 241.199C69.4015 241.399 69.7016 241.599 70.1016 241.799C70.4016 241.899 70.6016 241.999 70.9016 241.999C71.1016 241.999 71.4016 241.899 71.6016 241.899C71.8016 241.799 72.0016 241.699 72.1016 241.499C72.2016 241.299 72.4016 241.199 72.4016 240.999L72.6016 240.699L72.1016 240.399Z" fill="white"/>
<path d="M76.4016 238.899L77.5016 239.299L77.2015 240.199C77.3015 240.099 77.5016 239.999 77.6016 239.899C77.8016 239.799 77.9016 239.799 78.1016 239.699C78.3016 239.699 78.5015 239.699 78.7015 239.699C78.9015 239.699 79.1015 239.799 79.3015 239.799C79.5015 239.899 79.6015 239.999 79.7015 240.099L79.2015 241.199C79.1015 241.099 79.0016 241.099 79.0016 240.999C78.9016 240.999 78.8015 240.899 78.7015 240.899C78.2015 240.699 77.7015 240.699 77.3015 240.899C76.9015 241.099 76.6015 241.499 76.3015 242.099L75.2015 244.899L74.1016 244.499L76.4016 238.899Z" fill="white"/>
<path d="M83.5008 242.5L81.9008 242L81.0008 244.6C80.9008 244.8 80.9008 244.9 80.9008 245.1C80.9008 245.3 80.8008 245.4 80.8008 245.6C80.8008 245.8 80.9008 245.9 80.9008 246C81.0008 246.1 81.1008 246.2 81.3008 246.3C81.4008 246.3 81.6008 246.4 81.7008 246.4C81.8008 246.4 82.0008 246.4 82.1008 246.4L81.8008 247.4C81.6008 247.4 81.5008 247.4 81.2008 247.4C81.0008 247.4 80.8008 247.3 80.7008 247.3C80.3008 247.2 80.0008 247 79.8008 246.8C79.6008 246.6 79.5008 246.4 79.4008 246.2C79.4008 246 79.4008 245.7 79.4008 245.5C79.5008 245.3 79.5008 245 79.6008 244.8L80.6008 241.8L79.3008 241.4L79.6008 240.5L80.9008 240.9L81.4008 239.3L82.5008 239.7L82.0008 241.3L83.6008 241.8L83.5008 242.5Z" fill="white"/>
<path d="M86 238.5L87.1 238.8L86 243.2C86.2 242.9 86.5 242.7 86.9 242.6C87.3 242.5 87.7 242.5 88.2 242.6C88.5 242.7 88.7 242.8 89 242.9C89.2 243.1 89.4 243.2 89.6 243.5C89.7 243.7 89.8 244 89.9 244.3C89.9 244.6 89.9 245 89.8 245.4L88.8 249.2L87.7 248.9L88.6 245.4C88.7 245.1 88.7 244.9 88.7 244.7C88.7 244.5 88.6 244.3 88.5 244.2C88.4 244 88.3 243.9 88.1 243.8C87.9 243.7 87.8 243.6 87.6 243.6C87.4 243.5 87.1 243.5 86.9 243.5C86.7 243.5 86.5 243.6 86.3 243.7C86.1 243.8 85.9 244 85.8 244.2C85.7 244.4 85.5 244.7 85.4 245L84.6 248L83.5 247.7L86 238.5Z" fill="white"/>
<path d="M91.7992 244.399C92.1992 244.199 92.5992 243.999 92.9992 243.899C93.3992 243.799 93.8992 243.799 94.2992 243.899C94.6992 243.999 95.0992 244.099 95.3992 244.299C95.6992 244.499 95.8992 244.699 96.0992 244.899C96.2992 245.099 96.3992 245.399 96.3992 245.599C96.4992 245.899 96.4992 246.099 96.3992 246.399L95.8992 249.399C95.8992 249.599 95.7992 249.799 95.7992 249.999C95.7992 250.199 95.7992 250.299 95.6992 250.499L94.6992 250.299C94.6992 249.999 94.7992 249.699 94.7992 249.399C94.4992 249.699 94.0992 249.999 93.7992 250.099C93.3992 250.199 92.9992 250.199 92.5992 250.099C92.2992 250.099 92.0992 249.999 91.7992 249.799C91.5992 249.699 91.3992 249.499 91.1992 249.299C90.9992 249.099 90.8992 248.899 90.8992 248.699C90.7992 248.499 90.7992 248.199 90.8992 247.899C90.9992 247.499 91.0992 247.199 91.2992 246.999C91.4992 246.799 91.7992 246.599 92.0992 246.499C92.3992 246.399 92.7992 246.299 93.1992 246.299C93.5992 246.299 93.9992 246.299 94.4992 246.399L95.2992 246.499V246.199C95.2992 245.999 95.2992 245.899 95.2992 245.699C95.2992 245.499 95.1992 245.399 95.0992 245.199C94.9992 245.099 94.8992 244.899 94.6992 244.799C94.4992 244.699 94.2992 244.599 94.0992 244.599C93.8992 244.599 93.6992 244.499 93.4992 244.599C93.2992 244.599 93.1992 244.599 92.9992 244.699C92.8992 244.699 92.6992 244.799 92.5992 244.899C92.4992 244.999 92.3992 244.999 92.1992 245.099L91.7992 244.399ZM94.4992 247.399C94.1992 247.399 93.9992 247.299 93.6992 247.299C93.3992 247.299 93.0992 247.299 92.8992 247.299C92.6992 247.299 92.3992 247.399 92.2992 247.499C92.0992 247.599 91.9992 247.799 91.9992 247.999C91.8992 248.299 91.9992 248.599 92.1992 248.799C92.3992 248.999 92.6992 249.099 93.0992 249.199C93.3992 249.299 93.6992 249.299 93.8992 249.199C94.0992 249.099 94.2992 248.999 94.4992 248.899C94.6992 248.799 94.7992 248.599 94.8992 248.399C94.9992 248.199 95.0992 247.999 95.0992 247.799L95.1992 247.399H94.4992Z" fill="white"/>
<path d="M98.7008 241.199L99.8008 241.299L99.2008 247.499L102.101 245.199L103.701 245.399L100.601 247.799L103.301 251.399L101.701 251.199L99.2008 247.799L98.9008 250.899L97.8008 250.799L98.7008 241.199Z" fill="white"/>
<path d="M108.301 247.1C108.301 246.8 108.301 246.5 108.501 246.2C108.601 245.9 108.801 245.7 109.001 245.5C109.201 245.3 109.401 245.1 109.701 245C110.001 244.9 110.301 244.8 110.601 244.8C110.901 244.8 111.201 244.8 111.501 245C111.801 245.1 112.001 245.3 112.201 245.5C112.401 245.7 112.601 245.9 112.701 246.2C112.801 246.5 112.901 246.8 112.901 247.1C112.901 247.4 112.901 247.7 112.701 248C112.601 248.3 112.401 248.5 112.201 248.7C112.001 248.9 111.801 249.1 111.501 249.2C111.201 249.3 110.901 249.4 110.601 249.4C110.301 249.4 110.001 249.4 109.701 249.2C109.401 249.1 109.201 248.9 109.001 248.7C108.801 248.5 108.601 248.3 108.501 248C108.401 247.7 108.301 247.4 108.301 247.1Z" fill="white"/>
<path d="M119.101 249.2C119.401 249.5 119.701 249.7 120.001 249.8C120.401 249.9 120.701 249.999 121.101 249.899C121.301 249.899 121.501 249.8 121.701 249.7C121.901 249.6 122.101 249.5 122.201 249.3C122.401 249.2 122.501 249 122.601 248.8C122.701 248.6 122.701 248.399 122.701 248.099C122.701 247.799 122.501 247.5 122.301 247.3C122.101 247.1 121.801 246.999 121.401 246.899C121.001 246.799 120.701 246.7 120.301 246.7C119.901 246.6 119.501 246.499 119.201 246.399C118.901 246.199 118.501 246 118.301 245.7C118.001 245.4 117.901 244.899 117.801 244.399C117.801 244.099 117.801 243.9 117.901 243.5C118.001 243.1 118.101 242.899 118.301 242.599C118.501 242.299 118.801 242.099 119.201 241.899C119.601 241.699 120.001 241.6 120.601 241.5C121.101 241.4 121.601 241.5 122.001 241.5C122.501 241.6 122.901 241.8 123.301 242.2L122.401 243.2C122.201 243 122.001 242.8 121.701 242.7C121.401 242.6 121.101 242.599 120.701 242.599C120.401 242.599 120.101 242.7 119.901 242.8C119.701 242.9 119.501 243.1 119.401 243.2C119.301 243.4 119.201 243.5 119.201 243.7C119.201 243.9 119.201 244 119.201 244.2C119.201 244.6 119.401 244.9 119.601 245C119.801 245.1 120.101 245.299 120.501 245.399C120.801 245.499 121.201 245.599 121.601 245.599C122.001 245.699 122.401 245.799 122.701 245.899C123.001 245.999 123.301 246.3 123.601 246.5C123.901 246.8 124.001 247.2 124.101 247.7C124.201 248.1 124.101 248.499 124.001 248.899C123.901 249.299 123.701 249.599 123.401 249.899C123.201 250.199 122.801 250.399 122.501 250.599C122.201 250.799 121.701 250.899 121.301 250.899C120.701 250.999 120.201 250.9 119.601 250.8C119.101 250.7 118.601 250.4 118.301 250L119.101 249.2Z" fill="white"/>
<path d="M124.398 242.099C124.398 241.899 124.398 241.699 124.498 241.499C124.598 241.299 124.798 241.199 124.998 241.199C125.198 241.199 125.398 241.199 125.598 241.299C125.798 241.399 125.898 241.599 125.998 241.799C126.098 241.999 125.998 242.199 125.898 242.399C125.798 242.599 125.598 242.699 125.398 242.699C125.198 242.699 124.998 242.699 124.798 242.599C124.598 242.499 124.398 242.399 124.398 242.099ZM124.998 244.199L126.098 243.999L127.198 249.999L126.098 250.199L124.998 244.199Z" fill="white"/>
<path d="M127.199 240.099L128.299 239.899L130.299 249.299L129.199 249.499L127.199 240.099Z" fill="white"/>
<path d="M130.102 243.199L131.402 242.899L134.402 246.899L134.902 241.999L136.102 241.699L135.402 248.199L134.202 248.499L130.102 243.199Z" fill="white"/>
<path d="M138.798 244.3C138.898 244.5 138.998 244.8 139.198 244.9C139.398 245.1 139.598 245.2 139.798 245.3C139.998 245.4 140.298 245.4 140.498 245.4C140.798 245.4 140.998 245.4 141.298 245.3C141.598 245.2 141.898 245 142.098 244.8C142.298 244.6 142.398 244.3 142.598 243.9L143.598 244.2C143.298 245.2 142.598 245.9 141.498 246.3C141.098 246.5 140.598 246.5 140.198 246.5C139.798 246.5 139.398 246.4 139.098 246.2C138.798 246 138.398 245.8 138.198 245.5C137.898 245.2 137.698 244.8 137.598 244.4C137.398 244 137.398 243.6 137.398 243.1C137.398 242.7 137.498 242.3 137.698 241.9C137.898 241.5 138.098 241.2 138.398 240.9C138.698 240.6 139.098 240.4 139.498 240.3C139.998 240.1 140.498 240.1 140.898 240.1C141.298 240.2 141.698 240.3 141.998 240.5C142.298 240.7 142.598 241 142.798 241.3C142.998 241.6 143.198 242 143.298 242.3L143.398 242.7L138.798 244.3ZM141.898 242.2C141.798 242 141.698 241.8 141.598 241.6C141.498 241.4 141.298 241.3 141.098 241.2C140.898 241.1 140.698 241 140.498 241C140.298 241 139.998 241 139.698 241.1C139.398 241.2 139.198 241.3 138.998 241.5C138.798 241.7 138.698 241.9 138.598 242.1C138.498 242.3 138.398 242.5 138.398 242.8C138.398 243 138.398 243.2 138.498 243.4L141.898 242.2Z" fill="white"/>
<path d="M143.398 238.9L144.498 238.4L144.898 239.3C144.898 239.1 144.898 238.9 144.998 238.8C145.098 238.6 145.198 238.5 145.298 238.3C145.398 238.1 145.498 238 145.698 237.9C145.898 237.8 145.998 237.7 146.198 237.6C146.398 237.5 146.498 237.5 146.698 237.5L147.098 238.7C146.998 238.7 146.898 238.7 146.798 238.8C146.698 238.9 146.598 238.9 146.498 238.9C145.998 239.1 145.698 239.4 145.498 239.8C145.398 240.2 145.398 240.7 145.698 241.3L146.898 244.1L145.798 244.6L143.398 238.9Z" fill="white"/>
<path d="M155.901 231.399C155.501 231.199 155.101 231.199 154.701 231.199C154.301 231.199 153.901 231.399 153.501 231.599C153.101 231.899 152.701 232.199 152.401 232.499C152.101 232.899 152.001 233.299 151.901 233.699C151.801 234.099 151.801 234.599 151.901 235.099C152.001 235.599 152.201 235.999 152.401 236.499C152.601 236.899 152.901 237.299 153.301 237.599C153.701 237.899 154.001 238.099 154.401 238.199C154.801 238.299 155.201 238.399 155.701 238.299C156.201 238.299 156.601 238.099 157.101 237.799C157.501 237.499 157.901 237.199 158.101 236.799C158.301 236.399 158.501 235.999 158.501 235.499L159.801 235.699C159.801 235.799 159.801 235.999 159.701 236.199C159.601 236.399 159.501 236.699 159.401 236.999C159.201 237.299 159.001 237.599 158.801 237.899C158.501 238.199 158.201 238.499 157.701 238.799C157.101 239.199 156.501 239.399 155.801 239.399C155.201 239.499 154.601 239.399 154.001 239.199C153.401 238.999 152.901 238.699 152.401 238.399C151.901 237.999 151.601 237.599 151.301 237.099C151.001 236.499 150.701 235.899 150.601 235.299C150.501 234.699 150.501 234.099 150.701 233.499C150.801 232.899 151.101 232.399 151.501 231.899C151.901 231.399 152.401 230.999 153.001 230.599C153.501 230.299 154.101 230.099 154.701 229.999C155.301 229.899 155.901 229.999 156.501 230.199L155.901 231.399Z" fill="white"/>
<path d="M159.899 233.6C159.599 233.2 159.499 232.9 159.399 232.4C159.299 231.9 159.299 231.6 159.399 231.2C159.499 230.8 159.599 230.4 159.799 230.1C159.999 229.7 160.299 229.4 160.699 229.2C161.099 228.9 161.499 228.8 161.899 228.7C162.299 228.6 162.699 228.6 163.099 228.7C163.499 228.8 163.899 228.9 164.199 229.1C164.599 229.3 164.899 229.6 165.099 230C165.399 230.4 165.499 230.7 165.599 231.2C165.699 231.6 165.699 232 165.599 232.4C165.499 232.8 165.399 233.2 165.199 233.5C164.999 233.9 164.699 234.2 164.299 234.4C163.899 234.7 163.499 234.8 163.099 234.9C162.699 235 162.299 235 161.899 234.9C161.499 234.8 161.099 234.7 160.799 234.5C160.499 234.3 160.099 234 159.899 233.6ZM160.899 232.9C161.099 233.1 161.299 233.4 161.499 233.5C161.699 233.6 161.999 233.8 162.199 233.8C162.399 233.8 162.699 233.8 162.999 233.8C163.299 233.7 163.499 233.6 163.799 233.4C163.999 233.2 164.199 233 164.399 232.8C164.499 232.6 164.599 232.3 164.699 232.1C164.699 231.9 164.699 231.6 164.599 231.3C164.499 231 164.399 230.8 164.199 230.5C163.999 230.3 163.799 230 163.599 229.9C163.399 229.8 163.099 229.6 162.899 229.6C162.699 229.5 162.399 229.6 162.099 229.6C161.799 229.7 161.599 229.8 161.299 230C160.999 230.2 160.899 230.4 160.699 230.6C160.599 230.8 160.499 231.1 160.399 231.3C160.399 231.5 160.399 231.8 160.499 232.1C160.599 232.4 160.699 232.7 160.899 232.9Z" fill="white"/>
<path d="M164.398 226.6L165.298 225.9L165.898 226.6C165.798 226.3 165.798 225.9 165.998 225.5C166.098 225.1 166.398 224.8 166.798 224.5C166.998 224.3 167.298 224.2 167.498 224.1C167.798 224 167.998 224 168.298 224C168.598 224 168.798 224.1 169.098 224.2C169.398 224.3 169.598 224.6 169.898 224.9L172.398 227.9L171.498 228.6L169.198 225.9C168.998 225.7 168.798 225.5 168.598 225.4C168.398 225.3 168.198 225.2 168.098 225.2C167.898 225.2 167.798 225.2 167.598 225.3C167.398 225.4 167.298 225.5 167.198 225.6C166.998 225.8 166.898 225.9 166.798 226.1C166.698 226.3 166.598 226.5 166.598 226.7C166.598 226.9 166.598 227.2 166.698 227.4C166.798 227.6 166.998 227.9 167.198 228.2L169.198 230.6L168.298 231.3L164.398 226.6Z" fill="white"/>
<path d="M172.701 220.499L171.501 221.599L173.401 223.599C173.501 223.699 173.601 223.799 173.801 223.999C173.901 224.099 174.001 224.199 174.201 224.299C174.301 224.399 174.501 224.399 174.601 224.399C174.701 224.399 174.901 224.299 175.001 224.099C175.101 223.999 175.201 223.899 175.301 223.799C175.401 223.699 175.401 223.599 175.501 223.399L176.201 224.199C176.201 224.299 176.101 224.499 175.901 224.699C175.701 224.899 175.701 224.999 175.601 225.099C175.301 225.399 175.001 225.599 174.701 225.699C174.401 225.799 174.201 225.799 174.001 225.699C173.801 225.599 173.601 225.499 173.401 225.399C173.201 225.199 173.001 225.099 172.901 224.899L170.701 222.599L169.701 223.499L169.001 222.799L170.001 221.899L168.801 220.699L169.601 219.899L170.801 221.099L172.001 219.999L172.701 220.499Z" fill="white"/>
<path d="M173 218.8L173.8 218L174.5 218.6C174.4 218.4 174.4 218.3 174.4 218.1C174.4 217.9 174.4 217.7 174.4 217.6C174.4 217.4 174.5 217.2 174.6 217.1C174.7 216.9 174.8 216.8 174.9 216.6C175 216.5 175.2 216.4 175.3 216.3L176.2 217.2C176.1 217.3 176 217.3 176 217.4C175.9 217.5 175.9 217.5 175.8 217.6C175.4 218 175.2 218.4 175.3 218.9C175.3 219.3 175.6 219.8 176.1 220.2L178.3 222.3L177.5 223.1L173 218.8Z" fill="white"/>
<path d="M174.402 214.1C174.202 214 174.102 213.8 174.102 213.5C174.102 213.3 174.102 213.1 174.302 212.9C174.502 212.7 174.602 212.6 174.902 212.6C175.102 212.6 175.302 212.6 175.502 212.8C175.702 212.9 175.802 213.1 175.802 213.4C175.802 213.6 175.802 213.8 175.602 214C175.502 214.2 175.302 214.3 175.002 214.3C174.702 214.3 174.502 214.2 174.402 214.1ZM176.202 215.3L176.902 214.4L181.502 218.3L180.802 219.2L176.202 215.3Z" fill="white"/>
<path d="M175.199 210.999L175.899 210.099L179.499 212.799C179.399 212.399 179.399 212.099 179.399 211.599C179.499 211.199 179.699 210.799 179.899 210.499C180.199 210.099 180.499 209.799 180.899 209.599C181.299 209.399 181.599 209.299 181.999 209.199C182.399 209.199 182.799 209.199 183.199 209.299C183.599 209.399 183.999 209.599 184.299 209.899C184.599 210.199 184.899 210.499 185.199 210.799C185.399 211.099 185.599 211.499 185.599 211.899C185.699 212.299 185.699 212.699 185.599 213.099C185.499 213.499 185.299 213.899 184.999 214.299C184.799 214.599 184.399 214.899 184.099 215.099C183.699 215.299 183.299 215.399 182.899 215.399L183.599 215.899L182.899 216.799L175.199 210.999ZM184.099 213.699C184.299 213.499 184.399 213.199 184.499 212.899C184.599 212.599 184.599 212.399 184.499 212.099C184.499 211.899 184.399 211.599 184.199 211.399C183.999 211.199 183.899 210.999 183.599 210.799C183.399 210.599 183.099 210.499 182.799 210.399C182.499 210.299 182.299 210.299 181.999 210.299C181.799 210.299 181.499 210.399 181.299 210.499C181.099 210.599 180.899 210.799 180.699 211.099C180.499 211.399 180.399 211.599 180.299 211.899C180.199 212.199 180.199 212.399 180.299 212.699C180.399 212.999 180.399 213.199 180.599 213.399C180.799 213.599 180.899 213.799 181.199 213.999C181.399 214.199 181.699 214.299 181.999 214.399C182.299 214.499 182.499 214.499 182.799 214.499C182.999 214.499 183.299 214.399 183.499 214.299C183.699 214.199 183.899 213.999 184.099 213.699Z" fill="white"/>
<path d="M190.602 205.7L190.002 206.7L189.202 206.2C189.402 206.5 189.502 206.8 189.502 207.3C189.502 207.7 189.302 208.1 189.102 208.5C188.902 208.8 188.802 209 188.502 209.1C188.202 209.2 188.002 209.4 187.802 209.5C187.502 209.6 187.202 209.6 186.902 209.5C186.602 209.4 186.302 209.3 185.902 209.1L182.602 207L183.202 206L186.202 207.9C186.402 208.1 186.702 208.1 186.902 208.2C187.102 208.2 187.302 208.2 187.502 208.2C187.702 208.2 187.802 208.1 188.002 208C188.102 207.9 188.302 207.8 188.302 207.6C188.402 207.4 188.502 207.2 188.602 207C188.602 206.8 188.602 206.6 188.602 206.4C188.502 206.2 188.402 206 188.302 205.8C188.102 205.6 187.902 205.4 187.602 205.2L185.002 203.5L185.602 202.5L190.602 205.7Z" fill="white"/>
<path d="M188.699 198.7L187.899 200.1L190.299 201.4C190.399 201.5 190.599 201.6 190.699 201.6C190.799 201.7 190.999 201.7 191.099 201.7C191.199 201.7 191.399 201.7 191.499 201.6C191.599 201.5 191.699 201.4 191.799 201.2C191.899 201.1 191.899 201 191.999 200.8C191.999 200.7 192.099 200.5 192.099 200.4L192.999 200.9C192.999 201.1 192.999 201.2 192.899 201.4C192.799 201.6 192.799 201.8 192.699 201.9C192.499 202.3 192.299 202.6 191.999 202.7C191.799 202.9 191.599 202.9 191.299 202.9C191.099 202.9 190.799 202.9 190.599 202.8C190.399 202.7 190.199 202.6 189.899 202.5L187.099 201L186.499 202.2L185.599 201.7L186.199 200.5L184.699 199.7L185.199 198.7L186.699 199.5L187.499 198.1L188.699 198.7Z" fill="white"/>
<path d="M191.101 198.5C190.701 198.3 190.401 198.1 190.101 197.8C189.801 197.5 189.601 197.1 189.501 196.8C189.401 196.4 189.301 196 189.301 195.6C189.301 195.2 189.401 194.8 189.601 194.3C189.801 193.8 190.001 193.5 190.401 193.3C190.701 193 191.101 192.8 191.401 192.7C191.801 192.6 192.201 192.5 192.601 192.5C193.001 192.5 193.401 192.6 193.801 192.8C194.201 193 194.501 193.2 194.801 193.5C195.101 193.8 195.301 194.2 195.401 194.5C195.501 194.8 195.601 195.3 195.601 195.7C195.601 196.1 195.501 196.5 195.301 197C195.101 197.4 194.901 197.8 194.501 198C194.201 198.3 193.801 198.5 193.501 198.6C193.101 198.7 192.701 198.8 192.301 198.8C191.901 198.8 191.501 198.7 191.101 198.5ZM191.601 197.4C191.901 197.5 192.201 197.6 192.401 197.6C192.701 197.6 192.901 197.6 193.201 197.5C193.401 197.4 193.701 197.3 193.901 197.1C194.101 196.9 194.301 196.7 194.401 196.4C194.501 196.1 194.601 195.8 194.601 195.6C194.601 195.4 194.601 195.1 194.501 194.9C194.401 194.7 194.301 194.5 194.101 194.3C193.901 194.1 193.701 193.9 193.401 193.8C193.101 193.7 192.801 193.6 192.601 193.6C192.301 193.6 192.101 193.6 191.801 193.7C191.601 193.8 191.301 193.9 191.101 194.1C190.901 194.3 190.701 194.5 190.601 194.8C190.501 195.1 190.401 195.4 190.401 195.6C190.401 195.9 190.401 196.1 190.501 196.3C190.601 196.5 190.701 196.7 190.901 196.9C191.101 197.1 191.401 197.3 191.601 197.4Z" fill="white"/>
<path d="M191.5 190.099L191.9 188.999L192.8 189.299C192.7 189.199 192.6 188.999 192.5 188.899C192.4 188.699 192.4 188.599 192.3 188.399C192.2 188.199 192.3 187.999 192.3 187.799C192.3 187.599 192.4 187.399 192.4 187.199C192.5 186.999 192.5 186.899 192.7 186.699L193.8 187.199C193.7 187.299 193.7 187.399 193.6 187.399C193.6 187.499 193.5 187.599 193.5 187.699C193.3 188.199 193.3 188.699 193.5 189.099C193.7 189.499 194.1 189.799 194.7 189.999L197.5 191.099L197.1 192.199L191.5 190.099Z" fill="white"/>
<defs>
<filter id="filter0_ii" x="0" y="50" width="218" height="218" filterUnits="userSpaceOnUse" color-interpolation-filters="sRGB">
<feFlood flood-opacity="0" result="BackgroundImageFix"/>
<feBlend mode="normal" in="SourceGraphic" in2="BackgroundImageFix" result="shape"/>
<feColorMatrix in="SourceAlpha" type="matrix" values="0 0 0 0 0 0 0 0 0 0 0 0 0 0 0 0 0 0 127 0" result="hardAlpha"/>
<feOffset/>
<feGaussianBlur stdDeviation="4"/>
<feComposite in2="hardAlpha" operator="arithmetic" k2="-1" k3="1"/>
<feColorMatrix type="matrix" values="0 0 0 0 0.9875 0 0 0 0 0.722843 0 0 0 0 0.386771 0 0 0 1 0"/>
<feBlend mode="normal" in2="shape" result="effect1_innerShadow"/>
<feColorMatrix in="SourceAlpha" type="matrix" values="0 0 0 0 0 0 0 0 0 0 0 0 0 0 0 0 0 0 127 0" result="hardAlpha"/>
<feOffset/>
<feGaussianBlur stdDeviation="6"/>
<feComposite in2="hardAlpha" operator="arithmetic" k2="-1" k3="1"/>
<feColorMatrix type="matrix" values="0 0 0 0 0 0 0 0 0 0 0 0 0 0 0 0 0 0 0.2 0"/>
<feBlend mode="normal" in2="effect1_innerShadow" result="effect2_innerShadow"/>
</filter>
<filter id="filter1_i" x="7" y="57" width="204" height="208" filterUnits="userSpaceOnUse" color-interpolation-filters="sRGB">
<feFlood flood-opacity="0" result="BackgroundImageFix"/>
<feBlend mode="normal" in="SourceGraphic" in2="BackgroundImageFix" result="shape"/>
<feColorMatrix in="SourceAlpha" type="matrix" values="0 0 0 0 0 0 0 0 0 0 0 0 0 0 0 0 0 0 127 0" result="hardAlpha"/>
<feOffset dy="4"/>
<feGaussianBlur stdDeviation="10"/>
<feComposite in2="hardAlpha" operator="arithmetic" k2="-1" k3="1"/>
<feColorMatrix type="matrix" values="0 0 0 0 0 0 0 0 0 0 0 0 0 0 0 0 0 0 1 0"/>
<feBlend mode="normal" in2="shape" result="effect1_innerShadow"/>
</filter>
<filter id="filter2_i" x="59" y="109" width="100" height="100" filterUnits="userSpaceOnUse" color-interpolation-filters="sRGB">
<feFlood flood-opacity="0" result="BackgroundImageFix"/>
<feBlend mode="normal" in="SourceGraphic" in2="BackgroundImageFix" result="shape"/>
<feColorMatrix in="SourceAlpha" type="matrix" values="0 0 0 0 0 0 0 0 0 0 0 0 0 0 0 0 0 0 127 0" result="hardAlpha"/>
<feOffset/>
<feGaussianBlur stdDeviation="6"/>
<feComposite in2="hardAlpha" operator="arithmetic" k2="-1" k3="1"/>
<feColorMatrix type="matrix" values="0 0 0 0 0.34902 0 0 0 0 0.360784 0 0 0 0 0.364706 0 0 0 1 0"/>
<feBlend mode="normal" in2="shape" result="effect1_innerShadow"/>
</filter>
<linearGradient id="paint0_linear" x1="51.775" y1="57.4938" x2="322.848" y2="328.729" gradientUnits="userSpaceOnUse">
<stop stop-color="white"/>
<stop offset="1" stop-color="#969696" stop-opacity="0"/>
</linearGradient>
<linearGradient id="paint1_linear" x1="174.52" y1="213.6" x2="38.8" y2="107.52" gradientUnits="userSpaceOnUse">
<stop stop-color="white"/>
<stop offset="1" stop-color="#383838" stop-opacity="0"/>
</linearGradient>
<linearGradient id="paint2_linear" x1="194.68" y1="230.4" x2="17.2" y2="91.68" gradientUnits="userSpaceOnUse">
<stop stop-color="white"/>
<stop offset="1" stop-color="#383838" stop-opacity="0"/>
</linearGradient>
</defs>
</svg>
