<svg width="218" height="268" viewBox="0 0 218 268" fill="none" xmlns="http://www.w3.org/2000/svg">
<path d="M86.0098 29.7979C84.9084 29.7979 84.0273 30.6685 84.0273 31.7568V50.0407C84.0273 51.129 84.9084 51.9997 86.0098 51.9997H131.385C132.487 51.9997 133.368 51.129 133.368 50.0407V31.7568C133.368 30.6685 132.487 29.7979 131.385 29.7979H86.0098ZM129.403 44.1637C129.403 45.2521 128.522 46.1227 127.42 46.1227H90.1949C89.0935 46.1227 88.2125 45.2521 88.2125 44.1637V35.8925C88.2125 34.8041 89.0935 33.9335 90.1949 33.9335H127.42C128.522 33.9335 129.403 34.8041 129.403 35.8925V44.1637Z" fill="#D9B68B"/>
<path d="M140.045 0L114.918 37.8775H127.37L155.388 0H140.045Z" fill="#0FA711"/>
<path d="M127.377 0L102.473 37.8775H114.925L140.052 0H127.377Z" fill="white"/>
<path d="M114.924 0L90.0195 37.8775H102.472L127.376 0H114.924Z" fill="#FF7600"/>
<path d="M90.0177 37.8775H102.47L77.343 0H62L90.0177 37.8775Z" fill="#FF7600"/>
<path d="M102.471 37.8775H114.923L90.0184 0H77.3438L102.471 37.8775Z" fill="white"/>
<path opacity="0.5" d="M110.695 6.28027L104.469 15.6936L119.145 37.8823H127.372L129.596 34.7445L110.695 6.28027Z" fill="#3E4347"/>
<path d="M114.924 37.8775H127.376L102.472 0H90.0195L114.924 37.8775Z" fill="#0FA711"/>
<g filter="url(#filter0_ii)">
<path d="M218 159C218 219.199 169.199 268 109 268C48.801 268 0 219.199 0 159C0 98.801 48.801 50 109 50C169.199 50 218 98.801 218 159Z" fill="#C18A43" fill-opacity="0.7"/>
</g>
<path d="M214.5 159C214.5 217.266 167.266 264.5 109 264.5C50.734 264.5 3.5 217.266 3.5 159C3.5 100.734 50.734 53.5 109 53.5C167.266 53.5 214.5 100.734 214.5 159Z" stroke="#E29435" stroke-width="7"/>
<path d="M214.5 159C214.5 217.266 167.266 264.5 109 264.5C50.734 264.5 3.5 217.266 3.5 159C3.5 100.734 50.734 53.5 109 53.5C167.266 53.5 214.5 100.734 214.5 159Z" stroke="url(#paint0_linear)" stroke-width="7"/>
<path d="M196 159C196 207.049 157.049 246 109 246C60.9512 246 22 207.049 22 159C22 110.951 60.9512 72 109 72C157.049 72 196 110.951 196 159Z" fill="#764B16"/>
<path fill-rule="evenodd" clip-rule="evenodd" d="M109 87C69.2355 87 37 119.235 37 159C37 198.764 69.2355 231 109 231C148.764 231 181 198.764 181 159C181 119.235 148.764 87 109 87ZM7 159C7 102.667 52.667 57 109 57C165.333 57 211 102.667 211 159C211 215.333 165.333 261 109 261C52.667 261 7 215.333 7 159Z" fill="#805726"/>
<path d="M109.001 82C66.5595 82 32 116.357 32 159.001C32 201.645 66.3574 236.002 109.001 236.002C151.645 236.002 186.002 201.645 186.002 159.001C186.002 116.357 151.442 82 109.001 82ZM93.6412 89.4778C93.8433 89.4778 93.8433 89.4778 93.6412 89.4778C95.0559 92.5093 97.6833 94.3282 100.311 93.7219C102.938 93.3177 105.565 91.4988 105.767 87.861C106.172 87.861 106.576 87.861 106.98 87.861C106.98 98.7745 106.172 110.496 104.959 123.229C104.757 124.441 104.757 125.654 104.757 126.867C104.353 125.856 103.948 124.644 103.544 123.229C99.3001 112.517 95.4601 100.998 92.4286 89.6799C93.0349 89.6799 93.237 89.4778 93.6412 89.4778ZM76.0583 95.743C78.2814 98.3703 81.1109 99.3808 83.5361 98.1682C86.3655 96.9556 87.9823 94.1261 87.376 91.0946C87.7802 90.8925 88.1844 90.8925 88.5886 90.6904C91.216 101.2 93.8433 112.72 95.8643 125.452C96.0664 126.867 96.2685 127.877 96.6727 129.09C96.0664 128.079 95.4601 127.069 94.4496 125.856C87.5781 116.559 80.9088 106.454 75.0478 96.3493C75.2499 96.1472 75.6541 95.9451 76.0583 95.743ZM60.4964 106.656C63.3259 108.475 66.3574 108.678 68.3784 107.061C69.9952 105.848 70.8036 104.029 70.8036 102.21C70.8036 101.2 70.6015 100.189 69.9952 99.3808C70.3994 99.1787 70.6015 98.9766 71.0057 98.7745C76.4625 108.071 81.7172 118.783 87.1739 130.302C87.7802 131.515 88.3865 132.526 88.7907 133.536C87.9823 132.728 86.9718 131.919 85.9613 131.111C77.0688 123.633 67.9742 115.549 59.688 107.465C59.8901 107.061 60.2943 106.859 60.4964 106.656ZM48.3703 121.006C48.5724 121.006 48.5724 121.006 48.3703 121.006C51.6039 122.016 54.6355 121.612 56.0502 119.389C56.4544 118.783 57.4649 117.166 57.4649 115.549C57.4649 114.538 57.0607 112.922 55.8481 111.507C56.0502 111.305 56.4544 110.901 56.6565 110.699C64.3364 118.378 72.2184 127.271 80.5046 136.972C81.313 137.982 82.1214 138.791 82.9298 139.599C81.9193 138.993 80.7067 138.589 79.494 137.982C68.9847 133.132 58.0712 127.675 47.764 122.016C47.9661 121.612 48.1682 121.41 48.3703 121.006ZM40.4883 137.982C40.4883 137.982 40.4883 137.78 40.4883 137.982C43.924 138.184 46.5514 136.972 47.5619 134.344C47.764 133.738 47.9661 132.93 47.9661 131.717C47.9661 130.505 47.5619 128.281 45.1367 126.665C45.3388 126.26 45.5409 126.058 45.743 125.654C55.0397 131.111 65.1448 137.578 75.452 144.854C76.4625 145.662 77.6751 146.269 78.4835 146.875C77.473 146.673 76.0583 146.471 74.6436 146.066C63.3259 144.45 51.4018 142.024 39.882 138.993C40.2862 138.791 40.4883 138.387 40.4883 137.982ZM37.2547 156.374C37.2547 156.374 37.2547 156.172 37.2547 156.374C40.4883 155.767 42.9135 153.746 43.1156 151.119C43.1156 150.917 43.1156 150.715 43.1156 150.311C43.1156 147.885 41.903 145.258 38.8715 144.248C38.8715 143.843 39.0736 143.439 39.0736 143.035C49.5829 145.864 60.9006 149.704 72.8247 153.948C74.0373 154.353 75.2499 154.757 76.2604 154.959C75.0478 154.959 73.8352 155.161 72.4205 155.161C61.1027 156.576 48.7745 157.182 37.0526 157.384C37.2547 157.182 37.2547 156.778 37.2547 156.374ZM38.8715 175.169C38.8715 174.967 38.8715 174.967 38.8715 175.169C41.4988 173.754 43.1156 171.733 43.1156 169.308C43.1156 169.106 43.1156 168.702 43.1156 168.5C42.7114 165.872 40.8925 163.245 37.2547 163.043C37.2547 162.639 37.2547 162.235 37.2547 161.83C48.1682 161.83 59.8901 162.437 72.6226 163.447C74.0373 163.649 75.2499 163.649 76.2604 163.649C75.2499 164.054 74.0373 164.458 72.6226 164.862C61.9111 169.106 50.3913 172.946 39.0736 176.18C39.0736 175.978 39.0736 175.573 38.8715 175.169ZM45.3387 192.752C45.3387 192.752 45.3387 192.55 45.3387 192.752C47.1577 191.135 48.1682 189.316 48.1682 187.295C48.1682 186.487 47.9661 185.881 47.764 185.274C46.7535 182.849 44.3282 180.828 40.6904 181.636C40.4883 181.232 40.4883 180.828 40.2862 180.424C50.7955 177.594 62.3153 175.169 74.8457 172.946C76.2604 172.744 77.2709 172.34 78.4835 172.138C77.473 172.744 76.4625 173.35 75.2499 174.361C65.9532 181.232 55.8481 187.902 45.743 193.965C45.743 193.358 45.5409 193.156 45.3387 192.752ZM56.2523 208.112C57.2628 206.495 57.667 205.08 57.667 203.463C57.667 202.251 57.2628 201.038 56.4544 200.23C54.8376 198.209 51.806 196.794 48.5724 198.411C48.3703 198.007 48.1682 197.805 47.9661 197.4C57.2628 191.944 67.9742 186.487 79.494 181.03C80.7067 180.424 81.7172 179.818 82.7277 179.413C81.9193 180.222 81.1109 181.232 80.3024 182.243C73.2289 191.337 65.1448 200.432 57.0607 208.92C56.8586 208.718 56.4544 208.516 56.2523 208.112ZM70.6015 220.036C70.8036 218.823 71.0057 217.813 71.0057 216.802C71.0057 214.781 70.1973 213.164 68.7826 212.356C66.7616 210.941 63.528 210.133 60.9006 212.76C60.4964 212.558 60.2943 212.154 60.0922 211.952C67.7721 204.272 76.4625 196.188 86.1634 188.104C87.1739 187.295 87.9823 186.487 88.7907 185.678C88.1844 186.689 87.7802 187.902 87.1739 189.114C82.7277 199.624 77.473 210.537 71.612 220.642C71.4099 220.44 71.0057 220.238 70.6015 220.036ZM87.5781 227.918C87.7802 224.482 86.3655 221.855 83.9403 220.844C81.5151 220.036 78.2814 220.238 76.2604 223.27C75.8562 223.067 75.6541 222.865 75.2499 222.663C80.7066 213.367 86.9718 203.261 94.2475 192.752C95.0559 191.539 95.6622 190.529 96.2685 189.721C96.0664 190.731 95.8643 192.146 95.4601 193.56C93.8433 204.878 91.4181 216.802 88.5886 228.322C88.3865 228.12 87.9823 228.12 87.5781 227.918ZM105.969 230.949C105.363 227.716 103.342 225.291 100.715 225.088C98.0874 224.886 95.0559 225.897 94.0454 229.333C93.6412 229.333 93.237 229.13 92.8328 229.13C95.6622 218.621 99.3001 207.303 103.544 195.379C103.948 194.167 104.353 192.954 104.555 191.944C104.555 193.156 104.757 194.369 104.757 195.784C106.172 207.101 106.98 219.43 107.182 231.151C106.778 231.151 106.374 231.151 105.969 230.949ZM178.928 144.45C176.301 145.864 174.482 147.885 174.482 150.311C174.482 150.513 174.482 150.917 174.482 151.119C174.886 153.746 176.705 156.374 180.343 156.576C180.343 156.98 180.343 157.384 180.343 157.788C169.632 157.788 157.708 156.98 144.975 155.767C143.56 155.565 142.348 155.565 141.337 155.565C142.348 155.161 143.56 154.757 144.975 154.353C155.687 150.108 167.206 146.269 178.524 143.237C178.726 143.641 178.726 144.045 178.928 144.45ZM172.663 126.867C172.663 126.867 172.663 127.069 172.663 126.867C170.844 128.484 169.834 130.302 169.834 132.323C169.834 133.132 170.036 133.738 170.238 134.344C171.248 136.77 173.674 138.791 177.312 138.184C177.514 138.589 177.514 138.993 177.716 139.397C167.206 142.024 155.485 144.45 142.954 146.673C141.539 146.875 140.529 147.077 139.316 147.481C140.327 146.875 141.337 146.269 142.55 145.46C151.847 138.387 161.952 131.717 172.057 125.856C172.259 126.26 172.461 126.463 172.663 126.867ZM162.154 111.709C161.143 113.326 160.537 114.943 160.537 116.357C160.537 117.57 160.941 118.783 161.75 119.591C163.366 121.612 166.196 123.027 169.43 121.41C169.632 121.814 169.834 122.016 170.036 122.42C160.537 127.675 150.028 133.132 138.306 138.184C137.093 138.791 136.083 139.195 135.072 139.801C135.881 138.993 136.689 137.982 137.7 136.972C144.975 128.079 153.059 118.985 161.345 110.699C161.548 111.103 161.952 111.305 162.154 111.709ZM147.603 99.1787C147.603 99.1787 147.805 99.3808 147.603 99.1787C147.4 100.391 146.996 101.402 146.996 102.412C146.996 104.231 147.805 105.848 149.219 106.859C151.24 108.273 154.474 109.082 157.101 106.656C157.303 106.859 157.708 107.263 157.91 107.465C150.23 115.145 141.337 123.027 131.434 131.111C130.424 131.919 129.413 132.728 128.807 133.536C129.413 132.526 129.818 131.515 130.424 130.1C135.072 119.591 140.529 108.678 146.39 98.5724C146.996 98.7745 147.198 98.9766 147.603 99.1787ZM130.626 91.2967C130.828 91.2967 130.828 91.2967 130.626 91.2967C130.424 94.7324 131.839 97.3598 134.264 98.3703C136.689 99.3808 139.923 99.1787 141.944 95.9451C142.348 96.1472 142.55 96.3493 142.954 96.5514C137.497 105.848 131.03 115.751 123.552 126.26C122.744 127.271 122.138 128.281 121.531 129.292C121.733 128.281 122.138 126.867 122.34 125.452C124.159 114.134 126.584 102.21 129.413 90.8925C130.02 90.8925 130.222 91.0946 130.626 91.2967ZM112.437 87.861C112.437 87.861 112.639 87.861 112.437 87.861C113.043 91.0946 115.064 93.5198 117.691 93.7219C120.319 93.924 123.35 92.9135 124.563 89.4778C124.967 89.4778 125.371 89.6799 125.775 89.6799C122.946 100.189 119.106 111.507 114.66 123.229C114.256 124.441 113.851 125.654 113.447 126.665C113.447 125.452 113.245 124.239 113.245 122.825C112.033 111.507 111.224 99.1787 111.224 87.4568C111.628 87.861 112.033 87.861 112.437 87.861ZM124.361 229.333C122.744 226.301 120.319 224.684 117.691 225.088C115.064 225.493 112.437 227.312 112.235 230.949C111.83 230.949 111.426 230.949 111.022 230.949C111.022 220.036 111.628 208.314 112.841 195.581C113.043 194.369 113.043 193.358 113.043 192.348C113.043 192.146 113.043 192.146 113.043 191.944C113.447 192.954 113.851 194.167 114.256 195.581C118.5 206.293 122.34 217.813 125.573 229.13C125.169 229.333 124.765 229.333 124.361 229.333ZM141.742 223.067C141.742 223.067 141.539 223.067 141.742 223.067C139.518 220.44 136.689 219.43 134.264 220.642C131.434 221.855 129.818 224.684 130.626 227.716C130.222 227.918 129.818 227.918 129.413 228.12C126.584 217.611 124.159 206.091 122.138 193.56C121.936 192.146 121.733 191.135 121.329 189.923C121.936 190.933 122.542 191.944 123.552 193.156C130.424 202.453 137.093 212.558 142.954 222.663C142.348 222.865 142.146 222.865 141.742 223.067ZM157.303 212.154C157.303 212.356 157.303 212.356 157.303 212.154C154.474 210.335 151.442 210.133 149.421 211.75C147.805 212.962 146.996 214.781 146.996 216.6C146.996 217.611 147.198 218.621 147.805 219.43C147.4 219.632 147.198 219.834 146.794 220.036C141.337 210.739 135.881 200.028 130.626 188.508C130.02 187.295 129.413 186.285 129.009 185.274C129.818 186.083 130.828 186.891 131.839 187.699C140.933 194.773 150.028 202.857 158.314 211.143C157.91 211.75 157.708 211.952 157.303 212.154ZM169.227 198.007C169.227 198.007 169.227 198.209 169.227 198.007C165.994 196.996 162.962 197.4 161.548 199.624C161.143 200.23 160.133 201.847 160.133 203.463C160.133 204.474 160.537 206.091 161.75 207.506C161.548 207.708 161.143 208.112 160.941 208.314C153.261 200.634 145.379 191.742 137.295 182.041C136.487 181.03 135.678 180.02 134.87 179.413C135.881 180.02 137.093 180.424 138.306 181.03C148.815 185.678 159.729 191.135 170.036 196.794C169.632 197.4 169.43 197.603 169.227 198.007ZM177.109 181.03C177.109 181.232 177.109 181.232 177.109 181.03C173.674 180.828 171.046 182.041 170.036 184.668C169.834 185.274 169.632 186.083 169.632 187.295C169.632 188.508 170.036 190.731 172.461 192.348C172.259 192.752 172.057 192.954 171.855 193.358C162.558 187.902 152.453 181.434 142.146 174.159C141.135 173.35 139.923 172.744 139.114 172.138C140.125 172.34 141.539 172.744 142.954 172.946C154.272 174.563 166.196 176.988 177.514 180.02C177.312 180.424 177.312 180.828 177.109 181.03ZM180.343 162.841C177.109 163.447 174.684 165.266 174.482 167.893C174.482 168.096 174.482 168.298 174.482 168.702C174.482 171.127 175.695 173.754 178.726 174.765C178.726 175.169 178.524 175.573 178.524 175.978C168.015 173.148 156.697 169.51 144.773 165.064C143.56 164.66 142.348 164.256 141.337 164.054C142.55 164.054 143.763 163.851 145.177 163.851C156.495 162.639 168.823 161.83 180.545 161.83C180.545 162.033 180.343 162.437 180.343 162.841Z" fill="#D9B68B"/>
<circle cx="109" cy="159" r="77" stroke="url(#paint1_linear)" stroke-width="2"/>
<circle cx="109" cy="159" r="101" stroke="url(#paint2_linear)" stroke-width="2"/>
<g filter="url(#filter1_i)">
<circle cx="109" cy="159" r="50" fill="#805726"/>
</g>
<path fill-rule="evenodd" clip-rule="evenodd" d="M83.168 135.786V134H112.692V162.571H83.168V135.786ZM97.161 152.75L93.2143 148.931L87.2685 157.214H92.3942H93.8718H101.988H103.466H110.026L102.645 142.829L97.161 152.75ZM131.144 159H116.382V155.429H134.835V184H105.311V166.143H109.001V180.429H131.144V159ZM127.96 164.525V161.731H120.929V164.525H122.626V169.84H119.165C118.739 169.458 118.218 169.216 117.601 169.117C118.335 168.884 118.901 168.46 119.298 167.844C119.694 167.229 119.893 166.488 119.893 165.623C119.893 164.359 119.511 163.369 118.747 162.654C117.983 161.922 116.895 161.556 115.485 161.556C114.5 161.556 113.648 161.714 112.928 162.03V165.199C113.721 164.783 114.493 164.575 115.242 164.575C116.271 164.575 116.785 165.074 116.785 166.072C116.785 167.104 116.175 167.619 114.956 167.619H114.272V170.564H115.176C115.97 170.564 116.513 170.722 116.807 171.038C117.116 171.354 117.27 171.778 117.27 172.31C117.27 173.708 116.623 174.406 115.33 174.406C114.375 174.406 113.427 174.124 112.487 173.558V176.802C113.413 177.168 114.412 177.351 115.485 177.351C117.072 177.351 118.262 176.935 119.055 176.103C119.863 175.271 120.267 174.19 120.267 172.859V172.685H122.626V178.474H125.756V164.525H127.96Z" fill="#FFE4C1"/>
<path d="M56.6 93.8996L51 86.7996L53.3 84.9996C54.1 84.3996 54.8 84.0996 55.4 84.0996C56 84.0996 56.6 84.3996 57.1 85.0996C57.4 85.3996 57.5 85.7996 57.5 86.1996C57.5 86.5996 57.4 86.9996 57.2 87.3996C57.7 87.1996 58.1 87.1996 58.6 87.2996C59.1 87.3996 59.5 87.6996 59.8 88.0996C60.3 88.6996 60.5 89.3996 60.4 90.0996C60.3 90.7996 59.8 91.3996 59.1 91.9996L56.6 93.8996ZM54.3 88.9996L55.7 87.8996C56.1 87.5996 56.4 87.1996 56.4 86.7996C56.5 86.3996 56.4 85.9996 56.1 85.6996C55.8 85.2996 55.5 85.0996 55.1 85.0996C54.7 85.0996 54.3 85.2996 53.8 85.5996L52.4 86.6996L54.3 88.9996ZM54.9 89.7996L56.9 92.3996L58.5 91.1996C58.9 90.8996 59.2 90.4996 59.3 89.9996C59.4 89.4996 59.3 89.1996 58.9 88.7996C58.2 87.8996 57.4 87.8996 56.5 88.5996L54.9 89.7996Z" fill="white"/>
<path d="M60.1992 83.8002C60.2992 83.0002 60.6992 82.4002 61.3992 81.9002C62.5992 81.1002 63.5992 81.4002 64.4992 82.7002L66.8992 86.4002L65.8992 87.0002L63.4992 83.3002C63.1992 82.9002 62.8992 82.7002 62.5992 82.6002C62.2992 82.5002 61.8992 82.6002 61.5992 82.9002C61.2992 83.1002 61.0992 83.4002 60.8992 83.7002C60.7992 84.0002 60.6992 84.4002 60.7992 84.7002L63.3992 88.7002L62.3992 89.3002L57.1992 81.3002L58.1992 80.7002L60.1992 83.8002Z" fill="white"/>
<path d="M71.6984 83.7994C71.5984 83.6994 71.3984 83.4994 71.1984 83.2994C70.9984 83.9994 70.5984 84.5993 69.8984 84.9993C69.2984 85.2993 68.6984 85.3994 68.1984 85.2994C67.5984 85.1994 67.1984 84.8993 66.9984 84.3993C66.6984 83.7993 66.5984 83.1994 66.8984 82.5994C67.1984 81.9994 67.6984 81.4993 68.5984 80.9993L69.5984 80.4993L69.2984 79.9993C69.0984 79.5993 68.7984 79.3994 68.4984 79.2994C68.1984 79.1994 67.7984 79.2993 67.3984 79.4993C66.9984 79.6993 66.7984 79.9994 66.5984 80.2994C66.4984 80.5994 66.4984 80.8993 66.5984 81.1993L65.5984 81.7994C65.3984 81.4994 65.3984 81.1994 65.3984 80.7994C65.4984 80.3994 65.5984 79.9993 65.8984 79.6993C66.1984 79.2993 66.4984 78.9994 66.9984 78.7994C67.6984 78.3994 68.2984 78.2993 68.8984 78.3993C69.4984 78.4993 69.8984 78.8993 70.2984 79.4993L71.7984 82.1993C72.0984 82.6993 72.3984 83.0993 72.6984 83.3993V83.4993L71.6984 83.7994ZM69.5984 83.8993C69.8984 83.6993 70.1984 83.4993 70.3984 83.1993C70.5984 82.8993 70.6984 82.5993 70.6984 82.1993L69.9984 80.9993L69.1984 81.3993C67.9984 82.0993 67.4984 82.7993 67.8984 83.4993C68.0984 83.7993 68.2984 83.9994 68.5984 84.0994C68.8984 84.1994 69.2984 84.0993 69.5984 83.8993Z" fill="white"/>
<path d="M76.6995 79.4001C76.5995 79.1001 76.3995 78.9001 76.0995 78.9001C75.7995 78.8001 75.3995 78.9001 74.7995 79.0001C74.1995 79.1001 73.6995 79.2001 73.2995 79.2001C72.8995 79.2001 72.5995 79.1001 72.3995 78.9001C72.1995 78.7001 71.9995 78.5001 71.7995 78.2001C71.5995 77.7001 71.5995 77.2001 71.8995 76.6001C72.1995 76.0001 72.5995 75.6002 73.2995 75.3002C73.9995 75.0002 74.5995 74.9001 75.1995 75.1001C75.7995 75.3001 76.1995 75.6001 76.4995 76.2001L75.3995 76.7001C75.2995 76.4001 74.9995 76.2001 74.6995 76.1001C74.3995 76.0001 73.9995 76.0001 73.5995 76.2001C73.1995 76.4001 72.9995 76.6001 72.7995 76.9001C72.6995 77.2001 72.6995 77.4001 72.7995 77.7001C72.8995 78.0001 73.0995 78.1001 73.3995 78.1001C73.6995 78.1001 74.0995 78.1001 74.6995 78.0001C75.2995 77.9001 75.7995 77.8002 76.1995 77.8002C76.5995 77.8002 76.8995 77.9001 77.1995 78.1001C77.4995 78.3001 77.6995 78.5002 77.7995 78.8002C77.9995 79.3002 77.9995 79.9001 77.6995 80.4001C77.3995 80.9001 76.8995 81.4001 76.1995 81.7001C75.6995 81.9001 75.1995 82.0001 74.7995 82.0001C74.2995 82.0001 73.8995 81.9001 73.5995 81.7001C73.1995 81.5001 72.9995 81.2002 72.7995 80.8002L73.7995 80.3002C73.9995 80.6002 74.1995 80.9001 74.5995 80.9001C74.9995 80.9001 75.3995 80.9001 75.7995 80.7001C76.1995 80.5001 76.4995 80.3001 76.5995 80.0001C76.7995 79.9001 76.7995 79.7001 76.6995 79.4001Z" fill="white"/>
<path d="M78.6016 74.2002C78.9016 73.4002 79.4016 72.9002 80.2016 72.6002C81.5016 72.1002 82.5016 72.6002 83.0016 74.1002L84.5016 78.3002L83.4016 78.7002L81.9016 74.5002C81.7016 74.0002 81.5016 73.7002 81.2016 73.6002C80.9016 73.5002 80.6016 73.5002 80.1016 73.6002C79.7016 73.7002 79.5016 73.9002 79.3016 74.2002C79.1016 74.5002 79.0016 74.8002 78.9016 75.2002L80.5016 79.7002L79.4016 80.1002L76.1016 71.1002L77.2016 70.7002L78.6016 74.2002Z" fill="white"/>
<path d="M83.5015 69.6999C83.4015 69.4999 83.5015 69.3999 83.5015 69.1999C83.5015 68.9999 83.7015 68.8999 83.9015 68.8999C84.1015 68.8999 84.3015 68.7999 84.4015 68.8999C84.5015 68.9999 84.6015 69.0999 84.7015 69.2999C84.8015 69.4999 84.7015 69.5999 84.7015 69.7999C84.6015 69.9999 84.5015 70.0999 84.3015 70.0999C84.1015 70.0999 83.9015 70.1999 83.8015 70.0999C83.6015 69.9999 83.5015 69.8999 83.5015 69.6999ZM87.1015 77.4999L86.0015 77.7999L84.1015 71.2999L85.2015 70.9999L87.1015 77.4999Z" fill="white"/>
<path d="M88.0984 70.3L88.2984 71.1C88.6984 70.4 89.1984 69.9 89.9984 69.7C91.3984 69.4 92.2984 70 92.6984 71.5L93.6984 75.8L92.5984 76.1L91.5984 71.8C91.4984 71.3 91.2984 71 90.9984 70.8C90.6984 70.6 90.3984 70.6 89.8984 70.7C89.4984 70.8 89.1984 71 88.9984 71.2C88.7984 71.5 88.5984 71.8 88.4984 72.1L89.5984 76.8L88.4984 77.1L86.8984 70.5L88.0984 70.3Z" fill="white"/>
<path d="M93.8008 67.2004C93.8008 67.0004 93.8008 66.9004 93.9008 66.7004C94.0008 66.6004 94.1008 66.5004 94.4008 66.4004C94.6008 66.4004 94.8008 66.4004 94.9008 66.5004C95.0008 66.6004 95.1008 66.8004 95.2008 66.9004C95.2008 67.1004 95.2008 67.2004 95.1008 67.4004C95.0008 67.6004 94.9008 67.6004 94.6008 67.7004C94.4008 67.7004 94.2008 67.7004 94.1008 67.6004C94.0008 67.5004 93.8008 67.4004 93.8008 67.2004ZM96.5008 75.4004L95.4008 75.6004L94.2008 69.0004L95.3008 68.8004L96.5008 75.4004Z" fill="white"/>
<path d="M100.602 69.8996C100.602 69.4996 100.602 69.1996 100.902 68.9996C101.102 68.6996 101.402 68.5996 101.802 68.5996C102.202 68.5996 102.502 68.5996 102.802 68.7996C103.102 68.9996 103.202 69.2996 103.202 69.6996V69.8996C103.202 70.2996 103.202 70.5996 102.902 70.7996C102.702 70.9996 102.402 71.1996 102.002 71.1996C101.602 71.1996 101.302 71.1996 101.002 70.8996C100.702 70.5996 100.602 70.3996 100.602 69.9996V69.8996Z" fill="white"/>
<path d="M108.199 74.1L108.299 65H110.899C111.699 65 112.399 65.2 112.999 65.6C113.599 66 114.099 66.5 114.399 67.1C114.699 67.7 114.899 68.5 114.899 69.3V69.9C114.899 70.8 114.699 71.5 114.399 72.1C114.099 72.7 113.599 73.2 112.999 73.6C112.399 73.9 111.699 74.1 110.899 74.1H108.199ZM109.499 66L109.399 73.1H110.699C111.599 73.1 112.299 72.8 112.899 72.3C113.399 71.7 113.699 70.9 113.699 69.9V69.4C113.699 68.4 113.499 67.6 112.999 67C112.499 66.4 111.799 66.1 110.999 66.1L109.499 66Z" fill="white"/>
<path d="M118.799 74.6C117.899 74.5 117.199 74.2 116.699 73.5C116.199 72.9 115.999 72 116.099 71V70.8C116.199 70.1 116.299 69.6 116.599 69C116.899 68.4 117.299 68.1 117.799 67.9C118.299 67.6 118.799 67.5 119.299 67.6C120.199 67.7 120.799 68 121.299 68.6C121.699 69.2 121.899 70.1 121.799 71.1V71.6L117.299 71.2C117.299 71.9 117.399 72.4 117.699 72.9C117.999 73.4 118.499 73.6 119.099 73.6C119.499 73.6 119.899 73.6 120.199 73.4C120.499 73.2 120.799 73.1 120.999 72.8L121.699 73.4C120.799 74.4 119.899 74.7 118.799 74.6ZM119.199 68.6C118.699 68.6 118.299 68.7 117.999 69C117.699 69.3 117.399 69.8 117.299 70.4L120.699 70.7V70.6C120.699 70 120.599 69.5 120.299 69.2C120.099 68.8 119.699 68.6 119.199 68.6Z" fill="white"/>
<path d="M124.8 72.1004L124 72.7004L123.6 75.0004L122.5 74.8004L124 65.4004L125.1 65.6004L124.2 71.3004L124.9 70.7004L127.3 68.9004L128.7 69.1004L125.7 71.5004L128 75.8004L126.7 75.6004L124.8 72.1004Z" fill="white"/>
<path d="M131.002 70.4002C131.602 69.9002 132.402 69.8002 133.202 70.0002C134.602 70.3002 135.102 71.3002 134.702 72.9002L133.602 77.2002L132.502 76.9002L133.602 72.6002C133.702 72.1002 133.702 71.8002 133.502 71.5002C133.302 71.2002 133.002 71.0002 132.602 70.9002C132.202 70.8002 131.902 70.8002 131.602 71.0002C131.302 71.1002 131.002 71.3002 130.802 71.6002L129.702 76.3002L128.602 76.0002L130.902 66.7002L132.002 67.0002L131.002 70.4002Z" fill="white"/>
<path d="M135.699 74.2C135.899 73.6 136.199 73.0001 136.599 72.6001C136.999 72.2001 137.499 71.9001 137.999 71.8001C138.499 71.7001 139.099 71.7 139.599 71.9C140.499 72.2 141.099 72.7 141.399 73.5C141.699 74.3 141.699 75.2 141.399 76.2V76.3001C141.199 76.9001 140.899 77.4 140.499 77.9C140.099 78.3 139.599 78.6 139.099 78.7C138.599 78.8 137.999 78.8001 137.399 78.6001C136.499 78.3001 135.899 77.8 135.599 77C135.299 76.2 135.399 75.2 135.699 74.2ZM136.799 74.7C136.599 75.4 136.499 76.0001 136.699 76.6001C136.899 77.1001 137.299 77.5 137.799 77.7C138.399 77.9 138.899 77.8 139.299 77.5C139.799 77.2 140.099 76.6001 140.399 75.8001C140.599 75.1001 140.699 74.5 140.499 73.9C140.299 73.4 139.899 73.0001 139.399 72.8001C138.899 72.6001 138.399 72.7 137.899 73C137.399 73.3 136.999 73.9 136.799 74.7Z" fill="white"/>
<path d="M145.702 81.5002L144.602 81.0002L148.302 72.7002L149.402 73.2002L145.702 81.5002Z" fill="white"/>
<path d="M151.301 76.6998L150.901 77.4998C151.701 77.1998 152.401 77.1998 153.101 77.5998C154.401 78.2998 154.601 79.2998 153.901 80.6998L151.901 84.6998L150.901 84.1998L152.901 80.1998C153.101 79.7998 153.201 79.3998 153.101 79.0998C153.001 78.7998 152.801 78.4998 152.401 78.2998C152.101 78.0998 151.701 78.0998 151.401 78.0998C151.101 78.0998 150.701 78.2998 150.501 78.4998L148.301 82.7998L147.301 82.2998L150.401 76.2998L151.301 76.6998Z" fill="white"/>
<path d="M154.698 82.3C155.198 81.4 155.898 80.8 156.598 80.6C157.298 80.3 158.098 80.4 158.698 80.8C159.398 81.2 159.798 81.8 159.898 82.5L161.698 79.5L162.698 80.1L157.698 88.2L156.798 87.6L157.098 87C156.398 87.2 155.698 87.1 154.998 86.7C154.298 86.3 153.998 85.7 153.898 84.9C153.898 84.1 154.098 83.2 154.698 82.3ZM155.598 83C155.198 83.7 154.998 84.2 155.098 84.8C155.098 85.3 155.398 85.7 155.898 86C156.498 86.4 157.098 86.4 157.798 86L159.398 83.4C159.398 82.7 159.198 82.1 158.598 81.8C158.098 81.5 157.598 81.5 157.098 81.7C156.598 81.8 156.098 82.3 155.598 83Z" fill="white"/>
<path d="M160.002 89.8002L159.102 89.1002L163.002 83.6002L163.902 84.3002L160.002 89.8002ZM163.902 82.1002C164.002 81.9002 164.102 81.9002 164.302 81.8002C164.502 81.7002 164.602 81.8002 164.802 81.9002C165.002 82.0002 165.102 82.2002 165.102 82.4002C165.102 82.6002 165.102 82.7002 165.002 82.9002C164.902 83.1002 164.802 83.1002 164.602 83.2002C164.402 83.2002 164.302 83.2002 164.102 83.1002C163.902 83.0002 163.802 82.8002 163.802 82.7002C163.802 82.4002 163.802 82.2002 163.902 82.1002Z" fill="white"/>
<path d="M164.601 93.2996C164.601 93.1996 164.701 92.8996 164.901 92.5996C164.101 92.6996 163.501 92.4996 162.901 92.0996C162.401 91.6996 162.101 91.1996 162.001 90.5996C161.901 89.9996 162.001 89.4996 162.401 89.0996C162.801 88.4996 163.401 88.2996 164.001 88.2996C164.701 88.2996 165.401 88.5996 166.101 89.1996L167.001 89.8996L167.301 89.4996C167.501 89.1996 167.701 88.8996 167.601 88.4996C167.601 88.1996 167.401 87.7996 167.001 87.5996C166.701 87.2996 166.301 87.1996 166.001 87.1996C165.701 87.1996 165.401 87.2996 165.201 87.4996L164.301 86.7996C164.501 86.4996 164.801 86.3996 165.201 86.2996C165.601 86.1996 166.001 86.1996 166.401 86.2996C166.801 86.3996 167.201 86.5996 167.601 86.8996C168.201 87.3996 168.601 87.8996 168.701 88.4996C168.801 89.0996 168.701 89.5996 168.201 90.1996L166.301 92.5996C165.901 93.0996 165.701 93.4996 165.601 93.8996L165.501 93.9996L164.601 93.2996ZM163.701 91.3996C164.001 91.5996 164.301 91.7996 164.701 91.7996C165.101 91.8996 165.401 91.7996 165.701 91.6996L166.601 90.5996L165.901 89.9996C164.801 89.0996 164.001 88.9996 163.501 89.6996C163.301 89.9996 163.201 90.2996 163.301 90.5996C163.201 90.8996 163.401 91.1996 163.701 91.3996Z" fill="white"/>
<path d="M21 188.8L29.5 185.6L30.5 188.4C30.8 189.3 30.9 190.1 30.7 190.7C30.5 191.3 30 191.8 29.3 192C28.9 192.1 28.5 192.2 28.1 192.1C27.7 192 27.4 191.8 27 191.4C27 191.9 26.9 192.4 26.7 192.8C26.4 193.2 26.1 193.5 25.6 193.7C24.8 194 24.1 194 23.5 193.6C22.9 193.3 22.4 192.7 22.1 191.7L21 188.8ZM25.4 188.5L22.3 189.6L23 191.5C23.2 192 23.5 192.4 23.9 192.6C24.3 192.8 24.7 192.8 25.2 192.6C26.2 192.2 26.5 191.5 26.1 190.4L25.4 188.5ZM26.3 188.1L26.9 189.8C27.1 190.3 27.4 190.6 27.7 190.8C28.1 191 28.4 191 28.9 190.9C29.4 190.7 29.7 190.5 29.8 190.1C29.9 189.7 29.9 189.3 29.7 188.7L29 187.1L26.3 188.1Z" fill="white"/>
<path d="M29.7984 194.9C30.5984 195.1 31.1984 195.6 31.4984 196.3C32.0984 197.6 31.6984 198.6 30.1984 199.3L26.1984 201.2L25.6984 200.2L29.6984 198.3C30.0984 198.1 30.3984 197.8 30.4984 197.5C30.5984 197.2 30.5984 196.8 30.3984 196.4C30.1984 196.1 29.9984 195.8 29.6984 195.6C29.3984 195.4 29.0984 195.3 28.6984 195.3L24.3984 197.4L23.8984 196.4L32.5984 192.3L33.0984 193.3L29.7984 194.9Z" fill="white"/>
<path d="M29.2016 206.7C29.3016 206.6 29.5016 206.4 29.7016 206.2C29.0016 206 28.4016 205.6 28.0016 205C27.7016 204.4 27.6016 203.9 27.7016 203.3C27.8016 202.7 28.1016 202.3 28.6016 202C29.2016 201.7 29.8016 201.6 30.4016 201.9C31.0016 202.2 31.5016 202.7 32.0016 203.6L32.6016 204.6L33.1016 204.3C33.4016 204.1 33.7016 203.8 33.8016 203.5C33.9016 203.2 33.8016 202.8 33.6016 202.4C33.4016 202 33.1016 201.8 32.8016 201.7C32.5016 201.6 32.2016 201.6 31.9016 201.7L31.3016 200.7C31.6016 200.5 31.9016 200.5 32.3016 200.5C32.7016 200.6 33.1016 200.7 33.4016 201C33.8016 201.3 34.1016 201.6 34.3016 202C34.7016 202.7 34.8016 203.3 34.7016 203.9C34.6016 204.5 34.2016 204.9 33.6016 205.3L30.9016 206.8C30.4016 207.1 30.0016 207.4 29.7016 207.7H29.6016L29.2016 206.7ZM29.1016 204.6C29.3016 204.9 29.5016 205.2 29.9016 205.4C30.3016 205.6 30.6016 205.7 30.9016 205.6L32.0016 204.9L31.6016 204.1C30.9016 202.9 30.2016 202.5 29.5016 202.9C29.2016 203.1 29.0016 203.3 28.9016 203.6C28.8016 203.9 28.9016 204.3 29.1016 204.6Z" fill="white"/>
<path d="M34.6016 211.6C34.9016 211.4 35.0016 211.2 35.0016 210.9C35.0016 210.6 34.9016 210.2 34.7016 209.6C34.5016 209 34.3016 208.6 34.3016 208.2C34.3016 207.8 34.3016 207.5 34.4016 207.2C34.5016 206.9 34.7016 206.7 35.0016 206.5C35.5016 206.2 36.0016 206.1 36.6016 206.3C37.2016 206.5 37.7016 206.9 38.1016 207.5C38.5016 208.1 38.7016 208.8 38.7016 209.4C38.6016 210 38.4016 210.5 37.8016 210.8L37.2016 209.8C37.5016 209.6 37.6016 209.4 37.6016 209C37.6016 208.7 37.5016 208.3 37.3016 208C37.1016 207.7 36.8016 207.4 36.5016 207.3C36.2016 207.2 36.0016 207.2 35.7016 207.4C35.5016 207.6 35.4016 207.8 35.4016 208C35.4016 208.3 35.5016 208.7 35.7016 209.2C35.9016 209.7 36.1016 210.2 36.1016 210.6C36.2016 211 36.1016 211.3 36.0016 211.6C35.9016 211.9 35.7016 212.1 35.4016 212.3C34.9016 212.6 34.4016 212.7 33.8016 212.5C33.2016 212.3 32.7016 211.9 32.3016 211.3C32.0016 210.9 31.8016 210.4 31.7016 210C31.6016 209.5 31.7016 209.1 31.8016 208.7C32.0016 208.3 32.2016 208 32.5016 207.8L33.1016 208.8C32.8016 209 32.6016 209.3 32.6016 209.7C32.6016 210.1 32.7016 210.4 33.0016 210.8C33.2016 211.2 33.5016 211.4 33.8016 211.5C34.0016 211.8 34.3016 211.8 34.6016 211.6Z" fill="white"/>
<path d="M40.1984 212.3C40.9984 212.3 41.6984 212.6 42.1984 213.3C43.0984 214.4 42.8984 215.5 41.6984 216.5L38.1984 219.3L37.4984 218.4L40.9984 215.6C41.3984 215.3 41.5984 215 41.5984 214.7C41.5984 214.4 41.4984 214 41.1984 213.7C40.9984 213.4 40.6984 213.2 40.3984 213.1C40.0984 213 39.6984 213 39.3984 213.1L35.5984 216.1L34.8984 215.2L42.3984 209.2L43.0984 210.1L40.1984 212.3Z" fill="white"/>
<path d="M42.3016 223.8C42.4016 223.7 42.5016 223.5 42.7016 223.2C41.9016 223.2 41.3016 222.9 40.8016 222.4C40.3016 221.9 40.1016 221.4 40.1016 220.8C40.1016 220.2 40.3016 219.8 40.7016 219.4C41.2016 218.9 41.8016 218.7 42.4016 218.9C43.0016 219 43.7016 219.4 44.4016 220.2L45.2016 221L45.6016 220.6C45.9016 220.3 46.0016 220 46.1016 219.7C46.2016 219.4 46.0016 219 45.6016 218.7C45.3016 218.4 45.0016 218.2 44.7016 218.2C44.4016 218.1 44.1016 218.2 43.9016 218.4L43.1016 217.6C43.3016 217.4 43.7016 217.2 44.1016 217.2C44.5016 217.2 44.9016 217.2 45.3016 217.4C45.7016 217.6 46.1016 217.8 46.4016 218.2C46.9016 218.8 47.2016 219.3 47.2016 219.9C47.2016 220.5 47.0016 221 46.5016 221.5L44.2016 223.6C43.7016 224 43.4016 224.4 43.3016 224.8L43.2016 224.9L42.3016 223.8ZM41.6016 221.8C41.8016 222.1 42.1016 222.3 42.5016 222.4C42.9016 222.5 43.2016 222.5 43.5016 222.4L44.5016 221.5L43.9016 220.8C42.9016 219.8 42.2016 219.5 41.5016 220.1C41.2016 220.3 41.1016 220.6 41.1016 220.9C41.2016 221.2 41.4016 221.5 41.6016 221.8Z" fill="white"/>
<path d="M51.7 227.1C51.1 226.2 50.8 225.5 50.7 224.8C50.6 224.2 50.8 223.6 51.2 223.1C51.7 222.6 52.3 222.3 53 222.3C53.7 222.3 54.5 222.6 55.1 223.2C55.6 223.6 55.9 224.1 56.1 224.6C56.3 225.1 56.4 225.6 56.3 226.1C56.2 226.6 56 227 55.7 227.4L54.8 226.6C55.2 226.2 55.3 225.7 55.2 225.3C55.1 224.8 54.9 224.4 54.4 224C54 223.6 53.5 223.4 53.1 223.4C52.7 223.4 52.3 223.6 52 223.9C51.8 224.2 51.7 224.5 51.7 224.9C51.8 225.3 52 225.8 52.5 226.5C52.9 227.1 53.2 227.7 53.4 228.2C53.6 228.7 53.6 229.1 53.5 229.5C53.4 229.9 53.3 230.3 53 230.6C52.5 231.2 51.9 231.4 51.2 231.4C50.5 231.4 49.8 231 49 230.4C48.5 230 48.2 229.5 47.9 229C47.6 228.5 47.5 227.9 47.6 227.4C47.6 226.9 47.8 226.4 48.2 226L49.1 226.8C48.7 227.2 48.6 227.7 48.7 228.2C48.8 228.7 49.1 229.2 49.6 229.6C50.1 230 50.5 230.2 51 230.2C51.4 230.2 51.8 230.1 52.1 229.7C52.4 229.3 52.5 229 52.4 228.6C52.3 228.2 52.2 227.8 51.7 227.1Z" fill="white"/>
<path d="M56.4016 235.8C56.4016 235.7 56.5016 235.4 56.7016 235.1C55.9016 235.2 55.3016 235.1 54.7016 234.7C54.2016 234.3 53.8016 233.8 53.7016 233.3C53.6016 232.7 53.7016 232.2 54.0016 231.8C54.4016 231.2 54.9016 230.9 55.6016 230.9C56.3016 230.9 57.0016 231.2 57.8016 231.7L58.7016 232.4L59.0016 232C59.2016 231.7 59.3016 231.3 59.3016 231C59.2016 230.7 59.0016 230.4 58.6016 230.1C58.3016 229.9 57.9016 229.7 57.6016 229.7C57.3016 229.7 57.0016 229.8 56.8016 230.1L55.9016 229.4C56.1016 229.1 56.4016 228.9 56.8016 228.8C57.2016 228.7 57.6016 228.7 58.0016 228.8C58.4016 228.9 58.9016 229.1 59.3016 229.4C59.9016 229.9 60.3016 230.4 60.4016 230.9C60.5016 231.5 60.4016 232 60.0016 232.6L58.2016 235.1C57.8016 235.6 57.6016 236 57.5016 236.4L57.4016 236.5L56.4016 235.8ZM55.4016 234C55.7016 234.2 56.0016 234.3 56.4016 234.4C56.8016 234.4 57.1016 234.4 57.4016 234.2L58.2016 233.1L57.5016 232.6C56.4016 231.8 55.5016 231.7 55.1016 232.4C54.9016 232.7 54.8016 233 54.9016 233.3C54.9016 233.5 55.0016 233.8 55.4016 234Z" fill="white"/>
<path d="M63.2992 232.4L62.9992 233.1C63.6992 232.8 64.3992 232.9 65.1992 233.3C65.9992 233.8 66.3992 234.4 66.2992 235.2C66.6992 235 66.9992 235 67.4992 235C67.9992 235 68.2992 235.1 68.7992 235.4C70.0992 236.1 70.2992 237.2 69.5992 238.6L67.2992 242.5L66.2992 241.9L68.4992 238C68.6992 237.6 68.7992 237.2 68.7992 236.9C68.6992 236.6 68.4992 236.3 67.9992 236C67.5992 235.8 67.2992 235.7 66.8992 235.8C66.4992 235.9 66.1992 236.1 65.9992 236.4L63.7992 240.3L62.7992 239.7L64.9992 235.9C65.4992 235.1 65.2992 234.4 64.4992 233.9C63.7992 233.5 63.1992 233.5 62.6992 234L60.1992 238.3L59.1992 237.7L62.5992 231.9L63.2992 232.4Z" fill="white"/>
<path d="M73.0008 245C73.0008 244.9 73.0008 244.6 73.1008 244.3C72.4008 244.6 71.7008 244.6 71.0008 244.3C70.4008 244 70.0008 243.6 69.7008 243.1C69.5008 242.6 69.5008 242.1 69.7008 241.5C70.0008 240.9 70.5008 240.5 71.1008 240.3C71.7008 240.2 72.5008 240.3 73.4008 240.7L74.4008 241.2L74.6008 240.7C74.8008 240.3 74.8008 240 74.7008 239.7C74.6008 239.4 74.3008 239.1 73.9008 238.9C73.5008 238.7 73.2008 238.7 72.8008 238.8C72.5008 238.9 72.2008 239 72.1008 239.3L71.0008 238.8C71.1008 238.5 71.4008 238.2 71.7008 238.1C72.0008 238 72.4008 237.8 72.9008 237.8C73.3008 237.8 73.8008 237.9 74.2008 238.1C74.9008 238.4 75.4008 238.8 75.6008 239.4C75.8008 239.9 75.8008 240.5 75.6008 241.1L74.3008 243.9C74.0008 244.5 73.9008 244.9 73.9008 245.3V245.4L73.0008 245ZM71.6008 243.5C71.9008 243.6 72.3008 243.7 72.7008 243.7C73.1008 243.7 73.4008 243.5 73.6008 243.3L74.2008 242L73.4008 241.6C72.1008 241 71.3008 241.1 71.0008 241.9C70.9008 242.2 70.8008 242.5 71.0008 242.8C71.0008 243.1 71.3008 243.3 71.6008 243.5Z" fill="white"/>
<path d="M80.9008 242C80.7008 241.9 80.6008 241.8 80.4008 241.8C79.7008 241.5 79.1008 241.7 78.6008 242.2L76.9008 246.7L75.8008 246.3L78.2008 240L79.3008 240.4L79.0008 241.1C79.6008 240.7 80.2008 240.6 80.8008 240.8C81.0008 240.9 81.2008 241 81.2008 241.1L80.9008 242Z" fill="white"/>
<path d="M84.5014 240.3L84.0014 241.9L85.2014 242.3L84.9014 243.1L83.7014 242.7L82.4014 246.7C82.3014 247 82.3014 247.2 82.4014 247.3C82.5014 247.5 82.6014 247.6 82.9014 247.7C83.0014 247.7 83.2014 247.8 83.4014 247.8L83.1014 248.7C82.8014 248.7 82.5014 248.6 82.2014 248.6C81.7014 248.4 81.4014 248.2 81.2014 247.8C81.0014 247.4 81.1014 247 81.2014 246.4L82.5014 242.4L81.3014 242L81.6014 241.2L82.8014 241.6L83.3014 240L84.5014 240.3Z" fill="white"/>
<path d="M87.1992 243.7C87.7992 243.2 88.5992 243.1 89.3992 243.3C90.7992 243.6 91.2992 244.6 90.8992 246.2L89.7992 250.5L88.6992 250.2L89.7992 245.9C89.8992 245.4 89.8992 245.1 89.6992 244.8C89.4992 244.5 89.1992 244.3 88.7992 244.2C88.3992 244.1 88.0992 244.1 87.7992 244.3C87.4992 244.4 87.1992 244.6 86.9992 244.9L85.7992 249.6L84.6992 249.3L86.9992 239.9L88.0992 240.2L87.1992 243.7Z" fill="white"/>
<path d="M95.9986 251.5C95.9986 251.4 95.8986 251.1 95.9986 250.8C95.3986 251.3 94.6986 251.4 93.9986 251.3C93.2986 251.2 92.7986 250.9 92.4986 250.5C92.0986 250.1 91.9986 249.6 92.0986 249C92.1986 248.3 92.5986 247.8 93.1986 247.5C93.7986 247.2 94.5986 247.1 95.4986 247.3L96.5986 247.5L96.6986 247C96.7986 246.6 96.6986 246.3 96.4986 246C96.2986 245.7 95.9986 245.5 95.4986 245.5C95.0986 245.4 94.6986 245.5 94.3986 245.6C94.0986 245.8 93.8986 246 93.8986 246.3L92.7986 246.1C92.8986 245.8 92.9986 245.5 93.2986 245.2C93.5986 244.9 93.8986 244.7 94.3986 244.6C94.7986 244.5 95.2986 244.5 95.7986 244.6C96.5986 244.7 97.0986 245 97.4986 245.5C97.8986 246 97.9986 246.5 97.8986 247.2L97.3986 250.3C97.2986 250.9 97.2986 251.4 97.3986 251.8V251.9L95.9986 251.5ZM94.2986 250.4C94.6986 250.5 94.9986 250.4 95.3986 250.3C95.7986 250.2 95.9986 250 96.1986 249.7L96.3986 248.3L95.4986 248.2C94.0986 248 93.2986 248.3 93.1986 249.1C93.0986 249.5 93.1986 249.8 93.3986 250C93.5986 250.2 93.8986 250.3 94.2986 250.4Z" fill="white"/>
<path d="M101.202 249L100.402 249.7L100.202 252.1L99.1016 252L100.002 242.5L101.102 242.6L100.602 248.4L101.302 247.7L103.602 245.7L105.002 245.8L102.102 248.4L104.702 252.6L103.402 252.5L101.202 249Z" fill="white"/>
<path d="M109.102 247.8C109.102 247.4 109.202 247.1 109.402 246.9C109.602 246.7 109.902 246.5 110.302 246.5C110.702 246.5 111.002 246.6 111.202 246.8C111.402 247 111.602 247.3 111.602 247.7V247.9C111.602 248.3 111.502 248.6 111.302 248.8C111.102 249 110.802 249.2 110.402 249.2C110.002 249.2 109.702 249.1 109.502 248.9C109.302 248.7 109.102 248.4 109.102 248V247.8Z" fill="white"/>
<path d="M117.199 252.3L116.199 243.3L119.099 243C120.099 242.9 120.799 243 121.399 243.4C121.899 243.8 122.199 244.3 122.299 245.1C122.299 245.5 122.299 245.9 122.099 246.3C121.899 246.6 121.599 246.9 121.199 247.2C121.699 247.3 122.099 247.5 122.399 247.9C122.699 248.3 122.899 248.7 122.999 249.2C123.099 250 122.899 250.7 122.399 251.2C121.899 251.7 121.199 252 120.299 252.1L117.199 252.3ZM117.799 247L119.599 246.8C120.099 246.7 120.499 246.6 120.799 246.3C121.099 246 121.199 245.6 121.199 245.2C121.099 244.7 120.999 244.4 120.599 244.2C120.199 244 119.799 243.9 119.199 244L117.399 244.2L117.799 247ZM117.899 248L118.299 251.2L120.299 251C120.899 250.9 121.299 250.7 121.599 250.4C121.899 250.1 121.999 249.7 121.999 249.2C121.899 248.1 121.199 247.6 120.099 247.8L117.899 248Z" fill="white"/>
<path d="M127.4 245.1C127.2 245.1 127 245.1 126.8 245.2C126.1 245.3 125.6 245.7 125.5 246.4L126.3 251.1L125.2 251.3L124 244.7L125.1 244.5L125.3 245.3C125.6 244.6 126 244.3 126.7 244.1C126.9 244.1 127.1 244.1 127.2 244.1L127.4 245.1Z" fill="white"/>
<path d="M128.502 247.3C128.302 246.7 128.302 246.1 128.502 245.5C128.702 244.9 128.902 244.4 129.302 244.1C129.702 243.7 130.202 243.4 130.702 243.3C131.602 243.1 132.402 243.2 133.102 243.7C133.802 244.2 134.302 244.9 134.502 246V246.1C134.702 246.7 134.702 247.3 134.602 247.9C134.502 248.5 134.202 248.9 133.802 249.3C133.402 249.7 132.902 250 132.302 250.1C131.402 250.3 130.602 250.2 129.902 249.7C129.202 249.2 128.802 248.4 128.502 247.3ZM129.702 247.1C129.902 247.8 130.202 248.4 130.602 248.7C131.002 249.1 131.502 249.2 132.102 249C132.702 248.9 133.102 248.5 133.302 248C133.502 247.5 133.502 246.8 133.302 246C133.102 245.3 132.802 244.7 132.402 244.4C131.902 244 131.402 243.9 130.902 244.1C130.302 244.2 130.002 244.6 129.702 245.1C129.502 245.6 129.502 246.3 129.702 247.1Z" fill="white"/>
<path d="M135.901 241.9L136.201 242.7C136.501 241.9 137.001 241.4 137.801 241.1C139.201 240.6 140.101 241.2 140.601 242.7L142.001 246.9L140.901 247.3L139.501 243.1C139.301 242.6 139.101 242.3 138.801 242.2C138.501 242 138.201 242 137.701 242.2C137.301 242.3 137.101 242.5 136.901 242.8C136.701 243.1 136.601 243.4 136.501 243.8L138.001 248.4L136.901 248.8L134.801 242.4L135.901 241.9Z" fill="white"/>
<path d="M144.602 244.9L148.202 243.4L148.602 244.3L143.702 246.4L143.402 245.6L144.902 239.6L141.502 241L141.102 240.1L145.802 238.1L146.102 238.9L144.602 244.9Z" fill="white"/>
<path d="M152.599 242.4C151.799 242.8 150.999 242.9 150.199 242.6C149.399 242.3 148.799 241.7 148.299 240.8L148.199 240.6C147.899 240 147.699 239.4 147.699 238.8C147.699 238.2 147.799 237.7 148.099 237.2C148.399 236.7 148.799 236.4 149.199 236.1C149.999 235.7 150.699 235.7 151.399 235.9C152.099 236.1 152.699 236.8 153.199 237.8L153.399 238.2L149.299 240.3C149.599 240.9 149.999 241.3 150.499 241.5C150.999 241.7 151.499 241.7 151.999 241.4C152.399 241.2 152.599 241 152.799 240.7C152.999 240.4 153.099 240.1 153.199 239.8L154.099 240C154.099 241.2 153.599 241.9 152.599 242.4ZM149.699 237.1C149.299 237.3 148.999 237.6 148.899 238.1C148.799 238.5 148.799 239.1 148.999 239.6L151.999 238.1V238C151.699 237.5 151.399 237.2 150.999 237C150.599 236.8 150.099 236.9 149.699 237.1Z" fill="white"/>
<path d="M163.3 232.4C163.7 233.3 163.9 234.1 163.7 234.8C163.5 235.6 163 236.2 162.2 236.8C161.3 237.4 160.4 237.6 159.4 237.3C158.4 237 157.6 236.3 156.9 235.3L156.4 234.6C155.9 233.9 155.6 233.2 155.5 232.5C155.4 231.8 155.5 231.2 155.7 230.6C155.9 230 156.4 229.5 157 229.1C157.8 228.6 158.6 228.4 159.4 228.5C160.2 228.6 160.9 229.1 161.5 229.8L160.5 230.5C160 230 159.5 229.6 159.1 229.6C158.7 229.6 158.1 229.7 157.6 230C157 230.4 156.6 231 156.6 231.7C156.6 232.4 156.8 233.2 157.4 234.1L157.9 234.8C158.4 235.6 159.1 236.2 159.7 236.4C160.3 236.6 161 236.6 161.6 236.2C162.2 235.8 162.5 235.4 162.6 235C162.7 234.6 162.6 234 162.3 233.3L163.3 232.4Z" fill="white"/>
<path d="M163.998 231.2C163.598 230.7 163.298 230.1 163.198 229.6C163.098 229 163.099 228.5 163.299 228C163.499 227.5 163.799 227 164.299 226.7C164.999 226.1 165.799 225.9 166.599 226C167.399 226.1 168.199 226.6 168.799 227.4L168.898 227.5C169.298 228 169.598 228.5 169.698 229.1C169.798 229.7 169.799 230.2 169.599 230.7C169.399 231.2 169.099 231.7 168.599 232C167.899 232.6 167.099 232.8 166.299 232.6C165.499 232.4 164.698 232.1 163.998 231.2ZM164.998 230.6C165.498 231.2 165.998 231.5 166.498 231.7C166.998 231.9 167.598 231.7 167.998 231.4C168.498 231 168.698 230.6 168.698 230C168.698 229.4 168.398 228.8 167.898 228.2C167.398 227.6 166.898 227.3 166.398 227.1C165.798 227 165.298 227.1 164.898 227.4C164.498 227.8 164.199 228.2 164.299 228.8C164.399 229.4 164.498 229.9 164.998 230.6Z" fill="white"/>
<path d="M168.501 223.2L169.101 223.8C169.001 223 169.301 222.3 169.901 221.7C170.901 220.7 172.001 220.8 173.101 222L176.201 225.2L175.401 226L172.301 222.8C172.001 222.4 171.601 222.3 171.301 222.2C171.001 222.1 170.701 222.3 170.301 222.6C170.001 222.9 169.901 223.2 169.801 223.5C169.701 223.8 169.801 224.2 169.901 224.5L173.201 228L172.401 228.8L167.801 223.9L168.501 223.2Z" fill="white"/>
<path d="M172.501 216.9L173.701 218L174.601 217.1L175.301 217.7L174.401 218.6L177.501 221.5C177.701 221.7 177.901 221.8 178.101 221.8C178.301 221.8 178.501 221.7 178.601 221.5C178.701 221.4 178.801 221.3 178.901 221L179.601 221.6C179.501 221.9 179.301 222.1 179.101 222.3C178.701 222.7 178.401 222.9 178.001 222.8C177.601 222.8 177.201 222.6 176.801 222.2L173.701 219.3L172.901 220.2L172.201 219.6L173.001 218.7L171.801 217.6L172.501 216.9Z" fill="white"/>
<path d="M178.298 214.3C178.198 214.4 177.998 214.5 177.898 214.7C177.398 215.3 177.298 215.9 177.598 216.5L181.198 219.6L180.498 220.5L175.398 216.1L176.098 215.2L176.698 215.7C176.498 215 176.598 214.4 177.098 213.9C177.198 213.7 177.398 213.6 177.498 213.6L178.298 214.3Z" fill="white"/>
<path d="M176.698 211.8C176.598 211.7 176.498 211.5 176.398 211.4C176.398 211.2 176.398 211.1 176.598 210.9C176.698 210.7 176.898 210.6 177.098 210.6C177.298 210.6 177.398 210.6 177.598 210.8C177.698 210.9 177.798 211.1 177.898 211.2C177.898 211.4 177.898 211.5 177.698 211.7C177.598 211.9 177.398 212 177.198 212C176.998 211.9 176.798 211.9 176.698 211.8ZM184.098 216L183.398 216.9L178.098 212.7L178.798 211.8L184.098 216Z" fill="white"/>
<path d="M186 207.8C186.8 208.4 187.4 209.1 187.6 209.8C187.8 210.5 187.7 211.2 187.3 211.9C186.8 212.6 186.2 213 185.4 213L186 213.5L185.4 214.4L177.5 208.9L178.2 208L181.1 210C180.9 209.3 181 208.6 181.5 207.9C182 207.2 182.6 206.9 183.4 206.8C184.2 206.9 185 207.1 186 207.8ZM185.2 208.7C184.6 208.3 184 208 183.4 208C182.9 208 182.5 208.2 182.1 208.7C181.7 209.3 181.6 210 182 210.6L184.4 212.3C185.2 212.4 185.8 212.2 186.2 211.5C186.5 211 186.6 210.6 186.4 210.1C186.2 209.6 185.9 209.2 185.2 208.7Z" fill="white"/>
<path d="M191.201 204.2C191.401 204.9 191.301 205.6 190.901 206.3C190.501 206.9 190.101 207.3 189.501 207.4C189.001 207.5 188.301 207.4 187.601 207L183.801 204.8L184.401 203.8L188.201 206C189.101 206.5 189.701 206.4 190.201 205.7C190.601 204.9 190.701 204.3 190.201 203.7L186.001 201.2L186.601 200.2L192.401 203.6L191.801 204.5L191.201 204.2Z" fill="white"/>
<path d="M186.401 196.6L187.901 197.3L188.501 196.2L189.301 196.6L188.701 197.7L192.401 199.6C192.601 199.7 192.801 199.8 193.001 199.7C193.201 199.6 193.301 199.5 193.401 199.3C193.501 199.2 193.501 199 193.601 198.8L194.401 199.2C194.301 199.5 194.201 199.8 194.101 200C193.901 200.5 193.601 200.7 193.201 200.8C192.801 200.9 192.401 200.8 191.801 200.6L188.101 198.7L187.601 199.8L186.801 199.4L187.301 198.3L185.801 197.6L186.401 196.6Z" fill="white"/>
<path d="M191.899 196.9C191.299 196.6 190.799 196.3 190.399 195.8C189.999 195.4 189.799 194.9 189.699 194.3C189.599 193.7 189.699 193.2 189.899 192.7C190.299 191.9 190.799 191.3 191.599 191C192.399 190.7 193.299 190.8 194.299 191.2H194.399C194.999 191.5 195.499 191.8 195.899 192.2C196.299 192.6 196.499 193.1 196.599 193.7C196.699 194.2 196.599 194.8 196.399 195.4C195.999 196.2 195.499 196.8 194.699 197.1C193.799 197.4 192.899 197.3 191.899 196.9ZM192.499 195.8C193.199 196.1 193.799 196.2 194.399 196C194.999 195.8 195.299 195.5 195.599 195C195.799 194.5 195.799 193.9 195.499 193.4C195.199 192.9 194.699 192.5 193.899 192.2C193.199 191.9 192.599 191.8 191.999 192C191.399 192.1 190.999 192.5 190.799 193C190.599 193.5 190.599 194 190.899 194.5C191.199 195.1 191.699 195.5 192.499 195.8Z" fill="white"/>
<path d="M193.702 185.9C193.602 186.1 193.502 186.2 193.502 186.4C193.302 187.1 193.402 187.7 193.902 188.2L198.402 189.8L198.002 190.9L191.602 188.7L192.002 187.6L192.702 187.8C192.302 187.2 192.102 186.6 192.402 186C192.502 185.8 192.602 185.6 192.702 185.5L193.702 185.9Z" fill="white"/>
<defs>
<filter id="filter0_ii" x="0" y="50" width="218" height="218" filterUnits="userSpaceOnUse" color-interpolation-filters="sRGB">
<feFlood flood-opacity="0" result="BackgroundImageFix"/>
<feBlend mode="normal" in="SourceGraphic" in2="BackgroundImageFix" result="shape"/>
<feColorMatrix in="SourceAlpha" type="matrix" values="0 0 0 0 0 0 0 0 0 0 0 0 0 0 0 0 0 0 127 0" result="hardAlpha"/>
<feOffset/>
<feGaussianBlur stdDeviation="4"/>
<feComposite in2="hardAlpha" operator="arithmetic" k2="-1" k3="1"/>
<feColorMatrix type="matrix" values="0 0 0 0 0.9875 0 0 0 0 0.722843 0 0 0 0 0.386771 0 0 0 1 0"/>
<feBlend mode="normal" in2="shape" result="effect1_innerShadow"/>
<feColorMatrix in="SourceAlpha" type="matrix" values="0 0 0 0 0 0 0 0 0 0 0 0 0 0 0 0 0 0 127 0" result="hardAlpha"/>
<feOffset/>
<feGaussianBlur stdDeviation="6"/>
<feComposite in2="hardAlpha" operator="arithmetic" k2="-1" k3="1"/>
<feColorMatrix type="matrix" values="0 0 0 0 0 0 0 0 0 0 0 0 0 0 0 0 0 0 0.2 0"/>
<feBlend mode="normal" in2="effect1_innerShadow" result="effect2_innerShadow"/>
</filter>
<filter id="filter1_i" x="59" y="109" width="100" height="100" filterUnits="userSpaceOnUse" color-interpolation-filters="sRGB">
<feFlood flood-opacity="0" result="BackgroundImageFix"/>
<feBlend mode="normal" in="SourceGraphic" in2="BackgroundImageFix" result="shape"/>
<feColorMatrix in="SourceAlpha" type="matrix" values="0 0 0 0 0 0 0 0 0 0 0 0 0 0 0 0 0 0 127 0" result="hardAlpha"/>
<feOffset/>
<feGaussianBlur stdDeviation="6"/>
<feComposite in2="hardAlpha" operator="arithmetic" k2="-1" k3="1"/>
<feColorMatrix type="matrix" values="0 0 0 0 0 0 0 0 0 0 0 0 0 0 0 0 0 0 0.4 0"/>
<feBlend mode="normal" in2="shape" result="effect1_innerShadow"/>
</filter>
<linearGradient id="paint0_linear" x1="51.775" y1="57.4938" x2="218" y2="246.2" gradientUnits="userSpaceOnUse">
<stop stop-color="white"/>
<stop offset="1" stop-color="#705F5F" stop-opacity="0"/>
</linearGradient>
<linearGradient id="paint1_linear" x1="174.52" y1="213.6" x2="38.8" y2="107.52" gradientUnits="userSpaceOnUse">
<stop stop-color="#FFE4C1"/>
<stop offset="1" stop-color="#383838" stop-opacity="0"/>
</linearGradient>
<linearGradient id="paint2_linear" x1="194.68" y1="230.4" x2="17.2" y2="91.68" gradientUnits="userSpaceOnUse">
<stop stop-color="#FFE4C1"/>
<stop offset="1" stop-color="#383838" stop-opacity="0"/>
</linearGradient>
</defs>
</svg>
