<svg width="218" height="268" viewBox="0 0 218 268" fill="none" xmlns="http://www.w3.org/2000/svg">
<path d="M86.0098 29.7979C84.9084 29.7979 84.0273 30.6685 84.0273 31.7568V50.0407C84.0273 51.129 84.9084 51.9997 86.0098 51.9997H131.385C132.487 51.9997 133.368 51.129 133.368 50.0407V31.7568C133.368 30.6685 132.487 29.7979 131.385 29.7979H86.0098ZM129.403 44.1637C129.403 45.2521 128.522 46.1227 127.42 46.1227H90.1949C89.0935 46.1227 88.2125 45.2521 88.2125 44.1637V35.8925C88.2125 34.8041 89.0935 33.9335 90.1949 33.9335H127.42C128.522 33.9335 129.403 34.8041 129.403 35.8925V44.1637Z" fill="#FFE287"/>
<path d="M140.045 0L114.918 37.8775H127.37L155.388 0H140.045Z" fill="#0FA711"/>
<path d="M127.377 0L102.473 37.8775H114.925L140.052 0H127.377Z" fill="white"/>
<path d="M114.924 0L90.0195 37.8775H102.472L127.376 0H114.924Z" fill="#FF7600"/>
<path d="M90.0177 37.8775H102.47L77.343 0H62L90.0177 37.8775Z" fill="#FF7600"/>
<path d="M102.471 37.8775H114.923L90.0184 0H77.3438L102.471 37.8775Z" fill="white"/>
<path opacity="0.5" d="M110.695 6.28027L104.469 15.6936L119.145 37.8823H127.372L129.596 34.7445L110.695 6.28027Z" fill="#3E4347"/>
<path d="M114.924 37.8775H127.376L102.472 0H90.0195L114.924 37.8775Z" fill="#0FA711"/>
<g filter="url(#filter0_ii)">
<path d="M218 159C218 219.199 169.199 268 109 268C48.801 268 0 219.199 0 159C0 98.801 48.801 50 109 50C169.199 50 218 98.801 218 159Z" fill="#FDD24F" fill-opacity="0.8"/>
</g>
<path d="M214.5 159C214.5 217.266 167.266 264.5 109 264.5C50.734 264.5 3.5 217.266 3.5 159C3.5 100.734 50.734 53.5 109 53.5C167.266 53.5 214.5 100.734 214.5 159Z" stroke="#DFDFDF" stroke-width="7"/>
<path d="M214.5 159C214.5 217.266 167.266 264.5 109 264.5C50.734 264.5 3.5 217.266 3.5 159C3.5 100.734 50.734 53.5 109 53.5C167.266 53.5 214.5 100.734 214.5 159Z" stroke="url(#paint0_linear)" stroke-width="7"/>
<path d="M196 159C196 207.049 157.049 246 109 246C60.9512 246 22 207.049 22 159C22 110.951 60.9512 72 109 72C157.049 72 196 110.951 196 159Z" fill="#EEB42F"/>
<path fill-rule="evenodd" clip-rule="evenodd" d="M109 87C69.2355 87 37 119.235 37 159C37 198.764 69.2355 231 109 231C148.764 231 181 198.764 181 159C181 119.235 148.764 87 109 87ZM7 159C7 102.667 52.667 57 109 57C165.333 57 211 102.667 211 159C211 215.333 165.333 261 109 261C52.667 261 7 215.333 7 159Z" fill="#F9C54C"/>
<path d="M109 82C66.5591 82 32 116.357 32 159C32 201.643 66.357 236 109 236C151.643 236 186 201.643 186 159C186 116.357 151.441 82 109 82ZM93.6404 89.4777C93.8425 89.4777 93.8425 89.4777 93.6404 89.4777C95.0551 92.5092 97.6824 94.3281 100.31 93.7218C102.937 93.3176 105.564 91.4987 105.766 87.8609C106.171 87.8609 106.575 87.8609 106.979 87.8609C106.979 98.7743 106.171 110.496 104.958 123.228C104.756 124.441 104.756 125.654 104.756 126.866C104.352 125.856 103.948 124.643 103.543 123.228C99.2992 112.517 95.4593 100.997 92.4278 89.6798C93.0341 89.6798 93.2362 89.4777 93.6404 89.4777ZM76.0577 95.7428C78.2808 98.3701 81.1102 99.3806 83.5354 98.168C86.3648 96.9554 87.9816 94.126 87.3753 91.0945C87.7795 90.8924 88.1837 90.8924 88.5879 90.6903C91.2152 101.199 93.8425 112.719 95.8635 125.451C96.0656 126.866 96.2677 127.877 96.6719 129.089C96.0656 128.079 95.4593 127.068 94.4488 125.856C87.5774 116.559 80.9081 106.454 75.0472 96.3491C75.2493 96.147 75.6535 95.9449 76.0577 95.7428ZM60.4961 106.656C63.3255 108.475 66.357 108.677 68.378 107.06C69.9948 105.848 70.8032 104.029 70.8032 102.21C70.8032 101.199 70.6011 100.189 69.9948 99.3806C70.399 99.1785 70.6011 98.9764 71.0052 98.7743C76.4619 108.071 81.7165 118.782 87.1732 130.302C87.7795 131.514 88.3858 132.525 88.79 133.535C87.9816 132.727 86.9711 131.919 85.9606 131.11C77.0682 123.633 67.9738 115.549 59.6877 107.465C59.8898 107.06 60.294 106.858 60.4961 106.656ZM48.3701 121.005C48.5722 121.005 48.5722 121.005 48.3701 121.005C51.6037 122.016 54.6352 121.612 56.0499 119.388C56.4541 118.782 57.4646 117.165 57.4646 115.549C57.4646 114.538 57.0604 112.921 55.8478 111.507C56.0499 111.304 56.4541 110.9 56.6562 110.698C64.336 118.378 72.2178 127.27 80.5039 136.971C81.3123 137.982 82.1207 138.79 82.9291 139.598C81.9186 138.992 80.706 138.588 79.4934 137.982C68.9843 133.131 58.0709 127.675 47.7638 122.016C47.9659 121.612 48.168 121.409 48.3701 121.005ZM40.4882 137.982C40.4882 137.982 40.4882 137.78 40.4882 137.982C43.9239 138.184 46.5512 136.971 47.5617 134.344C47.7638 133.738 47.9659 132.929 47.9659 131.717C47.9659 130.504 47.5617 128.281 45.1365 126.664C45.3386 126.26 45.5407 126.058 45.7428 125.654C55.0394 131.11 65.1444 137.577 75.4514 144.853C76.4619 145.661 77.6745 146.268 78.4829 146.874C77.4724 146.672 76.0577 146.47 74.643 146.066C63.3255 144.449 51.4016 142.024 39.8819 138.992C40.2861 138.79 40.4882 138.386 40.4882 137.982ZM37.2546 156.373C37.2546 156.373 37.2546 156.171 37.2546 156.373C40.4882 155.766 42.9134 153.745 43.1155 151.118C43.1155 150.916 43.1155 150.714 43.1155 150.31C43.1155 147.885 41.9029 145.257 38.8714 144.247C38.8714 143.843 39.0735 143.438 39.0735 143.034C49.5827 145.864 60.9003 149.703 72.8242 153.948C74.0368 154.352 75.2493 154.756 76.2598 154.958C75.0472 154.958 73.8346 155.16 72.42 155.16C61.1024 156.575 48.7743 157.181 37.0525 157.383C37.2546 157.181 37.2546 156.777 37.2546 156.373ZM38.8714 175.168C38.8714 174.966 38.8714 174.966 38.8714 175.168C41.4987 173.753 43.1155 171.732 43.1155 169.307C43.1155 169.105 43.1155 168.701 43.1155 168.499C42.7113 165.871 40.8924 163.244 37.2546 163.042C37.2546 162.638 37.2546 162.234 37.2546 161.829C48.168 161.829 59.8898 162.436 72.622 163.446C74.0367 163.648 75.2493 163.648 76.2598 163.648C75.2493 164.053 74.0367 164.457 72.622 164.861C61.9108 169.105 50.3911 172.945 39.0735 176.178C39.0735 175.976 39.0735 175.572 38.8714 175.168ZM45.3386 192.751C45.3386 192.751 45.3386 192.549 45.3386 192.751C47.1575 191.134 48.168 189.315 48.168 187.294C48.168 186.486 47.9659 185.879 47.7638 185.273C46.7533 182.848 44.3281 180.827 40.6903 181.635C40.4882 181.231 40.4882 180.827 40.2861 180.423C50.7953 177.593 62.315 175.168 74.8451 172.945C76.2598 172.743 77.2703 172.339 78.4829 172.136C77.4724 172.743 76.4619 173.349 75.2493 174.36C65.9528 181.231 55.8478 187.9 45.7428 193.963C45.7428 193.357 45.5407 193.155 45.3386 192.751ZM56.252 208.11C57.2625 206.493 57.6667 205.079 57.6667 203.462C57.6667 202.249 57.2625 201.037 56.4541 200.228C54.8373 198.207 51.8058 196.793 48.5722 198.409C48.3701 198.005 48.168 197.803 47.9659 197.399C57.2625 191.942 67.9738 186.486 79.4934 181.029C80.706 180.423 81.7165 179.816 82.727 179.412C81.9186 180.22 81.1102 181.231 80.3018 182.241C73.2283 191.336 65.1444 200.43 57.0604 208.919C56.8583 208.717 56.4541 208.514 56.252 208.11ZM70.6011 220.034C70.8032 218.822 71.0052 217.811 71.0052 216.801C71.0052 214.78 70.1969 213.163 68.7822 212.354C66.7612 210.94 63.5276 210.131 60.9003 212.759C60.4961 212.556 60.294 212.152 60.0919 211.95C67.7717 204.27 76.4619 196.186 86.1627 188.102C87.1732 187.294 87.9816 186.486 88.79 185.677C88.1837 186.688 87.7795 187.9 87.1732 189.113C82.727 199.622 77.4724 210.535 71.6115 220.64C71.4095 220.438 71.0052 220.236 70.6011 220.034ZM87.5774 227.916C87.7795 224.48 86.3648 221.853 83.9396 220.843C81.5144 220.034 78.2808 220.236 76.2598 223.268C75.8556 223.066 75.6535 222.864 75.2493 222.661C80.706 213.365 86.9711 203.26 94.2467 192.751C95.0551 191.538 95.6614 190.528 96.2677 189.719C96.0656 190.73 95.8635 192.144 95.4593 193.559C93.8425 204.877 91.4173 216.801 88.5879 228.32C88.3858 228.118 87.9816 228.118 87.5774 227.916ZM105.969 230.948C105.362 227.714 103.341 225.289 100.714 225.087C98.0866 224.885 95.0551 225.895 94.0446 229.331C93.6404 229.331 93.2362 229.129 92.832 229.129C95.6614 218.619 99.2992 207.302 103.543 195.378C103.948 194.165 104.352 192.953 104.554 191.942C104.554 193.155 104.756 194.367 104.756 195.782C106.171 207.1 106.979 219.428 107.181 231.15C106.777 231.15 106.373 231.15 105.969 230.948ZM178.927 144.449C176.299 145.864 174.48 147.885 174.48 150.31C174.48 150.512 174.48 150.916 174.48 151.118C174.885 153.745 176.703 156.373 180.341 156.575C180.341 156.979 180.341 157.383 180.341 157.787C169.63 157.787 157.706 156.979 144.974 155.766C143.559 155.564 142.346 155.564 141.336 155.564C142.346 155.16 143.559 154.756 144.974 154.352C155.685 150.108 167.205 146.268 178.522 143.236C178.724 143.64 178.724 144.045 178.927 144.449ZM172.661 126.866C172.661 126.866 172.661 127.068 172.661 126.866C170.843 128.483 169.832 130.302 169.832 132.323C169.832 133.131 170.034 133.738 170.236 134.344C171.247 136.769 173.672 138.79 177.31 138.184C177.512 138.588 177.512 138.992 177.714 139.396C167.205 142.024 155.483 144.449 142.953 146.672C141.538 146.874 140.528 147.076 139.315 147.48C140.325 146.874 141.336 146.268 142.549 145.459C151.845 138.386 161.95 131.717 172.055 125.856C172.257 126.26 172.459 126.462 172.661 126.866ZM162.152 111.709C161.142 113.325 160.535 114.942 160.535 116.357C160.535 117.57 160.94 118.782 161.748 119.591C163.365 121.612 166.194 123.026 169.428 121.409C169.63 121.814 169.832 122.016 170.034 122.42C160.535 127.675 150.026 133.131 138.304 138.184C137.092 138.79 136.081 139.194 135.071 139.801C135.879 138.992 136.688 137.982 137.698 136.971C144.974 128.079 153.058 118.984 161.344 110.698C161.546 111.102 161.95 111.304 162.152 111.709ZM147.601 99.1785C147.601 99.1785 147.803 99.3806 147.601 99.1785C147.399 100.391 146.995 101.402 146.995 102.412C146.995 104.231 147.803 105.848 149.218 106.858C151.239 108.273 154.472 109.081 157.1 106.656C157.302 106.858 157.706 107.262 157.908 107.465C150.228 115.144 141.336 123.026 131.433 131.11C130.423 131.919 129.412 132.727 128.806 133.535C129.412 132.525 129.816 131.514 130.423 130.1C135.071 119.591 140.528 108.677 146.388 98.5722C146.995 98.7743 147.197 98.9764 147.601 99.1785ZM130.625 91.2966C130.827 91.2966 130.827 91.2966 130.625 91.2966C130.423 94.7323 131.837 97.3596 134.262 98.3701C136.688 99.3806 139.921 99.1785 141.942 95.9449C142.346 96.147 142.549 96.3491 142.953 96.5512C137.496 105.848 131.029 115.751 123.551 126.26C122.743 127.27 122.136 128.281 121.53 129.291C121.732 128.281 122.136 126.866 122.339 125.451C124.157 114.134 126.583 102.21 129.412 90.8924C130.018 90.8924 130.22 91.0945 130.625 91.2966ZM112.436 87.8609C112.436 87.8609 112.638 87.8609 112.436 87.8609C113.042 91.0945 115.063 93.5197 117.69 93.7218C120.318 93.9239 123.349 92.9134 124.562 89.4777C124.966 89.4777 125.37 89.6798 125.774 89.6798C122.945 100.189 119.105 111.507 114.659 123.228C114.255 124.441 113.85 125.654 113.446 126.664C113.446 125.451 113.244 124.239 113.244 122.824C112.032 111.507 111.223 99.1785 111.223 87.4567C111.627 87.8609 112.032 87.8609 112.436 87.8609ZM124.36 229.331C122.743 226.299 120.318 224.682 117.69 225.087C115.063 225.491 112.436 227.31 112.234 230.948C111.829 230.948 111.425 230.948 111.021 230.948C111.021 220.034 111.627 208.312 112.84 195.58C113.042 194.367 113.042 193.357 113.042 192.346C113.042 192.144 113.042 192.144 113.042 191.942C113.446 192.953 113.85 194.165 114.255 195.58C118.499 206.291 122.339 217.811 125.572 229.129C125.168 229.331 124.764 229.331 124.36 229.331ZM141.74 223.066C141.74 223.066 141.538 223.066 141.74 223.066C139.517 220.438 136.688 219.428 134.262 220.64C131.433 221.853 129.816 224.682 130.625 227.714C130.22 227.916 129.816 227.916 129.412 228.118C126.583 217.609 124.157 206.089 122.136 193.559C121.934 192.144 121.732 191.134 121.328 189.921C121.934 190.932 122.541 191.942 123.551 193.155C130.423 202.451 137.092 212.556 142.953 222.661C142.346 222.864 142.144 222.864 141.74 223.066ZM157.302 212.152C157.302 212.354 157.302 212.354 157.302 212.152C154.472 210.333 151.441 210.131 149.42 211.748C147.803 212.961 146.995 214.78 146.995 216.598C146.995 217.609 147.197 218.619 147.803 219.428C147.399 219.63 147.197 219.832 146.793 220.034C141.336 210.738 135.879 200.026 130.625 188.507C130.018 187.294 129.412 186.283 129.008 185.273C129.816 186.081 130.827 186.89 131.837 187.698C140.932 194.772 150.026 202.856 158.312 211.142C157.908 211.748 157.706 211.95 157.302 212.152ZM169.226 198.005C169.226 198.005 169.226 198.207 169.226 198.005C165.992 196.995 162.961 197.399 161.546 199.622C161.142 200.228 160.131 201.845 160.131 203.462C160.131 204.472 160.535 206.089 161.748 207.504C161.546 207.706 161.142 208.11 160.94 208.312C153.26 200.633 145.378 191.74 137.294 182.039C136.486 181.029 135.677 180.018 134.869 179.412C135.879 180.018 137.092 180.423 138.304 181.029C148.814 185.677 159.727 191.134 170.034 196.793C169.63 197.399 169.428 197.601 169.226 198.005ZM177.108 181.029C177.108 181.231 177.108 181.231 177.108 181.029C173.672 180.827 171.045 182.039 170.034 184.667C169.832 185.273 169.63 186.081 169.63 187.294C169.63 188.507 170.034 190.73 172.459 192.346C172.257 192.751 172.055 192.953 171.853 193.357C162.556 187.9 152.451 181.433 142.144 174.157C141.134 173.349 139.921 172.743 139.113 172.136C140.123 172.339 141.538 172.743 142.953 172.945C154.27 174.562 166.194 176.987 177.512 180.018C177.31 180.423 177.31 180.827 177.108 181.029ZM180.341 162.84C177.108 163.446 174.682 165.265 174.48 167.892C174.48 168.094 174.48 168.297 174.48 168.701C174.48 171.126 175.693 173.753 178.724 174.764C178.724 175.168 178.522 175.572 178.522 175.976C168.013 173.147 156.696 169.509 144.772 165.063C143.559 164.659 142.346 164.255 141.336 164.052C142.549 164.052 143.761 163.85 145.176 163.85C156.493 162.638 168.822 161.829 180.543 161.829C180.543 162.032 180.341 162.436 180.341 162.84Z" fill="#FFE287"/>
<circle cx="109" cy="159" r="77" stroke="url(#paint1_linear)" stroke-width="2"/>
<circle cx="109" cy="159" r="101" stroke="url(#paint2_linear)" stroke-width="2"/>
<g filter="url(#filter1_i)">
<circle cx="109" cy="159" r="50" fill="#FDD24F"/>
</g>
<path fill-rule="evenodd" clip-rule="evenodd" d="M83.168 135.786V134H112.692V162.571H83.168V135.786ZM97.161 152.75L93.2143 148.931L87.2685 157.214H92.3942H93.8718H101.988H103.466H110.026L102.645 142.829L97.161 152.75ZM131.144 159H116.382V155.429H134.835V184H105.311V166.143H109.001V180.429H131.144V159ZM127.96 164.525V161.731H120.929V164.525H122.626V169.84H119.165C118.739 169.458 118.218 169.216 117.601 169.117C118.335 168.884 118.901 168.46 119.298 167.844C119.694 167.229 119.893 166.488 119.893 165.623C119.893 164.359 119.511 163.369 118.747 162.654C117.983 161.922 116.895 161.556 115.485 161.556C114.5 161.556 113.648 161.714 112.928 162.03V165.199C113.721 164.783 114.493 164.575 115.242 164.575C116.271 164.575 116.785 165.074 116.785 166.072C116.785 167.104 116.175 167.619 114.956 167.619H114.272V170.564H115.176C115.97 170.564 116.513 170.722 116.807 171.038C117.116 171.354 117.27 171.778 117.27 172.31C117.27 173.708 116.623 174.406 115.33 174.406C114.375 174.406 113.427 174.124 112.487 173.558V176.802C113.413 177.168 114.412 177.351 115.485 177.351C117.072 177.351 118.262 176.935 119.055 176.103C119.863 175.271 120.267 174.19 120.267 172.859V172.685H122.626V178.474H125.756V164.525H127.96Z" fill="white"/>
<path d="M47.6016 86.2004L50.0016 84.2004C50.3016 84.0004 50.6016 83.8004 50.9016 83.6004C51.2016 83.5004 51.5016 83.4004 51.8016 83.4004C52.1016 83.4004 52.4016 83.4004 52.7016 83.6004C53.0016 83.7004 53.3016 83.9004 53.5016 84.2004C53.8016 84.6004 54.0016 85.0004 54.0016 85.5004C54.0016 85.9004 53.8016 86.4004 53.6016 86.8004C53.8016 86.6004 54.1016 86.5004 54.3016 86.5004C54.6016 86.4004 54.8016 86.4004 55.1016 86.5004C55.4016 86.5004 55.6016 86.6004 55.9016 86.8004C56.2016 87.0004 56.4016 87.1004 56.6016 87.4004C56.9016 87.7004 57.0016 88.0004 57.1016 88.4004C57.2016 88.8004 57.2016 89.1004 57.1016 89.4004C57.0016 89.7004 56.9016 90.1004 56.6016 90.4004C56.4016 90.7004 56.1016 91.0004 55.7016 91.3004L53.3016 93.3004L47.6016 86.2004ZM51.0016 88.3004L52.3016 87.2004C52.5016 87.1004 52.6016 86.9004 52.8016 86.7004C53.0016 86.5004 53.0016 86.4004 53.1016 86.2004C53.2016 86.0004 53.2016 85.8004 53.1016 85.6004C53.0016 85.4004 53.0016 85.2004 52.8016 85.0004C52.6016 84.7004 52.3016 84.6004 51.9016 84.5004C51.6016 84.4004 51.2016 84.6004 50.8016 84.9004L49.3016 86.1004L51.0016 88.3004ZM53.6016 91.5004L55.0016 90.4004C55.1016 90.3004 55.3016 90.1004 55.4016 90.0004C55.5016 89.8004 55.7016 89.6004 55.7016 89.4004C55.8016 89.2004 55.8016 89.0004 55.8016 88.7004C55.8016 88.4004 55.7016 88.2004 55.5016 88.0004C55.2016 87.6004 54.8016 87.4004 54.3016 87.4004C53.9016 87.4004 53.4016 87.6004 53.0016 88.0004L51.6016 89.2004L53.6016 91.5004Z" fill="white"/>
<path d="M53.6016 80.6004L54.5016 79.9004L57.1016 83.6004C57.0016 83.3004 57.1016 82.9004 57.3016 82.5004C57.5016 82.1004 57.8016 81.8004 58.1016 81.6004C58.3016 81.4004 58.6016 81.3004 58.9016 81.2004C59.2016 81.1004 59.4016 81.1004 59.7016 81.1004C60.0016 81.1004 60.2016 81.2004 60.5016 81.4004C60.8016 81.6004 61.0016 81.8004 61.2016 82.2004L63.4016 85.4004L62.5016 86.1004L60.5016 83.2004C60.3016 83.0004 60.2016 82.8004 60.0016 82.7004C59.8016 82.6004 59.6016 82.5004 59.5016 82.5004C59.4016 82.5004 59.2016 82.5004 59.0016 82.5004C58.8016 82.5004 58.7016 82.6004 58.5016 82.7004C58.3016 82.8004 58.1016 83.0004 58.0016 83.2004C57.9016 83.4004 57.8016 83.6004 57.8016 83.8004C57.8016 84.0004 57.8016 84.3004 57.9016 84.5004C58.0016 84.7004 58.1016 85.0004 58.3016 85.3004L60.1016 87.9004L59.2016 88.6004L53.6016 80.6004Z" fill="white"/>
<path d="M62 80.1003C62.1 79.7003 62.3 79.3003 62.6 79.0003C62.9 78.7003 63.2 78.4003 63.6 78.2003C64 78.0003 64.3 77.8003 64.7 77.8003C65.1 77.8003 65.3 77.7003 65.6 77.8003C65.9 77.9003 66.1 78.0003 66.3 78.1003C66.5 78.2003 66.7 78.5003 66.8 78.7003L68.4 81.4003C68.5 81.6003 68.6 81.8003 68.7 81.9003C68.8 82.0003 68.9 82.2003 69 82.3003L68.1 82.8003C67.9 82.5003 67.8 82.3003 67.6 82.0003C67.6 82.5003 67.5 82.9003 67.2 83.2003C67 83.5003 66.7 83.8003 66.3 84.0003C66.1 84.1003 65.8 84.2003 65.5 84.3003C65.2 84.4003 65 84.4003 64.7 84.3003C64.4 84.2003 64.2 84.2003 64 84.0003C63.8 83.8003 63.6 83.7003 63.5 83.4003C63.3 83.1003 63.2 82.7003 63.2 82.4003C63.2 82.1003 63.3 81.8003 63.5 81.5003C63.7 81.2003 63.9 80.9003 64.2 80.7003C64.5 80.5003 64.9 80.2003 65.3 80.0003L66 79.6003L65.9 79.4003C65.8 79.3003 65.7 79.2003 65.6 79.0003C65.5 78.9003 65.3 78.8003 65.2 78.8003C65 78.8003 64.9 78.7003 64.7 78.8003C64.5 78.8003 64.3 78.9003 64.1 79.0003C63.9 79.1003 63.8 79.2003 63.6 79.3003C63.4 79.4003 63.4 79.5003 63.3 79.7003C63.2 79.8003 63.1 79.9003 63.1 80.1003C63.1 80.3003 63 80.4003 62.9 80.5003L62 80.1003ZM66.1 80.6003C65.9 80.7003 65.6 80.9003 65.4 81.1003C65.2 81.3003 65 81.4003 64.8 81.6003C64.6 81.8003 64.5 82.0003 64.5 82.2003C64.5 82.4003 64.5 82.6003 64.6 82.8003C64.8 83.1003 65 83.3003 65.3 83.3003C65.6 83.3003 65.9 83.2003 66.2 83.0003C66.5 82.8003 66.7 82.7003 66.8 82.5003C66.9 82.3003 67 82.1003 67.1 81.9003C67.1 81.7003 67.1 81.5003 67.1 81.3003C67 81.1003 67 80.9003 66.9 80.7003L66.7 80.4003L66.1 80.6003Z" fill="white"/>
<path d="M71.1008 76.1004C70.9008 76.0004 70.7008 76.0004 70.5008 75.9004C70.3008 75.9004 70.0008 75.9004 69.8008 76.1004C69.6008 76.2004 69.4008 76.4004 69.2008 76.6004C69.1008 76.8004 69.1008 77.0004 69.2008 77.2004C69.3008 77.4004 69.4008 77.5004 69.5008 77.5004C69.7008 77.5004 69.8008 77.6004 70.0008 77.6004C70.2008 77.6004 70.3008 77.6004 70.5008 77.5004C70.7008 77.5004 70.8008 77.4004 71.0008 77.4004C71.2008 77.3004 71.5008 77.3004 71.7008 77.3004C71.9008 77.3004 72.1008 77.3004 72.3008 77.3004C72.5008 77.4004 72.7008 77.4004 72.9008 77.6004C73.1008 77.7004 73.2008 77.9004 73.3008 78.2004C73.5008 78.5004 73.5008 78.8004 73.5008 79.1004C73.5008 79.4004 73.4008 79.6004 73.3008 79.9004C73.2008 80.1004 73.0008 80.4004 72.7008 80.5004C72.5008 80.7004 72.2008 80.9004 71.9008 81.0004C71.4008 81.2004 71.0008 81.3004 70.6008 81.4004C70.2008 81.4004 69.8008 81.3004 69.3008 81.1004L69.8008 80.1004C70.1008 80.2004 70.3008 80.2004 70.6008 80.3004C70.9008 80.3004 71.2008 80.3004 71.5008 80.1004C71.6008 80.0004 71.8008 80.0004 71.9008 79.9004C72.0008 79.8004 72.1008 79.7004 72.2008 79.6004C72.3008 79.5004 72.3008 79.4004 72.3008 79.3004C72.3008 79.2004 72.3008 79.1004 72.2008 78.9004C72.1008 78.7004 72.0008 78.6004 71.9008 78.6004C71.8008 78.5004 71.6008 78.5004 71.4008 78.5004C71.2008 78.5004 71.1008 78.5004 70.9008 78.6004C70.7008 78.6004 70.6008 78.7004 70.5008 78.7004C70.3008 78.8004 70.0008 78.8004 69.8008 78.8004C69.6008 78.8004 69.3008 78.8004 69.1008 78.8004C68.9008 78.8004 68.7008 78.7004 68.5008 78.5004C68.3008 78.3004 68.2008 78.2004 68.0008 77.9004C67.9008 77.6004 67.8008 77.3004 67.8008 77.1004C67.8008 76.8004 67.9008 76.6004 68.0008 76.3004C68.1008 76.1004 68.3008 75.9004 68.5008 75.7004C68.7008 75.5004 68.9008 75.4004 69.2008 75.2004C69.6008 75.0004 70.0008 74.9004 70.4008 74.9004C70.8008 74.9004 71.2008 75.0004 71.5008 75.2004L71.1008 76.1004Z" fill="white"/>
<path d="M71.3008 70.4L72.4008 70L74.1008 74.2C74.1008 73.8 74.2008 73.5 74.5008 73.2C74.8008 72.9 75.1008 72.6 75.5008 72.5C75.8008 72.4 76.0008 72.3 76.3008 72.3C76.6008 72.3 76.9008 72.3 77.1008 72.4C77.4008 72.5 77.6008 72.7 77.8008 72.9C78.0008 73.1 78.2008 73.4 78.4008 73.8L79.9008 77.4L78.8008 77.8L77.5008 74.5C77.4008 74.2 77.3008 74 77.1008 73.9C77.0008 73.7 76.8008 73.6 76.6008 73.6C76.4008 73.5 76.3008 73.5 76.1008 73.5C75.9008 73.5 75.8008 73.5 75.6008 73.6C75.4008 73.7 75.2008 73.8 75.0008 74C74.8008 74.1 74.7008 74.3 74.6008 74.5C74.5008 74.7 74.5008 75 74.5008 75.2C74.5008 75.5 74.6008 75.8 74.7008 76.1L75.9008 79L74.8008 79.4L71.3008 70.4Z" fill="white"/>
<path d="M78.5008 69.1004C78.4008 68.9004 78.4008 68.7004 78.5008 68.5004C78.6008 68.3004 78.8008 68.1004 79.0008 68.1004C79.2008 68.0004 79.4008 68.0004 79.6008 68.1004C79.8008 68.2004 80.0008 68.4004 80.0008 68.6004C80.0008 68.8004 80.1008 69.0004 80.0008 69.2004C79.9008 69.4004 79.7008 69.6004 79.5008 69.6004C79.3008 69.7004 79.1007 69.7004 78.9007 69.6004C78.7007 69.5004 78.6008 69.3004 78.5008 69.1004ZM79.5008 71.1004L80.6008 70.7004L82.6008 76.4004L81.5008 76.8004L79.5008 71.1004Z" fill="white"/>
<path d="M82.4023 70.1L83.5024 69.8L83.7023 70.7C83.8023 70.3 83.9023 70 84.2023 69.7C84.5023 69.4 84.9024 69.2 85.3024 69.1C85.6024 69 85.9024 69 86.1024 69C86.4024 69 86.6023 69.1 86.9023 69.2C87.1023 69.3 87.4024 69.5 87.6024 69.8C87.8024 70 87.9024 70.4 88.1024 70.8L89.1024 74.5L88.0024 74.8L87.0024 71.4C86.9024 71.1 86.8023 70.9 86.7023 70.7C86.6023 70.5 86.4024 70.4 86.3024 70.3C86.1024 70.2 86.0024 70.2 85.8024 70.2C85.6024 70.2 85.5024 70.2 85.3024 70.3C85.1024 70.4 84.9023 70.5 84.7023 70.6C84.5023 70.7 84.4024 70.9 84.3024 71.1C84.2024 71.3 84.1024 71.5 84.1024 71.8C84.1024 72.1 84.1023 72.4 84.2023 72.7L85.0024 75.7L83.9023 76L82.4023 70.1Z" fill="white"/>
<path d="M88.7031 66.1996C88.7031 65.9996 88.7032 65.7996 88.8032 65.5996C88.9032 65.3996 89.1032 65.2996 89.3032 65.1996C89.5032 65.0996 89.7031 65.1996 89.9031 65.2996C90.1031 65.3996 90.2032 65.5996 90.3032 65.7996C90.4032 65.9996 90.3031 66.1996 90.2031 66.3996C90.1031 66.5996 89.9031 66.6996 89.7031 66.7996C89.5031 66.8996 89.3031 66.7996 89.1031 66.6996C88.9031 66.5996 88.7031 66.3996 88.7031 66.1996ZM89.4031 68.1996L90.5032 67.9996L91.8032 73.8996L90.7031 74.0996L89.4031 68.1996Z" fill="white"/>
<path d="M96.2031 68.5004C96.2031 68.2004 96.2032 67.9004 96.3032 67.6004C96.4032 67.3004 96.5031 67.1004 96.7031 66.8004C96.9031 66.6004 97.1031 66.4004 97.4031 66.2004C97.7031 66.0004 97.9032 66.0004 98.3032 65.9004C98.6032 65.9004 98.9031 65.9004 99.2031 66.0004C99.5031 66.1004 99.7032 66.2004 100.003 66.4004C100.203 66.6004 100.403 66.8004 100.603 67.1004C100.803 67.4004 100.803 67.6004 100.903 68.0004C101.003 68.4004 100.903 68.6004 100.803 68.9004C100.703 69.2004 100.603 69.4004 100.403 69.7004C100.203 69.9004 100.003 70.1004 99.7031 70.3004C99.4031 70.5004 99.2032 70.5004 98.8032 70.6004C98.5032 70.6004 98.2031 70.6004 97.9031 70.5004C97.6031 70.4004 97.4031 70.3004 97.1031 70.1004C96.8031 69.9004 96.7032 69.7004 96.5032 69.4004C96.3032 69.1004 96.2031 68.8004 96.2031 68.5004Z" fill="white"/>
<path d="M106.203 63L109.403 63.1C110.003 63.1 110.603 63.2 111.103 63.3C111.603 63.4 112.003 63.7 112.303 63.9C112.603 64.1 112.903 64.4 113.203 64.7C113.503 65 113.603 65.3 113.703 65.7C113.803 66.1 113.903 66.4 114.003 66.7C114.103 67 114.103 67.3 114.103 67.6C114.103 68.2 114.003 68.7 113.803 69.3C113.603 69.8 113.303 70.3 112.803 70.7C112.403 71.1 111.903 71.4 111.203 71.7C110.603 71.9 109.903 72.1 109.103 72H106.203V63ZM107.303 70.9H108.803C109.303 70.9 109.803 70.8 110.303 70.7C110.803 70.6 111.203 70.4 111.503 70.1C111.903 69.8 112.103 69.5 112.303 69.1C112.503 68.7 112.603 68.2 112.603 67.6C112.603 67.3 112.603 67 112.503 66.6C112.403 66.2 112.203 65.8 112.003 65.5C111.703 65.1 111.403 64.8 110.903 64.6C110.403 64.4 109.903 64.2 109.103 64.2H107.303V70.9Z" fill="white"/>
<path d="M116.102 69.7C116.102 70 116.102 70.2 116.202 70.4C116.302 70.6 116.402 70.8 116.602 71C116.802 71.2 117.002 71.3 117.202 71.4C117.402 71.5 117.702 71.6 117.902 71.6C118.302 71.6 118.602 71.6 118.902 71.4C119.202 71.3 119.402 71.1 119.702 70.8L120.502 71.5C119.802 72.3 118.902 72.6 117.702 72.5C117.202 72.5 116.802 72.3 116.402 72.1C116.002 71.9 115.702 71.6 115.502 71.3C115.302 71 115.102 70.6 115.002 70.2C114.902 69.8 114.902 69.4 114.902 68.9C114.902 68.5 115.102 68 115.302 67.7C115.502 67.3 115.702 67 116.002 66.8C116.302 66.6 116.702 66.4 117.002 66.2C117.402 66.1 117.802 66 118.302 66.1C118.802 66.2 119.302 66.3 119.602 66.5C120.002 66.7 120.202 67 120.402 67.3C120.602 67.6 120.702 68 120.802 68.4C120.902 68.8 120.902 69.2 120.802 69.6V70L116.102 69.7ZM119.802 69.1C119.802 68.8 119.802 68.6 119.702 68.4C119.602 68.2 119.602 68 119.402 67.8C119.302 67.6 119.102 67.5 118.902 67.4C118.702 67.3 118.402 67.2 118.202 67.2C117.902 67.2 117.702 67.2 117.402 67.3C117.202 67.4 116.902 67.5 116.802 67.7C116.602 67.9 116.502 68 116.402 68.2C116.302 68.4 116.202 68.6 116.202 68.8L119.802 69.1Z" fill="white"/>
<path d="M123.403 63.4004L124.503 63.6004L123.403 69.7004L126.403 67.6004L128.003 67.9004L124.703 70.1004L127.103 73.9004L125.503 73.6004L123.303 70.0004L122.803 73.1004L121.703 72.9004L123.403 63.4004Z" fill="white"/>
<path d="M130.302 64.7002L131.402 65.0002L130.302 69.4001C130.502 69.1001 130.802 68.9002 131.202 68.8002C131.602 68.7002 132.002 68.7002 132.502 68.8002C132.802 68.9002 133.002 69.0002 133.302 69.1002C133.602 69.2002 133.702 69.4002 133.902 69.7002C134.002 69.9002 134.102 70.2002 134.202 70.5002C134.202 70.8002 134.202 71.2002 134.102 71.6002L133.102 75.4001L132.002 75.1002L132.902 71.6002C133.002 71.3002 133.002 71.1001 133.002 70.9001C133.002 70.7001 132.902 70.5001 132.802 70.4001C132.702 70.3001 132.602 70.1002 132.402 70.0002C132.302 69.9002 132.102 69.8002 131.902 69.8002C131.702 69.7002 131.402 69.7002 131.202 69.7002C131.002 69.7002 130.802 69.8001 130.602 69.9001C130.402 70.0001 130.202 70.2001 130.102 70.4001C130.002 70.6001 129.802 70.9002 129.802 71.2002L129.002 74.2002L127.902 73.9001L130.302 64.7002Z" fill="white"/>
<path d="M135.102 72.8002C135.202 72.4002 135.502 72.0002 135.702 71.7002C135.902 71.4002 136.302 71.2002 136.702 71.0002C137.102 70.8002 137.502 70.7002 137.902 70.7002C138.302 70.7002 138.702 70.7001 139.202 70.9001C139.602 71.0001 140.002 71.3002 140.302 71.5002C140.602 71.8002 140.902 72.1002 141.002 72.5002C141.202 72.9002 141.302 73.3002 141.302 73.7002C141.302 74.1002 141.302 74.5001 141.102 74.9001C141.002 75.3001 140.702 75.7002 140.502 76.0002C140.202 76.3002 139.902 76.6002 139.502 76.7002C139.102 76.9002 138.702 77.0002 138.302 77.0002C137.902 77.0002 137.502 77.0002 137.002 76.8002C136.602 76.7002 136.202 76.4002 135.902 76.2002C135.602 75.9002 135.302 75.6002 135.202 75.2002C135.002 74.8002 134.902 74.4002 134.902 74.0002C134.902 73.6002 135.002 73.2002 135.102 72.8002ZM136.302 73.2002C136.202 73.5002 136.202 73.8002 136.202 74.0002C136.202 74.3002 136.302 74.5002 136.402 74.8002C136.502 75.1002 136.602 75.2001 136.802 75.4001C137.002 75.6001 137.202 75.7002 137.502 75.8002C137.802 75.9002 138.102 75.9001 138.302 75.9001C138.502 75.9001 138.802 75.8002 139.002 75.7002C139.202 75.6002 139.402 75.4002 139.602 75.2002C139.802 75.0002 139.902 74.7001 140.002 74.4001C140.102 74.1001 140.102 73.8002 140.102 73.6002C140.102 73.4002 140.002 73.1002 139.902 72.8002C139.802 72.5002 139.702 72.4002 139.502 72.2002C139.302 72.0002 139.102 71.9002 138.802 71.8002C138.502 71.7002 138.202 71.7002 138.002 71.7002C137.702 71.7002 137.502 71.8001 137.302 71.9001C137.102 72.0001 136.902 72.2001 136.702 72.4001C136.502 72.7001 136.402 72.9002 136.302 73.2002Z" fill="white"/>
<path d="M148.402 71.5996L149.502 72.0996L145.702 80.2996L144.602 79.7996L148.402 71.5996Z" fill="white"/>
<path d="M150.202 75.7002L151.202 76.2002L150.802 77.0002C151.102 76.8002 151.402 76.7002 151.802 76.7002C152.202 76.7002 152.602 76.8002 153.002 77.0002C153.302 77.1002 153.502 77.3002 153.702 77.5002C153.902 77.7002 154.002 77.9002 154.102 78.2002C154.202 78.5002 154.202 78.7002 154.202 79.1002C154.202 79.4002 154.102 79.7002 153.902 80.1002L152.002 83.5002L151.002 83.0002L152.702 79.9001C152.802 79.7001 152.902 79.4002 152.902 79.2002C152.902 79.0002 152.902 78.8002 152.902 78.6002C152.802 78.4002 152.802 78.3002 152.602 78.2002C152.502 78.1002 152.302 78.0001 152.202 77.9001C152.002 77.8001 151.802 77.7002 151.602 77.7002C151.402 77.7002 151.202 77.7002 151.002 77.8002C150.802 77.9002 150.602 78.0002 150.402 78.2002C150.202 78.4002 150.002 78.6001 149.902 78.9001L148.402 81.6002L147.402 81.1002L150.202 75.7002Z" fill="white"/>
<path d="M158.301 87.5004L157.301 86.9004L157.801 86.2004C157.401 86.3004 157.001 86.4004 156.601 86.3004C156.201 86.2004 155.801 86.1004 155.501 85.9004C155.101 85.6004 154.801 85.3004 154.601 85.0004C154.401 84.7004 154.201 84.3004 154.201 83.9004C154.201 83.5004 154.101 83.1004 154.201 82.7004C154.301 82.3004 154.501 81.9004 154.701 81.5004C154.901 81.1004 155.201 80.8004 155.601 80.6004C156.001 80.4004 156.301 80.2004 156.701 80.1004C157.101 80.0004 157.501 80.0004 157.901 80.1004C158.301 80.2004 158.701 80.3004 159.101 80.6004C159.501 80.8004 159.801 81.1004 160.001 81.5004C160.201 81.9004 160.301 82.2004 160.301 82.6004L162.701 78.9004L163.701 79.5004L158.301 87.5004ZM156.101 85.1004C156.401 85.3004 156.601 85.4004 156.901 85.4004C157.201 85.4004 157.401 85.4004 157.701 85.4004C157.901 85.3004 158.201 85.2004 158.401 85.1004C158.601 84.9004 158.801 84.7004 159.001 84.5004C159.201 84.3004 159.301 84.0004 159.301 83.7004C159.401 83.4004 159.401 83.2004 159.301 82.9004C159.201 82.6004 159.201 82.4004 159.001 82.2004C158.901 82.0004 158.701 81.8004 158.401 81.6004C158.101 81.4004 157.901 81.3004 157.601 81.3004C157.301 81.3004 157.101 81.3004 156.801 81.3004C156.601 81.4004 156.301 81.5004 156.101 81.6004C155.901 81.7004 155.701 82.0004 155.501 82.2004C155.301 82.5004 155.201 82.7004 155.201 83.0004C155.101 83.3004 155.101 83.5004 155.201 83.8004C155.301 84.1004 155.301 84.3004 155.501 84.5004C155.701 84.7004 155.901 84.9004 156.101 85.1004Z" fill="white"/>
<path d="M163.1 83.6004L164 84.3004L160.4 89.1004L159.5 88.4004L163.1 83.6004ZM164.2 81.7004C164.3 81.5004 164.5 81.4004 164.8 81.4004C165 81.4004 165.2 81.4004 165.4 81.6004C165.6 81.7004 165.7 81.9004 165.7 82.2004C165.7 82.5004 165.7 82.6004 165.5 82.8004C165.3 83.0004 165.2 83.1004 164.9 83.1004C164.7 83.1004 164.5 83.1004 164.3 82.9004C164.1 82.8004 164 82.6004 164 82.3004C164 82.1004 164 81.9004 164.2 81.7004Z" fill="white"/>
<path d="M165.103 86.0996C165.503 86.0996 166.003 86.0996 166.403 86.2996C166.803 86.4996 167.203 86.6996 167.503 86.8996C167.803 87.1996 168.103 87.4996 168.303 87.7996C168.503 88.0996 168.603 88.3996 168.603 88.5996C168.603 88.8996 168.603 89.0996 168.503 89.3996C168.403 89.5996 168.303 89.8996 168.103 90.0996L166.103 92.4996C166.003 92.6996 165.803 92.7996 165.703 92.9996C165.603 93.0996 165.503 93.2996 165.403 93.3996L164.603 92.6996C164.803 92.3996 165.003 92.1996 165.203 91.9996C164.803 92.0996 164.303 92.1996 164.003 92.0996C163.603 91.9996 163.303 91.7996 162.903 91.4996C162.703 91.2996 162.503 91.0996 162.403 90.8996C162.303 90.6996 162.203 90.3996 162.103 90.1996C162.003 89.9996 162.103 89.6996 162.103 89.4996C162.103 89.2996 162.303 88.9996 162.503 88.7996C162.803 88.4996 163.003 88.2996 163.303 88.1996C163.603 88.0996 163.903 88.0996 164.303 88.1996C164.703 88.2996 165.003 88.3996 165.303 88.5996C165.703 88.7996 166.003 89.0996 166.403 89.2996L167.003 89.7996L167.203 89.5996C167.303 89.4996 167.403 89.2996 167.403 89.1996C167.503 88.9996 167.503 88.8996 167.503 88.6996C167.503 88.4996 167.403 88.3996 167.303 88.1996C167.203 87.9996 167.103 87.8996 166.903 87.6996C166.703 87.5996 166.603 87.4996 166.403 87.3996C166.203 87.2996 166.103 87.2996 165.903 87.1996C165.803 87.1996 165.603 87.0996 165.503 87.0996C165.403 87.0996 165.203 87.0996 165.103 87.0996V86.0996ZM166.103 89.9996C165.903 89.7996 165.703 89.6996 165.403 89.4996C165.203 89.2996 164.903 89.1996 164.703 89.0996C164.503 88.9996 164.203 88.9996 164.003 88.9996C163.803 88.9996 163.603 89.0996 163.503 89.2996C163.303 89.5996 163.203 89.7996 163.303 90.0996C163.403 90.3996 163.603 90.5996 163.903 90.8996C164.103 91.0996 164.403 91.1996 164.603 91.2996C164.803 91.3996 165.103 91.3996 165.303 91.2996C165.503 91.2996 165.703 91.1996 165.903 91.0996C166.103 90.9996 166.203 90.7996 166.403 90.6996L166.603 90.3996L166.103 89.9996Z" fill="white"/>
<path d="M30.1 187.9L31.3 190.8C31.5 191.2 31.5 191.5 31.6 191.9C31.6 192.2 31.6 192.6 31.6 192.9C31.5 193.2 31.4 193.5 31.2 193.7C31 193.9 30.7 194.1 30.4 194.3C29.9 194.5 29.5 194.5 29.1 194.4C28.7 194.3 28.3 194 28 193.6C28.1 193.9 28.1 194.1 28.1 194.4C28.1 194.7 28 194.9 27.9 195.2C27.8 195.4 27.6 195.7 27.4 195.9C27.2 196.1 27 196.3 26.7 196.4C26.3 196.6 26 196.6 25.6 196.6C25.2 196.6 24.9 196.5 24.6 196.3C24.3 196.1 24 195.9 23.8 195.6C23.6 195.3 23.3 194.9 23.2 194.5L22 191.6L30.1 187.9ZM23.2 192.1L23.9 193.8C24 194 24.1 194.2 24.2 194.3C24.3 194.5 24.5 194.7 24.7 194.8C24.9 194.9 25.1 195 25.3 195.1C25.5 195.1 25.8 195.1 26.1 195C26.6 194.8 26.9 194.5 27 194.1C27.1 193.7 27.1 193.2 26.8 192.6L26.1 190.9L23.2 192.1ZM27.1 190.4L27.7 191.9C27.8 192.1 27.9 192.3 28 192.5C28.1 192.7 28.3 192.8 28.4 192.9C28.6 193 28.7 193.1 28.9 193.1C29.1 193.1 29.3 193.1 29.5 193C29.8 192.9 30.1 192.6 30.2 192.3C30.3 192 30.3 191.6 30.1 191.1L29.4 189.3L27.1 190.4Z" fill="white"/>
<path d="M33.6016 194.301L34.1016 195.301L30.1016 197.401C30.5016 197.401 30.8016 197.501 31.1016 197.701C31.4016 197.901 31.7016 198.201 31.9016 198.701C32.0016 199.001 32.1016 199.201 32.2016 199.501C32.2016 199.801 32.2016 200.001 32.2016 200.301C32.2016 200.601 32.0016 200.801 31.8016 201.101C31.6016 201.301 31.3016 201.601 31.0016 201.701L27.6016 203.501L27.1016 202.501L30.3016 200.801C30.5016 200.701 30.7016 200.501 30.9016 200.401C31.0016 200.201 31.1016 200.101 31.2016 199.901C31.3016 199.701 31.3016 199.601 31.2016 199.401C31.2016 199.201 31.1016 199.101 31.0016 198.901C30.9016 198.701 30.8016 198.501 30.6016 198.401C30.4016 198.301 30.2016 198.201 30.0016 198.101C29.8016 198.001 29.5016 198.001 29.3016 198.101C29.0016 198.101 28.7016 198.201 28.4016 198.401L25.6016 199.801L25.1016 198.801L33.6016 194.301Z" fill="white"/>
<path d="M33.0992 202.601C33.4992 202.701 33.8992 202.901 34.2992 203.201C34.6992 203.501 34.8992 203.801 35.1992 204.201C35.3992 204.601 35.5992 204.901 35.6992 205.301C35.7992 205.601 35.7992 205.901 35.6992 206.201C35.5992 206.501 35.4992 206.701 35.3992 206.901C35.1992 207.101 35.0992 207.301 34.7992 207.401L32.1992 209.001C31.9992 209.101 31.8992 209.201 31.6992 209.301C31.5992 209.401 31.3992 209.501 31.2992 209.601L30.7992 208.701C30.9992 208.501 31.2992 208.301 31.5992 208.201C31.0992 208.201 30.6992 208.101 30.3992 207.901C30.0992 207.701 29.7992 207.401 29.5992 207.001C29.4992 206.801 29.2992 206.501 29.2992 206.301C29.2992 206.101 29.1992 205.801 29.1992 205.501C29.1992 205.301 29.2992 205.001 29.3992 204.801C29.4992 204.601 29.6992 204.401 29.9992 204.201C30.2992 204.001 30.6992 203.901 30.9992 203.901C31.2992 203.901 31.5992 204.001 31.8992 204.201C32.1992 204.401 32.4992 204.601 32.7992 204.901C33.0992 205.201 33.2992 205.601 33.5992 205.901L33.9992 206.601L34.1992 206.501C34.2992 206.401 34.3992 206.301 34.4992 206.201C34.5992 206.101 34.6992 205.901 34.6992 205.801C34.6992 205.601 34.6992 205.501 34.6992 205.301C34.6992 205.101 34.5992 204.901 34.4992 204.701C34.3992 204.501 34.2992 204.401 34.0992 204.201C33.8992 204.001 33.8992 204.001 33.6992 203.901C33.5992 203.801 33.3992 203.801 33.2992 203.701C33.1992 203.701 32.9992 203.601 32.8992 203.601L33.0992 202.601ZM32.6992 206.601C32.5992 206.401 32.3992 206.101 32.1992 205.901C31.9992 205.701 31.7992 205.501 31.5992 205.301C31.3992 205.101 31.1992 205.001 30.9992 205.001C30.7992 205.001 30.5992 205.001 30.3992 205.101C30.0992 205.301 29.9992 205.501 29.8992 205.801C29.8992 206.101 29.9992 206.401 30.1992 206.701C30.3992 207.001 30.5992 207.201 30.7992 207.301C30.9992 207.401 31.1992 207.501 31.3992 207.501C31.5992 207.501 31.7992 207.501 31.9992 207.401C32.1992 207.301 32.3992 207.301 32.5992 207.101L32.8992 206.901L32.6992 206.601Z" fill="white"/>
<path d="M37.8985 211.101C37.9985 210.901 37.9985 210.701 37.8985 210.401C37.8985 210.201 37.7985 209.901 37.5985 209.701C37.3985 209.501 37.2985 209.301 36.9985 209.201C36.7985 209.101 36.5985 209.101 36.3985 209.301C36.2985 209.401 36.1985 209.501 36.1985 209.701C36.1985 209.901 36.1985 210.001 36.1985 210.201C36.1985 210.401 36.2985 210.501 36.3985 210.701C36.4985 210.901 36.4985 211.001 36.5985 211.101C36.6985 211.301 36.7985 211.601 36.7985 211.801C36.7985 212.001 36.8985 212.201 36.8985 212.401C36.8985 212.601 36.7985 212.801 36.6985 213.001C36.5985 213.201 36.3985 213.401 36.1985 213.501C35.8985 213.701 35.5985 213.801 35.3985 213.801C35.1985 213.801 34.7985 213.801 34.5985 213.701C34.2985 213.601 34.0985 213.501 33.8985 213.301C33.6985 213.101 33.4985 212.901 33.2985 212.601C32.9985 212.201 32.7985 211.801 32.6985 211.401C32.5985 211.001 32.5985 210.601 32.7985 210.101L33.8985 210.401C33.8985 210.701 33.7985 210.901 33.8985 211.201C33.8985 211.501 33.9985 211.701 34.1985 212.001C34.2985 212.101 34.3985 212.201 34.4985 212.301C34.5985 212.401 34.6985 212.501 34.7985 212.501C34.8985 212.501 34.9985 212.601 35.1985 212.601C35.2985 212.601 35.3985 212.601 35.4985 212.501C35.5985 212.401 35.6985 212.301 35.6985 212.101C35.6985 211.901 35.6985 211.801 35.6985 211.601C35.6985 211.401 35.5985 211.301 35.4985 211.101C35.3985 210.901 35.3985 210.801 35.2985 210.701C35.1985 210.501 35.0985 210.201 35.0985 210.001C34.9985 209.801 34.9985 209.601 34.9985 209.301C34.9985 209.101 35.0985 208.901 35.1985 208.701C35.2985 208.501 35.4985 208.301 35.6985 208.101C35.9985 207.901 36.1985 207.801 36.4985 207.801C36.7985 207.801 36.9985 207.801 37.2985 207.901C37.5985 208.001 37.7985 208.101 37.9985 208.301C38.1985 208.501 38.3985 208.701 38.5985 208.901C38.7985 209.201 38.9985 209.601 39.0985 210.001C39.1985 210.401 39.1985 210.801 38.9985 211.201L37.8985 211.101Z" fill="white"/>
<path d="M43.1992 209.801L43.8992 210.701L40.3992 213.601C40.6992 213.501 41.0992 213.501 41.4992 213.701C41.8992 213.801 42.1992 214.101 42.4992 214.501C42.6992 214.701 42.7992 215.001 42.8992 215.201C42.9992 215.501 42.9992 215.701 42.9992 216.001C42.9992 216.301 42.8992 216.501 42.7992 216.801C42.6992 217.101 42.3992 217.301 42.0992 217.601L39.0992 220.101L38.3992 219.201L41.0992 216.901C41.2992 216.701 41.4992 216.501 41.5992 216.301C41.6992 216.101 41.7992 215.901 41.7992 215.801C41.7992 215.601 41.7992 215.501 41.6992 215.301C41.5992 215.101 41.4992 215.001 41.3992 214.901C41.1992 214.701 41.0992 214.601 40.8992 214.501C40.6992 214.401 40.4992 214.301 40.2992 214.301C40.0992 214.301 39.7992 214.301 39.5992 214.401C39.3992 214.501 39.0992 214.701 38.7992 214.901L36.3992 216.901L35.6992 216.001L43.1992 209.801Z" fill="white"/>
<path d="M44.4984 218C44.8984 218 45.3985 218.1 45.7985 218.3C46.1985 218.5 46.5984 218.8 46.8984 219.1C47.1984 219.4 47.3984 219.7 47.5984 220C47.6984 220.3 47.7985 220.6 47.7985 220.9C47.7985 221.2 47.7985 221.4 47.6985 221.7C47.5985 222 47.3985 222.2 47.2985 222.3L45.0984 224.5C44.8984 224.6 44.7985 224.8 44.6985 224.9C44.5985 225 44.4984 225.2 44.3984 225.3L43.6985 224.6C43.8985 224.4 44.0985 224.1 44.2985 223.9C43.7985 224 43.3984 224 43.0984 223.8C42.6984 223.7 42.3984 223.4 42.0984 223.1C41.8984 222.9 41.6984 222.7 41.5984 222.4C41.4984 222.1 41.3984 221.9 41.3984 221.7C41.3984 221.5 41.3984 221.2 41.4984 221C41.5984 220.8 41.6984 220.5 41.8984 220.3C42.1984 220 42.4985 219.9 42.7985 219.8C43.0985 219.7 43.3985 219.8 43.7985 219.9C44.0985 220 44.4985 220.2 44.7985 220.4C45.0985 220.6 45.4985 220.9 45.7985 221.2L46.3984 221.8L46.5984 221.6C46.6984 221.5 46.7984 221.4 46.8984 221.2C46.9984 221 46.9984 220.9 46.9984 220.7C46.9984 220.5 46.9984 220.4 46.8984 220.2C46.7984 220 46.6984 219.8 46.4984 219.7C46.2984 219.5 46.1984 219.4 45.9984 219.3C45.7984 219.2 45.6984 219.1 45.5984 219.1C45.4984 219 45.2985 219 45.1985 219C45.0985 219 44.8985 219 44.7985 218.9L44.4984 218ZM45.0984 221.9C44.8984 221.7 44.6984 221.5 44.4984 221.3C44.2984 221.1 44.0985 221 43.7985 220.9C43.4985 220.8 43.3984 220.7 43.0984 220.7C42.8984 220.7 42.6984 220.8 42.4984 221C42.2984 221.2 42.1985 221.5 42.1985 221.8C42.2985 222.1 42.3985 222.4 42.6985 222.6C42.8985 222.8 43.0984 223 43.3984 223.1C43.5984 223.2 43.8984 223.2 44.0984 223.2C44.2984 223.2 44.4985 223.1 44.6985 223C44.8985 222.9 45.0985 222.8 45.1985 222.6L45.4984 222.3L45.0984 221.9Z" fill="white"/>
<path d="M53.8017 227.5C53.8017 227.3 53.8017 227.1 53.7017 226.8C53.6017 226.6 53.5017 226.4 53.2017 226.2C53.0017 226 52.8017 225.9 52.5017 225.9C52.3017 225.9 52.1017 225.9 51.9017 226.1C51.8017 226.2 51.7017 226.4 51.8017 226.5C51.9017 226.6 51.9017 226.8 51.9017 227C52.0017 227.2 52.1017 227.3 52.2017 227.4C52.3017 227.5 52.4017 227.7 52.5017 227.8C52.7017 228 52.8017 228.2 52.9017 228.4C53.0017 228.6 53.1017 228.8 53.1017 229C53.1017 229.2 53.1017 229.4 53.1017 229.6C53.0017 229.8 52.9017 230 52.8017 230.2C52.6017 230.5 52.3017 230.6 52.1017 230.7C51.8017 230.8 51.6017 230.8 51.3017 230.8C51.0017 230.8 50.8017 230.7 50.5017 230.6C50.2017 230.5 50.0017 230.3 49.7017 230.1C49.3017 229.8 49.0017 229.4 48.8017 229.1C48.6017 228.8 48.5017 228.3 48.6017 227.8H49.7017C49.7017 228.1 49.8017 228.3 49.9017 228.6C50.0017 228.9 50.2017 229.1 50.4017 229.3C50.5017 229.4 50.6017 229.5 50.8017 229.5C51.0017 229.5 51.1017 229.6 51.2017 229.6C51.3017 229.6 51.5017 229.6 51.6017 229.6C51.7017 229.6 51.8017 229.5 51.9017 229.4C52.0017 229.3 52.1017 229.1 52.0017 229C52.0017 228.8 51.9017 228.7 51.9017 228.6C51.8017 228.5 51.7017 228.3 51.6017 228.2C51.5017 228.1 51.4017 227.9 51.3017 227.8C51.1017 227.6 51.0017 227.4 50.9017 227.2C50.8017 227 50.7017 226.8 50.6017 226.6C50.5017 226.4 50.5017 226.2 50.6017 226C50.7017 225.8 50.8017 225.6 50.9017 225.3C51.1017 225.1 51.3017 224.9 51.6017 224.8C51.9017 224.7 52.1017 224.7 52.4017 224.7C52.7017 224.7 52.9017 224.8 53.2017 224.9C53.5017 225 53.7017 225.2 53.9017 225.3C54.2017 225.6 54.5017 225.9 54.7017 226.2C54.9017 226.6 55.0017 226.9 54.9017 227.4L53.8017 227.5Z" fill="white"/>
<path d="M56.2 228.5C56.6 228.4 57.1 228.5 57.5 228.6C57.9 228.7 58.3 228.9 58.7 229.2C59.1 229.5 59.3 229.7 59.5 230C59.7 230.3 59.8 230.5 59.9 230.8C60 231.1 60 231.3 59.9 231.6C59.8 231.9 59.7 232.1 59.6 232.3L57.8 234.8C57.7 235 57.6 235.1 57.5 235.3C57.4 235.5 57.3 235.6 57.2 235.7L56.4 235.1C56.6 234.8 56.7 234.6 56.9 234.3C56.5 234.5 56.1 234.5 55.7 234.5C55.3 234.5 54.9 234.3 54.6 234C54.4 233.8 54.2 233.7 54 233.4C53.8 233.2 53.7 233 53.7 232.7C53.6 232.5 53.6 232.2 53.7 232C53.7 231.8 53.8 231.5 54 231.3C54.2 231 54.5 230.8 54.8 230.7C55.1 230.6 55.4 230.5 55.8 230.6C56.2 230.7 56.5 230.7 56.9 230.9C57.3 231.1 57.6 231.3 58 231.6L58.7 232.1L58.8 231.9C58.9 231.8 59 231.6 59 231.5C59 231.4 59 231.2 59 231C59 230.8 58.9 230.7 58.8 230.5C58.7 230.3 58.5 230.2 58.3 230C58.1 229.9 57.9 229.8 57.8 229.7C57.6 229.6 57.5 229.6 57.3 229.6C57.2 229.6 57 229.6 56.9 229.6C56.8 229.6 56.6 229.6 56.5 229.6L56.2 228.5ZM57.4 232.3C57.2 232.1 56.9 232 56.7 231.9C56.5 231.8 56.2 231.7 56 231.6C55.8 231.5 55.5 231.5 55.3 231.6C55.1 231.6 54.9 231.8 54.8 231.9C54.6 232.2 54.5 232.5 54.6 232.7C54.7 233 54.9 233.2 55.2 233.4C55.5 233.6 55.7 233.7 55.9 233.7C56.1 233.7 56.4 233.7 56.6 233.7C56.8 233.6 57 233.5 57.2 233.4C57.4 233.3 57.5 233.1 57.6 232.9L57.8 232.6L57.4 232.3Z" fill="white"/>
<path d="M61.7992 231.601L62.6992 232.101L62.1992 232.901C62.2992 232.801 62.3992 232.801 62.4992 232.701C62.6992 232.601 62.7992 232.601 62.9992 232.601C63.1992 232.601 63.3992 232.601 63.6992 232.601C63.9992 232.601 64.1992 232.701 64.3992 232.901C64.7992 233.101 65.0992 233.401 65.1992 233.701C65.3992 234.001 65.4992 234.401 65.3992 234.801C65.7992 234.601 66.0992 234.501 66.4992 234.501C66.8992 234.501 67.2992 234.601 67.5992 234.801C67.9992 235.001 68.2992 235.301 68.4992 235.601C68.6992 235.901 68.7992 236.201 68.7992 236.501C68.7992 236.801 68.7992 237.101 68.6992 237.401C68.5992 237.701 68.4992 238.001 68.2992 238.301L66.4992 241.401L65.4992 240.801L67.1992 237.901C67.2992 237.701 67.3992 237.501 67.4992 237.301C67.5992 237.101 67.5992 236.901 67.5992 236.701C67.5992 236.501 67.4992 236.301 67.4992 236.201C67.3992 236.001 67.1992 235.901 66.9992 235.701C66.4992 235.401 66.0992 235.401 65.6992 235.601C65.2992 235.801 64.9992 236.101 64.6992 236.601L63.0992 239.501L62.0992 238.901L63.6992 236.201C63.7992 235.901 63.9992 235.701 64.0992 235.501C64.1992 235.301 64.1992 235.101 64.2992 234.901C64.2992 234.701 64.2992 234.501 64.1992 234.401C64.0992 234.201 63.8992 234.101 63.6992 233.901C63.4992 233.801 63.2992 233.701 63.0992 233.701C62.8992 233.701 62.6992 233.701 62.4992 233.801C62.2992 233.901 62.0992 234.001 61.8992 234.201C61.6992 234.401 61.4992 234.601 61.2992 234.901L59.6992 237.601L58.6992 237.001L61.7992 231.601Z" fill="white"/>
<path d="M70.9008 237.501C71.3008 237.401 71.7008 237.301 72.2008 237.301C72.6008 237.301 73.1008 237.401 73.5008 237.601C73.9008 237.801 74.2008 238.001 74.5008 238.201C74.7008 238.401 74.9008 238.701 75.0008 238.901C75.1008 239.201 75.2008 239.401 75.1008 239.701C75.1008 240.001 75.0008 240.201 74.9008 240.501L73.6008 243.301C73.5008 243.501 73.4008 243.701 73.4008 243.801C73.3008 244.001 73.3008 244.101 73.2008 244.301L72.3008 243.901C72.4008 243.601 72.5008 243.301 72.6008 243.001C72.2008 243.301 71.8008 243.401 71.4008 243.401C71.0008 243.401 70.6008 243.301 70.2008 243.101C69.9008 243.001 69.7008 242.801 69.5008 242.701C69.3008 242.501 69.1008 242.301 69.0008 242.101C68.9008 241.901 68.8008 241.601 68.8008 241.401C68.8008 241.201 68.8008 240.901 69.0008 240.601C69.2008 240.201 69.4008 240.001 69.6008 239.801C69.9008 239.601 70.2008 239.501 70.5008 239.501C70.8008 239.501 71.2008 239.501 71.6008 239.601C72.0008 239.701 72.4008 239.801 72.8008 240.001L73.6008 240.301L73.7008 240.101C73.8008 240.001 73.8008 239.801 73.8008 239.601C73.8008 239.401 73.8008 239.301 73.7008 239.101C73.6008 238.901 73.5008 238.801 73.4008 238.601C73.3008 238.401 73.1008 238.301 72.9008 238.201C72.7008 238.101 72.5008 238.001 72.3008 238.001C72.1008 238.001 72.0008 238.001 71.8008 238.001C71.6008 238.001 71.5008 238.001 71.4008 238.101C71.3008 238.201 71.1008 238.201 71.0008 238.201L70.9008 237.501ZM72.9008 241.001C72.7008 240.901 72.4008 240.801 72.1008 240.701C71.8008 240.601 71.6008 240.601 71.3008 240.501C71.1008 240.501 70.8008 240.501 70.6008 240.601C70.4008 240.701 70.3008 240.801 70.2008 241.001C70.1008 241.301 70.1008 241.601 70.2008 241.801C70.4008 242.001 70.6008 242.201 71.0008 242.401C71.3008 242.501 71.6008 242.601 71.8008 242.601C72.0008 242.601 72.3008 242.501 72.5008 242.401C72.7008 242.301 72.9008 242.201 73.0008 242.001C73.1008 241.801 73.3008 241.701 73.3008 241.501L73.5008 241.201L72.9008 241.001Z" fill="white"/>
<path d="M77.2015 239.4L78.3016 239.8L78.0016 240.7C78.1016 240.6 78.3016 240.5 78.4016 240.4C78.6016 240.3 78.7016 240.3 78.9016 240.2C79.1016 240.2 79.3016 240.2 79.5016 240.2C79.7016 240.2 79.9016 240.3 80.1016 240.3C80.3016 240.4 80.4016 240.4 80.6016 240.6L80.1016 241.7C80.0016 241.6 79.9016 241.6 79.9016 241.5C79.8016 241.5 79.7016 241.4 79.6016 241.4C79.1016 241.2 78.6015 241.2 78.2015 241.4C77.8015 241.6 77.5016 242 77.3016 242.6L76.2015 245.4L75.1016 245L77.2015 239.4Z" fill="white"/>
<path d="M84.4008 242.9L82.8008 242.4L82.0008 245C81.9008 245.2 81.9008 245.3 81.9008 245.5C81.9008 245.7 81.8008 245.8 81.9008 246C81.9008 246.1 82.0008 246.3 82.0008 246.4C82.1008 246.5 82.2008 246.6 82.4008 246.7C82.5008 246.7 82.7008 246.8 82.8008 246.8C82.9008 246.8 83.1007 246.8 83.2007 246.8L82.9008 247.8C82.7008 247.8 82.6008 247.8 82.3008 247.8C82.0008 247.8 81.9008 247.7 81.8008 247.7C81.4008 247.6 81.1008 247.4 80.9008 247.2C80.7008 247 80.6008 246.8 80.5008 246.6C80.4008 246.4 80.4008 246.1 80.5008 245.9C80.6008 245.7 80.6007 245.4 80.7007 245.2L81.6008 242.2L80.3008 241.8L80.6008 240.9L81.9008 241.3L82.4008 239.7L83.5008 240L83.0008 241.6L84.6008 242.1L84.4008 242.9Z" fill="white"/>
<path d="M86.8 238.801L87.9 239.101L86.8 243.501C87 243.201 87.3 243.001 87.7 242.901C88.1 242.801 88.5 242.801 89 242.901C89.3 243.001 89.5 243.101 89.8 243.201C90.1 243.301 90.2 243.501 90.4 243.801C90.5 244.001 90.6 244.301 90.7 244.601C90.7 244.901 90.7 245.301 90.6 245.701L89.7 249.501L88.6 249.201L89.4 245.701C89.5 245.401 89.5 245.201 89.5 245.001C89.5 244.801 89.4 244.601 89.3 244.501C89.2 244.401 89.1 244.201 88.9 244.101C88.8 244.001 88.6 243.901 88.4 243.901C88.2 243.801 87.9 243.801 87.7 243.901C87.5 243.901 87.3 244.001 87.1 244.101C86.9 244.201 86.7 244.401 86.6 244.601C86.5 244.801 86.3 245.101 86.3 245.401L85.6 248.401L84.5 248.101L86.8 238.801Z" fill="white"/>
<path d="M92.7015 244.7C93.1015 244.5 93.5015 244.3 93.9015 244.2C94.3015 244.1 94.8015 244.1 95.2015 244.2C95.6015 244.3 96.0016 244.4 96.3016 244.5C96.6016 244.6 96.8016 244.8 97.0016 245.1C97.2016 245.3 97.3016 245.6 97.3016 245.8C97.3016 246 97.4016 246.3 97.3016 246.6L96.8016 249.6C96.8016 249.8 96.7015 250 96.7015 250.2C96.7015 250.4 96.7015 250.5 96.7015 250.7L95.7015 250.5C95.7015 250.2 95.8016 249.9 95.8016 249.6C95.5016 249.9 95.1016 250.2 94.8016 250.3C94.4016 250.4 94.0016 250.4 93.6016 250.3C93.3016 250.3 93.1016 250.2 92.8016 250.1C92.6016 250 92.4015 249.8 92.2015 249.7C92.0015 249.5 91.9016 249.3 91.8016 249.1C91.7016 248.9 91.7016 248.6 91.8016 248.3C91.9016 247.9 92.0015 247.6 92.2015 247.4C92.4015 247.2 92.7016 247 93.0016 246.9C93.3016 246.8 93.7016 246.7 94.1016 246.7C94.5016 246.7 94.9015 246.7 95.4015 246.8L96.2015 246.9V246.6C96.2015 246.4 96.2015 246.3 96.2015 246.1C96.2015 245.9 96.1016 245.8 96.0016 245.6C95.9016 245.4 95.8016 245.3 95.6016 245.2C95.4016 245.1 95.2016 245 95.0016 245C94.8016 245 94.6015 245 94.4015 245C94.2015 245 94.1015 245 93.9015 245.1C93.8015 245.1 93.6016 245.2 93.5016 245.3C93.4016 245.4 93.3016 245.4 93.1016 245.5L92.7015 244.7ZM95.5016 247.5C95.2016 247.5 95.0015 247.4 94.7015 247.4C94.4015 247.4 94.1015 247.4 93.9015 247.4C93.7015 247.4 93.4016 247.5 93.3016 247.7C93.1016 247.8 93.0016 248 93.0016 248.2C92.9016 248.5 93.0015 248.8 93.2015 249C93.4015 249.2 93.7016 249.3 94.1016 249.4C94.4016 249.4 94.7015 249.4 94.9015 249.4C95.1015 249.4 95.3016 249.2 95.5016 249.1C95.7016 249 95.8015 248.8 95.9015 248.6C96.0015 248.4 96.1016 248.2 96.1016 248L96.2015 247.6L95.5016 247.5Z" fill="white"/>
<path d="M99.5008 241.301L100.601 241.401L100.101 247.601L102.901 245.201L104.501 245.301L101.501 247.801L104.301 251.301L102.701 251.201L100.201 247.801L99.9008 250.901L98.8008 250.801L99.5008 241.301Z" fill="white"/>
<path d="M109.301 247C109.301 246.7 109.301 246.4 109.501 246.1C109.601 245.8 109.801 245.6 110.001 245.4C110.201 245.2 110.401 245 110.701 244.9C111.001 244.8 111.301 244.7 111.601 244.7C111.901 244.7 112.201 244.7 112.501 244.9C112.801 245 113.001 245.2 113.201 245.4C113.401 245.6 113.601 245.8 113.701 246.1C113.801 246.4 113.901 246.7 113.901 247C113.901 247.3 113.901 247.6 113.701 247.9C113.601 248.2 113.401 248.4 113.201 248.6C113.001 248.8 112.801 249 112.501 249.1C112.201 249.2 111.901 249.3 111.601 249.3C111.301 249.3 111.001 249.3 110.701 249.1C110.401 249 110.201 248.8 110.001 248.6C109.801 248.4 109.601 248.2 109.501 247.9C109.401 247.6 109.301 247.3 109.301 247Z" fill="white"/>
<path d="M126.898 244.801L127.599 249.201C127.399 249.401 127.198 249.501 126.898 249.701C126.598 249.801 126.399 250.001 126.099 250.101C125.799 250.201 125.498 250.301 125.198 250.401C124.898 250.501 124.599 250.501 124.299 250.601C123.499 250.701 122.798 250.701 122.198 250.501C121.598 250.301 120.999 250.101 120.499 249.701C119.999 249.301 119.599 248.901 119.299 248.401C118.999 247.901 118.798 247.301 118.698 246.701C118.598 246.001 118.599 245.401 118.799 244.801C118.899 244.201 119.199 243.601 119.499 243.201C119.799 242.701 120.299 242.301 120.799 242.001C121.299 241.701 121.899 241.501 122.599 241.301C123.399 241.201 124.098 241.201 124.698 241.301C125.298 241.401 125.699 241.601 126.099 241.901L125.398 243.001C124.998 242.701 124.499 242.501 124.099 242.401C123.699 242.301 123.199 242.301 122.799 242.401C122.299 242.501 121.799 242.601 121.499 242.901C121.099 243.201 120.799 243.501 120.599 243.801C120.399 244.201 120.199 244.601 120.099 245.001C119.999 245.501 119.999 245.901 120.099 246.401C120.199 246.901 120.299 247.401 120.599 247.801C120.799 248.201 121.099 248.501 121.499 248.801C121.899 249.101 122.298 249.301 122.698 249.401C123.098 249.501 123.599 249.501 124.099 249.501C124.499 249.401 124.899 249.301 125.299 249.201C125.699 249.101 125.998 248.901 126.198 248.701L125.799 246.201L123.799 246.501L123.599 245.401L126.898 244.801Z" fill="white"/>
<path d="M128.998 246.4C128.898 246 128.898 245.6 128.898 245.1C128.998 244.7 129.098 244.3 129.298 244C129.498 243.6 129.798 243.3 130.098 243.1C130.398 242.8 130.798 242.7 131.298 242.5C131.698 242.4 132.198 242.4 132.598 242.4C132.998 242.5 133.398 242.6 133.798 242.8C134.198 243 134.498 243.3 134.698 243.6C134.998 243.9 135.098 244.3 135.298 244.7C135.398 245.1 135.398 245.5 135.398 246C135.298 246.4 135.198 246.8 134.998 247.1C134.798 247.4 134.498 247.8 134.198 248C133.898 248.3 133.498 248.4 132.998 248.6C132.598 248.7 132.098 248.7 131.698 248.7C131.298 248.6 130.898 248.5 130.498 248.3C130.098 248.1 129.798 247.8 129.598 247.5C129.298 247.2 129.098 246.8 128.998 246.4ZM130.198 246.1C130.298 246.4 130.398 246.7 130.498 246.9C130.598 247.1 130.798 247.3 130.998 247.4C131.198 247.5 131.398 247.6 131.698 247.7C131.998 247.8 132.198 247.7 132.498 247.6C132.798 247.5 133.098 247.4 133.298 247.2C133.498 247 133.698 246.8 133.798 246.6C133.898 246.4 133.998 246.1 133.998 245.9C133.998 245.6 133.998 245.3 133.898 245C133.798 244.7 133.698 244.4 133.598 244.2C133.398 244 133.298 243.8 133.098 243.7C132.898 243.6 132.698 243.5 132.398 243.4C132.098 243.4 131.898 243.4 131.598 243.5C131.298 243.6 130.998 243.7 130.798 243.9C130.598 244.1 130.398 244.3 130.298 244.5C130.198 244.7 130.098 245 130.098 245.2C130.098 245.4 130.098 245.8 130.198 246.1Z" fill="white"/>
<path d="M134.699 238.001L135.799 237.601L138.799 246.801L137.699 247.201L134.699 238.001Z" fill="white"/>
<path d="M146.402 243.901L145.302 244.301L145.002 243.501C144.902 243.901 144.702 244.201 144.402 244.501C144.102 244.801 143.802 245.001 143.402 245.201C143.002 245.401 142.502 245.401 142.102 245.401C141.702 245.401 141.302 245.301 141.002 245.101C140.602 244.901 140.302 244.701 140.102 244.401C139.802 244.101 139.602 243.701 139.402 243.301C139.202 242.901 139.102 242.501 139.102 242.101C139.102 241.701 139.202 241.301 139.302 240.901C139.402 240.501 139.702 240.201 140.002 239.901C140.302 239.601 140.702 239.401 141.102 239.201C141.502 239.001 141.902 239.001 142.302 239.001C142.702 239.001 143.102 239.201 143.402 239.401L141.802 235.201L142.902 234.801L146.402 243.901ZM143.202 244.201C143.502 244.101 143.702 243.901 143.902 243.701C144.102 243.501 144.202 243.301 144.302 243.101C144.402 242.901 144.402 242.601 144.402 242.301C144.402 242.001 144.302 241.701 144.202 241.501C144.102 241.201 143.902 241.001 143.802 240.801C143.602 240.601 143.402 240.401 143.202 240.301C143.002 240.201 142.702 240.101 142.502 240.101C142.302 240.101 142.002 240.101 141.702 240.301C141.402 240.401 141.202 240.601 141.002 240.801C140.802 241.001 140.702 241.201 140.602 241.401C140.502 241.601 140.502 241.901 140.502 242.201C140.502 242.501 140.602 242.801 140.702 243.001C140.802 243.201 141.002 243.501 141.102 243.701C141.302 243.901 141.502 244.101 141.702 244.201C141.902 244.301 142.202 244.401 142.402 244.401C142.602 244.401 142.902 244.301 143.202 244.201Z" fill="white"/>
<path d="M154.102 232.101C153.702 231.901 153.302 231.901 152.902 231.901C152.502 231.901 152.102 232.101 151.702 232.301C151.302 232.501 150.902 232.901 150.602 233.201C150.302 233.601 150.202 234.001 150.102 234.401C150.002 234.801 150.002 235.301 150.102 235.801C150.202 236.301 150.302 236.701 150.602 237.201C150.802 237.601 151.102 238.001 151.502 238.301C151.902 238.601 152.202 238.801 152.602 239.001C153.002 239.201 153.402 239.201 153.902 239.201C154.402 239.201 154.802 239.001 155.302 238.801C155.802 238.501 156.102 238.201 156.302 237.901C156.502 237.601 156.702 237.101 156.702 236.601L158.002 236.801C158.002 236.901 157.902 237.101 157.902 237.301C157.802 237.501 157.702 237.801 157.602 238.101C157.502 238.401 157.202 238.701 156.902 239.001C156.602 239.301 156.302 239.601 155.802 239.801C155.202 240.101 154.502 240.301 153.902 240.401C153.302 240.401 152.702 240.401 152.102 240.201C151.502 240.001 151.002 239.701 150.602 239.301C150.102 238.901 149.802 238.501 149.502 238.001C149.202 237.401 148.902 236.801 148.902 236.101C148.802 235.501 148.802 234.901 149.002 234.301C149.202 233.701 149.402 233.201 149.802 232.701C150.202 232.201 150.702 231.801 151.302 231.501C151.802 231.201 152.402 231.001 153.002 230.901C153.602 230.801 154.202 230.901 154.702 231.101L154.102 232.101Z" fill="white"/>
<path d="M158.001 234.401C157.801 234.001 157.601 233.601 157.501 233.201C157.401 232.801 157.401 232.401 157.501 232.001C157.601 231.601 157.701 231.201 158.001 230.901C158.201 230.501 158.501 230.201 158.901 230.001C159.301 229.701 159.701 229.601 160.101 229.501C160.501 229.401 160.901 229.401 161.301 229.501C161.701 229.601 162.101 229.701 162.401 229.901C162.701 230.101 163.101 230.401 163.301 230.801C163.501 231.201 163.701 231.601 163.801 232.001C163.901 232.401 163.901 232.801 163.801 233.201C163.701 233.601 163.601 234.001 163.301 234.301C163.101 234.701 162.801 235.001 162.401 235.201C162.001 235.501 161.601 235.601 161.201 235.701C160.801 235.801 160.401 235.801 160.001 235.701C159.601 235.601 159.201 235.501 158.901 235.301C158.501 235.101 158.201 234.801 158.001 234.401ZM159.001 233.701C159.201 234.001 159.401 234.201 159.601 234.301C159.801 234.501 160.101 234.601 160.301 234.601C160.501 234.601 160.801 234.701 161.101 234.601C161.401 234.501 161.601 234.401 161.901 234.301C162.201 234.101 162.401 233.901 162.501 233.701C162.601 233.501 162.701 233.201 162.801 233.001C162.801 232.801 162.801 232.501 162.801 232.201C162.801 231.901 162.601 231.701 162.401 231.401C162.201 231.101 162.001 230.901 161.801 230.801C161.601 230.601 161.301 230.501 161.101 230.501C160.901 230.401 160.601 230.401 160.301 230.501C160.001 230.601 159.801 230.701 159.501 230.801C159.201 231.001 159.001 231.201 158.901 231.401C158.801 231.601 158.701 231.901 158.601 232.101C158.601 232.301 158.601 232.601 158.601 232.901C158.701 233.201 158.801 233.501 159.001 233.701Z" fill="white"/>
<path d="M162.602 227.5L163.502 226.8L164.102 227.5C164.002 227.2 164.002 226.8 164.202 226.4C164.402 226 164.602 225.7 165.002 225.4C165.202 225.2 165.502 225.1 165.702 225C166.002 224.9 166.202 224.9 166.502 224.9C166.802 224.9 167.002 225 167.302 225.2C167.602 225.4 167.802 225.6 168.102 225.9L170.602 228.9L169.702 229.6L167.402 226.8C167.202 226.6 167.002 226.4 166.902 226.3C166.802 226.2 166.502 226.1 166.402 226.1C166.202 226.1 166.102 226.1 165.902 226.2C165.702 226.3 165.602 226.3 165.402 226.5C165.202 226.7 165.102 226.8 165.002 227C164.902 227.2 164.802 227.4 164.802 227.6C164.802 227.8 164.802 228.1 164.902 228.3C165.002 228.6 165.202 228.8 165.402 229.1L167.402 231.5L166.502 232.2L162.602 227.5Z" fill="white"/>
<path d="M171.001 221.5L169.801 222.6L171.701 224.6C171.801 224.7 171.901 224.8 172.101 225C172.201 225.1 172.301 225.2 172.501 225.3C172.601 225.4 172.801 225.4 172.901 225.4C173.001 225.4 173.201 225.3 173.401 225.1C173.501 225 173.601 224.9 173.701 224.8C173.801 224.7 173.901 224.6 173.901 224.4L174.601 225.2C174.601 225.3 174.501 225.5 174.301 225.7C174.101 225.9 174.001 226 174.001 226.1C173.701 226.4 173.401 226.6 173.101 226.7C172.801 226.8 172.601 226.8 172.401 226.7C172.201 226.6 172.001 226.5 171.801 226.4C171.601 226.3 171.401 226.1 171.301 225.9L169.201 223.6L168.201 224.5L167.501 223.8L168.501 222.9L167.301 221.7L168.101 220.9L169.301 222.1L170.501 221L171.001 221.5Z" fill="white"/>
<path d="M171.301 219.801L172.101 219.001L172.801 219.601C172.701 219.401 172.701 219.301 172.701 219.101C172.701 218.901 172.701 218.701 172.801 218.601C172.801 218.401 172.901 218.201 173.001 218.101C173.101 217.901 173.201 217.801 173.301 217.601C173.401 217.501 173.601 217.401 173.701 217.301L174.601 218.201C174.501 218.201 174.401 218.301 174.401 218.401C174.301 218.501 174.301 218.501 174.201 218.601C173.801 219.001 173.601 219.401 173.601 219.901C173.601 220.301 173.901 220.801 174.301 221.201L176.501 223.301L175.701 224.101L171.301 219.801Z" fill="white"/>
<path d="M172.8 215.101C172.6 214.901 172.5 214.801 172.5 214.501C172.5 214.301 172.6 214.101 172.7 213.901C172.8 213.701 173 213.601 173.3 213.601C173.5 213.601 173.7 213.701 173.9 213.801C174.1 213.901 174.2 214.101 174.2 214.401C174.2 214.601 174.1 214.801 174 215.001C173.9 215.201 173.7 215.301 173.4 215.301C173.2 215.401 172.9 215.301 172.8 215.101ZM174.6 216.401L175.4 215.501L179.9 219.501L179.1 220.401L174.6 216.401Z" fill="white"/>
<path d="M173.699 212L174.399 211.1L177.899 213.9C177.799 213.5 177.799 213.2 177.899 212.7C177.999 212.3 178.199 211.9 178.399 211.6C178.699 211.2 178.999 210.9 179.399 210.8C179.799 210.7 180.099 210.5 180.499 210.5C180.899 210.5 181.299 210.5 181.699 210.6C182.099 210.7 182.499 210.9 182.799 211.2C183.199 211.5 183.399 211.8 183.599 212.1C183.799 212.5 183.899 212.8 183.999 213.2C184.099 213.6 183.999 214 183.899 214.4C183.799 214.8 183.599 215.2 183.299 215.5C182.999 215.8 182.699 216.1 182.399 216.3C181.999 216.5 181.599 216.6 181.199 216.6L181.899 217.1L181.199 218L173.699 212ZM182.499 214.9C182.699 214.7 182.799 214.4 182.899 214.1C182.999 213.8 182.999 213.6 182.899 213.3C182.899 213.1 182.799 212.8 182.599 212.6C182.499 212.4 182.299 212.2 181.999 212C181.799 211.8 181.499 211.7 181.199 211.6C180.899 211.5 180.699 211.5 180.399 211.5C180.199 211.5 179.899 211.6 179.699 211.7C179.499 211.8 179.299 212 179.099 212.3C178.899 212.5 178.799 212.8 178.699 213.1C178.599 213.4 178.599 213.6 178.699 213.9C178.699 214.1 178.799 214.4 178.999 214.6C179.199 214.8 179.299 215 179.599 215.2C179.799 215.4 180.099 215.5 180.399 215.6C180.699 215.7 180.899 215.7 181.199 215.7C181.399 215.7 181.699 215.6 181.899 215.5C182.099 215.4 182.299 215.2 182.499 214.9Z" fill="white"/>
<path d="M189.199 207L188.599 208L187.799 207.5C187.999 207.8 188.099 208.2 187.999 208.6C187.899 209 187.799 209.4 187.599 209.8C187.399 210 187.199 210.3 186.999 210.4C186.799 210.6 186.499 210.7 186.299 210.8C185.999 210.9 185.699 210.9 185.399 210.8C185.099 210.7 184.799 210.6 184.399 210.4L181.199 208.3L181.799 207.3L184.799 209.3C184.999 209.5 185.299 209.6 185.499 209.6C185.699 209.6 185.899 209.6 186.099 209.6C186.299 209.6 186.399 209.5 186.599 209.4C186.799 209.3 186.899 209.2 186.999 209C187.099 208.8 187.199 208.6 187.299 208.4C187.299 208.2 187.299 208 187.299 207.8C187.199 207.6 187.099 207.4 186.999 207.2C186.799 207 186.599 206.8 186.299 206.6L183.699 204.9L184.299 203.9L189.199 207Z" fill="white"/>
<path d="M187.402 199.901L186.602 201.301L189.002 202.701C189.102 202.801 189.302 202.901 189.402 202.901C189.502 202.901 189.702 203.001 189.802 203.001C189.902 203.001 190.102 203.001 190.202 202.901C190.302 202.801 190.402 202.701 190.602 202.501C190.702 202.401 190.702 202.301 190.802 202.101C190.902 201.901 190.902 201.801 190.902 201.701L191.802 202.201C191.802 202.401 191.802 202.501 191.702 202.701C191.602 202.901 191.502 203.101 191.502 203.201C191.302 203.601 191.102 203.901 190.802 204.001C190.502 204.101 190.302 204.201 190.102 204.201C189.902 204.201 189.602 204.201 189.402 204.101C189.202 204.001 189.002 203.901 188.702 203.801L186.002 202.201L185.302 203.401L184.402 202.901L185.102 201.701L183.602 200.901L184.202 199.901L185.702 200.701L186.502 199.301L187.402 199.901Z" fill="white"/>
<path d="M189.8 199.8C189.4 199.6 189.1 199.4 188.8 199C188.5 198.7 188.3 198.3 188.2 197.9C188.1 197.5 188 197.1 188 196.7C188 196.3 188.1 195.9 188.3 195.5C188.5 195.1 188.8 194.7 189.1 194.5C189.4 194.3 189.8 194 190.2 193.9C190.6 193.8 191 193.7 191.4 193.7C191.8 193.7 192.2 193.8 192.6 194C193 194.2 193.3 194.4 193.6 194.8C193.9 195.2 194.1 195.5 194.2 195.9C194.3 196.3 194.4 196.7 194.4 197.1C194.4 197.5 194.3 197.9 194.1 198.3C193.9 198.7 193.6 199.1 193.3 199.3C193 199.5 192.6 199.8 192.2 199.9C191.8 200 191.4 200.1 191 200.1C190.6 200.1 190.2 200 189.8 199.8ZM190.3 198.7C190.6 198.8 190.9 198.9 191.1 198.9C191.4 198.9 191.6 198.9 191.9 198.8C192.1 198.7 192.4 198.6 192.6 198.4C192.8 198.2 193 198 193.1 197.7C193.2 197.4 193.3 197.2 193.3 196.9C193.3 196.6 193.3 196.4 193.2 196.1C193.1 195.9 193 195.7 192.8 195.5C192.6 195.3 192.4 195.1 192.1 195C191.8 194.9 191.5 194.8 191.3 194.8C191 194.8 190.8 194.8 190.5 194.9C190.2 195 190 195.1 189.8 195.3C189.6 195.5 189.4 195.7 189.3 196C189.2 196.3 189.1 196.5 189.1 196.8C189.1 197.1 189.1 197.3 189.2 197.6C189.3 197.8 189.4 198 189.6 198.2C189.8 198.4 190.1 198.6 190.3 198.7Z" fill="white"/>
<path d="M190.398 191.401L190.798 190.301L191.698 190.601C191.598 190.501 191.498 190.301 191.398 190.201C191.298 190.001 191.298 189.901 191.198 189.701C191.198 189.501 191.198 189.301 191.198 189.101C191.198 188.901 191.298 188.701 191.298 188.501C191.398 188.301 191.498 188.201 191.598 188.101L192.698 188.601C192.598 188.701 192.598 188.801 192.498 188.801C192.498 188.901 192.398 189.001 192.398 189.101C192.198 189.601 192.198 190.101 192.398 190.501C192.598 190.901 192.998 191.201 193.598 191.501L196.398 192.601L195.998 193.701L190.398 191.401Z" fill="white"/>
<defs>
<filter id="filter0_ii" x="0" y="50" width="218" height="218" filterUnits="userSpaceOnUse" color-interpolation-filters="sRGB">
<feFlood flood-opacity="0" result="BackgroundImageFix"/>
<feBlend mode="normal" in="SourceGraphic" in2="BackgroundImageFix" result="shape"/>
<feColorMatrix in="SourceAlpha" type="matrix" values="0 0 0 0 0 0 0 0 0 0 0 0 0 0 0 0 0 0 127 0" result="hardAlpha"/>
<feOffset/>
<feGaussianBlur stdDeviation="4"/>
<feComposite in2="hardAlpha" operator="arithmetic" k2="-1" k3="1"/>
<feColorMatrix type="matrix" values="0 0 0 0 0.9875 0 0 0 0 0.722843 0 0 0 0 0.386771 0 0 0 1 0"/>
<feBlend mode="normal" in2="shape" result="effect1_innerShadow"/>
<feColorMatrix in="SourceAlpha" type="matrix" values="0 0 0 0 0 0 0 0 0 0 0 0 0 0 0 0 0 0 127 0" result="hardAlpha"/>
<feOffset/>
<feGaussianBlur stdDeviation="6"/>
<feComposite in2="hardAlpha" operator="arithmetic" k2="-1" k3="1"/>
<feColorMatrix type="matrix" values="0 0 0 0 0 0 0 0 0 0 0 0 0 0 0 0 0 0 0.2 0"/>
<feBlend mode="normal" in2="effect1_innerShadow" result="effect2_innerShadow"/>
</filter>
<filter id="filter1_i" x="59" y="109" width="100" height="100" filterUnits="userSpaceOnUse" color-interpolation-filters="sRGB">
<feFlood flood-opacity="0" result="BackgroundImageFix"/>
<feBlend mode="normal" in="SourceGraphic" in2="BackgroundImageFix" result="shape"/>
<feColorMatrix in="SourceAlpha" type="matrix" values="0 0 0 0 0 0 0 0 0 0 0 0 0 0 0 0 0 0 127 0" result="hardAlpha"/>
<feOffset/>
<feGaussianBlur stdDeviation="6"/>
<feComposite in2="hardAlpha" operator="arithmetic" k2="-1" k3="1"/>
<feColorMatrix type="matrix" values="0 0 0 0 0.75 0 0 0 0 0.525098 0 0 0 0 0.00937498 0 0 0 1 0"/>
<feBlend mode="normal" in2="shape" result="effect1_innerShadow"/>
</filter>
<linearGradient id="paint0_linear" x1="51.775" y1="57.4937" x2="233.571" y2="236.338" gradientUnits="userSpaceOnUse">
<stop stop-color="white"/>
<stop offset="1" stop-color="#E3BC43"/>
</linearGradient>
<linearGradient id="paint1_linear" x1="174.52" y1="213.6" x2="38.8" y2="107.52" gradientUnits="userSpaceOnUse">
<stop stop-color="#FFFEFB"/>
<stop offset="1" stop-color="#8C6A00" stop-opacity="0"/>
</linearGradient>
<linearGradient id="paint2_linear" x1="194.68" y1="230.4" x2="17.2" y2="91.68" gradientUnits="userSpaceOnUse">
<stop stop-color="#FFFEFC"/>
<stop offset="1" stop-color="#8C6A00" stop-opacity="0"/>
</linearGradient>
</defs>
</svg>
