<svg width="218" height="268" viewBox="0 0 218 268" fill="none" xmlns="http://www.w3.org/2000/svg">
<path d="M86.0059 29.7979C84.9045 29.7979 84.0234 30.6685 84.0234 31.7568V50.0407C84.0234 51.129 84.9045 51.9997 86.0059 51.9997H131.381C132.483 51.9997 133.364 51.129 133.364 50.0407V31.7568C133.364 30.6685 132.483 29.7979 131.381 29.7979H86.0059ZM129.399 44.1637C129.399 45.2521 128.518 46.1227 127.416 46.1227H90.191C89.0896 46.1227 88.2086 45.2521 88.2086 44.1637V35.8925C88.2086 34.8041 89.0896 33.9335 90.191 33.9335H127.416C128.518 33.9335 129.399 34.8041 129.399 35.8925V44.1637Z" fill="#D1D4D8"/>
<path d="M140.045 0L114.918 37.8775H127.37L155.388 0H140.045Z" fill="#0FA711"/>
<path d="M127.377 0L102.473 37.8775H114.925L140.052 0H127.377Z" fill="white"/>
<path d="M114.92 0L90.0156 37.8775H102.468L127.373 0H114.92Z" fill="#FF7600"/>
<path d="M90.0177 37.8775H102.47L77.343 0H62L90.0177 37.8775Z" fill="#FF7600"/>
<path d="M102.471 37.8775H114.923L90.0184 0H77.3438L102.471 37.8775Z" fill="white"/>
<path opacity="0.5" d="M110.695 6.28027L104.469 15.6936L119.145 37.8823H127.372L129.596 34.7445L110.695 6.28027Z" fill="#3E4347"/>
<path d="M114.92 37.8775H127.373L102.468 0H90.0156L114.92 37.8775Z" fill="#0FA711"/>
<g filter="url(#filter0_ii)">
<path d="M218 159C218 219.199 169.199 268 109 268C48.801 268 0 219.199 0 159C0 98.801 48.801 50 109 50C169.199 50 218 98.801 218 159Z" fill="#34373C" fill-opacity="0.4"/>
</g>
<path d="M214.5 159C214.5 217.266 167.266 264.5 109 264.5C50.734 264.5 3.5 217.266 3.5 159C3.5 100.734 50.734 53.5 109 53.5C167.266 53.5 214.5 100.734 214.5 159Z" stroke="#DFDFDF" stroke-width="7"/>
<path d="M214.5 159C214.5 217.266 167.266 264.5 109 264.5C50.734 264.5 3.5 217.266 3.5 159C3.5 100.734 50.734 53.5 109 53.5C167.266 53.5 214.5 100.734 214.5 159Z" stroke="url(#paint0_linear)" stroke-width="7"/>
<path d="M214.5 159C214.5 217.266 167.266 264.5 109 264.5C50.734 264.5 3.5 217.266 3.5 159C3.5 100.734 50.734 53.5 109 53.5C167.266 53.5 214.5 100.734 214.5 159Z" stroke="url(#paint1_linear)" stroke-width="7"/>
<path d="M196 159C196 207.049 157.049 246 109 246C60.9512 246 22 207.049 22 159C22 110.951 60.9512 72 109 72C157.049 72 196 110.951 196 159Z" fill="#5C686B"/>
<path fill-rule="evenodd" clip-rule="evenodd" d="M109 87C69.2355 87 37 119.235 37 159C37 198.764 69.2355 231 109 231C148.764 231 181 198.764 181 159C181 119.235 148.764 87 109 87ZM7 159C7 102.667 52.667 57 109 57C165.333 57 211 102.667 211 159C211 215.333 165.333 261 109 261C52.667 261 7 215.333 7 159Z" fill="#6F7A7D"/>
<path d="M109.001 82C66.5595 82 32 116.357 32 159.001C32 201.645 66.3574 236.002 109.001 236.002C151.645 236.002 186.002 201.645 186.002 159.001C186.002 116.357 151.442 82 109.001 82ZM93.6412 89.4778C93.8433 89.4778 93.8433 89.4778 93.6412 89.4778C95.0559 92.5093 97.6833 94.3282 100.311 93.7219C102.938 93.3177 105.565 91.4988 105.767 87.861C106.172 87.861 106.576 87.861 106.98 87.861C106.98 98.7745 106.172 110.496 104.959 123.229C104.757 124.441 104.757 125.654 104.757 126.867C104.353 125.856 103.948 124.644 103.544 123.229C99.3001 112.517 95.4601 100.998 92.4286 89.6799C93.0349 89.6799 93.237 89.4778 93.6412 89.4778ZM76.0583 95.743C78.2814 98.3703 81.1109 99.3808 83.5361 98.1682C86.3655 96.9556 87.9823 94.1261 87.376 91.0946C87.7802 90.8925 88.1844 90.8925 88.5886 90.6904C91.216 101.2 93.8433 112.72 95.8643 125.452C96.0664 126.867 96.2685 127.877 96.6727 129.09C96.0664 128.079 95.4601 127.069 94.4496 125.856C87.5781 116.559 80.9088 106.454 75.0478 96.3493C75.2499 96.1472 75.6541 95.9451 76.0583 95.743ZM60.4964 106.656C63.3259 108.475 66.3574 108.678 68.3784 107.061C69.9952 105.848 70.8036 104.029 70.8036 102.21C70.8036 101.2 70.6015 100.189 69.9952 99.3808C70.3994 99.1787 70.6015 98.9766 71.0057 98.7745C76.4625 108.071 81.7172 118.783 87.1739 130.302C87.7802 131.515 88.3865 132.526 88.7907 133.536C87.9823 132.728 86.9718 131.919 85.9613 131.111C77.0688 123.633 67.9742 115.549 59.688 107.465C59.8901 107.061 60.2943 106.859 60.4964 106.656ZM48.3703 121.006C48.5724 121.006 48.5724 121.006 48.3703 121.006C51.6039 122.016 54.6355 121.612 56.0502 119.389C56.4544 118.783 57.4649 117.166 57.4649 115.549C57.4649 114.538 57.0607 112.922 55.8481 111.507C56.0502 111.305 56.4544 110.901 56.6565 110.699C64.3364 118.378 72.2184 127.271 80.5046 136.972C81.313 137.982 82.1214 138.791 82.9298 139.599C81.9193 138.993 80.7067 138.589 79.494 137.982C68.9847 133.132 58.0712 127.675 47.764 122.016C47.9661 121.612 48.1682 121.41 48.3703 121.006ZM40.4883 137.982C40.4883 137.982 40.4883 137.78 40.4883 137.982C43.924 138.184 46.5514 136.972 47.5619 134.344C47.764 133.738 47.9661 132.93 47.9661 131.717C47.9661 130.505 47.5619 128.281 45.1367 126.665C45.3388 126.26 45.5409 126.058 45.743 125.654C55.0397 131.111 65.1448 137.578 75.452 144.854C76.4625 145.662 77.6751 146.269 78.4835 146.875C77.473 146.673 76.0583 146.471 74.6436 146.066C63.3259 144.45 51.4018 142.024 39.882 138.993C40.2862 138.791 40.4883 138.387 40.4883 137.982ZM37.2547 156.374C37.2547 156.374 37.2547 156.172 37.2547 156.374C40.4883 155.767 42.9135 153.746 43.1156 151.119C43.1156 150.917 43.1156 150.715 43.1156 150.311C43.1156 147.885 41.903 145.258 38.8715 144.248C38.8715 143.843 39.0736 143.439 39.0736 143.035C49.5829 145.864 60.9006 149.704 72.8247 153.948C74.0373 154.353 75.2499 154.757 76.2604 154.959C75.0478 154.959 73.8352 155.161 72.4205 155.161C61.1027 156.576 48.7745 157.182 37.0526 157.384C37.2547 157.182 37.2547 156.778 37.2547 156.374ZM38.8715 175.169C38.8715 174.967 38.8715 174.967 38.8715 175.169C41.4988 173.754 43.1156 171.733 43.1156 169.308C43.1156 169.106 43.1156 168.702 43.1156 168.5C42.7114 165.872 40.8925 163.245 37.2547 163.043C37.2547 162.639 37.2547 162.235 37.2547 161.83C48.1682 161.83 59.8901 162.437 72.6226 163.447C74.0373 163.649 75.2499 163.649 76.2604 163.649C75.2499 164.054 74.0373 164.458 72.6226 164.862C61.9111 169.106 50.3913 172.946 39.0736 176.18C39.0736 175.978 39.0736 175.573 38.8715 175.169ZM45.3387 192.752C45.3387 192.752 45.3387 192.55 45.3387 192.752C47.1577 191.135 48.1682 189.316 48.1682 187.295C48.1682 186.487 47.9661 185.881 47.764 185.274C46.7535 182.849 44.3282 180.828 40.6904 181.636C40.4883 181.232 40.4883 180.828 40.2862 180.424C50.7955 177.594 62.3153 175.169 74.8457 172.946C76.2604 172.744 77.2709 172.34 78.4835 172.138C77.473 172.744 76.4625 173.35 75.2499 174.361C65.9532 181.232 55.8481 187.902 45.743 193.965C45.743 193.358 45.5409 193.156 45.3387 192.752ZM56.2523 208.112C57.2628 206.495 57.667 205.08 57.667 203.463C57.667 202.251 57.2628 201.038 56.4544 200.23C54.8376 198.209 51.806 196.794 48.5724 198.411C48.3703 198.007 48.1682 197.805 47.9661 197.4C57.2628 191.944 67.9742 186.487 79.494 181.03C80.7067 180.424 81.7172 179.818 82.7277 179.413C81.9193 180.222 81.1109 181.232 80.3024 182.243C73.2289 191.337 65.1448 200.432 57.0607 208.92C56.8586 208.718 56.4544 208.516 56.2523 208.112ZM70.6015 220.036C70.8036 218.823 71.0057 217.813 71.0057 216.802C71.0057 214.781 70.1973 213.164 68.7826 212.356C66.7616 210.941 63.528 210.133 60.9006 212.76C60.4964 212.558 60.2943 212.154 60.0922 211.952C67.7721 204.272 76.4625 196.188 86.1634 188.104C87.1739 187.295 87.9823 186.487 88.7907 185.678C88.1844 186.689 87.7802 187.902 87.1739 189.114C82.7277 199.624 77.473 210.537 71.612 220.642C71.4099 220.44 71.0057 220.238 70.6015 220.036ZM87.5781 227.918C87.7802 224.482 86.3655 221.855 83.9403 220.844C81.5151 220.036 78.2814 220.238 76.2604 223.27C75.8562 223.067 75.6541 222.865 75.2499 222.663C80.7066 213.367 86.9718 203.261 94.2475 192.752C95.0559 191.539 95.6622 190.529 96.2685 189.721C96.0664 190.731 95.8643 192.146 95.4601 193.56C93.8433 204.878 91.4181 216.802 88.5886 228.322C88.3865 228.12 87.9823 228.12 87.5781 227.918ZM105.969 230.949C105.363 227.716 103.342 225.291 100.715 225.088C98.0874 224.886 95.0559 225.897 94.0454 229.333C93.6412 229.333 93.237 229.13 92.8328 229.13C95.6622 218.621 99.3001 207.303 103.544 195.379C103.948 194.167 104.353 192.954 104.555 191.944C104.555 193.156 104.757 194.369 104.757 195.784C106.172 207.101 106.98 219.43 107.182 231.151C106.778 231.151 106.374 231.151 105.969 230.949ZM178.928 144.45C176.301 145.864 174.482 147.885 174.482 150.311C174.482 150.513 174.482 150.917 174.482 151.119C174.886 153.746 176.705 156.374 180.343 156.576C180.343 156.98 180.343 157.384 180.343 157.788C169.632 157.788 157.708 156.98 144.975 155.767C143.56 155.565 142.348 155.565 141.337 155.565C142.348 155.161 143.56 154.757 144.975 154.353C155.687 150.108 167.206 146.269 178.524 143.237C178.726 143.641 178.726 144.045 178.928 144.45ZM172.663 126.867C172.663 126.867 172.663 127.069 172.663 126.867C170.844 128.484 169.834 130.302 169.834 132.323C169.834 133.132 170.036 133.738 170.238 134.344C171.248 136.77 173.674 138.791 177.312 138.184C177.514 138.589 177.514 138.993 177.716 139.397C167.206 142.024 155.485 144.45 142.954 146.673C141.539 146.875 140.529 147.077 139.316 147.481C140.327 146.875 141.337 146.269 142.55 145.46C151.847 138.387 161.952 131.717 172.057 125.856C172.259 126.26 172.461 126.463 172.663 126.867ZM162.154 111.709C161.143 113.326 160.537 114.943 160.537 116.357C160.537 117.57 160.941 118.783 161.75 119.591C163.366 121.612 166.196 123.027 169.43 121.41C169.632 121.814 169.834 122.016 170.036 122.42C160.537 127.675 150.028 133.132 138.306 138.184C137.093 138.791 136.083 139.195 135.072 139.801C135.881 138.993 136.689 137.982 137.7 136.972C144.975 128.079 153.059 118.985 161.345 110.699C161.548 111.103 161.952 111.305 162.154 111.709ZM147.603 99.1787C147.603 99.1787 147.805 99.3808 147.603 99.1787C147.4 100.391 146.996 101.402 146.996 102.412C146.996 104.231 147.805 105.848 149.219 106.859C151.24 108.273 154.474 109.082 157.101 106.656C157.303 106.859 157.708 107.263 157.91 107.465C150.23 115.145 141.337 123.027 131.434 131.111C130.424 131.919 129.413 132.728 128.807 133.536C129.413 132.526 129.818 131.515 130.424 130.1C135.072 119.591 140.529 108.678 146.39 98.5724C146.996 98.7745 147.198 98.9766 147.603 99.1787ZM130.626 91.2967C130.828 91.2967 130.828 91.2967 130.626 91.2967C130.424 94.7324 131.839 97.3598 134.264 98.3703C136.689 99.3808 139.923 99.1787 141.944 95.9451C142.348 96.1472 142.55 96.3493 142.954 96.5514C137.497 105.848 131.03 115.751 123.552 126.26C122.744 127.271 122.138 128.281 121.531 129.292C121.733 128.281 122.138 126.867 122.34 125.452C124.159 114.134 126.584 102.21 129.413 90.8925C130.02 90.8925 130.222 91.0946 130.626 91.2967ZM112.437 87.861C112.437 87.861 112.639 87.861 112.437 87.861C113.043 91.0946 115.064 93.5198 117.691 93.7219C120.319 93.924 123.35 92.9135 124.563 89.4778C124.967 89.4778 125.371 89.6799 125.775 89.6799C122.946 100.189 119.106 111.507 114.66 123.229C114.256 124.441 113.851 125.654 113.447 126.665C113.447 125.452 113.245 124.239 113.245 122.825C112.033 111.507 111.224 99.1787 111.224 87.4568C111.628 87.861 112.033 87.861 112.437 87.861ZM124.361 229.333C122.744 226.301 120.319 224.684 117.691 225.088C115.064 225.493 112.437 227.312 112.235 230.949C111.83 230.949 111.426 230.949 111.022 230.949C111.022 220.036 111.628 208.314 112.841 195.581C113.043 194.369 113.043 193.358 113.043 192.348C113.043 192.146 113.043 192.146 113.043 191.944C113.447 192.954 113.851 194.167 114.256 195.581C118.5 206.293 122.34 217.813 125.573 229.13C125.169 229.333 124.765 229.333 124.361 229.333ZM141.742 223.067C141.742 223.067 141.539 223.067 141.742 223.067C139.518 220.44 136.689 219.43 134.264 220.642C131.434 221.855 129.818 224.684 130.626 227.716C130.222 227.918 129.818 227.918 129.413 228.12C126.584 217.611 124.159 206.091 122.138 193.56C121.936 192.146 121.733 191.135 121.329 189.923C121.936 190.933 122.542 191.944 123.552 193.156C130.424 202.453 137.093 212.558 142.954 222.663C142.348 222.865 142.146 222.865 141.742 223.067ZM157.303 212.154C157.303 212.356 157.303 212.356 157.303 212.154C154.474 210.335 151.442 210.133 149.421 211.75C147.805 212.962 146.996 214.781 146.996 216.6C146.996 217.611 147.198 218.621 147.805 219.43C147.4 219.632 147.198 219.834 146.794 220.036C141.337 210.739 135.881 200.028 130.626 188.508C130.02 187.295 129.413 186.285 129.009 185.274C129.818 186.083 130.828 186.891 131.839 187.699C140.933 194.773 150.028 202.857 158.314 211.143C157.91 211.75 157.708 211.952 157.303 212.154ZM169.227 198.007C169.227 198.007 169.227 198.209 169.227 198.007C165.994 196.996 162.962 197.4 161.548 199.624C161.143 200.23 160.133 201.847 160.133 203.463C160.133 204.474 160.537 206.091 161.75 207.506C161.548 207.708 161.143 208.112 160.941 208.314C153.261 200.634 145.379 191.742 137.295 182.041C136.487 181.03 135.678 180.02 134.87 179.413C135.881 180.02 137.093 180.424 138.306 181.03C148.815 185.678 159.729 191.135 170.036 196.794C169.632 197.4 169.43 197.603 169.227 198.007ZM177.109 181.03C177.109 181.232 177.109 181.232 177.109 181.03C173.674 180.828 171.046 182.041 170.036 184.668C169.834 185.274 169.632 186.083 169.632 187.295C169.632 188.508 170.036 190.731 172.461 192.348C172.259 192.752 172.057 192.954 171.855 193.358C162.558 187.902 152.453 181.434 142.146 174.159C141.135 173.35 139.923 172.744 139.114 172.138C140.125 172.34 141.539 172.744 142.954 172.946C154.272 174.563 166.196 176.988 177.514 180.02C177.312 180.424 177.312 180.828 177.109 181.03ZM180.343 162.841C177.109 163.447 174.684 165.266 174.482 167.893C174.482 168.096 174.482 168.298 174.482 168.702C174.482 171.127 175.695 173.754 178.726 174.765C178.726 175.169 178.524 175.573 178.524 175.978C168.015 173.148 156.697 169.51 144.773 165.064C143.56 164.66 142.348 164.256 141.337 164.054C142.55 164.054 143.763 163.851 145.177 163.851C156.495 162.639 168.823 161.83 180.545 161.83C180.545 162.033 180.343 162.437 180.343 162.841Z" fill="#D1D4D8"/>
<circle cx="109" cy="159" r="77" stroke="url(#paint2_linear)" stroke-width="2"/>
<circle cx="109" cy="159" r="101" stroke="url(#paint3_linear)" stroke-width="2"/>
<g filter="url(#filter1_i)">
<circle cx="109" cy="159" r="50" fill="#6F7A7D"/>
</g>
<path fill-rule="evenodd" clip-rule="evenodd" d="M83.168 135.786V134H112.692V162.571H83.168V135.786ZM97.161 152.75L93.2143 148.931L87.2685 157.214H92.3942H93.8718H101.988H103.466H110.026L102.645 142.829L97.161 152.75ZM131.144 159H116.382V155.429H134.835V184H105.311V166.143H109.001V180.429H131.144V159ZM127.96 164.525V161.731H120.929V164.525H122.626V169.84H119.165C118.739 169.458 118.218 169.216 117.601 169.117C118.335 168.884 118.901 168.46 119.298 167.844C119.694 167.229 119.893 166.488 119.893 165.623C119.893 164.359 119.511 163.369 118.747 162.654C117.983 161.922 116.895 161.556 115.485 161.556C114.5 161.556 113.648 161.714 112.928 162.03V165.199C113.721 164.783 114.493 164.575 115.242 164.575C116.271 164.575 116.785 165.074 116.785 166.072C116.785 167.104 116.175 167.619 114.956 167.619H114.272V170.564H115.176C115.97 170.564 116.513 170.722 116.807 171.038C117.116 171.354 117.27 171.778 117.27 172.31C117.27 173.708 116.623 174.406 115.33 174.406C114.375 174.406 113.427 174.124 112.487 173.558V176.802C113.413 177.168 114.412 177.351 115.485 177.351C117.072 177.351 118.262 176.935 119.055 176.103C119.863 175.271 120.267 174.19 120.267 172.859V172.685H122.626V178.474H125.756V164.525H127.96Z" fill="white"/>
<path d="M47.6992 86.2004L50.0992 84.2004C50.3992 84.0004 50.6992 83.8003 50.9992 83.6003C51.2992 83.5003 51.5992 83.4004 51.8992 83.4004C52.1992 83.4004 52.4992 83.4003 52.7992 83.6003C53.0992 83.8003 53.3992 83.9004 53.5992 84.2004C53.8992 84.6004 54.0992 85.0004 54.0992 85.5004C54.0992 85.9004 53.8992 86.4004 53.6992 86.8004C53.8992 86.6004 54.1992 86.5004 54.3992 86.5004C54.6992 86.4004 54.8992 86.4004 55.1992 86.5004C55.4992 86.5004 55.6992 86.6004 55.9992 86.8004C56.1992 86.9004 56.4992 87.1004 56.6992 87.4004C56.9992 87.7004 57.0992 88.0004 57.1992 88.4004C57.2992 88.7004 57.2992 89.1004 57.1992 89.4004C57.0992 89.7004 56.9992 90.1004 56.6992 90.4004C56.4992 90.7004 56.1992 91.0004 55.8992 91.3004L53.4992 93.3004L47.6992 86.2004ZM50.9992 88.3004L52.2992 87.2004C52.4992 87.1004 52.5992 86.9004 52.7992 86.7004C52.9992 86.5004 52.9992 86.4004 53.0992 86.2004C53.0992 86.0004 53.1992 85.8003 53.0992 85.6003C53.0992 85.4003 52.9992 85.2004 52.7992 85.0004C52.5992 84.7004 52.2992 84.6004 51.8992 84.5004C51.5992 84.4004 51.1992 84.6004 50.7992 84.9004L49.2992 86.1003L50.9992 88.3004ZM53.6992 91.6003L55.0992 90.5004C55.1992 90.4004 55.3992 90.2003 55.4992 90.1003C55.5992 90.0003 55.7992 89.7004 55.7992 89.5004C55.7992 89.3004 55.8992 89.1004 55.8992 88.8004C55.8992 88.6004 55.7992 88.3003 55.5992 88.1003C55.2992 87.7003 54.8992 87.5004 54.3992 87.5004C53.8992 87.5004 53.4992 87.7003 53.0992 88.1003L51.6992 89.3004L53.6992 91.6003Z" fill="white"/>
<path d="M53.6992 80.6003L54.5992 79.9004L57.1992 83.6003C57.0992 83.3003 57.1992 82.9004 57.3992 82.5004C57.5992 82.1004 57.8992 81.8003 58.1992 81.6003C58.3992 81.4003 58.6992 81.3004 58.9992 81.2004C59.2992 81.1004 59.4992 81.1003 59.7992 81.1003C60.0992 81.1003 60.2992 81.2004 60.5992 81.4004C60.8992 81.6004 61.0992 81.8004 61.2992 82.2004L63.4992 85.4004L62.5992 86.1003L60.5992 83.2004C60.3992 83.0004 60.2992 82.8004 60.0992 82.7004C59.8992 82.6004 59.6992 82.5004 59.5992 82.5004C59.3992 82.5004 59.2992 82.5004 59.0992 82.5004C58.8992 82.5004 58.7992 82.6004 58.5992 82.7004C58.3992 82.8004 58.1992 83.0004 58.0992 83.2004C57.9992 83.4004 57.8992 83.6004 57.8992 83.8004C57.8992 84.0004 57.8992 84.3004 57.9992 84.5004C58.0992 84.8004 58.1992 85.0004 58.3992 85.3004L60.1992 87.9004L59.2992 88.6003L53.6992 80.6003Z" fill="white"/>
<path d="M62.0977 80.2002C62.1977 79.8002 62.3977 79.4001 62.6977 79.1001C62.9977 78.8001 63.2977 78.5002 63.6977 78.3002C64.0977 78.1002 64.3977 77.9002 64.7977 77.9002C65.0977 77.8002 65.3977 77.8002 65.6977 77.9002C65.9977 78.0002 66.1976 78.1002 66.3976 78.2002C66.5976 78.4002 66.7976 78.6002 66.8976 78.8002L68.4977 81.5002C68.5977 81.7002 68.6977 81.9002 68.7977 82.0002C68.8977 82.2002 68.9977 82.3002 69.0977 82.4002L68.1977 82.9002C67.9977 82.6002 67.8977 82.4001 67.6977 82.1001C67.6977 82.6001 67.5977 83.0002 67.2977 83.3002C67.0977 83.6002 66.7976 83.9001 66.3976 84.1001C66.1976 84.2001 65.8977 84.3002 65.5977 84.4002C65.2977 84.5002 65.0977 84.5002 64.7977 84.4002C64.5977 84.4002 64.2977 84.3001 64.0977 84.1001C63.8977 84.0001 63.6977 83.8002 63.5977 83.5002C63.3977 83.2002 63.2977 82.8002 63.2977 82.5002C63.2977 82.2002 63.3977 81.9001 63.5977 81.6001C63.7977 81.3001 63.9977 81.0002 64.2977 80.8002C64.5977 80.5002 64.9976 80.3001 65.3976 80.1001L66.0977 79.7002L65.9977 79.5002C65.8977 79.4002 65.7977 79.3001 65.6977 79.1001C65.5977 79.0001 65.3977 78.9002 65.2977 78.9002C65.1977 78.9002 64.9977 78.8002 64.7977 78.9002C64.5977 78.9002 64.3977 79.0001 64.1977 79.1001C63.9977 79.2001 63.8977 79.3002 63.6977 79.4002C63.5977 79.5002 63.4976 79.6002 63.3976 79.8002C63.2976 79.9002 63.1977 80.0002 63.1977 80.2002C63.1977 80.4002 63.0977 80.5001 62.9977 80.6001L62.0977 80.2002ZM66.0977 80.6001C65.8977 80.7001 65.5976 80.9001 65.3976 81.1001C65.1976 81.3001 64.9977 81.4001 64.7977 81.6001C64.5977 81.8001 64.4977 82.0002 64.4977 82.2002C64.4977 82.4002 64.4977 82.6002 64.5977 82.8002C64.7977 83.1002 64.9977 83.3002 65.2977 83.3002C65.5977 83.3002 65.8977 83.2002 66.1977 83.0002C66.4977 82.8002 66.6977 82.7002 66.7977 82.5002C66.8977 82.3002 66.9977 82.1002 67.0977 81.9002C67.0977 81.7002 67.0977 81.5002 67.0977 81.3002C66.9977 81.1002 66.9976 80.9002 66.8976 80.7002L66.6977 80.4002L66.0977 80.6001Z" fill="white"/>
<path d="M71.0984 76.2C70.8984 76.1 70.6985 76.1 70.4985 76C70.2985 76 69.9985 76 69.7985 76.2C69.5985 76.3 69.3985 76.5 69.1985 76.7C69.0985 76.9 69.0985 77.1 69.1985 77.3C69.2985 77.5 69.3985 77.6 69.4985 77.6C69.6985 77.6 69.7985 77.7 69.9985 77.7C70.1985 77.7 70.2985 77.7 70.4985 77.6C70.6985 77.6 70.7985 77.5 70.9985 77.5C71.1985 77.4 71.4985 77.4 71.6985 77.4C71.8985 77.4 72.0984 77.4 72.3984 77.4C72.5984 77.5 72.7985 77.5 72.9985 77.7C73.1985 77.8 73.2984 78 73.3984 78.3C73.5984 78.6 73.5984 78.9 73.5984 79.2C73.5984 79.5 73.4984 79.7 73.3984 80C73.2984 80.2 73.0985 80.5 72.7985 80.6C72.5985 80.8 72.2985 81 71.9985 81.1C71.4985 81.3 71.0985 81.4 70.6985 81.5C70.2985 81.5 69.8984 81.4 69.3984 81.2L69.8984 80.2C70.0984 80.3 70.3985 80.3 70.6985 80.4C70.9985 80.4 71.2984 80.4 71.5984 80.2C71.6984 80.1 71.8985 80.1 71.9985 80C72.0985 79.9 72.1985 79.8 72.2985 79.7C72.3985 79.6 72.3984 79.5 72.3984 79.4C72.3984 79.3 72.3985 79.2 72.2985 79C72.1985 78.8 72.0985 78.7 71.9985 78.7C71.8985 78.6 71.6985 78.6 71.4985 78.6C71.2985 78.6 71.1985 78.6 70.9985 78.7C70.7985 78.8 70.6984 78.8 70.5984 78.8C70.3984 78.9 70.0984 78.9 69.8984 78.9C69.6984 78.9 69.3985 78.9 69.1985 78.9C68.9985 78.9 68.7984 78.8 68.5984 78.6C68.3984 78.5 68.2984 78.3 68.0984 78C67.9984 77.7 67.8984 77.4 67.8984 77.2C67.8984 76.9 67.9984 76.7 68.0984 76.4C68.1984 76.2 68.3984 76 68.5984 75.8C68.7984 75.6 68.9985 75.5 69.2985 75.3C69.6985 75.1 70.0985 75 70.4985 75C70.8985 75 71.2984 75.1 71.5984 75.3L71.0984 76.2Z" fill="white"/>
<path d="M71.3984 70.4L72.4985 70L74.1985 74.2C74.1985 73.8 74.2984 73.5 74.5984 73.2C74.8984 72.9 75.1984 72.6 75.5984 72.5C75.8984 72.4 76.0984 72.3 76.3984 72.3C76.6984 72.3 76.9985 72.3 77.1985 72.4C77.4985 72.5 77.6984 72.7 77.8984 72.9C78.0984 73.1 78.2985 73.4 78.4985 73.8L79.9985 77.4L78.8984 77.8L77.5984 74.5C77.4984 74.2 77.3985 74 77.1985 73.9C77.0985 73.7 76.8985 73.6 76.6985 73.6C76.4985 73.5 76.3985 73.5 76.1985 73.5C75.9985 73.5 75.8985 73.6 75.6985 73.6C75.4985 73.7 75.2984 73.8 75.0984 74C74.8984 74.1 74.7985 74.3 74.6985 74.5C74.5985 74.7 74.5984 75 74.5984 75.2C74.5984 75.4 74.6985 75.8 74.7985 76.1L75.9985 79L74.8984 79.4L71.3984 70.4Z" fill="white"/>
<path d="M78.5984 69.1004C78.4984 68.9004 78.4984 68.7004 78.5984 68.5004C78.6984 68.3004 78.8984 68.1004 79.0984 68.1004C79.2984 68.0004 79.4985 68.0004 79.6985 68.1004C79.8985 68.2004 80.0984 68.4004 80.0984 68.6004C80.1984 68.8004 80.1984 69.0004 80.0984 69.2004C79.9984 69.4004 79.7984 69.6004 79.5984 69.6004C79.3984 69.7004 79.1985 69.7004 78.9985 69.6004C78.7985 69.5004 78.6984 69.4004 78.5984 69.1004ZM79.5984 71.1004L80.6985 70.7004L82.6985 76.4004L81.5984 76.8004L79.5984 71.1004Z" fill="white"/>
<path d="M82.5 70.1L83.6 69.8L83.8 70.7C83.9 70.3 84 70 84.3 69.7C84.6 69.4 85 69.2 85.4 69.1C85.7 69 86 69 86.2 69C86.4 69 86.7 69.1 87 69.2C87.2 69.3 87.5 69.5 87.7 69.8C87.9 70 88 70.4 88.2 70.8L89.2 74.5L88.1 74.8L87.1 71.4C87 71.1 86.9 70.9 86.8 70.7C86.7 70.5 86.5 70.4 86.4 70.3C86.2 70.2 86.1 70.2 85.9 70.2C85.7 70.2 85.6 70.2 85.4 70.3C85.2 70.4 85 70.5 84.8 70.6C84.6 70.7 84.5 70.9 84.4 71.1C84.3 71.3 84.2 71.5 84.2 71.8C84.2 72.1 84.2 72.4 84.3 72.7L85.1 75.7L84 76L82.5 70.1Z" fill="white"/>
<path d="M88.8008 66.2002C88.8008 66.0002 88.8008 65.8002 88.9008 65.6002C89.0008 65.4002 89.2008 65.3002 89.4008 65.2002C89.6008 65.2002 89.8008 65.2002 90.0008 65.3002C90.2008 65.4002 90.3008 65.6002 90.4008 65.8002C90.5008 66.0002 90.4008 66.2002 90.3008 66.4002C90.2008 66.6002 90.0008 66.7002 89.8008 66.8002C89.6008 66.8002 89.4008 66.8002 89.2008 66.7002C89.0008 66.6002 88.8008 66.4002 88.8008 66.2002ZM89.5008 68.3002L90.6008 68.1002L91.9008 74.0002L90.8008 74.2002L89.5008 68.3002Z" fill="white"/>
<path d="M96.3008 68.4998C96.3008 68.1998 96.3008 67.8998 96.4008 67.5998C96.5008 67.2998 96.6008 67.0998 96.8008 66.7998C97.0008 66.5998 97.2008 66.3998 97.5008 66.1998C97.8008 65.9998 98.0008 65.9998 98.4008 65.8998C98.8008 65.7998 99.0008 65.8998 99.3008 65.9998C99.6008 66.0998 99.8008 66.1998 100.101 66.3998C100.301 66.5998 100.501 66.7998 100.701 67.0998C100.901 67.3998 100.901 67.5998 101.001 67.9998C101.101 68.3998 101.001 68.5998 100.901 68.8998C100.801 69.1998 100.701 69.3998 100.501 69.6998C100.301 69.9998 100.101 70.0998 99.8008 70.2998C99.5008 70.4998 99.3008 70.4998 98.9008 70.5998C98.6008 70.5998 98.3008 70.5998 98.0008 70.4998C97.7008 70.3998 97.5008 70.2998 97.2008 70.0998C97.0008 69.8998 96.8008 69.6998 96.6008 69.3998C96.4008 69.0998 96.3008 68.8998 96.3008 68.4998Z" fill="white"/>
<path d="M106.199 63L109.399 63.1C109.999 63.1 110.599 63.2 111.099 63.3C111.599 63.4 111.999 63.7 112.299 63.9C112.599 64.1 112.899 64.4 113.199 64.7C113.499 65 113.599 65.3 113.699 65.7C113.799 66.1 113.899 66.4 113.999 66.7C114.099 67 114.099 67.3 114.099 67.6C114.099 68.2 113.999 68.7 113.799 69.3C113.599 69.8 113.299 70.3 112.799 70.7C112.399 71.1 111.899 71.4 111.199 71.7C110.599 71.9 109.899 72.1 109.099 72H106.199V63ZM107.299 70.9H108.799C109.299 70.9 109.799 70.8 110.299 70.7C110.799 70.6 111.199 70.4 111.499 70.1C111.899 69.8 112.099 69.5 112.299 69.1C112.499 68.7 112.599 68.2 112.599 67.6C112.599 67.3 112.599 67 112.499 66.6C112.399 66.2 112.199 65.8 111.999 65.5C111.699 65.1 111.399 64.8 110.899 64.6C110.399 64.4 109.899 64.2 109.099 64.2H107.299V70.9Z" fill="white"/>
<path d="M116.2 69.7996C116.2 70.0996 116.2 70.2996 116.3 70.4996C116.4 70.6996 116.5 70.8996 116.7 71.0996C116.9 71.2996 117.1 71.3996 117.3 71.4996C117.5 71.5996 117.8 71.6996 118 71.6996C118.4 71.6996 118.7 71.6996 119 71.4996C119.3 71.2996 119.5 71.1996 119.8 70.8996L120.6 71.5996C119.9 72.3996 119 72.6996 117.8 72.5996C117.3 72.5996 116.9 72.3996 116.5 72.1996C116.1 71.9996 115.8 71.6996 115.6 71.3996C115.4 71.0996 115.2 70.6996 115.1 70.2996C115 69.8996 115 69.4996 115 68.9996C115 68.5996 115.2 68.0996 115.4 67.7996C115.6 67.3996 115.8 67.0996 116.1 66.8996C116.4 66.6996 116.8 66.4996 117.1 66.2996C117.5 66.1996 117.9 66.0996 118.4 66.1996C118.9 66.2996 119.4 66.3996 119.7 66.5996C120.1 66.7996 120.3 67.0996 120.5 67.3996C120.7 67.6996 120.8 68.0996 120.9 68.4996C121 68.8996 121 69.2996 120.9 69.6996V70.0996L116.2 69.7996ZM119.9 69.1996C119.9 68.8996 119.9 68.6996 119.8 68.4996C119.7 68.2996 119.7 68.0996 119.5 67.8996C119.4 67.6996 119.2 67.5996 119 67.4996C118.8 67.3996 118.5 67.2996 118.3 67.2996C118 67.2996 117.8 67.2996 117.5 67.3996C117.2 67.4996 117 67.5996 116.9 67.7996C116.7 67.9996 116.6 68.0996 116.5 68.2996C116.4 68.4996 116.3 68.6996 116.3 68.8996L119.9 69.1996Z" fill="white"/>
<path d="M123.501 63.5L124.601 63.7L123.501 69.8L126.501 67.7L128.101 68L124.801 70.2L127.201 74L125.601 73.7L123.401 70.1L122.901 73.2L121.801 73L123.501 63.5Z" fill="white"/>
<path d="M130.4 64.7998L131.5 65.0998L130.4 69.4998C130.6 69.1998 130.9 68.9998 131.3 68.8998C131.7 68.7998 132.1 68.7998 132.6 68.8998C132.9 68.9998 133.1 69.0998 133.4 69.1998C133.7 69.2998 133.8 69.4998 134 69.7998C134.1 69.9998 134.2 70.2998 134.3 70.5998C134.3 70.8998 134.3 71.2998 134.2 71.6998L133.2 75.4998L132.1 75.1998L133 71.6998C133.1 71.3998 133.1 71.1998 133.1 70.9998C133.1 70.7998 133 70.5998 132.9 70.4998C132.8 70.2998 132.7 70.1998 132.5 70.0998C132.4 69.9998 132.2 69.8998 132 69.8998C131.8 69.7998 131.5 69.7998 131.3 69.7998C131.1 69.7998 130.9 69.8998 130.7 69.9998C130.5 70.0998 130.3 70.2998 130.2 70.4998C130.1 70.6998 129.9 70.9998 129.9 71.2998L129.1 74.2998L128 73.9998L130.4 64.7998Z" fill="white"/>
<path d="M135.2 72.8998C135.3 72.4998 135.6 72.0998 135.8 71.7998C136.1 71.4998 136.4 71.2998 136.8 71.0998C137.2 70.8998 137.6 70.7998 138 70.7998C138.4 70.7998 138.8 70.7998 139.3 70.9998C139.7 71.0998 140.1 71.3998 140.4 71.5998C140.7 71.8998 141 72.1998 141.1 72.5998C141.3 72.9998 141.4 73.3998 141.4 73.7998C141.4 74.1998 141.4 74.5998 141.2 75.0998C141.1 75.4998 140.8 75.8998 140.6 76.1998C140.3 76.4998 140 76.7998 139.6 76.8998C139.2 77.0998 138.8 77.1998 138.4 77.1998C138 77.1998 137.6 77.1998 137.1 76.9998C136.7 76.8998 136.3 76.5998 136 76.3998C135.7 76.0998 135.4 75.7998 135.3 75.3998C135.1 74.9998 135 74.5998 135 74.1998C135 73.6998 135.1 73.2998 135.2 72.8998ZM136.4 73.2998C136.3 73.5998 136.3 73.8998 136.3 74.0998C136.3 74.3998 136.4 74.5998 136.5 74.8998C136.6 75.1998 136.7 75.2998 136.9 75.4998C137.1 75.6998 137.3 75.7998 137.6 75.8998C137.9 75.9998 138.2 75.9998 138.4 75.9998C138.6 75.9998 138.9 75.8998 139.1 75.7998C139.3 75.6998 139.5 75.4998 139.7 75.2998C139.9 75.0998 140 74.7998 140.1 74.4998C140.2 74.1998 140.2 73.8998 140.2 73.6998C140.2 73.3998 140.1 73.1998 140 72.8998C139.9 72.5998 139.8 72.4998 139.6 72.2998C139.4 72.0998 139.2 71.9998 138.9 71.8998C138.6 71.7998 138.3 71.7998 138.1 71.7998C137.8 71.7998 137.6 71.8998 137.4 71.9998C137.2 72.0998 137 72.2998 136.8 72.4998C136.6 72.6998 136.5 72.9998 136.4 73.2998Z" fill="white"/>
<path d="M148.499 71.5996L149.599 72.0996L145.799 80.2996L144.699 79.7996L148.499 71.5996Z" fill="white"/>
<path d="M150.3 75.7002L151.3 76.2002L150.9 77.0002C151.2 76.8002 151.5 76.7002 151.9 76.7002C152.3 76.7002 152.7 76.8002 153.1 77.0002C153.4 77.1002 153.6 77.3002 153.8 77.5002C154 77.7002 154.1 77.9002 154.2 78.2002C154.3 78.5002 154.3 78.7002 154.3 79.1002C154.3 79.4002 154.2 79.7002 154 80.1002L152.1 83.5002L151.1 83.0002L152.8 79.9002C152.9 79.7002 153 79.4002 153 79.2002C153 79.0002 153 78.8002 153 78.6002C152.9 78.4002 152.9 78.3002 152.7 78.2002C152.6 78.1002 152.4 78.0002 152.3 77.9002C152.1 77.8002 151.9 77.7002 151.7 77.7002C151.5 77.7002 151.3 77.7002 151.1 77.8002C150.9 77.9002 150.7 78.0002 150.5 78.2002C150.3 78.4002 150.1 78.6002 150 78.9002L148.5 81.6002L147.5 81.1002L150.3 75.7002Z" fill="white"/>
<path d="M158.301 87.6L157.301 87L157.801 86.3C157.401 86.4 157.001 86.5 156.601 86.4C156.201 86.3 155.801 86.2 155.501 86C155.101 85.7 154.801 85.4 154.601 85.1C154.401 84.8 154.201 84.4 154.201 84C154.201 83.6 154.101 83.2 154.201 82.8C154.301 82.4 154.501 82 154.701 81.6C154.901 81.2 155.201 80.9 155.601 80.7C156.001 80.5 156.301 80.3 156.701 80.2C157.101 80.1 157.501 80.1 157.901 80.2C158.301 80.3 158.701 80.4 159.101 80.7C159.501 80.9 159.801 81.2 160.001 81.6C160.201 82 160.301 82.3 160.301 82.7L162.701 79L163.701 79.6L158.301 87.6ZM156.201 85.1C156.501 85.3 156.701 85.4 157.001 85.4C157.301 85.4 157.501 85.4 157.801 85.4C158.001 85.3 158.301 85.2 158.501 85.1C158.701 84.9 158.901 84.7 159.101 84.5C159.301 84.3 159.401 84 159.401 83.7C159.501 83.4 159.501 83.2 159.401 82.9C159.301 82.6 159.301 82.4 159.101 82.2C159.001 82 158.801 81.8 158.501 81.6C158.201 81.4 158.001 81.3 157.701 81.3C157.401 81.3 157.201 81.3 156.901 81.3C156.601 81.3 156.401 81.5 156.201 81.6C156.001 81.8 155.801 82 155.601 82.2C155.401 82.5 155.301 82.7 155.301 83C155.201 83.3 155.201 83.5 155.301 83.8C155.401 84.1 155.401 84.3 155.601 84.5C155.801 84.7 156.001 84.9 156.201 85.1Z" fill="white"/>
<path d="M163.198 83.7L164.098 84.4L160.498 89.2L159.598 88.5L163.198 83.7ZM164.298 81.8C164.398 81.6 164.598 81.5 164.898 81.5C165.098 81.5 165.298 81.5 165.498 81.7C165.698 81.8 165.798 82 165.798 82.3C165.798 82.6 165.798 82.7 165.598 82.9C165.498 83.1 165.298 83.2 164.998 83.2C164.798 83.2 164.598 83.2 164.398 83C164.198 82.9 164.098 82.7 164.098 82.4C164.098 82.2 164.098 82 164.298 81.8Z" fill="white"/>
<path d="M165.201 86.0996C165.601 86.0996 166.101 86.0996 166.501 86.2996C166.901 86.4996 167.301 86.6997 167.601 86.8997C167.901 87.1997 168.201 87.4996 168.401 87.7996C168.601 88.0996 168.701 88.3996 168.701 88.5996C168.701 88.8996 168.701 89.0997 168.601 89.3997C168.501 89.5997 168.401 89.8996 168.201 90.0996L166.201 92.4996C166.101 92.6996 165.901 92.7996 165.801 92.9996C165.701 93.0996 165.601 93.2997 165.501 93.3997L164.701 92.6996C164.901 92.3996 165.101 92.1996 165.301 91.9996C164.901 92.0996 164.401 92.1996 164.101 92.0996C163.801 91.9996 163.401 91.7996 163.001 91.4996C162.801 91.2996 162.601 91.0997 162.501 90.8997C162.401 90.6997 162.301 90.3996 162.201 90.1996C162.101 89.9996 162.201 89.6996 162.201 89.4996C162.201 89.2996 162.401 88.9996 162.601 88.7996C162.901 88.4996 163.101 88.2996 163.401 88.1996C163.701 88.0996 164.001 88.0996 164.401 88.1996C164.701 88.2996 165.101 88.3996 165.401 88.5996C165.701 88.7996 166.101 89.0996 166.501 89.2996L167.101 89.7996L167.301 89.5996C167.401 89.4996 167.501 89.2996 167.501 89.1996C167.601 88.9996 167.601 88.8996 167.601 88.6996C167.601 88.4996 167.501 88.3996 167.401 88.1996C167.301 87.9996 167.201 87.8996 167.001 87.6996C166.801 87.5996 166.701 87.4997 166.501 87.3997C166.301 87.2997 166.201 87.2996 166.001 87.1996C165.801 87.0996 165.701 87.0996 165.601 87.0996C165.501 87.0996 165.301 87.0996 165.201 87.0996V86.0996ZM166.201 89.9996C166.001 89.7996 165.801 89.6996 165.501 89.4996C165.301 89.2996 165.001 89.1996 164.801 89.0996C164.601 88.9996 164.301 88.9996 164.101 88.9996C163.901 88.9996 163.701 89.0996 163.601 89.2996C163.401 89.5996 163.301 89.7996 163.401 90.0996C163.501 90.3996 163.701 90.5997 164.001 90.8997C164.201 91.0997 164.501 91.1996 164.701 91.2996C164.901 91.3996 165.201 91.3996 165.401 91.2996C165.601 91.2996 165.801 91.1996 166.001 91.0996C166.201 90.9996 166.301 90.7996 166.501 90.6996L166.701 90.3997L166.201 89.9996Z" fill="white"/>
<path d="M26.7 176.3L27.5 179.3C27.6 179.7 27.6 180 27.6 180.4C27.6 180.8 27.5 181.1 27.4 181.3C27.3 181.5 27.1 181.8 26.9 182C26.7 182.2 26.4 182.4 26 182.5C25.5 182.6 25.1 182.6 24.7 182.4C24.3 182.2 24 181.9 23.7 181.5C23.8 181.8 23.7 182 23.7 182.3C23.6 182.6 23.5 182.8 23.4 183C23.3 183.2 23.1 183.4 22.8 183.6C22.6 183.8 22.3 183.9 22 184C21.6 184.1 21.2 184.1 20.9 184C20.6 183.9 20.2 183.8 20 183.5C19.8 183.2 19.5 183 19.3 182.6C19.1 182.3 18.9 181.9 18.8 181.4L18 178.4L26.7 176.3ZM19.3 179.5L19.8 181.2C19.8 181.4 19.9 181.6 20 181.8C20.1 182 20.2 182.2 20.4 182.4C20.6 182.6 20.8 182.7 21 182.8C21.2 182.9 21.5 182.9 21.8 182.8C22.3 182.7 22.7 182.4 22.8 182C23 181.6 23 181.1 22.8 180.5L22.3 178.7L19.3 179.5ZM23.4 178.4L23.8 180C23.9 180.2 23.9 180.4 24 180.6C24.1 180.8 24.2 180.9 24.4 181.1C24.5 181.2 24.7 181.3 24.9 181.3C25.1 181.3 25.3 181.3 25.5 181.3C25.8 181.2 26.1 181 26.3 180.7C26.5 180.4 26.5 180 26.4 179.6L25.9 177.7L23.4 178.4Z" fill="white"/>
<path d="M29.1992 183.199L29.5992 184.299L25.2992 185.799C25.6992 185.799 25.9992 185.999 26.2992 186.199C26.5992 186.499 26.7992 186.799 26.9992 187.299C27.0992 187.599 27.0992 187.899 27.1992 188.099C27.2992 188.299 27.1992 188.599 26.9992 188.899C26.8992 189.099 26.6992 189.399 26.4992 189.599C26.2992 189.799 25.9992 189.999 25.5992 190.099L21.8992 191.399L21.4992 190.299L24.8992 189.099C25.1992 188.999 25.3992 188.899 25.4992 188.799C25.6992 188.699 25.7992 188.499 25.8992 188.399C25.9992 188.199 25.9992 188.099 25.9992 187.899C25.9992 187.699 25.9992 187.599 25.8992 187.399C25.7992 187.199 25.6992 186.999 25.5992 186.799C25.4992 186.599 25.2992 186.499 25.0992 186.399C24.8992 186.299 24.6992 186.299 24.3992 186.299C24.0992 186.299 23.7992 186.399 23.4992 186.499L20.5992 187.499L20.1992 186.399L29.1992 183.199Z" fill="white"/>
<path d="M27.5016 191.3C27.9016 191.5 28.3016 191.7 28.6016 192.1C28.9016 192.5 29.1016 192.8 29.3016 193.2C29.5016 193.6 29.6016 194 29.6016 194.3C29.6016 194.6 29.6016 194.9 29.5016 195.2C29.4016 195.5 29.3016 195.7 29.1016 195.9C28.9016 196.1 28.7016 196.2 28.5016 196.3L25.7016 197.5C25.5016 197.6 25.3016 197.7 25.2016 197.7C25.0016 197.8 24.9016 197.9 24.7016 197.9L24.3016 197C24.6016 196.9 24.8016 196.7 25.1016 196.6C24.6016 196.5 24.3016 196.4 24.0016 196.1C23.7016 195.8 23.5016 195.5 23.3016 195.1C23.2016 194.8 23.1016 194.6 23.1016 194.3C23.1016 194 23.1016 193.8 23.1016 193.5C23.2016 193.3 23.3016 193 23.4016 192.9C23.6016 192.7 23.8016 192.6 24.1016 192.4C24.5016 192.2 24.8016 192.2 25.1016 192.2C25.4016 192.3 25.7016 192.4 26.0016 192.6C26.3016 192.8 26.5016 193.1 26.8016 193.4C27.0016 193.7 27.2016 194.1 27.4016 194.5L27.7016 195.3L27.9016 195.2C28.0016 195.1 28.2016 195 28.3016 194.9C28.4016 194.8 28.5016 194.6 28.6016 194.5C28.7016 194.3 28.7016 194.2 28.7016 194C28.7016 193.8 28.6016 193.6 28.5016 193.4C28.4016 193.2 28.3016 193 28.2016 192.9C28.1016 192.8 28.0016 192.6 27.9016 192.6C27.8016 192.6 27.7016 192.4 27.5016 192.4C27.4016 192.3 27.3016 192.3 27.1016 192.2L27.5016 191.3ZM26.7016 195.2C26.6016 195 26.5016 194.7 26.3016 194.5C26.2016 194.3 26.0016 194 25.8016 193.9C25.6016 193.7 25.4016 193.6 25.2016 193.5C25.0016 193.4 24.8016 193.4 24.6016 193.5C24.3016 193.6 24.1016 193.8 24.1016 194.1C24.1016 194.4 24.1016 194.7 24.3016 195.1C24.4016 195.4 24.6016 195.6 24.8016 195.8C25.0016 196 25.2016 196.1 25.4016 196.1C25.6016 196.2 25.8016 196.2 26.0016 196.1C26.2016 196.1 26.4016 196 26.6016 195.9L27.0016 195.7L26.7016 195.2Z" fill="white"/>
<path d="M31.0992 200.5C31.1992 200.3 31.1992 200.1 31.1992 199.9C31.1992 199.7 31.0992 199.4 30.9992 199.2C30.8992 199 30.6992 198.8 30.4992 198.7C30.2992 198.6 30.0992 198.6 29.8992 198.7C29.6992 198.8 29.5992 198.9 29.5992 199.1C29.5992 199.3 29.4992 199.4 29.5992 199.6C29.5992 199.8 29.5992 199.9 29.6992 200.1C29.7992 200.3 29.7992 200.4 29.7992 200.5C29.8992 200.7 29.8992 201 29.8992 201.2C29.8992 201.4 29.8992 201.6 29.8992 201.9C29.8992 202.1 29.7992 202.3 29.5992 202.5C29.4992 202.7 29.2992 202.8 28.9992 203C28.6992 203.2 28.3992 203.2 28.0992 203.2C27.7992 203.2 27.5992 203.1 27.2992 203C27.0992 202.9 26.7992 202.7 26.5992 202.5C26.3992 202.3 26.1992 202 26.0992 201.8C25.8992 201.4 25.6992 200.9 25.6992 200.5C25.6992 200.1 25.6992 199.7 25.9992 199.2L26.9992 199.6C26.8992 199.9 26.8992 200.1 26.8992 200.4C26.8992 200.7 26.8992 201 27.0992 201.2C27.1992 201.3 27.1992 201.4 27.2992 201.6C27.3992 201.7 27.4992 201.8 27.5992 201.9C27.6992 202 27.7992 202 27.8992 202C27.9992 202 28.0992 202 28.1992 201.9C28.3992 201.8 28.3992 201.7 28.4992 201.6C28.4992 201.5 28.5992 201.3 28.5992 201.1C28.5992 200.9 28.5992 200.8 28.4992 200.6C28.4992 200.4 28.3992 200.3 28.3992 200.2C28.2992 200 28.2992 199.7 28.2992 199.5C28.2992 199.3 28.2992 199 28.2992 198.8C28.2992 198.6 28.3992 198.4 28.4992 198.2C28.5992 198 28.7992 197.9 29.0992 197.7C29.3992 197.6 29.6992 197.5 29.8992 197.5C30.0992 197.5 30.3992 197.6 30.6992 197.7C30.8992 197.8 31.1992 198 31.2992 198.2C31.3992 198.4 31.6992 198.6 31.7992 198.9C31.9992 199.3 32.0992 199.6 32.0992 200C32.0992 200.4 32.0992 200.8 31.7992 201.1L31.0992 200.5Z" fill="white"/>
<path d="M36.6 199.899L37.2 200.899L33.4 203.299C33.8 203.299 34.1 203.299 34.5 203.499C34.9 203.699 35.2 203.999 35.4 204.399C35.6 204.599 35.7 204.899 35.7 205.199C35.7 205.499 35.8 205.699 35.7 205.999C35.6 206.299 35.5 206.499 35.3 206.799C35.1 207.099 34.9 207.299 34.5 207.499L31.2 209.599L30.6 208.599L33.6 206.699C33.8 206.599 34 206.399 34.2 206.199C34.3 205.999 34.4 205.899 34.4 205.699C34.4 205.499 34.4 205.399 34.4 205.199C34.4 204.999 34.3 204.899 34.2 204.699C34.1 204.499 33.9 204.299 33.8 204.199C33.7 204.099 33.4 203.999 33.2 203.899C33 203.899 32.7 203.899 32.5 203.899C32.2 203.999 32 204.099 31.7 204.299L29.1 205.899L28.5 204.899L36.6 199.899Z" fill="white"/>
<path d="M36.6985 208.199C37.0985 208.299 37.4984 208.499 37.8984 208.699C38.2984 208.999 38.5985 209.299 38.7985 209.599C39.0985 209.999 39.1985 210.299 39.2985 210.599C39.3985 210.899 39.3984 211.199 39.3984 211.499C39.3984 211.799 39.2984 211.999 39.0984 212.199C38.8984 212.399 38.7984 212.599 38.5984 212.799L36.0984 214.599C35.8984 214.699 35.7984 214.799 35.5984 214.999C35.4984 215.099 35.2985 215.199 35.1985 215.299L34.7985 214.499C34.9985 214.299 35.2985 214.099 35.4985 213.899C34.9985 213.899 34.5985 213.799 34.2985 213.699C33.9985 213.499 33.6984 213.199 33.3984 212.899C33.1984 212.699 33.0985 212.399 32.9985 212.199C32.8985 211.899 32.8984 211.699 32.8984 211.499C32.8984 211.299 32.9984 210.999 33.0984 210.799C33.1984 210.599 33.3984 210.399 33.5984 210.199C33.8984 209.999 34.1985 209.799 34.4985 209.799C34.7985 209.799 35.0984 209.799 35.3984 209.999C35.6984 210.099 35.9985 210.399 36.2985 210.599C36.5985 210.899 36.8985 211.199 37.1985 211.599L37.6985 212.299L37.8984 212.099C37.9984 211.999 38.0985 211.899 38.1985 211.799C38.2985 211.699 38.2984 211.499 38.3984 211.299C38.3984 211.099 38.3984 210.999 38.3984 210.799C38.3984 210.599 38.2984 210.399 38.0984 210.199C37.9984 209.999 37.7985 209.899 37.6985 209.799C37.5985 209.699 37.3985 209.599 37.2985 209.499C37.1985 209.399 36.9984 209.399 36.8984 209.299C36.7984 209.199 36.5985 209.199 36.4985 209.199L36.6985 208.199ZM36.6985 212.199C36.4985 211.999 36.3985 211.799 36.1985 211.599C35.9985 211.399 35.7984 211.199 35.5984 211.099C35.3984 210.999 35.1985 210.899 34.9985 210.799C34.7985 210.799 34.5984 210.799 34.3984 210.999C34.0984 211.199 33.9985 211.399 33.9985 211.699C33.9985 211.999 34.0984 212.299 34.3984 212.599C34.5984 212.899 34.7985 212.999 34.9985 213.199C35.1985 213.399 35.3985 213.399 35.6985 213.399C35.8985 213.399 36.0985 213.399 36.2985 213.299C36.4985 213.199 36.6984 213.099 36.8984 212.999L37.1985 212.799L36.6985 212.199Z" fill="white"/>
<path d="M44.5016 218.999C44.5016 218.799 44.5016 218.599 44.5016 218.299C44.5016 218.099 44.3015 217.899 44.1015 217.599C43.9015 217.399 43.7016 217.299 43.5016 217.199C43.3016 217.099 43.1015 217.199 42.9015 217.299C42.8015 217.399 42.7016 217.599 42.7016 217.699C42.7016 217.899 42.7016 217.999 42.8016 218.199C42.9016 218.399 42.9016 218.499 43.0016 218.699C43.1016 218.899 43.2016 218.999 43.2016 219.099C43.3016 219.299 43.4016 219.499 43.5016 219.799C43.6016 220.099 43.6015 220.199 43.6015 220.399C43.6015 220.599 43.6016 220.799 43.5016 220.999C43.4016 221.199 43.3015 221.399 43.1015 221.599C42.8015 221.799 42.6016 221.999 42.3016 221.999C42.0016 222.099 41.8016 222.099 41.5016 221.999C41.2016 221.899 41.0016 221.799 40.7016 221.599C40.5016 221.399 40.2016 221.199 40.0016 220.999C39.7016 220.599 39.4016 220.299 39.3016 219.899C39.2016 219.499 39.1016 219.099 39.2016 218.599L40.3016 218.799C40.3016 219.099 40.3015 219.299 40.4015 219.599C40.4015 219.899 40.6016 220.099 40.8016 220.399C40.9016 220.499 41.0015 220.599 41.1015 220.699C41.2015 220.799 41.3016 220.899 41.5016 220.899C41.6016 220.899 41.7015 220.999 41.9015 220.899C42.1015 220.799 42.1016 220.799 42.2016 220.799C42.3016 220.699 42.4015 220.599 42.4015 220.399C42.4015 220.199 42.4016 220.099 42.3016 219.899C42.2016 219.699 42.2015 219.599 42.1015 219.399C42.0015 219.299 41.9015 219.099 41.9015 218.999C41.8015 218.799 41.7015 218.599 41.6015 218.299C41.5015 217.999 41.4015 217.899 41.4015 217.699C41.4015 217.499 41.4016 217.299 41.5016 217.099C41.6016 216.899 41.7015 216.699 41.9015 216.499C42.1015 216.299 42.4015 216.199 42.6015 216.099C42.8015 215.999 43.1015 215.999 43.4015 216.099C43.7015 216.199 43.9016 216.299 44.2016 216.399C44.4016 216.599 44.7016 216.699 44.8016 216.899C45.1016 217.199 45.3015 217.499 45.4015 217.899C45.5015 218.299 45.6015 218.699 45.4015 219.099L44.5016 218.999Z" fill="white"/>
<path d="M46.7008 220.199C47.1008 220.199 47.6008 220.299 48.0008 220.499C48.4008 220.699 48.8008 220.899 49.1008 221.199C49.4008 221.499 49.7008 221.799 49.8008 222.099C50.0008 222.399 50.0008 222.699 50.1008 222.999C50.1008 223.299 50.1008 223.499 50.0008 223.799C49.9008 223.999 49.8008 224.299 49.6008 224.499L47.5008 226.699C47.4008 226.899 47.2008 226.999 47.1008 227.099C47.0008 227.199 46.9008 227.399 46.8008 227.499L46.1008 226.799C46.3008 226.599 46.5008 226.299 46.7008 226.099C46.2008 226.199 45.8008 226.199 45.5008 226.099C45.1008 225.999 44.8008 225.799 44.5008 225.399C44.3008 225.199 44.1008 224.999 44.0008 224.799C43.9008 224.599 43.8008 224.299 43.8008 224.099C43.8008 223.899 43.8008 223.599 43.9008 223.399C44.0008 223.199 44.1008 222.899 44.3008 222.699C44.6008 222.399 44.9008 222.199 45.2008 222.199C45.5008 222.099 45.8008 222.099 46.2008 222.199C46.6008 222.299 46.9008 222.399 47.2008 222.699C47.5008 222.899 47.9008 223.199 48.2008 223.499L48.8008 224.099L49.0008 223.899C49.1008 223.799 49.2008 223.699 49.3008 223.499C49.4008 223.299 49.4008 223.199 49.4008 222.999C49.4008 222.799 49.4008 222.699 49.3008 222.499C49.2008 222.299 49.1008 222.199 48.9008 221.999C48.7008 221.799 48.6008 221.699 48.4008 221.599C48.3008 221.499 48.1008 221.499 48.0008 221.399C47.9008 221.299 47.7008 221.299 47.6008 221.299C47.5008 221.299 47.3008 221.299 47.2008 221.299L46.7008 220.199ZM47.4008 224.199C47.2008 223.999 47.0008 223.799 46.8008 223.699C46.6008 223.499 46.3008 223.399 46.1008 223.299C45.9008 223.199 45.7008 223.199 45.4008 223.199C45.2008 223.199 45.0008 223.299 44.8008 223.499C44.6008 223.799 44.5008 223.999 44.5008 224.299C44.6008 224.599 44.7008 224.799 45.0008 225.099C45.2008 225.299 45.5008 225.499 45.7008 225.499C45.9008 225.599 46.2008 225.599 46.4008 225.599C46.6008 225.599 46.8008 225.499 47.0008 225.399C47.2008 225.299 47.4008 225.199 47.5008 224.999L47.8008 224.699L47.4008 224.199Z" fill="white"/>
<path d="M51.9 224.1L52.7 224.8L52.1 225.5C52.2 225.4 52.3 225.4 52.5 225.4C52.7 225.4 52.8 225.4 53 225.4C53.2 225.4 53.4 225.5 53.6 225.5C53.8 225.6 54 225.7 54.3 225.9C54.7 226.2 54.9 226.5 55 226.8C55.1 227.1 55.2 227.5 55.1 227.9C55.5 227.7 55.9 227.7 56.3 227.7C56.7 227.8 57 227.9 57.3 228.1C57.7 228.4 57.9 228.7 58.1 229C58.2 229.3 58.3 229.6 58.3 229.9C58.3 230.2 58.2 230.5 58.1 230.8C58 231.1 57.8 231.4 57.6 231.6L55.4 234.4L54.5 233.7L56.6 231C56.7 230.8 56.9 230.6 57 230.4C57.1 230.2 57.2 230 57.2 229.8C57.2 229.6 57.2 229.4 57.1 229.3C57 229.1 56.9 228.9 56.7 228.8C56.3 228.5 55.8 228.3 55.5 228.5C55.1 228.6 54.7 228.9 54.4 229.3L52.4 231.9L51.5 231.2L53.4 228.7C53.6 228.5 53.7 228.3 53.9 228C54.1 227.7 54.1 227.6 54.1 227.4C54.1 227.2 54.1 227 54.1 226.8C54 226.6 53.9 226.4 53.7 226.3C53.5 226.2 53.4 226.1 53.2 226C53 225.9 52.8 225.9 52.6 226C52.4 226 52.2 226.1 51.9 226.3C51.7 226.4 51.5 226.7 51.3 226.9L49.4 229.4L48.5 228.7L51.9 224.1Z" fill="white"/>
<path d="M60.1 231.2C60.5 231.1 61 231.1 61.4 231.2C61.8 231.3 62.2 231.5 62.6 231.7C63 231.9 63.3 232.2 63.5 232.5C63.7 232.8 63.9 233 63.9 233.3C64 233.6 64 233.8 63.9 234.1C63.9 234.4 63.8 234.6 63.6 234.8L61.9 237.4C61.8 237.6 61.7 237.7 61.6 237.9C61.5 238.1 61.4 238.2 61.4 238.4L60.5 237.9C60.6 237.6 60.8 237.4 61 237.1C60.6 237.3 60.2 237.4 59.8 237.3C59.4 237.2 59 237.1 58.6 236.9C58.4 236.7 58.2 236.6 58 236.4C57.8 236.2 57.7 236 57.6 235.8C57.5 235.6 57.5 235.3 57.5 235.1C57.5 234.9 57.6 234.6 57.8 234.3C58 234 58.3 233.7 58.5 233.6C58.8 233.5 59.1 233.4 59.4 233.4C59.7 233.4 60.1 233.5 60.5 233.7C60.9 233.9 61.3 234.1 61.7 234.3L62.4 234.8L62.5 234.6C62.6 234.5 62.6 234.3 62.7 234.2C62.7 234 62.7 233.9 62.7 233.7C62.7 233.5 62.6 233.4 62.5 233.2C62.4 233 62.2 232.9 62 232.8C61.8 232.7 61.6 232.6 61.5 232.5C61.4 232.4 61.2 232.4 61 232.4C60.9 232.4 60.7 232.4 60.6 232.4C60.5 232.4 60.3 232.4 60.2 232.4L60.1 231.2ZM61.5 235C61.3 234.9 61 234.7 60.8 234.6C60.5 234.5 60.3 234.4 60 234.3C59.8 234.2 59.5 234.2 59.3 234.3C59.1 234.3 58.9 234.5 58.8 234.7C58.6 235 58.6 235.3 58.7 235.5C58.8 235.8 59 236 59.4 236.2C59.7 236.4 59.9 236.5 60.2 236.5C60.4 236.5 60.7 236.5 60.9 236.4C61.1 236.3 61.3 236.2 61.5 236.1C61.7 236 61.8 235.8 61.9 235.6L62.1 235.3L61.5 235Z" fill="white"/>
<path d="M66.0016 234L67.0016 234.6L66.6016 235.4C66.7016 235.3 66.9016 235.2 67.1016 235.2C67.3016 235.1 67.5016 235.1 67.6016 235.1C67.8016 235.1 68.0016 235.1 68.2016 235.2C68.4016 235.2 68.6016 235.3 68.7016 235.4C68.8016 235.5 69.0016 235.6 69.1016 235.7L68.5016 236.8C68.4016 236.7 68.4016 236.7 68.3016 236.6C68.2016 236.5 68.1016 236.5 68.1016 236.4C67.6016 236.1 67.2016 236.1 66.7016 236.2C66.3016 236.3 65.9016 236.7 65.6016 237.3L64.1016 240L63.1016 239.4L66.0016 234Z" fill="white"/>
<path d="M72.6008 238.499L71.1008 237.799L69.9008 240.299C69.8008 240.499 69.8008 240.599 69.7008 240.799C69.6008 240.999 69.6008 241.099 69.6008 241.199C69.6008 241.299 69.6008 241.499 69.7008 241.599C69.8008 241.699 69.9008 241.799 70.1008 241.899C70.2008 241.999 70.4008 241.999 70.5008 241.999C70.6008 241.999 70.8008 242.099 70.9008 241.999L70.4008 242.899C70.2008 242.899 70.1008 242.899 69.9008 242.799C69.7008 242.699 69.5008 242.699 69.4008 242.599C69.0008 242.399 68.7008 242.199 68.6008 241.999C68.4008 241.799 68.3008 241.599 68.3008 241.299C68.3008 241.099 68.3008 240.799 68.4008 240.599C68.5008 240.399 68.6008 240.099 68.7008 239.899L70.1008 237.099L68.9008 236.499L69.3008 235.599L70.5008 236.199L71.2008 234.699L72.2008 235.199L71.5008 236.699L73.0008 237.399L72.6008 238.499Z" fill="white"/>
<path d="M75.5984 234.899L76.6985 235.299L74.9985 239.499C75.2985 239.299 75.5985 239.099 75.9985 239.099C76.3985 238.999 76.7985 239.099 77.2985 239.299C77.5985 239.399 77.7985 239.599 77.9985 239.699C78.1985 239.899 78.3985 240.099 78.4985 240.299C78.5985 240.499 78.6985 240.799 78.6985 241.099C78.6985 241.399 78.5985 241.799 78.4985 242.099L76.9985 245.699L75.8984 245.299L77.1985 241.999C77.2985 241.699 77.3984 241.499 77.3984 241.299C77.3984 241.099 77.3985 240.899 77.2985 240.699C77.1985 240.499 77.0985 240.399 76.9985 240.299C76.8985 240.199 76.6984 240.099 76.5984 239.999C76.3984 239.899 76.1984 239.899 75.8984 239.899C75.6984 239.899 75.4985 239.899 75.2985 239.999C75.0985 240.099 74.8985 240.199 74.6985 240.499C74.4985 240.699 74.3985 240.999 74.1985 241.299L72.9985 244.199L71.8984 243.799L75.5984 234.899Z" fill="white"/>
<path d="M80.4985 241.4C80.8985 241.2 81.2984 241.1 81.7984 241.1C82.2984 241.1 82.6984 241.1 83.0984 241.3C83.4984 241.4 83.8984 241.6 84.0984 241.8C84.3984 242 84.5985 242.2 84.6985 242.5C84.7985 242.7 84.8984 243 84.8984 243.3C84.8984 243.6 84.8984 243.8 84.7984 244.1L83.8984 247C83.7984 247.2 83.7985 247.4 83.6985 247.6C83.6985 247.8 83.5984 247.9 83.5984 248.1L82.5984 247.8C82.6984 247.5 82.6984 247.2 82.7984 246.9C82.3984 247.2 82.0985 247.4 81.6985 247.4C81.2985 247.4 80.8985 247.4 80.4985 247.3C80.1985 247.2 79.9984 247.1 79.7984 246.9C79.5984 246.7 79.3984 246.6 79.2984 246.4C79.1984 246.2 79.0985 246 78.9985 245.7C78.8985 245.4 78.9984 245.2 79.0984 244.9C79.1984 244.5 79.3984 244.2 79.5984 244C79.7984 243.8 80.0985 243.7 80.4985 243.6C80.7985 243.5 81.1984 243.5 81.5984 243.6C81.9984 243.7 82.3984 243.7 82.8984 243.9L83.6985 244.2L83.7984 244C83.7984 243.9 83.8984 243.7 83.8984 243.5C83.8984 243.3 83.7984 243.2 83.7984 243C83.6984 242.8 83.5985 242.7 83.4985 242.6C83.3985 242.5 83.1984 242.4 82.8984 242.3C82.6984 242.2 82.4984 242.2 82.2984 242.2C82.0984 242.2 81.9984 242.2 81.7984 242.2C81.6984 242.2 81.4984 242.3 81.3984 242.3C81.2984 242.3 81.0985 242.4 80.9985 242.4L80.4985 241.4ZM82.8984 244.7C82.5984 244.6 82.3984 244.5 82.0984 244.5C81.7984 244.4 81.5984 244.4 81.2984 244.4C81.0984 244.4 80.7984 244.5 80.5984 244.6C80.3984 244.7 80.2985 244.9 80.1985 245.1C80.0985 245.4 80.0984 245.7 80.2984 245.9C80.4984 246.1 80.7984 246.3 81.0984 246.4C81.3984 246.5 81.6984 246.5 81.8984 246.5C82.0984 246.5 82.3985 246.4 82.4985 246.3C82.6985 246.2 82.7985 246 82.9985 245.8C83.1985 245.6 83.1984 245.4 83.2984 245.2L83.3984 244.8L82.8984 244.7Z" fill="white"/>
<path d="M87.8016 239.1L88.9016 239.4L87.5016 245.5L90.6016 243.5L92.2016 243.9L88.8016 245.9L91.0016 249.8L89.4016 249.4L87.4016 245.7L86.7016 248.8L85.6016 248.5L87.8016 239.1Z" fill="white"/>
<path d="M96.6016 246.1C96.6016 245.8 96.7016 245.5 96.9016 245.2C97.0016 244.9 97.2016 244.7 97.5016 244.5C97.8016 244.3 98.0016 244.2 98.3016 244.1C98.6016 244 98.9016 244 99.2016 244C99.5016 244 99.8016 244.1 100.102 244.3C100.402 244.5 100.602 244.6 100.802 244.9C101.002 245.2 101.102 245.4 101.202 245.7C101.302 246 101.302 246.3 101.302 246.6C101.302 246.9 101.202 247.2 101.002 247.5C100.902 247.8 100.702 248 100.402 248.2C100.102 248.4 99.9016 248.5 99.6016 248.6C99.3016 248.7 99.0016 248.7 98.7016 248.7C98.4016 248.7 98.1016 248.6 97.8016 248.4C97.5016 248.2 97.3016 248.1 97.1016 247.8C96.9016 247.6 96.8016 247.3 96.7016 247C96.6016 246.8 96.6016 246.5 96.6016 246.1Z" fill="white"/>
<path d="M106.802 242.5L110.002 242.6C110.602 242.6 111.102 242.7 111.402 242.9C111.802 243.1 112.102 243.3 112.302 243.5C112.502 243.7 112.702 244 112.702 244.3C112.802 244.6 112.802 244.9 112.802 245.2C112.802 245.5 112.702 245.8 112.702 246.1C112.602 246.4 112.502 246.7 112.202 246.9C111.902 247.1 111.702 247.3 111.302 247.5C110.902 247.7 110.402 247.7 109.902 247.7H107.902L107.802 251.7H106.602L106.802 242.5ZM108.002 246.5H109.602C109.802 246.5 110.102 246.5 110.302 246.5C110.502 246.5 110.702 246.4 110.902 246.3C111.102 246.2 111.202 246.1 111.302 245.9C111.402 245.7 111.502 245.5 111.502 245.2C111.502 244.9 111.502 244.6 111.302 244.5C111.202 244.3 111.002 244.2 110.902 244.1C110.702 244 110.502 243.9 110.302 243.9C110.102 243.9 109.802 243.8 109.602 243.8H108.002V246.5Z" fill="white"/>
<path d="M113.801 241.799L114.901 241.699L115.501 251.299L114.401 251.399L113.801 241.799Z" fill="white"/>
<path d="M117 246C117.3 245.7 117.6 245.4 118 245.2C118.4 245 118.8 244.9 119.2 244.8C119.6 244.8 120 244.8 120.4 244.8C120.8 244.8 121 245 121.2 245.2C121.4 245.4 121.6 245.6 121.7 245.8C121.8 246 121.9 246.3 121.9 246.5L122.2 249.6C122.2 249.8 122.2 250 122.3 250.2C122.3 250.4 122.4 250.5 122.4 250.7L121.4 250.8C121.3 250.5 121.3 250.2 121.3 249.9C121.1 250.3 120.8 250.6 120.5 250.8C120.2 251 119.8 251.1 119.3 251.2C119 251.2 118.8 251.2 118.5 251.2C118.2 251.2 118 251.1 117.8 250.9C117.6 250.7 117.4 250.6 117.3 250.4C117.2 250.2 117.1 249.9 117 249.6C117 249.2 117 248.9 117.1 248.6C117.2 248.3 117.5 248.1 117.7 247.9C118 247.7 118.3 247.5 118.7 247.4C119.1 247.3 119.5 247.2 120 247.1L120.8 247V246.7C120.8 246.5 120.7 246.4 120.7 246.3C120.6 246.2 120.5 246 120.4 245.9C120.3 245.8 120.1 245.7 119.9 245.7C119.7 245.7 119.5 245.6 119.3 245.7C119.1 245.7 118.9 245.8 118.7 245.8C118.5 245.9 118.4 245.9 118.3 246C118.2 246.1 118.1 246.2 118 246.3C117.9 246.4 117.8 246.5 117.7 246.6L117 246ZM120.5 248C120.2 248 120 248.1 119.7 248.1C119.4 248.2 119.2 248.2 118.9 248.4C118.6 248.6 118.5 248.6 118.4 248.8C118.3 249 118.2 249.2 118.2 249.4C118.2 249.7 118.4 250 118.6 250.1C118.8 250.2 119.2 250.3 119.6 250.2C119.9 250.2 120.2 250.1 120.4 250C120.6 249.9 120.8 249.7 120.9 249.5C121 249.3 121.1 249.1 121.1 248.9C121.1 248.7 121.1 248.5 121.1 248.3V247.9L120.5 248Z" fill="white"/>
<path d="M126.802 244.8L125.202 245.1L125.702 247.8C125.702 248 125.802 248.1 125.802 248.3C125.802 248.5 125.902 248.6 126.002 248.7C126.102 248.8 126.202 248.9 126.302 249C126.402 249.1 126.602 249.1 126.802 249C126.902 249 127.102 248.9 127.202 248.9C127.302 248.8 127.502 248.8 127.602 248.7L127.802 249.7C127.702 249.8 127.502 249.9 127.302 249.9C127.102 250 126.902 250 126.802 250C126.402 250.1 126.002 250.1 125.802 250C125.502 249.9 125.302 249.8 125.202 249.6C125.102 249.4 124.902 249.2 124.902 249C124.802 248.8 124.802 248.5 124.702 248.3L124.102 245.2L122.802 245.4L122.602 244.4L123.902 244.2L123.602 242.5L124.702 242.3L125.002 244L126.602 243.7L126.802 244.8Z" fill="white"/>
<path d="M127.301 241.5C127.301 241.3 127.301 241.1 127.401 240.9C127.501 240.7 127.701 240.6 127.901 240.5C128.101 240.5 128.301 240.5 128.501 240.6C128.701 240.7 128.801 240.9 128.901 241.1C128.901 241.3 128.901 241.5 128.801 241.7C128.701 241.9 128.501 242 128.301 242.1C128.101 242.1 127.901 242.1 127.701 242C127.501 241.9 127.401 241.7 127.301 241.5ZM128.101 243.5L129.201 243.3L130.501 249.2L129.401 249.4L128.101 243.5Z" fill="white"/>
<path d="M130.898 243L131.898 242.7L132.198 243.6C132.198 243.5 132.198 243.4 132.298 243.2C132.398 243 132.498 242.9 132.598 242.7C132.698 242.5 132.898 242.4 133.098 242.2C133.298 242.1 133.498 241.9 133.798 241.9C134.198 241.8 134.598 241.7 134.998 241.8C135.398 241.9 135.698 242.1 135.998 242.4C136.098 242 136.298 241.6 136.498 241.4C136.798 241.1 137.098 240.9 137.498 240.8C137.898 240.7 138.298 240.6 138.698 240.7C138.998 240.8 139.298 240.9 139.498 241.1C139.698 241.3 139.898 241.5 140.098 241.8C140.298 242.1 140.398 242.4 140.498 242.7L141.498 246.1L140.398 246.4L139.398 243.2C139.298 243 139.298 242.8 139.198 242.6C139.098 242.4 138.998 242.2 138.898 242.1C138.798 242 138.598 241.9 138.398 241.8C138.198 241.8 137.998 241.8 137.698 241.9C137.198 242.1 136.798 242.3 136.698 242.7C136.598 243.1 136.598 243.5 136.698 244.1L137.698 247.3L136.598 247.6L135.698 244.6C135.598 244.3 135.498 244.1 135.398 243.9C135.298 243.7 135.198 243.5 134.998 243.4C134.798 243.3 134.698 243.2 134.498 243.1C134.298 243.1 134.098 243.1 133.798 243.2C133.598 243.3 133.398 243.4 133.298 243.5C133.098 243.6 132.998 243.8 132.898 244C132.798 244.2 132.798 244.4 132.798 244.7C132.798 245 132.798 245.3 132.898 245.6L133.798 248.6L132.698 248.9L130.898 243Z" fill="white"/>
<path d="M148.3 243.2L147.2 243.6L146.8 242.7C146.8 243.1 146.7 243.4 146.4 243.7C146.1 244 145.8 244.3 145.4 244.5C145.1 244.6 144.9 244.7 144.6 244.7C144.3 244.7 144.1 244.7 143.8 244.6C143.5 244.5 143.3 244.3 143.1 244.1C142.9 243.9 142.7 243.6 142.5 243.2L141 239.6L142.1 239.2L143.5 242.5C143.6 242.8 143.7 243 143.9 243.1C144 243.3 144.2 243.4 144.4 243.4C144.6 243.5 144.7 243.5 144.9 243.5C145.1 243.5 145.2 243.4 145.4 243.4C145.6 243.3 145.8 243.2 146 243C146.2 242.8 146.3 242.7 146.4 242.5C146.5 242.3 146.5 242 146.5 241.8C146.5 241.5 146.4 241.2 146.3 240.9L145.1 238L146.2 237.6L148.3 243.2Z" fill="white"/>
<path d="M147.5 237L148.4 236.5L148.9 237.3C148.9 237.2 148.9 237.1 148.9 236.9C148.9 236.7 149 236.6 149.1 236.4C149.2 236.2 149.3 236 149.5 235.9C149.7 235.7 149.9 235.6 150.1 235.4C150.5 235.2 150.9 235.1 151.2 235.1C151.6 235.1 151.9 235.2 152.3 235.5C152.3 235.1 152.4 234.7 152.6 234.4C152.8 234.1 153.1 233.8 153.4 233.6C153.8 233.4 154.2 233.3 154.5 233.3C154.8 233.3 155.1 233.4 155.4 233.5C155.7 233.6 155.9 233.8 156.1 234.1C156.3 234.4 156.5 234.6 156.7 234.9L158.4 238L157.4 238.6L155.8 235.6C155.7 235.4 155.6 235.2 155.4 235C155.3 234.8 155.1 234.7 155 234.6C154.8 234.5 154.7 234.5 154.5 234.4C154.3 234.3 154.1 234.5 153.8 234.6C153.3 234.9 153 235.2 153 235.6C153 236 153.1 236.5 153.3 236.9L154.9 239.8L153.9 240.4L152.4 237.6C152.3 237.3 152.1 237.1 152 236.9C151.9 236.7 151.7 236.6 151.5 236.4C151.3 236.3 151.2 236.2 151 236.2C150.8 236.2 150.6 236.3 150.3 236.4C150.1 236.5 150 236.6 149.8 236.8C149.6 237 149.6 237.1 149.5 237.4C149.5 237.6 149.4 237.8 149.5 238.1C149.6 238.4 149.7 238.6 149.8 238.9L151.3 241.7L150.3 242.3L147.5 237Z" fill="white"/>
<path d="M164.3 224.999C163.9 224.899 163.5 224.899 163.1 224.999C162.7 225.099 162.3 225.299 162 225.499C161.6 225.799 161.3 226.199 161.1 226.599C160.9 226.999 160.8 227.399 160.7 227.899C160.7 228.299 160.7 228.799 160.9 229.199C161 229.699 161.3 230.099 161.6 230.499C161.9 230.899 162.2 231.199 162.6 231.399C163 231.599 163.4 231.799 163.8 231.899C164.2 231.999 164.7 231.999 165.1 231.899C165.5 231.799 166 231.599 166.4 231.299C166.8 230.999 167.1 230.599 167.3 230.199C167.5 229.799 167.6 229.399 167.5 228.899H168.8C168.8 228.999 168.8 229.199 168.8 229.399C168.8 229.599 168.7 229.899 168.6 230.199C168.5 230.499 168.3 230.799 168.1 231.199C167.9 231.499 167.5 231.899 167.1 232.199C166.5 232.599 165.9 232.899 165.3 232.999C164.7 233.099 164.1 233.099 163.5 232.999C162.9 232.899 162.4 232.699 161.9 232.399C161.4 232.099 161 231.699 160.6 231.199C160.2 230.599 159.9 230.099 159.7 229.499C159.5 228.899 159.5 228.299 159.5 227.699C159.5 227.099 159.8 226.499 160.1 225.999C160.4 225.499 160.9 224.999 161.4 224.599C161.9 224.199 162.4 223.999 163 223.799C163.6 223.599 164.2 223.599 164.8 223.799L164.3 224.999Z" fill="white"/>
<path d="M168.502 226.799C168.202 226.499 168.002 226.099 167.802 225.699C167.702 225.299 167.602 224.899 167.602 224.499C167.602 224.099 167.702 223.699 167.902 223.299C168.102 222.899 168.302 222.599 168.702 222.299C169.002 221.999 169.402 221.799 169.802 221.599C170.202 221.399 170.602 221.399 171.002 221.399C171.402 221.399 171.802 221.499 172.202 221.699C172.602 221.899 172.902 222.099 173.202 222.399C173.502 222.699 173.702 223.099 173.902 223.499C174.002 223.899 174.102 224.299 174.102 224.699C174.102 225.099 174.002 225.499 173.802 225.899C173.602 226.299 173.402 226.599 173.002 226.899C172.702 227.199 172.302 227.399 171.902 227.599C171.502 227.799 171.102 227.799 170.702 227.799C170.302 227.799 169.902 227.699 169.502 227.499C169.102 227.299 168.802 227.099 168.502 226.799ZM169.402 225.899C169.602 226.099 169.802 226.299 170.102 226.399C170.302 226.499 170.602 226.599 170.802 226.599C171.002 226.599 171.302 226.599 171.602 226.499C171.902 226.399 172.102 226.299 172.302 226.099C172.502 225.899 172.702 225.699 172.802 225.399C172.902 225.199 173.002 224.899 173.002 224.699C173.002 224.499 172.902 224.199 172.802 223.899C172.702 223.599 172.502 223.399 172.302 223.199C172.102 222.999 171.902 222.799 171.602 222.699C171.402 222.599 171.102 222.499 170.902 222.499C170.702 222.499 170.402 222.499 170.102 222.599C169.802 222.699 169.602 222.799 169.402 222.999C169.202 223.199 169.002 223.399 168.902 223.699C168.802 223.999 168.702 224.199 168.702 224.399C168.702 224.599 168.802 224.899 168.902 225.199C169.002 225.499 169.202 225.699 169.402 225.899Z" fill="white"/>
<path d="M172.102 219.2L172.902 218.4L173.602 219C173.502 218.7 173.402 218.3 173.502 217.9C173.602 217.5 173.802 217.1 174.102 216.8C174.302 216.6 174.502 216.4 174.802 216.3C175.002 216.2 175.302 216.1 175.602 216.1C175.902 216.1 176.202 216.1 176.502 216.2C176.802 216.3 177.102 216.5 177.402 216.8L180.302 219.4L179.502 220.2L176.902 217.8C176.702 217.6 176.502 217.5 176.302 217.4C176.102 217.3 175.902 217.3 175.702 217.3C175.502 217.3 175.402 217.4 175.202 217.4C175.002 217.5 174.902 217.6 174.802 217.7C174.602 217.9 174.502 218.1 174.402 218.3C174.302 218.5 174.302 218.7 174.302 218.9C174.302 219.1 174.402 219.4 174.502 219.6C174.602 219.8 174.802 220.1 175.102 220.3L177.402 222.4L176.602 223.2L172.102 219.2Z" fill="white"/>
<path d="M179.602 212.099L178.602 213.399L180.702 215.099C180.802 215.199 181.002 215.299 181.102 215.399C181.202 215.499 181.402 215.599 181.502 215.599C181.602 215.599 181.802 215.599 181.902 215.599C182.002 215.599 182.202 215.499 182.302 215.299C182.402 215.199 182.502 215.099 182.502 214.899C182.602 214.799 182.602 214.599 182.602 214.499L183.402 215.199C183.402 215.399 183.302 215.499 183.202 215.699C183.102 215.899 183.002 215.999 182.902 216.099C182.602 216.399 182.402 216.699 182.102 216.799C181.802 216.899 181.602 216.999 181.402 216.899C181.202 216.899 181.002 216.799 180.802 216.599C180.602 216.499 180.402 216.299 180.202 216.199L177.702 214.199L176.902 215.199L176.102 214.599L176.902 213.599L175.602 212.499L176.302 211.599L177.602 212.699L178.602 211.399L179.602 212.099Z" fill="white"/>
<path d="M179.602 210.4L180.302 209.5L181.102 210C181.002 209.8 181.002 209.7 180.902 209.5C180.902 209.3 180.902 209.1 180.902 209C180.902 208.8 181.002 208.6 181.002 208.5C181.102 208.3 181.202 208.1 181.302 208C181.402 207.8 181.502 207.7 181.702 207.6L182.702 208.4C182.602 208.5 182.602 208.5 182.502 208.6C182.402 208.7 182.402 208.7 182.302 208.8C182.002 209.3 181.802 209.7 181.902 210.1C182.002 210.5 182.302 210.9 182.802 211.3L185.302 213.1L184.602 214L179.602 210.4Z" fill="white"/>
<path d="M180.4 205.6C180.2 205.5 180.1 205.3 180 205.1C180 204.9 180 204.7 180.1 204.5C180.2 204.3 180.4 204.2 180.6 204.1C180.8 204.1 181 204.1 181.2 204.2C181.4 204.3 181.5 204.5 181.6 204.7C181.6 204.9 181.6 205.1 181.5 205.3C181.4 205.5 181.2 205.6 181 205.7C180.8 205.7 180.6 205.7 180.4 205.6ZM182.4 206.5L183 205.5L188 208.8L187.4 209.8L182.4 206.5Z" fill="white"/>
<path d="M180.801 202.3L181.401 201.3L185.301 203.5C185.101 203.2 185.101 202.8 185.101 202.4C185.101 202 185.301 201.6 185.501 201.2C185.701 200.8 186.001 200.5 186.301 200.2C186.601 200 187.001 199.8 187.401 199.7C187.801 199.6 188.201 199.6 188.601 199.7C189.001 199.8 189.401 199.9 189.801 200.1C190.201 200.3 190.501 200.6 190.801 200.9C191.101 201.2 191.201 201.6 191.401 201.9C191.501 202.3 191.601 202.7 191.501 203.1C191.501 203.5 191.301 203.9 191.101 204.3C190.901 204.7 190.601 205 190.301 205.2C190.001 205.4 189.601 205.6 189.201 205.6L190.001 206L189.401 207L180.801 202.3ZM190.001 204C190.201 203.7 190.201 203.5 190.301 203.2C190.301 202.9 190.301 202.7 190.201 202.4C190.101 202.2 190.001 201.9 189.801 201.7C189.601 201.5 189.401 201.3 189.101 201.2C188.801 201 188.601 200.9 188.301 200.9C188.001 200.9 187.801 200.9 187.501 200.9C187.301 201 187.001 201.1 186.801 201.2C186.601 201.4 186.401 201.6 186.201 201.8C186.001 202.1 186.001 202.3 185.901 202.6C185.901 202.9 185.901 203.1 186.001 203.4C186.101 203.6 186.201 203.9 186.401 204.1C186.601 204.3 186.801 204.5 187.101 204.6C187.401 204.8 187.601 204.9 187.901 204.9C188.201 204.9 188.401 204.9 188.701 204.9C188.901 204.8 189.201 204.7 189.401 204.6C189.601 204.5 189.801 204.2 190.001 204Z" fill="white"/>
<path d="M195.499 195.2L194.999 196.2L194.199 195.8C194.399 196.1 194.599 196.4 194.599 196.8C194.599 197.2 194.499 197.6 194.299 198C194.199 198.3 193.999 198.5 193.799 198.7C193.599 198.9 193.399 199.1 193.099 199.2C192.799 199.3 192.599 199.3 192.199 199.3C191.799 199.3 191.499 199.2 191.199 199L187.699 197.3L188.199 196.3L191.399 197.8C191.699 197.9 191.899 198 192.099 198C192.299 198 192.499 198 192.699 197.9C192.899 197.8 192.999 197.7 193.099 197.6C193.199 197.5 193.299 197.3 193.399 197.2C193.499 197 193.599 196.8 193.599 196.6C193.599 196.4 193.599 196.2 193.499 196C193.399 195.8 193.299 195.6 193.099 195.4C192.899 195.2 192.599 195 192.299 194.9L189.499 193.6L189.999 192.6L195.499 195.2Z" fill="white"/>
<path d="M192.7 188.4L192.1 189.9L194.7 190.9C194.9 191 195 191 195.2 191.1C195.4 191.2 195.5 191.2 195.7 191.2C195.8 191.2 196 191.2 196.1 191.1C196.2 191 196.3 190.9 196.4 190.7C196.4 190.6 196.5 190.4 196.5 190.3C196.5 190.2 196.5 190 196.5 189.9L197.5 190.3C197.5 190.5 197.5 190.6 197.5 190.9C197.5 191.2 197.4 191.3 197.4 191.4C197.2 191.8 197.1 192.1 196.9 192.3C196.7 192.5 196.5 192.6 196.3 192.6C196.1 192.6 195.8 192.6 195.6 192.6C195.4 192.6 195.1 192.5 194.9 192.4L192 191.3L191.5 192.5L190.6 192.1L191.1 190.9L189.5 190.3L189.9 189.2L191.5 189.8L192.1 188.3L192.7 188.4Z" fill="white"/>
<path d="M195.098 188C194.698 187.9 194.298 187.7 193.998 187.4C193.698 187.1 193.398 186.8 193.198 186.4C192.998 186 192.898 185.6 192.898 185.2C192.898 184.8 192.898 184.4 192.998 183.9C193.098 183.5 193.298 183.1 193.598 182.8C193.898 182.5 194.198 182.2 194.598 182C194.998 181.8 195.398 181.7 195.798 181.6C196.198 181.6 196.598 181.6 197.098 181.7C197.598 181.8 197.898 182 198.198 182.3C198.498 182.6 198.798 182.9 198.998 183.3C199.198 183.7 199.298 184.1 199.298 184.5C199.298 184.9 199.298 185.3 199.198 185.8C199.098 186.2 198.898 186.6 198.598 186.9C198.298 187.2 197.998 187.5 197.598 187.7C197.198 187.9 196.898 188 196.398 188.1C195.898 188.2 195.498 188.1 195.098 188ZM195.398 186.8C195.698 186.9 195.998 186.9 196.298 186.9C196.598 186.9 196.798 186.8 197.098 186.7C197.298 186.6 197.498 186.4 197.698 186.2C197.898 186 197.998 185.7 198.098 185.5C198.198 185.2 198.198 184.9 198.198 184.7C198.198 184.4 198.098 184.2 197.998 184C197.898 183.8 197.698 183.6 197.498 183.4C197.298 183.2 196.998 183.1 196.698 183C196.398 182.9 196.098 182.9 195.798 182.9C195.498 182.9 195.298 183 194.998 183.1C194.798 183.2 194.598 183.4 194.398 183.6C194.198 183.8 194.098 184.1 193.998 184.3C193.898 184.6 193.898 184.9 193.898 185.1C193.898 185.4 193.998 185.6 194.098 185.8C194.198 186 194.398 186.2 194.598 186.4C194.798 186.6 195.198 186.7 195.398 186.8Z" fill="white"/>
<path d="M194.398 179.6L194.698 178.5L195.598 178.7C195.498 178.6 195.298 178.5 195.198 178.3C195.098 178.1 194.998 178 194.998 177.8C194.998 177.6 194.898 177.4 194.898 177.2C194.898 177 194.898 176.8 194.898 176.6C194.898 176.4 194.998 176.3 195.098 176.1L196.298 176.4C196.298 176.5 196.198 176.6 196.198 176.7C196.198 176.8 196.098 176.9 196.098 177C195.998 177.5 195.998 178 196.298 178.4C196.598 178.8 196.998 179 197.598 179.2L200.598 179.9L200.298 181L194.398 179.6Z" fill="white"/>
<defs>
<filter id="filter0_ii" x="0" y="50" width="218" height="218" filterUnits="userSpaceOnUse" color-interpolation-filters="sRGB">
<feFlood flood-opacity="0" result="BackgroundImageFix"/>
<feBlend mode="normal" in="SourceGraphic" in2="BackgroundImageFix" result="shape"/>
<feColorMatrix in="SourceAlpha" type="matrix" values="0 0 0 0 0 0 0 0 0 0 0 0 0 0 0 0 0 0 127 0" result="hardAlpha"/>
<feOffset/>
<feGaussianBlur stdDeviation="4"/>
<feComposite in2="hardAlpha" operator="arithmetic" k2="-1" k3="1"/>
<feColorMatrix type="matrix" values="0 0 0 0 0.9875 0 0 0 0 0.722843 0 0 0 0 0.386771 0 0 0 1 0"/>
<feBlend mode="normal" in2="shape" result="effect1_innerShadow"/>
<feColorMatrix in="SourceAlpha" type="matrix" values="0 0 0 0 0 0 0 0 0 0 0 0 0 0 0 0 0 0 127 0" result="hardAlpha"/>
<feOffset/>
<feGaussianBlur stdDeviation="6"/>
<feComposite in2="hardAlpha" operator="arithmetic" k2="-1" k3="1"/>
<feColorMatrix type="matrix" values="0 0 0 0 0 0 0 0 0 0 0 0 0 0 0 0 0 0 0.2 0"/>
<feBlend mode="normal" in2="effect1_innerShadow" result="effect2_innerShadow"/>
</filter>
<filter id="filter1_i" x="59" y="109" width="100" height="100" filterUnits="userSpaceOnUse" color-interpolation-filters="sRGB">
<feFlood flood-opacity="0" result="BackgroundImageFix"/>
<feBlend mode="normal" in="SourceGraphic" in2="BackgroundImageFix" result="shape"/>
<feColorMatrix in="SourceAlpha" type="matrix" values="0 0 0 0 0 0 0 0 0 0 0 0 0 0 0 0 0 0 127 0" result="hardAlpha"/>
<feOffset/>
<feGaussianBlur stdDeviation="6"/>
<feComposite in2="hardAlpha" operator="arithmetic" k2="-1" k3="1"/>
<feColorMatrix type="matrix" values="0 0 0 0 0 0 0 0 0 0 0 0 0 0 0 0 0 0 0.4 0"/>
<feBlend mode="normal" in2="shape" result="effect1_innerShadow"/>
</filter>
<linearGradient id="paint0_linear" x1="51.775" y1="57.4938" x2="322.848" y2="328.729" gradientUnits="userSpaceOnUse">
<stop stop-color="#F2F2F2"/>
<stop offset="1" stop-color="#3D485C"/>
</linearGradient>
<linearGradient id="paint1_linear" x1="-158.31" y1="-176.824" x2="234.09" y2="291.357" gradientUnits="userSpaceOnUse">
<stop stop-color="white"/>
<stop offset="1" stop-color="white" stop-opacity="0"/>
</linearGradient>
<linearGradient id="paint2_linear" x1="174.52" y1="213.6" x2="38.8" y2="107.52" gradientUnits="userSpaceOnUse">
<stop stop-color="white"/>
<stop offset="1" stop-color="#203A41" stop-opacity="0.4"/>
</linearGradient>
<linearGradient id="paint3_linear" x1="194.68" y1="230.4" x2="17.2" y2="91.68" gradientUnits="userSpaceOnUse">
<stop stop-color="white"/>
<stop offset="1" stop-color="#203A41" stop-opacity="0.24"/>
</linearGradient>
</defs>
</svg>
