<svg width="218" height="268" viewBox="0 0 218 268" fill="none" xmlns="http://www.w3.org/2000/svg">
<path d="M86.0098 29.7979C84.9084 29.7979 84.0273 30.6685 84.0273 31.7568V50.0407C84.0273 51.129 84.9084 51.9997 86.0098 51.9997H131.385C132.487 51.9997 133.368 51.129 133.368 50.0407V31.7568C133.368 30.6685 132.487 29.7979 131.385 29.7979H86.0098ZM129.403 44.1637C129.403 45.2521 128.522 46.1227 127.42 46.1227H90.1949C89.0935 46.1227 88.2125 45.2521 88.2125 44.1637V35.8925C88.2125 34.8041 89.0935 33.9335 90.1949 33.9335H127.42C128.522 33.9335 129.403 34.8041 129.403 35.8925V44.1637Z" fill="#D9B68B"/>
<path d="M140.045 0L114.918 37.8775H127.37L155.388 0H140.045Z" fill="#0FA711"/>
<path d="M127.377 0L102.473 37.8775H114.925L140.052 0H127.377Z" fill="white"/>
<path d="M114.924 0L90.0195 37.8775H102.472L127.376 0H114.924Z" fill="#FF7600"/>
<path d="M90.0177 37.8775H102.47L77.343 0H62L90.0177 37.8775Z" fill="#FF7600"/>
<path d="M102.471 37.8775H114.923L90.0184 0H77.3438L102.471 37.8775Z" fill="white"/>
<path opacity="0.5" d="M110.695 6.28027L104.469 15.6936L119.145 37.8823H127.372L129.596 34.7445L110.695 6.28027Z" fill="#3E4347"/>
<path d="M114.924 37.8775H127.376L102.472 0H90.0195L114.924 37.8775Z" fill="#0FA711"/>
<g filter="url(#filter0_ii)">
<path d="M218 159C218 219.199 169.199 268 109 268C48.801 268 0 219.199 0 159C0 98.801 48.801 50 109 50C169.199 50 218 98.801 218 159Z" fill="#C18A43" fill-opacity="0.7"/>
</g>
<path d="M214.5 159C214.5 217.266 167.266 264.5 109 264.5C50.734 264.5 3.5 217.266 3.5 159C3.5 100.734 50.734 53.5 109 53.5C167.266 53.5 214.5 100.734 214.5 159Z" stroke="#E29435" stroke-width="7"/>
<path d="M214.5 159C214.5 217.266 167.266 264.5 109 264.5C50.734 264.5 3.5 217.266 3.5 159C3.5 100.734 50.734 53.5 109 53.5C167.266 53.5 214.5 100.734 214.5 159Z" stroke="url(#paint0_linear)" stroke-width="7"/>
<path d="M196 159C196 207.049 157.049 246 109 246C60.9512 246 22 207.049 22 159C22 110.951 60.9512 72 109 72C157.049 72 196 110.951 196 159Z" fill="#764B16" stroke="#805726" stroke-width="30"/>
<path d="M109.001 82C66.5595 82 32 116.357 32 159.001C32 201.645 66.3574 236.002 109.001 236.002C151.645 236.002 186.002 201.645 186.002 159.001C186.002 116.357 151.442 82 109.001 82ZM93.6412 89.4778C93.8433 89.4778 93.8433 89.4778 93.6412 89.4778C95.0559 92.5093 97.6833 94.3282 100.311 93.7219C102.938 93.3177 105.565 91.4988 105.767 87.861C106.172 87.861 106.576 87.861 106.98 87.861C106.98 98.7745 106.172 110.496 104.959 123.229C104.757 124.441 104.757 125.654 104.757 126.867C104.353 125.856 103.948 124.644 103.544 123.229C99.3001 112.517 95.4601 100.998 92.4286 89.6799C93.0349 89.6799 93.237 89.4778 93.6412 89.4778ZM76.0583 95.743C78.2814 98.3703 81.1109 99.3808 83.5361 98.1682C86.3655 96.9556 87.9823 94.1261 87.376 91.0946C87.7802 90.8925 88.1844 90.8925 88.5886 90.6904C91.216 101.2 93.8433 112.72 95.8643 125.452C96.0664 126.867 96.2685 127.877 96.6727 129.09C96.0664 128.079 95.4601 127.069 94.4496 125.856C87.5781 116.559 80.9088 106.454 75.0478 96.3493C75.2499 96.1472 75.6541 95.9451 76.0583 95.743ZM60.4964 106.656C63.3259 108.475 66.3574 108.678 68.3784 107.061C69.9952 105.848 70.8036 104.029 70.8036 102.21C70.8036 101.2 70.6015 100.189 69.9952 99.3808C70.3994 99.1787 70.6015 98.9766 71.0057 98.7745C76.4625 108.071 81.7172 118.783 87.1739 130.302C87.7802 131.515 88.3865 132.526 88.7907 133.536C87.9823 132.728 86.9718 131.919 85.9613 131.111C77.0688 123.633 67.9742 115.549 59.688 107.465C59.8901 107.061 60.2943 106.859 60.4964 106.656ZM48.3703 121.006C48.5724 121.006 48.5724 121.006 48.3703 121.006C51.6039 122.016 54.6355 121.612 56.0502 119.389C56.4544 118.783 57.4649 117.166 57.4649 115.549C57.4649 114.538 57.0607 112.922 55.8481 111.507C56.0502 111.305 56.4544 110.901 56.6565 110.699C64.3364 118.378 72.2184 127.271 80.5046 136.972C81.313 137.982 82.1214 138.791 82.9298 139.599C81.9193 138.993 80.7067 138.589 79.494 137.982C68.9847 133.132 58.0712 127.675 47.764 122.016C47.9661 121.612 48.1682 121.41 48.3703 121.006ZM40.4883 137.982C40.4883 137.982 40.4883 137.78 40.4883 137.982C43.924 138.184 46.5514 136.972 47.5619 134.344C47.764 133.738 47.9661 132.93 47.9661 131.717C47.9661 130.505 47.5619 128.281 45.1367 126.665C45.3388 126.26 45.5409 126.058 45.743 125.654C55.0397 131.111 65.1448 137.578 75.452 144.854C76.4625 145.662 77.6751 146.269 78.4835 146.875C77.473 146.673 76.0583 146.471 74.6436 146.066C63.3259 144.45 51.4018 142.024 39.882 138.993C40.2862 138.791 40.4883 138.387 40.4883 137.982ZM37.2547 156.374C37.2547 156.374 37.2547 156.172 37.2547 156.374C40.4883 155.767 42.9135 153.746 43.1156 151.119C43.1156 150.917 43.1156 150.715 43.1156 150.311C43.1156 147.885 41.903 145.258 38.8715 144.248C38.8715 143.843 39.0736 143.439 39.0736 143.035C49.5829 145.864 60.9006 149.704 72.8247 153.948C74.0373 154.353 75.2499 154.757 76.2604 154.959C75.0478 154.959 73.8352 155.161 72.4205 155.161C61.1027 156.576 48.7745 157.182 37.0526 157.384C37.2547 157.182 37.2547 156.778 37.2547 156.374ZM38.8715 175.169C38.8715 174.967 38.8715 174.967 38.8715 175.169C41.4988 173.754 43.1156 171.733 43.1156 169.308C43.1156 169.106 43.1156 168.702 43.1156 168.5C42.7114 165.872 40.8925 163.245 37.2547 163.043C37.2547 162.639 37.2547 162.235 37.2547 161.83C48.1682 161.83 59.8901 162.437 72.6226 163.447C74.0373 163.649 75.2499 163.649 76.2604 163.649C75.2499 164.054 74.0373 164.458 72.6226 164.862C61.9111 169.106 50.3913 172.946 39.0736 176.18C39.0736 175.978 39.0736 175.573 38.8715 175.169ZM45.3387 192.752C45.3387 192.752 45.3387 192.55 45.3387 192.752C47.1577 191.135 48.1682 189.316 48.1682 187.295C48.1682 186.487 47.9661 185.881 47.764 185.274C46.7535 182.849 44.3282 180.828 40.6904 181.636C40.4883 181.232 40.4883 180.828 40.2862 180.424C50.7955 177.594 62.3153 175.169 74.8457 172.946C76.2604 172.744 77.2709 172.34 78.4835 172.138C77.473 172.744 76.4625 173.35 75.2499 174.361C65.9532 181.232 55.8481 187.902 45.743 193.965C45.743 193.358 45.5409 193.156 45.3387 192.752ZM56.2523 208.112C57.2628 206.495 57.667 205.08 57.667 203.463C57.667 202.251 57.2628 201.038 56.4544 200.23C54.8376 198.209 51.806 196.794 48.5724 198.411C48.3703 198.007 48.1682 197.805 47.9661 197.4C57.2628 191.944 67.9742 186.487 79.494 181.03C80.7067 180.424 81.7172 179.818 82.7277 179.413C81.9193 180.222 81.1109 181.232 80.3024 182.243C73.2289 191.337 65.1448 200.432 57.0607 208.92C56.8586 208.718 56.4544 208.516 56.2523 208.112ZM70.6015 220.036C70.8036 218.823 71.0057 217.813 71.0057 216.802C71.0057 214.781 70.1973 213.164 68.7826 212.356C66.7616 210.941 63.528 210.133 60.9006 212.76C60.4964 212.558 60.2943 212.154 60.0922 211.952C67.7721 204.272 76.4625 196.188 86.1634 188.104C87.1739 187.295 87.9823 186.487 88.7907 185.678C88.1844 186.689 87.7802 187.902 87.1739 189.114C82.7277 199.624 77.473 210.537 71.612 220.642C71.4099 220.44 71.0057 220.238 70.6015 220.036ZM87.5781 227.918C87.7802 224.482 86.3655 221.855 83.9403 220.844C81.5151 220.036 78.2814 220.238 76.2604 223.27C75.8562 223.067 75.6541 222.865 75.2499 222.663C80.7066 213.367 86.9718 203.261 94.2475 192.752C95.0559 191.539 95.6622 190.529 96.2685 189.721C96.0664 190.731 95.8643 192.146 95.4601 193.56C93.8433 204.878 91.4181 216.802 88.5886 228.322C88.3865 228.12 87.9823 228.12 87.5781 227.918ZM105.969 230.949C105.363 227.716 103.342 225.291 100.715 225.088C98.0874 224.886 95.0559 225.897 94.0454 229.333C93.6412 229.333 93.237 229.13 92.8328 229.13C95.6622 218.621 99.3001 207.303 103.544 195.379C103.948 194.167 104.353 192.954 104.555 191.944C104.555 193.156 104.757 194.369 104.757 195.784C106.172 207.101 106.98 219.43 107.182 231.151C106.778 231.151 106.374 231.151 105.969 230.949ZM178.928 144.45C176.301 145.864 174.482 147.885 174.482 150.311C174.482 150.513 174.482 150.917 174.482 151.119C174.886 153.746 176.705 156.374 180.343 156.576C180.343 156.98 180.343 157.384 180.343 157.788C169.632 157.788 157.708 156.98 144.975 155.767C143.56 155.565 142.348 155.565 141.337 155.565C142.348 155.161 143.56 154.757 144.975 154.353C155.687 150.108 167.206 146.269 178.524 143.237C178.726 143.641 178.726 144.045 178.928 144.45ZM172.663 126.867C172.663 126.867 172.663 127.069 172.663 126.867C170.844 128.484 169.834 130.302 169.834 132.323C169.834 133.132 170.036 133.738 170.238 134.344C171.248 136.77 173.674 138.791 177.312 138.184C177.514 138.589 177.514 138.993 177.716 139.397C167.206 142.024 155.485 144.45 142.954 146.673C141.539 146.875 140.529 147.077 139.316 147.481C140.327 146.875 141.337 146.269 142.55 145.46C151.847 138.387 161.952 131.717 172.057 125.856C172.259 126.26 172.461 126.463 172.663 126.867ZM162.154 111.709C161.143 113.326 160.537 114.943 160.537 116.357C160.537 117.57 160.941 118.783 161.75 119.591C163.366 121.612 166.196 123.027 169.43 121.41C169.632 121.814 169.834 122.016 170.036 122.42C160.537 127.675 150.028 133.132 138.306 138.184C137.093 138.791 136.083 139.195 135.072 139.801C135.881 138.993 136.689 137.982 137.7 136.972C144.975 128.079 153.059 118.985 161.345 110.699C161.548 111.103 161.952 111.305 162.154 111.709ZM147.603 99.1787C147.603 99.1787 147.805 99.3808 147.603 99.1787C147.4 100.391 146.996 101.402 146.996 102.412C146.996 104.231 147.805 105.848 149.219 106.859C151.24 108.273 154.474 109.082 157.101 106.656C157.303 106.859 157.708 107.263 157.91 107.465C150.23 115.145 141.337 123.027 131.434 131.111C130.424 131.919 129.413 132.728 128.807 133.536C129.413 132.526 129.818 131.515 130.424 130.1C135.072 119.591 140.529 108.678 146.39 98.5724C146.996 98.7745 147.198 98.9766 147.603 99.1787ZM130.626 91.2967C130.828 91.2967 130.828 91.2967 130.626 91.2967C130.424 94.7324 131.839 97.3598 134.264 98.3703C136.689 99.3808 139.923 99.1787 141.944 95.9451C142.348 96.1472 142.55 96.3493 142.954 96.5514C137.497 105.848 131.03 115.751 123.552 126.26C122.744 127.271 122.138 128.281 121.531 129.292C121.733 128.281 122.138 126.867 122.34 125.452C124.159 114.134 126.584 102.21 129.413 90.8925C130.02 90.8925 130.222 91.0946 130.626 91.2967ZM112.437 87.861C112.437 87.861 112.639 87.861 112.437 87.861C113.043 91.0946 115.064 93.5198 117.691 93.7219C120.319 93.924 123.35 92.9135 124.563 89.4778C124.967 89.4778 125.371 89.6799 125.775 89.6799C122.946 100.189 119.106 111.507 114.66 123.229C114.256 124.441 113.851 125.654 113.447 126.665C113.447 125.452 113.245 124.239 113.245 122.825C112.033 111.507 111.224 99.1787 111.224 87.4568C111.628 87.861 112.033 87.861 112.437 87.861ZM124.361 229.333C122.744 226.301 120.319 224.684 117.691 225.088C115.064 225.493 112.437 227.312 112.235 230.949C111.83 230.949 111.426 230.949 111.022 230.949C111.022 220.036 111.628 208.314 112.841 195.581C113.043 194.369 113.043 193.358 113.043 192.348C113.043 192.146 113.043 192.146 113.043 191.944C113.447 192.954 113.851 194.167 114.256 195.581C118.5 206.293 122.34 217.813 125.573 229.13C125.169 229.333 124.765 229.333 124.361 229.333ZM141.742 223.067C141.742 223.067 141.539 223.067 141.742 223.067C139.518 220.44 136.689 219.43 134.264 220.642C131.434 221.855 129.818 224.684 130.626 227.716C130.222 227.918 129.818 227.918 129.413 228.12C126.584 217.611 124.159 206.091 122.138 193.56C121.936 192.146 121.733 191.135 121.329 189.923C121.936 190.933 122.542 191.944 123.552 193.156C130.424 202.453 137.093 212.558 142.954 222.663C142.348 222.865 142.146 222.865 141.742 223.067ZM157.303 212.154C157.303 212.356 157.303 212.356 157.303 212.154C154.474 210.335 151.442 210.133 149.421 211.75C147.805 212.962 146.996 214.781 146.996 216.6C146.996 217.611 147.198 218.621 147.805 219.43C147.4 219.632 147.198 219.834 146.794 220.036C141.337 210.739 135.881 200.028 130.626 188.508C130.02 187.295 129.413 186.285 129.009 185.274C129.818 186.083 130.828 186.891 131.839 187.699C140.933 194.773 150.028 202.857 158.314 211.143C157.91 211.75 157.708 211.952 157.303 212.154ZM169.227 198.007C169.227 198.007 169.227 198.209 169.227 198.007C165.994 196.996 162.962 197.4 161.548 199.624C161.143 200.23 160.133 201.847 160.133 203.463C160.133 204.474 160.537 206.091 161.75 207.506C161.548 207.708 161.143 208.112 160.941 208.314C153.261 200.634 145.379 191.742 137.295 182.041C136.487 181.03 135.678 180.02 134.87 179.413C135.881 180.02 137.093 180.424 138.306 181.03C148.815 185.678 159.729 191.135 170.036 196.794C169.632 197.4 169.43 197.603 169.227 198.007ZM177.109 181.03C177.109 181.232 177.109 181.232 177.109 181.03C173.674 180.828 171.046 182.041 170.036 184.668C169.834 185.274 169.632 186.083 169.632 187.295C169.632 188.508 170.036 190.731 172.461 192.348C172.259 192.752 172.057 192.954 171.855 193.358C162.558 187.902 152.453 181.434 142.146 174.159C141.135 173.35 139.923 172.744 139.114 172.138C140.125 172.34 141.539 172.744 142.954 172.946C154.272 174.563 166.196 176.988 177.514 180.02C177.312 180.424 177.312 180.828 177.109 181.03ZM180.343 162.841C177.109 163.447 174.684 165.266 174.482 167.893C174.482 168.096 174.482 168.298 174.482 168.702C174.482 171.127 175.695 173.754 178.726 174.765C178.726 175.169 178.524 175.573 178.524 175.978C168.015 173.148 156.697 169.51 144.773 165.064C143.56 164.66 142.348 164.256 141.337 164.054C142.55 164.054 143.763 163.851 145.177 163.851C156.495 162.639 168.823 161.83 180.545 161.83C180.545 162.033 180.343 162.437 180.343 162.841Z" fill="#D9B68B"/>
<circle cx="109" cy="159" r="77" stroke="url(#paint1_linear)" stroke-width="2"/>
<circle cx="109" cy="159" r="101" stroke="url(#paint2_linear)" stroke-width="2"/>
<g filter="url(#filter1_i)">
<circle cx="109" cy="159" r="50" fill="#805726"/>
</g>
<path fill-rule="evenodd" clip-rule="evenodd" d="M83.168 135.786V134H112.692V162.571H83.168V135.786ZM97.161 152.75L93.2143 148.931L87.2685 157.214H92.3942H93.8718H101.988H103.466H110.026L102.645 142.829L97.161 152.75ZM131.144 159H116.382V155.429H134.835V184H105.311V166.143H109.001V180.429H131.144V159ZM127.96 164.525V161.731H120.929V164.525H122.626V169.84H119.165C118.739 169.458 118.218 169.216 117.601 169.117C118.335 168.884 118.901 168.46 119.298 167.844C119.694 167.229 119.893 166.488 119.893 165.623C119.893 164.359 119.511 163.369 118.747 162.654C117.983 161.922 116.895 161.556 115.485 161.556C114.5 161.556 113.648 161.714 112.928 162.03V165.199C113.721 164.783 114.493 164.575 115.242 164.575C116.271 164.575 116.785 165.074 116.785 166.072C116.785 167.104 116.175 167.619 114.956 167.619H114.272V170.564H115.176C115.97 170.564 116.513 170.722 116.807 171.038C117.116 171.354 117.27 171.778 117.27 172.31C117.27 173.708 116.623 174.406 115.33 174.406C114.375 174.406 113.427 174.124 112.487 173.558V176.802C113.413 177.168 114.412 177.351 115.485 177.351C117.072 177.351 118.262 176.935 119.055 176.103C119.863 175.271 120.267 174.19 120.267 172.859V172.685H122.626V178.474H125.756V164.525H127.96Z" fill="#FFE4C1"/>
<path d="M47.1016 86.2004L49.5016 84.2004C49.8016 84.0004 50.1016 83.8004 50.4016 83.6004C50.7016 83.5004 51.0016 83.4004 51.3016 83.4004C51.6016 83.4004 51.9016 83.4004 52.2016 83.6004C52.5016 83.7004 52.8016 83.9004 53.0016 84.2004C53.3016 84.6004 53.5016 85.0004 53.5016 85.5004C53.5016 86.0004 53.3016 86.4004 53.1016 86.8004C53.3016 86.6004 53.6016 86.5004 53.8016 86.5004C54.1016 86.4004 54.3016 86.4004 54.6016 86.5004C54.9016 86.5004 55.1016 86.6004 55.4016 86.8004C55.6016 86.9004 55.9016 87.1004 56.1016 87.4004C56.4016 87.7004 56.5016 88.0004 56.6016 88.4004C56.7016 88.7004 56.7016 89.1004 56.6016 89.4004C56.5016 89.7004 56.4016 90.1004 56.1016 90.4004C55.9016 90.7004 55.6016 91.0004 55.2016 91.3004L52.8016 93.3004L47.1016 86.2004ZM50.4016 88.3004L51.7016 87.2004C51.9016 87.1004 52.0016 86.9004 52.2016 86.7004C52.4016 86.5004 52.4016 86.4004 52.5016 86.2004C52.5016 86.0004 52.6016 85.8004 52.5016 85.6004C52.5016 85.4004 52.4016 85.2004 52.2016 85.0004C52.0016 84.7004 51.7016 84.6004 51.3016 84.5004C50.9016 84.4004 50.6016 84.6004 50.2016 84.9004L48.7016 86.1004L50.4016 88.3004ZM53.1016 91.6004L54.5016 90.5004C54.6016 90.4004 54.8016 90.2004 54.9016 90.1004C55.0016 89.9004 55.2016 89.7004 55.2016 89.5004C55.3016 89.3004 55.3016 89.1004 55.3016 88.8004C55.3016 88.6004 55.2016 88.3004 55.0016 88.1004C54.7016 87.7004 54.3016 87.5004 53.8016 87.5004C53.4016 87.5004 52.9016 87.7004 52.5016 88.1004L51.1016 89.3004L53.1016 91.6004Z" fill="white"/>
<path d="M53.1016 80.6004L54.0016 79.9004L56.6016 83.6004C56.5016 83.3004 56.6016 82.9004 56.8016 82.5004C57.0016 82.1004 57.3016 81.8004 57.6016 81.6004C57.8016 81.4004 58.1016 81.3004 58.4016 81.2004C58.7016 81.1004 58.9016 81.1004 59.2016 81.1004C59.5016 81.1004 59.7016 81.2004 60.0016 81.4004C60.3016 81.6004 60.5016 81.8004 60.7016 82.2004L62.9016 85.4004L62.0016 86.1004L60.0016 83.2004C59.8016 83.0004 59.7016 82.8004 59.5016 82.7004C59.3016 82.6004 59.1016 82.5004 59.0016 82.5004C58.8016 82.5004 58.7016 82.5004 58.5016 82.5004C58.3016 82.5004 58.2016 82.6004 58.0016 82.7004C57.8016 82.8004 57.6016 83.0004 57.5016 83.2004C57.4016 83.4004 57.3016 83.6004 57.3016 83.8004C57.3016 84.0004 57.3016 84.3004 57.4016 84.5004C57.5016 84.8004 57.6016 85.0004 57.8016 85.3004L59.6016 87.9004L58.7016 88.6004L53.1016 80.6004Z" fill="white"/>
<path d="M61.5 80.2002C61.6 79.8002 61.8 79.4002 62.1 79.1002C62.4 78.8002 62.7 78.5002 63.1 78.3002C63.5 78.1002 63.8 77.9002 64.2 77.9002C64.5 77.8002 64.8 77.8002 65.1 77.9002C65.4 78.0002 65.6 78.1002 65.8 78.2002C66 78.4002 66.2 78.6002 66.3 78.8002L67.9 81.5002C68 81.7002 68.1 81.9002 68.2 82.0002C68.3 82.1002 68.4 82.3002 68.5 82.4002L67.6 82.9002C67.4 82.6002 67.3 82.4002 67.1 82.1002C67.1 82.6002 67 83.0002 66.7 83.3002C66.5 83.6002 66.2 83.9002 65.8 84.1002C65.6 84.2002 65.3 84.3002 65 84.4002C64.7 84.5002 64.5 84.5002 64.2 84.4002C64 84.4002 63.7 84.3002 63.5 84.1002C63.3 84.0002 63.1 83.8002 63 83.5002C62.8 83.2002 62.7 82.8002 62.7 82.5002C62.7 82.2002 62.8 81.9002 63 81.6002C63.2 81.3002 63.4 81.0002 63.7 80.8002C64 80.5002 64.4 80.3002 64.8 80.1002L65.5 79.7002L65.4 79.5002C65.3 79.4002 65.2 79.3002 65.1 79.1002C65 79.0002 64.8 78.9002 64.7 78.9002C64.5 78.9002 64.4 78.8002 64.2 78.9002C64 78.9002 63.8 79.0002 63.6 79.1002C63.4 79.2002 63.3 79.3002 63.1 79.4002C63 79.5002 62.9 79.6002 62.8 79.8002C62.7 79.9002 62.6 80.0002 62.6 80.2002C62.5 80.3002 62.5 80.5002 62.4 80.6002L61.5 80.2002ZM65.5 80.6002C65.3 80.7002 65 80.9002 64.8 81.1002C64.6 81.3002 64.4 81.4002 64.2 81.6002C64 81.8002 63.9 82.0002 63.9 82.2002C63.9 82.4002 63.9 82.6002 64 82.8002C64.2 83.1002 64.4 83.3002 64.7 83.3002C65 83.3002 65.3 83.2002 65.6 83.0002C65.9 82.8002 66.1 82.7002 66.2 82.5002C66.3 82.3002 66.4 82.1002 66.5 81.9002C66.5 81.7002 66.5 81.5002 66.5 81.3002C66.4 81.1002 66.4 80.9002 66.3 80.7002L66.1 80.4002L65.5 80.6002Z" fill="white"/>
<path d="M70.5008 76.2C70.3008 76.1 70.1008 76.1 69.9008 76C69.7008 76 69.4008 76 69.2008 76.2C69.0008 76.3 68.8008 76.5 68.6008 76.7C68.5008 76.9 68.5008 77.1 68.6008 77.3C68.7008 77.5 68.8008 77.6 68.9008 77.6C69.1008 77.6 69.2008 77.7 69.4008 77.7C69.6008 77.7 69.7008 77.7 69.9008 77.6C70.1008 77.6 70.2008 77.5 70.4008 77.5C70.6008 77.4 70.9008 77.4 71.1008 77.4C71.3008 77.4 71.5008 77.4 71.8008 77.4C72.0008 77.5 72.2008 77.5 72.4008 77.7C72.6008 77.9 72.7008 78 72.8008 78.3C73.0008 78.6 73.0008 78.9 73.0008 79.2C73.0008 79.5 72.9008 79.7 72.8008 80C72.7008 80.2 72.5008 80.5 72.2008 80.6C71.9008 80.7 71.7008 81 71.4008 81.1C70.9008 81.3 70.5008 81.4 70.1008 81.5C69.7008 81.5 69.3008 81.4 68.8008 81.2L69.3008 80.2C69.6008 80.3 69.8008 80.3 70.1008 80.4C70.4008 80.4 70.7008 80.4 71.0008 80.2C71.1008 80.1 71.3008 80.1 71.4008 80C71.5008 79.9 71.6008 79.8 71.7008 79.7C71.8008 79.6 71.8008 79.5 71.8008 79.4C71.8008 79.3 71.8008 79.2 71.7008 79C71.6008 78.8 71.5008 78.7 71.4008 78.7C71.3008 78.6 71.1008 78.6 70.9008 78.6C70.7008 78.6 70.6008 78.6 70.4008 78.7C70.2008 78.8 70.1008 78.8 70.0008 78.8C69.8008 78.9 69.5008 78.9 69.3008 78.9C69.1008 78.9 68.8008 78.9 68.6008 78.9C68.4008 78.9 68.2008 78.8 68.0008 78.6C67.8008 78.5 67.7008 78.3 67.5008 78C67.4008 77.7 67.3008 77.4 67.3008 77.2C67.3008 76.9 67.4008 76.7 67.5008 76.4C67.6008 76.2 67.8008 76 68.0008 75.8C68.2008 75.6 68.4008 75.5 68.7008 75.3C69.1008 75.1 69.5008 75 69.9008 75C70.3008 75 70.7008 75.1 71.0008 75.3L70.5008 76.2Z" fill="white"/>
<path d="M70.8008 70.4L71.9008 70L73.6008 74.2C73.6008 73.8 73.7008 73.5 74.0008 73.2C74.3008 72.9 74.6008 72.6 75.0008 72.5C75.3008 72.4 75.5008 72.3 75.8008 72.3C76.1008 72.3 76.4008 72.3 76.6008 72.4C76.9008 72.5 77.1008 72.7 77.3008 72.9C77.5008 73.1 77.7008 73.4 77.9008 73.8L79.4008 77.4L78.3008 77.8L77.0008 74.5C76.9008 74.2 76.8008 74 76.6008 73.9C76.5008 73.7 76.3008 73.6 76.1008 73.6C75.9008 73.5 75.8008 73.5 75.6008 73.5C75.4008 73.5 75.3008 73.5 75.1008 73.6C74.9008 73.7 74.7008 73.8 74.5008 74C74.3008 74.2 74.2008 74.3 74.1008 74.5C74.0008 74.7 74.0008 75 74.0008 75.2C74.0008 75.5 74.1008 75.8 74.2008 76.1L75.4008 79L74.3008 79.4L70.8008 70.4Z" fill="white"/>
<path d="M78.0008 69.1004C77.9008 68.9004 77.9008 68.7004 78.0008 68.5004C78.1008 68.3004 78.3008 68.1004 78.5008 68.1004C78.7008 68.0004 78.9008 68.0004 79.1008 68.1004C79.3008 68.2004 79.5008 68.4004 79.5008 68.6004C79.6008 68.8004 79.6008 69.0004 79.5008 69.2004C79.4008 69.4004 79.2008 69.6004 79.0008 69.6004C78.8008 69.7004 78.6008 69.7004 78.4008 69.6004C78.2008 69.5004 78.1008 69.3004 78.0008 69.1004ZM78.9008 71.1004L80.0008 70.7004L82.0008 76.4004L80.9008 76.8004L78.9008 71.1004Z" fill="white"/>
<path d="M81.8008 70.1L82.9008 69.8L83.1008 70.7C83.2008 70.4 83.3008 70 83.6008 69.7C83.9008 69.4 84.3008 69.2 84.7008 69.1C85.0008 69 85.3008 69 85.5008 69C85.8008 69 86.0008 69.1 86.3008 69.2C86.5008 69.3 86.8008 69.5 87.0008 69.8C87.2008 70.1 87.3008 70.4 87.5008 70.8L88.5008 74.5L87.4008 74.8L86.4008 71.4C86.3008 71.1 86.2008 70.9 86.1008 70.7C86.0008 70.5 85.8008 70.4 85.7008 70.3C85.5008 70.2 85.4008 70.2 85.2008 70.2C85.0008 70.2 84.9008 70.2 84.7008 70.3C84.5008 70.4 84.3008 70.5 84.1008 70.6C83.9008 70.7 83.8008 70.9 83.7008 71.1C83.6008 71.3 83.5008 71.5 83.5008 71.8C83.5008 72.1 83.5008 72.4 83.6008 72.7L84.4008 75.7L83.3008 76L81.8008 70.1Z" fill="white"/>
<path d="M88.1016 66.2002C88.1016 66.0002 88.1016 65.8002 88.2016 65.6002C88.3016 65.4002 88.5016 65.3002 88.7016 65.2002C88.9016 65.2002 89.1016 65.2002 89.3016 65.3002C89.5016 65.4002 89.6016 65.6002 89.7016 65.8002C89.7016 66.0002 89.7016 66.2002 89.6016 66.4002C89.5016 66.6002 89.3016 66.7002 89.1016 66.8002C88.9016 66.8002 88.7016 66.8002 88.5016 66.7002C88.3016 66.6002 88.2016 66.4002 88.1016 66.2002ZM88.9016 68.2002L90.0016 68.0002L91.3016 73.9002L90.2016 74.1002L88.9016 68.2002Z" fill="white"/>
<path d="M95.7031 68.4998C95.7031 68.1998 95.7031 67.8998 95.8031 67.5998C95.9031 67.2998 96.0031 67.0998 96.2031 66.7998C96.4031 66.5998 96.6031 66.3998 96.9031 66.1998C97.2031 65.9998 97.4031 65.9998 97.8031 65.8998C98.2031 65.7998 98.4031 65.8998 98.7031 65.9998C99.0031 66.0998 99.2031 66.1998 99.5031 66.3998C99.8031 66.5998 99.9031 66.7998 100.103 67.0998C100.303 67.3998 100.303 67.5998 100.403 67.9998C100.503 68.3998 100.403 68.5998 100.303 68.8998C100.203 69.1998 100.103 69.3998 99.9031 69.6998C99.7031 69.8998 99.5031 70.0998 99.2031 70.2998C98.9031 70.4998 98.7031 70.4998 98.3031 70.5998C98.0031 70.5998 97.7031 70.5998 97.4031 70.4998C97.1031 70.3998 96.9031 70.2998 96.6031 70.0998C96.4031 69.8998 96.2031 69.6998 96.0031 69.3998C95.8031 69.0998 95.7031 68.7998 95.7031 68.4998Z" fill="white"/>
<path d="M105.602 63L108.802 63.1C109.402 63.1 110.002 63.2 110.502 63.3C111.002 63.4 111.402 63.7 111.702 63.9C112.002 64.1 112.302 64.4 112.602 64.7C112.902 65 113.002 65.3 113.102 65.7C113.202 66.1 113.302 66.4 113.402 66.7C113.502 67 113.502 67.3 113.502 67.6C113.502 68.2 113.402 68.7 113.202 69.3C113.002 69.8 112.702 70.3 112.202 70.7C111.802 71.1 111.302 71.4 110.602 71.7C110.002 71.9 109.302 72.1 108.502 72H105.602V63ZM106.702 70.9H108.202C108.702 70.9 109.202 70.8 109.702 70.7C110.202 70.6 110.602 70.4 110.902 70.1C111.302 69.8 111.502 69.5 111.702 69.1C111.902 68.7 112.002 68.2 112.002 67.6C112.002 67.3 112.002 67 111.902 66.6C111.802 66.2 111.602 65.8 111.402 65.5C111.102 65.1 110.802 64.8 110.302 64.6C109.802 64.4 109.302 64.2 108.502 64.2H106.702V70.9Z" fill="white"/>
<path d="M115.602 69.7C115.602 70 115.602 70.2 115.702 70.4C115.802 70.6 115.902 70.8 116.102 71C116.302 71.2 116.502 71.3 116.702 71.4C116.902 71.5 117.202 71.6 117.402 71.6C117.802 71.6 118.102 71.6 118.402 71.4C118.702 71.2 118.902 71.1 119.202 70.8L120.002 71.5C119.302 72.3 118.402 72.6 117.202 72.5C116.702 72.5 116.302 72.3 115.902 72.1C115.502 71.9 115.202 71.6 115.002 71.3C114.802 71 114.602 70.6 114.502 70.2C114.402 69.8 114.402 69.4 114.402 68.9C114.402 68.5 114.602 68 114.802 67.7C115.002 67.3 115.202 67 115.502 66.8C115.802 66.6 116.202 66.4 116.502 66.2C116.902 66.1 117.302 66 117.802 66.1C118.302 66.2 118.802 66.3 119.102 66.5C119.502 66.7 119.702 67 119.902 67.3C120.102 67.6 120.202 68 120.302 68.4C120.402 68.8 120.402 69.2 120.302 69.6V70L115.602 69.7ZM119.302 69.2C119.302 68.9 119.302 68.7 119.202 68.5C119.102 68.3 119.102 68.1 118.902 67.9C118.802 67.7 118.602 67.6 118.402 67.5C118.202 67.4 117.902 67.3 117.702 67.3C117.402 67.3 117.202 67.3 116.902 67.4C116.602 67.5 116.402 67.6 116.302 67.8C116.102 68 116.002 68.1 115.902 68.3C115.802 68.5 115.702 68.7 115.702 68.9L119.302 69.2Z" fill="white"/>
<path d="M122.803 63.4004L123.903 63.6004L122.803 69.7004L125.803 67.6004L127.403 67.9004L124.103 70.1004L126.503 73.9004L124.903 73.6004L122.703 70.0004L122.203 73.1004L121.203 72.9004L122.803 63.4004Z" fill="white"/>
<path d="M129.802 64.7002L130.902 65.0002L129.802 69.4002C130.002 69.1002 130.302 68.9002 130.702 68.8002C131.102 68.7002 131.502 68.7002 132.002 68.8002C132.302 68.9002 132.502 69.0002 132.802 69.1002C133.002 69.3002 133.202 69.4002 133.402 69.7002C133.502 69.9002 133.602 70.2002 133.702 70.5002C133.702 70.8002 133.702 71.2002 133.602 71.6002L132.602 75.4002L131.502 75.1002L132.402 71.6002C132.502 71.3002 132.502 71.1002 132.502 70.9002C132.502 70.7002 132.402 70.5002 132.302 70.4002C132.202 70.3002 132.102 70.1002 131.902 70.0002C131.802 69.9002 131.602 69.8002 131.402 69.8002C131.202 69.7002 130.902 69.7002 130.702 69.7002C130.502 69.7002 130.302 69.8002 130.102 69.9002C129.902 70.0002 129.702 70.2002 129.602 70.4002C129.502 70.6002 129.302 70.9002 129.302 71.2002L128.502 74.2002L127.402 73.9002L129.802 64.7002Z" fill="white"/>
<path d="M134.602 72.8002C134.702 72.4002 135.002 72.0002 135.202 71.7002C135.402 71.4002 135.802 71.2002 136.202 71.0002C136.602 70.8002 137.002 70.7002 137.402 70.7002C137.802 70.7002 138.202 70.7002 138.702 70.9002C139.102 71.0002 139.502 71.3002 139.802 71.5002C140.102 71.8002 140.402 72.1002 140.502 72.5002C140.702 72.9002 140.802 73.3002 140.802 73.7002C140.802 74.1002 140.802 74.5002 140.602 74.9002C140.502 75.3002 140.202 75.7002 140.002 76.0002C139.702 76.3002 139.402 76.6002 139.002 76.7002C138.602 76.9002 138.202 77.0002 137.802 77.0002C137.402 77.0002 137.002 77.0002 136.502 76.8002C136.102 76.7002 135.702 76.4002 135.402 76.2002C135.102 75.9002 134.802 75.6002 134.702 75.2002C134.602 74.8002 134.402 74.4002 134.402 74.0002C134.402 73.6002 134.402 73.3002 134.602 72.8002ZM135.702 73.2002C135.602 73.5002 135.602 73.8002 135.602 74.0002C135.602 74.3002 135.702 74.5002 135.802 74.8002C135.902 75.1002 136.002 75.2002 136.202 75.4002C136.402 75.6002 136.602 75.7002 136.902 75.8002C137.202 75.9002 137.502 75.9002 137.702 75.9002C137.902 75.9002 138.202 75.8002 138.402 75.7002C138.602 75.6002 138.802 75.4002 139.002 75.2002C139.202 75.0002 139.302 74.7002 139.402 74.4002C139.502 74.1002 139.502 73.8002 139.502 73.6002C139.502 73.3002 139.402 73.1002 139.302 72.8002C139.202 72.5002 139.102 72.4002 138.902 72.2002C138.702 72.0002 138.502 71.9002 138.202 71.8002C137.902 71.7002 137.602 71.7002 137.402 71.7002C137.102 71.7002 136.902 71.8002 136.702 71.9002C136.502 72.0002 136.302 72.2002 136.102 72.4002C136.002 72.7002 135.802 73.0002 135.702 73.2002Z" fill="white"/>
<path d="M147.902 71.5996L149.002 72.0996L145.202 80.2996L144.102 79.7996L147.902 71.5996Z" fill="white"/>
<path d="M149.702 75.7002L150.702 76.2002L150.302 77.0002C150.602 76.8002 150.902 76.7002 151.302 76.7002C151.702 76.7002 152.102 76.8002 152.502 77.0002C152.802 77.1002 153.002 77.3002 153.202 77.5002C153.402 77.7002 153.502 77.9002 153.602 78.2002C153.702 78.5002 153.702 78.7002 153.702 79.1002C153.702 79.4002 153.602 79.7002 153.402 80.1002L151.502 83.5002L150.502 83.0002L152.202 79.9002C152.302 79.7002 152.402 79.4002 152.402 79.2002C152.402 79.0002 152.402 78.8002 152.402 78.6002C152.402 78.4002 152.302 78.3002 152.102 78.2002C152.002 78.1002 151.802 78.0002 151.702 77.9002C151.502 77.8002 151.302 77.7002 151.102 77.7002C150.902 77.7002 150.702 77.7002 150.502 77.8002C150.302 77.9002 150.102 78.0002 149.902 78.2002C149.702 78.4002 149.502 78.6002 149.402 78.9002L147.902 81.6002L146.902 81.1002L149.702 75.7002Z" fill="white"/>
<path d="M157.703 87.6L156.703 87L157.203 86.3C156.803 86.4 156.403 86.5 156.003 86.4C155.603 86.3 155.203 86.2 154.903 86C154.503 85.7 154.203 85.4 154.003 85.1C153.803 84.8 153.603 84.4 153.603 84C153.603 83.6 153.503 83.2 153.603 82.8C153.703 82.4 153.903 82 154.103 81.6C154.303 81.2 154.603 80.9 155.003 80.7C155.303 80.5 155.703 80.3 156.103 80.2C156.503 80.1 156.903 80.1 157.303 80.2C157.703 80.3 158.103 80.4 158.503 80.7C158.903 80.9 159.203 81.2 159.403 81.6C159.603 82 159.703 82.3 159.703 82.7L162.103 79L163.103 79.6L157.703 87.6ZM155.603 85.1C155.903 85.3 156.103 85.4 156.403 85.4C156.703 85.4 156.903 85.4 157.203 85.4C157.403 85.3 157.703 85.2 157.903 85.1C158.103 84.9 158.303 84.7 158.503 84.5C158.703 84.2 158.803 84 158.803 83.7C158.903 83.4 158.903 83.2 158.803 82.9C158.703 82.6 158.703 82.4 158.503 82.2C158.403 82 158.203 81.8 157.903 81.6C157.603 81.4 157.403 81.3 157.103 81.3C156.803 81.3 156.603 81.3 156.303 81.3C156.103 81.4 155.803 81.5 155.603 81.6C155.403 81.8 155.203 82 155.003 82.2C154.803 82.5 154.703 82.7 154.703 83C154.603 83.3 154.603 83.5 154.703 83.8C154.803 84.1 154.803 84.3 155.003 84.5C155.103 84.7 155.303 84.9 155.603 85.1Z" fill="white"/>
<path d="M162.6 83.7L163.5 84.4L159.9 89.2L159 88.5L162.6 83.7ZM163.6 81.8C163.7 81.6 163.9 81.5 164.2 81.5C164.4 81.5 164.6 81.5 164.8 81.7C165 81.8 165.1 82 165.1 82.3C165.1 82.5 165.1 82.7 164.9 82.9C164.8 83.1 164.6 83.2 164.3 83.2C164.1 83.2 163.9 83.2 163.7 83C163.5 82.9 163.4 82.7 163.4 82.4C163.5 82.2 163.5 81.9 163.6 81.8Z" fill="white"/>
<path d="M164.603 86.0996C165.003 86.0996 165.503 86.0996 165.903 86.2996C166.303 86.4996 166.703 86.6996 167.003 86.8996C167.303 87.1996 167.603 87.4996 167.803 87.7996C168.003 88.0996 168.103 88.3996 168.103 88.5996C168.103 88.8996 168.103 89.0996 168.003 89.3996C167.903 89.5996 167.803 89.8996 167.603 90.0996L165.603 92.4996C165.503 92.6996 165.303 92.7996 165.203 92.9996C165.103 93.0996 165.003 93.2996 164.903 93.3996L164.103 92.6996C164.303 92.3996 164.503 92.1996 164.703 91.9996C164.303 92.0996 163.803 92.1996 163.503 92.0996C163.103 91.9996 162.803 91.7996 162.403 91.4996C162.203 91.2996 162.003 91.0996 161.903 90.8996C161.803 90.6996 161.703 90.3996 161.603 90.1996C161.503 89.9996 161.603 89.6996 161.603 89.4996C161.703 89.2996 161.803 88.9996 162.003 88.7996C162.303 88.4996 162.503 88.2996 162.803 88.1996C163.103 88.0996 163.403 88.0996 163.803 88.1996C164.103 88.2996 164.503 88.3996 164.803 88.5996C165.203 88.7996 165.503 89.0996 165.903 89.2996L166.503 89.7996L166.703 89.5996C166.803 89.4996 166.903 89.2996 166.903 89.1996C167.003 88.9996 167.003 88.8996 167.003 88.6996C167.003 88.4996 166.903 88.3996 166.803 88.1996C166.703 87.9996 166.603 87.8996 166.403 87.6996C166.203 87.5996 166.103 87.4996 165.903 87.3996C165.703 87.2996 165.603 87.2996 165.403 87.1996C165.203 87.0996 165.103 87.0996 165.003 87.0996C164.903 87.0996 164.703 87.0996 164.603 87.0996V86.0996ZM165.503 89.9996C165.303 89.7996 165.103 89.6996 164.803 89.4996C164.603 89.2996 164.303 89.1996 164.103 89.0996C163.903 88.9996 163.603 88.9996 163.403 88.9996C163.203 88.9996 163.003 89.0996 162.903 89.2996C162.703 89.5996 162.603 89.7996 162.703 90.0996C162.803 90.3996 163.003 90.5996 163.303 90.8996C163.503 91.0996 163.803 91.1996 164.003 91.2996C164.203 91.3996 164.503 91.3996 164.703 91.2996C164.903 91.2996 165.103 91.1996 165.303 91.0996C165.503 90.9996 165.603 90.7996 165.803 90.6996L166.003 90.3996L165.503 89.9996Z" fill="white"/>
<path d="M27.7 182.6L28.7 185.6C28.8 186 28.9 186.3 28.9 186.7C28.9 187 28.9 187.4 28.8 187.7C28.7 188 28.5 188.2 28.3 188.5C28.1 188.7 27.8 188.9 27.4 189C26.9 189.2 26.5 189.2 26.1 189C25.7 188.8 25.3 188.6 25.1 188.2C25.2 188.5 25.2 188.7 25.1 189C25.1 189.3 25 189.5 24.8 189.7C24.7 189.9 24.5 190.1 24.3 190.3C24.1 190.5 23.8 190.6 23.5 190.7C23.1 190.8 22.7 190.9 22.4 190.8C22.1 190.7 21.7 190.6 21.4 190.4C21.1 190.2 20.8 189.9 20.6 189.6C20.4 189.3 20.2 188.9 20 188.5L19 185.6L27.7 182.6ZM20.6 186.3L21.2 188C21.3 188.2 21.3 188.4 21.5 188.6C21.6 188.8 21.7 189 21.9 189.1C22.1 189.2 22.3 189.4 22.5 189.4C22.7 189.5 23 189.4 23.3 189.3C23.8 189.1 24.1 188.8 24.3 188.4C24.4 188 24.4 187.5 24.2 186.9L23.6 185.2L20.6 186.3ZM24.6 184.9L25.1 186.5C25.2 186.7 25.3 186.9 25.4 187.1C25.5 187.3 25.6 187.4 25.8 187.5C26 187.6 26.1 187.7 26.3 187.7C26.5 187.7 26.7 187.7 26.9 187.6C27.2 187.5 27.5 187.3 27.7 187C27.9 186.7 27.9 186.3 27.7 185.8L27.1 184L24.6 184.9Z" fill="white"/>
<path d="M30.8 189.3L31.3 190.4L27.2 192.2C27.6 192.2 27.9 192.3 28.2 192.6C28.5 192.8 28.8 193.2 29 193.6C29.1 193.9 29.2 194.1 29.2 194.4C29.2 194.7 29.2 195 29.1 195.2C29 195.5 28.9 195.7 28.6 195.9C28.4 196.1 28.1 196.3 27.7 196.5L24.1 198.1L23.6 197.1L26.9 195.7C27.2 195.6 27.4 195.5 27.5 195.3C27.7 195.1 27.8 195 27.8 194.8C27.9 194.6 27.9 194.5 27.9 194.3C27.9 194.1 27.8 194 27.8 193.8C27.7 193.6 27.6 193.4 27.4 193.2C27.2 193 27.1 192.9 26.9 192.9C26.7 192.8 26.4 192.8 26.2 192.8C26 192.8 25.6 192.9 25.3 193L22.5 194.3L22 193.3L30.8 189.3Z" fill="white"/>
<path d="M29.6992 197.399C30.0992 197.499 30.4992 197.799 30.7992 198.099C31.0992 198.399 31.3992 198.699 31.5992 199.099C31.7992 199.499 31.8992 199.899 31.9992 200.199C32.0992 200.499 31.9992 200.799 31.9992 201.099C31.9992 201.399 31.7992 201.599 31.5992 201.799C31.3992 201.999 31.1992 202.199 30.9992 202.299L28.2992 203.799C28.0992 203.899 27.8992 203.999 27.7992 204.099C27.6992 204.199 27.4992 204.299 27.3992 204.399L26.8992 203.499C27.1992 203.299 27.3992 203.199 27.6992 202.999C27.1992 202.999 26.7992 202.799 26.4992 202.599C26.1992 202.399 25.8992 202.099 25.6992 201.599C25.5992 201.399 25.4992 201.099 25.3992 200.799C25.2992 200.499 25.2992 200.299 25.3992 199.999C25.4992 199.699 25.4992 199.499 25.6992 199.299C25.7992 199.099 26.0992 198.899 26.2992 198.799C26.5992 198.599 26.9992 198.499 27.2992 198.599C27.5992 198.599 27.8992 198.699 28.1992 198.899C28.4992 199.099 28.7992 199.299 28.9992 199.699C29.2992 199.999 29.4992 200.399 29.6992 200.799L30.0992 201.499L30.2992 201.399C30.3992 201.299 30.5992 201.199 30.6992 201.099C30.7992 200.999 30.8992 200.799 30.8992 200.699C30.9992 200.499 30.9992 200.399 30.8992 200.199C30.7992 199.999 30.7992 199.799 30.6992 199.599C30.5992 199.399 30.4992 199.199 30.3992 199.099C30.2992 198.999 30.1992 198.899 29.9992 198.799C29.8992 198.699 29.7992 198.599 29.5992 198.599C29.4992 198.499 29.3992 198.499 29.1992 198.399L29.6992 197.399ZM29.0992 201.399C28.9992 201.199 28.7992 200.899 28.6992 200.699C28.4992 200.499 28.3992 200.299 28.1992 200.099C27.9992 199.899 27.7992 199.799 27.5992 199.799C27.3992 199.699 27.1992 199.799 26.9992 199.899C26.6992 200.099 26.4992 200.299 26.4992 200.599C26.4992 200.899 26.5992 201.199 26.6992 201.499C26.7992 201.799 26.9992 201.999 27.1992 202.099C27.3992 202.199 27.5992 202.299 27.7992 202.399C27.9992 202.399 28.1992 202.399 28.3992 202.399C28.5992 202.399 28.7992 202.299 28.9992 202.199L29.2992 201.999L29.0992 201.399Z" fill="white"/>
<path d="M33.8994 206.3C33.9994 206.1 33.9994 205.9 33.9994 205.6C33.9994 205.3 33.8994 205.1 33.7994 204.9C33.6994 204.7 33.4994 204.5 33.2994 204.4C33.0994 204.3 32.8994 204.3 32.6994 204.4C32.4994 204.5 32.4994 204.6 32.3994 204.8C32.3994 205 32.3994 205.1 32.3994 205.3C32.3994 205.5 32.4994 205.6 32.4994 205.8C32.4994 206 32.5994 206.1 32.6994 206.2C32.7994 206.4 32.7994 206.7 32.8994 206.9C32.8994 207.1 32.8994 207.3 32.8994 207.6C32.8994 207.8 32.7994 208 32.6994 208.2C32.5994 208.4 32.3994 208.5 32.1994 208.7C31.8994 208.9 31.5994 209 31.2994 209C30.9994 209 30.7994 209 30.4994 208.8C30.1994 208.7 29.9994 208.5 29.7994 208.3C29.5994 208.1 29.3994 207.9 29.1994 207.6C28.8994 207.2 28.7994 206.8 28.6994 206.4C28.5994 206 28.6994 205.6 28.8994 205.1L29.9994 205.5C29.8994 205.8 29.8994 206 29.8994 206.3C29.8994 206.6 29.9994 206.8 30.1994 207.1C30.2994 207.2 30.3994 207.3 30.4994 207.4C30.5994 207.5 30.6994 207.6 30.7994 207.7C30.8994 207.8 30.9994 207.8 31.1994 207.8C31.2994 207.8 31.3994 207.8 31.4994 207.7C31.5994 207.6 31.6994 207.5 31.7994 207.3C31.7994 207.2 31.7994 207 31.7994 206.8C31.7994 206.6 31.6994 206.5 31.6994 206.3C31.5994 206.1 31.5994 206 31.4994 205.9C31.3994 205.7 31.3994 205.4 31.2994 205.2C31.1994 205 31.1994 204.8 31.1994 204.5C31.1994 204.3 31.2994 204.1 31.3994 203.9C31.4994 203.7 31.6994 203.5 31.8994 203.4C32.1994 203.2 32.3994 203.1 32.6994 203.1C32.9994 203.1 33.1994 203.1 33.4994 203.2C33.6994 203.3 33.9994 203.4 34.1994 203.6C34.3994 203.8 34.5994 204 34.6994 204.2C34.8994 204.5 35.0994 204.9 35.0994 205.3C35.1994 205.7 35.0994 206.1 34.8994 206.5L33.8994 206.3Z" fill="white"/>
<path d="M39.4008 205.3L40.1008 206.2L36.4008 208.9C36.7008 208.8 37.1008 208.9 37.5008 209C37.9008 209.2 38.2008 209.4 38.5008 209.8C38.7008 210 38.8008 210.3 38.9008 210.6C39.0008 210.9 39.0008 211.1 39.0008 211.4C39.0008 211.7 38.9008 211.9 38.7008 212.2C38.5008 212.5 38.3008 212.7 38.0008 213L34.9008 215.3L34.2008 214.4L37.1008 212.3C37.3008 212.1 37.5008 212 37.6008 211.8C37.7008 211.6 37.8008 211.4 37.8008 211.3C37.8008 211.1 37.8008 211 37.8008 210.8C37.7008 210.6 37.7008 210.5 37.6008 210.3C37.5008 210.1 37.3008 210 37.1008 209.8C36.9008 209.6 36.7008 209.6 36.5008 209.6C36.3008 209.6 36.0008 209.6 35.8008 209.7C35.5008 209.8 35.3008 209.9 35.0008 210.1L32.5008 211.9L31.8008 211L39.4008 205.3Z" fill="white"/>
<path d="M40.1 213.5C40.5 213.6 40.9 213.7 41.3 213.9C41.7 214.1 42 214.4 42.3 214.7C42.6 215 42.8 215.4 42.9 215.7C43 216 43.1 216.3 43.1 216.6C43.1 216.9 43 217.1 42.9 217.4C42.8 217.6 42.6 217.8 42.4 218L40.1 220C39.9 220.1 39.8 220.3 39.7 220.4C39.6 220.5 39.4 220.6 39.3 220.8L38.6 220C38.8 219.8 39 219.6 39.3 219.4C38.8 219.5 38.4 219.4 38.1 219.3C37.8 219.1 37.4 218.9 37.1 218.5C36.9 218.3 36.8 218.1 36.7 217.8C36.6 217.5 36.5 217.3 36.5 217.1C36.5 216.9 36.5 216.6 36.6 216.4C36.7 216.2 36.9 216 37.1 215.8C37.4 215.5 37.7 215.4 38 215.4C38.3 215.4 38.6 215.4 39 215.5C39.3 215.6 39.6 215.8 40 216.1C40.3 216.4 40.6 216.7 40.9 217L41.4 217.6L41.6 217.4C41.7 217.3 41.8 217.2 41.9 217C42 216.9 42 216.7 42 216.5C42 216.3 42 216.2 41.9 216C41.8 215.8 41.7 215.6 41.6 215.4C41.5 215.2 41.3 215.1 41.2 215C41.1 214.9 40.9 214.8 40.8 214.8C40.7 214.7 40.5 214.7 40.4 214.7C40.3 214.7 40.1 214.6 40 214.6L40.1 213.5ZM40.4 217.6C40.2 217.4 40 217.2 39.8 217C39.6 216.8 39.4 216.6 39.2 216.5C39 216.4 38.8 216.3 38.6 216.3C38.4 216.3 38.2 216.4 38 216.5C37.7 216.7 37.6 217 37.7 217.3C37.8 217.6 37.9 217.9 38.1 218.2C38.3 218.4 38.5 218.6 38.7 218.7C38.9 218.8 39.1 218.8 39.4 218.8C39.7 218.8 39.8 218.7 40 218.7C40.2 218.7 40.4 218.5 40.5 218.4L40.8 218.2L40.4 217.6Z" fill="white"/>
<path d="M48.7 223.699C48.7 223.499 48.7 223.299 48.6 222.999C48.5 222.799 48.4 222.599 48.2 222.399C48 222.199 47.8 222.099 47.6 221.999C47.4 221.899 47.2 221.999 47 222.199C46.9 222.299 46.8 222.499 46.8 222.599C46.8 222.799 46.8 222.899 46.9 223.099C47 223.299 47.1 223.399 47.2 223.599C47.3 223.699 47.4 223.899 47.5 223.999C47.6 224.199 47.8 224.399 47.9 224.599C48 224.799 48.1 224.999 48.1 225.199C48.1 225.399 48.1 225.599 48 225.799C47.9 225.999 47.8 226.199 47.6 226.399C47.4 226.599 47.1 226.799 46.8 226.899C46.5 226.999 46.3 226.999 46 226.899C45.7 226.899 45.5 226.799 45.2 226.599C44.9 226.399 44.7 226.299 44.5 226.099C44.1 225.799 43.9 225.399 43.7 224.999C43.5 224.599 43.5 224.199 43.5 223.699L44.6 223.799C44.6 224.099 44.6 224.299 44.7 224.599C44.8 224.899 44.9 225.099 45.2 225.299C45.3 225.399 45.4 225.499 45.6 225.599C45.7 225.699 45.9 225.699 46 225.799C46.1 225.799 46.3 225.799 46.4 225.799C46.5 225.799 46.6 225.699 46.7 225.599C46.8 225.499 46.9 225.299 46.9 225.199C46.9 224.999 46.9 224.899 46.8 224.699C46.7 224.499 46.7 224.399 46.6 224.299C46.5 224.199 46.4 223.999 46.3 223.899C46.2 223.699 46 223.499 45.9 223.299C45.8 223.099 45.7 222.899 45.7 222.699C45.7 222.499 45.7 222.299 45.7 222.099C45.8 221.899 45.9 221.699 46.1 221.499C46.3 221.299 46.6 221.099 46.8 220.999C47.1 220.899 47.3 220.899 47.6 220.899C47.9 220.899 48.1 220.999 48.4 221.199C48.7 221.299 48.9 221.499 49.1 221.699C49.4 221.999 49.6 222.299 49.8 222.699C50 223.099 50 223.499 49.9 223.899L48.7 223.699Z" fill="white"/>
<path d="M51.0991 224.8C51.4991 224.8 51.9991 224.8 52.3991 225C52.7991 225.2 53.1991 225.4 53.4991 225.6C53.7991 225.9 54.0991 226.2 54.2991 226.5C54.4991 226.8 54.5991 227.1 54.5991 227.3C54.5991 227.6 54.5991 227.8 54.4991 228.1C54.3991 228.3 54.2991 228.6 54.0991 228.8L52.0991 231.2C51.9991 231.4 51.7991 231.5 51.6991 231.7C51.5991 231.9 51.4991 232 51.3991 232.1L50.5991 231.5C50.7991 231.2 50.9991 231 51.1991 230.8C50.7991 230.9 50.2991 231 49.9991 230.9C49.5991 230.8 49.2991 230.6 48.8991 230.3C48.6991 230.1 48.4991 229.9 48.3991 229.7C48.2991 229.5 48.1991 229.2 48.0991 229C47.9991 228.8 48.0991 228.5 48.0991 228.3C48.1991 228.1 48.2991 227.8 48.4991 227.6C48.6991 227.3 48.9991 227.1 49.2991 227C49.5991 226.9 49.8991 226.9 50.2991 227C50.5991 227.1 50.9991 227.2 51.2991 227.4C51.6991 227.6 51.9991 227.8 52.3991 228.1L53.0991 228.6L53.2991 228.4C53.3991 228.3 53.4991 228.1 53.4991 228C53.4991 227.9 53.5991 227.7 53.5991 227.5C53.5991 227.3 53.4991 227.2 53.3991 227C53.2991 226.8 53.1991 226.7 52.9991 226.5C52.7991 226.4 52.6991 226.3 52.4991 226.2C52.2991 226.1 52.1991 226.1 51.9991 226C51.8991 226 51.6991 225.9 51.5991 225.9C51.4991 225.9 51.2991 225.9 51.1991 225.9L51.0991 224.8ZM51.9991 228.7C51.7991 228.5 51.5991 228.4 51.2991 228.2C51.0991 228 50.7991 227.9 50.5991 227.8C50.3991 227.7 50.0991 227.7 49.8991 227.7C49.6991 227.7 49.4991 227.8 49.3991 228C49.1991 228.3 49.0991 228.5 49.1991 228.8C49.2991 229.1 49.4991 229.3 49.7991 229.6C49.9991 229.8 50.2991 229.9 50.4991 230C50.6991 230.1 50.9991 230.1 51.1991 230C51.3991 230 51.5991 229.9 51.7991 229.7C51.9991 229.6 52.0991 229.4 52.2991 229.3L52.4991 229L51.9991 228.7Z" fill="white"/>
<path d="M56.5016 228.3L57.4016 228.9L56.9016 229.7C57.0016 229.6 57.1016 229.6 57.2016 229.5C57.3016 229.4 57.5016 229.4 57.7016 229.4C57.9016 229.4 58.1016 229.4 58.4016 229.5C58.6016 229.6 58.9016 229.7 59.1016 229.8C59.5016 230 59.7016 230.3 59.9016 230.7C60.1016 231 60.1016 231.4 60.1016 231.8C60.5016 231.6 60.9016 231.5 61.3016 231.6C61.7016 231.6 62.1016 231.8 62.4016 232C62.8016 232.3 63.1016 232.5 63.2016 232.8C63.3016 233.1 63.4016 233.4 63.4016 233.7C63.4016 234 63.3016 234.3 63.2016 234.6C63.1016 234.9 62.9016 235.2 62.7016 235.5L60.8016 238.4L59.8016 237.8L61.7016 235C61.8016 234.8 61.9016 234.6 62.0016 234.4C62.1016 234.2 62.1016 234 62.2016 233.8C62.2016 233.6 62.2016 233.4 62.1016 233.3C62.0016 233.1 61.9016 233 61.6016 232.8C61.1016 232.5 60.7016 232.4 60.3016 232.6C59.9016 232.8 59.6016 233.1 59.3016 233.5L57.5016 236.3L56.5016 235.7L58.2016 232.9C58.4016 232.7 58.5016 232.4 58.6016 232.2C58.7016 232 58.8016 231.8 58.8016 231.6C58.8016 231.4 58.8016 231.2 58.7016 231C58.6016 230.8 58.5016 230.7 58.2016 230.5C58.0016 230.4 57.8016 230.3 57.6016 230.3C57.4016 230.3 57.2016 230.3 57.0016 230.3C56.8016 230.4 56.6016 230.5 56.4016 230.6C56.2016 230.8 56.0016 231 55.8016 231.3L54.1016 233.9L53.1016 233.3L56.5016 228.3Z" fill="white"/>
<path d="M65.2 234.799C65.6 234.699 66.1 234.699 66.5 234.699C66.9 234.799 67.4 234.899 67.7 235.099C68.1 235.299 68.4 235.499 68.6 235.799C68.8 235.999 69 236.299 69.1 236.599C69.2 236.899 69.2 237.099 69.2 237.399C69.2 237.699 69.1 237.899 69 238.099L67.6 240.799C67.5 240.999 67.4 241.199 67.3 241.299C67.2 241.499 67.2 241.599 67.1 241.799L66.2 241.299C66.3 240.999 66.5 240.699 66.6 240.499C66.2 240.699 65.8 240.799 65.4 240.799C65 240.799 64.6 240.699 64.2 240.399C64 240.299 63.7 240.099 63.5 239.899C63.3 239.699 63.2 239.499 63.1 239.299C63 239.099 63 238.799 63 238.599C63 238.399 63.1 238.099 63.2 237.799C63.4 237.499 63.6 237.199 63.9 237.099C64.2 236.899 64.5 236.899 64.8 236.899C65.1 236.899 65.5 236.999 65.9 237.099C66.3 237.199 66.7 237.399 67.1 237.599L67.8 237.999L67.9 237.799C68 237.699 68 237.499 68 237.399C68 237.299 68 237.099 68 236.899C68 236.699 67.9 236.599 67.7 236.399C67.6 236.299 67.4 236.099 67.2 235.999C67 235.899 66.8 235.799 66.7 235.799C66.5 235.799 66.4 235.699 66.2 235.699C66 235.699 65.9 235.699 65.8 235.699C65.7 235.699 65.5 235.699 65.4 235.799L65.2 234.799ZM66.9 238.399C66.7 238.299 66.4 238.199 66.1 237.999C65.8 237.899 65.6 237.799 65.3 237.799C65.1 237.799 64.8 237.799 64.6 237.799C64.4 237.899 64.2 237.999 64.1 238.199C63.9 238.499 63.9 238.799 64.1 238.999C64.2 239.199 64.5 239.499 64.8 239.599C65.1 239.699 65.3 239.799 65.6 239.799C65.8 239.799 66.1 239.799 66.3 239.699C66.5 239.599 66.7 239.499 66.8 239.299C66.9 239.099 67.1 238.999 67.2 238.799L67.4 238.499L66.9 238.399Z" fill="white"/>
<path d="M71.2992 237.1L72.2992 237.6L71.8992 238.4C71.9992 238.3 72.1992 238.2 72.3992 238.1C72.5992 238 72.6992 238 72.8992 238C73.0992 238 73.2992 238 73.4992 238C73.6992 238 73.8992 238.1 73.9992 238.2C74.1992 238.3 74.2992 238.4 74.3992 238.5L73.7992 239.6C73.6992 239.5 73.5992 239.5 73.5992 239.4C73.4992 239.3 73.3992 239.3 73.3992 239.3C72.8992 239.1 72.3992 239 71.9992 239.2C71.5992 239.4 71.2992 239.7 70.9992 240.4L69.6992 243.2L68.6992 242.7L71.2992 237.1Z" fill="white"/>
<path d="M78.2 241.099L76.7 240.499L75.7 243.099C75.6 243.299 75.6 243.399 75.5 243.599C75.4 243.799 75.4 243.899 75.4 244.099C75.4 244.199 75.4 244.399 75.5 244.499C75.6 244.599 75.7 244.699 75.9 244.799C76 244.799 76.2 244.899 76.3 244.899C76.4 244.899 76.6 244.899 76.7 244.899L76.3 245.899C76.1 245.899 76 245.899 75.7 245.899C75.5 245.799 75.3 245.799 75.2 245.799C74.8 245.599 74.5 245.499 74.3 245.299C74.1 245.099 74 244.899 74 244.699C74 244.499 74 244.199 74 243.999C74.1 243.799 74.1 243.499 74.2 243.299L75.3 240.399L74.1 239.899L74.5 238.999L75.7 239.499L76.3 237.899L77.4 238.299L76.8 239.899L78.3 240.499L78.2 241.099Z" fill="white"/>
<path d="M80.9016 237.199L82.0016 237.499L80.6016 241.799C80.8016 241.499 81.2016 241.399 81.6016 241.299C82.0016 241.199 82.4016 241.199 82.9016 241.399C83.2016 241.499 83.4016 241.599 83.7016 241.799C83.9016 241.999 84.1016 242.199 84.2016 242.399C84.3016 242.599 84.4016 242.899 84.4016 243.199C84.4016 243.499 84.4016 243.899 84.3016 244.199L83.1016 247.899L82.0016 247.599L83.1016 244.199C83.2016 243.899 83.2016 243.699 83.2016 243.499C83.2016 243.299 83.1016 243.099 83.1016 242.899C83.0016 242.699 82.9016 242.599 82.8016 242.499C82.7016 242.399 82.5016 242.299 82.3016 242.299C82.1016 242.199 81.9016 242.199 81.6016 242.199C81.3016 242.199 81.2016 242.299 81.0016 242.399C80.8016 242.499 80.6016 242.699 80.5016 242.899C80.3016 243.099 80.2016 243.399 80.1016 243.699L79.2016 246.699L78.1016 246.399L80.9016 237.199Z" fill="white"/>
<path d="M86.4016 243.4C86.8016 243.2 87.2016 243 87.6016 243C88.0016 243 88.5016 243 88.9016 243.1C89.3016 243.2 89.7016 243.3 90.0016 243.5C90.3016 243.7 90.5016 243.9 90.7016 244.1C90.9016 244.3 91.0016 244.6 91.0016 244.8C91.0016 245.1 91.0016 245.3 91.0016 245.6L90.3016 248.6C90.3016 248.8 90.2016 249 90.2016 249.2C90.2016 249.4 90.1016 249.5 90.1016 249.7L89.1016 249.5C89.1016 249.2 89.2016 248.9 89.3016 248.6C89.0016 248.9 88.6016 249.1 88.2016 249.2C87.8016 249.3 87.4016 249.3 87.0016 249.2C86.7016 249.1 86.5016 249 86.2016 248.9C86.0016 248.8 85.8016 248.6 85.6016 248.4C85.4016 248.2 85.3016 248 85.3016 247.7C85.2016 247.5 85.2016 247.2 85.3016 246.9C85.4016 246.5 85.5016 246.2 85.8016 246C86.1016 245.8 86.3016 245.6 86.6016 245.5C86.9016 245.4 87.3016 245.4 87.7016 245.4C88.1016 245.4 88.5016 245.5 89.0016 245.6L89.8016 245.8L89.9016 245.6C89.9016 245.5 89.9016 245.3 89.9016 245.1C89.9016 244.9 89.8016 244.8 89.7016 244.6C89.6016 244.5 89.5016 244.3 89.3016 244.2C89.1016 244.1 88.9016 244 88.7016 244C88.5016 244 88.3016 243.9 88.1016 243.9C87.9016 243.9 87.8016 243.9 87.6016 244C87.5016 244 87.3016 244.1 87.2016 244.1C87.1016 244.2 87.0016 244.2 86.8016 244.3L86.4016 243.4ZM89.0016 246.4C88.7016 246.3 88.5016 246.3 88.2016 246.3C87.9016 246.3 87.6016 246.3 87.4016 246.3C87.2016 246.3 86.9016 246.4 86.8016 246.5C86.6016 246.6 86.5016 246.8 86.5016 247C86.4016 247.3 86.5016 247.6 86.7016 247.8C86.9016 248 87.2016 248.1 87.6016 248.2C87.9016 248.3 88.2016 248.3 88.4016 248.2C88.6016 248.1 88.8016 248.1 89.0016 247.9C89.2016 247.7 89.3016 247.6 89.4016 247.4C89.5016 247.2 89.6016 247 89.6016 246.8L89.7016 246.4H89.0016Z" fill="white"/>
<path d="M93.5 240.5L94.6 240.7L93.7 246.9L96.7 244.7L98.2 244.9L95 247.2L97.5 250.9L95.9 250.7L93.6 247.2L93.1 250.3L92 250.1L93.5 240.5Z" fill="white"/>
<path d="M102.801 246.8C102.801 246.5 102.901 246.2 103.001 245.9C103.101 245.6 103.301 245.4 103.501 245.2C103.701 245 104.001 244.9 104.201 244.7C104.501 244.6 104.801 244.5 105.101 244.6C105.401 244.6 105.701 244.7 106.001 244.8C106.301 244.9 106.501 245.1 106.701 245.3C106.901 245.5 107.001 245.8 107.201 246C107.301 246.3 107.401 246.6 107.301 246.9C107.301 247.2 107.201 247.5 107.101 247.8C107.001 248.1 106.801 248.3 106.601 248.5C106.401 248.7 106.101 248.8 105.901 249C105.601 249.1 105.301 249.2 105.001 249.1C104.701 249 104.401 249 104.101 248.9C103.801 248.8 103.601 248.6 103.401 248.4C103.201 248.2 103.101 247.9 102.901 247.7C102.901 247.4 102.801 247.1 102.801 246.8Z" fill="white"/>
<path d="M112.602 242.399L115.702 242.199C116.102 242.199 116.502 242.199 116.802 242.299C117.102 242.399 117.402 242.499 117.702 242.599C118.002 242.799 118.202 242.999 118.302 243.299C118.502 243.599 118.602 243.899 118.602 244.299C118.602 244.799 118.502 245.299 118.302 245.599C118.002 245.899 117.702 246.199 117.202 246.399C117.502 246.399 117.702 246.399 118.002 246.599C118.302 246.799 118.502 246.799 118.702 246.999C118.902 247.199 119.002 247.399 119.202 247.699C119.402 247.999 119.402 248.199 119.402 248.499C119.402 248.899 119.402 249.299 119.202 249.599C119.002 249.899 118.902 250.199 118.602 250.399C118.302 250.599 118.002 250.799 117.602 250.999C117.202 251.199 116.802 251.199 116.402 251.299L113.302 251.499L112.602 242.399ZM114.102 246.099L115.802 245.999C116.002 245.999 116.202 245.899 116.402 245.899C116.602 245.799 116.802 245.699 116.902 245.599C117.002 245.499 117.202 245.299 117.202 245.199C117.302 244.999 117.302 244.799 117.302 244.599C117.302 244.199 117.102 243.899 116.902 243.699C116.702 243.499 116.302 243.399 115.802 243.399L113.902 243.499L114.102 246.099ZM114.502 250.299L116.302 250.199C116.502 250.199 116.702 250.199 116.902 250.099C117.102 249.999 117.302 249.999 117.502 249.799C117.702 249.699 117.802 249.499 118.002 249.299C118.102 249.099 118.202 248.799 118.102 248.499C118.102 247.999 117.902 247.599 117.502 247.299C117.102 247.099 116.702 246.999 116.102 246.999L114.302 247.099L114.502 250.299Z" fill="white"/>
<path d="M120.5 244.7L121.6 244.5L121.7 245.4C121.8 245.2 121.8 245.1 121.9 244.9C122 244.7 122.1 244.6 122.3 244.5C122.4 244.4 122.6 244.3 122.8 244.2C123 244.1 123.2 244.1 123.3 244C123.5 244 123.7 244 123.8 244L123.9 245.2C123.8 245.2 123.7 245.2 123.6 245.2C123.5 245.2 123.4 245.2 123.3 245.2C122.7 245.3 122.3 245.5 122.1 245.9C121.9 246.3 121.8 246.8 121.9 247.4L122.4 250.4L121.3 250.6L120.5 244.7Z" fill="white"/>
<path d="M125.2 247.1C125.1 246.7 125.1 246.2 125.2 245.8C125.3 245.4 125.4 245 125.7 244.7C125.9 244.4 126.2 244.1 126.6 243.8C126.9 243.6 127.3 243.4 127.8 243.3C128.2 243.2 128.7 243.2 129.1 243.3C129.5 243.4 129.9 243.5 130.2 243.7C130.5 243.9 130.8 244.2 131.1 244.5C131.3 244.8 131.5 245.2 131.6 245.7C131.7 246.1 131.7 246.6 131.6 247C131.5 247.4 131.4 247.8 131.1 248.1C130.9 248.4 130.6 248.7 130.2 249C129.8 249.3 129.5 249.4 129 249.5C128.6 249.6 128.1 249.6 127.7 249.5C127.3 249.4 126.9 249.3 126.6 249.1C126.3 248.9 126 248.6 125.7 248.3C125.4 247.9 125.3 247.5 125.2 247.1ZM126.4 246.8C126.5 247.1 126.6 247.4 126.7 247.6C126.8 247.8 127 248 127.2 248.2C127.4 248.3 127.6 248.4 127.9 248.5C128.2 248.6 128.4 248.5 128.7 248.5C129 248.4 129.3 248.3 129.5 248.2C129.7 248 129.9 247.9 130 247.6C130.1 247.4 130.2 247.1 130.2 246.9C130.2 246.7 130.2 246.3 130.2 246C130.1 245.7 130 245.4 129.9 245.2C129.8 245 129.6 244.8 129.4 244.6C129.2 244.5 129 244.4 128.7 244.3C128.4 244.2 128.2 244.3 127.9 244.3C127.6 244.3 127.3 244.5 127.1 244.6C126.9 244.8 126.7 244.9 126.6 245.2C126.5 245.4 126.4 245.7 126.4 245.9C126.3 246.2 126.3 246.5 126.4 246.8Z" fill="white"/>
<path d="M132.102 242.399L133.202 242.099L133.502 242.999C133.502 242.599 133.702 242.299 134.002 241.999C134.302 241.699 134.602 241.499 135.102 241.299C135.402 241.199 135.702 241.199 135.902 241.199C136.102 241.199 136.402 241.299 136.702 241.399C136.902 241.499 137.202 241.699 137.402 241.899C137.602 242.099 137.802 242.499 137.902 242.799L139.002 246.499L137.902 246.799L136.902 243.399C136.802 243.099 136.702 242.899 136.602 242.699C136.502 242.499 136.302 242.399 136.202 242.299C136.002 242.199 135.902 242.199 135.702 242.199C135.502 242.199 135.402 242.199 135.202 242.299C135.002 242.399 134.802 242.499 134.602 242.599C134.402 242.699 134.302 242.899 134.202 243.099C134.102 243.299 134.102 243.499 134.002 243.799C134.002 244.099 134.002 244.399 134.102 244.699L135.002 247.699L133.902 247.999L132.102 242.399Z" fill="white"/>
<path d="M140.101 245.099L141.801 240.099L138.701 241.299L138.301 240.399L142.701 238.699L143.101 239.699L141.301 244.699L144.701 243.399L145.101 244.299L140.401 246.099L140.101 245.099Z" fill="white"/>
<path d="M146.399 240.9C146.499 241.1 146.699 241.3 146.899 241.5C147.099 241.6 147.299 241.7 147.499 241.8C147.699 241.9 147.999 241.9 148.199 241.8C148.499 241.8 148.699 241.7 148.899 241.6C149.199 241.4 149.499 241.2 149.599 241C149.799 240.7 149.899 240.4 149.999 240.1L151.099 240.3C150.899 241.3 150.299 242.1 149.199 242.6C148.799 242.8 148.299 242.9 147.899 242.9C147.499 242.9 147.099 242.9 146.699 242.7C146.299 242.6 145.999 242.3 145.699 242.1C145.399 241.9 145.199 241.5 144.999 241.1C144.799 240.7 144.699 240.3 144.699 239.9C144.699 239.5 144.699 239.1 144.899 238.7C145.099 238.3 145.199 238 145.499 237.7C145.799 237.4 146.099 237.1 146.499 236.9C146.999 236.7 147.399 236.6 147.799 236.6C148.199 236.6 148.599 236.7 148.899 236.9C149.199 237.1 149.499 237.3 149.799 237.6C150.099 237.9 150.299 238.2 150.399 238.6L150.599 239L146.399 240.9ZM149.199 238.5C149.099 238.3 148.899 238.1 148.799 237.9C148.599 237.7 148.499 237.6 148.299 237.5C148.099 237.4 147.899 237.4 147.699 237.4C147.499 237.4 147.199 237.5 146.999 237.6C146.699 237.7 146.499 237.9 146.399 238.1C146.199 238.3 146.099 238.5 145.999 238.7C145.899 238.9 145.899 239.1 145.899 239.4C145.899 239.6 145.999 239.8 145.999 240L149.199 238.5Z" fill="white"/>
<path d="M158.399 228.9C157.999 228.8 157.599 228.7 157.199 228.8C156.799 228.9 156.399 229 155.999 229.2C155.599 229.5 155.199 229.8 154.999 230.2C154.799 230.6 154.599 231 154.499 231.4C154.399 231.8 154.499 232.3 154.599 232.8C154.699 233.3 154.899 233.7 155.199 234.1C155.499 234.5 155.799 234.8 156.099 235.1C156.499 235.4 156.799 235.6 157.299 235.7C157.699 235.8 158.199 235.8 158.599 235.8C159.099 235.7 159.499 235.6 159.899 235.3C160.299 235 160.699 234.7 160.899 234.3C161.099 233.9 161.199 233.5 161.199 233L162.499 233.1C162.499 233.2 162.499 233.4 162.399 233.6C162.399 233.8 162.299 234.1 162.099 234.4C161.999 234.7 161.799 235 161.499 235.3C161.199 235.6 160.899 235.9 160.499 236.2C159.899 236.6 159.299 236.8 158.699 236.9C158.099 237 157.499 236.9 156.899 236.8C156.299 236.6 155.799 236.4 155.299 236C154.799 235.6 154.399 235.2 154.099 234.8C153.699 234.2 153.499 233.6 153.299 233C153.099 232.4 153.199 231.8 153.299 231.2C153.399 230.6 153.599 230.1 153.999 229.6C154.399 229.1 154.799 228.6 155.399 228.3C155.899 228 156.499 227.8 157.099 227.6C157.699 227.5 158.299 227.5 158.899 227.7L158.399 228.9Z" fill="white"/>
<path d="M162.399 231C162.099 230.7 161.899 230.3 161.799 229.9C161.699 229.5 161.699 229.1 161.699 228.7C161.699 228.3 161.899 227.9 162.099 227.5C162.299 227.1 162.599 226.8 162.899 226.5C163.299 226.2 163.599 226 163.999 225.9C164.399 225.8 164.799 225.8 165.199 225.8C165.599 225.8 165.999 226 166.399 226.2C166.799 226.4 167.099 226.7 167.399 227C167.699 227.3 167.899 227.7 167.999 228.1C168.099 228.5 168.099 228.9 168.099 229.3C167.999 229.7 167.899 230.1 167.699 230.5C167.499 230.9 167.199 231.2 166.899 231.5C166.499 231.8 166.199 232 165.799 232.1C165.399 232.2 164.999 232.2 164.599 232.2C164.199 232.2 163.799 232 163.399 231.8C162.999 231.7 162.699 231.4 162.399 231ZM163.399 230.3C163.599 230.5 163.799 230.7 163.999 230.9C164.199 231 164.499 231.1 164.699 231.2C164.899 231.2 165.199 231.2 165.499 231.2C165.799 231.1 165.999 231 166.299 230.8C166.499 230.6 166.699 230.4 166.899 230.2C167.099 230 167.099 229.7 167.099 229.5C167.099 229.3 167.099 229 166.999 228.7C166.899 228.4 166.799 228.2 166.599 227.9C166.399 227.7 166.199 227.5 165.999 227.3C165.799 227.2 165.499 227.1 165.299 227C165.099 227 164.799 227 164.499 227C164.199 227 163.999 227.2 163.699 227.4C163.399 227.6 163.299 227.8 163.099 228C162.899 228.2 162.899 228.5 162.899 228.7C162.899 228.9 162.899 229.2 162.999 229.5C162.999 229.8 163.199 230 163.399 230.3Z" fill="white"/>
<path d="M166.602 223.8L167.402 223L168.002 223.7C167.902 223.4 167.902 223 168.002 222.6C168.102 222.2 168.402 221.9 168.702 221.5C168.902 221.3 169.102 221.1 169.402 221C169.702 220.9 169.902 220.8 170.202 220.8C170.502 220.8 170.802 220.9 171.002 221C171.202 221.1 171.602 221.3 171.802 221.6L174.402 224.4L173.602 225.2L171.202 222.6C171.002 222.4 170.802 222.2 170.602 222.2C170.402 222.1 170.202 222.1 170.002 222.1C169.802 222.1 169.702 222.1 169.502 222.2C169.302 222.3 169.202 222.4 169.102 222.5C168.902 222.7 168.802 222.8 168.702 223C168.602 223.2 168.602 223.4 168.602 223.6C168.602 223.8 168.702 224.1 168.802 224.3C168.902 224.5 169.102 224.8 169.302 225.1L171.402 227.4L170.602 228.2L166.602 223.8Z" fill="white"/>
<path d="M174.6 217.3L173.5 218.5L175.5 220.4C175.6 220.5 175.7 220.6 175.9 220.7C176 220.8 176.2 220.9 176.3 220.9C176.4 221 176.6 221 176.7 220.9C176.8 220.8 177 220.8 177.1 220.6C177.2 220.5 177.3 220.4 177.4 220.3C177.5 220.2 177.5 220 177.6 219.9L178.4 220.6C178.4 220.8 178.3 220.9 178.2 221.1C178.1 221.3 178 221.4 177.9 221.5C177.6 221.8 177.3 222 177.1 222.1C176.9 222.2 176.6 222.2 176.4 222.2C176.2 222.1 176 222 175.8 221.9C175.6 221.7 175.4 221.6 175.2 221.4L172.9 219.2L172 220.2L171.3 219.5L172.2 218.5L171 217.3L171.8 216.5L173 217.7L174.1 216.5L174.6 217.3Z" fill="white"/>
<path d="M174.801 215.6L175.501 214.7L176.201 215.3C176.101 215.1 176.101 215 176.101 214.8C176.101 214.6 176.101 214.4 176.101 214.3C176.101 214.2 176.201 213.9 176.301 213.8C176.401 213.6 176.501 213.5 176.601 213.3C176.701 213.1 176.901 213 177.001 213L177.901 213.8C177.801 213.9 177.701 213.9 177.701 214C177.701 214.1 177.601 214.1 177.501 214.2C177.101 214.6 177.001 215.1 177.001 215.5C177.001 215.9 177.301 216.4 177.801 216.8L180.101 218.8L179.401 219.7L174.801 215.6Z" fill="white"/>
<path d="M175.902 210.8C175.702 210.7 175.602 210.5 175.602 210.2C175.602 210 175.602 209.8 175.802 209.6C176.002 209.4 176.102 209.3 176.402 209.3C176.702 209.3 176.802 209.3 177.002 209.5C177.202 209.7 177.302 209.8 177.302 210.1C177.302 210.4 177.302 210.5 177.102 210.7C176.902 210.9 176.802 211 176.502 211C176.202 211 176.102 211 175.902 210.8ZM177.802 211.9L178.502 211L183.302 214.7L182.602 215.6L177.802 211.9Z" fill="white"/>
<path d="M176.602 207.6L177.202 206.7L180.902 209.2C180.802 208.9 180.702 208.5 180.802 208.1C180.902 207.7 181.002 207.3 181.302 206.9C181.602 206.5 181.902 206.2 182.202 206C182.502 205.8 182.902 205.6 183.302 205.6C183.702 205.5 184.102 205.6 184.502 205.7C184.902 205.8 185.302 206 185.702 206.2C186.102 206.5 186.402 206.7 186.602 207.1C186.802 207.4 187.002 207.8 187.102 208.2C187.202 208.6 187.202 209 187.102 209.4C187.002 209.8 186.802 210.2 186.602 210.6C186.402 210.9 186.102 211.2 185.702 211.4C185.302 211.6 185.002 211.7 184.602 211.7L185.302 212.2L184.702 213.1L176.602 207.6ZM185.602 210C185.802 209.7 185.902 209.5 185.902 209.2C186.002 208.9 185.902 208.7 185.902 208.4C185.902 208.1 185.702 207.9 185.602 207.7C185.402 207.5 185.202 207.3 185.002 207.1C184.802 206.9 184.502 206.8 184.202 206.7C183.902 206.6 183.702 206.6 183.402 206.7C183.202 206.7 182.902 206.8 182.702 207C182.502 207.1 182.302 207.3 182.102 207.6C181.902 207.9 181.802 208.1 181.802 208.4C181.802 208.7 181.802 208.9 181.802 209.2C181.902 209.4 182.002 209.7 182.102 209.9C182.302 210.1 182.502 210.3 182.702 210.5C182.902 210.7 183.202 210.8 183.502 210.9C183.802 211 184.002 211 184.302 210.9C184.502 210.9 184.802 210.8 185.002 210.6C185.202 210.4 185.402 210.2 185.602 210Z" fill="white"/>
<path d="M191.701 201.599L191.101 202.599L190.301 202.099C190.501 202.399 190.601 202.699 190.601 203.099C190.601 203.499 190.501 203.899 190.301 204.299C190.201 204.599 190.001 204.799 189.801 204.999C189.601 205.199 189.401 205.299 189.101 205.399C188.801 205.499 188.601 205.499 188.201 205.499C187.901 205.499 187.601 205.299 187.201 205.099L183.801 203.199L184.401 202.199L187.501 203.999C187.701 204.099 188.001 204.199 188.201 204.299C188.401 204.299 188.601 204.299 188.801 204.299C189.001 204.199 189.101 204.199 189.301 203.999C189.501 203.799 189.501 203.699 189.601 203.599C189.701 203.399 189.801 203.199 189.801 202.999C189.801 202.799 189.801 202.599 189.701 202.399C189.601 202.199 189.501 201.999 189.301 201.799C189.101 201.599 188.901 201.399 188.601 201.199L185.901 199.699L186.501 198.699L191.701 201.599Z" fill="white"/>
<path d="M189.499 194.7L188.799 196.2L191.299 197.4C191.499 197.5 191.599 197.5 191.799 197.6C191.999 197.7 192.099 197.7 192.199 197.7C192.299 197.7 192.499 197.7 192.599 197.6C192.699 197.5 192.799 197.4 192.899 197.2C192.999 197.1 192.999 196.9 192.999 196.8C192.999 196.7 193.099 196.5 192.999 196.4L193.899 196.9C193.899 197.1 193.899 197.2 193.799 197.4C193.699 197.6 193.699 197.8 193.599 197.9C193.399 198.3 193.199 198.6 192.999 198.7C192.799 198.8 192.599 199 192.299 199C192.099 199 191.799 199 191.599 198.9C191.399 198.8 191.099 198.7 190.899 198.6L188.099 197.2L187.499 198.4L186.599 198L187.199 196.8L185.699 196.1L186.199 195.1L187.699 195.8L188.399 194.3L189.499 194.7Z" fill="white"/>
<path d="M191.901 194.4C191.501 194.2 191.101 194 190.801 193.7C190.501 193.4 190.301 193.1 190.101 192.7C189.901 192.3 189.901 191.9 189.801 191.5C189.801 191.1 189.901 190.7 190.001 190.2C190.201 189.8 190.401 189.4 190.701 189.1C191.001 188.8 191.301 188.6 191.701 188.4C192.101 188.2 192.501 188.2 192.901 188.1C193.301 188.1 193.701 188.2 194.101 188.3C194.501 188.5 194.901 188.7 195.201 189C195.501 189.3 195.701 189.6 195.901 190C196.101 190.4 196.101 190.8 196.101 191.2C196.101 191.6 196.001 192 195.901 192.5C195.801 193 195.501 193.3 195.201 193.6C194.901 193.9 194.601 194.1 194.201 194.3C193.801 194.5 193.401 194.5 193.001 194.6C192.601 194.7 192.301 194.5 191.901 194.4ZM192.301 193.2C192.601 193.3 192.901 193.4 193.101 193.4C193.401 193.4 193.601 193.4 193.901 193.3C194.101 193.2 194.301 193.1 194.501 192.9C194.701 192.7 194.801 192.5 195.001 192.2C195.201 191.9 195.201 191.6 195.201 191.4C195.201 191.1 195.101 190.9 195.001 190.7C194.901 190.5 194.701 190.3 194.501 190.1C194.301 189.9 194.001 189.8 193.801 189.7C193.501 189.6 193.201 189.5 193.001 189.5C192.701 189.5 192.501 189.5 192.201 189.6C192.001 189.7 191.801 189.8 191.601 190C191.401 190.2 191.301 190.4 191.101 190.7C191.001 191 190.901 191.3 190.901 191.5C190.901 191.8 191.001 192 191.101 192.2C191.201 192.4 191.401 192.6 191.601 192.8C191.801 193 192.101 193.1 192.301 193.2Z" fill="white"/>
<path d="M191.898 186L192.298 184.9L193.198 185.2C193.098 185.1 192.998 184.9 192.898 184.8C192.798 184.6 192.798 184.5 192.698 184.3C192.598 184.1 192.598 183.9 192.598 183.7C192.598 183.5 192.598 183.3 192.698 183.1C192.798 182.9 192.798 182.8 192.898 182.6L194.098 183C193.998 183.1 193.998 183.2 193.998 183.2C193.998 183.2 193.898 183.4 193.898 183.5C193.698 184 193.698 184.5 193.998 184.9C194.198 185.3 194.598 185.6 195.298 185.8L198.198 186.7L197.798 187.8L191.898 186Z" fill="white"/>
<defs>
<filter id="filter0_ii" x="0" y="50" width="218" height="218" filterUnits="userSpaceOnUse" color-interpolation-filters="sRGB">
<feFlood flood-opacity="0" result="BackgroundImageFix"/>
<feBlend mode="normal" in="SourceGraphic" in2="BackgroundImageFix" result="shape"/>
<feColorMatrix in="SourceAlpha" type="matrix" values="0 0 0 0 0 0 0 0 0 0 0 0 0 0 0 0 0 0 127 0" result="hardAlpha"/>
<feOffset/>
<feGaussianBlur stdDeviation="4"/>
<feComposite in2="hardAlpha" operator="arithmetic" k2="-1" k3="1"/>
<feColorMatrix type="matrix" values="0 0 0 0 0.9875 0 0 0 0 0.722843 0 0 0 0 0.386771 0 0 0 1 0"/>
<feBlend mode="normal" in2="shape" result="effect1_innerShadow"/>
<feColorMatrix in="SourceAlpha" type="matrix" values="0 0 0 0 0 0 0 0 0 0 0 0 0 0 0 0 0 0 127 0" result="hardAlpha"/>
<feOffset/>
<feGaussianBlur stdDeviation="6"/>
<feComposite in2="hardAlpha" operator="arithmetic" k2="-1" k3="1"/>
<feColorMatrix type="matrix" values="0 0 0 0 0 0 0 0 0 0 0 0 0 0 0 0 0 0 0.2 0"/>
<feBlend mode="normal" in2="effect1_innerShadow" result="effect2_innerShadow"/>
</filter>
<filter id="filter1_i" x="59" y="109" width="100" height="100" filterUnits="userSpaceOnUse" color-interpolation-filters="sRGB">
<feFlood flood-opacity="0" result="BackgroundImageFix"/>
<feBlend mode="normal" in="SourceGraphic" in2="BackgroundImageFix" result="shape"/>
<feColorMatrix in="SourceAlpha" type="matrix" values="0 0 0 0 0 0 0 0 0 0 0 0 0 0 0 0 0 0 127 0" result="hardAlpha"/>
<feOffset/>
<feGaussianBlur stdDeviation="6"/>
<feComposite in2="hardAlpha" operator="arithmetic" k2="-1" k3="1"/>
<feColorMatrix type="matrix" values="0 0 0 0 0 0 0 0 0 0 0 0 0 0 0 0 0 0 0.4 0"/>
<feBlend mode="normal" in2="shape" result="effect1_innerShadow"/>
</filter>
<linearGradient id="paint0_linear" x1="51.775" y1="57.4938" x2="218" y2="246.2" gradientUnits="userSpaceOnUse">
<stop stop-color="white"/>
<stop offset="1" stop-color="#705F5F" stop-opacity="0"/>
</linearGradient>
<linearGradient id="paint1_linear" x1="174.52" y1="213.6" x2="38.8" y2="107.52" gradientUnits="userSpaceOnUse">
<stop stop-color="#FFE4C1"/>
<stop offset="1" stop-color="#383838" stop-opacity="0"/>
</linearGradient>
<linearGradient id="paint2_linear" x1="194.68" y1="230.4" x2="17.2" y2="91.68" gradientUnits="userSpaceOnUse">
<stop stop-color="#FFE4C1"/>
<stop offset="1" stop-color="#383838" stop-opacity="0"/>
</linearGradient>
</defs>
</svg>
