<svg width="151" height="249" viewBox="0 0 151 249" fill="none" xmlns="http://www.w3.org/2000/svg">
<path fill-rule="evenodd" clip-rule="evenodd" d="M4.14841 189.895C4.35126 189.895 4.54988 189.916 4.73159 189.958C4.95557 189.646 5.15419 189.305 5.20068 189.014C5.20068 189.014 6.02897 176.053 12.9849 175.346C12.9849 175.346 14.4302 174.103 14.4302 173.306C14.4302 173.306 15.7868 169.843 22.1088 170.289C22.1088 170.289 84.5519 161.319 129.584 170.037C129.584 170.037 135.382 170.391 136.578 173.538C136.578 173.538 138.285 174.473 138.936 174.473C138.936 174.473 143.914 177.52 144.59 184.173L144.874 188.614C144.874 188.614 149.932 189.781 147.891 193.185C147.891 193.185 146.653 194.841 145.059 194.795C145.059 194.795 144.218 207.195 136.823 208.476C136.823 208.476 136.274 214.543 130.932 214.543C130.932 214.543 129.728 221.415 119.564 223.139C119.564 223.139 82.5276 229.594 44.1093 225.372C44.1093 225.372 16.0572 225.035 22.6497 213.149C22.6497 213.149 15.5163 214.012 13.1286 208.834C13.1286 208.834 6.6037 204.397 5.97403 200.576C5.97403 200.576 5.20068 195.675 4.68088 194.828C4.50762 194.862 4.33435 194.879 4.14841 194.879C2.69467 194.879 1.51562 193.762 1.51562 192.385C1.51562 191.011 2.69467 189.895 4.14841 189.895ZM15.8121 176.201V205.821C15.8121 210.444 20.1945 210.46 20.1945 210.46C20.0212 209.715 20.1902 209.293 20.4607 209.057V172.742C17.3166 172.657 16.8982 174.81 16.8982 174.81C16.5855 175.244 16.1882 175.742 15.8121 176.201ZM14.5866 206.095V177.612C8.71247 178.312 7.97715 188.706 7.97715 188.706C5.2852 201.288 14.4175 206.137 14.4175 206.137L14.5866 206.095ZM21.682 172.868V208.788C31.7525 209.87 83.5672 211.859 83.5672 211.859C95.3408 212.934 129.753 208.341 129.753 208.341V172.426C121.242 168.971 92.4291 169.312 92.4291 169.312L64.2756 169.19L36.5067 170.492C30.4467 170.374 21.682 172.868 21.682 172.868ZM136.802 205.628V177.115C136.261 175.927 132.605 172.978 132.605 172.978L131.215 172.708V210.848C134.609 210.983 136.092 205.67 136.092 205.67C136.367 205.64 136.603 205.623 136.802 205.628ZM138.264 176.551V206.015C143.124 204.439 142.198 187.594 142.198 187.594C142.604 182.744 138.915 176.854 138.915 176.854C138.678 176.685 138.463 176.593 138.264 176.551ZM22.7554 210.62L26.5841 211.303C26.5841 211.303 26.6771 213.035 24.4923 212.976C23.1864 212.133 23.2329 211.729 22.7554 210.62ZM27.9703 211.531H31.1482C31.1482 211.531 31.1482 214.16 29.8128 214.522C29.8128 214.522 28.3379 214.703 28.152 213.115L27.9703 211.531ZM32.2131 211.889L35.3953 211.842C35.3953 211.842 35.6742 214.16 33.8739 214.884C33.8739 214.884 32.3991 214.842 32.3991 213.705L32.2131 211.889ZM36.7349 212.479C36.7349 212.479 39.6847 212.98 40.2848 212.934C40.2848 212.934 40.0101 215.386 38.1633 215.34C38.1633 215.34 36.6884 214.703 36.6884 213.844L36.7772 212.934L36.7349 212.479ZM41.206 212.98C41.206 212.98 44.2529 213.296 44.5741 213.115C44.5741 213.115 44.8023 215.618 42.5921 215.706C42.5921 215.706 41.1553 214.977 41.1553 214.248L41.2525 213.524L41.206 212.98ZM46.4885 213.178H49.6707C49.6707 213.178 49.6707 216.401 48.3352 216.844C48.3352 216.844 46.8562 217.067 46.6744 215.125L46.4885 213.178ZM51.492 213.326H54.4671C54.4671 213.326 54.4671 216.536 53.2162 216.979C53.2162 216.979 51.8344 217.198 51.6653 215.259L51.492 213.326ZM55.8997 213.755L59.0861 213.709C59.0861 213.709 59.3608 216.026 57.5648 216.751C57.5648 216.751 56.0857 216.709 56.0857 215.576L55.8997 213.755ZM63.8995 214.202L60.299 214.151C60.299 214.151 59.982 216.772 62.019 217.598C62.019 217.598 63.6882 217.543 63.6882 216.258L63.8995 214.202ZM65.2138 214.282C65.2138 214.282 68.2607 214.636 68.5819 214.413C68.5819 214.413 68.8439 217.434 66.6295 217.564C66.6295 217.564 65.1927 216.7 65.1758 215.82L65.2645 214.943L65.2138 214.282ZM70.0568 214.135C70.0568 214.135 73.1037 214.488 73.4249 214.261C73.4249 214.261 73.6869 217.282 71.4767 217.413C71.4767 217.413 70.0356 216.549 70.0272 215.668L70.1117 214.788L70.0568 214.135ZM74.4138 214.337C74.4138 214.337 77.9382 214.333 78.2763 214.076C78.2763 214.076 78.9947 217.05 76.4845 217.429C76.4845 217.429 74.7223 216.738 74.5912 215.866L74.5617 214.986L74.4138 214.337ZM79.4934 214.387C79.4934 214.387 83.0221 214.383 83.3517 214.126C83.3517 214.126 84.0743 217.092 81.5641 217.48C81.5641 217.48 79.8019 216.789 79.6709 215.917L79.6455 215.036L79.4934 214.387ZM84.3997 214.164C84.3997 214.164 87.9031 214.577 88.2665 214.362C88.2665 214.362 88.613 217.391 86.0775 217.48C86.0775 217.48 84.4124 216.587 84.3913 215.71L84.4716 214.826L84.3997 214.164ZM89.23 214.231H92.408C92.408 214.231 92.408 217.459 91.0768 217.897C91.0768 217.897 89.5977 218.12 89.416 216.174L89.23 214.231ZM93.2363 214C93.2363 214 96.7354 214.413 97.103 214.193C97.103 214.193 97.4538 217.227 94.914 217.32C94.914 217.32 93.2489 216.427 93.2236 215.542L93.3039 214.661L93.2363 214ZM97.8384 214.084C97.8384 214.084 101.337 214.497 101.705 214.278C101.705 214.278 102.056 217.307 99.5161 217.4C99.5161 217.4 97.851 216.502 97.8299 215.622L97.9102 214.741L97.8384 214.084ZM102.817 214.32C102.817 214.32 105.83 214.32 106.117 214.063C106.117 214.063 106.73 217.029 104.583 217.417C104.583 217.417 103.083 216.726 102.969 215.854L102.948 214.969L102.817 214.32ZM107.998 213.692H111.18C111.18 213.692 111.18 216.915 109.84 217.358C109.84 217.358 108.361 217.577 108.179 215.634L107.998 213.692ZM121.174 212.479C121.174 212.479 117.671 212.892 117.307 212.672C117.307 212.672 116.957 215.71 119.492 215.795C119.492 215.795 121.157 214.901 121.183 214.021L121.102 213.144L121.174 212.479ZM112.393 213.161C112.393 213.161 115.406 213.161 115.693 212.904C115.693 212.904 116.306 215.87 114.163 216.258C114.163 216.258 112.659 215.571 112.545 214.695L112.524 213.814L112.393 213.161ZM126.93 211.29C126.93 211.29 123.431 211.708 123.063 211.488C123.063 211.488 122.717 214.518 125.252 214.611C125.252 214.611 126.917 213.713 126.943 212.833L126.862 211.952L126.93 211.29ZM24.0232 215.571L27.442 216.625L27.5519 220.712C27.5519 220.712 25.1219 219.406 24.3866 217.488L24.0781 216.098L24.0232 215.571ZM29.4747 216.793L31.9046 217.185L31.9553 221.879L29.6987 221.297L29.4747 217.792V216.793ZM33.7387 217.185L34.5881 222.494L37.3857 222.743L36.8744 218.293L34.3599 217.375L33.7387 217.185ZM38.214 218.276L41.0623 218.533L41.916 223.16L39.2747 222.915L38.214 218.276ZM42.9302 218.613L46.1884 218.866L47.0421 223.497L43.9867 223.729L42.9302 218.613ZM47.6971 218.811L50.2623 218.824L51.1878 224.099L49.041 223.943L47.6971 218.811ZM52.2612 219.431L54.8306 219.448L56.5674 224.634L53.6093 224.571L52.2612 219.431ZM57.6451 219.406L60.8568 219.452L63.2318 224.605L59.2256 224.677L57.6451 219.406ZM63.8868 220.033L67.7367 220.046L69.9089 224.765L65.9069 224.811L63.8868 220.033ZM69.8159 220.105L76.1041 220.113L74.6377 224.946L72.1106 224.82L69.8159 220.105ZM127.543 215.786L123.608 216.844L122.117 220.931C122.117 220.931 125.1 219.625 126.512 217.703L127.306 216.313L127.543 215.786ZM121.424 217.008L118.748 217.4L117.113 222.098L119.674 221.512L121.085 218.011L121.424 217.008ZM116.826 217.4L114.155 222.713L111.146 222.962L113.17 218.512L116.111 217.598L116.826 217.4ZM111.776 218.495L108.712 218.748L106.261 223.379L109.109 223.134L111.776 218.495ZM106.73 218.828L103.226 219.081L100.784 223.712L103.898 223.948L106.73 218.828ZM101.676 219.026L98.9794 219.039L96.2409 224.318L98.5399 224.163L101.676 219.026ZM96.6847 219.65L93.9927 219.663L90.4302 224.854L93.549 224.786L96.6847 219.65ZM91.0557 219.62L87.6791 219.667L83.4658 224.816L87.6242 224.896L91.0557 219.62ZM84.311 220.252L80.2836 220.261L76.4169 224.984L80.5921 225.03L84.311 220.252Z" fill="black"/>
<path fill-rule="evenodd" clip-rule="evenodd" d="M33.3668 197.822C33.3668 197.822 32.9019 199.773 31.706 200.498C31.706 200.498 27.5941 203.081 26.9053 205.002C26.9053 205.002 26.4108 205.386 26.4658 207.505L23.8203 207.315C23.8203 207.315 24.0147 203.46 24.5556 202.019C24.5556 202.019 25.684 198.117 27.7885 196.672C27.7885 196.672 26.2798 193.921 25.9079 192.703C25.5318 191.485 25.8234 189.712 26.601 188.637L27.8265 184.525C27.8265 184.525 26.9222 186.484 26.022 186.421C26.022 186.421 23.9598 185.979 23.8964 185.283C23.8964 185.283 24.3486 179.713 24.0908 178.896C24.0908 178.896 25.5699 174.274 26.2756 172.879L27.9533 175.158L30.92 174.021L31.0467 175.854L33.2358 175.036L32.4624 177.375L35.746 178.512L34.4613 180.855L34.6557 186.611C34.6557 186.611 42.5076 187.816 43.3528 187.816C43.3528 187.816 47.2787 187.942 47.4097 189.463C47.4097 189.463 48.762 188.7 48.5043 187.879C48.5043 187.879 46.7674 181.108 47.9211 179.271C47.9211 179.271 50.8243 174.779 54.5601 173.894C54.5601 173.894 49.4002 177.311 49.92 181.487C49.92 181.487 50.8032 187.58 51.0229 189.13C51.0229 189.13 50.051 191.351 49.2184 191.351C49.2184 191.351 50.9934 196.837 49.2353 200.78L54.5897 209.578H49.3199C49.3199 209.578 47.0547 205.63 45.639 204.973C45.639 204.973 43.1288 201.69 42.6259 199.714C42.6259 199.714 36.2658 200.207 34.343 199.39L33.5612 198.29L33.3668 197.822ZM28.8239 184.474L27.3913 191.275L29.5761 197.19L25.5868 202.588C25.5868 202.588 25.2825 203.772 26.6348 202.959C26.6348 202.959 31.6806 198.374 31.9849 197.637C31.9849 197.637 32.9611 195.345 32.8132 194.679L33.7133 194.528C33.7133 194.528 34.3895 197.637 35.222 197.928L44.0289 198.817C44.0289 198.817 44.7643 200.506 45.0559 201.374L50.8497 208.129H52.3245L48.0014 202.053C48.0014 202.053 47.5069 201.374 47.807 200.317C47.807 200.317 49.6706 192.501 46.8265 191.056C46.8265 191.056 46.0405 189.126 40.0481 188.641L33.0752 187.58C33.0752 187.58 32.978 181.795 32.0906 180.539C32.0906 180.539 30.7171 177.164 30.1297 177.164L26.2038 176.102C26.2038 176.102 26.5926 178.609 26.2038 179.38L25.2191 183.627C25.2191 183.627 25.8107 184.302 26.6898 183.817C26.6898 183.817 28.6548 181.698 28.6548 180.834L29.7367 180.927L28.8239 184.474Z" fill="black"/>
<path fill-rule="evenodd" clip-rule="evenodd" d="M109.39 209.068L106.098 208.975L106.284 205.929L103.563 208.512L100.926 208.331C100.926 208.331 104.97 196.049 104.687 194.662C104.687 194.662 103.085 191.153 103.749 186.535C103.749 186.535 101.957 188.936 100.271 186.632C100.271 186.632 99.1423 185.241 101.306 181.087C101.306 181.087 105.16 174.531 105.815 173.33L107.51 170.469L108.537 172.5L110.895 171.299C110.895 171.299 112.678 174.438 112.209 176.102C112.209 176.102 114.559 174.72 115.594 175.087C115.594 175.087 112.209 177.303 112.209 178.137C112.209 178.137 111.74 178.411 111.081 178.411L111.174 179.519C111.174 179.519 113.992 178.411 114.842 180.442C114.842 180.442 116.063 183.396 115.404 184.226C115.404 184.226 122.081 181.917 125.462 185.612C125.462 185.612 129.409 188.751 128.661 196.786L128.471 203.987L127.532 203.62L127.342 195.219L126.21 197.157L126.311 206.388L124.807 207.497L123.585 201.404L121.231 207.682L118.603 208.145C118.603 208.145 117.661 201.686 118.603 200.388L119.258 199.466L113.523 199.554L110.235 206.574L109.39 209.068ZM110.793 174.071L110.421 176.839H109.014C109.014 176.839 107.691 180.535 109.766 181.462C109.766 181.462 112.209 182.195 112.492 181.087L113.337 183.581L111.647 185.334C111.647 185.334 110.793 187.276 112.302 187.276C112.302 187.276 119.448 183.766 122.926 186.261C122.926 186.261 128.471 188.844 126.117 194.477C126.117 194.477 121.984 200.848 121.329 204.45L120.855 206.574L119.824 206.671L119.731 200.662L122.267 198.265L111.74 197.987L108.638 207.223L107.51 207.13L108.638 195.307C108.638 195.307 105.063 204.172 105.249 205.836L103.842 206.115C103.842 206.115 105.439 198.176 106.098 196.971C106.098 196.971 106.381 192.446 105.722 191.713C105.722 191.713 104.784 184.971 106.284 183.118C106.284 183.118 103.187 185.612 102.337 185.705C102.337 185.705 100.461 185.983 101.585 182.941C101.585 182.941 106.665 174.72 107.793 174.438L108.638 175.453L110.793 174.071Z" fill="black"/>
<path fill-rule="evenodd" clip-rule="evenodd" d="M75.7905 166.289C88.9714 166.289 99.6589 176.776 99.6589 189.712C99.6589 202.643 88.9714 213.134 75.7905 213.134C62.6055 213.134 51.918 202.643 51.918 189.712C51.918 176.776 62.6055 166.289 75.7905 166.289ZM75.7905 169.129C87.3739 169.129 96.7683 178.348 96.7683 189.712C96.7683 201.075 87.3739 210.294 75.7905 210.294C64.2071 210.294 54.8085 201.075 54.8085 189.712C54.8085 178.348 64.2071 169.129 75.7905 169.129Z" fill="black"/>
<path fill-rule="evenodd" clip-rule="evenodd" d="M75.3849 186.738C77.2824 186.738 78.8207 188.251 78.8207 190.109C78.8207 191.976 77.2824 193.48 75.3849 193.48C73.4875 193.48 71.9492 191.976 71.9492 190.109C71.9492 188.251 73.4875 186.738 75.3849 186.738ZM75.3849 188.323C76.3907 188.323 77.2063 189.123 77.2063 190.109C77.2063 191.095 76.3907 191.896 75.3849 191.896C74.3834 191.896 73.5678 191.095 73.5678 190.109C73.5678 189.123 74.3834 188.323 75.3849 188.323Z" fill="black"/>
<path fill-rule="evenodd" clip-rule="evenodd" d="M75.6509 170.375L74.6916 177.028C74.6916 177.028 73.6563 180.015 74.7846 181.035L75.6509 184.107C75.6509 184.107 76.9525 180.525 76.9525 179.847C76.9525 179.847 76.9525 178.052 76.606 176.607L76.0862 172.338L75.6509 170.375Z" fill="black"/>
<path fill-rule="evenodd" clip-rule="evenodd" d="M91.4492 177.164L85.9512 180.771C83.5213 181.917 82.7564 184.626 81.4844 186.796C86.1076 184.664 88.77 181.192 91.4492 177.164Z" fill="black"/>
<path fill-rule="evenodd" clip-rule="evenodd" d="M93.7001 182.645C88.967 183.854 87.0104 183.365 82.4844 187.633C88.1894 187.237 91.4519 184.204 93.7001 182.645Z" fill="black"/>
<path fill-rule="evenodd" clip-rule="evenodd" d="M85.5835 174.551C82.6423 178.385 80.1658 180.167 79.3164 186.277C83.5339 182.485 84.806 177.146 85.5835 174.551Z" fill="black"/>
<path fill-rule="evenodd" clip-rule="evenodd" d="M80.8726 172.117C78.8441 176.487 76.8157 178.749 77.3312 184.892C80.619 180.295 80.6824 174.814 80.8726 172.117Z" fill="black"/>
<path fill-rule="evenodd" clip-rule="evenodd" d="M94.0758 187.464C89.1863 187.409 87.4326 186.432 81.9219 189.381C87.5297 190.477 91.4895 188.387 94.0758 187.464Z" fill="black"/>
<path fill-rule="evenodd" clip-rule="evenodd" d="M93.8546 191.524C89.113 190.345 87.6382 188.992 81.5781 190.589C86.7676 192.944 91.1204 191.828 93.8546 191.524Z" fill="black"/>
<path fill-rule="evenodd" clip-rule="evenodd" d="M92.8624 195.218C88.5055 193.04 87.3729 191.401 81.1016 191.645C85.636 195.067 90.1282 194.919 92.8624 195.218Z" fill="black"/>
<path fill-rule="evenodd" clip-rule="evenodd" d="M91.5033 198.947C87.6323 196.019 86.8252 194.199 80.6172 193.297C84.4248 197.485 88.8705 198.155 91.5033 198.947Z" fill="black"/>
<path fill-rule="evenodd" clip-rule="evenodd" d="M89.2475 201.99C86.0737 198.333 85.668 196.394 79.7812 194.254C82.6338 199.125 86.8386 200.679 89.2475 201.99Z" fill="black"/>
<path fill-rule="evenodd" clip-rule="evenodd" d="M84.9188 206.24C83.2749 201.719 83.5961 199.76 78.8672 195.711C79.7715 201.256 83.1439 204.18 84.9188 206.24Z" fill="black"/>
<path fill-rule="evenodd" clip-rule="evenodd" d="M79.8858 207.599C79.5562 202.812 80.4056 201.018 76.9825 195.848C76.3106 201.426 78.7448 205.138 79.8858 207.599Z" fill="black"/>
<path fill-rule="evenodd" clip-rule="evenodd" d="M74.5741 208.119C75.5884 203.421 76.9153 201.926 75.0559 196.035C72.8626 201.222 74.1642 205.448 74.5741 208.119Z" fill="black"/>
<path fill-rule="evenodd" clip-rule="evenodd" d="M70.4108 208.067C72.0716 203.551 73.593 202.244 72.5745 196.16C69.6755 201.006 70.377 205.362 70.4108 208.067Z" fill="black"/>
<path fill-rule="evenodd" clip-rule="evenodd" d="M65.582 205.777C68.8022 202.153 70.6955 201.475 71.9844 195.441C67.5048 198.926 66.5498 203.24 65.582 205.777Z" fill="black"/>
<path fill-rule="evenodd" clip-rule="evenodd" d="M62.0078 203.361C66.0056 200.601 68.0129 200.382 70.7302 194.824C65.5281 197.158 63.5545 201.128 62.0078 203.361Z" fill="black"/>
<path fill-rule="evenodd" clip-rule="evenodd" d="M59.3672 199.971C63.7749 197.898 65.7907 198.008 69.4039 192.969C63.8763 194.427 61.2689 198.021 59.3672 199.971Z" fill="black"/>
<path fill-rule="evenodd" clip-rule="evenodd" d="M57.1406 193.852C62.0259 193.911 63.7839 194.884 69.2945 191.939C63.6867 190.844 59.7269 192.929 57.1406 193.852Z" fill="black"/>
<path fill-rule="evenodd" clip-rule="evenodd" d="M56.8672 190.006C61.6595 190.959 63.1935 192.244 69.1732 190.36C63.8696 188.254 59.5845 189.572 56.8672 190.006Z" fill="black"/>
<path fill-rule="evenodd" clip-rule="evenodd" d="M59.6133 181.73C63.6575 184.431 64.5746 186.192 70.8248 186.723C66.7636 182.767 62.2883 182.362 59.6133 181.73Z" fill="black"/>
<path fill-rule="evenodd" clip-rule="evenodd" d="M62.1133 178.156C65.287 181.809 65.6927 183.756 71.5752 185.892C68.7269 181.021 64.5221 179.467 62.1133 178.156Z" fill="black"/>
<path fill-rule="evenodd" clip-rule="evenodd" d="M70.9535 173.289C71.0719 178.092 70.1421 179.849 73.337 185.154C74.2498 179.609 71.9847 175.8 70.9535 173.289Z" fill="black"/>
<path fill-rule="evenodd" clip-rule="evenodd" d="M66.5391 174.477C67.997 179.061 67.5956 181.003 72.1512 185.242C71.475 179.663 68.2295 176.613 66.5391 174.477Z" fill="black"/>
<path fill-rule="evenodd" clip-rule="evenodd" d="M57.6328 186.078C62.2349 187.708 63.5661 189.191 69.7571 188.18C64.8212 185.34 60.3839 186.044 57.6328 186.078Z" fill="black"/>
<path fill-rule="evenodd" clip-rule="evenodd" d="M22.1088 170.291C22.1088 170.291 20.4607 159.282 25.4558 156.13C25.4558 156.13 32.3483 151.225 33.2992 146.557C33.2992 146.557 35.9151 131.494 35.4375 129.859C35.4375 129.859 29.4958 117.016 29.6099 112.929C29.6099 112.929 27.5941 113.747 26.7616 113.869C26.7616 113.869 23.7907 104.637 23.7907 102.543C23.7907 102.543 22.3581 103.71 21.7665 103.71L21.4073 98.9197C21.4073 98.9197 15.6515 91.858 17.1559 85.7569C17.1559 85.7569 17.6293 80.7008 20.5959 72.5225L23.6978 58.8035C23.6978 58.8035 19.7465 60.0507 19.7465 62.1279C19.7465 62.1279 19.1844 65.8736 15.0937 65.0394C15.0937 65.0394 12.8328 63.2402 13.1117 60.8807C13.1117 60.8807 7.75314 57.6954 12.4102 54.7839C12.4102 54.7839 17.9124 53.8148 17.9124 52.1505C17.9124 52.1505 17.6293 47.0227 13.5385 48.4089C13.5385 48.4089 10.1789 49.1505 10.7198 52.4328C10.7198 52.4328 8.74202 54.9229 6.76849 53.1195C6.76849 53.1195 5.26404 49.9679 4.35968 49.5255C4.35968 49.5255 0.175962 47.9791 0.0703125 46.0915C0.0703125 46.0915 6.16418 35.7728 6.16418 32.5537C6.16418 32.5537 7.52071 26.7897 8.76315 26.4569C8.76315 26.4569 14.9838 22.4372 15.6304 22.117C15.6304 22.117 17.8913 20.6128 17.8913 19.8123C17.8913 19.8123 20.2325 17.6676 21.682 18.0679C21.682 18.0679 25.722 12.266 32.1793 15.7631C32.1793 15.7631 33.7936 16.2393 34.1951 16.7954C34.1951 16.7954 36.942 14.891 39.1184 16.3193C39.1184 16.3193 47.1055 21.721 47.676 22.6774C47.676 22.6774 47.2069 15.6241 51.0737 14.457C51.0737 14.457 46.4547 0.839121 56.7703 4.11718C56.7703 4.11718 58.9213 -2.01338 64.1869 2.95006C64.1869 2.95006 67.6268 -1.37715 71.6035 2.63405C71.6035 2.63405 75.0434 -1.27182 77.8368 3.26607C77.8368 3.26607 81.0612 -1.48249 83.4277 3.3714C83.4277 3.3714 86.9733 -1.90383 89.8766 4.00763C89.8766 4.00763 94.4998 -2.03866 96.8495 6.38823C96.8495 6.38823 96.4607 9.90224 95.7718 10.0034C95.7718 10.0034 101.599 11.7899 98.1257 19.2645L100.272 23.6423C100.272 23.6423 106.726 20.5033 109.549 20.5665C109.549 20.5665 117.476 9.24073 125.937 15.148C125.937 15.148 129.694 18.8432 129.694 20.971C129.694 20.971 131.198 23.0903 132.8 23.183C132.8 23.183 139.008 23.8193 141.4 29.0397L144.193 34.0032C144.193 34.0032 146.053 36.8725 147.113 37.0031C147.113 37.0031 152.003 39.6702 150.498 44.4441C150.498 44.4441 148.047 48.2277 145.744 48.2277C145.744 48.2277 144.89 48.8176 144.89 49.6308C144.89 49.6308 143.61 52.9468 139.984 52.6097C139.984 52.6097 136.65 51.9356 135.669 49.7235C135.669 49.7235 133.565 44.9539 131.997 44.7643C131.997 44.7643 129.837 45.2446 129.592 46.9763C129.592 46.9763 128.35 51.3625 128.506 52.0873C128.506 52.0873 129.136 54.1055 131.346 53.8443C131.346 53.8443 136.029 52.5255 137.381 54.7417C137.381 54.7417 140.246 62.4102 132.851 63.1518C132.851 63.1518 127.716 60.7922 126.343 59.7136C126.343 59.7136 128.223 68.7725 129.478 69.2655C129.478 69.2655 132.17 75.9227 132.17 76.8834C132.17 76.8834 130.484 85.049 129.981 85.7864C129.981 85.7864 130.636 89.5743 132.234 89.7597C132.234 89.7597 126.161 94.2259 126.33 99.4253C126.33 99.4253 126.499 101.861 128.532 102.139L123.342 108.063C123.342 108.063 119.027 113.591 119.302 115.807C119.302 115.807 119.674 120.75 119.674 121.462C119.674 121.462 120.545 130.091 117.802 137.38C117.802 137.38 115.541 147.842 121.026 153.235C121.026 153.235 128.637 161.932 128.996 166.685L129.584 170.038C129.605 170.148 102.166 168.117 74.6419 167.89C52.557 167.708 30.4593 169.154 22.1088 170.291Z" fill="black"/>
<path fill-rule="evenodd" clip-rule="evenodd" d="M22.9336 165.774L26.6778 165.719C26.6778 165.719 27.0032 168.441 24.886 169.296C24.886 169.296 23.1533 169.241 23.1533 167.91L22.9336 165.774Z" fill="white"/>
<path fill-rule="evenodd" clip-rule="evenodd" d="M28.457 165.328L32.2012 165.277C32.2012 165.277 32.5266 167.995 30.4137 168.85C30.4137 168.85 28.6768 168.796 28.6768 167.46L28.457 165.328Z" fill="white"/>
<path fill-rule="evenodd" clip-rule="evenodd" d="M33.8477 164.652L37.5876 164.602C37.5876 164.602 37.913 167.319 35.8001 168.175C35.8001 168.175 34.0674 168.12 34.0674 166.784L33.8477 164.652Z" fill="white"/>
<path fill-rule="evenodd" clip-rule="evenodd" d="M39.0469 164.41L42.7826 164.359C42.7826 164.359 43.1123 167.081 40.9993 167.937C40.9993 167.937 39.2582 167.882 39.2582 166.546L39.0469 164.41Z" fill="white"/>
<path fill-rule="evenodd" clip-rule="evenodd" d="M44.1445 163.759L48.3832 163.688C48.3832 163.688 48.7508 167.172 46.3547 168.263C46.3547 168.263 44.3896 168.196 44.3896 166.494L44.1445 163.759Z" fill="white"/>
<path fill-rule="evenodd" clip-rule="evenodd" d="M50.0664 163.399L54.3093 163.332C54.3093 163.332 54.6727 166.812 52.2808 167.904C52.2808 167.904 50.3115 167.84 50.3115 166.13L50.0664 163.399Z" fill="white"/>
<path fill-rule="evenodd" clip-rule="evenodd" d="M55.9297 163.083L60.1683 163.016C60.1683 163.016 60.536 166.5 58.1399 167.587C58.1399 167.587 56.1706 167.52 56.1706 165.818L55.9297 163.083Z" fill="white"/>
<path fill-rule="evenodd" clip-rule="evenodd" d="M61.7852 162.923L66.028 162.852C66.028 162.852 66.3915 166.555 63.9996 167.718C63.9996 167.718 62.0303 167.646 62.0303 165.826L61.7852 162.923Z" fill="white"/>
<path fill-rule="evenodd" clip-rule="evenodd" d="M67.5078 162.869L71.7465 162.793C71.7465 162.793 72.1141 166.501 69.718 167.664C69.718 167.664 67.7529 167.592 67.7529 165.772L67.5078 162.869Z" fill="white"/>
<path fill-rule="evenodd" clip-rule="evenodd" d="M73.8086 162.9L78.0472 162.824C78.0472 162.824 78.4149 166.532 76.0188 167.695C76.0188 167.695 74.0537 167.623 74.0537 165.803L73.8086 162.9Z" fill="white"/>
<path fill-rule="evenodd" clip-rule="evenodd" d="M79.6445 162.869L83.8832 162.797C83.8832 162.797 84.2508 166.5 81.8547 167.663C81.8547 167.663 79.8896 167.592 79.8896 165.776L79.6445 162.869Z" fill="white"/>
<path fill-rule="evenodd" clip-rule="evenodd" d="M84.9648 162.869L89.2077 162.797C89.2077 162.797 89.5796 166.5 87.1835 167.663C87.1835 167.663 85.2142 167.592 85.2142 165.776L84.9648 162.869Z" fill="white"/>
<path fill-rule="evenodd" clip-rule="evenodd" d="M90.2383 162.814L94.4854 162.742C94.4854 162.742 94.8531 166.446 92.4569 167.609C92.4569 167.609 90.4918 167.537 90.4918 165.721L90.2383 162.814Z" fill="white"/>
<path fill-rule="evenodd" clip-rule="evenodd" d="M95.6797 163.091L99.9183 163.016C99.9183 163.016 100.286 166.723 97.8899 167.891C97.8899 167.891 95.9206 167.815 95.9206 165.995L95.6797 163.091Z" fill="white"/>
<path fill-rule="evenodd" clip-rule="evenodd" d="M101.004 163.407L105.027 163.34C105.027 163.34 105.378 166.858 103.104 167.962C103.104 167.962 101.236 167.89 101.236 166.167L101.004 163.407Z" fill="white"/>
<path fill-rule="evenodd" clip-rule="evenodd" d="M106.109 163.662L110.31 163.586C110.31 163.586 110.673 167.256 108.303 168.406C108.303 168.406 106.354 168.335 106.354 166.54L106.109 163.662Z" fill="white"/>
<path fill-rule="evenodd" clip-rule="evenodd" d="M111.391 164.418L114.919 164.359C114.919 164.359 115.228 167.444 113.229 168.408C113.229 168.408 111.598 168.349 111.598 166.837L111.391 164.418Z" fill="white"/>
<path fill-rule="evenodd" clip-rule="evenodd" d="M116.246 165.129L119.103 165.078C119.103 165.078 119.352 167.577 117.734 168.352C117.734 168.352 116.415 168.306 116.415 167.084L116.246 165.129Z" fill="white"/>
<path fill-rule="evenodd" clip-rule="evenodd" d="M120.305 165.707L123.161 165.656C123.161 165.656 123.407 168.151 121.792 168.934C121.792 168.934 120.474 168.884 120.474 167.662L120.305 165.707Z" fill="white"/>
<path fill-rule="evenodd" clip-rule="evenodd" d="M123.984 166.152L126.837 166.102C126.837 166.102 127.086 168.596 125.472 169.38C125.472 169.38 124.149 169.329 124.149 168.111L123.984 166.152Z" fill="white"/>
<path fill-rule="evenodd" clip-rule="evenodd" d="M13.9729 59.6562L17.079 62.9806C17.079 62.9806 20.3668 59.0115 21.2162 58.2742C21.2162 58.2742 25.9155 52.27 24.9731 51.1619C24.9731 51.1619 23.4729 48.4863 24.3181 45.3431C24.3181 45.3431 24.597 35.1887 23.4729 34.3544C23.4729 34.3544 19.6188 33.6171 19.5174 32.3235C19.5174 32.3235 19.6188 30.2 20.6499 29.8334C20.6499 29.8334 18.1144 28.1691 15.9507 26.9683L14.6364 25.582C14.6364 25.582 8.90172 28.1691 8.52561 30.7561L6.64504 37.405L2.50781 45.6212L6.73802 49.5018L8.52561 51.3515C8.52561 51.3515 10.6893 46.7672 14.2476 46.3543C14.2476 46.3543 18.6172 45.6001 19.2427 48.3683C19.2427 48.3683 21.567 54.3177 16.1366 56.3318L12.4727 57.4399L13.9729 59.6562Z" fill="white"/>
<path fill-rule="evenodd" clip-rule="evenodd" d="M16.6035 33.1706C16.6035 33.1706 10.5476 30.297 9.91798 34.6537C9.91798 34.6537 9.8884 38.113 13.2776 36.693C14.9511 35.7956 15.9358 34.561 16.6035 33.1706ZM12.3014 33.7563C12.9776 33.7563 13.527 34.2956 13.527 34.9613C13.527 35.627 12.9776 36.1664 12.3014 36.1664C11.6253 36.1664 11.0801 35.627 11.0801 34.9613C11.0801 34.2956 11.6253 33.7563 12.3014 33.7563Z" fill="black" stroke="#C5A516" stroke-width="0.2"/>
<path fill-rule="evenodd" clip-rule="evenodd" d="M4.19141 44.4909C4.19141 44.4909 9.54572 39.1061 9.94296 38.7227C9.94296 38.7227 9.86267 42.1903 5.85644 43.9853L4.86756 44.533L4.19141 44.4909Z" fill="black"/>
<path fill-rule="evenodd" clip-rule="evenodd" d="M6.53125 45.8589L13.4703 38.793C13.4703 38.793 12.0757 42.9685 8.83018 44.8814L7.56239 45.703L6.53125 45.8589Z" fill="black"/>
<path fill-rule="evenodd" clip-rule="evenodd" d="M8.53516 47.4217C8.53516 47.4217 15.4953 39.9934 15.994 39.8164C15.994 39.8164 13.4162 44.3964 11.9709 45.2897L9.75646 47.2026L8.98734 47.6029L8.53516 47.4217Z" fill="black"/>
<path fill-rule="evenodd" clip-rule="evenodd" d="M128.141 55.0466C128.141 55.0466 133.961 56.0115 135.672 55.3753C135.672 55.3753 137.625 60.5451 133.58 61.0465C133.58 61.0465 127.639 59.4033 124.794 55.9525C124.794 55.9525 121.363 53.9806 123.539 49.4638L125.213 44.69L123.286 43.624C123.286 43.624 127.22 36.9625 127.305 35.8122C127.305 35.8122 127.22 32.6142 126.299 32.0328C126.299 32.0328 130.398 28.662 131.987 25.0469C131.987 25.0469 137.929 26.0328 138.347 27.7603C138.347 27.7603 140.693 33.676 143.283 35.9808C143.283 35.9808 145.793 38.69 146.884 39.3515C146.884 39.3515 150.48 41.8964 147.801 44.6141C147.801 44.6141 143.283 47.4877 143.114 48.718C143.114 48.718 141.031 52.3669 137.177 49.0467C137.177 49.0467 135.254 45.3473 134.666 44.4456C134.666 44.4456 131.484 40.0889 127.723 46.0045C127.723 46.0045 125.881 52.666 126.802 53.159L127.381 54.1449L128.141 55.0466Z" fill="white"/>
<path fill-rule="evenodd" clip-rule="evenodd" d="M23.4193 83.4706C23.4193 83.4706 20.3597 80.4664 20.3597 78.7684C20.3597 78.7684 17.3043 89.736 20.626 93.2584L24.7421 98.087C24.7421 98.087 25.4098 96.6545 25.676 95.3441C25.676 95.3441 24.2138 87.1279 25.4098 88.434C26.6057 89.736 29.3906 92.8666 29.3906 92.8666C29.3906 92.8666 28.3341 79.8133 27.6707 79.0296L32.053 83.34C32.053 83.34 30.5908 73.1561 29.9273 72.5072L34.7112 76.5521C34.7112 76.5521 32.9827 66.5031 32.315 65.5887L35.7761 68.5887C35.7761 68.5887 35.2436 58.9315 33.3842 57.2335C33.3842 57.2335 37.2298 58.7335 37.8553 59.534C37.8553 59.534 36.6636 54.4273 33.2194 51.7181C33.2194 51.7181 37.2298 52.763 38.1046 53.69C38.1046 53.69 37.0988 47.1591 33.2785 44.8207C33.2785 44.8207 37.3524 44.7027 37.9821 45.5622C37.9821 45.5622 34.4069 39.0398 32.3404 37.9865C32.3404 37.9865 36.4142 38.5469 37.7243 39.8952C37.7243 39.8952 37.2763 33.9921 27.1086 27.554C27.1086 27.554 25.8155 25.8686 28.6131 27.0231L34.1998 28.186L29.6865 24.1748L32.9067 24.9121C32.9067 24.9121 36.3508 20.5849 39.5753 23.8588L40.6487 25.8686L44.7352 31.9865L39.6809 29.9809C39.6809 29.9809 43.8731 36.5286 43.5519 37.582L39.4654 35.5806L44.8408 47.5088L39.4654 44.0285L45.162 55.9526L39.4654 52.1521L42.4278 62.7067L39.364 60.6422L40.3317 67.9398L38.392 66.6674C38.392 66.6674 39.0977 73.826 40.4035 74.6814L36.148 72.5494L36.0592 74.2516L37.9694 81.5872L34.3224 78.6041C34.3224 78.6041 35.2014 86.4242 36.148 87.8273C36.148 87.8273 32.8221 86.7782 31.6346 85.7248C31.6346 85.7248 34.3688 91.8006 35.438 92.3862C35.438 92.3862 35.5394 94.5899 30.4725 91.5098C30.4725 91.5098 30.1851 99.3089 31.0599 100.025C31.0599 100.025 28.0721 97.375 27.3453 96.0182C27.3453 96.0182 24.3195 103.337 29.1117 107.121L30.8063 111.553H36.8199L44.9972 103.522C44.9972 103.522 40.2049 98.3483 43.7759 92.0745C43.7759 92.0745 41.6164 88.1939 43.8731 84.2206L43.0237 78.4018C43.0237 78.4018 41.4854 76.1645 45.872 68.9806C45.872 68.9806 46.0452 64.6112 45.2338 63.1913C45.2338 63.1913 44.6887 58.666 46.3157 56.2728C46.3157 56.2728 50.7826 48.5538 49.6542 46.8263C49.6542 46.8263 43.9534 33.5666 46.5481 24.7225C46.5481 24.7225 36.7185 14.783 33.2025 19.481C33.2025 19.481 26.8804 12.7985 24.1885 22.3841L21.767 20.6355C21.767 20.6355 19.13 20.37 18.3228 23.4964C18.3228 23.4964 17.1902 26.3026 20.6344 26.6228C20.6344 26.6228 24.1335 26.568 24.0279 28.7927C24.0279 28.7927 21.9276 31.759 23.8123 31.9191C23.8123 31.9191 25.5873 31.3334 25.9591 30.9626C25.9591 30.9626 27.3579 30.1157 27.7932 32.2351C27.7932 32.2351 29.7963 36.0314 29.6865 36.4865C29.6865 36.4865 26.6733 35.1171 26.3226 34.8348C26.3226 34.8348 28.3553 40.1648 29.9062 41.3404C29.9062 41.3404 28.4821 41.4836 26.3817 40.2322C26.3817 40.2322 28.0721 46.2743 30.6458 48.9962C30.6458 48.9962 26.8677 47.7364 26.3184 47.5594C26.3184 47.5594 29.3484 55.3669 30.9289 56.4793L26.3395 54.8571C26.3395 54.8571 26.4916 64.7376 29.9527 67.1983C29.9527 67.1983 25.9084 66.0312 24.9238 64.4848C24.9238 64.4848 24.3068 72.1828 27.0833 76.6827L22.4305 74.1884L22.5699 79.7333L23.4193 83.4706Z" fill="white"/>
<path fill-rule="evenodd" clip-rule="evenodd" d="M32.34 109.263C32.34 109.263 34.4403 105.134 31.0469 102.353C31.0469 102.353 34.7615 103.385 35.649 104.578C35.649 104.578 35.3278 97.1914 33.3078 95.5987C33.3078 95.5987 36.6167 95.5987 37.7493 97.1914C37.7493 97.1914 35.7293 90.9134 35.0827 90.2772L37.669 89.9612L36.8618 83.8474L39.0382 84.8797C39.0382 84.8797 40.9779 79.2337 41.4597 79.082C41.4597 79.082 41.7809 85.7477 41.2949 85.912L41.1385 88.8488L39.6045 87.5763C39.6045 87.5763 41.7006 94.4106 41.6245 95.3628L39.5242 93.9302C39.5242 93.9302 41.4597 101.641 42.3514 102.273C42.3514 102.273 40.1708 102.433 38.3113 101.16C38.3113 101.16 36.9421 108.867 37.3436 109.343C37.7493 109.823 37.3436 109.343 37.3436 109.343C37.3436 109.343 35.9913 108.387 34.6094 108.509L33.35 108.926L32.34 109.263Z" fill="black"/>
<path fill-rule="evenodd" clip-rule="evenodd" d="M116.19 111.491L117.881 111.617C117.881 111.617 116 114.137 116.19 114.752C116.19 114.752 114.804 115.553 111.99 114.074C111.99 114.074 108.605 110.876 108.482 110.261C108.482 110.261 106.162 107.674 105.283 107.181C105.283 107.181 106.665 102.255 107.041 101.825C107.041 101.825 107.54 97.8225 107.54 97.0219C107.54 97.0219 109.653 85.3044 107.502 82.9785C107.502 82.9785 106.754 55.351 98.6484 48.3988C98.6484 48.3988 101.725 39.934 101.725 32.0717C101.725 32.0717 102.955 28.6462 105.009 28.6462C105.009 28.6462 101.725 33.4832 102.65 37.5155C102.65 37.5155 105.93 34.4944 107.265 34.5913C107.265 34.5913 101.522 41.8469 102.853 44.3665C102.853 44.3665 106.754 39.3273 108.495 40.0351C108.495 40.0351 103.06 47.6909 103.986 50.0083C103.986 50.0083 106.957 47.396 108.292 47.396C108.292 47.396 105.009 54.6473 106.445 56.9689L109.628 55.1487C109.628 55.1487 107.586 61.6712 108.892 64.2371C108.892 64.2371 110.557 62.0209 111.39 62.0209C111.39 62.0209 109.48 71.8298 112.303 73.4941C112.303 73.4941 114.703 69.8874 115.121 68.0882C115.121 68.0882 114.42 77.6527 116.537 78.8999C116.537 78.8999 118.794 75.4323 118.794 74.1851C118.794 74.1851 120.349 83.6864 121.858 84.428C121.858 84.428 122.762 78.0657 123.966 77.4758C123.966 77.4758 123.814 85.7552 125.771 85.7552C125.771 85.7552 130.893 80.1345 125.171 70.3761L123.666 73.9238L122.61 69.4871L120.349 72.0025L119.301 65.9394C119.301 65.9394 117.644 65.202 116.588 65.7919L117.192 62.0925C117.192 62.0925 117.792 59.8762 113.722 59.8762L114.931 53.8131H111.318L113.427 49.0814C113.427 49.0814 114.331 47.3075 111.318 46.1235C111.318 46.1235 113.579 42.2767 113.579 40.5028L113.127 35.7711L110.114 38.434C110.114 38.434 111.47 32.8133 111.47 32.0717L109.213 32.5183C109.213 32.5183 111.018 29.4172 111.17 28.3765L110.794 27.2684L108.837 27.0451C108.837 27.0451 115.616 14.0761 122.141 16.2544C122.141 16.2544 133.834 23.5058 124.089 30.6644C124.089 30.6644 125.733 35.3034 125.217 36.2051L120.091 43.764L122.918 45.9129C122.918 45.9129 117.932 52.6628 121.279 57.2639C121.279 57.2639 124.106 62.3706 124.702 65.1725C124.702 65.1725 127.077 71.3621 127.909 72.4112C127.909 72.4112 130.445 81.0572 127.558 87.9841L125.035 95.1259C125.035 95.1259 124.511 88.7088 123.882 87.9841C123.882 87.9841 122.935 92.4841 122.775 92.7959C122.775 92.7959 121.726 86.5431 120.936 85.869C120.936 85.869 118.202 87.5206 117.995 88.3465C117.995 88.3465 117.889 82.2454 117.31 81.6218C117.31 81.6218 114.842 84.4406 114.91 84.9041C114.91 84.9041 114.737 77.4463 113.794 76.966C113.794 76.966 112.818 80.4463 112.552 81.2637C112.552 81.2637 109.289 75.4702 108.82 74.8845C108.82 74.8845 109.797 79.4392 109.797 80.1892C109.797 80.1892 110.625 92.9728 114.187 95.484C114.187 95.484 115.138 90.7566 115.552 90.5838C115.552 90.5838 116.44 100.009 118.789 101.577L118.227 94.654C118.227 94.654 120.763 100.384 121.608 101.025L121.891 96.8703L125.183 101.396L121.515 106.565L120.484 106.009L119.449 107.488L116.816 101.396L115.781 104.535L113.245 97.7003L112.024 102.044L111.081 95.484C111.081 95.484 107.502 102.617 108.791 106.102C108.791 106.102 109.906 111.276 110.866 111.482C110.866 111.482 112.303 107.711 113.127 107.235L113.879 111.546C113.879 111.546 115.455 108.386 115.933 108.251V110.004L116.19 111.491Z" fill="white"/>
<path fill-rule="evenodd" clip-rule="evenodd" d="M118.267 19.2109L119.103 23.0747C119.103 23.0747 119.357 24.305 117.18 26.0325C117.18 26.0325 120.692 28.1687 120.194 31.7038C120.194 31.7038 123.541 33.9243 122.116 37.6237C122.116 37.6237 118.098 43.7037 118.098 44.5253C118.098 44.5253 118.854 36.6335 119.94 35.7319C119.94 35.7319 115.925 38.3653 115.925 38.8582C115.925 38.8582 115.841 34.0928 117.51 32.1968L118.017 29.6476C118.017 29.6476 114.835 33.347 114.835 34.0043C114.835 34.0043 113.246 32.1968 113.246 29.0746C113.246 29.0746 113.918 23.239 115.173 22.253L116.593 20.6899L118.267 19.2109Z" fill="black"/>
<path fill-rule="evenodd" clip-rule="evenodd" d="M116.636 47.5469C116.636 47.5469 115.076 50.3025 114.688 50.3025L117.105 52.6746C117.105 52.6746 116.091 56.4246 116.091 57.1957L118.428 57.5749L119.285 53.4415L118.195 51.2968L117.024 48.3896L116.636 47.5469Z" fill="black"/>
<path fill-rule="evenodd" clip-rule="evenodd" d="M120.211 60.8164L118.66 61.8024C118.66 61.8024 118.96 62.8346 118.96 63.2265L121.762 66.572L122.109 67.6548C122.109 67.6548 123.313 67.0649 123.313 66.7237C123.313 66.7237 122.163 63.8669 121.563 63.2771L120.756 62.5903L120.262 61.7518L120.211 60.8164Z" fill="black"/>
<path fill-rule="evenodd" clip-rule="evenodd" d="M56.5225 59.1353C56.5225 59.1353 51.95 56.0721 50.8047 51.4457C50.8047 51.4457 47.3394 60.4667 47.6437 62.5439C47.6437 62.5439 48.3959 66.2349 48.2438 68.1605C48.2438 68.1605 45.0785 74.8135 45.0785 76.5874C45.0785 76.5874 45.535 82.6505 45.3828 84.4286C45.3828 84.4286 43.4262 89.4552 45.9871 91.5282C45.9871 91.5282 42.0739 100.398 48.3959 104.539C48.3959 104.539 69.1709 114.15 71.4275 115.924C71.4275 115.924 74.5886 118.587 78.954 115.187C78.954 115.187 85.2803 106.608 93.859 106.608C93.859 106.608 102.442 107.198 103.042 105.572C103.042 105.572 106.055 95.3709 106.055 90.1926L105.603 84.2769C105.603 84.2769 103.646 70.9666 103.646 69.7869C103.646 69.7869 102.742 62.8347 102.59 61.3558C102.59 61.3558 99.5768 53.5187 98.9767 52.7772L97.0201 49.6719C97.0201 49.6719 92.8068 55.1451 91.1502 55.5876C91.1502 55.5876 89.1935 57.5089 89.3415 58.8403L87.2369 57.5089L86.6326 60.4667L83.3194 59.8768L81.5149 63.1296L77.7496 62.0931L76.7734 63.3529L73.9885 62.2448L73.5363 64.4611L69.847 61.5791L68.2665 63.9428C68.2665 63.9428 64.6533 61.0608 64.9533 59.3586C64.9533 59.3586 64.2772 61.874 63.6771 61.874C63.6771 61.874 60.44 61.2083 59.4596 59.8768L56.9747 56.7715L56.6746 57.9597L56.5225 59.1353Z" fill="white"/>
<path fill-rule="evenodd" clip-rule="evenodd" d="M75.6136 108.842L73.471 115.035L72.0469 112.929C72.0469 112.929 75.3727 106.04 75.3727 104.637L78.3436 107.207L81.082 109.427C81.082 109.427 82.7428 110.948 78.5845 110.363L76.725 109.836L75.6136 108.842Z" fill="black"/>
<path fill-rule="evenodd" clip-rule="evenodd" d="M75.6129 101.602L71.0954 106.388L73.1154 97.0472L68.957 99.2677C68.957 99.2677 72.9971 90.8576 72.9971 89.9265C72.9971 88.9911 70.0262 91.7972 70.0262 91.7972C70.0262 91.7972 74.5438 80.2355 74.6621 78.8324L70.0262 82.1021C70.0262 82.1021 75.0171 73.2286 75.0171 72.0614L71.8096 74.1639C71.8096 74.1639 72.8787 70.1949 74.8988 68.4421L76.0863 65.7539L77.5146 68.5643C77.5146 68.5643 82.7422 72.8788 82.1505 74.2777C82.1505 74.2777 77.7513 72.5291 77.0371 71.7117C77.0371 71.7117 78.5838 75.7988 80.2488 76.4982L82.2646 81.1667C82.2646 81.1667 78.4655 79.89 77.9879 79.3044C77.9879 79.3044 80.2488 85.6035 82.3872 88.0557L82.5055 90.9756C82.5055 90.9756 80.3672 88.9911 79.0571 88.9911L76.6821 87.2383L80.3672 94.9447L82.5055 99.8491C82.5055 99.8491 78.1063 97.8688 76.9188 96.6975L79.5347 103.237L80.1305 105.571L77.633 103.709L75.6129 101.602Z" fill="black"/>
<path fill-rule="evenodd" clip-rule="evenodd" d="M53.3198 69.9594L52.407 66.9805L55.0863 67.6041C55.0863 67.6041 56.5654 68.017 56.5654 68.9229L53.3959 72.7992L52.1915 75.8498L50.5053 74.2571L49.8672 73.0773L51.9844 71.7627L53.3198 69.9594Z" fill="black"/>
<path fill-rule="evenodd" clip-rule="evenodd" d="M58.1251 69.6875C58.1251 69.6875 55.2303 73.0161 54.8077 73.4965C54.8077 73.4965 52.8342 76.9599 58.759 78.068L60.0986 78.0048C60.0986 78.0048 61.2269 74.9501 62.2877 74.6762L61.0875 70.724L60.0268 70.1004L58.1251 69.6875Z" fill="black"/>
<path fill-rule="evenodd" clip-rule="evenodd" d="M63.9084 75.3655C63.9084 75.3655 60.5952 78.968 62.5688 80.0761L65.8862 81.2559C65.8862 81.2559 66.5919 78.7657 66.5919 78.3444L68.0034 76.9582C68.0034 76.9582 67.5808 75.0874 65.7425 75.2264C67.5808 75.0874 63.9084 75.3655 63.9084 75.3655Z" fill="black"/>
<path fill-rule="evenodd" clip-rule="evenodd" d="M66.1171 83.2461C66.1171 83.2461 66.2312 86.9034 67.1356 87.2362C67.1356 87.2362 63.6364 90.3416 61.3755 89.0143C61.3755 89.0143 59.9091 87.2362 61.7094 85.4666L64.5366 83.6885L66.1171 83.2461Z" fill="black"/>
<path fill-rule="evenodd" clip-rule="evenodd" d="M61.265 83.021L58.666 86.1263C58.666 86.1263 54.4907 85.5702 54.1484 83.4634L56.9714 79.25L59.5704 80.8005L61.1509 81.3567L61.265 83.021Z" fill="black"/>
<path fill-rule="evenodd" clip-rule="evenodd" d="M54.4907 78.4778C54.4907 78.4778 51.4353 82.2489 51.8917 83.6899C51.8917 83.6899 49.2927 83.357 48.9546 81.027C48.3419 77.7152 50.4549 76.8093 52.9059 78.2545L54.4907 78.4778Z" fill="black"/>
<path fill-rule="evenodd" clip-rule="evenodd" d="M54.5589 86.4366C54.5589 86.4366 51.0809 92.3228 51.8542 93.2118C51.8542 93.2118 48.5664 92.1964 48.5664 90.6163L48.7608 87.3888C48.7608 87.3888 49.3989 86.6936 49.7919 86.6936C50.1765 86.6936 52.2388 85.615 52.2388 85.615L53.3291 85.1094L54.5589 86.4366Z" fill="black"/>
<path fill-rule="evenodd" clip-rule="evenodd" d="M56.1069 88.082C56.1069 88.082 58.5495 88.4612 59.0693 88.4612C59.0693 88.4612 59.7792 91.1831 60.6794 91.6887C60.6794 91.6887 57.3282 92.9528 57.7804 93.8418C57.7804 93.8418 54.9447 93.0792 54.3024 91.6255C54.3024 91.6255 54.1756 90.1087 55.1391 89.0933C54.1756 90.1087 56.1069 88.082 56.1069 88.082Z" fill="black"/>
<path fill-rule="evenodd" clip-rule="evenodd" d="M64.8045 90.6797C64.8045 90.6797 61.5421 93.4226 60.4898 93.7808C60.4898 93.7808 58.7064 95.4872 60.8617 96.3678C60.8617 96.3678 62.7549 96.8861 63.2282 96.2667L64.7496 95.3355L64.8045 93.4732L64.6989 91.8173L64.8045 90.6797Z" fill="black"/>
<path fill-rule="evenodd" clip-rule="evenodd" d="M56.9195 95.6406C56.9195 95.6406 53.6021 98.6406 56.0278 100.865C56.0278 100.865 57.9168 102.993 59.3917 101.177C59.3917 101.177 60.968 99.2642 60.968 98.4889C60.968 98.4889 61.1708 98.1813 60.389 97.7642L58.1281 96.3148L57.7098 95.9524L56.9195 95.6406Z" fill="black"/>
<path fill-rule="evenodd" clip-rule="evenodd" d="M55.0243 95.6421C55.0243 95.6421 51.9731 97.7109 52.7127 99.7839C52.7127 99.7839 48.9262 100.142 48.5078 97.4539C48.5078 97.4539 49.3995 94.7109 51.3984 94.7109L53.5536 94.7699L54.3946 94.8163L55.0243 95.6421Z" fill="black"/>
<path fill-rule="evenodd" clip-rule="evenodd" d="M65.5933 97.4648C65.5933 97.4648 61.6209 98.4719 62.0984 102.319C62.0984 102.319 62.8549 104.809 64.9763 103.595C64.9763 103.595 66.0032 102.454 65.868 100.899L66.6202 98.7415L66.485 97.7345L65.5933 97.4648Z" fill="black"/>
<path fill-rule="evenodd" clip-rule="evenodd" d="M59.0352 103.461C59.0352 103.461 55.7347 103.356 54.8008 103.086C54.8008 103.086 55.6798 105.298 56.8335 105.408C56.8335 105.408 58.376 105.193 58.5957 104.704L59.0352 104.274V103.461Z" fill="black"/>
<path fill-rule="evenodd" clip-rule="evenodd" d="M60.5195 105.891C60.5195 105.891 66.1781 105.352 67.4459 104.434C67.4459 104.434 66.512 107.509 64.3652 107.509L62.1127 107.189L61.0689 106.865L60.5195 105.891Z" fill="black"/>
<path fill-rule="evenodd" clip-rule="evenodd" d="M96.7937 95.8164L94.4609 98.9976L95.9654 102.103C95.9654 102.103 98.0741 99.7349 97.9981 98.9217L97.1698 96.7012L96.7937 95.8164Z" fill="black"/>
<path fill-rule="evenodd" clip-rule="evenodd" d="M93.0301 100.129C93.0301 100.129 92.3117 101.165 92.0243 101.258L90.1057 102.248H86.7461L88.5675 104.557C88.5675 104.557 91.8299 103.71 92.3117 102.724L93.0301 101.54V100.129Z" fill="black"/>
<path fill-rule="evenodd" clip-rule="evenodd" d="M87.5613 93.9604C87.5613 93.9604 86.3147 94.6135 86.9401 94.7568L86.6992 96.7329C86.6992 96.7329 87.5613 99.8466 87.5148 100.314C87.5148 100.314 90.0546 100.175 91.2083 98.7132C91.2083 98.7132 93.6045 96.834 89.6236 94.2848L88.2797 93.9141L87.5613 93.9604Z" fill="black"/>
<path fill-rule="evenodd" clip-rule="evenodd" d="M93.4594 89.0129C93.4594 89.0129 95.9063 90.4201 98.594 88.3008C98.594 88.3008 96.3415 95.1982 93.9877 95.6954C93.9877 95.6954 92.6903 93.1041 91.1562 93.0578L92.741 91.2207L93.1256 90.4665L93.4594 89.0129Z" fill="black"/>
<path fill-rule="evenodd" clip-rule="evenodd" d="M100.223 91.8828C100.223 91.8828 98.4948 93.1553 98.8329 93.96L100.464 96.5008L101.905 94.4741L101.09 93.0162L100.223 91.8828Z" fill="black"/>
<path fill-rule="evenodd" clip-rule="evenodd" d="M101.417 86.5117L100.221 87.6873L99.9805 90.565L101.662 89.6676L101.519 87.1732L101.417 86.5117Z" fill="black"/>
<path fill-rule="evenodd" clip-rule="evenodd" d="M101.088 98.3398L99.3086 100.459L99.8875 102.486L100.365 103.522C100.365 103.522 101.616 102.153 101.616 101.69L101.468 99.8019L101.134 99.0435L101.088 98.3398Z" fill="black"/>
<path fill-rule="evenodd" clip-rule="evenodd" d="M86.3164 86.1821C86.3164 86.1821 89.5366 85.5543 89.6676 85.2383C89.6676 85.2383 92.6258 87.956 89.9212 90.6778L87.4067 91.8787C87.4067 91.8787 87.3475 88.4616 87.0898 87.956L86.8954 87.2607L86.3164 86.1821Z" fill="black"/>
<path fill-rule="evenodd" clip-rule="evenodd" d="M91.0234 83.7815L93.1491 81.6916C93.1491 81.6916 96.2425 80.87 96.8215 80.6172C96.8215 80.6172 98.1188 86.3433 93.4069 87.4514L92.249 85.4247L91.9236 84.7295L91.0234 83.7815Z" fill="black"/>
<path fill-rule="evenodd" clip-rule="evenodd" d="M99.2646 82.3223L101.711 81.4375C101.711 81.4375 101.048 85.7816 98.2969 86.0554L99.1378 84.2226L99.2646 82.3223Z" fill="black"/>
<path fill-rule="evenodd" clip-rule="evenodd" d="M91.1406 75.7412C91.1406 75.7412 94.7369 74.376 94.8384 73.7188C94.8384 73.7188 97.8684 75.3873 95.5061 79.0277C95.5061 79.0277 92.886 80.3929 92.0661 80.3929C91.242 80.3929 92.4084 80.3423 92.4084 80.3423L92.0661 80.3929C92.0661 80.3929 91.8083 78.2187 91.7069 77.612L91.5463 76.7019L91.1406 75.7412Z" fill="black"/>
<path fill-rule="evenodd" clip-rule="evenodd" d="M87.3902 74.6328L86.1562 77.7128C86.1562 77.7128 88.4679 82.6131 87.648 83.4726C87.648 83.4726 90.3696 80.5401 90.3696 79.8364L88.5186 76.1454L88.0579 75.6398L87.3902 74.6328Z" fill="black"/>
<path fill-rule="evenodd" clip-rule="evenodd" d="M89.3438 65.3778C89.3438 65.3778 91.5455 64.6193 91.9639 64.2148C91.9639 64.2148 95.8137 67.653 93.1429 72.3552C93.1429 72.3552 91.5455 74.6347 89.7537 72.4563C89.7537 72.4563 90.0115 68.917 89.6987 67.7584L89.6522 66.7429L89.3438 65.3778Z" fill="black"/>
<path fill-rule="evenodd" clip-rule="evenodd" d="M97.0009 59.7148L94.3555 63.1572L96.3839 67.674C96.3839 67.674 99.1097 63.6966 98.9533 62.3946L97.7827 61.0926L97.0009 59.7148Z" fill="black"/>
<path fill-rule="evenodd" clip-rule="evenodd" d="M97.4883 72.9599C97.4883 72.9599 98.9547 76.4065 98.8786 76.7773L101.292 74.3335C101.292 74.3335 102.682 71.3672 100.087 71.3672L98.4307 72.2941L97.4883 72.9599Z" fill="black"/>
<path fill-rule="evenodd" clip-rule="evenodd" d="M59.0043 9.67806C59.0043 9.67806 57.6181 5.57416 53.8486 5.57416C53.8486 5.57416 49.2676 8.14015 53.3837 14.5867C53.3837 14.5867 49.2591 16.8072 48.5703 22.2299L48.8112 37.373C48.8112 37.373 49.5719 35.6455 50.0748 35.4601C50.0748 35.4601 49.8001 42.1132 50.5777 43.6426L51.7694 48.7999L53.2062 44.7718C53.2062 44.7718 54.4106 54.1088 55.6192 55.7352L57.1237 51.4459C57.1237 51.4459 59.8917 59.1102 63.5683 60.6987L64.0036 55.0189L68.0774 60.1678L68.6184 56.7043L72.6837 61.8068L73.3726 57.5217L75.7687 62.047L78.0719 57.4712L80.1849 60.4079L81.6555 56.3672L83.9079 58.0526L87.4409 53.9572L88.565 55.9796C88.565 55.9796 95.2124 47.0134 95.5759 42.3618L96.738 44.3674C96.738 44.3674 99.1426 39.8927 99.1426 39.1553C99.1426 39.1553 99.282 28.5206 98.8848 27.0838C98.8848 27.0838 95.69 18.9476 95.69 17.5151C95.69 17.5151 98.4326 11.8101 93.4291 11.3339C93.4291 11.3339 95.204 7.6851 95.204 6.10085C95.204 6.10085 93.1079 2.14021 89.8792 7.20898L88.2015 7.60083C88.2015 7.60083 88.3537 4.7694 87.8085 4.38597L84.5418 4.54187L83.9967 7.5292H82.3612L82.1246 4.7694C82.1246 4.7694 80.1806 1.63459 78.7776 4.7694L78.1522 7.3733L76.8294 7.5292L76.204 4.54187C76.204 4.54187 74.26 1.55454 72.6246 4.69777L72.1555 7.5292L71.0652 7.60083L69.9749 4.54187C69.9749 4.54187 67.9506 1.55454 65.8461 4.46603L65.1446 7.44915L63.8979 7.60083C63.8979 7.60083 63.2767 5.00114 62.8837 4.69777C62.8837 4.69777 60.6017 2.27504 58.8352 4.54187C58.2605 6.04607 58.6028 8.17386 59.0043 9.67806Z" fill="white"/>
<path fill-rule="evenodd" clip-rule="evenodd" d="M69.1438 42.649C69.1438 42.649 68.269 45.7965 63.3922 44.9369C63.3922 44.9369 60.3326 43.7993 60.1847 40.9341C60.1847 40.9341 59.8171 38.5704 58.5831 37.93L57.4209 36.2109C57.4209 36.2109 56.0306 33.4932 57.0575 31.2053C57.0575 31.2053 58.8958 28.0536 56.2334 25.4371C56.2334 25.4371 54.7205 24.1141 56.9223 20.6885C56.9223 20.6885 58.3718 16.8669 58.4267 14.9835C58.4267 14.9835 59.9946 9.22375 68.2225 9.62403C68.2225 9.62403 79.6411 8.59595 85.2025 10.2518C85.2025 10.2518 93.5995 12.6577 94.0686 22.9975C94.0686 22.9975 92.8473 28.5382 94.0686 30.1983C94.0686 30.1983 95.2899 44.326 86.7323 44.0521C86.7323 44.0521 84.2052 43.4159 83.8206 41.3766C83.8206 41.3766 83.7276 45.7122 78.2761 45.6195C78.2761 45.6195 75.5504 43.3105 74.0459 45.3414C74.0459 45.3414 71.5146 46.576 70.0017 43.9594L69.5241 43.2642L69.1438 42.649ZM83.7107 38.6884C83.7107 38.6884 81.864 43.458 79.8609 43.458C79.8609 43.458 76.0955 42.4721 75.1743 42.6364C75.1743 42.6364 72.8331 44.1954 71.578 43.0451C71.578 43.0451 69.9045 40.1673 69.9045 38.937C69.9045 38.937 68.3958 42.6364 66.2194 42.8808C66.2194 42.8808 63.126 43.951 61.8709 40.0872C61.8709 40.0872 61.6173 36.3036 59.1071 35.4019C59.1071 35.4019 57.6027 33.6744 59.1916 30.7966C59.1916 30.7966 60.4425 28.0031 58.7732 26.4399C58.7732 26.4399 56.7659 23.8107 58.4394 21.6745C58.4394 21.6745 60.2481 17.2504 60.2481 15.4765C60.2481 15.4765 61.6047 10.7069 67.8126 11.2631C67.8126 11.2631 83.5079 9.15213 88.2494 13.6984C88.2494 13.6984 93.3291 18.249 91.8627 25.2391C91.8627 25.2391 89.9441 29.0059 91.9768 31.1126C91.9768 31.1126 91.8627 40.7614 89.1538 41.4271C89.1538 41.4271 86.2167 43.3147 84.9701 40.2094L84.3869 39.4005L83.7107 38.6884Z" fill="black"/>
<path fill-rule="evenodd" clip-rule="evenodd" d="M53.3235 17.3594L50.6484 28.5882L52.3431 30.1135C52.3431 30.1135 54.8829 21.379 54.8829 19.7189L54.4856 18.2737L53.3235 17.3594Z" fill="black"/>
<path fill-rule="evenodd" clip-rule="evenodd" d="M54.3879 30.1445C54.3879 30.1445 49.5745 40.6571 52.0298 42.8776C52.0298 42.8776 53.1116 39.5953 53.7962 38.1501C53.7962 38.1501 55.5669 33.8102 55.5669 32.5546L55.3683 31.2021L54.3879 30.1445Z" fill="black"/>
<path fill-rule="evenodd" clip-rule="evenodd" d="M58.3568 39.7812C58.3568 39.7812 53.5476 49.1941 56.0029 51.1744C56.0029 51.1744 57.0805 48.2376 57.7693 46.9483C57.7693 46.9483 59.5358 43.0635 59.5358 41.9385L59.3414 40.7335L58.3568 39.7812Z" fill="black"/>
<path fill-rule="evenodd" clip-rule="evenodd" d="M61.3998 45.8984C61.3998 45.8984 58.729 56.0908 61.5562 57.5191C61.5562 57.5191 61.9746 54.4264 62.3718 53.0192C62.3718 53.0192 63.2593 48.8563 63.0099 47.7608L62.562 46.6189L61.3998 45.8984Z" fill="black"/>
<path fill-rule="evenodd" clip-rule="evenodd" d="M86.1785 47.0898C86.1785 47.0898 82.8273 50.5322 83.3725 54.7415C83.3725 54.7415 85.8658 52.1375 86.0222 49.6137L86.2546 48.4634L86.1785 47.0898Z" fill="black"/>
<path fill-rule="evenodd" clip-rule="evenodd" d="M91.3111 44.793C91.3111 44.793 87.9641 48.2354 88.5093 52.4446C88.5093 52.4446 90.9984 49.8407 91.1547 47.3168L91.3914 46.1708L91.3111 44.793Z" fill="black"/>
<path fill-rule="evenodd" clip-rule="evenodd" d="M94.6048 38.5195C94.6048 38.5195 92.5806 42.0799 93.3244 45.9731C94.5879 43.3692 94.6555 41.2709 94.6048 38.5195Z" fill="black"/>
<path fill-rule="evenodd" clip-rule="evenodd" d="M95.5156 26.1484L95.6297 38.1399L96.3946 39.7115C97.6793 35.8646 96.9313 28.3942 95.5156 26.1484Z" fill="black"/>
<path fill-rule="evenodd" clip-rule="evenodd" d="M64.0469 45.9219L64.3807 50.1943L66.1387 48.6353L66.6374 54.8797L68.8138 49.6213L71.0747 56.0299L72.072 49.7856C72.072 49.7856 75.7613 55.8656 76.5135 55.9499L75.6768 49.7856L80.2789 53.8937C80.2789 53.8937 78.842 48.3109 79.3576 46.9078C79.3576 46.9078 74.0878 48.6353 70.4873 47.3207L66.8064 46.6592L64.0469 45.9219Z" fill="black"/>
<path fill-rule="evenodd" clip-rule="evenodd" d="M63.375 17.0364C63.375 17.0364 68.5814 14.4535 71.1254 18.7807C71.1254 18.7807 73.4666 22.8341 72.0932 25.1388C72.0932 25.1388 69.5914 27.8397 73.4666 28.5939L77.5024 28.4759C77.5024 28.4759 78.9139 27.4857 78.5125 26.0953C78.5125 26.0953 76.8516 23.6262 77.7433 21.2877C77.7433 21.2877 79.3957 15.9662 85.3332 17.1122C85.3332 17.1122 83.6766 14.6895 79.6831 16.5223C79.6831 16.5223 75.081 19.181 76.2896 24.0265C76.2896 24.0265 76.7756 25.5728 77.0165 25.7371C77.0165 25.7371 77.663 26.6472 76.0107 26.7273H74.1132C74.1132 26.7273 73.0187 26.5672 73.3399 25.931C73.3399 25.931 74.8401 23.9043 73.8681 21.1656C73.8681 21.1656 72.7398 14.7695 65.7965 15.0898C64.3258 15.3805 63.6666 16.1094 63.375 17.0364Z" fill="black"/>
<path fill-rule="evenodd" clip-rule="evenodd" d="M62.0156 21.5737C62.0156 21.5737 66.1317 15.7591 70.1887 21.5189C70.1887 21.5189 68.9758 23.2464 63.7102 22.4585L63.144 22.1846L62.0156 21.5737ZM66.1021 19.6313C66.6938 19.6313 67.1755 20.1622 67.1755 20.8195C67.1755 21.4768 66.6938 22.0119 66.1021 22.0119C65.5147 22.0119 65.033 21.4768 65.033 20.8195C65.033 20.1622 65.5147 19.6313 66.1021 19.6313ZM80.0268 21.5568C80.0268 21.5568 84.1429 15.738 88.1998 21.4978C88.1998 21.4978 86.9869 23.2253 81.7171 22.4374L81.1551 22.1636L80.0268 21.5568ZM84.109 19.6102C84.7007 19.6102 85.1824 20.1411 85.1824 20.7984C85.1824 21.4557 84.7007 21.9908 84.109 21.9908C83.5216 21.9908 83.0441 21.4557 83.0441 20.7984C83.0441 20.1411 83.5216 19.6102 84.109 19.6102Z" fill="black"/>
<path fill-rule="evenodd" clip-rule="evenodd" d="M62.2461 31.6508C62.2461 31.6508 64.7014 38.7462 72.3631 34.8277C70.2332 38.7715 64.2281 37.5412 62.4827 33.7154L62.3644 32.8179L62.2461 31.6508ZM62.7828 29.0132C62.7828 29.0132 65.2423 36.1128 72.904 32.1901C70.7741 36.1339 64.7648 34.9036 63.0237 31.082L62.9053 30.1845L62.7828 29.0132ZM63.9534 26.2997C63.9534 26.2997 66.1593 33.3952 73.0477 29.4767C71.1376 33.4204 65.7368 32.1901 64.1689 28.3643L64.0633 27.4668L63.9534 26.2997ZM67.3933 25.082C67.3933 25.082 66.9116 27.252 70.6811 28.6298C70.6811 28.6298 69.2274 29.0595 67.7187 28.5792C65.8001 27.1424 65.9819 26.4767 67.3933 25.082ZM89.5628 31.339C89.5628 31.339 86.3764 38.4344 76.4242 34.5159C79.188 38.4555 86.9934 37.2252 89.2543 33.4036L89.4107 32.5019L89.5628 31.339ZM88.3331 29.148C88.3331 29.148 85.3706 35.7294 76.1453 32.0932C78.7063 35.7547 85.9454 34.6086 88.0415 31.0609L88.1894 30.2266L88.3331 29.148ZM86.6173 27.1508C86.6173 27.1508 84.0183 32.9401 75.9045 29.7421C78.1569 32.957 84.5212 31.9542 86.3637 28.8362L86.4905 28.1031L86.6173 27.1508ZM82.8055 25.4992C82.8055 25.4992 83.2915 27.6691 79.5261 29.0469C79.5261 29.0469 80.9799 29.4724 82.4843 28.9963C84.4071 27.5595 84.2254 26.8896 82.8055 25.4992Z" fill="black"/>
<path fill-rule="evenodd" clip-rule="evenodd" d="M73.4492 36.9414L77.3921 37.0636L75.6383 38.7279L74.2014 37.6788L73.4492 36.9414Z" fill="black"/>
<path fill-rule="evenodd" clip-rule="evenodd" d="M72.1581 37.8701C72.1581 37.8701 73.223 40.7943 76.2362 40.3561C76.2362 40.3561 79.3634 39.1637 79.2493 37.828L80.3142 37.7395C80.3142 37.7395 80.048 40.9502 77.2884 41.6875C77.2884 41.6875 74.2035 42.4417 72.4117 40.9249C72.4117 40.9249 70.8945 39.4333 70.8945 37.7227L72.1581 37.8701Z" fill="black"/>
<path fill-rule="evenodd" clip-rule="evenodd" d="M32.1992 113.904L34.9926 113.184C34.9926 113.184 35.7279 123.823 35.8251 124.594C35.8251 124.594 33.5727 119.875 32.9345 118.004L32.1992 113.904Z" fill="white"/>
<path fill-rule="evenodd" clip-rule="evenodd" d="M36.7949 112.891C36.7949 112.891 42.7705 110.405 46.0245 106.242C46.0245 106.242 49.194 115.183 47.1993 124.71L42.948 146.114L44.2284 145.777C44.2284 145.777 47.6853 139.052 47.8966 136.002C47.8966 136.002 49.8701 126.37 49.8701 121.381C49.8701 121.381 51.9197 126.302 52.0592 132.399C52.0592 132.399 51.2605 145.941 47.6684 151.389C47.6684 151.389 44.9004 154.406 44.9004 154.912C44.9004 154.912 40.8815 156.336 40.3913 162.34L24.2227 163.263C24.2227 163.263 25.5412 158.649 28.3599 157.263C28.3599 157.263 33.8114 152.923 34.2847 150.989C34.2847 150.989 38.1177 141.012 38.143 134.75C38.143 134.75 38.5656 120.665 38.0332 118.318L37.5007 114.399L36.7949 112.891Z" fill="white"/>
<path fill-rule="evenodd" clip-rule="evenodd" d="M49.5195 109.328C49.5195 109.328 53.8173 110.571 54.4597 110.571C54.4597 110.571 51.7044 118.956 52.4101 120.549C52.4101 120.549 49.659 115.699 49.5914 112.513L49.5195 109.328Z" fill="white"/>
<path fill-rule="evenodd" clip-rule="evenodd" d="M54.7157 135.953L55.7088 148.109L51.5547 150.237C51.5547 150.237 54.1748 140.748 54.1748 139.678L54.7157 135.953Z" fill="white"/>
<path fill-rule="evenodd" clip-rule="evenodd" d="M47.7746 154.293H50.0313C50.0313 154.293 49.2833 156.252 47.7746 157.445C47.7746 157.445 45.5813 160.474 45.7673 161.254L43.4219 161.747C43.4219 161.747 44.2797 159.008 45.5983 158.022C45.5983 158.022 47.1703 156.497 47.3985 155.574L47.6479 154.929L47.7155 154.601L47.7746 154.293Z" fill="white"/>
<path fill-rule="evenodd" clip-rule="evenodd" d="M58.1007 147.352C58.1007 147.352 56.2962 151.494 51.8547 155.189C51.8547 155.189 48.6936 159.259 48.9176 160.439L65.027 160.068C65.027 160.068 68.7924 152.455 68.7163 150.234C68.7163 150.234 65.4834 141.179 65.3862 137.32C65.3862 137.32 62.4619 125.939 64.951 115.187L56.9723 111.34C50.5615 123.382 57.5133 139.642 57.4245 141.213L58.1767 144.318L58.1007 147.352Z" fill="white"/>
<path fill-rule="evenodd" clip-rule="evenodd" d="M68.6034 117.848L66.4735 122.533C66.4735 122.533 65.8438 138.805 68.9837 141.27C68.9837 141.27 69.233 131.777 70.7417 126.599L71.1178 122.655L68.6034 117.848Z" fill="white"/>
<path fill-rule="evenodd" clip-rule="evenodd" d="M80.6094 117.258L84.3747 115.488C84.3747 115.488 85.727 129.831 85.1269 133.084L81.3616 123.469L81.0616 120.073L80.6094 117.258Z" fill="white"/>
<path fill-rule="evenodd" clip-rule="evenodd" d="M73.0821 119.625L77.7476 118.441C77.7476 118.441 80.9086 135.152 83.4695 136.926C83.4695 136.926 80.7607 149.052 80.7607 150.093C80.7607 150.093 79.5563 158.671 81.9651 159.999L67.6602 159.851C67.6602 159.851 70.8254 153.046 70.8254 149.351C70.8254 149.351 71.4255 128.941 72.782 125.541L73.2342 122.731L73.0821 119.625Z" fill="white"/>
<path fill-rule="evenodd" clip-rule="evenodd" d="M94.3046 109.273L86.7823 112.674C86.7823 112.674 87.3063 114.671 87.3063 115.337C87.3063 115.337 87.9825 128.917 87.2641 132.241C87.2641 132.241 81.8083 151.935 83.1057 156.047C83.1057 156.047 82.3493 160.484 87.0824 160.378L102.989 160.699C102.989 160.699 101.484 154.463 99.0123 151.404C99.0123 151.404 91.7225 141.692 92.9438 134.984C92.9438 134.984 93.7467 125.744 95.4625 121.206C95.6484 116.407 95.5512 112.893 94.3046 109.273Z" fill="white"/>
<path fill-rule="evenodd" clip-rule="evenodd" d="M96.7737 110.453H98.7979C98.7979 110.453 101.76 116.495 99.4994 124.299C99.4994 124.299 95.5228 136.164 95.6031 136.85C95.6031 136.85 94.7494 130.88 96.0721 128.508C96.0721 128.508 97.7076 121.623 97.7076 120.704C97.7076 120.704 97.3188 113.971 97.2385 113.588C97.1624 113.205 96.93 111.675 96.93 111.675L96.7737 110.453Z" fill="white"/>
<path fill-rule="evenodd" clip-rule="evenodd" d="M96.7188 141.734C96.7188 141.734 97.5428 148.611 101.384 150.532C101.384 150.532 99.3515 145.43 98.5993 143.879L97.5428 142.548L96.7188 141.734Z" fill="white"/>
<path fill-rule="evenodd" clip-rule="evenodd" d="M106.036 160.859L115.371 161.866C115.371 161.866 113.626 155.82 112.396 153.705C112.396 153.705 108.804 148.665 108.804 145.745C108.804 145.745 108.394 137.984 110.038 132.545C110.038 132.545 114.948 113.93 101.687 108.09C101.687 108.09 104.696 129.68 97.7656 138.258C97.7656 138.258 103.192 144.174 103.192 147.574L103.154 153.97L105.224 156.928L106.036 160.859Z" fill="white"/>
<path fill-rule="evenodd" clip-rule="evenodd" d="M112.302 116.488L116.021 117.398C116.021 117.398 118.409 125.362 116.157 131.627C114.373 136.696 113.82 152.26 121.87 157.207C121.87 157.207 126.159 161.812 124.659 163.734L118.016 162.819C118.016 162.819 116.82 157.207 115.227 154.991C115.227 154.991 109.378 145.595 111.77 136.456C111.77 136.456 113.498 124.447 113.228 122.497L112.302 116.488Z" fill="white"/>
<path fill-rule="evenodd" clip-rule="evenodd" d="M131.863 32.0887C131.863 32.0887 136.867 31.4271 139.216 37.3175C139.216 37.3175 137.932 38.3035 134.543 36.8836C132.869 35.9861 132.531 33.4791 131.863 32.0887ZM135.362 34.3091C134.686 34.3091 134.141 34.8485 134.141 35.5142C134.141 36.1799 134.686 36.7192 135.362 36.7192C136.039 36.7192 136.592 36.1799 136.592 35.5142C136.592 34.8485 136.039 34.3091 135.362 34.3091Z" fill="black"/>
<path fill-rule="evenodd" clip-rule="evenodd" d="M144.532 46.409C144.532 46.409 140.153 40.2279 139.824 39.7812C139.824 39.7812 139.325 43.2194 142.972 45.6379L143.86 46.3374L144.532 46.409Z" fill="black"/>
<path fill-rule="evenodd" clip-rule="evenodd" d="M141.995 47.3711L136.336 39.2812C136.336 39.2812 137.004 43.6253 139.89 46.0396L141.001 47.0508L141.995 47.3711Z" fill="black"/>
<path fill-rule="evenodd" clip-rule="evenodd" d="M139.757 48.5956C139.757 48.5956 134.136 40.1392 133.676 39.8906C133.676 39.8906 135.451 44.8204 136.727 45.9327L138.591 48.1785L139.279 48.701L139.757 48.5956Z" fill="black"/>
<path fill-rule="evenodd" clip-rule="evenodd" d="M28.5768 237.316V241.546L29.6502 242.06C29.908 242.178 30.1489 242.258 30.3813 242.313C30.6053 242.359 30.8335 242.38 31.049 242.38C31.1166 242.38 31.1927 242.38 31.273 242.38C31.3533 242.38 31.4336 242.372 31.5138 242.359C31.611 242.342 31.7209 242.313 31.8477 242.271C31.9787 242.228 32.1139 242.178 32.2618 242.11C32.5196 242.026 32.7478 241.929 32.9507 241.82C33.1535 241.698 33.331 241.584 33.4789 241.466V237.316H28.5768ZM27.0216 237.316H22.952L22.1406 235.832H36.1117L36.9189 237.316H34.9961V248.806L33.4155 247.942L33.4367 243.248C33.3817 243.278 33.3268 243.307 33.2676 243.332C33.2042 243.358 33.1197 243.391 33.0141 243.421C32.9169 243.467 32.807 243.514 32.6802 243.556C32.5492 243.598 32.4098 243.636 32.2618 243.665C32.1139 243.703 31.9787 243.724 31.8477 243.741C31.7209 243.758 31.611 243.766 31.5138 243.766C31.2307 243.766 30.956 243.741 30.6856 243.69C30.4151 243.644 30.1489 243.56 29.8953 243.446C29.6375 243.328 29.4009 243.185 29.1769 243.012C28.9529 242.839 28.7416 242.646 28.5388 242.431L28.0105 242.949C27.9175 243.067 27.8203 243.168 27.7147 243.248C27.6175 243.328 27.5118 243.404 27.4062 243.467C27.2245 243.551 27.0892 243.619 26.992 243.665C26.8906 243.716 26.8188 243.758 26.7977 243.796C26.7681 243.808 26.7469 243.83 26.7258 243.851C26.7047 243.876 26.6793 243.905 26.654 243.939C26.6413 243.956 26.6328 243.977 26.6328 244.002C26.6328 244.023 26.6328 244.036 26.6328 244.036C26.785 244.2 26.9202 244.352 27.0385 244.483C27.1611 244.613 27.2836 244.748 27.4062 244.879C27.4316 244.896 27.5457 245.013 27.7485 245.237C27.9513 245.46 28.2556 245.772 28.6613 246.164L30.6433 248.115L29.9333 248.806C28.8304 247.638 27.9218 246.657 27.2118 245.865C26.5061 245.077 25.982 244.474 25.644 244.065C25.2383 243.585 24.9424 243.172 24.7523 242.827C24.5663 242.481 24.4691 242.207 24.4691 242.009C24.4691 241.912 24.4818 241.82 24.5114 241.727C24.5368 241.639 24.5917 241.55 24.672 241.466C24.7396 241.386 24.8157 241.323 24.9044 241.276C24.9932 241.221 25.0861 241.188 25.1791 241.171C25.2002 241.188 25.2383 241.205 25.2805 241.221C25.3186 241.238 25.3693 241.255 25.4158 241.276C25.4707 241.285 25.5468 241.314 25.6355 241.356C25.72 241.398 25.8215 241.457 25.9482 241.546L26.7385 241.862C26.7892 241.879 26.8399 241.841 26.8779 241.752C26.9202 241.66 26.9456 241.516 26.954 241.323C26.954 241.301 26.9582 241.192 26.9709 240.985C26.9751 240.783 26.9878 240.471 27.0005 240.063C27.0005 239.86 27.0005 239.658 27.0005 239.439C27.0005 239.228 27.009 239.005 27.0216 238.773C27.0216 238.559 27.0216 238.331 27.0216 238.087C27.0216 237.834 27.0216 237.589 27.0216 237.341V237.316ZM36.192 237.316L35.4017 235.832H42.4845L43.2959 237.316H36.192ZM44.4115 240.973H41.3139C40.5574 240.99 39.9869 241.162 39.6024 241.491C39.2178 241.82 39.0234 242.325 39.0234 242.999C39.0234 243.311 39.0741 243.636 39.1671 243.964C39.2558 244.293 39.408 244.638 39.6108 245.001C39.8137 245.367 40.0926 245.785 40.4518 246.265C40.811 246.741 41.2463 247.285 41.7576 247.891L40.9462 248.515C40.3292 247.752 39.7968 247.074 39.3699 246.459C38.9389 245.848 38.605 245.313 38.3768 244.853C38.2416 244.605 38.1275 244.369 38.0345 244.137C37.9373 243.905 37.8655 243.682 37.8106 243.467C37.7556 243.273 37.7176 243.063 37.7007 242.839C37.6795 242.616 37.6669 242.389 37.6669 242.161C37.6669 241.731 37.7387 241.356 37.8824 241.036C38.0219 240.712 38.2416 240.429 38.5332 240.181C38.7825 239.999 39.0572 239.86 39.3573 239.764C39.6615 239.662 39.9912 239.616 40.3377 239.616L44.4115 239.591V240.973ZM51.1646 243.817C51.0759 243.931 50.9745 244.028 50.8773 244.112C50.7759 244.2 50.6787 244.276 50.5857 244.36C50.4843 244.424 50.3871 244.491 50.2814 244.558C50.1715 244.622 50.0574 244.681 49.9349 244.731C49.6771 244.845 49.432 244.933 49.1953 244.988C48.9587 245.051 48.7432 245.077 48.5403 245.077C47.8768 245.077 47.2767 244.967 46.7358 244.752C46.1991 244.542 45.7131 244.226 45.2779 243.817C44.9271 243.467 44.6186 243.067 44.3608 242.603C44.0946 242.144 43.8917 241.617 43.7396 241.023C44.2129 240.939 44.6397 240.834 45.0159 240.703C45.3962 240.568 45.73 240.404 46.0259 240.206C46.3386 240.025 46.5626 239.827 46.7189 239.616C46.8668 239.401 46.9387 239.186 46.9387 238.971C46.9387 238.841 46.9133 238.702 46.8584 238.55C46.8034 238.403 46.7231 238.23 46.6175 238.032L46.2329 237.316H42.2225L41.4745 235.832H53.9031L54.6722 237.316H52.7494V248.806L51.1646 247.942V243.817ZM47.4035 237.316L48.0501 238.723C48.1346 238.988 48.198 239.212 48.2445 239.393C48.291 239.574 48.3163 239.721 48.3163 239.839C48.3163 240.101 48.2487 240.349 48.1135 240.577C47.9783 240.808 47.7754 241.023 47.505 241.221C47.3993 241.285 47.2767 241.36 47.1415 241.445C47.0063 241.525 46.8542 241.601 46.6767 241.664C46.5034 241.748 46.3175 241.824 46.1188 241.9C45.9244 241.976 45.7131 242.051 45.4765 242.136C45.4765 242.414 45.5145 242.671 45.5821 242.894C45.6497 243.109 45.7554 243.311 45.9075 243.492C46.0554 243.661 46.2329 243.783 46.4442 243.863C46.6471 243.947 46.9006 243.99 47.1838 243.99C47.412 243.99 47.636 243.977 47.8515 243.939C48.067 243.905 48.2699 243.855 48.4769 243.796C48.5403 243.775 48.6164 243.754 48.6925 243.728C48.7643 243.707 48.8361 243.674 48.9038 243.644C49.1742 243.526 49.5038 243.345 49.8926 243.088C50.2856 242.831 50.7336 242.506 51.2323 242.11V237.316H47.4035ZM65.7865 235.832L66.5726 237.316H64.654V248.806L63.0735 247.942V243.572H58.5179V244.706C58.5179 244.933 58.4798 245.102 58.3995 245.199C58.315 245.296 58.1882 245.346 58.0065 245.346C57.9051 245.346 57.7276 245.254 57.4867 245.064C57.2416 244.874 56.9331 244.588 56.557 244.209C56.1767 243.83 55.8893 243.518 55.7034 243.273C55.5174 243.029 55.4202 242.852 55.4202 242.751C55.4202 242.705 55.4287 242.654 55.4371 242.603C55.454 242.557 55.4836 242.498 55.5428 242.431C55.585 242.367 55.6357 242.317 55.6949 242.283C55.7541 242.249 55.8217 242.224 55.8851 242.207L57.0007 242.182V237.316H53.9031L53.134 235.832H65.7865ZM58.5179 242.182H63.1326V237.316H58.5179V242.182ZM62.3635 236.005L61.7592 234.324C61.6113 233.898 61.4718 233.532 61.345 233.224C61.214 232.921 61.1042 232.698 61.007 232.546C60.9267 232.398 60.8252 232.264 60.7069 232.137C60.5844 232.019 60.4491 231.897 60.3012 231.779C60.1533 231.682 60.0139 231.598 59.8871 231.535C59.7561 231.467 59.6462 231.425 59.549 231.408C59.456 231.408 59.3588 231.421 59.2574 231.446C59.156 231.471 59.0461 231.501 58.9235 231.535L58.4122 230.646L57.9262 229.681C57.9981 229.664 58.053 229.647 58.1037 229.63C58.1502 229.613 58.1925 229.605 58.2347 229.605L58.8179 229.559C58.9827 229.571 59.1517 229.605 59.3292 229.656C59.5025 229.706 59.6842 229.778 59.8744 229.879C60.0772 229.976 60.259 230.106 60.4238 230.266C60.5844 230.418 60.7407 230.604 60.8886 230.818C61.0239 231.016 61.1844 231.332 61.3746 231.766C61.5606 232.205 61.793 232.761 62.0634 233.435L62.9129 235.807L62.3635 236.005ZM74.8301 244.011C74.7118 244.129 74.5808 244.242 74.4244 244.348C74.2808 244.453 74.1328 244.563 73.9849 244.681C73.8243 244.794 73.6722 244.896 73.5285 244.976C73.3891 245.06 73.2496 245.131 73.1144 245.199C72.8017 245.346 72.4889 245.46 72.172 245.519C71.8508 245.591 71.5296 245.62 71.1916 245.62C70.7605 245.62 70.3295 245.536 69.9069 245.372C69.48 245.207 69.0659 244.95 68.6602 244.605C68.1996 244.226 67.8573 243.813 67.6291 243.358C67.4009 242.907 67.2825 242.422 67.2825 241.912C67.2825 241.533 67.3502 241.188 67.4727 240.876C67.6037 240.56 67.7939 240.273 68.0517 240.008C68.3644 239.713 68.7532 239.485 69.218 239.33C69.6829 239.174 70.2196 239.094 70.8281 239.094C70.9338 239.094 71.0437 239.094 71.162 239.094C71.2761 239.094 71.3944 239.094 71.5296 239.094C71.6437 239.11 71.7494 239.132 71.855 239.157C71.9691 239.182 72.0832 239.203 72.2016 239.22C72.3368 239.237 72.4763 239.271 72.6199 239.33C72.7594 239.393 72.92 239.464 73.0933 239.57C73.2285 239.629 73.3553 239.713 73.4694 239.81C73.5835 239.911 73.6933 240.021 73.8032 240.134C73.9089 240.248 74.0568 240.408 74.2343 240.615C74.416 240.821 74.6188 241.074 74.8301 241.369V237.316H65.7612L65.0174 235.832H78.0715L78.8448 237.316H76.4149V248.806L74.8301 247.942V244.011ZM68.6391 242.431C68.6391 242.776 68.6856 243.08 68.7701 243.332C68.8588 243.589 68.9898 243.808 69.1673 243.99C69.3575 244.171 69.573 244.306 69.8139 244.394C70.059 244.487 70.3337 244.533 70.6464 244.533C70.9084 244.533 71.2211 244.474 71.5677 244.36C71.91 244.247 72.2861 244.07 72.6876 243.842C73.0933 243.615 73.4736 243.349 73.8413 243.063C74.2089 242.772 74.5512 242.456 74.8766 242.11C74.64 241.929 74.4033 241.748 74.1455 241.567C73.892 241.386 73.6088 241.213 73.3172 241.053C72.9327 240.872 72.5861 240.724 72.2523 240.627C71.9227 240.53 71.6184 240.48 71.331 240.48C70.9084 240.48 70.5408 240.535 70.2111 240.64C69.8773 240.745 69.5941 240.901 69.349 241.099C69.1082 241.293 68.9264 241.508 68.8123 241.74C68.6982 241.971 68.6391 242.207 68.6391 242.456V242.431ZM95.1782 240.307C95.2416 240.488 95.305 240.636 95.3515 240.749C95.398 240.872 95.436 240.948 95.4614 240.998C95.4909 241.065 95.5459 241.171 95.6262 241.323C95.7065 241.466 95.8079 241.664 95.922 241.912C96.0572 242.161 96.2051 242.389 96.353 242.603C96.501 242.818 96.6489 243.029 96.7968 243.223C96.9489 243.421 97.118 243.606 97.3166 243.779C97.511 243.952 97.7223 244.112 97.9462 244.259C98.1956 244.407 98.4238 244.521 98.6393 244.592C98.8548 244.668 99.0534 244.706 99.2267 244.706C99.4296 244.706 99.6113 244.672 99.7761 244.605C99.9367 244.542 100.085 244.449 100.22 244.335C100.33 244.2 100.414 244.053 100.469 243.889C100.533 243.724 100.562 243.535 100.562 243.32C100.562 243.042 100.482 242.747 100.321 242.448C100.161 242.14 99.9113 241.828 99.569 241.516C99.3577 241.301 99.0915 241.087 98.7661 240.863C98.4534 240.64 98.0899 240.404 97.6842 240.16L97.8913 239.616H103.782V237.316H92.8328L92.1017 235.832H106.901L107.751 237.316H105.299V248.806L103.723 247.942L103.761 240.998H100.178C100.355 241.179 100.511 241.344 100.647 241.491C100.778 241.639 100.913 241.782 101.048 241.912C101.158 242.043 101.255 242.165 101.344 242.271C101.433 242.376 101.5 242.473 101.551 242.557C101.703 242.818 101.821 243.084 101.91 243.345C101.999 243.615 102.041 243.872 102.041 244.137C102.041 244.449 101.974 244.74 101.838 244.988C101.703 245.245 101.509 245.473 101.251 245.667C101.023 245.835 100.778 245.962 100.52 246.05C100.266 246.143 100.004 246.189 99.7338 246.189C99.1549 246.189 98.5928 246.042 98.0519 245.755C97.5152 245.469 96.9996 245.026 96.5136 244.432C96.2178 244.053 95.8924 243.556 95.5332 242.94C95.174 242.321 94.781 241.567 94.3499 240.678L95.1782 240.307ZM115.886 243.817C115.793 243.931 115.695 244.028 115.594 244.112C115.493 244.2 115.391 244.276 115.298 244.36C115.205 244.424 115.104 244.491 114.998 244.558C114.888 244.622 114.774 244.681 114.652 244.731C114.398 244.845 114.149 244.933 113.916 244.988C113.675 245.051 113.46 245.077 113.257 245.077C112.593 245.077 111.993 244.967 111.457 244.752C110.916 244.542 110.43 244.226 109.999 243.817C109.648 243.467 109.339 243.067 109.077 242.603C108.807 242.144 108.608 241.617 108.46 241.023C108.93 240.939 109.356 240.834 109.732 240.703C110.113 240.568 110.451 240.404 110.747 240.206C111.055 240.025 111.288 239.827 111.436 239.616C111.583 239.401 111.655 239.186 111.655 238.971C111.655 238.841 111.63 238.702 111.575 238.55C111.524 238.403 111.44 238.23 111.334 238.032L110.95 237.316H106.939L106.191 235.832H118.62L119.389 237.316H117.462V248.806L115.886 247.942V243.817ZM112.124 237.316L112.771 238.723C112.851 238.988 112.91 239.212 112.957 239.393C113.012 239.574 113.033 239.721 113.033 239.839C113.033 240.101 112.965 240.349 112.83 240.577C112.695 240.808 112.492 241.023 112.226 241.221C112.116 241.285 111.993 241.36 111.858 241.445C111.723 241.525 111.571 241.601 111.393 241.664C111.22 241.748 111.034 241.824 110.835 241.9C110.641 241.976 110.43 242.051 110.202 242.136C110.202 242.414 110.235 242.671 110.295 242.894C110.371 243.109 110.476 243.311 110.624 243.492C110.772 243.661 110.954 243.783 111.161 243.863C111.372 243.947 111.617 243.99 111.9 243.99C112.129 243.99 112.353 243.977 112.568 243.939C112.784 243.905 112.995 243.855 113.198 243.796C113.261 243.775 113.333 243.754 113.405 243.728C113.481 243.707 113.553 243.674 113.62 243.644C113.891 243.526 114.216 243.345 114.614 243.088C115.002 242.831 115.45 242.506 115.949 242.11V237.316H112.124ZM126.374 247.942L126.417 240.948L123.784 240.973C123.027 240.99 122.457 241.162 122.072 241.491C121.688 241.82 121.493 242.325 121.493 242.999C121.493 243.311 121.544 243.631 121.637 243.952C121.73 244.272 121.878 244.605 122.081 244.95C122.271 245.296 122.546 245.709 122.901 246.189C123.26 246.669 123.704 247.217 124.223 247.845L123.42 248.46C123.12 248.131 122.85 247.807 122.596 247.487C122.347 247.167 122.115 246.851 121.899 246.539C121.684 246.235 121.489 245.953 121.312 245.667C121.138 245.388 120.991 245.115 120.868 244.853C120.61 244.36 120.424 243.889 120.31 243.446C120.196 242.999 120.141 242.57 120.141 242.161C120.141 241.731 120.209 241.356 120.348 241.036C120.492 240.712 120.707 240.429 121.012 240.181C121.248 239.999 121.527 239.86 121.827 239.764C122.132 239.662 122.461 239.616 122.812 239.616L126.434 239.591V237.316H118.315L117.567 235.832H130.017L130.786 237.316H127.955V248.806L126.374 247.942ZM126.476 236.005L125.867 234.324C125.719 233.898 125.576 233.532 125.453 233.224C125.326 232.921 125.212 232.698 125.119 232.546C125.035 232.398 124.938 232.264 124.811 232.137C124.692 232.019 124.557 231.897 124.405 231.779C124.261 231.682 124.122 231.598 123.995 231.535C123.864 231.467 123.754 231.425 123.661 231.408C123.568 231.408 123.471 231.421 123.37 231.446C123.268 231.471 123.154 231.501 123.036 231.535L122.529 230.646L122.043 229.681C122.106 229.664 122.165 229.647 122.212 229.63C122.263 229.613 122.305 229.605 122.347 229.605L122.934 229.559C123.095 229.571 123.264 229.605 123.437 229.656C123.615 229.706 123.797 229.778 123.987 229.879C124.19 229.976 124.371 230.106 124.532 230.266C124.692 230.418 124.849 230.604 124.993 230.818C125.128 231.016 125.293 231.332 125.483 231.766C125.669 232.205 125.901 232.761 126.172 233.435L127.021 235.807L126.476 236.005Z" fill="black"/>
<path d="M28.5768 237.315V241.545L29.6502 242.059C29.908 242.177 30.1489 242.257 30.3813 242.312C30.6053 242.358 30.8335 242.379 31.049 242.379C31.1166 242.379 31.1927 242.379 31.273 242.379C31.3533 242.379 31.4336 242.371 31.5138 242.358C31.611 242.341 31.7209 242.312 31.8477 242.27C31.9787 242.227 32.1139 242.177 32.2618 242.11C32.5196 242.025 32.7478 241.928 32.9507 241.819C33.1535 241.697 33.331 241.583 33.4789 241.465V237.315H28.5768ZM27.0216 237.315H22.952L22.1406 235.831H36.1117L36.9189 237.315H34.9961V248.805L33.4155 247.941L33.4367 243.247C33.3817 243.277 33.3268 243.306 33.2676 243.331C33.2042 243.357 33.1197 243.39 33.0141 243.42C32.9169 243.466 32.807 243.513 32.6802 243.555C32.5492 243.597 32.4098 243.635 32.2618 243.664C32.1139 243.702 31.9787 243.723 31.8477 243.74C31.7209 243.757 31.611 243.765 31.5138 243.765C31.2307 243.765 30.956 243.74 30.6856 243.69C30.4151 243.643 30.1489 243.559 29.8953 243.445C29.6375 243.327 29.4009 243.184 29.1769 243.011C28.9529 242.838 28.7416 242.645 28.5388 242.43L28.0105 242.948C27.9175 243.066 27.8203 243.167 27.7147 243.247C27.6175 243.327 27.5118 243.403 27.4062 243.466C27.2245 243.551 27.0892 243.618 26.992 243.664C26.8906 243.715 26.8188 243.757 26.7977 243.795C26.7681 243.808 26.7469 243.829 26.7258 243.85C26.7047 243.875 26.6793 243.904 26.654 243.938C26.6413 243.955 26.6328 243.976 26.6328 244.001C26.6328 244.022 26.6328 244.035 26.6328 244.035C26.785 244.199 26.9202 244.351 27.0385 244.482C27.1611 244.612 27.2836 244.747 27.4062 244.878C27.4316 244.895 27.5457 245.013 27.7485 245.236C27.9513 245.459 28.2556 245.771 28.6613 246.163L30.6433 248.114L29.9333 248.805C28.8303 247.638 27.9218 246.656 27.2118 245.864C26.5061 245.076 25.982 244.473 25.644 244.065C25.2383 243.584 24.9424 243.171 24.7523 242.826C24.5663 242.48 24.4691 242.206 24.4691 242.008C24.4691 241.911 24.4818 241.819 24.5114 241.726C24.5368 241.638 24.5917 241.549 24.672 241.465C24.7396 241.385 24.8157 241.322 24.9044 241.275C24.9932 241.22 25.0861 241.187 25.1791 241.17C25.2002 241.187 25.2383 241.204 25.2805 241.22C25.3186 241.237 25.3693 241.254 25.4158 241.275C25.4707 241.284 25.5468 241.313 25.6355 241.355C25.72 241.397 25.8215 241.456 25.9482 241.545L26.7385 241.861C26.7892 241.878 26.8399 241.84 26.8779 241.751C26.9202 241.659 26.9456 241.515 26.954 241.322C26.954 241.301 26.9582 241.191 26.9709 240.985C26.9751 240.782 26.9878 240.47 27.0005 240.062C27.0005 239.86 27.0005 239.657 27.0005 239.438C27.0005 239.228 27.009 239.004 27.0216 238.772C27.0216 238.558 27.0216 238.33 27.0216 238.086C27.0216 237.833 27.0216 237.588 27.0216 237.34V237.315ZM36.192 237.315L35.4017 235.831H42.4845L43.2959 237.315H36.192ZM44.4115 240.972H41.3139C40.5574 240.989 39.9869 241.161 39.6024 241.49C39.2178 241.819 39.0234 242.324 39.0234 242.999C39.0234 243.31 39.0741 243.635 39.1671 243.963C39.2558 244.292 39.408 244.638 39.6108 245C39.8137 245.367 40.0926 245.784 40.4518 246.264C40.811 246.74 41.2463 247.284 41.7576 247.89L40.9462 248.514C40.3292 247.751 39.7968 247.073 39.3699 246.458C38.9389 245.847 38.605 245.312 38.3768 244.852C38.2416 244.604 38.1275 244.368 38.0345 244.136C37.9373 243.904 37.8655 243.681 37.8106 243.466C37.7556 243.272 37.7176 243.062 37.7007 242.838C37.6795 242.615 37.6669 242.388 37.6669 242.16C37.6669 241.73 37.7387 241.355 37.8824 241.035C38.0219 240.711 38.2416 240.428 38.5332 240.18C38.7825 239.999 39.0572 239.86 39.3573 239.763C39.6615 239.662 39.9912 239.615 40.3377 239.615L44.4115 239.59V240.972ZM51.1646 243.816C51.0759 243.93 50.9745 244.027 50.8773 244.111C50.7759 244.199 50.6787 244.275 50.5857 244.36C50.4843 244.423 50.3871 244.49 50.2814 244.558C50.1715 244.621 50.0574 244.68 49.9349 244.73C49.6771 244.844 49.432 244.933 49.1953 244.987C48.9587 245.051 48.7432 245.076 48.5403 245.076C47.8768 245.076 47.2767 244.966 46.7358 244.751C46.1991 244.541 45.7131 244.225 45.2779 243.816C44.9271 243.466 44.6186 243.066 44.3608 242.602C44.0946 242.143 43.8917 241.617 43.7396 241.022C44.2129 240.938 44.6397 240.833 45.0158 240.702C45.3962 240.567 45.73 240.403 46.0259 240.205C46.3386 240.024 46.5626 239.826 46.7189 239.615C46.8668 239.4 46.9387 239.185 46.9387 238.971C46.9387 238.84 46.9133 238.701 46.8584 238.549C46.8034 238.402 46.7231 238.229 46.6175 238.031L46.2329 237.315H42.2225L41.4745 235.831H53.9031L54.6722 237.315H52.7494V248.805L51.1646 247.941V243.816ZM47.4035 237.315L48.0501 238.722C48.1346 238.987 48.198 239.211 48.2445 239.392C48.291 239.573 48.3163 239.72 48.3163 239.838C48.3163 240.1 48.2487 240.348 48.1135 240.576C47.9783 240.808 47.7754 241.022 47.505 241.22C47.3993 241.284 47.2767 241.36 47.1415 241.444C47.0063 241.524 46.8541 241.6 46.6767 241.663C46.5034 241.747 46.3175 241.823 46.1188 241.899C45.9244 241.975 45.7131 242.051 45.4765 242.135C45.4765 242.413 45.5145 242.67 45.5821 242.893C45.6497 243.108 45.7554 243.31 45.9075 243.492C46.0554 243.66 46.2329 243.782 46.4442 243.862C46.6471 243.947 46.9006 243.989 47.1838 243.989C47.412 243.989 47.636 243.976 47.8515 243.938C48.067 243.904 48.2699 243.854 48.4769 243.795C48.5403 243.774 48.6164 243.753 48.6925 243.727C48.7643 243.706 48.8361 243.673 48.9037 243.643C49.1742 243.525 49.5038 243.344 49.8926 243.087C50.2856 242.83 50.7336 242.506 51.2323 242.11V237.315H47.4035ZM65.7865 235.831L66.5726 237.315H64.654V248.805L63.0735 247.941V243.572H58.5179V244.705C58.5179 244.933 58.4798 245.101 58.3995 245.198C58.315 245.295 58.1882 245.345 58.0065 245.345C57.9051 245.345 57.7276 245.253 57.4867 245.063C57.2416 244.874 56.9331 244.587 56.557 244.208C56.1767 243.829 55.8893 243.517 55.7033 243.272C55.5174 243.028 55.4202 242.851 55.4202 242.75C55.4202 242.704 55.4287 242.653 55.4371 242.602C55.454 242.556 55.4836 242.497 55.5428 242.43C55.585 242.367 55.6357 242.316 55.6949 242.282C55.7541 242.249 55.8217 242.223 55.8851 242.206L57.0007 242.181V237.315H53.9031L53.134 235.831H65.7865ZM58.5179 242.181H63.1326V237.315H58.5179V242.181ZM62.3635 236.004L61.7592 234.323C61.6113 233.898 61.4718 233.531 61.345 233.223C61.214 232.92 61.1042 232.697 61.007 232.545C60.9267 232.398 60.8252 232.263 60.7069 232.136C60.5844 232.018 60.4491 231.896 60.3012 231.778C60.1533 231.681 60.0138 231.597 59.8871 231.534C59.7561 231.466 59.6462 231.424 59.549 231.407C59.456 231.407 59.3588 231.42 59.2574 231.445C59.156 231.471 59.0461 231.5 58.9235 231.534L58.4122 230.645L57.9262 229.68C57.9981 229.663 58.053 229.646 58.1037 229.629C58.1502 229.612 58.1925 229.604 58.2347 229.604L58.8179 229.558C58.9827 229.57 59.1517 229.604 59.3292 229.655C59.5025 229.705 59.6842 229.777 59.8744 229.878C60.0772 229.975 60.259 230.105 60.4238 230.266C60.5844 230.417 60.7407 230.603 60.8886 230.817C61.0239 231.016 61.1844 231.332 61.3746 231.766C61.5606 232.204 61.793 232.76 62.0634 233.434L62.9129 235.806L62.3635 236.004ZM74.8301 244.01C74.7118 244.128 74.5808 244.242 74.4244 244.347C74.2808 244.452 74.1328 244.562 73.9849 244.68C73.8243 244.793 73.6722 244.895 73.5285 244.975C73.3891 245.059 73.2496 245.131 73.1144 245.198C72.8017 245.345 72.4889 245.459 72.172 245.518C71.8508 245.59 71.5296 245.619 71.1916 245.619C70.7605 245.619 70.3295 245.535 69.9069 245.371C69.48 245.206 69.0659 244.949 68.6602 244.604C68.1996 244.225 67.8573 243.812 67.6291 243.357C67.4009 242.906 67.2825 242.421 67.2825 241.911C67.2825 241.532 67.3501 241.187 67.4727 240.875C67.6037 240.559 67.7939 240.272 68.0517 240.007C68.3644 239.712 68.7532 239.485 69.218 239.329C69.6829 239.173 70.2196 239.093 70.8281 239.093C70.9338 239.093 71.0437 239.093 71.162 239.093C71.2761 239.093 71.3944 239.093 71.5296 239.093C71.6437 239.11 71.7494 239.131 71.855 239.156C71.9691 239.181 72.0832 239.202 72.2016 239.219C72.3368 239.236 72.4763 239.27 72.6199 239.329C72.7594 239.392 72.92 239.463 73.0933 239.569C73.2285 239.628 73.3553 239.712 73.4694 239.809C73.5835 239.91 73.6933 240.02 73.8032 240.133C73.9089 240.247 74.0568 240.407 74.2343 240.614C74.416 240.82 74.6188 241.073 74.8301 241.368V237.315H65.7612L65.0174 235.831H78.0715L78.8448 237.315H76.4149V248.805L74.8301 247.941V244.01ZM68.6391 242.43C68.6391 242.775 68.6856 243.079 68.7701 243.331C68.8588 243.588 68.9898 243.808 69.1673 243.989C69.3575 244.17 69.573 244.305 69.8139 244.393C70.059 244.486 70.3337 244.532 70.6464 244.532C70.9084 244.532 71.2211 244.473 71.5677 244.36C71.91 244.246 72.2861 244.069 72.6876 243.841C73.0933 243.614 73.4736 243.348 73.8413 243.062C74.2089 242.771 74.5512 242.455 74.8766 242.11C74.64 241.928 74.4033 241.747 74.1455 241.566C73.892 241.385 73.6088 241.212 73.3172 241.052C72.9327 240.871 72.5861 240.723 72.2523 240.626C71.9227 240.529 71.6184 240.479 71.331 240.479C70.9084 240.479 70.5408 240.534 70.2111 240.639C69.8773 240.744 69.5941 240.9 69.349 241.098C69.1082 241.292 68.9264 241.507 68.8123 241.739C68.6982 241.97 68.6391 242.206 68.6391 242.455V242.43ZM95.1782 240.306C95.2416 240.487 95.305 240.635 95.3515 240.749C95.398 240.871 95.436 240.947 95.4614 240.997C95.4909 241.065 95.5459 241.17 95.6262 241.322C95.7065 241.465 95.8079 241.663 95.922 241.911C96.0572 242.16 96.2051 242.388 96.353 242.602C96.501 242.817 96.6489 243.028 96.7968 243.222C96.9489 243.42 97.1179 243.605 97.3166 243.778C97.511 243.951 97.7223 244.111 97.9462 244.258C98.1956 244.406 98.4238 244.52 98.6393 244.591C98.8548 244.667 99.0534 244.705 99.2267 244.705C99.4296 244.705 99.6113 244.671 99.7761 244.604C99.9367 244.541 100.085 244.448 100.22 244.334C100.33 244.199 100.414 244.052 100.469 243.888C100.533 243.723 100.562 243.534 100.562 243.319C100.562 243.041 100.482 242.746 100.321 242.447C100.161 242.139 99.9113 241.827 99.569 241.515C99.3577 241.301 99.0915 241.086 98.7661 240.862C98.4534 240.639 98.0899 240.403 97.6842 240.159L97.8913 239.615H103.782V237.315H92.8328L92.1017 235.831H106.901L107.751 237.315H105.299V248.805L103.723 247.941L103.761 240.997H100.178C100.355 241.178 100.511 241.343 100.647 241.49C100.778 241.638 100.913 241.781 101.048 241.911C101.158 242.042 101.255 242.164 101.344 242.27C101.433 242.375 101.5 242.472 101.551 242.556C101.703 242.817 101.821 243.083 101.91 243.344C101.999 243.614 102.041 243.871 102.041 244.136C102.041 244.448 101.974 244.739 101.838 244.987C101.703 245.244 101.509 245.472 101.251 245.666C101.023 245.834 100.778 245.961 100.52 246.049C100.266 246.142 100.004 246.188 99.7338 246.188C99.1549 246.188 98.5928 246.041 98.0519 245.754C97.5152 245.468 96.9996 245.025 96.5136 244.431C96.2178 244.052 95.8924 243.555 95.5332 242.94C95.174 242.32 94.781 241.566 94.3499 240.677L95.1782 240.306ZM115.886 243.816C115.793 243.93 115.695 244.027 115.594 244.111C115.492 244.199 115.391 244.275 115.298 244.36C115.205 244.423 115.104 244.49 114.998 244.558C114.888 244.621 114.774 244.68 114.652 244.73C114.398 244.844 114.149 244.933 113.916 244.987C113.675 245.051 113.46 245.076 113.257 245.076C112.593 245.076 111.993 244.966 111.457 244.751C110.916 244.541 110.43 244.225 109.999 243.816C109.648 243.466 109.339 243.066 109.077 242.602C108.807 242.143 108.608 241.617 108.46 241.022C108.93 240.938 109.356 240.833 109.732 240.702C110.113 240.567 110.451 240.403 110.747 240.205C111.055 240.024 111.288 239.826 111.436 239.615C111.583 239.4 111.655 239.185 111.655 238.971C111.655 238.84 111.63 238.701 111.575 238.549C111.524 238.402 111.44 238.229 111.334 238.031L110.95 237.315H106.939L106.191 235.831H118.62L119.389 237.315H117.462V248.805L115.886 247.941V243.816ZM112.124 237.315L112.771 238.722C112.851 238.987 112.91 239.211 112.957 239.392C113.012 239.573 113.033 239.72 113.033 239.838C113.033 240.1 112.965 240.348 112.83 240.576C112.695 240.808 112.492 241.022 112.226 241.22C112.116 241.284 111.993 241.36 111.858 241.444C111.723 241.524 111.571 241.6 111.393 241.663C111.22 241.747 111.034 241.823 110.835 241.899C110.641 241.975 110.43 242.051 110.202 242.135C110.202 242.413 110.235 242.67 110.295 242.893C110.371 243.108 110.476 243.31 110.624 243.492C110.772 243.66 110.954 243.782 111.161 243.862C111.372 243.947 111.617 243.989 111.9 243.989C112.129 243.989 112.353 243.976 112.568 243.938C112.784 243.904 112.995 243.854 113.198 243.795C113.261 243.774 113.333 243.753 113.405 243.727C113.481 243.706 113.553 243.673 113.62 243.643C113.891 243.525 114.216 243.344 114.613 243.087C115.002 242.83 115.45 242.506 115.949 242.11V237.315H112.124ZM126.374 247.941L126.417 240.947L123.784 240.972C123.027 240.989 122.457 241.161 122.072 241.49C121.688 241.819 121.493 242.324 121.493 242.999C121.493 243.31 121.544 243.631 121.637 243.951C121.73 244.271 121.878 244.604 122.081 244.949C122.271 245.295 122.546 245.708 122.901 246.188C123.26 246.668 123.704 247.216 124.223 247.844L123.42 248.459C123.12 248.131 122.85 247.806 122.596 247.486C122.347 247.166 122.115 246.85 121.899 246.538C121.684 246.234 121.489 245.952 121.312 245.666C121.138 245.388 120.99 245.114 120.868 244.852C120.61 244.36 120.424 243.888 120.31 243.445C120.196 242.999 120.141 242.569 120.141 242.16C120.141 241.73 120.209 241.355 120.348 241.035C120.492 240.711 120.707 240.428 121.012 240.18C121.248 239.999 121.527 239.86 121.827 239.763C122.132 239.662 122.461 239.615 122.812 239.615L126.434 239.59V237.315H118.315L117.567 235.831H130.017L130.786 237.315H127.955V248.805L126.374 247.941ZM126.476 236.004L125.867 234.323C125.719 233.898 125.576 233.531 125.453 233.223C125.326 232.92 125.212 232.697 125.119 232.545C125.035 232.398 124.938 232.263 124.811 232.136C124.692 232.018 124.557 231.896 124.405 231.778C124.261 231.681 124.122 231.597 123.995 231.534C123.864 231.466 123.754 231.424 123.661 231.407C123.568 231.407 123.471 231.42 123.37 231.445C123.268 231.471 123.154 231.5 123.036 231.534L122.529 230.645L122.043 229.68C122.106 229.663 122.165 229.646 122.212 229.629C122.263 229.612 122.305 229.604 122.347 229.604L122.934 229.558C123.095 229.57 123.264 229.604 123.437 229.655C123.615 229.705 123.797 229.777 123.987 229.878C124.19 229.975 124.371 230.105 124.532 230.266C124.692 230.417 124.849 230.603 124.992 230.817C125.128 231.016 125.293 231.332 125.483 231.766C125.669 232.204 125.901 232.76 126.172 233.434L127.021 235.806L126.476 236.004Z" stroke="black" stroke-width="0.2169" stroke-linecap="round" stroke-linejoin="round"/>
</svg>
