<svg width="126" height="103" viewBox="0 0 126 103" fill="none" xmlns="http://www.w3.org/2000/svg">
<path fill-rule="evenodd" clip-rule="evenodd" d="M39.165 90.8309C44.9486 93.0255 51.2736 94.235 57.8997 94.235C66.1074 94.235 73.8762 92.3564 80.7232 89.0798C72.34 95.3708 61.9377 99.128 50.6577 99.128C44.2392 99.128 38.1049 97.9208 32.4713 95.7225L39.165 90.8309ZM25.115 82.7366C14.7037 74.229 8.12702 61.7424 8.12702 47.8383C8.12702 22.2372 30.4238 1.4417 57.8997 1.4417C59.9187 1.4417 61.9377 1.57277 63.9128 1.79121C59.6993 0.611632 55.2224 0 50.6577 0C23.1378 0 0.841064 22.1935 0.841064 49.5858C0.841064 67.0373 9.91994 82.3896 23.6415 91.2158L25.115 82.7366Z" fill="#F47D5C"/>
<path d="M29.1606 79.6514L22.2258 102.107L40.5724 85.1561L29.1606 79.6514Z" fill="#377044"/>
<path fill-rule="evenodd" clip-rule="evenodd" d="M16.4987 48.6537C16.4987 69.755 33.6602 86.837 54.8597 86.837C68.9073 86.837 81.2132 79.3053 87.8967 68.0663H92.677C85.6094 81.7095 71.3242 91.031 54.8597 91.031C31.334 91.031 12.2852 72.0705 12.2852 48.6537C12.2852 25.2369 31.334 6.27637 54.8597 6.27637C70.5152 6.27637 84.2002 14.7043 91.5834 27.2617H86.6357C79.7324 17.1266 68.0657 10.4704 54.8597 10.4704C33.6602 10.4704 16.4987 27.5524 16.4987 48.6537Z" fill="#377044"/>
<path fill-rule="evenodd" clip-rule="evenodd" d="M36.132 60.0214C33.7619 60.0214 31.4796 60.0651 29.1533 59.9777C27.5294 59.934 26.3882 58.7107 26.3882 57.0506C26.3882 49.9731 26.3882 42.8957 26.3882 35.8619C26.3882 34.2018 27.661 32.9785 29.285 32.9785C34.9909 32.9785 40.6967 32.9785 46.4026 32.9785C47.9388 32.9785 49.2116 34.0707 49.2555 35.5561C49.2994 39.3133 49.2555 43.0704 49.2555 46.8713C48.3777 46.3907 47.4999 45.9975 46.622 45.517C46.4904 45.4296 46.4465 45.0364 46.4465 44.7743C46.4465 42.0656 46.4465 39.357 46.4465 36.6483V35.8182H29.3289V57.138C30.909 57.138 32.4891 57.138 34.0691 57.138C34.5081 57.138 34.7714 57.2253 34.947 57.7059C35.2981 58.4486 35.6931 59.1476 36.132 60.0214Z" fill="#F58B71"/>
<path fill-rule="evenodd" clip-rule="evenodd" d="M36.132 60.0214C33.7619 60.0214 31.4796 60.0651 29.1533 59.9777C27.5294 59.934 26.3882 58.7107 26.3882 57.0506C26.3882 49.9731 26.3882 42.8957 26.3882 35.8619C26.3882 34.2018 27.661 32.9785 29.285 32.9785C34.9909 32.9785 40.6967 32.9785 46.4026 32.9785C47.9388 32.9785 49.2116 34.0707 49.2555 35.5561C49.2994 39.3133 49.2555 43.0704 49.2555 46.8713C48.3777 46.3907 47.4999 45.9975 46.622 45.517C46.4904 45.4296 46.4465 45.0364 46.4465 44.7743C46.4465 42.0656 46.4465 39.357 46.4465 36.6483V35.8182H29.3289V57.138C30.909 57.138 32.4891 57.138 34.0691 57.138C34.5081 57.138 34.7714 57.2253 34.947 57.7059C35.2981 58.4486 35.6931 59.1476 36.132 60.0214Z" stroke="#F58B71" stroke-width="0.0116378"/>
<path fill-rule="evenodd" clip-rule="evenodd" d="M47.8725 54.342C47.8287 51.9829 45.8974 50.0169 43.5273 50.0169C41.245 50.0169 39.226 51.9829 39.226 54.2546C39.226 56.6575 41.2011 58.6234 43.5712 58.6234C45.8974 58.5798 47.8725 56.6138 47.8725 54.342ZM49.4965 58.2739C50.8572 59.5846 52.2178 60.8515 53.4906 62.0748C52.7884 62.7738 52.13 63.4291 51.4277 64.1281C50.5499 63.2981 49.5404 62.3806 48.6187 61.3758C47.9164 60.5894 47.3897 60.371 46.2486 60.8515C43.6151 61.9874 41.0255 61.5505 38.8309 59.6283C36.6364 57.6623 35.8902 55.1721 36.6803 52.3761C37.4703 49.58 39.4454 47.7888 42.3422 47.3083C45.1513 46.8277 47.5214 47.7888 49.2332 50.0606C50.9449 52.3761 51.1205 54.8663 49.9793 57.4439C49.8477 57.706 49.716 57.9244 49.4965 58.2739Z" fill="#F58B71"/>
<path fill-rule="evenodd" clip-rule="evenodd" d="M47.8725 54.342C47.8287 51.9829 45.8974 50.0169 43.5273 50.0169C41.245 50.0169 39.226 51.9829 39.226 54.2546C39.226 56.6575 41.2011 58.6234 43.5712 58.6234C45.8974 58.5798 47.8725 56.6138 47.8725 54.342ZM49.4965 58.2739C50.8572 59.5846 52.2178 60.8515 53.4906 62.0748C52.7884 62.7738 52.13 63.4291 51.4277 64.1281C50.5499 63.2981 49.5404 62.3806 48.6187 61.3758C47.9164 60.5894 47.3897 60.371 46.2486 60.8515C43.6151 61.9874 41.0255 61.5505 38.8309 59.6283C36.6364 57.6623 35.8902 55.1721 36.6803 52.3761C37.4703 49.58 39.4454 47.7888 42.3422 47.3083C45.1513 46.8277 47.5214 47.7888 49.2332 50.0606C50.9449 52.3761 51.1205 54.8663 49.9793 57.4439C49.8477 57.706 49.716 57.9244 49.4965 58.2739Z" stroke="#F58B71" stroke-width="0.0116378"/>
<path d="M60.1546 45.4575H61.0324C63.9731 45.4575 65.3338 44.1031 65.3338 41.4818C65.3338 38.5548 63.9731 36.982 61.0763 36.982H60.1546V45.4575ZM58.3989 48.5593C57.3894 48.5593 56.8188 48.3409 56.8188 47.1613V35.3218C56.8188 34.1423 57.3894 33.9238 58.3989 33.9238H60.9885C63.4903 33.9238 65.3776 34.6228 66.6505 35.9772C67.9672 37.3752 68.6256 39.1664 68.7134 41.4818C68.7134 43.5352 68.0989 45.239 66.7822 46.5496C65.5093 47.8603 63.4464 48.5593 60.6374 48.5593H58.3989Z" fill="#377044"/>
<path d="M74.1243 45.4575H79.3913C80.4008 45.4575 81.0153 46.0254 81.0153 47.0302C81.0153 48.035 80.4008 48.5593 79.3913 48.5593H72.4126C71.2275 48.5593 70.7886 48.3409 70.7886 47.1613V35.3218C70.7886 34.1423 71.2275 33.9238 72.4126 33.9238H79.2157C80.2252 33.9238 80.7958 34.4481 80.7958 35.4529C80.7958 36.4577 80.2252 36.982 79.2157 36.982H74.1243V39.647H78.7329C79.7424 39.647 80.3569 40.1712 80.3569 41.176C80.3569 42.2245 79.7424 42.7488 78.7329 42.7488H74.1243V45.4575Z" fill="#377044"/>
<path d="M86.3445 42.7925V46.5496C86.3445 47.9477 85.6423 48.5593 84.6767 48.5593C83.7111 48.5593 83.0088 47.9477 83.0088 46.5496V35.9335C83.0088 34.4918 83.7111 33.9238 84.6767 33.9238C85.6423 33.9238 86.3445 34.4918 86.3445 35.9335V39.3848L90.8653 34.885C91.7871 33.7928 92.7088 33.8365 93.3671 34.3607C94.0255 34.885 94.2011 35.8898 93.2794 36.8946L88.7586 41.0887L93.5866 45.5448C94.1133 46.0691 94.3766 46.5496 94.3766 46.9865C94.3766 47.4234 94.245 47.7729 93.9816 48.1224C93.6744 48.3845 93.2794 48.5593 92.8405 48.5593C92.4015 48.5593 91.9187 48.2972 91.4359 47.7729L86.3445 42.7925Z" fill="#377044"/>
<path d="M99.7554 42.6614V46.5496C99.7554 47.9477 99.0093 48.5593 98.0875 48.5593C97.078 48.5593 96.4197 47.9477 96.4197 46.5496V35.9335C96.4197 34.4918 97.078 33.9238 98.0875 33.9238C99.0093 33.9238 99.7554 34.4918 99.7554 35.9335V39.5596H104.671V35.9335C104.671 34.4918 105.373 33.9238 106.339 33.9238C107.349 33.9238 108.007 34.4918 108.007 35.9335V46.5496C108.007 47.9477 107.349 48.5593 106.339 48.5593C105.373 48.5593 104.671 47.9477 104.671 46.5496V42.6614H99.7554Z" fill="#377044"/>
<path d="M117.651 45.5926C118.88 45.5926 119.845 45.1994 120.591 44.413C121.382 43.5829 121.733 42.5344 121.733 41.2238C121.733 39.9131 121.382 38.8646 120.591 38.0782C119.845 37.2919 118.88 36.8987 117.651 36.8987C116.466 36.8987 115.456 37.2919 114.71 38.0782C113.964 38.8646 113.613 39.9131 113.613 41.2238C113.613 42.5344 113.964 43.5829 114.71 44.413C115.456 45.1994 116.466 45.5926 117.651 45.5926ZM117.651 48.9129C115.5 48.9129 113.657 48.2138 112.208 46.7721C110.76 45.3304 110.014 43.5392 110.014 41.2675C110.014 38.9957 110.76 37.1608 112.252 35.7191C113.701 34.3211 115.5 33.6221 117.651 33.6221C119.801 33.6221 121.645 34.3211 123.093 35.7628C124.542 37.1608 125.288 38.9957 125.288 41.2675C125.288 43.5392 124.542 45.3304 123.093 46.7721C121.645 48.2138 119.845 48.9129 117.651 48.9129Z" fill="#377044"/>
<path d="M70.4482 53.0732H72.2039V63.1215H70.4482V53.0732Z" fill="#373435"/>
<path d="M74.4375 55.5546H75.8859L76.0176 56.6031H76.0615C76.7637 55.9478 77.5538 55.3799 78.5633 55.3799C80.1872 55.3799 80.8895 56.4721 80.8895 58.3944V63.1127H79.1339V58.6128C79.1339 57.3895 78.7827 56.909 77.9488 56.909C77.2904 56.909 76.8515 57.2148 76.1931 57.8701V63.1127H74.4375V55.5546Z" fill="#373435"/>
<path d="M86.0052 61.8733C86.5757 61.8733 87.0586 61.6112 87.5853 61.0433V57.5045C87.0586 57.0676 86.5319 56.8929 86.0491 56.8929C85.0834 56.8929 84.2934 57.7667 84.2934 59.3831C84.2934 60.9996 84.9079 61.8733 86.0052 61.8733ZM85.654 55.4075C86.5319 55.4075 87.0586 55.757 87.6291 56.2376L87.5853 55.0143V52.3057H89.3409V63.1403H87.8925L87.7608 62.3539H87.7169C87.1463 62.8781 86.3563 63.315 85.5662 63.315C83.6789 63.315 82.45 61.8733 82.45 59.3831C82.45 56.9366 83.9862 55.4075 85.654 55.4075Z" fill="#373435"/>
<path d="M91.3711 55.581H93.1706V63.1391H91.3711V55.581ZM91.1956 53.2656C91.1956 52.6976 91.6345 52.2607 92.2928 52.2607C92.9073 52.2607 93.3901 52.6976 93.3901 53.2656C93.3901 53.8772 92.9073 54.2704 92.2928 54.2704C91.6345 54.2704 91.1956 53.8772 91.1956 53.2656Z" fill="#373435"/>
<path d="M97.6921 61.9331C98.3505 61.9331 98.7894 61.6273 99.36 61.103V59.3992C97.2971 59.6613 96.6387 60.1856 96.6387 60.972C96.6387 61.6273 97.0776 61.9331 97.6921 61.9331ZM99.36 58.307C99.36 57.4769 99.0088 56.8216 97.9993 56.8216C97.2532 56.8216 96.507 57.1711 95.8487 57.5643L95.1903 56.3847C96.0242 55.8605 97.1215 55.3799 98.3066 55.3799C100.238 55.3799 101.16 56.5595 101.16 58.6565V63.1127H99.7111L99.5355 62.2826H99.4916C98.8333 62.8505 98.0432 63.2874 97.1654 63.2874C95.8487 63.2874 94.8831 62.4137 94.8831 61.103C94.8831 59.4866 96.2437 58.6128 99.36 58.307Z" fill="#373435"/>
</svg>
