<svg width="115" height="103" viewBox="0 0 115 103" fill="none" xmlns="http://www.w3.org/2000/svg">
<path fill-rule="evenodd" clip-rule="evenodd" d="M40.0476 55.6066C40.0476 58.1405 40.0037 60.7181 40.0476 63.252C40.0915 64.3005 39.872 65.1742 38.7748 65.5674C37.6775 65.9606 36.9313 65.4363 36.2729 64.6937C35.3512 63.6888 34.5173 62.6403 33.5517 61.7666C33.1128 61.4171 32.2349 61.1986 31.6644 61.3734C31.2254 61.5044 30.7865 62.2908 30.7426 62.8151C30.7426 63.2956 31.1815 63.8636 31.5766 64.3005C34.1223 67.1839 36.6241 70.0673 38.0725 73.6934C38.7748 75.3535 40.0915 76.3583 41.891 76.5768C43.0322 76.7515 44.1734 76.8389 45.3146 76.8389C49.1331 76.7952 52.0739 74.6982 52.425 70.941C52.8639 66.6159 52.6883 62.2471 52.6883 57.8783C52.6883 57.0046 51.9422 56.4803 51.1082 56.4803C50.2304 56.4803 49.6159 57.0483 49.5281 57.922C49.4404 58.5773 49.5281 59.32 49.3965 60.019C49.3526 60.3685 49.0453 60.9802 48.782 61.0239C48.0358 61.1112 48.0358 60.4559 48.0358 59.9317C48.0358 58.3589 48.0797 56.7861 48.0358 55.2134C48.0358 53.9027 47.0263 53.1163 45.9729 53.4222C45.0512 53.728 44.7879 54.3833 44.744 55.2134C44.744 56.8735 44.7879 58.49 44.7001 60.1064C44.7001 60.4122 44.4806 60.7617 44.2612 61.0239C44.2173 61.1112 43.7345 61.0239 43.6906 60.9365C43.515 60.587 43.3834 60.1938 43.3834 59.8443C43.3834 56.3493 43.3834 52.8979 43.3834 49.4466C43.3834 48.6602 43.515 47.8301 43.2956 47.1311C43.12 46.5632 42.5494 45.8641 42.0227 45.6894C41.6277 45.5146 40.8377 45.9078 40.4426 46.301C40.1354 46.6505 40.0476 47.3495 40.0476 47.8738C40.0037 50.4514 40.0476 53.029 40.0476 55.6066ZM44.744 52.2426C47.6847 51.5436 49.0015 52.4173 49.6159 55.3444C49.8354 55.3007 50.0548 55.2134 50.3182 55.1697C52.3372 54.6891 54.1367 55.9998 54.1367 58.1405C54.2245 62.2471 54.2245 66.3538 54.0051 70.4168C53.7856 74.6982 50.801 77.5816 46.5435 78.1495C44.4806 78.4117 42.5055 78.3243 40.5304 77.7127C38.9503 77.2321 37.6775 76.271 37.063 74.7856C35.4829 71.0284 32.8933 67.9266 30.2159 64.9558C28.9431 63.5578 28.987 61.6355 30.2598 60.4996C31.6205 59.32 33.5078 59.4948 34.8245 60.9365C35.6585 61.8539 36.4924 62.7714 37.3702 63.6888C37.5897 63.9073 37.9408 64.0383 38.2481 64.2131C38.4236 63.8636 38.687 63.5141 38.687 63.1646C38.687 58.9705 38.687 54.7328 38.687 50.5388C38.687 49.3592 38.6431 48.1796 38.687 47C38.7748 45.3836 40.0476 44.204 41.6277 44.1603C43.2956 44.1166 44.6123 45.3399 44.7001 47C44.744 47.8738 44.744 48.7475 44.744 49.6213C44.744 50.4951 44.744 51.3251 44.744 52.2426Z" fill="#F58B71"/>
<path fill-rule="evenodd" clip-rule="evenodd" d="M40.0476 55.6066C40.0476 58.1405 40.0037 60.7181 40.0476 63.252C40.0915 64.3005 39.872 65.1742 38.7748 65.5674C37.6775 65.9606 36.9313 65.4363 36.2729 64.6937C35.3512 63.6888 34.5173 62.6403 33.5517 61.7666C33.1128 61.4171 32.2349 61.1986 31.6644 61.3734C31.2254 61.5044 30.7865 62.2908 30.7426 62.8151C30.7426 63.2956 31.1815 63.8636 31.5766 64.3005C34.1223 67.1839 36.6241 70.0673 38.0725 73.6934C38.7748 75.3535 40.0915 76.3583 41.891 76.5768C43.0322 76.7515 44.1734 76.8389 45.3146 76.8389C49.1331 76.7952 52.0739 74.6982 52.425 70.941C52.8639 66.6159 52.6883 62.2471 52.6883 57.8783C52.6883 57.0046 51.9422 56.4803 51.1082 56.4803C50.2304 56.4803 49.6159 57.0483 49.5281 57.922C49.4404 58.5773 49.5281 59.32 49.3965 60.019C49.3526 60.3685 49.0453 60.9802 48.782 61.0239C48.0358 61.1112 48.0358 60.4559 48.0358 59.9317C48.0358 58.3589 48.0797 56.7861 48.0358 55.2134C48.0358 53.9027 47.0263 53.1163 45.9729 53.4222C45.0512 53.728 44.7879 54.3833 44.744 55.2134C44.744 56.8735 44.7879 58.49 44.7001 60.1064C44.7001 60.4122 44.4806 60.7617 44.2612 61.0239C44.2173 61.1112 43.7345 61.0239 43.6906 60.9365C43.515 60.587 43.3834 60.1938 43.3834 59.8443C43.3834 56.3493 43.3834 52.8979 43.3834 49.4466C43.3834 48.6602 43.515 47.8301 43.2956 47.1311C43.12 46.5632 42.5494 45.8641 42.0227 45.6894C41.6277 45.5146 40.8377 45.9078 40.4426 46.301C40.1354 46.6505 40.0476 47.3495 40.0476 47.8738C40.0037 50.4514 40.0476 53.029 40.0476 55.6066ZM44.744 52.2426C47.6847 51.5436 49.0015 52.4173 49.6159 55.3444C49.8354 55.3007 50.0548 55.2134 50.3182 55.1697C52.3372 54.6891 54.1367 55.9998 54.1367 58.1405C54.2245 62.2471 54.2245 66.3538 54.0051 70.4168C53.7856 74.6982 50.801 77.5816 46.5435 78.1495C44.4806 78.4117 42.5055 78.3243 40.5304 77.7127C38.9503 77.2321 37.6775 76.271 37.063 74.7856C35.4829 71.0284 32.8933 67.9266 30.2159 64.9558C28.9431 63.5578 28.987 61.6355 30.2598 60.4996C31.6205 59.32 33.5078 59.4948 34.8245 60.9365C35.6585 61.8539 36.4924 62.7714 37.3702 63.6888C37.5897 63.9073 37.9408 64.0383 38.2481 64.2131C38.4236 63.8636 38.687 63.5141 38.687 63.1646C38.687 58.9705 38.687 54.7328 38.687 50.5388C38.687 49.3592 38.6431 48.1796 38.687 47C38.7748 45.3836 40.0476 44.204 41.6277 44.1603C43.2956 44.1166 44.6123 45.3399 44.7001 47C44.744 47.8738 44.744 48.7475 44.744 49.6213C44.744 50.4951 44.744 51.3251 44.744 52.2426Z" stroke="#F58B71" stroke-width="0.0135276"/>
<path fill-rule="evenodd" clip-rule="evenodd" d="M23.0589 36.3591C26.1752 36.3154 26.0435 36.2717 25.9996 39.2862C25.9557 40.7279 25.8241 40.9026 24.3318 40.9463C23.3223 40.9463 22.3128 40.9463 21.3472 40.9026C21.1277 40.9026 20.8644 40.99 20.6888 40.8589C19.1965 40.0726 19.9865 38.6745 19.8988 37.495C19.811 36.7086 20.3816 36.3591 21.1716 36.3591C21.7861 36.3591 22.4006 36.3591 23.0589 36.3591Z" fill="#F58B71"/>
<path fill-rule="evenodd" clip-rule="evenodd" d="M23.0589 36.3591C26.1752 36.3154 26.0435 36.2717 25.9996 39.2862C25.9557 40.7279 25.8241 40.9026 24.3318 40.9463C23.3223 40.9463 22.3128 40.9463 21.3472 40.9026C21.1277 40.9026 20.8644 40.99 20.6888 40.8589C19.1965 40.0726 19.9865 38.6745 19.8988 37.495C19.811 36.7086 20.3816 36.3591 21.1716 36.3591C21.7861 36.3591 22.4006 36.3591 23.0589 36.3591Z" stroke="#F58B71" stroke-width="0.0135276"/>
<path fill-rule="evenodd" clip-rule="evenodd" d="M32.2752 40.9553C28.9833 40.9553 29.2906 41.13 29.2906 37.9408C29.2906 36.6302 29.51 36.368 30.8268 36.368C31.8802 36.3244 32.9775 36.368 34.0309 36.368C34.9965 36.368 35.3915 36.7612 35.3476 37.7224C35.3476 38.2903 35.3476 38.902 35.3476 39.4699C35.3476 40.6932 35.0843 40.9116 33.8114 40.9553C33.2847 40.9553 32.8019 40.9553 32.2752 40.9553Z" fill="#F58B71"/>
<path fill-rule="evenodd" clip-rule="evenodd" d="M32.2752 40.9553C28.9833 40.9553 29.2906 41.13 29.2906 37.9408C29.2906 36.6302 29.51 36.368 30.8268 36.368C31.8802 36.3244 32.9775 36.368 34.0309 36.368C34.9965 36.368 35.3915 36.7612 35.3476 37.7224C35.3476 38.2903 35.3476 38.902 35.3476 39.4699C35.3476 40.6932 35.0843 40.9116 33.8114 40.9553C33.2847 40.9553 32.8019 40.9553 32.2752 40.9553Z" stroke="#F58B71" stroke-width="0.0135276"/>
<path fill-rule="evenodd" clip-rule="evenodd" d="M41.5752 40.9359C38.3711 40.9359 38.6784 41.1106 38.6784 37.9651C38.6784 36.5671 38.8978 36.3486 40.3462 36.3486C41.3996 36.3486 42.453 36.3486 43.4625 36.3486C44.2525 36.3486 44.7354 36.6981 44.7354 37.5282C44.7354 38.2272 44.7354 38.9262 44.7354 39.6252C44.7354 40.5427 44.2964 40.9796 43.3747 40.9359C42.7602 40.8922 42.1897 40.9359 41.5752 40.9359Z" fill="#F58B71"/>
<path fill-rule="evenodd" clip-rule="evenodd" d="M41.5752 40.9359C38.3711 40.9359 38.6784 41.1106 38.6784 37.9651C38.6784 36.5671 38.8978 36.3486 40.3462 36.3486C41.3996 36.3486 42.453 36.3486 43.4625 36.3486C44.2525 36.3486 44.7354 36.6981 44.7354 37.5282C44.7354 38.2272 44.7354 38.9262 44.7354 39.6252C44.7354 40.5427 44.2964 40.9796 43.3747 40.9359C42.7602 40.8922 42.1897 40.9359 41.5752 40.9359Z" stroke="#F58B71" stroke-width="0.0135276"/>
<path fill-rule="evenodd" clip-rule="evenodd" d="M22.9026 48.6775H22.8148C19.5669 48.7212 19.8302 48.9396 19.8741 45.3135C19.8741 44.6145 20.2691 44.1776 21.0592 44.1776C22.2881 44.1776 23.561 44.1339 24.8339 44.1776C25.8872 44.1776 26.0189 44.5708 26.0189 47.1921C26.0189 48.0222 25.9311 48.7212 24.79 48.6775C24.1755 48.6775 23.5171 48.6775 22.9026 48.6775Z" fill="#F58B71"/>
<path fill-rule="evenodd" clip-rule="evenodd" d="M22.9026 48.6775H22.8148C19.5669 48.7212 19.8302 48.9396 19.8741 45.3135C19.8741 44.6145 20.2691 44.1776 21.0592 44.1776C22.2881 44.1776 23.561 44.1339 24.8339 44.1776C25.8872 44.1776 26.0189 44.5708 26.0189 47.1921C26.0189 48.0222 25.9311 48.7212 24.79 48.6775C24.1755 48.6775 23.5171 48.6775 22.9026 48.6775Z" stroke="#F58B71" stroke-width="0.0135276"/>
<path fill-rule="evenodd" clip-rule="evenodd" d="M22.8527 56.4318C22.2821 56.4318 21.7115 56.3882 21.1848 56.4318C20.1753 56.5192 19.8681 55.995 19.8681 55.1212C19.8242 51.6699 19.6486 51.9757 22.8088 51.9757C23.4672 51.9757 24.1694 51.9757 24.8278 51.9757C25.6617 51.9757 26.0129 52.3689 26.0129 53.1989C25.969 56.7377 26.4079 56.4755 22.8527 56.4318Z" fill="#F58B71"/>
<path fill-rule="evenodd" clip-rule="evenodd" d="M22.8527 56.4318C22.2821 56.4318 21.7115 56.3882 21.1848 56.4318C20.1753 56.5192 19.8681 55.995 19.8681 55.1212C19.8242 51.6699 19.6486 51.9757 22.8088 51.9757C23.4672 51.9757 24.1694 51.9757 24.8278 51.9757C25.6617 51.9757 26.0129 52.3689 26.0129 53.1989C25.969 56.7377 26.4079 56.4755 22.8527 56.4318Z" stroke="#F58B71" stroke-width="0.0135276"/>
<path fill-rule="evenodd" clip-rule="evenodd" d="M32.2257 48.6578C29.1094 48.6578 29.285 49.051 29.285 45.7744C29.285 44.4201 29.5045 44.1579 30.8651 44.1143C31.9185 44.1143 33.0158 44.1143 34.0692 44.1579C34.9031 44.1579 35.3859 44.5074 35.342 45.4249C35.2982 46.0365 35.2982 46.6482 35.342 47.3035C35.4298 48.352 34.9031 48.7452 33.8936 48.7015C33.323 48.6578 32.7963 48.6578 32.2257 48.6578Z" fill="#F58B71"/>
<path fill-rule="evenodd" clip-rule="evenodd" d="M32.2257 48.6578C29.1094 48.6578 29.285 49.051 29.285 45.7744C29.285 44.4201 29.5045 44.1579 30.8651 44.1143C31.9185 44.1143 33.0158 44.1143 34.0692 44.1579C34.9031 44.1579 35.3859 44.5074 35.342 45.4249C35.2982 46.0365 35.2982 46.6482 35.342 47.3035C35.4298 48.352 34.9031 48.7452 33.8936 48.7015C33.323 48.6578 32.7963 48.6578 32.2257 48.6578Z" stroke="#F58B71" stroke-width="0.0135276"/>
<path fill-rule="evenodd" clip-rule="evenodd" d="M32.2286 56.4319C28.9367 56.4756 29.3317 56.6504 29.2878 53.5485C29.2878 52.1068 29.4634 51.9758 30.9118 51.9758C31.9213 51.9758 32.8869 51.9758 33.8964 51.9758C34.1159 51.9758 34.3792 51.9321 34.5548 52.0195C36.1349 52.8058 35.0815 54.2475 35.3448 55.3834C35.4765 56.0824 34.9498 56.4319 34.2476 56.4319C33.5453 56.4319 32.8869 56.4319 32.2286 56.4319Z" fill="#F58B71"/>
<path fill-rule="evenodd" clip-rule="evenodd" d="M32.2286 56.4319C28.9367 56.4756 29.3317 56.6504 29.2878 53.5485C29.2878 52.1068 29.4634 51.9758 30.9118 51.9758C31.9213 51.9758 32.8869 51.9758 33.8964 51.9758C34.1159 51.9758 34.3792 51.9321 34.5548 52.0195C36.1349 52.8058 35.0815 54.2475 35.3448 55.3834C35.4765 56.0824 34.9498 56.4319 34.2476 56.4319C33.5453 56.4319 32.8869 56.4319 32.2286 56.4319Z" stroke="#F58B71" stroke-width="0.0135276"/>
<path fill-rule="evenodd" clip-rule="evenodd" d="M38.5181 90.8448C44.2978 93.0306 50.618 94.235 57.2407 94.235C65.4483 94.235 73.1732 92.3564 80.0203 89.0798C71.6809 95.3708 61.2787 99.128 49.9547 99.128C43.5556 99.128 37.4375 97.9242 31.8165 95.7319L38.5181 90.8448ZM24.4461 82.7588C14.0121 74.2507 7.42396 61.7545 7.42396 47.8383C7.42396 22.2372 29.7208 1.4417 57.2407 1.4417C59.2597 1.4417 61.2787 1.57277 63.2099 1.79121C58.9963 0.611632 54.5633 0 49.9547 0C22.4787 0 0.181885 22.1935 0.181885 49.5858C0.181885 67.0394 9.26296 82.3933 22.9759 91.219L24.4461 82.7588Z" fill="#F47D5C"/>
<path d="M28.4617 79.6514L21.5269 102.107L39.9173 85.1561L28.4617 79.6514Z" fill="#377044"/>
<path fill-rule="evenodd" clip-rule="evenodd" d="M15.8339 48.6537C15.8339 69.755 33.0393 86.837 54.1949 86.837C68.2716 86.837 80.5679 79.3053 87.2416 68.0663H92.0548C84.9845 81.7095 70.6901 91.031 54.1949 91.031C30.6692 91.031 11.6204 72.0705 11.6204 48.6537C11.6204 25.2369 30.6692 6.27637 54.1949 6.27637C69.8796 6.27637 83.5743 14.7043 90.9607 27.2617H85.9824C79.0881 17.1266 67.4282 10.4704 54.1949 10.4704C33.0393 10.4704 15.8339 27.5524 15.8339 48.6537Z" fill="#377044"/>
<path d="M69.749 53.0732H71.5485V63.1215H69.749V53.0732Z" fill="#373435"/>
<path d="M73.7725 55.5546H75.2648L75.3964 56.6031H75.4403C76.0987 55.9478 76.8887 55.3799 77.9421 55.3799C79.5661 55.3799 80.2684 56.4721 80.2684 58.3944V63.1127H78.4688V58.6128C78.4688 57.3895 78.1177 56.909 77.2838 56.909C76.6254 56.909 76.1865 57.2148 75.572 57.8701V63.1127H73.7725V55.5546Z" fill="#373435"/>
<path d="M85.3015 61.8733C85.916 61.8733 86.3988 61.6112 86.8816 61.0433V57.5045C86.3988 57.0676 85.8721 56.8929 85.3454 56.8929C84.3798 56.8929 83.5898 57.7667 83.5898 59.3831C83.5898 60.9996 84.2042 61.8733 85.3015 61.8733ZM84.9504 55.4075C85.8282 55.4075 86.3988 55.757 86.9694 56.2376L86.8816 55.0143V52.3057H88.6812V63.1403H87.2327L87.1011 62.3539H87.0133C86.4866 62.8781 85.6965 63.315 84.8626 63.315C82.9753 63.315 81.7463 61.8733 81.7463 59.3831C81.7463 56.9366 83.3264 55.4075 84.9504 55.4075Z" fill="#373435"/>
<path d="M90.7546 55.581H92.5103V63.1391H90.7546V55.581ZM90.5352 53.2656C90.5352 52.6976 91.018 52.2607 91.6324 52.2607C92.2908 52.2607 92.7297 52.6976 92.7297 53.2656C92.7297 53.8772 92.2908 54.2704 91.6324 54.2704C91.018 54.2704 90.5352 53.8772 90.5352 53.2656Z" fill="#373435"/>
<path d="M97.0717 61.9331C97.6862 61.9331 98.169 61.6273 98.7396 61.103V59.3992C96.6767 59.6613 95.9745 60.1856 95.9745 60.972C95.9745 61.6273 96.4573 61.9331 97.0717 61.9331ZM98.7396 58.307C98.6957 57.4769 98.3885 56.8216 97.3351 56.8216C96.5889 56.8216 95.8867 57.1711 95.2283 57.5643L94.5699 56.3847C95.4039 55.8605 96.4573 55.3799 97.6862 55.3799C99.5735 55.3799 100.495 56.5595 100.495 58.6565V63.1127H99.0468L98.9152 62.2826H98.8713C98.169 62.8505 97.4229 63.2874 96.5011 63.2874C95.1844 63.2874 94.2627 62.4137 94.2627 61.103C94.2627 59.4866 95.6233 58.6128 98.7396 58.307Z" fill="#373435"/>
<path d="M106.62 45.9759C107.849 45.9759 108.859 45.5827 109.605 44.7963C110.351 43.9662 110.746 42.9177 110.746 41.6071C110.746 40.2527 110.351 39.2042 109.605 38.4178C108.859 37.5878 107.849 37.1946 106.62 37.1946C105.435 37.1946 104.426 37.5878 103.679 38.4178C102.933 39.2042 102.538 40.2527 102.538 41.6071C102.538 42.9177 102.933 43.9662 103.679 44.7963C104.426 45.5827 105.435 45.9759 106.62 45.9759ZM106.62 49.3398C104.47 49.3398 102.626 48.5971 101.134 47.1554C99.6854 45.7137 98.9392 43.8788 98.9392 41.6071C98.9392 39.3353 99.6854 37.4567 101.178 36.0587C102.626 34.617 104.47 33.918 106.62 33.918C108.815 33.918 110.658 34.617 112.107 36.0587C113.599 37.5004 114.345 39.3353 114.345 41.6071C114.345 43.8788 113.599 45.7137 112.107 47.1554C110.658 48.5971 108.815 49.3398 106.62 49.3398Z" fill="#377044"/>
<path d="M58.8518 45.8358H62.4947C63.5481 45.8358 64.1625 46.4038 64.1625 47.4086C64.1625 48.4134 63.5481 48.9377 62.4947 48.9377H57.0961C55.8233 48.9377 55.4722 48.7193 55.4722 47.5397V36.2682C55.4722 34.8265 56.1744 34.2148 57.1839 34.2148C58.1056 34.2148 58.8518 34.8265 58.8518 36.2682V45.8358Z" fill="#377044"/>
<path d="M67.6446 34.2148C68.6102 34.2148 69.3125 34.8265 69.3125 36.2245V46.928C69.3125 48.3697 68.6102 48.9377 67.6446 48.9377C66.6351 48.9377 65.9329 48.3697 65.9329 46.928V36.3992C65.9329 34.7391 66.6351 34.2148 67.6446 34.2148Z" fill="#377044"/>
<path d="M75.1016 43.1709V46.928C75.1016 48.3697 74.3994 48.9377 73.4338 48.9377C72.4242 48.9377 71.7659 48.3697 71.7659 46.928V36.2245C71.7659 34.8265 72.4242 34.2148 73.4338 34.2148C74.3994 34.2148 75.1016 34.8265 75.1016 36.2245V39.7195L79.8419 35.176C80.8075 34.0838 81.7732 34.1275 82.3876 34.6517C83.046 35.176 83.2216 36.2245 82.256 37.1856L77.5596 41.4234L81.2465 45.2242C81.6854 45.7485 82.0804 46.0106 82.4315 46.0543C82.6949 46.098 82.9582 46.1853 83.1777 46.3164C83.5288 46.5785 83.7044 46.9717 83.7483 47.4523C83.7922 48.2387 83.3533 48.7192 82.4315 48.9814C81.2904 49.2435 80.5881 48.9377 79.2713 47.627L75.1016 43.1709Z" fill="#377044"/>
<path d="M88.6008 43.0398V46.928C88.6008 48.3697 87.8986 48.9377 86.933 48.9377C85.9235 48.9377 85.2212 48.3697 85.2212 46.928V36.2245C85.2212 34.8265 85.9235 34.2148 86.933 34.2148C87.8986 34.2148 88.6008 34.8265 88.6008 36.2245V39.8943H93.5606V36.2245C93.5606 34.8265 94.2628 34.2148 95.2284 34.2148C96.2379 34.2148 96.9402 34.8265 96.9402 36.2245V46.928C96.9402 48.3697 96.2379 48.9377 95.2284 48.9377C94.2628 48.9377 93.5606 48.3697 93.5606 46.928V43.0398H88.6008Z" fill="#377044"/>
</svg>
