<svg width="60" height="54" viewBox="0 0 60 54" fill="none" xmlns="http://www.w3.org/2000/svg">
<g clip-path="url(#clip0)">
<path fill-rule="evenodd" clip-rule="evenodd" d="M24.2206 27.1895C25.7364 26.8106 26.4312 27.2843 26.747 28.8C26.8733 28.7685 26.9996 28.7369 27.0943 28.7053C28.1364 28.4527 29.0838 29.1474 29.0838 30.2527C29.1154 32.3685 29.1154 34.5158 29.0206 36.6316C28.8943 38.8737 27.347 40.3579 25.168 40.6422C24.0943 40.7685 23.0522 40.7369 22.0417 40.4211C21.2206 40.1685 20.5575 39.6948 20.2417 38.9053C19.3891 36.9474 18.0627 35.3685 16.6733 33.7895C16.0101 33.0632 16.0417 32.0527 16.7048 31.4843C17.3996 30.8527 18.3785 30.9474 19.0417 31.7053C19.4838 32.179 19.9259 32.6843 20.368 33.1579C20.4943 33.2843 20.6838 33.3474 20.8417 33.4422C20.9048 33.2527 21.0627 33.0632 21.0627 32.9053C21.0627 30.7264 21.0627 28.5158 21.0627 26.3369C21.0627 25.7369 21.0627 25.1053 21.0627 24.5053C21.0943 23.6843 21.7575 23.0527 22.5785 23.0211C23.4312 22.9895 24.1259 23.6527 24.1575 24.5053C24.1891 24.979 24.1575 25.4211 24.1891 25.8948C24.2206 26.2737 24.2206 26.7158 24.2206 27.1895ZM21.7575 28.9579C21.7575 30.2843 21.7575 31.6106 21.7575 32.9369C21.7575 33.4737 21.6627 33.9158 21.0943 34.1369C20.5259 34.3579 20.147 34.0737 19.7996 33.6632C19.3259 33.1579 18.9154 32.5895 18.3785 32.1474C18.1575 31.9579 17.6838 31.8632 17.4312 31.9579C17.2101 32.0211 16.9575 32.4316 16.9575 32.7158C16.9575 32.9685 17.1785 33.2527 17.368 33.4737C18.6943 34.9579 19.9891 36.4737 20.747 38.3685C21.0943 39.2211 21.7891 39.7264 22.7048 39.8843C23.3048 39.979 23.8733 40.0106 24.4733 40.0106C26.4627 40.0106 27.9785 38.9053 28.168 36.9474C28.3891 34.7053 28.2943 32.4316 28.2943 30.1579C28.2943 29.6843 27.9154 29.4316 27.4733 29.4316C27.0312 29.4316 26.7154 29.7158 26.6522 30.1579C26.6206 30.5053 26.6522 30.8843 26.5891 31.2632C26.5575 31.4527 26.3996 31.7685 26.2417 31.8C25.8627 31.8632 25.8627 31.5158 25.8627 31.2316C25.8627 30.4106 25.8627 29.5895 25.8627 28.7685C25.8627 28.1053 25.3259 27.6632 24.7891 27.8527C24.347 28.0106 24.1891 28.3579 24.1575 28.8C24.1575 29.6527 24.1575 30.5053 24.1259 31.3264C24.1259 31.4843 23.9996 31.6737 23.9048 31.8C23.8733 31.8316 23.6206 31.8001 23.5891 31.7685C23.4943 31.579 23.4312 31.3895 23.4312 31.2001C23.4312 29.4001 23.4312 27.6 23.4312 25.7685C23.4312 25.3579 23.4943 24.9474 23.3996 24.5685C23.3048 24.2843 23.0206 23.9369 22.7364 23.8106C22.5154 23.7474 22.1048 23.9369 21.9154 24.1264C21.8206 24.2843 21.7891 24.6316 21.7891 24.9158C21.7575 26.2422 21.7575 27.6 21.7575 28.9579Z" fill="#F18769"/>
<path fill-rule="evenodd" clip-rule="evenodd" d="M12.9786 18.9159C14.5891 18.8843 14.526 18.8843 14.4944 20.4316C14.4944 21.1895 14.3997 21.2843 13.6418 21.2843C13.1365 21.2843 12.5997 21.2843 12.0944 21.2843C11.9681 21.2843 11.8418 21.3159 11.747 21.2527C10.9891 20.8106 11.3997 20.0843 11.3365 19.4843C11.3049 19.0738 11.5891 18.8843 11.9997 18.8843C12.3155 18.9159 12.6312 18.9159 12.9786 18.9159Z" fill="#F18769"/>
<path fill-rule="evenodd" clip-rule="evenodd" d="M17.7465 21.2844C16.0413 21.2844 16.1992 21.3792 16.1992 19.7371C16.1992 19.0423 16.3255 18.916 16.9886 18.916C17.5571 18.916 18.0939 18.916 18.6623 18.916C19.136 18.916 19.3571 19.1371 19.3571 19.6108C19.3571 19.9265 19.3571 20.2108 19.3571 20.5265C19.3571 21.1581 19.1992 21.2844 18.5676 21.2844C18.2834 21.2844 17.9992 21.2844 17.7465 21.2844Z" fill="#F18769"/>
<path fill-rule="evenodd" clip-rule="evenodd" d="M22.5784 21.2844C20.9047 21.2844 21.0626 21.3792 21.0626 19.7686C21.0626 19.0423 21.1889 18.916 21.9468 18.916C22.4836 18.916 23.0205 18.916 23.5573 18.916C23.9678 18.916 24.2205 19.1055 24.2205 19.5476C24.2205 19.9265 24.2205 20.2739 24.2205 20.6529C24.2205 21.1265 23.9678 21.3476 23.4942 21.316C23.1784 21.2844 22.8942 21.2844 22.5784 21.2844Z" fill="#F18769"/>
<path fill-rule="evenodd" clip-rule="evenodd" d="M12.8837 25.3265C12.8521 25.3265 12.8521 25.3265 12.8205 25.3265C11.1469 25.358 11.3048 25.4528 11.3048 23.5896C11.3048 23.2107 11.5258 22.9896 11.9048 22.9896C12.5679 22.9896 13.1995 22.958 13.8627 22.9896C14.4311 22.9896 14.4942 23.1791 14.4942 24.5686C14.4942 25.0107 14.4311 25.3896 13.8627 25.358C13.5469 25.3265 13.1995 25.3265 12.8837 25.3265Z" fill="#F18769"/>
<path fill-rule="evenodd" clip-rule="evenodd" d="M12.8531 29.3682C12.5689 29.3682 12.2846 29.3366 12.0004 29.3682C11.4952 29.3998 11.3057 29.1156 11.3057 28.6735C11.3057 26.8735 11.211 27.0313 12.8531 27.0313C13.2004 27.0313 13.5478 27.0313 13.8952 27.0313C14.3373 27.0313 14.5268 27.2524 14.4952 27.6629C14.4952 29.5261 14.7162 29.3682 12.8531 29.3682Z" fill="#F18769"/>
<path fill-rule="evenodd" clip-rule="evenodd" d="M17.7161 25.3264C16.1055 25.3264 16.2003 25.5159 16.2003 23.8106C16.2003 23.1159 16.3266 22.958 17.0213 22.958C17.5897 22.958 18.1266 22.958 18.695 22.958C19.1371 22.958 19.3897 23.1475 19.3582 23.6212C19.3266 23.937 19.3266 24.2843 19.3582 24.6001C19.3897 25.1685 19.1055 25.358 18.6003 25.3264C18.3161 25.3264 18.0003 25.3264 17.7161 25.3264Z" fill="#F18769"/>
<path fill-rule="evenodd" clip-rule="evenodd" d="M17.7174 29.3687C16.0121 29.3687 16.2016 29.4634 16.2016 27.8529C16.2016 27.095 16.2963 27.0318 17.0226 27.0318C17.5279 27.0318 18.0647 27.0318 18.57 27.0318C18.6963 27.0318 18.8226 27.0002 18.9174 27.0634C19.7384 27.4739 19.2016 28.2318 19.2963 28.8002C19.3595 29.1792 19.1068 29.3371 18.7279 29.3687C18.4121 29.3687 18.0647 29.3687 17.7174 29.3687Z" fill="#F18769"/>
<path d="M29.5579 49.0421C15.3158 49.0421 3.75789 38.2421 3.75789 24.9158C3.75789 11.5895 15.3158 0.789474 29.5579 0.789474C30.6 0.789474 31.6421 0.852632 32.6842 0.978947C30.4737 0.315789 28.1684 0 25.8 0C11.5579 0 0 11.5579 0 25.8C0 40.0421 11.5579 51.6 25.8 51.6C31.6421 51.6 37.0421 49.6421 41.3684 46.3579C37.8316 48.0632 33.8211 49.0421 29.5579 49.0421Z" fill="#EE734E"/>
<path d="M12.8508 41.3687L21.4719 46.1055L10.6719 54.0002L12.8508 41.3687Z" fill="#F8F9FA"/>
<path d="M27.9796 3.28418C15.7901 3.28418 5.9375 13.1684 5.9375 25.3263C5.9375 37.5158 15.8217 47.3684 27.9796 47.3684C40.1691 47.3684 50.0217 37.4842 50.0217 25.3263C50.0217 13.1368 40.1691 3.28418 27.9796 3.28418ZM27.9796 45.1894C16.9901 45.1894 8.11645 36.2842 8.11645 25.3263C8.11645 14.3368 17.0217 5.46313 27.9796 5.46313C38.9375 5.46313 47.8428 14.3684 47.8428 25.3263C47.8428 36.3158 38.9375 45.1894 27.9796 45.1894Z" fill="#246830"/>
<path d="M14.6508 41.4634L11.0508 53.1476L20.556 44.3055L14.6508 41.4634Z" fill="#246830"/>
<path d="M51.0653 16.2002H42.918V34.4212H51.0653V16.2002Z" fill="#F8F9FA"/>
<path d="M36.0312 27.6318H36.947V32.8424H36.0312V27.6318Z" fill="black"/>
<path d="M38.1133 28.9263H38.8712L38.9343 29.4631H38.9659C39.3133 29.1158 39.7238 28.8315 40.2607 28.8315C41.1133 28.8315 41.4607 29.4 41.4607 30.3789V32.8421H40.5449V30.5052C40.5449 29.8421 40.3554 29.621 39.9133 29.621C39.5659 29.621 39.3449 29.7789 39.0291 30.0947V32.8421H38.1133V28.9263Z" fill="black"/>
<path d="M43.9282 28.8317C44.3703 28.8317 44.6545 28.9896 44.9703 29.2738L44.9387 28.6422V27.2212H45.8545V32.8423H45.0966L45.0334 32.4317H45.0018C44.7176 32.7159 44.3071 32.937 43.8966 32.937C42.9176 32.937 42.286 32.1791 42.286 30.8844C42.2545 29.6212 43.0755 28.8317 43.9282 28.8317ZM44.086 32.1791C44.4018 32.1791 44.6545 32.0528 44.9071 31.737V29.9054C44.6229 29.6528 44.3703 29.5896 44.1176 29.5896C43.6124 29.5896 43.2018 30.0633 43.2018 30.8844C43.2018 31.737 43.5176 32.1791 44.086 32.1791Z" fill="black"/>
<path d="M46.7969 27.7263C46.7969 27.4105 47.0495 27.1895 47.3653 27.1895C47.6811 27.1895 47.9337 27.4105 47.9337 27.7263C47.9337 28.0421 47.6811 28.2316 47.3653 28.2316C47.0495 28.2316 46.7969 28.0105 46.7969 27.7263ZM46.8916 28.9263H47.8074V32.8421H46.8916V28.9263Z" fill="black"/>
<path d="M51.0325 30.3473C51.0325 29.9368 50.843 29.5894 50.3062 29.5894C49.9272 29.5894 49.5483 29.7789 49.2009 29.9684L48.8535 29.3368C49.2956 29.0526 49.8325 28.8315 50.4641 28.8315C51.443 28.8315 51.9167 29.4315 51.9167 30.5368V32.8737H51.1588L51.0956 32.4316H51.0641C50.7167 32.7158 50.3062 32.9684 49.8325 32.9684C49.1377 32.9684 48.6641 32.4947 48.6641 31.8C48.7272 30.9473 49.422 30.5052 51.0325 30.3473ZM50.1798 32.2421C50.4956 32.2421 50.7483 32.0842 51.0325 31.8V30.9158C49.9588 31.0421 49.6114 31.3263 49.6114 31.7368C49.6114 32.0842 49.8641 32.2421 50.1798 32.2421Z" fill="black"/>
<path d="M55.1352 25.8004C53.9984 25.8004 53.051 25.4214 52.2931 24.6951C51.5352 23.9372 51.1562 22.9898 51.1562 21.7898C51.1562 20.5898 51.5352 19.6425 52.2931 18.8846C53.051 18.1582 53.9984 17.7793 55.1352 17.7793C56.272 17.7793 57.2194 18.1582 57.9773 18.9161C58.7352 19.6425 59.1141 20.6214 59.1141 21.7898C59.1141 22.9582 58.7352 23.9372 57.9773 24.6951C57.2194 25.4214 56.272 25.8004 55.1352 25.8004ZM55.1352 24.0635C55.7668 24.0635 56.272 23.8425 56.6826 23.4319C57.0931 23.0214 57.2826 22.453 57.2826 21.7582C57.2826 21.0635 57.0931 20.5267 56.6826 20.1161C56.3036 19.7056 55.7668 19.4846 55.1352 19.4846C54.5036 19.4846 53.9984 19.7056 53.5878 20.1161C53.2089 20.5267 52.9878 21.0951 52.9878 21.7582C52.9878 22.453 53.1773 22.9898 53.5878 23.4319C53.9984 23.8425 54.5036 24.0635 55.1352 24.0635Z" fill="#246830"/>
<path d="M30.3778 24.0003H32.2725C32.8094 24.0003 33.1252 24.2845 33.1252 24.8214C33.1252 25.3582 32.8094 25.6424 32.2725 25.6424H29.462C28.7989 25.6424 28.6094 25.5161 28.6094 24.9161V19.0109C28.6094 18.2845 28.9567 17.9688 29.4936 17.9688C29.9989 17.9688 30.3778 18.2845 30.3778 19.0109V24.0003Z" fill="#246830"/>
<path d="M34.9545 17.937C35.4598 17.937 35.8387 18.2528 35.8387 18.9791V24.537C35.8387 25.2949 35.4598 25.6107 34.9545 25.6107C34.4493 25.6107 34.0703 25.2949 34.0703 24.537V19.1054C34.0703 18.2212 34.4177 17.937 34.9545 17.937Z" fill="#246830"/>
<path d="M38.8114 22.6109V24.5688C38.8114 25.3266 38.4324 25.6424 37.9272 25.6424C37.4219 25.6424 37.043 25.3266 37.043 24.5688V19.0109C37.043 18.2845 37.3903 17.9688 37.9272 17.9688C38.4324 17.9688 38.8114 18.2845 38.8114 19.0109V20.8424L41.243 18.474C41.7482 17.9056 42.2535 17.9372 42.5693 18.1898C42.9167 18.474 43.0114 19.0109 42.5061 19.5161L40.0746 21.7266L42.0009 23.6845C42.2219 23.9372 42.443 24.0951 42.6324 24.1266C42.7903 24.1266 42.9167 24.1898 43.0114 24.253C43.2009 24.4109 43.2956 24.6003 43.2956 24.853C43.3272 25.2635 43.0746 25.5161 42.6009 25.6424C42.0324 25.7688 41.6535 25.6109 40.9903 24.9477L38.8114 22.6109Z" fill="#246830"/>
<path d="M45.788 22.5477V24.5688C45.788 25.3266 45.409 25.6424 44.9037 25.6424C44.3985 25.6424 44.0195 25.3266 44.0195 24.5688V19.0109C44.0195 18.2845 44.3669 17.9688 44.9037 17.9688C45.409 17.9688 45.788 18.2845 45.788 19.0109V20.9372H48.3459V19.0109C48.3459 18.2845 48.7248 17.9688 49.2301 17.9688C49.7353 17.9688 50.1143 18.2845 50.1143 19.0109V24.5688C50.1143 25.3266 49.7669 25.6424 49.2301 25.6424C48.7248 25.6424 48.3459 25.3266 48.3459 24.5688V22.5477H45.788Z" fill="#246830"/>
</g>
<defs>
<clipPath id="clip0">
<rect width="59.1474" height="54" fill="white"/>
</clipPath>
</defs>
</svg>
