<svg width="114" height="103" viewBox="0 0 114 103" fill="none" xmlns="http://www.w3.org/2000/svg">
<path fill-rule="evenodd" clip-rule="evenodd" d="M39.2497 90.8309C45.0333 93.0255 51.3583 94.235 57.9845 94.235C66.1921 94.235 73.9609 92.3564 80.8079 89.0798C72.4247 95.3708 62.0224 99.128 50.7424 99.128C44.324 99.128 38.1896 97.9208 32.556 95.7225L39.2497 90.8309ZM25.1997 82.7366C14.7884 74.229 8.21173 61.7424 8.21173 47.8383C8.21173 22.2372 30.5085 1.4417 57.9845 1.4417C60.0034 1.4417 62.0224 1.57277 63.9976 1.79121C59.784 0.611632 55.3071 0 50.7424 0C23.2226 0 0.925781 22.1935 0.925781 49.5858C0.925781 67.0373 10.0047 82.3896 23.7262 91.2158L25.1997 82.7366Z" fill="#F47D5C"/>
<path d="M29.2454 79.6514L22.3105 102.107L40.6571 85.1561L29.2454 79.6514Z" fill="#377044"/>
<path fill-rule="evenodd" clip-rule="evenodd" d="M16.5837 48.6537C16.5837 69.755 33.7452 86.837 54.9447 86.837C68.9923 86.837 81.2982 79.3053 87.9816 68.0663H92.7964C85.7159 81.7095 71.4092 91.031 54.9447 91.031C31.4189 91.031 12.3701 72.0705 12.3701 48.6537C12.3701 25.2369 31.4189 6.27637 54.9447 6.27637C70.6001 6.27637 84.3047 14.7043 91.7009 27.2617H86.7206C79.8173 17.1266 68.1506 10.4704 54.9447 10.4704C33.7452 10.4704 16.5837 27.5524 16.5837 48.6537Z" fill="#377044"/>
<path d="M70.533 53.0732H72.2886V63.1215H70.533V53.0732Z" fill="#373435"/>
<path d="M74.5222 55.5546H75.9706L76.1023 56.6031H76.1462C76.8485 55.9478 77.6385 55.3799 78.648 55.3799C80.272 55.3799 80.9742 56.4721 80.9742 58.3944V63.1127H79.2186V58.6128C79.2186 57.3895 78.8675 56.909 78.0335 56.909C77.3752 56.909 76.9362 57.2148 76.2779 57.8701V63.1127H74.5222V55.5546Z" fill="#373435"/>
<path d="M86.0901 61.8733C86.6607 61.8733 87.1435 61.6112 87.6702 61.0433V57.5045C87.1435 57.0676 86.6168 56.8929 86.134 56.8929C85.1684 56.8929 84.3783 57.7667 84.3783 59.3831C84.3783 60.9996 84.9928 61.8733 86.0901 61.8733ZM85.739 55.4075C86.6168 55.4075 87.1435 55.757 87.7141 56.2376L87.6702 55.0143V52.3057H89.4258V63.1403H87.9774L87.8458 62.3539H87.8019C87.2313 62.8781 86.4412 63.315 85.6512 63.315C83.7639 63.315 82.5349 61.8733 82.5349 59.3831C82.5349 56.9366 84.0711 55.4075 85.739 55.4075Z" fill="#373435"/>
<path d="M91.4558 55.581H93.2553V63.1391H91.4558V55.581ZM91.2803 53.2656C91.2803 52.6976 91.7192 52.2607 92.3775 52.2607C92.992 52.2607 93.4748 52.6976 93.4748 53.2656C93.4748 53.8772 92.992 54.2704 92.3775 54.2704C91.7192 54.2704 91.2803 53.8772 91.2803 53.2656Z" fill="#373435"/>
<path d="M97.8207 61.9331C98.4352 61.9331 98.918 61.6273 99.4447 61.103V59.3992C97.3818 59.6613 96.7234 60.1856 96.7234 60.972C96.7234 61.6273 97.1623 61.9331 97.8207 61.9331ZM99.4447 58.307C99.4447 57.4769 99.0935 56.8216 98.084 56.8216C97.3379 56.8216 96.5917 57.1711 95.9334 57.5643L95.275 56.3847C96.1089 55.8605 97.2062 55.3799 98.3913 55.3799C100.322 55.3799 101.244 56.5595 101.244 58.6565V63.1127H99.7958L99.6202 62.2826H99.5763C98.918 62.8505 98.1279 63.2874 97.2501 63.2874C95.9334 63.2874 94.9678 62.4137 94.9678 61.103C94.9678 59.4866 96.3284 58.6128 99.4447 58.307Z" fill="#373435"/>
<path d="M64.1238 44.7074C64.1238 44.1832 63.9482 43.79 63.5971 43.5715C63.2899 43.3094 62.6754 43.0036 61.7537 42.6541C59.1641 41.7366 57.8473 40.426 57.8473 38.2853C57.8473 36.8873 58.3301 35.8387 59.2957 35.0524C60.2613 34.2223 61.4464 33.8291 62.9387 33.8291C65.265 33.8291 66.7573 34.7465 66.7573 36.0135C66.7573 37.0183 66.1867 37.5863 65.265 37.5863C64.9577 37.5863 64.6505 37.4552 64.2994 37.2368C63.9482 37.0183 63.5093 36.8873 62.9826 36.8873C61.9731 36.8873 61.3586 37.4115 61.3586 38.2853C61.3586 38.9406 62.017 39.5085 63.3338 39.9891C64.9139 40.5571 65.9673 41.1687 66.6256 41.824C67.284 42.4356 67.5912 43.3968 67.5912 44.5763C67.5912 46.0617 67.1084 47.1976 66.055 48.0714C65.0455 48.9451 63.7727 49.382 62.1487 49.382C60.9197 49.382 59.8663 49.1199 59.0324 48.6393C58.1984 48.1588 57.7595 47.5908 57.7595 46.9792C57.7595 46.0617 58.4179 45.3627 59.4274 45.3627C59.6908 45.3627 60.0858 45.4938 60.6125 45.7996C61.1392 46.0617 61.7098 46.1928 62.2365 46.1928C63.4215 46.1928 64.1238 45.5375 64.1238 44.7074Z" fill="#377044"/>
<path d="M80.0432 34.2148C81.0527 34.2148 81.7549 34.7828 81.7549 36.2245V42.4719C81.7549 44.6126 81.1844 46.2727 80.0432 47.4523C78.9459 48.6319 77.4536 49.2435 75.6101 49.2435C73.7228 49.2435 72.2305 48.6319 71.0893 47.4523C69.992 46.2727 69.4653 44.6126 69.4653 42.4719V36.2245C69.4653 34.7828 70.1237 34.2148 71.1332 34.2148C72.0988 34.2148 72.8011 34.7828 72.8011 36.2245V42.3845C72.8011 44.7436 73.8984 46.098 75.6101 46.098C77.278 46.098 78.3753 44.7436 78.3753 42.3845V36.2245C78.3753 34.7828 79.0776 34.2148 80.0432 34.2148Z" fill="#377044"/>
<path d="M87.4588 40.5964L87.5466 46.8875C87.5466 48.3292 86.8444 48.9408 85.8788 48.9408C84.8693 48.9408 84.167 48.3292 84.167 46.8875V35.7471C84.167 34.6985 84.8254 34.0869 85.8349 34.0869C86.5371 34.0869 87.1955 34.4801 87.7222 35.2228L92.8575 42.6934L92.7258 36.2276C92.7258 34.7859 93.4719 34.218 94.4375 34.218C95.4031 34.218 96.1054 34.7859 96.1054 36.2276V47.4117C96.1054 48.4166 95.4909 49.0719 94.4375 49.0719C93.7353 49.0719 93.0769 48.6787 92.5502 47.8923L87.4588 40.5964Z" fill="#377044"/>
<path d="M105.817 45.9756C107.046 45.9756 108.056 45.5387 108.802 44.7523C109.548 43.9659 109.943 42.9174 109.943 41.5631C109.943 40.2525 109.548 39.204 108.802 38.3739C108.056 37.5875 107.046 37.1943 105.817 37.1943C104.632 37.1943 103.623 37.5875 102.877 38.3739C102.131 39.204 101.736 40.2525 101.736 41.5631C101.736 42.9174 102.131 43.9659 102.877 44.7523C103.623 45.5387 104.632 45.9756 105.817 45.9756ZM105.817 49.2959C103.667 49.2959 101.823 48.5969 100.331 47.1552C98.8826 45.7135 98.1365 43.8786 98.1365 41.6068C98.1365 39.335 98.8826 37.4564 100.375 36.0147C101.823 34.6167 103.667 33.874 105.817 33.874C108.012 33.874 109.855 34.6167 111.304 36.0584C112.796 37.5001 113.542 39.335 113.542 41.6068C113.542 43.8786 112.796 45.7135 111.304 47.1552C109.855 48.5969 108.012 49.2959 105.817 49.2959Z" fill="#377044"/>
<path fill-rule="evenodd" clip-rule="evenodd" d="M31.1218 30.162C36.3448 30.2057 40.8218 33.3076 42.7091 38.1569C44.5525 42.9189 43.4114 48.0741 39.4172 51.4818C36.7399 53.7535 35.5987 56.5932 35.2476 59.9572C34.8525 63.3649 31.9557 66.0298 28.6639 66.0735C25.1964 66.1172 22.2557 63.6707 21.6851 60.1757C21.6412 59.8698 21.5096 59.4767 21.6412 59.2145C21.8168 58.865 22.2118 58.3408 22.4752 58.3408C22.8702 58.3408 23.353 58.6903 23.5725 59.0398C23.7919 59.3456 23.7041 59.8262 23.7919 60.2193C24.2747 62.4911 26.3815 64.1513 28.62 64.0202C31.034 63.9328 32.9652 62.0979 33.2725 59.7388C33.3602 58.734 33.5358 57.7728 33.7553 56.768C34.282 54.1904 35.6865 52.0934 37.7055 50.3896C39.7684 48.7294 40.9095 46.5887 41.3485 43.9674C42.2702 38.6375 38.2322 33.0891 32.8335 32.3464C29.1906 31.8659 26.0743 32.827 23.5286 35.5793C23.0897 36.0599 22.6507 36.4531 22.0363 35.8415C21.4657 35.3172 21.5535 34.7493 22.0363 34.1813C23.9675 31.6911 27.5227 30.1183 31.1218 30.162Z" fill="#F58B71"/>
<path fill-rule="evenodd" clip-rule="evenodd" d="M31.1218 30.162C36.3448 30.2057 40.8218 33.3076 42.7091 38.1569C44.5525 42.9189 43.4114 48.0741 39.4172 51.4818C36.7399 53.7535 35.5987 56.5932 35.2476 59.9572C34.8525 63.3649 31.9557 66.0298 28.6639 66.0735C25.1964 66.1172 22.2557 63.6707 21.6851 60.1757C21.6412 59.8698 21.5096 59.4767 21.6412 59.2145C21.8168 58.865 22.2118 58.3408 22.4752 58.3408C22.8702 58.3408 23.353 58.6903 23.5725 59.0398C23.7919 59.3456 23.7041 59.8262 23.7919 60.2193C24.2747 62.4911 26.3815 64.1513 28.62 64.0202C31.034 63.9328 32.9652 62.0979 33.2725 59.7388C33.3602 58.734 33.5358 57.7728 33.7553 56.768C34.282 54.1904 35.6865 52.0934 37.7055 50.3896C39.7684 48.7294 40.9095 46.5887 41.3485 43.9674C42.2702 38.6375 38.2322 33.0891 32.8335 32.3464C29.1906 31.8659 26.0743 32.827 23.5286 35.5793C23.0897 36.0599 22.6507 36.4531 22.0363 35.8415C21.4657 35.3172 21.5535 34.7493 22.0363 34.1813C23.9675 31.6911 27.5227 30.1183 31.1218 30.162Z" stroke="#F58B71" stroke-width="0.0135276"/>
<path fill-rule="evenodd" clip-rule="evenodd" d="M31.0225 49.8004C31.0225 48.4024 31.2858 47.8782 32.032 47.9218C33.3048 48.0092 32.9976 49.014 33.0854 49.7567C33.3487 52.8586 31.3297 55.6983 28.5646 56.3099C27.0722 56.5721 25.7994 56.2662 24.8338 55.174C23.8243 53.9508 23.5609 52.5528 24.2193 51.1548C24.6143 50.281 25.2288 49.4946 25.8872 48.8393C26.9845 47.7034 27.0722 47.4413 26.1505 46.1306C25.975 45.8248 25.7555 45.519 25.536 45.2569C23.6048 43.0288 24.1754 40.6259 25.536 38.66C27.7745 35.3397 32.6026 34.7281 35.675 37.3057C38.6596 39.8396 38.8791 44.6452 36.0261 47.4413C35.7628 47.7034 35.4116 48.0092 35.0605 48.0092C34.7533 48.0529 34.1827 47.7471 34.1388 47.4413C34.0071 47.0918 34.1388 46.5238 34.4021 46.2617C35.4116 45.1695 36.07 43.9462 36.07 42.4172C36.0261 40.1017 34.1827 38.0484 31.8125 37.7425C29.7057 37.4804 27.16 39.0969 26.5455 41.0628C26.2383 42.024 26.4139 42.854 26.9845 43.6404C27.4673 44.3831 27.994 45.0821 28.4329 45.8685C29.1351 47.1355 29.0035 48.3587 28.0379 49.4509C27.555 49.9752 27.0722 50.4557 26.5894 51.0237C25.8433 51.8538 25.7555 53.0333 26.3261 53.7323C26.8967 54.4313 28.0379 54.5187 29.0913 53.9071C30.3202 53.2081 31.0664 51.679 31.0225 49.8004Z" fill="#F58B71"/>
<path fill-rule="evenodd" clip-rule="evenodd" d="M31.0225 49.8004C31.0225 48.4024 31.2858 47.8782 32.032 47.9218C33.3048 48.0092 32.9976 49.014 33.0854 49.7567C33.3487 52.8586 31.3297 55.6983 28.5646 56.3099C27.0722 56.5721 25.7994 56.2662 24.8338 55.174C23.8243 53.9508 23.5609 52.5528 24.2193 51.1548C24.6143 50.281 25.2288 49.4946 25.8872 48.8393C26.9845 47.7034 27.0722 47.4413 26.1505 46.1306C25.975 45.8248 25.7555 45.519 25.536 45.2569C23.6048 43.0288 24.1754 40.6259 25.536 38.66C27.7745 35.3397 32.6026 34.7281 35.675 37.3057C38.6596 39.8396 38.8791 44.6452 36.0261 47.4413C35.7628 47.7034 35.4116 48.0092 35.0605 48.0092C34.7533 48.0529 34.1827 47.7471 34.1388 47.4413C34.0071 47.0918 34.1388 46.5238 34.4021 46.2617C35.4116 45.1695 36.07 43.9462 36.07 42.4172C36.0261 40.1017 34.1827 38.0484 31.8125 37.7425C29.7057 37.4804 27.16 39.0969 26.5455 41.0628C26.2383 42.024 26.4139 42.854 26.9845 43.6404C27.4673 44.3831 27.994 45.0821 28.4329 45.8685C29.1351 47.1355 29.0035 48.3587 28.0379 49.4509C27.555 49.9752 27.0722 50.4557 26.5894 51.0237C25.8433 51.8538 25.7555 53.0333 26.3261 53.7323C26.8967 54.4313 28.0379 54.5187 29.0913 53.9071C30.3202 53.2081 31.0664 51.679 31.0225 49.8004Z" stroke="#F58B71" stroke-width="0.0135276"/>
<path fill-rule="evenodd" clip-rule="evenodd" d="M53.4578 53.4495C53.4578 59.2163 49.5515 64.153 43.8895 65.3326C42.9239 65.551 41.8705 65.551 40.861 65.42C40.5099 65.3763 40.0271 64.7647 39.9393 64.3715C39.8515 63.7598 40.3343 63.4977 40.9927 63.4977C48.7176 63.2793 53.1945 56.8571 50.7805 49.4302C50.561 48.6875 50.2099 47.9885 49.9026 47.2895C49.6393 46.6341 49.7271 46.1099 50.3854 45.7604C51.0877 45.4546 51.5266 45.8041 51.79 46.4594C52.8434 48.6438 53.5017 50.9593 53.4578 53.4495Z" fill="#F58B71"/>
<path fill-rule="evenodd" clip-rule="evenodd" d="M53.4578 53.4495C53.4578 59.2163 49.5515 64.153 43.8895 65.3326C42.9239 65.551 41.8705 65.551 40.861 65.42C40.5099 65.3763 40.0271 64.7647 39.9393 64.3715C39.8515 63.7598 40.3343 63.4977 40.9927 63.4977C48.7176 63.2793 53.1945 56.8571 50.7805 49.4302C50.561 48.6875 50.2099 47.9885 49.9026 47.2895C49.6393 46.6341 49.7271 46.1099 50.3854 45.7604C51.0877 45.4546 51.5266 45.8041 51.79 46.4594C52.8434 48.6438 53.5017 50.9593 53.4578 53.4495Z" stroke="#F58B71" stroke-width="0.0135276"/>
<path fill-rule="evenodd" clip-rule="evenodd" d="M49.335 52.9569C49.2472 57.7189 45.2532 61.4761 40.6007 61.0829C39.8984 61.0392 39.5034 60.646 39.5034 60.0344C39.5034 59.4227 39.8984 59.0732 40.5568 59.0732C41.2591 59.0296 42.0052 58.9859 42.7075 58.7674C46.1749 57.8937 47.8427 54.6171 46.7893 50.9036C46.6577 50.4667 46.4821 50.0735 46.3065 49.6366C46.0871 48.9376 46.2188 48.3697 46.9649 48.0639C47.7111 47.8017 48.0622 48.326 48.2377 48.8502C48.6328 50.2046 48.94 51.6026 49.335 52.9569Z" fill="#F58B71"/>
<path fill-rule="evenodd" clip-rule="evenodd" d="M49.335 52.9569C49.2472 57.7189 45.2532 61.4761 40.6007 61.0829C39.8984 61.0392 39.5034 60.646 39.5034 60.0344C39.5034 59.4227 39.8984 59.0732 40.5568 59.0732C41.2591 59.0296 42.0052 58.9859 42.7075 58.7674C46.1749 57.8937 47.8427 54.6171 46.7893 50.9036C46.6577 50.4667 46.4821 50.0735 46.3065 49.6366C46.0871 48.9376 46.2188 48.3697 46.9649 48.0639C47.7111 47.8017 48.0622 48.326 48.2377 48.8502C48.6328 50.2046 48.94 51.6026 49.335 52.9569Z" stroke="#F58B71" stroke-width="0.0135276"/>
<path fill-rule="evenodd" clip-rule="evenodd" d="M44.6387 53.0829C44.5071 55.2237 42.7953 56.8838 40.7763 56.8838C40.0301 56.8838 39.5473 56.5343 39.5034 55.7916C39.5034 55.0926 39.9862 54.8741 40.6446 54.8305C42.3564 54.6557 42.927 53.6946 42.1369 52.1655C41.8297 51.5102 41.8297 51.0296 42.5319 50.6801C43.1903 50.2869 43.717 50.6364 43.9804 51.248C44.2876 51.816 44.4193 52.4713 44.6387 53.0829Z" fill="#F58B71"/>
<path fill-rule="evenodd" clip-rule="evenodd" d="M44.6387 53.0829C44.5071 55.2237 42.7953 56.8838 40.7763 56.8838C40.0301 56.8838 39.5473 56.5343 39.5034 55.7916C39.5034 55.0926 39.9862 54.8741 40.6446 54.8305C42.3564 54.6557 42.927 53.6946 42.1369 52.1655C41.8297 51.5102 41.8297 51.0296 42.5319 50.6801C43.1903 50.2869 43.717 50.6364 43.9804 51.248C44.2876 51.816 44.4193 52.4713 44.6387 53.0829Z" stroke="#F58B71" stroke-width="0.0135276"/>
</svg>
