<svg xmlns="http://www.w3.org/2000/svg" xmlns:xlink="http://www.w3.org/1999/xlink" width="484" height="611" viewBox="0 0 273454 345065" shape-rendering="geometricPrecision" image-rendering="optimizeQuality" fill-rule="evenodd" xmlns:v="https://vecta.io/nano"><style><![CDATA[.X{fill-rule:nonzero}]]></style><defs><linearGradient id="A" x1="136727" y1="73112.2" x2="136727" y2="213533" xlink:href="#M"><stop offset="0" stop-color="#f9f9f9"/><stop offset="1" stop-color="#cacaca"/></linearGradient><linearGradient id="B" x1="137238" y1="12114.7" x2="137238" y2="272846" xlink:href="#M"><stop offset="0" stop-color="#ededed"/><stop offset=".1" stop-color="#ddd"/><stop offset=".2" stop-color="#dbdbdb"/><stop offset=".6" stop-color="#8f8f8f"/><stop offset="1" stop-color="#ccc"/></linearGradient><linearGradient id="C" x1="137099" y1="46010.9" x2="137099" y2="235819" xlink:href="#M"><stop offset="0" stop-color="#ededed"/><stop offset=".4" stop-color="#8f8f8f"/><stop offset="1" stop-color="#ccc"/></linearGradient><linearGradient id="D" x1="206648" y1="250529" x2="137735" y2="260508" xlink:href="#M"><stop offset="0" stop-color="red"/><stop offset="1" stop-color="#b00205"/></linearGradient><linearGradient id="E" x1="138203" y1="236573" x2="138203" y2="136727" xlink:href="#M"><stop offset="0" stop-color="#f9f9f9"/><stop offset="1" stop-color="#a6a6a6"/></linearGradient><linearGradient id="F" x1="137014" y1="66726.7" x2="137014" y2="213193" xlink:href="#M"><stop offset="0" stop-color="#ededed"/><stop offset=".3" stop-color="#dbdbdb"/><stop offset=".6" stop-color="#8f8f8f"/><stop offset="1" stop-color="#ccc"/></linearGradient><linearGradient id="G" x1="254856" y1="114499" x2="254991" y2="153451" xlink:href="#M"><stop offset="0" stop-color="#f7f7f7"/><stop offset="1" stop-color="#878787"/></linearGradient><linearGradient id="H" x1="68707.6" y1="273248" x2="124239" y2="237858" xlink:href="#M"><stop offset="0" stop-color="#b00205"/><stop offset="1" stop-color="red"/></linearGradient><linearGradient id="I" x1="129942" y1="184508" x2="129945" y2="85029.5" xlink:href="#M"><stop offset="0" stop-color="#b9baba"/><stop offset=".7" stop-color="#d5d7d7"/><stop offset="1" stop-color="#f2f4f5"/></linearGradient><linearGradient id="J" xlink:href="#G" x1="22780" x2="22914.8"/><linearGradient id="K" x1="43.5539%" y1="56.8703%" x2="43.5539%" y2="0%"><stop offset="0" stop-color="#dcdddd"/><stop offset=".6" stop-color="#edeeee"/><stop offset="1" stop-color="#fff"/></linearGradient><radialGradient id="L" gradientTransform="matrix(-0.0306795 1.17271 -1.17271 -0.0306795 306824 -16405)" cx="137629" cy="140677" r="103475" fx="137629" fy="140677" xlink:href="#M"><stop offset="0" stop-color="#fefefe"/><stop offset=".9" stop-color="#e5e5e5"/><stop offset="1" stop-color="#cccdcd"/></radialGradient><linearGradient id="M" gradientUnits="userSpaceOnUse"/></defs><path d="M135016 265069l-13016 2665-3602 738-2429 497-2167 444-1038 213-310 63 1035 1798 21621 37555 19808 34405c1114 1733 2415 2141 3970 735l26764-32646c710-1348 1790-2327 3676-2500l41470-6911c2720-173 3359-1543 1912-4118l-25128-44322-842-1487-125-219-456-805-342-604-442 91-3577 732-1927 395-1215 249-63640 13032z" fill="url(#D)"/><path d="M199718 253870l1018-590-1180-2035-1018 589 1180 2036zm-81485 14860l-1021 586 1173 2040 1020-585-1172-2041zm2345 4081l-1021 586 1173 2040 1020-586-1172-2040zm2345 4080l-1021 586 1173 2040 1020-585-1172-2041zm2345 4081l-1021 585 1173 2041 1020-586-1172-2040zm2345 4080l-1021 586 1173 2040 1020-585-1172-2041zm2345 4081l-1021 585 1173 2041 1020-586-1172-2040zm2345 4080l-1020 586 1172 2040 1020-586-1172-2040zm2345 4081l-1020 585 1172 2041 1021-586-1173-2040zm2345 4080l-1020 586 1172 2040 1021-586-1173-2040zm2345 4081l-1020 585 1172 2040 1021-585-1173-2040zm2345 4080l-1020 586 1172 2040 1021-586-1173-2040zm2345 4081l-1020 585 1172 2040 1021-585-1173-2040zm2345 4080l-1020 586 1172 2040 1021-586-1173-2040zm2345 4080l-1020 586 1172 2040 1021-585-1173-2041zm2345 4081l-1020 586 1172 2039 1021-585-1173-2040zm2345 4079l-1021 586 1172 2039 1020-585-1171-2040zm2343 4079l-1020 586 1172 2039 1020-585-1172-2040zm1434 3416l903 754 1508-1807-903-753-1508 1806zm3016-3613l903 753 1508-1806-903-754-1508 1807zm3016-3614l903 754 1508-1806-903-754-1508 1806zm3016-3612l903 754 1508-1807-903-753-1508 1806zm3016-3612l903 753 1508-1806-903-753-1508 1806zm3016-3613l903 754 1508-1806-903-754-1508 1806zm3016-3612l903 754 1508-1806-903-754-1508 1806zm3016-3612l903 754 1508-1807-903-753-1508 1806zm3016-3612l903 753 1508-1806-903-753-1508 1806zm3016-3613l174 146 425 747 2239-359-185-1162-2457 394-196 234zm4976-1000l186 1162 2324-372-186-1162-2324 372zm4648-744l185 1161 2324-372-185-1162-2324 373zm4647-745l186 1162 2323-372-185-1162-2324 372zm4648-744l185 1162 2324-372-186-1162-2323 372zm4647-744l185 1161 2324-372-185-1162-2324 373zm4647-745l185 1162 2323-372-185-1162-2323 372zm4646-743l185 1162 2323-372-185-1162-2323 372zm4646-743l185 1162 2323-372-185-1162-2323 372zm3842-52l1018-590-1181-2036-1017 589 1180 2037zm-2361-4073l1018-589-1180-2037-1018 590 1180 2036zm-2360-4072l1018-590-1180-2036-1017 589 1179 2037zm-2359-4073l1017-589-1179-2037-1018 590 1180 2036zm-2360-4072l1018-590-1180-2035-1018 589 1180 2036zm-2360-4071l1018-590-1180-2035-1018 589 1180 2036zm-2359-4071l1017-590-1180-2036-1017 590 1180 2036zm-2360-4072l1018-589-1180-2036-1018 590 1180 2035zm-2360-4071l1018-589-1180-2036-1018 590 1180 2035zm-2360-4071l1018-589-1180-2036-1017 590 1179 2035zm-2359-4071l1018-590-1180-2035-1018 589 1180 2036z" fill="#fff0d4" fill-opacity=".5" class="X"/><path d="M64383 250605l-26893 47436c-1447 2576-808 3946 1912 4118l41470 6912c1886 173 2966 1152 3676 2500l26764 32646c1555 1406 2856 998 3970-735l42464-73758-93363-19119z" fill="url(#H)"/><path d="M70165 253266l-1018-589 1180-2036 1018 590-1180 2035zm81485 14861l1021 585-1173 2041-1020-586 1172-2040zm-2345 4080l1021 586-1173 2040-1020-585 1172-2041zm-2345 4081l1021 585-1173 2041-1020-586 1172-2040zm-2345 4080l1021 586-1173 2040-1020-586 1172-2040zm-2345 4081l1020 585-1172 2041-1020-586 1172-2040zm-2345 4080l1020 586-1172 2040-1021-586 1173-2040zm-2345 4081l1020 585-1172 2040-1021-585 1173-2040zm-2345 4080l1020 586-1172 2040-1021-586 1173-2040zm-2345 4081l1020 585-1172 2040-1021-585 1173-2040zm-2345 4080l1020 586-1172 2040-1021-586 1173-2040zm-2345 4081l1020 585-1172 2040-1021-585 1173-2040zm-2345 4080l1020 586-1172 2040-1021-586 1173-2040zm-2345 4080l1020 586-1172 2040-1021-585 1173-2041zm-2345 4081l1020 585-1172 2041-1021-586 1173-2040zm-2345 4080l1020 586-1172 2040-1021-586 1173-2040zm-2345 4079l1021 586-1172 2040-1021-586 1172-2040zm-2343 4080l1020 585-1172 2040-1020-586 1172-2039zm-1434 3416l-903 753-1508-1806 903-754 1508 1807zm-3016-3614l-903 754-1508-1807 903-754 1508 1807zm-3016-3613l-903 753-1508-1806 903-754 1508 1807zm-3016-3613l-903 754-1508-1806 903-754 1508 1806zm-3016-3612l-903 754-1508-1806 903-754 1508 1806zm-3016-3612l-903 754-1508-1807 903-753 1508 1806zm-3016-3612l-903 753-1508-1806 903-754 1508 1807zm-3016-3613l-903 754-1508-1806 903-754 1508 1806zm-3016-3612l-903 754-1508-1806 903-754 1508 1806zm-3016-3612l-174 146-425 746-2239-359 185-1161 2457 393 196 235zm-4976-1001l-186 1162-2324-372 186-1162 2324 372zm-4648-744l-185 1162-2324-372 185-1162 2324 372zm-4647-744l-186 1162-2323-373 185-1161 2324 372zm-4648-745l-185 1162-2324-372 186-1162 2323 372zm-4647-744l-185 1162-2324-372 185-1162 2324 372zm-4647-744l-185 1162-2323-373 185-1161 2323 372zm-4646-744l-185 1162-2323-372 185-1161 2323 371zm-4646-743l-185 1162-2323-372 185-1161 2323 371zm-3842-52l-1018-590 1181-2036 1017 590-1180 2036zm2361-4072l-1018-590 1180-2036 1018 589-1180 2037zm2360-4073l-1018-589 1180-2037 1017 590-1179 2036zm2359-4072l-1018-590 1180-2036 1018 589-1180 2037zm2360-4073l-1018-589 1180-2036 1018 590-1180 2035zm2360-4071l-1018-590 1180-2035 1018 590-1180 2035zm2359-4071l-1017-590 1179-2035 1018 589-1180 2036zm2360-4071l-1018-590 1180-2035 1018 589-1180 2036zm2360-4071l-1018-590 1180-2035 1018 589-1180 2036zm2360-4071l-1018-590 1180-2036 1017 590-1179 2036zm2359-4072l-1018-589 1180-2036 1018 590-1180 2035z" fill="#fff0d4" fill-opacity=".5" class="X"/><path d="M136727 0c75512 0 136727 61214 136727 136727 0 75512-61215 136727-136727 136727C61214 273454 0 212239 0 136727 0 61214 61214 0 136727 0zm0 37289c54917 0 99438 44520 99438 99438 0 54917-44521 99438-99438 99438-54918 0-99438-44521-99438-99438 0-54918 44520-99438 99438-99438z" fill="url(#B)"/><path d="M23656 159584c-745-3745-1311-7526-1684-11327-375-3808-557-7634-557-11459 0-3827 182-7653 557-11461 373-3800 939-7581 1684-11326 122-612-276-1209-887-1330-613-122-1209 276-1330 888-761 3818-1329 7673-1710 11547-382 3882-577 7781-577 11682 0 3899 195 7799 577 11680 381 3874 949 7730 1710 11548 121 611 717 1010 1330 888 611-122 1009-719 887-1330z" fill="#4d4d4d"/><path d="M136727 1707c37283 0 71040 15113 95473 39547 24432 24432 39546 58188 39546 95473 0 37284-15114 71040-39546 95473-24433 24433-58190 39546-95473 39546s-71041-15114-95473-39546c-24433-24433-39547-58189-39547-95473 0-37283 15114-71041 39547-95473C65686 16821 99444 1707 136727 1707zm94640 40379c-24220-24221-57681-39202-94640-39202S66307 17865 42086 42086 2884 99768 2884 136727s14981 70420 39202 94640c24221 24221 57682 39202 94641 39202s70420-14981 94640-39202c24221-24220 39202-57681 39202-94640s-14981-70420-39202-94641zM136727 3729c36725 0 69976 14887 94043 38954 24068 24068 38954 57317 38954 94044s-14886 69976-38954 94043c-24067 24068-57316 38954-94043 38954s-69976-14886-94044-38954c-24067-24067-38954-57318-38954-94043 0-36726 14887-69976 38954-94044 24068-24067 57318-38954 94044-38954zm93211 39786c-23854-23854-56810-38610-93211-38610S67370 19661 43515 43515C19661 67370 4905 100326 4905 136727s14756 69357 38610 93211c23855 23855 56811 38610 93212 38610s69357-14755 93211-38610c23855-23854 38610-56810 38610-93211s-14755-69357-38610-93212z" fill="#fafafa" class="X"/><path d="M251397 114012l1685 11327 557 11459-557 11460-1685 11326a1132 1132 0 0 0 888 1330c612 122 1209-276 1330-887l1710-11548 577-11681-577-11681-1710-11548c-121-611-718-1009-1330-887a1132 1132 0 0 0-888 1330z" fill="#4d4d4d"/><path d="M22930 159513c-746-3745-1311-7526-1685-11326-374-3808-557-7634-557-11461 0-3825 183-7651 557-11459 374-3801 939-7582 1685-11327 122-611-276-1208-888-1330s-1208 276-1330 888c-760 3818-1327 7674-1709 11548-381 3881-578 7781-578 11680 0 3901 197 7800 578 11682 382 3874 949 7729 1709 11547 122 612 718 1010 1330 888a1132 1132 0 0 0 888-1330z" fill="url(#J)"/><path d="M250524 113940l1684 11327 557 11459-557 11461-1684 11326c-122 612 277 1209 887 1330 613 122 1209-276 1330-888l1710-11547 577-11682-577-11680-1710-11548c-121-612-717-1010-1330-888-611 122-1009 719-887 1330z" fill="url(#G)"/><circle cx="136727" cy="136727" r="99535" fill="url(#C)"/><path d="M218865 104609c-418-1097-2100-824-2100 413 6 142 24 247 75 379l757 2014c482 1264 2384 711 2076-642l-32-107-776-2057zm-161987 123c184-483 30-994-384-1293-601-401-1354-171-1636 487-275 681-539 1366-796 2055-422 1108 1058 2043 1883 1040 68-88 118-181 158-287l775-2002zm-3374 10188c314-1153-1288-1937-1992-822-53 95-86 173-114 277l-534 2137c-300 1319 1644 1930 2105 546l535-2138zm-2077 10532c170-1309-1764-1759-2137-389l-20 110-262 2186c-36 409 133 775 462 1006 663 480 1632 23 1702-781l255-2132zm-739 10709c0-1151-1565-1537-2085-439-58 144-90 271-90 429l14 2201c60 1381 2048 1428 2173 49 16-736-16-1498-12-2240zm608 10714c-173-1332-2166-1246-2166 168 58 743 189 1540 296 2280 31 236 165 488 342 644 777 679 1943 58 1811-961l-283-2131zm1937 10556c-368-1351-2373-906-2119 487l569 2177c332 1217 2194 975 2133-367l-38-217-545-2080zm3233 10236c-409-1071-2043-843-2100 362 0 163 17 281 75 432l817 2044c216 505 767 777 1299 625 624-170 960-874 706-1467l-797-1996zm4477 9763c-640-1165-2408-393-1986 871l69 158 1067 1933c552 1004 2195 532 2015-729a1079 1079 0 0 0-129-357c-347-520-734-1308-1036-1876zm5650 9124c-651-950-2228-307-1941 901a1139 1139 0 0 0 169 362c424 599 857 1192 1296 1780 804 1034 2387 67 1857-1111-37-70-68-131-117-194l-1264-1738zm6741 8349c-855-909-2337 93-1758 1249 52 92 92 149 162 229l1509 1604c913 913 2408-216 1673-1378a1080 1080 0 0 0-114-139l-1472-1565zm7738 7442c-711-628-1876-37-1785 917 14 288 169 556 383 745l1699 1403c521 405 1251 282 1605-276 288-457 181-1090-245-1422l-1657-1367zm8609 6410c-466-294-1051-211-1413 199-433 491-321 1279 230 1626l1860 1179c1001 632 2213-642 1387-1644-74-84-154-150-249-210l-1815-1150zm9340 5287c-1149-547-2159 999-1148 1832 65 50 128 91 204 128 661 321 1324 634 1992 940 1214 520 2133-1116 1068-1885l-174-98-1942-917zm9926 4100c-1261-401-2027 1317-873 1984 57 29 110 56 170 76l2093 687c1211 386 2005-1322 853-1989-66-36-132-64-203-87l-2040-671zm10351 2838c-1115-253-1856 1281-792 1991 124 72 215 109 353 140l2162 421c1262 229 1830-1587 572-2090a994 994 0 0 0-187-51c-704-129-1407-264-2108-411zm10627 1521c-1243-108-1676 1700-403 2125a1206 1206 0 0 0 231 43l2204 146c1213 53 1605-1636 431-2106-109-38-210-62-326-66l-2137-142zm10728 173c-1208 53-1434 1793-237 2135 123 29 215 43 345 38 733-34 1465-78 2197-130 1318-114 1362-2045-21-2171-45-2-94-3-139 1l-2145 127zm10668-1166c-1254 227-1175 2097 175 2158 71 0 138-5 207-17l2163-403c1376-312 1014-2331-391-2139l-2154 401zm10448-2487c-1294 412-836 2356 540 2105l2198-694c1100-350 945-2058-327-2118a1117 1117 0 0 0-369 57l-2042 650zm10053-3759c-1089 466-713 2195 575 2072 116-16 206-41 314-88l2000-921c249-119 432-317 538-571 370-925-581-1818-1474-1393l-1953 901zm9511-4977c-1100 695-307 2367 926 1956l205-97c629-379 1250-769 1869-1164 969-611 426-2158-753-1990-160 29-281 71-423 160l-1824 1135zm8817-6117c-936 728-146 2291 1062 1868 114-45 198-93 295-168l1709-1388c325-286 469-706 349-1127-218-761-1139-1045-1746-539-551 458-1108 908-1669 1354zm7987-7175c-869 870 207 2349 1340 1693 81-50 147-102 215-171l1522-1591c882-1000-381-2382-1453-1608-50 41-92 76-138 125l-1486 1552zm7019-8113c-708 911 382 2226 1462 1566 112-75 192-149 277-259l1311-1770c748-1093-685-2309-1640-1414-48 47-93 97-130 151l-1280 1726zm5954-8938c-668 1215 1025 2288 1839 1161 394-626 765-1338 1124-1991 613-1114-906-2228-1789-1219-46 55-85 113-120 177l-1054 1872zm4796-9602c-481 1124 1030 2101 1860 1093 61-83 103-150 145-248l835-2038c455-1194-1151-2063-1902-1024l-122 230-816 1987zm3571-10125c-131 480 62 961 475 1222 613 375 1430 64 1618-629l576-2129c290-1063-1093-1873-1897-955-107 139-165 248-211 420l-561 2071zm2281-10486c-153 1172 1347 1716 1986 757 84-138 145-276 165-434l306-2181c158-1210-1552-1737-2081-560-39 99-63 184-77 290l-299 2128zm957-10692c-50 1142 1563 1563 2070 493 69-152 97-272 105-439 17-735 28-1466 31-2202 0-1122-1513-1527-2065-478-72 161-110 298-110 477l-31 2149zm-382-10730c106 1217 1922 1360 2158 62 13-95 15-178 7-275l-243-2189c-170-1304-2104-1259-2167 115 0 52 2 102 8 152 87 709 172 1424 237 2135zm-1714-10593c291 1282 2263 1042 2139-377l-19-109-514-2142c-367-1349-2371-900-2119 485l513 2143z" fill="#e6e6e6" class="X"/><path d="M136727 36881c27571 0 52533 11176 70602 29244 18068 18069 29244 43031 29244 70602s-11176 52533-29245 70601c-18068 18069-43030 29245-70601 29245s-52533-11176-70602-29245c-18067-18067-29244-43030-29244-70601s11176-52533 29244-70602c18069-18068 43031-29244 70602-29244zm0 1176c54493 0 98669 44176 98669 98670 0 54493-44176 98669-98669 98669s-98670-44176-98670-98669c0-54494 44177-98670 98670-98670z" fill="url(#E)"/><circle cx="136727" cy="136727" r="76806" fill="url(#F)"/><path d="M136728 60006c21184 0 40365 8588 54248 22472 13883 13882 22471 33064 22471 54249s-8588 40366-22471 54249-33064 22471-54248 22471c-21185 0-40367-8589-54250-22471-13882-13883-22471-33064-22471-54249s8589-40367 22471-54249c13883-13883 33064-22472 54250-22472zm0 1177c41721 0 75543 33822 75543 75544 0 41721-33822 75543-75543 75543-41722 0-75544-33822-75544-75543 0-41722 33822-75544 75544-75544z" fill="url(#A)"/><path d="M136727 37192c55195 0 99940 44563 99940 99535l-16 1236c-666-54402-45143-98300-99924-98300s-99258 43898-99924 98300l-16-1236c0-54972 44745-99535 99940-99535z" fill="#a6a6a6"/><g class="X"><path d="M107856 52419c178 463 213 908 103 1338-111 430-368 843-770 1233 671-34 1227 86 1675 360 445 275 772 679 976 1210 378 975 300 1830-224 2576-525 742-1458 1373-2801 1890l-628 223c-222 75-453 142-687 203l-717 154-692 83c-556 24-920-183-1089-623l-2893-7512c-76-193-82-363-18-503 62-142 175-282 336-412 303-248 678-483 1119-705 444-225 917-433 1419-627 1238-479 2277-634 3118-471 839 165 1431 694 1773 1583zm-71 4845c-159-408-429-676-813-796-380-124-850-81-1403 134l-1795 693 988 2565c214-26 460-79 740-162l817-282c625-239 1072-538 1341-896 269-354 310-775 125-1256zm-4574-1431l1550-595c553-216 923-485 1106-816 184-331 200-695 47-1094-312-810-1094-972-2343-490-256 97-494 202-716 310-224 111-411 212-563 306l919 2379zm11632 2126l-390 173c-171 74-354 132-558 178-406 94-710 85-911-28-200-109-340-342-420-697l-2030-8869c79-41 209-99 390-175 178-75 359-132 540-174 387-90 687-85 900 14 212 96 363 332 448 705l724 3163 4010-919-919-4010c83-42 212-99 393-173 178-78 360-136 540-176 389-88 687-83 901 22 215 102 365 340 450 717l2028 8852-390 176c-169 71-356 131-559 178-407 93-709 82-910-28-200-112-340-345-422-697l-729-3192-4011 917 925 4043zm13802-4921l-3653 486-216 1308-192 1121c-103 58-213 113-334 161-123 49-273 86-460 112-368 48-667 14-893-105-226-120-358-314-392-589-18-128-18-260 2-389l83-451 203-1148 286-1465 337-1637 354-1644 332-1487 282-1193c132-94 331-199 597-310 269-114 543-190 825-227 382-52 735-40 1068 32 330 70 556 226 675 467l993 1965 1113 2301 1099 2327 953 2048c-93 132-227 254-407 362-181 105-400 177-661 211-381 52-658 21-835-96-176-115-326-312-453-594l-706-1566zm-2607-5594l-195 953-219 1102-235 1159-228 1152 2836-380-1876-3998-83 12zm10217 6112c637-18 1100-156 1390-411 286-256 427-570 417-943-12-341-135-609-372-805s-592-359-1068-487l-1062-297c-420-119-803-255-1147-410-347-157-642-341-890-559-249-218-443-474-582-773-142-299-219-655-230-1072-25-889 288-1603 941-2142 655-542 1562-829 2725-864 459-14 887 11 1278 68 389 61 730 149 1019 268s516 268 681 448c164 183 251 389 257 619 8 220-40 409-139 572a1288 1288 0 0 1-376 397c-267-178-622-330-1059-454-438-122-914-177-1429-162-571 17-1001 130-1291 343-289 211-430 492-419 843 6 285 115 502 323 648 209 147 534 288 977 417l945 268c964 256 1715 625 2256 1101 542 480 823 1140 848 1985 14 450-62 865-227 1242s-410 705-735 985c-327 279-738 499-1233 661-494 163-1061 255-1695 273-505 14-969-15-1395-89-426-77-792-184-1103-322-314-141-557-309-733-506-174-199-267-418-274-660-7-252 60-470 204-655 142-187 311-325 505-420 282 234 651 446 1105 635 457 189 985 276 1588 258zm8110 1841l-428 25c-184 8-379-2-584-30-415-54-695-171-845-345-147-176-195-442-147-802l1220-9020 426-24 571 27c389 51 668 163 835 328 164 166 223 441 171 822l-437 3213 4080 550 551-4076 428-25 568 25c393 54 669 166 836 339 164 172 220 447 168 827l-1216 9003c-102 11-242 18-426 25-184 10-382 1-587-28-412-56-694-170-841-346-147-174-198-441-149-800l439-3245-4079-551-554 4108zm9780 1660c-406-93-678-236-815-422-138-189-165-461-83-815l2044-8871 437 14 554 80c388 88 653 222 805 403 148 181 181 458 93 834l-2044 8871c-101 0-244-6-428-14-185-8-371-36-563-80zm4519 987c-385-130-632-294-740-486-108-194-106-455 6-790l2816-8314c164-107 369-163 622-172 253-6 513 37 783 127 324 108 591 264 809 466 214 200 363 503 445 915l877 4801 209 1366 136 1271 66 5 504-1821 553-1715 1199-3542 407 61 536 136c384 130 634 294 748 488 113 195 114 459 0 793l-2852 8424c-153 74-345 108-581 98-233-10-496-65-788-163-311-105-577-255-795-452-218-195-367-498-448-907l-878-4801c-84-436-154-889-208-1366l-128-1287-99-16-496 1796-556 1723-1199 3542c-91-7-225-23-400-47-180-27-361-71-548-133zm10383 3817c-378-172-616-366-711-581-94-212-64-483 86-811l3814-8266 421 107 529 187c359 168 593 353 703 562 110 207 84 485-78 834l-3811 8263c-98-19-239-53-417-101-178-46-356-110-536-194z" fill="#fefefe"/><path d="M30522 84082c708 320 1238 782 1589 1386 352 604 519 1347 499 2228 711-777 1468-1259 2271-1444 804-187 1614-95 2433 275 1493 675 2356 1719 2589 3131 233 1411-116 3148-1047 5207l-456 945c-168 330-351 660-546 989-196 327-407 648-634 962l-685 855c-592 641-1227 808-1903 503l-11532-5214c-300-134-492-316-579-545-85-228-112-504-78-831 69-612 228-1288 476-2028l896-2265c861-1902 1852-3225 2973-3968 1122-742 2367-805 3734-186zm5266 5505c-629-284-1225-284-1790 0-563 285-1038 852-1422 1701l-1247 2759 3939 1781c213-263 430-597 649-999l608-1217c433-959 603-1786 511-2481-93-695-509-1210-1248-1544zm-6699 3447l1076-2381c384-849 497-1560 340-2134-158-572-543-998-1156-1275-1243-561-2297 117-3164 2035l-459 1142-293 961 3656 1652zm16082-11439l-247 626c-110 268-253 539-430 816-354 551-705 875-1053 969-347 95-761-11-1240-318l-12050-7724 247-625c119-283 258-547 416-793 336-524 677-848 1024-974s775-26 1283 299l4293 2752 3491-5447-5447-3491 248-627c119-282 258-547 416-793 335-523 680-845 1034-966 355-122 786-20 1294 307l12029 7709-248 626c-110 267-253 540-430 815-353 553-704 875-1052 970s-762-11-1241-318l-4336-2779-3492 5447 5491 3519zm11245-21306l-3796 4382 1108 1764 943 1520c-61 175-137 355-227 539-91 184-233 386-425 608-384 444-772 713-1162 808-391 96-749 2-1075-281a2040 2040 0 0 1-401-467l-374-614-956-1565-1191-2024-1310-2283-1294-2302-1159-2100-911-1696c56-249 182-579 379-991 197-411 442-787 736-1126 395-457 825-815 1290-1073 464-261 892-313 1282-157l3221 1283 3707 1551 3720 1596 3257 1418c31 254-4 538-104 851s-286 626-556 939c-396 457-757 709-1084 756-327 49-712-28-1154-229l-2464-1107zm-8902-3877c224 400 479 844 765 1331l889 1523 932 1612 931 1595 2949-3404-6381-2754-85 97zm19389-4158c787-618 1244-1224 1370-1816 126-595 8-1121-354-1582-331-421-737-645-1219-672s-1084 100-1806 383l-1622 615-1837 555c-580 126-1128 168-1646 124-517-43-1003-188-1459-433s-887-625-1292-1141c-864-1099-1134-2296-813-3591s1201-2507 2639-3637c570-448 1130-817 1681-1107s1064-496 1540-617c475-121 902-144 1280-67 377 75 679 256 903 541 213 271 332 556 358 854 25 298-9 583-103 854-507 25-1094 164-1764 415-669 252-1323 628-1960 1129-706 554-1143 1100-1312 1640-169 539-83 1025 258 1459 277 353 616 526 1016 519 400-8 941-136 1622-387l1448-545c1458-574 2752-813 3883-714 1131 100 2107 672 2928 1716 437 556 728 1151 873 1782 145 633 143 1277-11 1934-153 658-465 1320-938 1989-474 668-1104 1311-1891 1930-624 490-1241 886-1848 1188-608 302-1173 510-1698 626-523 115-989 130-1396 44-408-85-729-277-963-576-245-312-364-652-356-1020 6-367 89-702 248-1002 574 32 1237-46 1991-231 753-187 1503-572 2250-1159zm12435-6356l-507 441c-222 188-474 362-758 526-568 326-1028 452-1381 375-352-75-670-360-955-854l-7135-12407c102-99 272-246 508-441 235-195 481-367 735-513 539-309 990-440 1357-392 366 48 700 334 1000 857l2543 4421 5608-3226-3225-5609c102-99 271-246 508-441 236-196 480-367 735-513 538-310 993-436 1363-381s706 345 1007 869l7123 12385-507 441c-221 186-474 362-758 525-568 327-1029 453-1381 376-353-76-671-360-955-854l-2568-4465-5608 3226 3251 5654zm19840-13759l-5392 2127 165 2077 133 1784c-135 127-286 251-451 373-166 120-385 234-658 342-546 216-1014 275-1405 179-389-97-664-346-822-747-76-193-123-392-139-599-17-206-32-447-47-719-49-501-90-1110-123-1829l-119-2347-105-2629-81-2639-56-2398-22-1925c165-196 430-430 795-703a5006 5006 0 0 1 1173-658c561-221 1108-340 1641-355 532-15 935 137 1209 456 669 756 1422 1632 2261 2628l2568 3091 2558 3136 2231 2765c-91 240-253 475-486 706-234 232-543 423-928 574-562 222-998 279-1310 170-313-108-618-354-918-737l-1672-2123zm-6096-7556l62 1533 84 1762 80 1860 86 1845 4190-1653-4381-5395-121 48zm28510 3503c993-126 1696-412 2109-855 414-445 583-957 509-1540-67-530-301-931-701-1202-399-271-981-471-1746-600l-1708-305c-676-122-1297-278-1860-468-563-189-1055-435-1476-739-422-302-765-676-1030-1120-265-446-440-993-522-1643-176-1387 207-2553 1148-3499 940-946 2318-1533 4132-1764 719-91 1389-120 2012-86 621 34 1167 121 1637 261s848 341 1133 600 450 569 496 928c44 343 0 648-131 917s-307 495-527 680c-448-239-1023-422-1727-550-703-128-1457-141-2261-39-891 113-1546 357-1968 733s-598 837-529 1385c57 445 258 767 606 966 347 200 877 367 1590 503l1522 276c1545 256 2778 717 3698 1382 919 666 1463 1658 1630 2976 89 702 34 1361-166 1978s-534 1168-1003 1654c-469 485-1078 893-1827 1224-750 329-1620 558-2614 684-787 100-1519 123-2195 70s-1269-165-1778-335-916-397-1222-680c-305-282-481-612-529-989-50-394 23-747 217-1058 196-312 439-556 729-732 476 322 1085 597 1826 825 743 226 1585 281 2526 162zm19359-2075l-5795-146-658 1976-574 1694c-174 65-362 121-561 167-200 47-446 66-739 59-587-15-1041-143-1363-384-321-241-477-577-466-1008 5-207 41-409 106-606s144-424 237-680c151-480 351-1058 601-1733l806-2206 930-2462 956-2461 885-2230 731-1781c228-115 563-227 1005-337 443-109 889-159 1338-148 603 16 1153 120 1648 315 497 193 807 490 935 891 322 957 673 2058 1056 3302l1159 3848 1131 3886 974 3416c-177 186-418 339-723 461-305 121-665 177-1078 167-604-16-1029-134-1273-356-245-222-431-568-557-1037l-711-2607zm-2662-9336l-542 1436-611 1654-653 1744-639 1732 4502 114-1928-6677-129-3zm21328 11583c-199 96-443 155-732 176-288 23-609-7-961-90-438-100-791-239-1060-416s-430-423-481-735l-727-4790-419-3364-126-29-854 3070-752 2735-744 2710c-256 915-542 1903-857 2963l-666 5c-264-7-539-44-824-110-1127-260-1593-810-1399-1651l326-1239 555-1944 719-2424 799-2657 809-2643 744-2418c174-137 462-252 864-345s889-74 1460 58c640 147 1132 372 1479 673 347 302 564 720 654 1254l298 1875 301 2088 298 2101 284 1938 100 23 2762-4197 2343-3417c225-54 505-78 839-71 336 6 671 48 1008 125 622 144 1096 351 1423 621 327 271 491 601 489 990l-125 1578-298 2442-406 2908-445 2964-415 2602-317 1838c-250 84-504 132-764 142-259 12-565-24-918-105-438-101-800-277-1087-530-287-252-390-625-312-1121l543-3155 540-2917 479-2533 380-1997-126-29c-450 728-1053 1647-1805 2757l-2876 4291zm19640 6864l-5393-2127-1297 1631-1120 1394a4768 4768 0 0 1-584-35c-204-26-442-91-715-199-546-216-928-492-1148-829-220-336-250-705-92-1107 76-192 179-370 308-533l456-557 1159-1421 1514-1795 1718-1993 1743-1984c559-642 1091-1239 1597-1791l1297-1422c254-29 607-20 1060 29 454 49 890 156 1307 320 562 222 1042 509 1441 861s590 738 573 1158l-142 3464-233 4012-272 4038-256 3543c-230 114-509 175-837 185-329 9-686-62-1071-214-562-222-920-478-1073-771-154-293-209-681-167-1165l227-2692zm703-9683l-1001 1163-1142 1344-1212 1414-1195 1407 4190 1652 481-6933-121-47zm8058 18295l-637-217c-273-97-551-227-835-390-568-327-908-662-1019-1005s-26-761 258-1255l6478-11263c163-284 363-458 599-521 235-64 513-63 834 2 574 111 1205 320 1894 627s1378 657 2066 1054c1975 1135 3221 2394 3739 3777 519 1383 365 2792-461 4229-542 942-1259 1619-2153 2031-894 411-1882 555-2965 430l497 3524 318 2587c-344 320-727 502-1151 548-424 44-816-37-1174-244-464-266-759-575-885-926-127-352-206-776-239-1273l-354-5249-2087-1200-2723 4734zm5833-5990c853 490 1645 697 2376 620 732-78 1316-497 1755-1260 869-1511 294-2847-1725-4009-300-171-596-322-890-451l-826-356-2529 4398 1839 1058zm23243 7588c-17 162-68 358-150 590-83 230-210 455-380 673-288 365-591 577-910 633-319 58-628-32-926-266l-2809-2207-7995 10176-589-298c-263-140-516-306-760-498-516-405-808-788-875-1149-68-360 74-764 426-1213l7148-9097-3420-2686c29-176 81-375 159-600 77-224 201-445 372-662 298-380 605-595 918-645s619 43 918 278l8873 6971zm-4582 17644l-530-414c-225-181-445-395-660-643-429-495-640-923-632-1284 7-360 226-727 656-1100l10818-9372c117 82 293 221 530 415s452 402 643 623c408 470 622 889 644 1258 23 368-194 750-651 1146l-3853 3338 4236 4891 4890-4237c117 82 294 220 531 415 237 194 451 402 643 623 407 470 619 892 634 1266 17 374-204 759-660 1155l-10799 9354-530-414c-225-181-446-396-660-643-430-496-640-924-633-1284s226-727 657-1101l3892-3372-4236-4890-4930 4270zm17071 17011l-3128-4880-2006 563-1725 475-453-370c-150-140-304-332-463-580-316-494-465-942-446-1343 20-402 210-719 574-952 174-111 361-196 561-252l696-185 1771-474 2279-570 2559-610 2574-589 2343-518 1885-393c222 124 503 338 842 643 339 306 630 646 872 1025 326 508 548 1021 665 1540 118 520 46 945-213 1275l-2142 2726c-815 1014-1660 2053-2537 3116l-2583 3116-2282 2723c-253-43-515-156-787-340-272-185-519-452-743-800-326-509-466-926-418-1253 46-328 228-674 546-1043l1759-2050zm6237-7440l-1493 357-1712 422-1810 437-1793 442 2431 3791 4447-5340-70-109zm1925 16977l-6108 2762c-111-120-245-301-402-543l-437-810c-270-598-354-1066-252-1406s420-630 955-873l13041-5895c89 112 219 294 391 548 171 254 318 515 438 781 257 567 343 1029 259 1389s-401 664-951 913l-4859 2196 8786 2846c340 755 439 1368 292 1841-146 474-422 802-831 987-330 150-663 200-997 152-333-47-740-162-1220-343l-5764-2194c-704 1794-1341 3380-1912 4755s-1009 2521-1316 3436c-526 219-1007 233-1444 41-436-190-757-513-963-970-206-456-259-896-158-1321l422-1298 3030-6994z" fill="#333"/><g fill="url(#K)"><path d="M30646 83327c706 323 1234 793 1580 1398 346 607 510 1350 484 2229 715-772 1473-1246 2281-1428 803-180 1614-81 2427 290 1488 686 2341 1735 2566 3147 221 1416-138 3148-1082 5196l-463 942c-169 331-358 658-554 985-194 326-408 645-639 958-230 310-460 593-691 850-598 635-1233 800-1905 489l-11487-5289c-297-140-490-322-575-551s-109-505-73-828c72-612 236-1288 490-2025l915-2259c869-1893 1869-3208 2995-3944 1125-731 2373-789 3731-160zm5228 5539c-628-288-1223-292-1790-14-567 281-1045 844-1434 1691l-1266 2749 3924 1804c217-258 434-592 657-993l614-1209c442-954 619-1782 529-2476-88-696-499-1216-1234-1552zm-6719 3395l1092-2371c389-847 505-1554 352-2128-151-574-532-1000-1143-1284-1240-567-2296 103-3178 2014l-469 1136-298 961 3644 1672z"/><path d="M45148 80848l-246 627c-107 269-252 541-428 819-349 554-697 879-1046 976-344 97-759-9-1239-312l-12086-7658 246-627c120-282 256-545 410-796 333-524 672-849 1020-977 345-127 773-31 1284 294l4304 2727 3461-5465-5464-3456c46-139 127-347 246-627a5426 5426 0 0 1 410-797c333-524 676-849 1029-973 353-122 785-21 1296 300l12059 7644-242 628c-106 267-251 541-426 818-350 550-698 875-1047 972-344 97-759-9-1240-312l-4347-2757-3462 5465 5508 3487z"/><path d="M56411 59566l-3793 4377 1108 1762 943 1517c-60 177-138 358-228 539-90 186-232 389-421 609-384 446-772 713-1164 809-388 96-746 1-1075-283-155-134-289-288-398-465l-375-616-957-1560-1189-2026-1307-2279-1294-2302-1159-2094-909-1698c55-245 185-579 377-988a5094 5094 0 0 1 736-1124c397-457 828-816 1288-1076 466-260 893-308 1282-153l3219 1280 3704 1551 3717 1594 3255 1418c30 255-8 535-106 850-99 310-284 622-555 937-397 454-758 708-1082 757-327 48-711-29-1156-231l-2461-1105zm-8893-3875c226 400 480 845 767 1331l886 1521 930 1612 930 1591 2945-3400-6372-2750-86 95z"/><path d="M66886 51523c788-619 1244-1228 1367-1820 124-591 6-1117-358-1578-329-422-735-641-1218-669-479-25-1083 102-1802 384l-1620 621-1832 553c-578 131-1126 172-1644 130-517-42-1005-188-1459-432-457-245-886-623-1292-1135-867-1098-1137-2292-817-3587 316-1295 1192-2505 2630-3635 569-450 1128-819 1675-1108 552-291 1064-500 1538-622 475-122 901-145 1277-68 380 77 678 253 903 536 212 272 334 556 360 853 27 298-7 583-101 855-509 28-1095 167-1763 419s-1318 629-1955 1131c-702 554-1140 1099-1307 1638-167 540-84 1024 258 1458 278 353 619 525 1020 515 397-6 940-136 1616-388l1448-548c1453-573 2746-814 3876-718 1131 96 2107 668 2926 1709 437 555 731 1145 876 1779 148 629 146 1272-8 1933-149 656-463 1316-936 1986-468 666-1095 1310-1883 1929-620 494-1236 888-1843 1192s-1172 512-1694 626c-522 118-987 132-1393 47-410-86-730-275-963-571-247-315-369-651-361-1022 7-367 89-699 247-1001 574 32 1238-47 1988-234 754-188 1500-574 2244-1158z"/><path d="M79340 45174l-510 439c-220 189-475 361-756 525-570 327-1031 451-1380 373-354-74-668-359-953-856l-7105-12405c100-99 268-245 506-440 237-197 479-365 734-511 539-310 993-438 1359-391 363 49 699 338 996 860l2533 4422 5608-3213-3212-5608c103-100 271-246 510-444 233-193 478-362 734-508 539-310 992-434 1363-377 367 52 703 346 1003 868l7093 12384-505 439-760 525c-570 322-1028 447-1381 373-350-78-668-363-952-856l-2555-4464-5609 3213 3239 5652z"/><path d="M99239 31485l-5410 2078 148 2077 118 1786c-134 124-287 248-456 367-165 120-386 230-658 336-550 211-1016 268-1408 169-387-102-662-355-814-757-76-191-117-389-132-597l-42-721c-44-500-81-1109-110-1830l-97-2342-82-2632-55-2637-37-2399-5-1924c166-193 435-428 800-696 369-269 759-486 1178-646 563-215 1111-332 1642-341 535-12 935 147 1204 463l2239 2651 2541 3109 2527 3158 2207 2784c-92 236-258 471-493 702-235 227-542 419-933 567-562 215-998 267-1307 157-315-115-614-363-913-746l-1652-2136zm-6027-7607c8 457 26 971 47 1536l67 1760 66 1860 72 1843 4202-1613-4334-5433-120 47z"/><path d="M121579 27329c996-130 1697-417 2106-859 412-447 582-960 506-1542-71-530-305-931-708-1201-398-270-981-465-1745-591l-1710-300c-677-122-1299-275-1861-462-566-188-1059-432-1478-732-424-304-767-678-1036-1122-265-442-440-989-525-1636-182-1388 197-2555 1133-3503 937-949 2315-1542 4125-1778 720-94 1389-126 2010-95 626 32 1169 117 1641 257 471 140 846 337 1137 594 285 258 450 568 495 926 44 345 2 651-125 919-133 268-305 497-524 680-449-235-1029-419-1732-541-703-127-1454-136-2260-34-888 117-1543 365-1964 742-422 377-596 840-525 1387 58 444 262 767 608 964 350 197 882 362 1594 497l1524 271c1545 248 2781 703 3703 1368 921 661 1464 1651 1638 2970 94 703 40 1359-160 1976-195 618-530 1172-998 1660-464 486-1075 894-1819 1230-750 330-1620 563-2612 692-789 103-1522 127-2195 79-677-54-1269-163-1779-330-509-170-916-393-1224-676-306-279-485-610-534-986-49-392 18-746 216-1058 192-315 433-558 725-736 477 322 1085 595 1828 820 743 222 1585 274 2525 150z"/><path d="M140975 25374l-5793-196-675 1970-587 1686a4619 4619 0 0 1-563 163c-198 47-444 62-737 51-586-17-1039-150-1360-395-317-244-470-581-458-1013a2222 2222 0 0 1 112-603l242-675c156-482 363-1054 618-1729l824-2198 952-2452 977-2451 901-2219 748-1775c229-111 563-220 1008-329 445-104 890-148 1338-131 603 17 1150 124 1645 323 490 198 803 498 925 901l1027 3307 1125 3857 1096 3895 943 3420c-178 184-421 338-728 456-303 119-666 171-1076 156-603-18-1030-142-1269-364-245-226-428-573-549-1044l-686-2611zm-2579-9352c-172 427-357 904-556 1429l-626 1647-664 1737-657 1725 4498 156-1866-6692-129-2z"/><path d="M159614 27527c-199 95-445 151-733 173-290 21-609-5-963-87-435-104-789-242-1057-418-271-177-431-423-483-734l-725-4787-418-3366-125-30-855 3071-754 2736-742 2708c-254 915-544 1903-858 2960l-664 8c-264-8-540-47-824-112-1126-259-1592-810-1398-1652l323-1238 557-1941 720-2425 798-2657 807-2640 745-2420c173-133 462-250 863-340 402-96 890-78 1458 56 643 146 1135 371 1480 673 345 301 565 719 656 1255l294 1871 302 2089 297 2100 284 1937 104 22 2757-4193 2342-3417c224-56 504-77 841-73 336 9 669 52 1005 129 625 142 1100 350 1424 617 328 272 491 600 487 993l-121 1574-297 2442-410 2907-444 2964-414 2600-319 1838a2812 2812 0 0 1-759 142c-264 13-570-26-919-108-441-98-803-276-1088-525-288-255-392-626-310-1122l539-3153 544-2916 474-2533 383-1997-124-30c-453 729-1053 1648-1808 2756l-2872 4293z"/><path d="M179250 34308l-5401-2086-1286 1637-1109 1403c-186 2-380-10-583-34-207-24-445-87-718-193-545-210-931-484-1150-819-223-334-255-705-100-1107a2090 2090 0 0 1 302-533l453-561 1149-1428 1499-1803 1704-2003 1727-1994 1580-1804 1287-1429c254-29 608-23 1062 21 453 48 890 152 1305 312 563 220 1048 501 1448 852 400 350 592 732 578 1151l-117 3461-204 4013-242 4036-234 3543c-228 114-508 177-836 188-328 12-682-54-1071-207-562-215-919-471-1076-763-153-288-213-676-173-1159l206-2694zm635-9680l-991 1168-1132 1351-1200 1425-1183 1411 4197 1623 430-6932-121-46z"/><path d="M188020 43002l-639-220c-272-95-553-228-833-391-571-326-912-658-1020-1003-113-341-28-759 257-1256l6477-11261c163-285 362-458 599-523 237-61 513-62 832 3 575 111 1209 322 1895 626 691 310 1377 658 2068 1054 1973 1135 3222 2397 3738 3777 520 1384 368 2795-459 4228-542 946-1261 1619-2153 2031-896 416-1885 556-2967 432l497 3524 319 2587c-344 321-728 502-1151 546-426 47-814-33-1173-239-467-267-760-578-886-927-125-353-209-776-239-1272l-354-5254-2086-1199-2722 4737zm5830-5994c855 491 1646 701 2378 622 729-79 1315-499 1754-1258 869-1511 293-2848-1724-4009-302-172-600-323-894-452l-824-356-2529 4396 1839 1057z"/><path d="M217089 44673c-18 159-70 358-153 590-86 228-212 452-386 668-285 365-587 576-907 631-319 55-630-36-926-270l-2798-2212-8021 10137-586-303c-263-139-517-308-758-498-513-407-805-792-872-1150-64-363 79-763 430-1211l7172-9060-3405-2698c27-176 79-375 162-599 78-224 199-444 373-659 298-378 605-594 920-640 311-51 617 45 913 278l8842 6996z"/><path d="M212502 62245l-530-415c-223-181-443-397-659-643-426-498-636-925-627-1283 5-362 226-729 658-1099l10821-9342c116 82 293 221 530 415 233 195 448 401 641 622 405 471 616 890 641 1257 21 371-195 749-653 1146l-3858 3328 4223 4891 4895-4224c116 82 293 221 530 415a5073 5073 0 0 1 641 627c405 466 616 889 629 1264 16 376-205 760-663 1151l-10800 9325-530-415c-224-181-443-393-658-644-427-496-638-924-628-1282 9-362 225-724 658-1098l3892-3363-4223-4890-4930 4257z"/><path d="M229527 79314l-3090-4902-2009 549-1728 464-451-373c-150-144-299-334-458-585-312-494-456-944-436-1344 24-402 215-719 579-947 178-111 363-196 563-250 198-56 431-114 699-177l1772-464 2281-552 2561-593 2579-571 2345-499 1888-382c219 126 499 340 837 648 334 308 621 651 861 1032 325 511 542 1025 655 1544 114 518 42 945-223 1271l-2160 2709-2556 3099-2602 3095-2302 2709c-250-45-512-164-783-350-270-183-515-452-737-803-320-511-457-930-411-1253 49-328 233-676 554-1041l1772-2034zm6286-7396l-1494 350-1716 409-1809 424-1793 429 2402 3806 4478-5309-68-109z"/><path d="M237752 88747l-6092 2791c-109-120-243-300-404-541l-440-809c-272-593-360-1063-258-1400 100-341 414-632 948-877l13006-5962 391 545c174 254 322 512 444 779 259 563 347 1025 263 1387-80 359-393 667-943 916l-4845 2223 8795 2797c345 754 447 1365 303 1841-144 470-418 800-827 988-326 152-659 206-995 156-333-45-739-155-1219-334l-5775-2162-1884 4760c-566 1379-999 2525-1300 3441-521 223-1005 239-1442 51-436-187-761-509-967-965-209-456-264-896-166-1319l414-1301 2993-7005z"/></g><path d="M30522 83348c708 320 1238 782 1589 1386 352 604 519 1347 499 2228 711-777 1468-1258 2271-1444 804-186 1614-94 2433 275 1493 676 2356 1720 2589 3131 65 395 85 817 59 1263-12-181-31-358-59-529-233-1412-1096-2456-2589-3131-819-370-1629-462-2433-275-803 185-1560 667-2271 1444 20-881-147-1624-499-2228-351-604-881-1066-1589-1386-1367-619-2612-556-3734 186-1121 743-2112 2066-2973 3968-348 771-646 1526-896 2265-231 689-384 1322-460 1900-34-178-39-380-16-605 69-612 228-1289 476-2028l896-2265c861-1903 1852-3225 2973-3968 1122-743 2367-805 3734-187zm1083 10090l3663 1656c213-263 430-596 649-999l608-1217c286-632 457-1207 514-1724 85 690-85 1510-514 2458l-608 1217-649 999-3939-1781 276-609zm-2516-1137l1076-2382c200-443 328-848 380-1216 91 539-36 1189-380 1950l-1076 2381-3656-1652 188-649 3468 1568zm16082-11439l-231 585-5260-3371 334-520 5157 3306zm-14790-5484l-230-148 247-625c119-282 258-547 416-793 336-524 677-848 1024-974s775-26 1283 300l4293 2751 3158-4926 333 213-3491 5447-4293-2752c-508-325-936-425-1283-299s-688 450-1024 974l-416 793-17 39zm5307-8280l-230-147 248-626c119-283 258-547 416-794 335-523 680-845 1034-966 355-121 786-19 1294 307l12029 7709-231 586-11798-7561c-508-327-939-429-1294-307-354 121-699 443-1034 966l-416 793-18 40zm17201-2738l839 1342 943 1519c-50 145-111 293-181 443l-762-1229-1108-1764 269-311zm-8556-8243l-147-273c56-249 182-579 379-990 197-412 442-788 736-1127 395-456 825-814 1290-1073 464-260 892-312 1282-156l3221 1282 3707 1551 3720 1596 3257 1418c26 215 5 450-62 706l-3195-1390-3720-1596-3707-1551-3221-1283c-390-156-818-104-1282 157-465 258-895 616-1290 1073-294 339-539 715-736 1126l-232 530zm3634 357l312 535 889 1523 932 1613 931 1594 2486-2870 463 200-2949 3404-931-1595-932-1612-889-1523-765-1331 85-97 368 159zm18936-4953c787-619 1244-1224 1370-1817l14-71c51 252 46 521-14 805-126 592-583 1198-1370 1816-747 587-1497 972-2250 1159-754 185-1417 263-1991 231-103 195-174 404-213 629a1490 1490 0 0 1-35-361c6-367 89-701 248-1002 574 32 1237-45 1991-231 753-187 1503-572 2250-1158zm-10792-6162c-43-452-5-917 114-1396 321-1296 1201-2507 2639-3637 570-448 1130-817 1681-1107 551-291 1064-497 1540-617 475-122 902-144 1280-68 377 76 679 256 903 541 213 272 332 556 358 855 16 193 8 380-26 562-50-236-160-464-332-683-224-285-526-466-903-541-378-77-805-54-1280 67-476 121-989 327-1540 617s-1111 659-1681 1107c-1438 1130-2318 2342-2639 3637a4383 4383 0 0 0-114 663zm3337-516c53 204 152 399 297 584 277 352 616 525 1016 518s941-136 1622-386l1448-546c1458-573 2752-812 3883-713s2107 671 2928 1716c437 555 728 1150 873 1782a4153 4153 0 0 1 91 1306l-91-573c-145-631-436-1226-873-1782-821-1044-1797-1616-2928-1716-1131-99-2425 140-3883 714l-1448 545c-681 251-1222 379-1622 387-400 7-739-166-1016-519-311-395-410-834-297-1317zm19890 321l-279 247-2972-5167 317-182 2934 5102zM68881 33730l-279-485c102-98 272-246 508-441 235-195 481-366 735-512 539-310 990-441 1357-393 366 48 700 335 1000 857l2543 4421 5292-3044 316 552-5608 3226-2543-4421c-300-523-634-809-1000-857-367-48-818 83-1357 392-254 146-500 318-735 513l-229 192zm8526-4903l-279-485c102-98 271-246 508-441 236-195 480-367 735-513 538-309 993-436 1363-381 370 56 706 346 1007 869l7123 12385-279 248-6844-11899c-301-524-637-814-1007-869s-825 71-1363 381c-255 146-499 317-735 513l-229 192zm16438 5415l106 1368 133 1783-53 49-80-1099c-53-721-108-1414-165-2077l59-24zm-3779-11064l-10-723c165-195 430-429 795-703 365-273 755-493 1173-657 561-222 1108-341 1641-355 532-16 935 137 1209 455 669 757 1422 1632 2261 2628l2568 3091 2558 3137 2231 2764c-55 146-136 289-243 431-595-740-1258-1561-1988-2462l-2558-3136-2568-3091-2261-2628c-274-319-677-471-1209-456-533 15-1080 134-1641 355a5006 5006 0 0 0-1173 658c-358 269-620 499-785 692zm3042 1395l36 810 84 1761 80 1861 86 1844 3739-1475 451 556-4190 1653-86-1845-80-1860-84-1762-62-1533 26-10zm28484 2779c993-126 1696-411 2109-855 261-280 424-588 491-922l18 116c74 583-95 1095-509 1540-413 443-1116 729-2109 855-941 119-1783 64-2526-162-741-228-1350-503-1826-825-290 176-533 420-729 732a1513 1513 0 0 0-193 465c-10-46-18-93-24-140-50-394 23-747 217-1059 196-312 439-555 729-732 476 322 1085 597 1826 825 743 227 1585 281 2526 162zm-6453-8738c-96-1270 295-2348 1176-3233 940-945 2318-1533 4132-1764 719-91 1389-120 2012-86 621 34 1167 121 1637 262 470 140 848 340 1133 599 285 260 450 569 496 929 28 216 20 417-22 604-66-305-224-571-474-799-285-259-663-460-1133-600s-1016-227-1637-261c-623-34-1293-5-2012 86-1814 231-3192 818-4132 1764-706 709-1098 1541-1176 2499zm3469-16c80 367 273 638 580 815 347 199 877 366 1590 502l1522 276c1545 256 2778 717 3698 1383 919 666 1463 1658 1630 2975 44 345 54 678 28 1002l-28-268c-167-1318-711-2310-1630-2976-920-665-2153-1126-3698-1382l-1522-276c-713-136-1243-303-1590-503-348-199-549-521-606-966-26-206-17-401 26-582zm12226 9416c-29-117-42-243-39-379 5-207 41-409 106-606s144-423 237-679c151-481 351-1058 601-1734l806-2205 930-2462 956-2462 885-2230 731-1780c228-116 563-228 1005-337 443-110 889-160 1338-148 603 15 1153 120 1648 314 497 193 807 491 935 891 322 958 673 2058 1056 3302l1159 3848 1131 3887 974 3415c-50 53-105 103-165 150l-809-2832-1131-3886-1159-3848-1056-3302c-128-401-438-698-935-891-495-195-1045-299-1648-315-449-11-895 39-1338 148-442 110-777 222-1005 337l-731 1781c-285 692-581 1435-885 2230l-956 2461-930 2462-806 2206-601 1733-237 680c-27 83-50 167-67 251zm5275-5500l4023 102 214 739-4502-114 265-727zm12915 6180c-66-205-69-436-9-696l326-1239 555-1943 719-2425 799-2657 809-2642 744-2419c174-137 462-252 864-345s889-74 1460 58c640 148 1132 373 1479 673 347 302 564 720 654 1254l298 1875 301 2088 298 2101 284 1938 100 23 2762-4196 2343-3417c225-55 505-78 839-72 336 6 671 48 1008 126 622 144 1096 351 1423 621s491 601 489 989l-23 483c-56-282-212-528-466-739-327-270-801-477-1423-621-337-77-672-119-1008-125-334-7-614 17-839 71l-2343 3417-2762 4197-100-23-284-1938-298-2101-301-2088-298-1875c-90-534-307-952-654-1254-347-301-839-526-1479-673-571-132-1058-151-1460-58s-690 208-864 345l-744 2418-809 2643-799 2657-719 2424c-215 739-400 1386-555 1944l-317 1201zm13474 3053c-49-184-54-397-16-640l543-3155 540-2916 479-2533 238-1266 16-27 126 29-380 1997-479 2533-540 2917-527 3061zm6371 2215c-93-264-79-545 39-845a2069 2069 0 0 1 308-533l456-557 1159-1422 1514-1795 1718-1993 1743-1984c559-642 1091-1239 1597-1791l1297-1422c254-29 607-20 1060 29 454 49 890 156 1307 321 562 221 1042 508 1441 860s590 738 573 1159l-14 488c-52-327-238-630-559-913-399-352-879-639-1441-861-417-164-853-271-1307-320-453-49-806-58-1060-29l-1297 1422-1597 1791-1743 1984-1718 1993-1514 1795-1159 1421-456 557c-129 163-232 341-308 533l-39 112zm10169 3759c-26-191-29-405-8-641l167-1981 60 23-219 2599zm-3164-7504l3726 1468 431-6218 50 19-481 6933-4190-1652 464-550zm9666 11206l-13-35c-111-343-26-761 258-1254l6478-11263c163-284 363-458 599-522 235-63 513-63 834 3 574 111 1205 319 1894 626s1378 658 2066 1054c1975 1135 3221 2394 3739 3777 245 653 339 1312 285 1976-36-416-130-831-285-1242-518-1383-1764-2642-3739-3777-688-397-1377-747-2066-1054s-1320-516-1894-627c-321-65-599-66-834-2-236 63-436 237-599 521l-6478 11263c-113 198-195 383-245 556zm10378-179l395 2779 318 2587-67 60-251-1913-497-3524 102 11zm-2067-4234c853 491 1645 697 2376 620 732-77 1316-497 1755-1260 186-323 306-640 359-946 98 533-22 1093-359 1680-439 763-1023 1182-1755 1260-731 77-1523-130-2376-620l-1839-1058 317-551 1522 875zm23243 7588c-17 162-68 358-150 590l-8 20-8715-6847c-299-235-605-328-918-278s-620 265-918 645c-169 215-293 433-370 655l-161-127c29-175 81-375 159-600 77-224 201-444 372-661 298-380 605-595 918-645s619 42 918 277l8873 6971zm-15344 7830c-22-58-39-118-50-176-68-360 74-764 426-1212l6791-8644 357 280-7148 9097c-180 231-306 449-376 655zm9008 7867c-48-139-71-271-68-394 7-360 226-727 656-1100l10818-9371c117 82 293 220 530 415 237 193 452 401 643 623 408 470 622 888 644 1257 8 132-14 266-68 401-94-283-286-591-576-925-191-221-406-429-643-623l-530-415-10818 9372c-296 256-492 509-588 760zm9082-3667l3873 4472 4890-4236c117 81 294 219 531 414a5212 5212 0 0 1 643 624c407 469 619 891 634 1265 6 128-15 257-65 387-93-283-283-589-569-919-192-221-406-429-643-623l-531-415-4890 4237-4236-4891 363-315zm-2642 11100c-48-140-72-270-69-393 7-360 226-727 657-1100l3530-3058 362 419-3892 3372c-295 256-492 510-588 760zm4209 5844c-37-157-52-308-45-454 20-401 210-719 574-952 174-111 361-196 561-252l696-184 1771-475 2279-569 2559-611 2574-589 2343-518 1885-393c222 124 503 338 842 644 339 305 630 646 872 1024 326 508 548 1022 665 1541 68 300 73 569 15 806l-15-73c-117-519-339-1032-665-1540-242-379-533-719-872-1025-339-305-620-519-842-643l-1885 393-2343 518-2574 589-2559 610-2279 570-1771 474-696 185c-200 56-387 141-561 252-275 176-451 400-529 672zm5923 9281c-56-188-74-357-52-507 46-327 228-674 546-1042l1490-1737 269 420-1759 2050c-246 285-410 556-494 816zm2087-8750l2026 3160 3819-4586 558-130 70 109-4447 5340-2431-3791 405-102zm1137 15398c-63-278-66-514-8-708 102-339 420-630 955-872l13041-5896c89 112 219 295 391 549 171 253 318 514 438 781 257 566 343 1028 259 1388l-14 53c-47-214-128-450-245-708-120-266-267-527-438-781l-391-548-13041 5895c-521 237-837 519-947 847zm10212-1342l7840 2539c313 695 422 1270 323 1726-51-298-159-629-323-992l-8786-2846 946-427zm-6487 9719c-52-270-48-536 14-795l422-1299 2635-6081 395-179-3030 6994c-180 441-320 874-422 1298l-14 62z" fill="#fff"/></g><path d="M157436 142585h1546l131 1075h65c716-700 1530-1270 2621-1270 1709 0 2458 1156 2458 3175v5014h-1872v-4769c0-1320-375-1809-1253-1809-701 0-1157 343-1824 994v5584h-1872v-7994zm-51520-33398c652 3243 1683 10296 1281 11104-928 1870-350 3407 899 4814l2343 2361 1463 1616c1406 1830 1038 3165-1095 4046-244 101-498 171-732 287-465 227-638 675-428 1158 127 314 315 604 462 914 408 917 193 1722-659 2260-423 262-909 424-1370 627-380 168-765 322-1140 627l1100 234 1698 401c841 330 1086 1067 723 1886-66 148-141 297-238 421-976 1214-959 2550-520 3941 416 1292 52 2197-1193 2786-1604 757-3354 835-5083 928-523 23-1053-5-1578 3-1071 25-1494 853-1780 1650l-170 515c6314 14095 20461 23913 36903 23913 14829 0 27791-7988 34823-19897h5071c-7449 14452-22516 24336-39894 24336-6326 0-12345-1312-17803-3675l-16593 15402 6564-21407c-10371-8217-17025-20923-17025-35184 0-24769 20081-44855 44857-44855 16502 0 30918 8912 38708 22183h-5246c-7269-10709-19544-17746-33462-17746-12388 0-23472 5576-30886 14351zm-6766 40794l202-340c664-1144 1711-1436 2981-1469 1526-39 3045-265 4561-426 243-26 476-120 699-206 880-341 954-555 711-1452-460-1696-489-3349 675-4822 52-65 88-132 129-205 11-36 6-74 23-206l-1512-266c-715-241-1443-500-2069-905-625-399-625-1115-45-1586 426-350 957-589 1463-822l1525-588c359-149 498-385 248-756-130-201-218-430-331-644-601-1116-107-2741 1307-3273 249-94 498-180 733-278 996-424 1137-784 448-1615l-2669-2805c-1281-1263-2476-2571-2833-4405-106-551-57-1160 32-1725 72-488 311-954 477-1430 183-516-596-5815-1178-9094-5232 6812-8343 15338-8343 24591 0 5197 980 10164 2766 14727zm19299-11108c-35-2206-848-4224-2445-5936-636-687-528-1435 279-1656 308-83 823 88 1051 332 2172 2256 3178 4975 2998 8102-154 2530-1115 4750-2848 6623-444 483-928 808-1548 309-490-389-422-967 167-1617 1538-1714 2329-3718 2346-6157zm8186 1531c-23 2365-1267 5622-3757 8404l-335 356c-465 477-989 627-1496 128-488-484-323-987 114-1438 1284-1331 2291-2852 2860-4621 1517-4713 670-8968-2581-12723-149-165-319-312-451-481-322-427-356-895 58-1247 393-341 898-449 1331-29l1204 1337c2007 2641 3070 5614 3053 10314zm6295-1336c-65 4751-1655 8908-4862 12430l-517 530c-433 371-898 411-1313 0-421-415-398-891-40-1328 380-468 829-873 1194-1348 3849-5049 4658-10565 2433-16509-750-1988-1945-3697-3381-5254-264-282-480-773-440-1139 109-770 1030-920 1666-296 1604 1594 2832 3452 3735 5516 1019 2359 1546 4825 1525 7398zm7081 44406c-6969 0-13620-1276-19704-3585l-7077 5187c5929 2323 12381 3598 19134 3598 11902 0 22876-3965 31680-10645-7201 3479-15372 5445-24033 5445zm-34549-12152c-10981-8999-17916-22215-17916-36949 0-27116 23490-49100 52465-49100 2144 0 4256 123 6332 357-4450-1227-9139-1886-13979-1886-28976 0-52467 23489-52467 52465 0 18488 9564 34741 24014 44086l1551-8973zm47758-31390h1889v10647h-1889v-10647zm32897-4638c-2202 0-4059-734-5549-2181-1489-1468-2225-3347-2225-5657 0-2309 757-4208 2247-5655 1489-1447 3346-2181 5527-2181 2202 0 4059 734 5549 2202 1490 1447 2247 3325 2247 5634 0 2310-757 4189-2247 5657-1490 1447-3326 2181-5549 2181zm0-3411c1230 0 2246-410 3002-1210 777-820 1165-1900 1165-3238 0-1339-388-2419-1165-3238-756-821-1772-1229-3002-1229-1231 0-2246 408-3001 1229-757 819-1144 1899-1144 3238 0 1338 387 2418 1144 3238 755 800 1770 1210 3001 1210zm-13345-108h3692c1059 0 1664 561 1664 1576 0 1036-605 1576-1664 1576h-5463c-1316 0-1640-238-1640-1425v-11486c0-1446 691-2051 1706-2051 971 0 1705 605 1705 2051v9759zm-13280 3519c-2202 0-4059-734-5549-2181-1490-1468-2224-3347-2224-5657 0-2309 756-4208 2246-5655 1489-1447 3346-2181 5527-2181 2202 0 4059 734 5549 2202 1489 1447 2245 3325 2245 5634 0 2310-756 4189-2245 5657-1490 1447-3326 2181-5549 2181zm0-3411c1230 0 2245-410 3001-1210 777-820 1166-1900 1166-3238 0-1339-389-2419-1166-3238-756-821-1771-1229-3001-1229-1232 0-2246 408-3001 1229-756 819-1145 1899-1145 3238 0 1338 389 2418 1145 3238 755 800 1769 1210 3001 1210zm-11791-4966c1467 539 2375 1922 2375 3411 0 2828-1813 4599-5420 4599h-3649c-1209 0-1640-367-1640-1424v-12134c0-929 431-1425 1640-1425h3090c3475 0 4900 1576 4900 3929 0 1532-669 2547-1296 3044zm-4923 5074h2096c1101 0 1726-582 1726-1728 0-1100-778-1726-2180-1726h-1642v3454zm0-6218h1210c1036 0 1792-584 1792-1555 0-928-541-1381-1620-1381h-1382v2936zm40946 19694c-16-847-375-1564-1449-1564-798 0-1546 359-2246 782l-684-1253c879-554 2002-1041 3271-1041 2003 0 2980 1220 2980 3451v4738h-1530l-146-881h-50c-716 603-1530 1075-2473 1075-1401 0-2377-943-2377-2344 0-1710 1432-2605 4704-2963zm-1742 3843c651 0 1156-327 1742-880v-1791c-2165 276-2882 846-2882 1644 0 717 473 1027 1140 1027zm-6674-6725h1872v7994h-1872v-7994zm-212-2459c0-634 489-1074 1156-1074 668 0 1156 440 1156 1074 0 619-488 1058-1156 1058-667 0-1156-439-1156-1058zm-5859 2264c912 0 1482 342 2101 878l-66-1285v-2898h1872v11495h-1546l-130-864h-66c-586 586-1400 1058-2262 1058-2003 0-3289-1546-3289-4184 0-2605 1643-4200 3386-4200zm358 6838c619 0 1140-278 1677-896v-3728c-553-488-1090-668-1628-668-1026 0-1856 961-1856 2639 0 1724 652 2653 1807 2653z" fill="#333"/><path d="M157436 141518h1546l131 1075h65c716-700 1530-1270 2621-1270 1709 0 2458 1156 2458 3175v5014h-1872v-4770c0-1319-375-1808-1253-1808-701 0-1157 342-1824 994v5584h-1872v-7994zm-51520-33398c652 3243 1683 10296 1281 11104-928 1870-350 3407 899 4814l2343 2360 1463 1617c1406 1830 1038 3165-1095 4046-244 101-498 171-732 287-465 226-638 675-428 1158 127 314 315 604 462 914 408 917 193 1722-659 2260-423 262-909 424-1370 627-380 168-765 322-1140 626l1100 235 1698 400c841 331 1086 1068 723 1887-66 148-141 297-238 421-976 1214-959 2550-520 3940 416 1293 52 2198-1193 2786-1604 757-3354 835-5083 929-523 22-1053-5-1578 3-1071 25-1494 853-1780 1650l-170 515c6314 14095 20461 23913 36903 23913 14829 0 27791-7988 34823-19897h5071c-7449 14452-22516 24336-39894 24336-6326 0-12345-1312-17803-3675l-16593 15401 6564-21406c-10371-8217-17025-20923-17025-35184 0-24769 20081-44856 44857-44856 16502 0 30918 8913 38708 22183h-5246c-7269-10708-19544-17745-33462-17745-12388 0-23472 5575-30886 14351zm-6766 40794l202-340c664-1144 1711-1436 2981-1469 1526-39 3045-265 4561-426 243-26 476-120 699-206 880-341 954-555 711-1452-460-1696-489-3349 675-4823 52-64 88-131 129-204 11-36 6-74 23-206l-1512-267c-715-240-1443-499-2069-904-625-399-625-1115-45-1587 426-349 957-589 1463-821l1525-588c359-149 498-385 248-756-130-201-218-430-331-644-601-1116-107-2741 1307-3273 249-94 498-180 733-278 996-425 1137-784 448-1615l-2669-2805c-1281-1263-2476-2571-2833-4405-106-552-57-1160 32-1725 72-489 311-954 477-1430 183-516-596-5815-1178-9094-5232 6812-8343 15338-8343 24591 0 5197 980 10164 2766 14727zm19299-11108c-35-2206-848-4224-2445-5936-636-688-528-1435 279-1656 308-83 823 87 1051 332 2172 2256 3178 4974 2998 8102-154 2530-1115 4750-2848 6623-444 483-928 807-1548 309-490-389-422-968 167-1617 1538-1714 2329-3718 2346-6157zm8186 1531c-23 2365-1267 5622-3757 8404l-335 356c-465 477-989 627-1496 128-488-484-323-987 114-1438 1284-1331 2291-2852 2860-4621 1517-4713 670-8969-2581-12724-149-164-319-311-451-480-322-427-356-895 58-1247 393-342 898-449 1331-29l1204 1337c2007 2641 3070 5614 3053 10314zm6295-1336c-65 4751-1655 8908-4862 12430l-517 530c-433 370-898 410-1313 0-421-415-398-892-40-1328 380-468 829-873 1194-1348 3849-5049 4658-10565 2433-16509-750-1988-1945-3697-3381-5254-264-282-480-773-440-1139 109-770 1030-920 1666-296 1604 1594 2832 3452 3735 5516 1019 2359 1546 4825 1525 7398zm7081 44405c-6969 0-13620-1275-19704-3584l-7077 5186c5929 2323 12381 3599 19134 3599 11902 0 22876-3965 31680-10645-7201 3479-15372 5444-24033 5444zm-34549-12151c-10981-8999-17916-22215-17916-36949 0-27117 23490-49100 52465-49100 2144 0 4256 123 6332 357-4450-1228-9139-1887-13979-1887-28976 0-52467 23490-52467 52466 0 18488 9564 34741 24014 44086l1551-8973zm47758-31390h1889v10647h-1889v-10647zm32897-4638c-2202 0-4059-734-5549-2181-1489-1468-2225-3347-2225-5657 0-2309 757-4208 2247-5655 1489-1447 3346-2181 5527-2181 2202 0 4059 734 5549 2202 1490 1447 2247 3325 2247 5634 0 2310-757 4189-2247 5657-1490 1447-3326 2181-5549 2181zm0-3411c1230 0 2246-411 3002-1210 777-821 1165-1900 1165-3238 0-1339-388-2419-1165-3238-756-821-1772-1230-3002-1230-1231 0-2246 409-3001 1230-757 819-1144 1899-1144 3238 0 1338 387 2417 1144 3238 755 799 1770 1210 3001 1210zm-13345-108h3692c1059 0 1664 561 1664 1576 0 1035-605 1576-1664 1576h-5463c-1316 0-1640-238-1640-1425v-11486c0-1446 691-2051 1706-2051 971 0 1705 605 1705 2051v9759zm-13280 3519c-2202 0-4059-734-5549-2181-1490-1468-2224-3347-2224-5657 0-2309 756-4208 2246-5655 1489-1447 3346-2181 5527-2181 2202 0 4059 734 5549 2202 1489 1447 2245 3325 2245 5634 0 2310-756 4189-2245 5657-1490 1447-3326 2181-5549 2181zm0-3411c1230 0 2245-411 3001-1210 777-821 1166-1900 1166-3238 0-1339-389-2419-1166-3238-756-821-1771-1230-3001-1230-1232 0-2246 409-3001 1230-756 819-1145 1899-1145 3238 0 1338 389 2417 1145 3238 755 799 1769 1210 3001 1210zm-11791-4966c1467 539 2375 1922 2375 3411 0 2828-1813 4599-5420 4599h-3649c-1209 0-1640-367-1640-1424v-12134c0-929 431-1426 1640-1426h3090c3475 0 4900 1576 4900 3930 0 1532-669 2547-1296 3044zm-4923 5074h2096c1101 0 1726-583 1726-1728 0-1100-778-1726-2180-1726h-1642v3454zm0-6218h1210c1036 0 1792-584 1792-1555 0-928-541-1381-1620-1381h-1382v2936zm40946 19694c-16-847-375-1564-1449-1564-798 0-1546 359-2246 782l-684-1253c879-554 2002-1041 3271-1041 2003 0 2980 1220 2980 3451v4738h-1530l-146-881h-50c-716 602-1530 1075-2473 1075-1401 0-2377-943-2377-2344 0-1710 1432-2605 4704-2963zm-1742 3843c651 0 1156-327 1742-880v-1792c-2165 277-2882 847-2882 1645 0 717 473 1027 1140 1027zm-6674-6725h1872v7994h-1872v-7994zm-212-2459c0-634 489-1074 1156-1074 668 0 1156 440 1156 1074 0 619-488 1058-1156 1058-667 0-1156-439-1156-1058zm-5859 2264c912 0 1482 341 2101 878l-66-1286v-2897h1872v11495h-1546l-130-864h-66c-586 586-1400 1058-2262 1058-2003 0-3289-1546-3289-4184 0-2605 1643-4200 3386-4200zm358 6838c619 0 1140-278 1677-896v-3728c-553-489-1090-668-1628-668-1026 0-1856 961-1856 2638 0 1725 652 2654 1807 2654z" fill="url(#I)"/><path d="M157436 141518h1546l131 1075h65c716-700 1530-1270 2621-1270 1709 0 2458 1156 2458 3175v933c0-2018-749-3174-2458-3174-1091 0-1905 569-2621 1270h-65l-131-1076h-1546v-933zm-51373-32636l1211 9956c-107-2389-848-7249-1358-9785l147-171zm709 12608c126 915 618 1752 1324 2548l2343 2360 1463 1617c710 923 967 1720 774 2397-110-447-368-934-774-1463-442-575-959-1097-1463-1617-771-794-1609-1530-2343-2360-939-1059-1499-2190-1324-3482zm2918 12116l419 814c210 472 255 914 133 1306a2564 2564 0 0 0-133-372c-147-310-335-601-462-914-134-309-111-602 43-834zm-1510 4592l1558 370c767 302 1037 941 805 1672-126-318-394-576-805-738-536-211-1133-273-1698-401l-1100-234c375-304 760-459 1140-626l100-43zm1262 5427c42 391 134 789 261 1191 168 523 209 982 115 1382l-115-448c-229-727-343-1438-261-2125zm-9363 7466c6399 13884 20433 23521 36723 23521 14829 0 27791-7988 34823-19897h5071c-162 313-328 624-497 934h-4574c-7032 11909-19994 19897-34823 19897-16442 0-30589-9818-36903-23913l170-516 10-26zm2727 39315l-400 371 6334-20657 230 185-6164 20101zm-10857-55617l-4-602c0-24769 20081-44856 44857-44856 16502 0 30918 8913 38708 22183h-566c-7909-12752-22031-21249-38142-21249-24665 0-44674 19908-44853 44524zm7201 14125l202-340c664-1144 1711-1436 2981-1469 1526-39 3045-265 4561-426 243-26 476-120 699-206 384-149 614-274 732-441 217 831 122 1043-732 1374-223 87-456 180-699 206l-4561 427c-1270 32-2317 325-2981 1469l-202 340c-1786-4563-2766-9530-2766-14727l2-464c58 5027 1032 9831 2764 14257zm8878-5399c-80-993 75-1955 631-2858l472 64c-17 132-12 170-23 206l-129 205c-595 753-878 1554-951 2383zm-2814-5222c-258-396-154-901 291-1263 426-349 957-589 1463-821l1525-588 117-56 131 234c250 371 111 606-248 756l-1525 587c-506 233-1037 473-1463 822-124 100-221 212-291 329zm2992-4634c-217-1041 321-2263 1511-2711 249-94 498-180 733-278 303-129 526-253 672-385 415 627 196 948-672 1318-235 99-484 184-733 278-842 318-1359 1023-1511 1778zm-2847-12061c-53-483-7-996 69-1478 71-485 308-947 474-1420 37 483 43 813 3 924-166 476-405 941-477 1429l-69 545zm10372 9895c-301-565-109-1098 552-1279 308-83 823 87 1051 332 2117 2198 3126 4836 3009 7862-106-2638-1113-4959-3009-6929-228-244-743-414-1051-331-254 69-438 190-552 345zm18 13894c-270-376-144-875 354-1424 1427-1591 2212-3432 2331-5638l15 415c-17 2439-808 4442-2346 6157-154 169-272 332-354 490zm10886-6050l-6 224c-88-4294-1142-7099-3047-9604-368-479-779-916-1204-1338-433-419-938-312-1331 30-62 52-114 108-157 166-226-385-210-788 157-1100 393-342 898-449 1331-29l1204 1337c2007 2641 3070 5614 3053 10314zm-5735 8714c-298-429-124-867 261-1264 1284-1331 2291-2852 2860-4621 431-1341 671-2645 719-3910 59 1556-180 3171-719 4844-569 1769-1576 3290-2860 4620-104 108-193 219-261 331zm12030-10050l-6 298c-64-2344-584-4598-1519-6762-903-2064-2131-3923-3735-5516-534-524-1269-502-1555-26-85-207-131-426-111-612 109-770 1030-920 1666-296 1604 1594 2832 3452 3735 5516 1019 2359 1546 4825 1525 7398zm-6862 12752c-235-361-169-755 130-1120 380-468 829-873 1194-1348 2331-3058 3547-6288 3649-9681 111 3735-1105 7277-3649 10614-365 475-814 881-1194 1349-50 61-93 123-130 186zm13943 31653c-6969 0-13620-1275-19704-3584l-7077 5186 838 320 6239-4572c6084 2309 12735 3584 19704 3584 7229 0 14116-1370 20382-3845l3651-2533c-7201 3479-15372 5444-24033 5444zm-34549-12151c-10832-8878-17727-21859-17911-36353l-5 338c0 14670 6876 27835 17774 36831l142-816zm34823-86049c2050 10 4071 133 6058 357-4450-1228-9139-1887-13979-1887-28976 0-52467 23490-52467 52466l5 582c189-28814 23603-52114 52462-52114 2692 0 5338 204 7921 596zm12935 54659h1889v933h-1889v-933zm25134-12006l-11-470c0-2309 757-4208 2247-5655 1489-1447 3346-2181 5527-2181 2202 0 4059 734 5549 2202 1490 1447 2247 3325 2247 5634l-11 467c-96-2096-848-3819-2236-5168-1490-1467-3347-2201-5549-2201-2181 0-4038 734-5527 2181-1388 1348-2141 3090-2236 5191zm7763 3957c1230 0 2246-411 3002-1210 684-723 1067-1647 1148-2771l17 466c0 1338-388 2418-1165 3239-756 799-1772 1209-3002 1209-1231 0-2246-410-3001-1209-757-821-1144-1901-1144-3239 0-159 5-314 16-466 81 1124 461 2048 1128 2771 755 799 1770 1210 3001 1210zm-13345-108h3692c1059 0 1664 561 1664 1576 0 170-17 327-49 470-163-721-730-1113-1615-1113h-3692v-933zm-3411-8825v-934c0-1446 691-2051 1706-2051 971 0 1705 605 1705 2051v934c0-1446-734-2052-1705-2052-1015 0-1706 606-1706 2052zm-17631 4976l-11-470c0-2309 756-4208 2246-5655 1489-1447 3346-2181 5527-2181 2202 0 4059 734 5549 2202 1489 1447 2245 3325 2245 5634l-10 467c-96-2096-847-3819-2235-5168-1490-1467-3347-2201-5549-2201-2181 0-4038 734-5527 2181-1389 1348-2140 3090-2235 5191zm7762 3957c1230 0 2245-411 3001-1210 684-723 1068-1647 1149-2771l17 466c0 1338-389 2418-1166 3239-756 799-1771 1209-3001 1209-1232 0-2246-410-3001-1209-756-821-1145-1901-1145-3239 0-159 5-314 16-466 82 1124 463 2048 1129 2771 755 799 1769 1210 3001 1210zm-11191-4681c1111 656 1775 1853 1775 3126l-23 528c-148-1329-1019-2516-2352-3005 204-162 412-378 600-649zm-8934-4942v-891c0-929 431-1426 1640-1426h3090c3475 0 4900 1576 4900 3930l-21 457c-186-2087-1644-3453-4879-3453h-3090c-1190 0-1626 481-1640 1383zm3411 9731h2096c928 0 1518-414 1680-1230 30 136 46 281 46 436 0 1145-625 1727-1726 1727h-2096v-933zm0-6218h1210c864 0 1533-407 1732-1105 40 144 60 305 60 484 0 971-756 1554-1792 1554h-1210v-933zm36952 18364l-385-705c879-554 2002-1041 3271-1041 2003 0 2980 1220 2980 3451v934c0-2231-977-3452-2980-3452-1091 0-2073 360-2886 813zm-672 4762l-38-469c0-1674 1372-2567 4500-2940 137 259 198 574 204 910-2962 325-4417 1089-4666 2499zm2924 411c651 0 1156-327 1742-880v934c-586 553-1091 879-1742 879-667 0-1140-310-1140-1027 0-160 30-311 93-452 168 376 555 546 1047 546zm-6674-6725h1872v933h-1872v-933zm-212-2459c0-634 489-1074 1156-1074 668 0 1156 440 1156 1074 0 170-36 326-103 462-178-370-568-602-1053-602s-875 232-1053 602c-66-136-103-292-103-462zm-5859 2264c887 0 1451 323 2051 836l50 976c-619-537-1189-878-2101-878-1643 0-3198 1418-3370 3764l-16-498c0-2605 1643-4200 3386-4200zm2035-2372v-933h1872v933h-1872zm-1677 9210c619 0 1140-278 1677-896v934c-537 618-1058 895-1677 895-1155 0-1807-928-1807-2653 0-152 7-297 20-437 117 1406 748 2157 1787 2157z" fill="#fff"/><g class="X"><path d="M37088 202175c415 652 847 1050 1292 1193 446 142 861 92 1244-152 348-222 552-517 609-886 58-369 6-841-156-1417l-350-1295-286-1455c-53-456-43-881 30-1274 73-395 221-758 445-1090 223-332 549-634 976-906 910-580 1852-697 2823-351s1836 1115 2595 2307c301 473 541 932 723 1378 180 445 300 855 357 1230s42 705-46 990c-88 284-250 502-485 652-225 143-453 213-685 211-230-3-447-51-649-144 20-392-42-855-184-1389-142-533-381-1064-718-1593-372-586-759-963-1161-1134-401-171-782-143-1141 86-293 187-452 434-477 743-25 308 33 733 173 1276l309 1155c330 1165 415 2178 252 3041-163 862-677 1568-1543 2120-460 293-940 472-1437 535s-992 12-1486-156c-494-167-980-458-1458-874-477-415-924-948-1339-1601-330-517-587-1021-772-1511-187-491-304-941-352-1353-49-411-25-771 72-1078s270-539 517-697c259-164 529-229 811-196 283 34 534 124 752 269-68 438-60 954 26 1548s325 1200 719 1818zm5359 10797c-316-396-466-736-453-1019 13-284 191-562 535-836l8653-6890 401 345a4001 4001 0 0 1 471 495c299 376 450 706 457 990 5 286-175 574-539 865l-8652 6889c-96-77-228-190-396-337s-327-314-477-502zm5967 6823c-295-308-437-639-424-992 12-353 172-678 480-973l7782-7460 425 300c189 140 363 292 520 456 332 347 514 661 546 944 32 284-120 588-458 911l-6481 6214 3557 3710c-32 121-89 269-173 441-84 173-203 334-357 481-260 250-517 380-772 394-254 14-484-85-687-297l-3958-4129zm12788 11625c-171-7-398-71-681-193-282-122-555-297-816-524-312-271-545-553-698-844-152-292-194-559-126-800l395-1325c175-537 378-1125 607-1765l758-2016 837-2108 843-2023c281-648 554-1236 819-1765 197-24 433 4 707 84 275 81 529 221 760 423 282 244 446 497 493 758s-11 587-172 977l-1810 4203-1736 4240 75 66 1981-1168c693-421 1399-863 2118-1325l2163-1407 2110-1438c384 86 752 283 1104 589 282 245 462 510 539 798s-12 578-265 870c-158 181-475 434-953 761-479 327-1037 685-1676 1075l-2069 1209-2151 1164-1876 940-1280 544zm8444 6576c-358-233-572-522-641-868-70-347 11-699 243-1058l5106-7891c232-359 519-574 860-647 341-74 691 6 1049 237l5558 3596c-2 126-28 276-78 451-49 175-132 352-248 530-188 292-400 472-635 542-236 69-471 29-707-123l-4063-2630-1543 2384 4097 2651c-2 126-23 276-63 449-40 172-118 348-234 526-391 605-844 741-1360 407l-3559-2303-1684 2602 4668 3021c-2 126-27 281-74 464-48 184-129 365-245 545-391 603-844 739-1359 407l-5088-3292zm13333 7719l-500-141c-214-64-434-152-660-267-453-229-729-473-829-733s-50-586 148-979l4533-8958c114-226 261-368 440-427 180-59 394-70 645-33 446 62 942 197 1486 405l1638 728c1571 795 2585 1714 3042 2760s396 2140-182 3282c-379 749-905 1302-1577 1656-673 355-1429 507-2270 454l528 2700 353 1983c-252 260-540 417-865 469s-631 6-916-138c-370-187-609-413-721-679s-192-590-238-972l-490-4035-1659-841-1906 3766zm4254-4864c678 343 1297 471 1859 381 560-90 994-439 1301-1045 608-1202 110-2209-1496-3021l-705-312-652-240-1770 3497 1463 740zm27213 4932c-70 257-200 461-392 610-192 148-391 250-599 304-276-309-597-609-959-900-364-291-849-518-1454-681-1094-295-2062-175-2902 358-841 533-1441 1470-1801 2808-368 1365-309 2479 177 3341 486 863 1296 1447 2429 1751 591 160 1126 216 1600 172 474-45 908-132 1302-260 150 164 255 362 317 593 62 230 59 474-11 731-59 220-170 404-334 553-164 148-401 258-710 326-299 86-702 132-1208 142-506 8-1106-81-1802-268-850-229-1605-567-2264-1014-661-446-1192-996-1596-1651-404-654-657-1409-758-2264-101-856-11-1806 269-2848 271-1005 663-1848 1178-2531 516-683 1111-1213 1785-1590 675-379 1405-607 2193-685 787-77 1580-9 2378 206 554 149 1043 332 1468 550s775 454 1052 708 470 513 578 777 129 518 64 762zm14902 6566c-126 1033-389 1928-790 2685-402 757-902 1371-1503 1842-602 471-1289 797-2064 978-774 181-1591 220-2451 115s-1645-337-2352-699c-709-362-1298-842-1770-1444-470-602-809-1317-1018-2149-208-831-249-1763-123-2795 125-1033 392-1923 798-2673 407-749 915-1360 1522-1830 609-470 1296-796 2064-978 767-182 1575-221 2422-118s1621 335 2322 695c702 361 1291 842 1769 1444s824 1316 1039 2141c215 826 261 1754 135 2786zm-2640-321c167-1376-13-2462-542-3259-527-796-1307-1257-2339-1382-1020-124-1881 134-2582 774-703 640-1138 1654-1307 3044s7 2479 529 3268c522 790 1299 1246 2331 1371 1033 126 1900-131 2602-771 703-640 1138-1655 1308-3045zm9078 6743c-493 15-842-64-1047-238-206-173-316-473-329-899l-332-10655c141-192 353-345 635-460 284-116 599-179 945-190 414-12 785 50 1117 185 331 137 630 421 896 853l3040 5088c282 471 554 960 817 1465l693 1389 79-22-201-2285-98-2189-142-4536c106-30 268-66 488-106a4475 4475 0 0 1 668-71c493-15 846 64 1058 237 212 174 325 473 338 900l336 10794c-142 151-348 272-619 360s-592 138-966 150c-400 12-765-46-1095-176-331-130-631-411-897-842l-3040-5088-816-1466-694-1408-120 23c90 732 156 1483 200 2256l99 2197 141 4538-476 115c-212 47-438 73-678 81zm22433-14132c79 98 159 233 240 404 82 172 136 363 161 575 43 358-6 639-149 844s-361 326-652 361l-2739 334 1206 9926-483 160a4027 4027 0 0 1-689 144c-502 61-871 12-1105-148-235-159-378-458-431-894l-1079-8875-3335 406c-81-111-162-249-242-414s-134-352-159-565c-45-370 4-655 148-854 143-199 360-316 652-351l8656-1053zm9483 9995c-108 58-263 136-464 234-200 98-423 180-667 249-488 137-857 144-1106 19-250-124-434-398-552-821l-2712-9666c-68-245-56-449 37-613 92-165 243-318 452-460 371-255 828-491 1370-706 543-214 1109-404 1700-569 1694-476 3063-483 4106-20 1044 461 1738 1309 2084 2542 227 808 213 1570-44 2286-256 716-711 1339-1366 1868l2213 1633c705 515 1238 924 1600 1224-9 362-116 673-321 931-204 258-460 430-768 517-398 111-728 107-991-14-262-120-539-306-831-555l-3088-2645-1791 502 1139 4064zm-149-6460c731-205 1273-530 1626-975 353-446 438-996 254-1650-364-1297-1412-1702-3145-1216a7176 7176 0 0 0-730 246l-643 264 1058 3774 1580-443zm13684 2236c-470 191-838 240-1106 147s-485-343-651-750l-4161-10247 445-289a3862 3862 0 0 1 607-311c445-180 804-233 1080-158 275 75 500 329 676 762l4161 10247c-101 70-246 165-435 285-188 119-394 224-616 314zm11275-15344c269 537 362 1072 279 1605-83 534-345 1061-786 1579 805-119 1494-40 2067 240 572 280 1014 730 1324 1350 568 1133 578 2179 29 3139-546 961-1601 1832-3163 2615l-734 345c-261 116-531 225-809 327l-849 269-827 179c-667 96-1130-112-1387-625l-4381-8743c-114-227-140-430-81-608 59-179 179-358 357-537 340-334 765-663 1274-985 510-322 1056-630 1641-923 1442-722 2681-1034 3714-933 1036 100 1813 669 2332 1706zm479 5867c-239-476-597-767-1074-871s-1037 6-1680 328l-2093 1048 1496 2986c256-54 549-148 877-282l956-435c727-364 1233-778 1515-1239 283-463 284-975 3-1535zm-5698-1193l1806-905c643-323 1057-695 1242-1116 184-419 160-862-72-1327-473-942-1436-1048-2890-320-298 149-575 304-831 462-257 158-471 302-644 434l1389 2772zm18971-2469c-649 466-1293 793-1931 979-637 186-1250 240-1839 163-590-77-1141-281-1655-609-515-328-978-779-1390-1353l-4560-6354c72-83 190-210 356-378s342-319 526-451c390-280 725-414 1004-401 280 13 556 209 828 587l3883 5411c490 683 1055 1069 1694 1160 639 90 1252-74 1836-493 586-420 937-948 1056-1582 119-636-66-1294-556-1977l-4501-6272 364-384c161-164 333-312 518-445 389-280 727-415 1012-407 285 9 564 203 836 582l3941 5492c412 574 692 1157 838 1750 146 592 159 1182 39 1769-121 587-372 1152-752 1697-382 544-896 1049-1547 1516zm7508-22059c120 37 262 104 424 202 163 98 314 227 453 389 235 274 349 534 344 785-4 250-118 471-341 662l-2094 1799 6515 7586-314 401-492 502c-384 330-718 493-1002 491-283-3-568-171-855-505l-5824-6782-2549 2188c-129-47-272-117-431-210-158-92-307-219-445-381-244-283-361-547-352-793 9-244 125-463 348-654l6615-5680zm14394-7216c786 683 1379 1402 1781 2157 404 757 632 1516 685 2277 54 763-61 1514-345 2258-283 742-708 1441-1277 2096-569 653-1201 1173-1897 1557-697 385-1425 604-2187 657-761 53-1545-67-2350-360s-1600-780-2385-1463c-785-682-1374-1401-1767-2158-394-757-615-1519-664-2285-49-767 65-1520 344-2258 280-737 699-1429 1259-2072 559-645 1185-1156 1876-1535 692-380 1421-599 2187-657 766-59 1552 54 2356 338 805 283 1599 766 2384 1448zm-1744 2008c-1047-910-2048-1368-3004-1377-955-8-1774 380-2455 1165-673 775-942 1633-805 2572 137 941 734 1870 1790 2788 1058 918 2059 1383 3004 1391 946 10 1760-378 2442-1163s955-1648 818-2588c-137-941-734-1870-1790-2788zm11149-4939l-191 484c-85 206-195 416-332 629-274 427-544 677-813 751-269 73-588-9-959-247l-8454-5414c-213-137-341-297-381-481-41-185-30-399 32-644 108-438 292-918 554-1439l889-1556c950-1482 1967-2397 3054-2746 1086-350 2169-179 3247 511 707 453 1203 1032 1488 1737 284 705 359 1473 222 2304l2739-253 2009-151c233 277 360 580 379 909 20 328-57 627-230 897-223 348-472 564-748 649-276 84-606 130-991 138l-4065 80-1003 1566 3554 2276zm-4409-4723c410-640 599-1244 566-1811-32-567-335-1034-908-1401-1134-726-2186-331-3157 1185l-381 669-305 625 3301 2113 884-1380z" fill="#333"/><path d="M37099 201316c416 652 846 1051 1293 1193 446 142 861 92 1243-152 349-221 551-517 609-886 58-368 6-841-156-1417l-350-1295-285-1454c-54-456-44-882 30-1275 72-395 221-758 444-1090s549-634 976-906c911-580 1852-697 2823-351 971 347 1836 1115 2595 2307 301 473 542 931 723 1378 181 446 300 855 357 1230s42 705-45 990c-88 285-251 502-486 652-225 144-454 214-684 211-231-3-448-51-649-144 19-392-42-854-184-1388s-382-1065-719-1594c-372-585-759-962-1160-1134-402-171-783-142-1142 87-293 186-452 433-477 742-25 308 33 734 174 1276l308 1156c330 1164 415 2178 252 3040-162 862-677 1569-1542 2120-462 294-941 472-1438 535-496 63-992 12-1486-156-494-167-979-458-1458-874-477-415-923-948-1339-1601-329-517-587-1021-772-1511-186-491-304-941-352-1353s-24-771 72-1078c98-307 270-539 517-696 259-166 529-230 811-197 283 34 534 124 753 269-69 438-60 954 25 1549 85 593 326 1199 719 1817zm5365 10793c-315-396-466-736-453-1019 13-284 192-563 536-836l8652-6889 402 345a3993 3993 0 0 1 471 494c298 376 450 706 456 991 6 286-174 574-539 864l-8652 6889c-96-78-228-190-396-337s-327-314-477-502zm5971 6819c-295-308-437-639-424-992 12-353 172-678 480-973l7782-7460 425 299c190 141 364 293 521 457 332 346 514 661 546 944 31 284-121 588-458 910l-6482 6215 3557 3710c-31 121-89 269-173 441-84 173-203 334-357 481-260 250-516 380-771 394s-484-86-687-297l-3959-4129zm12792 11620c-171-7-398-72-680-194-283-122-555-297-817-523-312-272-545-553-697-845-153-291-195-558-127-799l395-1325c175-537 378-1125 607-1765l758-2017 838-2107 843-2022c280-649 553-1237 819-1767 197-23 432 5 707 85 275 81 528 221 760 422 282 245 446 498 493 759 47 262-11 587-173 977l-1810 4202-1736 4241 75 66 1981-1168c693-422 1400-864 2119-1325l2162-1407 2111-1438c383 86 751 283 1104 589 282 245 461 510 539 798 76 288-12 577-266 869-157 182-475 435-953 762s-1036 684-1675 1075l-2070 1208-2151 1165-1876 940-1280 544zm8450 6570c-358-232-573-522-641-868-70-347 11-699 243-1057l5106-7891c232-359 519-575 860-648s690 6 1049 238l5557 3596c-2 126-28 276-77 451-49 174-132 352-248 530-188 292-400 472-636 541-236 70-471 30-706-122l-4063-2630-1543 2384 4097 2651c-2 126-23 275-63 448-41 173-119 349-234 527-392 605-844 741-1360 407l-3560-2303-1683 2602 4667 3020c-2 126-26 281-74 465-47 183-129 365-245 544-391 604-844 740-1359 407l-5087-3292zm13335 7715l-500-141c-214-64-434-153-661-267-452-229-728-473-828-733s-51-586 147-978l4532-8959c115-226 262-369 441-427 179-59 394-71 644-34 447 63 943 198 1487 406l1638 727c1570 795 2585 1714 3042 2760s396 2140-182 3282c-379 749-904 1302-1576 1656-673 355-1430 507-2270 455l528 2699 353 1983c-252 260-540 417-865 469-325 53-630 7-917-138-368-187-608-413-721-678-112-266-190-590-237-972l-490-4036-1660-840-1905 3766zm4254-4864c677 343 1297 470 1858 380s995-438 1302-1045c607-1201 109-2209-1497-3021l-705-312-653-240-1769 3498 1464 740zm27216 4921c-69 258-199 461-391 610-192 148-392 250-600 304-276-308-596-609-959-900-364-291-848-518-1453-681-1095-294-2062-175-2903 358-841 534-1440 1469-1801 2809-367 1364-308 2478 178 3341s1295 1445 2428 1750c592 160 1126 217 1601 172 474-44 908-131 1302-260 149 164 255 362 317 593 62 230 58 474-11 732-59 219-171 403-335 552s-401 258-709 327c-299 85-702 132-1208 141-506 8-1107-80-1802-268-850-228-1605-566-2265-1013s-1192-997-1596-1651c-403-655-656-1409-757-2265-102-855-12-1805 268-2848 271-1004 663-1847 1179-2531 515-682 1110-1213 1784-1590 675-378 1406-606 2194-684 787-78 1580-9 2377 205 555 149 1044 333 1468 551 425 217 775 452 1052 707 277 254 470 512 578 777 109 264 130 518 64 762zm14904 6562c-126 1033-388 1928-790 2684-401 758-902 1371-1503 1842-602 471-1289 797-2064 978-774 181-1591 220-2451 115-860-104-1645-338-2353-699-708-362-1297-843-1768-1444-471-602-810-1318-1019-2149-207-831-248-1762-123-2795 126-1033 392-1923 799-2674 407-749 914-1359 1522-1828 608-471 1295-797 2064-979 767-181 1574-221 2421-118s1622 335 2323 695c702 361 1291 842 1769 1445 477 601 823 1316 1039 2141 215 825 260 1754 134 2786zm-2640-321c167-1377-13-2463-541-3259-527-796-1308-1257-2340-1383-1019-124-1880 134-2582 774-703 640-1138 1655-1307 3044-169 1390 7 2480 529 3268 522 789 1299 1246 2331 1371 1033 126 1900-130 2602-771 703-639 1139-1654 1308-3044zm9078 6735c-493 16-842-63-1047-237-206-174-316-474-329-900l-332-10655c141-191 353-344 636-460 283-115 598-178 944-189 414-13 785 49 1117 185 331 136 630 420 896 853l3040 5087c282 472 554 961 817 1466l693 1388 79-22-201-2285-98-2188-142-4537c106-30 269-65 488-105a4475 4475 0 0 1 668-71c493-15 846 63 1058 236 212 174 325 474 338 901l336 10794c-142 151-348 271-619 360-271 88-592 138-966 150-400 13-765-46-1095-176-331-130-631-411-897-843l-3040-5088-816-1465-694-1409-120 24c90 731 156 1482 200 2255l99 2198 141 4537-476 116c-212 46-438 73-678 80zm22432-14135c78 98 159 233 241 405 81 171 134 362 160 575 44 357-6 638-149 843-144 206-360 326-652 362l-2740 333 1208 9927-483 160-689 144c-502 60-871 12-1105-148-235-160-379-458-431-894l-1080-8875-3335 406c-81-111-161-249-242-414s-133-352-159-565c-45-370 4-655 148-854 143-199 360-316 652-351l8656-1054zm9483 9990c-108 58-263 136-465 234-200 98-422 181-667 249-488 137-856 143-1105 19-250-124-434-398-553-821l-2709-9667c-69-244-57-448 36-613 92-164 243-317 452-459 371-255 828-491 1370-706 543-214 1109-404 1699-569 1695-476 3064-482 4107-20 1044 462 1738 1310 2084 2542 227 809 213 1571-44 2287-256 715-712 1338-1367 1868l2213 1633c706 515 1239 923 1600 1224-9 362-116 672-321 930-204 258-460 431-769 517-398 112-727 108-989-13-263-120-540-306-832-556l-3088-2644-1792 501 1140 4064zm-149-6460c731-205 1274-530 1627-975 352-445 437-995 254-1650-364-1296-1412-1702-3145-1216-257 72-501 154-730 246l-644 264 1059 3774 1579-443zm13683 2234c-470 191-838 240-1106 147s-485-343-651-750l-4161-10247 445-289c195-122 397-226 607-311 445-181 805-233 1080-158s501 329 676 762l4161 10247c-101 70-246 164-435 284-188 120-394 225-616 315zm11276-15346c269 536 362 1072 279 1605-84 534-346 1060-787 1579 805-120 1494-40 2067 240 572 280 1014 730 1324 1350 568 1133 577 2179 29 3139-547 960-1602 1832-3164 2615l-733 344c-262 117-531 226-809 327l-849 269-827 180c-668 95-1130-112-1387-625l-4381-8744c-113-227-140-429-80-609 59-178 179-357 357-537 340-333 765-661 1273-983 511-323 1057-631 1641-923 1443-723 2681-1034 3715-934 1035 101 1812 670 2332 1707zm478 5867c-239-477-597-767-1074-871s-1037 5-1680 327l-2093 1049 1496 2986c256-54 549-148 877-283l956-434c727-364 1232-778 1515-1240s284-974 3-1534zm-5698-1194l1806-905c644-322 1058-694 1243-1115 184-420 160-863-73-1328-472-941-1435-1048-2889-320-298 150-576 304-832 462s-471 303-643 434l1388 2772zm18969-2472c-649 466-1294 793-1931 979-637 187-1250 241-1839 164-590-78-1141-281-1655-609-515-328-978-779-1390-1354l-4560-6353c72-83 190-209 356-378 166-168 341-319 525-451 390-280 726-414 1005-402 280 13 556 209 828 588l3883 5410c490 683 1055 1070 1694 1160 639 91 1251-73 1836-493s937-947 1056-1582-67-1294-556-1976l-4501-6273 364-383a3966 3966 0 0 1 517-446c390-279 727-414 1013-406 285 8 564 202 836 581l3941 5492c412 574 691 1158 838 1750 145 592 159 1183 39 1769-121 587-372 1153-752 1697-382 544-896 1049-1547 1516zm7506-22060c120 38 262 105 424 203 164 98 315 227 453 389 235 274 350 534 345 785-5 250-119 471-341 662l-2094 1798 6515 7586-314 402-492 502c-385 330-719 493-1002 490-284-2-569-170-855-504l-5825-6782-2548 2189c-129-48-272-118-431-210-159-93-307-220-446-382-243-283-361-547-351-792 9-246 125-464 347-654l6615-5682zm14393-7217c785 683 1379 1402 1781 2158 403 756 632 1515 685 2277s-61 1514-345 2257c-283 743-709 1441-1277 2095-568 655-1201 1174-1897 1558-696 385-1425 604-2186 657-763 53-1546-66-2351-359s-1600-780-2385-1463c-785-682-1374-1401-1768-2158-393-757-614-1519-663-2285-50-768 65-1519 344-2258 279-737 699-1428 1258-2073 560-644 1186-1155 1877-1535 691-379 1420-598 2186-657 767-59 1552 54 2356 338 805 284 1600 767 2385 1448zm-1745 2008c-1047-909-2048-1367-3004-1376-954-9-1773 379-2455 1164-673 775-941 1634-804 2574s734 1868 1791 2787c1056 917 2058 1382 3004 1391s1759-379 2441-1164 955-1648 818-2588-734-1870-1791-2788zm11149-4940l-192 484c-84 207-195 417-332 630-273 427-544 676-813 750-269 73-588-9-958-246l-8455-5415c-213-137-340-297-380-481-41-185-30-400 32-645 108-438 292-917 554-1438l889-1556c950-1482 1967-2398 3054-2747 1086-349 2169-178 3247 513 707 452 1203 1031 1488 1736 284 705 359 1473 222 2304l2739-253 2009-150c233 276 360 580 379 909 20 328-57 627-230 897-223 348-472 564-748 649-276 84-606 130-991 138l-4065 79-1003 1567 3554 2275zm-4409-4724c410-639 599-1242 566-1810-32-567-335-1034-907-1401-1134-726-2187-332-3158 1184l-381 670-305 624 3300 2115 885-1382z" fill="url(#L)"/><path d="M37088 201241c415 653 847 1050 1292 1193 446 143 861 92 1244-152 322-204 520-472 593-802 45 299 51 560 16 783-57 369-261 664-609 887-383 243-798 294-1244 151-445-143-877-540-1292-1193-394-618-633-1224-719-1818-72-498-90-941-53-1330l53 463c86 594 325 1200 719 1818zm2341-4127c-39-413-25-799 42-1159 73-395 221-758 445-1090 223-332 549-634 976-906 910-580 1852-696 2823-351 971 346 1836 1115 2595 2307 301 473 541 932 723 1378 180 445 300 855 357 1231 47 307 45 584-6 831-58-366-177-763-351-1195-182-446-422-905-723-1378-759-1192-1624-1961-2595-2307-971-345-1913-229-2823 351-427 272-753 574-976 906-224 332-372 695-445 1090a3870 3870 0 0 0-42 292zm2455 488l133 619 309 1156c271 955 376 1808 315 2561-38-525-144-1088-315-1694l-309-1156c-140-542-198-968-173-1276 6-74 19-144 40-210zm-7685 2037l-8-62c-49-411-25-771 72-1078 97-306 270-538 517-696 259-165 529-230 811-197 283 34 534 124 752 269-40 254-54 534-42 840-208-130-445-210-710-242-282-33-552 32-811 197-247 158-420 390-517 697a2040 2040 0 0 0-64 272zm7910 11873c-84-180-122-344-115-493 13-283 191-562 535-836l8653-6889 401 344a4001 4001 0 0 1 471 495c299 376 450 706 457 991 3 135-37 271-117 408-76-165-190-343-340-532-142-177-299-342-471-495l-401-344-8653 6889c-191 152-331 306-420 462zm5961 6829a1157 1157 0 0 1-80-472c12-353 172-677 480-973l7782-7460 425 300a4160 4160 0 0 1 520 456c332 347 514 662 546 944 18 159-22 323-119 495-92-180-234-371-427-572a4160 4160 0 0 0-520-456l-425-300-7782 7460c-189 182-322 374-400 578zm3167 371l3124 3259c-32 122-89 269-173 442a1681 1681 0 0 1-87 154l-3297-3439 433-416zm7701 10064c-95-234-113-451-57-651l395-1324c175-537 378-1126 607-1766l758-2016 837-2108 843-2023c281-648 554-1236 819-1765 197-23 433 5 707 85 275 80 529 221 760 422 282 244 446 497 493 758 34 188 13 409-61 664-80-190-224-375-432-555-231-201-485-342-760-422-274-80-510-108-707-85l-819 1766-843 2022c-281 701-560 1403-837 2108l-758 2016-607 1766-338 1108zm2836-1084l1664-985c693-422 1399-864 2118-1326l2163-1406 2110-1439c384 86 752 283 1104 589 282 245 462 510 539 798 56 208 25 417-92 626-97-197-245-382-447-557-352-306-720-503-1104-589l-2110 1439-2163 1406-2118 1326-1981 1167-75-66 392-983zm7284 8690c-22-61-40-123-53-188-70-347 11-699 243-1058l5106-7891c232-358 519-574 860-647s691 6 1049 237l5558 3597c-2 126-28 276-78 450a1706 1706 0 0 1-112 293l-5368-3473c-358-231-708-310-1049-237s-628 289-860 647l-5106 7891c-82 127-145 253-190 379zm5884-4540l3702 2395c-2 126-23 275-63 448a1514 1514 0 0 1-110 307l-3924-2540 395-610zm-2802 4331l4272 2765c-2 126-27 281-74 464-25 97-60 193-103 288l-4491-2906 396-611zm8901 7572c-20-35-37-70-51-105-100-260-50-586 148-978l4533-8958c114-226 261-369 440-428 180-59 394-70 645-33 446 63 942 197 1486 405l1638 729c1571 794 2585 1714 3042 2760 262 600 354 1216 275 1848-43-331-134-659-275-981-457-1046-1471-1966-3042-2760l-1638-729c-544-208-1040-342-1486-405-251-37-465-25-645 33-179 59-326 202-440 428l-4533 8958-97 216zm8020-342l360 1825 353 1983a1808 1808 0 0 1-120 113c-61-351-139-761-233-1229l-528-2700 168 8zm-1828-3485c678 343 1297 470 1859 381 560-90 994-439 1301-1046 87-172 152-339 193-503 119 425 55 882-193 1371-307 606-741 955-1301 1045-562 89-1181-38-1859-381l-1463-741 349-690 1114 564zm27213 4931c-14 50-30 99-48 145l-16-40c-108-264-301-523-578-777s-627-490-1052-708-914-401-1468-550c-798-215-1591-283-2378-205-788 78-1518 306-2193 684-674 377-1269 908-1785 1591-515 683-907 1526-1178 2530-162 600-259 1170-294 1709-56-784 43-1643 294-2576 271-1004 663-1847 1178-2530 516-683 1111-1214 1785-1591 675-378 1405-606 2193-684 787-78 1580-10 2378 205 554 149 1043 332 1468 550s775 454 1052 708 470 513 578 777 129 518 64 762zm-8325 4545c48 481 180 913 395 1295 486 863 1296 1447 2429 1752 591 159 1126 216 1600 171s908-131 1302-260c150 165 255 362 317 593 62 230 59 474-11 731l-14 51c-64-195-161-364-292-508-394 129-828 215-1302 260s-1009-12-1600-171c-1133-305-1943-889-2429-1752-338-599-469-1320-395-2162zm11096 2104c-27-489-7-1005 60-1550 125-1032 392-1923 798-2673 407-749 915-1359 1522-1829 609-471 1296-797 2064-979 767-181 1575-221 2422-118s1621 335 2322 695c702 361 1291 842 1769 1445 478 601 824 1315 1039 2141 169 645 233 1354 193 2126-26-444-90-863-193-1259-215-826-561-1540-1039-2141-478-603-1067-1084-1769-1445-701-360-1475-592-2322-695s-1655-63-2422 118c-768 182-1455 508-2064 979-607 470-1115 1080-1522 1829-406 750-673 1641-798 2673l-60 683zm9491-403c21-171 36-336 46-499 29 418 13 874-46 1366-170 1390-605 2405-1308 3044-702 641-1569 897-2602 771-1032-125-1809-581-2331-1370-455-689-648-1606-577-2751 50 751 243 1379 577 1884 522 789 1299 1245 2331 1370 1033 126 1900-130 2602-771 703-639 1138-1654 1308-3044zm7396-4216l-26-834c141-191 353-345 635-460 284-115 599-179 945-190 414-12 785 50 1117 185 331 137 630 421 896 853l3040 5088c282 471 554 960 817 1465l680 1362 92 872-79 22-693-1389-817-1465-3040-5088c-266-432-565-716-896-853-332-135-703-197-1117-184-346 10-661 74-945 189-265 109-468 251-609 427zm7782-676l-27-860c106-30 268-66 488-106 219-40 441-64 668-70 493-16 846 63 1058 236 212 174 325 473 338 900l336 10794-26 27-310-9954c-13-427-126-726-338-900-212-173-565-252-1058-236-227 6-449 30-668 70-202 37-355 70-461 99zm-5294 3296l108 1407 99 2198 141 4537-26 7-115-3677-99-2198c-44-773-110-1524-200-2256l92-18zm21627-5794c79 98 159 233 240 405 82 171 136 362 161 575 30 245 15 454-43 628-28-120-68-232-118-336-81-172-161-306-240-405l-8656 1053c-292 35-509 153-652 351-45 63-81 134-108 215-17-73-31-148-40-227-45-371 4-656 148-855 143-198 360-316 652-351l8656-1053zm-3035 3373l1102 9072-100 36-1106-9096 104-12zm12518 6622l-212 110-927-3306 225-64 914 3260zm-5440-9771l-61-214c-68-244-56-448 37-613 92-164 243-318 452-460 371-255 828-491 1370-705 543-214 1109-405 1700-570 1694-475 3063-483 4106-20 1044 462 1738 1309 2084 2542 149 533 194 1045 134 1538-25-220-70-444-134-671-346-1233-1040-2080-2084-2542-1043-463-2412-455-4106 20-591 166-1157 356-1700 570-542 214-999 450-1370 705-192 130-334 271-428 420zm8795 4498l1696 1250c705 515 1238 923 1600 1223-7 268-67 509-181 720l-1419-1076-2213-1634c189-153 361-314 517-483zm-3504-1187c731-205 1273-530 1626-975 145-183 244-383 299-601 121 575 21 1065-299 1468-353 445-895 770-1626 975l-1580 443-1058-3774 218-91 840 2998 1580-443zm8044-7930l-278-684 445-288a3955 3955 0 0 1 607-312c445-180 804-233 1080-158 275 76 500 330 676 762l4161 10247a8359 8359 0 0 1-277 184l-3884-9564c-176-432-401-686-676-762-276-74-635-22-1080 158a3955 3955 0 0 0-607 312l-167 105zm16915-5177c269 536 362 1071 279 1604l-9 56c-47-264-137-529-270-793-519-1038-1296-1606-2332-1707-1033-100-2272 211-3714 934-585 292-1131 600-1641 923-509 322-934 651-1274 984-106 106-191 213-255 319l-21-41c-114-227-140-429-81-608s179-358 357-537c340-333 765-662 1274-984 510-323 1056-631 1641-923 1442-723 2681-1034 3714-934 1036 100 1813 669 2332 1707zm84 3131c556-13 1048 84 1476 293 572 279 1014 729 1324 1349 367 733 501 1429 402 2090-57-397-192-803-402-1223-310-620-752-1070-1324-1349-573-280-1262-360-2067-240 258-304 456-611 591-920zm-4104 3934l1148 2292c256-53 549-148 877-282l956-435c727-364 1233-778 1515-1239 62-102 110-205 146-311 125 422 76 815-146 1178-282 461-788 875-1515 1239l-956 435-877 282-1496-2985 348-174zm-1199-2392l1806-905c643-323 1057-694 1242-1115l55-144c105 350 87 687-55 1011-185 421-599 792-1242 1115l-1806 905-1389-2772 321-227 1068 2132zm7949-9150l-353-492c72-84 190-210 356-378a4027 4027 0 0 1 526-451c390-280 725-415 1004-402 280 13 556 209 828 588l3883 5410c490 683 1055 1069 1694 1160s1252-73 1836-493c569-408 916-917 1045-1527 57 275 61 545 11 812-119 634-470 1162-1056 1582-584 420-1197 584-1836 493s-1204-477-1694-1160l-3883-5410c-272-379-548-575-828-588-279-12-614 122-1004 402a4027 4027 0 0 0-526 451l-3 3zm6127-4395l-354-494 364-383a3910 3910 0 0 1 518-446c389-279 727-415 1012-407 285 9 564 203 836 582l3941 5492c412 574 692 1157 838 1750 116 471 148 939 96 1406l-96-539c-146-593-426-1175-838-1750l-3941-5492c-272-379-551-573-836-582-285-8-623 128-1012 407a3910 3910 0 0 0-518 446l-10 10zm12403-10983c120 37 262 104 424 203 163 97 314 226 453 388 235 274 349 535 344 785-2 146-42 281-118 407-56-106-131-215-226-325-139-162-290-291-453-388-162-98-304-166-424-203l-6615 5680c-94 81-168 166-224 256-88-163-130-319-124-468 9-245 125-463 348-655l6615-5680zm-785 4336l6086 7087-314 401-42 51-6159-7171 429-368zm15179-11552c786 683 1379 1402 1781 2158 404 757 632 1515 685 2277a5118 5118 0 0 1-5 793c-62-737-289-1470-680-2203-402-756-995-1475-1781-2158-785-682-1579-1165-2384-1448-804-283-1590-397-2356-338s-1495 277-2187 657c-691 379-1317 890-1876 1535-560 644-979 1335-1259 2072-184 488-297 982-337 1481l-7-90c-49-767 65-1519 344-2258 280-737 699-1428 1259-2072 559-645 1185-1156 1876-1535 692-380 1421-598 2187-657s1552 55 2356 338c805 283 1599 766 2384 1448zm-8012 4341l4 28c137 941 734 1869 1790 2787 1058 918 2059 1383 3004 1392 946 9 1760-379 2442-1164 460-530 734-1094 821-1694 128 930-146 1783-821 2561-682 785-1496 1173-2442 1164-945-9-1946-474-3004-1392-1056-918-1653-1846-1790-2787-45-308-46-606-4-895zm17417-7272l-191 484-91 203-3272-2095 394-615 3160 2023zm-11078-4134c-24-46-41-94-52-144-41-184-30-399 32-644 108-438 292-918 554-1438l889-1557c950-1482 1967-2397 3054-2746 1086-350 2169-179 3247 512 707 452 1203 1031 1488 1736 244 606 334 1258 268 1957a3974 3974 0 0 0-268-1090c-285-705-781-1284-1488-1736-1078-691-2161-861-3247-512-1087 349-2104 1265-3054 2747l-889 1556c-247 490-424 943-534 1359zm9500-1983l2673-247 2009-151c233 277 360 580 379 909 11 187-8 363-60 531-61-202-168-392-319-573l-2009 151-2739 253a4772 4772 0 0 0 66-873zm-2831 1394c273-426 448-836 525-1230 22 92 35 187 41 286 33 568-156 1171-566 1811l-884 1381-3301-2114 305-624 18-36 2978 1907 884-1381z" fill="#fff"/></g></svg>