<?xml version="1.0" encoding="UTF-8"?>
<!DOCTYPE svg PUBLIC "-//W3C//DTD SVG 1.1//EN" "http://www.w3.org/Graphics/SVG/1.1/DTD/svg11.dtd">
<!-- Creator: CorelDRAW X7 -->
<svg xmlns="http://www.w3.org/2000/svg" xml:space="preserve" width="484px" height="611px" version="1.1" style="shape-rendering:geometricPrecision; text-rendering:geometricPrecision; image-rendering:optimizeQuality; fill-rule:evenodd; clip-rule:evenodd"
viewBox="0 0 9575 12084"
 xmlns:xlink="http://www.w3.org/1999/xlink">
 <defs>
  <style type="text/css">
   <![CDATA[
    .fil3 {fill:none}
    .fil5 {fill:#70342D}
    .fil21 {fill:#70342D}
    .fil14 {fill:#C4491C}
    .fil23 {fill:white}
    .fil15 {fill:#7A1C09;fill-rule:nonzero}
    .fil18 {fill:#7A1C09;fill-rule:nonzero}
    .fil11 {fill:#F6DFB4;fill-rule:nonzero}
    .fil6 {fill:#FFEBBF;fill-rule:nonzero}
    .fil7 {fill:#FFF7EB;fill-rule:nonzero}
    .fil17 {fill:white;fill-rule:nonzero}
    .fil1 {fill:#FFF0D4;fill-rule:nonzero;fill-opacity:0.501961}
    .fil13 {fill:url(#id0)}
    .fil10 {fill:url(#id1)}
    .fil4 {fill:url(#id2)}
    .fil12 {fill:url(#id3)}
    .fil9 {fill:url(#id4)}
    .fil8 {fill:url(#id5)}
    .fil0 {fill:url(#id6)}
    .fil2 {fill:url(#id7)}
    .fil22 {fill:url(#id8)}
    .fil20 {fill:url(#id9)}
    .fil16 {fill:url(#id10);fill-rule:nonzero}
    .fil19 {fill:url(#id11);fill-rule:nonzero}
   ]]>
  </style>
  <linearGradient id="id0" gradientUnits="userSpaceOnUse" x1="4787.75" y1="2098.23" x2="4787.75" y2="7751.59">
   <stop offset="0" style="stop-opacity:1; stop-color:#F4D8BA"/>
   <stop offset="0.278431" style="stop-opacity:1; stop-color:#F28F1D"/>
   <stop offset="0.541176" style="stop-opacity:1; stop-color:#BF391B"/>
   <stop offset="1" style="stop-opacity:1; stop-color:#D9601F"/>
  </linearGradient>
  <linearGradient id="id1" gradientUnits="userSpaceOnUse" x1="4787.66" y1="2119.2" x2="4787.75" y2="8000.71">
   <stop offset="0" style="stop-opacity:1; stop-color:#F08B18"/>
   <stop offset="0.470588" style="stop-opacity:1; stop-color:#AB1916"/>
   <stop offset="1" style="stop-opacity:1; stop-color:#D95E1C"/>
  </linearGradient>
  <linearGradient id="id2" gradientUnits="userSpaceOnUse" x1="4805.57" y1="424.21" x2="4805.57" y2="9554.04">
   <stop offset="0" style="stop-opacity:1; stop-color:#FFD991"/>
   <stop offset="0.258824" style="stop-opacity:1; stop-color:#EC9A3E"/>
   <stop offset="0.611765" style="stop-opacity:1; stop-color:#A12224"/>
   <stop offset="1" style="stop-opacity:1; stop-color:#CF5A1B"/>
  </linearGradient>
  <linearGradient id="id3" gradientUnits="userSpaceOnUse" x1="4786.47" y1="8304.46" x2="4786.56" y2="4787.66">
   <stop offset="0" style="stop-opacity:1; stop-color:#F6DFB4"/>
   <stop offset="1" style="stop-opacity:1; stop-color:#BC3416"/>
  </linearGradient>
  <linearGradient id="id4" gradientUnits="userSpaceOnUse" x1="8924.1" y1="4009.32" x2="8928.82" y2="5373.27">
   <stop offset="0" style="stop-opacity:1; stop-color:#FCE0AB"/>
   <stop offset="1" style="stop-opacity:1; stop-color:#D15C1E"/>
  </linearGradient>
  <linearGradient id="id5" gradientUnits="userSpaceOnUse" xlink:href="#id4" x1="797.671" y1="4009.32" x2="802.388" y2="5373.27">
  </linearGradient>
  <linearGradient id="id6" gradientUnits="userSpaceOnUse" x1="7235.93" y1="8774.07" x2="4822.83" y2="9123.48">
   <stop offset="0" style="stop-opacity:1; stop-color:red"/>
   <stop offset="1" style="stop-opacity:1; stop-color:#B00205"/>
  </linearGradient>
  <linearGradient id="id7" gradientUnits="userSpaceOnUse" x1="2405.76" y1="9569.62" x2="4350.28" y2="8330.36">
   <stop offset="0" style="stop-opacity:1; stop-color:#B00205"/>
   <stop offset="1" style="stop-opacity:1; stop-color:red"/>
  </linearGradient>
  <linearGradient id="id8" gradientUnits="userSpaceOnUse" x1="3491.86" y1="5756.68" x2="3492.09" y2="2908.28">
   <stop offset="0" style="stop-opacity:1; stop-color:#E3A96A"/>
   <stop offset="1" style="stop-opacity:1; stop-color:#FCE0AB"/>
  </linearGradient>
  <linearGradient id="id9" gradientUnits="userSpaceOnUse" x1="5069.59" y1="2119.09" x2="5069.69" y2="7519.71">
   <stop offset="0" style="stop-opacity:1; stop-color:#FFF4DF"/>
   <stop offset="1" style="stop-opacity:1; stop-color:#D65B1E"/>
  </linearGradient>
  <linearGradient id="id10" gradientUnits="objectBoundingBox" x1="45.2859%" y1="50.2103%" x2="45.2859%" y2="0%">
   <stop offset="0" style="stop-opacity:1; stop-color:#F4D8BA"/>
   <stop offset="0.560784" style="stop-opacity:1; stop-color:#F9EBDC"/>
   <stop offset="1" style="stop-opacity:1; stop-color:white"/>
  </linearGradient>
  <radialGradient id="id11" gradientUnits="userSpaceOnUse" gradientTransform="matrix(0.0400304 1.26216 -1.18505 5.9876E-005 9676 -1549)" cx="4687.93" cy="4367.82" r="3735.52" fx="4687.93" fy="4367.82">
   <stop offset="0" style="stop-opacity:1; stop-color:#FEFEFE"/>
   <stop offset="0.878431" style="stop-opacity:1; stop-color:#F2D5B8"/>
   <stop offset="1" style="stop-opacity:1; stop-color:#E6AC73"/>
  </radialGradient>
 </defs>
 <g id="Layer_x0020_1">
  <metadata id="CorelCorpID_0Corel-Layer"/>
  <g id="_491654640">
   <g>
    <path class="fil0" d="M4728 9283l-456 94 -126 25 -85 18 -76 15 -37 8 -10 2 36 63 757 1315 694 1205c39,60 84,75 139,25l937 -1143c25,-47 62,-81 128,-87l1453 -242c95,-6 117,-54 67,-144l-880 -1552 -30 -52 -4 -8 -16 -28 -12 -21 -16 3 -125 25 -67 14 -43 9 -2228 456z"/>
    <path class="fil1" d="M6993 8891l36 -21 -41 -71 -36 21 41 71zm-2853 520l-36 21 41 71 36 -20 -41 -72zm82 143l-36 21 41 71 36 -20 -41 -72zm82 143l-36 21 41 71 36 -20 -41 -72zm82 143l-35 21 41 71 35 -20 -41 -72zm82 143l-35 20 41 72 35 -21 -41 -71zm83 143l-36 20 41 72 36 -21 -41 -71zm82 143l-36 20 41 72 36 -21 -41 -71zm82 143l-36 20 41 72 36 -21 -41 -71zm82 142l-36 21 41 71 36 -20 -41 -72zm82 143l-36 21 41 71 36 -20 -41 -72zm82 143l-36 21 41 71 36 -20 -41 -72zm82 143l-36 21 42 71 35 -20 -41 -72zm82 143l-35 21 41 71 35 -21 -41 -71zm82 143l-35 20 41 72 35 -21 -41 -71zm83 143l-36 20 41 72 36 -21 -41 -71zm82 143l-36 20 41 72 36 -21 -41 -71zm82 142l-36 21 41 71 36 -20 -41 -72zm50 120l32 26 52 -63 -31 -26 -53 63zm106 -126l31 26 53 -63 -32 -27 -52 64zm105 -127l32 26 53 -63 -32 -26 -53 63zm106 -126l31 26 53 -63 -31 -27 -53 64zm105 -127l32 26 53 -63 -32 -26 -53 63zm106 -126l32 26 52 -63 -31 -27 -53 64zm106 -127l31 26 53 -63 -32 -26 -52 63zm105 -126l32 26 53 -63 -32 -27 -53 64zm106 -127l31 26 53 -63 -31 -26 -53 63zm105 -126l6 5 15 26 79 -13 -7 -40 -86 13 -7 9zm175 -35l6 40 82 -13 -7 -40 -81 13zm162 -27l7 41 81 -13 -6 -41 -82 13zm163 -26l7 41 81 -13 -7 -41 -81 13zm163 -26l6 41 82 -13 -7 -41 -81 13zm163 -26l6 41 81 -13 -6 -41 -81 13zm162 -26l7 41 81 -13 -6 -41 -82 13zm163 -26l6 41 82 -13 -7 -41 -81 13zm163 -26l6 41 81 -13 -6 -41 -81 13zm134 -2l36 -20 -41 -72 -36 21 41 71zm-82 -142l35 -21 -41 -71 -36 20 42 72zm-83 -143l36 -20 -42 -72 -35 21 41 71zm-83 -142l36 -21 -41 -71 -36 20 41 72zm-82 -143l35 -21 -41 -71 -36 21 42 71zm-83 -143l36 -20 -42 -72 -35 21 41 71zm-83 -142l36 -21 -41 -71 -36 21 41 71zm-82 -143l35 -20 -41 -72 -36 21 42 71zm-83 -142l36 -21 -42 -71 -35 20 41 72zm-82 -143l35 -20 -41 -72 -36 21 42 71zm-83 -142l36 -21 -42 -71 -35 20 41 72z"/>
    <path class="fil2" d="M2254 8777c-314,553 -627,1107 -941,1661 -51,90 -29,138 67,144 484,81 968,161 1452,242 66,6 104,40 128,88 313,381 625,762 938,1143 54,49 100,35 139,-26 495,-861 991,-1722 1487,-2583 -1090,-223 -2180,-446 -3270,-669z"/>
    <path class="fil1" d="M2457 8870l-36 -21 41 -71 36 21 -41 71zm2853 520l36 21 -41 71 -36 -20 41 -72zm-82 143l36 21 -41 71 -36 -20 41 -72zm-82 143l36 21 -41 71 -36 -21 41 -71zm-82 143l35 20 -41 72 -35 -21 41 -71zm-82 143l35 20 -41 72 -35 -21 41 -71zm-82 143l35 20 -41 72 -36 -21 42 -71zm-83 143l36 20 -41 72 -36 -21 41 -71zm-82 142l36 21 -41 71 -36 -20 41 -72zm-82 143l36 21 -41 71 -36 -20 41 -72zm-82 143l36 21 -41 71 -36 -20 41 -72zm-82 143l36 21 -41 71 -36 -20 41 -72zm-82 143l36 20 -41 72 -36 -21 41 -71zm-82 143l35 20 -41 72 -35 -21 41 -71zm-82 143l35 20 -41 72 -35 -21 41 -71zm-83 143l36 20 -41 72 -36 -21 41 -71zm-82 142l36 21 -41 71 -36 -20 41 -72zm-82 143l36 21 -41 71 -36 -20 41 -72zm-50 120l-31 26 -53 -63 31 -26 53 63zm-105 -127l-32 27 -53 -63 32 -27 53 63zm-106 -126l-32 26 -52 -63 31 -26 53 63zm-106 -127l-31 27 -53 -63 32 -27 52 63zm-105 -126l-32 26 -53 -63 32 -26 53 63zm-106 -127l-32 27 -52 -63 31 -27 53 63zm-106 -126l-31 26 -53 -63 32 -26 52 63zm-105 -127l-32 27 -53 -63 32 -27 53 63zm-106 -126l-31 26 -53 -63 31 -26 53 63zm-105 -127l-6 6 -15 26 -79 -13 7 -41 86 14 7 8zm-175 -35l-6 41 -81 -13 6 -41 81 13zm-162 -26l-7 41 -81 -13 6 -41 82 13zm-163 -26l-7 41 -81 -13 7 -41 81 13zm-163 -26l-6 41 -82 -13 7 -41 81 13zm-163 -26l-6 41 -81 -13 6 -41 81 13zm-162 -26l-7 41 -81 -13 6 -41 82 13zm-163 -26l-6 41 -82 -13 7 -41 81 13zm-163 -26l-6 41 -81 -13 6 -41 81 13zm-134 -2l-36 -20 42 -72 35 21 -41 71zm83 -142l-36 -21 41 -71 36 20 -41 72zm82 -143l-35 -21 41 -71 35 21 -41 71zm83 -143l-36 -20 41 -72 36 21 -41 71zm82 -142l-35 -21 41 -71 36 21 -42 71zm83 -143l-36 -20 42 -72 35 21 -41 71zm83 -142l-36 -21 41 -71 36 20 -41 72zm82 -143l-35 -21 41 -71 36 21 -42 71zm83 -142l-36 -21 42 -71 35 20 -41 72zm83 -143l-36 -21 41 -71 36 21 -41 71zm82 -143l-35 -20 41 -71 35 20 -41 71z"/>
   </g>
   <g>
    <circle class="fil3" cx="4788" cy="4751" r="4751"/>
    <path class="fil4" d="M4788 0c2644,0 4787,2143 4787,4788 0,2644 -2143,4787 -4787,4787 -2645,0 -4788,-2143 -4788,-4787 0,-2645 2143,-4788 4788,-4788zm0 1306c1923,0 3482,1559 3482,3482 0,1923 -1559,3482 -3482,3482 -1923,0 -3482,-1559 -3482,-3482 0,-1923 1559,-3482 3482,-3482z"/>
    <path class="fil5" d="M828 5588c-26,-131 -46,-264 -59,-397 -13,-133 -19,-267 -19,-401 0,-134 6,-268 19,-401 13,-133 33,-266 59,-397 5,-21 -9,-42 -31,-46 -21,-5 -42,9 -46,31 -27,133 -47,268 -60,404 -14,136 -20,273 -20,409 0,137 6,273 20,409 13,136 33,271 60,404 4,22 25,36 46,32 22,-5 36,-26 31,-47z"/>
    <path class="fil6" d="M4788 60c1305,0 2487,529 3343,1385 855,855 1385,2037 1385,3343 0,1305 -530,2487 -1385,3343 -856,855 -2038,1385 -3343,1385 -1306,0 -2488,-530 -3343,-1385 -856,-856 -1385,-2038 -1385,-3343 0,-1306 529,-2488 1385,-3343 855,-856 2037,-1385 3343,-1385zm3314 1414c-848,-848 -2020,-1373 -3314,-1373 -1295,0 -2466,525 -3314,1373 -848,848 -1373,2019 -1373,3314 0,1294 525,2465 1373,3314 848,848 2019,1372 3314,1372 1294,0 2466,-524 3314,-1372 848,-849 1372,-2020 1372,-3314 0,-1295 -524,-2466 -1372,-3314z"/>
    <path class="fil7" d="M4788 131c1286,0 2450,521 3293,1364 842,842 1364,2007 1364,3293 0,1286 -522,2450 -1364,3293 -843,842 -2007,1364 -3293,1364 -1286,0 -2451,-522 -3293,-1364 -843,-843 -1364,-2007 -1364,-3293 0,-1286 521,-2451 1364,-3293 842,-843 2007,-1364 3293,-1364zm3264 1393c-836,-836 -1990,-1352 -3264,-1352 -1275,0 -2429,516 -3264,1352 -836,835 -1352,1989 -1352,3264 0,1274 516,2428 1352,3264 835,835 1989,1352 3264,1352 1274,0 2428,-517 3264,-1352 835,-836 1352,-1990 1352,-3264 0,-1275 -517,-2429 -1352,-3264z"/>
    <path class="fil5" d="M8803 3992c26,131 46,264 59,397 13,133 19,267 19,401 0,134 -6,268 -19,401 -13,134 -33,266 -59,397 -4,21 10,42 31,47 22,4 42,-10 47,-31 26,-134 46,-269 60,-405 13,-136 20,-272 20,-409 0,-136 -7,-273 -20,-409 -14,-136 -34,-271 -60,-404 -5,-22 -25,-36 -47,-31 -21,4 -35,25 -31,46z"/>
    <path class="fil8" d="M803 5586c-26,-132 -46,-264 -59,-397 -13,-133 -20,-267 -20,-401 0,-134 7,-268 20,-402 13,-133 33,-265 59,-396 4,-22 -10,-43 -31,-47 -22,-4 -42,10 -47,31 -26,134 -46,269 -60,405 -13,136 -20,272 -20,409 0,136 7,273 20,409 14,135 34,270 60,404 5,21 25,35 47,31 21,-4 35,-25 31,-46z"/>
    <path class="fil9" d="M8772 3990c27,131 46,263 59,396 14,134 20,268 20,402 0,134 -6,268 -20,401 -13,133 -32,265 -59,397 -4,21 10,42 31,46 22,4 43,-10 47,-31 27,-134 47,-269 60,-404 13,-136 20,-273 20,-409 0,-137 -7,-273 -20,-409 -13,-136 -33,-271 -60,-405 -4,-21 -25,-35 -47,-31 -21,4 -35,25 -31,47z"/>
    <circle class="fil10" cx="4788" cy="4788" r="3485"/>
    <path class="fil11" d="M7664 3663c-15,-38 -74,-29 -74,14 0,5 1,9 3,14 9,23 18,47 26,70 17,45 84,25 73,-22l-1 -4c-9,-24 -18,-48 -27,-72zm-5672 4c6,-17 1,-34 -14,-45 -21,-14 -47,-6 -57,17 -10,24 -19,48 -28,72 -15,39 37,72 66,36 2,-3 4,-6 6,-10 8,-23 17,-46 27,-70zm-119 357c12,-40 -45,-68 -69,-29 -2,4 -3,6 -4,10 -7,25 -13,50 -19,75 -10,46 58,67 74,19 6,-25 12,-50 18,-75zm-72 369c6,-46 -62,-62 -75,-14l-1 4c-3,26 -6,51 -9,77 -1,14 5,27 16,35 23,17 57,1 60,-27 3,-25 6,-50 9,-75zm-26 375c0,-40 -55,-54 -73,-16 -2,6 -3,10 -3,15 0,26 0,52 0,78 2,48 72,50 76,1 1,-26 0,-52 0,-78zm21 375c-6,-47 -76,-44 -76,6 2,26 7,54 11,80 1,8 5,17 12,22 27,24 68,2 63,-33 -4,-25 -7,-50 -10,-75zm68 370c-13,-48 -83,-32 -74,17 6,25 13,51 20,76 11,43 77,34 74,-13 0,-3 0,-5 -1,-8 -7,-24 -13,-48 -19,-72zm113 358c-14,-37 -71,-29 -73,13 0,5 0,10 2,15 10,24 19,48 29,71 8,18 27,28 45,22 22,-6 34,-30 25,-51 -9,-23 -19,-47 -28,-70zm157 342c-22,-41 -84,-14 -70,30 1,2 2,4 3,6 12,23 25,45 37,68 20,35 77,18 71,-26 -1,-5 -2,-8 -5,-12 -12,-19 -25,-46 -36,-66zm198 319c-23,-33 -78,-10 -68,32 1,5 3,8 6,13 15,21 30,41 45,62 28,36 84,2 65,-39 -1,-2 -2,-5 -4,-7 -15,-20 -30,-40 -44,-61zm236 293c-30,-32 -82,3 -62,44 2,3 4,5 6,8 17,18 35,37 53,56 32,32 84,-8 58,-49 -1,-1 -2,-3 -4,-4 -17,-18 -34,-37 -51,-55zm271 260c-25,-22 -66,-1 -63,32 1,11 6,20 14,27 19,16 39,33 59,49 18,14 44,10 56,-10 11,-16 7,-38 -8,-50 -20,-16 -39,-31 -58,-48zm301 225c-16,-11 -37,-8 -49,7 -15,17 -11,45 8,57 21,14 43,27 65,41 35,22 77,-22 49,-58 -3,-3 -6,-5 -9,-7 -22,-13 -43,-26 -64,-40zm327 185c-40,-19 -75,35 -40,64 2,2 5,3 7,5 23,11 47,22 70,32 43,19 75,-39 37,-66 -1,-1 -3,-2 -6,-3 -22,-10 -45,-21 -68,-32zm348 144c-44,-15 -71,46 -31,69 2,1 4,2 6,3 25,8 49,16 74,24 42,13 70,-47 29,-70 -2,-1 -4,-2 -7,-3 -24,-8 -47,-15 -71,-23zm362 99c-39,-9 -65,45 -27,70 4,2 7,3 12,5 25,5 50,10 76,14 44,8 64,-55 20,-73 -2,-1 -5,-1 -7,-2 -24,-4 -49,-9 -74,-14zm372 53c-43,-4 -58,60 -14,75 3,0 6,1 8,1 26,2 52,4 78,5 42,2 56,-57 15,-74 -4,-1 -8,-2 -12,-2 -25,-1 -50,-3 -75,-5zm376 6c-42,2 -50,63 -8,75 4,1 7,1 12,1 26,-1 51,-2 77,-4 46,-4 48,-72 -1,-76 -1,0 -3,0 -5,0 -25,2 -50,3 -75,4zm374 -41c-44,8 -41,74 6,76 2,0 5,0 7,-1 25,-4 51,-9 76,-14 48,-11 35,-81 -14,-75 -25,5 -50,10 -75,14zm366 -87c-46,15 -30,83 18,74 26,-6 53,-16 77,-24 39,-13 33,-72 -11,-74 -5,0 -8,0 -13,2 -24,7 -48,15 -71,22zm352 -131c-39,16 -25,77 20,72 4,0 7,-1 11,-3 23,-10 47,-21 70,-32 8,-4 15,-11 19,-20 13,-33 -21,-64 -52,-49 -23,11 -45,21 -68,32zm333 -175c-39,25 -11,83 32,69 3,-1 5,-2 7,-4 22,-13 44,-26 66,-40 34,-22 15,-76 -27,-70 -5,1 -10,3 -15,6 -21,13 -42,26 -63,39zm308 -214c-32,26 -5,80 38,66 4,-2 6,-4 10,-6 20,-16 40,-32 60,-49 11,-10 16,-25 12,-39 -8,-27 -40,-37 -61,-19 -20,16 -39,32 -59,47zm280 -251c-30,30 7,82 47,59 3,-2 5,-3 7,-6 18,-18 36,-37 54,-55 31,-35 -14,-84 -51,-57 -2,2 -3,3 -5,5 -17,18 -34,36 -52,54zm246 -284c-25,32 13,78 51,55 4,-3 7,-6 10,-9 15,-21 31,-41 46,-62 26,-39 -24,-81 -58,-50 -2,2 -3,4 -4,5 -15,21 -30,41 -45,61zm208 -313c-23,42 36,80 65,41 13,-22 26,-47 39,-70 21,-39 -32,-78 -63,-43 -1,2 -3,4 -4,6 -12,22 -24,44 -37,66zm168 -336c-17,39 36,73 65,38 2,-3 4,-5 5,-9 10,-23 20,-47 30,-71 16,-42 -41,-72 -67,-36 -2,3 -3,5 -4,8 -10,22 -19,47 -29,70zm125 -355c-4,17 2,34 17,43 21,13 50,2 57,-22 7,-25 13,-50 20,-75 10,-37 -39,-65 -67,-33 -3,5 -5,9 -7,15 -6,24 -13,48 -20,72zm80 -367c-5,41 47,60 70,26 3,-4 5,-9 5,-15 4,-25 8,-51 11,-76 6,-43 -54,-61 -73,-20 -1,4 -2,7 -2,10 -4,25 -7,50 -11,75zm34 -374c-2,40 54,54 72,17 3,-6 4,-10 4,-16 0,-25 1,-51 1,-77 0,-39 -53,-53 -72,-16 -3,5 -4,10 -4,16 0,25 -1,50 -1,76zm-14 -376c4,42 68,47 76,2 0,-3 0,-6 0,-10 -2,-25 -5,-51 -8,-76 -6,-46 -74,-44 -76,4 0,2 0,3 0,5 3,25 6,50 8,75zm-60 -371c10,45 79,36 75,-13l-1 -4c-5,-25 -11,-50 -18,-75 -12,-47 -83,-32 -74,17 6,25 13,50 18,75z"/>
    <path class="fil12" d="M4788 1291c965,0 1839,392 2472,1024 633,633 1024,1507 1024,2473 0,965 -391,1839 -1024,2472 -633,633 -1507,1024 -2472,1024 -966,0 -1840,-391 -2473,-1024 -632,-633 -1024,-1507 -1024,-2472 0,-966 392,-1840 1024,-2473 633,-632 1507,-1024 2473,-1024zm0 42c1908,0 3455,1546 3455,3455 0,1908 -1547,3455 -3455,3455 -1908,0 -3455,-1547 -3455,-3455 0,-1909 1547,-3455 3455,-3455z"/>
    <circle class="fil13" cx="4788" cy="4788" r="2689"/>
    <path class="fil14" d="M4788 1291c1929,0 3494,1561 3494,3486 0,14 -1,29 -1,43 -23,-1905 -1578,-3442 -3493,-3442 -1916,0 -3471,1537 -3494,3442 0,-14 0,-29 0,-43 0,-1925 1564,-3486 3494,-3486z"/>
   </g>
  </g>
  <path class="fil15" d="M1063 2944c24,11 43,28 55,49 13,21 18,47 18,78 25,-27 51,-44 79,-51 28,-6 57,-3 85,10 53,23 83,60 91,109 8,50 -4,111 -37,183 -4,10 -10,21 -16,33 -5,11 -12,23 -19,35 -7,11 -14,22 -22,33 -8,11 -16,21 -24,30 -21,23 -43,28 -67,18l-403 -183c-11,-5 -18,-11 -21,-19 -3,-8 -4,-18 -2,-29 2,-21 8,-45 16,-71 9,-26 20,-52 32,-79 30,-67 65,-113 104,-139 39,-26 83,-28 131,-7zm184 193c-22,-10 -43,-10 -63,0 -19,10 -36,30 -50,60l-43 96 138 63c7,-10 15,-21 22,-35 8,-15 15,-29 22,-43 15,-34 21,-63 18,-87 -4,-24 -18,-42 -44,-54zm-235 121l38 -84c14,-29 17,-54 12,-74 -6,-20 -19,-35 -41,-45 -43,-20 -80,4 -110,71 -7,14 -12,27 -16,40 -5,13 -8,24 -11,34l128 58zm564 -401c-2,5 -5,13 -9,22 -4,9 -9,19 -15,29 -13,19 -25,30 -37,34 -12,3 -27,-1 -44,-12l-421 -270c1,-5 4,-12 8,-22 4,-10 9,-19 15,-28 12,-18 23,-29 36,-34 12,-4 27,-1 45,11l150 96 122 -191 -191 -122c2,-5 5,-12 9,-22 4,-10 9,-19 15,-28 11,-18 23,-29 36,-33 12,-5 27,-1 45,10l421 270c-2,5 -4,13 -8,22 -4,9 -9,19 -15,29 -13,19 -25,30 -37,34 -12,3 -27,-1 -44,-12l-152 -97 -122 191 193 123zm393 -746l-133 154c13,19 26,40 39,61 13,22 24,40 33,54 -2,6 -5,12 -8,18 -3,7 -8,14 -15,22 -13,15 -27,25 -40,28 -14,3 -27,0 -38,-10 -5,-5 -10,-10 -14,-16 -4,-6 -8,-14 -13,-22 -10,-14 -21,-33 -34,-55 -12,-21 -26,-45 -41,-70 -15,-26 -31,-53 -46,-80 -16,-28 -31,-55 -45,-81 -15,-26 -29,-50 -41,-73 -12,-24 -23,-43 -32,-60 2,-9 6,-20 13,-35 7,-14 16,-27 26,-39 14,-16 29,-29 45,-38 16,-9 31,-11 45,-5 33,13 71,28 113,45 42,17 85,35 130,54 44,19 88,38 130,56 42,18 80,35 114,50 1,9 0,19 -4,30 -3,10 -10,21 -19,32 -14,16 -27,25 -38,27 -12,2 -25,-1 -40,-8l-87 -39zm-311 -136c7,14 16,30 26,47 10,17 21,35 31,53 11,19 22,38 33,57 11,19 22,37 33,56l103 -120 -223 -96 -3 3zm678 -145c28,-22 44,-43 48,-64 5,-21 1,-39 -12,-55 -12,-15 -26,-23 -43,-24 -17,-1 -38,4 -63,14l-57 21c-22,9 -44,15 -64,20 -20,4 -40,5 -58,4 -18,-2 -35,-7 -51,-15 -16,-9 -31,-22 -45,-40 -30,-39 -40,-81 -28,-126 11,-45 42,-88 92,-127 20,-16 40,-29 59,-39 19,-10 37,-17 54,-22 16,-4 31,-5 45,-2 13,3 23,9 31,19 8,9 12,19 13,30 1,10 -1,20 -4,30 -18,1 -38,6 -62,14 -23,9 -46,22 -68,40 -25,19 -40,38 -46,57 -6,19 -3,36 9,51 10,13 21,19 35,19 14,-1 33,-5 57,-14l51 -19c51,-20 96,-29 136,-25 39,3 74,23 102,60 16,19 26,40 31,62 5,23 5,45 0,68 -6,23 -17,46 -33,70 -17,23 -39,46 -66,67 -22,17 -44,31 -65,42 -21,10 -41,18 -60,22 -18,4 -34,4 -49,1 -14,-3 -25,-9 -33,-20 -9,-11 -13,-23 -13,-36 1,-12 3,-24 9,-35 20,2 43,-1 70,-8 26,-6 52,-20 78,-40zm436 -223c-4,4 -10,9 -18,16 -8,6 -16,12 -26,18 -20,11 -36,16 -49,13 -12,-2 -23,-12 -33,-30l-250 -434c4,-4 9,-9 18,-16 8,-6 17,-12 25,-18 19,-10 35,-15 48,-13 13,1 25,11 35,30l89 154 196 -112 -112 -197c3,-3 9,-8 17,-15 9,-7 17,-13 26,-18 19,-11 35,-16 48,-14 13,2 24,12 35,31l249 433c-4,4 -10,9 -17,16 -8,6 -17,13 -27,18 -20,12 -36,16 -48,13 -13,-2 -24,-12 -34,-29l-90 -157 -196 113 114 198zm695 -482l-189 75c2,23 4,47 6,73 1,25 3,46 4,62 -4,4 -10,9 -16,13 -5,4 -13,8 -23,12 -19,8 -35,10 -49,6 -13,-3 -23,-12 -29,-26 -2,-7 -4,-14 -4,-21 -1,-7 -2,-15 -2,-25 -2,-17 -3,-39 -4,-64 -2,-25 -3,-53 -5,-82 -1,-30 -2,-60 -3,-92 -1,-32 -2,-63 -3,-93 -1,-29 -2,-57 -2,-84 0,-26 -1,-48 -1,-67 6,-7 15,-15 28,-25 13,-9 26,-17 41,-23 20,-7 39,-12 58,-12 18,-1 32,5 42,16 23,26 50,57 79,92 29,35 59,71 90,108 31,37 60,74 90,110 29,36 55,68 78,97 -3,8 -9,16 -17,24 -8,9 -19,15 -33,21 -19,7 -35,9 -46,6 -11,-4 -21,-13 -32,-26l-58 -75zm-214 -264c1,16 1,34 2,53 1,20 2,41 3,62 1,22 2,43 3,65 1,22 2,44 3,65l147 -58 -154 -189 -4 2zm998 122c35,-4 60,-14 74,-29 15,-16 21,-34 18,-54 -2,-19 -10,-33 -24,-42 -14,-10 -35,-17 -62,-21l-59 -11c-24,-4 -46,-10 -65,-17 -20,-6 -37,-15 -52,-25 -15,-11 -27,-24 -36,-40 -9,-15 -16,-34 -19,-57 -6,-49 8,-90 41,-123 33,-33 81,-53 144,-61 26,-4 49,-5 71,-3 22,1 41,4 57,9 17,5 30,12 40,21 10,9 16,20 17,32 2,12 0,23 -4,32 -5,10 -11,18 -19,24 -16,-8 -36,-15 -60,-19 -25,-5 -51,-5 -79,-2 -32,4 -55,13 -69,26 -15,13 -21,29 -19,49 2,15 9,26 21,33 12,7 31,13 56,18l53 10c54,9 98,25 130,48 32,23 51,58 57,104 3,25 1,48 -6,70 -7,21 -19,40 -35,57 -17,17 -38,32 -64,43 -26,12 -57,20 -92,24 -27,4 -53,5 -76,3 -24,-2 -45,-6 -63,-12 -18,-6 -32,-14 -42,-24 -11,-10 -17,-21 -19,-34 -2,-14 1,-27 8,-37 6,-11 15,-20 25,-26 17,11 38,21 64,29 26,8 56,10 88,5zm678 -72l-203 -5c-7,22 -14,45 -23,69 -8,24 -14,44 -20,59 -6,2 -12,4 -19,6 -7,2 -16,2 -26,2 -21,0 -37,-5 -48,-13 -11,-9 -17,-21 -16,-36 0,-7 1,-14 3,-21 3,-7 5,-15 9,-24 5,-16 12,-37 21,-60 9,-24 18,-50 28,-78 10,-27 21,-56 33,-86 11,-29 22,-58 33,-86 11,-28 21,-54 31,-78 10,-24 19,-45 26,-62 8,-4 19,-8 35,-12 15,-4 31,-6 47,-5 21,0 40,4 57,11 18,6 29,17 33,31 11,33 24,72 37,115 14,44 27,89 41,135 13,46 27,92 39,136 13,45 24,85 34,120 -6,6 -14,12 -25,16 -11,4 -23,6 -38,6 -21,-1 -36,-5 -44,-13 -9,-7 -15,-19 -20,-36l-25 -91zm-93 -327c-6,15 -12,32 -19,50 -7,19 -14,38 -21,58 -8,20 -15,41 -23,61 -8,21 -15,41 -22,61l157 4 -67 -234 -5 0zm747 405c-7,4 -16,6 -26,7 -10,0 -21,-1 -33,-3 -16,-4 -28,-9 -37,-15 -10,-6 -15,-15 -17,-26 -11,-65 -19,-121 -26,-168 -6,-46 -11,-85 -14,-117l-5 -1c-11,39 -21,75 -30,107 -9,33 -18,65 -26,96 -9,31 -17,63 -26,95 -9,32 -19,66 -30,104 -6,0 -14,0 -23,0 -10,0 -19,-2 -29,-4 -40,-9 -56,-28 -49,-58 2,-9 6,-24 11,-43 6,-20 12,-43 20,-68 7,-26 15,-55 25,-85 9,-31 18,-62 28,-93 9,-32 19,-62 28,-93 10,-30 18,-58 26,-85 6,-4 16,-8 30,-12 14,-3 32,-2 51,2 23,6 40,13 52,24 12,11 20,25 23,44 4,20 7,42 11,66 3,23 7,48 10,73 4,25 7,49 11,73 3,24 6,47 10,68l3 1c33,-51 65,-100 97,-147 31,-47 59,-87 82,-120 8,-2 17,-2 29,-2 12,0 24,2 35,4 22,5 39,13 50,22 12,9 17,21 17,35 0,11 -1,30 -4,55 -3,25 -6,53 -10,85 -5,32 -9,66 -15,102 -5,36 -10,71 -15,104 -5,33 -10,64 -15,91 -4,28 -8,49 -11,64 -9,3 -17,5 -27,5 -9,1 -19,0 -32,-3 -15,-4 -28,-10 -38,-19 -10,-9 -13,-22 -11,-39 6,-38 13,-75 19,-111 7,-36 13,-70 19,-102 6,-32 12,-61 17,-88 5,-27 9,-51 13,-70l-4 -1c-16,25 -37,57 -63,96 -27,39 -60,89 -101,150zm688 241l-189 -75c-15,19 -30,38 -46,57 -15,20 -29,36 -39,49 -6,0 -13,0 -20,-1 -7,-1 -16,-3 -25,-7 -19,-7 -33,-17 -40,-29 -8,-12 -9,-25 -4,-39 3,-6 7,-13 11,-18 5,-6 10,-13 16,-20 11,-14 24,-30 41,-50 16,-19 34,-40 53,-62 19,-23 39,-46 60,-70 21,-24 41,-47 61,-70 19,-22 38,-43 56,-62 17,-20 33,-36 45,-50 9,-1 21,-1 37,1 16,1 31,5 46,11 20,8 37,18 51,30 14,12 20,26 20,41 -1,35 -3,75 -5,121 -3,45 -5,92 -9,140 -3,49 -6,96 -9,142 -3,46 -6,87 -9,124 -8,4 -18,6 -29,6 -12,1 -24,-2 -38,-7 -20,-8 -32,-17 -37,-27 -6,-10 -8,-24 -6,-41l8 -94zm24 -339c-10,12 -22,25 -35,40 -13,16 -26,31 -40,48 -14,16 -28,32 -42,49 -15,17 -28,33 -42,49l147 58 17 -243 -5 -1zm282 640c-5,-1 -12,-4 -22,-7 -9,-4 -19,-8 -29,-14 -20,-11 -32,-23 -36,-35 -4,-12 -1,-27 9,-44l227 -394c6,-10 13,-16 21,-19 8,-2 18,-2 29,0 20,4 42,12 67,22 24,11 48,23 72,37 69,40 113,84 131,133 18,48 13,97 -16,148 -19,33 -44,56 -76,71 -31,14 -66,19 -103,15 5,43 11,84 17,123 6,39 9,70 11,91 -12,11 -25,17 -40,19 -15,2 -29,-1 -41,-9 -17,-9 -27,-20 -31,-32 -5,-12 -8,-27 -9,-45l-12 -183 -73 -42 -96 165zm205 -209c30,17 57,24 83,21 26,-2 46,-17 61,-44 31,-53 11,-99 -60,-140 -11,-6 -21,-11 -31,-16 -11,-4 -20,-9 -29,-12l-89 154 65 37zm814 265c-1,6 -3,13 -6,21 -3,8 -7,16 -13,24 -10,12 -21,20 -32,22 -11,2 -22,-1 -32,-10l-99 -77 -280 356c-4,-2 -11,-5 -20,-10 -9,-5 -18,-11 -27,-17 -18,-15 -28,-28 -30,-41 -3,-12 2,-26 14,-42l251 -319 -120 -94c1,-6 3,-13 6,-21 2,-8 7,-15 13,-23 10,-13 21,-21 32,-22 11,-2 21,1 32,9l311 244zm-161 618c-4,-3 -11,-8 -18,-14 -8,-7 -16,-14 -24,-23 -15,-17 -22,-32 -22,-45 1,-12 8,-25 23,-38l379 -328c4,2 10,7 19,14 8,7 16,14 22,22 14,16 22,31 23,44 1,13 -7,26 -23,40l-135 117 148 171 172 -148c4,3 10,8 18,14 8,7 16,14 23,22 14,17 21,31 22,45 0,13 -7,26 -23,40l-378 327c-5,-3 -11,-8 -19,-14 -8,-6 -16,-14 -23,-23 -15,-17 -22,-32 -22,-44 0,-13 8,-26 23,-39l136 -118 -148 -171 -173 149zm598 596l-110 -171c-22,6 -45,13 -70,20 -24,6 -44,12 -60,16 -6,-3 -11,-8 -16,-13 -5,-5 -11,-11 -16,-20 -11,-17 -17,-33 -16,-47 1,-14 7,-25 20,-33 6,-4 13,-7 20,-9 7,-2 15,-4 24,-7 17,-5 38,-10 62,-16 25,-6 51,-13 80,-20 29,-7 59,-15 90,-22 31,-7 61,-13 90,-20 29,-7 56,-13 82,-18 25,-6 47,-10 66,-14 8,4 17,12 29,22 12,11 22,23 31,36 11,18 19,36 23,54 4,18 2,33 -7,45 -22,28 -47,60 -75,95 -29,36 -59,72 -89,109 -31,38 -61,74 -91,110 -29,35 -56,67 -80,95 -8,-2 -18,-6 -27,-12 -10,-6 -18,-16 -26,-28 -12,-18 -16,-32 -15,-44 2,-11 8,-23 19,-36l62 -72zm218 -261c-15,4 -33,8 -52,13 -19,5 -39,10 -60,15 -21,5 -42,10 -63,15 -22,5 -43,10 -63,15l85 133 156 -187 -3 -4zm68 595l-214 97c-4,-5 -9,-11 -14,-20 -6,-8 -11,-17 -16,-28 -9,-21 -12,-37 -8,-49 3,-12 14,-22 33,-31l457 -206c3,4 7,10 13,19 6,9 12,18 16,27 9,20 12,36 9,49 -3,13 -14,23 -33,32l-171 77 308 100c12,26 15,48 10,64 -5,17 -15,28 -29,35 -11,5 -23,7 -35,5 -11,-2 -26,-6 -42,-12l-202 -77c-25,63 -47,118 -67,167 -20,48 -36,88 -46,120 -19,8 -36,8 -51,1 -15,-6 -26,-18 -34,-34 -7,-16 -9,-31 -5,-46 3,-15 8,-30 15,-45l106 -245z"/>
  <path class="fil16" d="M1070 2917c24,11 43,27 55,49 12,21 18,47 17,78 25,-27 51,-44 80,-50 28,-7 56,-3 85,10 52,24 82,61 89,110 8,50 -4,110 -37,182 -5,10 -11,21 -17,33 -6,11 -12,23 -19,34 -7,12 -14,23 -22,34 -8,11 -16,21 -25,30 -20,22 -43,28 -66,17l-402 -185c-11,-5 -17,-12 -20,-20 -3,-8 -4,-17 -3,-29 3,-21 8,-45 17,-71 9,-25 20,-52 32,-79 31,-66 66,-112 105,-138 39,-25 83,-27 131,-5zm183 194c-22,-11 -43,-11 -63,-1 -20,10 -37,30 -50,59l-44 96 137 64c7,-9 15,-21 23,-35 8,-14 15,-28 21,-42 16,-34 22,-63 19,-87 -3,-24 -18,-43 -43,-54zm-235 118l38 -83c13,-29 17,-54 12,-74 -5,-20 -19,-35 -40,-45 -43,-20 -80,4 -111,70 -6,14 -12,27 -17,40 -4,13 -8,24 -10,34l128 58z"/>
  <path id="1" class="fil16" d="M1577 2830c-2,5 -5,13 -8,22 -4,9 -9,19 -15,29 -13,19 -25,30 -37,34 -12,3 -27,-1 -43,-11l-423 -268c1,-5 4,-12 8,-22 4,-10 9,-19 15,-28 11,-18 23,-30 35,-34 12,-5 27,-1 45,10l151 96 121 -192 -191 -121c1,-4 4,-12 8,-22 5,-10 9,-19 15,-27 11,-19 23,-30 36,-34 12,-5 27,-1 45,10l422 268c-2,5 -4,12 -8,21 -4,10 -9,19 -15,29 -13,19 -25,31 -37,34 -12,3 -26,0 -43,-11l-152 -96 -122 191 193 122z"/>
  <path id="2" class="fil16" d="M1971 2085l-132 153c12,20 25,41 38,62 14,22 25,39 33,53 -2,6 -4,13 -8,19 -3,6 -8,14 -14,21 -14,16 -27,25 -41,29 -14,3 -26,0 -38,-10 -5,-5 -10,-10 -14,-17 -4,-6 -8,-13 -13,-21 -9,-15 -21,-33 -33,-55 -13,-22 -27,-45 -42,-71 -15,-25 -30,-52 -46,-79 -15,-28 -30,-55 -45,-81 -15,-26 -28,-50 -40,-73 -13,-23 -23,-43 -32,-60 2,-8 6,-20 13,-34 7,-15 15,-28 26,-40 14,-16 29,-28 45,-37 16,-9 31,-11 45,-6 33,13 70,28 112,45 42,18 86,36 130,55 44,18 88,37 130,55 42,19 80,35 114,50 1,9 0,19 -4,30 -3,11 -10,21 -19,32 -14,16 -27,25 -38,27 -12,2 -25,-1 -41,-8l-86 -39zm-311 -135c8,14 17,29 27,46 10,17 20,35 31,53 11,19 22,38 33,57 11,19 21,38 32,55l103 -119 -223 -96 -3 4z"/>
  <path id="3" class="fil16" d="M2338 1804c28,-22 43,-43 48,-64 4,-21 0,-39 -13,-55 -11,-15 -25,-23 -42,-24 -17,0 -38,4 -63,14l-57 22c-23,8 -44,15 -64,19 -20,5 -40,6 -58,4 -18,-1 -35,-6 -51,-15 -16,-8 -31,-21 -45,-39 -30,-39 -40,-81 -29,-126 11,-45 42,-88 92,-127 20,-16 40,-29 59,-39 19,-10 37,-17 54,-22 16,-4 31,-5 45,-2 13,3 23,9 31,19 8,9 12,19 13,30 1,10 -1,20 -4,30 -18,1 -38,5 -62,14 -23,9 -46,22 -68,40 -25,19 -40,38 -46,57 -6,19 -3,36 9,51 10,12 22,18 36,18 14,0 33,-5 57,-13l50 -20c51,-20 96,-28 136,-25 40,4 74,24 102,60 16,19 26,40 31,62 5,22 5,45 0,68 -6,23 -16,46 -33,69 -16,24 -38,46 -66,68 -22,17 -43,31 -64,42 -22,10 -41,18 -60,22 -18,4 -34,4 -48,1 -15,-3 -26,-9 -34,-20 -9,-11 -13,-23 -13,-36 0,-12 3,-24 9,-35 20,2 43,-1 69,-8 27,-6 53,-20 79,-40z"/>
  <path id="4" class="fil16" d="M2774 1582c-5,3 -10,8 -18,15 -8,7 -17,13 -27,18 -19,12 -36,16 -48,13 -12,-2 -23,-12 -33,-30l-249 -434c4,-3 9,-8 18,-15 8,-7 17,-13 26,-18 18,-11 34,-15 47,-14 13,2 25,12 35,30l89 155 196 -112 -113 -197c4,-3 10,-8 18,-15 8,-7 17,-13 26,-18 19,-11 35,-15 48,-13 13,2 24,12 35,30l248 434c-4,3 -10,9 -18,15 -8,7 -16,13 -26,18 -20,12 -36,16 -49,14 -12,-3 -23,-13 -33,-30l-89 -157 -197 113 114 198z"/>
  <path id="5" class="fil16" d="M3470 1103l-189 72c2,24 3,48 5,73 2,25 3,46 4,62 -5,5 -10,9 -16,13 -6,4 -13,8 -23,12 -19,7 -35,9 -49,6 -14,-4 -23,-12 -29,-27 -2,-6 -4,-13 -4,-20 -1,-8 -1,-16 -2,-26 -1,-17 -3,-38 -4,-64 0,-25 -2,-52 -3,-82 -1,-29 -2,-60 -3,-92 0,-32 -1,-62 -2,-92 -1,-30 -1,-58 -1,-84 0,-26 0,-49 0,-67 6,-7 15,-15 28,-25 13,-9 26,-17 41,-22 20,-8 39,-12 57,-12 19,-1 33,5 43,16 23,27 49,58 78,93 29,35 59,71 89,109 30,37 60,74 88,110 29,36 55,69 78,97 -4,9 -9,17 -18,25 -8,8 -19,15 -32,20 -20,7 -35,9 -46,5 -11,-4 -22,-12 -32,-26l-58 -74zm-211 -267c1,16 1,34 2,54 1,20 1,40 2,62 1,21 2,43 3,65 0,22 1,43 2,64l147 -56 -152 -190 -4 1z"/>
  <path id="6" class="fil16" d="M4252 957c35,-4 59,-15 74,-30 14,-16 20,-34 17,-54 -2,-19 -10,-33 -24,-42 -14,-9 -35,-16 -61,-21l-60 -10c-24,-4 -46,-10 -65,-16 -20,-7 -37,-15 -52,-26 -15,-11 -27,-24 -36,-39 -10,-16 -16,-35 -19,-58 -6,-48 7,-89 40,-122 33,-33 81,-54 144,-62 25,-4 49,-5 71,-4 21,1 40,4 57,9 16,5 30,12 40,21 10,9 16,20 17,33 2,12 0,22 -4,32 -5,9 -11,17 -19,23 -15,-8 -36,-14 -60,-18 -25,-5 -51,-5 -79,-2 -31,4 -54,13 -69,26 -15,14 -21,30 -18,49 2,15 9,27 21,34 12,7 31,12 56,17l53 9c54,9 97,25 130,48 32,24 51,58 57,104 3,25 1,48 -6,69 -7,22 -18,41 -35,59 -16,17 -37,31 -63,43 -27,11 -57,19 -92,24 -27,3 -53,4 -77,3 -23,-2 -44,-6 -62,-12 -18,-6 -32,-14 -43,-24 -10,-9 -17,-21 -18,-34 -2,-14 0,-26 7,-37 7,-11 15,-20 26,-26 16,11 38,21 64,29 26,8 55,9 88,5z"/>
  <path id="7" class="fil16" d="M4931 889l-203 -7c-7,22 -15,45 -24,69 -8,24 -15,43 -20,59 -6,2 -13,4 -20,5 -7,2 -15,3 -26,2 -20,0 -36,-5 -47,-14 -11,-8 -17,-20 -16,-35 0,-7 1,-14 4,-21 2,-7 5,-15 8,-24 6,-17 13,-37 22,-60 9,-24 18,-49 29,-77 10,-28 21,-57 33,-86 12,-29 23,-58 34,-86 11,-27 21,-53 32,-77 10,-24 19,-45 26,-63 8,-3 19,-7 35,-11 16,-4 31,-5 47,-5 21,1 40,5 57,12 18,7 29,17 33,31 11,34 23,72 36,116 13,44 26,89 39,135 13,46 26,92 38,136 13,45 24,85 33,120 -6,6 -14,12 -25,16 -11,4 -23,6 -38,5 -21,0 -36,-5 -44,-12 -9,-8 -15,-20 -19,-37l-24 -91zm-91 -328c-6,15 -12,32 -19,50 -7,19 -14,38 -22,58 -7,20 -15,40 -23,61 -8,20 -16,41 -23,60l157 6 -65 -235 -5 0z"/>
  <path id="8" class="fil16" d="M5583 964c-7,3 -16,5 -26,6 -10,1 -21,0 -33,-3 -16,-4 -28,-8 -37,-15 -10,-6 -15,-14 -17,-25 -10,-66 -19,-122 -26,-168 -6,-46 -11,-85 -14,-118l-5 -1c-10,39 -20,75 -29,108 -10,32 -18,64 -27,96 -8,31 -17,62 -26,94 -9,32 -19,67 -30,104 -6,0 -14,0 -23,0 -9,0 -19,-1 -29,-4 -39,-9 -56,-28 -49,-58 2,-9 6,-23 11,-43 6,-19 12,-42 20,-68 7,-26 16,-54 25,-85 9,-30 19,-61 28,-93 9,-31 19,-62 28,-92 10,-30 18,-59 26,-85 6,-4 16,-8 31,-12 14,-3 31,-2 51,2 22,5 39,13 51,24 12,10 20,25 23,44 4,20 7,42 11,65 3,24 7,48 10,73 4,25 7,50 11,74 3,24 6,47 9,68l4 0c33,-50 65,-99 97,-146 31,-48 59,-87 82,-120 7,-2 17,-3 29,-2 12,0 23,1 35,4 22,5 39,12 50,22 11,9 17,21 17,34 0,12 -2,30 -4,56 -3,25 -6,53 -11,85 -4,32 -9,66 -14,102 -5,36 -10,70 -15,103 -6,34 -10,64 -15,91 -4,28 -8,49 -11,65 -9,3 -18,4 -27,5 -9,0 -20,-1 -32,-4 -15,-4 -28,-10 -38,-18 -10,-9 -14,-22 -11,-40 6,-37 13,-74 19,-110 7,-36 13,-70 19,-102 6,-32 12,-62 17,-89 5,-27 9,-50 13,-70l-4 -1c-16,26 -37,58 -63,97 -27,39 -60,89 -101,150z"/>
  <path id="9" class="fil16" d="M6270 1201l-189 -73c-14,19 -29,38 -45,58 -16,19 -29,36 -39,49 -6,0 -13,-1 -20,-2 -7,0 -16,-3 -25,-6 -19,-8 -33,-17 -40,-29 -8,-12 -9,-25 -4,-39 3,-6 6,-13 11,-18 4,-6 9,-13 15,-20 11,-14 24,-31 41,-50 16,-19 33,-40 52,-63 19,-23 39,-46 60,-70 21,-24 41,-47 60,-70 20,-23 38,-44 56,-63 17,-19 32,-36 45,-50 8,-1 21,-1 37,1 16,1 31,5 45,11 20,7 37,17 51,29 14,13 21,26 20,41 0,35 -2,75 -4,121 -2,45 -4,92 -7,140 -3,48 -6,95 -8,141 -3,47 -6,88 -9,125 -8,3 -17,6 -29,6 -11,0 -24,-2 -37,-7 -20,-8 -32,-17 -38,-27 -5,-10 -7,-23 -6,-40l7 -95zm22 -338c-10,12 -22,25 -34,40 -13,16 -26,31 -40,48 -14,16 -28,33 -42,50 -14,16 -28,33 -41,49l147 57 15 -243 -5 -1z"/>
  <path id="10" class="fil16" d="M6577 1506c-5,-2 -13,-5 -22,-8 -10,-3 -20,-8 -29,-14 -20,-11 -32,-23 -36,-35 -4,-12 -1,-27 9,-44l227 -394c5,-10 12,-16 20,-18 9,-2 18,-2 30,0 20,4 42,11 66,22 24,11 48,23 72,37 69,39 113,84 131,132 18,48 13,98 -16,148 -19,33 -44,56 -75,71 -32,14 -66,19 -104,15 6,43 12,84 17,123 6,40 10,70 11,91 -12,11 -25,17 -40,19 -15,2 -28,-1 -41,-8 -16,-10 -27,-21 -31,-33 -4,-12 -7,-27 -8,-44l-13 -184 -73 -42 -95 166zm204 -210c30,17 58,24 83,22 26,-3 46,-18 62,-44 30,-53 10,-100 -61,-141 -10,-6 -21,-11 -31,-16 -10,-4 -20,-8 -29,-12l-88 154 64 37z"/>
  <path id="11" class="fil16" d="M7594 1564c0,6 -2,13 -5,21 -3,8 -7,16 -14,23 -10,13 -20,20 -31,22 -11,2 -22,-1 -33,-9l-98 -78 -280 355c-5,-2 -12,-6 -21,-11 -9,-4 -18,-10 -26,-17 -18,-14 -29,-28 -31,-40 -2,-13 3,-27 15,-43l251 -317 -119 -94c1,-6 3,-13 6,-21 2,-8 7,-16 13,-23 10,-13 21,-21 32,-23 11,-1 22,2 32,10l309 245z"/>
  <path id="12" class="fil16" d="M7434 2179c-5,-3 -11,-8 -19,-15 -8,-6 -15,-13 -23,-22 -15,-17 -22,-32 -22,-45 0,-13 8,-25 23,-38l379 -327c4,3 10,7 19,14 8,7 15,14 22,22 14,16 22,31 22,44 1,13 -6,26 -22,40l-135 116 147 172 172 -148c4,3 10,8 18,14 8,7 16,14 23,22 14,17 21,31 22,45 0,13 -8,26 -24,40l-378 326c-4,-3 -10,-8 -18,-14 -8,-7 -16,-14 -23,-23 -15,-17 -22,-32 -22,-45 0,-12 8,-25 23,-38l136 -118 -148 -171 -172 149z"/>
  <path id="13" class="fil16" d="M8030 2776l-108 -171c-23,6 -46,12 -71,19 -24,6 -44,12 -60,16 -6,-4 -11,-8 -16,-13 -5,-5 -11,-12 -16,-20 -11,-18 -16,-33 -15,-47 0,-14 7,-26 20,-33 6,-4 13,-7 20,-9 7,-2 15,-4 24,-6 17,-5 38,-11 62,-17 25,-5 51,-12 80,-19 29,-7 59,-14 90,-21 31,-6 61,-13 90,-20 29,-6 56,-12 82,-17 26,-5 47,-10 66,-14 8,5 17,12 29,23 12,11 22,23 30,36 12,18 19,36 23,54 4,18 2,33 -8,45 -21,28 -46,59 -75,95 -29,35 -59,71 -90,108 -30,37 -61,73 -91,108 -30,36 -56,67 -80,95 -9,-1 -18,-6 -28,-12 -9,-7 -18,-16 -25,-28 -12,-18 -16,-33 -15,-44 2,-12 8,-24 20,-37l62 -71zm220 -258c-16,3 -33,7 -53,12 -19,4 -39,9 -60,14 -20,5 -42,10 -63,15 -22,5 -43,10 -63,15l84 133 157 -186 -2 -3z"/>
  <path id="14" class="fil16" d="M8317 3106l-213 98c-4,-4 -8,-10 -14,-19 -5,-8 -11,-18 -15,-28 -10,-21 -13,-37 -9,-49 3,-12 14,-22 33,-31l455 -209c3,4 8,11 14,20 6,8 11,17 15,27 9,20 12,36 9,48 -2,13 -13,24 -33,32l-169 78 308 98c12,26 15,48 10,65 -5,16 -14,28 -29,34 -11,5 -23,7 -34,6 -12,-2 -26,-6 -43,-12l-202 -76c-24,63 -47,119 -66,167 -20,48 -35,88 -46,120 -18,8 -35,9 -50,2 -15,-7 -27,-18 -34,-34 -7,-16 -9,-31 -6,-46 4,-15 9,-30 15,-45l104 -246z"/>
  <path class="fil17" d="M1063 2919c24,11 43,27 55,48 13,21 18,47 18,78 25,-27 51,-44 79,-50 28,-7 57,-4 85,9 53,24 83,60 91,110 2,14 3,28 2,44 0,-6 -1,-13 -2,-19 -8,-49 -38,-86 -91,-109 -28,-13 -57,-16 -85,-10 -28,7 -54,24 -79,51 0,-31 -5,-57 -18,-78 -12,-21 -31,-38 -55,-49 -48,-21 -92,-19 -131,7 -39,26 -74,72 -104,139 -12,27 -23,53 -32,79 -8,24 -13,46 -16,67 -1,-7 -1,-14 0,-22 2,-21 8,-45 16,-71 9,-26 20,-52 32,-79 30,-67 65,-113 104,-139 39,-26 83,-28 131,-6zm37 353l129 58c7,-9 15,-21 22,-35 8,-14 15,-28 22,-43 10,-22 16,-42 18,-60 3,24 -3,53 -18,86 -7,14 -14,28 -22,43 -7,14 -15,25 -22,35l-138 -63 9 -21zm-88 -40l38 -83c7,-16 12,-30 13,-43 4,19 -1,42 -13,68l-38 84 -128 -58c2,-7 4,-14 7,-23l121 55zm564 -401c-2,5 -5,12 -9,21l-184 -118 12 -18 181 115zm-518 -192l-8 -5c1,-4 4,-12 8,-22 4,-9 9,-19 15,-27 12,-19 23,-30 36,-34 12,-5 27,-1 45,10l150 96 110 -172 12 7 -122 191 -150 -96c-18,-12 -33,-15 -45,-11 -13,5 -24,16 -36,34 -6,9 -11,18 -15,28l0 1zm185 -289l-8 -6c2,-4 5,-12 9,-22 4,-9 9,-19 15,-27 11,-19 23,-30 36,-34 12,-4 27,-1 45,11l421 270c-1,5 -4,11 -8,20l-413 -265c-18,-11 -33,-15 -45,-10 -13,4 -25,15 -36,33 -6,9 -11,18 -15,28l-1 2zm603 -96c9,15 19,30 29,47 13,21 24,39 33,53 -2,5 -4,10 -6,15l-27 -43c-13,-21 -26,-42 -39,-61l10 -11zm-300 -289l-5 -10c2,-8 6,-20 13,-34 7,-15 16,-28 26,-40 14,-16 29,-28 45,-37 16,-9 31,-11 45,-6 33,13 71,28 113,45 42,17 85,36 130,54 44,19 88,38 130,56 42,19 80,35 114,50 1,8 0,16 -2,25 -33,-15 -71,-31 -112,-49 -42,-18 -86,-37 -130,-56 -45,-19 -88,-37 -130,-54 -42,-17 -80,-32 -113,-45 -14,-6 -29,-4 -45,5 -16,9 -31,22 -45,38 -10,12 -19,25 -26,39 -3,7 -6,13 -8,19zm127 12l11 19c10,17 21,35 31,54 11,18 22,37 33,56 11,19 22,38 33,56l87 -101 16 7 -103 120c-11,-19 -22,-37 -33,-56 -11,-19 -22,-38 -33,-57 -10,-18 -21,-36 -31,-53 -10,-17 -19,-33 -26,-47l3 -3 12 5zm663 -173c28,-22 44,-43 48,-64l1 -2c2,9 2,18 -1,28 -4,21 -20,42 -48,64 -26,20 -52,34 -78,40 -27,7 -50,10 -70,8 -4,7 -6,15 -7,22 -1,-4 -2,-8 -2,-12 1,-13 3,-25 9,-35 20,1 43,-2 70,-8 26,-7 52,-20 78,-41zm-377 -216c-2,-16 -1,-32 4,-49 11,-45 42,-87 92,-127 20,-16 40,-29 59,-39 19,-10 37,-17 54,-21 16,-5 31,-5 45,-3 13,3 23,9 31,19 8,10 12,20 13,30 0,7 0,14 -1,20 -2,-8 -6,-16 -12,-24 -8,-10 -18,-16 -31,-19 -14,-3 -29,-2 -45,2 -17,5 -35,12 -54,22 -19,10 -39,23 -59,39 -50,39 -81,82 -92,127 -2,8 -4,16 -4,23zm116 -18c2,7 6,14 11,21 10,12 21,18 35,18 14,0 33,-5 57,-14l51 -19c51,-20 96,-28 136,-25 39,4 74,24 102,60 16,20 26,41 31,63 3,15 5,30 3,45 0,-6 -2,-13 -3,-20 -5,-22 -15,-43 -31,-62 -28,-37 -63,-57 -102,-60 -40,-4 -85,5 -136,25l-51 19c-24,9 -43,13 -57,14 -14,0 -25,-6 -35,-19 -11,-13 -15,-29 -11,-46zm697 11l-10 9 -104 -181 11 -6 103 178zm-366 -400l-10 -17c4,-3 9,-8 18,-15 8,-7 17,-13 25,-18 19,-11 35,-16 48,-14 13,2 25,12 35,30l89 155 185 -107 11 20 -196 112 -89 -154c-10,-19 -22,-29 -35,-30 -13,-2 -29,3 -48,13 -8,6 -17,12 -25,18l-8 7zm298 -172l-9 -17c3,-3 9,-8 17,-15 9,-7 17,-13 26,-18 19,-11 35,-15 48,-13 13,2 24,12 35,30l249 434c-2,2 -5,5 -9,8l-240 -416c-11,-19 -22,-29 -35,-31 -13,-2 -29,3 -48,14 -9,5 -17,11 -26,18l-8 6zm576 190c1,16 2,32 4,48 1,25 3,46 4,62l-2 2 -2 -38c-2,-26 -4,-50 -6,-73l2 -1zm-132 -387l-1 -26c6,-7 15,-15 28,-24 13,-10 26,-18 41,-23 20,-8 39,-12 58,-13 18,0 32,5 42,16 23,27 50,57 79,92 29,35 59,71 90,108 31,38 60,74 90,110 29,36 55,68 78,97 -2,5 -5,10 -9,15 -21,-26 -44,-55 -69,-86 -30,-36 -59,-73 -90,-110 -31,-37 -61,-73 -90,-108 -29,-35 -56,-66 -79,-92 -10,-11 -24,-17 -42,-16 -19,0 -38,5 -58,12 -15,6 -28,14 -41,23 -13,10 -22,18 -27,25zm106 48l1 29c1,20 2,40 3,61 1,22 2,44 3,66 1,22 2,43 3,64l131 -51 16 19 -147 58c-1,-21 -2,-43 -3,-65 -1,-22 -2,-43 -3,-65 -1,-21 -2,-42 -3,-62 -1,-19 -1,-37 -2,-53l1 -1zm997 98c35,-5 60,-15 74,-30 9,-10 15,-21 18,-32l0 4c3,20 -3,38 -18,54 -14,15 -39,25 -74,29 -32,5 -62,3 -88,-5 -26,-8 -47,-18 -64,-29 -10,6 -19,15 -25,26 -4,5 -6,10 -7,16 -1,-2 -1,-3 -1,-5 -2,-14 1,-26 8,-37 6,-11 15,-20 25,-26 17,11 38,21 64,29 26,8 56,10 88,6zm-225 -306c-4,-45 10,-82 41,-113 33,-34 81,-54 144,-62 26,-3 49,-4 71,-3 22,1 41,4 57,9 17,5 30,12 40,21 10,9 16,20 17,32 1,8 1,15 -1,22 -2,-11 -7,-20 -16,-28 -10,-9 -23,-16 -40,-21 -16,-5 -35,-8 -57,-9 -22,-2 -45,-1 -71,3 -63,8 -111,28 -144,61 -25,25 -39,54 -41,88zm121 -1c3,13 10,23 20,29 12,7 31,13 56,17l53 10c54,9 98,25 130,48 32,24 51,58 57,105 1,12 2,23 1,35 0,-3 -1,-7 -1,-10 -6,-46 -25,-81 -57,-104 -32,-23 -76,-39 -130,-48l-53 -10c-25,-5 -44,-11 -56,-18 -12,-7 -19,-18 -21,-33 -1,-8 -1,-14 1,-21zm428 330c-1,-4 -1,-9 -1,-13 0,-8 1,-15 3,-22 3,-6 5,-14 9,-23 5,-17 12,-37 21,-61 9,-24 18,-49 28,-77 10,-28 21,-57 33,-86 11,-30 22,-59 33,-87 11,-28 21,-54 31,-78 10,-24 19,-45 26,-62 8,-4 19,-8 35,-12 15,-4 31,-5 47,-5 21,0 40,4 57,11 18,7 29,17 33,31 11,34 24,72 37,116 14,43 27,88 41,135 13,46 27,91 39,136 13,44 24,84 34,119 -1,2 -3,4 -5,5l-29 -99c-12,-44 -26,-90 -39,-136 -14,-46 -27,-91 -41,-135 -13,-43 -26,-82 -37,-115 -4,-14 -15,-25 -33,-31 -17,-7 -36,-11 -57,-11 -16,-1 -32,1 -47,5 -16,4 -27,8 -35,12 -7,17 -16,38 -26,62 -10,24 -20,50 -31,78 -11,28 -22,57 -33,86 -12,30 -23,59 -33,86 -10,28 -19,54 -28,78 -9,23 -16,44 -21,60 -4,9 -6,17 -9,24 -1,3 -1,6 -2,9zm185 -193l141 4 7 26 -157 -4 9 -26zm452 217c-2,-7 -2,-16 0,-25 2,-9 6,-23 11,-43 6,-20 12,-42 20,-68 7,-26 15,-54 25,-85 9,-31 18,-62 28,-93 9,-31 19,-62 28,-93 10,-30 18,-58 26,-84 6,-5 16,-9 30,-12 14,-4 32,-3 51,2 23,5 40,13 52,23 12,11 20,26 23,44 4,20 7,42 11,66 3,24 7,48 10,73 4,25 7,50 11,74 3,24 6,46 10,67l3 1c33,-50 65,-99 97,-147 31,-47 59,-87 82,-119 8,-2 17,-3 29,-3 12,0 24,2 35,5 22,5 39,12 50,21 12,10 17,21 17,35 0,5 0,10 0,17 -2,-10 -8,-19 -17,-26 -11,-9 -28,-17 -50,-22 -11,-2 -23,-4 -35,-4 -12,0 -21,0 -29,2 -23,33 -51,73 -82,120 -32,47 -64,96 -97,147l-3 -1c-4,-21 -7,-44 -10,-68 -4,-24 -7,-48 -11,-73 -3,-25 -7,-50 -10,-73 -4,-24 -7,-46 -11,-66 -3,-19 -11,-33 -23,-44 -12,-11 -29,-18 -52,-24 -19,-4 -37,-5 -51,-2 -14,4 -24,8 -30,12 -8,27 -16,55 -26,85 -9,31 -19,61 -28,93 -10,31 -19,62 -28,93 -10,30 -18,59 -25,85 -8,25 -14,48 -20,68 -5,18 -9,32 -11,42zm472 107c-2,-7 -2,-14 -1,-23 6,-37 13,-74 19,-110 7,-36 13,-70 19,-102 6,-32 12,-62 17,-89l8 -44 1 -1 4 1c-4,19 -8,43 -13,70 -5,27 -11,56 -17,88 -6,32 -12,66 -19,102 -6,35 -12,71 -18,108zm223 77c-3,-9 -3,-19 1,-29 3,-7 7,-13 11,-19 5,-6 10,-12 16,-20 11,-14 24,-30 41,-49 16,-20 34,-40 53,-63 19,-23 39,-46 60,-70 21,-24 41,-47 61,-69 19,-23 38,-44 56,-63 17,-19 33,-36 45,-50 9,-1 21,-1 37,1 16,2 31,6 46,11 20,8 37,18 51,30 14,13 20,26 20,41l-1 17c-2,-11 -8,-22 -19,-32 -14,-12 -31,-22 -51,-30 -15,-6 -30,-10 -46,-11 -16,-2 -28,-2 -37,-1 -12,14 -28,30 -45,50 -18,19 -37,40 -56,62 -20,23 -40,46 -61,70 -21,24 -41,47 -60,70 -19,22 -37,43 -53,62 -17,20 -30,36 -41,50 -6,7 -11,14 -16,20 -4,5 -8,12 -11,18l-1 4zm356 132c-1,-7 -1,-14 0,-23l6 -69 2 1 -8 91zm-111 -263l131 51 15 -217 2 0 -17 243 -147 -58 16 -19zm339 392l-1 -1c-4,-12 -1,-26 9,-44l227 -394c6,-10 13,-16 21,-18 8,-3 18,-3 29,0 20,4 42,11 67,22 24,10 48,23 72,37 69,39 113,83 131,132 8,23 12,46 10,69 -1,-15 -5,-29 -10,-43 -18,-49 -62,-93 -131,-133 -24,-14 -48,-26 -72,-37 -25,-10 -47,-18 -67,-22 -11,-2 -21,-2 -29,0 -8,3 -15,9 -21,19l-227 394c-4,7 -7,13 -8,19zm363 -6c5,34 9,66 14,98 6,39 9,69 11,90l-2 2c-2,-18 -5,-40 -9,-67 -6,-39 -12,-80 -17,-123l3 0zm-72 -148c30,17 57,24 83,22 26,-3 46,-18 61,-44 7,-12 11,-23 13,-34 3,19 -1,39 -13,59 -15,27 -35,42 -61,44 -26,3 -53,-4 -83,-21l-65 -37 11 -20 54 31zm814 266c-1,5 -3,12 -6,20l0 1 -305 -240c-11,-8 -21,-11 -32,-9 -11,1 -22,9 -32,22 -6,8 -11,15 -13,23l-6 -4c1,-7 3,-14 6,-21 2,-8 7,-16 13,-24 10,-13 21,-20 32,-22 11,-2 21,1 32,10l311 244zm-538 274c0,-2 -1,-4 -1,-6 -3,-13 2,-27 14,-43l238 -302 13 9 -251 319c-6,8 -10,16 -13,23zm316 275c-2,-5 -3,-9 -3,-13 1,-13 8,-26 23,-39l379 -328c4,3 10,8 19,14 8,7 16,14 22,22 14,17 22,31 23,44 0,5 -1,10 -3,14 -3,-10 -10,-20 -20,-32 -6,-8 -14,-15 -22,-22 -9,-7 -15,-12 -19,-14l-379 328c-10,9 -17,18 -20,26zm318 -128l135 156 172 -148c4,3 10,8 18,15 8,6 16,14 23,21 14,17 21,32 22,45 0,4 -1,9 -2,13 -4,-10 -10,-20 -20,-32 -7,-8 -15,-15 -23,-22 -8,-6 -14,-11 -18,-14l-172 148 -148 -171 13 -11zm-93 389c-1,-5 -2,-10 -2,-14 0,-13 8,-26 23,-39l123 -107 13 15 -136 118c-11,9 -17,18 -21,27zm148 204c-2,-5 -2,-11 -2,-16 1,-14 7,-25 20,-33 6,-4 13,-7 20,-9 7,-2 15,-4 24,-6 17,-5 38,-11 62,-17 25,-6 51,-13 80,-20 29,-7 59,-14 90,-21 31,-7 61,-14 90,-21 29,-7 56,-13 82,-18 25,-5 47,-10 66,-14 8,5 17,12 29,23 12,10 22,22 31,36 11,17 19,35 23,54 2,10 3,20 1,28l-1 -3c-4,-18 -12,-36 -23,-54 -9,-13 -19,-25 -31,-36 -12,-10 -21,-18 -29,-22 -19,4 -41,8 -66,14 -26,5 -53,11 -82,18 -29,7 -59,13 -90,20 -31,7 -61,15 -90,22 -29,7 -55,14 -80,20 -24,6 -45,11 -62,16 -9,3 -17,5 -24,7 -7,2 -14,5 -20,9 -9,6 -16,14 -18,23zm207 325c-2,-6 -3,-12 -2,-18 2,-11 8,-23 19,-36l52 -61 10 15 -62 72c-8,10 -14,19 -17,28zm73 -306l71 110 134 -160 19 -5 3 4 -156 187 -85 -133 14 -3zm40 539c-2,-10 -2,-18 0,-25 3,-12 14,-22 33,-30l457 -207c3,4 7,11 13,19 6,9 12,18 16,28 9,20 12,36 9,48l-1 2c-1,-7 -4,-16 -8,-25 -4,-9 -10,-18 -16,-27 -6,-9 -10,-15 -13,-19l-457 206c-18,9 -29,18 -33,30zm358 -47l274 89c11,24 15,44 11,60 -1,-10 -5,-22 -11,-34l-308 -100 34 -15zm-228 340c-1,-9 -1,-18 1,-28 3,-14 8,-30 15,-45l92 -213 14 -6 -106 245c-7,15 -12,30 -15,45l-1 2z"/>
  <path class="fil3" d="M4788 1872c1610,0 2915,1306 2915,2916 0,1610 -1305,2915 -2915,2915 -1610,0 -2916,-1305 -2916,-2915 0,-1610 1306,-2916 2916,-2916z"/>
  <path class="fil6" d="M3777 1834c7,17 8,32 4,47 -4,15 -13,30 -27,43 23,-1 43,3 59,13 15,10 27,24 34,42 13,34 10,64 -8,90 -18,26 -51,48 -98,66 -7,3 -14,6 -22,8 -8,3 -16,5 -24,7 -8,3 -17,4 -25,6 -9,1 -17,2 -24,3 -20,0 -32,-7 -38,-22l-102 -263c-2,-7 -2,-13 0,-17 2,-5 6,-10 11,-15 11,-9 24,-17 40,-25 15,-7 32,-15 49,-21 44,-17 80,-23 109,-17 30,6 50,24 62,55zm-2 170c-6,-14 -15,-24 -29,-28 -13,-4 -29,-3 -49,5l-62 24 34 90c8,-1 16,-3 26,-6 10,-3 19,-6 29,-10 21,-8 37,-19 47,-31 9,-13 10,-27 4,-44zm-160 -50l54 -21c19,-8 32,-17 39,-29 6,-11 7,-24 1,-38 -11,-28 -38,-34 -82,-17 -8,3 -17,7 -25,11 -7,4 -14,7 -19,11l32 83z"/>
  <path id="1" class="fil6" d="M4022 2028c-3,2 -8,4 -14,6 -6,3 -12,5 -19,6 -15,4 -25,3 -32,-1 -7,-3 -12,-12 -15,-24l-71 -310c3,-2 7,-4 14,-6 6,-3 12,-5 19,-6 13,-3 24,-3 31,0 7,4 13,12 16,25l25 110 140 -32 -32 -140c3,-1 8,-3 14,-6 6,-3 12,-5 19,-6 13,-3 24,-3 31,1 8,3 13,12 16,25l71 309c-3,2 -8,4 -14,7 -6,2 -12,4 -19,6 -14,3 -25,3 -32,-1 -7,-4 -12,-12 -15,-25l-25 -111 -141 32 33 141z"/>
  <path id="2" class="fil6" d="M4505 1856l-128 17c-3,15 -5,30 -8,46 -3,16 -5,29 -7,39 -3,2 -7,4 -11,6 -5,1 -10,3 -16,4 -13,1 -24,0 -32,-4 -7,-4 -12,-11 -13,-21 -1,-4 -1,-9 0,-13 1,-5 2,-10 3,-16 1,-11 4,-24 7,-40 3,-16 6,-33 10,-51 3,-19 7,-38 12,-58 4,-20 8,-39 12,-57 4,-19 8,-36 12,-52 3,-16 7,-30 9,-42 5,-3 12,-7 21,-11 10,-4 19,-6 29,-8 14,-2 26,-1 38,1 11,3 19,8 23,17 11,20 22,43 35,68 13,26 26,53 39,81 13,28 26,55 38,81 13,27 24,51 34,72 -4,5 -8,9 -15,13 -6,3 -14,6 -23,7 -13,2 -23,1 -29,-3 -6,-4 -11,-11 -16,-21l-24 -55zm-92 -196c-2,10 -4,21 -7,34 -2,12 -4,25 -7,38 -3,14 -6,27 -8,41 -3,14 -6,27 -8,40l99 -13 -66 -140 -3 0z"/>
  <path id="3" class="fil6" d="M4771 1874c22,-1 38,-5 48,-14 10,-9 15,-20 15,-33 -1,-12 -5,-22 -13,-28 -8,-7 -21,-13 -37,-17l-38 -11c-14,-4 -28,-9 -40,-14 -12,-6 -22,-12 -31,-20 -9,-7 -15,-16 -20,-27 -5,-10 -8,-23 -8,-37 -1,-31 10,-56 33,-75 23,-19 54,-29 95,-30 16,-1 31,0 45,2 13,2 25,5 35,9 10,5 18,10 24,16 6,6 9,14 9,22 0,7 -1,14 -5,20 -3,5 -8,10 -13,14 -9,-7 -22,-12 -37,-16 -15,-5 -32,-6 -50,-6 -20,1 -35,5 -45,12 -10,7 -15,17 -15,29 1,10 4,18 12,23 7,5 18,10 34,15l33 9c33,9 60,22 79,39 19,16 28,40 29,69 1,16 -2,30 -8,44 -5,13 -14,24 -25,34 -12,10 -26,17 -43,23 -18,6 -38,9 -60,10 -17,0 -34,-1 -49,-3 -14,-3 -27,-7 -38,-12 -11,-5 -20,-11 -26,-17 -6,-7 -9,-15 -9,-24 -1,-8 2,-16 7,-22 5,-7 11,-12 17,-15 10,8 23,15 39,22 16,7 35,10 56,9z"/>
  <path id="4" class="fil6" d="M5054 1938c-3,1 -8,1 -15,1 -6,1 -13,0 -20,-1 -15,-2 -24,-6 -30,-12 -5,-6 -6,-15 -5,-28l43 -315c3,-1 8,-1 15,-1 7,-1 13,0 20,1 13,2 23,5 29,11 6,6 8,16 6,29l-15 112 142 20 20 -143c3,0 8,-1 15,-1 6,0 13,0 19,1 14,2 24,6 30,12 5,6 7,15 6,29l-43 315c-3,0 -8,0 -15,1 -6,0 -13,0 -20,-1 -15,-2 -25,-6 -30,-13 -5,-6 -7,-15 -5,-28l15 -113 -142 -19 -20 143z"/>
  <path id="5" class="fil6" d="M5396 1996c-14,-3 -23,-8 -28,-14 -5,-7 -6,-17 -3,-29l71 -310c4,0 9,0 16,0 6,1 13,2 19,3 14,3 23,8 28,14 5,7 7,16 4,29l-72 311c-3,0 -8,-1 -15,-1 -6,0 -13,-1 -20,-3z"/>
  <path id="6" class="fil6" d="M5554 2031c-13,-5 -22,-10 -26,-17 -3,-7 -3,-16 1,-27l97 -291c6,-4 13,-6 22,-7 9,0 18,2 27,5 11,4 21,9 28,16 8,7 13,18 16,32l31 168c3,15 6,31 8,47 2,17 3,31 5,45l2 0c5,-22 11,-43 17,-64 7,-20 13,-40 20,-60l41 -124c3,0 8,1 14,2 7,1 13,3 19,5 13,4 22,10 26,17 4,7 4,16 0,28l-98 294c-6,3 -12,4 -21,4 -8,0 -17,-2 -27,-6 -11,-3 -20,-9 -28,-15 -8,-7 -13,-18 -16,-32l-31 -168c-3,-15 -6,-31 -8,-47 -1,-17 -3,-32 -4,-45l-4 -1c-4,21 -10,42 -17,63 -6,21 -13,41 -19,60l-41 124c-4,0 -8,-1 -14,-1 -7,-1 -13,-3 -20,-5z"/>
  <path id="7" class="fil6" d="M5918 2164c-13,-6 -22,-13 -25,-20 -3,-8 -2,-17 3,-29l133 -289c4,1 9,2 15,4 6,2 13,4 19,7 12,5 20,12 24,19 4,7 3,17 -3,29l-133 289c-3,0 -8,-2 -14,-3 -7,-2 -13,-4 -19,-7z"/>
  <path class="fil18" d="M1446 6933c-18,11 -37,15 -55,13 -19,-1 -38,-9 -57,-24 6,28 4,52 -4,73 -9,21 -23,37 -44,49 -39,23 -75,25 -110,8 -35,-17 -68,-52 -98,-105 -5,-7 -9,-16 -14,-25 -5,-9 -9,-18 -13,-27 -4,-10 -8,-19 -11,-29 -4,-10 -7,-20 -9,-29 -4,-23 2,-40 19,-50l296 -172c8,-4 15,-6 21,-4 7,2 13,5 20,11 12,11 25,26 37,43 12,17 24,35 36,55 28,49 42,91 41,128 -2,36 -20,65 -55,85zm-204 30c16,-10 26,-23 28,-40 3,-17 -2,-36 -15,-58l-41 -71 -101 59c2,9 6,19 12,30 5,11 11,22 17,33 14,24 30,41 46,50 17,9 35,8 54,-3zm29 -202l36 61c13,22 26,35 42,41 15,5 30,4 46,-6 32,-18 33,-52 5,-101 -6,-10 -12,-20 -18,-28 -6,-9 -12,-16 -17,-22l-94 55zm82 585c-3,-2 -8,-6 -14,-11 -6,-5 -12,-12 -17,-18 -11,-14 -16,-26 -16,-36 1,-10 7,-19 19,-29l275 -219c7,-5 14,-8 21,-7 6,1 13,4 21,8 13,9 27,20 41,35 14,15 28,30 41,47 39,48 58,92 57,132 -1,40 -19,74 -54,102 -23,18 -48,28 -74,30 -27,1 -53,-5 -79,-19 -8,33 -16,64 -23,94 -7,29 -13,52 -17,68 -12,5 -24,5 -35,2 -11,-3 -20,-9 -27,-17 -9,-12 -13,-23 -13,-33 0,-10 3,-21 7,-34l43 -136 -40 -51 -116 92zm206 -92c17,21 35,34 54,39 19,5 38,1 57,-14 36,-30 35,-69 -4,-118 -6,-8 -12,-14 -18,-20 -6,-7 -12,-12 -17,-18l-107 86 35 45zm510 562c-25,26 -51,46 -78,59 -27,12 -54,19 -81,20 -27,0 -53,-5 -78,-16 -26,-11 -49,-27 -71,-48 -22,-21 -39,-44 -52,-69 -12,-25 -18,-51 -19,-78 0,-27 5,-54 17,-82 11,-27 30,-54 55,-81 25,-26 51,-45 78,-58 28,-12 55,-19 82,-19 26,0 53,5 78,16 25,11 49,27 70,47 22,21 39,44 51,69 12,24 18,50 19,77 1,27 -5,54 -16,82 -11,28 -29,55 -55,81zm-67 -64c34,-36 52,-70 53,-103 2,-34 -10,-63 -36,-88 -26,-25 -56,-36 -89,-33 -33,4 -66,23 -100,58 -34,36 -52,70 -54,103 -2,33 10,62 37,87 26,26 56,37 89,33 33,-3 66,-22 100,-57zm108 385c-14,-10 -22,-19 -24,-29 -3,-9 1,-19 9,-32l217 -303c8,-3 17,-3 28,0 10,3 20,8 30,15 12,8 21,18 27,29 6,11 9,25 7,43l-23 206c-2,19 -5,38 -8,58 -4,20 -7,37 -11,53l3 1c14,-23 28,-46 43,-68 14,-21 29,-42 44,-63l92 -129c3,1 9,4 16,7 7,4 13,8 20,13 14,10 22,19 24,29 2,9 -1,20 -9,32l-220 308c-7,1 -15,0 -25,-3 -9,-4 -19,-9 -30,-17 -11,-8 -20,-17 -27,-28 -6,-10 -9,-25 -7,-42l23 -207c2,-18 5,-38 9,-58 3,-20 7,-38 10,-54l-4 -1c-13,22 -27,44 -42,67 -15,22 -30,43 -44,63l-92 129c-4,-1 -9,-3 -16,-7 -7,-3 -14,-7 -20,-12zm445 300c-2,-7 -3,-16 -3,-24 1,-9 4,-18 9,-26 5,-8 11,-15 19,-20 9,-6 18,-11 27,-15l296 -119 -176 -102c0,-5 0,-11 2,-17 1,-6 3,-13 7,-20 7,-11 14,-18 23,-21 8,-2 17,-1 26,4l232 134c7,19 5,36 -4,53 -5,8 -11,15 -19,20 -7,5 -16,10 -26,14l-296 120 184 106c0,5 -1,11 -2,17 -1,6 -3,13 -7,20 -7,11 -14,18 -22,21 -8,2 -17,1 -26,-4l-244 -141zm500 260c-14,-6 -24,-14 -28,-26 -5,-11 -5,-24 1,-37l122 -306c6,-14 14,-23 25,-28 12,-5 24,-5 38,1l215 86c1,5 1,10 1,16 -1,7 -2,13 -5,20 -5,11 -11,19 -18,23 -8,4 -16,4 -26,1l-157 -63 -37 92 159 63c1,5 1,10 1,16 -1,6 -2,13 -5,20 -9,23 -24,31 -44,23l-138 -55 -40 101 181 72c0,4 1,10 0,16 0,7 -2,14 -5,21 -9,23 -24,31 -43,23l-197 -79zm1094 -67c-2,9 -6,17 -12,22 -6,6 -13,10 -20,13 -10,-10 -23,-20 -36,-29 -13,-9 -31,-16 -53,-20 -39,-7 -72,0 -100,21 -28,21 -46,55 -55,103 -9,49 -4,87 16,116 19,29 49,47 89,54 22,4 40,5 57,2 16,-3 31,-7 44,-13 6,6 10,12 13,20 3,8 4,16 2,26 -2,7 -5,14 -10,20 -6,5 -13,10 -24,13 -10,4 -24,7 -42,9 -17,1 -39,0 -63,-5 -31,-5 -58,-15 -82,-29 -25,-13 -45,-31 -61,-53 -16,-22 -27,-47 -33,-77 -6,-29 -5,-63 2,-100 6,-36 18,-66 34,-92 16,-25 35,-45 58,-60 22,-15 47,-25 74,-30 27,-5 55,-5 84,0 20,4 37,9 53,15 15,7 28,14 38,22 11,8 18,17 23,26 4,9 6,17 4,26zm544 209c-3,36 -10,68 -23,95 -13,27 -30,50 -50,67 -20,17 -44,30 -71,37 -26,8 -55,11 -85,8 -30,-2 -58,-9 -84,-20 -25,-12 -46,-28 -64,-48 -17,-20 -30,-45 -39,-74 -8,-28 -11,-61 -8,-97 2,-37 10,-68 23,-95 13,-27 30,-49 51,-66 20,-18 44,-30 70,-38 27,-7 55,-10 85,-8 30,2 57,9 82,21 25,11 47,27 64,48 18,20 31,44 40,73 9,28 12,61 9,97zm-93 -7c4,-48 -4,-86 -24,-113 -19,-27 -48,-42 -84,-45 -36,-3 -65,8 -89,31 -23,24 -37,60 -41,109 -4,49 4,87 24,113 19,27 47,42 84,45 36,2 66,-8 89,-31 24,-24 38,-60 41,-109zm328 215c-17,2 -29,-1 -37,-6 -7,-6 -11,-16 -13,-31l-28 -372c5,-7 12,-13 22,-18 9,-4 20,-7 32,-8 15,-1 28,1 40,5 12,4 22,14 32,28l115 174c10,16 21,32 31,50 10,17 18,33 26,47l3 -1c-5,-27 -8,-54 -11,-79 -2,-26 -5,-52 -7,-77l-12 -158c4,-1 10,-3 17,-5 8,-1 15,-3 23,-3 18,-2 30,1 38,6 7,6 12,16 13,31l29 377c-5,6 -12,10 -21,14 -10,4 -21,6 -34,7 -14,1 -27,-1 -39,-5 -11,-4 -22,-13 -32,-28l-115 -173c-10,-16 -20,-32 -30,-50 -10,-18 -19,-34 -27,-48l-4 1c4,25 8,52 11,78 2,27 5,53 6,77l12 159c-3,1 -9,3 -16,4 -7,2 -15,4 -24,4zm735 -539c3,3 6,7 10,13 3,6 6,12 7,20 3,12 2,22 -2,29 -4,8 -11,13 -21,15l-94 22 78 341c-3,2 -8,5 -16,8 -7,3 -15,5 -23,7 -17,4 -30,4 -39,-1 -9,-4 -15,-14 -19,-29l-70 -305 -115 26c-3,-3 -6,-8 -10,-13 -3,-6 -6,-12 -7,-19 -3,-13 -2,-23 2,-31 4,-7 11,-12 21,-14l298 -69zm374 336c-4,2 -9,5 -16,9 -7,4 -15,7 -23,10 -17,5 -30,6 -39,2 -9,-4 -16,-13 -20,-28l-110 -334c-3,-8 -3,-15 0,-21 3,-6 8,-12 15,-17 13,-10 28,-19 47,-27 19,-8 38,-16 59,-22 58,-20 106,-22 143,-7 38,14 63,43 77,85 9,28 10,55 2,80 -8,26 -23,48 -45,68 28,19 55,36 80,53 26,17 45,31 58,41 0,12 -3,23 -10,33 -7,9 -15,16 -26,19 -14,5 -25,5 -35,1 -9,-4 -19,-10 -29,-18l-113 -88 -61 21 46 140zm-16 -226c26,-8 44,-20 56,-36 11,-17 14,-36 6,-58 -15,-45 -52,-58 -112,-38 -9,3 -17,6 -25,10 -8,3 -15,7 -22,10l43 130 54 -18zm480 51c-16,7 -29,9 -39,6 -9,-3 -17,-11 -23,-25l-160 -353c4,-3 9,-6 15,-11 7,-4 14,-8 21,-11 15,-7 28,-10 38,-7 9,2 18,10 24,25l160 353c-4,3 -8,6 -15,11 -6,4 -13,8 -21,12zm363 -557c10,18 15,36 13,55 -2,19 -10,38 -24,57 28,-6 52,-5 73,4 20,9 37,23 49,44 22,39 25,75 8,110 -17,35 -52,67 -105,98 -8,5 -16,9 -25,14 -9,4 -18,9 -28,13 -9,4 -19,8 -29,11 -10,4 -19,6 -28,8 -23,5 -40,-1 -50,-18l-172 -296c-5,-8 -6,-15 -4,-21 1,-7 5,-13 11,-20 11,-12 25,-25 42,-37 17,-13 36,-25 56,-36 48,-28 91,-42 127,-41 37,1 65,20 86,55zm29 204c-9,-16 -22,-26 -39,-28 -17,-3 -37,2 -58,15l-71 41 59 101c9,-2 19,-6 30,-12 11,-5 22,-11 32,-17 25,-14 42,-30 50,-47 9,-16 8,-34 -3,-53zm-202 -30l62 -35c21,-13 35,-27 41,-42 5,-15 3,-30 -6,-46 -18,-32 -52,-34 -102,-5 -10,6 -19,12 -28,18 -8,6 -15,12 -21,17l54 93zm660 -124c-22,17 -44,30 -66,37 -22,8 -43,11 -64,9 -21,-1 -40,-8 -59,-18 -19,-11 -35,-26 -51,-45l-170 -214c2,-3 6,-8 11,-14 6,-6 12,-12 18,-17 13,-10 25,-16 34,-16 10,0 20,7 30,19l146 183c18,23 38,35 61,37 22,3 44,-4 63,-20 20,-16 31,-35 34,-57 3,-23 -4,-45 -23,-68l-168 -212c3,-3 7,-8 12,-14 6,-6 11,-11 17,-16 14,-11 25,-16 35,-16 10,-1 20,6 30,19l148 185c15,19 26,39 32,59 6,21 8,42 5,62 -4,21 -11,41 -24,61 -12,20 -29,38 -51,56zm202 -778c5,1 10,3 16,6 6,2 12,6 17,12 9,8 14,17 15,26 0,8 -3,17 -10,24l-67 70 253 242c-2,3 -5,8 -10,15 -4,7 -9,13 -15,19 -12,13 -23,20 -33,21 -10,1 -21,-4 -32,-15l-226 -217 -81 85c-5,-1 -10,-3 -16,-5 -6,-3 -11,-7 -17,-12 -9,-9 -14,-18 -15,-27 0,-8 3,-16 10,-24l211 -220zm507 -288c29,22 51,46 67,72 15,26 25,52 28,78 3,27 1,53 -8,80 -8,26 -22,52 -40,76 -19,24 -40,43 -64,58 -23,15 -48,24 -75,27 -26,3 -54,1 -83,-8 -28,-9 -57,-24 -86,-47 -29,-22 -51,-46 -66,-72 -15,-25 -24,-52 -28,-78 -3,-27 0,-54 8,-80 8,-26 22,-51 40,-75 18,-23 39,-42 63,-57 23,-15 48,-24 75,-27 27,-4 54,-1 83,7 29,8 57,24 86,46zm-57 74c-38,-30 -74,-44 -108,-43 -33,2 -61,17 -83,46 -22,28 -30,59 -23,91 6,33 29,64 68,94 38,30 74,45 107,43 33,-1 61,-17 83,-45 23,-29 31,-60 24,-92 -7,-33 -29,-64 -68,-94zm380 -194c-1,4 -3,9 -6,17 -2,7 -6,15 -10,22 -9,16 -18,25 -27,28 -10,3 -21,1 -34,-7l-305 -176c-7,-4 -12,-10 -14,-16 -1,-7 -1,-14 0,-23 3,-15 9,-32 17,-51 9,-19 18,-37 29,-56 31,-53 65,-87 102,-101 38,-14 76,-10 115,13 25,15 44,34 55,58 11,24 15,51 11,80 33,-4 65,-8 95,-13 31,-4 54,-7 71,-8 8,9 13,19 14,31 1,11 -1,22 -6,32 -8,12 -16,20 -25,24 -10,3 -21,5 -35,6l-142 9 -33 57 128 74zm-161 -159c13,-23 19,-44 17,-64 -3,-20 -14,-35 -34,-47 -41,-24 -78,-8 -109,46 -5,8 -9,16 -12,24 -4,8 -7,16 -10,22l119 69 29 -50z"/>
  <path class="fil3" d="M8524 4788c0,2087 -1692,3779 -3779,3779 -2087,0 -3779,-1692 -3779,-3779"/>
  <path class="fil19" d="M1447 6910c-19,11 -37,15 -56,13 -19,-1 -38,-9 -57,-24 6,28 5,52 -4,73 -8,21 -23,37 -44,49 -38,23 -75,25 -110,8 -34,-17 -67,-52 -98,-105 -4,-7 -9,-16 -14,-25 -4,-8 -9,-18 -13,-27 -4,-10 -8,-19 -11,-29 -3,-10 -6,-20 -8,-29 -5,-23 1,-39 19,-50l296 -172c7,-4 14,-6 21,-4 6,2 13,6 19,11 13,12 25,26 38,43 12,17 24,35 35,55 29,49 42,92 41,128 -1,36 -19,65 -54,85zm-204 30c16,-10 25,-23 28,-40 2,-17 -3,-36 -15,-58l-42 -71 -101 59c3,9 7,19 12,30 5,11 11,22 17,33 15,24 30,41 47,50 17,9 35,8 54,-3zm29 -202l35 61c13,22 27,36 42,41 15,6 31,4 46,-5 32,-19 34,-53 5,-102 -6,-10 -12,-20 -18,-28 -6,-9 -11,-16 -16,-22l-94 55zm82 585c-3,-3 -8,-7 -13,-12 -6,-5 -12,-11 -17,-18 -11,-14 -17,-26 -16,-36 1,-9 7,-19 19,-29l276 -217c7,-6 14,-8 21,-7 6,1 13,3 21,8 13,9 27,20 41,35 14,15 28,31 41,47 38,49 57,93 56,133 -1,40 -19,74 -54,101 -23,19 -48,28 -75,30 -26,1 -53,-5 -79,-19 -8,32 -15,63 -23,93 -7,30 -13,53 -18,68 -12,5 -23,6 -34,2 -11,-3 -20,-9 -27,-17 -9,-12 -13,-23 -13,-33 0,-10 3,-21 7,-34l44 -135 -41 -52 -116 92zm207 -92c17,21 35,34 54,40 19,5 38,1 56,-14 38,-29 37,-69 -2,-118 -6,-8 -12,-14 -18,-21 -6,-6 -12,-12 -17,-17l-108 85 35 45zm509 562c-25,26 -51,46 -78,59 -27,12 -54,19 -81,20 -27,0 -53,-5 -78,-16 -26,-11 -50,-28 -72,-48 -21,-21 -38,-44 -51,-69 -12,-25 -18,-51 -19,-78 -1,-27 5,-54 17,-82 11,-27 30,-54 55,-81 25,-26 51,-45 78,-58 27,-12 54,-19 81,-19 27,-1 53,5 79,16 25,11 48,27 70,47 22,21 38,44 51,69 12,24 18,50 19,77 1,27 -5,54 -16,82 -11,28 -30,55 -55,81zm-67 -64c34,-36 51,-70 53,-103 2,-34 -10,-63 -36,-88 -26,-25 -56,-36 -89,-33 -33,4 -67,23 -100,58 -34,36 -52,70 -54,103 -2,33 10,62 36,87 27,26 56,37 89,33 34,-3 67,-22 101,-57zm108 385c-14,-10 -23,-19 -25,-29 -2,-9 2,-20 10,-32l217 -304c8,-2 17,-2 28,1 10,3 20,8 30,15 12,8 21,18 27,29 6,10 9,25 7,42l-23 207c-2,19 -5,38 -9,58 -3,19 -6,37 -10,53l3 1c14,-24 28,-46 43,-68 14,-21 29,-42 44,-63l92 -129c3,1 9,4 16,7 7,4 13,8 20,12 14,10 22,20 24,29 2,10 -1,21 -9,33l-220 308c-7,1 -15,0 -25,-3 -9,-4 -19,-9 -30,-17 -11,-8 -20,-17 -27,-28 -6,-11 -9,-25 -7,-42l23 -207c2,-18 5,-38 9,-58 3,-20 7,-38 10,-54l-4 -2c-13,23 -27,45 -42,67 -15,23 -30,44 -44,64l-92 129c-4,-1 -9,-3 -16,-7 -7,-3 -14,-7 -20,-12zm445 300c-2,-8 -3,-16 -3,-25 1,-8 4,-17 9,-25 5,-8 11,-15 19,-21 9,-5 18,-10 28,-14l295 -120 -176 -101c0,-5 0,-11 2,-17 1,-6 3,-13 7,-20 7,-11 14,-18 23,-21 8,-3 17,-1 26,4l232 134c7,18 5,36 -4,53 -5,8 -11,14 -19,20 -7,5 -16,10 -26,14l-296 119 184 107c0,5 -1,10 -2,17 -1,6 -3,13 -7,20 -7,11 -14,18 -22,21 -8,2 -17,1 -26,-4l-244 -141zm500 260c-14,-6 -23,-15 -28,-26 -5,-11 -4,-24 1,-38l122 -306c6,-13 14,-23 26,-28 11,-4 23,-4 37,2l215 86c1,4 1,9 1,16 -1,6 -2,13 -5,20 -5,11 -11,19 -18,23 -8,4 -16,4 -25,0l-158 -63 -37 92 159 64c1,4 1,10 1,16 0,6 -2,12 -5,19 -9,24 -24,31 -44,24l-138 -56 -40 101 181 72c1,5 1,10 0,17 0,7 -2,13 -4,20 -10,24 -24,31 -44,23l-197 -78zm1094 -68c-1,9 -5,17 -12,23 -6,5 -13,9 -20,12 -10,-10 -22,-20 -36,-29 -13,-9 -31,-15 -52,-19 -39,-8 -73,-1 -101,20 -28,21 -46,56 -55,103 -9,49 -3,88 16,116 19,29 49,47 90,55 21,4 40,4 56,1 17,-3 31,-7 45,-13 5,6 10,12 13,20 2,8 3,17 1,26 -1,8 -5,14 -10,20 -5,6 -13,10 -24,13 -10,4 -24,7 -42,9 -17,2 -38,0 -63,-4 -31,-6 -58,-16 -82,-29 -24,-14 -45,-32 -60,-54 -16,-21 -27,-47 -33,-77 -6,-29 -6,-62 1,-100 7,-35 18,-66 34,-91 16,-26 35,-46 58,-61 22,-15 47,-25 75,-30 27,-5 55,-5 83,1 20,3 37,8 53,15 15,6 28,13 39,21 10,8 17,17 22,26 4,9 6,18 4,26zm545 209c-3,36 -11,68 -24,95 -13,27 -29,50 -50,67 -20,18 -43,30 -70,38 -27,7 -56,10 -86,7 -30,-2 -58,-9 -83,-20 -26,-12 -47,-28 -64,-48 -18,-20 -31,-45 -39,-74 -9,-28 -12,-61 -9,-97 3,-36 11,-68 24,-95 13,-27 29,-49 50,-66 21,-18 44,-30 71,-38 26,-7 54,-10 84,-8 30,3 57,9 83,21 25,11 46,27 64,48 17,20 31,44 39,73 9,28 12,61 10,97zm-93 -7c3,-48 -5,-86 -24,-113 -20,-27 -48,-42 -84,-45 -36,-2 -66,8 -90,31 -23,24 -37,60 -40,109 -4,49 4,87 23,113 20,27 48,42 84,45 36,3 66,-8 90,-31 23,-24 37,-60 41,-109zm328 215c-17,2 -30,-1 -37,-6 -8,-6 -12,-16 -13,-31l-29 -373c5,-6 12,-12 22,-17 10,-4 21,-7 33,-8 14,-1 27,1 39,5 12,4 23,14 33,28l114 174c11,16 21,32 31,50 10,17 19,33 26,47l3 -1c-4,-27 -8,-54 -10,-79 -3,-26 -5,-52 -7,-77l-12 -158c3,-2 9,-3 16,-5 8,-2 16,-3 24,-3 17,-2 29,1 37,6 8,6 12,16 13,31l29 377c-5,6 -12,10 -21,14 -9,3 -21,6 -34,7 -14,1 -26,-1 -38,-5 -12,-4 -23,-13 -33,-28l-114 -173c-11,-16 -21,-32 -31,-50 -10,-18 -19,-34 -27,-48l-4 1c5,25 8,51 11,78 3,27 5,53 7,77l12 159c-4,1 -9,2 -17,4 -7,2 -15,4 -23,4zm734 -539c3,3 6,7 10,13 3,5 6,12 8,19 2,12 2,22 -2,30 -5,8 -12,13 -22,15l-94 22 79 341c-4,2 -9,4 -16,7 -8,4 -16,6 -24,8 -17,4 -30,4 -39,-1 -9,-5 -15,-15 -18,-30l-71 -305 -114 27c-3,-4 -7,-8 -10,-14 -4,-5 -6,-12 -8,-19 -3,-13 -2,-23 2,-30 4,-8 12,-12 22,-15l297 -68zm374 335c-4,3 -9,6 -16,9 -7,4 -14,7 -23,10 -17,6 -29,7 -38,3 -9,-4 -16,-13 -21,-28l-113 -333c-3,-8 -3,-15 0,-21 3,-6 8,-12 15,-17 13,-10 28,-19 47,-27 19,-9 38,-17 58,-23 59,-20 107,-23 144,-9 37,15 63,43 77,85 10,28 11,55 3,80 -8,26 -22,49 -44,68 28,19 55,37 80,53 26,17 45,30 58,40 1,13 -2,24 -9,33 -7,10 -16,16 -26,20 -14,4 -25,5 -35,1 -9,-4 -19,-10 -30,-18l-113 -87 -61 21 47 140zm-17 -225c25,-9 43,-21 55,-37 11,-17 13,-36 6,-59 -15,-44 -53,-56 -112,-36 -9,3 -18,6 -26,10 -7,3 -15,7 -22,10l44 130 55 -18zm481 50c-16,7 -29,9 -38,7 -10,-3 -18,-12 -24,-26l-160 -353c4,-2 9,-6 16,-10 6,-5 13,-9 20,-12 16,-7 28,-9 38,-7 10,2 18,11 25,26l159 353c-3,2 -8,6 -15,10 -6,5 -13,8 -21,12zm363 -557c10,18 15,37 13,55 -2,19 -10,38 -24,57 28,-6 52,-4 73,4 20,9 37,24 49,45 22,38 25,74 8,109 -17,35 -52,68 -105,98 -8,5 -16,9 -25,14 -9,5 -18,9 -27,13 -10,4 -19,8 -29,12 -10,3 -20,6 -29,8 -23,4 -40,-2 -50,-19l-172 -296c-4,-8 -6,-15 -4,-21 2,-7 5,-13 11,-20 11,-12 25,-25 43,-37 17,-12 35,-24 55,-36 49,-28 91,-42 128,-41 36,2 64,20 85,55zm29 204c-9,-16 -22,-26 -39,-28 -17,-3 -36,2 -58,15l-71 41 59 101c9,-2 19,-6 30,-11 11,-6 22,-12 32,-18 25,-14 42,-30 51,-46 9,-17 7,-35 -4,-54zm-201 -29l61 -36c22,-13 35,-26 41,-42 5,-15 4,-30 -6,-46 -18,-32 -52,-33 -101,-5 -10,6 -20,12 -28,18 -9,6 -16,12 -22,17l55 94zm659 -125c-22,17 -44,30 -66,37 -22,8 -43,11 -64,9 -21,-1 -40,-8 -59,-18 -18,-11 -35,-26 -51,-45l-170 -214c2,-3 6,-8 12,-14 5,-6 11,-12 17,-17 13,-10 25,-16 35,-16 9,0 19,7 29,19l146 183c18,23 39,35 61,38 23,2 44,-5 63,-21 20,-16 32,-35 35,-57 3,-23 -5,-45 -23,-68l-169 -212c3,-3 7,-8 12,-14 6,-6 11,-11 18,-16 13,-11 24,-16 34,-16 10,0 20,6 31,19l147 185c15,19 26,39 32,60 7,20 8,41 5,61 -3,21 -11,41 -24,61 -12,20 -29,38 -51,56zm203 -778c4,1 9,3 15,5 6,3 12,7 17,12 9,9 14,18 15,27 0,8 -3,16 -10,24l-67 70 253 242c-2,3 -5,8 -9,15 -5,7 -10,13 -16,19 -12,13 -23,20 -33,21 -10,0 -21,-4 -32,-15l-226 -217 -81 85c-5,-1 -10,-3 -16,-6 -6,-2 -11,-6 -17,-11 -9,-9 -14,-18 -15,-27 0,-8 3,-16 10,-24l212 -220zm504 -288c29,22 52,46 67,72 16,25 26,51 29,78 4,26 1,53 -7,80 -8,26 -22,52 -40,76 -19,24 -40,43 -63,58 -24,15 -49,24 -75,28 -27,3 -54,1 -83,-8 -29,-8 -58,-23 -87,-46 -28,-22 -51,-45 -66,-71 -15,-26 -25,-52 -28,-79 -4,-26 -1,-53 7,-79 8,-27 21,-52 39,-75 19,-24 39,-43 63,-58 23,-15 48,-24 75,-28 26,-3 54,-1 83,7 29,8 57,23 86,45zm-56 74c-39,-29 -75,-43 -108,-41 -34,1 -61,17 -84,46 -21,28 -29,59 -22,91 7,33 30,64 69,94 38,30 74,44 108,42 33,-2 60,-17 82,-46 22,-29 30,-60 23,-92 -7,-33 -29,-64 -68,-94zm381 -195c-1,4 -3,10 -6,17 -2,8 -6,15 -10,23 -9,15 -18,24 -28,27 -9,3 -20,1 -34,-7l-304 -175c-8,-5 -12,-10 -14,-17 -2,-6 -2,-14 0,-22 3,-16 9,-33 17,-51 8,-19 18,-38 29,-56 30,-54 65,-87 102,-101 38,-14 76,-10 114,12 26,15 44,35 55,59 11,24 15,51 12,80 33,-4 65,-9 95,-13 30,-5 54,-7 70,-9 9,10 14,20 15,31 1,12 -1,22 -7,32 -7,13 -15,21 -25,24 -9,3 -21,6 -34,6l-142 10 -33 56 128 74zm-162 -158c14,-23 19,-44 17,-64 -2,-20 -13,-36 -34,-48 -41,-23 -77,-8 -108,47 -5,8 -9,16 -13,24 -3,8 -6,15 -9,22l119 69 28 -50z"/>
  <path class="fil17" d="M1337 6925c0,6 0,11 0,17 -1,-7 -2,-13 -3,-20l3 3zm-306 -114c-4,-23 2,-39 19,-49l296 -173c8,-4 15,-5 21,-4 7,2 13,6 20,12 12,11 25,25 37,42 12,17 24,36 36,55 28,49 42,92 41,128 0,3 -1,5 -1,8 -3,-32 -16,-69 -40,-110 -12,-20 -24,-38 -36,-55 -12,-17 -25,-32 -37,-43 -7,-6 -13,-9 -20,-11 -6,-2 -13,0 -21,4l-296 172c-10,6 -16,14 -19,24zm211 126c15,-9 24,-21 28,-36 1,8 1,15 0,22 -2,17 -12,30 -28,40 -19,11 -37,12 -54,3 -16,-9 -32,-26 -46,-50 -6,-11 -12,-22 -17,-33 -6,-11 -10,-21 -12,-30l7 -4 5 8c5,12 11,22 17,33 14,24 30,41 46,50 17,9 35,8 54,-3zm41 -183l24 42c13,22 26,36 42,41 15,6 30,4 46,-5 13,-8 21,-18 24,-30 4,25 -3,43 -24,55 -16,10 -31,11 -46,6 -16,-6 -29,-19 -42,-41l-36 -61 12 -7zm26 516c-2,-5 -3,-10 -3,-15 1,-9 7,-19 19,-29l275 -219c7,-5 14,-7 21,-7 6,1 13,4 21,9 13,8 27,20 41,34 14,15 28,31 41,47 39,49 58,93 57,133 0,3 0,7 -1,10 -3,-36 -22,-75 -56,-117 -13,-17 -27,-32 -41,-47 -14,-15 -28,-26 -41,-35 -8,-4 -15,-7 -21,-8 -7,-1 -14,2 -21,7l-275 219c-7,6 -13,12 -16,18zm152 191c-1,-4 -2,-8 -2,-11 0,-10 3,-22 7,-35l37 -117 6 7 -43 136c-3,7 -4,14 -5,20zm98 -233c17,21 35,34 54,39 19,6 38,1 57,-14 13,-11 22,-23 25,-37 5,24 -4,45 -25,63 -19,15 -38,19 -57,14 -19,-5 -37,-18 -54,-39l-35 -45 12 -10 23 29zm132 439c-1,-3 -1,-6 -1,-9 0,-26 5,-54 17,-81 11,-28 30,-55 55,-81 25,-27 51,-46 78,-58 28,-13 55,-19 82,-20 26,0 53,5 78,16 25,11 49,27 70,48 22,20 39,43 51,68 12,25 18,51 19,78 0,5 0,11 0,17 -2,-24 -8,-47 -19,-69 -12,-25 -29,-48 -51,-69 -21,-20 -45,-36 -70,-47 -25,-11 -52,-16 -78,-16 -27,0 -54,7 -82,19 -27,13 -53,32 -78,58 -25,27 -44,54 -55,81 -9,22 -15,44 -16,65zm311 59c32,-33 49,-65 53,-97 1,7 1,13 0,20 -1,33 -19,67 -53,103 -34,35 -67,54 -100,57 -33,4 -63,-7 -89,-33 -27,-25 -39,-54 -37,-87 0,-2 0,-4 1,-6 3,25 15,48 36,68 26,25 56,36 89,33 33,-3 66,-23 100,-58zm86 363c-1,-2 -2,-4 -2,-6 -3,-9 1,-20 9,-32l217 -304c8,-2 17,-2 28,1 10,2 20,7 30,14 12,9 21,18 27,29 6,11 9,25 7,43l0 2c-1,-7 -4,-14 -7,-19 -6,-11 -15,-21 -27,-29 -10,-7 -20,-12 -30,-15 -11,-3 -20,-3 -28,0l-217 303c-3,5 -5,9 -7,13zm280 58c13,-22 27,-42 40,-62 14,-22 29,-43 44,-63l92 -130c3,2 9,4 16,8 7,3 13,7 20,12 14,10 22,20 24,29 2,6 1,12 -2,19 -4,-7 -11,-15 -22,-22 -7,-5 -13,-9 -20,-13 -7,-3 -13,-6 -16,-7l-92 129c-15,21 -30,42 -44,63 -15,22 -29,45 -43,68l-3 -1c2,-9 4,-19 6,-30zm-82 67c-1,-7 -1,-15 0,-23l23 -206c2,-19 5,-38 9,-58l5 -28 1 -2 4 1c-3,16 -7,34 -10,54 -4,20 -7,40 -9,58l-23 204zm268 191c-2,-5 -2,-12 -2,-18 1,-9 4,-17 9,-26 5,-8 11,-15 19,-20 9,-6 18,-10 27,-14l270 -109 26 15 -296 119c-9,4 -18,9 -27,15 -8,5 -14,12 -19,20 -4,6 -6,12 -7,18zm176 -298l-3 -2c0,-5 0,-10 2,-17 1,-6 3,-12 7,-19 7,-12 14,-19 23,-21 8,-3 17,-2 26,4l232 134c5,12 5,23 3,35 -1,-3 -2,-7 -3,-10l-232 -134c-9,-5 -18,-6 -26,-4 -9,3 -16,10 -23,21 -2,5 -4,9 -6,13zm-32 300l158 92c0,4 -1,10 -2,16 0,3 -1,5 -1,7l-181 -104 26 -11zm327 235c-3,-11 -2,-22 3,-34l122 -306c6,-14 14,-23 25,-28 12,-5 24,-4 38,1l215 87c1,4 1,9 1,16 -1,3 -1,6 -2,9l-214 -86c-14,-6 -26,-6 -38,-1 -11,5 -19,14 -25,28l-122 306c-1,2 -2,5 -3,8zm170 -188l150 60c1,4 1,9 1,15 -1,4 -1,7 -2,10l-158 -63 9 -22zm-67 167l172 69c0,5 1,10 0,17 0,3 0,6 -1,9l-180 -72 9 -23zm1021 -17c0,2 -1,4 -1,6 -1,-2 -2,-4 -3,-6 -5,-9 -12,-18 -23,-26 -10,-8 -23,-15 -38,-22 -16,-6 -33,-11 -53,-15 -29,-5 -57,-5 -84,0 -27,5 -52,15 -74,30 -23,15 -42,35 -58,60 -16,26 -28,56 -34,92 -3,15 -5,30 -5,43 -1,-21 0,-44 5,-69 6,-35 18,-66 34,-91 16,-26 35,-46 58,-61 22,-15 47,-25 74,-30 27,-5 55,-5 84,1 20,3 37,8 53,15 15,6 28,13 38,21 11,8 18,17 23,26 4,9 6,18 4,26zm-280 166c2,24 8,44 20,61 19,28 49,46 89,54 22,4 40,4 57,1 16,-3 31,-7 44,-12 6,5 10,11 13,19 3,8 4,17 2,26l-1 3 -1 -3c-3,-8 -7,-14 -13,-20 -13,6 -28,10 -44,13 -17,3 -35,2 -57,-2 -40,-7 -70,-25 -89,-54 -15,-22 -22,-51 -20,-86zm399 49c-1,-12 0,-25 1,-38 2,-36 10,-68 23,-95 13,-27 30,-49 51,-66 20,-18 44,-30 70,-38 27,-7 55,-10 85,-8 30,3 57,10 82,21 25,12 47,28 64,48 18,20 31,45 40,73 8,25 11,54 10,85 -1,-21 -4,-41 -10,-59 -9,-29 -22,-53 -40,-73 -17,-21 -39,-37 -64,-48 -25,-12 -52,-19 -82,-21 -30,-2 -58,1 -85,8 -26,8 -50,20 -70,38 -21,17 -38,39 -51,66 -13,27 -21,58 -23,95 -1,4 -1,8 -1,12zm332 -13l1 -9c0,11 0,23 -1,35 -3,49 -17,85 -41,109 -23,23 -53,33 -89,31 -37,-3 -65,-18 -84,-45 -18,-25 -26,-59 -24,-104 1,33 9,59 24,79 19,26 47,41 84,44 36,3 66,-8 89,-31 24,-24 38,-60 41,-109zm252 -171l-2 -23c5,-7 12,-13 22,-17 9,-5 20,-7 32,-8 15,-1 28,0 40,4 12,5 22,14 32,29l115 173c10,16 21,33 31,50 9,16 17,31 25,45 1,9 2,18 4,27l-3 1c-8,-14 -16,-30 -26,-47 -10,-18 -21,-34 -31,-50l-115 -174c-10,-14 -20,-24 -32,-28 -12,-4 -25,-6 -40,-5 -12,1 -23,4 -32,8 -9,4 -15,9 -20,15zm271 -35l-2 -25c4,-1 10,-3 17,-4 8,-2 15,-3 23,-4 18,-1 30,1 38,7 7,5 12,16 13,31l29 377 -2 2 -27 -354c-1,-15 -6,-25 -13,-31 -8,-5 -20,-8 -38,-6 -8,0 -15,2 -23,3 -6,2 -11,3 -15,4zm-180 124c2,18 5,35 7,54 2,27 5,52 6,76l12 159 -1 1 -11 -134c-1,-24 -4,-50 -6,-77 -3,-26 -7,-53 -11,-78l4 -1zm720 -242c3,3 6,8 10,13 3,6 6,13 7,20 3,10 3,18 0,25 -1,-7 -4,-13 -7,-19 -4,-6 -7,-10 -10,-13l-298 69c-10,2 -17,7 -21,14 -1,2 -2,3 -2,5 -3,-13 -2,-23 2,-30 4,-8 11,-13 21,-15l298 -69zm-95 124l73 317 -5 2 -73 -318 5 -1zm469 212l-7 4 -39 -118 7 -3 39 117zm-207 -338l-1 -3c-3,-8 -3,-15 0,-21 3,-6 8,-11 15,-17 13,-9 28,-18 47,-27 19,-8 38,-15 59,-22 58,-19 106,-22 143,-7 38,14 63,43 77,86 7,19 9,38 7,56 -1,-10 -3,-20 -7,-31 -14,-42 -39,-71 -77,-85 -37,-15 -85,-13 -143,7 -21,6 -40,14 -59,22 -19,8 -34,17 -47,27 -6,5 -11,10 -14,15zm313 146c22,15 43,30 64,44 26,17 45,30 58,40 0,8 -1,16 -4,23 -13,-10 -31,-22 -54,-38 -25,-17 -52,-34 -80,-53 6,-5 11,-10 16,-16zm-122 -33c26,-9 44,-21 56,-37 4,-6 8,-13 9,-21 4,18 0,33 -9,47 -12,16 -30,28 -56,36l-54 18 -43 -130 7 -4 36 108 54 -17zm267 -302l-9 -20c4,-2 9,-6 15,-10 7,-5 14,-9 21,-12 15,-7 28,-9 38,-7 9,2 18,11 24,26l160 352 -9 7 -151 -334c-6,-15 -15,-23 -24,-25 -10,-3 -23,0 -38,7 -7,3 -14,7 -21,11l-6 5zm576 -205c10,18 15,37 13,56l-1 4c-2,-11 -6,-23 -12,-34 -21,-35 -49,-54 -86,-55 -36,-1 -79,13 -127,41 -20,11 -39,23 -56,36 -17,12 -31,25 -42,37 -4,4 -7,8 -9,12 -3,-6 -4,-13 -2,-18 1,-7 5,-13 11,-20 11,-12 25,-25 42,-37 17,-12 36,-24 56,-36 48,-28 91,-42 127,-41 37,2 65,20 86,55zm5 110c21,-3 40,0 57,6 20,9 37,24 49,45 15,26 21,51 18,76 -2,-17 -8,-34 -18,-51 -12,-21 -29,-35 -49,-44 -21,-9 -45,-10 -73,-4 7,-9 13,-19 16,-28zm-133 141l48 82c9,-2 19,-6 30,-11 11,-6 22,-12 32,-18 25,-14 42,-30 50,-46 2,-4 4,-7 5,-11 3,13 1,25 -5,36 -8,17 -25,33 -50,47 -10,6 -21,12 -32,17 -11,6 -21,10 -30,12l-59 -101 11 -7zm-45 -76l62 -36c21,-12 35,-26 41,-41 0,-2 1,-3 1,-5 3,10 2,20 -1,30 -6,15 -20,29 -41,42l-62 35 -54 -93c3,-3 6,-6 10,-9l44 77zm260 -343l-10 -13c2,-3 6,-8 11,-14 6,-6 12,-12 18,-17 13,-10 25,-15 34,-15 10,0 20,6 30,19l146 182c18,23 38,36 61,38 22,2 44,-5 63,-21 19,-15 30,-33 34,-54 1,8 1,15 0,23 -3,22 -14,41 -34,57 -19,16 -41,23 -63,20 -23,-2 -43,-14 -61,-37l-146 -183c-10,-12 -20,-19 -30,-19 -9,0 -21,6 -34,16 -6,5 -12,11 -18,17l-1 1zm207 -164l-11 -13c3,-4 7,-8 12,-15 6,-6 11,-11 17,-16 14,-10 25,-16 35,-16 10,0 20,6 30,19l148 185c15,19 26,39 32,60 6,18 7,35 6,53 -1,-9 -3,-18 -6,-28 -6,-20 -17,-40 -32,-59l-148 -185c-10,-13 -20,-20 -30,-19 -10,0 -21,5 -35,16 -6,5 -11,10 -17,16l-1 2zm395 -396c5,1 10,3 16,6 6,3 12,7 17,12 9,9 14,17 15,26 0,5 -1,10 -3,15 -3,-5 -7,-10 -12,-15 -5,-6 -11,-10 -17,-12 -6,-3 -11,-5 -16,-6l-211 220c-3,3 -5,7 -7,10 -1,-4 -3,-8 -3,-11 0,-9 3,-17 10,-24l211 -221zm-16 150l240 230c-2,4 -5,9 -10,15l0 1 -243 -232 13 -14zm523 -438c29,23 51,47 67,72 15,26 25,52 28,79 1,11 2,23 1,35 0,-3 -1,-6 -1,-10 -3,-26 -13,-52 -28,-78 -16,-26 -38,-50 -67,-72 -29,-22 -57,-38 -86,-46 -29,-8 -56,-11 -83,-7 -27,3 -52,12 -75,27 -24,15 -45,34 -63,57 -18,24 -32,49 -40,75 -5,15 -7,30 -8,45 -2,-24 1,-47 8,-71 8,-26 22,-51 40,-74 18,-24 39,-43 63,-58 23,-14 48,-23 75,-27 27,-3 54,-1 83,7 29,9 57,24 86,46zm-273 159c0,3 1,6 2,10 6,32 29,63 68,94 38,30 74,44 107,42 33,-1 61,-16 83,-45 15,-18 23,-37 25,-57 4,29 -4,57 -25,83 -22,28 -50,44 -83,45 -33,2 -69,-13 -107,-43 -39,-30 -62,-61 -68,-94 -3,-12 -3,-23 -2,-35zm596 -279c-1,4 -3,10 -6,17l-1 4 -121 -69 12 -20 116 68zm-395 -130l-1 -2c-1,-6 -1,-14 0,-23 3,-15 9,-32 17,-51 9,-18 18,-37 29,-56 31,-53 65,-87 102,-101 38,-14 76,-9 115,13 25,15 44,34 55,58 10,23 14,47 12,73 -2,-16 -6,-32 -12,-47 -11,-24 -30,-43 -55,-58 -39,-23 -77,-27 -115,-13 -37,14 -71,48 -102,101 -11,19 -20,37 -29,56 -8,18 -13,34 -16,50zm329 -81c33,-5 65,-9 94,-14 31,-4 54,-7 71,-8 8,9 13,20 14,31 1,7 1,13 -1,19 -2,-9 -7,-17 -13,-24 -17,1 -40,4 -71,8 -30,5 -62,9 -95,13 1,-8 1,-17 1,-25zm-95 53c8,-15 14,-30 16,-43l1 4c2,20 -4,41 -17,64l-29 50 -119 -69 9 -20 110 63 29 -49z"/>
  <path class="fil20" d="M4788 2101c741,0 1413,301 1899,787 486,486 787,1158 787,1900 0,741 -301,1413 -787,1899 -486,486 -1158,787 -1899,787 -742,0 -1414,-301 -1900,-787 -486,-486 -787,-1158 -787,-1899 0,-742 301,-1414 787,-1900 486,-486 1158,-787 1900,-787zm0 41c1461,0 2645,1185 2645,2646 0,1461 -1184,2645 -2645,2645 -1461,0 -2646,-1184 -2646,-2645 0,-1461 1185,-2646 2646,-2646z"/>
  <g id="_491661168">
   <path class="fil21" d="M4816 6420c-245,0 -477,-45 -691,-126l-247 181c208,81 433,126 669,126 418,0 801,-139 1110,-373 -252,122 -539,192 -841,192l0 0zm-494 -1524c-5,78 -66,140 -142,140 -28,0 -45,-14 -45,-42 -2,-25 16,-34 41,-35 63,-6 84,-41 56,-99 -12,-23 -12,-41 13,-54 25,-14 44,-2 55,20 10,22 14,46 22,70l0 0zm174 -6c-3,176 -149,315 -323,302 -25,-3 -38,-18 -38,-40 0,-22 13,-35 38,-37 27,0 53,-3 80,-9 126,-34 188,-155 150,-292 -4,-16 -12,-32 -18,-48 -9,-25 -3,-46 24,-56 28,-12 40,9 46,28 16,50 28,102 41,152l0 0zm153 17c0,214 -146,397 -352,442 -37,8 -77,6 -114,3 -13,-1 -31,-25 -34,-39 -3,-22 15,-33 40,-34 285,-8 450,-245 360,-521 -7,-26 -19,-53 -31,-79 -10,-24 -6,-44 18,-56 25,-12 41,1 51,25 39,82 64,168 62,259l0 0zm-827 -134c-1,-51 8,-71 37,-69 46,3 35,41 38,68 9,115 -64,221 -168,241 -53,12 -100,0 -137,-41 -37,-44 -45,-97 -22,-149 13,-31 37,-60 62,-85 40,-43 43,-52 10,-100 -7,-12 -14,-24 -23,-34 -72,-81 -50,-171 -2,-245 84,-121 263,-145 376,-49 111,95 117,272 13,376 -10,9 -23,21 -36,21 -12,1 -31,-10 -34,-21 -5,-13 1,-34 10,-44 37,-41 62,-86 60,-142 -1,-87 -67,-162 -156,-173 -76,-11 -172,50 -194,123 -11,34 -5,65 16,95 19,26 38,54 54,82 25,47 21,93 -16,134 -16,20 -35,37 -51,56 -28,33 -31,77 -11,102 21,27 64,30 102,7 46,-26 72,-84 72,-153l0 0zm3 -729c192,1 358,116 426,296 68,177 27,368 -119,494 -99,85 -142,191 -157,315 -13,127 -120,224 -241,227 -128,2 -238,-90 -258,-218 -2,-13 -6,-27 -2,-37 8,-13 21,-32 31,-32 15,1 33,14 42,26 7,10 4,28 7,43 18,84 96,146 178,141 89,-4 161,-72 171,-159 5,-37 11,-74 18,-109 19,-97 71,-174 147,-236 76,-62 118,-143 134,-239 33,-197 -114,-402 -313,-430 -136,-19 -251,18 -344,119 -16,18 -34,31 -56,11 -21,-21 -18,-42 0,-62 72,-93 203,-152 336,-150l0 0zm2757 586c44,0 81,-15 109,-44 28,-30 42,-69 42,-118 0,-49 -14,-88 -42,-118 -28,-31 -65,-46 -109,-46 -46,0 -83,15 -111,46 -26,30 -41,69 -41,118 0,49 15,88 41,118 28,29 65,44 111,44zm0 124c-82,0 -149,-27 -204,-80 -54,-53 -81,-120 -81,-206 0,-84 28,-153 83,-206 54,-52 122,-78 202,-78 79,0 147,26 202,79 54,53 81,121 81,205 0,86 -27,153 -81,206 -55,53 -121,80 -202,80l0 0zm-678 -323l2 235c0,53 -26,75 -61,75 -37,0 -62,-22 -62,-75l0 -415c0,-38 23,-60 62,-60 25,0 48,13 69,41l189 277 -5 -240c0,-52 27,-74 62,-74 35,0 63,22 63,74l0 416c0,37 -23,60 -62,60 -26,0 -50,-15 -70,-43l-187 -271 0 0zm-275 -236c39,0 64,22 64,74l0 231c0,80 -21,142 -64,186 -39,44 -95,67 -163,67 -70,0 -124,-23 -165,-67 -42,-44 -62,-106 -62,-186l0 -231c0,-52 25,-74 62,-74 35,0 62,22 62,74l0 229c0,86 39,138 103,138 62,0 101,-52 101,-138l0 -229c0,-52 27,-74 62,-74l0 0zm-588 388c0,-19 -6,-34 -17,-41 -12,-11 -36,-21 -70,-34 -94,-34 -143,-83 -143,-162 0,-52 17,-92 52,-121 35,-30 81,-44 135,-44 86,0 141,33 141,79 0,39 -21,59 -55,59 -10,0 -22,-4 -35,-12 -14,-8 -30,-13 -49,-13 -37,0 -60,19 -60,52 0,23 25,45 73,63 58,21 98,44 121,68 25,23 37,57 37,103 0,55 -19,96 -58,128 -36,33 -85,49 -144,49 -46,0 -84,-9 -115,-27 -31,-19 -47,-38 -47,-61 0,-34 25,-61 62,-61 10,0 25,6 44,16 19,11 40,15 59,15 44,0 69,-24 69,-56l0 0zm1244 640c22,0 40,-11 61,-31l0 -62c-75,9 -100,29 -100,57 0,25 16,36 39,36zm61 -134c0,-30 -14,-55 -50,-55 -28,0 -55,12 -80,27l-24 -43c31,-21 71,-37 115,-37 70,0 104,43 104,121l0 165 -53 0 -5 -30 -3 0c-25,21 -53,37 -85,37 -50,0 -84,-32 -84,-82 0,-59 50,-92 165,-103l0 0zm-295 -101l66 0 0 279 -66 0 0 -279zm-7 -87c0,-22 17,-36 41,-36 22,0 40,14 40,36 0,23 -18,37 -40,37 -24,0 -41,-14 -41,-37zm-194 319c23,0 40,-9 59,-31l0 -130c-19,-18 -38,-23 -56,-23 -36,0 -66,32 -66,91 0,60 24,93 63,93zm-11 -239c32,0 51,12 73,31l-3 -46 0 -101 67 0 0 402 -55 0 -4 -30 -3 0c-21,21 -49,37 -78,37 -71,0 -117,-54 -117,-146 0,-91 59,-147 120,-147l0 0zm-413 7l53 0 4 37 3 0c25,-25 53,-44 92,-44 60,0 87,40 87,111l0 175 -67 0 0 -167c0,-45 -13,-63 -44,-63 -23,0 -40,12 -63,35l0 195 -65 0 0 -279 0 0zm-149 -92l66 0 0 371 -66 0 0 -371zm-1548 1067l-230 750 581 -540c191,83 402,129 624,129 608,0 1135,-346 1396,-852l-178 0c-246,417 -699,697 -1218,697 -783,0 -1415,-634 -1415,-1417 0,-781 632,-1415 1415,-1415 487,0 917,247 1171,622l184 0c-273,-464 -778,-776 -1355,-776 -869,0 -1572,703 -1572,1569 0,500 233,945 597,1233zm-123 31c-384,-315 -627,-778 -627,-1293 0,-951 823,-1720 1837,-1720 75,0 149,4 221,13 -156,-43 -320,-66 -490,-66 -1014,0 -1836,822 -1836,1836 0,647 335,1216 841,1544l54 -314z"/>
   <path class="fil22" d="M4816 6387c-245,0 -477,-45 -691,-126l-247 181c208,82 433,126 669,126 418,0 801,-138 1110,-373 -252,123 -539,192 -841,192l0 0zm-494 -1524c-5,78 -66,140 -142,140 -28,0 -45,-13 -45,-41 -2,-26 16,-34 41,-36 63,-6 84,-41 56,-99 -12,-23 -12,-41 13,-54 25,-13 44,-2 55,21 10,22 14,45 22,69l0 0zm174 -6c-3,177 -149,315 -323,302 -25,-3 -38,-18 -38,-40 0,-22 13,-35 38,-37 27,0 53,-3 80,-8 126,-34 188,-155 150,-292 -4,-16 -12,-33 -18,-49 -9,-25 -3,-46 24,-56 28,-12 40,9 46,28 16,50 28,102 41,152l0 0zm153 18c0,213 -146,396 -352,442 -37,7 -77,6 -114,3 -13,-2 -31,-25 -34,-40 -3,-22 15,-32 40,-34 285,-7 450,-245 360,-520 -7,-27 -19,-53 -31,-80 -10,-23 -6,-44 18,-56 25,-12 41,2 51,25 39,83 64,168 62,260l0 0zm-827 -135c-1,-51 8,-70 37,-69 46,3 35,41 38,68 9,115 -64,221 -168,242 -53,12 -100,0 -137,-42 -37,-44 -45,-97 -22,-148 13,-31 37,-61 62,-86 40,-43 43,-51 10,-100 -7,-12 -14,-24 -23,-34 -72,-81 -50,-171 -2,-245 84,-121 263,-144 376,-48 111,94 117,271 13,376 -10,8 -23,20 -36,20 -12,2 -31,-10 -34,-20 -5,-14 1,-34 10,-45 37,-41 62,-85 60,-141 -1,-87 -67,-162 -156,-174 -76,-10 -172,50 -194,124 -11,34 -5,65 16,94 19,26 38,55 54,83 25,47 21,92 -16,134 -16,19 -35,37 -51,56 -28,32 -31,76 -11,101 21,27 64,30 102,8 46,-27 72,-84 72,-154l0 0zm3 -729c192,1 358,116 426,296 68,177 27,369 -119,494 -99,85 -142,192 -157,315 -13,127 -120,224 -241,227 -128,2 -238,-90 -258,-218 -2,-13 -6,-26 -2,-37 8,-13 21,-32 31,-32 15,1 33,15 42,26 7,11 4,28 7,43 18,84 96,146 178,142 89,-5 161,-73 171,-160 5,-36 11,-73 18,-109 19,-97 71,-174 147,-235 76,-62 118,-143 134,-239 33,-198 -114,-403 -313,-431 -136,-19 -251,18 -344,120 -16,17 -34,31 -56,10 -21,-21 -18,-41 0,-62 72,-93 203,-152 336,-150l0 0zm2757 586c44,0 81,-14 109,-44 28,-29 42,-69 42,-118 0,-48 -14,-88 -42,-118 -28,-31 -65,-45 -109,-45 -46,0 -83,14 -111,45 -26,30 -41,70 -41,118 0,49 15,89 41,118 28,30 65,44 111,44zm0 124c-82,0 -149,-26 -204,-79 -54,-53 -81,-121 -81,-207 0,-84 28,-153 83,-206 54,-52 122,-78 202,-78 79,0 147,26 202,79 54,54 81,121 81,205 0,86 -27,154 -81,207 -55,53 -121,79 -202,79l0 0zm-678 -323l2 235c0,53 -26,75 -61,75 -37,0 -62,-22 -62,-75l0 -414c0,-39 23,-61 62,-61 25,0 48,13 69,42l189 277 -5 -241c0,-51 27,-73 62,-73 35,0 63,22 63,73l0 416c0,37 -23,60 -62,60 -26,0 -50,-14 -70,-42l-187 -272 0 0zm-275 -235c39,0 64,22 64,73l0 232c0,79 -21,141 -64,186 -39,44 -95,66 -163,66 -70,0 -124,-22 -165,-66 -42,-45 -62,-107 -62,-186l0 -232c0,-51 25,-73 62,-73 35,0 62,22 62,73l0 229c0,87 39,138 103,138 62,0 101,-51 101,-138l0 -229c0,-51 27,-73 62,-73l0 0zm-588 387c0,-19 -6,-34 -17,-41 -12,-10 -36,-21 -70,-34 -94,-34 -143,-82 -143,-162 0,-52 17,-91 52,-121 35,-29 81,-44 135,-44 86,0 141,34 141,80 0,38 -21,58 -55,58 -10,0 -22,-4 -35,-11 -14,-9 -30,-14 -49,-14 -37,0 -60,20 -60,52 0,24 25,46 73,63 58,21 98,45 121,68 25,24 37,58 37,103 0,55 -19,96 -58,129 -36,32 -85,48 -144,48 -46,0 -84,-9 -115,-26 -31,-19 -47,-39 -47,-62 0,-34 25,-61 62,-61 10,0 25,6 44,17 19,10 40,14 59,14 44,0 69,-23 69,-56l0 0zm1244 640c22,0 40,-10 61,-31l0 -62c-75,9 -100,30 -100,58 0,25 16,35 39,35zm61 -134c0,-30 -14,-55 -50,-55 -28,0 -55,12 -80,27l-24 -43c31,-20 71,-37 115,-37 70,0 104,43 104,121l0 165 -53 0 -5 -29 -3 0c-25,20 -53,37 -85,37 -50,0 -84,-33 -84,-83 0,-59 50,-91 165,-103l0 0zm-295 -100l66 0 0 278 -66 0 0 -278zm-7 -87c0,-22 17,-37 41,-37 22,0 40,15 40,37 0,22 -18,37 -40,37 -24,0 -41,-15 -41,-37zm-194 318c23,0 40,-9 59,-31l0 -130c-19,-17 -38,-23 -56,-23 -36,0 -66,32 -66,91 0,61 24,93 63,93zm-11 -239c32,0 51,12 73,31l-3 -45 0 -102 67 0 0 402 -55 0 -4 -29 -3 0c-21,20 -49,37 -78,37 -71,0 -117,-55 -117,-146 0,-92 59,-148 120,-148l0 0zm-413 8l53 0 4 37 3 0c25,-26 53,-45 92,-45 60,0 87,40 87,111l0 175 -67 0 0 -166c0,-46 -13,-64 -44,-64 -23,0 -40,12 -63,36l0 194 -65 0 0 -278 0 0zm-149 -93l66 0 0 371 -66 0 0 -371zm-1548 1067l-230 750 581 -540c191,83 402,129 624,129 608,0 1135,-346 1396,-852l-178 0c-246,417 -699,697 -1218,697 -783,0 -1415,-634 -1415,-1416 0,-782 632,-1415 1415,-1415 487,0 917,246 1171,622l184 0c-273,-465 -778,-777 -1355,-777 -869,0 -1572,703 -1572,1570 0,500 233,945 597,1232zm-123 31c-384,-315 -627,-777 -627,-1293 0,-951 823,-1720 1837,-1720 75,0 149,4 221,13 -156,-42 -320,-66 -490,-66 -1014,0 -1836,822 -1836,1837 0,647 335,1216 841,1543l54 -314z"/>
   <path class="fil23" d="M4816 6387c-245,0 -477,-45 -691,-126l-247 181c10,4 20,8 30,12l217 -160c214,81 446,126 691,126l0 0c251,0 493,-48 712,-135 45,-28 88,-58 129,-90 -252,123 -539,192 -841,192l0 0zm-494 -1524c-1,8 -2,15 -3,23 -6,-21 -10,-41 -19,-60 -11,-22 -30,-34 -55,-20 -8,4 -13,9 -17,14 -8,-20 -5,-35 17,-47 25,-13 44,-2 55,21 10,22 14,45 22,69l0 0zm-185 115c-1,-5 -2,-10 -2,-16 -2,-26 16,-34 41,-36 37,-3 59,-17 66,-39 10,42 -13,67 -66,72 -19,1 -33,6 -39,19zm359 -121c0,9 -1,18 -2,27 -12,-49 -24,-98 -39,-146 -6,-19 -18,-40 -46,-28 -13,5 -21,12 -25,21 -7,-24 -1,-44 25,-54 28,-12 40,9 46,28 16,50 28,102 41,152l0 0zm-358 279c-2,-5 -3,-11 -3,-17 0,-22 13,-35 38,-37 27,0 53,-3 80,-8 96,-26 155,-102 161,-197 7,110 -54,201 -161,229 -27,6 -53,9 -80,9 -18,1 -30,8 -35,21zm511 -261l0 11c-2,-84 -26,-162 -62,-238 -10,-24 -26,-37 -51,-25 -10,5 -16,11 -20,18 -8,-21 -2,-40 20,-51 25,-12 41,2 51,25 39,83 64,168 62,260l0 0zm-495 417c-2,-4 -4,-8 -5,-12 -3,-22 15,-32 40,-34 226,-6 376,-156 384,-356 8,216 -146,383 -384,389 -15,1 -28,5 -35,13zm-332 -552c-1,-51 8,-70 37,-69 46,3 35,41 38,68 1,12 1,23 1,35l-1 -2c-3,-27 8,-65 -38,-68 -29,-2 -38,18 -37,69l0 0c0,69 -26,127 -72,153 -38,23 -81,20 -102,-7 -12,-15 -16,-36 -11,-57 2,9 6,17 11,24 21,27 64,30 102,8 46,-27 72,-84 72,-154l0 0zm-264 125c-3,-25 1,-50 12,-74 13,-31 37,-61 62,-86 14,-15 24,-26 29,-36 10,24 0,37 -29,69 -25,25 -49,54 -62,85 -6,14 -10,28 -12,42zm15 -392c-5,-51 15,-102 44,-147 84,-121 263,-144 376,-48 62,53 91,132 87,209 -4,-66 -33,-131 -87,-177 -113,-96 -292,-72 -376,49 -23,35 -40,74 -44,114zm365 184c-1,-1 -2,-2 -2,-3 -5,-14 1,-34 10,-45 32,-36 56,-74 60,-121 0,4 0,8 0,12 2,56 -23,101 -60,142 -3,4 -6,9 -8,15zm-286 -191c3,16 9,31 20,46 19,26 38,55 54,83 14,25 19,50 15,74 -2,-14 -7,-28 -15,-42 -16,-28 -35,-56 -54,-82 -18,-25 -25,-51 -20,-79zm173 -455c192,1 358,116 426,296 23,61 34,123 32,184 -2,-50 -13,-101 -32,-151 -68,-180 -234,-295 -426,-296l0 0c-133,-2 -264,57 -336,150 -4,5 -8,10 -10,15 -9,-16 -4,-32 10,-48 72,-93 203,-152 336,-150l0 0zm-350 1109c-2,-12 -4,-23 -1,-32 8,-13 21,-32 31,-32 15,1 33,15 42,26 7,11 4,28 7,43 18,84 96,146 178,142 89,-5 161,-73 171,-160 5,-36 11,-73 18,-109 19,-97 71,-174 147,-235 76,-62 118,-143 134,-239 3,-13 4,-26 5,-39 1,24 -1,48 -5,71 -16,96 -58,177 -134,239 -76,62 -128,139 -147,236 -7,35 -13,72 -18,109 -10,87 -82,155 -171,159 -82,5 -160,-57 -178,-141 -3,-15 0,-33 -7,-43 -9,-12 -27,-25 -42,-26 -10,0 -22,18 -30,31zm3107 -523c44,0 81,-14 109,-44 24,-26 39,-60 42,-101 0,5 0,10 0,16 0,49 -14,88 -42,118 -28,29 -65,44 -109,44 -46,0 -83,-15 -111,-44 -26,-30 -41,-69 -41,-118 0,-6 0,-11 0,-16 3,41 18,75 41,101 28,30 65,44 111,44zm-285 -145c0,-5 0,-11 0,-17 0,-84 28,-153 83,-206 54,-52 122,-78 202,-78 79,0 147,26 202,79 54,54 81,121 81,205 0,6 0,11 -1,17 -3,-77 -29,-139 -80,-189 -55,-53 -123,-79 -202,-79 -80,0 -148,26 -202,78 -51,49 -79,113 -83,190zm-393 -20l2 201c0,3 0,6 0,9l-2 -211 0 0 0 1zm-121 -181l0 -32c0,-39 23,-61 62,-61 25,0 48,13 69,42l188 276 1 33 -189 -277c-21,-28 -44,-41 -69,-41 -39,0 -62,22 -62,60zm315 7l0 -22c0,-51 27,-73 62,-73 35,0 63,22 63,73l0 33c0,-52 -28,-74 -63,-74 -33,0 -58,19 -62,63zm-469 -95c39,0 64,22 64,73l0 33c0,-52 -25,-74 -64,-74l0 0c-35,0 -62,22 -62,74l0 -33c0,-51 27,-73 62,-73l0 0zm-390 106l0 -33c0,-51 25,-73 62,-73 35,0 62,22 62,73l0 33c0,-52 -27,-74 -62,-74 -37,0 -62,22 -62,74zm124 196c0,87 39,138 103,138 62,0 101,-51 101,-138l0 33c0,86 -39,138 -101,138 -64,0 -103,-52 -103,-138l0 -33zm-551 -137c-1,-5 -1,-10 -1,-15 0,-52 17,-91 52,-121 35,-29 81,-44 135,-44 86,0 141,34 141,80 0,6 -1,12 -2,18 -11,-38 -62,-65 -139,-65 -54,0 -100,14 -135,44 -31,26 -48,60 -51,103zm131 -1c8,18 31,35 70,49 58,21 98,45 121,68 25,24 37,58 37,103 0,6 0,11 -1,16 -2,-37 -14,-66 -36,-86 -23,-24 -63,-47 -121,-68 -48,-18 -73,-40 -73,-63 0,-7 1,-13 3,-19zm-134 324c-1,-5 -2,-10 -2,-15 0,-34 25,-61 62,-61 10,0 25,6 44,17 19,10 40,14 59,14 37,0 61,-16 67,-41 2,6 2,12 2,18l0 0c0,32 -25,56 -69,56 -19,0 -40,-4 -59,-15 -19,-10 -34,-16 -44,-16 -30,0 -53,18 -60,43zm1476 539c22,0 40,-10 61,-31l0 33c-21,20 -39,31 -61,31 -23,0 -39,-11 -39,-36 0,-5 1,-11 3,-16 6,13 19,19 36,19zm-79 -180l-14 -25c31,-20 71,-37 115,-37 70,0 104,43 104,121l0 33c0,-78 -34,-121 -104,-121 -38,0 -72,12 -101,29zm-24 166c-1,-6 -1,-11 -1,-17 0,-58 48,-90 158,-102 5,9 7,20 7,32l0 0c-104,10 -155,38 -164,87zm-131 -220l66 0 0 32 -66 0 0 -32zm-7 -87c0,-22 17,-37 41,-37 22,0 40,15 40,37 0,6 -2,11 -4,16 -6,-13 -20,-20 -36,-20 -17,0 -31,7 -38,20 -2,-5 -3,-10 -3,-16zm-194 318c23,0 40,-9 59,-31l0 33c-19,22 -36,31 -59,31 -39,0 -63,-33 -63,-93 0,-5 0,-11 1,-15 4,49 27,75 62,75zm-11 -239c31,0 50,11 71,29l2 35c-22,-19 -41,-31 -73,-31l0 0c-57,0 -113,50 -119,132 -1,-6 -1,-11 -1,-17 0,-92 59,-148 120,-148l0 0zm70 -83l0 -33 67 0 0 33 -67 0zm-483 91l53 0 4 37 3 0c25,-26 53,-45 92,-45 60,0 87,40 87,111l0 33c0,-71 -27,-111 -87,-111 -39,0 -67,19 -92,44l-3 0 -4 -37 -53 0 0 -32 0 0zm-149 -93l66 0 0 33 -66 0 0 -33zm-1556 1094l-222 723 14 -13 216 -704 -8 -6zm2361 -507c6,-11 12,-22 18,-33l-178 0c-246,417 -699,697 -1218,697 -778,0 -1406,-625 -1415,-1400 0,6 0,11 0,16 0,783 632,1417 1415,1417 519,0 972,-280 1218,-697l160 0zm-43 -1545l20 0c-273,-465 -778,-777 -1355,-777 -869,0 -1572,703 -1572,1570l0 21c7,-862 707,-1558 1572,-1558 563,0 1058,297 1335,744zm-2433 2056c-379,-311 -620,-765 -627,-1272l0 12c0,513 240,974 622,1289l5 -29zm1214 -3013c73,0 146,5 217,13 -156,-42 -320,-66 -490,-66 -1014,0 -1836,822 -1836,1837l0 20c7,-1008 826,-1824 1836,-1824 93,0 184,7 273,20z"/>
  </g>
 </g>
</svg>
