<svg width="26" height="26" viewBox="0 0 26 26" fill="none" xmlns="http://www.w3.org/2000/svg">
<g clip-path="url(#clip0)">
<path d="M14 3C7.37294 3 2 8.40591 2 15.0737C2 21.099 6.38764 26.0932 12.1254 27.0024V18.5645H9.07711V15.0737H12.1254V12.4136C12.1254 9.38519 13.9172 7.71523 16.6571 7.71523C17.97 7.71523 19.3453 7.95069 19.3453 7.95069V10.9199H17.8284C16.3402 10.9199 15.8746 11.8521 15.8746 12.8072V15.0712H19.2001L18.6685 18.5621H15.8746V27C21.6124 26.0956 26 21.1002 26 15.0737C26 8.40591 20.6271 3 14 3Z" fill="#0F2749"/>
</g>
<defs>
<clipPath id="clip0">
<rect width="26" height="26" fill="white"/>
</clipPath>
</defs>
</svg>
