<svg width="32" height="32" viewBox="0 0 32 32" fill="none" xmlns="http://www.w3.org/2000/svg">
    <path fill-rule="evenodd" clip-rule="evenodd" d="M2.84375 8.55469V8.95469V22.7547C2.84375 24.3256 4.11725 25.5991 5.68819 25.5991H21.0956C21.7111 25.5991 22.3099 25.7987 22.8023 26.168L27.7326 29.8658V8.95469V8.55469V6.39913C27.7326 4.82819 26.4591 3.55469 24.8882 3.55469H5.68819C4.11725 3.55469 2.84375 4.82819 2.84375 6.39913V8.55469ZM26.3104 27.0214V8.95469H4.26597V22.7547C4.26597 23.5402 4.90272 24.1769 5.68819 24.1769H21.0956C22.0188 24.1769 22.9171 24.4763 23.6556 25.0302L26.3104 27.0214ZM17.7133 14.7333H19.2013C19.4974 14.727 19.7903 14.7958 20.0526 14.9332C20.315 15.0706 20.5383 15.2722 20.7017 15.5191C20.8493 15.7483 20.9409 16.0091 20.969 16.2802C20.9971 16.5514 20.9609 16.8254 20.8635 17.08L19.7666 20.5484C19.6642 20.8727 19.4612 21.156 19.1869 21.3571C18.9126 21.5581 18.5814 21.6666 18.2413 21.6667H10.668V14.9111H13.7542L15.468 11H15.8235C16.1403 10.9999 16.4532 11.0697 16.7398 11.2045C17.0265 11.3393 17.2798 11.5357 17.4817 11.7798C17.6837 12.0238 17.8292 12.3095 17.908 12.6163C17.9867 12.9231 17.9967 13.2435 17.9373 13.5547L17.7133 14.7333ZM11.7346 20.6H13.1569V15.9778H11.7346V20.6ZM18.7497 20.2267L19.8662 16.7049C19.9049 16.6056 19.9189 16.4985 19.9072 16.3926C19.8954 16.2867 19.8582 16.1852 19.7986 16.0969C19.7309 16.0023 19.6411 15.9258 19.5369 15.8741C19.4328 15.8223 19.3176 15.7969 19.2013 15.8H16.4244L16.8884 13.3609C16.9397 13.0988 16.8926 12.8271 16.7562 12.5975C16.6197 12.368 16.4035 12.1967 16.1489 12.1164L14.4013 16.0898V20.6H18.2413C18.3547 20.5999 18.4652 20.5637 18.5566 20.4966C18.6481 20.4294 18.7157 20.3349 18.7497 20.2267ZM5.68767 6.92222C6.08041 6.92222 6.39878 6.60385 6.39878 6.21111C6.39878 5.81838 6.08041 5.5 5.68767 5.5C5.29494 5.5 4.97656 5.81838 4.97656 6.21111C4.97656 6.60385 5.29494 6.92222 5.68767 6.92222ZM8.88707 6.21111C8.88707 6.60385 8.56869 6.92222 8.17595 6.92222C7.78322 6.92222 7.46484 6.60385 7.46484 6.21111C7.46484 5.81838 7.78322 5.5 8.17595 5.5C8.56869 5.5 8.88707 5.81838 8.88707 6.21111ZM10.6681 6.92222C11.0609 6.92222 11.3793 6.60385 11.3793 6.21111C11.3793 5.81838 11.0609 5.5 10.6681 5.5C10.2754 5.5 9.95703 5.81838 9.95703 6.21111C9.95703 6.60385 10.2754 6.92222 10.6681 6.92222Z" fill="#007BFF"/>
</svg>

