<svg width="26" height="26" viewBox="0 0 26 26" fill="none" xmlns="http://www.w3.org/2000/svg">
    <path d="M4.66602 20V25.0213L6.68602 23.8093L13.0353 20H19.3327C21.9993 20 21.9993 19.5 21.9993 17.3333V6.66667C21.9993 4.5 21.5 4 19.3327 4H3.33268C1 4 0.666016 4.5 0.666016 6.66667V17.3333C0.666016 19.5 1 20 3.33268 20H4.66602ZM2.33268 5.66667H20.3327V18.3333H12.2967L6.33268 22.312V18.3333H2.33268V5.66667Z" fill="#007BFF"/>
    <path d="M22.6667 0.667969H6.66667C5.196 0.667969 5 0.863969 5 2.33464H22C24 2.5 23.6667 5 23.6667 6.0013V15.668C25.1373 15.668 25.3333 15.472 25.3333 14.0013V3.33464C25.3333 1.86397 24.1373 0.667969 22.6667 0.667969Z" fill="#007BFF"/>
</svg>
