<svg width="159" height="188" viewBox="0 0 159 188" fill="none" xmlns="http://www.w3.org/2000/svg">
<g filter="url(#filter0_d)">
<path d="M65.138 26.6855C64.4298 26.6855 63.8633 27.2315 63.8633 27.914V39.3797C63.8633 40.0622 64.4298 40.6081 65.138 40.6081H94.3156C95.0238 40.6081 95.5904 40.0622 95.5904 39.3797V27.914C95.5904 27.2315 95.0238 26.6855 94.3156 26.6855H65.138ZM93.0409 35.6943C93.0409 36.3768 92.4743 36.9228 91.7661 36.9228H67.8292C67.121 36.9228 66.5544 36.3768 66.5544 35.6943V30.5074C66.5544 29.825 67.121 29.279 67.8292 29.279H91.7661C92.4743 29.279 93.0409 29.825 93.0409 30.5074V35.6943Z" fill="#FFE287"/>
<path d="M99.8839 8L83.7266 31.7527H91.7337L109.75 8H99.8839Z" fill="#0FA711"/>
<path d="M91.737 8L75.7227 31.7527H83.7298L99.8872 8H91.737Z" fill="white"/>
<path d="M83.7331 8L67.7188 31.7527H75.7259L91.7403 8H83.7331Z" fill="#FF7600"/>
<path d="M67.7154 31.7527H75.7225L59.5652 8H49.6992L67.7154 31.7527Z" fill="#FF7600"/>
<path d="M75.7237 31.7527H83.7309L67.7166 8H59.5664L75.7237 31.7527Z" fill="white"/>
<path opacity="0.5" d="M81.0114 11.9385L77.0078 17.8415L86.4448 31.7558H91.7353L93.1652 29.7882L81.0114 11.9385Z" fill="#3E4347"/>
<path d="M83.7331 31.7527H91.7403L75.7259 8H67.7188L83.7331 31.7527Z" fill="#0FA711"/>
<g filter="url(#filter1_ii)">
<path d="M146.425 104.73C146.425 141.819 116.358 171.886 79.2692 171.886C42.18 171.886 12.1133 141.819 12.1133 104.73C12.1133 67.6409 42.18 37.5742 79.2692 37.5742C116.358 37.5742 146.425 67.6409 146.425 104.73Z" fill="#FDD24F" fill-opacity="0.8"/>
</g>
<path d="M142.925 104.73C142.925 139.886 114.425 168.386 79.2692 168.386C44.113 168.386 15.6133 139.886 15.6133 104.73C15.6133 69.5739 44.113 41.0742 79.2692 41.0742C114.425 41.0742 142.925 69.5739 142.925 104.73Z" stroke="#DFDFDF" stroke-width="7"/>
<path d="M142.925 104.73C142.925 139.886 114.425 168.386 79.2692 168.386C44.113 168.386 15.6133 139.886 15.6133 104.73C15.6133 69.5739 44.113 41.0742 79.2692 41.0742C114.425 41.0742 142.925 69.5739 142.925 104.73Z" stroke="url(#paint0_linear)" stroke-width="7"/>
<path d="M132.871 104.73C132.871 134.334 108.873 158.332 79.2695 158.332C49.6662 158.332 25.668 134.334 25.668 104.73C25.668 75.1271 49.6662 51.1289 79.2695 51.1289C108.873 51.1289 132.871 75.1271 132.871 104.73Z" fill="#EEB42F"/>
<path fill-rule="evenodd" clip-rule="evenodd" d="M79.2689 60.371C54.7696 60.371 34.9091 80.2316 34.9091 104.731C34.9091 129.23 54.7696 149.091 79.2689 149.091C103.768 149.091 123.629 129.23 123.629 104.731C123.629 80.2316 103.768 60.371 79.2689 60.371ZM16.4258 104.731C16.4258 70.0235 44.5616 41.8877 79.2689 41.8877C113.976 41.8877 142.112 70.0235 142.112 104.731C142.112 139.438 113.976 167.574 79.2689 167.574C44.5616 167.574 16.4258 139.438 16.4258 104.731Z" fill="#F9C54C"/>
<path d="M79.2685 57.2891C53.1203 57.2891 31.8281 78.4567 31.8281 104.729C31.8281 131.002 52.9958 152.17 79.2685 152.17C105.541 152.17 126.709 131.002 126.709 104.729C126.709 78.4567 105.417 57.2891 79.2685 57.2891ZM69.8053 61.8961C69.9299 61.8961 69.9299 61.8961 69.8053 61.8961C70.677 63.7639 72.2957 64.8845 73.9144 64.511C75.5331 64.2619 77.1518 63.1413 77.2763 60.9C77.5253 60.9 77.7743 60.9 78.0234 60.9C78.0234 67.6238 77.5253 74.8457 76.7782 82.6902C76.6537 83.4373 76.6537 84.1844 76.6537 84.9315C76.4047 84.3089 76.1556 83.5618 75.9066 82.6902C73.2918 76.0909 70.926 68.9935 69.0583 62.0207C69.4318 62.0207 69.5563 61.8961 69.8053 61.8961ZM58.9725 65.7561C60.3422 67.3748 62.0854 67.9974 63.5796 67.2503C65.3228 66.5032 66.3189 64.76 65.9454 62.8923C66.1944 62.7677 66.4434 62.7677 66.6925 62.6432C68.3112 69.118 69.9299 76.2154 71.175 84.0599C71.2995 84.9315 71.424 85.5541 71.6731 86.3012C71.2995 85.6786 70.926 85.056 70.3034 84.3089C66.0699 78.5812 61.9609 72.3554 58.3499 66.1297C58.4744 66.0051 58.7235 65.8806 58.9725 65.7561ZM49.3848 72.4799C51.128 73.6006 52.9958 73.7251 54.2409 72.729C55.237 71.9819 55.7351 70.8613 55.7351 69.7406C55.7351 69.118 55.6106 68.4955 55.237 67.9974C55.4861 67.8729 55.6106 67.7484 55.8596 67.6238C59.2215 73.3516 62.4589 79.9509 65.8209 87.0483C66.1944 87.7954 66.5679 88.4179 66.817 89.0405C66.3189 88.5425 65.6963 88.0444 65.0738 87.5463C59.5951 82.9393 53.9919 77.9586 48.8867 72.978C49.0113 72.729 49.2603 72.6045 49.3848 72.4799ZM41.9139 81.3206C42.0384 81.3206 42.0384 81.3206 41.9139 81.3206C43.9061 81.9431 45.7739 81.6941 46.6455 80.3244C46.8945 79.9509 47.5171 78.9548 47.5171 77.9586C47.5171 77.3361 47.268 76.3399 46.521 75.4683C46.6455 75.3438 46.8945 75.0948 47.019 74.9703C51.7506 79.7018 56.6067 85.1805 61.7118 91.1573C62.2099 91.7799 62.708 92.2779 63.206 92.776C62.5835 92.4024 61.8364 92.1534 61.0893 91.7799C54.6145 88.7915 47.8906 85.4296 41.5403 81.9431C41.6648 81.6941 41.7894 81.5696 41.9139 81.3206ZM37.0578 91.7799C37.0578 91.7799 37.0578 91.6553 37.0578 91.7799C39.1745 91.9044 40.7932 91.1573 41.4158 89.5386C41.5403 89.165 41.6648 88.667 41.6648 87.9199C41.6648 87.1728 41.4158 85.8031 39.9216 84.807C40.0461 84.558 40.1707 84.4334 40.2952 84.1844C46.0229 87.5463 52.2487 91.5308 58.599 96.0134C59.2215 96.5114 59.9686 96.885 60.4667 97.2585C59.8441 97.134 58.9725 97.0095 58.1009 96.7605C51.128 95.7643 43.7816 94.2702 36.6842 92.4024C36.9333 92.2779 37.0578 92.0289 37.0578 91.7799ZM35.0655 103.111C35.0655 103.111 35.0655 102.986 35.0655 103.111C37.0578 102.737 38.552 101.492 38.6765 99.8734C38.6765 99.7488 38.6765 99.6243 38.6765 99.3753C38.6765 97.8811 37.9294 96.2624 36.0616 95.6398C36.0616 95.3908 36.1862 95.1418 36.1862 94.8927C42.661 96.636 49.6338 99.0017 56.9803 101.617C57.7273 101.866 58.4744 102.115 59.097 102.239C58.3499 102.239 57.6028 102.364 56.7312 102.364C49.7584 103.235 42.1629 103.609 34.941 103.733C35.0655 103.609 35.0655 103.36 35.0655 103.111ZM36.0616 114.691C36.0616 114.566 36.0616 114.566 36.0616 114.691C37.6803 113.819 38.6765 112.574 38.6765 111.08C38.6765 110.955 38.6765 110.706 38.6765 110.582C38.4274 108.963 37.3068 107.344 35.0655 107.22C35.0655 106.971 35.0655 106.722 35.0655 106.473C41.7894 106.473 49.0113 106.846 56.8557 107.469C57.7273 107.593 58.4744 107.593 59.097 107.593C58.4744 107.842 57.7273 108.091 56.8557 108.34C50.2564 110.955 43.159 113.321 36.1862 115.313C36.1862 115.189 36.1862 114.94 36.0616 114.691ZM40.0461 125.524C40.0461 125.524 40.0461 125.399 40.0461 125.524C41.1668 124.527 41.7894 123.407 41.7894 122.162C41.7894 121.664 41.6648 121.29 41.5403 120.916C40.9178 119.422 39.4236 118.177 37.1823 118.675C37.0578 118.426 37.0578 118.177 36.9333 117.928C43.4081 116.185 50.5054 114.691 58.2254 113.321C59.097 113.197 59.7196 112.947 60.4667 112.823C59.8441 113.197 59.2215 113.57 58.4744 114.193C52.7467 118.426 46.521 122.535 40.2952 126.271C40.2952 125.897 40.1707 125.773 40.0461 125.524ZM46.77 134.987C47.3926 133.991 47.6416 133.119 47.6416 132.123C47.6416 131.376 47.3926 130.629 46.8945 130.131C45.8984 128.885 44.0306 128.014 42.0384 129.01C41.9139 128.761 41.7894 128.636 41.6648 128.387C47.3926 125.025 53.9919 121.664 61.0893 118.302C61.8364 117.928 62.4589 117.555 63.0815 117.306C62.5834 117.804 62.0854 118.426 61.5873 119.049C57.2293 124.652 52.2487 130.255 47.268 135.485C47.1435 135.36 46.8945 135.236 46.77 134.987ZM55.6106 142.333C55.7351 141.586 55.8596 140.963 55.8596 140.341C55.8596 139.096 55.3616 138.1 54.4899 137.602C53.2448 136.73 51.2525 136.232 49.6338 137.851C49.3848 137.726 49.2603 137.477 49.1358 137.353C53.8674 132.621 59.2215 127.64 65.1983 122.66C65.8209 122.162 66.3189 121.664 66.817 121.166C66.4434 121.788 66.1944 122.535 65.8209 123.282C63.0815 129.757 59.8441 136.481 56.2332 142.707C56.1086 142.582 55.8596 142.458 55.6106 142.333ZM66.0699 147.189C66.1944 145.072 65.3228 143.454 63.8286 142.831C62.3344 142.333 60.3422 142.458 59.097 144.325C58.848 144.201 58.7235 144.076 58.4744 143.952C61.8364 138.224 65.6963 131.998 70.1789 125.524C70.677 124.776 71.0505 124.154 71.424 123.656C71.2995 124.278 71.175 125.15 70.926 126.022C69.9299 132.994 68.4357 140.341 66.6925 147.438C66.5679 147.314 66.3189 147.314 66.0699 147.189ZM77.4008 149.057C77.0272 147.065 75.7821 145.571 74.1634 145.446C72.5447 145.322 70.677 145.944 70.0544 148.061C69.8053 148.061 69.5563 147.936 69.3073 147.936C71.0505 141.462 73.2918 134.489 75.9066 127.142C76.1556 126.395 76.4047 125.648 76.5292 125.025C76.5292 125.773 76.6537 126.52 76.6537 127.391C77.5253 134.364 78.0234 141.96 78.1479 149.181C77.8989 149.181 77.6498 149.181 77.4008 149.057ZM122.351 95.7643C120.732 96.636 119.612 97.8811 119.612 99.3753C119.612 99.4998 119.612 99.7488 119.612 99.8734C119.861 101.492 120.981 103.111 123.222 103.235C123.222 103.484 123.222 103.733 123.222 103.982C116.623 103.982 109.277 103.484 101.432 102.737C100.561 102.613 99.8136 102.613 99.191 102.613C99.8136 102.364 100.561 102.115 101.432 101.866C108.032 99.2508 115.129 96.885 122.102 95.0173C122.226 95.2663 122.226 95.5153 122.351 95.7643ZM118.491 84.9315C118.491 84.9315 118.491 85.056 118.491 84.9315C117.37 85.9276 116.748 87.0483 116.748 88.2934C116.748 88.7915 116.872 89.165 116.997 89.5386C117.619 91.0328 119.113 92.2779 121.355 91.9044C121.479 92.1534 121.479 92.4024 121.604 92.6515C115.129 94.2702 107.907 95.7643 100.187 97.134C99.3155 97.2585 98.6929 97.383 97.9459 97.6321C98.5684 97.2585 99.191 96.885 99.9381 96.3869C105.666 92.0289 111.892 87.9199 118.117 84.3089C118.242 84.558 118.366 84.6825 118.491 84.9315ZM112.016 75.5928C111.394 76.589 111.02 77.5851 111.02 78.4567C111.02 79.2038 111.269 79.9509 111.767 80.4489C112.763 81.6941 114.506 82.5657 116.499 81.5696C116.623 81.8186 116.748 81.9431 116.872 82.1922C111.02 85.4296 104.545 88.7915 97.3233 91.9044C96.5762 92.2779 95.9536 92.5269 95.331 92.9005C95.8291 92.4024 96.3271 91.7799 96.9497 91.1573C101.432 85.6786 106.413 80.0754 111.518 74.9703C111.643 75.2193 111.892 75.3438 112.016 75.5928ZM103.051 67.8729C103.051 67.8729 103.175 67.9974 103.051 67.8729C102.926 68.62 102.677 69.2425 102.677 69.8651C102.677 70.9858 103.175 71.9819 104.047 72.6045C105.292 73.4761 107.285 73.9741 108.903 72.4799C109.028 72.6045 109.277 72.8535 109.401 72.978C104.67 77.7096 99.191 82.5657 93.0897 87.5463C92.4672 88.0444 91.8446 88.5425 91.471 89.0405C91.8446 88.4179 92.0936 87.7954 92.4672 86.9237C95.331 80.4489 98.6929 73.7251 102.304 67.4993C102.677 67.6238 102.802 67.7484 103.051 67.8729ZM92.5917 63.0168C92.7162 63.0168 92.7162 63.0168 92.5917 63.0168C92.4672 65.1335 93.3388 66.7522 94.833 67.3748C96.3271 67.9974 98.3194 67.8729 99.5645 65.8806C99.8136 66.0051 99.9381 66.1297 100.187 66.2542C96.8252 71.9819 92.8407 78.0831 88.2336 84.558C87.7356 85.1805 87.362 85.8031 86.9885 86.4257C87.113 85.8031 87.362 84.9315 87.4865 84.0599C88.6072 77.087 90.1014 69.7406 91.8446 62.7677C92.2181 62.7677 92.3427 62.8923 92.5917 63.0168ZM81.3853 60.9C81.3853 60.9 81.5098 60.9 81.3853 60.9C81.7588 62.8923 83.004 64.3864 84.6227 64.511C86.2414 64.6355 88.1091 64.0129 88.8562 61.8961C89.1052 61.8961 89.3543 62.0207 89.6033 62.0207C87.8601 68.4955 85.4943 75.4683 82.755 82.6902C82.5059 83.4373 82.2569 84.1844 82.0079 84.807C82.0079 84.0599 81.8834 83.3128 81.8834 82.4412C81.1363 75.4683 80.6382 67.8729 80.6382 60.651C80.8872 60.9 81.1363 60.9 81.3853 60.9ZM88.7317 148.061C87.7356 146.193 86.2414 145.197 84.6227 145.446C83.004 145.695 81.3853 146.816 81.2608 149.057C81.0117 149.057 80.7627 149.057 80.5137 149.057C80.5137 142.333 80.8872 135.111 81.6343 127.267C81.7588 126.52 81.7588 125.897 81.7588 125.275C81.7588 125.15 81.7588 125.15 81.7588 125.025C82.0079 125.648 82.2569 126.395 82.5059 127.267C85.1208 133.866 87.4865 140.963 89.4788 147.936C89.2298 148.061 88.9807 148.061 88.7317 148.061ZM99.44 144.201C99.44 144.201 99.3155 144.201 99.44 144.201C98.0704 142.582 96.3271 141.96 94.833 142.707C93.0897 143.454 92.0936 145.197 92.5917 147.065C92.3427 147.189 92.0936 147.189 91.8446 147.314C90.1014 140.839 88.6072 133.742 87.362 126.022C87.2375 125.15 87.113 124.527 86.864 123.78C87.2375 124.403 87.6111 125.025 88.2336 125.773C92.4672 131.5 96.5762 137.726 100.187 143.952C99.8136 144.076 99.6891 144.076 99.44 144.201ZM109.028 137.477C109.028 137.602 109.028 137.602 109.028 137.477C107.285 136.356 105.417 136.232 104.172 137.228C103.175 137.975 102.677 139.096 102.677 140.216C102.677 140.839 102.802 141.462 103.175 141.96C102.926 142.084 102.802 142.209 102.553 142.333C99.191 136.605 95.8291 130.006 92.5917 122.909C92.2181 122.162 91.8446 121.539 91.5956 120.916C92.0936 121.415 92.7162 121.913 93.3388 122.411C98.942 126.769 104.545 131.749 109.65 136.854C109.401 137.228 109.277 137.353 109.028 137.477ZM116.374 128.761C116.374 128.761 116.374 128.885 116.374 128.761C114.382 128.138 112.514 128.387 111.643 129.757C111.394 130.131 110.771 131.127 110.771 132.123C110.771 132.745 111.02 133.742 111.767 134.613C111.643 134.738 111.394 134.987 111.269 135.111C106.537 130.38 101.681 124.901 96.7007 118.924C96.2026 118.302 95.7046 117.679 95.2065 117.306C95.8291 117.679 96.5762 117.928 97.3233 118.302C103.798 121.166 110.522 124.527 116.872 128.014C116.623 128.387 116.499 128.512 116.374 128.761ZM121.23 118.302C121.23 118.426 121.23 118.426 121.23 118.302C119.113 118.177 117.495 118.924 116.872 120.543C116.748 120.916 116.623 121.415 116.623 122.162C116.623 122.909 116.872 124.278 118.366 125.275C118.242 125.524 118.117 125.648 117.993 125.897C112.265 122.535 106.039 118.551 99.6891 114.068C99.0665 113.57 98.3194 113.197 97.8213 112.823C98.4439 112.947 99.3155 113.197 100.187 113.321C107.16 114.317 114.506 115.811 121.479 117.679C121.355 117.928 121.355 118.177 121.23 118.302ZM123.222 107.095C121.23 107.469 119.736 108.589 119.612 110.208C119.612 110.333 119.612 110.457 119.612 110.706C119.612 112.2 120.359 113.819 122.226 114.442C122.226 114.691 122.102 114.94 122.102 115.189C115.627 113.446 108.654 111.204 101.308 108.465C100.561 108.216 99.8136 107.967 99.191 107.842C99.9381 107.842 100.685 107.718 101.557 107.718C108.53 106.971 116.125 106.473 123.347 106.473C123.347 106.597 123.222 106.846 123.222 107.095Z" fill="#FFE287"/>
<circle cx="79.2714" cy="104.73" r="47.0565" stroke="url(#paint1_linear)" stroke-width="2"/>
<circle cx="79.2689" cy="104.731" r="61.8431" stroke="url(#paint2_linear)" stroke-width="2"/>
<g filter="url(#filter2_i)">
<circle cx="79.2664" cy="104.729" r="30.8055" fill="#FDD24F"/>
</g>
<mask id="mask0" mask-type="alpha" maskUnits="userSpaceOnUse" x="48" y="73" width="63" height="63">
<circle cx="79.2664" cy="104.729" r="30.8055" fill="#C3863A"/>
</mask>
<g mask="url(#mask0)">
<path d="M63.0631 72.9287L63.0637 72.9297L63.2178 73.1567L63.6556 73.8026C64.0333 74.3599 64.5738 75.1582 65.2252 76.1223C66.5279 78.0505 68.2745 80.642 70.0495 83.2951C71.8243 85.9478 73.6285 88.6636 75.0462 90.8398C75.7549 91.9276 76.3685 92.8829 76.834 93.6289C77.29 94.3598 77.627 94.9259 77.7595 95.213C77.8075 95.317 77.8249 95.4325 77.8098 95.546C77.7494 95.9988 77.5 96.394 77.2023 96.723C76.9002 97.0567 76.5063 97.3686 76.0728 97.6564C75.2051 98.2324 74.0982 98.764 73.0278 99.2131C71.9524 99.6645 70.8896 100.043 70.0976 100.307C69.8266 100.398 69.5867 100.475 69.3881 100.538C69.4996 100.839 69.6495 101.235 69.8259 101.68C70.22 102.675 70.7382 103.894 71.2496 104.844C71.5297 105.364 71.3695 105.875 71.0906 106.249C70.828 106.602 70.4154 106.912 69.9657 107.184C69.053 107.734 67.7627 108.256 66.4805 108.702C65.3151 109.108 64.1256 109.462 63.1728 109.728C63.5207 109.846 63.898 109.974 64.2892 110.109C65.9252 110.673 67.8427 111.362 68.8568 111.831C69.9126 112.318 70.4339 112.916 70.4714 113.591C70.4889 113.905 70.3925 114.159 70.3014 114.325C70.2553 114.41 70.2079 114.476 70.17 114.524C70.1509 114.549 70.1338 114.569 70.1199 114.584L70.1115 114.593C70.1068 114.599 70.0993 114.608 70.0892 114.621C70.067 114.649 70.0327 114.694 69.9904 114.754C69.9055 114.876 69.7893 115.058 69.6724 115.292C69.4378 115.761 69.2077 116.423 69.2077 117.211C69.2077 117.458 69.2139 117.765 69.2209 118.115V118.115V118.115C69.2385 118.989 69.2615 120.13 69.207 121.261C69.1316 122.825 68.9057 124.555 68.212 125.682C68.0397 125.962 67.7531 126.132 67.4989 126.243C67.2296 126.36 66.9041 126.45 66.5482 126.521C65.8344 126.665 64.9091 126.751 63.8644 126.797C61.7694 126.89 59.1048 126.828 56.4947 126.705C53.8809 126.582 51.3067 126.397 49.387 126.244C48.4268 126.167 47.6297 126.098 47.0725 126.048C46.7938 126.023 46.5751 126.002 46.4259 125.989L46.2553 125.972L46.2256 125.97H32.815C32.4814 125.97 32.2109 125.699 32.2109 125.366V73.8721C32.2109 73.5433 32.474 73.2749 32.8027 73.2682L62.5511 72.6642C62.7555 72.66 62.9482 72.7596 63.0631 72.9287Z" fill="white"/>
<path fill-rule="evenodd" clip-rule="evenodd" d="M82.5152 100.024C82.1033 100.436 82.1277 101.105 82.4795 101.569C83.2141 102.539 83.65 103.747 83.65 105.057C83.65 106.273 83.2747 107.4 82.6338 108.331C82.3134 108.797 82.3064 109.44 82.7059 109.839C83.1086 110.242 83.7683 110.244 84.1127 109.79C85.1111 108.475 85.7037 106.835 85.7037 105.057C85.7037 103.15 85.022 101.402 83.889 100.043C83.5369 99.6207 82.904 99.6355 82.5152 100.024ZM85.9685 111.657C85.6108 112.095 85.6075 112.741 86.0076 113.141C86.4096 113.543 87.0653 113.544 87.4317 113.11C89.2653 110.934 90.3703 108.125 90.3703 105.057C90.3703 101.867 89.1755 98.9564 87.209 96.7477C86.8385 96.3316 86.1983 96.3412 85.8043 96.7352C85.3967 97.1427 85.4097 97.8033 85.7859 98.2398C87.3631 100.07 88.3166 102.452 88.3166 105.057C88.3166 107.56 87.4363 109.858 85.9685 111.657ZM89.5183 115.204C89.1462 115.631 89.1442 116.277 89.5445 116.678C89.9462 117.079 90.6002 117.081 90.9768 116.655C93.7112 113.567 95.3712 109.506 95.3712 105.057C95.3712 100.489 93.6209 96.3297 90.7543 93.2131C90.375 92.8007 89.7318 92.8077 89.3356 93.2039C88.93 93.6095 88.9386 94.2668 89.3236 94.6919C91.8056 97.4328 93.3175 101.069 93.3175 105.057C93.3175 108.941 91.8844 112.49 89.5183 115.204Z" fill="white"/>
</g>
<path d="M26.2852 82.9816L26.6548 82.1191L31.8917 81.2565L27.8254 79.4082L28.1335 78.7305L33.0624 80.9484L32.6927 81.811L27.4558 82.6735L31.5221 84.5219L31.214 85.1996L26.2852 82.9816Z" fill="#FFFDFD"/>
<path d="M30.8431 78.5454C30.7815 78.299 30.7815 78.0525 30.8431 77.7444C30.9047 77.498 30.9663 77.2516 31.0895 77.0051C31.2127 76.7587 31.336 76.5739 31.5208 76.4506C31.7056 76.3274 31.8289 76.2042 32.0137 76.2042C32.1985 76.1426 32.3217 76.1426 32.5066 76.1426C32.6914 76.1426 32.8146 76.2042 32.9379 76.2658L34.5397 77.19C34.663 77.2516 34.7246 77.3132 34.8478 77.3748C34.971 77.4364 35.0326 77.4364 35.0942 77.498L34.7862 78.0525C34.6013 77.9909 34.4781 77.8677 34.2933 77.8061C34.4165 78.0525 34.4781 78.299 34.4781 78.5454C34.4781 78.7919 34.3549 79.0383 34.2317 79.2231C34.1701 79.3463 34.0469 79.4696 33.9236 79.5928C33.8004 79.716 33.6772 79.7776 33.554 79.8392C33.4307 79.9008 33.2459 79.9008 33.1227 79.9008C32.9995 79.9008 32.8146 79.8392 32.6914 79.7776C32.5066 79.6544 32.3217 79.5312 32.2601 79.3464C32.1985 79.1615 32.1369 78.9767 32.1369 78.7918C32.1369 78.607 32.1985 78.3606 32.2601 78.1141C32.3217 77.8677 32.445 77.6212 32.5682 77.4364L32.8146 77.0051L32.6914 76.9435C32.6298 76.8819 32.5066 76.8819 32.445 76.8819C32.3217 76.8819 32.2601 76.8819 32.1369 76.8819C32.0137 76.8819 31.9521 76.9435 31.8289 77.0051C31.7056 77.0668 31.644 77.19 31.5824 77.3132C31.5208 77.4364 31.4592 77.5596 31.4592 77.6213C31.4592 77.6829 31.3976 77.8061 31.3976 77.9293C31.3976 77.9909 31.3976 78.1141 31.3976 78.1757C31.3976 78.2373 31.3976 78.3606 31.4592 78.4222L30.8431 78.5454ZM33.0611 77.5596C32.9995 77.6828 32.8762 77.8677 32.8146 77.9909C32.753 78.1757 32.6914 78.299 32.6914 78.4222C32.6914 78.5454 32.6914 78.7303 32.6914 78.8535C32.753 78.9767 32.8146 79.0999 32.9379 79.1615C33.1227 79.2847 33.3075 79.2847 33.4307 79.2231C33.554 79.1615 33.7388 78.9767 33.8004 78.7918C33.9236 78.607 33.9236 78.4838 33.9852 78.299C33.9852 78.1757 33.9852 77.9909 33.9236 77.8677C33.862 77.7445 33.8004 77.6212 33.7388 77.5596C33.6772 77.4364 33.554 77.3748 33.4307 77.3132L33.2459 77.19L33.0611 77.5596Z" fill="#FFFDFD"/>
<path d="M34.0482 73.555L33.4937 74.3559L34.8492 75.2801C34.9108 75.3417 35.034 75.4034 35.0956 75.465C35.1572 75.5266 35.2805 75.5266 35.3421 75.5882C35.4037 75.5882 35.5269 75.5882 35.5885 75.5882C35.6501 75.5882 35.7117 75.465 35.835 75.4033C35.8966 75.3417 35.8966 75.2801 35.9582 75.1569C36.0198 75.0953 36.0198 74.9721 36.0198 74.9105L36.5127 75.2801C36.5127 75.4033 36.4511 75.4649 36.3895 75.5882C36.3278 75.7114 36.2662 75.773 36.2662 75.8346C36.143 76.0811 35.9582 76.2043 35.835 76.2659C35.7117 76.3275 35.5269 76.3891 35.4037 76.3891C35.2805 76.3891 35.1572 76.3275 35.034 76.2659C34.9108 76.2043 34.7876 76.1427 34.6644 76.0195L33.0625 74.9721L32.6312 75.6498L32.1383 75.3417L32.5696 74.664L31.707 74.1095L32.0767 73.555L32.9392 74.1095L33.4937 73.3086L34.0482 73.555Z" fill="#FFFDFD"/>
<path d="M33.0012 71.8294C32.878 71.7678 32.8164 71.6445 32.8164 71.5213C32.8164 71.3981 32.8164 71.2749 32.878 71.1517C32.9396 71.0284 33.0629 70.9668 33.1861 70.9668C33.3093 70.9668 33.4325 70.9668 33.5557 71.0284C33.679 71.09 33.7406 71.2133 33.7406 71.3365C33.7406 71.4597 33.7406 71.5829 33.679 71.7061C33.6173 71.8294 33.4941 71.891 33.3709 71.891C33.2477 71.9526 33.1245 71.891 33.0012 71.8294ZM34.1102 72.4455L34.4799 71.891L37.4372 73.9857L37.0676 74.5403L34.1102 72.4455Z" fill="#FFFDFD"/>
<path d="M36.5098 72.1982C36.3249 72.0133 36.1401 71.8285 36.0169 71.6437C35.8936 71.3973 35.832 71.2124 35.832 70.966C35.832 70.7195 35.832 70.4731 35.8936 70.2267C35.9553 69.9802 36.0785 69.7337 36.2633 69.5489C36.4481 69.3641 36.633 69.1793 36.8794 69.056C37.1259 68.9328 37.3107 68.8712 37.5571 68.8096C37.8036 68.8096 38.05 68.8096 38.2965 68.8712C38.5429 68.9328 38.7894 69.056 38.9742 69.2409C39.159 69.4257 39.3439 69.6105 39.4671 69.7954C39.5903 70.0418 39.6519 70.2266 39.6519 70.4731C39.6519 70.7195 39.6519 70.966 39.5903 71.2124C39.5287 71.4589 39.4055 71.7053 39.2206 71.8901C39.0358 72.0749 38.851 72.2598 38.6045 72.383C38.3581 72.5063 38.1732 72.5678 37.9268 72.6295C37.6804 72.6911 37.4339 72.6295 37.1875 72.5679C36.941 72.5062 36.6946 72.383 36.5098 72.1982ZM36.941 71.6437C37.0642 71.7669 37.2491 71.8285 37.3723 71.8901C37.5571 71.9517 37.6804 71.9517 37.8036 71.9517C37.9268 71.9517 38.1116 71.8901 38.2349 71.8285C38.3581 71.7669 38.4813 71.6437 38.6045 71.5205C38.7277 71.3972 38.7894 71.2124 38.851 71.0892C38.9126 70.9043 38.9126 70.7811 38.9126 70.6579C38.9126 70.5347 38.851 70.3499 38.7277 70.2267C38.6661 70.1034 38.5429 69.9802 38.3581 69.857C38.2349 69.7337 38.05 69.6722 37.9268 69.6105C37.8036 69.5489 37.6187 69.5489 37.4955 69.5489C37.3723 69.5489 37.1875 69.6105 37.0642 69.6721C36.941 69.7337 36.8178 69.857 36.6946 69.9802C36.5714 70.1034 36.5098 70.2883 36.4481 70.4115C36.3865 70.5963 36.3865 70.7195 36.3865 70.8428C36.3865 70.966 36.4481 71.1508 36.5714 71.274C36.6946 71.3972 36.8178 71.5205 36.941 71.6437Z" fill="#FFFDFD"/>
<path d="M38.1133 67.3943L38.6062 66.9014L39.0374 67.2711C38.9758 67.0862 38.9758 66.8398 38.9758 66.5934C39.0374 66.3469 39.1607 66.1621 39.3455 65.9157C39.4687 65.7924 39.5919 65.6692 39.7768 65.6076C39.9 65.546 40.0848 65.4844 40.2697 65.4844C40.4545 65.4844 40.5777 65.4844 40.7626 65.546C40.9474 65.6076 41.1322 65.7308 41.317 65.9157L42.9805 67.5175L42.4877 68.0104L40.9474 66.5318C40.8242 66.4085 40.7009 66.3469 40.5777 66.2853C40.4545 66.2237 40.3313 66.2237 40.2697 66.2237C40.2081 66.2237 40.0848 66.2853 39.9616 66.2853C39.8384 66.2853 39.7768 66.4085 39.7152 66.4701C39.5919 66.5934 39.5303 66.655 39.4687 66.7782C39.4071 66.9014 39.4071 67.0247 39.4071 67.1479C39.4071 67.2711 39.4687 67.3943 39.5303 67.5791C39.5919 67.7023 39.7152 67.8872 39.9 68.0104L41.2554 69.3043L40.7626 69.7971L38.1133 67.3943Z" fill="#FFFDFD"/>
<path d="M41.3789 64.6208C41.3789 64.3743 41.5021 64.1279 41.6253 63.8814C41.7486 63.635 41.9334 63.4502 42.1182 63.2653C42.3031 63.0805 42.4879 62.9573 42.6727 62.8957C42.8576 62.8341 43.0424 62.7725 43.2272 62.7725C43.4121 62.7725 43.5353 62.8341 43.6585 62.8957C43.7817 62.9573 43.905 63.0805 44.0282 63.1421L45.2604 64.4976C45.322 64.6208 45.4452 64.6824 45.5068 64.744C45.5684 64.8056 45.6301 64.8672 45.7533 64.9288L45.322 65.3601C45.1988 65.2369 45.0756 65.1137 44.9523 64.9905C45.014 65.2369 44.9523 65.4833 44.8907 65.7298C44.8291 65.9146 44.6443 66.1611 44.4595 66.3459C44.3362 66.4691 44.213 66.5307 44.0282 66.5923C43.8433 66.654 43.7201 66.7156 43.5969 66.7156C43.4737 66.7156 43.2888 66.7156 43.1656 66.6539C43.0424 66.5923 42.9192 66.5307 42.796 66.3459C42.6111 66.1611 42.5495 65.9762 42.4879 65.7914C42.4263 65.6066 42.4879 65.4217 42.5495 65.2369C42.6111 65.0521 42.7343 64.8673 42.8576 64.6824C42.9808 64.4976 43.1656 64.3127 43.4121 64.1279L43.7817 63.7583L43.6585 63.635C43.5969 63.5734 43.5353 63.5118 43.4121 63.4502C43.2888 63.3886 43.2272 63.3886 43.104 63.3886C42.9808 63.3886 42.9192 63.3886 42.796 63.4502C42.6727 63.5118 42.5495 63.5734 42.4879 63.635C42.3647 63.6966 42.3031 63.8198 42.2415 63.8814C42.1798 63.9431 42.1182 64.0663 42.1182 64.1279C42.1182 64.1895 42.0566 64.3128 42.0566 64.3744C42.0566 64.436 42.0566 64.5592 41.995 64.6208H41.3789ZM43.7817 64.3744C43.6585 64.4976 43.5353 64.6208 43.4121 64.744C43.2888 64.8672 43.2272 64.9904 43.1656 65.1137C43.104 65.2369 43.0424 65.3601 43.0424 65.4834C43.0424 65.6066 43.104 65.7298 43.1656 65.853C43.2888 65.9762 43.4737 66.0994 43.5969 66.0378C43.7817 66.0378 43.905 65.9146 44.0898 65.7298C44.213 65.6066 44.3362 65.4833 44.3978 65.3601C44.4595 65.2369 44.4595 65.1137 44.4595 64.9905C44.4595 64.8673 44.3978 64.744 44.3362 64.6208C44.2746 64.4976 44.213 64.3743 44.1514 64.3127L44.0898 64.1279L43.7817 64.3744Z" fill="#FFFDFD"/>
<path d="M42.7969 59.9391L43.3514 59.5078L46.9864 63.9438L46.4319 64.3751L42.7969 59.9391Z" fill="#FFFDFD"/>
<path d="M46.4297 57.5963L47.0458 57.165L49.6951 61.0465L51.7282 59.6295L52.0979 60.184L49.4486 61.9707L46.4297 57.5963Z" fill="#FFFDFD"/>
<path d="M50.8672 57.2904C50.9288 57.044 51.052 56.7975 51.2369 56.6127C51.4217 56.4279 51.6065 56.243 51.853 56.1198C52.0994 55.9966 52.2842 55.8734 52.4691 55.8734C52.6539 55.8117 52.8387 55.8117 53.0236 55.8734C53.2084 55.935 53.3316 55.9966 53.4548 56.0582C53.5781 56.1814 53.7013 56.243 53.7629 56.4279L54.6871 58.0297C54.7487 58.153 54.8103 58.2146 54.8719 58.3378C54.9335 58.3994 54.9951 58.5226 55.0567 58.5843L54.5022 58.8923C54.379 58.7691 54.3174 58.5843 54.1942 58.3994C54.1942 58.7075 54.1326 58.8923 53.9477 59.0771C53.8245 59.262 53.6397 59.4468 53.3932 59.57C53.27 59.6316 53.0852 59.6933 52.962 59.7549C52.7771 59.8165 52.6539 59.8165 52.5307 59.7549C52.4075 59.7549 52.2226 59.6932 52.0994 59.57C51.9762 59.5084 51.853 59.3852 51.7914 59.2004C51.6681 59.0155 51.6065 58.8307 51.6065 58.5843C51.6065 58.3378 51.6681 58.2146 51.7914 58.0297C51.9146 57.8449 52.0378 57.6601 52.2226 57.5369C52.4075 57.352 52.5923 57.2288 52.8387 57.1056L53.27 56.8592L53.2084 56.7359C53.1468 56.6743 53.0852 56.6127 53.0236 56.5511C52.962 56.4895 52.8387 56.4279 52.7771 56.4279C52.6539 56.4279 52.5923 56.3663 52.4691 56.4279C52.3458 56.4279 52.2226 56.4895 52.0994 56.5511C51.9762 56.6127 51.9146 56.6743 51.7914 56.7359C51.6681 56.7975 51.6681 56.8592 51.6065 56.9824C51.5449 57.044 51.5449 57.1056 51.4833 57.2288C51.4217 57.2904 51.4217 57.352 51.4217 57.4753L50.8672 57.2904ZM53.2084 57.5985C53.0852 57.6601 52.9003 57.7833 52.7771 57.8449C52.6539 57.9681 52.5307 58.0297 52.4075 58.153C52.2842 58.2762 52.2226 58.3994 52.2226 58.5227C52.161 58.6459 52.2226 58.7691 52.2842 58.8923C52.4075 59.0771 52.5307 59.1387 52.7155 59.2004C52.9003 59.2004 53.0852 59.1388 53.27 59.0155C53.4548 58.8923 53.5781 58.8307 53.6397 58.7075C53.7013 58.5843 53.7629 58.461 53.7629 58.3378C53.7629 58.2146 53.7629 58.0914 53.7629 57.9681C53.7013 57.8449 53.7013 57.7217 53.6397 57.5985L53.5165 57.4136L53.2084 57.5985Z" fill="#FFFDFD"/>
<path d="M54.1328 54.9477L54.7489 54.6397L54.9954 55.1326C54.9954 54.9478 55.057 54.7013 55.1802 54.5165C55.3034 54.3317 55.4883 54.1468 55.7963 54.0236C55.9811 53.962 56.1044 53.9004 56.2892 53.9004C56.474 53.9004 56.5972 53.9004 56.7821 53.962C56.9669 54.0236 57.0901 54.0852 57.2134 54.2084C57.3366 54.3317 57.4598 54.5165 57.583 54.7013L58.5688 56.7961L57.9527 57.1041L57.0285 55.1942C56.9669 55.071 56.8437 54.9478 56.7821 54.8246C56.6589 54.7629 56.5972 54.7013 56.474 54.6397C56.3508 54.5781 56.2892 54.5781 56.166 54.6397C56.0428 54.6397 55.9811 54.7013 55.8579 54.7013C55.7347 54.7629 55.6115 54.8245 55.5499 54.9477C55.4883 55.071 55.4266 55.1326 55.365 55.2558C55.3034 55.379 55.3034 55.5023 55.365 55.6871C55.4266 55.8719 55.4266 55.9951 55.5499 56.18L56.3508 57.8435L55.7347 58.1515L54.1328 54.9477Z" fill="#FFFDFD"/>
<path d="M62.6974 55.1338C62.8206 55.3803 62.8206 55.6267 62.8206 55.8731C62.8206 56.1196 62.759 56.366 62.6357 56.5509C62.5125 56.7357 62.3893 56.9821 62.2045 57.1053C62.0196 57.2902 61.7732 57.4134 61.5267 57.5366C61.2187 57.6599 60.9106 57.7215 60.6026 57.7215C60.2945 57.7215 59.9865 57.6599 59.6784 57.5366L59.9249 56.7973C60.1713 56.9205 60.4177 56.9822 60.6026 56.9822C60.849 56.9822 61.0955 56.9821 61.3419 56.8589C61.5884 56.7973 61.7732 56.6741 61.8964 56.5509C62.0196 56.4276 62.1429 56.3044 62.1429 56.1196C62.1429 55.9348 62.2045 55.8115 62.2045 55.6883C62.2045 55.5651 62.1429 55.3802 62.0812 55.257L61.8964 54.7641C61.8348 55.0106 61.7732 55.257 61.5884 55.3802C61.4035 55.5651 61.2187 55.6883 60.9722 55.8115C60.7258 55.9348 60.4794 55.9348 60.2329 55.9348C59.9865 55.9348 59.74 55.8731 59.5552 55.8115C59.3704 55.6883 59.1239 55.5651 59.0007 55.3802C58.8775 55.1954 58.6926 55.0106 58.631 54.7641C58.5078 54.5177 58.5078 54.2712 58.5078 54.0248C58.5078 53.7784 58.5694 53.5319 58.631 53.3471C58.6926 53.1623 58.8775 52.9158 59.0007 52.731C59.1855 52.5462 59.3704 52.4229 59.6784 52.2997C59.9249 52.2381 60.1713 52.1765 60.4178 52.1765C60.6642 52.1765 60.9106 52.2381 61.0955 52.4229L60.9106 51.9301L61.5267 51.6836L62.6974 55.1338ZM59.8633 52.9774C59.6784 53.0391 59.5552 53.1623 59.432 53.2239C59.3088 53.3471 59.2471 53.4703 59.1855 53.5936C59.1239 53.7168 59.1239 53.9016 59.1239 54.0248C59.1239 54.2096 59.1855 54.3329 59.2471 54.5177C59.3704 54.8874 59.5552 55.0722 59.8633 55.1954C60.1713 55.3186 60.4794 55.3186 60.7874 55.1954C61.1571 55.0722 61.3419 54.8258 61.4651 54.5793C61.5884 54.2713 61.5884 53.9632 61.4651 53.6552C61.4035 53.4703 61.3419 53.3471 61.2187 53.2239C61.0955 53.1006 60.9722 52.9774 60.849 52.9158C60.7258 52.8542 60.541 52.7926 60.4178 52.7926C60.1713 52.8542 59.9865 52.9158 59.8633 52.9774Z" fill="#FFFDFD"/>
<path d="M66.5177 53.9631L65.8399 54.1479L65.6551 53.5934C65.6551 53.7783 65.5319 54.0247 65.3471 54.1479C65.1622 54.3327 64.9774 54.456 64.6693 54.5176C64.4845 54.5792 64.3613 54.5792 64.1765 54.5792C63.9916 54.5792 63.8684 54.5176 63.6836 54.456C63.5603 54.3943 63.3755 54.2711 63.3139 54.1479C63.1907 54.0247 63.1291 53.8399 63.0058 53.5934L62.3281 51.3754L63.0058 51.1906L63.622 53.2237C63.6836 53.4086 63.7452 53.5318 63.8068 53.5934C63.8684 53.7166 63.9916 53.7782 64.0532 53.8398C64.1765 53.9015 64.2381 53.9015 64.3613 53.9015C64.4845 53.9015 64.5461 53.9015 64.6693 53.8398C64.7926 53.7782 64.9158 53.7166 65.039 53.655C65.1622 53.5934 65.2238 53.4702 65.2855 53.347C65.3471 53.2237 65.3471 53.1005 65.4087 52.9157C65.4087 52.7308 65.4087 52.546 65.3471 52.3612L64.7926 50.5745L65.4703 50.3896L66.5177 53.9631Z" fill="#FFFDFD"/>
<path d="M66.7031 50.6966C66.8263 50.5118 67.0728 50.3269 67.2576 50.1421C67.5041 50.0189 67.7505 49.8957 67.997 49.8341C68.2434 49.7724 68.4898 49.7725 68.6747 49.7725C68.8595 49.7725 69.0443 49.8341 69.1676 49.9573C69.2908 50.0189 69.414 50.1421 69.5372 50.2653C69.5988 50.3886 69.6604 50.5118 69.7221 50.6966L70.0917 52.4833C70.0917 52.6065 70.1533 52.7298 70.1533 52.853C70.1533 52.9762 70.2149 53.0378 70.2149 53.1611L69.5988 53.2843C69.5372 53.0995 69.4756 52.9146 69.4756 52.7298C69.3524 52.9762 69.2292 53.1611 69.0443 53.3459C68.8595 53.4691 68.6131 53.5923 68.3666 53.6539C68.1818 53.7156 68.0586 53.7155 67.8737 53.7155C67.6889 53.7155 67.5657 53.654 67.4425 53.5923C67.3192 53.5307 67.196 53.4075 67.1344 53.3459C67.0728 53.2843 66.9496 53.0994 66.9496 52.9146C66.888 52.6682 66.888 52.4833 66.9496 52.2985C67.0112 52.1137 67.1344 51.9904 67.2576 51.8056C67.4425 51.6824 67.6273 51.5592 67.8121 51.436C68.0586 51.3127 68.305 51.2511 68.5515 51.1895L69.0443 51.0663L68.9827 50.943C68.9827 50.8814 68.9211 50.7582 68.8595 50.6966C68.7979 50.635 68.7363 50.5734 68.6747 50.5118C68.6131 50.4502 68.4898 50.3886 68.3666 50.3886C68.2434 50.3886 68.1202 50.3886 67.997 50.3886C67.8737 50.3886 67.7505 50.4502 67.6889 50.5118C67.6273 50.5734 67.5041 50.635 67.4425 50.635C67.3808 50.6966 67.3192 50.7582 67.2576 50.8199C67.196 50.8815 67.1344 50.9431 67.0728 51.0047L66.7031 50.6966ZM68.8595 51.6824C68.6747 51.744 68.5515 51.744 68.3666 51.8056C68.1818 51.8672 68.0586 51.9288 67.9353 51.9904C67.8121 52.052 67.6889 52.1753 67.6273 52.2985C67.5657 52.4217 67.5657 52.545 67.5657 52.6682C67.6273 52.853 67.6889 52.9762 67.8737 53.0378C68.0586 53.0994 68.2434 53.0994 68.4282 53.0378C68.6131 52.9762 68.7363 52.9146 68.8595 52.853C68.9827 52.7914 69.0443 52.6682 69.106 52.545C69.1676 52.4217 69.1676 52.2985 69.2292 52.1753C69.2292 52.052 69.2292 51.9288 69.2292 51.8056L69.1676 51.5592L68.8595 51.6824Z" fill="#FFFDFD"/>
<path d="M74.5868 52.4826C74.6484 52.729 74.5868 53.0371 74.5252 53.2219C74.4636 53.4684 74.3403 53.6532 74.2171 53.8381C74.0939 54.0229 73.9091 54.2077 73.6626 54.3309C73.4162 54.4542 73.1697 54.5158 72.8617 54.5774C72.492 54.639 72.184 54.639 71.8759 54.5774C71.5678 54.5158 71.2598 54.3926 71.0133 54.2077L71.383 53.5916C71.5678 53.7765 71.8143 53.8997 71.9991 53.9613C72.2456 54.0229 72.4304 54.0229 72.7385 54.0229C72.9849 53.9613 73.1697 53.8997 73.3546 53.8381C73.5394 53.7148 73.601 53.6532 73.7242 53.53C73.7858 53.4068 73.8475 53.2835 73.8475 53.0987C73.8475 52.9755 73.8475 52.7907 73.8475 52.6675L73.7858 52.113C73.6626 52.3594 73.5394 52.5442 73.293 52.6675C73.1081 52.7907 72.8617 52.9139 72.6152 52.9139C72.3688 52.9755 72.1223 52.9139 71.8759 52.8523C71.6295 52.7907 71.4446 52.6675 71.2598 52.5442C71.075 52.421 70.9517 52.2362 70.8285 51.9897C70.7053 51.8049 70.6437 51.5584 70.5821 51.2504C70.5205 50.9423 70.5821 50.7575 70.5821 50.5111C70.6437 50.2646 70.7053 50.0798 70.8901 49.8333C71.0133 49.6485 71.1982 49.4637 71.383 49.3405C71.5678 49.2172 71.8143 49.1556 72.1223 49.094C72.3688 49.0324 72.6152 49.094 72.8617 49.1556C73.1081 49.2172 73.2929 49.3405 73.4778 49.5253L73.4162 49.0324L74.0939 48.9092L74.5868 52.4826ZM72.3072 49.7101C72.1223 49.7101 71.9375 49.7718 71.8143 49.895C71.6911 49.9566 71.5678 50.0798 71.5062 50.203C71.4446 50.3263 71.383 50.4494 71.3214 50.6343C71.2598 50.8191 71.2598 50.9424 71.3214 51.1272C71.383 51.4969 71.5062 51.7433 71.7527 51.9281C71.9991 52.113 72.3072 52.1746 72.6768 52.113C73.0465 52.0513 73.2929 51.9281 73.4778 51.6817C73.6626 51.4352 73.7242 51.1272 73.6626 50.7575C73.6626 50.5727 73.601 50.3878 73.5394 50.2646C73.4778 50.1414 73.3546 50.0182 73.2313 49.895C73.1081 49.7718 72.9849 49.7101 72.8001 49.7101C72.6152 49.7101 72.492 49.7101 72.3072 49.7101Z" fill="#FFFDFD"/>
<path d="M75.8205 50.8215C75.8205 51.0064 75.8821 51.1296 75.9437 51.2528C76.0053 51.376 76.1285 51.4992 76.2517 51.5608C76.375 51.6224 76.4982 51.6841 76.6214 51.7457C76.7446 51.8073 76.9295 51.8073 77.0527 51.8073C77.2375 51.8073 77.4224 51.7457 77.6072 51.6225C77.7304 51.4992 77.9152 51.376 78.0385 51.1912L78.593 51.5608C78.2233 52.0537 77.7304 52.3618 77.0527 52.3618C76.7446 52.3618 76.4982 52.3618 76.2517 52.2386C76.0053 52.177 75.8205 52.0537 75.6356 51.8689C75.4508 51.6841 75.3276 51.4992 75.2044 51.3144C75.0811 51.068 75.0195 50.8215 75.0195 50.5751C75.0195 50.3286 75.0195 50.0822 75.1428 49.8357C75.266 49.5893 75.3276 49.4045 75.5124 49.2196C75.6973 49.0348 75.8821 48.9116 76.0669 48.7883C76.3134 48.6651 76.5598 48.6035 76.8062 48.6035C77.1143 48.6035 77.4224 48.6035 77.6072 48.7267C77.8536 48.85 78.0385 48.9732 78.1617 49.158C78.2849 49.3429 78.4081 49.5277 78.5314 49.7741C78.6546 50.0206 78.6546 50.2054 78.6546 50.4518V50.6983L75.8205 50.8215ZM77.9769 50.2054C77.9769 50.0822 77.9152 49.8974 77.8536 49.7741C77.792 49.6509 77.7304 49.5277 77.6688 49.4661C77.6072 49.4045 77.484 49.2813 77.3607 49.2813C77.2375 49.2813 77.0527 49.2196 76.9295 49.2196C76.7446 49.2196 76.6214 49.2812 76.4982 49.3429C76.375 49.4045 76.2518 49.5277 76.1285 49.5893C76.0669 49.7125 75.9437 49.8357 75.9437 49.959C75.8821 50.0822 75.8821 50.2054 75.8821 50.3286L77.9769 50.2054Z" fill="#FFFDFD"/>
<path d="M83.0298 47.6164L81.3047 47.4931L81.3663 46.8154L85.5558 47.0619L85.4942 47.7396L83.7691 47.6164L83.5227 52.2988L82.7834 52.2372L83.0298 47.6164Z" fill="#FFFDFD"/>
<path d="M85.367 48.9092L86.0447 48.9708L85.9831 49.5253C86.0447 49.4637 86.1063 49.3405 86.1679 49.2789C86.2296 49.2173 86.3528 49.1556 86.4144 49.094C86.5376 49.0324 86.5992 49.0324 86.7224 48.9708C86.8457 48.9092 86.9689 48.9708 87.0305 48.9708C87.0921 48.9708 87.2153 49.0324 87.3385 49.0324L87.2153 49.7717C87.1537 49.7717 87.0921 49.7101 87.0305 49.7101C86.9689 49.7101 86.9073 49.7101 86.8457 49.6485C86.5376 49.5869 86.2296 49.6485 86.0447 49.8333C85.8599 50.0182 85.7367 50.2646 85.6751 50.6959L85.4902 52.4826L84.8125 52.421L85.367 48.9092Z" fill="#FFFDFD"/>
<path d="M88.1423 49.6502C88.3887 49.5269 88.6351 49.4037 88.8816 49.3421C89.128 49.2805 89.3745 49.2805 89.6825 49.3421C89.929 49.4037 90.1754 49.4653 90.3602 49.5269C90.5451 49.6502 90.6683 49.7118 90.7915 49.8966C90.9147 50.0198 90.9764 50.143 90.9764 50.3279C91.038 50.4511 91.038 50.636 90.9764 50.8208L90.6683 52.6075C90.6683 52.7307 90.6067 52.8539 90.6067 52.9772C90.6067 53.1004 90.6067 53.162 90.6067 53.2852L89.9906 53.162C89.9906 52.9772 90.0522 52.7923 90.0522 52.6075C89.8674 52.7923 89.6825 52.9156 89.4361 52.9772C89.1896 53.0388 88.9432 53.0388 88.6968 52.9772C88.5119 52.9772 88.3887 52.9155 88.2655 52.8539C88.1422 52.7923 88.019 52.6691 87.8958 52.6075C87.7726 52.4843 87.711 52.361 87.711 52.2378C87.711 52.1146 87.6494 51.9298 87.711 51.7449C87.7726 51.4985 87.8342 51.3137 87.9574 51.1904C88.0806 51.0672 88.2655 50.944 88.4503 50.8824C88.6351 50.8208 88.8816 50.7592 89.128 50.7592C89.3745 50.7592 89.6209 50.7592 89.929 50.8208L90.4219 50.8824V50.7592C90.4219 50.6975 90.4219 50.5743 90.4219 50.4511C90.4219 50.3279 90.3602 50.2663 90.2986 50.2047C90.237 50.1431 90.1754 50.0198 90.0522 49.9582C89.929 49.8966 89.8057 49.835 89.6825 49.835C89.5593 49.835 89.4361 49.835 89.3129 49.835C89.1896 49.835 89.128 49.835 89.0048 49.8966C88.9432 49.8966 88.82 49.9582 88.7584 50.0198C88.6967 50.0814 88.6351 50.0814 88.5735 50.143L88.1423 49.6502ZM89.8057 51.3753C89.6209 51.3753 89.4977 51.3137 89.3129 51.3137C89.128 51.3137 89.0048 51.3137 88.82 51.3137C88.6967 51.3137 88.5735 51.3753 88.4503 51.4369C88.3271 51.4985 88.2655 51.6217 88.2655 51.7449C88.2039 51.9298 88.2655 52.1146 88.3887 52.2378C88.5119 52.361 88.6968 52.4226 88.9432 52.4842C89.128 52.5459 89.3129 52.4842 89.4361 52.4842C89.5593 52.4226 89.6825 52.361 89.8057 52.2994C89.929 52.2378 89.9906 52.1146 90.0522 51.9914C90.1138 51.8681 90.1754 51.7449 90.1754 51.6217L90.237 51.3753H89.8057Z" fill="#FFFDFD"/>
<path d="M92.2093 49.958L92.887 50.1428L92.7638 50.6973C92.887 50.5125 93.0719 50.3893 93.3183 50.3277C93.5648 50.266 93.8112 50.266 94.0576 50.3277C94.2425 50.3893 94.3657 50.4509 94.5505 50.5125C94.6738 50.5741 94.797 50.6973 94.9202 50.8822C94.9818 51.0054 95.0434 51.1902 95.105 51.3751C95.1666 51.5599 95.105 51.7447 95.0434 51.9912L94.4889 54.2708L93.8112 54.0859L94.3041 51.9912C94.3657 51.8063 94.3657 51.6831 94.3657 51.5599C94.3657 51.4367 94.3041 51.3134 94.2425 51.2518C94.1809 51.1902 94.1193 51.067 93.996 51.0054C93.9344 50.9438 93.8112 50.8822 93.688 50.8822C93.5648 50.8206 93.4415 50.8206 93.2567 50.8822C93.1335 50.8822 93.0103 50.9438 92.887 51.0054C92.7638 51.067 92.7022 51.1902 92.579 51.3135C92.5174 51.4367 92.3942 51.6215 92.3942 51.8063L91.9629 53.5931L91.2852 53.4082L92.2093 49.958Z" fill="#FFFDFD"/>
<path d="M97.8788 52.4832C97.8172 52.36 97.7556 52.2368 97.694 52.1751C97.6324 52.1135 97.4476 51.9903 97.3244 51.9287C97.1395 51.8671 97.0163 51.8671 96.8931 51.8671C96.7698 51.8671 96.6466 51.9903 96.6466 52.1135C96.585 52.2368 96.6466 52.2984 96.6466 52.4216C96.7082 52.4832 96.7699 52.6064 96.8315 52.6681C96.8931 52.7297 97.0163 52.7913 97.0779 52.8529C97.1395 52.9145 97.2627 52.9761 97.3244 52.9761C97.4476 53.0377 97.5708 53.1609 97.694 53.2225C97.8172 53.2841 97.8788 53.4074 97.9405 53.5306C98.0021 53.6538 98.0637 53.7771 98.0637 53.9003C98.0637 54.0235 98.0637 54.1467 98.0021 54.3315C97.9405 54.5164 97.8172 54.7012 97.694 54.7628C97.5708 54.8244 97.4476 54.9477 97.2627 55.0093C97.0779 55.0709 96.9547 55.0709 96.7699 55.0709C96.585 55.0709 96.4002 55.0092 96.277 54.9476C95.9689 54.8244 95.7841 54.7012 95.5992 54.578C95.4144 54.4548 95.2912 54.2083 95.168 53.9003L95.7841 53.6538C95.8457 53.777 95.9689 53.9002 96.0305 54.0235C96.1537 54.1467 96.277 54.2699 96.4618 54.3315C96.5234 54.3315 96.6466 54.3932 96.7082 54.3932C96.7699 54.3932 96.8931 54.3932 96.9547 54.3932C97.0163 54.3932 97.0779 54.3315 97.1395 54.3315C97.2011 54.2699 97.2627 54.2083 97.2627 54.1467C97.3244 54.0235 97.2627 53.9619 97.2627 53.9003C97.2011 53.8387 97.1395 53.7154 97.0779 53.6538C97.0163 53.5922 96.9547 53.5306 96.8315 53.469C96.7082 53.4074 96.6466 53.3458 96.585 53.3458C96.4618 53.2842 96.3386 53.1609 96.2154 53.0993C96.0921 53.0377 96.0305 52.9145 95.9689 52.7912C95.9073 52.668 95.8457 52.5448 95.8457 52.4216C95.8457 52.2984 95.8457 52.1751 95.9073 51.9903C95.9689 51.8055 96.0305 51.6823 96.1537 51.559C96.277 51.4358 96.4002 51.3742 96.585 51.3126C96.7698 51.251 96.8931 51.251 97.0779 51.251C97.2627 51.251 97.386 51.3126 97.5708 51.3126C97.8172 51.3742 98.0021 51.4974 98.1869 51.6823C98.3717 51.8671 98.495 52.0519 98.5566 52.2984L97.8788 52.4832Z" fill="#FFFDFD"/>
<path d="M100.404 50.1436L101.02 50.39L98.9872 55.7502L98.3711 55.5037L100.404 50.1436Z" fill="#FFFDFD"/>
<path d="M101.204 53.2228C101.45 53.1612 101.697 53.0996 102.005 53.0996C102.313 53.0996 102.498 53.1613 102.744 53.2845C102.991 53.4077 103.176 53.5309 103.299 53.6541C103.422 53.7773 103.545 53.9622 103.607 54.0854C103.668 54.2086 103.73 54.3935 103.668 54.5167C103.607 54.6399 103.607 54.8247 103.545 54.9479L102.806 56.6114C102.744 56.7347 102.683 56.8579 102.683 56.9195C102.621 57.0427 102.621 57.1043 102.559 57.2275L102.005 56.9811C102.067 56.7963 102.128 56.6114 102.19 56.4882C101.943 56.6114 101.697 56.7347 101.512 56.7347C101.266 56.7347 101.019 56.6731 100.773 56.5498C100.649 56.4882 100.465 56.4266 100.341 56.3034C100.218 56.1802 100.157 56.057 100.033 55.9337C99.9718 55.8105 99.9102 55.6873 99.9102 55.5024C99.9102 55.3176 99.9102 55.1944 100.033 55.0096C100.157 54.8247 100.28 54.6399 100.403 54.5167C100.588 54.3935 100.773 54.3318 100.958 54.3318C101.142 54.3318 101.389 54.3319 101.635 54.3935C101.882 54.4551 102.128 54.5167 102.375 54.6399L102.806 54.8247L102.867 54.7015C102.929 54.6399 102.929 54.5167 102.929 54.4551C102.929 54.3934 102.929 54.2702 102.867 54.147C102.806 54.0238 102.744 53.9622 102.683 53.9006C102.621 53.839 102.498 53.7773 102.375 53.7157C102.251 53.6541 102.128 53.6541 102.067 53.5925C101.943 53.5925 101.882 53.5925 101.758 53.5925C101.697 53.5925 101.574 53.5925 101.512 53.6541C101.45 53.6541 101.327 53.7157 101.266 53.7157L101.204 53.2228ZM102.375 55.3176C102.251 55.256 102.067 55.1944 101.882 55.1328C101.697 55.0712 101.574 55.0712 101.389 55.0096C101.266 55.0096 101.081 55.0096 101.019 55.0712C100.896 55.1328 100.834 55.1944 100.773 55.3176C100.711 55.5025 100.711 55.6873 100.773 55.8105C100.834 55.9337 101.019 56.0569 101.266 56.1802C101.45 56.2418 101.574 56.3034 101.758 56.3034C101.882 56.3034 102.067 56.2418 102.128 56.1802C102.251 56.1185 102.313 56.057 102.436 55.9337C102.498 55.8105 102.559 55.7489 102.621 55.6257L102.683 55.4409L102.375 55.3176Z" fill="#FFFDFD"/>
<path d="M106.44 55.8723L105.578 55.441L104.838 56.9197C104.777 56.9813 104.777 57.1045 104.715 57.1661C104.653 57.2277 104.653 57.3509 104.653 57.4125C104.653 57.4742 104.653 57.5974 104.715 57.659C104.777 57.7206 104.838 57.7822 104.961 57.8438C105.023 57.9054 105.085 57.9054 105.208 57.9671C105.269 57.9671 105.393 58.0287 105.454 58.0287L105.146 58.5832C105.023 58.5832 104.961 58.5832 104.838 58.5216C104.715 58.46 104.592 58.46 104.53 58.3983C104.284 58.2751 104.161 58.1519 104.037 58.0287C103.914 57.9054 103.914 57.7822 103.914 57.5974C103.914 57.4742 103.914 57.351 103.976 57.1661C104.037 57.0429 104.099 56.9197 104.161 56.7964L105.023 55.133L104.345 54.7633L104.592 54.2088L105.27 54.5785L105.762 53.6543L106.378 53.9624L105.886 54.8865L106.748 55.3178L106.44 55.8723Z" fill="#FFFDFD"/>
<path d="M107.552 55.8088L108.168 56.1784L106.382 59.3206L105.766 58.9509L107.552 55.8088ZM108.045 54.6382C108.107 54.5149 108.23 54.4533 108.353 54.3917C108.477 54.3301 108.6 54.3917 108.723 54.4533C108.846 54.5149 108.908 54.6382 108.969 54.7614C109.031 54.8846 108.969 55.0079 108.908 55.1311C108.846 55.2543 108.723 55.3159 108.6 55.3775C108.476 55.4391 108.353 55.3775 108.23 55.3159C108.107 55.2543 108.045 55.1311 107.984 55.0078C107.984 54.8846 107.984 54.7614 108.045 54.6382Z" fill="#FFFDFD"/>
<path d="M108.042 58.1519C108.165 57.9055 108.35 57.7206 108.596 57.5974C108.843 57.4742 109.028 57.351 109.274 57.2894C109.52 57.2278 109.767 57.2278 110.013 57.2894C110.26 57.351 110.506 57.4126 110.753 57.5974C110.999 57.7823 111.184 57.9055 111.307 58.1519C111.43 58.3983 111.554 58.5832 111.615 58.8296C111.677 59.0761 111.677 59.3225 111.615 59.5689C111.554 59.8154 111.492 60.0619 111.307 60.2467C111.184 60.4931 110.999 60.6779 110.753 60.8012C110.568 60.9244 110.321 61.0476 110.075 61.1092C109.828 61.1708 109.582 61.1708 109.336 61.1092C109.089 61.0476 108.843 60.986 108.596 60.8012C108.35 60.6163 108.165 60.4931 108.042 60.2467C107.919 60.0002 107.795 59.8154 107.734 59.5689C107.672 59.3225 107.672 59.0761 107.734 58.8296C107.795 58.5832 107.857 58.3983 108.042 58.1519ZM108.658 58.5216C108.535 58.6448 108.473 58.8296 108.473 59.0145C108.411 59.1993 108.411 59.3225 108.473 59.4458C108.473 59.569 108.535 59.7538 108.658 59.877C108.781 60.0002 108.843 60.1235 109.028 60.2467C109.151 60.3699 109.336 60.4315 109.52 60.4315C109.705 60.4315 109.828 60.4315 109.952 60.4315C110.075 60.3699 110.26 60.3083 110.383 60.2467C110.506 60.1235 110.629 60.0002 110.753 59.877C110.876 59.7538 110.937 59.569 110.937 59.3841C110.999 59.1993 110.999 59.0761 110.937 58.9528C110.937 58.8296 110.876 58.6448 110.753 58.5216C110.629 58.3984 110.568 58.2751 110.383 58.1519C110.26 58.0287 110.075 57.9671 109.89 57.9671C109.705 57.9671 109.582 57.9671 109.459 57.9671C109.336 58.0287 109.151 58.0903 109.028 58.1519C108.843 58.2751 108.719 58.3984 108.658 58.5216Z" fill="#FFFDFD"/>
<path d="M112.973 59.2598L113.527 59.691L113.219 60.1223C113.404 59.9991 113.589 59.9991 113.835 59.9991C114.082 59.9991 114.328 60.1223 114.513 60.3072C114.636 60.4304 114.759 60.5536 114.883 60.6768C115.006 60.8001 115.068 60.9849 115.068 61.1081C115.068 61.2313 115.068 61.4162 115.006 61.601C114.944 61.7858 114.883 61.9707 114.698 62.1555L113.281 64.0038L112.726 63.5725L114.02 61.9091C114.143 61.7858 114.205 61.6626 114.205 61.5394C114.267 61.4162 114.267 61.2929 114.267 61.1697C114.267 61.0465 114.205 60.9849 114.143 60.8617C114.082 60.7385 114.02 60.6768 113.959 60.6152C113.835 60.5536 113.712 60.492 113.589 60.4304C113.466 60.3688 113.342 60.3688 113.219 60.4304C113.096 60.4304 112.973 60.492 112.85 60.6152C112.726 60.6768 112.603 60.8617 112.48 60.9849L111.371 62.4635L110.816 62.0323L112.973 59.2598Z" fill="#FFFDFD"/>
<path d="M119.378 62.1562L120.118 62.9572L118.393 67.0235L122.521 65.36L123.26 66.161L119.44 69.9192L118.947 69.4263L122.089 66.3458L117.653 68.1325L117.284 67.7629L119.194 63.3269L116.051 66.4074L115.559 65.9761L119.378 62.1562Z" fill="#FFFDFD"/>
<path d="M122.89 68.44L123.321 68.9945L120.548 71.3357L120.117 70.7812L122.89 68.44ZM123.752 67.5158C123.875 67.4542 123.999 67.3926 124.122 67.3926C124.245 67.3926 124.368 67.4542 124.492 67.5774C124.553 67.7006 124.615 67.8239 124.615 67.9471C124.615 68.0703 124.553 68.1935 124.43 68.3167C124.307 68.3784 124.184 68.44 124.06 68.44C123.937 68.44 123.814 68.3784 123.691 68.2551C123.629 68.1319 123.567 68.0087 123.567 67.8855C123.629 67.7006 123.629 67.5774 123.752 67.5158Z" fill="#FFFDFD"/>
<path d="M124.495 71.9517C124.557 71.8284 124.557 71.7052 124.495 71.582C124.495 71.4588 124.434 71.3356 124.31 71.1507C124.187 71.0275 124.125 70.9043 124.002 70.9043C123.879 70.8427 123.756 70.8426 123.633 70.9659C123.571 71.0275 123.509 71.0891 123.509 71.2123C123.509 71.3355 123.509 71.3972 123.509 71.5204C123.509 71.6436 123.571 71.7052 123.633 71.8284C123.694 71.9517 123.694 72.0133 123.756 72.0749C123.817 72.1981 123.879 72.3213 123.879 72.5061C123.941 72.6294 123.941 72.7526 123.941 72.8758C123.941 72.999 123.879 73.1223 123.817 73.2455C123.756 73.3687 123.633 73.4919 123.509 73.5535C123.325 73.6768 123.201 73.7384 123.016 73.7384C122.832 73.7384 122.708 73.7384 122.524 73.6768C122.339 73.6151 122.216 73.5535 122.092 73.4303C121.969 73.3071 121.846 73.1839 121.723 73.0606C121.538 72.8142 121.415 72.5678 121.353 72.3213C121.291 72.0749 121.291 71.8284 121.415 71.5204L122.092 71.6436C122.092 71.8284 122.092 71.9517 122.092 72.1365C122.092 72.3213 122.154 72.4445 122.277 72.6294C122.339 72.691 122.4 72.7526 122.462 72.8142C122.524 72.8758 122.585 72.9374 122.647 72.9374C122.708 72.999 122.77 72.9991 122.893 72.9991C122.955 72.9991 123.016 72.999 123.078 72.9374C123.14 72.8758 123.201 72.8142 123.201 72.691C123.201 72.6294 123.201 72.5062 123.201 72.4445C123.201 72.3213 123.14 72.2597 123.078 72.1365C123.016 72.0133 123.016 71.9516 122.955 71.89C122.893 71.7668 122.832 71.6436 122.77 71.4588C122.708 71.3356 122.708 71.2123 122.708 71.0891C122.708 70.9659 122.708 70.8427 122.77 70.7194C122.832 70.5962 122.893 70.473 123.078 70.4114C123.201 70.2882 123.386 70.2266 123.571 70.2266C123.756 70.2266 123.879 70.2265 124.064 70.2882C124.249 70.3498 124.372 70.4114 124.495 70.5346C124.618 70.6578 124.742 70.781 124.865 70.9043C124.988 71.0891 125.111 71.3355 125.173 71.5204C125.234 71.7668 125.234 72.0132 125.111 72.1981L124.495 71.9517Z" fill="#FFFDFD"/>
<path d="M126.405 74.7254C126.467 74.6022 126.467 74.4789 126.467 74.3557C126.467 74.2325 126.405 74.0477 126.282 73.9245C126.22 73.8012 126.097 73.678 125.974 73.6164C125.851 73.5548 125.727 73.5548 125.604 73.6164C125.543 73.678 125.481 73.7396 125.419 73.8628C125.358 73.986 125.419 74.0477 125.419 74.1709C125.419 74.2941 125.481 74.3557 125.481 74.4789C125.481 74.6022 125.543 74.6638 125.604 74.7254C125.666 74.8486 125.727 75.0335 125.727 75.1567C125.727 75.2799 125.789 75.4031 125.727 75.5263C125.666 75.6495 125.666 75.7728 125.604 75.896C125.543 76.0192 125.419 76.0808 125.296 76.204C125.111 76.3273 124.988 76.3889 124.803 76.3889C124.618 76.3889 124.495 76.3889 124.31 76.3273C124.125 76.2656 124.002 76.1424 123.879 76.0192C123.756 75.896 123.633 75.7728 123.509 75.5879C123.325 75.3415 123.263 75.0951 123.201 74.8486C123.14 74.6022 123.201 74.3557 123.263 74.0476L123.879 74.2325C123.879 74.4173 123.817 74.5406 123.817 74.7254C123.817 74.9102 123.879 75.0334 124.002 75.2183C124.064 75.2799 124.125 75.3415 124.187 75.4031C124.249 75.4647 124.31 75.5263 124.372 75.5263C124.434 75.5879 124.495 75.5879 124.557 75.5879C124.618 75.5879 124.68 75.5879 124.742 75.5263C124.803 75.4647 124.865 75.4031 124.926 75.2799C124.926 75.2183 124.926 75.0951 124.926 75.0334C124.926 74.9102 124.865 74.8486 124.865 74.7254C124.865 74.6022 124.803 74.5405 124.742 74.4789C124.68 74.3557 124.618 74.1709 124.618 74.0476C124.557 73.9244 124.557 73.8012 124.557 73.678C124.557 73.5548 124.618 73.4316 124.68 73.3083C124.742 73.1851 124.865 73.0619 124.988 73.0003C125.173 72.8771 125.296 72.8154 125.481 72.8154C125.666 72.8154 125.789 72.8155 125.974 72.8771C126.097 72.9387 126.282 73.0003 126.405 73.1235C126.528 73.2467 126.652 73.37 126.713 73.4932C126.836 73.678 126.96 73.9244 126.96 74.1709C127.021 74.4173 126.96 74.6638 126.898 74.8486L126.405 74.7254Z" fill="#FFFDFD"/>
<path d="M128.006 75.5257L128.376 76.1418L125.295 77.9901L124.926 77.374L128.006 75.5257ZM129.054 74.7247C129.177 74.6631 129.3 74.6631 129.423 74.6631C129.547 74.6631 129.67 74.7863 129.731 74.9095C129.793 75.0328 129.793 75.156 129.793 75.2792C129.793 75.4024 129.67 75.5256 129.547 75.5872C129.423 75.6489 129.3 75.6489 129.177 75.6489C129.054 75.6489 128.93 75.5256 128.869 75.4024C128.807 75.2792 128.807 75.156 128.807 75.0328C128.807 74.9096 128.93 74.7863 129.054 74.7247Z" fill="#FFFDFD"/>
<path d="M127.267 77.8049C127.513 77.6817 127.76 77.6201 128.006 77.6201C128.253 77.6201 128.499 77.6201 128.746 77.6817C128.992 77.7433 129.177 77.8665 129.362 78.0514C129.547 78.2362 129.731 78.421 129.855 78.6675C129.978 78.9139 130.04 79.1604 130.101 79.4068C130.101 79.6533 130.101 79.8997 130.04 80.1461C129.978 80.3926 129.855 80.5774 129.67 80.7623C129.485 80.9471 129.3 81.1319 129.115 81.2551C128.931 81.3784 128.622 81.44 128.376 81.44C128.13 81.44 127.883 81.44 127.637 81.3784C127.39 81.3168 127.205 81.1936 127.021 81.0087C126.836 80.8239 126.651 80.6391 126.528 80.3926C126.404 80.1462 126.343 79.8997 126.281 79.6533C126.281 79.4068 126.281 79.1604 126.343 78.9139C126.404 78.6675 126.528 78.4827 126.713 78.2978C126.897 78.113 127.021 77.9282 127.267 77.8049ZM127.637 78.4211C127.452 78.4827 127.329 78.6059 127.205 78.7291C127.082 78.8523 127.021 78.9755 126.959 79.0988C126.897 79.222 126.897 79.4068 126.897 79.53C126.897 79.6533 126.959 79.8381 127.021 80.0229C127.082 80.2078 127.205 80.331 127.329 80.3926C127.452 80.5158 127.575 80.5774 127.76 80.5774C127.883 80.639 128.068 80.639 128.191 80.5774C128.376 80.5774 128.499 80.5158 128.684 80.3926C128.869 80.331 128.992 80.2078 129.115 80.0846C129.239 79.9613 129.3 79.8381 129.362 79.7149C129.423 79.5916 129.423 79.4068 129.423 79.2836C129.423 79.1604 129.362 78.9755 129.3 78.7907C129.239 78.6059 129.115 78.4827 128.992 78.4211C128.869 78.2978 128.746 78.2362 128.561 78.2362C128.438 78.1746 128.253 78.1746 128.13 78.2362C128.006 78.2978 127.76 78.3594 127.637 78.4211Z" fill="#FFFDFD"/>
<path d="M131.025 81.1953L131.272 81.8114L130.779 82.0578C130.964 82.0578 131.21 82.1195 131.395 82.3043C131.58 82.4275 131.765 82.674 131.826 82.9204C131.888 83.1052 131.949 83.2285 131.949 83.4133C131.949 83.5981 131.949 83.7213 131.888 83.9062C131.826 84.0294 131.765 84.2142 131.58 84.3375C131.457 84.4607 131.272 84.5839 131.025 84.7071L128.869 85.6313L128.622 85.0152L130.594 84.1526C130.717 84.091 130.84 84.0294 130.964 83.9062C131.025 83.8446 131.149 83.7213 131.149 83.5981C131.21 83.4749 131.21 83.4133 131.21 83.2901C131.21 83.1668 131.149 83.1052 131.149 82.982C131.087 82.8588 131.025 82.7356 130.902 82.674C130.84 82.5507 130.717 82.4891 130.594 82.4891C130.471 82.4275 130.348 82.4275 130.163 82.4275C129.978 82.4275 129.855 82.4891 129.608 82.5508L127.883 83.2901L127.637 82.674L131.025 81.1953Z" fill="#FFFDFD"/>
<path d="M41.8715 140.031L43.1654 141.325C43.3502 141.51 43.4734 141.633 43.535 141.818C43.6583 142.003 43.7199 142.188 43.7199 142.372C43.7199 142.557 43.7199 142.742 43.6583 142.927C43.5967 143.112 43.4734 143.297 43.3502 143.42C43.1038 143.605 42.9189 143.728 42.6109 143.79C42.3644 143.79 42.118 143.728 41.8715 143.605C41.9948 143.728 42.0564 143.851 42.118 144.036C42.1796 144.159 42.1796 144.344 42.1796 144.467C42.1796 144.652 42.118 144.775 42.0564 144.96C41.9948 145.083 41.8715 145.268 41.7483 145.391C41.5635 145.576 41.3787 145.699 41.1938 145.761C41.009 145.823 40.7626 145.823 40.5777 145.823C40.3929 145.761 40.1464 145.699 39.9616 145.576C39.7768 145.453 39.5919 145.33 39.4071 145.145L38.1133 143.851L41.8715 140.031ZM39.0374 143.851L39.7768 144.59C39.8384 144.652 39.9616 144.775 40.0848 144.837C40.2081 144.899 40.3313 144.96 40.4545 145.022C40.5777 145.083 40.7009 145.083 40.8858 145.022C41.009 145.022 41.1322 144.899 41.317 144.775C41.5635 144.529 41.6251 144.344 41.6251 144.036C41.5635 143.79 41.4403 143.543 41.1938 143.297L40.4545 142.557L39.0374 143.851ZM40.8242 142.064L41.5019 142.742C41.6251 142.865 41.6867 142.927 41.8099 142.989C41.9332 143.05 41.9948 143.112 42.118 143.112C42.2412 143.112 42.3644 143.112 42.426 143.112C42.5493 143.05 42.6109 142.989 42.7341 142.927C42.8573 142.804 42.9805 142.619 42.9805 142.372C42.9805 142.188 42.9189 141.941 42.6725 141.756L41.8715 140.955L40.8242 142.064Z" fill="#FFFDFD"/>
<path d="M42.486 145.636C42.6708 145.451 42.8556 145.266 43.1021 145.204C43.3485 145.143 43.5333 145.02 43.7798 145.02C44.0262 145.02 44.2727 145.02 44.5191 145.081C44.7656 145.143 44.9504 145.266 45.1968 145.451C45.3817 145.636 45.5665 145.82 45.6897 146.067C45.813 146.313 45.8746 146.498 45.8746 146.745C45.8746 146.991 45.8746 147.238 45.813 147.484C45.7513 147.73 45.6281 147.915 45.4433 148.162C45.2585 148.347 45.0736 148.531 44.8272 148.593C44.5807 148.716 44.3959 148.778 44.1495 148.778C43.903 148.778 43.6566 148.778 43.4101 148.716C43.1637 148.655 42.9789 148.531 42.7324 148.347C42.5476 148.162 42.3627 147.977 42.2395 147.73C42.1163 147.484 42.0547 147.299 42.0547 147.053C42.0547 146.806 42.0547 146.56 42.1163 146.313C42.2395 146.067 42.3627 145.882 42.486 145.636ZM43.0405 146.129C42.9172 146.252 42.8556 146.437 42.794 146.56C42.7324 146.683 42.7324 146.868 42.7324 146.991C42.7324 147.114 42.794 147.299 42.8556 147.422C42.9172 147.546 43.0405 147.669 43.1637 147.792C43.2869 147.915 43.4717 147.977 43.595 148.038C43.7182 148.1 43.903 148.1 44.0262 148.1C44.1495 148.1 44.3343 148.038 44.4575 147.977C44.5807 147.915 44.704 147.792 44.8272 147.669C44.9504 147.546 45.012 147.361 45.0736 147.238C45.1352 147.114 45.1352 146.929 45.1352 146.806C45.1352 146.683 45.0736 146.498 45.012 146.375C44.9504 146.252 44.8272 146.129 44.704 146.005C44.5807 145.882 44.3959 145.82 44.2727 145.759C44.1495 145.697 43.9646 145.697 43.8414 145.697C43.7182 145.697 43.5333 145.759 43.4101 145.82C43.2869 145.882 43.1637 146.005 43.0405 146.129Z" fill="#FFFDFD"/>
<path d="M48.5283 145.576L49.0828 146.007L45.6326 150.505L45.0781 150.074L48.5283 145.576Z" fill="#FFFDFD"/>
<path d="M47.4129 149.702C47.5361 149.455 47.7209 149.332 47.9674 149.209C48.2138 149.085 48.3986 148.962 48.6451 148.962C48.8915 148.901 49.138 148.901 49.3844 148.962C49.6308 149.024 49.8773 149.085 50.0621 149.27C50.3086 149.394 50.4318 149.578 50.6166 149.825C50.7398 150.01 50.8631 150.256 50.8631 150.502C50.9247 150.749 50.9247 150.995 50.8631 151.242C50.8015 151.488 50.7398 151.735 50.555 151.92C50.4318 152.166 50.247 152.289 50.0005 152.474C49.7541 152.659 49.5692 152.72 49.3228 152.72C49.0764 152.782 48.8299 152.782 48.5835 152.72C48.337 152.659 48.0906 152.597 47.9057 152.412C47.6593 152.289 47.5361 152.104 47.3512 151.858C47.228 151.673 47.1048 151.427 47.1048 151.18C47.0432 150.934 47.0432 150.687 47.1048 150.441C47.1664 150.194 47.2896 149.886 47.4129 149.702ZM48.029 150.071C47.9057 150.194 47.8441 150.379 47.8441 150.502C47.7825 150.687 47.7825 150.811 47.8441 150.934C47.8441 151.057 47.9057 151.242 48.029 151.365C48.1522 151.488 48.2138 151.611 48.3986 151.735C48.5219 151.858 48.7067 151.92 48.8299 151.92C49.0147 151.92 49.138 151.92 49.2612 151.92C49.3844 151.92 49.5692 151.796 49.6925 151.735C49.8157 151.611 49.9389 151.488 50.0621 151.365C50.1853 151.242 50.247 151.057 50.247 150.934C50.3086 150.749 50.3086 150.626 50.247 150.502C50.247 150.379 50.1853 150.194 50.0621 150.071C50.0005 149.948 49.8773 149.825 49.6925 149.702C49.5692 149.578 49.3844 149.517 49.2612 149.517C49.0764 149.517 48.9531 149.517 48.8299 149.517C48.7067 149.578 48.5219 149.64 48.3986 149.702C48.2754 149.825 48.1522 149.948 48.029 150.071Z" fill="#FFFDFD"/>
<path d="M55.0534 150.318L55.6695 150.688L53.1435 155.37L52.5273 155.001L55.0534 150.318Z" fill="#FFFDFD"/>
<path d="M55.8558 152.721L56.4719 153.029L56.2255 153.522C56.4103 153.398 56.5951 153.337 56.8416 153.275C57.088 153.275 57.3345 153.337 57.5809 153.398C57.7041 153.46 57.8889 153.583 58.0122 153.707C58.1354 153.83 58.197 153.953 58.2586 154.076C58.3202 154.199 58.3202 154.384 58.3202 154.569C58.3202 154.754 58.2586 154.939 58.1354 155.185L57.1496 157.28L56.5335 156.972L57.4577 155.062C57.5193 154.939 57.5809 154.754 57.5809 154.631C57.5809 154.507 57.5809 154.384 57.5193 154.323C57.4577 154.199 57.3961 154.138 57.3345 154.076C57.2728 154.015 57.1496 153.953 57.088 153.891C56.9648 153.83 56.8416 153.768 56.7183 153.768C56.5951 153.768 56.4719 153.768 56.3487 153.83C56.2255 153.891 56.1022 153.953 55.979 154.076C55.8558 154.199 55.7942 154.323 55.671 154.507L54.87 156.171L54.2539 155.863L55.8558 152.721Z" fill="#FFFDFD"/>
<path d="M61.7103 159.067L61.0942 158.821L61.2791 158.328C61.0942 158.451 60.8478 158.513 60.6013 158.575C60.3549 158.575 60.1085 158.575 59.862 158.451C59.6156 158.328 59.3691 158.205 59.1843 158.082C58.9995 157.897 58.8762 157.712 58.8146 157.527C58.753 157.342 58.6914 157.096 58.6914 156.849C58.6914 156.603 58.753 156.357 58.8146 156.11C58.8762 155.864 59.0611 155.617 59.1843 155.432C59.3691 155.248 59.554 155.124 59.7388 155.001C59.9236 154.878 60.1701 154.816 60.4165 154.816C60.663 154.816 60.9094 154.878 61.1558 154.94C61.4023 155.001 61.5871 155.186 61.772 155.371C61.9568 155.556 62.08 155.74 62.08 155.987L63.0042 153.522L63.6203 153.769L61.7103 159.067ZM60.1701 157.897C60.3549 157.958 60.4781 157.958 60.663 157.958C60.8478 157.958 60.971 157.897 61.0942 157.835C61.2175 157.774 61.3407 157.65 61.4639 157.527C61.5871 157.404 61.6487 157.281 61.7103 157.096C61.772 156.911 61.8336 156.788 61.8336 156.603C61.8336 156.418 61.8336 156.295 61.772 156.172C61.7103 156.049 61.6487 155.925 61.5255 155.802C61.4023 155.679 61.2791 155.617 61.0942 155.556C60.9094 155.494 60.7862 155.494 60.6013 155.494C60.4165 155.494 60.2933 155.556 60.1701 155.617C60.0468 155.679 59.9236 155.802 59.8004 155.925C59.6772 156.049 59.6156 156.172 59.554 156.357C59.4923 156.541 59.4307 156.665 59.4307 156.849C59.4307 157.034 59.4307 157.158 59.4923 157.281C59.554 157.404 59.6156 157.527 59.7388 157.65C59.862 157.774 59.9852 157.835 60.1701 157.897Z" fill="#FFFDFD"/>
<path d="M63.9263 155.987L64.604 156.171L63.5566 159.56L62.8789 159.375L63.9263 155.987ZM64.1727 154.754C64.2343 154.631 64.296 154.508 64.4192 154.446C64.5424 154.385 64.6656 154.385 64.7888 154.385C64.9121 154.446 65.0353 154.508 65.0969 154.631C65.1585 154.754 65.1585 154.878 65.1585 155.001C65.1585 155.124 65.0353 155.247 64.9121 155.309C64.7888 155.371 64.6656 155.371 64.5424 155.371C64.4192 155.309 64.296 155.247 64.2343 155.124C64.1111 155.001 64.1111 154.878 64.1727 154.754Z" fill="#FFFDFD"/>
<path d="M65.4677 156.912C65.7142 156.788 65.9606 156.727 66.207 156.665C66.4535 156.604 66.6999 156.665 66.9464 156.727C67.1928 156.788 67.4393 156.85 67.5625 156.973C67.7473 157.096 67.8705 157.22 67.9321 157.343C67.9938 157.466 68.0554 157.651 68.117 157.774C68.1786 157.897 68.117 158.082 68.117 158.205L67.6857 159.992C67.6857 160.115 67.6241 160.239 67.6241 160.3C67.6241 160.423 67.5625 160.485 67.5625 160.608L67.008 160.485C67.008 160.3 67.0696 160.115 67.1312 159.931C66.9464 160.115 66.6999 160.239 66.5151 160.3C66.2687 160.362 66.0222 160.3 65.7758 160.239C65.5909 160.177 65.4677 160.115 65.3445 160.054C65.2213 159.992 65.098 159.869 65.0364 159.746C64.9748 159.622 64.9132 159.499 64.8516 159.376C64.79 159.253 64.8516 159.068 64.8516 158.883C64.9132 158.637 64.9748 158.514 65.1597 158.329C65.2829 158.205 65.4677 158.144 65.6525 158.082C65.8374 158.021 66.0838 158.021 66.3303 158.021C66.5767 158.021 66.8232 158.082 67.0696 158.144L67.5625 158.267L67.6241 158.144C67.6241 158.082 67.6241 157.959 67.6241 157.897C67.6241 157.836 67.5625 157.713 67.5009 157.651C67.4393 157.589 67.3776 157.466 67.316 157.405C67.2544 157.343 67.1312 157.281 66.9464 157.281C66.8232 157.22 66.6999 157.22 66.5767 157.22C66.4535 157.22 66.3919 157.22 66.2687 157.22C66.207 157.22 66.0838 157.281 66.0222 157.281C65.9606 157.343 65.899 157.343 65.7758 157.405L65.4677 156.912ZM67.008 158.76C66.8232 158.698 66.6999 158.698 66.5151 158.637C66.3303 158.637 66.207 158.637 66.0222 158.637C65.899 158.637 65.7758 158.698 65.6525 158.76C65.5293 158.822 65.4677 158.945 65.4677 159.068C65.4061 159.253 65.4677 159.438 65.5909 159.561C65.7142 159.684 65.899 159.746 66.0838 159.807C66.2687 159.869 66.4535 159.869 66.5767 159.807C66.6999 159.807 66.8232 159.746 66.9464 159.622C67.0696 159.561 67.1312 159.438 67.1928 159.314C67.2544 159.191 67.316 159.068 67.316 158.945L67.3777 158.698L67.008 158.76Z" fill="#FFFDFD"/>
<path d="M71.1992 158.699C71.1992 158.514 71.2608 158.329 71.3841 158.206C71.4457 158.083 71.5689 157.96 71.7537 157.836C71.8769 157.713 72.0618 157.652 72.185 157.59C72.3698 157.528 72.5547 157.528 72.7395 157.528C72.9243 157.528 73.1092 157.59 73.2324 157.713C73.3556 157.775 73.4788 157.898 73.602 158.083C73.7253 158.268 73.7869 158.391 73.8485 158.514C73.9101 158.637 73.9101 158.884 73.9101 159.069C73.9101 159.253 73.8485 159.438 73.7253 159.562C73.6637 159.685 73.5404 159.808 73.3556 159.931C73.2324 160.054 73.0475 160.116 72.9243 160.178C72.7395 160.239 72.5547 160.239 72.3698 160.239C72.185 160.239 72.0002 160.178 71.8769 160.054C71.7537 159.993 71.6305 159.87 71.5073 159.685C71.3841 159.561 71.3224 159.377 71.2608 159.253C71.1992 159.069 71.1992 158.884 71.1992 158.699Z" fill="#FFFDFD"/>
<path d="M81.7345 159.068L81.6728 161.717C81.5496 161.779 81.3648 161.841 81.2416 161.902C81.0567 161.964 80.8719 162.025 80.7487 162.025C80.5638 162.087 80.379 162.087 80.1942 162.087C80.0093 162.087 79.8245 162.087 79.7013 162.087C79.27 162.087 78.8387 162.025 78.4691 161.841C78.0994 161.656 77.853 161.471 77.6065 161.224C77.3601 160.978 77.1752 160.67 77.052 160.3C76.9288 159.931 76.8672 159.623 76.8672 159.253C76.8672 158.883 76.9288 158.514 77.1136 158.144C77.2369 157.774 77.4217 157.528 77.7297 157.281C77.9762 157.035 78.2842 156.85 78.5923 156.727C78.962 156.604 79.3316 156.542 79.7013 156.542C80.1942 156.542 80.5638 156.604 80.9335 156.727C81.2416 156.85 81.488 157.035 81.7345 157.22L81.2416 157.774C80.9951 157.589 80.8103 157.405 80.5638 157.343C80.3174 157.281 80.071 157.22 79.7629 157.22C79.4548 157.22 79.2084 157.281 78.962 157.405C78.7155 157.528 78.5307 157.651 78.3459 157.836C78.161 158.021 78.0378 158.267 77.9146 158.514C77.7914 158.76 77.7914 159.068 77.7297 159.314C77.7297 159.623 77.7914 159.869 77.853 160.177C77.9762 160.423 78.0994 160.67 78.2842 160.855C78.4691 161.04 78.6539 161.224 78.962 161.286C79.2084 161.409 79.4548 161.471 79.7629 161.471C80.0093 161.471 80.2558 161.471 80.5022 161.409C80.7487 161.348 80.9335 161.286 81.1183 161.224V159.746H79.9477V159.068H81.7345Z" fill="#FFFDFD"/>
<path d="M82.7812 160.237C82.7812 159.991 82.7812 159.744 82.8429 159.498C82.9045 159.251 83.0277 159.067 83.2125 158.882C83.3974 158.697 83.5822 158.574 83.767 158.45C84.0135 158.327 84.2599 158.266 84.5064 158.266C84.7528 158.266 84.9992 158.266 85.2457 158.327C85.4921 158.389 85.677 158.512 85.8618 158.697C86.0466 158.882 86.1698 159.067 86.2931 159.251C86.4163 159.498 86.4779 159.683 86.4779 159.991C86.4779 160.299 86.4779 160.484 86.4163 160.73C86.3547 160.977 86.2315 161.161 86.0466 161.346C85.8618 161.531 85.677 161.654 85.4921 161.777C85.2457 161.901 84.9992 161.962 84.7528 161.962C84.5064 161.962 84.2599 161.962 84.0135 161.901C83.767 161.839 83.5822 161.716 83.3974 161.531C83.2125 161.408 83.0893 161.161 82.9661 160.977C82.8429 160.73 82.7812 160.484 82.7812 160.237ZM83.5206 160.176C83.5206 160.36 83.5822 160.545 83.6438 160.668C83.7054 160.792 83.8286 160.915 83.8902 161.038C83.9519 161.161 84.1367 161.223 84.2599 161.285C84.3831 161.346 84.568 161.346 84.7528 161.346C84.9376 161.346 85.1225 161.285 85.2457 161.223C85.3689 161.161 85.4921 161.038 85.6154 160.915C85.677 160.792 85.8002 160.668 85.8002 160.484C85.8618 160.299 85.8618 160.176 85.8618 159.991C85.8618 159.806 85.8002 159.621 85.7386 159.498C85.677 159.375 85.5537 159.251 85.4921 159.128C85.4305 159.005 85.2457 158.943 85.1225 158.882C84.9992 158.82 84.8144 158.82 84.6296 158.82C84.4447 158.82 84.2599 158.882 84.1367 158.943C84.0135 159.005 83.8902 159.128 83.767 159.251C83.7054 159.375 83.5822 159.498 83.5822 159.683C83.5822 159.868 83.459 159.991 83.5206 160.176Z" fill="#FFFDFD"/>
<path d="M86.9727 155.863L87.6504 155.74L88.4513 161.347L87.7736 161.47L86.9727 155.863Z" fill="#FFFDFD"/>
<path d="M93.1329 160.544L92.4552 160.667L92.332 160.174C92.2704 160.359 92.0856 160.544 91.9007 160.729C91.7159 160.852 91.4695 160.975 91.223 161.037C90.9766 161.099 90.6685 161.099 90.4837 161.037C90.2372 160.975 90.0524 160.914 89.8676 160.729C89.6827 160.606 89.4979 160.421 89.3747 160.236C89.2515 160.051 89.1282 159.805 89.1282 159.558C89.0666 159.312 89.0666 159.065 89.1282 158.819C89.1899 158.573 89.2515 158.388 89.3747 158.141C89.4979 157.956 89.6827 157.772 89.8676 157.648C90.0524 157.525 90.2988 157.402 90.5453 157.34C90.7917 157.279 91.0382 157.279 91.2846 157.34C91.5311 157.402 91.7159 157.525 91.9007 157.648L91.4078 155.061L92.0856 154.938L93.1329 160.544ZM91.223 160.421C91.4078 160.359 91.5311 160.298 91.6543 160.236C91.7775 160.174 91.9007 160.051 91.9623 159.928C92.024 159.805 92.0856 159.682 92.0856 159.497C92.0856 159.312 92.0856 159.189 92.0856 159.004C92.024 158.819 91.9623 158.696 91.9007 158.511C91.8391 158.388 91.7159 158.264 91.5927 158.203C91.4695 158.141 91.3462 158.08 91.1614 158.018C90.9766 157.956 90.8533 157.956 90.6685 158.018C90.4837 158.08 90.3605 158.141 90.2372 158.203C90.114 158.264 89.9908 158.388 89.9292 158.511C89.8676 158.634 89.806 158.757 89.806 158.942C89.806 159.127 89.806 159.25 89.806 159.435C89.806 159.62 89.9292 159.743 89.9908 159.928C90.0524 160.051 90.1756 160.174 90.2988 160.236C90.4221 160.298 90.5453 160.359 90.7301 160.421C90.915 160.482 91.0382 160.421 91.223 160.421Z" fill="#FFFDFD"/>
<path d="M94.2422 154.817L95.0431 154.57L97.8772 158.205L98.0621 153.584L98.8014 153.338L98.4933 159.068L97.8772 159.253L94.2422 154.817Z" fill="#FFFDFD"/>
<path d="M99.5391 155.309C99.6623 155.063 99.7855 154.878 99.9703 154.693C100.155 154.508 100.402 154.385 100.586 154.262C100.833 154.139 101.018 154.077 101.264 154.077C101.449 154.077 101.634 154.077 101.819 154.139C101.942 154.2 102.127 154.262 102.188 154.385C102.312 154.508 102.373 154.632 102.435 154.755L103.112 156.418C103.174 156.542 103.236 156.665 103.236 156.726C103.297 156.85 103.297 156.911 103.359 156.973L102.804 157.219C102.743 157.034 102.62 156.911 102.558 156.726C102.496 156.973 102.435 157.219 102.25 157.404C102.127 157.589 101.88 157.712 101.634 157.835C101.511 157.897 101.326 157.959 101.141 157.959C100.956 157.959 100.833 157.959 100.71 157.897C100.586 157.835 100.463 157.774 100.34 157.712C100.217 157.589 100.155 157.466 100.094 157.343C100.032 157.158 99.9703 156.911 100.032 156.726C100.094 156.542 100.155 156.357 100.278 156.234C100.402 156.11 100.586 155.925 100.771 155.802C100.956 155.679 101.203 155.556 101.449 155.433L101.88 155.248L101.819 155.125C101.757 155.063 101.757 154.94 101.695 154.878C101.634 154.816 101.572 154.755 101.449 154.693C101.326 154.632 101.264 154.632 101.141 154.632C101.018 154.632 100.895 154.632 100.771 154.693C100.648 154.755 100.525 154.816 100.463 154.878C100.402 154.94 100.34 155.001 100.278 155.063C100.217 155.125 100.155 155.186 100.155 155.248C100.155 155.309 100.094 155.371 100.032 155.433L99.5391 155.309ZM101.88 155.864C101.757 155.925 101.572 155.987 101.449 156.049C101.326 156.11 101.203 156.234 101.079 156.295C100.956 156.418 100.895 156.48 100.833 156.603C100.771 156.726 100.771 156.85 100.833 156.973C100.895 157.158 101.018 157.281 101.203 157.281C101.387 157.281 101.572 157.281 101.757 157.219C101.942 157.158 102.065 157.034 102.188 156.973C102.312 156.911 102.373 156.726 102.373 156.603C102.435 156.48 102.435 156.357 102.373 156.234C102.373 156.11 102.312 155.987 102.312 155.864L102.25 155.679L101.88 155.864Z" fill="#FFFDFD"/>
<path d="M102.062 151.429L102.679 151.121L105.143 156.235L104.527 156.543L102.062 151.429Z" fill="#FFFDFD"/>
<path d="M103.855 151.488C103.793 151.365 103.793 151.242 103.793 151.119C103.793 150.995 103.916 150.872 104.039 150.811C104.163 150.749 104.286 150.749 104.409 150.749C104.532 150.811 104.656 150.872 104.717 150.995C104.779 151.119 104.779 151.242 104.779 151.365C104.717 151.488 104.656 151.612 104.532 151.673C104.409 151.735 104.286 151.735 104.163 151.735C103.978 151.673 103.916 151.612 103.855 151.488ZM104.532 152.536L105.148 152.228L106.812 155.37L106.196 155.678L104.532 152.536Z" fill="#FFFDFD"/>
<path d="M110.937 153.03L110.383 153.4L110.136 152.969C110.136 153.215 110.075 153.4 109.89 153.646C109.705 153.893 109.582 154.016 109.397 154.139C109.15 154.262 108.904 154.386 108.657 154.386C108.411 154.447 108.165 154.386 107.98 154.324C107.795 154.262 107.548 154.139 107.364 154.016C107.179 153.893 106.994 153.708 106.871 153.462C106.748 153.215 106.624 152.969 106.624 152.784C106.563 152.537 106.563 152.291 106.624 152.106C106.686 151.921 106.748 151.675 106.932 151.49C107.117 151.305 107.24 151.12 107.487 150.997C107.733 150.874 107.918 150.812 108.165 150.751C108.411 150.751 108.657 150.751 108.842 150.874L107.487 148.594L108.041 148.225L110.937 153.03ZM109.089 153.523C109.274 153.4 109.397 153.338 109.458 153.215C109.582 153.092 109.582 152.969 109.643 152.784C109.643 152.661 109.643 152.476 109.643 152.353C109.582 152.168 109.52 152.045 109.458 151.86C109.335 151.675 109.274 151.552 109.15 151.49C109.027 151.367 108.904 151.305 108.719 151.244C108.596 151.182 108.411 151.182 108.288 151.244C108.165 151.305 107.98 151.305 107.795 151.428C107.61 151.552 107.487 151.613 107.425 151.736C107.364 151.86 107.302 151.983 107.24 152.168C107.24 152.291 107.24 152.476 107.24 152.599C107.24 152.722 107.364 152.907 107.425 153.092C107.548 153.277 107.61 153.4 107.733 153.462C107.857 153.585 107.98 153.646 108.165 153.708C108.288 153.77 108.473 153.77 108.596 153.708C108.781 153.646 108.966 153.585 109.089 153.523Z" fill="#FFFDFD"/>
<path d="M110.199 149.763C110.261 149.517 110.384 149.27 110.507 149.085C110.63 148.839 110.815 148.716 111.062 148.531C111.247 148.408 111.493 148.284 111.678 148.223C111.863 148.161 112.048 148.161 112.232 148.161C112.417 148.161 112.54 148.223 112.664 148.346C112.787 148.469 112.91 148.531 112.972 148.654L114.019 150.133C114.081 150.256 114.142 150.317 114.204 150.441C114.266 150.564 114.327 150.626 114.389 150.687L113.896 151.057C113.773 150.934 113.649 150.749 113.588 150.626C113.588 150.872 113.526 151.118 113.465 151.303C113.403 151.488 113.157 151.673 112.972 151.858C112.848 151.981 112.725 152.043 112.54 152.104C112.417 152.166 112.232 152.166 112.109 152.166C111.986 152.166 111.801 152.104 111.678 152.043C111.555 151.981 111.431 151.858 111.308 151.735C111.185 151.55 111.123 151.365 111.123 151.18C111.123 150.995 111.185 150.81 111.247 150.626C111.308 150.441 111.493 150.256 111.616 150.071C111.801 149.886 111.986 149.763 112.232 149.578L112.664 149.27L112.602 149.147C112.54 149.085 112.479 149.024 112.417 148.962C112.356 148.9 112.232 148.9 112.171 148.839C112.109 148.777 111.986 148.839 111.863 148.839C111.739 148.839 111.616 148.9 111.493 149.024C111.37 149.085 111.308 149.147 111.247 149.27C111.185 149.332 111.123 149.455 111.062 149.517C111 149.578 111 149.701 110.939 149.763C110.939 149.825 110.877 149.886 110.877 150.009L110.199 149.763ZM112.54 149.825C112.417 149.948 112.294 150.009 112.171 150.133C112.048 150.256 111.924 150.379 111.863 150.502C111.801 150.626 111.739 150.749 111.739 150.872C111.739 150.995 111.739 151.118 111.863 151.242C111.986 151.427 112.109 151.488 112.294 151.488C112.479 151.488 112.664 151.426 112.848 151.303C112.972 151.18 113.095 151.057 113.157 150.934C113.218 150.81 113.28 150.687 113.28 150.564C113.28 150.441 113.28 150.318 113.218 150.194C113.157 150.071 113.095 149.948 113.033 149.886L112.91 149.701L112.54 149.825Z" fill="#FFFDFD"/>
<path d="M114.884 146.375L114.145 146.991L115.131 148.223C115.192 148.285 115.254 148.346 115.315 148.47C115.377 148.531 115.439 148.593 115.5 148.654C115.562 148.716 115.624 148.716 115.747 148.716C115.808 148.716 115.932 148.654 115.993 148.593C116.055 148.531 116.116 148.47 116.178 148.408C116.24 148.346 116.301 148.285 116.301 148.223L116.671 148.716C116.609 148.778 116.548 148.901 116.486 148.962C116.424 149.024 116.301 149.147 116.301 149.147C116.116 149.332 115.932 149.394 115.747 149.455C115.562 149.517 115.439 149.455 115.315 149.455C115.192 149.394 115.069 149.332 115.007 149.209C114.884 149.086 114.823 149.024 114.699 148.901L113.529 147.484L112.913 147.977L112.543 147.545L113.159 147.053L112.543 146.252L113.097 145.82L113.714 146.621L114.453 146.005L114.884 146.375Z" fill="#FFFDFD"/>
<path d="M116.235 146.869C116.05 146.684 115.927 146.437 115.865 146.253C115.804 146.068 115.742 145.76 115.742 145.513C115.742 145.267 115.804 145.02 115.927 144.836C116.05 144.589 116.173 144.404 116.358 144.219C116.543 144.035 116.79 143.911 117.036 143.85C117.282 143.788 117.529 143.727 117.775 143.727C118.022 143.727 118.268 143.788 118.453 143.911C118.7 144.035 118.884 144.158 119.069 144.343C119.254 144.528 119.377 144.774 119.439 144.959C119.5 145.144 119.562 145.452 119.562 145.698C119.562 145.945 119.5 146.191 119.377 146.376C119.254 146.622 119.131 146.807 118.946 146.992C118.761 147.177 118.515 147.3 118.33 147.362C118.083 147.423 117.837 147.485 117.591 147.485C117.344 147.485 117.098 147.423 116.913 147.3C116.605 147.177 116.42 147.054 116.235 146.869ZM116.79 146.376C116.913 146.499 117.036 146.622 117.159 146.684C117.282 146.745 117.467 146.807 117.591 146.807C117.714 146.807 117.899 146.807 118.022 146.745C118.145 146.684 118.33 146.622 118.453 146.499C118.576 146.376 118.7 146.253 118.761 146.068C118.823 145.945 118.884 145.76 118.884 145.636C118.884 145.513 118.884 145.328 118.761 145.205C118.638 145.082 118.576 144.897 118.453 144.774C118.33 144.651 118.207 144.528 118.022 144.466C117.899 144.404 117.714 144.343 117.591 144.343C117.467 144.343 117.282 144.343 117.159 144.404C117.036 144.466 116.851 144.528 116.728 144.651C116.605 144.774 116.482 144.897 116.42 145.082C116.358 145.267 116.297 145.39 116.297 145.513C116.297 145.636 116.297 145.821 116.42 145.945C116.543 146.068 116.666 146.253 116.79 146.376Z" fill="#FFFDFD"/>
<path d="M118.328 142.371L118.821 141.878L119.191 142.248C119.129 142.125 119.129 142.063 119.129 141.94C119.129 141.817 119.129 141.755 119.129 141.632C119.129 141.509 119.191 141.447 119.252 141.324C119.314 141.201 119.376 141.139 119.437 141.077C119.499 141.016 119.622 140.954 119.684 140.893L120.176 141.447C120.115 141.447 120.053 141.509 120.053 141.57C119.992 141.632 119.992 141.632 119.93 141.694C119.684 141.94 119.622 142.186 119.622 142.433C119.622 142.679 119.807 142.926 120.053 143.234L121.347 144.466L120.854 144.959L118.328 142.371Z" fill="#FFFDFD"/>
</g>
<defs>
<filter id="filter0_d" x="0.113281" y="0" width="158.312" height="187.886" filterUnits="userSpaceOnUse" color-interpolation-filters="sRGB">
<feFlood flood-opacity="0" result="BackgroundImageFix"/>
<feColorMatrix in="SourceAlpha" type="matrix" values="0 0 0 0 0 0 0 0 0 0 0 0 0 0 0 0 0 0 127 0"/>
<feOffset dy="4"/>
<feGaussianBlur stdDeviation="6"/>
<feColorMatrix type="matrix" values="0 0 0 0 0 0 0 0 0 0.482353 0 0 0 0 1 0 0 0 0.2 0"/>
<feBlend mode="normal" in2="BackgroundImageFix" result="effect1_dropShadow"/>
<feBlend mode="normal" in="SourceGraphic" in2="effect1_dropShadow" result="shape"/>
</filter>
<filter id="filter1_ii" x="12.1133" y="37.5742" width="134.312" height="134.312" filterUnits="userSpaceOnUse" color-interpolation-filters="sRGB">
<feFlood flood-opacity="0" result="BackgroundImageFix"/>
<feBlend mode="normal" in="SourceGraphic" in2="BackgroundImageFix" result="shape"/>
<feColorMatrix in="SourceAlpha" type="matrix" values="0 0 0 0 0 0 0 0 0 0 0 0 0 0 0 0 0 0 127 0" result="hardAlpha"/>
<feOffset/>
<feGaussianBlur stdDeviation="4"/>
<feComposite in2="hardAlpha" operator="arithmetic" k2="-1" k3="1"/>
<feColorMatrix type="matrix" values="0 0 0 0 0.9875 0 0 0 0 0.722843 0 0 0 0 0.386771 0 0 0 1 0"/>
<feBlend mode="normal" in2="shape" result="effect1_innerShadow"/>
<feColorMatrix in="SourceAlpha" type="matrix" values="0 0 0 0 0 0 0 0 0 0 0 0 0 0 0 0 0 0 127 0" result="hardAlpha"/>
<feOffset/>
<feGaussianBlur stdDeviation="6"/>
<feComposite in2="hardAlpha" operator="arithmetic" k2="-1" k3="1"/>
<feColorMatrix type="matrix" values="0 0 0 0 0 0 0 0 0 0 0 0 0 0 0 0 0 0 0.2 0"/>
<feBlend mode="normal" in2="effect1_innerShadow" result="effect2_innerShadow"/>
</filter>
<filter id="filter2_i" x="48.4609" y="73.9238" width="61.6109" height="61.6109" filterUnits="userSpaceOnUse" color-interpolation-filters="sRGB">
<feFlood flood-opacity="0" result="BackgroundImageFix"/>
<feBlend mode="normal" in="SourceGraphic" in2="BackgroundImageFix" result="shape"/>
<feColorMatrix in="SourceAlpha" type="matrix" values="0 0 0 0 0 0 0 0 0 0 0 0 0 0 0 0 0 0 127 0" result="hardAlpha"/>
<feOffset/>
<feGaussianBlur stdDeviation="6"/>
<feComposite in2="hardAlpha" operator="arithmetic" k2="-1" k3="1"/>
<feColorMatrix type="matrix" values="0 0 0 0 0.75 0 0 0 0 0.525098 0 0 0 0 0.00937498 0 0 0 1 0"/>
<feBlend mode="normal" in2="shape" result="effect1_innerShadow"/>
</filter>
<linearGradient id="paint0_linear" x1="44.0123" y1="42.1912" x2="156.019" y2="152.379" gradientUnits="userSpaceOnUse">
<stop stop-color="white"/>
<stop offset="1" stop-color="#E3BC43"/>
</linearGradient>
<linearGradient id="paint1_linear" x1="119.639" y1="138.37" x2="36.0205" y2="73.013" gradientUnits="userSpaceOnUse">
<stop stop-color="#FFFEFB"/>
<stop offset="1" stop-color="#8C6A00" stop-opacity="0"/>
</linearGradient>
<linearGradient id="paint2_linear" x1="132.057" y1="148.721" x2="22.7101" y2="63.2544" gradientUnits="userSpaceOnUse">
<stop stop-color="#FFFEFC"/>
<stop offset="1" stop-color="#8C6A00" stop-opacity="0"/>
</linearGradient>
</defs>
</svg>
