<svg width="218" height="266" viewBox="0 0 218 266" fill="none" xmlns="http://www.w3.org/2000/svg">
<path d="M86.0098 29.7983C84.9084 29.7983 84.0273 30.669 84.0273 31.7573V50.0412C84.0273 51.1295 84.9084 52.0002 86.0098 52.0002H131.385C132.487 52.0002 133.368 51.1295 133.368 50.0412V31.7573C133.368 30.669 132.487 29.7983 131.385 29.7983H86.0098ZM129.403 44.1642C129.403 45.2526 128.522 46.1232 127.42 46.1232H90.1949C89.0935 46.1232 88.2125 45.2526 88.2125 44.1642V35.893C88.2125 34.8046 89.0935 33.934 90.1949 33.934H127.42C128.522 33.934 129.403 34.8046 129.403 35.893V44.1642Z" fill="#FFE287"/>
<path d="M140.045 0L114.918 37.8775H127.37L155.388 0H140.045Z" fill="#0FA711"/>
<path d="M127.377 0L102.473 37.8775H114.925L140.052 0H127.377Z" fill="white"/>
<path d="M114.924 0L90.0195 37.8775H102.472L127.376 0H114.924Z" fill="#FF7600"/>
<path d="M90.0177 37.8775H102.47L77.343 0H62L90.0177 37.8775Z" fill="#FF7600"/>
<path d="M102.471 37.8775H114.923L90.0184 0H77.3438L102.471 37.8775Z" fill="white"/>
<path opacity="0.5" d="M110.695 6.27979L104.469 15.6931L119.145 37.8818H127.372L129.596 34.744L110.695 6.27979Z" fill="#3E4347"/>
<path d="M114.924 37.8775H127.376L102.472 0H90.0195L114.924 37.8775Z" fill="#0FA711"/>
<g filter="url(#filter0_ii)">
<path d="M218 157C218 217.199 169.199 266 109 266C48.801 266 0 217.199 0 157C0 96.801 48.801 48 109 48C169.199 48 218 96.801 218 157Z" fill="#FDD24F" fill-opacity="0.8"/>
</g>
<path d="M214.5 157C214.5 215.266 167.266 262.5 109 262.5C50.734 262.5 3.5 215.266 3.5 157C3.5 98.734 50.734 51.5 109 51.5C167.266 51.5 214.5 98.734 214.5 157Z" stroke="#DFDFDF" stroke-width="7"/>
<path d="M214.5 157C214.5 215.266 167.266 262.5 109 262.5C50.734 262.5 3.5 215.266 3.5 157C3.5 98.734 50.734 51.5 109 51.5C167.266 51.5 214.5 98.734 214.5 157Z" stroke="url(#paint0_linear)" stroke-width="7"/>
<path d="M196 157C196 205.049 157.049 244 109 244C60.9512 244 22 205.049 22 157C22 108.951 60.9512 70 109 70C157.049 70 196 108.951 196 157Z" fill="#EEB42F"/>
<path fill-rule="evenodd" clip-rule="evenodd" d="M109 85C69.2355 85 37 117.235 37 157C37 196.764 69.2355 229 109 229C148.764 229 181 196.764 181 157C181 117.235 148.764 85 109 85ZM7 157C7 100.667 52.667 55 109 55C165.333 55 211 100.667 211 157C211 213.333 165.333 259 109 259C52.667 259 7 213.333 7 157Z" fill="#F9C54C"/>
<path d="M109 80C66.5591 80 32 114.357 32 157C32 199.643 66.357 234 109 234C151.643 234 186 199.643 186 157C186 114.357 151.441 80 109 80ZM93.6404 87.4777C93.8425 87.4777 93.8425 87.4777 93.6404 87.4777C95.0551 90.5092 97.6824 92.3281 100.31 91.7218C102.937 91.3176 105.564 89.4987 105.766 85.8609C106.171 85.8609 106.575 85.8609 106.979 85.8609C106.979 96.7743 106.171 108.496 104.958 121.228C104.756 122.441 104.756 123.654 104.756 124.866C104.352 123.856 103.948 122.643 103.543 121.228C99.2992 110.517 95.4593 98.9974 92.4278 87.6798C93.0341 87.6798 93.2362 87.4777 93.6404 87.4777ZM76.0577 93.7428C78.2808 96.3701 81.1102 97.3806 83.5354 96.168C86.3648 94.9554 87.9816 92.126 87.3753 89.0945C87.7795 88.8924 88.1837 88.8924 88.5879 88.6903C91.2152 99.1995 93.8425 110.719 95.8635 123.451C96.0656 124.866 96.2677 125.877 96.6719 127.089C96.0656 126.079 95.4593 125.068 94.4488 123.856C87.5774 114.559 80.9081 104.454 75.0472 94.3491C75.2493 94.147 75.6535 93.9449 76.0577 93.7428ZM60.4961 104.656C63.3255 106.475 66.357 106.677 68.378 105.06C69.9948 103.848 70.8032 102.029 70.8032 100.21C70.8032 99.1995 70.6011 98.189 69.9948 97.3806C70.399 97.1785 70.6011 96.9764 71.0052 96.7743C76.4619 106.071 81.7165 116.782 87.1732 128.302C87.7795 129.514 88.3858 130.525 88.79 131.535C87.9816 130.727 86.9711 129.919 85.9606 129.11C77.0682 121.633 67.9738 113.549 59.6877 105.465C59.8898 105.06 60.294 104.858 60.4961 104.656ZM48.3701 119.005C48.5722 119.005 48.5722 119.005 48.3701 119.005C51.6037 120.016 54.6352 119.612 56.0499 117.388C56.4541 116.782 57.4646 115.165 57.4646 113.549C57.4646 112.538 57.0604 110.921 55.8478 109.507C56.0499 109.304 56.4541 108.9 56.6562 108.698C64.336 116.378 72.2178 125.27 80.5039 134.971C81.3123 135.982 82.1207 136.79 82.9291 137.598C81.9186 136.992 80.706 136.588 79.4934 135.982C68.9843 131.131 58.0709 125.675 47.7638 120.016C47.9659 119.612 48.168 119.409 48.3701 119.005ZM40.4882 135.982C40.4882 135.982 40.4882 135.78 40.4882 135.982C43.9239 136.184 46.5512 134.971 47.5617 132.344C47.7638 131.738 47.9659 130.929 47.9659 129.717C47.9659 128.504 47.5617 126.281 45.1365 124.664C45.3386 124.26 45.5407 124.058 45.7428 123.654C55.0394 129.11 65.1444 135.577 75.4514 142.853C76.4619 143.661 77.6745 144.268 78.4829 144.874C77.4724 144.672 76.0577 144.47 74.643 144.066C63.3255 142.449 51.4016 140.024 39.8819 136.992C40.2861 136.79 40.4882 136.386 40.4882 135.982ZM37.2546 154.373C37.2546 154.373 37.2546 154.171 37.2546 154.373C40.4882 153.766 42.9134 151.745 43.1155 149.118C43.1155 148.916 43.1155 148.714 43.1155 148.31C43.1155 145.885 41.9029 143.257 38.8714 142.247C38.8714 141.843 39.0735 141.438 39.0735 141.034C49.5827 143.864 60.9003 147.703 72.8242 151.948C74.0368 152.352 75.2493 152.756 76.2598 152.958C75.0472 152.958 73.8346 153.16 72.42 153.16C61.1024 154.575 48.7743 155.181 37.0525 155.383C37.2546 155.181 37.2546 154.777 37.2546 154.373ZM38.8714 173.168C38.8714 172.966 38.8714 172.966 38.8714 173.168C41.4987 171.753 43.1155 169.732 43.1155 167.307C43.1155 167.105 43.1155 166.701 43.1155 166.499C42.7113 163.871 40.8924 161.244 37.2546 161.042C37.2546 160.638 37.2546 160.234 37.2546 159.829C48.168 159.829 59.8898 160.436 72.622 161.446C74.0367 161.648 75.2493 161.648 76.2598 161.648C75.2493 162.053 74.0367 162.457 72.622 162.861C61.9108 167.105 50.3911 170.945 39.0735 174.178C39.0735 173.976 39.0735 173.572 38.8714 173.168ZM45.3386 190.751C45.3386 190.751 45.3386 190.549 45.3386 190.751C47.1575 189.134 48.168 187.315 48.168 185.294C48.168 184.486 47.9659 183.879 47.7638 183.273C46.7533 180.848 44.3281 178.827 40.6903 179.635C40.4882 179.231 40.4882 178.827 40.2861 178.423C50.7953 175.593 62.315 173.168 74.8451 170.945C76.2598 170.743 77.2703 170.339 78.4829 170.136C77.4724 170.743 76.4619 171.349 75.2493 172.36C65.9528 179.231 55.8478 185.9 45.7428 191.963C45.7428 191.357 45.5407 191.155 45.3386 190.751ZM56.252 206.11C57.2625 204.493 57.6667 203.079 57.6667 201.462C57.6667 200.249 57.2625 199.037 56.4541 198.228C54.8373 196.207 51.8058 194.793 48.5722 196.409C48.3701 196.005 48.168 195.803 47.9659 195.399C57.2625 189.942 67.9738 184.486 79.4934 179.029C80.706 178.423 81.7165 177.816 82.727 177.412C81.9186 178.22 81.1102 179.231 80.3018 180.241C73.2283 189.336 65.1444 198.43 57.0604 206.919C56.8583 206.717 56.4541 206.514 56.252 206.11ZM70.6011 218.034C70.8032 216.822 71.0052 215.811 71.0052 214.801C71.0052 212.78 70.1969 211.163 68.7822 210.354C66.7612 208.94 63.5276 208.131 60.9003 210.759C60.4961 210.556 60.294 210.152 60.0919 209.95C67.7717 202.27 76.4619 194.186 86.1627 186.102C87.1732 185.294 87.9816 184.486 88.79 183.677C88.1837 184.688 87.7795 185.9 87.1732 187.113C82.727 197.622 77.4724 208.535 71.6115 218.64C71.4095 218.438 71.0052 218.236 70.6011 218.034ZM87.5774 225.916C87.7795 222.48 86.3648 219.853 83.9396 218.843C81.5144 218.034 78.2808 218.236 76.2598 221.268C75.8556 221.066 75.6535 220.864 75.2493 220.661C80.706 211.365 86.9711 201.26 94.2467 190.751C95.0551 189.538 95.6614 188.528 96.2677 187.719C96.0656 188.73 95.8635 190.144 95.4593 191.559C93.8425 202.877 91.4173 214.801 88.5879 226.32C88.3858 226.118 87.9816 226.118 87.5774 225.916ZM105.969 228.948C105.362 225.714 103.341 223.289 100.714 223.087C98.0866 222.885 95.0551 223.895 94.0446 227.331C93.6404 227.331 93.2362 227.129 92.832 227.129C95.6614 216.619 99.2992 205.302 103.543 193.378C103.948 192.165 104.352 190.953 104.554 189.942C104.554 191.155 104.756 192.367 104.756 193.782C106.171 205.1 106.979 217.428 107.181 229.15C106.777 229.15 106.373 229.15 105.969 228.948ZM178.927 142.449C176.299 143.864 174.48 145.885 174.48 148.31C174.48 148.512 174.48 148.916 174.48 149.118C174.885 151.745 176.703 154.373 180.341 154.575C180.341 154.979 180.341 155.383 180.341 155.787C169.63 155.787 157.706 154.979 144.974 153.766C143.559 153.564 142.346 153.564 141.336 153.564C142.346 153.16 143.559 152.756 144.974 152.352C155.685 148.108 167.205 144.268 178.522 141.236C178.724 141.64 178.724 142.045 178.927 142.449ZM172.661 124.866C172.661 124.866 172.661 125.068 172.661 124.866C170.843 126.483 169.832 128.302 169.832 130.323C169.832 131.131 170.034 131.738 170.236 132.344C171.247 134.769 173.672 136.79 177.31 136.184C177.512 136.588 177.512 136.992 177.714 137.396C167.205 140.024 155.483 142.449 142.953 144.672C141.538 144.874 140.528 145.076 139.315 145.48C140.325 144.874 141.336 144.268 142.549 143.459C151.845 136.386 161.95 129.717 172.055 123.856C172.257 124.26 172.459 124.462 172.661 124.866ZM162.152 109.709C161.142 111.325 160.535 112.942 160.535 114.357C160.535 115.57 160.94 116.782 161.748 117.591C163.365 119.612 166.194 121.026 169.428 119.409C169.63 119.814 169.832 120.016 170.034 120.42C160.535 125.675 150.026 131.131 138.304 136.184C137.092 136.79 136.081 137.194 135.071 137.801C135.879 136.992 136.688 135.982 137.698 134.971C144.974 126.079 153.058 116.984 161.344 108.698C161.546 109.102 161.95 109.304 162.152 109.709ZM147.601 97.1785C147.601 97.1785 147.803 97.3806 147.601 97.1785C147.399 98.3911 146.995 99.4016 146.995 100.412C146.995 102.231 147.803 103.848 149.218 104.858C151.239 106.273 154.472 107.081 157.1 104.656C157.302 104.858 157.706 105.262 157.908 105.465C150.228 113.144 141.336 121.026 131.433 129.11C130.423 129.919 129.412 130.727 128.806 131.535C129.412 130.525 129.816 129.514 130.423 128.1C135.071 117.591 140.528 106.677 146.388 96.5722C146.995 96.7743 147.197 96.9764 147.601 97.1785ZM130.625 89.2966C130.827 89.2966 130.827 89.2966 130.625 89.2966C130.423 92.7323 131.837 95.3596 134.262 96.3701C136.688 97.3806 139.921 97.1785 141.942 93.9449C142.346 94.147 142.549 94.3491 142.953 94.5512C137.496 103.848 131.029 113.751 123.551 124.26C122.743 125.27 122.136 126.281 121.53 127.291C121.732 126.281 122.136 124.866 122.339 123.451C124.157 112.134 126.583 100.21 129.412 88.8924C130.018 88.8924 130.22 89.0945 130.625 89.2966ZM112.436 85.8609C112.436 85.8609 112.638 85.8609 112.436 85.8609C113.042 89.0945 115.063 91.5197 117.69 91.7218C120.318 91.9239 123.349 90.9134 124.562 87.4777C124.966 87.4777 125.37 87.6798 125.774 87.6798C122.945 98.189 119.105 109.507 114.659 121.228C114.255 122.441 113.85 123.654 113.446 124.664C113.446 123.451 113.244 122.239 113.244 120.824C112.032 109.507 111.223 97.1785 111.223 85.4567C111.627 85.8609 112.032 85.8609 112.436 85.8609ZM124.36 227.331C122.743 224.299 120.318 222.682 117.69 223.087C115.063 223.491 112.436 225.31 112.234 228.948C111.829 228.948 111.425 228.948 111.021 228.948C111.021 218.034 111.627 206.312 112.84 193.58C113.042 192.367 113.042 191.357 113.042 190.346C113.042 190.144 113.042 190.144 113.042 189.942C113.446 190.953 113.85 192.165 114.255 193.58C118.499 204.291 122.339 215.811 125.572 227.129C125.168 227.331 124.764 227.331 124.36 227.331ZM141.74 221.066C141.74 221.066 141.538 221.066 141.74 221.066C139.517 218.438 136.688 217.428 134.262 218.64C131.433 219.853 129.816 222.682 130.625 225.714C130.22 225.916 129.816 225.916 129.412 226.118C126.583 215.609 124.157 204.089 122.136 191.559C121.934 190.144 121.732 189.134 121.328 187.921C121.934 188.932 122.541 189.942 123.551 191.155C130.423 200.451 137.092 210.556 142.953 220.661C142.346 220.864 142.144 220.864 141.74 221.066ZM157.302 210.152C157.302 210.354 157.302 210.354 157.302 210.152C154.472 208.333 151.441 208.131 149.42 209.748C147.803 210.961 146.995 212.78 146.995 214.598C146.995 215.609 147.197 216.619 147.803 217.428C147.399 217.63 147.197 217.832 146.793 218.034C141.336 208.738 135.879 198.026 130.625 186.507C130.018 185.294 129.412 184.283 129.008 183.273C129.816 184.081 130.827 184.89 131.837 185.698C140.932 192.772 150.026 200.856 158.312 209.142C157.908 209.748 157.706 209.95 157.302 210.152ZM169.226 196.005C169.226 196.005 169.226 196.207 169.226 196.005C165.992 194.995 162.961 195.399 161.546 197.622C161.142 198.228 160.131 199.845 160.131 201.462C160.131 202.472 160.535 204.089 161.748 205.504C161.546 205.706 161.142 206.11 160.94 206.312C153.26 198.633 145.378 189.74 137.294 180.039C136.486 179.029 135.677 178.018 134.869 177.412C135.879 178.018 137.092 178.423 138.304 179.029C148.814 183.677 159.727 189.134 170.034 194.793C169.63 195.399 169.428 195.601 169.226 196.005ZM177.108 179.029C177.108 179.231 177.108 179.231 177.108 179.029C173.672 178.827 171.045 180.039 170.034 182.667C169.832 183.273 169.63 184.081 169.63 185.294C169.63 186.507 170.034 188.73 172.459 190.346C172.257 190.751 172.055 190.953 171.853 191.357C162.556 185.9 152.451 179.433 142.144 172.157C141.134 171.349 139.921 170.743 139.113 170.136C140.123 170.339 141.538 170.743 142.953 170.945C154.27 172.562 166.194 174.987 177.512 178.018C177.31 178.423 177.31 178.827 177.108 179.029ZM180.341 160.84C177.108 161.446 174.682 163.265 174.48 165.892C174.48 166.094 174.48 166.297 174.48 166.701C174.48 169.126 175.693 171.753 178.724 172.764C178.724 173.168 178.522 173.572 178.522 173.976C168.013 171.147 156.696 167.509 144.772 163.063C143.559 162.659 142.346 162.255 141.336 162.052C142.549 162.052 143.761 161.85 145.176 161.85C156.493 160.638 168.822 159.829 180.543 159.829C180.543 160.032 180.341 160.436 180.341 160.84Z" fill="#FFE287"/>
<circle cx="109" cy="157" r="77" stroke="url(#paint1_linear)" stroke-width="2"/>
<circle cx="109" cy="157" r="101" stroke="url(#paint2_linear)" stroke-width="2"/>
<g filter="url(#filter1_i)">
<circle cx="109" cy="157" r="50" fill="#FDD24F"/>
</g>
<mask id="mask0" mask-type="alpha" maskUnits="userSpaceOnUse" x="59" y="107" width="100" height="100">
<circle cx="109" cy="157" r="50" fill="#C3863A"/>
</mask>
<g mask="url(#mask0)">
<path d="M82.6969 105.385L82.6979 105.386L82.948 105.755C83.1118 105.996 83.3522 106.351 83.6587 106.803C84.2716 107.708 85.1489 109.003 86.2061 110.568C88.3206 113.698 91.1554 117.904 94.0364 122.21C96.917 126.516 99.8455 130.924 102.147 134.456C103.297 136.222 104.293 137.772 105.048 138.983C105.788 140.169 106.335 141.088 106.55 141.554C106.628 141.723 106.657 141.91 106.632 142.094C106.534 142.829 106.129 143.471 105.646 144.005C105.156 144.547 104.516 145.053 103.813 145.52C102.404 146.455 100.608 147.318 98.8706 148.047C97.125 148.779 95.4 149.393 94.1146 149.823C93.6747 149.97 93.2852 150.095 92.9629 150.198C93.1439 150.686 93.3873 151.329 93.6735 152.051C94.3132 153.666 95.1542 155.645 95.9843 157.186C96.4389 158.031 96.1789 158.859 95.7262 159.467C95.3 160.04 94.6303 160.543 93.9004 160.984C92.419 161.877 90.3247 162.724 88.2437 163.448C86.3521 164.107 84.4214 164.682 82.875 165.113C83.4397 165.304 84.052 165.513 84.687 165.732C87.3423 166.647 90.4545 167.766 92.1006 168.526C93.8143 169.317 94.6604 170.287 94.7213 171.384C94.7496 171.893 94.5932 172.305 94.4453 172.575C94.3705 172.712 94.2935 172.82 94.2321 172.898C94.2011 172.937 94.1733 172.97 94.1506 172.995L94.1371 173.01C94.1295 173.019 94.1172 173.034 94.1009 173.055C94.0648 173.101 94.0092 173.173 93.9405 173.272C93.8027 173.468 93.6142 173.764 93.4245 174.144C93.0436 174.905 92.6701 175.98 92.6701 177.259C92.6701 177.659 92.6801 178.157 92.6916 178.725L92.6916 178.726V178.726C92.7201 180.144 92.7574 181.997 92.669 183.832C92.5466 186.371 92.1799 189.179 91.0541 191.008C90.7744 191.463 90.3091 191.739 89.8966 191.918C89.4594 192.109 88.9312 192.254 88.3535 192.37C87.195 192.603 85.6931 192.742 83.9974 192.818C80.5971 192.969 76.2723 192.868 72.0358 192.668C67.7934 192.469 63.6152 192.169 60.4994 191.92C58.941 191.795 57.6472 191.683 56.7427 191.601C56.2904 191.561 55.9354 191.528 55.6932 191.505L55.4164 191.479L55.3682 191.475H33.6015C33.06 191.475 32.6211 191.036 32.6211 190.494V106.916C32.6211 106.382 33.048 105.947 33.5816 105.936L81.8659 104.955C82.1977 104.949 82.5104 105.11 82.6969 105.385Z" fill="white"/>
<path fill-rule="evenodd" clip-rule="evenodd" d="M114.267 149.364C113.599 150.033 113.638 151.118 114.209 151.872C115.402 153.445 116.109 155.406 116.109 157.533C116.109 159.506 115.5 161.337 114.46 162.847C113.94 163.603 113.928 164.646 114.577 165.295C115.23 165.948 116.301 165.951 116.86 165.215C118.481 163.081 119.442 160.419 119.442 157.533C119.442 154.437 118.336 151.6 116.497 149.395C115.926 148.709 114.898 148.733 114.267 149.364ZM119.872 168.245C119.292 168.957 119.286 170.004 119.936 170.653C120.588 171.306 121.652 171.308 122.247 170.603C125.223 167.072 127.017 162.512 127.017 157.533C127.017 152.356 125.078 147.631 121.886 144.046C121.284 143.371 120.245 143.386 119.606 144.026C118.944 144.687 118.965 145.759 119.576 146.468C122.136 149.438 123.684 153.305 123.684 157.533C123.684 161.596 122.255 165.325 119.872 168.245ZM125.634 174.002C125.03 174.695 125.027 175.744 125.677 176.394C126.328 177.046 127.39 177.048 128.001 176.358C132.439 171.346 135.134 164.755 135.134 157.534C135.134 150.119 132.293 143.368 127.64 138.309C127.024 137.64 125.98 137.651 125.337 138.294C124.679 138.953 124.693 140.019 125.318 140.71C129.346 145.158 131.8 151.059 131.8 157.534C131.8 163.837 129.474 169.597 125.634 174.002Z" fill="white"/>
</g>
<path d="M52.3008 81.2998L54.8008 79.4998C55.1008 79.2998 55.4008 79.0998 55.8008 78.9998C56.2008 78.8998 56.4008 78.7998 56.7008 78.7998C57.0008 78.7998 57.3008 78.8998 57.6008 78.9998C57.9008 79.0998 58.1008 79.3998 58.4008 79.6998C58.7008 80.0998 58.8008 80.4998 58.8008 80.9998C58.8008 81.3998 58.6008 81.7998 58.3008 82.1998C58.5008 82.0998 58.8008 81.9998 59.0008 81.8998C59.2008 81.7998 59.5008 81.8998 59.8008 81.8998C60.1008 81.9998 60.3008 82.0998 60.5008 82.1998C60.7008 82.3998 60.9008 82.5998 61.1008 82.7998C61.3008 83.0998 61.5008 83.4998 61.5008 83.7998C61.5008 84.0998 61.5008 84.4998 61.4008 84.7998C61.3008 85.0998 61.1008 85.4998 60.9008 85.7998C60.7008 86.0998 60.4008 86.3998 60.0008 86.6998L57.5008 88.4998L52.3008 81.2998ZM55.5008 83.5998L56.9008 82.5998C57.1008 82.4998 57.2008 82.2998 57.4008 82.1998C57.5008 81.9998 57.6008 81.8998 57.7008 81.6998C57.8008 81.4998 57.8008 81.2998 57.7008 81.0998C57.6008 80.8998 57.6008 80.6998 57.4008 80.4998C57.2008 80.1998 56.9008 79.9998 56.6008 79.8998C56.3008 79.7998 55.9008 79.8998 55.5008 80.1998L53.9008 81.2998L55.5008 83.5998ZM58.0008 87.0998L59.5008 85.9998C59.7008 85.8998 59.8008 85.7998 60.0008 85.5998C60.2008 85.3998 60.3008 85.2998 60.4008 84.9998C60.5008 84.7998 60.5008 84.5998 60.5008 84.2998C60.5008 83.9998 60.4008 83.7998 60.2008 83.4998C59.9008 83.0998 59.5008 82.7998 59.1008 82.7998C58.7008 82.7998 58.2008 82.9998 57.7008 83.2998L56.2008 84.3998L58.0008 87.0998Z" fill="white"/>
<path d="M58.6992 76.1L59.6992 75.5L61.9992 79.4C61.9992 79 61.9992 78.7 62.1992 78.3C62.3992 77.9 62.6992 77.6 63.0992 77.4C63.2992 77.3 63.5992 77.1 63.8992 77.1C64.1992 77 64.3992 77 64.6992 77.1C64.9992 77.2 65.1992 77.3 65.4992 77.5C65.7992 77.7 65.9992 78 66.1992 78.3L68.1992 81.6L67.1992 82.2L65.3992 79.1C65.2992 78.9 65.0992 78.7 64.8992 78.5C64.6992 78.4 64.5992 78.3 64.3992 78.2C64.1992 78.2 64.0992 78.2 63.8992 78.2C63.6992 78.2 63.5992 78.3 63.3992 78.4C63.1992 78.5 62.9992 78.7 62.8992 78.8C62.7992 79 62.6992 79.2 62.5992 79.4C62.5992 79.6 62.5992 79.9 62.5992 80.1C62.6992 80.4 62.7992 80.6 62.9992 80.9L64.5992 83.6L63.5992 84.2L58.6992 76.1Z" fill="white"/>
<path d="M67.1016 76.1999C67.3016 75.7999 67.5016 75.3999 67.8016 75.0999C68.1016 74.7999 68.5016 74.4999 68.8016 74.2999C69.2016 74.0999 69.6016 73.9999 69.9016 73.8999C70.2016 73.8999 70.5016 73.8999 70.8016 73.8999C71.1016 73.9999 71.3016 74.0999 71.5016 74.2999C71.7016 74.4999 71.9016 74.6999 72.0016 74.8999L73.4016 77.6999C73.5016 77.8999 73.6015 78.0999 73.7015 78.1999C73.8015 78.2999 73.9016 78.4999 74.0016 78.5999L73.1016 79.0999C72.9016 78.7999 72.8015 78.5999 72.7015 78.2999C72.6015 78.7999 72.5016 79.0999 72.3016 79.3999C72.1016 79.6999 71.7016 79.9999 71.3016 80.1999C71.0016 80.2999 70.8016 80.3999 70.5016 80.4999C70.2016 80.4999 70.0015 80.4999 69.7015 80.4999C69.5015 80.3999 69.2016 80.2999 69.0016 80.1999C68.8016 79.9999 68.6016 79.7999 68.5016 79.5999C68.3016 79.2999 68.3016 78.8999 68.3016 78.5999C68.3016 78.2999 68.5015 77.9999 68.7015 77.6999C68.9015 77.3999 69.2016 77.1999 69.5016 76.8999C69.8016 76.6999 70.2016 76.3999 70.6016 76.1999L71.4016 75.7999L71.3016 75.5999C71.2016 75.4999 71.1016 75.2999 71.0016 75.1999C70.9016 75.0999 70.7016 74.9999 70.6016 74.8999C70.4016 74.7999 70.3016 74.7999 70.1016 74.7999C69.9016 74.7999 69.7016 74.8999 69.5016 74.9999C69.3016 75.0999 69.1016 75.1999 69.0016 75.2999C68.9016 75.3999 68.8015 75.4999 68.7015 75.5999C68.6015 75.6999 68.5016 75.7999 68.5016 75.9999C68.4016 76.0999 68.4016 76.1999 68.3016 76.3999L67.1016 76.1999ZM71.0016 76.8999C70.8016 76.9999 70.5016 77.1999 70.3016 77.2999C70.1016 77.4999 69.9015 77.5999 69.7015 77.7999C69.5015 77.9999 69.4016 78.1999 69.3016 78.3999C69.2016 78.5999 69.3016 78.7999 69.4016 78.9999C69.6016 79.2999 69.8016 79.4999 70.1016 79.4999C70.4016 79.4999 70.7016 79.4999 71.1016 79.2999C71.4016 79.1999 71.6015 78.9999 71.7015 78.7999C71.9015 78.5999 71.9016 78.3999 72.0016 78.1999C72.1016 77.9999 72.0016 77.7999 72.0016 77.5999C72.0016 77.3999 71.9016 77.1999 71.8016 76.9999L71.6016 76.6999L71.0016 76.8999Z" fill="white"/>
<path d="M76.3024 72.7999C76.1024 72.6999 75.9023 72.5999 75.7023 72.5999C75.5023 72.5999 75.2024 72.5999 75.0024 72.6999C74.7024 72.7999 74.6023 72.8999 74.4023 73.0999C74.2023 73.2999 74.2024 73.4999 74.3024 73.6999C74.4024 73.8999 74.5023 73.9999 74.6023 73.9999C74.7023 73.9999 74.9023 74.0999 75.1023 74.0999C75.3023 74.0999 75.4023 74.0999 75.6023 73.9999C75.8023 73.9999 75.9023 73.8999 76.1023 73.8999C76.4023 73.8999 76.6024 73.7999 76.8024 73.7999C77.0024 73.7999 77.2023 73.7999 77.4023 73.8999C77.6023 73.9999 77.8023 74.0999 77.9023 74.1999C78.0023 74.2999 78.2024 74.4999 78.3024 74.7999C78.4024 75.0999 78.5023 75.3999 78.4023 75.6999C78.3023 75.9999 78.3023 76.1999 78.1023 76.4999C77.9023 76.7999 77.7024 76.8999 77.5024 77.0999C77.3024 77.2999 77.0023 77.3999 76.7023 77.4999C76.2023 77.6999 75.8023 77.7999 75.4023 77.7999C75.0023 77.7999 74.6023 77.6999 74.1023 77.3999L74.6023 76.3999C74.8023 76.4999 75.1023 76.5999 75.4023 76.5999C75.7023 76.5999 76.0024 76.5999 76.3024 76.4999C76.4024 76.3999 76.6023 76.3999 76.7023 76.2999C76.8023 76.1999 76.9024 76.0999 77.0024 75.9999C77.1024 75.8999 77.1023 75.7999 77.2023 75.6999C77.3023 75.5999 77.2023 75.4999 77.2023 75.2999C77.1023 75.0999 77.0023 74.9999 76.9023 74.9999C76.8023 74.8999 76.6023 74.8999 76.4023 74.8999C76.2023 74.8999 76.1023 74.8999 75.9023 74.8999C75.7023 74.8999 75.6024 74.9999 75.5024 74.9999C75.2024 74.9999 75.0024 75.0999 74.8024 75.0999C74.6024 75.0999 74.3023 75.0999 74.1023 74.9999C73.9023 74.8999 73.7024 74.8999 73.5024 74.6999C73.3024 74.5999 73.2023 74.3999 73.1023 74.0999C73.0023 73.7999 72.9024 73.4999 73.0024 73.2999C73.1024 73.0999 73.1024 72.7999 73.3024 72.5999C73.4024 72.3999 73.6023 72.1999 73.9023 71.9999C74.1023 71.7999 74.4023 71.6999 74.6023 71.5999C75.0023 71.3999 75.4024 71.3999 75.8024 71.3999C76.2024 71.3999 76.6023 71.4999 76.9023 71.7999L76.3024 72.7999Z" fill="white"/>
<path d="M77 67.1002L78.1 66.7002L79.5 71.0002C79.5 70.6002 79.7 70.3002 80 70.0002C80.3 69.7002 80.6 69.5002 81.1 69.3002C81.4 69.2002 81.7 69.2002 81.9 69.2002C82.1 69.2002 82.4 69.3002 82.7 69.4002C82.9 69.5002 83.2 69.7002 83.4 69.9002C83.6 70.1002 83.8 70.5002 83.9 70.8002L85.1 74.5002L84 74.9002L82.9 71.5002C82.8 71.2002 82.7 71.0002 82.6 70.9002C82.5 70.7002 82.3 70.6002 82.2 70.5002C82 70.4002 81.9 70.4002 81.7 70.4002C81.5 70.4002 81.4 70.4002 81.2 70.5002C81 70.6002 80.8 70.7002 80.6 70.8002C80.4 70.9002 80.3 71.1002 80.2 71.3002C80.1 71.5002 80.1 71.7002 80.1 72.0002C80.1 72.3002 80.2 72.6002 80.3 72.9002L81.3 75.9002L80.2 76.3002L77 67.1002Z" fill="white"/>
<path d="M84.2992 66.3002C84.1992 66.1002 84.2992 65.9002 84.3992 65.7002C84.4992 65.5002 84.6992 65.4002 84.8992 65.3002C85.0992 65.2002 85.2993 65.3002 85.4993 65.4002C85.6993 65.5002 85.7992 65.7002 85.8992 65.9002C85.9992 66.1002 85.8992 66.3002 85.7992 66.5002C85.6992 66.7002 85.4992 66.8002 85.2992 66.9002C85.0992 67.0002 84.8992 66.9002 84.6992 66.8002C84.3992 66.7002 84.2992 66.5002 84.2992 66.3002ZM85.0992 68.3002L86.1992 68.0002L87.7992 73.8002L86.6992 74.1002L85.0992 68.3002Z" fill="white"/>
<path d="M88 67.5001L89.1 67.3001L89.3 68.2001C89.4 67.9001 89.6 67.5001 89.9 67.3001C90.2 67.1001 90.6 66.8001 91.1 66.8001C91.4 66.7001 91.7 66.7001 91.9 66.8001C92.1 66.9001 92.4 66.9001 92.7 67.1001C92.9 67.2001 93.1 67.4001 93.3 67.7001C93.5 68.0001 93.6 68.3001 93.7 68.7001L94.5 72.5001L93.4 72.7001L92.7 69.2001C92.6 68.9001 92.6 68.7001 92.4 68.5001C92.3 68.3001 92.2 68.2001 92 68.1001C91.9 68.0001 91.7 67.9001 91.5 67.9001C91.3 67.9001 91.2 67.9001 91 67.9001C90.8 67.9001 90.6 68.0001 90.4 68.1001C90.2 68.2001 90.1 68.4001 89.9 68.6001C89.8 68.8001 89.7 69.0001 89.7 69.3001C89.7 69.6001 89.7 69.9001 89.8 70.2001L90.4 73.2001L89.3 73.4001L88 67.5001Z" fill="white"/>
<path d="M94.6016 64.0001C94.6016 63.8001 94.6016 63.6001 94.8016 63.4001C95.0016 63.2001 95.1016 63.1001 95.3016 63.1001C95.5016 63.1001 95.7016 63.1001 95.9016 63.3001C96.1016 63.4001 96.2015 63.6001 96.2015 63.8001C96.2015 64.0001 96.2016 64.2001 96.0016 64.4001C95.9016 64.6001 95.7016 64.7001 95.5016 64.7001C95.3016 64.7001 95.1016 64.7001 94.9016 64.5001C94.7016 64.4001 94.6016 64.3001 94.6016 64.0001ZM95.2015 66.1001L96.3016 65.9001L97.2015 71.9001L96.1016 72.1001L95.2015 66.1001Z" fill="white"/>
<path d="M101.902 66.8C101.902 66.5 101.902 66.2 102.002 65.9C102.102 65.6 102.302 65.4 102.402 65.2C102.602 65 102.802 64.8 103.102 64.7C103.402 64.6 103.702 64.5 104.002 64.5C104.302 64.5 104.602 64.5 104.902 64.6C105.202 64.7 105.402 64.9 105.602 65C105.802 65.2 106.002 65.4 106.102 65.7C106.202 66 106.302 66.3 106.302 66.6C106.302 66.9 106.302 67.2 106.202 67.5C106.102 67.8 105.902 68 105.802 68.2C105.602 68.4 105.402 68.6 105.102 68.7C104.802 68.8 104.502 68.9 104.202 68.9C103.902 68.9 103.602 68.9 103.302 68.8C103.002 68.7 102.802 68.5 102.602 68.4C102.402 68.2 102.202 68 102.102 67.7C102.002 67.4 101.902 67.1 101.902 66.8Z" fill="white"/>
<path d="M112.301 62L115.401 62.2C115.801 62.2 116.201 62.3 116.501 62.4C116.801 62.5 117.101 62.7 117.301 62.9C117.501 63.1 117.701 63.3 117.801 63.6C117.901 63.9 118.001 64.2 117.901 64.6C117.901 65.1 117.701 65.5 117.401 65.8C117.101 66.1 116.701 66.3 116.201 66.5C116.501 66.5 116.701 66.6 117.001 66.8C117.201 66.9 117.401 67.1 117.601 67.3C117.801 67.5 117.901 67.8 118.001 68C118.101 68.3 118.101 68.6 118.101 68.9C118.101 69.3 118.001 69.7 117.801 70C117.601 70.3 117.401 70.5 117.101 70.7C116.801 70.9 116.501 71 116.101 71.1C115.701 71.2 115.301 71.2 114.901 71.2L111.801 71L112.301 62ZM113.101 70.1L114.901 70.2C115.101 70.2 115.301 70.2 115.501 70.2C115.701 70.2 115.901 70.1 116.101 70C116.301 69.9 116.501 69.8 116.601 69.6C116.701 69.4 116.801 69.2 116.901 68.8C116.901 68.3 116.801 67.9 116.501 67.6C116.201 67.3 115.701 67.1 115.101 67.1L113.301 67L113.101 70.1ZM113.301 65.9L115.001 66C115.201 66 115.401 66 115.701 66C115.901 66 116.101 65.9 116.201 65.8C116.401 65.7 116.501 65.6 116.601 65.4C116.701 65.2 116.801 65 116.801 64.8C116.801 64.4 116.701 64.1 116.501 63.8C116.301 63.5 115.901 63.4 115.401 63.3L113.501 63.2L113.301 65.9Z" fill="white"/>
<path d="M119.3 68.5999C119.4 68.1999 119.5 67.7999 119.7 67.3999C119.9 66.9999 120.2 66.6999 120.5 66.4999C120.8 66.2999 121.2 66.0999 121.6 65.9999C122 65.8999 122.4 65.8999 122.9 65.8999C123.3 65.9999 123.7 66.0999 124.1 66.2999C124.5 66.4999 124.8 66.7999 125 67.0999C125.2 67.3999 125.4 67.7999 125.5 68.1999C125.6 68.5999 125.6 68.9999 125.6 69.4999C125.6 69.9999 125.4 70.2999 125.2 70.6999C125 71.0999 124.7 71.3999 124.4 71.5999C124.1 71.7999 123.7 71.9999 123.3 72.0999C122.9 72.1999 122.5 72.1999 122 72.1999C121.6 72.0999 121.2 71.9999 120.8 71.7999C120.4 71.5999 120.1 71.2999 119.9 70.9999C119.7 70.6999 119.5 70.2999 119.4 69.8999C119.2 69.3999 119.2 68.9999 119.3 68.5999ZM120.5 68.6999C120.5 68.9999 120.5 69.2999 120.5 69.5999C120.6 69.8999 120.7 70.0999 120.8 70.2999C120.9 70.4999 121.1 70.6999 121.4 70.7999C121.6 70.8999 121.9 70.9999 122.2 71.0999C122.5 71.0999 122.8 71.0999 123 71.0999C123.3 70.9999 123.5 70.8999 123.7 70.7999C123.9 70.5999 124.1 70.3999 124.2 70.1999C124.3 69.9999 124.4 69.6999 124.5 69.3999C124.5 69.0999 124.5 68.7999 124.5 68.4999C124.4 68.1999 124.3 67.9999 124.2 67.7999C124.1 67.5999 123.9 67.3999 123.6 67.2999C123.4 67.1999 123.1 67.0999 122.8 66.9999C122.5 66.9999 122.2 66.9999 122 66.9999C121.7 67.0999 121.5 67.1999 121.3 67.2999C121.1 67.3999 120.9 67.6999 120.8 67.8999C120.6 68.1999 120.5 68.3999 120.5 68.6999Z" fill="white"/>
<path d="M128.402 63.3999L129.502 63.5999L127.502 72.9999L126.402 72.7999L128.402 63.3999Z" fill="white"/>
<path d="M129.602 70.2999C129.702 69.8999 129.902 69.4999 130.202 69.1999C130.502 68.8999 130.802 68.5999 131.102 68.3999C131.402 68.1999 131.802 68.0999 132.302 67.9999C132.702 67.8999 133.102 67.9999 133.602 68.0999C134.002 68.1999 134.402 68.3999 134.802 68.6999C135.202 68.9999 135.402 69.2999 135.602 69.5999C135.802 69.9999 135.902 70.2999 136.002 70.7999C136.102 71.1999 136.002 71.5999 135.902 72.0999C135.802 72.4999 135.602 72.8999 135.302 73.1999C135.002 73.4999 134.702 73.7999 134.402 73.9999C134.002 74.1999 133.702 74.2999 133.202 74.3999C132.802 74.4999 132.402 74.3999 131.902 74.2999C131.502 74.1999 131.102 73.9999 130.702 73.6999C130.302 73.3999 130.102 73.0999 129.902 72.7999C129.702 72.4999 129.602 72.0999 129.502 71.5999C129.402 71.1999 129.502 70.7999 129.602 70.2999ZM130.802 70.6999C130.702 70.9999 130.702 71.2999 130.702 71.5999C130.702 71.8999 130.802 72.0999 130.902 72.2999C131.002 72.4999 131.202 72.6999 131.402 72.8999C131.602 73.0999 131.902 73.1999 132.202 73.2999C132.502 73.3999 132.802 73.3999 133.002 73.3999C133.302 73.3999 133.502 73.2999 133.702 73.0999C133.902 72.9999 134.102 72.7999 134.302 72.5999C134.502 72.3999 134.602 72.0999 134.702 71.7999C134.802 71.4999 134.802 71.1999 134.802 70.8999C134.802 70.5999 134.702 70.3999 134.602 70.1999C134.502 69.9999 134.302 69.7999 134.102 69.5999C133.902 69.3999 133.602 69.2999 133.302 69.1999C133.002 69.0999 132.702 69.0999 132.502 69.0999C132.202 69.0999 132.002 69.1999 131.802 69.3999C131.602 69.4999 131.402 69.6999 131.202 69.8999C131.002 70.0999 130.902 70.3999 130.802 70.6999Z" fill="white"/>
<path d="M142.8 68.2002L143.9 68.6002L140.6 77.0002L139.5 76.6002L142.8 68.2002Z" fill="white"/>
<path d="M144.799 72.2002L145.799 72.7002L145.399 73.5002C145.699 73.3002 145.999 73.1002 146.399 73.1002C146.799 73.1002 147.199 73.1002 147.599 73.3002C147.899 73.4002 148.099 73.6002 148.299 73.8002C148.499 74.0002 148.699 74.2002 148.799 74.5002C148.899 74.8002 148.899 75.0002 148.899 75.4002C148.899 75.8002 148.799 76.1002 148.599 76.4002L146.999 79.9002L145.999 79.4002L147.499 76.2002C147.599 75.9002 147.699 75.7002 147.699 75.5002C147.699 75.3002 147.699 75.1002 147.599 74.9002C147.499 74.7002 147.399 74.6002 147.299 74.5002C147.199 74.4002 146.999 74.3002 146.899 74.2002C146.699 74.1002 146.499 74.0002 146.199 74.0002C145.999 74.0002 145.799 74.0002 145.599 74.1002C145.399 74.2002 145.199 74.3002 144.999 74.5002C144.799 74.7002 144.699 75.0002 144.499 75.3002L143.199 78.1002L142.199 77.6002L144.799 72.2002Z" fill="white"/>
<path d="M153.602 83.4998L152.602 82.8998L153.002 82.0998C152.602 82.2998 152.302 82.2998 151.802 82.2998C151.402 82.2998 151.002 82.0998 150.602 81.8998C150.202 81.6998 149.902 81.3998 149.602 81.0998C149.402 80.7998 149.202 80.3998 149.102 79.9998C149.002 79.5998 149.002 79.1998 149.102 78.7998C149.202 78.3998 149.302 77.9998 149.502 77.5998C149.702 77.1998 150.002 76.8998 150.302 76.5998C150.602 76.2998 151.002 76.0998 151.302 75.9998C151.702 75.8998 152.102 75.7998 152.502 75.8998C152.902 75.8998 153.302 76.0998 153.702 76.2998C154.102 76.4998 154.402 76.7998 154.602 77.0998C154.802 77.3998 155.002 77.7998 155.002 78.1998L157.202 74.2998L158.202 74.8998L153.602 83.4998ZM151.402 81.1998C151.702 81.3998 151.902 81.3998 152.202 81.4998C152.502 81.4998 152.702 81.4998 153.002 81.3998C153.302 81.2998 153.502 81.1998 153.702 80.9998C153.902 80.7998 154.102 80.5998 154.202 80.2998C154.402 79.9998 154.402 79.7998 154.502 79.4998C154.502 79.1998 154.502 78.9998 154.502 78.6998C154.502 78.3998 154.302 78.1998 154.202 77.9998C154.102 77.7998 153.802 77.5998 153.602 77.4998C153.302 77.2998 153.102 77.2998 152.802 77.1998C152.502 77.1998 152.302 77.1998 152.002 77.2998C151.702 77.3998 151.502 77.4998 151.302 77.6998C151.102 77.8998 150.902 78.0998 150.802 78.3998C150.602 78.6998 150.602 78.8998 150.502 79.1998C150.502 79.4998 150.502 79.6998 150.502 79.9998C150.602 80.1998 150.702 80.4998 150.802 80.6998C150.902 80.7998 151.102 80.9998 151.402 81.1998Z" fill="white"/>
<path d="M158.202 79.3L159.202 79.9L155.902 85L154.902 84.4L158.202 79.3ZM159.202 77.4C159.302 77.2 159.502 77.1 159.702 77C159.902 77 160.102 77 160.302 77.1C160.502 77.2 160.602 77.4 160.702 77.6C160.802 77.8 160.702 78 160.602 78.2C160.502 78.4 160.302 78.5 160.102 78.6C159.902 78.7 159.702 78.6 159.502 78.5C159.302 78.4 159.202 78.2 159.102 78C159.002 77.8 159.102 77.6 159.202 77.4Z" fill="white"/>
<path d="M160.399 81.6001C160.799 81.6001 161.299 81.6001 161.699 81.7001C162.099 81.8001 162.499 82.0001 162.899 82.3001C163.299 82.6001 163.499 82.8001 163.699 83.1001C163.899 83.4001 163.999 83.7001 164.099 83.9001C164.199 84.2001 164.099 84.4001 164.099 84.7001C163.999 85.0001 163.899 85.2001 163.799 85.4001L161.999 87.9001C161.899 88.1001 161.799 88.2001 161.699 88.4001C161.599 88.6001 161.499 88.7001 161.399 88.8001L160.599 88.2001C160.799 87.9001 160.899 87.7001 161.099 87.4001C160.699 87.6001 160.299 87.6001 159.899 87.5001C159.499 87.4001 159.099 87.3001 158.799 87.0001C158.599 86.8001 158.399 86.6001 158.199 86.4001C157.999 86.2001 157.899 86.0001 157.899 85.7001C157.799 85.5001 157.799 85.2001 157.899 85.0001C157.899 84.8001 158.099 84.5001 158.199 84.3001C158.399 84.0001 158.699 83.8001 158.999 83.7001C159.299 83.6001 159.599 83.6001 159.999 83.6001C160.299 83.6001 160.699 83.8001 161.099 83.9001C161.499 84.1001 161.799 84.3001 162.199 84.6001L162.899 85.1001L163.099 84.9001C163.199 84.8001 163.299 84.6001 163.299 84.5001C163.299 84.3001 163.399 84.2001 163.299 84.0001C163.199 83.8001 163.199 83.7001 163.099 83.5001C162.999 83.3001 162.799 83.2001 162.599 83.0001C162.399 82.9001 162.299 82.8001 162.099 82.7001C161.899 82.6001 161.799 82.6001 161.599 82.6001C161.399 82.6001 161.299 82.6001 161.199 82.6001C161.099 82.6001 160.899 82.6001 160.799 82.6001L160.399 81.6001ZM161.599 85.4001C161.399 85.2001 161.099 85.1001 160.899 84.9001C160.699 84.8001 160.399 84.6001 160.199 84.6001C159.999 84.5001 159.699 84.5001 159.499 84.6001C159.299 84.6001 159.099 84.8001 158.999 84.9001C158.799 85.2001 158.699 85.5001 158.799 85.7001C158.899 85.9001 159.099 86.2001 159.399 86.4001C159.699 86.6001 159.899 86.7001 160.099 86.7001C160.299 86.7001 160.599 86.7001 160.799 86.7001C160.999 86.6001 161.199 86.5001 161.399 86.4001C161.599 86.3001 161.699 86.1001 161.799 86.0001L161.999 85.7001L161.599 85.4001Z" fill="white"/>
<path d="M30.1 186.9L31.3 189.8C31.5 190.2 31.5 190.5 31.6 190.9C31.6 191.2 31.6 191.6 31.6 191.9C31.5 192.2 31.4 192.5 31.2 192.7C31 192.9 30.7 193.1 30.4 193.3C29.9 193.5 29.5 193.5 29.1 193.4C28.7 193.3 28.3 193 28 192.6C28.1 192.9 28.1 193.1 28.1 193.4C28.1 193.7 28 193.9 27.9 194.2C27.8 194.4 27.6 194.7 27.4 194.9C27.2 195.1 27 195.3 26.7 195.4C26.3 195.6 26 195.6 25.6 195.6C25.2 195.6 24.9 195.5 24.6 195.3C24.3 195.1 24 194.9 23.8 194.6C23.6 194.3 23.3 193.9 23.2 193.5L22 190.6L30.1 186.9ZM23.2 191.1L23.9 192.8C24 193 24.1 193.2 24.2 193.3C24.3 193.5 24.5 193.7 24.7 193.8C24.9 193.9 25.1 194 25.3 194.1C25.5 194.1 25.8 194.1 26.1 194C26.6 193.8 26.9 193.5 27 193.1C27.1 192.7 27.1 192.2 26.8 191.6L26.1 189.9L23.2 191.1ZM27.1 189.4L27.7 190.9C27.8 191.1 27.9 191.3 28 191.5C28.1 191.7 28.3 191.8 28.4 191.9C28.6 192 28.7 192.1 28.9 192.1C29.1 192.1 29.3 192.1 29.5 192C29.8 191.9 30.1 191.6 30.2 191.3C30.3 191 30.3 190.6 30.1 190.1L29.6 188.4L27.1 189.4Z" fill="white"/>
<path d="M33.5 193.4L34 194.4L30 196.5C30.4 196.5 30.7 196.6 31 196.8C31.3 197 31.6 197.3 31.8 197.8C31.9 198.1 32 198.3 32.1 198.6C32.1 198.9 32.1 199.1 32.1 199.4C32.1 199.7 31.9 199.9 31.7 200.2C31.5 200.4 31.2 200.7 30.9 200.8L27.5 202.6L27 201.6L30.2 199.9C30.4 199.8 30.6 199.6 30.8 199.5C30.9 199.3 31 199.2 31.1 199C31.2 198.8 31.2 198.7 31.1 198.5C31.1 198.3 31 198.2 30.9 198C30.8 197.8 30.7 197.6 30.5 197.5C30.3 197.4 30.1 197.3 29.9 197.2C29.7 197.1 29.4 197.1 29.2 197.2C28.9 197.2 28.6 197.3 28.3 197.5L25.5 198.9L25 197.9L33.5 193.4Z" fill="white"/>
<path d="M33.0016 201.6C33.4016 201.7 33.8016 201.9 34.2016 202.2C34.6016 202.5 34.8016 202.8 35.1016 203.2C35.3016 203.6 35.5016 203.9 35.6016 204.3C35.7016 204.6 35.7016 204.9 35.6016 205.2C35.5016 205.5 35.4016 205.7 35.3016 205.9C35.1016 206.1 35.0016 206.3 34.7016 206.4L32.1016 208C31.9016 208.1 31.8016 208.2 31.6016 208.3C31.5016 208.4 31.3016 208.5 31.2016 208.6L30.7016 207.7C30.9016 207.5 31.2016 207.3 31.5016 207.2C31.0016 207.2 30.6016 207.1 30.3016 206.9C30.0016 206.7 29.7016 206.4 29.5016 206C29.4016 205.8 29.2016 205.5 29.2016 205.3C29.2016 205.1 29.1016 204.8 29.1016 204.5C29.1016 204.3 29.2016 204 29.3016 203.8C29.4016 203.6 29.6016 203.4 29.9016 203.2C30.2016 203 30.6016 202.9 30.9016 202.9C31.2016 202.9 31.5016 203 31.8016 203.2C32.1016 203.4 32.4016 203.6 32.7016 203.9C33.0016 204.2 33.2016 204.6 33.5016 204.9L33.9016 205.6L34.1016 205.5C34.2016 205.4 34.3016 205.3 34.4016 205.2C34.5016 205.1 34.6016 204.9 34.6016 204.8C34.6016 204.6 34.6016 204.5 34.6016 204.3C34.6016 204.1 34.5016 203.9 34.4016 203.7C34.3016 203.5 34.2016 203.4 34.0016 203.2C33.8016 203 33.8016 203 33.6016 202.9C33.5016 202.8 33.3016 202.8 33.2016 202.7C33.1016 202.7 32.9016 202.6 32.8016 202.6L33.0016 201.6ZM32.7016 205.6C32.6016 205.4 32.4016 205.1 32.2016 204.9C32.0016 204.7 31.8016 204.5 31.6016 204.3C31.4016 204.1 31.2016 204 31.0016 204C30.8016 204 30.6016 204 30.4016 204.1C30.1016 204.3 30.0016 204.5 29.9016 204.8C29.9016 205.1 30.0016 205.4 30.2016 205.7C30.4016 206 30.6016 206.2 30.8016 206.3C31.0016 206.4 31.2016 206.5 31.4016 206.5C31.6016 206.5 31.8016 206.5 32.0016 206.4C32.2016 206.3 32.4016 206.3 32.6016 206.1L32.9016 205.9L32.7016 205.6Z" fill="white"/>
<path d="M37.8009 210.1C37.9009 209.9 37.9009 209.7 37.8009 209.4C37.8009 209.2 37.7008 208.9 37.5008 208.7C37.3008 208.5 37.2008 208.3 36.9008 208.2C36.7008 208.1 36.5009 208.1 36.3009 208.3C36.2009 208.4 36.1008 208.5 36.1008 208.7C36.1008 208.9 36.1008 209 36.1008 209.2C36.1008 209.4 36.2009 209.5 36.3009 209.7C36.4009 209.9 36.4008 210 36.5008 210.1C36.6008 210.3 36.7008 210.6 36.7008 210.8C36.7008 211 36.8009 211.2 36.8009 211.4C36.8009 211.6 36.7008 211.8 36.6008 212C36.5008 212.2 36.3008 212.4 36.1008 212.5C35.8008 212.7 35.5009 212.8 35.3009 212.8C35.1009 212.8 34.7008 212.8 34.5008 212.7C34.2008 212.6 34.0009 212.5 33.8009 212.3C33.6009 212.1 33.4008 211.9 33.2008 211.6C32.9008 211.2 32.7008 210.8 32.6008 210.4C32.5008 210 32.5008 209.6 32.7008 209.1L33.8009 209.4C33.8009 209.7 33.7009 209.9 33.8009 210.2C33.8009 210.5 33.9008 210.7 34.1008 211C34.2008 211.1 34.3008 211.2 34.4008 211.3C34.5008 211.4 34.6008 211.5 34.7008 211.5C34.8008 211.5 34.9008 211.6 35.1008 211.6C35.2008 211.6 35.3008 211.6 35.4008 211.5C35.5008 211.4 35.6008 211.3 35.6008 211.1C35.6008 210.9 35.6008 210.8 35.6008 210.6C35.6008 210.4 35.5008 210.3 35.4008 210.1C35.3008 209.9 35.3008 209.8 35.2008 209.7C35.1008 209.5 35.0008 209.2 35.0008 209C34.9008 208.8 34.9008 208.6 34.9008 208.3C34.9008 208.1 35.0008 207.9 35.1008 207.7C35.2008 207.5 35.4008 207.3 35.6008 207.1C35.9008 206.9 36.1008 206.8 36.4008 206.8C36.7008 206.8 36.9008 206.8 37.2008 206.9C37.5008 207 37.7008 207.1 37.9008 207.3C38.1008 207.5 38.3008 207.7 38.5008 207.9C38.7008 208.2 38.9008 208.6 39.0008 209C39.1008 209.4 39.1008 209.8 38.9008 210.2L37.8009 210.1Z" fill="white"/>
<path d="M43.1992 208.8L43.8992 209.7L40.3992 212.6C40.6992 212.5 41.0992 212.5 41.4992 212.7C41.8992 212.8 42.1992 213.1 42.4992 213.5C42.6992 213.7 42.7992 214 42.8992 214.2C42.9992 214.5 42.9992 214.7 42.9992 215C42.9992 215.3 42.8992 215.5 42.7992 215.8C42.6992 216.1 42.3992 216.3 42.0992 216.6L39.0992 219.1L38.3992 218.2L41.0992 215.9C41.2992 215.7 41.4992 215.5 41.5992 215.3C41.6992 215.1 41.7992 214.9 41.7992 214.8C41.7992 214.6 41.7992 214.5 41.6992 214.3C41.5992 214.1 41.4992 214 41.3992 213.9C41.1992 213.7 41.0992 213.6 40.8992 213.5C40.6992 213.4 40.4992 213.3 40.2992 213.3C40.0992 213.3 39.7992 213.3 39.5992 213.4C39.3992 213.5 39.0992 213.7 38.7992 213.9L36.3992 215.9L35.6992 215L43.1992 208.8Z" fill="white"/>
<path d="M44.4984 217C44.8984 217 45.3985 217.1 45.7985 217.3C46.1985 217.5 46.5984 217.8 46.8984 218.1C47.1984 218.4 47.3984 218.7 47.5984 219C47.6984 219.3 47.7985 219.6 47.7985 219.9C47.7985 220.2 47.7985 220.4 47.6985 220.7C47.5985 221 47.3985 221.2 47.2985 221.3L45.0984 223.5C44.8984 223.6 44.7985 223.8 44.6985 223.9C44.5985 224 44.4984 224.2 44.3984 224.3L43.6985 223.6C43.8985 223.4 44.0985 223.1 44.2985 222.9C43.7985 223 43.3984 223 43.0984 222.8C42.6984 222.7 42.3984 222.4 42.0984 222.1C41.8984 221.9 41.6984 221.7 41.5984 221.4C41.4984 221.1 41.3984 220.9 41.3984 220.7C41.3984 220.5 41.3984 220.2 41.4984 220C41.5984 219.8 41.6984 219.5 41.8984 219.3C42.1984 219 42.4985 218.9 42.7985 218.8C43.0985 218.7 43.3985 218.8 43.7985 218.9C44.0985 219 44.4985 219.2 44.7985 219.4C45.0985 219.6 45.4985 219.9 45.7985 220.2L46.3984 220.8L46.5984 220.6C46.6984 220.5 46.7984 220.4 46.8984 220.2C46.9984 220 46.9984 219.9 46.9984 219.7C46.9984 219.5 46.9984 219.4 46.8984 219.2C46.7984 219 46.6984 218.8 46.4984 218.7C46.2984 218.5 46.1984 218.4 45.9984 218.3C45.7984 218.2 45.6984 218.1 45.5984 218.1C45.4984 218 45.2985 218 45.1985 218C45.0985 218 44.8985 218 44.7985 217.9L44.4984 217ZM45.0984 221C44.8984 220.8 44.6984 220.6 44.4984 220.4C44.2984 220.2 44.0985 220.1 43.7985 220C43.4985 219.9 43.3984 219.8 43.0984 219.8C42.8984 219.8 42.6984 219.9 42.4984 220.1C42.2984 220.3 42.1985 220.6 42.1985 220.9C42.2985 221.2 42.3985 221.5 42.6985 221.7C42.8985 221.9 43.0984 222.1 43.3984 222.2C43.5984 222.3 43.8984 222.3 44.0984 222.3C44.2984 222.3 44.4985 222.2 44.6985 222.1C44.8985 222 45.0985 221.9 45.1985 221.7L45.4984 221.4L45.0984 221Z" fill="white"/>
<path d="M53.7002 226.5C53.7002 226.3 53.7002 226.1 53.6002 225.8C53.5002 225.6 53.4002 225.4 53.1002 225.2C52.9002 225 52.7002 224.9 52.4002 224.9C52.2002 224.9 52.0002 224.9 51.8002 225.1C51.7002 225.2 51.6002 225.4 51.7002 225.5C51.8002 225.6 51.8002 225.8 51.8002 226C51.9002 226.2 52.0002 226.3 52.1002 226.4C52.2002 226.5 52.3002 226.7 52.4002 226.8C52.6002 227 52.7002 227.2 52.8002 227.4C52.9002 227.6 53.0002 227.8 53.0002 228C53.0002 228.2 53.0002 228.4 53.0002 228.6C52.9002 228.8 52.8002 229 52.7002 229.2C52.5002 229.5 52.2002 229.6 52.0002 229.7C51.7002 229.8 51.5002 229.8 51.2002 229.8C50.9002 229.8 50.7002 229.7 50.4002 229.6C50.1002 229.5 49.9002 229.3 49.6002 229.1C49.2002 228.8 48.9002 228.4 48.7002 228.1C48.5002 227.8 48.4002 227.3 48.5002 226.8H49.6002C49.6002 227.1 49.7002 227.3 49.8002 227.6C49.9002 227.9 50.1002 228.1 50.3002 228.3C50.4002 228.4 50.5002 228.5 50.7002 228.5C50.9002 228.5 51.0002 228.6 51.1002 228.6C51.2002 228.6 51.4002 228.6 51.5002 228.6C51.6002 228.6 51.7002 228.5 51.8002 228.4C51.9002 228.3 52.0002 228.1 51.9002 228C51.9002 227.8 51.8002 227.7 51.8002 227.6C51.7002 227.5 51.6002 227.3 51.5002 227.2C51.4002 227.1 51.3002 226.9 51.2002 226.8C51.0002 226.6 50.9002 226.4 50.8002 226.2C50.7002 226 50.6002 225.8 50.5002 225.6C50.4002 225.4 50.4002 225.2 50.5002 225C50.6002 224.8 50.7002 224.6 50.8002 224.3C51.0002 224.1 51.2002 223.9 51.5002 223.8C51.8002 223.7 52.0002 223.7 52.3002 223.7C52.6002 223.7 52.8002 223.8 53.1002 223.9C53.4002 224 53.6002 224.2 53.8002 224.3C54.1002 224.6 54.4002 224.9 54.6002 225.2C54.8002 225.6 54.9002 225.9 54.8002 226.4L53.7002 226.5Z" fill="white"/>
<path d="M56.0984 227.5C56.4984 227.4 56.9984 227.5 57.3984 227.6C57.7984 227.7 58.1984 227.9 58.5984 228.2C58.9984 228.5 59.1984 228.7 59.3984 229C59.5984 229.3 59.6984 229.5 59.7984 229.8C59.8984 230.1 59.8984 230.3 59.7984 230.6C59.6984 230.9 59.5984 231.1 59.4984 231.3L57.6984 233.8C57.5984 234 57.4984 234.1 57.3984 234.3C57.2984 234.5 57.1984 234.6 57.0984 234.7L56.2984 234.1C56.4984 233.8 56.5984 233.6 56.7984 233.3C56.3984 233.5 55.9984 233.5 55.5984 233.5C55.1984 233.5 54.7984 233.3 54.4984 233C54.2984 232.8 54.0984 232.7 53.8984 232.4C53.6984 232.2 53.5984 232 53.5984 231.7C53.4984 231.5 53.4984 231.2 53.5984 231C53.5984 230.8 53.6984 230.5 53.8984 230.3C54.0984 230 54.3984 229.8 54.6984 229.7C54.9984 229.6 55.2984 229.5 55.6984 229.6C56.0984 229.7 56.3984 229.7 56.7984 229.9C57.1984 230.1 57.4984 230.3 57.8984 230.6L58.5984 231.1L58.6984 230.9C58.7984 230.8 58.8984 230.6 58.8984 230.5C58.8984 230.4 58.8984 230.2 58.8984 230C58.8984 229.8 58.7984 229.7 58.6984 229.5C58.5984 229.3 58.3984 229.2 58.1984 229C57.9984 228.9 57.7984 228.8 57.6984 228.7C57.4984 228.6 57.3984 228.6 57.1984 228.6C57.0984 228.6 56.8984 228.6 56.7984 228.6C56.6984 228.6 56.4984 228.6 56.3984 228.6L56.0984 227.5ZM57.3984 231.3C57.1984 231.1 56.8984 231 56.6984 230.9C56.4984 230.8 56.1984 230.7 55.9984 230.6C55.7984 230.5 55.4984 230.5 55.2984 230.6C55.0984 230.6 54.8984 230.8 54.7984 230.9C54.5984 231.2 54.4984 231.5 54.5984 231.7C54.6984 232 54.8984 232.2 55.1984 232.4C55.4984 232.6 55.6984 232.7 55.8984 232.7C56.0984 232.7 56.3984 232.7 56.5984 232.7C56.7984 232.6 56.9984 232.5 57.1984 232.4C57.3984 232.3 57.4984 232.1 57.5984 231.9L57.7984 231.6L57.3984 231.3Z" fill="white"/>
<path d="M61.7992 230.6L62.6992 231.1L62.1992 231.9C62.2992 231.8 62.3992 231.8 62.4992 231.7C62.6992 231.6 62.7992 231.6 62.9992 231.6C63.1992 231.6 63.3992 231.6 63.6992 231.6C63.9992 231.6 64.1992 231.7 64.3992 231.9C64.7992 232.1 65.0992 232.4 65.1992 232.7C65.3992 233 65.4992 233.4 65.3992 233.8C65.7992 233.6 66.0992 233.5 66.4992 233.5C66.8992 233.5 67.2992 233.6 67.5992 233.8C67.9992 234 68.2992 234.3 68.4992 234.6C68.6992 234.9 68.7992 235.2 68.7992 235.5C68.7992 235.8 68.7992 236.1 68.6992 236.4C68.5992 236.7 68.4992 237 68.2992 237.3L66.4992 240.4L65.4992 239.8L67.1992 236.9C67.2992 236.7 67.3992 236.5 67.4992 236.3C67.5992 236.1 67.5992 235.9 67.5992 235.7C67.5992 235.5 67.4992 235.3 67.4992 235.2C67.3992 235 67.1992 234.9 66.9992 234.7C66.4992 234.4 66.0992 234.4 65.6992 234.6C65.2992 234.8 64.9992 235.1 64.6992 235.6L63.0992 238.5L62.0992 237.9L63.6992 235.2C63.7992 234.9 63.9992 234.7 64.0992 234.5C64.1992 234.3 64.1992 234.1 64.2992 233.9C64.2992 233.7 64.2992 233.5 64.1992 233.4C64.0992 233.2 63.8992 233.1 63.6992 232.9C63.4992 232.8 63.2992 232.7 63.0992 232.7C62.8992 232.7 62.6992 232.7 62.4992 232.8C62.2992 232.9 62.0992 233 61.8992 233.2C61.6992 233.4 61.4992 233.6 61.2992 233.9L59.6992 236.6L58.6992 236L61.7992 230.6Z" fill="white"/>
<path d="M70.9008 236.5C71.3008 236.4 71.7007 236.3 72.2007 236.3C72.6007 236.3 73.1008 236.4 73.5008 236.6C73.9008 236.8 74.2008 237 74.5008 237.2C74.7008 237.4 74.9008 237.7 75.0008 237.9C75.1008 238.2 75.2008 238.4 75.1008 238.7C75.1008 239 75.0008 239.2 74.9008 239.5L73.6008 242.3C73.5008 242.5 73.4008 242.7 73.4008 242.8C73.3008 243 73.3007 243.1 73.2007 243.3L72.3008 242.9C72.4008 242.6 72.5008 242.3 72.6008 242C72.2008 242.3 71.8008 242.4 71.4008 242.4C71.0008 242.4 70.6007 242.3 70.2007 242.1C69.9007 242 69.7008 241.8 69.5008 241.7C69.3008 241.5 69.1008 241.3 69.0008 241.1C68.9008 240.9 68.8008 240.6 68.8008 240.4C68.8008 240.2 68.8008 239.9 69.0008 239.6C69.2008 239.2 69.4008 239 69.6008 238.8C69.9008 238.6 70.2008 238.5 70.5008 238.5C70.8008 238.5 71.2008 238.5 71.6008 238.6C72.0008 238.7 72.4008 238.8 72.8008 239L73.6008 239.3L73.7007 239.1C73.8007 239 73.8008 238.8 73.8008 238.6C73.8008 238.4 73.8007 238.3 73.7007 238.1C73.6007 237.9 73.5008 237.8 73.4008 237.6C73.3008 237.4 73.1008 237.3 72.9008 237.2C72.7008 237.1 72.5008 237 72.3008 237C72.1008 237 72.0008 237 71.8008 237C71.6008 237 71.5008 237 71.4008 237.1C71.3008 237.2 71.1008 237.2 71.0008 237.2L70.9008 236.5ZM72.9008 240C72.7008 239.9 72.4008 239.8 72.1008 239.7C71.8008 239.6 71.6008 239.6 71.3008 239.5C71.1008 239.5 70.8008 239.5 70.6008 239.6C70.4008 239.7 70.3007 239.8 70.2007 240C70.1007 240.3 70.1007 240.6 70.2007 240.8C70.4007 241 70.6008 241.2 71.0008 241.4C71.3008 241.5 71.6008 241.6 71.8008 241.6C72.0008 241.6 72.3008 241.5 72.5008 241.4C72.7008 241.3 72.9008 241.2 73.0008 241C73.1008 240.8 73.3008 240.7 73.3008 240.5L73.5008 240.2L72.9008 240Z" fill="white"/>
<path d="M77.2015 238.4L78.3016 238.8L78.0016 239.7C78.1016 239.6 78.3016 239.5 78.4016 239.4C78.6016 239.3 78.7016 239.3 78.9016 239.2C79.1016 239.2 79.3016 239.2 79.5016 239.2C79.7016 239.2 79.9016 239.3 80.1016 239.3C80.3016 239.4 80.4016 239.4 80.6016 239.6L80.1016 240.7C80.0016 240.6 79.9016 240.6 79.9016 240.5C79.8016 240.5 79.7016 240.4 79.6016 240.4C79.1016 240.2 78.6015 240.2 78.2015 240.4C77.8015 240.6 77.5016 241 77.3016 241.6L76.2015 244.4L75.1016 244L77.2015 238.4Z" fill="white"/>
<path d="M84.2993 241.9L82.6992 241.4L81.8992 244C81.7992 244.2 81.7993 244.3 81.7993 244.5C81.7993 244.7 81.6993 244.8 81.7993 245C81.7993 245.1 81.8992 245.3 81.8992 245.4C81.9992 245.5 82.0993 245.6 82.2993 245.7C82.3993 245.7 82.5992 245.8 82.6992 245.8C82.7992 245.8 82.9992 245.8 83.0992 245.8L82.7993 246.8C82.5993 246.8 82.4992 246.8 82.1992 246.8C81.8992 246.8 81.7992 246.7 81.6992 246.7C81.2992 246.6 80.9993 246.4 80.7993 246.2C80.5993 246 80.4992 245.8 80.3992 245.6C80.2992 245.4 80.2992 245.1 80.3992 244.9C80.4992 244.7 80.4992 244.4 80.5992 244.2L81.4993 241.2L80.1992 240.8L80.4993 239.9L81.7993 240.3L82.2993 238.7L83.3992 239L82.8992 240.6L84.4993 241.1L84.2993 241.9Z" fill="white"/>
<path d="M86.8 237.9L87.9 238.2L86.8 242.6C87 242.3 87.3 242.1 87.7 242C88.1 241.9 88.5 241.9 89 242C89.3 242.1 89.5 242.2 89.8 242.3C90.1 242.4 90.2 242.6 90.4 242.9C90.5 243.1 90.6 243.4 90.7 243.7C90.7 244 90.7 244.4 90.6 244.8L89.7 248.6L88.6 248.3L89.4 244.8C89.5 244.5 89.5 244.3 89.5 244.1C89.5 243.9 89.4 243.7 89.3 243.6C89.2 243.5 89.1 243.3 88.9 243.2C88.8 243.1 88.6 243 88.4 243C88.2 242.9 87.9 242.9 87.7 243C87.5 243 87.3 243.1 87.1 243.2C86.9 243.3 86.7 243.5 86.6 243.7C86.5 243.9 86.3 244.2 86.3 244.5L85.6 247.5L84.5 247.2L86.8 237.9Z" fill="white"/>
<path d="M92.6 243.7C93 243.5 93.4 243.3 93.8 243.2C94.2 243.1 94.7 243.1 95.1 243.2C95.5 243.3 95.9 243.4 96.2 243.5C96.5 243.6 96.7 243.8 96.9 244.1C97.1 244.3 97.2 244.6 97.2 244.8C97.2 245 97.3 245.3 97.2 245.6L96.7 248.6C96.7 248.8 96.6 249 96.6 249.2C96.6 249.4 96.6 249.5 96.6 249.7L95.6 249.5C95.6 249.2 95.7 248.9 95.7 248.6C95.4 248.9 95 249.2 94.7 249.3C94.3 249.4 93.9 249.4 93.5 249.3C93.2 249.3 93 249.2 92.7 249.1C92.5 249 92.3 248.8 92.1 248.7C91.9 248.5 91.8 248.3 91.7 248.1C91.6 247.9 91.6 247.6 91.7 247.3C91.8 246.9 91.9 246.6 92.1 246.4C92.3 246.2 92.6 246 92.9 245.9C93.2 245.8 93.6 245.7 94 245.7C94.4 245.7 94.8 245.7 95.3 245.8L96.1 245.9V245.6C96.1 245.4 96.1 245.3 96.1 245.1C96.1 244.9 96 244.8 95.9 244.6C95.8 244.4 95.7 244.3 95.5 244.2C95.3 244.1 95.1 244 94.9 244C94.7 244 94.5 244 94.3 244C94.1 244 94 244 93.8 244.1C93.7 244.1 93.5 244.2 93.4 244.3C93.3 244.4 93.2 244.4 93 244.5L92.6 243.7ZM95.5 246.5C95.2 246.5 95 246.4 94.7 246.4C94.4 246.4 94.1 246.4 93.9 246.4C93.7 246.4 93.4 246.5 93.3 246.7C93.1 246.8 93 247 93 247.2C92.9 247.5 93 247.8 93.2 248C93.4 248.2 93.7 248.3 94.1 248.4C94.4 248.4 94.7 248.4 94.9 248.4C95.1 248.4 95.3 248.2 95.5 248.1C95.7 248 95.8 247.8 95.9 247.6C96 247.4 96.1 247.2 96.1 247L96.2 246.6L95.5 246.5Z" fill="white"/>
<path d="M99.5008 240.3L100.601 240.4L100.101 246.6L102.901 244.2L104.501 244.3L101.501 246.8L104.301 250.3L102.701 250.2L100.201 246.8L99.9008 249.9L98.8008 249.8L99.5008 240.3Z" fill="white"/>
<path d="M109.301 246C109.301 245.7 109.301 245.4 109.501 245.1C109.601 244.8 109.801 244.6 110.001 244.4C110.201 244.2 110.401 244 110.701 243.9C111.001 243.8 111.301 243.7 111.601 243.7C111.901 243.7 112.201 243.7 112.501 243.9C112.801 244 113.001 244.2 113.201 244.4C113.401 244.6 113.601 244.8 113.701 245.1C113.801 245.4 113.901 245.7 113.901 246C113.901 246.3 113.901 246.6 113.701 246.9C113.601 247.2 113.401 247.4 113.201 247.6C113.001 247.8 112.801 248 112.501 248.1C112.201 248.2 111.901 248.3 111.601 248.3C111.301 248.3 111.001 248.3 110.701 248.1C110.401 248 110.201 247.8 110.001 247.6C109.801 247.4 109.601 247.2 109.501 246.9C109.401 246.6 109.301 246.3 109.301 246Z" fill="white"/>
<path d="M126.898 243.8L127.599 248.2C127.399 248.4 127.198 248.5 126.898 248.7C126.598 248.8 126.399 249 126.099 249.1C125.799 249.2 125.498 249.3 125.198 249.4C124.898 249.5 124.599 249.5 124.299 249.6C123.499 249.7 122.798 249.7 122.198 249.5C121.598 249.3 120.999 249.1 120.499 248.7C119.999 248.3 119.599 247.9 119.299 247.4C118.999 246.9 118.798 246.3 118.698 245.7C118.598 245 118.599 244.4 118.799 243.8C118.899 243.2 119.199 242.6 119.499 242.2C119.799 241.7 120.299 241.3 120.799 241C121.299 240.7 121.899 240.5 122.599 240.3C123.399 240.2 124.098 240.2 124.698 240.3C125.298 240.4 125.699 240.6 126.099 240.9L125.398 242C124.998 241.7 124.499 241.5 124.099 241.4C123.699 241.3 123.199 241.3 122.799 241.4C122.299 241.5 121.799 241.6 121.499 241.9C121.099 242.2 120.799 242.5 120.599 242.8C120.399 243.2 120.199 243.6 120.099 244C119.999 244.5 119.999 244.9 120.099 245.4C120.199 245.9 120.299 246.4 120.599 246.8C120.799 247.2 121.099 247.5 121.499 247.8C121.899 248.1 122.298 248.3 122.698 248.4C123.098 248.5 123.599 248.5 124.099 248.5C124.499 248.4 124.899 248.3 125.299 248.2C125.699 248.1 125.998 247.9 126.198 247.7L125.799 245.2L123.799 245.5L123.599 244.4L126.898 243.8Z" fill="white"/>
<path d="M128.998 245.4C128.898 245 128.898 244.6 128.898 244.1C128.998 243.7 129.098 243.3 129.298 243C129.498 242.6 129.798 242.3 130.098 242.1C130.398 241.8 130.798 241.7 131.298 241.5C131.698 241.4 132.198 241.4 132.598 241.4C132.998 241.5 133.398 241.6 133.798 241.8C134.198 242 134.498 242.3 134.698 242.6C134.998 242.9 135.098 243.3 135.298 243.7C135.398 244.1 135.398 244.5 135.398 245C135.298 245.4 135.198 245.8 134.998 246.1C134.798 246.4 134.498 246.8 134.198 247C133.898 247.3 133.498 247.4 132.998 247.6C132.598 247.7 132.098 247.7 131.698 247.7C131.298 247.6 130.898 247.5 130.498 247.3C130.098 247.1 129.798 246.8 129.598 246.5C129.298 246.2 129.098 245.8 128.998 245.4ZM130.198 245.1C130.298 245.4 130.398 245.7 130.498 245.9C130.598 246.1 130.798 246.3 130.998 246.4C131.198 246.5 131.398 246.6 131.698 246.7C131.998 246.8 132.198 246.7 132.498 246.6C132.798 246.5 133.098 246.4 133.298 246.2C133.498 246 133.698 245.8 133.798 245.6C133.898 245.4 133.998 245.1 133.998 244.9C133.998 244.6 133.998 244.3 133.898 244C133.798 243.7 133.698 243.4 133.598 243.2C133.398 243 133.298 242.8 133.098 242.7C132.898 242.6 132.698 242.5 132.398 242.4C132.098 242.4 131.898 242.4 131.598 242.5C131.298 242.6 130.998 242.7 130.798 242.9C130.598 243.1 130.398 243.3 130.298 243.5C130.198 243.7 130.098 244 130.098 244.2C130.098 244.4 130.098 244.8 130.198 245.1Z" fill="white"/>
<path d="M134.699 237L135.799 236.6L138.799 245.8L137.699 246.2L134.699 237Z" fill="white"/>
<path d="M146.402 242.9L145.302 243.3L145.002 242.5C144.902 242.9 144.702 243.2 144.402 243.5C144.102 243.8 143.802 244 143.402 244.2C143.002 244.4 142.502 244.4 142.102 244.4C141.702 244.4 141.302 244.3 141.002 244.1C140.602 243.9 140.302 243.7 140.102 243.4C139.802 243.1 139.602 242.7 139.402 242.3C139.202 241.9 139.102 241.5 139.102 241.1C139.102 240.7 139.202 240.3 139.302 239.9C139.402 239.5 139.702 239.2 140.002 238.9C140.302 238.6 140.702 238.4 141.102 238.2C141.502 238 141.902 238 142.302 238C142.702 238 143.102 238.2 143.402 238.4L141.802 234.2L142.902 233.8L146.402 242.9ZM143.202 243.2C143.502 243.1 143.702 242.9 143.902 242.7C144.102 242.5 144.202 242.3 144.302 242.1C144.402 241.9 144.402 241.6 144.402 241.3C144.402 241 144.302 240.7 144.202 240.5C144.102 240.2 143.902 240 143.802 239.8C143.602 239.6 143.402 239.4 143.202 239.3C143.002 239.2 142.702 239.1 142.502 239.1C142.302 239.1 142.002 239.1 141.702 239.3C141.402 239.4 141.202 239.6 141.002 239.8C140.802 240 140.702 240.2 140.602 240.4C140.502 240.6 140.502 240.9 140.502 241.2C140.502 241.5 140.602 241.8 140.702 242C140.802 242.2 141.002 242.5 141.102 242.7C141.302 242.9 141.502 243.1 141.702 243.2C141.902 243.3 142.202 243.4 142.402 243.4C142.602 243.4 142.902 243.3 143.202 243.2Z" fill="white"/>
<path d="M154 231.1C153.6 230.9 153.2 230.9 152.8 230.9C152.4 230.9 152 231.1 151.6 231.3C151.2 231.5 150.8 231.9 150.5 232.2C150.2 232.6 150.1 233 150 233.4C149.9 233.8 149.9 234.3 150 234.8C150.1 235.3 150.2 235.7 150.5 236.2C150.7 236.6 151 237 151.4 237.3C151.8 237.6 152.1 237.8 152.5 238C152.9 238.2 153.3 238.2 153.8 238.2C154.3 238.2 154.7 238 155.2 237.8C155.7 237.5 156 237.2 156.2 236.9C156.4 236.6 156.6 236.1 156.6 235.6L157.9 235.8C157.9 235.9 157.8 236.1 157.8 236.3C157.7 236.5 157.6 236.8 157.5 237.1C157.4 237.4 157.1 237.7 156.8 238C156.5 238.3 156.2 238.6 155.7 238.8C155.1 239.1 154.4 239.3 153.8 239.4C153.2 239.4 152.6 239.4 152 239.2C151.4 239 150.9 238.7 150.5 238.3C150 237.9 149.7 237.5 149.4 237C149.1 236.4 148.8 235.8 148.8 235.1C148.7 234.5 148.7 233.9 148.9 233.3C149.1 232.7 149.3 232.2 149.7 231.7C150.1 231.2 150.6 230.8 151.2 230.5C151.7 230.2 152.3 230 152.9 229.9C153.5 229.8 154.1 229.9 154.6 230.1L154 231.1Z" fill="white"/>
<path d="M157.899 233.4C157.699 233 157.499 232.6 157.399 232.2C157.299 231.8 157.299 231.4 157.399 231C157.499 230.6 157.599 230.2 157.899 229.9C158.099 229.5 158.399 229.2 158.799 229C159.199 228.7 159.599 228.6 159.999 228.5C160.399 228.4 160.799 228.4 161.199 228.5C161.599 228.6 161.999 228.7 162.299 228.9C162.599 229.1 162.999 229.4 163.199 229.8C163.399 230.2 163.599 230.6 163.699 231C163.799 231.4 163.799 231.8 163.699 232.2C163.599 232.6 163.499 233 163.199 233.3C162.999 233.7 162.699 234 162.299 234.2C161.899 234.5 161.499 234.6 161.099 234.7C160.699 234.8 160.299 234.8 159.899 234.7C159.499 234.6 159.099 234.5 158.799 234.3C158.499 234.1 158.199 233.8 157.899 233.4ZM158.899 232.7C159.099 233 159.299 233.2 159.499 233.3C159.699 233.5 159.999 233.6 160.199 233.6C160.399 233.6 160.699 233.7 160.999 233.6C161.299 233.5 161.499 233.4 161.799 233.3C162.099 233.1 162.299 232.9 162.399 232.7C162.499 232.5 162.599 232.2 162.699 232C162.699 231.8 162.699 231.5 162.699 231.2C162.699 230.9 162.499 230.7 162.299 230.4C162.099 230.1 161.899 229.9 161.699 229.8C161.499 229.6 161.199 229.5 160.999 229.5C160.799 229.4 160.499 229.4 160.199 229.5C159.899 229.6 159.699 229.7 159.399 229.8C159.099 230 158.899 230.2 158.799 230.4C158.699 230.6 158.599 230.9 158.499 231.1C158.499 231.3 158.499 231.6 158.499 231.9C158.699 232.2 158.799 232.5 158.899 232.7Z" fill="white"/>
<path d="M162.602 226.5L163.502 225.8L164.102 226.5C164.002 226.2 164.002 225.8 164.202 225.4C164.402 225 164.602 224.7 165.002 224.4C165.202 224.2 165.502 224.1 165.702 224C166.002 223.9 166.202 223.9 166.502 223.9C166.802 223.9 167.002 224 167.302 224.2C167.602 224.4 167.802 224.6 168.102 224.9L170.602 227.9L169.702 228.6L167.402 225.8C167.202 225.6 167.002 225.4 166.902 225.3C166.802 225.2 166.502 225.1 166.402 225.1C166.202 225.1 166.102 225.1 165.902 225.2C165.702 225.3 165.602 225.3 165.402 225.5C165.202 225.7 165.102 225.8 165.002 226C164.902 226.2 164.802 226.4 164.802 226.6C164.802 226.8 164.802 227.1 164.902 227.3C165.002 227.6 165.202 227.8 165.402 228.1L167.402 230.5L166.502 231.2L162.602 226.5Z" fill="white"/>
<path d="M171.001 220.5L169.801 221.6L171.701 223.6C171.801 223.7 171.901 223.8 172.101 224C172.201 224.1 172.301 224.2 172.501 224.3C172.601 224.4 172.801 224.4 172.901 224.4C173.001 224.4 173.201 224.3 173.401 224.1C173.501 224 173.601 223.9 173.701 223.8C173.801 223.7 173.901 223.6 173.901 223.4L174.601 224.2C174.601 224.3 174.501 224.5 174.301 224.7C174.101 224.9 174.001 225 174.001 225.1C173.701 225.4 173.401 225.6 173.101 225.7C172.801 225.8 172.601 225.8 172.401 225.7C172.201 225.6 172.001 225.5 171.801 225.4C171.601 225.3 171.401 225.1 171.301 224.9L169.201 222.6L168.201 223.5L167.501 222.8L168.501 221.9L167.301 220.7L168.101 219.9L169.301 221.1L170.501 220L171.001 220.5Z" fill="white"/>
<path d="M171.301 218.8L172.101 218L172.801 218.6C172.701 218.4 172.701 218.3 172.701 218.1C172.701 217.9 172.701 217.7 172.801 217.6C172.801 217.4 172.901 217.2 173.001 217.1C173.101 216.9 173.201 216.8 173.301 216.6C173.401 216.5 173.601 216.4 173.701 216.3L174.601 217.2C174.501 217.2 174.401 217.3 174.401 217.4C174.301 217.5 174.301 217.5 174.201 217.6C173.801 218 173.601 218.4 173.601 218.9C173.601 219.3 173.901 219.8 174.301 220.2L176.501 222.3L175.701 223.1L171.301 218.8Z" fill="white"/>
<path d="M172.8 214.1C172.6 213.9 172.5 213.8 172.5 213.5C172.5 213.3 172.6 213.1 172.7 212.9C172.8 212.7 173 212.6 173.3 212.6C173.5 212.6 173.7 212.7 173.9 212.8C174.1 212.9 174.2 213.1 174.2 213.4C174.2 213.6 174.1 213.8 174 214C173.9 214.2 173.7 214.3 173.4 214.3C173.1 214.4 172.9 214.3 172.8 214.1ZM174.6 215.4L175.4 214.5L179.9 218.5L179.1 219.4L174.6 215.4Z" fill="white"/>
<path d="M173.602 211L174.302 210.1L177.802 212.9C177.702 212.5 177.702 212.2 177.802 211.7C177.902 211.3 178.102 210.9 178.302 210.6C178.602 210.2 178.902 209.9 179.302 209.8C179.702 209.7 180.002 209.5 180.402 209.5C180.802 209.5 181.202 209.5 181.602 209.6C182.002 209.7 182.402 209.9 182.702 210.2C183.102 210.5 183.302 210.8 183.502 211.1C183.702 211.5 183.802 211.8 183.902 212.2C184.002 212.6 183.902 213 183.802 213.4C183.702 213.8 183.502 214.2 183.202 214.5C182.902 214.8 182.602 215.1 182.302 215.3C181.902 215.5 181.502 215.6 181.102 215.6L181.802 216.1L181.102 217L173.602 211ZM182.402 213.9C182.602 213.7 182.702 213.4 182.802 213.1C182.902 212.8 182.902 212.6 182.802 212.3C182.802 212.1 182.702 211.8 182.502 211.6C182.402 211.4 182.202 211.2 181.902 211C181.702 210.8 181.402 210.7 181.102 210.6C180.802 210.5 180.602 210.5 180.302 210.5C180.102 210.5 179.802 210.6 179.602 210.7C179.402 210.8 179.202 211 179.002 211.3C178.802 211.5 178.702 211.8 178.602 212.1C178.502 212.4 178.502 212.6 178.602 212.9C178.602 213.1 178.702 213.4 178.902 213.6C179.102 213.8 179.202 214 179.502 214.2C179.702 214.4 180.002 214.5 180.302 214.6C180.602 214.7 180.802 214.7 181.102 214.7C181.302 214.7 181.602 214.6 181.802 214.5C182.002 214.4 182.302 214.2 182.402 213.9Z" fill="white"/>
<path d="M189.102 206L188.502 207L187.702 206.5C187.902 206.8 188.002 207.2 187.902 207.6C187.802 208 187.702 208.4 187.502 208.8C187.302 209 187.102 209.3 186.902 209.4C186.702 209.6 186.402 209.7 186.202 209.8C185.902 209.9 185.602 209.9 185.302 209.8C185.002 209.7 184.702 209.6 184.302 209.4L181.102 207.3L181.702 206.3L184.702 208.3C184.902 208.5 185.202 208.6 185.402 208.6C185.602 208.6 185.802 208.6 186.002 208.6C186.202 208.6 186.302 208.5 186.502 208.4C186.702 208.3 186.802 208.2 186.902 208C187.002 207.8 187.102 207.6 187.202 207.4C187.202 207.2 187.202 207 187.202 206.8C187.102 206.6 187.002 206.4 186.902 206.2C186.702 206 186.502 205.8 186.202 205.6L183.602 203.9L184.202 202.9L189.102 206Z" fill="white"/>
<path d="M187.402 198.9L186.602 200.4L189.002 201.8C189.102 201.9 189.302 202 189.402 202C189.502 202 189.702 202.1 189.802 202.1C189.902 202.1 190.102 202.1 190.202 202C190.302 201.9 190.402 201.8 190.602 201.6C190.702 201.5 190.702 201.4 190.802 201.2C190.902 201 190.902 200.9 190.902 200.8L191.802 201.3C191.802 201.5 191.802 201.6 191.702 201.8C191.602 202 191.502 202.2 191.502 202.3C191.302 202.7 191.102 203 190.802 203.1C190.502 203.2 190.302 203.3 190.102 203.3C189.902 203.3 189.602 203.3 189.402 203.2C189.202 203.1 189.002 203 188.702 202.9L186.002 201.3L185.302 202.5L184.402 202L185.102 200.8L183.602 200L184.202 199L185.702 199.8L186.502 198.4L187.402 198.9Z" fill="white"/>
<path d="M189.8 198.8C189.4 198.6 189.1 198.4 188.8 198C188.5 197.7 188.3 197.3 188.2 196.9C188.1 196.5 188 196.1 188 195.7C188 195.3 188.1 194.9 188.3 194.5C188.5 194.1 188.8 193.7 189.1 193.5C189.4 193.3 189.8 193 190.2 192.9C190.6 192.8 191 192.7 191.4 192.7C191.8 192.7 192.2 192.8 192.6 193C193 193.2 193.3 193.4 193.6 193.8C193.9 194.2 194.1 194.5 194.2 194.9C194.3 195.3 194.4 195.7 194.4 196.1C194.4 196.5 194.3 196.9 194.1 197.3C193.9 197.7 193.6 198.1 193.3 198.3C193 198.5 192.6 198.8 192.2 198.9C191.8 199 191.4 199.1 191 199.1C190.6 199.1 190.2 199 189.8 198.8ZM190.3 197.7C190.6 197.8 190.9 197.9 191.1 197.9C191.4 197.9 191.6 197.9 191.9 197.8C192.1 197.7 192.4 197.6 192.6 197.4C192.8 197.2 193 197 193.1 196.7C193.2 196.4 193.3 196.2 193.3 195.9C193.3 195.6 193.3 195.4 193.2 195.1C193.1 194.9 193 194.7 192.8 194.5C192.6 194.3 192.4 194.1 192.1 194C191.8 193.9 191.5 193.8 191.3 193.8C191 193.8 190.8 193.8 190.5 193.9C190.2 194 190 194.1 189.8 194.3C189.6 194.5 189.4 194.7 189.3 195C189.2 195.3 189.1 195.5 189.1 195.8C189.1 196.1 189.1 196.3 189.2 196.6C189.3 196.8 189.4 197 189.6 197.2C189.8 197.4 190 197.6 190.3 197.7Z" fill="white"/>
<path d="M190.301 190.4L190.701 189.3L191.601 189.6C191.501 189.5 191.401 189.3 191.301 189.2C191.201 189 191.201 188.9 191.101 188.7C191.101 188.5 191.101 188.3 191.101 188.1C191.101 187.9 191.201 187.7 191.201 187.5C191.301 187.3 191.401 187.2 191.501 187.1L192.601 187.6C192.501 187.7 192.501 187.8 192.401 187.8C192.401 187.9 192.301 188 192.301 188.1C192.101 188.6 192.101 189.1 192.301 189.5C192.501 189.9 192.901 190.2 193.501 190.5L196.301 191.6L195.901 192.7L190.301 190.4Z" fill="white"/>
<defs>
<filter id="filter0_ii" x="0" y="48" width="218" height="218" filterUnits="userSpaceOnUse" color-interpolation-filters="sRGB">
<feFlood flood-opacity="0" result="BackgroundImageFix"/>
<feBlend mode="normal" in="SourceGraphic" in2="BackgroundImageFix" result="shape"/>
<feColorMatrix in="SourceAlpha" type="matrix" values="0 0 0 0 0 0 0 0 0 0 0 0 0 0 0 0 0 0 127 0" result="hardAlpha"/>
<feOffset/>
<feGaussianBlur stdDeviation="4"/>
<feComposite in2="hardAlpha" operator="arithmetic" k2="-1" k3="1"/>
<feColorMatrix type="matrix" values="0 0 0 0 0.9875 0 0 0 0 0.722843 0 0 0 0 0.386771 0 0 0 1 0"/>
<feBlend mode="normal" in2="shape" result="effect1_innerShadow"/>
<feColorMatrix in="SourceAlpha" type="matrix" values="0 0 0 0 0 0 0 0 0 0 0 0 0 0 0 0 0 0 127 0" result="hardAlpha"/>
<feOffset/>
<feGaussianBlur stdDeviation="6"/>
<feComposite in2="hardAlpha" operator="arithmetic" k2="-1" k3="1"/>
<feColorMatrix type="matrix" values="0 0 0 0 0 0 0 0 0 0 0 0 0 0 0 0 0 0 0.2 0"/>
<feBlend mode="normal" in2="effect1_innerShadow" result="effect2_innerShadow"/>
</filter>
<filter id="filter1_i" x="59" y="107" width="100" height="100" filterUnits="userSpaceOnUse" color-interpolation-filters="sRGB">
<feFlood flood-opacity="0" result="BackgroundImageFix"/>
<feBlend mode="normal" in="SourceGraphic" in2="BackgroundImageFix" result="shape"/>
<feColorMatrix in="SourceAlpha" type="matrix" values="0 0 0 0 0 0 0 0 0 0 0 0 0 0 0 0 0 0 127 0" result="hardAlpha"/>
<feOffset/>
<feGaussianBlur stdDeviation="6"/>
<feComposite in2="hardAlpha" operator="arithmetic" k2="-1" k3="1"/>
<feColorMatrix type="matrix" values="0 0 0 0 0.75 0 0 0 0 0.525098 0 0 0 0 0.00937498 0 0 0 1 0"/>
<feBlend mode="normal" in2="shape" result="effect1_innerShadow"/>
</filter>
<linearGradient id="paint0_linear" x1="51.775" y1="55.4937" x2="233.571" y2="234.338" gradientUnits="userSpaceOnUse">
<stop stop-color="white"/>
<stop offset="1" stop-color="#E3BC43"/>
</linearGradient>
<linearGradient id="paint1_linear" x1="174.52" y1="211.6" x2="38.8" y2="105.52" gradientUnits="userSpaceOnUse">
<stop stop-color="#FFFEFB"/>
<stop offset="1" stop-color="#8C6A00" stop-opacity="0"/>
</linearGradient>
<linearGradient id="paint2_linear" x1="194.68" y1="228.4" x2="17.2" y2="89.68" gradientUnits="userSpaceOnUse">
<stop stop-color="#FFFEFC"/>
<stop offset="1" stop-color="#8C6A00" stop-opacity="0"/>
</linearGradient>
</defs>
</svg>
