<?xml version="1.0" encoding="UTF-8"?>
<!DOCTYPE svg PUBLIC "-//W3C//DTD SVG 1.1//EN" "http://www.w3.org/Graphics/SVG/1.1/DTD/svg11.dtd">
<!-- Creator: CorelDRAW X7 -->
<svg xmlns="http://www.w3.org/2000/svg" xml:space="preserve" width="4.96678in" height="1.57481in" version="1.1" style="shape-rendering:geometricPrecision; text-rendering:geometricPrecision; image-rendering:optimizeQuality; fill-rule:evenodd; clip-rule:evenodd"
viewBox="0 0 4614 1463"
 xmlns:xlink="http://www.w3.org/1999/xlink">
 <defs>
  <style type="text/css">
   <![CDATA[
    .fil4 {fill:#FDE9E2}
    .fil5 {fill:#FDE9E2;fill-rule:nonzero}
    .fil12 {fill:#FDB92E;fill-rule:nonzero}
    .fil10 {fill:#F9A33C;fill-rule:nonzero}
    .fil17 {fill:#EE3F3E;fill-rule:nonzero}
    .fil2 {fill:#ED3237;fill-rule:nonzero}
    .fil7 {fill:#EEF1E7;fill-rule:nonzero}
    .fil6 {fill:#E8E3F1;fill-rule:nonzero}
    .fil16 {fill:#EBE842;fill-rule:nonzero}
    .fil9 {fill:#DFE67D;fill-rule:nonzero}
    .fil11 {fill:#ACD79E;fill-rule:nonzero}
    .fil1 {fill:#97B55F;fill-rule:nonzero}
    .fil18 {fill:#8E699F;fill-rule:nonzero}
    .fil15 {fill:#67BD51;fill-rule:nonzero}
    .fil0 {fill:#694B9C;fill-rule:nonzero}
    .fil14 {fill:#2E5FA7;fill-rule:nonzero}
    .fil19 {fill:#3A325A;fill-rule:nonzero}
    .fil13 {fill:#3150A0;fill-rule:nonzero}
    .fil3 {fill:#354D8F;fill-rule:nonzero}
    .fil20 {fill:url(#id0)}
    .fil8 {fill:url(#id1)}
   ]]>
  </style>
  <linearGradient id="id0" gradientUnits="userSpaceOnUse" x1="968.453" y1="374.635" x2="1014.86" y2="623.433">
   <stop offset="0" style="stop-opacity:1; stop-color:#FEFEFE"/>
   <stop offset="1" style="stop-opacity:1; stop-color:#F89B4F"/>
  </linearGradient>
  <linearGradient id="id1" gradientUnits="userSpaceOnUse" x1="1148.47" y1="1033.09" x2="1089.8" y2="815.318">
   <stop offset="0" style="stop-opacity:1; stop-color:#FEFEFE"/>
   <stop offset="1" style="stop-opacity:1; stop-color:#30924F"/>
  </linearGradient>
 </defs>
 <g id="Layer_x0020_1">
  <metadata id="CorelCorpID_0Corel-Layer"/>
  <g id="_711304432">
   <path class="fil0" d="M2834 579l0 -177c6,-2 13,-4 22,-5 8,-2 17,-2 26,-2 18,0 32,3 42,10 10,7 14,19 14,34l0 392c-5,1 -11,3 -18,4 -8,2 -16,3 -27,3 -18,0 -33,-4 -43,-10 -10,-6 -16,-18 -16,-36l0 -130 -99 0c-3,21 -12,38 -27,49 -14,12 -33,17 -56,17 -26,0 -45,-6 -58,-19 -13,-12 -20,-28 -20,-46 0,-9 1,-17 3,-24 2,-7 4,-13 7,-19l20 0c21,0 32,-12 32,-35l0 -52c0,-19 -5,-34 -14,-44 -9,-11 -22,-16 -38,-16 -11,0 -21,2 -31,8 -10,5 -19,13 -26,24 -7,11 -14,25 -18,42 -5,17 -7,38 -7,61 0,24 2,45 7,64 5,18 12,35 20,49 8,15 17,27 28,38 11,11 22,20 33,28 -1,16 -6,29 -15,39 -10,10 -23,15 -40,15 -17,0 -33,-6 -50,-18 -17,-11 -32,-28 -45,-49 -14,-21 -25,-45 -33,-74 -8,-28 -13,-59 -13,-92 0,-36 5,-67 14,-95 9,-27 22,-50 39,-69 16,-18 36,-32 60,-42 23,-9 49,-14 77,-14 50,0 88,13 115,39 27,26 40,61 40,103l0 49 95 0z"/>
   <path id="1" class="fil0" d="M3141 832c-5,2 -12,3 -21,4 -9,1 -18,2 -26,2 -18,0 -32,-4 -42,-10 -9,-7 -14,-18 -14,-35l0 -393c5,-2 12,-3 21,-4 8,-1 17,-1 26,-1 18,0 32,3 42,10 10,6 14,18 14,34l0 393z"/>
   <path id="2" class="fil1" d="M3345 832c-6,2 -13,3 -22,4 -9,1 -17,2 -26,2 -18,0 -32,-4 -42,-10 -9,-7 -14,-18 -14,-35l0 -391c0,-66 22,-118 65,-154 42,-37 106,-56 190,-56 27,0 54,3 78,9 24,6 46,13 66,21 20,8 37,17 52,26 14,9 26,17 35,25 11,8 19,16 25,24 6,8 9,17 9,27 0,9 -4,19 -12,28 -8,9 -18,15 -31,19 -13,-10 -27,-21 -44,-32 -16,-11 -33,-21 -52,-31 -19,-9 -39,-17 -59,-23 -21,-6 -42,-9 -65,-9 -47,0 -85,13 -112,38 -28,25 -41,63 -41,113l0 405z"/>
   <path id="3" class="fil1" d="M3456 516c0,-10 -2,-19 -6,-26 -3,-7 -11,-10 -24,-10l-15 0c-2,-4 -3,-10 -5,-15 -1,-6 -1,-12 -1,-17 0,-18 5,-32 17,-40 11,-8 26,-13 45,-13l5 0c11,0 20,0 28,2 7,2 15,4 23,8 7,3 15,7 22,13 8,5 16,12 25,19l124 106 0 -141c6,-2 13,-4 21,-5 9,-2 18,-2 27,-2 18,0 32,3 42,10 9,6 14,18 14,34l0 392c-5,1 -11,3 -18,4 -8,2 -17,3 -27,3 -19,0 -33,-4 -43,-10 -11,-6 -16,-18 -16,-36l0 -88c-10,6 -23,10 -37,14 -15,4 -31,6 -49,6 -21,0 -40,-2 -59,-7 -18,-6 -34,-14 -48,-25 -14,-12 -25,-27 -33,-46 -8,-19 -12,-43 -12,-71l0 -59zm103 55c0,46 23,69 69,69 14,0 27,-2 39,-7 11,-4 20,-10 26,-16l-86 -74c-8,-6 -16,-14 -24,-22 -8,-8 -17,-17 -27,-27 1,5 2,11 2,17 1,6 1,12 1,18l0 42z"/>
   <path id="4" class="fil2" d="M4412 831c-6,1 -12,3 -19,4 -7,2 -16,3 -27,3 -18,0 -32,-4 -43,-10 -10,-6 -15,-18 -15,-36l0 -390c5,-2 12,-4 21,-5 8,-2 17,-2 26,-2 19,0 33,3 42,10 10,6 15,18 15,34l0 392zm-518 -430c5,-2 12,-4 20,-5 9,0 17,-1 27,-1 18,0 32,4 41,10 10,7 14,19 14,34l0 199c0,39 12,69 35,89 23,21 53,31 91,31 23,0 42,-3 57,-8 15,-5 27,-11 37,-17 6,6 12,13 16,21 5,9 7,18 7,27 0,12 -3,21 -10,29 -6,8 -15,15 -26,20 -11,5 -24,9 -39,11 -16,2 -32,3 -49,3 -33,0 -62,-4 -89,-13 -28,-9 -51,-22 -71,-39 -19,-17 -34,-38 -45,-64 -12,-26 -17,-56 -17,-90l1 -237zm156 37c0,-17 6,-30 19,-38 12,-8 28,-12 50,-12 20,0 38,3 55,10 16,6 30,16 42,28 12,12 21,28 28,46 6,18 9,38 9,61 0,25 -3,47 -10,65 -6,19 -16,34 -28,46 -12,13 -27,22 -44,27 -17,6 -35,9 -56,9 -22,0 -39,-4 -51,-13 -12,-8 -18,-20 -18,-35 0,-9 2,-17 4,-23 3,-7 6,-12 10,-16 4,2 9,3 15,5 6,1 12,2 20,2 17,0 31,-6 41,-17 11,-11 16,-28 16,-50 0,-22 -5,-38 -16,-49 -11,-11 -25,-16 -42,-16 -5,0 -10,0 -15,1 -5,1 -10,2 -15,4 -4,-4 -7,-9 -10,-14 -2,-6 -4,-13 -4,-21z"/>
   <path id="5" class="fil2" d="M4614 832c-5,2 -12,3 -21,4 -9,1 -18,2 -27,2 -18,0 -32,-4 -41,-10 -10,-7 -14,-18 -14,-35l0 -459c0,-19 -5,-33 -14,-43 -9,-10 -21,-15 -37,-15 -15,0 -27,5 -36,15 -9,10 -14,25 -14,45l0 21c-4,3 -9,7 -16,9 -7,3 -16,5 -26,5 -19,0 -33,-6 -43,-16 -10,-11 -15,-26 -15,-44 0,-19 4,-36 12,-50 8,-15 18,-28 32,-38 13,-10 29,-18 48,-23 18,-6 37,-8 58,-8 48,0 85,12 113,37 27,25 41,60 41,105l0 498z"/>
   <path class="fil3" d="M2532 1028l0 -68c0,0 1,0 2,0 2,-1 3,-1 4,-1 4,0 7,1 9,2 1,2 2,4 2,6l0 131c-1,0 -2,1 -3,1 -1,0 -2,0 -4,0 -4,0 -6,-1 -8,-2 -2,-1 -2,-3 -2,-6l0 -48 -47 0c-1,4 -3,8 -5,11 -3,3 -8,4 -15,4 -5,0 -9,-1 -12,-4 -3,-3 -4,-6 -4,-10 0,-3 1,-6 2,-9l9 0c3,0 5,-1 6,-3 2,-1 2,-4 2,-6l0 -28c0,-5 0,-9 -2,-12 -1,-4 -3,-6 -5,-8 -2,-2 -4,-3 -7,-4 -2,-1 -5,-1 -8,-1 -4,0 -8,1 -12,3 -4,2 -7,5 -10,9 -4,4 -6,9 -8,15 -2,7 -3,14 -3,24 0,16 3,29 9,40 7,11 15,20 25,26 -1,3 -2,5 -3,7 -2,2 -4,3 -8,3 -3,0 -7,-2 -12,-5 -5,-3 -9,-8 -14,-15 -4,-6 -8,-14 -11,-24 -3,-9 -5,-20 -5,-32 0,-12 2,-22 5,-30 3,-9 6,-16 11,-21 5,-5 11,-9 17,-12 6,-3 13,-4 19,-4 12,0 22,3 29,10 7,7 10,16 10,29l0 32 47 0z"/>
   <path id="1" class="fil3" d="M2610 1098c-1,0 -2,1 -3,1 -2,0 -3,0 -4,0 -3,0 -6,0 -8,-2 -2,-1 -2,-3 -2,-6l0 -131c1,0 2,-1 3,-1 1,0 2,0 3,0 4,0 7,1 8,2 2,1 3,3 3,6l0 131z"/>
   <path id="2" class="fil3" d="M2654 983c0,-3 -1,-5 -2,-6 -2,-2 -4,-2 -7,-2l-6 0c0,-2 -1,-4 -1,-6 0,-4 1,-6 4,-8 2,-1 5,-2 8,-2l2 0c4,0 8,1 11,3 4,2 8,5 13,9l55 46 0 -57c0,0 1,0 3,-1 1,0 2,0 4,0 4,0 6,1 8,2 2,1 2,3 2,6l0 131c0,0 -1,1 -2,1 -2,0 -3,0 -4,0 -4,0 -7,-1 -9,-2 -1,-1 -2,-3 -2,-6l0 -41c-3,2 -7,4 -12,6 -5,2 -12,3 -19,3 -7,0 -13,-1 -19,-3 -6,-1 -11,-4 -15,-7 -4,-4 -7,-8 -9,-14 -2,-5 -3,-12 -3,-19l0 -33zm38 18c-3,-3 -6,-5 -10,-9 -4,-3 -8,-7 -12,-11 1,2 1,5 1,7 0,2 0,4 0,6l0 22c0,9 3,16 7,21 5,4 13,7 24,7 6,0 12,-1 17,-4 5,-2 9,-4 12,-7l-39 -32z"/>
   <path id="3" class="fil3" d="M2809 1098c-1,0 -2,1 -3,1 -2,0 -3,0 -4,0 -3,0 -6,0 -8,-2 -2,-1 -2,-3 -2,-6l0 -131c1,0 2,-1 3,-1 1,0 2,0 4,0 3,0 6,1 7,2 2,1 3,3 3,6l0 131z"/>
   <path id="4" class="fil3" d="M2911 1019c9,0 16,-2 21,-7 5,-4 7,-10 7,-17 0,-8 -2,-13 -6,-17 -5,-4 -10,-5 -16,-5 -4,0 -8,0 -11,1 -3,1 -5,3 -8,4 -3,-2 -5,-5 -5,-8 0,-4 2,-7 7,-9 5,-3 11,-4 18,-4 6,0 11,1 16,3 4,1 8,4 12,7 4,3 6,7 8,12 2,5 3,10 3,16 0,6 -1,11 -3,16 -2,4 -4,8 -8,11 -3,3 -7,6 -11,7 -4,2 -8,4 -13,4 3,8 7,14 13,19 5,5 12,7 21,7 8,0 15,-2 19,-6 4,-5 6,-10 6,-18l0 -48c1,0 1,0 2,0 1,-1 3,-1 4,-1 3,0 6,1 8,2 2,1 3,3 3,6l0 27c2,0 4,1 7,1 3,1 6,1 11,1 3,0 6,0 9,-1 4,0 6,-1 8,-1l0 -61c1,0 2,-1 3,-1 1,0 3,0 4,0 3,0 6,1 8,2 2,1 2,3 2,6l0 131c-1,0 -2,1 -3,1 -1,0 -2,0 -3,0 -4,0 -6,0 -8,-2 -2,-1 -3,-3 -3,-6l0 -55c-2,1 -4,2 -6,2 -3,1 -7,1 -11,1 -4,0 -8,-1 -11,-1 -3,-1 -6,-1 -8,-2 0,7 -1,13 -3,18 -2,5 -5,9 -9,12 -4,3 -8,5 -13,6 -5,2 -10,3 -15,3 -13,0 -24,-4 -33,-11 -9,-7 -16,-17 -20,-29l-6 0c-2,0 -5,-1 -6,-2 -2,-2 -3,-4 -3,-7 0,-3 0,-5 1,-7l21 0z"/>
   <path id="5" class="fil3" d="M3182 1098c-1,0 -2,1 -3,1 -2,0 -3,0 -4,0 -3,0 -6,0 -8,-2 -1,-1 -2,-3 -2,-6l0 -67 -48 0c-4,0 -7,1 -8,3 -2,2 -3,5 -3,9l0 13c-1,1 -2,2 -4,2 -1,0 -3,0 -5,0 -4,0 -7,-1 -10,-4 -3,-3 -5,-8 -5,-15 0,-9 3,-15 7,-18 5,-4 11,-6 19,-6l57 0 0 -48c1,0 2,-1 3,-1 1,0 2,0 3,0 4,0 7,1 8,2 2,1 3,3 3,6l0 131z"/>
   <path id="6" class="fil3" d="M3126 895c3,0 6,1 8,3 2,1 5,4 8,7l38 35c0,2 -1,4 -2,5 -2,2 -4,2 -6,2 -2,0 -4,0 -6,-1 -2,-2 -5,-4 -9,-7l-41 -34c1,-3 2,-5 4,-7 1,-2 4,-3 6,-3z"/>
   <path id="7" class="fil3" d="M3274 973c-8,0 -15,1 -20,5 -6,4 -9,9 -9,16 0,6 3,12 7,16 4,4 9,7 15,9l32 -5c5,-1 9,-2 11,-2 3,-1 5,-1 7,-1 2,0 4,1 6,3 1,1 2,3 2,5 0,2 0,3 0,4 0,1 0,2 0,2l-33 5c7,3 12,8 16,14 4,6 6,13 6,21 0,5 -1,10 -4,14 -2,4 -5,8 -9,11 -4,3 -9,6 -15,7 -6,2 -12,3 -19,3 -6,0 -12,-1 -17,-2 -5,-1 -9,-2 -13,-4 -4,-1 -6,-3 -8,-6 -2,-2 -3,-4 -3,-6 0,-3 1,-5 2,-6 2,-2 4,-3 6,-4 3,3 7,6 13,9 5,2 12,4 20,4 8,0 15,-2 21,-6 5,-4 8,-10 8,-18 0,-6 -3,-11 -7,-16 -5,-5 -11,-9 -18,-12l-30 6c-5,1 -9,1 -11,2 -3,0 -5,0 -7,0 -2,0 -4,-1 -6,-2 -1,-1 -2,-3 -2,-6 0,-2 0,-4 1,-6l30 -4c-5,-2 -10,-6 -13,-11 -4,-5 -6,-12 -6,-20 0,-6 1,-10 4,-15 2,-4 5,-8 9,-11 5,-3 9,-5 15,-7 5,-1 11,-2 17,-2 9,0 17,1 23,4 6,3 9,6 9,10 0,3 -1,6 -4,8 -5,-2 -9,-4 -13,-5 -3,-1 -8,-1 -13,-1z"/>
   <path id="8" class="fil3" d="M3348 1120c-1,2 -2,3 -4,4 -1,1 -3,2 -5,2 -3,0 -6,-2 -8,-4 1,-3 2,-7 3,-10 2,-4 3,-9 4,-13 1,-4 3,-8 4,-12 1,-4 1,-8 2,-11 1,-1 3,-1 4,-2 2,0 3,0 5,0 3,0 5,0 6,2 2,1 3,3 3,6 0,3 -1,6 -2,10 -1,3 -2,7 -3,10 -2,4 -3,7 -5,11 -1,3 -3,5 -4,7z"/>
   <path id="9" class="fil3" d="M3565 1028l0 -68c1,0 2,0 3,0 1,-1 3,-1 4,-1 4,0 7,1 8,2 2,2 3,4 3,6l0 131c-1,0 -2,1 -3,1 -1,0 -3,0 -4,0 -4,0 -7,-1 -8,-2 -2,-1 -3,-3 -3,-6l0 -48 -46 0c-1,4 -3,8 -6,11 -3,3 -7,4 -14,4 -6,0 -10,-1 -12,-4 -3,-3 -4,-6 -4,-10 0,-3 0,-6 2,-9l9 0c2,0 4,-1 6,-3 1,-1 2,-4 2,-6l0 -28c0,-5 -1,-9 -2,-12 -1,-4 -3,-6 -5,-8 -2,-2 -4,-3 -7,-4 -2,-1 -5,-1 -8,-1 -4,0 -8,1 -12,3 -4,2 -8,5 -11,9 -3,4 -5,9 -8,15 -2,7 -3,14 -3,24 0,16 4,29 10,40 7,11 15,20 24,26 0,3 -1,5 -3,7 -1,2 -4,3 -7,3 -3,0 -8,-2 -12,-5 -5,-3 -10,-8 -14,-15 -4,-6 -8,-14 -11,-24 -3,-9 -5,-20 -5,-32 0,-12 2,-22 4,-30 3,-9 7,-16 12,-21 5,-5 10,-9 17,-12 6,-3 12,-4 19,-4 12,0 21,3 28,10 8,7 11,16 11,29l0 32 46 0z"/>
   <path id="10" class="fil3" d="M3644 1098c-1,0 -3,1 -4,1 -1,0 -2,0 -3,0 -4,0 -6,0 -8,-2 -2,-1 -3,-3 -3,-6l0 -131c1,0 2,-1 3,-1 2,0 3,0 4,0 4,0 6,1 8,2 2,1 3,3 3,6l0 131z"/>
   <path id="11" class="fil3" d="M3742 1100c-6,0 -11,-2 -16,-5 -5,-2 -10,-6 -15,-11 -4,-5 -8,-11 -12,-18 -4,-7 -7,-15 -9,-22l-4 0c-3,0 -5,-1 -7,-2 -2,-2 -3,-4 -3,-7 0,-1 1,-3 1,-4 0,-1 0,-2 1,-3l27 0c10,0 17,-2 23,-7 6,-4 9,-11 9,-21 0,-8 -3,-15 -8,-20 -5,-5 -12,-7 -20,-7 -4,0 -7,0 -11,1 -4,1 -7,3 -9,5 -2,-1 -3,-3 -4,-4 -1,-2 -2,-3 -2,-5 0,-2 1,-4 2,-5 1,-2 3,-3 5,-4 2,-1 5,-2 8,-3 4,-1 8,-1 13,-1 6,0 12,1 18,3 5,2 10,5 14,9 4,4 7,8 9,14 2,5 3,11 3,17 0,7 -1,13 -3,19 -3,5 -6,9 -10,13 -5,4 -10,6 -16,8 -6,2 -13,3 -20,3 2,5 4,10 7,14 3,5 6,9 10,13 4,4 8,7 13,9 5,3 10,5 16,7 0,0 0,1 0,1 0,1 0,2 0,3 0,3 -1,6 -3,7 -2,2 -5,3 -7,3z"/>
   <path id="12" class="fil3" d="M3882 1098c-3,1 -5,1 -7,1 -4,0 -6,0 -8,-2 -2,-1 -3,-3 -3,-6l0 -79 -31 0c-11,0 -19,3 -25,8 -5,5 -8,13 -8,23 0,6 1,11 2,16 2,5 4,9 7,13 3,4 6,7 10,10 4,3 7,6 11,8 -1,7 -4,10 -9,10 -2,0 -5,-1 -7,-2 -2,-1 -4,-2 -6,-3 -3,-2 -6,-5 -9,-8 -3,-3 -6,-7 -9,-11 -2,-5 -5,-10 -6,-15 -2,-6 -3,-12 -3,-19 0,-14 5,-25 13,-33 9,-8 21,-12 37,-12l33 0 0 -37c1,0 2,-1 3,-1 2,0 3,0 4,0 3,0 6,1 8,2 2,1 3,3 3,6l0 131z"/>
   <path id="13" class="fil3" d="M4067 895c3,0 5,1 8,3 2,1 5,4 8,7l38 35c0,2 -1,4 -3,5 -1,2 -3,2 -5,2 -2,0 -4,0 -6,-1 -2,-2 -5,-4 -9,-7l-41 -34c1,-3 2,-5 3,-7 2,-2 4,-3 7,-3zm-84 124c9,0 16,-2 21,-7 5,-4 8,-10 8,-17 0,-8 -3,-13 -7,-17 -4,-4 -9,-5 -16,-5 -4,0 -7,0 -10,1 -3,1 -6,3 -8,4 -4,-2 -6,-5 -6,-8 0,-4 3,-7 7,-9 5,-3 11,-4 19,-4 5,0 10,1 15,3 5,1 9,4 12,7 4,3 7,7 9,12 2,5 3,10 3,16 0,6 -1,11 -3,16 -2,4 -5,8 -8,11 -3,3 -7,6 -11,7 -5,2 -9,4 -13,4 2,8 7,14 12,19 6,5 13,7 21,7 9,0 15,-2 19,-6 4,-5 6,-10 6,-18l0 -48c1,0 2,0 3,0 1,-1 2,-1 4,-1 3,0 5,1 8,2 2,1 3,3 3,6l0 27c1,0 4,1 6,1 3,1 7,1 11,1 4,0 7,0 10,-1 3,0 6,-1 8,-1l0 -61c1,0 2,-1 3,-1 1,0 2,0 3,0 4,0 7,1 8,2 2,1 3,3 3,6l0 131c-1,0 -2,1 -3,1 -2,0 -3,0 -4,0 -3,0 -6,0 -8,-2 -2,-1 -2,-3 -2,-6l0 -55c-2,1 -4,2 -7,2 -3,1 -6,1 -10,1 -5,0 -9,-1 -12,-1 -2,-1 -5,-1 -7,-2 0,7 -1,13 -4,18 -2,5 -5,9 -8,12 -4,3 -8,5 -13,6 -5,2 -10,3 -16,3 -13,0 -24,-4 -33,-11 -9,-7 -15,-17 -19,-29l-7 0c-2,0 -4,-1 -6,-2 -2,-2 -3,-4 -3,-7 0,-3 1,-5 2,-7l20 0z"/>
   <path id="14" class="fil3" d="M4215 973c-8,0 -15,1 -21,5 -5,4 -8,9 -8,16 0,6 2,12 7,16 4,4 9,7 15,9l32 -5c5,-1 9,-2 11,-2 3,-1 5,-1 6,-1 3,0 5,1 7,3 1,1 2,3 2,5 0,2 0,3 0,4 0,1 0,2 -1,2l-32 5c7,3 12,8 16,14 4,6 6,13 6,21 0,5 -1,10 -4,14 -2,4 -5,8 -9,11 -4,3 -9,6 -15,7 -6,2 -12,3 -19,3 -6,0 -12,-1 -17,-2 -5,-1 -9,-2 -13,-4 -4,-1 -6,-3 -8,-6 -2,-2 -3,-4 -3,-6 0,-3 0,-5 2,-6 2,-2 4,-3 6,-4 3,3 7,6 12,9 6,2 12,4 21,4 8,0 15,-2 20,-6 6,-4 8,-10 8,-18 0,-6 -2,-11 -7,-16 -4,-5 -10,-9 -17,-12l-30 6c-5,1 -9,1 -11,2 -3,0 -5,0 -7,0 -2,0 -4,-1 -6,-2 -1,-1 -2,-3 -2,-6 0,-2 0,-4 0,-6l31 -4c-5,-2 -10,-6 -13,-11 -4,-5 -6,-12 -6,-20 0,-6 1,-10 3,-15 3,-4 6,-8 10,-11 4,-3 9,-5 15,-7 5,-1 11,-2 17,-2 9,0 17,1 23,4 6,3 9,6 9,10 0,3 -1,6 -4,8 -5,-2 -9,-4 -13,-5 -4,-1 -8,-1 -13,-1z"/>
   <path class="fil4" d="M4124 463c-1,0 -3,0 -5,-1 -2,-1 -4,-2 -5,-3 -2,-2 -3,-4 -4,-6 -1,-2 -1,-4 0,-6 0,-2 0,-4 1,-6 1,-3 2,-5 3,-7 1,-2 2,-4 3,-6 2,-2 2,-4 3,-6 1,-2 1,-4 1,-5 0,-1 0,-3 -1,-4 -2,-1 -3,-2 -4,-2 -1,0 -2,0 -3,0 -1,0 -1,0 -2,0 -1,0 -3,1 -4,2 -2,1 -3,2 -4,3 -1,1 -2,3 -3,4 -1,2 -1,3 -2,5 0,1 0,2 1,4 0,1 1,3 2,4l-6 6c-2,-2 -3,-4 -4,-6 -1,-3 -1,-5 -1,-8 1,-2 1,-5 3,-7 1,-3 2,-5 4,-7 2,-2 4,-4 7,-5 2,-2 4,-3 7,-3 1,0 2,-1 3,-1 1,0 3,1 4,1 3,1 5,2 7,4l22 20c1,1 2,2 4,2 0,0 0,0 0,0 1,0 2,0 2,-1l1 -1 0 0 5 4 -1 2 -1 2c-2,2 -3,2 -6,2 0,0 0,0 0,0 -2,0 -5,-1 -8,-3 1,3 1,5 1,8 0,2 -1,4 -1,6 -1,2 -2,3 -3,5 -1,1 -2,3 -3,4 -2,2 -4,3 -6,4 -1,1 -3,2 -6,2 0,0 0,0 -1,0zm2 -44c0,2 0,4 -1,6 0,2 -1,4 -2,6 -1,2 -2,4 -3,6 -1,2 -2,4 -3,6 0,1 0,3 0,5 0,1 1,3 2,4 1,1 2,2 4,2 0,1 1,1 2,1 0,0 1,0 1,0 1,-1 2,-1 3,-2 2,0 2,-1 3,-2 3,-3 4,-6 5,-10 1,-4 0,-8 -1,-13l-10 -9z"/>
   <path class="fil4" d="M4380 331c-1,-3 -3,-6 -4,-9 -5,-9 -12,-16 -20,-21 -3,-1 -3,-4 -5,-7l1 -1c12,-8 24,-14 38,-15l0 0c2,-1 1,-4 2,-5l-2 -2c-11,-2 -22,-4 -33,-7l-2 0c0,-3 0,-4 1,-4 1,0 2,0 3,1 15,3 31,6 46,9 4,1 4,1 2,5 -2,-1 -5,-1 -8,-2l-1 2c-4,18 -7,35 -11,53 0,1 -1,2 -2,2 -2,0 -3,1 -5,1zm-12 -40c-1,0 -1,0 -3,1 -2,1 -3,3 -5,4 9,6 17,14 22,25l1 -2c0,-3 1,-7 2,-10l-1 -3c-4,-4 -9,-9 -13,-13 -1,-1 -2,-2 -3,-2zm21 -6c-5,0 -12,2 -15,3 4,5 8,9 12,13 1,-6 2,-11 3,-16 0,0 0,0 0,0z"/>
   <path class="fil5" d="M4357 488l-8 -15c-5,-1 -9,-2 -13,-5 -4,-3 -7,-6 -9,-11 -2,-3 -3,-7 -3,-12 -1,-4 0,-8 2,-12 1,-4 3,-7 6,-11 3,-3 7,-6 12,-8 4,-3 9,-4 14,-5 1,0 3,0 4,0 3,0 6,0 9,1 4,1 7,3 11,5 3,3 6,6 8,10 1,3 2,6 2,9 1,3 1,6 1,9l-6 -2c0,-3 1,-5 0,-7 0,-3 0,-5 -2,-7 -1,-3 -3,-5 -6,-7 -2,-2 -5,-3 -9,-3 -1,-1 -3,-1 -4,-1 -2,0 -4,0 -6,1 -4,1 -8,2 -12,4 -4,2 -7,4 -10,7 -3,3 -5,6 -6,9 -2,3 -2,6 -2,9 0,3 0,6 2,9 1,3 3,5 5,6 2,2 5,3 8,4l-1 -1c-1,-2 -2,-4 -2,-6 0,-2 0,-3 1,-5 0,-2 1,-3 2,-5 1,-1 2,-2 4,-3 1,-1 3,-1 5,-1 0,0 0,0 0,0 2,0 4,0 6,1 0,-2 0,-3 1,-5 2,-2 3,-3 5,-4 1,0 3,-1 4,-1 1,0 1,0 1,0 2,0 3,0 4,1 2,0 4,1 5,2 1,2 3,3 4,5l12 24 -6 3 -11 -21 -2 -3 -2 -2 -3 -1 -3 1 -1 2 -1 2 0 3 1 3 11 22 -6 3 -11 -22 -2 -2 -2 -2 -3 -1 -2 1 -2 2 -1 2 0 3 1 3 11 22 -5 3z"/>
   <g>
    <path class="fil6" d="M2491 489c-4,0 -8,-1 -12,-4l-3 -3 -3 -4 9 -7 3 4 2 2c2,2 5,4 7,4 1,0 2,0 3,-1 2,-1 3,-2 3,-5l-1 -3 0 -1c-1,-1 -2,-3 -3,-4 -2,-2 -4,-3 -7,-3l-7 2 -1 -7 1 0 1 -1c3,0 4,-2 5,-3l1 -3 -1 -3 -1 -2 -1 -2c-1,0 -2,-1 -3,-1 -1,0 -2,0 -2,0 -2,1 -3,2 -3,5l1 1 0 2 -10 5 -1 -4c0,-1 0,-2 0,-3 1,-6 5,-9 10,-12 3,-1 6,-1 8,-1 2,0 3,0 5,1 3,1 6,3 7,7 1,4 1,7 0,10l-1 2 2 0 1 1 2 -2 3 -3 4 -3 5 -3 -5 -12 -8 4 -3 -8 28 -10 0 0 -5 2 3 7 -4 1 15 41 -8 10 -11 -29 -2 2 -3 1 -2 2 -2 2 -2 1 1 1 1 2 1 1 1 2c0,1 1,2 1,2l0 3c0,4 -2,8 -5,12 -2,1 -5,3 -7,4 -3,1 -5,1 -7,1z"/>
    <polygon class="fil6" points="2549,474 2532,427 2524,430 2524,430 2521,423 2555,411 2558,418 2543,423 2557,464 "/>
   </g>
   <path class="fil6" d="M2671 703l-11 -4 -4 -25c-2,3 -3,4 -5,6 -2,1 -4,2 -6,3 -1,0 -1,0 -2,0 -4,0 -7,-2 -11,-5 -5,-3 -8,-7 -9,-11 0,-4 1,-7 3,-10 2,-3 6,-5 10,-6 0,0 1,0 1,0 2,0 4,0 7,1 3,2 6,4 9,6l-3 -17 -34 7 -2 -10 75 -14 1 10 -29 5 2 15c2,-2 3,-3 5,-4 2,0 4,-1 5,-1 1,-1 1,-1 2,-1 3,0 6,2 9,5 4,3 7,7 8,11 0,3 0,6 0,9 -1,3 -2,7 -3,10l-11 -5c2,-5 3,-8 4,-11 0,-3 1,-5 0,-6 0,-1 0,-3 -1,-3l-4 -1c-2,0 -4,1 -6,3 -2,2 -4,4 -5,6l5 37zm-27 -44c-1,0 -2,0 -3,1 -2,0 -4,1 -5,3 -2,2 -2,5 -2,7 1,1 1,3 2,3 1,1 2,1 3,1 1,0 1,0 2,0 1,0 3,-1 4,-1 2,-1 3,-2 4,-3l6 -7c-2,-1 -5,-3 -7,-3 -1,-1 -3,-1 -4,-1z"/>
   <path class="fil5" d="M4575 822l-10 -4 -3 -21c-2,2 -4,3 -5,4 -2,2 -3,2 -5,3 -1,0 -1,0 -2,0 -3,0 -6,-1 -10,-4 -4,-3 -6,-6 -7,-10 -1,-3 0,-6 2,-9 3,-3 5,-4 9,-5 1,0 1,0 1,0 2,0 4,0 6,1 2,1 5,3 8,6l-3 -15 -29 5 -2 -8 65 -12 2 8 -26 5 2 12c1,-1 3,-2 4,-2 2,-1 3,-2 5,-2 0,0 1,0 1,0 2,0 5,1 8,4 4,3 6,6 7,10 0,2 0,5 0,8 -1,2 -1,5 -3,8l-9 -4c1,-4 2,-7 3,-10 1,-2 1,-4 1,-5 -1,-1 -1,-2 -2,-3l-3 -1c-2,1 -4,2 -5,3 -2,1 -4,3 -5,6l5 32zm-24 -39c-1,0 -2,0 -2,1 -2,0 -4,1 -5,3 -1,2 -2,4 -1,6 0,1 0,2 1,3 1,0 2,1 3,1 0,0 1,0 1,-1 2,0 3,0 4,-1 2,-1 3,-2 3,-3l6 -5c-2,-2 -4,-3 -7,-3 -1,0 -2,-1 -3,-1z"/>
   <path class="fil7" d="M3495 581c-5,0 -9,-3 -12,-9 -1,-2 -1,-4 -2,-6 0,-1 0,-2 0,-3 0,-1 0,-2 1,-3 1,-5 3,-9 6,-11 1,-1 3,-1 5,-2 1,0 2,0 2,0 3,0 5,1 6,2 2,1 4,3 6,5l1 -3 1 -2 1 -1c2,-1 4,-2 6,-3l-1 -11 -43 5 0 -5 62 -7 0 4 -14 2 2 11 2 1 1 0c2,1 4,3 6,6 1,2 2,5 3,8 0,2 0,4 -1,7 0,4 -2,7 -5,9 -2,1 -4,2 -6,2 -1,0 -1,0 -2,0 -2,0 -4,0 -6,-1 -2,-2 -4,-4 -6,-6 0,3 -2,5 -4,7 -2,2 -4,3 -7,4 -1,0 -1,0 -2,0zm0 -29c-1,0 -1,0 -1,0 -4,0 -6,3 -7,8 0,1 0,2 0,3l0 2 0 3 1 2c1,3 3,5 5,6 1,0 2,0 3,0 0,0 0,0 1,0 3,0 5,-2 7,-7l1 -3 0 -4 -1 -3c-1,-3 -3,-5 -5,-6 -2,-1 -3,-1 -4,-1zm24 -3c0,0 0,0 -1,0 -3,0 -5,3 -7,8l-1 2 0 3 0 1 1 3c2,5 5,7 9,7 1,0 1,0 2,0 2,0 4,-2 5,-5 0,-1 1,-2 1,-3l0 -5 -1 -3 0 -2c-1,-1 -1,-2 -2,-3 -1,-2 -3,-3 -6,-3z"/>
   <path class="fil7" d="M3292 711c-2,0 -4,0 -6,-1 -2,-1 -4,-2 -5,-4 -2,-2 -4,-5 -4,-8 0,-3 0,-6 2,-9 -2,1 -5,1 -7,1 -1,0 -1,0 -2,0 -3,-1 -6,-2 -8,-5 -5,-5 -5,-11 -1,-18 1,-2 2,-4 4,-5 1,-1 2,-2 3,-2 1,-1 2,-2 3,-2 3,-2 6,-2 9,-2 1,0 3,0 5,1 2,1 3,2 5,4 2,2 3,5 4,8 0,2 0,5 -2,9l4 -1 2 0 2 0c2,0 5,1 7,3l9 -8 -32 -36 4 -4 47 53 -4 3 -10 -12 -10 9 1 2 0 1c1,3 0,6 -1,9 -1,3 -3,6 -6,8 -2,2 -4,3 -6,4 -2,1 -5,2 -7,2zm6 -29c-2,0 -4,0 -6,1l-2 1 -2 1 -2 2 -1 2c-4,5 -4,10 -1,14 2,2 4,3 6,3 1,0 1,-1 2,-1 2,0 3,-1 4,-2l4 -3 3 -2 1 -2c1,-1 2,-2 2,-3 1,-3 1,-6 -2,-8 -1,-2 -3,-3 -6,-3zm-17 -20c-2,0 -4,0 -7,1 -1,1 -2,1 -3,2l-1 1 -3 2 -1 2c-2,3 -3,6 -2,9 0,1 0,2 1,3 2,2 4,3 7,3 2,0 3,0 5,-1l3 -1 4 -2 2 -3c2,-3 3,-6 2,-9 0,-2 -1,-4 -2,-5 -1,-2 -3,-2 -5,-2z"/>
   <path class="fil6" d="M3094 726c-4,0 -8,-1 -12,-2 -3,-2 -6,-4 -9,-7 -3,-3 -5,-6 -6,-11 -1,-2 -2,-5 -2,-7 0,-3 1,-5 2,-7 1,-2 2,-4 3,-5 2,-2 4,-3 7,-4 1,0 2,0 3,0 1,0 1,0 1,0 2,0 3,0 4,1 2,1 3,2 3,3 1,1 2,2 2,3 1,2 1,4 1,6 0,1 -1,2 -2,4l-2 2 -3 2c-1,0 -2,0 -3,0 0,0 0,0 -1,0 -1,0 -2,0 -3,-1l-3 -2c-1,-1 -2,-3 -2,-4l0 -1 -1 -1 0 -1 0 -1c-1,1 -1,3 -1,4 -1,2 0,4 1,7 0,3 2,5 4,7 3,2 5,4 8,5 3,1 7,1 10,1 0,0 1,0 1,0 3,0 7,0 11,-2 4,-1 8,-2 11,-4 3,-3 5,-5 7,-8 2,-2 4,-5 4,-8 1,-3 1,-6 0,-9 -1,-2 -2,-4 -3,-5 -1,-2 -3,-3 -4,-4l1 1 0 1 1 1 0 1c1,2 1,3 1,5 -1,1 -1,2 -1,3l-3 3c-1,1 -2,2 -3,2 -1,0 -2,0 -3,0 0,0 0,0 0,0 -2,0 -3,0 -4,-1 -1,0 -2,-1 -4,-2 -1,-1 -1,-3 -2,-5l-1 -3 1 -3 1 -3 3 -2 -3 0 -3 1 -3 1c-1,0 -2,0 -3,1l-1 0c0,0 -1,0 -2,0 0,0 -1,0 -1,0 -1,0 -3,-1 -4,-1l-3 -2c-1,-1 -1,-2 -2,-4l0 -2 0 -1 1 -1 1 -1 2 0 2 2 1 1 2 2 1 1 3 0 0 0 1 -1 1 -1 1 -2 1 -2 1 -3 1 -3 1 -3c1,-2 2,-5 3,-7l1 -1 1 -1 2 0 1 2 0 1c-1,2 -2,4 -3,6 0,2 -1,4 -2,6 -1,2 -2,4 -3,6l-1 2 -1 1c4,-1 8,-1 11,-1 0,0 0,0 0,0 3,0 6,0 9,1 3,1 5,3 7,5 2,2 3,5 5,9 1,4 1,9 1,13 -1,4 -2,7 -4,11 -3,3 -5,6 -9,8 -4,3 -8,5 -12,6 -5,1 -9,2 -14,2zm-13 -39l-2 0 -2 1 -1 2 -1 2 0 2 1 2 2 2 2 0 2 0 2 -1 2 -2 0 -2 0 -2 -1 -2 -2 -2 -2 0zm32 -10l-2 0 -2 1 -2 2 0 2 0 2 1 2 2 2 2 0 2 0 2 -1 1 -2 1 -2 0 -2 -1 -2 -2 -1 -2 -1z"/>
   <path class="fil5" d="M4121 830c-1,0 -1,0 -2,0 -2,-1 -4,-1 -5,-3 -2,-1 -3,-2 -4,-4 -1,-2 -2,-4 -3,-7 0,-3 0,-6 0,-9 1,-3 2,-5 4,-7 2,-2 4,-4 7,-6 2,-1 6,-3 9,-3 3,-1 5,-1 7,-1 1,0 1,0 2,0 2,1 5,1 8,2l2 -2 3 -2c1,-1 2,-1 3,-1 1,-1 2,-1 4,-2 1,0 2,0 3,0 0,0 0,0 1,0 1,0 1,0 2,0 1,1 2,1 3,1 1,1 2,1 3,1 2,-1 3,-2 5,-3 2,-1 4,-2 7,-3l19 -3 1 4 -9 2 6 32 -7 1 -6 -32 -4 1c-2,0 -3,1 -4,1 -1,1 -3,2 -4,3 2,1 3,2 4,3 1,1 2,2 3,3 1,2 2,3 2,5 1,1 1,3 2,4 0,2 0,4 0,5 0,2 0,3 -1,5 0,1 -1,2 -2,3 -1,2 -3,2 -5,3 -1,0 -2,0 -3,0 -1,0 -1,0 -2,0 -2,-1 -3,-2 -4,-3 -1,-1 -2,-2 -2,-4 -1,-1 -2,-3 -2,-5 -1,-3 -1,-6 0,-9 0,-3 1,-6 3,-8 -2,-1 -3,-1 -5,-2 0,0 -1,0 -1,0 -1,0 -2,0 -3,0 -2,1 -3,1 -4,2 -2,1 -3,2 -4,3 3,1 5,3 7,6 2,2 3,5 4,9 0,1 0,3 0,5 0,1 0,3 -1,4 0,2 -1,3 -2,4 -1,1 -3,2 -5,2 -1,0 -2,0 -3,0 -1,0 -1,0 -2,0 -2,0 -3,-1 -4,-2 -1,-1 -2,-3 -2,-4 -1,-2 -2,-3 -2,-5 0,-3 -1,-6 0,-9 0,-3 1,-5 2,-8 -2,-1 -4,-1 -6,-2 0,0 -1,0 -2,0 -1,0 -3,0 -4,1 -3,0 -5,1 -7,2 -2,1 -4,2 -5,4 -2,2 -3,4 -4,6 -1,2 -1,5 0,8 0,2 1,4 2,5 1,1 3,3 5,3l-1 -1 -1 -1 0 -2 -1 -1c0,-1 0,-3 0,-4 0,-1 1,-2 2,-3 0,-1 1,-2 2,-3 1,0 3,-1 4,-1 1,0 2,0 3,0 0,0 1,0 1,0 2,0 3,1 4,2 1,0 2,1 2,3 1,1 1,2 2,4 0,2 0,3 0,5 -1,1 -1,2 -2,3 -1,2 -2,2 -4,3 -1,1 -3,2 -4,2 -2,0 -3,0 -5,0zm3 -17l-2 1 -1 1 0 2 0 2 0 2 1 2 2 2 2 0 1 -1 1 -2 1 -2 0 -2 -1 -2 -1 -2 -1 -1 -2 0zm20 -13c0,2 -1,4 -1,6 -1,2 -1,4 0,6l0 2 1 2 1 2 1 1 1 1 2 0 2 -1 1 -2c0,-1 0,-2 0,-3 0,-1 0,-2 0,-3 -1,-2 -2,-4 -3,-6 -1,-2 -3,-4 -5,-5zm25 -5c-1,2 -2,4 -2,6 -1,3 -1,5 0,7l0 1 1 2 0 2 2 2 1 1 2 0 2 -1 1 -2c0,-1 0,-2 0,-3 0,-1 0,-2 0,-3 -1,-2 -2,-5 -3,-7 -1,-2 -2,-4 -4,-5z"/>
   <path class="fil7" d="M3311 330c-1,0 -1,0 -2,-1 -1,-1 -3,-2 -4,-3 -1,-1 -2,-3 -3,-4 -2,-3 -4,-6 -5,-10 -1,-3 -2,-7 -1,-10 0,-3 1,-7 3,-10 2,-3 4,-5 7,-8 2,-1 4,-2 5,-3 2,0 4,-1 6,-1 1,-1 3,-1 5,-1 2,0 4,0 6,1 0,-2 0,-4 0,-6 0,-1 0,-3 1,-4 1,-2 2,-3 3,-4 1,-1 2,-2 3,-3l3 -1 4 -1c1,0 2,0 4,0 1,0 3,1 5,1 -1,-2 -1,-3 0,-5 0,-2 0,-3 1,-5 1,-1 2,-2 3,-3 1,-1 2,-2 3,-3 3,-2 6,-3 9,-4 2,0 5,0 8,1 2,0 4,1 6,2 0,1 1,1 2,2 2,2 5,4 7,7 1,2 2,4 3,7 1,3 2,5 2,8 0,3 0,6 -1,8 -1,3 -2,6 -4,8l-5 -3c1,-2 1,-4 2,-6 0,-1 0,-3 0,-5 0,-2 0,-4 -1,-6 -1,-2 -2,-4 -4,-6 -1,-2 -2,-3 -4,-5 -1,0 -2,-1 -3,-2 -1,0 -1,-1 -2,-1 -2,-1 -4,-1 -6,-1 -2,0 -4,1 -6,2 -1,1 -2,2 -3,4 0,1 -1,2 -1,4 0,1 0,3 1,5 0,2 1,4 3,5l17 24 -7 5 -17 -23c-2,-2 -3,-3 -4,-4 -1,-1 -2,-2 -3,-2 0,-1 -1,-1 -2,-1 -1,-1 -2,-1 -4,-1 -1,0 -3,1 -4,2 -1,1 -2,2 -2,3 -1,2 -1,3 -1,5 0,1 1,3 1,4 1,2 2,4 3,5l17 23 -7 6 -16 -22c-1,-2 -3,-3 -5,-4 0,0 0,0 0,0 0,0 0,0 0,0 -2,-2 -4,-2 -5,-3 -2,0 -4,0 -6,1 -3,0 -5,1 -6,2 -2,2 -4,4 -5,5 -2,2 -3,4 -3,7 -1,2 -1,4 -1,6 1,2 1,4 2,6l1 -2 1 -3c1,-1 1,-2 2,-3 1,-1 2,-2 3,-3 2,-2 4,-3 6,-3 2,0 4,0 6,0 2,1 4,1 5,2 0,0 1,0 1,1 2,1 3,2 4,4 2,2 3,4 3,6 1,2 1,5 1,7 -1,2 -1,4 -2,5 -1,2 -3,4 -4,5 -2,1 -4,2 -6,3 -2,0 -4,0 -5,0 -2,0 -4,-1 -5,-1 -1,-1 -2,-1 -3,-2zm11 -20c-1,-1 -2,-1 -3,-1 -2,-1 -4,0 -6,1l-3 3 -1 3 0 3c1,2 1,3 2,4 1,1 2,2 3,3 0,0 0,0 0,0 1,0 2,1 4,1 1,0 2,0 3,0l3 -1c1,-1 2,-2 3,-3 0,-1 1,-2 1,-3l-1 -4c0,-1 -1,-2 -1,-3 -1,-2 -3,-3 -4,-3z"/>
   <path class="fil5" d="M4355 650c-1,0 -2,0 -3,0 -2,-1 -3,-1 -5,-2 -1,0 -3,-1 -4,-1 -3,-2 -6,-4 -9,-6 -2,-3 -4,-5 -5,-8 -1,-3 -1,-6 -1,-9 0,-4 1,-7 2,-10 1,-2 2,-3 3,-5 1,-1 2,-2 4,-3 1,-2 3,-3 4,-3 2,-1 4,-2 5,-2 -1,-2 -2,-3 -2,-5 -1,-1 -1,-3 -1,-4 0,-1 0,-3 0,-4 1,-1 1,-2 2,-3l2 -3 2 -3c1,0 2,-1 4,-1 1,-1 3,-1 4,-1 -1,-2 -2,-3 -2,-5 0,-1 -1,-3 -1,-4 0,-1 1,-3 1,-4 0,-1 1,-2 1,-3 2,-3 4,-6 6,-7 2,-2 4,-3 7,-4 1,0 3,0 4,0 2,0 3,0 4,0 3,1 6,2 9,3 2,1 4,3 6,4 2,2 3,4 5,6 1,3 2,5 2,8 1,2 1,5 1,7l-6 0c0,-2 0,-3 -1,-5 0,-2 -1,-3 -2,-5 -1,-1 -2,-3 -4,-4 -1,-1 -3,-3 -5,-4 -2,0 -4,-1 -6,-2 -1,0 -2,0 -4,0 0,0 -1,0 -1,0 -2,0 -4,1 -6,2 -1,1 -2,2 -3,4 -1,1 -1,3 -1,4 0,1 0,3 1,4 0,1 1,3 2,4 2,1 3,2 5,3l24 12 -4 7 -23 -11c-2,-1 -4,-2 -6,-2 -1,0 -2,-1 -3,-1 0,0 -1,0 -1,0 -2,1 -3,1 -4,2 -1,0 -2,1 -2,3 -1,1 -1,2 -1,4 0,1 1,2 1,4 1,1 2,2 3,3 2,1 3,2 5,3l24 11 -4 8 -23 -11c-1,-1 -3,-2 -5,-2 -1,0 -1,0 -1,0 -2,0 -3,0 -5,1 -2,0 -3,1 -5,3 -1,1 -2,2 -3,4 -1,2 -2,5 -2,7 -1,2 -1,4 0,6 0,2 1,4 2,5 2,2 3,4 5,5l-1 -3 0 -3 0 -3c0,-1 1,-2 1,-3 1,-2 3,-4 4,-5 2,-2 4,-3 5,-3 2,0 3,0 4,0 1,0 1,0 2,0 2,0 4,1 6,1 2,1 3,3 5,4 1,2 2,3 3,5 0,2 0,4 0,6 0,2 0,4 -1,5 -1,2 -2,4 -3,5 -2,1 -3,2 -5,3 -1,0 -3,1 -4,1 -1,0 -1,0 -2,0zm-1 -22c-1,0 -2,0 -3,0 -2,1 -3,2 -4,5l-1 3 0 3 2 3c1,0 1,1 3,2 1,0 2,1 3,1 1,0 1,0 1,0 1,0 2,-1 3,-1 1,0 2,-1 3,-1l2 -2c1,-2 1,-3 1,-4 0,-1 0,-2 -1,-3l-2 -3 -3 -2c-1,-1 -3,-1 -4,-1z"/>
   <path class="fil6" d="M2457 595l-3 -8 -2 2c-1,0 -2,1 -3,1 -1,1 -3,1 -4,1 -1,0 -2,0 -3,-1 -3,0 -5,-2 -6,-4 -4,-1 -6,-3 -9,-5 -2,-3 -4,-6 -5,-10 -2,-3 -2,-7 -2,-11 1,-3 2,-7 4,-10 2,-3 4,-6 8,-9 3,-3 7,-5 11,-6 4,-1 7,-2 9,-2 1,0 2,0 3,0 2,0 4,0 6,0 3,1 5,2 8,3 2,1 5,2 7,4 2,2 4,4 5,6 2,2 3,5 4,7 1,3 1,6 1,9 0,4 0,7 -1,11l-6 -3c1,-2 2,-4 2,-7 0,-3 0,-6 -1,-8 -1,-3 -3,-6 -6,-9 -2,-2 -5,-4 -8,-5 -3,-2 -6,-3 -10,-3 0,0 -1,0 -1,0 -3,0 -6,1 -10,2 -3,1 -7,3 -9,5 -3,2 -5,5 -7,7 -2,3 -3,6 -3,9 -1,3 0,5 1,8 1,4 3,7 7,9 0,-2 0,-4 2,-6 1,-2 3,-3 5,-4 1,-1 3,-1 4,-1 0,0 1,0 1,0 2,0 3,1 5,2 0,-2 1,-3 2,-4 2,-2 3,-2 5,-3 1,-1 2,-1 3,-1 1,0 1,0 1,0 2,0 3,1 4,1 2,1 3,2 4,3 1,1 2,3 3,4l6 18 -5 2 -7 -18 -1 -2 -2 -2 -2 0 -3 0 -2 1 -1 2 0 3 0 2 6 18 -5 2zm-12 -22l-2 0 -2 1 -1 2 -1 3 0 2 2 2 2 2 2 0 2 0 2 -1 2 -2 0 -2 0 -3 0 0 0 0 -2 -2 -1 -2 -3 0z"/>
   <path class="fil6" d="M2438 729c-1,0 -2,0 -3,-1 -2,-1 -3,-2 -3,-4 -1,-1 0,-3 1,-5 1,-1 2,-2 4,-2 1,-1 1,-1 2,-1 1,0 2,1 3,1 2,1 3,2 3,4 1,2 0,3 -1,5 -1,1 -2,2 -4,3 -1,0 -1,0 -2,0zm15 -16c-12,0 -20,-3 -21,-10l-2 -6 23 -11c-4,-3 -9,-4 -15,-4 -3,0 -7,1 -11,2l-3 -10 -10 2 -1 -3 76 -19 1 3 -11 3 10 42 5 5c-17,4 -31,6 -41,6zm11 -49l-23 6 1 2c5,2 9,4 11,5 3,3 6,6 6,9l-15 8c1,6 5,10 12,12 4,2 8,2 13,2 2,0 4,0 6,0l-11 -44z"/>
   <g>
    <path class="fil7" d="M3541 483c-4,-1 -8,-2 -11,-4 -9,-4 -19,-7 -28,-12 -16,-8 -31,-18 -45,-30 -4,-4 -5,-9 -3,-15 3,-5 8,-10 13,-14l2 0 0 2c0,1 -1,3 -2,4 -2,4 -2,6 1,9 9,9 18,16 28,22 15,10 31,19 47,26 5,2 9,4 13,5 3,0 5,1 8,1 3,0 7,-1 10,-2 1,0 2,0 4,0l0 1c-5,5 -11,7 -18,8 -7,1 -13,1 -19,-1z"/>
    <path class="fil7" d="M3480 492c-2,-2 -4,-5 -5,-8 -1,-2 -2,-4 -2,-5 -1,-2 -1,-2 1,-3 4,0 9,-1 14,-2l2 1c3,4 5,9 7,13 1,1 1,2 -1,3 -4,0 -8,1 -13,2 -1,0 -2,0 -3,-1z"/>
   </g>
   <path class="fil7" d="M3748 613c-2,-4 -4,-8 -6,-12 -6,-12 -15,-21 -26,-27 -4,-3 -5,-7 -6,-10l1 -2c15,-10 30,-18 49,-19l0 0c3,-1 2,-5 3,-7l-2 -2c-15,-3 -29,-6 -44,-9l-3 0c0,-4 0,-6 2,-6 1,0 2,1 4,1 20,4 40,8 60,12 5,1 5,1 3,7 -3,-1 -7,-2 -11,-3 -1,2 -1,3 -1,4 -5,22 -9,45 -14,68 0,2 -1,3 -3,4 -2,0 -4,0 -6,1zm-16 -53c-1,0 -2,0 -4,2 -3,1 -5,3 -7,5 12,8 23,18 29,32 0,-1 1,-2 1,-2 1,-5 2,-9 2,-14l-1 -3c-5,-6 -11,-12 -16,-17 -2,-2 -3,-3 -4,-3zm27 -8c-6,0 -16,2 -19,5 5,5 10,11 15,17 2,-8 3,-15 5,-22 0,0 -1,0 -1,0z"/>
   <path class="fil6" d="M2892 722c-2,-3 -3,-6 -4,-9 -5,-9 -12,-15 -20,-20 -3,-2 -4,-5 -5,-8l1 -1c11,-8 23,-14 37,-15l1 0c2,-1 1,-3 2,-5l-2 -2c-11,-2 -22,-4 -33,-6l-3 -1c1,-3 1,-4 2,-4 1,0 1,0 3,1 15,3 30,6 46,9 4,1 4,1 2,5 -3,-1 -6,-1 -9,-2l0 3c-4,17 -7,34 -11,52 0,1 -1,2 -3,2 -1,1 -3,1 -4,1zm-12 -40c-1,0 -2,0 -3,1 -2,2 -4,3 -6,4 10,6 18,14 23,25l0 -2c1,-3 2,-7 2,-10l0 -3c-5,-4 -9,-9 -13,-13 -2,-1 -2,-2 -3,-2zm21 -6c-5,0 -13,2 -15,4 4,4 8,8 12,12 1,-5 2,-11 3,-16 0,0 0,0 0,0z"/>
   <path class="fil6" d="M2885 816c-2,-1 -3,-1 -4,-3 -1,-1 -3,-3 -3,-5 -1,-2 -1,-4 -1,-6 0,-2 1,-3 2,-5 1,-2 3,-3 4,-5 2,-1 4,-2 6,-4 1,-1 3,-2 5,-4 2,-1 3,-2 4,-3 2,-1 3,-3 3,-4 1,-1 1,-2 1,-3 -1,-2 -2,-3 -3,-4 0,-1 -1,-1 -2,-1 0,-1 -1,-1 -1,-1 -1,0 -3,-1 -4,0 -2,0 -4,0 -5,1 -2,0 -3,1 -4,2 -2,1 -3,2 -3,3 -1,1 -2,2 -2,4 0,1 0,2 0,4l-7 2c-1,-2 -1,-4 -1,-7 0,-2 1,-4 3,-6 1,-2 3,-4 5,-5 2,-2 4,-3 6,-4 3,-1 5,-1 8,-1 2,-1 5,0 7,0 1,0 2,1 3,1 1,1 2,2 3,2 1,2 3,4 4,7l9 26c1,1 2,2 3,2 0,0 0,0 0,1 1,0 1,0 2,0l1 -1 1 0 2 6 -2 1 -2 1c-2,1 -4,1 -5,0 -1,0 -1,0 -1,0 -2,-1 -3,-4 -5,-7 0,3 -1,5 -2,7 -2,2 -3,3 -4,4 -1,2 -3,3 -4,4 -1,0 -3,1 -5,2 -2,0 -4,1 -6,1 -2,0 -4,-1 -5,-1 -1,-1 -1,-1 -1,-1zm19 -35c0,2 -1,3 -3,4 -1,2 -2,3 -4,4 -2,1 -3,3 -5,4 -2,1 -3,2 -4,4 -2,1 -3,2 -3,4 -1,1 -1,3 0,4 0,1 1,3 2,3 1,1 1,1 2,2 0,0 0,0 1,0 1,0 2,1 3,1l3 -1c3,-1 6,-3 8,-6 2,-3 4,-7 5,-12l-5 -11z"/>
   <path class="fil5" d="M4599 421c-2,0 -3,0 -4,-1 -1,0 -1,-1 -2,-2 -1,-1 -1,-2 -1,-3 -1,-1 -1,-2 -1,-3l0 -25c-1,1 -2,2 -3,3 -1,1 -3,1 -5,1 -1,0 -1,0 -2,0 -1,-1 -2,-1 -3,-1l0 3c0,6 -1,10 -4,12 -2,3 -6,4 -10,4 -4,0 -6,0 -9,-2 -2,-1 -4,-3 -6,-5 -2,-2 -4,-4 -5,-6 -1,-2 -2,-5 -4,-7 -1,0 -2,-1 -3,-1 -1,-1 -2,-2 -3,-3l-2 -2 -1 -2c0,-1 1,-1 2,-2l2 -1 0 0 1 1 2 2c1,0 2,1 3,1 1,1 2,1 3,1 1,0 2,0 4,-1 1,0 2,-1 3,-2 1,0 2,-1 2,-3 1,-1 1,-3 1,-4 0,-2 0,-3 0,-4 -1,-2 -1,-3 -2,-3 -1,-1 -2,-2 -3,-3 -1,0 -2,0 -3,0 -1,0 -2,0 -3,0 -1,0 -3,1 -4,3l-4 -5c1,-2 3,-3 5,-4 2,-1 4,-1 6,-1 3,0 5,0 7,1 1,1 3,3 4,4 1,2 2,4 3,6 1,2 1,4 1,6 0,2 0,5 -1,6 -1,2 -2,4 -3,5 -1,2 -2,3 -4,4 -1,0 -3,1 -4,1 0,2 1,3 2,5 1,1 2,3 3,4 2,1 3,2 5,3 1,1 3,1 5,1 1,0 2,0 3,-1 1,0 2,-1 3,-2 0,-1 1,-2 1,-3 0,-1 0,-2 0,-3l0 -25 7 0 0 15c1,0 1,0 2,1 1,0 2,0 3,0 2,0 4,0 5,-1 1,-1 2,-3 3,-4l0 -23 7 0 0 56 0 2 2 0 1 0 1 -1 4 2 -1 2 -2 2 -2 2c0,0 -1,0 -2,0z"/>
   <path class="fil6" d="M2520 825c-2,0 -4,0 -6,-1 -3,0 -4,-1 -6,-3 -2,-1 -3,-3 -4,-5 -1,-1 -2,-4 -2,-6 0,-2 0,-4 1,-5 1,-2 2,-3 4,-5l-3 -2 -3 -2c-1,-1 -1,-2 -1,-3 -1,-1 -1,-3 -1,-4 0,-2 0,-3 1,-5 1,-1 2,-2 3,-3 2,-1 3,-2 5,-3 2,-1 4,-1 7,-1l0 6c0,0 -2,0 -3,0 -1,0 -2,1 -3,1l-3 3 -1 3c0,1 0,2 1,3l2 2 3 1 3 0 5 0 0 6 -4 0 -3 0 -2 2 -1 2 -1 3c0,2 1,3 1,5 1,1 2,2 3,3 1,1 3,1 4,2 1,0 3,0 4,0 2,0 5,0 7,-1 1,-1 3,-2 4,-4 1,-1 2,-3 2,-5 1,-1 1,-3 1,-5 0,-1 0,-3 -1,-4 0,-2 -1,-4 -1,-5 -1,-2 -2,-3 -2,-4 -1,-2 -2,-3 -2,-5 -1,-1 -2,-3 -2,-4 0,-2 -1,-4 -1,-5 0,-2 1,-4 1,-5 1,-2 2,-3 2,-4 2,-1 3,-2 4,-2 1,-1 3,-1 4,-1 1,0 3,0 4,1l3 1 2 3c1,1 1,2 1,3l0 3 -1 1 -1 2 -1 1 -5 -3 1 -2 1 -1 0 -1 -1 -1 -1 -1 -2 0 -1 0 -2 1 -1 2 -1 3c0,1 1,3 1,4 0,2 1,3 2,5 0,1 1,3 2,4 1,2 1,3 2,5 1,1 1,3 2,4 0,2 0,4 0,5 0,3 0,6 -1,9 -1,2 -2,4 -4,6 -2,2 -4,4 -6,5 -3,1 -6,1 -9,1z"/>
   <path class="fil7" d="M3667 701c-2,0 -4,0 -6,-1 -2,0 -4,-1 -6,-3 -2,-1 -4,-3 -5,-5 -1,-2 -1,-4 -1,-7 0,-2 0,-4 1,-6 0,-1 2,-3 3,-4 -1,-1 -2,-1 -3,-2 -1,-1 -2,-1 -2,-2 -1,-1 -2,-2 -2,-4 0,-1 -1,-3 -1,-4 0,-2 1,-3 2,-5 0,-1 1,-2 3,-3 1,-2 3,-3 5,-3 2,-1 4,-2 7,-2l1 6c-1,0 -2,1 -4,1 -1,0 -2,1 -3,1 -1,1 -2,2 -3,3 -1,1 -1,2 -1,3 0,1 0,2 1,3l2 2c1,1 2,1 3,1 1,0 2,0 3,0l6 0 0 7 -5 0 -2 0 -3 2c0,1 -1,1 -1,2 -1,1 -1,2 -1,4 0,1 0,3 1,4 1,1 2,3 3,3 2,1 3,2 4,2 2,1 3,1 4,1 3,0 6,-1 8,-2 1,-1 3,-2 4,-3 1,-2 2,-4 3,-5 0,-2 0,-4 0,-6 0,-1 0,-3 0,-5 -1,-1 -1,-3 -2,-5 -1,-1 -1,-3 -2,-4 -1,-2 -2,-3 -2,-5 -1,-1 -2,-3 -2,-5 -1,-1 -1,-3 -1,-5 0,-2 0,-4 1,-5 1,-2 2,-3 3,-4 1,-1 2,-2 3,-3 2,0 3,0 5,0 1,0 2,0 3,0 2,1 3,2 4,2 1,1 1,2 2,3 1,1 1,2 1,4l0 2 -1 2 -1 1 -1 2 -5 -4 1 -1 0 -2 0 -1 0 -1 -2 -1 -1 0 -2 0 -2 2 -1 1c0,1 0,2 0,3 0,2 0,3 0,5 1,2 1,3 2,5 1,1 1,3 2,4 1,2 2,3 2,5 1,2 2,3 2,5 1,2 1,4 1,5 0,4 -1,6 -2,9 -1,3 -2,5 -4,7 -2,2 -4,4 -6,5 -3,1 -6,1 -10,1z"/>
   <path class="fil5" d="M3936 603c-2,0 -4,0 -6,-1 -3,0 -5,-1 -6,-3 -2,-1 -4,-3 -5,-5 -1,-2 -1,-4 -1,-7 0,-2 0,-4 1,-5 0,-2 2,-3 3,-5l-3 -1 -2 -3c-1,-1 -2,-2 -2,-3 0,-2 -1,-3 -1,-5 0,-1 1,-3 2,-4 0,-1 1,-3 3,-4 1,-1 3,-2 5,-3 2,0 4,-1 6,-1l1 6c-1,0 -2,0 -3,1 -1,0 -2,0 -3,1l-3 2c-1,1 -1,2 -1,3 0,2 0,3 1,3l2 2 2 1 3 1 7 0 0 6 -5 0 -3 1 -2 1 -2 3 0 3c0,1 0,3 1,4 1,2 2,3 3,3 1,1 3,2 4,2 1,1 3,1 4,1 3,0 5,-1 7,-2 2,-1 3,-2 5,-3 1,-2 2,-4 2,-5 0,-2 1,-4 1,-5 0,-2 0,-4 -1,-5 0,-2 -1,-4 -2,-5 0,-2 -1,-3 -2,-5 -1,-1 -1,-3 -2,-4 -1,-2 -1,-3 -2,-5 0,-2 0,-3 0,-5 0,-2 0,-4 1,-5 0,-2 1,-3 2,-4 1,-1 2,-2 4,-3 1,0 2,0 4,0 1,0 3,0 4,0 1,1 2,1 3,2l2 3c1,1 1,2 1,4l0 2 -1 2 -1 1 -1 2 -5 -4 1 -1 1 -2 -1 -1 0 -1 -1 -1 -2 0 -2 0 -1 1 -2 2 0 3c0,2 0,3 1,5 0,1 1,3 1,4 1,2 2,3 3,5 0,1 1,3 2,5 0,1 1,3 1,5 1,1 1,3 1,5 0,3 0,6 -1,8 -1,3 -3,5 -4,7 -2,2 -4,3 -7,5 -3,1 -6,1 -9,1z"/>
   <g>
    <path class="fil7" d="M3491 234c-11,0 -22,-1 -36,-3 -4,0 -13,-2 -21,-5 -6,-3 -8,-5 -7,-11 0,-5 2,-9 4,-12l2 -2 1 3c0,1 0,2 -1,4 0,2 1,3 3,4 7,3 14,5 21,6 16,3 32,5 48,6 0,0 1,0 1,0 6,0 12,-1 17,-1 4,-1 7,-3 10,-5l1 -1 2 0 -1 2c-6,9 -15,13 -26,14 -6,1 -12,1 -18,1z"/>
    <path class="fil7" d="M3484 256c0,0 -1,0 -1,-1 -4,-2 -7,-4 -10,-6 -2,1 -3,2 -5,3 -1,1 -3,1 -4,1 -1,0 -3,-1 -5,-2 -2,-1 -4,-3 -6,-4l1 -2c2,-2 5,-4 8,-6l3 1c2,2 5,4 8,6 1,0 1,0 2,0 0,0 1,0 1,-1 2,-1 4,-2 6,-3l2 0c3,2 6,3 9,5 1,1 1,2 0,3 -3,2 -5,3 -7,5 -1,1 -1,1 -2,1z"/>
    <path class="fil7" d="M3473 270l-2 0c-3,-2 -6,-4 -9,-7l0 0c3,-2 6,-5 9,-6l2 0c3,2 6,4 10,6l0 1c-3,2 -7,4 -10,6z"/>
   </g>
   <g>
    <path class="fil5" d="M4163 642c-6,4 -14,5 -22,4 -17,-2 -33,-6 -52,-13 -5,-1 -13,-4 -20,-9 -6,-4 -7,-7 -5,-13 1,-4 4,-8 7,-11l2 0 0 2 -1 4c-1,2 0,3 1,4 6,5 13,8 20,11 15,6 30,11 45,15 6,1 13,2 19,3 4,0 7,-2 10,-3l1 -1 2 0 -1 2c-2,2 -4,4 -6,5z"/>
    <path class="fil5" d="M4122 659c0,0 0,0 -1,0 -2,2 -5,3 -7,4 -2,1 -3,0 -4,-1 -2,-2 -5,-5 -8,-8 -2,0 -3,1 -5,2 -4,1 -6,0 -9,-2 -1,-2 -3,-4 -4,-6 -1,-1 -1,-1 0,-2 0,0 0,0 0,0 3,-1 6,-2 9,-3l3 0c2,3 5,5 7,8 1,1 2,1 3,0 2,-1 4,-1 6,-2l2 0c3,3 5,5 8,8 1,1 1,1 0,2z"/>
    <path class="fil5" d="M4109 671c-4,1 -7,3 -11,4l-2 -1c-2,-2 -5,-5 -8,-8l1 -1c3,-1 6,-3 10,-4l2 1c3,2 5,5 8,8l0 1z"/>
   </g>
   <path class="fil6" d="M3092 592c0,-2 -1,-3 -2,-4 -3,-10 -10,-17 -20,-20 -7,-1 -10,-6 -14,-11 8,-7 18,-12 28,-15 2,-1 3,-3 5,-4l-2 -2c-5,0 -11,0 -17,0 -4,0 -8,0 -12,0 0,0 0,0 -1,0 -4,0 -6,-1 -9,-5 2,0 4,-1 6,-1 2,0 4,0 6,0 3,0 7,0 10,0 4,0 8,0 11,0 11,0 21,0 31,0 0,0 0,0 0,0 5,0 7,2 9,6 -4,0 -8,0 -12,0 -4,0 -7,0 -11,0 -1,0 -3,1 -5,2 2,1 3,2 4,2 10,3 17,12 18,22 0,4 -1,9 -6,11 -2,0 -3,0 -4,0 -2,0 -4,-1 -5,-3 -1,-2 -1,-6 0,-7 2,-2 5,-2 8,-2l2 1c0,-8 -6,-14 -15,-14 -1,0 -1,0 -2,0 0,15 0,29 0,43l-1 1zm-4 -45c-8,4 -14,8 -20,11 7,6 14,11 20,17 0,-9 0,-17 0,-28z"/>
   <path class="fil6" d="M3120 466c-1,-1 -2,-2 -3,-3 -3,-7 -8,-13 -15,-15l0 1c-1,10 -10,15 -18,15 -1,0 -2,0 -4,0 -6,-2 -11,-5 -15,-9 -5,-5 -9,-11 -13,-16l1 -1 2 2c5,5 9,10 15,14 4,2 8,4 12,4 2,0 5,-1 7,-2 7,-3 10,-11 6,-18 -2,-3 -5,-5 -8,-5 -1,0 -2,1 -3,1l0 1c2,3 3,6 1,8 -1,2 -4,3 -6,3 -1,0 -1,0 -2,0 -3,-1 -5,-3 -6,-6 0,-4 2,-7 4,-10 -2,-1 -5,-3 -8,-3 -1,0 -2,1 -3,1 -3,2 -7,2 -11,4 -1,0 -1,1 -2,1 -2,0 -3,-1 -5,-3l3 -1c19,-6 38,-13 57,-20 1,0 2,0 2,0 2,0 3,1 5,2 -3,1 -7,2 -10,3 6,17 12,34 18,51l-1 1zm-10 -18c-4,-10 -7,-21 -11,-32 -8,3 -17,6 -25,9l1 1 3 2 1 1c2,-1 3,-1 5,-1 6,0 10,3 14,9 3,5 8,7 12,11z"/>
   <path class="fil5" d="M4589 534c0,0 -2,-1 -2,-2 -3,-7 -8,-12 -15,-15l0 1c0,10 -9,15 -17,15 -1,0 -2,0 -4,0 -5,-2 -10,-5 -14,-9 -5,-4 -9,-10 -13,-15l1 -1 2 1c4,6 9,11 15,14 4,2 7,4 11,4 2,0 4,-1 7,-1 7,-3 10,-12 6,-18 -2,-3 -5,-4 -8,-4 -1,0 -2,0 -3,0l0 1c2,3 2,6 1,8 -1,2 -4,3 -6,3 -1,0 -1,0 -2,0 -3,-1 -5,-4 -5,-7 -1,-3 1,-6 4,-8 -3,-2 -5,-3 -8,-3 -1,0 -2,0 -3,0 -4,2 -7,3 -11,4 0,1 -1,1 -2,1 -2,0 -3,-1 -4,-3l2 0c18,-7 37,-13 55,-20 1,0 2,0 3,0 1,0 2,1 4,2 -3,1 -6,2 -10,3 6,17 12,33 17,49l-1 0zm-9 -16c-3,-10 -7,-21 -11,-31 -8,3 -16,5 -24,8l1 2 3 2 2 0c1,0 2,-1 4,-1 5,0 10,4 13,9 3,4 8,7 12,11z"/>
   <path class="fil6" d="M2886 475c-5,0 -9,0 -12,-2 -4,-1 -7,-3 -10,-6 -3,-2 -5,-5 -6,-9 -2,-3 -2,-7 -2,-10 0,-3 0,-5 1,-7 1,-2 2,-4 3,-6 1,-2 3,-3 5,-4 2,-1 4,-1 6,-1l3 1 3 1c1,1 2,2 2,4 1,1 1,2 1,3 0,2 0,3 -1,4l-2 3 -3 2 -3 0 -3 0 -3 -2 -2 -2c0,-1 -1,-3 -1,-4l0 0 1 -1 0 -1 0 -1 -2 2 -1 3 0 3 -1 2c0,3 1,6 2,9 2,2 4,4 6,6 2,2 5,3 8,4 4,1 7,1 11,1 4,0 7,0 10,-1 4,-1 6,-3 8,-5 2,-2 4,-4 5,-6 1,-3 2,-5 2,-7 0,-2 0,-4 -1,-5 0,-2 -1,-3 -2,-4 -1,-1 -2,-2 -4,-2 -1,-1 -2,-1 -4,-1 -2,0 -3,0 -4,0l-2 2 -1 2 0 2c0,1 0,2 1,3l2 3c1,1 2,2 3,3 2,1 3,1 4,2l1 2 0 1 -2 1 -30 0 -2 -1 0 -1 0 -1 2 -1 26 0c-1,0 -2,-1 -4,-2 -1,-1 -2,-2 -3,-3 -1,-1 -2,-2 -3,-4 0,-1 -1,-2 -1,-4 0,-1 1,-3 1,-4 1,-1 2,-2 3,-3 1,-1 2,-2 3,-2 2,-1 3,-1 5,-1 2,0 4,0 6,1 2,1 4,3 5,4 1,2 2,4 3,6 1,2 1,4 1,7 0,2 0,4 0,7 -1,2 -2,4 -3,6 -1,2 -2,4 -4,6 -2,2 -4,3 -6,4 -2,2 -4,3 -7,3 -2,1 -5,1 -8,1zm-15 -41l-2 1 -2 1 -1 1 0 2 0 2 1 2 2 1 2 1 2 -1 2 -1 1 -1 0 -2c0,-2 0,-3 -1,-4 -1,-1 -2,-2 -4,-2z"/>
   <path class="fil5" d="M4231 522l-6 0 0 -19 -6 0c-1,3 -2,6 -4,8 -2,3 -4,5 -7,6 -3,2 -5,3 -9,4 -3,1 -6,1 -9,1 -2,0 -4,0 -6,0 -2,0 -4,-1 -6,-1 -2,-1 -4,-2 -6,-2 -2,-1 -4,-2 -5,-4 -2,-1 -3,-2 -4,-4 -1,-1 -1,-3 -1,-5 0,-1 0,-3 1,-4l2 -2 3 -2c1,0 2,0 4,0l42 0c0,-3 0,-6 -1,-8 -1,-3 -2,-5 -4,-6 -1,-2 -2,-3 -4,-4 -2,-1 -3,-2 -5,-2 1,1 2,2 2,3 1,1 1,3 1,4 0,2 0,3 0,4l-3 3c-1,1 -2,1 -3,2 -1,0 -3,1 -4,1 -2,0 -3,-1 -5,-1 -1,-1 -2,-1 -3,-2 -1,-1 -2,-2 -3,-4 0,-1 -1,-2 -1,-4 0,-1 1,-3 1,-4 1,-2 2,-3 3,-4 1,-1 3,-2 4,-2 2,-1 4,-1 6,-1 4,0 7,0 10,2 3,1 6,3 8,5 2,2 4,5 5,8 1,3 2,6 2,10l5 0 0 -25 6 0 0 49zm-59 -19c-2,0 -3,0 -3,1l-1 2c0,1 0,3 1,4 2,2 3,3 5,4 2,1 5,1 8,2 2,1 5,1 8,1 3,0 5,-1 8,-1 2,-1 4,-2 6,-3 2,-1 4,-3 6,-4 1,-2 2,-4 3,-6l-41 0zm21 -25l-3 1 -1 1 -2 2 0 2 0 2 2 2 1 1 3 0 2 0 1 -1 1 -2 1 -2 -1 -2 -1 -2 -1 -1 -2 -1z"/>
   <path class="fil7" d="M3288 439c0,0 0,0 -1,0 -2,0 -3,-1 -5,-1 -3,-1 -5,-2 -7,-3 -2,-2 -4,-3 -6,-5 -2,-3 -4,-5 -6,-8 -2,-3 -3,-5 -4,-8 0,-3 -1,-5 -1,-8 1,-2 1,-4 2,-6 1,-2 3,-4 5,-5 2,-1 3,-1 5,-2 0,0 0,0 0,0 2,0 3,1 4,1 2,1 3,2 4,3 1,1 2,2 3,3 1,1 1,3 2,4 0,1 0,3 0,4l17 -11c-1,0 -2,-1 -3,-2 -1,-1 -2,-2 -3,-3 -1,-1 -2,-2 -2,-4 0,-1 -1,-3 -1,-4 1,-2 1,-3 2,-5 0,-1 2,-2 3,-3 2,-2 4,-2 7,-3 0,0 0,0 1,0 2,0 3,1 5,1 3,1 5,3 7,4 2,2 4,5 5,7 2,3 4,6 5,9 1,3 1,5 2,8 0,2 0,5 -1,7 0,2 0,4 -1,5 -1,2 -2,4 -3,5 -1,1 -2,2 -3,3 -1,1 -3,1 -4,2 -1,0 -3,0 -4,0 -2,0 -3,0 -5,-1 -1,0 -2,-1 -4,-2 0,2 1,3 0,5 0,2 0,3 -1,4 0,2 -1,3 -2,4 -1,1 -2,2 -4,3 -1,0 -2,1 -4,1 -1,1 -2,1 -4,1zm-19 -20c2,3 4,6 6,8 3,2 5,3 7,4 2,1 4,1 6,1 0,0 0,0 0,0 2,0 4,0 5,-1 2,-1 3,-2 3,-3 1,-2 1,-3 2,-4 0,-2 -1,-3 -1,-5 0,-1 -1,-2 -1,-4l5 -3 3 3c1,1 3,2 4,2 1,1 2,1 4,1 0,0 0,0 0,0 2,0 3,-1 5,-2 1,0 2,-2 3,-3 1,-2 1,-4 1,-6 1,-3 0,-5 -1,-8 0,-3 -2,-6 -4,-10 0,2 -1,3 -2,5 -1,1 -2,2 -3,3l-33 20c-2,1 -3,2 -5,2 0,0 -1,0 -1,0 -1,0 -2,0 -3,0zm1 -19l-3 1c-1,1 -2,2 -2,4 -1,2 -1,4 0,6l3 2 2 0 2 0 2 -1 2 -2 1 -2 -1 -3 0 -1 -2 -2 -2 -1 -2 -1zm34 -21c-1,0 -2,1 -3,1l-2 2 -1 2 0 3 1 2 2 1 2 1 2 1 3 -1 1 -1 1 -2 1 -2c0,-1 0,-3 -1,-4 -1,-1 -3,-2 -4,-3 -1,0 -1,0 -2,0z"/>
   <path class="fil7" d="M3534 683c0,0 0,0 -1,0 -1,0 -3,0 -4,-1 -2,0 -4,-1 -5,-2 -2,-1 -4,-3 -5,-4 -2,-2 -4,-4 -5,-7 -2,-2 -3,-4 -3,-6 -1,-2 -1,-4 -1,-6 0,-2 1,-4 1,-6 1,-1 3,-2 4,-4 2,0 3,-1 4,-1 0,0 1,0 1,0 1,0 2,0 3,1l3 2 2 3 2 3 0 3 14 -9 -3 -1 -2 -3c-1,-1 -1,-2 -2,-3 0,-1 0,-3 0,-4 0,-1 0,-2 1,-3 0,-2 1,-3 3,-3 1,-1 3,-2 5,-2 0,0 0,0 1,0 1,0 3,0 4,1 2,0 4,2 5,3 2,1 4,3 5,6 2,2 3,4 4,7 0,2 1,4 1,6 0,2 0,4 0,6 0,1 -1,3 -1,4 -1,2 -2,3 -2,4l-3 2 -3 2c-1,0 -3,0 -4,0 -1,0 -2,0 -3,0 -1,-1 -3,-2 -4,-3 0,2 1,3 0,5 0,1 0,2 0,3l-2 3 -3 2c-1,1 -2,1 -3,1 -2,1 -3,1 -4,1zm-16 -16c2,3 4,5 6,6 2,2 3,3 5,4 2,1 3,1 5,1 0,0 0,0 0,0 2,0 3,-1 4,-1 1,-1 2,-2 3,-3l1 -3c0,-1 0,-3 -1,-4l-1 -3 5 -3 2 3 3 1 4 1c1,0 2,0 3,-1 1,-1 2,-2 3,-3 1,-2 1,-3 1,-5 0,-2 0,-4 -1,-7 0,-2 -2,-5 -3,-7 0,1 -1,2 -2,3l-2 3 -27 17c-1,0 -3,1 -4,1 0,0 -1,0 -1,0 -1,0 -2,0 -3,0zm1 -15l-2 0c-1,1 -2,2 -2,4 0,1 0,2 0,4l3 2 2 0 1 0 2 -1 1 -1 1 -2 0 -2 -1 -2 -1 -1 -2 -1 -2 0zm28 -17c-1,0 -2,0 -3,0l-1 2 -1 2 0 2 1 1 1 1 2 1 2 1 2 -1 1 -1 1 -1 1 -2 -1 -3c-1,-1 -2,-2 -4,-2 0,0 -1,0 -1,0z"/>
   <path class="fil5" d="M4555 681c-1,0 -1,0 -1,0 -2,0 -4,0 -6,-1 -2,-1 -4,-2 -6,-3 -2,-1 -4,-3 -6,-5 -3,-2 -5,-5 -6,-8 -2,-3 -3,-5 -4,-8 -1,-3 -1,-5 -1,-7 0,-3 1,-5 2,-7 1,-2 3,-3 5,-5 1,-1 3,-1 4,-1 1,0 1,0 1,0 1,0 3,0 4,0 1,1 3,2 4,3 1,1 2,2 3,3 0,2 1,3 1,4 1,2 1,3 1,4l17 -10c-2,-1 -3,-2 -4,-2 -1,-1 -2,-2 -3,-4 0,-1 -1,-2 -1,-4 -1,-1 -1,-3 -1,-4 0,-2 0,-3 1,-5 1,-1 2,-2 4,-3 2,-1 4,-2 6,-2 1,0 1,0 1,0 2,0 4,0 6,1 2,1 4,2 6,4 2,2 4,4 6,7 2,3 3,6 4,8 1,3 2,6 2,8 0,3 0,5 0,7 0,2 -1,4 -2,6 0,1 -1,3 -2,4 -1,1 -2,2 -4,3 -1,1 -2,1 -3,2 -2,0 -3,1 -4,1 -1,0 -1,0 -1,0 -1,0 -3,-1 -4,-1 -2,-1 -3,-2 -5,-3 1,2 1,4 1,5 0,2 -1,3 -1,5 -1,1 -2,2 -3,3 -1,1 -2,2 -3,3 -1,0 -3,1 -4,1 -1,1 -3,1 -4,1zm-20 -20c2,4 5,6 7,8 2,2 5,4 7,5 2,0 4,1 5,1 0,0 1,0 1,0 2,0 3,-1 5,-2 1,-1 2,-2 3,-3 1,-1 1,-3 1,-4 0,-1 0,-3 0,-4 -1,-2 -1,-3 -2,-4l6 -4 3 3c1,1 2,2 3,2 2,1 3,1 4,1 0,0 0,0 1,0 1,0 3,0 4,-1 1,-1 2,-2 3,-4 1,-2 2,-4 2,-6 0,-2 0,-5 -1,-8 -1,-3 -2,-6 -4,-10 -1,2 -1,4 -2,5 -1,1 -2,2 -3,3l-34 21c-1,1 -2,1 -4,1 -1,0 -1,1 -2,1 -1,0 -2,-1 -3,-1zm1 -18l-2 0c-2,1 -2,3 -3,4 0,2 0,4 1,6l2 2 3 1 2 -1 2 -1 1 -1 1 -3 0 -2 -1 -2 -1 -2 -2 -1 -3 0zm35 -22c-2,0 -3,1 -4,1l-1 2 -1 2 0 3 1 2 1 1 2 2 3 0 2 -1 2 -1 1 -2 0 -2c1,-1 0,-2 0,-4 -2,-1 -3,-2 -5,-2 0,0 -1,-1 -1,-1z"/>
   <path class="fil6" d="M3092 824c-1,0 -1,0 -1,0 -2,0 -4,0 -6,-1 -2,0 -4,-1 -6,-2 -2,-2 -4,-3 -6,-5 -2,-2 -4,-5 -6,-8 -1,-2 -3,-5 -3,-8 -1,-2 -1,-4 -1,-7 0,-2 1,-4 2,-6 1,-2 2,-3 4,-5 2,-1 3,-1 5,-1 0,0 0,0 0,0 2,0 3,0 4,1 2,0 3,1 4,2 1,1 2,2 3,3 0,1 1,3 1,4 1,1 1,3 1,4l16 -10c-1,-1 -2,-2 -3,-2l-3 -3c-1,-2 -1,-3 -2,-4 0,-2 0,-3 0,-5 0,-1 0,-3 1,-4 1,-1 2,-3 3,-4 2,-1 4,-1 7,-2 0,0 0,0 0,0 2,0 4,1 6,1 2,1 4,3 6,4 2,2 4,4 5,7 2,3 4,6 5,8 1,3 1,6 2,8 0,2 0,5 -1,7 0,2 0,3 -1,5 -1,2 -2,3 -3,4 -1,1 -2,2 -3,3 -1,1 -2,1 -4,2 -1,0 -2,1 -4,1 -1,-1 -2,-1 -4,-1 -1,-1 -3,-2 -4,-3 0,2 0,4 0,5 0,2 0,3 -1,4 0,2 -1,3 -2,4 -1,1 -2,2 -3,2 -2,1 -3,2 -4,2 -2,0 -3,0 -4,0zm-19 -19c2,4 4,6 6,8 3,2 5,3 7,4 2,1 3,1 5,1 0,0 0,0 1,0 1,0 3,0 4,-1 2,-1 3,-2 3,-3 1,-1 1,-3 2,-4 0,-1 0,-3 -1,-4 0,-2 -1,-3 -1,-4l5 -3 3 3c1,0 2,1 4,2 1,0 2,0 3,0 0,0 0,0 1,0 1,0 2,0 4,-1 1,-1 2,-2 3,-4 1,-1 1,-3 2,-5 0,-3 -1,-5 -1,-8 -1,-3 -2,-6 -5,-9 0,1 0,3 -1,4 -1,1 -2,2 -3,3l-33 20c-1,1 -2,1 -4,2 0,0 -1,0 -1,0 -1,0 -2,0 -3,-1zm1 -18l-2 1c-2,1 -3,2 -3,4 0,2 0,3 0,5l3 2 2 1 2 0 2 -1 2 -2 0 -2 0 -3 0 -1 -2 -2 -2 -1 -2 -1zm33 -20c-1,0 -2,0 -3,1l-2 2 -1 2 0 2 1 2 2 2 2 1 2 0 2 -1 2 -1 1 -1 1 -3c0,-1 -1,-2 -1,-3 -2,-2 -3,-2 -5,-3 0,0 -1,0 -1,0z"/>
   <path class="fil5" d="M4187 616c-1,0 -1,0 -1,0 -2,0 -4,-1 -6,-1 -2,-1 -4,-2 -6,-3 -2,-2 -4,-3 -7,-5 -2,-3 -4,-5 -6,-8 -1,-3 -2,-6 -3,-8 -1,-3 -1,-5 -1,-8 0,-2 1,-4 2,-6 1,-2 2,-4 5,-5 1,-1 3,-1 4,-2 0,0 1,0 1,0 1,0 3,1 4,1 1,1 3,2 4,3 1,1 2,2 3,3 0,1 1,3 1,4 0,1 1,3 1,4l17 -11c-2,0 -3,-1 -4,-2 -1,-1 -2,-2 -3,-3 -1,-1 -1,-2 -2,-4 0,-1 0,-3 0,-4 0,-2 0,-3 1,-5 1,-1 2,-2 4,-3 2,-2 4,-2 6,-3 0,0 1,0 1,0 2,0 4,1 6,1 2,1 4,3 6,4 2,2 4,5 6,7 2,3 3,6 4,9 1,3 2,5 2,8 0,2 0,5 0,7 0,2 -1,4 -2,5 0,2 -1,4 -2,5 -1,1 -2,2 -4,3 -1,1 -2,1 -4,2 -1,0 -2,0 -4,0 -1,0 -3,0 -4,-1 -2,0 -3,-1 -5,-2 1,2 1,3 1,5 0,2 -1,3 -1,4 -1,2 -2,3 -3,4 -1,1 -2,2 -3,3 -1,0 -3,1 -4,1 -1,1 -3,1 -4,1zm-20 -20c2,3 5,6 7,8 2,2 4,3 7,4 2,1 3,1 5,1 0,0 1,0 1,0 2,0 3,0 4,-1 2,-1 3,-2 4,-3 0,-2 1,-3 1,-4 0,-2 0,-3 0,-5 -1,-1 -1,-2 -2,-4l6 -3 3 3c1,1 2,2 3,2 2,1 3,1 4,1 0,0 0,0 0,0 2,0 3,-1 5,-2 1,0 2,-2 3,-3 1,-2 2,-4 2,-6 0,-3 0,-5 -1,-8 -1,-3 -2,-6 -4,-10 -1,2 -1,3 -2,4 -1,2 -2,3 -4,3l-33 21c-1,1 -3,2 -4,2 -1,0 -1,0 -2,0 -1,0 -2,0 -3,0zm1 -19l-2 1c-2,1 -3,2 -3,4 0,2 0,4 0,6l3 2 3 0 2 0 2 -1 1 -2 1 -2 0 -3 -1 -1 -1 -2 -3 -1 -2 -1zm35 -21c-2,0 -3,1 -4,1l-1 2 -1 2 0 3 1 2 1 1 2 1 3 1 2 -1 2 -1 1 -2 0 -2c0,-1 0,-3 0,-4 -2,-1 -3,-2 -5,-3 0,0 -1,0 -1,0z"/>
   <path class="fil6" d="M2757 645c-1,0 -2,-1 -3,-1 -2,0 -3,-1 -4,-2l-3 -2 -2 -4 -2 -3c-1,-3 -2,-5 -2,-8 0,-3 0,-6 1,-8 1,-2 2,-4 4,-6 2,-2 4,-4 7,-5 2,-1 3,-1 4,-1 2,0 3,-1 4,-1 0,0 1,0 1,0 1,0 2,1 4,1 1,0 3,1 4,2 0,-2 0,-3 1,-5 0,-1 1,-2 2,-3l2 -2 3 -1 2 -1 3 0 3 1 4 2c0,-2 0,-3 1,-4l2 -3 2 -2 3 -2c2,-1 4,-1 6,-1 0,0 1,0 1,0 2,0 4,1 6,2 2,1 4,2 5,4 2,2 3,4 4,6 1,2 1,4 1,6 1,2 0,4 0,6 0,3 -1,5 -2,6 -1,2 -2,4 -4,6l-4 -4c1,-1 2,-2 3,-4 0,-1 1,-2 1,-4 0,-1 0,-3 0,-4 0,-2 -1,-3 -1,-5 -1,-2 -2,-3 -3,-4 -1,-2 -2,-3 -3,-4 -1,-1 -3,-1 -4,-1 -1,-1 -1,-1 -1,-1 -2,0 -3,1 -4,1l-2 2 -2 3c0,1 -1,3 0,4 0,1 0,3 1,4l8 21 -6 2 -8 -20c-1,-1 -2,-3 -3,-4l-2 -2 -3 -2 -4 1 -2 2 -1 3c0,1 0,2 0,4 0,1 0,2 1,4l8 20 -6 2 -8 -18c0,-2 -1,-3 -2,-4 -1,-1 -3,-2 -4,-3 -2,-1 -3,-1 -5,-1 0,0 0,0 0,0 -1,0 -3,0 -4,1 -2,1 -4,2 -5,3 -1,1 -2,2 -3,4 -1,1 -1,3 -2,5 0,1 0,3 1,5l1 -2 1 -2 2 -2 2 -2c2,0 4,-1 5,-1 0,0 1,0 1,0 1,0 3,1 4,2 2,0 3,1 4,2 1,2 2,3 2,4 1,2 1,4 1,5 0,2 0,4 -1,5 0,2 -1,3 -2,4 -1,1 -2,2 -4,3 -1,0 -3,1 -4,1 0,0 0,0 -1,0zm-1 -19c-1,0 -2,0 -3,0l-2 2 -1 2 -1 2 1 3 1 3 3 2 2 0 3 0 2 -2 2 -2 0 -3 -1 -3c-1,-2 -2,-3 -3,-4 -1,0 -2,0 -3,0z"/>
   <path class="fil5" d="M4054 808c0,0 0,0 0,0l-1 -5c2,0 3,0 5,-1 1,0 3,-1 4,-2 1,-1 2,-2 3,-3 1,-2 2,-3 3,-5 0,-2 1,-3 1,-5 0,-2 0,-3 0,-5 0,-1 -1,-3 -2,-4 -1,-1 -2,-2 -4,-3l-3 -1 -3 2 -4 2c-1,1 -1,2 -2,4l-8 21 -7 -2 8 -21c1,-2 1,-3 2,-5 0,-1 0,-2 0,-4 -1,-1 -1,-2 -2,-3l-2 -2 -4 0 -3 2 -3 2c0,1 -1,3 -2,4l-8 21 -6 -3 7 -19c1,-2 1,-3 1,-5 0,-2 0,-3 -1,-5 0,-1 -1,-3 -2,-4 -1,-1 -3,-2 -4,-2 -2,-1 -4,-2 -6,-2 0,0 0,0 -1,0 -1,0 -3,0 -4,1 -2,0 -3,1 -5,2 -1,1 -2,3 -3,4l2 0 3 -1 2 0 3 1c2,1 4,2 5,3 1,1 2,3 2,4 1,2 1,3 1,5 0,2 -1,3 -1,5 -1,1 -2,3 -3,4 -1,1 -3,2 -4,3 -2,1 -3,1 -5,1 0,0 0,0 0,0 -2,0 -3,0 -4,-1 -2,0 -3,-1 -4,-2 -2,-1 -2,-2 -3,-4 -1,-1 -1,-2 -1,-4 0,-1 -1,-2 0,-4 0,-1 0,-2 0,-4 0,-1 1,-2 1,-3 1,-3 3,-6 5,-8 2,-2 4,-4 6,-5 2,-1 5,-2 8,-2 0,0 0,0 0,0 3,0 5,1 8,2 2,0 3,1 4,2 1,1 3,2 4,3 1,1 2,2 2,3 1,2 2,3 2,4 1,-1 3,-2 4,-2 1,-1 2,-1 3,-1 1,0 1,0 2,0 0,0 1,0 2,0l3 1 2 1 3 2 1 3c1,2 1,3 1,4 1,-1 3,-2 4,-2 1,-1 2,-1 3,-1l4 0 3 1c2,1 5,3 6,4 2,2 3,4 3,6 1,2 1,5 1,7 0,3 -1,5 -2,7 -1,2 -2,4 -3,6 -2,2 -3,3 -5,4 -2,2 -4,3 -6,3 -2,1 -4,1 -6,1zm-52 -42l-3 1 -2 1 -2 3 0 3 0 3 2 3 2 1 3 1 3 -1 2 -2 1 -3c1,-2 1,-4 1,-5 -1,-2 -3,-3 -5,-4l-2 -1z"/>
   <path class="fil7" d="M3742 820l-8 -14c-5,-1 -9,-3 -13,-6 -4,-2 -7,-6 -9,-10 -2,-4 -3,-8 -3,-12 0,-4 0,-8 2,-12 1,-4 3,-8 6,-11 4,-4 7,-7 12,-9 5,-2 9,-4 14,-4 1,-1 3,-1 4,-1 3,0 6,1 9,1 4,1 7,3 11,6 3,2 6,5 8,9 1,3 2,6 3,9 0,3 0,6 0,9l-6 -2c1,-2 1,-4 1,-7 -1,-2 -1,-4 -2,-7 -2,-2 -4,-5 -6,-6 -3,-2 -6,-3 -9,-4 -2,0 -4,0 -5,0 -2,0 -4,0 -6,0 -4,1 -8,2 -12,4 -4,2 -7,5 -10,8 -2,2 -5,5 -6,8 -1,3 -2,7 -2,10 0,3 0,6 2,9 1,2 3,4 5,6 2,1 5,3 8,3l-1 -1c-1,-1 -1,-3 -2,-5 0,-2 0,-4 1,-6 0,-1 1,-3 2,-4 1,-2 2,-3 4,-3 2,-1 3,-2 5,-2 0,0 0,0 0,0 2,0 4,1 6,2 0,-2 1,-4 2,-6 1,-1 2,-2 4,-3 1,-1 3,-1 5,-2 0,0 0,0 0,0 2,0 3,1 5,1 1,1 3,2 4,3 2,1 3,3 4,5l12 24 -6 3 -11 -22 -2 -2 -2 -2 -3 -1 -2 0 -2 2 -1 3 0 3 1 3 11 21 -5 3 -12 -21 -1 -3 -3 -2 -3 0 -2 0 -2 2 -1 3 0 3 1 3 12 21 -6 3z"/>
   <path class="fil5" d="M4362 801c0,0 0,0 0,0 -2,0 -4,0 -6,-1 -2,0 -3,-1 -5,-2 -2,-1 -4,-3 -6,-5l4 -4c2,1 3,3 4,4 2,1 3,2 5,3 1,0 2,1 4,1 0,0 1,0 2,0 1,0 1,0 2,0 2,0 3,-1 4,-1 1,-1 2,-2 3,-2l2 -3 0 -3c0,-2 -1,-3 -2,-5 -1,-1 -2,-2 -3,-3 -2,0 -3,-1 -5,-2 -2,0 -4,-1 -6,-2 -2,0 -4,-1 -6,-2 -2,0 -3,-1 -5,-2 -1,-2 -3,-3 -4,-5 -1,-1 -1,-3 -2,-6 0,-2 0,-4 1,-6 1,-2 2,-4 3,-5 2,-2 3,-3 6,-4 2,-1 4,-2 7,-2 2,0 3,0 4,0 1,0 1,0 1,0 2,0 3,0 5,0 2,1 3,2 5,3 2,1 3,3 5,5l-3 4c-3,-3 -5,-6 -8,-7 -2,-1 -5,-2 -7,-2 0,0 -1,0 -2,0 -1,1 -3,1 -4,2 -1,0 -2,1 -3,2l-2 2 0 3c0,2 1,3 2,4 1,1 2,2 4,3 1,1 3,2 5,2 2,1 4,1 6,2 2,0 4,1 7,2 2,1 3,2 5,3 2,1 3,2 4,4 1,1 2,3 2,6 1,2 1,4 0,6 -1,2 -2,4 -3,6 -2,2 -4,3 -6,4 -3,2 -6,2 -9,3 -2,0 -3,0 -5,0z"/>
   <path class="fil7" d="M3299 573c-1,0 -2,0 -4,-1 -2,0 -4,-1 -7,-2l2 -6c2,1 4,2 6,3 1,0 3,1 5,1 0,0 1,0 1,0 1,0 2,0 3,0 1,-1 3,-1 4,-2 1,-1 2,-2 3,-3l2 -3 1 -3 -1 -3c-1,-2 -2,-3 -3,-3 -1,-1 -3,-2 -5,-2 -1,0 -2,0 -3,0 -1,0 -1,0 -2,0 -2,0 -4,0 -6,0 -2,1 -3,1 -5,1 0,0 -1,0 -1,0 -2,0 -4,-1 -6,-1 -2,-1 -4,-1 -5,-3 -2,-1 -3,-2 -4,-4 -1,-2 -2,-4 -2,-6 0,-2 0,-4 1,-7 1,-2 2,-3 4,-5 1,-2 3,-4 6,-5 1,-1 3,-1 4,-2 2,-1 4,-1 5,-1 1,0 1,0 1,0 2,0 3,0 5,0 2,1 4,2 7,3l-2 5c-4,-2 -7,-3 -10,-3 -1,0 -1,0 -1,0 -3,0 -5,0 -8,1 -1,1 -2,2 -3,3l-2 3 -1 3 1 3c1,1 2,2 3,3 1,1 3,1 5,1 1,0 1,0 2,0 1,0 2,0 4,0 2,0 4,0 6,-1 2,0 4,0 7,0 0,0 0,0 0,0 2,0 4,0 6,1 2,0 4,1 5,2 2,1 3,2 4,4 1,3 2,5 2,7 1,2 0,4 -1,6 0,3 -2,5 -4,7 -1,2 -4,4 -7,5 -1,1 -3,2 -5,2 -1,1 -3,1 -5,2 -1,0 -1,0 -2,0z"/>
   <path class="fil7" d="M3637 300c0,0 0,0 0,0 -11,0 -19,-6 -26,-14 -9,-11 -5,-24 9,-26 6,-1 12,-3 18,-5 -2,-6 -3,-11 -5,-18 -14,4 -27,8 -41,12 0,-2 -1,-4 -1,-6 19,-5 38,-11 57,-16 1,2 1,4 2,6 -3,1 -6,2 -10,3 1,2 1,4 2,5 3,14 7,27 10,40 3,10 -4,19 -15,19zm3 -39c-7,2 -14,3 -20,5 -7,2 -9,8 -6,14 6,8 14,13 24,13 0,0 1,0 1,0 5,0 8,-4 7,-9 -2,-7 -4,-15 -6,-23z"/>
   <path class="fil5" d="M3954 488c0,0 0,0 0,0 -11,0 -19,-5 -25,-13 -10,-11 -5,-24 9,-26 6,-1 11,-3 18,-5 -2,-6 -4,-12 -5,-18 -14,4 -28,7 -41,11 -1,-2 -1,-4 -2,-6 19,-5 38,-10 57,-15 1,2 2,3 2,5 -3,1 -6,2 -9,3 0,2 1,4 1,6 4,13 7,26 11,39 3,11 -5,19 -16,19zm3 -39c-7,2 -13,4 -20,6 -6,2 -9,7 -5,13 5,9 14,14 24,14 0,0 0,0 0,0 5,0 9,-4 8,-9 -2,-8 -4,-15 -7,-24z"/>
   <path class="fil6" d="M2667 485c-5,0 -10,-2 -14,-5 -8,-6 -7,-15 2,-18 3,-2 7,-4 10,-6 -2,-4 -3,-7 -5,-11 -9,5 -17,9 -25,13 -1,-1 -1,-2 -2,-3 12,-6 23,-13 34,-19 1,1 2,2 2,3 -1,2 -3,3 -5,4l2 3c4,8 8,16 12,24 4,6 0,13 -7,14 -1,1 -3,1 -4,1zm0 -26c-4,2 -8,4 -12,7 -4,2 -4,6 -1,9 4,4 8,6 13,6 1,0 3,-1 4,-1 4,-1 6,-4 4,-7 -2,-5 -5,-9 -8,-14z"/>
   <path class="fil7" d="M3759 482c-1,0 -2,-1 -3,-1 0,-3 0,-5 0,-9 7,0 11,-3 11,-8 1,-6 -1,-10 -7,-12 -2,3 -4,6 -6,10 -1,2 -2,3 -3,3 -1,0 -2,-1 -3,-3 -2,-3 -4,-7 -6,-10 -5,1 -8,5 -8,11 1,5 5,9 12,9 0,3 0,6 0,9 -1,0 -2,0 -3,0 -7,0 -13,-4 -16,-11 -5,-10 -1,-19 10,-27 -2,-8 -2,-8 -9,-8 -3,0 -6,0 -10,0 0,-3 0,-6 0,-9 21,0 42,0 62,0 0,3 0,6 0,9 -4,0 -8,0 -11,1 -2,1 -3,4 -4,6 11,6 15,16 11,28 -3,6 -10,12 -17,12zm-14 -47c2,5 4,9 6,14 3,-5 5,-9 7,-14 -5,0 -9,0 -13,0z"/>
   <path class="fil7" d="M3328 820c-1,-1 -2,-2 -3,-3 -3,-7 -8,-13 -16,-16l0 1c-1,11 -10,16 -19,16 -1,0 -3,0 -4,0 -6,-2 -12,-5 -16,-10 -6,-5 -10,-10 -14,-17l1 0 3 1c4,6 9,12 16,16 4,2 8,3 12,3 2,0 5,0 7,-1 8,-3 11,-12 7,-19 -2,-3 -5,-5 -9,-5 -1,0 -2,0 -4,1l1 1c2,3 3,6 1,8 -1,2 -4,3 -6,3 -1,0 -2,0 -2,0 -4,-1 -6,-3 -6,-7 -1,-4 1,-6 4,-9 -3,-2 -6,-4 -9,-4 -1,0 -2,1 -3,1 -4,2 -8,3 -11,4 -1,1 -2,1 -3,1 -2,0 -3,-1 -5,-3l3 0c20,-8 40,-14 60,-22 1,0 2,0 3,0 1,0 3,1 4,2 -3,2 -6,3 -10,4 6,18 13,35 19,53l-1 1zm-10 -18c-4,-12 -8,-23 -12,-34 -9,3 -18,6 -27,9l1 1 3 2 2 1c2,-1 3,-1 5,-1 6,0 11,4 14,9 4,5 9,8 14,13z"/>
   <path class="fil5" d="M3954 713l-10 -3 -3 -22c-1,2 -3,4 -5,5 -1,1 -3,2 -5,3 0,0 -1,0 -1,0 -3,0 -7,-2 -10,-4 -4,-3 -7,-6 -8,-10 0,-3 1,-6 3,-9 2,-3 5,-5 9,-5 0,0 0,0 1,0 1,0 3,0 5,1 3,1 6,3 9,6l-3 -15 -30 5 -2 -8 65 -12 2 8 -26 5 2 12c2,-1 3,-2 5,-3 1,0 3,-1 4,-1 1,0 1,0 1,0 3,0 6,1 9,4 3,3 5,6 6,9 0,3 1,6 0,8 0,3 -1,6 -2,9l-10 -4c2,-4 3,-8 3,-10 1,-2 1,-4 1,-5 0,-2 -1,-2 -2,-3l-2 -1c-2,1 -4,1 -6,3 -2,1 -3,3 -4,5l4 32zm-24 -38c0,0 -1,0 -2,0 -2,1 -4,2 -5,4 -1,2 -1,3 -1,6 0,1 1,2 2,3 1,0 2,0 2,0 1,0 1,0 1,0 2,0 4,0 5,-1 1,-1 2,-2 3,-3l5 -5c-2,-2 -4,-3 -6,-3 -1,-1 -3,-1 -4,-1z"/>
   <path class="fil6" d="M2899 609c-1,-1 -2,-2 -2,-3 -4,-10 -11,-17 -21,-20 -6,-2 -10,-6 -14,-11 9,-7 18,-12 28,-16 2,0 4,-2 5,-3l-1 -2c-6,0 -12,0 -17,0 -5,0 -9,0 -13,0 0,0 0,0 0,0 -4,0 -7,-2 -9,-6 2,0 4,0 5,0 2,0 4,0 6,0 4,0 7,0 11,0 4,0 7,0 11,0 10,0 20,0 31,0 0,0 0,0 0,0 4,0 7,1 9,6 -4,0 -8,0 -13,0 -3,0 -7,0 -10,0 -2,0 -4,1 -5,2 1,0 2,1 4,2 9,3 17,11 17,21 1,5 -1,9 -6,11 -1,1 -2,1 -3,1 -3,0 -4,-1 -6,-3 -1,-2 -1,-7 0,-8 2,-1 6,-1 9,-1l1 0c0,-8 -6,-13 -15,-13 0,0 -1,0 -1,0 0,14 0,29 0,43l-1 0zm-5 -44c-7,4 -14,7 -19,11 7,6 13,11 19,16 0,-8 0,-17 0,-27z"/>
   <path class="fil5" d="M4537 264l-5 0 0 -20 -7 0c0,3 -2,6 -4,9 -2,2 -4,4 -6,6 -3,1 -6,2 -9,3 -3,1 -6,2 -9,2 -2,0 -4,-1 -6,-1 -3,0 -5,-1 -7,-1 -2,-1 -4,-1 -6,-2 -2,-1 -3,-2 -5,-3 -1,-2 -2,-3 -3,-5 -1,-1 -1,-3 -1,-5 0,-1 0,-2 0,-3l2 -3 3 -2c1,0 3,0 4,0l43 0c0,-3 -1,-6 -2,-8 -1,-2 -2,-4 -3,-6 -1,-2 -3,-3 -4,-4 -2,-1 -4,-1 -5,-2 1,1 1,2 2,3 1,2 1,3 1,5 0,1 0,2 -1,3l-2 3c-1,1 -2,2 -4,2 -1,1 -2,1 -4,1 -1,0 -3,0 -4,-1 -2,0 -3,-1 -4,-2 -1,-1 -2,-2 -2,-3 -1,-2 -1,-3 -1,-4 0,-2 0,-4 1,-5 1,-2 1,-3 3,-4 1,-1 2,-2 4,-2 2,-1 3,-1 5,-1 4,0 8,1 11,2 3,1 5,3 8,5 2,2 3,5 4,8 1,3 2,6 2,10l6 0 0 -25 5 0 0 50zm-59 -20c-1,0 -2,1 -3,1l-1 2c0,2 1,3 2,4 1,2 3,3 5,4 2,1 4,2 7,2 3,1 6,1 9,1 2,0 5,0 7,-1 3,-1 5,-2 7,-3 2,-1 4,-2 5,-4 2,-2 3,-4 4,-6l-42 0zm21 -25l-2 1 -2 1 -1 2 -1 2 1 2 1 2 2 1 2 0 2 0 2 -1 1 -2 0 -2 0 -2 -1 -2 -2 -1 -2 -1z"/>
  </g>
  <g id="_711316312">
   <path class="fil8" d="M1460 824c-1,-3 -2,-7 -4,-9 -2,-1 -6,1 -6,3 0,3 0,7 5,8 2,1 3,0 5,-2zm-726 30c7,-1 16,-1 23,-8 -9,2 -17,3 -23,8zm629 155c-6,-2 -11,-3 -17,-1 5,6 11,3 17,1zm-861 -10c-3,-1 -5,0 -7,-1 -2,0 -6,0 -5,1 1,3 -1,5 -1,8 2,-1 5,-1 7,-2 2,-1 6,-1 6,-6zm657 -218c7,0 14,-1 24,-2 -11,-8 -18,-2 -24,2zm-234 148c3,0 7,6 10,2 3,-4 -2,-9 -1,-13 -7,1 -4,9 -9,11zm21 -1c8,-2 15,-4 21,-6 1,0 4,0 3,-2 0,-3 -2,-4 -4,-4 -7,1 -13,5 -20,12zm-42 -2c-3,7 -10,10 -8,17 1,1 7,0 10,-3 5,-5 -2,-7 -2,-14zm93 -172c10,3 22,0 28,-5 -10,-2 -19,2 -28,5zm-161 71c-11,-1 -21,3 -31,9 11,-2 22,-3 31,-9zm689 9c-1,9 0,12 1,10 6,-7 11,-3 17,0 2,1 5,2 6,-2 0,-2 -2,-3 -5,-4 -6,-1 -12,-3 -19,-4zm-940 117c-1,-3 -6,-3 -6,-3 -7,7 -16,10 -24,13 -2,1 -2,3 -1,4 0,2 1,2 3,1 9,-5 19,-10 28,-15zm876 -113c-17,-5 -37,2 -50,-14 -1,-1 -5,-1 -6,0 -2,1 -3,5 -2,4 10,0 14,10 21,11 12,0 25,3 37,-1zm-546 26c-14,2 -29,1 -42,12 6,3 10,1 13,-1 3,-3 9,-3 10,-2 11,6 16,2 19,-9zm-258 43c-22,9 -44,18 -64,30 -3,1 -5,3 -3,6 1,3 4,0 6,-1 5,-3 9,-9 15,-11 18,-4 31,-16 46,-24zm598 -109c16,9 31,5 49,0 -18,-8 -33,-3 -49,0zm18 50c13,5 24,1 36,0 -4,-5 -21,-3 -6,-15 1,-1 1,-6 -1,-7 -3,-2 -8,-3 -12,-3 -2,0 -1,3 0,5 4,13 4,13 -9,16 -3,0 -5,1 -8,4zm240 -25l-1 1c12,3 24,6 36,8 4,1 6,0 8,4 2,5 7,5 11,3 5,-2 11,-4 16,-6 -2,-2 -5,-2 -7,-3 -12,-3 -25,-2 -34,-12 -2,-2 -3,-2 -5,0 -5,7 -11,10 -19,4 -1,0 -4,1 -5,1zm-650 57c-5,-3 -12,-4 -19,2 -2,3 -7,4 -10,3 -9,-2 -16,2 -22,6 -5,4 -13,5 -16,14 26,-4 50,-7 67,-25zm876 21c-10,-16 -41,-28 -60,-22 -3,1 -7,2 -9,-2 -3,-7 -11,-7 -19,-12 8,20 24,21 40,23 1,-1 -4,-4 0,-6 3,-1 6,1 6,3 -1,7 6,6 8,6 11,-4 19,3 28,9 1,1 4,2 6,1zm-1030 42c5,-6 9,-9 14,-10 20,-3 37,-12 56,-18 2,-1 3,-2 5,-3 4,-1 4,-4 3,-8 0,-4 -3,-2 -6,-2 -7,1 -12,6 -18,7 -14,4 -28,7 -42,6 -4,0 -6,0 -7,2 -8,13 -26,3 -33,15l-3 0c-5,-2 -9,1 -13,3 -14,4 -24,15 -39,17 -11,1 -19,7 -25,16 4,-6 11,-3 16,-4 6,-1 11,-2 17,-3 8,-2 17,-2 25,-7 1,-1 5,-2 3,-4 -4,-7 2,-5 5,-5 5,0 6,0 6,-1 -6,-8 3,-4 4,-5 8,-4 17,-1 25,-5 7,-5 8,0 7,9zm-105 256c3,-9 7,-16 18,-17 6,0 6,-4 5,-9 -4,-13 7,-34 19,-38 22,-6 -60,76 -42,64 9,-6 11,-15 13,-24 2,-9 18,-19 27,-16 8,3 18,1 27,3 3,1 7,-2 7,-5 0,-4 -4,-3 -7,-3 -6,0 -15,2 -16,-5 -1,-8 9,-7 14,-8 15,-3 29,-4 41,-13 2,-2 7,-2 4,-7 -3,-4 -7,-3 -9,0 -7,7 -16,7 -24,9 -7,1 -6,-2 -4,-5 7,-16 21,-23 36,-26 8,-1 14,-2 18,-8l3 -2c4,-4 10,-1 12,1 3,4 -2,7 -5,9 -6,3 -13,6 -14,14 5,3 10,2 16,1 7,0 14,-2 19,7 1,2 5,3 8,2 11,-5 22,-9 28,-20 3,-6 6,-8 11,-9 9,-1 16,-10 26,-8 2,0 5,-1 8,0 5,2 9,2 12,-4 2,-4 6,-7 11,-8 5,-1 11,-5 9,-10 -2,-6 -8,-8 -14,-5 -5,2 -9,4 -13,8 -6,6 -14,7 -21,9 -23,3 -45,7 -69,11 6,-10 14,-13 22,-14 8,-2 12,-4 9,-13 -3,-11 -73,13 -63,11 6,-1 81,-36 81,-40 0,-4 -4,-2 -6,-2 -5,-1 -10,1 -13,5 -3,4 -7,4 -11,3 -1,-1 -3,-4 -3,-6 0,-4 -72,25 -68,24 11,-5 100,-37 112,-48 -17,2 -31,5 -44,11 -11,4 -23,7 -33,12 -30,15 -133,46 -163,59 -3,1 -9,6 -11,1 -2,-4 5,-6 8,-7 22,-12 116,-43 140,-51 5,-2 7,-6 11,-8 34,-12 66,-29 101,-39 6,-2 11,-9 17,-14 -5,-3 -13,5 -14,-3 -1,-9 10,-3 14,-8 -11,-4 -19,0 -21,10 0,4 -2,5 -6,4 -8,0 -14,1 -20,7 -8,6 -18,6 -27,5 -9,0 -15,3 -19,11 -4,9 -10,14 -20,13 -2,-1 -5,-2 -5,2 0,3 -2,4 -4,4 -23,6 -112,46 -136,50 -9,2 -18,10 -29,10 -7,0 -15,0 -17,-8 -2,-8 2,-14 9,-18 6,-3 84,-28 88,-33 6,-8 12,-9 21,-7 15,4 29,5 43,-2 3,-1 9,-1 4,-7 -2,-2 -7,-3 -3,-6 3,-2 8,-6 11,-2 11,13 19,2 26,-4 11,-12 24,-17 40,-15 5,1 7,-4 11,-7 -7,-1 -12,-1 -17,-2 -3,0 -6,0 -6,-3 0,-3 2,-6 5,-6 10,-1 17,-7 24,-13 6,-6 16,-6 24,-6 4,0 6,0 8,-2 7,-8 15,-7 22,-3 5,4 9,3 12,-3 2,-5 7,-8 12,-8 15,-1 25,-12 40,-14 3,0 4,-5 3,-7 -1,-3 -4,-6 -8,-5 -13,2 -24,6 -34,14 -10,7 -22,9 -33,3 -4,-2 -8,-2 -9,2 -3,8 -10,7 -16,9 -7,3 -15,4 -20,11 -6,6 -16,3 -23,8 -13,8 -29,8 -42,14 -2,0 -3,1 -4,0 -5,-5 -18,-9 -27,-8 -1,-3 5,-3 3,-5 -1,-2 -3,-2 -6,0 -4,2 -10,4 -15,6 -3,2 -6,4 -10,6 14,4 20,7 33,14 -16,18 -92,45 -117,41 10,-7 52,-33 62,-39 1,-2 4,-1 3,-4 -2,-5 -3,0 -5,1 -9,0 -16,9 -25,9l0 1c-3,-3 -1,-7 -2,-11 -7,11 -18,7 -25,6 -10,-2 -14,4 -20,7l0 0c-6,2 -11,6 -15,8 -10,4 -17,10 -24,17 -3,4 -13,4 -20,7 3,-7 6,-12 11,-16 -22,6 -41,18 -62,27 -21,9 -19,-4 -40,5 -17,7 19,-5 0,0 9,-17 12,-22 32,-29 5,-2 -60,46 -55,42 1,-1 6,-3 4,4 0,1 2,1 3,0 1,-2 5,-2 3,-4 -5,-5 1,-5 3,-7 14,-15 33,-22 51,-30 4,-1 8,-2 8,-8 -1,-6 8,-2 9,-8 -5,-5 -23,-4 -32,3 -12,9 -26,14 -38,22 -17,11 36,-27 19,-17 -7,4 -15,8 -22,13 0,-4 10,-11 -2,-10 -3,0 -6,4 -9,3l-1 -2c14,-7 25,-20 38,-27 12,-5 -53,30 -38,29 2,0 -2,-7 3,-10 -4,-1 -4,1 -6,2 -1,1 -3,3 -5,1 6,-1 -5,-5 2,-8 6,-2 11,-8 15,-14 2,-2 4,-6 10,-4 3,2 6,-3 9,-5 3,-2 6,-6 12,-5 -7,5 -11,11 -10,20 10,-5 20,-11 29,-18 3,-2 6,-2 9,-4 2,-2 4,-2 4,3 0,3 3,1 6,0 7,-4 14,-8 21,-11 -8,4 -15,9 -23,14 1,1 1,2 2,3 70,-34 140,-67 213,-98 -18,-3 -31,7 -44,14 -7,3 -13,5 -20,1 -5,-2 -12,0 -18,0 -4,-1 -8,-1 -10,-6 -1,-6 4,-6 7,-9 11,-10 26,-8 39,-14 5,-3 12,-2 16,-8 2,-2 6,-4 10,-4 12,-2 24,-7 36,-11 11,-3 23,-3 34,-9 24,-13 50,-18 75,-27 32,-11 64,-18 97,-23 5,-1 8,-5 13,-5 -9,-1 -17,2 -26,3 -7,1 -13,2 -20,4 -2,0 -4,2 -5,-1 -1,-3 0,-6 4,-7 6,-1 13,-2 19,-4 24,-8 49,-12 74,-18 3,-1 7,-1 10,1 -11,7 -25,5 -38,11 33,1 60,-14 89,-16 30,-2 59,-1 88,-9 1,6 -6,4 -3,11 -1,-2 -1,-1 -1,-1 8,-1 17,3 24,-5l3 -1c13,7 25,-4 37,-2 19,3 38,-5 57,-1 5,2 12,2 16,-2 9,-7 19,-5 29,-4 13,1 25,2 37,0 3,-1 5,-1 8,-1 26,5 53,-1 79,2 26,3 52,0 78,3 9,0 16,7 23,10 3,-3 -1,-6 0,-9 4,0 7,2 6,7 0,2 0,4 2,5 3,0 4,-1 5,-4 3,-5 6,-2 9,0 7,4 12,7 16,-3 1,-2 3,-3 5,-2 6,1 12,1 17,3 25,6 50,13 75,21 13,4 27,7 41,7 10,1 13,10 19,16 -8,-5 -18,-4 -27,-4 -1,0 -2,0 -3,0 -6,-12 -13,-6 -22,-3 -7,3 -15,1 -23,-2 -7,-4 -15,-9 -24,-5 -3,1 -4,-2 -6,-3 -4,-1 -7,-6 -10,1 -1,1 -4,2 -6,1 -15,-9 -32,-2 -48,-8 -18,-6 -37,-2 -55,-8 -2,0 -3,-1 -4,1 -3,8 -10,4 -16,3 -6,-1 -13,-1 -20,-1 -5,0 -11,1 -16,-3 -2,-1 -5,-2 -6,-1 -16,7 -33,2 -49,4 -15,2 -30,-2 -45,-4 -3,0 -6,0 -8,1 -7,3 -13,3 -21,1 -10,-4 -21,3 -32,2 -3,0 -1,3 -2,5 -1,3 2,3 4,3 4,0 9,0 10,7 1,5 7,5 11,4 13,-4 27,-2 41,-4 21,-2 43,-4 64,-2 28,2 56,-1 84,3 31,5 63,4 94,11 11,3 23,1 34,4 9,3 17,6 26,6 5,1 9,-4 13,-2 20,5 42,5 59,19 1,2 5,3 3,6 -2,4 -4,0 -6,-1 -2,0 -4,-2 -6,-1 -16,6 -28,-6 -43,-8 -16,-2 -31,-9 -47,-7 -2,0 -2,0 -1,2l0 3c-2,1 -4,2 -6,2 -5,-2 -10,-3 -15,-6 -6,-3 -11,-4 -18,-2 -10,3 -22,0 -32,-1 -14,-1 -30,3 -42,-7 -11,5 -21,-5 -31,0 -9,4 -14,2 -17,-6 -3,-6 -6,-5 -10,-2 -7,4 -15,9 -24,8 -10,0 -19,-7 -28,3 -3,4 -9,-2 -15,-1 10,9 22,9 33,10 4,1 7,1 10,2 1,1 9,9 7,-3 0,-2 6,-1 10,0 12,4 23,5 35,1 10,-3 19,-1 29,-1 13,-1 26,-4 37,7 1,1 3,1 4,-1 5,-7 12,-5 17,-4 9,3 20,0 28,9 1,2 6,2 9,1 18,-2 35,7 52,5l2 1c6,14 17,13 27,10 6,-2 9,-1 13,2 5,4 10,7 17,7 4,0 34,8 40,10 -6,2 -37,-1 -40,-3 -12,-9 -26,-6 -39,-4 -8,1 -14,0 -21,-5 -7,-6 -18,-3 -26,-2 -4,1 -10,1 -15,5 11,2 21,6 31,5 5,-1 10,-3 13,2 1,4 -2,8 -5,11 -5,3 -8,-1 -11,-4 -2,-2 -5,-5 -8,-3 -2,1 -5,-5 -6,1 -1,4 2,8 5,7 7,-3 12,2 17,3 7,2 11,2 13,-5 2,-7 7,-8 13,-7 8,2 15,4 23,5 34,5 66,15 98,26 33,12 -8,-14 23,2 6,3 10,4 3,11 -6,7 -4,12 5,17 2,1 4,3 5,4 5,-2 -2,-8 4,-9 4,0 39,-1 42,2 4,4 -14,17 -7,20 4,2 -9,12 -8,20 0,1 -3,1 -4,-1 -10,-9 -24,-12 -35,-21 -11,-9 -22,-15 -36,-18 -3,0 -2,-6 -5,-6 -4,-1 66,34 64,39 0,2 -1,5 -2,4 -5,-6 -11,1 -17,0 -7,-2 -4,-6 -2,-9 6,-13 6,-16 -7,-23 -3,-2 -3,-4 -2,-6 4,-7 0,-8 -5,-9 -3,-1 -5,-2 -7,-3 -2,-1 -1,-6 -5,-4 -4,1 -4,5 -6,8 0,1 0,3 1,4 2,3 4,1 5,0 6,-5 12,0 12,4 -1,7 4,11 7,17 2,2 4,6 3,8 -3,4 -7,1 -10,0 -8,-1 -14,-9 -22,-11 -5,-1 -10,-5 -14,2 -3,4 -7,3 -10,0 -3,-3 -5,-1 -6,0 -4,1 -1,4 -1,6 2,6 9,10 12,9 13,-2 20,8 30,12 7,3 11,9 18,1 3,-3 11,-3 13,2 4,10 -63,-26 -55,-24 31,7 60,18 90,27 2,0 4,1 4,5 -12,-7 -25,-2 -37,-5 -45,-14 -16,8 -63,-1 -34,-6 -67,-11 -101,-15 -45,-6 -90,-7 -135,-9 -9,-1 -18,0 -27,0 10,13 25,6 38,8 9,2 19,0 29,1 6,1 12,3 18,3 6,0 -3,5 2,7 4,1 11,0 10,4 -1,6 -7,3 -11,2l-2 2c-2,5 -7,8 -13,6 -7,-2 -13,-3 -18,4 -2,3 -3,1 -5,1 -5,0 -9,2 -13,4 -3,-7 -10,-1 -14,-3 -2,-2 -5,-1 -6,0 -3,11 -12,7 -19,8 -15,2 -31,4 -46,5 10,1 20,6 29,0 2,-1 3,0 4,1 2,2 -1,3 -2,4 21,0 42,-3 62,2 1,0 2,-1 3,0 6,9 6,9 21,11 -5,-6 -12,-3 -17,-6 11,-4 22,-2 33,1 4,1 3,4 0,6 -4,2 -8,4 -14,4 -9,0 -18,10 -29,3 -1,-2 5,-2 3,-4 -2,-2 -7,-4 -9,-3 -13,7 -27,1 -40,3 -12,1 -23,2 -34,0 -6,-1 -4,4 -4,8 -9,-4 -9,-4 -12,3 -1,3 -4,3 -5,2 -11,-7 -21,-3 -32,0 -3,1 -6,0 -8,-2 1,-4 6,-2 8,-7 -7,-1 -13,3 -20,-1l-3 2c-4,9 -5,11 -12,12 -12,1 -24,3 -36,3 -13,1 -28,3 -42,6 -13,4 -26,3 -40,6 -15,4 -32,5 -47,9 -16,4 -33,7 -50,9 -5,1 -9,3 -13,4 -23,5 -46,9 -68,16 -15,4 -31,8 -46,13 -13,4 -26,8 -38,12 -19,6 -38,12 -58,18 -21,6 -42,14 -62,23 -38,16 -9,-15 -45,4l-52 4 -31 10c-53,22 9,-14 -43,13 -18,9 -38,15 -58,22 -5,2 -10,3 -13,7 -4,1 -8,1 -12,2z"/>
   <polygon class="fil9" points="819,1293 820,1292 819,1292 "/>
   <path class="fil10" d="M1991 894l-4 12c16,-31 26,-67 31,-102 5,-35 4,-70 4,-104 0,-4 1,-13 2,-17 -2,-34 -17,-73 -33,-102 -4,-7 -10,-12 -16,-15 -6,-3 -11,-4 -11,-4 -4,-2 -10,-3 -11,2 3,7 11,25 6,27 -1,1 -3,-3 -4,-6 -5,2 -20,-3 -21,-7 -4,-2 -22,-17 -26,-18 -3,-2 -5,-1 -6,2 -1,3 -2,7 -2,12 -1,10 -2,23 0,29 0,8 -6,3 -10,5 4,5 2,10 6,15 -1,1 5,19 8,29 0,0 3,2 6,11 0,3 2,3 3,3 -1,0 -1,0 -3,0 4,3 3,10 5,13 -1,0 -1,0 -2,0 4,6 3,13 6,19 -1,0 -1,0 -3,0 1,3 1,6 0,7l-2 0c-1,4 3,9 0,10 1,-1 1,-1 3,-1 2,13 1,22 1,31 -4,25 -2,55 -6,82 -1,3 1,6 5,4 -1,3 -2,6 -3,9 -1,6 3,4 2,10 -4,24 -15,48 -29,69 -14,22 -31,41 -48,61 10,-8 19,-14 26,-25 1,1 3,3 5,0 7,-7 13,-16 19,-24 5,-7 10,-14 15,-17 2,-2 7,-3 12,-12l-5 9c2,1 4,2 4,2 4,-6 8,-12 12,-19 2,-3 3,-7 5,-10 2,-3 4,-7 5,-10 0,0 3,1 4,2l2 -7c6,-2 5,6 2,17 -3,11 -9,24 -13,32 1,1 3,2 5,3l3 -7 2 1c-5,10 -9,19 -15,27 -5,9 -11,17 -17,26 2,-3 6,-9 8,-12 1,1 2,2 4,-1 -4,6 -9,12 -14,19 -5,6 -10,13 -14,20 -1,3 4,3 12,-5 8,-8 12,-14 19,-24l2 2c-5,6 -12,15 -16,21 -1,4 8,-3 6,1 -2,2 -4,5 -6,9 4,-4 8,-10 12,-15 4,-6 8,-11 12,-15 3,-3 6,-5 8,-4 5,-9 11,-15 16,-22 5,-6 11,-11 16,-15 4,-2 12,-21 16,-33z"/>
   <path class="fil10" d="M2096 795c-4,0 -8,0 -12,-1 17,4 36,1 52,-7 17,-7 31,-21 40,-37 9,-16 13,-35 12,-54 -1,-19 -7,-37 -16,-53 -2,-4 -7,-13 -10,-17 -14,-15 -35,-25 -58,-27 -22,-3 -45,4 -62,14 -8,6 -13,14 -14,21 -2,7 -1,11 -1,11 -1,5 1,12 5,10 3,-2 8,-6 13,-9 5,-3 9,-4 10,-1 1,1 -2,2 -4,4 1,3 2,7 2,11 0,5 0,8 -1,9 1,2 0,7 0,12 0,5 1,9 2,10 0,4 8,2 14,3 7,0 14,2 16,3 2,1 4,5 7,8 -1,-2 2,2 1,0l1 2 0 0 0 -1c0,0 0,-1 0,-2 0,1 0,1 0,2 1,-2 0,0 1,-1 -1,1 -1,1 -1,3 1,-3 0,0 0,-1l0 0 0 0 0 0 0 0 0 0c0,0 0,0 -1,0l1 0 0 0 0 0 0 0 0 0 0 0c0,1 1,2 0,2 1,3 -3,3 -4,1l0 -2c-1,-1 -1,-2 -1,-3 -2,0 -5,1 -3,3 -2,0 -4,1 -4,1 -1,2 0,4 1,5 1,2 2,3 1,6 0,2 -2,6 1,7 -1,0 -2,-1 -3,-2 0,2 -2,4 -2,4 3,4 9,7 15,8 0,0 0,3 0,4 1,0 2,0 3,0 3,4 -1,7 -7,8 -6,0 -14,-2 -19,-4 0,1 -2,3 -2,4 1,1 2,2 4,2l-1 3c-13,-6 -22,-16 -27,-29 1,2 3,7 4,9 -1,0 -2,1 -1,3 -6,-8 -8,-21 -10,-31 -2,-2 -6,0 -7,9 2,8 3,14 7,22l-2 1c-3,-5 -5,-14 -7,-20 -2,-3 -3,7 -5,4 0,-3 -1,-6 -2,-9 0,10 6,22 10,31 0,3 1,7 -1,9 12,13 21,23 30,34 1,2 7,5 14,6 7,2 15,2 21,2z"/>
   <path class="fil11" d="M374 1082l1 3 0 1 0 1 1 1c2,3 3,5 5,8 3,5 8,11 13,17 10,12 24,25 38,36 14,11 29,21 40,28 12,6 11,8 7,8 -1,0 -4,0 -6,0 -3,0 -5,0 -5,1 12,5 21,10 30,14 3,1 5,2 7,3 2,2 5,3 7,4 3,1 5,2 8,3 2,0 3,1 4,1 2,1 3,1 5,1 0,1 5,3 12,6 4,1 8,3 13,4 5,2 11,4 17,6 23,7 52,14 71,18 0,0 3,0 11,1 4,1 10,1 16,3 7,0 15,2 25,3 12,2 13,0 13,-1 0,1 0,1 -1,3 7,-1 17,1 26,2 10,1 19,2 26,2 0,1 0,1 0,3 6,0 12,0 19,0 3,0 6,0 9,1l8 0c3,0 5,1 7,1l0 0c2,-1 4,-1 5,-2l0 0 1 0 0 0c68,-17 143,-48 203,-101l-42 -1 -24 -1 -12 0c-4,0 -8,-1 -12,-1 -12,0 -25,0 -38,0 -6,0 -13,0 -19,0l-3 0 -2 0 -4 0c-3,0 -6,0 -9,0 -11,-1 -23,-1 -34,-2 -3,0 -6,0 -9,0l-2 0 -1 0 -3 -1c-3,0 -6,0 -9,-1 -7,0 -13,-1 -20,-1 -6,-1 -13,-2 -19,-2 -7,-1 -13,-2 -20,-3 -6,0 -13,-1 -19,-2 -52,-7 -102,-18 -145,-32 -22,-7 -41,-11 -56,-13 -7,-2 -13,-2 -17,-3 -4,0 -6,-1 -6,-1 -11,-3 -24,-4 -15,4 2,2 5,4 8,6 3,1 7,3 11,6 4,2 8,4 12,6 4,2 8,4 12,6 4,2 8,4 11,5 4,2 7,4 9,5 6,3 9,5 8,6 0,1 -3,0 -7,-1 -4,-1 -10,-4 -15,-6 -1,1 -4,2 -7,2 -4,0 -10,0 -15,-1 -6,0 -11,-1 -16,-3 -6,-1 -10,-3 -13,-4 -3,-1 -9,-3 -17,-7 -8,-3 -18,-7 -28,-13 -10,-5 -19,-10 -27,-15 -4,-3 -7,-5 -10,-7 -2,-2 -4,-4 -6,-5 -3,-3 -5,-4 -6,-4 -2,0 -1,2 0,5z"/>
   <path class="fil11" d="M374 1082l1 3 0 1 0 1 1 1c2,3 3,5 5,8 3,5 8,11 13,17 10,12 24,25 38,36 14,11 29,21 40,28 12,6 11,8 7,8 -1,0 -2,0 -4,0 -1,0 -2,0 -2,0 -3,0 -5,0 -5,1 12,5 21,10 30,14 3,1 5,2 7,3 2,2 5,3 7,4 3,1 5,2 8,3 2,0 3,1 4,1 2,1 3,1 5,1 0,1 5,3 12,6 4,1 8,3 13,4 5,2 11,4 17,6 23,7 52,14 71,18 0,0 3,0 11,1 4,1 10,1 16,3 7,0 15,2 25,3 12,2 13,0 13,-1 0,1 0,1 -1,3 7,-1 17,1 26,2 10,1 19,2 26,2 0,1 0,1 0,3 6,0 12,0 19,0 3,0 6,0 9,1l8 0c3,0 5,1 7,1l0 0c2,-1 4,-1 5,-2l0 0 1 0 0 0c68,-17 143,-48 203,-101l-42 -1 -24 -1 -12 0c-4,0 -8,-1 -12,-1 -12,0 -25,0 -38,0 -6,0 -13,0 -19,0l-3 0 -2 0 -4 0c-3,0 -6,0 -9,0 -11,-1 -23,-1 -34,-2 -3,0 -6,0 -9,0l-2 0 -1 0 -3 -1c-3,0 -6,0 -9,-1 -7,0 -13,-1 -20,-1 -6,-1 -13,-2 -19,-2 -7,-1 -13,-2 -20,-3 -6,0 -13,-1 -19,-2 -52,-7 -102,-18 -145,-32 -22,-7 -41,-11 -56,-13 -7,-2 -13,-2 -17,-3 -4,0 -6,-1 -6,-1 -11,-3 -24,-4 -15,4 2,2 5,4 8,6 3,1 7,3 11,6 4,2 8,4 12,6 4,2 8,4 12,6 4,2 8,4 11,5 4,2 7,4 9,5 6,3 9,5 8,6 0,1 -3,0 -7,-1 -4,-1 -10,-4 -15,-6 -1,1 -4,2 -7,2 -4,0 -10,0 -15,-1 -6,0 -11,-1 -16,-3 -6,-1 -10,-3 -13,-4 -3,-1 -9,-3 -17,-7 -8,-3 -18,-7 -28,-13 -10,-5 -19,-10 -27,-15 -4,-3 -7,-5 -10,-7 -2,-2 -4,-4 -6,-5 -3,-3 -5,-4 -6,-4 -2,0 -1,2 0,5l0 0z"/>
   <path class="fil12" d="M426 1433c-2,1 -3,1 -3,1 1,0 2,0 3,0l0 -1z"/>
   <path class="fil12" d="M1131 1196c2,-1 3,-3 4,-5 1,-1 2,-2 2,-3l1 -1 1 -1 0 -1c6,0 12,0 19,0 -4,1 -12,3 -17,3l-1 0 0 1 -1 1 -2 3 -4 6c-1,-2 -1,-3 -9,8 3,-4 5,-7 7,-11zm3 -21c5,-1 10,-1 16,-1 -5,2 -11,3 -15,3l0 0 -2 -2 1 0zm183 43c-23,3 -46,5 -71,9 0,-2 -1,-4 -13,-3 -15,1 -30,2 -45,3 -19,1 -20,1 -26,1 -2,2 -3,4 -4,6l-2 2 -1 1 0 0 0 0 -1 1c-1,1 -2,2 -3,4 -7,8 -14,17 -21,24 -4,4 -7,7 -11,10 -1,2 -3,4 -5,5 -1,1 -3,3 -5,4 -6,6 -12,11 -17,14 -3,2 -6,3 -9,5 -2,1 -3,2 -5,4 -2,1 -4,2 -6,3 -4,3 -9,6 -15,10 -2,1 -3,2 -5,3 -1,1 -3,2 -5,3 -3,2 -7,4 -11,7 5,-4 11,-7 16,-11 6,-4 11,-8 16,-11 -1,-1 -3,-3 -3,-3 -20,15 -46,30 -72,43 -26,12 -54,22 -79,29 0,0 -1,-3 -1,-4 -9,3 -17,5 -25,7 -7,-1 -3,-3 6,-7 3,-1 6,-2 9,-3 3,-1 7,-3 10,-4 2,-1 4,-1 6,-2 2,-1 4,-1 7,-2 4,-2 8,-4 13,-5 1,-1 2,-1 3,-2 1,0 3,-1 4,-1 2,-1 5,-2 7,-3 5,-2 10,-4 14,-7 5,-2 10,-4 15,-7 5,-2 10,-5 14,-7 5,-3 10,-5 14,-8 4,-3 9,-5 13,-8 4,-3 8,-5 11,-8 2,-1 4,-2 6,-3 1,-2 3,-3 4,-4 0,-1 -2,-3 -3,-4 -1,1 -3,2 -5,4l-5 3 -10 7 -2 -2 9 -6 5 -3c1,-1 4,-3 5,-4l16 -12 16 -14 3 -2 1 -1 4 -4 8 -7 4 -4c1,-1 2,-3 3,-4l8 -8c2,-2 5,-5 7,-7l7 -8 6 -9c1,-1 3,-2 4,-4l3 -4 6 -9 4 -4 1 -3 1 -1 0 0 1 -1c6,0 13,0 19,0l9 -8c2,0 5,0 7,0 12,-1 24,-1 35,-2 23,-2 46,-5 67,-9 6,-2 6,-3 -1,-4 -3,0 -8,0 -14,0 -6,0 -14,1 -23,1 -6,1 -13,2 -20,2 1,0 2,0 3,0 6,-1 0,-2 -6,-2 -6,-1 -13,-1 -7,-2 7,-1 13,-1 19,-2 6,-1 12,-2 18,-3 -17,2 -35,4 -54,5 -4,1 -9,1 -13,1l-2 0 -13 0c0,0 -1,1 -3,1 -12,1 -24,1 -35,1l-1 1 -1 1 -1 2c-1,1 -2,2 -3,3 -1,3 -3,5 -4,7 -3,3 -6,6 -8,9 -1,2 -3,3 -4,5l-2 2 0 1 -1 0c-3,3 -6,5 -7,4 -2,3 -4,6 -7,9 -1,1 -2,2 -3,4 -1,1 -2,2 -3,4 -5,5 -9,10 -14,15 -4,4 -9,8 -14,12 -1,1 -2,2 -3,3 -1,1 -2,2 -3,3 -3,2 -5,4 -7,6 -3,1 -5,3 -7,5 -2,1 -5,3 -7,4 -5,3 -9,6 -13,8 -9,5 -17,9 -26,12 -1,0 -3,1 -5,2 -3,2 -5,3 -9,5 -6,3 -14,8 -23,12 -8,4 -18,8 -27,11 -3,1 -6,2 -9,4 -1,1 -2,2 -4,3 0,0 -111,89 -172,113 -5,2 -10,4 -15,6l1 0c1,0 3,0 4,0l3 1c2,0 4,0 6,0 8,0 16,0 23,-1 14,0 28,-3 14,-5 7,-1 14,-1 20,-1 7,-1 14,-1 21,-2 13,-2 17,-3 20,-5 3,-1 6,-3 20,-5 32,-7 64,-16 95,-28 31,-12 61,-28 89,-46 28,-18 54,-39 77,-63l5 -5c1,-1 3,-4 5,-5l7 -8 9 -10c2,-3 5,-6 7,-9l8 -10 4 -5 1 -1c1,-2 3,-10 3,-10l4 7 4 0c5,0 10,-1 15,-1 5,0 11,-1 16,-1 20,-1 40,-3 61,-6 5,0 10,-1 15,-2 5,0 10,-1 15,-2l16 -2 15 -3c21,-4 42,-9 63,-16 -27,8 -50,11 -73,15z"/>
   <path class="fil13" d="M905 1333c12,-11 21,-20 29,-28 2,-2 4,-4 6,-6l5 -6 3 -4c1,-1 2,-2 3,-3l5 -6 3 -3 2 -3 5 -7c1,-2 2,-4 4,-6 1,-2 3,-4 4,-7l3 -6c2,-2 2,-4 4,-6 2,-4 3,-8 5,-13 4,-8 8,-16 12,-25 2,-5 3,-9 5,-14l1 -1 0 0 0 -1 0 -1 1 -2 1 -4c2,-7 1,-13 3,-19 0,0 -71,66 -203,101l0 0 -1 0 0 0 0 0 -10 1c2,0 4,1 5,1 2,0 3,0 4,0l1 0 0 0 0 0c2,0 3,0 2,2 -1,1 -1,1 -3,2l2 0c1,0 1,0 -1,1 2,-1 2,-1 4,-2l1 0c1,0 2,0 3,0 -1,1 -2,2 -3,3 -2,1 -4,2 -5,3 -3,0 -4,0 -4,0l-1 0 0 0 -1 0c-2,2 -4,3 -6,4 -4,2 -8,4 -11,6 -5,2 1,13 -3,15 -30,25 -58,38 -104,36l-16 12 0 3c-14,1 -40,4 -61,8 -31,5 -32,13 -34,12 -2,-1 -8,0 -8,0l-8 6c-58,12 -128,-22 -128,-22 8,13 27,17 27,17 -9,3 12,8 12,8 38,9 42,15 39,15 -4,-1 -4,6 -4,6l38 7 6 0c4,14 -29,9 -39,9 -10,0 -5,6 -5,6l6 5c0,0 -29,-3 -66,-11 -34,-8 -6,4 1,10 5,5 -4,7 -9,7 0,0 21,0 36,12 0,0 24,1 28,5 0,0 9,9 23,11l47 2 69 -8c0,0 48,-6 57,-4 9,3 22,2 31,-2 0,0 30,-9 60,-27 30,-18 109,-70 123,-85l5 -4z"/>
   <path class="fil14" d="M786 216l13 -2c-71,2 -72,0 -138,12 -4,0 -13,0 -17,0 -33,7 -71,24 -100,40 -8,4 -12,11 -15,17 -3,6 -4,11 -4,11 -3,4 -4,11 1,12 8,-2 26,-11 29,-6 0,1 -3,3 -7,5 2,5 -4,20 -7,22 -3,4 -20,22 -22,27 -7,9 32,11 48,9 8,-1 3,6 5,10 6,-5 11,-3 17,-7 1,1 6,-1 13,-3 6,-3 14,-6 19,-8 0,0 3,-3 14,-7 3,-1 3,-3 2,-4 1,1 1,1 1,3 3,-4 11,-5 14,-7 0,1 0,1 1,2 6,-5 14,-5 21,-9 0,2 0,2 1,3 3,-1 7,-3 7,-1l1 2c4,0 10,-5 11,-2l-1 -3c15,-4 26,-7 37,-9 30,-2 -6,7 27,-1 3,-1 6,-4 2,-6l11 -3c8,-1 3,-5 11,-6 14,-3 29,-7 44,-9 14,-1 29,-3 44,-4l45 -1c15,1 29,1 44,0 -15,-2 -26,-5 -40,-4 0,-1 0,-4 -4,-4 -11,-1 -24,0 -34,0 -6,0 -11,0 -15,0 -5,0 -9,-1 -12,-2 -3,-1 -8,-5 -19,-4l11 -1c0,-1 0,-4 0,-4 -8,0 -16,0 -25,0 -9,0 -17,1 -25,1 0,0 -1,-2 -1,-4l-7 1c-10,-8 33,-14 53,-16 -1,-1 -1,-4 -1,-6l-8 1 0 -3c12,-1 23,-2 33,-3 11,0 22,0 34,-1 -4,1 -12,1 -16,1 0,-2 0,-3 -4,-3 16,0 36,0 52,-2 4,-1 0,-5 -12,-7 -12,-1 -20,0 -32,1l0 -3c8,0 20,0 28,-1 4,-1 -8,-4 -4,-6 4,0 8,1 12,-1 -12,-1 -28,2 -41,1 -4,-1 -8,-3 -8,-5 -5,0 -10,0 -14,0 -5,0 -9,0 -14,-1 -8,-1 -15,-3 -22,-6 -2,-1 -8,-1 -15,0 -7,1 -16,3 -22,4z"/>
   <path class="fil14" d="M589 65c4,0 8,-1 12,-1 -18,-2 -36,3 -52,12 -8,5 -16,11 -22,18 -6,8 -12,16 -16,24 -3,9 -6,18 -7,28 -2,9 -2,19 0,29 3,19 10,37 22,52 2,5 8,13 12,17 15,14 38,23 61,23 12,0 24,-2 34,-6 11,-4 21,-9 29,-16 8,-6 11,-15 12,-22 1,-7 0,-12 0,-12 0,-5 -2,-11 -7,-10 -2,3 -7,8 -11,11 -5,3 -10,5 -11,2 -1,-1 2,-3 4,-5 -2,-2 -3,-7 -3,-11 -1,-5 -2,-8 -1,-9 0,-2 0,-7 -1,-12 0,-5 -2,-9 -3,-11 -1,-4 -8,-1 -15,-1 -7,1 -14,-1 -16,-2 -3,-1 -5,-5 -8,-8 0,2 -2,-2 -1,-1l-1 1 0 0c0,0 1,-1 0,1l0 -1c0,0 1,-2 0,-1l1 0 0 0 -1 1 0 0 0 0 1 -1 -1 0c0,0 0,0 1,1l0 -1 -1 0 1 0 0 1 0 0 -1 -1c0,-1 0,-2 1,-3l2 1 0 2c0,0 1,0 2,2 1,-1 4,-2 2,-3 2,0 5,-1 4,-2 1,-1 -1,-3 -1,-4 -1,-2 -2,-3 -1,-6 0,-1 1,-6 -2,-7 1,1 2,1 3,2l2 -4c-4,-4 -10,-6 -15,-7 0,0 -1,-3 -1,-4 -1,0 -2,0 -3,0 -3,-4 0,-7 7,-9 6,-1 14,1 18,3 1,-2 2,-4 3,-6 -2,0 -3,-1 -4,-1l0 -3c14,5 24,14 30,27 -1,-3 -3,-7 -5,-9 1,0 3,-1 1,-3 7,8 10,20 14,30 1,2 6,-1 5,-10 -2,-8 -4,-14 -9,-21l2 -2c4,6 6,14 9,20 2,3 2,-7 5,-5 1,3 2,6 3,10 -1,-11 -8,-22 -13,-31 -1,-4 -2,-7 0,-9 -13,-13 -24,-22 -34,-33 -1,-1 -7,-4 -14,-4 -8,-1 -16,-1 -22,0z"/>
   <path class="fil15" d="M1294 212l12 2c-67,-21 -67,-23 -133,-34 -4,-1 -12,-4 -17,-5 -33,-5 -74,-1 -107,5 -9,1 -16,6 -20,11 -5,4 -8,8 -8,8 -3,4 -7,10 -2,12 8,0 28,-2 29,4 0,1 -4,2 -8,2 0,6 -10,18 -14,19 -4,3 -26,14 -29,18 -11,6 26,21 42,24 7,2 0,7 1,11 7,-2 11,2 19,0 0,0 5,1 12,0 7,1 16,0 22,0 0,0 3,-2 15,-2 3,0 3,-2 3,-3 0,1 0,1 0,3 4,-3 12,-1 15,-2 0,1 0,1 0,2 8,-3 16,0 23,-1 0,1 0,1 0,3 4,0 8,0 8,1l0 3c3,1 11,-2 11,1l0 -3c15,1 26,2 37,4 30,7 -7,5 26,7 4,1 8,-1 5,-5l11 2c7,1 4,-4 12,-2 14,1 30,3 44,6 15,3 29,6 44,11l42 14c14,5 28,10 42,14 -13,-6 -23,-13 -37,-17 0,-1 1,-4 -2,-5 -11,-5 -23,-8 -33,-11 -5,-2 -10,-4 -14,-6 -4,-1 -7,-3 -10,-5 -3,-2 -6,-7 -17,-10l11 3c1,-2 1,-4 1,-4 -7,-3 -15,-6 -23,-9 -9,-2 -17,-4 -24,-7 0,0 0,-2 0,-4l-7 -1c-6,-11 36,-2 55,2 1,-1 1,-4 2,-6l-8 -1 1 -3c11,3 22,5 32,8 11,3 21,7 32,10 -4,-1 -11,-3 -15,-4 1,-2 1,-3 -3,-4 15,4 34,11 50,15 4,0 2,-5 -9,-11 -11,-4 -19,-6 -31,-10l1 -3c8,3 19,8 27,9 4,0 -6,-7 -2,-7 4,2 8,3 12,3 -11,-5 -27,-7 -39,-13 -3,-2 -7,-5 -6,-7 -5,-2 -9,-3 -14,-5 -4,-1 -8,-3 -12,-5 -7,-3 -14,-8 -19,-13 -1,-2 -7,-3 -14,-5 -7,-1 -16,-3 -22,-4z"/>
   <path class="fil15" d="M1158 5c4,1 8,2 12,3 -16,-8 -35,-10 -54,-6 -9,2 -18,5 -26,10 -9,4 -16,10 -23,17 -6,7 -12,15 -16,24 -5,8 -8,17 -10,27 -3,19 -2,38 4,57 1,5 3,15 5,20 10,18 29,34 51,41 11,4 23,6 34,6 11,0 22,-2 32,-5 9,-3 16,-11 19,-17 4,-6 4,-12 4,-12 2,-4 2,-11 -3,-11 -4,2 -9,5 -15,6 -5,2 -10,2 -11,-1 0,-1 3,-2 6,-4 -1,-2 0,-7 1,-11 0,-5 1,-8 2,-9 0,-2 2,-7 3,-12 1,-4 1,-9 1,-11 0,-4 -8,-4 -14,-6 -7,-2 -13,-6 -15,-7 -2,-2 -3,-6 -5,-10 0,1 -1,-3 -1,-1 0,-1 0,0 0,0l0 0c0,0 1,-1 0,1l0 -1 0 0 1 -1 -1 0 0 1 0 0 0 0 1 0 -1 0c0,0 0,0 1,0l-1 0 0 -1 0 1 0 0 0 0 0 0c0,-2 1,-3 2,-3l1 1 0 2c0,1 0,1 1,2 1,0 5,0 3,-1 2,0 5,0 5,0 0,-2 0,-4 -1,-5 0,-2 0,-3 2,-6 0,-1 3,-5 0,-7l3 2 3 -3c-2,-4 -7,-9 -13,-11 0,0 1,-3 1,-4 -1,-1 -2,-1 -3,-1 -1,-5 3,-7 9,-6 7,1 13,5 17,8 1,-1 3,-3 4,-4 -1,-1 -2,-2 -3,-3l2 -2c11,9 17,20 19,35 0,-3 -1,-7 -2,-10 1,0 3,-1 2,-3 4,10 3,22 3,33 0,3 6,2 8,-7 1,-9 1,-15 -1,-23l2 -1c2,6 1,15 2,21 1,4 5,-6 6,-3 0,4 0,7 0,10 2,-10 0,-23 -2,-33 1,-4 0,-7 3,-8 -8,-17 -15,-29 -21,-42 -1,-2 -6,-6 -12,-10 -7,-3 -15,-5 -21,-6z"/>
   <path class="fil16" d="M1790 380l11 7c-55,-45 -55,-47 -112,-81 -3,-3 -10,-8 -13,-11 -30,-16 -70,-28 -102,-35 -9,-2 -17,0 -23,3 -6,2 -10,5 -10,5 -5,2 -10,6 -7,10 8,4 27,9 26,14 -1,2 -4,1 -8,0 -2,5 -16,13 -20,12 -5,1 -30,4 -34,6 -12,2 17,29 30,38 7,4 -2,7 -3,11 8,0 10,5 18,6 0,1 5,3 11,5 7,3 15,6 20,8 0,0 4,-1 15,3 4,1 4,0 5,-1 -1,1 -1,1 -1,2 4,-1 10,4 14,4 0,1 0,1 -1,3 8,0 14,5 22,6 0,2 0,2 -1,3 4,1 7,3 7,4l-1 3c2,2 11,2 9,5l1 -2c14,5 24,11 34,17 25,17 -9,1 21,16 4,2 8,1 6,-3l10 6c7,3 6,-2 12,2 13,6 27,13 39,22 13,8 25,17 37,26l34 28c11,10 22,20 33,29 -9,-11 -16,-20 -28,-29 1,-1 3,-4 0,-6 -8,-8 -18,-15 -26,-22 -4,-4 -8,-7 -11,-10 -3,-3 -6,-6 -7,-9 -2,-3 -3,-9 -12,-16l9 7c1,-1 3,-3 3,-3 -6,-5 -13,-11 -20,-17 -6,-5 -13,-10 -19,-15 0,0 1,-2 2,-4l-7 -4c-1,-12 35,12 51,23 1,-2 3,-4 3,-5l-6 -5 2 -2c9,7 18,13 27,20 8,7 17,14 26,21 -3,-2 -9,-7 -12,-10 1,-1 1,-2 -2,-5 13,10 27,24 41,33 4,1 3,-4 -5,-14 -8,-8 -15,-12 -24,-20l2 -2c6,5 14,13 21,18 4,1 -3,-9 1,-7 3,2 6,5 10,7 -9,-9 -23,-17 -31,-26 -2,-4 -5,-8 -3,-10 -4,-3 -8,-6 -11,-9 -4,-3 -7,-6 -10,-9 -6,-6 -10,-13 -13,-19 -1,-2 -5,-6 -11,-11 -7,-3 -14,-8 -19,-11z"/>
   <path class="fil16" d="M1739 137c4,2 7,5 10,8 -12,-13 -29,-23 -47,-26 -10,-1 -19,-2 -29,0 -9,1 -18,4 -27,8 -9,4 -17,9 -24,16 -7,6 -13,13 -19,21 -10,17 -16,35 -17,55 -1,5 -3,15 -3,20 3,21 15,42 32,58 9,7 19,13 30,17 11,4 21,7 31,7 11,1 19,-4 25,-9 5,-4 7,-9 7,-9 4,-3 6,-10 2,-12 -4,1 -11,1 -16,1 -6,-1 -10,-3 -10,-5 0,-2 4,-1 7,-2 0,-2 2,-7 4,-10 3,-4 5,-7 6,-8 1,-1 5,-5 7,-9 3,-4 4,-9 5,-10 2,-4 -6,-7 -11,-11 -6,-4 -10,-10 -11,-12 -1,-3 0,-7 -1,-11 0,1 0,-3 0,-2 0,-1 0,0 0,0l-1 1c0,0 1,-1 0,0l1 -1 0 0 0 0 0 0 -1 0 0 0 1 0 0 0 -1 0 1 1 0 -1 0 0 0 0 0 1 0 0 0 -1c0,-2 1,-2 2,-2l1 2 -1 2c0,0 0,0 0,2 1,1 4,2 4,0 1,0 4,2 4,1 1,-1 1,-3 2,-4 0,-2 0,-3 3,-5 1,-1 5,-4 3,-6l1 2 4 -1c0,-5 -3,-11 -7,-15 0,0 2,-3 2,-4l-2 -2c0,-5 5,-5 10,-2 6,3 11,10 13,14 2,-1 4,-2 5,-2 0,-2 -1,-3 -2,-4l3 -2c7,13 8,26 5,40 1,-3 2,-7 2,-10 1,0 2,0 3,-2 -1,10 -6,22 -10,31 0,3 5,4 11,-3 4,-8 5,-13 7,-22l2 0c0,6 -4,15 -6,21 0,3 7,-4 7,-1 -2,3 -3,6 -3,10 5,-9 8,-22 10,-32 1,-4 3,-7 5,-7 -1,-18 -3,-32 -4,-47 0,-2 -3,-8 -8,-13 -5,-5 -12,-10 -17,-14z"/>
   <path class="fil17" d="M1545 1174l-12 3c69,-14 71,-12 133,-35 4,-1 13,-2 17,-3 32,-12 66,-36 92,-57 7,-5 10,-13 12,-19 2,-7 2,-11 2,-11 2,-5 2,-12 -3,-12 -8,4 -24,16 -27,11 -1,-1 2,-4 5,-6 -3,-5 1,-21 4,-23 1,-5 15,-26 16,-30 6,-10 -33,-6 -48,-1 -8,2 -4,-6 -7,-9 -5,6 -10,4 -16,10 0,-1 -5,2 -11,5 -7,4 -14,8 -19,11 0,0 -2,3 -12,9 -3,2 -2,3 -1,5 -1,-2 -1,-2 -2,-3 -2,5 -10,6 -12,9 -1,-1 -1,-1 -1,-2 -5,6 -14,7 -19,12 -1,-1 -1,-1 -2,-2 -3,2 -6,4 -7,2l-1 -2c-4,1 -9,7 -11,4l2 3c-14,7 -24,11 -35,15 -29,8 4,-8 -26,6 -4,1 -6,5 -2,7l-10 3c-7,3 -2,6 -9,8 -14,6 -28,12 -42,17 -14,4 -29,8 -43,11l-44 9c-15,2 -29,4 -44,7 15,0 26,1 41,-2 0,1 1,4 4,3 12,-1 23,-4 34,-6 5,-1 10,-2 15,-2 4,-1 8,-1 11,0 4,0 9,3 20,0l-11 3c0,1 1,4 1,4 8,-1 16,-3 25,-4 8,-2 17,-4 24,-6 0,0 1,3 1,4l8 -2c10,6 -31,19 -50,25 1,1 1,4 2,5l7 -2 1 3c-11,3 -22,6 -32,9 -11,2 -22,4 -33,6 4,0 11,-2 15,-3 1,1 1,3 5,2 -16,3 -35,6 -51,11 -4,2 1,5 13,5 12,-2 20,-4 32,-6l0 3c-8,1 -20,3 -27,5 -4,2 8,3 4,5 -3,1 -8,1 -11,3 12,-1 27,-6 40,-7 4,0 8,1 9,4 5,-2 9,-3 14,-4 5,0 9,-1 13,-1 8,-1 16,0 23,2 2,1 8,0 15,-2 7,-3 15,-5 21,-7z"/>
   <path class="fil17" d="M1765 1288c-4,1 -8,2 -12,3 18,-1 36,-9 50,-21 7,-6 13,-13 18,-21 5,-9 9,-17 11,-27 3,-9 4,-19 3,-28 0,-10 -2,-19 -5,-28 -6,-19 -17,-35 -31,-48 -3,-4 -10,-12 -14,-15 -18,-11 -42,-16 -65,-12 -11,2 -23,6 -32,12 -10,5 -19,12 -25,20 -7,7 -9,17 -9,24 0,7 2,12 2,12 1,5 4,11 8,9 3,-4 6,-9 10,-13 4,-4 8,-6 10,-4 1,1 -1,3 -3,6 2,2 4,6 5,10 2,4 3,8 3,9 0,2 1,7 2,12 2,4 4,8 5,9 2,4 9,0 16,-1 6,-2 13,-1 16,-1 2,1 5,4 9,6 -1,-1 2,2 1,1l0 0 0 0c0,0 0,1 0,-1l0 1c0,0 0,1 0,0l0 1 0 -1 1 0 0 0 -1 0 0 0 1 0c0,0 0,0 -1,0l0 0 1 0 -1 0 0 0 0 0 0 0c1,2 1,3 0,3l-1 0 -1 -2c-1,0 -1,0 -2,-1 -1,0 -4,2 -2,3 -2,0 -4,1 -4,2 0,2 2,3 3,4 1,1 2,2 1,5 1,2 0,6 3,7 -1,0 -2,0 -3,-1l-1 4c4,3 11,5 16,4 0,0 1,3 1,4 1,0 2,0 3,-1 4,4 1,8 -5,10 -5,3 -14,2 -19,1 0,2 -1,4 -1,6 1,0 3,0 4,1l0 2c-14,-2 -25,-9 -34,-20 1,2 5,5 6,7 0,1 -1,2 0,4 -8,-7 -13,-18 -18,-28 -2,-2 -6,2 -4,10 3,8 7,13 13,20l-2 2c-5,-5 -9,-13 -12,-18 -3,-2 -1,8 -4,6 -2,-3 -3,-6 -5,-9 3,10 11,20 18,28 1,3 3,7 2,9 15,10 27,18 38,26 2,2 8,3 16,2 7,0 15,-2 21,-4z"/>
   <path class="fil18" d="M112 878l-6 -10c28,65 26,66 61,123 1,4 5,12 6,16 19,28 48,58 74,79 7,5 15,7 22,8 6,0 11,0 11,0 5,0 12,-1 11,-6 -5,-6 -20,-20 -16,-24 1,-1 4,1 6,4 4,-4 21,-4 24,-1 4,0 28,10 33,10 11,4 -2,-34 -9,-48 -4,-7 4,-5 7,-8 -6,-4 -6,-9 -12,-14 0,0 -3,-5 -8,-10 -5,-5 -10,-12 -14,-16 0,0 -4,-1 -12,-10 -2,-2 -3,-1 -4,-1 1,0 1,0 2,-1 -5,-1 -8,-9 -11,-11 1,-1 1,-1 2,-1 -8,-4 -10,-12 -16,-16 1,-1 1,-1 2,-2 -3,-3 -5,-6 -4,-7l2 -2c-1,-3 -9,-7 -6,-9l-2 2c-10,-12 -16,-22 -22,-31 -14,-27 9,2 -11,-25 -2,-3 -7,-5 -7,0l-6 -9c-4,-7 -6,-1 -9,-8 -9,-12 -18,-24 -25,-37 -7,-14 -14,-27 -20,-41l-17 -41c-5,-14 -10,-27 -16,-41 4,14 5,26 11,39 -1,1 -4,2 -3,5 4,11 9,22 13,32 2,5 4,10 5,14 2,4 2,8 2,11 1,4 -1,9 4,20l-5 -11c-1,1 -4,2 -4,2 3,8 6,16 9,24 4,8 8,15 11,23 0,0 -3,1 -4,2l4 6c-5,12 -25,-26 -35,-43 -1,1 -3,2 -5,2l4 7 -3 2c-5,-11 -10,-21 -14,-30 -5,-10 -9,-20 -14,-31 2,3 5,11 7,14 -2,1 -3,1 -1,5 -7,-15 -14,-33 -21,-48 -3,-3 -5,2 -3,14 4,12 8,19 13,30l-3 1c-3,-7 -7,-19 -11,-26 -3,-3 -1,9 -4,6 -1,-4 -2,-8 -5,-11 4,12 12,26 15,38 0,4 1,8 -2,9 3,5 4,9 6,14 2,4 3,8 4,12 2,8 3,16 3,23 -1,2 2,8 5,15 4,6 8,13 11,18z"/>
   <path class="fil18" d="M43 1117c-2,-4 -3,-8 -5,-11 5,17 16,33 30,44 8,6 16,11 25,14 9,3 19,5 28,6 10,0 19,-1 29,-3 9,-2 18,-6 26,-11 17,-9 31,-23 41,-40 4,-3 10,-12 12,-16 7,-20 7,-44 -2,-66 -4,-11 -10,-21 -17,-30 -8,-8 -16,-15 -25,-20 -9,-6 -19,-6 -26,-4 -6,2 -11,5 -11,5 -5,1 -9,6 -6,9 3,2 9,4 14,7 5,4 8,7 6,10 -1,1 -3,-1 -7,-3 -1,3 -5,5 -9,8 -3,2 -7,4 -8,4 -1,1 -6,2 -11,5 -4,2 -7,5 -8,7 -4,2 2,8 4,14 3,7 4,13 4,16 0,3 -3,6 -4,10 1,-1 -1,3 -1,1l1 1 0 -1c0,0 -1,1 1,0l-1 0c0,0 -2,1 -1,1l0 0 0 0 1 0 0 0 0 0 -1 -1 1 1c0,0 -1,0 -1,-1l0 0 0 1 0 0 1 -1 0 0 -1 1c-1,1 -2,1 -3,0l0 -2 2 -1c0,0 0,0 1,-2 -1,-1 -3,-3 -4,-1 0,-1 -2,-4 -2,-3 -2,0 -3,2 -4,3 -1,1 -2,2 -5,3 -1,0 -6,0 -6,3 0,-1 0,-2 0,-3l-4 0c-2,5 -2,11 -1,17 0,0 -2,1 -3,2l1 3c-3,4 -7,2 -10,-3 -4,-6 -5,-14 -5,-19 -2,0 -4,0 -6,0 0,1 0,3 0,5l-3 0c0,-15 5,-27 14,-38 -2,2 -5,6 -6,8 -1,-1 -2,-2 -3,1 5,-10 15,-17 23,-24 1,-2 -3,-6 -11,-2 -7,5 -11,9 -17,16l-2 -1c4,-5 11,-11 15,-15 2,-4 -8,0 -6,-3 3,-2 5,-4 7,-7 -9,5 -17,16 -24,24 -3,2 -5,4 -8,3 -7,17 -12,30 -18,43 -1,2 -1,9 1,16 2,7 5,14 8,20z"/>
   <path class="fil19" d="M288 388l10 -7c-61,36 -63,35 -115,76 -3,2 -11,7 -15,9 -25,22 -51,55 -68,83 -5,7 -6,16 -5,22 0,7 1,12 1,12 0,5 2,11 7,10 6,-6 18,-23 22,-19 2,0 -1,4 -3,7 4,3 6,20 4,23 0,5 -6,29 -6,34 -2,11 34,-6 46,-15 7,-5 6,4 9,6 3,-7 9,-7 13,-14 0,0 4,-4 9,-9 4,-5 10,-12 13,-16 0,0 2,-4 9,-13 2,-3 1,-4 0,-5 1,1 1,1 2,2 1,-5 7,-9 9,-12 1,1 1,1 2,1 3,-7 10,-11 14,-17 1,0 1,0 2,1 2,-2 5,-5 6,-4l2 2c4,-2 6,-10 9,-8l-2 -2c10,-11 18,-18 27,-25 25,-17 -1,9 23,-15 3,-2 4,-6 -1,-6l9 -7c6,-5 0,-6 6,-11 11,-10 22,-20 34,-29 13,-8 25,-17 38,-25l38 -22c13,-7 26,-14 39,-21 -14,5 -25,8 -38,16 0,-2 -2,-4 -5,-2 -10,4 -20,11 -30,16 -4,3 -9,5 -13,7 -4,2 -8,4 -11,4 -4,1 -9,0 -19,6l10 -6c-1,-2 -2,-4 -2,-4 -7,4 -15,8 -22,12 -8,5 -15,9 -22,13 0,0 -1,-2 -2,-3l-6 5c-13,-3 22,-28 38,-40 -1,-1 -2,-3 -3,-5l-6 5 -2 -3c10,-6 19,-12 28,-18 9,-6 19,-11 29,-17 -4,2 -10,6 -14,8 0,-1 -1,-3 -5,-1 14,-8 32,-17 45,-26 3,-3 -3,-5 -14,-1 -11,5 -18,10 -28,16l-1 -2c7,-4 17,-10 24,-15 3,-3 -9,0 -6,-3 3,-2 7,-3 10,-6 -11,5 -24,15 -36,20 -4,1 -8,1 -9,-1 -5,3 -9,5 -13,7 -4,3 -8,5 -12,6 -7,3 -15,5 -22,6 -3,0 -8,3 -14,7 -6,4 -12,9 -17,13z"/>
   <path class="fil19" d="M42 351c4,-2 7,-5 11,-6 -16,6 -31,19 -40,35 -5,8 -9,17 -11,27 -2,9 -2,19 -2,28 1,10 3,19 7,28 3,9 8,17 14,25 11,15 27,28 45,35 4,3 13,8 18,10 20,4 44,1 65,-10 10,-6 19,-13 27,-22 7,-8 13,-17 17,-27 4,-9 3,-19 0,-26 -2,-6 -6,-10 -6,-10 -2,-5 -7,-9 -10,-5 -1,3 -3,10 -5,15 -3,5 -6,8 -9,7 -1,-1 1,-4 2,-7 -3,-1 -6,-5 -9,-8 -3,-3 -5,-6 -5,-8 -1,-1 -3,-6 -6,-10 -3,-4 -7,-7 -8,-7 -3,-3 -8,3 -14,6 -6,4 -13,5 -15,6 -3,0 -7,-2 -11,-3 1,1 -3,-1 -1,0l0 0 0 0c0,0 -1,-1 0,1l0 -1c0,0 -1,-1 0,0l-1 -1 1 1 0 0 0 0 0 0 0 0 -1 0c0,0 0,0 1,0l0 0 -1 0 1 0 0 0 0 0 0 0c-2,-2 -2,-3 -1,-3l1 0 2 1c0,0 1,0 2,1 1,-1 3,-4 1,-4 1,-1 3,-3 3,-3 -1,-2 -3,-3 -4,-3 -1,-1 -3,-2 -3,-5 -1,-1 -2,-6 -5,-5 1,0 2,0 3,0l0 -5c-5,-1 -12,0 -17,2 0,0 -2,-2 -2,-4l-3 2c-4,-2 -3,-7 2,-11 4,-4 12,-6 17,-7 0,-1 0,-4 0,-5 -2,0 -3,0 -5,0l0 -2c14,-3 27,0 39,8 -2,-1 -6,-4 -9,-4 1,-2 2,-3 -1,-4 10,4 19,13 27,20 2,1 5,-3 0,-11 -6,-7 -11,-10 -18,-14l1 -3c6,3 12,9 17,13 3,1 -1,-8 2,-6 2,2 5,4 8,6 -7,-8 -18,-15 -27,-21 -2,-2 -5,-5 -4,-7 -18,-5 -32,-8 -45,-13 -3,-1 -9,0 -16,3 -6,3 -14,7 -19,11z"/>
   <path class="fil20" d="M1324 453c0,-2 0,-6 -2,-8 -2,-1 -5,0 -6,3 0,2 0,6 4,7 1,1 3,0 4,-2zm-646 -36c7,0 15,0 22,-5 -8,1 -15,1 -22,5zm543 194c-4,-2 -9,-4 -15,-3 4,6 10,5 15,3zm-761 -85c-3,0 -5,0 -7,-1 -1,0 -5,-1 -4,0 1,3 -1,5 -1,7 2,0 4,0 6,-1 2,-1 6,0 6,-5zm602 -137c6,0 13,0 21,0 -8,-8 -15,-3 -21,0zm-221 111c3,1 5,7 8,4 4,-4 0,-8 1,-13 -6,1 -5,8 -9,9zm19 2c7,-2 13,-3 19,-4 1,0 3,0 3,-2 0,-2 -2,-3 -4,-3 -6,0 -12,3 -18,9zm-37 -6c-4,7 -11,9 -9,14 0,2 6,1 9,-1 5,-4 -1,-7 0,-13zm98 -146c9,4 20,3 25,-2 -8,-2 -16,0 -25,2zm-149 50c-10,-2 -19,1 -29,5 10,-1 20,0 29,-5zm609 68c-2,9 -1,11 0,9 6,-5 10,-1 15,2 2,1 5,2 5,-1 1,-2 -1,-4 -3,-4 -6,-2 -11,-4 -17,-6zm-843 23c-1,-4 -5,-4 -5,-3 -7,6 -15,7 -23,9 -2,1 -1,2 -1,3 0,2 1,2 2,2 9,-4 18,-7 27,-11zm786 -25c-15,-6 -33,-1 -43,-16 -1,-1 -4,-2 -5,-1 -2,0 -3,4 -2,4 8,0 11,10 17,11 11,1 22,5 33,2zm-486 -24c-13,1 -26,-2 -38,7 5,3 8,2 11,0 3,-3 8,-2 9,-1 9,7 14,3 18,-6zm-232 16c-21,5 -41,12 -60,21 -3,1 -5,3 -4,5 2,2 4,0 6,-1 5,-2 9,-7 15,-8 16,-2 28,-12 43,-17zm540 -46c13,10 26,7 43,5 -15,-9 -29,-6 -43,-5zm11 47c10,6 21,2 32,3 -4,-5 -19,-5 -4,-14 1,-1 1,-5 -1,-7 -2,-1 -6,-3 -10,-3 -1,0 -1,3 -1,5 3,11 3,11 -9,13 -2,0 -5,0 -7,3zm214 -2l0 1c10,4 21,8 31,11 3,1 5,0 6,4 2,4 6,5 10,4 5,-2 10,-3 15,-4 -2,-2 -4,-3 -6,-4 -10,-3 -22,-3 -29,-14 -2,-2 -3,-2 -4,0 -6,6 -11,8 -18,2 -1,0 -3,0 -5,0zm-580 -6c-5,-2 -11,-4 -17,1 -3,2 -7,3 -10,1 -7,-2 -14,1 -19,4 -5,3 -12,4 -16,11 23,-1 45,-2 62,-17zm774 96c-8,-15 -34,-28 -52,-25 -3,1 -6,2 -7,-2 -3,-7 -10,-7 -16,-12 5,18 19,20 33,24 1,-1 -3,-5 1,-6 2,-1 5,2 5,3 -2,6 4,6 6,6 11,-2 17,5 24,11 1,1 3,2 6,1zm-916 -53c4,-5 8,-7 13,-7 17,-1 34,-7 51,-12 1,0 3,-1 5,-1 3,-1 4,-4 3,-7 0,-4 -3,-2 -5,-3 -6,0 -12,4 -17,5 -12,2 -25,4 -38,1 -3,0 -5,0 -6,1 -8,11 -23,1 -31,11l-2 0c-5,-3 -8,0 -12,1 -13,3 -23,12 -36,12 -10,0 -18,4 -24,13 5,-5 10,-2 15,-3 5,0 10,-1 15,-1 8,-1 16,0 23,-4 1,-1 4,-1 3,-4 -3,-6 2,-4 5,-3 5,0 5,0 5,-1 -5,-8 3,-3 5,-4 7,-3 14,1 22,-2 7,-4 7,0 6,8zm-216 295c4,-8 8,-14 17,-14 6,0 7,-3 6,-8 -2,-11 9,-29 21,-32 19,-4 37,-11 54,-20 9,-5 11,-13 14,-21 3,-8 18,-16 25,-12 8,3 16,3 24,6 3,0 6,-2 7,-5 0,-3 -4,-3 -6,-3 -6,0 -14,1 -14,-6 0,-7 9,-5 14,-6 12,-1 26,0 37,-8 2,-1 6,-1 4,-6 -3,-3 -6,-3 -8,-1 -7,6 -15,6 -22,6 -6,1 -5,-2 -3,-5 8,-13 21,-18 35,-19 6,-1 12,-1 16,-6l3 -2c4,-3 8,0 10,3 2,3 -2,5 -5,7 -5,3 -12,4 -14,12 4,2 9,2 14,2 7,0 13,-1 16,7 1,3 5,4 7,3 10,-4 21,-6 27,-16 3,-4 6,-6 11,-6 8,-1 14,-8 23,-6 2,1 5,1 7,2 5,2 8,2 12,-3 2,-4 5,-6 10,-7 5,0 10,-3 9,-8 -1,-5 -6,-7 -12,-6 -4,2 -9,3 -13,7 -5,5 -12,5 -19,6 -20,1 -40,2 -62,4 6,-8 14,-10 21,-11 7,-1 11,-2 9,-11 -1,-10 4,-16 14,-17 5,-1 4,-4 5,-7 0,-4 -4,-2 -6,-3 -4,-1 -8,1 -11,4 -3,3 -7,3 -10,2 -1,-1 -3,-4 -2,-6 0,-4 4,-5 7,-6 10,-3 22,-3 34,-11 -15,0 -28,1 -40,5 -10,3 -21,5 -31,8 -27,11 -55,18 -83,26 -4,1 -9,6 -11,1 -1,-4 6,-5 9,-6 20,-9 41,-17 62,-21 5,-1 7,-5 11,-6 31,-8 61,-21 92,-27 6,-1 12,-7 17,-11 -4,-3 -12,4 -12,-4 0,-7 9,-1 13,-5 -9,-5 -16,-3 -19,6 -1,4 -3,4 -6,4 -7,-1 -13,0 -19,4 -7,5 -16,4 -24,3 -8,-1 -13,1 -17,8 -5,7 -11,11 -19,9 -3,-1 -5,-1 -5,2 0,2 -2,3 -4,3 -21,3 -37,19 -59,21 -9,0 -17,8 -27,6 -6,0 -13,-1 -14,-9 -1,-7 2,-12 10,-15 5,-2 11,-6 14,-10 7,-6 12,-7 20,-4 12,5 25,7 38,2 2,-1 8,-1 4,-6 -1,-2 -6,-3 -2,-5 3,-2 8,-5 10,-2 9,13 17,4 23,-1 12,-9 24,-13 38,-9 4,0 6,-4 9,-6 -5,-1 -10,-2 -14,-3 -3,0 -5,0 -5,-4 0,-2 2,-5 5,-5 9,0 16,-4 23,-9 5,-5 14,-4 21,-3 3,0 6,1 8,-2 6,-6 13,-4 19,0 5,4 8,3 11,-1 3,-5 7,-7 11,-7 13,1 24,-9 37,-9 3,0 4,-4 4,-6 -1,-3 -3,-5 -7,-5 -11,1 -22,3 -32,10 -9,5 -20,6 -29,-1 -3,-2 -7,-2 -8,1 -3,7 -10,6 -15,7 -7,2 -14,2 -19,8 -6,5 -14,2 -21,5 -12,6 -26,5 -39,9 -1,0 -2,1 -3,0 -4,-5 -15,-10 -23,-10 -1,-3 4,-2 3,-4 -1,-2 -3,-2 -5,-1 -5,2 -9,3 -14,5 -3,1 -6,2 -10,4 12,5 25,1 36,8 -16,15 -63,26 -85,20 10,-5 19,-11 28,-16 1,-1 4,-1 4,-3 -2,-4 -3,0 -5,0 -9,0 -15,7 -23,7l0 0c-3,-3 0,-6 -1,-10 -7,10 -17,5 -23,3 -8,-2 -12,3 -18,5l0 0c-5,1 -10,5 -15,6 -9,2 -15,7 -22,13 -3,3 -12,3 -18,5 3,-7 6,-11 11,-14 -20,4 -38,13 -58,19 -19,6 -37,14 -56,20 -16,4 -30,15 -47,17 9,-13 13,-18 31,-23 5,-1 10,0 14,-3 2,-1 7,-3 4,3 0,1 2,1 3,0 1,-1 5,-1 3,-2 -4,-6 1,-5 3,-7 14,-12 31,-17 48,-22 3,-1 7,-1 8,-6 0,-6 8,-2 9,-7 -5,-5 -20,-5 -29,0 -11,7 -24,11 -36,17 -16,8 -33,16 -49,23 -7,3 -14,5 -20,10 0,-4 9,-9 -2,-10 -2,0 -5,3 -8,2l0 -2c13,-5 23,-16 36,-20 11,-4 18,-16 31,-15 1,0 -1,-7 4,-8 -4,-2 -4,0 -6,1 -1,0 -3,3 -5,0 6,0 -3,-5 3,-7 6,-1 11,-6 15,-11 2,-2 4,-5 9,-3 3,2 5,-2 8,-4 3,-1 6,-4 11,-3 -7,4 -10,9 -10,18 9,-5 18,-9 27,-14 3,-2 6,-2 9,-3 2,-2 3,-1 3,3 -1,3 3,1 5,0 6,-3 13,-6 20,-8 -7,4 -15,7 -22,11 0,1 1,2 1,3 65,-24 131,-48 198,-69 -16,-4 -28,3 -40,8 -7,2 -12,4 -18,0 -4,-3 -10,-2 -15,-2 -4,-1 -8,-2 -9,-6 -1,-5 4,-6 7,-8 11,-8 24,-5 36,-9 5,-2 11,-1 15,-5 2,-3 6,-3 9,-4 11,0 22,-3 33,-6 10,-2 21,-1 31,-5 22,-10 46,-12 69,-18 29,-7 59,-10 88,-12 4,0 8,-3 12,-3 -8,-2 -16,0 -23,0 -6,1 -12,1 -18,2 -2,0 -4,1 -5,-2 0,-2 1,-4 4,-5 6,-1 12,-1 17,-2 23,-5 46,-7 68,-10 3,0 6,0 9,2 -11,5 -23,2 -35,7 29,3 54,-8 81,-7 26,1 52,5 78,0 1,5 -6,2 -4,9 -1,-2 0,-1 0,-1 7,0 14,4 21,-2l3 0c11,7 22,-2 33,1 17,4 34,-1 51,4 4,2 10,2 14,0 9,-6 17,-3 26,-2 11,3 22,5 33,3 2,0 5,0 7,0 23,7 47,4 70,9 23,5 46,5 69,9 8,2 13,8 19,12 3,-3 0,-6 1,-8 4,0 6,2 5,6 -1,2 -1,4 1,5 2,1 4,0 5,-3 2,-5 5,-2 8,0 5,5 10,8 14,0 1,-2 3,-3 5,-2 5,2 10,2 14,4 22,8 44,16 65,26 11,4 23,8 36,10 8,1 10,10 15,15 -7,-4 -16,-4 -24,-5l-2 -1c-5,-11 -11,-7 -19,-4 -7,2 -14,0 -21,-5 -6,-3 -12,-9 -21,-6 -2,1 -3,-2 -5,-3 -3,-1 -6,-6 -9,0 -1,1 -3,1 -5,0 -12,-9 -29,-4 -42,-11 -15,-7 -33,-5 -48,-12 -1,0 -2,-1 -3,0 -4,8 -9,3 -15,2 -5,-1 -11,-2 -17,-3 -5,0 -10,0 -14,-4 -2,-1 -4,-2 -6,-1 -14,5 -29,-1 -43,-1 -14,0 -27,-5 -40,-7 -2,-1 -5,-1 -7,-1 -6,3 -12,2 -18,-1 -9,-4 -20,2 -29,0 -3,-1 -2,2 -2,4 -1,3 1,2 3,3 4,1 8,1 8,7 0,5 6,5 9,5 13,-3 25,0 37,0 19,0 39,0 57,3 25,5 50,5 74,11 28,7 56,9 82,18 10,3 21,3 30,7 7,3 14,6 22,7 5,1 9,-2 12,-1 17,7 37,8 50,23 2,1 5,3 3,5 -2,3 -3,0 -5,-1 -2,-1 -4,-2 -5,-2 -15,4 -25,-8 -38,-11 -14,-3 -26,-10 -41,-10 -2,0 -2,0 -1,2l0 2c-2,1 -4,2 -6,2 -4,-2 -9,-4 -13,-7 -4,-4 -9,-4 -15,-3 -10,1 -19,-2 -29,-4 -12,-3 -26,0 -36,-10 -10,3 -18,-6 -28,-3 -8,3 -12,0 -14,-7 -2,-5 -4,-4 -8,-3 -8,4 -15,7 -23,6 -8,-1 -16,-8 -25,0 -3,3 -8,-2 -13,-3 8,10 19,10 29,13 3,1 5,1 8,3 1,0 7,8 7,-2 0,-2 5,-1 8,1 10,4 20,6 31,3 9,-2 18,1 26,1 11,1 23,-1 32,10 1,1 3,1 4,0 5,-6 11,-4 16,-2 7,3 17,2 23,10 1,2 5,2 8,2 16,0 30,9 46,9l2 1c3,13 13,13 23,11 4,-1 7,0 11,3 3,5 8,7 14,8 3,0 5,3 10,5 -5,2 -8,3 -11,1 -10,-9 -22,-7 -34,-7 -7,0 -13,-1 -18,-6 -6,-6 -15,-5 -23,-4 -4,1 -8,0 -14,3 10,3 18,7 27,7 4,0 10,-1 11,3 2,4 -2,7 -5,9 -4,2 -7,-1 -9,-5 -2,-1 -4,-4 -7,-3 -2,1 -4,-4 -6,1 -1,4 2,7 5,6 6,-1 10,4 14,5 7,2 10,2 12,-4 2,-6 7,-6 12,-5 7,3 13,5 20,7 30,7 57,19 84,32 29,13 58,25 84,42 5,3 9,5 2,11 -6,5 -5,10 2,15 2,1 3,3 5,4 4,-1 -2,-7 4,-7 4,-1 6,3 9,5 3,4 3,10 9,13 3,2 2,14 2,21 0,1 -2,1 -4,-1 -8,-9 -20,-13 -29,-22 -8,-9 -18,-15 -29,-19 -3,-1 -2,-6 -5,-6 -3,-1 -7,-2 -9,2 -1,2 -3,4 -3,4 -4,-7 -10,-1 -15,-2 -6,-2 -3,-6 -1,-8 7,-11 7,-14 -4,-22 -2,-2 -3,-3 -1,-5 4,-6 0,-7 -4,-9 -2,0 -4,-2 -6,-3 -2,-1 0,-5 -4,-4 -4,0 -4,4 -5,6 -1,2 -1,3 0,5 1,2 3,1 4,0 6,-4 11,1 10,4 -1,7 3,11 5,16 1,3 3,6 1,8 -2,3 -5,0 -8,-1 -7,-2 -11,-9 -19,-12 -4,-1 -8,-5 -12,1 -3,3 -7,1 -9,-1 -2,-3 -4,-1 -6,-1 -3,1 0,4 0,5 0,6 6,10 9,10 12,-1 17,9 26,13 5,3 9,9 16,2 2,-2 9,-1 10,3 3,9 11,10 17,12 27,10 52,22 78,33 1,0 3,1 3,4 -10,-7 -22,-3 -32,-7 -39,-17 -79,-33 -119,-45 -30,-8 -59,-16 -89,-23 -39,-9 -78,-14 -118,-20 -8,-1 -17,-1 -24,-2 7,13 22,8 33,11 7,2 17,1 25,3 6,1 10,4 16,5 6,0 -3,4 1,6 3,1 10,1 9,4 -2,5 -7,3 -11,2l-1 1c-2,4 -8,7 -12,4 -6,-3 -12,-4 -17,2 -1,2 -3,1 -4,0 -5,0 -9,1 -12,3 -2,-7 -9,-2 -12,-4 -2,-2 -5,-1 -5,0 -5,9 -12,4 -18,5 -14,0 -28,1 -41,0 8,2 17,7 26,3 1,-1 2,0 3,1 1,2 -2,3 -2,4 18,1 37,0 55,7l2 0c5,9 5,9 18,11 -4,-5 -11,-3 -15,-6 10,-2 20,0 29,3 4,2 3,4 0,6 -4,2 -8,3 -13,3 -8,-1 -17,7 -26,-1 -1,-2 5,-1 3,-3 -2,-2 -6,-3 -8,-3 -12,5 -24,-2 -36,-1 -10,0 -20,0 -30,-3 -5,-1 -4,4 -4,7 -8,-4 -8,-4 -11,2 -1,2 -3,2 -4,1 -9,-7 -19,-5 -29,-3 -3,1 -5,0 -7,-3 1,-3 6,-1 8,-5 -6,-1 -12,1 -17,-2l-3 1c-5,8 -6,9 -12,9 -11,0 -21,1 -32,0 -12,0 -25,0 -38,2 -12,2 -24,0 -36,2 -14,2 -28,1 -43,3 -14,3 -29,4 -44,4 -5,1 -9,2 -13,2 -20,3 -41,5 -61,9 -14,2 -28,4 -42,8 -12,2 -24,5 -35,7 -18,4 -35,8 -52,11 -20,3 -39,9 -58,15 -35,11 -70,22 -104,36l-2 2 0 -1c-49,16 -98,31 -146,50 -17,7 -36,10 -54,15 -4,1 -9,2 -12,5 -4,0 -7,0 -11,1z"/>
  </g>
 </g>
</svg>
