<?xml version="1.0" encoding="UTF-8"?>
<!DOCTYPE svg PUBLIC "-//W3C//DTD SVG 1.1//EN" "http://www.w3.org/Graphics/SVG/1.1/DTD/svg11.dtd">
<!-- Creator: CorelDRAW X7 -->
<svg xmlns="http://www.w3.org/2000/svg" xml:space="preserve" width="484px" height="611px" version="1.1" style="shape-rendering:geometricPrecision; text-rendering:geometricPrecision; image-rendering:optimizeQuality; fill-rule:evenodd; clip-rule:evenodd"
viewBox="0 0 17330 21869"
 xmlns:xlink="http://www.w3.org/1999/xlink">
 <defs>
  <style type="text/css">
   <![CDATA[
    .fil3 {fill:none}
    .fil20 {fill:#4D4D4E}
    .fil5 {fill:#666666}
    .fil13 {fill:#A6A6A6}
    .fil17 {fill:#FEFEFE}
    .fil22 {fill:white}
    .fil15 {fill:#4D4D4D;fill-rule:nonzero}
    .fil18 {fill:#4D4D4D;fill-rule:nonzero}
    .fil6 {fill:#FAFAFA;fill-rule:nonzero}
    .fil10 {fill:white;fill-rule:nonzero}
    .fil1 {fill:#FFF0D4;fill-rule:nonzero;fill-opacity:0.501961}
    .fil11 {fill:url(#id0)}
    .fil4 {fill:url(#id1)}
    .fil14 {fill:url(#id2)}
    .fil8 {fill:url(#id3)}
    .fil2 {fill:url(#id4)}
    .fil0 {fill:url(#id5)}
    .fil9 {fill:url(#id6)}
    .fil12 {fill:url(#id7)}
    .fil21 {fill:url(#id8)}
    .fil7 {fill:url(#id9)}
    .fil16 {fill:url(#id10);fill-rule:nonzero}
    .fil19 {fill:url(#id11);fill-rule:nonzero}
   ]]>
  </style>
  <linearGradient id="id0" gradientUnits="userSpaceOnUse" x1="8665.17" y1="8598.26" x2="8665.17" y2="13532.8">
   <stop offset="0" style="stop-opacity:1; stop-color:#A6A6A6"/>
   <stop offset="1" style="stop-opacity:1; stop-color:#E8EEF7"/>
  </linearGradient>
  <linearGradient id="id1" gradientUnits="userSpaceOnUse" x1="8697.59" y1="767.776" x2="8697.59" y2="17291.8">
   <stop offset="0" style="stop-opacity:1; stop-color:#D0D5E0"/>
   <stop offset="0.0901961" style="stop-opacity:1; stop-color:#BECAD5"/>
   <stop offset="0.180392" style="stop-opacity:1; stop-color:#AEB1C4"/>
   <stop offset="0.611765" style="stop-opacity:1; stop-color:#6D7D85"/>
   <stop offset="1" style="stop-opacity:1; stop-color:#ABBEC9"/>
  </linearGradient>
  <linearGradient id="id2" gradientUnits="userSpaceOnUse" x1="8665.17" y1="3797.58" x2="8566.43" y2="11679.7">
   <stop offset="0" style="stop-opacity:1; stop-color:#F0F5FF"/>
   <stop offset="1" style="stop-opacity:1; stop-color:#A9BCC7"/>
  </linearGradient>
  <linearGradient id="id3" gradientUnits="userSpaceOnUse" x1="16151.7" y1="7256.47" x2="16160.2" y2="9725.07">
   <stop offset="0" style="stop-opacity:1; stop-color:#F7F7F7"/>
   <stop offset="1" style="stop-opacity:1; stop-color:#BDBDBD"/>
  </linearGradient>
  <linearGradient id="id4" gradientUnits="userSpaceOnUse" x1="4354.4" y1="17317.3" x2="7873.76" y2="15074.4">
   <stop offset="0" style="stop-opacity:1; stop-color:#B00205"/>
   <stop offset="1" style="stop-opacity:1; stop-color:red"/>
  </linearGradient>
  <linearGradient id="id5" gradientUnits="userSpaceOnUse" x1="13096.5" y1="15877.5" x2="8729.04" y2="16509.9">
   <stop offset="0" style="stop-opacity:1; stop-color:red"/>
   <stop offset="1" style="stop-opacity:1; stop-color:#B00205"/>
  </linearGradient>
  <linearGradient id="id6" gradientUnits="userSpaceOnUse" x1="8688.76" y1="2915.98" x2="8688.76" y2="14945.2">
   <stop offset="0" style="stop-opacity:1; stop-color:#EDEDED"/>
   <stop offset="0.411765" style="stop-opacity:1; stop-color:#B8B8B8"/>
   <stop offset="1" style="stop-opacity:1; stop-color:#CCCCCC"/>
  </linearGradient>
  <linearGradient id="id7" gradientUnits="userSpaceOnUse" x1="8683.39" y1="4228.86" x2="8683.39" y2="13511.2">
   <stop offset="0" style="stop-opacity:1; stop-color:#D0D5E0"/>
   <stop offset="0.180392" style="stop-opacity:1; stop-color:#BECAD5"/>
   <stop offset="0.490196" style="stop-opacity:1; stop-color:#6D7D85"/>
   <stop offset="1" style="stop-opacity:1; stop-color:#ABBEC9"/>
  </linearGradient>
  <linearGradient id="id8" gradientUnits="userSpaceOnUse" x1="8218.09" y1="11506.5" x2="8218.26" y2="5590.89">
   <stop offset="0" style="stop-opacity:1; stop-color:#AFB1B1"/>
   <stop offset="0.709804" style="stop-opacity:1; stop-color:#D0D2D3"/>
   <stop offset="1" style="stop-opacity:1; stop-color:#F2F4F5"/>
  </linearGradient>
  <linearGradient id="id9" gradientUnits="userSpaceOnUse" xlink:href="#id3" x1="1443.7" y1="7256.47" x2="1452.24" y2="9725.07">
  </linearGradient>
  <linearGradient id="id10" gradientUnits="userSpaceOnUse" x1="8175.35" y1="2300.29" x2="8175.35" y2="916.521">
   <stop offset="0" style="stop-opacity:1; stop-color:#C8CCD9"/>
   <stop offset="0.560784" style="stop-opacity:1; stop-color:#E3E5EC"/>
   <stop offset="1" style="stop-opacity:1; stop-color:white"/>
  </linearGradient>
  <radialGradient id="id11" gradientUnits="userSpaceOnUse" gradientTransform="matrix(-0.0330493 1.08375 -1.08374 -0.0330491 22899 3246)" cx="8983.37" cy="12566.1" r="4645.76" fx="8983.37" fy="12566.1">
   <stop offset="0" style="stop-opacity:1; stop-color:#FEFEFE"/>
   <stop offset="0.941176" style="stop-opacity:1; stop-color:#E5E5E5"/>
   <stop offset="1" style="stop-opacity:1; stop-color:#CCCDCD"/>
  </radialGradient>
 </defs>
 <g id="Layer_x0020_1">
  <metadata id="CorelCorpID_0Corel-Layer"/>
  <g id="_966538448">
   <g>
    <path class="fil0" d="M8557 16799l-825 169 -228 47 -154 31 -138 28 -66 14 -19 4 65 114 1371 2380 1255 2180c71,110 153,136 252,47l1696 -2069c45,-86 113,-148 233,-159l2628 -438c172,-11 213,-97 121,-261l-1592 -2809 -54 -94 -8 -14 -29 -51 -21 -38 -28 6 -227 46 -122 25 -77 16 -4033 826z"/>
    <path class="fil1" d="M12657 16089l65 -37 -75 -129 -64 37 74 129zm-5164 942l-65 37 75 129 64 -37 -74 -129zm149 259l-65 37 74 129 65 -37 -74 -129zm148 258l-64 37 74 130 65 -38 -75 -129zm149 259l-65 37 75 129 64 -37 -74 -129zm149 258l-65 38 74 129 65 -37 -74 -130zm148 259l-64 37 74 129 64 -37 -74 -129zm149 259l-65 37 74 129 65 -37 -74 -129zm148 258l-64 37 74 130 65 -37 -75 -130zm149 259l-65 37 75 129 64 -37 -74 -129zm149 258l-65 38 74 129 65 -37 -74 -130zm148 259l-64 37 74 129 65 -37 -75 -129zm149 259l-65 37 75 129 64 -37 -74 -129zm149 258l-65 37 74 130 65 -37 -74 -130zm148 259l-65 37 75 129 64 -37 -74 -129zm149 258l-65 38 74 129 65 -37 -74 -130zm148 259l-64 37 74 129 65 -37 -75 -129zm149 258l-65 38 74 129 65 -37 -74 -130zm91 217l57 48 95 -115 -57 -48 -95 115zm191 -229l57 48 96 -115 -58 -48 -95 115zm191 -229l57 48 96 -115 -57 -48 -96 115zm191 -229l57 48 96 -115 -57 -47 -96 114zm191 -229l57 48 96 -115 -57 -47 -96 114zm191 -229l58 48 95 -115 -57 -47 -96 114zm192 -229l57 48 95 -114 -57 -48 -95 114zm191 -229l57 48 95 -114 -57 -48 -95 114zm191 -229l57 48 96 -114 -58 -48 -95 114zm191 -229l11 10 27 47 142 -23 -12 -73 -156 25 -12 14zm315 -63l12 74 147 -24 -11 -74 -148 24zm295 -47l12 73 147 -23 -12 -74 -147 24zm294 -47l12 73 147 -23 -11 -74 -148 24zm295 -47l12 73 147 -23 -12 -74 -147 24zm294 -48l12 74 148 -24 -12 -73 -148 23zm295 -47l12 74 147 -24 -12 -73 -147 23zm294 -47l12 74 147 -24 -11 -74 -148 24zm295 -47l12 74 147 -24 -12 -74 -147 24zm243 -3l65 -38 -75 -129 -64 38 74 129zm-149 -258l64 -38 -75 -129 -64 38 75 129zm-150 -259l65 -37 -75 -129 -65 37 75 129zm-149 -258l64 -37 -75 -129 -64 37 75 129zm-150 -258l65 -37 -75 -129 -65 37 75 129zm-149 -258l64 -37 -75 -129 -64 37 75 129zm-150 -258l65 -37 -75 -129 -65 37 75 129zm-150 -258l65 -37 -75 -129 -64 37 74 129zm-149 -258l64 -37 -74 -129 -65 37 75 129zm-150 -258l65 -37 -75 -129 -64 37 74 129zm-149 -258l64 -37 -74 -129 -65 37 75 129z"/>
    <path class="fil2" d="M4080 15882c-568,1002 -1136,2004 -1704,3007 -92,163 -51,250 121,261 876,146 1752,292 2628,438 120,11 188,73 233,158 566,690 1131,1379 1696,2069 99,89 181,63 252,-47 897,-1558 1794,-3116 2691,-4674 -1972,-404 -3944,-808 -5917,-1212z"/>
    <path class="fil1" d="M4447 16051l-65 -37 75 -129 65 37 -75 129zm5164 942l65 37 -75 129 -64 -37 74 -129zm-149 258l65 37 -74 130 -65 -37 74 -130zm-148 259l64 37 -74 129 -65 -37 75 -129zm-149 259l65 37 -75 129 -64 -37 74 -129zm-149 258l65 37 -74 130 -65 -38 74 -129zm-148 259l65 37 -75 129 -64 -37 74 -129zm-149 258l65 37 -74 130 -65 -37 74 -130zm-148 259l64 37 -74 129 -65 -37 75 -129zm-149 259l65 37 -75 129 -64 -37 74 -129zm-149 258l65 37 -74 130 -65 -38 74 -129zm-148 259l64 37 -74 129 -65 -37 75 -129zm-149 258l65 37 -74 130 -65 -37 74 -130zm-148 259l64 37 -74 129 -65 -37 75 -129zm-149 259l65 37 -75 129 -64 -37 74 -129zm-149 258l65 37 -74 130 -65 -38 74 -129zm-148 259l64 37 -74 129 -65 -37 75 -129zm-149 258l65 37 -74 130 -65 -38 74 -129zm-91 217l-57 47 -95 -114 57 -48 95 115zm-191 -229l-57 47 -96 -114 58 -48 95 115zm-191 -229l-57 47 -96 -114 57 -48 96 115zm-191 -229l-57 48 -96 -115 57 -48 96 115zm-191 -229l-57 48 -96 -115 57 -48 96 115zm-191 -229l-58 48 -95 -115 57 -48 96 115zm-192 -229l-57 48 -95 -115 57 -48 95 115zm-191 -229l-57 48 -95 -115 57 -47 95 114zm-191 -229l-57 48 -96 -115 58 -47 95 114zm-191 -229l-11 9 -27 48 -142 -23 12 -74 156 25 12 15zm-315 -63l-12 73 -147 -23 11 -74 148 24zm-295 -47l-12 73 -147 -23 12 -74 147 24zm-294 -48l-12 74 -147 -24 11 -73 148 23zm-295 -47l-12 74 -147 -24 12 -73 147 23zm-294 -47l-12 74 -147 -24 11 -74 148 24zm-295 -47l-12 74 -147 -24 12 -74 147 24zm-294 -47l-12 73 -147 -23 11 -74 148 24zm-295 -47l-12 73 -147 -23 12 -74 147 24zm-243 -4l-65 -37 75 -129 64 37 -74 129zm149 -258l-64 -37 75 -129 64 37 -75 129zm150 -258l-65 -37 75 -129 65 37 -75 129zm149 -258l-64 -37 75 -129 64 37 -75 129zm150 -258l-65 -37 75 -129 65 37 -75 129zm149 -258l-64 -37 75 -129 64 37 -75 129zm150 -258l-64 -37 74 -129 65 37 -75 129zm150 -258l-65 -37 75 -129 64 37 -74 129zm149 -258l-64 -37 74 -129 65 37 -75 129zm150 -258l-65 -37 75 -129 64 37 -74 129zm149 -258l-64 -37 74 -129 65 37 -75 129z"/>
   </g>
   <circle class="fil3" cx="8665" cy="8598" r="8598"/>
   <path class="fil4" d="M8665 0c4786,0 8665,3880 8665,8665 0,4786 -3879,8665 -8665,8665 -4785,0 -8665,-3879 -8665,-8665 0,-4785 3880,-8665 8665,-8665zm0 2363c3481,0 6302,2822 6302,6302 0,3481 -2821,6302 -6302,6302 -3480,0 -6302,-2821 -6302,-6302 0,-3480 2822,-6302 6302,-6302z"/>
   <path class="fil5" d="M1499 10114c-47,-238 -83,-477 -107,-718 -23,-241 -35,-484 -35,-726 0,-243 12,-485 35,-727 24,-241 60,-480 107,-717 8,-39 -17,-77 -56,-85 -39,-7 -77,18 -84,57 -48,241 -85,486 -109,731 -24,246 -36,493 -36,741 0,247 12,494 36,740 24,245 61,490 109,732 7,39 45,64 84,56 39,-8 64,-46 56,-84z"/>
   <path class="fil6" d="M8665 108c2363,0 4502,958 6051,2506 1548,1549 2506,3688 2506,6051 0,2363 -958,4502 -2506,6051 -1549,1548 -3688,2506 -6051,2506 -2363,0 -4502,-958 -6051,-2506 -1548,-1549 -2506,-3688 -2506,-6051 0,-2363 958,-4502 2506,-6051 1549,-1548 3688,-2506 6051,-2506zm5998 2559c-1535,-1535 -3656,-2484 -5998,-2484 -2342,0 -4463,949 -5998,2484 -1535,1535 -2484,3656 -2484,5998 0,2342 949,4463 2484,5998 1535,1535 3656,2485 5998,2485 2342,0 4463,-950 5998,-2485 1535,-1535 2485,-3656 2485,-5998 0,-2342 -950,-4463 -2485,-5998z"/>
   <path class="fil6" d="M8665 236c2328,0 4435,944 5960,2469 1526,1525 2469,3633 2469,5960 0,2328 -943,4435 -2469,5960 -1525,1526 -3632,2469 -5960,2469 -2327,0 -4435,-943 -5960,-2469 -1525,-1525 -2469,-3632 -2469,-5960 0,-2327 944,-4435 2469,-5960 1525,-1525 3633,-2469 5960,-2469zm5907 2522c-1511,-1512 -3600,-2447 -5907,-2447 -2307,0 -4395,935 -5907,2447 -1512,1512 -2447,3600 -2447,5907 0,2307 935,4396 2447,5907 1512,1512 3600,2447 5907,2447 2307,0 4396,-935 5907,-2447 1512,-1511 2447,-3600 2447,-5907 0,-2307 -935,-4395 -2447,-5907z"/>
   <path class="fil5" d="M15932 7226c48,237 84,477 107,717 24,242 36,484 36,727 0,242 -12,485 -36,726 -23,241 -59,480 -107,718 -7,39 18,76 57,84 39,8 76,-17 84,-56 48,-242 84,-487 108,-732 25,-246 37,-493 37,-740 0,-247 -12,-495 -37,-741 -24,-245 -60,-489 -108,-731 -8,-39 -45,-64 -84,-57 -39,8 -64,46 -57,85z"/>
   <path class="fil7" d="M1453 10109c-47,-237 -83,-477 -107,-718 -23,-241 -35,-483 -35,-726 0,-242 12,-485 35,-726 24,-241 60,-481 107,-718 8,-39 -17,-77 -56,-84 -39,-8 -77,17 -84,56 -49,242 -84,486 -109,732 -24,246 -36,493 -36,740 0,247 12,494 36,740 25,246 60,490 109,732 7,39 45,64 84,57 39,-8 64,-46 56,-85z"/>
   <path class="fil8" d="M15877 7221c47,237 83,477 107,718 24,241 35,484 35,726 0,243 -11,485 -35,726 -24,241 -60,481 -107,718 -8,39 18,77 56,85 39,7 77,-18 85,-57 48,-242 84,-486 108,-732 24,-246 37,-493 37,-740 0,-247 -13,-494 -37,-740 -24,-246 -60,-490 -108,-732 -8,-39 -46,-64 -85,-56 -38,7 -64,45 -56,84z"/>
   <circle class="fil9" cx="8665" cy="8665" r="6308"/>
   <path class="fil10" d="M13871 6630c-27,-70 -133,-53 -133,26 0,9 1,16 4,24 17,42 33,85 48,127 31,81 151,46 132,-40l-2 -7c-16,-44 -32,-87 -49,-130zm-10266 7c11,-30 2,-63 -25,-81 -38,-26 -85,-11 -103,30 -18,44 -34,87 -51,131 -27,70 67,129 120,66 4,-6 7,-12 10,-19 15,-42 32,-84 49,-127zm-214 646c20,-73 -82,-123 -126,-52 -4,6 -6,11 -8,18 -11,45 -23,90 -33,135 -19,84 104,122 133,35 12,-45 22,-91 34,-136zm-132 668c11,-83 -112,-112 -135,-25l-1 7c-7,46 -12,92 -17,138 -2,26 8,50 29,64 42,31 104,2 108,-49 5,-45 10,-90 16,-135zm-47 678c0,-73 -99,-97 -132,-28 -3,10 -5,18 -5,28 -1,46 0,93 0,139 4,88 130,91 138,3 1,-46 -1,-95 -1,-142zm39 679c-11,-84 -137,-79 -137,11 3,47 12,98 18,144 2,15 11,31 22,41 49,43 123,4 115,-61 -7,-45 -13,-90 -18,-135zm123 669c-24,-85 -151,-57 -135,31 11,46 24,93 36,138 21,77 139,62 136,-23 -1,-5 -1,-9 -3,-14 -12,-44 -23,-88 -34,-132zm205 649c-26,-68 -130,-53 -134,23 0,10 2,18 5,27 17,44 34,87 52,130 14,32 49,49 82,39 40,-10 61,-55 45,-92 -17,-42 -34,-85 -50,-127zm283 619c-40,-74 -152,-25 -126,55 2,3 3,7 5,10 22,41 45,82 67,122 35,64 140,34 128,-46 -1,-8 -4,-15 -8,-22 -22,-33 -47,-83 -66,-119zm358 578c-41,-60 -141,-19 -123,57 3,9 6,15 11,23 27,38 54,76 82,113 51,65 152,4 118,-71 -2,-4 -4,-8 -7,-12 -28,-36 -54,-73 -81,-110zm428 529c-55,-57 -148,6 -112,79 3,6 6,10 10,15 32,34 64,68 96,101 58,58 153,-13 106,-87 -2,-3 -4,-6 -7,-9 -32,-32 -63,-66 -93,-99zm490 472c-45,-40 -119,-3 -113,58 1,18 11,35 24,47 36,30 72,60 108,89 33,26 79,18 102,-17 18,-29 11,-70 -16,-91 -35,-28 -70,-57 -105,-86zm546 406c-30,-19 -67,-13 -90,13 -27,31 -20,81 15,103 39,25 78,50 118,74 63,40 140,-40 87,-104 -4,-5 -9,-9 -15,-13 -39,-24 -77,-48 -115,-73zm592 335c-73,-35 -137,63 -73,116 4,3 8,6 13,8 42,21 84,40 126,60 77,33 135,-71 68,-120 -4,-2 -7,-4 -11,-6 -42,-19 -83,-38 -123,-58zm629 260c-80,-25 -129,83 -56,126 4,1 7,3 11,4 44,15 88,30 133,44 76,24 127,-84 54,-126 -4,-2 -9,-4 -13,-6 -43,-13 -86,-27 -129,-42zm656 180c-71,-16 -118,81 -51,126 8,5 14,7 23,9 45,9 91,18 137,26 80,15 116,-100 36,-132 -4,-1 -8,-2 -12,-3 -44,-8 -89,-17 -133,-26zm673 96c-79,-7 -106,108 -25,135 5,1 9,2 14,3 47,3 93,6 140,9 77,3 102,-104 27,-134 -7,-2 -13,-4 -21,-4 -45,-2 -90,-6 -135,-9zm680 11c-77,3 -91,114 -15,135 8,2 14,3 22,3 46,-2 93,-5 139,-8 84,-8 86,-130 -1,-138 -3,0 -6,0 -9,0 -45,3 -91,6 -136,8zm676 -74c-79,15 -74,133 11,137 5,0 9,0 13,-1 46,-8 92,-16 137,-26 88,-19 65,-147 -24,-135 -46,8 -91,17 -137,25zm662 -157c-82,26 -53,149 34,133 46,-12 95,-29 140,-44 69,-22 60,-130 -21,-134 -9,0 -15,1 -23,3 -43,15 -87,29 -130,42zm637 -239c-69,30 -45,139 37,132 7,-1 13,-3 20,-6 42,-19 84,-38 126,-58 16,-8 28,-20 35,-36 23,-59 -37,-116 -94,-89 -41,20 -82,39 -124,57zm603 -315c-70,44 -19,150 59,124 5,-2 8,-4 13,-6 40,-24 79,-49 118,-74 62,-39 27,-137 -48,-126 -10,2 -17,4 -26,10 -39,24 -77,49 -116,72zm559 -388c-59,46 -9,145 67,119 7,-3 13,-6 19,-11 36,-29 73,-58 108,-88 21,-18 30,-45 22,-71 -13,-49 -72,-67 -110,-35 -35,30 -71,58 -106,86zm506 -454c-55,55 13,148 85,107 5,-3 9,-7 14,-11 32,-33 64,-67 96,-101 56,-63 -24,-151 -92,-102 -3,3 -6,5 -9,8 -31,33 -62,66 -94,99zm445 -515c-45,58 24,141 93,100 7,-5 12,-10 17,-17 28,-37 56,-74 83,-112 48,-69 -43,-146 -104,-90 -3,3 -6,7 -8,10 -27,37 -54,73 -81,109zm377 -566c-42,77 65,145 117,74 25,-40 48,-85 71,-127 39,-70 -57,-141 -113,-77 -3,4 -6,7 -8,11 -22,40 -44,79 -67,119zm304 -609c-30,72 65,134 118,70 4,-6 7,-10 9,-16 18,-43 35,-86 53,-129 29,-76 -73,-131 -120,-65 -3,5 -6,9 -8,14 -18,40 -34,85 -52,126zm227 -641c-9,30 3,61 30,77 38,24 90,4 102,-40 13,-45 25,-90 37,-135 18,-67 -70,-118 -121,-60 -6,9 -10,16 -13,27 -11,43 -23,87 -35,131zm144 -665c-10,74 85,109 126,48 5,-9 9,-17 10,-27 7,-46 14,-92 20,-139 10,-76 -99,-110 -132,-35 -3,6 -4,12 -5,18 -6,45 -12,90 -19,135zm61 -677c-3,72 99,99 131,31 4,-10 6,-17 7,-28 1,-47 1,-93 2,-140 0,-71 -96,-96 -131,-30 -5,10 -7,19 -7,30 0,46 -1,91 -2,137zm-25 -680c7,77 122,86 137,3 1,-6 1,-11 1,-17 -4,-46 -10,-93 -16,-139 -10,-82 -133,-79 -137,8 0,3 0,6 0,9 6,45 11,91 15,136zm-108 -672c18,81 143,66 135,-24l-1 -7c-10,-45 -21,-90 -32,-135 -24,-86 -151,-57 -135,30 11,46 23,91 33,136z"/>
   <path class="fil11" d="M8665 2339c1747,0 3329,708 4474,1853 1145,1144 1853,2726 1853,4473 0,1747 -708,3329 -1853,4474 -1145,1145 -2727,1853 -4474,1853 -1747,0 -3329,-708 -4473,-1853 -1145,-1145 -1853,-2727 -1853,-4474 0,-1747 708,-3329 1853,-4473 1144,-1145 2726,-1853 4473,-1853zm0 74c3453,0 6252,2799 6252,6252 0,3453 -2799,6252 -6252,6252 -3453,0 -6252,-2799 -6252,-6252 0,-3453 2799,-6252 6252,-6252z"/>
   <circle class="fil12" cx="8665" cy="8665" r="4868"/>
   <path class="fil13" d="M8665 2337c3490,0 6319,2825 6319,6308 0,27 0,53 -1,79 -42,-3448 -2854,-6230 -6318,-6230 -3464,0 -6276,2782 -6318,6230 0,-26 -1,-52 -1,-79 0,-3483 2829,-6308 6319,-6308z"/>
   <path class="fil3" d="M8682 3389c2914,0 5276,2362 5276,5276 0,2914 -2362,5276 -5276,5276 -2914,0 -5276,-2362 -5276,-5276 0,-2914 2362,-5276 5276,-5276z"/>
   <path class="fil14" d="M8665 3803c1343,0 2558,544 3438,1424 880,880 1424,2096 1424,3438 0,1343 -544,2558 -1424,3438 -880,880 -2095,1424 -3438,1424 -1342,0 -2558,-544 -3438,-1424 -880,-880 -1424,-2095 -1424,-3438 0,-1342 544,-2558 1424,-3438 880,-880 2096,-1424 3438,-1424zm0 75c2644,0 4788,2143 4788,4787 0,2644 -2144,4788 -4788,4788 -2644,0 -4787,-2144 -4787,-4788 0,-2644 2143,-4787 4787,-4787z"/>
  </g>
  <path class="fil15" d="M6006 2589c-9,7 -18,15 -28,24 -11,9 -24,18 -41,26 -32,17 -59,24 -83,21 -23,-2 -42,-18 -58,-48l-141 -276 -233 119c14,40 13,77 -2,111 -14,35 -45,64 -91,87 -45,24 -85,30 -120,19 -34,-10 -59,-32 -76,-64 -8,-15 -13,-31 -17,-46 -3,-14 -5,-28 -6,-42l46 -23c40,-20 48,-52 26,-96l-67 -130c-23,-46 -51,-74 -83,-84 -33,-11 -66,-7 -100,10 -23,12 -43,29 -60,51 -16,22 -27,49 -32,81 -5,32 -3,69 6,111 8,42 26,89 52,141 25,49 53,90 83,124 30,33 62,61 95,83 34,23 68,40 102,51 35,12 70,19 105,22 12,30 15,57 7,83 -7,26 -25,46 -54,61 -29,15 -66,19 -110,13 -44,-6 -91,-23 -139,-51 -49,-28 -97,-66 -145,-115 -47,-49 -89,-108 -125,-178 -37,-73 -61,-142 -70,-206 -9,-64 -7,-122 7,-175 14,-53 39,-99 74,-140 35,-41 79,-74 130,-101 92,-46 175,-59 251,-37 76,22 135,76 179,161l68 134 227 -116 -196 -383c8,-7 17,-15 30,-24 13,-9 27,-17 42,-25 34,-17 61,-24 83,-21 22,3 40,18 54,47l410 801zm401 -203c-8,8 -19,17 -32,26 -13,9 -27,17 -40,24 -31,16 -59,23 -82,20 -23,-3 -41,-19 -56,-47l-411 -805c8,-8 19,-16 32,-24 12,-9 26,-17 41,-24 31,-16 58,-23 81,-20 22,2 41,17 56,46l411 804zm136 -794c-4,-20 -13,-36 -24,-48 -12,-12 -30,-15 -55,-10l-35 8c-12,-15 -21,-34 -27,-57 -7,-33 -2,-60 15,-81 18,-21 45,-36 81,-46l13 -3c19,-4 37,-6 54,-6 16,0 34,2 51,6 17,3 34,9 52,17 19,7 39,17 62,29l370 188 -79 -340c8,-4 20,-9 35,-16 16,-6 32,-11 47,-15 37,-8 65,-8 85,0 21,8 35,28 42,59l203 879c-9,4 -20,9 -32,15 -12,6 -27,12 -47,16 -35,8 -63,8 -85,1 -22,-8 -37,-29 -45,-62l-52 -225c-19,20 -44,39 -75,56 -30,17 -68,31 -113,41 -46,11 -90,15 -132,13 -43,-2 -82,-12 -118,-30 -35,-18 -66,-45 -93,-82 -26,-36 -46,-85 -60,-144l-38 -163zm330 11c-23,-11 -47,-25 -73,-39 -25,-15 -52,-32 -81,-50 12,29 21,55 27,80l26 112c12,54 36,92 70,114 34,22 81,26 141,12 34,-8 64,-21 91,-40 26,-18 45,-37 57,-56l-258 -133zm998 453c-10,6 -22,11 -37,17 -15,6 -30,10 -45,14 -34,8 -62,7 -83,-1 -22,-9 -36,-28 -44,-59l-203 -881c10,-5 22,-11 37,-16 14,-5 29,-9 45,-13 34,-8 62,-8 84,0 21,8 36,27 43,58l203 881zm1509 3c-10,2 -22,5 -35,8 -13,3 -30,4 -49,3 -36,-1 -64,-8 -83,-21 -20,-13 -29,-36 -28,-70l9 -356c-16,5 -35,8 -55,8 -20,1 -42,1 -65,0 -37,-1 -72,-5 -106,-12 -34,-6 -61,-15 -83,-25 -54,44 -121,70 -202,78 23,54 59,104 106,149 47,45 105,76 174,93 2,8 4,16 5,24 1,8 1,16 1,25 -1,32 -12,57 -32,76 -20,18 -48,27 -84,26 -40,-1 -76,-11 -110,-31 -34,-20 -65,-48 -94,-82 -29,-35 -54,-76 -76,-122 -23,-47 -41,-98 -55,-153l-27 0c-22,-1 -42,-8 -61,-22 -18,-13 -27,-35 -26,-66 1,-17 3,-32 7,-45 4,-12 9,-23 13,-32l176 5c52,1 95,-11 128,-38 33,-27 50,-67 51,-118 2,-49 -10,-88 -35,-117 -25,-28 -62,-43 -111,-44 -25,-1 -50,2 -73,10 -23,8 -42,16 -58,26 -15,-11 -27,-23 -36,-38 -9,-15 -13,-31 -12,-47 0,-21 6,-39 17,-53 12,-15 27,-27 46,-36 18,-9 40,-16 65,-20 25,-3 51,-5 78,-4 49,1 94,9 134,25 40,15 74,37 102,65 29,28 50,62 66,103 15,41 22,88 21,140 -1,16 -2,31 -5,45 -2,15 -5,29 -9,44 15,2 31,4 49,7 17,2 37,3 59,4 48,1 89,-4 122,-14l10 -378c8,-2 21,-5 37,-7 17,-2 33,-3 50,-3 37,1 64,8 82,21 18,13 26,36 25,67l-23 902zm1048 211c-11,1 -25,1 -41,-1 -16,-1 -31,-4 -46,-7 -34,-8 -59,-20 -74,-37 -15,-17 -19,-41 -12,-72l69 -300 -307 -71c-12,49 -36,84 -71,107 -35,23 -80,28 -135,15 -52,-12 -87,-33 -106,-63 -20,-30 -25,-63 -17,-98 4,-17 9,-33 16,-46 7,-14 15,-26 23,-36l48 11c45,10 73,-8 84,-56l53 -234c6,-22 5,-41 0,-56 -6,-14 -20,-24 -44,-30l-56 -13c-2,-9 -3,-20 -3,-31 -1,-11 1,-22 3,-33 8,-36 25,-59 50,-69 26,-10 61,-10 106,1 57,13 100,39 127,77 28,39 34,93 17,163l-54 237 302 70 98 -426c10,-1 23,0 38,2 16,2 31,4 47,8 34,8 59,20 75,37 16,16 20,40 13,71l-203 880zm1071 383c-12,-2 -26,-4 -41,-8 -15,-3 -29,-8 -44,-14 -32,-12 -55,-28 -68,-48 -13,-19 -14,-43 -2,-73l55 -140c-34,9 -74,12 -120,11 -45,-2 -98,-14 -157,-37 -52,-21 -97,-46 -137,-76 -39,-30 -71,-63 -97,-98 -25,-36 -44,-73 -55,-112 -12,-39 -16,-78 -14,-118 0,-12 2,-25 4,-38 2,-12 5,-24 9,-36 11,-27 36,-38 76,-31l108 17c68,11 124,9 170,-5 45,-14 76,-41 92,-82 12,-30 12,-58 2,-81 -11,-24 -30,-41 -56,-51 -25,-10 -49,-10 -71,-1 -22,10 -39,29 -50,59 -6,14 -9,28 -10,41 0,13 0,25 2,35 -11,8 -24,12 -39,15 -15,2 -33,-1 -53,-9 -29,-11 -50,-33 -62,-63 -12,-31 -11,-65 5,-104 13,-34 31,-61 54,-83 24,-22 50,-38 80,-48 30,-10 62,-14 96,-12 35,3 69,11 104,24 39,16 74,36 103,61 29,25 51,53 66,83 15,31 23,64 24,101 1,36 -6,73 -21,110 -15,38 -37,69 -65,95 -28,25 -61,44 -100,57 -38,12 -81,19 -127,19 -47,0 -96,-5 -148,-18 4,39 22,77 53,113 32,36 77,65 135,88 55,22 106,30 154,25 47,-4 86,-15 117,-33l204 -519c11,1 25,4 39,8 15,4 30,9 46,15 32,13 55,29 68,47 13,19 14,43 3,73l-332 841zm386 -1047c-11,12 -24,21 -40,26 -16,6 -35,4 -55,-4 -25,-10 -47,-29 -66,-57 -20,-35 -31,-72 -33,-111 -3,-39 3,-76 16,-109 15,-37 33,-67 56,-89 23,-23 49,-39 77,-49 28,-11 58,-15 89,-13 31,2 61,8 91,20 35,14 61,31 77,52 16,21 18,45 8,71 -4,12 -11,22 -19,32 -9,9 -17,16 -25,22 -11,-8 -24,-15 -38,-21 -29,-11 -59,-13 -88,-5 -30,7 -52,31 -67,69 -12,29 -14,57 -8,85 6,28 14,55 25,81zm640 646c-45,-26 -88,-37 -128,-33 -40,4 -70,23 -90,57 -16,28 -20,56 -12,86 7,29 22,57 43,84l197 73c35,13 63,24 84,32 21,9 37,17 48,24 27,15 42,33 46,55 4,22 0,43 -12,63 -7,13 -15,24 -22,34 -8,10 -14,18 -21,24l-183 -79c20,37 32,76 36,118 3,42 -8,86 -34,131 -40,70 -101,109 -182,117 -81,8 -171,-17 -272,-75 -38,-23 -73,-46 -102,-71 -29,-25 -52,-50 -68,-76 -16,-25 -27,-49 -30,-73 -4,-24 -1,-46 11,-66 14,-24 32,-39 54,-45 22,-5 45,-6 67,0 8,30 22,62 43,96 20,35 54,66 103,94 46,27 89,38 127,33 39,-5 69,-26 91,-63 16,-28 21,-60 14,-96 -7,-35 -24,-70 -52,-105l-182 -68c-36,-13 -64,-23 -84,-32 -20,-8 -36,-16 -48,-22 -25,-15 -40,-33 -45,-55 -5,-22 0,-44 13,-66 11,-20 25,-38 40,-55l169 75c-16,-31 -25,-65 -27,-101 -3,-37 9,-76 33,-119 19,-32 43,-58 73,-77 29,-18 63,-30 101,-35 38,-4 79,-1 124,10 44,11 89,30 137,57 73,42 122,84 146,126 24,42 29,76 13,104 -9,15 -19,26 -30,33 -12,6 -27,11 -45,15 -24,-29 -46,-53 -66,-73 -21,-19 -46,-38 -78,-56z"/>
  <path class="fil16" d="M6006 2535c-9,6 -18,14 -28,23 -11,9 -24,18 -41,26 -32,17 -59,24 -83,22 -23,-3 -42,-19 -58,-49l-141 -276 -233 119c14,40 13,77 -2,112 -14,34 -45,63 -91,86 -45,24 -85,30 -120,20 -34,-11 -59,-33 -76,-65 -8,-15 -13,-31 -17,-45 -3,-15 -5,-29 -6,-43l46 -23c40,-20 48,-52 26,-96l-67 -130c-23,-46 -51,-74 -83,-84 -33,-11 -66,-7 -100,10 -23,12 -43,29 -60,51 -16,22 -27,49 -32,81 -5,32 -3,69 6,111 8,43 26,89 52,141 25,49 53,90 83,124 30,33 62,61 95,84 34,22 68,39 102,50 35,12 70,19 105,23 12,29 15,56 7,82 -7,26 -25,47 -54,61 -29,15 -66,19 -110,13 -44,-6 -91,-23 -139,-51 -49,-28 -97,-66 -145,-115 -47,-49 -89,-108 -125,-178 -37,-73 -61,-142 -70,-206 -9,-64 -7,-122 7,-175 14,-53 39,-99 74,-140 35,-41 79,-74 130,-100 92,-47 175,-60 251,-38 76,22 135,76 179,161l68 134 227 -116 -196 -382c8,-8 17,-16 30,-25 13,-9 27,-17 42,-25 34,-17 61,-24 83,-21 22,3 40,19 54,47l410 802zm401 -204c-8,8 -19,17 -32,26 -13,9 -27,17 -40,24 -31,16 -59,23 -82,20 -23,-3 -41,-19 -56,-47l-411 -805c8,-8 19,-16 32,-24 12,-9 26,-17 41,-24 31,-16 58,-23 81,-20 22,2 41,17 56,46l411 804zm136 -794c-4,-20 -13,-36 -24,-48 -12,-12 -30,-15 -55,-10l-35 8c-12,-15 -21,-34 -27,-57 -7,-33 -2,-60 15,-81 18,-21 45,-36 81,-46l13 -3c19,-4 37,-6 54,-6 16,0 34,2 51,6 17,4 34,9 52,17 19,8 39,17 62,29l370 188 -79 -340c8,-4 20,-9 35,-16 16,-6 32,-11 47,-15 37,-8 65,-8 85,0 21,8 35,28 42,59l203 879c-9,4 -20,9 -32,15 -12,7 -27,12 -47,16 -35,8 -63,9 -85,1 -22,-8 -37,-29 -45,-62l-52 -225c-19,20 -44,39 -75,56 -30,17 -68,31 -113,41 -46,11 -90,15 -132,13 -43,-2 -82,-12 -118,-30 -35,-18 -66,-45 -93,-82 -26,-36 -46,-84 -60,-144l-38 -163zm330 11c-23,-11 -47,-24 -73,-39 -25,-15 -52,-32 -81,-50 12,29 21,55 27,80l26 112c12,54 36,92 70,114 34,22 81,26 141,12 34,-8 64,-21 91,-39 26,-19 45,-38 57,-57l-258 -133zm998 453c-10,6 -22,11 -37,17 -15,6 -30,10 -45,14 -34,8 -62,7 -83,-1 -22,-9 -36,-28 -44,-59l-203 -881c10,-5 22,-11 37,-16 14,-5 29,-9 45,-13 34,-8 62,-8 84,0 21,8 36,28 43,58l203 881zm1509 3c-10,2 -22,5 -35,8 -13,3 -30,4 -49,3 -36,-1 -64,-8 -83,-21 -20,-13 -29,-36 -28,-70l9 -356c-16,5 -35,8 -55,8 -20,1 -42,1 -65,0 -37,-1 -72,-5 -106,-11 -34,-7 -61,-16 -83,-26 -54,44 -121,70 -202,78 23,54 59,104 106,149 47,45 105,76 174,93 2,8 4,16 5,24 1,8 1,17 1,25 -1,32 -12,57 -32,76 -20,18 -48,27 -84,26 -40,-1 -76,-11 -110,-31 -34,-20 -65,-48 -94,-82 -29,-35 -54,-76 -76,-122 -23,-47 -41,-97 -55,-152l-27 -1c-22,-1 -42,-8 -61,-22 -18,-13 -27,-35 -26,-66 1,-17 3,-32 7,-45 4,-12 9,-23 13,-31l176 4c52,2 95,-11 128,-38 33,-27 50,-67 51,-118 2,-49 -10,-88 -35,-117 -25,-28 -62,-43 -111,-44 -25,-1 -50,3 -73,10 -23,8 -42,16 -58,26 -15,-11 -27,-23 -36,-38 -9,-15 -13,-31 -12,-47 0,-21 6,-39 17,-53 12,-15 27,-27 46,-36 18,-9 40,-16 65,-20 25,-3 51,-5 78,-4 49,1 94,10 134,25 40,15 74,37 102,65 29,28 50,62 66,103 15,41 22,88 21,140 -1,16 -2,31 -5,45 -2,15 -5,29 -9,44 15,2 31,5 49,7 17,2 37,3 59,4 48,1 89,-3 122,-14l10 -378c8,-2 21,-4 37,-7 17,-2 33,-3 50,-3 37,1 64,8 82,22 18,13 26,35 25,67l-23 901zm1048 212c-11,0 -25,0 -41,-1 -16,-2 -31,-4 -46,-8 -34,-8 -59,-20 -74,-37 -15,-17 -19,-41 -12,-72l69 -300 -307 -71c-12,49 -36,84 -71,107 -35,23 -80,28 -135,15 -52,-12 -87,-33 -106,-63 -20,-30 -25,-63 -17,-98 4,-17 9,-32 16,-46 7,-14 15,-26 23,-36l48 11c45,10 73,-8 84,-56l53 -234c6,-22 5,-41 0,-55 -6,-15 -20,-25 -44,-31l-56 -13c-2,-9 -3,-19 -3,-31 -1,-11 1,-22 3,-33 8,-36 25,-59 50,-69 26,-10 61,-9 106,1 57,13 100,39 127,77 28,39 34,93 17,163l-54 237 302 70 98 -426c10,0 23,0 38,2 16,2 31,4 47,8 34,8 59,20 75,37 16,16 20,40 13,71l-203 881zm1071 382c-12,-2 -26,-4 -41,-8 -15,-3 -29,-8 -44,-13 -32,-13 -55,-29 -68,-49 -13,-19 -14,-43 -2,-73l55 -140c-34,9 -74,13 -120,11 -45,-2 -98,-14 -157,-37 -52,-21 -97,-46 -137,-76 -39,-30 -71,-63 -97,-98 -25,-36 -44,-73 -55,-112 -12,-39 -16,-78 -14,-117 0,-13 2,-26 4,-39 2,-12 5,-24 9,-36 11,-27 36,-38 76,-31l108 17c68,11 124,9 170,-5 45,-14 76,-41 92,-82 12,-30 12,-57 2,-81 -11,-24 -30,-41 -56,-51 -25,-10 -49,-10 -71,-1 -22,10 -39,29 -50,59 -6,14 -9,28 -10,41 0,13 0,25 2,35 -11,8 -24,13 -39,15 -15,2 -33,-1 -53,-9 -29,-11 -50,-32 -62,-63 -12,-31 -11,-65 5,-104 13,-33 31,-61 54,-83 24,-22 50,-38 80,-48 30,-10 62,-14 96,-12 35,3 69,11 104,24 39,16 74,36 103,61 29,25 51,53 66,83 15,31 23,64 24,101 1,36 -6,73 -21,110 -15,38 -37,70 -65,95 -28,25 -61,44 -100,57 -38,12 -81,19 -127,19 -47,1 -96,-5 -148,-17 4,39 22,76 53,112 32,36 77,65 135,88 55,22 106,30 154,26 47,-5 86,-16 117,-34l204 -519c11,1 25,4 39,8 15,4 30,9 46,15 32,13 55,29 68,48 13,18 14,42 3,72l-332 841zm386 -1047c-11,12 -24,21 -40,26 -16,6 -35,4 -55,-4 -25,-10 -47,-29 -66,-57 -20,-35 -31,-72 -33,-111 -3,-39 3,-76 16,-109 15,-37 33,-67 56,-89 23,-23 49,-39 77,-49 28,-10 58,-15 89,-13 31,2 61,8 91,20 35,14 61,31 77,52 16,21 18,45 8,71 -4,12 -11,22 -19,32 -9,9 -17,17 -25,22 -11,-8 -24,-15 -38,-21 -29,-11 -59,-13 -88,-5 -30,7 -52,31 -67,69 -12,29 -14,57 -8,85 6,29 14,55 25,81zm640 646c-45,-26 -88,-37 -128,-33 -40,4 -70,23 -90,57 -16,28 -20,56 -12,86 7,30 22,57 43,84l197 73c35,13 63,24 84,33 21,8 37,16 48,23 27,15 42,33 46,55 4,22 0,43 -12,63 -7,13 -15,24 -22,34 -8,10 -14,18 -21,24l-183 -79c20,37 32,76 36,118 3,42 -8,86 -34,131 -40,70 -101,109 -182,117 -81,8 -171,-17 -272,-75 -38,-23 -73,-46 -102,-71 -29,-25 -52,-50 -68,-76 -16,-25 -27,-49 -30,-73 -4,-24 -1,-46 11,-65 14,-25 32,-40 54,-46 22,-5 45,-5 67,0 8,30 22,62 43,96 20,35 54,66 103,94 46,27 89,38 127,33 39,-5 69,-26 91,-63 16,-28 21,-60 14,-96 -7,-35 -24,-70 -52,-105l-182 -68c-36,-12 -64,-23 -84,-32 -20,-8 -36,-16 -48,-22 -25,-15 -40,-33 -45,-55 -5,-21 0,-44 13,-66 11,-20 25,-38 40,-55l169 75c-16,-31 -25,-64 -27,-101 -3,-37 9,-76 33,-119 19,-32 43,-58 73,-77 29,-18 63,-30 101,-35 38,-4 79,-1 124,10 44,11 89,30 137,57 73,42 122,84 146,126 24,42 29,77 13,104 -9,15 -19,26 -30,33 -12,6 -27,11 -45,15 -24,-29 -46,-53 -66,-72 -21,-20 -46,-38 -78,-57z"/>
  <path class="fil10" d="M6006 2535c-6,4 -13,10 -20,16l-390 -763c-14,-29 -32,-44 -54,-47 -22,-3 -49,4 -83,21 -15,8 -29,16 -42,25l-10 8 -20 -38c8,-8 17,-16 30,-25 13,-9 27,-17 42,-25 34,-17 61,-24 83,-21 22,3 40,19 54,47l410 802zm-574 -85c0,11 -1,22 -3,33 -2,-9 -4,-18 -7,-28l10 -5zm-314 66l-2 -8c-3,-15 -5,-29 -6,-43l46 -23c15,-7 26,-17 32,-28 14,37 4,65 -32,83l-38 19zm-279 -176c1,14 3,30 7,45 8,43 26,89 52,141 25,49 53,90 83,124 30,33 62,61 95,84 34,22 68,39 102,50 35,12 70,19 105,23 12,28 15,54 8,79 -2,-8 -5,-16 -8,-25 -35,-3 -70,-10 -105,-22 -34,-11 -68,-28 -102,-51 -33,-22 -65,-50 -95,-83 -30,-34 -58,-75 -83,-124 -26,-52 -44,-98 -52,-141 -8,-37 -10,-71 -7,-100zm-197 28c-2,-47 2,-90 12,-130 14,-53 39,-99 74,-140 35,-41 79,-74 130,-100 92,-47 175,-60 251,-38 76,22 135,76 179,161l68 134 205 -104 22 43 -227 116 -68 -134c-44,-85 -103,-139 -179,-161 -76,-22 -159,-9 -251,37 -51,27 -95,60 -130,101 -35,41 -60,87 -74,140 -6,24 -10,49 -12,75zm1765 -37c-6,6 -12,11 -20,17l-391 -766c-15,-29 -34,-44 -56,-46 -23,-3 -50,4 -81,20 -15,7 -29,15 -41,24 -5,2 -9,5 -12,8l-20 -39c8,-8 19,-16 32,-24 12,-9 26,-17 41,-24 31,-16 58,-23 81,-20 22,2 41,17 56,46l411 804zm-4 -900l-1 -1c-7,-33 -2,-60 15,-81 18,-21 45,-36 81,-46l13 -3c19,-4 37,-6 54,-6 16,0 34,2 51,6 17,4 34,9 52,17 19,8 39,17 62,29l356 181 14 62 -370 -188c-23,-12 -43,-22 -62,-29 -18,-8 -35,-14 -52,-17 -17,-4 -35,-6 -51,-6 -17,0 -35,2 -54,6l-13 3c-36,10 -63,25 -81,46 -6,8 -11,17 -14,27zm630 -187l-12 -50c8,-4 20,-9 35,-16 16,-6 32,-11 47,-15 37,-8 65,-8 85,0 21,8 35,28 42,59l203 879 -11 5 -192 -829c-7,-31 -21,-51 -42,-59 -20,-8 -48,-8 -85,0 -15,4 -31,9 -47,15 -9,4 -17,8 -23,11zm-289 285l2 10 26 112c12,54 36,92 70,114 34,22 81,26 141,12 34,-8 64,-21 91,-39 9,-7 17,-13 24,-19l33 17c-12,19 -31,38 -57,57 -27,18 -57,31 -91,39 -60,14 -107,10 -141,-12 -34,-22 -58,-60 -70,-114l-26 -112c-6,-25 -15,-51 -27,-80l25 15zm1127 472c-3,2 -7,4 -11,6l-192 -832c-7,-31 -22,-50 -43,-58 -22,-8 -50,-8 -84,0 -16,4 -31,8 -45,13 -10,3 -18,7 -26,10l-11 -49c10,-5 22,-11 37,-16 14,-5 29,-9 45,-13 34,-8 62,-8 84,0 21,8 36,28 43,58l203 881zm1315 -56c-1,-7 -1,-14 -1,-21l8 -301 1 0 -8 322zm-476 -276c21,34 47,66 79,97 47,45 105,76 174,93 2,8 4,16 5,24 1,8 1,17 1,25 0,8 -1,14 -2,21 -1,-5 -2,-10 -4,-15 -69,-17 -127,-48 -174,-93 -47,-45 -83,-95 -106,-149 9,-1 18,-2 27,-3zm-303 -107c-2,-8 -3,-17 -3,-28 1,-17 3,-32 7,-45 4,-12 9,-23 13,-31l176 4c52,2 95,-11 128,-38 28,-24 45,-56 50,-98 1,11 2,23 1,35 -1,51 -18,91 -51,118 -33,27 -76,40 -128,38l-176 -4c-4,8 -9,19 -13,31 -2,6 -3,12 -4,18zm51 -438c-3,-9 -5,-19 -4,-28 0,-21 6,-39 17,-53 12,-15 27,-27 46,-36 18,-9 40,-16 65,-20 25,-3 51,-5 78,-4 49,1 94,10 134,25 40,15 74,37 102,65 29,28 50,62 66,103 15,41 22,88 21,140l-1 15c-2,-37 -9,-70 -20,-100 -16,-41 -37,-75 -66,-103 -28,-28 -62,-50 -102,-65 -40,-15 -85,-24 -134,-25 -27,-1 -53,1 -78,4 -25,4 -47,11 -65,20 -19,9 -34,21 -46,36 -6,8 -10,16 -13,26zm522 282c12,2 25,4 38,6 17,2 37,3 59,4 48,1 89,-3 122,-14l10 -378c8,-2 21,-4 37,-7 17,-2 33,-3 50,-3 37,1 64,8 82,22 18,13 26,35 25,67l-1 34c-2,-21 -10,-37 -24,-47 -18,-13 -45,-20 -82,-21 -17,0 -33,1 -50,3 -16,3 -29,5 -37,7l-10 378c-33,10 -74,15 -122,14 -22,-1 -42,-2 -59,-4 -18,-3 -34,-5 -49,-7 4,-15 7,-29 9,-44l2 -10zm1275 745c-5,-15 -5,-32 0,-53l57 -248 12 3 -69 298zm-568 -406c-4,-18 -4,-37 1,-57 4,-17 9,-32 16,-46 7,-14 15,-26 23,-36l48 11c45,10 73,-8 84,-56l53 -233c5,14 5,33 0,54l-53 234c-11,48 -39,66 -84,56l-48 -11c-8,10 -16,22 -23,36 -7,14 -12,29 -16,46l-1 2zm124 -522c-1,-8 -2,-17 -2,-26 -1,-11 1,-22 3,-33 8,-36 25,-59 50,-69 26,-10 61,-9 106,1 57,13 100,39 127,77 22,31 30,71 25,121 -3,-26 -12,-48 -25,-66 -27,-38 -70,-64 -127,-77 -45,-10 -80,-11 -106,-1 -25,10 -42,33 -50,69l-1 4zm259 353l290 67 98 -426c10,0 23,0 38,2 16,2 31,4 47,8 34,8 59,20 75,37 16,16 20,40 13,71l-1 3c-2,-7 -6,-14 -12,-19 -16,-17 -41,-29 -75,-37 -16,-4 -31,-6 -47,-8 -15,-2 -28,-3 -38,-2l-98 426 -302 -70 12 -52zm1271 943c-8,-17 -7,-39 3,-64l31 -80c9,-1 17,-3 24,-5l-55 140 -3 9zm-522 -588c-1,-15 -1,-30 0,-45 0,-13 2,-26 4,-39 2,-12 5,-24 9,-36 11,-27 36,-38 76,-31l108 17c68,11 124,9 170,-5 45,-14 76,-41 92,-82 2,-6 4,-11 5,-17 7,22 5,46 -5,72 -16,41 -47,68 -92,82 -46,14 -102,16 -170,5l-108 -17c-40,-7 -65,4 -76,31 -4,12 -7,24 -9,36 -2,10 -3,20 -4,29zm117 -292c-6,-27 -3,-56 10,-88 13,-33 31,-61 54,-83 24,-22 50,-38 80,-48 30,-10 62,-14 96,-12 35,3 69,11 104,24 39,16 74,36 103,61 29,25 51,53 66,83 15,31 23,64 24,101 0,11 -1,22 -2,34 -3,-29 -10,-55 -22,-80 -15,-30 -37,-58 -66,-83 -29,-25 -64,-45 -103,-61 -35,-13 -69,-21 -104,-24 -34,-2 -66,2 -96,12 -30,10 -56,26 -80,48 -23,22 -41,49 -54,83 -5,11 -8,22 -10,33zm93 360c9,19 21,36 36,54 32,36 77,65 135,88 55,22 106,30 154,26 47,-5 86,-16 117,-34l204 -519c11,1 25,4 39,8 15,4 30,9 46,15 32,13 55,29 68,48 12,16 14,38 5,64 -1,-3 -3,-7 -5,-10 -13,-18 -36,-34 -68,-47 -16,-6 -31,-11 -46,-15 -14,-4 -28,-7 -39,-8l-204 519c-31,18 -70,29 -117,34 -48,4 -99,-4 -154,-26 -58,-23 -103,-52 -135,-88 -31,-36 -49,-74 -53,-112l17 3zm856 -448c-4,5 -10,10 -15,14 -4,-13 -8,-26 -10,-40 -4,-19 -4,-38 -1,-57l1 2c6,29 14,55 25,81zm-193 -135l-1 -11c-3,-39 3,-76 16,-109 15,-37 33,-67 56,-89 23,-23 49,-39 77,-49 28,-10 58,-15 89,-13 31,2 61,8 91,20 35,14 61,31 77,52 15,21 18,44 8,70 -2,-5 -5,-10 -8,-15 -16,-21 -42,-38 -77,-52 -30,-12 -60,-18 -91,-20 -31,-2 -61,2 -89,13 -28,10 -54,26 -77,49 -23,22 -41,52 -56,89 -8,20 -13,42 -15,65zm603 890l0 1c7,30 22,57 43,84l197 73c35,13 63,24 84,33 21,8 37,16 48,23 27,15 42,33 46,55 2,15 1,30 -3,44 -7,-17 -21,-32 -43,-44 -11,-7 -27,-15 -48,-23 -21,-9 -49,-20 -84,-33l-197 -73c-21,-27 -36,-54 -43,-84 -5,-19 -5,-38 0,-56zm207 378c4,16 7,34 9,51 1,14 1,28 -1,43 -5,-37 -17,-73 -35,-106l27 12zm-677 15c-1,-4 -2,-8 -2,-11 -4,-24 -1,-46 11,-65 14,-25 32,-40 54,-46 22,-5 45,-5 67,0 8,30 22,62 43,96 20,35 54,66 103,94 46,27 89,38 127,33 39,-5 69,-26 91,-63 7,-12 12,-25 14,-39 7,35 2,66 -14,94 -22,37 -52,58 -91,63 -38,5 -81,-6 -127,-33 -49,-28 -83,-59 -103,-94 -21,-34 -35,-66 -43,-96 -22,-6 -45,-5 -67,0 -22,6 -40,21 -54,45 -4,7 -7,14 -9,22zm100 -330c-1,-3 -2,-6 -3,-10 -5,-21 0,-44 13,-66 11,-20 25,-38 40,-55l146 65c5,23 13,45 23,65l-169 -75c-15,17 -29,35 -40,55 -4,7 -8,14 -10,21zm194 -138c-1,-6 -2,-13 -2,-19 -3,-37 9,-76 33,-119 19,-32 43,-58 73,-77 29,-18 63,-30 101,-35 38,-4 79,-1 124,10 44,11 89,30 137,57 73,42 122,84 146,126 22,37 28,68 18,94 -4,-12 -10,-25 -18,-39 -24,-42 -73,-84 -146,-126 -48,-27 -93,-46 -137,-57 -45,-11 -86,-14 -124,-10 -38,5 -72,17 -101,35 -30,19 -54,45 -73,77 -17,29 -27,57 -31,83z"/>
  <path class="fil17" d="M7691 3654c-6,3 -13,6 -21,10 -8,4 -17,7 -29,10 -22,5 -41,5 -55,0 -14,-5 -23,-18 -28,-39l-44 -192 -163 38c3,26 -3,49 -18,68 -14,19 -38,32 -69,40 -32,7 -58,5 -78,-7 -19,-12 -31,-29 -37,-51 -2,-11 -3,-22 -3,-31 0,-10 1,-19 3,-27l31 -7c28,-7 39,-25 32,-56l-21 -90c-8,-32 -21,-54 -39,-65 -18,-12 -39,-15 -63,-9 -16,3 -31,11 -45,22 -13,11 -24,26 -32,45 -8,19 -13,42 -14,69 -1,28 2,59 11,95 7,34 18,64 31,89 14,26 29,48 46,67 17,19 36,35 56,47 19,13 40,23 61,30 3,20 0,37 -9,52 -8,15 -23,25 -42,29 -21,5 -44,2 -70,-9 -27,-10 -53,-28 -79,-53 -25,-25 -49,-56 -71,-93 -22,-38 -38,-81 -50,-130 -11,-50 -15,-96 -11,-137 4,-41 15,-77 32,-107 16,-30 39,-55 67,-75 28,-20 60,-34 96,-42 63,-15 117,-9 160,16 44,25 72,67 86,126l21 94 158 -36 -62 -267c6,-3 13,-7 23,-10 9,-4 19,-7 30,-10 23,-5 41,-5 54,0 13,5 22,18 26,38l129 558zm279 -63c-6,3 -14,7 -24,10 -9,4 -19,7 -28,9 -22,5 -40,5 -53,0 -14,-6 -23,-18 -28,-38l-129 -560c6,-4 14,-7 23,-11 9,-3 19,-6 29,-8 22,-5 39,-5 53,0 14,5 23,18 27,37l130 561zm287 -21c-7,2 -15,4 -25,6 -10,1 -20,2 -30,2 -22,1 -39,-3 -52,-11 -12,-8 -19,-22 -19,-42l-14 -571c-2,-94 26,-167 83,-220 58,-52 144,-80 259,-83 40,0 77,3 112,11 35,8 67,18 95,30 29,11 53,24 75,37 21,14 38,26 51,36 14,11 24,21 32,31 7,11 11,22 11,34 0,11 -4,23 -14,34 -9,11 -22,19 -37,23 -19,-15 -41,-31 -64,-47 -24,-17 -49,-31 -76,-44 -28,-13 -56,-23 -86,-31 -30,-8 -61,-12 -93,-11 -72,1 -127,21 -166,59 -39,38 -57,94 -56,167l14 590zm161 -482c0,-13 -3,-24 -9,-33 -6,-9 -17,-13 -33,-13l-23 0c-5,-11 -9,-24 -9,-39 0,-22 6,-38 20,-49 13,-10 32,-16 56,-18l8 0c13,0 24,1 35,3 10,2 20,6 31,10 10,5 20,11 30,18 11,7 22,16 35,26l206 165 -5 -222c6,-2 14,-4 24,-6 10,-2 21,-3 31,-3 24,0 42,3 53,11 12,8 18,22 18,42l14 574c-6,1 -14,3 -22,5 -8,3 -19,4 -31,4 -23,1 -41,-3 -54,-10 -12,-8 -19,-23 -19,-44l-4 -148c-14,11 -32,19 -54,26 -21,6 -46,10 -75,11 -30,1 -58,-2 -85,-9 -26,-7 -49,-18 -69,-34 -20,-16 -36,-37 -47,-63 -12,-26 -18,-59 -19,-98l-3 -106zm204 49c-13,-10 -26,-21 -40,-34 -14,-12 -29,-26 -44,-41 4,20 6,37 6,53l2 73c1,36 10,62 29,80 18,18 47,27 86,26 22,0 43,-5 62,-13 19,-8 33,-17 43,-28l-144 -116zm1145 534c-7,0 -15,1 -23,1 -8,1 -18,0 -31,-2 -22,-4 -39,-11 -50,-21 -11,-10 -15,-26 -11,-47l100 -564c6,-1 14,-1 24,-1 11,0 21,1 32,3 23,4 40,11 49,21 10,10 14,25 10,45l-100 565zm-601 -738c7,-1 16,-1 25,0 10,0 19,1 30,3 24,5 41,12 50,22 10,10 13,25 9,44l-53 299c-10,58 -1,106 28,142 28,37 70,60 126,70 34,6 62,7 85,3 23,-5 41,-10 56,-17 7,9 13,19 17,30 4,12 5,24 3,35 -2,14 -9,25 -19,34 -10,9 -24,15 -40,19 -17,4 -36,6 -58,5 -21,0 -45,-2 -70,-7 -43,-7 -82,-20 -117,-39 -34,-18 -63,-41 -86,-69 -23,-29 -38,-62 -47,-100 -9,-38 -9,-81 -1,-128l62 -346zm204 85c3,-22 15,-37 33,-44 19,-7 42,-8 70,-3 27,5 51,14 72,26 22,13 39,29 53,50 14,20 23,43 28,71 5,27 5,58 -1,91 -6,37 -17,67 -31,92 -14,24 -31,44 -51,57 -21,14 -43,23 -68,27 -24,3 -50,3 -78,-2 -31,-5 -53,-15 -68,-29 -15,-14 -21,-31 -17,-51 1,-10 5,-19 10,-27 5,-7 11,-13 17,-17 6,4 14,8 22,12 9,4 19,7 31,9 28,5 51,0 71,-14 20,-15 33,-40 40,-77 6,-38 2,-67 -13,-88 -15,-21 -35,-33 -61,-38 -10,-2 -19,-2 -27,-1 -9,0 -16,1 -23,2 -4,-6 -7,-13 -9,-21 -2,-7 -2,-16 0,-25zm679 704c-8,1 -16,1 -26,1 -11,-1 -21,-2 -30,-4 -22,-3 -38,-11 -49,-21 -10,-10 -14,-25 -10,-45l116 -660c5,-30 2,-53 -10,-72 -12,-18 -30,-30 -54,-34 -24,-4 -45,0 -63,14 -17,14 -28,35 -33,64l-5 30c-5,4 -12,6 -22,8 -9,2 -20,2 -33,0 -20,-4 -36,-13 -46,-28 -11,-14 -14,-34 -9,-59 4,-27 13,-49 27,-68 14,-18 32,-33 52,-44 21,-11 44,-18 70,-21 25,-3 52,-2 80,2 64,12 111,38 141,78 30,40 39,91 29,152l-125 707z"/>
  <path class="fil18" d="M4516 14897c-22,37 -29,71 -22,101 8,30 33,57 74,82 30,18 60,27 88,27 28,0 51,-3 69,-10 10,14 16,31 18,51 3,21 1,41 -5,63 -13,5 -29,10 -46,13 -18,4 -38,4 -60,2 -22,-1 -46,-6 -72,-14 -25,-8 -53,-21 -81,-37 -31,-19 -58,-40 -81,-64 -23,-24 -40,-51 -50,-80 -10,-29 -13,-61 -8,-96 5,-35 20,-73 44,-114l60 -100c8,-14 13,-28 13,-40 0,-12 -9,-23 -26,-33l-26 -16c3,-15 8,-31 17,-46 14,-23 32,-36 54,-37 21,-2 45,4 70,20 37,22 61,50 71,83 9,34 0,75 -28,123l-73 122zm177 193c33,-55 70,-97 111,-126 41,-30 83,-50 127,-59 44,-10 88,-11 131,-3 44,9 85,24 122,46 43,26 70,50 80,74 10,23 9,46 -5,68 -5,10 -12,18 -20,24 -9,6 -16,11 -22,13 -8,-8 -18,-16 -29,-25 -10,-9 -24,-19 -41,-28 -26,-16 -53,-26 -82,-31 -29,-5 -57,-3 -86,4 -28,7 -55,21 -81,41 -26,20 -49,47 -69,81 -21,35 -33,69 -38,102 -5,33 -4,64 4,92 8,29 22,56 42,80 19,24 43,44 72,61 22,13 40,22 54,26 14,5 26,7 37,9 2,23 -2,43 -13,61 -13,22 -34,35 -61,37 -28,3 -64,-9 -109,-36 -37,-22 -71,-50 -101,-85 -31,-35 -53,-74 -68,-118 -14,-45 -19,-93 -13,-145 5,-52 25,-107 58,-163zm462 730c-8,-2 -18,-5 -30,-10 -11,-5 -22,-10 -32,-16 -23,-14 -39,-29 -46,-45 -8,-17 -5,-35 7,-57l140 -235 -206 -123c-40,-24 -48,-56 -24,-97 7,-11 14,-20 22,-27 9,-7 16,-13 21,-16l254 151 151 -253c17,5 38,15 62,29 24,14 39,28 46,44 8,16 5,34 -7,55l-358 600zm297 -1143c18,10 32,25 42,45 11,19 22,50 34,90l70 235c-13,16 -28,27 -45,34 -18,6 -35,4 -53,-7 -5,-3 -10,-7 -15,-12 -5,-5 -11,-12 -17,-21 -5,-10 -12,-22 -19,-36 -7,-15 -15,-33 -25,-56l-96 -236c17,-22 36,-37 58,-44 23,-8 45,-5 66,8zm31 1275c-9,-1 -19,-3 -31,-6 -12,-3 -23,-7 -34,-11 -25,-10 -43,-23 -53,-38 -10,-15 -10,-34 -1,-56l276 -682c38,-94 94,-155 168,-184 74,-29 161,-23 261,17 33,14 63,30 90,50 28,19 52,41 73,65 21,23 38,47 53,72 14,25 25,50 32,73 4,15 7,29 8,42 1,13 -1,25 -5,36 -7,17 -20,29 -38,35 -18,6 -39,5 -63,-3 -7,-26 -15,-51 -25,-77 -11,-25 -23,-49 -39,-71 -15,-22 -33,-42 -54,-60 -21,-18 -46,-33 -75,-45 -55,-22 -105,-24 -147,-6 -43,19 -76,58 -100,117l-296 732zm692 4c4,1 8,2 13,4 4,1 9,3 13,4 23,10 41,23 53,41 12,19 13,41 3,67 -9,21 -23,39 -44,55 -20,16 -45,28 -75,36 -30,8 -64,10 -103,7 -39,-3 -81,-14 -125,-32 -44,-18 -81,-39 -112,-65 -31,-25 -55,-53 -72,-83 -17,-31 -26,-63 -28,-97 -3,-33 3,-68 17,-103 26,-64 66,-107 120,-130 53,-22 120,-26 201,-13l46 8c37,6 66,7 86,1 20,-5 33,-16 41,-34 18,-46 -7,-83 -76,-110 -25,-11 -52,-17 -81,-21 -28,-4 -56,-5 -83,-4 -6,-10 -10,-21 -11,-34 -2,-13 0,-25 5,-39 6,-15 16,-26 30,-33 15,-7 32,-11 52,-11 21,-1 43,1 69,7 25,5 50,13 77,24 71,29 123,68 153,117 31,49 34,104 9,165 -20,50 -52,83 -95,98 -44,15 -98,18 -164,9l-71 -11c-44,-6 -80,-3 -106,8 -25,12 -44,33 -56,62 -14,35 -12,68 6,99 18,31 48,55 90,72 23,10 44,15 64,16 19,1 38,-1 55,-5 16,-5 32,-12 45,-21 13,-9 24,-20 34,-32l20 -22zm736 -314c9,0 19,1 31,3 12,2 24,5 37,8 27,7 45,18 57,31 12,13 14,32 8,55l-185 674c-10,0 -21,-1 -33,-3 -12,-1 -24,-4 -35,-7 -26,-7 -45,-17 -57,-31 -11,-14 -14,-32 -7,-56l87 -320 -205 -57c-19,-5 -33,-3 -44,7 -11,9 -20,24 -25,45l-19 67c-8,3 -18,5 -30,6 -11,1 -25,-1 -41,-5 -28,-8 -51,-25 -67,-51 -16,-26 -18,-60 -6,-103 27,-100 98,-134 212,-103l259 71 63 -231zm736 922c-9,1 -19,1 -31,1 -13,-1 -25,-2 -36,-5 -27,-5 -46,-13 -59,-26 -12,-13 -16,-31 -11,-55l44 -234 -239 -45c-8,38 -26,66 -52,85 -26,19 -61,24 -104,16 -40,-8 -68,-23 -84,-46 -16,-22 -21,-47 -16,-75 3,-13 6,-25 11,-36 5,-10 11,-20 17,-28l37 7c35,6 56,-9 63,-46l34 -182c3,-18 2,-32 -2,-43 -5,-12 -17,-19 -35,-22l-43 -8c-3,-8 -4,-16 -4,-24 -1,-9 0,-18 1,-26 6,-28 18,-46 37,-55 19,-8 46,-9 81,-3 45,9 79,27 101,56 23,29 29,71 19,125l-35 185 235 44 63 -331c8,-2 18,-2 29,-1 12,1 24,3 37,5 26,5 46,14 59,26 13,12 17,31 12,55l-129 686zm1577 31c-8,2 -16,5 -26,8 -10,3 -22,6 -37,7 -28,2 -50,-1 -66,-10 -15,-8 -24,-26 -26,-52l-9 -121c-21,17 -45,30 -73,40 -28,10 -63,17 -104,20 -66,5 -126,-5 -181,-29 -54,-25 -97,-61 -130,-110 -12,-18 -22,-36 -30,-54 -8,-19 -13,-37 -14,-54 -1,-15 2,-27 10,-35 8,-9 20,-15 36,-20l49 -15c37,-12 66,-26 85,-43 19,-17 27,-39 25,-66 -2,-24 -11,-43 -27,-56 -16,-13 -37,-19 -64,-17 -19,2 -36,6 -51,12 -14,7 -28,15 -40,23 -26,-16 -40,-36 -42,-62 -1,-25 10,-47 34,-66 24,-18 60,-30 108,-33 67,-5 123,9 166,42 44,33 68,81 73,144 2,30 -1,56 -11,80 -9,23 -22,44 -40,63 -18,18 -39,33 -64,46 -25,13 -52,23 -82,31 14,25 37,47 70,67 33,19 74,27 123,24 43,-4 78,-13 105,-29 26,-16 45,-32 58,-49l-33 -427c8,-3 17,-6 29,-8 11,-3 24,-5 37,-6 29,-2 51,1 65,10 14,9 22,25 24,50l53 695zm347 -25c-8,3 -18,6 -30,8 -12,3 -24,5 -36,5 -27,3 -48,-1 -64,-10 -15,-9 -24,-26 -26,-50l-53 -696c9,-4 19,-6 30,-8 12,-3 24,-4 37,-5 27,-2 48,1 63,10 16,8 25,25 26,49l53 697zm-416 -1106c21,-2 41,2 61,12 19,10 46,28 79,54l192 152c-1,21 -6,39 -17,54 -11,15 -26,23 -47,25 -5,0 -12,0 -19,-1 -8,-1 -16,-4 -26,-8 -10,-5 -23,-11 -37,-19 -14,-7 -31,-18 -52,-30l-215 -138c1,-28 9,-51 23,-70 14,-19 33,-30 58,-31zm1275 960c-7,4 -16,9 -29,13 -12,4 -24,7 -35,9 -28,5 -49,4 -65,-3 -16,-8 -27,-23 -31,-47l-129 -687c8,-4 17,-8 29,-11 11,-3 23,-6 36,-9 29,-5 51,-4 66,4 15,8 25,23 29,45l129 686zm-684 -532c-19,3 -35,9 -48,18 -13,8 -24,16 -33,24 -13,-5 -24,-13 -32,-24 -9,-10 -14,-22 -17,-34 -4,-26 5,-49 29,-69 23,-20 56,-34 98,-42 37,-7 73,-8 107,-3 35,6 67,19 95,39 28,20 52,47 73,82 21,35 36,79 46,131 10,52 11,98 4,138 -7,40 -21,75 -40,104 -20,29 -46,52 -76,70 -31,17 -65,29 -102,36 -23,5 -44,6 -64,6 -20,-1 -38,-3 -54,-8 -16,-5 -29,-12 -39,-22 -10,-9 -17,-22 -20,-37 -3,-14 -1,-28 4,-42 5,-14 13,-24 24,-31 12,4 28,8 47,12 19,3 40,2 63,-2 18,-3 34,-10 49,-19 15,-9 27,-22 36,-38 10,-16 16,-35 18,-58 3,-23 1,-49 -4,-80 -12,-62 -33,-105 -62,-128 -30,-23 -64,-30 -102,-23zm1103 -57c6,5 12,12 18,21 6,9 11,20 14,33 4,14 6,26 5,37 0,11 -2,19 -5,25l-106 30c-36,10 -62,27 -77,53 -15,25 -19,52 -10,81 10,38 31,62 62,73 31,11 65,12 103,1 24,-6 47,-19 70,-36 23,-18 40,-45 50,-80 7,0 15,-1 24,-1 9,0 18,1 28,4 9,2 17,7 25,14 7,7 13,17 17,30 4,16 3,33 -3,51 -6,18 -16,37 -32,54 -16,18 -36,35 -62,51 -25,15 -56,28 -92,38 -41,11 -80,17 -118,16 -36,-1 -70,-7 -99,-20 -29,-12 -54,-30 -75,-54 -21,-23 -36,-52 -45,-85 -10,-39 -11,-75 -3,-109 9,-35 30,-66 63,-93 -77,-10 -125,-52 -146,-127 -8,-30 -10,-59 -5,-88 5,-29 17,-55 34,-79 18,-24 41,-46 69,-64 29,-19 62,-33 100,-44 65,-18 116,-22 154,-12 38,9 61,26 67,49 5,17 4,32 -2,46 -5,13 -10,23 -15,29 -10,-2 -28,-5 -53,-8 -26,-2 -59,2 -99,13 -16,5 -30,11 -44,19 -14,7 -25,17 -34,28 -9,11 -16,24 -19,38 -4,13 -4,28 1,43 4,15 10,27 20,36 9,8 20,15 32,19 12,4 26,6 40,5 14,-1 28,-4 43,-8l105 -29zm522 331c-7,5 -17,9 -28,14 -11,5 -23,9 -34,12 -26,8 -47,8 -64,3 -17,-6 -29,-21 -36,-44l-187 -673c7,-5 17,-10 28,-14 11,-4 22,-8 35,-12 26,-7 47,-8 64,-2 17,5 29,19 35,43l187 673zm226 -934c6,-6 15,-12 25,-18 10,-6 22,-12 34,-17 25,-11 46,-16 63,-13 18,3 31,15 42,38l287 636c-7,6 -16,12 -26,19 -11,7 -21,12 -32,17 -25,11 -46,15 -64,12 -17,-3 -31,-16 -41,-38l-137 -302 -194 87c-18,8 -28,19 -30,33 -3,15 0,32 10,52l28 63c-5,8 -11,16 -19,24 -8,7 -20,15 -35,22 -27,12 -55,13 -84,4 -29,-10 -53,-35 -71,-76 -43,-94 -10,-165 98,-214l245 -111 -99 -218zm577 -166c-35,20 -59,45 -72,73 -13,29 -11,56 4,82 12,21 30,35 53,41 23,6 47,7 73,3l124 -104c22,-18 40,-33 54,-44 14,-10 25,-18 34,-23 21,-12 39,-15 55,-10 16,6 29,17 38,32 6,10 10,20 14,28 3,9 6,17 8,23l-123 93c33,1 63,8 93,21 29,14 55,38 75,73 32,54 35,110 9,167 -26,57 -78,108 -155,153 -30,18 -59,32 -87,42 -27,10 -53,15 -76,17 -23,1 -44,-1 -61,-8 -18,-6 -31,-17 -40,-33 -11,-18 -14,-36 -9,-53 4,-17 13,-32 25,-45 23,6 50,9 81,8 31,-1 65,-12 102,-33 36,-21 60,-46 71,-74 12,-27 9,-56 -7,-84 -13,-22 -33,-37 -59,-46 -26,-9 -57,-11 -91,-6l-115 97c-22,19 -40,33 -54,44 -13,10 -24,18 -33,23 -20,11 -38,15 -54,9 -16,-5 -29,-16 -40,-34 -9,-15 -16,-31 -20,-48l114 -84c-27,-1 -53,-8 -78,-21 -26,-12 -48,-35 -67,-68 -15,-24 -23,-50 -24,-78 -1,-27 4,-54 16,-81 11,-28 29,-54 53,-79 24,-26 55,-49 91,-71 56,-32 103,-49 141,-49 37,-1 62,10 74,31 7,11 11,22 11,32 0,11 -2,23 -7,36 -29,5 -53,11 -74,17 -21,6 -43,16 -67,31zm1171 19c-6,7 -14,15 -23,24 -9,8 -18,16 -28,23 -22,15 -42,23 -59,23 -18,0 -34,-10 -48,-30l-226 -321 -108 75c-41,30 -66,63 -75,102 -9,38 1,78 31,119 14,21 32,38 52,52 20,14 41,25 63,33 22,8 45,13 68,16 23,3 45,4 67,3 13,21 17,42 14,62 -3,21 -14,37 -32,50 -16,11 -33,18 -53,20 -19,3 -40,3 -61,0 -19,-2 -40,-6 -62,-12 -22,-7 -44,-16 -65,-28 -22,-12 -44,-27 -65,-45 -21,-18 -41,-40 -59,-67 -50,-71 -67,-142 -49,-212 18,-70 66,-133 146,-189l116 -82 -104 -147c6,-7 13,-15 22,-22 9,-8 18,-16 29,-23 22,-16 42,-24 59,-24 18,-1 34,9 48,29l402 571zm284 -200c-5,7 -13,15 -22,23 -9,8 -18,16 -28,23 -22,15 -42,23 -60,24 -18,0 -34,-10 -48,-30l-402 -571c6,-7 13,-14 22,-22 9,-8 18,-16 29,-23 22,-16 42,-24 59,-24 18,-1 34,9 48,29l402 571zm-511 -694c4,12 4,24 0,37 -3,13 -12,24 -26,33 -17,13 -38,19 -64,18 -32,-2 -60,-10 -87,-25 -26,-15 -47,-34 -63,-57 -17,-25 -29,-50 -34,-74 -4,-25 -4,-48 1,-70 6,-23 16,-44 30,-63 14,-19 31,-36 51,-50 25,-17 47,-26 67,-28 20,-1 37,7 49,25 6,8 10,16 12,26 3,9 4,18 4,25 -10,4 -19,9 -29,16 -20,14 -34,32 -41,55 -8,22 -2,46 16,72 14,20 31,34 52,42 20,8 41,14 62,18z"/>
  <path class="fil19" d="M4516 14846c-22,37 -29,71 -22,101 8,30 33,58 74,82 30,18 60,27 88,27 28,0 51,-3 69,-10 10,14 16,31 18,51 3,21 1,42 -5,63 -13,6 -29,10 -46,14 -18,3 -38,4 -60,2 -22,-2 -46,-7 -72,-15 -25,-8 -53,-20 -81,-37 -31,-19 -58,-40 -81,-64 -23,-24 -40,-51 -50,-80 -10,-29 -13,-61 -8,-96 5,-35 20,-73 44,-113l60 -100c8,-15 13,-28 13,-41 0,-12 -9,-23 -26,-33l-26 -16c3,-15 8,-30 17,-46 14,-23 32,-35 54,-37 21,-2 45,5 70,20 37,22 61,50 71,84 9,34 0,74 -28,122l-73 122zm177 193c33,-54 70,-96 111,-126 41,-30 83,-49 127,-59 44,-10 88,-11 131,-3 44,9 85,24 122,46 43,26 70,51 80,74 10,23 9,46 -5,69 -5,9 -12,17 -20,23 -9,7 -16,11 -22,13 -8,-8 -18,-16 -29,-25 -10,-9 -24,-18 -41,-28 -26,-16 -53,-26 -82,-31 -29,-4 -57,-3 -86,4 -28,7 -55,21 -81,41 -26,20 -49,47 -69,81 -21,35 -33,69 -38,102 -5,33 -4,64 4,93 8,29 22,55 42,79 19,24 43,44 72,61 22,14 40,22 54,27 14,4 26,7 37,8 2,23 -2,43 -13,61 -13,22 -34,35 -61,38 -28,2 -64,-10 -109,-37 -37,-22 -71,-50 -101,-85 -31,-35 -53,-74 -68,-118 -14,-44 -19,-92 -13,-145 5,-52 25,-106 58,-163zm462 731c-8,-2 -18,-6 -30,-11 -11,-5 -22,-10 -32,-16 -23,-14 -39,-29 -46,-45 -8,-16 -5,-35 7,-56l140 -235 -206 -124c-40,-23 -48,-56 -24,-96 7,-12 14,-21 22,-28 9,-7 16,-12 21,-16l254 151 151 -252c17,4 38,14 62,28 24,14 39,29 46,44 8,16 5,34 -7,56l-358 600zm297 -1144c18,11 32,26 42,45 11,20 22,50 34,90l70 235c-13,16 -28,28 -45,34 -18,6 -35,4 -53,-6 -5,-3 -10,-7 -15,-13 -5,-5 -11,-12 -17,-21 -5,-10 -12,-21 -19,-36 -7,-15 -15,-33 -25,-55l-96 -236c17,-23 36,-37 58,-45 23,-7 45,-5 66,8zm31 1275c-9,-1 -19,-3 -31,-6 -12,-3 -23,-6 -34,-11 -25,-10 -43,-23 -53,-38 -10,-14 -10,-33 -1,-56l276 -682c38,-94 94,-155 168,-184 74,-29 161,-23 261,18 33,13 63,29 90,49 28,20 52,41 73,65 21,23 38,48 53,73 14,25 25,49 32,73 4,14 7,28 8,41 1,13 -1,25 -5,36 -7,18 -20,29 -38,35 -18,6 -39,5 -63,-3 -7,-25 -15,-51 -25,-76 -11,-26 -23,-50 -39,-72 -15,-22 -33,-42 -54,-60 -21,-18 -46,-33 -75,-45 -55,-22 -105,-24 -147,-5 -43,18 -76,57 -100,116l-296 732zm692 5c4,0 8,2 13,3 4,1 9,3 13,5 23,9 41,23 53,41 12,18 13,40 3,66 -9,21 -23,40 -44,56 -20,16 -45,28 -75,35 -30,8 -64,11 -103,7 -39,-3 -81,-14 -125,-32 -44,-18 -81,-39 -112,-64 -31,-26 -55,-53 -72,-84 -17,-30 -26,-63 -28,-96 -3,-34 3,-69 17,-104 26,-64 66,-107 120,-129 53,-22 120,-27 201,-13l46 7c37,6 66,7 86,2 20,-6 33,-17 41,-35 18,-46 -7,-82 -76,-110 -25,-10 -52,-17 -81,-21 -28,-4 -56,-5 -83,-4 -6,-10 -10,-21 -11,-34 -2,-12 0,-25 5,-38 6,-15 16,-26 30,-33 15,-7 32,-11 52,-12 21,-1 43,1 69,7 25,6 50,14 77,24 71,29 123,68 153,117 31,49 34,104 9,165 -20,50 -52,83 -95,98 -44,15 -98,18 -164,9l-71 -11c-44,-6 -80,-3 -106,9 -25,12 -44,32 -56,61 -14,35 -12,69 6,99 18,31 48,55 90,73 23,9 44,14 64,15 19,1 38,-1 55,-5 16,-5 32,-12 45,-21 13,-9 24,-20 34,-31l20 -22zm736 -314c9,-1 19,0 31,2 12,2 24,5 37,8 27,8 45,18 57,31 12,13 14,32 8,56l-185 673c-10,0 -21,-1 -33,-2 -12,-2 -24,-4 -35,-8 -26,-7 -45,-17 -57,-31 -11,-14 -14,-32 -7,-56l87 -320 -205 -56c-19,-6 -33,-4 -44,6 -11,9 -20,24 -25,46l-19 67c-8,3 -18,5 -30,5 -11,1 -25,-1 -41,-5 -28,-8 -51,-25 -67,-51 -16,-26 -18,-60 -6,-103 27,-100 98,-134 212,-102l259 71 63 -231zm736 921c-9,1 -19,1 -31,1 -13,-1 -25,-2 -36,-4 -27,-5 -46,-14 -59,-27 -12,-12 -16,-31 -11,-55l44 -234 -239 -45c-8,38 -26,67 -52,85 -26,19 -61,24 -104,16 -40,-7 -68,-22 -84,-45 -16,-23 -21,-48 -16,-75 3,-14 6,-26 11,-36 5,-11 11,-21 17,-29l37 7c35,7 56,-9 63,-46l34 -182c3,-17 2,-32 -2,-43 -5,-11 -17,-19 -35,-22l-43 -8c-3,-7 -4,-15 -4,-24 -1,-9 0,-17 1,-26 6,-28 18,-46 37,-55 19,-8 46,-9 81,-2 45,8 79,27 101,55 23,29 29,71 19,126l-35 184 235 44 63 -331c8,-1 18,-1 29,0 12,0 24,2 37,4 26,5 46,14 59,26 13,13 17,31 12,55l-129 686zm1577 31c-8,2 -16,5 -26,8 -10,4 -22,6 -37,7 -28,2 -50,-1 -66,-10 -15,-8 -24,-26 -26,-52l-9 -121c-21,17 -45,30 -73,41 -28,10 -63,16 -104,20 -66,5 -126,-5 -181,-30 -54,-25 -97,-61 -130,-110 -12,-17 -22,-35 -30,-54 -8,-18 -13,-36 -14,-54 -1,-15 2,-27 10,-35 8,-8 20,-15 36,-19l49 -16c37,-12 66,-26 85,-43 19,-17 27,-38 25,-65 -2,-25 -11,-44 -27,-57 -16,-13 -37,-19 -64,-17 -19,2 -36,6 -51,13 -14,6 -28,14 -40,22 -26,-15 -40,-36 -42,-61 -1,-26 10,-48 34,-66 24,-19 60,-30 108,-34 67,-5 123,9 166,42 44,33 68,81 73,144 2,30 -1,56 -11,80 -9,24 -22,45 -40,63 -18,18 -39,34 -64,47 -25,13 -52,23 -82,30 14,25 37,48 70,67 33,20 74,28 123,24 43,-3 78,-13 105,-29 26,-16 45,-32 58,-48l-33 -428c8,-3 17,-5 29,-8 11,-3 24,-4 37,-5 29,-3 51,1 65,9 14,9 22,26 24,50l53 695zm347 -25c-8,3 -18,6 -30,9 -12,2 -24,4 -36,5 -27,2 -48,-2 -64,-11 -15,-9 -24,-25 -26,-50l-53 -696c9,-3 19,-6 30,-8 12,-2 24,-4 37,-5 27,-2 48,1 63,10 16,9 25,25 26,49l53 697zm-416 -1106c21,-2 41,2 61,12 19,10 46,28 79,55l192 152c-1,20 -6,38 -17,53 -11,15 -26,24 -47,25 -5,1 -12,0 -19,-1 -8,-1 -16,-4 -26,-8 -10,-4 -23,-10 -37,-18 -14,-8 -31,-18 -52,-31l-215 -138c1,-28 9,-51 23,-70 14,-19 33,-29 58,-31zm1275 960c-7,5 -16,9 -29,13 -12,4 -24,7 -35,9 -28,5 -49,4 -65,-3 -16,-7 -27,-23 -31,-47l-129 -686c8,-5 17,-8 29,-12 11,-3 23,-6 36,-8 29,-6 51,-5 66,3 15,8 25,23 29,46l129 685zm-684 -532c-19,4 -35,10 -48,18 -13,9 -24,17 -33,24 -13,-5 -24,-13 -32,-23 -9,-11 -14,-22 -17,-35 -4,-25 5,-48 29,-69 23,-20 56,-34 98,-42 37,-7 73,-8 107,-2 35,5 67,18 95,38 28,20 52,48 73,82 21,35 36,79 46,131 10,52 11,99 4,139 -7,40 -21,74 -40,103 -20,29 -46,53 -76,70 -31,17 -65,30 -102,37 -23,4 -44,6 -64,5 -20,0 -38,-3 -54,-8 -16,-5 -29,-12 -39,-22 -10,-9 -17,-21 -20,-36 -3,-15 -1,-28 4,-42 5,-14 13,-25 24,-32 12,5 28,8 47,12 19,3 40,3 63,-2 18,-3 34,-9 49,-19 15,-9 27,-21 36,-37 10,-16 16,-36 18,-59 3,-22 1,-49 -4,-80 -12,-62 -33,-105 -62,-128 -30,-22 -64,-30 -102,-23zm1103 -57c6,6 12,13 18,22 6,9 11,19 14,32 4,14 6,27 5,37 0,11 -2,19 -5,25l-106 30c-36,10 -62,28 -77,53 -15,25 -19,52 -10,82 10,37 31,61 62,72 31,11 65,12 103,1 24,-6 47,-18 70,-36 23,-18 40,-45 50,-80 7,0 15,0 24,-1 9,0 18,1 28,4 9,3 17,8 25,15 7,7 13,17 17,30 4,15 3,32 -3,50 -6,19 -16,37 -32,55 -16,18 -36,34 -62,50 -25,15 -56,28 -92,38 -41,11 -80,17 -118,16 -36,0 -70,-7 -99,-19 -29,-13 -54,-31 -75,-55 -21,-23 -36,-52 -45,-85 -10,-38 -11,-75 -3,-109 9,-35 30,-66 63,-93 -77,-10 -125,-52 -146,-127 -8,-30 -10,-59 -5,-88 5,-28 17,-55 34,-79 18,-24 41,-45 69,-64 29,-18 62,-33 100,-44 65,-18 116,-22 154,-12 38,9 61,26 67,50 5,16 4,31 -2,45 -5,14 -10,23 -15,29 -10,-2 -28,-5 -53,-7 -26,-3 -59,1 -99,13 -16,4 -30,10 -44,18 -14,8 -25,17 -34,28 -9,12 -16,24 -19,38 -4,14 -4,28 1,44 4,14 10,26 20,35 9,9 20,15 32,19 12,4 26,6 40,5 14,-1 28,-3 43,-7l105 -30zm522 331c-7,5 -17,10 -28,15 -11,5 -23,9 -34,12 -26,7 -47,8 -64,2 -17,-6 -29,-21 -36,-44l-187 -673c7,-5 17,-9 28,-14 11,-4 22,-8 35,-11 26,-8 47,-9 64,-3 17,5 29,20 35,43l187 673zm226 -934c6,-6 15,-12 25,-18 10,-6 22,-12 34,-17 25,-11 46,-15 63,-13 18,3 31,16 42,38l287 636c-7,6 -16,13 -26,19 -11,7 -21,13 -32,18 -25,11 -46,15 -64,12 -17,-4 -31,-16 -41,-39l-137 -302 -194 88c-18,8 -28,19 -30,33 -3,14 0,31 10,51l28 63c-5,8 -11,16 -19,24 -8,8 -20,15 -35,22 -27,12 -55,13 -84,4 -29,-10 -53,-35 -71,-76 -43,-94 -10,-165 98,-214l245 -111 -99 -218zm577 -166c-35,20 -59,45 -72,73 -13,29 -11,56 4,82 12,22 30,35 53,42 23,6 47,7 73,2l124 -103c22,-19 40,-34 54,-45 14,-10 25,-18 34,-23 21,-12 39,-15 55,-9 16,5 29,16 38,31 6,10 10,20 14,28 3,9 6,17 8,24l-123 92c33,1 63,8 93,21 29,14 55,38 75,73 32,54 35,110 9,167 -26,57 -78,108 -155,154 -30,17 -59,31 -87,41 -27,10 -53,16 -76,17 -23,1 -44,-1 -61,-8 -18,-6 -31,-17 -40,-32 -11,-19 -14,-37 -9,-54 4,-17 13,-32 25,-45 23,6 50,9 81,8 31,0 65,-11 102,-33 36,-21 60,-46 71,-73 12,-28 9,-56 -7,-85 -13,-22 -33,-37 -59,-46 -26,-9 -57,-11 -91,-6l-115 97c-22,19 -40,34 -54,44 -13,10 -24,18 -33,23 -20,12 -38,15 -54,10 -16,-5 -29,-17 -40,-34 -9,-16 -16,-32 -20,-48l114 -85c-27,-1 -53,-8 -78,-20 -26,-13 -48,-35 -67,-68 -15,-25 -23,-51 -24,-78 -1,-27 4,-55 16,-82 11,-27 29,-54 53,-79 24,-25 55,-49 91,-70 56,-33 103,-50 141,-50 37,-1 62,10 74,31 7,12 11,23 11,33 0,10 -2,22 -7,35 -29,5 -53,11 -74,17 -21,7 -43,17 -67,31zm1171 19c-6,8 -14,16 -23,24 -9,8 -18,16 -28,23 -22,15 -42,23 -59,23 -18,0 -34,-10 -48,-30l-226 -321 -108 76c-41,29 -66,63 -75,101 -9,38 1,78 31,119 14,21 32,38 52,52 20,14 41,25 63,33 22,8 45,13 68,16 23,3 45,4 67,4 13,21 17,41 14,62 -3,20 -14,37 -32,49 -16,11 -33,18 -53,21 -19,2 -40,2 -61,-1 -19,-2 -40,-6 -62,-12 -22,-6 -44,-15 -65,-27 -22,-12 -44,-28 -65,-46 -21,-18 -41,-40 -59,-66 -50,-72 -67,-142 -49,-213 18,-70 66,-133 146,-189l116 -82 -104 -147c6,-7 13,-14 22,-22 9,-8 18,-16 29,-23 22,-15 42,-23 59,-24 18,-1 34,9 48,29l402 571zm284 -200c-5,7 -13,15 -22,23 -9,9 -18,16 -28,23 -22,16 -42,24 -60,24 -18,0 -34,-10 -48,-30l-402 -571c6,-7 13,-14 22,-22 9,-8 18,-15 29,-23 22,-15 42,-23 59,-24 18,-1 34,9 48,29l402 571zm-511 -694c4,12 4,24 0,37 -3,13 -12,24 -26,34 -17,12 -38,18 -64,18 -32,-2 -60,-11 -87,-26 -26,-15 -47,-34 -63,-57 -17,-25 -29,-49 -34,-74 -4,-24 -4,-48 1,-70 6,-23 16,-43 30,-63 14,-19 31,-36 51,-50 25,-17 47,-26 67,-28 20,-1 37,7 49,25 6,8 10,17 12,26 3,10 4,18 4,25 -10,4 -19,9 -29,16 -20,14 -34,33 -41,55 -8,22 -2,47 16,73 14,19 31,33 52,41 20,8 41,14 62,18z"/>
  <path class="fil10" d="M4495 14948c7,30 32,57 73,81 30,18 60,27 88,27 26,0 48,-3 66,-9 25,-34 52,-62 82,-83 41,-30 83,-50 127,-59 44,-10 88,-11 131,-3 44,9 85,24 122,46 43,26 70,50 80,74l2 4c7,-18 6,-36 -2,-55 -10,-23 -37,-48 -80,-74 -37,-22 -78,-37 -122,-46 -43,-8 -87,-7 -131,3 -44,10 -86,29 -127,59 -41,30 -78,72 -111,126 -13,23 -25,46 -34,68l-3 0c-28,0 -58,-9 -88,-27 -41,-25 -66,-52 -74,-82 -4,-16 -3,-33 1,-50zm-156 -6c-2,-18 -2,-37 1,-58 5,-35 20,-73 44,-113l60 -100c2,-4 3,-7 5,-10 5,7 8,13 8,20 0,12 -5,26 -13,40l-60 100c-24,41 -39,79 -44,114l-1 7zm81 -352l-15 -9c3,-15 8,-30 17,-46 14,-23 32,-35 54,-37 21,-2 45,5 70,20 37,22 61,50 71,84 4,16 5,34 0,54l0 -4c-10,-33 -34,-61 -71,-83 -25,-16 -49,-22 -70,-20 -22,1 -40,14 -54,37l-2 4zm369 692c1,10 4,21 6,31 8,29 22,55 42,79 19,24 43,44 72,61 22,14 40,22 54,27 14,4 26,7 37,8 1,19 -1,35 -7,50 -9,-2 -19,-4 -30,-8 -14,-4 -32,-13 -54,-26 -29,-17 -53,-37 -72,-61 -20,-24 -34,-51 -42,-80 -7,-25 -9,-52 -6,-81zm260 420l-2 -4c-8,-16 -5,-35 7,-56l118 -198 22 13 -140 235c-2,4 -3,7 -5,10zm-93 -449c-10,-19 -7,-41 8,-66 7,-12 14,-21 22,-28 9,-7 16,-12 21,-16l254 151 151 -252c17,4 38,14 62,28 24,14 39,29 46,44 7,14 6,29 -2,46 -9,-14 -23,-27 -44,-39 -24,-14 -45,-24 -62,-29l-151 253 -254 -151c-5,3 -12,9 -21,16 -8,7 -15,16 -22,27 -3,6 -6,11 -8,16zm496 -627c18,11 32,26 42,45 11,20 22,50 34,90l70 235c-4,5 -7,9 -11,13l-59 -197c-12,-40 -23,-71 -34,-90 -10,-20 -24,-35 -42,-45 -21,-13 -43,-16 -66,-8 -16,5 -31,15 -44,28l-14 -34c17,-23 36,-37 58,-45 23,-7 45,-5 66,8zm-89 1217c-8,-14 -7,-32 1,-53l276 -682c38,-94 94,-155 168,-184 74,-29 161,-23 261,18 33,13 63,29 90,49 28,20 52,41 73,65 21,23 38,48 53,73 14,25 25,49 32,73 4,14 7,28 8,41 1,11 0,21 -3,30 -1,-7 -3,-14 -5,-21 -7,-23 -18,-48 -32,-73 -15,-25 -32,-49 -53,-72 -21,-24 -45,-46 -73,-65 -27,-20 -57,-36 -90,-50 -100,-40 -187,-46 -261,-17 -74,29 -130,90 -168,184l-276 682 -1 2zm812 63c4,0 8,2 13,3 4,1 9,3 13,5 23,9 41,23 53,41 11,16 13,36 5,60 -2,-4 -3,-7 -5,-10 -12,-18 -30,-31 -53,-41 -4,-1 -9,-3 -13,-4 -5,-2 -9,-3 -13,-4l-20 22c-10,12 -21,23 -34,32 -13,9 -29,16 -45,21 -17,4 -36,6 -55,5 -20,-1 -41,-6 -64,-16 -42,-17 -72,-41 -90,-72 -15,-25 -19,-51 -12,-79 2,9 6,19 12,28 18,31 48,55 90,73 23,9 44,14 64,15 19,1 38,-1 55,-5 16,-5 32,-12 45,-21 13,-9 24,-20 34,-31l20 -22zm-476 -52l-1 -11c-3,-34 3,-69 17,-104 26,-64 66,-107 120,-129 53,-22 120,-27 201,-13l46 7c37,6 66,7 86,2 20,-6 33,-17 41,-35l0 -1c7,16 7,33 0,52 -8,18 -21,29 -41,34 -20,6 -49,5 -86,-1l-46 -8c-81,-13 -148,-9 -201,13 -54,23 -94,66 -120,130 -8,22 -14,43 -16,64zm262 -435c-1,-5 -3,-11 -3,-17 -2,-12 0,-25 5,-38 6,-15 16,-26 30,-33 15,-7 32,-11 52,-12 21,-1 43,1 69,7 25,6 50,14 77,24 71,29 123,68 153,117 22,35 30,72 24,113 -3,-22 -11,-42 -24,-62 -30,-49 -82,-88 -153,-117 -27,-11 -52,-19 -77,-24 -26,-6 -48,-8 -69,-7 -20,0 -37,4 -52,11 -14,7 -24,18 -30,33l-2 5zm950 173c9,-1 19,0 31,2 12,2 24,5 37,8 27,8 45,18 57,31 12,13 14,32 8,56l-1 4c-2,-3 -4,-6 -7,-9 -12,-13 -30,-24 -57,-31 -13,-3 -25,-6 -37,-8 -12,-2 -22,-3 -31,-3l-63 231 -259 -71c-114,-31 -185,3 -212,103 -2,8 -4,15 -5,23 -5,-21 -3,-46 5,-74 27,-100 98,-134 212,-102l259 71 63 -231zm-183 719c-6,-12 -6,-27 -1,-46l75 -273 12 4 -86 315zm784 157c-5,-11 -5,-24 -2,-40l35 -185 9 2 -42 223zm-452 -294c-3,-14 -4,-29 -1,-44 3,-14 6,-26 11,-36 5,-11 11,-21 17,-29l37 7c35,7 56,-9 63,-46l32 -173c5,11 5,25 2,42l-34 182c-7,37 -28,52 -63,46l-37 -7c-6,8 -12,18 -17,28 -4,9 -7,19 -10,30zm79 -408c-1,-6 -2,-12 -2,-19 -1,-9 0,-17 1,-26 6,-28 18,-46 37,-55 19,-8 46,-9 81,-2 45,8 79,27 101,55 20,25 27,60 22,105 -3,-22 -10,-39 -22,-54 -22,-29 -56,-47 -101,-56 -35,-6 -62,-5 -81,3 -18,8 -30,24 -36,49zm211 265l226 42 63 -331c8,-1 18,-1 29,0 12,0 24,2 37,4 26,5 46,14 59,26 13,13 17,31 12,55l-2 11c-2,-6 -6,-11 -10,-15 -13,-12 -33,-21 -59,-26 -13,-2 -25,-4 -37,-5 -11,-1 -21,-1 -29,1l-63 331 -235 -44 9 -49zm1874 513l-4 1 -49 -645c-2,-25 -10,-41 -24,-50 -14,-9 -36,-12 -65,-10 -13,1 -26,3 -37,6 -10,2 -18,4 -25,7l-4 -50c8,-3 17,-5 29,-8 11,-3 24,-4 37,-5 29,-3 51,1 65,9 14,9 22,26 24,50l53 695zm-692 -330c-2,-9 -3,-17 -4,-25 -1,-15 2,-27 10,-35 8,-8 20,-15 36,-19l49 -16c37,-12 66,-26 85,-43 11,-9 18,-21 22,-34 2,6 3,13 3,19 2,27 -6,49 -25,66 -19,17 -48,31 -85,43l-49 15c-16,5 -28,11 -36,20 -2,2 -4,5 -6,9zm-18 -283c-2,-6 -4,-13 -5,-20 -1,-26 10,-48 34,-66 24,-19 60,-30 108,-34 67,-5 123,9 166,42 44,33 68,81 73,144 1,15 1,29 -1,42 -6,-59 -30,-104 -72,-135 -43,-33 -99,-47 -166,-42 -48,3 -84,15 -108,33 -14,11 -24,23 -29,36zm213 327c10,9 22,18 36,26 33,20 74,28 123,24 43,-3 78,-13 105,-29 24,-15 42,-29 54,-44l4 46c-13,17 -32,33 -58,49 -27,16 -62,25 -105,29 -49,3 -90,-5 -123,-24 -33,-20 -56,-42 -70,-67 12,-3 23,-6 34,-10zm844 261l-3 1 -50 -647c-1,-24 -10,-41 -26,-49 -15,-9 -36,-12 -63,-10 -13,1 -25,2 -37,5 -10,1 -18,4 -26,6l-4 -49c9,-3 19,-6 30,-8 12,-2 24,-4 37,-5 27,-2 48,1 63,10 16,9 25,25 26,49l53 697zm-416 -1106c21,-2 41,2 61,12 19,10 46,28 79,55l192 152c0,15 -4,29 -10,42l-182 -144c-33,-26 -60,-44 -79,-54 -20,-10 -40,-14 -61,-12 -25,1 -44,12 -58,31 -6,7 -10,16 -14,25l-9 -6c1,-28 9,-51 23,-70 14,-19 33,-29 58,-31zm1275 960c-3,2 -6,3 -9,5l-120 -640c-4,-22 -14,-37 -29,-45 -15,-8 -37,-9 -66,-4 -13,3 -25,6 -36,9 -8,2 -14,5 -20,7l-9 -46c8,-5 17,-8 29,-12 11,-3 23,-6 36,-8 29,-6 51,-5 66,3 15,8 25,23 29,46l129 685zm-810 -534c-1,-5 -3,-9 -4,-14 -4,-25 5,-48 29,-69 23,-20 56,-34 98,-42 37,-7 73,-8 107,-2 35,5 67,18 95,38 28,20 52,48 73,82 21,35 36,79 46,131 8,40 10,77 8,110 -2,-19 -4,-39 -8,-59 -10,-52 -25,-96 -46,-131 -21,-35 -45,-62 -73,-82 -28,-20 -60,-33 -95,-39 -34,-5 -70,-4 -107,3 -42,8 -75,22 -98,42 -12,10 -20,20 -25,32zm56 423c-1,-4 -2,-8 -3,-11 -3,-15 -1,-28 4,-42 5,-14 13,-25 24,-32 12,5 28,8 47,12 19,3 40,3 63,-2 18,-3 34,-9 49,-19 15,-9 27,-21 36,-37 10,-16 15,-35 18,-57 2,18 2,34 0,49 -2,23 -8,42 -18,58 -9,16 -21,29 -36,38 -15,9 -31,16 -49,19 -23,4 -44,5 -63,2 -19,-4 -35,-8 -47,-12 -11,7 -19,17 -24,31l-1 3zm1173 -478c6,6 12,13 18,22 6,9 11,19 14,32 4,14 6,27 5,37 0,9 -1,16 -3,21l-2 -7c-3,-13 -8,-24 -14,-33 -6,-9 -12,-16 -18,-21l-105 29c-15,4 -29,7 -43,8 -14,1 -28,-1 -40,-5 -12,-4 -23,-11 -32,-19 -10,-9 -16,-21 -20,-36 -5,-15 -5,-30 -1,-43l1 -5c4,13 11,24 20,33 9,9 20,15 32,19 12,4 26,6 40,5 14,-1 28,-3 43,-7l105 -30zm-163 276l2 5c10,37 31,61 62,72 31,11 65,12 103,1 24,-6 47,-18 70,-36 23,-18 40,-45 50,-80 7,0 15,0 24,-1 9,0 18,1 28,4 9,3 17,8 25,15 7,7 13,17 17,30 4,14 3,30 -2,47 -3,-12 -8,-20 -15,-27 -8,-7 -16,-12 -25,-14 -10,-3 -19,-4 -28,-4 -9,0 -17,1 -24,1 -10,35 -27,62 -50,80 -23,17 -46,30 -70,36 -38,11 -72,10 -103,-1 -31,-11 -52,-35 -62,-73 -6,-19 -6,-37 -2,-55zm-152 25c-3,-26 -2,-51 4,-74 5,-18 13,-35 24,-51 12,4 25,7 39,9 -33,27 -54,58 -63,93 -1,7 -3,15 -4,23zm-85 -323c-3,-20 -2,-40 1,-59 5,-28 17,-55 34,-79 18,-24 41,-45 69,-64 29,-18 62,-33 100,-44 65,-18 116,-22 154,-12 38,9 61,26 67,50 5,16 4,31 -2,45 -8,-21 -30,-36 -65,-44 -38,-10 -89,-6 -154,12 -38,11 -71,25 -100,44 -28,18 -51,40 -69,64 -17,24 -29,50 -34,79l-1 8zm922 353c-3,2 -7,5 -12,7l-175 -629c-6,-24 -18,-38 -35,-43 -17,-6 -38,-5 -64,2 -13,4 -24,8 -35,12 -6,2 -11,5 -16,7l-12 -44c7,-5 17,-9 28,-14 11,-4 22,-8 35,-11 26,-8 47,-9 64,-3 17,5 29,20 35,43l187 673zm226 -934c6,-6 15,-12 25,-18 10,-6 22,-12 34,-17 25,-11 46,-15 63,-13 18,3 31,16 42,38l287 636c-5,4 -10,9 -17,13l-270 -598c-11,-23 -24,-35 -42,-38 -17,-3 -38,2 -63,13 -12,5 -24,11 -34,17l-8 5 -17 -38zm-69 493c2,4 3,8 6,13l28 63c-4,7 -8,13 -14,19l-14 -31c-10,-20 -13,-37 -10,-52 0,-4 2,-8 4,-12zm-191 2c-13,-71 25,-126 114,-166l225 -102 20 42 -245 111c-66,30 -104,68 -114,115zm760 -525c3,7 5,13 9,19 12,22 30,35 53,42 23,6 47,7 73,2l124 -103c22,-19 40,-34 54,-45 14,-10 25,-18 34,-23 21,-12 39,-15 55,-9 16,5 29,16 38,31 6,10 10,20 14,28 3,9 6,17 8,24l-16 11 -6 -12c-9,-15 -22,-26 -38,-32 -16,-5 -34,-2 -55,10 -9,5 -20,13 -34,23 -14,11 -32,26 -54,44l-124 104c-26,4 -50,3 -73,-3 -23,-6 -41,-20 -53,-41 -13,-22 -16,-46 -9,-70zm396 66c12,4 24,8 36,13 29,14 55,38 75,73 22,38 30,77 24,116 -3,-22 -11,-43 -24,-65 -20,-35 -46,-59 -75,-73 -30,-13 -60,-20 -93,-21l57 -43zm-305 412c-6,-14 -7,-28 -3,-41 4,-17 13,-32 25,-45 23,6 50,9 81,8 31,0 65,-11 102,-33 36,-21 60,-46 71,-73 2,-3 3,-7 4,-10 6,21 5,41 -4,60 -11,28 -35,53 -71,74 -37,21 -71,32 -102,33 -31,1 -58,-2 -81,-8 -10,10 -17,22 -22,35zm-182 -190c-6,-13 -11,-26 -15,-39l60 -45c18,6 36,10 54,11l-99 73zm-68 -273c-1,-6 -2,-11 -2,-17 -1,-27 4,-55 16,-82 11,-27 29,-54 53,-79 24,-25 55,-49 91,-70 56,-33 103,-50 141,-50 37,-1 62,10 74,31 7,12 11,23 11,33 0,8 -2,18 -5,29 -2,-4 -3,-8 -6,-11 -12,-21 -37,-32 -74,-31 -38,0 -85,17 -141,49 -36,22 -67,45 -91,71 -24,25 -42,51 -53,79 -7,16 -12,32 -14,48zm1407 -132c-5,7 -12,14 -20,22l-382 -542c-14,-20 -30,-30 -48,-29 -17,0 -37,8 -59,24 -11,7 -20,15 -29,23l-1 0 -21 -29c6,-7 13,-14 22,-22 9,-8 18,-16 29,-23 22,-15 42,-23 59,-24 18,-1 34,9 48,29l402 571zm-567 -52c4,22 14,44 31,67 14,21 32,38 52,52 20,14 41,25 63,33 22,8 45,13 68,16 23,3 45,4 67,4 13,21 17,41 14,62 -1,4 -2,8 -3,12 -3,-7 -6,-16 -11,-24 -22,1 -44,0 -67,-3 -23,-3 -46,-8 -68,-16 -22,-8 -43,-19 -63,-33 -20,-14 -38,-31 -52,-52 -29,-41 -40,-80 -31,-118zm-156 20c-4,-27 -2,-54 5,-81 18,-70 66,-133 146,-189l92 -65 24 34 -116 82c-80,56 -128,119 -146,189 -2,10 -4,20 -5,30zm1007 -168c-5,7 -12,14 -20,22l-382 -542c-14,-20 -30,-30 -48,-29 -17,0 -37,8 -59,24 -11,7 -20,15 -29,23l-1 0 -21 -29c6,-7 13,-14 22,-22 9,-8 18,-15 29,-23 22,-15 42,-23 59,-24 18,-1 34,9 48,29l402 571zm-511 -694c4,12 4,24 0,37 -1,4 -3,9 -5,12 -19,-3 -38,-9 -57,-16 -21,-8 -38,-22 -52,-42 -18,-26 -24,-50 -16,-72l1 -5c4,9 9,18 15,27 14,19 31,33 52,41 20,8 41,14 62,18zm-275 -76c-3,-22 -2,-42 2,-62 6,-23 16,-43 30,-63 14,-19 31,-36 51,-50 25,-17 47,-26 67,-28 20,-1 37,7 49,25 6,8 10,17 12,26 3,10 4,18 4,25 -4,2 -8,4 -12,6l-4 -6c-12,-18 -29,-26 -49,-25 -20,2 -42,11 -67,28 -20,14 -37,31 -51,50 -14,19 -24,40 -30,63 -1,3 -1,7 -2,11z"/>
  <g id="_966516368">
   <path class="fil20" d="M9441 8525c-10,3 -21,5 -33,8 -13,3 -29,4 -49,4 -32,0 -57,-6 -76,-17 -19,-11 -28,-33 -28,-65l0 -260c-12,3 -25,5 -39,6 -14,0 -29,1 -47,1 -25,0 -50,-3 -74,-7 -25,-5 -46,-11 -63,-19 -20,18 -43,33 -68,45 -26,11 -54,19 -84,24 21,35 49,67 85,96 36,29 80,49 132,58 5,15 8,30 8,47 0,28 -9,51 -27,70 -18,19 -44,29 -80,29 -32,0 -62,-8 -90,-22 -27,-15 -53,-35 -76,-61 -23,-26 -43,-57 -61,-93 -17,-35 -32,-74 -43,-115l-20 0c-20,0 -39,-6 -55,-18 -17,-13 -25,-32 -25,-60 0,-16 2,-30 5,-42 4,-12 7,-22 12,-30l141 0c39,0 70,-10 92,-29 22,-20 33,-49 33,-85 0,-33 -8,-59 -25,-80 -17,-20 -44,-30 -80,-30 -20,0 -39,3 -56,9 -17,7 -32,14 -43,21 -14,-8 -25,-19 -34,-33 -8,-14 -13,-28 -13,-43 0,-19 5,-35 13,-48 9,-13 21,-24 36,-32 15,-9 33,-15 53,-19 21,-4 42,-6 66,-6 41,0 79,6 113,18 34,12 63,30 87,52 24,23 43,50 56,83 13,33 19,71 19,113 0,18 -1,36 -4,52 11,2 22,3 34,4 12,1 25,1 39,1 17,0 31,0 45,-2 13,-2 26,-4 38,-8l0 -288c10,-4 22,-7 37,-9 15,-3 32,-4 49,-4 33,0 58,6 75,18 16,12 25,33 25,62l0 704zm-2544 -1123c327,3 608,198 725,504 115,299 43,624 -205,838 -167,145 -240,323 -263,535 -23,215 -206,381 -411,385 -218,3 -403,-152 -439,-371 -3,-20 -9,-45 -1,-61 11,-23 34,-55 52,-55 24,1 53,23 69,45 13,18 9,48 14,73 29,143 162,248 302,240 151,-7 273,-122 290,-271 7,-62 18,-124 30,-185 34,-164 121,-295 250,-402 127,-105 200,-241 228,-405 57,-336 -196,-684 -533,-731 -230,-32 -425,30 -584,202 -28,30 -56,55 -95,18 -35,-34 -28,-68 1,-105 122,-156 345,-256 570,-254zm845 1445c-7,134 -113,240 -241,239 -48,0 -77,-23 -79,-69 -1,-43 29,-58 71,-61 108,-9 142,-69 95,-167 -20,-41 -20,-72 23,-94 43,-23 74,-1 92,36 17,37 27,77 39,116zm295 -8c-6,301 -254,536 -548,511 -44,-3 -67,-27 -66,-67 0,-38 23,-59 64,-60 46,-2 93,-6 137,-17 215,-58 320,-262 254,-495 -7,-28 -20,-55 -29,-83 -14,-43 -5,-79 41,-96 47,-18 67,15 78,50 25,85 46,171 69,257zm260 29c0,363 -246,675 -599,750 -62,14 -129,13 -192,5 -22,-2 -52,-41 -56,-67 -6,-37 24,-55 65,-56 485,-13 764,-416 613,-885 -15,-46 -34,-90 -53,-134 -18,-41 -11,-75 29,-95 44,-21 70,2 89,42 64,140 106,285 104,440zm-1405 -227c-1,-89 14,-121 63,-118 77,4 61,69 65,114 16,195 -111,376 -284,412 -92,19 -172,0 -233,-71 -64,-75 -78,-164 -39,-252 24,-54 63,-103 105,-146 68,-72 74,-87 18,-171 -13,-19 -25,-38 -41,-56 -121,-137 -85,-291 0,-415 142,-207 444,-245 636,-83 189,158 200,461 23,637 -17,17 -40,36 -61,37 -20,1 -54,-19 -59,-35 -6,-23 2,-59 18,-76 63,-69 104,-145 103,-241 -2,-148 -116,-275 -266,-295 -131,-17 -292,85 -331,210 -18,58 -6,111 28,160 32,46 65,93 92,142 44,80 36,157 -26,226 -29,32 -61,63 -89,96 -47,55 -52,129 -16,173 36,44 107,49 172,11 78,-44 124,-142 122,-259zm1497 2332c-1328,0 -2404,-1076 -2404,-2404 0,-1327 1076,-2403 2404,-2403 790,0 1490,381 1929,969l320 0c-474,-742 -1304,-1233 -2249,-1233 -1474,0 -2668,1194 -2668,2667 0,848 396,1604 1013,2092l-391 1273 987 -916c325,141 683,219 1059,219 1067,0 1988,-627 2414,-1533l-295 0c-405,755 -1202,1269 -2119,1269zm191 463c-415,0 -810,-75 -1172,-213l-421 309c353,138 736,214 1138,214 708,0 1360,-236 1884,-633 -428,207 -914,323 -1429,323zm-2055 -722c-653,-535 -1065,-1321 -1065,-2197 0,-1613 1397,-2920 3120,-2920 127,0 253,7 376,21 -265,-73 -543,-112 -831,-112 -1723,0 -3120,1397 -3120,3120 0,1099 569,2066 1428,2621l92 -533zm5043 -1244c-6,2 -13,4 -21,5 -8,1 -16,1 -24,1 -18,0 -32,-3 -41,-10 -10,-6 -15,-18 -15,-34l0 -463c5,-2 12,-3 20,-4 8,-1 16,-1 24,-1 18,0 32,3 42,9 10,7 15,18 15,34l0 463zm-231 0c-5,1 -11,2 -18,4 -7,2 -15,2 -24,2 -19,0 -34,-3 -44,-9 -9,-7 -14,-19 -14,-36l0 -81c-15,10 -32,18 -51,23 -19,6 -42,8 -70,8 -43,0 -82,-9 -117,-28 -35,-19 -62,-46 -81,-79 -7,-12 -13,-25 -17,-38 -4,-12 -6,-24 -6,-36 0,-10 2,-18 8,-23 6,-5 14,-8 24,-11l34 -7c25,-6 44,-15 58,-25 13,-10 20,-24 20,-42 0,-16 -5,-29 -15,-38 -10,-10 -24,-15 -41,-15 -13,0 -25,2 -35,6 -10,4 -19,8 -27,13 -17,-12 -25,-26 -25,-43 0,-17 9,-31 25,-42 17,-11 42,-17 74,-17 44,0 80,12 108,36 27,24 40,57 40,99 0,20 -3,37 -11,53 -7,15 -17,28 -29,39 -13,11 -28,21 -45,28 -17,7 -36,12 -56,16 8,17 22,33 43,48 21,14 47,22 80,22 29,0 53,-5 71,-14 18,-10 32,-19 41,-29l0 -284c5,-2 11,-3 19,-5 8,-1 16,-1 25,-1 19,0 33,3 42,9 9,7 14,18 14,34l0 463zm-800 -164c4,27 15,49 33,65 17,17 41,25 70,25 24,0 44,-6 59,-19 16,-12 23,-30 23,-53 0,-19 -6,-35 -18,-48 -13,-14 -35,-25 -67,-34l-32 -9c-34,-10 -61,-22 -83,-36l-187 0c-13,0 -22,3 -27,11 -6,7 -8,19 -8,34l0 46c-5,3 -11,6 -18,9 -7,2 -17,3 -28,3 -19,0 -37,-7 -51,-20 -15,-14 -23,-36 -23,-66 0,-68 39,-102 118,-102l170 0c0,-5 0,-11 0,-16 0,-43 16,-77 48,-102 33,-25 77,-38 134,-38 40,0 73,6 99,18 25,12 38,28 38,48 0,18 -7,32 -20,43 -15,-7 -31,-13 -50,-18 -19,-5 -38,-8 -59,-8 -23,0 -43,5 -60,13 -18,9 -26,23 -26,43 0,15 6,27 18,35 11,8 30,15 55,22l19 5c29,8 53,17 74,27 20,10 37,22 50,35 13,14 23,29 29,46 6,17 10,37 10,59 0,26 -5,48 -15,67 -9,19 -22,36 -39,49 -17,13 -37,23 -60,30 -23,6 -48,10 -75,10 -28,0 -54,-4 -77,-11 -23,-7 -43,-16 -59,-28 -17,-12 -29,-25 -38,-41 -9,-16 -13,-33 -13,-50 0,-17 5,-29 15,-37 11,-9 24,-13 40,-13 7,0 13,1 18,2 6,1 10,3 13,4zm-449 164c-6,2 -13,4 -21,5 -8,1 -16,1 -24,1 -18,0 -32,-3 -41,-10 -10,-6 -15,-18 -15,-34l0 -460c0,-75 24,-134 72,-175 48,-41 121,-62 217,-62 45,0 89,4 129,11 41,7 79,15 112,26 33,10 62,21 87,33 25,12 45,23 59,33 11,8 20,15 25,22 6,7 8,15 8,25 0,9 -4,19 -12,27 -8,9 -18,16 -31,19 -21,-13 -45,-27 -73,-41 -27,-13 -57,-26 -89,-36 -32,-11 -66,-20 -102,-26 -36,-7 -73,-10 -111,-10 -61,0 -108,14 -141,43 -33,29 -49,74 -49,133l0 476zm-478 -222c-9,0 -17,1 -25,4 -8,3 -16,7 -22,13 -6,5 -12,12 -16,21 -4,9 -6,19 -6,30 0,26 10,46 31,60 21,14 47,21 79,21 38,0 69,-12 92,-34 23,-23 35,-59 35,-108 0,-32 -3,-62 -10,-91 -6,-29 -12,-58 -19,-86 -7,-27 -14,-55 -20,-82 -6,-27 -9,-55 -9,-83 0,-22 3,-40 9,-56 7,-16 15,-30 26,-40 11,-11 23,-19 37,-24 15,-6 29,-8 45,-8 20,0 36,4 47,14 11,9 17,22 17,38 0,6 -1,12 -2,18 -2,7 -4,12 -7,15 -3,-1 -6,-1 -10,-2 -4,-1 -9,-1 -14,-1 -31,0 -47,18 -47,53 0,23 3,48 10,74 6,26 13,54 20,82 8,29 15,58 21,89 7,31 10,61 10,92 0,34 -5,65 -16,93 -10,27 -25,50 -45,70 -19,19 -44,34 -73,44 -29,11 -62,16 -100,16 -31,0 -60,-4 -85,-11 -26,-7 -48,-17 -67,-31 -18,-14 -33,-30 -43,-50 -10,-20 -16,-43 -16,-69 0,-23 6,-45 18,-66 11,-20 30,-36 57,-48 -22,-10 -40,-24 -53,-43 -13,-18 -19,-41 -19,-69 0,-19 3,-37 10,-54 7,-16 17,-31 31,-43 13,-13 29,-22 48,-29 18,-7 40,-11 64,-11 30,0 52,5 65,14 14,10 21,23 21,39 0,8 -2,15 -4,22 -3,6 -5,11 -8,15 -6,-2 -13,-3 -21,-5 -8,-2 -17,-2 -26,-2 -22,0 -40,5 -54,15 -15,10 -23,27 -23,49 0,21 6,37 19,48 12,11 28,17 47,17l62 0c3,4 5,10 8,16 2,7 3,15 3,24 0,10 -1,18 -3,24 -3,7 -5,12 -8,16l-61 0zm2365 -1897c11,0 22,1 34,4 11,3 23,7 35,14 13,6 27,15 42,28 15,12 32,27 52,45l168 158c-3,26 -11,47 -25,65 -14,17 -34,26 -59,26 -7,0 -15,-1 -23,-3 -8,-2 -18,-6 -30,-12 -12,-6 -26,-15 -44,-26 -17,-10 -38,-24 -63,-42l-198 -137c5,-37 16,-66 34,-87 18,-22 44,-33 77,-33zm350 1175c-9,4 -22,7 -38,8 -16,2 -32,3 -47,3 -33,0 -58,-6 -75,-18 -17,-11 -25,-32 -25,-63l0 -705c9,-3 22,-6 37,-8 15,-1 31,-2 47,-2 33,0 58,6 75,18 18,12 26,33 26,62l0 705zm-550 -537c0,-37 -7,-63 -21,-76 -14,-14 -31,-20 -51,-20 -20,0 -36,7 -49,22 -13,16 -20,40 -20,74 0,30 2,62 4,96 2,34 3,66 3,96 0,42 -7,79 -21,108 -14,30 -33,55 -57,74 -24,19 -53,33 -85,41 -32,9 -67,13 -103,13 -40,0 -78,-6 -115,-18 -36,-12 -68,-31 -95,-58 -27,-27 -49,-62 -65,-106 -16,-44 -24,-97 -24,-159 0,-40 4,-77 12,-113 7,-35 18,-66 30,-94 13,-27 27,-51 44,-72 16,-20 33,-36 50,-47 12,-8 24,-13 36,-16 12,-3 23,-5 35,-5 29,0 52,8 69,25 17,17 27,38 31,62 -31,23 -57,58 -80,105 -23,47 -35,102 -35,164 0,63 10,109 31,137 20,28 46,42 77,42 23,0 41,-7 56,-22 15,-15 22,-36 22,-65 0,-28 -1,-58 -3,-91 -2,-33 -4,-66 -4,-101 0,-39 7,-74 19,-104 13,-30 30,-56 52,-77 22,-20 49,-36 80,-47 31,-11 66,-16 104,-16 37,0 72,5 103,15 32,10 59,25 83,46 23,21 41,46 54,77 13,31 20,67 20,108l0 539c-11,4 -24,7 -40,8 -16,2 -31,3 -46,3 -33,0 -58,-6 -75,-18 -18,-11 -26,-32 -26,-63l0 -467zm-1032 83l0 -318c11,-4 24,-7 39,-9 15,-3 31,-4 47,-4 33,0 58,6 76,19 17,12 26,33 26,61l0 704c-10,3 -21,5 -34,8 -13,3 -29,4 -48,4 -33,0 -59,-6 -78,-17 -18,-11 -28,-33 -28,-65l0 -234 -179 0c-5,38 -21,68 -47,89 -27,20 -61,31 -102,31 -46,0 -81,-12 -104,-35 -23,-23 -35,-50 -35,-82 0,-17 2,-31 5,-44 4,-12 8,-24 12,-34l36 0c38,0 57,-21 57,-64l0 -93c0,-34 -8,-60 -24,-79 -17,-19 -40,-29 -69,-29 -19,0 -38,5 -55,14 -18,10 -34,24 -47,44 -14,19 -24,45 -33,76 -8,31 -12,68 -12,110 0,43 4,80 13,114 9,33 20,63 35,89 15,26 32,48 51,68 19,19 39,36 60,50 -2,29 -11,52 -28,70 -17,18 -41,27 -71,27 -30,0 -61,-10 -91,-31 -30,-22 -57,-51 -81,-89 -24,-37 -44,-82 -59,-133 -15,-51 -22,-106 -22,-165 0,-65 8,-122 24,-171 17,-50 40,-91 70,-124 30,-34 66,-59 108,-76 42,-17 88,-25 138,-25 90,0 159,23 207,70 48,47 72,109 72,186l0 87 171 0zm-1141 -538c0,-29 10,-55 30,-76 21,-22 47,-33 80,-33 17,0 32,3 45,10 14,6 25,15 35,25 9,11 16,22 22,35 5,13 7,26 7,39 0,31 -10,56 -30,77 -20,21 -46,31 -77,31 -34,0 -61,-10 -82,-31 -20,-21 -30,-46 -30,-77zm204 992c-10,4 -22,7 -38,8 -17,2 -32,3 -48,3 -33,0 -58,-6 -75,-18 -16,-11 -25,-32 -25,-63l0 -705c10,-3 22,-6 37,-8 15,-1 31,-2 48,-2 32,0 58,6 75,18 17,12 26,33 26,62l0 705z"/>
   <path class="fil21" d="M9441 8470c-10,3 -21,5 -33,8 -13,3 -29,4 -49,4 -32,0 -57,-6 -76,-17 -19,-11 -28,-33 -28,-65l0 -260c-12,3 -25,5 -39,6 -14,0 -29,1 -47,1 -25,0 -50,-3 -74,-7 -25,-5 -46,-11 -63,-19 -20,18 -43,33 -68,45 -26,11 -54,19 -84,24 21,35 49,67 85,96 36,29 80,49 132,58 5,15 8,31 8,47 0,28 -9,51 -27,70 -18,19 -44,29 -80,29 -32,0 -62,-8 -90,-22 -27,-15 -53,-35 -76,-61 -23,-26 -43,-57 -61,-93 -17,-35 -32,-74 -43,-115l-20 0c-20,0 -39,-6 -55,-18 -17,-13 -25,-32 -25,-60 0,-16 2,-30 5,-42 4,-12 7,-22 12,-30l141 0c39,0 70,-10 92,-29 22,-20 33,-49 33,-85 0,-33 -8,-59 -25,-80 -17,-20 -44,-30 -80,-30 -20,0 -39,3 -56,9 -17,7 -32,14 -43,21 -14,-8 -25,-19 -34,-33 -8,-14 -13,-28 -13,-43 0,-19 5,-35 13,-48 9,-13 21,-24 36,-32 15,-9 33,-15 53,-19 21,-4 42,-6 66,-6 41,0 79,6 113,18 34,12 63,30 87,52 24,23 43,50 56,83 13,33 19,71 19,113 0,19 -1,36 -4,52 11,2 22,3 34,4 12,1 25,1 39,1 17,0 31,0 45,-2 13,-2 26,-4 38,-8l0 -288c10,-4 22,-7 37,-9 15,-3 32,-4 49,-4 33,0 58,6 75,18 16,12 25,33 25,62l0 704zm-2544 -1123c327,3 608,198 725,504 115,299 43,625 -205,838 -167,145 -240,323 -263,535 -23,215 -206,381 -411,385 -218,4 -403,-152 -439,-371 -3,-20 -9,-45 -1,-61 11,-23 34,-55 52,-55 24,1 53,23 69,45 13,18 9,48 14,73 29,143 162,248 302,241 151,-8 273,-123 290,-272 7,-62 18,-124 30,-185 34,-164 121,-295 250,-402 127,-105 200,-241 228,-405 57,-336 -196,-684 -533,-731 -230,-32 -425,31 -584,202 -28,30 -56,55 -95,18 -35,-34 -28,-68 1,-105 122,-156 345,-256 570,-254zm845 1445c-7,134 -113,240 -241,239 -48,0 -77,-23 -79,-69 -1,-43 29,-58 71,-61 108,-9 142,-69 95,-167 -20,-41 -20,-72 23,-94 43,-23 74,-1 92,36 17,37 27,77 39,116zm295 -8c-6,301 -254,536 -548,511 -44,-3 -67,-27 -66,-67 0,-38 23,-59 64,-60 46,-2 93,-6 137,-17 215,-58 320,-262 254,-495 -7,-28 -20,-55 -29,-83 -14,-43 -5,-79 41,-96 47,-18 67,15 78,50 25,85 46,171 69,257zm260 29c0,363 -246,675 -599,750 -62,14 -129,13 -192,6 -22,-3 -52,-42 -56,-68 -6,-37 24,-55 65,-56 485,-13 764,-416 613,-885 -15,-46 -34,-90 -53,-133 -18,-42 -11,-76 29,-96 44,-21 70,2 89,42 64,140 106,285 104,440zm-1405 -227c-1,-89 14,-121 63,-118 77,4 61,69 65,114 16,196 -111,376 -284,412 -92,19 -172,0 -233,-71 -64,-75 -78,-164 -39,-252 24,-54 63,-103 105,-146 68,-71 74,-87 18,-171 -13,-19 -25,-38 -41,-56 -121,-137 -85,-291 0,-415 142,-207 444,-245 636,-83 189,158 200,461 23,637 -17,17 -40,36 -61,37 -20,1 -54,-19 -59,-35 -6,-23 2,-59 18,-76 63,-69 104,-145 103,-241 -2,-148 -116,-275 -266,-295 -131,-17 -292,85 -331,210 -18,58 -6,111 28,160 32,46 65,93 92,142 44,80 36,157 -26,226 -29,32 -61,63 -89,96 -47,55 -52,129 -16,173 36,44 107,49 172,11 78,-44 124,-142 122,-259zm1497 2332c-1328,0 -2404,-1076 -2404,-2404 0,-1327 1076,-2403 2404,-2403 790,0 1490,381 1929,969l320 0c-474,-742 -1304,-1233 -2249,-1233 -1474,0 -2668,1194 -2668,2667 0,848 396,1604 1013,2092l-391 1273 987 -916c325,141 683,219 1059,219 1067,0 1988,-627 2414,-1533l-295 0c-405,755 -1202,1269 -2119,1269zm191 463c-415,0 -810,-75 -1172,-213l-421 309c353,138 736,214 1138,214 708,0 1360,-236 1884,-633 -428,207 -914,323 -1429,323zm-2055 -722c-653,-535 -1065,-1321 -1065,-2197 0,-1613 1397,-2920 3120,-2920 127,0 253,7 376,21 -265,-73 -543,-112 -831,-112 -1723,0 -3120,1397 -3120,3120 0,1099 569,2066 1428,2621l92 -533zm5043 -1243c-6,1 -13,3 -21,4 -8,1 -16,1 -24,1 -18,0 -32,-3 -41,-10 -10,-6 -15,-18 -15,-34l0 -463c5,-2 12,-3 20,-4 8,-1 16,-1 24,-1 18,0 32,3 42,9 10,7 15,18 15,35l0 463zm-231 -1c-5,1 -11,2 -18,4 -7,2 -15,2 -24,2 -19,0 -34,-3 -44,-9 -9,-7 -14,-19 -14,-36l0 -81c-15,10 -32,18 -51,23 -19,6 -42,8 -70,8 -43,0 -82,-9 -117,-28 -35,-19 -62,-46 -81,-79 -7,-12 -13,-25 -17,-38 -4,-12 -6,-24 -6,-36 0,-10 2,-18 8,-23 6,-5 14,-8 24,-11l34 -7c25,-6 44,-15 58,-25 13,-10 20,-24 20,-42 0,-16 -5,-29 -15,-38 -10,-10 -24,-15 -41,-15 -13,0 -25,2 -35,6 -10,4 -19,8 -27,13 -17,-12 -25,-26 -25,-43 0,-17 9,-31 25,-42 17,-11 42,-17 74,-17 44,0 80,12 108,36 27,24 40,58 40,100 0,19 -3,37 -11,52 -7,15 -17,28 -29,39 -13,11 -28,21 -45,28 -17,7 -36,12 -56,16 8,17 22,33 43,48 21,14 47,22 80,22 29,0 53,-5 71,-14 18,-10 32,-19 41,-29l0 -284c5,-2 11,-3 19,-5 8,-1 16,-1 25,-1 19,0 33,3 42,9 9,7 14,18 14,35l0 462zm-800 -164c4,27 15,49 33,65 17,17 41,25 70,25 24,0 44,-6 59,-19 16,-12 23,-30 23,-53 0,-19 -6,-35 -18,-48 -13,-14 -35,-25 -67,-34l-32 -9c-34,-10 -61,-22 -83,-36l-187 0c-13,0 -22,3 -27,11 -6,7 -8,19 -8,34l0 46c-5,4 -11,6 -18,9 -7,2 -17,3 -28,3 -19,0 -37,-7 -51,-20 -15,-14 -23,-36 -23,-66 0,-68 39,-102 118,-102l170 0c0,-5 0,-11 0,-16 0,-43 16,-77 48,-102 33,-25 77,-38 134,-38 40,0 73,6 99,18 25,12 38,28 38,48 0,18 -7,32 -20,43 -15,-7 -31,-13 -50,-18 -19,-5 -38,-8 -59,-8 -23,0 -43,5 -60,13 -18,9 -26,23 -26,43 0,15 6,27 18,35 11,8 30,15 55,22l19 5c29,8 53,17 74,27 20,10 37,22 50,35 13,14 23,29 29,46 6,17 10,37 10,59 0,26 -5,48 -15,67 -9,19 -22,36 -39,49 -17,13 -37,23 -60,30 -23,6 -48,10 -75,10 -28,0 -54,-4 -77,-11 -23,-7 -43,-16 -59,-28 -17,-12 -29,-25 -38,-41 -9,-16 -13,-33 -13,-50 0,-17 5,-29 15,-37 11,-9 24,-13 40,-13 7,0 13,1 18,2 6,1 10,3 13,4zm-449 165c-6,1 -13,3 -21,4 -8,1 -16,1 -24,1 -18,0 -32,-3 -41,-10 -10,-6 -15,-18 -15,-34l0 -460c0,-75 24,-134 72,-175 48,-41 121,-62 217,-62 45,0 89,4 129,11 41,7 79,15 112,26 33,10 62,21 87,33 25,12 45,23 59,33 11,8 20,15 25,22 6,7 8,15 8,25 0,9 -4,19 -12,28 -8,8 -18,15 -31,18 -21,-13 -45,-27 -73,-41 -27,-13 -57,-26 -89,-36 -32,-11 -66,-20 -102,-26 -36,-7 -73,-10 -111,-10 -61,0 -108,14 -141,43 -33,29 -49,74 -49,133l0 477zm-478 -223c-9,0 -17,1 -25,4 -8,3 -16,7 -22,13 -6,5 -12,12 -16,21 -4,9 -6,19 -6,30 0,26 10,46 31,60 21,14 47,21 79,21 38,0 69,-12 92,-34 23,-23 35,-59 35,-108 0,-32 -3,-62 -10,-91 -6,-29 -12,-58 -19,-85 -7,-28 -14,-56 -20,-83 -6,-27 -9,-55 -9,-83 0,-21 3,-40 9,-56 7,-16 15,-30 26,-40 11,-11 23,-19 37,-24 15,-6 29,-8 45,-8 20,0 36,4 47,14 11,9 17,22 17,38 0,6 -1,12 -2,18 -2,7 -4,12 -7,16 -3,-2 -6,-2 -10,-3 -4,-1 -9,-1 -14,-1 -31,0 -47,18 -47,53 0,23 3,48 10,74 6,26 13,54 20,82 8,29 15,59 21,89 7,31 10,61 10,92 0,34 -5,65 -16,93 -10,27 -25,50 -45,70 -19,19 -44,34 -73,44 -29,11 -62,16 -100,16 -31,0 -60,-4 -85,-11 -26,-7 -48,-17 -67,-31 -18,-14 -33,-30 -43,-50 -10,-20 -16,-43 -16,-69 0,-23 6,-45 18,-66 11,-20 30,-36 57,-48 -22,-10 -40,-24 -53,-43 -13,-18 -19,-41 -19,-69 0,-19 3,-37 10,-54 7,-16 17,-31 31,-43 13,-13 29,-22 48,-29 18,-7 40,-11 64,-11 30,0 52,5 65,15 14,9 21,22 21,38 0,8 -2,15 -4,22 -3,6 -5,11 -8,15 -6,-2 -13,-3 -21,-5 -8,-2 -17,-2 -26,-2 -22,0 -40,5 -54,15 -15,10 -23,27 -23,49 0,21 6,37 19,48 12,11 28,17 47,17l62 0c3,4 5,10 8,16 2,7 3,15 3,24 0,10 -1,18 -3,24 -3,7 -5,12 -8,16l-61 0zm2365 -1897c11,0 22,1 34,4 11,3 23,7 35,14 13,6 27,15 42,28 15,12 32,27 52,45l168 159c-3,25 -11,46 -25,64 -14,18 -34,26 -59,26 -7,0 -15,-1 -23,-3 -8,-2 -18,-6 -30,-12 -12,-6 -26,-15 -44,-25 -17,-11 -38,-25 -63,-43l-198 -137c5,-37 16,-66 34,-87 18,-22 44,-33 77,-33zm350 1176c-9,3 -22,6 -38,7 -16,2 -32,3 -47,3 -33,0 -58,-6 -75,-18 -17,-11 -25,-32 -25,-63l0 -705c9,-3 22,-6 37,-8 15,-1 31,-2 47,-2 33,0 58,6 75,18 18,12 26,33 26,62l0 706zm-550 -538c0,-37 -7,-63 -21,-76 -14,-14 -31,-20 -51,-20 -20,0 -36,7 -49,22 -13,16 -20,40 -20,74 0,30 2,62 4,96 2,34 3,66 3,96 0,42 -7,79 -21,108 -14,30 -33,55 -57,74 -24,19 -53,33 -85,41 -32,9 -67,13 -103,13 -40,0 -78,-6 -115,-18 -36,-12 -68,-31 -95,-58 -27,-27 -49,-62 -65,-106 -16,-44 -24,-97 -24,-159 0,-40 4,-77 12,-112 7,-36 18,-67 30,-95 13,-27 27,-51 44,-72 16,-20 33,-36 50,-47 12,-8 24,-13 36,-16 12,-3 23,-5 35,-5 29,0 52,9 69,25 17,17 27,38 31,62 -31,23 -57,59 -80,105 -23,47 -35,102 -35,164 0,63 10,109 31,137 20,28 46,42 77,42 23,0 41,-7 56,-22 15,-15 22,-36 22,-65 0,-28 -1,-58 -3,-91 -2,-33 -4,-66 -4,-101 0,-39 7,-74 19,-104 13,-30 30,-56 52,-77 22,-20 49,-36 80,-47 31,-11 66,-16 104,-16 37,0 72,5 103,15 32,10 59,25 83,46 23,21 41,46 54,77 13,31 20,67 20,109l0 539c-11,3 -24,6 -40,7 -16,2 -31,3 -46,3 -33,0 -58,-6 -75,-18 -18,-11 -26,-32 -26,-63l0 -467zm-1032 83l0 -318c11,-4 24,-7 39,-9 15,-3 31,-4 47,-4 33,0 58,6 76,19 17,12 26,33 26,61l0 704c-10,3 -21,5 -34,8 -13,3 -29,4 -48,4 -33,0 -59,-6 -78,-17 -18,-11 -28,-33 -28,-65l0 -234 -179 0c-5,38 -21,68 -47,89 -27,20 -61,31 -102,31 -46,0 -81,-12 -104,-35 -23,-23 -35,-50 -35,-82 0,-17 2,-31 5,-44 4,-12 8,-24 12,-34l36 0c38,0 57,-21 57,-64l0 -93c0,-34 -8,-60 -24,-79 -17,-19 -40,-29 -69,-29 -19,0 -38,5 -55,14 -18,10 -34,24 -47,44 -14,19 -24,45 -33,76 -8,31 -12,68 -12,110 0,43 4,81 13,114 9,33 20,63 35,89 15,26 32,49 51,68 19,19 39,36 60,50 -2,29 -11,52 -28,70 -17,18 -41,27 -71,27 -30,0 -61,-10 -91,-31 -30,-22 -57,-51 -81,-89 -24,-37 -44,-82 -59,-133 -15,-51 -22,-106 -22,-165 0,-65 8,-122 24,-171 17,-50 40,-91 70,-124 30,-34 66,-59 108,-76 42,-16 88,-25 138,-25 90,0 159,23 207,70 48,47 72,109 72,186l0 87 171 0zm-1141 -538c0,-29 10,-55 30,-76 21,-22 47,-33 80,-33 17,0 32,3 45,10 14,6 25,15 35,25 9,11 16,22 22,35 5,13 7,26 7,39 0,31 -10,56 -30,77 -20,21 -46,31 -77,31 -34,0 -61,-10 -82,-31 -20,-21 -30,-46 -30,-77zm204 993c-10,3 -22,6 -38,7 -17,2 -32,3 -48,3 -33,0 -58,-6 -75,-18 -16,-11 -25,-32 -25,-63l0 -705c10,-3 22,-6 37,-8 15,-1 31,-2 48,-2 32,0 58,6 75,18 17,12 26,33 26,62l0 706z"/>
   <path class="fil22" d="M8914 8238c15,17 32,33 51,48 36,29 80,49 132,58 5,15 8,31 8,47 0,9 -1,18 -3,26 -2,-6 -3,-12 -5,-18 -52,-9 -96,-29 -132,-58 -36,-29 -64,-61 -85,-96 12,-2 23,-4 34,-7zm-284 -93c-1,-7 -2,-15 -2,-24 0,-16 2,-30 5,-42 4,-12 7,-22 12,-30l141 0c39,0 70,-10 92,-29 16,-15 26,-34 31,-58 1,9 2,18 2,28 0,36 -11,65 -33,85 -22,19 -53,29 -92,29l-141 0c-5,8 -8,18 -12,30 -1,4 -2,8 -3,11zm35 -341c-3,-8 -5,-16 -5,-25 0,-19 5,-35 13,-48 9,-13 21,-24 36,-32 15,-9 33,-15 53,-19 21,-4 42,-6 66,-6 41,0 79,6 113,18 34,12 63,30 87,52 24,23 43,50 56,83 13,33 19,71 19,113 0,10 0,18 -1,27 -2,-31 -8,-59 -18,-85 -13,-33 -32,-60 -56,-83 -24,-22 -53,-40 -87,-52 -34,-12 -72,-18 -113,-18 -24,0 -45,2 -66,6 -20,4 -38,10 -53,19 -15,8 -27,19 -36,32 -3,6 -6,12 -8,18zm438 189c10,1 19,2 30,3 12,1 25,1 39,1 17,0 31,0 45,-2 13,-2 26,-4 38,-8l0 55c-12,4 -25,6 -38,8 -14,2 -28,2 -45,2 -14,0 -27,0 -39,-1 -12,-1 -23,-2 -34,-4 3,-16 4,-34 4,-52l0 -2zm152 -239l0 -55c10,-4 22,-7 37,-9 15,-3 32,-4 49,-4 33,0 58,6 75,18 16,12 25,33 25,62l0 54c0,-29 -9,-49 -25,-61 -17,-12 -42,-18 -75,-18 -17,0 -34,1 -49,4 -15,2 -27,5 -37,9zm-2358 -407c327,3 608,198 725,504 39,102 57,207 53,309 -3,-85 -21,-171 -53,-254 -117,-306 -398,-501 -725,-504 -225,-2 -448,98 -570,254 -8,9 -14,19 -18,28 -14,-27 -5,-54 18,-83 122,-156 345,-256 570,-254zm-594 1884c-3,-19 -7,-40 0,-54 11,-23 34,-55 52,-55 24,1 53,23 69,45 13,18 9,48 14,73 29,143 162,248 302,241 151,-8 273,-123 290,-272 7,-62 18,-124 30,-185 34,-164 121,-295 250,-402 127,-105 200,-241 228,-405 4,-23 6,-46 7,-68 2,41 0,82 -7,123 -28,164 -101,300 -228,405 -129,107 -216,238 -250,402 -12,61 -23,123 -30,185 -17,149 -139,264 -290,271 -140,8 -273,-97 -302,-240 -5,-25 -1,-55 -14,-73 -16,-22 -45,-44 -69,-45 -18,0 -41,32 -52,54zm1439 -439c0,14 -2,27 -5,39 -10,-34 -19,-69 -34,-100 -18,-37 -49,-59 -92,-36 -14,7 -24,15 -29,25 -13,-34 -8,-61 29,-80 43,-23 74,-1 92,36 17,37 27,77 39,116zm-315 197c-3,-8 -4,-17 -5,-27 -1,-43 29,-58 71,-61 63,-5 101,-28 112,-65 16,70 -23,113 -112,120 -31,3 -56,11 -66,33zm610 -205c0,15 -1,30 -3,45 -21,-83 -42,-166 -66,-247 -11,-35 -31,-68 -78,-50 -22,8 -36,21 -42,37 -12,-42 -3,-75 42,-92 47,-18 67,15 78,50 25,85 46,171 69,257zm-610 473c-3,-9 -4,-18 -4,-29 0,-38 23,-59 64,-60 46,-2 93,-6 137,-17 163,-44 263,-172 273,-333 11,186 -92,339 -273,388 -44,11 -91,15 -137,17 -30,1 -51,13 -60,34zm870 -444c0,8 0,15 0,23 -4,-143 -44,-278 -104,-408 -19,-40 -45,-63 -89,-42 -16,8 -27,19 -33,31 -13,-37 -4,-67 33,-86 44,-21 70,2 89,42 64,140 106,285 104,440zm-840 709c-4,-7 -6,-15 -7,-21 -6,-37 24,-55 65,-56 385,-10 640,-266 653,-606 14,367 -247,650 -653,661 -25,1 -47,8 -58,22zm-565 -936c-1,-89 14,-121 63,-118 77,4 61,69 65,114 1,21 1,42 0,62l0 -7c-4,-45 12,-110 -65,-114 -49,-3 -64,29 -63,118 2,117 -44,215 -122,259 -65,38 -136,33 -172,-11 -22,-26 -28,-62 -21,-98 4,16 10,31 21,43 36,44 107,49 172,11 78,-44 124,-142 122,-259zm-448 211c-5,-41 1,-84 20,-126 24,-54 63,-103 105,-146 24,-26 41,-44 49,-61 17,41 1,63 -49,116 -42,43 -81,92 -105,146 -10,24 -17,47 -20,71zm26 -666c-9,-87 25,-173 76,-248 142,-207 444,-245 636,-83 106,89 156,224 148,356 -7,-113 -56,-224 -148,-301 -192,-162 -494,-124 -636,83 -40,59 -70,125 -76,193zm618 314c-1,-2 -2,-4 -3,-6 -6,-23 2,-59 18,-76 56,-61 95,-128 102,-209 1,8 1,15 1,23 1,96 -40,172 -103,241 -6,7 -11,16 -15,27zm-485 -327c5,27 16,54 34,79 32,46 65,93 92,142 24,43 32,85 26,126 -4,-23 -13,-47 -26,-71 -27,-49 -60,-96 -92,-142 -29,-42 -42,-86 -34,-134zm1786 2800c-1318,0 -2389,-1061 -2403,-2376l-1 27c0,1328 1076,2404 2404,2404 917,0 1714,-514 2119,-1269l269 0c9,-18 18,-37 26,-55l-295 0c-405,755 -1202,1269 -2119,1269zm2213 -3838l36 0c-474,-742 -1304,-1233 -2249,-1233 -1474,0 -2668,1194 -2668,2667l1 35c10,-1464 1200,-2647 2667,-2647 921,0 1734,467 2213,1178zm-3882 3570l-377 1229 24 -22 367 -1196 -14 -11zm1860 731c-415,0 -810,-75 -1172,-213l-421 309c16,6 33,12 49,19l372 -273c362,138 757,213 1172,213 430,0 841,-81 1214,-229 74,-47 145,-97 215,-149 -428,207 -914,323 -1429,323zm-2055 -722c-644,-528 -1054,-1300 -1065,-2162l0 20c0,872 409,1655 1057,2190l8 -48zm2075 -5117c120,1 239,8 356,21 -265,-73 -543,-112 -831,-112 -1723,0 -3120,1397 -3120,3120l0 33c12,-1713 1404,-3098 3120,-3098 161,0 320,12 475,36zm2867 3427l0 -55c5,-2 12,-3 20,-4 8,-1 16,-1 24,-1 18,0 32,3 42,9 10,7 15,18 15,35l0 53c-1,-16 -5,-26 -15,-33 -10,-6 -24,-9 -42,-9 -8,0 -16,0 -24,1 -8,1 -15,2 -20,4zm-567 211c-3,-12 -5,-24 -5,-35 0,-10 2,-18 8,-23 6,-5 14,-8 24,-11l34 -7c25,-6 44,-15 58,-25 6,-4 10,-9 13,-15 5,8 7,18 7,28 0,18 -7,32 -20,42 -14,10 -33,19 -58,25l-34 7c-10,3 -18,6 -24,11l-3 3zm5 -192c-6,-8 -9,-18 -9,-28 0,-17 9,-31 25,-42 17,-11 42,-17 74,-17 44,0 80,12 108,36 27,24 40,58 40,100 0,9 -1,17 -2,26 -5,-29 -18,-52 -38,-71 -28,-24 -64,-36 -108,-36 -32,0 -57,6 -74,17 -6,5 -12,9 -16,15zm136 229l4 3c21,14 47,22 80,22 29,0 53,-5 71,-14 18,-10 32,-19 41,-29l0 55c-9,10 -23,19 -41,29 -18,9 -42,14 -71,14 -33,0 -59,-8 -80,-22 -21,-15 -35,-31 -43,-48 14,-3 27,-6 39,-10zm196 -247l0 -55c5,-2 11,-3 19,-5 8,-1 16,-1 25,-1 19,0 33,3 42,9 9,7 14,18 14,35l0 53c-1,-16 -5,-26 -14,-33 -9,-6 -23,-9 -42,-9 -9,0 -17,0 -25,1 -8,2 -14,3 -19,5zm-700 281c4,27 15,49 33,65 17,17 41,25 70,25 24,0 44,-6 59,-19 9,-6 15,-15 19,-25 3,9 4,18 4,27 0,23 -7,41 -23,53 -15,13 -35,19 -59,19 -29,0 -53,-8 -70,-25 -18,-16 -29,-38 -33,-65 -3,-1 -7,-3 -13,-4 -5,-1 -11,-2 -18,-2 -16,0 -29,4 -40,13 -4,3 -8,8 -10,13 -4,-10 -5,-21 -5,-31 0,-17 5,-29 15,-37 11,-9 24,-13 40,-13 7,0 13,1 18,2 6,1 10,3 13,4zm-354 -64c-2,-9 -3,-18 -3,-28 0,-68 39,-102 118,-102l170 0c0,-5 0,-11 0,-16 0,-43 16,-77 48,-102 24,-18 54,-30 91,-35 17,9 32,18 46,27 13,-3 23,-10 31,-19 3,-2 5,-5 7,-8 22,2 41,8 58,15 25,12 38,28 38,48 0,11 -3,21 -8,30 -7,-9 -17,-16 -30,-23 -26,-12 -59,-18 -99,-18 -57,0 -101,13 -134,38 -32,25 -48,59 -48,102 0,5 0,11 0,16l-170 0c-67,0 -106,25 -115,75zm397 -121c3,4 6,6 10,9 11,8 30,15 55,22l19 5c29,8 53,17 74,27 20,10 37,22 50,35 13,14 23,29 29,46 6,17 10,37 10,59 0,9 -1,18 -2,27 -2,-11 -4,-22 -8,-31 -6,-17 -16,-32 -29,-46 -13,-13 -30,-25 -50,-35 -21,-10 -45,-19 -74,-27l-19 -5c-25,-7 -44,-14 -55,-22 -12,-8 -18,-20 -18,-35 0,-11 3,-21 8,-29zm-593 -97l0 -52c0,-75 24,-134 72,-175 48,-41 121,-62 217,-62 45,0 89,4 129,11 41,7 79,15 112,26 33,10 62,21 87,33 25,12 45,23 59,33 11,8 20,15 25,22 6,7 8,15 8,25 0,9 -3,18 -11,26 -5,-6 -13,-12 -22,-18 -14,-10 -34,-21 -59,-33 -25,-12 -54,-23 -87,-33 -33,-11 -71,-19 -112,-26 -40,-7 -84,-11 -129,-11 -96,0 -169,21 -217,62 -47,40 -71,98 -72,172zm-441 320c5,13 13,23 26,32 21,14 47,21 79,21 38,0 69,-12 92,-34 19,-19 30,-47 34,-84 0,11 1,21 1,31 0,49 -12,85 -35,108 -23,22 -54,34 -92,34 -32,0 -58,-7 -79,-21 -21,-14 -31,-34 -31,-60 0,-10 1,-19 5,-27zm175 -399c-1,-10 -1,-21 -1,-32 0,-21 3,-40 9,-56 7,-16 15,-30 26,-40 11,-11 23,-19 37,-24 15,-6 29,-8 45,-8 20,0 36,4 47,14 11,9 17,22 17,38 0,6 -1,12 -2,18 -1,4 -3,8 -4,11 -3,-5 -7,-9 -11,-12 -11,-10 -27,-14 -47,-14 -16,0 -30,2 -45,8 -14,5 -26,13 -37,24 -11,10 -19,24 -26,40 -4,10 -6,21 -8,33zm103 10c1,12 3,25 7,39 6,26 13,54 20,82 8,29 15,59 21,89 7,31 10,61 10,92 0,9 0,17 -1,25 -1,-20 -4,-41 -9,-62 -6,-31 -13,-60 -21,-89 -7,-28 -14,-56 -20,-82 -7,-26 -10,-51 -10,-74 0,-8 1,-14 3,-20zm-384 393c-2,-9 -3,-19 -3,-29 0,-23 6,-45 18,-66 4,-8 10,-15 16,-21 11,11 25,21 41,28 -27,12 -46,28 -57,48 -8,13 -13,26 -15,40zm2 -227c-1,-9 -2,-18 -2,-28 0,-19 3,-37 10,-54 7,-16 17,-31 31,-43 13,-13 29,-22 48,-29 18,-7 40,-11 64,-11 30,0 52,5 65,15 14,9 21,22 21,38 0,8 -2,15 -4,22 -1,2 -3,5 -4,7 -3,-4 -7,-9 -13,-13 -13,-9 -35,-14 -65,-14 -24,0 -46,4 -64,11 -19,7 -35,16 -48,29 -14,12 -24,27 -31,43 -3,9 -6,18 -8,27zm106 10c3,8 8,15 14,20 12,11 28,17 47,17l62 0c3,4 5,10 8,16 2,7 3,15 3,24 0,10 -1,18 -3,24l-2 4c-2,-5 -4,-9 -6,-13l-62 0c-19,0 -35,-6 -47,-17 -13,-11 -19,-27 -19,-48 0,-10 2,-19 5,-27zm2427 -1780c11,0 22,1 34,4 11,3 23,7 35,14 13,6 27,15 42,28 15,12 32,27 52,45l168 159c-2,16 -6,30 -12,43l-156 -147c-20,-18 -37,-33 -52,-45 -15,-13 -29,-22 -42,-28 -12,-7 -24,-11 -35,-14 -12,-3 -23,-4 -34,-4 -33,0 -59,11 -77,33 -9,11 -17,24 -23,39l-11 -7c5,-37 16,-66 34,-87 18,-22 44,-33 77,-33zm165 455l0 -55c9,-3 22,-6 37,-8 5,0 11,-1 17,-1l5 1c8,2 16,3 23,3 10,0 19,-1 28,-4 20,3 37,8 49,17 18,12 26,33 26,62l0 54c0,-29 -8,-49 -26,-61 -17,-12 -42,-18 -75,-18 -16,0 -32,1 -47,2 -15,2 -28,5 -37,8zm-505 222c1,18 1,37 3,57 2,34 3,66 3,96 0,7 0,13 -1,19 0,-19 -1,-39 -2,-60 -2,-34 -4,-66 -4,-96 0,-6 1,-11 1,-16zm-558 76c-1,-9 -1,-18 -1,-28 0,-40 4,-77 12,-112 7,-36 18,-67 30,-95 13,-27 27,-51 44,-72 16,-20 33,-36 50,-47 12,-8 24,-13 36,-16 12,-3 23,-5 35,-5 29,0 52,9 69,25 17,17 27,38 31,62 -6,4 -11,8 -15,13 -5,-7 -10,-14 -16,-20 -17,-17 -40,-25 -69,-25 -12,0 -23,2 -35,5 -12,3 -24,8 -36,16 -17,11 -34,27 -50,47 -17,21 -31,45 -44,72 -12,28 -23,59 -30,94 -6,28 -10,56 -11,86zm192 9c3,49 13,85 30,109 20,28 46,42 77,42 23,0 41,-7 56,-22 12,-12 19,-29 21,-50 1,14 1,27 1,40 0,29 -7,50 -22,65 -15,15 -33,22 -56,22 -31,0 -57,-14 -77,-42 -21,-28 -31,-74 -31,-137 0,-9 0,-18 1,-27zm179 -90c0,-13 -1,-25 -1,-38 0,-39 7,-74 19,-104 13,-30 30,-56 52,-77 22,-20 49,-36 80,-47 31,-11 66,-16 104,-16 37,0 72,5 103,15 32,10 59,25 83,46 23,21 41,46 54,77 13,31 20,67 20,109l0 51c-1,-40 -7,-75 -20,-105 -13,-31 -31,-56 -54,-77 -24,-21 -51,-36 -83,-46 -31,-10 -66,-15 -103,-15 -38,0 -73,5 -104,16 -31,11 -58,27 -80,47 -22,21 -39,47 -52,77 -10,26 -17,55 -18,87zm-705 -214l0 -55c11,-4 24,-7 39,-9 15,-3 31,-4 47,-4 33,0 58,6 76,19 17,12 26,33 26,61l0 54c-1,-28 -9,-48 -26,-60 -18,-13 -43,-19 -76,-19 -16,0 -32,1 -47,4 -15,2 -28,5 -39,9zm-465 439c-1,-8 -2,-16 -2,-24 0,-17 2,-31 5,-44 4,-12 8,-24 12,-34l36 0c38,0 57,-21 57,-62l0 53c0,43 -19,64 -57,64l-36 0c-4,10 -8,22 -12,34 -1,4 -2,9 -3,13zm-131 -96c1,32 5,61 12,87 9,33 20,63 35,89 15,26 32,49 51,68 19,19 39,36 60,50 -2,18 -5,33 -12,47 -17,-12 -33,-26 -48,-42 -19,-20 -36,-42 -51,-68 -15,-26 -26,-56 -35,-89 -9,-34 -13,-71 -13,-114 0,-9 0,-19 1,-28zm-194 0c0,-9 0,-18 0,-27 0,-65 8,-122 24,-171 17,-50 40,-91 70,-124 30,-34 66,-59 108,-76 42,-16 88,-25 138,-25 90,0 159,23 207,70 48,47 72,109 72,186l0 51c-1,-75 -25,-136 -72,-182 -48,-47 -117,-70 -207,-70 -50,0 -96,8 -138,25 -42,17 -78,42 -108,76 -30,33 -53,74 -70,124 -14,42 -22,90 -24,143zm619 -80l171 0 0 55 -171 0 0 -55zm-970 -538c0,-29 10,-55 30,-76 21,-22 47,-33 80,-33 17,0 32,3 45,10 14,6 25,15 35,25 9,11 16,22 22,35 5,13 7,26 7,39 0,10 -1,20 -3,29 -1,-4 -3,-8 -4,-13 -6,-13 -13,-24 -22,-35 -10,-10 -21,-19 -35,-25 -13,-7 -28,-10 -45,-10 -33,0 -59,11 -80,33 -13,14 -22,31 -27,49 -2,-9 -3,-18 -3,-28zm18 272l0 -55c10,-3 22,-6 37,-8 15,-1 31,-2 48,-2 32,0 58,6 75,18 17,12 26,33 26,62l0 54c0,-29 -9,-49 -26,-61 -17,-12 -43,-18 -75,-18 -17,0 -33,1 -48,2 -15,2 -27,5 -37,8z"/>
  </g>
 </g>
</svg>
