<svg width="56" height="54" viewBox="0 0 56 54" fill="none" xmlns="http://www.w3.org/2000/svg">
<g clip-path="url(#clip0)">
<path fill-rule="evenodd" clip-rule="evenodd" d="M12.4566 11.7471C12.6751 12.2839 13.518 17.4629 13.2682 17.9681C12.8312 18.8839 13.1122 19.6418 13.7053 20.3365C14.0486 20.7471 14.4545 21.0944 14.829 21.505C15.0788 21.7576 15.3285 22.0102 15.547 22.2944C16.2338 23.1786 16.0465 23.8418 15.0163 24.2839C14.8915 24.3471 14.7666 24.3786 14.673 24.4102C14.4545 24.5365 14.3608 24.726 14.4545 24.9786C14.5169 25.1365 14.6105 25.2629 14.673 25.4208C14.8603 25.8629 14.7666 26.2734 14.3608 26.526C14.1423 26.6523 13.9238 26.7471 13.7053 26.8418C13.518 26.9365 13.3307 26.9997 13.1434 27.1576C13.3307 27.1892 13.4868 27.2208 13.674 27.2839C13.955 27.3471 14.2359 27.3786 14.4857 27.4734C14.8915 27.6313 15.0163 28.0102 14.829 28.3892C14.7978 28.4523 14.7666 28.5471 14.7042 28.6102C14.2359 29.2102 14.2359 29.8734 14.4545 30.5365C14.6417 31.1681 14.4857 31.6102 13.8613 31.8944C13.0809 32.2734 12.2381 32.305 11.3953 32.3365C11.1455 32.3365 10.8958 32.3365 10.6149 32.3365C10.0842 32.3365 9.89689 32.7471 9.74081 33.1576C9.55352 33.726 9.42865 34.326 9.27257 34.8944C9.21014 35.1155 9.17892 35.305 8.89798 35.2734C8.64825 35.2418 8.52338 35.0523 8.61703 34.7681C8.74189 34.1997 8.86676 33.6313 9.05406 33.0629C9.11649 32.8102 9.27257 32.5892 9.39743 32.3681C9.7096 31.7997 10.2403 31.6734 10.8334 31.6418C11.5826 31.6102 12.3005 31.5155 13.0497 31.4208C13.1746 31.4208 13.2682 31.3576 13.3931 31.326C13.8301 31.1681 13.8613 31.0418 13.7365 30.5997C13.518 29.7786 13.4868 28.9576 14.0799 28.2313C14.1111 28.1997 14.1111 28.1681 14.1423 28.1365C14.1423 28.105 14.1423 28.105 14.1423 28.0418C13.8926 28.0102 13.6428 27.9786 13.3931 27.9155C13.0497 27.7892 12.7063 27.6629 12.3942 27.4734C12.082 27.2839 12.082 26.9365 12.363 26.6839C12.5815 26.526 12.8312 26.3997 13.0809 26.2734C13.3307 26.1471 13.5804 26.0839 13.8301 25.9892C14.0174 25.926 14.0799 25.7997 13.955 25.6102C13.8926 25.5155 13.8613 25.3892 13.7989 25.2944C13.518 24.7576 13.7365 23.9365 14.4232 23.6839C14.5481 23.6523 14.673 23.5892 14.7666 23.5576C15.2349 23.3365 15.3285 23.1786 14.9851 22.7681C14.5793 22.2944 14.1423 21.8208 13.674 21.3786C13.0497 20.7471 12.4566 20.1155 12.3005 19.1997C12.2381 18.9155 12.2693 18.6313 12.3005 18.3471C12.3318 18.0944 12.4566 17.8734 12.519 17.6523C12.6439 17.305 11.8323 12.2839 11.6762 11.9365" fill="#F18769"/>
<path fill-rule="evenodd" clip-rule="evenodd" d="M25.7854 27.1894C25.7542 29.5262 24.9738 31.5788 23.4129 33.3157C23.3193 33.4104 23.2569 33.5052 23.1632 33.5683C22.9447 33.7578 22.7262 33.7578 22.5389 33.5683C22.3204 33.3788 22.3516 33.1262 22.5077 32.9052C22.695 32.6841 22.9135 32.463 23.1008 32.242C24.9738 29.7473 25.3796 27.063 24.287 24.1262C23.9124 23.1473 23.3505 22.2946 22.6325 21.5367C22.5077 21.4104 22.414 21.1578 22.414 20.9683C22.4765 20.5894 22.9135 20.5262 23.2256 20.8104C24.0061 21.5999 24.5992 22.5157 25.0362 23.5262C25.5356 24.7262 25.7854 25.9262 25.7854 27.1894Z" fill="#F18769"/>
<path fill-rule="evenodd" clip-rule="evenodd" d="M22.7283 27.8524C22.7283 29.0208 22.1039 30.6313 20.9177 31.9892C20.8553 32.0524 20.8241 32.1155 20.7616 32.1787C20.5431 32.3997 20.2934 32.4945 20.0437 32.2418C19.7939 31.9892 19.8876 31.7681 20.1061 31.5471C20.7304 30.8839 21.2299 30.1576 21.5108 29.2734C22.26 26.9681 21.823 24.8524 20.2622 23.0208C20.1997 22.926 20.1061 22.8629 20.0437 22.7997C19.8876 22.5787 19.8564 22.3576 20.0749 22.1997C20.2622 22.0418 20.5119 21.9787 20.7304 22.1997C20.9489 22.4208 21.1362 22.6102 21.3235 22.8629C22.1976 24.0945 22.7283 25.5471 22.7283 27.8524Z" fill="#F18769"/>
<path fill-rule="evenodd" clip-rule="evenodd" d="M18.7337 27.0942C18.7025 26.0205 18.3279 25.01 17.5475 24.189C17.2354 23.8416 17.2978 23.4942 17.6724 23.3679C17.8285 23.3363 18.0782 23.3995 18.1718 23.5258C19.2332 24.6311 19.7014 25.9574 19.639 27.5048C19.5766 28.7363 19.1083 29.8416 18.2655 30.7574C18.047 31.01 17.8285 31.1679 17.5163 30.9153C17.2666 30.7258 17.2978 30.4416 17.61 30.1258C18.3591 29.2732 18.7337 28.2942 18.7337 27.0942Z" fill="#F18769"/>
<path d="M29.2183 49.0421C15.1398 49.0421 3.71472 38.2421 3.71472 24.9158C3.71472 11.5895 15.1398 0.789474 29.2183 0.789474C30.2485 0.789474 31.2786 0.852632 32.3087 0.978947C30.1236 0.315789 27.8448 0 25.5036 0C11.4251 0 0 11.5579 0 25.8C0 40.0421 11.4251 51.6 25.5036 51.6C31.2786 51.6 36.6166 49.6421 40.8932 46.3579C37.397 48.0632 33.4325 49.0421 29.2183 49.0421Z" fill="#EE734E"/>
<path d="M12.7047 41.3682L21.2267 46.105L10.5508 53.9997L12.7047 41.3682Z" fill="#F8F9FA"/>
<path d="M27.66 3.28418C15.6105 3.28418 5.87109 13.1684 5.87109 25.3263C5.87109 37.5158 15.6418 47.3684 27.66 47.3684C39.7094 47.3684 49.4489 37.4842 49.4489 25.3263C49.4489 13.1368 39.7094 3.28418 27.66 3.28418ZM27.66 45.1894C16.7968 45.1894 8.02501 36.2842 8.02501 25.3263C8.02501 14.3368 16.828 5.46313 27.66 5.46313C38.492 5.46313 47.2949 14.3684 47.2949 25.3263C47.2949 36.3158 38.492 45.1894 27.66 45.1894Z" fill="#246830"/>
<path d="M14.4844 41.4634L10.9258 53.1476L20.3218 44.3055L14.4844 41.4634Z" fill="#246830"/>
<path d="M50.4796 16.2002H42.4258V34.4212H50.4796V16.2002Z" fill="#F8F9FA"/>
<path d="M35.6172 27.6313H36.5225V32.8419H35.6172V27.6313Z" fill="black"/>
<path d="M37.6758 28.9258H38.425L38.4874 29.4626H38.5186C38.862 29.1153 39.2678 28.8311 39.7985 28.8311C40.6413 28.8311 40.9847 29.3995 40.9847 30.3784V32.8416H40.0794V30.5047C40.0794 29.8416 39.8921 29.6205 39.4551 29.6205C39.1117 29.6205 38.8932 29.7784 38.5811 30.0942V32.8416H37.6758V28.9258Z" fill="black"/>
<path d="M43.421 28.8307C43.858 28.8307 44.139 28.9886 44.4511 29.2728L44.4199 28.6413V27.2202H45.3252V32.8413H44.576L44.5136 32.4307H44.4823C44.2014 32.715 43.7956 32.936 43.3898 32.936C42.4221 32.936 41.7977 32.1781 41.7977 30.8834C41.7665 29.6202 42.5782 28.8307 43.421 28.8307ZM43.5771 32.1781C43.8892 32.1781 44.139 32.0518 44.3887 31.736V29.9044C44.1077 29.6518 43.858 29.5886 43.6083 29.5886C43.1088 29.5886 42.703 30.0623 42.703 30.8834C42.703 31.736 43.0152 32.1781 43.5771 32.1781Z" fill="black"/>
<path d="M46.2617 27.7258C46.2617 27.41 46.5114 27.189 46.8236 27.189C47.1358 27.189 47.3855 27.41 47.3855 27.7258C47.3855 28.0416 47.1358 28.2311 46.8236 28.2311C46.5114 28.2311 46.2617 28.01 46.2617 27.7258ZM46.3554 28.9258H47.2606V32.8416H46.3554V28.9258Z" fill="black"/>
<path d="M50.4467 30.3468C50.4467 29.9363 50.2594 29.5889 49.7287 29.5889C49.3541 29.5889 48.9795 29.7784 48.6361 29.9679L48.2928 29.3363C48.7298 29.0521 49.2605 28.8311 49.8848 28.8311C50.8525 28.8311 51.3207 29.4311 51.3207 30.5363V32.8732H50.5715L50.5091 32.4311H50.4779C50.1345 32.7153 49.7287 32.9679 49.2605 32.9679C48.5737 32.9679 48.1055 32.4942 48.1055 31.8311C48.1679 30.9468 48.8547 30.5047 50.4467 30.3468ZM49.6038 32.2416C49.916 32.2416 50.1657 32.0837 50.4467 31.7995V30.9153C49.3853 31.0416 49.042 31.3258 49.042 31.7363C49.042 32.0837 49.2917 32.2416 49.6038 32.2416Z" fill="black"/>
<path d="M32.9643 21.2206C33.6823 21.4732 34.1193 22.168 34.1193 22.8943C34.1193 24.2837 33.2453 25.168 31.4972 25.168H29.7179C29.1248 25.168 28.9062 24.9785 28.9062 24.4732V18.5048C28.9062 18.0627 29.1248 17.8101 29.7179 17.8101H31.2162C32.9019 17.8101 33.5887 18.5995 33.5887 19.7364C33.5887 20.4943 33.2453 20.968 32.9643 21.2206ZM30.5607 20.6522H31.1538C31.6533 20.6522 32.0279 20.368 32.0279 19.8943C32.0279 19.4522 31.7781 19.1995 31.2475 19.1995H30.5607V20.6522ZM30.5607 23.7153H31.5908C32.1215 23.7153 32.4337 23.4311 32.4337 22.8627C32.4337 22.3258 32.0591 22.0101 31.3723 22.0101H30.5607V23.7153Z" fill="#246830"/>
<path d="M38.6756 25.3576C37.6142 25.3576 36.709 25.0102 35.991 24.2839C35.273 23.5576 34.8984 22.6418 34.8984 21.505C34.8984 20.3681 35.273 19.4208 35.991 18.726C36.709 17.9997 37.6142 17.6523 38.6756 17.6523C39.7369 17.6523 40.6422 17.9997 41.3602 18.726C42.0782 19.4523 42.4527 20.3681 42.4527 21.505C42.4527 22.6418 42.0782 23.5576 41.3602 24.2839C40.6422 24.9787 39.7682 25.3576 38.6756 25.3576ZM38.6756 23.6523C39.2687 23.6523 39.7682 23.4629 40.1428 23.0523C40.5173 22.6418 40.7046 22.105 40.7046 21.4734C40.7046 20.8102 40.5173 20.2734 40.1428 19.8944C39.7682 19.4839 39.2687 19.2944 38.6756 19.2944C38.0825 19.2944 37.583 19.4839 37.2084 19.8944C36.8338 20.305 36.6465 20.8418 36.6465 21.4734C36.6465 22.1366 36.8338 22.6734 37.2084 23.0523C37.583 23.4629 38.0825 23.6523 38.6756 23.6523Z" fill="#246830"/>
<path d="M45.1388 23.6206H46.9181C47.4176 23.6206 47.7297 23.9048 47.7297 24.4101C47.7297 24.9153 47.4488 25.1995 46.9181 25.1995H44.2647C43.6404 25.1995 43.4531 25.0732 43.4531 24.5048V18.8206C43.4531 18.0943 43.7965 17.8101 44.296 17.8101C44.7642 17.8101 45.1388 18.0943 45.1388 18.8206V23.6206Z" fill="#246830"/>
<path d="M51.6326 25.3576C50.5713 25.3576 49.666 25.0102 48.948 24.2839C48.2301 23.5576 47.8555 22.6418 47.8555 21.505C47.8555 20.3681 48.2301 19.4208 48.948 18.726C49.666 17.9997 50.5713 17.6523 51.6326 17.6523C52.694 17.6523 53.5992 17.9997 54.3172 18.726C55.0352 19.4523 55.4098 20.3681 55.4098 21.505C55.4098 22.6418 55.0352 23.5576 54.3172 24.2839C53.5992 24.9787 52.694 25.3576 51.6326 25.3576ZM51.6326 23.6523C52.2257 23.6523 52.7252 23.4629 53.0998 23.0523C53.4744 22.6418 53.6617 22.105 53.6617 21.4734C53.6617 20.8102 53.4744 20.2734 53.0998 19.8944C52.7252 19.4839 52.2257 19.2944 51.6326 19.2944C51.0395 19.2944 50.5401 19.4839 50.1655 19.8944C49.7909 20.305 49.6036 20.8418 49.6036 21.4734C49.6036 22.1366 49.7909 22.6734 50.1655 23.0523C50.5401 23.4629 51.0083 23.6523 51.6326 23.6523Z" fill="#246830"/>
</g>
<defs>
<clipPath id="clip0">
<rect width="55.4087" height="54" fill="white"/>
</clipPath>
</defs>
</svg>
