<?xml version="1.0" encoding="UTF-8"?>
<!DOCTYPE svg PUBLIC "-//W3C//DTD SVG 1.1//EN" "http://www.w3.org/Graphics/SVG/1.1/DTD/svg11.dtd">
<!-- Creator: CorelDRAW X7 -->
<svg xmlns="http://www.w3.org/2000/svg" xml:space="preserve" width="4.85889in" height="1.57481in" version="1.1" style="shape-rendering:geometricPrecision; text-rendering:geometricPrecision; image-rendering:optimizeQuality; fill-rule:evenodd; clip-rule:evenodd"
viewBox="0 0 4416 1431"
 xmlns:xlink="http://www.w3.org/1999/xlink">
 <defs>
  <style type="text/css">
   <![CDATA[
    .fil5 {fill:#FDE9E2}
    .fil4 {fill:#ED3237}
    .fil6 {fill:#FDE9E2;fill-rule:nonzero}
    .fil13 {fill:#FDB92E;fill-rule:nonzero}
    .fil11 {fill:#F9A33C;fill-rule:nonzero}
    .fil0 {fill:#EF4B4A;fill-rule:nonzero}
    .fil18 {fill:#EE3F3E;fill-rule:nonzero}
    .fil8 {fill:#EEF1E7;fill-rule:nonzero}
    .fil7 {fill:#E8E3F1;fill-rule:nonzero}
    .fil17 {fill:#EBE842;fill-rule:nonzero}
    .fil10 {fill:#DFE67D;fill-rule:nonzero}
    .fil12 {fill:#ACD79E;fill-rule:nonzero}
    .fil1 {fill:#97B55F;fill-rule:nonzero}
    .fil19 {fill:#8E699F;fill-rule:nonzero}
    .fil16 {fill:#67BD51;fill-rule:nonzero}
    .fil2 {fill:#694B9C;fill-rule:nonzero}
    .fil15 {fill:#2E5FA7;fill-rule:nonzero}
    .fil20 {fill:#3A325A;fill-rule:nonzero}
    .fil14 {fill:#3150A0;fill-rule:nonzero}
    .fil3 {fill:#354D8F;fill-rule:nonzero}
    .fil21 {fill:url(#id1)}
    .fil9 {fill:url(#id2)}
   ]]>
  </style>
    <clipPath id="id0">
     <path d="M2744 791c-3,-8 -9,-14 -17,-17l0 1c-1,14 -15,20 -25,17 -7,-1 -13,-5 -18,-10 -6,-6 -11,-12 -15,-19l0 -1 4 2c5,7 10,13 17,17 7,4 14,6 22,3 8,-4 12,-14 7,-21 -3,-5 -9,-7 -14,-5l1 1c3,4 3,7 1,10 -2,2 -6,4 -9,3 -4,-1 -6,-4 -7,-8 0,-4 2,-7 5,-10 -4,-3 -8,-5 -13,-3 -4,2 -9,3 -13,4 -3,2 -5,1 -8,-2l3 -1c22,-7 44,-15 67,-23 3,-1 5,0 7,2 -4,2 -7,3 -11,4 7,20 14,39 20,59l-1 0c-1,-1 -2,-2 -3,-3zm-22 -30c3,6 10,8 14,13 -4,-12 -8,-24 -13,-37 -10,3 -19,7 -29,10l1 2 3 2 2 1c2,-1 4,-1 6,-1 6,0 12,4 16,10z"/>
    </clipPath>
  <linearGradient id="id1" gradientUnits="userSpaceOnUse" x1="947.416" y1="366.497" x2="992.817" y2="609.89">
   <stop offset="0" style="stop-opacity:1; stop-color:#FEFEFE"/>
   <stop offset="1" style="stop-opacity:1; stop-color:#F89B4F"/>
  </linearGradient>
  <linearGradient id="id2" gradientUnits="userSpaceOnUse" x1="1123.53" y1="1010.65" x2="1066.13" y2="797.608">
   <stop offset="0" style="stop-opacity:1; stop-color:#FEFEFE"/>
   <stop offset="1" style="stop-opacity:1; stop-color:#30924F"/>
  </linearGradient>
 </defs>
 <g id="Layer_x0020_1">
  <metadata id="CorelCorpID_0Corel-Layer"/>
  <g id="_1000452512">
   <path class="fil0" d="M4341 441l0 366c-5,2 -11,3 -18,5 -7,1 -16,2 -25,2 -22,0 -38,-4 -46,-11 -8,-7 -12,-19 -12,-35l0 -327 -46 0c-11,0 -18,-3 -23,-10 -4,-6 -6,-16 -6,-28 0,-6 1,-12 2,-19 1,-7 3,-13 4,-17l70 0 0 -10c0,-38 -5,-65 -16,-82 -10,-16 -24,-24 -43,-24 -15,0 -27,5 -36,15 -8,9 -13,23 -13,40l0 18c-4,2 -8,3 -13,5 -3,1 -8,2 -13,3 -5,1 -11,1 -16,1 -16,0 -30,-3 -42,-10 -12,-7 -17,-20 -17,-40 0,-15 3,-30 10,-44 6,-13 16,-25 28,-36 13,-10 28,-18 47,-24 18,-6 39,-9 63,-9 50,0 89,15 118,45 28,31 42,78 42,141l0 11 47 0c19,0 29,12 29,37 0,5 -1,12 -2,19 -2,8 -4,14 -6,18l-67 0z"/>
   <path class="fil0" d="M4138 441l0 366c-5,2 -11,3 -18,5 -7,1 -16,2 -25,2 -22,0 -38,-4 -46,-11 -8,-7 -12,-19 -12,-35l0 -327 -76 0c5,45 7,89 7,132 0,24 -4,44 -11,61 -8,17 -18,31 -31,43 -13,11 -29,19 -47,25 -19,5 -39,8 -60,8 -22,0 -42,-3 -60,-8 -19,-6 -34,-14 -48,-25 -13,-11 -23,-25 -31,-43 -7,-17 -11,-37 -11,-61 0,-23 1,-45 2,-66 1,-22 2,-44 4,-66l-40 0c-11,0 -19,-3 -23,-10 -4,-6 -6,-16 -6,-28 0,-6 0,-12 1,-19 2,-7 3,-13 5,-17l571 0c19,0 29,12 29,37 0,5 -1,12 -2,19 -1,8 -3,14 -5,18l-67 0zm-319 189c14,0 25,-4 33,-13 7,-8 11,-22 11,-39l0 -137 -90 0 0 137c0,17 4,31 12,39 8,9 19,13 34,13z"/>
   <path class="fil1" d="M3584 441l0 366c-5,2 -11,3 -18,5 -7,1 -16,2 -25,2 -22,0 -37,-4 -45,-11 -9,-7 -13,-19 -13,-35l0 -92c-11,7 -24,12 -39,15 -14,4 -29,6 -46,6 -46,0 -83,-13 -109,-39 -27,-26 -40,-64 -40,-114l0 -103 -35 0c-11,0 -18,-3 -22,-10 -5,-6 -7,-16 -7,-28 0,-6 1,-12 2,-19 1,-7 3,-13 5,-17l437 0c19,0 29,12 29,37 0,5 0,12 -2,19 -1,8 -3,14 -5,18l-67 0zm-101 97l0 -97 -126 0 126 97zm-62 78c12,0 24,-2 35,-6 11,-4 19,-9 25,-15l-131 -102 0 46c0,28 6,48 18,60 12,12 29,17 53,17z"/>
   <path class="fil1" d="M3164 441l0 366c-5,2 -11,3 -19,5 -7,1 -15,2 -24,2 -23,0 -38,-4 -46,-11 -8,-7 -12,-19 -12,-35l0 -327 -46 0c-11,0 -19,-3 -23,-10 -4,-6 -6,-16 -6,-28 0,-6 0,-12 2,-19 1,-7 2,-13 4,-17l68 0c-3,-7 -6,-16 -8,-26 -2,-10 -3,-20 -3,-31 0,-20 4,-38 12,-55 9,-18 21,-33 38,-45 16,-12 37,-22 62,-29 24,-7 53,-11 86,-11 42,0 81,5 118,15 36,9 67,20 94,33 26,13 47,27 62,41 15,14 23,25 23,34 0,14 -6,25 -16,32 -11,8 -26,12 -44,12 -12,-14 -28,-26 -45,-36 -18,-11 -36,-20 -57,-27 -20,-8 -41,-13 -62,-17 -22,-4 -44,-6 -66,-6 -34,0 -60,6 -76,20 -17,13 -25,31 -25,52 0,18 3,32 10,44l44 0c20,0 29,12 29,37 0,5 0,12 -2,19 -1,8 -3,14 -5,18l-67 0z"/>
   <path class="fil2" d="M2961 441l0 366c-5,2 -12,3 -19,5 -7,1 -15,2 -24,2 -23,0 -38,-4 -46,-11 -8,-7 -12,-19 -12,-35l0 -327 -46 0c-11,0 -19,-3 -23,-10 -4,-6 -6,-16 -6,-28 0,-6 0,-12 2,-19 1,-7 2,-13 4,-17l215 0c20,0 29,12 29,37 0,5 0,12 -2,19 -1,8 -3,14 -5,18l-67 0z"/>
   <path class="fil2" d="M2758 441l0 366c-5,2 -12,3 -19,5 -7,1 -15,2 -25,2 -22,0 -37,-4 -45,-11 -8,-7 -12,-19 -12,-35l0 -117 -110 0c-5,19 -14,33 -28,44 -14,10 -31,16 -53,16 -27,0 -46,-7 -59,-19 -13,-13 -19,-28 -19,-45 0,-14 4,-28 13,-43l17 0c10,0 18,-3 24,-9 5,-6 8,-15 8,-26l0 -103c0,-9 -2,-15 -6,-19 -5,-3 -10,-5 -17,-5 -7,0 -12,1 -16,5 -4,3 -7,8 -8,14 -5,1 -9,2 -14,2 -14,0 -26,-4 -34,-12 -8,-8 -13,-18 -13,-32 0,-10 3,-20 7,-28 5,-8 11,-15 19,-21 8,-6 17,-10 28,-13 11,-3 23,-4 36,-4 38,0 68,8 88,25 21,17 31,41 31,74l0 120 106 0 0 -131 -41 0c-11,0 -19,-3 -23,-10 -4,-6 -6,-16 -6,-28 0,-6 0,-12 1,-19 2,-7 3,-13 5,-17l210 0c20,0 29,12 29,37 0,5 0,12 -2,19 -1,8 -3,14 -5,18l-67 0z"/>
   <path class="fil3" d="M2458 930l0 127c-1,0 -2,0 -3,1 -1,0 -2,0 -3,0 -7,0 -10,-3 -10,-8l0 -49 -49 0c-1,12 -7,18 -18,18 -6,0 -10,-2 -13,-4 -3,-3 -4,-6 -4,-11 0,-3 1,-6 2,-9l9 0c2,0 4,-1 6,-2 1,-1 2,-3 2,-6l0 -50c0,-3 -1,-6 -3,-8 -2,-1 -5,-2 -8,-2 -3,0 -5,1 -7,2 -2,2 -3,4 -3,7 -1,0 -3,1 -4,1 -3,0 -5,-1 -7,-2 -2,-1 -3,-4 -3,-7 0,-5 3,-9 7,-11 5,-3 10,-5 17,-5 3,0 7,1 10,1 3,1 6,3 9,5 2,1 4,4 6,7 1,3 2,7 2,11l0 50 49 0 0 -56 -26 0c-4,0 -6,-2 -6,-7 0,-1 0,-2 0,-3 0,-1 1,-2 1,-3l67 0c4,0 6,2 6,7 0,0 0,1 0,3 0,1 0,2 -1,3l-25 0z"/>
   <path id="1" class="fil3" d="M2515 930l0 127c-1,0 -2,0 -3,1 -1,0 -3,0 -4,0 -6,0 -9,-3 -9,-8l0 -120 -21 0c-4,0 -7,-2 -7,-7 0,-1 1,-2 1,-3 0,-1 0,-2 0,-3l62 0c5,0 7,2 7,7 0,0 0,1 0,3 -1,1 -1,2 -1,3l-25 0z"/>
   <path id="2" class="fil3" d="M2640 930l0 127c-1,0 -2,0 -3,1 -1,0 -2,0 -4,0 -6,0 -9,-3 -9,-8l0 -42c-4,3 -8,5 -14,7 -5,2 -11,2 -18,2 -6,0 -12,0 -17,-2 -6,-2 -10,-4 -14,-8 -4,-4 -7,-8 -9,-14 -2,-5 -3,-12 -3,-19l0 -44 -15 0c-4,0 -6,-2 -6,-7 0,-1 0,-2 0,-3 0,-1 1,-2 1,-3l131 0c4,0 6,2 6,7 0,0 0,1 0,3 0,1 -1,2 -1,3l-25 0zm-45 73c6,0 11,-1 16,-3 5,-2 9,-4 13,-7l-59 -48 0 28c0,6 0,10 2,14 1,4 3,7 6,10 2,2 6,4 9,5 4,1 8,1 13,1zm29 -26l0 -47 -59 0 59 47z"/>
   <path id="3" class="fil3" d="M2697 930l0 127c-1,0 -2,0 -3,1 -2,0 -3,0 -4,0 -6,0 -10,-3 -10,-8l0 -120 -20 0c-5,0 -7,-2 -7,-7 0,-1 0,-2 0,-3 1,-1 1,-2 1,-3l62 0c4,0 6,2 6,7 0,0 0,1 0,3 0,1 0,2 0,3l-25 0z"/>
   <path id="4" class="fil3" d="M2905 930l0 127c-1,0 -2,0 -3,1 -1,0 -2,0 -3,0 -7,0 -10,-3 -10,-8l0 -56c-2,1 -4,1 -7,1 -2,1 -5,1 -9,1 -3,0 -5,0 -8,-1 -3,0 -6,0 -8,-1 -3,0 -6,-1 -8,-1 -3,-1 -5,-1 -6,-2l-1 1c3,2 6,6 8,10 2,4 3,9 3,13 0,10 -4,19 -12,25 -8,7 -19,10 -33,10 -5,0 -9,0 -14,-1 -4,-1 -8,-2 -11,-4 -4,-1 -7,-3 -8,-5 -2,-2 -3,-4 -3,-6 0,-3 0,-5 2,-6 1,-2 2,-3 4,-4 3,4 8,6 13,8 5,2 10,3 17,3 9,0 15,-2 20,-6 6,-4 8,-10 8,-17 0,-7 -2,-13 -7,-17 -4,-4 -10,-6 -17,-6l-22 0c0,-2 -1,-3 -1,-4 0,-1 0,-2 0,-3 0,-3 0,-6 1,-8l21 0c7,0 12,-2 17,-6 4,-4 6,-9 6,-16 0,-6 -2,-11 -6,-16 -5,-4 -11,-6 -18,-6 -7,0 -12,1 -17,3 -4,3 -7,5 -10,8 -2,-1 -4,-3 -5,-4 -1,-2 -2,-3 -2,-5 0,-2 1,-4 3,-6 1,-2 4,-4 7,-6 3,-1 6,-2 10,-3 4,-1 9,-2 14,-2 5,0 11,1 16,3 5,1 9,4 13,7 4,3 7,6 9,11 2,4 3,9 3,15 0,6 -2,12 -4,17 -3,4 -7,7 -10,10 1,0 2,1 4,1 2,1 5,1 7,1 2,1 5,1 7,1 3,1 5,1 7,1 11,0 20,-2 27,-4l0 -48 -19 0c-4,0 -6,-2 -6,-7 0,-1 0,-2 0,-3 0,-1 1,-2 1,-3l60 0c4,0 6,2 6,7 0,0 0,1 0,3 0,1 0,2 -1,3l-25 0z"/>
   <path id="5" class="fil3" d="M3029 930l0 127c-1,0 -2,0 -4,1 -1,0 -2,0 -3,0 -6,0 -10,-3 -10,-8l0 -60 -43 0c-3,0 -6,1 -7,2 -2,2 -3,5 -3,8l0 10c-1,1 -3,1 -4,2 -1,0 -3,0 -5,0 -4,0 -8,-1 -11,-4 -3,-3 -5,-8 -5,-14 0,-6 2,-11 6,-14 4,-3 10,-5 17,-5l55 0 0 -45 -87 0c-4,0 -6,-2 -6,-7 0,-1 0,-2 0,-3 0,-1 0,-2 0,-3l129 0c4,0 6,2 6,7 0,0 0,1 0,3 0,1 0,2 0,3l-25 0z"/>
   <path id="6" class="fil3" d="M3013 919c-2,-6 -6,-12 -10,-17 -4,-5 -8,-10 -13,-14 -5,-4 -10,-7 -15,-10 -5,-3 -10,-5 -15,-6 0,0 0,-2 0,-3 0,-3 1,-5 2,-7 2,-2 4,-3 7,-3 4,0 9,2 15,5 6,3 11,7 17,13 6,5 11,11 16,19 5,7 8,14 11,23l-15 0z"/>
   <path id="7" class="fil3" d="M3148 930l0 35c3,-3 7,-5 12,-7 4,-2 10,-3 16,-3 7,0 12,1 17,3 5,2 9,5 13,8 4,4 6,8 8,13 2,4 3,10 3,15 0,7 -1,12 -3,17 -2,5 -5,9 -8,13 -4,3 -8,6 -13,7 -5,2 -10,3 -16,3 -9,0 -14,-3 -14,-9 0,-1 0,-2 0,-3 1,-1 1,-2 1,-3 1,1 3,1 4,1 2,0 4,0 5,0 8,0 14,-2 20,-6 5,-5 7,-11 7,-20 0,-7 -2,-13 -7,-18 -5,-4 -11,-7 -20,-7 -5,0 -10,1 -14,4 -5,2 -9,5 -11,9l0 75c-1,0 -2,0 -3,1 -2,0 -3,0 -4,0 -6,0 -10,-3 -10,-8l0 -26c-3,2 -6,4 -11,6 -5,2 -11,3 -18,3 -5,0 -10,-1 -15,-2 -5,-2 -10,-4 -14,-8 -4,-3 -7,-7 -10,-13 -2,-5 -3,-10 -3,-17 0,-6 1,-11 3,-16 2,-5 5,-9 9,-12 3,-3 8,-6 12,-8 5,-2 10,-3 16,-3 7,0 11,1 14,3 3,2 4,4 4,7 0,2 0,3 -1,4 0,1 -1,2 -1,3 -3,-1 -4,-2 -6,-2 -2,0 -4,0 -6,0 -8,0 -15,2 -20,6 -5,4 -7,11 -7,19 0,7 2,13 7,18 5,5 12,7 20,7 4,0 8,0 11,-1 2,-1 5,-2 7,-4 2,-1 4,-2 6,-4 1,-1 3,-3 3,-4l0 -76 -83 0c-4,0 -6,-2 -6,-7 0,-1 0,-2 0,-3 0,-1 0,-2 1,-3l182 0c4,0 6,2 6,7 0,0 0,1 0,3 0,1 -1,2 -1,3l-82 0z"/>
   <path id="8" class="fil3" d="M3240 1077c-1,2 -2,3 -4,4 -1,1 -3,2 -5,2 -3,0 -6,-1 -8,-4 1,-3 2,-6 3,-10 2,-4 3,-8 4,-12 1,-4 3,-8 4,-12 1,-4 1,-8 2,-11 1,-1 3,-1 4,-2 1,0 3,0 5,0 2,0 4,1 6,2 1,1 2,3 2,6 0,3 0,6 -1,9 -1,4 -2,7 -4,11 -1,4 -3,7 -4,10 -2,3 -3,5 -4,7z"/>
   <path id="9" class="fil3" d="M3418 930l0 127c-1,0 -2,0 -4,1 -1,0 -2,0 -3,0 -6,0 -10,-3 -10,-8l0 -49 -49 0c-1,12 -7,18 -18,18 -6,0 -10,-2 -13,-4 -2,-3 -4,-6 -4,-11 0,-3 1,-6 3,-9l8 0c2,0 4,-1 6,-2 1,-1 2,-3 2,-6l0 -50c0,-3 -1,-6 -3,-8 -2,-1 -5,-2 -7,-2 -3,0 -6,1 -8,2 -1,2 -2,4 -3,7 -1,0 -3,1 -4,1 -3,0 -5,-1 -7,-2 -1,-1 -2,-4 -2,-7 0,-5 2,-9 6,-11 5,-3 11,-5 17,-5 4,0 7,1 10,1 3,1 6,3 9,5 2,1 4,4 6,7 1,3 2,7 2,11l0 50 49 0 0 -56 -25 0c-5,0 -7,-2 -7,-7 0,-1 0,-2 1,-3 0,-1 0,-2 0,-3l67 0c4,0 6,2 6,7 0,0 0,1 0,3 0,1 0,2 -1,3l-24 0z"/>
   <path id="10" class="fil3" d="M3474 930l0 127c-1,0 -2,0 -3,1 -1,0 -2,0 -4,0 -6,0 -9,-3 -9,-8l0 -120 -21 0c-4,0 -6,-2 -6,-7 0,-1 0,-2 0,-3 0,-1 0,-2 1,-3l62 0c4,0 6,2 6,7 0,0 0,1 0,3 0,1 -1,2 -1,3l-25 0z"/>
   <path id="11" class="fil3" d="M3562 930c2,4 5,8 6,12 2,5 3,10 3,16 0,7 -1,13 -4,18 -2,5 -5,9 -9,13 -3,3 -7,6 -12,7 -5,2 -10,3 -15,4 5,10 10,19 17,27 6,8 15,15 25,21 0,3 0,6 -2,7 -1,2 -4,3 -7,3 -3,0 -7,-1 -11,-4 -4,-2 -8,-6 -12,-11 -5,-5 -9,-11 -13,-18 -4,-7 -8,-15 -11,-24 -4,-1 -7,-2 -9,-3 -2,-1 -3,-4 -3,-6 0,-2 0,-3 0,-5 1,-1 1,-2 2,-3 2,0 4,1 6,1 3,1 5,1 8,1 6,0 12,-1 16,-2 4,-2 7,-4 10,-7 2,-2 4,-5 5,-9 1,-3 2,-7 2,-11 0,-5 -1,-10 -2,-15 -2,-4 -4,-8 -7,-12l-51 0c-5,0 -7,-2 -7,-7 0,-1 0,-2 0,-3 1,-1 1,-2 1,-3l96 0c5,0 7,2 7,7 0,0 0,1 -1,3 0,1 0,2 0,3l-28 0z"/>
   <path id="12" class="fil3" d="M3696 930l0 127c-1,0 -2,0 -3,1 -1,0 -3,0 -4,0 -6,0 -9,-3 -9,-8l0 -71c-5,-1 -9,-2 -13,-2 -4,-1 -9,-1 -14,-1 -11,0 -20,3 -27,8 -6,5 -10,13 -10,24 0,5 1,9 2,13 1,5 3,8 5,12 2,3 4,7 7,9 2,3 5,6 8,8 -1,3 -2,5 -4,6 -1,1 -3,2 -6,2 -2,0 -5,-1 -9,-4 -3,-3 -6,-6 -9,-11 -3,-4 -6,-10 -8,-16 -2,-6 -3,-13 -3,-20 0,-7 1,-14 4,-20 3,-6 6,-10 11,-14 5,-4 10,-7 16,-9 7,-2 14,-3 21,-3 5,0 11,0 16,1 5,1 9,1 13,2l0 -34 -95 0c-4,0 -6,-2 -6,-7 0,-1 0,-2 0,-3 0,-1 1,-2 1,-3l135 0c5,0 7,2 7,7 0,0 0,1 0,3 -1,1 -1,2 -1,3l-25 0z"/>
   <path id="13" class="fil3" d="M3862 930c2,4 4,9 6,16 2,6 3,12 3,20 0,6 -1,12 -2,17 -1,6 -2,10 -4,14 -1,4 -3,7 -5,9 -3,3 -5,4 -8,4 -2,0 -4,-1 -5,-2 -2,-1 -3,-2 -4,-3 3,-6 6,-12 8,-19 2,-7 3,-14 3,-22 0,-6 -1,-13 -3,-19 -1,-6 -3,-11 -5,-15l-48 0 0 74c6,3 12,7 18,11 6,3 12,7 18,11 5,3 10,7 15,10 5,4 9,6 12,9 3,2 5,4 7,6 1,1 2,3 2,6 0,2 -1,4 -2,6 -2,1 -4,2 -6,3 -5,-4 -10,-8 -16,-12 -5,-4 -11,-9 -18,-13 -6,-5 -13,-9 -20,-14 -6,-4 -13,-8 -19,-12 -3,-2 -5,-3 -6,-5 -1,-1 -1,-4 -1,-7l0 -73 -21 0c-4,0 -7,-2 -7,-7 0,-1 1,-2 1,-3 0,-1 0,-2 0,-3l133 0c4,0 6,2 6,7 0,0 0,1 0,3 0,1 -1,2 -1,3l-31 0z"/>
   <path id="14" class="fil3" d="M3986 930l0 35c3,-3 7,-5 12,-7 5,-2 10,-3 17,-3 6,0 11,1 16,3 5,2 10,5 13,8 4,4 7,8 9,13 2,4 3,10 3,15 0,7 -1,12 -3,17 -3,5 -5,9 -9,13 -4,3 -8,6 -13,7 -5,2 -10,3 -15,3 -10,0 -15,-3 -15,-9 0,-1 0,-2 1,-3 0,-1 0,-2 1,-3 0,1 2,1 4,1 2,0 3,0 5,0 7,0 14,-2 19,-6 5,-5 8,-11 8,-20 0,-7 -3,-13 -8,-18 -4,-4 -11,-7 -19,-7 -6,0 -10,1 -15,4 -4,2 -8,5 -11,9l0 75c-1,0 -2,0 -3,1 -1,0 -2,0 -4,0 -6,0 -9,-3 -9,-8l0 -26c-3,2 -7,4 -12,6 -5,2 -10,3 -17,3 -6,0 -11,-1 -16,-2 -5,-2 -10,-4 -14,-8 -4,-3 -7,-7 -9,-13 -3,-5 -4,-10 -4,-17 0,-6 1,-11 3,-16 3,-5 5,-9 9,-12 4,-3 8,-6 13,-8 5,-2 10,-3 15,-3 7,0 12,1 15,3 2,2 4,4 4,7 0,2 -1,3 -1,4 -1,1 -1,2 -2,3 -2,-1 -4,-2 -6,-2 -1,0 -3,0 -6,0 -8,0 -14,2 -19,6 -5,4 -8,11 -8,19 0,7 3,13 8,18 4,5 11,7 20,7 4,0 7,0 10,-1 3,-1 5,-2 8,-4 2,-1 4,-2 5,-4 2,-1 3,-3 4,-4l0 -76 -84 0c-4,0 -6,-2 -6,-7 0,-1 0,-2 0,-3 0,-1 1,-2 1,-3l182 0c4,0 6,2 6,7 0,0 0,1 0,3 0,1 0,2 -1,3l-82 0z"/>
   <g style="clip-path:url(#id0)">
    <image transform="matrix(1 -0 -0 -1 2481.7 803.719)" x="0" y="0" width="304" height="350" xlink:href="Bhashini Logo_010721_Hindi_Images\Bhashini Logo_010721_Hindi_ImgID1.png"/>
   </g>
   <path class="fil4" d="M2480 622c-2,-1 -3,-2 -3,-4 -1,-1 0,-3 1,-4 1,-2 2,-3 4,-3 2,-1 4,0 5,1 0,0 0,0 1,0 4,3 2,7 1,8 -1,1 -2,2 -4,3 -1,0 -1,0 -2,0 -1,0 -2,0 -3,-1 0,0 0,0 0,0z"/>
   <path class="fil5" d="M4287 658c-2,0 -4,0 -6,-1 -2,0 -4,-2 -6,-3 -2,-2 -4,-4 -4,-7 -1,-2 -1,-4 -1,-7 1,-2 1,-4 2,-7 1,-2 2,-5 4,-7 1,-3 2,-5 3,-8 1,-2 2,-4 3,-6 1,-2 1,-4 1,-6 0,-1 0,-3 -1,-4 -2,-1 -3,-2 -5,-2 -1,-1 -2,-1 -3,-1 -1,0 -1,0 -2,0 -1,1 -3,1 -5,2 -1,1 -3,3 -5,5 -1,1 -2,2 -3,4 -1,2 -1,3 -1,5 -1,2 0,3 0,5 0,1 1,3 2,4l-6 8c-3,-3 -4,-5 -5,-8 -1,-3 -1,-5 -1,-8 1,-3 2,-6 3,-9 1,-2 3,-5 5,-7 2,-3 5,-5 8,-6 2,-2 5,-3 8,-4 1,0 2,0 3,0 2,0 3,0 5,1 3,0 5,2 8,4l25 23c1,1 2,2 4,2 0,0 0,0 0,0 1,0 2,0 3,-1l1 -1 0 -1 6 6 -1 2 -2 2c-2,2 -4,3 -6,3 -1,0 -1,0 -1,0 -2,0 -5,-2 -9,-5 1,4 1,7 1,9 0,3 -1,5 -1,7 -1,2 -2,4 -3,6 -1,2 -2,3 -4,5 -2,2 -4,3 -6,4 -2,1 -4,2 -7,2 0,0 -1,0 -1,0zm2 -49c0,2 0,4 -1,6 -1,3 -2,5 -3,7 -1,2 -2,5 -3,7 -1,2 -2,4 -3,6 -1,3 -1,5 -1,6 1,2 1,4 3,5 1,1 3,2 4,3 1,0 2,0 3,0 0,0 1,0 1,0 1,0 3,-1 4,-1 1,-1 2,-2 3,-3 3,-3 4,-7 5,-11 1,-4 1,-9 -1,-15l-11 -10z"/>
   <path class="fil5" d="M4202 250c-1,-3 -2,-6 -4,-9 -4,-9 -11,-15 -19,-20 -3,-2 -4,-5 -5,-8l1 -1c11,-8 23,-13 37,-14l0 0c2,-1 1,-4 2,-6l-2 -1c-11,-2 -21,-4 -32,-6l-3 -1c1,-3 1,-4 2,-4 1,0 1,0 2,1 16,3 31,6 46,9 3,1 3,1 2,5 -3,-1 -6,-2 -9,-2l0 2c-4,17 -7,34 -11,51 0,2 -1,3 -2,3 -2,0 -3,0 -5,1zm-11 -40c-1,0 -2,1 -3,2 -2,1 -4,2 -6,4 10,6 17,13 22,24l1 -2c0,-4 1,-7 2,-10l-1 -3c-4,-4 -8,-8 -12,-13 -2,-1 -3,-2 -3,-2zm20 -6c-5,0 -12,2 -15,4 4,4 8,8 12,13 1,-6 2,-11 3,-17 0,0 0,0 0,0z"/>
   <path class="fil6" d="M4093 308l-8 -15c-4,0 -9,-2 -12,-5 -4,-2 -7,-6 -9,-10 -2,-4 -3,-8 -4,-12 0,-4 1,-8 2,-12 2,-3 4,-7 7,-10 3,-4 7,-7 11,-9 5,-2 9,-4 14,-4 1,0 3,-1 4,-1 3,0 6,1 8,1 4,1 8,3 11,6 3,2 6,5 8,9 1,3 2,6 3,9 0,3 0,6 0,9l-6 -2c1,-3 1,-5 1,-7 0,-2 -1,-5 -2,-7 -2,-2 -3,-5 -6,-6 -3,-2 -6,-3 -9,-4 -1,0 -3,0 -5,0 -1,0 -3,0 -5,0 -4,1 -8,2 -12,4 -3,2 -7,5 -9,7 -3,3 -5,6 -7,9 -1,3 -2,6 -2,9 0,3 1,6 2,9 2,2 3,4 6,6 2,1 4,3 7,3l-1 -1c-1,-1 -1,-3 -1,-5 -1,-2 0,-4 0,-5 0,-2 1,-4 2,-5 1,-1 2,-2 4,-3 2,-1 3,-1 5,-1 0,0 0,0 0,0 2,0 4,0 6,1 0,-2 0,-3 1,-5 1,-2 3,-3 4,-4 2,0 4,-1 5,-1 0,0 1,0 1,0 1,0 3,0 4,1 2,0 3,1 5,2 1,2 2,3 3,5l12 23 -5 3 -11 -21 -2 -2 -2 -2 -3 -1 -3 1 -2 2 0 2 0 3 1 3 11 21 -6 3 -11 -21 -2 -2 -2 -2 -3 -1 -2 0 -2 2 -1 3 0 3 1 3 11 21 -5 3z"/>
   <g>
    <path class="fil7" d="M2893 796c-4,0 -7,-1 -11,-4l-3 -3 -4 -4 9 -6 3 3 2 2c3,2 5,4 8,4 1,0 1,0 2,-1 2,0 3,-2 3,-5l-1 -3 0 -1c0,-1 -2,-2 -3,-4 -2,-2 -4,-3 -7,-3l-6 3 -1 -7 1 -1 1 0c2,-1 4,-2 4,-4l1 -2 0 -3 -1 -2 -2 -2c-1,-1 -2,-1 -3,-1 0,0 -1,0 -2,0 -1,1 -2,2 -2,4l0 2 1 2 -10 5 -1 -4c0,-2 0,-3 0,-3 1,-6 4,-10 10,-12 3,-1 5,-1 7,-1 2,0 4,0 6,1 3,1 5,3 6,7 2,4 2,7 1,9l-1 2 1 1 1 0 2 -2 3 -3 4 -2 4 -3 -4 -11 -8 3 -2 -7 27 -10 0 0 -5 2 2 6 -3 2 15 39 -9 10 -10 -28 -2 1 -3 2 -2 1 -2 2 -2 2 1 1 1 1 1 1 1 2c0,1 1,2 1,3l0 2c0,5 -2,9 -5,12 -2,1 -4,3 -7,4 -2,0 -4,1 -7,1z"/>
    <polygon class="fil7" points="2950,781 2933,735 2925,738 2925,738 2923,732 2956,719 2959,726 2944,732 2958,771 "/>
   </g>
   <path class="fil7" d="M2448 443l-12 -4 -3 -24c-2,2 -4,4 -6,6 -2,1 -3,2 -5,2 -1,0 -2,0 -2,0 -4,0 -7,-1 -11,-4 -5,-3 -8,-7 -8,-11 -1,-4 0,-7 2,-10 3,-3 6,-5 10,-6 0,0 1,0 1,0 2,0 4,1 6,2 3,1 7,3 10,6l-3 -17 -34 6 -1 -9 73 -14 1 10 -29 5 3 14c1,-1 3,-2 4,-3 2,-1 4,-2 6,-2 0,0 0,0 1,0 3,0 6,1 9,4 4,4 7,7 7,11 1,3 1,6 0,9 0,3 -1,6 -2,9l-11 -4c2,-5 3,-8 4,-11 0,-3 1,-5 0,-6 0,-1 0,-2 -1,-3l-4 -1c-2,1 -4,2 -6,3 -2,2 -3,4 -5,6l6 36zm-27 -43c-1,0 -2,1 -3,1 -2,0 -4,1 -5,3 -2,2 -2,5 -2,7 1,1 1,3 2,3 1,1 2,1 3,1 1,0 1,0 1,0 2,0 4,-1 5,-2 2,0 3,-1 3,-2l6 -7c-2,-1 -4,-2 -6,-3 -2,0 -3,-1 -4,-1z"/>
   <path class="fil6" d="M4305 785l-12 -5 -4 -25c-2,3 -4,5 -6,6 -2,1 -3,2 -5,3 -1,0 -2,0 -2,0 -4,0 -8,-2 -12,-4 -5,-4 -7,-8 -8,-12 -1,-4 0,-7 3,-10 2,-4 5,-6 10,-6 0,-1 1,-1 1,-1 2,0 4,1 6,2 3,1 7,3 10,6l-3 -17 -35 7 -1 -10 75 -14 2 9 -30 6 2 14c2,-1 3,-2 5,-3 2,-1 4,-1 6,-2 0,0 0,0 1,0 3,0 6,2 10,5 4,3 6,7 7,11 0,3 1,6 0,9 0,4 -1,7 -3,10l-10 -5c1,-5 2,-8 3,-11 1,-3 1,-5 1,-6 -1,-2 -1,-3 -2,-3l-3 -1c-3,0 -5,1 -7,3 -2,2 -4,4 -5,6l6 38zm-28 -45c-1,0 -2,0 -3,0 -2,1 -4,2 -6,4 -1,2 -2,5 -1,7 0,1 1,3 2,3 1,1 2,1 3,1 0,0 1,0 1,0 2,0 4,-1 5,-1 2,-1 3,-2 4,-3l6 -7c-3,-2 -5,-3 -7,-3 -2,-1 -3,-1 -4,-1z"/>
   <path class="fil8" d="M3520 757c-7,0 -12,-4 -16,-12 -1,-2 -1,-5 -2,-8 0,-1 0,-2 0,-4 0,-1 0,-3 0,-4 2,-7 4,-11 8,-14 3,-1 5,-2 8,-2 1,0 2,0 3,0 3,0 5,0 7,2 3,1 5,3 7,7l3 -4 1 -3 1 -1c2,-2 5,-4 8,-5l-2 -15 -56 7 -1 -6 82 -9 1 5 -18 3 1 14 3 1 2 1c2,1 5,3 7,7 2,3 3,7 4,11 0,3 0,6 0,9 -1,5 -4,9 -8,12 -2,2 -5,3 -8,3 0,0 -1,0 -2,0 -3,0 -5,-1 -8,-2 -3,-2 -5,-4 -7,-8 -1,4 -3,7 -5,10 -3,3 -6,4 -10,5 -1,0 -2,0 -3,0zm0 -39c-1,0 -1,0 -1,0 -5,1 -8,5 -9,11 -1,2 -1,4 -1,4l1 2 0 5 1 2c1,4 3,7 6,8 2,1 3,1 4,1 0,0 1,0 1,0 5,-1 8,-4 10,-10l1 -3 1 -6 -2 -4c-2,-4 -4,-6 -7,-8 -2,-1 -3,-2 -5,-2zm32 -3c0,0 -1,0 -1,0 -5,0 -8,4 -10,11l-1 2 0 4 0 2 2 3c2,6 6,10 11,10 1,0 2,0 2,-1 4,0 6,-2 7,-6 1,-1 1,-3 1,-5l0 -6 0 -4 -1 -2c-1,-2 -1,-3 -2,-4 -2,-3 -5,-4 -8,-4z"/>
   <path class="fil8" d="M3099 361c-2,0 -4,0 -7,-1 -2,-1 -5,-2 -7,-5 -3,-3 -4,-7 -5,-11 0,-3 1,-7 3,-12 -3,2 -6,3 -9,3 -1,0 -2,0 -3,-1 -4,0 -8,-2 -11,-6 -6,-7 -6,-15 -1,-24 2,-2 4,-4 6,-7 1,0 2,-1 3,-2 1,-1 3,-2 5,-3 4,-1 7,-2 11,-2 2,0 4,0 6,1 3,1 5,3 7,5 3,4 5,7 5,11 0,3 0,7 -2,11l5 -1 3 0 2 0c3,1 6,2 9,4l12 -11 -41 -46 5 -5 60 68 -5 5 -13 -15 -12 10 0 3 1 2c1,3 0,7 -2,12 -1,4 -4,7 -7,10 -3,2 -6,4 -9,5 -2,2 -5,2 -9,2zm8 -37c-2,0 -4,0 -7,1l-3 1 -3 2 -2 2 -2 3c-5,7 -5,13 0,18 2,2 4,4 7,4 1,0 2,-1 3,-1 2,-1 3,-1 5,-2l6 -5 3 -2 1 -2c2,-2 2,-4 3,-5 1,-4 1,-8 -2,-11 -2,-2 -5,-3 -9,-3zm-22 -27c-3,0 -5,1 -8,2 -2,1 -3,2 -4,3l-2 1 -3 3 -2 3c-3,3 -4,7 -3,10 0,2 1,4 2,5 2,3 5,4 9,4 2,0 4,0 6,-1l4 -1 5 -3 3 -4c2,-4 3,-8 3,-12 0,-2 -1,-5 -3,-7 -2,-2 -4,-3 -7,-3z"/>
   <path class="fil7" d="M2705 636c-4,0 -8,-1 -11,-2 -4,-2 -7,-4 -10,-7 -2,-3 -4,-7 -6,-11 -1,-2 -1,-5 -1,-7 0,-3 0,-5 1,-7 1,-2 2,-3 4,-5 2,-1 4,-2 6,-3 1,-1 3,-1 4,-1 0,0 0,0 1,0 1,0 2,1 4,1 1,1 2,2 3,3 0,1 1,2 1,4 1,2 1,3 1,5 0,1 -1,3 -1,4l-3 2 -3 2c-1,0 -2,0 -3,0 0,0 0,0 0,0 -2,0 -3,0 -4,-1l-3 -2c-1,-1 -1,-2 -2,-4l0 -1 0 -1 0 -1 0 -1c-1,1 -2,3 -2,5 0,1 0,3 1,6 1,3 2,5 5,7 2,2 4,4 8,5 3,1 6,1 9,1 0,0 1,0 1,0 3,0 7,-1 11,-2 4,-1 7,-3 10,-5 3,-2 6,-4 8,-6 2,-3 3,-6 4,-9 0,-2 0,-5 -1,-8 0,-3 -1,-4 -3,-6 -1,-1 -2,-2 -3,-3l0 1 1 1 0 1 0 1c1,1 1,3 1,4 0,1 0,3 -1,4l-2 2c-1,1 -2,2 -4,2 0,0 -1,1 -2,1 -1,0 -1,0 -1,0 -1,0 -2,-1 -3,-1 -2,-1 -3,-2 -4,-3 -1,-1 -2,-2 -2,-4l-1 -3 1 -3 1 -3 2 -3 -2 1 -3 0 -3 1c-1,1 -2,1 -3,1l-1 0c0,1 -1,1 -2,1 0,0 -1,0 -1,0 -1,-1 -2,-1 -4,-1l-3 -3c-1,0 -1,-2 -2,-3l0 -2 1 -1 1 -1 0 -1 3 0 1 1 2 2 1 2 1 1 3 0 0 0 1 -1 1 -1 1 -2 1 -2 1 -3 1 -3 1 -3c1,-2 2,-5 3,-7l0 -1 1 -1 2 0 2 2 0 1c-1,2 -2,4 -3,6 -1,2 -2,4 -3,6 -1,2 -1,4 -2,6l-1 2 -1 1c4,-1 7,-2 11,-2 0,0 0,0 0,0 3,0 6,1 8,2 3,1 5,3 7,5 2,2 4,5 5,8 1,5 1,9 1,13 -1,4 -2,7 -4,10 -2,4 -5,6 -9,9 -3,2 -7,4 -12,6 -4,1 -8,2 -13,2zm-13 -39l-2 0 -2 1 -1 2 -1 2 1 2 1 2 1 2 2 1 3 -1 1 -1 2 -1 0 -3 0 -2 -1 -2 -2 -1 -2 -1zm31 -9l-2 0 -2 1 -1 2 -1 2 1 2 1 2 1 1 2 1 3 0 1 -1 2 -2 0 -2 0 -2 -1 -2 -2 -2 -2 0z"/>
   <path class="fil6" d="M3832 687c-1,0 -2,0 -3,0 -2,-1 -5,-1 -6,-3 -2,-1 -4,-3 -5,-5 -2,-2 -3,-5 -4,-8 -1,-3 -1,-7 0,-10 1,-4 2,-7 4,-10 2,-3 4,-5 7,-7 4,-2 7,-3 11,-4 3,-1 6,-1 9,-1 1,0 1,0 2,0 3,0 6,0 9,1l3 -2 3 -3c1,-1 2,-1 4,-2 1,-1 3,-1 4,-2 2,0 3,0 4,0 1,0 1,0 1,0 1,0 2,0 3,0 1,0 2,0 4,1 1,0 2,1 3,1 2,-2 4,-4 6,-5 2,-1 5,-2 8,-3l22 -5 2 5 -10 2 9 38 -8 2 -10 -38 -5 1c-1,1 -3,2 -5,2 -1,1 -2,2 -3,4 1,1 3,2 4,3 1,1 3,3 4,4 1,2 2,3 3,5 1,2 1,4 2,6 0,1 0,3 1,5 0,2 -1,4 -1,6 -1,2 -2,3 -3,4 -1,2 -3,3 -5,3 -2,1 -3,1 -4,1 -1,0 -2,0 -2,0 -2,-1 -4,-2 -5,-3 -1,-1 -3,-3 -3,-4 -1,-2 -2,-4 -3,-7 0,-3 -1,-7 0,-10 0,-4 1,-7 3,-10 -2,-1 -4,-2 -6,-2 0,0 -1,0 -2,0 -1,0 -2,0 -3,0 -2,1 -4,1 -5,2 -2,1 -3,2 -4,4 3,2 6,4 8,7 3,3 4,6 5,10 1,2 1,4 1,6 0,2 0,4 -1,6 0,2 -1,3 -2,4 -2,2 -3,3 -6,3 -1,0 -2,1 -3,1 -1,0 -2,0 -3,-1 -2,0 -3,-1 -5,-2 -1,-1 -2,-3 -3,-5 -1,-1 -1,-3 -2,-6 -1,-3 -1,-7 -1,-10 0,-3 1,-7 3,-10 -3,0 -5,-1 -8,-1 -1,0 -1,0 -2,0 -2,0 -4,0 -6,0 -2,1 -5,2 -7,3 -3,2 -5,4 -7,6 -1,2 -3,4 -3,7 -1,3 -1,6 0,10 0,2 1,4 3,6 1,1 3,2 6,3l-2 -1 -1 -2 0 -1 -1 -2c0,-2 0,-3 0,-5 0,-1 1,-3 1,-4 1,-1 2,-2 4,-3 1,-1 2,-1 4,-2 1,0 2,0 3,0 1,0 1,0 2,0 2,0 3,1 4,2 1,1 2,2 3,3 1,2 2,4 2,5 1,2 1,4 1,6 -1,2 -2,3 -3,5 -1,1 -2,2 -4,3 -1,1 -3,2 -5,2 -2,1 -3,1 -5,1zm2 -21l-2 1 -1 2 -1 2 1 3 1 2 1 2 2 2 2 0 2 -1 1 -2 0 -2 0 -3 -1 -3 -1 -2 -2 -1 -2 0zm24 -17c-1,3 -2,5 -2,8 0,3 0,5 0,8l1 1 1 3 1 2 2 2 1 1 3 0 2 -2 1 -3c0,-1 0,-2 0,-3 0,-1 0,-2 -1,-3 0,-3 -2,-6 -3,-8 -2,-2 -4,-4 -6,-6zm29 -7c-2,2 -2,5 -3,8 0,2 0,5 1,8l0 2 1 2 1 2 2 2 2 1 2 0 2 -2 1 -2c0,-1 0,-3 0,-4 0,-1 0,-2 0,-3 -1,-3 -2,-5 -4,-8 -1,-2 -3,-5 -5,-6z"/>
   <path class="fil8" d="M3215 236c-1,-1 -3,-2 -4,-3 -1,-1 -2,-2 -3,-4 -1,-1 -2,-3 -3,-5 0,-1 0,-3 -1,-5 0,-2 0,-3 0,-5 0,-4 1,-8 2,-11 1,-4 3,-7 5,-9 2,-3 5,-5 8,-6 4,-2 7,-2 12,-2 2,0 3,0 5,0 2,1 4,1 5,2 0,0 1,0 1,0 2,1 3,2 5,3 1,1 3,3 4,4 1,-2 2,-3 3,-5 2,-1 3,-2 4,-3 2,0 3,-1 4,-1 2,0 3,0 4,0 2,0 3,0 4,0 1,0 2,0 2,1 1,0 1,0 2,1 1,0 2,1 3,2 1,1 2,3 3,4 1,-1 2,-3 4,-4 1,-1 2,-2 4,-3 1,0 2,-1 4,-1 1,0 3,0 4,0 3,0 6,0 9,1 0,0 0,0 1,1 2,1 5,3 6,5 2,3 4,5 4,8 1,3 2,7 2,10 0,3 -1,6 -2,8 0,3 -2,6 -3,8 -2,2 -4,4 -6,6 -2,2 -5,3 -8,4l-3 -6c2,-1 4,-2 6,-3 1,-1 2,-3 3,-4 1,-2 2,-4 3,-6 0,-2 1,-4 1,-7 0,-2 -1,-4 -1,-7 -1,-2 -1,-4 -3,-6 -1,-1 -2,-3 -4,-4 0,0 -1,0 -1,-1 -2,0 -3,0 -5,0 -1,0 -3,0 -4,1 -2,0 -3,1 -4,2 -1,2 -2,3 -2,5 -1,2 -1,4 -1,6l0 30 -9 0 0 -29c0,-3 -1,-5 -1,-7 0,-1 -1,-3 -2,-4 -1,-2 -2,-3 -3,-3 0,-1 -1,-1 -1,-1 -1,0 -2,0 -3,0 -2,0 -3,0 -5,1 -1,1 -2,2 -3,3 0,1 -1,3 -2,5 0,1 0,3 0,5l0 30 -9 0 0 -28c0,-2 -1,-4 -1,-6 -1,-2 -2,-4 -4,-6 -1,-1 -3,-2 -5,-3 0,0 0,0 0,0 -2,-1 -4,-1 -6,-1 -3,0 -6,0 -8,1 -2,0 -4,2 -6,3 -2,1 -3,3 -4,5 -1,2 -2,4 -2,7l2 -2 3 -2 3 -1c1,-1 3,-1 4,-1 2,0 5,1 7,1 0,0 0,1 0,1 2,1 4,2 5,3 1,2 2,4 3,6 1,2 1,4 1,6 0,3 0,5 -1,7 -1,2 -2,4 -4,5 -1,2 -3,3 -5,4 -2,1 -4,1 -6,1 -2,0 -4,0 -6,-1 0,0 0,0 -1,0zm9 -24c-1,-1 -3,-1 -4,-1l-4 1 -2 1c-1,1 -2,2 -2,3 -1,2 -1,3 -1,4 0,2 0,3 1,4 0,2 1,3 2,4 1,1 1,1 3,2 0,0 0,0 0,0 1,1 2,1 3,1 1,0 3,0 4,-1 1,-1 2,-1 3,-2 0,-1 1,-2 1,-3 1,-2 1,-3 1,-4 0,-3 -1,-6 -2,-7 -1,-1 -2,-2 -3,-2z"/>
   <path class="fil7" d="M2888 464c-1,0 -1,0 -2,-1 -1,-1 -2,-2 -4,-3 -1,-1 -2,-2 -3,-3 -2,-4 -4,-7 -5,-10 -1,-4 -1,-7 -1,-10 1,-4 2,-7 3,-10 2,-3 4,-5 8,-8 1,-1 3,-2 4,-2 2,-1 4,-2 6,-2 1,-1 3,-1 5,-1 2,0 4,1 6,1 -1,-2 -1,-4 0,-5 0,-2 0,-4 1,-5 1,-1 1,-2 2,-3 1,-1 2,-2 3,-3l3 -2 4 -1c1,0 3,0 4,1 2,0 3,0 5,1 0,-2 0,-4 0,-5 0,-2 1,-3 1,-5 1,-1 2,-2 3,-3 1,-1 2,-2 3,-3 3,-2 6,-3 8,-4 3,0 6,0 9,1 2,0 4,1 5,2 1,1 2,1 3,2 2,2 4,4 6,6 2,3 3,5 4,8 1,2 1,5 1,8 0,2 0,5 -1,8 0,2 -2,5 -3,7l-6 -3c1,-2 2,-3 2,-5 1,-2 1,-4 1,-6 0,-2 -1,-4 -2,-5 0,-2 -2,-4 -3,-6 -1,-2 -3,-4 -4,-5 -1,-1 -2,-1 -3,-2 -1,0 -2,-1 -2,-1 -2,-1 -4,-1 -6,-1 -2,0 -4,1 -6,2 -1,1 -2,2 -3,3 0,2 -1,3 -1,5 0,1 0,3 1,5 0,1 1,3 3,5l16 23 -7 5 -16 -23c-1,-1 -3,-3 -4,-4 -1,-1 -1,-1 -2,-2 -1,0 -2,0 -2,-1 -2,0 -3,0 -4,0 -2,0 -3,0 -4,1 -1,1 -2,2 -3,4 0,1 0,2 0,4 0,1 0,3 1,5 1,1 1,3 3,4l16 23 -7 5 -15 -21c-2,-2 -3,-3 -5,-4 0,0 0,0 0,0 0,0 0,0 0,0 -2,-1 -4,-2 -6,-2 -1,-1 -3,-1 -5,0 -2,0 -4,1 -6,2 -2,2 -4,3 -5,5 -2,2 -2,4 -3,6 0,2 -1,4 0,7 0,2 1,4 2,6l0 -3 2 -3c0,-1 1,-2 1,-3 1,-1 2,-1 3,-2 2,-2 4,-3 6,-3 2,-1 4,-1 6,0 2,0 3,1 5,2 0,0 0,0 1,0 1,2 3,3 4,5 2,2 3,4 3,6 0,2 1,4 0,6 0,2 -1,4 -2,6 -1,1 -2,3 -4,4 -1,1 -3,2 -5,3 -2,0 -4,0 -5,0 -2,0 -4,0 -5,-1 -1,-1 -2,-1 -3,-2zm11 -20c-1,0 -2,-1 -3,-1 -2,0 -4,0 -6,2l-2 2 -2 3 0 4c1,1 1,2 2,3 1,1 2,2 3,3 0,0 0,0 0,0 1,1 2,1 4,1 1,1 2,1 3,1l3 -2c1,0 2,-1 3,-3 0,-1 1,-2 1,-3l-1 -3c0,-2 -1,-3 -2,-4 -1,-1 -2,-2 -3,-3z"/>
   <path class="fil6" d="M4076 782c-1,0 -2,0 -4,0 -1,0 -3,-1 -5,-1 -1,-1 -3,-1 -4,-2 -3,-2 -7,-4 -9,-6 -3,-3 -4,-6 -6,-9 -1,-3 -1,-6 -1,-9 0,-4 1,-7 3,-11 1,-2 2,-3 3,-5 1,-1 2,-2 3,-4 2,-1 3,-2 5,-3 2,0 4,-1 5,-1 -1,-2 -2,-4 -2,-5 -1,-2 -1,-3 -1,-5 0,-1 0,-3 0,-4 1,-1 1,-3 2,-4l2 -3 3 -2c1,-1 2,-2 3,-2 2,-1 3,-1 5,-1 -1,-1 -2,-3 -2,-5 -1,-1 -1,-3 -1,-4 0,-2 0,-3 1,-4 0,-2 1,-3 1,-4 2,-3 4,-6 6,-7 2,-2 5,-3 8,-4 1,0 2,0 4,0 1,0 3,0 4,0 3,1 6,2 9,3 2,1 5,3 7,5 2,1 3,3 5,6 1,2 2,5 3,7 0,3 0,6 0,9l-6 0c0,-2 -1,-4 -1,-6 -1,-2 -1,-4 -2,-5 -1,-2 -3,-3 -4,-5 -2,-1 -4,-2 -6,-3 -2,-1 -4,-2 -6,-2 -1,-1 -3,-1 -4,-1 -1,0 -1,0 -2,0 -2,0 -4,1 -5,2 -2,1 -3,3 -4,5 -1,1 -1,2 -1,4 0,1 0,3 1,4 0,1 1,3 3,4 1,1 2,3 4,3l26 13 -4 8 -25 -12c-2,-1 -4,-2 -6,-3 -1,0 -2,0 -3,0 -1,0 -1,0 -1,0 -2,0 -3,1 -4,2 -2,0 -2,1 -3,3 -1,1 -1,3 -1,4 0,1 1,3 2,4 1,1 2,2 3,3 1,2 3,3 4,3l26 13 -4 8 -24 -12c-2,-1 -4,-2 -6,-2 0,0 -1,0 -1,0 -2,0 -3,1 -5,1 -2,1 -3,2 -5,3 -1,1 -3,3 -4,5 -1,2 -2,4 -2,7 0,2 0,4 0,6 1,2 2,4 3,6 1,2 3,3 5,4l-1 -2 0 -3 0 -4c0,-1 1,-2 1,-3 1,-2 3,-4 4,-6 2,-1 4,-2 6,-2 1,-1 2,-1 3,-1 1,0 2,0 3,0 2,1 4,1 6,2 2,1 4,3 5,4 1,2 2,4 3,6 1,1 1,3 1,5 0,2 -1,4 -1,6 -1,2 -3,4 -4,5 -1,1 -3,2 -4,3 -2,0 -4,1 -5,1 -1,0 -2,0 -2,0zm-2 -23c0,0 -1,0 -2,0 -2,1 -4,3 -5,5l-1 3 0 3 2 3c1,1 2,2 3,3 1,0 3,1 4,1 0,0 0,0 1,0 1,0 2,0 3,-1 1,0 2,-1 3,-1l2 -3c1,-1 1,-2 1,-3 0,-2 0,-3 -1,-4l-2 -3 -3 -2c-1,-1 -3,-1 -5,-1z"/>
   <path class="fil7" d="M2471 707l-4 -10 -2 2c-1,1 -3,2 -4,2 -1,1 -3,1 -5,1 -1,0 -2,0 -4,-1 -2,0 -5,-2 -7,-5 -4,-1 -7,-4 -10,-6 -3,-3 -5,-7 -6,-11 -2,-5 -2,-9 -2,-13 1,-5 2,-9 4,-13 2,-4 6,-7 10,-10 4,-3 8,-6 14,-8 3,-1 7,-2 10,-2 1,0 2,0 3,0 3,0 5,0 8,0 3,1 6,2 9,3 3,2 6,3 8,5 2,3 5,5 6,7 2,3 4,6 5,9 1,3 2,7 2,11 0,4 -1,8 -2,12l-7 -3c1,-2 2,-5 2,-8 0,-4 0,-7 -1,-10 -2,-4 -4,-7 -7,-10 -2,-3 -6,-5 -9,-7 -4,-2 -8,-3 -12,-3 -1,0 -1,0 -2,0 -4,0 -7,1 -11,2 -5,2 -8,4 -12,6 -3,3 -6,6 -8,9 -2,3 -3,6 -3,10 -1,3 -1,7 1,10 1,5 4,9 8,11 0,-3 1,-5 2,-8 2,-2 4,-4 7,-5 1,0 3,0 4,0 1,0 1,0 2,0 2,0 4,0 5,2 1,-2 2,-4 3,-5 2,-2 3,-3 5,-4 2,0 3,0 5,0 0,0 1,0 1,0 2,0 3,0 5,1 2,1 3,2 4,3 1,2 2,3 3,5l8 22 -6 2 -8 -22 -1 -2 -3 -2 -3 -1 -2 1 -3 1 -1 2 -1 3 0 3 8 22 -6 2zm-14 -27l-3 1 -3 1 -1 2 -1 3 1 3 1 3 3 2 2 0 3 0 2 -1 2 -3 1 -2 -1 -3 0 -1 0 0 -1 -2 -3 -2 -2 -1z"/>
   <path class="fil7" d="M2483 623c-1,0 -2,0 -3,-1 -2,-1 -3,-2 -3,-4 -1,-1 0,-3 1,-4 1,-2 2,-3 4,-3 1,0 1,0 2,0 1,0 2,0 3,0 2,1 3,2 3,4 1,2 0,3 -1,5 -1,1 -2,2 -4,3 -1,0 -1,0 -2,0zm15 -16c-12,0 -19,-3 -21,-10l-2 -5 23 -11c-5,-3 -9,-4 -15,-4 -3,0 -7,1 -11,2l-3 -10 -9 2 -1 -3 74 -18 1 3 -11 3 10 41 5 4c-17,4 -30,6 -40,6zm11 -48l-23 6 1 2c5,3 9,4 10,5 4,3 6,6 7,9l-15 8c1,6 5,9 12,12 3,1 8,2 12,2 2,0 4,0 6,-1l-10 -43z"/>
   <g>
    <path class="fil8" d="M3169 431c-5,0 -9,-1 -13,-1 -11,-2 -22,-4 -33,-6 -20,-4 -39,-10 -57,-20 -6,-3 -9,-8 -7,-15 1,-7 5,-13 9,-19l2 -1 1 3c0,1 -1,3 -1,4 -1,5 0,8 4,10 11,7 24,12 36,16 19,7 38,12 58,15 5,1 10,2 15,2 3,0 6,-1 9,-1 3,-1 7,-4 10,-5 2,-1 3,-1 4,-1l0 1c-4,6 -10,10 -16,13 -7,4 -14,5 -21,5z"/>
    <path class="fil8" d="M3106 457c-3,-2 -6,-4 -8,-7 -2,-2 -3,-4 -4,-5 -1,-2 -1,-2 1,-3 4,-2 9,-5 14,-7l3 1c4,4 7,8 11,12 2,1 1,2 -1,3 -4,2 -8,4 -13,6 -1,0 -2,0 -3,0z"/>
   </g>
   <path class="fil8" d="M3299 478c-2,-4 -4,-8 -6,-12 -5,-11 -14,-20 -25,-26 -4,-2 -4,-6 -6,-10l1 -1c14,-11 30,-18 48,-19l0 0c3,-1 2,-5 3,-7l-2 -2c-14,-3 -29,-6 -43,-9l-3 0c0,-4 1,-5 2,-5 1,0 2,0 4,0 19,4 39,8 59,12 5,1 5,1 3,7 -4,-1 -7,-2 -11,-3 -1,1 -1,2 -1,3 -5,23 -9,45 -14,67 0,3 -1,4 -3,4 -2,0 -4,1 -6,1zm-15 -52c-1,0 -3,1 -4,2 -3,2 -5,3 -7,5 12,8 22,18 28,32 1,-1 1,-2 1,-2 1,-5 2,-9 3,-14l-1 -3c-6,-6 -11,-11 -17,-17 -2,-2 -2,-3 -3,-3zm26 -8c-6,0 -16,3 -19,5 5,6 10,11 15,17 2,-8 3,-15 5,-22 0,0 0,0 -1,0z"/>
   <path class="fil7" d="M2914 694c-1,-3 -3,-6 -4,-9 -4,-9 -11,-15 -20,-20 -2,-2 -3,-5 -4,-7l1 -2c11,-8 23,-13 36,-14l1 0c2,-1 1,-4 2,-5l-2 -2c-11,-2 -22,-4 -32,-6l-3 -1c1,-3 1,-4 2,-4 1,0 1,1 2,1 15,3 31,6 46,9 3,1 3,1 2,5 -3,-1 -6,-2 -9,-2l0 2c-4,17 -7,34 -11,51 0,2 -1,3 -2,3 -2,0 -3,1 -5,1zm-12 -40c0,0 -1,1 -3,2 -1,1 -3,2 -5,4 9,6 17,13 22,24l1 -2c0,-3 1,-7 2,-10l-1 -3c-4,-4 -8,-8 -13,-12 -1,-2 -2,-3 -3,-3zm21 -6c-5,0 -12,2 -15,4 4,4 8,8 12,13 1,-6 2,-11 3,-17 0,0 0,0 0,0z"/>
   <path class="fil7" d="M2750 431c-1,0 -2,0 -4,0 -2,-1 -3,-2 -5,-4 -2,-1 -3,-3 -3,-4 -1,-2 -1,-4 -1,-6 1,-2 1,-4 2,-6 1,-2 2,-4 3,-6 1,-2 2,-4 2,-5 1,-2 2,-4 3,-6 0,-1 1,-3 1,-4 0,-1 -1,-2 -2,-3 -1,-1 -2,-2 -3,-2 -1,-1 -2,-1 -3,-1 0,0 -1,0 -1,0 -1,1 -3,1 -4,2 -1,1 -3,2 -4,3 -1,1 -2,3 -2,4 -1,1 -1,2 -2,4 0,1 0,2 1,4 0,1 1,2 1,3l-5 6c-2,-2 -3,-4 -4,-6 0,-2 0,-4 0,-7 0,-2 1,-4 2,-6 1,-2 2,-4 4,-6 2,-2 4,-4 6,-5 2,-2 4,-2 6,-3 1,0 2,0 3,0 2,0 3,0 4,0 2,1 4,2 6,4l20 18c1,1 2,2 3,2 0,0 0,0 1,0 0,0 1,-1 2,-1l0 -1 1 0 4 4 -1 2 -1 1c-1,2 -3,2 -5,2 0,0 0,0 0,0 -2,0 -5,-1 -7,-3 0,3 0,5 0,7 0,2 0,4 -1,6 0,1 -1,3 -2,4 -1,2 -2,3 -3,4 -2,2 -3,3 -5,4 -2,1 -3,1 -5,1 -1,0 -1,0 -2,0zm2 -39c0,2 0,3 -1,5 0,2 -1,4 -2,5 -1,2 -2,4 -2,6 -1,2 -2,3 -3,5 0,2 0,3 0,5 0,1 1,3 2,4 1,1 2,1 3,2 1,0 2,0 2,0 1,0 1,0 1,0 1,0 2,-1 3,-1l3 -2c2,-3 3,-6 4,-9 1,-4 0,-8 -1,-12l-9 -8z"/>
   <path class="fil8" d="M3562 678c-2,0 -3,-1 -4,-1 -1,-1 -2,-2 -3,-3 -1,-1 -1,-2 -2,-4 0,-1 0,-2 0,-4l0 -32c-1,1 -3,3 -4,4 -2,1 -4,1 -7,1 0,0 -1,0 -3,0 -1,0 -2,-1 -3,-1l0 5c0,6 -2,11 -5,15 -3,3 -8,5 -13,5 -4,0 -8,-1 -11,-3 -3,-1 -6,-4 -8,-6 -2,-2 -4,-5 -6,-8 -2,-3 -3,-6 -5,-9 -2,0 -3,-1 -5,-2 -1,-1 -2,-2 -3,-3l-3 -3 -1 -2c1,-1 2,-2 3,-3l2 -1 1 -1 1 2 2 2c1,1 2,2 4,2 1,1 2,1 4,1 1,0 3,0 4,-1 2,0 3,-1 4,-2 2,-1 3,-2 3,-4 1,-2 2,-4 2,-6 0,-2 -1,-3 -1,-5 -1,-1 -1,-3 -2,-4 -1,-1 -2,-2 -4,-3 -1,0 -2,-1 -3,-1 -2,0 -3,1 -5,1 -1,1 -3,2 -5,3l-5 -5c2,-3 5,-5 7,-6 2,-1 5,-1 7,-1 3,0 6,0 9,2 2,1 4,3 5,5 2,2 3,4 4,7 1,2 1,5 1,7 0,4 0,6 -1,9 -1,2 -2,4 -3,6 -2,2 -4,3 -6,4 -1,1 -3,2 -5,2 0,2 1,4 3,6 1,2 2,4 4,5 1,2 3,3 5,4 2,1 4,2 7,2 2,0 3,-1 5,-1 1,-1 2,-2 3,-3 0,-1 1,-3 1,-4 0,-1 0,-2 0,-3l0 -33 9 0 0 19c1,1 2,1 3,1 1,1 2,1 3,1 3,0 5,-1 7,-2 1,-1 2,-3 4,-5l0 -29 8 0 0 71 1 2 2 1 1 -1 2 -1 4 4 -1 2 -2 2 -3 2c0,0 -2,1 -3,1z"/>
   <path class="fil6" d="M4326 358c-2,0 -3,-1 -4,-1 -2,-1 -3,-2 -3,-3 -1,-1 -2,-2 -2,-4 -1,-1 -1,-2 -1,-4l0 -32c-1,2 -2,3 -4,4 -2,1 -4,1 -6,1 -1,0 -2,0 -3,0 -1,0 -2,-1 -3,-1l0 5c0,6 -2,11 -5,15 -3,3 -8,5 -14,5 -4,0 -7,-1 -10,-3 -3,-1 -6,-3 -8,-6 -3,-2 -5,-5 -7,-8 -1,-3 -3,-6 -4,-9 -2,0 -4,-1 -5,-2 -1,0 -3,-1 -4,-2l-2 -4 -2 -2c1,-1 2,-2 3,-2l2 -2 1 -1 2 2 2 2c1,1 2,2 3,2 1,1 3,1 4,1 2,0 3,0 5,0 1,-1 3,-2 4,-3 1,-1 2,-2 3,-4 1,-2 1,-3 1,-6 0,-2 0,-3 -1,-5 0,-1 -1,-3 -2,-4 -1,-1 -2,-2 -3,-2 -1,-1 -2,-1 -4,-1 -1,0 -3,0 -4,0 -2,1 -4,2 -6,3l-5 -5c3,-3 5,-5 8,-6 2,-1 4,-1 7,-1 3,0 6,0 8,2 3,1 5,3 6,5 2,2 3,4 4,7 1,2 1,5 1,7 0,4 0,6 -1,9 -1,2 -2,4 -4,6 -1,2 -3,3 -5,4 -2,1 -4,2 -6,2 1,2 2,4 3,6 1,2 3,4 4,5 2,2 4,3 6,4 2,1 4,2 6,2 2,0 4,0 5,-1 1,-1 2,-2 3,-3 1,-1 1,-3 2,-4 0,-1 0,-2 0,-3l0 -33 9 0 0 19c0,1 1,1 3,1 1,1 2,1 3,1 2,0 4,-1 6,-2 2,-1 3,-3 4,-5l0 -28 9 0 0 70 0 2 2 1 2 -1 1 -1 5 4 -1 2 -2 2 -3 2c-1,0 -2,1 -3,1z"/>
   <path class="fil7" d="M2484 521c-2,0 -4,0 -6,-1 -2,0 -4,-1 -5,-2 -2,-2 -4,-3 -5,-5 -1,-2 -1,-4 -1,-7 0,-2 0,-4 1,-5 0,-1 2,-3 3,-4l-3 -2 -2 -2c-1,-1 -1,-2 -2,-3 0,-2 0,-3 0,-4 0,-2 0,-3 1,-5 1,-1 2,-2 3,-3 1,-1 3,-2 5,-3 2,0 4,-1 6,-1l1 6c-1,0 -2,0 -3,0 -1,0 -2,1 -3,1l-3 3 -1 2c0,2 0,3 1,3l2 2 2 1 3 1 6 0 0 6 -5 0 -2 0 -2 1 -2 3 0 3c0,1 0,3 1,4 1,1 2,2 3,3 1,1 2,1 3,2 2,0 3,0 4,0 3,0 5,0 7,-1 2,-1 3,-2 4,-4 1,-1 2,-3 2,-4 1,-2 1,-4 1,-5 0,-2 0,-3 0,-5 -1,-1 -1,-3 -2,-4 -1,-2 -1,-3 -2,-5 -1,-1 -2,-3 -2,-4 -1,-1 -1,-3 -2,-4 0,-2 0,-3 0,-5 0,-2 0,-4 0,-5 1,-2 2,-3 3,-4 1,-1 2,-2 3,-2 1,-1 3,-1 4,-1 2,0 3,0 4,1l3 2 2 2c0,1 1,2 1,4l0 2 -1 1 -1 2 -1 1 -5 -3 1 -2 1 -1 0 -1 -1 -1 -1 -1 -2 0 -1 0 -2 2 -1 1 0 3c0,1 0,3 0,4 1,2 1,3 2,5 0,1 1,2 2,4 1,1 1,3 2,4 1,2 1,3 2,5 0,2 0,3 0,5 0,3 0,6 -1,8 -1,2 -2,5 -4,6 -2,2 -4,4 -6,5 -3,1 -6,1 -9,1z"/>
   <path class="fil8" d="M3528 569c-2,0 -5,0 -8,-1 -2,-1 -5,-2 -7,-4 -2,-1 -4,-3 -5,-6 -1,-2 -2,-5 -2,-9 0,-2 0,-4 1,-6 1,-2 2,-4 5,-6 -2,0 -3,-1 -4,-2 -1,0 -2,-1 -3,-3 -1,-1 -2,-2 -2,-4 -1,-1 -1,-3 -1,-5 0,-2 0,-4 1,-5 1,-2 3,-4 4,-5 2,-1 4,-2 7,-3 2,-1 5,-2 8,-2l1 7c-1,0 -3,1 -4,1 -2,0 -3,1 -4,2 -2,0 -3,1 -4,2 -1,1 -1,3 -1,4 0,2 0,3 1,4l2 2c1,1 2,1 4,2 1,0 2,0 3,0l8 0 0 8 -6 0 -3 0 -3 2c-1,1 -1,2 -2,3 0,1 0,3 0,4 0,2 0,4 1,6 1,1 2,3 4,3 1,1 3,2 4,3 2,0 4,1 5,1 4,0 7,-1 9,-2 2,-2 4,-3 5,-5 2,-2 3,-4 3,-6 1,-2 1,-4 1,-6 0,-2 0,-4 0,-6 -1,-2 -2,-4 -2,-6 -1,-2 -2,-4 -3,-6 -1,-2 -2,-3 -3,-5 -1,-2 -1,-4 -2,-6 0,-2 -1,-4 -1,-6 0,-3 1,-5 1,-7 1,-2 2,-3 3,-4 2,-2 3,-3 5,-3 1,-1 3,-1 5,-1 2,0 3,0 5,1 1,0 2,1 4,2 1,1 2,2 2,3 1,2 1,3 1,5l0 2 -1 3 -1 2 -1 1 -6 -4 1 -2 1 -2 -1 -1 0 -1 -2 -1 -2 -1 -2 1 -2 1 -1 3c-1,0 -1,2 -1,3 0,2 0,4 1,6 0,1 1,3 2,5 1,2 2,4 3,6 1,2 1,4 2,6 1,2 2,4 2,6 1,2 1,4 1,6 0,4 0,7 -2,10 -1,4 -2,6 -5,9 -2,2 -4,4 -8,5 -3,2 -6,2 -11,2z"/>
   <path class="fil6" d="M3721 556c-2,0 -5,0 -7,-1 -2,0 -4,-1 -6,-3 -1,-1 -3,-3 -4,-5 -1,-2 -1,-4 -1,-7 0,-2 0,-3 1,-5 0,-1 1,-3 3,-5l-3 -1 -2 -2c-1,-1 -1,-2 -2,-4 0,-1 0,-2 0,-4 0,-1 0,-3 1,-4 0,-2 1,-3 3,-4 1,-1 3,-2 5,-3 2,0 4,-1 6,-1l1 6c-1,0 -2,0 -3,0 -1,1 -2,1 -3,2l-3 2c-1,1 -1,2 -1,3 0,1 0,2 0,3l2 2 3 1 3 0 6 0 0 6 -4 0 -3 1 -2 2 -2 2 0 3c0,2 0,3 1,4 1,2 2,3 3,3 1,1 2,2 4,2 1,1 2,1 4,1 2,0 5,-1 7,-2 1,-1 3,-2 4,-3 1,-2 2,-3 2,-5 1,-2 1,-3 1,-5 0,-2 0,-3 -1,-5 0,-2 -1,-3 -1,-5 -1,-1 -2,-3 -2,-4 -1,-2 -2,-3 -3,-5 0,-1 -1,-3 -1,-4 -1,-2 -1,-3 -1,-5 0,-2 1,-4 1,-5 1,-2 1,-3 2,-4 1,-1 3,-2 4,-2 1,-1 3,-1 4,-1 2,0 3,0 4,1 1,0 2,1 3,1l2 3c1,1 1,2 1,4l0 2 -1 2 -1 1 -1 2 -5 -4 2 -1 0 -2 0 -1 -1 -1 -1 -1 -2 0 -1 0 -2 1 -1 2 -1 3c0,2 1,3 1,5 0,1 1,2 2,4 0,1 1,3 2,4 1,2 1,4 2,5 1,2 1,3 2,5 0,2 0,3 0,5 0,3 0,6 -1,8 -1,3 -2,5 -4,7 -2,2 -4,3 -7,5 -2,1 -5,1 -8,1z"/>
   <g>
    <path class="fil8" d="M3311 550c-11,0 -22,0 -35,-2 -5,-1 -13,-2 -21,-5 -6,-3 -7,-5 -7,-12 0,-4 2,-8 4,-11l2 -2 1 3c0,1 0,2 -1,3 0,3 1,4 3,5 6,3 13,5 21,6 15,3 30,5 46,5 1,0 1,0 2,0 5,0 11,0 16,-1 4,0 7,-2 9,-5l1 -1 3 0 -1 2c-6,10 -15,14 -25,15 -6,0 -12,0 -18,0z"/>
    <path class="fil8" d="M3304 572c-1,0 -1,-1 -2,-1 -3,-2 -6,-4 -9,-6 -1,1 -3,2 -5,3 -1,1 -2,1 -3,1 -2,0 -4,-1 -5,-2 -2,-1 -4,-3 -6,-4l0 -2c3,-2 5,-4 8,-5l3 0c3,2 5,4 8,6 1,0 1,0 2,0 0,0 1,0 1,0 2,-2 4,-3 6,-4l2 0c3,2 5,4 8,5 2,1 2,2 0,3 -2,2 -4,3 -6,5 -1,0 -1,1 -2,1z"/>
    <path class="fil8" d="M3293 585l-1 0c-4,-2 -7,-4 -10,-6l0 -1c3,-2 6,-4 9,-6l2 0c3,3 6,5 9,7l1 1c-3,2 -7,4 -10,5z"/>
   </g>
   <g>
    <path class="fil6" d="M3953 463c-7,0 -14,-3 -20,-8 -14,-10 -25,-21 -38,-37 -3,-4 -8,-10 -11,-18 -3,-6 -2,-9 2,-13 3,-3 7,-5 11,-6l2 1 0 2 -4 2c-1,2 -2,3 -1,5 3,7 7,13 11,19 9,12 19,24 30,35 5,5 10,8 15,12 3,2 6,3 10,3l1 0 2 1 -2 1c-3,1 -5,1 -8,1z"/>
    <path class="fil6" d="M3910 456c0,0 0,0 -1,0 -2,0 -5,0 -8,-1 -1,0 -2,-1 -2,-2 -1,-3 -2,-7 -3,-11 -1,0 -3,-1 -6,-1 -3,-1 -4,-3 -5,-6 -1,-2 -1,-5 -1,-7 -1,-1 0,-2 0,-2 1,0 1,0 1,0 3,1 6,1 10,2l1 2c1,3 2,7 2,10 1,1 1,2 3,2 2,0 4,1 6,1l2 1c1,4 1,7 2,10 1,2 1,2 -1,2z"/>
    <path class="fil6" d="M3893 460c-4,-1 -7,-2 -11,-3l-1 -1c-1,-4 -2,-7 -2,-11l0 0c4,0 7,1 11,1l1 2c1,4 2,7 2,11l0 1z"/>
   </g>
   <path class="fil7" d="M2910 585c-1,-1 -2,-2 -2,-4 -4,-10 -11,-18 -22,-21 -8,-2 -12,-6 -16,-12 10,-7 20,-13 31,-17 2,-1 3,-3 5,-4l-1 -2c-7,0 -13,0 -19,0 -5,0 -9,0 -13,0 -1,0 -1,0 -1,0 -4,0 -7,-2 -10,-6 2,0 4,0 6,0 2,0 4,0 7,0 3,0 7,0 11,0 4,0 8,0 12,0 11,0 22,0 34,0 0,0 0,0 0,0 4,0 7,1 10,6 -5,0 -9,0 -14,0 -4,0 -8,0 -12,0 -1,0 -3,1 -5,2 2,1 3,2 4,3 11,3 19,12 20,23 0,5 -2,10 -7,12 -1,0 -3,1 -4,1 -2,0 -4,-2 -6,-4 -1,-2 -1,-7 0,-8 2,-2 6,-1 9,-2l2 1c0,-9 -7,-15 -16,-15 -1,0 -1,0 -2,0 0,16 0,31 0,47l-1 0zm-5 -48c-8,5 -15,8 -21,12 7,6 14,12 21,18 0,-9 0,-19 0,-30z"/>
   <path class="fil7" d="M2747 794c-1,-1 -2,-2 -3,-3 -3,-8 -9,-14 -17,-17l-1 1c0,12 -10,18 -20,18 -1,0 -3,0 -4,-1 -7,-1 -13,-5 -18,-10 -6,-6 -11,-12 -15,-19l0 -1 4 2c5,7 10,13 17,17 5,2 9,4 14,4 2,0 5,0 8,-1 8,-4 12,-14 7,-22 -2,-3 -6,-5 -9,-5 -2,0 -3,0 -5,1l1 1c3,3 3,7 1,10 -1,2 -4,3 -7,3 -1,0 -1,0 -2,0 -4,-1 -6,-4 -7,-8 0,-4 2,-7 5,-10 -3,-2 -6,-4 -9,-4 -1,0 -3,0 -4,1 -4,2 -9,3 -13,4 -1,1 -2,1 -3,1 -1,0 -3,-1 -5,-3l3 -1c22,-7 44,-15 67,-23 1,0 1,0 2,0 2,0 4,1 5,2 -3,2 -7,3 -11,4 7,20 14,39 20,59l-1 0zm-11 -20c-4,-12 -8,-24 -13,-37 -10,3 -19,7 -29,10l1 2 4 2 2 1c1,-1 3,-1 5,-1 6,0 12,4 16,10 3,6 10,8 14,13z"/>
   <path class="fil6" d="M4331 455c-1,-1 -3,-2 -3,-4 -4,-8 -10,-14 -19,-17l0 1c-1,12 -11,18 -21,18 -1,0 -3,0 -5,0 -7,-2 -13,-6 -18,-11 -6,-6 -11,-12 -16,-19l1 -1 3 2c5,6 11,13 18,17 5,3 10,4 15,4 2,0 5,0 8,-1 9,-4 12,-14 7,-22 -2,-4 -6,-6 -9,-6 -2,0 -3,1 -5,1l1 2c2,3 3,6 1,9 -2,2 -4,4 -7,4 -1,0 -2,0 -3,0 -3,-1 -6,-4 -6,-8 -1,-5 1,-8 4,-11 -3,-2 -6,-4 -9,-4 -1,0 -3,0 -4,1 -4,2 -9,3 -13,5 -1,0 -2,0 -3,0 -2,0 -4,-1 -5,-2l2 -2c23,-8 46,-15 69,-24 1,0 2,0 3,0 2,0 4,1 5,3 -4,1 -7,2 -11,4 7,20 14,40 21,60l-1 1zm-12 -21c-4,-13 -9,-25 -13,-38 -10,3 -20,7 -31,10l2 2 3 2 2 1c2,-1 4,-1 5,-1 7,0 13,4 17,10 4,6 10,9 15,14z"/>
   <path class="fil7" d="M2638 424c-4,0 -8,0 -12,-2 -3,-1 -6,-3 -9,-6 -3,-2 -5,-5 -6,-8 -1,-4 -2,-7 -2,-11 0,-2 0,-4 1,-7 1,-2 2,-3 3,-5 1,-2 3,-3 5,-4 1,-1 3,-1 6,-1l3 0 3 2c0,1 1,2 2,3 0,1 0,3 0,4 0,2 0,3 0,4l-2 3 -3 1 -3 1 -3 -1 -3 -1 -2 -3c0,-1 -1,-2 -1,-3l0 -1 0 0 1 -1 0 -1 -2 2 -1 2 0 3 -1 3c0,3 1,6 2,8 2,2 3,4 6,6 2,2 5,3 8,4 3,1 7,1 10,1 4,0 8,0 11,-1 3,-1 5,-3 7,-5 2,-1 4,-3 5,-6 1,-2 2,-4 2,-7 0,-2 -1,-3 -1,-5 -1,-1 -1,-2 -2,-3 -1,-1 -2,-2 -4,-2 -1,-1 -2,-1 -4,-1 -1,0 -2,0 -3,0l-3 2 -1 1 0 2c0,1 0,3 1,4l2 3c1,1 2,1 3,2 2,1 3,2 4,3l1 1 0 1 -2 1 -30 0 -1 -1 0 -1 0 -1 1 0 26 0c-1,-1 -2,-2 -3,-2 -2,-1 -3,-2 -4,-3 -1,-1 -2,-3 -2,-4 -1,-1 -1,-3 -1,-4 0,-2 0,-3 1,-4 0,-1 1,-2 2,-3 1,-1 2,-2 3,-2 2,-1 3,-1 5,-1 2,0 4,0 6,1 2,1 4,2 5,4 1,2 2,3 3,5 1,3 1,5 1,7 0,2 0,5 -1,7 0,2 -1,4 -2,6 -1,2 -3,4 -4,6 -2,2 -4,3 -6,4 -2,2 -4,3 -6,3 -3,1 -6,1 -9,1zm-14 -40l-2 1 -2 1 -1 1 0 2 0 2 1 2 2 1 2 0 2 0 2 -1 1 -2 0 -1c0,-2 0,-3 -1,-4 -1,-1 -2,-2 -4,-2z"/>
   <path class="fil6" d="M4117 585l-5 0 0 -19 -7 0c-1,3 -2,6 -4,8 -2,2 -4,4 -6,6 -3,1 -6,3 -9,3 -3,1 -6,2 -9,2 -2,0 -4,-1 -6,-1 -2,0 -4,-1 -6,-1 -2,-1 -4,-1 -6,-2 -2,-1 -3,-2 -5,-3 -1,-1 -2,-3 -3,-4 -1,-2 -1,-4 -1,-6 0,-1 0,-2 0,-3l2 -2 3 -2c1,0 3,-1 4,-1l41 0c0,-3 0,-5 -1,-7 -1,-3 -2,-5 -3,-6 -1,-2 -3,-3 -4,-4 -2,-1 -4,-1 -5,-2 1,1 2,2 2,3 1,2 1,3 1,4 0,2 0,3 -1,4l-2 3c-1,1 -2,1 -3,2 -2,0 -3,1 -4,1 -2,0 -4,-1 -5,-1 -1,-1 -2,-1 -3,-2 -1,-1 -2,-2 -3,-4 0,-1 0,-2 0,-4 0,-1 0,-3 0,-4 1,-2 2,-3 3,-4 1,-1 3,-2 4,-2 2,-1 4,-1 6,-1 4,0 7,1 10,2 3,1 5,3 8,5 2,2 3,5 4,8 1,3 2,6 2,9l6 0 0 -24 5 0 0 49zm-58 -19c-1,0 -2,0 -3,0l-1 2c0,2 1,3 2,5 1,1 3,2 5,3 2,1 4,2 7,2 2,1 5,1 8,1 3,0 5,0 8,-1 2,0 4,-1 6,-3 2,-1 4,-2 5,-4 2,-1 3,-3 3,-5l-40 0zm20 -25l-2 1 -1 1 -2 2 0 2 0 2 2 2 1 1 2 0 2 0 2 -1 1 -2 1 -2 -1 -2 -1 -2 -2 -1 -2 -1z"/>
   <path class="fil8" d="M3431 287c-1,0 -1,0 -1,0 -2,0 -4,0 -6,-1 -2,-1 -4,-2 -6,-3 -2,-1 -4,-3 -6,-5 -2,-2 -4,-5 -6,-7 -2,-3 -3,-6 -4,-8 0,-3 -1,-5 -1,-8 1,-2 1,-4 2,-6 1,-2 3,-3 5,-5 2,-1 3,-1 5,-1 0,0 0,0 0,0 1,0 3,0 4,1 1,0 3,1 4,2 1,1 2,2 3,3 0,1 1,3 1,4 1,1 1,3 1,4l16 -10c-1,-1 -2,-2 -3,-2 -1,-1 -2,-2 -3,-4 -1,-1 -1,-2 -2,-4 0,-1 0,-2 0,-4 0,-1 0,-3 1,-4 1,-2 2,-3 3,-4 2,-1 5,-2 7,-2 0,0 0,0 1,0 2,0 3,0 5,1 2,1 4,2 6,4 2,2 4,4 6,7 2,3 3,6 4,8 1,3 2,6 2,8 0,2 0,5 0,7 0,2 -1,4 -2,5 0,2 -1,3 -2,5 -1,1 -2,2 -3,2 -2,1 -3,2 -4,2 -2,1 -3,1 -4,1 -2,0 -3,0 -5,-1 -1,0 -2,-1 -4,-2 0,1 1,3 0,5 0,1 0,2 -1,4 0,1 -1,2 -2,3 -1,1 -2,2 -3,3 -1,1 -3,1 -4,1 -2,1 -3,1 -4,1zm-19 -19c2,3 4,6 6,8 2,1 5,3 7,4 2,1 3,1 5,1 0,0 0,0 1,0 1,0 3,-1 4,-1 2,-1 3,-2 4,-4 0,-1 1,-2 1,-4 0,-1 0,-2 -1,-4 0,-1 0,-3 -1,-4l5 -3 3 3c1,1 3,1 4,2 1,0 2,1 4,1 0,0 0,0 0,0 1,0 3,-1 4,-2 2,-1 3,-2 4,-4 0,-1 1,-3 1,-5 0,-3 0,-5 -1,-8 -1,-3 -2,-6 -4,-10 0,2 -1,4 -2,5 -1,1 -2,2 -3,3l-33 20c-1,1 -2,2 -4,2 0,0 -1,0 -1,0 -1,0 -2,0 -3,0zm0 -18l-2 0c-1,1 -2,3 -2,4 -1,2 -1,4 0,6l3 2 2 0 2 0 2 -1 1 -2 1 -2 0 -3 -1 -1 -1 -2 -2 -1 -3 0zm34 -21c-1,0 -2,0 -3,1l-2 2 0 2 0 2 0 2 2 2 2 1 2 0 3 -1 1 -1 1 -2 1 -2c0,-1 0,-2 -1,-3 -1,-2 -3,-3 -4,-3 -1,0 -1,0 -2,0z"/>
   <path class="fil8" d="M3105 676c0,0 -1,0 -1,0 -2,0 -4,0 -6,-1 -2,0 -4,-1 -6,-3 -2,-1 -4,-3 -6,-5 -2,-2 -4,-4 -6,-7 -1,-3 -2,-6 -3,-8 -1,-3 -1,-5 -1,-7 0,-3 1,-5 2,-7 1,-2 2,-3 4,-4 2,-1 4,-2 5,-2 0,0 0,0 1,0 1,0 2,0 4,1 1,0 2,1 3,2 1,1 2,2 3,3 1,2 1,3 2,4 0,2 0,3 0,4l17 -10c-2,-1 -3,-1 -4,-2 -1,-1 -2,-2 -2,-3 -1,-2 -2,-3 -2,-4 -1,-2 -1,-3 -1,-5 0,-1 1,-3 1,-4 1,-1 2,-3 4,-4 2,-1 4,-2 6,-2 1,0 1,0 1,0 2,0 4,1 6,1 2,1 4,2 6,4 2,2 4,4 5,7 2,3 4,6 5,9 1,2 1,5 1,7 1,3 1,5 0,7 0,2 0,4 -1,5 -1,2 -2,4 -3,5 -1,1 -2,2 -3,3 -1,0 -2,1 -4,1 -1,1 -2,1 -4,1 -1,0 -3,0 -4,-1 -2,0 -3,-1 -4,-2 0,2 0,3 0,5 0,1 -1,3 -1,4 -1,1 -2,2 -3,3 -1,1 -2,2 -3,3 -1,1 -2,1 -4,2 -1,0 -3,0 -4,0zm-19 -19c2,3 4,6 7,8 2,2 4,3 6,4 2,1 4,1 6,1 0,0 0,0 0,0 2,0 3,0 5,-1 1,-1 2,-2 3,-4 1,-1 1,-2 1,-3 0,-2 0,-3 0,-5 -1,-1 -1,-2 -2,-4l6 -3 3 3c1,1 2,2 3,2 1,1 3,1 4,1 0,0 0,0 0,0 2,0 3,-1 5,-2 1,0 2,-2 3,-3 1,-2 1,-4 1,-6 1,-2 0,-5 0,-8 -1,-3 -3,-6 -5,-9 0,1 -1,3 -1,4 -1,1 -2,2 -4,3l-32 20c-2,1 -3,2 -4,2 -1,0 -1,0 -2,0 -1,0 -2,0 -3,0zm1 -18l-2 1c-2,0 -3,2 -3,3 0,2 0,4 0,6l3 2 2 0 3 0 1 -1 2 -2 1 -2 -1 -2 0 -2 -2 -2 -2 -1 -2 0zm34 -21c-2,0 -3,0 -4,1l-1 2 -1 2 0 2 1 2 1 2 2 1 3 0 2 -1 2 -1 1 -1 0 -3c0,-1 0,-2 0,-3 -2,-2 -3,-2 -5,-3 0,0 -1,0 -1,0z"/>
   <path class="fil8" d="M3415 426c0,0 0,0 0,0 -2,0 -3,0 -5,0 -1,-1 -3,-2 -5,-3 -1,-1 -3,-2 -5,-4 -1,-2 -3,-4 -5,-6 -1,-2 -2,-4 -2,-6 -1,-2 -1,-4 -1,-6 0,-2 0,-4 1,-5 1,-2 2,-3 4,-4 1,-1 3,-1 4,-2 0,0 0,0 0,0 1,0 2,1 4,1l3 2 2 3 1 3 0 3 14 -8 -3 -2 -2 -3c-1,-1 -1,-2 -2,-3 0,-1 0,-2 0,-3 0,-2 0,-3 1,-4 1,-1 2,-2 3,-3 1,-1 3,-1 5,-2 0,0 1,0 1,0 1,0 3,1 4,1 2,1 4,2 5,4 2,1 3,3 5,5 1,2 2,5 3,7 1,2 2,4 2,6 0,2 0,4 0,6 -1,1 -1,3 -2,4 0,1 -1,3 -2,4l-2 2 -3 1c-1,1 -3,1 -4,1 -1,0 -2,0 -3,-1 -1,0 -3,-1 -4,-2 1,2 1,3 1,4 -1,2 -1,3 -1,4l-2 2 -3 3c-1,0 -2,1 -3,1 -1,0 -2,0 -4,0zm-15 -15c2,2 4,5 5,6 2,2 4,3 6,4 1,0 3,0 4,0 0,0 0,0 1,0 1,0 2,0 3,-1 2,0 2,-1 3,-2l1 -4c0,-1 0,-2 0,-3l-1 -3 4 -3 2 3 3 1 3 1c2,0 3,-1 4,-1 1,-1 2,-2 3,-3 0,-2 1,-3 1,-5 0,-2 0,-4 -1,-6 -1,-3 -2,-5 -3,-8 -1,1 -1,3 -2,3l-2 3 -27 17c-1,0 -2,1 -3,1 -1,0 -1,0 -2,0 0,0 -1,0 -2,0zm1 -15l-2 1c-1,0 -2,1 -2,3 -1,1 0,3 0,4l2 2 2 0 2 0 1 -1 2 -1 0 -2 0 -2 0 -2 -2 -1 -1 -1 -2 0zm27 -17c-1,0 -2,0 -2,1l-2 1 0 2 0 2 0 2 1 1 2 1 2 0 2 -1 1 0 1 -2 1 -2 -1 -3c-1,-1 -2,-1 -4,-2 0,0 -1,0 -1,0z"/>
   <path class="fil6" d="M4286 550c-1,0 -1,0 -1,0 -2,0 -4,-1 -6,-1 -2,-1 -4,-2 -6,-3 -2,-1 -4,-3 -6,-5 -2,-2 -4,-5 -6,-8 -2,-2 -3,-5 -4,-8 0,-2 -1,-5 0,-7 0,-2 0,-4 1,-6 1,-2 3,-4 5,-5 2,-1 3,-2 5,-2 0,0 0,0 0,0 2,0 3,1 4,1 2,1 3,2 4,3 1,1 2,2 3,3 0,1 1,2 1,4 1,1 1,2 1,4l16 -11c-1,0 -2,-1 -3,-2 -1,-1 -2,-2 -3,-3 -1,-1 -1,-2 -2,-4 0,-1 0,-3 0,-4 0,-2 0,-3 1,-5 1,-1 2,-2 4,-3 2,-1 4,-2 6,-2 0,0 0,0 1,0 2,0 4,0 5,1 2,1 5,2 7,4 2,2 3,4 5,6 2,3 3,6 4,9 1,3 2,5 2,8 0,2 0,4 0,6 0,2 -1,4 -1,6 -1,2 -2,3 -3,4 -1,1 -2,2 -3,3 -2,1 -3,1 -4,2 -1,0 -3,1 -4,1 0,0 0,0 0,0 -2,0 -3,-1 -4,-1 -2,-1 -3,-2 -5,-3 1,2 1,4 1,5 -1,2 -1,3 -2,4 0,2 -1,3 -2,4 -1,1 -2,2 -3,3 -1,0 -3,1 -4,1 -2,0 -3,1 -4,1zm-19 -20c2,4 4,6 6,8 3,2 5,4 7,4 2,1 4,2 5,2 0,0 1,0 1,0 2,-1 3,-1 4,-2 2,-1 3,-2 4,-3 0,-1 1,-3 1,-4 0,-1 0,-3 -1,-4 0,-2 0,-3 -1,-4l5 -3 3 2c2,1 3,2 4,3 1,0 2,0 4,0 0,0 0,0 0,0 1,0 3,0 4,-1 2,-1 3,-2 4,-4 1,-1 1,-3 1,-6 0,-2 0,-5 -1,-7 -1,-3 -2,-6 -4,-10 0,2 -1,3 -2,4 -1,2 -2,3 -3,3l-33 21c-1,1 -2,1 -4,2 0,0 -1,0 -1,0 -1,0 -2,0 -3,-1zm1 -18l-3 1c-1,1 -2,2 -2,4 -1,1 -1,3 0,5l3 2 2 1 2 -1 2 0 2 -2 0 -3 0 -2 -1 -2 -1 -1 -2 -2 -2 0zm33 -21c-1,0 -2,1 -3,1l-2 2 0 2 0 3 1 2 1 1 2 1 2 1 3 -1 1 -1 1 -2 1 -2c0,-1 0,-2 -1,-4 -1,-1 -3,-2 -4,-2 -1,0 -1,-1 -2,-1z"/>
   <path class="fil7" d="M2704 530c-1,0 -1,0 -1,0 -2,0 -4,-1 -6,-1 -2,-1 -4,-2 -6,-3 -2,-1 -4,-3 -5,-5 -2,-2 -4,-4 -6,-7 -2,-3 -3,-5 -4,-8 0,-2 -1,-4 0,-7 0,-2 0,-4 1,-6 1,-2 3,-3 5,-4 1,-1 3,-2 4,-2 0,0 1,0 1,0 1,0 2,0 4,1 1,0 2,1 3,2 1,1 2,2 3,3 1,2 1,3 2,4 0,1 0,3 0,4l16 -10c-1,-1 -2,-1 -3,-2l-3 -3c-1,-1 -1,-2 -2,-4 0,-1 0,-3 0,-4 0,-2 0,-3 1,-4 1,-2 2,-3 3,-4 2,-1 4,-2 6,-2 1,0 1,0 1,0 2,0 4,1 6,1 2,1 4,2 6,4 1,2 3,4 5,6 2,3 3,6 4,9 1,2 2,5 2,7 0,3 0,5 0,7 -1,2 -1,3 -2,5 0,2 -1,3 -2,4 -1,1 -2,2 -3,3 -2,1 -3,1 -4,2 -1,0 -3,0 -4,0 -1,0 -3,0 -4,0 -2,-1 -3,-2 -4,-3 0,2 0,3 0,5 0,1 -1,3 -1,4 -1,1 -1,2 -2,3 -1,1 -2,2 -4,3 -1,1 -2,1 -3,1 -2,1 -3,1 -4,1zm-19 -19c2,3 4,6 7,8 2,2 4,3 6,4 2,1 4,1 5,1 0,0 1,0 1,0 1,0 3,0 4,-1 2,-1 3,-2 3,-3 1,-2 1,-3 1,-4 0,-2 0,-3 0,-4 0,-2 -1,-3 -1,-4l5 -3 3 2c1,1 2,2 3,3 1,0 3,0 4,0 0,0 0,0 0,0 2,0 3,0 4,-1 2,-1 3,-2 4,-4 0,-1 1,-3 1,-5 0,-3 0,-5 -1,-8 -1,-3 -2,-6 -4,-9 0,2 -1,3 -2,4 -1,1 -2,2 -3,3l-31 20c-2,1 -3,1 -4,1 -1,1 -1,1 -2,1 -1,0 -2,-1 -3,-1zm1 -17l-2 1c-1,0 -2,2 -3,3 0,2 0,4 1,5l2 2 3 1 2 0 1 -1 2 -2 1 -2 0 -3 -1 -1 -2 -2 -2 -1 -2 0zm33 -20c-1,0 -2,0 -3,1l-2 1 -1 2 0 3 1 2 1 1 2 1 3 1 2 -1 2 -1 1 -2 0 -2c0,-1 0,-2 0,-4 -2,-1 -3,-2 -5,-2 0,0 -1,0 -1,0z"/>
   <path class="fil6" d="M4064 440c0,0 -1,0 -1,0 -2,0 -4,-1 -6,-1 -2,-1 -4,-2 -6,-3 -2,-1 -4,-3 -6,-5 -2,-2 -4,-5 -6,-8 -1,-2 -3,-5 -3,-8 -1,-2 -1,-5 -1,-7 0,-2 1,-4 2,-6 1,-2 2,-4 4,-5 2,-1 3,-1 5,-2 0,0 0,0 0,0 2,0 3,1 4,1 2,1 3,2 4,3 1,1 2,2 3,3 1,1 1,2 2,4 0,1 0,2 0,4l17 -11c-2,0 -3,-1 -4,-2 -1,-1 -2,-2 -3,-3 0,-1 -1,-2 -1,-4 -1,-1 -1,-3 -1,-4 0,-2 1,-3 1,-4 1,-2 2,-3 4,-4 2,-1 4,-2 6,-2 0,0 1,0 1,0 2,0 4,0 6,1 2,1 4,2 6,4 2,2 4,4 5,6 2,3 4,6 5,9 0,3 1,5 1,8 1,2 1,4 0,6 0,3 -1,4 -1,6 -1,2 -2,3 -3,4 -1,2 -2,2 -3,3 -1,1 -3,2 -4,2 -1,0 -3,1 -4,1 -1,0 -3,-1 -4,-1 -2,-1 -3,-2 -5,-3 1,2 1,4 1,5 0,2 -1,3 -1,5 -1,1 -2,2 -3,3 -1,1 -2,2 -3,3 -1,0 -2,1 -4,1 -1,1 -3,1 -4,1zm-19 -20c2,4 4,6 6,8 3,2 5,4 7,4 2,1 4,2 5,2 1,0 1,0 1,0 2,0 3,-1 5,-2 1,-1 2,-2 3,-3 1,-1 1,-3 1,-4 0,-1 0,-3 0,-4 -1,-1 -1,-3 -2,-4l6 -3 3 3c1,0 2,1 3,2 1,0 3,0 4,0 0,0 0,0 0,0 2,0 3,0 5,-1 1,-1 2,-2 3,-4 1,-1 1,-3 1,-6 1,-2 0,-4 -1,-7 0,-3 -2,-6 -4,-10 0,2 -1,3 -2,5 0,1 -2,2 -3,2l-32 21c-2,1 -3,1 -4,2 -1,0 -2,0 -2,0 -1,0 -2,0 -3,-1zm1 -18l-2 1c-2,1 -3,2 -3,4 0,2 0,3 0,5l3 2 2 1 2 0 2 -1 2 -2 0 -2 0 -3 0 -2 -2 -1 -2 -1 -2 -1zm33 -20c-1,0 -2,0 -3,1l-1 1 -1 2 0 3 1 2 1 1 2 1 3 1 2 -1 2 -1 1 -2 0 -2c0,-1 0,-2 0,-4 -2,-1 -3,-2 -5,-2 -1,0 -1,0 -2,0z"/>
   <path class="fil7" d="M2584 643c-2,0 -3,0 -4,0 -1,-1 -2,-1 -3,-2l-3 -3 -3 -3 -1 -3c-1,-3 -2,-6 -2,-8 0,-3 0,-6 1,-8 1,-2 2,-4 4,-6 1,-2 4,-4 6,-5 2,0 3,-1 5,-1 1,0 2,0 3,0 0,0 1,0 1,0 1,0 2,0 4,0 1,1 2,1 4,2 0,-2 0,-3 1,-4 0,-1 1,-2 1,-3l3 -2 2 -2 3 -1 3 0 3 1 3 2c0,-1 1,-3 1,-4l2 -3 2 -2 3 -1c2,-1 4,-1 6,-1 0,0 1,0 1,0 2,0 4,0 6,1 2,1 4,3 5,5 1,1 3,3 4,6 0,2 1,3 1,6 0,2 0,4 0,6 -1,2 -1,4 -2,5 -1,2 -3,4 -4,5l-4 -3c1,-1 2,-2 3,-3 0,-2 1,-3 1,-4 0,-2 0,-3 0,-5 0,-1 -1,-3 -2,-5 0,-1 -1,-3 -2,-4 -1,-1 -2,-2 -3,-3 -1,-1 -3,-2 -4,-2 0,0 -1,0 -1,0 -1,0 -3,0 -4,1l-2 2 -2 3c0,1 0,2 0,3 0,2 0,3 1,5l8 19 -6 3 -8 -19c-1,-2 -1,-3 -2,-4l-3 -3 -3 -1 -3 0 -2 2 -2 3c0,1 0,3 1,4 0,1 0,3 1,4l8 19 -6 3 -8 -18c0,-2 -1,-3 -2,-4 -2,-1 -3,-2 -4,-3 -2,0 -3,-1 -5,-1 0,0 0,0 0,0 -1,0 -3,1 -4,1 -2,1 -4,2 -5,3 -1,1 -2,3 -3,4 -1,1 -1,3 -1,4 0,2 0,4 0,5l1 -1 1 -2 2 -2 3 -2c1,0 3,-1 4,-1 1,0 1,0 1,0 1,0 3,1 4,2 2,0 3,1 4,2 1,2 2,3 2,4 1,2 1,4 1,5 0,2 0,3 -1,5 0,1 -1,2 -2,4 -1,1 -2,2 -4,2 -1,1 -3,1 -4,1 0,0 0,0 0,0zm-2 -18c-1,0 -2,0 -3,0l-2 2 -1 2 -1 2 1 3 2 2 2 2 3 1 2 0 2 -2 2 -2 0 -3 -1 -3c-1,-2 -2,-3 -3,-4 -1,0 -2,0 -3,0z"/>
   <path class="fil6" d="M3755 666c-1,0 -1,0 -1,0l-1 -5c2,0 3,0 5,-1 1,0 2,-1 4,-2 1,0 2,-2 3,-3 1,-1 2,-3 2,-5 1,-1 1,-3 2,-4 0,-2 0,-4 0,-5 -1,-2 -1,-3 -2,-4 -1,-1 -2,-2 -4,-3l-3 -1 -3 2 -3 2c-1,1 -2,2 -3,4l-8 21 -6 -3 8 -20c0,-2 1,-3 1,-5 0,-1 0,-2 0,-4 0,-1 -1,-2 -1,-2l-3 -2 -3 -1 -3 2 -3 2c-1,2 -1,3 -2,4l-8 21 -6 -3 7 -19c1,-2 1,-3 1,-5 0,-2 0,-3 -1,-4 0,-2 -1,-3 -2,-4 -1,-2 -3,-2 -4,-3 -2,-1 -4,-1 -6,-1 0,0 0,0 -1,0 -1,0 -3,0 -4,0 -2,1 -3,2 -4,3 -2,1 -3,2 -4,4l2 -1 3 -1 3 0 2 1c2,1 4,2 5,3 1,1 2,3 2,4 1,2 1,3 1,5 0,2 -1,3 -1,5 -1,1 -2,3 -3,4 -1,1 -3,2 -4,3 -1,0 -3,1 -5,1 0,0 0,0 0,0 -1,0 -3,-1 -4,-1 -2,-1 -3,-1 -4,-2 -1,-1 -2,-3 -3,-4 0,-1 -1,-2 -1,-4 0,-1 0,-2 0,-4 0,-1 0,-2 1,-3 0,-2 0,-3 1,-4 1,-3 2,-5 4,-8 2,-2 4,-3 6,-4 3,-2 5,-2 8,-2 0,0 0,0 0,0 3,0 5,0 8,1 1,1 3,2 4,2 1,1 2,2 3,3 1,1 2,2 3,4 1,1 1,2 2,4 1,-1 2,-2 3,-3 2,0 3,-1 4,-1 0,0 1,0 1,0 1,0 1,0 2,0l3 1 3 2 2 2 1 3c1,1 1,2 1,3 2,-1 3,-1 4,-2 1,0 2,-1 3,-1l4 0 3 1c2,1 4,3 6,4 1,2 2,4 3,6 1,2 1,5 1,7 -1,2 -1,5 -2,7 -1,2 -2,4 -3,5 -2,2 -3,4 -5,5 -2,1 -4,2 -6,3 -2,0 -4,0 -5,0zm-52 -40l-2 0 -3 2 -1 2 -1 3 1 3 1 2 2 2 3 0 3 0 2 -2 1 -3c1,-2 1,-4 1,-5 -1,-2 -2,-3 -4,-4l-3 0z"/>
   <path class="fil8" d="M3354 691l-7 -14c-5,-1 -9,-2 -13,-5 -3,-3 -6,-6 -9,-10 -2,-4 -3,-8 -3,-12 0,-4 1,-8 2,-12 1,-4 4,-7 7,-11 3,-3 6,-6 11,-8 4,-3 9,-4 13,-5 2,0 4,0 5,0 3,0 6,0 8,1 4,1 8,3 11,5 3,3 6,6 8,10 1,2 2,5 3,8 0,3 0,6 0,9l-6 -2c1,-2 1,-4 1,-7 -1,-2 -1,-4 -2,-6 -2,-3 -4,-5 -6,-7 -3,-1 -6,-3 -9,-3 -2,0 -3,-1 -5,-1 -2,0 -4,1 -6,1 -3,1 -7,2 -11,4 -4,2 -7,4 -10,7 -2,3 -4,6 -6,9 -1,3 -2,6 -2,9 0,3 1,6 2,8 1,3 3,5 5,7 2,1 5,2 8,3l-1 -1c-1,-2 -1,-4 -2,-6 0,-1 0,-3 1,-5 0,-1 1,-3 2,-4 1,-2 2,-3 4,-3 1,-1 3,-2 5,-2 0,0 0,0 0,0 2,0 4,1 5,2 0,-2 1,-4 2,-5 1,-2 3,-3 4,-4 2,-1 3,-1 5,-1 0,0 0,0 1,0 1,0 2,0 4,0 1,1 3,2 4,3 2,1 3,3 4,5l12 23 -6 3 -11 -21 -1 -2 -3 -2 -2 -1 -3 0 -2 2 -1 3 0 3 1 2 12 22 -6 3 -11 -21 -2 -3 -2 -2 -3 0 -3 0 -1 2 -1 3 0 2 1 3 11 21 -6 3z"/>
   <path class="fil6" d="M3909 567c-1,0 -1,0 -1,0 -2,0 -3,-1 -5,-1 -2,-1 -4,-1 -6,-2 -1,-1 -3,-3 -5,-5l4 -4c1,1 3,3 4,4 1,1 3,2 4,2 1,1 3,2 4,2 1,0 1,0 2,0 1,0 2,0 2,0 2,0 3,-1 4,-1 1,-1 2,-2 3,-3l2 -2 0 -3c0,-2 0,-3 -1,-5 -1,-1 -3,-2 -4,-2 -2,-1 -3,-2 -5,-2 -2,-1 -4,-2 -6,-2 -1,-1 -3,-2 -5,-2 -2,-1 -4,-2 -5,-3 -2,-1 -3,-3 -4,-4 -1,-2 -2,-4 -2,-6 0,-2 0,-4 1,-6 0,-2 1,-4 3,-5 1,-2 3,-3 5,-4 2,-1 5,-2 7,-2 2,0 3,-1 5,-1 0,0 0,0 0,0 2,1 4,1 5,1 2,1 3,2 5,3 2,1 3,2 5,4l-3 4c-3,-3 -5,-5 -8,-6 -2,-1 -4,-2 -6,-2 -1,0 -2,0 -2,0 -2,1 -3,1 -4,1 -2,1 -3,2 -3,2l-2 3 -1 3c1,1 1,3 2,4 1,1 3,2 4,3 2,0 4,1 6,2 2,0 4,1 6,1 2,1 4,2 6,2 2,1 3,2 5,3 2,1 3,2 4,4 1,2 2,4 2,6 1,2 0,4 0,6 -1,2 -2,4 -3,6 -2,2 -4,3 -6,4 -3,1 -6,2 -9,3 -2,0 -3,0 -4,0z"/>
   <path class="fil8" d="M3114 567c-1,0 -2,0 -4,0 -2,0 -4,-1 -7,-2l2 -6c2,1 4,2 6,3 1,0 3,0 5,1 0,0 0,0 1,0 1,0 2,-1 3,-1 1,0 2,-1 4,-1 1,-1 2,-2 3,-3l2 -3 1 -3 -1 -3c-1,-2 -2,-3 -3,-3 -2,-1 -3,-2 -5,-2 -1,0 -2,0 -3,0 -1,0 -2,0 -2,0 -2,0 -4,0 -6,1 -2,0 -3,0 -5,0 0,0 -1,0 -1,0 -2,0 -4,-1 -6,-1 -2,-1 -3,-1 -5,-2 -1,-2 -3,-3 -4,-5 -1,-2 -1,-4 -1,-6 -1,-2 0,-4 1,-6 0,-2 2,-4 3,-6 2,-1 4,-3 6,-4 2,-1 3,-2 5,-2 1,-1 3,-1 4,-1 1,0 1,0 2,0 1,0 2,0 4,0 2,1 4,1 6,3l-1 5c-4,-2 -7,-3 -10,-4 0,0 -1,0 -1,0 -3,0 -5,1 -7,2 -2,1 -3,2 -4,3l-2 2 -1 4 1 2c1,2 2,3 3,3 2,1 3,1 5,2 1,0 1,0 2,0 1,0 3,0 4,-1 2,0 4,0 6,0 2,0 4,-1 6,-1 1,0 1,0 1,0 2,0 4,1 5,1 2,0 4,1 6,2 1,1 3,3 4,5 1,2 2,4 2,6 0,2 0,4 -1,6 -1,2 -2,4 -4,6 -2,2 -4,4 -7,6 -2,1 -3,1 -5,2 -1,1 -3,1 -5,1 -1,0 -1,0 -2,0z"/>
   <path class="fil8" d="M3529 452c-1,0 -1,0 -1,0 -10,0 -18,-5 -25,-13 -9,-11 -4,-24 9,-26 6,-1 12,-3 18,-5 -2,-6 -3,-11 -5,-17 -14,4 -27,7 -40,11 -1,-2 -1,-4 -2,-6 19,-5 37,-10 56,-15 1,2 1,3 2,5 -3,1 -6,2 -9,3 0,2 1,4 1,6 4,13 7,25 11,38 2,10 -5,19 -15,19zm2 -38c-7,1 -13,3 -19,5 -7,2 -9,8 -5,13 5,9 13,13 23,14 0,0 0,0 0,0 5,0 9,-5 8,-9 -2,-8 -4,-15 -7,-23z"/>
   <path class="fil6" d="M3739 451c0,0 0,0 0,0 -11,0 -19,-5 -25,-13 -9,-11 -5,-24 8,-26 6,-1 12,-3 18,-5 -2,-5 -3,-11 -5,-17 -13,4 -26,7 -40,11 0,-2 -1,-4 -1,-6 18,-5 37,-10 56,-15 0,2 1,3 1,5 -3,1 -5,2 -9,4 0,1 1,3 1,5 4,13 7,26 11,38 3,11 -4,19 -15,19zm3 -38c-7,2 -14,3 -20,5 -6,2 -9,8 -5,13 5,9 13,14 23,14 0,0 1,0 1,0 5,0 8,-5 7,-9 -2,-8 -4,-15 -6,-23z"/>
   <path class="fil7" d="M2714 706c-5,0 -10,-2 -14,-5 -8,-5 -7,-14 2,-18 3,-1 7,-3 10,-5 -2,-4 -3,-7 -5,-11 -8,5 -16,9 -24,13 -1,-1 -2,-2 -2,-3 11,-6 22,-12 33,-18 1,1 2,2 2,3 -2,1 -3,2 -5,3l1 4c5,7 9,15 13,23 3,6 0,12 -7,14 -2,0 -3,0 -4,0zm0 -25c-4,2 -8,4 -12,6 -3,2 -4,6 -1,10 4,3 8,5 13,5 1,0 3,0 4,0 3,-1 5,-4 4,-7 -3,-5 -5,-9 -8,-14z"/>
   <path class="fil8" d="M3121 781c-1,0 -2,0 -4,-1 0,-3 0,-6 0,-10 10,-1 14,-5 15,-11 1,-8 -2,-12 -9,-15 -3,4 -5,8 -7,13 -2,2 -3,3 -4,3 -2,0 -3,-1 -4,-3 -2,-4 -5,-9 -7,-13 -7,2 -10,7 -10,14 1,6 6,11 15,12 0,3 0,7 0,10 -2,1 -3,1 -4,1 -9,0 -17,-6 -21,-15 -5,-12 -1,-23 13,-33 -3,-9 -3,-9 -11,-9 -4,0 -8,0 -12,0 0,-4 0,-8 0,-12 26,0 51,0 77,0 0,4 0,7 0,11 -5,1 -10,0 -15,2 -2,0 -3,5 -4,7 14,8 18,20 13,35 -3,7 -12,14 -21,14zm-17 -57c2,5 5,10 8,16 3,-6 5,-11 8,-16 -6,0 -11,0 -16,0z"/>
  </g>
  <g id="_1000462304">
   <path class="fil9" d="M1428 806c-1,-3 -1,-7 -4,-9 -1,-1 -5,1 -6,4 0,2 1,6 5,7 2,1 4,0 5,-2zm-710 30c7,-1 15,-1 23,-8 -9,2 -17,2 -23,8zm615 151c-5,-2 -11,-3 -16,-1 5,6 11,4 16,1zm-842 -10c-2,0 -5,0 -7,0 -2,0 -5,-1 -5,0 2,3 -1,5 0,8 2,0 4,0 6,-2 2,-1 7,-1 6,-6zm642 -212c8,-1 15,-2 24,-3 -10,-8 -17,-2 -24,3zm-228 143c3,1 6,7 10,3 3,-4 -2,-9 -1,-13 -7,1 -4,9 -9,10zm20 0c9,-2 15,-4 21,-6 1,0 3,-1 3,-2 0,-3 -2,-4 -4,-3 -7,0 -13,4 -20,11zm-40 -2c-4,7 -11,10 -8,16 0,2 7,1 9,-2 6,-5 -1,-7 -1,-14zm91 -168c9,2 21,0 27,-5 -10,-2 -19,2 -27,5zm-158 69c-11,-1 -21,3 -31,9 11,-2 22,-3 31,-9zm674 9c-1,9 0,11 1,10 6,-7 11,-3 16,0 3,0 5,1 6,-2 1,-2 -2,-4 -4,-4 -6,-1 -12,-3 -19,-4zm-920 115c-1,-4 -5,-4 -6,-4 -6,8 -15,10 -23,14 -2,0 -2,2 -1,3 0,2 1,2 3,1 9,-5 18,-10 27,-14zm857 -111c-17,-5 -36,2 -49,-14 -1,-1 -4,-1 -6,0 -2,1 -2,5 -1,4 9,0 13,10 20,11 12,0 24,3 36,-1zm-534 25c-14,2 -29,2 -41,12 6,3 10,1 13,-1 3,-3 8,-3 10,-2 10,6 15,2 18,-9zm-252 42c-22,9 -43,18 -63,29 -3,2 -5,4 -3,6 1,3 4,0 6,-1 5,-3 9,-8 15,-10 17,-4 30,-16 45,-24zm585 -107c15,10 30,5 48,1 -18,-8 -33,-3 -48,-1zm17 50c13,5 24,0 36,-1 -5,-5 -21,-3 -6,-14 1,-1 1,-6 -1,-7 -4,-2 -8,-3 -12,-3 -2,0 -1,3 0,5 4,12 4,12 -9,15 -3,1 -5,1 -8,5zm235 -25l0 1c11,3 23,6 35,8 3,1 6,0 7,3 3,6 7,5 11,4 5,-2 10,-4 16,-6 -3,-2 -5,-2 -7,-3 -12,-3 -25,-2 -34,-12 -1,-2 -2,-2 -4,0 -5,7 -11,10 -19,5 -1,-1 -3,0 -5,0zm-636 56c-5,-3 -12,-4 -18,2 -2,3 -7,4 -10,3 -9,-2 -15,2 -21,6 -6,3 -13,5 -16,13 25,-4 48,-7 65,-24zm858 20c-10,-15 -41,-27 -59,-21 -4,1 -7,2 -9,-2 -4,-7 -11,-6 -19,-11 8,19 24,20 39,22 1,-1 -4,-5 1,-6 2,-1 5,1 5,2 -1,7 6,7 8,6 11,-3 19,4 27,9 2,1 4,3 7,1zm-1008 41c5,-5 8,-8 13,-9 19,-3 37,-12 55,-18 2,-1 3,-2 5,-2 4,-2 4,-5 3,-8 0,-4 -3,-2 -6,-2 -7,0 -12,5 -18,7 -13,3 -27,6 -41,5 -3,0 -6,0 -7,2 -7,12 -25,3 -32,15l-3 0c-5,-3 -8,1 -13,2 -13,5 -23,16 -38,17 -10,1 -18,7 -24,16 4,-5 10,-3 16,-4 5,0 11,-2 16,-3 8,-2 17,-2 24,-7 2,-1 5,-1 4,-4 -4,-7 1,-5 4,-5 6,1 6,0 6,0 -6,-8 3,-5 5,-5 7,-4 16,-1 23,-5 8,-5 9,0 8,8zm-103 251c3,-9 7,-16 17,-17 6,0 7,-4 5,-9 -3,-12 7,-32 19,-36 21,-7 -59,74 -41,62 9,-6 11,-15 13,-24 2,-8 17,-18 26,-16 8,4 17,2 26,4 3,1 7,-2 7,-5 0,-4 -4,-3 -6,-3 -6,0 -15,2 -16,-5 -1,-8 8,-7 14,-8 14,-3 28,-3 40,-13 2,-1 7,-2 3,-6 -3,-4 -6,-3 -8,-1 -7,7 -16,8 -24,9 -7,2 -5,-1 -4,-5 8,-15 21,-22 36,-25 7,-1 13,-1 18,-8l2 -2c4,-3 10,-1 12,2 3,3 -2,6 -5,8 -6,4 -13,6 -14,14 5,3 10,1 15,1 8,-1 15,-2 19,6 2,3 6,4 8,2 11,-4 22,-8 28,-19 2,-5 5,-8 11,-8 8,-2 15,-11 25,-9 2,0 5,0 7,1 6,2 10,1 12,-5 2,-4 6,-6 11,-7 5,-1 11,-5 9,-11 -2,-5 -8,-7 -14,-4 -4,2 -9,4 -13,8 -5,6 -13,7 -20,8 -22,4 -44,8 -68,12 6,-10 14,-13 22,-15 8,-1 11,-3 9,-12 -3,-11 -72,13 -61,11 5,-2 78,-36 78,-39 1,-4 -3,-2 -6,-2 -5,-1 -9,1 -12,5 -3,4 -7,3 -11,2 -1,0 -3,-3 -3,-5 0,-5 -70,25 -66,23 11,-4 97,-36 109,-46 -16,1 -30,4 -43,10 -10,4 -22,7 -32,12 -29,14 -130,45 -159,57 -4,1 -9,7 -12,1 -2,-4 5,-5 9,-7 21,-11 113,-42 136,-50 5,-1 7,-5 11,-7 33,-12 65,-29 99,-39 6,-2 11,-8 17,-13 -5,-3 -13,5 -14,-3 -1,-8 10,-3 14,-8 -11,-4 -19,0 -20,10 -1,3 -3,4 -7,4 -7,-1 -14,1 -20,6 -7,6 -17,6 -26,6 -8,0 -14,3 -18,11 -4,8 -10,13 -20,12 -2,-1 -5,-1 -5,2 1,3 -2,4 -3,4 -23,6 -110,44 -133,49 -10,1 -18,10 -29,10 -7,0 -15,0 -17,-8 -2,-8 2,-14 9,-18 6,-3 82,-27 86,-32 6,-8 12,-9 21,-7 14,4 28,5 42,-2 2,-1 9,-1 3,-7 -1,-1 -6,-2 -2,-5 3,-3 8,-6 11,-3 11,13 18,3 25,-4 11,-11 24,-16 40,-14 4,1 6,-4 9,-7 -6,-1 -11,-1 -15,-2 -3,0 -6,0 -6,-3 -1,-3 1,-6 5,-6 9,-1 16,-6 23,-13 6,-5 15,-6 23,-5 4,0 6,0 8,-3 7,-7 14,-6 21,-2 6,3 10,3 12,-3 2,-5 7,-8 12,-8 14,-1 25,-12 39,-13 3,-1 4,-6 3,-8 -1,-3 -4,-5 -8,-4 -12,1 -23,5 -33,13 -9,7 -21,9 -33,3 -3,-2 -7,-2 -8,2 -3,8 -10,7 -15,9 -8,3 -15,4 -21,11 -5,6 -15,3 -22,7 -12,8 -28,8 -41,14 -1,1 -3,1 -4,0 -4,-5 -17,-9 -26,-8 -1,-3 5,-2 3,-5 -1,-1 -4,-1 -6,0 -5,2 -10,4 -14,6 -4,2 -7,4 -11,7 14,3 20,6 33,13 -16,17 -90,44 -115,40 10,-7 51,-32 61,-39 1,-1 4,-1 3,-3 -2,-5 -3,0 -5,1 -9,0 -16,8 -25,9l0 0c-2,-2 0,-6 -2,-10 -6,11 -17,7 -24,6 -9,-2 -13,4 -20,6l0 1c-5,2 -10,6 -15,7 -9,4 -16,10 -22,17 -4,4 -13,4 -20,8 3,-8 6,-13 10,-17 -21,6 -40,18 -60,27 -20,8 -19,-4 -39,4 -17,7 18,-4 0,0 8,-16 12,-21 31,-28 5,-2 -59,45 -54,42 1,-1 6,-4 4,3 0,1 3,1 3,0 1,-2 5,-2 3,-3 -5,-6 1,-6 3,-8 14,-15 32,-21 50,-29 3,-1 8,-2 7,-8 0,-6 9,-2 10,-8 -6,-4 -23,-3 -32,4 -11,8 -25,14 -37,21 -17,11 36,-26 18,-16 -6,4 -14,7 -21,12 0,-4 9,-10 -2,-10 -3,0 -5,4 -9,3l0 -2c13,-7 23,-20 37,-26 11,-5 -52,29 -38,28 2,0 -2,-7 3,-9 -3,-2 -4,1 -6,2 -1,0 -3,3 -5,1 7,-2 -4,-6 2,-8 6,-3 11,-8 16,-14 1,-2 3,-6 9,-4 3,1 5,-3 8,-5 4,-2 6,-6 12,-4 -7,5 -10,10 -9,19 9,-6 19,-11 28,-18 3,-2 6,-2 9,-4 2,-1 4,-1 4,3 -1,3 3,1 5,0 7,-4 14,-8 22,-11 -8,5 -16,9 -24,14 1,1 2,2 2,3 69,-33 137,-65 209,-96 -18,-2 -31,7 -44,13 -6,4 -11,6 -19,2 -5,-2 -11,0 -17,0 -4,-1 -8,-1 -10,-6 -1,-5 4,-6 7,-9 11,-9 26,-8 38,-14 5,-2 11,-2 16,-7 2,-3 6,-4 9,-4 13,-2 24,-7 35,-11 11,-3 24,-3 34,-9 23,-13 49,-18 73,-26 31,-11 63,-18 96,-23 4,-1 7,-4 12,-4 -9,-2 -17,1 -25,2 -7,1 -14,3 -20,4 -2,0 -4,2 -5,-1 -1,-3 0,-5 4,-6 6,-2 12,-2 18,-4 24,-9 49,-12 73,-18 3,-1 6,-1 10,1 -11,7 -24,4 -38,11 32,0 59,-14 88,-16 29,-2 58,-1 86,-8 1,5 -6,3 -3,10 -2,-2 -1,-1 -1,-1 8,-1 17,3 23,-5l3 -1c13,7 24,-4 36,-2 19,3 37,-4 56,0 5,1 11,1 16,-3 9,-7 18,-5 28,-4 12,1 25,3 37,0 2,-1 5,-1 7,-1 26,5 52,-1 78,2 25,3 51,1 76,3 9,1 15,7 23,10 2,-3 -2,-6 -1,-9 5,0 7,2 6,7 0,2 0,4 2,5 3,0 4,-1 5,-4 2,-5 6,-2 9,0 6,4 12,7 15,-3 1,-2 4,-3 6,-2 5,1 11,1 16,3 25,6 49,13 73,20 13,4 27,7 41,8 9,0 12,9 18,15 -8,-4 -17,-4 -26,-3 -1,0 -3,0 -3,-1 -6,-12 -13,-6 -22,-2 -6,2 -15,1 -22,-3 -7,-4 -15,-9 -24,-5 -3,1 -4,-2 -6,-3 -3,0 -7,-5 -10,1 -1,2 -4,2 -6,1 -14,-9 -31,-2 -47,-7 -17,-7 -36,-3 -53,-8 -2,0 -3,-1 -4,0 -3,9 -9,5 -15,4 -7,-1 -13,-1 -20,-1 -6,0 -11,0 -16,-4 -1,-1 -4,-1 -6,0 -15,6 -32,2 -48,4 -14,1 -29,-2 -44,-4 -3,0 -5,-1 -8,1 -6,2 -12,3 -20,0 -10,-3 -21,4 -32,3 -3,-1 -1,3 -1,4 -1,4 1,3 3,3 5,1 9,0 10,7 1,5 7,5 11,4 13,-4 27,-2 40,-3 21,-2 42,-5 63,-3 27,2 55,0 82,4 31,4 62,3 92,10 11,3 23,1 34,4 8,3 15,6 24,6 5,0 9,-4 13,-3 20,6 41,6 58,20 1,1 5,2 3,6 -2,3 -4,-1 -6,-1 -2,-1 -4,-2 -5,-2 -16,6 -28,-6 -42,-7 -16,-2 -31,-9 -47,-7 -2,0 -2,0 -1,2l1 2c-2,1 -5,3 -7,2 -5,-1 -10,-3 -14,-5 -6,-4 -11,-4 -18,-2 -10,2 -21,0 -31,-1 -14,-2 -29,3 -42,-7 -10,4 -20,-5 -30,0 -8,4 -13,1 -17,-6 -2,-5 -5,-5 -9,-2 -7,4 -15,9 -24,8 -9,0 -18,-7 -27,3 -3,4 -9,-2 -15,-1 10,9 22,8 33,10 3,0 6,0 9,2 1,1 9,8 8,-3 -1,-2 6,-1 9,0 11,4 23,5 34,1 10,-4 19,-1 29,-2 12,-1 25,-3 36,7 1,2 3,1 4,0 4,-7 11,-5 17,-4 9,2 19,0 26,8 2,2 7,2 10,2 17,-2 33,7 51,5l2 1c5,13 16,12 26,9 5,-2 9,-1 13,2 4,4 10,7 16,7 4,0 34,8 39,10 -5,2 -36,-1 -39,-3 -12,-9 -25,-6 -38,-4 -7,1 -14,0 -20,-5 -8,-6 -18,-3 -26,-2 -4,1 -9,1 -15,5 11,2 21,5 31,5 4,-1 10,-3 12,2 2,3 -1,8 -5,10 -4,3 -7,-1 -11,-4 -2,-2 -4,-4 -7,-3 -2,1 -5,-4 -6,2 -1,4 2,7 5,6 7,-2 11,3 17,4 7,1 10,1 12,-6 2,-6 7,-7 13,-6 7,1 15,4 23,5 32,4 64,14 95,25 33,12 -8,-13 23,2 6,3 10,4 3,11 -6,6 -4,11 5,16 2,1 3,3 5,4 5,-1 -3,-8 3,-8 5,-1 38,-2 41,1 4,4 -13,17 -6,20 3,2 -9,11 -8,19 0,2 -3,1 -4,0 -10,-10 -24,-13 -34,-21 -11,-9 -22,-15 -35,-17 -3,-1 -3,-6 -5,-7 -4,0 65,34 63,39 -1,2 -2,4 -2,4 -6,-7 -11,1 -17,-1 -7,-1 -4,-5 -3,-8 7,-12 6,-16 -6,-23 -3,-2 -3,-3 -2,-6 4,-6 0,-7 -5,-8 -3,-1 -5,-2 -7,-3 -2,-1 0,-6 -5,-5 -4,2 -4,5 -5,8 -1,2 -1,4 1,5 1,2 3,1 5,-1 6,-4 11,1 11,4 0,8 4,12 7,17 2,2 4,5 2,8 -2,4 -6,1 -9,0 -8,-2 -13,-9 -22,-11 -4,-1 -9,-4 -13,2 -3,4 -7,3 -10,0 -2,-3 -5,-1 -6,0 -4,1 -1,4 0,6 1,6 8,10 11,9 13,-2 20,8 30,12 6,2 10,8 17,0 3,-3 11,-3 12,2 4,10 -61,-25 -53,-24 30,8 59,19 88,27 2,1 3,1 4,5 -12,-6 -25,-1 -36,-5 -45,-14 -16,8 -62,0 -33,-7 -66,-12 -99,-16 -44,-5 -88,-7 -131,-8 -10,-1 -19,0 -27,0 9,13 25,5 37,8 8,1 19,-1 28,1 6,0 12,3 18,3 6,-1 -3,5 2,6 4,1 10,0 10,4 -1,6 -7,3 -11,3l-2 2c-2,4 -7,7 -13,5 -6,-2 -13,-3 -17,4 -2,3 -4,1 -5,1 -5,0 -9,2 -13,4 -3,-7 -10,-1 -14,-3 -2,-2 -5,-1 -5,0 -4,10 -13,7 -19,7 -15,3 -30,5 -45,5 9,1 19,6 29,1 1,-1 2,-1 3,1 2,2 -1,2 -2,4 21,0 41,-4 61,1 1,0 2,0 2,1 7,8 7,8 21,10 -5,-6 -11,-3 -16,-6 11,-3 21,-2 32,1 4,1 3,4 0,6 -4,3 -8,5 -13,4 -10,0 -19,10 -29,3 -1,-2 5,-2 3,-4 -2,-2 -7,-3 -9,-2 -13,6 -26,0 -40,2 -11,1 -22,2 -33,0 -6,-1 -4,5 -4,8 -8,-4 -8,-4 -11,3 -1,3 -4,3 -5,2 -11,-7 -21,-3 -31,0 -4,1 -6,0 -9,-2 2,-4 7,-2 9,-6 -7,-2 -13,2 -20,-2l-3 2c-4,9 -5,11 -12,12 -11,1 -23,2 -34,3 -14,1 -28,2 -41,6 -13,4 -27,3 -40,6 -15,3 -31,4 -46,8 -16,4 -32,7 -49,9 -4,1 -8,3 -13,4 -22,5 -45,9 -66,15 -15,5 -30,8 -45,13 -12,5 -25,8 -38,12 -18,6 -37,12 -56,17 -21,6 -41,15 -61,23 -36,16 -8,-14 -44,4l-51 4 -30 10c-52,22 9,-13 -42,13 -18,9 -38,14 -57,21 -4,2 -9,4 -13,7 -3,1 -7,1 -11,2z"/>
   <polygon class="fil10" points="801,1265 802,1264 801,1264 "/>
   <path class="fil11" d="M1948 875l-4 11c16,-30 25,-65 30,-99 5,-35 4,-69 4,-102 1,-4 1,-13 2,-17 -2,-33 -16,-71 -32,-100 -4,-7 -11,-11 -16,-14 -6,-3 -10,-4 -10,-4 -4,-2 -11,-3 -11,1 2,8 10,25 5,27 -1,1 -2,-3 -4,-6 -5,2 -19,-3 -20,-6 -4,-2 -22,-17 -26,-18 -2,-2 -4,-1 -5,2 -1,3 -2,7 -2,12 -1,9 -2,22 -1,28 1,7 -6,3 -9,5 4,5 2,10 6,15 -1,0 5,18 8,27 0,0 2,3 5,12 1,3 2,3 3,2 -1,1 -1,1 -2,1 4,2 3,9 5,12 -1,0 -1,0 -3,0 5,6 3,13 6,18 -1,1 -1,1 -2,1 0,3 1,6 0,6l-3 1c-1,3 3,9 0,9 2,0 2,0 3,0 2,12 2,21 1,30 -3,24 -2,53 -5,80 -1,3 1,6 4,4 -1,3 -1,6 -2,8 -2,6 3,4 1,10 -4,24 -15,47 -28,68 -14,21 -30,40 -47,60 9,-9 19,-14 25,-25 2,1 4,3 6,0 7,-6 12,-15 18,-23 5,-7 9,-14 14,-17 3,-2 8,-3 13,-12l-5 9c1,1 3,2 3,2 4,-6 8,-12 12,-18 2,-4 3,-7 5,-10 2,-4 3,-7 5,-10 0,0 2,1 4,2l2 -7c6,-2 5,6 2,17 -4,10 -9,23 -13,31 1,1 3,2 5,3l3 -7 2 1c-5,10 -9,19 -15,27 -5,8 -11,16 -17,25 2,-3 6,-9 8,-12 1,1 3,2 5,-1 -5,6 -9,12 -14,19 -5,6 -10,13 -14,19 -1,4 4,4 12,-4 7,-9 11,-15 18,-24l2 2c-4,6 -12,14 -16,21 -1,3 8,-4 7,0 -3,3 -5,6 -6,10 3,-5 7,-10 11,-15 4,-6 8,-11 12,-15 3,-3 6,-5 8,-4 5,-8 10,-15 15,-21 5,-6 11,-11 17,-15 3,-2 11,-21 15,-32z"/>
   <path class="fil11" d="M2051 777c-4,0 -8,0 -12,0 16,3 35,1 51,-7 16,-7 30,-20 39,-36 9,-16 13,-35 12,-53 -1,-18 -7,-36 -17,-52 -1,-4 -6,-13 -9,-17 -14,-14 -34,-24 -56,-26 -23,-3 -45,4 -61,14 -8,5 -13,14 -14,20 -2,7 -1,11 -1,11 -1,5 1,11 5,10 3,-2 8,-6 12,-9 5,-3 9,-4 11,-1 0,1 -2,2 -5,4 2,2 2,7 2,11 1,4 1,8 0,9 0,1 -1,6 -1,11 0,5 2,9 2,10 1,4 8,2 14,3 7,0 13,2 15,2 3,2 5,6 7,8 0,-1 2,2 2,1l1 2 0 -1 0 0c0,-1 0,-1 0,-2 0,1 0,1 0,2 0,-2 0,0 0,-1 0,1 0,1 -1,2 1,-2 0,0 1,-1l0 0 0 0 0 0 -1 1 1 0c0,0 0,0 -1,-1l0 1 1 0 0 -1 -1 0 0 0 1 0c0,1 0,2 0,2 0,4 -3,3 -4,2l-1 -3c0,-1 0,-1 -1,-3 -1,1 -4,2 -3,4 -1,0 -4,0 -4,1 0,2 1,3 2,5 1,1 1,3 1,5 -1,2 -2,6 1,7 -1,0 -2,-1 -3,-1 -1,1 -2,3 -2,3 3,4 9,7 15,8 0,0 0,3 0,4 1,0 2,0 3,0 2,4 -1,7 -7,7 -7,1 -14,-2 -19,-4 0,2 -1,4 -2,5 1,1 2,1 4,2l-1 2c-13,-6 -21,-15 -27,-28 1,2 3,7 5,9 -2,0 -3,1 -1,3 -6,-8 -8,-20 -11,-30 -1,-3 -5,0 -6,8 1,9 3,14 7,22l-2 1c-3,-5 -5,-14 -7,-19 -2,-3 -3,6 -5,4 0,-4 -1,-7 -2,-10 0,10 6,22 10,31 0,3 1,7 -1,8 11,13 21,23 29,34 2,2 7,4 14,6 7,1 15,2 21,1z"/>
   <path class="fil12" d="M366 1059l0 2 1 1 0 1 1 2c1,2 3,4 5,7 3,5 7,11 12,17 11,11 24,24 38,35 14,11 28,21 39,27 11,7 11,8 7,8 -2,0 -4,0 -7,0 -2,0 -4,1 -4,1 12,5 21,10 29,14 3,1 5,2 7,3 2,1 5,2 7,3 3,1 5,2 8,3 1,1 3,1 4,2 1,0 3,1 5,1 -1,0 4,2 11,5 4,2 8,3 13,5 5,1 11,3 16,5 23,7 51,14 70,18 0,0 3,0 11,1 4,1 9,1 16,2 6,1 14,2 23,4 13,2 13,0 13,-1 0,1 0,1 0,3 6,-1 16,0 25,1 10,1 19,3 25,3 0,1 0,1 0,2 6,0 13,0 19,1 3,0 6,0 9,0l8 1c3,0 5,0 7,0l0 0c2,0 3,-1 5,-1l0 -1 1 0 -1 1c67,-17 140,-47 199,-99l-41 -2 -23 0 -12 0c-4,0 -8,-1 -12,-1 -12,0 -24,0 -37,0 -6,0 -13,0 -19,0l-2 0 -3 0 -4 0c-3,0 -5,0 -8,-1 -11,0 -23,-1 -34,-1 -3,0 -6,0 -9,0l-2 0 -1 -1 -2 0c-3,0 -6,0 -10,-1 -6,0 -12,-1 -18,-1 -7,-1 -13,-2 -19,-2 -7,-1 -13,-2 -19,-2 -7,-1 -13,-2 -19,-3 -51,-7 -101,-18 -143,-31 -21,-7 -40,-11 -54,-13 -7,-1 -13,-2 -17,-3 -4,0 -6,0 -6,0 -11,-3 -23,-4 -15,3 3,2 6,4 9,6 3,1 7,3 10,5 4,2 8,4 12,7 4,2 8,4 12,5 4,2 7,4 11,6 3,2 6,3 9,5 5,2 8,4 8,6 -1,0 -4,0 -8,-2 -4,-1 -9,-3 -15,-6 0,2 -3,2 -7,3 -3,0 -9,-1 -14,-1 -5,-1 -11,-2 -16,-3 -5,-2 -9,-3 -12,-4 -3,-1 -9,-4 -17,-7 -8,-3 -18,-8 -27,-13 -10,-5 -19,-10 -26,-15 -4,-2 -7,-5 -10,-7 -3,-1 -5,-3 -6,-4 -3,-3 -5,-4 -6,-4 -2,0 -2,2 0,5z"/>
   <path class="fil12" d="M366 1059l0 2 1 1 0 1 1 2c1,2 3,4 5,7 3,5 7,11 12,17 11,11 24,24 38,35 14,11 28,21 39,27 11,7 11,8 7,8 -1,0 -3,0 -4,0 -1,0 -2,0 -3,0 -2,0 -4,1 -4,1 12,5 21,10 29,14 3,1 5,2 7,3 2,1 5,2 7,3 3,1 5,2 8,3 1,1 3,1 4,2 1,0 3,1 5,1 -1,0 4,2 11,5 4,2 8,3 13,5 5,1 11,3 16,5 23,7 51,14 70,18 0,0 3,0 11,1 4,1 9,1 16,2 6,1 14,2 23,4 13,2 13,0 13,-1 0,1 0,1 0,3 6,-1 16,0 25,1 10,1 19,3 25,3 0,1 0,1 0,2 6,0 13,0 19,1 3,0 6,0 9,0l8 1c3,0 5,0 7,0l0 0c2,0 3,-1 5,-1l0 -1 1 0 -1 1c67,-17 140,-47 199,-99l-41 -2 -23 0 -12 0c-4,0 -8,-1 -12,-1 -12,0 -24,0 -37,0 -6,0 -13,0 -19,0l-2 0 -3 0 -4 0c-3,0 -5,0 -8,-1 -11,0 -23,-1 -34,-1 -3,0 -6,0 -9,0l-2 0 -1 -1 -2 0c-3,0 -6,0 -10,-1 -6,0 -12,-1 -18,-1 -7,-1 -13,-2 -19,-2 -7,-1 -13,-2 -19,-2 -7,-1 -13,-2 -19,-3 -51,-7 -101,-18 -143,-31 -21,-7 -40,-11 -54,-13 -7,-1 -13,-2 -17,-3 -4,0 -6,0 -6,0 -11,-3 -23,-4 -15,3 3,2 6,4 9,6 3,1 7,3 10,5 4,2 8,4 12,7 4,2 8,4 12,5 4,2 7,4 11,6 3,2 6,3 9,5 5,2 8,4 8,6 -1,0 -4,0 -8,-2 -4,-1 -9,-3 -15,-6 0,2 -3,2 -7,3 -3,0 -9,-1 -14,-1 -5,-1 -11,-2 -16,-3 -5,-2 -9,-3 -12,-4 -3,-1 -9,-4 -17,-7 -8,-3 -18,-8 -27,-13 -10,-5 -19,-10 -26,-15 -4,-2 -7,-5 -10,-7 -3,-1 -5,-3 -6,-4 -3,-3 -5,-4 -6,-4 -2,0 -2,2 0,5l0 0z"/>
   <path class="fil13" d="M417 1402c-2,0 -3,1 -3,1 1,-1 2,0 3,0l0 -1z"/>
   <path class="fil13" d="M1107 1170c1,-1 2,-3 4,-5 0,-1 1,-2 2,-3l1 -1 0 -1 1 0c5,0 11,-1 17,-1 -3,1 -11,3 -16,3l-1 1 0 0 -1 2 -2 2 -3 5c-1,-1 -2,-2 -9,9 2,-4 4,-7 7,-11zm2 -21c5,0 11,0 16,0 -5,1 -11,3 -15,3l0 0 -1 -3 0 0zm179 42c-22,3 -44,6 -69,9 0,-1 -1,-4 -13,-3 -14,2 -29,3 -44,3 -18,1 -19,1 -26,2 -1,1 -2,3 -4,5l-1 2 -1 1 0 0 0 1 -1 0c-1,1 -2,3 -3,4 -7,8 -14,16 -21,23 -3,4 -7,7 -10,11 -1,1 -3,3 -5,4 -2,2 -3,3 -5,4 -6,6 -12,10 -17,14 -3,1 -5,3 -9,5 -1,1 -3,2 -4,3 -2,1 -4,2 -6,4 -4,2 -9,5 -15,9 -1,1 -3,2 -4,3 -2,1 -4,2 -5,3 -4,2 -8,4 -12,7 6,-3 11,-7 16,-11 6,-3 11,-7 16,-11 -1,-1 -3,-3 -3,-3 -20,15 -45,30 -71,42 -25,13 -53,22 -77,29 0,0 -1,-3 -1,-4 -8,3 -16,5 -24,7 -7,-1 -4,-3 6,-7 2,-1 5,-2 8,-3 3,-1 7,-2 11,-4 1,0 3,-1 5,-2 2,0 4,-1 6,-2 5,-2 9,-3 13,-5 2,0 3,-1 4,-1 1,-1 2,-1 3,-2 3,-1 5,-2 7,-3 5,-2 10,-4 14,-6 5,-2 10,-4 15,-7 4,-2 9,-5 14,-7 4,-2 9,-5 13,-8 4,-2 9,-5 13,-7 4,-3 7,-6 11,-8 2,-1 3,-3 5,-4 2,-1 3,-2 5,-3 -1,-1 -3,-3 -3,-4 -2,1 -4,2 -5,3l-5 4 -10 6 -2 -2 9 -6 4 -2c2,-2 4,-3 5,-4l16 -12 16 -13 2 -2 2 -2 4 -3 7 -8 4 -3c1,-1 3,-3 4,-4l7 -8c2,-2 5,-5 7,-7l6 -8 7 -8c1,-1 2,-3 3,-4l3 -4 7 -9 3 -4 1 -3 1 -1 1 0 0 -1c7,0 13,0 19,0l9 -7c2,0 4,-1 7,-1 11,0 22,-1 34,-2 23,-2 45,-5 65,-9 6,-1 6,-3 0,-3 -3,0 -8,0 -14,0 -6,0 -14,0 -23,1 -6,1 -13,1 -19,2 1,0 2,0 3,0 5,-2 -1,-2 -7,-3 -6,0 -12,0 -6,-2 6,0 12,-1 18,-1 6,-1 12,-2 18,-4 -16,2 -35,4 -53,6 -4,0 -9,1 -13,1l-1 -1 -13 1c0,0 -1,0 -3,1 -12,0 -24,1 -35,1l-1 1 0 1 -1 1c-1,1 -2,3 -3,4 -2,2 -3,4 -5,6 -2,3 -5,7 -7,9 -2,2 -3,3 -4,5l-2 2 0 1 -1 0c-3,3 -6,5 -7,4 -2,3 -4,5 -6,8 -1,2 -2,3 -3,4 -1,2 -3,3 -4,4 -4,5 -9,10 -13,15 -4,4 -9,8 -13,12 -2,1 -3,2 -4,3 -1,1 -2,2 -3,3 -2,2 -5,3 -7,5 -2,2 -4,4 -7,5 -2,2 -4,3 -6,4 -5,3 -9,6 -13,8 -9,5 -17,9 -25,12 -1,0 -3,1 -6,2 -2,1 -5,3 -8,5 -6,3 -14,7 -23,11 -8,4 -17,8 -26,12 -3,1 -6,2 -9,3 -1,1 -2,2 -3,3 0,0 -109,87 -169,111 -5,2 -10,4 -15,6l1 0c2,0 3,0 4,0l3 0c2,0 4,0 6,0 8,0 15,0 23,0 13,0 27,-4 13,-6 7,0 13,0 20,-1 7,0 14,-1 20,-1 13,-2 17,-3 20,-5 3,-1 6,-3 19,-5 32,-6 63,-16 93,-27 31,-12 60,-27 87,-45 28,-18 53,-39 76,-62l4 -5c2,-1 4,-3 5,-5l8 -8 8 -9c2,-3 5,-7 7,-10l8 -9 4 -5 0 -1c1,-2 3,-10 3,-10l4 7 5 0c5,0 10,0 15,-1 5,0 9,0 14,-1 20,-1 40,-3 60,-5 5,-1 10,-2 15,-2 5,-1 10,-2 15,-2l15 -3 15 -3c21,-4 41,-8 62,-16 -27,8 -49,12 -72,15z"/>
   <path class="fil14" d="M886 1304c11,-10 20,-20 27,-27 2,-2 5,-4 6,-6l6 -6 3 -4c1,-1 2,-2 2,-3l5 -6 3 -3 2 -3 5 -6c1,-2 2,-5 4,-7 1,-2 2,-4 4,-6l3 -6c1,-2 2,-4 3,-6 2,-4 4,-8 6,-12 4,-8 7,-17 11,-25 2,-5 4,-9 6,-14l0 -1 0 0 0 0 0 -1 1 -3 1 -4c2,-6 1,-12 3,-18 0,0 -70,64 -199,99l1 -1 -1 0 0 1 0 0 -11 1c2,0 4,0 6,0 1,0 2,0 4,0l0 0 1 0 -1 1c2,0 4,0 2,1 -1,1 -1,1 -2,3l1 0c1,0 1,0 0,1 2,-1 2,-1 4,-3l1 0c1,0 1,1 2,1 -1,1 -2,1 -3,2 -1,2 -3,3 -5,3 -2,1 -3,1 -4,0l0 0 -1 0 0 1c-2,1 -4,2 -6,3 -4,2 -8,4 -11,6 -4,2 1,13 -3,15 -29,24 -56,37 -102,35l-15 11 0 3c-14,2 -39,4 -60,8 -31,6 -31,13 -33,12 -2,0 -8,0 -8,0l-8 6c-57,12 -125,-21 -125,-21 8,12 26,16 26,16 -8,3 12,8 12,8 37,9 41,15 38,14 -4,-1 -4,6 -4,6l37 7 6 0c4,14 -28,10 -38,9 -9,0 -5,6 -5,6l6 5c0,0 -28,-3 -65,-11 -33,-7 -6,5 1,10 6,5 -3,6 -8,7 0,0 20,0 35,11 0,0 23,2 27,6 0,0 9,9 22,10l47 2 68 -7c0,0 46,-7 55,-4 9,3 21,1 31,-3 0,0 29,-8 58,-26 29,-18 106,-69 121,-83l5 -4z"/>
   <path class="fil15" d="M769 211l12 -2c-69,2 -70,1 -134,12 -4,0 -13,0 -17,0 -32,7 -70,24 -98,40 -7,4 -12,10 -15,16 -3,6 -4,11 -4,11 -2,4 -3,11 1,11 8,-2 26,-11 29,-6 0,2 -3,3 -7,5 2,5 -4,20 -7,22 -2,4 -19,22 -21,26 -8,9 31,11 46,9 8,-1 3,6 5,10 6,-5 11,-3 17,-7 1,1 6,-1 13,-3 6,-3 14,-6 19,-8 0,0 3,-3 13,-7 3,-1 3,-2 2,-3 1,1 1,1 1,2 3,-4 11,-4 14,-7 0,2 0,2 1,3 6,-5 14,-5 20,-9 0,1 0,1 1,3 3,-2 7,-3 7,-2l1 3c4,0 10,-5 11,-2l-1 -3c14,-4 25,-7 36,-9 30,-2 -5,7 26,-1 4,-1 7,-4 3,-6l11 -2c7,-2 2,-5 10,-6 14,-4 28,-7 43,-9 14,-2 29,-4 43,-4l44 -1c14,0 29,0 43,0 -14,-2 -25,-5 -39,-4 0,-2 0,-4 -4,-4 -11,-1 -23,0 -34,0 -5,0 -10,0 -14,0 -4,-1 -8,-1 -11,-2 -4,-1 -8,-5 -19,-4l11 -1c0,-1 0,-4 0,-4 -8,0 -16,0 -25,0 -8,0 -17,1 -24,1 0,0 -1,-2 -1,-4l-7 1c-9,-8 32,-13 51,-16 0,-1 0,-4 0,-5l-8 1 0 -3c11,-1 22,-2 33,-3 10,0 21,-1 33,-1 -4,0 -12,0 -16,1 0,-2 0,-3 -4,-3 16,-1 35,0 51,-2 4,-1 0,-5 -12,-7 -12,-1 -20,0 -31,0l0 -2c7,0 19,0 27,-1 4,-1 -8,-4 -4,-6 4,0 8,1 12,-1 -12,0 -28,2 -40,1 -4,-1 -8,-3 -8,-5 -5,0 -10,0 -14,0 -5,0 -9,0 -13,0 -8,-1 -15,-3 -22,-6 -2,-1 -8,-1 -15,0 -7,1 -15,2 -21,3z"/>
   <path class="fil15" d="M576 64c4,-1 8,-1 12,-1 -17,-2 -36,2 -51,12 -8,4 -15,10 -22,17 -6,7 -11,15 -15,24 -3,8 -6,17 -7,27 -1,9 -1,19 0,28 3,19 10,36 22,51 2,5 8,13 11,17 15,13 37,22 60,22 12,0 23,-2 34,-6 10,-4 19,-9 27,-15 8,-6 12,-15 13,-22 1,-7 -1,-12 -1,-12 1,-5 -2,-11 -6,-9 -3,2 -7,7 -12,10 -4,3 -9,5 -10,3 -1,-2 2,-3 4,-6 -2,-2 -3,-6 -3,-11 -1,-4 -2,-7 -1,-8 0,-2 0,-7 -1,-12 0,-5 -2,-9 -3,-10 -1,-4 -8,-2 -15,-2 -7,1 -13,-1 -15,-2 -3,-1 -5,-4 -8,-7 0,1 -2,-2 -1,-1l-1 0 0 0c0,1 0,0 0,1l0 -1c0,1 1,-1 0,0l1 -1 -1 1 0 0 0 0 0 0 1 0 -1 0c0,0 0,0 1,0l0 0 -1 0 0 0 1 0 0 0 -1 0c0,-2 0,-3 1,-3l2 1 0 1c0,1 1,1 1,2 2,0 5,-1 3,-2 2,-1 4,-1 4,-2 0,-2 -1,-3 -2,-4 0,-2 -1,-3 0,-6 0,-1 1,-6 -2,-7 1,1 2,1 3,2l2 -4c-4,-3 -10,-6 -15,-7 0,0 -1,-2 -1,-4 -1,0 -2,0 -3,1 -3,-4 1,-8 7,-9 6,-1 13,1 18,2 1,-1 2,-4 2,-5 -1,-1 -2,-1 -4,-2l1 -2c13,5 23,13 29,26 -1,-2 -3,-7 -5,-8 1,-1 3,-2 1,-4 7,8 10,20 13,29 2,3 6,0 6,-9 -2,-8 -4,-13 -9,-21l2 -1c4,5 6,14 9,19 2,3 2,-7 4,-5 1,3 2,6 4,9 -2,-10 -8,-21 -13,-30 -1,-3 -2,-7 0,-8 -13,-13 -24,-22 -33,-32 -2,-2 -7,-4 -15,-5 -7,-1 -15,0 -21,1z"/>
   <path class="fil16" d="M1266 207l12 3c-66,-21 -66,-23 -130,-33 -4,-2 -13,-5 -17,-6 -32,-4 -73,-1 -105,5 -8,1 -15,6 -20,10 -4,5 -7,9 -7,9 -3,3 -7,9 -2,11 8,1 28,-1 28,4 0,2 -4,2 -8,2 1,6 -10,18 -13,18 -4,4 -26,15 -29,18 -10,6 26,21 41,24 8,2 1,7 1,11 7,-2 11,1 19,-1 0,1 5,1 12,1 7,0 15,0 21,0 0,0 3,-2 14,-2 4,-1 4,-2 4,-3 0,1 0,1 0,2 4,-2 11,0 15,-2 0,2 0,2 0,3 7,-3 15,0 22,-1 0,1 0,1 0,2 4,0 7,0 7,2l0 2c4,2 11,-1 11,2l0 -3c15,0 26,2 37,4 29,7 -7,4 26,7 3,0 7,-2 4,-5l11 2c7,1 4,-4 11,-3 15,2 30,3 44,6 14,3 28,7 42,11l42 13c13,6 27,11 41,15 -13,-7 -22,-13 -37,-17 1,-1 2,-4 -2,-5 -10,-5 -21,-8 -31,-11 -5,-2 -10,-3 -14,-5 -4,-2 -7,-4 -10,-6 -3,-2 -5,-7 -16,-9l11 2c0,-1 1,-4 1,-4 -8,-2 -16,-5 -24,-8 -8,-2 -16,-4 -23,-7 0,0 0,-2 1,-4l-8 -1c-6,-11 36,-2 54,2 1,-1 1,-4 2,-5l-8 -2 1 -3c11,3 21,5 32,8 10,4 20,7 31,10 -4,-1 -11,-3 -15,-4 1,-2 1,-3 -3,-4 15,5 33,11 49,15 4,0 2,-5 -9,-11 -11,-4 -19,-6 -30,-10l1 -2c8,2 19,7 26,8 5,0 -6,-6 -2,-6 4,1 8,2 12,3 -11,-5 -27,-8 -38,-13 -3,-3 -6,-5 -6,-8 -5,-1 -9,-2 -13,-4 -4,-1 -8,-3 -12,-5 -7,-3 -14,-8 -19,-13 -1,-1 -7,-3 -14,-5 -7,-1 -15,-2 -21,-4z"/>
   <path class="fil16" d="M1133 5c4,0 8,1 11,3 -15,-8 -34,-10 -52,-6 -9,2 -18,5 -26,9 -8,5 -15,11 -22,18 -6,6 -12,14 -16,22 -4,9 -7,18 -9,27 -4,19 -2,38 3,56 1,5 3,15 5,19 10,18 28,33 50,41 11,4 22,6 33,6 12,0 22,-2 31,-5 10,-4 16,-11 19,-17 4,-6 4,-11 4,-11 2,-5 2,-11 -3,-12 -3,2 -9,5 -14,7 -5,1 -10,1 -11,-2 0,-1 3,-2 6,-3 -1,-3 0,-7 0,-12 1,-4 2,-7 3,-8 0,-2 2,-7 3,-11 1,-5 1,-10 0,-11 1,-4 -7,-4 -13,-6 -7,-2 -13,-6 -15,-7 -2,-2 -3,-6 -5,-10 1,1 -1,-3 0,-1 -1,-1 0,0 -1,0l0 0c0,0 1,-1 0,1l0 -1 1 0 0 -1 0 0 -1 1 0 0 0 0 1 0 -1 0c0,0 0,0 1,0l0 0 -1 -1 1 1 0 0 0 0 0 0c0,-2 0,-3 1,-3l1 1 0 2c0,0 1,1 1,2 1,0 5,0 3,-1 2,0 5,0 5,-1 0,-1 0,-3 -1,-4 0,-2 0,-3 1,-6 1,-1 4,-5 1,-7l3 2 3 -2c-3,-5 -7,-9 -12,-12 0,0 0,-2 0,-4 -1,0 -2,0 -3,0 -1,-5 3,-7 9,-6 6,0 13,5 17,8 1,-1 3,-3 4,-4 -1,-1 -2,-2 -4,-3l2 -2c11,9 17,20 19,34 0,-3 -1,-7 -2,-9 2,-1 3,-1 2,-4 4,10 3,22 3,33 0,2 6,1 8,-7 1,-9 1,-15 -1,-23l2 -1c2,6 1,15 2,21 1,3 5,-6 6,-3 0,4 -1,7 0,10 2,-10 0,-23 -2,-32 0,-4 0,-8 3,-9 -8,-16 -15,-28 -21,-41 -1,-2 -5,-6 -12,-9 -6,-3 -14,-5 -20,-6z"/>
   <path class="fil17" d="M1751 372l11 6c-54,-43 -54,-45 -110,-78 -3,-3 -9,-9 -13,-12 -28,-15 -68,-27 -100,-34 -8,-1 -16,1 -22,3 -6,3 -10,5 -10,5 -4,2 -9,6 -6,10 7,3 26,9 25,14 0,1 -4,0 -8,-1 -2,6 -16,13 -20,12 -4,2 -29,4 -33,6 -11,2 17,29 30,37 6,5 -2,7 -3,11 7,0 10,5 17,6 0,1 5,3 12,5 6,3 14,6 19,8 0,0 4,-1 14,3 4,1 4,0 5,-1 -1,1 -1,1 -1,2 4,-1 10,4 14,4 0,1 0,1 -1,2 8,0 14,6 22,7 -1,1 -1,1 -1,2 3,2 7,3 6,4l-1 3c3,3 11,3 10,5l1 -2c13,5 23,11 32,17 25,17 -8,1 22,16 3,1 7,1 5,-3l10 5c6,4 5,-2 11,2 14,7 27,13 39,21 12,9 24,17 35,26l34 28c11,10 21,19 33,28 -10,-10 -16,-20 -28,-29 1,-1 3,-3 0,-5 -7,-8 -17,-15 -25,-22 -4,-3 -8,-7 -11,-10 -3,-3 -6,-6 -7,-8 -2,-4 -3,-9 -12,-16l9 7c1,-1 3,-3 3,-3 -6,-5 -13,-11 -19,-16 -7,-6 -14,-11 -20,-15 0,0 2,-3 3,-4l-7 -4c-1,-12 34,11 50,22 1,-1 2,-3 3,-5l-6 -4 1 -2c10,7 19,13 27,19 8,7 17,13 26,21 -3,-3 -9,-8 -12,-10 0,-1 1,-2 -2,-5 12,10 27,23 40,32 4,2 3,-4 -4,-13 -9,-8 -15,-13 -24,-20l1 -2c6,5 15,13 22,17 3,2 -4,-8 0,-7 3,3 6,6 10,7 -9,-8 -22,-16 -30,-25 -3,-4 -5,-7 -3,-9 -4,-3 -8,-6 -11,-9 -4,-3 -7,-6 -10,-9 -5,-6 -9,-12 -12,-19 -1,-2 -6,-6 -12,-10 -6,-4 -13,-8 -18,-11z"/>
   <path class="fil17" d="M1701 134c4,2 7,5 10,8 -12,-13 -28,-22 -46,-25 -9,-2 -19,-2 -28,-1 -9,1 -18,4 -27,8 -8,4 -16,9 -23,15 -7,7 -13,14 -19,22 -10,16 -15,34 -17,53 -1,5 -2,15 -2,20 3,20 14,41 31,56 9,8 19,14 29,18 11,4 21,6 31,6 10,1 19,-4 24,-8 5,-5 7,-9 7,-9 4,-4 6,-10 2,-12 -4,0 -11,1 -16,0 -5,0 -10,-2 -10,-5 1,-1 4,-1 7,-1 0,-3 3,-7 5,-10 2,-4 4,-7 5,-7 1,-2 5,-6 7,-10 3,-4 4,-8 4,-10 2,-3 -5,-6 -10,-10 -6,-4 -9,-10 -11,-12 -1,-2 0,-7 -1,-11 0,2 0,-3 0,-1 0,-1 0,0 0,0l0 0c0,0 0,-1 -1,1l1 -1 0 0 1 -1 -1 0 0 1 0 0 0 0 0 0 0 -1 0 1 0 0 0 -1 0 1 0 0 0 0 0 0c1,-2 2,-2 2,-2l1 1 0 2c-1,0 -1,1 -1,2 2,1 5,2 4,0 1,1 4,2 4,1 1,-1 1,-3 2,-4 0,-2 0,-3 3,-5 1,-1 4,-3 3,-6l1 3 4 -2c0,-4 -3,-11 -7,-15 0,0 1,-2 2,-3l-2 -2c0,-4 5,-5 10,-2 6,3 10,10 13,14 1,-1 3,-2 5,-3 -1,-1 -2,-2 -2,-4l2 -1c7,12 9,25 5,39 1,-3 2,-7 2,-10 1,1 3,1 3,-2 -1,10 -6,22 -10,31 0,3 5,4 11,-3 4,-8 5,-13 6,-22l3 0c0,7 -4,15 -6,20 0,4 7,-3 7,0 -2,3 -3,6 -4,9 6,-8 8,-21 10,-31 2,-3 3,-7 6,-7 -2,-17 -4,-31 -4,-45 0,-3 -3,-8 -8,-13 -5,-6 -11,-11 -17,-14z"/>
   <path class="fil18" d="M1511 1148l-11 4c68,-14 69,-13 130,-35 4,0 13,-2 17,-3 30,-12 64,-35 90,-55 6,-6 9,-13 11,-19 2,-7 2,-11 2,-11 2,-5 2,-12 -3,-12 -7,4 -23,16 -27,11 0,-1 3,-3 6,-6 -3,-4 0,-20 3,-22 2,-5 16,-25 16,-30 6,-10 -32,-5 -47,0 -7,2 -4,-6 -6,-9 -5,5 -11,4 -16,9 0,0 -5,2 -11,6 -6,3 -14,7 -18,10 0,0 -2,3 -12,9 -3,2 -2,3 -2,4 0,-1 0,-1 -1,-2 -2,4 -10,6 -12,9 -1,-1 -1,-1 -1,-2 -5,6 -13,7 -19,12 -1,-1 -1,-1 -1,-3 -3,2 -7,4 -7,3l-2 -3c-3,1 -9,7 -10,5l1 2c-13,7 -23,11 -33,15 -29,7 4,-8 -26,6 -3,1 -6,5 -1,6l-11 4c-7,3 -2,5 -9,8 -13,6 -27,12 -41,16 -14,4 -28,8 -42,11l-43 9c-14,2 -28,4 -42,7 14,-1 25,1 39,-3 1,1 1,4 5,4 11,-1 22,-5 33,-6 5,-1 10,-2 14,-3 4,0 8,0 11,0 4,1 9,4 20,1l-11 3c0,1 1,4 1,4 7,-2 16,-3 24,-5 8,-1 17,-4 24,-5 0,0 1,2 1,4l7 -3c11,7 -30,19 -48,25 0,1 1,4 2,5l7 -2 1 3c-12,3 -22,6 -32,8 -11,3 -21,5 -32,7 3,-1 11,-2 15,-3 0,1 0,3 4,2 -15,3 -34,6 -49,10 -4,2 0,6 12,5 12,-1 20,-3 31,-6l1 3c-8,2 -20,3 -27,6 -4,2 8,2 5,4 -4,1 -8,1 -12,3 12,-1 27,-6 39,-7 4,1 8,1 9,4 5,-2 10,-2 14,-3 4,-1 9,-2 13,-2 8,0 15,1 22,2 2,1 8,0 15,-2 7,-2 15,-5 20,-7z"/>
   <path class="fil18" d="M1727 1260c-4,1 -8,2 -12,3 17,-1 35,-8 49,-20 7,-6 13,-14 18,-21 4,-8 8,-17 10,-26 3,-9 4,-19 3,-28 0,-9 -2,-19 -5,-28 -6,-18 -16,-34 -30,-47 -3,-4 -10,-11 -14,-14 -17,-11 -40,-15 -63,-11 -12,2 -22,5 -32,11 -10,5 -18,12 -25,19 -6,8 -8,17 -8,24 0,7 2,12 2,12 1,5 4,10 8,8 2,-3 6,-8 10,-12 4,-4 8,-6 10,-4 1,1 -2,3 -4,6 3,1 4,6 6,10 1,4 2,7 2,8 0,2 1,7 3,12 1,4 3,8 5,9 1,4 8,0 14,-1 7,-2 14,-1 16,-1 3,1 6,4 9,6 -1,-1 3,2 2,1l0 0 0 0c-1,0 0,0 -1,-1l1 1c0,-1 0,1 0,0l0 1 0 -1 0 0 0 0 0 0 -1 0 1 0c0,0 0,0 -1,0l0 0 1 0 0 0 -1 0 0 0 1 0c0,2 0,3 0,3l-2 0 -1 -2c0,0 -1,0 -2,-2 -1,1 -4,3 -2,4 -1,0 -4,1 -3,2 0,1 1,3 2,4 1,1 2,2 2,5 0,2 -1,6 2,6 -1,0 -2,0 -3,0l-1 4c4,2 11,4 16,4 0,0 1,2 1,4 1,-1 2,-1 3,-1 4,3 1,7 -5,9 -5,3 -13,2 -18,1 0,2 -1,4 -1,6 1,0 2,0 4,1l-1 2c-13,-2 -24,-9 -33,-20 2,2 5,5 7,7 -1,1 -2,2 -1,4 -7,-7 -13,-18 -18,-27 -1,-2 -5,1 -4,10 4,8 7,13 13,19l-2 2c-4,-5 -8,-13 -12,-17 -3,-3 -1,7 -3,5 -2,-3 -3,-6 -6,-9 4,10 12,20 18,28 2,3 4,6 2,8 15,10 27,18 38,26 2,2 8,3 15,2 7,0 15,-2 21,-4z"/>
   <path class="fil19" d="M110 859l-6 -10c27,63 25,65 59,120 2,4 5,12 7,16 18,28 47,57 72,77 6,6 14,8 21,8 6,1 11,0 11,0 5,1 11,-1 10,-5 -5,-7 -19,-21 -15,-25 1,-1 4,2 6,5 4,-4 20,-4 23,-1 5,0 28,9 32,10 11,3 -1,-34 -9,-47 -3,-7 5,-5 8,-8 -6,-4 -6,-9 -12,-14 0,0 -3,-4 -8,-10 -4,-5 -10,-11 -14,-15 0,0 -3,-2 -11,-10 -2,-2 -3,-2 -4,-1 1,-1 1,-1 2,-1 -5,-1 -8,-9 -11,-10 1,-1 1,-1 2,-2 -8,-4 -10,-11 -16,-16 1,-1 1,-1 2,-2 -2,-2 -5,-5 -4,-6l2 -2c-1,-4 -8,-7 -6,-9l-2 2c-9,-12 -15,-21 -21,-31 -13,-26 8,3 -11,-24 -2,-3 -6,-4 -7,0l-6 -9c-4,-6 -5,-1 -9,-7 -8,-12 -17,-24 -24,-37 -7,-13 -13,-26 -19,-39l-17 -41c-5,-13 -10,-27 -16,-40 4,14 5,25 11,38 -1,1 -4,2 -3,5 4,11 9,22 13,31 2,5 4,10 5,14 1,4 2,8 2,11 1,4 -1,9 4,19l-5 -10c-2,1 -4,2 -4,2 3,7 6,15 9,23 3,8 7,15 10,22 0,0 -2,1 -4,2l4 7c-4,11 -24,-26 -33,-43 -2,1 -4,2 -5,3l3 7 -2 1c-5,-11 -10,-20 -15,-30 -4,-10 -8,-19 -13,-30 2,4 5,11 6,14 -1,1 -2,1 -1,5 -6,-14 -12,-33 -20,-47 -2,-3 -5,2 -2,14 3,11 7,18 12,29l-3 1c-3,-7 -7,-18 -11,-25 -2,-4 -1,9 -3,5 -2,-3 -3,-7 -6,-10 4,11 12,25 15,36 1,5 1,9 -2,10 3,4 5,9 6,13 2,4 3,8 4,12 2,8 3,16 3,23 -1,2 2,8 5,14 3,6 8,13 11,18z"/>
   <path class="fil19" d="M43 1093c-2,-4 -4,-8 -6,-11 5,16 15,32 30,43 7,6 15,10 24,14 9,3 18,5 28,5 9,1 18,0 27,-2 10,-3 18,-6 27,-11 16,-9 30,-23 40,-39 3,-3 9,-12 11,-16 7,-19 7,-43 -2,-65 -4,-10 -10,-20 -17,-29 -7,-8 -15,-15 -24,-20 -9,-5 -18,-5 -25,-3 -7,1 -11,4 -11,4 -5,2 -9,6 -6,10 3,1 9,4 14,7 4,3 7,6 6,9 -1,1 -4,-1 -7,-3 -1,3 -5,5 -9,8 -3,2 -7,4 -8,3 -1,1 -6,3 -10,5 -5,3 -8,6 -9,7 -3,2 2,8 4,14 3,7 4,13 4,16 0,3 -2,6 -4,10 1,-1 -1,2 0,1l0 0 0 0c0,0 -1,0 1,0l-1 0c0,0 -1,0 0,0l-1 0 0 0 1 0 0 0 0 0 0 0 0 1c0,0 0,0 0,-1l0 0 0 1 0 -1 0 0 0 0 0 0c-2,1 -3,1 -3,1l0 -2 1 -1c1,0 1,-1 1,-2 0,-1 -3,-3 -3,-2 -1,-1 -2,-3 -3,-3 -2,1 -3,2 -3,4 -1,1 -2,2 -5,2 -2,1 -6,1 -6,4 0,-1 0,-2 0,-3l-4 0c-2,4 -2,11 -1,16 0,0 -2,2 -3,2l1 3c-3,4 -7,2 -10,-3 -4,-5 -5,-13 -5,-18 -1,0 -4,0 -5,0 -1,1 0,3 0,4l-3 0c-1,-14 4,-26 13,-36 -1,1 -4,5 -5,7 -2,-1 -3,-1 -4,1 5,-9 15,-17 23,-23 1,-2 -3,-6 -11,-2 -7,5 -11,9 -16,16l-2 -2c3,-5 10,-10 14,-15 2,-3 -7,1 -6,-2 3,-2 5,-4 7,-7 -8,5 -17,15 -23,23 -3,2 -6,5 -8,3 -7,17 -12,30 -18,43 -1,2 -1,8 1,15 2,7 6,14 9,20z"/>
   <path class="fil20" d="M282 380l9 -8c-59,36 -61,35 -112,75 -3,2 -11,7 -15,9 -24,21 -49,54 -66,81 -5,7 -6,16 -5,22 0,6 1,11 1,11 0,5 2,11 7,10 6,-6 17,-22 22,-19 1,1 -2,4 -4,7 5,4 7,19 4,23 0,4 -6,28 -5,33 -3,11 32,-6 45,-15 6,-4 5,4 9,6 3,-6 8,-7 11,-14 1,1 5,-3 9,-8 5,-5 11,-12 14,-16 0,0 1,-4 8,-12 2,-3 1,-4 0,-5 1,1 1,1 2,2 1,-5 8,-9 9,-13 1,1 1,1 2,2 3,-7 10,-11 13,-17 1,1 1,1 3,1 2,-2 4,-5 5,-4l2 2c4,-2 7,-9 9,-8l-2 -1c10,-11 18,-18 27,-25 25,-17 -1,8 22,-14 3,-3 4,-7 0,-7l8 -7c6,-5 0,-6 6,-10 11,-10 22,-20 33,-29 12,-8 24,-16 37,-24l38 -22c13,-6 25,-13 38,-20 -14,5 -25,7 -37,15 -1,-1 -2,-4 -5,-2 -10,5 -20,11 -29,17 -5,2 -9,5 -13,6 -4,2 -8,4 -11,4 -4,1 -9,0 -18,6l9 -6c-1,-2 -2,-4 -2,-4 -7,4 -14,8 -22,12 -7,4 -14,9 -21,13 0,0 -1,-2 -2,-3l-6 4c-12,-3 22,-27 38,-39 -1,-1 -3,-3 -4,-4l-6 4 -2 -2c10,-7 19,-13 28,-18 9,-6 18,-11 28,-17 -3,2 -10,6 -13,8 -1,-1 -2,-3 -5,-1 14,-8 31,-17 44,-26 2,-3 -3,-4 -14,0 -11,5 -17,9 -27,15l-2 -2c7,-4 18,-9 24,-14 3,-3 -9,0 -6,-3 3,-2 7,-4 10,-7 -11,5 -24,15 -35,20 -4,1 -8,2 -9,-1 -5,3 -9,6 -13,8 -3,2 -7,4 -11,5 -8,3 -15,5 -22,6 -2,0 -8,3 -14,7 -5,4 -11,9 -16,13z"/>
   <path class="fil20" d="M42 344c3,-3 6,-5 10,-7 -16,7 -30,19 -40,35 -4,8 -8,17 -10,26 -2,9 -2,18 -2,28 1,9 3,18 7,27 3,9 8,17 13,24 12,16 27,27 44,35 4,3 13,7 18,9 20,5 43,2 63,-10 11,-5 20,-12 27,-21 7,-8 13,-17 17,-26 4,-9 3,-19 0,-25 -2,-7 -6,-10 -6,-10 -2,-5 -7,-9 -10,-6 -1,4 -3,10 -5,15 -3,5 -6,8 -8,7 -2,-1 0,-3 1,-7 -3,-1 -6,-4 -8,-7 -3,-4 -5,-7 -5,-8 -1,-1 -3,-6 -6,-10 -3,-4 -7,-7 -8,-7 -3,-3 -8,2 -14,6 -5,4 -12,5 -14,6 -3,0 -7,-2 -11,-3 1,1 -3,-1 -1,0l0 0 0 0c0,0 -1,-1 0,1l0 -1c0,0 -1,-1 0,0l-1 -1 0 0 0 1 1 0 0 0 0 -1 -1 1c0,0 0,0 1,-1l0 1 -1 0 1 0 0 0 0 0 0 0c-2,-2 -2,-3 -1,-3l1 -1 2 2c0,0 0,0 2,1 1,-1 3,-4 1,-4 1,-1 3,-3 3,-3 -1,-2 -3,-3 -4,-3 -2,-1 -3,-2 -3,-5 -1,-1 -2,-5 -5,-5 1,0 2,0 3,0l0 -4c-5,-2 -11,-1 -17,1 0,0 -1,-2 -2,-3l-2 2c-5,-3 -4,-7 1,-11 5,-4 12,-6 17,-7 0,-1 0,-4 0,-5 -2,0 -3,0 -5,0l0 -3c14,-2 26,1 38,9 -2,-1 -6,-4 -8,-5 0,-1 1,-2 -1,-3 9,4 18,12 25,19 3,2 6,-3 1,-10 -6,-7 -10,-10 -18,-14l1 -3c6,3 12,9 17,13 3,1 -1,-8 2,-7 2,3 4,5 7,7 -6,-8 -17,-15 -26,-20 -2,-3 -5,-5 -4,-8 -17,-5 -31,-8 -44,-12 -2,-1 -8,0 -15,3 -7,2 -14,7 -18,11z"/>
   <path class="fil21" d="M1296 443c-1,-2 -1,-6 -3,-7 -1,-2 -5,0 -5,2 -1,3 -1,6 3,7 2,1 3,0 5,-2zm-632 -35c7,0 14,0 21,-5 -8,1 -15,1 -21,5zm531 189c-5,-2 -10,-3 -15,-2 4,6 9,4 15,2zm-745 -82c-3,-1 -5,-1 -6,-1 -2,0 -5,-1 -5,0 1,3 -1,5 -1,7 2,0 4,0 6,-1 2,-1 6,-1 6,-5zm589 -134c6,0 12,0 21,0 -9,-8 -15,-3 -21,0zm-217 109c4,0 6,6 9,3 3,-4 -1,-8 0,-12 -5,0 -4,7 -9,9zm19 1c7,-1 13,-3 18,-4 2,0 4,0 4,-1 0,-2 -2,-4 -4,-4 -6,0 -12,3 -18,9zm-36 -5c-4,6 -10,8 -9,13 1,2 7,1 9,-1 5,-4 -1,-6 0,-12zm96 -143c8,3 19,2 25,-2 -9,-3 -17,0 -25,2zm-146 48c-9,-2 -19,1 -28,5 10,-1 19,0 28,-5zm596 67c-2,8 -1,10 0,9 6,-5 10,-1 15,1 2,1 4,2 5,0 1,-3 -1,-4 -4,-5 -5,-1 -10,-3 -16,-5zm-825 22c-1,-3 -5,-3 -5,-3 -6,6 -15,7 -22,10 -2,0 -1,1 -1,3 0,1 1,1 2,1 9,-4 17,-7 26,-11zm769 -24c-14,-6 -32,-1 -42,-16 -1,-1 -4,-1 -5,-1 -2,0 -3,4 -2,4 8,0 11,10 17,11 11,1 21,5 32,2zm-475 -24c-13,1 -26,-1 -37,7 4,4 8,2 11,0 3,-2 7,-2 9,-1 8,7 13,3 17,-6zm-228 16c-20,5 -39,12 -58,20 -3,1 -4,3 -3,5 1,3 3,0 5,0 5,-2 9,-7 15,-8 15,-2 27,-12 41,-17zm529 -45c12,10 26,7 42,5 -15,-9 -29,-6 -42,-5zm10 46c11,5 21,2 32,2 -3,-4 -19,-4 -4,-13 1,-1 2,-5 0,-6 -3,-2 -7,-3 -10,-3 -2,-1 -1,2 -1,4 2,11 2,11 -9,13 -3,0 -5,0 -8,3zm210 -2l0 1c10,4 20,8 31,11 2,0 5,0 6,3 1,5 5,5 9,4 5,-1 10,-2 15,-3 -2,-2 -4,-3 -6,-4 -10,-4 -22,-4 -29,-13 -1,-2 -2,-2 -4,-1 -5,6 -10,8 -17,3 -1,-1 -3,-1 -5,-1zm-567 -6c-5,-2 -11,-4 -17,1 -2,2 -6,3 -9,2 -8,-3 -14,0 -20,3 -4,3 -11,4 -15,11 23,-1 44,-2 61,-17zm757 94c-8,-15 -33,-27 -50,-24 -4,0 -7,1 -8,-2 -2,-7 -9,-7 -16,-13 6,19 19,21 33,24 1,-1 -3,-4 1,-5 2,-1 5,1 5,2 -2,6 4,7 5,6 11,-2 17,5 24,11 1,1 3,2 6,1zm-896 -52c4,-4 8,-6 12,-7 17,-1 34,-7 50,-11 2,0 3,-1 5,-2 4,-1 4,-4 4,-6 -1,-4 -3,-3 -6,-3 -6,0 -11,4 -16,5 -12,2 -25,3 -37,1 -3,0 -5,0 -6,1 -8,11 -23,0 -30,11l-3 -1c-4,-2 -8,1 -12,2 -12,3 -22,11 -35,11 -9,0 -17,5 -23,13 5,-5 10,-2 15,-2 5,-1 10,-2 15,-2 7,-1 15,0 22,-4 1,-1 4,-1 3,-3 -3,-7 2,-5 5,-4 4,1 5,0 5,0 -5,-8 3,-4 4,-4 7,-3 15,0 22,-3 7,-3 7,1 6,8zm-211 288c3,-7 7,-13 16,-13 6,0 7,-3 6,-8 -2,-11 9,-28 20,-31 19,-4 37,-11 54,-20 8,-4 11,-12 13,-20 3,-7 18,-15 25,-12 7,4 15,3 23,6 3,0 6,-2 6,-5 1,-3 -3,-2 -5,-3 -5,0 -13,1 -13,-6 0,-7 8,-5 13,-5 12,-2 25,-1 36,-8 2,-2 6,-2 4,-6 -2,-3 -5,-3 -8,-1 -6,6 -14,5 -21,6 -7,1 -5,-2 -3,-5 8,-13 20,-18 34,-19 6,-1 12,0 16,-6l2 -1c5,-3 9,0 11,2 2,3 -3,5 -5,7 -6,3 -12,4 -14,11 4,3 9,2 13,3 7,0 13,-1 16,7 1,2 5,3 7,3 10,-4 21,-6 27,-16 2,-4 5,-6 10,-6 8,-1 14,-8 23,-6 2,1 5,1 7,2 4,2 8,2 11,-3 2,-4 6,-6 10,-6 5,0 10,-3 9,-8 -1,-5 -6,-8 -12,-6 -4,2 -8,3 -12,6 -5,5 -12,6 -19,6 -20,1 -39,3 -61,4 6,-8 14,-10 20,-11 8,0 11,-2 10,-10 -2,-10 3,-16 13,-17 5,0 5,-4 5,-6 0,-4 -3,-3 -5,-3 -5,-1 -9,0 -12,3 -3,4 -6,3 -9,2 -2,-1 -3,-4 -3,-6 1,-4 4,-4 8,-5 10,-4 21,-4 33,-11 -15,0 -28,1 -39,5 -10,3 -21,4 -30,8 -27,10 -55,17 -82,25 -3,1 -8,6 -10,0 -1,-3 5,-4 8,-5 20,-8 40,-16 61,-21 5,-1 7,-5 10,-6 31,-7 60,-20 91,-26 6,-1 11,-7 16,-10 -3,-3 -11,3 -11,-4 0,-8 9,-1 12,-6 -9,-4 -16,-2 -18,7 -1,3 -3,4 -6,3 -7,-1 -12,0 -18,4 -7,5 -16,4 -24,3 -8,-1 -13,1 -17,8 -4,7 -10,11 -19,9 -2,-1 -4,-2 -4,2 0,2 -3,3 -4,3 -21,3 -37,18 -58,20 -8,1 -17,8 -26,7 -6,-1 -13,-2 -14,-9 -1,-7 2,-12 9,-15 6,-3 11,-6 15,-10 6,-6 11,-6 19,-4 12,4 25,7 37,2 3,-1 8,-1 4,-6 -1,-1 -5,-3 -2,-5 3,-2 8,-5 10,-1 9,12 17,3 23,-2 11,-9 23,-12 36,-9 5,1 6,-3 10,-6 -6,-1 -10,-2 -14,-2 -3,0 -5,-1 -5,-4 0,-3 2,-5 5,-5 9,0 15,-4 22,-9 5,-5 14,-4 21,-3 3,0 5,1 7,-1 7,-7 13,-5 19,-1 5,4 8,3 11,-1 2,-5 7,-7 11,-6 13,0 23,-9 36,-9 3,0 4,-4 3,-7 0,-2 -2,-4 -6,-4 -11,0 -21,3 -31,9 -9,6 -20,7 -29,0 -3,-2 -7,-3 -8,1 -3,6 -9,6 -14,7 -7,1 -14,2 -19,7 -6,6 -14,2 -20,5 -12,6 -26,5 -38,9 -1,0 -3,1 -3,0 -4,-5 -15,-10 -23,-10 -1,-3 4,-1 3,-4 -1,-1 -3,-1 -5,-1 -4,2 -9,3 -14,5 -3,1 -5,3 -9,5 12,4 24,0 34,7 -15,14 -61,26 -83,20 10,-6 19,-11 28,-16 2,-1 4,-1 4,-3 -2,-4 -3,0 -5,0 -8,-1 -15,7 -23,6l0 1c-2,-3 0,-6 0,-10 -7,9 -17,5 -23,3 -8,-2 -12,3 -18,4l0 1c-5,1 -10,4 -14,5 -9,3 -15,7 -21,13 -4,3 -12,3 -18,5 3,-6 6,-10 10,-14 -19,4 -37,13 -56,19 -19,6 -37,14 -55,19 -16,5 -29,16 -46,18 9,-14 13,-18 30,-23 5,-1 10,-1 14,-3 2,-1 7,-3 4,3 0,1 2,1 3,0 0,-1 4,-1 3,-2 -4,-6 1,-5 3,-7 14,-12 30,-16 47,-21 3,-1 7,-1 7,-7 0,-5 8,-1 9,-6 -4,-5 -19,-5 -28,0 -11,7 -24,10 -35,16 -16,8 -32,16 -48,23 -7,3 -14,5 -20,9 0,-4 9,-8 -1,-9 -3,0 -5,3 -9,2l0 -2c13,-5 23,-15 36,-20 10,-4 17,-15 30,-14 1,0 -1,-7 4,-8 -4,-2 -4,0 -6,1 -1,0 -3,2 -4,0 5,0 -4,-5 2,-7 6,-1 11,-5 15,-10 2,-2 4,-5 8,-3 3,1 6,-3 9,-4 3,-2 5,-5 10,-3 -6,4 -10,9 -10,17 9,-5 18,-8 27,-14 3,-2 6,-1 8,-3 2,-1 4,-1 3,3 0,3 3,1 5,0 7,-3 13,-5 20,-7 -7,3 -14,7 -22,10 1,1 1,2 2,3 63,-24 127,-46 193,-68 -15,-4 -27,4 -39,8 -6,3 -11,4 -18,0 -4,-2 -10,-1 -14,-2 -4,0 -8,-1 -9,-6 -1,-5 4,-5 7,-7 10,-7 23,-5 35,-9 5,-2 10,-1 15,-5 2,-2 5,-3 8,-3 11,-1 22,-4 33,-6 10,-3 20,-1 30,-6 22,-9 45,-11 68,-17 28,-7 57,-10 86,-12 4,0 7,-3 11,-3 -7,-2 -15,0 -22,0 -6,1 -12,1 -18,2 -2,0 -4,1 -4,-1 -1,-3 0,-5 3,-5 6,-1 12,-1 17,-3 22,-5 44,-6 67,-9 2,-1 5,-1 8,2 -10,5 -22,1 -34,6 28,3 53,-7 79,-6 25,0 51,4 76,0 1,4 -5,2 -3,8 -1,-2 -1,-1 0,-1 6,0 14,5 20,-1l3 -1c11,7 22,-1 32,1 17,4 34,-1 50,5 4,1 10,2 14,-1 8,-6 17,-3 25,-1 11,2 22,4 33,3 2,-1 4,-1 6,0 23,7 47,3 69,8 22,5 45,5 67,9 8,2 13,8 19,12 3,-3 0,-6 1,-9 4,1 6,2 5,7 -1,2 -1,4 1,4 2,1 4,1 5,-2 2,-5 5,-2 8,0 5,4 9,8 13,-1 1,-2 3,-2 5,-1 5,1 10,2 14,4 22,8 43,15 63,25 11,4 23,8 36,10 7,1 10,9 15,15 -8,-5 -16,-5 -24,-5l-2 -1c-5,-11 -11,-7 -19,-4 -6,2 -13,-1 -20,-5 -6,-4 -12,-9 -20,-6 -3,1 -4,-2 -6,-3 -2,-1 -5,-6 -8,0 -1,1 -4,1 -5,0 -12,-9 -28,-4 -41,-11 -15,-7 -32,-5 -47,-11 -1,-1 -3,-2 -3,0 -4,7 -9,3 -14,2 -6,-2 -12,-2 -18,-3 -5,-1 -10,-1 -14,-5 -1,-1 -3,-1 -5,-1 -14,5 -28,0 -42,0 -13,0 -26,-5 -39,-8 -3,0 -5,0 -7,0 -6,2 -12,2 -18,-1 -9,-4 -19,2 -28,0 -3,-1 -2,2 -2,4 -1,3 1,2 3,3 3,0 7,0 8,6 0,5 5,6 9,5 12,-3 24,0 36,1 18,0 37,-1 56,3 24,4 48,4 72,10 27,7 54,9 80,18 10,3 20,2 30,6 7,3 13,6 21,8 5,0 8,-3 12,-2 16,7 36,9 49,23 1,1 5,2 2,5 -2,3 -3,-1 -5,-1 -1,-1 -3,-2 -5,-2 -14,4 -24,-8 -36,-10 -14,-3 -26,-11 -41,-11 -1,0 -1,1 -1,2l1 2c-2,1 -5,2 -6,2 -5,-2 -9,-4 -13,-7 -4,-3 -9,-4 -15,-3 -9,1 -19,-2 -28,-4 -12,-2 -26,1 -36,-9 -9,3 -17,-6 -26,-3 -8,3 -12,0 -15,-7 -1,-5 -4,-4 -8,-2 -7,3 -14,6 -22,5 -8,-1 -15,-8 -24,0 -3,3 -8,-2 -13,-3 7,10 18,10 28,13 3,0 6,1 8,2 1,1 7,9 7,-2 0,-1 5,0 8,1 10,4 20,6 30,4 9,-3 17,1 26,1 11,0 23,-1 31,9 1,2 3,1 4,0 4,-5 10,-3 15,-2 8,3 17,2 23,10 1,2 5,2 8,2 16,0 29,9 44,9l2 1c4,12 13,12 23,11 5,-1 8,0 11,3 3,4 8,7 13,7 4,1 6,3 10,6 -4,1 -8,2 -10,1 -10,-9 -22,-8 -34,-7 -6,0 -12,-1 -17,-7 -6,-5 -15,-4 -22,-3 -4,0 -9,-1 -14,3 9,3 17,6 26,6 5,1 10,-1 11,4 1,3 -2,7 -5,8 -4,3 -7,-1 -9,-4 -2,-2 -3,-5 -7,-3 -1,0 -4,-4 -5,0 -1,4 2,7 4,7 6,-2 10,3 14,4 6,2 9,3 12,-4 2,-5 7,-6 12,-4 6,2 13,4 19,6 29,7 56,19 83,31 27,13 56,25 82,42 4,3 8,4 2,10 -7,5 -5,10 2,15 1,1 3,3 4,4 5,-1 -2,-7 4,-7 4,0 6,3 9,5 3,4 3,9 9,13 3,1 1,13 1,20 0,1 -2,1 -3,0 -8,-10 -20,-14 -28,-22 -8,-9 -18,-15 -29,-19 -3,0 -2,-5 -4,-6 -4,-1 -8,-2 -10,3 -1,1 -2,3 -2,3 -5,-7 -10,0 -15,-2 -6,-2 -3,-5 -1,-8 7,-10 6,-14 -4,-21 -2,-2 -3,-3 -1,-5 4,-6 0,-7 -4,-9 -2,0 -4,-2 -6,-3 -2,0 1,-5 -4,-4 -3,1 -4,4 -5,7 -1,1 -1,3 0,4 1,2 3,1 5,0 5,-4 10,1 9,4 -1,7 3,11 5,16 1,2 3,5 1,7 -2,3 -5,0 -8,0 -7,-3 -11,-10 -18,-12 -4,-2 -8,-5 -12,1 -3,3 -7,1 -9,-2 -2,-2 -4,-1 -6,0 -3,1 0,3 0,5 0,6 6,9 9,9 12,0 17,9 25,13 5,3 9,9 16,2 2,-2 9,-1 10,3 3,9 10,10 17,12 26,9 50,21 76,32 1,0 2,1 2,4 -9,-6 -21,-3 -31,-7 -38,-16 -77,-32 -117,-44 -28,-8 -57,-16 -86,-22 -38,-9 -77,-14 -115,-20 -8,-1 -17,-1 -24,-2 7,13 21,8 32,11 7,2 17,1 25,3 5,1 10,4 15,4 6,0 -3,5 2,6 3,1 9,1 8,5 -1,5 -7,2 -10,1l-2 2c-2,3 -7,6 -11,4 -6,-3 -12,-4 -17,1 -1,2 -3,1 -4,1 -4,-1 -8,0 -12,2 -2,-6 -8,-2 -12,-4 -1,-1 -4,-1 -5,0 -4,9 -11,5 -17,5 -13,0 -27,1 -40,0 8,2 16,7 25,3 1,0 3,0 3,1 1,2 -1,3 -2,4 18,1 36,0 54,6l2 1c5,8 5,8 17,11 -3,-6 -10,-4 -14,-7 10,-2 20,1 29,4 3,1 2,4 -1,5 -3,2 -8,4 -12,3 -8,-1 -17,7 -26,0 0,-2 5,-1 3,-4 -1,-1 -5,-3 -7,-2 -12,4 -24,-2 -36,-2 -10,1 -19,0 -29,-2 -5,-2 -4,3 -4,6 -7,-4 -8,-4 -11,2 -1,3 -3,2 -4,1 -9,-6 -18,-4 -28,-2 -3,0 -5,-1 -7,-3 2,-4 6,-1 8,-5 -6,-2 -12,1 -17,-3l-3 2c-4,7 -5,9 -12,9 -10,0 -20,0 -31,0 -12,0 -24,-1 -36,2 -12,2 -24,0 -36,1 -14,2 -28,2 -42,4 -14,2 -29,3 -44,4 -4,0 -8,1 -12,2 -20,2 -40,4 -60,8 -13,2 -27,4 -41,8 -11,2 -23,5 -34,7 -17,4 -34,7 -51,10 -19,4 -38,9 -56,15 -35,11 -69,22 -102,35l-2 2 0 0c-48,15 -96,29 -143,48 -17,7 -35,10 -53,15 -4,1 -8,2 -12,5 -3,0 -7,0 -10,0z"/>
  </g>
 </g>
</svg>
