<?xml version="1.0" encoding="UTF-8"?>
<!DOCTYPE svg PUBLIC "-//W3C//DTD SVG 1.1//EN" "http://www.w3.org/Graphics/SVG/1.1/DTD/svg11.dtd">
<!-- Creator: CorelDRAW X7 -->
<svg xmlns="http://www.w3.org/2000/svg" xml:space="preserve" width="484px" height="611px" version="1.1" style="shape-rendering:geometricPrecision; text-rendering:geometricPrecision; image-rendering:optimizeQuality; fill-rule:evenodd; clip-rule:evenodd"
viewBox="0 0 19851 25049"
 xmlns:xlink="http://www.w3.org/1999/xlink">
 <defs>
  <style type="text/css">
   <![CDATA[
    .fil3 {fill:none}
    .fil5 {fill:#70342D}
    .fil21 {fill:#70352E}
    .fil15 {fill:#BD8617}
    .fil23 {fill:white}
    .fil17 {fill:#70342D;fill-rule:nonzero}
    .fil11 {fill:#F0E673;fill-rule:nonzero}
    .fil6 {fill:#FFEEC2;fill-rule:nonzero}
    .fil7 {fill:#FFF7EB;fill-rule:nonzero}
    .fil16 {fill:#FFFBC2;fill-rule:nonzero}
    .fil19 {fill:white;fill-rule:nonzero}
    .fil1 {fill:#FFF0D4;fill-rule:nonzero;fill-opacity:0.501961}
    .fil13 {fill:url(#id0)}
    .fil10 {fill:url(#id1)}
    .fil12 {fill:url(#id2)}
    .fil8 {fill:url(#id3)}
    .fil2 {fill:url(#id4)}
    .fil4 {fill:url(#id5)}
    .fil9 {fill:url(#id6)}
    .fil14 {fill:url(#id7)}
    .fil0 {fill:url(#id8)}
    .fil20 {fill:url(#id9)}
    .fil18 {fill:url(#id10);fill-rule:nonzero}
    .fil22 {fill:url(#id11);fill-rule:nonzero}
   ]]>
  </style>
  <linearGradient id="id0" gradientUnits="userSpaceOnUse" x1="9925.61" y1="5260.23" x2="9925.61" y2="16070">
   <stop offset="0" style="stop-opacity:1; stop-color:#F0E673"/>
   <stop offset="0.278431" style="stop-opacity:1; stop-color:#AF813C"/>
   <stop offset="0.501961" style="stop-opacity:1; stop-color:#7E3D30"/>
   <stop offset="1" style="stop-opacity:1; stop-color:#CC983B"/>
  </linearGradient>
  <linearGradient id="id1" gradientUnits="userSpaceOnUse" x1="9925.61" y1="2762.7" x2="9925.8" y2="17759.6">
   <stop offset="0" style="stop-opacity:1; stop-color:#F5E534"/>
   <stop offset="0.521569" style="stop-opacity:1; stop-color:#80210E"/>
   <stop offset="1" style="stop-opacity:1; stop-color:#DDB343"/>
  </linearGradient>
  <linearGradient id="id2" gradientUnits="userSpaceOnUse" x1="9930.64" y1="10002.9" x2="9930.64" y2="17146.7">
   <stop offset="0" style="stop-opacity:1; stop-color:#BD8617"/>
   <stop offset="0.568627" style="stop-opacity:1; stop-color:#DEBF61"/>
   <stop offset="1" style="stop-opacity:1; stop-color:#FFF9AB"/>
  </linearGradient>
  <linearGradient id="id3" gradientUnits="userSpaceOnUse" x1="1653.67" y1="8311.78" x2="1663.45" y2="11139.5">
   <stop offset="0" style="stop-opacity:1; stop-color:#ECDF56"/>
   <stop offset="1" style="stop-opacity:1; stop-color:#CC983B"/>
  </linearGradient>
  <linearGradient id="id4" gradientUnits="userSpaceOnUse" x1="4987.74" y1="19835.9" x2="9018.96" y2="17266.8">
   <stop offset="0" style="stop-opacity:1; stop-color:#B00205"/>
   <stop offset="1" style="stop-opacity:1; stop-color:red"/>
  </linearGradient>
  <linearGradient id="id5" gradientUnits="userSpaceOnUse" x1="9962.55" y1="879.44" x2="9962.55" y2="19806.7">
   <stop offset="0" style="stop-opacity:1; stop-color:#FFF9AB"/>
   <stop offset="0.211765" style="stop-opacity:1; stop-color:#E8DA3A"/>
   <stop offset="0.639216" style="stop-opacity:1; stop-color:#782211"/>
   <stop offset="1" style="stop-opacity:1; stop-color:#CF8D1B"/>
  </linearGradient>
  <linearGradient id="id6" gradientUnits="userSpaceOnUse" xlink:href="#id3" x1="18500.8" y1="8311.78" x2="18510.6" y2="11139.5">
  </linearGradient>
  <linearGradient id="id7" gradientUnits="userSpaceOnUse" x1="10509.9" y1="4393.13" x2="10510.1" y2="15589.3">
   <stop offset="0" style="stop-opacity:1; stop-color:#FFF9AB"/>
   <stop offset="1" style="stop-opacity:1; stop-color:#C18A3A"/>
  </linearGradient>
  <linearGradient id="id8" gradientUnits="userSpaceOnUse" x1="15001.3" y1="18186.7" x2="9998.62" y2="18911">
   <stop offset="0" style="stop-opacity:1; stop-color:red"/>
   <stop offset="1" style="stop-opacity:1; stop-color:#B00205"/>
  </linearGradient>
  <radialGradient id="id9" gradientUnits="userSpaceOnUse" gradientTransform="matrix(4.41435E-005 0.580388 -1.14036 4.41441E-005 28182 10309)" cx="9884.02" cy="16046.1" r="4387.23" fx="9884.02" fy="16046.1">
   <stop offset="0" style="stop-opacity:1; stop-color:#FEFEFE"/>
   <stop offset="0.921569" style="stop-opacity:1; stop-color:#EDD8A0"/>
   <stop offset="1" style="stop-opacity:1; stop-color:#DDB343"/>
  </radialGradient>
  <linearGradient id="id10" gradientUnits="userSpaceOnUse" x1="9443.43" y1="2293.79" x2="9443.43" y2="993.413">
   <stop offset="0" style="stop-opacity:1; stop-color:#ECDF56"/>
   <stop offset="0.560784" style="stop-opacity:1; stop-color:#F3E971"/>
   <stop offset="1" style="stop-opacity:1; stop-color:#FBF38C"/>
  </linearGradient>
  <linearGradient id="id11" gradientUnits="userSpaceOnUse" x1="9143.15" y1="12218.8" x2="9143.19" y2="6843.26">
   <stop offset="0" style="stop-opacity:1; stop-color:#DDB343"/>
   <stop offset="1" style="stop-opacity:1; stop-color:#ECDF56"/>
  </linearGradient>
 </defs>
 <g id="Layer_x0020_1">
  <metadata id="CorelCorpID_0Corel-Layer"/>
  <g id="_1034939048">
   <g>
    <path class="fil0" d="M9801 19242l-945 194 -261 53 -176 36 -158 32 -75 16 -23 5 76 130 1569 2726 1438 2498c81,126 175,155 288,53l1943 -2370c52,-98 130,-169 267,-181l3010 -502c198,-12 244,-112 139,-299l-1824 -3217 -61 -108 -9 -16 -33 -59 -25 -43 -32 6 -260 53 -140 29 -88 18 -4620 946z"/>
    <path class="fil1" d="M14498 18429l74 -43 -86 -147 -73 42 85 148zm-5915 1079l-74 42 85 149 74 -43 -85 -148zm170 296l-74 43 85 148 74 -43 -85 -148zm170 296l-74 43 85 148 74 -43 -85 -148zm171 297l-74 42 85 148 74 -42 -85 -148zm170 296l-74 42 85 148 74 -42 -85 -148zm170 296l-74 43 85 148 74 -43 -85 -148zm170 296l-74 43 85 148 74 -43 -85 -148zm171 296l-75 43 86 148 74 -42 -85 -149zm170 297l-74 42 85 148 74 -42 -85 -148zm170 296l-74 42 85 148 74 -42 -85 -148zm170 296l-74 43 85 148 74 -43 -85 -148zm170 296l-74 43 86 148 74 -43 -86 -148zm171 296l-74 43 85 148 74 -42 -85 -149zm170 297l-74 42 85 148 74 -42 -85 -148zm170 296l-74 42 85 148 74 -42 -85 -148zm170 296l-74 43 85 148 74 -43 -85 -148zm170 296l-74 43 85 148 75 -43 -86 -148zm105 248l65 55 110 -131 -66 -55 -109 131zm218 -262l66 55 110 -132 -66 -54 -110 131zm219 -262l66 54 109 -131 -65 -55 -110 132zm219 -263l66 55 109 -131 -65 -55 -110 131zm219 -262l66 55 109 -131 -65 -55 -110 131zm219 -262l66 55 109 -132 -65 -54 -110 131zm219 -262l66 54 109 -131 -65 -55 -110 132zm219 -263l66 55 109 -131 -65 -55 -110 131zm219 -262l66 55 109 -131 -65 -55 -110 131zm219 -262l13 11 30 54 163 -26 -13 -85 -179 29 -14 17zm361 -73l14 85 168 -27 -13 -85 -169 27zm338 -54l13 85 169 -27 -14 -85 -168 27zm337 -54l13 85 169 -27 -13 -85 -169 27zm337 -54l14 85 169 -27 -14 -85 -169 27zm338 -54l13 85 169 -27 -14 -85 -168 27zm337 -54l14 84 168 -27 -13 -84 -169 27zm337 -54l14 85 168 -27 -13 -85 -169 27zm338 -54l13 85 169 -27 -14 -85 -168 27zm279 -4l73 -42 -85 -148 -74 43 86 147zm-172 -295l74 -43 -86 -148 -73 43 85 148zm-171 -296l74 -43 -86 -147 -74 42 86 148zm-171 -295l73 -43 -85 -148 -74 43 86 148zm-172 -296l74 -43 -86 -148 -73 43 85 148zm-171 -296l74 -42 -86 -148 -74 43 86 147zm-171 -295l74 -43 -86 -148 -74 43 86 148zm-172 -296l74 -42 -85 -148 -74 43 85 147zm-171 -295l74 -43 -86 -148 -74 43 86 148zm-171 -296l74 -43 -86 -147 -74 42 86 148zm-172 -295l74 -43 -85 -148 -74 43 85 148z"/>
    <path class="fil2" d="M4674 18192c-651,1148 -1302,2296 -1952,3444 -106,187 -59,286 138,299 1004,167 2007,334 3011,501 137,13 215,84 267,182 647,790 1295,1580 1942,2370 113,102 208,72 289,-54 1027,-1784 2055,-3569 3082,-5354 -2259,-463 -4518,-925 -6777,-1388z"/>
    <path class="fil1" d="M5094 18385l-74 -42 85 -148 74 43 -85 147zm5915 1079l74 43 -85 148 -74 -43 85 -148zm-170 296l74 43 -85 148 -75 -43 86 -148zm-171 297l74 42 -85 148 -74 -42 85 -148zm-170 296l74 42 -85 148 -74 -42 85 -148zm-170 296l74 42 -85 149 -74 -43 85 -148zm-170 296l74 43 -85 148 -74 -43 85 -148zm-171 296l74 43 -85 148 -74 -42 85 -149zm-170 297l74 42 -85 148 -74 -42 85 -148zm-170 296l74 42 -85 148 -74 -42 85 -148zm-170 296l74 43 -85 148 -74 -43 85 -148zm-171 296l75 43 -86 148 -74 -43 85 -148zm-170 296l74 43 -85 148 -74 -42 85 -149zm-170 297l74 42 -85 148 -74 -42 85 -148zm-170 296l74 42 -85 149 -74 -43 85 -148zm-170 296l74 43 -86 148 -74 -43 86 -148zm-171 296l74 43 -85 148 -74 -43 85 -148zm-170 296l74 43 -85 148 -74 -43 85 -148zm-104 248l-65 55 -110 -131 66 -55 109 131zm-219 -262l-65 55 -110 -131 66 -55 109 131zm-219 -262l-65 54 -110 -131 66 -54 109 131zm-219 -263l-65 55 -110 -131 66 -55 109 131zm-219 -262l-65 55 -110 -131 66 -55 109 131zm-219 -262l-65 55 -110 -131 66 -55 109 131zm-218 -262l-66 55 -110 -132 66 -54 110 131zm-219 -262l-66 54 -109 -131 65 -55 110 132zm-219 -263l-66 55 -109 -131 65 -55 110 131zm-219 -262l-13 11 -31 54 -162 -26 13 -84 178 28 15 17zm-362 -73l-13 85 -169 -27 14 -85 168 27zm-337 -54l-13 85 -169 -27 13 -85 169 27zm-337 -54l-14 85 -168 -27 13 -85 169 27zm-338 -54l-13 85 -169 -27 14 -85 168 27zm-337 -54l-14 85 -168 -27 13 -85 169 27zm-337 -54l-14 85 -168 -27 13 -85 169 27zm-338 -54l-13 85 -169 -27 14 -85 168 27zm-337 -54l-13 85 -169 -27 13 -85 169 27zm-279 -3l-74 -43 86 -148 74 43 -86 148zm172 -296l-74 -43 85 -148 74 43 -85 148zm171 -296l-74 -42 86 -148 73 43 -85 147zm171 -295l-74 -43 86 -148 74 43 -86 148zm171 -296l-73 -43 85 -147 74 42 -86 148zm172 -295l-74 -43 86 -148 73 43 -85 148zm171 -296l-74 -43 86 -148 74 43 -86 148zm171 -296l-74 -42 86 -148 74 43 -86 147zm172 -295l-74 -43 85 -148 74 43 -85 148zm171 -296l-74 -42 86 -148 74 43 -86 147zm171 -295l-74 -43 86 -148 74 43 -86 148z"/>
   </g>
   <circle class="fil3" cx="9925" cy="9849" r="9849"/>
   <path class="fil4" d="M9925 0c5482,0 9926,4444 9926,9925 0,5482 -4444,9926 -9926,9926 -5481,0 -9925,-4444 -9925,-9926 0,-5481 4444,-9925 9925,-9925zm0 2707c3987,0 7219,3232 7219,7218 0,3987 -3232,7219 -7219,7219 -3986,0 -7218,-3232 -7218,-7219 0,-3986 3232,-7218 7218,-7218z"/>
   <path class="fil5" d="M1717 11585c-54,-272 -95,-547 -122,-823 -27,-276 -40,-554 -40,-831 0,-278 13,-556 40,-832 27,-276 68,-551 122,-823 9,-44 -20,-87 -64,-96 -45,-9 -88,20 -97,64 -55,277 -96,557 -124,839 -28,281 -42,564 -42,848 0,283 14,566 42,847 28,282 69,562 124,839 9,44 52,73 97,64 44,-9 73,-52 64,-96z"/>
   <path class="fil6" d="M9925 124c2707,0 5157,1097 6931,2871 1774,1773 2871,4224 2871,6930 0,2707 -1097,5157 -2871,6931 -1774,1774 -4224,2871 -6931,2871 -2706,0 -5157,-1097 -6930,-2871 -1774,-1774 -2871,-4224 -2871,-6931 0,-2706 1097,-5157 2871,-6930 1773,-1774 4224,-2871 6930,-2871zm6871 2931c-1759,-1758 -4188,-2846 -6871,-2846 -2683,0 -5112,1088 -6870,2846 -1758,1758 -2846,4187 -2846,6870 0,2683 1088,5112 2846,6871 1758,1758 4187,2845 6870,2845 2683,0 5112,-1087 6871,-2845 1758,-1759 2845,-4188 2845,-6871 0,-2683 -1087,-5112 -2845,-6870z"/>
   <path class="fil7" d="M9925 271c2666,0 5080,1080 6827,2827 1747,1748 2828,4161 2828,6827 0,2667 -1081,5080 -2828,6827 -1747,1747 -4160,2828 -6827,2828 -2666,0 -5079,-1081 -6827,-2828 -1747,-1747 -2827,-4161 -2827,-6827 0,-2666 1080,-5079 2827,-6827 1748,-1747 4161,-2827 6827,-2827zm6767 2888c-1732,-1732 -4124,-2803 -6767,-2803 -2642,0 -5034,1071 -6766,2803 -1732,1732 -2803,4124 -2803,6766 0,2643 1071,5035 2803,6767 1732,1732 4124,2803 6766,2803 2643,0 5035,-1071 6767,-2803 1732,-1732 2803,-4124 2803,-6767 0,-2642 -1071,-5034 -2803,-6766z"/>
   <path class="fil5" d="M18250 8276c54,272 95,547 122,823 27,276 40,554 40,832 0,277 -13,555 -40,831 -27,276 -68,551 -122,823 -9,44 20,87 64,96 45,9 88,-20 97,-64 55,-277 96,-557 124,-838 28,-282 42,-565 42,-848 0,-284 -14,-567 -42,-848 -28,-282 -69,-561 -124,-839 -9,-44 -52,-73 -97,-64 -44,9 -73,52 -64,96z"/>
   <path class="fil8" d="M1665 11580c-55,-272 -96,-547 -123,-823 -27,-276 -40,-554 -40,-832 0,-277 13,-555 40,-831 27,-276 68,-551 123,-823 8,-44 -20,-87 -65,-96 -44,-9 -88,20 -96,64 -56,277 -97,557 -125,838 -27,282 -41,565 -41,848 0,284 14,567 41,848 28,282 69,561 125,839 8,44 52,73 96,64 44,-9 73,-52 65,-96z"/>
   <path class="fil9" d="M18186 8271c54,272 95,547 123,823 27,276 40,554 40,831 0,278 -13,556 -40,832 -28,276 -69,551 -123,823 -9,44 20,87 65,96 44,9 87,-20 96,-64 55,-278 97,-557 124,-839 28,-281 42,-564 42,-848 0,-283 -14,-566 -42,-848 -27,-281 -69,-561 -124,-838 -9,-44 -52,-73 -96,-64 -45,9 -74,52 -65,96z"/>
   <circle class="fil10" cx="9925" cy="9925" r="7226"/>
   <path class="fil11" d="M15888 7594c-30,-80 -152,-60 -152,30 0,10 1,18 5,27 19,49 37,98 55,147 35,91 173,51 151,-47l-3 -8c-18,-50 -37,-100 -56,-149zm-11759 9c13,-35 2,-72 -28,-94 -44,-29 -98,-13 -119,35 -20,50 -39,99 -57,149 -31,81 76,149 136,76 5,-6 9,-13 12,-21 18,-48 37,-97 56,-145zm-245 739c23,-83 -94,-140 -145,-59 -3,7 -6,12 -8,20 -13,51 -26,103 -39,155 -21,96 120,140 153,40 13,-52 26,-104 39,-156zm-151 765c13,-95 -128,-128 -155,-28l-1 8c-7,53 -14,105 -19,158 -3,30 9,57 33,73 48,35 119,2 124,-56 5,-52 11,-104 18,-155zm-53 777c0,-83 -114,-111 -152,-32 -4,11 -6,20 -6,32 -1,53 0,106 1,159 4,101 148,104 157,4 2,-54 -1,-109 0,-163zm44 778c-13,-97 -158,-90 -158,12 5,54 14,112 22,166 2,17 12,35 25,47 56,49 141,4 131,-70 -7,-52 -14,-103 -20,-155zm140 766c-26,-98 -172,-65 -153,36 12,52 26,106 41,158 24,88 159,71 155,-27 -1,-6 -2,-10 -3,-16 -14,-50 -27,-100 -40,-151zm235 743c-30,-77 -148,-61 -152,27 0,12 1,20 5,31 19,50 39,99 59,148 16,37 56,57 95,46 45,-13 69,-64 51,-107 -20,-48 -39,-96 -58,-145zm325 709c-46,-84 -175,-28 -144,63 1,4 3,8 5,12 25,47 51,93 77,140 40,73 160,39 147,-53 -2,-10 -5,-17 -10,-26 -25,-37 -53,-95 -75,-136zm410 663c-47,-69 -162,-23 -141,65 3,10 6,17 13,26 30,44 62,87 94,129 58,75 173,5 134,-80 -2,-5 -5,-10 -8,-14 -31,-42 -62,-84 -92,-126zm490 606c-63,-66 -170,6 -128,90 4,7 7,11 12,17 36,39 72,78 109,116 66,67 175,-15 122,-100 -3,-3 -6,-7 -9,-10 -36,-37 -71,-75 -106,-113zm561 540c-51,-46 -136,-3 -129,66 1,21 12,41 28,54 40,35 81,69 123,102 38,30 91,21 116,-20 21,-33 13,-79 -17,-103 -41,-33 -81,-66 -121,-99zm625 465c-34,-21 -76,-15 -102,15 -32,35 -24,92 16,118 45,29 90,57 135,85 73,46 161,-46 101,-119 -5,-6 -11,-11 -18,-15 -44,-28 -88,-55 -132,-84zm678 384c-83,-40 -156,72 -83,133 5,4 9,7 15,9 48,24 96,46 144,68 88,38 155,-81 78,-136 -4,-3 -8,-6 -13,-8 -47,-21 -94,-43 -141,-66zm721 298c-92,-30 -147,95 -64,144 5,2 8,4 13,5 50,17 101,34 152,50 88,28 145,-96 62,-144 -5,-3 -10,-5 -15,-7 -50,-15 -99,-32 -148,-48zm751 206c-81,-19 -135,93 -57,144 9,5 15,8 25,10 52,11 105,21 157,31 92,16 133,-115 42,-152 -5,-2 -9,-3 -14,-4 -51,-9 -102,-19 -153,-29zm772 110c-91,-8 -122,123 -30,154 6,2 11,3 17,3 54,4 107,8 160,11 88,4 117,-119 31,-153 -7,-3 -15,-4 -23,-5 -52,-3 -104,-6 -155,-10zm778 13c-87,3 -104,130 -17,155 9,2 16,3 25,2 53,-2 107,-5 160,-9 95,-8 99,-149 -2,-158 -3,0 -7,0 -10,0 -52,4 -104,7 -156,10zm775 -85c-91,16 -85,152 13,157 5,0 10,-1 15,-2 52,-9 104,-18 157,-29 99,-23 73,-169 -29,-155 -52,10 -104,20 -156,29zm758 -181c-94,30 -60,171 39,153 52,-13 109,-33 160,-50 80,-26 69,-150 -24,-154 -10,0 -17,1 -26,4 -49,17 -99,33 -149,47zm730 -273c-79,34 -52,160 42,151 8,-1 15,-3 23,-6 48,-22 97,-45 145,-67 18,-9 31,-23 39,-42 27,-67 -42,-132 -107,-101 -47,22 -94,44 -142,65zm691 -361c-80,51 -23,172 67,142 5,-2 9,-4 15,-7 45,-27 90,-56 135,-84 71,-45 31,-157 -54,-145 -12,2 -21,5 -31,12 -44,28 -88,55 -132,82zm640 -444c-68,53 -11,166 77,136 8,-4 14,-7 21,-12 42,-34 83,-67 124,-101 24,-21 34,-51 25,-82 -15,-55 -82,-76 -126,-39 -40,33 -81,66 -121,98zm579 -521c-63,63 15,171 98,123 6,-3 10,-7 15,-12 38,-38 74,-77 111,-116 64,-72 -28,-173 -106,-116 -3,3 -6,5 -10,9 -35,38 -71,75 -108,112zm510 -589c-52,66 28,162 106,114 8,-5 14,-11 20,-19 32,-42 64,-85 95,-128 55,-80 -49,-168 -119,-103 -3,3 -7,7 -9,11 -31,42 -62,84 -93,125zm432 -648c-48,88 74,166 134,84 28,-46 55,-97 81,-145 45,-81 -66,-161 -130,-88 -3,4 -6,8 -8,13 -25,45 -51,90 -77,136zm348 -697c-35,81 75,152 135,79 5,-6 8,-11 11,-18 21,-49 40,-99 60,-148 33,-87 -83,-150 -138,-74 -3,5 -6,10 -9,16 -20,46 -39,98 -59,145zm260 -735c-10,34 4,69 34,88 44,27 104,5 117,-45 15,-52 28,-103 42,-155 21,-77 -79,-136 -137,-69 -8,10 -12,18 -16,30 -13,50 -26,101 -40,151zm165 -762c-11,85 98,125 144,55 6,-10 11,-20 12,-31 8,-53 16,-106 22,-159 12,-87 -112,-126 -151,-40 -2,7 -4,13 -5,21 -7,51 -14,103 -22,154zm70 -776c-4,83 113,114 150,36 5,-11 7,-20 7,-32 2,-53 3,-106 3,-160 0,-81 -110,-111 -150,-35 -5,12 -8,22 -8,35 0,52 -1,104 -2,156zm-28 -779c7,89 139,99 156,5 1,-7 2,-13 1,-20 -5,-53 -11,-106 -18,-159 -12,-95 -152,-92 -157,8 0,4 0,8 1,11 6,52 12,104 17,155zm-125 -769c22,93 165,76 156,-27l-2 -8c-12,-52 -24,-104 -37,-156 -27,-98 -172,-65 -154,36 12,52 25,103 37,155z"/>
   <path class="fil12" d="M9925 2677c2002,0 3814,812 5126,2123 1311,1312 2123,3124 2123,5125 0,2002 -812,3814 -2123,5126 -1312,1311 -3124,2123 -5126,2123 -2001,0 -3813,-812 -5125,-2123 -1311,-1312 -2123,-3124 -2123,-5126 0,-2001 812,-3813 2123,-5125 1312,-1311 3124,-2123 5125,-2123zm0 86c3956,0 7163,3207 7163,7162 0,3956 -3207,7163 -7163,7163 -3955,0 -7162,-3207 -7162,-7163 0,-3955 3207,-7162 7162,-7162z"/>
   <circle class="fil13" cx="9925" cy="9925" r="5576"/>
   <path class="fil14" d="M9925 4356c1538,0 2931,623 3939,1631 1007,1008 1631,2401 1631,3938 0,1538 -624,2931 -1631,3938 -1008,1008 -2401,1632 -3939,1632 -1537,0 -2930,-624 -3938,-1632 -1007,-1007 -1631,-2400 -1631,-3938 0,-1537 624,-2930 1631,-3938 1008,-1007 2401,-1631 3938,-1631zm0 85c3029,0 5484,2456 5484,5484 0,3029 -2455,5484 -5484,5484 -3028,0 -5483,-2455 -5483,-5484 0,-3028 2455,-5484 5483,-5484z"/>
   <path class="fil15" d="M9925 2677c4001,0 7244,3235 7244,7226 0,30 -1,60 -1,90 -49,-3950 -3272,-7136 -7243,-7136 -3970,0 -7194,3186 -7242,7136 0,-30 -1,-60 -1,-90 0,-3991 3243,-7226 7243,-7226z"/>
   <path class="fil3" d="M9925 3882c3338,0 6044,2706 6044,6043 0,3338 -2706,6044 -6044,6044 -3337,0 -6043,-2706 -6043,-6044 0,-3337 2706,-6043 6043,-6043z"/>
   <path class="fil3" d="M17784 9993c0,4327 -3507,7834 -7834,7834 -4326,0 -7834,-3507 -7834,-7834"/>
   <path class="fil3" d="M17784 9925c0,4327 -3507,7835 -7834,7835 -4326,0 -7834,-3508 -7834,-7835"/>
   <path class="fil3" d="M17784 9988c0,4327 -3507,7835 -7834,7835 -4326,0 -7834,-3508 -7834,-7835"/>
  </g>
  <path class="fil3" d="M9919 3882c3338,0 6044,2706 6044,6043 0,3338 -2706,6044 -6044,6044 -3338,0 -6043,-2706 -6043,-6044 0,-3337 2705,-6043 6043,-6043z"/>
  <path class="fil16" d="M8795 3544l110 626c-6,3 -13,6 -23,10 -9,3 -20,6 -33,9 -29,5 -50,3 -63,-4 -13,-8 -22,-23 -25,-45l-39 -218 -208 37c-1,32 -10,58 -27,79 -18,21 -43,34 -76,40 -39,7 -70,3 -91,-12 -22,-16 -35,-36 -40,-62 -3,-20 -1,-42 7,-65l34 -6c16,-3 27,-10 34,-20 7,-11 9,-25 6,-42l-36 -202c-2,-16 -9,-27 -19,-32 -10,-6 -20,-7 -32,-5 -28,4 -40,19 -38,44 -9,4 -16,6 -23,8 -21,3 -38,1 -52,-7 -14,-8 -23,-22 -26,-43 -6,-32 3,-59 27,-81 23,-22 55,-36 94,-43 53,-10 98,-5 135,14 36,18 59,53 68,103l39 222 205 -36 -44 -245 -93 17c-28,5 -45,-10 -51,-46 -1,-7 -2,-15 -2,-26 -1,-9 0,-18 2,-25l347 -61c29,-5 46,10 52,44 1,7 2,16 1,27 0,10 0,19 -1,25l-119 21z"/>
  <path id="1" class="fil16" d="M9116 3488l111 625c-7,3 -15,6 -24,10 -9,4 -20,7 -33,9 -29,5 -50,4 -64,-4 -13,-8 -21,-23 -25,-45l-101 -571 -88 15c-16,3 -28,0 -36,-7 -7,-7 -13,-20 -16,-38 -1,-7 -2,-16 -2,-26 0,-10 0,-18 1,-25l344 -61c28,-5 45,10 51,44 2,8 2,16 2,27 0,10 -1,19 -2,26l-118 21z"/>
  <path id="2" class="fil16" d="M9534 3453l18 635c-7,2 -15,4 -24,7 -10,2 -21,3 -35,4 -29,0 -50,-4 -62,-14 -12,-9 -18,-25 -19,-48l-16 -580 -90 3c-16,0 -27,-4 -34,-13 -6,-8 -10,-21 -10,-40 -1,-7 0,-15 1,-26 2,-10 3,-18 6,-24l120 -4c-7,-11 -12,-25 -16,-42 -4,-17 -6,-34 -7,-53 -1,-32 5,-63 18,-91 12,-28 32,-53 58,-74 26,-21 59,-38 99,-50 40,-12 86,-19 139,-21 67,-2 130,4 188,19 59,14 109,31 152,52 43,21 76,42 101,64 24,22 37,40 37,55 1,18 -6,33 -21,44 -15,11 -34,17 -57,18 -22,-22 -48,-42 -76,-60 -29,-18 -61,-33 -94,-45 -34,-12 -69,-21 -106,-27 -37,-6 -75,-9 -113,-8 -61,2 -107,15 -138,41 -31,25 -45,58 -44,98 0,15 2,29 5,42 3,14 8,25 14,34l89 -2c29,-1 44,16 45,51 0,7 -1,16 -2,26 -2,11 -4,19 -6,26l-120 3z"/>
  <path id="3" class="fil16" d="M10224 3435l18 635c-6,2 -15,4 -25,6 -9,3 -21,4 -33,4 -30,1 -51,-3 -63,-13 -12,-9 -19,-25 -19,-48l-5 -179c-20,13 -42,23 -68,31 -25,8 -53,12 -83,13 -73,2 -133,-17 -178,-57 -45,-39 -69,-100 -71,-183l-6 -194 -65 2c-16,1 -27,-3 -33,-12 -7,-9 -11,-22 -11,-40 0,-8 0,-16 1,-26 2,-10 4,-18 6,-25l718 -20c28,-1 43,16 44,51 0,7 0,16 -2,26 -1,11 -3,19 -6,26l-119 3zm-250 335c24,-1 46,-6 68,-14 21,-9 38,-19 50,-32l-261 -194 3 103c1,53 14,90 37,109 24,20 58,29 103,28zm117 -136l-6 -195 -250 7 256 188z"/>
  <path id="4" class="fil16" d="M11249 3582l-112 626c-6,0 -14,1 -25,1 -10,0 -21,-1 -34,-3 -29,-6 -48,-14 -58,-26 -10,-12 -13,-29 -9,-51l102 -572 -145 -25c-4,43 -8,84 -13,122 -5,37 -12,76 -19,116 -6,37 -18,68 -35,93 -16,26 -36,45 -60,60 -24,14 -51,23 -81,27 -30,4 -62,3 -96,-3 -33,-6 -64,-16 -90,-29 -27,-14 -49,-32 -67,-53 -17,-21 -29,-47 -36,-77 -7,-30 -7,-64 0,-101 7,-40 14,-79 22,-116 8,-37 17,-77 28,-119l-72 -13c-15,-3 -26,-9 -30,-19 -5,-10 -6,-23 -3,-42 2,-7 4,-15 7,-24 4,-10 7,-18 10,-23l919 164c28,5 40,24 33,59 -1,7 -3,16 -7,25 -3,10 -7,18 -11,24l-118 -21zm-564 252c28,5 51,1 70,-13 19,-13 32,-36 38,-69l43 -244 -182 -32 -44 243c-6,33 -2,59 12,79 14,19 34,31 63,36z"/>
  <path id="5" class="fil16" d="M11571 3638l-112 626c-7,0 -16,0 -25,0 -10,1 -22,0 -35,-3 -29,-5 -48,-13 -58,-25 -10,-12 -12,-29 -9,-51l103 -572 -89 -15c-15,-3 -26,-10 -30,-19 -5,-10 -6,-24 -2,-42 1,-7 3,-15 6,-25 4,-9 7,-17 11,-23l122 22 6 -35c11,-61 10,-106 -3,-137 -13,-30 -36,-49 -68,-54 -25,-5 -47,0 -66,13 -20,13 -33,36 -39,69l-6 33c-6,1 -12,2 -18,2 -13,2 -27,2 -41,-1 -23,-4 -41,-13 -55,-26 -14,-13 -19,-33 -14,-60 5,-26 14,-49 29,-70 15,-20 33,-37 56,-50 22,-13 48,-21 77,-25 29,-5 60,-4 94,2 74,14 128,47 163,101 35,54 44,129 27,226l-7 36 86 16c28,5 39,24 33,59 -1,7 -4,15 -8,25 -3,10 -7,18 -10,24l-118 -21z"/>
  <path class="fil17" d="M12809 1672c-24,-43 -38,-90 -42,-141 -3,-52 3,-100 19,-147 13,-40 33,-75 57,-103 25,-29 55,-50 89,-65 34,-15 71,-23 111,-24 40,-1 83,6 128,22 72,24 118,53 136,87 18,34 21,69 9,105 -12,35 -30,60 -55,72 -11,-9 -23,-17 -35,-23 -12,-7 -27,-14 -43,-19 -37,-13 -73,-11 -107,4 -34,16 -59,46 -74,91 -13,37 -16,73 -11,110 5,31 12,60 22,89l159 53c48,17 62,56 41,118 -4,13 -11,28 -21,46 -10,18 -20,31 -28,40l-169 -57 -312 918c-13,-1 -29,-2 -49,-5 -19,-3 -41,-8 -65,-16 -54,-19 -89,-40 -104,-65 -14,-25 -15,-58 -1,-98l42 -125c-41,8 -85,9 -134,6 -48,-4 -100,-16 -156,-35 -102,-34 -183,-85 -245,-150 -62,-66 -101,-140 -117,-221 -7,-35 -11,-72 -11,-109 0,-37 4,-69 14,-96 5,-17 14,-29 26,-37 12,-8 30,-9 55,-3 52,11 100,18 145,21 46,2 86,0 123,-7 36,-6 66,-19 91,-38 25,-19 43,-44 54,-76 10,-31 10,-57 0,-78 -10,-21 -26,-36 -48,-43 -24,-8 -46,-8 -65,3 -19,9 -33,28 -43,55 -5,17 -8,32 -9,44 0,12 1,24 3,34 -15,9 -35,14 -59,14 -24,1 -49,-4 -77,-13 -19,-6 -36,-15 -51,-27 -15,-12 -27,-26 -37,-43 -9,-18 -14,-37 -15,-60 -1,-23 3,-48 13,-75 10,-32 28,-61 52,-86 25,-24 54,-43 89,-56 35,-12 75,-19 120,-18 46,0 95,9 147,27 53,18 98,42 134,71 37,30 64,63 83,99 18,37 28,77 30,119 1,42 -5,85 -20,129 -17,49 -41,89 -74,120 -32,31 -70,56 -113,73 -43,18 -91,29 -143,32 -52,4 -105,2 -159,-6 4,41 24,81 59,120 35,39 85,70 149,91 49,17 98,24 144,22 47,-3 88,-13 122,-30l199 -584c7,-20 18,-35 34,-44 5,-2 9,-4 13,-5l-20 -7zm-6266 361l441 864c-10,9 -23,20 -38,32 -15,12 -34,24 -56,35 -53,27 -93,37 -120,30 -27,-7 -51,-30 -70,-68l-395 -771 -82 42 -26 14 -2 0 -1 1 -1 0 -128 66 441 863c-11,10 -24,21 -39,33 -15,11 -33,23 -56,35 -52,26 -92,36 -119,29 -28,-7 -51,-29 -71,-67l-141 -276 -259 132c11,49 7,95 -13,136 -19,42 -55,76 -106,102 -63,32 -116,41 -162,27 -45,-14 -78,-42 -99,-83 -17,-33 -24,-72 -22,-118l42 -21c23,-12 38,-28 44,-49 6,-21 3,-45 -11,-72l-124 -242c-10,-20 -23,-32 -38,-35 -15,-4 -31,-2 -46,6 -16,8 -26,19 -32,31 -5,13 -6,27 0,43 -11,9 -21,17 -31,22 -35,17 -67,22 -95,14 -29,-9 -52,-29 -69,-62 -12,-24 -18,-49 -18,-74 1,-25 7,-49 20,-72 12,-23 29,-44 51,-64 22,-20 48,-37 79,-53 90,-46 169,-62 238,-47 69,15 123,60 161,136l146 284 249 -127 -158 -310 -97 50c-26,13 -47,15 -65,5 -18,-10 -34,-30 -50,-60 -6,-12 -12,-28 -18,-46 -6,-18 -9,-33 -10,-46l467 -238 29 -15 2 -1 476 -243c46,-24 84,-6 113,52 6,12 12,28 18,47 6,20 9,36 8,49l-157 80zm1237 -398l266 932c-11,7 -25,15 -42,24 -17,9 -38,17 -62,23 -56,17 -97,19 -123,6 -26,-12 -44,-39 -56,-79l-67 -235c-25,25 -55,47 -88,67 -34,19 -72,35 -114,47 -118,33 -220,27 -306,-19 -86,-47 -148,-134 -184,-262l-75 -261 -88 25c-28,8 -49,5 -65,-8 -15,-13 -28,-36 -37,-69 -4,-13 -7,-29 -9,-48 -2,-19 -2,-35 -1,-47l1085 -309 29 -8 2 -1 516 -147c50,-14 83,11 101,73 4,13 7,30 8,50 2,21 2,37 -1,50l-170 48 266 933c-12,7 -27,15 -44,24 -17,8 -38,16 -62,23 -56,16 -98,18 -123,6 -26,-12 -45,-39 -56,-80l-238 -833 -90 26 0 0 -27 8 -1 0 -2 0 -142 41zm-286 564c31,-9 59,-22 84,-40 25,-19 43,-38 54,-58l-408 -165 33 118c21,72 50,119 89,140 38,20 88,22 148,5zm102 -244l-70 -247 -322 91 392 156zm2669 -597l26 969c-13,4 -29,8 -48,13 -19,4 -42,6 -67,7 -57,2 -97,-7 -119,-25 -21,-18 -33,-49 -34,-91l-8 -323c-20,4 -41,8 -62,11 -21,3 -43,5 -66,5 -44,1 -92,-3 -145,-14 -53,-10 -100,-28 -140,-53 -23,14 -47,26 -73,36 -26,10 -54,18 -84,22 41,65 92,121 155,166 63,46 124,80 185,103 1,48 -12,89 -39,125 -27,35 -70,53 -127,55 -38,1 -76,-8 -115,-26 -38,-17 -75,-45 -111,-81 -35,-37 -68,-82 -99,-137 -31,-54 -57,-117 -78,-188 -40,-4 -68,-16 -85,-38 -17,-21 -26,-48 -27,-81 0,-21 3,-42 10,-61 7,-20 17,-37 29,-51 16,4 37,6 61,7 24,1 49,2 74,1 69,-2 120,-19 152,-51 32,-32 48,-73 47,-123 -1,-29 -6,-56 -16,-82 -9,-25 -21,-50 -35,-73l-369 10c-28,0 -49,-8 -60,-24 -12,-17 -18,-42 -19,-76 -1,-14 1,-30 3,-49 3,-19 7,-34 11,-45l1388 -37c52,-1 78,31 80,96 0,14 -1,31 -4,51 -4,20 -8,36 -12,47l-179 5zm-427 353c64,-1 121,-15 170,-40l-8 -306 -306 8c15,28 27,59 38,91 11,32 17,68 18,107 1,45 -6,89 -23,132 35,6 73,9 111,8zm1748 -200l-121 962c-15,2 -31,4 -50,5 -19,2 -41,1 -66,-2 -59,-8 -97,-22 -116,-43 -19,-22 -25,-53 -20,-96l39 -307 -313 -40c-39,103 -115,147 -229,132 -70,-8 -119,-31 -149,-69 -29,-37 -41,-78 -35,-124 5,-40 21,-77 48,-110l44 6c27,3 48,-2 65,-17 17,-14 27,-35 31,-64l42 -337 -193 -25c-29,-3 -48,-14 -57,-32 -9,-19 -11,-44 -7,-78 2,-14 5,-30 11,-48 5,-18 11,-33 17,-43l1201 151c51,7 72,42 64,107 -2,14 -5,30 -11,50 -6,19 -12,34 -20,45l-175 -23zm-608 274l300 38 43 -345 -300 -38 -43 345zm3097 647l-83 163c33,-3 67,-1 103,6 37,7 76,22 119,43 43,23 80,51 111,85 32,34 54,72 69,114 14,42 20,87 16,135 -3,48 -18,98 -44,149 -26,50 -57,91 -93,122 -36,30 -74,52 -114,65 -40,12 -81,16 -123,12 -42,-5 -82,-17 -120,-36 -98,-50 -128,-113 -89,-189 8,-16 17,-29 29,-40 11,-11 23,-21 35,-28 13,10 28,20 46,29 34,17 68,21 102,13 35,-9 63,-35 85,-78 20,-39 23,-76 10,-112 -14,-35 -42,-64 -84,-86 -28,-14 -55,-21 -81,-22 -27,-1 -51,3 -75,10l-260 509c-13,-2 -28,-6 -47,-12 -19,-5 -40,-14 -62,-25 -52,-26 -83,-53 -94,-79 -11,-27 -7,-59 13,-97l43 -86c-32,3 -67,1 -105,-6 -38,-7 -78,-22 -120,-43 -43,-22 -80,-50 -111,-83 -31,-34 -55,-72 -71,-114 -15,-43 -22,-89 -19,-138 3,-49 18,-101 45,-154 26,-50 57,-90 93,-120 36,-30 75,-51 115,-63 41,-12 82,-15 125,-10 42,5 83,17 122,37 55,28 89,59 104,93 15,35 13,70 -5,105 -16,33 -39,56 -67,69 -6,-6 -13,-12 -21,-19 -7,-6 -18,-13 -34,-21 -36,-19 -71,-23 -106,-15 -36,9 -64,34 -85,75 -20,39 -23,77 -10,114 14,36 42,65 85,87 31,16 60,24 88,25 28,1 53,-3 75,-11l252 -494 -572 -292c-26,-13 -40,-30 -42,-50 -2,-20 4,-45 19,-75 7,-13 16,-26 27,-42 11,-15 22,-27 31,-34l1419 724c45,23 53,63 23,121 -6,12 -15,27 -27,43 -12,17 -23,28 -34,36l-606 -310z"/>
  <path class="fil18" d="M6065 2220l441 863c-11,10 -24,21 -39,32 -15,12 -33,24 -56,35 -52,27 -92,37 -119,30 -28,-7 -51,-29 -71,-67l-141 -276 -259 132c11,49 7,95 -13,136 -19,42 -55,76 -106,102 -63,32 -116,41 -162,27 -45,-14 -78,-42 -99,-83 -17,-33 -24,-72 -22,-118l42 -21c23,-12 38,-29 44,-49 6,-21 3,-45 -11,-72l-124 -242c-10,-20 -23,-32 -38,-36 -15,-3 -31,-1 -46,7 -16,8 -26,18 -32,31 -5,13 -6,27 0,43 -11,9 -21,17 -31,22 -35,17 -67,22 -95,13 -29,-8 -52,-28 -69,-61 -12,-24 -18,-49 -18,-74 1,-25 7,-49 20,-72 12,-23 29,-44 51,-64 22,-20 48,-38 79,-53 90,-46 169,-62 238,-47 69,15 123,60 161,136l146 284 249 -127 -158 -310 -97 50c-26,13 -47,15 -65,5 -18,-10 -34,-30 -50,-60 -6,-13 -12,-28 -18,-46 -6,-18 -9,-33 -10,-46l496 -253c45,-23 83,-6 113,52 6,12 12,28 18,48 6,19 9,35 9,48l-158 81zm478 -245l441 864c-10,9 -23,20 -38,32 -15,12 -34,23 -56,35 -53,27 -93,37 -120,30 -27,-8 -51,-30 -70,-68l-395 -771 -108 55c-26,14 -48,15 -65,5 -18,-10 -35,-30 -50,-60 -6,-12 -12,-27 -18,-45 -6,-19 -9,-34 -10,-46l507 -259c46,-24 84,-6 113,52 6,12 12,28 18,47 6,20 9,36 8,49l-157 80zm1237 -398l266 932c-11,7 -25,15 -42,24 -17,9 -38,16 -62,23 -56,16 -97,18 -123,6 -26,-12 -44,-39 -56,-80l-67 -234c-25,25 -55,47 -88,67 -34,19 -72,35 -114,47 -118,33 -220,27 -306,-19 -86,-47 -148,-134 -184,-262l-75 -262 -88 26c-28,8 -49,5 -65,-8 -15,-13 -28,-36 -37,-69 -4,-13 -7,-29 -9,-48 -2,-19 -2,-35 -1,-47l1114 -317c49,-14 83,10 100,73 4,13 7,30 10,50 2,20 2,36 -1,49l-172 49zm-286 564c31,-9 59,-22 84,-41 25,-18 43,-37 54,-57l-408 -165 33 118c21,72 50,118 89,139 38,21 88,23 148,6zm102 -244l-70 -248 -322 92 392 156zm703 -468l266 932c-12,8 -27,16 -44,25 -17,8 -38,16 -62,23 -56,16 -98,18 -123,6 -26,-12 -45,-39 -56,-80l-238 -833 -117 34c-28,8 -49,5 -65,-8 -15,-13 -28,-36 -37,-69 -4,-13 -7,-29 -9,-48 -2,-19 -2,-35 0,-47l547 -156c50,-14 83,10 101,73 4,13 7,30 8,50 2,21 2,37 -1,50l-170 48zm1966 -129l26 969c-13,4 -29,8 -48,13 -19,4 -42,6 -67,7 -57,1 -97,-7 -119,-25 -21,-18 -33,-49 -34,-91l-8 -323c-20,4 -41,8 -62,11 -21,3 -43,4 -66,5 -44,1 -92,-3 -145,-14 -53,-10 -100,-28 -140,-54 -23,15 -47,27 -73,37 -26,10 -54,17 -84,22 41,65 92,121 155,166 63,45 124,80 185,103 1,48 -12,89 -39,124 -27,36 -70,54 -127,55 -38,1 -76,-7 -115,-25 -38,-17 -75,-45 -111,-81 -35,-37 -68,-83 -99,-137 -31,-54 -57,-117 -78,-188 -40,-4 -68,-16 -85,-38 -17,-21 -26,-48 -27,-81 0,-21 3,-42 10,-61 7,-20 17,-37 29,-51 16,4 37,6 61,7 24,1 49,2 74,1 69,-2 120,-19 152,-51 32,-32 48,-73 47,-123 -1,-29 -6,-56 -16,-82 -9,-25 -21,-50 -35,-73l-369 10c-28,0 -49,-8 -60,-24 -12,-17 -18,-42 -19,-76 -1,-14 1,-30 3,-49 3,-19 7,-34 11,-45l1388 -37c52,-1 78,31 80,96 0,14 -1,31 -4,51 -4,20 -8,36 -12,47l-179 5zm-427 353c64,-2 121,-15 170,-40l-8 -306 -306 8c15,28 27,59 38,91 11,32 17,68 18,107 1,45 -6,89 -23,132 35,6 73,9 111,8zm1748 -200l-121 962c-15,2 -31,4 -50,5 -19,2 -41,1 -66,-2 -59,-8 -97,-22 -116,-43 -19,-22 -25,-54 -20,-96l39 -307 -313 -40c-39,103 -115,147 -229,132 -70,-9 -119,-32 -149,-69 -29,-37 -41,-78 -35,-124 5,-40 21,-77 48,-110l44 6c27,3 48,-2 65,-17 17,-14 27,-35 31,-64l42 -337 -193 -25c-29,-3 -48,-14 -57,-33 -9,-18 -11,-44 -7,-77 2,-14 5,-30 11,-48 5,-18 11,-33 17,-43l1201 151c51,7 72,42 64,107 -2,13 -5,30 -11,50 -6,19 -12,34 -20,44l-175 -22zm-608 274l300 38 43 -345 -300 -38 -43 345zm2017 145l-312 918c-13,-1 -29,-3 -49,-5 -19,-3 -41,-8 -65,-16 -54,-19 -89,-41 -104,-65 -14,-25 -15,-58 -1,-98l42 -125c-41,8 -85,9 -134,5 -48,-3 -100,-15 -156,-34 -102,-34 -183,-85 -245,-150 -62,-66 -101,-140 -117,-221 -7,-35 -11,-72 -11,-109 0,-37 4,-69 14,-96 5,-17 14,-29 26,-37 12,-8 30,-9 55,-3 52,11 100,18 145,20 46,3 86,1 123,-6 36,-7 66,-19 91,-38 25,-19 43,-44 54,-76 10,-31 10,-57 0,-78 -10,-21 -26,-36 -48,-43 -24,-9 -46,-8 -65,2 -19,10 -33,29 -43,56 -5,17 -8,31 -9,44 0,12 1,24 3,34 -15,9 -35,14 -59,14 -24,1 -49,-4 -77,-13 -19,-6 -36,-15 -51,-27 -15,-12 -27,-26 -37,-44 -9,-17 -14,-37 -15,-59 -1,-23 3,-48 13,-75 10,-32 28,-61 52,-86 25,-24 54,-43 89,-56 35,-13 75,-19 120,-19 46,1 95,10 147,27 53,19 98,42 134,72 37,29 64,63 83,99 18,37 28,77 30,119 1,42 -5,85 -20,129 -17,49 -41,88 -74,120 -32,31 -70,56 -113,73 -43,18 -91,29 -143,32 -52,4 -105,1 -159,-6 4,41 24,81 59,120 35,39 85,69 149,91 49,17 98,24 144,22 47,-3 88,-13 122,-30l199 -584c7,-20 18,-35 34,-44 17,-9 34,-10 53,-3l303 102c48,17 62,56 41,118 -4,13 -11,28 -21,46 -10,18 -20,31 -28,40l-169 -57zm-186 -258c-24,-43 -38,-90 -42,-141 -3,-52 3,-101 19,-147 13,-40 33,-75 57,-103 25,-29 55,-50 89,-65 34,-15 71,-23 111,-24 40,-1 83,6 128,22 72,24 118,53 136,87 18,34 21,69 9,105 -12,35 -30,59 -55,72 -11,-9 -23,-17 -35,-24 -12,-6 -27,-13 -43,-18 -37,-13 -73,-11 -107,4 -34,16 -59,46 -74,91 -13,37 -16,73 -11,109 6,37 15,71 28,103l-210 -71zm1266 760l-83 163c33,-3 67,-1 103,6 37,7 76,22 119,43 43,23 80,51 111,85 32,34 54,72 69,114 14,42 20,87 16,135 -3,48 -18,98 -44,149 -26,50 -57,91 -93,122 -36,30 -74,52 -114,65 -40,12 -81,16 -123,12 -42,-5 -82,-17 -120,-36 -98,-50 -128,-113 -89,-189 8,-16 17,-29 29,-40 11,-11 23,-21 35,-29 13,11 28,21 46,30 34,17 68,21 102,12 35,-9 63,-34 85,-77 20,-39 23,-76 10,-112 -14,-35 -42,-64 -84,-86 -28,-14 -55,-21 -81,-22 -27,-1 -51,2 -75,10l-260 509c-13,-3 -28,-6 -47,-12 -19,-5 -40,-14 -62,-25 -52,-26 -83,-53 -94,-80 -11,-26 -7,-59 13,-97l43 -85c-32,3 -67,1 -105,-6 -38,-7 -78,-22 -120,-44 -43,-21 -80,-49 -111,-82 -31,-34 -55,-72 -71,-114 -15,-43 -22,-89 -19,-138 3,-49 18,-101 45,-154 26,-50 57,-91 93,-120 36,-30 75,-51 115,-63 41,-12 82,-15 125,-10 42,5 83,17 122,37 55,28 89,59 104,93 15,34 13,69 -5,105 -16,32 -39,56 -67,69 -6,-6 -13,-12 -21,-19 -7,-6 -18,-13 -34,-21 -36,-19 -71,-23 -106,-15 -36,9 -64,34 -85,75 -20,39 -23,77 -10,113 14,37 42,66 85,88 31,16 60,24 88,25 28,1 53,-3 75,-11l252 -494 -572 -292c-26,-13 -40,-30 -42,-50 -2,-20 4,-45 19,-75 7,-13 16,-27 27,-42 11,-15 22,-27 31,-34l1419 724c45,23 53,63 23,121 -6,12 -15,27 -27,43 -12,16 -23,28 -34,35l-606 -309z"/>
  <path class="fil19" d="M12767 1473l0 0c-3,-52 3,-101 19,-147 13,-40 33,-75 57,-103 25,-29 55,-50 89,-65 34,-15 71,-23 111,-24 40,-1 83,6 128,22 72,24 118,53 136,87 16,30 20,61 13,92 -3,-11 -7,-23 -13,-34 -18,-34 -64,-63 -136,-87 -45,-16 -88,-23 -128,-22 -40,1 -77,9 -111,24 -34,15 -64,36 -89,65 -24,28 -44,63 -57,103 -10,29 -16,59 -19,89zm223 105l1 4c5,32 12,61 22,89l159 54c44,15 59,48 47,100 -7,-20 -23,-33 -47,-42l-159 -53c-10,-29 -17,-58 -22,-89 -3,-21 -3,-42 -1,-63zm-532 1108c-7,-22 -5,-49 6,-80l21 -63c7,-1 14,-2 21,-4l-42 125c-3,8 -5,15 -6,22zm-614 -683c-1,-10 -1,-21 -1,-31 0,-37 4,-69 14,-96 5,-17 14,-29 26,-37 12,-8 30,-9 55,-3 52,11 100,18 145,20 46,3 86,1 123,-6 36,-7 66,-19 91,-38 25,-19 43,-44 54,-76 1,-4 2,-8 3,-13 7,20 6,44 -3,71 -11,32 -29,57 -54,76 -25,19 -55,32 -91,38 -37,7 -77,9 -123,7 -45,-3 -93,-10 -145,-21 -25,-6 -43,-5 -55,3 -12,8 -21,20 -26,37 -7,20 -12,43 -13,69zm108 -359c-1,-7 -2,-14 -2,-22 -1,-23 3,-48 13,-75 10,-32 28,-61 52,-86 25,-24 54,-43 89,-56 35,-13 75,-19 120,-19 46,1 95,10 147,27 53,19 98,42 134,72 37,29 64,63 83,99 18,37 28,77 30,119 0,13 0,27 -1,41 -4,-36 -13,-70 -29,-102 -19,-36 -46,-69 -83,-99 -36,-29 -81,-53 -134,-71 -52,-18 -101,-27 -147,-27 -45,-1 -85,6 -120,18 -35,13 -64,32 -89,56 -24,25 -42,54 -52,86 -5,13 -8,27 -11,39zm175 467c10,20 23,40 41,60 35,39 85,69 149,91 49,17 98,24 144,22 47,-3 88,-13 122,-30l199 -584c3,-10 8,-18 13,-25 4,9 9,18 14,27l20 7c-4,1 -8,3 -13,5 -16,9 -27,24 -34,44l-199 584c-34,17 -75,27 -122,30 -46,2 -95,-5 -144,-22 -64,-21 -114,-52 -149,-91 -35,-39 -55,-79 -59,-120l18 2zm-5560 -90l417 818c-6,5 -13,11 -20,18l-421 -824 24 -12zm-479 245l418 817c-6,6 -13,12 -21,18l-420 -823 23 -12zm-261 758c0,9 -1,17 -2,26 -1,-8 -3,-15 -4,-23l6 -3zm-405 66c-3,-18 -4,-37 -3,-57l42 -21c20,-11 34,-25 42,-42 6,18 7,35 2,51 -6,21 -21,37 -44,49l-39 20zm-378 -464c-2,-10 -3,-21 -3,-32 1,-25 7,-49 20,-72 12,-23 29,-44 51,-64 22,-20 48,-38 79,-53 90,-46 169,-62 238,-47 69,15 123,60 161,136l146 284 226 -115 23 46 -249 127 -146 -284c-38,-76 -92,-121 -161,-136 -69,-15 -148,1 -238,47 -31,16 -57,33 -79,53 -22,20 -39,41 -51,64 -8,15 -14,30 -17,46zm555 -330l-2 -6c-6,-18 -9,-33 -10,-46l467 -238 29 -15 2 -1 476 -243c46,-24 84,-6 113,52 6,12 12,28 18,47 6,20 9,36 8,49l-9 5c-5,-18 -11,-32 -17,-43 -29,-58 -67,-76 -113,-52l-476 243 -2 1 -29 15 -455 232zm2197 -665l250 878 -14 9 -252 -883 16 -4zm-1065 100l-1 -11c-2,-19 -2,-35 -1,-47l1085 -309 29 -8 2 -1 516 -147c50,-14 83,10 101,73 4,13 7,30 8,50 2,19 2,35 -1,47 -2,-15 -4,-28 -7,-39 -18,-62 -51,-87 -101,-73l-516 147 -2 1 -29 8 -1083 309zm1583 -248l251 878 -14 9 -252 -883 15 -4zm-820 658c31,-9 59,-22 84,-41 6,-4 12,-9 18,-14l36 15c-11,20 -29,39 -54,58 -25,18 -53,31 -84,40 -60,17 -110,15 -148,-5 -39,-21 -68,-68 -89,-140l-33 -118 18 8 15 52c21,72 50,118 89,139 38,21 88,23 148,6zm-205 -366l288 115 19 65 -392 -156 85 -24zm2978 -417l24 911 -2 1 -24 -912 2 0zm-786 550c34,44 73,82 119,115 63,45 124,80 185,103 0,20 -1,39 -6,56 -59,-23 -118,-57 -179,-101 -63,-45 -114,-101 -155,-166 12,-2 24,-4 36,-7zm-374 -128c-2,-8 -2,-16 -3,-25 0,-21 3,-42 10,-61 7,-20 17,-37 29,-51 16,4 37,6 61,7 24,1 49,2 74,1 69,-2 120,-19 152,-51 25,-25 40,-55 45,-90 1,8 1,16 2,25 1,50 -15,91 -47,123 -32,32 -83,49 -152,51 -25,1 -50,0 -74,-1 -24,-1 -45,-3 -61,-7 -12,14 -22,31 -29,51 -3,9 -6,18 -7,28zm-128 -524c0,-8 -1,-16 -1,-24 -1,-14 1,-30 3,-49 3,-19 7,-34 11,-45l1388 -37c52,-1 78,31 80,96 0,10 -1,21 -2,34 -7,-49 -33,-73 -78,-72l-1388 37c-4,11 -8,26 -11,45l-2 15zm859 397c64,-2 120,-15 169,-39l1 57c-49,25 -106,39 -170,40 -38,1 -76,-2 -111,-8 7,-18 13,-37 16,-55 31,4 62,6 95,5zm-118 -281c4,11 8,22 12,34 11,32 17,68 18,107 0,12 0,25 -1,37 -2,-31 -8,-59 -17,-86 -11,-32 -23,-63 -38,-91l26 -1zm1493 961c-3,-16 -3,-34 0,-54l31 -250 8 1 -39 303zm-686 -412c-3,-16 -3,-33 -1,-50 5,-40 21,-77 48,-110l44 6c27,3 48,-2 65,-17 17,-14 27,-35 31,-64l35 -280 7 1 -42 337c-4,29 -14,50 -31,64 -17,15 -38,20 -65,17l-44 -6c-26,31 -41,65 -47,102zm-28 -651c-3,-15 -3,-34 0,-56 2,-14 5,-30 11,-48 5,-18 11,-33 17,-43l1201 151c51,7 72,42 64,107l-1 6c-7,-32 -28,-50 -63,-55l-1201 -151c-6,10 -12,25 -17,43 -5,17 -9,33 -11,46zm486 458l293 37 36 -288 7 1 -43 345 -300 -38 7 -57zm3037 807c24,0 48,3 73,8 37,7 76,22 119,43 43,23 80,51 111,85 32,34 54,72 69,114 14,42 20,87 16,135l0 2c-2,-28 -7,-54 -16,-79 -15,-42 -37,-80 -69,-114 -31,-34 -68,-62 -111,-85 -43,-21 -82,-36 -119,-43 -36,-7 -70,-9 -103,-6l30 -60zm-208 597c-8,-27 -4,-57 13,-89 8,-16 17,-29 29,-40 11,-11 23,-21 35,-29 13,11 28,21 46,30 34,17 68,21 102,12 35,-9 63,-34 85,-77 7,-13 12,-26 15,-38 7,31 2,63 -15,96 -22,43 -50,69 -85,78 -34,8 -68,4 -102,-13 -18,-9 -33,-19 -46,-29 -12,7 -24,17 -35,28 -12,11 -21,24 -29,40 -6,11 -10,21 -13,31zm-384 -14c-9,-26 -5,-57 14,-94l13 -25c10,0 20,-1 30,-2l-43 86c-7,12 -11,24 -14,35zm-368 -513c-2,-16 -2,-33 -1,-50 3,-49 18,-101 45,-154 26,-50 57,-91 93,-120 36,-30 75,-51 115,-63 41,-12 82,-15 125,-10 42,5 83,17 122,37 55,28 89,59 104,93 11,25 13,50 6,76 -1,-6 -3,-12 -6,-18 -15,-34 -49,-65 -104,-93 -39,-20 -80,-32 -122,-37 -43,-5 -84,-2 -125,10 -40,12 -79,33 -115,63 -36,30 -67,70 -93,120 -26,51 -41,99 -44,146zm270 24c2,6 3,11 5,16 14,37 42,66 85,88 31,16 60,24 88,25 28,1 53,-3 75,-11l229 -448 23 12 -252 494c-22,8 -47,12 -75,11 -28,-1 -57,-9 -88,-25 -43,-22 -71,-51 -85,-87 -9,-25 -10,-50 -5,-75zm-104 -701c-3,-5 -4,-11 -5,-17 -2,-20 4,-45 19,-75 7,-13 16,-27 27,-42 11,-15 22,-27 31,-34l1419 724c37,19 49,49 35,92 -6,-14 -18,-25 -35,-34l-1419 -724c-9,7 -20,19 -31,34 -11,16 -20,29 -27,42 -6,12 -11,23 -14,34z"/>
  <path class="fil17" d="M6315 17366l-394 662c-20,-3 -42,-12 -67,-27 -30,-19 -49,-36 -55,-54 -6,-18 -2,-38 12,-61l57 -95c-30,4 -61,2 -93,-5 -33,-7 -68,-21 -105,-43 -33,-20 -62,-43 -87,-69 -24,-26 -44,-54 -57,-84 -14,-30 -21,-61 -23,-94 -1,-33 5,-67 19,-101 -8,-3 -15,-6 -23,-11 -7,-4 -15,-8 -22,-13 -33,-19 -64,-43 -95,-72 -31,-28 -55,-59 -73,-94 -46,2 -93,-8 -140,-29 -3,33 -2,65 2,97 3,32 9,63 19,93 9,30 20,59 33,86 13,28 27,53 43,76 -16,26 -36,43 -61,53 -26,9 -54,5 -85,-13 -24,-14 -45,-37 -62,-66 -17,-30 -29,-66 -37,-107 -8,-41 -10,-86 -7,-135 2,-49 11,-100 25,-152 -23,-17 -36,-35 -39,-53 -4,-19 0,-38 11,-57 7,-12 16,-21 26,-30 11,-8 22,-15 34,-19 8,9 20,18 34,29 15,11 30,21 47,31 50,30 95,41 134,33 38,-8 69,-31 92,-71 14,-22 23,-46 27,-70 5,-25 6,-50 5,-73l-257 -153c-30,-18 -34,-45 -12,-83 4,-7 11,-16 18,-25 8,-10 16,-17 23,-21l1287 764c17,10 25,22 27,35 1,13 -4,29 -15,47 -4,7 -11,16 -19,26 -8,10 -15,17 -21,23l-126 -75zm-794 -129c29,17 57,30 84,38 43,-37 94,-57 151,-59 57,-2 114,14 171,48 43,25 70,51 82,78 12,27 12,52 -2,74 -5,9 -12,18 -21,25 -9,8 -18,14 -26,18 -7,-9 -16,-18 -28,-28 -11,-11 -24,-20 -37,-28 -45,-26 -85,-35 -120,-27 -35,9 -62,30 -82,64 -22,37 -27,72 -14,107 13,35 40,64 83,90 35,20 69,31 102,31 34,0 63,-5 86,-16l221 -372 -614 -365c0,26 -3,53 -8,81 -6,27 -17,55 -34,84 -22,36 -50,66 -85,88 27,26 57,49 91,69zm1911 572l-289 717c-8,-2 -18,-3 -30,-6 -12,-2 -26,-6 -40,-12 -33,-13 -54,-28 -63,-45 -9,-16 -8,-37 2,-62l264 -655 -166 -67c-15,52 -31,99 -46,142 -15,44 -32,88 -51,134 -17,42 -38,76 -65,102 -26,26 -55,45 -86,56 -32,11 -66,15 -103,12 -37,-2 -75,-12 -114,-27 -38,-16 -72,-35 -100,-58 -28,-23 -50,-49 -66,-79 -15,-30 -24,-63 -24,-101 -1,-37 8,-77 25,-120 19,-46 37,-90 56,-132 18,-42 39,-87 63,-135l-82 -33c-18,-8 -29,-18 -32,-30 -3,-13 -1,-30 8,-50 3,-8 8,-18 14,-28 6,-11 12,-19 18,-25l1051 424c33,13 41,40 25,79 -3,8 -8,18 -15,29 -6,11 -13,19 -19,25l-135 -55zm-734 159c32,14 61,14 87,3 26,-12 47,-36 62,-74l113 -278 -209 -85 -113 279c-15,38 -17,70 -6,96 12,27 33,46 66,59zm623 -330c-15,-32 -25,-67 -27,-106 -3,-39 3,-78 18,-116 23,-56 60,-95 112,-115 51,-20 108,-18 171,7 48,20 77,41 89,64 11,23 13,46 3,69 -8,21 -21,36 -39,45 -7,-7 -15,-13 -25,-19 -9,-6 -20,-11 -32,-16 -27,-11 -54,-12 -82,-2 -27,10 -48,32 -62,66 -11,29 -15,58 -13,89 3,30 10,60 22,88l-135 -54zm1663 478l-92 767c-7,1 -18,2 -30,3 -12,1 -26,1 -41,-1 -36,-4 -60,-13 -72,-27 -13,-14 -18,-34 -14,-61l17 -148c-28,18 -60,30 -95,37 -35,6 -74,7 -119,1 -71,-8 -131,-30 -182,-66 -50,-35 -88,-79 -113,-131 -15,-29 -25,-59 -31,-91 -6,-32 -8,-59 -5,-81 1,-13 5,-23 11,-31 5,-8 15,-13 29,-13 61,3 107,-5 137,-24 30,-18 47,-46 51,-82 3,-27 -1,-51 -12,-72 -11,-21 -28,-38 -49,-52l-183 -22c-35,-4 -50,-28 -45,-71 1,-9 4,-19 7,-31 3,-12 7,-21 12,-28l937 111c20,2 32,9 39,21 6,11 8,27 6,49 -1,8 -4,19 -7,31 -3,12 -7,22 -11,29l-145 -17zm-412 435c43,5 82,2 115,-10 34,-12 62,-28 83,-47l48 -398 -263 -31c16,18 29,39 40,63 10,25 14,52 11,81 -4,29 -12,55 -26,76 -13,22 -30,40 -51,54 -20,15 -44,26 -71,33 -26,7 -55,11 -85,12 9,41 29,77 61,109 33,32 79,51 138,58zm805 -388l-91 767c-9,1 -19,2 -31,3 -12,1 -26,0 -42,-2 -36,-4 -60,-13 -72,-26 -13,-14 -18,-34 -14,-61l83 -701 -108 -13c-19,-2 -32,-9 -39,-21 -6,-11 -8,-28 -5,-50 1,-9 3,-19 6,-31 3,-11 7,-21 11,-28l153 18c-13,-34 -30,-66 -53,-96 -22,-29 -46,-57 -73,-82 -27,-25 -54,-47 -83,-65 -29,-19 -55,-33 -80,-43 -1,-4 -1,-8 -1,-12 1,-3 1,-8 2,-13 3,-27 14,-51 32,-69 17,-18 42,-26 74,-22 32,4 64,18 99,43 34,25 65,57 95,96 30,38 56,82 80,131 24,48 42,98 53,149l123 15c34,4 49,27 44,69 -1,9 -3,19 -7,32 -4,12 -8,22 -12,29l-144 -17zm798 19l-26 772c-8,2 -18,4 -30,6 -12,2 -26,2 -41,2 -36,-1 -61,-8 -75,-21 -14,-12 -21,-32 -20,-59l24 -705 -251 -9c20,34 36,73 49,117 12,45 18,92 16,142 -1,48 -9,90 -23,126 -14,36 -32,67 -55,90 -22,24 -49,42 -79,54 -31,11 -63,16 -97,15 -36,-1 -65,-10 -85,-27 -20,-16 -30,-38 -29,-67 1,-23 6,-44 17,-64 14,3 27,5 39,5 40,2 73,-12 99,-40 26,-28 40,-75 42,-139 1,-43 -4,-83 -16,-120 -13,-37 -28,-70 -47,-98l-159 -5c-35,-1 -52,-23 -50,-67 0,-9 1,-19 4,-31 2,-12 5,-22 9,-30l891 31c35,1 52,23 50,65 0,9 -1,19 -4,32 -2,12 -5,22 -9,30l-144 -5zm879 -90l23 194c3,22 -1,39 -10,50 -9,12 -27,19 -52,22l-168 20c-56,7 -100,26 -133,57 -33,32 -46,75 -39,130 3,27 10,51 23,71 12,21 27,37 45,50 18,13 39,22 62,27 23,6 47,7 72,4 34,-5 59,-13 75,-27 15,-13 21,-34 18,-62 -1,-12 -4,-23 -8,-36 -4,-12 -8,-23 -12,-33 8,-12 19,-22 34,-30 15,-8 32,-13 51,-16 16,-1 31,-1 47,3 15,4 29,10 42,19 13,9 24,21 32,36 9,14 14,32 17,53 3,28 0,54 -10,77 -10,23 -23,42 -38,58 24,34 49,64 75,91 26,27 50,49 72,68 -1,26 -9,47 -26,65 -16,17 -38,28 -65,31 -31,3 -57,-3 -78,-21 -21,-17 -39,-44 -54,-79l-38 -92c-14,6 -30,13 -48,19 -18,6 -40,10 -68,14 -48,5 -95,4 -139,-4 -44,-9 -84,-24 -120,-46 -36,-22 -66,-52 -89,-89 -23,-37 -38,-81 -44,-133 -5,-43 -3,-83 7,-121 9,-38 27,-72 52,-102 25,-30 58,-55 98,-75 39,-21 88,-34 145,-41l96 -11 -14 -121 -496 58c-35,5 -55,-15 -60,-58 -1,-9 -1,-19 -1,-32 1,-12 3,-22 6,-30l828 -99c35,-4 55,15 60,58 1,8 1,19 0,32 -1,13 -2,23 -4,31l-166 20zm408 -49l91 767c-8,3 -18,6 -29,10 -12,4 -25,7 -42,9 -35,4 -61,1 -76,-9 -16,-11 -25,-29 -28,-56l-83 -701 -108 13c-20,2 -34,-2 -43,-11 -9,-10 -14,-26 -17,-48 -1,-8 -1,-19 -1,-31 1,-12 2,-23 4,-31l421 -50c34,-4 54,15 59,58 1,8 1,19 0,32 0,13 -2,23 -4,31l-144 17zm722 -183l173 753c-7,4 -16,8 -27,13 -11,5 -25,10 -40,13 -35,8 -60,8 -77,-1 -16,-9 -27,-26 -33,-52l-75 -324 -232 53c-18,4 -31,12 -39,23 -8,11 -9,28 -4,50l15 65c-10,8 -20,15 -31,22 -11,6 -23,11 -37,14 -32,8 -63,2 -92,-15 -30,-17 -51,-49 -61,-95 -10,-45 -4,-82 18,-113 22,-30 58,-51 107,-62l325 -75 -53 -231 -531 122c-34,8 -55,-9 -65,-51 -2,-9 -4,-19 -4,-32 -1,-12 -1,-22 1,-30l837 -193c34,-8 55,9 65,50 2,9 3,19 3,32 1,13 1,23 0,31l-143 33zm839 -302l64 159c14,-22 32,-43 55,-62 23,-20 52,-36 87,-50 36,-15 72,-22 107,-23 35,-1 68,5 99,18 32,12 60,31 84,57 25,25 46,57 61,96 16,39 24,77 23,113 -1,35 -8,68 -21,97 -13,30 -32,55 -56,78 -25,22 -52,39 -82,52 -71,28 -117,17 -138,-34 -4,-11 -7,-21 -8,-32 -1,-10 -1,-20 1,-28 7,-1 15,-2 23,-5 8,-3 16,-6 23,-9 34,-14 59,-35 74,-65 15,-29 15,-64 -1,-105 -15,-36 -38,-60 -70,-73 -32,-13 -68,-11 -108,6 -25,10 -46,24 -62,43 -17,20 -29,40 -37,61l171 422c-8,5 -16,11 -26,18 -10,6 -22,13 -36,18 -35,14 -60,18 -78,12 -17,-6 -31,-21 -41,-47l-41 -101c-14,23 -33,44 -56,63 -24,19 -54,37 -91,51 -33,14 -67,21 -103,23 -35,2 -68,-3 -100,-15 -32,-11 -62,-30 -89,-56 -27,-25 -49,-59 -66,-101 -15,-39 -23,-76 -22,-111 2,-34 9,-66 23,-95 14,-30 33,-55 57,-78 24,-22 52,-40 84,-52 43,-18 77,-23 102,-16 26,7 43,22 52,46 9,22 11,44 4,64 -10,1 -19,2 -28,4 -9,1 -19,4 -32,9 -36,15 -61,37 -77,67 -15,29 -15,63 1,102 15,37 39,61 71,74 33,12 69,10 110,-6 31,-13 55,-29 72,-50 16,-20 27,-40 32,-60l-168 -416 -473 191c-33,14 -57,0 -73,-41 -4,-8 -7,-18 -9,-30 -3,-11 -4,-22 -3,-30l1117 -451c32,-14 56,0 72,39 4,8 7,18 10,31 3,12 4,23 3,31l-487 197zm1215 -616l390 666c-6,6 -14,13 -23,22 -10,8 -21,16 -34,24 -31,18 -56,25 -74,22 -18,-4 -34,-17 -48,-40l-199 -341c-22,7 -43,14 -64,23 -21,8 -42,18 -63,31 -52,30 -87,67 -106,111 -19,45 -13,94 19,148 27,45 60,79 102,101 41,23 83,39 126,50 4,20 2,40 -5,59 -8,19 -22,34 -44,47 -21,12 -46,17 -75,13 -30,-3 -60,-13 -91,-29 -32,-16 -62,-38 -92,-65 -29,-28 -55,-59 -76,-95 -26,-45 -41,-88 -46,-129 -6,-42 -2,-82 11,-120 13,-38 35,-73 65,-106 30,-33 68,-62 113,-89 26,-15 52,-28 80,-40 27,-12 52,-23 75,-30l-86 -148 -501 293c-17,10 -31,12 -44,7 -12,-6 -23,-18 -34,-37 -5,-8 -9,-17 -14,-28 -4,-12 -7,-22 -9,-30l774 -452c30,-18 55,-8 77,28 4,8 9,18 13,30 4,12 7,22 8,30l-125 74zm341 -200l390 667c-6,6 -14,13 -23,21 -9,8 -20,16 -34,24 -31,18 -56,26 -74,22 -18,-3 -34,-17 -48,-40l-356 -609 -94 55c-17,10 -31,12 -43,7 -12,-5 -24,-18 -35,-37 -5,-7 -9,-17 -14,-28 -4,-12 -7,-21 -8,-30l131 -77c-32,-7 -64,-22 -94,-43 -29,-21 -54,-49 -74,-82 -30,-53 -38,-106 -23,-159 16,-53 53,-97 111,-131 44,-26 79,-37 104,-32 26,5 45,18 57,40 12,19 16,39 13,58 -11,2 -21,4 -31,8 -10,4 -21,9 -33,16 -25,15 -42,36 -51,64 -9,27 -4,57 14,89 14,24 33,44 57,61 24,16 49,29 77,37l107 -63c31,-17 56,-8 78,29 4,7 9,17 13,29 4,12 7,23 8,31l-125 73z"/>
  <path class="fil20" d="M7316 17568c-12,-28 -20,-60 -22,-94 -3,-40 3,-78 18,-116 23,-56 60,-95 112,-115 51,-21 108,-18 171,7 48,19 77,41 89,64 11,22 13,46 3,69 -8,21 -21,36 -39,45 -7,-7 -15,-13 -25,-19 -9,-6 -20,-11 -32,-16 -27,-11 -54,-12 -82,-2 -27,10 -48,32 -62,66 -11,29 -15,58 -13,89 3,26 9,52 18,77l124 50c33,13 41,40 25,79 -3,8 -8,18 -15,29 -6,11 -13,19 -19,25l-135 -55 -289 716c-8,-1 -18,-2 -30,-5 -12,-2 -26,-6 -40,-12 -33,-13 -54,-28 -63,-45 -9,-16 -8,-37 2,-63l264 -654 -166 -67c-15,52 -31,99 -46,142 -15,44 -32,88 -51,134 -17,42 -38,76 -65,102 -26,26 -55,45 -86,56 -32,11 -66,15 -103,12 -37,-3 -75,-12 -114,-27 -38,-16 -72,-35 -100,-58 -28,-23 -50,-49 -66,-79 -15,-30 -24,-64 -24,-101 -1,-37 8,-77 25,-120 19,-46 37,-90 56,-132 18,-42 39,-87 63,-135l-82 -33c-18,-8 -29,-18 -32,-30 -2,-7 -2,-15 0,-24l-4 6c-4,7 -11,16 -19,26 -8,10 -15,17 -21,22l-126 -74 -394 662c-20,-3 -42,-13 -67,-27 -30,-19 -49,-37 -55,-54 -6,-18 -2,-38 12,-61l57 -95c-30,4 -61,2 -93,-5 -33,-7 -68,-21 -105,-44 -33,-19 -62,-42 -87,-68 -24,-26 -44,-54 -57,-84 -14,-30 -21,-61 -23,-94 -1,-33 5,-67 19,-101 -8,-3 -15,-6 -23,-11 -7,-4 -15,-8 -22,-13 -33,-19 -64,-43 -95,-72 -31,-28 -55,-59 -73,-94 -46,2 -93,-8 -140,-29 -3,33 -2,65 2,97 3,32 9,63 19,93 9,30 20,59 33,86 13,28 27,53 43,76 -16,25 -36,43 -61,53 -26,9 -54,5 -85,-13 -24,-15 -45,-37 -62,-67 -17,-29 -29,-65 -37,-106 -8,-41 -10,-86 -7,-135 2,-49 11,-100 25,-153 -23,-16 -36,-34 -39,-53 -4,-18 0,-37 11,-56 7,-12 16,-22 26,-30 11,-8 22,-15 34,-19 8,8 20,18 34,29 15,11 30,21 47,31 50,30 95,41 134,33 38,-8 69,-32 92,-71 14,-22 23,-46 27,-71 5,-24 6,-49 5,-72l-257 -153c-30,-18 -34,-45 -12,-83 4,-7 11,-16 18,-25 8,-10 16,-17 23,-21l1287 764c17,10 25,22 27,35 0,2 0,5 0,7 3,-6 6,-13 11,-20 6,-11 12,-19 18,-25l791 319zm7263 -884l390 667c-6,6 -14,13 -23,21 -9,8 -20,16 -34,24 -31,18 -56,25 -74,22 -18,-3 -34,-17 -48,-40l-356 -609 -71 41 -23 14 -1 0 -1 1 -100 58 390 667c-6,6 -14,13 -23,21 -10,9 -21,17 -34,25 -31,18 -56,25 -74,22 -18,-4 -34,-17 -48,-40l-199 -341c-22,7 -43,14 -64,23 -21,8 -42,18 -63,31 -52,30 -87,67 -106,111 -19,45 -13,94 19,148 27,45 60,79 102,101 41,23 83,39 126,50 4,20 2,40 -5,59 -8,18 -22,34 -44,47 -21,12 -46,17 -75,13 -30,-3 -60,-13 -91,-29 -32,-16 -62,-38 -92,-65 -29,-28 -55,-60 -76,-95 -26,-45 -41,-88 -46,-129 -6,-42 -2,-82 11,-120 13,-38 35,-73 65,-106 30,-33 68,-62 113,-89 26,-15 52,-29 80,-41 27,-12 52,-22 75,-30l-86 -148 -501 294c-17,10 -31,12 -44,7 -12,-6 -23,-18 -34,-37 -5,-8 -9,-17 -14,-29 -4,-11 -7,-21 -9,-29l749 -438 25 -14 1 -1 105 -62c-32,-7 -64,-22 -94,-43 -29,-22 -54,-49 -74,-82 -30,-53 -38,-106 -23,-159 16,-53 53,-97 111,-131 44,-26 79,-37 104,-32 26,5 45,18 57,40 12,19 16,39 13,58 -11,2 -21,4 -31,8 -10,4 -21,9 -33,16 -25,15 -42,36 -51,64 -9,27 -4,57 14,89 14,24 33,44 57,61 24,16 49,29 77,37l107 -63c31,-17 56,-8 78,29 4,7 9,17 13,29 4,12 7,22 8,31l-125 73zm-4404 1440l-26 772c-8,2 -18,4 -30,6 -12,2 -26,2 -41,2 -36,-1 -61,-8 -75,-21 -14,-12 -21,-32 -20,-59l24 -706 -251 -8c20,34 36,73 49,117 12,45 18,92 16,142 -1,48 -9,90 -23,126 -14,36 -32,66 -55,90 -22,24 -49,42 -79,54 -31,11 -63,16 -97,15 -36,-1 -65,-10 -85,-27 -20,-16 -30,-39 -29,-67 1,-23 6,-45 17,-64 14,3 27,5 39,5 40,2 73,-12 99,-40 26,-28 40,-75 42,-140 1,-42 -4,-82 -16,-119 -13,-37 -28,-70 -47,-98l-57 -2c-3,8 -6,15 -9,20l-144 -17 -91 767c-9,1 -19,2 -31,3 -12,1 -26,0 -42,-2 -36,-4 -60,-13 -72,-27 -13,-13 -18,-34 -14,-60l83 -701 -81 -10 -27 -3 -1 0 -1 0 -1 0 -115 -14 -92 767c-7,1 -18,2 -30,3 -12,1 -26,0 -41,-1 -36,-5 -60,-13 -72,-27 -13,-14 -18,-34 -14,-61l17 -149c-28,19 -60,31 -95,37 -35,7 -74,8 -119,2 -71,-8 -131,-30 -182,-66 -50,-36 -88,-79 -113,-131 -15,-29 -25,-60 -31,-91 -6,-32 -8,-59 -5,-81 1,-13 5,-23 11,-31 5,-8 15,-13 29,-13 61,2 107,-6 137,-24 30,-18 47,-46 51,-82 3,-27 -1,-51 -12,-72 -11,-21 -28,-38 -49,-53l-183 -21c-35,-4 -50,-28 -45,-71 1,-9 4,-19 7,-31 3,-12 7,-21 12,-28l910 108 27 3 1 0 1 0 1 0 123 15c-13,-34 -30,-66 -53,-96 -22,-30 -46,-57 -73,-82 -27,-25 -54,-47 -83,-66 -29,-18 -55,-32 -80,-42 -1,-4 -1,-8 -1,-12 1,-4 1,-8 2,-13 3,-28 14,-51 32,-69 17,-18 42,-26 74,-22 32,4 64,18 99,43 34,25 65,57 95,96 30,38 56,82 80,130 24,49 42,99 53,150l15 2c1,-3 2,-5 3,-8l891 30c27,1 42,14 48,38 0,-5 0,-11 0,-17 1,-12 3,-22 6,-30l794 -95 34 -4 2 0 2 0 252 -30c1,-5 1,-10 2,-15l837 -192c21,-5 37,-1 49,14 -1,-6 -1,-12 0,-17l1117 -452c32,-13 56,1 72,40 4,8 7,18 10,31 3,12 4,23 3,31l-487 197 64 159c14,-22 32,-43 55,-62 23,-20 52,-36 87,-50 36,-15 72,-22 107,-23 35,-1 68,5 99,18 32,12 60,31 84,56 25,26 46,58 61,97 16,39 24,77 23,112 -1,36 -8,69 -21,98 -13,29 -32,55 -56,78 -25,22 -52,39 -82,52 -71,28 -117,17 -138,-34 -4,-11 -7,-22 -8,-32 -1,-11 -1,-20 1,-28 7,-1 15,-2 23,-5 8,-3 16,-6 23,-9 34,-14 59,-35 74,-65 15,-30 15,-65 -1,-105 -15,-36 -38,-60 -70,-73 -32,-13 -68,-11 -108,5 -25,11 -46,25 -62,44 -17,19 -29,39 -37,61l171 422c-8,5 -16,11 -26,18 -10,6 -22,12 -36,18 -35,14 -60,18 -78,12 -17,-6 -31,-22 -41,-47l-41 -101c-14,23 -33,44 -56,63 -24,19 -54,37 -91,51 -33,14 -67,21 -103,23 -35,2 -68,-3 -100,-15 -32,-12 -62,-30 -89,-56 -27,-25 -49,-59 -66,-101 -15,-39 -23,-76 -22,-111 2,-35 9,-67 23,-96 14,-29 33,-54 57,-77 24,-22 52,-40 84,-52 43,-18 77,-23 102,-16 26,7 43,22 52,46 9,22 11,43 4,64 -10,1 -19,2 -28,3 -9,2 -19,5 -32,10 -36,15 -61,37 -77,66 -15,30 -15,64 1,103 15,36 39,61 71,74 33,12 69,10 110,-6 31,-13 55,-29 72,-50 16,-20 27,-40 32,-60l-168 -416 -473 191c-28,12 -50,3 -66,-25l0 9c1,13 1,23 0,31l-143 33 173 753c-7,4 -16,8 -27,13 -11,5 -25,9 -40,13 -35,8 -60,8 -77,-1 -16,-9 -27,-26 -33,-53l-75 -323 -232 53c-18,4 -31,12 -39,23 -8,11 -9,28 -4,49l15 66c-10,8 -20,15 -31,22 -11,6 -23,11 -37,14 -32,7 -63,2 -92,-15 -30,-17 -51,-49 -61,-96 -10,-44 -4,-81 18,-112 22,-30 58,-51 107,-62l325 -76 -53 -230 -410 95 -1 2c0,13 -2,23 -4,31l-144 17 91 767c-8,3 -18,6 -29,10 -12,4 -25,7 -42,9 -35,4 -61,1 -76,-9 -16,-11 -25,-29 -28,-56l-83 -701 -75 9 -33 4 -1 0 -1 0 -131 16 23 194c3,22 -1,39 -10,50 -9,12 -27,19 -52,22l-168 20c-56,7 -100,26 -133,57 -33,32 -46,75 -39,130 3,27 10,51 23,71 12,21 27,37 45,50 18,13 39,22 62,27 23,5 47,6 72,3 34,-4 59,-12 75,-26 15,-14 21,-34 18,-62 -1,-12 -4,-24 -8,-36 -4,-12 -8,-23 -12,-33 8,-12 19,-22 34,-30 15,-8 32,-13 51,-16 16,-1 31,-1 47,3 15,3 29,10 42,19 13,9 24,21 32,36 9,14 14,32 17,53 3,28 0,54 -10,77 -10,23 -23,42 -38,58 24,34 49,64 75,91 26,26 50,49 72,68 -1,25 -9,47 -26,65 -16,17 -38,27 -65,31 -31,3 -57,-4 -78,-21 -21,-18 -39,-44 -54,-79l-38 -92c-14,6 -30,13 -48,19 -18,6 -40,10 -68,14 -48,5 -95,4 -139,-4 -44,-9 -84,-24 -120,-46 -36,-22 -66,-52 -89,-89 -23,-37 -38,-82 -44,-133 -5,-43 -3,-83 7,-121 9,-38 27,-72 52,-102 25,-30 58,-55 98,-75 39,-21 88,-34 145,-41l96 -11 -14 -122 -496 59c-32,4 -52,-12 -58,-49l-1 4c0,9 -1,19 -4,32 -2,12 -5,22 -9,30l-144 -5zm-1603 369c43,5 82,2 115,-10 34,-12 62,-28 83,-47l48 -398 -263 -31c16,18 29,39 40,63 10,25 14,52 11,80 -4,30 -12,56 -26,77 -13,22 -30,39 -51,54 -20,15 -44,25 -71,33 -26,7 -55,11 -85,12 9,41 29,77 61,109 33,32 79,51 138,58zm-3051 -1314c29,17 57,30 84,38 43,-37 94,-57 151,-59 57,-2 114,14 171,48 43,25 70,51 82,78 12,27 12,52 -2,74 -5,9 -12,18 -21,25 -9,8 -18,14 -26,18 -7,-9 -16,-18 -28,-28 -11,-11 -24,-20 -37,-28 -45,-26 -85,-35 -120,-27 -35,9 -62,30 -82,64 -22,37 -27,72 -14,107 13,34 40,64 83,89 35,21 69,32 102,32 34,0 63,-5 86,-16l221 -372 -614 -365c0,26 -3,53 -8,81 -6,27 -17,55 -34,84 -22,36 -50,66 -85,88 27,26 57,49 91,69zm1177 731c32,13 61,14 87,3 26,-12 47,-36 62,-74l113 -279 -209 -84 -113 279c-15,38 -17,70 -6,96 12,27 33,46 66,59z"/>
  <path class="fil19" d="M9104 17945l106 13c6,13 13,27 18,41l-124 -15 -2 0 -937 -112c-5,7 -9,17 -12,29 -3,9 -5,18 -6,25 -2,-9 -2,-20 -1,-33 1,-9 4,-19 7,-31 3,-12 7,-21 12,-28l937 111 2 0zm-162 -270l-3 -1c-1,-4 -1,-8 -1,-12 1,-4 1,-8 2,-13 3,-28 14,-51 32,-69 17,-18 42,-26 74,-22 32,4 64,18 99,43 34,25 65,57 95,96 30,38 56,82 80,130 24,49 42,99 53,150l15 2c1,-3 2,-5 3,-8l891 30c27,1 42,14 48,38 0,-5 0,-11 0,-17 1,-12 3,-22 6,-30l828 -99 2 0 254 -30c1,-5 1,-10 2,-15l837 -192c21,-5 37,-1 49,14 -1,-6 -1,-12 0,-17l1117 -452c32,-13 56,1 72,40 4,8 7,18 10,31 3,12 4,23 3,31l-5 2c-2,-10 -5,-18 -8,-25 -16,-40 -40,-53 -72,-40l-1117 451c-1,5 -1,11 0,18 -12,-15 -28,-20 -49,-15l-837 193c-1,5 -1,9 -2,15l-254 30 -2 0 -828 99c-3,8 -5,18 -6,30 0,6 0,12 0,17 -6,-24 -21,-37 -48,-38l-891 -30c-1,2 -2,5 -3,8l-15 -2c-11,-51 -29,-101 -53,-150 -24,-48 -50,-92 -80,-131 -30,-38 -61,-70 -95,-95 -35,-25 -67,-39 -99,-43 -32,-4 -57,3 -74,22 -15,15 -25,34 -30,56zm4094 -142l51 126c14,-22 32,-43 55,-62 23,-20 52,-36 87,-50 36,-15 72,-22 107,-23 35,-1 68,5 99,18 32,12 60,31 84,56 25,26 46,58 61,97 16,39 24,77 23,112 0,6 0,11 -1,16 -2,-29 -9,-59 -22,-90 -15,-38 -36,-70 -61,-96 -24,-25 -52,-44 -84,-57 -31,-12 -64,-18 -99,-17 -35,0 -71,8 -107,22 -35,14 -64,31 -87,50 -23,20 -41,40 -55,63l-64 -159 13 -6zm264 447c-1,-4 -2,-7 -2,-11 -1,-11 -1,-20 1,-28 7,-1 15,-2 23,-5 8,-3 16,-6 23,-9 34,-14 59,-35 74,-65 5,-9 8,-18 10,-28 3,25 0,47 -10,67 -15,29 -40,51 -74,65 -7,3 -15,6 -23,8 -8,3 -15,5 -22,6zm-151 -166l163 402 -13 9 -158 -393c2,-6 5,-12 8,-18zm-585 182c-1,-9 -1,-17 -1,-26 2,-35 9,-67 23,-96 14,-29 33,-54 57,-77 24,-22 52,-40 84,-52 43,-18 77,-23 102,-16 26,7 43,22 52,46 8,20 10,39 6,57 -1,-6 -3,-12 -6,-19 -9,-23 -26,-38 -52,-45 -25,-7 -59,-2 -102,15 -32,13 -60,31 -84,53 -24,22 -43,48 -57,77 -12,26 -20,53 -22,83zm175 -11c2,12 5,23 10,36 15,36 39,61 71,74 33,12 69,10 110,-6 31,-13 55,-29 72,-50 10,-13 19,-26 25,-40l7 19c-5,20 -16,40 -32,60 -17,20 -41,37 -72,49 -41,17 -77,19 -110,6 -32,-12 -56,-37 -71,-74 -11,-26 -14,-51 -10,-74zm-547 -146l165 716 -8 4 -165 -718 8 -2zm-362 489l0 1 15 66 -8 6 -7 -33c-4,-16 -4,-30 0,-40zm-210 -27c-4,-36 3,-67 22,-93 22,-30 58,-51 107,-62l317 -74 8 37 -325 75c-49,12 -85,33 -107,63 -12,16 -19,34 -22,54zm-154 -278l87 729 -4 2 -87 -730 4 -1zm-407 49l18 156c2,12 1,22 -1,31l-22 -187 5 0zm-385 429l1 6c3,27 10,51 23,71 12,21 27,37 45,50 18,13 39,22 62,27 23,5 47,6 72,3 34,-4 59,-12 75,-26 9,-8 14,-18 17,-30l1 7c3,27 -3,48 -18,62 -16,13 -41,22 -75,26 -25,3 -49,2 -72,-3 -23,-5 -44,-14 -62,-27 -18,-13 -33,-30 -45,-50 -13,-21 -20,-44 -23,-71 -2,-16 -3,-31 -1,-45zm286 26c-3,-9 -7,-18 -10,-26 8,-12 19,-22 34,-30 15,-8 32,-13 51,-16 16,-1 31,-1 47,3 15,3 29,10 42,19 13,9 24,21 32,36 9,14 14,32 17,53 1,14 1,27 0,40l0 -1c-3,-21 -8,-39 -17,-54 -8,-14 -19,-26 -32,-35 -13,-10 -27,-16 -42,-19 -16,-4 -31,-5 -47,-3 -19,2 -36,8 -51,16 -10,5 -18,11 -24,17zm180 195c20,25 40,49 60,70 26,26 50,49 72,68 0,12 -2,23 -6,33 -20,-18 -42,-38 -66,-63 -26,-26 -51,-56 -75,-91 5,-5 10,-11 15,-17zm-639 -221c-2,-34 1,-66 9,-97 9,-38 27,-72 52,-102 25,-30 58,-55 98,-75 39,-21 88,-34 145,-41l92 -11 4 38 -96 12c-57,6 -106,20 -145,40 -40,21 -73,46 -98,76 -25,29 -43,63 -52,102 -5,19 -8,38 -9,58zm-517 341c-1,-6 -1,-12 -1,-18l22 -667 2 0 -23 685zm-207 -693c10,24 20,50 28,78 12,45 18,92 16,142l0 2c-1,-37 -7,-72 -16,-105 -13,-45 -29,-84 -49,-117l21 0zm-322 433c-2,-7 -2,-14 -2,-22 1,-23 6,-45 17,-64 14,3 27,5 39,5 40,2 73,-12 99,-40 25,-27 39,-72 42,-133 0,10 0,21 0,32 -2,65 -16,111 -42,140 -26,28 -59,41 -99,40 -12,0 -25,-2 -39,-6 -8,15 -13,31 -15,48zm-328 237c-2,-10 -2,-21 0,-33l78 -663 5 1 -83 695zm-392 -47c-2,-9 -2,-21 0,-33l12 -107 5 -3 -17 143zm-529 -471c-1,-15 -1,-29 1,-41 1,-13 5,-23 11,-31 5,-8 15,-13 29,-13 61,2 107,-6 137,-24 29,-18 46,-45 51,-80 1,12 1,24 0,36 -4,37 -21,64 -51,83 -30,18 -76,26 -137,24 -14,0 -24,4 -29,12 -6,8 -10,19 -11,31l-1 3zm366 192c43,5 82,2 115,-10 34,-12 62,-28 83,-47l43 -360 5 1 -48 398c-21,19 -49,34 -83,46 -33,12 -72,16 -115,11 -59,-7 -105,-27 -138,-58 -32,-32 -52,-68 -61,-109l12 -1c11,26 27,49 49,71 33,32 79,51 138,58zm13 -444c3,7 6,14 10,21 10,25 14,51 11,80 -2,-14 -6,-28 -11,-41 -11,-25 -24,-46 -40,-63l30 3zm-2785 -158l-1 -2c-6,-18 -2,-38 12,-61l32 -55c9,0 17,-1 25,-2l-57 95c-5,9 -9,17 -11,25zm-296 -442l-1 -11c-1,-22 2,-44 8,-67 3,2 7,3 11,4 -10,25 -16,50 -18,74zm-336 -272c0,12 1,25 3,38 3,32 9,63 19,93 9,30 20,59 33,86 13,28 27,53 43,76 -4,6 -9,13 -13,18 -11,-17 -21,-35 -30,-55 -13,-28 -24,-56 -33,-86 -10,-31 -16,-62 -19,-94 -3,-25 -4,-51 -3,-76zm-155 81c-1,-18 0,-37 1,-56 2,-39 8,-79 17,-120l8 6c-14,53 -23,103 -25,152l-1 18zm-12 -256l-1 -6c-4,-18 0,-37 11,-56 7,-12 16,-22 26,-30 11,-8 22,-15 34,-19 8,8 20,18 34,29 15,11 30,21 47,31 50,30 95,41 134,33 38,-8 69,-32 92,-71 14,-22 23,-46 27,-71 2,-11 4,-22 5,-33 1,23 0,47 -5,72 -4,25 -13,49 -27,71 -23,39 -54,63 -92,71 -39,8 -84,-3 -134,-33 -17,-10 -32,-21 -47,-31 -14,-11 -26,-21 -34,-29 -12,4 -23,10 -34,19 -10,8 -19,18 -26,30 -4,8 -8,15 -10,23zm130 -407c-8,-16 -4,-37 10,-61 4,-7 11,-16 18,-25 8,-10 16,-17 23,-21l1287 764c17,10 25,22 27,35 0,2 0,5 0,7 3,-6 6,-13 11,-20 6,-11 12,-19 18,-25l776 313c4,16 9,31 15,45l-791 -319c-6,6 -12,14 -18,24 -5,8 -8,15 -11,21 0,-2 0,-5 0,-7 -2,-14 -10,-25 -27,-35l-1287 -765c-7,5 -15,12 -23,22 -7,9 -14,17 -18,25 -5,8 -8,15 -10,22zm2163 879l0 0c-3,-40 3,-78 18,-116 23,-56 60,-95 112,-115 51,-21 108,-18 171,7 48,19 77,41 89,64 10,19 12,38 7,57 -2,-6 -4,-12 -7,-19 -12,-23 -41,-44 -89,-63 -63,-25 -120,-28 -171,-7 -52,20 -89,58 -112,115 -10,25 -16,51 -18,77zm141 73c2,26 8,51 17,76l124 50c29,12 38,33 29,65 -4,-11 -14,-20 -29,-26l-124 -50c-9,-25 -15,-51 -18,-78 -1,-12 -1,-25 1,-37zm-429 850c-5,-15 -3,-33 6,-55l250 -621 14 6 -264 654c-2,6 -4,11 -6,16zm-550 -579c-1,-5 -1,-10 -1,-16 -1,-37 8,-77 25,-120 19,-46 37,-90 56,-132 14,-33 30,-67 47,-103l16 7c-24,47 -45,92 -63,135 -19,42 -37,86 -56,131 -14,35 -22,67 -24,98zm-935 -639c29,17 57,30 84,38 43,-37 94,-57 151,-59 57,-2 114,14 171,48 43,25 70,51 82,78 9,20 11,38 6,56 -1,-6 -3,-11 -6,-17 -12,-27 -39,-53 -82,-78 -57,-35 -114,-51 -171,-48 -57,2 -108,21 -151,59 -27,-8 -55,-21 -84,-38 -34,-21 -64,-44 -91,-69 9,-6 17,-11 24,-18 21,18 43,33 67,48zm153 291c1,6 3,12 5,19 13,34 40,64 83,89 35,21 69,32 102,32 34,0 63,-5 86,-16l204 -343 17 10 -221 372c-23,11 -52,16 -86,16 -33,0 -67,-11 -102,-32 -43,-25 -70,-55 -83,-89 -7,-19 -9,-39 -5,-58zm1024 440c32,13 61,14 87,3 26,-12 47,-36 62,-74l99 -245 14 5 -113 279c-15,38 -36,62 -62,74 -26,11 -55,10 -87,-3 -33,-13 -54,-33 -66,-59 -7,-17 -9,-36 -5,-57 1,6 3,12 5,18 12,27 33,46 66,59zm7557 -998l373 638 -14 14 -376 -642 17 -10zm-247 562c3,24 13,49 28,76 27,45 60,79 102,101 41,23 83,39 126,50 3,14 3,27 0,40l0 -1c-43,-11 -85,-27 -126,-50 -42,-22 -75,-56 -102,-101 -24,-41 -33,-80 -28,-115zm-175 11c-3,-36 2,-70 13,-103 13,-38 35,-73 65,-106 30,-33 68,-62 113,-89 26,-15 52,-29 80,-41 20,-8 39,-16 57,-23l18 32c-23,8 -48,18 -75,30 -28,12 -54,26 -80,41 -45,26 -83,56 -113,89 -30,32 -52,68 -65,106 -7,21 -11,42 -13,64zm-331 -278l-2 -4c-4,-11 -7,-21 -9,-29l749 -438 89 -52c14,6 28,11 42,14l-131 77 -738 432zm672 -760c-3,-24 -1,-48 6,-72 16,-53 53,-97 111,-131 44,-26 79,-37 104,-32 26,5 45,18 57,40 12,19 16,39 13,58l-4 1c-2,-7 -5,-14 -9,-20 -12,-22 -31,-35 -57,-40 -25,-5 -60,5 -104,31 -58,35 -95,78 -111,132 -3,11 -5,22 -6,33zm174 -2c2,14 8,27 16,42 14,24 33,44 57,61 24,16 49,29 77,37l107 -63c31,-17 56,-8 78,29 4,7 9,17 13,29 4,12 7,22 8,31l-9 5c-4,-11 -8,-19 -12,-26 -22,-37 -47,-47 -78,-29l-107 63c-28,-9 -53,-21 -77,-38 -24,-16 -43,-36 -57,-61 -16,-28 -22,-55 -16,-80zm248 268l373 638 -15 13 -375 -641 17 -10z"/>
  <g id="_1034912384">
   <path class="fil21" d="M13668 10388l0 546c-6,2 -13,3 -21,5 -8,2 -18,2 -30,2 -25,0 -43,-4 -53,-12 -10,-9 -15,-23 -15,-42l0 -499 -57 0 -20 0 0 0 -84 0 0 546c-5,2 -12,3 -21,5 -8,2 -18,2 -29,2 -25,0 -43,-4 -53,-12 -10,-9 -15,-23 -15,-42l0 -106c-18,15 -39,27 -63,34 -24,8 -52,11 -83,11 -51,0 -95,-10 -134,-31 -38,-21 -68,-48 -90,-82 -13,-20 -23,-40 -30,-62 -7,-22 -10,-41 -10,-56 0,-9 2,-17 5,-23 3,-6 10,-10 20,-11 43,-4 74,-13 93,-28 20,-16 30,-37 30,-63 0,-19 -5,-35 -15,-49 -9,-13 -22,-24 -39,-33l-106 0 -24 0 -89 0 0 119c0,31 -17,46 -50,46l-180 0c-25,0 -42,4 -52,13 -10,10 -15,22 -15,37 0,13 4,23 10,32 7,8 14,15 23,20 18,-5 36,-9 56,-12 19,-4 39,-5 61,-5 62,0 110,13 142,41 32,27 48,62 48,105 0,54 -21,95 -63,122 -41,28 -98,42 -168,42 -31,0 -62,-3 -91,-8 -29,-5 -54,-12 -77,-22 -22,-9 -40,-20 -53,-33 -13,-12 -20,-26 -20,-42 0,-16 4,-29 13,-39 9,-10 20,-17 32,-22 21,20 48,36 81,51 33,14 71,21 114,21 36,0 63,-6 82,-18 18,-13 27,-29 27,-48 0,-41 -33,-61 -99,-61 -18,0 -37,2 -56,6 -19,3 -37,8 -53,13 -15,-4 -30,-11 -45,-20 -16,-8 -30,-19 -42,-31 -13,-12 -23,-26 -32,-43 -9,-16 -13,-35 -13,-55 0,-39 14,-71 41,-95 28,-24 68,-37 122,-37l138 0 0 -77 -331 0 -21 0 -81 0 0 546c-6,2 -13,3 -22,5 -8,2 -18,2 -29,2 -26,0 -43,-4 -53,-12 -10,-9 -15,-23 -15,-42l0 -499 -54 0 -23 0 -1 0 -87 0 0 119c0,31 -17,46 -51,46l-179 0c-25,0 -42,4 -52,13 -10,10 -15,22 -15,37 0,13 3,23 10,32 6,8 14,15 23,20 18,-5 36,-9 55,-12 20,-4 40,-5 62,-5 62,0 109,13 142,41 32,27 48,62 48,105 0,27 -6,51 -17,71 -11,20 -27,37 -48,50 -20,13 -45,23 -73,30 -29,6 -60,9 -93,9 -3,0 -6,0 -9,0 -2,0 -5,0 -9,-1 18,16 37,31 56,46 20,15 41,29 65,43 -2,21 -9,38 -21,53 -13,14 -31,21 -54,21 -24,0 -46,-9 -66,-25 -19,-16 -39,-42 -58,-77l-42 -72c-31,-8 -56,-20 -75,-35 -19,-16 -28,-33 -28,-53 0,-16 4,-29 13,-39 9,-10 20,-18 32,-23 22,20 49,37 82,51 32,14 70,21 113,21 36,0 63,-6 81,-18 19,-13 28,-29 28,-48 0,-41 -33,-61 -99,-61 -18,0 -37,2 -56,6 -19,3 -37,8 -54,13 -14,-4 -29,-11 -44,-20 -16,-8 -30,-19 -42,-31 -13,-12 -24,-26 -32,-43 -9,-16 -13,-35 -13,-55 0,-39 14,-71 41,-95 27,-24 68,-37 122,-37l138 0 0 -77 -352 0c-25,0 -37,-15 -37,-46 0,-6 1,-13 2,-22 1,-8 3,-15 6,-21l558 0 25 0 75 0c-6,-9 -10,-22 -14,-36 -3,-15 -5,-30 -5,-46 0,-60 24,-108 71,-143 48,-34 115,-52 200,-52 56,0 107,7 154,20 46,13 86,28 119,47 34,18 59,37 77,57 19,20 28,37 28,51 0,14 -7,26 -20,35 -13,9 -30,14 -52,14 -36,-39 -78,-70 -126,-93 -49,-23 -105,-34 -170,-34 -50,0 -89,10 -117,29 -27,20 -41,49 -41,86 0,12 2,24 4,35 2,12 6,22 11,30l59 0 22 0 538 0 24 0 624 0 20 0 279 0c25,0 37,15 37,45 0,6 -1,14 -2,23 -2,9 -4,16 -6,21l-103 0zm-5486 1975l-476 1554 1204 -1118c396,171 833,267 1293,267 1261,0 2355,-718 2896,-1767l-369 0c-510,865 -1451,1444 -2527,1444 -1194,0 -2221,-712 -2679,-1736 4,-12 8,-25 12,-37 21,-58 51,-118 129,-120 38,0 77,2 115,0 125,-7 252,-12 369,-67 90,-43 116,-109 86,-203 -32,-101 -33,-197 38,-286 7,-9 13,-19 17,-30 27,-60 9,-113 -52,-137 -39,-15 -82,-20 -123,-29 -27,-6 -54,-12 -80,-17 27,-22 55,-34 83,-46 33,-14 68,-26 99,-45 62,-39 77,-98 48,-164 -11,-23 -24,-44 -34,-67 -15,-35 -2,-67 31,-84 17,-8 36,-13 53,-21 155,-63 182,-160 80,-293 -32,-42 -70,-80 -106,-118 -56,-57 -117,-111 -170,-171 -91,-102 -133,-214 -66,-349 30,-59 -45,-571 -93,-806 539,-638 1343,-1042 2243,-1042 1010,0 1901,511 2429,1288l381 0c-566,-963 -1613,-1610 -2810,-1610 -1799,0 -3257,1458 -3257,3256 0,1035 483,1957 1236,2554zm-713 -1485c-129,-331 -201,-692 -201,-1069 0,-672 226,-1291 606,-1785 42,238 99,622 86,660 -12,34 -30,68 -35,104 -6,41 -10,85 -2,125 26,133 112,228 205,320 67,65 134,131 194,203 50,61 40,87 -32,117 -18,8 -36,14 -54,21 -102,38 -138,156 -94,237 8,16 14,32 23,47 19,27 9,44 -17,55 -37,15 -75,26 -111,43 -37,16 -75,34 -106,59 -43,34 -43,86 3,115 45,30 98,49 150,66 35,12 73,13 110,19 -1,10 -1,13 -2,15 -3,6 -5,11 -9,15 -85,107 -83,227 -49,350 17,65 12,81 -52,106 -16,6 -33,13 -50,15 -111,11 -221,28 -332,31 -92,2 -168,23 -216,106 -5,8 -10,17 -15,25zm1401 -806c-2,-161 -61,-307 -177,-431 -46,-50 -39,-105 20,-121 22,-6 60,7 76,24 158,164 231,362 218,589 -11,183 -81,344 -207,480 -32,36 -67,59 -112,23 -36,-28 -31,-70 12,-118 112,-124 169,-269 170,-446zm595 111c-2,171 -93,408 -273,610 -8,9 -16,17 -25,26 -33,34 -71,45 -108,9 -36,-35 -24,-72 8,-105 93,-96 166,-207 208,-335 110,-342 48,-651 -188,-924 -10,-12 -23,-22 -32,-35 -24,-31 -26,-64 4,-90 28,-25 65,-33 96,-2 31,30 61,62 88,97 146,192 223,407 222,749zm456 -97c-4,345 -120,646 -353,902 -12,13 -23,27 -37,38 -31,27 -65,30 -95,0 -31,-30 -29,-64 -3,-96 27,-34 60,-63 86,-98 280,-366 339,-767 177,-1198 -54,-145 -141,-269 -245,-382 -20,-20 -35,-56 -32,-82 8,-56 74,-67 121,-22 116,116 205,251 271,401 74,171 112,350 110,537zm515 3223c-506,0 -989,-92 -1431,-260l-514 377c431,168 899,261 1389,261 864,0 1661,-288 2300,-773 -523,253 -1116,395 -1744,395zm-2509 -882c-797,-653 -1300,-1613 -1300,-2682 0,-1969 1705,-3564 3809,-3564 155,0 308,8 459,25 -323,-89 -663,-136 -1015,-136 -2103,0 -3808,1705 -3808,3808 0,1342 694,2522 1743,3200l112 -651zm3360 -3484l0 818c-11,4 -25,7 -41,10 -16,3 -34,5 -56,5 -49,0 -83,-8 -101,-24 -18,-16 -27,-42 -27,-78l0 -71c-27,17 -59,30 -96,40 -36,9 -78,14 -126,14 -47,0 -92,-7 -134,-22 -42,-14 -78,-35 -109,-62 -32,-28 -56,-61 -73,-101 -18,-40 -26,-84 -26,-134 0,-46 8,-88 24,-126 17,-37 40,-70 69,-97 30,-27 65,-47 105,-62 40,-15 84,-22 131,-22 54,0 94,10 121,30 26,21 39,49 39,84 0,13 -2,27 -6,40 -4,13 -9,25 -16,34 -8,-2 -19,-4 -33,-6 -14,-2 -30,-3 -48,-3 -25,0 -47,3 -66,9l244 184 0 -460 -615 0c-24,0 -41,-7 -51,-21 -9,-14 -14,-36 -14,-64 0,-12 1,-26 4,-42 2,-15 6,-28 10,-38l966 0 27 0 130 0c-18,-31 -41,-61 -69,-88 -28,-27 -58,-51 -89,-72 -31,-22 -63,-41 -95,-56 -33,-15 -62,-27 -90,-34 -1,-5 -1,-10 -1,-15 0,-5 0,-10 0,-15 0,-37 10,-70 31,-98 20,-28 52,-42 95,-42 40,0 79,12 119,36 40,24 79,55 116,95 37,40 71,85 102,135 31,50 57,102 76,154l101 0 27 0 1189 0 26 0 131 0c-18,-31 -41,-61 -69,-88 -28,-27 -57,-51 -89,-72 -31,-22 -63,-41 -95,-56 -32,-15 -62,-27 -89,-34 -1,-5 -2,-10 -2,-15 0,-5 0,-10 0,-15 0,-37 10,-70 31,-98 21,-28 53,-42 96,-42 39,0 79,12 119,36 40,24 79,55 116,95 37,40 71,85 102,135 31,50 56,102 75,154l129 0c43,0 65,28 65,83 0,11 -2,26 -5,43 -3,17 -8,30 -13,39l-149 0 0 818c-12,4 -25,7 -41,10 -16,3 -35,5 -56,5 -49,0 -83,-8 -101,-24 -18,-16 -27,-42 -27,-78l0 -731 -79 0 -24 0 -1 0 -126 0 0 818c-11,4 -24,7 -40,10 -15,3 -34,5 -55,5 -50,0 -84,-8 -102,-24 -17,-16 -27,-42 -27,-78l0 -409c-4,0 -7,0 -11,-1 -3,0 -6,0 -11,0 -50,0 -88,17 -112,52 -25,35 -37,93 -37,174 -31,11 -66,16 -104,16 -37,0 -65,-9 -82,-28 -17,-18 -26,-44 -26,-76 0,-45 7,-86 20,-123 -23,-10 -47,-15 -72,-15 -50,0 -88,15 -113,46 -25,30 -38,68 -38,112 0,35 6,65 20,91 13,25 30,46 51,62 21,17 45,29 71,38 26,9 52,15 78,18 1,6 2,11 2,17 0,6 0,11 0,17 0,34 -10,62 -30,86 -19,24 -53,36 -102,36 -39,0 -77,-9 -115,-26 -39,-16 -73,-41 -104,-72 -30,-32 -55,-71 -74,-116 -19,-46 -29,-97 -29,-154 0,-55 9,-103 27,-145 18,-42 43,-77 73,-105 31,-28 66,-49 105,-63 39,-14 80,-22 124,-22 47,0 88,7 123,20 35,13 66,30 92,50 27,-22 57,-39 91,-51 33,-12 71,-19 114,-19 12,0 24,1 35,2 12,1 23,3 34,5l0 -148 -841 0 -24 0 -1 0 -124 0 0 818c-12,4 -26,7 -42,10 -15,3 -34,5 -55,5 -50,0 -84,-8 -102,-24 -18,-16 -27,-42 -27,-78l0 -731 -79 0 -24 0 -1 0 -124 0zm-404 535c38,0 72,-6 101,-18l-241 -185c-12,21 -19,45 -19,71 0,41 15,74 45,97 31,23 68,35 114,35zm880 663c0,-20 7,-38 21,-52 13,-14 32,-21 55,-21 23,0 42,7 56,21 13,14 20,32 20,52 0,20 -7,37 -20,51 -14,15 -33,22 -56,22 -23,0 -42,-7 -55,-22 -14,-14 -21,-31 -21,-51zm1373 587c31,0 57,-6 80,-17 23,-11 41,-24 54,-39l0 -284 -186 0c12,11 23,25 32,41 10,17 15,35 15,56 0,21 -4,40 -11,56 -8,16 -18,30 -32,42 -13,12 -29,21 -47,29 -18,7 -38,12 -59,15 10,28 27,52 52,72 26,19 60,29 102,29z"/>
   <path class="fil22" d="M13668 10321l0 545c-6,2 -13,3 -21,5 -8,2 -18,3 -30,3 -25,0 -43,-5 -53,-13 -10,-9 -15,-23 -15,-42l0 -498 -57 0 -20 0 0 0 -84 0 0 545c-5,2 -12,3 -21,5 -8,2 -18,3 -29,3 -25,0 -43,-5 -53,-13 -10,-9 -15,-23 -15,-42l0 -105c-18,15 -39,26 -63,33 -24,8 -52,12 -83,12 -51,0 -95,-11 -134,-32 -38,-20 -68,-48 -90,-82 -13,-19 -23,-40 -30,-62 -7,-22 -10,-40 -10,-56 0,-9 2,-17 5,-23 3,-6 10,-10 20,-11 43,-3 74,-13 93,-28 20,-16 30,-36 30,-62 0,-19 -5,-36 -15,-50 -9,-13 -22,-24 -39,-32l-106 0 -24 0 -89 0 0 119c0,30 -17,45 -50,45l-180 0c-25,0 -42,4 -52,14 -10,9 -15,21 -15,36 0,13 4,24 10,32 7,8 14,15 23,20 18,-4 36,-8 56,-12 19,-3 39,-5 61,-5 62,0 110,14 142,41 32,27 48,63 48,106 0,54 -21,94 -63,122 -41,27 -98,41 -168,41 -31,0 -62,-3 -91,-8 -29,-5 -54,-12 -77,-21 -22,-10 -40,-21 -53,-33 -13,-13 -20,-27 -20,-43 0,-16 4,-28 13,-38 9,-10 20,-18 32,-22 21,19 48,35 81,50 33,14 71,21 114,21 36,0 63,-6 82,-18 18,-12 27,-28 27,-48 0,-41 -33,-61 -99,-61 -18,0 -37,2 -56,6 -19,4 -37,8 -53,14 -15,-5 -30,-12 -45,-20 -16,-9 -30,-19 -42,-32 -13,-12 -23,-26 -32,-43 -9,-16 -13,-35 -13,-55 0,-39 14,-71 41,-95 28,-24 68,-36 122,-36l138 0 0 -77 -331 0 -21 0 -81 0 0 545c-6,2 -13,3 -22,5 -8,2 -18,3 -29,3 -26,0 -43,-5 -53,-13 -10,-9 -15,-23 -15,-42l0 -498 -54 0 -23 0 -1 0 -87 0 0 119c0,30 -17,45 -51,45l-179 0c-25,0 -42,4 -52,14 -10,9 -15,21 -15,36 0,13 3,24 10,32 6,8 14,15 23,20 18,-4 36,-8 55,-12 20,-3 40,-5 62,-5 62,0 109,14 142,41 32,27 48,63 48,106 0,26 -6,50 -17,70 -11,20 -27,37 -48,50 -20,14 -45,23 -73,30 -29,6 -60,10 -93,10 -3,0 -6,0 -9,0 -2,0 -5,-1 -9,-1 18,15 37,31 56,45 20,15 41,29 65,43 -2,21 -9,39 -21,53 -13,14 -31,21 -54,21 -24,0 -46,-8 -66,-25 -19,-16 -39,-42 -58,-77l-42 -72c-31,-8 -56,-20 -75,-35 -19,-15 -28,-33 -28,-53 0,-16 4,-29 13,-39 9,-10 20,-18 32,-22 22,19 49,36 82,50 32,14 70,21 113,21 36,0 63,-6 81,-18 19,-12 28,-28 28,-48 0,-41 -33,-61 -99,-61 -18,0 -37,2 -56,6 -19,4 -37,8 -54,14 -14,-5 -29,-12 -44,-20 -16,-9 -30,-19 -42,-32 -13,-12 -24,-26 -32,-43 -9,-16 -13,-35 -13,-55 0,-39 14,-71 41,-95 27,-24 68,-36 122,-36l138 0 0 -77 -352 0c-25,0 -37,-16 -37,-47 0,-6 1,-13 2,-22 1,-8 3,-15 6,-21l558 0 25 0 75 0c-6,-9 -10,-21 -14,-36 -3,-15 -5,-30 -5,-46 0,-60 24,-107 71,-142 48,-35 115,-53 200,-53 56,0 107,7 154,20 46,13 86,29 119,47 34,19 59,38 77,58 19,19 28,36 28,50 0,14 -7,26 -20,35 -13,9 -30,14 -52,14 -36,-39 -78,-70 -126,-93 -49,-23 -105,-34 -170,-34 -50,0 -89,10 -117,30 -27,19 -41,48 -41,85 0,12 2,24 4,36 2,11 6,21 11,29l59 0 22 0 538 0 24 0 624 0 20 0 279 0c25,0 37,15 37,46 0,6 -1,13 -2,22 -2,9 -4,16 -6,22l-103 0zm-5486 1974l-476 1554 1204 -1118c396,172 833,267 1293,267 1261,0 2355,-718 2896,-1767l-369 0c-510,865 -1451,1445 -2527,1445 -1194,0 -2221,-713 -2679,-1736 4,-13 8,-25 12,-38 21,-58 51,-118 129,-119 38,-1 77,1 115,-1 125,-6 252,-12 369,-67 90,-43 116,-109 86,-202 -32,-101 -33,-198 38,-286 7,-9 13,-20 17,-31 27,-59 9,-113 -52,-137 -39,-15 -82,-20 -123,-29 -27,-6 -54,-12 -80,-17 27,-22 55,-33 83,-45 33,-15 68,-27 99,-46 62,-39 77,-97 48,-164 -11,-23 -24,-44 -34,-66 -15,-35 -2,-68 31,-84 17,-9 36,-14 53,-21 155,-64 182,-161 80,-294 -32,-42 -70,-80 -106,-117 -56,-58 -117,-111 -170,-172 -91,-102 -133,-213 -66,-349 30,-59 -45,-571 -93,-806 539,-637 1343,-1042 2243,-1042 1010,0 1901,511 2429,1288l381 0c-566,-963 -1613,-1610 -2810,-1610 -1799,0 -3257,1458 -3257,3256 0,1035 483,1958 1236,2554zm-713 -1485c-129,-331 -201,-692 -201,-1069 0,-672 226,-1291 606,-1785 42,238 99,623 86,660 -12,35 -30,68 -35,104 -6,41 -10,85 -2,125 26,133 112,228 205,320 67,66 134,132 194,203 50,61 40,87 -32,118 -18,7 -36,13 -54,20 -102,39 -138,157 -94,238 8,15 14,32 23,46 19,27 9,44 -17,55 -37,15 -75,26 -111,43 -37,17 -75,34 -106,59 -43,35 -43,87 3,116 45,29 98,48 150,65 35,12 73,14 110,20 -1,9 -1,12 -2,15 -3,5 -5,10 -9,14 -85,107 -83,227 -49,350 17,66 12,81 -52,106 -16,6 -33,13 -50,15 -111,12 -221,28 -332,31 -92,2 -168,23 -216,106 -5,9 -10,17 -15,25zm1401 -806c-2,-160 -61,-307 -177,-431 -46,-50 -39,-104 20,-120 22,-6 60,6 76,24 158,163 231,361 218,588 -11,184 -81,345 -207,481 -32,35 -67,58 -112,22 -36,-28 -31,-70 12,-117 112,-125 169,-270 170,-447zm595 111c-2,172 -93,408 -273,610 -8,9 -16,17 -25,26 -33,34 -71,45 -108,9 -36,-35 -24,-72 8,-104 93,-97 166,-207 208,-336 110,-342 48,-651 -188,-923 -10,-12 -23,-23 -32,-35 -24,-31 -26,-65 4,-91 28,-25 65,-32 96,-2 31,31 61,62 88,97 146,192 223,408 222,749zm456 -97c-4,345 -120,647 -353,902 -12,13 -23,27 -37,39 -31,27 -65,29 -95,0 -31,-30 -29,-65 -3,-97 27,-34 60,-63 86,-98 280,-366 339,-766 177,-1198 -54,-144 -141,-268 -245,-381 -20,-21 -35,-57 -32,-83 8,-56 74,-67 121,-22 116,116 205,251 271,401 74,171 112,350 110,537zm515 3223c-506,0 -989,-92 -1431,-260l-514 377c431,168 899,261 1389,261 864,0 1661,-288 2300,-773 -523,253 -1116,395 -1744,395zm-2509 -882c-797,-653 -1300,-1612 -1300,-2682 0,-1968 1705,-3564 3809,-3564 155,0 308,9 459,26 -323,-89 -663,-137 -1015,-137 -2103,0 -3808,1705 -3808,3808 0,1342 694,2522 1743,3201l112 -652zm3360 -3483l0 818c-11,3 -25,6 -41,9 -16,3 -34,5 -56,5 -49,0 -83,-8 -101,-24 -18,-16 -27,-42 -27,-78l0 -71c-27,17 -59,30 -96,40 -36,9 -78,14 -126,14 -47,0 -92,-7 -134,-21 -42,-15 -78,-36 -109,-63 -32,-27 -56,-61 -73,-101 -18,-39 -26,-84 -26,-134 0,-46 8,-88 24,-126 17,-37 40,-69 69,-96 30,-27 65,-48 105,-63 40,-15 84,-22 131,-22 54,0 94,10 121,31 26,20 39,48 39,83 0,14 -2,27 -6,40 -4,14 -9,25 -16,34 -8,-2 -19,-4 -33,-6 -14,-2 -30,-3 -48,-3 -25,0 -47,3 -66,9l244 184 0 -459 -615 0c-24,0 -41,-8 -51,-22 -9,-14 -14,-36 -14,-64 0,-12 1,-25 4,-41 2,-16 6,-29 10,-38l966 0 27 0 130 0c-18,-32 -41,-61 -69,-88 -28,-27 -58,-52 -89,-73 -31,-22 -63,-40 -95,-56 -33,-15 -62,-26 -90,-34 -1,-5 -1,-10 -1,-15 0,-5 0,-10 0,-15 0,-37 10,-69 31,-97 20,-28 52,-42 95,-42 40,0 79,11 119,35 40,24 79,56 116,95 37,40 71,85 102,135 31,50 57,102 76,155l101 0 27 0 1189 0 26 0 131 0c-18,-32 -41,-61 -69,-88 -28,-27 -57,-52 -89,-73 -31,-22 -63,-40 -95,-56 -32,-15 -62,-26 -89,-34 -1,-5 -2,-10 -2,-15 0,-5 0,-10 0,-15 0,-37 10,-69 31,-97 21,-28 53,-42 96,-42 39,0 79,11 119,35 40,24 79,56 116,95 37,40 71,85 102,135 31,50 56,102 75,155l129 0c43,0 65,27 65,82 0,12 -2,26 -5,43 -3,17 -8,30 -13,40l-149 0 0 818c-12,3 -25,6 -41,9 -16,3 -35,5 -56,5 -49,0 -83,-8 -101,-24 -18,-16 -27,-42 -27,-78l0 -730 -79 0 -24 0 -1 0 -126 0 0 818c-11,3 -24,6 -40,9 -15,3 -34,5 -55,5 -50,0 -84,-8 -102,-24 -17,-16 -27,-42 -27,-78l0 -409c-4,0 -7,0 -11,0 -3,-1 -6,-1 -11,-1 -50,0 -88,17 -112,52 -25,35 -37,93 -37,175 -31,10 -66,15 -104,15 -37,0 -65,-9 -82,-27 -17,-19 -26,-45 -26,-77 0,-45 7,-85 20,-122 -23,-11 -47,-16 -72,-16 -50,0 -88,15 -113,46 -25,30 -38,68 -38,112 0,35 6,65 20,91 13,25 30,46 51,62 21,17 45,29 71,38 26,9 52,15 78,19 1,5 2,10 2,16 0,6 0,12 0,17 0,34 -10,63 -30,86 -19,24 -53,36 -102,36 -39,0 -77,-8 -115,-25 -39,-17 -73,-42 -104,-73 -30,-32 -55,-71 -74,-116 -19,-45 -29,-97 -29,-154 0,-55 9,-103 27,-145 18,-42 43,-77 73,-105 31,-28 66,-49 105,-63 39,-14 80,-21 124,-21 47,0 88,6 123,19 35,14 66,30 92,50 27,-22 57,-39 91,-51 33,-12 71,-18 114,-18 12,0 24,0 35,1 12,1 23,3 34,5l0 -147 -841 0 -24 0 -1 0 -124 0 0 818c-12,3 -26,6 -42,9 -15,3 -34,5 -55,5 -50,0 -84,-8 -102,-24 -18,-16 -27,-42 -27,-78l0 -730 -79 0 -24 0 -1 0 -124 0zm-404 534c38,0 72,-6 101,-18l-241 -185c-12,21 -19,45 -19,71 0,41 15,74 45,97 31,23 68,35 114,35zm880 663c0,-20 7,-37 21,-51 13,-14 32,-21 55,-21 23,0 42,7 56,21 13,14 20,31 20,51 0,20 -7,37 -20,52 -14,14 -33,21 -56,21 -23,0 -42,-7 -55,-21 -14,-15 -21,-32 -21,-52zm1373 587c31,0 57,-5 80,-17 23,-11 41,-24 54,-39l0 -283 -186 0c12,11 23,24 32,41 10,16 15,35 15,55 0,21 -4,40 -11,56 -8,16 -18,30 -32,42 -13,12 -29,22 -47,29 -18,7 -38,12 -59,16 10,28 27,51 52,71 26,19 60,29 102,29z"/>
   <path class="fil23" d="M12865 10563c-4,-13 -5,-25 -5,-36 0,-9 2,-17 5,-23 3,-6 10,-10 20,-11 43,-3 74,-13 93,-28 12,-10 20,-21 25,-34 3,9 5,19 5,30 0,26 -10,46 -30,62 -19,15 -50,25 -93,28 -10,1 -17,5 -20,11l0 1zm-419 2l2 2c7,8 14,15 23,20 18,-4 36,-8 56,-12 19,-3 39,-5 61,-5 62,0 110,14 142,41 32,27 48,63 48,106 0,10 -1,20 -3,30 -5,-31 -20,-57 -45,-78 -32,-27 -80,-41 -142,-41 -22,0 -42,2 -61,5 -20,4 -38,8 -56,12 -9,-5 -16,-12 -23,-20 -6,-8 -10,-19 -10,-32 0,-11 3,-20 8,-28zm-132 237c-5,-8 -8,-17 -8,-27 0,-16 4,-28 13,-38 9,-10 20,-18 32,-22 21,19 48,35 81,50 33,14 71,21 114,21 36,0 63,-6 82,-18 8,-6 14,-12 19,-20 5,9 8,18 8,30 0,20 -9,36 -27,48 -19,12 -46,19 -82,19 -43,0 -81,-8 -114,-22 -33,-14 -60,-31 -81,-50 -12,4 -23,12 -32,22 -2,2 -4,5 -5,7zm4 -245c-2,-9 -3,-18 -3,-28 0,-39 14,-71 41,-95 28,-24 68,-36 122,-36l138 0 0 58 -138 0c-54,0 -94,12 -122,36 -20,18 -32,40 -38,65zm-708 8l2 2c6,8 14,15 23,20 18,-4 36,-8 55,-12 20,-3 40,-5 62,-5 62,0 109,14 142,41 32,27 48,63 48,106 0,10 -1,20 -3,29 -6,-30 -21,-56 -45,-77 -33,-27 -80,-41 -142,-41 -22,0 -42,2 -62,5 -19,4 -37,8 -55,12 -9,-5 -17,-12 -23,-20 -7,-8 -10,-19 -10,-32 0,-11 3,-20 8,-28zm154 367c15,11 32,21 50,32 -2,19 -7,35 -17,48 -17,-11 -33,-22 -48,-33 -19,-14 -38,-30 -56,-45 4,0 7,1 9,1 3,0 6,0 9,0 18,0 36,-1 53,-3zm-287 -128c-5,-9 -7,-18 -7,-28 0,-16 4,-29 13,-39 9,-10 20,-18 32,-22 22,19 49,36 82,50 32,14 70,21 113,21 36,0 63,-6 81,-18 9,-6 15,-12 20,-20 5,9 8,18 8,30 0,20 -9,36 -28,48 -18,12 -45,19 -81,19 -43,0 -81,-8 -113,-22 -33,-14 -60,-30 -82,-50 -12,4 -23,12 -32,22 -2,3 -4,6 -6,9zm5 -247c-2,-9 -3,-18 -3,-28 0,-39 14,-71 41,-95 27,-24 68,-36 122,-36l138 0 0 58 -138 0c-54,0 -95,12 -122,36 -20,18 -33,40 -38,65zm-87 -257c-3,-6 -4,-15 -4,-26 0,-6 1,-13 2,-22 1,-8 3,-15 6,-21l558 0 25 0 58 0c0,8 2,15 3,22 4,15 8,27 14,37l-75 0 -25 0 -558 0c-1,3 -3,6 -4,10zm645 -122c-1,-9 -2,-19 -2,-29 0,-60 24,-107 71,-142 48,-35 115,-53 200,-53 56,0 107,7 154,20 46,13 86,29 119,47 34,19 59,38 77,58 19,19 28,36 28,50 0,11 -4,20 -12,28 -4,-6 -9,-13 -16,-20 -18,-20 -43,-39 -77,-58 -33,-18 -73,-34 -119,-47 -47,-13 -98,-19 -154,-19 -85,0 -152,17 -200,52 -39,29 -62,67 -69,113zm124 19l1 5c2,11 6,21 11,29l59 0 22 0 353 0 5 5c13,0 24,-1 34,-5l146 0 24 0 624 0 20 0 279 0c25,0 37,15 37,46 0,6 -1,13 -2,22l-2 9c-6,-12 -17,-18 -33,-18l-279 0 -20 0 -624 0 -24 0 -538 0 -22 0 -59 0c-5,-9 -9,-19 -11,-30 -2,-12 -4,-24 -4,-36 0,-10 1,-19 3,-27zm-3996 2145l-462 1507 24 -23 452 -1473 -14 -11zm4900 -1053c10,-19 21,-38 31,-58l-369 0c-510,865 -1451,1445 -2527,1445 -1185,0 -2205,-702 -2668,-1712 -4,11 -8,22 -11,34 458,1023 1485,1736 2679,1736 1076,0 2017,-580 2527,-1445l338 0zm-4823 -681c5,-28 2,-59 -10,-95 -9,-31 -16,-62 -19,-92 -5,49 3,99 19,150 5,13 8,25 10,37zm53 -433c14,-51 -6,-95 -60,-116 -39,-15 -82,-20 -123,-29l-5 -1c-25,11 -50,22 -75,42 26,6 53,11 80,17 41,9 84,14 123,29 32,13 52,33 60,58zm-22 -327c7,-27 3,-58 -11,-90 -11,-22 -24,-43 -33,-65 -9,16 -10,36 -1,57 10,22 23,44 34,66 5,11 8,22 11,32zm176 -386c12,-48 -7,-104 -57,-169 -32,-42 -70,-80 -106,-117 -56,-58 -117,-111 -170,-172 -53,-59 -89,-121 -97,-189 -11,91 30,172 97,247 53,61 114,114 170,172 36,37 74,75 106,117 31,41 50,78 57,111zm-393 -839c8,-120 -47,-504 -89,-727l-10 11c38,186 93,545 99,716zm4918 -528l36 0c-566,-963 -1613,-1610 -2810,-1610 -1799,0 -3257,1458 -3257,3256l0 37c12,-1788 1465,-3235 3257,-3235 1173,0 2201,621 2774,1552zm-5508 2715c-126,-323 -197,-674 -200,-1041l-1 30c0,377 72,738 201,1069 5,-8 10,-16 15,-24 48,-83 124,-105 216,-107 111,-3 221,-19 332,-31 17,-2 34,-9 50,-15 60,-23 68,-38 55,-93 -8,14 -25,23 -55,35 -16,6 -33,13 -50,15 -111,12 -221,28 -332,31 -92,2 -168,23 -216,106 -5,9 -10,17 -15,25zm491 -2195l0 1c-12,35 -30,68 -35,104 -5,33 -9,69 -5,103 1,-15 3,-30 5,-45 5,-36 23,-69 35,-104 2,-7 2,-28 0,-59zm382 839c-10,11 -28,21 -52,32 -18,7 -36,13 -54,20 -84,32 -123,117 -110,192 9,-57 47,-110 110,-134 18,-7 36,-13 54,-20 60,-26 77,-48 52,-90zm-182 385c-4,2 -8,4 -12,6 -37,15 -75,26 -111,43 -37,17 -75,34 -106,59 -31,25 -39,60 -24,87 5,-10 13,-20 24,-28 31,-26 69,-43 106,-60 36,-17 74,-28 111,-43 26,-11 36,-28 17,-55 -2,-3 -3,-6 -5,-9zm5 363c-44,66 -57,138 -52,211 5,-62 25,-121 70,-177 4,-5 6,-10 9,-15 1,-3 1,-6 2,-15 -10,-2 -19,-3 -29,-4zm505 -662c-18,-39 -3,-75 43,-87 22,-6 60,6 76,24 153,158 226,348 219,566 -7,-194 -80,-364 -219,-508 -16,-18 -54,-30 -76,-24 -21,5 -35,16 -43,29zm2 1010c-16,-27 -6,-61 28,-99 105,-117 162,-252 169,-414 1,8 1,16 1,25 -1,177 -58,322 -170,447 -13,14 -22,28 -28,41zm793 -435l-1 13c-5,-316 -82,-521 -221,-704 -27,-35 -57,-66 -88,-97 -31,-30 -68,-22 -96,2 -6,5 -11,11 -14,17 -14,-27 -11,-54 14,-75 28,-25 65,-32 96,-2 31,31 61,62 88,97 146,192 223,408 222,749zm-420 628c-17,-30 -4,-60 22,-87 93,-97 166,-207 208,-336 32,-99 49,-195 52,-289 4,112 -14,228 -52,347 -42,129 -115,239 -208,336 -9,9 -17,19 -22,29zm876 -725l0 17c-4,-172 -42,-337 -110,-496 -66,-150 -155,-285 -271,-400 -41,-40 -97,-37 -115,2 -5,-14 -8,-27 -6,-39 8,-56 74,-67 121,-22 116,116 205,251 271,401 74,171 112,350 110,537zm-500 921c-14,-25 -9,-52 12,-77 27,-34 60,-63 86,-98 171,-223 259,-459 266,-707 6,269 -82,525 -266,766 -26,34 -59,63 -86,97 -5,7 -9,13 -12,19zm1015 2302c-506,0 -989,-92 -1431,-260l-514 377c18,6 35,13 53,20l461 -339c442,168 925,261 1431,261 540,0 1054,-106 1519,-296 77,-50 152,-103 225,-158 -523,253 -1116,395 -1744,395zm-2509 -882c-787,-645 -1288,-1590 -1300,-2645l0 21c0,1066 500,2022 1292,2675l8 -51zm2594 -6245c126,2 251,11 374,25 -323,-89 -663,-137 -1015,-137 -2103,0 -3808,1705 -3808,3808l0 37c12,-2094 1712,-3787 3808,-3787 219,0 433,18 641,54zm-22 3186c-1,-10 -1,-20 -1,-30 0,-46 8,-88 24,-126 17,-37 40,-69 69,-96 30,-27 65,-48 105,-63 40,-15 84,-22 131,-22 54,0 94,10 121,31 26,20 39,48 39,83 0,10 -1,20 -3,29 -5,-21 -17,-40 -36,-54 -27,-21 -67,-31 -121,-31 -47,0 -91,7 -131,22 -40,15 -75,36 -105,63 -29,27 -52,59 -69,96 -13,30 -21,63 -23,98zm383 -100l180 135 0 58 -244 -183c18,-7 40,-10 64,-10zm-498 -381c-1,-8 -2,-18 -2,-29 0,-12 1,-25 4,-41 2,-16 6,-29 10,-38l966 0 27 0 89 0c15,18 29,37 41,58l-130 0 -27 0 -966 0c-4,9 -8,22 -10,38l-2 12zm793 -359l-1 0c-1,-5 -1,-10 -1,-15 0,-5 0,-10 0,-15 0,-37 10,-69 31,-97 20,-28 52,-42 95,-42 40,0 79,11 119,35 40,24 79,56 116,95 37,40 71,85 102,135 31,50 57,102 76,155l101 0 27 0 1189 0 26 0 90 0c16,18 30,37 41,58l-131 0 -26 0 -1189 0 -27 0 -101 0c-19,-53 -45,-105 -76,-155 -31,-50 -65,-95 -102,-135 -37,-39 -76,-71 -116,-95 -40,-24 -79,-35 -119,-35 -43,0 -75,14 -95,42 -16,20 -25,44 -29,69zm1669 0l0 0c-1,-5 -2,-10 -2,-15 0,-5 0,-10 0,-15 0,-37 10,-69 31,-97 21,-28 53,-42 96,-42 39,0 79,11 119,35 40,24 79,56 116,95 37,40 71,85 102,135 31,50 56,102 75,155l129 0c43,0 65,27 65,82 0,8 -1,18 -3,29 -7,-35 -28,-53 -62,-53l-129 0c-19,-53 -44,-105 -75,-155 -31,-50 -65,-95 -102,-135 -37,-39 -76,-71 -116,-95 -40,-24 -80,-35 -119,-35 -43,0 -75,14 -96,42 -15,20 -25,44 -29,69zm-497 896c-1,-7 -1,-14 -1,-22 0,-25 2,-48 6,-70 5,2 10,4 14,6 -10,27 -16,55 -19,86zm-202 29c2,22 8,42 18,60 13,25 30,46 51,62 21,17 45,29 71,38 26,9 52,15 78,19 1,5 2,10 2,16 0,6 0,12 0,17 0,8 -1,17 -2,25 -26,-3 -52,-10 -78,-19 -26,-8 -50,-21 -71,-38 -21,-16 -38,-37 -51,-62 -14,-26 -20,-56 -20,-91 0,-9 0,-18 2,-27zm-233 -4c0,-10 -1,-20 -1,-30 0,-55 9,-103 27,-145 18,-42 43,-77 73,-105 31,-28 66,-49 105,-63 39,-14 80,-21 124,-21 47,0 88,6 123,19 35,14 66,30 92,50 27,-22 57,-39 91,-51 33,-12 71,-18 114,-18 12,0 24,0 35,1 12,1 23,3 34,5l0 58c-11,-2 -22,-4 -34,-5 -11,-1 -23,-1 -35,-1 -43,0 -81,6 -114,18 -34,12 -64,29 -91,52 -26,-21 -57,-37 -92,-50 -35,-14 -76,-20 -123,-20 -44,0 -85,7 -124,21 -39,14 -74,36 -105,64 -30,28 -55,62 -73,104 -14,35 -23,73 -26,117zm-1031 29c15,0 31,-1 45,-3l56 43c-29,12 -63,18 -101,18 -46,0 -83,-12 -114,-35 -30,-23 -45,-55 -45,-97 0,-10 1,-19 3,-29 6,28 20,50 42,68 31,23 68,35 114,35zm880 663c0,-20 7,-37 21,-51 13,-14 32,-21 55,-21 23,0 42,7 56,21 13,14 20,31 20,51 0,11 -2,20 -5,29 -4,-8 -9,-16 -15,-22 -14,-14 -33,-21 -56,-21 -23,0 -42,7 -55,21 -7,6 -12,14 -15,22 -4,-9 -6,-18 -6,-29zm1373 587c31,0 57,-5 80,-17 23,-11 41,-24 54,-39l0 58c-13,15 -31,28 -54,39 -23,12 -49,17 -80,17 -42,0 -76,-9 -102,-29 -25,-19 -42,-43 -52,-71 11,-2 21,-4 31,-7 6,7 13,14 21,20 26,19 60,29 102,29zm-12 -281c5,12 7,24 7,38 0,11 -1,21 -3,31 -3,-10 -6,-19 -12,-28 -9,-17 -20,-30 -32,-41l40 0z"/>
  </g>
 </g>
</svg>
