<?xml version="1.0" encoding="UTF-8"?>
<!DOCTYPE svg PUBLIC "-//W3C//DTD SVG 1.1//EN" "http://www.w3.org/Graphics/SVG/1.1/DTD/svg11.dtd">
<!-- Creator: CorelDRAW X7 -->
<svg xmlns="http://www.w3.org/2000/svg" xml:space="preserve" width="484px" height="611px" version="1.1" style="shape-rendering:geometricPrecision; text-rendering:geometricPrecision; image-rendering:optimizeQuality; fill-rule:evenodd; clip-rule:evenodd"
viewBox="0 0 17330 21869"
 xmlns:xlink="http://www.w3.org/1999/xlink">
 <defs>
  <style type="text/css">
   <![CDATA[
    .fil3 {fill:none}
    .fil20 {fill:#4D4D4D}
    .fil5 {fill:#666666}
    .fil13 {fill:#A6A6A6}
    .fil22 {fill:white}
    .fil15 {fill:#4D4D4D;fill-rule:nonzero}
    .fil17 {fill:#4D4D4D;fill-rule:nonzero}
    .fil6 {fill:#FAFAFA;fill-rule:nonzero}
    .fil19 {fill:#FEFEFE;fill-rule:nonzero}
    .fil10 {fill:white;fill-rule:nonzero}
    .fil1 {fill:#FFF0D4;fill-rule:nonzero;fill-opacity:0.501961}
    .fil11 {fill:url(#id0)}
    .fil4 {fill:url(#id1)}
    .fil21 {fill:url(#id2)}
    .fil14 {fill:url(#id3)}
    .fil8 {fill:url(#id4)}
    .fil2 {fill:url(#id5)}
    .fil0 {fill:url(#id6)}
    .fil9 {fill:url(#id7)}
    .fil12 {fill:url(#id8)}
    .fil7 {fill:url(#id9)}
    .fil16 {fill:url(#id10);fill-rule:nonzero}
    .fil18 {fill:url(#id11);fill-rule:nonzero}
   ]]>
  </style>
  <linearGradient id="id0" gradientUnits="userSpaceOnUse" x1="8665.17" y1="8598.26" x2="8665.17" y2="13532.8">
   <stop offset="0" style="stop-opacity:1; stop-color:#A6A6A6"/>
   <stop offset="1" style="stop-opacity:1; stop-color:#E8EEF7"/>
  </linearGradient>
  <linearGradient id="id1" gradientUnits="userSpaceOnUse" x1="8697.59" y1="767.776" x2="8697.59" y2="17291.8">
   <stop offset="0" style="stop-opacity:1; stop-color:#D0D5E0"/>
   <stop offset="0.0901961" style="stop-opacity:1; stop-color:#BECAD5"/>
   <stop offset="0.180392" style="stop-opacity:1; stop-color:#AEB1C4"/>
   <stop offset="0.611765" style="stop-opacity:1; stop-color:#6D7D85"/>
   <stop offset="1" style="stop-opacity:1; stop-color:#ABBEC9"/>
  </linearGradient>
  <linearGradient id="id2" gradientUnits="userSpaceOnUse" x1="8254.57" y1="11693.3" x2="8254.78" y2="5388.81">
   <stop offset="0" style="stop-opacity:1; stop-color:#AFB1B1"/>
   <stop offset="0.709804" style="stop-opacity:1; stop-color:#D0D2D3"/>
   <stop offset="1" style="stop-opacity:1; stop-color:#F2F4F5"/>
  </linearGradient>
  <linearGradient id="id3" gradientUnits="userSpaceOnUse" x1="8665.17" y1="3797.58" x2="8566.43" y2="11679.7">
   <stop offset="0" style="stop-opacity:1; stop-color:#F0F5FF"/>
   <stop offset="1" style="stop-opacity:1; stop-color:#A9BCC7"/>
  </linearGradient>
  <linearGradient id="id4" gradientUnits="userSpaceOnUse" x1="16151.7" y1="7256.47" x2="16160.2" y2="9725.07">
   <stop offset="0" style="stop-opacity:1; stop-color:#F7F7F7"/>
   <stop offset="1" style="stop-opacity:1; stop-color:#BDBDBD"/>
  </linearGradient>
  <linearGradient id="id5" gradientUnits="userSpaceOnUse" x1="4354.4" y1="17317.3" x2="7873.76" y2="15074.4">
   <stop offset="0" style="stop-opacity:1; stop-color:#B00205"/>
   <stop offset="1" style="stop-opacity:1; stop-color:red"/>
  </linearGradient>
  <linearGradient id="id6" gradientUnits="userSpaceOnUse" x1="13096.5" y1="15877.5" x2="8729.04" y2="16509.9">
   <stop offset="0" style="stop-opacity:1; stop-color:red"/>
   <stop offset="1" style="stop-opacity:1; stop-color:#B00205"/>
  </linearGradient>
  <linearGradient id="id7" gradientUnits="userSpaceOnUse" x1="8688.76" y1="2915.98" x2="8688.76" y2="14945.2">
   <stop offset="0" style="stop-opacity:1; stop-color:#EDEDED"/>
   <stop offset="0.411765" style="stop-opacity:1; stop-color:#B8B8B8"/>
   <stop offset="1" style="stop-opacity:1; stop-color:#CCCCCC"/>
  </linearGradient>
  <linearGradient id="id8" gradientUnits="userSpaceOnUse" x1="8683.39" y1="4228.86" x2="8683.39" y2="13511.2">
   <stop offset="0" style="stop-opacity:1; stop-color:#D0D5E0"/>
   <stop offset="0.180392" style="stop-opacity:1; stop-color:#BECAD5"/>
   <stop offset="0.490196" style="stop-opacity:1; stop-color:#6D7D85"/>
   <stop offset="1" style="stop-opacity:1; stop-color:#ABBEC9"/>
  </linearGradient>
  <linearGradient id="id9" gradientUnits="userSpaceOnUse" xlink:href="#id4" x1="1443.7" y1="7256.47" x2="1452.24" y2="9725.07">
  </linearGradient>
  <linearGradient id="id10" gradientUnits="userSpaceOnUse" x1="8103.62" y1="2207.34" x2="8103.62" y2="898.853">
   <stop offset="0" style="stop-opacity:1; stop-color:#C8CCD9"/>
   <stop offset="0.560784" style="stop-opacity:1; stop-color:#E3E5EC"/>
   <stop offset="1" style="stop-opacity:1; stop-color:white"/>
  </linearGradient>
  <radialGradient id="id11" gradientUnits="userSpaceOnUse" gradientTransform="matrix(-0.0345306 1.08365 -1.08367 -0.0345311 22617 3471)" cx="8748.44" cy="12519.2" r="4951.49" fx="8748.44" fy="12519.2">
   <stop offset="0" style="stop-opacity:1; stop-color:#FEFEFE"/>
   <stop offset="0.941176" style="stop-opacity:1; stop-color:#E5E5E5"/>
   <stop offset="1" style="stop-opacity:1; stop-color:#CCCDCD"/>
  </radialGradient>
 </defs>
 <g id="Layer_x0020_1">
  <metadata id="CorelCorpID_0Corel-Layer"/>
  <g id="_470541600">
   <g>
    <path class="fil0" d="M8557 16799l-825 169 -228 47 -154 31 -138 28 -66 14 -19 4 65 114 1371 2380 1255 2180c71,110 153,136 252,47l1696 -2069c45,-86 113,-148 233,-159l2628 -438c172,-11 213,-97 121,-261l-1592 -2809 -54 -94 -8 -14 -29 -51 -21 -38 -28 6 -227 46 -122 25 -77 16 -4033 826z"/>
    <path class="fil1" d="M12657 16089l65 -37 -75 -129 -64 37 74 129zm-5164 942l-65 37 75 129 64 -37 -74 -129zm149 259l-65 37 74 129 65 -37 -74 -129zm148 258l-64 37 74 130 65 -38 -75 -129zm149 259l-65 37 75 129 64 -37 -74 -129zm149 258l-65 38 74 129 65 -37 -74 -130zm148 259l-64 37 74 129 64 -37 -74 -129zm149 259l-65 37 74 129 65 -37 -74 -129zm148 258l-64 37 74 130 65 -37 -75 -130zm149 259l-65 37 75 129 64 -37 -74 -129zm149 258l-65 38 74 129 65 -37 -74 -130zm148 259l-64 37 74 129 65 -37 -75 -129zm149 259l-65 37 75 129 64 -37 -74 -129zm149 258l-65 37 74 130 65 -37 -74 -130zm148 259l-65 37 75 129 64 -37 -74 -129zm149 258l-65 38 74 129 65 -37 -74 -130zm148 259l-64 37 74 129 65 -37 -75 -129zm149 258l-65 38 74 129 65 -37 -74 -130zm91 217l57 48 95 -115 -57 -48 -95 115zm191 -229l57 48 96 -115 -58 -48 -95 115zm191 -229l57 48 96 -115 -57 -48 -96 115zm191 -229l57 48 96 -115 -57 -47 -96 114zm191 -229l57 48 96 -115 -57 -47 -96 114zm191 -229l58 48 95 -115 -57 -47 -96 114zm192 -229l57 48 95 -114 -57 -48 -95 114zm191 -229l57 48 95 -114 -57 -48 -95 114zm191 -229l57 48 96 -114 -58 -48 -95 114zm191 -229l11 10 27 47 142 -23 -12 -73 -156 25 -12 14zm315 -63l12 74 147 -24 -11 -74 -148 24zm295 -47l12 73 147 -23 -12 -74 -147 24zm294 -47l12 73 147 -23 -11 -74 -148 24zm295 -47l12 73 147 -23 -12 -74 -147 24zm294 -48l12 74 148 -24 -12 -73 -148 23zm295 -47l12 74 147 -24 -12 -73 -147 23zm294 -47l12 74 147 -24 -11 -74 -148 24zm295 -47l12 74 147 -24 -12 -74 -147 24zm243 -3l65 -38 -75 -129 -64 38 74 129zm-149 -258l64 -38 -75 -129 -64 38 75 129zm-150 -259l65 -37 -75 -129 -65 37 75 129zm-149 -258l64 -37 -75 -129 -64 37 75 129zm-150 -258l65 -37 -75 -129 -65 37 75 129zm-149 -258l64 -37 -75 -129 -64 37 75 129zm-150 -258l65 -37 -75 -129 -65 37 75 129zm-150 -258l65 -37 -75 -129 -64 37 74 129zm-149 -258l64 -37 -74 -129 -65 37 75 129zm-150 -258l65 -37 -75 -129 -64 37 74 129zm-149 -258l64 -37 -74 -129 -65 37 75 129z"/>
    <path class="fil2" d="M4080 15882c-568,1002 -1136,2004 -1704,3007 -92,163 -51,250 121,261 876,146 1752,292 2628,438 120,11 188,73 233,158 566,690 1131,1379 1696,2069 99,89 181,63 252,-47 897,-1558 1794,-3116 2691,-4674 -1972,-404 -3944,-808 -5917,-1212z"/>
    <path class="fil1" d="M4447 16051l-65 -37 75 -129 65 37 -75 129zm5164 942l65 37 -75 129 -64 -37 74 -129zm-149 258l65 37 -74 130 -65 -37 74 -130zm-148 259l64 37 -74 129 -65 -37 75 -129zm-149 259l65 37 -75 129 -64 -37 74 -129zm-149 258l65 37 -74 130 -65 -38 74 -129zm-148 259l65 37 -75 129 -64 -37 74 -129zm-149 258l65 37 -74 130 -65 -37 74 -130zm-148 259l64 37 -74 129 -65 -37 75 -129zm-149 259l65 37 -75 129 -64 -37 74 -129zm-149 258l65 37 -74 130 -65 -38 74 -129zm-148 259l64 37 -74 129 -65 -37 75 -129zm-149 258l65 37 -74 130 -65 -37 74 -130zm-148 259l64 37 -74 129 -65 -37 75 -129zm-149 259l65 37 -75 129 -64 -37 74 -129zm-149 258l65 37 -74 130 -65 -38 74 -129zm-148 259l64 37 -74 129 -65 -37 75 -129zm-149 258l65 37 -74 130 -65 -38 74 -129zm-91 217l-57 47 -95 -114 57 -48 95 115zm-191 -229l-57 47 -96 -114 58 -48 95 115zm-191 -229l-57 47 -96 -114 57 -48 96 115zm-191 -229l-57 48 -96 -115 57 -48 96 115zm-191 -229l-57 48 -96 -115 57 -48 96 115zm-191 -229l-58 48 -95 -115 57 -48 96 115zm-192 -229l-57 48 -95 -115 57 -48 95 115zm-191 -229l-57 48 -95 -115 57 -47 95 114zm-191 -229l-57 48 -96 -115 58 -47 95 114zm-191 -229l-11 9 -27 48 -142 -23 12 -74 156 25 12 15zm-315 -63l-12 73 -147 -23 11 -74 148 24zm-295 -47l-12 73 -147 -23 12 -74 147 24zm-294 -48l-12 74 -147 -24 11 -73 148 23zm-295 -47l-12 74 -147 -24 12 -73 147 23zm-294 -47l-12 74 -147 -24 11 -74 148 24zm-295 -47l-12 74 -147 -24 12 -74 147 24zm-294 -47l-12 73 -147 -23 11 -74 148 24zm-295 -47l-12 73 -147 -23 12 -74 147 24zm-243 -4l-65 -37 75 -129 64 37 -74 129zm149 -258l-64 -37 75 -129 64 37 -75 129zm150 -258l-65 -37 75 -129 65 37 -75 129zm149 -258l-64 -37 75 -129 64 37 -75 129zm150 -258l-65 -37 75 -129 65 37 -75 129zm149 -258l-64 -37 75 -129 64 37 -75 129zm150 -258l-64 -37 74 -129 65 37 -75 129zm150 -258l-65 -37 75 -129 64 37 -74 129zm149 -258l-64 -37 74 -129 65 37 -75 129zm150 -258l-65 -37 75 -129 64 37 -74 129zm149 -258l-64 -37 74 -129 65 37 -75 129z"/>
   </g>
   <circle class="fil3" cx="8665" cy="8598" r="8598"/>
   <path class="fil4" d="M8665 0c4786,0 8665,3880 8665,8665 0,4786 -3879,8665 -8665,8665 -4785,0 -8665,-3879 -8665,-8665 0,-4785 3880,-8665 8665,-8665zm0 2363c3481,0 6302,2822 6302,6302 0,3481 -2821,6302 -6302,6302 -3480,0 -6302,-2821 -6302,-6302 0,-3480 2822,-6302 6302,-6302z"/>
   <path class="fil5" d="M1499 10114c-47,-238 -83,-477 -107,-718 -23,-241 -35,-484 -35,-726 0,-243 12,-485 35,-727 24,-241 60,-480 107,-717 8,-39 -17,-77 -56,-85 -39,-7 -77,18 -84,57 -48,241 -85,486 -109,731 -24,246 -36,493 -36,741 0,247 12,494 36,740 24,245 61,490 109,732 7,39 45,64 84,56 39,-8 64,-46 56,-84z"/>
   <path class="fil6" d="M8665 108c2363,0 4502,958 6051,2506 1548,1549 2506,3688 2506,6051 0,2363 -958,4502 -2506,6051 -1549,1548 -3688,2506 -6051,2506 -2363,0 -4502,-958 -6051,-2506 -1548,-1549 -2506,-3688 -2506,-6051 0,-2363 958,-4502 2506,-6051 1549,-1548 3688,-2506 6051,-2506zm5998 2559c-1535,-1535 -3656,-2484 -5998,-2484 -2342,0 -4463,949 -5998,2484 -1535,1535 -2484,3656 -2484,5998 0,2342 949,4463 2484,5998 1535,1535 3656,2485 5998,2485 2342,0 4463,-950 5998,-2485 1535,-1535 2485,-3656 2485,-5998 0,-2342 -950,-4463 -2485,-5998z"/>
   <path class="fil6" d="M8665 236c2328,0 4435,944 5960,2469 1526,1525 2469,3633 2469,5960 0,2328 -943,4435 -2469,5960 -1525,1526 -3632,2469 -5960,2469 -2327,0 -4435,-943 -5960,-2469 -1525,-1525 -2469,-3632 -2469,-5960 0,-2327 944,-4435 2469,-5960 1525,-1525 3633,-2469 5960,-2469zm5907 2522c-1511,-1512 -3600,-2447 -5907,-2447 -2307,0 -4395,935 -5907,2447 -1512,1512 -2447,3600 -2447,5907 0,2307 935,4396 2447,5907 1512,1512 3600,2447 5907,2447 2307,0 4396,-935 5907,-2447 1512,-1511 2447,-3600 2447,-5907 0,-2307 -935,-4395 -2447,-5907z"/>
   <path class="fil5" d="M15932 7226c48,237 84,477 107,717 24,242 36,484 36,727 0,242 -12,485 -36,726 -23,241 -59,480 -107,718 -7,39 18,76 57,84 39,8 76,-17 84,-56 48,-242 84,-487 108,-732 25,-246 37,-493 37,-740 0,-247 -12,-495 -37,-741 -24,-245 -60,-489 -108,-731 -8,-39 -45,-64 -84,-57 -39,8 -64,46 -57,85z"/>
   <path class="fil7" d="M1453 10109c-47,-237 -83,-477 -107,-718 -23,-241 -35,-483 -35,-726 0,-242 12,-485 35,-726 24,-241 60,-481 107,-718 8,-39 -17,-77 -56,-84 -39,-8 -77,17 -84,56 -49,242 -84,486 -109,732 -24,246 -36,493 -36,740 0,247 12,494 36,740 25,246 60,490 109,732 7,39 45,64 84,57 39,-8 64,-46 56,-85z"/>
   <path class="fil8" d="M15877 7221c47,237 83,477 107,718 24,241 35,484 35,726 0,243 -11,485 -35,726 -24,241 -60,481 -107,718 -8,39 18,77 56,85 39,7 77,-18 85,-57 48,-242 84,-486 108,-732 24,-246 37,-493 37,-740 0,-247 -13,-494 -37,-740 -24,-246 -60,-490 -108,-732 -8,-39 -46,-64 -85,-56 -38,7 -64,45 -56,84z"/>
   <circle class="fil9" cx="8665" cy="8665" r="6308"/>
   <path class="fil10" d="M13871 6630c-27,-70 -133,-53 -133,26 0,9 1,16 4,24 17,42 33,85 48,127 31,81 151,46 132,-40l-2 -7c-16,-44 -32,-87 -49,-130zm-10266 7c11,-30 2,-63 -25,-81 -38,-26 -85,-11 -103,30 -18,44 -34,87 -51,131 -27,70 67,129 120,66 4,-6 7,-12 10,-19 15,-42 32,-84 49,-127zm-214 646c20,-73 -82,-123 -126,-52 -4,6 -6,11 -8,18 -11,45 -23,90 -33,135 -19,84 104,122 133,35 12,-45 22,-91 34,-136zm-132 668c11,-83 -112,-112 -135,-25l-1 7c-7,46 -12,92 -17,138 -2,26 8,50 29,64 42,31 104,2 108,-49 5,-45 10,-90 16,-135zm-47 678c0,-73 -99,-97 -132,-28 -3,10 -5,18 -5,28 -1,46 0,93 0,139 4,88 130,91 138,3 1,-46 -1,-95 -1,-142zm39 679c-11,-84 -137,-79 -137,11 3,47 12,98 18,144 2,15 11,31 22,41 49,43 123,4 115,-61 -7,-45 -13,-90 -18,-135zm123 669c-24,-85 -151,-57 -135,31 11,46 24,93 36,138 21,77 139,62 136,-23 -1,-5 -1,-9 -3,-14 -12,-44 -23,-88 -34,-132zm205 649c-26,-68 -130,-53 -134,23 0,10 2,18 5,27 17,44 34,87 52,130 14,32 49,49 82,39 40,-10 61,-55 45,-92 -17,-42 -34,-85 -50,-127zm283 619c-40,-74 -152,-25 -126,55 2,3 3,7 5,10 22,41 45,82 67,122 35,64 140,34 128,-46 -1,-8 -4,-15 -8,-22 -22,-33 -47,-83 -66,-119zm358 578c-41,-60 -141,-19 -123,57 3,9 6,15 11,23 27,38 54,76 82,113 51,65 152,4 118,-71 -2,-4 -4,-8 -7,-12 -28,-36 -54,-73 -81,-110zm428 529c-55,-57 -148,6 -112,79 3,6 6,10 10,15 32,34 64,68 96,101 58,58 153,-13 106,-87 -2,-3 -4,-6 -7,-9 -32,-32 -63,-66 -93,-99zm490 472c-45,-40 -119,-3 -113,58 1,18 11,35 24,47 36,30 72,60 108,89 33,26 79,18 102,-17 18,-29 11,-70 -16,-91 -35,-28 -70,-57 -105,-86zm546 406c-30,-19 -67,-13 -90,13 -27,31 -20,81 15,103 39,25 78,50 118,74 63,40 140,-40 87,-104 -4,-5 -9,-9 -15,-13 -39,-24 -77,-48 -115,-73zm592 335c-73,-35 -137,63 -73,116 4,3 8,6 13,8 42,21 84,40 126,60 77,33 135,-71 68,-120 -4,-2 -7,-4 -11,-6 -42,-19 -83,-38 -123,-58zm629 260c-80,-25 -129,83 -56,126 4,1 7,3 11,4 44,15 88,30 133,44 76,24 127,-84 54,-126 -4,-2 -9,-4 -13,-6 -43,-13 -86,-27 -129,-42zm656 180c-71,-16 -118,81 -51,126 8,5 14,7 23,9 45,9 91,18 137,26 80,15 116,-100 36,-132 -4,-1 -8,-2 -12,-3 -44,-8 -89,-17 -133,-26zm673 96c-79,-7 -106,108 -25,135 5,1 9,2 14,3 47,3 93,6 140,9 77,3 102,-104 27,-134 -7,-2 -13,-4 -21,-4 -45,-2 -90,-6 -135,-9zm680 11c-77,3 -91,114 -15,135 8,2 14,3 22,3 46,-2 93,-5 139,-8 84,-8 86,-130 -1,-138 -3,0 -6,0 -9,0 -45,3 -91,6 -136,8zm676 -74c-79,15 -74,133 11,137 5,0 9,0 13,-1 46,-8 92,-16 137,-26 88,-19 65,-147 -24,-135 -46,8 -91,17 -137,25zm662 -157c-82,26 -53,149 34,133 46,-12 95,-29 140,-44 69,-22 60,-130 -21,-134 -9,0 -15,1 -23,3 -43,15 -87,29 -130,42zm637 -239c-69,30 -45,139 37,132 7,-1 13,-3 20,-6 42,-19 84,-38 126,-58 16,-8 28,-20 35,-36 23,-59 -37,-116 -94,-89 -41,20 -82,39 -124,57zm603 -315c-70,44 -19,150 59,124 5,-2 8,-4 13,-6 40,-24 79,-49 118,-74 62,-39 27,-137 -48,-126 -10,2 -17,4 -26,10 -39,24 -77,49 -116,72zm559 -388c-59,46 -9,145 67,119 7,-3 13,-6 19,-11 36,-29 73,-58 108,-88 21,-18 30,-45 22,-71 -13,-49 -72,-67 -110,-35 -35,30 -71,58 -106,86zm506 -454c-55,55 13,148 85,107 5,-3 9,-7 14,-11 32,-33 64,-67 96,-101 56,-63 -24,-151 -92,-102 -3,3 -6,5 -9,8 -31,33 -62,66 -94,99zm445 -515c-45,58 24,141 93,100 7,-5 12,-10 17,-17 28,-37 56,-74 83,-112 48,-69 -43,-146 -104,-90 -3,3 -6,7 -8,10 -27,37 -54,73 -81,109zm377 -566c-42,77 65,145 117,74 25,-40 48,-85 71,-127 39,-70 -57,-141 -113,-77 -3,4 -6,7 -8,11 -22,40 -44,79 -67,119zm304 -609c-30,72 65,134 118,70 4,-6 7,-10 9,-16 18,-43 35,-86 53,-129 29,-76 -73,-131 -120,-65 -3,5 -6,9 -8,14 -18,40 -34,85 -52,126zm227 -641c-9,30 3,61 30,77 38,24 90,4 102,-40 13,-45 25,-90 37,-135 18,-67 -70,-118 -121,-60 -6,9 -10,16 -13,27 -11,43 -23,87 -35,131zm144 -665c-10,74 85,109 126,48 5,-9 9,-17 10,-27 7,-46 14,-92 20,-139 10,-76 -99,-110 -132,-35 -3,6 -4,12 -5,18 -6,45 -12,90 -19,135zm61 -677c-3,72 99,99 131,31 4,-10 6,-17 7,-28 1,-47 1,-93 2,-140 0,-71 -96,-96 -131,-30 -5,10 -7,19 -7,30 0,46 -1,91 -2,137zm-25 -680c7,77 122,86 137,3 1,-6 1,-11 1,-17 -4,-46 -10,-93 -16,-139 -10,-82 -133,-79 -137,8 0,3 0,6 0,9 6,45 11,91 15,136zm-108 -672c18,81 143,66 135,-24l-1 -7c-10,-45 -21,-90 -32,-135 -24,-86 -151,-57 -135,30 11,46 23,91 33,136z"/>
   <path class="fil11" d="M8665 2339c1747,0 3329,708 4474,1853 1145,1144 1853,2726 1853,4473 0,1747 -708,3329 -1853,4474 -1145,1145 -2727,1853 -4474,1853 -1747,0 -3329,-708 -4473,-1853 -1145,-1145 -1853,-2727 -1853,-4474 0,-1747 708,-3329 1853,-4473 1144,-1145 2726,-1853 4473,-1853zm0 74c3453,0 6252,2799 6252,6252 0,3453 -2799,6252 -6252,6252 -3453,0 -6252,-2799 -6252,-6252 0,-3453 2799,-6252 6252,-6252z"/>
   <circle class="fil12" cx="8665" cy="8665" r="4868"/>
   <path class="fil13" d="M8665 2337c3490,0 6319,2825 6319,6308 0,27 0,53 -1,79 -42,-3448 -2854,-6230 -6318,-6230 -3464,0 -6276,2782 -6318,6230 0,-26 -1,-52 -1,-79 0,-3483 2829,-6308 6319,-6308z"/>
   <path class="fil3" d="M8682 3389c2914,0 5276,2362 5276,5276 0,2914 -2362,5276 -5276,5276 -2914,0 -5276,-2362 -5276,-5276 0,-2914 2362,-5276 5276,-5276z"/>
   <path class="fil14" d="M8665 3803c1343,0 2558,544 3438,1424 880,880 1424,2096 1424,3438 0,1343 -544,2558 -1424,3438 -880,880 -2095,1424 -3438,1424 -1342,0 -2558,-544 -3438,-1424 -880,-880 -1424,-2095 -1424,-3438 0,-1342 544,-2558 1424,-3438 880,-880 2096,-1424 3438,-1424zm0 75c2644,0 4788,2143 4788,4787 0,2644 -2144,4788 -4788,4788 -2644,0 -4787,-2144 -4787,-4788 0,-2644 2143,-4787 4787,-4787z"/>
  </g>
  <path class="fil15" d="M5301 1997l385 754c-9,8 -21,18 -34,28 -13,11 -29,21 -48,31 -46,23 -81,32 -105,26 -24,-7 -45,-26 -62,-59l-123 -241 -226 115c10,43 6,83 -11,119 -17,37 -48,66 -93,89 -54,28 -101,36 -141,23 -39,-12 -68,-36 -87,-72 -14,-28 -21,-63 -19,-103l36 -18c21,-11 34,-25 39,-43 6,-18 3,-39 -9,-63l-109 -211c-9,-18 -20,-28 -33,-31 -13,-3 -27,-1 -40,6 -14,7 -23,16 -28,27 -5,11 -5,23 0,37 -9,8 -18,15 -27,19 -30,15 -58,20 -83,12 -26,-7 -46,-25 -60,-53 -11,-22 -16,-43 -16,-65 1,-22 7,-43 17,-63 11,-20 26,-39 45,-56 20,-17 42,-33 69,-46 79,-40 148,-54 208,-41 60,13 107,52 141,119l127 248 217 -111 -138 -271 -84 44c-23,11 -42,12 -57,4 -16,-9 -30,-26 -44,-53 -5,-10 -10,-24 -15,-39 -5,-16 -8,-30 -9,-40l433 -221c39,-21 72,-6 98,45 6,11 11,25 16,42 5,17 8,31 8,41l-138 71zm417 -213l386 753c-10,9 -21,18 -34,29 -13,10 -29,20 -49,30 -46,24 -80,32 -104,26 -24,-6 -45,-26 -62,-59l-344 -673 -95 48c-22,12 -41,13 -57,5 -15,-9 -30,-27 -43,-53 -6,-11 -11,-24 -16,-40 -5,-16 -8,-29 -8,-40l442 -226c40,-20 73,-5 99,45 5,11 11,25 16,42 5,17 7,31 7,43l-138 70zm1081 -348l232 814c-10,6 -22,13 -37,20 -15,8 -33,15 -54,21 -49,14 -85,16 -108,5 -22,-11 -38,-34 -48,-70l-59 -205c-22,22 -48,42 -77,59 -29,17 -62,30 -99,41 -103,29 -192,24 -268,-17 -75,-41 -128,-117 -160,-228l-65 -229 -77 22c-25,7 -43,5 -57,-7 -13,-11 -24,-31 -32,-60 -4,-11 -6,-25 -8,-42 -2,-16 -2,-30 -1,-41l972 -276c43,-12 73,9 88,64 4,11 6,26 9,43 2,18 2,32 -1,43l-150 43zm-250 492c27,-8 51,-19 73,-35 22,-16 38,-33 47,-50l-356 -144 29 102c18,63 44,104 77,122 34,19 77,20 130,5zm89 -213l-61 -216 -281 80 342 136zm614 -408l231 814c-10,6 -23,14 -38,21 -15,8 -33,15 -54,21 -49,14 -85,15 -107,5 -23,-11 -39,-34 -49,-70l-207 -727 -103 29c-24,7 -43,4 -56,-7 -14,-12 -25,-32 -33,-60 -3,-11 -6,-26 -7,-42 -2,-17 -2,-30 -1,-41l478 -136c43,-12 73,9 88,64 3,11 6,26 8,44 1,17 1,32 -2,43l-148 42zm1716 -113l22 846c-11,4 -25,7 -41,11 -17,4 -37,6 -58,7 -51,1 -85,-6 -104,-22 -19,-16 -29,-43 -30,-80l-8 -282c-17,4 -35,7 -54,10 -18,2 -37,4 -57,4 -38,1 -80,-3 -127,-12 -46,-9 -87,-25 -122,-47 -20,13 -41,24 -63,32 -23,9 -48,15 -74,19 36,58 81,106 135,145 55,40 109,70 162,91 1,41 -10,77 -34,108 -24,31 -61,47 -111,48 -33,1 -67,-7 -100,-22 -34,-16 -66,-39 -97,-71 -31,-32 -60,-72 -87,-119 -27,-48 -50,-103 -68,-164 -35,-4 -60,-15 -74,-34 -15,-19 -23,-42 -23,-71 -1,-18 2,-36 8,-53 6,-17 14,-32 25,-44 14,3 32,5 54,6 21,1 43,1 64,1 60,-2 105,-17 133,-45 28,-28 42,-64 41,-108 -1,-25 -5,-49 -14,-71 -8,-22 -18,-43 -31,-64l-321 9c-25,0 -43,-7 -53,-21 -11,-15 -16,-37 -17,-66 0,-12 1,-26 3,-43 2,-16 6,-30 10,-39l1211 -32c45,-1 68,26 70,83 0,12 -1,27 -4,45 -3,17 -6,31 -10,41l-156 4zm-373 308c56,-1 106,-13 149,-35l-7 -267 -267 7c12,25 23,51 33,80 9,28 14,59 15,93 1,39 -5,78 -20,115 31,6 63,8 97,7zm1526 -174l-106 840c-12,1 -27,3 -43,4 -17,1 -36,1 -58,-2 -51,-7 -85,-19 -101,-38 -16,-18 -22,-46 -18,-83l34 -269 -273 -34c-34,89 -100,128 -200,115 -61,-7 -104,-27 -130,-60 -25,-32 -36,-69 -30,-109 4,-35 18,-66 41,-95l39 5c23,2 42,-2 57,-15 15,-12 24,-31 27,-56l37 -294 -169 -22c-25,-3 -42,-12 -50,-28 -8,-16 -10,-39 -6,-68 1,-12 5,-26 9,-42 5,-16 10,-28 16,-38l1048 133c44,5 63,36 56,93 -1,12 -5,26 -10,43 -5,17 -10,30 -17,39l-153 -19zm-531 239l262 33 38 -301 -262 -33 -38 301zm1762 126l-273 802c-12,-1 -26,-2 -43,-4 -17,-3 -36,-8 -57,-15 -47,-16 -77,-35 -90,-56 -13,-22 -14,-51 -2,-86l37 -108c-35,6 -74,7 -116,4 -42,-3 -88,-13 -137,-30 -89,-30 -160,-74 -214,-132 -53,-57 -87,-121 -101,-192 -7,-31 -11,-63 -11,-95 0,-33 5,-61 13,-84 5,-15 12,-26 23,-32 10,-7 26,-8 47,-3 46,9 88,15 128,18 39,2 75,1 106,-5 32,-6 58,-18 80,-34 22,-16 37,-38 47,-66 9,-27 9,-50 1,-68 -9,-19 -23,-32 -43,-38 -21,-7 -39,-7 -56,2 -17,9 -29,25 -38,49 -5,14 -7,27 -7,38 -1,11 0,21 2,29 -13,9 -30,13 -51,13 -21,1 -44,-3 -67,-11 -17,-6 -32,-14 -45,-24 -13,-10 -24,-23 -32,-38 -9,-15 -13,-32 -14,-52 -1,-20 3,-42 11,-66 10,-28 25,-53 46,-74 22,-22 47,-38 78,-49 30,-11 65,-17 105,-16 40,0 82,8 128,23 46,16 86,37 117,63 32,25 56,54 72,86 16,33 25,67 26,104 2,37 -4,74 -17,113 -15,42 -36,77 -64,104 -29,28 -62,49 -99,64 -38,16 -80,25 -125,28 -46,3 -92,1 -139,-6 4,36 21,71 51,105 31,35 74,61 130,80 44,15 86,21 126,19 41,-2 77,-11 107,-26l173 -510c6,-17 17,-30 31,-38 14,-8 29,-9 46,-3l264 90c42,14 54,48 36,102 -4,12 -10,25 -19,41 -9,15 -17,27 -24,35l-147 -51zm-163 -225c-21,-37 -33,-78 -36,-123 -3,-45 2,-87 16,-128 12,-35 29,-65 50,-90 22,-25 48,-44 78,-57 30,-13 62,-20 97,-21 35,0 72,6 111,19 64,22 103,47 119,77 16,30 19,60 8,91 -11,31 -27,52 -48,64 -10,-8 -20,-15 -31,-21 -10,-6 -23,-12 -37,-17 -32,-11 -64,-9 -94,4 -30,14 -51,40 -65,79 -11,33 -14,64 -9,96 5,32 13,62 24,90l-183 -63zm1105 664l-72 142c28,-3 58,-1 90,5 32,6 66,19 103,38 38,19 71,44 98,74 27,30 47,63 59,99 13,37 18,76 15,118 -3,42 -16,86 -39,130 -22,44 -49,80 -81,107 -31,26 -65,45 -100,56 -35,11 -71,15 -107,11 -37,-4 -72,-15 -105,-32 -86,-43 -112,-98 -78,-164 7,-14 16,-26 25,-35 10,-10 21,-18 31,-25 12,9 25,18 41,26 29,15 59,18 89,10 30,-7 55,-30 74,-67 17,-34 20,-66 8,-98 -11,-31 -36,-56 -73,-75 -24,-12 -48,-19 -71,-19 -23,-1 -44,2 -65,9l-227 444c-11,-2 -25,-6 -41,-10 -17,-5 -35,-13 -55,-22 -44,-23 -72,-46 -81,-70 -10,-23 -6,-51 11,-84l38 -75c-28,3 -59,1 -92,-5 -33,-7 -68,-19 -105,-38 -37,-19 -69,-43 -97,-73 -27,-29 -48,-62 -61,-99 -14,-37 -20,-77 -17,-120 2,-43 15,-88 39,-135 22,-44 49,-79 81,-105 32,-26 65,-44 101,-55 35,-10 71,-13 108,-8 38,4 73,14 107,32 48,24 78,51 91,81 13,30 12,61 -4,92 -15,28 -34,48 -59,60 -5,-5 -11,-11 -18,-16 -6,-6 -16,-12 -30,-19 -31,-16 -62,-20 -93,-13 -31,8 -55,30 -74,66 -17,34 -20,67 -8,99 12,32 37,57 74,76 27,14 53,21 77,22 24,1 46,-3 66,-10l220 -431 -500 -255c-23,-11 -35,-26 -37,-44 -2,-17 4,-39 17,-65 6,-11 13,-23 23,-37 10,-13 19,-23 28,-30l1239 632c39,20 45,56 19,106 -5,11 -13,24 -23,38 -11,14 -21,24 -30,31l-529 -270z"/>
  <path class="fil16" d="M5301 1938l385 754c-9,8 -21,18 -34,28 -13,10 -29,21 -48,30 -46,24 -81,32 -105,26 -24,-6 -45,-25 -62,-59l-123 -241 -226 116c10,43 6,83 -11,119 -17,36 -48,66 -93,89 -54,28 -101,36 -141,23 -39,-12 -68,-36 -87,-72 -14,-29 -21,-63 -19,-103l36 -19c21,-10 34,-24 39,-42 6,-19 3,-39 -9,-63l-109 -211c-9,-18 -20,-28 -33,-31 -13,-3 -27,-1 -40,6 -14,6 -23,15 -28,27 -5,11 -5,23 0,37 -9,8 -18,14 -27,19 -30,15 -58,19 -83,12 -26,-7 -46,-25 -60,-53 -11,-22 -16,-43 -16,-65 1,-22 7,-43 17,-63 11,-20 26,-39 45,-56 20,-17 42,-33 69,-46 79,-41 148,-54 208,-41 60,13 107,52 141,118l127 249 217 -112 -138 -270 -84 43c-23,12 -42,13 -57,5 -16,-9 -30,-27 -44,-53 -5,-11 -10,-24 -15,-40 -5,-16 -8,-29 -9,-40l433 -221c39,-20 72,-5 98,46 6,10 11,24 16,41 5,18 8,31 8,42l-138 71zm417 -213l386 753c-10,9 -21,18 -34,28 -13,11 -29,21 -49,31 -46,23 -80,32 -104,26 -24,-6 -45,-26 -62,-59l-344 -673 -95 48c-22,12 -41,13 -57,4 -15,-8 -30,-26 -43,-52 -6,-11 -11,-24 -16,-40 -5,-16 -8,-29 -8,-40l442 -226c40,-20 73,-5 99,45 5,11 11,25 16,42 5,17 7,31 7,42l-138 71zm1081 -348l232 814c-10,6 -22,13 -37,20 -15,8 -33,15 -54,21 -49,14 -85,16 -108,5 -22,-11 -38,-34 -48,-70l-59 -205c-22,22 -48,42 -77,59 -29,17 -62,30 -99,41 -103,29 -192,23 -268,-17 -75,-41 -128,-117 -160,-228l-65 -229 -77 22c-25,7 -43,5 -57,-7 -13,-11 -24,-31 -32,-60 -4,-11 -6,-25 -8,-42 -2,-16 -2,-30 -1,-41l972 -276c43,-13 73,9 88,63 4,12 6,27 9,44 2,18 2,32 -1,43l-150 43zm-250 492c27,-8 51,-20 73,-35 22,-16 38,-33 47,-50l-356 -145 29 103c18,63 44,104 77,122 34,18 77,20 130,5zm89 -213l-61 -216 -281 80 342 136zm614 -408l231 814c-10,6 -23,13 -38,21 -15,8 -33,14 -54,20 -49,14 -85,16 -107,5 -23,-10 -39,-33 -49,-69l-207 -728 -103 30c-24,7 -43,4 -56,-7 -14,-12 -25,-32 -33,-60 -3,-12 -6,-26 -7,-42 -2,-17 -2,-30 -1,-41l478 -136c43,-12 73,9 88,64 3,11 6,26 8,44 1,17 1,32 -2,43l-148 42zm1716 -113l22 846c-11,4 -25,7 -41,11 -17,4 -37,6 -58,6 -51,2 -85,-6 -104,-22 -19,-15 -29,-42 -30,-79l-8 -282c-17,4 -35,7 -54,9 -18,3 -37,5 -57,5 -38,1 -80,-3 -127,-12 -46,-9 -87,-25 -122,-47 -20,13 -41,23 -63,32 -23,9 -48,15 -74,19 36,57 81,106 135,145 55,40 109,70 162,90 1,42 -10,78 -34,109 -24,30 -61,46 -111,48 -33,1 -67,-7 -100,-22 -34,-16 -66,-40 -97,-72 -31,-32 -60,-71 -87,-119 -27,-47 -50,-102 -68,-164 -35,-3 -60,-14 -74,-33 -15,-19 -23,-42 -23,-71 -1,-18 2,-36 8,-53 6,-17 14,-32 25,-44 14,2 32,4 54,6 21,1 43,1 64,0 60,-1 105,-16 133,-44 28,-28 42,-64 41,-108 -1,-25 -5,-49 -14,-71 -8,-22 -18,-43 -31,-64l-321 9c-25,0 -43,-7 -53,-21 -11,-15 -16,-37 -17,-66 0,-12 1,-27 3,-43 2,-17 6,-30 10,-40l1211 -31c45,-2 68,26 70,83 0,12 -1,27 -4,45 -3,17 -6,31 -10,41l-156 4zm-373 308c56,-1 106,-13 149,-35l-7 -267 -267 7c12,25 23,51 33,79 9,29 14,60 15,94 1,39 -5,77 -20,115 31,6 63,8 97,7zm1526 -174l-106 839c-12,2 -27,4 -43,5 -17,1 -36,0 -58,-2 -51,-7 -85,-19 -101,-38 -16,-19 -22,-46 -18,-83l34 -269 -273 -34c-34,89 -100,128 -200,115 -61,-8 -104,-28 -130,-60 -25,-33 -36,-69 -30,-109 4,-35 18,-67 41,-96l39 5c23,3 42,-2 57,-14 15,-12 24,-31 27,-56l37 -295 -169 -21c-25,-3 -42,-13 -50,-29 -8,-15 -10,-38 -6,-67 1,-12 5,-26 9,-42 5,-16 10,-29 16,-38l1048 132c44,6 63,37 56,93 -1,12 -5,27 -10,44 -5,17 -10,30 -17,39l-153 -19zm-531 239l262 33 38 -301 -262 -33 -38 301zm1762 126l-273 802c-12,-1 -26,-2 -43,-5 -17,-2 -36,-7 -57,-14 -47,-16 -77,-35 -90,-57 -13,-21 -14,-50 -2,-85l37 -109c-35,7 -74,8 -116,5 -42,-4 -88,-13 -137,-30 -89,-30 -160,-74 -214,-132 -53,-57 -87,-122 -101,-192 -7,-31 -11,-63 -11,-95 0,-33 5,-61 13,-85 5,-14 12,-25 23,-32 10,-7 26,-7 47,-2 46,9 88,15 128,18 39,2 75,0 106,-6 32,-6 58,-17 80,-33 22,-16 37,-38 47,-66 9,-27 9,-50 1,-69 -9,-18 -23,-31 -43,-37 -21,-8 -39,-7 -56,2 -17,9 -29,25 -38,49 -5,14 -7,27 -7,38 -1,11 0,21 2,29 -13,8 -30,13 -51,13 -21,0 -44,-3 -67,-11 -17,-6 -32,-14 -45,-24 -13,-11 -24,-23 -32,-38 -9,-15 -13,-33 -14,-52 -1,-20 3,-42 11,-66 10,-28 25,-53 46,-74 22,-22 47,-38 78,-49 30,-11 65,-17 105,-17 40,1 82,9 128,24 46,16 86,37 117,62 32,26 56,55 72,87 16,32 25,67 26,104 2,37 -4,74 -17,112 -15,43 -36,78 -64,105 -29,27 -62,49 -99,64 -38,16 -80,25 -125,28 -46,3 -92,1 -139,-6 4,36 21,71 51,105 31,34 74,61 130,80 44,15 86,21 126,19 41,-3 77,-11 107,-26l173 -510c6,-17 17,-30 31,-38 14,-8 29,-9 46,-3l264 90c42,14 54,48 36,102 -4,11 -10,25 -19,40 -9,16 -17,28 -24,36l-147 -51zm-163 -225c-21,-37 -33,-78 -36,-123 -3,-45 2,-88 16,-128 12,-35 29,-65 50,-90 22,-25 48,-44 78,-57 30,-13 62,-20 97,-21 35,-1 72,6 111,19 64,22 103,47 119,77 16,30 19,60 8,91 -11,31 -27,52 -48,63 -10,-8 -20,-14 -31,-20 -10,-6 -23,-12 -37,-17 -32,-11 -64,-9 -94,4 -30,13 -51,40 -65,79 -11,32 -14,64 -9,96 5,32 13,61 24,90l-183 -63zm1105 664l-72 141c28,-2 58,0 90,6 32,6 66,19 103,38 38,19 71,44 98,74 27,29 47,63 59,99 13,37 18,76 15,118 -3,42 -16,85 -39,130 -22,44 -49,79 -81,106 -31,27 -65,46 -100,57 -35,11 -71,15 -107,11 -37,-4 -72,-15 -105,-32 -86,-43 -112,-98 -78,-165 7,-13 16,-25 25,-35 10,-9 21,-18 31,-24 12,9 25,18 41,26 29,15 59,18 89,10 30,-8 55,-30 74,-67 17,-34 20,-67 8,-98 -11,-31 -36,-56 -73,-75 -24,-12 -48,-19 -71,-20 -23,0 -44,3 -65,9l-227 445c-11,-2 -25,-6 -41,-11 -17,-4 -35,-12 -55,-22 -44,-23 -72,-46 -81,-69 -10,-23 -6,-51 11,-85l38 -74c-28,3 -59,1 -92,-6 -33,-6 -68,-19 -105,-38 -37,-18 -69,-43 -97,-72 -27,-29 -48,-62 -61,-99 -14,-37 -20,-77 -17,-120 2,-43 15,-88 39,-135 22,-44 49,-79 81,-105 32,-26 65,-44 101,-55 35,-10 71,-13 108,-9 38,5 73,15 107,33 48,24 78,51 91,81 13,30 12,61 -4,92 -15,28 -34,48 -59,60 -5,-5 -11,-11 -18,-16 -6,-6 -16,-12 -30,-19 -31,-16 -62,-20 -93,-13 -31,8 -55,30 -74,66 -17,34 -20,67 -8,99 12,31 37,57 74,76 27,14 53,21 77,22 24,0 46,-3 66,-10l220 -431 -500 -255c-23,-12 -35,-26 -37,-44 -2,-17 4,-39 17,-66 6,-10 13,-22 23,-36 10,-13 19,-23 28,-30l1239 632c39,20 45,55 19,106 -5,11 -13,23 -23,38 -11,14 -21,24 -30,31l-529 -270z"/>
  <path class="fil17" d="M4364 15092c-20,-5 -40,-15 -61,-30 -40,-30 -47,-63 -20,-101 26,-35 56,-62 89,-81 -5,-12 -12,-24 -21,-36 -9,-11 -20,-22 -33,-31 -35,-26 -70,-34 -106,-26 -35,8 -65,28 -89,61 -17,24 -28,48 -32,73 -3,24 -2,48 4,71 5,23 15,45 29,65 14,20 30,39 48,55 -2,4 -4,8 -6,11 -2,3 -4,6 -7,10 -13,18 -30,30 -50,34 -20,5 -43,-2 -68,-20 -22,-16 -40,-35 -57,-60 -16,-24 -28,-51 -36,-82 -7,-30 -10,-62 -7,-96 3,-34 12,-68 30,-101 -22,-11 -42,-23 -62,-37 -61,-45 -98,-98 -109,-160 -11,-62 9,-129 60,-200l117 -161 -55 -40c-14,-10 -20,-21 -21,-32 0,-11 6,-25 18,-41 4,-6 10,-13 18,-20 7,-8 14,-14 20,-18l1066 774c24,18 26,42 4,72 -5,6 -11,13 -19,21 -8,7 -15,13 -21,17l-104 -75 -396 546c-7,-3 -15,-6 -25,-11 -9,-5 -20,-11 -31,-19 -25,-18 -39,-35 -43,-51 -4,-16 1,-33 15,-52l210 -289c-6,-8 -13,-15 -22,-21 -36,-26 -72,-33 -109,-22 -37,11 -76,46 -118,103zm-269 -756l-112 155c-33,46 -47,84 -41,115 6,31 28,60 65,87 5,4 11,8 16,11 5,4 11,7 16,9 25,-22 51,-39 79,-51 29,-11 57,-17 85,-17 29,-1 56,4 84,12 27,9 52,22 76,40 31,22 54,46 71,72 17,26 29,53 37,79 28,-2 57,1 85,8 29,8 56,22 83,41 16,11 30,24 43,39l83 -114 -670 -486zm730 414c7,-31 9,-64 6,-98 -3,-34 -10,-68 -19,-100 -10,-32 -22,-62 -37,-90 -14,-28 -29,-52 -45,-71 2,-3 3,-6 5,-9 2,-2 4,-5 7,-9 14,-20 32,-33 54,-39 21,-7 43,-2 65,15 24,17 43,43 58,78 15,35 26,74 32,119 6,44 7,90 4,139 -4,49 -13,96 -27,140l-103 -75zm385 328l-303 602c-7,-2 -16,-4 -26,-7 -10,-2 -22,-7 -34,-13 -28,-14 -45,-29 -52,-44 -6,-15 -4,-33 7,-54l277 -550 -85 -43c-16,-8 -24,-17 -26,-28 -2,-12 2,-26 10,-43 4,-7 9,-15 15,-24 6,-8 12,-15 17,-20l110 55c-1,-13 1,-29 6,-47 4,-19 11,-36 19,-54 34,-66 86,-105 158,-117 72,-13 155,5 249,52 62,31 115,67 159,107 45,40 80,80 106,119 27,38 44,74 53,106 9,32 10,55 2,70 -8,16 -21,26 -41,29 -19,3 -41,-2 -65,-14 -18,-63 -47,-120 -88,-173 -41,-52 -97,-96 -168,-131 -56,-29 -104,-39 -145,-32 -42,6 -72,30 -93,71 -7,13 -12,27 -16,41 -4,15 -5,28 -5,39l90 45c27,14 32,37 16,70 -4,7 -9,15 -16,24 -6,9 -13,16 -18,21l-113 -57zm601 302l-88 175c-9,18 -19,28 -32,32 -13,3 -29,0 -48,-10l-131 -65c-46,-24 -89,-31 -127,-22 -38,10 -68,36 -90,79 -12,24 -18,47 -18,69 1,22 6,42 16,62 10,19 24,37 42,53 18,16 39,30 61,41 34,17 67,27 99,30 31,3 61,1 89,-6 11,13 18,27 20,43 3,16 1,32 -7,47 -7,13 -18,24 -34,31 -16,7 -35,10 -58,10 -23,0 -49,-4 -78,-11 -29,-8 -59,-19 -91,-35 -43,-22 -81,-47 -112,-76 -32,-30 -56,-61 -73,-96 -17,-34 -25,-71 -24,-110 1,-39 11,-79 32,-120 18,-35 40,-64 67,-88 27,-23 57,-40 91,-49 33,-10 70,-12 109,-8 39,5 80,18 122,39l73 37 59 -118 -381 -191c-27,-14 -32,-38 -15,-72 4,-7 8,-14 15,-23 6,-9 12,-15 18,-20l620 311c15,8 23,18 25,29 2,11 -1,25 -10,42 -3,7 -8,15 -14,24 -7,9 -13,16 -18,20l-109 -54zm603 229l-253 625c-6,-1 -15,-2 -26,-4 -10,-2 -22,-6 -34,-11 -29,-12 -48,-25 -55,-39 -7,-14 -7,-33 2,-54l109 -270 -193 -77c-15,-6 -28,-7 -39,-3 -11,4 -20,15 -28,33l-22 54c-11,1 -22,1 -33,0 -11,-1 -22,-3 -33,-8 -27,-11 -46,-30 -59,-57 -13,-28 -11,-60 4,-99 15,-37 38,-60 69,-71 32,-11 68,-8 108,9l271 109 77 -192 -441 -178c-28,-11 -35,-34 -21,-70 3,-7 7,-15 13,-24 5,-9 11,-16 17,-21l694 281c28,11 36,34 22,68 -3,7 -8,16 -14,25 -6,9 -11,17 -16,22l-119 -48zm842 205l-154 657c-7,0 -16,0 -27,0 -10,-1 -22,-2 -36,-5 -30,-8 -50,-18 -60,-31 -10,-13 -12,-31 -7,-54l54 -229 -235 -54c-14,31 -33,53 -57,66 -24,13 -54,16 -90,7 -41,-9 -68,-26 -83,-49 -15,-24 -19,-49 -13,-76 3,-12 7,-23 13,-33 6,-11 13,-21 21,-29l35 8c16,4 30,2 41,-6 12,-7 19,-19 23,-37l60 -255 -139 -33c-17,-3 -27,-11 -32,-21 -4,-11 -4,-26 0,-45 2,-7 5,-16 9,-26 4,-9 8,-17 12,-23l779 182c29,7 40,28 31,65 -1,7 -4,16 -8,26 -5,10 -9,19 -14,24l-123 -29zm-432 170l228 54 60 -257 -228 -54 -60 257zm1849 -29l-23 674c-6,1 -15,3 -26,5 -10,1 -22,2 -36,2 -31,-1 -53,-7 -65,-18 -12,-11 -17,-29 -16,-52l4 -131c-23,18 -50,31 -80,39 -30,9 -64,12 -103,11 -62,-2 -117,-17 -163,-45 -47,-27 -83,-62 -108,-105 -15,-24 -27,-50 -34,-78 -8,-27 -11,-50 -11,-70 1,-11 3,-20 8,-27 4,-8 12,-12 24,-13 54,-3 93,-13 117,-31 25,-18 38,-44 39,-76 1,-23 -4,-44 -16,-61 -11,-17 -27,-31 -46,-42l-161 -6c-31,-1 -45,-20 -44,-58 0,-8 1,-17 3,-27 3,-11 5,-20 9,-26l823 28c17,0 29,5 35,15 7,9 10,24 9,42 0,8 -1,17 -3,28 -2,11 -5,20 -8,26l-128 -4zm-325 409c37,1 71,-5 99,-18 28,-13 51,-28 69,-46l12 -350 -231 -8c15,14 28,31 39,52 11,21 16,44 15,69 0,26 -6,49 -16,69 -10,19 -23,36 -40,50 -17,15 -37,26 -60,34 -22,8 -47,14 -73,17 10,35 31,65 61,90 31,25 72,39 125,41zm671 -397l-23 674c-7,1 -16,3 -27,4 -10,2 -22,3 -36,2 -32,-1 -53,-7 -65,-18 -12,-11 -17,-28 -17,-52l21 -615 -95 -4c-17,0 -28,-5 -35,-15 -6,-9 -9,-24 -8,-43 0,-8 1,-17 3,-27 2,-11 5,-19 7,-26l135 5c-14,-29 -31,-55 -53,-80 -21,-24 -45,-46 -70,-66 -25,-20 -51,-37 -77,-51 -26,-14 -50,-24 -73,-31 -1,-3 -1,-7 -1,-10 0,-3 0,-7 0,-11 1,-25 9,-46 23,-63 14,-17 35,-26 63,-25 28,1 57,12 89,31 31,19 61,44 90,76 28,31 55,67 79,108 25,40 44,82 57,126l108 4c31,1 45,20 44,57 0,8 -2,17 -4,28 -3,11 -5,19 -8,26l-127 -4zm680 -75l51 672c-6,2 -15,5 -25,8 -11,3 -23,5 -36,6 -31,2 -54,-2 -67,-11 -13,-10 -21,-26 -23,-50l-47 -614 -218 16c21,28 38,60 54,97 15,38 24,78 27,122 3,41 1,79 -8,111 -8,33 -21,61 -39,84 -17,23 -38,41 -63,54 -26,13 -53,20 -83,23 -32,2 -57,-3 -76,-15 -20,-13 -30,-31 -32,-56 -1,-20 1,-39 8,-58 13,2 25,2 35,1 35,-2 63,-17 82,-44 20,-27 27,-68 23,-125 -3,-37 -11,-71 -25,-102 -15,-31 -31,-58 -50,-80l-139 10c-30,2 -47,-15 -50,-53 0,-8 0,-17 1,-28 1,-10 3,-19 5,-26l776 -59c31,-2 47,15 50,52 1,8 1,17 0,28 -1,11 -3,20 -6,27l-125 10zm757 -164l38 166c5,19 3,34 -4,45 -7,11 -21,19 -42,23l-145 34c-48,11 -84,32 -110,62 -25,31 -32,70 -22,116 6,24 15,43 27,60 13,17 27,30 44,39 17,10 36,16 56,18 21,2 42,1 63,-4 30,-7 51,-17 63,-30 12,-13 15,-32 10,-56 -2,-10 -6,-20 -10,-30 -5,-10 -9,-20 -14,-28 5,-11 14,-21 26,-29 13,-8 27,-15 44,-18 13,-4 26,-4 40,-3 14,2 27,6 39,13 12,7 22,16 31,28 9,12 15,27 19,45 6,24 6,46 -1,67 -6,21 -16,39 -28,54 25,27 50,51 75,72 25,21 48,38 68,52 2,23 -3,42 -16,59 -13,17 -30,28 -54,33 -26,6 -49,2 -69,-11 -20,-13 -38,-34 -54,-63l-43 -76c-11,7 -24,14 -39,20 -15,7 -34,14 -58,19 -41,10 -82,13 -121,10 -39,-3 -75,-13 -109,-29 -33,-15 -61,-38 -85,-68 -24,-30 -41,-68 -51,-112 -9,-36 -10,-71 -6,-105 5,-34 17,-66 36,-94 19,-28 45,-53 78,-74 33,-22 73,-38 122,-49l83 -19 -24 -104 -425 98c-30,7 -49,-8 -57,-45 -2,-8 -3,-17 -4,-28 -1,-10 0,-19 1,-27l711 -164c29,-6 48,8 57,45 1,7 2,16 3,27 0,12 0,21 -1,28l-142 33zm349 -81l152 657c-7,3 -15,7 -25,12 -9,4 -21,8 -35,11 -30,7 -53,7 -67,-1 -14,-7 -24,-23 -29,-46l-139 -600 -92 21c-17,4 -30,2 -38,-5 -9,-8 -15,-21 -20,-40 -1,-7 -3,-16 -3,-27 -1,-11 -1,-20 0,-27l361 -83c29,-7 48,8 57,44 1,8 2,17 3,28 0,11 0,20 -1,28l-124 28zm581 -226l250 626c-6,4 -13,9 -22,15 -9,6 -20,11 -33,16 -29,12 -51,15 -66,10 -16,-5 -28,-19 -36,-41l-108 -270 -193 77c-15,6 -25,15 -30,25 -5,11 -4,25 3,43l21 55c-7,8 -15,16 -24,23 -8,7 -18,13 -29,17 -27,11 -54,10 -82,-1 -28,-11 -50,-36 -65,-74 -15,-37 -15,-70 0,-99 16,-29 44,-52 84,-69l271 -107 -76 -192 -442 176c-28,11 -49,-1 -63,-37 -3,-7 -6,-15 -8,-26 -2,-10 -3,-19 -3,-27l696 -277c29,-11 50,0 63,35 3,7 6,16 8,27 2,11 3,20 3,27l-119 48zm698 -322l66 134c11,-21 26,-40 44,-58 19,-19 43,-35 73,-50 30,-15 61,-24 91,-26 31,-3 60,0 88,8 28,9 54,24 77,44 23,21 43,47 59,80 17,33 26,66 27,97 2,31 -2,60 -11,86 -10,27 -25,50 -44,71 -20,21 -43,38 -68,51 -60,30 -101,23 -122,-20 -5,-9 -8,-18 -9,-27 -2,-10 -2,-18 -1,-25 6,-1 12,-3 19,-6 7,-3 14,-6 20,-9 29,-14 49,-35 60,-62 11,-26 8,-57 -8,-91 -15,-30 -37,-50 -66,-59 -28,-9 -59,-5 -93,12 -22,11 -39,25 -52,42 -13,18 -22,36 -28,55l177 357c-6,5 -13,10 -22,17 -8,6 -18,12 -30,18 -29,15 -51,20 -67,16 -15,-4 -28,-17 -39,-38l-42 -85c-11,20 -26,39 -45,58 -19,18 -44,35 -75,51 -28,13 -57,22 -88,26 -31,4 -60,2 -89,-6 -28,-8 -55,-23 -80,-43 -26,-21 -47,-49 -65,-84 -16,-33 -24,-64 -26,-95 -1,-30 3,-59 13,-85 10,-26 25,-50 45,-71 20,-21 43,-38 69,-51 37,-18 66,-25 89,-20 22,4 38,16 48,36 9,19 12,37 8,55 -9,2 -17,4 -25,6 -7,1 -16,5 -27,10 -30,15 -51,36 -62,63 -12,27 -9,56 7,89 15,31 38,51 67,59 29,9 61,5 95,-12 26,-13 46,-29 59,-48 13,-18 21,-36 25,-54l-174 -351 -400 198c-27,13 -49,3 -66,-31 -3,-7 -7,-16 -10,-26 -3,-10 -5,-19 -5,-27l943 -466c28,-13 50,-4 66,30 3,7 7,15 10,26 3,10 5,20 5,27l-411 204zm946 -608l388 552c-5,5 -12,12 -19,20 -7,8 -17,16 -28,23 -25,18 -46,27 -62,25 -16,-2 -31,-12 -45,-31l-198 -282c-19,7 -37,16 -54,24 -18,9 -35,20 -52,32 -43,30 -71,65 -85,105 -13,40 -4,82 28,127 26,37 58,64 95,81 38,16 76,27 114,33 5,18 5,35 0,52 -5,17 -17,32 -35,44 -17,12 -38,18 -64,17 -26,-1 -53,-7 -82,-18 -28,-12 -56,-29 -84,-50 -28,-22 -52,-48 -73,-78 -26,-36 -42,-73 -50,-108 -8,-36 -7,-71 1,-105 9,-34 25,-67 49,-97 24,-31 54,-60 92,-86 21,-15 43,-29 66,-41 23,-13 44,-23 64,-32l-86 -122 -415 292c-14,9 -26,12 -37,9 -11,-4 -22,-14 -33,-30 -4,-6 -9,-14 -14,-23 -4,-10 -8,-18 -9,-25l639 -450c25,-18 48,-12 69,19 5,6 9,14 14,24 4,11 8,19 9,26l-103 73zm282 -198l388 551c-5,6 -11,12 -19,20 -7,8 -16,16 -28,24 -25,18 -46,26 -62,24 -16,-1 -31,-12 -45,-31l-354 -504 -78 55c-14,10 -26,13 -37,9 -11,-4 -22,-13 -33,-29 -5,-6 -9,-14 -14,-24 -5,-10 -8,-18 -10,-25l109 -77c-29,-4 -57,-14 -85,-31 -27,-16 -51,-38 -70,-66 -31,-43 -41,-88 -32,-136 10,-48 39,-88 87,-122 37,-26 66,-38 88,-35 23,2 40,12 53,30 11,16 16,33 15,50 -9,2 -18,5 -26,9 -9,4 -18,9 -28,16 -20,15 -34,35 -39,59 -6,25 0,51 18,77 15,20 33,36 54,49 22,12 45,21 70,27l89 -63c25,-17 48,-11 69,19 5,7 9,15 14,25 4,10 8,19 9,26l-103 73z"/>
  <path class="fil18" d="M4364 15037c-20,-5 -40,-15 -61,-30 -40,-30 -47,-63 -20,-101 26,-35 56,-62 89,-81 -5,-12 -12,-24 -21,-35 -9,-12 -20,-23 -33,-32 -35,-26 -70,-34 -106,-26 -35,8 -65,28 -89,61 -17,24 -28,48 -32,73 -3,24 -2,48 4,71 5,23 15,45 29,65 14,21 30,39 48,55 -2,4 -4,8 -6,11 -2,3 -4,6 -7,10 -13,18 -30,30 -50,34 -20,5 -43,-2 -68,-20 -22,-15 -40,-35 -57,-60 -16,-24 -28,-51 -36,-81 -7,-31 -10,-63 -7,-97 3,-34 12,-68 30,-101 -22,-11 -42,-23 -62,-37 -61,-44 -98,-98 -109,-160 -11,-62 9,-128 60,-200l117 -161 -55 -40c-14,-10 -20,-20 -21,-32 0,-11 6,-25 18,-41 4,-6 10,-13 18,-20 7,-8 14,-14 20,-18l1066 774c24,18 26,42 4,72 -5,6 -11,13 -19,21 -8,8 -15,13 -21,17l-104 -75 -396 546c-7,-3 -15,-6 -25,-11 -9,-4 -20,-11 -31,-19 -25,-18 -39,-35 -43,-51 -4,-16 1,-33 15,-52l210 -289c-6,-8 -13,-15 -22,-21 -36,-26 -72,-33 -109,-22 -37,11 -76,46 -118,103zm-269 -756l-112 155c-33,46 -47,84 -41,115 6,31 28,60 65,87 5,4 11,8 16,11 5,4 11,7 16,9 25,-22 51,-39 79,-51 29,-11 57,-17 85,-17 29,-1 56,4 84,12 27,9 52,22 76,40 31,22 54,46 71,72 17,26 29,53 37,79 28,-2 57,1 85,8 29,8 56,22 83,41 16,11 30,24 43,39l83 -114 -670 -486zm730 414c7,-31 9,-64 6,-98 -3,-34 -10,-68 -19,-100 -10,-32 -22,-62 -37,-90 -14,-28 -29,-52 -45,-71 2,-3 3,-6 5,-8 2,-3 4,-6 7,-10 14,-19 32,-33 54,-39 21,-6 43,-2 65,15 24,17 43,43 58,78 15,35 26,75 32,119 6,44 7,90 4,139 -4,49 -13,96 -27,140l-103 -75zm385 328l-303 602c-7,-2 -16,-4 -26,-6 -10,-3 -22,-8 -34,-14 -28,-14 -45,-29 -52,-44 -6,-15 -4,-33 7,-54l277 -550 -85 -43c-16,-7 -24,-17 -26,-28 -2,-12 2,-26 10,-43 4,-7 9,-15 15,-24 6,-8 12,-15 17,-20l110 55c-1,-13 1,-29 6,-47 4,-18 11,-36 19,-54 34,-66 86,-105 158,-117 72,-13 155,5 249,52 62,32 115,67 159,107 45,40 80,80 106,119 27,38 44,74 53,106 9,32 10,55 2,70 -8,16 -21,26 -41,29 -19,3 -41,-2 -65,-14 -18,-63 -47,-120 -88,-173 -41,-52 -97,-96 -168,-131 -56,-28 -104,-39 -145,-32 -42,6 -72,30 -93,71 -7,13 -12,27 -16,41 -4,15 -5,28 -5,39l90 45c27,14 32,37 16,71 -4,6 -9,14 -16,23 -6,9 -13,16 -18,21l-113 -57zm601 302l-88 175c-9,18 -19,28 -32,32 -13,3 -29,0 -48,-10l-131 -65c-46,-23 -89,-31 -127,-22 -38,10 -68,36 -90,79 -12,24 -18,47 -18,69 1,22 6,42 16,62 10,19 24,37 42,53 18,16 39,30 61,41 34,17 67,27 99,30 31,3 61,1 89,-6 11,13 18,27 20,43 3,16 1,32 -7,47 -7,13 -18,24 -34,31 -16,7 -35,11 -58,10 -23,0 -49,-4 -78,-11 -29,-8 -59,-19 -91,-35 -43,-22 -81,-47 -112,-76 -32,-30 -56,-61 -73,-96 -17,-34 -25,-71 -24,-110 1,-39 11,-79 32,-120 18,-35 40,-64 67,-88 27,-23 57,-39 91,-49 33,-10 70,-12 109,-7 39,4 80,17 122,38l73 37 59 -118 -381 -191c-27,-14 -32,-38 -15,-72 4,-7 8,-14 15,-23 6,-9 12,-15 18,-20l620 312c15,7 23,17 25,28 2,11 -1,25 -10,42 -3,7 -8,15 -14,24 -7,9 -13,16 -18,21l-109 -55zm603 229l-253 625c-6,-1 -15,-2 -26,-4 -10,-2 -22,-6 -34,-11 -29,-11 -48,-25 -55,-39 -7,-14 -7,-32 2,-54l109 -269 -193 -78c-15,-6 -28,-7 -39,-3 -11,4 -20,15 -28,33l-22 54c-11,1 -22,1 -33,0 -11,-1 -22,-3 -33,-8 -27,-11 -46,-30 -59,-57 -13,-28 -11,-60 4,-99 15,-37 38,-60 69,-71 32,-11 68,-8 108,9l271 109 77 -192 -441 -178c-28,-11 -35,-34 -21,-70 3,-7 7,-15 13,-24 5,-9 11,-16 17,-21l694 281c28,11 36,34 22,68 -3,7 -8,16 -14,25 -6,9 -11,17 -16,22l-119 -48zm842 205l-154 657c-7,0 -16,0 -27,0 -10,-1 -22,-2 -36,-5 -30,-8 -50,-18 -60,-31 -10,-13 -12,-31 -7,-54l54 -229 -235 -54c-14,31 -33,53 -57,66 -24,13 -54,16 -90,7 -41,-9 -68,-26 -83,-49 -15,-24 -19,-49 -13,-76 3,-12 7,-23 13,-33 6,-11 13,-21 21,-29l35 8c16,4 30,2 41,-6 12,-7 19,-19 23,-37l60 -255 -139 -33c-17,-3 -27,-11 -32,-21 -4,-11 -4,-26 0,-45 2,-7 5,-16 9,-25 4,-10 8,-18 12,-24l779 182c29,7 40,28 31,65 -1,7 -4,16 -8,26 -5,11 -9,19 -14,24l-123 -29zm-432 170l228 54 60 -257 -228 -53 -60 256zm1849 -29l-23 674c-6,1 -15,3 -26,5 -10,1 -22,2 -36,2 -31,-1 -53,-7 -65,-18 -12,-11 -17,-29 -16,-52l4 -131c-23,18 -50,31 -80,39 -30,9 -64,12 -103,11 -62,-2 -117,-17 -163,-44 -47,-28 -83,-63 -108,-106 -15,-24 -27,-50 -34,-77 -8,-28 -11,-51 -11,-71 1,-11 3,-20 8,-27 4,-8 12,-12 24,-13 54,-3 93,-13 117,-31 25,-18 38,-44 39,-76 1,-23 -4,-44 -16,-61 -11,-17 -27,-31 -46,-42l-161 -6c-31,-1 -45,-20 -44,-58 0,-8 1,-17 3,-27 3,-11 5,-20 9,-26l823 28c17,0 29,6 35,15 7,10 10,24 9,42 0,8 -1,17 -3,28 -2,11 -5,20 -8,26l-128 -4zm-325 409c37,1 71,-5 99,-18 28,-13 51,-28 69,-46l12 -350 -231 -8c15,14 28,32 39,52 11,21 16,44 15,69 0,26 -6,49 -16,69 -10,19 -23,36 -40,50 -17,15 -37,26 -60,34 -22,8 -47,14 -73,17 10,35 31,65 61,90 31,25 72,39 125,41zm671 -397l-23 674c-7,1 -16,3 -27,5 -10,1 -22,2 -36,1 -32,-1 -53,-7 -65,-18 -12,-11 -17,-28 -17,-52l21 -615 -95 -3c-17,-1 -28,-6 -35,-16 -6,-9 -9,-24 -8,-43 0,-8 1,-17 3,-27 2,-11 5,-19 7,-26l135 5c-14,-29 -31,-55 -53,-80 -21,-24 -45,-46 -70,-66 -25,-20 -51,-37 -77,-51 -26,-14 -50,-24 -73,-31 -1,-3 -1,-7 -1,-10 0,-3 0,-7 0,-11 1,-25 9,-46 23,-63 14,-17 35,-25 63,-24 28,0 57,11 89,30 31,19 61,44 90,76 28,31 55,67 79,108 25,40 44,82 57,126l108 4c31,1 45,20 44,57 0,8 -2,17 -4,28 -3,11 -5,19 -8,26l-127 -4zm680 -75l51 672c-6,2 -15,5 -25,8 -11,3 -23,5 -36,6 -31,2 -54,-2 -67,-11 -13,-10 -21,-26 -23,-50l-47 -614 -218 16c21,28 38,60 54,97 15,38 24,78 27,122 3,42 1,79 -8,111 -8,33 -21,61 -39,84 -17,23 -38,41 -63,54 -26,13 -53,20 -83,23 -32,2 -57,-3 -76,-15 -20,-13 -30,-31 -32,-56 -1,-20 1,-39 8,-58 13,2 25,2 35,2 35,-3 63,-18 82,-45 20,-27 27,-68 23,-125 -3,-37 -11,-71 -25,-102 -15,-31 -31,-58 -50,-80l-139 10c-30,3 -47,-15 -50,-53 0,-8 0,-17 1,-28 1,-10 3,-19 5,-26l776 -59c31,-2 47,15 50,52 1,8 1,17 0,28 -1,11 -3,20 -6,27l-125 10zm757 -164l38 167c5,18 3,33 -4,44 -7,11 -21,19 -42,24l-145 33c-48,11 -84,32 -110,62 -25,31 -32,70 -22,117 6,23 15,42 27,59 13,17 27,30 44,39 17,10 36,16 56,18 21,2 42,1 63,-4 30,-7 51,-17 63,-30 12,-13 15,-32 10,-56 -2,-10 -6,-20 -10,-30 -5,-10 -9,-20 -14,-28 5,-11 14,-20 26,-29 13,-8 27,-15 44,-18 13,-3 26,-4 40,-3 14,2 27,6 39,13 12,7 22,16 31,28 9,12 15,27 19,45 6,24 6,46 -1,67 -6,21 -16,39 -28,54 25,27 50,51 75,72 25,21 48,38 68,52 2,23 -3,42 -16,59 -13,17 -30,28 -54,33 -26,6 -49,3 -69,-11 -20,-13 -38,-34 -54,-63l-43 -76c-11,7 -24,14 -39,21 -15,6 -34,13 -58,18 -41,10 -82,13 -121,10 -39,-3 -75,-13 -109,-28 -33,-16 -61,-39 -85,-69 -24,-30 -41,-68 -51,-112 -9,-36 -10,-71 -6,-105 5,-34 17,-66 36,-94 19,-28 45,-53 78,-74 33,-22 73,-38 122,-49l83 -19 -24 -104 -425 98c-30,7 -49,-8 -57,-45 -2,-8 -3,-17 -4,-28 -1,-10 0,-19 1,-27l711 -163c29,-7 48,7 57,44 1,7 2,16 3,27 0,12 0,21 -1,28l-142 33zm349 -81l152 657c-7,3 -15,7 -25,12 -9,4 -21,8 -35,11 -30,7 -53,7 -67,-1 -14,-7 -24,-23 -29,-46l-139 -600 -92 22c-17,3 -30,1 -38,-6 -9,-8 -15,-21 -20,-40 -1,-7 -3,-16 -3,-27 -1,-11 -1,-19 0,-27l361 -83c29,-7 48,8 57,44 1,8 2,17 3,28 0,11 0,20 -1,28l-124 28zm581 -226l250 626c-6,4 -13,9 -22,15 -9,6 -20,11 -33,16 -29,12 -51,15 -66,10 -16,-5 -28,-19 -36,-41l-108 -270 -193 77c-15,6 -25,15 -30,25 -5,11 -4,25 3,43l21 55c-7,8 -15,16 -24,23 -8,7 -18,13 -29,17 -27,11 -54,10 -82,-1 -28,-11 -50,-36 -65,-74 -15,-37 -15,-70 0,-99 16,-29 44,-52 84,-68l271 -108 -76 -192 -442 176c-28,11 -49,-1 -63,-36 -3,-8 -6,-16 -8,-27 -2,-10 -3,-19 -3,-27l696 -277c29,-11 50,0 63,35 3,7 6,16 8,27 2,11 3,20 3,27l-119 48zm698 -322l66 134c11,-21 26,-40 44,-58 19,-19 43,-35 73,-50 30,-15 61,-24 91,-26 31,-3 60,0 88,8 28,9 54,24 77,44 23,21 43,48 59,80 17,33 26,66 27,97 2,31 -2,60 -11,86 -10,27 -25,50 -44,71 -20,22 -43,38 -68,51 -60,30 -101,23 -122,-20 -5,-9 -8,-18 -9,-27 -2,-10 -2,-18 -1,-25 6,-1 12,-3 19,-6 7,-3 14,-6 20,-9 29,-14 49,-35 60,-61 11,-27 8,-58 -8,-92 -15,-30 -37,-50 -66,-59 -28,-9 -59,-5 -93,12 -22,11 -39,25 -52,42 -13,18 -22,36 -28,55l177 357c-6,5 -13,10 -22,17 -8,6 -18,12 -30,18 -29,15 -51,20 -67,16 -15,-4 -28,-17 -39,-38l-42 -85c-11,20 -26,39 -45,58 -19,18 -44,35 -75,51 -28,13 -57,22 -88,26 -31,4 -60,2 -89,-6 -28,-8 -55,-23 -80,-43 -26,-21 -47,-49 -65,-84 -16,-33 -24,-64 -26,-95 -1,-30 3,-58 13,-85 10,-26 25,-50 45,-71 20,-21 43,-38 69,-51 37,-18 66,-25 89,-20 22,4 38,16 48,36 9,19 12,37 8,56 -9,1 -17,3 -25,5 -7,1 -16,5 -27,10 -30,15 -51,36 -62,63 -12,27 -9,56 7,89 15,31 38,51 67,59 29,9 61,5 95,-12 26,-13 46,-29 59,-48 13,-18 21,-36 25,-54l-174 -351 -400 198c-27,13 -49,3 -66,-31 -3,-7 -7,-16 -10,-26 -3,-10 -5,-19 -5,-26l943 -467c28,-13 50,-4 66,30 3,7 7,15 10,26 3,11 5,20 5,27l-411 204zm946 -608l388 552c-5,5 -12,12 -19,20 -7,8 -17,16 -28,23 -25,18 -46,27 -62,25 -16,-2 -31,-12 -45,-31l-198 -282c-19,7 -37,16 -54,24 -18,9 -35,20 -52,32 -43,30 -71,65 -85,105 -13,40 -4,82 28,127 26,37 58,64 95,81 38,16 76,27 114,34 5,17 5,34 0,51 -5,17 -17,32 -35,44 -17,13 -38,18 -64,17 -26,-1 -53,-7 -82,-18 -28,-12 -56,-29 -84,-50 -28,-22 -52,-48 -73,-78 -26,-36 -42,-73 -50,-108 -8,-36 -7,-71 1,-105 9,-34 25,-67 49,-97 24,-31 54,-60 92,-86 21,-15 43,-29 66,-41 23,-13 44,-23 64,-32l-86 -122 -415 292c-14,10 -26,13 -37,9 -11,-4 -22,-14 -33,-30 -4,-6 -9,-14 -14,-23 -4,-10 -8,-18 -9,-25l639 -450c25,-18 48,-12 69,19 5,6 9,14 14,25 4,10 8,18 9,25l-103 73zm282 -198l388 551c-5,6 -11,13 -19,20 -7,8 -16,16 -28,24 -25,18 -46,26 -62,24 -16,-1 -31,-12 -45,-31l-354 -504 -78 55c-14,10 -26,13 -37,9 -11,-4 -22,-13 -33,-29 -5,-6 -9,-14 -14,-24 -5,-10 -8,-18 -10,-25l109 -76c-29,-5 -57,-15 -85,-32 -27,-16 -51,-38 -70,-65 -31,-44 -41,-89 -32,-137 10,-47 39,-88 87,-122 37,-26 66,-38 88,-35 23,2 40,12 53,30 11,16 16,33 15,50 -9,2 -18,5 -26,9 -9,4 -18,9 -28,16 -20,15 -34,35 -39,59 -6,25 0,51 18,77 15,20 33,36 54,49 22,12 45,21 70,27l89 -63c25,-17 48,-11 69,19 5,7 9,15 14,25 4,10 8,19 9,26l-103 73z"/>
  <path class="fil3" d="M8665 3389c2914,0 5277,2362 5277,5276 0,2914 -2363,5276 -5277,5276 -2914,0 -5276,-2362 -5276,-5276 0,-2914 2362,-5276 5276,-5276z"/>
  <path class="fil19" d="M7683 3094l97 547c-6,2 -12,5 -21,8 -8,3 -17,6 -28,8 -26,4 -44,3 -56,-4 -11,-7 -18,-19 -22,-39l-33 -190 -182 33c-1,27 -9,50 -24,68 -15,19 -37,30 -66,35 -34,6 -61,3 -79,-10 -19,-14 -31,-32 -35,-54 -3,-18 -1,-37 6,-57l30 -6c13,-2 23,-8 29,-17 6,-9 8,-21 6,-37l-32 -176c-2,-14 -8,-23 -16,-28 -9,-5 -18,-6 -28,-5 -24,5 -36,18 -34,39 -7,4 -14,6 -20,7 -18,3 -33,1 -45,-6 -12,-7 -20,-19 -23,-37 -5,-28 3,-52 24,-71 20,-19 48,-32 82,-38 46,-8 86,-4 117,12 32,16 52,47 60,90l34 194 179 -31 -38 -214 -81 15c-25,4 -40,-9 -45,-40 -1,-6 -2,-14 -2,-23 0,-8 1,-16 2,-22l303 -53c25,-5 40,8 45,38 1,7 2,14 2,23 0,10 -1,17 -2,23l-104 18z"/>
  <path id="1" class="fil19" d="M7964 3045l97 546c-6,3 -13,5 -21,8 -8,4 -18,6 -30,8 -25,5 -43,4 -55,-3 -11,-7 -18,-20 -22,-39l-88 -499 -77 13c-14,3 -24,1 -31,-6 -7,-6 -12,-18 -14,-33 -1,-6 -2,-14 -2,-23 0,-9 0,-16 1,-22l300 -53c25,-4 40,9 45,39 1,6 2,14 2,23 -1,9 -1,17 -2,23l-103 18z"/>
  <path id="2" class="fil19" d="M8329 3015l16 554c-6,2 -14,4 -22,6 -8,2 -18,3 -30,3 -26,1 -44,-3 -54,-11 -11,-9 -16,-23 -17,-42l-14 -507 -78 3c-14,0 -24,-4 -30,-11 -6,-8 -9,-19 -9,-35 0,-7 0,-14 1,-23 1,-9 3,-16 5,-21l105 -3c-6,-10 -10,-22 -14,-37 -4,-15 -6,-30 -6,-46 -1,-29 4,-55 16,-80 10,-25 28,-46 50,-65 23,-18 52,-33 87,-43 35,-11 75,-17 121,-18 59,-2 114,3 164,16 51,12 95,27 133,45 37,18 67,37 88,56 21,19 32,35 33,48 0,16 -6,29 -19,38 -13,10 -30,15 -50,16 -19,-19 -41,-36 -66,-52 -26,-15 -53,-29 -82,-39 -30,-11 -61,-19 -93,-24 -32,-5 -65,-8 -98,-7 -54,2 -94,14 -121,36 -27,22 -39,50 -38,86 0,12 2,24 4,36 3,12 7,22 12,30l78 -2c25,-1 38,14 39,45 0,6 0,14 -2,23 -1,9 -3,16 -5,22l-104 3z"/>
  <path id="3" class="fil19" d="M8931 2999l16 554c-6,2 -13,4 -22,6 -8,2 -18,3 -29,3 -26,1 -44,-3 -55,-11 -11,-9 -16,-23 -17,-42l-4 -156c-17,11 -37,20 -59,26 -22,7 -46,11 -73,12 -64,2 -115,-15 -155,-49 -40,-35 -60,-89 -62,-161l-5 -169 -57 2c-14,0 -23,-3 -29,-11 -6,-7 -9,-19 -10,-35 0,-6 1,-14 2,-22 1,-9 2,-16 5,-22l626 -18c25,-1 38,14 39,45 0,6 0,14 -1,23 -2,9 -3,16 -6,22l-104 3zm-218 292c20,-1 40,-5 59,-12 18,-8 33,-17 44,-27l-228 -170 2 89c1,47 13,79 33,96 21,17 51,25 90,24zm102 -119l-5 -170 -218 7 223 163z"/>
  <path id="4" class="fil19" d="M9826 3127l-98 546c-5,1 -13,1 -21,1 -9,0 -19,0 -30,-2 -26,-5 -43,-12 -51,-23 -9,-10 -12,-25 -8,-44l89 -499 -126 -23c-4,38 -8,74 -12,107 -4,32 -10,66 -16,101 -6,33 -16,60 -31,82 -14,22 -32,39 -52,52 -21,12 -44,20 -71,24 -26,3 -54,2 -84,-3 -29,-5 -55,-14 -79,-26 -23,-12 -42,-27 -58,-46 -15,-18 -26,-41 -32,-67 -6,-26 -6,-56 0,-88 6,-35 13,-69 20,-101 7,-33 15,-67 24,-104l-62 -12c-14,-2 -23,-8 -27,-16 -4,-9 -5,-21 -2,-37 1,-6 3,-13 6,-21 3,-8 6,-15 9,-20l802 143c25,4 34,21 29,52 -1,6 -3,13 -6,22 -3,9 -7,15 -10,20l-103 -18zm-493 220c25,5 45,1 62,-11 17,-12 28,-32 33,-61l38 -212 -160 -29 -38 213c-5,29 -1,51 10,68 12,17 30,28 55,32z"/>
  <path id="5" class="fil19" d="M10107 3176l-98 546c-6,0 -13,1 -22,1 -9,0 -19,-1 -30,-3 -26,-4 -42,-12 -51,-22 -8,-10 -11,-25 -7,-44l89 -499 -77 -14c-14,-3 -23,-8 -27,-17 -4,-8 -5,-20 -2,-36 1,-6 3,-13 6,-22 3,-8 6,-15 9,-20l107 19 5 -31c10,-52 9,-92 -3,-119 -11,-27 -31,-43 -59,-47 -21,-4 -41,0 -58,11 -17,11 -28,31 -33,60l-5 29c-6,1 -11,2 -17,2 -11,2 -23,2 -36,-1 -19,-3 -35,-11 -47,-22 -13,-12 -17,-29 -12,-53 4,-23 12,-43 25,-61 13,-18 29,-32 49,-44 19,-11 42,-18 67,-22 25,-4 53,-3 82,3 65,11 112,40 142,88 31,47 39,112 24,196l-6 32 75 14c25,4 34,21 29,52 -1,6 -4,13 -7,22 -3,8 -6,15 -9,20l-103 -18z"/>
  <path class="fil10" d="M12239 2213c23,0 48,2 73,7 32,6 66,19 103,38 38,19 71,44 98,74 27,30 47,63 59,99 12,35 17,72 15,111 -1,-27 -6,-52 -15,-77 -12,-36 -32,-70 -59,-99 -27,-30 -60,-55 -98,-74 -37,-19 -71,-32 -103,-38 -32,-6 -62,-8 -90,-6l17 -35zm-175 513c-4,-21 0,-45 13,-70 7,-13 16,-25 25,-35 10,-9 21,-17 31,-24 12,9 25,18 41,26 29,15 59,18 89,10 30,-7 55,-30 74,-67 7,-14 12,-28 14,-42 4,24 -1,50 -14,76 -19,37 -44,59 -74,67 -30,8 -60,4 -89,-10 -16,-8 -29,-17 -41,-26 -10,6 -21,15 -31,24 -9,10 -18,22 -25,35 -6,13 -10,25 -13,36zm-336 -12c-4,-21 0,-45 15,-74l20 -39c6,0 12,-1 18,-1l-38 74c-7,14 -12,28 -15,40zm-319 -448c-1,-11 -1,-23 0,-35 2,-43 15,-88 39,-135 22,-44 49,-79 81,-105 32,-26 65,-44 101,-55 35,-10 71,-13 108,-9 37,5 73,15 107,33 48,24 78,51 91,81 8,19 11,39 7,58 -1,-8 -3,-16 -7,-24 -13,-30 -43,-57 -91,-81 -34,-18 -70,-29 -107,-33 -37,-4 -73,-1 -108,9 -36,10 -69,29 -101,55 -32,26 -59,61 -81,105 -24,47 -37,91 -39,134l0 2zm235 21c1,8 3,15 6,23 12,31 37,57 74,76 27,14 53,21 77,22 24,0 46,-3 66,-10l206 -404 14 7 -220 431c-20,7 -42,10 -66,10 -24,-1 -50,-8 -77,-22 -37,-19 -62,-45 -74,-77 -7,-18 -9,-37 -6,-56zm-92 -610c-1,-3 -1,-6 -2,-9 -2,-17 4,-39 17,-65 6,-11 13,-23 23,-37 10,-13 19,-23 28,-30l1239 632c29,15 40,39 33,71 -5,-15 -16,-28 -33,-37l-1239 -632c-9,7 -18,17 -28,30 -10,14 -17,26 -23,36 -7,15 -12,29 -15,41zm-6238 288l372 727 -12 10 -373 -730 13 -7zm-221 659c0,10 0,20 -1,30 0,-9 -2,-18 -4,-28l5 -2zm-355 58c-1,-11 -1,-22 -1,-34l37 -19c20,-10 33,-24 38,-42l1 -2c3,13 3,24 -1,35 -5,18 -18,33 -38,43l-36 19zm-146 -332l1 2 -1 1 0 -3zm-183 -65c-1,-7 -2,-14 -1,-20 0,-22 6,-43 16,-63 11,-20 26,-39 45,-56 20,-18 42,-33 69,-46 79,-41 148,-54 208,-41 60,12 107,52 141,118l127 249 204 -105 13 27 -217 111 -127 -248c-34,-66 -81,-106 -141,-119 -60,-13 -129,1 -208,41 -27,14 -49,29 -69,47 -19,17 -34,36 -45,56 -8,15 -13,32 -15,49zm481 -295c-3,-12 -5,-22 -6,-31l408 -208 0 0 442 -226c40,-21 73,-5 99,45 5,11 11,25 16,42 5,17 7,31 7,42l-4 2 -3 -10c-5,-17 -11,-31 -16,-42 -26,-51 -59,-66 -99,-45l-442 226 0 0 -402 205zm842 -239l372 727 -12 11 -374 -731 14 -7zm1076 -343l223 783 -8 5 -224 -786 9 -2zm-927 87c-1,-13 -1,-25 0,-34l947 -270 478 -136c43,-12 72,9 88,63 3,12 6,27 7,44 1,14 1,25 0,35l0 -1c-1,-18 -4,-32 -7,-44 -16,-54 -45,-76 -88,-63l-478 136 -947 270 0 0zm1379 -216l223 783 -8 4 -224 -785 9 -2zm-711 590c27,-8 51,-19 73,-35 11,-8 20,-16 28,-24l19 7c-10,18 -25,35 -47,51 -22,15 -46,27 -73,35 -53,15 -96,13 -130,-5 -33,-18 -59,-59 -77,-122l-29 -102 11 4 18 64c18,63 44,104 77,122 34,19 77,20 130,5zm-204 -329l282 112 11 38 -342 -136 49 -14zm2624 -371l21 812 -1 0 -21 -812 1 0zm-697 482c32,44 70,83 115,115 55,40 109,70 162,90 0,12 -1,23 -2,33 -53,-20 -106,-50 -160,-89 -54,-40 -99,-88 -135,-145 7,-1 14,-2 20,-4zm-317 -106c0,-4 0,-8 -1,-13 0,-18 3,-36 9,-53 6,-17 14,-32 25,-44 14,2 32,4 53,6 22,1 43,1 65,0 60,-1 105,-16 133,-44 23,-24 37,-52 40,-87l1 13c1,44 -13,80 -41,108 -28,28 -73,43 -133,44 -22,1 -43,0 -65,-1 -21,-1 -39,-3 -53,-6 -11,13 -19,27 -25,45 -4,10 -6,21 -8,32zm-110 -457l-1 -12c0,-12 1,-27 3,-43 2,-17 6,-30 10,-40l1211 -31c45,-2 68,26 70,83 0,6 0,13 -1,21 -4,-48 -27,-72 -69,-71l-1211 32c-4,10 -8,23 -10,40 -1,7 -2,15 -2,21zm750 355c56,-1 105,-13 148,-34l1 33c-43,22 -93,34 -149,35 -34,1 -66,-1 -97,-7 4,-11 8,-22 11,-32 27,4 56,6 86,5zm-110 -262c6,15 12,31 18,46 9,29 14,60 15,94 0,8 0,16 0,24 -2,-30 -7,-58 -15,-84 -10,-28 -21,-54 -34,-79l16 -1zm1310 848c-2,-12 -2,-25 0,-39l30 -235 4 0 -34 269 0 5zm-600 -360c-1,-11 -1,-23 1,-36 4,-35 18,-66 41,-95l39 4c23,3 42,-1 57,-14 15,-12 24,-31 27,-56l33 -261 4 0 -37 295c-3,25 -12,43 -27,56 -15,12 -34,17 -57,14l-39 -5c-23,29 -37,61 -41,96l-1 2zm-24 -567c-1,-12 -1,-26 1,-42 1,-12 5,-26 9,-42 5,-16 10,-29 16,-38l1048 132c43,6 62,36 56,89 -4,-32 -23,-51 -56,-55l-1048 -132c-6,9 -11,22 -16,38 -4,16 -8,30 -9,42l-1 8zm423 406l258 33 34 -268 4 0 -38 301 -262 -33 4 -33zm1286 829c-3,-17 -1,-38 7,-62l25 -73 12 -2 -37 109c-3,10 -5,19 -7,28zm-535 -597l0 -18c0,-33 4,-61 12,-84 5,-15 13,-26 23,-32 11,-7 27,-8 48,-3 45,9 88,15 127,18 40,2 75,1 107,-6 31,-6 58,-17 80,-33 21,-16 37,-38 47,-66 2,-8 4,-14 5,-21 3,16 1,34 -5,54 -10,28 -26,50 -47,67 -22,16 -49,27 -80,33 -32,6 -67,8 -107,6 -39,-3 -82,-9 -127,-19 -21,-4 -37,-4 -48,3 -10,7 -18,18 -23,32 -6,20 -10,43 -12,69zm301 -219l1 7 -2 1 1 -8zm-206 -93c-1,-4 -1,-8 -1,-12 -1,-20 3,-42 11,-66 9,-28 25,-53 46,-74 21,-22 47,-38 77,-49 30,-11 66,-17 105,-17 40,1 83,9 128,24 47,16 86,37 118,62 31,26 55,55 72,87 16,32 25,67 26,104 0,9 0,18 0,27 -2,-34 -11,-67 -26,-97 -17,-32 -41,-61 -72,-87 -32,-26 -71,-46 -118,-62 -45,-16 -88,-24 -128,-24 -39,0 -75,5 -105,17 -30,11 -56,27 -77,49 -21,21 -37,46 -46,74 -5,15 -9,30 -10,44zm146 397c8,24 23,47 43,70 31,34 74,61 130,80 43,15 85,21 126,19 41,-3 76,-11 107,-26l173 -510c4,-11 9,-21 17,-28l7 13 18 6c-4,1 -8,3 -12,5 -14,8 -24,20 -30,38l-173 509c-31,15 -66,24 -107,26 -41,3 -83,-3 -126,-18 -56,-19 -99,-46 -130,-80 -30,-34 -48,-69 -52,-105l9 1zm566 -547c-2,-42 3,-82 16,-120 12,-35 29,-65 51,-90 22,-25 47,-44 77,-57 30,-13 62,-20 97,-21 35,-1 72,5 112,19 63,21 102,47 118,76 13,24 17,48 13,72 -2,-13 -6,-25 -13,-38 -16,-29 -55,-55 -118,-76 -40,-14 -77,-20 -112,-19 -35,1 -67,8 -97,21 -30,12 -55,31 -77,56 -22,25 -39,55 -51,91 -9,27 -15,56 -16,86zm194 91c1,4 1,8 2,13 4,27 10,53 19,77l138 47c36,12 50,38 43,77 -4,-20 -19,-35 -43,-43l-138 -47c-9,-24 -15,-50 -19,-78 -3,-15 -3,-30 -2,-46z"/>
  <path class="fil10" d="M5280 15605c2,14 7,27 13,40 10,19 24,37 42,53 18,16 39,30 61,41 34,17 67,27 99,30 31,3 61,1 89,-6 11,13 18,27 20,43 2,12 2,24 -2,36 -4,-12 -10,-23 -18,-33 -28,8 -58,10 -89,7 -32,-3 -65,-13 -99,-30 -22,-12 -43,-26 -61,-42 -18,-16 -32,-33 -42,-53 -10,-19 -15,-40 -16,-62 0,-7 1,-16 3,-24zm-152 -11c-1,-9 -1,-18 -1,-28 1,-39 11,-79 32,-120 18,-35 40,-64 67,-88 27,-23 57,-39 91,-49 33,-10 70,-12 109,-7 39,4 80,17 122,38l73 37 40 -81 19 9 -59 118 -73 -36c-42,-21 -83,-34 -122,-39 -39,-5 -76,-2 -109,7 -34,10 -64,27 -91,50 -27,23 -49,52 -67,87 -17,35 -28,69 -31,102zm-331 -29l-2 -4c-6,-15 -4,-33 7,-54l258 -513 19 9 -277 551c-2,4 -4,7 -5,11zm-404 -235c-3,-4 -4,-8 -5,-12 -4,-16 1,-33 15,-52l190 -262c8,6 15,12 20,19l-210 289c-4,6 -8,12 -10,18zm-121 -357c-9,-21 -6,-43 11,-67 21,-28 44,-51 69,-68 9,11 16,22 20,34 -33,18 -63,45 -89,81 -4,7 -8,13 -11,20zm-181 -56c1,7 2,13 4,20 5,23 15,45 29,65 14,21 30,39 48,55 -2,4 -4,8 -6,11 -2,3 -4,6 -7,10 -2,2 -4,5 -6,7 -10,-11 -20,-23 -29,-36 -14,-21 -24,-43 -29,-66 -6,-21 -7,-43 -4,-66zm-150 -14c-2,-16 -2,-32 0,-49 1,-21 6,-42 13,-63 6,3 11,6 17,8 -18,34 -27,68 -30,102l0 2zm-143 -358c-7,-59 14,-122 62,-189l95 -130 22 16 -117 161c-36,50 -56,97 -62,142zm111 -402c-5,-6 -7,-13 -8,-20 0,-11 6,-25 18,-41 4,-6 10,-13 18,-20 7,-8 14,-14 20,-18l872 633c1,-8 2,-16 3,-25 2,25 1,49 -3,72l-872 -633c-6,4 -13,10 -20,17 -8,8 -14,15 -18,21 -4,5 -7,10 -10,14zm838 215c-6,-8 -11,-15 -17,-22 2,-3 3,-6 5,-8 2,-3 4,-6 7,-10 14,-19 32,-33 54,-39 21,-6 43,-2 65,15 24,17 43,43 58,78 15,35 26,75 32,119 5,34 7,70 5,108 0,-21 -2,-42 -5,-62 -6,-44 -17,-84 -32,-119 -15,-35 -34,-61 -58,-78 -22,-16 -44,-21 -65,-15 -19,6 -36,17 -49,33zm196 402l61 45c2,-2 4,-4 6,-6l110 55c-1,-13 1,-29 6,-47 4,-18 11,-36 19,-54 34,-66 86,-105 158,-117 72,-13 155,5 249,52 62,32 115,67 159,107 45,40 80,80 106,119 27,38 44,74 53,106 8,28 10,50 5,65 -1,-6 -3,-12 -5,-19 -9,-32 -26,-67 -53,-106 -26,-39 -61,-78 -106,-118 -44,-40 -97,-76 -159,-107 -94,-47 -177,-65 -249,-53 -72,12 -124,51 -158,118 -8,17 -15,35 -19,53 -5,18 -7,34 -6,48l-110 -55c-2,1 -4,3 -6,5l-71 -51c4,-13 7,-26 10,-40zm314 163l60 30 24 12 1 1 496 249c3,-4 6,-7 9,-9l694 281c27,11 35,32 23,64 -4,-8 -12,-14 -23,-18l-694 -281c-3,3 -6,6 -9,10l-496 -250 -1 0 -24 -12 -66 -33c0,-12 1,-25 5,-39l1 -5zm789 1201c-7,-14 -7,-32 2,-53l93 -230 16 7 -109 269 -2 7zm-302 -399c-5,-24 -2,-50 10,-81 15,-37 38,-60 69,-71 32,-11 68,-8 108,9l271 109 61 -152 16 7 -77 192 -271 -110c-40,-16 -76,-19 -108,-8 -31,10 -54,34 -69,71 -5,12 -8,23 -10,34zm7590 -1456l366 520c-5,6 -11,13 -19,20l0 0 -369 -525 22 -15zm-282 198l366 521 -19 20 -369 -525 22 -16zm-180 496c4,22 15,45 31,68 26,37 58,64 95,81 38,16 76,27 114,34 5,16 5,32 1,48l-1 -2c-38,-6 -76,-17 -114,-34 -37,-16 -69,-43 -95,-81 -28,-40 -39,-78 -31,-114zm-152 14c-3,-27 -1,-53 5,-78 9,-34 25,-67 49,-97 24,-31 54,-60 92,-86 21,-15 43,-29 66,-41 14,-7 27,-14 39,-20l25 35c-20,8 -41,19 -64,31 -23,13 -45,27 -66,42 -38,26 -68,54 -92,85 -24,31 -40,63 -49,97 -2,11 -4,21 -5,32zm-618 104l48 97c11,-21 26,-40 44,-58 19,-19 43,-35 73,-50 30,-15 61,-24 91,-26 31,-3 60,0 88,8 28,9 54,24 77,44 23,21 43,48 59,80 17,33 26,66 27,97 1,13 1,25 0,37 -3,-28 -12,-57 -27,-87 -16,-33 -36,-60 -59,-80 -23,-21 -49,-35 -77,-44 -28,-9 -57,-12 -88,-9 -30,3 -61,12 -91,27 -30,15 -54,31 -73,49 -18,18 -33,38 -44,58l-66 -134 18 -9zm259 373c-3,-7 -5,-14 -6,-20 -2,-10 -2,-18 -1,-25 6,-1 12,-3 19,-6 7,-3 14,-6 20,-9 29,-14 49,-35 60,-61 2,-4 3,-8 4,-12 5,21 3,40 -4,58 -11,27 -31,47 -60,62 -6,3 -13,6 -20,9 -4,1 -8,3 -12,4zm-144 -142l166 336 -17 13 -160 -323c3,-9 6,-18 11,-26zm-501 184c0,-4 -1,-9 -1,-13 -1,-30 3,-58 13,-85 10,-26 25,-50 45,-71 20,-21 43,-38 69,-51 37,-18 66,-25 89,-20 22,4 38,16 48,36 9,19 12,37 8,56l-4 0c-1,-3 -2,-6 -4,-10 -10,-19 -26,-31 -48,-36 -23,-4 -52,3 -89,21 -26,13 -49,30 -69,51 -20,21 -35,45 -45,71 -6,16 -10,33 -12,51zm153 -12c2,10 6,20 11,31 15,31 38,51 67,59 29,9 61,5 95,-12 26,-13 46,-29 59,-48 6,-9 11,-18 15,-26l10 18c-4,18 -12,36 -25,55 -13,19 -33,34 -59,48 -34,16 -66,21 -95,12 -29,-9 -52,-29 -67,-60 -14,-27 -18,-53 -11,-77zm-467 -78l234 586 -15 10 -235 -590 16 -6zm-252 460l1 1 21 55c-4,4 -8,9 -13,13l-8 -21c-7,-18 -8,-32 -3,-43l2 -5zm-187 -7c-5,-26 -2,-49 9,-71 16,-29 44,-52 84,-68l255 -102 16 40 -271 108c-40,16 -68,39 -84,68 -4,8 -7,17 -9,25zm-147 -220l141 610 -10 5 -141 -611 3 -1 7 -3zm-350 78l28 123c4,16 4,29 -1,39l-37 -160 10 -2zm-298 387c1,5 2,10 3,16 6,23 15,42 27,59 13,17 27,30 44,39 17,10 36,16 56,18 21,2 42,1 63,-4 30,-7 51,-17 63,-30 4,-4 7,-9 9,-14l1 5c5,24 2,42 -10,55 -12,14 -33,24 -63,30 -21,5 -42,7 -63,4 -20,-2 -39,-8 -56,-17 -17,-10 -31,-23 -44,-39 -12,-17 -21,-37 -27,-60 -5,-23 -6,-43 -3,-62zm256 12c-5,-10 -9,-20 -14,-28 5,-11 14,-20 26,-29 13,-8 27,-15 44,-18 13,-3 26,-4 40,-3 14,2 27,6 39,13 12,7 22,16 31,28 9,12 15,27 19,45 5,19 5,37 2,55l-2 -9c-4,-18 -10,-33 -19,-45 -9,-11 -19,-21 -31,-28 -12,-6 -25,-11 -39,-12 -14,-2 -27,-1 -40,2 -17,4 -31,10 -44,19 -4,3 -9,6 -12,10zm174 148c19,20 38,37 57,53 25,21 48,38 68,52 2,16 -1,30 -6,42 -19,-13 -40,-29 -62,-48 -25,-20 -50,-44 -75,-71 7,-9 13,-18 18,-28zm-581 -158c-2,-20 -1,-40 1,-60 5,-34 17,-66 36,-94 19,-28 45,-53 78,-74 33,-22 73,-38 122,-49l72 -17 11 44 -83 19c-49,11 -89,28 -122,49 -33,22 -59,46 -78,75 -19,28 -31,59 -36,93 0,5 -1,10 -1,14zm-188 -355c-1,-6 -2,-12 -2,-20 -1,-10 0,-19 1,-27l681 -157 30 -6 1 -1 262 -60 629 -251c16,-6 30,-5 41,3 0,-3 -1,-6 -1,-8l936 -464c-2,-6 -4,-11 -5,-16l618 -436 21 -14 1 -1 39 -28c16,6 32,11 48,13l-87 61 -1 1 -21 15 -618 435c1,5 3,11 5,17l-936 463c0,3 1,5 1,8 -11,-8 -25,-9 -41,-2l-629 250 -262 61 -1 0 -30 7 -680 157zm3112 -1697c-3,-18 -3,-37 1,-56 10,-47 39,-88 87,-122 37,-26 66,-38 88,-35 23,2 40,12 53,30 11,16 16,33 15,50 -4,1 -7,2 -11,3l-4 -6c-13,-18 -30,-29 -53,-31 -22,-2 -51,9 -88,35 -48,34 -77,75 -87,123l-1 9zm152 -7c3,11 9,23 17,35 15,20 33,36 54,49 22,12 45,21 70,27l89 -63c25,-17 48,-11 69,19 5,7 9,15 14,25 4,10 8,19 9,26l-14 10c-3,-5 -6,-10 -9,-14 -21,-31 -44,-37 -69,-19l-89 62c-25,-5 -48,-14 -70,-27 -21,-12 -39,-29 -54,-49 -18,-26 -24,-51 -18,-76l1 -5zm-4585 2483c-1,-6 -2,-12 -1,-19l3 -83 1 -1 -3 103zm-494 -366c-1,-11 -2,-22 -2,-32 1,-11 3,-20 8,-27 4,-8 12,-12 24,-13 54,-3 93,-13 117,-31 20,-15 32,-34 37,-57 2,9 2,18 2,28 -1,32 -14,57 -39,75 -24,18 -63,29 -117,31 -12,1 -20,6 -24,13 -3,4 -4,8 -6,13zm-79 -320c-2,-8 -2,-16 -2,-26 0,-8 1,-17 3,-27 3,-11 5,-20 9,-26l799 27 0 0 24 1 1 0 82 3c11,15 20,31 28,47l-110 -4 -1 0 -24 0 0 0 -799 -28c-4,7 -6,16 -9,26l-1 7zm674 -274l-3 -1c-1,-3 -1,-7 -1,-10 0,-3 0,-7 0,-11 1,-25 9,-46 23,-63 14,-17 35,-25 63,-24 28,0 57,11 89,30 31,19 61,44 90,76 28,31 55,67 79,108 22,36 40,73 53,112 1,-3 1,-6 2,-8l776 -59c26,-2 41,10 48,35 -1,7 -2,14 -1,23 0,9 1,16 3,23l-1 7c-5,-30 -21,-44 -49,-42l-776 59c-1,3 -1,5 -2,8 -13,-38 -31,-76 -53,-112 -24,-40 -51,-76 -79,-108 -29,-31 -59,-56 -90,-76 -32,-19 -61,-29 -89,-30 -28,-1 -49,7 -63,24 -9,12 -16,25 -19,39zm1094 313l47 626 -3 1 -48 -627 4 0zm-340 26c9,16 17,34 25,52 15,38 24,78 27,122 2,20 2,38 1,56l-1 -9c-3,-44 -12,-85 -27,-122 -16,-37 -33,-70 -54,-97l29 -2zm-247 387c-1,-4 -2,-8 -2,-12 -1,-20 1,-39 8,-58 13,2 25,2 35,2 35,-3 63,-18 82,-45 13,-18 21,-42 23,-74 4,54 -4,94 -23,121 -19,27 -47,41 -82,44 -10,1 -22,0 -35,-1 -3,7 -5,15 -6,23zm-264 245c-1,-5 -1,-12 -1,-19l20 -569 1 0 -20 588zm-504 -232c37,1 71,-5 99,-18 28,-13 51,-28 69,-46l10 -304 2 1 -12 349c-18,18 -41,34 -69,47 -28,13 -62,18 -99,17 -53,-2 -94,-15 -125,-40 -30,-25 -51,-55 -61,-90 6,-1 13,-2 20,-3 10,17 24,32 41,46 31,25 72,39 125,41zm-14 -374l2 4c11,21 16,44 15,69 0,7 0,13 -1,19 -2,-14 -7,-28 -14,-41 -11,-21 -24,-38 -39,-52l37 1zm-4390 -1376c8,28 29,54 63,79 5,4 11,8 16,11 5,4 11,7 16,9 25,-22 51,-39 79,-51 29,-11 57,-17 85,-17 29,-1 56,4 84,12 27,9 52,22 76,40 31,22 54,46 71,72 17,26 29,53 37,79 28,-2 57,1 85,8 29,8 56,22 83,41 16,11 30,24 43,39l61 -83 22 16 -83 114c-13,-15 -27,-28 -43,-40 -27,-19 -54,-32 -83,-40 -28,-8 -57,-10 -85,-8 -8,-27 -20,-53 -37,-79 -17,-26 -40,-51 -71,-73 -24,-17 -49,-30 -76,-39 -28,-9 -55,-13 -84,-13 -28,0 -56,6 -85,18 -28,11 -54,28 -79,51 -5,-3 -11,-6 -16,-9 -5,-4 -11,-7 -16,-11 -37,-27 -59,-56 -65,-87 -2,-12 -2,-25 2,-39zm3029 1810c-5,-12 -5,-26 -1,-43l43 -184 11 2 -53 225zm-425 -331c-4,-15 -4,-31 0,-47 3,-12 7,-23 13,-33 6,-11 13,-21 21,-29l35 8c16,4 30,2 41,-6 12,-7 19,-19 23,-37l50 -211 10 3 -60 255c-4,17 -11,30 -23,37 -11,7 -25,9 -41,5l-35 -8c-8,9 -15,18 -21,29 -6,11 -10,22 -13,33l0 1zm22 -452l0 -1 -1 -4c1,-9 1,-17 -2,-24 1,-5 2,-11 3,-17 2,-7 5,-16 9,-25 4,-10 8,-18 12,-24l779 182c29,7 40,28 31,65l-1 4c-5,-12 -15,-19 -30,-23l-779 -182c-4,6 -8,14 -12,24 -4,9 -7,17 -9,25zm264 346l218 51 50 -213 10 2 -60 257 -228 -53 10 -44z"/>
  <path class="fil20" d="M11932 9056l0 476c-5,1 -12,3 -19,4 -7,2 -16,2 -26,2 -22,0 -37,-3 -46,-11 -9,-7 -13,-19 -13,-36l0 -435 -50 0 -17 0 -1 0 -73 0 0 476c-4,1 -10,3 -18,4 -7,2 -16,2 -25,2 -23,0 -38,-3 -47,-11 -8,-7 -13,-19 -13,-36l0 -92c-16,13 -34,23 -55,29 -21,7 -45,10 -73,10 -44,0 -83,-9 -116,-27 -34,-18 -60,-42 -79,-72 -11,-17 -20,-35 -26,-54 -6,-19 -9,-36 -9,-49 0,-8 2,-15 5,-20 3,-5 8,-9 17,-10 37,-3 65,-11 82,-24 17,-14 25,-32 25,-55 0,-16 -4,-31 -12,-43 -9,-12 -20,-21 -34,-28l-94 0 -20 0 -78 0 0 104c0,26 -15,39 -44,39l-157 0c-21,0 -36,4 -45,12 -9,8 -13,19 -13,32 0,11 3,20 9,28 5,7 12,13 20,18 15,-5 31,-8 48,-11 17,-3 35,-5 54,-5 54,0 95,12 123,36 28,24 43,55 43,92 0,48 -19,83 -55,107 -37,24 -86,36 -147,36 -27,0 -54,-2 -79,-7 -26,-4 -48,-11 -67,-19 -20,-8 -35,-17 -47,-28 -12,-11 -17,-24 -17,-38 0,-13 3,-24 11,-33 8,-9 17,-15 28,-19 18,16 42,31 71,44 28,12 62,18 99,18 32,0 55,-5 71,-16 16,-11 24,-25 24,-42 0,-35 -29,-53 -86,-53 -16,0 -32,2 -49,5 -17,3 -32,7 -47,12 -12,-4 -25,-10 -39,-17 -13,-8 -25,-17 -36,-27 -12,-11 -21,-24 -28,-38 -8,-14 -11,-31 -11,-49 0,-34 12,-61 35,-82 24,-22 60,-32 107,-32l120 0 0 -67 -288 0 -19 0 -71 0 0 476c-5,1 -12,3 -19,4 -7,2 -16,2 -26,2 -22,0 -37,-3 -46,-11 -9,-7 -13,-19 -13,-36l0 -435 -46 0 -21 0 -1 0 -76 0 0 104c0,26 -15,39 -44,39l-157 0c-21,0 -36,4 -45,12 -9,8 -13,19 -13,32 0,11 3,20 9,28 5,7 12,13 20,18 15,-5 31,-8 48,-11 17,-3 35,-5 54,-5 54,0 95,12 123,36 29,24 43,55 43,92 0,24 -5,44 -15,62 -10,17 -24,32 -42,44 -18,11 -39,20 -64,26 -25,5 -52,8 -81,8 -3,0 -5,0 -8,0 -2,0 -4,0 -7,-1 15,14 32,27 49,40 17,13 35,25 56,37 -2,19 -8,34 -19,46 -11,13 -26,19 -47,19 -21,0 -40,-7 -57,-22 -17,-14 -34,-36 -51,-67l-36 -63c-27,-7 -49,-17 -66,-31 -16,-13 -24,-28 -24,-46 0,-13 3,-25 11,-34 8,-9 17,-15 28,-19 19,17 43,32 71,44 29,12 62,18 99,18 32,0 56,-5 71,-16 16,-11 24,-25 24,-42 0,-35 -29,-53 -86,-53 -16,0 -32,2 -49,5 -17,3 -32,7 -47,12 -12,-4 -25,-10 -39,-17 -13,-8 -25,-17 -36,-27 -11,-11 -21,-24 -28,-38 -8,-14 -11,-31 -11,-49 0,-34 12,-61 35,-82 24,-22 60,-32 107,-32l120 0 0 -67 -307 0c-22,0 -32,-14 -32,-41 0,-5 0,-11 1,-19 2,-7 3,-13 6,-18l487 0 21 0 66 0c-5,-9 -9,-19 -12,-32 -3,-13 -4,-26 -4,-40 0,-52 21,-94 62,-124 42,-31 100,-46 174,-46 49,0 94,6 135,17 40,11 75,25 104,41 29,16 51,33 67,50 16,18 24,32 24,44 0,13 -6,23 -17,31 -12,8 -27,12 -46,12 -31,-34 -68,-61 -110,-81 -42,-20 -92,-30 -148,-30 -44,0 -78,9 -102,26 -24,17 -36,42 -36,74 0,11 1,22 3,32 2,10 6,19 10,26l52 0 19 0 470 0 20 0 545 0 17 0 244 0c22,0 33,13 33,39 0,6 -1,12 -3,20 -1,8 -3,14 -4,19l-90 0zm-4273 273c-159,0 -313,4 -467,-1 -110,-4 -184,-87 -184,-198 -1,-474 -1,-948 0,-1422 0,-112 83,-192 194,-193 380,0 761,0 1141,0 103,1 190,74 191,173 4,253 1,506 1,758 -60,-29 -119,-56 -175,-88 -11,-6 -13,-33 -14,-50 0,-182 0,-364 0,-545l0 -58 -1143 0 0 1431c107,0 211,2 316,0 31,-1 48,7 60,38 22,51 51,99 80,155zm784 -381c-2,-158 -132,-289 -289,-289 -154,-1 -288,131 -288,284 -1,160 133,294 290,292 156,-3 288,-135 287,-287zm110 266c91,86 180,172 266,254 -48,48 -90,91 -138,138 -58,-57 -126,-118 -187,-186 -47,-53 -83,-68 -159,-35 -177,77 -350,48 -496,-83 -146,-130 -195,-296 -142,-484 53,-190 184,-308 378,-340 186,-32 346,30 460,185 113,153 124,320 49,494 -8,17 -18,33 -31,57zm355 1916c-1414,0 -2561,-1147 -2561,-2562 0,-1415 1147,-2562 2561,-2562 883,0 1660,446 2121,1125l333 0c-494,-841 -1408,-1406 -2454,-1406 -1570,0 -2842,1273 -2842,2843 0,903 421,1709 1079,2229l-416 1357 1051 -976c346,150 728,233 1128,233 1102,0 2057,-626 2529,-1542l-322 0c-445,754 -1267,1261 -2207,1261zm204 494c-442,0 -863,-81 -1249,-228l-448 329c375,147 784,228 1212,228 755,0 1450,-251 2008,-675 -456,221 -974,346 -1523,346zm-2190 -771c-696,-570 -1135,-1407 -1135,-2341 0,-1719 1489,-3112 3325,-3112 136,0 270,8 401,23 -282,-78 -579,-120 -886,-120 -1836,0 -3325,1489 -3325,3325 0,1172 606,2202 1522,2794l98 -569zm2842 -3037l0 185c0,44 -24,66 -71,66l-159 0c-50,0 -90,11 -120,34 -31,23 -46,58 -46,105 0,47 15,84 44,109 29,25 65,38 108,38 57,0 85,-21 85,-64 0,-10 -1,-21 -4,-32 -2,-12 -4,-23 -7,-33 10,-12 24,-21 42,-28 18,-7 38,-10 59,-10 35,0 65,11 90,34 26,23 39,56 39,97 0,26 -6,49 -17,71 -11,21 -26,39 -44,55 21,37 42,69 62,95 20,26 40,49 58,67 -5,29 -18,53 -39,69 -22,17 -48,25 -79,25 -32,0 -58,-10 -79,-31 -21,-21 -35,-50 -44,-87l-19 -84 -18 4c-11,2 -23,4 -36,6 -13,3 -29,4 -47,4 -50,0 -96,-7 -139,-20 -43,-12 -81,-32 -112,-57 -32,-25 -57,-57 -76,-95 -18,-39 -28,-83 -28,-134 0,-42 7,-80 21,-116 14,-35 35,-66 63,-92 28,-27 63,-47 105,-63 41,-15 90,-22 145,-22l68 0 0 -96 -447 0c-21,0 -36,-6 -45,-19 -8,-12 -12,-31 -12,-56 0,-10 1,-22 3,-36 3,-14 6,-25 9,-33l491 0c-13,-22 -29,-43 -48,-63 -24,-26 -52,-50 -81,-71 -29,-20 -58,-38 -88,-53 -30,-15 -58,-25 -83,-32 0,-4 -1,-9 -1,-13 0,-4 0,-8 0,-13 0,-32 9,-61 26,-85 18,-25 46,-37 83,-37 36,0 73,12 110,34 37,23 72,53 105,89 33,37 63,79 90,125 23,39 41,79 56,119l114 0 22 0 1162 0 23 0 114 0c-16,-28 -36,-53 -61,-77 -24,-23 -50,-45 -77,-63 -27,-19 -55,-36 -83,-49 -28,-13 -54,-23 -78,-30 -1,-4 -2,-9 -2,-13 0,-4 0,-8 0,-13 0,-32 9,-61 27,-85 18,-25 46,-37 84,-37 34,0 69,11 104,31 35,21 69,49 101,83 32,35 62,74 89,118 27,44 49,89 66,135l112 0c38,0 57,24 57,72 0,10 -2,23 -4,37 -3,15 -7,27 -11,35l-131 0 0 714c-10,3 -22,6 -36,9 -13,2 -29,4 -48,4 -43,0 -73,-7 -89,-21 -15,-14 -23,-37 -23,-68l0 -638 -69 0 -21 0 -1 0 -108 0 0 714c-11,3 -23,6 -36,9 -14,2 -30,4 -49,4 -43,0 -73,-7 -88,-21 -16,-14 -24,-37 -24,-68l0 -140c-34,16 -77,24 -130,24 -32,0 -64,-5 -93,-15 -30,-11 -57,-25 -81,-45 -23,-19 -42,-43 -56,-72 -14,-28 -21,-61 -21,-98 0,-36 6,-67 18,-94 11,-27 27,-49 47,-67 21,-18 44,-32 70,-41 27,-9 55,-14 84,-14 40,0 70,8 89,24 20,15 30,36 30,61 0,26 -8,48 -25,65 -13,-5 -28,-7 -47,-7 -24,0 -44,7 -61,20 -16,14 -25,35 -25,61 0,25 10,45 29,60 20,15 44,22 74,22 20,0 39,-3 55,-8 17,-6 31,-13 43,-22l0 -352 -480 0c17,20 31,44 41,70 9,26 14,54 14,82 0,63 -16,114 -49,155 -33,40 -76,68 -131,83 29,53 71,94 128,125 56,30 119,48 191,52 4,16 6,32 6,49 0,34 -10,61 -30,80 -20,20 -50,29 -89,29 -44,0 -85,-8 -124,-24 -39,-16 -74,-38 -106,-66 -32,-27 -60,-60 -84,-98 -25,-38 -45,-78 -59,-122 -26,-2 -47,-9 -63,-23 -16,-13 -24,-35 -24,-65 0,-18 3,-34 9,-48 6,-14 13,-26 21,-35 10,1 21,3 34,5 12,2 26,3 41,3 42,0 74,-12 96,-35 22,-24 32,-53 32,-88 0,-26 -5,-50 -16,-73 -10,-23 -24,-41 -42,-56l-173 0 -21 0 0 0 -131 0zm505 1024c0,-18 6,-33 18,-45 12,-13 28,-19 48,-19 20,0 36,6 48,19 12,12 18,27 18,45 0,17 -6,32 -18,45 -12,12 -28,18 -48,18 -20,0 -36,-6 -48,-18 -12,-13 -18,-28 -18,-45zm1198 512c27,0 50,-5 70,-15 20,-9 35,-21 47,-34l0 -247 -163 0c11,9 21,21 29,36 8,14 13,30 13,48 0,18 -4,35 -10,49 -7,14 -16,26 -28,36 -11,11 -25,19 -41,26 -16,6 -33,10 -51,13 8,25 23,46 45,63 23,17 52,25 89,25z"/>
  <path class="fil21" d="M11932 8992l0 477c-5,1 -12,2 -19,4 -7,1 -16,2 -26,2 -22,0 -37,-4 -46,-11 -9,-8 -13,-20 -13,-36l0 -436 -50 0 -17 0 -1 0 -73 0 0 477c-4,1 -10,2 -18,4 -7,1 -16,2 -25,2 -23,0 -38,-4 -47,-11 -8,-8 -13,-20 -13,-36l0 -93c-16,13 -34,23 -55,30 -21,6 -45,10 -73,10 -44,0 -83,-9 -116,-28 -34,-18 -60,-42 -79,-72 -11,-16 -20,-34 -26,-53 -6,-20 -9,-36 -9,-50 0,-7 2,-14 5,-19 3,-6 8,-9 17,-10 37,-3 65,-11 82,-25 17,-13 25,-31 25,-54 0,-17 -4,-31 -12,-43 -9,-12 -20,-22 -34,-29l-94 0 -20 0 -78 0 0 104c0,26 -15,40 -44,40l-157 0c-21,0 -36,4 -45,12 -9,8 -13,18 -13,31 0,12 3,21 9,28 5,7 12,13 20,18 15,-4 31,-8 48,-11 17,-3 35,-4 54,-4 54,0 95,12 123,36 28,24 43,54 43,92 0,47 -19,83 -55,107 -37,23 -86,35 -147,35 -27,0 -54,-2 -79,-6 -26,-5 -48,-11 -67,-19 -20,-8 -35,-18 -47,-29 -12,-11 -17,-23 -17,-37 0,-14 3,-25 11,-34 8,-8 17,-15 28,-19 18,17 42,32 71,44 28,13 62,19 99,19 32,0 55,-5 71,-16 16,-11 24,-25 24,-42 0,-36 -29,-53 -86,-53 -16,0 -32,1 -49,5 -17,3 -32,7 -47,12 -12,-4 -25,-10 -39,-18 -13,-7 -25,-16 -36,-27 -12,-11 -21,-23 -28,-38 -8,-14 -11,-30 -11,-48 0,-34 12,-62 35,-83 24,-21 60,-32 107,-32l120 0 0 -67 -288 0 -19 0 -71 0 0 477c-5,1 -12,2 -19,4 -7,1 -16,2 -26,2 -22,0 -37,-4 -46,-11 -9,-8 -13,-20 -13,-36l0 -436 -46 0 -21 0 -1 0 -76 0 0 104c0,26 -15,40 -44,40l-157 0c-21,0 -36,4 -45,12 -9,8 -13,18 -13,31 0,12 3,21 9,28 5,7 12,13 20,18 15,-4 31,-8 48,-11 17,-3 35,-4 54,-4 54,0 95,12 123,36 29,24 43,54 43,92 0,23 -5,44 -15,61 -10,18 -24,33 -42,44 -18,12 -39,21 -64,26 -25,6 -52,9 -81,9 -3,0 -5,0 -8,0 -2,0 -4,-1 -7,-1 15,14 32,27 49,40 17,13 35,25 56,37 -2,18 -8,34 -19,46 -11,12 -26,18 -47,18 -21,0 -40,-7 -57,-21 -17,-14 -34,-37 -51,-67l-36 -63c-27,-7 -49,-17 -66,-31 -16,-13 -24,-29 -24,-46 0,-14 3,-25 11,-34 8,-9 17,-16 28,-20 19,18 43,32 71,45 29,12 62,18 99,18 32,0 56,-5 71,-16 16,-11 24,-25 24,-42 0,-36 -29,-53 -86,-53 -16,0 -32,1 -49,5 -17,3 -32,7 -47,12 -12,-4 -25,-10 -39,-18 -13,-7 -25,-16 -36,-27 -11,-11 -21,-23 -28,-38 -8,-14 -11,-30 -11,-48 0,-34 12,-62 35,-83 24,-21 60,-32 107,-32l120 0 0 -67 -307 0c-22,0 -32,-13 -32,-40 0,-5 0,-12 1,-19 2,-8 3,-14 6,-19l487 0 21 0 66 0c-5,-8 -9,-19 -12,-31 -3,-13 -4,-27 -4,-40 0,-53 21,-94 62,-125 42,-30 100,-45 174,-45 49,0 94,5 135,17 40,11 75,25 104,41 29,16 51,33 67,50 16,17 24,32 24,44 0,12 -6,23 -17,31 -12,8 -27,12 -46,12 -31,-34 -68,-61 -110,-81 -42,-20 -92,-30 -148,-30 -44,0 -78,8 -102,26 -24,17 -36,42 -36,74 0,11 1,21 3,31 2,11 6,19 10,26l52 0 19 0 470 0 20 0 545 0 17 0 244 0c22,0 33,14 33,40 0,5 -1,12 -3,19 -1,8 -3,15 -4,19l-90 0zm-4273 273c-159,0 -313,4 -467,-1 -110,-3 -184,-87 -184,-198 -1,-473 -1,-947 0,-1421 0,-112 83,-193 194,-193 380,0 761,0 1141,0 103,0 190,74 191,173 4,253 1,505 1,758 -60,-30 -119,-57 -175,-89 -11,-6 -13,-32 -14,-50 0,-181 0,-363 0,-545l0 -57 -1143 0 0 1431c107,0 211,1 316,-1 31,0 48,8 60,38 22,51 51,99 80,155zm784 -380c-2,-158 -132,-290 -289,-290 -154,0 -288,132 -288,284 -1,161 133,295 290,292 156,-2 288,-134 287,-286zm110 265c91,87 180,173 266,255 -48,48 -90,90 -138,138 -58,-58 -126,-119 -187,-186 -47,-53 -83,-68 -159,-36 -177,77 -350,48 -496,-82 -146,-131 -195,-297 -142,-484 53,-190 184,-308 378,-341 186,-31 346,31 460,185 113,154 124,321 49,495 -8,17 -18,32 -31,56zm355 1916c-1414,0 -2561,-1147 -2561,-2562 0,-1414 1147,-2561 2561,-2561 883,0 1660,446 2121,1124l333 0c-494,-841 -1408,-1406 -2454,-1406 -1570,0 -2842,1273 -2842,2843 0,904 421,1709 1079,2230l-416 1357 1051 -976c346,149 728,232 1128,232 1102,0 2057,-626 2529,-1542l-322 0c-445,755 -1267,1261 -2207,1261zm204 494c-442,0 -863,-81 -1249,-227l-448 329c375,147 784,228 1212,228 755,0 1450,-252 2008,-675 -456,221 -974,345 -1523,345zm-2190 -770c-696,-570 -1135,-1408 -1135,-2342 0,-1718 1489,-3111 3325,-3111 136,0 270,7 401,22 -282,-78 -579,-119 -886,-119 -1836,0 -3325,1488 -3325,3325 0,1171 606,2201 1522,2794l98 -569zm2842 -3037l0 185c0,43 -24,65 -71,65l-159 0c-50,0 -90,12 -120,35 -31,23 -46,58 -46,105 0,47 15,83 44,109 29,25 65,38 108,38 57,0 85,-22 85,-64 0,-10 -1,-21 -4,-33 -2,-11 -4,-22 -7,-32 10,-12 24,-22 42,-28 18,-7 38,-11 59,-11 35,0 65,12 90,35 26,23 39,55 39,97 0,25 -6,49 -17,70 -11,21 -26,40 -44,56 21,36 42,68 62,94 20,27 40,49 58,68 -5,29 -18,52 -39,69 -22,16 -48,25 -79,25 -32,0 -58,-11 -79,-31 -21,-21 -35,-50 -44,-87l-19 -84 -18 4c-11,2 -23,4 -36,6 -13,2 -29,3 -47,3 -50,0 -96,-6 -139,-19 -43,-13 -81,-32 -112,-57 -32,-26 -57,-58 -76,-96 -18,-38 -28,-83 -28,-133 0,-42 7,-81 21,-116 14,-36 35,-66 63,-93 28,-26 63,-47 105,-62 41,-15 90,-23 145,-23l68 0 0 -95 -447 0c-21,0 -36,-7 -45,-19 -8,-13 -12,-31 -12,-56 0,-10 1,-22 3,-36 3,-14 6,-25 9,-33l491 0c-13,-23 -29,-44 -48,-63 -24,-27 -52,-50 -81,-71 -29,-21 -58,-38 -88,-53 -30,-15 -58,-26 -83,-32 0,-5 -1,-9 -1,-13 0,-4 0,-9 0,-13 0,-33 9,-61 26,-85 18,-25 46,-37 83,-37 36,0 73,11 110,34 37,22 72,52 105,89 33,37 63,78 90,125 23,39 41,78 56,119l114 0 22 0 1162 0 23 0 114 0c-16,-28 -36,-54 -61,-77 -24,-24 -50,-45 -77,-64 -27,-19 -55,-35 -83,-48 -28,-14 -54,-24 -78,-30 -1,-5 -2,-9 -2,-13 0,-4 0,-9 0,-13 0,-33 9,-61 27,-85 18,-25 46,-37 84,-37 34,0 69,10 104,31 35,21 69,48 101,83 32,35 62,74 89,118 27,44 49,88 66,135l112 0c38,0 57,24 57,72 0,10 -2,22 -4,37 -3,15 -7,26 -11,35l-131 0 0 714c-10,3 -22,5 -36,8 -13,3 -29,4 -48,4 -43,0 -73,-7 -89,-20 -15,-14 -23,-37 -23,-68l0 -638 -69 0 -21 0 -1 0 -108 0 0 714c-11,3 -23,5 -36,8 -14,3 -30,4 -49,4 -43,0 -73,-7 -88,-20 -16,-14 -24,-37 -24,-68l0 -140c-34,16 -77,23 -130,23 -32,0 -64,-5 -93,-15 -30,-10 -57,-25 -81,-44 -23,-19 -42,-43 -56,-72 -14,-29 -21,-61 -21,-98 0,-36 6,-68 18,-94 11,-27 27,-50 47,-68 21,-18 44,-31 70,-40 27,-10 55,-14 84,-14 40,0 70,8 89,23 20,16 30,36 30,61 0,27 -8,49 -25,65 -13,-4 -28,-7 -47,-7 -24,0 -44,7 -61,21 -16,14 -25,34 -25,61 0,25 10,45 29,59 20,15 44,23 74,23 20,0 39,-3 55,-9 17,-5 31,-13 43,-22l0 -351 -480 0c17,20 31,43 41,69 9,27 14,54 14,83 0,63 -16,114 -49,154 -33,40 -76,68 -131,84 29,53 71,94 128,125 56,30 119,47 191,52 4,16 6,32 6,49 0,34 -10,60 -30,80 -20,19 -50,29 -89,29 -44,0 -85,-8 -124,-24 -39,-16 -74,-38 -106,-66 -32,-28 -60,-61 -84,-98 -25,-38 -45,-79 -59,-122 -26,-2 -47,-10 -63,-23 -16,-13 -24,-35 -24,-66 0,-17 3,-33 9,-48 6,-14 13,-26 21,-35 10,2 21,4 34,6 12,2 26,3 41,3 42,0 74,-12 96,-36 22,-23 32,-53 32,-88 0,-26 -5,-50 -16,-72 -10,-23 -24,-42 -42,-56l-173 0 -21 0 0 0 -131 0zm505 1023c0,-17 6,-33 18,-45 12,-12 28,-18 48,-18 20,0 36,6 48,18 12,12 18,28 18,45 0,18 -6,33 -18,45 -12,13 -28,19 -48,19 -20,0 -36,-6 -48,-19 -12,-12 -18,-27 -18,-45zm1198 513c27,0 50,-5 70,-15 20,-10 35,-21 47,-35l0 -247 -163 0c11,10 21,22 29,36 8,14 13,31 13,48 0,19 -4,35 -10,49 -7,14 -16,27 -28,37 -11,10 -25,19 -41,25 -16,6 -33,11 -51,14 8,24 23,45 45,62 23,17 52,26 89,26z"/>
  <path class="fil22" d="M11230 9204c-2,-12 -4,-22 -4,-32 0,-7 2,-14 5,-19 3,-6 8,-9 17,-10 37,-3 65,-11 82,-25 10,-8 17,-18 21,-29 3,8 4,16 4,26 0,22 -8,40 -25,54 -17,13 -45,21 -82,24 -9,2 -14,5 -17,10l-1 1zm-365 1l2 2c5,7 12,13 20,18 15,-4 31,-8 48,-11 17,-3 35,-4 54,-4 54,0 95,12 123,36 28,24 43,54 43,92 0,9 -1,18 -3,27 -4,-27 -18,-50 -40,-69 -28,-23 -69,-35 -123,-35 -19,0 -37,1 -54,4 -17,3 -33,7 -48,11 -8,-5 -15,-11 -20,-18 -6,-7 -9,-16 -9,-28 0,-9 2,-18 7,-25zm-116 208c-4,-7 -6,-15 -6,-24 0,-14 3,-25 11,-34 8,-8 17,-15 28,-19 18,17 42,32 71,44 28,13 62,19 99,19 32,0 55,-5 71,-16 8,-5 13,-11 17,-17 5,7 7,16 7,25 0,18 -8,32 -24,43 -16,10 -39,16 -71,16 -37,0 -71,-7 -99,-19 -29,-13 -53,-27 -71,-44 -11,4 -20,11 -28,19 -2,2 -3,5 -5,7zm4 -214c-2,-8 -2,-16 -2,-25 0,-34 12,-62 35,-83 24,-21 60,-32 107,-32l120 0 0 51 -120 0c-47,0 -83,11 -107,32 -17,15 -28,34 -33,57zm-618 6l2 2c5,7 12,13 20,18 15,-4 31,-8 48,-11 17,-3 35,-4 54,-4 54,0 95,12 123,36 29,24 43,54 43,92 0,9 -1,18 -3,26 -5,-27 -18,-49 -40,-68 -28,-23 -69,-35 -123,-35 -19,0 -37,1 -54,4 -17,3 -33,7 -48,11 -8,-5 -15,-11 -20,-18 -6,-7 -9,-16 -9,-28 0,-9 3,-18 7,-25zm134 321c14,9 28,19 44,28 -1,16 -6,30 -15,42 -15,-9 -29,-19 -41,-29 -17,-12 -34,-26 -49,-39 3,0 5,0 7,0 3,0 5,0 8,0 16,0 32,0 46,-2zm-250 -111c-4,-8 -6,-16 -6,-25 0,-14 3,-25 11,-34 8,-9 17,-16 28,-20 19,18 43,32 71,45 29,12 62,18 99,18 32,0 56,-5 71,-16 8,-5 13,-11 17,-17 5,7 7,15 7,25 0,18 -8,32 -24,43 -15,10 -39,16 -71,16 -37,0 -70,-6 -99,-19 -28,-12 -52,-27 -71,-44 -11,4 -20,11 -28,20 -2,2 -4,5 -5,8zm4 -216c-2,-8 -2,-16 -2,-25 0,-34 12,-62 35,-83 24,-21 60,-32 107,-32l120 0 0 51 -120 0c-47,0 -83,11 -107,32 -17,15 -28,34 -33,57zm-76 -224c-2,-6 -3,-14 -3,-23 0,-5 0,-12 1,-19 2,-8 3,-14 6,-19l487 0 21 0 51 0c1,7 2,13 3,19 3,13 7,24 12,32l-66 0 -21 0 -487 0c-2,3 -3,6 -4,10zm564 -107c-2,-8 -2,-17 -2,-25 0,-53 21,-94 62,-125 42,-30 100,-45 174,-45 49,0 94,5 135,17 40,11 75,25 104,41 29,16 51,33 67,50 16,17 24,32 24,44 0,9 -3,17 -10,24 -4,-5 -8,-11 -14,-17 -16,-18 -38,-34 -67,-51 -29,-16 -64,-29 -104,-41 -41,-11 -86,-17 -135,-17 -74,0 -132,16 -174,46 -35,25 -55,58 -60,99zm108 17l0 3c2,11 6,19 10,26l52 0 19 0 308 0 4 5c11,0 21,-2 30,-5l128 0 20 0 545 0 17 0 244 0c22,0 33,14 33,40 0,5 -1,12 -3,19l-1 9c-5,-11 -15,-17 -29,-17l-244 0 -17 0 -545 0 -20 0 -470 0 -19 0 -52 0c-4,-7 -8,-16 -10,-26 -2,-10 -3,-20 -3,-31 0,-8 1,-16 3,-23zm-2960 380l-27 0c-20,-35 -38,-69 -53,-104 -12,-30 -29,-39 -60,-38 -105,2 -209,1 -316,1l0 -51c107,0 211,1 316,-1 31,0 48,8 60,38 22,51 51,99 80,155zm-652 -1109c0,-171 0,-341 1,-511 0,-112 83,-193 194,-193 380,0 761,0 1141,0 103,0 190,74 191,173 2,114 2,229 2,343 0,-97 -1,-195 -2,-292 -1,-100 -88,-173 -191,-173 -380,-1 -761,-1 -1141,0 -111,0 -194,81 -194,193 -1,153 -1,306 -1,460zm860 750c13,148 141,268 289,265 147,-2 272,-119 286,-259 0,8 1,16 1,24 1,152 -131,284 -287,286 -157,3 -291,-132 -290,-292 0,-8 0,-16 1,-24zm704 262l248 237 -26 26 -240 -230c7,-13 13,-23 18,-33zm-894 -247c-3,-53 3,-109 20,-166 53,-190 184,-308 378,-341 186,-31 346,31 460,185 71,97 102,199 96,305 -5,-88 -36,-173 -96,-254 -114,-154 -274,-217 -460,-185 -194,33 -325,151 -378,340 -12,40 -18,79 -20,116zm1231 2145c-1406,0 -2547,-1133 -2561,-2536l0 25c0,1415 1147,2562 2561,2562 940,0 1762,-506 2207,-1261l295 0c9,-17 18,-34 27,-51l-322 0c-445,755 -1267,1261 -2207,1261zm2423 -3999l31 0c-494,-841 -1408,-1406 -2454,-1406 -1570,0 -2842,1273 -2842,2843l0 33c10,-1562 1278,-2825 2842,-2825 1025,0 1923,542 2423,1355zm-4199 3708l-403 1316 21 -21 395 -1285 -13 -10zm1980 785c-442,0 -863,-81 -1249,-227l-448 329c15,6 30,11 45,17l403 -295c386,146 807,227 1249,227 472,0 920,-92 1327,-258 67,-44 132,-90 196,-138 -456,221 -974,345 -1523,345zm-2190 -770c-688,-564 -1125,-1389 -1135,-2309l0 18c0,930 436,1765 1128,2335l7 -44zm2264 -5453c111,3 220,10 327,22 -282,-78 -579,-119 -886,-119 -1836,0 -3325,1488 -3325,3325l0 31c11,-1827 1495,-3306 3325,-3306 191,0 378,17 559,47zm184 2832c4,34 18,62 42,83 29,25 65,38 108,38 46,0 74,-14 82,-43 2,11 3,20 3,30 0,42 -28,63 -85,63 -43,0 -79,-12 -108,-38 -29,-25 -44,-61 -44,-108 0,-9 1,-17 2,-25zm233 33l-2 -9c-2,-11 -4,-22 -7,-32 10,-12 24,-22 42,-28 18,-7 38,-11 59,-11 35,0 65,12 90,35 26,23 39,55 39,97 0,8 -1,17 -2,25 -5,-30 -17,-53 -37,-72 -25,-23 -55,-34 -90,-34 -21,0 -41,3 -59,10 -13,5 -24,12 -33,19zm179 210c14,23 29,44 43,62 20,27 40,49 58,68 -2,14 -6,26 -12,37 -15,-15 -30,-33 -46,-54 -20,-26 -41,-58 -62,-95 7,-6 13,-12 19,-18zm-614 -244c0,-9 -1,-18 -1,-26 0,-42 7,-81 21,-116 14,-36 35,-66 63,-93 28,-26 63,-47 105,-62 41,-15 90,-23 145,-23l68 0 0 51 -68 0c-55,0 -104,7 -145,23 -42,15 -77,36 -105,62 -28,26 -49,57 -63,93 -11,28 -17,58 -20,91zm-101 -464c-1,-8 -2,-17 -2,-26 0,-10 1,-22 3,-36 3,-14 6,-25 9,-33l455 0c14,16 26,33 36,50l-491 0c-3,9 -6,20 -9,34l-1 11zm202 -314l-1 0c0,-5 -1,-9 -1,-13 0,-4 0,-9 0,-13 0,-33 9,-61 26,-85 18,-25 46,-37 83,-37 36,0 73,11 110,34 37,22 72,52 105,89 33,37 63,78 90,125 23,39 41,78 56,119l114 0 22 0 1162 0 23 0 78 0c14,16 26,33 36,50l-114 0 -23 0 -1162 0 -22 0 -114 0c-15,-40 -33,-80 -56,-119 -27,-46 -57,-87 -90,-124 -33,-37 -68,-67 -105,-90 -37,-22 -74,-33 -110,-33 -37,0 -65,12 -83,36 -13,18 -21,39 -24,61zm1604 0l0 0c-1,-5 -2,-9 -2,-13 0,-4 0,-9 0,-13 0,-33 9,-61 27,-85 18,-25 46,-37 84,-37 34,0 69,10 104,31 35,21 69,48 101,83 32,35 62,74 89,118 27,44 49,88 66,135l112 0c38,0 57,24 57,72 0,7 -1,15 -2,25 -6,-31 -25,-47 -55,-47l-112 0c-17,-46 -39,-91 -66,-135 -27,-43 -57,-83 -89,-117 -32,-35 -66,-63 -101,-83 -35,-21 -70,-31 -104,-31 -38,0 -66,12 -84,36 -13,18 -21,39 -25,61zm-479 679c-1,-8 -2,-16 -2,-24 0,-36 6,-68 18,-94 11,-27 27,-50 47,-68 21,-18 44,-31 70,-40 27,-10 55,-14 84,-14 40,0 70,8 89,23 20,16 30,36 30,61 0,10 -1,19 -3,27 -5,-14 -13,-27 -27,-37 -19,-16 -49,-24 -89,-24 -29,0 -57,5 -84,14 -26,10 -49,23 -70,41 -20,18 -36,40 -47,67 -9,20 -14,43 -16,68zm182 8c4,14 13,26 25,35 20,15 44,23 74,23 20,0 39,-3 55,-9 17,-5 31,-13 43,-22l0 51c-12,9 -26,17 -43,22 -16,6 -35,8 -55,8 -30,0 -54,-7 -74,-22 -19,-15 -29,-34 -29,-59 0,-10 1,-19 4,-27zm-250 -274c3,7 5,13 8,19 9,27 14,54 14,83 0,9 0,18 -1,27 -2,-20 -6,-40 -13,-59 -10,-26 -24,-49 -41,-70l33 0zm-131 381c27,34 60,62 101,84 56,30 119,47 191,52 4,16 6,32 6,49 0,8 0,16 -1,24 -2,-7 -3,-15 -5,-22 -72,-5 -135,-22 -191,-53 -57,-30 -99,-72 -128,-124 10,-3 19,-6 27,-10zm-279 -79c-2,-8 -2,-16 -2,-26 0,-17 3,-33 9,-48 6,-14 13,-26 21,-35 10,2 21,4 34,6 12,2 26,3 41,3 42,0 74,-12 96,-36 16,-18 27,-39 31,-63 1,8 1,17 1,26 0,35 -10,64 -32,88 -22,23 -54,35 -96,35 -15,0 -29,-1 -41,-3 -13,-1 -24,-3 -34,-5 -8,9 -15,21 -21,35 -3,7 -6,15 -7,23zm353 671c0,-17 6,-33 18,-45 12,-12 28,-18 48,-18 20,0 36,6 48,18 12,12 18,28 18,45 0,9 -1,18 -5,26 -2,-8 -7,-14 -13,-20 -12,-12 -28,-18 -48,-18 -20,0 -36,6 -48,18 -6,6 -10,12 -13,20 -4,-8 -5,-17 -5,-26zm1198 513c27,0 50,-5 70,-15 20,-10 35,-21 47,-35l0 51c-12,13 -27,25 -47,35 -20,10 -43,14 -70,14 -37,0 -66,-8 -89,-25 -22,-17 -37,-38 -45,-62 9,-2 18,-4 27,-6 5,6 11,12 18,17 23,17 52,26 89,26zm-10 -246c4,10 6,22 6,33 0,10 -1,19 -3,28 -2,-9 -5,-17 -10,-25 -8,-14 -18,-26 -29,-36l36 0z"/>
 </g>
</svg>
