<?xml version="1.0" encoding="UTF-8"?>
<!DOCTYPE svg PUBLIC "-//W3C//DTD SVG 1.1//EN" "http://www.w3.org/Graphics/SVG/1.1/DTD/svg11.dtd">
<!-- Creator: CorelDRAW X7 -->
<svg xmlns="http://www.w3.org/2000/svg" xml:space="preserve" width="484px" height="611px" version="1.1" style="shape-rendering:geometricPrecision; text-rendering:geometricPrecision; image-rendering:optimizeQuality; fill-rule:evenodd; clip-rule:evenodd"
viewBox="0 0 9575 12084"
 xmlns:xlink="http://www.w3.org/1999/xlink">
 <defs>
  <style type="text/css">
   <![CDATA[
    .fil3 {fill:none}
    .fil5 {fill:#70342D}
    .fil20 {fill:#7A1C09}
    .fil14 {fill:#C4491C}
    .fil19 {fill:white}
    .fil17 {fill:#7A1C09;fill-rule:nonzero}
    .fil11 {fill:#F6DFB4;fill-rule:nonzero}
    .fil6 {fill:#FFEBBF;fill-rule:nonzero}
    .fil16 {fill:#FFF5DF;fill-rule:nonzero}
    .fil7 {fill:#FFF7EB;fill-rule:nonzero}
    .fil23 {fill:white;fill-rule:nonzero}
    .fil1 {fill:#FFF0D4;fill-rule:nonzero;fill-opacity:0.501961}
    .fil13 {fill:url(#id0)}
    .fil10 {fill:url(#id1)}
    .fil4 {fill:url(#id2)}
    .fil12 {fill:url(#id3)}
    .fil9 {fill:url(#id4)}
    .fil8 {fill:url(#id5)}
    .fil0 {fill:url(#id6)}
    .fil2 {fill:url(#id7)}
    .fil15 {fill:url(#id8)}
    .fil21 {fill:url(#id9)}
    .fil18 {fill:url(#id10)}
    .fil22 {fill:url(#id11);fill-rule:nonzero}
   ]]>
  </style>
  <linearGradient id="id0" gradientUnits="userSpaceOnUse" x1="4787.75" y1="2098.23" x2="4787.75" y2="7751.59">
   <stop offset="0" style="stop-opacity:1; stop-color:#F4D8BA"/>
   <stop offset="0.278431" style="stop-opacity:1; stop-color:#F28F1D"/>
   <stop offset="0.541176" style="stop-opacity:1; stop-color:#BF391B"/>
   <stop offset="1" style="stop-opacity:1; stop-color:#D9601F"/>
  </linearGradient>
  <linearGradient id="id1" gradientUnits="userSpaceOnUse" x1="4787.66" y1="2119.2" x2="4787.75" y2="8000.71">
   <stop offset="0" style="stop-opacity:1; stop-color:#F08B18"/>
   <stop offset="0.470588" style="stop-opacity:1; stop-color:#AB1916"/>
   <stop offset="1" style="stop-opacity:1; stop-color:#D95E1C"/>
  </linearGradient>
  <linearGradient id="id2" gradientUnits="userSpaceOnUse" x1="4805.57" y1="424.21" x2="4805.57" y2="9554.04">
   <stop offset="0" style="stop-opacity:1; stop-color:#FFD991"/>
   <stop offset="0.258824" style="stop-opacity:1; stop-color:#EC9A3E"/>
   <stop offset="0.611765" style="stop-opacity:1; stop-color:#A12224"/>
   <stop offset="1" style="stop-opacity:1; stop-color:#CF5A1B"/>
  </linearGradient>
  <linearGradient id="id3" gradientUnits="userSpaceOnUse" x1="4786.47" y1="8304.46" x2="4786.56" y2="4787.66">
   <stop offset="0" style="stop-opacity:1; stop-color:#F6DFB4"/>
   <stop offset="1" style="stop-opacity:1; stop-color:#BC3416"/>
  </linearGradient>
  <linearGradient id="id4" gradientUnits="userSpaceOnUse" x1="8924.1" y1="4009.32" x2="8928.82" y2="5373.27">
   <stop offset="0" style="stop-opacity:1; stop-color:#FCE0AB"/>
   <stop offset="1" style="stop-opacity:1; stop-color:#D15C1E"/>
  </linearGradient>
  <linearGradient id="id5" gradientUnits="userSpaceOnUse" xlink:href="#id4" x1="797.671" y1="4009.32" x2="802.388" y2="5373.27">
  </linearGradient>
  <linearGradient id="id6" gradientUnits="userSpaceOnUse" x1="7235.93" y1="8774.07" x2="4822.83" y2="9123.48">
   <stop offset="0" style="stop-opacity:1; stop-color:red"/>
   <stop offset="1" style="stop-opacity:1; stop-color:#B00205"/>
  </linearGradient>
  <linearGradient id="id7" gradientUnits="userSpaceOnUse" x1="2405.76" y1="9569.62" x2="4350.28" y2="8330.36">
   <stop offset="0" style="stop-opacity:1; stop-color:#B00205"/>
   <stop offset="1" style="stop-opacity:1; stop-color:red"/>
  </linearGradient>
  <linearGradient id="id8" gradientUnits="userSpaceOnUse" x1="5069.59" y1="2119.09" x2="5069.69" y2="7519.71">
   <stop offset="0" style="stop-opacity:1; stop-color:#FFF4DF"/>
   <stop offset="1" style="stop-opacity:1; stop-color:#D65B1E"/>
  </linearGradient>
  <linearGradient id="id9" gradientUnits="userSpaceOnUse" x1="3600.6" y1="5756.66" x2="3600.84" y2="2908.28">
   <stop offset="0" style="stop-opacity:1; stop-color:#E3A96A"/>
   <stop offset="1" style="stop-opacity:1; stop-color:#FCE0AB"/>
  </linearGradient>
  <radialGradient id="id10" gradientUnits="userSpaceOnUse" gradientTransform="matrix(7.5308E-017 1.22987 -1.22989 7.5309E-017 12944 858)" cx="4731.56" cy="6677.15" r="2457.24" fx="4731.56" fy="6677.15">
   <stop offset="0" style="stop-opacity:1; stop-color:#FEFEFE"/>
   <stop offset="0.878431" style="stop-opacity:1; stop-color:#F2D5B8"/>
   <stop offset="1" style="stop-opacity:1; stop-color:#E6AC73"/>
  </radialGradient>
  <linearGradient id="id11" gradientUnits="userSpaceOnUse" x1="4558.39" y1="1056.55" x2="4558.39" y2="431.847">
   <stop offset="0" style="stop-opacity:1; stop-color:#F4D8BA"/>
   <stop offset="0.560784" style="stop-opacity:1; stop-color:#F9EBDC"/>
   <stop offset="1" style="stop-opacity:1; stop-color:white"/>
  </linearGradient>
 </defs>
 <g id="Layer_x0020_1">
  <metadata id="CorelCorpID_0Corel-Layer"/>
  <g id="_748146832">
   <g>
    <g>
     <path class="fil0" d="M4728 9283l-456 94 -126 25 -85 18 -76 15 -37 8 -10 2 36 63 757 1315 694 1205c39,60 84,75 139,25l937 -1143c25,-47 62,-81 128,-87l1453 -242c95,-6 117,-54 67,-144l-880 -1552 -30 -52 -4 -8 -16 -28 -12 -21 -16 3 -125 25 -67 14 -43 9 -2228 456z"/>
     <path class="fil1" d="M6993 8891l36 -21 -41 -71 -36 21 41 71zm-2853 520l-36 21 41 71 36 -20 -41 -72zm82 143l-36 21 41 71 36 -20 -41 -72zm82 143l-36 21 41 71 36 -20 -41 -72zm82 143l-35 21 41 71 35 -20 -41 -72zm82 143l-35 20 41 72 35 -21 -41 -71zm83 143l-36 20 41 72 36 -21 -41 -71zm82 143l-36 20 41 72 36 -21 -41 -71zm82 143l-36 20 41 72 36 -21 -41 -71zm82 142l-36 21 41 71 36 -20 -41 -72zm82 143l-36 21 41 71 36 -20 -41 -72zm82 143l-36 21 41 71 36 -20 -41 -72zm82 143l-36 21 42 71 35 -20 -41 -72zm82 143l-35 21 41 71 35 -21 -41 -71zm82 143l-35 20 41 72 35 -21 -41 -71zm83 143l-36 20 41 72 36 -21 -41 -71zm82 143l-36 20 41 72 36 -21 -41 -71zm82 142l-36 21 41 71 36 -20 -41 -72zm50 120l32 26 52 -63 -31 -26 -53 63zm106 -126l31 26 53 -63 -32 -27 -52 64zm105 -127l32 26 53 -63 -32 -26 -53 63zm106 -126l31 26 53 -63 -31 -27 -53 64zm105 -127l32 26 53 -63 -32 -26 -53 63zm106 -126l32 26 52 -63 -31 -27 -53 64zm106 -127l31 26 53 -63 -32 -26 -52 63zm105 -126l32 26 53 -63 -32 -27 -53 64zm106 -127l31 26 53 -63 -31 -26 -53 63zm105 -126l6 5 15 26 79 -13 -7 -40 -86 13 -7 9zm175 -35l6 40 82 -13 -7 -40 -81 13zm162 -27l7 41 81 -13 -6 -41 -82 13zm163 -26l7 41 81 -13 -7 -41 -81 13zm163 -26l6 41 82 -13 -7 -41 -81 13zm163 -26l6 41 81 -13 -6 -41 -81 13zm162 -26l7 41 81 -13 -6 -41 -82 13zm163 -26l6 41 82 -13 -7 -41 -81 13zm163 -26l6 41 81 -13 -6 -41 -81 13zm134 -2l36 -20 -41 -72 -36 21 41 71zm-82 -142l35 -21 -41 -71 -36 20 42 72zm-83 -143l36 -20 -42 -72 -35 21 41 71zm-83 -142l36 -21 -41 -71 -36 20 41 72zm-82 -143l35 -21 -41 -71 -36 21 42 71zm-83 -143l36 -20 -42 -72 -35 21 41 71zm-83 -142l36 -21 -41 -71 -36 21 41 71zm-82 -143l35 -20 -41 -72 -36 21 42 71zm-83 -142l36 -21 -42 -71 -35 20 41 72zm-82 -143l35 -20 -41 -72 -36 21 42 71zm-83 -142l36 -21 -42 -71 -35 20 41 72z"/>
     <path class="fil2" d="M2254 8777c-314,553 -627,1107 -941,1661 -51,90 -29,138 67,144 484,81 968,161 1452,242 66,6 104,40 128,88 313,381 625,762 938,1143 54,49 100,35 139,-26 495,-861 991,-1722 1487,-2583 -1090,-223 -2180,-446 -3270,-669z"/>
     <path class="fil1" d="M2457 8870l-36 -21 41 -71 36 21 -41 71zm2853 520l36 21 -41 71 -36 -20 41 -72zm-82 143l36 21 -41 71 -36 -20 41 -72zm-82 143l36 21 -41 71 -36 -21 41 -71zm-82 143l35 20 -41 72 -35 -21 41 -71zm-82 143l35 20 -41 72 -35 -21 41 -71zm-82 143l35 20 -41 72 -36 -21 42 -71zm-83 143l36 20 -41 72 -36 -21 41 -71zm-82 142l36 21 -41 71 -36 -20 41 -72zm-82 143l36 21 -41 71 -36 -20 41 -72zm-82 143l36 21 -41 71 -36 -20 41 -72zm-82 143l36 21 -41 71 -36 -20 41 -72zm-82 143l36 20 -41 72 -36 -21 41 -71zm-82 143l35 20 -41 72 -35 -21 41 -71zm-82 143l35 20 -41 72 -35 -21 41 -71zm-83 143l36 20 -41 72 -36 -21 41 -71zm-82 142l36 21 -41 71 -36 -20 41 -72zm-82 143l36 21 -41 71 -36 -20 41 -72zm-50 120l-31 26 -53 -63 31 -26 53 63zm-105 -127l-32 27 -53 -63 32 -27 53 63zm-106 -126l-32 26 -52 -63 31 -26 53 63zm-106 -127l-31 27 -53 -63 32 -27 52 63zm-105 -126l-32 26 -53 -63 32 -26 53 63zm-106 -127l-32 27 -52 -63 31 -27 53 63zm-106 -126l-31 26 -53 -63 32 -26 52 63zm-105 -127l-32 27 -53 -63 32 -27 53 63zm-106 -126l-31 26 -53 -63 31 -26 53 63zm-105 -127l-6 6 -15 26 -79 -13 7 -41 86 14 7 8zm-175 -35l-6 41 -81 -13 6 -41 81 13zm-162 -26l-7 41 -81 -13 6 -41 82 13zm-163 -26l-7 41 -81 -13 7 -41 81 13zm-163 -26l-6 41 -82 -13 7 -41 81 13zm-163 -26l-6 41 -81 -13 6 -41 81 13zm-162 -26l-7 41 -81 -13 6 -41 82 13zm-163 -26l-6 41 -82 -13 7 -41 81 13zm-163 -26l-6 41 -81 -13 6 -41 81 13zm-134 -2l-36 -20 42 -72 35 21 -41 71zm83 -142l-36 -21 41 -71 36 20 -41 72zm82 -143l-35 -21 41 -71 35 21 -41 71zm83 -143l-36 -20 41 -72 36 21 -41 71zm82 -142l-35 -21 41 -71 36 21 -42 71zm83 -143l-36 -20 42 -72 35 21 -41 71zm83 -142l-36 -21 41 -71 36 20 -41 72zm82 -143l-35 -21 41 -71 36 21 -42 71zm83 -142l-36 -21 42 -71 35 20 -41 72zm83 -143l-36 -21 41 -71 36 21 -41 71zm82 -143l-35 -20 41 -71 35 20 -41 71z"/>
    </g>
    <g>
     <circle class="fil3" cx="4788" cy="4751" r="4751"/>
     <path class="fil4" d="M4788 0c2644,0 4787,2143 4787,4788 0,2644 -2143,4787 -4787,4787 -2645,0 -4788,-2143 -4788,-4787 0,-2645 2143,-4788 4788,-4788zm0 1306c1923,0 3482,1559 3482,3482 0,1923 -1559,3482 -3482,3482 -1923,0 -3482,-1559 -3482,-3482 0,-1923 1559,-3482 3482,-3482z"/>
     <path class="fil5" d="M828 5588c-26,-131 -46,-264 -59,-397 -13,-133 -19,-267 -19,-401 0,-134 6,-268 19,-401 13,-133 33,-266 59,-397 5,-21 -9,-42 -31,-46 -21,-5 -42,9 -46,31 -27,133 -47,268 -60,404 -14,136 -20,273 -20,409 0,137 6,273 20,409 13,136 33,271 60,404 4,22 25,36 46,32 22,-5 36,-26 31,-47z"/>
     <path class="fil6" d="M4788 60c1305,0 2487,529 3343,1385 855,855 1385,2037 1385,3343 0,1305 -530,2487 -1385,3343 -856,855 -2038,1385 -3343,1385 -1306,0 -2488,-530 -3343,-1385 -856,-856 -1385,-2038 -1385,-3343 0,-1306 529,-2488 1385,-3343 855,-856 2037,-1385 3343,-1385zm3314 1414c-848,-848 -2020,-1373 -3314,-1373 -1295,0 -2466,525 -3314,1373 -848,848 -1373,2019 -1373,3314 0,1294 525,2465 1373,3314 848,848 2019,1372 3314,1372 1294,0 2466,-524 3314,-1372 848,-849 1372,-2020 1372,-3314 0,-1295 -524,-2466 -1372,-3314z"/>
     <path class="fil7" d="M4788 131c1286,0 2450,521 3293,1364 842,842 1364,2007 1364,3293 0,1286 -522,2450 -1364,3293 -843,842 -2007,1364 -3293,1364 -1286,0 -2451,-522 -3293,-1364 -843,-843 -1364,-2007 -1364,-3293 0,-1286 521,-2451 1364,-3293 842,-843 2007,-1364 3293,-1364zm3264 1393c-836,-836 -1990,-1352 -3264,-1352 -1275,0 -2429,516 -3264,1352 -836,835 -1352,1989 -1352,3264 0,1274 516,2428 1352,3264 835,835 1989,1352 3264,1352 1274,0 2428,-517 3264,-1352 835,-836 1352,-1990 1352,-3264 0,-1275 -517,-2429 -1352,-3264z"/>
     <path class="fil5" d="M8803 3992c26,131 46,264 59,397 13,133 19,267 19,401 0,134 -6,268 -19,401 -13,134 -33,266 -59,397 -4,21 10,42 31,47 22,4 42,-10 47,-31 26,-134 46,-269 60,-405 13,-136 20,-272 20,-409 0,-136 -7,-273 -20,-409 -14,-136 -34,-271 -60,-404 -5,-22 -25,-36 -47,-31 -21,4 -35,25 -31,46z"/>
     <path class="fil8" d="M803 5586c-26,-132 -46,-264 -59,-397 -13,-133 -20,-267 -20,-401 0,-134 7,-268 20,-402 13,-133 33,-265 59,-396 4,-22 -10,-43 -31,-47 -22,-4 -42,10 -47,31 -26,134 -46,269 -60,405 -13,136 -20,272 -20,409 0,136 7,273 20,409 14,135 34,270 60,404 5,21 25,35 47,31 21,-4 35,-25 31,-46z"/>
     <path class="fil9" d="M8772 3990c27,131 46,263 59,396 14,134 20,268 20,402 0,134 -6,268 -20,401 -13,133 -32,265 -59,397 -4,21 10,42 31,46 22,4 43,-10 47,-31 27,-134 47,-269 60,-404 13,-136 20,-273 20,-409 0,-137 -7,-273 -20,-409 -13,-136 -33,-271 -60,-405 -4,-21 -25,-35 -47,-31 -21,4 -35,25 -31,47z"/>
     <circle class="fil10" cx="4788" cy="4788" r="3485"/>
     <path class="fil11" d="M7664 3663c-15,-38 -74,-29 -74,14 0,5 1,9 3,14 9,23 18,47 26,70 17,45 84,25 73,-22l-1 -4c-9,-24 -18,-48 -27,-72zm-5672 4c6,-17 1,-34 -14,-45 -21,-14 -47,-6 -57,17 -10,24 -19,48 -28,72 -15,39 37,72 66,36 2,-3 4,-6 6,-10 8,-23 17,-46 27,-70zm-119 357c12,-40 -45,-68 -69,-29 -2,4 -3,6 -4,10 -7,25 -13,50 -19,75 -10,46 58,67 74,19 6,-25 12,-50 18,-75zm-72 369c6,-46 -62,-62 -75,-14l-1 4c-3,26 -6,51 -9,77 -1,14 5,27 16,35 23,17 57,1 60,-27 3,-25 6,-50 9,-75zm-26 375c0,-40 -55,-54 -73,-16 -2,6 -3,10 -3,15 0,26 0,52 0,78 2,48 72,50 76,1 1,-26 0,-52 0,-78zm21 375c-6,-47 -76,-44 -76,6 2,26 7,54 11,80 1,8 5,17 12,22 27,24 68,2 63,-33 -4,-25 -7,-50 -10,-75zm68 370c-13,-48 -83,-32 -74,17 6,25 13,51 20,76 11,43 77,34 74,-13 0,-3 0,-5 -1,-8 -7,-24 -13,-48 -19,-72zm113 358c-14,-37 -71,-29 -73,13 0,5 0,10 2,15 10,24 19,48 29,71 8,18 27,28 45,22 22,-6 34,-30 25,-51 -9,-23 -19,-47 -28,-70zm157 342c-22,-41 -84,-14 -70,30 1,2 2,4 3,6 12,23 25,45 37,68 20,35 77,18 71,-26 -1,-5 -2,-8 -5,-12 -12,-19 -25,-46 -36,-66zm198 319c-23,-33 -78,-10 -68,32 1,5 3,8 6,13 15,21 30,41 45,62 28,36 84,2 65,-39 -1,-2 -2,-5 -4,-7 -15,-20 -30,-40 -44,-61zm236 293c-30,-32 -82,3 -62,44 2,3 4,5 6,8 17,18 35,37 53,56 32,32 84,-8 58,-49 -1,-1 -2,-3 -4,-4 -17,-18 -34,-37 -51,-55zm271 260c-25,-22 -66,-1 -63,32 1,11 6,20 14,27 19,16 39,33 59,49 18,14 44,10 56,-10 11,-16 7,-38 -8,-50 -20,-16 -39,-31 -58,-48zm301 225c-16,-11 -37,-8 -49,7 -15,17 -11,45 8,57 21,14 43,27 65,41 35,22 77,-22 49,-58 -3,-3 -6,-5 -9,-7 -22,-13 -43,-26 -64,-40zm327 185c-40,-19 -75,35 -40,64 2,2 5,3 7,5 23,11 47,22 70,32 43,19 75,-39 37,-66 -1,-1 -3,-2 -6,-3 -22,-10 -45,-21 -68,-32zm348 144c-44,-15 -71,46 -31,69 2,1 4,2 6,3 25,8 49,16 74,24 42,13 70,-47 29,-70 -2,-1 -4,-2 -7,-3 -24,-8 -47,-15 -71,-23zm362 99c-39,-9 -65,45 -27,70 4,2 7,3 12,5 25,5 50,10 76,14 44,8 64,-55 20,-73 -2,-1 -5,-1 -7,-2 -24,-4 -49,-9 -74,-14zm372 53c-43,-4 -58,60 -14,75 3,0 6,1 8,1 26,2 52,4 78,5 42,2 56,-57 15,-74 -4,-1 -8,-2 -12,-2 -25,-1 -50,-3 -75,-5zm376 6c-42,2 -50,63 -8,75 4,1 7,1 12,1 26,-1 51,-2 77,-4 46,-4 48,-72 -1,-76 -1,0 -3,0 -5,0 -25,2 -50,3 -75,4zm374 -41c-44,8 -41,74 6,76 2,0 5,0 7,-1 25,-4 51,-9 76,-14 48,-11 35,-81 -14,-75 -25,5 -50,10 -75,14zm366 -87c-46,15 -30,83 18,74 26,-6 53,-16 77,-24 39,-13 33,-72 -11,-74 -5,0 -8,0 -13,2 -24,7 -48,15 -71,22zm352 -131c-39,16 -25,77 20,72 4,0 7,-1 11,-3 23,-10 47,-21 70,-32 8,-4 15,-11 19,-20 13,-33 -21,-64 -52,-49 -23,11 -45,21 -68,32zm333 -175c-39,25 -11,83 32,69 3,-1 5,-2 7,-4 22,-13 44,-26 66,-40 34,-22 15,-76 -27,-70 -5,1 -10,3 -15,6 -21,13 -42,26 -63,39zm308 -214c-32,26 -5,80 38,66 4,-2 6,-4 10,-6 20,-16 40,-32 60,-49 11,-10 16,-25 12,-39 -8,-27 -40,-37 -61,-19 -20,16 -39,32 -59,47zm280 -251c-30,30 7,82 47,59 3,-2 5,-3 7,-6 18,-18 36,-37 54,-55 31,-35 -14,-84 -51,-57 -2,2 -3,3 -5,5 -17,18 -34,36 -52,54zm246 -284c-25,32 13,78 51,55 4,-3 7,-6 10,-9 15,-21 31,-41 46,-62 26,-39 -24,-81 -58,-50 -2,2 -3,4 -4,5 -15,21 -30,41 -45,61zm208 -313c-23,42 36,80 65,41 13,-22 26,-47 39,-70 21,-39 -32,-78 -63,-43 -1,2 -3,4 -4,6 -12,22 -24,44 -37,66zm168 -336c-17,39 36,73 65,38 2,-3 4,-5 5,-9 10,-23 20,-47 30,-71 16,-42 -41,-72 -67,-36 -2,3 -3,5 -4,8 -10,22 -19,47 -29,70zm125 -355c-4,17 2,34 17,43 21,13 50,2 57,-22 7,-25 13,-50 20,-75 10,-37 -39,-65 -67,-33 -3,5 -5,9 -7,15 -6,24 -13,48 -20,72zm80 -367c-5,41 47,60 70,26 3,-4 5,-9 5,-15 4,-25 8,-51 11,-76 6,-43 -54,-61 -73,-20 -1,4 -2,7 -2,10 -4,25 -7,50 -11,75zm34 -374c-2,40 54,54 72,17 3,-6 4,-10 4,-16 0,-25 1,-51 1,-77 0,-39 -53,-53 -72,-16 -3,5 -4,10 -4,16 0,25 -1,50 -1,76zm-14 -376c4,42 68,47 76,2 0,-3 0,-6 0,-10 -2,-25 -5,-51 -8,-76 -6,-46 -74,-44 -76,4 0,2 0,3 0,5 3,25 6,50 8,75zm-60 -371c10,45 79,36 75,-13l-1 -4c-5,-25 -11,-50 -18,-75 -12,-47 -83,-32 -74,17 6,25 13,50 18,75z"/>
     <path class="fil12" d="M4788 1291c965,0 1839,392 2472,1024 633,633 1024,1507 1024,2473 0,965 -391,1839 -1024,2472 -633,633 -1507,1024 -2472,1024 -966,0 -1840,-391 -2473,-1024 -632,-633 -1024,-1507 -1024,-2472 0,-966 392,-1840 1024,-2473 633,-632 1507,-1024 2473,-1024zm0 42c1908,0 3455,1546 3455,3455 0,1908 -1547,3455 -3455,3455 -1908,0 -3455,-1547 -3455,-3455 0,-1909 1547,-3455 3455,-3455z"/>
     <circle class="fil13" cx="4788" cy="4788" r="2689"/>
     <path class="fil14" d="M4788 1291c1929,0 3494,1561 3494,3486 0,14 -1,29 -1,43 -23,-1905 -1578,-3442 -3493,-3442 -1916,0 -3471,1537 -3494,3442 0,-14 0,-29 0,-43 0,-1925 1564,-3486 3494,-3486z"/>
    </g>
   </g>
   <path class="fil15" d="M4788 2101c741,0 1413,301 1899,787 486,486 787,1158 787,1900 0,741 -301,1413 -787,1899 -486,486 -1158,787 -1899,787 -742,0 -1414,-301 -1900,-787 -486,-486 -787,-1158 -787,-1899 0,-742 301,-1414 787,-1900 486,-486 1158,-787 1900,-787zm0 41c1461,0 2645,1185 2645,2646 0,1461 -1184,2645 -2645,2645 -1461,0 -2646,-1184 -2646,-2645 0,-1461 1185,-2646 2646,-2646z"/>
  </g>
  <path class="fil3" d="M4788 1872c1610,0 2915,1306 2915,2916 0,1610 -1305,2915 -2915,2915 -1610,0 -2915,-1305 -2915,-2915 0,-1610 1305,-2916 2915,-2916z"/>
  <path class="fil16" d="M4246 1709l53 302c-3,1 -7,3 -11,5 -5,2 -10,3 -16,4 -14,3 -24,2 -31,-2 -6,-4 -10,-11 -12,-21l-19 -105 -100 17c-1,16 -5,28 -13,38 -9,10 -21,17 -37,20 -19,3 -33,1 -44,-6 -10,-8 -16,-18 -19,-30 -1,-10 0,-20 3,-32l17 -2c8,-2 13,-5 16,-10 4,-5 5,-12 3,-20l-17 -98c-1,-7 -4,-13 -9,-15 -5,-3 -10,-4 -16,-3 -13,3 -19,10 -18,22 -4,2 -8,3 -11,3 -10,2 -18,1 -25,-3 -7,-4 -11,-11 -13,-20 -3,-16 2,-29 13,-40 12,-10 27,-17 46,-20 25,-5 47,-3 65,6 17,9 28,26 32,50l19 107 99 -17 -21 -118 -45 8c-13,2 -22,-5 -25,-22 0,-4 -1,-8 -1,-13 0,-4 1,-9 2,-12l167 -29c14,-3 22,4 25,21 1,3 1,8 1,13 0,5 -1,9 -1,12l-57 10z"/>
  <path id="1" class="fil16" d="M4401 1682l53 302c-3,1 -7,3 -11,4 -5,2 -10,4 -17,5 -14,2 -24,1 -30,-2 -6,-4 -11,-11 -12,-22l-49 -276 -43 8c-7,1 -13,0 -17,-3 -3,-4 -6,-10 -8,-19 0,-3 -1,-8 -1,-12 0,-5 0,-9 1,-13l166 -29c13,-2 22,5 25,22 0,3 0,7 0,12 0,5 0,10 -1,13l-56 10z"/>
  <path id="2" class="fil16" d="M4602 1665l9 307c-3,1 -7,2 -12,3 -5,1 -10,1 -17,2 -14,0 -24,-2 -30,-7 -5,-4 -8,-12 -9,-23l-8 -280 -43 1c-8,1 -13,-1 -16,-6 -3,-4 -5,-10 -5,-19 0,-3 0,-8 0,-12 1,-5 2,-9 3,-12l58 -2c-3,-5 -6,-12 -8,-20 -2,-8 -3,-17 -3,-26 0,-16 3,-30 9,-44 6,-13 15,-25 28,-35 12,-11 28,-19 47,-25 20,-6 42,-9 67,-10 33,-1 63,2 91,9 29,7 53,16 73,26 21,10 37,20 49,30 12,11 18,20 18,27 1,9 -3,16 -10,21 -7,6 -16,8 -27,9 -11,-11 -23,-20 -37,-29 -14,-9 -29,-16 -46,-22 -16,-6 -33,-10 -51,-13 -18,-3 -36,-4 -54,-4 -30,1 -52,8 -67,20 -14,12 -22,28 -21,48 0,6 1,13 3,20 1,6 3,12 6,16l43 -1c14,0 21,8 22,25 0,3 -1,7 -1,12 -1,5 -2,9 -3,13l-58 1z"/>
  <path id="3" class="fil16" d="M4935 1656l9 307c-4,1 -7,2 -12,3 -5,1 -10,2 -17,2 -14,0 -24,-2 -30,-7 -6,-4 -9,-12 -9,-23l-3 -86c-9,6 -20,11 -32,15 -12,4 -26,6 -40,6 -36,1 -64,-8 -86,-27 -22,-19 -33,-49 -34,-89l-3 -93 -31 1c-8,0 -13,-2 -17,-6 -3,-4 -5,-11 -5,-20 0,-3 0,-7 1,-12 1,-5 1,-9 3,-12l346 -10c14,0 21,8 21,25 0,3 0,8 -1,13 0,5 -1,9 -3,12l-57 1zm-121 162c12,0 23,-3 33,-7 10,-4 18,-9 24,-15l-126 -94 2 50c0,26 6,43 18,53 11,9 28,14 49,13zm57 -66l-3 -94 -121 4 124 90z"/>
  <path id="4" class="fil16" d="M5429 1727l-53 302c-4,0 -8,1 -13,1 -4,0 -10,-1 -16,-2 -14,-2 -23,-6 -28,-12 -5,-6 -7,-14 -5,-25l50 -275 -70 -13c-2,21 -4,41 -7,59 -2,18 -5,37 -8,56 -4,18 -9,33 -17,45 -8,12 -18,22 -29,29 -12,7 -25,11 -39,13 -15,2 -30,1 -47,-1 -16,-3 -31,-8 -43,-15 -13,-6 -24,-15 -32,-25 -9,-10 -15,-23 -18,-37 -3,-15 -3,-31 0,-49 3,-19 7,-38 11,-56 3,-18 8,-37 13,-57l-34 -7c-8,-1 -13,-4 -15,-9 -2,-4 -3,-11 -1,-20 0,-3 1,-7 3,-12 2,-4 3,-8 5,-11l443 79c14,3 19,12 16,29 0,3 -2,7 -3,12 -2,5 -4,9 -6,11l-57 -10zm-272 122c14,2 25,0 34,-6 9,-7 15,-18 18,-34l21 -117 -88 -16 -21 117c-3,16 -1,29 6,38 6,10 16,16 30,18z"/>
  <path id="5" class="fil16" d="M5585 1754l-54 302c-4,0 -8,0 -13,1 -4,0 -10,-1 -16,-2 -14,-2 -24,-7 -28,-12 -5,-6 -6,-14 -4,-25l49 -275 -43 -8c-7,-1 -12,-5 -14,-9 -3,-5 -3,-12 -2,-20 1,-4 2,-8 4,-12 1,-5 3,-9 5,-11l59 10 3 -17c5,-29 4,-51 -2,-66 -6,-15 -17,-23 -33,-26 -11,-2 -22,0 -32,6 -9,6 -15,18 -18,33l-3 16c-3,1 -6,2 -9,2 -6,1 -13,0 -20,-1 -11,-2 -20,-6 -26,-12 -7,-7 -9,-16 -7,-30 2,-12 7,-23 14,-33 7,-10 16,-18 27,-24 11,-7 23,-11 37,-13 14,-2 29,-1 46,2 35,6 61,22 78,48 17,26 21,63 13,109l-3 18 41 7c14,3 19,12 16,29 0,3 -2,7 -3,12 -2,5 -4,9 -6,11l-56 -10z"/>
  <path class="fil17" d="M3665 8674l-139 346c-4,-1 -9,-2 -15,-3 -6,-1 -12,-3 -19,-6 -16,-6 -26,-13 -30,-21 -4,-8 -4,-18 1,-30l27 -67c-16,5 -32,6 -49,5 -17,-1 -36,-6 -55,-14 -32,-13 -58,-31 -77,-54 -19,-23 -31,-48 -36,-75 -1,-7 -2,-13 -3,-21 -16,-3 -32,-7 -49,-14 -17,-7 -34,-16 -51,-27 -17,-12 -31,-25 -42,-40 -21,4 -44,3 -68,-4 1,16 3,31 8,46 4,15 9,30 15,43 7,14 14,27 22,39 9,12 17,23 26,33 -5,13 -13,23 -25,30 -11,6 -25,6 -41,0 -13,-5 -24,-14 -34,-27 -11,-13 -19,-29 -26,-48 -6,-20 -11,-41 -13,-64 -3,-24 -2,-49 1,-75 -12,-6 -20,-14 -23,-22 -3,-9 -3,-18 1,-28 3,-6 6,-11 11,-16 4,-5 9,-9 14,-12 5,4 11,7 19,12 7,4 16,7 24,11 27,11 49,13 67,6 17,-7 30,-20 39,-41 4,-11 7,-23 7,-35 1,-13 0,-24 -3,-35l-65 -26c-3,4 -6,7 -9,9l-60 -36 -191 320c-4,-1 -9,-3 -14,-5 -5,-2 -11,-5 -18,-9 -15,-8 -24,-17 -27,-26 -3,-8 -1,-18 6,-29l174 -293 -32 -19 -13 -7 -1 -1 0 0 0 0 -1 0 -203 -122 -43 71c13,-1 26,0 41,4 14,3 28,9 44,18 16,10 29,21 40,35 11,13 18,27 22,43 5,16 5,32 3,49 -3,17 -9,34 -19,51 -11,18 -23,32 -37,42 -14,10 -28,17 -43,21 -16,3 -31,3 -47,1 -15,-3 -30,-9 -44,-17 -31,-19 -40,-40 -27,-62 3,-5 6,-9 10,-13 4,-3 7,-6 11,-8 2,3 5,5 9,8 3,2 7,4 10,6 15,9 31,12 46,9 16,-2 30,-13 40,-31 10,-16 12,-32 8,-48 -4,-16 -16,-29 -34,-40 -11,-7 -22,-10 -35,-11 -12,-1 -23,1 -33,4l-113 189c-4,-2 -9,-3 -14,-5 -6,-2 -11,-5 -18,-9 -15,-9 -24,-18 -27,-26 -3,-9 -1,-18 6,-30l27 -45c-13,1 -26,0 -41,-3 -14,-3 -29,-10 -46,-20 -15,-9 -28,-20 -39,-33 -11,-13 -19,-27 -23,-43 -5,-15 -7,-32 -5,-50 2,-18 9,-36 20,-55 10,-17 22,-31 36,-41 14,-9 28,-16 43,-19 16,-3 31,-3 47,0 15,2 30,8 44,16 20,12 32,23 36,35 5,12 4,23 -2,33 -6,10 -14,17 -23,21 -4,-4 -7,-7 -10,-10 -3,-3 -8,-6 -13,-10 -16,-9 -32,-12 -48,-10 -16,3 -29,13 -39,30 -10,17 -12,33 -8,49 5,16 17,30 35,41 14,8 27,12 39,13 13,0 24,-1 33,-5l111 -186 -212 -126c-14,-9 -16,-22 -6,-40 3,-4 6,-8 9,-12 4,-5 8,-8 11,-11l487 290 13 8 1 0 106 64 701 283c8,3 13,8 15,14 2,6 0,14 -3,24 -2,4 -4,8 -8,14 -3,5 -6,9 -8,12l-66 -27zm3385 -550l188 321c-3,3 -7,6 -11,10 -4,4 -10,8 -17,12 -15,9 -27,12 -35,11 -9,-2 -17,-8 -23,-20l-172 -293 -34 20 -12 6 0 0 -1 1 0 0 0 0 -48 28 189 321c-4,3 -7,7 -12,11 -4,4 -10,8 -16,11 -15,9 -27,13 -36,11 -9,-2 -16,-8 -23,-19l-96 -165c-11,4 -21,7 -31,11 -10,4 -20,9 -30,15 -25,15 -42,33 -51,54 -9,22 -6,45 9,72 13,21 29,38 49,48 20,11 40,19 61,24 2,10 1,19 -3,29 -3,9 -10,16 -21,22 -10,6 -22,8 -36,7 -14,-2 -29,-7 -44,-14 -15,-8 -30,-18 -44,-32 -14,-13 -27,-28 -37,-46 -12,-21 -20,-42 -22,-62 -3,-20 -1,-39 5,-57 7,-19 17,-36 32,-52 14,-15 32,-30 54,-43 13,-7 25,-13 38,-19 14,-6 26,-11 37,-15l-42 -71 -242 142c-8,4 -15,5 -20,3 -6,-3 -12,-9 -17,-18 -2,-4 -4,-8 -7,-14 -2,-5 -3,-10 -4,-14l361 -211 12 -7 1 0 50 -30c-15,-4 -30,-11 -45,-21 -14,-10 -26,-24 -36,-40 -14,-25 -18,-51 -11,-76 8,-26 25,-47 54,-64 21,-12 38,-17 50,-15 12,2 21,9 27,19 6,10 8,19 6,28 -5,1 -10,2 -14,4 -5,2 -11,5 -16,8 -12,7 -21,17 -25,31 -4,13 -2,27 7,43 7,11 16,21 27,29 12,8 24,14 37,18l52 -30c15,-9 27,-4 38,13 2,4 4,9 6,15 2,5 3,10 4,14l-60 36zm-2630 674l-44 370c-4,0 -9,1 -15,1 -6,0 -12,0 -20,-1 -17,-2 -29,-6 -35,-13 -6,-6 -8,-16 -6,-29l8 -72c-14,9 -29,15 -46,18 -17,3 -36,4 -57,1 -34,-4 -64,-14 -88,-32 -24,-17 -42,-38 -54,-63 -8,-14 -13,-29 -16,-44 -3,-15 -3,-28 -2,-39 1,-6 2,-11 5,-15 3,-4 8,-6 14,-6 30,1 52,-3 66,-12 15,-8 23,-22 25,-39 2,-13 0,-25 -6,-35 -5,-10 -13,-18 -24,-25l-88 -11c-17,-2 -24,-13 -21,-34 0,-4 1,-9 3,-15 2,-5 4,-10 6,-14l439 52 13 2 0 0 1 0 0 0 59 7c-6,-16 -14,-31 -25,-46 -11,-14 -22,-28 -35,-40 -13,-12 -27,-22 -40,-31 -14,-9 -27,-16 -39,-21 0,-2 0,-3 0,-5 0,-2 0,-4 1,-7 1,-13 6,-24 15,-33 8,-9 20,-12 36,-11 15,2 31,9 47,21 17,12 32,28 46,46 15,19 27,40 39,63 12,24 20,48 26,72l13 2 397 -14c8,0 14,2 18,7l1 -3 384 -45 16 -2 1 -1 1 0 121 -14c0,-4 0,-8 1,-12l403 -93c3,0 6,-1 8,-1l520 -210c16,-6 28,0 35,19 2,4 3,9 5,15 1,6 2,11 1,15l-235 95 31 77c7,-11 16,-21 27,-30 11,-9 25,-17 42,-24 17,-7 35,-11 52,-11 16,-1 33,2 48,8 15,6 28,15 40,28 12,12 22,27 29,46 8,19 12,37 11,55 0,17 -3,32 -10,47 -6,14 -15,26 -27,37 -12,11 -25,19 -39,25 -35,14 -57,9 -67,-16 -2,-5 -3,-10 -4,-16 0,-5 0,-9 1,-13 3,0 7,-1 11,-3 4,-1 8,-2 11,-4 17,-6 28,-17 36,-31 7,-14 7,-31 -1,-51 -7,-17 -18,-29 -34,-35 -15,-6 -32,-5 -52,3 -12,5 -22,12 -30,21 -8,9 -13,19 -17,29l82 204c-4,2 -8,5 -12,8 -5,3 -11,6 -18,9 -16,7 -29,9 -37,6 -9,-3 -16,-11 -20,-23l-20 -48c-7,10 -16,21 -27,30 -11,9 -26,17 -44,25 -16,6 -32,10 -49,11 -17,0 -34,-2 -49,-8 -15,-5 -30,-14 -43,-26 -13,-13 -23,-29 -31,-50 -8,-18 -12,-36 -11,-53 0,-17 4,-32 11,-46 6,-14 16,-26 27,-37 12,-11 26,-19 41,-26 21,-8 37,-10 49,-7 12,3 21,11 25,22 5,11 5,21 2,31 -5,0 -9,1 -13,2 -5,0 -10,2 -16,4 -17,7 -29,18 -37,32 -7,15 -7,31 1,50 7,17 18,29 34,35 16,6 33,5 53,-3 15,-6 26,-14 34,-23 8,-10 13,-20 16,-30l-81 -200 -226 91 0 0 -1 0 -2 1c-4,2 -7,3 -11,2l-55 13 84 363c-4,2 -8,4 -14,7 -5,2 -11,4 -19,6 -16,4 -29,3 -37,-1 -8,-4 -13,-12 -16,-25l-36 -156 -112 26c-9,2 -15,5 -19,11 -3,5 -4,13 -2,24l8 31c-5,4 -10,7 -16,11 -5,3 -11,5 -17,6 -15,4 -30,2 -45,-7 -14,-8 -24,-24 -29,-46 -5,-21 -2,-39 9,-54 10,-15 28,-25 51,-30l157 -36 -26 -112 -196 46 -1 6c0,6 -1,11 -2,15l-69 8 44 370c-4,1 -9,3 -15,5 -5,2 -12,3 -20,4 -17,2 -29,0 -36,-5 -8,-5 -12,-14 -14,-27l-40 -338 -36 5 -16 2 -1 0 0 0 0 0 -63 7 11 94c1,11 0,19 -5,24 -4,6 -13,9 -25,11l-81 9c-27,3 -48,13 -64,28 -16,15 -22,36 -19,63 1,12 5,24 11,34 6,10 13,18 22,24 9,6 19,11 30,13 11,3 22,3 34,2 17,-2 29,-7 37,-13 7,-7 10,-17 8,-30 0,-6 -2,-11 -3,-17 -2,-6 -4,-12 -6,-17 3,-5 9,-10 16,-14 7,-4 16,-6 25,-7 7,-1 15,-1 22,1 8,2 15,5 21,9 6,5 11,10 15,17 4,7 7,16 8,26 2,14 0,26 -5,37 -4,11 -11,20 -18,28 12,16 24,31 36,44 13,13 25,24 35,33 0,12 -5,23 -13,31 -7,8 -18,13 -31,15 -15,2 -27,-2 -37,-10 -11,-8 -19,-21 -26,-38l-19 -45c-7,4 -14,7 -23,10 -9,2 -20,5 -33,6 -23,3 -46,2 -67,-2 -21,-4 -41,-11 -58,-22 -17,-10 -31,-25 -43,-43 -11,-18 -18,-39 -21,-64 -2,-20 -1,-40 3,-58 5,-19 13,-35 25,-49 13,-15 28,-27 48,-37 19,-10 42,-16 70,-19l46 -6 -7 -58 -239 28c-10,1 -18,-2 -22,-9 -1,3 -2,5 -3,8l-69 2 13 372c-4,1 -9,3 -14,4 -6,1 -13,2 -20,2 -18,1 -30,-2 -37,-7 -7,-6 -11,-15 -12,-28l-11 -340 -121 4c10,15 20,34 27,55 8,21 12,43 13,68 0,22 -2,43 -7,61 -6,18 -14,33 -24,45 -10,12 -22,22 -36,28 -14,7 -30,10 -46,11 -18,1 -32,-3 -42,-10 -10,-7 -16,-18 -16,-31 -1,-12 1,-22 6,-32 7,1 13,1 19,1 19,0 35,-8 46,-22 12,-15 17,-38 16,-69 -1,-20 -5,-39 -12,-57 -7,-17 -16,-33 -26,-45l-3 0c-1,4 -3,7 -4,9l-61 -7 -9 0 0 0 -43 369c-5,0 -10,1 -15,1 -6,1 -13,1 -21,0 -17,-2 -28,-7 -34,-13 -6,-7 -9,-17 -7,-29l40 -338 -39 -5 0 0 -13 -2 -1 0 -56 -6zm-199 210c21,2 40,0 56,-6 16,-5 29,-13 40,-22l23 -192 -127 -15c8,9 14,19 19,31 5,11 7,24 5,38 -1,15 -5,27 -12,37 -6,11 -14,19 -24,26 -10,7 -22,13 -35,16 -13,3 -26,5 -41,6 4,20 14,37 30,53 15,15 38,24 66,28zm-1199 -787c7,-12 17,-20 30,-24 13,-3 26,-1 40,7 13,9 22,19 25,32 3,13 1,26 -6,38 -7,11 -17,19 -30,23 -13,3 -27,1 -40,-7 -14,-8 -22,-19 -25,-32 -3,-13 -1,-26 6,-37zm397 604c19,8 37,11 55,9 17,-1 32,-5 44,-11l72 -179 -118 -48c5,11 9,22 11,35 1,13 0,26 -6,39 -5,13 -12,24 -21,32 -9,8 -19,14 -31,19 -11,4 -23,6 -37,6 -13,0 -27,-2 -41,-5 -1,20 4,39 15,58 11,19 30,34 57,45zm-193 -328c2,12 2,25 2,39 -1,13 -4,27 -10,42 -8,19 -19,35 -34,48 14,11 30,19 48,27 8,3 16,6 24,8 7,2 15,4 24,5 2,-5 5,-8 8,-10 4,-2 8,-3 14,-1 28,8 51,10 67,6 16,-5 28,-16 34,-32 5,-12 6,-24 4,-35 -3,-11 -8,-21 -16,-31l-165 -66z"/>
  <path class="fil18" d="M3665 8644l-139 345c-4,0 -9,-1 -15,-2 -6,-1 -12,-3 -19,-6 -16,-6 -26,-14 -30,-22 -4,-7 -4,-17 1,-30l27 -66c-16,4 -32,6 -49,5 -17,-2 -36,-6 -55,-14 -32,-13 -58,-31 -77,-54 -19,-23 -31,-48 -36,-76 -1,-6 -2,-13 -3,-21 -16,-2 -32,-7 -49,-14 -17,-6 -34,-15 -51,-27 -17,-11 -31,-24 -42,-39 -21,4 -44,3 -68,-4 1,16 3,31 8,46 4,15 9,29 15,43 7,14 14,27 22,39 9,12 17,23 26,33 -5,13 -13,23 -25,29 -11,7 -25,7 -41,0 -13,-5 -24,-14 -34,-27 -11,-13 -19,-29 -26,-48 -6,-19 -11,-40 -13,-64 -3,-23 -2,-48 1,-74 -12,-7 -20,-14 -23,-23 -3,-8 -3,-17 1,-27 3,-6 6,-12 11,-17 4,-4 9,-8 14,-11 5,3 11,7 19,11 7,4 16,8 24,12 27,10 49,12 67,6 17,-7 30,-21 39,-41 4,-12 7,-24 7,-36 1,-12 0,-24 -3,-35l-65 -26c-3,4 -6,7 -9,9l-60 -35 -191 320c-4,-2 -9,-3 -14,-5 -5,-2 -11,-5 -18,-9 -15,-9 -24,-17 -27,-26 -3,-8 -1,-18 6,-29l174 -293 -32 -19 -13 -8 -1 0 0 0 0 0 -1 -1 -203 -121 -43 71c13,-1 26,0 41,3 14,3 28,10 44,19 16,10 29,21 40,34 11,14 18,28 22,44 5,15 5,32 3,49 -3,17 -9,34 -19,51 -11,18 -23,31 -37,42 -14,10 -28,17 -43,20 -16,4 -31,4 -47,1 -15,-3 -30,-8 -44,-16 -31,-19 -40,-40 -27,-63 3,-5 6,-9 10,-12 4,-4 7,-6 11,-8 2,3 5,5 9,7 3,3 7,5 10,7 15,9 31,12 46,9 16,-3 30,-13 40,-31 10,-16 12,-32 8,-48 -4,-16 -16,-29 -34,-40 -11,-7 -22,-11 -35,-11 -12,-1 -23,0 -33,3l-113 189c-4,-1 -9,-3 -14,-5 -6,-1 -11,-4 -18,-8 -15,-9 -24,-18 -27,-26 -3,-9 -1,-19 6,-30l27 -45c-13,1 -26,0 -41,-3 -14,-4 -29,-10 -46,-20 -15,-9 -28,-20 -39,-33 -11,-13 -19,-27 -23,-43 -5,-16 -7,-32 -5,-50 2,-18 9,-36 20,-55 10,-18 22,-31 36,-41 14,-10 28,-16 43,-19 16,-3 31,-4 47,-1 15,3 30,9 44,17 20,11 32,23 36,35 5,12 4,23 -2,33 -6,10 -14,17 -23,20 -4,-3 -7,-7 -10,-10 -3,-2 -8,-6 -13,-9 -16,-9 -32,-13 -48,-10 -16,3 -29,13 -39,30 -10,17 -12,33 -8,49 5,16 17,30 35,40 14,9 27,13 39,13 13,1 24,-1 33,-5l111 -185 -212 -127c-14,-8 -16,-21 -6,-40 3,-3 6,-7 9,-12 4,-4 8,-8 11,-10l487 289 13 8 1 1 106 63 701 283c8,4 13,9 15,15 2,6 0,14 -3,23 -2,4 -4,9 -8,14 -3,5 -6,10 -8,13l-66 -27zm3385 -551l188 322c-3,3 -7,6 -11,10 -4,4 -10,8 -17,12 -15,8 -27,12 -35,10 -9,-1 -17,-8 -23,-19l-172 -294 -34 20 -12 7 0 0 -1 0 0 1 0 0 -48 28 189 321c-4,3 -7,6 -12,10 -4,4 -10,8 -16,12 -15,9 -27,12 -36,11 -9,-2 -16,-8 -23,-20l-96 -164c-11,3 -21,7 -31,11 -10,4 -20,9 -30,15 -25,15 -42,33 -51,54 -9,21 -6,45 9,71 13,22 29,38 49,49 20,11 40,19 61,24 2,10 1,19 -3,28 -3,9 -10,17 -21,23 -10,6 -22,8 -36,6 -14,-1 -29,-6 -44,-14 -15,-7 -30,-18 -44,-31 -14,-13 -27,-29 -37,-46 -12,-21 -20,-42 -22,-62 -3,-20 -1,-40 5,-58 7,-18 17,-35 32,-51 14,-16 32,-30 54,-43 13,-7 25,-14 38,-20 14,-5 26,-10 37,-14l-42 -71 -242 141c-8,5 -15,6 -20,4 -6,-3 -12,-9 -17,-18 -2,-4 -4,-8 -7,-14 -2,-5 -3,-10 -4,-14l361 -211 12 -7 1 -1 50 -30c-15,-3 -30,-10 -45,-21 -14,-10 -26,-23 -36,-39 -14,-25 -18,-51 -11,-77 8,-25 25,-47 54,-63 21,-13 38,-18 50,-15 12,2 21,8 27,19 6,9 8,19 6,28 -5,1 -10,2 -14,4 -5,2 -11,4 -16,8 -12,7 -21,17 -25,30 -4,14 -2,28 7,43 7,12 16,22 27,30 12,8 24,14 37,18l52 -31c15,-8 27,-4 38,14 2,4 4,8 6,14 2,6 3,11 4,15l-60 35zm-2630 674l-44 370c-4,1 -9,1 -15,2 -6,0 -12,0 -20,-1 -17,-2 -29,-6 -35,-13 -6,-6 -8,-16 -6,-29l8 -72c-14,9 -29,15 -46,18 -17,3 -36,3 -57,1 -34,-4 -64,-15 -88,-32 -24,-17 -42,-38 -54,-63 -8,-14 -13,-29 -16,-44 -3,-16 -3,-29 -2,-39 1,-6 2,-11 5,-15 3,-4 8,-6 14,-6 30,1 52,-3 66,-12 15,-9 23,-22 25,-40 2,-13 0,-24 -6,-34 -5,-10 -13,-19 -24,-26l-88 -10c-17,-2 -24,-13 -21,-34 0,-4 1,-9 3,-15 2,-6 4,-10 6,-14l439 52 13 2 0 0 1 0 0 0 59 7c-6,-16 -14,-32 -25,-46 -11,-15 -22,-28 -35,-40 -13,-12 -27,-23 -40,-32 -14,-8 -27,-15 -39,-20 0,-2 0,-4 0,-6 0,-2 0,-4 1,-6 1,-13 6,-24 15,-33 8,-9 20,-13 36,-11 15,2 31,9 47,21 17,12 32,27 46,46 15,18 27,39 39,63 12,23 20,47 26,72l13 2 397 -14c8,0 14,2 18,7l1 -3 384 -46 16 -2 1 0 1 0 121 -14c0,-5 0,-9 1,-12l403 -93c3,-1 6,-1 8,-1l520 -210c16,-6 28,0 35,19 2,4 3,9 5,15 1,6 2,11 1,15l-235 95 31 77c7,-11 16,-21 27,-30 11,-10 25,-18 42,-25 17,-7 35,-10 52,-11 16,0 33,3 48,9 15,6 28,15 40,27 12,13 22,28 29,47 8,19 12,37 11,54 0,17 -3,33 -10,47 -6,14 -15,27 -27,38 -12,10 -25,19 -39,25 -35,14 -57,8 -67,-16 -2,-6 -3,-11 -4,-16 0,-5 0,-9 1,-13 3,-1 7,-2 11,-3 4,-1 8,-3 11,-4 17,-7 28,-17 36,-31 7,-15 7,-32 -1,-51 -7,-17 -18,-29 -34,-35 -15,-6 -32,-6 -52,2 -12,5 -22,12 -30,21 -8,10 -13,19 -17,30l82 203c-4,3 -8,6 -12,9 -5,3 -11,6 -18,9 -16,6 -29,8 -37,5 -9,-2 -16,-10 -20,-22l-20 -49c-7,11 -16,21 -27,30 -11,10 -26,18 -44,25 -16,7 -32,10 -49,11 -17,1 -34,-1 -49,-7 -15,-6 -30,-15 -43,-27 -13,-12 -23,-29 -31,-49 -8,-19 -12,-36 -11,-53 0,-17 4,-32 11,-46 6,-14 16,-27 27,-38 12,-10 26,-19 41,-25 21,-8 37,-11 49,-7 12,3 21,10 25,22 5,10 5,21 2,30 -5,1 -9,1 -13,2 -5,1 -10,2 -16,5 -17,7 -29,18 -37,32 -7,14 -7,31 1,49 7,18 18,30 34,36 16,6 33,5 53,-3 15,-6 26,-14 34,-24 8,-10 13,-19 16,-29l-81 -201 -226 92 0 0 -1 0 -2 1c-4,1 -7,2 -11,2l-55 13 84 363c-4,2 -8,4 -14,6 -5,3 -11,5 -19,6 -16,4 -29,4 -37,0 -8,-4 -13,-13 -16,-25l-36 -157 -112 26c-9,2 -15,6 -19,11 -3,6 -4,14 -2,24l8 32c-5,4 -10,7 -16,10 -5,3 -11,6 -17,7 -15,4 -30,1 -45,-7 -14,-9 -24,-24 -29,-46 -5,-22 -2,-40 9,-54 10,-15 28,-25 51,-31l157 -36 -26 -111 -196 45 -1 6c0,6 -1,11 -2,15l-69 9 44 370c-4,1 -9,3 -15,4 -5,2 -12,4 -20,4 -17,3 -29,1 -36,-4 -8,-5 -12,-14 -14,-27l-40 -338 -36 4 -16 2 -1 0 0 0 0 0 -63 8 11 94c1,10 0,18 -5,24 -4,5 -13,9 -25,10l-81 10c-27,3 -48,12 -64,28 -16,15 -22,36 -19,62 1,13 5,25 11,34 6,10 13,18 22,25 9,6 19,10 30,13 11,2 22,3 34,1 17,-2 29,-6 37,-13 7,-6 10,-16 8,-29 0,-6 -2,-12 -3,-18 -2,-6 -4,-11 -6,-16 3,-5 9,-10 16,-14 7,-4 16,-7 25,-8 7,-1 15,0 22,2 8,1 15,4 21,9 6,4 11,10 15,17 4,7 7,16 8,26 2,13 0,26 -5,37 -4,11 -11,20 -18,28 12,16 24,31 36,44 13,12 25,23 35,33 0,12 -5,22 -13,31 -7,8 -18,13 -31,15 -15,1 -27,-2 -37,-10 -11,-9 -19,-22 -26,-39l-19 -44c-7,3 -14,6 -23,9 -9,3 -20,5 -33,7 -23,3 -46,2 -67,-2 -21,-4 -41,-11 -58,-22 -17,-11 -31,-25 -43,-43 -11,-18 -18,-39 -21,-64 -2,-21 -1,-40 3,-59 5,-18 13,-34 25,-49 13,-14 28,-26 48,-36 19,-10 42,-16 70,-20l46 -5 -7 -59 -239 29c-10,1 -18,-2 -22,-9 -1,3 -2,5 -3,7l-69 3 13 372c-4,1 -9,2 -14,4 -6,1 -13,2 -20,2 -18,1 -30,-2 -37,-7 -7,-6 -11,-15 -12,-28l-11 -341 -121 5c10,15 20,33 27,54 8,21 12,44 13,68 0,23 -2,43 -7,61 -6,18 -14,33 -24,46 -10,12 -22,21 -36,28 -14,7 -30,10 -46,11 -18,0 -32,-3 -42,-10 -10,-8 -16,-18 -16,-32 -1,-11 1,-22 6,-32 7,2 13,2 19,2 19,-1 35,-8 46,-23 12,-14 17,-37 16,-68 -1,-21 -5,-40 -12,-57 -7,-18 -16,-33 -26,-46l-3 0c-1,4 -3,7 -4,10l-61 -7 -9 0 0 0 -43 369c-5,0 -10,1 -15,1 -6,1 -13,0 -21,-1 -17,-2 -28,-6 -34,-12 -6,-7 -9,-17 -7,-30l40 -338 -39 -4 0 0 -13 -2 -1 0 -56 -7zm-199 210c21,3 40,1 56,-5 16,-6 29,-13 40,-22l23 -192 -127 -15c8,8 14,18 19,30 5,12 7,25 5,39 -1,14 -5,27 -12,37 -6,10 -14,19 -24,26 -10,7 -22,12 -35,16 -13,3 -26,5 -41,6 4,19 14,37 30,52 15,15 38,25 66,28zm-1199 -787c7,-12 17,-19 30,-23 13,-3 26,-1 40,7 13,8 22,19 25,32 3,13 1,25 -6,37 -7,12 -17,20 -30,23 -13,4 -27,2 -40,-6 -14,-9 -22,-19 -25,-32 -3,-14 -1,-26 6,-38zm397 604c19,8 37,12 55,10 17,-1 32,-5 44,-11l72 -179 -118 -48c5,10 9,22 11,34 1,13 0,26 -6,39 -5,14 -12,24 -21,33 -9,8 -19,14 -31,18 -11,4 -23,6 -37,6 -13,0 -27,-1 -41,-5 -1,21 4,40 15,59 11,19 30,34 57,44zm-193 -328c2,13 2,26 2,39 -1,14 -4,28 -10,43 -8,19 -19,35 -34,48 14,10 30,19 48,26 8,4 16,6 24,9 7,2 15,4 24,4 2,-4 5,-7 8,-10 4,-2 8,-2 14,-1 28,9 51,11 67,6 16,-4 28,-15 34,-31 5,-13 6,-24 4,-35 -3,-11 -8,-22 -16,-31l-165 -67z"/>
  <path class="fil19" d="M3461 8959c-3,-8 -3,-18 2,-30l15 -38c4,-1 8,-2 12,-3l-27 67 -2 4zm-398 -313c1,6 3,13 5,19 4,15 9,29 15,43 7,14 14,27 22,39 9,12 17,23 26,33 -2,5 -5,11 -8,15 -6,-7 -12,-14 -18,-23 -8,-12 -15,-25 -22,-38 -6,-14 -11,-28 -15,-43 -5,-15 -7,-31 -8,-46l3 1zm-73 5c0,-10 0,-20 1,-31l2 1c-1,11 -2,20 -3,30zm-20 -77l0 -1c-3,-8 -3,-17 1,-27 3,-6 6,-12 11,-17 4,-4 9,-8 14,-11 5,3 11,7 19,11 7,4 16,8 24,12 27,10 49,12 67,6 17,-7 30,-21 39,-41 3,-9 6,-18 7,-28 0,6 0,12 0,18 0,12 -3,24 -7,36 -9,20 -22,34 -39,40 -18,7 -40,5 -67,-6 -8,-3 -17,-7 -24,-11 -8,-4 -14,-8 -19,-11 -5,3 -10,6 -14,11 -5,5 -8,10 -11,16l-1 3zm-203 93c-1,-1 -1,-3 -2,-4 -3,-8 -1,-18 6,-29l163 -274 11 7 -174 292c-2,3 -3,6 -4,8zm-99 -404c8,0 16,1 25,3 14,3 28,10 44,19 16,10 29,21 40,34 11,14 18,28 22,44 4,14 5,28 4,43 -1,-6 -2,-12 -4,-18 -4,-15 -11,-30 -22,-43 -11,-13 -24,-25 -40,-34 -16,-10 -30,-16 -44,-19 -15,-3 -28,-4 -41,-3l16 -26zm-86 217c-5,-10 -4,-21 3,-33 3,-5 6,-9 10,-12 4,-4 7,-6 11,-8 2,3 5,5 9,7 3,3 7,5 10,7 15,9 31,12 46,9 16,-3 30,-13 40,-31 4,-7 7,-14 9,-20 3,15 0,30 -9,45 -10,19 -24,29 -40,32 -15,3 -31,-1 -46,-10 -3,-2 -7,-4 -10,-6 -4,-2 -7,-5 -9,-7 -4,1 -7,4 -11,7 -4,4 -7,8 -10,13 -1,2 -2,5 -3,7zm-135 -3c-1,-2 -2,-3 -2,-4 -3,-9 -1,-19 6,-30l11 -19c5,0 11,0 16,0l-27 45c-2,2 -3,5 -4,8zm-123 -201c-1,-9 -1,-18 0,-27 2,-18 9,-36 20,-55 10,-18 22,-31 36,-41 14,-10 28,-16 43,-19 16,-3 31,-4 47,-1 15,3 30,9 44,17 20,11 32,23 36,35 4,9 4,18 1,27l-1 -2c-4,-11 -16,-23 -36,-34 -14,-9 -29,-14 -44,-17 -16,-3 -31,-3 -47,0 -15,4 -29,10 -43,20 -14,10 -26,23 -36,40 -11,19 -18,38 -20,55l0 2zm83 9l0 3c5,16 17,30 35,40 14,9 27,13 39,13 13,1 24,-1 33,-5l100 -167 11 7 -111 186c-9,4 -20,6 -33,5 -12,0 -25,-5 -39,-13 -18,-11 -30,-24 -35,-40 -2,-10 -3,-19 0,-29zm-3 -268c-6,-9 -4,-19 3,-33 3,-3 6,-7 9,-12 4,-4 8,-8 11,-10l487 289 13 8 1 1 106 63 701 283c8,4 13,9 15,15 1,5 1,12 -2,20 -3,-3 -7,-6 -13,-9l-701 -283 -106 -64 -1 0 -13 -8 -487 -289c-3,2 -7,5 -11,10 -3,4 -6,9 -9,12 -1,2 -2,4 -3,7zm4657 95l177 303 -10 9 -178 -305 11 -7zm-165 97l178 302 -10 9 -179 -305 11 -6zm-121 269c2,11 6,22 13,33 13,22 29,38 49,49 20,11 40,19 61,24 2,9 1,17 -2,25 -20,-5 -40,-13 -59,-23 -20,-11 -36,-27 -49,-49 -12,-21 -17,-41 -13,-59zm-85 5c-2,-18 0,-36 6,-53 7,-18 17,-35 32,-51 14,-16 32,-30 54,-43 13,-7 25,-14 38,-20 9,-3 17,-7 25,-10l12 22c-11,4 -23,8 -37,14 -13,6 -25,12 -38,20 -22,13 -40,27 -54,43 -15,15 -25,33 -32,51 -3,9 -5,18 -6,27zm-158 -132c-1,-2 -2,-4 -3,-7 -2,-5 -3,-10 -4,-14l361 -211 12 -7 1 -1 23 -14c9,5 18,8 27,10l-50 30 -1 0 -12 7 -354 207zm323 -368c-2,-13 -1,-26 2,-39 8,-25 25,-47 54,-63 21,-13 38,-18 50,-15 12,2 21,8 27,19 6,9 8,19 6,28l-4 1 -2 -3c-6,-11 -15,-17 -27,-20 -12,-2 -29,3 -50,16 -29,16 -46,37 -54,63 -1,4 -2,8 -2,13zm84 -1c1,5 4,11 7,16 7,12 16,22 27,30 12,8 24,14 37,18l52 -31c15,-8 27,-4 38,14 2,4 4,8 6,14 2,6 3,11 4,15l-7 4c-1,-3 -2,-5 -3,-7 -11,-18 -23,-23 -38,-14l-52 30c-13,-4 -25,-10 -37,-18 -11,-8 -20,-17 -27,-29 -9,-15 -11,-29 -7,-42zm-2638 1132c-2,-5 -2,-11 -1,-18l5 -44 3 -2 -7 64zm-256 -225c-1,-9 -1,-17 0,-24 1,-6 2,-11 5,-15 3,-4 8,-6 14,-6 30,1 52,-3 66,-12 13,-8 21,-20 24,-35 2,7 2,14 1,21 -2,18 -10,31 -25,40 -14,9 -36,12 -66,11 -6,0 -11,3 -14,6 -2,4 -4,8 -5,14zm-28 -182c-2,-5 -2,-12 -1,-19 0,-4 1,-9 3,-15 2,-6 4,-10 6,-14l439 52 13 2 0 0 1 0 0 0 47 5c5,9 9,18 12,28l-59 -7 0 -1 -1 0 0 0 -13 -1 -439 -52c-2,3 -4,8 -6,14 -1,2 -2,5 -2,8zm384 -124l-3 -1c0,-2 0,-4 0,-6 0,-2 0,-4 1,-6 1,-13 6,-24 15,-33 8,-9 20,-13 36,-11 15,2 31,9 47,21 17,12 32,27 46,46 15,18 27,39 39,63 12,23 20,47 26,72l13 2 397 -14c8,0 14,2 18,7l1 -3 384 -46 16 -2 1 0 1 0 121 -14c0,-5 0,-9 1,-12l403 -93c3,-1 6,-1 8,-1l520 -210c15,-6 26,-1 33,15 1,3 2,8 4,13l3 5 0 1c1,6 2,11 1,15l-4 2c0,-3 -1,-5 -2,-6 -7,-19 -19,-26 -35,-19l-520 210c-2,0 -5,0 -8,1l-403 93c-1,3 -1,7 -1,11l-121 15 -1 0 -1 0 -16 2 -384 45 -1 3c-4,-4 -10,-7 -18,-6l-397 13 -13 -1c-6,-25 -14,-49 -26,-72 -12,-24 -24,-45 -39,-63 -14,-19 -29,-34 -46,-46 -16,-13 -32,-19 -47,-21 -16,-2 -28,1 -36,10 -6,6 -10,13 -13,21zm1906 -75l22 55c7,-11 16,-21 27,-30 11,-10 25,-18 42,-25 17,-7 35,-10 52,-11 16,0 33,3 48,9 15,6 28,15 40,27 12,13 22,28 29,47 8,19 12,37 11,54 0,4 0,8 0,11 -2,-13 -5,-26 -11,-40 -7,-18 -17,-34 -29,-46 -12,-12 -25,-21 -40,-27 -15,-6 -32,-9 -48,-9 -17,0 -35,4 -52,11 -17,7 -31,15 -42,24 -11,10 -20,20 -27,30l-31 -76 9 -4zm127 216c-1,-4 -2,-8 -3,-12 0,-5 0,-9 1,-13 3,-1 7,-2 11,-3 4,-1 8,-3 11,-4 17,-7 28,-17 36,-31 1,-4 3,-7 4,-11 2,14 1,26 -4,36 -8,15 -19,25 -36,32 -3,1 -7,2 -11,4 -3,1 -6,2 -9,2zm-73 -83l77 190 -8 6 -74 -184c1,-4 3,-8 5,-12zm-283 88c-1,-6 -1,-11 -1,-16 0,-17 4,-32 11,-46 6,-14 16,-27 27,-38 12,-10 26,-19 41,-25 21,-8 37,-11 49,-7 12,3 21,10 25,22 5,10 5,21 2,30l0 0c0,-1 -1,-3 -2,-5 -4,-11 -13,-18 -25,-22 -12,-3 -28,-1 -49,8 -15,6 -29,14 -41,25 -11,11 -21,23 -27,37 -6,12 -9,24 -10,37zm84 -5c1,4 3,9 5,13 7,18 18,30 34,36 16,6 33,5 53,-3 15,-6 26,-14 34,-24 5,-5 8,-11 11,-16l5 13c-3,9 -8,19 -16,29 -8,10 -19,17 -34,24 -20,7 -37,8 -53,2 -16,-6 -27,-17 -34,-35 -6,-14 -8,-27 -5,-39zm-228 -76l78 339 -6 3 -78 -340 6 -2zm-176 234l7 28 -5 3 -3 -9c-2,-9 -1,-17 1,-22zm-101 -14c-3,-19 0,-35 10,-48 10,-15 28,-25 51,-31l152 -34 5 24 -157 36c-23,6 -41,16 -51,30 -5,7 -9,15 -10,23zm-73 -126l41 345 -3 1 -41 -346 3 0zm-197 23l8 69c1,6 1,12 -1,17l-10 -85 3 -1zm-186 204c2,13 5,24 11,33 6,10 13,18 22,25 9,6 19,10 30,13 11,2 22,3 34,1 17,-2 29,-6 37,-13 3,-3 6,-7 7,-11 1,2 1,5 1,7 2,14 -1,24 -8,30 -8,7 -20,11 -37,13 -12,1 -23,1 -34,-2 -11,-2 -21,-6 -30,-13 -9,-6 -16,-14 -22,-24 -6,-10 -10,-21 -11,-34 -1,-9 -1,-17 0,-25zm139 14l0 -2c-2,-6 -4,-11 -6,-16 3,-5 9,-10 16,-14 7,-4 16,-7 25,-8 7,-1 15,0 22,2 8,1 15,4 21,9 6,4 11,10 15,17 4,7 7,16 8,26 1,8 1,15 0,22 -2,-9 -4,-16 -8,-22 -4,-7 -9,-13 -15,-18 -6,-4 -13,-7 -21,-9 -7,-1 -15,-2 -22,-1 -9,1 -18,4 -25,8 -4,2 -7,4 -10,6zm88 92c9,11 17,21 26,31 13,12 25,23 35,33 0,7 -2,14 -5,21 -9,-9 -19,-18 -30,-29 -12,-13 -24,-27 -36,-44 4,-3 7,-7 10,-12zm-311 -106c-1,-18 0,-35 4,-51 5,-18 13,-34 25,-49 13,-14 28,-26 48,-36 19,-10 42,-16 70,-20l43 -5 3 25 -46 6c-28,3 -51,10 -70,20 -20,9 -35,21 -48,36 -12,14 -20,31 -25,49 -2,8 -3,16 -4,25zm-146 -165l12 347 -1 0 -12 -347 1 0zm-188 7c4,9 8,19 12,29 8,21 12,44 13,68 0,8 0,15 -1,21 -1,-22 -5,-43 -12,-63 -7,-21 -17,-39 -27,-55l15 0zm-145 210c-1,-2 -1,-6 -1,-9 -1,-11 1,-22 6,-32 7,2 13,2 19,2 19,-1 35,-8 46,-23 9,-11 14,-27 15,-48l1 5c1,32 -4,55 -16,69 -11,14 -27,22 -46,23 -6,0 -12,-1 -19,-2 -3,5 -4,10 -5,15zm-148 116c-2,-6 -2,-12 -1,-19l37 -313 3 1 -39 331zm-269 -160c21,3 40,1 56,-5 16,-6 29,-13 40,-22l20 -167 3 0 -23 192c-11,9 -24,17 -40,23 -16,6 -35,7 -56,5 -28,-4 -51,-13 -66,-28 -16,-15 -26,-33 -30,-53 3,0 6,0 9,0 5,10 12,19 21,27 15,15 38,25 66,28zm10 -206l1 2c5,12 7,25 5,39l0 3c-1,-5 -3,-11 -5,-16 -5,-12 -11,-22 -19,-31l18 3zm-1209 -581c7,-12 17,-19 30,-23 13,-3 26,-1 40,7 13,8 22,19 25,32 2,8 2,16 -1,24 -3,-12 -11,-22 -24,-30 -14,-8 -27,-11 -40,-7 -13,3 -23,11 -30,23 -3,4 -5,8 -6,13l0 -1c-3,-14 -1,-26 6,-38zm397 604c19,8 37,12 55,10 17,-1 32,-5 44,-11l64 -157 8 4 -72 179c-12,6 -27,9 -44,11 -18,1 -36,-2 -55,-10 -27,-11 -46,-26 -57,-44 -11,-19 -16,-39 -15,-59l2 1c2,11 7,21 13,32 11,19 30,34 57,44zm63 -198l1 4c1,8 1,16 -1,23 -2,-11 -5,-22 -10,-31l10 4zm-254 -103c0,4 0,8 0,12l-1 3c0,-5 -1,-11 -1,-16l2 1zm-29 113c10,6 21,12 33,16 8,4 16,6 24,9 7,2 15,4 24,4 2,-4 5,-7 8,-10 4,-2 8,-2 14,-1 28,9 51,11 67,6 16,-4 28,-15 34,-31 2,-4 3,-7 4,-11l0 1c2,12 1,23 -4,35 -6,17 -18,27 -34,32 -16,5 -39,3 -67,-6 -6,-1 -10,-1 -14,1 -3,2 -6,6 -8,10 -9,-1 -17,-2 -24,-5 -8,-2 -16,-5 -24,-8 -18,-7 -34,-16 -48,-26 5,-5 10,-10 15,-16z"/>
  <path class="fil20" d="M6548 5003l0 263c-3,1 -6,2 -10,2 -4,1 -9,2 -15,2 -12,0 -20,-2 -25,-6 -5,-5 -7,-11 -7,-21l0 -240 -28 0 -9 0 -1 0 -40 0 0 263c-3,1 -6,2 -10,2 -4,1 -9,2 -14,2 -12,0 -21,-2 -26,-6 -4,-5 -7,-11 -7,-21l0 -50c-9,7 -19,12 -31,16 -11,3 -24,5 -40,5 -24,0 -45,-5 -64,-15 -18,-10 -33,-23 -44,-40 -6,-9 -11,-19 -14,-29 -3,-11 -5,-20 -5,-28 0,-4 1,-7 3,-10 1,-3 4,-5 9,-6 21,-2 36,-6 45,-13 10,-8 14,-18 14,-30 0,-10 -2,-18 -6,-24 -5,-7 -11,-12 -19,-16l-52 0 -11 0 -43 0 0 57c0,15 -8,22 -24,22l-87 0c-12,0 -20,2 -25,7 -5,4 -7,10 -7,17 0,7 1,12 4,16 4,4 7,7 12,10 8,-3 17,-5 26,-6 10,-2 19,-3 30,-3 30,0 53,7 68,20 16,13 24,30 24,51 0,26 -10,46 -31,59 -20,13 -47,20 -81,20 -15,0 -30,-2 -44,-4 -14,-3 -26,-6 -37,-10 -10,-5 -19,-10 -25,-16 -7,-6 -10,-13 -10,-21 0,-7 2,-14 6,-18 5,-5 10,-9 16,-11 10,9 23,17 39,24 16,7 34,11 55,11 17,0 30,-3 39,-9 9,-6 13,-14 13,-24 0,-19 -16,-29 -47,-29 -9,0 -18,1 -28,3 -9,2 -17,4 -25,7 -7,-3 -14,-6 -22,-10 -7,-4 -14,-9 -20,-15 -6,-6 -11,-13 -15,-21 -5,-8 -7,-17 -7,-27 0,-18 7,-34 20,-45 13,-12 33,-18 59,-18l66 0 0 -37 -159 0 -10 0 -39 0 0 263c-3,1 -7,2 -11,2 -4,1 -9,2 -14,2 -12,0 -21,-2 -26,-6 -4,-5 -7,-11 -7,-21l0 -240 -26 0 -11 0 0 0 -42 0 0 57c0,15 -9,22 -25,22l-86 0c-12,0 -21,2 -25,7 -5,4 -8,10 -8,17 0,7 2,12 5,16 3,4 7,7 11,10 9,-3 18,-5 27,-6 9,-2 19,-3 30,-3 30,0 53,7 68,20 16,13 23,30 23,51 0,13 -2,24 -8,34 -5,10 -13,18 -23,24 -10,7 -22,11 -35,14 -14,4 -29,5 -45,5 -2,0 -3,0 -4,0 -1,0 -3,0 -4,0 8,7 17,15 26,22 10,7 20,14 31,20 0,10 -4,19 -10,26 -6,7 -14,10 -26,10 -11,0 -22,-4 -31,-12 -10,-8 -19,-20 -29,-37l-19 -35c-16,-4 -28,-9 -37,-17 -9,-7 -13,-16 -13,-25 0,-8 2,-14 6,-19 4,-5 9,-9 15,-11 11,10 24,18 40,25 15,6 34,10 54,10 18,0 31,-3 40,-9 9,-6 13,-14 13,-24 0,-19 -16,-29 -48,-29 -9,0 -18,1 -27,3 -9,2 -18,4 -26,7 -6,-3 -14,-6 -21,-10 -8,-4 -14,-9 -20,-15 -6,-6 -12,-13 -16,-21 -4,-8 -6,-17 -6,-27 0,-18 7,-34 20,-45 13,-12 33,-18 59,-18l66 0 0 -37 -170 0c-11,0 -17,-7 -17,-22 0,-3 0,-7 1,-11 0,-4 1,-7 3,-10l269 0 12 0 36 0c-3,-5 -5,-11 -7,-18 -1,-7 -2,-14 -2,-22 0,-29 11,-52 34,-68 23,-17 55,-26 96,-26 27,0 52,3 75,10 22,6 41,14 57,22 16,9 29,19 37,28 9,10 14,18 14,24 0,7 -4,13 -10,18 -6,4 -15,6 -25,6 -17,-19 -38,-34 -61,-45 -23,-11 -51,-16 -82,-16 -24,0 -43,5 -56,14 -13,10 -20,23 -20,41 0,6 1,12 2,18 1,5 3,10 5,14l29 0 10 0 260 0 11 0 301 0 10 0 135 0c12,0 18,7 18,22 0,3 -1,6 -2,11 -1,4 -1,7 -2,10l-50 0zm-2193 -9c0,94 -1,189 1,283 0,39 -7,71 -48,86 -40,15 -68,-5 -93,-33 -33,-36 -63,-76 -100,-108 -16,-14 -49,-20 -69,-14 -16,5 -33,34 -34,53 -1,18 16,39 30,55 94,107 186,214 241,349 25,60 74,98 140,107 42,6 84,8 127,8 141,0 249,-79 263,-219 15,-160 9,-322 9,-483 0,-33 -28,-51 -59,-52 -32,0 -54,20 -58,53 -4,26 0,52 -4,78 -2,14 -14,36 -24,37 -27,4 -26,-20 -26,-39 -1,-59 0,-118 -1,-177 -1,-47 -37,-77 -77,-65 -32,11 -43,36 -44,67 0,60 1,120 -1,180 -1,12 -9,24 -16,34 -3,3 -20,1 -22,-3 -6,-12 -11,-27 -12,-41 0,-128 0,-257 0,-385 0,-29 5,-60 -3,-86 -6,-21 -27,-46 -46,-53 -16,-6 -45,9 -59,23 -12,13 -14,38 -14,58 -2,95 -1,191 -1,287zm-288 31c-121,1 -108,7 -108,-108 0,-53 6,-58 59,-58 37,0 74,0 111,0 8,1 18,-1 24,2 58,30 20,83 28,124 6,26 -14,40 -40,40 -25,0 -49,0 -74,0zm0 -288c-114,-1 -109,13 -108,-108 0,-50 8,-60 58,-61 39,0 79,0 118,1 31,0 49,13 47,47 -1,23 -1,46 1,69 2,40 -17,54 -55,52 -20,-1 -41,0 -61,0zm-347 287c-20,0 -41,-1 -61,1 -37,3 -49,-17 -49,-49 0,-128 -8,-117 109,-117 25,0 49,1 74,0 31,0 44,15 44,46 -1,131 15,120 -117,119zm2 -287l-4 0c-119,1 -109,9 -108,-125 0,-27 15,-43 44,-43 46,0 92,-1 139,0 40,1 44,15 44,111 0,32 -4,59 -45,57 -23,-1 -46,0 -70,0zm690 -288c-118,0 -107,7 -107,-109 0,-53 9,-61 62,-61 39,0 77,0 115,0 29,0 46,13 46,44 0,26 1,52 1,78 0,35 -17,50 -51,48 -22,-1 -44,0 -66,0zm-344 0c-121,0 -109,6 -109,-111 -1,-49 8,-58 56,-59 40,-1 80,0 119,0 34,0 50,16 49,50 -1,22 0,44 -1,66 0,44 -10,53 -56,54 -19,0 -38,0 -58,0zm-340 -170c115,-2 110,-3 108,109 0,54 -6,60 -61,61 -37,0 -73,0 -110,0 -8,0 -18,1 -24,-2 -55,-30 -25,-82 -30,-125 -3,-30 19,-43 48,-43 23,0 46,0 69,0zm801 590c107,-26 157,7 179,115 9,-2 17,-5 26,-7 74,-17 141,31 142,111 2,152 3,304 -6,455 -8,159 -118,266 -275,287 -76,9 -150,6 -223,-17 -57,-18 -104,-53 -127,-108 -59,-140 -154,-254 -253,-365 -47,-52 -45,-123 2,-165 50,-44 120,-37 168,16 31,34 62,69 94,102 9,9 22,13 33,20 6,-13 15,-26 15,-39 1,-156 1,-312 1,-468 0,-44 -1,-88 1,-131 2,-60 49,-105 108,-106 61,-2 110,44 114,105 1,33 1,66 1,98 0,32 0,63 0,97zm349 1283c-782,0 -1416,-634 -1416,-1416 0,-782 634,-1415 1416,-1415 487,0 917,246 1171,621l184 0c-273,-465 -778,-777 -1355,-777 -868,0 -1571,704 -1571,1571 0,499 233,944 596,1232l-230 750 581 -540c191,83 402,129 624,129 608,0 1136,-346 1397,-852l-178 0c-246,417 -700,697 -1219,697zm112 273c-244,0 -477,-45 -690,-126l-248 182c208,81 434,126 670,126 417,0 801,-139 1110,-373 -253,122 -539,191 -842,191zm-1210 -426c-384,-315 -627,-778 -627,-1294 0,-949 822,-1719 1837,-1719 75,0 149,4 222,12 -156,-43 -320,-66 -490,-66 -1014,0 -1837,823 -1837,1837 0,648 335,1217 841,1544l54 -314zm1374 -1676l0 394c-5,2 -12,3 -20,5 -7,1 -16,2 -27,2 -24,0 -40,-4 -48,-11 -9,-8 -13,-20 -13,-38l0 -352 -50 0c-12,0 -20,-4 -25,-11 -4,-7 -7,-17 -7,-31 0,-5 1,-12 2,-20 2,-7 3,-13 5,-18l68 0c-4,-7 -7,-15 -9,-24 -2,-9 -3,-19 -3,-29 0,-24 6,-45 18,-65 11,-19 29,-36 52,-50 23,-14 51,-25 85,-32 35,-8 74,-12 118,-12 41,0 80,3 119,8 38,5 74,12 107,20 33,9 63,18 89,29 26,11 48,22 64,33 13,9 22,16 29,23 6,8 10,15 10,24 0,11 -4,20 -12,28 -7,7 -19,12 -33,14 -23,-12 -48,-24 -75,-35 -27,-11 -56,-21 -86,-29 -31,-9 -64,-16 -97,-21 -34,-5 -69,-7 -106,-7 -57,0 -100,8 -128,23 -29,16 -43,37 -43,62 0,7 1,14 3,21 2,7 5,13 8,19l41 0 13 0 571 0 15 0 638 0 13 0 63 0c-9,-15 -20,-29 -33,-42 -14,-13 -28,-25 -43,-36 -15,-10 -30,-19 -46,-26 -15,-8 -30,-13 -43,-17 -1,-2 -1,-5 -1,-7 0,-2 0,-5 0,-7 0,-18 5,-34 15,-47 10,-14 25,-21 46,-21 19,0 38,6 58,18 19,11 38,26 56,46 17,19 34,40 49,65 15,24 27,49 36,74l62 0c21,0 32,13 32,40 0,5 -1,12 -3,21 -1,8 -3,14 -6,19l-72 0 0 394c-5,2 -12,3 -20,5 -7,1 -16,2 -26,2 -24,0 -41,-4 -49,-11 -9,-8 -13,-20 -13,-38l0 -352 -39 0 -11 0 -1 0 -59 0 0 394c-6,2 -13,3 -20,5 -8,1 -17,2 -27,2 -24,0 -40,-4 -49,-11 -9,-8 -13,-20 -13,-38l0 -77c-19,9 -43,13 -72,13 -18,0 -35,-3 -52,-8 -16,-6 -31,-14 -44,-25 -13,-11 -23,-24 -31,-40 -8,-16 -11,-34 -11,-54 0,-20 3,-37 9,-52 7,-15 15,-27 27,-37 11,-10 24,-18 38,-23 15,-5 30,-7 46,-7 22,0 39,4 50,13 11,8 16,20 16,33 0,15 -4,27 -14,36 -7,-2 -15,-4 -26,-4 -13,0 -24,4 -33,12 -9,8 -14,19 -14,34 0,13 5,24 16,32 11,9 24,13 41,13 11,0 21,-2 30,-5 9,-3 17,-7 24,-12l0 -194 -265 0c9,11 17,24 22,38 5,15 8,30 8,46 0,34 -9,63 -27,85 -18,22 -42,38 -72,46 16,29 39,52 70,69 31,17 66,27 106,29 2,9 3,18 3,27 0,19 -5,34 -16,44 -12,11 -28,16 -49,16 -25,0 -48,-4 -69,-13 -22,-9 -41,-21 -59,-36 -17,-16 -33,-34 -46,-55 -14,-21 -25,-43 -33,-67 -14,-1 -26,-5 -35,-13 -9,-7 -13,-19 -13,-36 0,-10 2,-18 5,-26 3,-8 7,-15 12,-20 5,1 12,2 19,3 6,1 14,2 22,2 24,0 41,-7 53,-20 12,-13 18,-29 18,-48 0,-15 -3,-28 -9,-40 -5,-13 -13,-23 -23,-31l-92 0 -15 0 0 0 -58 0 0 394c-5,2 -12,3 -19,5 -8,1 -17,2 -27,2 -24,0 -40,-4 -49,-11 -9,-8 -13,-20 -13,-38l0 -197c-2,0 -4,0 -5,-1 -2,0 -4,0 -6,0 -24,0 -42,9 -54,25 -12,17 -17,45 -17,84 -16,6 -33,8 -51,8 -18,0 -31,-4 -39,-13 -9,-9 -13,-22 -13,-37 0,-22 3,-41 10,-59 -11,-5 -23,-8 -35,-8 -24,0 -42,8 -55,22 -12,15 -18,33 -18,55 0,16 3,31 10,43 6,12 14,22 25,30 10,8 21,14 34,19 12,4 25,7 37,9 1,2 1,5 1,8 0,2 0,5 0,8 0,16 -5,30 -14,41 -9,12 -26,17 -49,17 -19,0 -38,-4 -56,-12 -18,-8 -35,-20 -50,-35 -15,-15 -27,-34 -36,-56 -9,-22 -14,-46 -14,-74 0,-26 5,-50 13,-70 9,-20 21,-37 36,-50 14,-14 31,-24 50,-31 19,-7 39,-10 60,-10 23,0 43,3 59,9 17,7 32,15 45,24 13,-10 27,-19 43,-25 17,-5 35,-8 55,-8 7,0 12,0 18,0 5,1 10,2 16,3l0 -71 -406 0 -11 0 -1 0 -60 0zm475 561c0,-10 3,-19 10,-25 7,-7 16,-10 27,-10 11,0 20,3 27,10 6,6 9,15 9,25 0,9 -3,18 -9,24 -7,7 -16,11 -27,11 -11,0 -20,-4 -27,-11 -7,-6 -10,-15 -10,-24zm662 283c15,0 28,-3 39,-8 11,-6 20,-12 26,-19l0 -137 -90 0c6,5 11,12 16,20 4,8 7,17 7,27 0,10 -2,19 -6,26 -3,8 -8,15 -15,21 -6,6 -14,10 -22,14 -9,3 -19,6 -29,7 5,14 13,25 25,35 13,9 29,14 49,14z"/>
  <path class="fil21" d="M6548 4966l0 263c-3,1 -6,1 -10,2 -4,1 -9,1 -15,1 -12,0 -20,-2 -25,-6 -5,-4 -7,-11 -7,-20l0 -240 -28 0 -9 0 -1 0 -40 0 0 263c-3,1 -6,1 -10,2 -4,1 -9,1 -14,1 -12,0 -21,-2 -26,-6 -4,-4 -7,-11 -7,-20l0 -51c-9,7 -19,13 -31,16 -11,4 -24,6 -40,6 -24,0 -45,-5 -64,-15 -18,-10 -33,-24 -44,-40 -6,-9 -11,-19 -14,-30 -3,-10 -5,-19 -5,-27 0,-4 1,-8 3,-11 1,-3 4,-5 9,-5 21,-2 36,-6 45,-14 10,-7 14,-17 14,-30 0,-9 -2,-17 -6,-24 -5,-6 -11,-11 -19,-15l-52 0 -11 0 -43 0 0 57c0,15 -8,22 -24,22l-87 0c-12,0 -20,2 -25,6 -5,5 -7,11 -7,18 0,6 1,11 4,15 4,4 7,8 12,10 8,-2 17,-4 26,-6 10,-1 19,-2 30,-2 30,0 53,6 68,20 16,13 24,30 24,51 0,26 -10,45 -31,59 -20,13 -47,19 -81,19 -15,0 -30,-1 -44,-3 -14,-3 -26,-6 -37,-11 -10,-4 -19,-10 -25,-16 -7,-6 -10,-13 -10,-20 0,-8 2,-14 6,-19 5,-5 10,-8 16,-10 10,9 23,17 39,24 16,7 34,10 55,10 17,0 30,-3 39,-9 9,-6 13,-13 13,-23 0,-19 -16,-29 -47,-29 -9,0 -18,1 -28,3 -9,1 -17,4 -25,6 -7,-2 -14,-5 -22,-9 -7,-4 -14,-9 -20,-15 -6,-6 -11,-13 -15,-21 -5,-8 -7,-17 -7,-27 0,-19 7,-34 20,-46 13,-11 33,-17 59,-17l66 0 0 -37 -159 0 -10 0 -39 0 0 263c-3,1 -7,1 -11,2 -4,1 -9,1 -14,1 -12,0 -21,-2 -26,-6 -4,-4 -7,-11 -7,-20l0 -240 -26 0 -11 0 0 0 -42 0 0 57c0,15 -9,22 -25,22l-86 0c-12,0 -21,2 -25,6 -5,5 -8,11 -8,18 0,6 2,11 5,15 3,4 7,8 11,10 9,-2 18,-4 27,-6 9,-1 19,-2 30,-2 30,0 53,6 68,20 16,13 23,30 23,51 0,13 -2,24 -8,34 -5,9 -13,17 -23,24 -10,6 -22,11 -35,14 -14,3 -29,5 -45,5 -2,0 -3,0 -4,0 -1,0 -3,0 -4,-1 8,8 17,15 26,22 10,7 20,14 31,21 0,10 -4,19 -10,25 -6,7 -14,11 -26,11 -11,0 -22,-4 -31,-12 -10,-8 -19,-21 -29,-37l-19 -35c-16,-4 -28,-10 -37,-17 -9,-8 -13,-16 -13,-26 0,-7 2,-14 6,-18 4,-5 9,-9 15,-11 11,9 24,17 40,24 15,7 34,10 54,10 18,0 31,-3 40,-9 9,-6 13,-13 13,-23 0,-19 -16,-29 -48,-29 -9,0 -18,1 -27,3 -9,1 -18,4 -26,6 -6,-2 -14,-5 -21,-9 -8,-4 -14,-9 -20,-15 -6,-6 -12,-13 -16,-21 -4,-8 -6,-17 -6,-27 0,-19 7,-34 20,-46 13,-11 33,-17 59,-17l66 0 0 -37 -170 0c-11,0 -17,-8 -17,-23 0,-3 0,-6 1,-10 0,-4 1,-8 3,-10l269 0 12 0 36 0c-3,-5 -5,-11 -7,-18 -1,-7 -2,-14 -2,-22 0,-29 11,-52 34,-69 23,-17 55,-25 96,-25 27,0 52,3 75,9 22,7 41,14 57,23 16,9 29,18 37,28 9,9 14,17 14,24 0,7 -4,13 -10,17 -6,5 -15,7 -25,7 -17,-19 -38,-34 -61,-45 -23,-11 -51,-17 -82,-17 -24,0 -43,5 -56,15 -13,9 -20,23 -20,41 0,6 1,12 2,17 1,6 3,11 5,15l29 0 10 0 260 0 11 0 301 0 10 0 135 0c12,0 18,7 18,21 0,3 -1,7 -2,11 -1,5 -1,8 -2,11l-50 0zm-2193 -9c0,94 -1,188 1,283 0,39 -7,70 -48,86 -40,15 -68,-5 -93,-33 -33,-37 -63,-76 -100,-108 -16,-14 -49,-21 -69,-14 -16,4 -33,34 -34,53 -1,18 16,39 30,54 94,107 186,215 241,349 25,61 74,98 140,107 42,6 84,9 127,9 141,-1 249,-80 263,-219 15,-160 9,-322 9,-483 0,-33 -28,-52 -59,-52 -32,0 -54,20 -58,53 -4,25 0,52 -4,77 -2,14 -14,36 -24,38 -27,4 -26,-20 -26,-40 -1,-58 0,-117 -1,-176 -1,-48 -37,-78 -77,-65 -32,10 -43,35 -44,66 0,60 1,121 -1,181 -1,12 -9,24 -16,34 -3,3 -20,1 -22,-3 -6,-13 -11,-27 -12,-41 0,-129 0,-257 0,-386 0,-29 5,-59 -3,-85 -6,-22 -27,-46 -46,-54 -16,-5 -45,9 -59,24 -12,13 -14,38 -14,57 -2,96 -1,192 -1,288zm-288 31c-121,0 -108,7 -108,-108 0,-53 6,-59 59,-58 37,0 74,0 111,0 8,0 18,-2 24,2 58,29 20,82 28,124 6,26 -14,39 -40,39 -25,1 -49,1 -74,1zm0 -289c-114,0 -109,14 -108,-107 0,-51 8,-60 58,-61 39,-1 79,0 118,0 31,1 49,14 47,47 -1,24 -1,47 1,70 2,40 -17,54 -55,52 -20,-2 -41,-1 -61,-1zm-347 288c-20,0 -41,-1 -61,0 -37,3 -49,-16 -49,-49 0,-127 -8,-117 109,-116 25,0 49,0 74,0 31,-1 44,15 44,45 -1,132 15,121 -117,120zm2 -288l-4 0c-119,2 -109,10 -108,-125 0,-26 15,-42 44,-42 46,0 92,-1 139,0 40,1 44,14 44,111 0,32 -4,58 -45,56 -23,-1 -46,0 -70,0zm690 -287c-118,0 -107,6 -107,-109 0,-53 9,-61 62,-62 39,0 77,0 115,1 29,0 46,13 46,44 0,26 1,52 1,78 0,34 -17,49 -51,48 -22,-1 -44,0 -66,0zm-344 0c-121,0 -109,6 -109,-112 -1,-49 8,-58 56,-58 40,-1 80,0 119,0 34,-1 50,15 49,50 -1,22 0,44 -1,65 0,45 -10,54 -56,54 -19,1 -38,1 -58,1zm-340 -170c115,-2 110,-4 108,108 0,54 -6,61 -61,61 -37,1 -73,1 -110,0 -8,0 -18,2 -24,-1 -55,-31 -25,-83 -30,-125 -3,-30 19,-43 48,-43 23,-1 46,0 69,0zm801 590c107,-26 157,6 179,115 9,-3 17,-5 26,-7 74,-18 141,31 142,111 2,151 3,303 -6,455 -8,158 -118,266 -275,286 -76,10 -150,6 -223,-16 -57,-18 -104,-53 -127,-108 -59,-140 -154,-254 -253,-365 -47,-53 -45,-123 2,-165 50,-44 120,-38 168,15 31,35 62,70 94,103 9,9 22,13 33,19 6,-13 15,-26 15,-39 1,-156 1,-311 1,-467 0,-44 -1,-88 1,-132 2,-59 49,-104 108,-106 61,-1 110,44 114,106 1,32 1,65 1,98 0,31 0,62 0,97zm349 1282c-782,0 -1416,-633 -1416,-1415 0,-782 634,-1416 1416,-1416 487,0 917,247 1171,622l184 0c-273,-465 -778,-777 -1355,-777 -868,0 -1571,703 -1571,1571 0,499 233,944 596,1232l-230 749 581 -539c191,83 402,129 624,129 608,0 1136,-346 1397,-852l-178 0c-246,417 -700,696 -1219,696zm112 273c-244,0 -477,-44 -690,-125l-248 181c208,82 434,126 670,126 417,0 801,-139 1110,-372 -253,121 -539,190 -842,190zm-1210 -425c-384,-315 -627,-778 -627,-1294 0,-950 822,-1719 1837,-1719 75,0 149,4 222,12 -156,-43 -320,-66 -490,-66 -1014,0 -1837,823 -1837,1837 0,648 335,1217 841,1544l54 -314zm1374 -1677l0 395c-5,1 -12,3 -20,4 -7,2 -16,3 -27,3 -24,0 -40,-4 -48,-12 -9,-7 -13,-20 -13,-37l0 -353 -50 0c-12,0 -20,-3 -25,-10 -4,-7 -7,-17 -7,-31 0,-6 1,-12 2,-20 2,-8 3,-14 5,-18l68 0c-4,-7 -7,-15 -9,-24 -2,-10 -3,-20 -3,-30 0,-23 6,-45 18,-64 11,-19 29,-36 52,-50 23,-14 51,-25 85,-33 35,-7 74,-11 118,-11 41,0 80,2 119,8 38,5 74,11 107,20 33,8 63,18 89,29 26,11 48,22 64,33 13,8 22,16 29,23 6,7 10,15 10,24 0,10 -4,20 -12,27 -7,8 -19,13 -33,15 -23,-12 -48,-24 -75,-35 -27,-12 -56,-21 -86,-30 -31,-8 -64,-15 -97,-20 -34,-5 -69,-8 -106,-8 -57,0 -100,8 -128,24 -29,16 -43,36 -43,61 0,8 1,15 3,22 2,7 5,13 8,19l41 0 13 0 571 0 15 0 638 0 13 0 63 0c-9,-16 -20,-30 -33,-43 -14,-13 -28,-24 -43,-35 -15,-10 -30,-19 -46,-27 -15,-7 -30,-13 -43,-16 -1,-3 -1,-5 -1,-7 0,-3 0,-5 0,-8 0,-17 5,-33 15,-47 10,-13 25,-20 46,-20 19,0 38,6 58,17 19,12 38,27 56,46 17,19 34,41 49,65 15,24 27,49 36,75l62 0c21,0 32,13 32,40 0,5 -1,12 -3,20 -1,8 -3,15 -6,19l-72 0 0 395c-5,1 -12,3 -20,4 -7,2 -16,3 -26,3 -24,0 -41,-4 -49,-12 -9,-7 -13,-20 -13,-37l0 -353 -39 0 -11 0 -1 0 -59 0 0 395c-6,1 -13,3 -20,4 -8,2 -17,3 -27,3 -24,0 -40,-4 -49,-12 -9,-7 -13,-20 -13,-37l0 -77c-19,8 -43,13 -72,13 -18,0 -35,-3 -52,-9 -16,-5 -31,-14 -44,-24 -13,-11 -23,-24 -31,-40 -8,-16 -11,-34 -11,-54 0,-20 3,-38 9,-52 7,-15 15,-28 27,-37 11,-10 24,-18 38,-23 15,-5 30,-8 46,-8 22,0 39,5 50,13 11,9 16,20 16,34 0,15 -4,27 -14,36 -7,-3 -15,-4 -26,-4 -13,0 -24,4 -33,12 -9,7 -14,18 -14,33 0,14 5,25 16,33 11,8 24,12 41,12 11,0 21,-1 30,-4 9,-3 17,-7 24,-12l0 -195 -265 0c9,11 17,24 22,39 5,14 8,30 8,45 0,35 -9,63 -27,86 -18,22 -42,37 -72,46 16,29 39,52 70,69 31,17 66,26 106,29 2,8 3,17 3,27 0,18 -5,33 -16,44 -12,11 -28,16 -49,16 -25,0 -48,-4 -69,-13 -22,-9 -41,-21 -59,-37 -17,-15 -33,-33 -46,-54 -14,-21 -25,-43 -33,-67 -14,-1 -26,-6 -35,-13 -9,-7 -13,-19 -13,-36 0,-10 2,-19 5,-27 3,-8 7,-14 12,-19 5,1 12,2 19,3 6,1 14,1 22,1 24,0 41,-6 53,-19 12,-13 18,-29 18,-49 0,-14 -3,-27 -9,-40 -5,-12 -13,-23 -23,-31l-92 0 -15 0 0 0 -58 0 0 395c-5,1 -12,3 -19,4 -8,2 -17,3 -27,3 -24,0 -40,-4 -49,-12 -9,-7 -13,-20 -13,-37l0 -197c-2,0 -4,-1 -5,-1 -2,0 -4,0 -6,0 -24,0 -42,8 -54,25 -12,17 -17,45 -17,84 -16,5 -33,8 -51,8 -18,0 -31,-5 -39,-14 -9,-9 -13,-21 -13,-37 0,-21 3,-41 10,-59 -11,-5 -23,-7 -35,-7 -24,0 -42,7 -55,22 -12,15 -18,33 -18,54 0,17 3,32 10,44 6,12 14,22 25,30 10,8 21,14 34,18 12,5 25,8 37,9 1,3 1,5 1,8 0,3 0,6 0,8 0,17 -5,30 -14,42 -9,11 -26,17 -49,17 -19,0 -38,-4 -56,-12 -18,-8 -35,-20 -50,-35 -15,-16 -27,-34 -36,-56 -9,-22 -14,-47 -14,-74 0,-27 5,-50 13,-70 9,-20 21,-37 36,-51 14,-13 31,-23 50,-30 19,-7 39,-11 60,-11 23,0 43,4 59,10 17,6 32,14 45,24 13,-11 27,-19 43,-25 17,-6 35,-9 55,-9 7,0 12,1 18,1 5,1 10,1 16,2l0 -71 -406 0 -11 0 -1 0 -60 0zm475 561c0,-10 3,-18 10,-25 7,-6 16,-10 27,-10 11,0 20,4 27,10 6,7 9,15 9,25 0,10 -3,18 -9,25 -7,7 -16,10 -27,10 -11,0 -20,-3 -27,-10 -7,-7 -10,-15 -10,-25zm662 283c15,0 28,-2 39,-8 11,-5 20,-12 26,-19l0 -136 -90 0c6,5 11,12 16,19 4,8 7,17 7,27 0,10 -2,19 -6,27 -3,8 -8,15 -15,20 -6,6 -14,11 -22,14 -9,4 -19,6 -29,8 5,13 13,25 25,34 13,10 29,14 49,14z"/>
  <path class="fil19" d="M6160 5083c-1,-7 -2,-13 -2,-18 0,-4 1,-8 3,-11 1,-3 4,-5 9,-5 21,-2 36,-6 45,-14 6,-4 10,-10 12,-16 2,4 2,9 2,14 0,13 -4,23 -14,30 -9,8 -24,12 -45,14 -5,0 -8,2 -9,5l-1 1zm-201 0l0 1c4,4 7,8 12,10 8,-2 17,-4 26,-6 10,-1 19,-2 30,-2 30,0 53,6 68,20 16,13 24,30 24,51 0,5 -1,10 -2,14 -2,-15 -10,-27 -22,-37 -15,-13 -38,-20 -68,-20 -11,0 -20,1 -30,2 -9,2 -18,4 -26,6 -5,-2 -8,-6 -12,-10 -3,-4 -4,-9 -4,-15 0,-5 1,-10 4,-14zm-64 115c-3,-4 -4,-8 -4,-13 0,-8 2,-14 6,-19 5,-5 10,-8 16,-10 10,9 23,17 39,24 16,7 34,10 55,10 17,0 30,-3 39,-9 4,-2 7,-5 9,-9 3,4 4,9 4,14 0,10 -4,17 -13,23 -9,6 -22,9 -39,9 -21,0 -39,-3 -55,-10 -16,-7 -29,-15 -39,-24 -6,2 -11,6 -16,10 -1,1 -2,3 -2,4zm2 -118c-1,-5 -2,-9 -2,-14 0,-19 7,-34 20,-46 13,-11 33,-17 59,-17l66 0 0 28 -66 0c-26,0 -46,6 -59,17 -9,9 -16,19 -18,32zm-342 3l1 1c3,4 7,8 11,10 9,-2 18,-4 27,-6 9,-1 19,-2 30,-2 30,0 53,6 68,20 16,13 23,30 23,51 0,5 0,9 -1,14 -3,-15 -10,-27 -22,-37 -15,-13 -38,-20 -68,-20 -11,0 -21,1 -30,2 -9,2 -18,4 -27,6 -4,-2 -8,-6 -11,-10 -3,-4 -5,-9 -5,-15 0,-5 2,-10 4,-14zm74 177c8,6 16,11 24,16 0,9 -3,17 -8,23 -8,-5 -15,-10 -23,-16 -9,-7 -18,-14 -26,-22 1,1 3,1 4,1 1,0 2,0 4,0 9,0 17,-1 25,-2zm-138 -61c-2,-4 -3,-9 -3,-14 0,-7 2,-14 6,-18 4,-5 9,-9 15,-11 11,9 24,17 40,24 15,7 34,10 54,10 18,0 31,-3 40,-9 4,-2 7,-5 9,-9 3,4 4,9 4,14 0,10 -4,17 -13,23 -9,6 -22,9 -40,9 -20,0 -39,-3 -54,-10 -16,-7 -29,-15 -40,-24 -6,2 -11,6 -15,11 -1,1 -2,2 -3,4zm3 -119c-1,-5 -2,-9 -2,-14 0,-19 7,-34 20,-46 13,-11 33,-17 59,-17l66 0 0 28 -66 0c-26,0 -46,6 -59,17 -10,9 -16,19 -18,32zm-42 -124c-2,-3 -2,-8 -2,-13 0,-3 0,-6 1,-10 0,-4 1,-8 3,-10l269 0 12 0 27 0c1,3 1,7 2,10 2,7 4,13 7,18l-36 0 -12 0 -269 0c-1,1 -2,3 -2,5zm311 -59c-1,-5 -1,-9 -1,-14 0,-29 11,-52 34,-69 23,-17 55,-25 96,-25 27,0 52,3 75,9 22,7 41,14 57,23 16,9 29,18 37,28 9,9 14,17 14,24 0,5 -2,10 -6,14 -2,-3 -4,-7 -8,-10 -8,-10 -21,-19 -37,-28 -16,-9 -35,-16 -57,-23 -23,-6 -48,-9 -75,-9 -41,0 -73,8 -96,25 -19,14 -30,33 -33,55zm59 9l1 2c1,6 3,11 5,15l29 0 10 0 171 0 2 2c6,0 12,-1 16,-2l71 0 11 0 301 0 10 0 135 0c12,0 18,7 18,21 0,3 -1,7 -2,11l-1 5c-2,-6 -8,-9 -15,-9l-135 0 -10 0 -301 0 -11 0 -260 0 -10 0 -29 0c-2,-4 -4,-9 -5,-15 -1,-5 -2,-11 -2,-17 0,-5 1,-9 1,-13zm-1467 51l0 8c0,-47 0,-95 0,-142l0 134zm0 181c0,34 0,68 1,102 0,5 0,9 -1,14 0,-39 0,-77 0,-116zm-340 100c5,14 17,29 27,40 94,107 186,215 241,349 25,61 74,98 140,107 42,6 84,9 127,9 141,-1 249,-80 263,-219 8,-82 10,-165 10,-249 0,93 -2,185 -10,277 -14,140 -122,218 -263,219 -43,0 -85,-3 -127,-9 -66,-9 -115,-46 -140,-107 -55,-134 -147,-242 -241,-348 -14,-16 -31,-37 -30,-55 1,-4 2,-9 3,-14zm636 -121c-1,-33 0,-66 0,-99 0,33 0,66 0,99zm-173 -366l0 -24c0,-11 1,-23 1,-34 2,19 -1,39 -1,58zm-519 189c-1,-15 0,-35 0,-60 0,-53 6,-59 59,-58 37,0 74,0 111,0 8,0 18,-2 24,2 33,17 35,41 32,67 -3,-15 -11,-29 -32,-39 -6,-4 -16,-2 -24,-2 -37,0 -74,0 -111,0 -53,-1 -59,5 -59,58 0,12 0,22 0,32zm222 6l0 2c2,8 1,14 -1,19 0,-6 0,-13 1,-21zm-222 -304c-1,-13 0,-30 0,-50 0,-51 8,-60 58,-61 39,-1 79,0 118,0 31,1 49,14 47,47l0 14c-4,-23 -21,-32 -47,-33 -39,0 -79,-1 -118,0 -50,1 -58,10 -58,61l0 22zm223 -17c0,7 0,15 1,23 0,7 0,13 -1,18 -1,-13 -1,-27 0,-41zm-572 288c-1,-101 0,-92 109,-91 25,0 49,0 74,0 31,-1 44,15 44,45l0 24c-1,-28 -14,-42 -44,-41 -25,0 -49,0 -74,0 -98,-1 -109,-8 -109,63zm227 -16c0,15 0,26 0,37 0,-11 0,-23 0,-37zm-227 -254c-1,-17 0,-40 0,-69 0,-26 15,-42 44,-42 46,0 92,-1 139,0 40,1 44,14 44,111l0 3c-1,-74 -8,-86 -44,-86 -47,-1 -93,0 -139,0 -29,0 -44,16 -44,42 0,16 0,29 0,41zm695 -284c0,-14 0,-33 0,-56 0,-53 9,-61 62,-62 39,0 77,0 115,1 29,0 46,13 46,44 0,26 1,52 1,78 0,3 0,6 0,8 -1,-19 -1,-39 -1,-58 0,-31 -17,-44 -46,-44 -38,-1 -76,-1 -115,-1 -53,1 -62,9 -62,62l0 28zm-347 -1c0,-15 1,-34 1,-58 -1,-49 8,-58 56,-58 40,-1 80,0 119,0 34,-1 50,15 49,50 -1,4 -1,9 -1,14 -3,-25 -19,-37 -48,-36 -39,0 -79,-1 -119,0 -48,0 -57,9 -56,58 0,11 0,21 -1,30zm224 -29c0,9 1,19 0,28l0 2c0,-10 0,-20 0,-30zm-454 -87c106,-2 110,-3 109,83 -2,-58 -16,-57 -109,-55 -23,0 -46,-1 -69,0 -24,0 -43,9 -47,29 0,-5 0,-10 -1,-14 -3,-30 19,-43 48,-43 23,-1 46,0 69,0zm-120 122c-3,-17 1,-36 3,-55l0 4c2,16 -1,34 -3,51zm921 468c107,-26 157,6 179,115 9,-3 17,-5 26,-7 74,-18 141,31 142,111 1,59 1,118 1,177 0,-50 -1,-100 -1,-149 -1,-80 -68,-129 -142,-111 -9,2 -17,4 -26,7 -22,-109 -72,-141 -179,-115l0 -28zm-570 400c-5,-35 8,-69 35,-94 50,-44 120,-38 168,15 31,35 62,70 94,103 9,9 22,13 33,19 6,-13 15,-26 15,-39 1,-58 1,-117 1,-176 0,68 0,136 -1,204 0,13 -9,26 -15,39 -11,-6 -24,-10 -33,-19 -32,-33 -63,-68 -94,-103 -48,-53 -118,-59 -168,-15 -20,18 -32,41 -35,66zm346 -515c0,-27 0,-53 1,-80 2,-59 49,-104 108,-106 61,-1 110,44 114,106 1,25 1,51 1,77 0,-17 -1,-33 -1,-49 -4,-62 -53,-107 -114,-106 -59,2 -106,47 -108,106 -1,17 -1,35 -1,52zm224 17l0 1 0 52 0 -24c0,-10 0,-20 0,-29zm349 1380c-777,0 -1408,-626 -1415,-1401l-1 14c0,782 634,1415 1416,1415 519,0 973,-279 1219,-696l163 0c5,-10 10,-19 15,-28l-178 0c-246,417 -700,696 -1219,696zm1338 -2209l17 0c-273,-465 -778,-777 -1355,-777 -868,0 -1571,703 -1571,1571l0 18c5,-863 706,-1561 1571,-1561 566,0 1062,300 1338,749zm-2320 2048l-223 727 12 -11 218 -710 -7 -6zm1094 434c-244,0 -477,-44 -690,-125l-248 181c9,4 17,7 25,10l223 -163c213,81 446,125 690,125 261,0 509,-51 733,-142 37,-24 73,-50 109,-76 -253,121 -539,190 -842,190zm-1210 -425c-380,-312 -621,-768 -627,-1276l0 10c0,514 241,975 623,1290l4 -24zm1251 -3013c61,1 121,5 181,12 -156,-43 -320,-66 -490,-66 -1014,0 -1837,823 -1837,1837l0 18c6,-1010 826,-1827 1837,-1827 105,0 209,9 309,26zm-66 1309c0,-4 -1,-9 -1,-14 0,-6 1,-12 2,-20 2,-8 3,-14 5,-18l58 0 1 4c2,9 5,17 9,24l-68 0c-2,4 -3,10 -5,18l-1 6zm63 -92c-1,-4 -1,-9 -1,-14 0,-23 6,-45 18,-64 11,-19 29,-36 52,-50 23,-14 51,-25 85,-33 35,-7 74,-11 118,-11 41,0 80,2 119,8 38,5 74,11 107,20 33,8 63,18 89,29 26,11 48,22 64,33 13,8 22,16 29,23 6,7 10,15 10,24 0,5 -1,10 -3,15 -2,-4 -4,-8 -7,-11 -7,-7 -16,-15 -29,-23 -16,-11 -38,-22 -64,-33 -26,-11 -56,-21 -89,-29 -33,-9 -69,-15 -107,-20 -39,-6 -78,-8 -119,-8 -44,0 -83,4 -118,11 -34,8 -62,19 -85,33 -23,14 -41,31 -52,50 -10,15 -15,32 -17,50zm111 14c1,2 1,5 2,7 2,7 5,13 8,19l41 0 13 0 571 0 15 0 638 0 13 0 43 0c8,9 15,18 20,28l-63 0 -13 0 -638 0 -15 0 -571 0 -13 0 -41 0c-3,-6 -6,-12 -8,-19 -2,-7 -3,-14 -3,-22 0,-4 1,-9 1,-13zm1199 -95l0 0c-1,-3 -1,-5 -1,-7 0,-3 0,-5 0,-8 0,-17 5,-33 15,-47 10,-13 25,-20 46,-20 19,0 38,6 58,17 19,12 38,27 56,46 17,19 34,41 49,65 15,24 27,49 36,75l62 0c21,0 32,13 32,40 0,4 -1,8 -2,14 -3,-18 -13,-26 -30,-26l-62 0c-9,-26 -21,-51 -36,-75 -15,-24 -32,-46 -49,-65 -18,-19 -37,-34 -56,-46 -20,-11 -39,-17 -58,-17 -21,0 -36,7 -46,20 -7,10 -12,22 -14,34zm-265 375c0,-4 0,-9 0,-13 0,-20 3,-38 9,-52 7,-15 15,-28 27,-37 11,-10 24,-18 38,-23 15,-5 30,-8 46,-8 22,0 39,5 50,13 11,9 16,20 16,34 0,5 0,10 -2,15 -2,-8 -7,-15 -14,-21 -11,-8 -28,-13 -50,-13 -16,0 -31,3 -46,8 -14,5 -27,13 -38,23 -12,10 -20,22 -27,37 -5,11 -8,23 -9,37zm101 4c2,8 7,15 14,20 11,8 24,12 41,12 11,0 21,-1 30,-4 9,-3 17,-7 24,-12l0 28c-7,5 -15,9 -24,12 -9,3 -19,4 -30,4 -17,0 -30,-4 -41,-12 -11,-8 -16,-19 -16,-33 0,-5 1,-10 2,-15zm-138 -151c1,4 3,7 4,11 5,14 8,30 8,45 0,6 0,11 0,16 -2,-12 -4,-23 -8,-33 -5,-15 -13,-27 -22,-39l18 0zm-72 211c14,18 33,34 55,46 31,17 66,26 106,29 2,8 3,17 3,27 0,4 0,9 -1,13 0,-4 -1,-8 -2,-12 -40,-3 -75,-12 -106,-29 -31,-17 -54,-40 -70,-69 5,-2 10,-3 15,-5zm-155 -44c-1,-4 -1,-9 -1,-14 0,-10 2,-19 5,-27 3,-8 7,-14 12,-19 5,1 12,2 19,3 6,1 14,1 22,1 24,0 41,-6 53,-19 9,-10 15,-22 17,-35 1,5 1,9 1,14 0,20 -6,36 -18,49 -12,13 -29,19 -53,19 -8,0 -16,0 -22,-1 -7,-1 -14,-2 -19,-3 -5,5 -9,11 -12,19 -2,4 -3,8 -4,13zm-361 37c-1,-3 -1,-7 -1,-11 0,-11 1,-23 3,-33 2,0 5,1 7,2 -5,13 -8,27 -9,42zm-98 14c1,11 4,20 9,29 6,12 14,22 25,30 10,8 21,14 34,18 12,5 25,8 37,9 1,3 1,5 1,8 0,3 0,6 0,8 0,4 0,8 -1,12 -12,-1 -25,-4 -37,-9 -13,-4 -24,-10 -34,-18 -11,-8 -19,-18 -25,-30 -7,-12 -10,-27 -10,-44 0,-4 0,-9 1,-13zm-112 -2c0,-5 -1,-9 -1,-14 0,-27 5,-50 13,-70 9,-20 21,-37 36,-51 14,-13 31,-23 50,-30 19,-7 39,-11 60,-11 23,0 43,4 59,10 17,6 32,14 45,24 13,-11 27,-19 43,-25 17,-6 35,-9 55,-9 7,0 12,1 18,1 5,1 10,1 16,2l0 28c-6,-1 -11,-1 -16,-2 -6,0 -11,-1 -18,-1 -20,0 -38,3 -55,9 -16,6 -30,14 -43,25 -13,-10 -28,-18 -45,-24 -16,-6 -36,-10 -59,-10 -21,0 -41,4 -60,11 -19,7 -36,17 -50,30 -15,14 -27,31 -36,51 -7,16 -11,35 -12,56zm391 317c0,-10 3,-18 10,-25 7,-6 16,-10 27,-10 11,0 20,4 27,10 6,7 9,15 9,25 0,5 0,10 -2,14 -2,-4 -4,-7 -7,-11 -7,-6 -16,-10 -27,-10 -11,0 -20,4 -27,10 -3,4 -5,7 -7,11 -2,-4 -3,-9 -3,-14zm662 283c15,0 28,-2 39,-8 11,-5 20,-12 26,-19l0 28c-6,7 -15,14 -26,19 -11,6 -24,8 -39,8 -20,0 -36,-4 -49,-14 -12,-9 -20,-21 -25,-34 5,-1 10,-2 15,-3 3,3 6,6 10,9 13,10 29,14 49,14zm-5 -135c2,5 3,12 3,18 0,5 -1,10 -2,15 -1,-5 -3,-9 -5,-14 -5,-7 -10,-14 -16,-19l20 0z"/>
  <g id="_748158424">
   <path class="fil17" d="M2929 1099l212 416c-5,5 -11,10 -18,16 -7,5 -16,11 -27,17 -25,12 -45,17 -58,14 -13,-4 -25,-14 -34,-33l-68 -133 -125 64c5,24 3,46 -6,66 -10,20 -27,36 -51,49 -31,15 -57,20 -78,13 -22,-7 -38,-20 -48,-40 -8,-16 -12,-35 -11,-57l20 -10c12,-6 19,-14 22,-24 3,-10 1,-21 -6,-34l-59 -117c-5,-10 -12,-16 -19,-17 -7,-2 -15,-1 -22,3 -8,4 -13,9 -15,15 -3,6 -3,13 -1,20 -5,5 -10,8 -15,11 -16,8 -32,11 -45,7 -14,-5 -25,-14 -33,-30 -6,-12 -9,-24 -9,-36 0,-12 3,-23 9,-34 6,-12 14,-22 25,-32 11,-9 23,-18 38,-25 44,-22 82,-30 115,-23 33,7 59,29 78,66l70 137 120 -61 -76 -150 -47 24c-12,7 -23,7 -31,3 -9,-5 -17,-15 -24,-29 -3,-6 -6,-14 -9,-22 -3,-9 -4,-17 -5,-22l239 -123c22,-11 41,-2 55,25 3,6 6,14 9,23 2,10 4,18 4,24l-76 39zm230 -118l213 416c-5,5 -11,10 -18,16 -8,5 -17,11 -27,17 -26,13 -45,17 -58,14 -13,-3 -25,-14 -34,-33l-190 -372 -53 27c-12,6 -23,7 -31,2 -9,-4 -17,-14 -24,-28 -3,-6 -6,-14 -9,-22 -3,-9 -4,-17 -4,-23l244 -125c22,-11 40,-2 55,26 3,5 6,13 8,23 3,9 4,17 4,23l-76 39zm597 -192l128 449c-5,4 -12,7 -20,12 -8,4 -18,8 -30,11 -27,8 -47,9 -59,3 -13,-6 -22,-19 -27,-39l-32 -113c-13,12 -27,23 -43,32 -16,10 -35,17 -55,23 -57,16 -106,13 -148,-9 -41,-23 -71,-64 -88,-126l-36 -126 -43 12c-13,4 -24,2 -31,-4 -8,-6 -14,-17 -18,-33 -2,-7 -3,-14 -4,-23 -1,-10 -2,-17 -1,-23l537 -153c24,-7 40,5 49,35 2,7 3,15 4,24 1,10 1,18 0,24l-83 24zm-138 272c15,-5 29,-11 41,-20 12,-9 20,-18 26,-28l-197 -79 16 57c10,34 24,57 43,67 18,10 42,11 71,3zm49 -118l-34 -119 -155 44 189 75zm339 -226l129 450c-6,4 -13,7 -22,12 -8,4 -18,8 -29,11 -28,8 -48,9 -60,3 -12,-6 -21,-19 -27,-39l-114 -401 -57 16c-13,3 -24,2 -31,-4 -8,-6 -14,-18 -18,-33 -2,-7 -3,-14 -5,-23 -1,-10 -1,-17 0,-23l264 -75c24,-7 40,5 49,35 2,6 3,14 4,24 1,10 1,18 -1,24l-82 23zm949 -62l12 467c-6,2 -14,4 -23,6 -9,3 -20,4 -32,4 -28,1 -47,-3 -58,-12 -10,-9 -16,-24 -16,-44l-4 -156c-10,2 -20,4 -30,5 -10,2 -21,3 -32,3 -21,1 -44,-2 -70,-7 -25,-5 -48,-13 -67,-26 -11,7 -23,13 -35,18 -13,5 -26,8 -41,11 20,31 45,58 75,80 30,22 60,38 89,50 1,23 -6,42 -19,59 -13,17 -33,26 -61,27 -18,0 -37,-4 -55,-12 -19,-9 -37,-22 -54,-40 -17,-17 -33,-39 -48,-65 -15,-27 -27,-57 -37,-91 -20,-2 -33,-8 -41,-18 -9,-11 -13,-24 -13,-39 -1,-11 1,-21 4,-30 4,-10 8,-18 14,-24 8,1 18,2 30,3 12,0 24,1 36,0 33,-1 57,-9 73,-24 15,-16 23,-36 22,-60 0,-14 -2,-27 -7,-39 -5,-12 -10,-24 -17,-35l-178 4c-14,1 -23,-3 -29,-11 -6,-8 -9,-20 -9,-37 0,-6 0,-14 1,-23 2,-9 3,-17 6,-22l669 -18c25,0 38,15 39,46 0,7 -1,15 -2,25 -2,10 -4,17 -6,23l-86 2zm-206 170c31,0 58,-7 82,-19l-4 -148 -148 4c7,14 13,29 19,44 5,16 8,33 8,52 1,21 -3,43 -11,63 17,4 35,5 54,4zm843 -96l-59 464c-7,1 -15,2 -24,2 -9,1 -20,1 -32,-1 -28,-3 -46,-10 -55,-21 -9,-10 -13,-25 -10,-46l19 -148 -152 -19c-18,49 -55,71 -110,64 -33,-5 -57,-16 -71,-34 -15,-18 -20,-38 -18,-60 3,-19 11,-37 24,-53l21 3c13,2 23,-1 31,-8 8,-7 13,-17 15,-31l21 -163 -94 -11c-14,-2 -23,-7 -27,-16 -4,-9 -6,-21 -4,-38 1,-6 3,-14 6,-23 2,-8 5,-15 8,-20l579 73c25,3 35,20 31,51 -1,7 -2,15 -5,24 -3,9 -6,17 -10,22l-84 -11zm-294 132l145 18 21 -166 -145 -18 -21 166zm974 70l-151 443c-6,-1 -14,-1 -24,-3 -9,-1 -19,-4 -31,-8 -26,-8 -43,-19 -50,-31 -7,-12 -7,-28 -1,-47l21 -60c-20,3 -42,4 -65,2 -23,-2 -48,-7 -75,-16 -49,-17 -89,-41 -119,-73 -29,-32 -48,-67 -56,-106 -4,-17 -5,-35 -5,-53 0,-18 2,-33 6,-46 3,-8 7,-14 13,-18 6,-4 15,-4 26,-2 25,6 49,9 71,10 22,2 41,1 59,-3 17,-3 32,-9 44,-18 12,-9 20,-21 26,-37 5,-15 5,-27 0,-37 -5,-11 -13,-18 -24,-21 -11,-4 -21,-4 -31,1 -9,5 -16,14 -20,27 -3,8 -4,15 -5,21 0,6 1,12 2,16 -8,5 -17,7 -29,7 -11,1 -24,-1 -37,-6 -9,-3 -17,-7 -24,-13 -8,-6 -14,-13 -18,-21 -5,-8 -7,-18 -8,-29 0,-11 2,-23 6,-36 6,-15 14,-29 26,-41 12,-12 26,-21 43,-27 16,-6 36,-9 58,-9 22,0 45,4 70,13 26,8 48,20 65,34 18,14 31,30 40,48 9,18 14,37 15,57 0,21 -3,41 -10,63 -8,23 -20,42 -36,57 -15,15 -33,27 -54,36 -21,8 -44,14 -69,15 -25,2 -51,1 -77,-3 2,20 12,39 29,58 16,19 40,34 71,44 24,8 48,12 70,10 22,-1 42,-6 59,-14l96 -281c3,-10 8,-17 16,-22 8,-4 17,-5 26,-1l146 49c23,8 30,27 20,57 -2,6 -6,13 -11,22 -5,9 -9,15 -13,19l-81 -27zm-90 -125c-12,-20 -19,-43 -20,-68 -2,-24 1,-48 8,-70 7,-20 16,-36 28,-50 12,-14 27,-24 43,-32 17,-7 34,-11 54,-11 19,-1 40,3 61,10 35,12 57,26 66,43 9,16 10,33 4,50 -6,17 -14,29 -26,35 -6,-4 -11,-8 -17,-11 -6,-4 -13,-7 -21,-9 -18,-6 -35,-6 -51,2 -17,7 -29,22 -36,43 -6,18 -8,36 -5,53 2,18 7,34 13,50l-101 -35zm610 367l-40 78c16,-1 33,0 50,4 18,3 37,10 57,20 21,11 39,25 54,41 15,17 26,35 33,55 7,20 10,42 8,65 -2,24 -9,48 -21,72 -13,25 -28,44 -45,59 -17,15 -36,25 -55,31 -19,6 -39,8 -60,6 -20,-2 -39,-8 -57,-17 -48,-24 -62,-55 -43,-91 3,-8 8,-14 14,-20 5,-5 11,-10 17,-13 6,5 13,10 22,14 16,8 32,10 49,6 17,-4 31,-17 41,-37 10,-19 11,-37 5,-54 -7,-18 -20,-31 -41,-42 -13,-7 -26,-10 -39,-11 -13,0 -25,2 -36,5l-125 246c-6,-1 -14,-3 -23,-6 -9,-3 -19,-7 -30,-12 -25,-13 -40,-26 -45,-38 -5,-13 -3,-29 6,-47l21 -41c-16,1 -33,0 -51,-3 -18,-4 -37,-11 -58,-21 -20,-11 -38,-24 -53,-40 -15,-16 -27,-35 -34,-55 -8,-21 -11,-43 -10,-67 2,-23 9,-48 22,-74 12,-24 27,-44 45,-58 17,-14 36,-25 55,-30 20,-6 40,-7 60,-5 21,2 41,8 59,18 27,13 44,28 51,45 7,16 6,33 -3,50 -8,16 -18,27 -32,34 -3,-3 -7,-6 -10,-9 -4,-4 -9,-7 -17,-11 -17,-9 -34,-11 -51,-7 -17,4 -31,16 -41,36 -9,19 -11,37 -4,55 6,18 20,32 40,42 15,8 30,12 43,12 13,1 25,-1 36,-5l122 -238 -276 -141c-13,-6 -19,-15 -21,-24 -1,-10 2,-22 10,-37 3,-6 7,-12 13,-20 5,-7 10,-13 15,-16l684 349c22,11 25,30 11,58 -3,6 -7,13 -13,21 -6,8 -11,14 -16,17l-293 -149z"/>
   <path class="fil22" d="M2929 1071l212 416c-5,5 -11,10 -18,16 -7,5 -16,11 -27,17 -25,12 -45,17 -58,14 -13,-4 -25,-14 -34,-33l-68 -133 -125 64c5,24 3,46 -6,66 -10,20 -27,36 -51,49 -31,15 -57,20 -78,13 -22,-7 -38,-20 -48,-40 -8,-16 -12,-35 -11,-57l20 -10c12,-6 19,-14 22,-24 3,-10 1,-21 -6,-34l-59 -117c-5,-10 -12,-16 -19,-17 -7,-2 -15,-1 -22,3 -8,4 -13,9 -15,15 -3,6 -3,13 -1,20 -5,5 -10,8 -15,11 -16,8 -32,11 -45,7 -14,-5 -25,-14 -33,-30 -6,-12 -9,-24 -9,-36 0,-12 3,-23 9,-34 6,-12 14,-22 25,-32 11,-9 23,-18 38,-25 44,-22 82,-30 115,-23 33,7 59,29 78,66l70 137 120 -61 -76 -150 -47 24c-12,7 -23,7 -31,3 -9,-5 -17,-15 -24,-29 -3,-6 -6,-14 -9,-22 -3,-9 -4,-17 -5,-22l239 -123c22,-11 41,-3 55,25 3,6 6,14 9,23 2,10 4,18 4,24l-76 39zm230 -118l213 416c-5,5 -11,10 -18,16 -8,5 -17,11 -27,17 -26,13 -45,17 -58,14 -13,-4 -25,-14 -34,-33l-190 -372 -53 27c-12,6 -23,7 -31,2 -9,-4 -17,-14 -24,-29 -3,-5 -6,-13 -9,-22 -3,-8 -4,-16 -4,-22l244 -125c22,-11 40,-3 55,25 3,6 6,14 8,24 3,9 4,17 4,23l-76 39zm597 -192l128 449c-5,4 -12,7 -20,12 -8,4 -18,8 -30,11 -27,8 -47,9 -59,3 -13,-6 -22,-19 -27,-39l-32 -113c-13,12 -27,23 -43,32 -16,10 -35,17 -55,23 -57,16 -106,13 -148,-9 -41,-23 -71,-65 -88,-126l-36 -126 -43 12c-13,3 -24,2 -31,-4 -8,-6 -14,-18 -18,-33 -2,-7 -3,-14 -4,-23 -1,-10 -2,-17 -1,-23l537 -153c24,-7 40,5 49,35 2,7 3,15 4,24 1,10 1,18 0,24l-83 24zm-138 272c15,-5 29,-11 41,-20 12,-9 20,-18 26,-28l-197 -79 16 57c10,34 24,57 43,67 18,10 42,11 71,3zm49 -118l-34 -119 -155 44 189 75zm339 -226l129 450c-6,4 -13,7 -22,12 -8,4 -18,8 -29,11 -28,8 -48,9 -60,3 -12,-6 -21,-19 -27,-39l-114 -401 -57 16c-13,3 -24,2 -31,-4 -8,-7 -14,-18 -18,-33 -2,-7 -3,-14 -5,-23 -1,-10 -1,-17 0,-23l264 -75c24,-7 40,5 49,35 2,6 3,14 4,24 1,10 1,18 -1,24l-82 23zm949 -62l12 467c-6,2 -14,4 -23,6 -9,3 -20,4 -32,4 -28,1 -47,-3 -58,-12 -10,-9 -16,-24 -16,-44l-4 -156c-10,2 -20,4 -30,5 -10,2 -21,3 -32,3 -21,1 -44,-2 -70,-7 -25,-5 -48,-13 -67,-26 -11,7 -23,13 -35,18 -13,5 -26,8 -41,11 20,31 45,58 75,80 30,22 60,38 89,50 1,22 -6,42 -19,59 -13,17 -33,26 -61,27 -18,0 -37,-4 -55,-12 -19,-9 -37,-22 -54,-40 -17,-17 -33,-39 -48,-65 -15,-27 -27,-57 -37,-91 -20,-2 -33,-8 -41,-18 -9,-11 -13,-24 -13,-40 -1,-10 1,-20 4,-29 4,-10 8,-18 14,-24 8,1 18,2 30,3 12,0 24,1 36,0 33,-1 57,-9 73,-24 15,-16 23,-36 22,-60 0,-14 -2,-27 -7,-39 -5,-12 -10,-24 -17,-35l-178 4c-14,1 -23,-3 -29,-11 -6,-8 -9,-20 -9,-37 0,-6 0,-14 1,-23 2,-9 3,-17 6,-22l669 -18c25,0 38,15 39,46 0,7 -1,15 -2,25 -2,10 -4,17 -6,23l-86 2zm-206 170c31,0 58,-7 82,-19l-4 -148 -148 4c7,14 13,29 19,44 5,16 8,33 8,52 1,21 -3,43 -11,63 17,3 35,5 54,4zm843 -96l-59 464c-7,1 -15,2 -24,2 -9,1 -20,1 -32,-1 -28,-3 -46,-10 -55,-21 -9,-10 -13,-25 -10,-46l19 -148 -152 -19c-18,49 -55,71 -110,64 -33,-5 -57,-16 -71,-34 -15,-18 -20,-38 -18,-60 3,-19 11,-37 24,-53l21 3c13,2 23,-1 31,-8 8,-7 13,-17 15,-31l21 -163 -94 -11c-14,-2 -23,-7 -27,-16 -4,-9 -6,-21 -4,-38 1,-6 3,-14 6,-23 2,-8 5,-15 8,-20l579 73c25,3 35,20 31,51 -1,7 -2,15 -5,24 -3,9 -6,17 -10,22l-84 -11zm-294 132l145 18 21 -166 -145 -18 -21 166zm974 70l-151 442c-6,0 -14,-1 -24,-2 -9,-1 -19,-4 -31,-8 -26,-9 -43,-19 -50,-31 -7,-12 -7,-28 -1,-47l21 -60c-20,3 -42,4 -65,2 -23,-2 -48,-7 -75,-16 -49,-17 -89,-41 -119,-73 -29,-32 -48,-67 -56,-106 -4,-17 -5,-35 -5,-53 0,-18 2,-33 6,-46 3,-8 7,-14 13,-18 6,-4 15,-4 26,-2 25,6 49,9 71,10 22,2 41,1 59,-3 17,-3 32,-9 44,-18 12,-9 20,-21 26,-37 5,-15 5,-27 0,-37 -5,-11 -13,-18 -24,-21 -11,-4 -21,-4 -31,1 -9,5 -16,14 -20,27 -3,8 -4,15 -5,21 0,6 1,11 2,16 -8,5 -17,7 -29,7 -11,1 -24,-1 -37,-6 -9,-3 -17,-7 -24,-13 -8,-6 -14,-13 -18,-21 -5,-8 -7,-18 -8,-29 0,-11 2,-23 6,-36 6,-16 14,-29 26,-41 12,-12 26,-21 43,-27 16,-6 36,-9 58,-9 22,0 45,4 70,13 26,8 48,20 65,34 18,14 31,30 40,48 9,18 14,37 15,57 0,21 -3,41 -10,63 -8,23 -20,42 -36,57 -15,15 -33,27 -54,36 -21,8 -44,14 -69,15 -25,2 -51,1 -77,-3 2,20 12,39 29,58 16,19 40,34 71,44 24,8 48,12 70,10 22,-1 42,-6 59,-14l96 -281c3,-10 8,-17 16,-22 8,-4 17,-5 26,-1l146 49c23,8 30,27 20,57 -2,6 -6,13 -11,22 -5,9 -9,15 -13,19l-81 -27zm-90 -125c-12,-20 -19,-43 -20,-68 -2,-25 1,-48 8,-70 7,-20 16,-36 28,-50 12,-14 27,-24 43,-32 17,-7 34,-11 54,-11 19,-1 40,3 61,10 35,12 57,26 66,43 9,16 10,33 4,50 -6,17 -14,29 -26,35 -6,-4 -11,-8 -17,-11 -6,-4 -13,-7 -21,-9 -18,-7 -35,-6 -51,2 -17,7 -29,22 -36,43 -6,18 -8,36 -5,53 2,18 7,34 13,50l-101 -35zm610 367l-40 78c16,-1 33,0 50,4 18,3 37,10 57,20 21,11 39,25 54,41 15,17 26,35 33,55 7,20 10,42 8,65 -2,24 -9,48 -21,72 -13,25 -28,44 -45,59 -17,15 -36,25 -55,31 -19,6 -39,8 -60,6 -20,-2 -39,-8 -57,-17 -48,-24 -62,-55 -43,-91 3,-8 8,-14 14,-20 5,-5 11,-10 17,-13 6,5 13,10 22,14 16,8 32,10 49,6 17,-4 31,-17 41,-37 10,-19 11,-37 5,-54 -7,-18 -20,-31 -41,-42 -13,-7 -26,-10 -39,-11 -13,0 -25,2 -36,5l-125 246c-6,-1 -14,-3 -23,-6 -9,-3 -19,-7 -30,-12 -25,-13 -40,-26 -45,-38 -5,-13 -3,-29 6,-47l21 -41c-16,1 -33,0 -51,-3 -18,-4 -37,-11 -58,-21 -20,-11 -38,-24 -53,-40 -15,-16 -27,-35 -34,-55 -8,-21 -11,-43 -10,-67 2,-23 9,-48 22,-74 12,-24 27,-44 45,-58 17,-14 36,-25 55,-30 20,-6 40,-7 60,-5 21,2 41,8 59,18 27,13 44,28 51,45 7,16 6,33 -3,50 -8,16 -18,27 -32,34 -3,-3 -7,-6 -10,-9 -4,-4 -9,-7 -17,-11 -17,-9 -34,-11 -51,-7 -17,4 -31,16 -41,36 -9,19 -11,37 -4,55 6,18 20,32 40,42 15,8 30,12 43,12 13,1 25,-1 36,-5l122 -238 -276 -141c-13,-7 -19,-15 -21,-24 -1,-10 2,-22 10,-37 3,-6 7,-12 13,-20 5,-7 10,-13 15,-16l684 349c22,11 25,30 11,58 -3,6 -7,13 -13,21 -6,8 -11,14 -16,17l-293 -149z"/>
   <path class="fil23" d="M6162 711l0 -1c-2,-25 1,-48 9,-70 6,-20 15,-36 27,-50 12,-14 27,-25 43,-32 17,-7 35,-11 54,-11 19,-1 40,3 61,10 35,12 57,26 66,43 8,14 10,29 6,44 -1,-6 -3,-11 -6,-16 -9,-17 -31,-31 -66,-43 -21,-7 -42,-11 -61,-10 -19,0 -37,4 -54,11 -16,8 -31,18 -43,32 -12,14 -21,30 -27,50 -5,13 -8,28 -9,43zm107 50l1 2c2,15 6,30 10,43l77 26c21,7 28,23 22,48 -3,-9 -11,-16 -22,-20l-77 -26c-4,-13 -8,-28 -10,-43 -2,-10 -2,-20 -1,-30zm-257 534c-3,-10 -2,-23 3,-38l11 -31c3,0 6,-1 10,-1l-21 60c-1,4 -2,7 -3,10zm-296 -329c0,-5 0,-10 0,-15 0,-18 2,-33 6,-46 3,-8 7,-14 13,-18 6,-4 15,-4 27,-2 25,6 48,9 70,10 22,2 41,1 59,-3 17,-3 32,-9 44,-18 12,-9 20,-21 26,-37 0,-2 1,-4 2,-6 3,10 2,21 -2,34 -6,16 -14,28 -26,37 -12,9 -27,15 -44,18 -18,4 -37,5 -59,3 -22,-1 -45,-4 -70,-10 -12,-2 -21,-2 -27,2 -6,4 -10,10 -13,18 -3,10 -5,21 -6,33zm53 -173c-1,-3 -1,-7 -2,-11 0,-11 2,-23 7,-36 5,-16 13,-29 25,-41 12,-12 26,-21 43,-27 16,-6 36,-9 58,-9 22,0 45,4 71,13 25,8 47,20 64,34 18,14 31,30 40,48 9,18 14,37 15,57 0,7 0,13 -1,20 -1,-17 -6,-33 -14,-49 -9,-18 -22,-34 -40,-48 -17,-14 -39,-26 -64,-34 -26,-9 -49,-13 -71,-13 -22,0 -42,3 -58,9 -17,6 -31,15 -43,27 -12,12 -20,26 -25,41 -3,7 -4,13 -5,19zm84 225c5,10 11,20 20,29 17,19 40,34 71,44 24,8 48,12 70,10 23,-1 42,-6 59,-14l96 -281c1,-5 3,-9 6,-13 2,5 4,9 7,13l10 4c-2,0 -5,1 -7,2 -7,5 -13,12 -16,22l-96 281c-17,8 -36,13 -59,14 -22,2 -46,-2 -70,-10 -31,-10 -54,-25 -71,-44 -17,-19 -27,-38 -29,-58l9 1zm-2682 -43l201 394c-3,3 -6,6 -10,9l-203 -397 12 -6zm-231 118l201 394c-3,3 -6,6 -10,9l-202 -397 11 -6zm-126 366c0,4 -1,8 -1,12 -1,-4 -1,-7 -2,-11l3 -1zm-196 31c-1,-8 -1,-17 -1,-27l20 -10c10,-5 17,-12 21,-21 3,9 3,18 1,25 -3,10 -10,18 -22,24l-19 9zm-182 -223c-1,-5 -1,-11 -1,-16 0,-12 3,-23 9,-34 6,-12 14,-22 25,-32 11,-9 23,-18 38,-25 44,-22 82,-30 115,-23 33,7 59,29 78,66l70 137 109 -56 11 23 -120 61 -70 -137c-19,-37 -45,-59 -78,-66 -33,-7 -71,1 -115,23 -15,7 -27,16 -38,25 -11,10 -19,20 -25,32 -4,7 -6,14 -8,22zm268 -159l-1 -3c-3,-9 -4,-17 -5,-22l226 -116 13 -7 1 0 230 -118c22,-11 40,-2 55,26 3,5 6,13 8,23 3,9 4,17 4,23l-4 2c-3,-8 -6,-15 -8,-20 -15,-28 -33,-37 -55,-26l-230 118 -1 0 -13 7 -220 113zm1060 -322l120 424 -6 4 -122 -425 8 -3zm-514 49l0 -5c-1,-10 -2,-17 -1,-23l523 -149 14 -4 1 0 249 -71c24,-7 40,5 49,35 2,6 3,14 4,24 1,9 1,17 0,23 -1,-8 -3,-14 -4,-19 -9,-30 -25,-42 -49,-35l-249 71 -1 0 -14 4 -522 149zm764 -120l121 424 -7 4 -122 -426 8 -2zm-396 318c15,-5 29,-11 41,-20 3,-2 5,-4 8,-7l18 7c-6,10 -14,19 -26,28 -12,9 -26,15 -41,20 -29,8 -53,7 -71,-3 -19,-10 -33,-33 -43,-67l-16 -57 9 4 7 25c10,34 24,57 43,67 18,10 42,11 71,3zm-99 -177l139 55 9 32 -189 -75 41 -12zm1437 -201l11 439 -1 1 -11 -440 1 0zm-380 265c17,21 36,40 58,56 30,22 60,38 89,50 0,9 -1,18 -3,26 -28,-11 -57,-27 -86,-48 -30,-22 -55,-49 -75,-80 6,-1 12,-2 17,-4zm-180 -62c-1,-3 -1,-7 -1,-12 0,-10 1,-20 4,-29 4,-10 8,-18 14,-24 8,1 18,2 30,3 12,0 24,1 36,0 33,-1 57,-9 73,-24 12,-12 19,-27 22,-44 0,4 0,8 0,12 1,24 -6,44 -22,60 -16,15 -40,23 -73,24 -12,1 -24,0 -36,0 -12,-1 -22,-2 -30,-3 -6,6 -10,14 -14,24 -1,4 -2,9 -3,13zm-61 -252c-1,-4 -1,-8 -1,-12 0,-6 0,-14 1,-23 2,-9 4,-17 6,-22l669 -18c25,0 38,15 39,46 0,5 -1,11 -1,17 -4,-24 -16,-35 -38,-35l-669 18c-2,5 -4,13 -6,22l0 7zm414 191c30,0 58,-7 81,-19l1 28c-24,12 -51,19 -82,19 -19,1 -37,0 -54,-4 4,-8 6,-17 8,-26 15,2 30,3 46,2zm-57 -135c2,5 4,11 6,16 5,16 8,33 8,52 1,6 0,12 0,18 -1,-15 -4,-29 -8,-42 -5,-15 -12,-30 -19,-44l13 0zm720 463c-1,-7 -1,-16 0,-26l15 -120 4 0 -19 146zm-331 -198c-1,-8 -2,-16 0,-25 2,-19 10,-37 23,-53l21 3c13,2 23,-1 31,-8 9,-7 14,-17 15,-31l17 -135 4 0 -21 163c-1,14 -6,24 -15,31 -8,7 -18,10 -31,8l-21 -3c-13,15 -20,32 -23,50zm-13 -315c-2,-7 -2,-16 0,-27 0,-6 2,-14 5,-23 2,-8 5,-15 8,-21l579 74c25,3 35,20 31,51l0 3c-4,-15 -14,-24 -31,-26l-579 -73c-3,5 -6,12 -8,20 -3,9 -4,16 -5,22zm234 221l141 18 18 -139 3 1 -21 166 -145 -18 4 -28zm1465 390c11,0 23,1 35,4 18,3 37,10 57,20 21,11 39,25 54,41 15,17 26,35 33,55 7,20 10,42 8,65l0 1c-1,-13 -3,-26 -8,-38 -7,-20 -18,-38 -33,-55 -15,-16 -33,-30 -54,-40 -20,-11 -39,-18 -57,-21 -17,-4 -34,-5 -49,-4l14 -28zm-100 288c-4,-13 -2,-28 6,-43 4,-8 8,-14 14,-20 5,-5 11,-10 17,-13 6,5 13,10 22,14 16,8 33,10 49,6 17,-4 31,-17 41,-37 3,-7 6,-13 7,-19 4,15 1,31 -7,47 -10,20 -24,33 -41,37 -16,4 -33,2 -49,-6 -9,-4 -16,-9 -22,-14 -6,3 -12,8 -17,13 -6,6 -10,12 -14,20 -3,5 -5,10 -6,15zm-186 -7c-4,-13 -2,-28 7,-45l6 -13c5,0 10,0 15,0l-21 41c-3,6 -5,11 -7,17zm-177 -247c-1,-8 -1,-16 -1,-25 2,-23 9,-48 22,-74 12,-24 27,-44 45,-58 17,-15 36,-25 56,-30 19,-6 39,-7 60,-5 20,2 40,8 59,18 26,13 43,28 50,45 5,12 6,24 3,36 -1,-3 -2,-5 -3,-8 -7,-17 -24,-32 -50,-45 -19,-10 -39,-16 -59,-18 -21,-2 -41,-1 -60,5 -20,5 -39,16 -56,30 -18,14 -33,34 -45,58 -12,24 -20,48 -21,71zm130 11c1,3 2,5 3,8 6,18 20,32 40,42 15,8 30,12 43,12 13,1 26,-1 36,-5l111 -216 11 6 -122 238c-10,4 -23,6 -36,5 -13,0 -28,-4 -43,-12 -20,-10 -34,-24 -40,-42 -5,-12 -5,-24 -3,-36zm-50 -338c-1,-3 -2,-5 -2,-8 -2,-10 2,-22 9,-37 3,-6 7,-12 13,-20 5,-7 10,-13 15,-16l684 349c18,9 24,24 17,44 -3,-6 -8,-12 -17,-16l-684 -349c-5,3 -10,9 -15,16 -6,8 -10,14 -13,20 -3,6 -5,12 -7,17z"/>
  </g>
 </g>
</svg>
