<?xml version="1.0" encoding="UTF-8"?>
<!DOCTYPE svg PUBLIC "-//W3C//DTD SVG 1.1//EN" "http://www.w3.org/Graphics/SVG/1.1/DTD/svg11.dtd">
<!-- Creator: CorelDRAW X7 -->
<svg xmlns="http://www.w3.org/2000/svg" xml:space="preserve" width="484px" height="611px" version="1.1" style="shape-rendering:geometricPrecision; text-rendering:geometricPrecision; image-rendering:optimizeQuality; fill-rule:evenodd; clip-rule:evenodd"
viewBox="0 0 17330 21869"
 xmlns:xlink="http://www.w3.org/1999/xlink">
 <defs>
  <style type="text/css">
   <![CDATA[
    .fil3 {fill:none}
    .fil20 {fill:#4D4D4D}
    .fil5 {fill:#666666}
    .fil13 {fill:#A6A6A6}
    .fil22 {fill:white}
    .fil15 {fill:#4D4D4D;fill-rule:nonzero}
    .fil17 {fill:#4D4D4D;fill-rule:nonzero}
    .fil6 {fill:#FAFAFA;fill-rule:nonzero}
    .fil19 {fill:#FEFEFE;fill-rule:nonzero}
    .fil10 {fill:white;fill-rule:nonzero}
    .fil1 {fill:#FFF0D4;fill-rule:nonzero;fill-opacity:0.501961}
    .fil11 {fill:url(#id0)}
    .fil4 {fill:url(#id1)}
    .fil14 {fill:url(#id2)}
    .fil8 {fill:url(#id3)}
    .fil0 {fill:url(#id4)}
    .fil2 {fill:url(#id5)}
    .fil12 {fill:url(#id6)}
    .fil9 {fill:url(#id7)}
    .fil7 {fill:url(#id8)}
    .fil21 {fill:url(#id9)}
    .fil16 {fill:url(#id10);fill-rule:nonzero}
    .fil18 {fill:url(#id11);fill-rule:nonzero}
   ]]>
  </style>
  <linearGradient id="id0" gradientUnits="userSpaceOnUse" x1="8665.17" y1="8598.26" x2="8665.17" y2="13532.8">
   <stop offset="0" style="stop-opacity:1; stop-color:#A6A6A6"/>
   <stop offset="1" style="stop-opacity:1; stop-color:#E8EEF7"/>
  </linearGradient>
  <linearGradient id="id1" gradientUnits="userSpaceOnUse" x1="8697.59" y1="767.776" x2="8697.59" y2="17291.8">
   <stop offset="0" style="stop-opacity:1; stop-color:#D0D5E0"/>
   <stop offset="0.0901961" style="stop-opacity:1; stop-color:#BECAD5"/>
   <stop offset="0.180392" style="stop-opacity:1; stop-color:#AEB1C4"/>
   <stop offset="0.611765" style="stop-opacity:1; stop-color:#6D7D85"/>
   <stop offset="1" style="stop-opacity:1; stop-color:#ABBEC9"/>
  </linearGradient>
  <linearGradient id="id2" gradientUnits="userSpaceOnUse" x1="8665.17" y1="3797.58" x2="8566.43" y2="11679.7">
   <stop offset="0" style="stop-opacity:1; stop-color:#F0F5FF"/>
   <stop offset="1" style="stop-opacity:1; stop-color:#A9BCC7"/>
  </linearGradient>
  <linearGradient id="id3" gradientUnits="userSpaceOnUse" x1="16151.7" y1="7256.47" x2="16160.2" y2="9725.07">
   <stop offset="0" style="stop-opacity:1; stop-color:#F7F7F7"/>
   <stop offset="1" style="stop-opacity:1; stop-color:#BDBDBD"/>
  </linearGradient>
  <linearGradient id="id4" gradientUnits="userSpaceOnUse" x1="13096.5" y1="15877.5" x2="8729.04" y2="16509.9">
   <stop offset="0" style="stop-opacity:1; stop-color:red"/>
   <stop offset="1" style="stop-opacity:1; stop-color:#B00205"/>
  </linearGradient>
  <linearGradient id="id5" gradientUnits="userSpaceOnUse" x1="4354.4" y1="17317.3" x2="7873.76" y2="15074.4">
   <stop offset="0" style="stop-opacity:1; stop-color:#B00205"/>
   <stop offset="1" style="stop-opacity:1; stop-color:red"/>
  </linearGradient>
  <linearGradient id="id6" gradientUnits="userSpaceOnUse" x1="8683.39" y1="4228.86" x2="8683.39" y2="13511.2">
   <stop offset="0" style="stop-opacity:1; stop-color:#D0D5E0"/>
   <stop offset="0.180392" style="stop-opacity:1; stop-color:#BECAD5"/>
   <stop offset="0.490196" style="stop-opacity:1; stop-color:#6D7D85"/>
   <stop offset="1" style="stop-opacity:1; stop-color:#ABBEC9"/>
  </linearGradient>
  <linearGradient id="id7" gradientUnits="userSpaceOnUse" x1="8688.76" y1="2915.98" x2="8688.76" y2="14945.2">
   <stop offset="0" style="stop-opacity:1; stop-color:#EDEDED"/>
   <stop offset="0.411765" style="stop-opacity:1; stop-color:#B8B8B8"/>
   <stop offset="1" style="stop-opacity:1; stop-color:#CCCCCC"/>
  </linearGradient>
  <linearGradient id="id8" gradientUnits="userSpaceOnUse" xlink:href="#id3" x1="1443.7" y1="7256.47" x2="1452.24" y2="9725.07">
  </linearGradient>
  <linearGradient id="id9" gradientUnits="userSpaceOnUse" x1="8244.75" y1="11693.5" x2="8244.92" y2="5388.93">
   <stop offset="0" style="stop-opacity:1; stop-color:#AFB1B1"/>
   <stop offset="0.709804" style="stop-opacity:1; stop-color:#D0D2D3"/>
   <stop offset="1" style="stop-opacity:1; stop-color:#F2F4F5"/>
  </linearGradient>
  <linearGradient id="id10" gradientUnits="userSpaceOnUse" x1="8103.62" y1="2207.34" x2="8103.62" y2="898.853">
   <stop offset="0" style="stop-opacity:1; stop-color:#C8CCD9"/>
   <stop offset="0.560784" style="stop-opacity:1; stop-color:#E3E5EC"/>
   <stop offset="1" style="stop-opacity:1; stop-color:white"/>
  </linearGradient>
  <radialGradient id="id11" gradientUnits="userSpaceOnUse" gradientTransform="matrix(-0.0345306 1.08365 -1.08367 -0.0345311 22617 3471)" cx="8748.44" cy="12519.2" r="4951.49" fx="8748.44" fy="12519.2">
   <stop offset="0" style="stop-opacity:1; stop-color:#FEFEFE"/>
   <stop offset="0.941176" style="stop-opacity:1; stop-color:#E5E5E5"/>
   <stop offset="1" style="stop-opacity:1; stop-color:#CCCDCD"/>
  </radialGradient>
 </defs>
 <g id="Layer_x0020_1">
  <metadata id="CorelCorpID_0Corel-Layer"/>
  <g id="_1035344840">
   <g>
    <path class="fil0" d="M8557 16799l-825 169 -228 47 -154 31 -138 28 -66 14 -19 4 65 114 1371 2380 1255 2180c71,110 153,136 252,47l1696 -2069c45,-86 113,-148 233,-159l2628 -438c172,-11 213,-97 121,-261l-1592 -2809 -54 -94 -8 -14 -29 -51 -21 -38 -28 6 -227 46 -122 25 -77 16 -4033 826z"/>
    <path class="fil1" d="M12657 16089l65 -37 -75 -129 -64 37 74 129zm-5164 942l-65 37 75 129 64 -37 -74 -129zm149 259l-65 37 74 129 65 -37 -74 -129zm148 258l-64 37 74 130 65 -38 -75 -129zm149 259l-65 37 75 129 64 -37 -74 -129zm149 258l-65 38 74 129 65 -37 -74 -130zm148 259l-64 37 74 129 64 -37 -74 -129zm149 259l-65 37 74 129 65 -37 -74 -129zm148 258l-64 37 74 130 65 -37 -75 -130zm149 259l-65 37 75 129 64 -37 -74 -129zm149 258l-65 38 74 129 65 -37 -74 -130zm148 259l-64 37 74 129 65 -37 -75 -129zm149 259l-65 37 75 129 64 -37 -74 -129zm149 258l-65 37 74 130 65 -37 -74 -130zm148 259l-65 37 75 129 64 -37 -74 -129zm149 258l-65 38 74 129 65 -37 -74 -130zm148 259l-64 37 74 129 65 -37 -75 -129zm149 258l-65 38 74 129 65 -37 -74 -130zm91 217l57 48 95 -115 -57 -48 -95 115zm191 -229l57 48 96 -115 -58 -48 -95 115zm191 -229l57 48 96 -115 -57 -48 -96 115zm191 -229l57 48 96 -115 -57 -47 -96 114zm191 -229l57 48 96 -115 -57 -47 -96 114zm191 -229l58 48 95 -115 -57 -47 -96 114zm192 -229l57 48 95 -114 -57 -48 -95 114zm191 -229l57 48 95 -114 -57 -48 -95 114zm191 -229l57 48 96 -114 -58 -48 -95 114zm191 -229l11 10 27 47 142 -23 -12 -73 -156 25 -12 14zm315 -63l12 74 147 -24 -11 -74 -148 24zm295 -47l12 73 147 -23 -12 -74 -147 24zm294 -47l12 73 147 -23 -11 -74 -148 24zm295 -47l12 73 147 -23 -12 -74 -147 24zm294 -48l12 74 148 -24 -12 -73 -148 23zm295 -47l12 74 147 -24 -12 -73 -147 23zm294 -47l12 74 147 -24 -11 -74 -148 24zm295 -47l12 74 147 -24 -12 -74 -147 24zm243 -3l65 -38 -75 -129 -64 38 74 129zm-149 -258l64 -38 -75 -129 -64 38 75 129zm-150 -259l65 -37 -75 -129 -65 37 75 129zm-149 -258l64 -37 -75 -129 -64 37 75 129zm-150 -258l65 -37 -75 -129 -65 37 75 129zm-149 -258l64 -37 -75 -129 -64 37 75 129zm-150 -258l65 -37 -75 -129 -65 37 75 129zm-150 -258l65 -37 -75 -129 -64 37 74 129zm-149 -258l64 -37 -74 -129 -65 37 75 129zm-150 -258l65 -37 -75 -129 -64 37 74 129zm-149 -258l64 -37 -74 -129 -65 37 75 129z"/>
    <path class="fil2" d="M4080 15882c-568,1002 -1136,2004 -1704,3007 -92,163 -51,250 121,261 876,146 1752,292 2628,438 120,11 188,73 233,158 566,690 1131,1379 1696,2069 99,89 181,63 252,-47 897,-1558 1794,-3116 2691,-4674 -1972,-404 -3944,-808 -5917,-1212z"/>
    <path class="fil1" d="M4447 16051l-65 -37 75 -129 65 37 -75 129zm5164 942l65 37 -75 129 -64 -37 74 -129zm-149 258l65 37 -74 130 -65 -37 74 -130zm-148 259l64 37 -74 129 -65 -37 75 -129zm-149 259l65 37 -75 129 -64 -37 74 -129zm-149 258l65 37 -74 130 -65 -38 74 -129zm-148 259l65 37 -75 129 -64 -37 74 -129zm-149 258l65 37 -74 130 -65 -37 74 -130zm-148 259l64 37 -74 129 -65 -37 75 -129zm-149 259l65 37 -75 129 -64 -37 74 -129zm-149 258l65 37 -74 130 -65 -38 74 -129zm-148 259l64 37 -74 129 -65 -37 75 -129zm-149 258l65 37 -74 130 -65 -37 74 -130zm-148 259l64 37 -74 129 -65 -37 75 -129zm-149 259l65 37 -75 129 -64 -37 74 -129zm-149 258l65 37 -74 130 -65 -38 74 -129zm-148 259l64 37 -74 129 -65 -37 75 -129zm-149 258l65 37 -74 130 -65 -38 74 -129zm-91 217l-57 47 -95 -114 57 -48 95 115zm-191 -229l-57 47 -96 -114 58 -48 95 115zm-191 -229l-57 47 -96 -114 57 -48 96 115zm-191 -229l-57 48 -96 -115 57 -48 96 115zm-191 -229l-57 48 -96 -115 57 -48 96 115zm-191 -229l-58 48 -95 -115 57 -48 96 115zm-192 -229l-57 48 -95 -115 57 -48 95 115zm-191 -229l-57 48 -95 -115 57 -47 95 114zm-191 -229l-57 48 -96 -115 58 -47 95 114zm-191 -229l-11 9 -27 48 -142 -23 12 -74 156 25 12 15zm-315 -63l-12 73 -147 -23 11 -74 148 24zm-295 -47l-12 73 -147 -23 12 -74 147 24zm-294 -48l-12 74 -147 -24 11 -73 148 23zm-295 -47l-12 74 -147 -24 12 -73 147 23zm-294 -47l-12 74 -147 -24 11 -74 148 24zm-295 -47l-12 74 -147 -24 12 -74 147 24zm-294 -47l-12 73 -147 -23 11 -74 148 24zm-295 -47l-12 73 -147 -23 12 -74 147 24zm-243 -4l-65 -37 75 -129 64 37 -74 129zm149 -258l-64 -37 75 -129 64 37 -75 129zm150 -258l-65 -37 75 -129 65 37 -75 129zm149 -258l-64 -37 75 -129 64 37 -75 129zm150 -258l-65 -37 75 -129 65 37 -75 129zm149 -258l-64 -37 75 -129 64 37 -75 129zm150 -258l-64 -37 74 -129 65 37 -75 129zm150 -258l-65 -37 75 -129 64 37 -74 129zm149 -258l-64 -37 74 -129 65 37 -75 129zm150 -258l-65 -37 75 -129 64 37 -74 129zm149 -258l-64 -37 74 -129 65 37 -75 129z"/>
   </g>
   <circle class="fil3" cx="8665" cy="8598" r="8598"/>
   <path class="fil4" d="M8665 0c4786,0 8665,3880 8665,8665 0,4786 -3879,8665 -8665,8665 -4785,0 -8665,-3879 -8665,-8665 0,-4785 3880,-8665 8665,-8665zm0 2363c3481,0 6302,2822 6302,6302 0,3481 -2821,6302 -6302,6302 -3480,0 -6302,-2821 -6302,-6302 0,-3480 2822,-6302 6302,-6302z"/>
   <path class="fil5" d="M1499 10114c-47,-238 -83,-477 -107,-718 -23,-241 -35,-484 -35,-726 0,-243 12,-485 35,-727 24,-241 60,-480 107,-717 8,-39 -17,-77 -56,-85 -39,-7 -77,18 -84,57 -48,241 -85,486 -109,731 -24,246 -36,493 -36,741 0,247 12,494 36,740 24,245 61,490 109,732 7,39 45,64 84,56 39,-8 64,-46 56,-84z"/>
   <path class="fil6" d="M8665 108c2363,0 4502,958 6051,2506 1548,1549 2506,3688 2506,6051 0,2363 -958,4502 -2506,6051 -1549,1548 -3688,2506 -6051,2506 -2363,0 -4502,-958 -6051,-2506 -1548,-1549 -2506,-3688 -2506,-6051 0,-2363 958,-4502 2506,-6051 1549,-1548 3688,-2506 6051,-2506zm5998 2559c-1535,-1535 -3656,-2484 -5998,-2484 -2342,0 -4463,949 -5998,2484 -1535,1535 -2484,3656 -2484,5998 0,2342 949,4463 2484,5998 1535,1535 3656,2485 5998,2485 2342,0 4463,-950 5998,-2485 1535,-1535 2485,-3656 2485,-5998 0,-2342 -950,-4463 -2485,-5998z"/>
   <path class="fil6" d="M8665 236c2328,0 4435,944 5960,2469 1526,1525 2469,3633 2469,5960 0,2328 -943,4435 -2469,5960 -1525,1526 -3632,2469 -5960,2469 -2327,0 -4435,-943 -5960,-2469 -1525,-1525 -2469,-3632 -2469,-5960 0,-2327 944,-4435 2469,-5960 1525,-1525 3633,-2469 5960,-2469zm5907 2522c-1511,-1512 -3600,-2447 -5907,-2447 -2307,0 -4395,935 -5907,2447 -1512,1512 -2447,3600 -2447,5907 0,2307 935,4396 2447,5907 1512,1512 3600,2447 5907,2447 2307,0 4396,-935 5907,-2447 1512,-1511 2447,-3600 2447,-5907 0,-2307 -935,-4395 -2447,-5907z"/>
   <path class="fil5" d="M15932 7226c48,237 84,477 107,717 24,242 36,484 36,727 0,242 -12,485 -36,726 -23,241 -59,480 -107,718 -7,39 18,76 57,84 39,8 76,-17 84,-56 48,-242 84,-487 108,-732 25,-246 37,-493 37,-740 0,-247 -12,-495 -37,-741 -24,-245 -60,-489 -108,-731 -8,-39 -45,-64 -84,-57 -39,8 -64,46 -57,85z"/>
   <path class="fil7" d="M1453 10109c-47,-237 -83,-477 -107,-718 -23,-241 -35,-483 -35,-726 0,-242 12,-485 35,-726 24,-241 60,-481 107,-718 8,-39 -17,-77 -56,-84 -39,-8 -77,17 -84,56 -49,242 -84,486 -109,732 -24,246 -36,493 -36,740 0,247 12,494 36,740 25,246 60,490 109,732 7,39 45,64 84,57 39,-8 64,-46 56,-85z"/>
   <path class="fil8" d="M15877 7221c47,237 83,477 107,718 24,241 35,484 35,726 0,243 -11,485 -35,726 -24,241 -60,481 -107,718 -8,39 18,77 56,85 39,7 77,-18 85,-57 48,-242 84,-486 108,-732 24,-246 37,-493 37,-740 0,-247 -13,-494 -37,-740 -24,-246 -60,-490 -108,-732 -8,-39 -46,-64 -85,-56 -38,7 -64,45 -56,84z"/>
   <circle class="fil9" cx="8665" cy="8665" r="6308"/>
   <path class="fil10" d="M13871 6630c-27,-70 -133,-53 -133,26 0,9 1,16 4,24 17,42 33,85 48,127 31,81 151,46 132,-40l-2 -7c-16,-44 -32,-87 -49,-130zm-10266 7c11,-30 2,-63 -25,-81 -38,-26 -85,-11 -103,30 -18,44 -34,87 -51,131 -27,70 67,129 120,66 4,-6 7,-12 10,-19 15,-42 32,-84 49,-127zm-214 646c20,-73 -82,-123 -126,-52 -4,6 -6,11 -8,18 -11,45 -23,90 -33,135 -19,84 104,122 133,35 12,-45 22,-91 34,-136zm-132 668c11,-83 -112,-112 -135,-25l-1 7c-7,46 -12,92 -17,138 -2,26 8,50 29,64 42,31 104,2 108,-49 5,-45 10,-90 16,-135zm-47 678c0,-73 -99,-97 -132,-28 -3,10 -5,18 -5,28 -1,46 0,93 0,139 4,88 130,91 138,3 1,-46 -1,-95 -1,-142zm39 679c-11,-84 -137,-79 -137,11 3,47 12,98 18,144 2,15 11,31 22,41 49,43 123,4 115,-61 -7,-45 -13,-90 -18,-135zm123 669c-24,-85 -151,-57 -135,31 11,46 24,93 36,138 21,77 139,62 136,-23 -1,-5 -1,-9 -3,-14 -12,-44 -23,-88 -34,-132zm205 649c-26,-68 -130,-53 -134,23 0,10 2,18 5,27 17,44 34,87 52,130 14,32 49,49 82,39 40,-10 61,-55 45,-92 -17,-42 -34,-85 -50,-127zm283 619c-40,-74 -152,-25 -126,55 2,3 3,7 5,10 22,41 45,82 67,122 35,64 140,34 128,-46 -1,-8 -4,-15 -8,-22 -22,-33 -47,-83 -66,-119zm358 578c-41,-60 -141,-19 -123,57 3,9 6,15 11,23 27,38 54,76 82,113 51,65 152,4 118,-71 -2,-4 -4,-8 -7,-12 -28,-36 -54,-73 -81,-110zm428 529c-55,-57 -148,6 -112,79 3,6 6,10 10,15 32,34 64,68 96,101 58,58 153,-13 106,-87 -2,-3 -4,-6 -7,-9 -32,-32 -63,-66 -93,-99zm490 472c-45,-40 -119,-3 -113,58 1,18 11,35 24,47 36,30 72,60 108,89 33,26 79,18 102,-17 18,-29 11,-70 -16,-91 -35,-28 -70,-57 -105,-86zm546 406c-30,-19 -67,-13 -90,13 -27,31 -20,81 15,103 39,25 78,50 118,74 63,40 140,-40 87,-104 -4,-5 -9,-9 -15,-13 -39,-24 -77,-48 -115,-73zm592 335c-73,-35 -137,63 -73,116 4,3 8,6 13,8 42,21 84,40 126,60 77,33 135,-71 68,-120 -4,-2 -7,-4 -11,-6 -42,-19 -83,-38 -123,-58zm629 260c-80,-25 -129,83 -56,126 4,1 7,3 11,4 44,15 88,30 133,44 76,24 127,-84 54,-126 -4,-2 -9,-4 -13,-6 -43,-13 -86,-27 -129,-42zm656 180c-71,-16 -118,81 -51,126 8,5 14,7 23,9 45,9 91,18 137,26 80,15 116,-100 36,-132 -4,-1 -8,-2 -12,-3 -44,-8 -89,-17 -133,-26zm673 96c-79,-7 -106,108 -25,135 5,1 9,2 14,3 47,3 93,6 140,9 77,3 102,-104 27,-134 -7,-2 -13,-4 -21,-4 -45,-2 -90,-6 -135,-9zm680 11c-77,3 -91,114 -15,135 8,2 14,3 22,3 46,-2 93,-5 139,-8 84,-8 86,-130 -1,-138 -3,0 -6,0 -9,0 -45,3 -91,6 -136,8zm676 -74c-79,15 -74,133 11,137 5,0 9,0 13,-1 46,-8 92,-16 137,-26 88,-19 65,-147 -24,-135 -46,8 -91,17 -137,25zm662 -157c-82,26 -53,149 34,133 46,-12 95,-29 140,-44 69,-22 60,-130 -21,-134 -9,0 -15,1 -23,3 -43,15 -87,29 -130,42zm637 -239c-69,30 -45,139 37,132 7,-1 13,-3 20,-6 42,-19 84,-38 126,-58 16,-8 28,-20 35,-36 23,-59 -37,-116 -94,-89 -41,20 -82,39 -124,57zm603 -315c-70,44 -19,150 59,124 5,-2 8,-4 13,-6 40,-24 79,-49 118,-74 62,-39 27,-137 -48,-126 -10,2 -17,4 -26,10 -39,24 -77,49 -116,72zm559 -388c-59,46 -9,145 67,119 7,-3 13,-6 19,-11 36,-29 73,-58 108,-88 21,-18 30,-45 22,-71 -13,-49 -72,-67 -110,-35 -35,30 -71,58 -106,86zm506 -454c-55,55 13,148 85,107 5,-3 9,-7 14,-11 32,-33 64,-67 96,-101 56,-63 -24,-151 -92,-102 -3,3 -6,5 -9,8 -31,33 -62,66 -94,99zm445 -515c-45,58 24,141 93,100 7,-5 12,-10 17,-17 28,-37 56,-74 83,-112 48,-69 -43,-146 -104,-90 -3,3 -6,7 -8,10 -27,37 -54,73 -81,109zm377 -566c-42,77 65,145 117,74 25,-40 48,-85 71,-127 39,-70 -57,-141 -113,-77 -3,4 -6,7 -8,11 -22,40 -44,79 -67,119zm304 -609c-30,72 65,134 118,70 4,-6 7,-10 9,-16 18,-43 35,-86 53,-129 29,-76 -73,-131 -120,-65 -3,5 -6,9 -8,14 -18,40 -34,85 -52,126zm227 -641c-9,30 3,61 30,77 38,24 90,4 102,-40 13,-45 25,-90 37,-135 18,-67 -70,-118 -121,-60 -6,9 -10,16 -13,27 -11,43 -23,87 -35,131zm144 -665c-10,74 85,109 126,48 5,-9 9,-17 10,-27 7,-46 14,-92 20,-139 10,-76 -99,-110 -132,-35 -3,6 -4,12 -5,18 -6,45 -12,90 -19,135zm61 -677c-3,72 99,99 131,31 4,-10 6,-17 7,-28 1,-47 1,-93 2,-140 0,-71 -96,-96 -131,-30 -5,10 -7,19 -7,30 0,46 -1,91 -2,137zm-25 -680c7,77 122,86 137,3 1,-6 1,-11 1,-17 -4,-46 -10,-93 -16,-139 -10,-82 -133,-79 -137,8 0,3 0,6 0,9 6,45 11,91 15,136zm-108 -672c18,81 143,66 135,-24l-1 -7c-10,-45 -21,-90 -32,-135 -24,-86 -151,-57 -135,30 11,46 23,91 33,136z"/>
   <path class="fil11" d="M8665 2339c1747,0 3329,708 4474,1853 1145,1144 1853,2726 1853,4473 0,1747 -708,3329 -1853,4474 -1145,1145 -2727,1853 -4474,1853 -1747,0 -3329,-708 -4473,-1853 -1145,-1145 -1853,-2727 -1853,-4474 0,-1747 708,-3329 1853,-4473 1144,-1145 2726,-1853 4473,-1853zm0 74c3453,0 6252,2799 6252,6252 0,3453 -2799,6252 -6252,6252 -3453,0 -6252,-2799 -6252,-6252 0,-3453 2799,-6252 6252,-6252z"/>
   <circle class="fil12" cx="8665" cy="8665" r="4868"/>
   <path class="fil13" d="M8665 2337c3490,0 6319,2825 6319,6308 0,27 0,53 -1,79 -42,-3448 -2854,-6230 -6318,-6230 -3464,0 -6276,2782 -6318,6230 0,-26 -1,-52 -1,-79 0,-3483 2829,-6308 6319,-6308z"/>
   <path class="fil3" d="M8682 3389c2914,0 5276,2362 5276,5276 0,2914 -2362,5276 -5276,5276 -2914,0 -5276,-2362 -5276,-5276 0,-2914 2362,-5276 5276,-5276z"/>
   <path class="fil14" d="M8665 3803c1343,0 2558,544 3438,1424 880,880 1424,2096 1424,3438 0,1343 -544,2558 -1424,3438 -880,880 -2095,1424 -3438,1424 -1342,0 -2558,-544 -3438,-1424 -880,-880 -1424,-2095 -1424,-3438 0,-1342 544,-2558 1424,-3438 880,-880 2096,-1424 3438,-1424zm0 75c2644,0 4788,2143 4788,4787 0,2644 -2144,4788 -4788,4788 -2644,0 -4787,-2144 -4787,-4788 0,-2644 2143,-4787 4787,-4787z"/>
  </g>
  <path class="fil15" d="M5301 1997l385 754c-9,8 -21,18 -34,28 -13,11 -29,21 -48,31 -46,23 -81,32 -105,26 -24,-7 -45,-26 -62,-59l-123 -241 -226 115c10,43 6,83 -11,119 -17,37 -48,66 -93,89 -54,28 -101,36 -141,23 -39,-12 -68,-36 -87,-72 -14,-28 -21,-63 -19,-103l36 -18c21,-11 34,-25 39,-43 6,-18 3,-39 -9,-63l-109 -211c-9,-18 -20,-28 -33,-31 -13,-3 -27,-1 -40,6 -14,7 -23,16 -28,27 -5,11 -5,23 0,37 -9,8 -18,15 -27,19 -30,15 -58,20 -83,12 -26,-7 -46,-25 -60,-53 -11,-22 -16,-43 -16,-65 1,-22 7,-43 17,-63 11,-20 26,-39 45,-56 20,-17 42,-33 69,-46 79,-40 148,-54 208,-41 60,13 107,52 141,119l127 248 217 -111 -138 -271 -84 44c-23,11 -42,12 -57,4 -16,-9 -30,-26 -44,-53 -5,-10 -10,-24 -15,-39 -5,-16 -8,-30 -9,-40l433 -221c39,-21 72,-6 98,45 6,11 11,25 16,42 5,17 8,31 8,41l-138 71zm417 -213l386 753c-10,9 -21,18 -34,29 -13,10 -29,20 -49,30 -46,24 -80,32 -104,26 -24,-6 -45,-26 -62,-59l-344 -673 -95 48c-22,12 -41,13 -57,5 -15,-9 -30,-27 -43,-53 -6,-11 -11,-24 -16,-40 -5,-16 -8,-29 -8,-40l442 -226c40,-20 73,-5 99,45 5,11 11,25 16,42 5,17 7,31 7,43l-138 70zm1081 -348l232 814c-10,6 -22,13 -37,20 -15,8 -33,15 -54,21 -49,14 -85,16 -108,5 -22,-11 -38,-34 -48,-70l-59 -205c-22,22 -48,42 -77,59 -29,17 -62,30 -99,41 -103,29 -192,24 -268,-17 -75,-41 -128,-117 -160,-228l-65 -229 -77 22c-25,7 -43,5 -57,-7 -13,-11 -24,-31 -32,-60 -4,-11 -6,-25 -8,-42 -2,-16 -2,-30 -1,-41l972 -276c43,-12 73,9 88,64 4,11 6,26 9,43 2,18 2,32 -1,43l-150 43zm-250 492c27,-8 51,-19 73,-35 22,-16 38,-33 47,-50l-356 -144 29 102c18,63 44,104 77,122 34,19 77,20 130,5zm89 -213l-61 -216 -281 80 342 136zm614 -408l231 814c-10,6 -23,14 -38,21 -15,8 -33,15 -54,21 -49,14 -85,15 -107,5 -23,-11 -39,-34 -49,-70l-207 -727 -103 29c-24,7 -43,4 -56,-7 -14,-12 -25,-32 -33,-60 -3,-11 -6,-26 -7,-42 -2,-17 -2,-30 -1,-41l478 -136c43,-12 73,9 88,64 3,11 6,26 8,44 1,17 1,32 -2,43l-148 42zm1716 -113l22 846c-11,4 -25,7 -41,11 -17,4 -37,6 -58,7 -51,1 -85,-6 -104,-22 -19,-16 -29,-43 -30,-80l-8 -282c-17,4 -35,7 -54,10 -18,2 -37,4 -57,4 -38,1 -80,-3 -127,-12 -46,-9 -87,-25 -122,-47 -20,13 -41,24 -63,32 -23,9 -48,15 -74,19 36,58 81,106 135,145 55,40 109,70 162,91 1,41 -10,77 -34,108 -24,31 -61,47 -111,48 -33,1 -67,-7 -100,-22 -34,-16 -66,-39 -97,-71 -31,-32 -60,-72 -87,-119 -27,-48 -50,-103 -68,-164 -35,-4 -60,-15 -74,-34 -15,-19 -23,-42 -23,-71 -1,-18 2,-36 8,-53 6,-17 14,-32 25,-44 14,3 32,5 54,6 21,1 43,1 64,1 60,-2 105,-17 133,-45 28,-28 42,-64 41,-108 -1,-25 -5,-49 -14,-71 -8,-22 -18,-43 -31,-64l-321 9c-25,0 -43,-7 -53,-21 -11,-15 -16,-37 -17,-66 0,-12 1,-26 3,-43 2,-16 6,-30 10,-39l1211 -32c45,-1 68,26 70,83 0,12 -1,27 -4,45 -3,17 -6,31 -10,41l-156 4zm-373 308c56,-1 106,-13 149,-35l-7 -267 -267 7c12,25 23,51 33,80 9,28 14,59 15,93 1,39 -5,78 -20,115 31,6 63,8 97,7zm1526 -174l-106 840c-12,1 -27,3 -43,4 -17,1 -36,1 -58,-2 -51,-7 -85,-19 -101,-38 -16,-18 -22,-46 -18,-83l34 -269 -273 -34c-34,89 -100,128 -200,115 -61,-7 -104,-27 -130,-60 -25,-32 -36,-69 -30,-109 4,-35 18,-66 41,-95l39 5c23,2 42,-2 57,-15 15,-12 24,-31 27,-56l37 -294 -169 -22c-25,-3 -42,-12 -50,-28 -8,-16 -10,-39 -6,-68 1,-12 5,-26 9,-42 5,-16 10,-28 16,-38l1048 133c44,5 63,36 56,93 -1,12 -5,26 -10,43 -5,17 -10,30 -17,39l-153 -19zm-531 239l262 33 38 -301 -262 -33 -38 301zm1762 126l-273 802c-12,-1 -26,-2 -43,-4 -17,-3 -36,-8 -57,-15 -47,-16 -77,-35 -90,-56 -13,-22 -14,-51 -2,-86l37 -108c-35,6 -74,7 -116,4 -42,-3 -88,-13 -137,-30 -89,-30 -160,-74 -214,-132 -53,-57 -87,-121 -101,-192 -7,-31 -11,-63 -11,-95 0,-33 5,-61 13,-84 5,-15 12,-26 23,-32 10,-7 26,-8 47,-3 46,9 88,15 128,18 39,2 75,1 106,-5 32,-6 58,-18 80,-34 22,-16 37,-38 47,-66 9,-27 9,-50 1,-68 -9,-19 -23,-32 -43,-38 -21,-7 -39,-7 -56,2 -17,9 -29,25 -38,49 -5,14 -7,27 -7,38 -1,11 0,21 2,29 -13,9 -30,13 -51,13 -21,1 -44,-3 -67,-11 -17,-6 -32,-14 -45,-24 -13,-10 -24,-23 -32,-38 -9,-15 -13,-32 -14,-52 -1,-20 3,-42 11,-66 10,-28 25,-53 46,-74 22,-22 47,-38 78,-49 30,-11 65,-17 105,-16 40,0 82,8 128,23 46,16 86,37 117,63 32,25 56,54 72,86 16,33 25,67 26,104 2,37 -4,74 -17,113 -15,42 -36,77 -64,104 -29,28 -62,49 -99,64 -38,16 -80,25 -125,28 -46,3 -92,1 -139,-6 4,36 21,71 51,105 31,35 74,61 130,80 44,15 86,21 126,19 41,-2 77,-11 107,-26l173 -510c6,-17 17,-30 31,-38 14,-8 29,-9 46,-3l264 90c42,14 54,48 36,102 -4,12 -10,25 -19,41 -9,15 -17,27 -24,35l-147 -51zm-163 -225c-21,-37 -33,-78 -36,-123 -3,-45 2,-87 16,-128 12,-35 29,-65 50,-90 22,-25 48,-44 78,-57 30,-13 62,-20 97,-21 35,0 72,6 111,19 64,22 103,47 119,77 16,30 19,60 8,91 -11,31 -27,52 -48,64 -10,-8 -20,-15 -31,-21 -10,-6 -23,-12 -37,-17 -32,-11 -64,-9 -94,4 -30,14 -51,40 -65,79 -11,33 -14,64 -9,96 5,32 13,62 24,90l-183 -63zm1105 664l-72 142c28,-3 58,-1 90,5 32,6 66,19 103,38 38,19 71,44 98,74 27,30 47,63 59,99 13,37 18,76 15,118 -3,42 -16,86 -39,130 -22,44 -49,80 -81,107 -31,26 -65,45 -100,56 -35,11 -71,15 -107,11 -37,-4 -72,-15 -105,-32 -86,-43 -112,-98 -78,-164 7,-14 16,-26 25,-35 10,-10 21,-18 31,-25 12,9 25,18 41,26 29,15 59,18 89,10 30,-7 55,-30 74,-67 17,-34 20,-66 8,-98 -11,-31 -36,-56 -73,-75 -24,-12 -48,-19 -71,-19 -23,-1 -44,2 -65,9l-227 444c-11,-2 -25,-6 -41,-10 -17,-5 -35,-13 -55,-22 -44,-23 -72,-46 -81,-70 -10,-23 -6,-51 11,-84l38 -75c-28,3 -59,1 -92,-5 -33,-7 -68,-19 -105,-38 -37,-19 -69,-43 -97,-73 -27,-29 -48,-62 -61,-99 -14,-37 -20,-77 -17,-120 2,-43 15,-88 39,-135 22,-44 49,-79 81,-105 32,-26 65,-44 101,-55 35,-10 71,-13 108,-8 38,4 73,14 107,32 48,24 78,51 91,81 13,30 12,61 -4,92 -15,28 -34,48 -59,60 -5,-5 -11,-11 -18,-16 -6,-6 -16,-12 -30,-19 -31,-16 -62,-20 -93,-13 -31,8 -55,30 -74,66 -17,34 -20,67 -8,99 12,32 37,57 74,76 27,14 53,21 77,22 24,1 46,-3 66,-10l220 -431 -500 -255c-23,-11 -35,-26 -37,-44 -2,-17 4,-39 17,-65 6,-11 13,-23 23,-37 10,-13 19,-23 28,-30l1239 632c39,20 45,56 19,106 -5,11 -13,24 -23,38 -11,14 -21,24 -30,31l-529 -270z"/>
  <path class="fil16" d="M5301 1938l385 754c-9,8 -21,18 -34,28 -13,10 -29,21 -48,30 -46,24 -81,32 -105,26 -24,-6 -45,-25 -62,-59l-123 -241 -226 116c10,43 6,83 -11,119 -17,36 -48,66 -93,89 -54,28 -101,36 -141,23 -39,-12 -68,-36 -87,-72 -14,-29 -21,-63 -19,-103l36 -19c21,-10 34,-24 39,-42 6,-19 3,-39 -9,-63l-109 -211c-9,-18 -20,-28 -33,-31 -13,-3 -27,-1 -40,6 -14,6 -23,15 -28,27 -5,11 -5,23 0,37 -9,8 -18,14 -27,19 -30,15 -58,19 -83,12 -26,-7 -46,-25 -60,-53 -11,-22 -16,-43 -16,-65 1,-22 7,-43 17,-63 11,-20 26,-39 45,-56 20,-17 42,-33 69,-46 79,-41 148,-54 208,-41 60,13 107,52 141,118l127 249 217 -112 -138 -270 -84 43c-23,12 -42,13 -57,5 -16,-9 -30,-27 -44,-53 -5,-11 -10,-24 -15,-40 -5,-16 -8,-29 -9,-40l433 -221c39,-20 72,-5 98,46 6,10 11,24 16,41 5,18 8,31 8,42l-138 71zm417 -213l386 753c-10,9 -21,18 -34,28 -13,11 -29,21 -49,31 -46,23 -80,32 -104,26 -24,-6 -45,-26 -62,-59l-344 -673 -95 48c-22,12 -41,13 -57,4 -15,-8 -30,-26 -43,-52 -6,-11 -11,-24 -16,-40 -5,-16 -8,-29 -8,-40l442 -226c40,-20 73,-5 99,45 5,11 11,25 16,42 5,17 7,31 7,42l-138 71zm1081 -348l232 814c-10,6 -22,13 -37,20 -15,8 -33,15 -54,21 -49,14 -85,16 -108,5 -22,-11 -38,-34 -48,-70l-59 -205c-22,22 -48,42 -77,59 -29,17 -62,30 -99,41 -103,29 -192,23 -268,-17 -75,-41 -128,-117 -160,-228l-65 -229 -77 22c-25,7 -43,5 -57,-7 -13,-11 -24,-31 -32,-60 -4,-11 -6,-25 -8,-42 -2,-16 -2,-30 -1,-41l972 -276c43,-13 73,9 88,63 4,12 6,27 9,44 2,18 2,32 -1,43l-150 43zm-250 492c27,-8 51,-20 73,-35 22,-16 38,-33 47,-50l-356 -145 29 103c18,63 44,104 77,122 34,18 77,20 130,5zm89 -213l-61 -216 -281 80 342 136zm614 -408l231 814c-10,6 -23,13 -38,21 -15,8 -33,14 -54,20 -49,14 -85,16 -107,5 -23,-10 -39,-33 -49,-69l-207 -728 -103 30c-24,7 -43,4 -56,-7 -14,-12 -25,-32 -33,-60 -3,-12 -6,-26 -7,-42 -2,-17 -2,-30 -1,-41l478 -136c43,-12 73,9 88,64 3,11 6,26 8,44 1,17 1,32 -2,43l-148 42zm1716 -113l22 846c-11,4 -25,7 -41,11 -17,4 -37,6 -58,6 -51,2 -85,-6 -104,-22 -19,-15 -29,-42 -30,-79l-8 -282c-17,4 -35,7 -54,9 -18,3 -37,5 -57,5 -38,1 -80,-3 -127,-12 -46,-9 -87,-25 -122,-47 -20,13 -41,23 -63,32 -23,9 -48,15 -74,19 36,57 81,106 135,145 55,40 109,70 162,90 1,42 -10,78 -34,109 -24,30 -61,46 -111,48 -33,1 -67,-7 -100,-22 -34,-16 -66,-40 -97,-72 -31,-32 -60,-71 -87,-119 -27,-47 -50,-102 -68,-164 -35,-3 -60,-14 -74,-33 -15,-19 -23,-42 -23,-71 -1,-18 2,-36 8,-53 6,-17 14,-32 25,-44 14,2 32,4 54,6 21,1 43,1 64,0 60,-1 105,-16 133,-44 28,-28 42,-64 41,-108 -1,-25 -5,-49 -14,-71 -8,-22 -18,-43 -31,-64l-321 9c-25,0 -43,-7 -53,-21 -11,-15 -16,-37 -17,-66 0,-12 1,-27 3,-43 2,-17 6,-30 10,-40l1211 -31c45,-2 68,26 70,83 0,12 -1,27 -4,45 -3,17 -6,31 -10,41l-156 4zm-373 308c56,-1 106,-13 149,-35l-7 -267 -267 7c12,25 23,51 33,79 9,29 14,60 15,94 1,39 -5,77 -20,115 31,6 63,8 97,7zm1526 -174l-106 839c-12,2 -27,4 -43,5 -17,1 -36,0 -58,-2 -51,-7 -85,-19 -101,-38 -16,-19 -22,-46 -18,-83l34 -269 -273 -34c-34,89 -100,128 -200,115 -61,-8 -104,-28 -130,-60 -25,-33 -36,-69 -30,-109 4,-35 18,-67 41,-96l39 5c23,3 42,-2 57,-14 15,-12 24,-31 27,-56l37 -295 -169 -21c-25,-3 -42,-13 -50,-29 -8,-15 -10,-38 -6,-67 1,-12 5,-26 9,-42 5,-16 10,-29 16,-38l1048 132c44,6 63,37 56,93 -1,12 -5,27 -10,44 -5,17 -10,30 -17,39l-153 -19zm-531 239l262 33 38 -301 -262 -33 -38 301zm1762 126l-273 802c-12,-1 -26,-2 -43,-5 -17,-2 -36,-7 -57,-14 -47,-16 -77,-35 -90,-57 -13,-21 -14,-50 -2,-85l37 -109c-35,7 -74,8 -116,5 -42,-4 -88,-13 -137,-30 -89,-30 -160,-74 -214,-132 -53,-57 -87,-122 -101,-192 -7,-31 -11,-63 -11,-95 0,-33 5,-61 13,-85 5,-14 12,-25 23,-32 10,-7 26,-7 47,-2 46,9 88,15 128,18 39,2 75,0 106,-6 32,-6 58,-17 80,-33 22,-16 37,-38 47,-66 9,-27 9,-50 1,-69 -9,-18 -23,-31 -43,-37 -21,-8 -39,-7 -56,2 -17,9 -29,25 -38,49 -5,14 -7,27 -7,38 -1,11 0,21 2,29 -13,8 -30,13 -51,13 -21,0 -44,-3 -67,-11 -17,-6 -32,-14 -45,-24 -13,-11 -24,-23 -32,-38 -9,-15 -13,-33 -14,-52 -1,-20 3,-42 11,-66 10,-28 25,-53 46,-74 22,-22 47,-38 78,-49 30,-11 65,-17 105,-17 40,1 82,9 128,24 46,16 86,37 117,62 32,26 56,55 72,87 16,32 25,67 26,104 2,37 -4,74 -17,112 -15,43 -36,78 -64,105 -29,27 -62,49 -99,64 -38,16 -80,25 -125,28 -46,3 -92,1 -139,-6 4,36 21,71 51,105 31,34 74,61 130,80 44,15 86,21 126,19 41,-3 77,-11 107,-26l173 -510c6,-17 17,-30 31,-38 14,-8 29,-9 46,-3l264 90c42,14 54,48 36,102 -4,11 -10,25 -19,40 -9,16 -17,28 -24,36l-147 -51zm-163 -225c-21,-37 -33,-78 -36,-123 -3,-45 2,-88 16,-128 12,-35 29,-65 50,-90 22,-25 48,-44 78,-57 30,-13 62,-20 97,-21 35,-1 72,6 111,19 64,22 103,47 119,77 16,30 19,60 8,91 -11,31 -27,52 -48,63 -10,-8 -20,-14 -31,-20 -10,-6 -23,-12 -37,-17 -32,-11 -64,-9 -94,4 -30,13 -51,40 -65,79 -11,32 -14,64 -9,96 5,32 13,61 24,90l-183 -63zm1105 664l-72 141c28,-2 58,0 90,6 32,6 66,19 103,38 38,19 71,44 98,74 27,29 47,63 59,99 13,37 18,76 15,118 -3,42 -16,85 -39,130 -22,44 -49,79 -81,106 -31,27 -65,46 -100,57 -35,11 -71,15 -107,11 -37,-4 -72,-15 -105,-32 -86,-43 -112,-98 -78,-165 7,-13 16,-25 25,-35 10,-9 21,-18 31,-24 12,9 25,18 41,26 29,15 59,18 89,10 30,-8 55,-30 74,-67 17,-34 20,-67 8,-98 -11,-31 -36,-56 -73,-75 -24,-12 -48,-19 -71,-20 -23,0 -44,3 -65,9l-227 445c-11,-2 -25,-6 -41,-11 -17,-4 -35,-12 -55,-22 -44,-23 -72,-46 -81,-69 -10,-23 -6,-51 11,-85l38 -74c-28,3 -59,1 -92,-6 -33,-6 -68,-19 -105,-38 -37,-18 -69,-43 -97,-72 -27,-29 -48,-62 -61,-99 -14,-37 -20,-77 -17,-120 2,-43 15,-88 39,-135 22,-44 49,-79 81,-105 32,-26 65,-44 101,-55 35,-10 71,-13 108,-9 38,5 73,15 107,33 48,24 78,51 91,81 13,30 12,61 -4,92 -15,28 -34,48 -59,60 -5,-5 -11,-11 -18,-16 -6,-6 -16,-12 -30,-19 -31,-16 -62,-20 -93,-13 -31,8 -55,30 -74,66 -17,34 -20,67 -8,99 12,31 37,57 74,76 27,14 53,21 77,22 24,0 46,-3 66,-10l220 -431 -500 -255c-23,-12 -35,-26 -37,-44 -2,-17 4,-39 17,-66 6,-10 13,-22 23,-36 10,-13 19,-23 28,-30l1239 632c39,20 45,55 19,106 -5,11 -13,23 -23,38 -11,14 -21,24 -30,31l-529 -270z"/>
  <path class="fil17" d="M4364 15092c-20,-5 -40,-15 -61,-30 -40,-30 -47,-63 -20,-101 26,-35 56,-62 89,-81 -5,-12 -12,-24 -21,-36 -9,-11 -20,-22 -33,-31 -35,-26 -70,-34 -106,-26 -35,8 -65,28 -89,61 -17,24 -28,48 -32,73 -3,24 -2,48 4,71 5,23 15,45 29,65 14,20 30,39 48,55 -2,4 -4,8 -6,11 -2,3 -4,6 -7,10 -13,18 -30,30 -50,34 -20,5 -43,-2 -68,-20 -22,-16 -40,-35 -57,-60 -16,-24 -28,-51 -36,-82 -7,-30 -10,-62 -7,-96 3,-34 12,-68 30,-101 -22,-11 -42,-23 -62,-37 -61,-45 -98,-98 -109,-160 -11,-62 9,-129 60,-200l117 -161 -55 -40c-14,-10 -20,-21 -21,-32 0,-11 6,-25 18,-41 4,-6 10,-13 18,-20 7,-8 14,-14 20,-18l1066 774c24,18 26,42 4,72 -5,6 -11,13 -19,21 -8,7 -15,13 -21,17l-104 -75 -396 546c-7,-3 -15,-6 -25,-11 -9,-5 -20,-11 -31,-19 -25,-18 -39,-35 -43,-51 -4,-16 1,-33 15,-52l210 -289c-6,-8 -13,-15 -22,-21 -36,-26 -72,-33 -109,-22 -37,11 -76,46 -118,103zm-269 -756l-112 155c-33,46 -47,84 -41,115 6,31 28,60 65,87 5,4 11,8 16,11 5,4 11,7 16,9 25,-22 51,-39 79,-51 29,-11 57,-17 85,-17 29,-1 56,4 84,12 27,9 52,22 76,40 31,22 54,46 71,72 17,26 29,53 37,79 28,-2 57,1 85,8 29,8 56,22 83,41 16,11 30,24 43,39l83 -114 -670 -486zm730 414c7,-31 9,-64 6,-98 -3,-34 -10,-68 -19,-100 -10,-32 -22,-62 -37,-90 -14,-28 -29,-52 -45,-71 2,-3 3,-6 5,-9 2,-2 4,-5 7,-9 14,-20 32,-33 54,-39 21,-7 43,-2 65,15 24,17 43,43 58,78 15,35 26,74 32,119 6,44 7,90 4,139 -4,49 -13,96 -27,140l-103 -75zm385 328l-303 602c-7,-2 -16,-4 -26,-7 -10,-2 -22,-7 -34,-13 -28,-14 -45,-29 -52,-44 -6,-15 -4,-33 7,-54l277 -550 -85 -43c-16,-8 -24,-17 -26,-28 -2,-12 2,-26 10,-43 4,-7 9,-15 15,-24 6,-8 12,-15 17,-20l110 55c-1,-13 1,-29 6,-47 4,-19 11,-36 19,-54 34,-66 86,-105 158,-117 72,-13 155,5 249,52 62,31 115,67 159,107 45,40 80,80 106,119 27,38 44,74 53,106 9,32 10,55 2,70 -8,16 -21,26 -41,29 -19,3 -41,-2 -65,-14 -18,-63 -47,-120 -88,-173 -41,-52 -97,-96 -168,-131 -56,-29 -104,-39 -145,-32 -42,6 -72,30 -93,71 -7,13 -12,27 -16,41 -4,15 -5,28 -5,39l90 45c27,14 32,37 16,70 -4,7 -9,15 -16,24 -6,9 -13,16 -18,21l-113 -57zm601 302l-88 175c-9,18 -19,28 -32,32 -13,3 -29,0 -48,-10l-131 -65c-46,-24 -89,-31 -127,-22 -38,10 -68,36 -90,79 -12,24 -18,47 -18,69 1,22 6,42 16,62 10,19 24,37 42,53 18,16 39,30 61,41 34,17 67,27 99,30 31,3 61,1 89,-6 11,13 18,27 20,43 3,16 1,32 -7,47 -7,13 -18,24 -34,31 -16,7 -35,10 -58,10 -23,0 -49,-4 -78,-11 -29,-8 -59,-19 -91,-35 -43,-22 -81,-47 -112,-76 -32,-30 -56,-61 -73,-96 -17,-34 -25,-71 -24,-110 1,-39 11,-79 32,-120 18,-35 40,-64 67,-88 27,-23 57,-40 91,-49 33,-10 70,-12 109,-8 39,5 80,18 122,39l73 37 59 -118 -381 -191c-27,-14 -32,-38 -15,-72 4,-7 8,-14 15,-23 6,-9 12,-15 18,-20l620 311c15,8 23,18 25,29 2,11 -1,25 -10,42 -3,7 -8,15 -14,24 -7,9 -13,16 -18,20l-109 -54zm603 229l-253 625c-6,-1 -15,-2 -26,-4 -10,-2 -22,-6 -34,-11 -29,-12 -48,-25 -55,-39 -7,-14 -7,-33 2,-54l109 -270 -193 -77c-15,-6 -28,-7 -39,-3 -11,4 -20,15 -28,33l-22 54c-11,1 -22,1 -33,0 -11,-1 -22,-3 -33,-8 -27,-11 -46,-30 -59,-57 -13,-28 -11,-60 4,-99 15,-37 38,-60 69,-71 32,-11 68,-8 108,9l271 109 77 -192 -441 -178c-28,-11 -35,-34 -21,-70 3,-7 7,-15 13,-24 5,-9 11,-16 17,-21l694 281c28,11 36,34 22,68 -3,7 -8,16 -14,25 -6,9 -11,17 -16,22l-119 -48zm842 205l-154 657c-7,0 -16,0 -27,0 -10,-1 -22,-2 -36,-5 -30,-8 -50,-18 -60,-31 -10,-13 -12,-31 -7,-54l54 -229 -235 -54c-14,31 -33,53 -57,66 -24,13 -54,16 -90,7 -41,-9 -68,-26 -83,-49 -15,-24 -19,-49 -13,-76 3,-12 7,-23 13,-33 6,-11 13,-21 21,-29l35 8c16,4 30,2 41,-6 12,-7 19,-19 23,-37l60 -255 -139 -33c-17,-3 -27,-11 -32,-21 -4,-11 -4,-26 0,-45 2,-7 5,-16 9,-26 4,-9 8,-17 12,-23l779 182c29,7 40,28 31,65 -1,7 -4,16 -8,26 -5,10 -9,19 -14,24l-123 -29zm-432 170l228 54 60 -257 -228 -54 -60 257zm1849 -29l-23 674c-6,1 -15,3 -26,5 -10,1 -22,2 -36,2 -31,-1 -53,-7 -65,-18 -12,-11 -17,-29 -16,-52l4 -131c-23,18 -50,31 -80,39 -30,9 -64,12 -103,11 -62,-2 -117,-17 -163,-45 -47,-27 -83,-62 -108,-105 -15,-24 -27,-50 -34,-78 -8,-27 -11,-50 -11,-70 1,-11 3,-20 8,-27 4,-8 12,-12 24,-13 54,-3 93,-13 117,-31 25,-18 38,-44 39,-76 1,-23 -4,-44 -16,-61 -11,-17 -27,-31 -46,-42l-161 -6c-31,-1 -45,-20 -44,-58 0,-8 1,-17 3,-27 3,-11 5,-20 9,-26l823 28c17,0 29,5 35,15 7,9 10,24 9,42 0,8 -1,17 -3,28 -2,11 -5,20 -8,26l-128 -4zm-325 409c37,1 71,-5 99,-18 28,-13 51,-28 69,-46l12 -350 -231 -8c15,14 28,31 39,52 11,21 16,44 15,69 0,26 -6,49 -16,69 -10,19 -23,36 -40,50 -17,15 -37,26 -60,34 -22,8 -47,14 -73,17 10,35 31,65 61,90 31,25 72,39 125,41zm671 -397l-23 674c-7,1 -16,3 -27,4 -10,2 -22,3 -36,2 -32,-1 -53,-7 -65,-18 -12,-11 -17,-28 -17,-52l21 -615 -95 -4c-17,0 -28,-5 -35,-15 -6,-9 -9,-24 -8,-43 0,-8 1,-17 3,-27 2,-11 5,-19 7,-26l135 5c-14,-29 -31,-55 -53,-80 -21,-24 -45,-46 -70,-66 -25,-20 -51,-37 -77,-51 -26,-14 -50,-24 -73,-31 -1,-3 -1,-7 -1,-10 0,-3 0,-7 0,-11 1,-25 9,-46 23,-63 14,-17 35,-26 63,-25 28,1 57,12 89,31 31,19 61,44 90,76 28,31 55,67 79,108 25,40 44,82 57,126l108 4c31,1 45,20 44,57 0,8 -2,17 -4,28 -3,11 -5,19 -8,26l-127 -4zm680 -75l51 672c-6,2 -15,5 -25,8 -11,3 -23,5 -36,6 -31,2 -54,-2 -67,-11 -13,-10 -21,-26 -23,-50l-47 -614 -218 16c21,28 38,60 54,97 15,38 24,78 27,122 3,41 1,79 -8,111 -8,33 -21,61 -39,84 -17,23 -38,41 -63,54 -26,13 -53,20 -83,23 -32,2 -57,-3 -76,-15 -20,-13 -30,-31 -32,-56 -1,-20 1,-39 8,-58 13,2 25,2 35,1 35,-2 63,-17 82,-44 20,-27 27,-68 23,-125 -3,-37 -11,-71 -25,-102 -15,-31 -31,-58 -50,-80l-139 10c-30,2 -47,-15 -50,-53 0,-8 0,-17 1,-28 1,-10 3,-19 5,-26l776 -59c31,-2 47,15 50,52 1,8 1,17 0,28 -1,11 -3,20 -6,27l-125 10zm757 -164l38 166c5,19 3,34 -4,45 -7,11 -21,19 -42,23l-145 34c-48,11 -84,32 -110,62 -25,31 -32,70 -22,116 6,24 15,43 27,60 13,17 27,30 44,39 17,10 36,16 56,18 21,2 42,1 63,-4 30,-7 51,-17 63,-30 12,-13 15,-32 10,-56 -2,-10 -6,-20 -10,-30 -5,-10 -9,-20 -14,-28 5,-11 14,-21 26,-29 13,-8 27,-15 44,-18 13,-4 26,-4 40,-3 14,2 27,6 39,13 12,7 22,16 31,28 9,12 15,27 19,45 6,24 6,46 -1,67 -6,21 -16,39 -28,54 25,27 50,51 75,72 25,21 48,38 68,52 2,23 -3,42 -16,59 -13,17 -30,28 -54,33 -26,6 -49,2 -69,-11 -20,-13 -38,-34 -54,-63l-43 -76c-11,7 -24,14 -39,20 -15,7 -34,14 -58,19 -41,10 -82,13 -121,10 -39,-3 -75,-13 -109,-29 -33,-15 -61,-38 -85,-68 -24,-30 -41,-68 -51,-112 -9,-36 -10,-71 -6,-105 5,-34 17,-66 36,-94 19,-28 45,-53 78,-74 33,-22 73,-38 122,-49l83 -19 -24 -104 -425 98c-30,7 -49,-8 -57,-45 -2,-8 -3,-17 -4,-28 -1,-10 0,-19 1,-27l711 -164c29,-6 48,8 57,45 1,7 2,16 3,27 0,12 0,21 -1,28l-142 33zm349 -81l152 657c-7,3 -15,7 -25,12 -9,4 -21,8 -35,11 -30,7 -53,7 -67,-1 -14,-7 -24,-23 -29,-46l-139 -600 -92 21c-17,4 -30,2 -38,-5 -9,-8 -15,-21 -20,-40 -1,-7 -3,-16 -3,-27 -1,-11 -1,-20 0,-27l361 -83c29,-7 48,8 57,44 1,8 2,17 3,28 0,11 0,20 -1,28l-124 28zm581 -226l250 626c-6,4 -13,9 -22,15 -9,6 -20,11 -33,16 -29,12 -51,15 -66,10 -16,-5 -28,-19 -36,-41l-108 -270 -193 77c-15,6 -25,15 -30,25 -5,11 -4,25 3,43l21 55c-7,8 -15,16 -24,23 -8,7 -18,13 -29,17 -27,11 -54,10 -82,-1 -28,-11 -50,-36 -65,-74 -15,-37 -15,-70 0,-99 16,-29 44,-52 84,-69l271 -107 -76 -192 -442 176c-28,11 -49,-1 -63,-37 -3,-7 -6,-15 -8,-26 -2,-10 -3,-19 -3,-27l696 -277c29,-11 50,0 63,35 3,7 6,16 8,27 2,11 3,20 3,27l-119 48zm698 -322l66 134c11,-21 26,-40 44,-58 19,-19 43,-35 73,-50 30,-15 61,-24 91,-26 31,-3 60,0 88,8 28,9 54,24 77,44 23,21 43,47 59,80 17,33 26,66 27,97 2,31 -2,60 -11,86 -10,27 -25,50 -44,71 -20,21 -43,38 -68,51 -60,30 -101,23 -122,-20 -5,-9 -8,-18 -9,-27 -2,-10 -2,-18 -1,-25 6,-1 12,-3 19,-6 7,-3 14,-6 20,-9 29,-14 49,-35 60,-62 11,-26 8,-57 -8,-91 -15,-30 -37,-50 -66,-59 -28,-9 -59,-5 -93,12 -22,11 -39,25 -52,42 -13,18 -22,36 -28,55l177 357c-6,5 -13,10 -22,17 -8,6 -18,12 -30,18 -29,15 -51,20 -67,16 -15,-4 -28,-17 -39,-38l-42 -85c-11,20 -26,39 -45,58 -19,18 -44,35 -75,51 -28,13 -57,22 -88,26 -31,4 -60,2 -89,-6 -28,-8 -55,-23 -80,-43 -26,-21 -47,-49 -65,-84 -16,-33 -24,-64 -26,-95 -1,-30 3,-59 13,-85 10,-26 25,-50 45,-71 20,-21 43,-38 69,-51 37,-18 66,-25 89,-20 22,4 38,16 48,36 9,19 12,37 8,55 -9,2 -17,4 -25,6 -7,1 -16,5 -27,10 -30,15 -51,36 -62,63 -12,27 -9,56 7,89 15,31 38,51 67,59 29,9 61,5 95,-12 26,-13 46,-29 59,-48 13,-18 21,-36 25,-54l-174 -351 -400 198c-27,13 -49,3 -66,-31 -3,-7 -7,-16 -10,-26 -3,-10 -5,-19 -5,-27l943 -466c28,-13 50,-4 66,30 3,7 7,15 10,26 3,10 5,20 5,27l-411 204zm946 -608l388 552c-5,5 -12,12 -19,20 -7,8 -17,16 -28,23 -25,18 -46,27 -62,25 -16,-2 -31,-12 -45,-31l-198 -282c-19,7 -37,16 -54,24 -18,9 -35,20 -52,32 -43,30 -71,65 -85,105 -13,40 -4,82 28,127 26,37 58,64 95,81 38,16 76,27 114,33 5,18 5,35 0,52 -5,17 -17,32 -35,44 -17,12 -38,18 -64,17 -26,-1 -53,-7 -82,-18 -28,-12 -56,-29 -84,-50 -28,-22 -52,-48 -73,-78 -26,-36 -42,-73 -50,-108 -8,-36 -7,-71 1,-105 9,-34 25,-67 49,-97 24,-31 54,-60 92,-86 21,-15 43,-29 66,-41 23,-13 44,-23 64,-32l-86 -122 -415 292c-14,9 -26,12 -37,9 -11,-4 -22,-14 -33,-30 -4,-6 -9,-14 -14,-23 -4,-10 -8,-18 -9,-25l639 -450c25,-18 48,-12 69,19 5,6 9,14 14,24 4,11 8,19 9,26l-103 73zm282 -198l388 551c-5,6 -11,12 -19,20 -7,8 -16,16 -28,24 -25,18 -46,26 -62,24 -16,-1 -31,-12 -45,-31l-354 -504 -78 55c-14,10 -26,13 -37,9 -11,-4 -22,-13 -33,-29 -5,-6 -9,-14 -14,-24 -5,-10 -8,-18 -10,-25l109 -77c-29,-4 -57,-14 -85,-31 -27,-16 -51,-38 -70,-66 -31,-43 -41,-88 -32,-136 10,-48 39,-88 87,-122 37,-26 66,-38 88,-35 23,2 40,12 53,30 11,16 16,33 15,50 -9,2 -18,5 -26,9 -9,4 -18,9 -28,16 -20,15 -34,35 -39,59 -6,25 0,51 18,77 15,20 33,36 54,49 22,12 45,21 70,27l89 -63c25,-17 48,-11 69,19 5,7 9,15 14,25 4,10 8,19 9,26l-103 73z"/>
  <path class="fil18" d="M4364 15037c-20,-5 -40,-15 -61,-30 -40,-30 -47,-63 -20,-101 26,-35 56,-62 89,-81 -5,-12 -12,-24 -21,-35 -9,-12 -20,-23 -33,-32 -35,-26 -70,-34 -106,-26 -35,8 -65,28 -89,61 -17,24 -28,48 -32,73 -3,24 -2,48 4,71 5,23 15,45 29,65 14,21 30,39 48,55 -2,4 -4,8 -6,11 -2,3 -4,6 -7,10 -13,18 -30,30 -50,34 -20,5 -43,-2 -68,-20 -22,-15 -40,-35 -57,-60 -16,-24 -28,-51 -36,-81 -7,-31 -10,-63 -7,-97 3,-34 12,-68 30,-101 -22,-11 -42,-23 -62,-37 -61,-44 -98,-98 -109,-160 -11,-62 9,-128 60,-200l117 -161 -55 -40c-14,-10 -20,-20 -21,-32 0,-11 6,-25 18,-41 4,-6 10,-13 18,-20 7,-8 14,-14 20,-18l1066 774c24,18 26,42 4,72 -5,6 -11,13 -19,21 -8,8 -15,13 -21,17l-104 -75 -396 546c-7,-3 -15,-6 -25,-11 -9,-4 -20,-11 -31,-19 -25,-18 -39,-35 -43,-51 -4,-16 1,-33 15,-52l210 -289c-6,-8 -13,-15 -22,-21 -36,-26 -72,-33 -109,-22 -37,11 -76,46 -118,103zm-269 -756l-112 155c-33,46 -47,84 -41,115 6,31 28,60 65,87 5,4 11,8 16,11 5,4 11,7 16,9 25,-22 51,-39 79,-51 29,-11 57,-17 85,-17 29,-1 56,4 84,12 27,9 52,22 76,40 31,22 54,46 71,72 17,26 29,53 37,79 28,-2 57,1 85,8 29,8 56,22 83,41 16,11 30,24 43,39l83 -114 -670 -486zm730 414c7,-31 9,-64 6,-98 -3,-34 -10,-68 -19,-100 -10,-32 -22,-62 -37,-90 -14,-28 -29,-52 -45,-71 2,-3 3,-6 5,-8 2,-3 4,-6 7,-10 14,-19 32,-33 54,-39 21,-6 43,-2 65,15 24,17 43,43 58,78 15,35 26,75 32,119 6,44 7,90 4,139 -4,49 -13,96 -27,140l-103 -75zm385 328l-303 602c-7,-2 -16,-4 -26,-6 -10,-3 -22,-8 -34,-14 -28,-14 -45,-29 -52,-44 -6,-15 -4,-33 7,-54l277 -550 -85 -43c-16,-7 -24,-17 -26,-28 -2,-12 2,-26 10,-43 4,-7 9,-15 15,-24 6,-8 12,-15 17,-20l110 55c-1,-13 1,-29 6,-47 4,-18 11,-36 19,-54 34,-66 86,-105 158,-117 72,-13 155,5 249,52 62,32 115,67 159,107 45,40 80,80 106,119 27,38 44,74 53,106 9,32 10,55 2,70 -8,16 -21,26 -41,29 -19,3 -41,-2 -65,-14 -18,-63 -47,-120 -88,-173 -41,-52 -97,-96 -168,-131 -56,-28 -104,-39 -145,-32 -42,6 -72,30 -93,71 -7,13 -12,27 -16,41 -4,15 -5,28 -5,39l90 45c27,14 32,37 16,71 -4,6 -9,14 -16,23 -6,9 -13,16 -18,21l-113 -57zm601 302l-88 175c-9,18 -19,28 -32,32 -13,3 -29,0 -48,-10l-131 -65c-46,-23 -89,-31 -127,-22 -38,10 -68,36 -90,79 -12,24 -18,47 -18,69 1,22 6,42 16,62 10,19 24,37 42,53 18,16 39,30 61,41 34,17 67,27 99,30 31,3 61,1 89,-6 11,13 18,27 20,43 3,16 1,32 -7,47 -7,13 -18,24 -34,31 -16,7 -35,11 -58,10 -23,0 -49,-4 -78,-11 -29,-8 -59,-19 -91,-35 -43,-22 -81,-47 -112,-76 -32,-30 -56,-61 -73,-96 -17,-34 -25,-71 -24,-110 1,-39 11,-79 32,-120 18,-35 40,-64 67,-88 27,-23 57,-39 91,-49 33,-10 70,-12 109,-7 39,4 80,17 122,38l73 37 59 -118 -381 -191c-27,-14 -32,-38 -15,-72 4,-7 8,-14 15,-23 6,-9 12,-15 18,-20l620 312c15,7 23,17 25,28 2,11 -1,25 -10,42 -3,7 -8,15 -14,24 -7,9 -13,16 -18,21l-109 -55zm603 229l-253 625c-6,-1 -15,-2 -26,-4 -10,-2 -22,-6 -34,-11 -29,-11 -48,-25 -55,-39 -7,-14 -7,-32 2,-54l109 -269 -193 -78c-15,-6 -28,-7 -39,-3 -11,4 -20,15 -28,33l-22 54c-11,1 -22,1 -33,0 -11,-1 -22,-3 -33,-8 -27,-11 -46,-30 -59,-57 -13,-28 -11,-60 4,-99 15,-37 38,-60 69,-71 32,-11 68,-8 108,9l271 109 77 -192 -441 -178c-28,-11 -35,-34 -21,-70 3,-7 7,-15 13,-24 5,-9 11,-16 17,-21l694 281c28,11 36,34 22,68 -3,7 -8,16 -14,25 -6,9 -11,17 -16,22l-119 -48zm842 205l-154 657c-7,0 -16,0 -27,0 -10,-1 -22,-2 -36,-5 -30,-8 -50,-18 -60,-31 -10,-13 -12,-31 -7,-54l54 -229 -235 -54c-14,31 -33,53 -57,66 -24,13 -54,16 -90,7 -41,-9 -68,-26 -83,-49 -15,-24 -19,-49 -13,-76 3,-12 7,-23 13,-33 6,-11 13,-21 21,-29l35 8c16,4 30,2 41,-6 12,-7 19,-19 23,-37l60 -255 -139 -33c-17,-3 -27,-11 -32,-21 -4,-11 -4,-26 0,-45 2,-7 5,-16 9,-25 4,-10 8,-18 12,-24l779 182c29,7 40,28 31,65 -1,7 -4,16 -8,26 -5,11 -9,19 -14,24l-123 -29zm-432 170l228 54 60 -257 -228 -53 -60 256zm1849 -29l-23 674c-6,1 -15,3 -26,5 -10,1 -22,2 -36,2 -31,-1 -53,-7 -65,-18 -12,-11 -17,-29 -16,-52l4 -131c-23,18 -50,31 -80,39 -30,9 -64,12 -103,11 -62,-2 -117,-17 -163,-44 -47,-28 -83,-63 -108,-106 -15,-24 -27,-50 -34,-77 -8,-28 -11,-51 -11,-71 1,-11 3,-20 8,-27 4,-8 12,-12 24,-13 54,-3 93,-13 117,-31 25,-18 38,-44 39,-76 1,-23 -4,-44 -16,-61 -11,-17 -27,-31 -46,-42l-161 -6c-31,-1 -45,-20 -44,-58 0,-8 1,-17 3,-27 3,-11 5,-20 9,-26l823 28c17,0 29,6 35,15 7,10 10,24 9,42 0,8 -1,17 -3,28 -2,11 -5,20 -8,26l-128 -4zm-325 409c37,1 71,-5 99,-18 28,-13 51,-28 69,-46l12 -350 -231 -8c15,14 28,32 39,52 11,21 16,44 15,69 0,26 -6,49 -16,69 -10,19 -23,36 -40,50 -17,15 -37,26 -60,34 -22,8 -47,14 -73,17 10,35 31,65 61,90 31,25 72,39 125,41zm671 -397l-23 674c-7,1 -16,3 -27,5 -10,1 -22,2 -36,1 -32,-1 -53,-7 -65,-18 -12,-11 -17,-28 -17,-52l21 -615 -95 -3c-17,-1 -28,-6 -35,-16 -6,-9 -9,-24 -8,-43 0,-8 1,-17 3,-27 2,-11 5,-19 7,-26l135 5c-14,-29 -31,-55 -53,-80 -21,-24 -45,-46 -70,-66 -25,-20 -51,-37 -77,-51 -26,-14 -50,-24 -73,-31 -1,-3 -1,-7 -1,-10 0,-3 0,-7 0,-11 1,-25 9,-46 23,-63 14,-17 35,-25 63,-24 28,0 57,11 89,30 31,19 61,44 90,76 28,31 55,67 79,108 25,40 44,82 57,126l108 4c31,1 45,20 44,57 0,8 -2,17 -4,28 -3,11 -5,19 -8,26l-127 -4zm680 -75l51 672c-6,2 -15,5 -25,8 -11,3 -23,5 -36,6 -31,2 -54,-2 -67,-11 -13,-10 -21,-26 -23,-50l-47 -614 -218 16c21,28 38,60 54,97 15,38 24,78 27,122 3,42 1,79 -8,111 -8,33 -21,61 -39,84 -17,23 -38,41 -63,54 -26,13 -53,20 -83,23 -32,2 -57,-3 -76,-15 -20,-13 -30,-31 -32,-56 -1,-20 1,-39 8,-58 13,2 25,2 35,2 35,-3 63,-18 82,-45 20,-27 27,-68 23,-125 -3,-37 -11,-71 -25,-102 -15,-31 -31,-58 -50,-80l-139 10c-30,3 -47,-15 -50,-53 0,-8 0,-17 1,-28 1,-10 3,-19 5,-26l776 -59c31,-2 47,15 50,52 1,8 1,17 0,28 -1,11 -3,20 -6,27l-125 10zm757 -164l38 167c5,18 3,33 -4,44 -7,11 -21,19 -42,24l-145 33c-48,11 -84,32 -110,62 -25,31 -32,70 -22,117 6,23 15,42 27,59 13,17 27,30 44,39 17,10 36,16 56,18 21,2 42,1 63,-4 30,-7 51,-17 63,-30 12,-13 15,-32 10,-56 -2,-10 -6,-20 -10,-30 -5,-10 -9,-20 -14,-28 5,-11 14,-20 26,-29 13,-8 27,-15 44,-18 13,-3 26,-4 40,-3 14,2 27,6 39,13 12,7 22,16 31,28 9,12 15,27 19,45 6,24 6,46 -1,67 -6,21 -16,39 -28,54 25,27 50,51 75,72 25,21 48,38 68,52 2,23 -3,42 -16,59 -13,17 -30,28 -54,33 -26,6 -49,3 -69,-11 -20,-13 -38,-34 -54,-63l-43 -76c-11,7 -24,14 -39,21 -15,6 -34,13 -58,18 -41,10 -82,13 -121,10 -39,-3 -75,-13 -109,-28 -33,-16 -61,-39 -85,-69 -24,-30 -41,-68 -51,-112 -9,-36 -10,-71 -6,-105 5,-34 17,-66 36,-94 19,-28 45,-53 78,-74 33,-22 73,-38 122,-49l83 -19 -24 -104 -425 98c-30,7 -49,-8 -57,-45 -2,-8 -3,-17 -4,-28 -1,-10 0,-19 1,-27l711 -163c29,-7 48,7 57,44 1,7 2,16 3,27 0,12 0,21 -1,28l-142 33zm349 -81l152 657c-7,3 -15,7 -25,12 -9,4 -21,8 -35,11 -30,7 -53,7 -67,-1 -14,-7 -24,-23 -29,-46l-139 -600 -92 22c-17,3 -30,1 -38,-6 -9,-8 -15,-21 -20,-40 -1,-7 -3,-16 -3,-27 -1,-11 -1,-19 0,-27l361 -83c29,-7 48,8 57,44 1,8 2,17 3,28 0,11 0,20 -1,28l-124 28zm581 -226l250 626c-6,4 -13,9 -22,15 -9,6 -20,11 -33,16 -29,12 -51,15 -66,10 -16,-5 -28,-19 -36,-41l-108 -270 -193 77c-15,6 -25,15 -30,25 -5,11 -4,25 3,43l21 55c-7,8 -15,16 -24,23 -8,7 -18,13 -29,17 -27,11 -54,10 -82,-1 -28,-11 -50,-36 -65,-74 -15,-37 -15,-70 0,-99 16,-29 44,-52 84,-68l271 -108 -76 -192 -442 176c-28,11 -49,-1 -63,-36 -3,-8 -6,-16 -8,-27 -2,-10 -3,-19 -3,-27l696 -277c29,-11 50,0 63,35 3,7 6,16 8,27 2,11 3,20 3,27l-119 48zm698 -322l66 134c11,-21 26,-40 44,-58 19,-19 43,-35 73,-50 30,-15 61,-24 91,-26 31,-3 60,0 88,8 28,9 54,24 77,44 23,21 43,48 59,80 17,33 26,66 27,97 2,31 -2,60 -11,86 -10,27 -25,50 -44,71 -20,22 -43,38 -68,51 -60,30 -101,23 -122,-20 -5,-9 -8,-18 -9,-27 -2,-10 -2,-18 -1,-25 6,-1 12,-3 19,-6 7,-3 14,-6 20,-9 29,-14 49,-35 60,-61 11,-27 8,-58 -8,-92 -15,-30 -37,-50 -66,-59 -28,-9 -59,-5 -93,12 -22,11 -39,25 -52,42 -13,18 -22,36 -28,55l177 357c-6,5 -13,10 -22,17 -8,6 -18,12 -30,18 -29,15 -51,20 -67,16 -15,-4 -28,-17 -39,-38l-42 -85c-11,20 -26,39 -45,58 -19,18 -44,35 -75,51 -28,13 -57,22 -88,26 -31,4 -60,2 -89,-6 -28,-8 -55,-23 -80,-43 -26,-21 -47,-49 -65,-84 -16,-33 -24,-64 -26,-95 -1,-30 3,-58 13,-85 10,-26 25,-50 45,-71 20,-21 43,-38 69,-51 37,-18 66,-25 89,-20 22,4 38,16 48,36 9,19 12,37 8,56 -9,1 -17,3 -25,5 -7,1 -16,5 -27,10 -30,15 -51,36 -62,63 -12,27 -9,56 7,89 15,31 38,51 67,59 29,9 61,5 95,-12 26,-13 46,-29 59,-48 13,-18 21,-36 25,-54l-174 -351 -400 198c-27,13 -49,3 -66,-31 -3,-7 -7,-16 -10,-26 -3,-10 -5,-19 -5,-26l943 -467c28,-13 50,-4 66,30 3,7 7,15 10,26 3,11 5,20 5,27l-411 204zm946 -608l388 552c-5,5 -12,12 -19,20 -7,8 -17,16 -28,23 -25,18 -46,27 -62,25 -16,-2 -31,-12 -45,-31l-198 -282c-19,7 -37,16 -54,24 -18,9 -35,20 -52,32 -43,30 -71,65 -85,105 -13,40 -4,82 28,127 26,37 58,64 95,81 38,16 76,27 114,34 5,17 5,34 0,51 -5,17 -17,32 -35,44 -17,13 -38,18 -64,17 -26,-1 -53,-7 -82,-18 -28,-12 -56,-29 -84,-50 -28,-22 -52,-48 -73,-78 -26,-36 -42,-73 -50,-108 -8,-36 -7,-71 1,-105 9,-34 25,-67 49,-97 24,-31 54,-60 92,-86 21,-15 43,-29 66,-41 23,-13 44,-23 64,-32l-86 -122 -415 292c-14,10 -26,13 -37,9 -11,-4 -22,-14 -33,-30 -4,-6 -9,-14 -14,-23 -4,-10 -8,-18 -9,-25l639 -450c25,-18 48,-12 69,19 5,6 9,14 14,25 4,10 8,18 9,25l-103 73zm282 -198l388 551c-5,6 -11,13 -19,20 -7,8 -16,16 -28,24 -25,18 -46,26 -62,24 -16,-1 -31,-12 -45,-31l-354 -504 -78 55c-14,10 -26,13 -37,9 -11,-4 -22,-13 -33,-29 -5,-6 -9,-14 -14,-24 -5,-10 -8,-18 -10,-25l109 -76c-29,-5 -57,-15 -85,-32 -27,-16 -51,-38 -70,-65 -31,-44 -41,-89 -32,-137 10,-47 39,-88 87,-122 37,-26 66,-38 88,-35 23,2 40,12 53,30 11,16 16,33 15,50 -9,2 -18,5 -26,9 -9,4 -18,9 -28,16 -20,15 -34,35 -39,59 -6,25 0,51 18,77 15,20 33,36 54,49 22,12 45,21 70,27l89 -63c25,-17 48,-11 69,19 5,7 9,15 14,25 4,10 8,19 9,26l-103 73z"/>
  <path class="fil3" d="M8665 3389c2914,0 5277,2362 5277,5276 0,2914 -2363,5276 -5277,5276 -2914,0 -5276,-2362 -5276,-5276 0,-2914 2362,-5276 5276,-5276z"/>
  <path class="fil19" d="M7683 3094l97 546c-6,2 -12,5 -20,8 -9,4 -18,6 -29,8 -26,5 -44,4 -55,-3 -12,-7 -19,-20 -23,-39l-33 -190 -182 32c-1,28 -9,51 -24,69 -15,18 -37,30 -66,35 -34,6 -60,2 -79,-11 -19,-13 -31,-31 -35,-54 -3,-18 -1,-37 6,-57l30 -5c13,-3 23,-9 29,-18 7,-9 8,-21 6,-36l-32 -177c-2,-14 -8,-23 -16,-28 -9,-5 -18,-6 -28,-4 -24,4 -36,17 -34,39 -7,3 -14,5 -20,6 -18,3 -33,2 -45,-5 -12,-8 -20,-20 -23,-38 -5,-28 3,-51 24,-71 20,-19 48,-32 82,-37 46,-9 86,-5 117,12 32,16 52,46 60,90l34 194 179 -32 -38 -213 -81 14c-25,4 -40,-9 -45,-40 -1,-6 -2,-13 -2,-22 0,-9 1,-16 2,-22l303 -54c25,-4 40,9 45,39 1,6 2,14 2,23 0,9 -1,17 -2,22l-104 19z"/>
  <path id="1" class="fil19" d="M7964 3044l97 546c-6,3 -13,6 -21,9 -8,3 -18,6 -29,8 -26,4 -44,3 -56,-4 -11,-7 -18,-20 -22,-39l-88 -499 -77 14c-14,2 -24,0 -31,-6 -7,-7 -12,-18 -14,-34 -1,-6 -2,-14 -2,-22 0,-9 0,-16 1,-22l300 -53c25,-5 40,8 45,38 1,6 2,14 2,23 -1,10 -1,17 -2,23l-103 18z"/>
  <path id="2" class="fil19" d="M8329 3014l16 555c-6,1 -14,3 -22,5 -8,2 -18,3 -30,3 -26,1 -44,-3 -54,-11 -11,-8 -16,-22 -16,-42l-15 -507 -78 3c-14,0 -24,-3 -30,-11 -5,-7 -9,-19 -9,-35 0,-6 0,-14 1,-23 1,-8 3,-15 5,-21l105 -3c-6,-10 -10,-22 -14,-37 -3,-15 -5,-30 -6,-46 -1,-29 5,-55 16,-80 11,-24 28,-46 50,-64 23,-19 52,-33 87,-44 35,-11 75,-17 121,-18 59,-2 114,4 165,16 51,13 95,28 132,46 37,18 67,37 88,56 22,19 33,35 33,47 0,16 -6,29 -19,39 -13,10 -29,15 -49,16 -20,-20 -42,-37 -67,-52 -25,-16 -53,-29 -82,-40 -30,-10 -61,-18 -93,-24 -32,-5 -65,-7 -98,-6 -53,1 -94,13 -121,35 -26,22 -39,51 -38,86 0,13 2,25 4,36 3,12 7,22 12,30l78 -2c25,-1 38,14 39,45 0,6 0,14 -2,23 -1,9 -3,17 -5,22l-104 3z"/>
  <path id="3" class="fil19" d="M8931 2998l16 555c-6,2 -13,3 -22,5 -8,2 -18,3 -29,4 -26,0 -44,-3 -55,-12 -11,-8 -16,-22 -17,-42l-4 -156c-17,11 -37,20 -59,27 -22,7 -46,11 -73,11 -64,2 -115,-14 -155,-49 -40,-35 -60,-88 -62,-161l-5 -168 -57 1c-14,1 -23,-3 -29,-10 -6,-8 -9,-20 -9,-36 -1,-6 0,-13 1,-22 1,-9 3,-16 5,-22l626 -18c25,0 38,15 39,45 0,7 0,14 -1,23 -1,9 -3,17 -6,22l-104 3zm-218 292c21,0 40,-4 59,-12 18,-7 33,-16 44,-27l-228 -170 2 90c2,46 13,78 33,95 21,18 51,26 90,24zm102 -118l-5 -170 -218 6 223 164z"/>
  <path id="4" class="fil19" d="M9826 3126l-97 547c-6,0 -13,1 -22,1 -9,0 -19,-1 -30,-3 -26,-4 -43,-12 -51,-22 -9,-11 -12,-26 -8,-45l89 -499 -126 -23c-4,39 -8,74 -12,107 -4,33 -10,67 -16,102 -6,32 -16,59 -30,81 -15,22 -33,40 -53,52 -21,13 -44,21 -71,24 -26,4 -54,3 -83,-3 -30,-5 -56,-14 -80,-25 -23,-12 -42,-28 -58,-46 -15,-19 -26,-41 -32,-67 -6,-27 -6,-56 0,-89 6,-35 13,-69 20,-101 7,-32 15,-67 24,-104l-62 -11c-14,-3 -23,-8 -27,-17 -4,-8 -5,-20 -2,-36 1,-6 3,-14 6,-22 3,-8 6,-15 9,-20l802 143c25,5 34,22 29,52 -1,6 -3,14 -6,22 -3,9 -6,16 -10,21l-103 -19zm-493 221c25,4 45,1 62,-12 17,-11 28,-32 33,-60l38 -213 -160 -28 -38 212c-5,29 -1,52 10,69 12,17 30,27 55,32z"/>
  <path id="5" class="fil19" d="M10107 3175l-98 547c-6,0 -13,0 -22,0 -9,1 -19,0 -30,-2 -25,-5 -42,-12 -51,-23 -8,-10 -11,-25 -7,-44l89 -499 -77 -14c-14,-2 -23,-8 -27,-16 -4,-9 -5,-21 -2,-37 1,-6 3,-13 6,-21 3,-9 6,-15 9,-20l107 19 5 -31c10,-53 9,-93 -3,-119 -11,-27 -31,-43 -59,-48 -21,-4 -40,0 -58,11 -17,12 -28,32 -33,61l-5 28c-6,1 -11,2 -17,3 -11,1 -23,1 -36,-1 -19,-4 -35,-11 -47,-23 -13,-11 -17,-29 -12,-53 4,-22 12,-43 25,-60 13,-18 29,-33 49,-44 19,-12 42,-19 67,-22 26,-4 53,-3 82,2 65,11 112,41 143,88 30,47 38,113 23,197l-6 32 75 13c25,4 34,22 29,52 -1,6 -4,13 -7,22 -3,9 -6,15 -9,21l-103 -19z"/>
  <path class="fil10" d="M12239 2213c23,0 48,2 73,7 32,6 66,19 103,38 38,19 71,44 98,74 27,30 47,63 59,99 12,35 17,72 15,111 -1,-27 -6,-52 -15,-77 -12,-36 -32,-70 -59,-99 -27,-30 -60,-55 -98,-74 -37,-19 -71,-32 -103,-38 -32,-6 -62,-8 -90,-6l17 -35zm-175 513c-4,-21 0,-45 13,-70 7,-13 16,-25 25,-35 10,-9 21,-17 31,-24 12,9 25,18 41,26 29,15 59,18 89,10 30,-7 55,-30 74,-67 7,-14 12,-28 14,-42 4,24 -1,50 -14,76 -19,37 -44,59 -74,67 -30,8 -60,4 -89,-10 -16,-8 -29,-17 -41,-26 -10,6 -21,15 -31,24 -9,10 -18,22 -25,35 -6,13 -10,25 -13,36zm-336 -12c-4,-21 0,-45 15,-74l20 -39c6,0 12,-1 18,-1l-38 74c-7,14 -12,28 -15,40zm-319 -448c-1,-11 -1,-23 0,-35 2,-43 15,-88 39,-135 22,-44 49,-79 81,-105 32,-26 65,-44 101,-55 35,-10 71,-13 108,-9 37,5 73,15 107,33 48,24 78,51 91,81 8,19 11,39 7,58 -1,-8 -3,-16 -7,-24 -13,-30 -43,-57 -91,-81 -34,-18 -70,-29 -107,-33 -37,-4 -73,-1 -108,9 -36,10 -69,29 -101,55 -32,26 -59,61 -81,105 -24,47 -37,91 -39,134l0 2zm235 21c1,8 3,15 6,23 12,31 37,57 74,76 27,14 53,21 77,22 24,0 46,-3 66,-10l206 -404 14 7 -220 431c-20,7 -42,10 -66,10 -24,-1 -50,-8 -77,-22 -37,-19 -62,-45 -74,-77 -7,-18 -9,-37 -6,-56zm-92 -610c-1,-3 -1,-6 -2,-9 -2,-17 4,-39 17,-65 6,-11 13,-23 23,-37 10,-13 19,-23 28,-30l1239 632c29,15 40,39 33,71 -5,-15 -16,-28 -33,-37l-1239 -632c-9,7 -18,17 -28,30 -10,14 -17,26 -23,36 -7,15 -12,29 -15,41zm-6238 288l372 727 -12 10 -373 -730 13 -7zm-221 659c0,10 0,20 -1,30 0,-9 -2,-18 -4,-28l5 -2zm-355 58c-1,-11 -1,-22 -1,-34l37 -19c20,-10 33,-24 38,-42l1 -2c3,13 3,24 -1,35 -5,18 -18,33 -38,43l-36 19zm-146 -332l1 2 -1 1 0 -3zm-183 -65c-1,-7 -2,-14 -1,-20 0,-22 6,-43 16,-63 11,-20 26,-39 45,-56 20,-18 42,-33 69,-46 79,-41 148,-54 208,-41 60,12 107,52 141,118l127 249 204 -105 13 27 -217 111 -127 -248c-34,-66 -81,-106 -141,-119 -60,-13 -129,1 -208,41 -27,14 -49,29 -69,47 -19,17 -34,36 -45,56 -8,15 -13,32 -15,49zm481 -295c-3,-12 -5,-22 -6,-31l408 -208 0 0 442 -226c40,-21 73,-5 99,45 5,11 11,25 16,42 5,17 7,31 7,42l-4 2 -3 -10c-5,-17 -11,-31 -16,-42 -26,-51 -59,-66 -99,-45l-442 226 0 0 -402 205zm842 -239l372 727 -12 11 -374 -731 14 -7zm1076 -343l223 783 -8 5 -224 -786 9 -2zm-927 87c-1,-13 -1,-25 0,-34l947 -270 478 -136c43,-12 72,9 88,63 3,12 6,27 7,44 1,14 1,25 0,35l0 -1c-1,-18 -4,-32 -7,-44 -16,-54 -45,-76 -88,-63l-478 136 -947 270 0 0zm1379 -216l223 783 -8 4 -224 -785 9 -2zm-711 590c27,-8 51,-19 73,-35 11,-8 20,-16 28,-24l19 7c-10,18 -25,35 -47,51 -22,15 -46,27 -73,35 -53,15 -96,13 -130,-5 -33,-18 -59,-59 -77,-122l-29 -102 11 4 18 64c18,63 44,104 77,122 34,19 77,20 130,5zm-204 -329l282 112 11 38 -342 -136 49 -14zm2624 -371l21 812 -1 0 -21 -812 1 0zm-697 482c32,44 70,83 115,115 55,40 109,70 162,90 0,12 -1,23 -2,33 -53,-20 -106,-50 -160,-89 -54,-40 -99,-88 -135,-145 7,-1 14,-2 20,-4zm-317 -106c0,-4 0,-8 -1,-13 0,-18 3,-36 9,-53 6,-17 14,-32 25,-44 14,2 32,4 53,6 22,1 43,1 65,0 60,-1 105,-16 133,-44 23,-24 37,-52 40,-87l1 13c1,44 -13,80 -41,108 -28,28 -73,43 -133,44 -22,1 -43,0 -65,-1 -21,-1 -39,-3 -53,-6 -11,13 -19,27 -25,45 -4,10 -6,21 -8,32zm-110 -457l-1 -12c0,-12 1,-27 3,-43 2,-17 6,-30 10,-40l1211 -31c45,-2 68,26 70,83 0,6 0,13 -1,21 -4,-48 -27,-72 -69,-71l-1211 32c-4,10 -8,23 -10,40 -1,7 -2,15 -2,21zm750 355c56,-1 105,-13 148,-34l1 33c-43,22 -93,34 -149,35 -34,1 -66,-1 -97,-7 4,-11 8,-22 11,-32 27,4 56,6 86,5zm-110 -262c6,15 12,31 18,46 9,29 14,60 15,94 0,8 0,16 0,24 -2,-30 -7,-58 -15,-84 -10,-28 -21,-54 -34,-79l16 -1zm1310 848c-2,-12 -2,-25 0,-39l30 -235 4 0 -34 269 0 5zm-600 -360c-1,-11 -1,-23 1,-36 4,-35 18,-66 41,-95l39 4c23,3 42,-1 57,-14 15,-12 24,-31 27,-56l33 -261 4 0 -37 295c-3,25 -12,43 -27,56 -15,12 -34,17 -57,14l-39 -5c-23,29 -37,61 -41,96l-1 2zm-24 -567c-1,-12 -1,-26 1,-42 1,-12 5,-26 9,-42 5,-16 10,-29 16,-38l1048 132c43,6 62,36 56,89 -4,-32 -23,-51 -56,-55l-1048 -132c-6,9 -11,22 -16,38 -4,16 -8,30 -9,42l-1 8zm423 406l258 33 34 -268 4 0 -38 301 -262 -33 4 -33zm1286 829c-3,-17 -1,-38 7,-62l25 -73 12 -2 -37 109c-3,10 -5,19 -7,28zm-535 -597l0 -18c0,-33 4,-61 12,-84 5,-15 13,-26 23,-32 11,-7 27,-8 48,-3 45,9 88,15 127,18 40,2 75,1 107,-6 31,-6 58,-17 80,-33 21,-16 37,-38 47,-66 2,-8 4,-14 5,-21 3,16 1,34 -5,54 -10,28 -26,50 -47,67 -22,16 -49,27 -80,33 -32,6 -67,8 -107,6 -39,-3 -82,-9 -127,-19 -21,-4 -37,-4 -48,3 -10,7 -18,18 -23,32 -6,20 -10,43 -12,69zm301 -219l1 7 -2 1 1 -8zm-206 -93c-1,-4 -1,-8 -1,-12 -1,-20 3,-42 11,-66 9,-28 25,-53 46,-74 21,-22 47,-38 77,-49 30,-11 66,-17 105,-17 40,1 83,9 128,24 47,16 86,37 118,62 31,26 55,55 72,87 16,32 25,67 26,104 0,9 0,18 0,27 -2,-34 -11,-67 -26,-97 -17,-32 -41,-61 -72,-87 -32,-26 -71,-46 -118,-62 -45,-16 -88,-24 -128,-24 -39,0 -75,5 -105,17 -30,11 -56,27 -77,49 -21,21 -37,46 -46,74 -5,15 -9,30 -10,44zm146 397c8,24 23,47 43,70 31,34 74,61 130,80 43,15 85,21 126,19 41,-3 76,-11 107,-26l173 -510c4,-11 9,-21 17,-28l7 13 18 6c-4,1 -8,3 -12,5 -14,8 -24,20 -30,38l-173 509c-31,15 -66,24 -107,26 -41,3 -83,-3 -126,-18 -56,-19 -99,-46 -130,-80 -30,-34 -48,-69 -52,-105l9 1zm566 -547c-2,-42 3,-82 16,-120 12,-35 29,-65 51,-90 22,-25 47,-44 77,-57 30,-13 62,-20 97,-21 35,-1 72,5 112,19 63,21 102,47 118,76 13,24 17,48 13,72 -2,-13 -6,-25 -13,-38 -16,-29 -55,-55 -118,-76 -40,-14 -77,-20 -112,-19 -35,1 -67,8 -97,21 -30,12 -55,31 -77,56 -22,25 -39,55 -51,91 -9,27 -15,56 -16,86zm194 91c1,4 1,8 2,13 4,27 10,53 19,77l138 47c36,12 50,38 43,77 -4,-20 -19,-35 -43,-43l-138 -47c-9,-24 -15,-50 -19,-78 -3,-15 -3,-30 -2,-46z"/>
  <path class="fil10" d="M5280 15605c2,14 7,27 13,40 10,19 24,37 42,53 18,16 39,30 61,41 34,17 67,27 99,30 31,3 61,1 89,-6 11,13 18,27 20,43 2,12 2,24 -2,36 -4,-12 -10,-23 -18,-33 -28,8 -58,10 -89,7 -32,-3 -65,-13 -99,-30 -22,-12 -43,-26 -61,-42 -18,-16 -32,-33 -42,-53 -10,-19 -15,-40 -16,-62 0,-7 1,-16 3,-24zm-152 -11c-1,-9 -1,-18 -1,-28 1,-39 11,-79 32,-120 18,-35 40,-64 67,-88 27,-23 57,-39 91,-49 33,-10 70,-12 109,-7 39,4 80,17 122,38l73 37 40 -81 19 9 -59 118 -73 -36c-42,-21 -83,-34 -122,-39 -39,-5 -76,-2 -109,7 -34,10 -64,27 -91,50 -27,23 -49,52 -67,87 -17,35 -28,69 -31,102zm-331 -29l-2 -4c-6,-15 -4,-33 7,-54l258 -513 19 9 -277 551c-2,4 -4,7 -5,11zm-404 -235c-3,-4 -4,-8 -5,-12 -4,-16 1,-33 15,-52l190 -262c8,6 15,12 20,19l-210 289c-4,6 -8,12 -10,18zm-121 -357c-9,-21 -6,-43 11,-67 21,-28 44,-51 69,-68 9,11 16,22 20,34 -33,18 -63,45 -89,81 -4,7 -8,13 -11,20zm-181 -56c1,7 2,13 4,20 5,23 15,45 29,65 14,21 30,39 48,55 -2,4 -4,8 -6,11 -2,3 -4,6 -7,10 -2,2 -4,5 -6,7 -10,-11 -20,-23 -29,-36 -14,-21 -24,-43 -29,-66 -6,-21 -7,-43 -4,-66zm-150 -14c-2,-16 -2,-32 0,-49 1,-21 6,-42 13,-63 6,3 11,6 17,8 -18,34 -27,68 -30,102l0 2zm-143 -358c-7,-59 14,-122 62,-189l95 -130 22 16 -117 161c-36,50 -56,97 -62,142zm111 -402c-5,-6 -7,-13 -8,-20 0,-11 6,-25 18,-41 4,-6 10,-13 18,-20 7,-8 14,-14 20,-18l872 633c1,-8 2,-16 3,-25 2,25 1,49 -3,72l-872 -633c-6,4 -13,10 -20,17 -8,8 -14,15 -18,21 -4,5 -7,10 -10,14zm838 215c-6,-8 -11,-15 -17,-22 2,-3 3,-6 5,-8 2,-3 4,-6 7,-10 14,-19 32,-33 54,-39 21,-6 43,-2 65,15 24,17 43,43 58,78 15,35 26,75 32,119 5,34 7,70 5,108 0,-21 -2,-42 -5,-62 -6,-44 -17,-84 -32,-119 -15,-35 -34,-61 -58,-78 -22,-16 -44,-21 -65,-15 -19,6 -36,17 -49,33zm196 402l61 45c2,-2 4,-4 6,-6l110 55c-1,-13 1,-29 6,-47 4,-18 11,-36 19,-54 34,-66 86,-105 158,-117 72,-13 155,5 249,52 62,32 115,67 159,107 45,40 80,80 106,119 27,38 44,74 53,106 8,28 10,50 5,65 -1,-6 -3,-12 -5,-19 -9,-32 -26,-67 -53,-106 -26,-39 -61,-78 -106,-118 -44,-40 -97,-76 -159,-107 -94,-47 -177,-65 -249,-53 -72,12 -124,51 -158,118 -8,17 -15,35 -19,53 -5,18 -7,34 -6,48l-110 -55c-2,1 -4,3 -6,5l-71 -51c4,-13 7,-26 10,-40zm314 163l60 30 24 12 1 1 496 249c3,-4 6,-7 9,-9l694 281c27,11 35,32 23,64 -4,-8 -12,-14 -23,-18l-694 -281c-3,3 -6,6 -9,10l-496 -250 -1 0 -24 -12 -66 -33c0,-12 1,-25 5,-39l1 -5zm789 1201c-7,-14 -7,-32 2,-53l93 -230 16 7 -109 269 -2 7zm-302 -399c-5,-24 -2,-50 10,-81 15,-37 38,-60 69,-71 32,-11 68,-8 108,9l271 109 61 -152 16 7 -77 192 -271 -110c-40,-16 -76,-19 -108,-8 -31,10 -54,34 -69,71 -5,12 -8,23 -10,34zm7590 -1456l366 520c-5,6 -11,13 -19,20l0 0 -369 -525 22 -15zm-282 198l366 521 -19 20 -369 -525 22 -16zm-180 496c4,22 15,45 31,68 26,37 58,64 95,81 38,16 76,27 114,34 5,16 5,32 1,48l-1 -2c-38,-6 -76,-17 -114,-34 -37,-16 -69,-43 -95,-81 -28,-40 -39,-78 -31,-114zm-152 14c-3,-27 -1,-53 5,-78 9,-34 25,-67 49,-97 24,-31 54,-60 92,-86 21,-15 43,-29 66,-41 14,-7 27,-14 39,-20l25 35c-20,8 -41,19 -64,31 -23,13 -45,27 -66,42 -38,26 -68,54 -92,85 -24,31 -40,63 -49,97 -2,11 -4,21 -5,32zm-618 104l48 97c11,-21 26,-40 44,-58 19,-19 43,-35 73,-50 30,-15 61,-24 91,-26 31,-3 60,0 88,8 28,9 54,24 77,44 23,21 43,48 59,80 17,33 26,66 27,97 1,13 1,25 0,37 -3,-28 -12,-57 -27,-87 -16,-33 -36,-60 -59,-80 -23,-21 -49,-35 -77,-44 -28,-9 -57,-12 -88,-9 -30,3 -61,12 -91,27 -30,15 -54,31 -73,49 -18,18 -33,38 -44,58l-66 -134 18 -9zm259 373c-3,-7 -5,-14 -6,-20 -2,-10 -2,-18 -1,-25 6,-1 12,-3 19,-6 7,-3 14,-6 20,-9 29,-14 49,-35 60,-61 2,-4 3,-8 4,-12 5,21 3,40 -4,58 -11,27 -31,47 -60,62 -6,3 -13,6 -20,9 -4,1 -8,3 -12,4zm-144 -142l166 336 -17 13 -160 -323c3,-9 6,-18 11,-26zm-501 184c0,-4 -1,-9 -1,-13 -1,-30 3,-58 13,-85 10,-26 25,-50 45,-71 20,-21 43,-38 69,-51 37,-18 66,-25 89,-20 22,4 38,16 48,36 9,19 12,37 8,56l-4 0c-1,-3 -2,-6 -4,-10 -10,-19 -26,-31 -48,-36 -23,-4 -52,3 -89,21 -26,13 -49,30 -69,51 -20,21 -35,45 -45,71 -6,16 -10,33 -12,51zm153 -12c2,10 6,20 11,31 15,31 38,51 67,59 29,9 61,5 95,-12 26,-13 46,-29 59,-48 6,-9 11,-18 15,-26l10 18c-4,18 -12,36 -25,55 -13,19 -33,34 -59,48 -34,16 -66,21 -95,12 -29,-9 -52,-29 -67,-60 -14,-27 -18,-53 -11,-77zm-467 -78l234 586 -15 10 -235 -590 16 -6zm-252 460l1 1 21 55c-4,4 -8,9 -13,13l-8 -21c-7,-18 -8,-32 -3,-43l2 -5zm-187 -7c-5,-26 -2,-49 9,-71 16,-29 44,-52 84,-68l255 -102 16 40 -271 108c-40,16 -68,39 -84,68 -4,8 -7,17 -9,25zm-147 -220l141 610 -10 5 -141 -611 3 -1 7 -3zm-350 78l28 123c4,16 4,29 -1,39l-37 -160 10 -2zm-298 387c1,5 2,10 3,16 6,23 15,42 27,59 13,17 27,30 44,39 17,10 36,16 56,18 21,2 42,1 63,-4 30,-7 51,-17 63,-30 4,-4 7,-9 9,-14l1 5c5,24 2,42 -10,55 -12,14 -33,24 -63,30 -21,5 -42,7 -63,4 -20,-2 -39,-8 -56,-17 -17,-10 -31,-23 -44,-39 -12,-17 -21,-37 -27,-60 -5,-23 -6,-43 -3,-62zm256 12c-5,-10 -9,-20 -14,-28 5,-11 14,-20 26,-29 13,-8 27,-15 44,-18 13,-3 26,-4 40,-3 14,2 27,6 39,13 12,7 22,16 31,28 9,12 15,27 19,45 5,19 5,37 2,55l-2 -9c-4,-18 -10,-33 -19,-45 -9,-11 -19,-21 -31,-28 -12,-6 -25,-11 -39,-12 -14,-2 -27,-1 -40,2 -17,4 -31,10 -44,19 -4,3 -9,6 -12,10zm174 148c19,20 38,37 57,53 25,21 48,38 68,52 2,16 -1,30 -6,42 -19,-13 -40,-29 -62,-48 -25,-20 -50,-44 -75,-71 7,-9 13,-18 18,-28zm-581 -158c-2,-20 -1,-40 1,-60 5,-34 17,-66 36,-94 19,-28 45,-53 78,-74 33,-22 73,-38 122,-49l72 -17 11 44 -83 19c-49,11 -89,28 -122,49 -33,22 -59,46 -78,75 -19,28 -31,59 -36,93 0,5 -1,10 -1,14zm-188 -355c-1,-6 -2,-12 -2,-20 -1,-10 0,-19 1,-27l681 -157 30 -6 1 -1 262 -60 629 -251c16,-6 30,-5 41,3 0,-3 -1,-6 -1,-8l936 -464c-2,-6 -4,-11 -5,-16l618 -436 21 -14 1 -1 39 -28c16,6 32,11 48,13l-87 61 -1 1 -21 15 -618 435c1,5 3,11 5,17l-936 463c0,3 1,5 1,8 -11,-8 -25,-9 -41,-2l-629 250 -262 61 -1 0 -30 7 -680 157zm3112 -1697c-3,-18 -3,-37 1,-56 10,-47 39,-88 87,-122 37,-26 66,-38 88,-35 23,2 40,12 53,30 11,16 16,33 15,50 -4,1 -7,2 -11,3l-4 -6c-13,-18 -30,-29 -53,-31 -22,-2 -51,9 -88,35 -48,34 -77,75 -87,123l-1 9zm152 -7c3,11 9,23 17,35 15,20 33,36 54,49 22,12 45,21 70,27l89 -63c25,-17 48,-11 69,19 5,7 9,15 14,25 4,10 8,19 9,26l-14 10c-3,-5 -6,-10 -9,-14 -21,-31 -44,-37 -69,-19l-89 62c-25,-5 -48,-14 -70,-27 -21,-12 -39,-29 -54,-49 -18,-26 -24,-51 -18,-76l1 -5zm-4585 2483c-1,-6 -2,-12 -1,-19l3 -83 1 -1 -3 103zm-494 -366c-1,-11 -2,-22 -2,-32 1,-11 3,-20 8,-27 4,-8 12,-12 24,-13 54,-3 93,-13 117,-31 20,-15 32,-34 37,-57 2,9 2,18 2,28 -1,32 -14,57 -39,75 -24,18 -63,29 -117,31 -12,1 -20,6 -24,13 -3,4 -4,8 -6,13zm-79 -320c-2,-8 -2,-16 -2,-26 0,-8 1,-17 3,-27 3,-11 5,-20 9,-26l799 27 0 0 24 1 1 0 82 3c11,15 20,31 28,47l-110 -4 -1 0 -24 0 0 0 -799 -28c-4,7 -6,16 -9,26l-1 7zm674 -274l-3 -1c-1,-3 -1,-7 -1,-10 0,-3 0,-7 0,-11 1,-25 9,-46 23,-63 14,-17 35,-25 63,-24 28,0 57,11 89,30 31,19 61,44 90,76 28,31 55,67 79,108 22,36 40,73 53,112 1,-3 1,-6 2,-8l776 -59c26,-2 41,10 48,35 -1,7 -2,14 -1,23 0,9 1,16 3,23l-1 7c-5,-30 -21,-44 -49,-42l-776 59c-1,3 -1,5 -2,8 -13,-38 -31,-76 -53,-112 -24,-40 -51,-76 -79,-108 -29,-31 -59,-56 -90,-76 -32,-19 -61,-29 -89,-30 -28,-1 -49,7 -63,24 -9,12 -16,25 -19,39zm1094 313l47 626 -3 1 -48 -627 4 0zm-340 26c9,16 17,34 25,52 15,38 24,78 27,122 2,20 2,38 1,56l-1 -9c-3,-44 -12,-85 -27,-122 -16,-37 -33,-70 -54,-97l29 -2zm-247 387c-1,-4 -2,-8 -2,-12 -1,-20 1,-39 8,-58 13,2 25,2 35,2 35,-3 63,-18 82,-45 13,-18 21,-42 23,-74 4,54 -4,94 -23,121 -19,27 -47,41 -82,44 -10,1 -22,0 -35,-1 -3,7 -5,15 -6,23zm-264 245c-1,-5 -1,-12 -1,-19l20 -569 1 0 -20 588zm-504 -232c37,1 71,-5 99,-18 28,-13 51,-28 69,-46l10 -304 2 1 -12 349c-18,18 -41,34 -69,47 -28,13 -62,18 -99,17 -53,-2 -94,-15 -125,-40 -30,-25 -51,-55 -61,-90 6,-1 13,-2 20,-3 10,17 24,32 41,46 31,25 72,39 125,41zm-14 -374l2 4c11,21 16,44 15,69 0,7 0,13 -1,19 -2,-14 -7,-28 -14,-41 -11,-21 -24,-38 -39,-52l37 1zm-4390 -1376c8,28 29,54 63,79 5,4 11,8 16,11 5,4 11,7 16,9 25,-22 51,-39 79,-51 29,-11 57,-17 85,-17 29,-1 56,4 84,12 27,9 52,22 76,40 31,22 54,46 71,72 17,26 29,53 37,79 28,-2 57,1 85,8 29,8 56,22 83,41 16,11 30,24 43,39l61 -83 22 16 -83 114c-13,-15 -27,-28 -43,-40 -27,-19 -54,-32 -83,-40 -28,-8 -57,-10 -85,-8 -8,-27 -20,-53 -37,-79 -17,-26 -40,-51 -71,-73 -24,-17 -49,-30 -76,-39 -28,-9 -55,-13 -84,-13 -28,0 -56,6 -85,18 -28,11 -54,28 -79,51 -5,-3 -11,-6 -16,-9 -5,-4 -11,-7 -16,-11 -37,-27 -59,-56 -65,-87 -2,-12 -2,-25 2,-39zm3029 1810c-5,-12 -5,-26 -1,-43l43 -184 11 2 -53 225zm-425 -331c-4,-15 -4,-31 0,-47 3,-12 7,-23 13,-33 6,-11 13,-21 21,-29l35 8c16,4 30,2 41,-6 12,-7 19,-19 23,-37l50 -211 10 3 -60 255c-4,17 -11,30 -23,37 -11,7 -25,9 -41,5l-35 -8c-8,9 -15,18 -21,29 -6,11 -10,22 -13,33l0 1zm22 -452l0 -1 -1 -4c1,-9 1,-17 -2,-24 1,-5 2,-11 3,-17 2,-7 5,-16 9,-25 4,-10 8,-18 12,-24l779 182c29,7 40,28 31,65l-1 4c-5,-12 -15,-19 -30,-23l-779 -182c-4,6 -8,14 -12,24 -4,9 -7,17 -9,25zm264 346l218 51 50 -213 10 2 -60 257 -228 -53 10 -44z"/>
  <path class="fil20" d="M11851 9055l0 477c-5,1 -11,2 -18,4 -8,1 -16,2 -26,2 -22,0 -38,-4 -47,-11 -8,-8 -12,-20 -12,-37l0 -435 -51 0 -17 0 0 0 -73 0 0 477c-5,1 -11,2 -18,4 -8,1 -16,2 -26,2 -22,0 -37,-4 -46,-11 -9,-8 -13,-20 -13,-37l0 -92c-16,13 -35,23 -56,30 -21,6 -45,10 -72,10 -44,0 -83,-10 -117,-28 -33,-18 -59,-42 -78,-72 -12,-17 -20,-35 -26,-54 -6,-19 -9,-35 -9,-49 0,-8 1,-14 4,-20 3,-5 9,-8 17,-9 38,-3 65,-12 82,-25 17,-14 26,-32 26,-54 0,-17 -5,-31 -13,-43 -8,-12 -20,-22 -34,-29l-93 0 -21 0 -78 0 0 104c0,26 -14,39 -43,39l-157 0c-22,0 -37,4 -45,12 -9,9 -13,19 -13,32 0,12 2,21 8,28 6,7 12,13 20,18 16,-4 32,-8 49,-11 16,-3 34,-4 53,-4 55,0 96,12 124,36 28,23 42,54 42,92 0,47 -18,82 -55,106 -36,24 -85,36 -146,36 -28,0 -54,-2 -80,-7 -25,-4 -48,-10 -67,-18 -19,-8 -35,-18 -46,-29 -12,-11 -18,-23 -18,-37 0,-14 4,-25 12,-34 7,-8 17,-15 27,-19 19,17 43,31 71,44 29,12 62,19 100,19 31,0 55,-6 71,-16 16,-11 24,-25 24,-43 0,-35 -29,-52 -86,-52 -17,0 -33,1 -50,5 -16,3 -32,7 -46,12 -13,-5 -26,-10 -39,-18 -14,-7 -26,-16 -37,-27 -11,-11 -20,-23 -28,-38 -7,-14 -11,-30 -11,-48 0,-34 12,-62 36,-83 24,-21 59,-32 106,-32l121 0 0 -67 -289 0 -19 0 -70 0 0 477c-6,1 -12,2 -19,4 -7,1 -16,2 -26,2 -22,0 -38,-4 -46,-11 -9,-8 -13,-20 -13,-37l0 -435 -47 0 -21 0 0 0 -77 0 0 104c0,26 -14,39 -43,39l-157 0c-22,0 -37,4 -45,12 -9,9 -13,19 -13,32 0,12 2,21 8,28 6,7 13,13 20,18 16,-4 32,-8 49,-11 16,-3 34,-4 53,-4 55,0 96,12 124,36 28,23 42,54 42,92 0,23 -5,44 -15,61 -10,18 -23,32 -41,44 -18,12 -40,20 -64,26 -25,6 -52,9 -81,9 -3,0 -6,0 -8,0 -2,0 -5,-1 -8,-1 16,13 32,27 49,39 17,13 36,26 56,38 -1,18 -7,34 -18,46 -11,12 -27,18 -47,18 -21,0 -40,-7 -57,-21 -17,-15 -34,-37 -52,-68l-35 -62c-28,-7 -50,-18 -66,-31 -17,-14 -25,-29 -25,-46 0,-14 4,-25 12,-34 8,-9 17,-16 27,-20 20,17 43,32 72,44 28,13 61,19 99,19 31,0 55,-6 71,-16 16,-11 24,-25 24,-43 0,-35 -29,-52 -86,-52 -17,0 -33,1 -50,5 -16,3 -32,7 -46,12 -13,-5 -26,-10 -39,-18 -14,-7 -26,-16 -37,-27 -11,-11 -20,-23 -28,-38 -7,-14 -11,-30 -11,-48 0,-34 12,-62 36,-83 24,-21 59,-32 107,-32l120 0 0 -67 -308 0c-21,0 -32,-13 -32,-40 0,-6 1,-12 2,-19 1,-8 3,-14 5,-19l487 0 22 0 65 0c-4,-8 -8,-19 -11,-32 -3,-12 -5,-26 -5,-39 0,-53 21,-95 63,-125 41,-30 99,-46 174,-46 49,0 93,6 134,17 41,12 75,25 104,42 29,16 52,32 68,50 15,17 23,32 23,44 0,12 -5,22 -17,30 -11,9 -26,13 -45,13 -31,-34 -68,-61 -111,-81 -42,-20 -91,-30 -147,-30 -45,0 -79,8 -102,25 -24,18 -36,43 -36,75 0,11 1,21 3,31 2,10 5,19 9,26l52 0 19 0 470 0 21 0 544 0 18 0 244 0c21,0 32,13 32,40 0,5 -1,12 -2,19 -2,8 -3,14 -5,19l-90 0zm-3969 -16c0,170 -1,341 1,512 1,71 -12,128 -85,156 -73,27 -123,-9 -169,-60 -59,-66 -115,-137 -182,-195 -29,-25 -87,-37 -124,-26 -29,9 -59,61 -61,96 -2,32 29,71 54,99 170,194 337,388 436,632 45,109 134,177 253,193 76,11 153,16 229,16 256,-1 452,-144 476,-396 28,-290 17,-583 17,-875 0,-59 -50,-93 -107,-94 -57,0 -97,37 -105,95 -6,47 1,95 -7,141 -4,26 -25,66 -43,68 -49,8 -48,-36 -48,-71 0,-107 2,-213 0,-320 -2,-86 -68,-140 -140,-117 -59,18 -79,64 -79,120 -2,109 0,218 -3,327 -1,21 -16,43 -30,61 -4,6 -35,2 -39,-5 -11,-23 -20,-49 -20,-74 -2,-233 -1,-466 -1,-698 0,-52 10,-108 -5,-155 -12,-39 -49,-84 -85,-97 -27,-10 -81,16 -105,43 -22,23 -26,68 -27,104 -2,173 -1,346 -1,520zm-521 56c-220,1 -195,13 -196,-195 0,-96 10,-106 108,-106 66,1 133,1 200,1 15,0 32,-3 44,3 104,54 35,150 51,225 10,47 -26,71 -73,72 -45,0 -89,0 -134,0zm0 -522c-207,-1 -197,25 -196,-194 1,-92 15,-109 105,-111 71,-1 143,0 215,1 55,1 88,24 85,85 -3,42 -3,84 0,126 5,73 -30,98 -98,94 -37,-3 -74,-1 -111,-1zm-628 521c-37,0 -75,-3 -111,0 -67,6 -89,-30 -89,-89 0,-230 -14,-211 198,-210 45,0 89,1 134,0 56,-1 80,27 79,82 -2,238 28,219 -211,217zm4 -521l-7 0c-216,3 -197,17 -196,-226 0,-48 27,-77 79,-77 84,0 168,-2 251,0 73,1 81,26 80,201 0,58 -6,105 -81,102 -42,-2 -84,0 -126,0zm1249 -521c-214,1 -194,13 -194,-197 0,-95 15,-110 113,-111 69,0 138,0 207,1 53,0 84,24 84,80 0,47 0,94 1,141 1,62 -31,89 -92,87 -40,-2 -79,-1 -119,-1zm-623 0c-220,1 -198,12 -198,-201 -1,-89 15,-105 102,-106 72,-1 144,0 215,0 62,-1 91,28 88,91 -2,39 0,79 0,118 -2,81 -19,97 -103,98 -34,0 -69,0 -104,0zm-616 -307c208,-3 199,-6 197,197 -2,97 -12,109 -111,110 -67,1 -134,0 -200,0 -15,0 -32,3 -44,-3 -99,-55 -45,-149 -53,-227 -6,-53 34,-77 86,-77 42,-1 84,0 125,0zm1450 1068c194,-48 283,12 324,208 16,-5 31,-9 47,-13 135,-31 255,56 257,201 3,274 5,550 -10,823 -15,288 -215,482 -499,519 -137,18 -270,11 -402,-30 -105,-33 -190,-96 -232,-195 -106,-254 -277,-460 -457,-661 -84,-95 -81,-223 4,-298 91,-80 217,-68 304,28 56,62 112,125 170,185 16,16 40,24 60,35 10,-23 27,-46 27,-70 2,-282 1,-564 2,-846 0,-80 -2,-159 1,-238 4,-108 88,-189 196,-192 110,-3 200,80 206,191 3,59 1,118 2,178 0,56 0,112 0,175zm631 2321c-1415,0 -2562,-1147 -2562,-2562 0,-1415 1147,-2562 2562,-2562 882,0 1660,446 2121,1125l332 0c-494,-841 -1407,-1406 -2453,-1406 -1570,0 -2843,1273 -2843,2843 0,904 422,1709 1079,2230l-416 1356 1052 -976c346,150 727,233 1128,233 1101,0 2056,-626 2528,-1542l-321 0c-446,755 -1267,1261 -2207,1261zm203 494c-441,0 -863,-81 -1248,-227l-449 328c376,148 785,229 1213,229 754,0 1450,-252 2007,-675 -456,220 -974,345 -1523,345zm-2189 -770c-696,-571 -1136,-1408 -1136,-2342 0,-1718 1489,-3112 3325,-3112 136,0 270,8 402,23 -282,-78 -579,-120 -886,-120 -1837,0 -3325,1489 -3325,3325 0,1172 606,2202 1521,2794l99 -568zm2486 -3034l0 714c-10,3 -22,5 -36,8 -13,3 -30,4 -48,4 -43,0 -73,-7 -89,-20 -15,-14 -23,-37 -23,-68l0 -638 -90 0c-21,0 -36,-7 -44,-19 -9,-12 -13,-31 -13,-56 0,-10 1,-22 4,-36 2,-14 5,-25 9,-33l121 0c-6,-12 -11,-27 -15,-44 -4,-17 -5,-35 -5,-53 0,-43 10,-81 31,-116 22,-35 53,-66 95,-91 41,-25 93,-45 155,-59 61,-14 132,-21 213,-21 74,0 145,5 214,14 70,9 134,22 194,37 60,15 114,33 161,52 48,20 87,40 117,61 22,14 40,28 52,41 12,13 18,27 18,43 0,19 -7,36 -21,50 -14,14 -34,23 -61,26 -41,-22 -86,-43 -134,-63 -49,-21 -102,-39 -157,-54 -56,-15 -115,-27 -176,-36 -62,-10 -125,-14 -191,-14 -103,0 -180,14 -232,43 -52,28 -78,65 -78,110 0,14 2,27 6,40 4,12 8,24 14,34l74 0 24 0 1033 0 27 0 1156 0 24 0 113 0c-16,-28 -36,-54 -60,-77 -25,-24 -50,-45 -78,-64 -27,-19 -55,-35 -83,-48 -28,-14 -54,-23 -78,-30 -1,-5 -1,-9 -1,-13 0,-4 0,-9 0,-13 0,-33 9,-61 27,-85 18,-25 46,-37 83,-37 35,0 69,10 104,31 35,21 69,49 101,83 33,35 62,74 90,118 27,44 49,89 65,135l112 0c38,0 57,24 57,72 0,10 -1,22 -4,37 -3,15 -6,26 -11,35l-130 0 0 714c-10,3 -22,5 -36,8 -14,3 -30,4 -49,4 -43,0 -73,-7 -88,-20 -16,-14 -24,-37 -24,-68l0 -638 -69 0 -21 0 -1 0 -108 0 0 714c-10,3 -22,5 -36,8 -14,3 -30,4 -48,4 -44,0 -73,-7 -89,-20 -16,-14 -24,-37 -24,-68l0 -140c-34,16 -77,24 -130,24 -32,0 -63,-6 -93,-16 -30,-10 -57,-25 -80,-44 -24,-19 -43,-43 -56,-72 -14,-29 -21,-61 -21,-98 0,-36 6,-68 17,-94 12,-27 28,-49 48,-68 20,-18 43,-31 70,-40 26,-10 54,-14 83,-14 40,0 70,8 90,23 20,16 30,36 30,61 0,27 -9,49 -25,65 -13,-4 -29,-7 -47,-7 -24,0 -45,7 -61,21 -17,14 -25,34 -25,61 0,25 9,45 29,60 19,14 44,22 73,22 20,0 39,-3 56,-9 16,-5 30,-13 42,-22l0 -351 -480 0c18,20 31,43 41,70 10,26 14,53 14,82 0,63 -16,114 -49,154 -32,40 -76,68 -130,84 28,53 71,94 127,125 56,30 120,48 191,52 5,16 7,32 7,49 0,34 -10,61 -31,80 -20,19 -49,29 -88,29 -45,0 -86,-8 -125,-24 -39,-16 -74,-38 -106,-66 -32,-28 -60,-60 -84,-98 -25,-38 -44,-79 -59,-122 -26,-2 -47,-10 -63,-23 -16,-13 -24,-35 -24,-66 0,-17 3,-33 9,-47 6,-15 13,-26 21,-36 10,2 22,4 34,6 13,2 26,3 41,3 43,0 75,-12 96,-36 22,-23 33,-53 33,-88 0,-25 -6,-50 -16,-72 -11,-23 -25,-42 -42,-56l-168 0 -26 0 -1 0 -104 0 0 714c-10,3 -21,5 -35,8 -14,3 -30,4 -48,4 -44,0 -73,-7 -89,-20 -16,-14 -24,-37 -24,-68l0 -357c-3,0 -6,-1 -9,-1 -3,-1 -6,-1 -10,-1 -44,0 -77,16 -98,46 -21,30 -32,81 -32,152 -28,9 -58,14 -91,14 -33,0 -56,-8 -72,-24 -15,-16 -22,-39 -22,-67 0,-39 6,-75 18,-107 -21,-9 -42,-14 -64,-14 -44,0 -76,14 -98,40 -23,27 -34,60 -34,99 0,30 6,56 18,79 11,22 26,40 45,54 18,15 39,26 61,34 23,7 46,13 69,15 1,5 1,10 1,15 0,5 0,10 0,14 0,30 -8,55 -25,76 -18,21 -47,31 -90,31 -34,0 -68,-7 -101,-22 -33,-15 -63,-36 -90,-64 -26,-27 -48,-61 -65,-101 -16,-39 -25,-84 -25,-134 0,-48 8,-90 24,-127 15,-36 37,-67 63,-91 27,-25 58,-43 92,-55 34,-13 70,-19 108,-19 41,0 77,6 108,17 30,12 57,26 80,44 23,-20 49,-35 79,-45 29,-11 63,-16 100,-16 11,0 21,0 31,1 9,1 19,3 29,4l0 -128 -734 0 -21 0 -1 0 -109 0zm860 1015c0,-18 6,-33 18,-45 12,-12 28,-18 49,-18 20,0 36,6 48,18 12,12 18,27 18,45 0,18 -6,32 -18,45 -12,13 -28,19 -48,19 -21,0 -37,-6 -49,-19 -12,-13 -18,-27 -18,-45zm1199 513c26,0 50,-5 69,-15 20,-10 36,-22 48,-35l0 -247 -163 0c11,10 20,22 29,36 8,14 12,30 12,48 0,19 -3,35 -10,49 -6,14 -15,26 -27,37 -12,10 -25,19 -41,25 -16,6 -33,11 -52,14 9,24 24,45 46,62 22,17 52,26 89,26z"/>
  <path class="fil21" d="M11851 8987l0 477c-5,1 -11,2 -18,4 -8,1 -16,2 -26,2 -22,0 -38,-4 -47,-11 -8,-7 -12,-20 -12,-36l0 -436 -51 0 -17 0 0 0 -73 0 0 477c-5,1 -11,2 -18,4 -8,1 -16,2 -26,2 -22,0 -37,-4 -46,-11 -9,-7 -13,-20 -13,-36l0 -93c-16,14 -35,23 -56,30 -21,7 -45,10 -72,10 -44,0 -83,-9 -117,-27 -33,-19 -59,-43 -78,-73 -12,-16 -20,-34 -26,-53 -6,-19 -9,-36 -9,-50 0,-7 1,-14 4,-19 3,-6 9,-9 17,-10 38,-3 65,-11 82,-25 17,-13 26,-31 26,-54 0,-17 -5,-31 -13,-43 -8,-12 -20,-21 -34,-29l-93 0 -21 0 -78 0 0 104c0,27 -14,40 -43,40l-157 0c-22,0 -37,4 -45,12 -9,8 -13,18 -13,32 0,11 2,20 8,27 6,8 12,14 20,18 16,-4 32,-7 49,-10 16,-3 34,-5 53,-5 55,0 96,12 124,36 28,24 42,55 42,92 0,47 -18,83 -55,107 -36,24 -85,36 -146,36 -28,0 -54,-3 -80,-7 -25,-5 -48,-11 -67,-19 -19,-8 -35,-18 -46,-29 -12,-11 -18,-23 -18,-37 0,-14 4,-25 12,-33 7,-9 17,-15 27,-20 19,17 43,32 71,44 29,13 62,19 100,19 31,0 55,-5 71,-16 16,-11 24,-25 24,-42 0,-35 -29,-53 -86,-53 -17,0 -33,2 -50,5 -16,3 -32,7 -46,12 -13,-4 -26,-10 -39,-17 -14,-8 -26,-17 -37,-28 -11,-11 -20,-23 -28,-37 -7,-15 -11,-31 -11,-49 0,-34 12,-61 36,-83 24,-21 59,-31 106,-31l121 0 0 -68 -289 0 -19 0 -70 0 0 477c-6,1 -12,2 -19,4 -7,1 -16,2 -26,2 -22,0 -38,-4 -46,-11 -9,-7 -13,-20 -13,-36l0 -436 -47 0 -21 0 0 0 -77 0 0 104c0,27 -14,40 -43,40l-157 0c-22,0 -37,4 -45,12 -9,8 -13,18 -13,32 0,11 2,20 8,27 6,8 13,14 20,18 16,-4 32,-7 49,-10 16,-3 34,-5 53,-5 55,0 96,12 124,36 28,24 42,55 42,92 0,23 -5,44 -15,62 -10,17 -23,32 -41,43 -18,12 -40,21 -64,26 -25,6 -52,9 -81,9 -3,0 -6,0 -8,0 -2,0 -5,0 -8,-1 16,14 32,27 49,40 17,13 36,25 56,37 -1,18 -7,34 -18,46 -11,12 -27,18 -47,18 -21,0 -40,-7 -57,-21 -17,-14 -34,-37 -52,-67l-35 -63c-28,-7 -50,-17 -66,-31 -17,-13 -25,-29 -25,-46 0,-14 4,-25 12,-34 8,-9 17,-15 27,-20 20,18 43,32 72,45 28,12 61,18 99,18 31,0 55,-5 71,-16 16,-11 24,-25 24,-42 0,-35 -29,-53 -86,-53 -17,0 -33,2 -50,5 -16,3 -32,7 -46,12 -13,-4 -26,-10 -39,-17 -14,-8 -26,-17 -37,-28 -11,-11 -20,-23 -28,-37 -7,-15 -11,-31 -11,-49 0,-34 12,-61 36,-83 24,-21 59,-31 107,-31l120 0 0 -68 -308 0c-21,0 -32,-13 -32,-40 0,-5 1,-12 2,-19 1,-8 3,-14 5,-18l487 0 22 0 65 0c-4,-9 -8,-19 -11,-32 -3,-13 -5,-26 -5,-40 0,-53 21,-94 63,-125 41,-30 99,-45 174,-45 49,0 93,5 134,17 41,11 75,25 104,41 29,16 52,33 68,50 15,17 23,32 23,44 0,13 -5,23 -17,31 -11,8 -26,12 -45,12 -31,-34 -68,-61 -111,-81 -42,-20 -91,-30 -147,-30 -45,0 -79,9 -102,26 -24,17 -36,42 -36,74 0,11 1,21 3,32 2,10 5,18 9,26l52 0 19 0 470 0 21 0 544 0 18 0 244 0c21,0 32,13 32,39 0,5 -1,12 -2,20 -2,7 -3,14 -5,18l-90 0zm-3969 -16c0,171 -1,342 1,513 1,70 -12,127 -85,155 -73,27 -123,-9 -169,-60 -59,-66 -115,-137 -182,-195 -29,-25 -87,-37 -124,-26 -29,9 -59,62 -61,96 -2,33 29,71 54,100 170,193 337,388 436,631 45,110 134,177 253,194 76,10 153,15 229,15 256,-1 452,-143 476,-396 28,-289 17,-583 17,-875 0,-59 -50,-93 -107,-93 -57,-1 -97,36 -105,95 -6,46 1,95 -7,140 -4,26 -25,66 -43,69 -49,7 -48,-37 -48,-72 0,-106 2,-213 0,-319 -2,-87 -68,-141 -140,-118 -59,19 -79,64 -79,120 -2,109 0,218 -3,327 -1,21 -16,44 -30,61 -4,6 -35,2 -39,-5 -11,-23 -20,-49 -20,-74 -2,-233 -1,-465 -1,-698 0,-52 10,-107 -5,-155 -12,-39 -49,-83 -85,-96 -27,-10 -81,16 -105,42 -22,23 -26,68 -27,104 -2,173 -1,347 -1,520zm-521 56c-220,1 -195,14 -196,-195 0,-96 10,-106 108,-105 66,0 133,0 200,1 15,0 32,-4 44,2 104,54 35,150 51,226 10,47 -26,71 -73,71 -45,0 -89,0 -134,0zm0 -521c-207,-2 -197,24 -196,-195 1,-91 15,-109 105,-110 71,-2 143,0 215,0 55,1 88,24 85,86 -3,42 -3,84 0,126 5,72 -30,97 -98,93 -37,-2 -74,0 -111,0zm-628 520c-37,0 -75,-2 -111,1 -67,5 -89,-31 -89,-89 0,-230 -14,-212 198,-211 45,0 89,1 134,0 56,-1 80,27 79,83 -2,238 28,218 -211,216zm4 -521l-7 0c-216,3 -197,17 -196,-226 0,-48 27,-77 79,-77 84,1 168,-2 251,0 73,2 81,26 80,202 0,57 -6,105 -81,102 -42,-2 -84,-1 -126,-1zm1249 -520c-214,0 -194,12 -194,-198 0,-95 15,-110 113,-110 69,0 138,0 207,0 53,0 84,24 84,80 0,47 0,94 1,141 1,63 -31,90 -92,87 -40,-2 -79,0 -119,0zm-623 0c-220,1 -198,11 -198,-202 -1,-88 15,-105 102,-106 72,-1 144,1 215,0 62,0 91,28 88,91 -2,40 0,79 0,119 -2,80 -19,97 -103,97 -34,1 -69,1 -104,1zm-616 -308c208,-3 199,-6 197,197 -2,97 -12,109 -111,110 -67,1 -134,1 -200,0 -15,0 -32,3 -44,-3 -99,-55 -45,-149 -53,-226 -6,-54 34,-78 86,-78 42,0 84,0 125,0zm1450 1069c194,-48 283,11 324,207 16,-4 31,-9 47,-12 135,-32 255,55 257,200 3,275 5,550 -10,824 -15,287 -215,481 -499,518 -137,18 -270,11 -402,-30 -105,-32 -190,-95 -232,-195 -106,-253 -277,-459 -457,-661 -84,-94 -81,-222 4,-298 91,-79 217,-68 304,28 56,63 112,125 170,186 16,16 40,23 60,35 10,-24 27,-47 27,-71 2,-282 1,-564 2,-846 0,-79 -2,-158 1,-238 4,-107 88,-188 196,-191 110,-4 200,79 206,190 3,59 1,119 2,178 0,56 0,113 0,176zm631 2320c-1415,0 -2562,-1147 -2562,-2562 0,-1414 1147,-2561 2562,-2561 882,0 1660,446 2121,1124l332 0c-494,-841 -1407,-1405 -2453,-1405 -1570,0 -2843,1273 -2843,2842 0,904 422,1709 1079,2230l-416 1357 1052 -976c346,149 727,233 1128,233 1101,0 2056,-627 2528,-1543l-321 0c-446,755 -1267,1261 -2207,1261zm203 494c-441,0 -863,-81 -1248,-227l-449 329c376,147 785,228 1213,228 754,0 1450,-251 2007,-675 -456,221 -974,345 -1523,345zm-2189 -770c-696,-570 -1136,-1408 -1136,-2342 0,-1718 1489,-3111 3325,-3111 136,0 270,8 402,22 -282,-77 -579,-119 -886,-119 -1837,0 -3325,1488 -3325,3325 0,1172 606,2202 1521,2794l99 -569zm2486 -3034l0 714c-10,3 -22,6 -36,9 -13,2 -30,4 -48,4 -43,0 -73,-7 -89,-21 -15,-14 -23,-36 -23,-68l0 -638 -90 0c-21,0 -36,-6 -44,-19 -9,-12 -13,-31 -13,-56 0,-10 1,-22 4,-36 2,-14 5,-25 9,-33l121 0c-6,-12 -11,-26 -15,-44 -4,-17 -5,-34 -5,-53 0,-42 10,-81 31,-116 22,-35 53,-65 95,-91 41,-25 93,-45 155,-59 61,-13 132,-20 213,-20 74,0 145,4 214,14 70,9 134,21 194,36 60,15 114,33 161,53 48,20 87,40 117,60 22,15 40,29 52,42 12,12 18,27 18,42 0,20 -7,36 -21,50 -14,14 -34,23 -61,27 -41,-23 -86,-44 -134,-64 -49,-20 -102,-38 -157,-53 -56,-16 -115,-28 -176,-37 -62,-9 -125,-14 -191,-14 -103,0 -180,14 -232,43 -52,29 -78,66 -78,111 0,14 2,27 6,39 4,13 8,24 14,34l74 0 24 0 1033 0 27 0 1156 0 24 0 113 0c-16,-28 -36,-53 -60,-77 -25,-23 -50,-44 -78,-63 -27,-19 -55,-35 -83,-49 -28,-13 -54,-23 -78,-30 -1,-4 -1,-9 -1,-13 0,-4 0,-8 0,-13 0,-32 9,-61 27,-85 18,-24 46,-37 83,-37 35,0 69,11 104,31 35,21 69,49 101,84 33,34 62,73 90,117 27,44 49,89 65,135l112 0c38,0 57,24 57,72 0,10 -1,23 -4,37 -3,15 -6,27 -11,35l-130 0 0 714c-10,3 -22,6 -36,9 -14,2 -30,4 -49,4 -43,0 -73,-7 -88,-21 -16,-14 -24,-36 -24,-68l0 -638 -69 0 -21 0 -1 0 -108 0 0 714c-10,3 -22,6 -36,9 -14,2 -30,4 -48,4 -44,0 -73,-7 -89,-21 -16,-14 -24,-36 -24,-68l0 -140c-34,16 -77,24 -130,24 -32,0 -63,-5 -93,-15 -30,-11 -57,-25 -80,-45 -24,-19 -43,-43 -56,-72 -14,-28 -21,-61 -21,-98 0,-36 6,-67 17,-94 12,-27 28,-49 48,-67 20,-18 43,-32 70,-41 26,-9 54,-14 83,-14 40,0 70,8 90,24 20,15 30,36 30,61 0,26 -9,48 -25,65 -13,-5 -29,-7 -47,-7 -24,0 -45,7 -61,20 -17,14 -25,35 -25,61 0,25 9,45 29,60 19,15 44,22 73,22 20,0 39,-3 56,-8 16,-6 30,-13 42,-22l0 -352 -480 0c18,20 31,44 41,70 10,26 14,54 14,82 0,63 -16,115 -49,155 -32,40 -76,68 -130,83 28,53 71,94 127,125 56,30 120,48 191,53 5,15 7,31 7,48 0,34 -10,61 -31,80 -20,20 -49,29 -88,29 -45,0 -86,-8 -125,-24 -39,-16 -74,-38 -106,-66 -32,-27 -60,-60 -84,-98 -25,-38 -44,-78 -59,-122 -26,-2 -47,-9 -63,-23 -16,-13 -24,-35 -24,-65 0,-18 3,-34 9,-48 6,-14 13,-26 21,-35 10,2 22,3 34,5 13,2 26,3 41,3 43,0 75,-12 96,-35 22,-24 33,-53 33,-88 0,-26 -6,-50 -16,-73 -11,-22 -25,-41 -42,-56l-168 0 -26 0 -1 0 -104 0 0 714c-10,3 -21,6 -35,9 -14,2 -30,4 -48,4 -44,0 -73,-7 -89,-21 -16,-14 -24,-36 -24,-68l0 -357c-3,0 -6,0 -9,-1 -3,0 -6,0 -10,0 -44,0 -77,15 -98,45 -21,31 -32,82 -32,153 -28,9 -58,13 -91,13 -33,0 -56,-8 -72,-24 -15,-16 -22,-38 -22,-67 0,-39 6,-74 18,-106 -21,-10 -42,-14 -64,-14 -44,0 -76,13 -98,40 -23,27 -34,59 -34,98 0,31 6,57 18,79 11,22 26,40 45,55 18,14 39,25 61,33 23,8 46,13 69,16 1,4 1,9 1,14 0,5 0,10 0,15 0,29 -8,55 -25,75 -18,21 -47,31 -90,31 -34,0 -68,-7 -101,-22 -33,-14 -63,-36 -90,-63 -26,-28 -48,-62 -65,-101 -16,-40 -25,-85 -25,-135 0,-48 8,-90 24,-126 15,-37 37,-67 63,-92 27,-24 58,-43 92,-55 34,-13 70,-19 108,-19 41,0 77,6 108,18 30,11 57,26 80,43 23,-19 49,-34 79,-45 29,-10 63,-16 100,-16 11,0 21,1 31,2 9,1 19,2 29,4l0 -129 -734 0 -21 0 -1 0 -109 0zm860 1016c0,-18 6,-33 18,-46 12,-12 28,-18 49,-18 20,0 36,6 48,18 12,13 18,28 18,46 0,17 -6,32 -18,44 -12,13 -28,19 -48,19 -21,0 -37,-6 -49,-19 -12,-12 -18,-27 -18,-44zm1199 512c26,0 50,-5 69,-15 20,-10 36,-21 48,-34l0 -248 -163 0c11,10 20,22 29,36 8,15 12,31 12,49 0,18 -3,34 -10,48 -6,14 -15,27 -27,37 -12,11 -25,19 -41,25 -16,7 -33,11 -52,14 9,25 24,45 46,62 22,17 52,26 89,26z"/>
  <path class="fil22" d="M11150 9199c-3,-12 -4,-22 -4,-32 0,-7 1,-14 4,-19 3,-6 9,-9 17,-10 38,-3 65,-11 82,-25 10,-8 18,-18 22,-29 2,8 4,16 4,26 0,22 -9,41 -26,54 -17,13 -44,22 -82,25 -8,1 -14,4 -17,9l0 1zm-365 1l1 2c6,8 12,14 20,18 16,-4 32,-7 49,-10 16,-3 34,-5 53,-5 55,0 96,12 124,36 28,24 42,55 42,92 0,9 -1,18 -2,27 -5,-27 -18,-50 -40,-68 -28,-24 -69,-36 -124,-36 -19,0 -37,1 -53,4 -17,3 -33,7 -49,11 -8,-5 -14,-11 -20,-18 -6,-7 -8,-16 -8,-28 0,-9 2,-18 7,-25zm-116 208c-5,-7 -7,-15 -7,-24 0,-14 4,-25 12,-33 7,-9 17,-15 27,-20 19,17 43,32 71,44 29,13 62,19 100,19 31,0 55,-5 71,-16 7,-5 13,-11 17,-17 4,7 7,16 7,26 0,17 -8,31 -24,42 -16,10 -40,16 -71,16 -38,0 -71,-6 -100,-19 -28,-13 -52,-27 -71,-44 -10,4 -20,11 -27,19 -2,2 -4,5 -5,7zm4 -214c-2,-8 -3,-16 -3,-25 0,-34 12,-61 36,-83 24,-21 59,-31 106,-31l121 0 0 50 -121 0c-47,0 -82,11 -106,32 -18,16 -29,35 -33,57zm-618 6l1 2c6,8 13,14 20,18 16,-4 32,-7 49,-10 16,-3 34,-5 53,-5 55,0 96,12 124,36 28,24 42,55 42,92 0,9 -1,18 -2,26 -5,-27 -18,-49 -40,-67 -28,-24 -69,-36 -124,-36 -19,0 -37,1 -53,4 -17,3 -33,7 -49,11 -7,-5 -14,-11 -20,-18 -6,-7 -8,-16 -8,-28 0,-9 2,-18 7,-25zm134 321c13,10 28,19 43,28 -1,16 -6,30 -15,42 -14,-9 -28,-19 -41,-28 -17,-13 -33,-27 -49,-40 3,0 6,1 8,1 2,0 5,0 8,0 16,0 31,-1 46,-3zm-251 -111c-4,-8 -6,-16 -6,-25 0,-14 4,-25 12,-34 8,-9 17,-15 27,-20 20,18 43,32 72,45 28,12 61,18 99,18 31,0 55,-5 71,-16 7,-5 13,-11 17,-17 4,7 7,16 7,26 0,17 -8,31 -24,42 -16,10 -40,16 -71,16 -38,0 -71,-6 -99,-19 -29,-12 -52,-27 -72,-44 -10,4 -19,11 -27,20 -2,2 -4,5 -6,8zm5 -216c-2,-8 -3,-16 -3,-25 0,-34 12,-61 36,-83 24,-21 59,-31 107,-31l120 0 0 50 -120 0c-48,0 -83,11 -107,32 -17,16 -29,35 -33,57zm-76 -224c-3,-6 -4,-14 -4,-23 0,-5 1,-12 2,-19 1,-8 3,-14 5,-18l487 0 22 0 50 0c1,6 2,12 4,18 3,13 7,24 11,32l-65 0 -22 0 -487 0c-1,3 -2,6 -3,10zm563 -107c-1,-8 -2,-16 -2,-25 0,-53 21,-94 63,-125 41,-30 99,-45 174,-45 49,0 93,5 134,17 41,11 75,25 104,41 29,16 52,33 68,50 15,17 23,32 23,44 0,9 -3,18 -9,25 -4,-6 -9,-12 -14,-18 -16,-18 -39,-34 -68,-50 -29,-16 -63,-30 -104,-42 -41,-11 -85,-17 -134,-17 -75,0 -133,16 -174,46 -35,25 -55,59 -61,99zm108 17l1 4c2,10 5,18 9,26l52 0 19 0 309 0 4 4c11,0 21,-2 29,-4l128 0 21 0 544 0 18 0 244 0c21,0 32,13 32,39 0,5 -1,12 -2,20l-2 8c-5,-11 -14,-17 -28,-17l-244 0 -18 0 -544 0 -21 0 -470 0 -19 0 -52 0c-4,-7 -7,-16 -9,-26 -2,-10 -3,-20 -3,-31 0,-8 1,-16 2,-23zm-2656 91l0 16c0,-86 0,-172 0,-258l0 242zm0 328c0,62 0,123 1,185 0,8 0,17 0,25 -1,-70 -1,-140 -1,-210zm-615 182c9,25 30,52 49,73 170,193 337,388 436,631 45,110 134,177 253,194 76,10 153,15 229,15 256,-1 452,-143 476,-396 15,-149 19,-299 19,-450 0,167 -3,335 -19,501 -24,252 -220,395 -476,396 -76,0 -153,-5 -229,-15 -119,-17 -208,-85 -253,-194 -99,-244 -266,-438 -436,-632 -25,-28 -56,-67 -54,-99 0,-7 2,-15 5,-24zm1150 -219c0,-60 0,-120 1,-180 0,60 -1,120 -1,180zm-312 -662l0 -44c0,-21 1,-42 2,-63 3,35 -2,71 -2,107zm-940 341c-1,-27 0,-63 0,-109 0,-96 10,-106 108,-105 66,0 133,0 200,1 15,0 32,-4 44,2 60,31 63,76 57,122 -5,-27 -20,-52 -57,-71 -12,-6 -29,-2 -44,-3 -67,0 -134,0 -200,-1 -98,0 -108,10 -108,106 0,21 0,41 0,58zm402 12l1 3c3,13 2,25 -2,35 -1,-13 0,-25 1,-38zm-402 -551c-1,-24 0,-54 0,-91 1,-91 15,-109 105,-110 71,-2 143,0 215,0 55,1 88,24 85,86l-2 24c-6,-42 -36,-58 -83,-59 -72,-1 -144,-2 -215,-1 -90,2 -104,19 -105,111l0 40zm403 -32c1,15 1,29 2,43 1,12 1,23 -1,33 -1,-25 -1,-50 -1,-76zm-1035 522c-1,-182 1,-166 198,-165 45,0 89,1 134,0 56,-1 80,27 79,83l0 43c-2,-51 -25,-76 -79,-75 -45,1 -89,0 -134,0 -176,-1 -196,-14 -198,114zm411 -28c0,26 1,47 0,65 0,-19 0,-41 0,-65zm-411 -461c0,-31 1,-71 1,-124 0,-48 27,-77 79,-77 84,1 168,-2 251,0 73,2 81,26 80,202l0 5c-1,-134 -14,-155 -80,-156 -83,-2 -167,1 -251,0 -52,0 -79,29 -79,77 0,28 -1,52 -1,73zm1258 -513c0,-27 1,-60 1,-103 0,-95 15,-110 113,-110 69,0 138,0 207,0 53,0 84,24 84,80 0,47 0,94 1,141 0,6 0,11 0,15 -1,-35 -1,-70 -1,-105 0,-56 -31,-80 -84,-80 -69,-1 -138,-1 -207,0 -98,0 -113,15 -113,110l-1 52zm-627 -3c0,-26 1,-60 1,-104 -1,-88 15,-105 102,-106 72,-1 144,1 215,0 62,0 91,28 88,91 0,8 -1,17 -1,25 -5,-45 -34,-65 -87,-65 -71,1 -143,-1 -215,0 -87,1 -103,17 -102,106 0,20 0,37 -1,53zm406 -52c0,17 0,34 0,52l0 2c-1,-18 -1,-36 0,-54zm-823 -158c191,-3 199,-5 197,151 -2,-105 -29,-103 -197,-100 -41,0 -83,-1 -125,0 -43,0 -78,17 -85,53 0,-9 0,-18 -1,-26 -6,-54 34,-78 86,-78 42,0 84,0 125,0zm-217 222c-4,-31 2,-66 5,-100l1 7c3,29 -3,62 -6,93zm1667 847c194,-48 283,11 324,207 16,-4 31,-9 47,-12 135,-32 255,55 257,200 1,107 2,214 2,321 0,-90 -1,-180 -2,-270 -2,-145 -122,-232 -257,-201 -16,4 -31,8 -47,13 -41,-196 -130,-256 -324,-207l0 -51zm-1032 724c-8,-63 14,-126 64,-171 91,-79 217,-68 304,28 56,63 112,125 170,186 16,16 40,23 60,35 10,-24 27,-47 27,-71 1,-106 2,-213 2,-319 0,123 -1,247 -2,370 0,24 -17,47 -27,70 -20,-11 -44,-19 -60,-35 -58,-60 -114,-123 -170,-185 -87,-96 -213,-108 -304,-28 -36,33 -58,75 -64,120zm626 -933c0,-48 0,-96 2,-144 4,-107 88,-188 196,-191 110,-4 200,79 206,190 2,46 2,93 2,139 0,-29 -1,-59 -2,-88 -6,-111 -96,-194 -206,-191 -108,3 -192,84 -196,192 -1,31 -2,62 -2,93zm406 30l0 3 0 94 0 -43c0,-18 0,-36 0,-54zm631 2499c-1406,0 -2548,-1133 -2561,-2536l-1 25c0,1415 1147,2562 2562,2562 940,0 1761,-506 2207,-1261l294 0c10,-17 19,-34 27,-51l-321 0c-446,755 -1267,1261 -2207,1261zm2423 -3999l30 0c-494,-841 -1407,-1405 -2453,-1405 -1570,0 -2843,1273 -2843,2842l0 33c10,-1561 1279,-2825 2843,-2825 1025,0 1922,543 2423,1355zm-4199 3708l-404 1316 22 -20 394 -1286 -12 -10zm1979 785c-441,0 -863,-81 -1248,-227l-449 329c15,6 30,12 46,17l403 -295c385,146 807,227 1248,227 472,0 921,-92 1327,-258 67,-43 133,-90 196,-138 -456,221 -974,345 -1523,345zm-2189 -770c-688,-564 -1125,-1388 -1135,-2309l-1 18c0,931 437,1765 1128,2336l8 -45zm2264 -5453c110,3 219,10 327,22 -282,-77 -579,-119 -886,-119 -1837,0 -3325,1488 -3325,3325l0 31c10,-1827 1495,-3305 3325,-3305 190,0 377,16 559,46zm-119 2370c-1,-8 -2,-16 -2,-26 0,-10 1,-22 4,-36 2,-14 5,-25 9,-33l105 0 1 7c4,17 9,32 15,44l-121 0c-4,8 -7,19 -9,33l-2 11zm113 -166c-1,-8 -1,-17 -1,-26 0,-42 10,-81 31,-116 22,-35 53,-65 95,-91 41,-25 93,-45 155,-59 61,-13 132,-20 213,-20 74,0 145,4 214,14 70,9 134,21 194,36 60,15 114,33 161,53 48,20 87,40 117,60 22,15 40,29 52,42 12,12 18,27 18,42 0,10 -2,19 -6,27 -3,-6 -7,-13 -12,-19 -12,-13 -30,-27 -52,-41 -30,-21 -69,-41 -117,-60 -47,-20 -101,-38 -161,-53 -60,-15 -124,-28 -194,-37 -69,-9 -140,-14 -214,-14 -81,0 -152,7 -213,21 -62,14 -114,34 -155,59 -42,25 -73,56 -95,91 -17,28 -27,58 -30,91zm202 25c1,4 2,8 3,12 4,13 8,24 14,34l74 0 24 0 1033 0 27 0 1156 0 24 0 77 0c14,16 26,33 36,51l-113 0 -24 0 -1156 0 -27 0 -1033 0 -24 0 -74 0c-6,-10 -10,-22 -14,-34 -4,-13 -6,-26 -6,-40 0,-8 1,-16 3,-23zm2170 -172l-1 -1c-1,-4 -1,-9 -1,-13 0,-4 0,-8 0,-13 0,-32 9,-61 27,-85 18,-24 46,-37 83,-37 35,0 69,11 104,31 35,21 69,49 101,84 33,34 62,73 90,117 27,44 49,89 65,135l112 0c38,0 57,24 57,72 0,7 -1,16 -2,26 -6,-32 -24,-47 -55,-47l-112 0c-16,-46 -38,-91 -65,-135 -28,-44 -57,-83 -90,-118 -32,-34 -66,-62 -101,-83 -35,-21 -69,-31 -104,-31 -37,0 -65,12 -83,37 -14,18 -22,38 -25,61zm-480 679c-1,-8 -1,-16 -1,-25 0,-36 6,-67 17,-94 12,-27 28,-49 48,-67 20,-18 43,-32 70,-41 26,-9 54,-14 83,-14 40,0 70,8 90,24 20,15 30,36 30,61 0,9 -2,19 -4,27 -4,-15 -13,-27 -26,-38 -20,-15 -50,-23 -90,-23 -29,0 -57,5 -83,14 -27,9 -50,23 -70,41 -20,18 -36,40 -48,67 -9,20 -14,42 -16,68zm182 7c4,14 13,26 26,36 19,15 44,22 73,22 20,0 39,-3 56,-8 16,-6 30,-13 42,-22l0 50c-12,10 -26,17 -42,23 -17,5 -36,8 -56,8 -29,0 -54,-8 -73,-22 -20,-15 -29,-35 -29,-60 0,-10 1,-19 3,-27zm-250 -273c3,6 6,12 8,19 10,26 14,54 14,82 0,10 0,19 -1,28 -2,-21 -6,-40 -13,-59 -10,-27 -23,-50 -41,-70l33 0zm-130 381c26,33 59,61 100,83 56,30 120,48 191,53 5,15 7,31 7,48 0,9 -1,17 -2,25 -1,-8 -3,-15 -5,-23 -71,-4 -135,-22 -191,-52 -56,-31 -99,-72 -127,-125 9,-3 18,-6 27,-9zm-280 -80c-1,-7 -2,-16 -2,-25 0,-18 3,-34 9,-48 6,-14 13,-26 21,-35 10,2 22,3 34,5 13,2 26,3 41,3 43,0 75,-12 96,-35 17,-18 27,-39 31,-64 1,9 2,18 2,27 0,35 -11,64 -33,87 -21,24 -53,36 -96,36 -15,0 -28,-1 -41,-3 -12,-2 -24,-4 -34,-6 -8,10 -15,21 -21,36 -3,7 -5,14 -7,22zm-654 68c-1,-6 -1,-13 -1,-20 0,-21 1,-42 5,-61 4,2 8,3 13,5 -9,24 -15,49 -17,76zm-177 24c2,20 8,37 16,53 11,22 26,40 45,55 18,14 39,25 61,33 23,8 46,13 69,16 1,4 1,9 1,14 0,5 0,10 0,15 0,7 0,15 -1,21 -23,-2 -46,-8 -69,-15 -22,-8 -43,-19 -61,-34 -19,-14 -34,-32 -45,-54 -12,-22 -18,-49 -18,-79 0,-9 1,-17 2,-25zm-203 -3c0,-8 -1,-17 -1,-26 0,-48 8,-90 24,-126 15,-37 37,-67 63,-92 27,-24 58,-43 92,-55 34,-13 70,-19 108,-19 41,0 77,6 108,18 30,11 57,26 80,43 23,-19 49,-34 79,-45 29,-10 63,-16 100,-16 11,0 21,1 31,2 9,1 19,2 29,4l0 51c-10,-2 -20,-4 -29,-5 -10,-1 -20,-1 -31,-1 -37,0 -71,5 -100,16 -30,10 -56,25 -79,45 -23,-18 -50,-32 -80,-44 -31,-11 -67,-17 -108,-17 -38,0 -74,6 -108,19 -34,12 -65,31 -92,55 -26,24 -48,55 -63,91 -13,30 -21,64 -23,102zm708 575c0,-18 6,-33 18,-46 12,-12 28,-18 49,-18 20,0 36,6 48,18 12,13 18,28 18,46 0,9 -2,17 -5,25 -3,-8 -7,-14 -13,-20 -12,-12 -28,-18 -48,-18 -21,0 -37,6 -49,18 -6,6 -10,12 -13,20 -3,-8 -5,-16 -5,-25zm1199 512c26,0 50,-5 69,-15 20,-10 36,-21 48,-34l0 50c-12,13 -28,25 -48,35 -19,10 -43,15 -69,15 -37,0 -67,-9 -89,-26 -22,-17 -37,-38 -46,-62 10,-2 18,-4 27,-6 6,6 12,12 19,17 22,17 52,26 89,26zm-10 -246c3,11 5,22 5,34 0,9 -1,18 -3,27 -2,-9 -5,-17 -9,-25 -9,-14 -18,-26 -29,-36l36 0z"/>
 </g>
</svg>
