<svg width="121" height="103" viewBox="0 0 121 103" fill="none" xmlns="http://www.w3.org/2000/svg">
<path fill-rule="evenodd" clip-rule="evenodd" d="M24.3469 22.5693C24.7419 23.5742 26.3659 33.5787 25.8831 34.4962C25.0052 36.2874 25.5758 37.7291 26.7609 39.0834C27.4631 39.8261 28.2532 40.5251 28.9993 41.3115C29.4383 41.792 29.965 42.2726 30.36 42.7969C31.7206 44.5444 31.3695 45.8113 29.3066 46.6414C29.0871 46.7288 28.8677 46.8162 28.6482 46.9035C28.2093 47.122 28.0337 47.5589 28.2093 47.9957C28.341 48.3015 28.5165 48.5637 28.6482 48.8695C29.0432 49.7433 28.8677 50.4859 28.0337 51.0102C27.6387 51.2286 27.1559 51.4034 26.7609 51.5781C26.3659 51.7529 26.0147 51.884 25.6636 52.1898C26.0147 52.2772 26.3659 52.3208 26.717 52.4082C27.2437 52.5393 27.8143 52.583 28.2971 52.8014C29.131 53.1072 29.3505 53.8062 28.9993 54.5489C28.9555 54.7237 28.8677 54.8547 28.7799 54.9858C27.8582 56.1217 27.8582 57.3886 28.2971 58.6993C28.6921 59.9225 28.341 60.7526 27.1559 61.3206C25.6197 62.0196 23.9518 62.1069 22.3279 62.1943C21.8451 62.238 21.3184 62.1943 20.8356 62.1943C19.8261 62.238 19.3871 63.0244 19.1238 63.7671C18.7727 64.8593 18.5093 65.9952 18.246 67.1311C18.1143 67.5243 18.0704 67.9174 17.4998 67.8738C17.017 67.7864 16.7976 67.4369 16.9292 66.8689C17.1926 65.7767 17.4559 64.6845 17.7632 63.5923C17.8948 63.1118 18.2021 62.6749 18.4654 62.238C19.0799 61.1458 20.0894 60.8837 21.2745 60.84C22.7229 60.7963 24.1713 60.6216 25.6197 60.4468C25.8392 60.4031 26.0586 60.3157 26.2781 60.2721C27.112 59.9225 27.1998 59.7478 26.9365 58.874C26.4975 57.3013 26.4975 55.7285 27.5948 54.3305C27.6387 54.2868 27.6826 54.1994 27.7265 54.112C27.7265 54.112 27.7265 54.0684 27.7265 53.9373C27.2437 53.8499 26.7609 53.8499 26.322 53.6752C25.6197 53.4567 24.9175 53.1946 24.3469 52.8451C23.7324 52.4519 23.7324 51.7966 24.303 51.316C24.698 51.0102 25.2247 50.7918 25.6636 50.5733C26.1464 50.3549 26.6292 50.1801 27.112 50.0054C27.4631 49.8743 27.5948 49.6559 27.3754 49.3064C27.2437 49.0879 27.1559 48.8695 27.0681 48.6947C26.4975 47.6462 26.9365 46.0735 28.2971 45.5929C28.5165 45.5055 28.7799 45.4181 28.9993 45.3308C29.9211 44.9376 30.0527 44.5881 29.3944 43.8017C28.6482 42.8842 27.7704 42.0105 26.8926 41.1367C25.6636 39.9571 24.5224 38.7339 24.1713 36.9864C24.0835 36.4621 24.1274 35.8942 24.2152 35.3699C24.303 34.8893 24.5224 34.4525 24.6541 34.0156C24.9175 33.3166 23.3813 23.7052 23.0301 23.0062L24.3469 22.5693Z" fill="#F58B71" stroke="#F58B71" stroke-width="0.0135276"/>
<path fill-rule="evenodd" clip-rule="evenodd" d="M50.3454 52.2208C50.2576 56.7207 48.7653 60.6526 45.7368 63.9729C45.5613 64.1476 45.4296 64.3224 45.2101 64.4971C44.8151 64.8466 44.3762 64.8466 43.9812 64.4971C43.5862 64.1039 43.5862 63.6234 43.9373 63.2302C44.2884 62.7933 44.7273 62.4001 45.0785 61.9632C48.7214 57.2012 49.5115 51.9587 47.4047 46.3666C46.6586 44.488 45.5613 42.8716 44.2006 41.3862C43.9373 41.1241 43.7178 40.6435 43.7617 40.3377C43.8495 39.595 44.7273 39.4639 45.3418 40.0319C46.878 41.561 48.0192 43.3085 48.897 45.2307C49.8626 47.4588 50.3454 49.818 50.3454 52.2208Z" fill="#F58B71"/>
<path fill-rule="evenodd" clip-rule="evenodd" d="M50.3454 52.2208C50.2576 56.7207 48.7653 60.6526 45.7368 63.9729C45.5613 64.1476 45.4296 64.3224 45.2101 64.4971C44.8151 64.8466 44.3762 64.8466 43.9812 64.4971C43.5862 64.1039 43.5862 63.6234 43.9373 63.2302C44.2884 62.7933 44.7273 62.4001 45.0785 61.9632C48.7214 57.2012 49.5115 51.9587 47.4047 46.3666C46.6586 44.488 45.5613 42.8716 44.2006 41.3862C43.9373 41.1241 43.7178 40.6435 43.7617 40.3377C43.8495 39.595 44.7273 39.4639 45.3418 40.0319C46.878 41.561 48.0192 43.3085 48.897 45.2307C49.8626 47.4588 50.3454 49.818 50.3454 52.2208Z" stroke="#F58B71" stroke-width="0.0135276"/>
<path fill-rule="evenodd" clip-rule="evenodd" d="M44.3929 53.4919C44.349 55.72 43.164 58.8219 40.7938 61.4432C40.7061 61.5742 40.6183 61.6616 40.4866 61.7927C40.0477 62.2295 39.5649 62.3606 39.0821 61.88C38.5993 61.4432 38.7748 60.9626 39.1699 60.5257C40.3988 59.3024 41.3644 57.8607 41.8911 56.1569C43.3395 51.7444 42.5495 47.7251 39.4332 44.1427C39.3015 44.0117 39.126 43.8806 39.0382 43.7058C38.7309 43.3127 38.6871 42.8758 39.0821 42.5263C39.4332 42.2205 39.916 42.0894 40.3549 42.4826C40.7499 42.8758 41.145 43.3127 41.4961 43.7495C43.3834 46.2397 44.3929 49.0795 44.3929 53.4919Z" fill="#F58B71"/>
<path fill-rule="evenodd" clip-rule="evenodd" d="M44.3929 53.4919C44.349 55.72 43.164 58.8219 40.7938 61.4432C40.7061 61.5742 40.6183 61.6616 40.4866 61.7927C40.0477 62.2295 39.5649 62.3606 39.0821 61.88C38.5993 61.4432 38.7748 60.9626 39.1699 60.5257C40.3988 59.3024 41.3644 57.8607 41.8911 56.1569C43.3395 51.7444 42.5495 47.7251 39.4332 44.1427C39.3015 44.0117 39.126 43.8806 39.0382 43.7058C38.7309 43.3127 38.6871 42.8758 39.0821 42.5263C39.4332 42.2205 39.916 42.0894 40.3549 42.4826C40.7499 42.8758 41.145 43.3127 41.4961 43.7495C43.3834 46.2397 44.3929 49.0795 44.3929 53.4919Z" stroke="#F58B71" stroke-width="0.0135276"/>
<path fill-rule="evenodd" clip-rule="evenodd" d="M36.5962 52.0696C36.5523 49.9726 35.7623 48.094 34.27 46.4776C33.6555 45.8223 33.7433 45.1233 34.5333 44.9048C34.8405 44.8174 35.3233 44.9922 35.5428 45.2106C37.6057 47.3513 38.5274 49.9289 38.3518 52.856C38.2202 55.2589 37.2985 57.3559 35.6745 59.1471C35.2356 59.584 34.7966 59.8898 34.1822 59.4092C33.7433 59.0597 33.7871 58.4918 34.3577 57.8801C35.8061 56.2637 36.5523 54.3851 36.5962 52.0696Z" fill="#F58B71"/>
<path fill-rule="evenodd" clip-rule="evenodd" d="M36.5962 52.0696C36.5523 49.9726 35.7623 48.094 34.27 46.4776C33.6555 45.8223 33.7433 45.1233 34.5333 44.9048C34.8405 44.8174 35.3233 44.9922 35.5428 45.2106C37.6057 47.3513 38.5274 49.9289 38.3518 52.856C38.2202 55.2589 37.2985 57.3559 35.6745 59.1471C35.2356 59.584 34.7966 59.8898 34.1822 59.4092C33.7433 59.0597 33.7871 58.4918 34.3577 57.8801C35.8061 56.2637 36.5523 54.3851 36.5962 52.0696Z" stroke="#F58B71" stroke-width="0.0135276"/>
<path fill-rule="evenodd" clip-rule="evenodd" d="M38.2867 90.8237C44.0777 93.0229 50.4147 94.235 57.0587 94.235C65.2663 94.235 73.0351 92.3564 79.8821 89.0798C71.4989 95.3709 61.0967 99.128 49.8166 99.128C43.3865 99.128 37.2416 97.9164 31.5996 95.7105L38.2867 90.8237ZM24.2663 82.7449C13.854 74.2371 7.28595 61.7469 7.28595 47.8383C7.28595 22.2372 29.5388 1.4417 57.0587 1.4417C59.0777 1.4417 61.0967 1.57277 63.0718 1.79121C58.8582 0.611632 54.3813 0 49.8166 0C22.2968 0 0 22.1935 0 49.5859C0 67.0349 9.07642 82.3855 22.7948 91.2123L24.2663 82.7449Z" fill="#F47D5C"/>
<path d="M28.2801 79.6162L21.3892 102.072L39.7357 85.1209L28.2801 79.6162Z" fill="#377044"/>
<path fill-rule="evenodd" clip-rule="evenodd" d="M15.6623 48.6527C15.6623 69.754 32.8238 86.836 54.0233 86.836C68.0709 86.836 80.3575 79.3043 87.0279 68.0653H91.8405C84.773 81.7085 70.4878 91.0301 54.0233 91.0301C30.4976 91.0301 11.4487 72.0695 11.4487 48.6527C11.4487 25.236 30.4976 6.27539 54.0233 6.27539C69.6788 6.27539 83.3638 14.7033 90.7469 27.2607H85.7693C78.8788 17.1257 67.2292 10.4694 54.0233 10.4694C32.8238 10.4694 15.6623 27.5514 15.6623 48.6527Z" fill="#377044"/>
<path d="M61.9877 48.3154C61.3732 48.3154 60.8026 48.228 60.3198 48.0533C59.837 47.8348 59.3981 47.5727 59.0469 47.2669C58.6958 46.9174 58.3886 46.5242 58.213 46.0436C57.9935 45.5631 57.9058 45.0825 57.9058 44.5146C57.9058 43.9466 57.9935 43.466 58.213 43.0292C58.3886 42.5486 58.6519 42.1554 59.003 41.8496C59.3542 41.5438 59.7492 41.2816 60.232 41.1069C60.7148 40.9321 61.2415 40.8448 61.8121 40.8448C62.2071 40.8448 62.6021 40.8885 62.9094 40.9758C63.2605 41.0632 63.6116 41.2816 64.0067 41.5001C63.9189 40.8011 63.6994 40.2331 63.3483 39.7963C62.9972 39.3594 62.5582 39.0972 61.9877 38.9662H58.3008C58.213 38.8351 58.1252 38.7041 58.0813 38.5293C58.0374 38.3546 57.9935 38.1798 57.9935 37.9614C57.9935 37.6119 58.0813 37.306 58.2569 37.1313C58.4325 37.0002 58.6958 36.9128 58.9592 36.9128H68.7908C69.2297 36.9128 69.5809 36.7818 69.8003 36.5633C70.0637 36.3449 70.1953 36.0391 70.1953 35.6896C70.1953 35.3838 70.1076 35.1653 69.9759 35.0343C69.8442 34.8595 69.6247 34.7721 69.3614 34.7721C69.1419 34.7721 68.9664 34.8595 68.8347 34.9906C68.6591 35.1216 68.5714 35.2964 68.5714 35.5585C68.5714 35.6459 68.6152 35.777 68.6152 35.8643C68.5275 35.908 68.4397 35.9517 68.2641 35.9954C68.0886 36.0391 67.913 36.0828 67.7374 36.0828C67.3863 36.0828 67.0791 35.9517 66.8596 35.777C66.6401 35.5585 66.5524 35.2964 66.5524 34.9032C66.5524 34.3353 66.7718 33.8547 67.2985 33.4615C67.7813 33.0683 68.4836 32.8936 69.3614 32.8936C69.8003 32.8936 70.1953 32.9372 70.5904 33.0683C70.9415 33.1994 71.2926 33.3741 71.556 33.6363C71.8193 33.8547 72.0827 34.1605 72.2143 34.51C72.3899 34.9032 72.4777 35.2964 72.4777 35.777C72.4777 36.2575 72.3899 36.6944 72.2143 37.0876C72.0388 37.4808 71.8193 37.8303 71.4682 38.0924C71.1609 38.3546 70.8098 38.573 70.3709 38.7477C69.932 38.8788 69.4492 38.9662 68.9225 38.9662H65.1917C65.8062 39.5778 66.2012 40.4516 66.2451 41.5875C66.684 41.3253 67.0791 41.1069 67.4302 41.0195C67.7813 40.8885 68.2202 40.8448 68.6591 40.8448C69.1858 40.8448 69.7125 40.9321 70.1953 41.1069C70.6342 41.2816 71.0732 41.5438 71.3804 41.8496C71.7315 42.1991 71.9949 42.5923 72.2143 43.0292C72.3899 43.466 72.5216 43.9466 72.5216 44.4709C72.5216 45.0388 72.3899 45.5631 72.2143 46.0436C72.0388 46.5242 71.7754 46.9174 71.4243 47.2669C71.0732 47.5727 70.6342 47.8348 70.1514 48.0533C69.6686 48.228 69.0981 48.3154 68.4836 48.3154C67.8252 48.3154 67.2107 48.1843 66.6401 47.9659C66.0695 47.7475 65.5867 47.398 65.1917 46.9174C64.7967 47.398 64.3139 47.7475 63.7872 47.9659C63.2166 48.1843 62.646 48.3154 61.9877 48.3154ZM68.1763 46.2621C68.703 46.2621 69.0981 46.131 69.4053 45.7815C69.7564 45.4757 69.8881 45.0388 69.8881 44.5146C69.8881 44.034 69.7564 43.5971 69.4053 43.2913C69.0981 42.9418 68.6591 42.8107 68.1763 42.8107C67.6935 42.8107 67.2546 42.9855 66.9035 43.2913C66.5962 43.6408 66.4207 44.034 66.4207 44.5146C66.4207 45.0388 66.5962 45.432 66.9474 45.7815C67.2985 46.131 67.6935 46.2621 68.1763 46.2621ZM62.251 46.2621C62.7777 46.2621 63.1727 46.131 63.48 45.7815C63.8311 45.432 63.9628 45.0388 63.9628 44.5146C63.9628 44.034 63.8311 43.6408 63.48 43.2913C63.1288 42.9855 62.7338 42.8107 62.2071 42.8107C61.7243 42.8107 61.3293 42.9418 60.9782 43.2913C60.6709 43.5971 60.4954 44.034 60.4954 44.5146C60.4954 45.0825 60.6709 45.5194 61.022 45.8252C61.3732 46.131 61.7682 46.2621 62.251 46.2621Z" fill="#377044"/>
<path d="M78.7212 42.7252C78.2823 42.7252 77.8873 42.6378 77.4923 42.5067C77.0972 42.3757 76.7461 42.1572 76.4389 41.8951L76.4828 42.0699C76.4828 42.6378 76.6144 43.2057 76.79 43.6863C77.0095 44.1669 77.2728 44.6038 77.6239 44.9969C77.9751 45.3901 78.414 45.696 78.8968 45.9144C79.4235 46.1328 79.9502 46.2639 80.6085 46.3076C80.6524 46.395 80.6963 46.526 80.7402 46.6571C80.7402 46.7882 80.7402 46.9192 80.7402 47.0503C80.7402 47.3998 80.6524 47.7056 80.433 47.9677C80.2135 48.1862 79.8185 48.3172 79.3357 48.3172C78.7212 48.3172 78.1067 48.1862 77.4484 47.8804C76.8339 47.5745 76.2194 47.1377 75.7366 46.5697C75.2099 46.0018 74.771 45.3028 74.4638 44.5164C74.1565 43.73 73.981 42.8125 73.981 41.8077C73.981 40.9777 74.0687 40.2786 74.2882 39.6233C74.5077 38.968 74.8149 38.4001 75.2099 37.9195C75.6049 37.4826 76.0438 37.1331 76.6144 36.871C77.1411 36.6525 77.7556 36.5215 78.414 36.5215C78.9407 36.5215 79.4235 36.6089 79.8624 36.7836C80.3013 36.9584 80.6524 37.1768 80.9597 37.4826C81.2669 37.7447 81.4864 38.0943 81.6619 38.4874C81.7936 38.8806 81.8814 39.2738 81.8814 39.7107C81.8814 40.1039 81.7936 40.4971 81.6619 40.8903C81.5303 41.2398 81.3108 41.5456 81.0475 41.8514C80.7841 42.1135 80.433 42.332 80.038 42.463C79.6429 42.6378 79.204 42.7252 78.7212 42.7252ZM78.3701 40.8029C78.7212 40.8029 78.9846 40.7155 79.204 40.4971C79.4235 40.3223 79.5113 40.0602 79.5113 39.7107C79.5113 39.3612 79.4235 39.0991 79.204 38.8806C78.9846 38.6622 78.6773 38.5311 78.3262 38.5311C77.9751 38.5311 77.7117 38.6622 77.4923 38.8806C77.2728 39.0991 77.185 39.3612 77.185 39.7107C77.185 40.0165 77.2728 40.3223 77.5362 40.4971C77.7556 40.7155 78.019 40.8029 78.3701 40.8029Z" fill="#377044"/>
<path d="M96.5421 38.0077C96.5421 38.7504 96.4543 39.4494 96.2787 40.061C96.0593 40.6726 95.7959 41.2406 95.4887 41.7648C95.1375 42.2454 94.6986 42.6823 94.2158 43.0755C93.733 43.425 93.2063 43.7308 92.6357 43.9929C93.2502 44.4298 93.5575 45.0414 93.5575 45.7404C93.5575 46.1773 93.4697 46.5268 93.2941 46.8763C93.0747 47.2258 92.8113 47.488 92.4602 47.7501C92.1529 47.9685 91.7579 48.1433 91.319 48.2743C90.8801 48.4054 90.3973 48.4491 89.9145 48.4491C89.4317 48.4491 88.9928 48.4054 88.5539 48.2743C88.1149 48.1433 87.7199 47.9685 87.4127 47.7501C87.0615 47.488 86.7982 47.2258 86.5787 46.8763C86.4032 46.5268 86.2715 46.1773 86.2715 45.7404C86.2715 45.3909 86.3593 45.0414 86.5349 44.7793C86.6665 44.5172 86.886 44.255 87.1493 44.0366C86.5787 43.8618 86.0082 43.6434 85.5254 43.3813C85.0425 43.1192 84.6036 42.8133 84.2525 42.4201C83.9014 42.0706 83.5941 41.6338 83.4186 41.1969C83.1991 40.7163 83.1113 40.2357 83.1113 39.6678C83.1113 39.1872 83.1991 38.7504 83.3747 38.3572C83.5502 37.964 83.7697 37.6582 84.0769 37.3523C84.3842 37.0902 84.6914 36.8718 85.1303 36.7407C85.5254 36.566 85.9204 36.5223 86.4032 36.5223C86.886 36.5223 87.3249 36.566 87.7199 36.7407C88.1149 36.8718 88.4222 37.0465 88.7294 37.3086C88.9928 37.5708 89.1683 37.8329 89.3439 38.1824C89.4756 38.4882 89.5634 38.8377 89.5634 39.2309C89.5634 39.9299 89.3439 40.4979 88.8611 40.9784C88.4222 41.4153 87.7638 41.6774 86.8421 41.6774C86.7104 41.6774 86.6226 41.6338 86.5349 41.6338C86.4471 41.6338 86.3593 41.6338 86.2715 41.6338C86.4032 41.7648 86.6226 41.8959 86.8421 42.027C87.1054 42.158 87.3688 42.2891 87.676 42.3765C88.0272 42.4638 88.3344 42.5512 88.6855 42.6386C89.0367 42.6823 89.3878 42.726 89.7828 42.7696C91.0557 42.5075 92.109 41.9396 92.8552 41.1969C93.6014 40.4105 93.9525 39.362 93.9525 38.0513C93.9525 37.5271 93.9086 37.0465 93.7769 36.5223C93.6452 36.0417 93.4697 35.6048 93.2502 35.2553C93.0747 35.6922 92.7674 36.0417 92.3285 36.2601C91.8896 36.4786 91.4068 36.6096 90.7923 36.6096C90.3534 36.6096 89.9584 36.566 89.5634 36.4349C89.1683 36.3038 88.8611 36.0854 88.5977 35.8669C88.3344 35.6048 88.1149 35.299 87.9394 34.9932C87.8077 34.6437 87.7199 34.2505 87.7199 33.8573C87.7199 33.0272 88.0272 32.3282 88.5977 31.804C89.1683 31.2797 89.9145 31.0176 90.924 31.0176C91.7579 31.0176 92.5041 31.236 93.1624 31.6292C93.8647 32.0224 94.4353 32.5467 94.962 33.202C95.4448 33.8573 95.8398 34.6 96.1032 35.4738C96.4104 36.3038 96.5421 37.1339 96.5421 38.0077ZM91.0118 34.8621C91.319 34.8621 91.5824 34.7747 91.7579 34.6C91.9774 34.3816 92.0652 34.1631 92.0652 33.8573C92.0652 33.5515 91.9774 33.333 91.7579 33.1146C91.5824 32.9398 91.319 32.8525 91.0118 32.8525C90.7484 32.8525 90.4851 32.9398 90.3095 33.1146C90.1339 33.333 90.0023 33.5515 90.0023 33.8573C90.0023 34.1631 90.1339 34.3816 90.3095 34.6C90.4851 34.7747 90.7484 34.8621 91.0118 34.8621ZM86.3593 40.1921C86.6665 40.1921 86.886 40.1047 87.0615 39.9299C87.2371 39.7552 87.3249 39.5367 87.3249 39.2309C87.3249 38.9688 87.2371 38.7067 87.0615 38.5319C86.886 38.3135 86.6665 38.2261 86.3593 38.2261C86.052 38.2261 85.7887 38.3135 85.6131 38.5319C85.4376 38.7067 85.3498 38.9688 85.3498 39.2309C85.3498 39.5367 85.4376 39.7989 85.6131 39.9299C85.7887 40.1047 86.052 40.1921 86.3593 40.1921ZM89.9145 46.6142C90.2656 46.6142 90.5729 46.5268 90.7923 46.3521C91.0118 46.1336 91.0995 45.9152 91.0995 45.6094C91.0995 45.3472 91.0118 45.0851 90.7923 44.8667C90.6167 44.6482 90.3095 44.5172 89.9145 44.4298C89.5195 44.5172 89.2561 44.6482 89.0367 44.8667C88.8611 45.0851 88.7294 45.3036 88.7294 45.6094C88.7294 45.9152 88.8611 46.1336 89.0805 46.3521C89.3 46.5268 89.5634 46.6142 89.9145 46.6142Z" fill="#377044"/>
<path d="M72.7037 56.0625C73.1426 56.0625 73.5376 56.1499 73.8449 56.3246C74.196 56.4994 74.4593 56.7178 74.6788 57.0673C74.8543 56.7178 75.1177 56.4994 75.4249 56.3246C75.7322 56.1499 76.1272 56.0625 76.5661 56.0625C76.9611 56.0625 77.3123 56.1062 77.6195 56.2373C77.9267 56.412 78.1901 56.5868 78.4095 56.8052C78.629 57.0673 78.8046 57.3294 78.9362 57.679C79.024 57.9848 79.1118 58.3343 79.1118 58.7275C79.1118 59.2954 78.9801 59.8633 78.7168 60.4313C78.4973 60.9555 78.1901 61.4361 77.7951 61.873C77.9267 62.0914 78.0584 62.3536 78.1462 62.6157C78.234 62.8778 78.2779 63.0526 78.2779 63.271C78.2779 63.7516 78.0584 64.0137 77.6195 64.0137C77.5317 64.0137 77.4439 64.0137 77.3562 63.97C77.2245 63.97 77.1367 63.9263 77.0928 63.8826C77.0928 63.7079 77.0489 63.5331 77.0489 63.3147C77.005 63.0963 76.9172 62.8778 76.8733 62.6594C76.5222 62.8778 76.1711 63.0526 75.82 63.1836C75.4249 63.3147 75.0299 63.3584 74.5471 63.3584C74.196 63.3584 73.8887 63.3147 73.5815 63.2273C73.2743 63.1399 73.0109 63.0089 72.7915 62.8778C72.6159 62.7031 72.4403 62.4846 72.3087 62.2662C72.2209 62.0477 72.1331 61.7856 72.1331 61.5235C72.1331 61.2614 72.2209 60.9992 72.3087 60.7808C72.4403 60.5624 72.572 60.3876 72.7915 60.2129C72.967 60.0818 73.2304 59.9507 73.4937 59.8633C73.801 59.776 74.1082 59.7323 74.4154 59.7323C74.9421 59.7323 75.4249 59.8197 75.8638 60.0381C76.3028 60.2129 76.6978 60.5187 77.0489 60.8682C77.2245 60.5624 77.4 60.2565 77.5317 59.8633C77.6195 59.5138 77.7073 59.1207 77.7073 58.7275C77.7073 58.2469 77.5756 57.8974 77.3562 57.6353C77.1367 57.3731 76.8295 57.1984 76.4344 57.1984C76.1272 57.1984 75.82 57.3294 75.6444 57.5479C75.4249 57.7226 75.3372 58.0285 75.3372 58.378V58.7275C75.1616 58.8585 74.9421 58.9459 74.6788 58.9459C74.5471 58.9459 74.4154 58.9022 74.3277 58.8585C74.196 58.8585 74.1082 58.8148 74.0643 58.7275V58.378C74.0643 58.2032 74.0204 58.0285 73.9326 57.8974C73.8887 57.7663 73.801 57.6353 73.6693 57.5479C73.5815 57.4168 73.4498 57.3731 73.3182 57.2858C73.1865 57.2421 73.0109 57.1984 72.8792 57.1984C72.5281 57.1984 72.2648 57.3294 72.0453 57.5042C71.8697 57.7226 71.7381 57.9848 71.7381 58.3343C71.7381 58.5964 71.8259 58.8585 72.0014 59.1207C71.9136 59.208 71.8259 59.2954 71.7381 59.3828C71.6064 59.4702 71.4747 59.5138 71.343 59.5138C71.0358 59.5138 70.8164 59.3828 70.6408 59.1643C70.4652 58.9459 70.3774 58.5964 70.3774 58.1595C70.3774 57.8537 70.4213 57.5916 70.553 57.3294C70.6847 57.0673 70.8164 56.8489 71.0358 56.6304C71.2553 56.4557 71.4747 56.3246 71.782 56.1936C72.0453 56.1062 72.3525 56.0625 72.7037 56.0625ZM74.6349 62.2662C74.9421 62.2662 75.2055 62.2225 75.5127 62.0914C75.82 62.0041 76.0833 61.873 76.3028 61.6546C76.0833 61.4361 75.82 61.2177 75.5127 61.0429C75.2055 60.9119 74.8543 60.8245 74.5471 60.8245C74.196 60.8245 73.9326 60.8682 73.7571 60.9992C73.5815 61.1303 73.4937 61.3051 73.4937 61.5235C73.4937 61.7419 73.5815 61.9167 73.801 62.0477C73.9765 62.1788 74.2838 62.2662 74.6349 62.2662Z" fill="#373435"/>
<path d="M83.5349 63.3978C83.0521 63.3978 82.5693 63.3104 82.1743 63.1356C81.7354 62.9609 81.3842 62.6988 81.077 62.3929C80.7698 62.0871 80.5503 61.7376 80.4186 61.3007C80.2431 60.8639 80.1553 60.3833 80.1553 59.859C80.1553 59.3348 80.2431 58.8542 80.4186 58.4173C80.5503 57.9805 80.7698 57.631 81.077 57.2814C81.3842 56.9756 81.7354 56.7572 82.1743 56.5824C82.5693 56.4077 83.0521 56.3203 83.5349 56.3203C84.0616 56.3203 84.5444 56.4077 84.9394 56.5824C85.3783 56.7572 85.7295 56.9756 86.0367 57.2814C86.3001 57.631 86.5634 57.9805 86.6951 58.4173C86.8707 58.8542 86.9584 59.3348 86.9584 59.859C86.9584 60.3833 86.8707 60.8639 86.6951 61.3007C86.5634 61.7376 86.3001 62.0871 86.0367 62.3929C85.7295 62.6988 85.3783 62.9609 84.9394 63.1356C84.5444 63.3104 84.0616 63.3978 83.5349 63.3978ZM83.5349 62.2182C83.8421 62.2182 84.1494 62.1745 84.3688 62.0434C84.6322 61.9124 84.8516 61.7813 85.0272 61.5629C85.2028 61.3444 85.3345 61.0823 85.4222 60.8202C85.51 60.5144 85.5539 60.2085 85.5539 59.859C85.5539 59.5095 85.51 59.16 85.4222 58.8979C85.3345 58.5921 85.2028 58.33 85.0272 58.1552C84.8516 57.9368 84.6322 57.762 84.3688 57.631C84.1494 57.5436 83.8421 57.4999 83.5349 57.4999C83.2277 57.4999 82.9643 57.5436 82.7449 57.631C82.4815 57.762 82.2621 57.9368 82.0865 58.1552C81.9109 58.33 81.7793 58.5921 81.6915 58.8979C81.6037 59.16 81.5598 59.5095 81.5598 59.859C81.5598 60.2085 81.6037 60.5144 81.6915 60.8202C81.7793 61.0823 81.9109 61.3444 82.0865 61.5629C82.2621 61.7813 82.4815 61.9124 82.7449 62.0434C82.9643 62.1745 83.2277 62.2182 83.5349 62.2182Z" fill="#373435"/>
<path d="M94.537 63.4121C94.0981 63.4121 93.6592 63.2811 93.3519 63.1063C93.0008 62.9316 92.7374 62.7131 92.5619 62.3636C92.4302 62.7131 92.1668 62.9316 91.8596 63.1063C91.5524 63.2811 91.1573 63.4121 90.7184 63.4121C90.3234 63.4121 89.9723 63.3248 89.665 63.1937C89.3139 63.1063 89.0506 62.8879 88.8311 62.6694C88.5678 62.451 88.3922 62.1452 88.2605 61.7957C88.1289 61.4462 88.085 61.053 88.085 60.5724C88.085 60.0045 88.1727 59.4802 88.3483 59.0433C88.5239 58.5628 88.7872 58.1259 89.0945 57.7764C88.9189 57.6016 88.7872 57.4269 88.6555 57.1648C88.5239 56.9026 88.4361 56.5968 88.4361 56.2473C88.4361 55.8978 88.5239 55.5483 88.6555 55.2862C88.8311 54.9804 89.0506 54.7182 89.3139 54.4998C89.5773 54.2813 89.9284 54.1066 90.3234 54.0192C90.7184 53.8882 91.1573 53.8008 91.6402 53.8008C92.2985 53.8008 92.913 53.9318 93.4397 54.1503C94.0103 54.4124 94.4492 54.7182 94.8442 55.1114C95.2392 55.4609 95.5465 55.9415 95.7659 56.4221C95.9854 56.9463 96.0732 57.4706 96.0732 58.0385C96.0732 58.3006 96.0293 58.5191 95.9854 58.7375C95.8976 58.956 95.8098 59.087 95.6781 59.2181C96.1171 59.4365 96.4243 59.6987 96.6438 60.0482C96.8632 60.354 96.9949 60.7472 96.9949 61.184C96.9949 61.8831 96.7754 62.4073 96.3365 62.8005C95.8976 63.1937 95.2831 63.4121 94.537 63.4121ZM90.8062 62.2326C91.1135 62.2326 91.3768 62.1452 91.5963 61.9704C91.7718 61.7957 91.9035 61.5335 91.9035 61.1404V60.7035C92.0791 60.5724 92.2985 60.485 92.5619 60.485C92.8252 60.485 93.0447 60.5724 93.2202 60.7035V61.1404C93.2202 61.4899 93.308 61.752 93.5714 61.9267C93.7908 62.1452 94.0981 62.2326 94.4492 62.2326C94.8003 62.2326 95.1076 62.1452 95.327 61.9267C95.5026 61.7083 95.6343 61.4462 95.6343 61.0967C95.6343 60.8345 95.5465 60.5724 95.4148 60.3977C95.2392 60.1792 95.0198 60.0045 94.8003 59.8734C94.5809 59.9608 94.4053 60.0045 94.2297 60.0045C93.9225 60.0045 93.703 59.9171 93.5275 59.8297C93.3958 59.6987 93.308 59.5239 93.308 59.3055C93.308 59.087 93.3519 58.9123 93.4836 58.7812H93.9664C94.1858 58.7812 94.4053 58.7375 94.537 58.6501C94.7125 58.5191 94.7564 58.388 94.7564 58.1696C94.7564 58.0385 94.7125 57.9511 94.6687 57.8638C94.5809 57.7327 94.4931 57.6453 94.3614 57.5579C94.1858 57.4706 94.0103 57.4269 93.7908 57.3832C93.5275 57.3395 93.2641 57.2958 92.9569 57.2958C92.4741 57.2958 92.0352 57.3832 91.5963 57.5143C91.2012 57.689 90.8062 57.9074 90.499 58.2133C90.1917 58.4754 89.9284 58.8249 89.7528 59.2181C89.5773 59.6113 89.4895 60.0045 89.4895 60.485C89.4895 61.0967 89.6212 61.5335 89.8406 61.7957C90.104 62.1015 90.4112 62.2326 90.8062 62.2326ZM91.684 54.9367C91.0696 54.9367 90.6307 55.0677 90.3234 55.2862C89.9723 55.5483 89.8406 55.8541 89.8406 56.2473C89.8406 56.5531 89.8845 56.7716 90.0601 56.9463C90.4112 56.7279 90.8501 56.5094 91.289 56.3784C91.7279 56.2473 92.1668 56.1599 92.6058 56.1599C93.0886 56.1599 93.4836 56.2036 93.7908 56.291C94.0981 56.3784 94.3614 56.4657 94.5809 56.6405C94.4492 56.3784 94.2736 56.1599 94.0542 55.9415C93.8786 55.7667 93.6592 55.592 93.3958 55.4172C93.1325 55.2425 92.8691 55.1551 92.5619 55.0677C92.2985 54.9804 91.9913 54.9367 91.684 54.9367Z" fill="#373435"/>
<path d="M116.503 61.2408C116.503 61.5466 116.635 61.8087 116.854 61.9835C117.074 62.1583 117.381 62.2456 117.732 62.2456C118.215 62.2456 118.566 62.0709 118.873 61.7214C119.137 61.3282 119.312 60.8476 119.312 60.1486C119.312 59.2748 119.049 58.5758 118.478 58.139C117.952 57.6584 117.205 57.4399 116.328 57.4399H113.036C113.387 57.7458 113.65 58.139 113.87 58.6195C114.089 59.1001 114.177 59.5807 114.177 60.1486C114.177 60.6729 114.133 61.1534 113.957 61.5466C113.826 61.9398 113.606 62.2893 113.343 62.5514C113.08 62.8136 112.772 63.032 112.377 63.2068C111.982 63.3378 111.587 63.4252 111.104 63.4252C110.578 63.4252 110.095 63.3378 109.7 63.1631C109.305 62.9883 108.998 62.7699 108.734 62.5078C108.471 62.8136 108.164 63.032 107.769 63.1631C107.374 63.3378 106.935 63.4252 106.452 63.4252C105.881 63.4252 105.355 63.2941 104.96 63.1194C104.521 62.9009 104.214 62.6825 103.994 62.4641C103.687 62.7699 103.336 62.9883 102.897 63.1631C102.502 63.3378 102.019 63.4252 101.492 63.4252C100.966 63.4252 100.483 63.3378 100.088 63.1631C99.6488 62.9883 99.2538 62.7262 98.9466 62.4204C98.6393 62.0709 98.4199 61.6777 98.2443 61.2408C98.0687 60.8039 97.981 60.2797 97.981 59.7554C97.981 59.1875 98.0687 58.7069 98.2443 58.27C98.4199 57.8331 98.6832 57.4399 98.9905 57.1341C99.2977 56.7846 99.6488 56.5225 100.088 56.3477C100.527 56.173 100.966 56.0856 101.492 56.0856C102.019 56.0856 102.502 56.173 102.897 56.3477C103.336 56.5225 103.731 56.7846 104.038 57.0904C104.345 57.4399 104.565 57.8331 104.74 58.27C104.916 58.7069 105.004 59.1875 105.004 59.7554C105.004 60.0612 104.96 60.367 104.916 60.6292C104.872 60.935 104.784 61.1971 104.696 61.4592C104.828 61.6777 105.047 61.8961 105.355 62.0272C105.662 62.1583 105.969 62.2456 106.32 62.2456C106.891 62.2456 107.33 62.0709 107.681 61.6777C107.988 61.2845 108.164 60.7602 108.164 60.0612C108.164 59.7117 108.12 59.4059 108.076 59.1438C107.988 58.8817 107.9 58.6195 107.769 58.4011C107.637 58.2263 107.461 58.0079 107.33 57.8331C107.154 57.7021 106.935 57.5273 106.759 57.3963H105.618C105.574 57.3526 105.574 57.2652 105.53 57.1778C105.486 57.0904 105.486 57.0031 105.486 56.872C105.486 56.6536 105.53 56.5225 105.618 56.4351C105.706 56.3477 105.838 56.3477 106.013 56.3477H107.725C108.164 56.3477 108.339 56.1293 108.339 55.7798C108.339 55.6051 108.339 55.4303 108.252 55.2555C108.295 55.2119 108.383 55.1682 108.515 55.1245C108.603 55.0371 108.734 55.0371 108.866 55.0371C109.085 55.0371 109.261 55.1245 109.437 55.2555C109.568 55.4303 109.656 55.6487 109.656 55.9982C109.656 56.3914 109.524 56.6973 109.349 56.9157C109.129 57.1778 108.822 57.3089 108.427 57.3963C108.734 57.7021 108.998 58.0516 109.217 58.5321C109.437 58.969 109.568 59.4933 109.568 60.1049C109.568 60.6292 109.48 61.0661 109.349 61.4592C109.524 61.7214 109.744 61.8961 110.051 62.0272C110.314 62.1583 110.622 62.2456 110.973 62.2456C111.499 62.2456 111.938 62.0709 112.29 61.6777C112.597 61.3282 112.772 60.8039 112.772 60.1486C112.772 59.4933 112.641 58.969 112.377 58.5321C112.114 58.0516 111.763 57.7021 111.324 57.4399H110.534C110.49 57.3526 110.446 57.2652 110.446 57.1778C110.402 57.0904 110.402 57.0031 110.402 56.872C110.402 56.6973 110.446 56.5662 110.534 56.4788C110.622 56.3914 110.753 56.3477 110.929 56.3477H116.591C117.205 56.3477 117.776 56.4351 118.259 56.6099C118.742 56.7846 119.18 57.0468 119.532 57.3963C119.883 57.7458 120.146 58.139 120.366 58.6195C120.541 59.1001 120.629 59.5807 120.629 60.1486C120.629 60.6729 120.585 61.1534 120.453 61.5466C120.278 61.9398 120.102 62.2893 119.839 62.5514C119.575 62.8573 119.268 63.032 118.917 63.2068C118.522 63.3378 118.127 63.4252 117.688 63.4252C117.337 63.4252 117.03 63.3378 116.723 63.2504C116.415 63.1631 116.152 62.9883 115.933 62.8136C115.669 62.6388 115.494 62.3767 115.362 62.1146C115.23 61.8524 115.142 61.5466 115.142 61.1534C115.142 60.8476 115.23 60.5855 115.318 60.3234C115.406 60.0612 115.581 59.8865 115.757 59.7117C115.933 59.537 116.108 59.4059 116.371 59.3185C116.591 59.2312 116.81 59.1875 117.074 59.1875C117.381 59.1875 117.6 59.2748 117.776 59.4059C117.908 59.537 117.995 59.668 117.995 59.8865C117.995 60.0612 117.952 60.236 117.864 60.367C117.732 60.3234 117.6 60.3234 117.469 60.3234C117.205 60.3234 116.986 60.4107 116.81 60.5418C116.591 60.7165 116.503 60.935 116.503 61.2408ZM101.492 62.2456C101.843 62.2456 102.107 62.1583 102.37 62.0709C102.633 61.9398 102.853 61.7651 103.028 61.5466C103.204 61.3282 103.38 61.0661 103.467 60.7602C103.555 60.4544 103.599 60.1049 103.599 59.7554C103.599 59.3622 103.555 59.0127 103.467 58.7069C103.38 58.4011 103.204 58.139 103.028 57.9205C102.853 57.7021 102.633 57.5273 102.37 57.3963C102.107 57.3089 101.843 57.2215 101.492 57.2215C101.185 57.2215 100.922 57.3089 100.658 57.3963C100.395 57.5273 100.176 57.7021 99.9561 57.9205C99.7805 58.139 99.6488 58.4448 99.561 58.7506C99.4294 59.0564 99.3855 59.3622 99.3855 59.7554C99.3855 60.1049 99.4294 60.4544 99.561 60.7602C99.6488 61.0661 99.7805 61.3282 99.9561 61.5466C100.176 61.7651 100.395 61.9398 100.658 62.0709C100.922 62.1583 101.185 62.2456 101.492 62.2456Z" fill="#373435"/>
</svg>
