<svg width="65" height="54" viewBox="0 0 65 54" fill="none" xmlns="http://www.w3.org/2000/svg">
<path d="M29.5579 49.0421C15.3158 49.0421 3.75789 38.2421 3.75789 24.9158C3.75789 11.5895 15.3158 0.789474 29.5579 0.789474C30.6 0.789474 31.6421 0.852632 32.6842 0.978947C30.4737 0.315789 28.1684 0 25.8 0C11.5579 0 0 11.5579 0 25.8C0 40.0421 11.5579 51.6 25.8 51.6C31.6421 51.6 37.0421 49.6421 41.3684 46.3579C37.8316 48.0632 33.8211 49.0421 29.5579 49.0421Z" fill="#EE734E"/>
<path d="M12.8508 41.3687L21.4719 46.1055L10.6719 54.0002L12.8508 41.3687Z" fill="#F8F9FA"/>
<path d="M27.9796 3.28418C15.7901 3.28418 5.9375 13.1684 5.9375 25.3263C5.9375 37.5158 15.8217 47.3684 27.9796 47.3684C40.1691 47.3684 50.0217 37.4842 50.0217 25.3263C50.0217 13.1368 40.1691 3.28418 27.9796 3.28418ZM27.9796 45.1894C16.9901 45.1894 8.11645 36.2842 8.11645 25.3263C8.11645 14.3368 17.0217 5.46313 27.9796 5.46313C38.9375 5.46313 47.8428 14.3684 47.8428 25.3263C47.8428 36.3158 38.9375 45.1894 27.9796 45.1894Z" fill="#246830"/>
<path d="M14.6508 41.4634L11.0508 53.1476L20.556 44.3055L14.6508 41.4634Z" fill="#246830"/>
<path d="M51.0653 14.7158H42.918V35.9684H51.0653V14.7158Z" fill="#F8F9FA"/>
<path fill-rule="evenodd" clip-rule="evenodd" d="M18.287 31.2318C17.0554 31.2318 15.8554 31.2634 14.6554 31.2318C13.8028 31.2002 13.2344 30.5687 13.2344 29.6845C13.2344 26.0213 13.2344 22.3266 13.2344 18.6634C13.2344 17.8108 13.866 17.1792 14.7502 17.1792C17.687 17.1792 20.6554 17.1792 23.5923 17.1792C24.3817 17.1792 25.0765 17.7476 25.0765 18.5055C25.1081 20.4634 25.0765 22.4213 25.0765 24.3792C24.6028 24.1581 24.1607 23.9371 23.7186 23.6845C23.6238 23.6529 23.6238 23.4318 23.6238 23.3055C23.6238 21.8845 23.6238 20.495 23.6238 19.0739C23.6238 18.9476 23.6238 18.7897 23.6238 18.6318C20.6554 18.6318 17.7186 18.6318 14.7502 18.6318C14.7502 22.3266 14.7502 26.0213 14.7502 29.7476C15.5712 29.7476 16.3923 29.7476 17.2133 29.7476C17.466 29.7476 17.5923 29.8108 17.687 30.0318C17.8449 30.4108 18.066 30.7897 18.287 31.2318Z" fill="#F18769"/>
<path fill-rule="evenodd" clip-rule="evenodd" d="M25.234 30.3478C25.9287 31.0109 26.6235 31.6741 27.2866 32.3372C26.9077 32.7162 26.5919 33.032 26.2129 33.4109C25.7708 32.9688 25.234 32.4951 24.7603 31.9583C24.3813 31.5478 24.1287 31.4214 23.5287 31.6741C22.1392 32.2741 20.8129 32.053 19.6761 31.0425C18.5392 30.032 18.1603 28.7372 18.5708 27.2846C18.9813 25.8004 19.9919 24.8846 21.5077 24.632C22.9603 24.3793 24.1919 24.8846 25.0761 26.053C25.9603 27.253 26.055 28.5478 25.455 29.8741C25.3919 30.032 25.3287 30.1583 25.234 30.3478ZM24.3498 28.2635C24.3498 27.032 23.3392 26.0214 22.1077 26.0214C20.9077 26.0214 19.8656 27.032 19.8656 28.232C19.8656 29.4635 20.9077 30.5056 22.1077 30.5056C23.3392 30.4741 24.3813 29.4635 24.3498 28.2635Z" fill="#F18769"/>
<path d="M29.8093 24.0314C29.2725 24.0314 28.9883 23.9051 28.9883 23.3051V17.1472C28.9883 16.5472 29.3041 16.4209 29.8093 16.4209H31.1356C32.4304 16.4209 33.4093 16.7683 34.0725 17.4946C34.7357 18.2209 35.1146 19.1367 35.1462 20.3367C35.1462 21.4104 34.8304 22.2946 34.1356 22.9893C33.4725 23.6841 32.3988 24.0314 30.9462 24.0314H29.8093ZM30.6935 22.4209H31.1356C32.6514 22.4209 33.3778 21.6946 33.3778 20.3683C33.3778 18.8525 32.683 18.0314 31.1672 18.0314H30.6935V22.4209Z" fill="#246830"/>
<path d="M37.9595 22.4525H40.6753C41.2121 22.4525 41.4963 22.7367 41.4963 23.2419C41.4963 23.7788 41.1806 24.0314 40.6753 24.0314H37.0437C36.4437 24.0314 36.2227 23.9051 36.2227 23.3051V17.1472C36.2227 16.5472 36.4437 16.4209 37.0437 16.4209H40.5806C41.1174 16.4209 41.4016 16.7051 41.4016 17.2104C41.4016 17.7472 41.0858 17.9998 40.5806 17.9998H37.9595V19.3893H40.3279C40.8648 19.3893 41.149 19.6735 41.149 20.1788C41.149 20.7156 40.8332 20.9998 40.3279 20.9998H37.9595V22.4525Z" fill="#246830"/>
<path d="M44.3029 21.0314V22.9577C44.3029 23.7156 43.924 23.9998 43.4503 23.9998C42.945 23.9998 42.5977 23.6841 42.5977 22.9577V17.463C42.5977 16.7367 42.945 16.4209 43.4503 16.4209C43.9556 16.4209 44.3029 16.7367 44.3029 17.463V19.263L46.6398 16.8946C47.145 16.3262 47.6187 16.3577 47.9345 16.6104C48.2819 16.8946 48.3766 17.4314 47.8713 17.9367L45.5345 20.1156L48.0292 22.4209C48.3134 22.7051 48.4398 22.9577 48.4398 23.1788C48.4398 23.3998 48.3766 23.5893 48.2187 23.7472C48.0608 23.9051 47.8713 23.9683 47.6503 23.9683C47.4292 23.9683 47.1766 23.842 46.924 23.5577L44.3029 21.0314Z" fill="#246830"/>
<path d="M51.2209 20.9683V22.9893C51.2209 23.7472 50.8419 24.0314 50.3683 24.0314C49.863 24.0314 49.5156 23.7156 49.5156 22.9893V17.463C49.5156 16.7367 49.863 16.4209 50.3683 16.4209C50.8735 16.4209 51.2209 16.7367 51.2209 17.463V19.3577H53.7788V17.463C53.7788 16.7367 54.1577 16.4209 54.6314 16.4209C55.1367 16.4209 55.484 16.7367 55.484 17.463V22.9893C55.484 23.7472 55.1367 24.0314 54.6314 24.0314C54.1261 24.0314 53.7788 23.7156 53.7788 22.9893V20.9683H51.2209Z" fill="#246830"/>
<path d="M60.5021 24.2211C59.3968 24.2211 58.4494 23.8421 57.6915 23.1158C56.9336 22.3579 56.5547 21.4106 56.5547 20.2421C56.5547 19.0737 56.9336 18.0948 57.6915 17.3684C58.4494 16.6421 59.3968 16.2632 60.5021 16.2632C61.6073 16.2632 62.5547 16.6421 63.3126 17.3684C64.0705 18.0948 64.4494 19.0737 64.4494 20.2421C64.4494 21.4106 64.0705 22.3579 63.3126 23.1158C62.5547 23.8421 61.6389 24.2211 60.5021 24.2211ZM60.5021 22.4842C61.1336 22.4842 61.6389 22.2632 62.0178 21.8842C62.4284 21.4737 62.6178 20.9053 62.6178 20.2421C62.6178 19.5474 62.4284 19.0106 62.0178 18.6C61.6389 18.1895 61.1336 17.9684 60.5021 17.9684C59.8705 17.9684 59.3652 18.1895 58.9863 18.6C58.6073 19.0106 58.4178 19.579 58.4178 20.2421C58.4178 20.9369 58.6073 21.4737 58.9863 21.8842C59.3652 22.2948 59.8705 22.4842 60.5021 22.4842Z" fill="#246830"/>
<path d="M38.8711 27.1582H39.7869V32.4003H38.8711V27.1582Z" fill="black"/>
<path d="M40.9531 28.4844H41.711L41.7742 29.0212H41.8058C42.1531 28.6739 42.5637 28.3896 43.1005 28.3896C43.9531 28.3896 44.3005 28.9581 44.3005 29.937V32.4002H43.3847V30.0633C43.3847 29.4002 43.1952 29.1791 42.7531 29.1791C42.4058 29.1791 42.1847 29.337 41.8689 29.6528V32.4002H40.9531V28.4844Z" fill="black"/>
<path d="M46.7359 28.3893C47.178 28.3893 47.4622 28.5472 47.778 28.8314L47.7464 28.1999V26.7788H48.6622V32.4314H47.9043L47.8411 32.0209H47.8095C47.5253 32.3051 47.1148 32.5262 46.7043 32.5262C45.7253 32.5262 45.0938 31.7683 45.0938 30.4735C45.0937 29.1472 45.8832 28.3893 46.7359 28.3893ZM46.9253 31.7367C47.2411 31.7367 47.4937 31.6104 47.7464 31.2946V29.463C47.4622 29.2104 47.2095 29.1472 46.9569 29.1472C46.4516 29.1472 46.0411 29.6209 46.0411 30.442C46.0411 31.2946 46.3569 31.7367 46.9253 31.7367Z" fill="black"/>
<path d="M49.6367 27.2527C49.6367 26.9369 49.8894 26.7158 50.2051 26.7158C50.5209 26.7158 50.7736 26.9369 50.7736 27.2527C50.7736 27.5685 50.5209 27.7579 50.2051 27.7579C49.8578 27.7895 49.6367 27.5685 49.6367 27.2527ZM49.7315 28.4842H50.6472V32.4H49.7315V28.4842Z" fill="black"/>
<path d="M53.8723 29.8737C53.8723 29.4632 53.6829 29.1158 53.146 29.1158C52.7671 29.1158 52.3881 29.3053 52.0407 29.4948L51.6934 28.8632C52.1355 28.579 52.6723 28.3579 53.3039 28.3579C54.2829 28.3579 54.7565 28.9579 54.7565 30.0632V32.4H53.9986L53.9355 31.9579H53.9039C53.5565 32.2421 53.146 32.4948 52.6723 32.4948C51.9776 32.4948 51.5039 32.0211 51.5039 31.3579C51.5671 30.5053 52.2618 30.0632 53.8723 29.8737ZM53.0197 31.7684C53.3355 31.7684 53.5881 31.6105 53.8723 31.3263V30.4421C52.7986 30.5684 52.4513 30.8526 52.4513 31.2632C52.4513 31.6105 52.6723 31.7684 53.0197 31.7684Z" fill="black"/>
</svg>
