<svg width="59" height="54" viewBox="0 0 59 54" fill="none" xmlns="http://www.w3.org/2000/svg">
<g clip-path="url(#clip0)">
<path fill-rule="evenodd" clip-rule="evenodd" d="M16.8651 15.6631C19.5809 15.6947 21.8862 17.3052 22.8651 19.8315C23.8125 22.2947 23.2125 25.0105 21.1599 26.7789C19.7704 27.9789 19.1704 29.4631 18.9809 31.1999C18.7914 32.9683 17.2756 34.3578 15.5704 34.3894C13.7704 34.421 12.2546 33.1262 11.9388 31.3262C11.9072 31.1683 11.8757 30.9473 11.9388 30.821C12.0335 30.6315 12.223 30.3789 12.3809 30.3789C12.5704 30.3789 12.823 30.5683 12.9493 30.7578C13.0441 30.9157 13.0125 31.1683 13.0757 31.3578C13.3283 32.5262 14.402 33.4105 15.5704 33.3473C16.8335 33.2841 17.8125 32.3368 17.9704 31.1052C18.0335 30.5999 18.1283 30.0947 18.223 29.5894C18.5072 28.2315 19.2335 27.1578 20.2756 26.2736C21.3178 25.3894 21.9178 24.2841 22.1704 22.9262C22.6441 20.1473 20.5599 17.2736 17.7493 16.8947C15.8546 16.642 14.2441 17.1473 12.9178 18.5683C12.6967 18.821 12.4441 19.0105 12.1283 18.7262C11.8441 18.442 11.9072 18.1578 12.1283 17.842C13.1704 16.4841 15.002 15.6631 16.8651 15.6631Z" fill="#F18769"/>
<path fill-rule="evenodd" clip-rule="evenodd" d="M16.8363 25.9261C16.8363 25.1998 16.9626 24.9156 17.3731 24.9472C18.0047 24.9787 17.8784 25.5156 17.91 25.8945C18.0363 27.5051 16.9942 28.9893 15.5731 29.3051C14.8152 29.463 14.1521 29.3051 13.6468 28.7051C13.11 28.1051 12.9836 27.3472 13.331 26.6208C13.5205 26.1787 13.8678 25.7682 14.1836 25.4208C14.7521 24.8208 14.7836 24.6945 14.3415 23.9998C14.2468 23.8419 14.1205 23.684 13.9942 23.5261C12.9836 22.3893 13.2994 21.1261 13.9942 20.084C15.1626 18.3787 17.6573 18.063 19.2678 19.3893C20.8152 20.7156 20.91 23.2103 19.4573 24.663C19.331 24.7893 19.11 24.9787 18.9521 24.9787C18.7942 24.9787 18.51 24.8208 18.4784 24.6945C18.4152 24.5051 18.4784 24.2208 18.6363 24.063C19.1731 23.4945 19.4889 22.863 19.4889 22.0735C19.4573 20.8419 18.51 19.7998 17.2784 19.6419C16.2047 19.484 14.8468 20.3366 14.531 21.3787C14.3731 21.8524 14.4678 22.2945 14.7521 22.7051C15.0047 23.084 15.2889 23.463 15.51 23.8735C15.8889 24.5366 15.7942 25.1682 15.2889 25.7366C15.0363 26.0208 14.7836 26.2735 14.5626 26.5261C14.1836 26.9682 14.1205 27.5998 14.4363 27.9472C14.7205 28.3261 15.3205 28.3577 15.8573 28.0419C16.4573 27.6945 16.8363 26.8735 16.8363 25.9261Z" fill="#F18769"/>
<path fill-rule="evenodd" clip-rule="evenodd" d="M28.4549 27.7895C28.4549 30.7895 26.4023 33.3789 23.497 33.9789C22.9918 34.0737 22.4233 34.0737 21.9181 34.0105C21.7286 33.9789 21.476 33.6631 21.4444 33.4421C21.4128 33.1263 21.6339 33 21.9812 32.9684C25.9918 32.8737 28.297 29.5263 27.0339 25.6421C26.9076 25.2631 26.7497 24.9158 26.5918 24.5368C26.4339 24.1895 26.497 23.9052 26.8444 23.7473C27.1918 23.5579 27.4128 23.7789 27.5707 24.0947C28.1076 25.3263 28.4549 26.5263 28.4549 27.7895Z" fill="#F18769"/>
<path fill-rule="evenodd" clip-rule="evenodd" d="M26.3065 27.5685C26.2434 30.0632 24.1907 31.9895 21.7907 31.8C21.4118 31.7684 21.2539 31.579 21.2539 31.2316C21.2539 30.9158 21.4434 30.7579 21.7907 30.7263C22.1697 30.7263 22.5486 30.6948 22.9276 30.6C24.696 30.1263 25.5802 28.4527 25.0434 26.4948C24.9802 26.2737 24.8855 26.0527 24.7907 25.8C24.6644 25.4527 24.7592 25.1369 25.1381 25.0106C25.5171 24.8527 25.7065 25.1369 25.7697 25.4211C25.9276 26.1158 26.1171 26.8421 26.3065 27.5685Z" fill="#F18769"/>
<path fill-rule="evenodd" clip-rule="evenodd" d="M23.844 27.6314C23.7809 28.7367 22.8967 29.6209 21.8546 29.6209C21.444 29.6209 21.223 29.4314 21.1914 29.0525C21.1914 28.7051 21.444 28.5788 21.7914 28.5472C22.6756 28.4841 22.9598 27.9788 22.5809 27.1577C22.423 26.8104 22.423 26.5577 22.7704 26.3683C23.1177 26.1788 23.4019 26.3683 23.5283 26.6525C23.6861 26.9683 23.7493 27.3156 23.844 27.6314Z" fill="#F18769"/>
<path d="M29.5579 49.0421C15.3158 49.0421 3.75789 38.2421 3.75789 24.9158C3.75789 11.5895 15.3158 0.789474 29.5579 0.789474C30.6 0.789474 31.6421 0.852632 32.6842 0.978947C30.4737 0.315789 28.1684 0 25.8 0C11.5579 0 0 11.5579 0 25.8C0 40.0421 11.5579 51.6 25.8 51.6C31.6421 51.6 37.0421 49.6421 41.3684 46.3579C37.8316 48.0632 33.8211 49.0421 29.5579 49.0421Z" fill="#EE734E"/>
<path d="M12.8508 41.3687L21.4719 46.1055L10.6719 54.0002L12.8508 41.3687Z" fill="#F8F9FA"/>
<path d="M27.9796 3.28418C15.7901 3.28418 5.9375 13.1684 5.9375 25.3263C5.9375 37.5158 15.8217 47.3684 27.9796 47.3684C40.1691 47.3684 50.0217 37.4842 50.0217 25.3263C50.0217 13.1368 40.1691 3.28418 27.9796 3.28418ZM27.9796 45.1894C16.9901 45.1894 8.11645 36.2842 8.11645 25.3263C8.11645 14.3368 17.0217 5.46313 27.9796 5.46313C38.9375 5.46313 47.8428 14.3684 47.8428 25.3263C47.8428 36.3158 38.9375 45.1894 27.9796 45.1894Z" fill="#246830"/>
<path d="M14.6508 41.4634L11.0508 53.1476L20.556 44.3055L14.6508 41.4634Z" fill="#246830"/>
<path d="M51.0653 16.2002H42.918V34.4212H51.0653V16.2002Z" fill="#F8F9FA"/>
<path d="M36.0352 27.6318H36.951V32.8424H36.0352V27.6318Z" fill="black"/>
<path d="M38.1172 28.9263H38.8751L38.9382 29.4631H38.9698C39.3172 29.1158 39.7277 28.8315 40.2646 28.8315C41.1172 28.8315 41.4646 29.4 41.4646 30.3789V32.8421H40.5488V30.5052C40.5488 29.8421 40.3593 29.621 39.9172 29.621C39.5698 29.621 39.3488 29.7789 39.033 30.0947V32.8421H38.1172V28.9263Z" fill="black"/>
<path d="M43.9321 28.8317C44.3742 28.8317 44.6584 28.9896 44.9742 29.2738L44.9426 28.6422V27.2212H45.8584V32.8423H45.1005L45.0373 32.4317H45.0057C44.7215 32.7159 44.311 32.937 43.9005 32.937C42.9215 32.937 42.2899 32.1791 42.2899 30.8844C42.2584 29.6212 43.0794 28.8317 43.9321 28.8317ZM44.09 32.1791C44.4057 32.1791 44.6584 32.0528 44.911 31.737V29.9054C44.6268 29.6528 44.3742 29.5896 44.1215 29.5896C43.6163 29.5896 43.2057 30.0633 43.2057 30.8844C43.2057 31.737 43.5215 32.1791 44.09 32.1791Z" fill="black"/>
<path d="M46.8008 27.7263C46.8008 27.4105 47.0534 27.1895 47.3692 27.1895C47.685 27.1895 47.9376 27.4105 47.9376 27.7263C47.9376 28.0421 47.685 28.2316 47.3692 28.2316C47.0534 28.2316 46.8008 28.0105 46.8008 27.7263ZM46.8955 28.9263H47.8113V32.8421H46.8955V28.9263Z" fill="black"/>
<path d="M51.0364 30.3473C51.0364 29.9368 50.8469 29.5894 50.3101 29.5894C49.9311 29.5894 49.5522 29.7789 49.2048 29.9684L48.8574 29.3368C49.2995 29.0526 49.8364 28.8315 50.468 28.8315C51.4469 28.8315 51.9206 29.4315 51.9206 30.5368V32.8737H51.1627L51.0995 32.4316H51.068C50.7206 32.7158 50.3101 32.9684 49.8364 32.9684C49.1417 32.9684 48.668 32.4947 48.668 31.8C48.7311 30.9473 49.4259 30.5052 51.0364 30.3473ZM50.1838 32.2421C50.4995 32.2421 50.7522 32.0842 51.0364 31.8V30.9158C49.9627 31.0421 49.6153 31.3263 49.6153 31.7368C49.6153 32.0842 49.868 32.2421 50.1838 32.2421Z" fill="black"/>
<path d="M32.7178 23.242C32.7178 22.9578 32.6231 22.7683 32.4652 22.642C32.3073 22.5157 31.9599 22.3578 31.4862 22.1683C30.1599 21.6946 29.4652 20.9999 29.4652 19.8946C29.4652 19.1999 29.7178 18.6315 30.1915 18.2209C30.6968 17.8104 31.3283 17.5894 32.0862 17.5894C33.2862 17.5894 34.0757 18.063 34.0757 18.7262C34.0757 19.263 33.7915 19.5473 33.2862 19.5473C33.1283 19.5473 32.9704 19.4841 32.781 19.3894C32.5915 19.263 32.3704 19.1999 32.1178 19.1999C31.6125 19.1999 31.2652 19.4525 31.2652 19.8946C31.2652 20.242 31.6125 20.5262 32.3073 20.7788C33.1283 21.063 33.6652 21.4104 34.0125 21.7262C34.3599 22.042 34.5178 22.5473 34.5178 23.1788C34.5178 23.9367 34.2652 24.5367 33.7283 24.9788C33.2231 25.4209 32.5283 25.642 31.7073 25.642C31.0441 25.642 30.5073 25.5157 30.0968 25.263C29.6546 25.0104 29.4336 24.7262 29.4336 24.3788C29.4336 23.9051 29.781 23.5262 30.2862 23.5262C30.4441 23.5262 30.6336 23.5894 30.9178 23.7473C31.202 23.9051 31.4862 23.9683 31.7389 23.9683C32.3704 24.0315 32.7178 23.6841 32.7178 23.242Z" fill="#246830"/>
<path d="M40.9905 17.7788C41.4958 17.7788 41.8747 18.0946 41.8747 18.8209V22.1051C41.8747 23.2104 41.5905 24.0946 40.9905 24.6946C40.4221 25.3262 39.6326 25.6104 38.6852 25.6104C37.7379 25.6104 36.9484 25.2946 36.38 24.6946C35.8116 24.063 35.5273 23.2104 35.5273 22.1051V18.8525C35.5273 18.1262 35.8747 17.8104 36.4116 17.8104C36.9168 17.8104 37.2958 18.1262 37.2958 18.8525V22.0735C37.2958 23.3051 37.8642 23.9999 38.7484 23.9999C39.6326 23.9999 40.201 23.3051 40.201 22.0735V18.8525C40.1063 18.0946 40.4852 17.7788 40.9905 17.7788Z" fill="#246830"/>
<path d="M44.8459 21.0944L44.909 24.3787C44.909 25.1365 44.5301 25.4523 44.0248 25.4523C43.5196 25.4523 43.1406 25.1365 43.1406 24.3787V18.5997C43.1406 18.0629 43.4564 17.7471 43.9933 17.7471C44.3722 17.7471 44.688 17.9365 44.9722 18.3471L47.6248 22.2313L47.5617 18.8523C47.5617 18.126 47.9406 17.8102 48.4459 17.8102C48.9511 17.8102 49.3301 18.126 49.3301 18.8523V24.6629C49.3301 25.1997 49.0143 25.5155 48.4775 25.5155C48.0985 25.5155 47.7827 25.326 47.4985 24.9155L44.8459 21.0944Z" fill="#246830"/>
<path d="M54.35 25.6421C53.2132 25.6421 52.2658 25.2632 51.5079 24.5369C50.75 23.779 50.3711 22.8316 50.3711 21.6316C50.3711 20.4316 50.75 19.4843 51.5079 18.7264C52.2658 18 53.2132 17.6211 54.35 17.6211C55.4869 17.6211 56.4343 18 57.1922 18.7579C57.95 19.4843 58.329 20.4632 58.329 21.6316C58.329 22.8 57.95 23.779 57.1922 24.5369C56.4343 25.2632 55.4869 25.6421 54.35 25.6421ZM54.35 23.9053C54.9816 23.9053 55.4869 23.6842 55.8974 23.2737C56.3079 22.8632 56.4974 22.2948 56.4974 21.6C56.4974 20.9053 56.3079 20.3685 55.8974 19.9579C55.5185 19.5474 54.9816 19.3264 54.35 19.3264C53.7185 19.3264 53.2132 19.5474 52.8027 19.9579C52.4237 20.3685 52.2027 20.9369 52.2027 21.6C52.2027 22.2948 52.3921 22.8316 52.8027 23.2737C53.1816 23.6842 53.7185 23.9053 54.35 23.9053Z" fill="#246830"/>
</g>
<defs>
<clipPath id="clip0">
<rect width="58.3263" height="54" fill="white"/>
</clipPath>
</defs>
</svg>
