<svg width="122" height="103" viewBox="0 0 122 103" fill="none" xmlns="http://www.w3.org/2000/svg">
<path fill-rule="evenodd" clip-rule="evenodd" d="M31.1264 30.123C36.3495 30.1666 40.8264 33.2685 42.7137 38.1179C44.5572 42.8799 43.416 48.035 39.4219 51.4427C36.7445 53.7145 35.6033 56.5542 35.2522 59.9182C34.8572 63.3258 31.9604 65.9908 28.6685 66.0345C25.2011 66.0782 22.2604 63.6316 21.6898 60.1366C21.6459 59.8308 21.5142 59.4376 21.6459 59.1755C21.8214 58.826 22.2165 58.3017 22.4798 58.3017C22.8748 58.3017 23.3576 58.6512 23.5771 59.0007C23.7966 59.3065 23.7088 59.7871 23.7966 60.1803C24.2794 62.4521 26.3861 64.1122 28.6246 63.9812C31.0386 63.8938 32.9699 62.0589 33.2771 59.6997C33.3649 58.6949 33.5404 57.7338 33.7599 56.7289C34.2866 54.1514 35.6911 52.0543 37.7101 50.3505C39.773 48.6904 40.9142 46.5496 41.3531 43.9284C42.2748 38.5984 38.2368 33.0501 32.8382 32.3074C29.1952 31.8268 26.0789 32.7879 23.5332 35.5403C23.0943 36.0208 22.6554 36.414 22.0409 35.8024C21.4703 35.2781 21.5581 34.7102 22.0409 34.1423C23.9721 31.652 27.5273 30.0793 31.1264 30.123Z" fill="#F58B71"/>
<path fill-rule="evenodd" clip-rule="evenodd" d="M31.1264 30.123C36.3495 30.1666 40.8264 33.2685 42.7137 38.1179C44.5572 42.8799 43.416 48.035 39.4219 51.4427C36.7445 53.7145 35.6033 56.5542 35.2522 59.9182C34.8572 63.3258 31.9604 65.9908 28.6685 66.0345C25.2011 66.0782 22.2604 63.6316 21.6898 60.1366C21.6459 59.8308 21.5142 59.4376 21.6459 59.1755C21.8214 58.826 22.2165 58.3017 22.4798 58.3017C22.8748 58.3017 23.3576 58.6512 23.5771 59.0007C23.7966 59.3065 23.7088 59.7871 23.7966 60.1803C24.2794 62.4521 26.3861 64.1122 28.6246 63.9812C31.0386 63.8938 32.9699 62.0589 33.2771 59.6997C33.3649 58.6949 33.5404 57.7338 33.7599 56.7289C34.2866 54.1514 35.6911 52.0543 37.7101 50.3505C39.773 48.6904 40.9142 46.5496 41.3531 43.9284C42.2748 38.5984 38.2368 33.0501 32.8382 32.3074C29.1952 31.8268 26.0789 32.7879 23.5332 35.5403C23.0943 36.0208 22.6554 36.414 22.0409 35.8024C21.4703 35.2781 21.5581 34.7102 22.0409 34.1423C23.9721 31.652 27.5273 30.0793 31.1264 30.123Z" stroke="#F58B71" stroke-width="0.0135276"/>
<path fill-rule="evenodd" clip-rule="evenodd" d="M31.0227 49.8004C31.0227 48.4024 31.2861 47.8782 32.0322 47.9218C33.3051 48.0092 32.9978 49.014 33.0856 49.7567C33.349 52.8586 31.3299 55.6983 28.5648 56.3099C27.0725 56.5721 25.7996 56.2662 24.834 55.174C23.8245 53.9508 23.5612 52.5528 24.2195 51.1548C24.6146 50.281 25.229 49.4946 25.8874 48.8393C26.9847 47.7034 27.0725 47.4413 26.1508 46.1306C25.9752 45.8248 25.7557 45.519 25.5363 45.2569C23.6051 43.0288 24.1756 40.6259 25.5363 38.66C27.7747 35.3397 32.6028 34.7281 35.6752 37.3057C38.6598 39.8396 38.8793 44.6452 36.0263 47.4413C35.763 47.7034 35.4119 48.0092 35.0607 48.0092C34.7535 48.0529 34.1829 47.7471 34.139 47.4413C34.0073 47.0918 34.139 46.5238 34.4023 46.2617C35.4119 45.1695 36.0702 43.9462 36.0702 42.4172C36.0263 40.1017 34.1829 38.0484 31.8128 37.7425C29.706 37.4804 27.1603 39.0969 26.5458 41.0628C26.2385 42.024 26.4141 42.854 26.9847 43.6404C27.4675 44.3831 27.9942 45.0821 28.4331 45.8685C29.1354 47.1355 29.0037 48.3587 28.0381 49.4509C27.5553 49.9752 27.0725 50.4557 26.5897 51.0237C25.8435 51.8538 25.7557 53.0333 26.3263 53.7323C26.8969 54.4313 28.0381 54.5187 29.0915 53.9071C30.3204 53.2081 31.0666 51.679 31.0227 49.8004Z" fill="#F58B71"/>
<path fill-rule="evenodd" clip-rule="evenodd" d="M31.0227 49.8004C31.0227 48.4024 31.2861 47.8782 32.0322 47.9218C33.3051 48.0092 32.9978 49.014 33.0856 49.7567C33.349 52.8586 31.3299 55.6983 28.5648 56.3099C27.0725 56.5721 25.7996 56.2662 24.834 55.174C23.8245 53.9508 23.5612 52.5528 24.2195 51.1548C24.6146 50.281 25.229 49.4946 25.8874 48.8393C26.9847 47.7034 27.0725 47.4413 26.1508 46.1306C25.9752 45.8248 25.7557 45.519 25.5363 45.2569C23.6051 43.0288 24.1756 40.6259 25.5363 38.66C27.7747 35.3397 32.6028 34.7281 35.6752 37.3057C38.6598 39.8396 38.8793 44.6452 36.0263 47.4413C35.763 47.7034 35.4119 48.0092 35.0607 48.0092C34.7535 48.0529 34.1829 47.7471 34.139 47.4413C34.0073 47.0918 34.139 46.5238 34.4023 46.2617C35.4119 45.1695 36.0702 43.9462 36.0702 42.4172C36.0263 40.1017 34.1829 38.0484 31.8128 37.7425C29.706 37.4804 27.1603 39.0969 26.5458 41.0628C26.2385 42.024 26.4141 42.854 26.9847 43.6404C27.4675 44.3831 27.9942 45.0821 28.4331 45.8685C29.1354 47.1355 29.0037 48.3587 28.0381 49.4509C27.5553 49.9752 27.0725 50.4557 26.5897 51.0237C25.8435 51.8538 25.7557 53.0333 26.3263 53.7323C26.8969 54.4313 28.0381 54.5187 29.0915 53.9071C30.3204 53.2081 31.0666 51.679 31.0227 49.8004Z" stroke="#F58B71" stroke-width="0.0135276"/>
<path fill-rule="evenodd" clip-rule="evenodd" d="M53.4625 53.4104C53.4625 59.1772 49.5561 64.114 43.8941 65.2935C42.9285 65.512 41.8751 65.512 40.8656 65.3809C40.5145 65.3372 40.0317 64.7256 39.9439 64.3324C39.8561 63.7208 40.3389 63.4587 40.9973 63.4587C48.7222 63.2402 53.1991 56.8181 50.7851 49.3911C50.5656 48.6484 50.2145 47.9494 49.9073 47.2504C49.6439 46.5951 49.7317 46.0708 50.3901 45.7213C51.0923 45.4155 51.5312 45.765 51.7946 46.4203C52.848 48.6047 53.5064 50.9202 53.4625 53.4104Z" fill="#F58B71"/>
<path fill-rule="evenodd" clip-rule="evenodd" d="M53.4625 53.4104C53.4625 59.1772 49.5561 64.114 43.8941 65.2935C42.9285 65.512 41.8751 65.512 40.8656 65.3809C40.5145 65.3372 40.0317 64.7256 39.9439 64.3324C39.8561 63.7208 40.3389 63.4587 40.9973 63.4587C48.7222 63.2402 53.1991 56.8181 50.7851 49.3911C50.5656 48.6484 50.2145 47.9494 49.9073 47.2504C49.6439 46.5951 49.7317 46.0708 50.3901 45.7213C51.0923 45.4155 51.5312 45.765 51.7946 46.4203C52.848 48.6047 53.5064 50.9202 53.4625 53.4104Z" stroke="#F58B71" stroke-width="0.0135276"/>
<path fill-rule="evenodd" clip-rule="evenodd" d="M49.335 52.9227C49.2472 57.6847 45.2532 61.4419 40.6007 61.0487C39.8984 61.005 39.5034 60.6118 39.5034 60.0002C39.5034 59.3886 39.8984 59.0391 40.5568 59.0391C41.2591 58.9954 42.0052 58.9517 42.7075 58.7332C46.1749 57.8595 47.8427 54.5829 46.7893 50.8694C46.6577 50.4325 46.4821 50.0393 46.3065 49.6025C46.0871 48.9034 46.2188 48.3355 46.9649 48.0297C47.7111 47.7676 48.0622 48.2918 48.2377 48.8161C48.6328 50.1704 48.94 51.5684 49.335 52.9227Z" fill="#F58B71"/>
<path fill-rule="evenodd" clip-rule="evenodd" d="M49.335 52.9227C49.2472 57.6847 45.2532 61.4419 40.6007 61.0487C39.8984 61.005 39.5034 60.6118 39.5034 60.0002C39.5034 59.3886 39.8984 59.0391 40.5568 59.0391C41.2591 58.9954 42.0052 58.9517 42.7075 58.7332C46.1749 57.8595 47.8427 54.5829 46.7893 50.8694C46.6577 50.4325 46.4821 50.0393 46.3065 49.6025C46.0871 48.9034 46.2188 48.3355 46.9649 48.0297C47.7111 47.7676 48.0622 48.2918 48.2377 48.8161C48.6328 50.1704 48.94 51.5684 49.335 52.9227Z" stroke="#F58B71" stroke-width="0.0135276"/>
<path fill-rule="evenodd" clip-rule="evenodd" d="M44.6387 53.0439C44.5071 55.1846 42.7953 56.8447 40.7763 56.8447C40.0301 56.8447 39.5473 56.4952 39.5034 55.7525C39.5034 55.0535 39.9862 54.8351 40.6446 54.7914C42.3564 54.6166 42.927 53.6555 42.1369 52.1264C41.8297 51.4711 41.8297 50.9905 42.5319 50.641C43.1903 50.2478 43.717 50.5973 43.9804 51.209C44.2876 51.7769 44.4193 52.4322 44.6387 53.0439Z" fill="#F58B71"/>
<path fill-rule="evenodd" clip-rule="evenodd" d="M44.6387 53.0439C44.5071 55.1846 42.7953 56.8447 40.7763 56.8447C40.0301 56.8447 39.5473 56.4952 39.5034 55.7525C39.5034 55.0535 39.9862 54.8351 40.6446 54.7914C42.3564 54.6166 42.927 53.6555 42.1369 52.1264C41.8297 51.4711 41.8297 50.9905 42.5319 50.641C43.1903 50.2478 43.717 50.5973 43.9804 51.209C44.2876 51.7769 44.4193 52.4322 44.6387 53.0439Z" stroke="#F58B71" stroke-width="0.0135276"/>
<path fill-rule="evenodd" clip-rule="evenodd" d="M39.2188 90.8191C45.0108 93.0212 51.3465 94.235 57.9844 94.235C66.1921 94.235 73.9609 92.3564 80.8079 89.0798C72.4247 95.3709 62.0224 99.128 50.7424 99.128C44.3123 99.128 38.1674 97.9164 32.5254 95.7105L39.2188 90.8191ZM25.1943 82.7322C14.7862 74.2247 8.21173 61.74 8.21173 47.8383C8.21173 22.2372 30.5085 1.4417 57.9844 1.4417C60.0034 1.4417 62.0224 1.57277 63.9975 1.79121C59.784 0.611632 55.3071 0 50.7424 0C23.2225 0 0.925781 22.1935 0.925781 49.5859C0.925781 67.0349 10.0022 82.3855 23.7206 91.2123L25.1943 82.7322Z" fill="#F47D5C"/>
<path d="M29.2502 79.6162L22.3154 102.072L40.6619 85.1209L29.2502 79.6162Z" fill="#377044"/>
<path fill-rule="evenodd" clip-rule="evenodd" d="M16.5881 48.6527C16.5881 69.754 33.7495 86.836 54.949 86.836C68.9966 86.836 81.3025 79.3043 87.986 68.0653H92.8007C85.7203 81.7085 71.4135 91.0301 54.949 91.0301C31.4233 91.0301 12.3745 72.0695 12.3745 48.6527C12.3745 25.236 31.4233 6.27539 54.949 6.27539C70.6045 6.27539 84.309 14.7033 91.7052 27.2607H86.7249C79.8217 17.1257 68.155 10.4694 54.949 10.4694C33.7495 10.4694 16.5881 27.5514 16.5881 48.6527Z" fill="#377044"/>
<path d="M67.6125 32.8496C68.0075 32.8496 68.4025 32.937 68.7975 33.0244C69.1926 33.1554 69.4998 33.3302 69.7632 33.5923C70.0704 33.8544 70.2898 34.1602 70.4654 34.5098C70.641 34.8593 70.7288 35.2961 70.7288 35.733C70.7288 36.2136 70.641 36.6505 70.4654 37.0437C70.2898 37.4368 70.0265 37.7864 69.7193 38.0485C69.3681 38.3106 69.017 38.529 68.5781 38.6601C68.1392 38.8349 67.6564 38.8786 67.1297 38.8786H65.9007V40.3639H70.3337C70.4215 40.495 70.4654 40.6261 70.5093 40.8008C70.5532 41.0193 70.5971 41.194 70.5971 41.4125C70.5971 41.762 70.5093 42.0241 70.3337 42.1988C70.1582 42.3299 69.9387 42.4173 69.6754 42.4173H68.4464C68.7537 42.7231 69.017 43.0289 69.1926 43.4221C69.3681 43.8153 69.4559 44.1648 69.4559 44.558C69.4559 45.1259 69.3242 45.6065 69.1048 46.0871C68.8414 46.524 68.5342 46.9171 68.0953 47.2667C67.7003 47.5725 67.2175 47.8346 66.603 48.053C66.0324 48.2278 65.374 48.3152 64.6718 48.3152C63.9695 48.3152 63.3112 48.2278 62.7406 48.053C62.1261 47.8783 61.5994 47.6162 61.2044 47.2667C60.7655 46.9608 60.4143 46.5676 60.1949 46.0871C59.9754 45.6502 59.8438 45.1259 59.8438 44.558C59.8438 44.2085 59.9315 43.8153 60.1071 43.4221C60.2388 43.0289 60.5021 42.7231 60.8094 42.4173H58.922C58.8343 42.2862 58.7904 42.1552 58.7465 41.9804C58.6587 41.8056 58.6587 41.6309 58.6587 41.4125C58.6587 41.0193 58.7465 40.7571 58.922 40.6261C59.0976 40.4513 59.3171 40.3639 59.5804 40.3639H63.355V38.8786H58.9659C58.8781 38.7912 58.8343 38.6164 58.7904 38.4417C58.7465 38.2669 58.7026 38.0922 58.7026 37.8737C58.7026 37.5242 58.7904 37.2621 58.9659 37.0873C59.1415 36.9563 59.3609 36.8689 59.6682 36.8689H67.0419C67.4808 36.8689 67.7881 36.7815 68.0514 36.5631C68.2709 36.3446 68.4025 36.0388 68.4025 35.6893C68.4025 35.3835 68.3147 35.1651 68.1831 34.9903C68.0514 34.8593 67.8319 34.7719 67.5686 34.7719C67.3491 34.7719 67.1736 34.8156 67.0419 34.9466C66.8663 35.0777 66.7786 35.2961 66.7786 35.5583C66.7786 35.6456 66.7786 35.733 66.8224 35.8641C66.7347 35.9078 66.6469 35.9515 66.4713 35.9951C66.2958 36.0388 66.1202 36.0388 65.9446 36.0388C65.5935 36.0388 65.2863 35.9515 65.0668 35.733C64.8473 35.5583 64.7596 35.2524 64.7596 34.9029C64.7596 34.335 64.979 33.8107 65.5057 33.4612C65.9885 33.068 66.6908 32.8496 67.6125 32.8496ZM64.6718 42.3736C63.9695 42.3736 63.4428 42.5483 63.0039 42.9415C62.565 43.291 62.3455 43.7716 62.3455 44.3832C62.3455 44.9512 62.565 45.4318 63.0039 45.7813C63.4428 46.1308 63.9695 46.3492 64.6718 46.3492C65.374 46.3492 65.9007 46.1308 66.2958 45.7813C66.7347 45.3881 66.9102 44.9512 66.9102 44.3832C66.9102 43.7716 66.7347 43.291 66.2958 42.9415C65.9007 42.5483 65.3301 42.3736 64.6718 42.3736Z" fill="#377044"/>
<path d="M76.5582 42.6812C76.1632 42.6812 75.7242 42.6375 75.3292 42.4628C74.9342 42.3317 74.5831 42.157 74.2758 41.8948L74.3197 42.0696C74.3636 42.6375 74.4514 43.1618 74.6708 43.6861C74.8464 44.1666 75.1098 44.6035 75.4609 44.9967C75.812 45.3899 76.2509 45.652 76.7776 45.9141C77.2604 46.1326 77.831 46.2636 78.4455 46.2636C78.4894 46.3947 78.5333 46.5258 78.5772 46.6568C78.5772 46.7879 78.6211 46.919 78.6211 47.05C78.6211 47.3995 78.4894 47.7053 78.27 47.9238C78.0505 48.1859 77.6994 48.317 77.2166 48.317C76.5582 48.317 75.9437 48.1422 75.2853 47.8364C74.6708 47.5306 74.1002 47.0937 73.5735 46.5258C73.0468 45.9578 72.6518 45.3025 72.3007 44.4724C71.9934 43.6861 71.8179 42.7686 71.8179 41.7638C71.8179 40.9774 71.9495 40.2347 72.169 39.5794C72.3885 38.9241 72.6518 38.3998 73.0468 37.9192C73.4419 37.4387 73.9247 37.0892 74.4514 36.8707C74.9781 36.6086 75.5926 36.4775 76.2509 36.4775C76.8215 36.4775 77.3043 36.5649 77.7433 36.7397C78.1383 36.9144 78.5333 37.1765 78.7967 37.4387C79.1039 37.7445 79.3234 38.094 79.4989 38.4435C79.6745 38.8367 79.7184 39.2299 79.7184 39.6668C79.7184 40.1036 79.6745 40.4968 79.4989 40.8463C79.3672 41.2395 79.1478 41.5453 78.8844 41.8075C78.6211 42.0696 78.27 42.288 77.9188 42.4628C77.5238 42.5939 77.0849 42.6812 76.5582 42.6812ZM76.207 40.8026C76.5582 40.8026 76.8215 40.7153 77.041 40.4968C77.2604 40.2784 77.3921 40.0163 77.3921 39.7104C77.3921 39.3609 77.2604 39.0988 77.041 38.8804C76.8215 38.6619 76.5582 38.5309 76.1632 38.5309C75.8559 38.5309 75.5487 38.6182 75.3731 38.8367C75.1536 39.0551 75.022 39.3609 75.022 39.6668C75.022 40.0163 75.1536 40.2784 75.3731 40.4968C75.5926 40.7153 75.8998 40.8026 76.207 40.8026Z" fill="#377044"/>
<path d="M94.4228 38.0077C94.4228 38.7067 94.2911 39.4057 94.1156 40.0173C93.94 40.6726 93.6766 41.2406 93.3255 41.7211C92.9744 42.2454 92.5794 42.6823 92.0966 43.0318C91.6138 43.425 91.0871 43.7308 90.5165 43.9492C91.131 44.4298 91.4382 44.9977 91.4382 45.6967C91.4382 46.1336 91.3065 46.5268 91.131 46.8763C90.9115 47.1821 90.6482 47.488 90.3409 47.7064C89.9898 47.9685 89.5948 48.1433 89.1559 48.2306C88.717 48.3617 88.2342 48.4491 87.7514 48.4491C87.2686 48.4491 86.8296 48.3617 86.3907 48.2306C85.9518 48.1433 85.5568 47.9685 85.2496 47.7064C84.8984 47.488 84.6351 47.1821 84.4595 46.8763C84.2401 46.5268 84.1523 46.1336 84.1523 45.6967C84.1523 45.3472 84.1962 45.0414 84.3717 44.7356C84.5034 44.4735 84.7229 44.2114 84.9862 43.9929C84.4156 43.8618 83.8889 43.6434 83.3622 43.3813C82.8794 43.0755 82.4405 42.7696 82.0894 42.4201C81.7383 42.027 81.4749 41.6338 81.2555 41.1532C81.0799 40.7163 80.9482 40.1921 80.9482 39.6241C80.9482 39.1435 81.036 38.7067 81.2116 38.3572C81.3872 37.964 81.6066 37.6145 81.9138 37.3523C82.2211 37.0902 82.5722 36.8718 82.9672 36.697C83.3622 36.566 83.8012 36.4786 84.2401 36.4786C84.7229 36.4786 85.1618 36.566 85.5568 36.697C85.9518 36.8281 86.3029 37.0465 86.5663 37.3086C86.8296 37.5271 87.0491 37.8329 87.1808 38.1387C87.3124 38.4882 87.4002 38.8377 87.4002 39.2309C87.4002 39.8862 87.1808 40.4542 86.7419 40.9348C86.2591 41.4153 85.6007 41.6338 84.679 41.6338C84.5912 41.6338 84.5034 41.6338 84.4156 41.6338C84.284 41.6338 84.1962 41.6338 84.1084 41.5901C84.284 41.7211 84.4595 41.8959 84.7229 42.027C84.9423 42.158 85.2496 42.2454 85.5568 42.3328C85.864 42.4638 86.1713 42.5075 86.5224 42.5949C86.8735 42.6823 87.2686 42.726 87.6197 42.7696C88.9364 42.4638 89.9459 41.9396 90.6921 41.1532C91.4382 40.4105 91.7893 39.362 91.7893 38.0077C91.7893 37.5271 91.7454 37.0028 91.6138 36.5223C91.4821 36.0417 91.3065 35.6048 91.0871 35.2116C90.9115 35.6922 90.6043 35.998 90.1654 36.2601C89.7703 36.4786 89.2436 36.6096 88.6292 36.6096C88.1903 36.6096 87.7952 36.5223 87.4002 36.3912C87.0491 36.2601 86.698 36.0854 86.4346 35.8233C86.1713 35.6048 85.9518 35.299 85.8201 34.9495C85.6446 34.6437 85.6007 34.2505 85.6007 33.8136C85.6007 32.9835 85.864 32.3282 86.4346 31.804C87.0052 31.2797 87.7952 31.0176 88.8047 31.0176C89.5948 31.0176 90.3409 31.236 90.9993 31.6292C91.7015 32.0224 92.2721 32.5467 92.7988 33.202C93.2816 33.8573 93.6766 34.6 93.9839 35.4301C94.2472 36.2601 94.4228 37.1339 94.4228 38.0077ZM88.8925 34.8621C89.1998 34.8621 89.4192 34.7311 89.6387 34.5563C89.8142 34.3816 89.902 34.1194 89.902 33.8136C89.902 33.5515 89.8142 33.2894 89.6387 33.1146C89.4192 32.8962 89.1998 32.8088 88.8925 32.8088C88.5853 32.8088 88.3658 32.8962 88.1464 33.1146C87.9708 33.2894 87.883 33.5515 87.883 33.8136C87.883 34.1194 87.9708 34.3816 88.1464 34.5563C88.3658 34.7311 88.5853 34.8621 88.8925 34.8621ZM84.1962 40.1921C84.5034 40.1921 84.7229 40.1047 84.9423 39.9299C85.1179 39.7552 85.2057 39.5367 85.2057 39.2309C85.2057 38.9251 85.1179 38.7067 84.9423 38.4882C84.7229 38.3135 84.5034 38.2261 84.1962 38.2261C83.8889 38.2261 83.6695 38.3135 83.4939 38.4882C83.2745 38.7067 83.1867 38.9251 83.1867 39.2309C83.1867 39.5367 83.2745 39.7552 83.4939 39.9299C83.6695 40.1047 83.8889 40.1921 84.1962 40.1921ZM87.7514 46.6142C88.1464 46.6142 88.4097 46.5268 88.6292 46.3084C88.8486 46.1336 88.9803 45.8715 88.9803 45.6094C88.9803 45.3036 88.8486 45.0851 88.6731 44.8667C88.4536 44.6482 88.1464 44.4735 87.7514 44.3861C87.4002 44.4735 87.093 44.6482 86.9174 44.823C86.698 45.0414 86.6102 45.3036 86.6102 45.6094C86.6102 45.8715 86.698 46.1336 86.9174 46.3084C87.1369 46.5268 87.4002 46.6142 87.7514 46.6142Z" fill="#377044"/>
<path d="M73.547 55.7656C73.9859 55.7656 74.3809 55.853 74.7321 56.0278C75.0832 56.2025 75.3465 56.4646 75.5221 56.7704C75.6977 56.4646 75.961 56.2025 76.2683 56.0278C76.5755 55.853 76.9705 55.7656 77.4094 55.7656C77.8045 55.7656 78.1556 55.853 78.4628 55.9841C78.814 56.1151 79.0773 56.2899 79.2968 56.552C79.5162 56.7704 79.6479 57.0763 79.7796 57.3821C79.9112 57.7316 79.9551 58.0811 79.9551 58.4306C79.9551 59.0422 79.8235 59.6102 79.604 60.1344C79.3407 60.7024 79.0334 61.1829 78.6384 61.5761C78.814 61.8383 78.9456 62.1004 78.9895 62.3188C79.0773 62.581 79.1212 62.7994 79.1212 62.9741C79.1212 63.4984 78.9017 63.7168 78.5067 63.7168C78.375 63.7168 78.2873 63.7168 78.1995 63.7168C78.1117 63.6732 78.0239 63.6732 77.9361 63.6295C77.9361 63.4547 77.9361 63.2363 77.8922 63.0178C77.8484 62.7994 77.8045 62.581 77.7167 62.4062C77.3655 62.6246 77.0144 62.7994 76.6633 62.9305C76.3122 63.0178 75.8732 63.0615 75.4343 63.0615C75.0393 63.0615 74.7321 63.0178 74.4248 62.9741C74.1176 62.8868 73.8981 62.7557 73.6787 62.581C73.4592 62.4062 73.2837 62.2315 73.1959 62.013C73.0642 61.7946 73.0203 61.5324 73.0203 61.2703C73.0203 60.9645 73.0642 60.7461 73.1959 60.5276C73.2837 60.3092 73.4592 60.1344 73.6348 59.9597C73.8542 59.7849 74.0737 59.6975 74.3809 59.6102C74.6443 59.5228 74.9515 59.4791 75.3027 59.4791C75.7855 59.4791 76.2683 59.5665 76.7072 59.7412C77.1461 59.9597 77.5411 60.2218 77.8922 60.615C78.1117 60.3092 78.2434 59.9597 78.375 59.6102C78.5067 59.217 78.5506 58.8675 78.5506 58.4306C78.5506 57.9937 78.4628 57.6442 78.1995 57.3384C77.98 57.0763 77.6728 56.9452 77.3217 56.9452C76.9705 56.9452 76.7072 57.0326 76.4877 57.251C76.2683 57.4695 76.1805 57.7316 76.1805 58.1248V58.4743C76.0049 58.6053 75.8294 58.649 75.566 58.649C75.3904 58.649 75.3027 58.649 75.171 58.6053C75.0832 58.5617 74.9954 58.518 74.9076 58.4743V58.1248C74.9076 57.9063 74.8637 57.7753 74.8198 57.6442C74.7321 57.4695 74.6443 57.3821 74.5565 57.251C74.4248 57.1636 74.337 57.0763 74.1615 57.0326C74.0298 56.9889 73.8981 56.9452 73.7226 56.9452C73.4153 56.9452 73.1081 57.0326 72.9325 57.251C72.7131 57.4258 72.6253 57.7316 72.6253 58.0374C72.6253 58.3432 72.6692 58.6053 72.8447 58.8238C72.8008 58.9548 72.7131 59.0422 72.5814 59.1296C72.4497 59.1733 72.3619 59.217 72.1864 59.217C71.923 59.217 71.6597 59.1296 71.528 58.8675C71.3524 58.649 71.2646 58.3432 71.2646 57.9063C71.2646 57.6005 71.3085 57.2947 71.3963 57.0326C71.528 56.7704 71.7036 56.552 71.8791 56.3773C72.0986 56.2025 72.318 56.0278 72.6253 55.9404C72.8886 55.8093 73.2398 55.7656 73.547 55.7656ZM75.4782 61.9693C75.7855 61.9693 76.0927 61.9256 76.356 61.8383C76.6633 61.7072 76.9266 61.5761 77.19 61.4014C76.9705 61.1393 76.6633 60.9208 76.356 60.7897C76.0488 60.615 75.7416 60.5276 75.3904 60.5276C75.0832 60.5276 74.8198 60.615 74.6443 60.7461C74.4687 60.8771 74.3809 61.0519 74.3809 61.2703C74.3809 61.4888 74.4687 61.6635 74.6443 61.7946C74.8637 61.9256 75.1271 61.9693 75.4782 61.9693Z" fill="#373435"/>
<path d="M84.4606 63.0999C83.9339 63.0999 83.495 63.0125 83.0561 62.8378C82.6172 62.663 82.2661 62.4446 82.0027 62.1388C81.6955 61.833 81.476 61.4398 81.3005 61.0029C81.1249 60.566 81.0371 60.0854 81.0371 59.5612C81.0371 59.0369 81.1249 58.5564 81.3005 58.1632C81.476 57.7263 81.6955 57.3331 82.0027 57.0273C82.2661 56.7215 82.6172 56.4593 83.0561 56.2846C83.495 56.1098 83.9339 56.0225 84.4606 56.0225C84.9434 56.0225 85.4262 56.1098 85.8651 56.2846C86.2601 56.4593 86.6113 56.7215 86.9185 57.0273C87.2257 57.3331 87.4452 57.7263 87.6208 58.1632C87.7524 58.5564 87.8402 59.0369 87.8402 59.5612C87.8402 60.0854 87.7524 60.566 87.6208 61.0029C87.4452 61.4398 87.2257 61.833 86.9185 62.1388C86.6113 62.4446 86.2601 62.663 85.8651 62.8378C85.4262 63.0125 84.9434 63.0999 84.4606 63.0999ZM84.4606 61.9203C84.7678 61.9203 85.0312 61.8766 85.2945 61.7456C85.514 61.6582 85.7334 61.4835 85.909 61.265C86.0846 61.0903 86.2162 60.8281 86.304 60.5223C86.3918 60.2602 86.4357 59.9107 86.4357 59.5612C86.4357 59.2117 86.3918 58.9059 86.304 58.6C86.2162 58.3379 86.0846 58.0758 85.909 57.8574C85.7334 57.6389 85.514 57.4642 85.2945 57.3768C85.0312 57.2457 84.7678 57.202 84.4606 57.202C84.1534 57.202 83.8461 57.2457 83.6267 57.3768C83.3633 57.4642 83.1878 57.6389 83.0122 57.8574C82.8366 58.0758 82.705 58.3379 82.5733 58.6C82.4855 58.9059 82.4416 59.2117 82.4416 59.5612C82.4416 59.9107 82.4855 60.2602 82.5733 60.5223C82.705 60.8281 82.8366 61.0903 83.0122 61.265C83.1878 61.4835 83.3633 61.6582 83.6267 61.7456C83.8461 61.8766 84.1534 61.9203 84.4606 61.9203Z" fill="#373435"/>
<path d="M95.4622 63.1107C94.9794 63.1107 94.5844 63.0233 94.2333 62.8485C93.926 62.6738 93.6627 62.4116 93.4871 62.1058C93.3116 62.4116 93.0482 62.6738 92.741 62.8485C92.4337 63.0233 92.0387 63.1107 91.5998 63.1107C91.2048 63.1107 90.8536 63.067 90.5464 62.9359C90.2392 62.8048 89.9319 62.6301 89.7125 62.368C89.493 62.1495 89.3174 61.8437 89.1858 61.4942C89.0541 61.1447 88.9663 60.7515 88.9663 60.3146C88.9663 59.7467 89.0541 59.2224 89.2735 58.7418C89.4491 58.2613 89.7125 57.8681 90.0197 57.4749C89.8002 57.3438 89.6686 57.1254 89.5369 56.8633C89.4052 56.6011 89.3174 56.2953 89.3174 55.9458C89.3174 55.5963 89.4052 55.2905 89.5808 54.9847C89.7125 54.6789 89.9319 54.4167 90.1953 54.242C90.4586 54.0235 90.8098 53.8488 91.2048 53.7177C91.5998 53.5867 92.0387 53.543 92.5654 53.543C93.2238 53.543 93.7944 53.6303 94.365 53.8925C94.8917 54.1109 95.3745 54.4167 95.7256 54.8099C96.1206 55.2031 96.4279 55.64 96.6473 56.1643C96.8668 56.6885 96.9546 57.2128 96.9546 57.7807C96.9546 58.0428 96.9546 58.2613 96.8668 58.4797C96.779 58.6545 96.6912 58.8292 96.6034 58.9603C96.9985 59.135 97.3057 59.3972 97.569 59.7467C97.7885 60.0962 97.8763 60.4894 97.8763 60.9263C97.8763 61.5816 97.6568 62.1495 97.2179 62.5427C96.779 62.9359 96.2084 63.1107 95.4622 63.1107ZM91.6876 61.9748C91.9948 61.9748 92.2582 61.8874 92.4776 61.7126C92.6971 61.4942 92.7849 61.2321 92.7849 60.8826V60.402C92.9604 60.2709 93.1799 60.2272 93.4432 60.2272C93.7066 60.2272 93.926 60.2709 94.1016 60.402V60.8826C94.1016 61.1884 94.2333 61.4942 94.4527 61.669C94.7161 61.8437 94.9794 61.9748 95.3306 61.9748C95.6817 61.9748 95.9889 61.8437 96.2084 61.6253C96.4279 61.4505 96.5156 61.1447 96.5156 60.8389C96.5156 60.5331 96.4279 60.3146 96.2962 60.0962C96.1645 59.9214 95.9451 59.7467 95.6817 59.6156C95.5061 59.6593 95.2867 59.703 95.1111 59.703C94.8039 59.703 94.5844 59.6593 94.4527 59.5282C94.2772 59.4409 94.1894 59.2661 94.1894 59.0477C94.1894 58.8292 94.2772 58.6545 94.365 58.5234H94.8478C95.1111 58.5234 95.2867 58.4797 95.4622 58.3487C95.5939 58.2613 95.6817 58.0865 95.6817 57.8681C95.6817 57.7807 95.6378 57.6496 95.55 57.5623C95.5061 57.4749 95.3745 57.3875 95.2428 57.3001C95.1111 57.2128 94.8917 57.1254 94.6722 57.0817C94.4527 57.038 94.1455 57.038 93.8383 57.038C93.3555 57.038 92.9165 57.0817 92.5215 57.2565C92.0826 57.4312 91.7315 57.6496 91.3803 57.9118C91.0731 58.2176 90.8536 58.5234 90.6342 58.9166C90.4586 59.3098 90.3708 59.7467 90.3708 60.1836C90.3708 60.7952 90.5025 61.2321 90.7659 61.5379C91.0292 61.8 91.3364 61.9748 91.6876 61.9748ZM92.5654 54.6352C91.9948 54.6352 91.512 54.7662 91.2048 55.0284C90.8975 55.2905 90.722 55.5963 90.722 55.9458C90.722 56.2516 90.8098 56.5138 90.9414 56.6885C91.3364 56.4264 91.7315 56.2516 92.1704 56.0769C92.6093 55.9458 93.0482 55.9021 93.4871 55.9021C93.9699 55.9021 94.4089 55.9458 94.6722 56.0332C94.9794 56.0769 95.2428 56.2079 95.5061 56.339C95.3306 56.0769 95.155 55.8584 94.9794 55.6837C94.76 55.4652 94.5405 55.2905 94.2772 55.1594C94.0577 54.9847 93.7505 54.8536 93.4871 54.7662C93.1799 54.6789 92.8727 54.6352 92.5654 54.6352Z" fill="#373435"/>
<path d="M117.429 60.9827C117.429 61.2885 117.517 61.507 117.737 61.7254C118 61.9002 118.263 61.9875 118.614 61.9875C119.097 61.9875 119.492 61.8128 119.756 61.4196C120.063 61.0701 120.195 60.5458 120.195 59.8905C120.195 58.9731 119.931 58.3178 119.404 57.8372C118.834 57.3566 118.132 57.1382 117.21 57.1382H113.962C114.269 57.444 114.576 57.8809 114.752 58.3178C114.971 58.7983 115.103 59.3226 115.103 59.8905C115.103 60.4148 115.015 60.8517 114.884 61.2449C114.708 61.6817 114.533 61.9875 114.225 62.2934C113.962 62.5555 113.655 62.7739 113.26 62.905C112.909 63.0361 112.47 63.1234 112.031 63.1234C111.46 63.1234 111.021 63.0361 110.626 62.8613C110.231 62.6866 109.88 62.4681 109.617 62.2497C109.353 62.5118 109.046 62.7302 108.651 62.905C108.256 63.0361 107.861 63.1234 107.378 63.1234C106.764 63.1234 106.281 63.0361 105.842 62.8176C105.447 62.6429 105.14 62.4244 104.876 62.1623C104.569 62.4681 104.218 62.7302 103.823 62.8613C103.384 63.0361 102.901 63.1234 102.419 63.1234C101.892 63.1234 101.409 63.0361 100.97 62.8613C100.531 62.6866 100.18 62.4244 99.8728 62.1186C99.5656 61.8128 99.3022 61.4196 99.1706 60.9827C98.995 60.5022 98.9072 60.0216 98.9072 59.4536C98.9072 58.9294 98.995 58.4488 99.1706 58.0119C99.3022 57.5314 99.5656 57.1819 99.8728 56.8324C100.18 56.5266 100.531 56.2644 100.97 56.0897C101.409 55.9149 101.892 55.8276 102.419 55.8276C102.901 55.8276 103.384 55.9149 103.823 56.0897C104.262 56.2644 104.613 56.5266 104.92 56.8324C105.228 57.1382 105.447 57.5314 105.623 57.9683C105.798 58.4488 105.886 58.9294 105.886 59.4536C105.886 59.8032 105.886 60.0653 105.798 60.3711C105.754 60.6332 105.666 60.939 105.579 61.1575C105.71 61.4196 105.974 61.5944 106.237 61.7254C106.544 61.9002 106.895 61.9439 107.203 61.9439C107.773 61.9439 108.212 61.7691 108.563 61.3759C108.914 61.0264 109.046 60.4585 109.046 59.7595C109.046 59.4536 109.046 59.1478 108.958 58.8857C108.871 58.5799 108.783 58.3615 108.651 58.143C108.519 57.9246 108.388 57.7498 108.212 57.5751C108.037 57.4003 107.861 57.2693 107.642 57.1382H106.544C106.5 57.0508 106.457 57.0071 106.413 56.9197C106.413 56.7887 106.369 56.7013 106.369 56.6139C106.369 56.3955 106.413 56.2644 106.544 56.1771C106.632 56.0897 106.764 56.046 106.895 56.046H108.651C109.046 56.046 109.266 55.8712 109.266 55.478C109.266 55.3033 109.222 55.1722 109.134 54.9975C109.222 54.9101 109.309 54.8664 109.397 54.8227C109.529 54.779 109.617 54.7354 109.748 54.7354C109.968 54.7354 110.143 54.8227 110.319 54.9975C110.451 55.1285 110.538 55.3907 110.538 55.7402C110.538 56.0897 110.451 56.4392 110.231 56.6576C110.012 56.8761 109.705 57.0508 109.309 57.0945C109.617 57.4003 109.924 57.7935 110.143 58.2304C110.363 58.6673 110.451 59.2352 110.451 59.8032C110.451 60.3274 110.407 60.808 110.231 61.2012C110.407 61.4196 110.626 61.5944 110.933 61.7254C111.241 61.9002 111.548 61.9439 111.899 61.9439C112.426 61.9439 112.865 61.7691 113.172 61.4196C113.523 61.0701 113.699 60.5458 113.699 59.8468C113.699 59.2352 113.567 58.6673 113.304 58.2304C113.04 57.7935 112.689 57.444 112.25 57.1382H111.46C111.416 57.0945 111.372 57.0071 111.328 56.9197C111.328 56.8324 111.285 56.7013 111.285 56.6139C111.285 56.3955 111.328 56.2644 111.46 56.1771C111.548 56.0897 111.68 56.046 111.811 56.046H117.517C118.088 56.046 118.658 56.1334 119.141 56.3081C119.668 56.5266 120.063 56.7887 120.414 57.1382C120.765 57.444 121.072 57.8809 121.248 58.3178C121.467 58.7983 121.555 59.3226 121.555 59.8905C121.555 60.4148 121.467 60.8517 121.336 61.2885C121.204 61.6817 120.985 62.0312 120.721 62.2934C120.502 62.5555 120.151 62.7739 119.8 62.905C119.448 63.0361 119.053 63.1234 118.614 63.1234C118.263 63.1234 117.912 63.0797 117.605 62.9924C117.298 62.8613 117.034 62.7302 116.815 62.5555C116.595 62.3371 116.376 62.1186 116.244 61.8565C116.113 61.5507 116.069 61.2449 116.069 60.8954C116.069 60.5458 116.113 60.2837 116.2 60.0216C116.332 59.8032 116.464 59.5847 116.639 59.41C116.815 59.2789 117.034 59.1478 117.254 59.0605C117.473 58.9731 117.693 58.9294 117.956 58.9294C118.263 58.9294 118.483 58.9731 118.658 59.1041C118.834 59.2352 118.922 59.41 118.922 59.5847C118.922 59.8032 118.834 59.9779 118.746 60.109C118.614 60.0653 118.483 60.0216 118.351 60.0216C118.088 60.0216 117.868 60.109 117.693 60.2837C117.517 60.4148 117.429 60.6769 117.429 60.9827ZM102.419 61.9439C102.726 61.9439 102.989 61.9002 103.252 61.7691C103.516 61.638 103.735 61.507 103.955 61.2885C104.13 61.0701 104.262 60.7643 104.35 60.4585C104.481 60.1527 104.525 59.8468 104.525 59.4536C104.525 59.1041 104.481 58.7546 104.35 58.4488C104.262 58.143 104.13 57.8809 103.955 57.6624C103.735 57.4003 103.516 57.2693 103.252 57.1382C102.989 57.0071 102.726 56.9634 102.419 56.9634C102.067 56.9634 101.804 57.0071 101.541 57.1382C101.277 57.2693 101.058 57.444 100.882 57.6624C100.707 57.8809 100.531 58.143 100.443 58.4488C100.356 58.7546 100.312 59.1041 100.312 59.4536C100.312 59.8468 100.356 60.1963 100.443 60.5022C100.531 60.808 100.707 61.0701 100.882 61.2885C101.058 61.507 101.277 61.638 101.541 61.7691C101.804 61.9002 102.067 61.9439 102.419 61.9439Z" fill="#373435"/>
</svg>
