<svg width="218" height="267" viewBox="0 0 218 267" fill="none" xmlns="http://www.w3.org/2000/svg">
<path d="M86.0059 29.7983C84.9045 29.7983 84.0234 30.669 84.0234 31.7573V50.0412C84.0234 51.1295 84.9045 52.0002 86.0059 52.0002H131.381C132.483 52.0002 133.364 51.1295 133.364 50.0412V31.7573C133.364 30.669 132.483 29.7983 131.381 29.7983H86.0059ZM129.399 44.1642C129.399 45.2526 128.518 46.1232 127.416 46.1232H90.191C89.0896 46.1232 88.2086 45.2526 88.2086 44.1642V35.893C88.2086 34.8046 89.0896 33.934 90.191 33.934H127.416C128.518 33.934 129.399 34.8046 129.399 35.893V44.1642Z" fill="#BABABA"/>
<path d="M140.045 0L114.918 37.8775H127.37L155.388 0H140.045Z" fill="#0FA711"/>
<path d="M127.377 0L102.473 37.8775H114.925L140.052 0H127.377Z" fill="white"/>
<path d="M114.924 0L90.0195 37.8775H102.472L127.376 0H114.924Z" fill="#FF7600"/>
<path d="M90.0177 37.8775H102.47L77.343 0H62L90.0177 37.8775Z" fill="#FF7600"/>
<path d="M102.471 37.8775H114.923L90.0184 0H77.3438L102.471 37.8775Z" fill="white"/>
<path opacity="0.5" d="M110.695 6.27979L104.469 15.6931L119.145 37.8818H127.372L129.596 34.744L110.695 6.27979Z" fill="#3E4347"/>
<path d="M114.924 37.8775H127.376L102.472 0H90.0195L114.924 37.8775Z" fill="#0FA711"/>
<g filter="url(#filter0_ii)">
<path d="M218 158C218 218.199 169.199 267 109 267C48.801 267 0 218.199 0 158C0 97.801 48.801 49 109 49C169.199 49 218 97.801 218 158Z" fill="#D5D5D5" fill-opacity="0.8"/>
</g>
<path d="M214.5 158C214.5 216.266 167.266 263.5 109 263.5C50.734 263.5 3.5 216.266 3.5 158C3.5 99.734 50.734 52.5 109 52.5C167.266 52.5 214.5 99.734 214.5 158Z" stroke="#DFDFDF" stroke-width="7"/>
<path d="M214.5 158C214.5 216.266 167.266 263.5 109 263.5C50.734 263.5 3.5 216.266 3.5 158C3.5 99.734 50.734 52.5 109 52.5C167.266 52.5 214.5 99.734 214.5 158Z" stroke="url(#paint0_linear)" stroke-width="7"/>
<g filter="url(#filter1_i)">
<path d="M196 158C196 206.049 157.049 245 109 245C60.9512 245 22 206.049 22 158C22 109.951 60.9512 71 109 71C157.049 71 196 109.951 196 158Z" fill="#A0A0A0"/>
</g>
<path d="M196 158C196 206.049 157.049 245 109 245C60.9512 245 22 206.049 22 158C22 109.951 60.9512 71 109 71C157.049 71 196 109.951 196 158Z" stroke="#BABABA" stroke-width="30"/>
<path d="M109.001 81C66.5595 81 32 115.357 32 158.001C32 200.645 66.3574 235.002 109.001 235.002C151.645 235.002 186.002 200.645 186.002 158.001C186.002 115.357 151.442 81 109.001 81ZM93.6412 88.4778C93.8433 88.4778 93.8433 88.4778 93.6412 88.4778C95.0559 91.5093 97.6833 93.3282 100.311 92.7219C102.938 92.3177 105.565 90.4988 105.767 86.861C106.172 86.861 106.576 86.861 106.98 86.861C106.98 97.7745 106.172 109.496 104.959 122.229C104.757 123.441 104.757 124.654 104.757 125.867C104.353 124.856 103.948 123.644 103.544 122.229C99.3001 111.517 95.4601 99.9976 92.4286 88.6799C93.0349 88.6799 93.237 88.4778 93.6412 88.4778ZM76.0583 94.743C78.2814 97.3703 81.1109 98.3808 83.5361 97.1682C86.3655 95.9556 87.9823 93.1261 87.376 90.0946C87.7802 89.8925 88.1844 89.8925 88.5886 89.6904C91.216 100.2 93.8433 111.72 95.8643 124.452C96.0664 125.867 96.2685 126.877 96.6727 128.09C96.0664 127.079 95.4601 126.069 94.4496 124.856C87.5781 115.559 80.9088 105.454 75.0478 95.3493C75.2499 95.1472 75.6541 94.9451 76.0583 94.743ZM60.4964 105.656C63.3259 107.475 66.3574 107.678 68.3784 106.061C69.9952 104.848 70.8036 103.029 70.8036 101.21C70.8036 100.2 70.6015 99.1892 69.9952 98.3808C70.3994 98.1787 70.6015 97.9766 71.0057 97.7745C76.4625 107.071 81.7172 117.783 87.1739 129.302C87.7802 130.515 88.3865 131.526 88.7907 132.536C87.9823 131.728 86.9718 130.919 85.9613 130.111C77.0688 122.633 67.9742 114.549 59.688 106.465C59.8901 106.061 60.2943 105.859 60.4964 105.656ZM48.3703 120.006C48.5724 120.006 48.5724 120.006 48.3703 120.006C51.6039 121.016 54.6355 120.612 56.0502 118.389C56.4544 117.783 57.4649 116.166 57.4649 114.549C57.4649 113.538 57.0607 111.922 55.8481 110.507C56.0502 110.305 56.4544 109.901 56.6565 109.699C64.3364 117.378 72.2184 126.271 80.5046 135.972C81.313 136.982 82.1214 137.791 82.9298 138.599C81.9193 137.993 80.7067 137.589 79.494 136.982C68.9847 132.132 58.0712 126.675 47.764 121.016C47.9661 120.612 48.1682 120.41 48.3703 120.006ZM40.4883 136.982C40.4883 136.982 40.4883 136.78 40.4883 136.982C43.924 137.184 46.5514 135.972 47.5619 133.344C47.764 132.738 47.9661 131.93 47.9661 130.717C47.9661 129.505 47.5619 127.281 45.1367 125.665C45.3388 125.26 45.5409 125.058 45.743 124.654C55.0397 130.111 65.1448 136.578 75.452 143.854C76.4625 144.662 77.6751 145.269 78.4835 145.875C77.473 145.673 76.0583 145.471 74.6436 145.066C63.3259 143.45 51.4018 141.024 39.882 137.993C40.2862 137.791 40.4883 137.387 40.4883 136.982ZM37.2547 155.374C37.2547 155.374 37.2547 155.172 37.2547 155.374C40.4883 154.767 42.9135 152.746 43.1156 150.119C43.1156 149.917 43.1156 149.715 43.1156 149.311C43.1156 146.885 41.903 144.258 38.8715 143.248C38.8715 142.843 39.0736 142.439 39.0736 142.035C49.5829 144.864 60.9006 148.704 72.8247 152.948C74.0373 153.353 75.2499 153.757 76.2604 153.959C75.0478 153.959 73.8352 154.161 72.4205 154.161C61.1027 155.576 48.7745 156.182 37.0526 156.384C37.2547 156.182 37.2547 155.778 37.2547 155.374ZM38.8715 174.169C38.8715 173.967 38.8715 173.967 38.8715 174.169C41.4988 172.754 43.1156 170.733 43.1156 168.308C43.1156 168.106 43.1156 167.702 43.1156 167.5C42.7114 164.872 40.8925 162.245 37.2547 162.043C37.2547 161.639 37.2547 161.235 37.2547 160.83C48.1682 160.83 59.8901 161.437 72.6226 162.447C74.0373 162.649 75.2499 162.649 76.2604 162.649C75.2499 163.054 74.0373 163.458 72.6226 163.862C61.9111 168.106 50.3913 171.946 39.0736 175.18C39.0736 174.978 39.0736 174.573 38.8715 174.169ZM45.3387 191.752C45.3387 191.752 45.3387 191.55 45.3387 191.752C47.1577 190.135 48.1682 188.316 48.1682 186.295C48.1682 185.487 47.9661 184.881 47.764 184.274C46.7535 181.849 44.3282 179.828 40.6904 180.636C40.4883 180.232 40.4883 179.828 40.2862 179.424C50.7955 176.594 62.3153 174.169 74.8457 171.946C76.2604 171.744 77.2709 171.34 78.4835 171.138C77.473 171.744 76.4625 172.35 75.2499 173.361C65.9532 180.232 55.8481 186.902 45.743 192.965C45.743 192.358 45.5409 192.156 45.3387 191.752ZM56.2523 207.112C57.2628 205.495 57.667 204.08 57.667 202.463C57.667 201.251 57.2628 200.038 56.4544 199.23C54.8376 197.209 51.806 195.794 48.5724 197.411C48.3703 197.007 48.1682 196.805 47.9661 196.4C57.2628 190.944 67.9742 185.487 79.494 180.03C80.7067 179.424 81.7172 178.818 82.7277 178.413C81.9193 179.222 81.1109 180.232 80.3024 181.243C73.2289 190.337 65.1448 199.432 57.0607 207.92C56.8586 207.718 56.4544 207.516 56.2523 207.112ZM70.6015 219.036C70.8036 217.823 71.0057 216.813 71.0057 215.802C71.0057 213.781 70.1973 212.164 68.7826 211.356C66.7616 209.941 63.528 209.133 60.9006 211.76C60.4964 211.558 60.2943 211.154 60.0922 210.952C67.7721 203.272 76.4625 195.188 86.1634 187.104C87.1739 186.295 87.9823 185.487 88.7907 184.678C88.1844 185.689 87.7802 186.902 87.1739 188.114C82.7277 198.624 77.473 209.537 71.612 219.642C71.4099 219.44 71.0057 219.238 70.6015 219.036ZM87.5781 226.918C87.7802 223.482 86.3655 220.855 83.9403 219.844C81.5151 219.036 78.2814 219.238 76.2604 222.27C75.8562 222.067 75.6541 221.865 75.2499 221.663C80.7066 212.367 86.9718 202.261 94.2475 191.752C95.0559 190.539 95.6622 189.529 96.2685 188.721C96.0664 189.731 95.8643 191.146 95.4601 192.56C93.8433 203.878 91.4181 215.802 88.5886 227.322C88.3865 227.12 87.9823 227.12 87.5781 226.918ZM105.969 229.949C105.363 226.716 103.342 224.291 100.715 224.088C98.0874 223.886 95.0559 224.897 94.0454 228.333C93.6412 228.333 93.237 228.13 92.8328 228.13C95.6622 217.621 99.3001 206.303 103.544 194.379C103.948 193.167 104.353 191.954 104.555 190.944C104.555 192.156 104.757 193.369 104.757 194.784C106.172 206.101 106.98 218.43 107.182 230.151C106.778 230.151 106.374 230.151 105.969 229.949ZM178.928 143.45C176.301 144.864 174.482 146.885 174.482 149.311C174.482 149.513 174.482 149.917 174.482 150.119C174.886 152.746 176.705 155.374 180.343 155.576C180.343 155.98 180.343 156.384 180.343 156.788C169.632 156.788 157.708 155.98 144.975 154.767C143.56 154.565 142.348 154.565 141.337 154.565C142.348 154.161 143.56 153.757 144.975 153.353C155.687 149.108 167.206 145.269 178.524 142.237C178.726 142.641 178.726 143.045 178.928 143.45ZM172.663 125.867C172.663 125.867 172.663 126.069 172.663 125.867C170.844 127.484 169.834 129.302 169.834 131.323C169.834 132.132 170.036 132.738 170.238 133.344C171.248 135.77 173.674 137.791 177.312 137.184C177.514 137.589 177.514 137.993 177.716 138.397C167.206 141.024 155.485 143.45 142.954 145.673C141.539 145.875 140.529 146.077 139.316 146.481C140.327 145.875 141.337 145.269 142.55 144.46C151.847 137.387 161.952 130.717 172.057 124.856C172.259 125.26 172.461 125.463 172.663 125.867ZM162.154 110.709C161.143 112.326 160.537 113.943 160.537 115.357C160.537 116.57 160.941 117.783 161.75 118.591C163.366 120.612 166.196 122.027 169.43 120.41C169.632 120.814 169.834 121.016 170.036 121.42C160.537 126.675 150.028 132.132 138.306 137.184C137.093 137.791 136.083 138.195 135.072 138.801C135.881 137.993 136.689 136.982 137.7 135.972C144.975 127.079 153.059 117.985 161.345 109.699C161.548 110.103 161.952 110.305 162.154 110.709ZM147.603 98.1787C147.603 98.1787 147.805 98.3808 147.603 98.1787C147.4 99.3913 146.996 100.402 146.996 101.412C146.996 103.231 147.805 104.848 149.219 105.859C151.24 107.273 154.474 108.082 157.101 105.656C157.303 105.859 157.708 106.263 157.91 106.465C150.23 114.145 141.337 122.027 131.434 130.111C130.424 130.919 129.413 131.728 128.807 132.536C129.413 131.526 129.818 130.515 130.424 129.1C135.072 118.591 140.529 107.678 146.39 97.5724C146.996 97.7745 147.198 97.9766 147.603 98.1787ZM130.626 90.2967C130.828 90.2967 130.828 90.2967 130.626 90.2967C130.424 93.7324 131.839 96.3598 134.264 97.3703C136.689 98.3808 139.923 98.1787 141.944 94.9451C142.348 95.1472 142.55 95.3493 142.954 95.5514C137.497 104.848 131.03 114.751 123.552 125.26C122.744 126.271 122.138 127.281 121.531 128.292C121.733 127.281 122.138 125.867 122.34 124.452C124.159 113.134 126.584 101.21 129.413 89.8925C130.02 89.8925 130.222 90.0946 130.626 90.2967ZM112.437 86.861C112.437 86.861 112.639 86.861 112.437 86.861C113.043 90.0946 115.064 92.5198 117.691 92.7219C120.319 92.924 123.35 91.9135 124.563 88.4778C124.967 88.4778 125.371 88.6799 125.775 88.6799C122.946 99.1892 119.106 110.507 114.66 122.229C114.256 123.441 113.851 124.654 113.447 125.665C113.447 124.452 113.245 123.239 113.245 121.825C112.033 110.507 111.224 98.1787 111.224 86.4568C111.628 86.861 112.033 86.861 112.437 86.861ZM124.361 228.333C122.744 225.301 120.319 223.684 117.691 224.088C115.064 224.493 112.437 226.312 112.235 229.949C111.83 229.949 111.426 229.949 111.022 229.949C111.022 219.036 111.628 207.314 112.841 194.581C113.043 193.369 113.043 192.358 113.043 191.348C113.043 191.146 113.043 191.146 113.043 190.944C113.447 191.954 113.851 193.167 114.256 194.581C118.5 205.293 122.34 216.813 125.573 228.13C125.169 228.333 124.765 228.333 124.361 228.333ZM141.742 222.067C141.742 222.067 141.539 222.067 141.742 222.067C139.518 219.44 136.689 218.43 134.264 219.642C131.434 220.855 129.818 223.684 130.626 226.716C130.222 226.918 129.818 226.918 129.413 227.12C126.584 216.611 124.159 205.091 122.138 192.56C121.936 191.146 121.733 190.135 121.329 188.923C121.936 189.933 122.542 190.944 123.552 192.156C130.424 201.453 137.093 211.558 142.954 221.663C142.348 221.865 142.146 221.865 141.742 222.067ZM157.303 211.154C157.303 211.356 157.303 211.356 157.303 211.154C154.474 209.335 151.442 209.133 149.421 210.75C147.805 211.962 146.996 213.781 146.996 215.6C146.996 216.611 147.198 217.621 147.805 218.43C147.4 218.632 147.198 218.834 146.794 219.036C141.337 209.739 135.881 199.028 130.626 187.508C130.02 186.295 129.413 185.285 129.009 184.274C129.818 185.083 130.828 185.891 131.839 186.699C140.933 193.773 150.028 201.857 158.314 210.143C157.91 210.75 157.708 210.952 157.303 211.154ZM169.227 197.007C169.227 197.007 169.227 197.209 169.227 197.007C165.994 195.996 162.962 196.4 161.548 198.624C161.143 199.23 160.133 200.847 160.133 202.463C160.133 203.474 160.537 205.091 161.75 206.506C161.548 206.708 161.143 207.112 160.941 207.314C153.261 199.634 145.379 190.742 137.295 181.041C136.487 180.03 135.678 179.02 134.87 178.413C135.881 179.02 137.093 179.424 138.306 180.03C148.815 184.678 159.729 190.135 170.036 195.794C169.632 196.4 169.43 196.603 169.227 197.007ZM177.109 180.03C177.109 180.232 177.109 180.232 177.109 180.03C173.674 179.828 171.046 181.041 170.036 183.668C169.834 184.274 169.632 185.083 169.632 186.295C169.632 187.508 170.036 189.731 172.461 191.348C172.259 191.752 172.057 191.954 171.855 192.358C162.558 186.902 152.453 180.434 142.146 173.159C141.135 172.35 139.923 171.744 139.114 171.138C140.125 171.34 141.539 171.744 142.954 171.946C154.272 173.563 166.196 175.988 177.514 179.02C177.312 179.424 177.312 179.828 177.109 180.03ZM180.343 161.841C177.109 162.447 174.684 164.266 174.482 166.893C174.482 167.096 174.482 167.298 174.482 167.702C174.482 170.127 175.695 172.754 178.726 173.765C178.726 174.169 178.524 174.573 178.524 174.978C168.015 172.148 156.697 168.51 144.773 164.064C143.56 163.66 142.348 163.256 141.337 163.054C142.55 163.054 143.763 162.851 145.177 162.851C156.495 161.639 168.823 160.83 180.545 160.83C180.545 161.033 180.343 161.437 180.343 161.841Z" fill="#D1D1D1"/>
<circle cx="109" cy="158" r="77" stroke="url(#paint1_linear)" stroke-width="2"/>
<circle cx="109" cy="158" r="101" stroke="url(#paint2_linear)" stroke-width="2"/>
<g filter="url(#filter2_i)">
<circle cx="109" cy="158" r="50" fill="#AEAEAE"/>
</g>
<g filter="url(#filter3_d)">
<path fill-rule="evenodd" clip-rule="evenodd" d="M83.168 134.786V133H112.692V161.571H83.168V134.786ZM99.7751 138.357H96.0846L88.7037 156.214H92.3942L93.8718 152.643H101.988L103.466 156.214H107.156L99.7751 138.357ZM95.3458 149.071L97.9299 142.821L100.514 149.071H95.3458ZM131.144 158H116.382V154.429H134.835V183H105.311V165.143H109.001V179.429H131.144V158ZM127.96 164.47V161.676H120.929V164.47H122.626V169.785H119.165C118.739 169.402 118.218 169.161 117.601 169.061C118.335 168.829 118.901 168.404 119.298 167.789C119.694 167.173 119.893 166.433 119.893 165.568C119.893 164.304 119.511 163.314 118.747 162.599C117.983 161.867 116.895 161.501 115.485 161.501C114.5 161.501 113.648 161.659 112.928 161.975V165.144C113.721 164.728 114.493 164.52 115.242 164.52C116.271 164.52 116.785 165.019 116.785 166.017C116.785 167.049 116.175 167.564 114.956 167.564H114.272V170.509H115.176C115.97 170.509 116.513 170.667 116.807 170.983C117.116 171.299 117.27 171.723 117.27 172.255C117.27 173.653 116.623 174.351 115.33 174.351C114.375 174.351 113.427 174.068 112.487 173.503V176.747C113.413 177.113 114.412 177.296 115.485 177.296C117.072 177.296 118.262 176.88 119.055 176.048C119.863 175.216 120.267 174.135 120.267 172.804V172.63H122.626V178.418H125.756V164.47H127.96Z" fill="white"/>
</g>
<path d="M51 82.8998L53.5 80.9998C53.8 80.7998 54.1 80.5998 54.5 80.4998C54.9 80.3998 55.1 80.2998 55.4 80.2998C55.7 80.2998 56 80.3998 56.3 80.4998C56.6 80.5998 56.8 80.8998 57.1 81.1998C57.4 81.5998 57.6 81.9998 57.5 82.4998C57.5 82.8998 57.3 83.3998 57 83.7998C57.2 83.5998 57.5 83.5998 57.7 83.4998C58 83.4998 58.2 83.4998 58.5 83.4998C58.8 83.4998 59 83.6998 59.3 83.7998C59.5 83.8998 59.8 84.0998 59.9 84.3998C60.1 84.6998 60.3 85.0998 60.4 85.3998C60.5 85.6998 60.4 86.0998 60.3 86.3998C60.2 86.6998 60 87.0998 59.8 87.3998C59.6 87.6998 59.3 87.9998 58.9 88.2998L56.4 90.1998L51 82.8998ZM54.3 85.1998L55.6 84.1998C55.8 84.0998 55.9 83.8998 56.1 83.7998C56.2 83.5998 56.3 83.4998 56.4 83.2998C56.5 83.0998 56.5 82.8998 56.4 82.6998C56.4 82.4998 56.3 82.2998 56.1 82.0998C55.9 81.7998 55.6 81.5998 55.3 81.5998C55 81.4998 54.6 81.5998 54.2 81.8998L52.7 83.0998L54.3 85.1998ZM56.8 88.4998L58.2 87.3998C58.3 87.2998 58.5 87.0998 58.7 86.9998C58.9 86.7998 59 86.5998 59.1 86.3998C59.2 86.1998 59.2 85.9998 59.2 85.6998C59.2 85.4998 59.1 85.1998 58.9 84.9998C58.6 84.5998 58.2 84.3998 57.8 84.3998C57.4 84.3998 56.9 84.5998 56.4 84.8998L55 85.9998L56.8 88.4998Z" fill="white"/>
<path d="M57.1992 77.4999L58.1992 76.8999L60.5992 80.7C60.4992 80.3 60.5992 79.9999 60.7992 79.5999C60.9992 79.1999 61.2992 78.9 61.6992 78.7C61.8992 78.5 62.1992 78.3999 62.4992 78.3999C62.7992 78.2999 62.9992 78.2999 63.2992 78.3999C63.5992 78.4999 63.7992 78.5999 64.0992 78.7999C64.3992 78.9999 64.5992 79.1999 64.7992 79.5999L66.8992 82.8999L65.8992 83.4999L63.9992 80.4999C63.7992 80.2999 63.6992 80.0999 63.4992 79.9999C63.2992 79.8999 63.1992 79.7999 62.9992 79.7999C62.7992 79.7999 62.6992 79.7999 62.4992 79.7999C62.2992 79.7999 62.1992 79.8999 61.9992 79.9999C61.7992 80.0999 61.5992 80.2999 61.4992 80.4999C61.3992 80.6999 61.2992 80.8999 61.1992 81.0999C61.1992 81.2999 61.1992 81.5999 61.1992 81.7999C61.2992 82.0999 61.3992 82.2999 61.5992 82.5999L63.2992 85.2L62.2992 85.7999L57.1992 77.4999Z" fill="white"/>
<path d="M65.6992 77.4001C65.7992 77.0001 66.0992 76.6001 66.3992 76.3001C66.6992 76.0001 66.9992 75.7001 67.3992 75.5001C67.7992 75.3001 68.1992 75.2001 68.4992 75.1001C68.7992 75.0001 69.0992 75.1001 69.3992 75.1001C69.6992 75.2001 69.8992 75.3001 70.0992 75.5001C70.2992 75.7001 70.4992 75.9001 70.5992 76.1001L71.9992 78.8001C72.0992 79.0001 72.1992 79.2001 72.2992 79.3001C72.3992 79.5001 72.4992 79.6001 72.5992 79.7001L71.6992 80.2001C71.4992 79.9001 71.3992 79.7001 71.1992 79.4001C71.1992 79.9001 70.9992 80.3001 70.7992 80.6001C70.5992 80.9001 70.2992 81.2001 69.7992 81.4001C69.5992 81.5001 69.2992 81.6001 68.9992 81.7001C68.6992 81.8001 68.4992 81.8001 68.1992 81.7001C67.9992 81.7001 67.6992 81.6001 67.4992 81.4001C67.2992 81.3001 67.0992 81.0001 66.9992 80.8001C66.7992 80.5001 66.6992 80.1001 66.7992 79.8001C66.8992 79.5001 66.8992 79.2001 67.0992 78.9001C67.2992 78.6001 67.4992 78.3001 67.8992 78.1001C68.1992 77.8001 68.5992 77.6001 68.9992 77.4001L69.6992 77.0001L69.5992 76.8001C69.4992 76.7001 69.3992 76.5001 69.2992 76.4001C69.1992 76.3001 68.9992 76.2001 68.8992 76.2001C68.7992 76.2001 68.5992 76.1001 68.3992 76.2001C68.1992 76.2001 67.9992 76.3001 67.7992 76.4001C67.5992 76.5001 67.3992 76.6001 67.2992 76.7001C67.1992 76.8001 67.0992 76.9001 66.9992 77.1001C66.8992 77.2001 66.7992 77.3001 66.7992 77.5001C66.7992 77.7001 66.6992 77.7001 66.5992 77.9001L65.6992 77.4001ZM69.5992 78.0001C69.3992 78.1001 69.0992 78.3001 68.8992 78.4001C68.6992 78.6001 68.4992 78.7001 68.2992 78.9001C68.0992 79.1001 67.9992 79.3001 67.9992 79.5001C67.9992 79.7001 67.9992 79.9001 68.0992 80.1001C68.2992 80.4001 68.4992 80.6001 68.7992 80.6001C69.0992 80.6001 69.3992 80.5001 69.6992 80.4001C69.9992 80.3001 70.1992 80.1001 70.2992 79.9001C70.3992 79.7001 70.4992 79.5001 70.5992 79.3001C70.5992 79.1001 70.5992 78.9001 70.5992 78.7001C70.5992 78.5001 70.4992 78.3001 70.3992 78.1001L70.1992 77.8001L69.5992 78.0001Z" fill="white"/>
<path d="M74.8 73.8001C74.6 73.7001 74.4 73.6001 74.2 73.6001C74 73.6001 73.7 73.6001 73.5 73.7001C73.3 73.8001 73.1 74.0001 72.9 74.1001C72.8 74.3001 72.7 74.5001 72.8 74.7001C72.9 74.9001 73 75.0001 73.1 75.0001C73.2 75.1001 73.4 75.1001 73.6 75.1001C73.8 75.1001 73.9 75.1001 74.1 75.0001C74.3 75.0001 74.4 74.9001 74.6 74.9001C74.8 74.9001 75.1 74.8001 75.3 74.8001C75.5 74.8001 75.7 74.8001 75.9 74.9001C76.1 75.0001 76.3 75.1001 76.4 75.2001C76.5 75.3001 76.7 75.5001 76.8 75.8001C76.9 76.1001 77 76.4001 77 76.7001C77 77.0001 76.9 77.2001 76.7 77.5001C76.5 77.8001 76.4 77.9001 76.1 78.1001C75.8 78.3001 75.6 78.4001 75.3 78.6001C74.8 78.8001 74.4 78.9001 74 78.9001C73.6 78.9001 73.2 78.8001 72.7 78.5001L73.2 77.5001C73.4 77.6001 73.7 77.7001 74 77.7001C74.3 77.7001 74.6 77.7001 74.9 77.6001C75 77.5001 75.2 77.5001 75.3 77.4001C75.4 77.3001 75.5 77.2001 75.6 77.1001C75.7 77.0001 75.7 76.9001 75.8 76.8001C75.8 76.7001 75.8 76.6001 75.8 76.4001C75.7 76.2001 75.6 76.1001 75.5 76.1001C75.4 76.0001 75.2 76.0001 75 76.0001C74.8 76.0001 74.7 76.0001 74.5 76.1001C74.3 76.1001 74.2 76.2001 74.1 76.2001C73.9 76.2001 73.6 76.3001 73.4 76.3001C73.2 76.3001 72.9 76.3001 72.7 76.3001C72.5 76.3001 72.3 76.2001 72.1 76.0001C71.9 75.8001 71.8 75.7001 71.7 75.4001C71.6 75.1001 71.5 74.8001 71.5 74.6001C71.5 74.4001 71.6 74.1001 71.7 73.9001C71.8 73.7001 72 73.5001 72.2 73.3001C72.4 73.1001 72.7 73.0001 72.9 72.9001C73.3 72.7001 73.7 72.6001 74.1 72.6001C74.5 72.6001 74.9 72.7001 75.2 72.9001L74.8 73.8001Z" fill="white"/>
<path d="M75.3008 68.0001L76.4008 67.6001L77.9008 71.9001C77.9008 71.5001 78.1008 71.2001 78.3008 70.9001C78.6008 70.6001 78.9008 70.4001 79.4008 70.2001C79.7008 70.1001 79.9008 70.0001 80.2008 70.0001C80.5008 70.0001 80.7008 70.0001 81.0008 70.2001C81.3008 70.3001 81.5008 70.5001 81.7008 70.7001C81.9008 70.9001 82.1008 71.2001 82.2008 71.6001L83.5008 75.3001L82.4008 75.7001L81.2008 72.3001C81.1008 72.0001 81.0008 71.8001 80.8008 71.7001C80.6008 71.6001 80.5008 71.4001 80.3008 71.3001C80.1008 71.2001 80.0008 71.2001 79.8008 71.2001C79.6008 71.2001 79.5008 71.2001 79.3008 71.3001C79.1008 71.4001 78.9008 71.5001 78.7008 71.6001C78.5008 71.7001 78.4008 71.9001 78.3008 72.1001C78.2008 72.3001 78.2008 72.5001 78.2008 72.8001C78.2008 73.1001 78.3008 73.4001 78.4008 73.7001L79.5008 76.6001L78.4008 77.0001L75.3008 68.0001Z" fill="white"/>
<path d="M82.4985 66.9999C82.3985 66.7999 82.4985 66.5999 82.5985 66.3999C82.6985 66.1999 82.8985 66.0999 83.0985 65.9999C83.2985 65.8999 83.4984 65.9999 83.6984 66.0999C83.8984 66.1999 83.9985 66.3999 84.0985 66.5999C84.1985 66.7999 84.0985 66.9999 83.9985 67.1999C83.8985 67.3999 83.6985 67.4999 83.4985 67.5999C83.2985 67.6999 83.0984 67.5999 82.8984 67.4999C82.6984 67.3999 82.5985 67.1999 82.4985 66.9999ZM83.3984 68.9999L84.4985 68.6999L86.1984 74.4999L85.0985 74.7999L83.3984 68.9999Z" fill="white"/>
<path d="M86.3984 68.1001L87.4984 67.8001L87.6984 68.7001C87.7984 68.4001 87.8984 68.0001 88.2984 67.8001C88.5984 67.5001 88.9984 67.3001 89.3984 67.2001C89.6984 67.1001 89.9984 67.1001 90.1984 67.1001C90.4984 67.1001 90.6984 67.2001 90.9984 67.3001C91.2984 67.4001 91.3984 67.6001 91.5984 67.9001C91.7984 68.2001 91.8984 68.5001 91.9984 68.9001L92.8984 72.7001L91.7984 73.0001L90.9984 69.5001C90.8984 69.2001 90.7984 69.0001 90.6984 68.8001C90.5984 68.6001 90.3984 68.5001 90.2984 68.4001C90.1984 68.3001 89.9984 68.3001 89.7984 68.2001C89.5984 68.1001 89.4984 68.2001 89.2984 68.2001C89.0984 68.3001 88.8984 68.3001 88.6984 68.5001C88.4984 68.6001 88.3984 68.8001 88.2984 69.0001C88.1984 69.2001 88.0984 69.4001 88.0984 69.7001C88.0984 70.0001 88.0984 70.3001 88.1984 70.6001L88.8984 73.6001L87.7984 73.9001L86.3984 68.1001Z" fill="white"/>
<path d="M92.8008 64.5001C92.8008 64.3001 92.8008 64.1001 92.9008 63.9001C93.0008 63.7001 93.2008 63.6001 93.4008 63.6001C93.6008 63.6001 93.8008 63.6001 94.0008 63.7001C94.2008 63.8001 94.3008 64.0001 94.3008 64.2001C94.3008 64.4001 94.3008 64.6001 94.2008 64.8001C94.1008 65.0001 93.9008 65.1001 93.7008 65.1001C93.5008 65.1001 93.3008 65.1001 93.1008 65.0001C93.0008 64.9001 92.9008 64.7001 92.8008 64.5001ZM93.5008 66.6001L94.6008 66.4001L95.7008 72.4001L94.6008 72.6001L93.5008 66.6001Z" fill="white"/>
<path d="M100.199 67.1C100.199 66.8 100.199 66.5 100.299 66.2C100.399 65.9 100.499 65.7 100.699 65.4C100.899 65.2 101.099 65 101.399 64.9C101.699 64.8 101.899 64.7 102.299 64.6C102.699 64.5 102.899 64.6 103.199 64.7C103.499 64.8 103.699 64.9 103.999 65.1C104.199 65.3 104.399 65.5 104.499 65.8C104.599 66.1 104.699 66.3 104.799 66.7C104.899 67.1 104.799 67.3 104.699 67.6C104.599 67.9 104.499 68.1 104.299 68.4C104.099 68.6 103.899 68.8 103.599 68.9C103.299 69 103.099 69.1 102.699 69.2C102.399 69.2 102.099 69.2 101.799 69.1C101.499 69 101.299 68.9 100.999 68.7C100.799 68.5 100.599 68.3 100.499 68C100.399 67.7 100.299 67.4 100.199 67.1Z" fill="white"/>
<path d="M110.499 62.1001H111.699L111.499 70.0001L115.599 70.1001V71.2001L110.199 71.1001L110.499 62.1001Z" fill="white"/>
<path d="M116.898 65.2998L117.998 65.3998L117.498 71.3998L116.398 71.2998L116.898 65.2998ZM116.798 63.0998C116.798 62.8998 116.898 62.6998 117.098 62.4998C117.298 62.2998 117.498 62.2998 117.698 62.2998C117.898 62.2998 118.098 62.3998 118.298 62.5998C118.498 62.7998 118.498 62.9998 118.498 63.1998C118.498 63.3998 118.398 63.5998 118.198 63.7998C117.998 63.9998 117.798 63.9998 117.598 63.9998C117.398 63.9998 117.198 63.8998 116.998 63.6998C116.798 63.4998 116.798 63.3998 116.798 63.0998Z" fill="white"/>
<path d="M120.402 62L121.502 62.2L120.702 68.4L123.602 66.2L125.202 66.4L122.002 68.7L124.602 72.4L123.002 72.2L120.602 68.7L120.202 71.8L119.102 71.6L120.402 62Z" fill="white"/>
<path d="M127.401 63L128.501 63.2L127.501 67.6C127.701 67.3 128.001 67.1 128.401 67C128.801 66.9 129.201 66.9 129.701 67C130.001 67.1 130.201 67.2 130.501 67.3C130.701 67.4 130.901 67.6 131.101 67.9C131.301 68.1 131.401 68.4 131.401 68.7C131.501 69 131.401 69.4 131.401 69.8L130.601 73.6L129.501 73.4L130.301 69.9C130.401 69.6 130.401 69.4 130.301 69.2C130.301 69 130.201 68.8 130.101 68.7C130.001 68.6 129.901 68.4 129.701 68.3C129.501 68.2 129.401 68.1 129.201 68.1C129.001 68 128.701 68 128.501 68.1C128.301 68.2 128.101 68.2 127.901 68.3C127.701 68.4 127.601 68.6 127.401 68.8C127.201 69 127.201 69.3 127.101 69.7L126.401 72.7L125.301 72.5L127.401 63Z" fill="white"/>
<path d="M132.501 71.0001C132.601 70.6001 132.801 70.2001 133.101 69.9001C133.401 69.6001 133.701 69.3001 134.001 69.1001C134.401 68.9001 134.801 68.8001 135.201 68.7001C135.601 68.6001 136.001 68.7001 136.501 68.8001C136.901 68.9001 137.301 69.1001 137.601 69.4001C137.901 69.7001 138.201 70.0001 138.401 70.4001C138.601 70.8001 138.701 71.1001 138.801 71.6001C138.801 72.0001 138.801 72.4001 138.701 72.9001C138.601 73.4001 138.401 73.7001 138.101 74.0001C137.801 74.3001 137.501 74.6001 137.201 74.8001C136.801 75.0001 136.401 75.1001 136.001 75.1001C135.601 75.1001 135.201 75.1001 134.701 75.0001C134.301 74.9001 133.901 74.7001 133.601 74.4001C133.301 74.1001 133.001 73.8001 132.801 73.5001C132.601 73.1001 132.501 72.8001 132.401 72.3001C132.301 71.8001 132.401 71.4001 132.501 71.0001ZM133.701 71.3001C133.601 71.6001 133.601 71.9001 133.601 72.2001C133.601 72.5001 133.701 72.7001 133.801 73.0001C133.901 73.3001 134.101 73.4001 134.301 73.6001C134.501 73.8001 134.801 73.9001 135.001 74.0001C135.301 74.1001 135.601 74.1001 135.801 74.1001C136.101 74.1001 136.301 74.0001 136.501 73.9001C136.701 73.8001 136.901 73.6001 137.101 73.4001C137.301 73.2001 137.401 72.9001 137.501 72.6001C137.601 72.3001 137.601 72.0001 137.601 71.7001C137.601 71.4001 137.501 71.2001 137.401 70.9001C137.301 70.6001 137.101 70.5001 136.901 70.3001C136.701 70.1001 136.401 70.0001 136.201 69.9001C135.901 69.8001 135.601 69.8001 135.401 69.8001C135.101 69.8001 134.901 69.9001 134.701 70.0001C134.501 70.1001 134.301 70.3001 134.101 70.5001C133.901 70.8001 133.801 71.0001 133.701 71.3001Z" fill="white"/>
<path d="M145.801 69.2002L146.901 69.7002L143.401 78.0002L142.301 77.5002L145.801 69.2002Z" fill="white"/>
<path d="M147.7 73.2002L148.7 73.7002L148.3 74.5002C148.6 74.3002 148.9 74.2002 149.3 74.1002C149.7 74.1002 150.1 74.2001 150.5 74.4001C150.8 74.5001 151 74.7001 151.2 74.9001C151.4 75.1001 151.5 75.3002 151.6 75.6002C151.7 75.9002 151.7 76.1002 151.7 76.5002C151.7 76.8002 151.6 77.2002 151.4 77.5002L149.7 81.0002L148.7 80.5002L150.3 77.3002C150.4 77.0002 150.5 76.8002 150.5 76.6002C150.5 76.4002 150.5 76.2002 150.4 76.0002C150.3 75.8002 150.2 75.7002 150.1 75.6002C150 75.5002 149.8 75.4002 149.7 75.3002C149.5 75.2002 149.3 75.1002 149.1 75.1002C148.9 75.1002 148.7 75.1002 148.5 75.2002C148.3 75.3002 148.1 75.4002 147.9 75.6002C147.7 75.8002 147.5 76.0001 147.4 76.4001L146 79.2002L145 78.7002L147.7 73.2002Z" fill="white"/>
<path d="M156.2 84.7999L155.2 84.2L155.6 83.4999C155.2 83.6999 154.9 83.7 154.4 83.7C154 83.7 153.6 83.4999 153.2 83.2999C152.8 83.0999 152.5 82.7999 152.2 82.3999C152 82.0999 151.8 81.6999 151.7 81.2999C151.6 80.8999 151.6 80.4999 151.7 80.0999C151.8 79.6999 151.9 79.2999 152.2 78.8999C152.4 78.4999 152.7 78.1999 153 77.8999C153.3 77.5999 153.7 77.4999 154 77.3999C154.4 77.2999 154.8 77.2999 155.2 77.2999C155.6 77.2999 156 77.5 156.4 77.7C156.8 77.9 157.1 78.1999 157.3 78.5999C157.5 78.9999 157.7 79.3 157.7 79.7L160 75.8999L161 76.4999L156.2 84.7999ZM154 82.3999C154.3 82.5999 154.5 82.7 154.8 82.7C155.1 82.7 155.3 82.7 155.6 82.7C155.8 82.6 156.1 82.4999 156.3 82.2999C156.5 82.0999 156.7 81.8999 156.9 81.5999C157.1 81.2999 157.2 81.0999 157.2 80.7999C157.2 80.4999 157.3 80.2999 157.2 79.9999C157.1 79.7999 157 79.4999 156.9 79.2999C156.7 79.0999 156.5 78.9 156.3 78.7C156 78.5 155.8 78.3999 155.5 78.3999C155.2 78.3999 155 78.3999 154.7 78.3999C154.4 78.3999 154.2 78.5999 154 78.7999C153.8 78.9999 153.6 79.1999 153.4 79.4999C153.2 79.7999 153.1 79.9999 153.1 80.2999C153 80.5999 153 80.7999 153.1 81.0999C153.2 81.2999 153.3 81.5999 153.4 81.7999C153.5 81.9999 153.7 82.1999 154 82.3999Z" fill="white"/>
<path d="M160.9 80.7L161.8 81.4L158.4 86.4L157.5 85.7L160.9 80.7ZM161.9 78.8C162 78.6 162.2 78.5 162.4 78.5C162.6 78.5 162.8 78.5 163 78.6C163.2 78.7 163.3 78.9 163.3 79.1C163.3 79.3 163.3 79.5 163.2 79.7C163.1 79.9 162.9 80 162.7 80C162.5 80 162.3 80 162.1 79.9C161.9 79.8 161.8 79.6 161.8 79.4C161.7 79.2 161.8 78.9 161.9 78.8Z" fill="white"/>
<path d="M163 83C163.4 83 163.9 83 164.3 83.2C164.7 83.3 165.1 83.5 165.4 83.8C165.8 84.1 166 84.3 166.2 84.6C166.4 84.9 166.5 85.2 166.5 85.4C166.5 85.7 166.5 85.9 166.5 86.2C166.5 86.5 166.3 86.7 166.2 86.9L164.3 89.3C164.2 89.5 164.1 89.6 164 89.8C163.9 90 163.8 90.1 163.7 90.2L162.9 89.6C163.1 89.3 163.2 89.1 163.4 88.8C163 89 162.6 89 162.2 88.9C161.8 88.8 161.5 88.6 161.1 88.4C160.9 88.2 160.7 88 160.5 87.8C160.3 87.6 160.2 87.4 160.2 87.1C160.1 86.9 160.1 86.6 160.2 86.4C160.3 86.2 160.4 85.9 160.5 85.7C160.7 85.4 161 85.2 161.3 85.1C161.6 85 161.9 85 162.3 85C162.6 85.1 163 85.2 163.4 85.4C163.8 85.6 164.1 85.8 164.5 86.1L165.2 86.6L165.4 86.4C165.5 86.3 165.6 86.1 165.6 86C165.6 85.8 165.7 85.7 165.6 85.5C165.6 85.3 165.5 85.2 165.4 85C165.3 84.8 165.2 84.7 165 84.5C164.8 84.4 164.7 84.3 164.5 84.2C164.3 84.1 164.2 84.1 164 84C163.9 84 163.7 84 163.6 84C163.5 84 163.3 84 163.2 84L163 83ZM164.1 86.9C163.9 86.7 163.7 86.6 163.4 86.4C163.2 86.2 162.9 86.1 162.7 86.1C162.5 86 162.2 86 162 86C161.8 86 161.6 86.1 161.5 86.3C161.3 86.6 161.2 86.8 161.3 87.1C161.4 87.4 161.6 87.6 161.9 87.9C162.1 88.1 162.4 88.2 162.6 88.3C162.8 88.4 163.1 88.3 163.3 88.3C163.5 88.2 163.7 88.2 163.9 88C164.1 87.9 164.2 87.7 164.3 87.6L164.5 87.3L164.1 86.9Z" fill="white"/>
<path d="M30.2 185.6L31.4 188.5C31.5 188.9 31.6 189.2 31.7 189.6C31.7 189.9 31.7 190.3 31.6 190.6C31.5 190.9 31.4 191.2 31.2 191.4C31 191.6 30.7 191.8 30.3 192C29.8 192.2 29.4 192.2 29 192.1C28.6 192 28.2 191.7 27.9 191.3C28 191.6 28 191.8 28 192.1C28 192.4 27.9 192.6 27.8 192.9C27.7 193.1 27.5 193.4 27.3 193.5C27.1 193.7 26.8 193.8 26.6 194C26.2 194.2 25.9 194.2 25.5 194.2C25.1 194.2 24.8 194 24.5 193.9C24.2 193.7 23.9 193.5 23.7 193.1C23.5 192.8 23.3 192.4 23.1 192L22 189.1L30.2 185.6ZM23.3 189.6L24 191.3C24.1 191.5 24.2 191.7 24.3 191.9C24.4 192.1 24.6 192.3 24.7 192.4C24.9 192.5 25.1 192.6 25.3 192.7C25.5 192.8 25.8 192.7 26.1 192.6C26.6 192.4 26.9 192.1 27 191.7C27.1 191.3 27.1 190.8 26.8 190.2L26.1 188.5L23.3 189.6ZM27.2 188.1L27.8 189.7C27.9 189.9 28 190.1 28.1 190.3C28.2 190.5 28.4 190.6 28.5 190.7C28.7 190.8 28.8 190.9 29 190.9C29.2 190.9 29.4 190.9 29.6 190.8C29.9 190.7 30.2 190.4 30.3 190.1C30.5 189.8 30.4 189.4 30.3 188.9L29.6 187.1L27.2 188.1Z" fill="white"/>
<path d="M33.5984 192.1L34.0984 193.1L30.0984 195.1C30.4984 195.1 30.7984 195.2 31.0984 195.4C31.3984 195.6 31.6984 196 31.8984 196.4C31.9984 196.7 32.0984 196.9 32.1984 197.2C32.1984 197.5 32.1984 197.8 32.0984 198C31.9984 198.3 31.8984 198.5 31.6984 198.8C31.4984 199.1 31.1984 199.2 30.8984 199.4L27.3984 201.1L26.8984 200.1L30.0984 198.5C30.3984 198.4 30.4984 198.2 30.6984 198.1C30.7984 197.9 30.8984 197.8 30.9984 197.6C31.0984 197.4 31.0984 197.3 30.9984 197.1C30.9984 196.9 30.8984 196.8 30.7984 196.6C30.6984 196.4 30.5984 196.2 30.3984 196.1C30.1984 196 30.0984 195.8 29.7984 195.8C29.4984 195.8 29.2984 195.7 29.0984 195.8C28.7984 195.8 28.4984 195.9 28.1984 196.1L25.3984 197.5L24.8984 196.5L33.5984 192.1Z" fill="white"/>
<path d="M32.8992 200.3C33.2992 200.4 33.6992 200.6 34.0992 200.9C34.3992 201.2 34.6992 201.5 34.8992 201.9C35.0992 202.3 35.2992 202.6 35.2992 203C35.3992 203.3 35.3992 203.6 35.2992 203.9C35.1992 204.2 35.0992 204.4 34.9992 204.6C34.8992 204.8 34.6992 205 34.3992 205.1L31.7992 206.7C31.5992 206.8 31.4992 206.9 31.2992 207C31.1992 207.1 30.9992 207.2 30.8992 207.3L30.3992 206.4C30.5992 206.2 30.8992 206.1 31.1992 205.9C30.6992 205.9 30.2992 205.8 29.9992 205.6C29.6992 205.4 29.3992 205.1 29.1992 204.7C29.0992 204.5 28.9992 204.2 28.8992 204C28.7992 203.7 28.7992 203.5 28.8992 203.2C28.8992 203 28.9992 202.7 29.1992 202.5C29.3992 202.3 29.4992 202.1 29.7992 202C30.0992 201.8 30.4992 201.7 30.7992 201.7C31.0992 201.7 31.3992 201.8 31.6992 202C31.9992 202.2 32.2992 202.4 32.5992 202.7C32.8992 203 33.0992 203.4 33.3992 203.8L33.7992 204.5L33.9992 204.4C34.0992 204.3 34.1992 204.2 34.2992 204.1C34.3992 204 34.4992 203.8 34.4992 203.7C34.4992 203.5 34.5992 203.4 34.4992 203.2C34.3992 203 34.3992 202.8 34.2992 202.6C34.1992 202.4 34.0992 202.3 33.8992 202.1C33.6992 201.9 33.6992 201.9 33.4992 201.8C33.3992 201.7 33.1992 201.6 33.0992 201.6C32.9992 201.6 32.7992 201.5 32.6992 201.5L32.8992 200.3ZM32.5992 204.3C32.4992 204.1 32.2992 203.8 32.0992 203.6C31.8992 203.4 31.6992 203.2 31.5992 203C31.3992 202.8 31.1992 202.7 30.9992 202.7C30.7992 202.7 30.5992 202.7 30.3992 202.8C30.0992 203 29.8992 203.2 29.8992 203.5C29.8992 203.8 29.9992 204.1 30.1992 204.4C30.3992 204.7 30.4992 204.9 30.7992 205C31.0992 205.1 31.1992 205.2 31.3992 205.2C31.5992 205.2 31.7992 205.2 31.9992 205.2C32.1992 205.2 32.3992 205.1 32.5992 205L32.8992 204.8L32.5992 204.3Z" fill="white"/>
<path d="M37.5993 209C37.6993 208.8 37.6993 208.6 37.6993 208.3C37.6993 208 37.5993 207.8 37.3993 207.6C37.1993 207.4 37.0993 207.2 36.8993 207.1C36.6993 207 36.4993 207 36.2993 207.1C36.1993 207.2 36.0993 207.3 35.9993 207.5C35.9993 207.7 35.9993 207.8 35.9993 208C35.9993 208.2 36.0993 208.3 36.1993 208.5C36.2993 208.7 36.2993 208.8 36.3993 208.9C36.4993 209.1 36.5993 209.4 36.5993 209.6C36.5993 209.8 36.6993 210 36.6993 210.2C36.6993 210.4 36.5993 210.6 36.4993 210.8C36.3993 211 36.1993 211.2 35.9993 211.3C35.6993 211.5 35.3993 211.6 35.1993 211.6C34.9993 211.6 34.5993 211.6 34.3993 211.5C34.0993 211.4 33.8993 211.2 33.6993 211C33.4993 210.8 33.2993 210.6 33.0993 210.3C32.7993 209.9 32.5993 209.5 32.4993 209.1C32.3993 208.7 32.3993 208.3 32.5993 207.8L33.6993 208.1C33.6993 208.4 33.5993 208.6 33.6993 208.9C33.6993 209.2 33.7993 209.4 33.9993 209.7C34.0993 209.8 34.1993 209.9 34.2993 210C34.3993 210.1 34.4993 210.2 34.5993 210.2C34.6993 210.2 34.7993 210.3 34.9993 210.3C35.0993 210.3 35.1993 210.3 35.2993 210.2C35.3993 210.1 35.4993 210 35.5993 209.8C35.5993 209.6 35.5993 209.5 35.5993 209.3C35.5993 209.1 35.4993 209 35.4993 208.8C35.3993 208.6 35.3993 208.5 35.2993 208.4C35.1993 208.2 35.0993 207.9 35.0993 207.7C34.9993 207.5 34.9993 207.3 34.9993 207C34.9993 206.7 35.0993 206.6 35.1993 206.4C35.2993 206.2 35.4993 206 35.6993 205.9C35.9993 205.7 36.1993 205.6 36.4993 205.6C36.7993 205.6 36.9993 205.6 37.2993 205.7C37.5993 205.8 37.7993 205.9 37.9993 206.1C38.1993 206.3 38.3993 206.5 38.5993 206.7C38.7993 207 38.9993 207.4 39.0993 207.8C39.1993 208.2 39.1993 208.6 38.9993 209H37.5993Z" fill="white"/>
<path d="M43 207.7L43.7 208.6L40.2 211.5C40.5 211.4 40.9 211.4 41.3 211.6C41.7 211.8 42 212 42.3 212.4C42.5 212.6 42.6 212.9 42.7 213.1C42.8 213.4 42.8 213.6 42.8 213.9C42.8 214.2 42.7 214.4 42.5 214.7C42.3 215 42.1 215.2 41.8 215.5L38.8 218L38.1 217.1L40.9 214.8C41.1 214.6 41.3 214.4 41.4 214.3C41.5 214.1 41.6 213.9 41.6 213.8C41.6 213.6 41.6 213.5 41.5 213.3C41.4 213.1 41.4 213 41.2 212.8C41 212.6 40.9 212.5 40.7 212.4C40.5 212.3 40.3 212.2 40.1 212.2C39.9 212.2 39.6 212.2 39.4 212.3C39.1 212.4 38.9 212.6 38.6 212.8L36.2 214.8L35.5 213.9L43 207.7Z" fill="white"/>
<path d="M44.1008 215.9C44.5008 215.9 45.0008 216 45.4008 216.3C45.8008 216.6 46.1008 216.8 46.4008 217.1C46.7008 217.4 46.9008 217.7 47.1008 218C47.2008 218.3 47.3008 218.6 47.3008 218.9C47.3008 219.2 47.3008 219.4 47.1008 219.7C47.0008 219.9 46.8008 220.1 46.7008 220.3L44.5008 222.4C44.3008 222.5 44.2008 222.7 44.1008 222.8C44.0008 222.9 43.9008 223.1 43.8008 223.2L43.1008 222.5C43.3008 222.3 43.5008 222.1 43.7008 221.8C43.2008 221.9 42.8008 221.9 42.5008 221.7C42.1008 221.6 41.8008 221.3 41.5008 221C41.3008 220.8 41.2008 220.6 41.0008 220.3C40.9008 220.1 40.8008 219.8 40.8008 219.6C40.8008 219.4 40.8008 219.1 40.9008 218.9C41.0008 218.7 41.1008 218.4 41.4008 218.2C41.7008 217.9 42.0008 217.8 42.3008 217.7C42.6008 217.6 42.9008 217.7 43.3008 217.8C43.7008 217.9 44.0008 218.1 44.3008 218.3C44.6008 218.5 45.0008 218.8 45.3008 219.2L45.9008 219.8L46.1008 219.6C46.2008 219.5 46.3008 219.4 46.4008 219.2C46.5008 219.1 46.5008 218.9 46.5008 218.7C46.5008 218.5 46.5008 218.4 46.4008 218.2C46.3008 218 46.2008 217.8 46.0008 217.7C45.8008 217.5 45.7008 217.4 45.6008 217.3C45.5008 217.2 45.3008 217.1 45.2008 217.1C45.1008 217 44.9008 217 44.8008 217C44.7008 217 44.5008 217 44.4008 216.9L44.1008 215.9ZM44.6008 219.9C44.4008 219.7 44.2008 219.5 44.0008 219.3C43.8008 219.1 43.6008 219 43.3008 218.9C43.1008 218.8 42.9008 218.7 42.6008 218.7C42.4008 218.7 42.2008 218.8 42.0008 218.9C41.7008 219.1 41.6008 219.4 41.7008 219.7C41.7008 220 41.9008 220.3 42.2008 220.5C42.4008 220.7 42.6008 220.9 42.9008 221C43.1008 221.1 43.4008 221.1 43.6008 221.1C43.8008 221.1 44.0008 221 44.2008 220.9C44.4008 220.8 44.6008 220.7 44.7008 220.5L45.0008 220.2L44.6008 219.9Z" fill="white"/>
<path d="M53.2017 225.6C53.2017 225.4 53.2017 225.2 53.1017 224.9C53.0017 224.6 52.9017 224.5 52.7017 224.3C52.5017 224.1 52.3017 224 52.0017 224C51.8017 224 51.6017 224 51.4017 224.2C51.3017 224.3 51.2017 224.5 51.3017 224.6C51.3017 224.8 51.4017 224.9 51.4017 225.1C51.5017 225.3 51.6017 225.4 51.7017 225.5C51.8017 225.6 51.9017 225.8 52.0017 225.9C52.1017 226.1 52.3017 226.3 52.4017 226.5C52.5017 226.7 52.6017 226.9 52.6017 227.1C52.6017 227.3 52.6017 227.5 52.6017 227.7C52.6017 227.9 52.4017 228.1 52.2017 228.3C52.0017 228.6 51.7017 228.7 51.5017 228.8C51.2017 228.9 51.0017 228.9 50.7017 228.9C50.4017 228.9 50.2017 228.8 49.9017 228.6C49.6017 228.5 49.4017 228.3 49.2017 228.1C48.8017 227.8 48.5017 227.4 48.3017 227.1C48.1017 226.7 48.0017 226.3 48.1017 225.8H49.2017C49.2017 226.1 49.3017 226.3 49.4017 226.6C49.5017 226.9 49.6017 227.1 49.9017 227.3C50.0017 227.4 50.1017 227.5 50.3017 227.6C50.4017 227.7 50.6017 227.7 50.7017 227.7C50.8017 227.7 51.0017 227.7 51.1017 227.7C51.2017 227.7 51.3017 227.6 51.4017 227.5C51.5017 227.4 51.6017 227.2 51.6017 227.1C51.6017 226.9 51.5017 226.8 51.5017 226.7C51.4017 226.6 51.3017 226.4 51.2017 226.3C51.1017 226.2 51.0017 226 50.9017 225.9C50.8017 225.7 50.6017 225.5 50.5017 225.3C50.4017 225.1 50.3017 224.9 50.3017 224.7C50.3017 224.5 50.3017 224.3 50.3017 224.1C50.3017 223.9 50.5017 223.7 50.7017 223.4C50.9017 223.2 51.1017 223 51.4017 222.9C51.7017 222.8 51.9017 222.8 52.2017 222.8C52.5017 222.8 52.7017 222.9 53.0017 223C53.3017 223.1 53.5017 223.3 53.7017 223.5C54.0017 223.8 54.3017 224.1 54.4017 224.4C54.6017 224.8 54.6017 225.1 54.6017 225.6H53.2017Z" fill="white"/>
<path d="M55.5984 226.6C55.9984 226.6 56.4984 226.6 56.8984 226.7C57.2984 226.8 57.6984 227 58.0984 227.3C58.4984 227.6 58.6984 227.8 58.8984 228.1C59.0984 228.4 59.1984 228.7 59.2984 228.9C59.3984 229.2 59.2984 229.4 59.2984 229.7C59.2984 230 59.0984 230.2 58.9984 230.4L57.1984 232.9C57.0984 233.1 56.9984 233.2 56.8984 233.4C56.7984 233.5 56.6984 233.7 56.5984 233.8L55.7984 233.2C55.9984 232.9 56.0984 232.7 56.2984 232.4C55.8984 232.6 55.4984 232.6 55.0984 232.5C54.6984 232.4 54.2984 232.2 53.9984 232C53.7984 231.8 53.5984 231.6 53.3984 231.4C53.1984 231.2 53.0984 231 53.0984 230.7C52.9984 230.5 52.9984 230.2 53.0984 230C53.1984 229.8 53.2984 229.5 53.3984 229.3C53.5984 229 53.8984 228.8 54.1984 228.7C54.4984 228.6 54.7984 228.6 55.1984 228.6C55.4984 228.6 55.8984 228.8 56.2984 228.9C56.6984 229.1 56.9984 229.3 57.3984 229.6L58.0984 230.1L58.2984 229.9C58.3984 229.8 58.4984 229.6 58.4984 229.5C58.4984 229.3 58.5984 229.2 58.4984 229C58.4984 228.8 58.3984 228.7 58.2984 228.5C58.1984 228.3 58.0984 228.2 57.8984 228C57.6984 227.9 57.5984 227.8 57.3984 227.7C57.1984 227.6 57.0984 227.6 56.8984 227.6C56.7984 227.6 56.5984 227.6 56.4984 227.6C56.3984 227.6 56.1984 227.6 56.0984 227.6L55.5984 226.6ZM56.7984 230.4C56.5984 230.2 56.2984 230.1 56.0984 229.9C55.8984 229.8 55.5984 229.6 55.3984 229.6C55.1984 229.5 54.8984 229.5 54.6984 229.5C54.4984 229.5 54.2984 229.6 54.1984 229.8C53.9984 230.1 53.8984 230.4 53.9984 230.6C54.0984 230.9 54.2984 231.1 54.5984 231.3C54.8984 231.5 55.0984 231.6 55.2984 231.6C55.4984 231.6 55.7984 231.6 55.9984 231.6C56.1984 231.5 56.3984 231.4 56.5984 231.3C56.7984 231.2 56.8984 231 56.9984 230.9L57.1984 230.6L56.7984 230.4Z" fill="white"/>
<path d="M61.2 229.8L62.1 230.3L61.6 231.1C61.7 231 61.8 231 61.9 230.9C62.1 230.8 62.2 230.8 62.4 230.8C62.6 230.8 62.8 230.8 63.1 230.8C63.3 230.8 63.6 230.9 63.8 231.1C64.2 231.3 64.5 231.6 64.6 231.9C64.7 232.2 64.8 232.6 64.8 233C65.2 232.8 65.5 232.7 65.9 232.7C66.3 232.7 66.7 232.8 67 233C67.4 233.2 67.7 233.5 67.9 233.8C68.1 234.1 68.2 234.4 68.2 234.7C68.2 235 68.2 235.3 68.1 235.6C68 235.9 67.9 236.2 67.7 236.5L65.9 239.5L64.9 238.9L66.6 236C66.7 235.8 66.8 235.6 66.9 235.4C67 235.2 67 235 67 234.8C67 234.6 67 234.4 66.9 234.3C66.8 234.2 66.6 234 66.4 233.8C65.9 233.5 65.5 233.5 65.1 233.6C64.7 233.8 64.4 234.1 64.1 234.5L62.4 237.3L61.4 236.7L63 234C63.1 233.8 63.3 233.5 63.4 233.3C63.5 233.1 63.6 232.9 63.6 232.7C63.6 232.5 63.6 232.3 63.5 232.2C63.4 232 63.2 231.9 63 231.7C62.8 231.6 62.6 231.5 62.4 231.5C62.2 231.5 62 231.5 61.8 231.6C61.6 231.7 61.4 231.8 61.2 232C61 232.2 60.8 232.4 60.6 232.7L59 235.4L58 234.8L61.2 229.8Z" fill="white"/>
<path d="M70.1992 235.9C70.5992 235.8 71.0992 235.7 71.4992 235.8C71.8992 235.9 72.3992 236 72.6992 236.1C73.0992 236.3 73.3992 236.5 73.6992 236.7C73.9992 236.9 74.0992 237.2 74.1992 237.4C74.2992 237.7 74.3992 237.9 74.2992 238.2C74.2992 238.5 74.1992 238.7 74.0992 238.9L72.8992 241.8C72.7992 242 72.6992 242.2 72.6992 242.3C72.6992 242.4 72.5992 242.6 72.4992 242.8L71.5992 242.4C71.6992 242.1 71.7992 241.8 71.9992 241.6C71.5992 241.8 71.1992 242 70.7992 242C70.3992 242 69.9992 241.9 69.5992 241.7C69.2992 241.6 69.0992 241.4 68.8992 241.3C68.6992 241.1 68.4992 240.9 68.3992 240.7C68.2992 240.5 68.1992 240.2 68.1992 240C68.1992 239.7 68.2992 239.5 68.3992 239.2C68.5992 238.8 68.7992 238.6 69.0992 238.4C69.3992 238.2 69.6992 238.1 69.9992 238.1C70.2992 238.1 70.6992 238.1 71.0992 238.2C71.4992 238.3 71.8992 238.5 72.2992 238.7L73.0992 239.1L73.1992 238.9C73.2992 238.8 73.2992 238.6 73.2992 238.4C73.2992 238.2 73.2992 238.1 73.1992 237.9C73.0992 237.7 73.0992 237.6 72.8992 237.4C72.6992 237.2 72.5992 237.1 72.3992 237C72.1992 236.9 71.9992 236.8 71.7992 236.8C71.5992 236.8 71.4992 236.8 71.2992 236.8C71.0992 236.8 70.9992 236.8 70.8992 236.8C70.7992 236.8 70.5992 236.9 70.4992 236.9L70.1992 235.9ZM72.0992 239.4C71.8992 239.3 71.5992 239.2 71.2992 239.1C70.9992 239 70.7992 238.9 70.4992 238.9C70.2992 238.9 69.9992 238.9 69.7992 239C69.5992 239.1 69.3992 239.2 69.2992 239.4C69.1992 239.7 69.1992 240 69.2992 240.2C69.3992 240.4 69.6992 240.6 70.0992 240.8C70.3992 240.9 70.5992 241 70.8992 241C71.0992 241 71.3992 240.9 71.5992 240.9C71.7992 240.8 71.9992 240.7 72.0992 240.5C72.1992 240.3 72.3992 240.2 72.3992 240L72.5992 239.7L72.0992 239.4Z" fill="white"/>
<path d="M76.4016 237.9L77.5016 238.3L77.2015 239.2C77.3015 239.1 77.5016 239 77.6016 238.9C77.8016 238.8 77.9016 238.8 78.1016 238.7C78.3016 238.7 78.5015 238.7 78.7015 238.7C78.9015 238.7 79.1015 238.8 79.3015 238.8C79.5015 238.9 79.6015 239 79.7015 239.1L79.2015 240.2C79.1015 240.1 79.0016 240.1 79.0016 240C78.9016 240 78.8015 239.9 78.7015 239.9C78.2015 239.7 77.7015 239.7 77.3015 239.9C76.9015 240.1 76.6015 240.5 76.3015 241.1L75.2015 243.9L74.1016 243.5L76.4016 237.9Z" fill="white"/>
<path d="M83.5008 241.5L81.9008 241L81.0008 243.6C80.9008 243.8 80.9008 243.9 80.9008 244.1C80.9008 244.3 80.8008 244.4 80.8008 244.6C80.8008 244.8 80.9008 244.9 80.9008 245C81.0008 245.1 81.1008 245.2 81.3008 245.3C81.4008 245.3 81.6008 245.4 81.7008 245.4C81.8008 245.4 82.0008 245.4 82.1008 245.4L81.8008 246.4C81.6008 246.4 81.5008 246.4 81.2008 246.4C81.0008 246.4 80.8008 246.3 80.7008 246.3C80.3008 246.2 80.0008 246 79.8008 245.8C79.6008 245.6 79.5008 245.4 79.4008 245.2C79.4008 245 79.4008 244.7 79.4008 244.5C79.5008 244.3 79.5008 244 79.6008 243.8L80.6008 240.8L79.3008 240.4L79.6008 239.5L80.9008 239.9L81.4008 238.3L82.5008 238.7L82.0008 240.3L83.6008 240.8L83.5008 241.5Z" fill="white"/>
<path d="M86.1016 237.5L87.2015 237.8L86.1016 242.2C86.3016 241.9 86.6016 241.7 87.0016 241.6C87.4016 241.5 87.8015 241.5 88.3015 241.6C88.6015 241.7 88.8016 241.8 89.1016 241.9C89.3016 242.1 89.5015 242.2 89.7015 242.5C89.8015 242.7 89.9016 243 90.0016 243.3C90.0016 243.6 90.0016 244 89.9016 244.4L88.9016 248.2L87.8015 247.9L88.7015 244.4C88.8015 244.1 88.8015 243.9 88.8015 243.7C88.8015 243.5 88.7016 243.3 88.6016 243.2C88.5016 243 88.4015 242.9 88.2015 242.8C88.0015 242.7 87.9015 242.6 87.7015 242.6C87.5015 242.5 87.2016 242.5 87.0016 242.5C86.8016 242.5 86.6016 242.6 86.4016 242.7C86.2016 242.8 86.0016 243 85.9016 243.2C85.8016 243.4 85.6016 243.7 85.5016 244L84.7015 247L83.6016 246.7L86.1016 237.5Z" fill="white"/>
<path d="M91.7992 243.4C92.1992 243.2 92.5992 243 92.9992 242.9C93.3992 242.8 93.8992 242.8 94.2992 242.9C94.6992 243 95.0992 243.1 95.3992 243.3C95.6992 243.5 95.8992 243.7 96.0992 243.9C96.2992 244.1 96.3992 244.4 96.3992 244.6C96.4992 244.9 96.4992 245.1 96.3992 245.4L95.8992 248.4C95.8992 248.6 95.7992 248.8 95.7992 249C95.7992 249.2 95.7992 249.3 95.6992 249.5L94.6992 249.3C94.6992 249 94.7992 248.7 94.7992 248.4C94.4992 248.7 94.0992 249 93.7992 249.1C93.3992 249.2 92.9992 249.2 92.5992 249.1C92.2992 249.1 92.0992 249 91.7992 248.8C91.5992 248.7 91.3992 248.5 91.1992 248.3C90.9992 248.1 90.8992 247.9 90.8992 247.7C90.7992 247.5 90.7992 247.2 90.8992 246.9C90.9992 246.5 91.0992 246.2 91.2992 246C91.4992 245.8 91.7992 245.6 92.0992 245.5C92.3992 245.4 92.7992 245.3 93.1992 245.3C93.5992 245.3 93.9992 245.3 94.4992 245.4L95.2992 245.5V245.2C95.2992 245 95.2992 244.9 95.2992 244.7C95.2992 244.5 95.1992 244.4 95.0992 244.2C94.9992 244.1 94.8992 243.9 94.6992 243.8C94.4992 243.7 94.2992 243.6 94.0992 243.6C93.8992 243.6 93.6992 243.5 93.4992 243.6C93.2992 243.6 93.1992 243.6 92.9992 243.7C92.8992 243.7 92.6992 243.8 92.5992 243.9C92.4992 244 92.3992 244 92.1992 244.1L91.7992 243.4ZM94.5992 246.3C94.2992 246.3 94.0992 246.2 93.7992 246.2C93.4992 246.2 93.1992 246.2 92.9992 246.2C92.7992 246.2 92.4992 246.3 92.3992 246.4C92.1992 246.5 92.0992 246.7 92.0992 246.9C91.9992 247.2 92.0992 247.5 92.2992 247.7C92.4992 247.9 92.7992 248 93.1992 248.1C93.4992 248.2 93.7992 248.2 93.9992 248.1C94.1992 248 94.3992 247.9 94.5992 247.8C94.7992 247.7 94.8992 247.5 94.9992 247.3C95.0992 247.1 95.1992 246.9 95.1992 246.7L95.2992 246.3H94.5992Z" fill="white"/>
<path d="M98.7008 240.2L99.8008 240.3L99.2008 246.5L102.101 244.2L103.701 244.4L100.601 246.8L103.301 250.4L101.701 250.2L99.2008 246.8L98.9008 249.9L97.8008 249.8L98.7008 240.2Z" fill="white"/>
<path d="M108.398 246.1C108.398 245.8 108.398 245.5 108.598 245.2C108.698 244.9 108.898 244.7 109.098 244.5C109.298 244.3 109.498 244.1 109.798 244C110.098 243.9 110.398 243.8 110.698 243.8C110.998 243.8 111.298 243.8 111.598 244C111.898 244.1 112.098 244.3 112.298 244.5C112.498 244.7 112.698 244.9 112.798 245.2C112.898 245.5 112.998 245.8 112.998 246.1C112.998 246.4 112.998 246.7 112.798 247C112.698 247.3 112.498 247.5 112.298 247.7C112.098 247.9 111.898 248.1 111.598 248.2C111.298 248.3 110.998 248.4 110.698 248.4C110.398 248.4 110.098 248.4 109.798 248.2C109.498 248.1 109.298 247.9 109.098 247.7C108.898 247.5 108.698 247.3 108.598 247C108.398 246.7 108.398 246.4 108.398 246.1Z" fill="white"/>
<path d="M119.101 248.201C119.401 248.501 119.701 248.7 120.001 248.8C120.401 248.9 120.701 249 121.101 248.9C121.301 248.9 121.501 248.801 121.701 248.701C121.901 248.601 122.101 248.5 122.201 248.3C122.401 248.2 122.501 248 122.601 247.8C122.701 247.6 122.701 247.4 122.701 247.1C122.701 246.8 122.501 246.5 122.301 246.3C122.101 246.1 121.801 246 121.401 245.9C121.001 245.8 120.701 245.701 120.301 245.701C119.901 245.601 119.501 245.5 119.201 245.4C118.901 245.2 118.501 245.001 118.301 244.701C118.001 244.401 117.901 243.9 117.801 243.4C117.801 243.1 117.801 242.9 117.901 242.5C118.001 242.1 118.101 241.9 118.301 241.6C118.501 241.3 118.801 241.1 119.201 240.9C119.601 240.7 120.001 240.6 120.601 240.5C121.101 240.4 121.601 240.5 122.001 240.5C122.501 240.6 122.901 240.801 123.301 241.201L122.401 242.201C122.201 242.001 122.001 241.801 121.701 241.701C121.401 241.601 121.101 241.6 120.701 241.6C120.401 241.6 120.101 241.7 119.901 241.8C119.701 241.9 119.501 242.101 119.401 242.201C119.301 242.401 119.201 242.501 119.201 242.701C119.201 242.901 119.201 243.001 119.201 243.201C119.201 243.601 119.401 243.9 119.601 244C119.801 244.1 120.101 244.3 120.501 244.4C120.801 244.5 121.201 244.6 121.601 244.6C122.001 244.7 122.401 244.8 122.701 244.9C123.001 245 123.301 245.3 123.601 245.5C123.901 245.8 124.001 246.201 124.101 246.701C124.201 247.101 124.101 247.5 124.001 247.9C123.901 248.3 123.701 248.6 123.401 248.9C123.201 249.2 122.801 249.4 122.501 249.6C122.201 249.8 121.701 249.9 121.301 249.9C120.701 250 120.201 249.9 119.601 249.8C119.101 249.7 118.601 249.4 118.301 249L119.101 248.201Z" fill="white"/>
<path d="M124.398 241.1C124.398 240.9 124.398 240.7 124.498 240.5C124.598 240.3 124.798 240.2 124.998 240.2C125.198 240.2 125.398 240.2 125.598 240.3C125.798 240.4 125.898 240.6 125.998 240.8C126.098 241 125.998 241.2 125.898 241.4C125.798 241.6 125.598 241.7 125.398 241.7C125.198 241.7 124.998 241.7 124.798 241.6C124.598 241.5 124.498 241.3 124.398 241.1ZM125.098 243.2L126.198 243L127.298 249L126.198 249.2L125.098 243.2Z" fill="white"/>
<path d="M127.301 239.1L128.401 238.9L130.401 248.3L129.301 248.5L127.301 239.1Z" fill="white"/>
<path d="M130.199 242.2L131.499 241.9L134.499 245.9L134.999 241L136.199 240.7L135.499 247.2L134.299 247.5L130.199 242.2Z" fill="white"/>
<path d="M138.9 243.3C139 243.5 139.1 243.8 139.3 243.9C139.5 244.1 139.7 244.2 139.9 244.3C140.1 244.4 140.4 244.4 140.6 244.4C140.9 244.4 141.1 244.4 141.4 244.3C141.7 244.2 142 244 142.2 243.8C142.4 243.6 142.5 243.3 142.7 242.9L143.7 243.2C143.4 244.2 142.7 244.9 141.6 245.3C141.2 245.5 140.7 245.5 140.3 245.5C139.9 245.5 139.5 245.4 139.2 245.2C138.9 245 138.5 244.8 138.3 244.5C138 244.2 137.8 243.8 137.7 243.4C137.5 243 137.5 242.6 137.5 242.1C137.5 241.7 137.6 241.3 137.8 240.9C138 240.5 138.2 240.2 138.5 239.9C138.8 239.6 139.2 239.4 139.6 239.3C140.1 239.1 140.6 239.1 141 239.1C141.4 239.2 141.8 239.3 142.1 239.5C142.4 239.7 142.7 240 142.9 240.3C143.1 240.6 143.3 241 143.4 241.3L143.5 241.7L138.9 243.3ZM142 241.2C141.9 241 141.8 240.8 141.7 240.6C141.6 240.4 141.4 240.3 141.2 240.2C141 240.1 140.8 240 140.6 240C140.4 240 140.1 240 139.8 240.1C139.5 240.2 139.3 240.3 139.1 240.5C138.9 240.7 138.8 240.9 138.7 241.1C138.6 241.3 138.5 241.5 138.5 241.8C138.5 242 138.5 242.2 138.6 242.4L142 241.2Z" fill="white"/>
<path d="M143.5 237.9L144.6 237.4L145 238.3C145 238.1 145 237.9 145.1 237.8C145.2 237.6 145.3 237.5 145.4 237.3C145.5 237.1 145.6 237 145.8 236.9C146 236.8 146.1 236.7 146.3 236.6C146.5 236.5 146.6 236.5 146.8 236.5L147.2 237.7C147.1 237.7 147 237.7 146.9 237.8C146.8 237.9 146.7 237.9 146.6 237.9C146.1 238.1 145.8 238.4 145.6 238.8C145.5 239.2 145.5 239.7 145.8 240.3L147 243.1L145.9 243.6L143.5 237.9Z" fill="white"/>
<path d="M155.999 230.301C155.599 230.101 155.199 230.101 154.799 230.101C154.399 230.101 153.999 230.301 153.599 230.501C153.199 230.801 152.799 231.101 152.499 231.401C152.199 231.801 152.099 232.201 151.999 232.601C151.899 233.001 151.899 233.501 151.999 234.001C152.099 234.501 152.299 234.901 152.499 235.401C152.699 235.801 152.999 236.201 153.399 236.501C153.799 236.801 154.099 237.001 154.499 237.101C154.899 237.201 155.299 237.301 155.799 237.201C156.299 237.201 156.698 237.001 157.198 236.701C157.598 236.401 157.998 236.101 158.198 235.701C158.398 235.301 158.599 234.901 158.599 234.401L159.899 234.601C159.899 234.701 159.899 234.901 159.799 235.101C159.699 235.301 159.599 235.601 159.499 235.901C159.299 236.201 159.099 236.501 158.899 236.801C158.599 237.101 158.299 237.401 157.799 237.701C157.199 238.101 156.599 238.301 155.899 238.301C155.299 238.401 154.699 238.301 154.099 238.101C153.499 237.901 152.999 237.601 152.499 237.301C151.999 236.901 151.699 236.501 151.399 236.001C151.099 235.401 150.798 234.801 150.698 234.201C150.598 233.601 150.599 233.001 150.799 232.401C150.899 231.801 151.199 231.301 151.599 230.801C151.999 230.301 152.499 229.901 153.099 229.501C153.599 229.201 154.199 229.001 154.799 228.901C155.399 228.801 155.999 228.901 156.599 229.101L155.999 230.301Z" fill="white"/>
<path d="M159.899 232.6C159.599 232.2 159.499 231.9 159.399 231.4C159.299 230.9 159.299 230.6 159.399 230.2C159.499 229.8 159.599 229.4 159.799 229.1C159.999 228.7 160.299 228.4 160.699 228.2C161.099 227.9 161.499 227.8 161.899 227.7C162.299 227.6 162.699 227.6 163.099 227.7C163.499 227.8 163.899 227.9 164.199 228.1C164.599 228.3 164.899 228.6 165.099 229C165.399 229.4 165.499 229.7 165.599 230.2C165.699 230.6 165.699 231 165.599 231.4C165.499 231.8 165.399 232.2 165.199 232.5C164.999 232.9 164.699 233.2 164.299 233.4C163.899 233.7 163.499 233.8 163.099 233.9C162.699 234 162.299 234 161.899 233.9C161.499 233.8 161.099 233.7 160.799 233.5C160.499 233.3 160.199 233 159.899 232.6ZM160.899 231.9C161.099 232.1 161.299 232.4 161.499 232.5C161.699 232.6 161.999 232.8 162.199 232.8C162.399 232.8 162.699 232.8 162.999 232.8C163.299 232.7 163.499 232.6 163.799 232.4C163.999 232.2 164.199 232 164.399 231.8C164.499 231.6 164.599 231.3 164.699 231.1C164.699 230.9 164.699 230.6 164.599 230.3C164.499 230 164.399 229.8 164.199 229.5C163.999 229.3 163.799 229 163.599 228.9C163.399 228.8 163.099 228.6 162.899 228.6C162.699 228.5 162.399 228.6 162.099 228.6C161.799 228.7 161.599 228.8 161.299 229C160.999 229.2 160.899 229.4 160.699 229.6C160.599 229.8 160.499 230.1 160.399 230.3C160.399 230.5 160.399 230.8 160.499 231.1C160.599 231.4 160.699 231.7 160.899 231.9Z" fill="white"/>
<path d="M164.398 225.6L165.298 224.9L165.898 225.6C165.798 225.3 165.798 224.9 165.998 224.5C166.098 224.1 166.398 223.8 166.798 223.5C166.998 223.3 167.298 223.2 167.498 223.1C167.798 223 167.998 223 168.298 223C168.598 223 168.798 223.1 169.098 223.2C169.398 223.3 169.598 223.6 169.898 223.9L172.398 226.9L171.498 227.6L169.198 224.9C168.998 224.7 168.798 224.5 168.598 224.4C168.398 224.3 168.198 224.2 168.098 224.2C167.898 224.2 167.798 224.2 167.598 224.3C167.398 224.4 167.298 224.5 167.198 224.6C166.998 224.8 166.898 224.9 166.798 225.1C166.698 225.3 166.598 225.5 166.598 225.7C166.598 225.9 166.598 226.2 166.698 226.4C166.798 226.6 166.998 226.9 167.198 227.2L169.198 229.6L168.298 230.3L164.398 225.6Z" fill="white"/>
<path d="M172.701 219.5L171.501 220.6L173.401 222.6C173.501 222.7 173.601 222.8 173.801 223C173.901 223.1 174.001 223.2 174.201 223.3C174.301 223.4 174.501 223.4 174.601 223.4C174.701 223.4 174.901 223.3 175.001 223.1C175.101 223 175.201 222.9 175.301 222.8C175.401 222.7 175.401 222.6 175.501 222.4L176.201 223.2C176.201 223.3 176.101 223.5 175.901 223.7C175.701 223.9 175.701 224 175.601 224.1C175.301 224.4 175.001 224.6 174.701 224.7C174.401 224.8 174.201 224.8 174.001 224.7C173.801 224.6 173.601 224.5 173.401 224.4C173.201 224.2 173.001 224.1 172.901 223.9L170.701 221.6L169.701 222.5L169.001 221.8L170.001 220.9L168.801 219.7L169.601 218.9L170.801 220.1L172.001 219L172.701 219.5Z" fill="white"/>
<path d="M173 217.8L173.8 217L174.5 217.6C174.4 217.4 174.4 217.3 174.4 217.1C174.4 216.9 174.4 216.7 174.4 216.6C174.4 216.4 174.5 216.2 174.6 216.1C174.7 215.9 174.8 215.8 174.9 215.6C175 215.5 175.2 215.4 175.3 215.3L176.2 216.2C176.1 216.3 176 216.3 176 216.4C175.9 216.5 175.9 216.5 175.8 216.6C175.4 217 175.2 217.4 175.3 217.9C175.3 218.3 175.6 218.8 176.1 219.2L178.3 221.3L177.5 222.1L173 217.8Z" fill="white"/>
<path d="M174.402 213.1C174.202 213 174.102 212.8 174.102 212.5C174.102 212.3 174.102 212.1 174.302 211.9C174.502 211.7 174.602 211.6 174.902 211.6C175.102 211.6 175.302 211.6 175.502 211.8C175.702 211.9 175.802 212.1 175.802 212.4C175.802 212.6 175.802 212.8 175.602 213C175.502 213.2 175.302 213.3 175.002 213.3C174.802 213.3 174.602 213.2 174.402 213.1ZM176.202 214.3L176.902 213.4L181.502 217.3L180.802 218.2L176.202 214.3Z" fill="white"/>
<path d="M175.199 209.9L175.899 209L179.499 211.7C179.399 211.3 179.399 211 179.399 210.5C179.499 210.1 179.699 209.7 179.899 209.4C180.199 209 180.499 208.7 180.899 208.5C181.299 208.3 181.599 208.2 181.999 208.1C182.399 208.1 182.799 208.1 183.199 208.2C183.599 208.3 183.999 208.5 184.299 208.8C184.599 209.1 184.899 209.4 185.199 209.7C185.399 210 185.599 210.4 185.599 210.8C185.699 211.2 185.699 211.6 185.599 212C185.499 212.4 185.299 212.8 184.999 213.2C184.799 213.5 184.399 213.8 184.099 214C183.699 214.2 183.299 214.3 182.899 214.3L183.599 214.8L182.899 215.8L175.199 209.9ZM184.099 212.7C184.299 212.5 184.399 212.2 184.499 211.9C184.599 211.6 184.599 211.4 184.499 211.1C184.499 210.9 184.399 210.6 184.199 210.4C183.999 210.2 183.899 210 183.599 209.8C183.399 209.6 183.099 209.5 182.799 209.4C182.499 209.3 182.299 209.3 181.999 209.3C181.799 209.3 181.499 209.4 181.299 209.5C181.099 209.6 180.899 209.8 180.699 210.1C180.499 210.4 180.399 210.6 180.299 210.9C180.199 211.2 180.199 211.4 180.299 211.7C180.399 212 180.399 212.2 180.599 212.4C180.799 212.6 180.899 212.8 181.199 213C181.399 213.2 181.699 213.3 181.999 213.4C182.299 213.5 182.499 213.5 182.799 213.5C182.999 213.5 183.299 213.4 183.499 213.3C183.699 213.1 183.899 213 184.099 212.7Z" fill="white"/>
<path d="M190.602 204.7L190.002 205.7L189.202 205.2C189.402 205.5 189.502 205.8 189.502 206.3C189.502 206.7 189.302 207.1 189.102 207.5C188.902 207.8 188.802 208 188.502 208.1C188.202 208.2 188.002 208.4 187.802 208.5C187.502 208.6 187.202 208.6 186.902 208.5C186.602 208.4 186.302 208.3 185.902 208.1L182.602 206L183.202 205L186.202 206.9C186.402 207.1 186.702 207.1 186.902 207.2C187.102 207.2 187.302 207.2 187.502 207.2C187.702 207.2 187.802 207.1 188.002 207C188.102 206.9 188.302 206.8 188.302 206.6C188.402 206.4 188.502 206.2 188.602 206C188.602 205.8 188.602 205.6 188.602 205.4C188.502 205.2 188.402 205 188.302 204.8C188.102 204.6 187.902 204.4 187.602 204.2L185.002 202.5L185.602 201.5L190.602 204.7Z" fill="white"/>
<path d="M188.7 197.6L187.9 199L190.3 200.3C190.4 200.4 190.6 200.5 190.7 200.5C190.8 200.6 191 200.6 191.1 200.6C191.2 200.6 191.4 200.6 191.5 200.5C191.6 200.4 191.7 200.3 191.8 200.1C191.9 200 191.9 199.9 192 199.7C192 199.6 192.1 199.4 192.1 199.3L193 199.8C193 200 193 200.1 192.9 200.3C192.8 200.5 192.8 200.7 192.7 200.8C192.5 201.2 192.3 201.5 192 201.6C191.8 201.8 191.6 201.8 191.3 201.8C191.1 201.8 190.8 201.8 190.6 201.7C190.4 201.6 190.2 201.5 189.9 201.4L187.1 199.9L186.5 201.1L185.9 200.8L186.5 199.6L185 198.8L185.5 197.8L187 198.6L187.8 197.2L188.7 197.6Z" fill="white"/>
<path d="M191.198 197.5C190.798 197.3 190.498 197.1 190.198 196.8C189.898 196.5 189.698 196.1 189.598 195.8C189.498 195.4 189.398 195 189.398 194.6C189.398 194.2 189.498 193.8 189.698 193.3C189.898 192.8 190.098 192.5 190.498 192.3C190.798 192 191.198 191.8 191.498 191.7C191.898 191.6 192.298 191.5 192.698 191.5C193.098 191.5 193.498 191.6 193.898 191.8C194.298 192 194.598 192.2 194.898 192.5C195.198 192.8 195.398 193.2 195.498 193.5C195.598 193.8 195.698 194.3 195.698 194.7C195.698 195.1 195.598 195.5 195.398 196C195.198 196.4 194.998 196.8 194.598 197C194.298 197.3 193.898 197.5 193.598 197.6C193.198 197.7 192.798 197.8 192.398 197.8C191.998 197.8 191.598 197.7 191.198 197.5ZM191.698 196.4C191.998 196.5 192.298 196.6 192.498 196.6C192.798 196.6 192.998 196.6 193.298 196.5C193.498 196.4 193.798 196.3 193.998 196.1C194.198 195.9 194.398 195.7 194.498 195.4C194.598 195.1 194.698 194.8 194.698 194.6C194.698 194.4 194.698 194.1 194.598 193.9C194.498 193.7 194.398 193.5 194.198 193.3C193.998 193.1 193.798 192.9 193.498 192.8C193.198 192.7 192.898 192.6 192.698 192.6C192.398 192.6 192.198 192.6 191.898 192.7C191.698 192.8 191.398 192.9 191.198 193.1C190.998 193.3 190.798 193.5 190.698 193.8C190.598 194.1 190.498 194.4 190.498 194.6C190.498 194.9 190.498 195.1 190.598 195.3C190.698 195.5 190.798 195.7 190.998 195.9C191.098 196.1 191.398 196.2 191.698 196.4Z" fill="white"/>
<path d="M191.5 189.1L191.9 188L192.8 188.3C192.7 188.2 192.6 188 192.5 187.9C192.4 187.7 192.4 187.6 192.3 187.4C192.2 187.2 192.3 187 192.3 186.8C192.3 186.6 192.4 186.4 192.4 186.2C192.5 186 192.5 185.9 192.7 185.7L193.8 186.2C193.7 186.3 193.7 186.4 193.6 186.4C193.6 186.5 193.5 186.6 193.5 186.7C193.3 187.2 193.3 187.7 193.5 188.1C193.7 188.5 194.1 188.8 194.7 189L197.5 190.1L197.1 191.2L191.5 189.1Z" fill="white"/>
<defs>
<filter id="filter0_ii" x="0" y="49" width="218" height="218" filterUnits="userSpaceOnUse" color-interpolation-filters="sRGB">
<feFlood flood-opacity="0" result="BackgroundImageFix"/>
<feBlend mode="normal" in="SourceGraphic" in2="BackgroundImageFix" result="shape"/>
<feColorMatrix in="SourceAlpha" type="matrix" values="0 0 0 0 0 0 0 0 0 0 0 0 0 0 0 0 0 0 127 0" result="hardAlpha"/>
<feOffset/>
<feGaussianBlur stdDeviation="4"/>
<feComposite in2="hardAlpha" operator="arithmetic" k2="-1" k3="1"/>
<feColorMatrix type="matrix" values="0 0 0 0 0.9875 0 0 0 0 0.722843 0 0 0 0 0.386771 0 0 0 1 0"/>
<feBlend mode="normal" in2="shape" result="effect1_innerShadow"/>
<feColorMatrix in="SourceAlpha" type="matrix" values="0 0 0 0 0 0 0 0 0 0 0 0 0 0 0 0 0 0 127 0" result="hardAlpha"/>
<feOffset/>
<feGaussianBlur stdDeviation="6"/>
<feComposite in2="hardAlpha" operator="arithmetic" k2="-1" k3="1"/>
<feColorMatrix type="matrix" values="0 0 0 0 0 0 0 0 0 0 0 0 0 0 0 0 0 0 0.2 0"/>
<feBlend mode="normal" in2="effect1_innerShadow" result="effect2_innerShadow"/>
</filter>
<filter id="filter1_i" x="7" y="56" width="204" height="208" filterUnits="userSpaceOnUse" color-interpolation-filters="sRGB">
<feFlood flood-opacity="0" result="BackgroundImageFix"/>
<feBlend mode="normal" in="SourceGraphic" in2="BackgroundImageFix" result="shape"/>
<feColorMatrix in="SourceAlpha" type="matrix" values="0 0 0 0 0 0 0 0 0 0 0 0 0 0 0 0 0 0 127 0" result="hardAlpha"/>
<feOffset dy="4"/>
<feGaussianBlur stdDeviation="10"/>
<feComposite in2="hardAlpha" operator="arithmetic" k2="-1" k3="1"/>
<feColorMatrix type="matrix" values="0 0 0 0 0 0 0 0 0 0 0 0 0 0 0 0 0 0 1 0"/>
<feBlend mode="normal" in2="shape" result="effect1_innerShadow"/>
</filter>
<filter id="filter2_i" x="59" y="108" width="100" height="100" filterUnits="userSpaceOnUse" color-interpolation-filters="sRGB">
<feFlood flood-opacity="0" result="BackgroundImageFix"/>
<feBlend mode="normal" in="SourceGraphic" in2="BackgroundImageFix" result="shape"/>
<feColorMatrix in="SourceAlpha" type="matrix" values="0 0 0 0 0 0 0 0 0 0 0 0 0 0 0 0 0 0 127 0" result="hardAlpha"/>
<feOffset/>
<feGaussianBlur stdDeviation="6"/>
<feComposite in2="hardAlpha" operator="arithmetic" k2="-1" k3="1"/>
<feColorMatrix type="matrix" values="0 0 0 0 0.34902 0 0 0 0 0.360784 0 0 0 0 0.364706 0 0 0 1 0"/>
<feBlend mode="normal" in2="shape" result="effect1_innerShadow"/>
</filter>
<filter id="filter3_d" x="82.168" y="132" width="53.6667" height="52" filterUnits="userSpaceOnUse" color-interpolation-filters="sRGB">
<feFlood flood-opacity="0" result="BackgroundImageFix"/>
<feColorMatrix in="SourceAlpha" type="matrix" values="0 0 0 0 0 0 0 0 0 0 0 0 0 0 0 0 0 0 127 0"/>
<feOffset/>
<feGaussianBlur stdDeviation="0.5"/>
<feColorMatrix type="matrix" values="0 0 0 0 0.320833 0 0 0 0 0.320833 0 0 0 0 0.320833 0 0 0 0.25 0"/>
<feBlend mode="normal" in2="BackgroundImageFix" result="effect1_dropShadow"/>
<feBlend mode="normal" in="SourceGraphic" in2="effect1_dropShadow" result="shape"/>
</filter>
<linearGradient id="paint0_linear" x1="51.775" y1="56.4938" x2="322.848" y2="327.729" gradientUnits="userSpaceOnUse">
<stop stop-color="white"/>
<stop offset="1" stop-color="#969696" stop-opacity="0"/>
</linearGradient>
<linearGradient id="paint1_linear" x1="174.52" y1="212.6" x2="38.8" y2="106.52" gradientUnits="userSpaceOnUse">
<stop stop-color="white"/>
<stop offset="1" stop-color="#383838" stop-opacity="0"/>
</linearGradient>
<linearGradient id="paint2_linear" x1="194.68" y1="229.4" x2="17.2" y2="90.68" gradientUnits="userSpaceOnUse">
<stop stop-color="white"/>
<stop offset="1" stop-color="#383838" stop-opacity="0"/>
</linearGradient>
</defs>
</svg>
