<svg width="218" height="268" viewBox="0 0 218 268" fill="none" xmlns="http://www.w3.org/2000/svg">
<path d="M86.0098 29.7983C84.9084 29.7983 84.0273 30.669 84.0273 31.7573V50.0412C84.0273 51.1295 84.9084 52.0002 86.0098 52.0002H131.385C132.487 52.0002 133.368 51.1295 133.368 50.0412V31.7573C133.368 30.669 132.487 29.7983 131.385 29.7983H86.0098ZM129.403 44.1642C129.403 45.2526 128.522 46.1232 127.42 46.1232H90.1949C89.0935 46.1232 88.2125 45.2526 88.2125 44.1642V35.893C88.2125 34.8046 89.0935 33.934 90.1949 33.934H127.42C128.522 33.934 129.403 34.8046 129.403 35.893V44.1642Z" fill="#FFE287"/>
<path d="M140.045 0L114.918 37.8775H127.37L155.388 0H140.045Z" fill="#0FA711"/>
<path d="M127.377 0L102.473 37.8775H114.925L140.052 0H127.377Z" fill="white"/>
<path d="M114.924 0L90.0195 37.8775H102.472L127.376 0H114.924Z" fill="#FF7600"/>
<path d="M90.0177 37.8775H102.47L77.343 0H62L90.0177 37.8775Z" fill="#FF7600"/>
<path d="M102.471 37.8775H114.923L90.0184 0H77.3438L102.471 37.8775Z" fill="white"/>
<path opacity="0.5" d="M110.695 6.27979L104.469 15.6931L119.145 37.8818H127.372L129.596 34.744L110.695 6.27979Z" fill="#3E4347"/>
<path d="M114.924 37.8775H127.376L102.472 0H90.0195L114.924 37.8775Z" fill="#0FA711"/>
<g filter="url(#filter0_ii)">
<path d="M218 159C218 219.199 169.199 268 109 268C48.801 268 0 219.199 0 159C0 98.801 48.801 50 109 50C169.199 50 218 98.801 218 159Z" fill="#FDD24F" fill-opacity="0.8"/>
</g>
<path d="M214.5 159C214.5 217.266 167.266 264.5 109 264.5C50.734 264.5 3.5 217.266 3.5 159C3.5 100.734 50.734 53.5 109 53.5C167.266 53.5 214.5 100.734 214.5 159Z" stroke="#DFDFDF" stroke-width="7"/>
<path d="M214.5 159C214.5 217.266 167.266 264.5 109 264.5C50.734 264.5 3.5 217.266 3.5 159C3.5 100.734 50.734 53.5 109 53.5C167.266 53.5 214.5 100.734 214.5 159Z" stroke="url(#paint0_linear)" stroke-width="7"/>
<path d="M196 159C196 207.049 157.049 246 109 246C60.9512 246 22 207.049 22 159C22 110.951 60.9512 72 109 72C157.049 72 196 110.951 196 159Z" fill="#EEB42F"/>
<path fill-rule="evenodd" clip-rule="evenodd" d="M109 87C69.2355 87 37 119.235 37 159C37 198.764 69.2355 231 109 231C148.764 231 181 198.764 181 159C181 119.235 148.764 87 109 87ZM7 159C7 102.667 52.667 57 109 57C165.333 57 211 102.667 211 159C211 215.333 165.333 261 109 261C52.667 261 7 215.333 7 159Z" fill="#F9C54C"/>
<path d="M109 82C66.5591 82 32 116.357 32 159C32 201.643 66.357 236 109 236C151.643 236 186 201.643 186 159C186 116.357 151.441 82 109 82ZM93.6404 89.4777C93.8425 89.4777 93.8425 89.4777 93.6404 89.4777C95.0551 92.5092 97.6824 94.3281 100.31 93.7218C102.937 93.3176 105.564 91.4987 105.766 87.8609C106.171 87.8609 106.575 87.8609 106.979 87.8609C106.979 98.7743 106.171 110.496 104.958 123.228C104.756 124.441 104.756 125.654 104.756 126.866C104.352 125.856 103.948 124.643 103.543 123.228C99.2992 112.517 95.4593 100.997 92.4278 89.6798C93.0341 89.6798 93.2362 89.4777 93.6404 89.4777ZM76.0577 95.7428C78.2808 98.3701 81.1102 99.3806 83.5354 98.168C86.3648 96.9554 87.9816 94.126 87.3753 91.0945C87.7795 90.8924 88.1837 90.8924 88.5879 90.6903C91.2152 101.199 93.8425 112.719 95.8635 125.451C96.0656 126.866 96.2677 127.877 96.6719 129.089C96.0656 128.079 95.4593 127.068 94.4488 125.856C87.5774 116.559 80.9081 106.454 75.0472 96.3491C75.2493 96.147 75.6535 95.9449 76.0577 95.7428ZM60.4961 106.656C63.3255 108.475 66.357 108.677 68.378 107.06C69.9948 105.848 70.8032 104.029 70.8032 102.21C70.8032 101.199 70.6011 100.189 69.9948 99.3806C70.399 99.1785 70.6011 98.9764 71.0052 98.7743C76.4619 108.071 81.7165 118.782 87.1732 130.302C87.7795 131.514 88.3858 132.525 88.79 133.535C87.9816 132.727 86.9711 131.919 85.9606 131.11C77.0682 123.633 67.9738 115.549 59.6877 107.465C59.8898 107.06 60.294 106.858 60.4961 106.656ZM48.3701 121.005C48.5722 121.005 48.5722 121.005 48.3701 121.005C51.6037 122.016 54.6352 121.612 56.0499 119.388C56.4541 118.782 57.4646 117.165 57.4646 115.549C57.4646 114.538 57.0604 112.921 55.8478 111.507C56.0499 111.304 56.4541 110.9 56.6562 110.698C64.336 118.378 72.2178 127.27 80.5039 136.971C81.3123 137.982 82.1207 138.79 82.9291 139.598C81.9186 138.992 80.706 138.588 79.4934 137.982C68.9843 133.131 58.0709 127.675 47.7638 122.016C47.9659 121.612 48.168 121.409 48.3701 121.005ZM40.4882 137.982C40.4882 137.982 40.4882 137.78 40.4882 137.982C43.9239 138.184 46.5512 136.971 47.5617 134.344C47.7638 133.738 47.9659 132.929 47.9659 131.717C47.9659 130.504 47.5617 128.281 45.1365 126.664C45.3386 126.26 45.5407 126.058 45.7428 125.654C55.0394 131.11 65.1444 137.577 75.4514 144.853C76.4619 145.661 77.6745 146.268 78.4829 146.874C77.4724 146.672 76.0577 146.47 74.643 146.066C63.3255 144.449 51.4016 142.024 39.8819 138.992C40.2861 138.79 40.4882 138.386 40.4882 137.982ZM37.2546 156.373C37.2546 156.373 37.2546 156.171 37.2546 156.373C40.4882 155.766 42.9134 153.745 43.1155 151.118C43.1155 150.916 43.1155 150.714 43.1155 150.31C43.1155 147.885 41.9029 145.257 38.8714 144.247C38.8714 143.843 39.0735 143.438 39.0735 143.034C49.5827 145.864 60.9003 149.703 72.8242 153.948C74.0368 154.352 75.2493 154.756 76.2598 154.958C75.0472 154.958 73.8346 155.16 72.42 155.16C61.1024 156.575 48.7743 157.181 37.0525 157.383C37.2546 157.181 37.2546 156.777 37.2546 156.373ZM38.8714 175.168C38.8714 174.966 38.8714 174.966 38.8714 175.168C41.4987 173.753 43.1155 171.732 43.1155 169.307C43.1155 169.105 43.1155 168.701 43.1155 168.499C42.7113 165.871 40.8924 163.244 37.2546 163.042C37.2546 162.638 37.2546 162.234 37.2546 161.829C48.168 161.829 59.8898 162.436 72.622 163.446C74.0367 163.648 75.2493 163.648 76.2598 163.648C75.2493 164.053 74.0367 164.457 72.622 164.861C61.9108 169.105 50.3911 172.945 39.0735 176.178C39.0735 175.976 39.0735 175.572 38.8714 175.168ZM45.3386 192.751C45.3386 192.751 45.3386 192.549 45.3386 192.751C47.1575 191.134 48.168 189.315 48.168 187.294C48.168 186.486 47.9659 185.879 47.7638 185.273C46.7533 182.848 44.3281 180.827 40.6903 181.635C40.4882 181.231 40.4882 180.827 40.2861 180.423C50.7953 177.593 62.315 175.168 74.8451 172.945C76.2598 172.743 77.2703 172.339 78.4829 172.136C77.4724 172.743 76.4619 173.349 75.2493 174.36C65.9528 181.231 55.8478 187.9 45.7428 193.963C45.7428 193.357 45.5407 193.155 45.3386 192.751ZM56.252 208.11C57.2625 206.493 57.6667 205.079 57.6667 203.462C57.6667 202.249 57.2625 201.037 56.4541 200.228C54.8373 198.207 51.8058 196.793 48.5722 198.409C48.3701 198.005 48.168 197.803 47.9659 197.399C57.2625 191.942 67.9738 186.486 79.4934 181.029C80.706 180.423 81.7165 179.816 82.727 179.412C81.9186 180.22 81.1102 181.231 80.3018 182.241C73.2283 191.336 65.1444 200.43 57.0604 208.919C56.8583 208.717 56.4541 208.514 56.252 208.11ZM70.6011 220.034C70.8032 218.822 71.0052 217.811 71.0052 216.801C71.0052 214.78 70.1969 213.163 68.7822 212.354C66.7612 210.94 63.5276 210.131 60.9003 212.759C60.4961 212.556 60.294 212.152 60.0919 211.95C67.7717 204.27 76.4619 196.186 86.1627 188.102C87.1732 187.294 87.9816 186.486 88.79 185.677C88.1837 186.688 87.7795 187.9 87.1732 189.113C82.727 199.622 77.4724 210.535 71.6115 220.64C71.4095 220.438 71.0052 220.236 70.6011 220.034ZM87.5774 227.916C87.7795 224.48 86.3648 221.853 83.9396 220.843C81.5144 220.034 78.2808 220.236 76.2598 223.268C75.8556 223.066 75.6535 222.864 75.2493 222.661C80.706 213.365 86.9711 203.26 94.2467 192.751C95.0551 191.538 95.6614 190.528 96.2677 189.719C96.0656 190.73 95.8635 192.144 95.4593 193.559C93.8425 204.877 91.4173 216.801 88.5879 228.32C88.3858 228.118 87.9816 228.118 87.5774 227.916ZM105.969 230.948C105.362 227.714 103.341 225.289 100.714 225.087C98.0866 224.885 95.0551 225.895 94.0446 229.331C93.6404 229.331 93.2362 229.129 92.832 229.129C95.6614 218.619 99.2992 207.302 103.543 195.378C103.948 194.165 104.352 192.953 104.554 191.942C104.554 193.155 104.756 194.367 104.756 195.782C106.171 207.1 106.979 219.428 107.181 231.15C106.777 231.15 106.373 231.15 105.969 230.948ZM178.927 144.449C176.299 145.864 174.48 147.885 174.48 150.31C174.48 150.512 174.48 150.916 174.48 151.118C174.885 153.745 176.703 156.373 180.341 156.575C180.341 156.979 180.341 157.383 180.341 157.787C169.63 157.787 157.706 156.979 144.974 155.766C143.559 155.564 142.346 155.564 141.336 155.564C142.346 155.16 143.559 154.756 144.974 154.352C155.685 150.108 167.205 146.268 178.522 143.236C178.724 143.64 178.724 144.045 178.927 144.449ZM172.661 126.866C172.661 126.866 172.661 127.068 172.661 126.866C170.843 128.483 169.832 130.302 169.832 132.323C169.832 133.131 170.034 133.738 170.236 134.344C171.247 136.769 173.672 138.79 177.31 138.184C177.512 138.588 177.512 138.992 177.714 139.396C167.205 142.024 155.483 144.449 142.953 146.672C141.538 146.874 140.528 147.076 139.315 147.48C140.325 146.874 141.336 146.268 142.549 145.459C151.845 138.386 161.95 131.717 172.055 125.856C172.257 126.26 172.459 126.462 172.661 126.866ZM162.152 111.709C161.142 113.325 160.535 114.942 160.535 116.357C160.535 117.57 160.94 118.782 161.748 119.591C163.365 121.612 166.194 123.026 169.428 121.409C169.63 121.814 169.832 122.016 170.034 122.42C160.535 127.675 150.026 133.131 138.304 138.184C137.092 138.79 136.081 139.194 135.071 139.801C135.879 138.992 136.688 137.982 137.698 136.971C144.974 128.079 153.058 118.984 161.344 110.698C161.546 111.102 161.95 111.304 162.152 111.709ZM147.601 99.1785C147.601 99.1785 147.803 99.3806 147.601 99.1785C147.399 100.391 146.995 101.402 146.995 102.412C146.995 104.231 147.803 105.848 149.218 106.858C151.239 108.273 154.472 109.081 157.1 106.656C157.302 106.858 157.706 107.262 157.908 107.465C150.228 115.144 141.336 123.026 131.433 131.11C130.423 131.919 129.412 132.727 128.806 133.535C129.412 132.525 129.816 131.514 130.423 130.1C135.071 119.591 140.528 108.677 146.388 98.5722C146.995 98.7743 147.197 98.9764 147.601 99.1785ZM130.625 91.2966C130.827 91.2966 130.827 91.2966 130.625 91.2966C130.423 94.7323 131.837 97.3596 134.262 98.3701C136.688 99.3806 139.921 99.1785 141.942 95.9449C142.346 96.147 142.549 96.3491 142.953 96.5512C137.496 105.848 131.029 115.751 123.551 126.26C122.743 127.27 122.136 128.281 121.53 129.291C121.732 128.281 122.136 126.866 122.339 125.451C124.157 114.134 126.583 102.21 129.412 90.8924C130.018 90.8924 130.22 91.0945 130.625 91.2966ZM112.436 87.8609C112.436 87.8609 112.638 87.8609 112.436 87.8609C113.042 91.0945 115.063 93.5197 117.69 93.7218C120.318 93.9239 123.349 92.9134 124.562 89.4777C124.966 89.4777 125.37 89.6798 125.774 89.6798C122.945 100.189 119.105 111.507 114.659 123.228C114.255 124.441 113.85 125.654 113.446 126.664C113.446 125.451 113.244 124.239 113.244 122.824C112.032 111.507 111.223 99.1785 111.223 87.4567C111.627 87.8609 112.032 87.8609 112.436 87.8609ZM124.36 229.331C122.743 226.299 120.318 224.682 117.69 225.087C115.063 225.491 112.436 227.31 112.234 230.948C111.829 230.948 111.425 230.948 111.021 230.948C111.021 220.034 111.627 208.312 112.84 195.58C113.042 194.367 113.042 193.357 113.042 192.346C113.042 192.144 113.042 192.144 113.042 191.942C113.446 192.953 113.85 194.165 114.255 195.58C118.499 206.291 122.339 217.811 125.572 229.129C125.168 229.331 124.764 229.331 124.36 229.331ZM141.74 223.066C141.74 223.066 141.538 223.066 141.74 223.066C139.517 220.438 136.688 219.428 134.262 220.64C131.433 221.853 129.816 224.682 130.625 227.714C130.22 227.916 129.816 227.916 129.412 228.118C126.583 217.609 124.157 206.089 122.136 193.559C121.934 192.144 121.732 191.134 121.328 189.921C121.934 190.932 122.541 191.942 123.551 193.155C130.423 202.451 137.092 212.556 142.953 222.661C142.346 222.864 142.144 222.864 141.74 223.066ZM157.302 212.152C157.302 212.354 157.302 212.354 157.302 212.152C154.472 210.333 151.441 210.131 149.42 211.748C147.803 212.961 146.995 214.78 146.995 216.598C146.995 217.609 147.197 218.619 147.803 219.428C147.399 219.63 147.197 219.832 146.793 220.034C141.336 210.738 135.879 200.026 130.625 188.507C130.018 187.294 129.412 186.283 129.008 185.273C129.816 186.081 130.827 186.89 131.837 187.698C140.932 194.772 150.026 202.856 158.312 211.142C157.908 211.748 157.706 211.95 157.302 212.152ZM169.226 198.005C169.226 198.005 169.226 198.207 169.226 198.005C165.992 196.995 162.961 197.399 161.546 199.622C161.142 200.228 160.131 201.845 160.131 203.462C160.131 204.472 160.535 206.089 161.748 207.504C161.546 207.706 161.142 208.11 160.94 208.312C153.26 200.633 145.378 191.74 137.294 182.039C136.486 181.029 135.677 180.018 134.869 179.412C135.879 180.018 137.092 180.423 138.304 181.029C148.814 185.677 159.727 191.134 170.034 196.793C169.63 197.399 169.428 197.601 169.226 198.005ZM177.108 181.029C177.108 181.231 177.108 181.231 177.108 181.029C173.672 180.827 171.045 182.039 170.034 184.667C169.832 185.273 169.63 186.081 169.63 187.294C169.63 188.507 170.034 190.73 172.459 192.346C172.257 192.751 172.055 192.953 171.853 193.357C162.556 187.9 152.451 181.433 142.144 174.157C141.134 173.349 139.921 172.743 139.113 172.136C140.123 172.339 141.538 172.743 142.953 172.945C154.27 174.562 166.194 176.987 177.512 180.018C177.31 180.423 177.31 180.827 177.108 181.029ZM180.341 162.84C177.108 163.446 174.682 165.265 174.48 167.892C174.48 168.094 174.48 168.297 174.48 168.701C174.48 171.126 175.693 173.753 178.724 174.764C178.724 175.168 178.522 175.572 178.522 175.976C168.013 173.147 156.696 169.509 144.772 165.063C143.559 164.659 142.346 164.255 141.336 164.052C142.549 164.052 143.761 163.85 145.176 163.85C156.493 162.638 168.822 161.829 180.543 161.829C180.543 162.032 180.341 162.436 180.341 162.84Z" fill="#FFE287"/>
<circle cx="109" cy="159" r="77" stroke="url(#paint1_linear)" stroke-width="2"/>
<circle cx="109" cy="159" r="101" stroke="url(#paint2_linear)" stroke-width="2"/>
<g filter="url(#filter1_i)">
<circle cx="109" cy="159" r="50" fill="#FDD24F"/>
</g>
<g filter="url(#filter2_d)">
<path fill-rule="evenodd" clip-rule="evenodd" d="M83.168 135.786V134H112.692V162.571H83.168V135.786ZM99.7751 139.357H96.0846L88.7037 157.214H92.3942L93.8718 153.643H101.988L103.466 157.214H107.156L99.7751 139.357ZM95.3458 150.071L97.9299 143.821L100.514 150.071H95.3458ZM131.144 159H116.382V155.429H134.835V184H105.311V166.143H109.001V180.429H131.144V159ZM127.96 165.47V162.676H120.929V165.47H122.626V170.785H119.165C118.739 170.402 118.218 170.161 117.601 170.061C118.335 169.829 118.901 169.404 119.298 168.789C119.694 168.173 119.893 167.433 119.893 166.568C119.893 165.304 119.511 164.314 118.747 163.599C117.983 162.867 116.895 162.501 115.485 162.501C114.5 162.501 113.648 162.659 112.928 162.975V166.144C113.721 165.728 114.493 165.52 115.242 165.52C116.271 165.52 116.785 166.019 116.785 167.017C116.785 168.049 116.175 168.564 114.956 168.564H114.272V171.509H115.176C115.97 171.509 116.513 171.667 116.807 171.983C117.116 172.299 117.27 172.723 117.27 173.255C117.27 174.653 116.623 175.351 115.33 175.351C114.375 175.351 113.427 175.068 112.487 174.503V177.747C113.413 178.113 114.412 178.296 115.485 178.296C117.072 178.296 118.262 177.88 119.055 177.048C119.863 176.216 120.267 175.135 120.267 173.804V173.63H122.626V179.418H125.756V165.47H127.96Z" fill="white"/>
</g>
<path d="M56.9 92.2998L51.5 84.9998L53.9 83.1999C54.7 82.5999 55.4 82.2998 56 82.3998C56.6 82.3998 57.2 82.7998 57.7 83.3998C58 83.6998 58.1 84.0998 58.1 84.4998C58.1 84.8998 58 85.2999 57.8 85.6999C58.3 85.4999 58.7 85.4998 59.2 85.5998C59.7 85.6998 60 85.9998 60.4 86.4998C60.9 87.1998 61.1 87.7998 60.9 88.4998C60.8 89.1998 60.3 89.7998 59.5 90.3998L56.9 92.2998ZM54.8 87.3998L56.3 86.2998C56.7 85.9998 57 85.5999 57.1 85.1999C57.2 84.7999 57.1 84.3998 56.8 84.0998C56.5 83.6998 56.2 83.4998 55.8 83.4998C55.4 83.4998 55 83.6998 54.5 83.9998L53.1 84.9998L54.8 87.3998ZM55.4 88.1999L57.3 90.7998L58.9 89.5998C59.3 89.2998 59.6 88.8998 59.7 88.4998C59.8 88.0998 59.7 87.6998 59.4 87.2998C58.8 86.3998 58 86.2998 57 86.9998L55.4 88.1999Z" fill="white"/>
<path d="M60.7984 82.3002C60.8984 81.5002 61.2984 80.9002 61.9984 80.5002C63.1984 79.8002 64.1984 80.1001 65.0984 81.4001L67.3984 85.2002L66.3984 85.8002L64.0984 82.0002C63.7984 81.6002 63.5984 81.3002 63.2984 81.3002C62.9984 81.3002 62.5984 81.3002 62.2984 81.5002C61.9984 81.7002 61.7984 82.0002 61.5984 82.3002C61.4984 82.6002 61.3984 83.0002 61.3984 83.3002L63.8984 87.4001L62.8984 88.0002L57.8984 79.8002L58.8984 79.2002L60.7984 82.3002Z" fill="white"/>
<path d="M72.4016 82.6002C72.3016 82.5002 72.1016 82.3002 71.9016 82.0002C71.7016 82.7002 71.2016 83.3002 70.6016 83.6002C70.0016 83.9002 69.4016 84.0002 68.9016 83.8002C68.4016 83.7002 67.9016 83.3002 67.7016 82.8002C67.4016 82.2002 67.4016 81.6002 67.7016 81.0002C68.0016 80.4002 68.6016 79.9002 69.4016 79.5002L70.4016 79.0002L70.2016 78.5002C70.0016 78.1002 69.8016 77.9002 69.4016 77.8002C69.1016 77.7002 68.7016 77.8002 68.3016 78.0002C67.9016 78.2002 67.7016 78.4002 67.5016 78.7002C67.3016 79.0002 67.3016 79.3002 67.5016 79.6002L66.5016 80.1002C66.3016 79.8002 66.3016 79.5002 66.4016 79.1002C66.5016 78.7002 66.6016 78.3002 66.9016 78.0002C67.2016 77.7002 67.5016 77.4002 68.0016 77.1002C68.7016 76.7002 69.3016 76.6002 69.9016 76.8002C70.5016 76.9002 70.9016 77.3002 71.2016 77.9002L72.6016 80.7002C72.9016 81.3002 73.2016 81.7002 73.5016 81.9002V82.0002L72.4016 82.6002ZM70.3016 82.7002C70.6016 82.5002 70.9016 82.3002 71.1016 82.0002C71.3016 81.7002 71.4016 81.4002 71.4016 81.0002L70.8016 79.8002L70.0016 80.2002C68.7016 80.8002 68.3016 81.5002 68.7016 82.3002C68.9016 82.6002 69.1016 82.8002 69.4016 82.9002C69.6016 82.9002 69.9016 82.9002 70.3016 82.7002Z" fill="white"/>
<path d="M77.5003 78.4001C77.4003 78.1001 77.2003 77.9001 76.9003 77.9001C76.6003 77.8001 76.2003 77.9002 75.6003 78.0002C75.0003 78.1002 74.5003 78.2001 74.1003 78.1001C73.7003 78.1001 73.4003 78.0002 73.2003 77.8002C73.0003 77.6002 72.8003 77.4001 72.6003 77.1001C72.4003 76.6001 72.4003 76.1002 72.7003 75.5002C73.0003 75.0002 73.5003 74.6002 74.1003 74.3002C74.8003 74.0002 75.5003 73.9001 76.0003 74.1001C76.6003 74.3001 77.0003 74.7002 77.2003 75.2002L76.1003 75.6001C76.0003 75.3001 75.7003 75.1002 75.4003 75.0002C75.1003 74.9002 74.7003 74.9001 74.3003 75.1001C73.9003 75.3001 73.6003 75.5002 73.5003 75.7002C73.4003 76.0002 73.3003 76.2002 73.4003 76.5002C73.5003 76.8002 73.7003 76.9002 73.9003 77.0002C74.1003 77.1002 74.6003 77.0001 75.2003 76.9001C75.8003 76.8001 76.3003 76.8002 76.7003 76.8002C77.1003 76.8002 77.4003 76.9001 77.7003 77.1001C78.0003 77.3001 78.2003 77.5002 78.3003 77.8002C78.5003 78.4002 78.5003 78.9001 78.2003 79.4001C77.9003 79.9001 77.4003 80.3001 76.7003 80.6001C76.2003 80.8001 75.7003 80.9001 75.3003 80.9001C74.8003 80.9001 74.4003 80.8002 74.1003 80.5002C73.8003 80.3002 73.5003 80.0001 73.3003 79.6001L74.4003 79.2002C74.6003 79.5002 74.8003 79.8001 75.2003 79.9001C75.6003 80.0001 75.9003 80.0002 76.4003 79.8002C76.8003 79.6002 77.1003 79.4002 77.3003 79.2002C77.5003 79.0002 77.6003 78.7001 77.5003 78.4001Z" fill="white"/>
<path d="M79.4992 73.2C79.7992 72.4 80.2992 71.9 81.0992 71.7C82.4992 71.3 83.3992 71.7999 83.8992 73.2999L85.2993 77.4999L84.1992 77.8999L82.7993 73.7C82.5993 73.2 82.3992 72.8999 82.0992 72.7999C81.7992 72.5999 81.4992 72.5999 80.9992 72.7999C80.5992 72.8999 80.3992 73.0999 80.1992 73.3999C79.9992 73.6999 79.8993 73.9999 79.7993 74.3999L81.2993 78.9999L80.1992 79.3999L77.1992 70.2999L78.2993 69.8999L79.4992 73.2Z" fill="white"/>
<path d="M84.5 68.9C84.5 68.7 84.5 68.6 84.5 68.4C84.6 68.2 84.7 68.1 84.9 68.1C85.1 68 85.3 68.1 85.4 68.2C85.5 68.3 85.6 68.4 85.7 68.6C85.7 68.8 85.7 68.9 85.7 69.1C85.6 69.3 85.5 69.4 85.3 69.4C85.1 69.5 84.9 69.4 84.8 69.4C84.7 69.4 84.6 69.1 84.5 68.9ZM88 76.9L86.9 77.2L85.1 70.7L86.2 70.4L88 76.9Z" fill="white"/>
<path d="M89.1992 69.5998L89.3992 70.3998C89.7992 69.6998 90.3992 69.1998 91.1992 68.9998C92.5992 68.6998 93.4993 69.2998 93.7993 70.8998L94.6992 75.2998L93.5992 75.4998L92.6992 71.0998C92.5992 70.5998 92.3992 70.2998 92.1992 70.0998C91.8992 69.8998 91.5992 69.8998 91.0992 69.9998C90.6992 70.0998 90.3992 70.1998 90.1992 70.4998C89.9992 70.7998 89.7992 71.0998 89.6992 71.3998L90.6992 76.0998L89.5992 76.2998L88.1992 69.6999L89.1992 69.5998Z" fill="white"/>
<path d="M94.8984 66.7C94.8984 66.5 94.8984 66.4 94.9984 66.2C95.0984 66.1 95.2984 65.9999 95.4984 65.8999C95.6984 65.8999 95.8984 65.8999 95.9984 65.9999C96.0984 66.0999 96.1984 66.2999 96.1984 66.3999C96.1984 66.5999 96.1984 66.6999 96.0984 66.8999C95.9984 66.9999 95.7984 67.1 95.5984 67.2C95.3984 67.2 95.1984 67.1999 95.0984 67.0999C94.9984 66.9999 94.8984 66.9 94.8984 66.7ZM97.3984 74.9999L96.2985 75.2L95.2985 68.4999L96.3984 68.2999L97.3984 74.9999Z" fill="white"/>
<path d="M101.699 69.5998C101.699 69.1998 101.799 68.8998 101.999 68.6998C102.199 68.4998 102.499 68.2998 102.899 68.2998C103.299 68.2998 103.599 68.3998 103.799 68.5998C104.099 68.7998 104.199 69.0998 104.199 69.4998V69.6998C104.199 70.0998 104.099 70.3998 103.899 70.5998C103.699 70.7998 103.399 70.9998 102.999 70.9998C102.599 70.9998 102.299 70.8998 102.099 70.6998C101.899 70.4998 101.699 70.1998 101.699 69.7998V69.5998Z" fill="white"/>
<path d="M110.399 73.1L114.699 73.2V74.2L109.199 74.1L109.399 65H110.599L110.399 73.1Z" fill="white"/>
<path d="M116.901 74.4001L115.801 74.3001L116.301 67.6001L117.401 67.7001L116.901 74.4001ZM116.301 65.8001C116.301 65.6001 116.401 65.5001 116.501 65.3001C116.601 65.2001 116.801 65.1001 117.001 65.1001C117.201 65.1001 117.401 65.2001 117.501 65.3001C117.601 65.4001 117.701 65.6001 117.601 65.8001C117.601 66.0001 117.501 66.1001 117.401 66.3001C117.301 66.4001 117.101 66.5001 116.901 66.4001C116.701 66.4001 116.501 66.3001 116.401 66.2001C116.401 66.2001 116.301 66.0001 116.301 65.8001Z" fill="white"/>
<path d="M120.7 71.7L119.9 72.4L119.6 74.7L118.5 74.5L119.8 65L120.9 65.2L120.1 70.9L120.8 70.2L123.2 68.3L124.6 68.5L121.6 70.9L124 75.2L122.7 75L120.7 71.7Z" fill="white"/>
<path d="M126.902 69.9001C127.502 69.4001 128.202 69.2001 129.002 69.4001C130.402 69.7001 130.902 70.6001 130.602 72.2001L129.702 76.6001L128.602 76.4001L129.502 72.0001C129.602 71.5001 129.602 71.1001 129.402 70.9001C129.202 70.6001 128.902 70.4001 128.502 70.3001C128.102 70.2001 127.802 70.3001 127.502 70.4001C127.202 70.5001 126.902 70.7001 126.702 71.0001L125.702 75.7001L124.602 75.5001L126.602 66.1001L127.702 66.3001L126.902 69.9001Z" fill="white"/>
<path d="M131.701 73.4998C131.901 72.8998 132.201 72.2998 132.601 71.8998C133.001 71.4998 133.501 71.1998 134.001 70.9998C134.501 70.8998 135.101 70.8998 135.601 70.9998C136.501 71.2998 137.101 71.7998 137.501 72.4998C137.901 73.2998 137.901 74.1998 137.601 75.1998V75.2998C137.401 75.8998 137.101 76.4998 136.701 76.8998C136.301 77.2998 135.901 77.5998 135.301 77.7998C134.801 77.8998 134.201 77.8998 133.601 77.7998C132.701 77.4998 132.101 76.9998 131.701 76.2998C131.301 75.5998 131.401 74.4998 131.701 73.4998ZM132.801 73.8998C132.601 74.5998 132.601 75.1998 132.801 75.7998C133.001 76.2998 133.401 76.6998 133.901 76.7998C134.501 76.9998 135.001 76.8998 135.401 76.4998C135.801 76.0998 136.201 75.5998 136.401 74.7998C136.601 74.0998 136.601 73.4998 136.401 72.8998C136.201 72.3998 135.801 71.9998 135.301 71.7998C134.801 71.5998 134.301 71.6998 133.801 72.0998C133.401 72.4998 133.101 73.0998 132.801 73.8998Z" fill="white"/>
<path d="M141.901 80.5001L140.801 80.0001L144.201 71.6001L145.301 72.1001L141.901 80.5001Z" fill="white"/>
<path d="M147.402 75.6L147.102 76.4C147.802 76 148.602 76 149.302 76.4C150.602 77 150.902 78 150.202 79.5L148.302 83.5L147.302 83L149.202 79C149.402 78.6 149.502 78.2 149.402 77.9C149.302 77.6 149.002 77.3 148.602 77.1C148.302 76.9 147.902 76.9 147.602 76.9C147.302 77 146.902 77.1 146.702 77.3L144.602 81.6L143.602 81.1L146.502 75L147.402 75.6Z" fill="white"/>
<path d="M151.002 80.9999C151.502 80.0999 152.102 79.5 152.902 79.2C153.602 78.9 154.402 78.9999 155.002 79.2999C155.702 79.6999 156.102 80.1999 156.202 80.8999L158.002 77.8999L159.002 78.4999L154.202 86.7999L153.302 86.2999L153.602 85.5999C152.902 85.8999 152.202 85.7999 151.502 85.3999C150.802 84.9999 150.402 84.3999 150.302 83.5999C150.202 82.7999 150.402 81.9999 151.002 80.9999ZM151.902 81.7C151.502 82.4 151.402 82.9999 151.402 83.4999C151.402 83.9999 151.702 84.4 152.202 84.7C152.802 85.1 153.502 85.1 154.102 84.7L155.702 81.9999C155.702 81.2999 155.402 80.6999 154.802 80.3999C154.302 80.0999 153.802 80.0999 153.302 80.2999C152.802 80.4999 152.302 80.9 151.902 81.7Z" fill="white"/>
<path d="M156.5 88.4001L155.5 87.8002L159.2 82.2002L160.2 82.8002L156.5 88.4001ZM160.1 80.5002C160.2 80.3002 160.3 80.2002 160.5 80.2002C160.7 80.2002 160.8 80.2002 161 80.3002C161.2 80.4002 161.3 80.6002 161.3 80.7002C161.3 80.9002 161.3 81.0002 161.2 81.2002C161.1 81.4002 161 81.5002 160.8 81.5002C160.6 81.5002 160.5 81.5001 160.3 81.4001C160.1 81.3001 160 81.1002 160 81.0002C160 80.9002 160 80.7002 160.1 80.5002Z" fill="white"/>
<path d="M161.198 91.7001C161.198 91.6001 161.298 91.3001 161.498 91.0001C160.698 91.1001 160.098 91.0001 159.498 90.5001C158.998 90.1001 158.598 89.6001 158.498 89.1001C158.398 88.5001 158.498 88.0001 158.798 87.6001C159.198 87.0001 159.798 86.8001 160.398 86.8001C160.998 86.8001 161.798 87.1001 162.598 87.7001L163.498 88.4001L163.798 88.0001C163.998 87.7001 164.098 87.3001 164.098 87.0001C164.098 86.7001 163.798 86.4001 163.498 86.1001C163.198 85.9001 162.798 85.7001 162.498 85.7001C162.198 85.7001 161.898 85.8001 161.698 86.1001L160.798 85.4001C160.998 85.1001 161.298 84.9001 161.698 84.8001C162.098 84.7001 162.498 84.7001 162.898 84.8001C163.298 84.9001 163.798 85.1001 164.098 85.4001C164.698 85.9001 165.098 86.4001 165.198 87.0001C165.298 87.6001 165.198 88.1001 164.798 88.7001L162.998 91.2001C162.598 91.7001 162.398 92.1001 162.298 92.5001L162.198 92.6001L161.198 91.7001ZM160.198 89.9001C160.498 90.1001 160.798 90.2001 161.198 90.3001C161.598 90.4001 161.898 90.3001 162.198 90.1001L162.998 89.0001L162.298 88.5001C161.198 87.7001 160.398 87.6001 159.898 88.2001C159.698 88.5001 159.598 88.8001 159.698 89.1001C159.698 89.4001 159.898 89.6001 160.198 89.9001Z" fill="white"/>
<path d="M23 195.3L31.2 191.5L32.4 194.2C32.8 195.1 32.9 195.9 32.8 196.5C32.6 197.1 32.2 197.6 31.5 197.9C31.1 198.1 30.7 198.1 30.3 198C29.9 197.9 29.5 197.7 29.2 197.4C29.3 197.9 29.2 198.4 29 198.8C28.8 199.2 28.4 199.5 27.9 199.8C27.2 200.1 26.5 200.2 25.8 199.9C25.2 199.6 24.6 199 24.2 198.2L23 195.3ZM27.4 194.6L24.4 196L25.2 197.8C25.4 198.3 25.7 198.6 26.1 198.8C26.5 199 26.9 199 27.4 198.7C28.4 198.2 28.6 197.5 28.1 196.4L27.4 194.6ZM28.2 194.2L29 195.8C29.2 196.3 29.5 196.6 29.9 196.8C30.3 197 30.7 197 31.1 196.8C31.6 196.6 31.8 196.3 31.9 195.9C32 195.5 31.9 195.1 31.7 194.6L31 193L28.2 194.2Z" fill="white"/>
<path d="M32.3015 200.7C33.1015 200.8 33.7016 201.3 34.1016 202C34.8016 203.2 34.5016 204.3 33.1016 205.1L29.2015 207.3L28.6016 206.3L32.5016 204.1C32.9016 203.9 33.2015 203.6 33.3015 203.3C33.4015 203 33.3016 202.6 33.1016 202.2C32.9016 201.9 32.7016 201.6 32.4016 201.5C32.1016 201.4 31.8016 201.3 31.4016 201.3L27.2015 203.7L26.6016 202.7L34.9016 198L35.5016 199L32.3015 200.7Z" fill="white"/>
<path d="M32.5994 212.5C32.6994 212.4 32.7994 212.2 33.0994 212C32.2994 211.9 31.7993 211.5 31.2993 210.9C30.8993 210.3 30.7994 209.8 30.8994 209.2C30.9994 208.6 31.1993 208.2 31.6993 207.9C32.2993 207.5 32.8994 207.4 33.4994 207.6C34.0994 207.8 34.6993 208.3 35.1993 209.1L35.7993 210L36.1993 209.7C36.4993 209.5 36.6993 209.2 36.7993 208.9C36.8993 208.6 36.7994 208.2 36.4994 207.8C36.2994 207.5 35.9993 207.2 35.6993 207.1C35.3993 207 35.0993 207 34.7993 207.2L34.1993 206.2C34.4993 206 34.7993 205.9 35.1993 206C35.5993 206 35.9994 206.2 36.3994 206.4C36.7994 206.6 37.0993 207 37.3994 207.4C37.7994 208 37.9994 208.7 37.8994 209.2C37.7994 209.8 37.4994 210.3 36.9994 210.7L34.3994 212.4C33.8994 212.7 33.4993 213.1 33.2993 213.4L33.1993 213.5L32.5994 212.5ZM32.1993 210.4C32.3993 210.7 32.6994 210.9 32.9994 211.1C33.2994 211.3 33.6994 211.3 33.9994 211.3L35.0994 210.5L34.5994 209.8C33.7994 208.6 33.0993 208.3 32.3994 208.7C32.0993 208.9 31.8994 209.2 31.8994 209.5C31.8994 209.8 31.9993 210.1 32.1993 210.4Z" fill="white"/>
<path d="M38.1984 217C38.3984 216.8 38.5984 216.6 38.5984 216.3C38.5984 216 38.4984 215.6 38.1984 215.1C37.8984 214.6 37.7984 214.1 37.6984 213.7C37.5984 213.3 37.5984 213 37.6984 212.7C37.7984 212.4 37.9984 212.2 38.1984 212C38.5984 211.7 39.0984 211.6 39.6984 211.7C40.2984 211.8 40.7984 212.2 41.2984 212.7C41.7984 213.3 41.9984 213.9 41.9984 214.5C41.9984 215.1 41.6984 215.6 41.2984 216L40.5984 215.1C40.7984 214.9 40.9984 214.6 40.9984 214.3C40.9984 213.9 40.8984 213.6 40.5984 213.3C40.2984 213 40.0984 212.8 39.7984 212.7C39.4984 212.6 39.1984 212.7 38.9984 212.9C38.7984 213.1 38.6984 213.3 38.6984 213.5C38.6984 213.8 38.8984 214.2 39.0984 214.7C39.3984 215.2 39.4984 215.7 39.5984 216.1C39.6984 216.5 39.6984 216.8 39.5984 217.1C39.4984 217.4 39.2984 217.6 38.9984 217.9C38.4984 218.3 37.9984 218.4 37.3984 218.2C36.7984 218 36.2984 217.7 35.7984 217.1C35.4984 216.7 35.1984 216.2 35.0984 215.8C34.9984 215.4 34.9984 214.9 35.0984 214.5C35.1984 214.1 35.3984 213.8 35.7984 213.5L36.4984 214.4C36.1984 214.7 36.0984 215 36.0984 215.3C36.0984 215.7 36.1984 216 36.4984 216.4C36.7984 216.7 37.0984 217 37.3984 217.1C37.6984 217.2 37.9984 217.1 38.1984 217Z" fill="white"/>
<path d="M43.9008 217.2C44.7008 217.2 45.4008 217.4 45.9008 218C46.9008 219 46.8008 220.1 45.6008 221.2L42.3008 224.2L41.5008 223.4L44.8008 220.4C45.2008 220.1 45.3008 219.7 45.4008 219.4C45.4008 219.1 45.3008 218.8 45.0008 218.4C44.7008 218.1 44.5008 218 44.1008 217.9C43.7008 217.8 43.4008 217.8 43.1008 217.9L39.6008 221.2L38.8008 220.4L45.8008 213.9L46.6008 214.7L43.9008 217.2Z" fill="white"/>
<path d="M46.8005 228.6C46.8005 228.5 47.0005 228.2 47.2005 228C46.4005 228 45.8005 227.8 45.2005 227.3C44.7005 226.8 44.4005 226.3 44.4005 225.8C44.3005 225.2 44.5005 224.7 44.9005 224.3C45.4005 223.8 45.9005 223.6 46.6005 223.6C47.3005 223.7 47.9005 224 48.6005 224.7L49.4005 225.5L49.8005 225.1C50.1005 224.8 50.2005 224.5 50.2005 224.1C50.2005 223.8 50.0005 223.4 49.7005 223.1C49.4005 222.8 49.1005 222.7 48.7005 222.6C48.4005 222.6 48.1005 222.7 47.9005 222.9L47.1005 222.1C47.3005 221.9 47.6005 221.7 48.0005 221.6C48.4005 221.5 48.8005 221.6 49.2005 221.7C49.6005 221.8 50.0005 222.1 50.4005 222.4C51.0005 222.9 51.3005 223.5 51.3005 224.1C51.4005 224.7 51.2005 225.2 50.7005 225.7L48.6005 228C48.2005 228.5 47.9005 228.9 47.8005 229.2L47.7005 229.3L46.8005 228.6ZM46.0005 226.6C46.3005 226.8 46.6005 227 46.9005 227.1C47.3005 227.2 47.6005 227.2 47.9005 227L48.8005 226L48.1005 225.4C47.1005 224.4 46.3005 224.3 45.7005 224.9C45.5005 225.2 45.4005 225.5 45.4005 225.8C45.6005 226.1 45.8005 226.4 46.0005 226.6Z" fill="white"/>
<path d="M56.5 231.2C55.8 230.4 55.5 229.6 55.3 229C55.2 228.4 55.3 227.8 55.7 227.3C56.1 226.7 56.7 226.4 57.4 226.4C58.1 226.4 58.9 226.6 59.6 227.2C60.1 227.6 60.5 228 60.7 228.5C61 229 61.1 229.5 61 230C61 230.5 60.8 231 60.5 231.4L59.5 230.7C59.8 230.3 59.9 229.8 59.8 229.3C59.7 228.8 59.4 228.4 58.9 228C58.4 227.7 58 227.5 57.6 227.5C57.2 227.5 56.8 227.7 56.6 228.1C56.4 228.4 56.3 228.7 56.4 229.1C56.5 229.5 56.8 230 57.3 230.6C57.8 231.2 58.1 231.8 58.3 232.2C58.5 232.7 58.6 233.1 58.5 233.5C58.5 233.9 58.3 234.3 58 234.7C57.6 235.3 57 235.6 56.3 235.6C55.6 235.6 54.8 235.3 54.1 234.8C53.6 234.4 53.2 234 52.9 233.5C52.6 233 52.5 232.5 52.5 232C52.5 231.5 52.7 231 53 230.6L54 231.3C53.7 231.7 53.6 232.2 53.7 232.7C53.8 233.2 54.2 233.6 54.7 234C55.2 234.4 55.7 234.6 56.1 234.5C56.5 234.5 56.9 234.3 57.1 233.9C57.3 233.5 57.4 233.2 57.3 232.8C57.3 232.4 57 231.8 56.5 231.2Z" fill="white"/>
<path d="M61.7994 239.5C61.7994 239.4 61.8994 239.1 61.9994 238.8C61.2994 239 60.5994 238.9 59.8994 238.5C59.2994 238.2 58.9994 237.7 58.7994 237.2C58.5994 236.7 58.6994 236.1 58.9994 235.6C59.3994 235 59.8994 234.7 60.4994 234.6C61.1994 234.5 61.8994 234.8 62.6994 235.3L63.6994 235.9L63.9994 235.4C64.1994 235.1 64.2994 234.7 64.1994 234.4C64.0994 234.1 63.8994 233.8 63.4994 233.5C63.0994 233.3 62.7994 233.2 62.4994 233.2C62.1994 233.2 61.8994 233.4 61.6994 233.6L60.6994 233C60.8994 232.7 61.0994 232.5 61.4994 232.4C61.8994 232.3 62.2994 232.2 62.6994 232.3C63.0994 232.4 63.5994 232.5 63.9994 232.8C64.6994 233.2 65.0994 233.7 65.1994 234.3C65.3994 234.9 65.2994 235.4 64.8994 236L63.2994 238.6C62.9994 239.1 62.7994 239.6 62.6994 240L62.5994 240.1L61.7994 239.5ZM60.5994 237.8C60.8994 238 61.1994 238.1 61.5994 238.1C61.9994 238.1 62.2994 238 62.5994 237.8L63.2994 236.6L62.4994 236.1C61.2994 235.4 60.4994 235.3 59.9994 236C59.7994 236.3 59.7994 236.6 59.8994 236.9C60.0994 237.3 60.2994 237.6 60.5994 237.8Z" fill="white"/>
<path d="M68.5008 235.6L68.2008 236.3C68.9008 236 69.6008 236 70.4008 236.4C71.2008 236.8 71.7008 237.4 71.7008 238.2C72.0008 238 72.4008 237.9 72.8008 237.9C73.2008 237.9 73.6008 238 74.1008 238.2C75.4008 238.8 75.8008 239.9 75.1008 241.3L73.1008 245.4L72.1008 244.9L74.0008 240.9C74.2008 240.5 74.3008 240.1 74.2008 239.8C74.1008 239.5 73.8008 239.2 73.4008 239C73.0008 238.8 72.6008 238.8 72.3008 238.9C72.0008 239 71.6008 239.2 71.4008 239.6L69.5008 243.6L68.5008 243.1L70.4008 239.1C70.8008 238.2 70.6008 237.6 69.7008 237.2C69.0008 236.9 68.4008 236.9 67.9008 237.4L65.8008 241.8L64.8008 241.3L67.7008 235.2L68.5008 235.6Z" fill="white"/>
<path d="M79.0989 247.5C79.0989 247.4 79.0988 247.1 79.1988 246.8C78.4988 247.1 77.7989 247.2 77.0989 246.9C76.4989 246.7 75.9989 246.3 75.7989 245.8C75.5989 245.3 75.4988 244.8 75.6988 244.2C75.8988 243.5 76.3988 243.1 76.9988 242.9C77.5988 242.7 78.3989 242.8 79.2989 243.1L80.3989 243.5L80.5989 243C80.6989 242.6 80.6989 242.3 80.5989 242C80.4989 241.7 80.1988 241.5 79.6988 241.3C79.2988 241.2 78.9989 241.1 78.5989 241.2C78.2989 241.3 78.0988 241.5 77.9988 241.8L76.8989 241.4C76.9989 241.1 77.1989 240.8 77.5989 240.6C77.8989 240.4 78.2989 240.3 78.7989 240.2C79.1989 240.2 79.6988 240.2 80.1988 240.4C80.8988 240.7 81.3988 241.1 81.6988 241.6C81.9988 242.1 81.9989 242.7 81.7989 243.3L80.6988 246.2C80.4988 246.8 80.3989 247.3 80.3989 247.7V247.8L79.0989 247.5ZM77.5989 246C77.8989 246.1 78.2988 246.2 78.6988 246.1C79.0988 246 79.3989 245.9 79.5989 245.7L80.0989 244.4L79.2989 244.1C77.9989 243.6 77.1989 243.8 76.8989 244.5C76.7989 244.8 76.7988 245.1 76.9988 245.4C76.9988 245.7 77.1989 245.9 77.5989 246Z" fill="white"/>
<path d="M86.7015 243.9C86.5015 243.8 86.4015 243.8 86.2015 243.7C85.5015 243.5 84.9015 243.7 84.5015 244.2L83.2015 248.8L82.1016 248.5L84.0015 242L85.1016 242.3L84.9016 243.1C85.4016 242.6 86.0015 242.5 86.7015 242.7C86.9015 242.8 87.1015 242.8 87.2015 242.9L86.7015 243.9Z" fill="white"/>
<path d="M90.0992 242L89.6992 243.6L90.8992 243.9L90.6992 244.8L89.4992 244.5L88.4992 248.6C88.3992 248.9 88.3992 249.1 88.4992 249.2C88.5992 249.4 88.6992 249.5 88.9992 249.5C89.0992 249.5 89.2992 249.5 89.5992 249.6L89.3992 250.5C89.0992 250.5 88.7992 250.5 88.4992 250.4C87.9992 250.3 87.6992 250 87.4992 249.7C87.2992 249.4 87.2992 248.9 87.3992 248.3L88.3992 244.2L87.1992 243.9L87.3992 243L88.5992 243.3L88.9992 241.7L90.0992 242Z" fill="white"/>
<path d="M93.1016 245.1C93.7016 244.6 94.4015 244.4 95.2015 244.5C96.6015 244.7 97.2016 245.7 96.9016 247.2L96.2015 251.6L95.1016 251.4L95.8016 247C95.9016 246.5 95.8015 246.1 95.7015 245.9C95.6015 245.7 95.2016 245.5 94.8016 245.4C94.4016 245.3 94.1016 245.4 93.8016 245.5C93.5016 245.6 93.2015 245.9 93.0015 246.2L92.2015 250.9L91.1016 250.7L92.7015 241.3L93.8016 241.5L93.1016 245.1Z" fill="white"/>
<path d="M102.401 252.3C102.301 252.2 102.301 251.9 102.301 251.6C101.701 252.1 101.101 252.3 100.301 252.3C99.6013 252.2 99.1013 252 98.7013 251.6C98.3013 251.2 98.1013 250.7 98.2013 250.1C98.3013 249.4 98.6013 248.9 99.1013 248.5C99.6013 248.1 100.401 248 101.401 248.1L102.501 248.2V247.7C102.501 247.3 102.401 247 102.201 246.7C102.001 246.4 101.601 246.3 101.201 246.2C100.801 246.2 100.401 246.2 100.101 246.4C99.8013 246.6 99.6013 246.8 99.6013 247.1L98.4013 247C98.4013 246.7 98.6013 246.4 98.8013 246.1C99.1013 245.8 99.4013 245.6 99.8013 245.4C100.201 245.3 100.701 245.2 101.201 245.2C102.001 245.3 102.601 245.5 103.001 245.9C103.401 246.3 103.601 246.9 103.501 247.6L103.201 250.7C103.101 251.3 103.201 251.8 103.301 252.2V252.3H102.401ZM100.601 251.2C101.001 251.2 101.301 251.2 101.601 251C101.901 250.8 102.201 250.6 102.401 250.3L102.501 248.9L101.601 248.8C100.201 248.7 99.5013 249 99.4013 249.8C99.4013 250.2 99.5013 250.5 99.7013 250.7C99.9013 251.1 100.201 251.2 100.601 251.2Z" fill="white"/>
<path d="M107.502 249.4L106.802 250.1V252.5H105.602L105.802 242.9H107.002L106.902 248.7L107.502 248L109.602 245.8H111.002L108.302 248.6L111.202 252.6H109.802L107.502 249.4Z" fill="white"/>
<path d="M115.199 247.5C115.199 247.1 115.299 246.8 115.499 246.6C115.699 246.4 115.999 246.2 116.399 246.2C116.799 246.2 117.099 246.3 117.299 246.5C117.599 246.7 117.699 247 117.699 247.4V247.6C117.699 248 117.599 248.3 117.399 248.5C117.199 248.7 116.899 248.9 116.499 248.9C116.099 248.9 115.799 248.8 115.599 248.6C115.399 248.4 115.199 248.1 115.199 247.7V247.5Z" fill="white"/>
<path d="M130 249.1C129.8 249.6 129.4 250 128.9 250.3C128.4 250.6 127.8 250.8 127.1 251C126.4 251.1 125.7 251.1 125.1 250.9C124.5 250.7 123.9 250.3 123.5 249.7C123.1 249.1 122.8 248.4 122.6 247.6L122.5 246.8C122.2 245.5 122.4 244.4 122.9 243.5C123.4 242.6 124.2 242.1 125.3 241.9C126.2 241.7 127 241.8 127.7 242.2C128.4 242.6 128.8 243.2 129.1 244L127.9 244.2C127.5 243.1 126.6 242.6 125.5 242.8C124.7 242.9 124.2 243.3 123.9 244C123.6 244.6 123.5 245.5 123.7 246.5L123.8 247.2C124 248.2 124.4 249 124.9 249.5C125.4 250 126.1 250.2 126.9 250C127.3 249.9 127.7 249.8 128 249.6C128.3 249.4 128.6 249.2 128.7 249L128.3 247L126.2 247.4L126 246.4L129.2 245.8L130 249.1Z" fill="white"/>
<path d="M131.201 246.5C131.001 245.9 131.001 245.3 131.101 244.7C131.201 244.1 131.401 243.6 131.801 243.2C132.201 242.8 132.601 242.5 133.201 242.4C134.101 242.2 134.901 242.3 135.601 242.7C136.301 243.2 136.801 243.9 137.101 244.9V245C137.301 245.6 137.301 246.2 137.201 246.8C137.101 247.4 136.901 247.9 136.501 248.3C136.101 248.7 135.701 249 135.101 249.2C134.201 249.4 133.401 249.3 132.701 248.9C132.001 248.3 131.501 247.6 131.201 246.5ZM132.301 246.3C132.501 247 132.801 247.5 133.301 247.9C133.801 248.2 134.301 248.3 134.801 248.2C135.401 248 135.701 247.7 136.001 247.2C136.301 246.7 136.201 246 136.001 245.2C135.801 244.5 135.501 244 135.001 243.6C134.501 243.2 134.001 243.2 133.501 243.3C133.001 243.5 132.601 243.8 132.401 244.3C132.101 244.9 132.101 245.5 132.301 246.3Z" fill="white"/>
<path d="M140.802 247.2L139.702 247.6L136.602 238.6L137.702 238.2L140.802 247.2Z" fill="white"/>
<path d="M141.201 243.4C140.801 242.4 140.701 241.6 140.901 240.8C141.101 240 141.601 239.5 142.301 239.2C143.001 238.9 143.701 238.9 144.301 239.2L143.001 236L144.101 235.6L147.801 244.4L146.801 244.8L146.501 244.2C146.301 244.9 145.801 245.4 145.001 245.7C144.301 246 143.601 245.9 142.901 245.5C142.201 245.1 141.701 244.4 141.201 243.4ZM142.401 243.1C142.701 243.8 143.101 244.3 143.501 244.6C143.901 244.9 144.401 244.9 145.001 244.7C145.701 244.4 146.001 243.9 146.101 243.2L144.901 240.3C144.301 239.8 143.701 239.8 143.101 240C142.601 240.2 142.301 240.6 142.101 241.1C141.901 241.6 142.001 242.3 142.401 243.1Z" fill="white"/>
<path d="M157.3 236.1C157.7 237 157.7 237.8 157.5 238.6C157.3 239.4 156.7 240 155.8 240.5C154.9 241 153.9 241.1 153 240.8C152.1 240.5 151.3 239.7 150.6 238.6L150.2 237.8C149.8 237.1 149.5 236.3 149.5 235.6C149.5 234.9 149.6 234.3 149.9 233.7C150.2 233.1 150.7 232.7 151.3 232.3C152.1 231.8 152.9 231.7 153.7 231.9C154.5 232.1 155.1 232.6 155.7 233.3L154.7 233.9C154.3 233.3 153.8 233 153.3 232.9C152.8 232.8 152.3 232.9 151.8 233.2C151.1 233.6 150.8 234.1 150.7 234.8C150.6 235.5 150.8 236.3 151.3 237.2L151.7 238C152.2 238.9 152.8 239.4 153.4 239.7C154 240 154.7 240 155.3 239.6C155.9 239.3 156.2 238.9 156.4 238.5C156.6 238.1 156.5 237.5 156.2 236.8L157.3 236.1Z" fill="white"/>
<path d="M158.099 235C157.699 234.5 157.499 233.9 157.399 233.3C157.299 232.7 157.399 232.2 157.599 231.7C157.799 231.2 158.199 230.8 158.699 230.4C159.499 229.9 160.199 229.7 161.099 229.9C161.899 230.1 162.599 230.6 163.199 231.5V231.6C163.599 232.1 163.799 232.7 163.899 233.3C163.999 233.9 163.899 234.4 163.699 234.9C163.499 235.4 163.099 235.8 162.599 236.2C161.799 236.7 161.099 236.9 160.199 236.7C159.399 236.4 158.699 235.9 158.099 235ZM159.099 234.4C159.499 235 159.999 235.4 160.499 235.6C160.999 235.8 161.599 235.7 161.999 235.4C162.499 235.1 162.699 234.6 162.799 234C162.899 233.4 162.599 232.8 162.099 232.1C161.699 231.5 161.199 231.1 160.599 230.9C160.099 230.7 159.499 230.8 159.099 231.1C158.599 231.4 158.399 231.9 158.399 232.4C158.399 233.1 158.599 233.7 159.099 234.4Z" fill="white"/>
<path d="M163.101 227.3L163.701 227.9C163.701 227.1 164.001 226.4 164.701 225.9C165.801 225 166.901 225.2 167.901 226.4L170.701 229.9L169.801 230.6L167.001 227.1C166.701 226.7 166.401 226.5 166.101 226.5C165.801 226.5 165.401 226.6 165.101 226.9C164.801 227.1 164.601 227.4 164.501 227.8C164.401 228.1 164.401 228.5 164.501 228.8L167.501 232.5L166.601 233.2L162.301 228L163.101 227.3Z" fill="white"/>
<path d="M167.599 221.3L168.699 222.5L169.599 221.6L170.199 222.3L169.299 223.2L172.099 226.3C172.299 226.5 172.499 226.6 172.599 226.6C172.699 226.6 172.999 226.5 173.199 226.4C173.299 226.3 173.399 226.2 173.599 226L174.199 226.7C173.999 227 173.799 227.2 173.599 227.4C173.199 227.7 172.799 227.9 172.399 227.8C171.999 227.7 171.599 227.5 171.199 227.1L168.399 224L167.499 224.8L166.899 224.1L167.799 223.3L166.699 222.1L167.599 221.3Z" fill="white"/>
<path d="M173.5 219.2C173.4 219.3 173.2 219.4 173.1 219.6C172.6 220.1 172.4 220.7 172.7 221.4L176.1 224.8L175.3 225.6L170.5 220.9L171.3 220.1L171.9 220.6C171.7 219.9 171.9 219.3 172.4 218.8C172.6 218.6 172.7 218.5 172.8 218.5L173.5 219.2Z" fill="white"/>
<path d="M172.098 216.5C171.998 216.4 171.898 216.2 171.898 216.1C171.898 215.9 171.898 215.8 172.098 215.6C172.298 215.4 172.398 215.4 172.598 215.4C172.798 215.4 172.898 215.5 173.098 215.6C173.198 215.7 173.298 215.9 173.298 216C173.298 216.1 173.198 216.3 173.098 216.5C172.998 216.7 172.798 216.7 172.598 216.7C172.398 216.7 172.298 216.7 172.098 216.5ZM179.298 221.3L178.498 222.2L173.498 217.7L174.298 216.8L179.298 221.3Z" fill="white"/>
<path d="M181.701 213.3C182.501 213.9 183.001 214.7 183.201 215.4C183.401 216.2 183.201 216.9 182.701 217.5C182.201 218.2 181.501 218.5 180.801 218.5L181.401 219L180.701 219.8L173.301 213.8L174.001 212.9L176.801 215.1C176.601 214.4 176.801 213.7 177.301 213.1C177.801 212.5 178.501 212.2 179.201 212.2C180.001 212.2 180.801 212.5 181.701 213.3ZM180.901 214.1C180.301 213.6 179.701 213.3 179.201 213.3C178.701 213.3 178.201 213.5 177.901 213.9C177.401 214.5 177.401 215.1 177.701 215.8L180.001 217.6C180.801 217.8 181.401 217.6 181.901 217C182.201 216.6 182.401 216.1 182.201 215.6C182.001 215.2 181.601 214.6 180.901 214.1Z" fill="white"/>
<path d="M187.201 210.1C187.401 210.8 187.201 211.5 186.701 212.2C186.301 212.8 185.801 213.1 185.301 213.2C184.801 213.3 184.101 213.1 183.401 212.6L179.801 210.1L180.501 209.1L184.101 211.6C184.901 212.2 185.601 212.1 186.101 211.4C186.601 210.7 186.701 210 186.301 209.4L182.301 206.6L183.001 205.6L188.601 209.4L188.001 210.3L187.201 210.1Z" fill="white"/>
<path d="M183 202.1L184.4 202.9L185 201.8L185.8 202.3L185.2 203.4L188.8 205.5C189 205.6 189.2 205.7 189.4 205.7C189.6 205.7 189.7 205.5 189.9 205.3C190 205.2 190 205 190.1 204.8L190.9 205.3C190.8 205.6 190.7 205.9 190.6 206.1C190.3 206.5 190 206.8 189.6 206.9C189.2 207 188.8 206.9 188.3 206.6L184.7 204.5L184.1 205.6L183.3 205.1L183.9 204L182.5 203.2L183 202.1Z" fill="white"/>
<path d="M188.398 202.8C187.798 202.5 187.298 202.1 186.998 201.6C186.598 201.1 186.498 200.6 186.398 200.1C186.398 199.6 186.498 199 186.698 198.5C187.098 197.7 187.698 197.2 188.598 197C189.498 196.8 190.298 196.9 191.198 197.4H191.298C191.898 197.7 192.398 198.1 192.698 198.5C192.998 199 193.198 199.5 193.298 200C193.298 200.5 193.198 201.1 192.998 201.6C192.598 202.4 191.998 202.9 191.098 203.1C190.298 203.4 189.398 203.3 188.398 202.8ZM189.098 201.8C189.798 202.1 190.398 202.3 190.898 202.2C191.498 202.1 191.898 201.8 192.098 201.3C192.398 200.8 192.398 200.3 192.098 199.7C191.898 199.2 191.398 198.7 190.598 198.4C189.898 198.1 189.298 197.9 188.798 198C188.298 198.1 187.798 198.4 187.498 198.9C187.198 199.4 187.198 199.9 187.498 200.4C187.798 200.9 188.298 201.4 189.098 201.8Z" fill="white"/>
<path d="M190.999 192C190.899 192.1 190.799 192.3 190.699 192.5C190.399 193.2 190.499 193.8 190.999 194.3L195.399 196.2L194.899 197.3L188.699 194.6L189.099 193.6L189.799 193.9C189.399 193.3 189.299 192.7 189.599 192.1C189.699 191.9 189.799 191.7 189.899 191.7L190.999 192Z" fill="white"/>
<defs>
<filter id="filter0_ii" x="0" y="50" width="218" height="218" filterUnits="userSpaceOnUse" color-interpolation-filters="sRGB">
<feFlood flood-opacity="0" result="BackgroundImageFix"/>
<feBlend mode="normal" in="SourceGraphic" in2="BackgroundImageFix" result="shape"/>
<feColorMatrix in="SourceAlpha" type="matrix" values="0 0 0 0 0 0 0 0 0 0 0 0 0 0 0 0 0 0 127 0" result="hardAlpha"/>
<feOffset/>
<feGaussianBlur stdDeviation="4"/>
<feComposite in2="hardAlpha" operator="arithmetic" k2="-1" k3="1"/>
<feColorMatrix type="matrix" values="0 0 0 0 0.9875 0 0 0 0 0.722843 0 0 0 0 0.386771 0 0 0 1 0"/>
<feBlend mode="normal" in2="shape" result="effect1_innerShadow"/>
<feColorMatrix in="SourceAlpha" type="matrix" values="0 0 0 0 0 0 0 0 0 0 0 0 0 0 0 0 0 0 127 0" result="hardAlpha"/>
<feOffset/>
<feGaussianBlur stdDeviation="6"/>
<feComposite in2="hardAlpha" operator="arithmetic" k2="-1" k3="1"/>
<feColorMatrix type="matrix" values="0 0 0 0 0 0 0 0 0 0 0 0 0 0 0 0 0 0 0.2 0"/>
<feBlend mode="normal" in2="effect1_innerShadow" result="effect2_innerShadow"/>
</filter>
<filter id="filter1_i" x="59" y="109" width="100" height="100" filterUnits="userSpaceOnUse" color-interpolation-filters="sRGB">
<feFlood flood-opacity="0" result="BackgroundImageFix"/>
<feBlend mode="normal" in="SourceGraphic" in2="BackgroundImageFix" result="shape"/>
<feColorMatrix in="SourceAlpha" type="matrix" values="0 0 0 0 0 0 0 0 0 0 0 0 0 0 0 0 0 0 127 0" result="hardAlpha"/>
<feOffset/>
<feGaussianBlur stdDeviation="6"/>
<feComposite in2="hardAlpha" operator="arithmetic" k2="-1" k3="1"/>
<feColorMatrix type="matrix" values="0 0 0 0 0.75 0 0 0 0 0.525098 0 0 0 0 0.00937498 0 0 0 1 0"/>
<feBlend mode="normal" in2="shape" result="effect1_innerShadow"/>
</filter>
<filter id="filter2_d" x="82.168" y="133" width="53.6667" height="52" filterUnits="userSpaceOnUse" color-interpolation-filters="sRGB">
<feFlood flood-opacity="0" result="BackgroundImageFix"/>
<feColorMatrix in="SourceAlpha" type="matrix" values="0 0 0 0 0 0 0 0 0 0 0 0 0 0 0 0 0 0 127 0"/>
<feOffset/>
<feGaussianBlur stdDeviation="0.5"/>
<feColorMatrix type="matrix" values="0 0 0 0 0.320833 0 0 0 0 0.320833 0 0 0 0 0.320833 0 0 0 0.25 0"/>
<feBlend mode="normal" in2="BackgroundImageFix" result="effect1_dropShadow"/>
<feBlend mode="normal" in="SourceGraphic" in2="effect1_dropShadow" result="shape"/>
</filter>
<linearGradient id="paint0_linear" x1="51.775" y1="57.4937" x2="233.571" y2="236.338" gradientUnits="userSpaceOnUse">
<stop stop-color="white"/>
<stop offset="1" stop-color="#E3BC43"/>
</linearGradient>
<linearGradient id="paint1_linear" x1="174.52" y1="213.6" x2="38.8" y2="107.52" gradientUnits="userSpaceOnUse">
<stop stop-color="#FFFEFB"/>
<stop offset="1" stop-color="#8C6A00" stop-opacity="0"/>
</linearGradient>
<linearGradient id="paint2_linear" x1="194.68" y1="230.4" x2="17.2" y2="91.68" gradientUnits="userSpaceOnUse">
<stop stop-color="#FFFEFC"/>
<stop offset="1" stop-color="#8C6A00" stop-opacity="0"/>
</linearGradient>
</defs>
</svg>
