<svg width="218" height="267" viewBox="0 0 218 267" fill="none" xmlns="http://www.w3.org/2000/svg">
<path d="M86.0098 29.7983C84.9084 29.7983 84.0273 30.669 84.0273 31.7573V50.0412C84.0273 51.1295 84.9084 52.0002 86.0098 52.0002H131.385C132.487 52.0002 133.368 51.1295 133.368 50.0412V31.7573C133.368 30.669 132.487 29.7983 131.385 29.7983H86.0098ZM129.403 44.1642C129.403 45.2526 128.522 46.1232 127.42 46.1232H90.1949C89.0935 46.1232 88.2125 45.2526 88.2125 44.1642V35.893C88.2125 34.8046 89.0935 33.934 90.1949 33.934H127.42C128.522 33.934 129.403 34.8046 129.403 35.893V44.1642Z" fill="#D9B68B"/>
<path d="M140.045 0L114.918 37.8775H127.37L155.388 0H140.045Z" fill="#0FA711"/>
<path d="M127.377 0L102.473 37.8775H114.925L140.052 0H127.377Z" fill="white"/>
<path d="M114.924 0L90.0195 37.8775H102.472L127.376 0H114.924Z" fill="#FF7600"/>
<path d="M90.0177 37.8775H102.47L77.343 0H62L90.0177 37.8775Z" fill="#FF7600"/>
<path d="M102.471 37.8775H114.923L90.0184 0H77.3438L102.471 37.8775Z" fill="white"/>
<path opacity="0.5" d="M110.695 6.27979L104.469 15.6931L119.145 37.8818H127.372L129.596 34.744L110.695 6.27979Z" fill="#3E4347"/>
<path d="M114.924 37.8775H127.376L102.472 0H90.0195L114.924 37.8775Z" fill="#0FA711"/>
<g filter="url(#filter0_ii)">
<path d="M218 158C218 218.199 169.199 267 109 267C48.801 267 0 218.199 0 158C0 97.801 48.801 49 109 49C169.199 49 218 97.801 218 158Z" fill="#C18A43" fill-opacity="0.7"/>
</g>
<path d="M214.5 158C214.5 216.266 167.266 263.5 109 263.5C50.734 263.5 3.5 216.266 3.5 158C3.5 99.734 50.734 52.5 109 52.5C167.266 52.5 214.5 99.734 214.5 158Z" stroke="#E29435" stroke-width="7"/>
<path d="M214.5 158C214.5 216.266 167.266 263.5 109 263.5C50.734 263.5 3.5 216.266 3.5 158C3.5 99.734 50.734 52.5 109 52.5C167.266 52.5 214.5 99.734 214.5 158Z" stroke="url(#paint0_linear)" stroke-width="7"/>
<path d="M196 158C196 206.049 157.049 245 109 245C60.9512 245 22 206.049 22 158C22 109.951 60.9512 71 109 71C157.049 71 196 109.951 196 158Z" fill="#764B16" stroke="#805726" stroke-width="30"/>
<path d="M109.001 81C66.5595 81 32 115.357 32 158.001C32 200.645 66.3574 235.002 109.001 235.002C151.645 235.002 186.002 200.645 186.002 158.001C186.002 115.357 151.442 81 109.001 81ZM93.6412 88.4778C93.8433 88.4778 93.8433 88.4778 93.6412 88.4778C95.0559 91.5093 97.6833 93.3282 100.311 92.7219C102.938 92.3177 105.565 90.4988 105.767 86.861C106.172 86.861 106.576 86.861 106.98 86.861C106.98 97.7745 106.172 109.496 104.959 122.229C104.757 123.441 104.757 124.654 104.757 125.867C104.353 124.856 103.948 123.644 103.544 122.229C99.3001 111.517 95.4601 99.9976 92.4286 88.6799C93.0349 88.6799 93.237 88.4778 93.6412 88.4778ZM76.0583 94.743C78.2814 97.3703 81.1109 98.3808 83.5361 97.1682C86.3655 95.9556 87.9823 93.1261 87.376 90.0946C87.7802 89.8925 88.1844 89.8925 88.5886 89.6904C91.216 100.2 93.8433 111.72 95.8643 124.452C96.0664 125.867 96.2685 126.877 96.6727 128.09C96.0664 127.079 95.4601 126.069 94.4496 124.856C87.5781 115.559 80.9088 105.454 75.0478 95.3493C75.2499 95.1472 75.6541 94.9451 76.0583 94.743ZM60.4964 105.656C63.3259 107.475 66.3574 107.678 68.3784 106.061C69.9952 104.848 70.8036 103.029 70.8036 101.21C70.8036 100.2 70.6015 99.1892 69.9952 98.3808C70.3994 98.1787 70.6015 97.9766 71.0057 97.7745C76.4625 107.071 81.7172 117.783 87.1739 129.302C87.7802 130.515 88.3865 131.526 88.7907 132.536C87.9823 131.728 86.9718 130.919 85.9613 130.111C77.0688 122.633 67.9742 114.549 59.688 106.465C59.8901 106.061 60.2943 105.859 60.4964 105.656ZM48.3703 120.006C48.5724 120.006 48.5724 120.006 48.3703 120.006C51.6039 121.016 54.6355 120.612 56.0502 118.389C56.4544 117.783 57.4649 116.166 57.4649 114.549C57.4649 113.538 57.0607 111.922 55.8481 110.507C56.0502 110.305 56.4544 109.901 56.6565 109.699C64.3364 117.378 72.2184 126.271 80.5046 135.972C81.313 136.982 82.1214 137.791 82.9298 138.599C81.9193 137.993 80.7067 137.589 79.494 136.982C68.9847 132.132 58.0712 126.675 47.764 121.016C47.9661 120.612 48.1682 120.41 48.3703 120.006ZM40.4883 136.982C40.4883 136.982 40.4883 136.78 40.4883 136.982C43.924 137.184 46.5514 135.972 47.5619 133.344C47.764 132.738 47.9661 131.93 47.9661 130.717C47.9661 129.505 47.5619 127.281 45.1367 125.665C45.3388 125.26 45.5409 125.058 45.743 124.654C55.0397 130.111 65.1448 136.578 75.452 143.854C76.4625 144.662 77.6751 145.269 78.4835 145.875C77.473 145.673 76.0583 145.471 74.6436 145.066C63.3259 143.45 51.4018 141.024 39.882 137.993C40.2862 137.791 40.4883 137.387 40.4883 136.982ZM37.2547 155.374C37.2547 155.374 37.2547 155.172 37.2547 155.374C40.4883 154.767 42.9135 152.746 43.1156 150.119C43.1156 149.917 43.1156 149.715 43.1156 149.311C43.1156 146.885 41.903 144.258 38.8715 143.248C38.8715 142.843 39.0736 142.439 39.0736 142.035C49.5829 144.864 60.9006 148.704 72.8247 152.948C74.0373 153.353 75.2499 153.757 76.2604 153.959C75.0478 153.959 73.8352 154.161 72.4205 154.161C61.1027 155.576 48.7745 156.182 37.0526 156.384C37.2547 156.182 37.2547 155.778 37.2547 155.374ZM38.8715 174.169C38.8715 173.967 38.8715 173.967 38.8715 174.169C41.4988 172.754 43.1156 170.733 43.1156 168.308C43.1156 168.106 43.1156 167.702 43.1156 167.5C42.7114 164.872 40.8925 162.245 37.2547 162.043C37.2547 161.639 37.2547 161.235 37.2547 160.83C48.1682 160.83 59.8901 161.437 72.6226 162.447C74.0373 162.649 75.2499 162.649 76.2604 162.649C75.2499 163.054 74.0373 163.458 72.6226 163.862C61.9111 168.106 50.3913 171.946 39.0736 175.18C39.0736 174.978 39.0736 174.573 38.8715 174.169ZM45.3387 191.752C45.3387 191.752 45.3387 191.55 45.3387 191.752C47.1577 190.135 48.1682 188.316 48.1682 186.295C48.1682 185.487 47.9661 184.881 47.764 184.274C46.7535 181.849 44.3282 179.828 40.6904 180.636C40.4883 180.232 40.4883 179.828 40.2862 179.424C50.7955 176.594 62.3153 174.169 74.8457 171.946C76.2604 171.744 77.2709 171.34 78.4835 171.138C77.473 171.744 76.4625 172.35 75.2499 173.361C65.9532 180.232 55.8481 186.902 45.743 192.965C45.743 192.358 45.5409 192.156 45.3387 191.752ZM56.2523 207.112C57.2628 205.495 57.667 204.08 57.667 202.463C57.667 201.251 57.2628 200.038 56.4544 199.23C54.8376 197.209 51.806 195.794 48.5724 197.411C48.3703 197.007 48.1682 196.805 47.9661 196.4C57.2628 190.944 67.9742 185.487 79.494 180.03C80.7067 179.424 81.7172 178.818 82.7277 178.413C81.9193 179.222 81.1109 180.232 80.3024 181.243C73.2289 190.337 65.1448 199.432 57.0607 207.92C56.8586 207.718 56.4544 207.516 56.2523 207.112ZM70.6015 219.036C70.8036 217.823 71.0057 216.813 71.0057 215.802C71.0057 213.781 70.1973 212.164 68.7826 211.356C66.7616 209.941 63.528 209.133 60.9006 211.76C60.4964 211.558 60.2943 211.154 60.0922 210.952C67.7721 203.272 76.4625 195.188 86.1634 187.104C87.1739 186.295 87.9823 185.487 88.7907 184.678C88.1844 185.689 87.7802 186.902 87.1739 188.114C82.7277 198.624 77.473 209.537 71.612 219.642C71.4099 219.44 71.0057 219.238 70.6015 219.036ZM87.5781 226.918C87.7802 223.482 86.3655 220.855 83.9403 219.844C81.5151 219.036 78.2814 219.238 76.2604 222.27C75.8562 222.067 75.6541 221.865 75.2499 221.663C80.7066 212.367 86.9718 202.261 94.2475 191.752C95.0559 190.539 95.6622 189.529 96.2685 188.721C96.0664 189.731 95.8643 191.146 95.4601 192.56C93.8433 203.878 91.4181 215.802 88.5886 227.322C88.3865 227.12 87.9823 227.12 87.5781 226.918ZM105.969 229.949C105.363 226.716 103.342 224.291 100.715 224.088C98.0874 223.886 95.0559 224.897 94.0454 228.333C93.6412 228.333 93.237 228.13 92.8328 228.13C95.6622 217.621 99.3001 206.303 103.544 194.379C103.948 193.167 104.353 191.954 104.555 190.944C104.555 192.156 104.757 193.369 104.757 194.784C106.172 206.101 106.98 218.43 107.182 230.151C106.778 230.151 106.374 230.151 105.969 229.949ZM178.928 143.45C176.301 144.864 174.482 146.885 174.482 149.311C174.482 149.513 174.482 149.917 174.482 150.119C174.886 152.746 176.705 155.374 180.343 155.576C180.343 155.98 180.343 156.384 180.343 156.788C169.632 156.788 157.708 155.98 144.975 154.767C143.56 154.565 142.348 154.565 141.337 154.565C142.348 154.161 143.56 153.757 144.975 153.353C155.687 149.108 167.206 145.269 178.524 142.237C178.726 142.641 178.726 143.045 178.928 143.45ZM172.663 125.867C172.663 125.867 172.663 126.069 172.663 125.867C170.844 127.484 169.834 129.302 169.834 131.323C169.834 132.132 170.036 132.738 170.238 133.344C171.248 135.77 173.674 137.791 177.312 137.184C177.514 137.589 177.514 137.993 177.716 138.397C167.206 141.024 155.485 143.45 142.954 145.673C141.539 145.875 140.529 146.077 139.316 146.481C140.327 145.875 141.337 145.269 142.55 144.46C151.847 137.387 161.952 130.717 172.057 124.856C172.259 125.26 172.461 125.463 172.663 125.867ZM162.154 110.709C161.143 112.326 160.537 113.943 160.537 115.357C160.537 116.57 160.941 117.783 161.75 118.591C163.366 120.612 166.196 122.027 169.43 120.41C169.632 120.814 169.834 121.016 170.036 121.42C160.537 126.675 150.028 132.132 138.306 137.184C137.093 137.791 136.083 138.195 135.072 138.801C135.881 137.993 136.689 136.982 137.7 135.972C144.975 127.079 153.059 117.985 161.345 109.699C161.548 110.103 161.952 110.305 162.154 110.709ZM147.603 98.1787C147.603 98.1787 147.805 98.3808 147.603 98.1787C147.4 99.3913 146.996 100.402 146.996 101.412C146.996 103.231 147.805 104.848 149.219 105.859C151.24 107.273 154.474 108.082 157.101 105.656C157.303 105.859 157.708 106.263 157.91 106.465C150.23 114.145 141.337 122.027 131.434 130.111C130.424 130.919 129.413 131.728 128.807 132.536C129.413 131.526 129.818 130.515 130.424 129.1C135.072 118.591 140.529 107.678 146.39 97.5724C146.996 97.7745 147.198 97.9766 147.603 98.1787ZM130.626 90.2967C130.828 90.2967 130.828 90.2967 130.626 90.2967C130.424 93.7324 131.839 96.3598 134.264 97.3703C136.689 98.3808 139.923 98.1787 141.944 94.9451C142.348 95.1472 142.55 95.3493 142.954 95.5514C137.497 104.848 131.03 114.751 123.552 125.26C122.744 126.271 122.138 127.281 121.531 128.292C121.733 127.281 122.138 125.867 122.34 124.452C124.159 113.134 126.584 101.21 129.413 89.8925C130.02 89.8925 130.222 90.0946 130.626 90.2967ZM112.437 86.861C112.437 86.861 112.639 86.861 112.437 86.861C113.043 90.0946 115.064 92.5198 117.691 92.7219C120.319 92.924 123.35 91.9135 124.563 88.4778C124.967 88.4778 125.371 88.6799 125.775 88.6799C122.946 99.1892 119.106 110.507 114.66 122.229C114.256 123.441 113.851 124.654 113.447 125.665C113.447 124.452 113.245 123.239 113.245 121.825C112.033 110.507 111.224 98.1787 111.224 86.4568C111.628 86.861 112.033 86.861 112.437 86.861ZM124.361 228.333C122.744 225.301 120.319 223.684 117.691 224.088C115.064 224.493 112.437 226.312 112.235 229.949C111.83 229.949 111.426 229.949 111.022 229.949C111.022 219.036 111.628 207.314 112.841 194.581C113.043 193.369 113.043 192.358 113.043 191.348C113.043 191.146 113.043 191.146 113.043 190.944C113.447 191.954 113.851 193.167 114.256 194.581C118.5 205.293 122.34 216.813 125.573 228.13C125.169 228.333 124.765 228.333 124.361 228.333ZM141.742 222.067C141.742 222.067 141.539 222.067 141.742 222.067C139.518 219.44 136.689 218.43 134.264 219.642C131.434 220.855 129.818 223.684 130.626 226.716C130.222 226.918 129.818 226.918 129.413 227.12C126.584 216.611 124.159 205.091 122.138 192.56C121.936 191.146 121.733 190.135 121.329 188.923C121.936 189.933 122.542 190.944 123.552 192.156C130.424 201.453 137.093 211.558 142.954 221.663C142.348 221.865 142.146 221.865 141.742 222.067ZM157.303 211.154C157.303 211.356 157.303 211.356 157.303 211.154C154.474 209.335 151.442 209.133 149.421 210.75C147.805 211.962 146.996 213.781 146.996 215.6C146.996 216.611 147.198 217.621 147.805 218.43C147.4 218.632 147.198 218.834 146.794 219.036C141.337 209.739 135.881 199.028 130.626 187.508C130.02 186.295 129.413 185.285 129.009 184.274C129.818 185.083 130.828 185.891 131.839 186.699C140.933 193.773 150.028 201.857 158.314 210.143C157.91 210.75 157.708 210.952 157.303 211.154ZM169.227 197.007C169.227 197.007 169.227 197.209 169.227 197.007C165.994 195.996 162.962 196.4 161.548 198.624C161.143 199.23 160.133 200.847 160.133 202.463C160.133 203.474 160.537 205.091 161.75 206.506C161.548 206.708 161.143 207.112 160.941 207.314C153.261 199.634 145.379 190.742 137.295 181.041C136.487 180.03 135.678 179.02 134.87 178.413C135.881 179.02 137.093 179.424 138.306 180.03C148.815 184.678 159.729 190.135 170.036 195.794C169.632 196.4 169.43 196.603 169.227 197.007ZM177.109 180.03C177.109 180.232 177.109 180.232 177.109 180.03C173.674 179.828 171.046 181.041 170.036 183.668C169.834 184.274 169.632 185.083 169.632 186.295C169.632 187.508 170.036 189.731 172.461 191.348C172.259 191.752 172.057 191.954 171.855 192.358C162.558 186.902 152.453 180.434 142.146 173.159C141.135 172.35 139.923 171.744 139.114 171.138C140.125 171.34 141.539 171.744 142.954 171.946C154.272 173.563 166.196 175.988 177.514 179.02C177.312 179.424 177.312 179.828 177.109 180.03ZM180.343 161.841C177.109 162.447 174.684 164.266 174.482 166.893C174.482 167.096 174.482 167.298 174.482 167.702C174.482 170.127 175.695 172.754 178.726 173.765C178.726 174.169 178.524 174.573 178.524 174.978C168.015 172.148 156.697 168.51 144.773 164.064C143.56 163.66 142.348 163.256 141.337 163.054C142.55 163.054 143.763 162.851 145.177 162.851C156.495 161.639 168.823 160.83 180.545 160.83C180.545 161.033 180.343 161.437 180.343 161.841Z" fill="#D9B68B"/>
<circle cx="109" cy="158" r="77" stroke="url(#paint1_linear)" stroke-width="2"/>
<circle cx="109" cy="158" r="101" stroke="url(#paint2_linear)" stroke-width="2"/>
<g filter="url(#filter1_i)">
<circle cx="109" cy="158" r="50" fill="#805726"/>
</g>
<g filter="url(#filter2_d)">
<path fill-rule="evenodd" clip-rule="evenodd" d="M83.168 134.786V133H112.692V161.571H83.168V134.786ZM99.7751 138.357H96.0846L88.7037 156.214H92.3942L93.8718 152.643H101.988L103.466 156.214H107.156L99.7751 138.357ZM95.3458 149.071L97.9299 142.821L100.514 149.071H95.3458ZM131.144 158H116.382V154.429H134.835V183H105.311V165.143H109.001V179.429H131.144V158ZM127.96 164.47V161.676H120.929V164.47H122.626V169.785H119.165C118.739 169.402 118.218 169.161 117.601 169.061C118.335 168.829 118.901 168.404 119.298 167.789C119.694 167.173 119.893 166.433 119.893 165.568C119.893 164.304 119.511 163.314 118.747 162.599C117.983 161.867 116.895 161.501 115.485 161.501C114.5 161.501 113.648 161.659 112.928 161.975V165.144C113.721 164.728 114.493 164.52 115.242 164.52C116.271 164.52 116.785 165.019 116.785 166.017C116.785 167.049 116.175 167.564 114.956 167.564H114.272V170.509H115.176C115.97 170.509 116.513 170.667 116.807 170.983C117.116 171.299 117.27 171.723 117.27 172.255C117.27 173.653 116.623 174.351 115.33 174.351C114.375 174.351 113.427 174.068 112.487 173.503V176.747C113.413 177.113 114.412 177.296 115.485 177.296C117.072 177.296 118.262 176.88 119.055 176.048C119.863 175.216 120.267 174.135 120.267 172.804V172.63H122.626V178.418H125.756V164.47H127.96Z" fill="#FFE4C1"/>
</g>
<path d="M49.8008 82.8998L52.3008 80.9998C52.6008 80.7998 52.9008 80.5998 53.3008 80.4998C53.6008 80.3998 53.9008 80.2998 54.2008 80.2998C54.5008 80.2998 54.8008 80.3998 55.1008 80.4998C55.4008 80.5998 55.6008 80.8998 55.9008 81.1998C56.2008 81.5998 56.4008 81.9998 56.3008 82.4998C56.2008 82.9998 56.1008 83.3998 55.8008 83.7998C56.0008 83.5998 56.3008 83.5998 56.5008 83.4998C56.7008 83.3998 57.0008 83.4998 57.3008 83.4998C57.6008 83.5998 57.8008 83.6998 58.1008 83.7998C58.4008 83.8998 58.6008 84.0998 58.7008 84.3998C58.9008 84.6998 59.1008 85.0998 59.2008 85.3998C59.3008 85.6998 59.2008 86.0998 59.1008 86.3998C59.0008 86.6998 58.8008 87.0998 58.6008 87.3998C58.4008 87.6998 58.1008 87.9998 57.7008 88.2998L55.2008 90.1998L49.8008 82.8998ZM53.0008 85.0998L54.3008 84.0998C54.5008 83.9998 54.6008 83.7998 54.8008 83.5998C55.0008 83.3998 55.0008 83.2998 55.1008 83.0998C55.2008 82.8998 55.2008 82.6998 55.1008 82.4998C55.1008 82.2998 55.0008 82.0998 54.8008 81.8998C54.6008 81.5998 54.3008 81.3998 54.0008 81.3998C53.7008 81.2998 53.3008 81.3998 52.9008 81.6998L51.4008 82.8998L53.0008 85.0998ZM55.6008 88.4998L57.0008 87.3998C57.1008 87.2998 57.3008 87.0998 57.5008 86.9998C57.7008 86.7998 57.8008 86.5998 57.9008 86.3998C58.0008 86.1998 58.0008 85.9998 58.0008 85.6998C58.0008 85.4998 57.9008 85.1998 57.7008 84.9998C57.4008 84.5998 57.0008 84.3998 56.6008 84.3998C56.2008 84.3998 55.7008 84.5998 55.2008 84.8998L53.8008 85.9998L55.6008 88.4998Z" fill="white"/>
<path d="M56 77.4999L57 76.8999L59.4 80.6999C59.3 80.2999 59.4 79.9999 59.6 79.5999C59.8 79.1999 60.1 78.8999 60.5 78.6999C60.7 78.4999 61 78.3999 61.3 78.3999C61.6 78.2999 61.8 78.2999 62.1 78.3999C62.4 78.4999 62.6 78.5999 62.9 78.7999C63.2 78.9999 63.4 79.1999 63.6 79.5999L65.7 82.8999L64.7 83.4999L62.8 80.4999C62.6 80.2999 62.5 80.0999 62.3 79.9999C62.1 79.8999 62 79.7999 61.8 79.7999C61.6 79.7999 61.5 79.7999 61.3 79.7999C61.1 79.7999 61 79.8999 60.8 79.9999C60.6 80.0999 60.4 80.2999 60.3 80.4999C60.2 80.6999 60.1 80.8999 60 81.0999C60 81.2999 60 81.5999 60 81.7999C60.1 82.0999 60.2 82.2999 60.4 82.5999L62.1 85.1999L61.1 85.7999L56 77.4999Z" fill="white"/>
<path d="M64.4023 77.4001C64.5023 77.0001 64.8023 76.6001 65.1023 76.3001C65.4023 76.0001 65.7023 75.7001 66.1023 75.5001C66.5023 75.3001 66.9023 75.2001 67.2023 75.1001C67.5023 75.0001 67.8023 75.1001 68.1023 75.1001C68.4023 75.2001 68.6023 75.3001 68.8023 75.5001C69.0023 75.7001 69.2023 75.9001 69.3023 76.1001L70.8023 78.8001C70.9023 79.0001 71.0023 79.2001 71.1023 79.3001C71.2023 79.5001 71.3023 79.6001 71.4023 79.7001L70.5023 80.2001C70.3023 79.9001 70.2023 79.7001 70.0023 79.4001C70.0023 79.9001 69.8023 80.3001 69.6023 80.6001C69.4023 80.9001 69.0023 81.2001 68.6023 81.4001C68.4023 81.5001 68.1023 81.6001 67.8023 81.7001C67.5023 81.8001 67.3023 81.8001 67.0023 81.7001C66.8023 81.7001 66.5023 81.6001 66.3023 81.4001C66.1023 81.3001 65.9023 81.0001 65.8023 80.8001C65.6023 80.5001 65.5023 80.1001 65.6023 79.8001C65.7023 79.5001 65.7023 79.2001 65.9023 78.9001C66.1023 78.6001 66.3023 78.3001 66.7023 78.1001C67.0023 77.8001 67.4023 77.6001 67.8023 77.4001L68.5023 77.0001L68.4023 76.8001C68.3023 76.7001 68.2023 76.5001 68.1023 76.4001C68.0023 76.3001 67.8023 76.2001 67.7023 76.2001C67.6023 76.2001 67.4023 76.1001 67.2023 76.2001C67.0023 76.2001 66.8023 76.3001 66.6023 76.4001C66.4023 76.5001 66.2023 76.6001 66.1023 76.7001C66.0023 76.8001 65.9023 76.9001 65.8023 77.1001C65.7023 77.3001 65.6023 77.3001 65.6023 77.5001C65.6023 77.7001 65.5023 77.7001 65.4023 77.9001L64.4023 77.4001ZM68.4023 78.0001C68.2023 78.1001 67.9023 78.3001 67.7023 78.4001C67.5023 78.6001 67.3023 78.7001 67.1023 78.9001C66.9023 79.1001 66.8023 79.3001 66.8023 79.5001C66.8023 79.7001 66.8023 79.9001 66.9023 80.1001C67.1023 80.4001 67.3023 80.6001 67.6023 80.6001C67.9023 80.6001 68.2023 80.5001 68.5023 80.4001C68.8023 80.3001 69.0023 80.1001 69.1023 79.9001C69.2023 79.7001 69.3023 79.5001 69.4023 79.3001C69.5023 79.1001 69.4023 78.9001 69.4023 78.7001C69.4023 78.5001 69.3023 78.3001 69.2023 78.1001L69.0023 77.8001L68.4023 78.0001Z" fill="white"/>
<path d="M73.6008 73.7C73.4008 73.6 73.2008 73.5 73.0008 73.5C72.8008 73.5 72.5008 73.5 72.3008 73.6C72.1008 73.7 71.9008 73.9 71.7008 74C71.6008 74.2 71.5008 74.4 71.6008 74.6C71.7008 74.8 71.8008 74.9 71.9008 74.9C72.1008 75 72.2008 75 72.4008 75C72.6008 75 72.7008 75 72.9008 74.9C73.1008 74.9 73.2008 74.8 73.4008 74.8C73.6008 74.8 73.9008 74.7 74.1008 74.7C74.3008 74.7 74.5008 74.7 74.7008 74.8C74.9008 74.9 75.1008 75 75.2008 75.1C75.3008 75.2 75.5008 75.4 75.6008 75.7C75.7008 76 75.8008 76.3 75.8008 76.6C75.8008 76.9 75.7008 77.1 75.5008 77.4C75.4008 77.6 75.2008 77.8 74.9008 78C74.6008 78.2 74.4008 78.3 74.1008 78.5C73.6008 78.7 73.2008 78.8 72.8008 78.8C72.4008 78.8 72.0008 78.7 71.5008 78.4L72.0008 77.4C72.2008 77.5 72.5008 77.6 72.8008 77.6C73.1008 77.6 73.4008 77.6 73.7008 77.5C73.8008 77.4 74.0008 77.4 74.1008 77.3C74.2008 77.2 74.3008 77.1 74.4008 77C74.5008 76.9 74.5008 76.8 74.6008 76.7C74.6008 76.6 74.6008 76.5 74.6008 76.3C74.5008 76.1 74.4008 76 74.3008 76C74.2008 75.9 74.0008 75.9 73.8008 75.9C73.6008 75.9 73.5008 75.9 73.3008 76C73.1008 76 73.0008 76.1 72.9008 76.1C72.7008 76.1 72.4008 76.2 72.2008 76.2C72.0008 76.2 71.7008 76.2 71.5008 76.2C71.3008 76.2 71.1008 76.1 70.9008 75.9C70.7008 75.7 70.6008 75.6 70.5008 75.3C70.4008 75 70.3008 74.7 70.3008 74.5C70.3008 74.2 70.4008 74 70.5008 73.8C70.6008 73.6 70.8008 73.4 71.0008 73.2C71.2008 73 71.5008 72.9 71.7008 72.8C72.1008 72.6 72.5008 72.5 72.9008 72.5C73.3008 72.5 73.7008 72.6 74.0008 72.8L73.6008 73.7Z" fill="white"/>
<path d="M74.1016 68.0001L75.2016 67.6001L76.7016 71.9001C76.7016 71.5001 76.9016 71.2001 77.1016 70.9001C77.3016 70.6001 77.7016 70.4001 78.2016 70.2001C78.5016 70.1001 78.7016 70.0001 79.0016 70.0001C79.3016 70.0001 79.5016 70.0001 79.8016 70.2001C80.1016 70.4001 80.3016 70.5001 80.5016 70.7001C80.7016 70.9001 80.9016 71.2001 81.0016 71.6001L82.3016 75.3001L81.2016 75.7001L80.0016 72.3001C79.9016 72.0001 79.8016 71.8001 79.6016 71.7001C79.5016 71.5001 79.3016 71.4001 79.1016 71.3001C78.9016 71.2001 78.8016 71.2001 78.6016 71.2001C78.4016 71.2001 78.3016 71.2001 78.1016 71.3001C77.9016 71.4001 77.7016 71.5001 77.5016 71.6001C77.3016 71.7001 77.2016 71.9001 77.1016 72.1001C77.0016 72.3001 77.0016 72.5001 77.0016 72.8001C77.0016 73.1001 77.1016 73.4001 77.2016 73.7001L78.3016 76.6001L77.2016 77.0001L74.1016 68.0001Z" fill="white"/>
<path d="M81.2992 66.9999C81.1992 66.7999 81.2992 66.5999 81.3992 66.3999C81.4992 66.1999 81.6992 66.0999 81.8992 65.9999C82.0992 65.8999 82.2992 65.9999 82.4992 66.0999C82.6992 66.1999 82.7992 66.3999 82.8992 66.5999C82.9992 66.7999 82.8992 66.9999 82.7992 67.1999C82.6992 67.3999 82.4992 67.4999 82.2992 67.5999C82.0992 67.6999 81.8992 67.5999 81.6992 67.4999C81.4992 67.3999 81.3992 67.1999 81.2992 66.9999ZM82.1992 68.9999L83.2992 68.6999L84.9992 74.4999L83.8992 74.8L82.1992 68.9999Z" fill="white"/>
<path d="M85.1016 68.1001L86.2016 67.8001L86.4016 68.7001C86.5016 68.4001 86.6016 68.0001 87.0016 67.8001C87.3016 67.5001 87.7016 67.3001 88.1016 67.2001C88.4016 67.1001 88.7016 67.1001 88.9016 67.1001C89.1016 67.1001 89.4016 67.2001 89.7016 67.3001C89.9016 67.4001 90.1016 67.6001 90.3016 67.9001C90.5016 68.2001 90.6016 68.5001 90.7016 68.9001L91.6016 72.7001L90.5016 73.0001L89.7016 69.5001C89.6016 69.2001 89.5016 69.0001 89.4016 68.8001C89.3016 68.6001 89.1016 68.5001 89.0016 68.4001C88.8016 68.3001 88.7016 68.3001 88.5016 68.2001C88.3016 68.2001 88.2016 68.2001 88.0016 68.2001C87.8016 68.3001 87.6016 68.3001 87.4016 68.5001C87.2016 68.6001 87.1016 68.8001 87.0016 69.0001C86.9016 69.2001 86.8016 69.4001 86.8016 69.7001C86.8016 70.0001 86.8016 70.3001 86.9016 70.6001L87.6016 73.6001L86.5016 73.9001L85.1016 68.1001Z" fill="white"/>
<path d="M91.6016 64.4C91.6016 64.2 91.6016 64 91.7016 63.8C91.8016 63.6 92.0016 63.5 92.2016 63.5C92.4016 63.5 92.6016 63.5 92.8016 63.6C93.0016 63.7 93.1016 63.9 93.1016 64.1C93.1016 64.3 93.1016 64.5 93.0016 64.7C92.9016 64.9 92.7016 65 92.5016 65C92.3016 65 92.1016 65 91.9016 64.9C91.7016 64.8 91.6016 64.7 91.6016 64.4ZM92.2016 66.5L93.3016 66.3L94.4016 72.3L93.3016 72.5L92.2016 66.5Z" fill="white"/>
<path d="M99 67.1001C99 66.8001 99 66.5001 99.1 66.2001C99.2 65.9001 99.3 65.7001 99.5 65.4001C99.7 65.2001 99.9 65.0001 100.2 64.9001C100.5 64.8001 100.7 64.7001 101.1 64.6001C101.4 64.6001 101.7 64.6001 102 64.7001C102.3 64.8001 102.5 64.9001 102.8 65.1001C103 65.3001 103.2 65.5001 103.3 65.8001C103.4 66.1001 103.5 66.3001 103.6 66.7001C103.6 67.0001 103.6 67.3001 103.5 67.6001C103.4 67.9001 103.3 68.1001 103.1 68.4001C102.9 68.7001 102.7 68.8001 102.4 68.9001C102.1 69.0001 101.9 69.1001 101.5 69.1001C101.2 69.1001 100.9 69.1001 100.6 69.0001C100.3 68.9001 100.1 68.8001 99.8 68.6001C99.6 68.4001 99.4 68.2001 99.3 67.9001C99.1 67.7001 99 67.4001 99 67.1001Z" fill="white"/>
<path d="M109.202 62H110.402L110.202 69.9L114.302 70V71.1L108.902 71L109.202 62Z" fill="white"/>
<path d="M115.699 65.2998L116.799 65.3998L116.299 71.3998L115.199 71.2998L115.699 65.2998ZM115.599 63.0998C115.599 62.8998 115.699 62.6998 115.899 62.4998C116.099 62.2998 116.299 62.2998 116.499 62.2998C116.699 62.2998 116.899 62.3998 117.099 62.5998C117.299 62.7998 117.299 62.9998 117.299 63.1998C117.299 63.3998 117.199 63.5998 116.999 63.7998C116.799 63.9998 116.599 63.9998 116.399 63.9998C116.199 63.9998 115.999 63.8998 115.799 63.6998C115.599 63.4998 115.599 63.2998 115.599 63.0998Z" fill="white"/>
<path d="M119.202 62L120.302 62.2L119.502 68.4L122.402 66.2L124.002 66.4L120.802 68.7L123.402 72.4L121.802 72.2L119.402 68.7L119.002 71.8L117.902 71.6L119.202 62Z" fill="white"/>
<path d="M126.1 63L127.2 63.2L126.2 67.6C126.4 67.3 126.7 67.1 127.1 67C127.5 66.9 127.9 66.9 128.4 67C128.7 67.1 128.9 67.2 129.2 67.3C129.5 67.4 129.6 67.6 129.8 67.9C130 68.1 130.1 68.4 130.1 68.7C130.2 69 130.1 69.4 130.1 69.8L129.3 73.6L128.2 73.4L129 69.9C129.1 69.6 129.1 69.4 129 69.2C129 69 128.9 68.8 128.8 68.7C128.7 68.6 128.6 68.4 128.4 68.3C128.2 68.2 128.1 68.1 127.9 68.1C127.7 68.1 127.4 68 127.2 68.1C127 68.2 126.8 68.2 126.6 68.3C126.4 68.4 126.3 68.6 126.1 68.8C125.9 69 125.9 69.3 125.8 69.7L125.1 72.7L124 72.5L126.1 63Z" fill="white"/>
<path d="M131.302 70.9001C131.402 70.5001 131.602 70.1001 131.902 69.8001C132.202 69.5001 132.502 69.2001 132.802 69.0001C133.202 68.8001 133.602 68.7001 134.002 68.6001C134.402 68.6001 134.802 68.6001 135.302 68.7001C135.702 68.8001 136.102 69.0001 136.402 69.3001C136.702 69.6001 137.002 69.9001 137.202 70.3001C137.402 70.7001 137.502 71.0001 137.602 71.5001C137.602 71.9001 137.602 72.3001 137.502 72.8001C137.402 73.3001 137.202 73.6001 136.902 73.9001C136.602 74.2001 136.302 74.5001 136.002 74.7001C135.602 74.9001 135.202 75.0001 134.802 75.0001C134.402 75.0001 134.002 75.0001 133.502 74.9001C133.102 74.8001 132.702 74.6001 132.402 74.3001C132.102 74.0001 131.802 73.7001 131.602 73.4001C131.402 73.0001 131.302 72.7001 131.202 72.2001C131.102 71.7001 131.102 71.3001 131.302 70.9001ZM132.402 71.3001C132.302 71.6001 132.302 71.9001 132.302 72.2001C132.302 72.5001 132.402 72.7001 132.502 73.0001C132.602 73.3001 132.802 73.4001 133.002 73.6001C133.202 73.8001 133.502 73.9001 133.702 74.0001C134.002 74.1001 134.302 74.1001 134.502 74.1001C134.802 74.1001 135.002 74.0001 135.202 73.9001C135.402 73.8001 135.602 73.6001 135.802 73.4001C136.002 73.2001 136.102 72.9001 136.202 72.6001C136.302 72.3001 136.302 72.0001 136.302 71.7001C136.302 71.4001 136.202 71.2001 136.102 70.9001C136.002 70.6001 135.802 70.5001 135.602 70.3001C135.402 70.1001 135.102 70.0001 134.902 69.9001C134.602 69.8001 134.302 69.8001 134.102 69.8001C133.802 69.8001 133.602 69.9001 133.402 70.0001C133.202 70.1001 133.002 70.3001 132.802 70.5001C132.702 70.7001 132.502 71.0001 132.402 71.3001Z" fill="white"/>
<path d="M144.5 69.1001L145.6 69.6001L142.1 77.9001L141 77.4001L144.5 69.1001Z" fill="white"/>
<path d="M146.501 73.2002L147.501 73.7002L147.101 74.5002C147.401 74.3002 147.701 74.2002 148.101 74.1002C148.501 74.1002 148.901 74.2002 149.301 74.4002C149.601 74.5002 149.801 74.7002 150.001 74.9002C150.201 75.1002 150.301 75.3002 150.401 75.6002C150.501 75.9002 150.501 76.1002 150.501 76.5002C150.501 76.8002 150.401 77.2002 150.201 77.5002L148.501 81.0002L147.501 80.5002L149.101 77.3002C149.201 77.0002 149.301 76.8002 149.301 76.6002C149.301 76.4002 149.301 76.2002 149.201 76.0002C149.101 75.8002 149.001 75.7002 148.901 75.6002C148.801 75.5002 148.601 75.4002 148.501 75.3002C148.301 75.2002 148.101 75.1002 147.901 75.1002C147.701 75.1002 147.501 75.1002 147.301 75.2002C147.101 75.3002 146.901 75.4002 146.701 75.6002C146.501 75.8002 146.301 76.0002 146.201 76.4002L144.801 79.2002L143.801 78.7002L146.501 73.2002Z" fill="white"/>
<path d="M155.001 84.6998L154.001 84.0998L154.401 83.3998C154.001 83.5998 153.701 83.5998 153.201 83.5998C152.801 83.5998 152.401 83.3998 152.001 83.1998C151.601 82.9998 151.301 82.6998 151.001 82.2998C150.801 81.9998 150.601 81.5998 150.501 81.1998C150.401 80.7998 150.401 80.3998 150.501 79.9998C150.601 79.5998 150.701 79.1998 151.001 78.7998C151.301 78.3998 151.501 78.0998 151.801 77.7998C152.101 77.4998 152.501 77.3998 152.801 77.2998C153.201 77.1998 153.601 77.1998 154.001 77.1998C154.401 77.1998 154.801 77.3998 155.201 77.5998C155.601 77.7998 155.901 78.0998 156.101 78.4998C156.301 78.8998 156.501 79.1998 156.501 79.5998L158.801 75.7998L159.801 76.3998L155.001 84.6998ZM152.701 82.2998C153.001 82.4998 153.201 82.5998 153.501 82.5998C153.801 82.5998 154.001 82.5998 154.301 82.5998C154.501 82.4998 154.801 82.3998 155.001 82.1998C155.201 81.9998 155.401 81.7998 155.601 81.4998C155.801 81.1998 155.901 80.9998 155.901 80.6998C155.901 80.3998 156.001 80.1998 155.901 79.8998C155.801 79.6998 155.701 79.3998 155.601 79.1998C155.401 78.9998 155.201 78.7998 155.001 78.5998C154.701 78.3998 154.501 78.2998 154.201 78.2998C153.901 78.2998 153.701 78.2998 153.401 78.2998C153.101 78.2998 152.901 78.4998 152.701 78.6998C152.501 78.8998 152.301 79.0998 152.101 79.3998C151.901 79.6998 151.801 79.8998 151.801 80.1998C151.701 80.4998 151.701 80.6998 151.801 80.9998C151.901 81.1998 152.001 81.4998 152.101 81.6998C152.301 81.9998 152.501 82.0998 152.701 82.2998Z" fill="white"/>
<path d="M159.701 80.5999L160.601 81.2999L157.201 86.2999L156.301 85.5999L159.701 80.5999ZM160.701 78.6999C160.801 78.4999 161.001 78.3999 161.201 78.3999C161.401 78.3999 161.601 78.3999 161.801 78.4999C162.001 78.5999 162.101 78.7999 162.101 78.9999C162.101 79.1999 162.101 79.3999 162.001 79.5999C161.901 79.7999 161.701 79.8999 161.501 79.8999C161.301 79.8999 161.101 79.8999 160.901 79.7999C160.701 79.6999 160.601 79.4999 160.601 79.2999C160.501 79.0999 160.501 78.8999 160.701 78.6999Z" fill="white"/>
<path d="M161.699 83C162.099 83 162.599 83 162.999 83.2C163.399 83.3 163.799 83.5 164.099 83.8C164.499 84.1 164.699 84.3 164.899 84.6C165.099 84.9 165.199 85.2 165.199 85.4C165.199 85.7 165.199 85.9 165.199 86.2C165.199 86.5 164.999 86.7 164.899 86.9L162.999 89.3C162.899 89.5 162.799 89.6 162.699 89.8C162.599 89.9 162.499 90.1 162.399 90.2L161.599 89.6C161.799 89.3 161.899 89.1 162.099 88.8C161.699 89 161.299 89 160.899 88.9C160.499 88.8 160.199 88.6 159.799 88.4C159.599 88.2 159.399 88 159.199 87.8C158.999 87.6 158.899 87.4 158.899 87.1C158.799 86.9 158.799 86.6 158.899 86.4C158.999 86.2 159.099 85.9 159.199 85.7C159.399 85.4 159.699 85.2 159.999 85.1C160.299 85 160.599 85 160.999 85C161.299 85.1 161.699 85.2 162.099 85.4C162.499 85.6 162.799 85.8 163.199 86.1L163.899 86.6L164.099 86.4C164.199 86.3 164.299 86.1 164.299 86C164.299 85.8 164.399 85.7 164.299 85.5C164.299 85.3 164.199 85.2 164.099 85C163.999 84.8 163.899 84.7 163.699 84.5C163.499 84.4 163.399 84.3 163.199 84.2C162.999 84.1 162.899 84.1 162.699 84C162.599 84 162.399 84 162.299 84C162.199 84 161.999 84 161.899 84L161.699 83ZM162.799 86.8C162.599 86.6 162.399 86.5 162.099 86.3C161.899 86.1 161.599 86 161.399 86C161.199 85.9 160.899 85.9 160.699 85.9C160.499 85.9 160.299 86 160.199 86.2C159.999 86.5 159.899 86.7 159.999 87C160.099 87.3 160.299 87.5 160.599 87.8C160.799 88 161.099 88.1 161.299 88.2C161.499 88.3 161.799 88.2 161.999 88.2C162.199 88.1 162.399 88.1 162.599 87.9C162.799 87.8 162.899 87.6 162.999 87.5L163.199 87.2L162.799 86.8Z" fill="white"/>
<path d="M27.7 181.5L28.7 184.5C28.8 184.9 28.9 185.2 28.9 185.6C28.9 186 28.9 186.3 28.8 186.6C28.7 186.9 28.5 187.1 28.3 187.4C28.1 187.6 27.8 187.8 27.4 187.9C26.9 188.1 26.5 188.1 26.1 187.9C25.7 187.7 25.3 187.5 25.1 187.1C25.2 187.4 25.2 187.6 25.1 187.9C25.1 188.2 25 188.4 24.8 188.6C24.7 188.8 24.5 189 24.3 189.2C24.1 189.4 23.8 189.5 23.5 189.6C23.1 189.7 22.7 189.8 22.4 189.7C22.1 189.6 21.7 189.5 21.4 189.3C21.1 189.1 20.8 188.8 20.6 188.5C20.4 188.2 20.2 187.8 20 187.4L19 184.5L27.7 181.5ZM20.5 185.3L21.1 187C21.2 187.2 21.2 187.4 21.4 187.6C21.6 187.8 21.6 188 21.8 188.1C22 188.2 22.2 188.4 22.4 188.4C22.6 188.5 22.9 188.4 23.2 188.3C23.7 188.1 24 187.8 24.2 187.4C24.3 187 24.3 186.5 24.1 185.9L23.5 184.2L20.5 185.3ZM24.5 183.9L25 185.5C25.1 185.7 25.2 185.9 25.3 186.1C25.4 186.3 25.5 186.4 25.7 186.5C25.9 186.6 26 186.7 26.2 186.7C26.4 186.7 26.6 186.7 26.8 186.6C27.1 186.5 27.4 186.3 27.6 186C27.8 185.7 27.8 185.3 27.6 184.8L27 183L24.5 183.9Z" fill="white"/>
<path d="M30.7 188.2L31.2 189.3L27.1 191.1C27.5 191.1 27.8 191.2 28.1 191.5C28.4 191.7 28.7 192.1 28.9 192.5C29 192.8 29.1 193 29.1 193.3C29.1 193.6 29.1 193.9 29 194.1C28.9 194.4 28.8 194.6 28.5 194.8C28.3 195 28 195.2 27.6 195.4L24 197L23.6 196L26.9 194.6C27.2 194.5 27.4 194.4 27.5 194.2C27.7 194 27.8 193.9 27.8 193.7C27.8 193.5 27.9 193.4 27.9 193.2C27.9 193 27.8 192.9 27.8 192.7C27.7 192.5 27.6 192.3 27.4 192.1C27.2 191.9 27.1 191.8 26.9 191.8C26.7 191.7 26.4 191.7 26.2 191.7C26 191.7 25.6 191.8 25.3 191.9L22.5 193.2L22 192.2L30.7 188.2Z" fill="white"/>
<path d="M29.6016 196.4C30.0016 196.5 30.4016 196.8 30.7016 197.1C31.0016 197.4 31.3016 197.7 31.5016 198.1C31.7016 198.5 31.8016 198.9 31.9016 199.2C32.0016 199.5 31.9016 199.8 31.9016 200.1C31.8016 200.4 31.7016 200.6 31.5016 200.8C31.3016 201 31.1016 201.2 30.9016 201.3L28.2016 202.8C28.0016 202.9 27.8016 203 27.7016 203.1C27.6016 203.2 27.4016 203.3 27.3016 203.4L26.8016 202.5C27.1016 202.3 27.3016 202.2 27.6016 202C27.1016 202 26.7016 201.8 26.4016 201.6C26.1016 201.4 25.8016 201.1 25.6016 200.6C25.5016 200.4 25.4016 200.1 25.3016 199.8C25.2016 199.5 25.2016 199.3 25.3016 199C25.3016 198.8 25.4016 198.5 25.6016 198.3C25.7016 198.1 26.0016 197.9 26.2016 197.8C26.5016 197.6 26.9016 197.5 27.2016 197.6C27.5016 197.6 27.8016 197.7 28.1016 197.9C28.4016 198.1 28.7016 198.3 28.9016 198.7C29.2016 199 29.4016 199.4 29.6016 199.8L30.0016 200.5L30.2016 200.4C30.3016 200.3 30.5016 200.2 30.6016 200.1C30.7016 200 30.8016 199.8 30.8016 199.7C30.8016 199.6 30.9016 199.4 30.8016 199.2C30.7016 199 30.7016 198.8 30.6016 198.6C30.5016 198.4 30.4016 198.2 30.3016 198.1C30.2016 198 30.1016 197.9 29.9016 197.8C29.8016 197.7 29.7016 197.6 29.5016 197.6C29.4016 197.5 29.3016 197.5 29.1016 197.4L29.6016 196.4ZM29.1016 200.4C29.0016 200.2 28.8016 199.9 28.7016 199.7C28.5016 199.5 28.4016 199.3 28.2016 199.1C28.0016 198.9 27.8016 198.8 27.6016 198.8C27.4016 198.7 27.2016 198.8 27.0016 198.9C26.7016 199.1 26.5016 199.3 26.5016 199.6C26.5016 199.9 26.6016 200.2 26.7016 200.5C26.8016 200.8 27.0016 201 27.2016 201.1C27.4016 201.2 27.6016 201.3 27.8016 201.4C28.0016 201.5 28.2016 201.4 28.4016 201.4C28.6016 201.4 28.8016 201.3 29.0016 201.2L29.3016 201L29.1016 200.4Z" fill="white"/>
<path d="M33.8994 205.3C33.9994 205.1 33.9994 204.9 33.9994 204.6C33.9994 204.3 33.8994 204.1 33.7994 203.9C33.6994 203.7 33.4994 203.5 33.2994 203.4C33.0994 203.3 32.8994 203.3 32.6994 203.4C32.4994 203.5 32.4994 203.6 32.3994 203.8C32.3994 204 32.3994 204.1 32.3994 204.3C32.3994 204.5 32.4994 204.6 32.4994 204.8C32.5994 205 32.5994 205.1 32.6994 205.2C32.7994 205.4 32.7994 205.7 32.8994 205.9C32.9994 206.1 32.8994 206.3 32.8994 206.6C32.8994 206.8 32.7994 207 32.6994 207.2C32.5994 207.4 32.3994 207.5 32.1994 207.7C31.8994 207.9 31.5994 208 31.2994 208C30.9994 208 30.7994 208 30.4994 207.8C30.1994 207.7 29.9994 207.5 29.7994 207.3C29.5994 207.1 29.3994 206.9 29.1994 206.6C28.8994 206.2 28.7994 205.8 28.6994 205.4C28.5994 205 28.6994 204.6 28.8994 204.1L29.9994 204.5C29.8994 204.8 29.8994 205 29.8994 205.3C29.8994 205.6 29.9994 205.8 30.1994 206.1C30.2994 206.2 30.3994 206.3 30.4994 206.4C30.5994 206.5 30.6994 206.6 30.7994 206.7C30.8994 206.8 30.9994 206.8 31.1994 206.8C31.2994 206.8 31.3994 206.8 31.4994 206.7C31.5994 206.6 31.6994 206.5 31.7994 206.3C31.7994 206.2 31.7994 206 31.7994 205.8C31.7994 205.6 31.6994 205.5 31.6994 205.3C31.6994 205.1 31.5994 205 31.4994 204.9C31.3994 204.7 31.3994 204.4 31.2994 204.2C31.1994 204 31.1994 203.8 31.1994 203.5C31.1994 203.3 31.2994 203.1 31.3994 202.9C31.4994 202.7 31.6994 202.5 31.8994 202.4C32.1994 202.2 32.3994 202.1 32.6994 202.1C32.9994 202.1 33.1994 202.1 33.4994 202.2C33.6994 202.3 33.9994 202.4 34.1994 202.6C34.3994 202.8 34.5994 203 34.6994 203.2C34.8994 203.5 35.0994 203.9 35.0994 204.3C35.0994 204.7 35.0994 205.1 34.8994 205.5L33.8994 205.3Z" fill="white"/>
<path d="M39.2992 204.3L39.9992 205.2L36.2992 207.9C36.5992 207.8 36.9992 207.9 37.3992 208C37.7992 208.2 38.0992 208.4 38.3992 208.8C38.5992 209 38.6992 209.3 38.7992 209.6C38.8992 209.9 38.8992 210.1 38.8992 210.4C38.8992 210.7 38.7992 210.9 38.5992 211.2C38.3992 211.5 38.1992 211.7 37.8992 212L34.7992 214.3L34.0992 213.4L36.9992 211.3C37.1992 211.1 37.3992 211 37.4992 210.8C37.5992 210.6 37.6992 210.4 37.6992 210.3C37.6992 210.1 37.6992 210 37.6992 209.8C37.5992 209.6 37.5992 209.5 37.4992 209.3C37.3992 209.1 37.1992 209 36.9992 208.8C36.7992 208.6 36.5992 208.6 36.3992 208.6C36.1992 208.6 35.8992 208.6 35.6992 208.7C35.4992 208.8 35.1992 208.9 34.8992 209.1L32.3992 210.9L31.6992 210L39.2992 204.3Z" fill="white"/>
<path d="M40.1 212.5C40.5 212.6 40.9 212.7 41.3 212.9C41.7 213.1 42 213.4 42.3 213.7C42.6 214 42.8 214.4 42.9 214.7C43 215 43.1 215.3 43.1 215.6C43.1 215.9 43 216.1 42.9 216.4C42.8 216.7 42.6 216.8 42.4 217L40.1 219C39.9 219.1 39.8 219.3 39.7 219.4C39.6 219.5 39.4 219.6 39.3 219.8L38.6 219C38.8 218.8 39 218.6 39.3 218.4C38.8 218.5 38.4 218.4 38.1 218.3C37.8 218.1 37.4 217.9 37.1 217.5C36.9 217.3 36.8 217.1 36.7 216.8C36.6 216.6 36.5 216.3 36.5 216.1C36.5 215.9 36.5 215.6 36.6 215.4C36.7 215.2 36.9 215 37.1 214.8C37.4 214.5 37.7 214.4 38 214.4C38.3 214.4 38.6 214.4 39 214.5C39.3 214.6 39.6 214.8 40 215.1C40.3 215.4 40.6 215.7 40.9 216L41.4 216.6L41.6 216.4C41.7 216.3 41.8 216.2 41.9 216C42 215.9 42 215.7 42 215.5C42 215.3 42 215.2 41.9 215C41.8 214.8 41.7 214.6 41.6 214.4C41.5 214.2 41.3 214.1 41.2 214C41.1 213.9 40.9 213.8 40.8 213.8C40.7 213.7 40.5 213.7 40.4 213.7C40.3 213.7 40.1 213.6 40 213.6L40.1 212.5ZM40.4 216.5C40.2 216.3 40 216.1 39.8 215.9C39.6 215.7 39.4 215.5 39.2 215.4C39 215.3 38.8 215.2 38.6 215.2C38.4 215.2 38.2 215.3 38 215.4C37.7 215.6 37.6 215.9 37.7 216.2C37.8 216.5 37.9 216.8 38.1 217.1C38.3 217.3 38.5 217.5 38.7 217.6C38.9 217.7 39.1 217.7 39.4 217.7C39.7 217.7 39.8 217.6 40 217.6C40.2 217.5 40.4 217.4 40.5 217.3L40.8 217.1L40.4 216.5Z" fill="white"/>
<path d="M48.7 222.7C48.7 222.5 48.7 222.3 48.6 222C48.5 221.8 48.4 221.6 48.2 221.4C48 221.2 47.8 221.1 47.6 221C47.4 220.9 47.2 221 47 221.2C46.9 221.3 46.8 221.5 46.8 221.6C46.8 221.8 46.8 221.9 46.9 222.1C47 222.3 47.1 222.4 47.2 222.6C47.3 222.7 47.4 222.9 47.5 223C47.6 223.2 47.8 223.4 47.9 223.6C48 223.8 48.1 224 48.1 224.2C48.1 224.4 48.1 224.6 48 224.8C47.9 225 47.8 225.2 47.6 225.4C47.4 225.6 47.1 225.8 46.8 225.9C46.5 226 46.3 226 46 225.9C45.7 225.9 45.5 225.8 45.2 225.6C44.9 225.4 44.7 225.3 44.5 225.1C44.1 224.8 43.9 224.4 43.7 224C43.5 223.6 43.5 223.2 43.5 222.7L44.6 222.8C44.6 223.1 44.6 223.3 44.7 223.6C44.8 223.9 44.9 224.1 45.2 224.3C45.3 224.4 45.4 224.5 45.6 224.6C45.7 224.7 45.9 224.7 46 224.8C46.1 224.8 46.3 224.8 46.4 224.8C46.5 224.8 46.6 224.7 46.7 224.6C46.8 224.5 46.9 224.3 46.9 224.2C46.9 224 46.9 223.9 46.8 223.7C46.7 223.5 46.7 223.4 46.6 223.3C46.5 223.2 46.4 223 46.3 222.9C46.2 222.7 46 222.5 45.9 222.3C45.8 222.1 45.7 221.9 45.7 221.7C45.7 221.5 45.7 221.3 45.7 221.1C45.7 220.9 45.9 220.7 46.1 220.5C46.3 220.3 46.6 220.1 46.8 220C47 219.9 47.3 219.9 47.6 219.9C47.9 219.9 48.1 220 48.4 220.2C48.7 220.3 48.9 220.5 49.1 220.7C49.4 221 49.6 221.3 49.8 221.7C50 222.1 50 222.5 49.9 222.9L48.7 222.7Z" fill="white"/>
<path d="M51.0015 223.8C51.4015 223.8 51.9015 223.8 52.3015 224C52.7015 224.2 53.1015 224.4 53.4015 224.6C53.7015 224.9 54.0015 225.2 54.2015 225.4C54.4015 225.7 54.5015 226 54.5015 226.2C54.5015 226.5 54.5015 226.7 54.4015 227C54.3015 227.2 54.2015 227.5 54.0015 227.7L52.0015 230.1C51.9015 230.3 51.7015 230.4 51.6015 230.6C51.5015 230.7 51.4015 230.9 51.3015 231L50.5015 230.4C50.7015 230.1 50.9015 229.9 51.1015 229.7C50.7015 229.8 50.2015 229.9 49.9015 229.8C49.5015 229.7 49.2015 229.5 48.8015 229.2C48.6015 229 48.4015 228.8 48.3015 228.6C48.2015 228.4 48.1015 228.1 48.0015 227.9C47.9015 227.7 48.0015 227.4 48.0015 227.2C48.1015 227 48.2015 226.7 48.4015 226.5C48.6015 226.2 48.9015 226 49.2015 225.9C49.5015 225.8 49.8015 225.8 50.2015 225.9C50.5015 226 50.9015 226.1 51.2015 226.3C51.6015 226.5 51.9015 226.7 52.3015 227L53.0015 227.5L53.2015 227.3C53.3015 227.2 53.4015 227 53.4015 226.9C53.4015 226.8 53.5015 226.6 53.5015 226.4C53.5015 226.2 53.4015 226.1 53.3015 225.9C53.2015 225.7 53.1015 225.6 52.9015 225.4C52.7015 225.3 52.6015 225.2 52.4015 225.1C52.2015 225 52.1015 225 51.9015 224.9C51.8015 224.9 51.6015 224.8 51.5015 224.8C51.4015 224.8 51.2015 224.8 51.1015 224.8L51.0015 223.8ZM52.0015 227.7C51.8015 227.5 51.6015 227.4 51.3015 227.2C51.1015 227 50.8015 226.9 50.6015 226.8C50.4015 226.7 50.1015 226.7 49.9015 226.7C49.7015 226.7 49.5015 226.8 49.4015 227C49.2015 227.3 49.1015 227.5 49.2015 227.8C49.3015 228.1 49.5015 228.3 49.8015 228.6C50.0015 228.8 50.3015 228.9 50.5015 229C50.7015 229.1 51.0015 229.1 51.2015 229C51.4015 229 51.6015 228.9 51.8015 228.7C52.0015 228.6 52.1015 228.4 52.3015 228.3L52.5015 228L52.0015 227.7Z" fill="white"/>
<path d="M56.4016 227.3L57.3016 227.9L56.8016 228.7C56.9016 228.6 57.0016 228.6 57.1016 228.5C57.2016 228.4 57.4016 228.4 57.6016 228.4C57.8016 228.4 58.0016 228.4 58.3016 228.5C58.5016 228.6 58.8016 228.7 59.0016 228.8C59.4016 229 59.6016 229.3 59.8016 229.7C60.0016 230 60.0016 230.4 60.0016 230.8C60.4016 230.6 60.8016 230.5 61.2016 230.6C61.6016 230.6 62.0016 230.8 62.3016 231C62.7016 231.3 63.0016 231.5 63.1016 231.8C63.3016 232.1 63.3016 232.4 63.3016 232.7C63.3016 233 63.2016 233.3 63.1016 233.6C63.0016 233.9 62.8016 234.2 62.6016 234.5L60.7016 237.4L59.7016 236.8L61.6016 234C61.7016 233.8 61.8016 233.6 61.9016 233.4C62.0016 233.2 62.0016 233 62.1016 232.8C62.1016 232.6 62.1016 232.4 62.0016 232.3C61.9016 232.1 61.8016 232 61.5016 231.8C61.0016 231.5 60.6016 231.4 60.2016 231.6C59.8016 231.8 59.5016 232.1 59.2016 232.5L57.4016 235.3L56.4016 234.7L58.2016 232.1C58.4016 231.9 58.5016 231.6 58.6016 231.4C58.7016 231.2 58.8016 231 58.8016 230.8C58.8016 230.6 58.8016 230.4 58.7016 230.2C58.6016 230 58.5016 229.9 58.2016 229.7C58.0016 229.6 57.8016 229.5 57.6016 229.5C57.4016 229.5 57.2016 229.5 57.0016 229.5C56.8016 229.6 56.6016 229.7 56.4016 229.8C56.2016 230 56.0016 230.2 55.8016 230.5L54.1016 233.1L53.1016 232.5L56.4016 227.3Z" fill="white"/>
<path d="M65.1008 233.7C65.5008 233.6 66.0008 233.6 66.4008 233.6C66.8008 233.6 67.3008 233.8 67.6008 234C68.0008 234.2 68.3008 234.4 68.5008 234.7C68.7008 234.9 68.9008 235.2 69.0008 235.5C69.1008 235.8 69.1008 236 69.1008 236.3C69.1008 236.6 69.0008 236.8 68.9008 237L67.4008 239.7C67.3008 239.9 67.2008 240.1 67.1008 240.2C67.0008 240.4 67.0008 240.5 66.9008 240.7L66.0008 240.2C66.1008 239.9 66.3008 239.6 66.4008 239.4C66.0008 239.6 65.6008 239.7 65.2008 239.7C64.8008 239.7 64.4008 239.6 64.0008 239.3C63.8008 239.2 63.5008 239 63.3008 238.8C63.1008 238.6 63.0008 238.4 62.9008 238.2C62.8008 238 62.8008 237.7 62.8008 237.5C62.8008 237.2 62.9008 237 63.0008 236.7C63.2008 236.4 63.4008 236.1 63.7008 236C64.0008 235.8 64.3008 235.8 64.6008 235.8C64.9008 235.8 65.3008 235.9 65.7008 236C66.1008 236.1 66.5008 236.3 66.9008 236.5L67.6008 236.9L67.7008 236.7C67.8008 236.6 67.8008 236.4 67.8008 236.3C67.8008 236.1 67.8008 236 67.8008 235.8C67.8008 235.6 67.7008 235.5 67.5008 235.3C67.4008 235.2 67.2008 235 67.0008 234.9C66.8008 234.8 66.6008 234.7 66.5008 234.7C66.3008 234.7 66.2008 234.6 66.0008 234.6C65.8008 234.6 65.7008 234.6 65.6008 234.6C65.5008 234.6 65.3008 234.6 65.2008 234.7L65.1008 233.7ZM66.9008 237.4C66.7008 237.3 66.4008 237.2 66.1008 237C65.8008 236.8 65.6008 236.8 65.3008 236.8C65.1008 236.8 64.8008 236.8 64.6008 236.8C64.4008 236.9 64.2008 237 64.1008 237.2C63.9008 237.5 63.9008 237.8 64.1008 238C64.2008 238.2 64.5008 238.5 64.8008 238.7C65.1008 238.8 65.3008 238.9 65.6008 238.9C65.9008 238.9 66.1008 238.9 66.3008 238.8C66.5008 238.7 66.7008 238.6 66.8008 238.4C66.9008 238.2 67.1008 238.1 67.2008 237.9L67.4008 237.6L66.9008 237.4Z" fill="white"/>
<path d="M71.2992 236.1L72.2992 236.6L71.8992 237.4C71.9992 237.3 72.1992 237.2 72.3992 237.1C72.5992 237 72.6992 237 72.8992 237C73.0992 237 73.2992 237 73.4992 237C73.6992 237 73.8992 237.1 73.9992 237.2C74.1992 237.3 74.2992 237.4 74.3992 237.5L73.7992 238.6C73.6992 238.5 73.5992 238.5 73.5992 238.4C73.4992 238.3 73.3992 238.3 73.3992 238.3C72.8992 238.1 72.3992 238 71.9992 238.2C71.5992 238.4 71.2992 238.7 70.9992 239.4L69.6992 242.2L68.6992 241.7L71.2992 236.1Z" fill="white"/>
<path d="M78.2 240L76.7 239.4L75.7 242C75.6 242.2 75.6 242.3 75.5 242.5C75.4 242.7 75.4 242.8 75.4 243C75.4 243.1 75.4 243.3 75.5 243.4C75.6 243.5 75.7 243.6 75.9 243.7C76 243.7 76.2 243.8 76.3 243.8C76.4 243.8 76.6 243.8 76.7 243.8L76.3 244.8C76.1 244.8 76 244.8 75.7 244.8C75.4 244.8 75.3 244.7 75.2 244.7C74.8 244.5 74.5 244.4 74.3 244.2C74.1 244 74 243.8 74 243.6C74 243.4 74 243.1 74 242.9C74.1 242.7 74.1 242.4 74.2 242.2L75.3 239.3L74.1 238.8L74.5 237.9L75.7 238.4L76.3 236.8L77.4 237.2L76.8 238.8L78.3 239.4L78.2 240Z" fill="white"/>
<path d="M80.9016 236.2L82.0016 236.5L80.6016 240.8C80.8016 240.5 81.2016 240.4 81.6016 240.3C82.0016 240.2 82.4016 240.2 82.9016 240.4C83.2016 240.5 83.4016 240.6 83.7016 240.8C84.0016 241 84.1016 241.2 84.2016 241.4C84.3016 241.6 84.4016 241.9 84.4016 242.2C84.4016 242.5 84.4016 242.9 84.3016 243.2L83.1016 246.9L82.0016 246.6L83.1016 243.2C83.2016 242.9 83.2016 242.7 83.2016 242.5C83.2016 242.3 83.1016 242.1 83.1016 241.9C83.0016 241.7 82.9016 241.6 82.8016 241.5C82.7016 241.4 82.5016 241.3 82.3016 241.3C82.1016 241.2 81.8016 241.2 81.6016 241.2C81.4016 241.2 81.2016 241.3 81.0016 241.4C80.8016 241.5 80.6016 241.7 80.5016 241.9C80.3016 242.1 80.2016 242.4 80.1016 242.7L79.2016 245.7L78.1016 245.4L80.9016 236.2Z" fill="white"/>
<path d="M86.4016 242.4C86.8016 242.2 87.2016 242 87.6016 242C88.0016 242 88.5016 242 88.9016 242.1C89.3016 242.2 89.7016 242.3 90.0016 242.5C90.3016 242.7 90.5016 242.9 90.7016 243.1C90.9016 243.3 91.0016 243.6 91.0016 243.8C91.0016 244.1 91.0016 244.3 91.0016 244.6L90.3016 247.6C90.3016 247.8 90.2016 248 90.2016 248.2C90.2016 248.4 90.1016 248.5 90.1016 248.7L89.1016 248.5C89.1016 248.2 89.2016 247.9 89.3016 247.6C89.0016 247.9 88.6016 248.1 88.2016 248.2C87.8016 248.3 87.4016 248.3 87.0016 248.2C86.7016 248.1 86.5016 248 86.2016 247.9C86.0016 247.8 85.8016 247.6 85.6016 247.4C85.4016 247.2 85.3016 247 85.3016 246.7C85.2016 246.5 85.2016 246.2 85.3016 245.9C85.4016 245.5 85.5016 245.2 85.8016 245C86.0016 244.8 86.3016 244.6 86.6016 244.5C86.9016 244.4 87.3016 244.4 87.7016 244.4C88.1016 244.4 88.5016 244.5 89.0016 244.6L89.8016 244.8L89.9016 244.6C89.9016 244.4 89.9016 244.3 89.9016 244.1C89.9016 243.9 89.8016 243.8 89.7016 243.6C89.6016 243.5 89.5016 243.3 89.3016 243.2C89.1016 243.1 88.9016 243 88.7016 243C88.5016 242.9 88.3016 242.9 88.1016 242.9C87.9016 242.9 87.8016 242.9 87.6016 243C87.5016 243 87.3016 243.1 87.2016 243.1C87.1016 243.2 87.0016 243.2 86.8016 243.3L86.4016 242.4ZM89.0016 245.4C88.7016 245.3 88.5016 245.3 88.2016 245.3C87.9016 245.3 87.7016 245.3 87.4016 245.3C87.2016 245.3 86.9016 245.4 86.8016 245.5C86.6016 245.6 86.5016 245.8 86.5016 246C86.4016 246.3 86.5016 246.6 86.7016 246.8C86.9016 247 87.2016 247.1 87.6016 247.2C87.9016 247.3 88.2016 247.3 88.4016 247.2C88.6016 247.1 88.8016 247.1 89.0016 246.9C89.2016 246.7 89.3016 246.6 89.4016 246.4C89.5016 246.2 89.6016 246 89.6016 245.8L89.7016 245.4H89.0016Z" fill="white"/>
<path d="M93.3984 239.5L94.4984 239.7L93.4984 245.9L96.4984 243.7L98.0984 243.9L94.8984 246.2L97.3984 249.9L95.7984 249.7L93.4984 246.2L92.9984 249.3L91.8984 249.1L93.3984 239.5Z" fill="white"/>
<path d="M102.799 245.8C102.799 245.5 102.899 245.2 102.999 244.9C103.099 244.6 103.299 244.4 103.499 244.2C103.699 244 103.999 243.9 104.199 243.7C104.499 243.6 104.799 243.5 105.099 243.6C105.399 243.6 105.699 243.7 105.999 243.8C106.299 243.9 106.499 244.1 106.699 244.3C106.899 244.5 106.999 244.8 107.199 245C107.299 245.3 107.399 245.6 107.299 245.9C107.199 246.2 107.199 246.5 107.099 246.8C106.999 247.1 106.799 247.3 106.599 247.5C106.399 247.7 106.099 247.8 105.899 248C105.599 248.1 105.299 248.2 104.999 248.1C104.699 248.1 104.399 248 104.099 247.9C103.799 247.8 103.599 247.6 103.399 247.4C103.199 247.2 103.099 246.9 102.899 246.7C102.799 246.4 102.699 246.1 102.799 245.8Z" fill="white"/>
<path d="M112.602 241.4L115.702 241.2C116.102 241.2 116.502 241.2 116.802 241.3C117.102 241.4 117.402 241.5 117.702 241.6C118.002 241.8 118.202 242 118.302 242.3C118.502 242.6 118.602 242.9 118.602 243.3C118.602 243.8 118.502 244.2 118.302 244.6C118.002 244.9 117.702 245.2 117.202 245.4C117.502 245.4 117.702 245.4 118.002 245.6C118.202 245.7 118.502 245.8 118.702 246C118.902 246.2 119.002 246.4 119.202 246.7C119.302 247 119.402 247.2 119.402 247.5C119.402 247.9 119.402 248.3 119.202 248.6C119.002 248.9 118.902 249.2 118.602 249.4C118.302 249.6 118.002 249.8 117.602 250C117.202 250.1 116.802 250.2 116.402 250.3L113.302 250.5L112.602 241.4ZM114.102 245.1L115.802 245C116.002 245 116.202 244.9 116.402 244.9C116.602 244.8 116.802 244.7 116.902 244.6C117.002 244.5 117.202 244.3 117.202 244.2C117.302 244 117.302 243.8 117.302 243.6C117.302 243.2 117.102 242.9 116.902 242.7C116.702 242.5 116.302 242.4 115.802 242.4L113.902 242.5L114.102 245.1ZM114.402 249.3L116.202 249.2C116.402 249.2 116.602 249.2 116.802 249.1C117.002 249 117.202 249 117.402 248.8C117.602 248.7 117.702 248.5 117.902 248.3C118.002 248.1 118.102 247.8 118.002 247.5C118.002 247 117.802 246.6 117.402 246.3C117.002 246.1 116.602 246 116.002 246L114.202 246.1L114.402 249.3Z" fill="white"/>
<path d="M120.398 243.7L121.498 243.5L121.598 244.4C121.698 244.2 121.698 244.1 121.798 243.9C121.898 243.7 121.998 243.6 122.198 243.5C122.298 243.4 122.498 243.3 122.698 243.2C122.898 243.1 123.098 243.1 123.198 243C123.398 243 123.598 243 123.698 243L123.798 244.2C123.698 244.2 123.598 244.2 123.498 244.2C123.398 244.2 123.298 244.2 123.198 244.2C122.598 244.3 122.198 244.5 121.998 244.9C121.798 245.3 121.698 245.8 121.798 246.4L122.298 249.4L121.198 249.6L120.398 243.7Z" fill="white"/>
<path d="M125.098 246.1C124.998 245.7 124.998 245.2 125.098 244.8C125.198 244.4 125.298 244 125.598 243.7C125.898 243.4 126.098 243.1 126.498 242.8C126.898 242.5 127.198 242.4 127.698 242.3C128.198 242.2 128.598 242.2 128.998 242.3C129.398 242.4 129.798 242.5 130.098 242.7C130.398 242.9 130.698 243.2 130.998 243.5C131.198 243.8 131.398 244.2 131.498 244.7C131.598 245.1 131.598 245.6 131.498 246C131.398 246.4 131.298 246.8 130.998 247.1C130.698 247.4 130.498 247.7 130.098 248C129.698 248.3 129.398 248.4 128.898 248.5C128.498 248.6 127.998 248.6 127.598 248.5C127.198 248.4 126.798 248.3 126.498 248.1C126.198 247.9 125.898 247.6 125.598 247.3C125.398 246.9 125.198 246.5 125.098 246.1ZM126.298 245.8C126.398 246.1 126.498 246.4 126.598 246.6C126.698 246.8 126.898 247 127.098 247.2C127.298 247.4 127.498 247.4 127.798 247.5C128.098 247.6 128.298 247.5 128.598 247.5C128.898 247.4 129.198 247.3 129.398 247.2C129.598 247 129.798 246.9 129.898 246.6C129.998 246.4 130.098 246.1 130.098 245.9C130.098 245.7 130.098 245.3 130.098 245C130.098 244.7 129.898 244.4 129.798 244.2C129.698 244 129.498 243.8 129.298 243.6C129.098 243.5 128.898 243.4 128.598 243.3C128.298 243.2 128.098 243.3 127.798 243.3C127.498 243.4 127.198 243.5 126.998 243.6C126.798 243.8 126.598 243.9 126.498 244.2C126.398 244.5 126.298 244.7 126.298 244.9C126.198 245.2 126.198 245.5 126.298 245.8Z" fill="white"/>
<path d="M132 241.4L133.1 241.1L133.4 242C133.4 241.6 133.6 241.3 133.9 241C134.2 240.7 134.5 240.5 135 240.3C135.3 240.2 135.6 240.2 135.8 240.2C136.1 240.2 136.3 240.3 136.6 240.4C136.8 240.5 137.1 240.7 137.3 240.9C137.5 241.1 137.7 241.5 137.8 241.8L138.9 245.5L137.8 245.8L136.8 242.4C136.7 242.1 136.6 241.9 136.5 241.7C136.4 241.5 136.2 241.4 136.1 241.3C136 241.2 135.8 241.2 135.6 241.2C135.4 241.2 135.3 241.2 135.1 241.3C134.9 241.4 134.7 241.5 134.5 241.6C134.3 241.7 134.2 241.9 134.1 242.1C134 242.3 134 242.5 133.9 242.8C133.9 243.1 133.9 243.4 134 243.7L134.9 246.7L133.8 247L132 241.4Z" fill="white"/>
<path d="M140.101 244.1L141.801 239.1L138.701 240.3L138.301 239.4L142.701 237.7L143.101 238.7L141.301 243.7L144.701 242.4L145.101 243.3L140.401 245.1L140.101 244.1Z" fill="white"/>
<path d="M146.302 239.8C146.402 240 146.602 240.2 146.802 240.4C147.002 240.5 147.202 240.6 147.402 240.7C147.602 240.8 147.902 240.8 148.102 240.7C148.402 240.7 148.602 240.6 148.802 240.5C149.102 240.3 149.402 240.1 149.502 239.9C149.702 239.6 149.802 239.3 149.902 239L151.002 239.2C150.802 240.2 150.202 241 149.102 241.5C148.702 241.7 148.202 241.8 147.802 241.8C147.402 241.8 147.002 241.8 146.602 241.6C146.202 241.5 145.902 241.2 145.602 241C145.302 240.8 145.102 240.4 144.902 240C144.702 239.6 144.602 239.2 144.602 238.8C144.602 238.4 144.602 238 144.802 237.6C144.902 237.2 145.102 236.9 145.402 236.6C145.702 236.3 146.002 236 146.402 235.8C146.902 235.6 147.302 235.5 147.702 235.5C148.102 235.5 148.502 235.6 148.802 235.8C149.102 236 149.402 236.2 149.702 236.5C150.002 236.8 150.202 237.1 150.302 237.5L150.502 237.9L146.302 239.8ZM149.202 237.5C149.102 237.3 148.902 237.1 148.802 236.9C148.602 236.7 148.502 236.6 148.302 236.5C148.102 236.4 147.902 236.4 147.702 236.4C147.502 236.4 147.202 236.5 147.002 236.6C146.702 236.7 146.502 236.9 146.402 237.1C146.202 237.3 146.102 237.5 146.002 237.7C145.902 237.9 145.902 238.1 145.902 238.4C145.902 238.6 146.002 238.8 146.002 239L149.202 237.5Z" fill="white"/>
<path d="M158.301 227.9C157.901 227.8 157.501 227.7 157.101 227.8C156.701 227.9 156.301 228 155.901 228.2C155.501 228.5 155.101 228.8 154.901 229.2C154.701 229.6 154.501 230 154.401 230.4C154.301 230.8 154.401 231.3 154.501 231.7C154.601 232.2 154.801 232.6 155.101 233C155.401 233.4 155.701 233.7 156.001 234C156.401 234.3 156.701 234.5 157.201 234.6C157.601 234.7 158.101 234.7 158.501 234.7C159.001 234.6 159.401 234.5 159.801 234.2C160.201 233.9 160.601 233.6 160.801 233.2C161.001 232.8 161.101 232.4 161.101 231.9L162.401 232C162.401 232.1 162.401 232.3 162.301 232.5C162.301 232.7 162.201 233 162.001 233.3C161.901 233.6 161.701 233.9 161.401 234.2C161.101 234.5 160.801 234.8 160.401 235.1C159.801 235.5 159.201 235.7 158.601 235.8C158.001 235.9 157.401 235.8 156.801 235.7C156.201 235.5 155.701 235.3 155.201 234.9C154.701 234.5 154.301 234.1 154.001 233.7C153.601 233.1 153.401 232.5 153.201 231.9C153.001 231.3 153.101 230.7 153.201 230.1C153.301 229.5 153.501 229 153.901 228.5C154.301 228 154.701 227.5 155.301 227.2C155.801 226.9 156.401 226.7 157.001 226.5C157.601 226.3 158.201 226.4 158.801 226.6L158.301 227.9Z" fill="white"/>
<path d="M162.302 230C162.002 229.7 161.802 229.3 161.702 228.9C161.602 228.5 161.602 228.1 161.602 227.7C161.602 227.3 161.802 226.9 162.002 226.5C162.202 226.1 162.502 225.8 162.802 225.5C163.202 225.2 163.502 225 163.902 224.9C164.302 224.8 164.702 224.8 165.102 224.8C165.502 224.8 165.902 225 166.302 225.2C166.702 225.4 167.002 225.7 167.302 226C167.602 226.3 167.802 226.7 167.902 227.1C168.002 227.5 168.002 227.9 168.002 228.3C168.002 228.7 167.802 229.1 167.602 229.5C167.402 229.9 167.102 230.2 166.802 230.5C166.402 230.8 166.102 231 165.702 231.1C165.302 231.2 164.902 231.2 164.502 231.2C164.102 231.2 163.702 231 163.302 230.8C162.902 230.7 162.602 230.4 162.302 230ZM163.302 229.3C163.502 229.5 163.702 229.7 163.902 229.9C164.102 230 164.402 230.1 164.602 230.2C164.802 230.3 165.102 230.2 165.402 230.2C165.702 230.1 165.902 230 166.202 229.8C166.402 229.6 166.602 229.4 166.802 229.2C167.002 229 167.002 228.7 167.002 228.5C167.002 228.3 167.002 228 166.902 227.7C166.802 227.4 166.702 227.2 166.502 226.9C166.302 226.7 166.102 226.5 165.902 226.3C165.702 226.1 165.402 226.1 165.202 226C165.002 226 164.702 226 164.402 226C164.102 226.1 163.902 226.2 163.602 226.4C163.302 226.6 163.202 226.8 163.002 227C162.802 227.2 162.802 227.5 162.802 227.7C162.802 227.9 162.802 228.2 162.902 228.5C163.002 228.8 163.102 229 163.302 229.3Z" fill="white"/>
<path d="M166.5 222.8L167.3 222L167.9 222.7C167.8 222.4 167.8 222 167.9 221.6C168 221.2 168.3 220.9 168.6 220.5C168.8 220.3 169 220.1 169.3 220C169.6 219.9 169.8 219.8 170.1 219.8C170.4 219.8 170.7 219.9 170.9 220C171.2 220.1 171.5 220.3 171.7 220.6L174.3 223.4L173.5 224.2L171.1 221.6C170.9 221.4 170.7 221.2 170.5 221.2C170.3 221.2 170.1 221.1 169.9 221.1C169.7 221.1 169.6 221.1 169.4 221.2C169.2 221.3 169.1 221.4 169 221.5C168.8 221.7 168.7 221.8 168.6 222C168.5 222.2 168.5 222.4 168.5 222.6C168.5 222.8 168.6 223.1 168.7 223.3C168.8 223.5 169 223.8 169.2 224.1L171.3 226.4L170.5 227.2L166.5 222.8Z" fill="white"/>
<path d="M174.498 216.3L173.398 217.5L175.398 219.4C175.498 219.5 175.598 219.6 175.798 219.7C175.898 219.8 176.098 219.9 176.198 219.9C176.298 220 176.498 220 176.598 219.9C176.698 219.9 176.898 219.8 176.998 219.6C177.098 219.5 177.198 219.4 177.298 219.3C177.398 219.2 177.398 219 177.498 218.9L178.298 219.6C178.298 219.8 178.198 219.9 178.098 220.1C177.998 220.3 177.898 220.4 177.798 220.5C177.498 220.8 177.198 221 176.998 221.1C176.798 221.2 176.498 221.2 176.298 221.2C176.098 221.1 175.898 221 175.698 220.9C175.498 220.8 175.298 220.6 175.098 220.4L172.798 218.2L171.898 219.2L171.198 218.5L172.098 217.5L170.898 216.3L171.698 215.5L172.898 216.7L173.998 215.5L174.498 216.3Z" fill="white"/>
<path d="M174.699 214.6L175.399 213.7L176.099 214.3C175.999 214.1 175.999 214 175.999 213.8C175.999 213.6 175.999 213.4 175.999 213.3C175.999 213.1 176.099 212.9 176.199 212.8C176.299 212.6 176.399 212.5 176.499 212.3C176.599 212.1 176.799 212 176.899 212L177.799 212.8C177.699 212.9 177.599 212.9 177.599 213C177.599 213.1 177.499 213.1 177.399 213.2C176.999 213.6 176.899 214.1 176.899 214.5C176.899 214.9 177.199 215.4 177.699 215.8L179.999 217.8L179.299 218.7L174.699 214.6Z" fill="white"/>
<path d="M175.8 209.8C175.6 209.7 175.5 209.5 175.5 209.2C175.5 209 175.5 208.8 175.7 208.6C175.9 208.4 176 208.3 176.3 208.3C176.6 208.3 176.7 208.3 176.9 208.5C177.1 208.7 177.2 208.8 177.2 209.1C177.2 209.4 177.2 209.5 177 209.7C176.8 209.9 176.7 210 176.4 210C176.1 210 176 209.9 175.8 209.8ZM177.7 210.9L178.4 210L183.2 213.7L182.5 214.6L177.7 210.9Z" fill="white"/>
<path d="M176.5 206.6L177.1 205.7L180.8 208.2C180.7 207.9 180.6 207.5 180.7 207.1C180.8 206.7 180.9 206.3 181.2 205.9C181.5 205.5 181.8 205.2 182.1 205C182.4 204.8 182.8 204.6 183.2 204.6C183.6 204.5 184 204.6 184.4 204.7C184.8 204.8 185.2 205 185.6 205.2C186 205.5 186.3 205.7 186.5 206.1C186.7 206.5 186.9 206.8 187 207.2C187.1 207.6 187.1 208 187 208.4C186.9 208.8 186.7 209.2 186.5 209.6C186.3 209.9 186 210.2 185.6 210.4C185.2 210.6 184.9 210.7 184.5 210.7L185.2 211.2L184.6 212.1L176.5 206.6ZM185.5 208.9C185.7 208.6 185.8 208.4 185.8 208.1C185.9 207.8 185.8 207.6 185.8 207.3C185.7 207.1 185.6 206.8 185.5 206.6C185.3 206.4 185.1 206.2 184.9 206C184.6 205.8 184.4 205.7 184.1 205.6C183.8 205.5 183.6 205.5 183.3 205.6C183.1 205.6 182.8 205.7 182.6 205.9C182.4 206 182.2 206.2 182 206.5C181.8 206.8 181.7 207 181.7 207.3C181.7 207.6 181.7 207.8 181.7 208.1C181.8 208.3 181.9 208.6 182 208.8C182.2 209 182.4 209.2 182.6 209.4C182.9 209.6 183.1 209.7 183.4 209.8C183.7 209.9 183.9 209.9 184.2 209.8C184.5 209.7 184.7 209.7 184.9 209.5C185.1 209.4 185.3 209.2 185.5 208.9Z" fill="white"/>
<path d="M191.701 200.6L191.101 201.6L190.301 201.1C190.501 201.4 190.601 201.7 190.601 202.1C190.601 202.5 190.501 202.9 190.301 203.3C190.201 203.6 190.001 203.8 189.801 204C189.601 204.2 189.401 204.3 189.101 204.4C188.801 204.5 188.601 204.5 188.201 204.5C187.901 204.5 187.601 204.3 187.201 204.1L183.801 202.2L184.401 201.2L187.501 203C187.701 203.1 188.001 203.2 188.201 203.3C188.401 203.4 188.601 203.3 188.801 203.3C189.001 203.2 189.101 203.2 189.301 203.1C189.501 203 189.501 202.8 189.601 202.7C189.701 202.5 189.801 202.3 189.801 202.1C189.801 201.9 189.801 201.7 189.701 201.5C189.601 201.3 189.501 201.1 189.301 200.9C189.101 200.7 188.901 200.5 188.601 200.3L185.901 198.8L186.501 197.8L191.701 200.6Z" fill="white"/>
<path d="M189.401 193.7L188.701 195.2L191.201 196.4C191.401 196.5 191.501 196.5 191.701 196.6C191.901 196.7 192.001 196.7 192.101 196.7C192.201 196.7 192.401 196.7 192.501 196.6C192.601 196.5 192.701 196.4 192.801 196.2C192.901 196.1 192.901 195.9 192.901 195.8C192.901 195.7 193.001 195.5 192.901 195.4L193.801 195.9C193.801 196.1 193.801 196.2 193.701 196.4C193.601 196.6 193.601 196.8 193.501 196.9C193.301 197.3 193.101 197.6 192.901 197.7C192.701 197.9 192.501 198 192.201 198C192.001 198 191.701 198 191.501 197.9C191.301 197.8 191.001 197.7 190.801 197.6L188.001 196.2L187.601 197.4L186.701 197L187.301 195.8L185.801 195.1L186.301 194.1L187.801 194.8L188.501 193.3L189.401 193.7Z" fill="white"/>
<path d="M191.799 193.4C191.399 193.2 190.999 193 190.699 192.7C190.399 192.4 190.199 192.1 189.999 191.7C189.799 191.3 189.799 190.9 189.699 190.5C189.699 190.1 189.799 189.7 189.899 189.2C190.099 188.8 190.299 188.4 190.599 188.1C190.899 187.8 191.199 187.6 191.599 187.4C191.999 187.2 192.399 187.2 192.799 187.1C193.199 187.1 193.599 187.2 193.999 187.3C194.399 187.5 194.799 187.7 195.099 188C195.399 188.3 195.599 188.6 195.799 189C195.999 189.4 195.999 189.8 195.999 190.2C195.999 190.6 195.899 191 195.799 191.5C195.599 191.9 195.399 192.3 195.099 192.6C194.799 192.9 194.499 193.1 194.099 193.3C193.699 193.5 193.299 193.5 192.899 193.6C192.699 193.6 192.199 193.5 191.799 193.4ZM192.299 192.2C192.599 192.3 192.899 192.4 193.099 192.4C193.299 192.4 193.599 192.4 193.899 192.3C194.099 192.2 194.299 192.1 194.499 191.9C194.699 191.7 194.799 191.5 194.999 191.2C195.099 190.9 195.199 190.6 195.199 190.4C195.199 190.1 195.099 189.9 194.999 189.7C194.899 189.5 194.699 189.3 194.499 189.1C194.299 188.9 193.999 188.8 193.799 188.7C193.599 188.6 193.199 188.5 192.999 188.5C192.799 188.5 192.499 188.5 192.199 188.6C191.999 188.7 191.799 188.8 191.599 189C191.399 189.2 191.299 189.4 191.099 189.7C190.999 190 190.899 190.3 190.899 190.5C190.899 190.8 190.999 191 191.099 191.2C191.199 191.4 191.399 191.6 191.599 191.8C191.799 192 191.999 192.1 192.299 192.2Z" fill="white"/>
<path d="M191.801 185L192.201 183.9L193.101 184.2C193.001 184.1 192.901 183.9 192.801 183.8C192.701 183.6 192.701 183.5 192.601 183.3C192.601 183.1 192.501 182.9 192.501 182.7C192.501 182.5 192.501 182.3 192.601 182.1C192.701 181.9 192.701 181.8 192.801 181.6L194.001 182C193.901 182.1 193.901 182.2 193.901 182.2C193.901 182.2 193.801 182.4 193.801 182.5C193.601 183 193.601 183.5 193.901 183.9C194.101 184.3 194.501 184.6 195.201 184.8L198.101 185.7L197.701 186.8L191.801 185Z" fill="white"/>
<defs>
<filter id="filter0_ii" x="0" y="49" width="218" height="218" filterUnits="userSpaceOnUse" color-interpolation-filters="sRGB">
<feFlood flood-opacity="0" result="BackgroundImageFix"/>
<feBlend mode="normal" in="SourceGraphic" in2="BackgroundImageFix" result="shape"/>
<feColorMatrix in="SourceAlpha" type="matrix" values="0 0 0 0 0 0 0 0 0 0 0 0 0 0 0 0 0 0 127 0" result="hardAlpha"/>
<feOffset/>
<feGaussianBlur stdDeviation="4"/>
<feComposite in2="hardAlpha" operator="arithmetic" k2="-1" k3="1"/>
<feColorMatrix type="matrix" values="0 0 0 0 0.9875 0 0 0 0 0.722843 0 0 0 0 0.386771 0 0 0 1 0"/>
<feBlend mode="normal" in2="shape" result="effect1_innerShadow"/>
<feColorMatrix in="SourceAlpha" type="matrix" values="0 0 0 0 0 0 0 0 0 0 0 0 0 0 0 0 0 0 127 0" result="hardAlpha"/>
<feOffset/>
<feGaussianBlur stdDeviation="6"/>
<feComposite in2="hardAlpha" operator="arithmetic" k2="-1" k3="1"/>
<feColorMatrix type="matrix" values="0 0 0 0 0 0 0 0 0 0 0 0 0 0 0 0 0 0 0.2 0"/>
<feBlend mode="normal" in2="effect1_innerShadow" result="effect2_innerShadow"/>
</filter>
<filter id="filter1_i" x="59" y="108" width="100" height="100" filterUnits="userSpaceOnUse" color-interpolation-filters="sRGB">
<feFlood flood-opacity="0" result="BackgroundImageFix"/>
<feBlend mode="normal" in="SourceGraphic" in2="BackgroundImageFix" result="shape"/>
<feColorMatrix in="SourceAlpha" type="matrix" values="0 0 0 0 0 0 0 0 0 0 0 0 0 0 0 0 0 0 127 0" result="hardAlpha"/>
<feOffset/>
<feGaussianBlur stdDeviation="6"/>
<feComposite in2="hardAlpha" operator="arithmetic" k2="-1" k3="1"/>
<feColorMatrix type="matrix" values="0 0 0 0 0 0 0 0 0 0 0 0 0 0 0 0 0 0 0.4 0"/>
<feBlend mode="normal" in2="shape" result="effect1_innerShadow"/>
</filter>
<filter id="filter2_d" x="82.168" y="132" width="53.6667" height="52" filterUnits="userSpaceOnUse" color-interpolation-filters="sRGB">
<feFlood flood-opacity="0" result="BackgroundImageFix"/>
<feColorMatrix in="SourceAlpha" type="matrix" values="0 0 0 0 0 0 0 0 0 0 0 0 0 0 0 0 0 0 127 0"/>
<feOffset/>
<feGaussianBlur stdDeviation="0.5"/>
<feColorMatrix type="matrix" values="0 0 0 0 0.320833 0 0 0 0 0.320833 0 0 0 0 0.320833 0 0 0 0.25 0"/>
<feBlend mode="normal" in2="BackgroundImageFix" result="effect1_dropShadow"/>
<feBlend mode="normal" in="SourceGraphic" in2="effect1_dropShadow" result="shape"/>
</filter>
<linearGradient id="paint0_linear" x1="51.775" y1="56.4938" x2="218" y2="245.2" gradientUnits="userSpaceOnUse">
<stop stop-color="white"/>
<stop offset="1" stop-color="#705F5F" stop-opacity="0"/>
</linearGradient>
<linearGradient id="paint1_linear" x1="174.52" y1="212.6" x2="38.8" y2="106.52" gradientUnits="userSpaceOnUse">
<stop stop-color="#FFE4C1"/>
<stop offset="1" stop-color="#383838" stop-opacity="0"/>
</linearGradient>
<linearGradient id="paint2_linear" x1="194.68" y1="229.4" x2="17.2" y2="90.68" gradientUnits="userSpaceOnUse">
<stop stop-color="#FFE4C1"/>
<stop offset="1" stop-color="#383838" stop-opacity="0"/>
</linearGradient>
</defs>
</svg>
