<svg width="218" height="267" viewBox="0 0 218 267" fill="none" xmlns="http://www.w3.org/2000/svg">
<path d="M86.0059 29.7983C84.9045 29.7983 84.0234 30.669 84.0234 31.7573V50.0412C84.0234 51.1295 84.9045 52.0002 86.0059 52.0002H131.381C132.483 52.0002 133.364 51.1295 133.364 50.0412V31.7573C133.364 30.669 132.483 29.7983 131.381 29.7983H86.0059ZM129.399 44.1642C129.399 45.2526 128.518 46.1232 127.416 46.1232H90.191C89.0896 46.1232 88.2086 45.2526 88.2086 44.1642V35.893C88.2086 34.8046 89.0896 33.934 90.191 33.934H127.416C128.518 33.934 129.399 34.8046 129.399 35.893V44.1642Z" fill="#D1D4D8"/>
<path d="M140.045 0L114.918 37.8775H127.37L155.388 0H140.045Z" fill="#0FA711"/>
<path d="M127.377 0L102.473 37.8775H114.925L140.052 0H127.377Z" fill="white"/>
<path d="M114.92 0L90.0156 37.8775H102.468L127.373 0H114.92Z" fill="#FF7600"/>
<path d="M90.0177 37.8775H102.47L77.343 0H62L90.0177 37.8775Z" fill="#FF7600"/>
<path d="M102.471 37.8775H114.923L90.0184 0H77.3438L102.471 37.8775Z" fill="white"/>
<path opacity="0.5" d="M110.695 6.27979L104.469 15.6931L119.145 37.8818H127.372L129.596 34.744L110.695 6.27979Z" fill="#3E4347"/>
<path d="M114.92 37.8775H127.373L102.468 0H90.0156L114.92 37.8775Z" fill="#0FA711"/>
<g filter="url(#filter0_ii)">
<path d="M218 158C218 218.199 169.199 267 109 267C48.801 267 0 218.199 0 158C0 97.801 48.801 49 109 49C169.199 49 218 97.801 218 158Z" fill="#34373C" fill-opacity="0.4"/>
</g>
<path d="M214.5 158C214.5 216.266 167.266 263.5 109 263.5C50.734 263.5 3.5 216.266 3.5 158C3.5 99.734 50.734 52.5 109 52.5C167.266 52.5 214.5 99.734 214.5 158Z" stroke="#DFDFDF" stroke-width="7"/>
<path d="M214.5 158C214.5 216.266 167.266 263.5 109 263.5C50.734 263.5 3.5 216.266 3.5 158C3.5 99.734 50.734 52.5 109 52.5C167.266 52.5 214.5 99.734 214.5 158Z" stroke="url(#paint0_linear)" stroke-width="7"/>
<path d="M214.5 158C214.5 216.266 167.266 263.5 109 263.5C50.734 263.5 3.5 216.266 3.5 158C3.5 99.734 50.734 52.5 109 52.5C167.266 52.5 214.5 99.734 214.5 158Z" stroke="url(#paint1_linear)" stroke-width="7"/>
<path d="M196 158C196 206.049 157.049 245 109 245C60.9512 245 22 206.049 22 158C22 109.951 60.9512 71 109 71C157.049 71 196 109.951 196 158Z" fill="#5C686B" stroke="#6F7A7D" stroke-width="30"/>
<path d="M109.001 81C66.5595 81 32 115.357 32 158.001C32 200.645 66.3574 235.002 109.001 235.002C151.645 235.002 186.002 200.645 186.002 158.001C186.002 115.357 151.442 81 109.001 81ZM93.6412 88.4778C93.8433 88.4778 93.8433 88.4778 93.6412 88.4778C95.0559 91.5093 97.6833 93.3282 100.311 92.7219C102.938 92.3177 105.565 90.4988 105.767 86.861C106.172 86.861 106.576 86.861 106.98 86.861C106.98 97.7745 106.172 109.496 104.959 122.229C104.757 123.441 104.757 124.654 104.757 125.867C104.353 124.856 103.948 123.644 103.544 122.229C99.3001 111.517 95.4601 99.9976 92.4286 88.6799C93.0349 88.6799 93.237 88.4778 93.6412 88.4778ZM76.0583 94.743C78.2814 97.3703 81.1109 98.3808 83.5361 97.1682C86.3655 95.9556 87.9823 93.1261 87.376 90.0946C87.7802 89.8925 88.1844 89.8925 88.5886 89.6904C91.216 100.2 93.8433 111.72 95.8643 124.452C96.0664 125.867 96.2685 126.877 96.6727 128.09C96.0664 127.079 95.4601 126.069 94.4496 124.856C87.5781 115.559 80.9088 105.454 75.0478 95.3493C75.2499 95.1472 75.6541 94.9451 76.0583 94.743ZM60.4964 105.656C63.3259 107.475 66.3574 107.678 68.3784 106.061C69.9952 104.848 70.8036 103.029 70.8036 101.21C70.8036 100.2 70.6015 99.1892 69.9952 98.3808C70.3994 98.1787 70.6015 97.9766 71.0057 97.7745C76.4625 107.071 81.7172 117.783 87.1739 129.302C87.7802 130.515 88.3865 131.526 88.7907 132.536C87.9823 131.728 86.9718 130.919 85.9613 130.111C77.0688 122.633 67.9742 114.549 59.688 106.465C59.8901 106.061 60.2943 105.859 60.4964 105.656ZM48.3703 120.006C48.5724 120.006 48.5724 120.006 48.3703 120.006C51.6039 121.016 54.6355 120.612 56.0502 118.389C56.4544 117.783 57.4649 116.166 57.4649 114.549C57.4649 113.538 57.0607 111.922 55.8481 110.507C56.0502 110.305 56.4544 109.901 56.6565 109.699C64.3364 117.378 72.2184 126.271 80.5046 135.972C81.313 136.982 82.1214 137.791 82.9298 138.599C81.9193 137.993 80.7067 137.589 79.494 136.982C68.9847 132.132 58.0712 126.675 47.764 121.016C47.9661 120.612 48.1682 120.41 48.3703 120.006ZM40.4883 136.982C40.4883 136.982 40.4883 136.78 40.4883 136.982C43.924 137.184 46.5514 135.972 47.5619 133.344C47.764 132.738 47.9661 131.93 47.9661 130.717C47.9661 129.505 47.5619 127.281 45.1367 125.665C45.3388 125.26 45.5409 125.058 45.743 124.654C55.0397 130.111 65.1448 136.578 75.452 143.854C76.4625 144.662 77.6751 145.269 78.4835 145.875C77.473 145.673 76.0583 145.471 74.6436 145.066C63.3259 143.45 51.4018 141.024 39.882 137.993C40.2862 137.791 40.4883 137.387 40.4883 136.982ZM37.2547 155.374C37.2547 155.374 37.2547 155.172 37.2547 155.374C40.4883 154.767 42.9135 152.746 43.1156 150.119C43.1156 149.917 43.1156 149.715 43.1156 149.311C43.1156 146.885 41.903 144.258 38.8715 143.248C38.8715 142.843 39.0736 142.439 39.0736 142.035C49.5829 144.864 60.9006 148.704 72.8247 152.948C74.0373 153.353 75.2499 153.757 76.2604 153.959C75.0478 153.959 73.8352 154.161 72.4205 154.161C61.1027 155.576 48.7745 156.182 37.0526 156.384C37.2547 156.182 37.2547 155.778 37.2547 155.374ZM38.8715 174.169C38.8715 173.967 38.8715 173.967 38.8715 174.169C41.4988 172.754 43.1156 170.733 43.1156 168.308C43.1156 168.106 43.1156 167.702 43.1156 167.5C42.7114 164.872 40.8925 162.245 37.2547 162.043C37.2547 161.639 37.2547 161.235 37.2547 160.83C48.1682 160.83 59.8901 161.437 72.6226 162.447C74.0373 162.649 75.2499 162.649 76.2604 162.649C75.2499 163.054 74.0373 163.458 72.6226 163.862C61.9111 168.106 50.3913 171.946 39.0736 175.18C39.0736 174.978 39.0736 174.573 38.8715 174.169ZM45.3387 191.752C45.3387 191.752 45.3387 191.55 45.3387 191.752C47.1577 190.135 48.1682 188.316 48.1682 186.295C48.1682 185.487 47.9661 184.881 47.764 184.274C46.7535 181.849 44.3282 179.828 40.6904 180.636C40.4883 180.232 40.4883 179.828 40.2862 179.424C50.7955 176.594 62.3153 174.169 74.8457 171.946C76.2604 171.744 77.2709 171.34 78.4835 171.138C77.473 171.744 76.4625 172.35 75.2499 173.361C65.9532 180.232 55.8481 186.902 45.743 192.965C45.743 192.358 45.5409 192.156 45.3387 191.752ZM56.2523 207.112C57.2628 205.495 57.667 204.08 57.667 202.463C57.667 201.251 57.2628 200.038 56.4544 199.23C54.8376 197.209 51.806 195.794 48.5724 197.411C48.3703 197.007 48.1682 196.805 47.9661 196.4C57.2628 190.944 67.9742 185.487 79.494 180.03C80.7067 179.424 81.7172 178.818 82.7277 178.413C81.9193 179.222 81.1109 180.232 80.3024 181.243C73.2289 190.337 65.1448 199.432 57.0607 207.92C56.8586 207.718 56.4544 207.516 56.2523 207.112ZM70.6015 219.036C70.8036 217.823 71.0057 216.813 71.0057 215.802C71.0057 213.781 70.1973 212.164 68.7826 211.356C66.7616 209.941 63.528 209.133 60.9006 211.76C60.4964 211.558 60.2943 211.154 60.0922 210.952C67.7721 203.272 76.4625 195.188 86.1634 187.104C87.1739 186.295 87.9823 185.487 88.7907 184.678C88.1844 185.689 87.7802 186.902 87.1739 188.114C82.7277 198.624 77.473 209.537 71.612 219.642C71.4099 219.44 71.0057 219.238 70.6015 219.036ZM87.5781 226.918C87.7802 223.482 86.3655 220.855 83.9403 219.844C81.5151 219.036 78.2814 219.238 76.2604 222.27C75.8562 222.067 75.6541 221.865 75.2499 221.663C80.7066 212.367 86.9718 202.261 94.2475 191.752C95.0559 190.539 95.6622 189.529 96.2685 188.721C96.0664 189.731 95.8643 191.146 95.4601 192.56C93.8433 203.878 91.4181 215.802 88.5886 227.322C88.3865 227.12 87.9823 227.12 87.5781 226.918ZM105.969 229.949C105.363 226.716 103.342 224.291 100.715 224.088C98.0874 223.886 95.0559 224.897 94.0454 228.333C93.6412 228.333 93.237 228.13 92.8328 228.13C95.6622 217.621 99.3001 206.303 103.544 194.379C103.948 193.167 104.353 191.954 104.555 190.944C104.555 192.156 104.757 193.369 104.757 194.784C106.172 206.101 106.98 218.43 107.182 230.151C106.778 230.151 106.374 230.151 105.969 229.949ZM178.928 143.45C176.301 144.864 174.482 146.885 174.482 149.311C174.482 149.513 174.482 149.917 174.482 150.119C174.886 152.746 176.705 155.374 180.343 155.576C180.343 155.98 180.343 156.384 180.343 156.788C169.632 156.788 157.708 155.98 144.975 154.767C143.56 154.565 142.348 154.565 141.337 154.565C142.348 154.161 143.56 153.757 144.975 153.353C155.687 149.108 167.206 145.269 178.524 142.237C178.726 142.641 178.726 143.045 178.928 143.45ZM172.663 125.867C172.663 125.867 172.663 126.069 172.663 125.867C170.844 127.484 169.834 129.302 169.834 131.323C169.834 132.132 170.036 132.738 170.238 133.344C171.248 135.77 173.674 137.791 177.312 137.184C177.514 137.589 177.514 137.993 177.716 138.397C167.206 141.024 155.485 143.45 142.954 145.673C141.539 145.875 140.529 146.077 139.316 146.481C140.327 145.875 141.337 145.269 142.55 144.46C151.847 137.387 161.952 130.717 172.057 124.856C172.259 125.26 172.461 125.463 172.663 125.867ZM162.154 110.709C161.143 112.326 160.537 113.943 160.537 115.357C160.537 116.57 160.941 117.783 161.75 118.591C163.366 120.612 166.196 122.027 169.43 120.41C169.632 120.814 169.834 121.016 170.036 121.42C160.537 126.675 150.028 132.132 138.306 137.184C137.093 137.791 136.083 138.195 135.072 138.801C135.881 137.993 136.689 136.982 137.7 135.972C144.975 127.079 153.059 117.985 161.345 109.699C161.548 110.103 161.952 110.305 162.154 110.709ZM147.603 98.1787C147.603 98.1787 147.805 98.3808 147.603 98.1787C147.4 99.3913 146.996 100.402 146.996 101.412C146.996 103.231 147.805 104.848 149.219 105.859C151.24 107.273 154.474 108.082 157.101 105.656C157.303 105.859 157.708 106.263 157.91 106.465C150.23 114.145 141.337 122.027 131.434 130.111C130.424 130.919 129.413 131.728 128.807 132.536C129.413 131.526 129.818 130.515 130.424 129.1C135.072 118.591 140.529 107.678 146.39 97.5724C146.996 97.7745 147.198 97.9766 147.603 98.1787ZM130.626 90.2967C130.828 90.2967 130.828 90.2967 130.626 90.2967C130.424 93.7324 131.839 96.3598 134.264 97.3703C136.689 98.3808 139.923 98.1787 141.944 94.9451C142.348 95.1472 142.55 95.3493 142.954 95.5514C137.497 104.848 131.03 114.751 123.552 125.26C122.744 126.271 122.138 127.281 121.531 128.292C121.733 127.281 122.138 125.867 122.34 124.452C124.159 113.134 126.584 101.21 129.413 89.8925C130.02 89.8925 130.222 90.0946 130.626 90.2967ZM112.437 86.861C112.437 86.861 112.639 86.861 112.437 86.861C113.043 90.0946 115.064 92.5198 117.691 92.7219C120.319 92.924 123.35 91.9135 124.563 88.4778C124.967 88.4778 125.371 88.6799 125.775 88.6799C122.946 99.1892 119.106 110.507 114.66 122.229C114.256 123.441 113.851 124.654 113.447 125.665C113.447 124.452 113.245 123.239 113.245 121.825C112.033 110.507 111.224 98.1787 111.224 86.4568C111.628 86.861 112.033 86.861 112.437 86.861ZM124.361 228.333C122.744 225.301 120.319 223.684 117.691 224.088C115.064 224.493 112.437 226.312 112.235 229.949C111.83 229.949 111.426 229.949 111.022 229.949C111.022 219.036 111.628 207.314 112.841 194.581C113.043 193.369 113.043 192.358 113.043 191.348C113.043 191.146 113.043 191.146 113.043 190.944C113.447 191.954 113.851 193.167 114.256 194.581C118.5 205.293 122.34 216.813 125.573 228.13C125.169 228.333 124.765 228.333 124.361 228.333ZM141.742 222.067C141.742 222.067 141.539 222.067 141.742 222.067C139.518 219.44 136.689 218.43 134.264 219.642C131.434 220.855 129.818 223.684 130.626 226.716C130.222 226.918 129.818 226.918 129.413 227.12C126.584 216.611 124.159 205.091 122.138 192.56C121.936 191.146 121.733 190.135 121.329 188.923C121.936 189.933 122.542 190.944 123.552 192.156C130.424 201.453 137.093 211.558 142.954 221.663C142.348 221.865 142.146 221.865 141.742 222.067ZM157.303 211.154C157.303 211.356 157.303 211.356 157.303 211.154C154.474 209.335 151.442 209.133 149.421 210.75C147.805 211.962 146.996 213.781 146.996 215.6C146.996 216.611 147.198 217.621 147.805 218.43C147.4 218.632 147.198 218.834 146.794 219.036C141.337 209.739 135.881 199.028 130.626 187.508C130.02 186.295 129.413 185.285 129.009 184.274C129.818 185.083 130.828 185.891 131.839 186.699C140.933 193.773 150.028 201.857 158.314 210.143C157.91 210.75 157.708 210.952 157.303 211.154ZM169.227 197.007C169.227 197.007 169.227 197.209 169.227 197.007C165.994 195.996 162.962 196.4 161.548 198.624C161.143 199.23 160.133 200.847 160.133 202.463C160.133 203.474 160.537 205.091 161.75 206.506C161.548 206.708 161.143 207.112 160.941 207.314C153.261 199.634 145.379 190.742 137.295 181.041C136.487 180.03 135.678 179.02 134.87 178.413C135.881 179.02 137.093 179.424 138.306 180.03C148.815 184.678 159.729 190.135 170.036 195.794C169.632 196.4 169.43 196.603 169.227 197.007ZM177.109 180.03C177.109 180.232 177.109 180.232 177.109 180.03C173.674 179.828 171.046 181.041 170.036 183.668C169.834 184.274 169.632 185.083 169.632 186.295C169.632 187.508 170.036 189.731 172.461 191.348C172.259 191.752 172.057 191.954 171.855 192.358C162.558 186.902 152.453 180.434 142.146 173.159C141.135 172.35 139.923 171.744 139.114 171.138C140.125 171.34 141.539 171.744 142.954 171.946C154.272 173.563 166.196 175.988 177.514 179.02C177.312 179.424 177.312 179.828 177.109 180.03ZM180.343 161.841C177.109 162.447 174.684 164.266 174.482 166.893C174.482 167.096 174.482 167.298 174.482 167.702C174.482 170.127 175.695 172.754 178.726 173.765C178.726 174.169 178.524 174.573 178.524 174.978C168.015 172.148 156.697 168.51 144.773 164.064C143.56 163.66 142.348 163.256 141.337 163.054C142.55 163.054 143.763 162.851 145.177 162.851C156.495 161.639 168.823 160.83 180.545 160.83C180.545 161.033 180.343 161.437 180.343 161.841Z" fill="#D1D4D8"/>
<circle cx="109" cy="158" r="77" stroke="url(#paint2_linear)" stroke-width="2"/>
<circle cx="109" cy="158" r="101" stroke="url(#paint3_linear)" stroke-width="2"/>
<g filter="url(#filter1_i)">
<circle cx="109" cy="158" r="50" fill="#6F7A7D"/>
</g>
<g filter="url(#filter2_d)">
<path fill-rule="evenodd" clip-rule="evenodd" d="M83.168 134.786V133H112.692V161.571H83.168V134.786ZM99.7751 138.357H96.0846L88.7037 156.214H92.3942L93.8718 152.643H101.988L103.466 156.214H107.156L99.7751 138.357ZM95.3458 149.071L97.9299 142.821L100.514 149.071H95.3458ZM131.144 158H116.382V154.429H134.835V183H105.311V165.143H109.001V179.429H131.144V158ZM127.96 164.47V161.676H120.929V164.47H122.626V169.785H119.165C118.739 169.402 118.218 169.161 117.601 169.061C118.335 168.829 118.901 168.404 119.298 167.789C119.694 167.173 119.893 166.433 119.893 165.568C119.893 164.304 119.511 163.314 118.747 162.599C117.983 161.867 116.895 161.501 115.485 161.501C114.5 161.501 113.648 161.659 112.928 161.975V165.144C113.721 164.728 114.493 164.52 115.242 164.52C116.271 164.52 116.785 165.019 116.785 166.017C116.785 167.049 116.175 167.564 114.956 167.564H114.272V170.509H115.176C115.97 170.509 116.513 170.667 116.807 170.983C117.116 171.299 117.27 171.723 117.27 172.255C117.27 173.653 116.623 174.351 115.33 174.351C114.375 174.351 113.427 174.068 112.487 173.503V176.747C113.413 177.113 114.412 177.296 115.485 177.296C117.072 177.296 118.262 176.88 119.055 176.048C119.863 175.216 120.267 174.135 120.267 172.804V172.63H122.626V178.418H125.756V164.47H127.96Z" fill="white"/>
</g>
<path d="M50.3984 82.8998L52.8984 80.9998C53.1984 80.7998 53.4984 80.5998 53.8984 80.4998C54.2984 80.3998 54.4984 80.2998 54.7984 80.2998C55.0984 80.2998 55.3984 80.3998 55.6984 80.4998C55.9984 80.5998 56.1984 80.8998 56.4984 81.1998C56.7984 81.5998 56.9984 81.9998 56.8984 82.4998C56.8984 82.8998 56.6984 83.3998 56.3984 83.7998C56.5984 83.5998 56.8984 83.5998 57.0984 83.4998C57.3984 83.4998 57.5984 83.4998 57.8984 83.4998C58.1984 83.4998 58.3984 83.6998 58.6984 83.7998C58.8984 83.8998 59.1984 84.0998 59.2984 84.3998C59.4984 84.6998 59.6984 85.0998 59.7984 85.3998C59.8984 85.6998 59.7984 86.0998 59.6984 86.3998C59.5984 86.6998 59.3984 87.0998 59.1984 87.3998C58.9984 87.6998 58.6984 87.9998 58.2984 88.2998L55.7984 90.1998L50.3984 82.8998ZM53.5984 85.0998L54.8984 84.0998C55.0984 83.9998 55.1984 83.7998 55.3984 83.6998C55.4984 83.4998 55.5984 83.3998 55.6984 83.1998C55.7984 82.9998 55.7984 82.7998 55.6984 82.5998C55.6984 82.3998 55.5984 82.1998 55.3984 81.9998C55.1984 81.6998 54.8984 81.4998 54.5984 81.4998C54.2984 81.3998 53.8984 81.4998 53.4984 81.7998L51.9984 82.9998L53.5984 85.0998ZM56.1984 88.4998L57.5984 87.3998C57.6984 87.2998 57.8984 87.0998 58.0984 86.9998C58.2984 86.7998 58.3984 86.5998 58.4984 86.3998C58.5984 86.1998 58.5984 85.9998 58.5984 85.6998C58.5984 85.4998 58.4984 85.1998 58.2984 84.9998C57.9984 84.5998 57.5984 84.3998 57.1984 84.3998C56.7984 84.3998 56.2984 84.5998 55.7984 84.8998L54.3984 85.9998L56.1984 88.4998Z" fill="white"/>
<path d="M56.5977 77.4999L57.5977 76.8999L59.9976 80.6999C59.8976 80.2999 59.9976 79.9999 60.1976 79.5999C60.3976 79.1999 60.6977 78.8999 61.0977 78.6999C61.2977 78.4999 61.5976 78.3999 61.8976 78.3999C62.1976 78.2999 62.3976 78.2999 62.6976 78.3999C62.9976 78.4999 63.1976 78.5999 63.4976 78.7999C63.7976 78.9999 63.9976 79.1999 64.1976 79.5999L66.2976 82.8999L65.2976 83.4999L63.3976 80.4999C63.1976 80.2999 63.0976 80.0999 62.8976 79.9999C62.6976 79.8999 62.5976 79.7999 62.3976 79.7999C62.1976 79.7999 62.0976 79.7999 61.8976 79.7999C61.6976 79.7999 61.5976 79.8999 61.3976 79.9999C61.1976 80.0999 60.9976 80.2999 60.8976 80.4999C60.7976 80.6999 60.6977 80.8999 60.5977 81.0999C60.5977 81.2999 60.5977 81.5999 60.5977 81.7999C60.6977 82.0999 60.7976 82.2999 60.9976 82.5999L62.6976 85.1999L61.6976 85.7999L56.5977 77.4999Z" fill="white"/>
<path d="M65 77.4002C65.1 77.0002 65.4 76.6001 65.7 76.3001C66 76.0001 66.3 75.7001 66.7 75.5001C67.1 75.3001 67.5 75.2001 67.8 75.1001C68.1 75.0001 68.4 75.1001 68.7 75.1001C69 75.2001 69.2 75.3001 69.4 75.5001C69.6 75.7001 69.8 75.9001 69.9 76.1001L71.3 78.8001C71.4 79.0001 71.5 79.2001 71.6 79.3001C71.7 79.5001 71.8 79.6001 71.9 79.7001L71 80.2001C70.8 79.9001 70.7 79.7002 70.5 79.4002C70.5 79.9002 70.3 80.3001 70.1 80.6001C69.9 80.9001 69.6 81.2002 69.1 81.4002C68.9 81.5002 68.6 81.6001 68.3 81.7001C68 81.8001 67.8 81.8001 67.5 81.7001C67.3 81.7001 67 81.6002 66.8 81.4002C66.6 81.3002 66.4 81.0001 66.3 80.8001C66.1 80.5001 66 80.1001 66.1 79.8001C66.2 79.5001 66.2 79.2002 66.4 78.9002C66.6 78.6002 66.8 78.3001 67.2 78.1001C67.5 77.8001 67.9 77.6002 68.3 77.4002L69 77.0001L68.9 76.8001C68.8 76.7001 68.7 76.5002 68.6 76.4002C68.5 76.3002 68.3 76.2001 68.2 76.2001C68 76.1001 67.9 76.1001 67.7 76.2001C67.5 76.2001 67.3 76.3002 67.1 76.4002C66.9 76.5002 66.7 76.6001 66.6 76.7001C66.5 76.8001 66.4 76.9001 66.3 77.1001C66.2 77.2001 66.1 77.3001 66.1 77.5001C66.1 77.7001 66 77.7002 65.9 77.9002L65 77.4002ZM69 78.0001C68.8 78.1001 68.5 78.3002 68.3 78.4002C68.1 78.6002 67.9 78.7002 67.7 78.9002C67.5 79.1002 67.4 79.3001 67.4 79.5001C67.4 79.7001 67.4 79.9001 67.5 80.1001C67.7 80.4001 67.9 80.6001 68.2 80.6001C68.5 80.6001 68.8 80.5002 69.1 80.4002C69.4 80.3002 69.6 80.1002 69.7 79.9002C69.8 79.7002 69.9 79.5001 70 79.3001C70 79.1001 70 78.9001 70 78.7001C70 78.5001 69.9 78.3001 69.8 78.1001L69.6 77.8001L69 78.0001Z" fill="white"/>
<path d="M74.1984 73.8001C73.9984 73.7001 73.7984 73.6001 73.5984 73.6001C73.3984 73.6001 73.0984 73.6001 72.8984 73.7001C72.6984 73.8001 72.4984 74.0001 72.2984 74.1001C72.1984 74.3001 72.0984 74.5001 72.1984 74.7001C72.2984 74.9001 72.3984 75.0001 72.4984 75.0001C72.5984 75.1001 72.7984 75.1001 72.9984 75.1001C73.1984 75.1001 73.2984 75.1001 73.4984 75.0001C73.6984 74.9001 73.7984 74.9001 73.9984 74.9001C74.1984 74.9001 74.4984 74.8001 74.6984 74.8001C74.8984 74.8001 75.0984 74.8001 75.2984 74.9001C75.4984 75.0001 75.6984 75.1001 75.7984 75.2001C75.9984 75.3001 76.0984 75.5001 76.1984 75.8001C76.2984 76.1001 76.3984 76.4001 76.3984 76.7001C76.3984 77.0001 76.2984 77.2001 76.0984 77.5001C75.9984 77.7001 75.7984 77.9001 75.4984 78.1001C75.1984 78.3001 74.9984 78.4001 74.6984 78.6001C74.1984 78.8001 73.7984 78.9001 73.3984 78.9001C72.9984 78.9001 72.5984 78.8001 72.0984 78.5001L72.5984 77.5001C72.7984 77.6001 73.0984 77.7001 73.3984 77.7001C73.6984 77.7001 73.9984 77.7001 74.2984 77.6001C74.3984 77.5001 74.5984 77.5001 74.6984 77.4001C74.7984 77.3001 74.8984 77.2001 74.9984 77.1001C75.0984 77.0001 75.0984 76.9001 75.1984 76.8001C75.1984 76.7001 75.1984 76.6001 75.1984 76.4001C75.0984 76.2001 74.9984 76.1001 74.8984 76.1001C74.7984 76.0001 74.5984 76.0001 74.3984 76.0001C74.1984 76.0001 74.0984 76.0001 73.8984 76.1001C73.6984 76.2001 73.5984 76.2001 73.4984 76.2001C73.2984 76.2001 72.9984 76.3001 72.7984 76.3001C72.5984 76.3001 72.2984 76.3001 72.0984 76.3001C71.8984 76.3001 71.6984 76.2001 71.4984 76.0001C71.2984 75.9001 71.1984 75.7001 71.0984 75.4001C70.9984 75.1001 70.8984 74.8001 70.8984 74.6001C70.8984 74.3001 70.9984 74.1001 71.0984 73.9001C71.1984 73.7001 71.3984 73.5001 71.5984 73.3001C71.7984 73.1001 72.0984 73.0001 72.2984 72.9001C72.6984 72.7001 73.0984 72.6001 73.4984 72.6001C73.8984 72.6001 74.2984 72.7001 74.5984 72.9001L74.1984 73.8001Z" fill="white"/>
<path d="M74.6992 68.0001L75.7992 67.6001L77.2992 71.9001C77.2992 71.5001 77.4992 71.2001 77.6992 70.9001C77.9992 70.6001 78.2992 70.4001 78.7992 70.2001C79.0992 70.1001 79.2992 70.0001 79.5992 70.0001C79.8992 70.0001 80.0992 70.0001 80.3992 70.2001C80.6992 70.3001 80.8992 70.5001 81.0992 70.7001C81.2992 70.9001 81.4992 71.2001 81.5992 71.6001L82.8992 75.3001L81.7992 75.7001L80.5992 72.3001C80.4992 72.0001 80.3992 71.8001 80.1992 71.7001C80.0992 71.5001 79.8992 71.4001 79.6992 71.3001C79.4992 71.2001 79.3992 71.2001 79.1992 71.2001C78.9992 71.2001 78.8992 71.2001 78.6992 71.3001C78.4992 71.4001 78.2992 71.5001 78.0992 71.6001C77.8992 71.7001 77.7992 71.9001 77.6992 72.1001C77.5992 72.3001 77.5992 72.5001 77.5992 72.8001C77.5992 73.1001 77.6992 73.4001 77.7992 73.7001L78.8992 76.6001L77.7992 77.0001L74.6992 68.0001Z" fill="white"/>
<path d="M81.8969 66.9999C81.7969 66.7999 81.8969 66.5999 81.9969 66.3999C82.0969 66.1999 82.2969 66.0999 82.4969 65.9999C82.6969 65.8999 82.8969 65.9999 83.0969 66.0999C83.2969 66.1999 83.3969 66.3999 83.4969 66.5999C83.5969 66.7999 83.4969 66.9999 83.3969 67.1999C83.2969 67.3999 83.0969 67.4999 82.8969 67.5999C82.6969 67.6999 82.4969 67.5999 82.2969 67.4999C82.0969 67.3999 81.9969 67.1999 81.8969 66.9999ZM82.7969 68.9999L83.8969 68.6999L85.5969 74.4999L84.4969 74.7999L82.7969 68.9999Z" fill="white"/>
<path d="M85.6992 68.1001L86.7992 67.8001L86.9992 68.7001C87.0992 68.4001 87.1992 68.0001 87.5992 67.8001C87.8992 67.5001 88.2992 67.3001 88.6992 67.2001C88.9992 67.1001 89.2992 67.1001 89.4992 67.1001C89.6992 67.1001 89.9992 67.2001 90.2992 67.3001C90.4992 67.4001 90.6992 67.6001 90.8992 67.9001C91.0992 68.2001 91.1992 68.5001 91.2992 68.9001L92.1992 72.7001L91.1992 73.0001L90.3992 69.5001C90.2992 69.2001 90.1992 69.0001 90.0992 68.8001C89.9992 68.6001 89.7992 68.5001 89.6992 68.4001C89.4992 68.3001 89.3992 68.3001 89.1992 68.2001C88.9992 68.1001 88.8992 68.2001 88.6992 68.2001C88.4992 68.3001 88.2992 68.3001 88.0992 68.5001C87.8992 68.6001 87.7992 68.8001 87.6992 69.0001C87.5992 69.2001 87.4992 69.4001 87.4992 69.7001C87.4992 70.0001 87.4992 70.3001 87.5992 70.6001L88.2992 73.6001L87.1992 73.9001L85.6992 68.1001Z" fill="white"/>
<path d="M92.1992 64.5001C92.1992 64.3001 92.1992 64.1001 92.2992 63.9001C92.3992 63.7001 92.5992 63.6001 92.7992 63.6001C92.9992 63.6001 93.1992 63.6001 93.3992 63.7001C93.5992 63.8001 93.6992 64.0001 93.6992 64.2001C93.6992 64.4001 93.6992 64.6001 93.5992 64.8001C93.4992 65.0001 93.2992 65.1001 93.0992 65.1001C92.8992 65.1001 92.6992 65.1001 92.4992 65.0001C92.3992 64.9001 92.2992 64.7001 92.1992 64.5001ZM92.8992 66.6001L93.9992 66.4001L95.0992 72.4001L93.9992 72.6001L92.8992 66.6001Z" fill="white"/>
<path d="M99.5977 67.1001C99.5977 66.8001 99.5976 66.5001 99.6976 66.2001C99.7976 65.9001 99.8977 65.7001 100.098 65.4001C100.298 65.1001 100.498 65.0001 100.798 64.9001C101.098 64.8001 101.298 64.7001 101.698 64.6001C101.998 64.6001 102.298 64.6001 102.598 64.7001C102.898 64.8001 103.098 64.9001 103.398 65.1001C103.598 65.3001 103.798 65.5001 103.898 65.8001C103.998 66.1001 104.098 66.3001 104.198 66.7001C104.298 67.1001 104.198 67.3001 104.098 67.6001C103.998 67.9001 103.898 68.1001 103.698 68.4001C103.498 68.6001 103.298 68.8001 102.998 68.9001C102.698 69.0001 102.498 69.1001 102.098 69.2001C101.698 69.3001 101.498 69.2001 101.198 69.1001C100.898 69.0001 100.698 68.9001 100.398 68.7001C100.198 68.5001 99.9976 68.3001 99.8976 68.0001C99.7976 67.7001 99.6977 67.4001 99.5977 67.1001Z" fill="white"/>
<path d="M109.898 62.1001H111.098L110.898 70.0001L114.998 70.1001V71.2001L109.598 71.1001L109.898 62.1001Z" fill="white"/>
<path d="M116.297 65.2998L117.397 65.3998L116.897 71.3998L115.797 71.2998L116.297 65.2998ZM116.197 63.0998C116.197 62.8998 116.297 62.6998 116.497 62.4998C116.697 62.2998 116.897 62.2998 117.097 62.2998C117.297 62.2998 117.497 62.3998 117.697 62.5998C117.897 62.7998 117.897 62.9998 117.897 63.1998C117.897 63.3998 117.797 63.5998 117.597 63.7998C117.397 63.9998 117.197 63.9998 116.997 63.9998C116.797 63.9998 116.597 63.8998 116.397 63.6998C116.197 63.5998 116.197 63.3998 116.197 63.0998Z" fill="white"/>
<path d="M119.8 62L120.9 62.2L120.1 68.4L123 66.2L124.6 66.4L121.4 68.7L124 72.4L122.4 72.2L120 68.7L119.6 71.8L118.5 71.6L119.8 62Z" fill="white"/>
<path d="M126.799 63L127.899 63.2L126.899 67.6C127.099 67.3 127.399 67.1 127.799 67C128.199 66.9 128.599 66.9 129.099 67C129.399 67.1 129.599 67.2 129.899 67.3C130.099 67.4 130.299 67.6 130.499 67.9C130.699 68.1 130.799 68.4 130.799 68.7C130.799 69 130.799 69.4 130.799 69.8L129.999 73.6L128.899 73.4L129.699 69.9C129.799 69.6 129.799 69.4 129.699 69.2C129.599 69 129.599 68.8 129.499 68.7C129.399 68.6 129.299 68.4 129.099 68.3C128.899 68.2 128.799 68.1 128.599 68.1C128.399 68 128.099 68 127.899 68.1C127.699 68.1 127.499 68.2 127.299 68.3C127.099 68.4 126.999 68.6 126.799 68.8C126.699 69 126.599 69.3 126.499 69.7L125.799 72.7L124.699 72.5L126.799 63Z" fill="white"/>
<path d="M131.899 70.9001C131.999 70.5001 132.199 70.1 132.499 69.8C132.799 69.5 133.099 69.2 133.399 69C133.799 68.8 134.199 68.7 134.599 68.6C134.999 68.5 135.399 68.6 135.899 68.7C136.299 68.8 136.699 69 136.999 69.3C137.299 69.6 137.599 69.9 137.799 70.2C137.999 70.6 138.099 70.9001 138.199 71.4001C138.199 71.8001 138.199 72.2 138.099 72.7C137.999 73.1 137.799 73.5 137.499 73.8C137.199 74.1 136.899 74.4 136.599 74.6C136.299 74.8 135.799 74.9001 135.399 74.9001C134.999 74.9001 134.599 74.9 134.099 74.8C133.699 74.7 133.299 74.5 132.999 74.2C132.699 73.9 132.399 73.6 132.199 73.3C131.999 72.9 131.899 72.6 131.799 72.1C131.699 71.8 131.799 71.4001 131.899 70.9001ZM133.099 71.3C132.999 71.6 132.999 71.9 132.999 72.2C132.999 72.5 133.099 72.7 133.199 73C133.299 73.3 133.499 73.4 133.699 73.6C133.899 73.8 134.199 73.9 134.399 74C134.599 74.1 134.999 74.1 135.199 74.1C135.399 74.1 135.699 74.0001 135.899 73.9001C136.099 73.8001 136.299 73.6001 136.499 73.4001C136.699 73.2001 136.799 72.9 136.899 72.6C136.999 72.3 136.999 72 136.999 71.7C136.999 71.4 136.899 71.2001 136.799 70.9001C136.699 70.6001 136.499 70.5 136.299 70.3C136.099 70.1 135.799 70.0001 135.599 69.9001C135.299 69.8001 134.999 69.8 134.799 69.8C134.499 69.8 134.299 69.9 134.099 70C133.899 70.1 133.699 70.3 133.499 70.5C133.299 70.8 133.199 71 133.099 71.3Z" fill="white"/>
<path d="M145.098 69.1001L146.198 69.6001L142.698 77.9001L141.598 77.4001L145.098 69.1001Z" fill="white"/>
<path d="M147.1 73.2002L148.1 73.7002L147.7 74.5002C148 74.3002 148.3 74.2002 148.7 74.1002C149.1 74.1002 149.5 74.2002 149.9 74.4002C150.2 74.5002 150.4 74.7002 150.6 74.9002C150.8 75.1002 150.9 75.3002 151 75.6002C151.1 75.9002 151.1 76.1002 151.1 76.5002C151.1 76.8002 151 77.2002 150.8 77.5002L149.2 81.0002L148.2 80.5002L149.8 77.3002C149.9 77.0002 150 76.8002 150 76.6002C150 76.4002 150 76.2002 149.9 76.0002C149.8 75.8002 149.7 75.7002 149.6 75.6002C149.5 75.5002 149.3 75.4002 149.2 75.3002C149 75.2002 148.8 75.1002 148.6 75.1002C148.4 75.1002 148.2 75.1002 148 75.2002C147.8 75.3002 147.6 75.4002 147.4 75.6002C147.2 75.8002 147 76.0002 146.9 76.4002L145.5 79.2002L144.5 78.7002L147.1 73.2002Z" fill="white"/>
<path d="M155.598 84.6998L154.598 84.0998L154.998 83.3998C154.598 83.5998 154.298 83.5998 153.798 83.5998C153.398 83.5998 152.998 83.3998 152.598 83.1998C152.198 82.9998 151.898 82.6998 151.598 82.2998C151.398 81.9998 151.198 81.5998 151.098 81.1998C150.998 80.7998 150.998 80.3998 151.098 79.9998C151.198 79.5998 151.298 79.1998 151.598 78.7998C151.798 78.3998 152.098 78.0998 152.398 77.7998C152.698 77.4998 153.098 77.3998 153.398 77.2998C153.798 77.1998 154.198 77.1998 154.598 77.1998C154.998 77.1998 155.398 77.3998 155.798 77.5998C156.198 77.7998 156.498 78.0998 156.698 78.4998C156.898 78.8998 157.098 79.1998 157.098 79.5998L159.398 75.7998L160.398 76.3998L155.598 84.6998ZM153.398 82.2998C153.698 82.4998 153.898 82.5998 154.198 82.5998C154.498 82.5998 154.698 82.5998 154.998 82.5998C155.298 82.5998 155.498 82.3998 155.698 82.1998C155.898 81.9998 156.098 81.7998 156.298 81.4998C156.498 81.1998 156.598 80.9998 156.598 80.6998C156.698 80.3998 156.698 80.1998 156.598 79.8998C156.498 79.6998 156.398 79.3998 156.298 79.1998C156.198 78.9998 155.898 78.7998 155.698 78.5998C155.398 78.3998 155.198 78.2998 154.898 78.2998C154.598 78.2998 154.398 78.2998 154.098 78.2998C153.898 78.3998 153.598 78.4998 153.398 78.6998C153.198 78.8998 152.998 79.0998 152.798 79.3998C152.598 79.6998 152.498 79.8998 152.498 80.1998C152.398 80.4998 152.398 80.6998 152.498 80.9998C152.598 81.1998 152.698 81.4998 152.798 81.6998C152.898 81.9998 153.098 82.1998 153.398 82.2998Z" fill="white"/>
<path d="M160.298 80.6999L161.198 81.3999L157.798 86.3999L156.898 85.6999L160.298 80.6999ZM161.298 78.6999C161.398 78.4999 161.598 78.3999 161.798 78.3999C161.998 78.3999 162.198 78.3999 162.398 78.4999C162.598 78.5999 162.698 78.7999 162.698 78.9999C162.698 79.1999 162.698 79.3999 162.598 79.5999C162.498 79.7999 162.298 79.8999 162.098 79.8999C161.898 79.8999 161.698 79.8999 161.498 79.7999C161.298 79.6999 161.198 79.4999 161.198 79.2999C161.098 79.0999 161.198 78.8999 161.298 78.6999Z" fill="white"/>
<path d="M162.398 83C162.798 83 163.298 83 163.698 83.2C164.098 83.3 164.498 83.5 164.798 83.8C165.198 84.1 165.398 84.3 165.598 84.6C165.798 84.9 165.898 85.2 165.898 85.4C165.898 85.7 165.898 85.9 165.898 86.2C165.798 86.5 165.698 86.7 165.598 86.9L163.698 89.3C163.598 89.5 163.498 89.6 163.398 89.8C163.298 90 163.198 90.1 163.098 90.2L162.298 89.6C162.498 89.3 162.598 89.1 162.798 88.8C162.398 89 161.998 89 161.598 88.9C161.198 88.8 160.898 88.6 160.498 88.4C160.298 88.2 160.098 88 159.898 87.8C159.698 87.6 159.598 87.4 159.598 87.1C159.498 86.9 159.498 86.6 159.598 86.4C159.598 86.2 159.798 85.9 159.898 85.7C160.098 85.4 160.398 85.2 160.698 85.1C160.998 85 161.298 85 161.698 85C161.998 85.1 162.398 85.2 162.798 85.4C163.198 85.6 163.498 85.8 163.898 86.1L164.598 86.6L164.798 86.4C164.898 86.3 164.998 86.1 164.998 86C164.998 85.8 165.098 85.7 164.998 85.5C164.998 85.3 164.898 85.2 164.798 85C164.698 84.8 164.598 84.7 164.398 84.5C164.198 84.4 164.098 84.3 163.898 84.2C163.698 84.1 163.598 84.1 163.398 84C163.298 84 163.098 84 162.998 84C162.898 84 162.698 84 162.598 84L162.398 83ZM163.498 86.9C163.298 86.7 163.098 86.6 162.798 86.4C162.598 86.2 162.298 86.1 162.098 86.1C161.898 86.1 161.598 86 161.398 86C161.198 86 160.998 86.1 160.898 86.3C160.698 86.6 160.598 86.8 160.698 87.1C160.798 87.4 160.998 87.6 161.298 87.9C161.498 88.1 161.798 88.2 161.998 88.3C162.198 88.4 162.498 88.3 162.698 88.3C162.898 88.2 163.098 88.2 163.298 88C163.498 87.9 163.598 87.7 163.698 87.6L163.898 87.3L163.498 86.9Z" fill="white"/>
<path d="M26.7 175.3L27.5 178.3C27.6 178.7 27.6 179 27.6 179.4C27.6 179.8 27.5 180.1 27.4 180.3C27.3 180.5 27.1 180.8 26.9 181C26.7 181.2 26.4 181.4 26 181.5C25.5 181.6 25.1 181.6 24.7 181.4C24.3 181.2 24 180.9 23.7 180.5C23.8 180.8 23.7 181 23.7 181.3C23.6 181.6 23.5 181.8 23.4 182C23.3 182.2 23.1 182.4 22.8 182.6C22.6 182.8 22.3 182.9 22 183C21.6 183.1 21.2 183.1 20.9 183C20.6 182.9 20.2 182.8 20 182.5C19.8 182.2 19.5 182 19.3 181.6C19.1 181.3 18.9 180.9 18.8 180.4L18 177.4L26.7 175.3ZM19.3 178.5L19.8 180.2C19.8 180.4 19.9 180.6 20 180.8C20.1 181 20.2 181.2 20.4 181.4C20.6 181.6 20.8 181.7 21 181.8C21.2 181.9 21.5 181.9 21.8 181.8C22.3 181.7 22.7 181.4 22.8 181C23 180.6 23 180.1 22.8 179.5L22.3 177.7L19.3 178.5ZM23.3 177.4L23.7 179C23.8 179.2 23.8 179.4 23.9 179.6C24 179.8 24.1 179.9 24.3 180.1C24.4 180.2 24.6 180.3 24.8 180.3C25 180.3 25.2 180.3 25.4 180.3C25.7 180.2 26 180 26.2 179.7C26.4 179.4 26.4 179 26.3 178.6L25.8 176.7L23.3 177.4Z" fill="white"/>
<path d="M29.1992 182.2L29.5992 183.3L25.2992 184.8C25.6992 184.8 25.9992 185 26.2992 185.2C26.5992 185.5 26.7992 185.8 26.9992 186.3C27.0992 186.6 27.0992 186.9 27.1992 187.1C27.2992 187.3 27.1992 187.6 26.9992 187.9C26.8992 188.1 26.6992 188.4 26.4992 188.6C26.2992 188.8 25.9992 189 25.5992 189.1L21.8992 190.4L21.4992 189.3L24.8992 188.1C25.1992 188 25.3992 187.9 25.4992 187.8C25.6992 187.7 25.7992 187.5 25.8992 187.4C25.9992 187.2 25.9992 187.1 25.9992 186.9C25.9992 186.7 25.9992 186.6 25.8992 186.4C25.7992 186.2 25.6992 186 25.5992 185.8C25.4992 185.6 25.2992 185.5 25.0992 185.4C24.8992 185.3 24.6992 185.3 24.3992 185.3C24.0992 185.3 23.7992 185.4 23.4992 185.5L20.5992 186.5L20.1992 185.4L29.1992 182.2Z" fill="white"/>
<path d="M27.5 190.3C27.9 190.5 28.3 190.7 28.6 191.1C28.9 191.5 29.1 191.8 29.3 192.2C29.5 192.6 29.6 193 29.6 193.3C29.6 193.6 29.6 193.9 29.5 194.2C29.4 194.5 29.3 194.7 29.1 194.9C28.9 195.1 28.7 195.2 28.5 195.3L25.7 196.5C25.5 196.6 25.3 196.7 25.2 196.7C25 196.8 24.9 196.9 24.7 196.9L24.2 196C24.5 195.9 24.7 195.7 25 195.6C24.5 195.5 24.2 195.4 23.9 195.1C23.6 194.8 23.4 194.5 23.2 194.1C23.1 193.8 23 193.6 23 193.3C23 193 23 192.8 23 192.5C23.1 192.3 23.2 192 23.3 191.9C23.5 191.7 23.7 191.6 24 191.4C24.4 191.2 24.7 191.2 25 191.2C25.3 191.3 25.6 191.4 25.9 191.6C26.2 191.8 26.4 192.1 26.7 192.4C26.9 192.7 27.1 193.1 27.3 193.5L27.6 194.3L27.8 194.2C27.9 194.1 28.1 194 28.2 193.9C28.3 193.8 28.4 193.6 28.5 193.5C28.6 193.3 28.6 193.2 28.6 193C28.6 192.8 28.5 192.6 28.4 192.4C28.3 192.2 28.2 192 28.1 191.9C28 191.8 27.9 191.6 27.8 191.6C27.7 191.6 27.6 191.4 27.4 191.4C27.3 191.3 27.2 191.3 27 191.2L27.5 190.3ZM26.6 194.2C26.5 194 26.4 193.7 26.2 193.5C26.1 193.3 25.9 193 25.7 192.9C25.5 192.7 25.3 192.6 25.1 192.5C24.9 192.4 24.7 192.4 24.5 192.5C24.2 192.6 24 192.8 24 193.1C24 193.4 24 193.7 24.2 194.1C24.3 194.4 24.5 194.6 24.7 194.8C24.9 195 25.1 195.1 25.3 195.1C25.5 195.2 25.7 195.2 25.9 195.1C26.1 195.1 26.3 195 26.5 194.9L26.9 194.7L26.6 194.2Z" fill="white"/>
<path d="M31.0015 199.4C31.1015 199.2 31.1016 199 31.1016 198.8C31.1016 198.6 31.0016 198.3 30.9016 198.1C30.8016 197.9 30.6016 197.7 30.4016 197.6C30.2016 197.5 30.0015 197.5 29.8015 197.6C29.6015 197.7 29.5015 197.8 29.5015 198C29.5015 198.2 29.4015 198.3 29.5015 198.5C29.5015 198.7 29.5016 198.8 29.6016 199C29.7016 199.2 29.7015 199.3 29.7015 199.4C29.8015 199.6 29.8015 199.9 29.8015 200.1C29.8015 200.3 29.8015 200.5 29.8015 200.8C29.8015 201 29.7015 201.2 29.5015 201.4C29.4015 201.6 29.2016 201.7 28.9016 201.9C28.6016 202.1 28.3015 202.1 28.0015 202.1C27.7015 202.1 27.5015 202 27.2015 201.9C27.0015 201.8 26.7015 201.6 26.5015 201.4C26.3015 201.2 26.1015 200.9 26.0015 200.7C25.8015 200.3 25.6016 199.8 25.6016 199.4C25.6016 199 25.6016 198.6 25.9016 198.1L26.9016 198.5C26.8016 198.8 26.8015 199 26.8015 199.3C26.8015 199.6 26.8015 199.9 27.0015 200.1C27.1015 200.2 27.1015 200.3 27.2015 200.5C27.3015 200.6 27.4015 200.7 27.5015 200.8C27.6015 200.9 27.7015 200.9 27.8015 200.9C27.9015 200.9 28.0016 200.9 28.1016 200.8C28.3016 200.7 28.3016 200.6 28.4016 200.5C28.4016 200.4 28.5015 200.2 28.5015 200C28.5015 199.8 28.5016 199.7 28.4016 199.5C28.4016 199.3 28.3015 199.2 28.3015 199.1C28.2015 198.9 28.2015 198.6 28.2015 198.4C28.2015 198.2 28.2015 197.9 28.2015 197.7C28.2015 197.5 28.3016 197.3 28.4016 197.1C28.5016 196.9 28.7015 196.8 29.0015 196.6C29.3015 196.5 29.6015 196.4 29.8015 196.4C30.0015 196.4 30.3016 196.5 30.6016 196.6C30.8016 196.7 31.1015 196.9 31.2015 197.1C31.3015 197.3 31.6015 197.5 31.7015 197.8C31.9015 198.2 32.0015 198.5 32.0015 198.9C32.0015 199.3 32.0015 199.7 31.7015 200L31.0015 199.4Z" fill="white"/>
<path d="M36.4984 198.9L37.0984 199.9L33.2984 202.3C33.6984 202.3 33.9984 202.3 34.3984 202.5C34.7984 202.7 35.0984 203 35.2984 203.4C35.4984 203.6 35.5984 203.9 35.5984 204.2C35.5984 204.5 35.6984 204.7 35.5984 205C35.4984 205.3 35.3984 205.5 35.1984 205.8C34.9984 206.1 34.7984 206.3 34.3984 206.5L31.0984 208.6L30.4984 207.6L33.4984 205.7C33.6984 205.6 33.8984 205.4 34.0984 205.2C34.1984 205 34.2984 204.9 34.2984 204.7C34.2984 204.5 34.2984 204.4 34.2984 204.2C34.2984 204 34.1984 203.9 34.0984 203.7C33.9984 203.5 33.7984 203.3 33.6984 203.2C33.5984 203.1 33.2984 203 33.0984 202.9C32.8984 202.9 32.5984 202.9 32.3984 202.9C32.0984 203 31.8984 203.1 31.5984 203.3L28.9984 204.9L28.3984 203.9L36.4984 198.9Z" fill="white"/>
<path d="M36.6016 207.1C37.0016 207.2 37.4015 207.4 37.8015 207.6C38.2015 207.9 38.5015 208.2 38.7015 208.5C39.0015 208.9 39.1015 209.2 39.2015 209.5C39.3015 209.8 39.3015 210.1 39.3015 210.4C39.3015 210.7 39.2015 210.9 39.0015 211.1C38.8015 211.3 38.7015 211.5 38.5015 211.7L36.0015 213.5C35.8015 213.6 35.7015 213.7 35.5015 213.9C35.4015 214 35.2016 214.1 35.1016 214.2L34.5015 213.4C34.7015 213.2 35.0015 213 35.2015 212.8C34.7015 212.8 34.3015 212.7 34.0015 212.6C33.7015 212.4 33.4016 212.1 33.1016 211.8C32.9016 211.6 32.8015 211.3 32.7015 211.1C32.6015 210.8 32.6016 210.6 32.6016 210.4C32.6016 210.2 32.7015 209.9 32.8015 209.7C32.9015 209.5 33.1015 209.3 33.3015 209.1C33.6015 208.9 33.9015 208.7 34.2015 208.7C34.5015 208.7 34.8016 208.7 35.1016 208.9C35.4016 209 35.7015 209.3 36.0015 209.5C36.3015 209.8 36.6016 210.1 36.9016 210.5L37.4016 211.2L37.6016 211C37.7016 210.9 37.8016 210.8 37.9016 210.7C38.0016 210.6 38.0016 210.4 38.1016 210.2C38.1016 210 38.1016 209.9 38.1016 209.7C38.1016 209.5 38.0015 209.3 37.8015 209.1C37.7015 208.9 37.5016 208.8 37.4016 208.7C37.3016 208.6 37.1015 208.5 37.0015 208.4C36.9015 208.3 36.7016 208.3 36.6016 208.2C36.5016 208.1 36.3015 208.1 36.2015 208.1L36.6016 207.1ZM36.6016 211.2C36.4016 211 36.3016 210.8 36.1016 210.6C35.9016 210.4 35.7015 210.2 35.5015 210.1C35.3015 210 35.1016 209.9 34.9016 209.8C34.7016 209.8 34.5015 209.8 34.3015 210C34.0015 210.2 33.9016 210.4 33.9016 210.7C33.9016 211 34.0015 211.3 34.3015 211.6C34.5015 211.9 34.7016 212 34.9016 212.2C35.1016 212.4 35.3016 212.4 35.6016 212.4C35.8016 212.4 36.0015 212.4 36.2015 212.3C36.4015 212.2 36.6015 212.1 36.8015 212L37.1016 211.8L36.6016 211.2Z" fill="white"/>
<path d="M44.4 218C44.4 217.8 44.4 217.6 44.4 217.3C44.4 217.1 44.2 216.9 44 216.6C43.8 216.4 43.6 216.3 43.4 216.2C43.2 216.1 43 216.2 42.8 216.3C42.7 216.4 42.6 216.6 42.6 216.7C42.6 216.9 42.6 217 42.7 217.2C42.8 217.4 42.8 217.5 42.9 217.7C43 217.9 43.1 218 43.1 218.1C43.2 218.3 43.3 218.5 43.4 218.8C43.5 219.1 43.5 219.2 43.5 219.4C43.5 219.6 43.5 219.8 43.4 220C43.3 220.2 43.2 220.4 43 220.6C42.7 220.8 42.5 221 42.2 221C41.9 221.1 41.7 221.1 41.4 221C41.1 220.9 40.9 220.8 40.6 220.6C40.4 220.4 40.1 220.2 39.9 220C39.6 219.6 39.3 219.3 39.2 218.9C39.1 218.5 39 218.1 39.1 217.6L40.2 217.8C40.2 218.1 40.2 218.3 40.3 218.6C40.3 218.9 40.5 219.1 40.7 219.4C40.8 219.5 40.9 219.6 41 219.7C41.1 219.8 41.2 219.9 41.4 219.9C41.5 219.9 41.6 220 41.8 219.9C42 219.8 42 219.8 42.1 219.8C42.2 219.7 42.3 219.6 42.3 219.4C42.3 219.2 42.3 219.1 42.2 218.9C42.1 218.7 42.1 218.6 42 218.4C41.9 218.3 41.8 218.1 41.8 218C41.7 217.8 41.6 217.6 41.5 217.3C41.4 217 41.3 216.9 41.3 216.7C41.3 216.5 41.3 216.3 41.4 216.1C41.5 215.9 41.6 215.7 41.8 215.5C42 215.3 42.3 215.2 42.5 215.1C42.7 215 43 215 43.3 215.1C43.6 215.2 43.8 215.3 44.1 215.4C44.3 215.6 44.6 215.7 44.7 215.9C45 216.2 45.2 216.5 45.3 216.9C45.4 217.3 45.5 217.7 45.3 218.1L44.4 218Z" fill="white"/>
<path d="M46.7008 219.2C47.1008 219.2 47.6008 219.3 48.0008 219.5C48.4008 219.7 48.8008 219.9 49.1008 220.2C49.4008 220.5 49.7008 220.8 49.8008 221.1C50.0008 221.4 50.0008 221.7 50.1008 222C50.1008 222.3 50.1008 222.5 50.0008 222.8C49.9008 223 49.8008 223.3 49.6008 223.5L47.5008 225.7C47.4008 225.9 47.2008 226 47.1008 226.1C47.0008 226.2 46.9008 226.4 46.8008 226.5L46.1008 225.8C46.3008 225.6 46.5008 225.3 46.7008 225.1C46.2008 225.2 45.8008 225.2 45.5008 225.1C45.1008 225 44.8008 224.8 44.5008 224.4C44.3008 224.2 44.1008 224 44.0008 223.8C43.9008 223.6 43.8008 223.3 43.8008 223.1C43.8008 222.9 43.8008 222.6 43.9008 222.4C44.0008 222.2 44.1008 221.9 44.3008 221.7C44.6008 221.4 44.9008 221.2 45.2008 221.2C45.5008 221.1 45.8008 221.1 46.2008 221.2C46.6008 221.3 46.9008 221.4 47.2008 221.7C47.5008 221.9 47.9008 222.2 48.2008 222.5L48.8008 223.1L49.0008 222.9C49.1008 222.8 49.2008 222.7 49.3008 222.5C49.4008 222.3 49.4008 222.2 49.4008 222C49.4008 221.8 49.4008 221.7 49.3008 221.5C49.2008 221.3 49.1008 221.2 48.9008 221C48.7008 220.8 48.6008 220.7 48.4008 220.6C48.3008 220.5 48.1008 220.5 48.0008 220.4C47.9008 220.3 47.7008 220.3 47.6008 220.3C47.5008 220.3 47.3008 220.3 47.2008 220.3L46.7008 219.2ZM47.4008 223.2C47.2008 223 47.0008 222.8 46.8008 222.7C46.6008 222.5 46.3008 222.4 46.1008 222.3C45.9008 222.2 45.7008 222.2 45.4008 222.2C45.2008 222.2 45.0008 222.3 44.8008 222.5C44.6008 222.8 44.5008 223 44.5008 223.3C44.6008 223.6 44.7008 223.8 45.0008 224.1C45.2008 224.3 45.5008 224.5 45.7008 224.5C45.9008 224.6 46.2008 224.6 46.4008 224.6C46.6008 224.6 46.8008 224.5 47.0008 224.4C47.2008 224.3 47.4008 224.2 47.5008 224L47.8008 223.7L47.4008 223.2Z" fill="white"/>
<path d="M51.7984 223.1L52.5984 223.8L51.9984 224.5C52.0984 224.4 52.1984 224.4 52.3984 224.4C52.5984 224.4 52.6984 224.4 52.8984 224.4C53.0984 224.4 53.2984 224.5 53.4984 224.5C53.6984 224.6 53.8984 224.7 54.1984 224.9C54.5984 225.2 54.7984 225.5 54.8984 225.8C54.9984 226.1 55.0984 226.5 54.9984 226.9C55.3984 226.7 55.7984 226.7 56.1984 226.7C56.5984 226.8 56.8984 226.9 57.1984 227.1C57.5984 227.4 57.7984 227.7 57.9984 228C58.0984 228.3 58.1984 228.6 58.1984 228.9C58.1984 229.2 58.0984 229.5 57.9984 229.8C57.8984 230.1 57.6984 230.4 57.4984 230.6L55.2984 233.4L54.3984 232.7L56.4984 230C56.5984 229.8 56.7984 229.6 56.8984 229.4C56.9984 229.2 57.0984 229 57.0984 228.8C57.0984 228.6 57.0984 228.4 56.9984 228.3C56.8984 228.1 56.7984 227.9 56.5984 227.8C56.1984 227.5 55.6984 227.3 55.3984 227.5C54.9984 227.6 54.5984 227.9 54.2984 228.3L52.2984 230.9L51.3984 230.2L53.2984 227.7C53.4984 227.5 53.5984 227.3 53.7984 227C53.9984 226.7 53.9984 226.6 53.9984 226.4C53.9984 226.2 53.9984 226 53.9984 225.8C53.8984 225.6 53.7984 225.4 53.5984 225.3C53.3984 225.2 53.2984 225.1 53.0984 225C52.8984 224.9 52.6984 224.9 52.4984 225C52.2984 225 52.0984 225.1 51.7984 225.3C51.5984 225.4 51.3984 225.7 51.1984 225.9L49.2984 228.4L48.3984 227.7L51.7984 223.1Z" fill="white"/>
<path d="M59.9984 230.2C60.3984 230.1 60.8984 230.1 61.2984 230.2C61.6984 230.3 62.0984 230.5 62.4984 230.7C62.8984 230.9 63.1984 231.2 63.3984 231.5C63.5984 231.8 63.7984 232 63.7984 232.3C63.8984 232.6 63.8984 232.8 63.7984 233.1C63.7984 233.4 63.6984 233.6 63.4984 233.8L61.7984 236.4C61.6984 236.6 61.5984 236.7 61.4984 236.9C61.3984 237.1 61.2984 237.2 61.2984 237.4L60.3984 236.9C60.4984 236.6 60.6984 236.4 60.8984 236.1C60.4984 236.3 60.0984 236.4 59.6984 236.3C59.2984 236.2 58.8984 236.1 58.4984 235.9C58.2984 235.7 58.0984 235.6 57.8984 235.4C57.6984 235.2 57.5984 235 57.4984 234.8C57.3984 234.6 57.3984 234.3 57.3984 234.1C57.3984 233.9 57.4984 233.6 57.6984 233.3C57.8984 233 58.1984 232.7 58.3984 232.6C58.6984 232.5 58.9984 232.4 59.2984 232.4C59.5984 232.4 59.9984 232.5 60.3984 232.7C60.7984 232.9 61.1984 233.1 61.5984 233.3L62.2984 233.8L62.3984 233.6C62.4984 233.5 62.4984 233.3 62.5984 233.2C62.5984 233 62.5984 232.9 62.5984 232.7C62.5984 232.5 62.4984 232.4 62.3984 232.2C62.2984 232 62.0984 231.9 61.8984 231.8C61.6984 231.7 61.4984 231.6 61.3984 231.5C61.2984 231.4 61.0984 231.4 60.8984 231.4C60.7984 231.4 60.5984 231.4 60.4984 231.4C60.3984 231.4 60.1984 231.4 60.0984 231.4L59.9984 230.2ZM61.4984 234C61.2984 233.9 60.9984 233.7 60.7984 233.6C60.4984 233.5 60.2984 233.4 59.9984 233.3C59.7984 233.2 59.4984 233.2 59.2984 233.3C59.0984 233.3 58.8984 233.5 58.7984 233.7C58.5984 234 58.5984 234.3 58.6984 234.5C58.7984 234.8 58.9984 235 59.3984 235.2C59.6984 235.4 59.8984 235.5 60.1984 235.5C60.3984 235.5 60.6984 235.5 60.8984 235.4C61.0984 235.3 61.2984 235.2 61.4984 235.1C61.6984 235 61.7984 234.8 61.8984 234.6L62.0984 234.3L61.4984 234Z" fill="white"/>
<path d="M65.9 233L66.9 233.6L66.5 234.4C66.6 234.3 66.8 234.2 67 234.2C67.2 234.1 67.4 234.1 67.5 234.1C67.7 234.1 67.9 234.1 68.1 234.2C68.3 234.2 68.5 234.3 68.6 234.4C68.7 234.5 68.9 234.6 69 234.7L68.4 235.8C68.3 235.7 68.3 235.7 68.2 235.6C68.1 235.5 68 235.5 68 235.4C67.5 235.1 67.1 235.1 66.6 235.2C66.2 235.3 65.8 235.7 65.5 236.3L64 239L63 238.4L65.9 233Z" fill="white"/>
<path d="M72.4992 237.5L70.9992 236.8L69.7992 239.3C69.6992 239.5 69.6992 239.6 69.5992 239.8C69.4992 240 69.4992 240.1 69.4992 240.2C69.4992 240.3 69.4992 240.5 69.5992 240.6C69.6992 240.7 69.7992 240.8 69.9992 240.9C70.0992 241 70.2992 241 70.3992 241C70.4992 241 70.6992 241.1 70.7992 241L70.2992 241.9C70.0992 241.9 69.9992 241.9 69.7992 241.8C69.5992 241.7 69.3992 241.7 69.2992 241.6C68.8992 241.4 68.5992 241.2 68.4992 241C68.2992 240.8 68.1992 240.6 68.1992 240.3C68.1992 240.1 68.1992 239.8 68.2992 239.6C68.3992 239.4 68.4992 239.1 68.5992 238.9L69.9992 236.1L68.7992 235.5L69.1992 234.6L70.3992 235.2L71.0992 233.7L72.0992 234.2L71.3992 235.7L72.8992 236.4L72.4992 237.5Z" fill="white"/>
<path d="M75.5008 233.8L76.6008 234.2L74.9008 238.4C75.2008 238.2 75.5008 238 75.9008 238C76.3008 237.9 76.7008 238 77.2008 238.2C77.5008 238.3 77.7008 238.5 77.9008 238.6C78.1008 238.8 78.3008 239 78.4008 239.2C78.5008 239.4 78.6008 239.7 78.6008 240C78.6008 240.3 78.5008 240.7 78.4008 241L76.9008 244.6L75.8008 244.2L77.1008 240.9C77.2008 240.6 77.3008 240.4 77.3008 240.2C77.3008 240 77.3008 239.8 77.2008 239.6C77.1008 239.4 77.0008 239.3 76.9008 239.2C76.8008 239.1 76.6008 239 76.5008 238.9C76.3008 238.8 76.1008 238.8 75.8008 238.8C75.6008 238.8 75.4008 238.8 75.2008 238.9C75.0008 239 74.8008 239.1 74.6008 239.4C74.4008 239.6 74.3008 239.9 74.1008 240.2L72.9008 243.1L71.8008 242.7L75.5008 233.8Z" fill="white"/>
<path d="M80.4984 240.4C80.8984 240.2 81.2984 240.1 81.7984 240.1C82.2984 240.1 82.6985 240.1 83.0985 240.3C83.4985 240.4 83.8985 240.6 84.0985 240.8C84.3985 241 84.5985 241.2 84.6985 241.5C84.7985 241.7 84.8985 242 84.8985 242.3C84.8985 242.6 84.8984 242.8 84.7984 243.1L83.8985 246C83.7985 246.2 83.7985 246.4 83.6985 246.6C83.6985 246.8 83.5985 246.9 83.5985 247.1L82.5985 246.8C82.6985 246.5 82.6984 246.2 82.7984 245.9C82.3984 246.2 82.0985 246.4 81.6985 246.4C81.2985 246.4 80.8984 246.4 80.4984 246.3C80.1984 246.2 79.9984 246.1 79.7984 245.9C79.5984 245.7 79.3984 245.6 79.2984 245.4C79.1984 245.2 79.0984 245 78.9984 244.7C78.8984 244.4 78.9985 244.2 79.0985 243.9C79.1985 243.5 79.3985 243.2 79.5985 243C79.7985 242.8 80.0984 242.7 80.4984 242.6C80.7984 242.5 81.1985 242.5 81.5985 242.6C81.9985 242.7 82.3985 242.7 82.8985 242.9L83.6985 243.2L83.7984 243C83.7984 242.9 83.8985 242.7 83.8985 242.5C83.8985 242.3 83.7984 242.2 83.7984 242C83.6984 241.8 83.5984 241.7 83.4984 241.6C83.3984 241.5 83.1985 241.4 82.8985 241.3C82.6985 241.2 82.4984 241.2 82.2984 241.2C82.0984 241.2 81.9984 241.2 81.7984 241.2C81.6984 241.2 81.4985 241.3 81.3985 241.3C81.2985 241.3 81.0984 241.4 80.9984 241.4L80.4984 240.4ZM82.8985 243.7C82.5985 243.6 82.3985 243.5 82.0985 243.5C81.7985 243.4 81.5984 243.4 81.2984 243.4C81.0984 243.4 80.7985 243.5 80.5985 243.6C80.3985 243.7 80.2985 243.9 80.1985 244.1C80.0985 244.4 80.0984 244.7 80.2984 244.9C80.4984 245.1 80.7985 245.3 81.0985 245.4C81.3985 245.5 81.6985 245.5 81.8985 245.5C82.0985 245.5 82.3984 245.4 82.4984 245.3C82.6984 245.2 82.7984 245 82.9984 244.8C83.1984 244.6 83.1984 244.4 83.2984 244.2L83.3985 243.8L82.8985 243.7Z" fill="white"/>
<path d="M87.7 238.1L88.8 238.4L87.4 244.5L90.5 242.5L92.1 242.9L88.7 244.9L90.9 248.8L89.3 248.4L87.3 244.7L86.6 247.8L85.5 247.5L87.7 238.1Z" fill="white"/>
<path d="M96.6 245.1C96.6 244.8 96.7 244.5 96.9 244.2C97 243.9 97.2 243.7 97.5 243.5C97.8 243.3 98 243.2 98.3 243.1C98.6 243 98.9 243 99.2 243C99.5 243 99.8 243.1 100.1 243.3C100.4 243.5 100.6 243.6 100.8 243.9C101 244.2 101.1 244.4 101.2 244.7C101.3 245 101.3 245.3 101.3 245.6C101.3 245.9 101.2 246.2 101 246.5C100.9 246.8 100.7 247 100.4 247.2C100.1 247.4 99.9 247.5 99.6 247.6C99.3 247.7 99 247.7 98.7 247.7C98.4 247.7 98.1 247.6 97.8 247.4C97.5 247.2 97.3 247.1 97.1 246.8C96.9 246.6 96.8 246.3 96.7 246C96.6 245.7 96.5 245.4 96.6 245.1Z" fill="white"/>
<path d="M106.802 241.5L110.002 241.6C110.602 241.6 111.102 241.7 111.402 241.9C111.802 242.1 112.102 242.3 112.302 242.5C112.502 242.7 112.702 243 112.702 243.3C112.802 243.6 112.802 243.9 112.802 244.2C112.802 244.5 112.702 244.8 112.702 245.1C112.602 245.4 112.502 245.7 112.202 245.9C111.902 246.1 111.702 246.3 111.302 246.5C110.902 246.7 110.402 246.7 109.902 246.7H107.902L107.802 250.7H106.602L106.802 241.5ZM107.902 245.5H109.502C109.702 245.5 110.002 245.5 110.202 245.5C110.402 245.5 110.602 245.4 110.802 245.3C111.002 245.2 111.102 245.1 111.202 244.9C111.302 244.7 111.402 244.5 111.402 244.2C111.402 243.9 111.402 243.6 111.202 243.5C111.102 243.3 110.902 243.2 110.802 243.1C110.602 243 110.402 242.9 110.202 242.9C110.002 242.9 109.702 242.8 109.502 242.8H107.902V245.5Z" fill="white"/>
<path d="M113.801 240.8L114.901 240.7L115.501 250.3L114.401 250.4L113.801 240.8Z" fill="white"/>
<path d="M117 244.9C117.3 244.6 117.6 244.3 118 244.1C118.4 243.9 118.8 243.8 119.2 243.7C119.6 243.7 120 243.7 120.4 243.7C120.8 243.7 121 243.9 121.2 244.1C121.4 244.3 121.6 244.5 121.7 244.7C121.8 244.9 121.9 245.2 121.9 245.4L122.2 248.5C122.2 248.7 122.2 248.9 122.3 249.1C122.3 249.3 122.4 249.4 122.4 249.6L121.4 249.7C121.3 249.4 121.3 249.1 121.3 248.8C121.1 249.2 120.8 249.5 120.5 249.7C120.2 249.9 119.8 250 119.3 250.1C119 250.1 118.8 250.1 118.5 250.1C118.2 250.1 118 250 117.8 249.8C117.6 249.6 117.4 249.5 117.3 249.3C117.2 249.1 117.1 248.8 117 248.5C117 248.1 117 247.8 117.1 247.5C117.2 247.2 117.5 247 117.7 246.8C118 246.6 118.3 246.4 118.7 246.3C119.1 246.2 119.5 246.1 120 246L120.8 245.9V245.6C120.8 245.4 120.7 245.3 120.7 245.2C120.6 245.1 120.5 244.9 120.4 244.8C120.3 244.7 120.1 244.6 119.9 244.6C119.7 244.6 119.5 244.5 119.3 244.6C119.1 244.6 118.9 244.7 118.7 244.7C118.5 244.8 118.4 244.8 118.3 244.9C118.2 245 118.1 245.1 118 245.2C117.9 245.3 117.8 245.4 117.7 245.5L117 244.9ZM120.4 247C120.1 247 119.9 247.1 119.6 247.1C119.3 247.2 119.1 247.2 118.8 247.4C118.5 247.6 118.4 247.6 118.3 247.8C118.2 248 118.1 248.2 118.1 248.4C118.1 248.7 118.3 249 118.5 249.1C118.7 249.2 119.1 249.3 119.5 249.2C119.8 249.2 120.1 249.1 120.3 249C120.5 248.9 120.7 248.7 120.8 248.5C120.9 248.3 121 248.1 121 247.9C121 247.7 121 247.5 121 247.3V246.9L120.4 247Z" fill="white"/>
<path d="M126.7 243.8L125.1 244.1L125.6 246.8C125.6 247 125.7 247.1 125.7 247.3C125.7 247.5 125.8 247.6 125.9 247.7C126 247.8 126.1 247.9 126.2 248C126.3 248.1 126.5 248.1 126.7 248C126.8 248 127 247.9 127.1 247.9C127.2 247.8 127.4 247.8 127.5 247.7L127.7 248.7C127.6 248.8 127.4 248.9 127.2 248.9C127 249 126.8 249 126.7 249C126.3 249.1 125.9 249.1 125.7 249C125.4 248.9 125.2 248.8 125.1 248.6C125 248.4 124.8 248.2 124.8 248C124.7 247.8 124.7 247.5 124.6 247.3L124 244.2L122.7 244.4L122.5 243.4L123.8 243.2L123.5 241.5L124.6 241.3L124.9 243L126.5 242.7L126.7 243.8Z" fill="white"/>
<path d="M127.301 240.5C127.301 240.3 127.301 240.1 127.401 239.9C127.501 239.7 127.701 239.6 127.901 239.5C128.101 239.5 128.301 239.5 128.501 239.6C128.701 239.7 128.801 239.9 128.901 240.1C128.901 240.3 128.901 240.5 128.801 240.7C128.701 240.9 128.501 241 128.301 241.1C128.101 241.1 127.901 241.1 127.701 241C127.501 240.9 127.301 240.7 127.301 240.5ZM128.001 242.5L129.101 242.3L130.401 248.2L129.301 248.4L128.001 242.5Z" fill="white"/>
<path d="M130.801 242L131.801 241.7L132.101 242.6C132.101 242.5 132.101 242.4 132.201 242.2C132.301 242 132.401 241.9 132.501 241.7C132.601 241.5 132.801 241.4 133.001 241.2C133.201 241.1 133.401 240.9 133.701 240.9C134.101 240.8 134.501 240.7 134.901 240.8C135.301 240.9 135.601 241.1 135.901 241.4C136.001 241 136.201 240.6 136.401 240.4C136.701 240.1 137.001 239.9 137.401 239.8C137.801 239.7 138.201 239.6 138.601 239.7C138.901 239.8 139.201 239.9 139.401 240.1C139.601 240.3 139.801 240.5 140.001 240.8C140.201 241.1 140.301 241.4 140.401 241.7L141.401 245.1L140.301 245.4L139.301 242.2C139.201 242 139.201 241.8 139.101 241.6C139.001 241.4 138.901 241.2 138.801 241.1C138.701 241 138.501 240.9 138.301 240.8C138.101 240.8 137.901 240.8 137.601 240.9C137.101 241.1 136.701 241.3 136.601 241.7C136.501 242.1 136.501 242.5 136.601 243.1L137.601 246.3L136.501 246.6L135.601 243.6C135.501 243.3 135.401 243.1 135.301 242.9C135.201 242.7 135.101 242.5 134.901 242.4C134.701 242.3 134.601 242.2 134.401 242.1C134.201 242.1 134.001 242.1 133.701 242.2C133.501 242.3 133.301 242.4 133.201 242.5C133.001 242.6 132.901 242.8 132.801 243C132.701 243.2 132.701 243.4 132.701 243.7C132.701 244 132.701 244.3 132.801 244.6L133.701 247.6L132.601 247.9L130.801 242Z" fill="white"/>
<path d="M148.3 242.2L147.2 242.6L146.8 241.7C146.8 242.1 146.7 242.4 146.4 242.7C146.1 243 145.8 243.3 145.4 243.5C145.1 243.6 144.9 243.7 144.6 243.7C144.3 243.7 144.1 243.7 143.8 243.6C143.5 243.5 143.3 243.3 143.1 243.1C142.9 242.9 142.7 242.6 142.5 242.2L141 238.6L142.1 238.2L143.5 241.5C143.6 241.8 143.7 242 143.9 242.1C144 242.3 144.2 242.4 144.4 242.4C144.6 242.5 144.7 242.5 144.9 242.5C145.1 242.5 145.2 242.4 145.4 242.4C145.6 242.3 145.8 242.2 146 242C146.2 241.8 146.3 241.7 146.4 241.5C146.5 241.3 146.5 241 146.5 240.8C146.5 240.5 146.4 240.2 146.3 239.9L145.1 237L146.2 236.6L148.3 242.2Z" fill="white"/>
<path d="M147.398 236L148.298 235.5L148.798 236.3C148.798 236.2 148.798 236.1 148.798 235.9C148.798 235.7 148.898 235.6 148.998 235.4C149.098 235.2 149.198 235 149.398 234.9C149.598 234.7 149.798 234.6 149.998 234.4C150.398 234.2 150.798 234.1 151.098 234.1C151.498 234.1 151.798 234.2 152.198 234.5C152.198 234.1 152.298 233.7 152.498 233.4C152.698 233.1 152.998 232.8 153.298 232.6C153.698 232.4 154.098 232.3 154.398 232.3C154.698 232.3 154.998 232.4 155.298 232.5C155.598 232.6 155.798 232.8 155.998 233.1C156.198 233.4 156.398 233.6 156.598 233.9L158.298 237L157.298 237.6L155.698 234.6C155.598 234.4 155.498 234.2 155.298 234C155.198 233.8 154.998 233.7 154.898 233.6C154.698 233.5 154.598 233.5 154.398 233.4C154.198 233.3 153.998 233.5 153.698 233.6C153.198 233.9 152.898 234.2 152.898 234.6C152.898 235 152.998 235.5 153.198 235.9L154.798 238.8L153.798 239.4L152.298 236.6C152.198 236.3 151.998 236.1 151.898 235.9C151.798 235.7 151.598 235.6 151.398 235.4C151.198 235.3 151.098 235.2 150.898 235.2C150.698 235.2 150.498 235.3 150.198 235.4C149.998 235.5 149.898 235.6 149.698 235.8C149.498 236 149.498 236.1 149.398 236.4C149.398 236.6 149.298 236.8 149.398 237.1C149.498 237.4 149.598 237.6 149.698 237.9L151.198 240.7L150.198 241.3L147.398 236Z" fill="white"/>
<path d="M164.198 224C163.798 223.9 163.398 223.9 162.998 224C162.598 224.1 162.198 224.3 161.898 224.5C161.498 224.8 161.198 225.2 160.998 225.6C160.798 226 160.698 226.4 160.598 226.9C160.598 227.3 160.598 227.8 160.798 228.2C160.898 228.7 161.198 229.1 161.498 229.5C161.798 229.9 162.098 230.2 162.498 230.4C162.898 230.6 163.298 230.8 163.698 230.9C164.098 231 164.598 231 164.998 230.9C165.398 230.8 165.898 230.6 166.298 230.3C166.698 230 166.998 229.6 167.198 229.2C167.398 228.8 167.498 228.4 167.398 227.9H168.698C168.698 228 168.698 228.2 168.698 228.4C168.698 228.6 168.598 228.9 168.498 229.2C168.398 229.5 168.198 229.8 167.998 230.2C167.798 230.5 167.398 230.9 166.998 231.2C166.398 231.6 165.798 231.9 165.198 232C164.598 232.1 163.998 232.1 163.398 232C162.798 231.9 162.298 231.7 161.798 231.4C161.298 231.1 160.898 230.7 160.498 230.2C160.098 229.6 159.798 229.1 159.598 228.5C159.398 227.9 159.398 227.3 159.398 226.7C159.398 226.1 159.698 225.5 159.998 225C160.298 224.5 160.798 224 161.298 223.6C161.798 223.2 162.298 223 162.898 222.8C163.498 222.6 164.098 222.6 164.698 222.8L164.198 224Z" fill="white"/>
<path d="M168.4 225.8C168.1 225.5 167.9 225.1 167.7 224.7C167.6 224.3 167.5 223.9 167.5 223.5C167.5 223.1 167.6 222.7 167.8 222.3C168 221.9 168.2 221.6 168.6 221.3C168.9 221 169.3 220.8 169.7 220.6C170.1 220.4 170.5 220.4 170.9 220.4C171.3 220.4 171.7 220.5 172.1 220.7C172.5 220.9 172.8 221.1 173.1 221.4C173.4 221.7 173.6 222.1 173.8 222.5C173.9 222.9 174 223.3 174 223.7C174 224.1 173.9 224.5 173.7 224.9C173.5 225.3 173.3 225.6 172.9 225.9C172.6 226.2 172.2 226.4 171.8 226.6C171.4 226.8 171 226.8 170.6 226.8C170.2 226.8 169.8 226.7 169.4 226.5C169 226.3 168.7 226.1 168.4 225.8ZM169.3 224.9C169.5 225.1 169.7 225.3 170 225.4C170.2 225.5 170.5 225.6 170.7 225.6C170.9 225.6 171.2 225.6 171.5 225.5C171.8 225.4 172 225.3 172.2 225.1C172.4 224.9 172.6 224.7 172.7 224.4C172.8 224.2 172.9 223.9 172.9 223.7C172.9 223.5 172.8 223.2 172.7 222.9C172.6 222.6 172.4 222.4 172.2 222.2C172 222 171.8 221.8 171.5 221.7C171.3 221.6 171 221.5 170.8 221.5C170.6 221.5 170.3 221.5 170 221.6C169.7 221.7 169.5 221.8 169.3 222C169.1 222.2 168.9 222.4 168.8 222.7C168.7 223 168.6 223.2 168.6 223.4C168.6 223.6 168.7 223.9 168.8 224.2C168.9 224.5 169.1 224.7 169.3 224.9Z" fill="white"/>
<path d="M172 218.2L172.8 217.4L173.5 218C173.4 217.7 173.3 217.3 173.4 216.9C173.5 216.5 173.7 216.1 174 215.8C174.2 215.6 174.4 215.4 174.7 215.3C174.9 215.2 175.2 215.1 175.5 215.1C175.8 215.1 176.1 215.1 176.4 215.2C176.7 215.3 177 215.5 177.3 215.8L180.2 218.4L179.4 219.2L176.8 216.8C176.6 216.6 176.4 216.5 176.2 216.4C176 216.3 175.8 216.3 175.6 216.3C175.4 216.3 175.3 216.4 175.1 216.4C174.9 216.5 174.8 216.6 174.7 216.7C174.5 216.9 174.4 217.1 174.3 217.3C174.2 217.5 174.2 217.7 174.2 217.9C174.2 218.1 174.3 218.4 174.4 218.6C174.5 218.8 174.7 219.1 175 219.3L177.3 221.4L176.5 222.2L172 218.2Z" fill="white"/>
<path d="M179.5 211.1L178.5 212.4L180.6 214.1C180.7 214.2 180.9 214.3 181 214.4C181.1 214.5 181.3 214.6 181.4 214.6C181.5 214.6 181.7 214.6 181.8 214.6C181.9 214.6 182.1 214.5 182.2 214.3C182.3 214.2 182.4 214.1 182.4 213.9C182.5 213.8 182.5 213.6 182.5 213.5L183.3 214.2C183.3 214.4 183.2 214.5 183.1 214.7C183 214.9 182.9 215 182.8 215.1C182.5 215.4 182.3 215.7 182 215.8C181.7 215.9 181.5 216 181.3 215.9C181.1 215.9 180.9 215.8 180.7 215.6C180.5 215.5 180.3 215.3 180.1 215.2L177.6 213.2L176.8 214.2L176 213.6L176.8 212.6L175.5 211.5L176.2 210.6L177.5 211.7L178.5 210.4L179.5 211.1Z" fill="white"/>
<path d="M179.602 209.4L180.302 208.5L181.102 209C181.002 208.8 181.002 208.7 180.902 208.5C180.902 208.3 180.902 208.1 180.902 208C180.902 207.8 181.002 207.6 181.002 207.5C181.102 207.3 181.202 207.1 181.302 207C181.402 206.8 181.502 206.7 181.702 206.6L182.702 207.4C182.602 207.5 182.602 207.5 182.502 207.6C182.402 207.7 182.402 207.7 182.302 207.8C182.002 208.3 181.802 208.7 181.902 209.1C182.002 209.5 182.302 209.9 182.802 210.3L185.302 212.1L184.602 213L179.602 209.4Z" fill="white"/>
<path d="M180.298 204.5C180.098 204.4 179.998 204.2 179.898 204C179.898 203.8 179.898 203.6 179.998 203.4C180.098 203.2 180.298 203.1 180.498 203C180.698 203 180.898 203 181.098 203.1C181.298 203.2 181.398 203.4 181.498 203.6C181.498 203.8 181.498 204 181.398 204.2C181.298 204.4 181.098 204.5 180.898 204.6C180.698 204.7 180.498 204.7 180.298 204.5ZM182.298 205.5L182.898 204.5L187.898 207.8L187.298 208.8L182.298 205.5Z" fill="white"/>
<path d="M180.801 201.3L181.401 200.3L185.301 202.5C185.101 202.2 185.101 201.8 185.101 201.4C185.101 201 185.301 200.6 185.501 200.2C185.701 199.8 186.001 199.5 186.301 199.2C186.601 199 187.001 198.8 187.401 198.7C187.801 198.6 188.201 198.6 188.601 198.7C189.001 198.8 189.401 198.9 189.801 199.1C190.201 199.3 190.501 199.6 190.801 199.9C191.101 200.2 191.201 200.6 191.401 200.9C191.501 201.3 191.601 201.7 191.501 202.1C191.501 202.5 191.301 202.9 191.101 203.3C190.901 203.7 190.601 204 190.301 204.2C190.001 204.4 189.601 204.6 189.201 204.6L190.001 205L189.401 206L180.801 201.3ZM189.901 203C190.101 202.7 190.101 202.5 190.201 202.2C190.201 201.9 190.201 201.7 190.101 201.4C190.001 201.2 189.901 200.9 189.701 200.7C189.501 200.5 189.301 200.3 189.001 200.2C188.701 200 188.501 199.9 188.201 199.9C187.901 199.9 187.701 199.9 187.401 199.9C187.201 200 186.901 200.1 186.701 200.2C186.501 200.4 186.301 200.6 186.101 200.8C185.901 201.1 185.901 201.3 185.801 201.6C185.801 201.9 185.801 202.1 185.901 202.4C186.001 202.6 186.101 202.9 186.301 203.1C186.501 203.3 186.701 203.5 187.001 203.6C187.301 203.8 187.501 203.9 187.801 203.9C188.101 203.9 188.301 203.9 188.601 203.9C188.801 203.8 189.101 203.7 189.301 203.6C189.601 203.4 189.801 203.2 189.901 203Z" fill="white"/>
<path d="M195.402 194.2L194.902 195.2L194.102 194.8C194.302 195.1 194.502 195.4 194.502 195.8C194.502 196.2 194.402 196.6 194.202 197C194.102 197.3 193.902 197.5 193.702 197.7C193.502 197.9 193.302 198.1 193.002 198.2C192.702 198.3 192.502 198.3 192.102 198.3C191.702 198.3 191.402 198.2 191.102 198L187.602 196.3L188.102 195.3L191.302 196.8C191.602 196.9 191.802 197 192.002 197C192.202 197 192.402 197 192.602 196.9C192.802 196.8 192.902 196.7 193.002 196.6C193.102 196.5 193.202 196.3 193.302 196.2C193.402 196 193.502 195.8 193.502 195.6C193.502 195.4 193.502 195.2 193.402 195C193.302 194.8 193.202 194.6 193.002 194.4C192.802 194.2 192.502 194 192.202 193.9L189.402 192.6L189.902 191.6L195.402 194.2Z" fill="white"/>
<path d="M192.7 187.4L192.1 188.9L194.7 189.9C194.9 190 195 190 195.2 190.1C195.4 190.2 195.5 190.2 195.7 190.2C195.8 190.2 196 190.2 196.1 190.1C196.2 190 196.3 189.9 196.4 189.7C196.4 189.6 196.5 189.4 196.5 189.3C196.5 189.2 196.5 189 196.5 188.9L197.5 189.3C197.5 189.5 197.5 189.6 197.5 189.9C197.5 190.2 197.4 190.3 197.4 190.4C197.2 190.8 197.1 191.1 196.9 191.3C196.7 191.5 196.5 191.6 196.3 191.6C196.1 191.6 195.8 191.6 195.6 191.6C195.4 191.6 195.1 191.5 194.9 191.4L192 190.3L191.5 191.5L190.6 191.1L191.1 189.9L189.5 189.3L189.9 188.2L191.5 188.8L192.1 187.3L192.7 187.4Z" fill="white"/>
<path d="M195.001 186.9C194.601 186.8 194.201 186.6 193.901 186.3C193.601 186 193.301 185.7 193.101 185.3C192.901 184.9 192.801 184.5 192.801 184.1C192.801 183.7 192.801 183.3 192.901 182.8C193.001 182.4 193.201 182 193.501 181.7C193.801 181.4 194.101 181.1 194.501 180.9C194.901 180.7 195.301 180.6 195.701 180.5C196.101 180.5 196.501 180.5 197.001 180.6C197.501 180.7 197.801 180.9 198.101 181.2C198.401 181.5 198.701 181.8 198.901 182.2C199.101 182.6 199.201 183 199.201 183.4C199.201 183.8 199.201 184.2 199.101 184.7C199.001 185.1 198.801 185.5 198.501 185.8C198.201 186.1 197.901 186.4 197.501 186.6C197.101 186.8 196.801 186.9 196.301 187C195.801 187.1 195.401 187.1 195.001 186.9ZM195.401 185.8C195.701 185.9 196.001 185.9 196.301 185.9C196.601 185.9 196.801 185.8 197.101 185.7C197.301 185.6 197.501 185.4 197.701 185.2C197.901 185 198.001 184.7 198.101 184.5C198.201 184.2 198.201 183.9 198.201 183.7C198.201 183.4 198.101 183.2 198.001 183C197.901 182.8 197.701 182.6 197.501 182.4C197.301 182.2 197.001 182.1 196.701 182C196.401 181.9 196.101 181.9 195.801 181.9C195.501 181.9 195.301 182 195.001 182.1C194.801 182.2 194.601 182.4 194.401 182.6C194.201 182.8 194.101 183.1 194.001 183.3C193.901 183.6 193.901 183.9 193.901 184.1C193.901 184.4 194.001 184.6 194.101 184.8C194.201 185 194.401 185.2 194.601 185.4C194.801 185.6 195.101 185.7 195.401 185.8Z" fill="white"/>
<path d="M194.301 178.6L194.601 177.5L195.501 177.7C195.401 177.6 195.201 177.5 195.101 177.3C195.001 177.1 194.901 177 194.901 176.8C194.901 176.6 194.801 176.4 194.801 176.2C194.801 176 194.801 175.8 194.801 175.6C194.801 175.4 194.901 175.3 195.001 175.1L196.201 175.4C196.201 175.5 196.101 175.6 196.101 175.7C196.101 175.8 196.001 175.9 196.001 176C195.901 176.5 195.901 177 196.201 177.4C196.501 177.8 196.901 178 197.501 178.2L200.501 178.9L200.201 180L194.301 178.6Z" fill="white"/>
<defs>
<filter id="filter0_ii" x="0" y="49" width="218" height="218" filterUnits="userSpaceOnUse" color-interpolation-filters="sRGB">
<feFlood flood-opacity="0" result="BackgroundImageFix"/>
<feBlend mode="normal" in="SourceGraphic" in2="BackgroundImageFix" result="shape"/>
<feColorMatrix in="SourceAlpha" type="matrix" values="0 0 0 0 0 0 0 0 0 0 0 0 0 0 0 0 0 0 127 0" result="hardAlpha"/>
<feOffset/>
<feGaussianBlur stdDeviation="4"/>
<feComposite in2="hardAlpha" operator="arithmetic" k2="-1" k3="1"/>
<feColorMatrix type="matrix" values="0 0 0 0 0.9875 0 0 0 0 0.722843 0 0 0 0 0.386771 0 0 0 1 0"/>
<feBlend mode="normal" in2="shape" result="effect1_innerShadow"/>
<feColorMatrix in="SourceAlpha" type="matrix" values="0 0 0 0 0 0 0 0 0 0 0 0 0 0 0 0 0 0 127 0" result="hardAlpha"/>
<feOffset/>
<feGaussianBlur stdDeviation="6"/>
<feComposite in2="hardAlpha" operator="arithmetic" k2="-1" k3="1"/>
<feColorMatrix type="matrix" values="0 0 0 0 0 0 0 0 0 0 0 0 0 0 0 0 0 0 0.2 0"/>
<feBlend mode="normal" in2="effect1_innerShadow" result="effect2_innerShadow"/>
</filter>
<filter id="filter1_i" x="59" y="108" width="100" height="100" filterUnits="userSpaceOnUse" color-interpolation-filters="sRGB">
<feFlood flood-opacity="0" result="BackgroundImageFix"/>
<feBlend mode="normal" in="SourceGraphic" in2="BackgroundImageFix" result="shape"/>
<feColorMatrix in="SourceAlpha" type="matrix" values="0 0 0 0 0 0 0 0 0 0 0 0 0 0 0 0 0 0 127 0" result="hardAlpha"/>
<feOffset/>
<feGaussianBlur stdDeviation="6"/>
<feComposite in2="hardAlpha" operator="arithmetic" k2="-1" k3="1"/>
<feColorMatrix type="matrix" values="0 0 0 0 0 0 0 0 0 0 0 0 0 0 0 0 0 0 0.4 0"/>
<feBlend mode="normal" in2="shape" result="effect1_innerShadow"/>
</filter>
<filter id="filter2_d" x="82.168" y="132" width="53.6667" height="52" filterUnits="userSpaceOnUse" color-interpolation-filters="sRGB">
<feFlood flood-opacity="0" result="BackgroundImageFix"/>
<feColorMatrix in="SourceAlpha" type="matrix" values="0 0 0 0 0 0 0 0 0 0 0 0 0 0 0 0 0 0 127 0"/>
<feOffset/>
<feGaussianBlur stdDeviation="0.5"/>
<feColorMatrix type="matrix" values="0 0 0 0 0.320833 0 0 0 0 0.320833 0 0 0 0 0.320833 0 0 0 0.25 0"/>
<feBlend mode="normal" in2="BackgroundImageFix" result="effect1_dropShadow"/>
<feBlend mode="normal" in="SourceGraphic" in2="effect1_dropShadow" result="shape"/>
</filter>
<linearGradient id="paint0_linear" x1="51.775" y1="56.4938" x2="322.848" y2="327.729" gradientUnits="userSpaceOnUse">
<stop stop-color="#F2F2F2"/>
<stop offset="1" stop-color="#3D485C"/>
</linearGradient>
<linearGradient id="paint1_linear" x1="-158.31" y1="-177.824" x2="234.09" y2="290.357" gradientUnits="userSpaceOnUse">
<stop stop-color="white"/>
<stop offset="1" stop-color="white" stop-opacity="0"/>
</linearGradient>
<linearGradient id="paint2_linear" x1="174.52" y1="212.6" x2="38.8" y2="106.52" gradientUnits="userSpaceOnUse">
<stop stop-color="white"/>
<stop offset="1" stop-color="#203A41" stop-opacity="0.4"/>
</linearGradient>
<linearGradient id="paint3_linear" x1="194.68" y1="229.4" x2="17.2" y2="90.68" gradientUnits="userSpaceOnUse">
<stop stop-color="white"/>
<stop offset="1" stop-color="#203A41" stop-opacity="0.24"/>
</linearGradient>
</defs>
</svg>
