<svg width="218" height="267" viewBox="0 0 218 267" fill="none" xmlns="http://www.w3.org/2000/svg">
<path d="M86.0098 29.7983C84.9084 29.7983 84.0273 30.669 84.0273 31.7573V50.0412C84.0273 51.1295 84.9084 52.0002 86.0098 52.0002H131.385C132.487 52.0002 133.368 51.1295 133.368 50.0412V31.7573C133.368 30.669 132.487 29.7983 131.385 29.7983H86.0098ZM129.403 44.1642C129.403 45.2526 128.522 46.1232 127.42 46.1232H90.1949C89.0935 46.1232 88.2125 45.2526 88.2125 44.1642V35.893C88.2125 34.8046 89.0935 33.934 90.1949 33.934H127.42C128.522 33.934 129.403 34.8046 129.403 35.893V44.1642Z" fill="#FFE287"/>
<path d="M140.045 0L114.918 37.8775H127.37L155.388 0H140.045Z" fill="#0FA711"/>
<path d="M127.377 0L102.473 37.8775H114.925L140.052 0H127.377Z" fill="white"/>
<path d="M114.924 0L90.0195 37.8775H102.472L127.376 0H114.924Z" fill="#FF7600"/>
<path d="M90.0177 37.8775H102.47L77.343 0H62L90.0177 37.8775Z" fill="#FF7600"/>
<path d="M102.471 37.8775H114.923L90.0184 0H77.3438L102.471 37.8775Z" fill="white"/>
<path opacity="0.5" d="M110.695 6.27979L104.469 15.6931L119.145 37.8818H127.372L129.596 34.744L110.695 6.27979Z" fill="#3E4347"/>
<path d="M114.924 37.8775H127.376L102.472 0H90.0195L114.924 37.8775Z" fill="#0FA711"/>
<g filter="url(#filter0_ii)">
<path d="M218 158C218 218.199 169.199 267 109 267C48.801 267 0 218.199 0 158C0 97.801 48.801 49 109 49C169.199 49 218 97.801 218 158Z" fill="#FDD24F" fill-opacity="0.8"/>
</g>
<path d="M214.5 158C214.5 216.266 167.266 263.5 109 263.5C50.734 263.5 3.5 216.266 3.5 158C3.5 99.734 50.734 52.5 109 52.5C167.266 52.5 214.5 99.734 214.5 158Z" stroke="#DFDFDF" stroke-width="7"/>
<path d="M214.5 158C214.5 216.266 167.266 263.5 109 263.5C50.734 263.5 3.5 216.266 3.5 158C3.5 99.734 50.734 52.5 109 52.5C167.266 52.5 214.5 99.734 214.5 158Z" stroke="url(#paint0_linear)" stroke-width="7"/>
<path d="M196 158C196 206.049 157.049 245 109 245C60.9512 245 22 206.049 22 158C22 109.951 60.9512 71 109 71C157.049 71 196 109.951 196 158Z" fill="#EEB42F"/>
<path fill-rule="evenodd" clip-rule="evenodd" d="M109 86C69.2355 86 37 118.235 37 158C37 197.764 69.2355 230 109 230C148.764 230 181 197.764 181 158C181 118.235 148.764 86 109 86ZM7 158C7 101.667 52.667 56 109 56C165.333 56 211 101.667 211 158C211 214.333 165.333 260 109 260C52.667 260 7 214.333 7 158Z" fill="#F9C54C"/>
<path d="M109 81C66.5591 81 32 115.357 32 158C32 200.643 66.357 235 109 235C151.643 235 186 200.643 186 158C186 115.357 151.441 81 109 81ZM93.6404 88.4777C93.8425 88.4777 93.8425 88.4777 93.6404 88.4777C95.0551 91.5092 97.6824 93.3281 100.31 92.7218C102.937 92.3176 105.564 90.4987 105.766 86.8609C106.171 86.8609 106.575 86.8609 106.979 86.8609C106.979 97.7743 106.171 109.496 104.958 122.228C104.756 123.441 104.756 124.654 104.756 125.866C104.352 124.856 103.948 123.643 103.543 122.228C99.2992 111.517 95.4593 99.9974 92.4278 88.6798C93.0341 88.6798 93.2362 88.4777 93.6404 88.4777ZM76.0577 94.7428C78.2808 97.3701 81.1102 98.3806 83.5354 97.168C86.3648 95.9554 87.9816 93.126 87.3753 90.0945C87.7795 89.8924 88.1837 89.8924 88.5879 89.6903C91.2152 100.199 93.8425 111.719 95.8635 124.451C96.0656 125.866 96.2677 126.877 96.6719 128.089C96.0656 127.079 95.4593 126.068 94.4488 124.856C87.5774 115.559 80.9081 105.454 75.0472 95.3491C75.2493 95.147 75.6535 94.9449 76.0577 94.7428ZM60.4961 105.656C63.3255 107.475 66.357 107.677 68.378 106.06C69.9948 104.848 70.8032 103.029 70.8032 101.21C70.8032 100.199 70.6011 99.189 69.9948 98.3806C70.399 98.1785 70.6011 97.9764 71.0052 97.7743C76.4619 107.071 81.7165 117.782 87.1732 129.302C87.7795 130.514 88.3858 131.525 88.79 132.535C87.9816 131.727 86.9711 130.919 85.9606 130.11C77.0682 122.633 67.9738 114.549 59.6877 106.465C59.8898 106.06 60.294 105.858 60.4961 105.656ZM48.3701 120.005C48.5722 120.005 48.5722 120.005 48.3701 120.005C51.6037 121.016 54.6352 120.612 56.0499 118.388C56.4541 117.782 57.4646 116.165 57.4646 114.549C57.4646 113.538 57.0604 111.921 55.8478 110.507C56.0499 110.304 56.4541 109.9 56.6562 109.698C64.336 117.378 72.2178 126.27 80.5039 135.971C81.3123 136.982 82.1207 137.79 82.9291 138.598C81.9186 137.992 80.706 137.588 79.4934 136.982C68.9843 132.131 58.0709 126.675 47.7638 121.016C47.9659 120.612 48.168 120.409 48.3701 120.005ZM40.4882 136.982C40.4882 136.982 40.4882 136.78 40.4882 136.982C43.9239 137.184 46.5512 135.971 47.5617 133.344C47.7638 132.738 47.9659 131.929 47.9659 130.717C47.9659 129.504 47.5617 127.281 45.1365 125.664C45.3386 125.26 45.5407 125.058 45.7428 124.654C55.0394 130.11 65.1444 136.577 75.4514 143.853C76.4619 144.661 77.6745 145.268 78.4829 145.874C77.4724 145.672 76.0577 145.47 74.643 145.066C63.3255 143.449 51.4016 141.024 39.8819 137.992C40.2861 137.79 40.4882 137.386 40.4882 136.982ZM37.2546 155.373C37.2546 155.373 37.2546 155.171 37.2546 155.373C40.4882 154.766 42.9134 152.745 43.1155 150.118C43.1155 149.916 43.1155 149.714 43.1155 149.31C43.1155 146.885 41.9029 144.257 38.8714 143.247C38.8714 142.843 39.0735 142.438 39.0735 142.034C49.5827 144.864 60.9003 148.703 72.8242 152.948C74.0368 153.352 75.2493 153.756 76.2598 153.958C75.0472 153.958 73.8346 154.16 72.42 154.16C61.1024 155.575 48.7743 156.181 37.0525 156.383C37.2546 156.181 37.2546 155.777 37.2546 155.373ZM38.8714 174.168C38.8714 173.966 38.8714 173.966 38.8714 174.168C41.4987 172.753 43.1155 170.732 43.1155 168.307C43.1155 168.105 43.1155 167.701 43.1155 167.499C42.7113 164.871 40.8924 162.244 37.2546 162.042C37.2546 161.638 37.2546 161.234 37.2546 160.829C48.168 160.829 59.8898 161.436 72.622 162.446C74.0367 162.648 75.2493 162.648 76.2598 162.648C75.2493 163.053 74.0367 163.457 72.622 163.861C61.9108 168.105 50.3911 171.945 39.0735 175.178C39.0735 174.976 39.0735 174.572 38.8714 174.168ZM45.3386 191.751C45.3386 191.751 45.3386 191.549 45.3386 191.751C47.1575 190.134 48.168 188.315 48.168 186.294C48.168 185.486 47.9659 184.879 47.7638 184.273C46.7533 181.848 44.3281 179.827 40.6903 180.635C40.4882 180.231 40.4882 179.827 40.2861 179.423C50.7953 176.593 62.315 174.168 74.8451 171.945C76.2598 171.743 77.2703 171.339 78.4829 171.136C77.4724 171.743 76.4619 172.349 75.2493 173.36C65.9528 180.231 55.8478 186.9 45.7428 192.963C45.7428 192.357 45.5407 192.155 45.3386 191.751ZM56.252 207.11C57.2625 205.493 57.6667 204.079 57.6667 202.462C57.6667 201.249 57.2625 200.037 56.4541 199.228C54.8373 197.207 51.8058 195.793 48.5722 197.409C48.3701 197.005 48.168 196.803 47.9659 196.399C57.2625 190.942 67.9738 185.486 79.4934 180.029C80.706 179.423 81.7165 178.816 82.727 178.412C81.9186 179.22 81.1102 180.231 80.3018 181.241C73.2283 190.336 65.1444 199.43 57.0604 207.919C56.8583 207.717 56.4541 207.514 56.252 207.11ZM70.6011 219.034C70.8032 217.822 71.0052 216.811 71.0052 215.801C71.0052 213.78 70.1969 212.163 68.7822 211.354C66.7612 209.94 63.5276 209.131 60.9003 211.759C60.4961 211.556 60.294 211.152 60.0919 210.95C67.7717 203.27 76.4619 195.186 86.1627 187.102C87.1732 186.294 87.9816 185.486 88.79 184.677C88.1837 185.688 87.7795 186.9 87.1732 188.113C82.727 198.622 77.4724 209.535 71.6115 219.64C71.4095 219.438 71.0052 219.236 70.6011 219.034ZM87.5774 226.916C87.7795 223.48 86.3648 220.853 83.9396 219.843C81.5144 219.034 78.2808 219.236 76.2598 222.268C75.8556 222.066 75.6535 221.864 75.2493 221.661C80.706 212.365 86.9711 202.26 94.2467 191.751C95.0551 190.538 95.6614 189.528 96.2677 188.719C96.0656 189.73 95.8635 191.144 95.4593 192.559C93.8425 203.877 91.4173 215.801 88.5879 227.32C88.3858 227.118 87.9816 227.118 87.5774 226.916ZM105.969 229.948C105.362 226.714 103.341 224.289 100.714 224.087C98.0866 223.885 95.0551 224.895 94.0446 228.331C93.6404 228.331 93.2362 228.129 92.832 228.129C95.6614 217.619 99.2992 206.302 103.543 194.378C103.948 193.165 104.352 191.953 104.554 190.942C104.554 192.155 104.756 193.367 104.756 194.782C106.171 206.1 106.979 218.428 107.181 230.15C106.777 230.15 106.373 230.15 105.969 229.948ZM178.927 143.449C176.299 144.864 174.48 146.885 174.48 149.31C174.48 149.512 174.48 149.916 174.48 150.118C174.885 152.745 176.703 155.373 180.341 155.575C180.341 155.979 180.341 156.383 180.341 156.787C169.63 156.787 157.706 155.979 144.974 154.766C143.559 154.564 142.346 154.564 141.336 154.564C142.346 154.16 143.559 153.756 144.974 153.352C155.685 149.108 167.205 145.268 178.522 142.236C178.724 142.64 178.724 143.045 178.927 143.449ZM172.661 125.866C172.661 125.866 172.661 126.068 172.661 125.866C170.843 127.483 169.832 129.302 169.832 131.323C169.832 132.131 170.034 132.738 170.236 133.344C171.247 135.769 173.672 137.79 177.31 137.184C177.512 137.588 177.512 137.992 177.714 138.396C167.205 141.024 155.483 143.449 142.953 145.672C141.538 145.874 140.528 146.076 139.315 146.48C140.325 145.874 141.336 145.268 142.549 144.459C151.845 137.386 161.95 130.717 172.055 124.856C172.257 125.26 172.459 125.462 172.661 125.866ZM162.152 110.709C161.142 112.325 160.535 113.942 160.535 115.357C160.535 116.57 160.94 117.782 161.748 118.591C163.365 120.612 166.194 122.026 169.428 120.409C169.63 120.814 169.832 121.016 170.034 121.42C160.535 126.675 150.026 132.131 138.304 137.184C137.092 137.79 136.081 138.194 135.071 138.801C135.879 137.992 136.688 136.982 137.698 135.971C144.974 127.079 153.058 117.984 161.344 109.698C161.546 110.102 161.95 110.304 162.152 110.709ZM147.601 98.1785C147.601 98.1785 147.803 98.3806 147.601 98.1785C147.399 99.3911 146.995 100.402 146.995 101.412C146.995 103.231 147.803 104.848 149.218 105.858C151.239 107.273 154.472 108.081 157.1 105.656C157.302 105.858 157.706 106.262 157.908 106.465C150.228 114.144 141.336 122.026 131.433 130.11C130.423 130.919 129.412 131.727 128.806 132.535C129.412 131.525 129.816 130.514 130.423 129.1C135.071 118.591 140.528 107.677 146.388 97.5722C146.995 97.7743 147.197 97.9764 147.601 98.1785ZM130.625 90.2966C130.827 90.2966 130.827 90.2966 130.625 90.2966C130.423 93.7323 131.837 96.3596 134.262 97.3701C136.688 98.3806 139.921 98.1785 141.942 94.9449C142.346 95.147 142.549 95.3491 142.953 95.5512C137.496 104.848 131.029 114.751 123.551 125.26C122.743 126.27 122.136 127.281 121.53 128.291C121.732 127.281 122.136 125.866 122.339 124.451C124.157 113.134 126.583 101.21 129.412 89.8924C130.018 89.8924 130.22 90.0945 130.625 90.2966ZM112.436 86.8609C112.436 86.8609 112.638 86.8609 112.436 86.8609C113.042 90.0945 115.063 92.5197 117.69 92.7218C120.318 92.9239 123.349 91.9134 124.562 88.4777C124.966 88.4777 125.37 88.6798 125.774 88.6798C122.945 99.189 119.105 110.507 114.659 122.228C114.255 123.441 113.85 124.654 113.446 125.664C113.446 124.451 113.244 123.239 113.244 121.824C112.032 110.507 111.223 98.1785 111.223 86.4567C111.627 86.8609 112.032 86.8609 112.436 86.8609ZM124.36 228.331C122.743 225.299 120.318 223.682 117.69 224.087C115.063 224.491 112.436 226.31 112.234 229.948C111.829 229.948 111.425 229.948 111.021 229.948C111.021 219.034 111.627 207.312 112.84 194.58C113.042 193.367 113.042 192.357 113.042 191.346C113.042 191.144 113.042 191.144 113.042 190.942C113.446 191.953 113.85 193.165 114.255 194.58C118.499 205.291 122.339 216.811 125.572 228.129C125.168 228.331 124.764 228.331 124.36 228.331ZM141.74 222.066C141.74 222.066 141.538 222.066 141.74 222.066C139.517 219.438 136.688 218.428 134.262 219.64C131.433 220.853 129.816 223.682 130.625 226.714C130.22 226.916 129.816 226.916 129.412 227.118C126.583 216.609 124.157 205.089 122.136 192.559C121.934 191.144 121.732 190.134 121.328 188.921C121.934 189.932 122.541 190.942 123.551 192.155C130.423 201.451 137.092 211.556 142.953 221.661C142.346 221.864 142.144 221.864 141.74 222.066ZM157.302 211.152C157.302 211.354 157.302 211.354 157.302 211.152C154.472 209.333 151.441 209.131 149.42 210.748C147.803 211.961 146.995 213.78 146.995 215.598C146.995 216.609 147.197 217.619 147.803 218.428C147.399 218.63 147.197 218.832 146.793 219.034C141.336 209.738 135.879 199.026 130.625 187.507C130.018 186.294 129.412 185.283 129.008 184.273C129.816 185.081 130.827 185.89 131.837 186.698C140.932 193.772 150.026 201.856 158.312 210.142C157.908 210.748 157.706 210.95 157.302 211.152ZM169.226 197.005C169.226 197.005 169.226 197.207 169.226 197.005C165.992 195.995 162.961 196.399 161.546 198.622C161.142 199.228 160.131 200.845 160.131 202.462C160.131 203.472 160.535 205.089 161.748 206.504C161.546 206.706 161.142 207.11 160.94 207.312C153.26 199.633 145.378 190.74 137.294 181.039C136.486 180.029 135.677 179.018 134.869 178.412C135.879 179.018 137.092 179.423 138.304 180.029C148.814 184.677 159.727 190.134 170.034 195.793C169.63 196.399 169.428 196.601 169.226 197.005ZM177.108 180.029C177.108 180.231 177.108 180.231 177.108 180.029C173.672 179.827 171.045 181.039 170.034 183.667C169.832 184.273 169.63 185.081 169.63 186.294C169.63 187.507 170.034 189.73 172.459 191.346C172.257 191.751 172.055 191.953 171.853 192.357C162.556 186.9 152.451 180.433 142.144 173.157C141.134 172.349 139.921 171.743 139.113 171.136C140.123 171.339 141.538 171.743 142.953 171.945C154.27 173.562 166.194 175.987 177.512 179.018C177.31 179.423 177.31 179.827 177.108 180.029ZM180.341 161.84C177.108 162.446 174.682 164.265 174.48 166.892C174.48 167.094 174.48 167.297 174.48 167.701C174.48 170.126 175.693 172.753 178.724 173.764C178.724 174.168 178.522 174.572 178.522 174.976C168.013 172.147 156.696 168.509 144.772 164.063C143.559 163.659 142.346 163.255 141.336 163.052C142.549 163.052 143.761 162.85 145.176 162.85C156.493 161.638 168.822 160.829 180.543 160.829C180.543 161.032 180.341 161.436 180.341 161.84Z" fill="#FFE287"/>
<circle cx="109" cy="158" r="77" stroke="url(#paint1_linear)" stroke-width="2"/>
<circle cx="109" cy="158" r="101" stroke="url(#paint2_linear)" stroke-width="2"/>
<g filter="url(#filter1_i)">
<circle cx="109" cy="158" r="50" fill="#FDD24F"/>
</g>
<g filter="url(#filter2_d)">
<path fill-rule="evenodd" clip-rule="evenodd" d="M83.168 134.786V133H112.692V161.571H83.168V134.786ZM99.7751 138.357H96.0846L88.7037 156.214H92.3942L93.8718 152.643H101.988L103.466 156.214H107.156L99.7751 138.357ZM95.3458 149.071L97.9299 142.821L100.514 149.071H95.3458ZM131.144 158H116.382V154.429H134.835V183H105.311V165.143H109.001V179.429H131.144V158ZM127.96 164.47V161.676H120.929V164.47H122.626V169.785H119.165C118.739 169.402 118.218 169.161 117.601 169.061C118.335 168.829 118.901 168.404 119.298 167.789C119.694 167.173 119.893 166.433 119.893 165.568C119.893 164.304 119.511 163.314 118.747 162.599C117.983 161.867 116.895 161.501 115.485 161.501C114.5 161.501 113.648 161.659 112.928 161.975V165.144C113.721 164.728 114.493 164.52 115.242 164.52C116.271 164.52 116.785 165.019 116.785 166.017C116.785 167.049 116.175 167.564 114.956 167.564H114.272V170.509H115.176C115.97 170.509 116.513 170.667 116.807 170.983C117.116 171.299 117.27 171.723 117.27 172.255C117.27 173.653 116.623 174.351 115.33 174.351C114.375 174.351 113.427 174.068 112.487 173.503V176.747C113.413 177.113 114.412 177.296 115.485 177.296C117.072 177.296 118.262 176.88 119.055 176.048C119.863 175.216 120.267 174.135 120.267 172.804V172.63H122.626V178.418H125.756V164.47H127.96Z" fill="white"/>
</g>
<path d="M50.3984 82.8002L52.8984 80.9001C53.1984 80.7001 53.4984 80.5001 53.8984 80.4001C54.2984 80.3001 54.4985 80.2002 54.7985 80.2002C55.0985 80.2002 55.3985 80.3001 55.6985 80.4001C55.9985 80.5001 56.1984 80.8002 56.4984 81.1002C56.7984 81.5002 56.9984 81.9001 56.8984 82.4001C56.8984 82.8001 56.6984 83.3002 56.3984 83.7002C56.5984 83.5002 56.8984 83.5001 57.0984 83.4001C57.3984 83.4001 57.5984 83.4001 57.8984 83.4001C58.1984 83.4001 58.3985 83.6002 58.6985 83.7002C58.8985 83.8002 59.1985 84.0002 59.2985 84.3002C59.4985 84.6002 59.6985 85.0002 59.7985 85.3002C59.8985 85.6002 59.7985 86.0002 59.6985 86.3002C59.5985 86.6002 59.3985 87.0002 59.1985 87.3002C58.9985 87.6002 58.6985 87.9002 58.2985 88.2002L55.7985 90.1002L50.3984 82.8002ZM53.6985 85.1002L54.9984 84.1002C55.1984 84.0002 55.2984 83.8002 55.4984 83.6002C55.5984 83.4002 55.6985 83.3002 55.7985 83.1002C55.8985 82.9002 55.8985 82.7002 55.7985 82.5002C55.7985 82.3002 55.6984 82.1001 55.4984 81.9001C55.2984 81.6001 54.9985 81.4001 54.6985 81.4001C54.3985 81.3001 53.9984 81.4002 53.5984 81.7002L52.0984 82.9001L53.6985 85.1002ZM56.1985 88.4001L57.5984 87.3002C57.6984 87.2002 57.8984 87.0001 58.0984 86.9001C58.2984 86.7001 58.3984 86.5002 58.4984 86.3002C58.5984 86.1002 58.5984 85.9002 58.5984 85.6002C58.5984 85.4002 58.4985 85.1001 58.2985 84.9001C57.9985 84.5001 57.5985 84.3002 57.1985 84.3002C56.7985 84.3002 56.2985 84.5002 55.7985 84.8002L54.3984 85.9001L56.1985 88.4001Z" fill="white"/>
<path d="M56.5977 77.4999L57.5977 76.8999L59.9977 80.7C59.8977 80.4 59.9977 79.9999 60.1977 79.5999C60.3977 79.1999 60.6977 78.9 61.0977 78.7C61.2977 78.5 61.5976 78.3999 61.8976 78.3999C62.1976 78.2999 62.3977 78.2999 62.6977 78.3999C62.9977 78.4999 63.1976 78.5999 63.4977 78.7999C63.7977 78.9999 63.9977 79.1999 64.1977 79.5999L66.2977 82.8999L65.2977 83.4999L63.3976 80.4999C63.1976 80.2999 63.0976 80.0999 62.8976 79.9999C62.6976 79.8999 62.5976 79.7999 62.3976 79.7999C62.1976 79.7999 62.0976 79.7999 61.8976 79.7999C61.6976 79.7999 61.5976 79.8999 61.3976 79.9999C61.1976 80.0999 60.9976 80.2999 60.8976 80.4999C60.7976 80.6999 60.6977 80.8999 60.5977 81.0999C60.5977 81.2999 60.5977 81.5999 60.5977 81.7999C60.6977 82.0999 60.7977 82.2999 60.9977 82.5999L62.6977 85.2L61.6977 85.7999L56.5977 77.4999Z" fill="white"/>
<path d="M65.0977 77.4001C65.1977 77.0001 65.4977 76.6001 65.7977 76.3001C66.0977 76.0001 66.3977 75.7001 66.7977 75.5001C67.1977 75.3001 67.5976 75.2001 67.8976 75.1001C68.1976 75.0001 68.4977 75.1001 68.7977 75.1001C69.0977 75.2001 69.2977 75.3001 69.4977 75.5001C69.6976 75.7001 69.8977 75.9001 69.9977 76.1001L71.3976 78.8001C71.4976 79.0001 71.5976 79.2001 71.6976 79.3001C71.7976 79.5001 71.8977 79.6001 71.9977 79.7001L71.0977 80.2001C70.8977 79.9001 70.7977 79.7001 70.5977 79.4001C70.5977 79.9001 70.3977 80.3001 70.1977 80.6001C69.9977 80.9001 69.6977 81.2001 69.1977 81.4001C68.9977 81.5001 68.6976 81.6001 68.3976 81.7001C68.0976 81.8001 67.8977 81.8001 67.5977 81.7001C67.3977 81.7001 67.0976 81.6001 66.8976 81.4001C66.6976 81.3001 66.4976 81.0001 66.3976 80.8001C66.1976 80.5001 66.0977 80.1001 66.1977 79.8001C66.2977 79.5001 66.2977 79.2001 66.4977 78.9001C66.6977 78.6001 66.8977 78.3001 67.2977 78.1001C67.5977 77.8001 67.9976 77.6001 68.3976 77.4001L69.0977 77.0001L68.9977 76.8001C68.8977 76.7001 68.7977 76.5001 68.6977 76.4001C68.5977 76.3001 68.3977 76.2001 68.2977 76.2001C68.0977 76.1001 67.9977 76.1001 67.7977 76.2001C67.5977 76.3001 67.3977 76.3001 67.1977 76.4001C66.9977 76.5001 66.7977 76.6001 66.6977 76.7001C66.5977 76.8001 66.4976 76.9001 66.3976 77.1001C66.2976 77.2001 66.1977 77.3001 66.1977 77.5001C66.1977 77.7001 66.0977 77.7001 65.9977 77.9001L65.0977 77.4001ZM68.9977 78.0001C68.7977 78.1001 68.4977 78.3001 68.2977 78.4001C68.0977 78.6001 67.8977 78.7001 67.6977 78.9001C67.4977 79.1001 67.3976 79.3001 67.3976 79.5001C67.3976 79.7001 67.3977 79.9001 67.4977 80.1001C67.6977 80.4001 67.8977 80.6001 68.1977 80.6001C68.4977 80.6001 68.7977 80.5001 69.0977 80.4001C69.3977 80.3001 69.5977 80.1001 69.6977 79.9001C69.7977 79.7001 69.8977 79.5001 69.9977 79.3001C69.9977 79.1001 69.9977 78.9001 69.9977 78.7001C69.9977 78.5001 69.8977 78.3001 69.7977 78.1001L69.5977 77.8001L68.9977 78.0001Z" fill="white"/>
<path d="M74.1984 73.7C73.9984 73.6 73.7984 73.5 73.5984 73.5C73.3984 73.5 73.0984 73.5 72.8984 73.6C72.6984 73.7 72.4985 73.9 72.2985 74C72.0985 74.1 72.0984 74.4 72.1984 74.6C72.2984 74.8 72.3985 74.9 72.4985 74.9C72.5985 75 72.7985 75 72.9985 75C73.1985 75 73.2985 75 73.4985 74.9C73.6985 74.8 73.7985 74.8 73.9985 74.8C74.1985 74.8 74.4984 74.7 74.6984 74.7C74.8984 74.7 75.0985 74.7 75.2985 74.8C75.4985 74.9 75.6985 75 75.7985 75.1C75.9985 75.2 76.0984 75.4 76.1984 75.7C76.2984 76 76.3984 76.3 76.3984 76.6C76.3984 76.9 76.2984 77.1 76.0984 77.4C75.8984 77.7 75.7985 77.8 75.4985 78C75.1985 78.2 74.9984 78.3 74.6984 78.5C74.1984 78.7 73.7984 78.8 73.3984 78.8C72.9984 78.8 72.5984 78.7 72.0984 78.4L72.5984 77.4C72.7984 77.5 73.0984 77.6 73.3984 77.6C73.6984 77.6 73.9985 77.6 74.2985 77.5C74.3985 77.4 74.5984 77.4 74.6984 77.3C74.7984 77.2 74.8985 77.1 74.9985 77C75.0985 76.9 75.0984 76.8 75.1984 76.7C75.1984 76.6 75.1984 76.5 75.1984 76.3C75.0984 76.1 74.9984 76 74.8984 76C74.7984 75.9 74.5984 75.9 74.3984 75.9C74.1984 75.9 74.0984 75.9 73.8984 76C73.6984 76.1 73.5985 76.1 73.4985 76.1C73.2985 76.1 72.9985 76.2 72.7985 76.2C72.5985 76.2 72.2984 76.2 72.0984 76.2C71.8984 76.2 71.6984 76.1 71.4984 75.9C71.2984 75.8 71.1984 75.6 71.0984 75.3C70.9984 75 70.8984 74.7 70.8984 74.5C70.8984 74.2 70.9984 74 71.0984 73.8C71.1984 73.6 71.3984 73.4 71.5984 73.2C71.7984 73 72.0985 72.9 72.2985 72.8C72.6985 72.6 73.0985 72.5 73.4985 72.5C73.8985 72.5 74.2984 72.6 74.5984 72.8L74.1984 73.7Z" fill="white"/>
<path d="M74.6992 67.9L75.7993 67.5L77.2993 71.8C77.2993 71.4 77.4992 71.1 77.6992 70.8C77.9992 70.5 78.2993 70.3 78.7993 70.1C79.0993 70 79.2992 69.9 79.5992 69.9C79.8992 69.9 80.0992 69.9 80.3992 70.1C80.6992 70.2 80.8992 70.4 81.0992 70.6C81.2992 70.8 81.4992 71.1 81.5992 71.5L82.8992 75.2L81.7993 75.6L80.5992 72.2C80.4992 71.9 80.3992 71.7 80.1992 71.6C80.0992 71.4 79.8992 71.3 79.6992 71.2C79.4992 71.1 79.3992 71.1 79.1992 71.1C78.9992 71.1 78.8992 71.1 78.6992 71.2C78.4992 71.3 78.2992 71.4 78.0992 71.5C77.8992 71.6 77.7992 71.8 77.6992 72C77.5992 72.2 77.5992 72.4 77.5992 72.7C77.5992 73 77.6993 73.3 77.7993 73.6L78.8992 76.5L77.7993 76.9L74.6992 67.9Z" fill="white"/>
<path d="M81.8969 66.9999C81.7969 66.7999 81.8969 66.5999 81.9969 66.3999C82.0969 66.1999 82.2969 66.0999 82.4969 65.9999C82.6969 65.8999 82.8969 65.9999 83.0969 66.0999C83.2969 66.1999 83.3969 66.3999 83.4969 66.5999C83.5969 66.7999 83.4969 66.9999 83.3969 67.1999C83.2969 67.3999 83.0969 67.4999 82.8969 67.5999C82.6969 67.6999 82.4969 67.5999 82.2969 67.4999C82.0969 67.2999 81.9969 67.1999 81.8969 66.9999ZM82.7969 68.9999L83.8969 68.6999L85.5969 74.4999L84.4969 74.7999L82.7969 68.9999Z" fill="white"/>
<path d="M85.7969 68.1001L86.8969 67.8001L87.0969 68.7001C87.1969 68.4001 87.2968 68.0001 87.6968 67.8001C87.9968 67.5001 88.3969 67.3001 88.7969 67.2001C89.0969 67.1001 89.3969 67.1001 89.5969 67.1001C89.7969 67.1001 90.0969 67.2001 90.3969 67.3001C90.6969 67.4001 90.7969 67.6001 90.9969 67.9001C91.1969 68.2001 91.2969 68.5001 91.3969 68.9001L92.2969 72.7001L91.1968 73.0001L90.3969 69.5001C90.2969 69.2001 90.1969 69.0001 90.0969 68.8001C89.9969 68.6001 89.7968 68.5001 89.6968 68.4001C89.4968 68.3001 89.3968 68.3001 89.1968 68.2001C88.9968 68.1001 88.8968 68.2001 88.6968 68.2001C88.4968 68.3001 88.2969 68.3001 88.0969 68.5001C87.8969 68.6001 87.7968 68.8001 87.6968 69.0001C87.5968 69.2001 87.4969 69.4001 87.4969 69.7001C87.4969 70.0001 87.4969 70.3001 87.5969 70.6001L88.2969 73.6001L87.1968 73.9001L85.7969 68.1001Z" fill="white"/>
<path d="M92.1992 64.4C92.1992 64.2 92.1993 64 92.2993 63.8C92.3993 63.6 92.5993 63.5 92.7993 63.5C92.9993 63.5 93.1992 63.5 93.3992 63.6C93.5992 63.7 93.6992 63.9 93.6992 64.1C93.6992 64.3 93.6992 64.5 93.5992 64.7C93.4992 64.9 93.2992 65 93.0992 65C92.8992 65 92.6993 65 92.4993 64.9C92.3993 64.8 92.2992 64.6 92.1992 64.4ZM92.8992 66.5L93.9993 66.3L95.0992 72.3L93.9993 72.5L92.8992 66.5Z" fill="white"/>
<path d="M99.5977 67C99.5977 66.7 99.5976 66.4 99.6976 66.1C99.7976 65.8 99.8977 65.6 100.098 65.3C100.298 65.1 100.498 64.9 100.798 64.8C101.098 64.7 101.298 64.6 101.698 64.5C101.998 64.5 102.298 64.5 102.598 64.6C102.898 64.7 103.098 64.8 103.398 65C103.598 65.2 103.798 65.4 103.898 65.7C103.998 66 104.098 66.2 104.198 66.6C104.298 67 104.198 67.2 104.098 67.5C103.998 67.8 103.898 68 103.698 68.3C103.498 68.5 103.298 68.7 102.998 68.8C102.698 68.9 102.498 69 102.098 69.1C101.798 69.1 101.498 69.1 101.198 69C100.898 68.9 100.698 68.8 100.398 68.6C100.198 68.4 99.9976 68.2 99.8976 67.9C99.6976 67.6 99.6977 67.4 99.5977 67Z" fill="white"/>
<path d="M109.898 62H111.098L110.898 69.9L114.998 70V71.1L109.598 71L109.898 62Z" fill="white"/>
<path d="M116.297 65.2998L117.397 65.3998L116.897 71.3998L115.797 71.2998L116.297 65.2998ZM116.197 63.0998C116.197 62.8998 116.297 62.6998 116.497 62.4998C116.697 62.2998 116.897 62.2998 117.097 62.2998C117.297 62.2998 117.497 62.3998 117.697 62.5998C117.897 62.7998 117.897 62.9998 117.897 63.1998C117.897 63.3998 117.797 63.5998 117.597 63.7998C117.397 63.9998 117.197 63.9998 116.997 63.9998C116.797 63.9998 116.597 63.8998 116.397 63.6998C116.197 63.4998 116.197 63.2998 116.197 63.0998Z" fill="white"/>
<path d="M119.8 62L120.9 62.2L120.1 68.4L123 66.2L124.6 66.4L121.4 68.7L124 72.4L122.4 72.2L120 68.7L119.6 71.8L118.5 71.6L119.8 62Z" fill="white"/>
<path d="M126.799 63L127.899 63.2L126.899 67.6C127.099 67.3 127.399 67.1 127.799 67C128.199 66.9 128.599 66.9 129.099 67C129.399 67.1 129.599 67.2 129.899 67.3C130.199 67.4 130.299 67.6 130.499 67.9C130.699 68.1 130.799 68.4 130.799 68.7C130.899 69 130.799 69.4 130.799 69.8L129.999 73.6L128.899 73.4L129.699 69.9C129.799 69.6 129.799 69.4 129.699 69.2C129.699 69 129.599 68.8 129.499 68.7C129.399 68.6 129.299 68.4 129.099 68.3C128.899 68.2 128.799 68.1 128.599 68.1C128.399 68.1 128.099 68 127.899 68.1C127.699 68.1 127.499 68.2 127.299 68.3C127.099 68.4 126.999 68.6 126.799 68.8C126.599 69 126.599 69.3 126.499 69.7L125.799 72.7L124.699 72.5L126.799 63Z" fill="white"/>
<path d="M131.899 70.9001C131.999 70.5001 132.199 70.1001 132.499 69.8001C132.799 69.5001 133.099 69.2001 133.399 69.0001C133.799 68.8001 134.199 68.7001 134.599 68.6001C134.999 68.6001 135.399 68.6001 135.899 68.7001C136.299 68.8001 136.699 69.0001 136.999 69.3001C137.299 69.6001 137.599 69.9001 137.799 70.3001C137.999 70.7001 138.099 71.0001 138.199 71.5001C138.299 72.0001 138.199 72.3001 138.099 72.8001C137.999 73.2001 137.799 73.6001 137.499 73.9001C137.199 74.2001 136.899 74.5001 136.599 74.7001C136.299 74.9001 135.799 75.0001 135.399 75.0001C134.999 75.0001 134.599 75.0001 134.099 74.9001C133.699 74.8001 133.299 74.6001 132.999 74.3001C132.699 74.0001 132.399 73.7001 132.199 73.4001C131.999 73.1001 131.899 72.7001 131.799 72.2001C131.699 71.7001 131.799 71.3001 131.899 70.9001ZM133.099 71.2001C132.999 71.5001 132.999 71.8001 132.999 72.1001C132.999 72.4001 133.099 72.6001 133.199 72.9001C133.299 73.2001 133.499 73.3001 133.699 73.5001C133.899 73.7001 134.199 73.8001 134.399 73.9001C134.699 74.0001 134.999 74.0001 135.199 74.0001C135.399 74.0001 135.699 73.9001 135.899 73.8001C136.099 73.7001 136.299 73.5001 136.499 73.3001C136.699 73.1001 136.799 72.8001 136.899 72.5001C136.999 72.2001 136.999 71.9001 136.999 71.6001C136.999 71.3001 136.899 71.1001 136.799 70.8001C136.699 70.5001 136.499 70.4001 136.299 70.2001C136.099 70.0001 135.799 69.9001 135.599 69.8001C135.299 69.7001 134.999 69.7001 134.799 69.7001C134.499 69.7001 134.299 69.8001 134.099 69.9001C133.899 70.0001 133.699 70.2001 133.499 70.4001C133.299 70.6001 133.199 71.0001 133.099 71.2001Z" fill="white"/>
<path d="M145.199 69.1001L146.299 69.6001L142.799 77.9001L141.699 77.4001L145.199 69.1001Z" fill="white"/>
<path d="M147.098 73.2002L148.098 73.7002L147.698 74.5002C147.998 74.3002 148.298 74.2002 148.698 74.1002C149.098 74.1002 149.498 74.2001 149.898 74.4001C150.198 74.5001 150.398 74.7001 150.598 74.9001C150.798 75.1001 150.898 75.3002 150.998 75.6002C151.098 75.9002 151.098 76.1002 151.098 76.5002C151.098 76.8002 150.998 77.2002 150.798 77.5002L149.098 81.0002L148.098 80.5002L149.698 77.3002C149.798 77.0002 149.898 76.8002 149.898 76.6002C149.898 76.4002 149.898 76.2002 149.798 76.0002C149.698 75.8002 149.598 75.7002 149.498 75.6002C149.398 75.5002 149.198 75.4002 149.098 75.3002C148.898 75.2002 148.698 75.1002 148.498 75.1002C148.298 75.1002 148.098 75.1002 147.898 75.2002C147.698 75.3002 147.498 75.4002 147.298 75.6002C147.098 75.8002 146.898 76.0001 146.798 76.4001L145.398 79.2002L144.398 78.7002L147.098 73.2002Z" fill="white"/>
<path d="M155.598 84.6998L154.598 84.0998L154.998 83.3998C154.598 83.5998 154.298 83.5998 153.798 83.5998C153.298 83.5998 152.998 83.3998 152.598 83.1998C152.198 82.9998 151.898 82.6998 151.598 82.2998C151.398 81.9998 151.198 81.5998 151.098 81.1998C150.998 80.7998 150.998 80.3998 151.098 79.9998C151.198 79.5998 151.298 79.1998 151.598 78.7998C151.798 78.3998 152.098 78.0998 152.398 77.7998C152.698 77.4998 153.098 77.3998 153.398 77.2998C153.798 77.1998 154.198 77.1998 154.598 77.1998C154.998 77.1998 155.398 77.3998 155.798 77.5998C156.198 77.7998 156.498 78.0998 156.698 78.4998C156.898 78.8998 157.098 79.1998 157.098 79.5998L159.398 75.7998L160.398 76.3998L155.598 84.6998ZM153.398 82.2998C153.698 82.4998 153.898 82.5998 154.198 82.5998C154.498 82.5998 154.698 82.5998 154.998 82.5998C155.198 82.4998 155.498 82.3998 155.698 82.1998C155.898 81.9998 156.098 81.7998 156.298 81.4998C156.498 81.1998 156.598 80.9998 156.598 80.6998C156.598 80.3998 156.698 80.1998 156.598 79.8998C156.498 79.6998 156.398 79.3998 156.298 79.1998C156.098 78.9998 155.898 78.7998 155.698 78.5998C155.498 78.3998 155.198 78.2998 154.898 78.2998C154.598 78.2998 154.398 78.2998 154.098 78.2998C153.898 78.3998 153.598 78.4998 153.398 78.6998C153.198 78.8998 152.998 79.0998 152.798 79.3998C152.598 79.6998 152.498 79.8998 152.498 80.1998C152.398 80.4998 152.398 80.6998 152.498 80.9998C152.598 81.1998 152.698 81.4998 152.798 81.6998C152.898 81.8998 153.098 82.0998 153.398 82.2998Z" fill="white"/>
<path d="M160.298 80.5999L161.198 81.2999L157.798 86.2999L156.898 85.5999L160.298 80.5999ZM161.298 78.7C161.398 78.5 161.598 78.3999 161.798 78.3999C161.998 78.3999 162.198 78.3999 162.398 78.4999C162.598 78.5999 162.698 78.7999 162.698 78.9999C162.698 79.1999 162.698 79.3999 162.598 79.5999C162.498 79.7999 162.298 79.8999 162.098 79.8999C161.898 79.8999 161.698 79.8999 161.498 79.7999C161.298 79.6999 161.198 79.4999 161.198 79.2999C161.098 79.0999 161.198 78.9 161.298 78.7Z" fill="white"/>
<path d="M162.398 83C162.798 83 163.298 83 163.698 83.2C164.098 83.4 164.498 83.5 164.798 83.8C165.198 84.1 165.398 84.3 165.598 84.6C165.798 84.9 165.898 85.2 165.898 85.4C165.898 85.7 165.898 85.9 165.898 86.2C165.798 86.5 165.698 86.7 165.598 86.9L163.698 89.3C163.598 89.5 163.498 89.6 163.398 89.8C163.298 89.9 163.198 90.1 163.098 90.2L162.298 89.6C162.498 89.3 162.598 89.1 162.798 88.8C162.398 89 161.998 89 161.598 88.9C161.198 88.8 160.898 88.6 160.498 88.4C160.298 88.2 160.098 88 159.898 87.8C159.698 87.6 159.598 87.4 159.598 87.1C159.498 86.9 159.498 86.6 159.598 86.4C159.598 86.2 159.798 85.9 159.898 85.7C160.098 85.4 160.398 85.2 160.698 85.1C160.998 85 161.298 85 161.698 85C161.998 85.1 162.398 85.2 162.798 85.4C163.198 85.6 163.498 85.8 163.898 86.1L164.598 86.6L164.798 86.4C164.898 86.3 164.998 86.1 164.998 86C164.998 85.8 165.098 85.7 164.998 85.5C164.998 85.3 164.898 85.2 164.798 85C164.698 84.8 164.598 84.7 164.398 84.5C164.198 84.4 164.098 84.3 163.898 84.2C163.698 84.1 163.598 84.1 163.398 84C163.298 84 163.098 84 162.998 84C162.898 84 162.698 84 162.598 84L162.398 83ZM163.498 86.8C163.298 86.6 163.098 86.5 162.798 86.3C162.598 86.1 162.298 86 162.098 86C161.898 86 161.598 85.9 161.398 85.9C161.198 85.9 160.998 86 160.898 86.2C160.698 86.5 160.598 86.7 160.698 87C160.798 87.3 160.998 87.5 161.298 87.8C161.498 88 161.798 88.1 161.998 88.2C162.198 88.3 162.498 88.3 162.698 88.2C162.898 88.1 163.098 88.1 163.298 87.9C163.498 87.8 163.598 87.6 163.698 87.5L163.898 87.2L163.498 86.8Z" fill="white"/>
<path d="M30.1 186.8L31.3 189.7C31.5 190.1 31.5 190.4 31.6 190.8C31.6 191.1 31.6 191.5 31.6 191.8C31.5 192.1 31.4 192.4 31.2 192.6C31 192.8 30.7 193 30.4 193.2C29.9 193.4 29.5 193.4 29.1 193.3C28.7 193.2 28.3 192.9 28 192.5C28.1 192.8 28.1 193 28.1 193.3C28.1 193.6 28 193.8 27.9 194.1C27.8 194.3 27.6 194.6 27.4 194.8C27.2 195 27 195.2 26.7 195.3C26.3 195.5 26 195.5 25.6 195.5C25.2 195.5 24.9 195.4 24.6 195.2C24.3 195 24 194.8 23.8 194.5C23.6 194.2 23.3 193.8 23.2 193.4L22 190.5L30.1 186.8ZM23.3 191.1L24 192.8C24.1 193 24.2 193.2 24.3 193.3C24.4 193.5 24.6 193.7 24.8 193.8C25 193.9 25.2 194 25.4 194.1C25.6 194.1 25.9 194.1 26.2 194C26.7 193.8 27 193.5 27.1 193.1C27.2 192.7 27.2 192.2 26.9 191.6L26.2 189.9L23.3 191.1ZM27.2 189.4L27.8 190.9C27.9 191.1 28 191.3 28.1 191.5C28.2 191.7 28.4 191.8 28.5 191.9C28.7 192 28.8 192.1 29 192.1C29.2 192.1 29.4 192.1 29.6 192C29.9 191.9 30.2 191.6 30.3 191.3C30.5 191 30.4 190.6 30.2 190.1L29.5 188.3L27.2 189.4Z" fill="white"/>
<path d="M33.6016 193.3L34.1016 194.3L30.1016 196.4C30.5016 196.4 30.8016 196.5 31.1016 196.7C31.4016 196.9 31.7016 197.2 31.9016 197.7C32.0016 198 32.1016 198.2 32.2016 198.5C32.2016 198.8 32.2016 199 32.2016 199.3C32.1016 199.6 32.0016 199.8 31.8016 200.1C31.6016 200.3 31.3016 200.6 31.0016 200.7L27.6016 202.5L27.1016 201.5L30.3016 199.8C30.5016 199.7 30.7016 199.5 30.9016 199.4C31.1016 199.3 31.1016 199.1 31.2016 198.9C31.3016 198.7 31.3016 198.6 31.2016 198.4C31.2016 198.2 31.1016 198.1 31.0016 197.9C30.9016 197.7 30.8016 197.5 30.6016 197.4C30.4016 197.3 30.2016 197.2 30.0016 197.1C29.8016 197 29.5016 197 29.3016 197.1C29.1016 197.2 28.7016 197.2 28.4016 197.4L25.6016 198.8L25.1016 197.8L33.6016 193.3Z" fill="white"/>
<path d="M33.0992 201.5C33.4992 201.6 33.8992 201.8 34.2992 202.1C34.6992 202.4 34.8992 202.7 35.1992 203.1C35.3992 203.5 35.5992 203.8 35.6992 204.2C35.7992 204.5 35.7992 204.8 35.6992 205.1C35.6992 205.4 35.4992 205.6 35.3992 205.8C35.1992 206 35.0992 206.2 34.7992 206.3L32.1992 207.9C31.9992 208 31.8992 208.1 31.6992 208.2C31.4992 208.3 31.3992 208.4 31.2992 208.5L30.7992 207.6C30.9992 207.4 31.2992 207.2 31.5992 207.1C31.0992 207.1 30.6992 207 30.3992 206.8C30.0992 206.6 29.7992 206.3 29.5992 205.9C29.4992 205.7 29.2992 205.4 29.2992 205.2C29.2992 205 29.1992 204.7 29.1992 204.4C29.1992 204.1 29.2992 203.9 29.3992 203.7C29.4992 203.5 29.6992 203.3 29.9992 203.1C30.2992 202.9 30.6992 202.8 30.9992 202.8C31.2992 202.8 31.5992 202.9 31.8992 203.1C32.1992 203.3 32.4992 203.5 32.7992 203.8C33.0992 204.1 33.2992 204.5 33.5992 204.8L33.9992 205.5L34.1992 205.4C34.2992 205.3 34.3992 205.2 34.4992 205.1C34.5992 205 34.6992 204.8 34.6992 204.7C34.6992 204.5 34.6992 204.4 34.6992 204.2C34.6992 204 34.5992 203.8 34.4992 203.6C34.3992 203.4 34.2992 203.3 34.0992 203.1C33.9992 203 33.8992 202.9 33.6992 202.8C33.5992 202.7 33.3992 202.7 33.2992 202.6C33.1992 202.6 32.9992 202.5 32.8992 202.5L33.0992 201.5ZM32.7992 205.6C32.6992 205.4 32.4992 205.1 32.2992 204.9C32.0992 204.7 31.8992 204.5 31.6992 204.3C31.4992 204.1 31.2992 204 31.0992 204C30.8992 204 30.6992 204 30.4992 204.1C30.1992 204.3 30.0992 204.5 29.9992 204.8C29.8992 205.1 30.0992 205.4 30.2992 205.7C30.4992 206 30.6992 206.2 30.8992 206.3C31.0992 206.4 31.2992 206.5 31.4992 206.5C31.6992 206.5 31.8992 206.5 32.0992 206.4C32.2992 206.3 32.4992 206.3 32.6992 206.1L32.9992 205.9L32.7992 205.6Z" fill="white"/>
<path d="M37.8985 210.1C37.9985 209.9 37.9985 209.7 37.8985 209.4C37.7985 209.1 37.7985 208.9 37.5985 208.7C37.3985 208.5 37.2985 208.3 36.9985 208.2C36.7985 208.1 36.5985 208.1 36.3985 208.3C36.2985 208.4 36.1985 208.5 36.1985 208.7C36.1985 208.9 36.1985 209 36.1985 209.2C36.1985 209.4 36.2985 209.5 36.3985 209.7C36.4985 209.9 36.4985 210 36.5985 210.1C36.6985 210.3 36.7985 210.6 36.7985 210.8C36.7985 211 36.8985 211.2 36.8985 211.4C36.8985 211.6 36.7985 211.8 36.6985 212C36.5985 212.2 36.3985 212.4 36.1985 212.5C35.8985 212.7 35.5985 212.8 35.3985 212.8C35.1985 212.8 34.7985 212.8 34.5985 212.7C34.2985 212.6 34.0985 212.5 33.8985 212.3C33.6985 212.1 33.4985 211.9 33.2985 211.6C32.9985 211.2 32.7985 210.8 32.6985 210.4C32.5985 210 32.5985 209.6 32.7985 209.1L33.8985 209.4C33.8985 209.7 33.7985 209.9 33.8985 210.2C33.9985 210.5 33.9985 210.7 34.1985 211C34.2985 211.1 34.3985 211.2 34.4985 211.3C34.5985 211.4 34.6985 211.5 34.7985 211.5C34.8985 211.5 34.9985 211.6 35.1985 211.6C35.2985 211.6 35.3985 211.6 35.4985 211.5C35.5985 211.4 35.6985 211.3 35.6985 211.1C35.6985 210.9 35.6985 210.8 35.6985 210.6C35.6985 210.4 35.5985 210.3 35.4985 210.1C35.3985 209.9 35.3985 209.8 35.2985 209.7C35.1985 209.5 35.0985 209.2 35.0985 209C34.9985 208.8 34.9985 208.6 34.9985 208.3C34.9985 208.1 35.0985 207.9 35.1985 207.7C35.2985 207.5 35.4985 207.3 35.6985 207.1C35.9985 206.9 36.1985 206.8 36.4985 206.8C36.7985 206.8 36.9985 206.8 37.2985 206.9C37.5985 207 37.7985 207.1 37.9985 207.3C38.1985 207.5 38.3985 207.7 38.5985 207.9C38.7985 208.2 38.9985 208.6 39.0985 209C39.1985 209.4 39.1985 209.8 38.9985 210.2L37.8985 210.1Z" fill="white"/>
<path d="M43.3008 208.8L44.0008 209.7L40.5008 212.6C40.8008 212.5 41.2008 212.5 41.6008 212.7C42.0008 212.8 42.3008 213.1 42.6008 213.5C42.8008 213.7 42.9008 214 43.0008 214.2C43.1008 214.5 43.1008 214.7 43.1008 215C43.1008 215.3 43.0008 215.5 42.9008 215.8C42.8008 216.1 42.5008 216.3 42.2008 216.6L39.2008 219.1L38.5008 218.2L41.2008 215.9C41.4008 215.7 41.6008 215.5 41.7008 215.3C41.8008 215.1 41.9008 214.9 41.9008 214.8C41.9008 214.6 41.9008 214.5 41.8008 214.3C41.7008 214.1 41.6008 214 41.5008 213.9C41.3008 213.7 41.2008 213.6 41.0008 213.5C40.8008 213.4 40.6008 213.3 40.4008 213.3C40.2008 213.3 39.9008 213.3 39.7008 213.4C39.5008 213.5 39.2008 213.7 38.9008 213.9L36.5008 215.9L35.8008 215L43.3008 208.8Z" fill="white"/>
<path d="M44.6 216.9C45 216.9 45.5 217 45.9 217.2C46.3 217.4 46.7 217.7 47 218C47.3 218.3 47.5 218.6 47.7 218.9C47.8 219.2 47.9 219.5 47.9 219.8C47.9 220.1 47.9 220.3 47.8 220.6C47.7 220.9 47.5 221.1 47.4 221.2L45.2 223.4C45 223.5 44.9 223.7 44.8 223.8C44.7 223.9 44.6 224.1 44.5 224.2L43.8 223.5C44 223.3 44.2 223 44.4 222.8C43.9 222.9 43.5 222.9 43.2 222.7C42.9 222.5 42.5 222.3 42.2 222C42 221.8 41.8 221.6 41.7 221.3C41.6 221 41.5 220.8 41.5 220.6C41.5 220.4 41.5 220.1 41.6 219.9C41.7 219.7 41.8 219.4 42 219.2C42.3 218.9 42.6 218.8 42.9 218.7C43.2 218.6 43.5 218.7 43.9 218.8C44.3 218.9 44.6 219.1 44.9 219.3C45.2 219.5 45.6 219.8 45.9 220.1L46.5 220.7L46.7 220.5C46.8 220.4 46.9 220.3 47 220.1C47.1 219.9 47.1 219.8 47.1 219.6C47.1 219.4 47.1 219.3 47 219.1C46.9 218.9 46.8 218.7 46.6 218.6C46.4 218.4 46.3 218.3 46.1 218.2C45.9 218.1 45.8 218 45.7 218C45.6 217.9 45.4 217.9 45.3 217.9C45.2 217.9 45 217.9 44.9 217.8L44.6 216.9ZM45.1 220.9C44.9 220.7 44.7 220.5 44.5 220.3C44.3 220.1 44.1 220 43.8 219.9C43.5 219.8 43.4 219.7 43.1 219.7C42.9 219.7 42.7 219.8 42.5 220C42.3 220.2 42.2 220.5 42.2 220.8C42.2 221.1 42.4 221.4 42.7 221.6C42.9 221.8 43.1 222 43.4 222.1C43.6 222.2 43.9 222.2 44.1 222.2C44.3 222.2 44.5 222.1 44.7 222C44.9 221.9 45.1 221.8 45.2 221.6L45.5 221.3L45.1 220.9Z" fill="white"/>
<path d="M53.8017 226.5C53.8017 226.3 53.8017 226.1 53.7017 225.8C53.6017 225.6 53.5017 225.4 53.2017 225.2C53.0017 225 52.8017 224.9 52.5017 224.9C52.2017 224.9 52.1017 224.9 51.9017 225.1C51.8017 225.2 51.7017 225.4 51.8017 225.5C51.9017 225.6 51.9017 225.8 51.9017 226C51.9017 226.2 52.1017 226.3 52.2017 226.4C52.3017 226.5 52.4017 226.7 52.5017 226.8C52.7017 227 52.8017 227.2 52.9017 227.4C53.0017 227.6 53.1017 227.8 53.1017 228C53.1017 228.2 53.1017 228.4 53.1017 228.6C53.0017 228.8 52.9017 229 52.8017 229.2C52.6017 229.5 52.3017 229.6 52.1017 229.7C51.8017 229.8 51.6017 229.8 51.3017 229.8C51.0017 229.8 50.8017 229.7 50.5017 229.6C50.2017 229.5 50.0017 229.3 49.7017 229.1C49.3017 228.8 49.0017 228.4 48.8017 228.1C48.6017 227.8 48.5017 227.3 48.6017 226.8H49.7017C49.7017 227.1 49.8017 227.3 49.9017 227.6C50.0017 227.9 50.2017 228.1 50.4017 228.3C50.5017 228.4 50.6017 228.5 50.8017 228.5C50.9017 228.6 51.1017 228.6 51.2017 228.6C51.3017 228.6 51.5017 228.6 51.6017 228.6C51.7017 228.6 51.8017 228.5 51.9017 228.4C52.0017 228.3 52.1017 228.1 52.0017 228C52.0017 227.8 51.9017 227.7 51.9017 227.6C51.9017 227.5 51.7017 227.3 51.6017 227.2C51.5017 227.1 51.4017 226.9 51.3017 226.8C51.1017 226.6 51.0017 226.4 50.9017 226.2C50.8017 226 50.7017 225.8 50.6017 225.6C50.5017 225.4 50.5017 225.2 50.6017 225C50.6017 224.8 50.8017 224.6 50.9017 224.3C51.1017 224.1 51.3017 223.9 51.6017 223.8C51.8017 223.7 52.1017 223.7 52.4017 223.7C52.7017 223.7 52.9017 223.8 53.2017 223.9C53.5017 224 53.7017 224.2 53.9017 224.3C54.2017 224.6 54.5017 224.9 54.7017 225.2C54.9017 225.5 55.0017 225.9 54.9017 226.4L53.8017 226.5Z" fill="white"/>
<path d="M56.2 227.4C56.6 227.3 57.1 227.4 57.5 227.5C57.9 227.6 58.3 227.8 58.7 228.1C59.1 228.4 59.3 228.6 59.5 228.9C59.7 229.2 59.8 229.4 59.9 229.7C60 230 60 230.2 59.9 230.5C59.8 230.8 59.7 231 59.6 231.2L57.8 233.7C57.7 233.9 57.6 234 57.5 234.2C57.4 234.4 57.3 234.5 57.2 234.6L56.4 234C56.6 233.7 56.7 233.5 56.9 233.2C56.5 233.4 56.1 233.4 55.7 233.4C55.3 233.3 54.9 233.2 54.6 232.9C54.4 232.7 54.2 232.6 54 232.3C53.8 232.1 53.7 231.9 53.7 231.6C53.6 231.4 53.6 231.1 53.7 230.9C53.7 230.7 53.8 230.4 54 230.2C54.2 229.9 54.5 229.7 54.8 229.6C55.1 229.5 55.4 229.4 55.8 229.5C56.1 229.5 56.5 229.6 56.9 229.8C57.3 230 57.6 230.2 58 230.5L58.7 231L58.8 230.8C58.9 230.7 59 230.5 59 230.4C59 230.2 59 230.1 59 229.9C59 229.7 58.9 229.6 58.8 229.4C58.7 229.2 58.5 229.1 58.3 228.9C58.1 228.8 58 228.7 57.8 228.6C57.6 228.5 57.5 228.5 57.3 228.5C57.2 228.5 57 228.5 56.9 228.5C56.8 228.5 56.6 228.5 56.5 228.5L56.2 227.4ZM57.5 231.3C57.3 231.1 57 231 56.8 230.9C56.6 230.8 56.3 230.7 56.1 230.6C55.9 230.5 55.6 230.5 55.4 230.6C55.2 230.6 55 230.8 54.9 230.9C54.7 231.2 54.6 231.5 54.7 231.7C54.8 232 55 232.2 55.3 232.4C55.6 232.6 55.8 232.7 56 232.7C56.2 232.7 56.5 232.7 56.7 232.7C56.9 232.6 57.1 232.5 57.3 232.4C57.5 232.3 57.6 232.1 57.7 231.9L57.9 231.6L57.5 231.3Z" fill="white"/>
<path d="M61.9008 230.6L62.8008 231.1L62.3008 231.9C62.4008 231.8 62.5008 231.8 62.6008 231.7C62.8008 231.6 62.9008 231.6 63.1008 231.6C63.3008 231.6 63.5008 231.6 63.8008 231.6C64.0008 231.6 64.3008 231.7 64.5008 231.9C64.9008 232.1 65.2008 232.4 65.3008 232.7C65.4008 233 65.5008 233.4 65.5008 233.8C65.9008 233.6 66.2008 233.5 66.6008 233.5C67.0008 233.5 67.4008 233.6 67.7008 233.8C68.1008 234 68.4008 234.3 68.6008 234.6C68.8008 234.9 68.9008 235.2 68.9008 235.5C68.9008 235.8 68.9008 236.1 68.8008 236.4C68.7008 236.7 68.6008 237 68.4008 237.3L66.6008 240.4L65.6008 239.8L67.3008 236.9C67.4008 236.7 67.5008 236.5 67.6008 236.3C67.7008 236.1 67.7008 235.9 67.7008 235.7C67.7008 235.5 67.6008 235.3 67.6008 235.2C67.5008 235 67.3008 234.9 67.1008 234.7C66.6008 234.4 66.2008 234.4 65.8008 234.6C65.4008 234.8 65.1008 235.1 64.8008 235.6L63.2008 238.5L62.2008 237.9L63.8008 235.2C63.9008 234.9 64.1008 234.7 64.2008 234.5C64.3008 234.3 64.3008 234.1 64.4008 233.9C64.4008 233.7 64.4008 233.5 64.3008 233.4C64.2008 233.2 64.0008 233.1 63.8008 232.9C63.6008 232.8 63.4008 232.7 63.2008 232.7C63.0008 232.7 62.8008 232.7 62.6008 232.8C62.4008 232.9 62.2008 233 62.0008 233.2C61.8008 233.4 61.6008 233.6 61.4008 233.9L59.8008 236.6L58.8008 236L61.9008 230.6Z" fill="white"/>
<path d="M70.9984 236.5C71.3984 236.4 71.7985 236.3 72.2985 236.3C72.6985 236.3 73.1984 236.4 73.5984 236.6C73.9984 236.8 74.2984 237 74.5984 237.2C74.7984 237.4 74.9984 237.7 75.0984 237.9C75.1984 238.2 75.2984 238.4 75.1984 238.7C75.1984 239 75.0985 239.2 74.9985 239.5L73.6984 242.3C73.5984 242.5 73.4985 242.7 73.4985 242.8C73.3985 243 73.3985 243.1 73.2985 243.3L72.3984 242.9C72.4984 242.6 72.5984 242.3 72.6984 242C72.2984 242.3 71.8984 242.4 71.4984 242.4C71.0984 242.4 70.6985 242.3 70.2985 242.1C69.9985 242 69.7984 241.8 69.5984 241.7C69.3984 241.5 69.1984 241.3 69.0984 241.1C68.9984 240.9 68.8984 240.6 68.8984 240.4C68.8984 240.2 68.8984 239.9 69.0984 239.6C69.2984 239.2 69.4985 239 69.6985 238.8C69.9985 238.6 70.2984 238.5 70.5984 238.5C70.8984 238.5 71.2984 238.5 71.6984 238.6C72.0984 238.7 72.4984 238.8 72.8984 239L73.6984 239.3L73.7985 239.1C73.8985 239 73.8984 238.8 73.8984 238.6C73.8984 238.4 73.8985 238.3 73.7985 238.1C73.6985 237.9 73.5985 237.8 73.4985 237.6C73.3985 237.5 73.1985 237.3 72.9985 237.2C72.7985 237.1 72.5984 237 72.3984 237C72.1984 237 72.0984 237 71.8984 237C71.6984 237 71.5984 237 71.4984 237.1C71.3984 237.2 71.1984 237.2 71.0984 237.2L70.9984 236.5ZM72.8984 240C72.6984 239.9 72.3984 239.8 72.0984 239.7C71.7984 239.6 71.5985 239.6 71.2985 239.5C71.0985 239.5 70.7984 239.5 70.5984 239.6C70.3984 239.7 70.2985 239.8 70.1985 240C70.0985 240.3 70.0985 240.6 70.1985 240.8C70.3985 241 70.5984 241.2 70.9984 241.4C71.2984 241.5 71.5985 241.6 71.7985 241.6C71.9985 241.6 72.2985 241.5 72.4985 241.4C72.6985 241.3 72.8985 241.2 72.9985 241C73.0985 240.8 73.2985 240.7 73.2985 240.5L73.4985 240.2L72.8984 240Z" fill="white"/>
<path d="M77.2015 238.399L78.3016 238.799L78.0016 239.699C78.1016 239.599 78.3016 239.499 78.4016 239.399C78.6016 239.299 78.7016 239.299 78.9016 239.199C79.1016 239.199 79.3016 239.199 79.5016 239.199C79.7016 239.199 79.9016 239.299 80.1016 239.299C80.3016 239.399 80.4016 239.399 80.6016 239.599L80.1016 240.699C80.0016 240.599 79.9016 240.599 79.9016 240.499C79.8016 240.499 79.7016 240.399 79.6016 240.399C79.1016 240.199 78.6015 240.199 78.2015 240.399C77.8015 240.599 77.5016 240.999 77.3016 241.599L76.2015 244.399L75.1016 243.999L77.2015 238.399Z" fill="white"/>
<path d="M84.4008 241.9L82.8008 241.4L82.0008 244C81.9008 244.2 81.9008 244.3 81.9008 244.5C81.9008 244.7 81.8008 244.8 81.9008 245C81.9008 245.1 82.0008 245.3 82.0008 245.4C82.1008 245.5 82.2008 245.6 82.4008 245.7C82.5008 245.7 82.7008 245.8 82.8008 245.8C82.9008 245.8 83.1007 245.8 83.2007 245.8L82.9008 246.8C82.7008 246.8 82.6008 246.8 82.3008 246.8C82.0008 246.8 81.9008 246.7 81.8008 246.7C81.4008 246.6 81.1008 246.4 80.9008 246.2C80.7008 246 80.6008 245.8 80.5008 245.6C80.4008 245.4 80.5008 245.1 80.5008 244.9C80.6008 244.7 80.6007 244.4 80.7007 244.2L81.6008 241.2L80.3008 240.8L80.6008 239.9L81.9008 240.3L82.4008 238.7L83.5008 239L83.0008 240.6L84.6008 241.1L84.4008 241.9Z" fill="white"/>
<path d="M86.9016 237.8L88.0016 238.1L86.9016 242.5C87.1016 242.2 87.4016 242 87.8016 241.9C88.2016 241.8 88.6016 241.8 89.1016 241.9C89.4016 242 89.6016 242.1 89.9016 242.2C90.2016 242.3 90.3016 242.5 90.5016 242.8C90.7016 243 90.7016 243.3 90.8016 243.6C90.8016 243.9 90.8015 244.3 90.7015 244.7L89.8016 248.5L88.7015 248.2L89.5016 244.7C89.6016 244.4 89.6016 244.2 89.6016 244C89.6016 243.8 89.5016 243.6 89.4016 243.5C89.3016 243.4 89.2016 243.2 89.0016 243.1C88.9016 243 88.7016 242.9 88.5016 242.9C88.3016 242.8 88.0016 242.8 87.8016 242.9C87.6016 242.9 87.4015 243 87.2015 243.1C87.0015 243.2 86.8015 243.4 86.7015 243.6C86.6015 243.8 86.4016 244.1 86.4016 244.4L85.7015 247.4L84.6016 247.1L86.9016 237.8Z" fill="white"/>
<path d="M92.7015 243.599C93.1015 243.399 93.5015 243.199 93.9015 243.099C94.3015 242.999 94.8015 242.999 95.2015 243.099C95.6015 243.199 96.0016 243.299 96.3016 243.399C96.6016 243.599 96.8016 243.699 97.0016 243.999C97.2016 244.199 97.3016 244.499 97.3016 244.699C97.3016 244.899 97.4016 245.199 97.3016 245.499L96.8016 248.499C96.8016 248.699 96.7015 248.899 96.7015 249.099C96.7015 249.299 96.7015 249.399 96.7015 249.599L95.7015 249.399C95.7015 249.099 95.8016 248.799 95.8016 248.499C95.5016 248.799 95.1016 249.099 94.8016 249.199C94.4016 249.299 94.0016 249.299 93.6016 249.199C93.3016 249.199 93.1016 249.099 92.8016 248.999C92.6016 248.899 92.4015 248.699 92.2015 248.599C92.0015 248.399 91.9016 248.199 91.8016 247.999C91.7016 247.799 91.7016 247.499 91.8016 247.199C91.9016 246.799 92.0015 246.499 92.2015 246.299C92.4015 246.099 92.7016 245.899 93.0016 245.799C93.3016 245.699 93.7016 245.599 94.1016 245.599C94.5016 245.599 94.9015 245.599 95.4015 245.699L96.2015 245.799V245.499C96.2015 245.299 96.2015 245.199 96.2015 244.999C96.2015 244.799 96.1016 244.699 96.0016 244.499C95.9016 244.299 95.8016 244.199 95.6016 244.099C95.4016 243.999 95.2016 243.899 95.0016 243.899C94.8016 243.899 94.6015 243.899 94.4015 243.899C94.2015 243.899 94.1015 243.899 93.9015 243.999C93.8015 243.999 93.6016 244.099 93.5016 244.199C93.4016 244.299 93.3016 244.299 93.1016 244.399L92.7015 243.599ZM95.5016 246.499C95.2016 246.499 95.0015 246.399 94.7015 246.399C94.4015 246.399 94.1015 246.399 93.9015 246.399C93.7015 246.399 93.4016 246.499 93.3016 246.699C93.1016 246.799 93.0016 246.999 93.0016 247.199C92.9016 247.499 93.0015 247.799 93.2015 247.999C93.4015 248.199 93.7016 248.299 94.1016 248.399C94.4016 248.399 94.7015 248.399 94.9015 248.399C95.1015 248.399 95.3016 248.199 95.5016 248.099C95.7016 247.999 95.8015 247.799 95.9015 247.599C96.0015 247.399 96.1016 247.199 96.1016 246.999L96.2015 246.599L95.5016 246.499Z" fill="white"/>
<path d="M99.4993 240.3L100.599 240.4L100.099 246.6L102.899 244.2L104.499 244.3L101.499 246.8L104.299 250.3H102.599L100.099 246.9L99.7993 250L98.6992 249.9L99.4993 240.3Z" fill="white"/>
<path d="M109.301 246C109.301 245.7 109.301 245.4 109.501 245.1C109.601 244.8 109.801 244.6 110.001 244.4C110.201 244.2 110.401 244 110.701 243.9C111.001 243.8 111.301 243.7 111.601 243.7C111.901 243.7 112.201 243.7 112.501 243.9C112.801 244 113.001 244.2 113.201 244.4C113.401 244.6 113.601 244.8 113.701 245.1C113.801 245.4 113.901 245.7 113.901 246C113.901 246.3 113.901 246.6 113.701 246.9C113.601 247.2 113.401 247.4 113.201 247.6C113.001 247.8 112.801 248 112.501 248.1C112.201 248.2 111.901 248.3 111.601 248.3C111.301 248.3 111.001 248.3 110.701 248.1C110.401 248 110.201 247.8 110.001 247.6C109.801 247.4 109.601 247.2 109.501 246.9C109.401 246.6 109.301 246.3 109.301 246Z" fill="white"/>
<path d="M127 243.8L127.7 248.2C127.5 248.4 127.3 248.5 127 248.7C126.7 248.8 126.5 249 126.2 249.1C125.9 249.2 125.6 249.3 125.3 249.4C125 249.5 124.7 249.5 124.4 249.6C123.6 249.7 122.9 249.7 122.3 249.5C121.7 249.3 121.1 249.1 120.6 248.7C120.1 248.3 119.7 247.9 119.4 247.4C119.1 246.9 118.9 246.3 118.8 245.7C118.7 245 118.7 244.4 118.9 243.8C119 243.2 119.3 242.6 119.6 242.2C119.9 241.7 120.4 241.3 120.9 241C121.4 240.7 122 240.5 122.7 240.3C123.5 240.2 124.2 240.2 124.8 240.3C125.4 240.4 125.8 240.6 126.2 240.9L125.5 242C125.1 241.7 124.6 241.5 124.2 241.4C123.8 241.3 123.3 241.3 122.9 241.4C122.4 241.5 121.9 241.6 121.6 241.9C121.2 242.2 120.9 242.5 120.7 242.8C120.5 243.2 120.3 243.6 120.2 244C120.1 244.5 120.1 244.9 120.2 245.4C120.3 245.9 120.4 246.4 120.7 246.8C120.9 247.2 121.2 247.5 121.6 247.8C122 248.1 122.4 248.3 122.8 248.4C123.2 248.5 123.7 248.5 124.2 248.5C124.6 248.4 125 248.3 125.4 248.2C125.8 248.1 126.1 247.9 126.3 247.7L125.9 245.2L123.9 245.5L123.7 244.4L127 243.8Z" fill="white"/>
<path d="M128.998 245.399C128.898 244.999 128.898 244.599 128.898 244.099C128.998 243.699 129.098 243.299 129.298 242.999C129.498 242.599 129.798 242.299 130.098 242.099C130.398 241.799 130.798 241.699 131.298 241.499C131.698 241.399 132.198 241.399 132.598 241.399C132.998 241.499 133.398 241.599 133.798 241.799C134.198 241.999 134.498 242.299 134.698 242.599C134.998 242.899 135.098 243.299 135.298 243.699C135.398 244.099 135.398 244.499 135.398 244.999C135.298 245.399 135.198 245.799 134.998 246.099C134.798 246.399 134.498 246.799 134.198 246.999C133.898 247.299 133.498 247.399 132.998 247.599C132.598 247.699 132.098 247.699 131.698 247.699C131.298 247.599 130.898 247.499 130.498 247.299C130.098 247.099 129.798 246.799 129.598 246.499C129.298 246.199 129.198 245.799 128.998 245.399ZM130.198 245.099C130.298 245.399 130.398 245.699 130.498 245.899C130.598 246.099 130.798 246.299 130.998 246.399C131.198 246.499 131.398 246.599 131.698 246.699C131.998 246.799 132.198 246.699 132.498 246.599C132.798 246.499 133.098 246.399 133.298 246.199C133.498 245.999 133.698 245.799 133.798 245.599C133.898 245.399 133.998 245.099 133.998 244.899C133.998 244.599 133.998 244.299 133.898 243.999C133.798 243.699 133.698 243.399 133.598 243.199C133.398 242.999 133.298 242.799 133.098 242.699C132.898 242.599 132.698 242.499 132.398 242.399C132.098 242.399 131.898 242.399 131.598 242.499C131.298 242.599 130.998 242.699 130.798 242.899C130.598 243.099 130.398 243.299 130.298 243.499C130.198 243.699 130.098 243.999 130.098 244.199C130.098 244.399 130.198 244.799 130.198 245.099Z" fill="white"/>
<path d="M134.801 236.9L135.901 236.5L138.901 245.7L137.801 246.1L134.801 236.9Z" fill="white"/>
<path d="M146.499 242.9L145.399 243.3L145.099 242.5C144.999 242.9 144.799 243.2 144.499 243.5C144.199 243.8 143.899 244 143.499 244.2C143.099 244.4 142.599 244.4 142.199 244.4C141.799 244.4 141.399 244.3 141.099 244.1C140.699 243.9 140.399 243.7 140.199 243.4C139.899 243.1 139.699 242.7 139.499 242.3C139.299 241.9 139.199 241.5 139.199 241.1C139.199 240.7 139.299 240.3 139.399 239.9C139.499 239.5 139.799 239.2 140.099 238.9C140.399 238.6 140.799 238.4 141.199 238.2C141.599 238 141.999 238 142.399 238C142.799 238 143.199 238.2 143.499 238.4L141.899 234.2L142.999 233.8L146.499 242.9ZM143.199 243.2C143.499 243.1 143.699 242.9 143.899 242.7C144.099 242.5 144.199 242.3 144.299 242.1C144.399 241.9 144.399 241.6 144.399 241.3C144.399 241 144.299 240.7 144.199 240.5C144.099 240.2 143.899 240 143.799 239.8C143.599 239.6 143.399 239.4 143.199 239.3C142.999 239.2 142.699 239.1 142.499 239.1C142.299 239.1 141.999 239.1 141.699 239.3C141.399 239.4 141.199 239.6 140.999 239.8C140.799 240 140.699 240.2 140.599 240.4C140.499 240.6 140.499 240.9 140.499 241.2C140.499 241.5 140.599 241.8 140.699 242C140.799 242.2 140.999 242.5 141.099 242.7C141.299 242.9 141.499 243.1 141.699 243.2C141.899 243.3 142.199 243.4 142.399 243.4C142.599 243.4 142.899 243.3 143.199 243.2Z" fill="white"/>
<path d="M154.102 231C153.702 230.8 153.302 230.8 152.902 230.8C152.502 230.8 152.102 231 151.702 231.2C151.302 231.4 150.902 231.8 150.602 232.1C150.302 232.5 150.202 232.9 150.102 233.3C150.002 233.7 150.002 234.2 150.102 234.7C150.202 235.2 150.302 235.6 150.602 236.1C150.802 236.5 151.102 236.9 151.502 237.2C151.902 237.5 152.202 237.7 152.602 237.9C153.002 238.1 153.402 238.1 153.902 238.1C154.402 238.1 154.802 237.9 155.302 237.7C155.802 237.4 156.102 237.1 156.302 236.8C156.502 236.5 156.702 236 156.702 235.5L158.002 235.7C158.002 235.8 157.902 236 157.902 236.2C157.802 236.4 157.702 236.7 157.602 237C157.502 237.3 157.202 237.6 156.902 237.9C156.602 238.2 156.302 238.5 155.802 238.7C155.202 239 154.502 239.2 153.902 239.3C153.302 239.3 152.702 239.3 152.102 239.1C151.502 238.9 151.002 238.6 150.602 238.2C150.102 237.8 149.802 237.4 149.502 236.9C149.202 236.3 148.902 235.7 148.902 235C148.802 234.4 148.802 233.8 149.002 233.2C149.202 232.6 149.402 232.1 149.802 231.6C150.202 231.1 150.702 230.7 151.302 230.4C151.802 230.1 152.402 229.9 153.002 229.8C153.602 229.7 154.202 229.8 154.702 230L154.102 231Z" fill="white"/>
<path d="M158.001 233.4C157.801 233 157.601 232.6 157.501 232.2C157.401 231.8 157.401 231.4 157.501 231C157.601 230.6 157.701 230.2 158.001 229.9C158.201 229.5 158.501 229.2 158.901 229C159.301 228.7 159.701 228.6 160.101 228.5C160.501 228.4 160.901 228.4 161.301 228.5C161.701 228.6 162.101 228.7 162.401 228.9C162.701 229.1 163.101 229.4 163.301 229.8C163.501 230.2 163.701 230.6 163.801 231C163.901 231.4 163.901 231.8 163.801 232.2C163.701 232.6 163.601 233 163.301 233.3C163.101 233.7 162.801 234 162.401 234.2C162.001 234.5 161.601 234.6 161.201 234.7C160.801 234.8 160.401 234.8 160.001 234.7C159.601 234.6 159.201 234.5 158.901 234.3C158.601 234.1 158.301 233.8 158.001 233.4ZM159.001 232.7C159.201 233 159.401 233.2 159.601 233.3C159.801 233.5 160.101 233.6 160.301 233.6C160.501 233.6 160.801 233.7 161.101 233.6C161.401 233.5 161.601 233.4 161.901 233.3C162.201 233.1 162.401 232.9 162.501 232.7C162.601 232.5 162.701 232.2 162.801 232C162.801 231.8 162.801 231.5 162.801 231.2C162.801 230.9 162.601 230.7 162.401 230.4C162.201 230.1 162.001 229.9 161.801 229.8C161.601 229.6 161.301 229.5 161.101 229.5C160.901 229.4 160.601 229.4 160.301 229.5C160.001 229.6 159.801 229.7 159.501 229.8C159.201 230 159.001 230.2 158.901 230.4C158.801 230.6 158.701 230.9 158.601 231.1C158.601 231.3 158.601 231.6 158.601 231.9C158.701 232.2 158.801 232.5 159.001 232.7Z" fill="white"/>
<path d="M162.602 226.499L163.502 225.799L164.102 226.499C164.002 226.199 164.002 225.799 164.202 225.399C164.402 224.999 164.602 224.699 165.002 224.399C165.202 224.199 165.502 224.099 165.702 223.999C166.002 223.899 166.202 223.899 166.502 223.899C166.802 223.899 167.002 223.999 167.302 224.199C167.602 224.399 167.802 224.599 168.102 224.899L170.602 227.899L169.702 228.599L167.402 225.799C167.202 225.599 167.002 225.399 166.902 225.299C166.802 225.199 166.502 225.099 166.402 225.099C166.202 225.099 166.102 225.099 165.902 225.199C165.702 225.299 165.602 225.299 165.402 225.499C165.202 225.699 165.102 225.799 165.002 225.999C164.902 226.199 164.802 226.399 164.802 226.599C164.802 226.799 164.802 227.099 164.902 227.299C165.002 227.599 165.202 227.799 165.402 228.099L167.402 230.499L166.502 231.199L162.602 226.499Z" fill="white"/>
<path d="M171.001 220.5L169.801 221.6L171.701 223.6C171.801 223.7 171.901 223.8 172.101 224C172.201 224.1 172.301 224.2 172.501 224.3C172.601 224.4 172.801 224.4 172.901 224.4C173.001 224.4 173.201 224.3 173.401 224.1C173.501 224 173.601 223.9 173.701 223.8C173.801 223.7 173.901 223.6 173.901 223.4L174.601 224.2C174.601 224.3 174.501 224.5 174.301 224.7C174.101 224.9 174.001 225 174.001 225.1C173.701 225.4 173.401 225.6 173.101 225.7C172.801 225.8 172.601 225.8 172.401 225.7C172.201 225.6 172.001 225.5 171.801 225.4C171.601 225.3 171.401 225.1 171.301 224.9L169.201 222.6L168.201 223.5L167.501 222.8L168.501 221.9L167.301 220.7L168.101 219.9L169.301 221.1L170.501 220L171.001 220.5Z" fill="white"/>
<path d="M171.398 218.8L172.198 218L172.898 218.6C172.798 218.4 172.798 218.3 172.798 218.1C172.798 217.9 172.798 217.7 172.898 217.6C172.898 217.4 172.998 217.2 173.098 217.1C173.198 216.9 173.298 216.8 173.398 216.6C173.498 216.5 173.698 216.4 173.798 216.3L174.698 217.2C174.598 217.2 174.498 217.3 174.498 217.4C174.398 217.5 174.398 217.5 174.298 217.6C173.898 218 173.698 218.4 173.698 218.9C173.698 219.3 173.998 219.8 174.398 220.2L176.598 222.3L175.798 223.1L171.398 218.8Z" fill="white"/>
<path d="M172.8 214.1C172.6 213.9 172.5 213.8 172.5 213.5C172.5 213.3 172.6 213.1 172.7 212.9C172.8 212.7 173 212.6 173.3 212.6C173.5 212.6 173.7 212.7 173.9 212.8C174.1 212.9 174.2 213.1 174.2 213.4C174.2 213.6 174.1 213.8 174 214C173.9 214.2 173.7 214.3 173.4 214.3C173.2 214.3 173 214.3 172.8 214.1ZM174.6 215.4L175.4 214.5L179.9 218.5L179.1 219.4L174.6 215.4Z" fill="white"/>
<path d="M173.699 211L174.399 210.1L177.899 212.9C177.799 212.5 177.799 212.2 177.899 211.7C177.999 211.3 178.199 210.9 178.399 210.6C178.699 210.2 178.999 209.9 179.399 209.8C179.799 209.7 180.099 209.5 180.499 209.5C180.899 209.5 181.299 209.5 181.699 209.6C182.099 209.7 182.499 209.9 182.799 210.2C183.199 210.5 183.399 210.8 183.599 211.1C183.799 211.5 183.899 211.8 183.999 212.2C184.099 212.6 183.999 213 183.899 213.4C183.799 213.8 183.599 214.2 183.299 214.5C182.999 214.8 182.699 215.1 182.399 215.3C181.999 215.5 181.599 215.6 181.199 215.6L181.899 216.1L181.199 217L173.699 211ZM182.499 213.9C182.699 213.7 182.799 213.4 182.899 213.1C182.999 212.8 182.999 212.6 182.899 212.3C182.899 212.1 182.799 211.8 182.599 211.6C182.499 211.4 182.299 211.2 181.999 211C181.799 210.8 181.499 210.7 181.199 210.6C180.899 210.5 180.699 210.5 180.399 210.5C180.199 210.5 179.899 210.6 179.699 210.7C179.499 210.8 179.299 211 179.099 211.3C178.899 211.5 178.799 211.8 178.699 212.1C178.599 212.4 178.599 212.6 178.699 212.9C178.699 213.1 178.799 213.4 178.999 213.6C179.199 213.8 179.299 214 179.599 214.2C179.799 214.4 180.099 214.5 180.399 214.6C180.699 214.7 180.899 214.7 181.199 214.7C181.399 214.7 181.699 214.6 181.899 214.5C182.099 214.3 182.299 214.2 182.499 213.9Z" fill="white"/>
<path d="M189.199 206L188.599 207L187.799 206.5C187.999 206.8 188.099 207.2 187.999 207.6C187.899 208 187.799 208.4 187.599 208.8C187.399 209 187.199 209.3 186.999 209.4C186.799 209.6 186.499 209.7 186.299 209.8C185.999 209.9 185.699 209.9 185.399 209.8C185.099 209.7 184.799 209.6 184.399 209.4L181.199 207.3L181.799 206.3L184.799 208.3C184.999 208.5 185.299 208.6 185.499 208.6C185.699 208.6 185.899 208.6 186.099 208.6C186.299 208.6 186.399 208.5 186.599 208.4C186.799 208.3 186.899 208.2 186.999 208C187.099 207.8 187.199 207.6 187.299 207.4C187.299 207.2 187.299 207 187.299 206.8C187.199 206.6 187.099 206.4 186.999 206.2C186.799 206 186.599 205.8 186.299 205.6L183.699 203.9L184.299 202.9L189.199 206Z" fill="white"/>
<path d="M187.402 198.9L186.602 200.3L189.002 201.7C189.102 201.8 189.302 201.9 189.402 201.9C189.502 201.9 189.702 202 189.802 202C189.902 202 190.102 202 190.202 201.9C190.302 201.8 190.402 201.7 190.602 201.5C190.702 201.4 190.702 201.3 190.802 201.1C190.902 200.9 190.902 200.8 190.902 200.7L191.802 201.2C191.802 201.4 191.802 201.5 191.702 201.7C191.602 201.9 191.502 202.1 191.502 202.2C191.302 202.6 191.102 202.9 190.802 203C190.502 203.1 190.302 203.2 190.102 203.2C189.902 203.2 189.602 203.2 189.402 203.1C189.202 203 189.002 202.9 188.702 202.8L186.002 201.2L185.302 202.4L184.402 201.9L185.102 200.7L183.602 199.9L184.202 198.9L185.702 199.7L186.502 198.3L187.402 198.9Z" fill="white"/>
<path d="M189.8 198.8C189.4 198.6 189.1 198.4 188.8 198C188.5 197.7 188.3 197.3 188.2 196.9C188.1 196.5 188 196.1 188 195.7C188 195.3 188.1 194.9 188.3 194.5C188.5 194.1 188.8 193.7 189.1 193.5C189.4 193.3 189.8 193 190.2 192.9C190.6 192.8 191 192.7 191.4 192.7C191.8 192.7 192.2 192.8 192.6 193C193 193.2 193.3 193.4 193.6 193.8C193.9 194.2 194.1 194.5 194.2 194.9C194.3 195.3 194.4 195.7 194.4 196.1C194.4 196.5 194.3 196.9 194.1 197.3C193.9 197.7 193.6 198.1 193.3 198.3C193 198.5 192.6 198.8 192.2 198.9C191.8 199 191.4 199.1 191 199.1C190.7 199.1 190.2 199 189.8 198.8ZM190.4 197.7C190.7 197.8 191 197.9 191.2 197.9C191.5 197.9 191.7 197.9 192 197.8C192.2 197.7 192.5 197.6 192.7 197.4C192.9 197.2 193.1 197 193.2 196.7C193.3 196.4 193.4 196.2 193.4 195.9C193.4 195.6 193.4 195.4 193.3 195.1C193.2 194.9 193.1 194.7 192.9 194.5C192.7 194.3 192.5 194.1 192.2 194C191.9 193.9 191.6 193.8 191.4 193.8C191.1 193.8 190.9 193.8 190.6 193.9C190.3 194 190.1 194.1 189.9 194.3C189.7 194.5 189.5 194.7 189.4 195C189.3 195.3 189.2 195.5 189.2 195.8C189.2 196.1 189.2 196.3 189.3 196.6C189.4 196.8 189.5 197 189.7 197.2C189.9 197.4 190.1 197.6 190.4 197.7Z" fill="white"/>
<path d="M190.398 190.4L190.798 189.3L191.698 189.6C191.598 189.5 191.498 189.3 191.398 189.2C191.298 189 191.298 188.9 191.198 188.7C191.198 188.5 191.198 188.3 191.198 188.1C191.198 187.9 191.298 187.7 191.298 187.5C191.398 187.3 191.498 187.2 191.598 187.1L192.698 187.6C192.598 187.7 192.598 187.8 192.498 187.8C192.498 187.9 192.398 188 192.398 188.1C192.198 188.6 192.198 189.1 192.398 189.5C192.598 189.9 192.998 190.2 193.598 190.5L196.398 191.6L195.998 192.7L190.398 190.4Z" fill="white"/>
<defs>
<filter id="filter0_ii" x="0" y="49" width="218" height="218" filterUnits="userSpaceOnUse" color-interpolation-filters="sRGB">
<feFlood flood-opacity="0" result="BackgroundImageFix"/>
<feBlend mode="normal" in="SourceGraphic" in2="BackgroundImageFix" result="shape"/>
<feColorMatrix in="SourceAlpha" type="matrix" values="0 0 0 0 0 0 0 0 0 0 0 0 0 0 0 0 0 0 127 0" result="hardAlpha"/>
<feOffset/>
<feGaussianBlur stdDeviation="4"/>
<feComposite in2="hardAlpha" operator="arithmetic" k2="-1" k3="1"/>
<feColorMatrix type="matrix" values="0 0 0 0 0.9875 0 0 0 0 0.722843 0 0 0 0 0.386771 0 0 0 1 0"/>
<feBlend mode="normal" in2="shape" result="effect1_innerShadow"/>
<feColorMatrix in="SourceAlpha" type="matrix" values="0 0 0 0 0 0 0 0 0 0 0 0 0 0 0 0 0 0 127 0" result="hardAlpha"/>
<feOffset/>
<feGaussianBlur stdDeviation="6"/>
<feComposite in2="hardAlpha" operator="arithmetic" k2="-1" k3="1"/>
<feColorMatrix type="matrix" values="0 0 0 0 0 0 0 0 0 0 0 0 0 0 0 0 0 0 0.2 0"/>
<feBlend mode="normal" in2="effect1_innerShadow" result="effect2_innerShadow"/>
</filter>
<filter id="filter1_i" x="59" y="108" width="100" height="100" filterUnits="userSpaceOnUse" color-interpolation-filters="sRGB">
<feFlood flood-opacity="0" result="BackgroundImageFix"/>
<feBlend mode="normal" in="SourceGraphic" in2="BackgroundImageFix" result="shape"/>
<feColorMatrix in="SourceAlpha" type="matrix" values="0 0 0 0 0 0 0 0 0 0 0 0 0 0 0 0 0 0 127 0" result="hardAlpha"/>
<feOffset/>
<feGaussianBlur stdDeviation="6"/>
<feComposite in2="hardAlpha" operator="arithmetic" k2="-1" k3="1"/>
<feColorMatrix type="matrix" values="0 0 0 0 0.75 0 0 0 0 0.525098 0 0 0 0 0.00937498 0 0 0 1 0"/>
<feBlend mode="normal" in2="shape" result="effect1_innerShadow"/>
</filter>
<filter id="filter2_d" x="82.168" y="132" width="53.6667" height="52" filterUnits="userSpaceOnUse" color-interpolation-filters="sRGB">
<feFlood flood-opacity="0" result="BackgroundImageFix"/>
<feColorMatrix in="SourceAlpha" type="matrix" values="0 0 0 0 0 0 0 0 0 0 0 0 0 0 0 0 0 0 127 0"/>
<feOffset/>
<feGaussianBlur stdDeviation="0.5"/>
<feColorMatrix type="matrix" values="0 0 0 0 0.320833 0 0 0 0 0.320833 0 0 0 0 0.320833 0 0 0 0.25 0"/>
<feBlend mode="normal" in2="BackgroundImageFix" result="effect1_dropShadow"/>
<feBlend mode="normal" in="SourceGraphic" in2="effect1_dropShadow" result="shape"/>
</filter>
<linearGradient id="paint0_linear" x1="51.775" y1="56.4937" x2="233.571" y2="235.338" gradientUnits="userSpaceOnUse">
<stop stop-color="white"/>
<stop offset="1" stop-color="#E3BC43"/>
</linearGradient>
<linearGradient id="paint1_linear" x1="174.52" y1="212.6" x2="38.8" y2="106.52" gradientUnits="userSpaceOnUse">
<stop stop-color="#FFFEFB"/>
<stop offset="1" stop-color="#8C6A00" stop-opacity="0"/>
</linearGradient>
<linearGradient id="paint2_linear" x1="194.68" y1="229.4" x2="17.2" y2="90.68" gradientUnits="userSpaceOnUse">
<stop stop-color="#FFFEFC"/>
<stop offset="1" stop-color="#8C6A00" stop-opacity="0"/>
</linearGradient>
</defs>
</svg>
