<svg width="21" height="20" viewBox="0 0 21 20" fill="none" xmlns="http://www.w3.org/2000/svg">
    <path d="M19.4637 0H1.06554C0.623089 0 0.265625 0.357464 0.265625 0.79992V19.1981C0.265625 19.6405 0.623089 19.998 1.06554 19.998H19.4637C19.9062 19.998 20.2636 19.6405 20.2636 19.1981V0.79992C20.2636 0.357464 19.9062 0 19.4637 0ZM6.19753 17.0408H3.23033V7.49675H6.19753V17.0408ZM4.71518 6.19188C4.37503 6.19188 4.04252 6.09101 3.75969 5.90204C3.47687 5.71306 3.25644 5.44446 3.12627 5.1302C2.9961 4.81594 2.96204 4.47014 3.0284 4.13653C3.09476 3.80292 3.25856 3.49647 3.49908 3.25595C3.7396 3.01543 4.04604 2.85163 4.37966 2.78527C4.71327 2.71891 5.05907 2.75297 5.37333 2.88314C5.68759 3.01331 5.95619 3.23374 6.14516 3.51657C6.33414 3.79939 6.43501 4.1319 6.43501 4.47205C6.43251 5.42196 5.66258 6.19188 4.71518 6.19188ZM17.3064 17.0408H14.3417V12.3988C14.3417 11.2914 14.3217 9.86901 12.7994 9.86901C11.257 9.86901 11.0195 11.0739 11.0195 12.3188V17.0408H8.05734V7.49675H10.9021V8.80162H10.9421C11.337 8.05169 12.3044 7.25927 13.7493 7.25927C16.754 7.25927 17.3064 9.23657 17.3064 11.8063V17.0408Z" fill="#007BFF"/>
</svg>
