<svg width="120" height="120" viewBox="0 0 120 120" fill="none" xmlns="http://www.w3.org/2000/svg">
    <path fill-rule="evenodd" clip-rule="evenodd" d="M20.0281 50.8393C19.2258 51.6415 19.2734 52.9443 19.9587 53.8485C21.39 55.7367 22.2392 58.0905 22.2392 60.6426C22.2392 63.0095 21.5087 65.2058 20.261 67.0184C19.6371 67.9247 19.6236 69.1768 20.4016 69.9548C21.1861 70.7393 22.4712 70.7429 23.142 69.8592C25.0857 67.2986 26.2392 64.1053 26.2392 60.6426C26.2392 56.9271 24.9111 53.5218 22.7038 50.8754C22.018 50.0532 20.7853 50.0821 20.0281 50.8393ZM26.7561 73.4956C26.0596 74.3495 26.0533 75.6064 26.8325 76.3857C27.6155 77.1687 28.8927 77.1716 29.6064 76.3249C33.1769 72.0885 35.3285 66.6169 35.3285 60.6429C35.3285 54.4293 33.001 48.7594 29.1702 44.4574C28.4485 43.647 27.2016 43.6658 26.4343 44.4331C25.6405 45.2269 25.6657 46.5135 26.3986 47.3638C29.4709 50.9277 31.3285 55.5684 31.3285 60.6429C31.3285 65.5174 29.6144 69.9916 26.7561 73.4956ZM33.6704 80.4041C32.9458 81.2354 32.9418 82.495 33.7216 83.2748C34.504 84.0572 35.7778 84.0595 36.5113 83.2311C41.8365 77.2171 45.0693 69.3076 45.0693 60.6431C45.0693 51.7449 41.6598 43.643 36.0759 37.5726C35.3371 36.7695 34.0843 36.7831 33.3126 37.5548C32.5226 38.3448 32.5394 39.625 33.2894 40.4531C38.1241 45.7916 41.0693 52.8734 41.0693 60.6431C41.0693 68.2065 38.2785 75.118 33.6704 80.4041Z" fill="white"/>
    <mask id="mask0" mask-type="alpha" maskUnits="userSpaceOnUse" x="0" y="0" width="120" height="120">
        <circle cx="60" cy="60" r="60" fill="#42B2C6"/>
    </mask>
    <g mask="url(#mask0)">
        <path fill-rule="evenodd" clip-rule="evenodd" d="M140.571 5.14307H91.2857V6.85735H93C91.2857 6.85735 91.2857 6.85847 91.2857 6.85847V38.5106C87.533 35.9855 83.7391 34.8804 80.1362 34.9223C75.6354 34.9747 71.6044 36.8153 68.4986 39.5988C62.3793 45.0831 59.4932 54.6497 64.1098 62.182C68.1932 68.8444 71.7399 74.3256 74.2669 78.143C75.5305 80.0519 76.5394 81.545 77.2333 82.5623C77.5803 83.0709 77.8485 83.4605 78.0304 83.7237C78.1214 83.8553 78.1908 83.9552 78.2377 84.0226L78.3099 84.1262C78.3308 84.1561 78.3527 84.1854 78.3756 84.2139C80.517 86.8909 83.7162 87.7888 86.5655 86.8629C87.9283 86.4199 89.1434 85.5849 90.0959 84.4216L98.5594 114.429H140.571V5.14307ZM81.9512 69.4266C80.0492 67.5246 78.977 64.9473 78.9685 62.2575C78.9515 60.2506 79.5279 58.2833 80.6253 56.6029C81.7228 54.9225 83.2923 53.6038 85.1367 52.8125C84.5541 51.6507 83.5951 50.7205 82.4161 50.1736C81.237 49.6266 79.9075 49.4953 78.6442 49.8008C77.381 50.1064 76.2585 50.8309 75.4597 51.8562C74.661 52.8815 74.2332 54.1472 74.2459 55.4468C74.2459 55.8728 74.0767 56.2814 73.7755 56.5826C73.4742 56.8839 73.0657 57.0531 72.6396 57.0531C72.2136 57.0531 71.8051 56.8839 71.5038 56.5826C71.2026 56.2814 71.0333 55.8728 71.0333 55.4468C71.0385 53.2241 71.8664 51.082 73.3574 49.4336C74.8484 47.7852 76.8969 46.7471 79.108 46.5196C81.319 46.2921 83.536 46.8913 85.3314 48.2016C87.1268 49.5119 88.3735 51.4405 88.8312 53.6156C88.909 54.0278 88.8258 54.4541 88.5986 54.8067C88.3715 55.1593 88.0178 55.4114 87.6104 55.5111C85.9675 55.9056 84.5251 56.886 83.5536 58.2684C82.5821 59.6507 82.1483 61.34 82.3335 63.0194C82.5188 64.6988 83.3105 66.2529 84.56 67.3902C85.8094 68.5275 87.431 69.1698 89.1203 69.1968C89.5463 69.1968 89.9549 69.366 90.2561 69.6672C90.5574 69.9685 90.7266 70.377 90.7266 70.8031C90.7184 71.2265 90.5465 71.6303 90.247 71.9298C89.9476 72.2293 89.5438 72.4011 89.1203 72.4094C86.4305 72.4009 83.8533 71.3286 81.9512 69.4266Z" fill="white"/>
    </g>
</svg>
