<svg width="24" height="24" viewBox="0 0 24 24" fill="none" xmlns="http://www.w3.org/2000/svg">
    <g opacity="0.8">
        <path d="M2.64872 10.0242L0.601562 6.50354H1.77731V0.5H12.3612V2.16181H3.37125V6.50354H4.54699L2.64872 10.0242ZM14.8507 8.68425H12.9392L16.4752 0.5H17.8918L21.395 8.69301H19.4595L18.7304 6.89326H15.5557L14.8507 8.68425ZM16.1643 5.36063H18.1349L17.1452 2.78362L16.1643 5.36063ZM5.52788 13.7463H6.5219V16.4459C6.28795 16.564 6.02852 16.6227 5.76653 16.6167C5.47446 16.6119 5.18917 16.5279 4.9411 16.3737C4.8267 16.2742 4.70017 16.1896 4.56451 16.1219C4.78759 15.907 4.96307 15.6476 5.07961 15.3606C5.19615 15.0736 5.25115 14.7653 5.24106 14.4557C5.24106 13.0785 4.36527 12.1546 3.05158 12.1546C2.65608 12.1488 2.26598 12.2469 1.92022 12.4389C1.57445 12.631 1.2851 12.9105 1.08106 13.2493L1.01975 13.3522L2.08822 14.5455L2.1955 14.3397C2.26182 14.1766 2.37504 14.037 2.52082 13.9384C2.6666 13.8397 2.83837 13.7866 3.01436 13.7857C3.43693 13.7857 3.70186 14.0966 3.70186 14.5958C3.70186 14.9571 3.588 15.5636 2.82607 15.5636H2.29622V17.1925H3.05815C3.69967 17.1925 4.02371 17.4816 4.02371 18.053C4.02371 18.5216 3.78725 19.0208 3.12603 19.0208C2.36409 19.0208 1.94809 18.3639 1.83862 18.145L1.72914 17.9435L0.601562 19.22L0.669436 19.3229C0.932106 19.7343 1.29435 20.0728 1.72261 20.3071C2.15088 20.5413 2.63132 20.6637 3.11946 20.6629C4.55575 20.6629 5.5651 19.6097 5.60013 18.0902C5.90031 18.194 6.2251 18.2031 6.53066 18.1165V21.3H8.1443V13.7463H9.68788V21.3H11.3015V13.7463H12.5408V12.2137H5.52788V13.7463ZM17.4539 14.5783H18.6297V19.4389H13.3049V21.3H20.2236V14.5783H21.4016L19.3522 10.6219L17.4539 14.5783Z" fill="white"/>
    </g>
</svg>
