<?xml version="1.0" encoding="UTF-8"?>
<!DOCTYPE svg PUBLIC "-//W3C//DTD SVG 1.1//EN" "http://www.w3.org/Graphics/SVG/1.1/DTD/svg11.dtd">
<!-- Creator: CorelDRAW X7 -->
<svg xmlns="http://www.w3.org/2000/svg" xml:space="preserve" width="3.93701in" height="3.93701in" version="1.1" style="shape-rendering:geometricPrecision; text-rendering:geometricPrecision; image-rendering:optimizeQuality; fill-rule:evenodd; clip-rule:evenodd"
viewBox="0 0 3937 3937"
 xmlns:xlink="http://www.w3.org/1999/xlink">
 <defs>
  <style type="text/css">
   <![CDATA[
    .fil18 {fill:#FDE9E2}
    .fil17 {fill:#ED3237}
    .fil19 {fill:#FDE9E2;fill-rule:nonzero}
    .fil4 {fill:#FDB92E;fill-rule:nonzero}
    .fil2 {fill:#F9A33C;fill-rule:nonzero}
    .fil15 {fill:#EF4B4A;fill-rule:nonzero}
    .fil9 {fill:#EE3F3E;fill-rule:nonzero}
    .fil21 {fill:#EEF1E7;fill-rule:nonzero}
    .fil20 {fill:#E8E3F1;fill-rule:nonzero}
    .fil8 {fill:#EBE842;fill-rule:nonzero}
    .fil1 {fill:#DFE67D;fill-rule:nonzero}
    .fil3 {fill:#ACD79E;fill-rule:nonzero}
    .fil14 {fill:#97B55F;fill-rule:nonzero}
    .fil10 {fill:#8E699F;fill-rule:nonzero}
    .fil7 {fill:#67BD51;fill-rule:nonzero}
    .fil13 {fill:#694B9C;fill-rule:nonzero}
    .fil6 {fill:#2E5FA7;fill-rule:nonzero}
    .fil11 {fill:#3A325A;fill-rule:nonzero}
    .fil5 {fill:#3150A0;fill-rule:nonzero}
    .fil16 {fill:#354D8F;fill-rule:nonzero}
    .fil12 {fill:url(#id1)}
    .fil0 {fill:url(#id2)}
   ]]>
  </style>
    <clipPath id="id0">
     <path d="M1270 3167c-4,-9 -10,-15 -19,-19l-1 1c0,16 -16,22 -27,20 -8,-2 -14,-7 -20,-12 -6,-6 -11,-13 -16,-21l1 0 3 2c6,7 12,13 19,18 8,4 16,6 24,3 9,-4 13,-15 8,-23 -3,-6 -9,-8 -15,-5l1 1c3,4 3,7 1,10 -2,3 -6,5 -10,4 -4,-1 -7,-4 -7,-8 -1,-5 1,-9 5,-12 -5,-3 -9,-5 -15,-3 -4,2 -9,3 -13,5 -4,2 -7,1 -9,-2l3 -1c24,-9 49,-17 73,-26 4,-1 6,0 8,3 -4,1 -8,2 -12,4 8,21 15,43 23,64l-2 1c-1,-1 -2,-2 -3,-4zm-25 -33c4,6 11,9 16,15 -5,-14 -9,-27 -14,-41 -11,4 -21,7 -32,11l1 2 4 2 2 1c2,-1 4,-1 5,-1 8,0 14,4 18,11z"/>
    </clipPath>
  <linearGradient id="id1" gradientUnits="userSpaceOnUse" x1="1798.65" y1="922.976" x2="1861.3" y2="1258.87">
   <stop offset="0" style="stop-opacity:1; stop-color:#FEFEFE"/>
   <stop offset="1" style="stop-opacity:1; stop-color:#F89B4F"/>
  </linearGradient>
  <linearGradient id="id2" gradientUnits="userSpaceOnUse" x1="2041.69" y1="1811.94" x2="1962.48" y2="1517.93">
   <stop offset="0" style="stop-opacity:1; stop-color:#FEFEFE"/>
   <stop offset="1" style="stop-opacity:1; stop-color:#30924F"/>
  </linearGradient>
 </defs>
 <g id="Layer_x0020_1">
  <metadata id="CorelCorpID_0Corel-Layer"/>
  <g id="_852862320">
   <g>
    <g>
     <path class="fil0" d="M2462 1529c-1,-4 -2,-9 -5,-11 -3,-2 -8,1 -8,4 -1,4 0,9 6,10 3,1 5,0 7,-3zm-981 42c11,-2 22,-2 33,-12 -13,4 -24,4 -33,12zm850 208c-7,-2 -15,-4 -23,-2 7,9 15,6 23,2zm-1162 -14c-4,0 -7,0 -10,0 -2,0 -7,-1 -7,1 3,4 -1,7 0,11 3,-1 6,-1 9,-3 3,-2 8,-2 8,-9zm886 -293c10,-1 20,-2 33,-3 -14,-11 -23,-2 -33,3zm-316 199c6,1 10,9 14,3 5,-5 -2,-12 -1,-18 -9,2 -5,13 -13,15zm29 -1c12,-3 20,-6 28,-8 3,0 5,-1 5,-3 0,-3 -3,-5 -6,-5 -10,1 -18,6 -27,16zm-56 -3c-5,10 -14,14 -11,23 1,2 10,0 13,-3 8,-7 -2,-10 -2,-20zm126 -232c12,4 29,0 37,-6 -14,-3 -25,2 -37,6zm-218 96c-15,-1 -29,5 -42,12 14,-3 29,-3 42,-12zm930 12c-2,13 0,16 2,14 7,-9 15,-4 22,-1 3,2 7,3 8,-1 1,-4 -3,-6 -6,-6 -8,-2 -17,-4 -26,-6zm-1269 159c-2,-6 -8,-5 -8,-5 -9,10 -22,13 -33,18 -3,1 -2,3 -1,5 0,2 2,3 4,1 12,-6 25,-13 38,-19zm1182 -154c-23,-6 -49,3 -67,-18 -2,-1 -6,-1 -8,-1 -3,1 -4,7 -2,7 12,-2 18,13 27,14 17,1 34,4 50,-2zm-736 36c-20,3 -40,1 -57,16 8,4 13,2 17,-2 5,-4 12,-4 14,-2 14,9 21,2 26,-12zm-349 58c-30,11 -59,25 -87,40 -4,2 -6,5 -4,8 2,4 6,0 8,-1 8,-4 13,-12 22,-15 23,-6 40,-22 61,-32zm808 -148c21,13 41,7 66,1 -25,-11 -45,-4 -66,-1zm24 69c17,6 32,0 49,-2 -6,-6 -30,-3 -9,-19 2,-2 2,-8 -1,-10 -5,-2 -10,-4 -16,-4 -2,0 -1,5 0,7 5,17 5,17 -13,21 -3,1 -7,2 -10,7zm323 -35l0 2c16,3 32,8 49,11 4,0 8,0 10,4 3,8 9,7 15,5 7,-2 14,-5 21,-8 -3,-2 -6,-3 -9,-4 -16,-4 -34,-2 -46,-16 -3,-3 -4,-3 -6,0 -7,9 -15,13 -26,6 -2,-1 -5,0 -8,0zm-877 77c-7,-3 -16,-5 -25,3 -3,4 -9,5 -14,4 -12,-3 -21,3 -29,9 -7,4 -18,6 -22,18 34,-5 67,-10 90,-34zm1183 28c-13,-21 -55,-37 -81,-29 -5,1 -9,3 -12,-2 -5,-10 -15,-10 -26,-16 11,27 33,27 54,31 2,-2 -5,-7 0,-9 4,-1 9,2 8,3 -1,10 8,9 10,9 16,-5 27,5 38,12 3,2 6,3 9,1zm-1390 57c6,-8 11,-12 18,-13 27,-4 51,-16 75,-24 3,-1 5,-3 8,-4 5,-2 5,-6 4,-11 -1,-5 -5,-3 -8,-2 -10,0 -17,7 -25,9 -18,5 -38,9 -57,7 -4,0 -8,0 -9,3 -10,17 -34,4 -45,20l-4 0c-7,-3 -12,2 -18,4 -18,6 -32,21 -52,23 -15,2 -26,9 -34,23 7,-8 15,-5 23,-6 7,-1 15,-3 22,-5 11,-3 24,-2 34,-9 1,-2 6,-2 4,-5 -5,-10 2,-7 6,-7 8,0 9,0 8,-1 -8,-11 5,-6 7,-7 10,-6 22,-1 33,-7 10,-6 11,0 10,12zm-142 346c4,-12 9,-22 23,-23 8,0 10,-6 7,-13 -5,-16 10,-45 27,-50 28,-9 -82,102 -57,86 12,-8 15,-21 18,-33 2,-11 24,-26 35,-22 12,5 25,3 37,5 4,1 9,-3 9,-7 0,-5 -5,-4 -9,-4 -8,0 -20,3 -21,-7 -2,-11 11,-9 19,-11 19,-3 39,-4 55,-17 2,-2 9,-3 5,-9 -4,-5 -9,-4 -12,-1 -9,10 -21,10 -33,13 -9,1 -7,-3 -5,-7 10,-21 28,-31 49,-35 10,-2 19,-2 25,-11l3 -2c6,-6 13,-2 16,1 4,5 -2,9 -6,11 -8,6 -18,9 -20,20 7,4 15,2 22,1 10,0 19,-3 25,9 2,4 8,5 12,3 14,-7 30,-12 38,-27 3,-7 7,-10 15,-11 12,-2 20,-14 34,-12 4,0 7,0 11,1 7,2 13,2 17,-6 2,-6 7,-10 15,-11 6,-1 14,-7 11,-14 -2,-7 -10,-10 -18,-6 -7,2 -13,5 -18,11 -8,8 -18,10 -29,11 -30,5 -60,11 -93,16 8,-13 19,-17 30,-20 11,-2 16,-4 12,-17 -3,-15 -99,18 -84,15 8,-2 109,-49 109,-53 0,-6 -6,-3 -9,-4 -7,-1 -13,2 -17,7 -4,6 -9,5 -15,4 -2,0 -4,-5 -4,-8 0,-6 -97,35 -92,33 16,-7 135,-51 151,-65 -22,3 -41,7 -59,14 -15,6 -30,10 -45,17 -39,20 -178,62 -219,79 -5,2 -12,9 -16,2 -2,-6 7,-8 12,-10 29,-16 157,-58 188,-69 7,-2 10,-8 15,-10 46,-16 89,-40 136,-54 9,-2 16,-11 23,-18 -6,-4 -17,7 -18,-4 -2,-11 14,-3 18,-10 -14,-6 -25,-1 -27,12 -1,6 -4,7 -9,6 -10,0 -19,2 -27,9 -10,8 -24,8 -36,8 -12,0 -20,4 -25,15 -6,11 -15,18 -28,16 -3,0 -6,-1 -6,4 0,3 -3,5 -6,5 -31,8 -151,61 -183,67 -13,3 -25,14 -40,14 -9,0 -20,0 -23,-11 -2,-11 2,-19 13,-25 7,-4 113,-37 118,-44 8,-10 17,-12 29,-9 19,5 39,6 58,-3 3,-1 12,-2 5,-10 -2,-2 -9,-3 -4,-7 4,-3 11,-8 15,-3 15,18 26,3 35,-6 15,-15 33,-22 55,-20 6,1 8,-5 13,-10 -9,0 -15,-1 -22,-1 -4,0 -8,0 -8,-5 0,-4 2,-8 7,-9 13,-1 23,-8 32,-17 8,-8 21,-8 32,-8 5,0 9,1 12,-3 8,-10 19,-9 28,-3 8,4 13,3 17,-4 3,-8 9,-11 16,-11 20,-1 34,-17 54,-19 4,0 5,-7 4,-10 -1,-4 -5,-7 -11,-7 -17,3 -32,9 -46,20 -12,9 -29,12 -45,4 -4,-3 -10,-3 -12,2 -3,11 -13,10 -20,13 -10,3 -21,5 -28,14 -8,9 -21,5 -31,11 -17,10 -38,10 -57,19 -2,0 -3,1 -5,0 -6,-7 -24,-12 -36,-11 -2,-4 6,-3 4,-7 -2,-2 -5,-2 -8,0 -7,3 -14,5 -20,8 -5,3 -9,6 -15,9 20,5 28,9 45,18 -22,24 -124,62 -158,56 14,-10 71,-44 84,-53 2,-2 6,-2 5,-5 -3,-7 -5,0 -7,0 -13,1 -22,13 -35,14l1 0c-4,-3 -1,-8 -3,-14 -9,15 -24,9 -34,7 -13,-2 -18,6 -27,10l0 0c-8,3 -15,9 -21,11 -13,5 -22,13 -31,23 -5,5 -18,6 -27,10 4,-10 8,-17 14,-22 -30,8 -55,25 -83,36 -28,12 -26,-5 -54,6 -24,10 25,-5 0,0 12,-22 16,-29 42,-39 8,-2 -81,63 -74,58 2,-1 9,-5 6,5 -1,1 3,1 4,0 1,-3 7,-3 5,-5 -8,-7 1,-7 3,-10 19,-21 45,-30 69,-40 5,-2 11,-3 10,-11 0,-9 12,-3 13,-11 -7,-6 -31,-5 -43,4 -16,12 -35,20 -52,30 -23,15 50,-36 26,-23 -10,6 -20,10 -29,17 0,-5 12,-14 -4,-13 -4,0 -7,5 -12,4l0 -3c19,-9 32,-27 51,-36 16,-7 -72,40 -52,39 2,0 -3,-10 4,-13 -5,-2 -6,1 -8,3 -2,1 -4,4 -7,1 9,-2 -6,-8 2,-11 9,-3 16,-10 22,-19 2,-3 5,-8 12,-5 5,1 9,-5 13,-8 4,-3 7,-8 16,-6 -10,7 -14,15 -13,27 13,-8 27,-15 39,-24 4,-3 8,-3 13,-6 2,-2 4,-2 4,4 0,5 5,1 8,0 9,-6 19,-11 29,-15 -10,6 -21,13 -31,19 0,2 1,3 2,5 94,-46 189,-91 288,-133 -25,-4 -42,9 -60,18 -9,5 -17,8 -27,3 -6,-3 -15,-1 -23,-1 -6,0 -12,-1 -14,-8 -2,-7 5,-8 9,-12 15,-13 36,-11 53,-19 7,-4 16,-3 22,-10 3,-4 8,-6 13,-6 17,-2 32,-9 48,-14 15,-5 32,-5 47,-13 31,-18 67,-25 101,-37 43,-15 87,-23 131,-31 6,-1 11,-6 17,-6 -12,-2 -23,2 -35,4 -9,1 -18,3 -27,4 -2,1 -6,3 -7,-1 -1,-4 1,-7 5,-8 9,-2 18,-3 26,-6 33,-11 67,-16 101,-25 4,-1 9,-1 13,2 -15,10 -33,6 -52,15 45,1 81,-19 121,-22 40,-2 80,-1 118,-11 2,7 -8,4 -4,13 -1,-2 -1,-1 0,-1 10,-1 22,5 31,-6l4 -1c18,9 34,-6 50,-3 26,4 52,-6 77,-1 8,2 16,2 22,-3 12,-10 26,-7 39,-6 17,2 34,4 51,0 3,-1 7,-2 10,-1 35,7 72,-2 107,2 35,4 70,1 105,4 13,1 21,10 32,15 3,-5 -2,-8 -1,-13 6,0 9,2 8,9 0,3 0,6 3,7 4,1 6,0 7,-4 3,-8 8,-4 12,-1 9,5 16,9 21,-4 2,-3 5,-4 7,-3 8,2 16,2 23,4 34,9 68,17 101,28 17,6 37,10 56,11 13,0 18,12 26,20 -12,-6 -25,-4 -37,-4 -1,0 -3,0 -4,-1 -8,-16 -18,-8 -29,-3 -10,4 -21,1 -32,-4 -10,-5 -20,-12 -32,-7 -4,2 -6,-2 -9,-3 -4,-1 -9,-8 -14,1 -1,2 -5,3 -7,1 -20,-12 -44,-3 -65,-10 -24,-9 -50,-3 -74,-11 -2,0 -4,-2 -5,0 -5,13 -14,7 -22,5 -9,-1 -18,-1 -27,-1 -8,0 -15,1 -22,-5 -2,-1 -6,-1 -8,-1 -21,10 -44,4 -66,6 -20,2 -41,-3 -61,-5 -4,-1 -7,-1 -11,0 -9,5 -17,5 -27,2 -15,-5 -29,4 -44,3 -5,0 -2,4 -2,6 -2,5 2,4 4,4 7,1 13,0 14,9 1,8 9,8 15,6 18,-6 37,-3 55,-4 29,-3 58,-6 87,-4 38,3 76,-1 114,5 42,6 84,4 126,14 15,4 31,2 47,6 11,3 21,7 33,8 8,1 13,-5 18,-4 27,8 57,7 80,27 2,2 8,4 5,8 -3,5 -6,-1 -8,-1 -3,-1 -6,-3 -8,-2 -22,8 -39,-8 -58,-11 -22,-2 -43,-11 -65,-9 -2,0 -2,0 -1,3l1 3c-3,1 -6,4 -9,3 -7,-2 -14,-4 -20,-8 -8,-5 -15,-5 -24,-3 -14,4 -29,0 -44,-1 -19,-2 -40,4 -57,-9 -14,6 -28,-6 -41,0 -12,6 -19,2 -23,-8 -4,-8 -8,-7 -13,-3 -10,6 -21,12 -34,11 -12,-1 -24,-9 -36,4 -5,5 -13,-2 -21,-2 13,13 30,12 45,14 5,1 9,1 13,3 1,1 12,12 10,-4 -1,-3 8,-1 13,0 16,5 31,7 47,1 13,-5 26,-1 40,-2 17,-1 35,-5 49,10 2,2 4,1 6,-1 6,-9 16,-7 23,-5 12,3 27,0 37,11 2,3 9,3 13,2 24,-2 46,10 70,7l3 1c7,18 22,17 36,13 8,-2 12,-1 18,3 6,6 13,10 22,10 5,0 46,10 54,13 -7,3 -50,-1 -53,-4 -17,-12 -35,-8 -54,-5 -9,1 -19,0 -28,-7 -9,-8 -23,-4 -34,-2 -6,1 -14,0 -21,6 15,3 28,8 42,6 6,0 14,-3 17,4 2,4 -2,11 -7,14 -6,4 -10,-2 -15,-6 -2,-2 -5,-6 -10,-4 -3,2 -7,-5 -8,2 -1,6 3,10 7,9 9,-3 16,4 23,5 10,2 14,2 17,-8 3,-9 10,-10 18,-8 10,2 20,5 31,6 45,7 89,20 132,35 45,16 -11,-18 32,3 7,4 13,6 4,15 -9,9 -6,16 6,23 3,1 5,3 7,5 7,-2 -4,-11 5,-12 6,0 52,-2 56,2 6,5 -19,24 -9,28 5,2 -12,15 -11,26 0,2 -3,2 -5,0 -14,-13 -33,-17 -47,-29 -14,-12 -30,-20 -48,-24 -5,-1 -4,-8 -7,-9 -6,0 89,47 87,54 -1,2 -3,6 -4,5 -7,-9 -15,1 -22,-1 -10,-2 -6,-7 -4,-12 9,-16 8,-21 -8,-31 -4,-2 -5,-5 -3,-8 5,-9 -1,-10 -8,-12 -3,-1 -6,-2 -9,-4 -3,-1 0,-8 -7,-6 -5,2 -5,7 -7,11 -1,2 -1,5 1,7 3,3 5,0 7,-1 8,-7 16,0 15,5 0,10 6,16 11,23 2,3 5,8 3,11 -3,6 -9,1 -13,0 -11,-2 -19,-12 -30,-14 -7,-2 -13,-7 -19,2 -3,5 -10,4 -13,0 -4,-4 -7,-1 -9,0 -5,2 -1,5 0,8 1,8 11,13 16,13 17,-3 27,10 41,16 8,3 14,11 23,0 4,-4 15,-4 17,3 6,14 -84,-35 -74,-33 42,11 82,25 122,37 3,1 5,2 5,7 -16,-9 -33,-2 -49,-7 -62,-19 -22,11 -86,0 -45,-9 -91,-16 -137,-22 -60,-7 -120,-9 -181,-12 -12,0 -25,0 -37,1 13,18 35,7 52,11 11,2 26,-1 39,1 8,1 16,4 24,4 8,0 -4,7 3,9 5,1 14,0 13,6 -1,7 -9,4 -15,3l-2 3c-2,6 -10,10 -17,8 -10,-4 -19,-5 -25,5 -2,3 -4,1 -7,1 -7,0 -12,2 -18,5 -4,-9 -13,-1 -18,-4 -3,-2 -7,-1 -8,1 -5,14 -17,8 -26,10 -21,2 -41,6 -62,6 13,2 26,8 39,1 2,-1 4,0 5,1 3,3 -2,4 -2,6 28,0 56,-5 84,2 1,0 2,-1 3,1 9,12 9,12 29,14 -7,-8 -16,-4 -23,-8 15,-5 30,-3 45,1 5,1 3,6 0,8 -6,4 -12,6 -19,6 -13,0 -25,13 -40,4 -1,-3 8,-3 4,-6 -3,-2 -9,-4 -11,-3 -18,9 -37,1 -55,3 -16,2 -31,3 -46,1 -8,-2 -5,6 -5,10 -12,-5 -13,-5 -16,5 -2,4 -5,3 -7,2 -15,-9 -29,-4 -43,0 -5,2 -8,1 -12,-3 2,-5 9,-3 12,-8 -9,-2 -18,2 -27,-2l-4 2c-6,13 -7,15 -17,16 -16,2 -32,4 -48,5 -18,1 -38,3 -56,8 -18,5 -36,4 -54,8 -21,5 -43,6 -65,12 -21,5 -44,9 -66,12 -7,1 -13,4 -19,5 -30,7 -61,13 -91,22 -21,6 -42,11 -62,18 -17,5 -35,11 -52,16 -26,8 -51,16 -77,24 -29,8 -57,19 -84,31 -51,22 -13,-20 -62,6l-70 4 -41 14c-72,31 11,-18 -58,18 -25,13 -52,20 -79,30 -6,2 -13,4 -18,9 -5,1 -10,2 -15,3z"/>
     <polygon class="fil1" points="1596,2163 1598,2161 1596,2162 "/>
     <path class="fil1" d="M1421 2497c5,-1 9,-3 13,-4 -6,0 -9,2 -13,4z"/>
     <path class="fil2" d="M3179 1625l-6 15c22,-42 36,-89 42,-137 7,-48 6,-95 6,-140 1,-6 2,-18 3,-24 -3,-45 -23,-99 -44,-137 -6,-10 -15,-17 -23,-21 -7,-3 -14,-5 -14,-5 -5,-3 -14,-4 -15,2 4,10 15,34 8,37 -2,1 -4,-4 -6,-8 -6,3 -26,-5 -28,-9 -6,-3 -30,-24 -36,-25 -3,-2 -5,-1 -6,3 -2,4 -3,10 -4,16 -1,14 -2,31 0,40 0,10 -8,4 -13,6 5,7 2,14 8,21 -2,1 7,25 11,38 0,0 3,3 7,16 1,4 3,3 5,3 -2,0 -2,0 -4,1 5,3 4,13 7,16 -2,1 -2,1 -3,1 6,8 4,17 8,25 -2,0 -2,0 -4,1 1,4 2,8 0,9l-3 0c-1,5 4,12 0,13 2,0 2,0 4,-1 2,17 2,30 1,43 -5,33 -2,73 -7,109 -1,4 1,9 6,6 -1,4 -2,8 -3,12 -3,8 4,5 1,13 -5,34 -20,65 -39,94 -18,29 -41,55 -64,83 13,-12 26,-19 35,-34 1,1 4,3 7,0 10,-10 17,-22 25,-32 7,-11 14,-20 20,-24 4,-3 11,-4 17,-16l-6 12c1,1 4,3 4,3 6,-8 11,-17 16,-26 3,-4 5,-9 8,-13 2,-5 4,-9 6,-14 0,0 4,2 5,2l4 -8c7,-3 6,8 2,23 -4,14 -12,32 -18,43 2,0 5,2 7,3l4 -9 4 2c-7,13 -14,25 -21,36 -7,12 -15,23 -24,35 3,-4 9,-12 12,-16 1,1 3,2 6,-2 -6,8 -13,17 -20,26 -7,9 -14,18 -19,27 -1,5 6,4 17,-6 10,-12 16,-20 25,-32l3 2c-6,8 -17,19 -22,28 -2,5 11,-4 9,1 -3,4 -7,8 -9,13 5,-6 11,-13 16,-21 5,-7 11,-15 16,-20 5,-4 9,-7 12,-5 6,-12 14,-21 21,-30 7,-8 14,-14 22,-20 6,-3 16,-29 21,-44z"/>
     <path class="fil2" d="M3321 1490c-5,0 -11,0 -16,-1 23,5 48,2 70,-9 22,-10 41,-28 54,-50 12,-22 18,-48 17,-73 -2,-25 -10,-50 -23,-71 -3,-6 -9,-18 -13,-24 -19,-19 -47,-34 -78,-37 -31,-3 -61,6 -84,20 -11,8 -17,19 -19,28 -2,9 -1,15 -1,15 -2,7 1,16 7,14 4,-3 10,-9 17,-13 6,-3 12,-5 14,-2 1,2 -3,4 -6,7 2,3 2,9 3,15 0,5 0,10 -1,12 0,2 -1,9 -1,15 0,7 2,13 3,15 1,5 11,2 20,3 9,0 17,3 20,4 4,1 6,7 10,10 -1,-1 3,3 2,1l1 3 0 -1 0 0c0,-1 0,-2 1,-4 -1,2 -1,2 -1,4 1,-4 0,0 1,-2 -1,2 -1,2 -1,4 1,-4 0,0 0,-2l0 0 0 0 0 0 0 1 0 0c1,0 0,0 -1,-1l1 1 0 0 0 -1 0 0 0 0 0 0c0,2 1,3 1,3 0,5 -5,4 -6,2l-1 -3c0,-2 -1,-2 -2,-4 -2,0 -6,2 -4,4 -1,0 -5,1 -5,2 0,2 1,5 2,7 1,2 2,4 1,7 0,2 -2,8 2,10 -2,-1 -3,-2 -4,-2 -1,1 -3,4 -3,4 5,5 13,10 20,11 0,0 0,4 1,6 1,-1 2,-1 4,-1 3,6 -2,10 -10,11 -9,1 -19,-3 -25,-5 -1,1 -3,4 -4,6 2,1 4,2 6,3l-2 3c-17,-8 -29,-21 -36,-39 1,3 4,9 5,12 -1,0 -3,1 -1,4 -8,-11 -11,-28 -14,-41 -1,-4 -8,-1 -8,11 1,12 4,19 9,30l-3 1c-4,-7 -6,-19 -9,-26 -3,-4 -4,9 -7,5 0,-4 -1,-8 -3,-13 0,14 8,30 13,43 1,4 2,9 -1,11 16,18 29,32 41,47 1,2 9,6 18,8 10,2 21,2 29,2z"/>
     <path class="fil3" d="M996 1878l1 4 0 1 1 1 1 3c2,3 4,6 6,9 5,8 11,15 18,24 14,16 33,33 52,49 19,15 39,28 54,37 15,9 15,11 9,11 -2,0 -6,0 -9,0 -3,0 -5,0 -6,2 17,6 29,13 41,19 3,1 6,2 9,4 3,1 6,3 10,4 3,1 7,3 10,4 2,1 4,2 6,2 2,1 4,2 6,2 0,1 6,3 17,7 5,2 11,4 18,6 6,3 14,5 22,8 32,10 70,19 96,24 0,0 5,0 15,2 6,1 13,2 22,3 9,1 20,3 32,5 18,2 18,0 18,-1 0,1 0,1 0,3 9,-1 22,1 35,3 13,1 25,3 34,3 0,2 0,2 0,4 9,-1 17,0 26,0 4,0 9,0 13,1l11 1c3,0 6,0 9,0l0 0c2,0 4,-1 7,-1l0 -1 1 -1 0 1c92,-23 193,-65 273,-137l-57 -1 -31 -1 -17 0c-5,0 -10,-1 -16,-1 -16,0 -33,0 -51,0 -9,0 -17,0 -26,0l-3 0 -4 0 -5 0c-4,-1 -8,-1 -12,-1 -15,-1 -31,-1 -46,-2 -4,0 -8,0 -12,-1l-3 0 -2 0 -3 0c-4,0 -9,-1 -13,-1 -8,-1 -17,-2 -26,-2 -9,-1 -17,-2 -26,-3 -9,-1 -18,-2 -26,-3 -9,-2 -18,-2 -27,-4 -69,-10 -138,-24 -196,-43 -29,-9 -55,-14 -75,-18 -9,-2 -17,-3 -23,-3 -5,-1 -8,-1 -8,-1 -15,-4 -33,-6 -21,5 3,2 7,5 12,7 4,3 9,5 14,8 5,3 11,6 16,9 6,2 11,5 17,8 5,3 10,5 15,7 5,3 9,5 12,7 7,4 12,7 11,8 0,1 -4,0 -10,-2 -6,-2 -13,-5 -21,-8 0,2 -4,3 -9,3 -6,0 -13,0 -20,-1 -8,-1 -15,-2 -22,-4 -7,-2 -13,-4 -16,-6 -5,-1 -13,-4 -24,-9 -11,-4 -25,-10 -38,-17 -13,-7 -26,-15 -36,-21 -5,-4 -10,-7 -13,-10 -4,-2 -7,-4 -9,-6 -4,-4 -7,-6 -8,-6 -2,0 -2,3 0,7z"/>
     <path class="fil3" d="M996 1878l1 4 0 1 1 1 1 3c2,3 4,6 6,9 5,8 11,15 18,24 14,16 33,33 52,49 19,15 39,28 54,37 15,9 15,11 9,11 -1,0 -3,0 -5,0 -1,0 -3,0 -4,0 -3,0 -5,0 -6,2 17,6 29,13 41,19 3,1 6,2 9,4 3,1 6,3 10,4 3,1 7,3 10,4 2,1 4,2 6,2 2,1 4,2 6,2 0,1 6,3 17,7 5,2 11,4 18,6 6,3 14,5 22,8 32,10 70,19 96,24 0,0 5,0 15,2 6,1 13,2 22,3 9,1 20,3 32,5 18,2 18,0 18,-1 0,1 0,1 0,3 9,-1 22,1 35,3 13,1 25,3 34,3 0,2 0,2 0,4 9,-1 17,0 26,0 4,0 9,0 13,1l11 1c3,0 6,0 9,0l0 0c2,0 4,-1 7,-1l0 -1 1 -1 0 1c92,-23 193,-65 273,-137l-57 -1 -31 -1 -17 0c-5,0 -10,-1 -16,-1 -16,0 -33,0 -51,0 -9,0 -17,0 -26,0l-3 0 -4 0 -5 0c-4,-1 -8,-1 -12,-1 -15,-1 -31,-1 -46,-2 -4,0 -8,0 -12,-1l-3 0 -2 0 -3 0c-4,0 -9,-1 -13,-1 -8,-1 -17,-2 -26,-2 -9,-1 -17,-2 -26,-3 -9,-1 -18,-2 -26,-3 -9,-2 -18,-2 -27,-4 -69,-10 -138,-24 -196,-43 -29,-9 -55,-14 -75,-18 -9,-2 -17,-3 -23,-3 -5,-1 -8,-1 -8,-1 -15,-4 -33,-6 -21,5 3,2 7,5 12,7 4,3 9,5 14,8 5,3 11,6 16,9 6,2 11,5 17,8 5,3 10,5 15,7 5,3 9,5 12,7 7,4 12,7 11,8 0,1 -4,0 -10,-2 -6,-2 -13,-5 -21,-8 0,2 -4,3 -9,3 -6,0 -13,0 -20,-1 -8,-1 -15,-2 -22,-4 -7,-2 -13,-4 -16,-6 -5,-1 -13,-4 -24,-9 -11,-4 -25,-10 -38,-17 -13,-7 -26,-15 -36,-21 -5,-4 -10,-7 -13,-10 -4,-2 -7,-4 -9,-6 -4,-4 -7,-6 -8,-6 -2,0 -2,3 0,7l0 0z"/>
     <path class="fil4" d="M1066 2352c-2,1 -4,1 -4,1 1,0 3,0 4,0l0 -1z"/>
     <path class="fil4" d="M2019 2033c1,-3 3,-6 5,-8 1,-1 2,-3 3,-4l1 -2 1 -1 0 0c8,-1 17,-1 25,-1 -5,1 -16,4 -23,4l0 1 -1 1 -1 1 -3 4 -5 7c-1,-1 -2,-3 -12,11 3,-4 6,-9 10,-13zm3 -30c7,0 14,0 22,-1 -7,3 -15,4 -21,5l0 0 -2 -4 1 0zm247 58c-31,4 -61,8 -96,12 0,-1 0,-5 -18,-3 -19,1 -40,3 -60,4 -26,1 -27,1 -36,2 -2,2 -3,4 -5,7l-3 3 0 1 0 0 -1 1 -1 1c-1,1 -2,3 -3,4 -10,12 -20,24 -30,33 -4,5 -9,10 -14,14 -2,3 -4,5 -6,7 -3,2 -5,4 -7,5 -9,8 -17,14 -24,19 -3,2 -7,5 -12,7 -2,2 -4,3 -7,4 -2,2 -5,4 -8,5 -5,4 -12,8 -20,13 -2,1 -4,3 -6,4 -2,1 -5,3 -7,4 -5,3 -10,7 -15,10 7,-5 14,-9 22,-14 7,-6 14,-11 21,-16 -1,-2 -3,-4 -3,-4 -28,21 -63,41 -98,58 -36,17 -73,30 -107,39 0,0 -1,-3 -2,-5 -11,4 -22,6 -33,9 -9,0 -5,-4 9,-9 3,-1 7,-2 11,-4 5,-2 9,-3 14,-5 3,-1 6,-2 8,-3 3,-1 6,-2 9,-3 5,-2 11,-4 18,-7 1,0 3,-1 4,-2 2,0 4,-1 5,-2 3,-1 6,-2 10,-4 6,-2 13,-5 19,-8 7,-3 13,-7 20,-10 7,-3 13,-7 19,-10 7,-3 13,-7 19,-11 6,-3 12,-6 17,-10 5,-4 11,-7 16,-11 2,-1 4,-3 7,-5 2,-1 4,-3 6,-5 -1,-1 -3,-4 -4,-5 -2,1 -5,3 -7,5l-7 4 -14 10 -2 -3 12 -8 6 -4c2,-2 6,-4 7,-5l22 -17 22 -18 3 -3 3 -2 5 -5 10 -10 6 -5c1,-1 3,-3 4,-5l10 -10c3,-4 7,-7 10,-11l9 -11 9 -11c2,-2 3,-3 5,-5l4 -6 9 -12 4 -6 2 -3 1 -2 1 -1 1 0c8,0 17,-1 26,-1l12 -10c3,0 6,0 9,0 16,-1 32,-2 47,-4 32,-2 63,-6 90,-12 8,-2 8,-3 0,-4 -5,0 -11,-1 -19,0 -9,0 -19,1 -32,1 -9,1 -18,2 -27,3 2,0 3,0 4,-1 9,-1 0,-2 -8,-2 -8,-1 -17,-2 -9,-3 9,-1 17,-2 25,-3 8,-1 16,-2 24,-4 -22,3 -47,5 -72,7 -6,1 -12,1 -18,2l-2 -1 -18 1c0,0 -1,0 -4,1 -16,1 -32,1 -48,1l-1 2 -1 1 -1 2c-2,2 -3,3 -4,5 -2,3 -4,6 -6,9 -4,4 -7,9 -11,13 -2,2 -3,4 -5,6l-2 2 -1 1 -1 1c-5,4 -8,7 -10,5 -3,4 -6,8 -8,12 -2,2 -3,4 -5,6 -1,1 -3,3 -4,5 -7,7 -13,14 -19,20 -6,6 -12,12 -18,17 -2,2 -3,3 -5,4 -1,2 -3,3 -5,4 -3,3 -6,5 -9,7 -3,3 -6,5 -9,7 -3,2 -6,4 -9,6 -6,4 -12,8 -18,11 -12,6 -23,12 -34,16 -2,1 -5,2 -8,3 -3,2 -7,4 -12,6 -9,5 -19,11 -31,16 -11,6 -24,11 -36,16 -4,2 -8,3 -12,4 -2,2 -4,4 -5,6 0,0 -150,119 -234,152 -6,3 -13,5 -20,8l2 0c2,0 4,0 6,0l3 1c3,0 5,0 8,0 11,0 22,0 32,-1 19,0 37,-5 18,-8 10,0 19,0 28,-1 9,-1 18,-1 28,-2 18,-2 22,-4 27,-6 4,-2 9,-4 27,-7 43,-9 86,-22 128,-38 42,-17 82,-38 120,-62 38,-25 73,-54 104,-86l6 -6c2,-2 6,-5 7,-7l11 -11 11 -13c3,-4 7,-9 10,-13l11 -13 5 -7 1 -1c1,-2 4,-14 4,-14l6 10 5 0c7,-1 14,-1 21,-1 7,-1 14,-1 20,-2 28,-2 55,-4 83,-7 7,-1 14,-2 21,-3 7,-1 13,-2 20,-3l21 -3 21 -4c28,-6 56,-12 85,-22 -37,11 -68,15 -99,20z"/>
     <path class="fil5" d="M1713 2216c16,-13 29,-26 39,-37 2,-2 5,-5 8,-8l8 -9 3 -4c2,-1 3,-3 4,-4l7 -9 3 -4 4 -4 6 -9c2,-3 3,-6 5,-9 2,-3 4,-5 6,-8l5 -9c1,-3 2,-5 4,-8 3,-6 5,-11 8,-17 5,-11 10,-23 15,-34 3,-7 5,-13 8,-19l0 -1 1 -1 0 0 0 -2 1 -3 1 -6c3,-8 1,-17 4,-25 0,0 -96,89 -274,137l1 -1 -1 0 -1 1 0 0 -14 1c3,0 5,1 8,1 1,0 3,0 5,0l1 0 0 0 0 0c2,0 5,0 3,2 -2,2 -2,2 -4,4l2 0c1,0 2,0 -1,1 3,-1 3,-1 6,-3l1 0c1,0 2,0 3,0 -1,2 -2,3 -3,4 -3,2 -5,3 -8,4 -3,1 -4,1 -5,0l-1 0 0 0 -1 1c-3,1 -5,3 -8,4 -5,3 -10,6 -16,8 -5,3 3,19 -3,21 -40,34 -78,51 -141,48l-21 16 0 4c-19,2 -54,6 -83,11 -42,8 -43,18 -45,17 -3,-1 -11,0 -11,0l-12 7c-77,17 -172,-28 -172,-28 12,16 37,22 37,22 -12,4 16,11 16,11 51,12 57,21 52,20 -5,-2 -5,8 -5,8l51 9 8 0c6,19 -39,13 -52,13 -13,0 -7,8 -7,8l8 6c0,0 -39,-3 -89,-14 -46,-10 -8,6 1,13 8,7 -5,9 -12,10 0,0 29,-1 49,16 0,0 32,2 37,7 0,0 13,12 31,14l64 3 94 -10c0,0 64,-9 76,-5 12,3 29,1 43,-4 0,0 39,-12 80,-36 40,-25 147,-95 167,-115l6 -6z"/>
     <path class="fil6" d="M1553 708l16 -2c-95,3 -96,0 -185,16 -6,0 -18,0 -24,0 -44,10 -95,33 -135,55 -10,5 -16,15 -20,23 -4,8 -6,14 -6,14 -3,6 -4,15 2,16 11,-3 36,-15 39,-8 1,2 -4,4 -9,6 3,7 -5,28 -10,30 -3,6 -26,31 -29,37 -10,12 43,15 64,12 11,-1 4,8 7,13 8,-6 15,-3 24,-9 0,1 7,-1 16,-4 9,-3 20,-7 27,-11 0,0 4,-3 18,-9 5,-2 4,-4 4,-5 0,1 0,1 1,3 3,-5 14,-5 18,-9 1,2 1,2 2,3 8,-7 19,-7 28,-12 0,2 0,2 1,4 5,-2 9,-4 10,-2l1 4c6,0 14,-7 15,-4l-1 -3c19,-6 34,-9 49,-12 41,-4 -7,9 37,-2 5,-1 9,-6 3,-9l15 -3c10,-2 4,-6 14,-8 20,-5 39,-10 60,-12 20,-3 40,-5 60,-6l60 -1c20,1 40,1 60,0 -20,-2 -35,-7 -55,-5 0,-2 0,-6 -5,-6 -15,-1 -32,0 -46,0 -8,0 -14,0 -21,0 -5,-1 -11,-1 -15,-3 -5,-1 -10,-6 -26,-5l16 -1c-1,-2 -1,-6 -1,-6 -10,0 -22,0 -34,0 -12,0 -23,2 -34,2 0,0 0,-4 0,-6l-11 2c-12,-12 45,-19 72,-22 0,-2 -1,-6 -1,-8l-11 1 0 -3c16,-2 31,-4 45,-4 15,-1 30,-1 46,-2 -6,0 -16,1 -22,1 0,-2 0,-4 -5,-4 21,-1 48,0 70,-2 5,-2 0,-8 -16,-10 -17,-1 -28,0 -44,0l0 -3c11,-1 27,0 38,-1 6,-2 -11,-6 -5,-8 5,0 11,0 16,-1 -16,-2 -38,2 -55,0 -5,-1 -11,-3 -11,-7 -7,1 -14,1 -20,1 -6,0 -12,0 -17,-1 -12,-1 -22,-4 -30,-8 -3,-2 -12,-1 -21,0 -10,1 -21,3 -29,4z"/>
     <path class="fil6" d="M1286 505c6,-1 11,-1 17,-1 -24,-3 -50,3 -71,16 -11,7 -21,15 -30,25 -8,9 -15,20 -20,32 -6,12 -9,24 -11,37 -1,13 -1,26 0,39 4,26 15,50 31,71 3,6 10,18 15,23 21,18 52,30 83,30 16,0 32,-3 46,-8 15,-5 28,-12 38,-20 11,-9 16,-21 17,-31 2,-9 0,-16 0,-16 1,-7 -3,-15 -9,-13 -4,3 -9,10 -16,14 -6,5 -12,7 -14,3 -1,-1 2,-4 6,-7 -3,-3 -4,-9 -5,-15 -1,-6 -2,-11 -1,-12 0,-3 0,-10 -1,-16 -1,-7 -3,-13 -4,-14 -2,-6 -12,-2 -21,-2 -9,1 -18,-2 -22,-3 -3,-1 -6,-6 -11,-10 1,2 -2,-3 -1,-1l0 0 0 0c0,0 0,-1 0,2l0 -2c0,0 0,-2 0,0l0 -1 0 0 0 1 0 0 0 0 0 -1 -1 1c0,0 0,0 2,0l-1 0 -1 -1 1 1 0 0 0 0 0 -1c-1,-2 0,-3 1,-4l2 1 1 3c0,0 0,1 1,2 2,0 6,-2 4,-3 2,-1 6,-2 6,-2 0,-3 -2,-5 -3,-7 -1,-2 -2,-3 -1,-7 0,-2 2,-8 -2,-9 1,0 3,1 4,1l2 -5c-4,-5 -13,-8 -20,-9 0,0 -1,-4 -1,-6 -1,1 -3,1 -4,1 -4,-6 0,-10 9,-12 8,-2 19,1 25,3 1,-2 2,-5 3,-7 -2,-1 -4,-2 -5,-2l1 -4c18,7 31,18 40,36 -1,-3 -5,-9 -7,-11 2,-1 3,-3 1,-5 9,11 14,27 19,40 1,4 8,0 7,-12 -3,-12 -6,-19 -12,-29l3 -2c5,7 8,19 12,26 3,4 3,-10 6,-6 1,4 3,8 5,12 -2,-13 -11,-29 -18,-41 -1,-5 -3,-10 0,-12 -18,-17 -32,-30 -45,-44 -3,-3 -10,-6 -20,-7 -10,-1 -22,0 -30,1z"/>
     <path class="fil7" d="M2239 704l16 3c-91,-29 -91,-32 -180,-46 -6,-2 -17,-6 -22,-8 -45,-6 -102,-1 -146,7 -11,2 -21,8 -27,14 -6,7 -10,12 -10,12 -5,5 -9,13 -4,16 12,1 39,-2 40,5 0,2 -5,3 -11,3 1,8 -14,25 -19,25 -5,4 -35,20 -39,25 -14,8 35,29 56,32 11,3 1,10 2,16 10,-4 15,2 25,-1 0,1 8,1 18,1 9,0 21,0 28,-1 0,0 5,-2 20,-3 6,0 5,-2 5,-4 0,2 0,2 1,4 4,-4 15,0 20,-2 0,1 0,1 0,3 10,-4 20,0 30,-2 0,2 0,2 0,4 6,0 11,0 11,2l0 3c5,2 15,-2 15,2l0 -4c20,1 35,3 50,6 40,9 -10,6 35,9 5,1 11,-2 7,-6l14 2c10,1 6,-5 16,-3 20,2 41,4 61,8 19,4 39,9 58,15l57 18c19,8 38,14 57,20 -18,-9 -31,-18 -50,-23 0,-2 2,-5 -3,-7 -14,-6 -30,-10 -44,-15 -7,-2 -13,-5 -19,-7 -5,-3 -10,-5 -13,-8 -4,-3 -8,-9 -23,-13l15 4c0,-2 1,-6 1,-6 -10,-3 -21,-7 -32,-11 -11,-4 -22,-6 -32,-9 0,0 1,-4 1,-6l-10 -2c-8,-15 49,-3 74,3 1,-2 2,-6 2,-7l-10 -3 1 -4c15,4 30,7 44,12 14,4 28,8 43,13 -5,-1 -15,-5 -20,-6 0,-2 1,-4 -4,-5 20,6 45,15 66,20 6,0 3,-7 -11,-14 -16,-7 -26,-9 -42,-14l2 -4c10,4 25,10 36,12 6,0 -9,-9 -3,-9 5,2 10,4 16,4 -15,-7 -37,-10 -52,-17 -5,-4 -9,-7 -8,-11 -7,-2 -13,-4 -19,-6 -6,-2 -11,-4 -16,-6 -10,-5 -19,-11 -26,-18 -2,-3 -10,-5 -20,-7 -9,-2 -20,-4 -28,-5z"/>
     <path class="fil7" d="M2054 423c6,2 11,3 17,5 -22,-10 -48,-13 -73,-8 -12,2 -24,7 -36,13 -11,6 -21,14 -30,24 -9,9 -16,20 -22,31 -6,12 -10,24 -13,37 -5,26 -3,52 5,77 1,7 4,20 7,27 14,24 39,45 69,56 15,5 30,8 46,8 15,0 29,-3 42,-7 14,-5 22,-15 27,-23 4,-9 5,-16 5,-16 3,-6 2,-15 -4,-15 -5,2 -13,6 -20,8 -8,2 -14,2 -15,-2 -1,-1 4,-3 8,-4 -1,-4 0,-10 0,-16 1,-6 2,-11 4,-12 0,-2 3,-9 4,-16 2,-6 1,-12 1,-14 0,-6 -10,-6 -19,-9 -9,-2 -17,-8 -20,-9 -3,-3 -4,-9 -7,-14 1,2 -1,-3 -1,-2 0,-1 0,0 0,1l0 0c0,0 1,-1 0,1l0 -1 0 -1 1 0 0 0 -1 1 0 0 0 -1 1 0 -1 0c0,0 0,0 1,1l-1 -1 0 0 0 1 0 0 0 0 0 -1c0,-2 1,-3 2,-3l2 1 0 3c0,0 0,1 1,3 2,0 6,0 5,-3 2,1 5,1 6,0 1,-2 0,-4 -1,-6 0,-2 0,-4 2,-8 1,-2 4,-6 1,-9l3 3 4 -4c-3,-6 -10,-13 -16,-16 0,0 0,-4 1,-5 -2,-1 -3,-1 -4,-1 -2,-7 4,-10 12,-8 8,1 18,7 23,11 1,-2 4,-4 5,-6 -1,-1 -3,-3 -4,-4l2 -3c15,13 24,28 26,47 0,-3 -1,-9 -3,-12 2,-1 4,-2 3,-5 5,13 4,30 4,44 1,4 8,3 11,-9 1,-12 1,-20 -2,-31l4 -1c2,8 1,20 2,29 2,4 6,-9 8,-4 0,4 0,8 1,13 2,-13 -1,-31 -3,-45 0,-5 0,-10 4,-11 -12,-22 -21,-39 -29,-57 -1,-3 -8,-8 -17,-12 -8,-5 -19,-8 -28,-10z"/>
     <path class="fil8" d="M2908 930l14 9c-74,-60 -73,-62 -151,-108 -4,-4 -13,-12 -18,-16 -39,-22 -93,-38 -137,-47 -12,-2 -23,1 -31,4 -8,3 -13,7 -13,7 -7,3 -14,9 -10,14 11,4 37,12 35,19 -1,2 -6,0 -11,-1 -2,7 -22,18 -27,16 -6,2 -40,6 -46,9 -15,2 23,39 41,51 9,6 -2,9 -4,14 10,1 14,8 24,9 0,1 7,4 16,7 9,4 19,8 27,10 0,0 5,0 19,5 5,2 6,0 7,-2 -1,2 -1,2 -2,4 6,-2 15,5 20,5 0,1 0,1 -1,3 11,0 19,7 29,9 -1,2 -1,2 -1,4 5,2 9,3 9,5l-2 4c4,3 15,3 14,7l1 -4c19,8 32,16 45,24 34,23 -12,2 29,22 4,2 11,1 8,-4l13 7c9,5 8,-2 16,3 18,9 37,18 53,30 17,11 34,22 49,35l47 38c14,14 29,27 45,39 -13,-14 -22,-27 -38,-40 1,-1 4,-4 0,-7 -11,-11 -24,-21 -35,-30 -6,-5 -11,-9 -15,-14 -4,-4 -8,-8 -10,-11 -3,-5 -4,-13 -16,-22l12 9c1,-1 4,-4 4,-4 -8,-7 -17,-15 -26,-22 -9,-8 -19,-14 -27,-21 0,0 2,-3 3,-5l-9 -5c-2,-17 47,15 69,30 1,-2 3,-5 4,-6l-8 -7 2 -3c13,10 25,18 37,27 11,9 22,18 35,28 -4,-3 -13,-10 -17,-13 1,-1 3,-3 -2,-6 17,13 37,31 55,43 5,3 5,-5 -6,-18 -12,-11 -21,-17 -33,-27l2 -3c9,7 20,18 30,24 5,2 -5,-12 1,-10 4,4 8,8 13,10 -12,-12 -30,-23 -42,-35 -3,-5 -6,-10 -4,-13 -6,-4 -11,-8 -15,-12 -5,-4 -9,-8 -13,-12 -8,-9 -13,-17 -17,-26 -2,-3 -8,-9 -16,-14 -8,-5 -18,-11 -25,-16z"/>
     <path class="fil8" d="M2839 602c5,3 9,7 14,11 -17,-18 -40,-30 -65,-35 -12,-2 -25,-2 -38,-1 -13,2 -25,6 -37,11 -11,6 -22,13 -32,22 -10,8 -18,18 -25,29 -14,22 -22,47 -24,74 -1,6 -3,20 -3,27 4,28 19,57 43,78 12,10 26,18 40,24 14,5 29,8 42,9 14,0 26,-6 33,-12 7,-6 10,-12 10,-12 6,-5 8,-14 2,-16 -5,0 -14,1 -21,0 -8,-1 -14,-3 -13,-7 0,-2 4,-1 9,-1 0,-4 3,-10 6,-15 3,-5 6,-9 8,-10 1,-2 6,-7 9,-13 4,-5 6,-11 6,-13 3,-5 -7,-9 -14,-15 -8,-6 -13,-13 -15,-16 -1,-4 0,-10 -1,-15 -1,2 -1,-4 -1,-2 1,-1 0,0 0,0l0 0c0,0 1,-1 -1,1l1 -1 0 0 1 -1 0 1 -1 0 0 0 0 0 1 0 -1 0 1 1 0 -1 -1 -1 0 1 0 0 0 0 0 0c1,-3 3,-3 4,-3l1 2 -1 2c0,1 0,2 0,4 1,1 6,2 5,-1 2,1 5,3 5,2 2,-1 2,-4 2,-6 1,-2 1,-4 4,-6 2,-2 7,-5 5,-9l2 4 5 -2c0,-7 -4,-15 -10,-21 0,0 2,-3 4,-4l-4 -2c1,-7 7,-8 15,-4 7,4 13,13 17,19 2,-1 5,-2 7,-3 -1,-2 -2,-4 -3,-6l3 -1c10,16 12,34 7,53 1,-3 2,-10 2,-13 2,0 4,0 4,-3 0,14 -7,29 -12,43 -1,3 6,5 14,-5 5,-10 8,-18 9,-30l4 1c-1,8 -6,19 -8,27 0,5 9,-5 9,-1 -2,4 -4,8 -5,13 8,-12 11,-29 14,-43 2,-4 4,-9 8,-9 -3,-24 -5,-44 -6,-63 0,-3 -4,-11 -11,-18 -7,-7 -16,-14 -23,-19z"/>
     <path class="fil9" d="M2577 2002l-16 5c94,-19 95,-17 180,-48 5,-1 17,-3 23,-4 42,-17 89,-48 124,-77 9,-7 13,-17 16,-26 2,-9 3,-15 3,-15 2,-6 2,-16 -5,-16 -10,5 -32,21 -37,15 -1,-2 4,-5 8,-8 -4,-6 0,-28 5,-31 2,-6 21,-35 22,-41 8,-14 -45,-7 -65,-1 -11,3 -6,-7 -9,-12 -7,8 -15,6 -22,13 0,-1 -7,3 -15,7 -9,5 -19,11 -25,15 0,0 -3,5 -16,12 -5,3 -4,5 -3,6 -1,-1 -1,-1 -2,-3 -2,6 -13,8 -16,12 -1,-1 -1,-1 -2,-3 -7,9 -18,10 -26,17 -1,-2 -1,-2 -1,-3 -5,2 -9,5 -10,3l-2 -3c-5,1 -12,9 -14,6l2 3c-18,9 -33,15 -47,20 -40,11 6,-10 -35,9 -5,1 -8,7 -2,8l-15 6c-9,3 -2,7 -12,10 -18,9 -37,17 -56,23 -20,5 -39,11 -59,15l-59 12c-20,3 -39,6 -59,10 20,-1 36,1 55,-4 1,2 1,6 6,5 15,-2 31,-6 46,-9 7,-1 14,-2 20,-2 6,-1 11,-1 15,-1 5,1 12,5 27,1l-15 4c0,2 1,6 1,6 10,-2 22,-4 33,-6 12,-3 23,-6 33,-8 0,0 2,4 2,5l10 -3c14,9 -41,26 -67,34 1,2 2,6 3,7l10 -2 1 3c-16,4 -30,9 -44,12 -15,3 -29,6 -45,9 6,-1 16,-3 21,-4 1,2 1,4 6,2 -21,5 -47,9 -68,15 -5,2 1,7 18,7 16,-2 26,-5 42,-8l1 3c-11,3 -27,4 -37,8 -5,3 11,4 6,7 -5,0 -11,1 -16,4 17,-2 38,-9 54,-10 6,0 12,1 13,5 6,-2 13,-3 19,-4 6,-2 12,-2 17,-3 12,0 22,1 31,3 4,1 12,0 21,-3 9,-3 20,-7 28,-9z"/>
     <path class="fil9" d="M2874 2156c-5,2 -11,3 -16,4 24,-1 48,-11 67,-28 10,-8 18,-18 25,-29 7,-11 12,-23 15,-36 3,-12 4,-25 4,-38 -1,-13 -3,-26 -7,-38 -8,-25 -23,-47 -42,-65 -4,-5 -14,-16 -19,-20 -24,-14 -56,-21 -87,-16 -16,3 -31,9 -44,16 -14,8 -25,17 -34,27 -10,10 -12,23 -12,33 0,10 3,16 3,16 1,7 6,15 11,11 3,-4 8,-11 13,-17 6,-5 12,-8 14,-5 2,1 -2,4 -4,8 3,2 5,8 7,14 2,5 3,10 3,12 1,2 1,9 4,15 2,7 5,12 6,14 3,5 12,0 21,-2 9,-3 18,-2 22,-1 3,1 7,5 12,8 -1,-1 3,2 2,1l0 0 0 0c0,-1 0,1 0,-2l0 2c0,-1 0,1 0,0l0 1 0 0 0 -1 0 0 0 0 0 0 1 0c0,0 0,0 -2,0l1 0 0 0 0 0 0 0 0 0 0 0c1,2 1,4 0,4l-2 0 -1 -2c-1,-1 -1,-1 -3,-3 -2,1 -5,4 -3,5 -2,1 -5,2 -5,3 0,2 2,4 4,5 1,2 2,3 2,8 0,2 -1,8 4,8 -2,0 -3,0 -4,-1l-2 6c5,4 14,6 22,5 0,0 1,4 2,6 1,-1 2,-1 4,-2 4,5 1,11 -7,14 -8,3 -19,2 -26,1 0,2 -1,6 -2,7 2,1 4,1 6,2l0 3c-19,-3 -34,-12 -46,-28 2,3 6,8 9,10 -2,1 -3,3 -1,5 -10,-9 -18,-24 -24,-37 -3,-3 -8,2 -6,14 5,11 9,18 17,26l-2 3c-6,-6 -12,-17 -17,-24 -3,-3 -1,10 -5,7 -2,-4 -4,-8 -7,-11 5,13 16,27 25,38 2,4 4,9 2,12 20,13 37,23 52,35 3,2 11,4 21,3 10,-1 21,-3 29,-6z"/>
     <path class="fil10" d="M642 1603l-8 -15c38,88 36,90 83,167 2,6 6,17 8,22 25,38 65,78 100,106 9,7 20,10 29,11 9,1 15,0 15,0 7,1 16,-1 15,-8 -7,-9 -27,-27 -22,-33 1,-1 5,2 9,6 5,-5 28,-5 32,-2 6,1 38,14 44,14 15,5 -2,-46 -12,-64 -5,-10 6,-7 10,-11 -9,-6 -8,-13 -17,-19 1,-1 -4,-7 -10,-14 -6,-7 -14,-16 -19,-21 0,0 -6,-2 -16,-13 -3,-4 -5,-3 -6,-2 1,-1 1,-1 3,-2 -7,-1 -11,-11 -16,-14 2,-1 2,-1 3,-2 -9,-5 -13,-16 -21,-22 1,-1 1,-1 3,-3 -4,-3 -7,-7 -6,-8l3 -3c-2,-5 -11,-10 -8,-13l-3 3c-13,-16 -21,-29 -29,-42 -19,-37 11,4 -16,-33 -2,-4 -8,-6 -9,0l-8 -13c-5,-8 -7,-1 -12,-10 -12,-16 -24,-33 -34,-51 -9,-18 -18,-36 -26,-54l-23 -56c-7,-18 -14,-37 -22,-55 5,19 6,34 15,53 -2,0 -6,2 -4,7 5,14 12,29 17,42 3,7 5,14 7,19 2,6 3,11 3,15 1,6 -2,13 5,27l-7 -14c-2,1 -5,2 -5,2 4,10 8,21 12,32 5,11 10,21 14,31 0,0 -3,2 -4,3l5 9c-7,15 -34,-36 -47,-59 -2,1 -5,3 -7,3l5 10 -3 2c-7,-15 -14,-28 -20,-41 -6,-14 -12,-27 -18,-42 2,5 6,15 8,20 -1,1 -3,1 -1,6 -9,-20 -18,-45 -28,-64 -3,-4 -7,3 -3,19 5,15 10,25 16,40l-3 1c-4,-10 -9,-25 -15,-35 -4,-4 -2,12 -5,8 -2,-5 -4,-10 -8,-15 5,16 17,35 21,51 1,6 1,12 -2,13 3,6 5,12 7,18 3,6 5,12 6,17 3,11 4,21 3,31 0,3 3,11 8,20 5,8 10,18 14,25z"/>
     <path class="fil10" d="M550 1925c-3,-5 -5,-10 -7,-15 6,23 21,45 41,60 10,8 21,14 33,19 12,4 25,7 38,7 13,1 25,0 38,-3 13,-4 25,-8 36,-15 23,-13 42,-31 56,-54 4,-5 12,-16 15,-22 10,-27 10,-59 -2,-89 -6,-15 -14,-29 -24,-40 -10,-11 -21,-21 -33,-28 -12,-7 -25,-7 -35,-5 -9,2 -14,6 -14,6 -7,2 -14,9 -10,14 5,2 13,5 20,9 6,4 10,9 8,13 -1,1 -5,-1 -9,-3 -2,3 -7,6 -12,10 -5,3 -10,5 -11,5 -2,1 -9,3 -15,6 -6,4 -10,8 -11,10 -5,3 2,11 5,20 5,8 6,17 6,21 0,4 -4,8 -6,14 1,-2 -2,3 -1,1l1 1 0 -1c0,0 -1,1 1,0l-1 0c0,0 -2,1 0,1l-2 0 1 0 1 0 0 0 0 0 -1 -1 1 1c0,0 0,0 -1,-1l0 0 0 1 1 0 0 -1 0 0 -1 1c-2,1 -3,1 -4,0l0 -2 2 -1c1,-1 1,-1 2,-3 -1,-2 -4,-5 -5,-2 -1,-2 -3,-5 -4,-5 -2,1 -3,3 -5,5 -1,2 -2,3 -6,4 -2,0 -8,1 -8,5 0,-2 0,-3 0,-4l-6 -1c-2,6 -3,16 -1,23 0,0 -3,2 -5,3l2 3c-3,6 -9,3 -14,-4 -5,-7 -6,-18 -6,-24 -2,-1 -6,-1 -8,-1 0,2 0,4 0,6l-4 0c0,-19 6,-36 19,-50 -2,2 -7,7 -8,10 -2,-1 -3,-2 -5,1 7,-12 20,-22 31,-32 2,-3 -3,-7 -14,-2 -10,7 -16,12 -23,22l-3 -2c5,-7 15,-15 20,-21 2,-4 -10,1 -8,-3 4,-3 7,-6 10,-10 -12,7 -24,21 -32,32 -4,3 -8,6 -11,5 -10,22 -17,41 -25,58 -1,3 -1,11 1,21 3,9 8,20 12,27z"/>
     <path class="fil11" d="M880 941l13 -10c-82,49 -84,47 -154,104 -5,2 -16,8 -21,11 -34,29 -68,74 -92,113 -6,9 -8,21 -7,30 0,9 2,15 2,15 0,7 3,16 9,13 8,-8 24,-30 30,-25 2,1 -1,5 -4,9 6,5 9,27 5,31 0,7 -8,40 -7,46 -4,16 45,-7 62,-20 9,-6 7,5 12,8 4,-9 12,-10 16,-19 1,1 6,-5 13,-12 6,-7 14,-16 18,-22 0,0 2,-5 12,-17 3,-4 1,-5 0,-6 1,1 1,1 3,2 0,-6 10,-11 11,-17 2,2 2,2 3,3 4,-10 14,-15 19,-24 1,1 1,1 3,2 3,-4 7,-7 8,-6l3 2c5,-2 8,-12 11,-10l-2 -2c13,-15 25,-25 37,-34 34,-23 -2,11 31,-20 4,-3 5,-9 -1,-9l12 -10c7,-6 0,-7 8,-13 15,-14 30,-28 46,-40 16,-11 33,-23 50,-34l52 -30c18,-9 36,-18 53,-28 -19,7 -34,10 -51,21 -1,-2 -3,-5 -7,-3 -14,7 -28,16 -40,23 -7,4 -13,7 -18,9 -6,3 -11,5 -15,5 -5,2 -12,0 -25,8l13 -8c-1,-2 -4,-5 -4,-5 -9,5 -19,11 -29,17 -10,5 -20,12 -29,17 0,0 -2,-3 -3,-4l-9 6c-16,-4 31,-38 52,-53 -1,-2 -3,-5 -4,-7l-9 6 -2 -3c14,-9 26,-17 38,-25 13,-8 25,-15 39,-23 -5,2 -14,8 -18,11 -1,-2 -2,-4 -7,-1 19,-11 42,-23 60,-36 4,-4 -3,-6 -19,-1 -14,8 -23,14 -37,22l-2 -3c9,-6 24,-13 32,-20 4,-4 -12,1 -8,-4 5,-2 10,-5 14,-9 -15,7 -33,21 -48,27 -6,1 -11,3 -13,-1 -6,4 -12,8 -17,10 -6,4 -11,6 -16,8 -11,4 -21,7 -30,7 -4,0 -11,5 -19,10 -8,6 -16,13 -23,18z"/>
     <path class="fil11" d="M548 891c5,-3 10,-6 15,-9 -23,9 -42,27 -55,49 -6,10 -11,23 -14,35 -3,13 -3,26 -2,39 1,12 4,25 8,37 5,12 11,24 19,34 16,21 37,37 61,48 5,4 18,10 24,13 27,6 60,1 88,-14 14,-8 26,-18 36,-29 11,-11 18,-24 24,-37 5,-12 4,-25 0,-34 -3,-9 -8,-14 -8,-14 -3,-7 -10,-13 -14,-8 -2,5 -4,14 -7,21 -3,6 -8,11 -11,9 -2,0 0,-4 1,-9 -3,-1 -7,-6 -11,-11 -4,-4 -7,-8 -7,-10 -1,-2 -4,-8 -8,-14 -4,-5 -9,-9 -11,-10 -4,-4 -11,4 -19,8 -8,6 -17,8 -20,9 -4,0 -9,-3 -15,-4 2,1 -3,-1 -2,-1l0 1 0 0c1,0 0,-1 1,1l-1 -1c1,0 0,-2 0,-1l0 -1 0 1 0 1 0 0 0 0 0 -1 0 1c0,0 0,0 1,-1l-1 0 0 0 0 0 1 1 0 0 -1 -1c-2,-1 -2,-3 -1,-4l2 0 2 2c1,0 1,0 3,1 2,-1 4,-5 2,-5 1,-1 4,-4 3,-4 -1,-2 -3,-4 -5,-5 -2,-1 -3,-2 -4,-6 -1,-1 -2,-8 -7,-7 2,0 3,0 4,0l0 -6c-6,-2 -15,-1 -22,2 0,0 -3,-3 -4,-5l-3 3c-6,-3 -4,-9 2,-15 6,-5 17,-8 24,-9 0,-2 -1,-6 -1,-8 -2,0 -4,0 -6,1l-1 -4c20,-3 37,1 53,12 -3,-2 -8,-5 -11,-6 0,-2 1,-4 -2,-5 13,5 25,17 36,26 3,2 7,-4 0,-14 -8,-9 -14,-14 -24,-20l1 -3c8,4 16,13 23,17 5,2 -2,-10 3,-8 3,3 6,6 10,8 -8,-11 -24,-20 -35,-27 -4,-4 -8,-7 -6,-11 -24,-6 -43,-11 -61,-17 -3,-1 -12,1 -21,4 -9,4 -19,10 -26,15z"/>
     <path class="fil12" d="M2279 1029c-1,-3 -1,-8 -3,-11 -2,-2 -7,1 -8,4 -1,3 0,8 5,10 2,0 4,0 6,-3zm-872 -49c10,0 19,1 30,-7 -12,2 -22,1 -30,7zm733 262c-6,-3 -13,-5 -20,-4 5,8 13,6 20,4zm-1028 -115c-3,0 -6,0 -9,-1 -2,0 -6,-1 -6,0 2,4 -1,7 -2,10 3,0 6,0 9,-1 3,-2 8,-1 8,-8zm812 -184c9,0 18,0 30,0 -12,-12 -21,-5 -30,0zm-298 150c5,1 8,9 12,4 4,-4 -1,-11 1,-16 -9,0 -6,10 -13,12zm26 2c10,-2 18,-4 25,-5 2,0 5,0 5,-3 0,-2 -2,-4 -5,-4 -9,0 -17,4 -25,12zm-50 -8c-5,9 -14,11 -12,19 1,2 9,2 12,-1 7,-5 -1,-9 0,-18zm133 -197c11,5 26,3 34,-2 -12,-4 -23,0 -34,2zm-201 67c-14,-2 -27,1 -39,7 13,-1 26,0 39,-7zm822 92c-3,12 -2,14 0,13 8,-8 14,-2 20,2 2,1 6,2 7,-1 1,-4 -2,-5 -5,-6 -7,-3 -14,-5 -22,-8zm-1139 31c-1,-5 -6,-5 -7,-5 -9,9 -20,10 -31,14 -2,0 -1,2 -1,4 0,2 1,2 3,2 12,-5 24,-10 36,-15zm1061 -33c-19,-8 -43,-2 -58,-23 -1,-1 -4,-2 -7,-1 -2,1 -3,5 -2,5 11,0 15,14 23,15 15,3 29,7 44,4zm-655 -33c-18,1 -35,-2 -52,10 7,4 12,2 15,-1 5,-3 11,-2 13,-1 12,9 18,4 24,-8zm-314 21c-28,8 -55,17 -81,28 -4,2 -6,4 -4,7 1,4 5,1 7,0 7,-3 12,-10 20,-11 21,-4 38,-17 58,-24zm729 -62c17,14 36,10 58,7 -20,-12 -39,-8 -58,-7zm15 64c14,7 28,3 43,3 -5,-6 -26,-6 -6,-18 2,-1 3,-7 0,-9 -4,-2 -9,-4 -13,-4 -3,-1 -2,3 -2,6 4,15 4,15 -12,17 -4,1 -7,1 -10,5zm289 -2l0 1c14,5 28,10 42,14 4,1 7,1 9,5 2,7 7,7 12,6 7,-2 13,-4 20,-6 -2,-2 -5,-3 -8,-4 -13,-5 -29,-5 -39,-19 -2,-3 -3,-3 -5,0 -7,7 -15,10 -24,3 -1,-1 -4,0 -7,0zm-783 -9c-7,-3 -15,-6 -23,1 -3,3 -9,4 -13,2 -10,-3 -19,1 -27,5 -6,4 -16,5 -20,15 30,-2 59,-3 83,-23zm1045 130c-11,-21 -46,-38 -70,-34 -4,1 -8,2 -10,-3 -3,-9 -13,-10 -21,-17 7,26 26,28 44,33 2,-2 -4,-6 2,-8 3,0 7,3 6,4 -2,8 6,9 8,8 15,-2 23,7 33,15 2,1 5,3 8,2zm-1237 -72c6,-6 11,-9 18,-9 23,-2 45,-10 68,-16 3,-1 5,-2 7,-2 5,-2 5,-6 5,-10 0,-5 -4,-3 -7,-3 -9,0 -16,5 -23,6 -17,3 -34,5 -51,2 -4,-1 -7,-1 -9,2 -10,14 -30,0 -41,14l-3 0c-6,-4 -11,0 -17,1 -16,4 -30,16 -48,17 -13,0 -24,5 -32,17 6,-7 13,-3 20,-3 7,-1 14,-2 20,-3 11,-1 21,1 31,-5 2,-2 6,-1 5,-5 -4,-9 2,-5 6,-5 6,1 7,1 7,0 -6,-11 4,-5 6,-6 9,-4 20,1 30,-3 9,-5 10,1 8,11zm-291 398c5,-10 10,-19 23,-19 7,1 9,-4 7,-11 -2,-15 13,-39 29,-42 26,-6 50,-15 74,-28 11,-6 14,-17 18,-28 4,-10 24,-21 34,-16 10,5 21,4 32,7 4,2 8,-2 9,-6 0,-4 -4,-3 -8,-4 -7,0 -18,2 -18,-8 0,-10 11,-7 18,-8 17,-1 35,-1 50,-11 3,-1 9,-1 5,-7 -3,-5 -7,-5 -10,-2 -9,8 -20,7 -30,8 -8,1 -6,-3 -4,-6 11,-18 28,-25 47,-27 9,-1 16,0 22,-8l4 -2c5,-4 12,0 14,3 3,5 -3,8 -7,10 -7,4 -16,6 -19,16 6,4 13,2 19,3 9,0 17,-1 22,10 1,3 6,5 9,3 14,-4 28,-8 37,-21 3,-6 7,-8 14,-8 11,-1 20,-11 32,-8 3,1 6,0 9,2 6,3 11,3 15,-4 3,-5 8,-8 15,-8 6,-1 13,-5 12,-12 -2,-6 -9,-10 -16,-7 -6,2 -12,3 -18,8 -7,7 -16,7 -26,8 -27,2 -54,4 -84,6 9,-11 19,-14 28,-15 10,-1 15,-3 13,-15 -2,-13 5,-21 18,-23 8,0 7,-5 7,-9 1,-5 -4,-3 -7,-4 -6,-1 -11,1 -15,5 -5,5 -10,4 -14,2 -2,0 -3,-5 -3,-7 1,-6 5,-7 10,-8 14,-4 30,-5 45,-15 -20,0 -37,2 -53,7 -14,4 -28,6 -42,11 -37,14 -75,24 -113,35 -4,1 -11,7 -13,0 -2,-5 7,-6 11,-8 27,-11 55,-22 84,-28 6,-1 9,-7 14,-8 42,-11 83,-28 126,-36 8,-2 15,-9 22,-14 -5,-5 -16,4 -16,-6 0,-10 13,-2 17,-7 -12,-7 -22,-4 -25,8 -2,5 -4,6 -8,5 -10,-1 -18,0 -26,6 -9,6 -21,5 -32,3 -11,-1 -18,2 -24,11 -6,10 -14,15 -26,13 -3,-1 -5,-2 -6,3 0,3 -3,4 -5,4 -28,4 -50,25 -80,28 -11,0 -23,10 -37,9 -8,-1 -17,-2 -18,-13 -2,-9 3,-16 13,-20 7,-3 14,-8 19,-13 9,-9 17,-10 27,-6 17,6 34,9 52,3 3,-2 11,-1 5,-9 -2,-2 -8,-4 -3,-7 4,-2 11,-6 14,-2 12,18 23,6 31,-1 16,-13 32,-17 51,-13 5,1 8,-4 13,-8 -8,-2 -14,-3 -20,-4 -3,0 -7,0 -6,-5 0,-3 2,-7 7,-7 12,1 20,-5 30,-12 8,-6 19,-6 29,-4 4,0 7,1 10,-2 9,-9 18,-7 26,-1 6,5 11,5 15,-2 3,-6 9,-8 15,-8 18,0 32,-13 50,-12 4,0 5,-6 5,-9 -1,-4 -4,-7 -9,-7 -16,1 -30,5 -43,13 -12,8 -27,9 -40,0 -4,-3 -9,-3 -11,1 -4,9 -12,8 -20,10 -9,2 -18,3 -26,10 -7,7 -19,3 -28,7 -16,8 -35,6 -52,12 -2,0 -3,1 -4,-1 -6,-6 -21,-12 -32,-13 -1,-3 6,-2 4,-5 -1,-2 -4,-2 -6,-1 -6,2 -13,4 -19,6 -4,1 -8,4 -14,6 17,6 34,1 48,11 -21,19 -84,35 -114,27 13,-8 26,-15 38,-22 2,-1 6,-1 5,-4 -2,-6 -4,0 -6,0 -12,-1 -21,9 -32,9l0 1c-3,-4 0,-8 -1,-13 -9,12 -22,6 -30,3 -12,-3 -17,4 -25,6l-1 1c-6,2 -13,6 -19,8 -12,3 -20,9 -30,17 -4,5 -16,4 -24,7 4,-9 8,-14 14,-19 -27,5 -51,18 -77,26 -26,8 -51,19 -77,26 -21,7 -40,22 -63,25 13,-19 18,-25 42,-32 6,-1 13,-1 20,-4 2,-2 8,-4 5,4 -1,2 2,1 3,0 1,-2 7,-1 5,-3 -6,-8 1,-7 4,-9 19,-17 42,-23 65,-30 4,-1 9,-1 10,-9 0,-7 10,-2 12,-9 -6,-6 -27,-7 -39,1 -15,9 -32,14 -48,22 -22,11 -45,21 -67,32 -9,4 -18,7 -27,12 0,-5 12,-12 -2,-12 -3,-1 -7,4 -11,2l0 -2c17,-7 31,-22 48,-28 15,-5 25,-21 42,-20 2,1 -1,-9 5,-11 -4,-2 -5,1 -7,2 -2,0 -4,3 -6,0 8,0 -6,-7 3,-9 8,-2 15,-8 20,-15 3,-3 6,-7 12,-4 4,2 8,-4 11,-6 5,-2 8,-6 15,-3 -9,5 -14,12 -13,23 12,-6 24,-12 36,-19 4,-2 8,-2 12,-4 2,-2 4,-2 4,4 -1,4 4,2 7,0 8,-4 17,-8 27,-10 -10,5 -20,9 -30,14 1,2 1,3 2,5 88,-34 176,-65 267,-94 -21,-6 -38,4 -55,11 -8,3 -15,5 -24,0 -5,-4 -13,-2 -20,-3 -5,-1 -10,-2 -11,-8 -2,-7 5,-7 9,-10 14,-11 32,-7 48,-13 7,-2 14,-1 20,-7 3,-3 8,-4 13,-4 15,-1 29,-5 44,-9 14,-3 29,-1 42,-7 30,-13 62,-16 93,-24 39,-10 79,-13 119,-16 6,-1 10,-5 16,-4 -11,-3 -21,-1 -31,0 -8,1 -16,1 -25,2 -2,0 -5,2 -6,-2 0,-3 2,-6 6,-7 7,-1 15,-1 23,-3 30,-7 61,-9 91,-13 4,-1 8,0 12,2 -14,8 -30,3 -47,10 39,4 73,-10 109,-9 35,1 70,6 106,0 1,6 -8,3 -5,12 -1,-3 -1,-2 -1,-2 10,0 20,6 29,-2l3 -1c15,10 31,-2 45,2 23,5 46,-1 69,6 6,2 13,2 19,-1 12,-8 23,-4 35,-2 15,3 30,6 45,4 3,0 6,-1 9,0 31,10 64,5 95,12 30,6 62,7 92,13 11,2 18,10 27,15 4,-4 -1,-7 0,-11 6,0 9,3 7,9 -1,2 -1,5 2,6 3,1 5,0 7,-3 3,-7 7,-3 10,0 7,6 14,10 19,-1 2,-3 4,-3 7,-2 6,2 13,2 20,5 29,11 58,22 86,34 15,7 32,12 49,14 11,2 14,14 21,21 -10,-6 -21,-6 -32,-7l-4 -1c-6,-15 -15,-9 -26,-6 -8,3 -18,0 -27,-6 -8,-5 -17,-12 -28,-9 -4,1 -5,-3 -8,-3 -3,-2 -7,-8 -12,-1 -1,2 -4,2 -7,1 -16,-13 -38,-7 -56,-15 -20,-10 -44,-7 -65,-16 -1,-1 -3,-2 -4,0 -6,10 -12,4 -20,2 -7,-2 -16,-3 -23,-4 -7,0 -14,0 -20,-6 -1,-1 -5,-2 -7,-1 -19,6 -39,-1 -59,-1 -17,0 -35,-6 -53,-10 -4,-1 -7,-1 -10,0 -8,3 -16,2 -24,-2 -13,-5 -26,2 -40,-1 -3,0 -2,4 -2,6 -1,4 1,4 4,4 5,1 11,1 11,9 0,7 8,8 12,7 17,-4 34,0 50,1 26,0 52,-1 77,4 34,6 68,6 101,14 36,9 74,12 110,24 13,5 28,4 41,10 9,4 18,8 29,10 6,1 12,-4 16,-2 23,9 50,11 68,31 2,2 7,4 4,8 -3,3 -5,-2 -7,-2 -3,-1 -5,-3 -7,-3 -20,6 -34,-11 -51,-14 -19,-5 -36,-15 -56,-15 -2,0 -2,1 -1,3l0 3c-2,1 -6,3 -8,2 -6,-2 -12,-5 -17,-9 -6,-5 -13,-6 -21,-4 -13,1 -26,-3 -38,-6 -17,-3 -36,1 -50,-13 -13,4 -24,-8 -37,-3 -11,4 -17,0 -20,-10 -2,-7 -5,-6 -11,-4 -9,5 -19,10 -30,8 -11,-2 -21,-11 -33,0 -5,4 -11,-3 -18,-4 10,13 25,14 38,17 4,1 8,1 11,4 2,1 10,11 10,-3 -1,-2 7,0 11,1 14,6 27,9 42,5 12,-3 23,2 35,2 15,0 31,-1 43,13 1,2 4,1 5,0 6,-8 15,-5 21,-3 11,4 24,2 32,13 2,3 7,4 11,4 22,-1 40,12 61,12l3 1c5,17 18,17 31,15 6,-1 11,0 15,4 5,6 11,10 19,11 5,0 7,4 14,7 -7,2 -11,4 -14,1 -14,-12 -31,-10 -47,-10 -9,1 -17,-1 -24,-8 -8,-8 -21,-6 -31,-5 -5,0 -12,-1 -19,4 13,4 24,9 37,9 5,0 12,-1 15,5 1,4 -3,9 -7,12 -7,3 -10,-2 -13,-7 -2,-2 -5,-6 -9,-4 -3,1 -6,-6 -8,1 -1,5 3,9 6,9 8,-3 13,4 20,6 8,3 12,3 16,-5 3,-8 9,-9 16,-7 9,3 18,7 27,9 40,10 77,26 114,43 38,18 77,35 113,58 6,3 12,6 2,13 -8,8 -6,14 4,21 2,2 4,4 6,6 6,-2 -3,-10 5,-10 5,-1 9,4 12,7 4,6 4,13 13,17 4,3 2,19 2,29 0,2 -3,1 -5,-1 -11,-13 -27,-19 -39,-30 -11,-12 -24,-21 -40,-26 -4,-1 -3,-8 -6,-8 -4,-1 -10,-3 -13,3 -1,2 -3,5 -3,4 -6,-8 -14,0 -20,-2 -9,-3 -5,-7 -3,-11 10,-14 10,-19 -4,-29 -3,-2 -4,-5 -2,-7 6,-8 1,-10 -6,-12 -2,-1 -5,-2 -7,-4 -3,-1 0,-7 -6,-6 -5,1 -5,6 -7,9 -1,2 -1,4 0,6 2,3 5,1 7,0 7,-5 13,2 13,6 -2,9 3,15 6,21 2,4 4,8 2,11 -3,4 -8,0 -11,-1 -10,-3 -16,-13 -25,-16 -6,-2 -11,-7 -17,1 -4,4 -9,2 -12,-2 -3,-3 -6,-1 -8,-1 -4,2 -1,5 -1,8 1,7 9,13 13,12 16,0 23,13 35,19 7,3 12,11 21,2 4,-3 13,-2 15,4 3,13 13,13 23,16 35,13 69,30 104,44 2,1 4,2 4,7 -14,-10 -30,-5 -43,-11 -53,-22 -106,-44 -161,-60 -40,-12 -79,-22 -120,-31 -52,-12 -105,-19 -159,-27 -11,-1 -22,-2 -33,-3 10,18 30,10 45,15 10,2 23,2 34,4 7,2 14,6 22,6 7,0 -5,6 1,8 4,2 13,2 12,7 -2,6 -9,3 -14,1l-3 3c-2,5 -9,8 -16,5 -8,-4 -15,-6 -22,2 -2,3 -4,1 -6,1 -6,-1 -11,1 -17,3 -2,-9 -11,-2 -16,-6 -2,-1 -5,-1 -6,1 -6,12 -16,6 -25,6 -18,1 -36,2 -55,1 12,2 23,9 35,4 2,-1 3,0 4,1 2,3 -2,4 -2,5 24,2 50,1 73,9l3 1c7,12 7,12 24,15 -5,-7 -13,-5 -19,-9 14,-3 27,1 40,5 4,2 2,6 -1,8 -5,2 -11,4 -17,3 -12,-1 -24,10 -36,0 -1,-3 7,-1 4,-5 -2,-2 -7,-4 -10,-3 -17,6 -32,-3 -49,-2 -13,0 -27,0 -40,-4 -7,-2 -6,5 -6,9 -10,-5 -10,-6 -14,3 -2,3 -5,2 -7,1 -12,-9 -25,-6 -38,-3 -4,1 -7,-1 -10,-4 2,-5 9,-2 11,-7 -7,-2 -16,1 -23,-3l-4 1c-6,11 -8,13 -16,13 -15,0 -29,1 -43,0 -17,0 -34,-1 -51,2 -16,3 -33,1 -49,3 -19,2 -38,2 -58,5 -20,3 -40,4 -60,5 -6,0 -11,2 -17,3 -28,3 -56,6 -83,11 -19,3 -38,6 -57,11 -15,3 -31,6 -47,10 -23,5 -47,10 -70,14 -27,5 -53,13 -78,21 -47,15 -94,30 -140,48l-3 2 0 0c-66,21 -133,41 -198,67 -23,9 -48,14 -72,20 -6,2 -12,3 -17,7 -5,0 -9,0 -14,1z"/>
    </g>
    <path class="fil13" d="M1285 2783l0 403c-6,2 -13,3 -20,5 -8,1 -17,2 -28,2 -24,0 -41,-4 -50,-12 -9,-8 -13,-20 -13,-38l0 -129 -121 0c-5,20 -16,36 -31,48 -15,12 -34,18 -58,18 -29,0 -51,-7 -65,-21 -14,-14 -21,-30 -21,-50 0,-15 4,-31 14,-47l19 0c11,0 20,-4 26,-10 6,-7 10,-16 10,-29l0 -113c0,-9 -3,-16 -8,-20 -5,-4 -11,-6 -18,-6 -8,0 -13,1 -18,5 -4,4 -7,9 -8,16 -6,1 -11,2 -16,2 -16,0 -28,-4 -38,-13 -9,-8 -13,-20 -13,-35 0,-12 2,-22 7,-31 5,-9 12,-17 21,-23 9,-7 19,-11 31,-14 12,-4 25,-5 39,-5 42,0 75,9 98,28 22,18 33,45 33,81l0 132 117 0 0 -144 -45 0c-12,0 -21,-4 -25,-11 -5,-7 -7,-17 -7,-31 0,-6 0,-13 2,-21 1,-8 3,-14 5,-18l231 0c21,0 32,13 32,40 0,6 -1,13 -2,21 -2,9 -4,15 -6,20l-74 0z"/>
    <path id="1" class="fil13" d="M1508 2783l0 403c-5,2 -12,3 -20,5 -8,1 -17,2 -27,2 -25,0 -42,-4 -50,-12 -9,-8 -14,-20 -14,-38l0 -360 -50 0c-12,0 -21,-4 -25,-11 -5,-7 -7,-17 -7,-31 0,-6 0,-13 1,-21 2,-8 3,-14 6,-18l236 0c22,0 32,13 32,40 0,6 0,13 -2,21 -2,9 -4,15 -6,20l-74 0z"/>
    <path id="2" class="fil14" d="M1732 2783l0 403c-6,2 -13,3 -21,5 -7,1 -16,2 -27,2 -24,0 -41,-4 -50,-12 -9,-8 -13,-20 -13,-38l0 -360 -51 0c-12,0 -20,-4 -25,-11 -5,-7 -7,-17 -7,-31 0,-6 1,-13 2,-21 1,-8 3,-14 5,-18l75 0c-4,-8 -7,-18 -9,-29 -2,-11 -3,-23 -3,-34 0,-22 4,-42 13,-61 9,-19 23,-36 41,-49 18,-14 41,-24 68,-32 27,-8 59,-12 96,-12 46,0 89,5 129,16 40,10 74,23 103,37 30,14 52,29 69,44 17,16 25,28 25,37 0,16 -6,28 -18,36 -12,9 -28,13 -48,13 -14,-15 -30,-28 -50,-40 -19,-11 -39,-21 -62,-29 -22,-8 -45,-15 -69,-19 -24,-4 -48,-7 -72,-7 -38,0 -66,8 -84,23 -18,15 -27,34 -27,57 0,19 3,36 11,49l49 0c21,0 32,13 32,40 0,6 -1,13 -3,21 -1,9 -3,15 -6,20l-73 0z"/>
    <path id="3" class="fil14" d="M2194 2783l0 403c-6,2 -12,3 -20,5 -8,1 -17,2 -27,2 -25,0 -42,-4 -50,-12 -9,-8 -14,-20 -14,-38l0 -102c-13,8 -27,13 -43,17 -15,4 -32,6 -50,6 -51,0 -92,-14 -121,-43 -29,-28 -43,-70 -43,-125l0 -113 -39 0c-12,0 -20,-4 -25,-11 -4,-7 -7,-17 -7,-31 0,-6 1,-13 2,-21 1,-8 3,-14 5,-18l482 0c21,0 32,13 32,40 0,6 -1,13 -2,21 -2,9 -4,15 -6,20l-74 0zm-179 193c13,0 26,-2 38,-7 12,-4 21,-10 28,-17l-145 -112 0 51c0,31 7,53 20,66 13,12 33,19 59,19zm68 -86l0 -107 -139 0 139 107z"/>
    <path id="4" class="fil15" d="M2804 2783l0 403c-6,2 -13,3 -21,5 -7,1 -17,2 -27,2 -24,0 -41,-4 -50,-12 -9,-8 -13,-20 -13,-38l0 -360 -84 0c5,49 7,98 7,145 0,26 -4,49 -12,67 -8,19 -19,35 -34,47 -14,13 -32,22 -52,28 -20,6 -42,9 -66,9 -24,0 -46,-3 -66,-9 -20,-6 -37,-15 -52,-27 -14,-13 -26,-28 -34,-47 -8,-19 -12,-42 -12,-68 0,-25 1,-49 2,-73 1,-24 2,-48 4,-72l-44 0c-12,0 -21,-4 -25,-11 -5,-7 -7,-17 -7,-31 0,-6 0,-13 2,-21 1,-8 3,-14 5,-18l628 0c21,0 32,13 32,40 0,6 -1,13 -2,21 -1,9 -3,15 -6,20l-73 0zm-352 208c16,0 28,-5 36,-14 9,-10 13,-24 13,-43l0 -151 -99 0 0 151c0,19 5,33 13,43 9,9 22,14 37,14z"/>
    <path id="5" class="fil15" d="M3027 2783l0 403c-6,2 -12,3 -20,5 -8,1 -17,2 -27,2 -25,0 -42,-4 -50,-12 -9,-8 -14,-20 -14,-38l0 -360 -51 0c-12,0 -20,-4 -25,-11 -4,-7 -7,-17 -7,-31 0,-6 1,-13 2,-21 2,-8 3,-14 5,-18l77 0 0 -11c0,-42 -6,-72 -17,-90 -12,-18 -28,-28 -48,-28 -16,0 -30,6 -39,17 -10,11 -15,26 -15,44l0 21c-4,1 -9,3 -14,4 -4,1 -9,2 -15,3 -5,2 -11,2 -17,2 -18,0 -34,-4 -46,-11 -13,-8 -19,-22 -19,-44 0,-17 3,-33 10,-48 8,-15 18,-28 32,-40 14,-11 31,-20 51,-27 21,-6 44,-10 70,-10 55,0 98,17 129,51 32,33 47,85 47,154l0 13 51 0c22,0 32,13 32,40 0,6 -1,13 -2,21 -2,9 -4,15 -6,20l-74 0z"/>
    <path class="fil16" d="M1146 3321l0 140c-1,0 -2,0 -4,0 -1,1 -2,1 -3,1 -7,0 -11,-3 -11,-9l0 -54 -54 0c-1,13 -8,19 -20,19 -6,0 -11,-1 -14,-4 -3,-3 -4,-7 -4,-11 0,-3 0,-7 2,-10l9 0c3,0 5,-1 7,-3 1,-1 2,-3 2,-6l0 -55c0,-4 -1,-7 -3,-9 -3,-1 -5,-2 -8,-2 -3,0 -6,1 -8,2 -2,2 -3,4 -4,7 -1,1 -3,1 -4,1 -3,0 -6,0 -8,-2 -2,-1 -3,-3 -3,-7 0,-5 3,-10 8,-13 5,-3 11,-5 18,-5 4,0 8,1 11,2 4,1 7,2 10,4 2,2 5,5 6,8 2,4 3,8 3,12l0 56 54 0 0 -62 -28 0c-5,0 -7,-3 -7,-8 0,-1 0,-2 0,-3 0,-1 1,-2 1,-4l73 0c5,0 7,3 7,8 0,1 0,2 0,3 0,1 0,3 -1,4l-27 0z"/>
    <path id="1" class="fil16" d="M1208 3321l0 140c-1,0 -2,0 -3,0 -2,1 -3,1 -4,1 -7,0 -11,-3 -11,-9l0 -132 -23 0c-4,0 -7,-3 -7,-8 0,-1 0,-2 1,-3 0,-1 0,-2 0,-4l69 0c4,0 7,3 7,8 0,1 0,2 -1,3 0,1 0,3 0,4l-28 0z"/>
    <path id="2" class="fil16" d="M1346 3321l0 140c-1,0 -2,0 -4,0 -1,1 -2,1 -3,1 -7,0 -11,-3 -11,-9l0 -46c-4,3 -9,5 -15,7 -6,2 -12,3 -20,3 -7,0 -13,-1 -19,-3 -6,-1 -11,-4 -15,-8 -5,-4 -8,-9 -10,-15 -2,-6 -4,-14 -4,-22l0 -48 -15 0c-5,0 -7,-3 -7,-8 0,-1 0,-2 0,-3 0,-1 0,-2 1,-4l143 0c5,0 7,3 7,8 0,1 0,2 0,3 0,1 0,3 -1,4l-27 0zm-49 80c6,0 12,-1 17,-3 6,-2 10,-4 14,-8l-65 -53 0 31c0,6 1,12 2,16 2,4 4,8 7,10 3,3 6,5 10,6 5,1 9,1 15,1zm31 -28l0 -52 -65 0 65 52z"/>
    <path id="3" class="fil16" d="M1408 3321l0 140c-1,0 -2,0 -3,0 -1,1 -3,1 -4,1 -7,0 -11,-3 -11,-9l0 -132 -23 0c-4,0 -7,-3 -7,-8 0,-1 0,-2 1,-3 0,-1 0,-2 0,-4l69 0c4,0 7,3 7,8 0,1 0,2 -1,3 0,1 0,3 0,4l-28 0z"/>
    <path id="4" class="fil16" d="M1638 3321l0 140c-1,0 -2,0 -3,0 -2,1 -3,1 -4,1 -7,0 -11,-3 -11,-9l0 -61c-2,0 -5,1 -7,1 -3,0 -7,0 -11,0 -3,0 -6,0 -9,0 -3,0 -6,-1 -9,-1 -3,-1 -6,-1 -8,-2 -3,0 -5,-1 -7,-2l0 1c3,3 6,6 8,11 2,5 3,10 3,15 0,11 -4,20 -13,27 -9,7 -21,11 -36,11 -5,0 -11,0 -15,-1 -5,-1 -9,-2 -13,-4 -4,-1 -7,-3 -9,-6 -2,-2 -3,-4 -3,-7 0,-3 0,-5 2,-7 1,-1 3,-2 4,-3 5,4 9,7 15,9 5,2 11,3 19,3 9,0 17,-3 22,-7 6,-5 9,-11 9,-19 0,-8 -3,-14 -8,-19 -5,-4 -11,-7 -19,-7l-24 0c0,-1 -1,-2 -1,-3 0,-1 -1,-2 -1,-4 0,-3 1,-6 2,-8l23 0c7,0 14,-2 18,-7 5,-4 7,-10 7,-18 0,-7 -2,-12 -7,-17 -4,-4 -11,-7 -19,-7 -8,0 -14,1 -18,4 -5,2 -9,5 -12,8 -2,-1 -4,-3 -5,-4 -2,-2 -3,-4 -3,-6 0,-2 1,-5 3,-7 2,-2 5,-4 8,-6 3,-1 7,-3 12,-4 4,-1 9,-1 15,-1 6,0 12,1 17,3 6,1 10,4 15,7 4,4 7,8 9,12 3,5 4,11 4,17 0,7 -2,13 -5,18 -3,5 -7,9 -10,12 1,0 2,1 5,1 2,1 4,1 7,2 2,0 5,0 8,1 3,0 5,0 8,0 11,0 21,-2 29,-5l0 -52 -21 0c-4,0 -7,-3 -7,-8 0,-1 0,-2 1,-3 0,-1 0,-2 0,-4l66 0c5,0 7,3 7,8 0,1 0,2 0,3 0,1 0,3 -1,4l-27 0z"/>
    <path id="5" class="fil16" d="M1773 3321l0 140c-1,0 -2,0 -3,0 -1,1 -3,1 -4,1 -7,0 -10,-3 -10,-9l0 -66 -48 0c-4,0 -6,1 -8,3 -2,1 -3,4 -3,8l0 11c-2,1 -3,1 -4,2 -2,0 -4,1 -6,1 -4,0 -8,-2 -12,-5 -3,-4 -5,-9 -5,-16 0,-7 2,-11 6,-15 5,-3 11,-5 19,-5l61 0 0 -50 -97 0c-4,0 -7,-3 -7,-8 0,-1 0,-2 1,-3 0,-1 0,-2 0,-4l142 0c5,0 7,3 7,8 0,1 0,2 0,3 -1,1 -1,3 -1,4l-28 0z"/>
    <path id="6" class="fil16" d="M1756 3308c-2,-6 -6,-12 -10,-18 -5,-5 -10,-10 -15,-15 -5,-4 -11,-8 -17,-11 -5,-3 -11,-5 -16,-6 0,-1 0,-3 0,-4 0,-3 1,-6 3,-8 1,-2 4,-3 7,-3 5,0 10,2 16,6 7,3 13,8 19,14 6,6 12,12 17,20 6,8 10,16 13,25l-17 0z"/>
    <path id="7" class="fil16" d="M1904 3321l0 39c4,-4 9,-6 14,-8 5,-2 11,-4 18,-4 7,0 13,2 18,4 6,2 11,5 15,9 4,4 7,8 9,14 2,5 3,11 3,17 0,7 -1,13 -3,18 -3,6 -6,10 -10,14 -4,4 -9,7 -14,9 -5,2 -11,3 -17,3 -11,0 -16,-4 -16,-10 0,-2 0,-3 1,-4 0,-1 0,-2 1,-3 1,1 2,1 4,1 3,0 4,0 6,0 8,0 15,-2 21,-7 6,-5 8,-12 8,-22 0,-8 -2,-14 -8,-19 -5,-5 -12,-8 -21,-8 -6,0 -11,2 -16,4 -5,3 -9,6 -13,10l0 83c-1,0 -2,0 -3,0 -1,1 -3,1 -4,1 -7,0 -10,-3 -10,-9l0 -29c-4,3 -8,5 -13,7 -5,3 -12,4 -19,4 -6,0 -12,-1 -18,-3 -5,-2 -10,-5 -15,-8 -4,-4 -8,-9 -10,-14 -3,-6 -4,-12 -4,-20 0,-6 1,-12 3,-17 3,-6 6,-10 10,-14 4,-3 9,-6 14,-8 5,-2 11,-3 17,-3 7,0 13,1 16,3 3,2 4,5 4,8 0,2 0,3 -1,4 0,1 -1,2 -2,3 -2,-1 -4,-1 -6,-2 -2,0 -4,-1 -7,-1 -9,0 -16,3 -21,8 -6,4 -8,11 -8,20 0,9 2,15 8,20 5,5 12,8 22,8 4,0 8,0 11,-1 3,-1 6,-3 9,-4 2,-2 4,-3 6,-5 1,-1 3,-3 4,-5l0 -83 -92 0c-5,0 -7,-3 -7,-8 0,-1 0,-2 0,-3 0,-1 1,-2 1,-4l200 0c5,0 7,3 7,8 0,1 0,2 0,3 0,1 -1,3 -1,4l-91 0z"/>
    <path id="8" class="fil16" d="M2006 3482c-1,3 -3,5 -4,6 -2,1 -3,1 -6,1 -3,0 -6,-1 -9,-4 2,-3 3,-7 4,-11 1,-4 3,-9 4,-13 2,-5 3,-9 4,-14 1,-4 2,-8 3,-12 1,0 2,-1 4,-1 2,-1 3,-1 5,-1 3,0 5,1 7,2 2,2 3,4 3,7 0,3 -1,7 -2,10 -1,4 -2,8 -4,12 -1,4 -3,8 -5,11 -1,3 -3,6 -4,7z"/>
    <path id="9" class="fil16" d="M2201 3321l0 140c-1,0 -2,0 -3,0 -1,1 -3,1 -4,1 -7,0 -10,-3 -10,-9l0 -54 -55 0c-1,13 -7,19 -20,19 -6,0 -11,-1 -13,-4 -3,-3 -5,-7 -5,-11 0,-3 1,-7 3,-10l9 0c2,0 5,-1 6,-3 2,-1 3,-3 3,-6l0 -55c0,-4 -1,-7 -4,-9 -2,-1 -5,-2 -8,-2 -3,0 -6,1 -8,2 -2,2 -3,4 -3,7 -2,1 -3,1 -5,1 -3,0 -5,0 -7,-2 -2,-1 -3,-3 -3,-7 0,-5 2,-10 7,-13 5,-3 12,-5 19,-5 4,0 7,1 11,2 3,1 7,2 9,4 3,2 5,5 7,8 2,4 2,8 2,12l0 56 55 0 0 -62 -29 0c-4,0 -7,-3 -7,-8 0,-1 0,-2 1,-3 0,-1 0,-2 0,-4l74 0c5,0 7,3 7,8 0,1 0,2 0,3 -1,1 -1,3 -1,4l-28 0z"/>
    <path id="10" class="fil16" d="M2264 3321l0 140c-1,0 -2,0 -4,0 -1,1 -2,1 -4,1 -7,0 -10,-3 -10,-9l0 -132 -23 0c-5,0 -7,-3 -7,-8 0,-1 0,-2 0,-3 0,-1 1,-2 1,-4l68 0c5,0 7,3 7,8 0,1 0,2 0,3 0,1 -1,3 -1,4l-27 0z"/>
    <path id="11" class="fil16" d="M2360 3321c3,4 5,8 7,13 2,5 3,11 3,18 0,7 -1,14 -4,19 -2,6 -5,11 -9,14 -5,4 -9,7 -14,9 -6,2 -11,3 -16,4 4,11 10,21 18,30 7,9 16,16 28,23 0,3 -1,6 -3,8 -1,2 -4,3 -7,3 -4,0 -8,-1 -13,-4 -4,-3 -9,-7 -13,-12 -5,-6 -9,-12 -14,-20 -5,-8 -9,-17 -12,-27 -5,-1 -8,-2 -10,-3 -3,-2 -4,-4 -4,-7 0,-2 0,-3 1,-5 1,-1 1,-3 2,-4 2,1 4,1 7,2 3,0 5,0 9,0 6,0 12,0 17,-2 4,-2 8,-4 11,-7 2,-3 5,-6 6,-10 1,-4 2,-8 2,-12 0,-6 -1,-11 -3,-16 -2,-5 -5,-10 -8,-14l-56 0c-5,0 -7,-3 -7,-8 0,-1 0,-2 0,-3 1,-1 1,-2 1,-4l106 0c5,0 7,3 7,8 0,1 0,2 0,3 -1,1 -1,3 -1,4l-31 0z"/>
    <path id="12" class="fil16" d="M2508 3321l0 140c-1,0 -2,0 -4,0 -1,1 -2,1 -4,1 -7,0 -10,-3 -10,-9l0 -78c-5,-1 -10,-2 -14,-3 -5,0 -10,-1 -15,-1 -12,0 -22,3 -30,9 -7,6 -11,15 -11,27 0,5 1,10 2,15 1,4 3,8 5,12 3,4 5,8 8,11 3,3 6,6 9,8 -1,3 -2,5 -4,7 -2,1 -4,2 -7,2 -2,0 -6,-2 -9,-5 -4,-2 -8,-6 -11,-11 -3,-5 -6,-11 -8,-18 -3,-7 -4,-14 -4,-22 0,-8 2,-16 5,-22 2,-6 6,-12 12,-16 5,-4 11,-7 18,-10 7,-2 14,-3 22,-3 6,0 12,1 17,1 6,1 11,2 15,3l0 -38 -104 0c-5,0 -7,-3 -7,-8 0,-1 0,-2 0,-3 1,-1 1,-2 1,-4l149 0c5,0 7,3 7,8 0,1 0,2 0,3 0,1 -1,3 -1,4l-27 0z"/>
    <path id="13" class="fil16" d="M2690 3321c3,5 5,10 7,17 2,7 3,14 3,22 0,7 -1,14 -2,20 -1,6 -2,11 -4,15 -2,4 -4,8 -6,10 -3,3 -5,4 -8,4 -2,0 -4,-1 -6,-2 -2,-1 -3,-2 -4,-4 3,-6 6,-12 8,-20 2,-8 3,-16 3,-24 0,-8 -1,-15 -2,-21 -2,-7 -4,-13 -6,-17l-53 0 0 81c7,4 13,8 20,12 7,4 13,8 20,12 6,4 11,8 16,12 5,4 10,7 13,9 3,3 6,5 8,7 2,2 2,4 2,6 0,3 0,6 -2,7 -2,2 -4,3 -7,3 -5,-4 -10,-8 -17,-13 -6,-4 -13,-9 -20,-14 -7,-5 -14,-10 -21,-15 -8,-5 -15,-10 -22,-14 -3,-1 -5,-3 -6,-5 -1,-1 -2,-4 -2,-7l0 -81 -23 0c-5,0 -7,-3 -7,-8 0,-1 0,-2 0,-3 1,-1 1,-2 1,-4l146 0c4,0 7,3 7,8 0,1 0,2 -1,3 0,1 0,3 0,4l-35 0z"/>
    <path id="14" class="fil16" d="M2827 3321l0 39c4,-4 8,-6 13,-8 5,-2 11,-4 19,-4 6,0 12,2 18,4 5,2 10,5 14,9 4,4 7,8 9,14 3,5 4,11 4,17 0,7 -2,13 -4,18 -2,6 -5,10 -9,14 -4,4 -9,7 -14,9 -6,2 -11,3 -17,3 -11,0 -17,-4 -17,-10 0,-2 1,-3 1,-4 0,-1 1,-2 1,-3 1,1 3,1 5,1 2,0 4,0 5,0 9,0 16,-2 21,-7 6,-5 9,-12 9,-22 0,-8 -3,-14 -8,-19 -5,-5 -13,-8 -22,-8 -6,0 -11,2 -16,4 -5,3 -9,6 -12,10l0 83c-1,0 -2,0 -3,0 -2,1 -3,1 -4,1 -7,0 -11,-3 -11,-9l0 -29c-3,3 -7,5 -13,7 -5,3 -11,4 -19,4 -6,0 -12,-1 -17,-3 -6,-2 -11,-5 -15,-8 -5,-4 -8,-9 -11,-14 -2,-6 -4,-12 -4,-20 0,-6 2,-12 4,-17 2,-6 5,-10 9,-14 4,-3 9,-6 14,-8 6,-2 11,-3 17,-3 8,0 13,1 16,3 3,2 5,5 5,8 0,2 -1,3 -1,4 -1,1 -2,2 -2,3 -3,-1 -5,-1 -6,-2 -2,0 -4,-1 -7,-1 -9,0 -16,3 -22,8 -5,4 -8,11 -8,20 0,9 3,15 8,20 5,5 13,8 22,8 4,0 8,0 12,-1 3,-1 6,-3 8,-4 2,-2 4,-3 6,-5 2,-1 3,-3 4,-5l0 -83 -92 0c-4,0 -7,-3 -7,-8 0,-1 0,-2 1,-3 0,-1 0,-2 0,-4l201 0c4,0 7,3 7,8 0,1 0,2 -1,3 0,1 0,3 0,4l-91 0z"/>
   </g>
   <g style="clip-path:url(#id0)">
    <image transform="matrix(1 -0 -0 -1 981.083 3181.2)" x="0" y="0" width="335" height="385" xlink:href="Bhashini Logo_Marathi_260621_Images\Bhashini Logo_Marathi_260621_ImgID1.png"/>
   </g>
   <path class="fil17" d="M979 2981c-2,-1 -3,-2 -3,-4 -1,-2 0,-3 1,-5 1,-1 3,-2 4,-3 3,0 4,0 6,1 0,0 0,0 0,0 6,4 4,7 2,9 -1,2 -2,3 -4,3 -1,0 -2,0 -2,0 -2,0 -3,0 -4,-1 0,0 0,0 0,0z"/>
   <path class="fil18" d="M2967 3021c-2,0 -4,0 -6,-1 -2,-1 -5,-2 -7,-4 -2,-2 -4,-4 -4,-7 -1,-2 -1,-5 -1,-7 1,-3 1,-6 2,-9 1,-2 3,-5 4,-8 1,-2 3,-5 4,-8 1,-2 2,-5 3,-7 1,-2 1,-4 2,-6 0,-2 -1,-3 -2,-4 -2,-2 -4,-3 -5,-3 -1,-1 -3,-1 -4,-1 0,0 -1,0 -2,0 -2,1 -3,1 -5,3 -2,1 -4,2 -6,4 -1,2 -2,3 -3,5 -1,2 -1,4 -2,6 0,1 0,3 1,5 0,2 1,3 2,5l-7 8c-3,-3 -4,-5 -5,-8 -1,-4 -1,-7 -1,-10 0,-3 1,-6 3,-9 1,-3 3,-6 6,-8 2,-3 5,-5 8,-7 3,-2 6,-3 9,-4 1,0 2,0 3,0 2,0 4,0 6,1 3,1 6,2 9,5l27 25c2,1 3,2 4,2 0,0 0,0 1,0 1,0 2,0 3,-1l0 -1 1 -1 6 6 -1 2 -2 2c-2,3 -4,4 -7,4 0,0 0,0 0,0 -3,0 -6,-2 -10,-5 1,4 1,7 1,10 0,3 -1,5 -2,8 0,2 -2,4 -3,6 -1,2 -2,3 -4,5 -2,2 -4,4 -7,5 -2,1 -4,2 -7,2 -1,0 -1,0 -2,0zm3 -54c0,2 0,4 -1,7 -1,2 -2,5 -3,7 -2,3 -3,5 -4,8 -1,2 -2,5 -3,7 -1,2 -1,5 -1,7 0,2 1,3 3,5 1,1 3,2 4,3 1,0 2,0 3,0 1,0 1,0 2,0 1,0 3,-1 4,-2 1,0 2,-1 3,-2 3,-4 5,-8 6,-13 1,-4 1,-10 -1,-16l-12 -11z"/>
   <path class="fil18" d="M2898 2581c-1,-3 -3,-6 -4,-10 -5,-9 -13,-16 -22,-22 -3,-2 -3,-5 -5,-8l1 -1c12,-9 25,-15 41,-16l0 0c2,-1 1,-4 2,-6l-2 -1c-12,-3 -24,-5 -36,-7l-2 -1c0,-3 0,-4 2,-4 0,0 1,0 2,0 17,4 34,7 50,10 4,1 4,1 3,6 -3,-1 -6,-2 -10,-2l0 2c-4,19 -8,38 -12,56 0,2 -1,3 -3,3 -1,1 -3,1 -5,1zm-13 -43c0,0 -1,0 -3,2 -2,1 -4,2 -6,4 11,6 19,14 24,26l1 -2c1,-3 2,-7 2,-11l-1 -3c-4,-5 -9,-9 -13,-14 -2,-1 -3,-2 -4,-2zm23 -7c-5,0 -14,2 -16,4 4,5 8,9 13,14 1,-6 2,-12 3,-18 0,0 0,0 0,0z"/>
   <path class="fil19" d="M2786 2593l-9 -16c-5,-1 -9,-2 -13,-5 -4,-3 -8,-7 -10,-12 -2,-4 -3,-8 -4,-13 0,-4 1,-8 2,-13 2,-4 4,-8 8,-11 3,-4 7,-7 12,-10 5,-3 10,-4 15,-5 2,0 3,0 5,0 3,0 6,0 9,1 4,1 8,3 12,6 3,3 6,6 8,10 2,3 3,6 3,10 1,3 1,6 1,9l-7 -1c1,-3 1,-6 1,-8 0,-3 -1,-5 -2,-7 -2,-3 -4,-6 -7,-8 -3,-2 -6,-3 -9,-3 -2,-1 -4,-1 -6,-1 -2,0 -4,0 -6,1 -4,0 -8,2 -12,4 -5,2 -8,5 -11,8 -3,3 -5,6 -7,9 -1,4 -2,7 -2,10 0,4 0,7 2,10 1,3 3,5 6,7 2,1 5,3 8,4l-1 -2c-1,-2 -1,-4 -2,-6 0,-2 0,-4 1,-6 0,-1 1,-3 2,-4 1,-2 3,-3 4,-4 2,-1 4,-1 6,-1 0,0 0,0 0,0 2,0 4,0 6,1 0,-2 1,-4 2,-5 1,-2 3,-3 4,-4 2,-1 4,-2 6,-2 0,0 0,0 0,0 2,0 3,0 5,1 2,1 3,2 5,3 1,1 3,3 4,5l13 26 -6 3 -12 -23 -2 -3 -3 -2 -2 -1 -3 1 -2 2 -1 3 0 3 1 3 12 23 -6 4 -12 -24 -2 -2 -3 -2 -3 -1 -3 0 -2 2 -1 3 1 3 1 4 12 23 -6 3z"/>
   <g>
    <path class="fil20" d="M1434 3173c-4,0 -8,-2 -13,-5l-3 -3 -4 -5 10 -6 3 3 3 2c2,3 5,5 8,5 1,0 2,-1 2,-1 3,-1 4,-3 4,-6l-1 -3 -1 -1c0,-1 -1,-3 -3,-4 -2,-2 -4,-3 -7,-4l-8 3 0 -8 1 0 0 0c3,-1 5,-3 6,-4l1 -3 -1 -4 -1 -2 -2 -2c-1,0 -2,-1 -3,-1 0,0 -1,0 -2,1 -2,0 -2,2 -2,4l0 2 0 2 -11 6 0 -5c0,-2 0,-3 0,-3 1,-6 4,-11 10,-13 3,-1 6,-1 9,-1 2,0 4,0 5,1 4,1 6,3 8,7 1,4 1,8 0,11l-1 2 1 0 1 1 3 -2 3 -3 5 -3 4 -3 -4 -13 -9 3 -3 -7 30 -11 0 0 -6 2 3 7 -4 2 17 43 -10 11 -11 -31 -3 2 -2 1 -2 2 -3 2 -2 2 1 1 2 1 1 2 0 2c1,1 1,2 1,2l0 3c0,5 -1,9 -5,13 -2,2 -5,3 -8,4 -2,1 -5,2 -7,2z"/>
    <polygon class="fil20" points="1497,3157 1478,3106 1469,3109 1469,3109 1466,3102 1503,3088 1506,3096 1490,3102 1506,3145 "/>
   </g>
   <path class="fil20" d="M944 2785l-13 -5 -4 -26c-2,2 -4,4 -6,6 -2,1 -4,2 -6,2 -1,1 -1,1 -2,1 -4,0 -8,-2 -12,-5 -5,-4 -8,-8 -9,-12 -1,-4 0,-8 3,-11 2,-4 6,-6 11,-7 0,0 0,0 1,0 2,0 4,1 7,2 3,1 6,4 10,7l-3 -19 -37 7 -2 -10 80 -15 2 10 -32 6 3 15c2,-1 3,-2 5,-3 2,-1 4,-2 6,-2 0,0 1,0 1,0 3,0 7,1 10,5 5,3 7,7 8,12 1,3 1,6 0,10 0,3 -1,6 -3,10l-11 -5c2,-5 3,-9 4,-12 1,-3 1,-5 0,-7 0,-1 -1,-2 -2,-3l-3 -1c-2,0 -5,2 -7,3 -2,2 -4,4 -5,7l6 40zm-30 -48c-1,0 -2,1 -3,1 -2,0 -4,2 -6,4 -1,2 -2,4 -1,7 0,2 1,3 2,4 1,0 2,1 3,1 1,0 1,0 1,0 2,-1 4,-1 6,-2 1,-1 2,-2 3,-3l7 -7c-3,-2 -5,-3 -8,-4 -1,0 -3,-1 -4,-1z"/>
   <path class="fil19" d="M2987 3160l-13 -5 -4 -27c-2,3 -4,5 -6,6 -3,2 -5,3 -6,3 -1,0 -2,0 -3,0 -4,0 -8,-1 -12,-4 -6,-4 -9,-8 -10,-13 -1,-4 0,-8 3,-12 3,-3 7,-5 11,-6 1,0 1,0 2,0 2,0 4,0 7,1 3,2 7,4 11,7l-4 -19 -38 8 -2 -11 83 -16 2 11 -33 6 3 16c2,-2 3,-3 5,-4 2,-1 4,-1 6,-2 1,0 1,0 2,0 3,0 6,2 10,5 5,4 7,8 8,13 1,3 1,6 0,10 0,3 -1,7 -3,10l-11 -5c1,-5 3,-9 3,-12 1,-3 1,-5 1,-7 0,-1 -1,-3 -2,-3l-3 -1c-3,0 -5,1 -8,3 -2,2 -4,4 -5,7l6 41zm-31 -49c-1,0 -2,0 -3,0 -2,1 -4,2 -6,5 -2,2 -2,4 -2,7 1,2 2,3 3,4 1,1 2,1 3,1 1,0 1,0 1,0 2,0 4,-1 6,-2 2,-1 3,-2 4,-3l6 -8c-2,-1 -5,-2 -7,-3 -2,-1 -3,-1 -5,-1z"/>
   <path class="fil21" d="M2124 3129c-8,0 -14,-4 -18,-12 -1,-3 -2,-6 -2,-9 0,-1 0,-3 0,-4 0,-2 0,-3 0,-5 2,-7 5,-12 9,-15 2,-2 5,-3 8,-3 1,0 2,0 3,0 3,0 6,1 8,2 3,1 6,4 9,8l2 -5 1 -2 2 -2c2,-2 5,-4 8,-5l-2 -16 -62 7 0 -6 90 -11 0 7 -19 2 1 16 3 1 2 1c3,1 6,4 9,8 2,3 3,7 4,12 0,3 0,6 -1,10 -1,5 -3,10 -8,13 -2,2 -5,3 -8,3 -1,0 -2,0 -3,0 -3,0 -6,0 -9,-2 -3,-2 -6,-5 -8,-9 -1,5 -3,8 -6,11 -2,3 -6,5 -10,5 -1,0 -2,0 -3,0zm-1 -42c0,0 -1,0 -1,0 -5,1 -8,5 -10,12 0,2 0,4 0,5l0 2 1 5 1 3c1,4 3,7 7,8 1,1 2,1 4,1 0,0 1,0 1,0 5,-1 8,-4 11,-11l1 -4 1 -5 -2 -5c-2,-4 -5,-7 -8,-9 -2,-1 -4,-2 -6,-2zm36 -4c-1,0 -1,0 -2,0 -4,1 -8,5 -10,12l-1 3 0 4 0 2 1 4c3,7 7,10 13,10 1,0 2,0 2,0 4,0 7,-3 8,-7 1,-1 1,-3 1,-5l0 -7 -1 -4 0 -2c-1,-3 -2,-4 -3,-5 -2,-3 -4,-5 -8,-5z"/>
   <path class="fil21" d="M1661 2694c-3,0 -5,0 -8,-1 -3,-1 -5,-3 -8,-6 -3,-3 -5,-7 -5,-11 -1,-4 0,-9 3,-13 -4,1 -7,2 -10,2 -1,0 -3,0 -4,0 -4,-1 -8,-3 -11,-7 -7,-8 -8,-16 -2,-26 2,-3 4,-5 7,-8 1,-1 2,-2 3,-3 2,-1 3,-2 5,-2 5,-2 9,-3 12,-3 3,0 5,0 7,1 3,1 6,3 8,6 3,4 5,7 5,11 1,4 0,8 -2,13l6 -1 3 0 2 0c4,0 7,2 10,4l14 -12 -46 -51 6 -5 66 75 -6 5 -14 -17 -13 12 0 3 1 2c1,4 0,8 -2,13 -2,4 -5,8 -8,11 -3,3 -6,5 -9,6 -3,2 -7,2 -10,2zm9 -41c-3,0 -6,1 -9,2l-3 1 -3 2 -2 2 -3 3c-5,8 -5,15 0,20 2,3 5,4 8,4 1,0 2,0 4,-1 1,0 3,-1 5,-2l6 -5 4 -3 1 -2c2,-2 3,-4 3,-5 2,-5 1,-9 -2,-12 -2,-3 -5,-4 -9,-4zm-25 -29c-3,0 -6,1 -9,2 -2,1 -4,2 -4,3l-2 1 -4 4 -2 2c-3,5 -4,8 -4,12 1,2 2,4 3,6 3,2 6,4 10,4 2,0 4,-1 6,-1l5 -2 5 -3 3 -5c3,-4 4,-8 4,-12 0,-3 -1,-6 -3,-8 -2,-2 -5,-3 -8,-3z"/>
   <path class="fil20" d="M1227 2996c-4,0 -9,0 -13,-2 -4,-2 -7,-4 -10,-7 -3,-3 -5,-7 -7,-12 -1,-3 -1,-6 -1,-8 0,-3 1,-5 1,-7 1,-3 3,-4 4,-6 2,-2 4,-3 7,-4 2,0 3,0 4,0 1,0 1,0 1,0 2,0 3,0 5,1 1,1 2,2 3,3 1,1 1,2 2,4 1,2 1,4 0,5 0,2 0,3 -1,5l-3 3 -3 1c-1,1 -2,1 -3,1 0,0 -1,0 -1,0 -1,0 -3,-1 -4,-1l-3 -3c-1,-1 -2,-2 -2,-4l0 -1 -1 -1 0 -2 0 -1c-1,2 -1,3 -1,5 -1,2 0,5 1,7 0,3 2,6 5,8 2,2 5,4 8,5 4,1 7,2 11,2 0,0 0,0 0,0 4,0 9,-1 13,-2 4,-1 8,-3 11,-5 3,-3 6,-5 8,-8 2,-3 4,-6 5,-9 0,-3 0,-6 -1,-9 -1,-3 -2,-5 -3,-7 -1,-1 -3,-2 -4,-3l0 1 1 1 1 1 0 1c1,2 1,3 1,5 -1,1 -1,2 -2,4l-2 3c-1,1 -2,1 -4,2 -1,0 -2,0 -3,0 0,0 0,0 0,0 -1,0 -3,0 -4,-1 -1,0 -3,-1 -4,-2 -1,-2 -2,-3 -3,-5l0 -4 0 -3 2 -3 2 -3 -3 0 -3 1 -3 1c-1,0 -2,1 -3,1l-1 0c-1,1 -1,1 -2,1 -1,0 -1,0 -2,0 -1,-1 -2,-1 -3,-2l-4 -2c-1,-1 -2,-2 -2,-3l0 -3 0 -1 1 -1 1 -1 3 0 1 1 2 2 1 2 2 2 2 -1 1 0 1 -1 1 -1 1 -2 1 -2 1 -3 1 -4 2 -3c0,-2 1,-5 3,-8l0 -1 2 -1 2 0 1 2 0 2c-1,2 -2,4 -3,6 -1,2 -2,4 -3,6 -1,3 -2,5 -3,7l0 2 -1 1c4,-1 7,-1 11,-1 0,0 0,0 0,0 4,0 7,0 10,1 3,1 5,3 7,6 2,2 4,5 5,9 2,5 2,9 2,14 -1,4 -3,8 -5,11 -2,4 -5,7 -9,10 -4,2 -8,4 -13,6 -5,2 -10,2 -15,2zm-14 -42l-3 0 -2 1 -1 2 -1 3 1 2 1 2 2 2 2 0 2 0 2 -1 2 -2 0 -2 0 -3 -1 -2 -2 -1 -2 -1zm34 -11l-2 1 -2 1 -2 2 -1 2 1 2 1 3 2 1 2 1 2 0 2 -2 2 -1 0 -3 0 -2 -1 -2 -2 -2 -2 -1z"/>
   <path class="fil19" d="M2467 3053c-1,0 -2,0 -3,0 -3,-1 -5,-2 -8,-3 -2,-2 -4,-4 -5,-6 -2,-2 -3,-5 -3,-8 -2,-5 -2,-9 -1,-12 1,-4 2,-8 4,-11 2,-3 5,-5 9,-7 3,-3 7,-4 12,-5 3,-1 6,-2 9,-2 1,0 1,0 2,1 4,0 7,0 11,1l3 -3 3 -2c1,-1 3,-2 4,-3 2,0 3,-1 5,-1 1,-1 3,-1 4,-1 1,0 1,0 1,0 1,0 2,0 4,0 1,0 2,1 4,1 1,0 2,1 4,1 1,-2 4,-4 6,-5 2,-2 5,-3 8,-3l25 -6 2 5 -11 3 10 42 -9 2 -10 -42 -6 2c-2,0 -4,1 -5,2 -2,1 -3,2 -5,3 2,1 4,2 5,4 2,1 3,3 4,5 2,1 3,3 4,5 1,2 1,4 2,6 0,2 1,4 1,6 0,3 -1,5 -1,6 -1,2 -2,4 -3,5 -2,2 -3,3 -6,4 -1,0 -3,0 -4,0 -1,0 -2,0 -3,0 -2,-1 -4,-2 -5,-3 -1,-1 -3,-3 -4,-5 -1,-2 -1,-4 -2,-7 -1,-4 -1,-8 -1,-11 1,-4 2,-8 3,-12 -1,0 -3,-1 -5,-1 -1,0 -2,-1 -3,-1 -1,0 -2,1 -3,1 -2,0 -4,1 -6,2 -1,1 -3,3 -4,4 3,2 6,5 9,8 3,3 5,7 6,12 0,2 0,4 0,6 1,2 0,4 0,6 -1,2 -2,4 -3,5 -2,1 -4,3 -6,3 -2,0 -3,1 -4,1 -1,0 -2,0 -3,-1 -2,0 -4,-1 -5,-2 -2,-2 -3,-3 -4,-5 -1,-2 -2,-5 -2,-7 -1,-4 -1,-8 -1,-11 0,-4 1,-8 3,-11 -3,-1 -6,-2 -9,-2 0,0 -1,0 -2,0 -2,0 -4,0 -6,1 -3,1 -6,2 -9,3 -3,2 -5,4 -7,6 -2,2 -3,5 -4,8 0,3 0,7 1,11 0,2 1,4 3,6 1,2 3,4 6,4l-1 -1 -1 -2 -1 -2 -1 -1c0,-2 0,-4 0,-6 0,-2 1,-3 2,-4 1,-2 2,-3 3,-4 2,-1 3,-1 5,-2 1,0 2,0 3,0 1,0 2,0 3,0 1,0 3,1 4,2 2,1 3,2 4,4 1,2 1,3 2,6 0,2 1,4 0,6 0,1 -1,3 -2,5 -1,1 -3,3 -5,4 -1,1 -3,2 -5,2 -2,1 -4,1 -6,1zm2 -23l-2 1 -1 2 -1 3 1 2 0 3 2 2 2 2 2 1 2 -2 1 -2 1 -3 0 -3 -1 -3 -2 -2 -2 -1 -2 0zm26 -19c-1,3 -2,6 -2,9 0,3 0,5 1,8l0 2 1 2 2 3 1 2 2 1 3 0 2 -1 1 -4c0,-1 0,-2 0,-3 0,-1 0,-3 0,-4 -1,-3 -2,-6 -4,-8 -2,-3 -4,-5 -7,-7zm32 -8c-1,3 -2,6 -3,9 0,3 0,6 1,9l1 2 1 2 1 2 2 2 2 2 2 0 2 -2 1 -3c1,-1 1,-2 1,-4 -1,-1 -1,-2 -1,-3 -1,-3 -2,-6 -4,-9 -2,-3 -4,-5 -6,-7z"/>
   <path class="fil21" d="M1751 2582c-1,0 -3,0 -5,-1 -2,0 -4,-1 -5,-2 -2,-2 -3,-3 -5,-4 -1,-2 -2,-3 -3,-5 -1,-2 -2,-3 -2,-5 -2,-4 -3,-8 -4,-12 0,-4 1,-8 2,-12 1,-3 3,-7 6,-9 3,-3 6,-6 10,-7 2,-1 4,-2 7,-2 1,0 3,-1 5,-1 0,0 1,0 1,0 2,0 4,1 6,1 2,1 4,2 6,3 0,-3 1,-5 1,-7 1,-1 2,-3 3,-4 1,-1 2,-3 4,-3 1,-1 2,-2 4,-3 1,0 2,0 4,-1 1,0 1,0 2,0 1,0 1,0 2,0 2,1 3,1 5,2 1,0 3,1 5,3 0,-3 0,-5 1,-6 1,-2 2,-4 3,-5 1,-1 2,-2 4,-3 1,-1 2,-2 4,-2 3,-1 6,-2 9,-2 1,0 1,0 1,0 4,0 7,1 10,3 2,1 5,3 7,6 2,3 4,6 6,9 1,3 2,6 2,9 0,3 0,7 -1,10 0,3 -1,6 -3,8 -1,3 -3,6 -6,8l-5 -5c1,-2 3,-4 3,-5 1,-2 2,-4 2,-7 1,-2 1,-4 0,-6 0,-3 -1,-5 -2,-8 -1,-2 -2,-4 -3,-6 -2,-2 -3,-4 -5,-5 -2,-1 -4,-2 -6,-3 -1,0 -1,0 -2,0 -2,0 -4,1 -5,1 -2,1 -3,2 -4,3 -1,1 -2,3 -2,5 -1,1 -1,3 -1,5 0,2 1,5 1,7l13 30 -9 4 -13 -30c-1,-2 -2,-4 -3,-6 -1,-1 -2,-3 -4,-4 -1,-1 -3,-1 -4,-1 -1,-1 -1,-1 -1,-1 -2,0 -3,1 -4,1 -2,1 -3,2 -4,3 -1,2 -1,3 -2,5 0,2 0,3 1,5 0,2 0,4 1,6l13 30 -9 4 -12 -28c-1,-2 -2,-4 -4,-6 -2,-2 -4,-3 -6,-4 -2,-1 -4,-1 -7,-1 0,0 0,0 0,0 -2,0 -4,0 -7,1 -2,1 -5,3 -7,5 -2,1 -3,3 -4,5 -1,3 -2,5 -2,7 -1,3 0,5 0,8l2 -3 2 -3 2 -3c1,-1 3,-1 4,-2 3,-1 5,-1 7,-1 0,0 1,0 1,0 2,0 5,0 7,1 2,1 4,3 5,5 2,1 3,3 4,6 1,2 1,5 1,7 0,3 0,5 -1,7 -1,2 -2,4 -4,6 -1,2 -3,3 -5,4 -3,1 -5,1 -7,1 0,0 0,0 -1,0zm-1 -28c-2,0 -3,0 -5,1l-3 2 -2 3c-1,1 -1,3 -1,4 0,1 0,3 1,4 1,2 1,3 3,4 1,1 2,2 3,3 1,0 3,1 4,1 0,0 1,0 1,0 1,0 2,0 3,-1 1,0 2,-1 3,-2 1,-1 2,-3 2,-4 1,-1 1,-2 1,-4 0,-1 -1,-3 -1,-4 -2,-3 -3,-5 -6,-6 -1,-1 -2,-1 -3,-1z"/>
   <path class="fil20" d="M1428 2808c-1,-1 -1,-1 -2,-1 -1,-1 -3,-3 -4,-4 -1,-1 -2,-3 -3,-4 -3,-3 -5,-7 -6,-11 -1,-4 -2,-7 -1,-11 0,-3 1,-7 3,-10 2,-3 5,-6 8,-9 2,-1 4,-2 6,-3 2,-1 3,-1 5,-2 2,0 4,0 6,0 3,0 5,0 7,1 -1,-3 -1,-5 -1,-6 1,-2 1,-4 2,-5 1,-2 1,-3 2,-4 1,-1 3,-2 4,-3l3 -2 4 -1c2,0 3,0 5,0 2,0 3,1 5,2 0,-2 0,-4 0,-6 0,-2 1,-4 2,-5 0,-1 1,-3 2,-4 1,-1 3,-2 4,-2 3,-3 6,-4 9,-5 3,0 6,0 9,1 2,0 4,1 6,2 1,1 2,1 3,2 2,2 5,5 7,7 2,3 3,5 4,8 1,3 1,6 2,9 0,3 -1,6 -1,9 -1,3 -2,6 -4,8l-6 -3c1,-2 1,-4 2,-6 0,-2 0,-4 0,-6 0,-2 0,-4 -1,-6 -1,-3 -2,-5 -4,-7 -1,-2 -3,-3 -5,-5 0,-1 -1,-1 -2,-2 -1,-1 -2,-1 -3,-2 -2,0 -4,-1 -7,0 -2,0 -4,0 -6,2 -1,1 -2,2 -3,3 0,2 -1,3 -1,5 0,2 0,4 1,6 0,1 1,3 3,5l18 25 -8 6 -18 -25c-1,-1 -3,-3 -4,-4 -1,-1 -2,-2 -2,-2 -1,-1 -2,-1 -3,-1 -1,-1 -3,-1 -4,-1 -2,0 -3,1 -4,2 -2,1 -3,2 -3,4 -1,1 -1,3 -1,4 0,2 1,4 1,5 1,2 2,4 3,5l19 25 -8 6 -17 -23c-2,-2 -3,-4 -5,-5 0,0 0,0 0,0 0,0 0,0 0,0 -2,-1 -4,-2 -6,-2 -2,-1 -5,-1 -7,0 -2,0 -4,1 -6,3 -2,1 -4,3 -6,5 -1,2 -2,5 -3,7 0,2 0,4 0,7 0,2 1,4 2,7l1 -3 1 -4c1,-1 1,-2 2,-3 1,-1 2,-2 3,-2 2,-2 5,-3 7,-4 2,0 4,0 7,0 1,1 3,2 5,2 0,1 0,1 1,1 1,1 3,3 4,5 2,2 3,4 4,7 0,2 0,4 0,6 -1,3 -1,5 -2,7 -1,1 -3,3 -5,4 -2,2 -4,3 -6,3 -2,1 -3,1 -5,1 -2,0 -4,-1 -6,-2 -1,0 -2,-1 -3,-1zm12 -22c-1,-1 -2,-1 -3,-2 -2,0 -5,1 -7,2l-2 3 -2 3 0 4c1,2 1,3 2,4 1,1 2,2 3,3 0,0 0,0 0,0 2,1 3,1 4,1 2,1 3,1 4,1l3 -2c2,-1 3,-2 3,-3 1,-1 1,-2 1,-4l0 -3c-1,-2 -1,-3 -2,-4 -1,-1 -2,-3 -4,-3z"/>
   <path class="fil19" d="M2735 3159c-1,0 -2,0 -4,0 -1,0 -3,-1 -5,-1 -2,-1 -3,-2 -5,-2 -4,-2 -7,-5 -10,-7 -3,-3 -5,-6 -6,-10 -1,-3 -2,-6 -2,-10 1,-4 2,-8 3,-12 1,-2 2,-3 4,-5 1,-2 2,-3 4,-4 1,-2 3,-3 5,-4 2,-1 4,-1 6,-2 -1,-1 -3,-3 -3,-5 -1,-2 -1,-3 -1,-5 0,-2 0,-3 0,-5 1,-1 1,-2 2,-4l2 -3 3 -3c2,0 3,-1 4,-2 2,0 4,0 6,-1 -2,-1 -2,-3 -3,-5 0,-2 -1,-3 -1,-5 0,-1 1,-3 1,-4 0,-2 1,-3 2,-4 1,-4 3,-7 6,-9 3,-2 5,-3 8,-3 2,-1 3,-1 5,-1 2,0 3,0 5,0 3,1 6,2 10,4 2,1 5,3 7,5 2,2 4,4 5,7 2,2 3,5 4,8 0,3 0,6 0,9l-7 0c0,-2 0,-4 -1,-6 0,-2 -1,-4 -2,-6 -1,-2 -3,-3 -4,-5 -2,-1 -4,-2 -7,-4 -2,-1 -4,-1 -6,-2 -2,0 -3,-1 -5,-1 -1,0 -1,0 -2,1 -2,0 -4,0 -6,2 -2,1 -3,2 -4,5 -1,1 -1,3 -1,4 0,2 0,3 1,5 0,1 2,3 3,4 1,2 3,3 5,4l28 14 -4 8 -28 -13c-2,-1 -4,-2 -6,-2 -1,-1 -2,-1 -4,-1 0,0 -1,0 -1,0 -2,0 -3,1 -4,2 -2,1 -3,2 -3,3 -1,2 -1,3 -1,5 0,1 1,3 2,4 0,2 2,3 3,4 2,1 3,2 5,3l28 14 -4 9 -26 -13c-3,-1 -5,-2 -7,-2 0,0 -1,0 -1,0 -2,0 -4,0 -6,1 -2,0 -3,1 -5,3 -2,1 -3,3 -4,5 -2,3 -2,5 -3,8 0,2 0,5 1,7 0,2 1,4 2,6 2,2 4,4 6,5l-1 -2 -1 -4 1 -4c0,-1 0,-2 1,-3 1,-3 3,-5 5,-7 1,-1 3,-2 6,-3 1,0 2,0 4,0 1,0 1,0 2,0 2,0 5,1 7,2 2,1 4,3 6,5 1,1 2,3 3,5 1,3 1,5 1,7 0,2 -1,4 -2,6 -1,2 -2,4 -4,6 -1,1 -3,2 -4,3 -2,0 -4,1 -6,1 -1,0 -1,0 -2,0zm-1 -25c-1,0 -2,0 -3,0 -2,1 -4,2 -6,5l-1 4 1 3 2 3c1,2 2,2 3,3 1,1 3,1 4,1 0,0 1,0 1,0 1,0 2,0 3,0 2,-1 3,-1 4,-2l2 -2c1,-2 1,-3 1,-5 0,-1 0,-2 0,-4l-3 -3 -3 -2c-2,-1 -4,-1 -5,-1z"/>
   <path class="fil20" d="M969 3074l-4 -10 -3 2c-1,1 -2,2 -3,2 -2,1 -4,1 -6,1 -1,0 -3,0 -4,0 -3,-1 -6,-3 -8,-6 -4,-2 -8,-4 -11,-7 -3,-3 -6,-7 -7,-12 -2,-5 -3,-10 -2,-15 1,-5 2,-9 5,-13 2,-5 5,-8 10,-12 4,-3 9,-6 15,-8 4,-2 8,-3 12,-3 1,0 2,0 4,0 2,0 5,0 7,1 4,0 7,1 11,3 3,2 6,3 9,6 2,2 5,4 7,7 2,3 3,6 4,10 2,3 2,8 2,12 1,4 0,9 -2,13l-7 -3c1,-3 2,-6 2,-10 0,-3 0,-7 -1,-10 -2,-4 -4,-8 -7,-11 -3,-3 -7,-6 -11,-8 -4,-2 -8,-3 -13,-3 -1,0 -1,0 -2,0 -4,0 -8,1 -12,2 -5,2 -9,4 -13,7 -4,3 -7,6 -9,10 -2,3 -3,7 -4,11 0,3 0,7 1,11 2,5 5,9 9,12 0,-3 1,-6 3,-9 2,-2 4,-4 7,-5 2,-1 4,-1 5,-1 1,0 1,0 2,0 2,0 4,1 6,2 0,-2 2,-4 3,-5 2,-2 4,-3 6,-4 1,0 3,-1 5,-1 0,0 0,0 1,0 2,1 4,1 5,2 2,1 4,2 5,3 1,2 3,4 3,6l9 23 -7 3 -8 -24 -2 -3 -3 -1 -3 -1 -3 0 -2 2 -2 2 -1 3 1 4 8 23 -7 2zm-15 -29l-3 1 -3 1 -2 3 -1 3 1 3 2 3 2 2 3 1 3 0 3 -2 2 -2 0 -3 0 -4 0 0 0 0 -2 -3 -2 -2 -3 -1z"/>
   <path class="fil20" d="M983 2982c-2,0 -3,0 -4,-1 -2,-1 -3,-2 -3,-4 -1,-2 0,-3 1,-5 1,-1 2,-2 4,-3 1,0 2,0 3,0 1,0 2,0 3,1 2,1 3,2 3,4 1,1 1,3 -1,5 -1,1 -2,3 -4,3 -1,0 -2,0 -2,0zm16 -17c-14,0 -21,-4 -23,-11l-2 -6 25 -12c-5,-3 -10,-4 -16,-4 -4,0 -8,1 -13,2l-2 -11 -11 2 -1 -3 82 -20 1 3 -13 3 11 45 6 5c-19,5 -33,7 -44,7zm12 -53l-25 6 1 3c6,3 10,5 11,6 4,2 7,5 8,9l-17 9c1,6 6,10 13,13 4,1 9,2 13,2 3,0 5,0 7,0l-11 -48z"/>
   <g>
    <path class="fil21" d="M1737 2771c-5,0 -9,-1 -14,-1 -12,-2 -25,-4 -37,-7 -22,-4 -43,-11 -62,-22 -7,-3 -9,-9 -8,-16 2,-8 6,-15 10,-21l3 -1 1 3c0,1 -1,3 -2,5 -1,5 0,8 5,11 12,7 26,13 40,17 20,7 41,13 63,17 6,0 11,1 17,1 3,0 6,0 9,-1 4,-1 8,-3 12,-5 1,0 3,-1 4,-1l0 1c-4,7 -11,12 -18,15 -7,4 -15,5 -23,5z"/>
    <path class="fil21" d="M1668 2800c-3,-3 -6,-5 -9,-8 -2,-2 -3,-4 -4,-6 -1,-1 -1,-2 0,-3 6,-2 11,-5 16,-7l4 1c4,4 8,8 12,12 1,2 1,3 -1,4 -5,2 -9,5 -14,7 -1,0 -3,0 -4,0z"/>
   </g>
   <path class="fil21" d="M1880 2823c-2,-4 -4,-9 -6,-13 -6,-13 -16,-22 -28,-29 -4,-3 -5,-7 -6,-11l1 -1c16,-12 33,-20 53,-21l0 0c3,-2 2,-5 3,-8l-2 -2c-16,-3 -32,-6 -47,-9l-4 -1c1,-4 1,-6 3,-6 0,0 2,1 3,1 22,4 44,9 66,13 5,1 5,1 3,7 -4,-1 -8,-2 -13,-2 0,1 0,2 -1,3 -5,25 -10,49 -15,74 0,2 -1,3 -3,4 -2,0 -5,1 -7,1zm-17 -57c-1,0 -2,1 -4,2 -3,2 -5,4 -8,5 14,9 25,20 32,35 0,-1 1,-2 1,-2 1,-5 2,-10 3,-15l-2 -4c-5,-6 -11,-12 -17,-18 -2,-2 -3,-3 -5,-3zm30 -9c-7,0 -18,3 -21,6 5,5 11,11 17,18 1,-9 3,-16 4,-24 0,0 0,0 0,0z"/>
   <path class="fil20" d="M1457 3060c-2,-3 -3,-6 -5,-10 -4,-9 -12,-16 -21,-22 -3,-2 -4,-5 -5,-8l1 -1c12,-9 25,-15 40,-16l0 0c3,-1 2,-4 3,-6l-2 -1c-12,-3 -24,-5 -36,-7l-2 -1c0,-3 0,-4 1,-4 1,0 2,0 3,0 17,4 33,7 50,10 4,1 4,1 2,6 -3,-1 -6,-2 -9,-2l-1 2c-4,19 -8,38 -11,56 -1,2 -1,3 -3,3 -2,1 -3,1 -5,1zm-13 -43c-1,0 -2,0 -3,2 -2,1 -4,2 -6,4 10,6 19,14 24,26l1 -2c0,-3 1,-7 2,-11l-1 -3c-5,-5 -9,-9 -14,-14 -1,-1 -2,-2 -3,-2zm23 -7c-6,0 -14,2 -16,4 4,5 8,9 12,14 2,-6 3,-12 4,-18 0,0 0,0 0,0z"/>
   <path class="fil20" d="M1277 2771c-2,0 -3,0 -5,0 -2,-1 -4,-2 -6,-4 -1,-1 -3,-3 -3,-5 -1,-2 -1,-4 -1,-6 1,-2 1,-5 2,-7 1,-2 2,-4 3,-6 1,-2 2,-5 3,-7 1,-2 2,-4 3,-5 0,-2 1,-4 1,-5 0,-2 -1,-3 -2,-4 -1,-1 -2,-2 -4,-2 -1,0 -1,0 -2,0 -1,0 -1,0 -2,0 -1,0 -3,1 -4,2 -2,0 -3,2 -4,3 -2,1 -3,3 -3,4 -1,2 -1,3 -2,4 0,2 0,3 1,5 0,1 1,2 2,4l-6 6c-2,-2 -3,-4 -4,-7 -1,-2 -1,-4 -1,-7 1,-2 1,-5 3,-7 1,-3 2,-5 4,-7 2,-2 4,-4 6,-5 3,-2 5,-3 8,-3 1,0 2,0 3,0 1,0 2,0 4,0 2,1 5,2 7,4l22 20c1,1 2,2 3,2 0,0 0,0 0,0 1,0 2,-1 3,-1l0 -1 1 0 5 4 -1 2 -2 2c-1,1 -3,2 -5,2 0,0 0,0 -1,0 -2,0 -4,-1 -7,-3 0,3 0,5 0,7 0,3 0,5 -1,6 -1,2 -1,4 -2,5 -1,2 -2,3 -4,5 -1,1 -3,3 -5,4 -2,1 -4,1 -6,1 0,0 -1,0 -1,0zm2 -43c0,2 0,4 -1,6 -1,2 -2,4 -3,6 -1,2 -2,4 -3,6 -1,2 -1,3 -2,5 0,2 -1,4 -1,6 1,1 1,3 3,4 1,1 2,2 3,2 1,0 2,0 3,0 0,0 0,0 1,0 1,0 2,0 3,-1l3 -2c2,-3 4,-6 4,-10 1,-4 1,-8 -1,-13l-9 -9z"/>
   <path class="fil21" d="M2170 3042c-2,0 -3,0 -5,-1 -1,0 -2,-1 -3,-2 -1,-2 -2,-3 -2,-5 0,-1 -1,-3 -1,-4l0 -35c0,1 -2,2 -4,4 -2,1 -4,1 -7,1 -1,0 -2,0 -3,0 -1,0 -3,-1 -4,-1l0 5c0,7 -2,13 -5,16 -4,4 -9,6 -15,6 -4,0 -8,-1 -12,-3 -3,-2 -6,-4 -9,-7 -2,-2 -4,-5 -6,-9 -2,-3 -4,-6 -5,-9 -2,0 -4,-1 -6,-2 -1,-1 -3,-2 -4,-3l-3 -4 -1 -3c1,-1 2,-1 3,-2l2 -2 2 0 1 2 2 2c1,1 3,2 4,2 1,1 3,1 5,1 1,0 3,0 4,-1 2,0 4,-1 5,-2 1,-1 3,-3 3,-5 1,-2 2,-4 2,-6 0,-2 -1,-4 -1,-6 -1,-1 -2,-3 -3,-4 -1,-1 -2,-2 -3,-3 -1,-1 -3,-1 -4,-1 -2,0 -3,0 -5,1 -2,0 -4,1 -6,3l-6 -6c3,-3 6,-5 8,-6 3,-1 6,-2 9,-2 3,0 6,1 9,2 2,2 4,4 6,6 2,2 3,5 4,7 1,3 1,6 1,9 0,4 0,7 -1,9 -1,3 -2,5 -4,7 -2,2 -3,3 -5,5 -3,1 -5,2 -7,2 1,2 2,4 3,6 2,2 3,4 5,6 2,2 4,3 6,5 2,1 4,1 7,1 2,0 4,0 5,-1 2,-1 3,-2 4,-3 0,-2 1,-3 1,-4 1,-2 1,-3 1,-4l0 -36 9 0 0 21c1,1 2,1 4,1 1,1 2,1 3,1 3,0 5,-1 7,-2 2,-2 3,-3 4,-5l0 -32 10 0 0 78 1 2 2 1 1 -1 2 -1 5 4 -1 2 -2 3 -3 2c-1,0 -3,0 -4,0z"/>
   <path class="fil19" d="M3010 2690c-2,0 -3,0 -4,-1 -2,0 -3,-1 -4,-3 -1,-1 -1,-2 -2,-4 0,-1 0,-3 0,-4l0 -35c-1,1 -3,2 -5,4 -2,1 -4,1 -6,1 -1,0 -3,0 -4,0 -1,0 -2,-1 -3,-1l0 5c0,7 -2,13 -6,16 -3,4 -8,6 -15,6 -4,0 -8,-1 -11,-3 -4,-2 -7,-4 -9,-7 -3,-2 -5,-5 -7,-9 -2,-3 -4,-6 -5,-9 -2,0 -4,-1 -5,-2 -2,-1 -3,-2 -5,-3l-2 -4 -2 -3c1,-1 2,-1 3,-2l3 -2 1 0 1 2 3 2c1,1 2,2 3,2 2,1 3,1 5,1 1,0 3,0 5,-1 1,0 3,-1 4,-2 2,-1 3,-3 4,-5 1,-2 1,-4 1,-6 0,-2 0,-4 -1,-6 -1,-1 -1,-3 -2,-4 -1,-1 -2,-2 -4,-3 -1,-1 -2,-1 -4,-1 -1,0 -3,0 -5,1 -2,0 -4,1 -6,3l-5 -6c2,-3 5,-5 8,-6 2,-1 5,-2 8,-2 3,0 6,1 9,2 2,2 5,4 6,6 2,2 3,5 4,7 1,3 2,6 2,9 0,4 -1,7 -2,9 -1,3 -2,5 -4,7 -1,2 -3,3 -5,5 -2,1 -5,1 -7,2 1,2 2,4 4,6 1,2 2,4 4,6 2,2 4,3 6,5 2,1 5,1 7,1 2,0 4,0 6,-1 1,-1 2,-2 3,-3 1,-2 1,-3 2,-4 0,-2 0,-3 0,-4l0 -36 10 0 0 21c0,1 1,1 3,1 1,1 2,1 4,1 2,0 4,-1 6,-2 2,-2 3,-3 5,-5l0 -32 9 0 0 78 1 2 2 1 2 -1 1 -1 5 4 -1 2 -2 3 -3 2c-1,0 -2,0 -4,0z"/>
   <path class="fil20" d="M984 2870c-2,0 -5,0 -7,-1 -2,0 -4,-1 -6,-3 -2,-1 -3,-3 -5,-5 -1,-2 -1,-5 -1,-7 0,-3 0,-4 1,-6 0,-1 2,-3 4,-5l-4 -1 -2 -3c-1,-1 -2,-2 -2,-3 0,-2 -1,-3 -1,-5 0,-1 1,-3 2,-4 0,-2 2,-3 3,-4 1,-1 3,-2 5,-3 2,-1 5,-2 7,-2l1 7c-1,0 -2,0 -3,0 -2,0 -3,1 -4,2l-3 2 -1 3c0,1 0,2 1,3l2 2 3 1 3 1 6 0 0 6 -5 0 -2 1 -2 2 -2 2 -1 3c0,2 1,4 2,5 0,1 1,2 3,3 1,1 2,2 4,2 1,1 3,1 4,1 3,0 5,-1 7,-2 2,-1 4,-2 5,-4 1,-1 2,-3 2,-5 1,-2 1,-3 1,-5 0,-2 0,-4 0,-5 -1,-2 -1,-4 -2,-5 -1,-2 -2,-3 -3,-5 0,-2 -1,-3 -2,-5 0,-1 -1,-3 -2,-5 0,-1 0,-3 0,-5 0,-2 0,-4 1,-5 0,-2 1,-3 2,-4 1,-1 3,-2 4,-3 1,0 3,-1 5,-1 1,0 2,1 3,1l4 2 2 3c1,1 1,2 1,4l0 2 -1 2 -1 2 -1 1 -5 -4 1 -1 0 -2 0 -1 -1 -1 -1 -1 -1 0 -2 0 -2 1 -1 2 -1 3c0,2 1,4 1,5 1,2 1,3 2,5 1,1 1,3 2,5 1,1 2,3 2,5 1,1 2,3 2,5 1,1 1,3 1,5 0,3 -1,6 -2,9 -1,3 -2,5 -4,7 -2,2 -4,4 -7,5 -2,1 -6,1 -9,1z"/>
   <path class="fil21" d="M2133 2923c-3,0 -6,0 -9,-1 -3,-1 -6,-2 -8,-4 -2,-2 -4,-4 -6,-7 -1,-3 -2,-6 -2,-10 0,-2 0,-5 1,-7 1,-2 3,-4 5,-6 -1,0 -3,-1 -4,-2 -1,-1 -2,-2 -3,-3 -1,-2 -2,-3 -2,-5 -1,-2 -1,-4 -1,-6 0,-2 0,-4 1,-6 1,-2 3,-3 5,-5 2,-1 4,-2 6,-3 3,-1 6,-2 9,-3l2 9c-2,0 -3,0 -5,1 -1,0 -3,1 -4,1 -2,1 -3,2 -4,3 -1,2 -2,3 -2,5 0,1 1,3 1,4l3 2c1,1 2,2 4,2 1,0 3,0 4,0l8 0 0 9 -6 0 -4 0 -3 3c0,0 -1,2 -2,3 0,1 -1,3 -1,4 0,2 1,4 2,6 1,2 2,3 4,4 2,1 3,2 5,3 2,0 4,1 6,1 4,0 7,-1 9,-2 3,-2 5,-3 6,-5 2,-2 3,-5 4,-7 0,-2 1,-5 1,-7 0,-2 -1,-5 -1,-7 -1,-2 -2,-4 -3,-6 0,-2 -1,-4 -2,-6 -2,-2 -3,-4 -3,-6 -1,-2 -2,-4 -3,-7 0,-2 -1,-4 -1,-6 0,-3 1,-5 2,-8 0,-2 2,-3 3,-5 1,-1 3,-2 5,-3 2,-1 3,-1 6,-1 1,0 3,0 5,1 1,1 3,2 4,3 1,1 2,2 3,3 1,2 1,3 1,5l0 3 -1 3 -1 2 -2 2 -6 -5 1 -2 1 -2 -1 -2 -1 -1 -1 -1 -2 0 -3 0 -2 1 -1 3c-1,1 -1,2 -1,4 0,2 0,4 1,6 0,2 1,4 2,6 1,2 2,4 3,6 1,2 2,4 3,7 1,2 2,4 2,6 1,3 1,5 1,7 0,4 -1,8 -2,12 -1,3 -3,6 -5,9 -3,2 -6,5 -9,6 -4,1 -8,2 -12,2z"/>
   <path class="fil19" d="M2344 2909c-2,0 -4,-1 -7,-1 -2,-1 -4,-2 -6,-4 -2,-1 -3,-3 -5,-5 -1,-2 -1,-5 -1,-8 0,-2 0,-4 1,-5 0,-2 2,-4 4,-5l-4 -2 -2 -3c-1,-1 -2,-2 -2,-3 -1,-2 -1,-3 -1,-5 0,-2 0,-3 1,-5 1,-1 2,-3 4,-4 1,-1 3,-2 5,-3 2,-1 5,-1 7,-2l1 7c-1,0 -2,0 -3,1 -1,0 -3,1 -4,1l-3 3c-1,1 -1,2 -1,3 0,1 0,3 1,3l2 3 3 1 3 0 7 0 0 7 -5 0 -3 0 -2 2 -2 3 -1 3c0,2 1,4 2,5 0,1 2,2 3,3 1,1 3,2 4,2 2,1 3,1 4,1 3,0 6,-1 8,-2 2,-1 4,-2 5,-4 1,-1 2,-3 2,-5 1,-2 1,-4 1,-6 0,-1 0,-3 0,-5 -1,-2 -2,-3 -2,-5 -1,-2 -2,-3 -3,-5 0,-2 -1,-3 -2,-5 -1,-2 -1,-3 -2,-5 0,-2 -1,-3 -1,-5 0,-2 1,-4 1,-6 1,-2 2,-3 3,-4 1,-1 2,-2 4,-3 1,0 3,-1 5,-1 1,0 2,1 4,1 1,1 2,1 3,2l2 3c1,1 1,3 1,4l0 2 -1 2 -1 2 -1 2 -5 -4 1 -2 1 -1 -1 -2 0 -1 -2 -1 -1 0 -2 1 -2 1 -1 2 -1 3c0,1 1,3 1,5 0,1 1,3 2,5 1,1 1,3 2,5 1,1 2,3 3,5 0,1 1,3 1,5 1,2 1,4 1,6 0,3 0,6 -1,9 -1,3 -3,5 -5,7 -2,2 -4,4 -7,5 -3,1 -6,2 -10,2z"/>
   <g>
    <path class="fil21" d="M1894 2903c-12,0 -25,-1 -39,-4 -5,0 -14,-2 -23,-5 -7,-3 -8,-6 -8,-12 1,-5 2,-9 5,-13l2 -2 1 3c0,1 0,3 -1,4 0,2 1,4 3,5 7,3 15,5 23,6 17,4 34,6 51,6 0,0 1,0 2,0 6,0 12,0 18,-1 4,0 7,-3 10,-5l1 -1 3 0 -1 2c-6,10 -16,15 -28,16 -6,0 -13,1 -19,1z"/>
    <path class="fil21" d="M1886 2926c-1,0 -1,0 -2,-1 -3,-2 -7,-4 -10,-7 -2,1 -4,2 -6,4 -1,1 -2,1 -4,1 -1,0 -3,-1 -5,-2 -2,-1 -4,-3 -6,-5l0 -2c3,-2 6,-4 9,-6l3 1c3,2 6,4 9,6 1,0 1,0 2,0 0,0 1,0 1,0 2,-2 4,-3 6,-4l3 0c3,2 6,4 9,6 2,1 2,1 0,3 -2,1 -5,3 -7,5 -1,1 -1,1 -2,1z"/>
    <path class="fil21" d="M1874 2941l-2 0c-3,-2 -7,-5 -10,-7l0 -1c3,-2 7,-4 10,-6l2 0c4,2 7,4 10,7l1 1c-4,2 -8,4 -11,6z"/>
   </g>
   <g>
    <path class="fil19" d="M2600 2807c-8,0 -16,-4 -23,-9 -14,-11 -27,-24 -40,-41 -4,-4 -9,-12 -13,-20 -3,-7 -3,-10 2,-14 4,-3 8,-6 13,-7l2 1 -1 2 -3 3c-2,1 -2,3 -2,5 3,8 8,14 12,21 11,14 21,27 34,39 5,5 10,9 16,13 3,2 7,2 10,3l2 0 2 1 -2 1c-3,1 -6,2 -9,2z"/>
    <path class="fil19" d="M2553 2799c0,0 0,0 -1,0 -3,0 -6,-1 -9,-1 -1,0 -2,-1 -3,-3 -1,-4 -1,-8 -2,-12 -2,0 -5,-1 -7,-1 -4,-1 -5,-3 -6,-7 -1,-2 -1,-5 -1,-8 0,-1 0,-1 1,-1 0,0 0,0 0,0 4,1 7,1 11,2l2 2c1,4 1,7 2,11 0,1 1,2 3,2 2,0 4,1 7,1l1 2c1,3 2,7 3,11 0,1 0,2 -1,2z"/>
    <path class="fil19" d="M2534 2803c-4,-1 -8,-2 -12,-3l-1 -1c-1,-4 -2,-8 -3,-12l1 -1c4,1 8,1 11,2l2 2c1,4 2,8 2,12l0 1z"/>
   </g>
   <path class="fil20" d="M1452 2941c0,-1 -1,-3 -2,-4 -5,-12 -12,-21 -25,-24 -8,-2 -12,-7 -16,-13 10,-8 21,-15 33,-19 3,-1 4,-3 6,-4l-2 -3c-6,0 -13,0 -20,0 -5,0 -10,0 -15,0 0,1 0,1 0,1 -5,0 -9,-2 -12,-7 3,0 5,0 7,0 3,0 5,0 7,0 5,0 9,0 13,0 5,0 9,0 13,0 12,0 25,0 37,0 0,0 0,0 0,0 5,0 9,1 11,6 -5,0 -10,0 -15,0 -4,0 -8,0 -13,0 -2,1 -3,2 -5,3 1,1 3,2 4,2 12,4 21,14 21,26 1,6 -1,11 -7,13 -1,1 -3,1 -4,1 -3,0 -5,-1 -7,-4 -1,-2 -1,-7 0,-8 3,-2 7,-2 10,-2l2 0c0,-9 -7,-16 -18,-16 0,0 -1,0 -1,0 0,17 0,34 0,52l-2 0zm-5 -53c-9,5 -17,9 -23,13 8,7 15,13 23,20 0,-10 0,-21 0,-33z"/>
   <path class="fil20" d="M1273 3171c-1,-1 -2,-2 -3,-4 -4,-9 -10,-15 -19,-19l-1 1c0,14 -12,20 -22,20 -1,0 -3,0 -5,0 -8,-2 -14,-7 -20,-12 -6,-6 -11,-13 -16,-20l1 -1 3 2c6,7 12,13 19,18 5,3 10,5 15,5 3,0 6,-1 9,-2 9,-4 13,-15 8,-23 -2,-4 -6,-6 -10,-6 -2,0 -3,0 -5,1l1 1c3,4 3,7 1,10 -2,3 -5,4 -8,4 0,0 -1,0 -2,0 -4,-1 -7,-4 -7,-8 -1,-5 1,-9 5,-12 -4,-2 -7,-4 -10,-4 -2,0 -3,0 -5,1 -4,2 -9,3 -13,5 -1,1 -3,1 -4,1 -2,0 -3,-1 -5,-3l3 -1c24,-9 49,-17 73,-26 1,0 2,0 3,0 2,0 4,1 5,3 -4,1 -8,2 -12,4 8,21 15,43 23,64l-2 1zm-12 -22c-5,-14 -9,-27 -14,-41 -11,4 -21,7 -32,11l1 2 4 2 2 1c2,-1 4,-1 5,-1 8,0 14,4 18,11 4,6 11,9 16,15z"/>
   <path class="fil19" d="M3016 2797c-1,-1 -3,-2 -4,-4 -4,-8 -10,-16 -20,-19l0 1c-1,14 -13,21 -23,21 -2,0 -4,-1 -5,-1 -8,-2 -15,-6 -21,-12 -6,-6 -12,-13 -17,-21l1 -1 3 2c6,8 12,14 20,19 5,3 11,5 16,5 3,0 6,-1 9,-2 10,-4 14,-15 8,-24 -2,-4 -6,-6 -10,-6 -2,0 -4,0 -5,1l1 1c2,4 3,8 1,11 -2,2 -5,4 -8,4 -1,0 -2,0 -3,0 -4,-1 -7,-5 -7,-9 -1,-5 1,-8 5,-12 -4,-2 -7,-4 -10,-4 -2,0 -3,0 -5,1 -5,2 -10,3 -14,5 -1,1 -3,1 -4,1 -2,0 -3,-1 -5,-3l3 -1c25,-9 50,-18 76,-27 1,0 2,0 3,0 2,0 4,1 5,3 -4,1 -8,2 -12,4 8,22 15,44 23,67l-1 0zm-13 -22c-5,-14 -10,-29 -15,-43 -11,4 -22,8 -33,12l1 1 4 3 2 1c2,-1 4,-1 6,-1 8,0 14,4 18,11 5,7 12,10 17,16z"/>
   <path class="fil20" d="M1154 2764c-5,0 -10,-1 -14,-3 -4,-1 -7,-3 -10,-6 -3,-3 -5,-6 -7,-10 -1,-3 -2,-7 -2,-11 0,-3 0,-5 1,-8 1,-2 2,-4 4,-6 1,-1 3,-3 5,-4 2,-1 4,-1 6,-1l4 0 3 3c1,0 2,2 2,3 1,1 1,2 1,4 0,2 0,3 -1,4l-2 3 -3 2 -4 1 -3 -1 -3 -2 -2 -3c-1,-1 -1,-2 -1,-3l0 -1 0 -1 1 -1 0 -1 -2 3 -1 2 -1 4 0 3c0,3 1,6 2,8 1,3 3,5 6,7 3,2 6,4 9,5 4,1 7,1 12,1 4,0 7,-1 11,-2 3,-1 6,-3 8,-5 2,-1 4,-4 5,-6 2,-3 2,-6 2,-8 0,-2 0,-4 -1,-5 0,-2 -1,-3 -2,-4 -1,-1 -2,-2 -4,-3 -1,0 -3,-1 -5,-1 -1,0 -2,0 -3,1l-3 1 -1 2 0 2c0,2 0,3 1,4l2 3c1,1 2,2 4,3 1,1 3,2 4,3l1 1 -1 2 -2 1 -32 0 -1 -1 -1 -1 1 -2 1 0 28 0c-1,-1 -2,-2 -4,-2 -1,-1 -2,-2 -3,-4 -1,-1 -2,-2 -3,-4 -1,-1 -1,-3 -1,-4 0,-2 0,-3 1,-5 1,-1 1,-2 3,-3 1,-1 2,-2 3,-2 2,-1 4,-1 5,-1 3,0 5,0 7,1 2,1 4,3 5,4 2,2 3,4 4,7 1,2 1,4 1,7 0,2 0,5 -1,7 0,3 -1,5 -3,7 -1,3 -2,5 -4,7 -2,1 -4,3 -6,4 -2,2 -5,3 -7,4 -3,0 -6,1 -9,1zm-16 -44l-3 0 -1 1 -2 2 0 2 0 2 1 2 2 1 3 1 2 -1 2 -1 1 -1 0 -3c0,-1 0,-3 -1,-4 -1,-1 -3,-1 -4,-1z"/>
   <path class="fil19" d="M2780 2932l-5 0 0 -20 -8 0c0,3 -2,6 -4,8 -2,3 -4,5 -7,7 -3,2 -6,3 -9,4 -4,1 -7,1 -10,1 -2,0 -5,0 -7,0 -2,-1 -5,-1 -7,-2 -2,0 -4,-1 -6,-2 -2,-1 -4,-2 -6,-3 -1,-2 -2,-3 -3,-5 -1,-1 -2,-3 -2,-5 0,-2 1,-3 1,-4l2 -3 3 -2c2,0 3,0 5,0l45 0c0,-4 0,-7 -1,-9 -1,-2 -2,-4 -4,-6 -1,-2 -3,-3 -4,-4 -2,-1 -4,-2 -6,-2 1,1 2,2 3,3 0,1 1,3 1,4 0,2 -1,3 -1,4l-2 4c-2,0 -3,1 -4,2 -2,0 -3,0 -5,0 -1,0 -3,0 -5,0 -1,-1 -2,-2 -3,-3 -2,-1 -2,-2 -3,-3 -1,-2 -1,-3 -1,-5 0,-2 0,-3 1,-5 1,-1 2,-3 3,-4 1,-1 3,-2 5,-2 2,-1 4,-1 6,-1 4,0 8,1 11,2 3,1 6,3 8,6 2,2 4,5 5,8 2,3 2,7 2,11l7 0 0 -27 5 0 0 53zm-63 -20c-2,0 -3,0 -4,0l-1 3c0,1 1,3 2,4 2,2 3,3 6,4 2,1 4,2 7,2 3,1 6,1 10,1 2,0 5,0 8,-1 2,-1 5,-2 7,-3 2,-1 4,-3 6,-4 1,-2 2,-4 3,-6l-44 0zm22 -27l-2 0 -2 1 -1 2 -1 3 1 2 1 2 2 1 2 1 2 -1 2 -1 1 -2 1 -2 -1 -3 -1 -1 -2 -2 -2 0z"/>
   <path class="fil21" d="M2025 2613c0,0 0,0 -1,0 -2,0 -4,-1 -6,-2 -2,0 -4,-1 -7,-3 -2,-1 -4,-3 -6,-5 -3,-2 -5,-5 -7,-9 -2,-2 -3,-5 -4,-8 -1,-3 -1,-6 -1,-8 0,-3 1,-5 2,-7 1,-2 3,-4 5,-5 2,-1 4,-2 6,-2 0,0 0,0 0,0 1,0 3,0 4,1 2,0 3,1 4,2 2,2 3,3 4,4 0,1 1,3 1,4 1,2 1,3 1,5l18 -12c-1,0 -3,-1 -4,-2 -1,-1 -2,-2 -3,-3 -1,-2 -1,-3 -2,-5 0,-1 0,-3 0,-5 0,-1 0,-3 1,-4 1,-2 2,-3 4,-4 2,-2 4,-3 7,-3 0,0 0,0 1,0 2,0 4,1 6,1 2,1 5,3 7,5 2,2 4,4 6,7 2,3 3,7 4,10 2,3 2,5 3,8 0,3 0,5 -1,7 0,3 0,5 -1,7 -1,1 -2,3 -3,4 -1,2 -2,3 -4,3 -1,1 -2,2 -4,2 -1,1 -3,1 -4,1 -2,0 -4,0 -5,-1 -2,0 -3,-1 -5,-3 1,2 1,4 1,6 -1,2 -1,3 -2,5 0,1 -1,2 -2,3 -1,1 -3,2 -4,3 -1,1 -3,2 -4,2 -2,0 -3,1 -5,1zm-21 -22c3,4 5,7 8,9 2,2 4,4 7,5 2,1 4,1 6,1 0,0 0,0 0,0 2,0 4,-1 5,-2 2,-1 3,-2 4,-3 1,-2 1,-3 1,-5 0,-1 0,-3 0,-4 -1,-2 -1,-3 -2,-5l6 -3 3 3c2,1 3,2 4,2 2,1 3,1 4,1 1,0 1,0 1,0 1,0 3,0 5,-1 1,-1 2,-3 3,-4 1,-2 2,-4 2,-7 0,-2 0,-5 -1,-8 -1,-4 -2,-7 -5,-11 0,2 -1,4 -2,5 -1,1 -2,2 -3,3l-36 23c-2,1 -3,1 -5,2 0,0 -1,0 -2,0 -1,0 -2,0 -3,-1zm1 -20l-2 1c-2,1 -3,3 -3,4 -1,2 0,4 0,6l3 3 3 0 2 0 2 -1 2 -2 1 -3 0 -2 -1 -2 -2 -2 -2 -1 -3 -1zm37 -22c-1,0 -2,0 -3,1l-2 2 -1 2 0 2 1 3 2 1 2 2 3 0 2 -1 2 -1 1 -2 1 -3c0,-1 0,-2 -1,-3 -2,-2 -3,-3 -5,-3 -1,0 -1,0 -2,0z"/>
   <path class="fil21" d="M1667 3041c0,0 -1,0 -1,0 -2,0 -4,-1 -6,-1 -2,-1 -5,-2 -7,-3 -2,-2 -4,-4 -7,-6 -2,-2 -4,-5 -6,-8 -2,-3 -3,-6 -4,-9 -1,-3 -1,-5 -1,-8 0,-2 1,-5 2,-7 1,-2 3,-4 5,-5 2,-1 4,-2 5,-2 0,0 1,0 1,0 1,0 3,0 4,1 2,1 3,2 4,3 1,1 3,2 3,3 1,2 2,3 2,5 0,1 1,2 0,4l19 -12c-2,0 -3,-1 -4,-2 -1,-1 -2,-2 -3,-3 -1,-2 -1,-3 -2,-5 0,-1 -1,-3 -1,-4 1,-2 1,-4 2,-5 1,-2 2,-3 4,-4 2,-2 4,-2 7,-2 0,0 0,0 1,0 2,0 4,0 6,1 2,1 4,2 7,4 2,2 4,4 6,7 2,4 3,7 4,10 1,3 2,6 2,8 1,3 1,5 0,8 0,2 -1,4 -2,6 0,2 -1,3 -2,4 -1,2 -3,3 -4,4 -1,0 -3,1 -4,2 -2,0 -3,0 -5,0 -1,0 -3,0 -4,-1 -2,0 -3,-1 -5,-2 0,2 0,4 0,5 0,2 0,3 -1,5 -1,1 -1,2 -3,4 -1,1 -2,2 -3,3 -1,0 -3,1 -5,1 -1,1 -2,1 -4,1zm-21 -21c2,3 5,6 7,8 3,2 5,4 8,5 2,1 4,1 5,1 1,0 1,0 1,0 2,0 4,0 5,-1 2,-1 3,-3 4,-4 0,-1 1,-3 1,-4 0,-2 0,-3 0,-5 -1,-1 -1,-3 -2,-4l6 -4 3 3c1,1 3,2 4,3 1,0 3,0 4,0 0,0 1,0 1,0 1,0 3,0 4,-1 2,-1 3,-2 4,-4 1,-2 2,-4 2,-7 0,-2 0,-5 -1,-8 -1,-3 -3,-7 -5,-10 0,1 -1,3 -2,4 -1,2 -2,3 -3,3l-36 23c-2,1 -3,1 -5,2 0,0 -1,0 -2,0 -1,0 -2,0 -3,0zm1 -20l-2 1c-2,1 -3,2 -3,4 -1,2 -1,4 0,6l3 2 3 1 2 -1 2 -1 2 -2 0 -2 0 -3 0 -2 -2 -2 -2 -1 -3 0zm37 -23c-1,0 -2,0 -3,1l-2 2 -1 2 0 3 1 2 1 2 3 1 2 0 3 -1 2 -1 1 -2 0 -2c1,-1 0,-3 0,-4 -2,-2 -4,-2 -5,-3 -1,0 -1,0 -2,0z"/>
   <path class="fil21" d="M2008 2766c0,0 0,0 0,0 -2,0 -3,0 -5,-1 -2,0 -4,-1 -6,-2 -2,-2 -3,-3 -5,-5 -2,-2 -4,-4 -5,-7 -2,-2 -3,-4 -4,-7 0,-2 -1,-4 0,-6 0,-2 0,-4 1,-6 1,-2 3,-3 4,-4 2,-1 3,-1 5,-2 0,0 0,0 0,0 1,0 2,1 3,1l4 2 2 3 2 4 0 3 15 -9 -3 -2 -3 -3c0,-1 -1,-2 -1,-3 -1,-2 -1,-3 -1,-4 0,-2 1,-3 2,-4 0,-1 1,-2 3,-3 1,-1 3,-2 5,-2 1,0 1,0 1,0 2,0 3,0 5,1 2,1 4,2 6,3 1,2 3,4 4,6 2,3 3,6 4,8 1,2 2,5 2,7 0,2 0,4 0,6 0,2 -1,3 -1,5 -1,1 -2,3 -3,4l-3 2 -3 2c-1,0 -3,0 -4,0 -1,0 -2,0 -4,0 -1,-1 -2,-2 -3,-3 0,2 0,4 0,5 0,1 -1,3 -1,4l-2 3 -3 2c-1,1 -2,1 -4,2 -1,0 -2,0 -4,0zm-16 -17c1,3 3,5 5,7 2,2 4,3 6,4 2,0 4,1 5,1 0,0 0,0 1,0 1,-1 3,-1 4,-2 1,0 2,-1 3,-3l1 -3c0,-1 0,-3 -1,-4l-1 -3 5 -3 3 2 3 2 3 1c2,0 3,-1 4,-2 2,0 2,-1 3,-3 1,-1 1,-3 2,-5 0,-2 -1,-4 -1,-7 -1,-3 -2,-5 -4,-8 0,1 -1,2 -2,3l-2 3 -30 18c-1,1 -2,2 -3,2 -1,0 -1,0 -2,0 -1,0 -2,0 -2,0zm0 -16l-2 0c-1,1 -2,2 -2,4 0,1 0,3 0,5l3 1 2 1 2 0 1 -1 2 -2 0 -2 0 -2 0 -2 -2 -1 -2 -1 -2 0zm30 -19c-1,0 -1,0 -2,1l-2 1 -1 2 1 2 0 2 2 2 1 1 3 0 2 -1 1 -1 1 -1 0 -2 0 -3c-1,-2 -3,-2 -4,-3 -1,0 -1,0 -2,0z"/>
   <path class="fil19" d="M2966 2902c0,0 -1,0 -1,0 -2,0 -4,-1 -6,-1 -2,-1 -5,-2 -7,-4 -2,-1 -4,-3 -7,-5 -2,-2 -4,-5 -6,-8 -2,-3 -3,-6 -4,-9 -1,-3 -1,-6 -1,-8 0,-3 1,-5 2,-7 1,-2 3,-4 5,-5 2,-1 4,-2 5,-2 1,0 1,0 1,0 1,0 3,0 4,1 2,0 3,1 4,2 2,2 3,3 4,4 0,1 1,3 1,4 1,2 1,3 1,5l18 -12c-1,0 -3,-1 -4,-2 -1,-1 -2,-2 -3,-3 -1,-2 -1,-3 -2,-5 0,-1 -1,-3 0,-5 0,-1 0,-3 1,-4 1,-2 2,-3 4,-4 2,-2 4,-2 7,-3 0,0 0,0 1,0 2,0 4,1 6,1 2,1 4,3 7,5 2,2 4,4 6,7 2,3 3,7 4,10 1,3 2,5 2,8 1,3 1,5 0,7 0,3 -1,5 -1,7 -1,1 -2,3 -3,4 -1,2 -3,3 -4,3 -1,1 -3,2 -4,2 -1,1 -3,1 -4,1 0,0 0,0 0,0 -2,0 -4,0 -5,-1 -2,0 -3,-1 -5,-2 0,1 1,3 0,5 0,2 0,3 -1,5 0,1 -1,2 -2,3 -1,1 -3,2 -4,3 -1,1 -3,2 -4,2 -2,0 -3,1 -5,1zm-21 -22c2,4 5,7 7,9 3,2 5,4 8,5 2,1 4,1 6,1 0,0 0,0 0,0 2,0 4,-1 5,-2 2,-1 3,-2 4,-3 1,-2 1,-3 1,-4 0,-2 0,-4 0,-5 -1,-2 -1,-3 -2,-4l6 -4 3 3c2,1 3,2 4,2 2,1 3,1 4,1 1,0 1,0 1,0 1,0 3,0 5,-1 1,-1 2,-3 3,-4 1,-2 2,-4 2,-7 0,-2 0,-5 -1,-8 -1,-4 -3,-7 -5,-11 0,2 -1,4 -2,5 -1,1 -2,2 -3,3l-36 23c-2,1 -3,1 -5,2 0,0 -1,0 -2,0 -1,0 -2,0 -3,-1zm1 -20l-2 1c-2,1 -3,3 -3,5 -1,1 -1,3 0,6l3 2 3 0 2 0 2 -1 2 -2 1 -3 -1 -2 0 -2 -2 -2 -2 -1 -3 -1zm37 -22c-1,0 -2,0 -3,1l-2 2 -1 2 0 2 1 3 2 1 2 2 3 0 2 -1 2 -1 1 -2 1 -3c0,-1 -1,-2 -1,-3 -2,-2 -3,-3 -5,-3 -1,0 -1,0 -2,0z"/>
   <path class="fil20" d="M1225 2880c0,0 0,0 -1,0 -2,0 -4,-1 -6,-1 -2,-1 -4,-2 -6,-3 -2,-2 -4,-3 -7,-6 -2,-2 -4,-4 -6,-8 -2,-2 -3,-5 -4,-8 0,-3 -1,-5 -1,-8 1,-2 1,-4 2,-6 2,-2 3,-4 5,-5 2,-1 4,-2 5,-2 0,0 1,0 1,0 1,0 3,0 4,1 1,0 3,1 4,2 1,1 2,3 3,4 1,1 1,2 2,4 0,1 0,3 0,4l18 -11c-2,-1 -3,-1 -4,-2l-3 -3c-1,-2 -1,-3 -2,-5 0,-1 0,-3 0,-4 0,-2 0,-3 1,-5 1,-1 2,-3 4,-4 2,-1 4,-2 6,-2 1,0 1,0 1,0 2,0 4,0 6,1 3,1 5,2 7,4 2,2 4,5 6,7 2,4 3,7 4,10 1,2 2,5 2,8 0,2 0,5 0,7 0,2 -1,4 -2,6 0,1 -1,3 -2,4 -1,2 -3,3 -4,3 -1,1 -2,2 -4,2 -1,1 -3,1 -4,1 -2,0 -3,0 -5,-1 -1,0 -3,-1 -4,-3 0,2 0,4 0,6 0,1 0,3 -1,4 -1,2 -2,3 -3,4 -1,1 -2,2 -3,3 -1,0 -3,1 -4,1 -2,1 -3,1 -5,1zm-20 -21c2,4 5,7 7,9 3,2 5,3 7,4 2,1 4,1 6,1 0,0 0,0 0,0 2,0 4,0 5,-1 2,-1 3,-2 4,-4 0,-1 1,-2 1,-4 0,-1 0,-3 0,-4 -1,-2 -1,-3 -2,-4l6 -4 3 3c1,1 2,2 4,2 1,1 2,1 4,1 0,0 0,0 0,0 2,0 3,0 5,-1 1,-1 2,-2 3,-4 1,-2 2,-4 2,-6 0,-3 0,-6 -1,-9 -1,-3 -3,-6 -5,-10 0,2 -1,4 -2,5 -1,1 -2,2 -3,3l-35 22c-1,1 -2,1 -4,2 -1,0 -1,0 -2,0 -1,0 -2,0 -3,-1zm1 -19l-2 1c-2,1 -3,2 -3,4 -1,2 0,4 0,6l3 2 3 0 2 0 2 -1 1 -2 1 -2 0 -3 -1 -2 -1 -1 -2 -2 -3 0zm36 -22c-1,0 -2,0 -4,1l-1 2 -1 2 0 3 1 2 1 1 3 2 2 0 3 -1 1 -1 1 -2 1 -2c0,-1 0,-2 -1,-4 -1,-1 -3,-2 -5,-3 0,0 -1,0 -1,0z"/>
   <path class="fil19" d="M2722 2781c0,0 -1,0 -1,0 -2,0 -4,-1 -6,-1 -2,-1 -5,-2 -7,-4 -2,-1 -4,-3 -7,-5 -2,-2 -4,-5 -6,-8 -2,-3 -3,-6 -4,-9 -1,-3 -1,-6 -1,-8 0,-3 1,-5 2,-7 1,-2 3,-4 5,-5 2,-1 4,-2 5,-2 1,0 1,0 1,0 1,0 3,0 4,1 2,0 3,1 4,3 2,1 3,2 3,3 1,2 2,3 2,4 1,2 1,3 1,5l18 -12c-1,0 -3,-1 -4,-2 -1,-1 -2,-2 -3,-3 -1,-2 -1,-3 -2,-5 0,-1 -1,-3 0,-5 0,-1 0,-3 1,-4 1,-2 2,-3 4,-4 2,-2 4,-2 7,-3 0,0 0,0 1,0 2,0 4,1 6,2 2,0 4,2 7,4 2,2 4,4 6,7 2,3 3,7 4,10 1,3 2,5 2,8 1,3 1,5 0,7 0,3 -1,5 -1,7 -1,1 -2,3 -3,4 -1,2 -3,3 -4,3 -1,1 -3,2 -4,2 -1,1 -3,1 -5,1 -1,0 -3,0 -4,-1 -2,0 -3,-1 -5,-2 0,2 1,3 0,5 0,2 0,3 -1,5 0,1 -1,2 -2,3 -1,2 -3,2 -4,3 -1,1 -3,2 -4,2 -2,1 -3,1 -5,1zm-21 -22c2,4 5,7 7,9 3,2 5,4 8,5 2,1 4,1 6,1 0,0 0,0 0,0 2,0 4,-1 5,-1 2,-2 3,-3 4,-4 1,-1 1,-3 1,-4 0,-2 0,-3 0,-5 -1,-2 -1,-3 -2,-4l6 -4 3 3c2,1 3,2 4,2 2,1 3,1 4,1 0,0 1,0 1,0 1,0 3,0 5,-1 1,-1 2,-3 3,-4 1,-2 2,-4 2,-7 0,-2 0,-5 -1,-8 -1,-4 -3,-7 -5,-11 0,2 -1,4 -2,5 -1,1 -2,2 -3,3l-36 23c-2,1 -3,1 -5,2 0,0 -1,0 -2,0 -1,0 -2,0 -3,-1zm1 -19l-2 0c-2,1 -3,3 -3,5 -1,1 -1,3 0,6l3 2 3 0 2 0 2 -1 2 -2 0 -3 0 -2 0 -2 -2 -2 -2 -1 -3 0zm37 -23c-1,0 -2,0 -3,1l-2 2 -1 2 0 3 1 2 2 1 2 2 3 0 2 -1 2 -1 1 -2 1 -3c0,-1 -1,-2 -1,-3 -2,-2 -3,-3 -5,-3 -1,0 -1,0 -2,0z"/>
   <path class="fil20" d="M1093 3005c-1,0 -3,-1 -4,-1 -1,-1 -2,-1 -4,-2l-3 -3 -2 -3 -2 -4c-1,-3 -2,-6 -2,-9 0,-3 0,-6 1,-8 1,-3 2,-5 4,-7 2,-2 5,-4 8,-5 1,-1 3,-1 4,-1 2,-1 3,-1 4,-1 0,0 1,0 1,0 1,0 3,0 4,1 2,0 3,1 5,2 0,-2 0,-4 1,-5 0,-1 1,-2 1,-3l3 -3 3 -1 3 -1 3 0 3 1 4 2c0,-2 0,-3 1,-4l2 -4 3 -2 3 -1c2,-1 4,-2 6,-2 1,0 1,0 1,0 3,0 5,1 7,2 2,1 4,3 5,5 2,2 3,4 4,6 1,3 2,5 2,7 0,2 0,4 0,7 -1,2 -2,4 -3,6 -1,2 -2,4 -4,6l-4 -4c1,-1 2,-3 3,-4 0,-1 1,-3 1,-4 0,-2 0,-4 0,-5 0,-2 -1,-4 -1,-6 -1,-1 -2,-3 -3,-4 -1,-2 -2,-3 -4,-4 -1,-1 -2,-1 -4,-2 0,0 -1,0 -1,0 -1,0 -3,0 -4,1l-3 2 -1 3c-1,1 -1,3 -1,4 0,2 1,4 1,5l9 22 -6 3 -9 -22c-1,-1 -2,-3 -3,-4l-3 -3 -3 -1 -3 0 -3 3 -1 3c0,1 0,3 0,4 0,1 1,3 1,4l9 22 -6 3 -9 -21c-1,-1 -2,-3 -3,-4 -1,-1 -2,-2 -4,-3 -1,0 -3,-1 -5,-1 0,0 0,0 0,0 -2,0 -3,1 -5,1 -2,1 -4,2 -5,3 -1,2 -2,3 -3,5 -1,1 -2,3 -2,5 0,1 0,3 1,5l1 -2 1 -2 2 -2 3 -2c2,0 3,-1 5,-1 0,0 0,0 0,0 2,0 4,1 5,2 2,0 3,1 4,3 1,1 2,2 3,4 1,2 1,4 1,5 0,2 0,4 -1,5 -1,2 -1,3 -3,5 -1,1 -2,2 -4,2 -1,1 -3,1 -4,2 -1,0 -1,0 -1,0zm-1 -21c-1,0 -2,0 -3,1l-3 1 -1 3 -1 2 1 3 2 3 2 2 3 1 3 -1 2 -1 2 -3 0 -3 -1 -3c-1,-2 -2,-4 -4,-4 0,-1 -1,-1 -2,-1z"/>
   <path class="fil19" d="M2382 3030c-1,0 -1,0 -1,0l-1 -5c2,-1 4,-1 5,-1 2,-1 3,-2 5,-3 1,-1 2,-2 3,-3 1,-2 2,-3 3,-5 1,-2 1,-4 1,-6 1,-1 1,-3 0,-5 0,-2 -1,-3 -2,-4 -1,-2 -2,-3 -4,-4l-3 0 -4 1 -3 3c-1,1 -2,2 -3,4l-9 23 -7 -3 9 -22c1,-2 1,-4 1,-5 0,-2 0,-3 0,-4 0,-2 0,-3 -1,-4l-3 -2 -4 0 -3 1 -3 3c-1,2 -2,3 -2,4l-9 23 -7 -3 8 -21c1,-2 1,-3 1,-5 0,-2 0,-4 -1,-5 0,-2 -1,-3 -3,-4 -1,-2 -2,-3 -4,-3 -2,-1 -4,-2 -6,-2 0,0 -1,0 -1,0 -2,0 -3,0 -5,1 -1,0 -3,1 -4,3 -2,1 -3,2 -4,4l2 -1 3 0 3 0 3 0c2,1 4,2 5,4 1,1 2,2 3,4 0,2 0,3 0,5 0,2 0,4 -1,5 -1,2 -2,4 -3,5 -1,2 -3,3 -4,3 -2,1 -4,1 -5,1 -1,0 -1,0 -1,0 -2,0 -3,0 -4,0 -2,-1 -4,-2 -5,-3 -1,-1 -2,-2 -3,-4 0,-1 -1,-2 -1,-4 0,-1 0,-3 0,-4 0,-2 0,-3 1,-5 0,-1 0,-2 1,-4 1,-3 3,-6 5,-8 2,-2 4,-4 6,-5 3,-1 6,-2 9,-2 0,0 0,0 0,0 3,0 6,0 9,2 1,0 3,1 4,2 1,1 3,2 4,3 1,1 2,2 3,4 0,1 1,2 1,4 2,-1 3,-2 4,-3 2,0 3,-1 4,-1 1,0 1,0 2,0 1,0 1,0 2,0l3 1 3 2 2 2 2 3c1,2 1,3 1,4 2,-1 3,-2 4,-2 1,-1 3,-1 4,-1l4 0 3 1c3,2 5,3 7,5 1,2 2,4 3,6 1,3 1,5 1,8 0,2 -1,5 -2,7 -1,3 -2,5 -4,6 -1,2 -3,4 -5,5 -2,1 -4,2 -6,3 -2,1 -4,1 -6,1zm-57 -45l-3 1 -2 1 -2 3 0 3 0 4 2 2 2 2 3 1 3 -1 2 -2 2 -3c1,-2 1,-4 0,-6 -1,-2 -2,-3 -4,-4l-3 -1z"/>
   <path class="fil21" d="M1941 3058l-8 -16c-5,-1 -9,-3 -14,-6 -4,-3 -7,-7 -9,-11 -3,-4 -4,-9 -4,-13 0,-4 0,-9 2,-13 1,-4 4,-8 7,-12 4,-4 8,-7 13,-9 5,-3 10,-5 15,-5 1,0 3,-1 5,-1 3,0 6,1 8,2 5,1 9,3 12,5 4,3 7,7 9,11 1,3 2,6 3,9 1,3 1,7 0,10l-6 -2c1,-3 1,-5 1,-8 -1,-2 -1,-5 -3,-7 -1,-3 -3,-5 -6,-7 -3,-2 -6,-3 -10,-4 -1,0 -3,0 -5,0 -2,0 -4,0 -6,0 -4,1 -9,2 -13,5 -4,2 -8,4 -11,7 -2,3 -5,6 -6,10 -2,3 -3,6 -3,10 0,3 1,6 3,9 1,3 3,5 5,7 3,2 5,3 8,4l0 -1c-1,-2 -2,-4 -2,-6 0,-2 0,-4 0,-6 1,-2 2,-3 3,-5 1,-1 2,-2 4,-3 2,-1 4,-2 6,-2 0,0 0,0 0,0 2,0 4,1 5,2 1,-2 1,-4 3,-6 1,-2 2,-3 4,-4 2,-1 3,-1 5,-1 1,0 1,0 1,0 2,0 3,0 5,0 1,1 3,2 5,3 1,2 2,4 3,6l14 25 -6 4 -12 -24 -2 -2 -3 -2 -3 -1 -3 0 -2 2 -1 3 0 3 2 3 12 24 -7 3 -12 -23 -2 -3 -2 -2 -3 -1 -3 1 -2 2 -1 3 0 3 1 3 13 23 -7 4z"/>
   <path class="fil19" d="M2551 2920c0,0 0,0 -1,0 -1,0 -3,0 -5,0 -2,-1 -4,-2 -6,-3 -2,-1 -4,-3 -6,-5l4 -5c2,2 3,3 5,5 1,1 3,2 4,3 2,0 3,1 5,1 0,0 1,0 2,0 1,0 1,0 2,0 2,0 3,-1 5,-1 1,-1 2,-2 3,-3l2 -3 0 -3c0,-2 -1,-3 -2,-5 -1,-1 -2,-2 -4,-3 -1,-1 -3,-1 -5,-2 -2,-1 -4,-1 -6,-2 -2,-1 -4,-1 -6,-2 -2,-1 -4,-2 -6,-3 -2,-2 -3,-3 -4,-5 -1,-2 -2,-4 -2,-6 -1,-3 0,-5 0,-7 1,-2 2,-4 4,-6 1,-1 3,-3 6,-4 2,-1 5,-2 8,-2 1,0 3,0 4,0 1,0 1,0 1,0 2,0 4,0 5,0 2,1 4,2 6,3 2,1 3,3 6,5l-4 5c-3,-4 -6,-6 -9,-8 -2,-1 -5,-1 -7,-1 -1,0 -1,0 -2,0 -2,0 -3,0 -4,1 -2,1 -3,1 -4,2l-2 3 0 3c0,2 1,3 2,4 1,2 2,3 4,4 2,0 4,1 6,2 2,0 4,1 7,2 2,0 4,1 6,2 3,1 5,2 6,3 2,1 4,3 5,4 1,2 2,4 2,7 0,2 0,4 0,7 -1,2 -2,4 -4,6 -2,2 -4,3 -6,5 -3,1 -6,2 -10,2 -2,0 -3,0 -5,0z"/>
   <path class="fil21" d="M1677 2921c-1,0 -3,0 -4,0 -3,-1 -5,-1 -8,-3l2 -6c2,1 4,2 6,3 2,0 4,1 6,1 0,0 0,0 1,0 1,0 2,0 3,-1 2,0 3,0 5,-1 1,-1 2,-2 3,-3l2 -3 1 -4 -1 -3c-1,-2 -2,-3 -3,-4 -2,-1 -4,-1 -5,-1 -1,0 -3,0 -4,0 -1,0 -1,0 -2,0 -2,0 -4,0 -7,0 -1,0 -3,0 -5,0 0,0 -1,0 -1,0 -2,0 -4,0 -6,-1 -2,0 -4,-1 -6,-2 -2,-1 -3,-3 -4,-5 -2,-2 -2,-5 -2,-7 0,-2 0,-4 1,-6 1,-3 2,-5 4,-7 2,-2 4,-3 6,-5 2,-1 4,-1 5,-2 2,-1 4,-1 6,-1 0,0 0,0 1,0 1,0 3,0 4,1 3,0 5,1 8,2l-2 5c-4,-2 -7,-3 -11,-3 0,0 -1,0 -1,0 -3,0 -5,1 -8,2 -1,1 -3,2 -4,3l-2 3 -1 3 1 3c1,2 2,3 4,4 1,0 3,1 5,1 0,0 1,0 2,0 1,0 3,0 4,0 2,0 5,-1 7,-1 2,0 5,0 7,0 0,0 0,0 1,0 2,0 4,0 6,0 2,1 4,2 5,3 2,1 4,2 5,5 1,2 2,4 2,7 0,2 0,4 -1,7 -1,2 -2,4 -4,6 -2,2 -5,4 -8,6 -2,1 -4,2 -5,3 -2,0 -4,1 -6,1 -1,0 -1,0 -2,0z"/>
   <path class="fil21" d="M2133 2794c0,0 0,0 0,0 -12,0 -21,-6 -28,-14 -10,-12 -5,-26 10,-29 6,-1 12,-3 19,-5 -2,-6 -3,-12 -5,-19 -15,4 -29,8 -44,12 -1,-2 -1,-4 -2,-6 21,-6 41,-12 62,-17 1,2 1,4 2,6 -4,1 -7,2 -11,3 1,2 1,4 2,6 4,14 8,28 11,43 4,11 -4,20 -16,20zm3 -42c-8,2 -15,4 -22,6 -7,2 -9,8 -5,14 6,10 14,15 26,15 0,0 0,0 0,0 5,0 9,-5 8,-10 -2,-8 -4,-16 -7,-25z"/>
   <path class="fil19" d="M2364 2793c0,0 0,0 0,0 -12,0 -20,-6 -27,-14 -10,-12 -5,-26 9,-29 7,-1 13,-3 20,-5 -2,-6 -4,-12 -5,-19 -15,4 -30,8 -45,12 0,-2 -1,-4 -1,-6 20,-6 41,-12 61,-17 1,2 2,4 2,6 -3,1 -6,2 -10,3 0,2 1,4 1,6 4,14 8,29 12,43 3,11 -5,20 -17,20zm4 -42c-8,2 -15,4 -22,6 -7,2 -10,8 -6,15 6,9 15,14 26,14 0,0 0,0 0,0 6,0 10,-4 9,-10 -2,-8 -5,-16 -7,-25z"/>
   <path class="fil20" d="M1236 3074c-5,0 -10,-2 -15,-6 -8,-6 -7,-16 2,-19 4,-2 8,-4 12,-6 -2,-4 -4,-8 -6,-12 -9,5 -18,10 -27,14 -1,-1 -1,-2 -2,-3 12,-7 25,-14 37,-20 1,1 1,2 2,3 -2,1 -4,2 -6,4l2 3c5,9 9,17 14,26 3,7 0,14 -8,15 -2,1 -3,1 -5,1zm1 -28c-5,3 -9,5 -13,7 -4,2 -5,7 -2,10 5,4 9,6 15,6 1,0 3,0 4,0 4,-1 6,-5 4,-8 -2,-5 -5,-10 -8,-15z"/>
   <path class="fil21" d="M1685 3156c-1,0 -3,0 -4,0 0,-4 0,-8 0,-12 10,-1 15,-5 16,-12 1,-8 -3,-14 -11,-17 -2,5 -5,10 -7,14 -2,3 -3,4 -5,4 -1,0 -2,-1 -4,-3 -2,-5 -5,-10 -8,-14 -7,2 -11,7 -10,15 0,7 6,12 16,13 0,4 0,7 0,11 -2,1 -3,1 -5,1 -9,0 -18,-6 -22,-16 -6,-14 -1,-25 14,-37 -3,-10 -3,-10 -13,-10 -4,0 -8,0 -12,0 0,-4 0,-8 0,-12 28,0 56,0 84,0 0,3 0,7 0,12 -5,0 -11,0 -16,1 -2,1 -3,6 -5,9 15,8 21,22 15,37 -4,9 -14,16 -23,16zm-19 -63c3,6 5,12 8,18 4,-6 6,-12 9,-18 -6,0 -11,0 -17,0z"/>
  </g>
 </g>
</svg>
