<?xml version="1.0" encoding="UTF-8"?>
<!DOCTYPE svg PUBLIC "-//W3C//DTD SVG 1.1//EN" "http://www.w3.org/Graphics/SVG/1.1/DTD/svg11.dtd">
<!-- Creator: CorelDRAW X7 -->
<svg xmlns="http://www.w3.org/2000/svg" xml:space="preserve" width="484px" height="611px" version="1.1" style="shape-rendering:geometricPrecision; text-rendering:geometricPrecision; image-rendering:optimizeQuality; fill-rule:evenodd; clip-rule:evenodd"
viewBox="0 0 17330 21869"
 xmlns:xlink="http://www.w3.org/1999/xlink">
 <defs>
  <style type="text/css">
   <![CDATA[
    .fil3 {fill:none}
    .fil20 {fill:#4D4D4E}
    .fil5 {fill:#666666}
    .fil13 {fill:#A6A6A6}
    .fil22 {fill:white}
    .fil15 {fill:#4D4D4D;fill-rule:nonzero}
    .fil18 {fill:#4D4D4D;fill-rule:nonzero}
    .fil6 {fill:#FAFAFA;fill-rule:nonzero}
    .fil17 {fill:#FEFEFE;fill-rule:nonzero}
    .fil10 {fill:white;fill-rule:nonzero}
    .fil1 {fill:#FFF0D4;fill-rule:nonzero;fill-opacity:0.501961}
    .fil11 {fill:url(#id0)}
    .fil4 {fill:url(#id1)}
    .fil21 {fill:url(#id2)}
    .fil14 {fill:url(#id3)}
    .fil8 {fill:url(#id4)}
    .fil0 {fill:url(#id5)}
    .fil2 {fill:url(#id6)}
    .fil9 {fill:url(#id7)}
    .fil12 {fill:url(#id8)}
    .fil7 {fill:url(#id9)}
    .fil16 {fill:url(#id10);fill-rule:nonzero}
    .fil19 {fill:url(#id11);fill-rule:nonzero}
   ]]>
  </style>
  <linearGradient id="id0" gradientUnits="userSpaceOnUse" x1="8665.17" y1="8598.26" x2="8665.17" y2="13532.8">
   <stop offset="0" style="stop-opacity:1; stop-color:#A6A6A6"/>
   <stop offset="1" style="stop-opacity:1; stop-color:#E8EEF7"/>
  </linearGradient>
  <linearGradient id="id1" gradientUnits="userSpaceOnUse" x1="8697.59" y1="767.776" x2="8697.59" y2="17291.8">
   <stop offset="0" style="stop-opacity:1; stop-color:#D0D5E0"/>
   <stop offset="0.0901961" style="stop-opacity:1; stop-color:#BECAD5"/>
   <stop offset="0.180392" style="stop-opacity:1; stop-color:#AEB1C4"/>
   <stop offset="0.611765" style="stop-opacity:1; stop-color:#6D7D85"/>
   <stop offset="1" style="stop-opacity:1; stop-color:#ABBEC9"/>
  </linearGradient>
  <linearGradient id="id2" gradientUnits="userSpaceOnUse" x1="8274.9" y1="11693.3" x2="8275.07" y2="5388.81">
   <stop offset="0" style="stop-opacity:1; stop-color:#AFB1B1"/>
   <stop offset="0.709804" style="stop-opacity:1; stop-color:#D0D2D3"/>
   <stop offset="1" style="stop-opacity:1; stop-color:#F2F4F5"/>
  </linearGradient>
  <linearGradient id="id3" gradientUnits="userSpaceOnUse" x1="8665.17" y1="3797.58" x2="8566.43" y2="11679.7">
   <stop offset="0" style="stop-opacity:1; stop-color:#F0F5FF"/>
   <stop offset="1" style="stop-opacity:1; stop-color:#A9BCC7"/>
  </linearGradient>
  <linearGradient id="id4" gradientUnits="userSpaceOnUse" x1="16151.7" y1="7256.47" x2="16160.2" y2="9725.07">
   <stop offset="0" style="stop-opacity:1; stop-color:#F7F7F7"/>
   <stop offset="1" style="stop-opacity:1; stop-color:#BDBDBD"/>
  </linearGradient>
  <linearGradient id="id5" gradientUnits="userSpaceOnUse" x1="13096.5" y1="15877.5" x2="8729.04" y2="16509.9">
   <stop offset="0" style="stop-opacity:1; stop-color:red"/>
   <stop offset="1" style="stop-opacity:1; stop-color:#B00205"/>
  </linearGradient>
  <linearGradient id="id6" gradientUnits="userSpaceOnUse" x1="4354.4" y1="17317.3" x2="7873.76" y2="15074.4">
   <stop offset="0" style="stop-opacity:1; stop-color:#B00205"/>
   <stop offset="1" style="stop-opacity:1; stop-color:red"/>
  </linearGradient>
  <linearGradient id="id7" gradientUnits="userSpaceOnUse" x1="8688.76" y1="2915.98" x2="8688.76" y2="14945.2">
   <stop offset="0" style="stop-opacity:1; stop-color:#EDEDED"/>
   <stop offset="0.411765" style="stop-opacity:1; stop-color:#B8B8B8"/>
   <stop offset="1" style="stop-opacity:1; stop-color:#CCCCCC"/>
  </linearGradient>
  <linearGradient id="id8" gradientUnits="userSpaceOnUse" x1="8683.39" y1="4228.86" x2="8683.39" y2="13511.2">
   <stop offset="0" style="stop-opacity:1; stop-color:#D0D5E0"/>
   <stop offset="0.180392" style="stop-opacity:1; stop-color:#BECAD5"/>
   <stop offset="0.490196" style="stop-opacity:1; stop-color:#6D7D85"/>
   <stop offset="1" style="stop-opacity:1; stop-color:#ABBEC9"/>
  </linearGradient>
  <linearGradient id="id9" gradientUnits="userSpaceOnUse" xlink:href="#id4" x1="1443.7" y1="7256.47" x2="1452.24" y2="9725.07">
  </linearGradient>
  <linearGradient id="id10" gradientUnits="userSpaceOnUse" x1="8103.62" y1="2207.34" x2="8103.62" y2="898.853">
   <stop offset="0" style="stop-opacity:1; stop-color:#C8CCD9"/>
   <stop offset="0.560784" style="stop-opacity:1; stop-color:#E3E5EC"/>
   <stop offset="1" style="stop-opacity:1; stop-color:white"/>
  </linearGradient>
  <radialGradient id="id11" gradientUnits="userSpaceOnUse" gradientTransform="matrix(-0.0345306 1.08365 -1.08367 -0.0345311 22617 3472)" cx="8748.23" cy="12519.3" r="4951.49" fx="8748.23" fy="12519.3">
   <stop offset="0" style="stop-opacity:1; stop-color:#FEFEFE"/>
   <stop offset="0.941176" style="stop-opacity:1; stop-color:#E5E5E5"/>
   <stop offset="1" style="stop-opacity:1; stop-color:#CCCDCD"/>
  </radialGradient>
 </defs>
 <g id="Layer_x0020_1">
  <metadata id="CorelCorpID_0Corel-Layer"/>
  <g id="_791614912">
   <g>
    <path class="fil0" d="M8557 16799l-825 169 -228 47 -154 31 -138 28 -66 14 -19 4 65 114 1371 2380 1255 2180c71,110 153,136 252,47l1696 -2069c45,-86 113,-148 233,-159l2628 -438c172,-11 213,-97 121,-261l-1592 -2809 -54 -94 -8 -14 -29 -51 -21 -38 -28 6 -227 46 -122 25 -77 16 -4033 826z"/>
    <path class="fil1" d="M12657 16089l65 -37 -75 -129 -64 37 74 129zm-5164 942l-65 37 75 129 64 -37 -74 -129zm149 259l-65 37 74 129 65 -37 -74 -129zm148 258l-64 37 74 130 65 -38 -75 -129zm149 259l-65 37 75 129 64 -37 -74 -129zm149 258l-65 38 74 129 65 -37 -74 -130zm148 259l-64 37 74 129 64 -37 -74 -129zm149 259l-65 37 74 129 65 -37 -74 -129zm148 258l-64 37 74 130 65 -37 -75 -130zm149 259l-65 37 75 129 64 -37 -74 -129zm149 258l-65 38 74 129 65 -37 -74 -130zm148 259l-64 37 74 129 65 -37 -75 -129zm149 259l-65 37 75 129 64 -37 -74 -129zm149 258l-65 37 74 130 65 -37 -74 -130zm148 259l-65 37 75 129 64 -37 -74 -129zm149 258l-65 38 74 129 65 -37 -74 -130zm148 259l-64 37 74 129 65 -37 -75 -129zm149 258l-65 38 74 129 65 -37 -74 -130zm91 217l57 48 95 -115 -57 -48 -95 115zm191 -229l57 48 96 -115 -58 -48 -95 115zm191 -229l57 48 96 -115 -57 -48 -96 115zm191 -229l57 48 96 -115 -57 -47 -96 114zm191 -229l57 48 96 -115 -57 -47 -96 114zm191 -229l58 48 95 -115 -57 -47 -96 114zm192 -229l57 48 95 -114 -57 -48 -95 114zm191 -229l57 48 95 -114 -57 -48 -95 114zm191 -229l57 48 96 -114 -58 -48 -95 114zm191 -229l11 10 27 47 142 -23 -12 -73 -156 25 -12 14zm315 -63l12 74 147 -24 -11 -74 -148 24zm295 -47l12 73 147 -23 -12 -74 -147 24zm294 -47l12 73 147 -23 -11 -74 -148 24zm295 -47l12 73 147 -23 -12 -74 -147 24zm294 -48l12 74 148 -24 -12 -73 -148 23zm295 -47l12 74 147 -24 -12 -73 -147 23zm294 -47l12 74 147 -24 -11 -74 -148 24zm295 -47l12 74 147 -24 -12 -74 -147 24zm243 -3l65 -38 -75 -129 -64 38 74 129zm-149 -258l64 -38 -75 -129 -64 38 75 129zm-150 -259l65 -37 -75 -129 -65 37 75 129zm-149 -258l64 -37 -75 -129 -64 37 75 129zm-150 -258l65 -37 -75 -129 -65 37 75 129zm-149 -258l64 -37 -75 -129 -64 37 75 129zm-150 -258l65 -37 -75 -129 -65 37 75 129zm-150 -258l65 -37 -75 -129 -64 37 74 129zm-149 -258l64 -37 -74 -129 -65 37 75 129zm-150 -258l65 -37 -75 -129 -64 37 74 129zm-149 -258l64 -37 -74 -129 -65 37 75 129z"/>
    <path class="fil2" d="M4080 15882c-568,1002 -1136,2004 -1704,3007 -92,163 -51,250 121,261 876,146 1752,292 2628,438 120,11 188,73 233,158 566,690 1131,1379 1696,2069 99,89 181,63 252,-47 897,-1558 1794,-3116 2691,-4674 -1972,-404 -3944,-808 -5917,-1212z"/>
    <path class="fil1" d="M4447 16051l-65 -37 75 -129 65 37 -75 129zm5164 942l65 37 -75 129 -64 -37 74 -129zm-149 258l65 37 -74 130 -65 -37 74 -130zm-148 259l64 37 -74 129 -65 -37 75 -129zm-149 259l65 37 -75 129 -64 -37 74 -129zm-149 258l65 37 -74 130 -65 -38 74 -129zm-148 259l65 37 -75 129 -64 -37 74 -129zm-149 258l65 37 -74 130 -65 -37 74 -130zm-148 259l64 37 -74 129 -65 -37 75 -129zm-149 259l65 37 -75 129 -64 -37 74 -129zm-149 258l65 37 -74 130 -65 -38 74 -129zm-148 259l64 37 -74 129 -65 -37 75 -129zm-149 258l65 37 -74 130 -65 -37 74 -130zm-148 259l64 37 -74 129 -65 -37 75 -129zm-149 259l65 37 -75 129 -64 -37 74 -129zm-149 258l65 37 -74 130 -65 -38 74 -129zm-148 259l64 37 -74 129 -65 -37 75 -129zm-149 258l65 37 -74 130 -65 -38 74 -129zm-91 217l-57 47 -95 -114 57 -48 95 115zm-191 -229l-57 47 -96 -114 58 -48 95 115zm-191 -229l-57 47 -96 -114 57 -48 96 115zm-191 -229l-57 48 -96 -115 57 -48 96 115zm-191 -229l-57 48 -96 -115 57 -48 96 115zm-191 -229l-58 48 -95 -115 57 -48 96 115zm-192 -229l-57 48 -95 -115 57 -48 95 115zm-191 -229l-57 48 -95 -115 57 -47 95 114zm-191 -229l-57 48 -96 -115 58 -47 95 114zm-191 -229l-11 9 -27 48 -142 -23 12 -74 156 25 12 15zm-315 -63l-12 73 -147 -23 11 -74 148 24zm-295 -47l-12 73 -147 -23 12 -74 147 24zm-294 -48l-12 74 -147 -24 11 -73 148 23zm-295 -47l-12 74 -147 -24 12 -73 147 23zm-294 -47l-12 74 -147 -24 11 -74 148 24zm-295 -47l-12 74 -147 -24 12 -74 147 24zm-294 -47l-12 73 -147 -23 11 -74 148 24zm-295 -47l-12 73 -147 -23 12 -74 147 24zm-243 -4l-65 -37 75 -129 64 37 -74 129zm149 -258l-64 -37 75 -129 64 37 -75 129zm150 -258l-65 -37 75 -129 65 37 -75 129zm149 -258l-64 -37 75 -129 64 37 -75 129zm150 -258l-65 -37 75 -129 65 37 -75 129zm149 -258l-64 -37 75 -129 64 37 -75 129zm150 -258l-64 -37 74 -129 65 37 -75 129zm150 -258l-65 -37 75 -129 64 37 -74 129zm149 -258l-64 -37 74 -129 65 37 -75 129zm150 -258l-65 -37 75 -129 64 37 -74 129zm149 -258l-64 -37 74 -129 65 37 -75 129z"/>
   </g>
   <circle class="fil3" cx="8665" cy="8598" r="8598"/>
   <path class="fil4" d="M8665 0c4786,0 8665,3880 8665,8665 0,4786 -3879,8665 -8665,8665 -4785,0 -8665,-3879 -8665,-8665 0,-4785 3880,-8665 8665,-8665zm0 2363c3481,0 6302,2822 6302,6302 0,3481 -2821,6302 -6302,6302 -3480,0 -6302,-2821 -6302,-6302 0,-3480 2822,-6302 6302,-6302z"/>
   <path class="fil5" d="M1499 10114c-47,-238 -83,-477 -107,-718 -23,-241 -35,-484 -35,-726 0,-243 12,-485 35,-727 24,-241 60,-480 107,-717 8,-39 -17,-77 -56,-85 -39,-7 -77,18 -84,57 -48,241 -85,486 -109,731 -24,246 -36,493 -36,741 0,247 12,494 36,740 24,245 61,490 109,732 7,39 45,64 84,56 39,-8 64,-46 56,-84z"/>
   <path class="fil6" d="M8665 108c2363,0 4502,958 6051,2506 1548,1549 2506,3688 2506,6051 0,2363 -958,4502 -2506,6051 -1549,1548 -3688,2506 -6051,2506 -2363,0 -4502,-958 -6051,-2506 -1548,-1549 -2506,-3688 -2506,-6051 0,-2363 958,-4502 2506,-6051 1549,-1548 3688,-2506 6051,-2506zm5998 2559c-1535,-1535 -3656,-2484 -5998,-2484 -2342,0 -4463,949 -5998,2484 -1535,1535 -2484,3656 -2484,5998 0,2342 949,4463 2484,5998 1535,1535 3656,2485 5998,2485 2342,0 4463,-950 5998,-2485 1535,-1535 2485,-3656 2485,-5998 0,-2342 -950,-4463 -2485,-5998z"/>
   <path class="fil6" d="M8665 236c2328,0 4435,944 5960,2469 1526,1525 2469,3633 2469,5960 0,2328 -943,4435 -2469,5960 -1525,1526 -3632,2469 -5960,2469 -2327,0 -4435,-943 -5960,-2469 -1525,-1525 -2469,-3632 -2469,-5960 0,-2327 944,-4435 2469,-5960 1525,-1525 3633,-2469 5960,-2469zm5907 2522c-1511,-1512 -3600,-2447 -5907,-2447 -2307,0 -4395,935 -5907,2447 -1512,1512 -2447,3600 -2447,5907 0,2307 935,4396 2447,5907 1512,1512 3600,2447 5907,2447 2307,0 4396,-935 5907,-2447 1512,-1511 2447,-3600 2447,-5907 0,-2307 -935,-4395 -2447,-5907z"/>
   <path class="fil5" d="M15932 7226c48,237 84,477 107,717 24,242 36,484 36,727 0,242 -12,485 -36,726 -23,241 -59,480 -107,718 -7,39 18,76 57,84 39,8 76,-17 84,-56 48,-242 84,-487 108,-732 25,-246 37,-493 37,-740 0,-247 -12,-495 -37,-741 -24,-245 -60,-489 -108,-731 -8,-39 -45,-64 -84,-57 -39,8 -64,46 -57,85z"/>
   <path class="fil7" d="M1453 10109c-47,-237 -83,-477 -107,-718 -23,-241 -35,-483 -35,-726 0,-242 12,-485 35,-726 24,-241 60,-481 107,-718 8,-39 -17,-77 -56,-84 -39,-8 -77,17 -84,56 -49,242 -84,486 -109,732 -24,246 -36,493 -36,740 0,247 12,494 36,740 25,246 60,490 109,732 7,39 45,64 84,57 39,-8 64,-46 56,-85z"/>
   <path class="fil8" d="M15877 7221c47,237 83,477 107,718 24,241 35,484 35,726 0,243 -11,485 -35,726 -24,241 -60,481 -107,718 -8,39 18,77 56,85 39,7 77,-18 85,-57 48,-242 84,-486 108,-732 24,-246 37,-493 37,-740 0,-247 -13,-494 -37,-740 -24,-246 -60,-490 -108,-732 -8,-39 -46,-64 -85,-56 -38,7 -64,45 -56,84z"/>
   <circle class="fil9" cx="8665" cy="8665" r="6308"/>
   <path class="fil10" d="M13871 6630c-27,-70 -133,-53 -133,26 0,9 1,16 4,24 17,42 33,85 48,127 31,81 151,46 132,-40l-2 -7c-16,-44 -32,-87 -49,-130zm-10266 7c11,-30 2,-63 -25,-81 -38,-26 -85,-11 -103,30 -18,44 -34,87 -51,131 -27,70 67,129 120,66 4,-6 7,-12 10,-19 15,-42 32,-84 49,-127zm-214 646c20,-73 -82,-123 -126,-52 -4,6 -6,11 -8,18 -11,45 -23,90 -33,135 -19,84 104,122 133,35 12,-45 22,-91 34,-136zm-132 668c11,-83 -112,-112 -135,-25l-1 7c-7,46 -12,92 -17,138 -2,26 8,50 29,64 42,31 104,2 108,-49 5,-45 10,-90 16,-135zm-47 678c0,-73 -99,-97 -132,-28 -3,10 -5,18 -5,28 -1,46 0,93 0,139 4,88 130,91 138,3 1,-46 -1,-95 -1,-142zm39 679c-11,-84 -137,-79 -137,11 3,47 12,98 18,144 2,15 11,31 22,41 49,43 123,4 115,-61 -7,-45 -13,-90 -18,-135zm123 669c-24,-85 -151,-57 -135,31 11,46 24,93 36,138 21,77 139,62 136,-23 -1,-5 -1,-9 -3,-14 -12,-44 -23,-88 -34,-132zm205 649c-26,-68 -130,-53 -134,23 0,10 2,18 5,27 17,44 34,87 52,130 14,32 49,49 82,39 40,-10 61,-55 45,-92 -17,-42 -34,-85 -50,-127zm283 619c-40,-74 -152,-25 -126,55 2,3 3,7 5,10 22,41 45,82 67,122 35,64 140,34 128,-46 -1,-8 -4,-15 -8,-22 -22,-33 -47,-83 -66,-119zm358 578c-41,-60 -141,-19 -123,57 3,9 6,15 11,23 27,38 54,76 82,113 51,65 152,4 118,-71 -2,-4 -4,-8 -7,-12 -28,-36 -54,-73 -81,-110zm428 529c-55,-57 -148,6 -112,79 3,6 6,10 10,15 32,34 64,68 96,101 58,58 153,-13 106,-87 -2,-3 -4,-6 -7,-9 -32,-32 -63,-66 -93,-99zm490 472c-45,-40 -119,-3 -113,58 1,18 11,35 24,47 36,30 72,60 108,89 33,26 79,18 102,-17 18,-29 11,-70 -16,-91 -35,-28 -70,-57 -105,-86zm546 406c-30,-19 -67,-13 -90,13 -27,31 -20,81 15,103 39,25 78,50 118,74 63,40 140,-40 87,-104 -4,-5 -9,-9 -15,-13 -39,-24 -77,-48 -115,-73zm592 335c-73,-35 -137,63 -73,116 4,3 8,6 13,8 42,21 84,40 126,60 77,33 135,-71 68,-120 -4,-2 -7,-4 -11,-6 -42,-19 -83,-38 -123,-58zm629 260c-80,-25 -129,83 -56,126 4,1 7,3 11,4 44,15 88,30 133,44 76,24 127,-84 54,-126 -4,-2 -9,-4 -13,-6 -43,-13 -86,-27 -129,-42zm656 180c-71,-16 -118,81 -51,126 8,5 14,7 23,9 45,9 91,18 137,26 80,15 116,-100 36,-132 -4,-1 -8,-2 -12,-3 -44,-8 -89,-17 -133,-26zm673 96c-79,-7 -106,108 -25,135 5,1 9,2 14,3 47,3 93,6 140,9 77,3 102,-104 27,-134 -7,-2 -13,-4 -21,-4 -45,-2 -90,-6 -135,-9zm680 11c-77,3 -91,114 -15,135 8,2 14,3 22,3 46,-2 93,-5 139,-8 84,-8 86,-130 -1,-138 -3,0 -6,0 -9,0 -45,3 -91,6 -136,8zm676 -74c-79,15 -74,133 11,137 5,0 9,0 13,-1 46,-8 92,-16 137,-26 88,-19 65,-147 -24,-135 -46,8 -91,17 -137,25zm662 -157c-82,26 -53,149 34,133 46,-12 95,-29 140,-44 69,-22 60,-130 -21,-134 -9,0 -15,1 -23,3 -43,15 -87,29 -130,42zm637 -239c-69,30 -45,139 37,132 7,-1 13,-3 20,-6 42,-19 84,-38 126,-58 16,-8 28,-20 35,-36 23,-59 -37,-116 -94,-89 -41,20 -82,39 -124,57zm603 -315c-70,44 -19,150 59,124 5,-2 8,-4 13,-6 40,-24 79,-49 118,-74 62,-39 27,-137 -48,-126 -10,2 -17,4 -26,10 -39,24 -77,49 -116,72zm559 -388c-59,46 -9,145 67,119 7,-3 13,-6 19,-11 36,-29 73,-58 108,-88 21,-18 30,-45 22,-71 -13,-49 -72,-67 -110,-35 -35,30 -71,58 -106,86zm506 -454c-55,55 13,148 85,107 5,-3 9,-7 14,-11 32,-33 64,-67 96,-101 56,-63 -24,-151 -92,-102 -3,3 -6,5 -9,8 -31,33 -62,66 -94,99zm445 -515c-45,58 24,141 93,100 7,-5 12,-10 17,-17 28,-37 56,-74 83,-112 48,-69 -43,-146 -104,-90 -3,3 -6,7 -8,10 -27,37 -54,73 -81,109zm377 -566c-42,77 65,145 117,74 25,-40 48,-85 71,-127 39,-70 -57,-141 -113,-77 -3,4 -6,7 -8,11 -22,40 -44,79 -67,119zm304 -609c-30,72 65,134 118,70 4,-6 7,-10 9,-16 18,-43 35,-86 53,-129 29,-76 -73,-131 -120,-65 -3,5 -6,9 -8,14 -18,40 -34,85 -52,126zm227 -641c-9,30 3,61 30,77 38,24 90,4 102,-40 13,-45 25,-90 37,-135 18,-67 -70,-118 -121,-60 -6,9 -10,16 -13,27 -11,43 -23,87 -35,131zm144 -665c-10,74 85,109 126,48 5,-9 9,-17 10,-27 7,-46 14,-92 20,-139 10,-76 -99,-110 -132,-35 -3,6 -4,12 -5,18 -6,45 -12,90 -19,135zm61 -677c-3,72 99,99 131,31 4,-10 6,-17 7,-28 1,-47 1,-93 2,-140 0,-71 -96,-96 -131,-30 -5,10 -7,19 -7,30 0,46 -1,91 -2,137zm-25 -680c7,77 122,86 137,3 1,-6 1,-11 1,-17 -4,-46 -10,-93 -16,-139 -10,-82 -133,-79 -137,8 0,3 0,6 0,9 6,45 11,91 15,136zm-108 -672c18,81 143,66 135,-24l-1 -7c-10,-45 -21,-90 -32,-135 -24,-86 -151,-57 -135,30 11,46 23,91 33,136z"/>
   <path class="fil11" d="M8665 2339c1747,0 3329,708 4474,1853 1145,1144 1853,2726 1853,4473 0,1747 -708,3329 -1853,4474 -1145,1145 -2727,1853 -4474,1853 -1747,0 -3329,-708 -4473,-1853 -1145,-1145 -1853,-2727 -1853,-4474 0,-1747 708,-3329 1853,-4473 1144,-1145 2726,-1853 4473,-1853zm0 74c3453,0 6252,2799 6252,6252 0,3453 -2799,6252 -6252,6252 -3453,0 -6252,-2799 -6252,-6252 0,-3453 2799,-6252 6252,-6252z"/>
   <circle class="fil12" cx="8665" cy="8665" r="4868"/>
   <path class="fil13" d="M8665 2337c3490,0 6319,2825 6319,6308 0,27 0,53 -1,79 -42,-3448 -2854,-6230 -6318,-6230 -3464,0 -6276,2782 -6318,6230 0,-26 -1,-52 -1,-79 0,-3483 2829,-6308 6319,-6308z"/>
   <path class="fil3" d="M8682 3389c2914,0 5276,2362 5276,5276 0,2914 -2362,5276 -5276,5276 -2914,0 -5276,-2362 -5276,-5276 0,-2914 2362,-5276 5276,-5276z"/>
   <path class="fil14" d="M8665 3803c1343,0 2558,544 3438,1424 880,880 1424,2096 1424,3438 0,1343 -544,2558 -1424,3438 -880,880 -2095,1424 -3438,1424 -1342,0 -2558,-544 -3438,-1424 -880,-880 -1424,-2095 -1424,-3438 0,-1342 544,-2558 1424,-3438 880,-880 2096,-1424 3438,-1424zm0 75c2644,0 4788,2143 4788,4787 0,2644 -2144,4788 -4788,4788 -2644,0 -4787,-2144 -4787,-4788 0,-2644 2143,-4787 4787,-4787z"/>
  </g>
  <circle class="fil3" cx="8665" cy="8665" r="6839"/>
  <path class="fil3" d="M15505 8665c0,3778 -3062,6840 -6840,6840 -3777,0 -6839,-3062 -6839,-6840"/>
  <path class="fil15" d="M5301 1997l385 754c-9,8 -21,18 -34,28 -13,11 -29,21 -48,31 -46,23 -81,32 -105,26 -24,-7 -45,-26 -62,-59l-123 -241 -226 115c10,43 6,83 -11,119 -17,37 -48,66 -93,89 -54,28 -101,36 -141,23 -39,-12 -68,-36 -87,-72 -14,-28 -21,-63 -19,-103l36 -18c21,-11 34,-25 39,-43 6,-18 3,-39 -9,-63l-109 -211c-9,-18 -20,-28 -33,-31 -13,-3 -27,-1 -40,6 -14,7 -23,16 -28,27 -5,11 -5,23 0,37 -9,8 -18,15 -27,19 -30,15 -58,20 -83,12 -26,-7 -46,-25 -60,-53 -11,-22 -16,-43 -16,-65 1,-22 7,-43 17,-63 11,-20 26,-39 45,-56 20,-17 42,-33 69,-46 79,-40 148,-54 208,-41 60,13 107,52 141,119l127 248 217 -111 -138 -271 -84 44c-23,11 -42,12 -57,4 -16,-9 -30,-26 -44,-53 -5,-10 -10,-24 -15,-39 -5,-16 -8,-30 -9,-40l433 -221c39,-21 72,-6 98,45 6,11 11,25 16,42 5,17 8,31 8,41l-138 71zm417 -213l386 753c-10,9 -21,18 -34,29 -13,10 -29,20 -49,30 -46,24 -80,32 -104,26 -24,-6 -45,-26 -62,-59l-344 -673 -95 48c-22,12 -41,13 -57,5 -15,-9 -30,-27 -43,-53 -6,-11 -11,-24 -16,-40 -5,-16 -8,-29 -8,-40l442 -226c40,-20 73,-5 99,45 5,11 11,25 16,42 5,17 7,31 7,43l-138 70zm1081 -348l232 814c-10,6 -22,13 -37,20 -15,8 -33,15 -54,21 -49,14 -85,16 -108,5 -22,-11 -38,-34 -48,-70l-59 -205c-22,22 -48,42 -77,59 -29,17 -62,30 -99,41 -103,29 -192,24 -268,-17 -75,-41 -128,-117 -160,-228l-65 -229 -77 22c-25,7 -43,5 -57,-7 -13,-11 -24,-31 -32,-60 -4,-11 -6,-25 -8,-42 -2,-16 -2,-30 -1,-41l972 -276c43,-12 73,9 88,64 4,11 6,26 9,43 2,18 2,32 -1,43l-150 43zm-250 492c27,-8 51,-19 73,-35 22,-16 38,-33 47,-50l-356 -144 29 102c18,63 44,104 77,122 34,19 77,20 130,5zm89 -213l-61 -216 -281 80 342 136zm614 -408l231 814c-10,6 -23,14 -38,21 -15,8 -33,15 -54,21 -49,14 -85,15 -107,5 -23,-11 -39,-34 -49,-70l-207 -727 -103 29c-24,7 -43,4 -56,-7 -14,-12 -25,-32 -33,-60 -3,-11 -6,-26 -7,-42 -2,-17 -2,-30 -1,-41l478 -136c43,-12 73,9 88,64 3,11 6,26 8,44 1,17 1,32 -2,43l-148 42zm1716 -113l22 846c-11,4 -25,7 -41,11 -17,4 -37,6 -58,7 -51,1 -85,-6 -104,-22 -19,-16 -29,-43 -30,-80l-8 -282c-17,4 -35,7 -54,10 -18,2 -37,4 -57,4 -38,1 -80,-3 -127,-12 -46,-9 -87,-25 -122,-47 -20,13 -41,24 -63,32 -23,9 -48,15 -74,19 36,58 81,106 135,145 55,40 109,70 162,91 1,41 -10,77 -34,108 -24,31 -61,47 -111,48 -33,1 -67,-7 -100,-22 -34,-16 -66,-39 -97,-71 -31,-32 -60,-72 -87,-119 -27,-48 -50,-103 -68,-164 -35,-4 -60,-15 -74,-34 -15,-19 -23,-42 -23,-71 -1,-18 2,-36 8,-53 6,-17 14,-32 25,-44 14,3 32,5 54,6 21,1 43,1 64,1 60,-2 105,-17 133,-45 28,-28 42,-64 41,-108 -1,-25 -5,-49 -14,-71 -8,-22 -18,-43 -31,-64l-321 9c-25,0 -43,-7 -53,-21 -11,-15 -16,-37 -17,-66 0,-12 1,-26 3,-43 2,-16 6,-30 10,-39l1211 -32c45,-1 68,26 70,83 0,12 -1,27 -4,45 -3,17 -6,31 -10,41l-156 4zm-373 308c56,-1 106,-13 149,-35l-7 -267 -267 7c12,25 23,51 33,80 9,28 14,59 15,93 1,39 -5,78 -20,115 31,6 63,8 97,7zm1526 -174l-106 840c-12,1 -27,3 -43,4 -17,1 -36,1 -58,-2 -51,-7 -85,-19 -101,-38 -16,-18 -22,-46 -18,-83l34 -269 -273 -34c-34,89 -100,128 -200,115 -61,-7 -104,-27 -130,-60 -25,-32 -36,-69 -30,-109 4,-35 18,-66 41,-95l39 5c23,2 42,-2 57,-15 15,-12 24,-31 27,-56l37 -294 -169 -22c-25,-3 -42,-12 -50,-28 -8,-16 -10,-39 -6,-68 1,-12 5,-26 9,-42 5,-16 10,-28 16,-38l1048 133c44,5 63,36 56,93 -1,12 -5,26 -10,43 -5,17 -10,30 -17,39l-153 -19zm-531 239l262 33 38 -301 -262 -33 -38 301zm1762 126l-273 802c-12,-1 -26,-2 -43,-4 -17,-3 -36,-8 -57,-15 -47,-16 -77,-35 -90,-56 -13,-22 -14,-51 -2,-86l37 -108c-35,6 -74,7 -116,4 -42,-3 -88,-13 -137,-30 -89,-30 -160,-74 -214,-132 -53,-57 -87,-121 -101,-192 -7,-31 -11,-63 -11,-95 0,-33 5,-61 13,-84 5,-15 12,-26 23,-32 10,-7 26,-8 47,-3 46,9 88,15 128,18 39,2 75,1 106,-5 32,-6 58,-18 80,-34 22,-16 37,-38 47,-66 9,-27 9,-50 1,-68 -9,-19 -23,-32 -43,-38 -21,-7 -39,-7 -56,2 -17,9 -29,25 -38,49 -5,14 -7,27 -7,38 -1,11 0,21 2,29 -13,9 -30,13 -51,13 -21,1 -44,-3 -67,-11 -17,-6 -32,-14 -45,-24 -13,-10 -24,-23 -32,-38 -9,-15 -13,-32 -14,-52 -1,-20 3,-42 11,-66 10,-28 25,-53 46,-74 22,-22 47,-38 78,-49 30,-11 65,-17 105,-16 40,0 82,8 128,23 46,16 86,37 117,63 32,25 56,54 72,86 16,33 25,67 26,104 2,37 -4,74 -17,113 -15,42 -36,77 -64,104 -29,28 -62,49 -99,64 -38,16 -80,25 -125,28 -46,3 -92,1 -139,-6 4,36 21,71 51,105 31,35 74,61 130,80 44,15 86,21 126,19 41,-2 77,-11 107,-26l173 -510c6,-17 17,-30 31,-38 14,-8 29,-9 46,-3l264 90c42,14 54,48 36,102 -4,12 -10,25 -19,41 -9,15 -17,27 -24,35l-147 -51zm-163 -225c-21,-37 -33,-78 -36,-123 -3,-45 2,-87 16,-128 12,-35 29,-65 50,-90 22,-25 48,-44 78,-57 30,-13 62,-20 97,-21 35,0 72,6 111,19 64,22 103,47 119,77 16,30 19,60 8,91 -11,31 -27,52 -48,64 -10,-8 -20,-15 -31,-21 -10,-6 -23,-12 -37,-17 -32,-11 -64,-9 -94,4 -30,14 -51,40 -65,79 -11,33 -14,64 -9,96 5,32 13,62 24,90l-183 -63zm1105 664l-72 142c28,-3 58,-1 90,5 32,6 66,19 103,38 38,19 71,44 98,74 27,30 47,63 59,99 13,37 18,76 15,118 -3,42 -16,86 -39,130 -22,44 -49,80 -81,107 -31,26 -65,45 -100,56 -35,11 -71,15 -107,11 -37,-4 -72,-15 -105,-32 -86,-43 -112,-98 -78,-164 7,-14 16,-26 25,-35 10,-10 21,-18 31,-25 12,9 25,18 41,26 29,15 59,18 89,10 30,-7 55,-30 74,-67 17,-34 20,-66 8,-98 -11,-31 -36,-56 -73,-75 -24,-12 -48,-19 -71,-19 -23,-1 -44,2 -65,9l-227 444c-11,-2 -25,-6 -41,-10 -17,-5 -35,-13 -55,-22 -44,-23 -72,-46 -81,-70 -10,-23 -6,-51 11,-84l38 -75c-28,3 -59,1 -92,-5 -33,-7 -68,-19 -105,-38 -37,-19 -69,-43 -97,-73 -27,-29 -48,-62 -61,-99 -14,-37 -20,-77 -17,-120 2,-43 15,-88 39,-135 22,-44 49,-79 81,-105 32,-26 65,-44 101,-55 35,-10 71,-13 108,-8 38,4 73,14 107,32 48,24 78,51 91,81 13,30 12,61 -4,92 -15,28 -34,48 -59,60 -5,-5 -11,-11 -18,-16 -6,-6 -16,-12 -30,-19 -31,-16 -62,-20 -93,-13 -31,8 -55,30 -74,66 -17,34 -20,67 -8,99 12,32 37,57 74,76 27,14 53,21 77,22 24,1 46,-3 66,-10l220 -431 -500 -255c-23,-11 -35,-26 -37,-44 -2,-17 4,-39 17,-65 6,-11 13,-23 23,-37 10,-13 19,-23 28,-30l1239 632c39,20 45,56 19,106 -5,11 -13,24 -23,38 -11,14 -21,24 -30,31l-529 -270z"/>
  <path class="fil16" d="M5301 1938l385 754c-9,8 -21,18 -34,28 -13,10 -29,21 -48,30 -46,24 -81,32 -105,26 -24,-6 -45,-25 -62,-59l-123 -241 -226 116c10,43 6,83 -11,119 -17,36 -48,66 -93,89 -54,28 -101,36 -141,23 -39,-12 -68,-36 -87,-72 -14,-29 -21,-63 -19,-103l36 -19c21,-10 34,-24 39,-42 6,-19 3,-39 -9,-63l-109 -211c-9,-18 -20,-28 -33,-31 -13,-3 -27,-1 -40,6 -14,6 -23,15 -28,27 -5,11 -5,23 0,37 -9,8 -18,14 -27,19 -30,15 -58,19 -83,12 -26,-7 -46,-25 -60,-53 -11,-22 -16,-43 -16,-65 1,-22 7,-43 17,-63 11,-20 26,-39 45,-56 20,-17 42,-33 69,-46 79,-41 148,-54 208,-41 60,13 107,52 141,118l127 249 217 -112 -138 -270 -84 43c-23,12 -42,13 -57,5 -16,-9 -30,-27 -44,-53 -5,-11 -10,-24 -15,-40 -5,-16 -8,-29 -9,-40l433 -221c39,-20 72,-5 98,46 6,10 11,24 16,41 5,18 8,31 8,42l-138 71zm417 -213l386 753c-10,9 -21,18 -34,28 -13,11 -29,21 -49,31 -46,23 -80,32 -104,26 -24,-6 -45,-26 -62,-59l-344 -673 -95 48c-22,12 -41,13 -57,4 -15,-8 -30,-26 -43,-52 -6,-11 -11,-24 -16,-40 -5,-16 -8,-29 -8,-40l442 -226c40,-20 73,-5 99,45 5,11 11,25 16,42 5,17 7,31 7,42l-138 71zm1081 -348l232 814c-10,6 -22,13 -37,20 -15,8 -33,15 -54,21 -49,14 -85,16 -108,5 -22,-11 -38,-34 -48,-70l-59 -205c-22,22 -48,42 -77,59 -29,17 -62,30 -99,41 -103,29 -192,23 -268,-17 -75,-41 -128,-117 -160,-228l-65 -229 -77 22c-25,7 -43,5 -57,-7 -13,-11 -24,-31 -32,-60 -4,-11 -6,-25 -8,-42 -2,-16 -2,-30 -1,-41l972 -276c43,-13 73,9 88,63 4,12 6,27 9,44 2,18 2,32 -1,43l-150 43zm-250 492c27,-8 51,-20 73,-35 22,-16 38,-33 47,-50l-356 -145 29 103c18,63 44,104 77,122 34,18 77,20 130,5zm89 -213l-61 -216 -281 80 342 136zm614 -408l231 814c-10,6 -23,13 -38,21 -15,8 -33,14 -54,20 -49,14 -85,16 -107,5 -23,-10 -39,-33 -49,-69l-207 -728 -103 30c-24,7 -43,4 -56,-7 -14,-12 -25,-32 -33,-60 -3,-12 -6,-26 -7,-42 -2,-17 -2,-30 -1,-41l478 -136c43,-12 73,9 88,64 3,11 6,26 8,44 1,17 1,32 -2,43l-148 42zm1716 -113l22 846c-11,4 -25,7 -41,11 -17,4 -37,6 -58,6 -51,2 -85,-6 -104,-22 -19,-15 -29,-42 -30,-79l-8 -282c-17,4 -35,7 -54,9 -18,3 -37,5 -57,5 -38,1 -80,-3 -127,-12 -46,-9 -87,-25 -122,-47 -20,13 -41,23 -63,32 -23,9 -48,15 -74,19 36,57 81,106 135,145 55,40 109,70 162,90 1,42 -10,78 -34,109 -24,30 -61,46 -111,48 -33,1 -67,-7 -100,-22 -34,-16 -66,-40 -97,-72 -31,-32 -60,-71 -87,-119 -27,-47 -50,-102 -68,-164 -35,-3 -60,-14 -74,-33 -15,-19 -23,-42 -23,-71 -1,-18 2,-36 8,-53 6,-17 14,-32 25,-44 14,2 32,4 54,6 21,1 43,1 64,0 60,-1 105,-16 133,-44 28,-28 42,-64 41,-108 -1,-25 -5,-49 -14,-71 -8,-22 -18,-43 -31,-64l-321 9c-25,0 -43,-7 -53,-21 -11,-15 -16,-37 -17,-66 0,-12 1,-27 3,-43 2,-17 6,-30 10,-40l1211 -31c45,-2 68,26 70,83 0,12 -1,27 -4,45 -3,17 -6,31 -10,41l-156 4zm-373 308c56,-1 106,-13 149,-35l-7 -267 -267 7c12,25 23,51 33,79 9,29 14,60 15,94 1,39 -5,77 -20,115 31,6 63,8 97,7zm1526 -174l-106 839c-12,2 -27,4 -43,5 -17,1 -36,0 -58,-2 -51,-7 -85,-19 -101,-38 -16,-19 -22,-46 -18,-83l34 -269 -273 -34c-34,89 -100,128 -200,115 -61,-8 -104,-28 -130,-60 -25,-33 -36,-69 -30,-109 4,-35 18,-67 41,-96l39 5c23,3 42,-2 57,-14 15,-12 24,-31 27,-56l37 -295 -169 -21c-25,-3 -42,-13 -50,-29 -8,-15 -10,-38 -6,-67 1,-12 5,-26 9,-42 5,-16 10,-29 16,-38l1048 132c44,6 63,37 56,93 -1,12 -5,27 -10,44 -5,17 -10,30 -17,39l-153 -19zm-531 239l262 33 38 -301 -262 -33 -38 301zm1762 126l-273 802c-12,-1 -26,-2 -43,-5 -17,-2 -36,-7 -57,-14 -47,-16 -77,-35 -90,-57 -13,-21 -14,-50 -2,-85l37 -109c-35,7 -74,8 -116,5 -42,-4 -88,-13 -137,-30 -89,-30 -160,-74 -214,-132 -53,-57 -87,-122 -101,-192 -7,-31 -11,-63 -11,-95 0,-33 5,-61 13,-85 5,-14 12,-25 23,-32 10,-7 26,-7 47,-2 46,9 88,15 128,18 39,2 75,0 106,-6 32,-6 58,-17 80,-33 22,-16 37,-38 47,-66 9,-27 9,-50 1,-69 -9,-18 -23,-31 -43,-37 -21,-8 -39,-7 -56,2 -17,9 -29,25 -38,49 -5,14 -7,27 -7,38 -1,11 0,21 2,29 -13,8 -30,13 -51,13 -21,0 -44,-3 -67,-11 -17,-6 -32,-14 -45,-24 -13,-11 -24,-23 -32,-38 -9,-15 -13,-33 -14,-52 -1,-20 3,-42 11,-66 10,-28 25,-53 46,-74 22,-22 47,-38 78,-49 30,-11 65,-17 105,-17 40,1 82,9 128,24 46,16 86,37 117,62 32,26 56,55 72,87 16,32 25,67 26,104 2,37 -4,74 -17,112 -15,43 -36,78 -64,105 -29,27 -62,49 -99,64 -38,16 -80,25 -125,28 -46,3 -92,1 -139,-6 4,36 21,71 51,105 31,34 74,61 130,80 44,15 86,21 126,19 41,-3 77,-11 107,-26l173 -510c6,-17 17,-30 31,-38 14,-8 29,-9 46,-3l264 90c42,14 54,48 36,102 -4,11 -10,25 -19,40 -9,16 -17,28 -24,36l-147 -51zm-163 -225c-21,-37 -33,-78 -36,-123 -3,-45 2,-88 16,-128 12,-35 29,-65 50,-90 22,-25 48,-44 78,-57 30,-13 62,-20 97,-21 35,-1 72,6 111,19 64,22 103,47 119,77 16,30 19,60 8,91 -11,31 -27,52 -48,63 -10,-8 -20,-14 -31,-20 -10,-6 -23,-12 -37,-17 -32,-11 -64,-9 -94,4 -30,13 -51,40 -65,79 -11,32 -14,64 -9,96 5,32 13,61 24,90l-183 -63zm1105 664l-72 141c28,-2 58,0 90,6 32,6 66,19 103,38 38,19 71,44 98,74 27,29 47,63 59,99 13,37 18,76 15,118 -3,42 -16,85 -39,130 -22,44 -49,79 -81,106 -31,27 -65,46 -100,57 -35,11 -71,15 -107,11 -37,-4 -72,-15 -105,-32 -86,-43 -112,-98 -78,-165 7,-13 16,-25 25,-35 10,-9 21,-18 31,-24 12,9 25,18 41,26 29,15 59,18 89,10 30,-8 55,-30 74,-67 17,-34 20,-67 8,-98 -11,-31 -36,-56 -73,-75 -24,-12 -48,-19 -71,-20 -23,0 -44,3 -65,9l-227 445c-11,-2 -25,-6 -41,-11 -17,-4 -35,-12 -55,-22 -44,-23 -72,-46 -81,-69 -10,-23 -6,-51 11,-85l38 -74c-28,3 -59,1 -92,-6 -33,-6 -68,-19 -105,-38 -37,-18 -69,-43 -97,-72 -27,-29 -48,-62 -61,-99 -14,-37 -20,-77 -17,-120 2,-43 15,-88 39,-135 22,-44 49,-79 81,-105 32,-26 65,-44 101,-55 35,-10 71,-13 108,-9 38,5 73,15 107,33 48,24 78,51 91,81 13,30 12,61 -4,92 -15,28 -34,48 -59,60 -5,-5 -11,-11 -18,-16 -6,-6 -16,-12 -30,-19 -31,-16 -62,-20 -93,-13 -31,8 -55,30 -74,66 -17,34 -20,67 -8,99 12,31 37,57 74,76 27,14 53,21 77,22 24,0 46,-3 66,-10l220 -431 -500 -255c-23,-12 -35,-26 -37,-44 -2,-17 4,-39 17,-66 6,-10 13,-22 23,-36 10,-13 19,-23 28,-30l1239 632c39,20 45,55 19,106 -5,11 -13,23 -23,38 -11,14 -21,24 -30,31l-529 -270z"/>
  <path class="fil3" d="M15217 8665c0,3619 -2933,6552 -6552,6552 -3618,0 -6551,-2933 -6551,-6552"/>
  <path class="fil3" d="M8665 3389c2914,0 5277,2362 5277,5276 0,2914 -2363,5276 -5277,5276 -2914,0 -5276,-2362 -5276,-5276 0,-2914 2362,-5276 5276,-5276z"/>
  <path class="fil17" d="M7683 3094l97 547c-6,2 -12,5 -20,8 -9,3 -18,6 -29,8 -26,4 -44,3 -55,-4 -12,-7 -19,-20 -23,-39l-33 -190 -182 33c-1,27 -9,50 -24,68 -15,19 -37,30 -66,35 -34,6 -60,3 -79,-11 -19,-13 -31,-31 -35,-53 -3,-18 -1,-37 6,-57l30 -6c13,-2 23,-8 29,-17 7,-9 8,-22 6,-37l-32 -176c-2,-14 -8,-23 -16,-28 -9,-5 -18,-6 -28,-5 -24,5 -36,18 -34,39 -7,4 -14,6 -20,7 -18,3 -33,1 -45,-6 -12,-7 -20,-19 -23,-37 -5,-28 3,-52 24,-71 20,-19 48,-32 82,-38 46,-8 86,-4 117,12 32,16 52,47 60,90l34 194 179 -31 -38 -214 -81 15c-25,4 -40,-9 -45,-40 -1,-6 -2,-14 -2,-23 0,-8 1,-16 2,-22l303 -53c25,-5 40,8 45,38 1,7 2,14 2,23 0,10 -1,17 -2,23l-104 18z"/>
  <path id="1" class="fil17" d="M7964 3045l97 546c-6,3 -13,5 -21,8 -8,4 -18,6 -29,8 -26,5 -44,4 -56,-3 -11,-7 -18,-20 -22,-39l-88 -499 -77 13c-14,3 -24,1 -31,-6 -7,-6 -12,-18 -14,-33 -1,-7 -2,-14 -2,-23 0,-9 0,-16 1,-22l300 -53c25,-4 40,9 45,39 1,6 2,14 2,23 -1,9 -1,17 -2,23l-103 18z"/>
  <path id="2" class="fil17" d="M8329 3015l16 554c-6,2 -14,4 -22,6 -8,2 -18,3 -30,3 -26,1 -44,-3 -54,-11 -11,-9 -16,-23 -16,-42l-15 -507 -78 3c-14,0 -24,-4 -30,-11 -6,-8 -9,-19 -9,-35 0,-7 0,-14 1,-23 1,-9 3,-16 5,-21l105 -3c-6,-10 -10,-22 -14,-37 -4,-15 -6,-30 -6,-46 -1,-29 4,-55 16,-80 10,-25 28,-46 50,-65 23,-18 52,-33 87,-43 35,-11 75,-17 121,-18 59,-2 114,3 164,16 51,12 95,27 133,45 37,18 67,37 88,56 21,19 32,35 33,48 0,16 -6,29 -19,38 -13,10 -30,15 -50,16 -19,-19 -41,-36 -66,-52 -25,-15 -53,-29 -82,-39 -30,-11 -61,-19 -93,-24 -32,-5 -65,-8 -98,-7 -54,2 -94,14 -121,36 -27,22 -39,50 -38,86 0,12 2,24 4,36 3,12 7,22 12,30l78 -2c25,-1 38,14 39,45 0,6 0,14 -2,23 -1,9 -3,16 -5,22l-104 3z"/>
  <path id="3" class="fil17" d="M8931 2999l16 554c-6,2 -13,4 -22,6 -8,2 -18,3 -29,3 -26,1 -44,-3 -55,-11 -11,-9 -16,-23 -17,-42l-4 -156c-17,11 -37,20 -59,26 -22,7 -46,11 -73,12 -64,2 -115,-15 -155,-49 -40,-35 -60,-89 -62,-161l-5 -169 -57 2c-14,0 -23,-3 -29,-11 -6,-7 -9,-19 -10,-35 0,-6 1,-14 2,-22 1,-9 3,-16 5,-22l626 -18c25,-1 38,14 39,45 0,6 0,14 -1,23 -2,9 -3,16 -6,22l-104 3zm-218 292c21,-1 40,-5 59,-12 18,-8 33,-17 44,-27l-228 -170 2 89c1,47 13,79 33,96 21,17 51,25 90,24zm102 -119l-5 -170 -218 7 223 163z"/>
  <path id="4" class="fil17" d="M9826 3127l-97 546c-6,1 -13,1 -22,1 -9,0 -19,0 -30,-2 -26,-5 -43,-12 -51,-23 -9,-10 -12,-25 -8,-44l89 -499 -126 -23c-4,38 -8,74 -12,107 -4,32 -10,66 -16,101 -6,33 -16,60 -30,82 -15,22 -33,39 -53,52 -21,12 -44,20 -71,24 -26,3 -54,2 -83,-3 -30,-5 -56,-14 -80,-26 -23,-12 -42,-27 -58,-46 -15,-18 -26,-41 -32,-67 -6,-26 -6,-56 0,-88 6,-35 13,-69 20,-101 7,-33 15,-67 24,-104l-62 -12c-14,-2 -23,-8 -27,-16 -4,-9 -5,-21 -2,-37 1,-6 3,-13 6,-21 3,-8 6,-15 9,-20l802 143c25,4 34,21 29,52 -1,6 -3,13 -6,22 -3,9 -6,15 -10,20l-103 -18zm-493 220c25,5 45,1 62,-11 17,-12 28,-32 33,-61l38 -212 -160 -29 -38 213c-5,29 -1,51 10,68 12,17 30,28 55,32z"/>
  <path id="5" class="fil17" d="M10107 3176l-98 546c-6,0 -13,1 -22,1 -9,0 -19,-1 -30,-3 -25,-4 -42,-12 -51,-22 -8,-10 -11,-25 -7,-44l89 -499 -77 -14c-14,-3 -23,-8 -27,-17 -4,-8 -5,-20 -2,-36 1,-6 3,-13 6,-22 3,-8 6,-15 9,-20l107 19 5 -31c10,-52 9,-92 -3,-119 -11,-27 -31,-43 -59,-47 -21,-4 -40,0 -58,11 -17,11 -28,31 -33,60l-5 29c-6,1 -11,2 -17,2 -11,2 -23,2 -36,-1 -19,-3 -35,-11 -47,-22 -13,-12 -17,-29 -12,-53 4,-23 12,-43 25,-61 13,-18 29,-32 49,-44 19,-11 42,-18 67,-22 26,-4 53,-3 82,3 65,11 112,40 143,88 30,47 38,112 23,196l-6 32 75 14c25,4 34,21 29,52 -1,6 -4,13 -7,22 -3,8 -6,15 -9,20l-103 -18z"/>
  <path class="fil10" d="M12239 2213c23,0 48,2 73,7 32,6 66,19 103,38 38,19 71,44 98,74 27,30 47,63 59,99 12,35 17,72 15,111 -1,-27 -6,-52 -15,-77 -12,-36 -32,-70 -59,-99 -27,-30 -60,-55 -98,-74 -37,-19 -71,-32 -103,-38 -32,-6 -62,-8 -90,-6l17 -35zm-175 513c-4,-21 0,-45 13,-70 7,-13 16,-25 25,-35 10,-9 21,-17 31,-24 12,9 25,18 41,26 29,15 59,18 89,10 30,-7 55,-30 74,-67 7,-14 12,-28 14,-42 4,24 -1,50 -14,76 -19,37 -44,59 -74,67 -30,8 -60,4 -89,-10 -16,-8 -29,-17 -41,-26 -10,6 -21,15 -31,24 -9,10 -18,22 -25,35 -6,13 -10,25 -13,36zm-336 -12c-4,-21 0,-45 15,-74l20 -39c6,0 12,-1 18,-1l-38 74c-7,14 -12,28 -15,40zm-319 -448c-1,-11 -1,-23 0,-35 2,-43 15,-88 39,-135 22,-44 49,-79 81,-105 32,-26 65,-44 101,-55 35,-10 71,-13 108,-9 37,5 73,15 107,33 48,24 78,51 91,81 8,19 11,39 7,58 -1,-8 -3,-16 -7,-24 -13,-30 -43,-57 -91,-81 -34,-18 -70,-29 -107,-33 -37,-4 -73,-1 -108,9 -36,10 -69,29 -101,55 -32,26 -59,61 -81,105 -24,47 -37,91 -39,134l0 2zm235 21c1,8 3,15 6,23 12,31 37,57 74,76 27,14 53,21 77,22 24,0 46,-3 66,-10l206 -404 14 7 -220 431c-20,7 -42,10 -66,10 -24,-1 -50,-8 -77,-22 -37,-19 -62,-45 -74,-77 -7,-18 -9,-37 -6,-56zm-92 -610c-1,-3 -1,-6 -2,-9 -2,-17 4,-39 17,-65 6,-11 13,-23 23,-37 10,-13 19,-23 28,-30l1239 632c29,15 40,39 33,71 -5,-15 -16,-28 -33,-37l-1239 -632c-9,7 -18,17 -28,30 -10,14 -17,26 -23,36 -7,15 -12,29 -15,41zm-6238 288l372 727 -12 10 -373 -730 13 -7zm-221 659c0,10 0,20 -1,30 0,-9 -2,-18 -4,-28l5 -2zm-355 58c-1,-11 -1,-22 -1,-34l37 -19c20,-10 33,-24 38,-42l1 -2c3,13 3,24 -1,35 -5,18 -18,33 -38,43l-36 19zm-146 -332l1 2 -1 1 0 -3zm-183 -65c-1,-7 -2,-14 -1,-20 0,-22 6,-43 16,-63 11,-20 26,-39 45,-56 20,-18 42,-33 69,-46 79,-41 148,-54 208,-41 60,12 107,52 141,118l127 249 204 -105 13 27 -217 111 -127 -248c-34,-66 -81,-106 -141,-119 -60,-13 -129,1 -208,41 -27,14 -49,29 -69,47 -19,17 -34,36 -45,56 -8,15 -13,32 -15,49zm481 -295c-3,-12 -5,-22 -6,-31l408 -208 0 0 442 -226c40,-21 73,-5 99,45 5,11 11,25 16,42 5,17 7,31 7,42l-4 2 -3 -10c-5,-17 -11,-31 -16,-42 -26,-51 -59,-66 -99,-45l-442 226 0 0 -402 205zm842 -239l372 727 -12 11 -374 -731 14 -7zm1076 -343l223 783 -8 5 -224 -786 9 -2zm-927 87c-1,-13 -1,-25 0,-34l947 -270 478 -136c43,-12 72,9 88,63 3,12 6,27 7,44 1,14 1,25 0,35l0 -1c-1,-18 -4,-32 -7,-44 -16,-54 -45,-76 -88,-63l-478 136 -947 270 0 0zm1379 -216l223 783 -8 4 -224 -785 9 -2zm-711 590c27,-8 51,-19 73,-35 11,-8 20,-16 28,-24l19 7c-10,18 -25,35 -47,51 -22,15 -46,27 -73,35 -53,15 -96,13 -130,-5 -33,-18 -59,-59 -77,-122l-29 -102 11 4 18 64c18,63 44,104 77,122 34,19 77,20 130,5zm-204 -329l282 112 11 38 -342 -136 49 -14zm2624 -371l21 812 -1 0 -21 -812 1 0zm-697 482c32,44 70,83 115,115 55,40 109,70 162,90 0,12 -1,23 -2,33 -53,-20 -106,-50 -160,-89 -54,-40 -99,-88 -135,-145 7,-1 14,-2 20,-4zm-317 -106c0,-4 0,-8 -1,-13 0,-18 3,-36 9,-53 6,-17 14,-32 25,-44 14,2 32,4 53,6 22,1 43,1 65,0 60,-1 105,-16 133,-44 23,-24 37,-52 40,-87l1 13c1,44 -13,80 -41,108 -28,28 -73,43 -133,44 -22,1 -43,0 -65,-1 -21,-1 -39,-3 -53,-6 -11,13 -19,27 -25,45 -4,10 -6,21 -8,32zm-110 -457l-1 -12c0,-12 1,-27 3,-43 2,-17 6,-30 10,-40l1211 -31c45,-2 68,26 70,83 0,6 0,13 -1,21 -4,-48 -27,-72 -69,-71l-1211 32c-4,10 -8,23 -10,40 -1,7 -2,15 -2,21zm750 355c56,-1 105,-13 148,-34l1 33c-43,22 -93,34 -149,35 -34,1 -66,-1 -97,-7 4,-11 8,-22 11,-32 27,4 56,6 86,5zm-110 -262c6,15 12,31 18,46 9,29 14,60 15,94 0,8 0,16 0,24 -2,-30 -7,-58 -15,-84 -10,-28 -21,-54 -34,-79l16 -1zm1310 848c-2,-12 -2,-25 0,-39l30 -235 4 0 -34 269 0 5zm-600 -360c-1,-11 -1,-23 1,-36 4,-35 18,-66 41,-95l39 4c23,3 42,-1 57,-14 15,-12 24,-31 27,-56l33 -261 4 0 -37 295c-3,25 -12,43 -27,56 -15,12 -34,17 -57,14l-39 -5c-23,29 -37,61 -41,96l-1 2zm-24 -567c-1,-12 -1,-26 1,-42 1,-12 5,-26 9,-42 5,-16 10,-29 16,-38l1048 132c43,6 62,36 56,89 -4,-32 -23,-51 -56,-55l-1048 -132c-6,9 -11,22 -16,38 -4,16 -8,30 -9,42l-1 8zm423 406l258 33 34 -268 4 0 -38 301 -262 -33 4 -33zm1286 829c-3,-17 -1,-38 7,-62l25 -73 12 -2 -37 109c-3,10 -5,19 -7,28zm-535 -597l0 -18c0,-33 4,-61 12,-84 5,-15 13,-26 23,-32 11,-7 27,-8 48,-3 45,9 88,15 127,18 40,2 75,1 107,-6 31,-6 58,-17 80,-33 21,-16 37,-38 47,-66 2,-8 4,-14 5,-21 3,16 1,34 -5,54 -10,28 -26,50 -47,67 -22,16 -49,27 -80,33 -32,6 -67,8 -107,6 -39,-3 -82,-9 -127,-19 -21,-4 -37,-4 -48,3 -10,7 -18,18 -23,32 -6,20 -10,43 -12,69zm301 -219l1 7 -2 1 1 -8zm-206 -93c-1,-4 -1,-8 -1,-12 -1,-20 3,-42 11,-66 9,-28 25,-53 46,-74 21,-22 47,-38 77,-49 30,-11 66,-17 105,-17 40,1 83,9 128,24 47,16 86,37 118,62 31,26 55,55 72,87 16,32 25,67 26,104 0,9 0,18 0,27 -2,-34 -11,-67 -26,-97 -17,-32 -41,-61 -72,-87 -32,-26 -71,-46 -118,-62 -45,-16 -88,-24 -128,-24 -39,0 -75,5 -105,17 -30,11 -56,27 -77,49 -21,21 -37,46 -46,74 -5,15 -9,30 -10,44zm146 397c8,24 23,47 43,70 31,34 74,61 130,80 43,15 85,21 126,19 41,-3 76,-11 107,-26l173 -510c4,-11 9,-21 17,-28l7 13 18 6c-4,1 -8,3 -12,5 -14,8 -24,20 -30,38l-173 509c-31,15 -66,24 -107,26 -41,3 -83,-3 -126,-18 -56,-19 -99,-46 -130,-80 -30,-34 -48,-69 -52,-105l9 1zm566 -547c-2,-42 3,-82 16,-120 12,-35 29,-65 51,-90 22,-25 47,-44 77,-57 30,-13 62,-20 97,-21 35,-1 72,5 112,19 63,21 102,47 118,76 13,24 17,48 13,72 -2,-13 -6,-25 -13,-38 -16,-29 -55,-55 -118,-76 -40,-14 -77,-20 -112,-19 -35,1 -67,8 -97,21 -30,12 -55,31 -77,56 -22,25 -39,55 -51,91 -9,27 -15,56 -16,86zm194 91c1,4 1,8 2,13 4,27 10,53 19,77l138 47c36,12 50,38 43,77 -4,-20 -19,-35 -43,-43l-138 -47c-9,-24 -15,-50 -19,-78 -3,-15 -3,-30 -2,-46z"/>
  <path class="fil18" d="M4364 15088c-20,-5 -41,-16 -61,-30 -40,-30 -47,-63 -20,-101 26,-35 56,-62 89,-81 -5,-12 -12,-24 -21,-36 -9,-12 -20,-22 -33,-32 -35,-25 -70,-34 -106,-25 -36,8 -65,28 -89,61 -18,24 -28,48 -32,72 -3,25 -2,49 3,72 6,23 16,44 30,65 14,20 30,39 48,55 -2,4 -4,8 -6,11 -2,3 -5,6 -7,10 -13,18 -30,30 -50,34 -21,5 -43,-2 -69,-20 -21,-16 -39,-36 -56,-60 -16,-24 -28,-51 -36,-82 -8,-30 -10,-62 -7,-96 2,-34 12,-68 29,-101 -21,-11 -42,-23 -61,-37 -61,-45 -98,-98 -109,-160 -12,-62 9,-129 60,-200l117 -161 -55 -40c-14,-10 -21,-21 -21,-32 0,-12 6,-25 17,-41 5,-6 11,-13 18,-21 8,-7 15,-13 21,-17l1065 774c25,18 26,42 5,72 -5,6 -11,13 -19,21 -9,7 -16,13 -22,17l-103 -75 -396 545c-7,-2 -15,-6 -25,-10 -10,-5 -20,-11 -31,-19 -25,-18 -40,-35 -43,-51 -4,-16 1,-33 15,-52l210 -290c-6,-7 -14,-14 -22,-20 -36,-26 -72,-34 -109,-22 -37,11 -76,45 -118,103zm-269 -756l-112 155c-34,46 -47,84 -41,115 6,31 28,60 65,87 5,4 10,8 16,11 5,3 11,6 16,9 25,-22 51,-40 79,-51 28,-11 57,-17 85,-17 28,-1 56,4 83,12 27,9 53,22 77,39 31,23 54,47 71,73 16,26 29,52 36,79 29,-2 58,1 86,8 29,8 56,21 83,41 15,11 30,24 43,39l83 -114 -670 -486zm926 254c30,21 58,34 86,38 28,4 53,2 74,-6 13,14 22,29 25,47 3,17 -1,34 -12,50 -20,28 -52,40 -96,35 -44,-5 -93,-27 -148,-66 -54,-40 -90,-79 -108,-120 -18,-40 -17,-74 3,-102 12,-16 26,-25 44,-28 17,-2 34,1 51,9 0,24 6,48 19,74 13,25 33,48 62,69zm189 488l-303 602c-8,-2 -16,-4 -26,-7 -10,-2 -22,-7 -35,-13 -28,-14 -45,-29 -51,-44 -6,-15 -4,-33 7,-54l276 -550 -85 -43c-15,-8 -23,-17 -25,-28 -2,-12 1,-26 10,-44 4,-6 8,-14 15,-23 6,-8 12,-15 17,-20l110 55c-1,-14 1,-29 5,-48 5,-18 11,-35 20,-53 33,-66 86,-106 158,-118 72,-12 155,6 249,53 62,31 115,67 159,107 44,40 80,80 106,118 26,39 44,75 53,107 9,32 10,55 2,70 -8,16 -21,25 -41,28 -19,3 -41,-1 -65,-13 -18,-63 -47,-121 -88,-173 -41,-52 -97,-96 -168,-132 -56,-28 -104,-38 -146,-32 -41,7 -72,31 -92,72 -7,13 -12,27 -16,41 -4,14 -5,27 -5,39l90 45c27,14 32,37 16,70 -4,7 -9,15 -16,24 -7,9 -13,16 -18,20l-113 -56zm601 302l-88 175c-9,18 -20,28 -32,32 -13,3 -29,0 -49,-10l-130 -65c-47,-24 -89,-31 -127,-22 -39,10 -68,36 -90,79 -12,24 -18,47 -18,69 1,22 6,42 16,62 10,19 24,37 42,53 18,16 38,29 61,41 34,17 67,27 98,30 32,3 62,1 90,-7 11,13 17,28 20,44 3,16 1,31 -7,47 -7,13 -18,24 -34,31 -16,7 -35,10 -58,10 -24,0 -50,-4 -78,-11 -29,-8 -60,-19 -91,-35 -43,-22 -81,-47 -112,-77 -32,-29 -56,-61 -73,-95 -17,-34 -25,-71 -24,-110 0,-39 11,-79 32,-121 17,-34 40,-63 67,-87 26,-23 57,-40 90,-49 34,-10 70,-12 110,-8 39,5 80,18 122,39l73 37 59 -118 -381 -191c-27,-14 -32,-38 -15,-72 3,-7 8,-14 15,-23 6,-9 12,-15 18,-20l619 311c16,8 24,17 26,29 2,11 -1,25 -10,42 -3,6 -8,14 -15,23 -6,9 -12,16 -17,21l-109 -54zm603 229l-253 625c-7,-1 -15,-2 -26,-4 -11,-2 -22,-6 -35,-11 -29,-12 -47,-25 -54,-39 -8,-15 -7,-33 2,-55l109 -269 -193 -78c-15,-6 -28,-7 -39,-2 -11,4 -21,15 -28,33l-22 54c-11,1 -22,1 -33,0 -11,-1 -22,-4 -33,-8 -27,-11 -47,-30 -59,-57 -13,-28 -11,-61 4,-99 15,-37 38,-60 69,-71 31,-11 67,-8 108,9l270 109 78 -192 -441 -178c-28,-11 -35,-35 -21,-70 3,-7 7,-15 13,-24 5,-9 11,-16 17,-21l694 280c28,12 35,35 21,69 -2,7 -7,15 -13,25 -6,9 -11,17 -16,22l-119 -48zm841 205l-153 657c-7,0 -16,0 -27,0 -11,-1 -23,-3 -36,-6 -30,-7 -50,-17 -60,-30 -10,-13 -12,-31 -7,-54l53 -229 -234 -55c-14,32 -34,54 -57,67 -24,13 -54,15 -91,7 -40,-9 -67,-26 -82,-49 -15,-24 -20,-49 -13,-76 3,-12 7,-23 13,-34 6,-10 13,-20 21,-29l34 9c17,3 31,2 42,-6 11,-7 19,-19 23,-37l60 -255 -140 -33c-16,-4 -27,-11 -31,-21 -5,-11 -5,-26 0,-45 2,-7 4,-16 9,-26 4,-10 8,-17 12,-23l778 182c30,7 41,28 32,64 -2,8 -5,17 -9,27 -4,10 -8,18 -13,24l-124 -29zm-431 170l228 53 60 -256 -228 -54 -60 257zm1849 -29l-23 674c-7,1 -15,3 -26,5 -11,1 -23,2 -36,1 -31,-1 -53,-7 -65,-18 -12,-11 -17,-28 -16,-51l4 -131c-23,18 -50,31 -80,39 -30,8 -64,12 -103,11 -63,-3 -117,-17 -163,-45 -47,-27 -83,-62 -108,-105 -16,-25 -27,-50 -35,-78 -7,-27 -11,-50 -10,-70 0,-11 3,-20 7,-27 5,-8 13,-12 25,-14 53,-2 92,-12 117,-30 25,-19 38,-44 39,-76 1,-23 -5,-44 -16,-61 -11,-18 -27,-32 -47,-42l-161 -6c-30,-1 -44,-20 -43,-58 0,-8 1,-17 3,-28 2,-10 5,-19 9,-25l823 28c17,0 29,5 35,15 7,9 9,23 9,42 0,8 -2,17 -4,28 -2,11 -4,19 -7,26l-128 -4zm-326 409c38,1 71,-5 100,-18 28,-13 51,-29 69,-47l11 -349 -230 -8c15,14 28,31 39,52 11,21 16,44 15,69 -1,26 -6,49 -16,69 -10,19 -24,36 -41,50 -16,14 -36,26 -59,34 -23,8 -47,14 -74,17 11,35 32,65 62,90 31,25 72,39 124,41zm672 -397l-23 673c-8,2 -17,4 -27,5 -10,2 -22,3 -37,2 -31,-1 -52,-7 -64,-18 -12,-11 -18,-28 -17,-52l21 -615 -95 -4c-17,0 -29,-5 -35,-15 -6,-9 -9,-24 -9,-43 1,-8 2,-17 4,-27 2,-11 4,-19 7,-26l134 4c-13,-28 -31,-54 -52,-79 -22,-24 -45,-46 -70,-66 -25,-20 -51,-37 -77,-51 -26,-14 -51,-24 -73,-31 -1,-3 -1,-7 -1,-10 0,-4 0,-7 0,-12 1,-24 9,-45 23,-62 14,-17 35,-26 63,-25 28,1 57,11 89,31 31,19 61,44 90,76 28,31 55,67 79,108 24,40 44,82 57,126l108 3c30,2 45,21 44,58 -1,7 -2,17 -4,28 -3,10 -6,19 -8,26l-127 -4zm680 -76l51 673c-7,2 -15,5 -25,8 -11,2 -23,4 -36,5 -31,3 -54,-1 -67,-10 -14,-10 -21,-27 -23,-50l-47 -614 -218 16c20,28 38,60 53,97 15,38 25,78 28,122 3,41 1,78 -8,111 -9,33 -21,61 -39,84 -17,23 -38,41 -64,54 -25,13 -52,20 -82,23 -32,2 -57,-3 -77,-16 -19,-12 -29,-31 -31,-55 -2,-20 1,-40 8,-58 13,2 24,2 35,1 35,-2 62,-17 82,-44 20,-27 27,-69 23,-125 -3,-37 -11,-71 -26,-102 -14,-32 -30,-58 -49,-81l-139 11c-30,2 -47,-15 -50,-53 0,-8 0,-17 1,-28 0,-10 2,-19 5,-26l776 -59c30,-3 47,15 50,52 0,7 0,17 0,28 -1,11 -3,20 -6,27l-125 9zm757 -163l38 166c5,19 3,34 -4,45 -7,11 -21,18 -43,23l-144 34c-48,11 -84,32 -110,62 -25,31 -33,69 -22,116 6,23 14,43 27,60 12,17 27,30 44,39 17,10 36,16 56,18 21,2 42,1 63,-4 30,-7 51,-17 63,-30 12,-14 15,-32 10,-56 -3,-10 -6,-20 -11,-30 -4,-10 -9,-20 -13,-28 5,-11 14,-21 26,-29 13,-9 27,-15 43,-19 14,-3 27,-3 41,-2 14,2 27,6 39,13 12,7 22,16 31,28 9,12 15,27 19,45 6,23 5,46 -1,67 -7,21 -16,39 -28,54 25,27 49,51 74,72 26,20 49,38 69,52 2,22 -4,42 -16,59 -13,16 -31,27 -54,33 -26,6 -49,2 -69,-11 -20,-13 -38,-34 -55,-63l-42 -77c-11,7 -24,14 -39,21 -15,7 -34,13 -58,19 -42,9 -82,13 -121,10 -39,-3 -76,-13 -109,-29 -33,-15 -61,-38 -85,-68 -24,-30 -41,-68 -51,-112 -9,-36 -11,-72 -6,-106 5,-34 17,-65 36,-93 19,-28 45,-53 78,-75 32,-21 73,-37 122,-49l82 -19 -24 -103 -424 98c-30,7 -49,-9 -58,-46 -1,-7 -3,-16 -3,-27 -1,-10 -1,-19 1,-27l710 -164c30,-7 49,8 57,44 2,8 3,17 4,28 0,11 0,21 -1,28l-142 33zm349 -81l152 657c-7,3 -15,7 -25,11 -9,5 -21,9 -35,12 -30,7 -53,7 -67,-1 -14,-7 -24,-23 -29,-46l-139 -600 -93 21c-16,4 -29,2 -37,-5 -9,-8 -16,-21 -20,-40 -2,-7 -3,-16 -4,-27 0,-11 0,-20 1,-27l360 -83c30,-7 49,8 57,44 2,7 3,17 4,28 0,11 0,20 -1,27l-124 29zm581 -226l249 626c-5,4 -13,9 -22,15 -9,6 -19,11 -32,16 -29,12 -51,15 -66,10 -16,-6 -28,-19 -36,-41l-108 -270 -193 77c-15,6 -25,14 -30,25 -6,11 -5,25 3,43l21 54c-7,9 -15,17 -24,24 -9,7 -18,12 -29,17 -27,10 -54,10 -82,-1 -29,-11 -50,-36 -66,-74 -14,-37 -14,-70 1,-99 15,-30 43,-52 84,-69l271 -108 -76 -191 -442 175c-28,12 -49,0 -64,-36 -2,-7 -5,-15 -7,-26 -3,-10 -3,-19 -3,-27l696 -277c28,-11 49,0 63,35 3,7 5,16 8,27 2,11 3,20 3,27l-119 48zm698 -323l66 134c11,-20 25,-39 44,-57 19,-19 43,-35 73,-50 30,-15 60,-24 91,-27 31,-2 60,1 88,9 28,9 53,24 77,44 23,21 43,47 59,80 16,33 25,65 27,97 2,31 -2,60 -11,86 -10,26 -25,50 -44,71 -20,21 -43,38 -69,51 -60,30 -100,23 -121,-20 -5,-9 -8,-19 -10,-28 -1,-9 -2,-17 0,-24 6,-1 12,-3 19,-6 7,-3 14,-6 20,-9 29,-14 49,-35 60,-62 11,-26 8,-57 -9,-91 -15,-30 -36,-50 -65,-59 -28,-9 -60,-5 -94,12 -21,10 -38,24 -51,42 -13,18 -22,36 -28,55l177 357c-6,5 -14,10 -22,17 -8,6 -18,12 -30,18 -29,15 -51,20 -67,16 -15,-4 -29,-17 -39,-38l-42 -85c-11,20 -26,39 -45,58 -19,18 -44,35 -75,50 -28,14 -58,23 -88,27 -31,4 -60,2 -89,-6 -28,-8 -55,-23 -81,-43 -25,-21 -46,-49 -64,-84 -16,-33 -25,-64 -26,-95 -1,-30 3,-59 13,-85 10,-26 25,-50 45,-71 20,-21 43,-38 69,-51 37,-18 66,-25 89,-20 22,4 38,16 48,36 9,19 12,37 8,55 -9,2 -17,4 -25,5 -7,2 -17,6 -27,11 -30,15 -51,36 -62,63 -12,26 -9,56 7,89 15,31 37,51 67,59 29,9 61,5 95,-12 26,-13 46,-29 59,-48 13,-18 21,-37 24,-54l-173 -351 -400 197c-27,14 -49,4 -66,-30 -4,-7 -7,-16 -10,-26 -3,-10 -5,-19 -5,-27l943 -466c27,-14 49,-4 66,30 3,6 7,15 10,26 3,10 5,19 5,27l-411 203zm946 -607l388 551c-5,6 -12,13 -19,21 -8,8 -17,15 -28,23 -25,18 -46,26 -62,25 -17,-2 -31,-12 -45,-32l-198 -281c-19,7 -37,15 -54,24 -18,9 -35,20 -53,32 -42,30 -71,65 -84,105 -13,40 -4,82 28,127 26,37 58,64 95,80 38,17 76,28 114,34 5,18 5,35 0,52 -5,17 -17,32 -35,44 -17,12 -39,18 -65,17 -26,-1 -53,-7 -81,-19 -28,-11 -56,-28 -84,-50 -28,-21 -52,-47 -73,-77 -26,-36 -43,-73 -50,-109 -8,-36 -8,-71 1,-104 9,-34 25,-67 49,-98 24,-30 54,-59 91,-85 22,-15 44,-29 67,-41 23,-13 44,-23 64,-32l-87 -122 -414 292c-14,9 -26,12 -37,9 -11,-4 -22,-14 -33,-30 -5,-6 -9,-14 -14,-23 -5,-10 -8,-18 -10,-25l640 -451c25,-17 48,-11 69,20 5,6 9,14 14,24 4,11 7,19 9,26l-103 73zm282 -198l388 551c-6,6 -12,12 -19,20 -7,7 -16,15 -28,24 -26,18 -46,26 -62,24 -17,-1 -31,-12 -45,-31l-355 -504 -77 55c-14,10 -27,13 -37,9 -11,-4 -22,-14 -34,-29 -4,-7 -9,-15 -13,-24 -5,-10 -8,-18 -10,-25l109 -77c-29,-4 -57,-14 -85,-31 -27,-16 -51,-38 -70,-66 -31,-43 -41,-89 -32,-136 9,-48 38,-88 87,-122 36,-26 66,-38 88,-36 22,3 40,13 53,31 11,16 16,32 15,50 -9,2 -18,5 -27,9 -8,4 -17,9 -27,16 -21,15 -34,34 -40,59 -6,25 1,50 19,77 14,20 32,36 54,49 22,12 45,21 70,27l89 -63c25,-18 48,-11 69,19 4,6 9,15 14,25 4,10 7,19 9,26l-103 73z"/>
  <path class="fil19" d="M4364 15037c-20,-5 -41,-15 -61,-30 -40,-29 -47,-63 -20,-100 26,-36 56,-63 89,-82 -5,-12 -12,-24 -21,-35 -9,-12 -20,-23 -33,-32 -35,-26 -70,-34 -106,-26 -36,8 -65,28 -89,61 -18,24 -28,48 -32,73 -3,24 -2,48 3,71 6,23 16,45 30,65 14,21 30,39 48,56 -2,3 -4,7 -6,10 -2,3 -5,6 -7,10 -13,18 -30,30 -50,35 -21,4 -43,-3 -69,-21 -21,-15 -39,-35 -56,-60 -16,-24 -28,-51 -36,-81 -8,-31 -10,-63 -7,-97 2,-34 12,-68 29,-101 -21,-11 -42,-23 -61,-37 -61,-44 -98,-98 -109,-160 -12,-62 9,-128 60,-199l117 -162 -55 -40c-14,-10 -21,-20 -21,-32 0,-11 6,-25 17,-41 5,-6 11,-13 18,-20 8,-8 15,-14 21,-18l1065 774c25,18 26,42 5,72 -5,6 -11,13 -19,21 -9,8 -16,13 -22,17l-103 -75 -396 546c-7,-3 -15,-6 -25,-11 -10,-4 -20,-11 -31,-19 -25,-18 -40,-35 -43,-51 -4,-15 1,-33 15,-52l210 -289c-6,-8 -14,-15 -22,-21 -36,-26 -72,-33 -109,-22 -37,11 -76,46 -118,103zm-269 -756l-112 155c-34,46 -47,84 -41,115 6,31 28,60 65,87 5,4 10,8 16,11 5,4 11,7 16,10 25,-23 51,-40 79,-52 28,-11 57,-17 85,-17 28,0 56,4 83,13 27,8 53,21 77,39 31,22 54,46 71,72 16,26 29,53 36,79 29,-2 58,1 86,9 29,7 56,21 83,40 15,11 30,25 43,39l83 -114 -670 -486zm926 254c30,22 58,34 86,39 28,4 53,1 74,-7 13,14 22,29 25,47 3,18 -1,34 -12,50 -20,28 -52,40 -96,35 -44,-4 -93,-26 -148,-66 -54,-39 -90,-79 -108,-120 -18,-40 -17,-74 3,-102 12,-16 26,-25 44,-27 17,-3 34,0 51,8 0,24 6,48 19,74 13,25 33,49 62,69zm189 488l-303 602c-8,-1 -16,-4 -26,-6 -10,-3 -22,-8 -35,-14 -28,-14 -45,-29 -51,-44 -6,-15 -4,-33 7,-54l276 -550 -85 -43c-15,-7 -23,-17 -25,-28 -2,-11 1,-26 10,-43 4,-7 8,-15 15,-23 6,-9 12,-16 17,-21l110 55c-1,-13 1,-29 5,-47 5,-18 11,-36 20,-53 33,-67 86,-106 158,-118 72,-12 155,5 249,53 62,31 115,66 159,106 44,41 80,80 106,119 26,39 44,74 53,106 9,32 10,55 2,70 -8,16 -21,26 -41,29 -19,3 -41,-2 -65,-14 -18,-63 -47,-120 -88,-172 -41,-53 -97,-97 -168,-132 -56,-28 -104,-39 -146,-32 -41,6 -72,30 -92,71 -7,13 -12,27 -16,42 -4,14 -5,27 -5,38l90 45c27,14 32,37 16,71 -4,6 -9,14 -16,23 -7,9 -13,16 -18,21l-113 -57zm601 302l-88 176c-9,17 -20,27 -32,31 -13,4 -29,0 -49,-9l-130 -66c-47,-23 -89,-31 -127,-21 -39,9 -68,35 -90,78 -12,24 -18,47 -18,69 1,22 6,43 16,62 10,19 24,37 42,53 18,16 38,30 61,41 34,17 67,27 98,30 32,3 62,1 90,-6 11,13 17,27 20,43 3,16 1,32 -7,47 -7,13 -18,24 -34,31 -16,7 -35,11 -58,10 -24,0 -50,-4 -78,-11 -29,-8 -60,-19 -91,-35 -43,-22 -81,-47 -112,-76 -32,-29 -56,-61 -73,-96 -17,-34 -25,-71 -24,-110 0,-39 11,-79 32,-120 17,-35 40,-64 67,-88 26,-23 57,-39 90,-49 34,-10 70,-12 110,-7 39,4 80,17 122,38l73 37 59 -118 -381 -191c-27,-14 -32,-38 -15,-72 3,-6 8,-14 15,-23 6,-9 12,-15 18,-20l619 312c16,7 24,17 26,28 2,11 -1,25 -10,42 -3,7 -8,15 -15,24 -6,9 -12,16 -17,21l-109 -55zm603 229l-253 625c-7,-1 -15,-2 -26,-4 -11,-2 -22,-6 -35,-11 -29,-11 -47,-24 -54,-39 -8,-14 -7,-32 2,-54l109 -269 -193 -78c-15,-6 -28,-7 -39,-3 -11,4 -21,15 -28,33l-22 54c-11,1 -22,1 -33,0 -11,-1 -22,-3 -33,-8 -27,-10 -47,-30 -59,-57 -13,-27 -11,-60 4,-99 15,-37 38,-60 69,-71 31,-11 67,-8 108,9l270 109 78 -191 -441 -179c-28,-11 -35,-34 -21,-70 3,-7 7,-15 13,-24 5,-9 11,-16 17,-21l694 281c28,11 35,34 21,68 -2,7 -7,16 -13,25 -6,10 -11,17 -16,22l-119 -48zm841 206l-153 656c-7,0 -16,0 -27,0 -11,-1 -23,-2 -36,-5 -30,-7 -50,-18 -60,-31 -10,-13 -12,-31 -7,-54l53 -228 -234 -55c-14,31 -34,53 -57,66 -24,13 -54,16 -91,7 -40,-9 -67,-26 -82,-49 -15,-24 -20,-49 -13,-76 3,-11 7,-23 13,-33 6,-11 13,-21 21,-29l34 8c17,4 31,2 42,-5 11,-8 19,-20 23,-37l60 -256 -140 -32c-16,-4 -27,-12 -31,-22 -5,-11 -5,-25 0,-44 2,-8 4,-16 9,-26 4,-10 8,-18 12,-24l778 182c30,7 41,28 32,65 -2,7 -5,16 -9,26 -4,11 -8,19 -13,24l-124 -28zm-431 169l228 54 60 -257 -228 -53 -60 256zm1849 -29l-23 674c-7,1 -15,3 -26,5 -11,2 -23,2 -36,2 -31,-1 -53,-7 -65,-18 -12,-11 -17,-29 -16,-52l4 -131c-23,18 -50,31 -80,39 -30,9 -64,12 -103,11 -63,-2 -117,-17 -163,-44 -47,-28 -83,-63 -108,-106 -16,-24 -27,-50 -35,-77 -7,-28 -11,-51 -10,-71 0,-10 3,-20 7,-27 5,-8 13,-12 25,-13 53,-3 92,-13 117,-31 25,-18 38,-43 39,-76 1,-23 -5,-44 -16,-61 -11,-17 -27,-31 -47,-42l-161 -6c-30,-1 -44,-20 -43,-58 0,-8 1,-17 3,-27 2,-11 5,-19 9,-26l823 28c17,1 29,6 35,15 7,10 9,24 9,42 0,8 -2,17 -4,28 -2,11 -4,20 -7,26l-128 -4zm-326 409c38,1 71,-5 100,-18 28,-13 51,-28 69,-46l11 -350 -230 -8c15,14 28,32 39,52 11,21 16,44 15,69 -1,26 -6,49 -16,69 -10,19 -24,36 -41,51 -16,14 -36,25 -59,33 -23,8 -47,14 -74,17 11,35 32,65 62,90 31,26 72,39 124,41zm672 -397l-23 674c-8,1 -17,3 -27,5 -10,1 -22,2 -37,1 -31,-1 -52,-7 -64,-18 -12,-11 -18,-28 -17,-52l21 -615 -95 -3c-17,-1 -29,-6 -35,-16 -6,-9 -9,-24 -9,-43 1,-8 2,-17 4,-27 2,-11 4,-19 7,-26l134 5c-13,-29 -31,-55 -52,-79 -22,-25 -45,-47 -70,-67 -25,-20 -51,-37 -77,-51 -26,-14 -51,-24 -73,-31 -1,-3 -1,-6 -1,-10 0,-3 0,-7 0,-11 1,-25 9,-46 23,-63 14,-17 35,-25 63,-24 28,1 57,11 89,30 31,19 61,44 90,76 28,31 55,67 79,108 24,40 44,83 57,126l108 4c30,1 45,20 44,57 -1,8 -2,17 -4,28 -3,11 -6,19 -8,26l-127 -4zm680 -75l51 672c-7,2 -15,5 -25,8 -11,3 -23,5 -36,6 -31,2 -54,-2 -67,-11 -14,-10 -21,-26 -23,-50l-47 -614 -218 17c20,27 38,59 53,97 15,37 25,78 28,121 3,42 1,79 -8,112 -9,32 -21,60 -39,83 -17,23 -38,41 -64,54 -25,13 -52,21 -82,23 -32,2 -57,-3 -77,-15 -19,-13 -29,-31 -31,-56 -2,-20 1,-39 8,-58 13,2 24,2 35,2 35,-3 62,-18 82,-45 20,-27 27,-68 23,-125 -3,-37 -11,-71 -26,-102 -14,-31 -30,-58 -49,-80l-139 10c-30,3 -47,-15 -50,-53 0,-8 0,-17 1,-27 0,-11 2,-20 5,-27l776 -59c30,-2 47,15 50,52 0,8 0,17 0,28 -1,11 -3,20 -6,27l-125 10zm757 -164l38 167c5,18 3,33 -4,44 -7,11 -21,19 -43,24l-144 33c-48,11 -84,32 -110,62 -25,31 -33,70 -22,117 6,23 14,43 27,59 12,17 27,30 44,39 17,10 36,16 56,18 21,2 42,1 63,-4 30,-7 51,-17 63,-30 12,-13 15,-32 10,-56 -3,-10 -6,-20 -11,-30 -4,-10 -9,-19 -13,-28 5,-11 14,-20 26,-29 13,-8 27,-15 43,-18 14,-3 27,-4 41,-2 14,1 27,5 39,12 12,7 22,16 31,28 9,12 15,27 19,45 6,24 5,46 -1,67 -7,21 -16,39 -28,54 25,27 49,51 74,72 26,21 49,38 69,52 2,23 -4,42 -16,59 -13,17 -31,28 -54,33 -26,6 -49,3 -69,-11 -20,-13 -38,-34 -55,-63l-42 -76c-11,7 -24,14 -39,21 -15,6 -34,13 -58,18 -42,10 -82,13 -121,10 -39,-3 -76,-13 -109,-28 -33,-16 -61,-39 -85,-69 -24,-30 -41,-67 -51,-112 -9,-36 -11,-71 -6,-105 5,-34 17,-65 36,-94 19,-28 45,-53 78,-74 32,-22 73,-38 122,-49l82 -19 -24 -104 -424 98c-30,7 -49,-8 -58,-45 -1,-8 -3,-17 -3,-27 -1,-11 -1,-20 1,-27l710 -164c30,-7 49,7 57,44 2,7 3,16 4,28 0,11 0,20 -1,27l-142 33zm349 -81l152 657c-7,4 -15,7 -25,12 -9,4 -21,8 -35,11 -30,7 -53,7 -67,-1 -14,-7 -24,-22 -29,-46l-139 -600 -93 22c-16,3 -29,2 -37,-6 -9,-8 -16,-21 -20,-40 -2,-7 -3,-16 -4,-27 0,-11 0,-19 1,-27l360 -83c30,-7 49,8 57,44 2,8 3,17 4,28 0,11 0,21 -1,28l-124 28zm581 -226l249 626c-5,4 -13,9 -22,15 -9,6 -19,12 -32,17 -29,11 -51,14 -66,9 -16,-5 -28,-19 -36,-41l-108 -270 -193 77c-15,6 -25,15 -30,25 -6,11 -5,25 3,44l21 54c-7,8 -15,16 -24,23 -9,7 -18,13 -29,17 -27,11 -54,11 -82,-1 -29,-11 -50,-35 -66,-74 -14,-37 -14,-70 1,-99 15,-29 43,-52 84,-68l271 -108 -76 -192 -442 176c-28,11 -49,-1 -64,-36 -2,-7 -5,-16 -7,-27 -3,-10 -3,-19 -3,-27l696 -277c28,-11 49,1 63,35 3,7 5,16 8,27 2,11 3,20 3,27l-119 48zm698 -322l66 134c11,-21 25,-40 44,-58 19,-18 43,-35 73,-49 30,-15 60,-24 91,-27 31,-3 60,0 88,9 28,8 53,23 77,44 23,20 43,47 59,79 16,33 25,66 27,97 2,31 -2,60 -11,86 -10,27 -25,50 -44,72 -20,21 -43,38 -69,50 -60,30 -100,23 -121,-20 -5,-9 -8,-18 -10,-27 -1,-9 -2,-18 0,-25 6,-1 12,-3 19,-6 7,-3 14,-6 20,-9 29,-14 49,-35 60,-61 11,-27 8,-58 -9,-92 -15,-30 -36,-50 -65,-59 -28,-9 -60,-5 -94,12 -21,11 -38,25 -51,42 -13,18 -22,36 -28,55l177 357c-6,5 -14,11 -22,17 -8,6 -18,13 -30,19 -29,14 -51,19 -67,15 -15,-4 -29,-17 -39,-38l-42 -85c-11,20 -26,40 -45,58 -19,18 -44,35 -75,51 -28,14 -58,22 -88,26 -31,4 -60,2 -89,-6 -28,-8 -55,-22 -81,-43 -25,-20 -46,-49 -64,-84 -16,-33 -25,-64 -26,-95 -1,-30 3,-58 13,-85 10,-26 25,-49 45,-71 20,-21 43,-38 69,-51 37,-18 66,-25 89,-20 22,4 38,16 48,36 9,19 12,38 8,56 -9,1 -17,3 -25,5 -7,2 -17,5 -27,10 -30,15 -51,36 -62,63 -12,27 -9,56 7,89 15,31 37,51 67,60 29,8 61,4 95,-13 26,-13 46,-29 59,-48 13,-18 21,-36 24,-54l-173 -351 -400 198c-27,13 -49,3 -66,-31 -4,-7 -7,-16 -10,-26 -3,-10 -5,-19 -5,-26l943 -467c27,-13 49,-3 66,30 3,7 7,15 10,26 3,11 5,20 5,27l-411 204zm946 -608l388 552c-5,5 -12,12 -19,20 -8,8 -17,16 -28,23 -25,18 -46,27 -62,25 -17,-2 -31,-12 -45,-31l-198 -282c-19,7 -37,16 -54,25 -18,8 -35,19 -53,31 -42,30 -71,65 -84,105 -13,40 -4,82 28,127 26,37 58,64 95,81 38,16 76,28 114,34 5,17 5,34 0,51 -5,17 -17,32 -35,44 -17,13 -39,18 -65,17 -26,0 -53,-7 -81,-18 -28,-12 -56,-29 -84,-50 -28,-22 -52,-48 -73,-78 -26,-36 -43,-72 -50,-108 -8,-36 -8,-71 1,-105 9,-34 25,-67 49,-97 24,-31 54,-60 91,-86 22,-15 44,-29 67,-41 23,-12 44,-23 64,-32l-87 -122 -414 292c-14,10 -26,13 -37,9 -11,-4 -22,-14 -33,-29 -5,-7 -9,-15 -14,-24 -5,-10 -8,-18 -10,-25l640 -450c25,-18 48,-11 69,19 5,6 9,14 14,25 4,10 7,18 9,25l-103 73zm282 -198l388 551c-6,6 -12,13 -19,20 -7,8 -16,16 -28,24 -26,18 -46,26 -62,25 -17,-2 -31,-12 -45,-32l-355 -503 -77 54c-14,10 -27,13 -37,9 -11,-3 -22,-13 -34,-29 -4,-6 -9,-14 -13,-24 -5,-9 -8,-18 -10,-25l109 -76c-29,-5 -57,-15 -85,-31 -27,-17 -51,-39 -70,-66 -31,-44 -41,-89 -32,-137 9,-47 38,-88 87,-122 36,-26 66,-38 88,-35 22,2 40,12 53,30 11,16 16,33 15,50 -9,2 -18,5 -27,9 -8,4 -17,10 -27,16 -21,15 -34,35 -40,59 -6,25 1,51 19,77 14,20 32,36 54,49 22,12 45,21 70,27l89 -63c25,-17 48,-11 69,20 4,6 9,14 14,24 4,10 7,19 9,26l-103 73z"/>
  <path class="fil10" d="M6971 16364c-3,-11 -3,-23 1,-38l46 -196 7 1 -53 229 -1 4zm-425 -332c-2,-13 -1,-27 2,-41 3,-11 7,-23 13,-33 6,-11 13,-21 21,-29l34 8c17,4 31,2 42,-5 11,-8 19,-20 23,-37l52 -224 8 2 -60 255c-4,18 -12,30 -23,37 -11,8 -25,9 -42,6l-34 -8c-8,8 -15,18 -21,28 -6,11 -10,22 -13,34l-2 7zm22 -451c0,-2 0,-4 -1,-6 3,-10 3,-19 1,-26l2 -8c2,-8 4,-16 9,-26 4,-10 8,-18 12,-24l778 182c29,7 40,27 33,61 -4,-14 -15,-23 -33,-27l-778 -182c-4,6 -8,14 -12,23 -5,10 -7,19 -9,26l-2 7zm-1290 18c2,16 7,31 15,46 10,19 24,37 42,53 18,16 38,30 61,41 34,17 67,27 98,30 32,3 62,1 90,-6 11,13 17,27 20,43 2,10 2,20 -1,30 -3,-15 -9,-28 -19,-39 -28,7 -58,9 -90,6 -31,-3 -64,-13 -98,-30 -23,-11 -43,-25 -61,-41 -18,-16 -32,-34 -42,-53 -10,-20 -15,-40 -16,-62 0,-6 1,-12 1,-18zm-151 -11c0,-7 0,-14 0,-22 0,-39 11,-79 32,-120 17,-35 40,-64 67,-88 26,-23 57,-39 90,-49 34,-10 70,-12 110,-7 39,4 80,17 122,38l73 37 45 -91 14 7 -59 118 -73 -37c-42,-21 -83,-34 -122,-39 -40,-4 -76,-2 -110,8 -33,9 -64,26 -90,49 -27,24 -50,53 -67,87 -19,38 -29,74 -32,109zm-333 -28c-5,-15 -2,-32 8,-53l263 -523 13 7 -276 550c-3,7 -6,13 -8,19zm-404 -236c-1,-2 -2,-4 -2,-6 -4,-15 1,-33 15,-52l196 -270c5,5 10,9 14,15l-210 289c-6,8 -11,17 -13,24zm-121 -357c-6,-19 -1,-39 14,-60 22,-31 47,-55 75,-73 6,8 11,17 14,25 -33,19 -63,46 -89,81 -6,9 -11,18 -14,27zm-179 -56c1,9 2,17 4,26 6,23 16,45 30,65 14,21 30,39 48,56 -2,3 -4,7 -6,10 -2,3 -5,6 -7,10l-1 0c-12,-13 -24,-27 -34,-42 -14,-21 -24,-42 -30,-65 -5,-20 -6,-40 -4,-60zm-150 -14c-1,-14 -1,-28 1,-43 2,-25 7,-49 17,-74l12 7c-17,33 -27,67 -29,101l-1 9zm-143 -358c-5,-57 16,-118 63,-182l101 -139 16 11 -117 161c-38,52 -58,102 -63,149zm109 -401c-3,-5 -5,-10 -5,-15 0,-11 6,-25 17,-41 5,-6 11,-13 18,-20 8,-8 15,-14 21,-18l1047 761c2,-2 4,-4 6,-6l110 55c-1,-13 1,-29 5,-47 5,-18 11,-36 20,-53 5,-11 11,-20 17,-29 13,-6 23,-15 32,-27 5,-6 8,-13 10,-20 28,-22 60,-36 99,-42 72,-12 155,5 249,53 62,31 115,66 159,106 44,41 80,80 106,119 26,39 44,74 53,106 7,25 9,45 6,60 -1,-8 -3,-17 -6,-26 -9,-32 -27,-68 -53,-106 -26,-39 -62,-79 -106,-119 -44,-40 -97,-76 -159,-107 -94,-47 -177,-65 -249,-53 -72,13 -125,52 -158,118 -9,18 -15,35 -20,54 -4,18 -6,34 -5,47l-110 -55c-2,2 -4,4 -6,6l-1047 -761c-6,4 -13,10 -21,18 -7,7 -13,14 -18,20 -5,8 -10,15 -12,22zm1348 784l63 31 521 262c3,-3 6,-7 9,-9l694 281c25,10 33,29 26,56 -5,-10 -13,-17 -26,-23l-694 -280c-3,2 -6,5 -9,9l-521 -262 -66 -33c0,-10 1,-20 3,-32zm789 1197c-4,-13 -3,-29 5,-48l97 -240 12 4 -109 269c-2,5 -4,10 -5,15zm-300 -400c-4,-22 0,-47 11,-75 15,-37 38,-60 69,-71 31,-11 67,-8 108,9l270 109 66 -162 12 4 -78 192 -270 -109c-41,-17 -77,-20 -108,-9 -31,11 -54,34 -69,71 -6,15 -10,28 -11,41zm7584 -1459l373 529 -14 15 -374 -532 15 -12zm-281 199l372 529 -14 14 -374 -532 16 -11zm-175 498c3,24 14,49 32,74 26,37 58,64 95,81 38,16 76,28 114,34 4,14 5,28 2,42l-2 -9c-38,-6 -76,-17 -114,-33 -37,-17 -69,-44 -95,-81 -27,-38 -38,-74 -32,-108zm-152 13c-2,-24 0,-48 6,-71 9,-34 25,-67 49,-97 24,-31 54,-60 91,-86 22,-15 44,-29 67,-41 16,-9 31,-17 46,-23l18 25c-20,9 -41,19 -64,32 -23,12 -45,26 -67,41 -37,26 -67,55 -91,86 -24,30 -40,63 -49,97 -3,12 -5,25 -6,37zm-622 101l53 107c11,-21 25,-40 44,-58 19,-18 43,-35 73,-49 30,-15 60,-24 91,-27 31,-3 60,0 88,9 28,8 53,23 77,44 23,20 43,47 59,79 16,33 25,66 27,97 1,10 1,21 0,31 -2,-30 -11,-62 -27,-94 -16,-33 -36,-59 -59,-80 -24,-20 -49,-35 -77,-44 -28,-8 -57,-11 -88,-8 -31,2 -61,11 -91,26 -30,15 -54,31 -73,50 -19,18 -33,37 -44,58l-66 -135 13 -6zm259 371c0,-2 -1,-5 -2,-8 -1,-9 -2,-18 0,-25 6,-1 12,-3 19,-6 7,-3 14,-6 20,-9 29,-14 49,-35 60,-61 2,-6 4,-12 5,-18 3,19 1,36 -5,51 -11,27 -31,48 -60,62 -6,3 -13,6 -20,9 -6,2 -11,4 -17,5zm-143 -136l170 342 -12 10 -165 -333c2,-6 4,-13 7,-19zm-498 184l0 -7c-1,-30 3,-58 13,-85 10,-26 25,-49 45,-71 20,-21 43,-38 69,-51 37,-18 66,-25 89,-20 22,4 38,16 48,36 9,19 12,37 8,55 -2,-7 -5,-14 -8,-21 -10,-20 -26,-32 -48,-36 -23,-5 -52,2 -89,20 -26,13 -49,30 -69,51 -20,21 -35,45 -45,71 -7,18 -11,37 -13,58zm152 -12c2,12 6,24 13,37 15,31 37,51 67,60 29,8 61,4 95,-13 26,-13 46,-29 59,-48 8,-11 14,-22 18,-33l6 13c-3,17 -11,36 -24,54 -13,19 -33,35 -59,48 -34,17 -66,21 -95,12 -30,-8 -52,-28 -67,-59 -13,-26 -17,-49 -13,-71zm-469 -83l237 597 -10 8 -239 -600 12 -5zm-251 464c1,2 2,5 4,9l21 54c-3,3 -6,7 -9,10l-12 -31c-8,-17 -9,-32 -4,-42zm-185 -6c-4,-24 0,-45 10,-65 15,-29 43,-52 84,-68l259 -104 12 30 -271 107c-41,17 -69,39 -84,69 -5,10 -8,20 -10,31zm-149 -225l144 621 -7 4 -144 -622 3 -1 4 -2zm-350 77l31 135c3,14 4,25 1,35l-1 -2 -38 -166 7 -2zm-296 392c1,7 2,15 4,23 6,23 14,43 27,59 12,17 27,30 44,39 17,10 36,16 56,18 21,2 42,1 63,-4 30,-7 51,-17 63,-30 5,-6 8,-12 10,-19 5,22 1,40 -10,53 -12,13 -33,23 -63,30 -21,5 -42,6 -63,4 -20,-2 -39,-8 -56,-18 -17,-9 -32,-22 -44,-39 -13,-17 -21,-36 -27,-60 -4,-20 -6,-39 -4,-56zm253 10c-4,-6 -7,-13 -10,-19 5,-11 14,-20 26,-29 13,-8 27,-15 43,-18 14,-3 27,-4 41,-2 14,1 27,5 39,12 12,7 22,16 31,28 9,12 15,27 19,45 4,17 5,33 3,49 -1,-5 -2,-10 -3,-15 -4,-18 -10,-33 -19,-45 -9,-12 -19,-21 -31,-28 -12,-7 -25,-11 -39,-13 -14,-1 -27,-1 -41,2 -16,4 -30,10 -43,19 -6,4 -12,9 -16,14zm173 152c20,22 41,41 61,58 26,21 49,38 69,52 1,12 0,22 -3,32 -20,-14 -42,-31 -66,-50 -25,-21 -49,-45 -74,-72 5,-6 9,-13 13,-20zm-577 -159c-1,-18 0,-36 2,-54 5,-34 17,-65 36,-94 19,-28 45,-53 78,-74 32,-22 73,-38 122,-49l75 -18 7 32 -82 20c-49,11 -90,27 -122,49 -33,21 -59,46 -78,74 -19,28 -31,59 -36,94 -1,6 -1,13 -2,20zm-188 -358l-1 -10c-1,-11 -1,-20 1,-27l681 -158 293 -67 629 -251c16,-6 29,-5 41,3 -1,-3 -1,-6 -1,-8l936 -463c-2,-7 -4,-12 -6,-17l640 -450 0 -1 52 -36c12,4 24,7 36,8l-88 62 0 0 -640 451c2,5 4,10 6,16l-936 463c0,3 0,6 1,9 -12,-8 -25,-9 -41,-3l-629 251 -293 67 -681 157 0 4zm3112 -1694c-2,-16 -1,-33 2,-50 9,-47 38,-88 87,-122 36,-26 66,-38 88,-35 22,2 40,12 53,30 11,16 16,33 15,50l-6 1c-2,-5 -5,-11 -9,-17 -13,-18 -31,-28 -53,-30 -22,-3 -52,9 -88,35 -49,34 -78,74 -87,122 -1,5 -2,11 -2,16zm151 -8c3,14 9,28 19,42 14,20 32,36 54,49 22,12 45,21 70,27l89 -63c25,-17 48,-11 69,20 4,6 9,14 14,24 4,10 7,19 9,26l-10 7c-4,-10 -9,-18 -13,-24 -21,-30 -44,-37 -69,-19l-89 63c-25,-6 -48,-15 -70,-27 -22,-13 -40,-29 -54,-49 -18,-26 -24,-51 -19,-76zm-4584 2487c0,-5 -1,-10 0,-16l3 -96 1 -1 -4 113zm-494 -371c-1,-8 -1,-16 -1,-24 0,-10 3,-20 7,-27 5,-8 13,-12 25,-13 53,-3 92,-13 117,-31 22,-16 34,-37 38,-63 1,7 1,14 1,21 -1,32 -14,57 -39,76 -25,18 -64,28 -117,31 -12,1 -20,5 -25,13 -3,5 -5,11 -6,17zm-79 -318c-1,-6 -1,-13 -1,-20 0,-8 1,-17 3,-27 2,-11 5,-19 9,-26l799 27 0 0 115 4c7,11 14,23 19,35l-134 -5 0 0 -799 -27c-4,6 -7,15 -9,25 -1,5 -1,10 -2,14zm672 -269l0 0c-1,-3 -1,-6 -1,-10 0,-3 0,-7 0,-11 1,-25 9,-46 23,-63 14,-17 35,-25 63,-24 28,1 57,11 89,30 31,19 61,44 90,76 28,31 55,67 79,108 22,36 39,73 53,112 0,-3 1,-6 2,-8l776 -59c24,-2 40,9 46,32 0,4 0,9 1,13 0,10 1,19 3,26l0 9 -1 1c-3,-34 -20,-49 -49,-47l-776 59c-1,2 -2,5 -2,8 -14,-39 -31,-76 -53,-112 -24,-41 -51,-77 -79,-108 -29,-32 -59,-57 -90,-76 -32,-20 -61,-30 -89,-31 -28,-1 -49,8 -63,25 -12,14 -19,31 -22,50zm1095 301l49 639 -2 1 -49 -639 2 -1zm-346 27c12,19 23,41 32,65 15,37 25,78 28,121 1,17 2,34 1,49l-1 -15c-3,-44 -13,-84 -28,-122 -15,-37 -33,-69 -53,-97l21 -1zm-240 393l-1 -6c-2,-20 1,-39 8,-58 13,2 24,2 35,2 35,-3 62,-18 82,-45 14,-19 22,-45 24,-79 2,50 -6,88 -24,113 -20,27 -47,42 -82,44 -11,1 -22,1 -35,-1 -4,10 -6,20 -7,30zm-263 249c-1,-5 -1,-11 -1,-17l20 -581 1 0 -20 598zm-505 -230c38,1 71,-5 100,-18 28,-13 51,-28 69,-46l10 -316 1 0 -11 350c-18,18 -41,33 -69,46 -29,13 -62,19 -100,18 -52,-2 -93,-16 -124,-41 -30,-25 -51,-55 -62,-90l14 -2c11,22 27,41 48,58 31,26 72,39 124,41zm-21 -387c3,6 7,11 10,17 11,21 16,44 15,69 0,5 0,9 -1,13 -1,-17 -6,-33 -14,-48 -11,-21 -24,-38 -39,-52l29 1zm-4384 -1369c7,30 28,59 65,85 5,4 10,8 16,11 5,4 11,7 16,10 25,-23 51,-40 79,-52 28,-11 57,-17 85,-17 28,0 56,4 83,13 27,8 53,21 77,39 31,22 54,46 71,72 16,26 29,53 36,79 29,-2 58,1 86,9 29,7 56,21 83,40 15,11 30,25 43,39l67 -91 16 11 -83 114c-13,-15 -28,-28 -43,-39 -27,-20 -54,-33 -83,-41 -28,-7 -57,-10 -86,-8 -7,-26 -20,-53 -36,-79 -17,-26 -40,-50 -71,-73 -24,-17 -50,-30 -77,-39 -27,-8 -55,-13 -83,-12 -28,0 -57,6 -85,17 -28,12 -54,29 -79,51 -5,-2 -11,-6 -16,-9 -6,-3 -11,-7 -16,-11 -37,-27 -59,-56 -65,-87 -2,-10 -2,-21 0,-32zm1079 -18c30,22 58,34 86,39 28,4 53,1 74,-7 13,14 22,29 25,47 2,10 2,19 -1,29 -4,-16 -12,-30 -24,-42 -21,8 -46,10 -74,6 -28,-4 -56,-16 -86,-38 -29,-21 -49,-44 -62,-69 -13,-26 -19,-50 -19,-74 -17,-8 -34,-11 -51,-9 -18,3 -32,12 -44,28 -7,10 -12,21 -14,33 -5,-26 0,-48 14,-67 12,-16 26,-25 44,-27 17,-3 34,0 51,8 0,24 6,48 19,74 13,25 33,49 62,69zm1810 1396l221 52 53 -225 7 2 -60 257 -228 -54 7 -32z"/>
  <path class="fil20" d="M11982 9073l0 463c-6,1 -14,3 -23,5 -9,2 -19,3 -31,3 -28,0 -47,-5 -58,-14 -10,-9 -15,-23 -15,-44l0 -413 -44 0 -14 0 -1 0 -70 0 0 463c-6,1 -13,3 -23,5 -9,2 -19,3 -31,3 -28,0 -47,-5 -57,-14 -11,-9 -16,-23 -16,-44l0 -70c-16,10 -33,19 -52,24 -20,6 -42,9 -67,9 -42,0 -80,-9 -114,-25 -34,-17 -61,-40 -81,-69 -14,-19 -24,-39 -31,-60 -6,-20 -10,-38 -10,-52 0,-8 2,-15 5,-21 3,-7 9,-10 19,-11 34,-4 59,-12 75,-24 15,-12 23,-28 23,-49 0,-14 -3,-27 -11,-38 -7,-11 -16,-20 -28,-27l-87 0 -21 0 0 0 -74 0 0 99c0,28 -16,42 -47,42l-154 0c-19,0 -32,4 -40,11 -7,7 -11,16 -11,28 0,8 2,15 7,21 4,6 9,11 16,14 15,-4 31,-7 46,-9 16,-3 32,-4 49,-4 58,0 101,12 129,36 29,24 43,55 43,93 0,25 -5,47 -15,65 -10,19 -24,34 -43,46 -18,13 -41,22 -67,28 -26,7 -56,10 -89,10 -28,0 -56,-3 -82,-7 -26,-5 -49,-11 -69,-19 -20,-9 -36,-19 -48,-31 -12,-12 -18,-25 -18,-41 0,-16 5,-29 14,-39 10,-10 20,-17 32,-22 9,8 19,16 31,23 11,8 24,15 38,21 15,6 30,11 47,14 17,4 35,6 54,6 29,0 51,-5 65,-13 14,-9 21,-21 21,-37 0,-28 -27,-43 -79,-43 -16,0 -31,2 -46,5 -15,3 -29,7 -43,11 -13,-4 -27,-10 -42,-17 -14,-8 -27,-17 -39,-28 -12,-11 -22,-25 -30,-39 -8,-15 -13,-33 -13,-52 0,-36 13,-64 39,-85 26,-21 61,-31 106,-31l112 0 0 -56 -277 0 -17 0 -1 0 -66 0 0 463c-7,1 -15,3 -24,5 -9,2 -19,3 -31,3 -28,0 -47,-5 -57,-14 -10,-9 -15,-23 -15,-44l0 -413 -38 0 -21 0 0 0 -73 0 0 99c0,28 -16,42 -47,42l-154 0c-19,0 -32,4 -40,11 -7,7 -11,16 -11,28 0,8 2,15 6,21 5,6 10,11 17,14 15,-4 31,-7 46,-9 16,-3 32,-4 49,-4 58,0 101,12 129,36 29,24 43,55 43,93 0,24 -5,46 -15,64 -11,18 -25,33 -44,45 -19,11 -41,20 -67,26 -26,6 -54,9 -84,9 15,14 31,26 48,38 16,11 33,22 50,32 -1,22 -8,40 -21,55 -13,14 -32,21 -56,21 -21,0 -40,-6 -57,-20 -17,-13 -34,-34 -50,-65l-38 -70c-30,-7 -54,-18 -71,-32 -18,-14 -26,-31 -26,-51 0,-16 4,-29 14,-39 10,-11 20,-18 32,-23 18,16 41,30 70,44 28,13 62,20 100,20 29,0 50,-5 64,-13 15,-9 22,-21 22,-37 0,-28 -27,-43 -79,-43 -16,0 -31,2 -46,5 -15,3 -29,7 -43,11 -13,-4 -27,-10 -42,-17 -14,-8 -28,-17 -39,-28 -12,-11 -22,-25 -30,-39 -9,-15 -13,-33 -13,-52 0,-36 13,-64 39,-85 26,-21 61,-31 106,-31l112 0 0 -56 -294 0c-14,0 -23,-4 -29,-12 -5,-8 -8,-20 -8,-36 0,-6 1,-14 2,-23 2,-9 4,-16 6,-22l494 0 21 0 58 0c-4,-9 -7,-20 -10,-32 -3,-13 -4,-26 -4,-39 0,-28 6,-52 17,-74 11,-22 27,-41 48,-56 20,-15 46,-27 76,-35 30,-8 64,-12 102,-12 52,0 99,6 142,17 42,11 79,24 109,40 31,16 55,33 72,51 17,18 25,33 25,47 0,16 -7,28 -21,38 -14,9 -33,14 -59,14 -32,-34 -69,-60 -110,-78 -42,-18 -91,-28 -147,-28 -40,0 -71,8 -92,24 -22,16 -32,39 -32,68 0,22 4,40 12,55l45 0 19 0 476 0 21 0 556 0 15 0 257 0c24,0 36,16 36,47 0,6 -1,15 -2,24 -2,10 -4,17 -7,22l-85 0zm-5032 -2170c41,205 107,652 81,704 -59,118 -22,216 57,305 47,52 100,99 149,149 32,33 64,66 92,103 89,116 66,200 -69,256 -16,7 -32,11 -47,18 -29,15 -40,43 -27,74 8,20 20,38 30,58 26,58 12,109 -42,143 -27,17 -58,27 -87,40 -24,10 -48,20 -72,39 23,5 46,10 70,15 35,8 73,12 107,26 53,21 69,67 46,119 -4,10 -9,19 -15,27 -62,77 -61,161 -33,250 26,81 3,139 -76,176 -101,48 -212,53 -322,59 -33,1 -67,0 -100,0 -68,2 -95,54 -113,105 -3,11 -7,21 -10,32 400,894 1296,1516 2338,1516 940,0 1762,-506 2207,-1261l322 0c-472,916 -1427,1542 -2529,1542 -401,0 -782,-83 -1128,-233l-1052 976 416 -1356c-657,-521 -1078,-1326 -1078,-2230 0,-1570 1272,-2843 2842,-2843 1046,0 1960,565 2454,1406l-333 0c-461,-679 -1239,-1125 -2121,-1125 -785,0 -1487,354 -1957,910zm-429 2585c4,-7 9,-14 13,-21 42,-73 108,-91 189,-93 97,-3 193,-17 289,-27 15,-2 30,-8 44,-13 56,-22 61,-36 45,-92 -29,-108 -31,-213 43,-306 3,-4 6,-8 8,-13 1,-2 1,-5 2,-13 -32,-5 -66,-7 -96,-17 -45,-15 -92,-32 -131,-57 -40,-26 -40,-71 -3,-101 27,-22 61,-37 93,-52 31,-14 64,-24 96,-37 23,-10 32,-25 16,-48 -8,-13 -14,-27 -21,-41 -38,-71 -7,-174 83,-207 16,-6 31,-12 46,-18 63,-27 72,-50 29,-102 -53,-63 -111,-121 -169,-178 -82,-80 -157,-163 -180,-279 -7,-35 -4,-74 2,-110 5,-31 20,-60 30,-90 12,-33 -38,-369 -74,-577 -332,432 -529,972 -529,1559 0,329 62,644 175,933zm1223 -704c-2,-140 -54,-267 -155,-376 -40,-43 -33,-91 18,-105 19,-5 52,6 67,21 137,143 201,315 190,514 -10,160 -71,301 -181,419 -28,31 -59,52 -98,20 -31,-25 -27,-61 11,-103 97,-108 147,-235 148,-390zm519 97c-1,150 -80,357 -238,533 -7,8 -14,15 -21,22 -30,31 -63,40 -95,9 -31,-31 -21,-63 7,-92 82,-84 145,-180 181,-292 96,-299 43,-569 -163,-807 -10,-10 -20,-20 -29,-30 -20,-27 -22,-57 4,-79 25,-22 57,-29 84,-2 27,27 53,54 77,85 127,167 194,355 193,653zm399 -84c-4,301 -105,564 -308,787 -11,12 -21,24 -33,34 -27,23 -57,26 -83,0 -27,-26 -25,-57 -3,-84 24,-30 53,-56 76,-86 244,-320 295,-669 154,-1046 -47,-126 -123,-234 -214,-333 -17,-18 -30,-49 -28,-72 7,-49 65,-58 106,-19 101,101 179,219 236,350 65,149 98,306 97,469zm449 2814c-442,0 -863,-81 -1249,-227l-449 328c376,148 785,228 1213,228 754,0 1450,-251 2008,-674 -457,220 -974,345 -1523,345zm-2190 -770c-696,-571 -1135,-1408 -1135,-2342 0,-1718 1488,-3112 3325,-3112 136,0 269,8 401,23 -282,-78 -579,-120 -886,-120 -1836,0 -3325,1489 -3325,3325 0,1172 606,2202 1522,2794l98 -568zm2933 -3042l0 715c-10,2 -22,5 -36,8 -14,3 -30,4 -48,4 -44,0 -73,-7 -89,-21 -15,-14 -23,-36 -23,-68l0 -62c-24,15 -52,26 -84,35 -32,8 -69,12 -110,12 -42,0 -81,-6 -117,-18 -37,-13 -68,-31 -96,-55 -27,-24 -48,-53 -63,-88 -15,-35 -23,-74 -23,-117 0,-41 7,-77 21,-110 15,-33 35,-61 61,-84 25,-24 56,-42 91,-55 35,-13 73,-20 115,-20 47,0 82,9 105,27 23,18 35,43 35,73 0,12 -2,24 -6,35 -4,12 -8,22 -14,30 -7,-2 -17,-4 -29,-5 -12,-2 -26,-3 -41,-3 -23,0 -42,3 -58,8l213 161 0 -402 -537 0c-22,0 -36,-6 -45,-18 -8,-13 -12,-32 -12,-56 0,-11 1,-23 3,-36 3,-14 6,-25 9,-34l843 0 24 0 113 0c-15,-27 -35,-53 -60,-76 -24,-24 -50,-45 -77,-64 -28,-19 -55,-35 -83,-49 -29,-13 -55,-23 -79,-29 -1,-5 -1,-9 -1,-13 0,-5 0,-9 0,-14 0,-32 9,-60 27,-85 18,-24 46,-36 84,-36 34,0 68,10 103,31 36,20 69,48 102,83 32,34 62,74 89,117 27,44 49,89 66,135l88 0 24 0 1038 0 22 0 397 0c38,0 57,24 57,72 0,10 -1,23 -4,38 -3,15 -7,26 -11,34l-130 0 0 715c-11,2 -23,5 -36,8 -14,3 -30,4 -49,4 -43,0 -73,-7 -88,-21 -16,-14 -24,-36 -24,-68l0 -638 -69 0 -21 0 -1 0 -110 0 0 715c-9,2 -20,5 -34,8 -14,3 -30,4 -49,4 -43,0 -73,-7 -88,-21 -16,-14 -24,-36 -24,-68l0 -357c-4,0 -7,0 -10,0 -2,-1 -5,-1 -9,-1 -44,0 -77,15 -98,46 -22,30 -32,81 -32,152 -28,9 -58,14 -92,14 -32,0 -56,-8 -71,-25 -15,-16 -23,-38 -23,-67 0,-38 6,-74 18,-106 -20,-9 -41,-14 -63,-14 -44,0 -77,13 -99,40 -22,27 -33,60 -33,98 0,31 6,57 17,79 12,22 27,41 45,55 19,14 39,25 62,33 23,8 45,13 68,16 1,5 2,10 2,15 0,5 0,9 0,14 0,30 -9,55 -26,76 -17,20 -47,31 -89,31 -34,0 -68,-8 -101,-22 -33,-15 -63,-36 -90,-64 -27,-28 -48,-61 -65,-101 -17,-40 -25,-85 -25,-134 0,-48 8,-91 23,-127 16,-37 37,-67 64,-91 27,-25 57,-43 92,-56 34,-12 70,-18 107,-18 42,0 78,5 108,17 31,11 58,26 81,43 23,-19 49,-34 79,-45 29,-10 62,-15 99,-15 11,0 22,0 31,1 10,1 20,2 30,4l0 -129 -735 0 -21 0 -1 0 -108 0 0 715c-10,2 -22,5 -36,8 -14,3 -30,4 -48,4 -44,0 -73,-7 -89,-21 -16,-14 -23,-36 -23,-68l0 -638 -70 0 -20 0 -1 0 -109 0zm-353 467c33,0 63,-5 89,-15l-211 -162c-11,18 -16,39 -16,62 0,36 13,64 39,84 27,21 60,31 99,31zm760 576c0,-20 7,-37 20,-51 14,-13 32,-20 54,-20 23,0 41,7 54,20 14,14 21,31 21,51 0,19 -7,36 -21,50 -13,14 -31,21 -54,21 -22,0 -40,-7 -54,-21 -13,-14 -20,-31 -20,-50zm1232 505c25,0 46,-5 63,-13 17,-8 32,-18 43,-30l0 -231 -141 0c11,10 19,22 27,35 7,14 11,29 11,45 0,35 -11,63 -34,82 -22,20 -51,33 -86,39 7,20 21,37 40,51 20,14 46,22 77,22z"/>
  <path class="fil21" d="M11982 9023l0 462c-6,2 -14,3 -23,5 -9,2 -19,3 -31,3 -28,0 -47,-5 -58,-13 -10,-9 -15,-24 -15,-44l0 -413 -44 0 -14 0 -1 0 -70 0 0 462c-6,2 -13,3 -23,5 -9,2 -19,3 -31,3 -28,0 -47,-5 -57,-13 -11,-9 -16,-24 -16,-44l0 -71c-16,11 -33,19 -52,25 -20,5 -42,8 -67,8 -42,0 -80,-8 -114,-25 -34,-17 -61,-40 -81,-69 -14,-19 -24,-39 -31,-60 -6,-20 -10,-38 -10,-52 0,-8 2,-15 5,-21 3,-6 9,-10 19,-11 34,-4 59,-12 75,-23 15,-12 23,-29 23,-50 0,-14 -3,-27 -11,-38 -7,-11 -16,-20 -28,-26l-87 0 -21 0 0 0 -74 0 0 98c0,28 -16,42 -47,42l-154 0c-19,0 -32,4 -40,11 -7,7 -11,17 -11,28 0,8 2,15 7,21 4,6 9,11 16,15 15,-4 31,-8 46,-10 16,-3 32,-4 49,-4 58,0 101,12 129,36 29,24 43,55 43,93 0,25 -5,47 -15,66 -10,18 -24,34 -43,46 -18,12 -41,21 -67,28 -26,6 -56,9 -89,9 -28,0 -56,-2 -82,-7 -26,-4 -49,-11 -69,-19 -20,-8 -36,-19 -48,-31 -12,-11 -18,-25 -18,-41 0,-16 5,-29 14,-39 10,-10 20,-17 32,-22 9,8 19,16 31,24 11,7 24,14 38,20 15,6 30,11 47,15 17,3 35,5 54,5 29,0 51,-4 65,-13 14,-9 21,-21 21,-36 0,-29 -27,-43 -79,-43 -16,0 -31,1 -46,4 -15,3 -29,7 -43,11 -13,-4 -27,-10 -42,-17 -14,-7 -27,-16 -39,-28 -12,-11 -22,-24 -30,-39 -8,-15 -13,-32 -13,-52 0,-36 13,-64 39,-85 26,-20 61,-31 106,-31l112 0 0 -55 -277 0 -17 0 -1 0 -66 0 0 462c-7,2 -15,3 -24,5 -9,2 -19,3 -31,3 -28,0 -47,-5 -57,-13 -10,-9 -15,-24 -15,-44l0 -413 -38 0 -21 0 0 0 -73 0 0 98c0,28 -16,42 -47,42l-154 0c-19,0 -32,4 -40,11 -7,7 -11,17 -11,28 0,8 2,15 6,21 5,6 10,11 17,15 15,-4 31,-8 46,-10 16,-3 32,-4 49,-4 58,0 101,12 129,36 29,24 43,55 43,93 0,25 -5,46 -15,64 -11,18 -25,33 -44,45 -19,12 -41,21 -67,26 -26,6 -54,9 -84,9 15,14 31,27 48,38 16,11 33,22 50,32 -1,22 -8,41 -21,55 -13,14 -32,21 -56,21 -21,0 -40,-6 -57,-19 -17,-13 -34,-35 -50,-66l-38 -70c-30,-7 -54,-17 -71,-32 -18,-14 -26,-31 -26,-51 0,-16 4,-29 14,-39 10,-10 20,-18 32,-23 18,16 41,30 70,44 28,13 62,20 100,20 29,0 50,-4 64,-13 15,-9 22,-21 22,-36 0,-29 -27,-43 -79,-43 -16,0 -31,1 -46,4 -15,3 -29,7 -43,11 -13,-4 -27,-10 -42,-17 -14,-7 -28,-16 -39,-28 -12,-11 -22,-24 -30,-39 -9,-15 -13,-32 -13,-52 0,-36 13,-64 39,-85 26,-20 61,-31 106,-31l112 0 0 -55 -294 0c-14,0 -23,-4 -29,-12 -5,-8 -8,-20 -8,-37 0,-6 1,-14 2,-23 2,-9 4,-16 6,-21l494 0 21 0 58 0c-4,-9 -7,-20 -10,-33 -3,-13 -4,-26 -4,-39 0,-28 6,-52 17,-74 11,-22 27,-40 48,-55 20,-16 46,-27 76,-35 30,-8 64,-12 102,-12 52,0 99,5 142,16 42,11 79,25 109,40 31,16 55,33 72,51 17,18 25,34 25,47 0,16 -7,29 -21,38 -14,10 -33,14 -59,14 -32,-34 -69,-60 -110,-78 -42,-18 -91,-27 -147,-27 -40,0 -71,8 -92,23 -22,16 -32,39 -32,68 0,22 4,41 12,56l45 0 19 0 476 0 21 0 556 0 15 0 257 0c24,0 36,15 36,46 0,7 -1,15 -2,24 -2,10 -4,17 -7,23l-85 0zm-5032 -2171c41,206 107,653 81,704 -59,118 -22,216 57,305 47,53 100,99 149,150 32,33 64,66 92,102 89,116 66,201 -69,256 -16,7 -32,11 -47,19 -29,14 -40,42 -27,73 8,20 20,38 30,58 26,58 12,109 -42,143 -27,17 -58,27 -87,40 -24,11 -48,20 -72,40 23,4 46,9 70,14 35,9 73,12 107,26 53,21 69,68 46,119 -4,10 -9,19 -15,27 -62,77 -61,162 -33,250 26,82 3,139 -76,176 -101,48 -212,53 -322,59 -33,2 -67,0 -100,0 -68,2 -95,54 -113,105 -3,11 -7,22 -10,33 400,893 1296,1515 2338,1515 940,0 1762,-506 2207,-1261l322 0c-472,916 -1427,1542 -2529,1542 -401,0 -782,-83 -1128,-232l-1052 976 416 -1357c-657,-521 -1078,-1326 -1078,-2230 0,-1570 1272,-2843 2842,-2843 1046,0 1960,565 2454,1406l-333 0c-461,-678 -1239,-1124 -2121,-1124 -785,0 -1487,353 -1957,909zm-429 2586c4,-8 9,-15 13,-22 42,-72 108,-91 189,-93 97,-3 193,-17 289,-27 15,-2 30,-8 44,-13 56,-22 61,-35 45,-92 -29,-108 -31,-212 43,-306 3,-4 6,-8 8,-13 1,-2 1,-4 2,-13 -32,-5 -66,-6 -96,-17 -45,-15 -92,-31 -131,-57 -40,-25 -40,-71 -3,-101 27,-22 61,-37 93,-52 31,-14 64,-24 96,-37 23,-9 32,-24 16,-48 -8,-13 -14,-27 -21,-41 -38,-70 -7,-173 83,-207 16,-6 31,-11 46,-18 63,-27 72,-49 29,-102 -53,-63 -111,-120 -169,-178 -82,-80 -157,-163 -180,-279 -7,-35 -4,-74 2,-109 5,-31 20,-61 30,-91 12,-33 -38,-368 -74,-576 -332,431 -529,972 -529,1558 0,330 62,644 175,934zm1223 -704c-2,-140 -54,-268 -155,-377 -40,-43 -33,-91 18,-105 19,-5 52,6 67,21 137,143 201,316 190,514 -10,160 -71,301 -181,420 -28,30 -59,51 -98,19 -31,-24 -27,-61 11,-102 97,-109 147,-236 148,-390zm519 97c-1,149 -80,356 -238,532 -7,8 -14,15 -21,23 -30,30 -63,40 -95,8 -31,-31 -21,-63 7,-91 82,-85 145,-181 181,-293 96,-299 43,-569 -163,-806 -10,-11 -20,-20 -29,-31 -20,-27 -22,-57 4,-79 25,-22 57,-28 84,-2 27,27 53,55 77,85 127,167 194,356 193,654zm399 -85c-4,301 -105,564 -308,788 -11,11 -21,23 -33,33 -27,24 -57,26 -83,0 -27,-26 -25,-56 -3,-84 24,-30 53,-55 76,-85 244,-320 295,-670 154,-1047 -47,-126 -123,-234 -214,-333 -17,-17 -30,-49 -28,-72 7,-49 65,-58 106,-19 101,101 179,219 236,350 65,150 98,306 97,469zm449 2814c-442,0 -863,-81 -1249,-227l-449 329c376,147 785,228 1213,228 754,0 1450,-252 2008,-675 -457,221 -974,345 -1523,345zm-2190 -770c-696,-570 -1135,-1408 -1135,-2342 0,-1718 1488,-3111 3325,-3111 136,0 269,7 401,22 -282,-78 -579,-119 -886,-119 -1836,0 -3325,1488 -3325,3325 0,1171 606,2201 1522,2794l98 -569zm2933 -3041l0 714c-10,3 -22,5 -36,8 -14,3 -30,4 -48,4 -44,0 -73,-7 -89,-21 -15,-13 -23,-36 -23,-67l0 -63c-24,15 -52,27 -84,35 -32,8 -69,12 -110,12 -42,0 -81,-6 -117,-18 -37,-13 -68,-31 -96,-55 -27,-24 -48,-53 -63,-88 -15,-34 -23,-73 -23,-117 0,-40 7,-77 21,-110 15,-33 35,-61 61,-84 25,-24 56,-42 91,-55 35,-13 73,-19 115,-19 47,0 82,9 105,27 23,18 35,42 35,72 0,12 -2,24 -6,36 -4,11 -8,21 -14,29 -7,-1 -17,-3 -29,-5 -12,-2 -26,-3 -41,-3 -23,0 -42,3 -58,8l213 161 0 -401 -537 0c-22,0 -36,-7 -45,-19 -8,-13 -12,-31 -12,-56 0,-10 1,-22 3,-36 3,-14 6,-25 9,-33l843 0 24 0 113 0c-15,-28 -35,-54 -60,-77 -24,-24 -50,-45 -77,-64 -28,-19 -55,-35 -83,-48 -29,-14 -55,-24 -79,-30 -1,-5 -1,-9 -1,-13 0,-4 0,-9 0,-13 0,-33 9,-61 27,-85 18,-25 46,-37 84,-37 34,0 68,10 103,31 36,21 69,48 102,83 32,35 62,74 89,118 27,44 49,89 66,135l88 0 24 0 1038 0 22 0 397 0c38,0 57,24 57,72 0,10 -1,22 -4,37 -3,15 -7,26 -11,35l-130 0 0 714c-11,3 -23,5 -36,8 -14,3 -30,4 -49,4 -43,0 -73,-7 -88,-21 -16,-13 -24,-36 -24,-67l0 -638 -69 0 -21 0 -1 0 -110 0 0 714c-9,3 -20,5 -34,8 -14,3 -30,4 -49,4 -43,0 -73,-7 -88,-21 -16,-13 -24,-36 -24,-67l0 -357c-4,0 -7,-1 -10,-1 -2,-1 -5,-1 -9,-1 -44,0 -77,15 -98,46 -22,30 -32,81 -32,152 -28,9 -58,14 -92,14 -32,0 -56,-8 -71,-24 -15,-16 -23,-39 -23,-67 0,-39 6,-75 18,-107 -20,-9 -41,-14 -63,-14 -44,0 -77,14 -99,40 -22,27 -33,60 -33,99 0,30 6,56 17,79 12,22 27,40 45,54 19,15 39,26 62,33 23,8 45,14 68,16 1,5 2,10 2,15 0,5 0,10 0,14 0,30 -9,55 -26,76 -17,21 -47,31 -89,31 -34,0 -68,-7 -101,-22 -33,-15 -63,-36 -90,-64 -27,-28 -48,-61 -65,-101 -17,-40 -25,-84 -25,-134 0,-48 8,-90 23,-127 16,-36 37,-67 64,-91 27,-25 57,-43 92,-56 34,-12 70,-18 107,-18 42,0 78,6 108,17 31,12 58,26 81,44 23,-20 49,-35 79,-45 29,-11 62,-16 99,-16 11,0 22,0 31,1 10,1 20,2 30,4l0 -128 -735 0 -21 0 -1 0 -108 0 0 714c-10,3 -22,5 -36,8 -14,3 -30,4 -48,4 -44,0 -73,-7 -89,-21 -16,-13 -23,-36 -23,-67l0 -638 -70 0 -20 0 -1 0 -109 0zm-353 466c33,0 63,-5 89,-15l-211 -162c-11,18 -16,39 -16,62 0,36 13,64 39,85 27,20 60,30 99,30zm760 576c0,-20 7,-37 20,-50 14,-14 32,-21 54,-21 23,0 41,7 54,21 14,13 21,30 21,50 0,19 -7,36 -21,50 -13,14 -31,21 -54,21 -22,0 -40,-7 -54,-21 -13,-14 -20,-31 -20,-50zm1232 505c25,0 46,-4 63,-13 17,-8 32,-18 43,-30l0 -230 -141 0c11,9 19,21 27,35 7,13 11,28 11,44 0,36 -11,63 -34,82 -22,20 -51,33 -86,39 7,20 21,37 40,51 20,15 46,22 77,22z"/>
  <path class="fil22" d="M11248 9223c-2,-12 -4,-22 -4,-31 0,-8 2,-15 5,-21 3,-6 9,-10 19,-11 34,-4 59,-12 75,-23 9,-7 15,-15 19,-25 3,8 4,17 4,26 0,21 -8,37 -23,49 -16,12 -41,20 -75,24 -10,1 -16,4 -19,11l-1 1zm-346 4c4,4 8,8 14,11 15,-4 31,-8 46,-10 16,-3 32,-4 49,-4 58,0 101,12 129,36 29,24 43,55 43,93 0,10 0,18 -2,27 -5,-28 -18,-51 -41,-69 -28,-24 -71,-36 -129,-36 -17,0 -33,1 -49,4 -15,2 -31,5 -46,9 -7,-3 -12,-8 -16,-14 -5,-6 -7,-13 -7,-21 0,-11 3,-19 9,-26zm-145 202c-3,-8 -5,-16 -5,-25 0,-16 5,-29 14,-39 10,-10 20,-17 32,-22 9,8 19,16 31,24 11,7 24,14 38,20 15,6 30,11 47,15 17,3 35,5 54,5 29,0 51,-4 65,-13 4,-3 8,-6 11,-10 7,7 10,15 10,24 0,16 -7,28 -21,37 -14,8 -36,13 -65,13 -19,0 -37,-2 -54,-6 -17,-3 -32,-8 -47,-14 -14,-6 -27,-13 -38,-21 -12,-7 -22,-15 -31,-23 -12,5 -22,12 -32,22 -4,4 -6,8 -9,13zm8 -210c-2,-8 -3,-16 -3,-25 0,-36 13,-64 39,-85 26,-20 61,-31 106,-31l112 0 0 51 -112 0c-45,0 -80,10 -106,31 -19,15 -31,35 -36,59zm-609 8c4,4 8,8 14,11 15,-4 31,-8 46,-10 16,-3 32,-4 49,-4 58,0 101,12 129,36 29,24 43,55 43,93 0,9 0,18 -2,26 -5,-27 -18,-50 -41,-68 -28,-24 -71,-36 -129,-36 -17,0 -33,1 -49,4 -15,2 -31,5 -46,9 -7,-3 -12,-8 -17,-14 -4,-6 -6,-13 -6,-21 0,-11 3,-19 9,-26zm132 317c12,8 25,16 37,23 0,17 -5,31 -12,43 -13,-7 -26,-16 -38,-24 -17,-12 -33,-24 -48,-38 21,0 42,-1 61,-4zm-277 -114c-4,-8 -5,-16 -5,-25 0,-16 4,-29 14,-39 10,-10 20,-18 32,-23 18,16 41,30 70,44 28,13 62,20 100,20 29,0 50,-4 64,-13 5,-3 9,-6 12,-10 6,7 10,15 10,24 0,16 -7,28 -22,37 -14,8 -35,13 -64,13 -38,0 -72,-7 -100,-20 -29,-14 -52,-28 -70,-44 -12,5 -22,12 -32,23 -4,4 -7,8 -9,13zm8 -211c-2,-8 -3,-16 -3,-25 0,-36 13,-64 39,-85 26,-20 61,-31 106,-31l112 0 0 51 -112 0c-45,0 -80,10 -106,31 -19,15 -31,35 -36,59zm-74 -220c-2,-7 -3,-15 -3,-25 0,-6 1,-14 2,-23 2,-9 4,-16 6,-21l494 0 21 0 45 0c1,6 2,12 3,18 3,12 6,23 10,32l-58 0 -21 0 -494 0c-2,5 -4,11 -5,19zm566 -116c-1,-8 -2,-17 -2,-25 0,-28 6,-52 17,-74 11,-22 27,-40 48,-55 20,-16 46,-27 76,-35 30,-8 64,-12 102,-12 52,0 99,5 142,16 42,11 79,25 109,40 31,16 55,33 72,51 17,18 25,34 25,47 0,10 -3,19 -8,26 -4,-7 -10,-14 -17,-22 -17,-18 -41,-35 -72,-51 -30,-16 -67,-29 -109,-40 -43,-11 -90,-17 -142,-17 -38,0 -72,4 -102,12 -30,8 -56,20 -76,35 -21,15 -37,34 -48,56 -8,15 -13,31 -15,48zm130 19c2,10 6,19 10,28l45 0 19 0 296 0 9 9c21,0 38,-3 51,-9l120 0 21 0 556 0 15 0 257 0c24,0 36,15 36,46 0,7 -1,15 -2,24l-1 3c-5,-15 -16,-23 -33,-23l-257 0 -15 0 -556 0 -21 0 -476 0 -19 0 -45 0c-8,-15 -12,-33 -12,-55 0,-8 1,-16 2,-23zm-3683 -2008c37,194 85,529 78,634 -6,-149 -53,-463 -86,-625l8 -9zm46 801c7,60 38,114 84,166 47,53 100,99 149,150 32,33 64,66 92,102 44,57 61,106 50,148 -6,-30 -23,-62 -50,-97 -28,-37 -60,-70 -92,-103 -49,-50 -102,-97 -149,-149 -58,-66 -94,-137 -84,-217zm183 767c8,20 20,38 29,57 12,28 15,55 9,79 -2,-9 -5,-19 -9,-28 -10,-20 -22,-38 -30,-58 -7,-18 -7,-36 1,-50zm-106 294l4 0c35,9 73,12 107,26 47,18 65,57 53,101 -8,-22 -25,-40 -53,-50 -34,-14 -72,-18 -107,-26 -24,-5 -47,-10 -70,-15 21,-17 44,-27 66,-36zm92 342c2,26 8,53 17,80 10,31 13,59 8,84 -2,-11 -4,-22 -8,-33 -14,-45 -21,-89 -17,-131zm-595 474c405,882 1296,1494 2329,1494 940,0 1762,-506 2207,-1261l322 0c-9,17 -18,34 -27,51l-295 0c-445,755 -1267,1261 -2207,1261 -1042,0 -1938,-622 -2338,-1516 3,-10 6,-19 9,-29zm171 2498l-22 21 404 -1316 12 10 -394 1285zm-684 -3533l0 -33c0,-1570 1272,-2843 2842,-2843 1046,0 1960,565 2454,1406l-31 0c-500,-813 -1398,-1355 -2423,-1355 -1564,0 -2833,1263 -2842,2825zm456 901c4,-8 9,-15 13,-22 42,-72 108,-91 189,-93 97,-3 193,-17 289,-27 15,-2 30,-8 44,-13 26,-10 41,-19 48,-31 12,48 4,61 -48,82 -14,5 -29,11 -44,13 -96,10 -192,24 -289,27 -81,2 -147,20 -189,93 -4,7 -9,14 -13,21 -113,-289 -175,-604 -175,-933l0 -26c3,320 65,627 175,909zm562 -347c-4,-64 7,-126 46,-185 8,1 16,3 25,4 -1,8 -1,11 -2,13 -2,5 -5,9 -8,13 -39,49 -56,101 -61,155zm-180 -331c-13,-24 -6,-54 21,-76 27,-22 61,-37 93,-52 31,-14 64,-24 96,-37 4,-2 8,-3 11,-5 2,2 3,5 5,8 16,23 7,38 -16,48 -32,13 -65,23 -96,37 -32,15 -66,30 -93,52 -9,8 -16,16 -21,25zm191 -293c-11,-66 23,-140 97,-168 16,-6 31,-11 46,-18 22,-9 37,-18 46,-27 22,36 7,56 -46,78 -15,6 -30,12 -46,18 -55,20 -88,67 -97,117zm-180 -764c-2,-30 0,-61 5,-90 5,-31 20,-61 30,-91l1 -1c1,27 2,45 -1,52 -10,30 -25,59 -30,90 -2,13 -4,26 -5,40zm656 626c-16,-34 -3,-66 37,-77 19,-5 52,6 67,21 133,139 197,305 190,495 -5,-169 -69,-318 -190,-444 -15,-15 -48,-26 -67,-21 -18,5 -31,14 -37,26zm1 881c-14,-23 -5,-53 25,-86 91,-102 141,-220 147,-362 1,8 1,15 1,22 -1,155 -51,282 -148,390 -12,13 -20,25 -25,36zm692 -379l0 11c-5,-276 -72,-454 -193,-614 -24,-31 -50,-58 -77,-85 -27,-27 -59,-20 -84,2 -5,4 -10,9 -13,14 -11,-23 -9,-46 13,-65 25,-22 57,-28 84,-2 27,27 53,55 77,85 127,167 194,356 193,654zm-366 548c-15,-26 -4,-52 19,-76 82,-85 145,-181 181,-293 28,-87 43,-171 46,-252 3,97 -12,198 -46,303 -36,112 -99,208 -181,292 -8,9 -14,17 -19,26zm765 -633l0 15c-4,-150 -37,-295 -97,-433 -57,-131 -135,-249 -236,-350 -36,-34 -84,-31 -101,2 -4,-12 -6,-23 -5,-34 7,-49 65,-58 106,-19 101,101 179,219 236,350 65,150 98,306 97,469zm-437 804c-12,-22 -8,-45 10,-67 24,-30 53,-55 76,-85 149,-195 226,-402 231,-618 6,235 -71,458 -231,668 -23,30 -52,56 -76,86 -4,5 -8,11 -10,16zm886 2010c-442,0 -863,-81 -1249,-227l-449 329c16,6 31,11 46,17l403 -295c386,146 807,227 1249,227 471,0 920,-92 1327,-258 67,-44 132,-90 196,-138 -457,221 -974,345 -1523,345zm-2190 -770c-688,-564 -1125,-1389 -1135,-2309l0 18c0,930 436,1765 1127,2335l8 -44zm2264 -5453c111,3 220,10 327,22 -282,-78 -579,-119 -886,-119 -1836,0 -3325,1488 -3325,3325l0 31c11,-1827 1495,-3306 3325,-3306 191,0 377,17 559,47zm-19 2782c-1,-8 -1,-17 -1,-26 0,-40 7,-77 21,-110 15,-33 35,-61 61,-84 25,-24 56,-42 91,-55 35,-13 73,-19 115,-19 47,0 82,9 105,27 23,18 35,42 35,72 0,9 -1,18 -3,26 -5,-19 -16,-35 -32,-48 -23,-18 -58,-27 -105,-27 -42,0 -80,7 -115,20 -35,13 -66,31 -91,55 -26,23 -46,51 -61,84 -11,26 -18,54 -20,85zm335 -87l157 118 0 51 -213 -161c16,-5 34,-8 56,-8zm-435 -332c-2,-8 -2,-17 -2,-26 0,-10 1,-22 3,-36 3,-14 6,-25 9,-33l843 0 24 0 78 0c13,16 25,33 35,50l-113 0 -24 0 -843 0c-3,9 -6,20 -9,34l-1 11zm692 -314l-1 0c-1,-5 -1,-9 -1,-13 0,-4 0,-9 0,-13 0,-33 9,-61 27,-85 18,-25 46,-37 84,-37 34,0 68,10 103,31 36,21 69,48 102,83 32,35 62,74 89,118 27,44 49,89 66,135l88 0 24 0 1038 0 22 0 397 0c38,0 57,24 57,72 0,7 -1,15 -2,25 -6,-31 -24,-47 -55,-47l-397 0 -22 0 -1038 0 -24 0 -88 0c-17,-46 -39,-91 -66,-135 -27,-43 -57,-83 -89,-117 -33,-35 -66,-63 -102,-83 -35,-21 -69,-31 -103,-31 -38,0 -66,12 -84,36 -13,18 -22,39 -25,61zm1024 782c-1,-6 -2,-12 -2,-19 0,-22 2,-42 6,-61 4,1 8,3 12,5 -8,23 -14,48 -16,75zm-177 25c2,19 7,37 15,53 12,22 27,40 45,54 19,15 39,26 62,33 23,8 45,14 68,16 1,5 2,10 2,15 0,5 0,10 0,14 0,8 -1,15 -2,22 -23,-3 -46,-8 -68,-16 -23,-8 -43,-19 -62,-33 -18,-14 -33,-33 -45,-55 -11,-22 -17,-48 -17,-79 0,-8 1,-16 2,-24zm-203 -4c-1,-8 -1,-16 -1,-25 0,-48 8,-90 23,-127 16,-36 37,-67 64,-91 27,-25 57,-43 92,-56 34,-12 70,-18 107,-18 42,0 78,6 108,17 31,12 58,26 81,44 23,-20 49,-35 79,-45 29,-11 62,-16 99,-16 11,0 22,0 31,1 10,1 20,2 30,4l0 51c-10,-2 -20,-3 -30,-4 -9,-1 -20,-1 -31,-1 -37,0 -70,5 -99,15 -30,11 -56,26 -79,45 -23,-17 -50,-32 -81,-43 -30,-12 -66,-17 -108,-17 -37,0 -73,6 -107,18 -35,13 -65,31 -92,56 -27,24 -48,54 -64,91 -12,30 -20,64 -22,101zm-901 26c14,0 27,-1 39,-3l50 39c-26,10 -56,15 -89,15 -39,0 -72,-10 -99,-31 -26,-20 -39,-48 -39,-84 0,-9 1,-17 2,-25 5,24 18,43 37,59 27,20 60,30 99,30zm760 576c0,-20 7,-37 20,-50 14,-14 32,-21 54,-21 23,0 41,7 54,21 14,13 21,30 21,50 0,9 -2,17 -5,25 -3,-9 -8,-17 -16,-25 -13,-13 -31,-20 -54,-20 -22,0 -40,7 -54,20 -7,8 -12,16 -16,25 -3,-8 -4,-16 -4,-25zm1232 505c25,0 46,-4 63,-13 17,-8 32,-18 43,-30l0 51c-11,12 -26,22 -43,30 -17,8 -38,13 -63,13 -31,0 -57,-8 -77,-22 -19,-14 -33,-31 -40,-51 11,-2 21,-4 30,-8 3,3 7,6 10,8 20,15 46,22 77,22zm-1 -223c3,10 4,19 4,29 0,10 -1,20 -3,28 -2,-7 -4,-15 -8,-22 -8,-13 -16,-25 -27,-35l34 0z"/>
 </g>
</svg>
