<?xml version="1.0" encoding="UTF-8"?>
<!DOCTYPE svg PUBLIC "-//W3C//DTD SVG 1.1//EN" "http://www.w3.org/Graphics/SVG/1.1/DTD/svg11.dtd">
<!-- Creator: CorelDRAW X7 -->
<svg xmlns="http://www.w3.org/2000/svg" xml:space="preserve" width="484px" height="611px" version="1.1" style="shape-rendering:geometricPrecision; text-rendering:geometricPrecision; image-rendering:optimizeQuality; fill-rule:evenodd; clip-rule:evenodd"
viewBox="0 0 9575 12084"
 xmlns:xlink="http://www.w3.org/1999/xlink">
 <defs>
  <style type="text/css">
   <![CDATA[
    .fil3 {fill:none}
    .fil5 {fill:#70342D}
    .fil20 {fill:#7A1C09}
    .fil14 {fill:#C4491C}
    .fil19 {fill:white}
    .fil17 {fill:#7A1C09;fill-rule:nonzero}
    .fil11 {fill:#F6DFB4;fill-rule:nonzero}
    .fil6 {fill:#FFEBBF;fill-rule:nonzero}
    .fil16 {fill:#FFF5DF;fill-rule:nonzero}
    .fil7 {fill:#FFF7EB;fill-rule:nonzero}
    .fil23 {fill:white;fill-rule:nonzero}
    .fil1 {fill:#FFF0D4;fill-rule:nonzero;fill-opacity:0.501961}
    .fil13 {fill:url(#id0)}
    .fil10 {fill:url(#id1)}
    .fil4 {fill:url(#id2)}
    .fil12 {fill:url(#id3)}
    .fil9 {fill:url(#id4)}
    .fil8 {fill:url(#id5)}
    .fil0 {fill:url(#id6)}
    .fil2 {fill:url(#id7)}
    .fil21 {fill:url(#id8)}
    .fil15 {fill:url(#id9)}
    .fil18 {fill:url(#id10)}
    .fil22 {fill:url(#id11);fill-rule:nonzero}
   ]]>
  </style>
  <linearGradient id="id0" gradientUnits="userSpaceOnUse" x1="4787.75" y1="2098.23" x2="4787.75" y2="7751.59">
   <stop offset="0" style="stop-opacity:1; stop-color:#F4D8BA"/>
   <stop offset="0.278431" style="stop-opacity:1; stop-color:#F28F1D"/>
   <stop offset="0.541176" style="stop-opacity:1; stop-color:#BF391B"/>
   <stop offset="1" style="stop-opacity:1; stop-color:#D9601F"/>
  </linearGradient>
  <linearGradient id="id1" gradientUnits="userSpaceOnUse" x1="4787.66" y1="2119.2" x2="4787.75" y2="8000.71">
   <stop offset="0" style="stop-opacity:1; stop-color:#F08B18"/>
   <stop offset="0.470588" style="stop-opacity:1; stop-color:#AB1916"/>
   <stop offset="1" style="stop-opacity:1; stop-color:#D95E1C"/>
  </linearGradient>
  <linearGradient id="id2" gradientUnits="userSpaceOnUse" x1="4805.57" y1="424.21" x2="4805.57" y2="9554.04">
   <stop offset="0" style="stop-opacity:1; stop-color:#FFD991"/>
   <stop offset="0.258824" style="stop-opacity:1; stop-color:#EC9A3E"/>
   <stop offset="0.611765" style="stop-opacity:1; stop-color:#A12224"/>
   <stop offset="1" style="stop-opacity:1; stop-color:#CF5A1B"/>
  </linearGradient>
  <linearGradient id="id3" gradientUnits="userSpaceOnUse" x1="4786.47" y1="8304.46" x2="4786.56" y2="4787.66">
   <stop offset="0" style="stop-opacity:1; stop-color:#F6DFB4"/>
   <stop offset="1" style="stop-opacity:1; stop-color:#BC3416"/>
  </linearGradient>
  <linearGradient id="id4" gradientUnits="userSpaceOnUse" x1="8924.1" y1="4009.32" x2="8928.82" y2="5373.27">
   <stop offset="0" style="stop-opacity:1; stop-color:#FCE0AB"/>
   <stop offset="1" style="stop-opacity:1; stop-color:#D15C1E"/>
  </linearGradient>
  <linearGradient id="id5" gradientUnits="userSpaceOnUse" xlink:href="#id4" x1="797.671" y1="4009.32" x2="802.388" y2="5373.27">
  </linearGradient>
  <linearGradient id="id6" gradientUnits="userSpaceOnUse" x1="7235.93" y1="8774.07" x2="4822.83" y2="9123.48">
   <stop offset="0" style="stop-opacity:1; stop-color:red"/>
   <stop offset="1" style="stop-opacity:1; stop-color:#B00205"/>
  </linearGradient>
  <linearGradient id="id7" gradientUnits="userSpaceOnUse" x1="2405.76" y1="9569.62" x2="4350.28" y2="8330.36">
   <stop offset="0" style="stop-opacity:1; stop-color:#B00205"/>
   <stop offset="1" style="stop-opacity:1; stop-color:red"/>
  </linearGradient>
  <linearGradient id="id8" gradientUnits="userSpaceOnUse" x1="3628.23" y1="5756.66" x2="3628.48" y2="2908.28">
   <stop offset="0" style="stop-opacity:1; stop-color:#E3A96A"/>
   <stop offset="1" style="stop-opacity:1; stop-color:#FCE0AB"/>
  </linearGradient>
  <linearGradient id="id9" gradientUnits="userSpaceOnUse" x1="5069.59" y1="2119.09" x2="5069.69" y2="7519.71">
   <stop offset="0" style="stop-opacity:1; stop-color:#FFF4DF"/>
   <stop offset="1" style="stop-opacity:1; stop-color:#D65B1E"/>
  </linearGradient>
  <radialGradient id="id10" gradientUnits="userSpaceOnUse" gradientTransform="matrix(7.5308E-017 1.22987 -1.22989 7.5309E-017 12944 858)" cx="4731.56" cy="6677.24" r="2457.24" fx="4731.56" fy="6677.24">
   <stop offset="0" style="stop-opacity:1; stop-color:#FEFEFE"/>
   <stop offset="0.878431" style="stop-opacity:1; stop-color:#F2D5B8"/>
   <stop offset="1" style="stop-opacity:1; stop-color:#E6AC73"/>
  </radialGradient>
  <linearGradient id="id11" gradientUnits="userSpaceOnUse" x1="4558.39" y1="1057.79" x2="4558.39" y2="433.085">
   <stop offset="0" style="stop-opacity:1; stop-color:#F4D8BA"/>
   <stop offset="0.560784" style="stop-opacity:1; stop-color:#F9EBDC"/>
   <stop offset="1" style="stop-opacity:1; stop-color:white"/>
  </linearGradient>
 </defs>
 <g id="Layer_x0020_1">
  <metadata id="CorelCorpID_0Corel-Layer"/>
  <g id="_632693296">
   <g>
    <g>
     <path class="fil0" d="M4728 9283l-456 94 -126 25 -85 18 -76 15 -37 8 -10 2 36 63 757 1315 694 1205c39,60 84,75 139,25l937 -1143c25,-47 62,-81 128,-87l1453 -242c95,-6 117,-54 67,-144l-880 -1552 -30 -52 -4 -8 -16 -28 -12 -21 -16 3 -125 25 -67 14 -43 9 -2228 456z"/>
     <path class="fil1" d="M6993 8891l36 -21 -41 -71 -36 21 41 71zm-2853 520l-36 21 41 71 36 -20 -41 -72zm82 143l-36 21 41 71 36 -20 -41 -72zm82 143l-36 21 41 71 36 -20 -41 -72zm82 143l-35 21 41 71 35 -20 -41 -72zm82 143l-35 20 41 72 35 -21 -41 -71zm83 143l-36 20 41 72 36 -21 -41 -71zm82 143l-36 20 41 72 36 -21 -41 -71zm82 143l-36 20 41 72 36 -21 -41 -71zm82 142l-36 21 41 71 36 -20 -41 -72zm82 143l-36 21 41 71 36 -20 -41 -72zm82 143l-36 21 41 71 36 -20 -41 -72zm82 143l-36 21 42 71 35 -20 -41 -72zm82 143l-35 21 41 71 35 -21 -41 -71zm82 143l-35 20 41 72 35 -21 -41 -71zm83 143l-36 20 41 72 36 -21 -41 -71zm82 143l-36 20 41 72 36 -21 -41 -71zm82 142l-36 21 41 71 36 -20 -41 -72zm50 120l32 26 52 -63 -31 -26 -53 63zm106 -126l31 26 53 -63 -32 -27 -52 64zm105 -127l32 26 53 -63 -32 -26 -53 63zm106 -126l31 26 53 -63 -31 -27 -53 64zm105 -127l32 26 53 -63 -32 -26 -53 63zm106 -126l32 26 52 -63 -31 -27 -53 64zm106 -127l31 26 53 -63 -32 -26 -52 63zm105 -126l32 26 53 -63 -32 -27 -53 64zm106 -127l31 26 53 -63 -31 -26 -53 63zm105 -126l6 5 15 26 79 -13 -7 -40 -86 13 -7 9zm175 -35l6 40 82 -13 -7 -40 -81 13zm162 -27l7 41 81 -13 -6 -41 -82 13zm163 -26l7 41 81 -13 -7 -41 -81 13zm163 -26l6 41 82 -13 -7 -41 -81 13zm163 -26l6 41 81 -13 -6 -41 -81 13zm162 -26l7 41 81 -13 -6 -41 -82 13zm163 -26l6 41 82 -13 -7 -41 -81 13zm163 -26l6 41 81 -13 -6 -41 -81 13zm134 -2l36 -20 -41 -72 -36 21 41 71zm-82 -142l35 -21 -41 -71 -36 20 42 72zm-83 -143l36 -20 -42 -72 -35 21 41 71zm-83 -142l36 -21 -41 -71 -36 20 41 72zm-82 -143l35 -21 -41 -71 -36 21 42 71zm-83 -143l36 -20 -42 -72 -35 21 41 71zm-83 -142l36 -21 -41 -71 -36 21 41 71zm-82 -143l35 -20 -41 -72 -36 21 42 71zm-83 -142l36 -21 -42 -71 -35 20 41 72zm-82 -143l35 -20 -41 -72 -36 21 42 71zm-83 -142l36 -21 -42 -71 -35 20 41 72z"/>
     <path class="fil2" d="M2254 8777c-314,553 -627,1107 -941,1661 -51,90 -29,138 67,144 484,81 968,161 1452,242 66,6 104,40 128,88 313,381 625,762 938,1143 54,49 100,35 139,-26 495,-861 991,-1722 1487,-2583 -1090,-223 -2180,-446 -3270,-669z"/>
     <path class="fil1" d="M2457 8870l-36 -21 41 -71 36 21 -41 71zm2853 520l36 21 -41 71 -36 -20 41 -72zm-82 143l36 21 -41 71 -36 -20 41 -72zm-82 143l36 21 -41 71 -36 -21 41 -71zm-82 143l35 20 -41 72 -35 -21 41 -71zm-82 143l35 20 -41 72 -35 -21 41 -71zm-82 143l35 20 -41 72 -36 -21 42 -71zm-83 143l36 20 -41 72 -36 -21 41 -71zm-82 142l36 21 -41 71 -36 -20 41 -72zm-82 143l36 21 -41 71 -36 -20 41 -72zm-82 143l36 21 -41 71 -36 -20 41 -72zm-82 143l36 21 -41 71 -36 -20 41 -72zm-82 143l36 20 -41 72 -36 -21 41 -71zm-82 143l35 20 -41 72 -35 -21 41 -71zm-82 143l35 20 -41 72 -35 -21 41 -71zm-83 143l36 20 -41 72 -36 -21 41 -71zm-82 142l36 21 -41 71 -36 -20 41 -72zm-82 143l36 21 -41 71 -36 -20 41 -72zm-50 120l-31 26 -53 -63 31 -26 53 63zm-105 -127l-32 27 -53 -63 32 -27 53 63zm-106 -126l-32 26 -52 -63 31 -26 53 63zm-106 -127l-31 27 -53 -63 32 -27 52 63zm-105 -126l-32 26 -53 -63 32 -26 53 63zm-106 -127l-32 27 -52 -63 31 -27 53 63zm-106 -126l-31 26 -53 -63 32 -26 52 63zm-105 -127l-32 27 -53 -63 32 -27 53 63zm-106 -126l-31 26 -53 -63 31 -26 53 63zm-105 -127l-6 6 -15 26 -79 -13 7 -41 86 14 7 8zm-175 -35l-6 41 -81 -13 6 -41 81 13zm-162 -26l-7 41 -81 -13 6 -41 82 13zm-163 -26l-7 41 -81 -13 7 -41 81 13zm-163 -26l-6 41 -82 -13 7 -41 81 13zm-163 -26l-6 41 -81 -13 6 -41 81 13zm-162 -26l-7 41 -81 -13 6 -41 82 13zm-163 -26l-6 41 -82 -13 7 -41 81 13zm-163 -26l-6 41 -81 -13 6 -41 81 13zm-134 -2l-36 -20 42 -72 35 21 -41 71zm83 -142l-36 -21 41 -71 36 20 -41 72zm82 -143l-35 -21 41 -71 35 21 -41 71zm83 -143l-36 -20 41 -72 36 21 -41 71zm82 -142l-35 -21 41 -71 36 21 -42 71zm83 -143l-36 -20 42 -72 35 21 -41 71zm83 -142l-36 -21 41 -71 36 20 -41 72zm82 -143l-35 -21 41 -71 36 21 -42 71zm83 -142l-36 -21 42 -71 35 20 -41 72zm83 -143l-36 -21 41 -71 36 21 -41 71zm82 -143l-35 -20 41 -71 35 20 -41 71z"/>
    </g>
    <g>
     <circle class="fil3" cx="4788" cy="4751" r="4751"/>
     <path class="fil4" d="M4788 0c2644,0 4787,2143 4787,4788 0,2644 -2143,4787 -4787,4787 -2645,0 -4788,-2143 -4788,-4787 0,-2645 2143,-4788 4788,-4788zm0 1306c1923,0 3482,1559 3482,3482 0,1923 -1559,3482 -3482,3482 -1923,0 -3482,-1559 -3482,-3482 0,-1923 1559,-3482 3482,-3482z"/>
     <path class="fil5" d="M828 5588c-26,-131 -46,-264 -59,-397 -13,-133 -19,-267 -19,-401 0,-134 6,-268 19,-401 13,-133 33,-266 59,-397 5,-21 -9,-42 -31,-46 -21,-5 -42,9 -46,31 -27,133 -47,268 -60,404 -14,136 -20,273 -20,409 0,137 6,273 20,409 13,136 33,271 60,404 4,22 25,36 46,32 22,-5 36,-26 31,-47z"/>
     <path class="fil6" d="M4788 60c1305,0 2487,529 3343,1385 855,855 1385,2037 1385,3343 0,1305 -530,2487 -1385,3343 -856,855 -2038,1385 -3343,1385 -1306,0 -2488,-530 -3343,-1385 -856,-856 -1385,-2038 -1385,-3343 0,-1306 529,-2488 1385,-3343 855,-856 2037,-1385 3343,-1385zm3314 1414c-848,-848 -2020,-1373 -3314,-1373 -1295,0 -2466,525 -3314,1373 -848,848 -1373,2019 -1373,3314 0,1294 525,2465 1373,3314 848,848 2019,1372 3314,1372 1294,0 2466,-524 3314,-1372 848,-849 1372,-2020 1372,-3314 0,-1295 -524,-2466 -1372,-3314z"/>
     <path class="fil7" d="M4788 131c1286,0 2450,521 3293,1364 842,842 1364,2007 1364,3293 0,1286 -522,2450 -1364,3293 -843,842 -2007,1364 -3293,1364 -1286,0 -2451,-522 -3293,-1364 -843,-843 -1364,-2007 -1364,-3293 0,-1286 521,-2451 1364,-3293 842,-843 2007,-1364 3293,-1364zm3264 1393c-836,-836 -1990,-1352 -3264,-1352 -1275,0 -2429,516 -3264,1352 -836,835 -1352,1989 -1352,3264 0,1274 516,2428 1352,3264 835,835 1989,1352 3264,1352 1274,0 2428,-517 3264,-1352 835,-836 1352,-1990 1352,-3264 0,-1275 -517,-2429 -1352,-3264z"/>
     <path class="fil5" d="M8803 3992c26,131 46,264 59,397 13,133 19,267 19,401 0,134 -6,268 -19,401 -13,134 -33,266 -59,397 -4,21 10,42 31,47 22,4 42,-10 47,-31 26,-134 46,-269 60,-405 13,-136 20,-272 20,-409 0,-136 -7,-273 -20,-409 -14,-136 -34,-271 -60,-404 -5,-22 -25,-36 -47,-31 -21,4 -35,25 -31,46z"/>
     <path class="fil8" d="M803 5586c-26,-132 -46,-264 -59,-397 -13,-133 -20,-267 -20,-401 0,-134 7,-268 20,-402 13,-133 33,-265 59,-396 4,-22 -10,-43 -31,-47 -22,-4 -42,10 -47,31 -26,134 -46,269 -60,405 -13,136 -20,272 -20,409 0,136 7,273 20,409 14,135 34,270 60,404 5,21 25,35 47,31 21,-4 35,-25 31,-46z"/>
     <path class="fil9" d="M8772 3990c27,131 46,263 59,396 14,134 20,268 20,402 0,134 -6,268 -20,401 -13,133 -32,265 -59,397 -4,21 10,42 31,46 22,4 43,-10 47,-31 27,-134 47,-269 60,-404 13,-136 20,-273 20,-409 0,-137 -7,-273 -20,-409 -13,-136 -33,-271 -60,-405 -4,-21 -25,-35 -47,-31 -21,4 -35,25 -31,47z"/>
     <circle class="fil10" cx="4788" cy="4788" r="3485"/>
     <path class="fil11" d="M7664 3663c-15,-38 -74,-29 -74,14 0,5 1,9 3,14 9,23 18,47 26,70 17,45 84,25 73,-22l-1 -4c-9,-24 -18,-48 -27,-72zm-5672 4c6,-17 1,-34 -14,-45 -21,-14 -47,-6 -57,17 -10,24 -19,48 -28,72 -15,39 37,72 66,36 2,-3 4,-6 6,-10 8,-23 17,-46 27,-70zm-119 357c12,-40 -45,-68 -69,-29 -2,4 -3,6 -4,10 -7,25 -13,50 -19,75 -10,46 58,67 74,19 6,-25 12,-50 18,-75zm-72 369c6,-46 -62,-62 -75,-14l-1 4c-3,26 -6,51 -9,77 -1,14 5,27 16,35 23,17 57,1 60,-27 3,-25 6,-50 9,-75zm-26 375c0,-40 -55,-54 -73,-16 -2,6 -3,10 -3,15 0,26 0,52 0,78 2,48 72,50 76,1 1,-26 0,-52 0,-78zm21 375c-6,-47 -76,-44 -76,6 2,26 7,54 11,80 1,8 5,17 12,22 27,24 68,2 63,-33 -4,-25 -7,-50 -10,-75zm68 370c-13,-48 -83,-32 -74,17 6,25 13,51 20,76 11,43 77,34 74,-13 0,-3 0,-5 -1,-8 -7,-24 -13,-48 -19,-72zm113 358c-14,-37 -71,-29 -73,13 0,5 0,10 2,15 10,24 19,48 29,71 8,18 27,28 45,22 22,-6 34,-30 25,-51 -9,-23 -19,-47 -28,-70zm157 342c-22,-41 -84,-14 -70,30 1,2 2,4 3,6 12,23 25,45 37,68 20,35 77,18 71,-26 -1,-5 -2,-8 -5,-12 -12,-19 -25,-46 -36,-66zm198 319c-23,-33 -78,-10 -68,32 1,5 3,8 6,13 15,21 30,41 45,62 28,36 84,2 65,-39 -1,-2 -2,-5 -4,-7 -15,-20 -30,-40 -44,-61zm236 293c-30,-32 -82,3 -62,44 2,3 4,5 6,8 17,18 35,37 53,56 32,32 84,-8 58,-49 -1,-1 -2,-3 -4,-4 -17,-18 -34,-37 -51,-55zm271 260c-25,-22 -66,-1 -63,32 1,11 6,20 14,27 19,16 39,33 59,49 18,14 44,10 56,-10 11,-16 7,-38 -8,-50 -20,-16 -39,-31 -58,-48zm301 225c-16,-11 -37,-8 -49,7 -15,17 -11,45 8,57 21,14 43,27 65,41 35,22 77,-22 49,-58 -3,-3 -6,-5 -9,-7 -22,-13 -43,-26 -64,-40zm327 185c-40,-19 -75,35 -40,64 2,2 5,3 7,5 23,11 47,22 70,32 43,19 75,-39 37,-66 -1,-1 -3,-2 -6,-3 -22,-10 -45,-21 -68,-32zm348 144c-44,-15 -71,46 -31,69 2,1 4,2 6,3 25,8 49,16 74,24 42,13 70,-47 29,-70 -2,-1 -4,-2 -7,-3 -24,-8 -47,-15 -71,-23zm362 99c-39,-9 -65,45 -27,70 4,2 7,3 12,5 25,5 50,10 76,14 44,8 64,-55 20,-73 -2,-1 -5,-1 -7,-2 -24,-4 -49,-9 -74,-14zm372 53c-43,-4 -58,60 -14,75 3,0 6,1 8,1 26,2 52,4 78,5 42,2 56,-57 15,-74 -4,-1 -8,-2 -12,-2 -25,-1 -50,-3 -75,-5zm376 6c-42,2 -50,63 -8,75 4,1 7,1 12,1 26,-1 51,-2 77,-4 46,-4 48,-72 -1,-76 -1,0 -3,0 -5,0 -25,2 -50,3 -75,4zm374 -41c-44,8 -41,74 6,76 2,0 5,0 7,-1 25,-4 51,-9 76,-14 48,-11 35,-81 -14,-75 -25,5 -50,10 -75,14zm366 -87c-46,15 -30,83 18,74 26,-6 53,-16 77,-24 39,-13 33,-72 -11,-74 -5,0 -8,0 -13,2 -24,7 -48,15 -71,22zm352 -131c-39,16 -25,77 20,72 4,0 7,-1 11,-3 23,-10 47,-21 70,-32 8,-4 15,-11 19,-20 13,-33 -21,-64 -52,-49 -23,11 -45,21 -68,32zm333 -175c-39,25 -11,83 32,69 3,-1 5,-2 7,-4 22,-13 44,-26 66,-40 34,-22 15,-76 -27,-70 -5,1 -10,3 -15,6 -21,13 -42,26 -63,39zm308 -214c-32,26 -5,80 38,66 4,-2 6,-4 10,-6 20,-16 40,-32 60,-49 11,-10 16,-25 12,-39 -8,-27 -40,-37 -61,-19 -20,16 -39,32 -59,47zm280 -251c-30,30 7,82 47,59 3,-2 5,-3 7,-6 18,-18 36,-37 54,-55 31,-35 -14,-84 -51,-57 -2,2 -3,3 -5,5 -17,18 -34,36 -52,54zm246 -284c-25,32 13,78 51,55 4,-3 7,-6 10,-9 15,-21 31,-41 46,-62 26,-39 -24,-81 -58,-50 -2,2 -3,4 -4,5 -15,21 -30,41 -45,61zm208 -313c-23,42 36,80 65,41 13,-22 26,-47 39,-70 21,-39 -32,-78 -63,-43 -1,2 -3,4 -4,6 -12,22 -24,44 -37,66zm168 -336c-17,39 36,73 65,38 2,-3 4,-5 5,-9 10,-23 20,-47 30,-71 16,-42 -41,-72 -67,-36 -2,3 -3,5 -4,8 -10,22 -19,47 -29,70zm125 -355c-4,17 2,34 17,43 21,13 50,2 57,-22 7,-25 13,-50 20,-75 10,-37 -39,-65 -67,-33 -3,5 -5,9 -7,15 -6,24 -13,48 -20,72zm80 -367c-5,41 47,60 70,26 3,-4 5,-9 5,-15 4,-25 8,-51 11,-76 6,-43 -54,-61 -73,-20 -1,4 -2,7 -2,10 -4,25 -7,50 -11,75zm34 -374c-2,40 54,54 72,17 3,-6 4,-10 4,-16 0,-25 1,-51 1,-77 0,-39 -53,-53 -72,-16 -3,5 -4,10 -4,16 0,25 -1,50 -1,76zm-14 -376c4,42 68,47 76,2 0,-3 0,-6 0,-10 -2,-25 -5,-51 -8,-76 -6,-46 -74,-44 -76,4 0,2 0,3 0,5 3,25 6,50 8,75zm-60 -371c10,45 79,36 75,-13l-1 -4c-5,-25 -11,-50 -18,-75 -12,-47 -83,-32 -74,17 6,25 13,50 18,75z"/>
     <path class="fil12" d="M4788 1291c965,0 1839,392 2472,1024 633,633 1024,1507 1024,2473 0,965 -391,1839 -1024,2472 -633,633 -1507,1024 -2472,1024 -966,0 -1840,-391 -2473,-1024 -632,-633 -1024,-1507 -1024,-2472 0,-966 392,-1840 1024,-2473 633,-632 1507,-1024 2473,-1024zm0 42c1908,0 3455,1546 3455,3455 0,1908 -1547,3455 -3455,3455 -1908,0 -3455,-1547 -3455,-3455 0,-1909 1547,-3455 3455,-3455z"/>
     <circle class="fil13" cx="4788" cy="4788" r="2689"/>
     <path class="fil14" d="M4788 1291c1929,0 3494,1561 3494,3486 0,14 -1,29 -1,43 -23,-1905 -1578,-3442 -3493,-3442 -1916,0 -3471,1537 -3494,3442 0,-14 0,-29 0,-43 0,-1925 1564,-3486 3494,-3486z"/>
    </g>
   </g>
   <path class="fil15" d="M4788 2101c741,0 1413,301 1899,787 486,486 787,1158 787,1900 0,741 -301,1413 -787,1899 -486,486 -1158,787 -1899,787 -742,0 -1414,-301 -1900,-787 -486,-486 -787,-1158 -787,-1899 0,-742 301,-1414 787,-1900 486,-486 1158,-787 1900,-787zm0 41c1461,0 2645,1185 2645,2646 0,1461 -1184,2645 -2645,2645 -1461,0 -2646,-1184 -2646,-2645 0,-1461 1185,-2646 2646,-2646z"/>
  </g>
  <path class="fil3" d="M4788 1872c1610,0 2915,1306 2915,2916 0,1610 -1305,2915 -2915,2915 -1610,0 -2915,-1305 -2915,-2915 0,-1610 1305,-2916 2915,-2916z"/>
  <path class="fil16" d="M4245 1709l54 302c-3,1 -7,3 -11,5 -5,2 -10,3 -16,4 -14,3 -24,2 -31,-2 -6,-4 -10,-11 -12,-21l-19 -105 -100 17c-1,16 -5,28 -13,38 -9,11 -21,17 -37,20 -19,3 -33,1 -44,-6 -10,-8 -17,-17 -19,-30 -1,-10 0,-20 3,-31l17 -3c7,-2 13,-5 16,-10 4,-5 5,-12 3,-20l-17 -98c-1,-7 -4,-12 -9,-15 -5,-3 -10,-4 -16,-3 -13,3 -19,10 -18,22 -4,2 -8,3 -11,4 -10,1 -18,0 -25,-4 -7,-4 -11,-10 -13,-20 -3,-16 2,-29 13,-39 12,-11 27,-18 46,-21 25,-5 47,-3 65,6 17,9 28,26 32,50l19 107 99 -17 -21 -118 -45 8c-13,2 -22,-5 -25,-22 0,-4 -1,-8 -1,-13 0,-4 1,-9 2,-12l167 -29c14,-3 22,4 25,21 0,3 1,8 1,13 0,5 -1,9 -1,12l-58 10z"/>
  <path id="1" class="fil16" d="M4401 1682l53 302c-3,1 -7,3 -11,4 -5,2 -10,4 -17,5 -14,2 -24,2 -30,-2 -6,-4 -11,-11 -12,-22l-49 -276 -43 8c-7,1 -13,0 -17,-3 -4,-4 -6,-10 -8,-19 0,-3 -1,-7 -1,-12 0,-5 0,-9 1,-12l166 -30c13,-2 22,5 25,22 0,3 0,7 0,12 0,5 0,10 -1,13l-56 10z"/>
  <path id="2" class="fil16" d="M4602 1665l9 307c-3,1 -7,2 -12,3 -5,1 -10,1 -17,2 -14,0 -24,-2 -30,-7 -5,-4 -8,-12 -9,-23l-8 -280 -43 2c-8,0 -13,-2 -16,-6 -3,-5 -5,-11 -5,-20 0,-3 0,-7 0,-12 1,-5 2,-9 3,-12l58 -2c-3,-5 -6,-12 -8,-20 -2,-8 -3,-17 -3,-26 0,-15 3,-30 9,-44 6,-13 15,-25 28,-35 12,-11 28,-19 47,-25 20,-5 42,-9 67,-9 33,-1 63,2 91,8 28,7 53,16 73,26 21,10 37,20 49,31 12,10 18,19 18,26 1,9 -3,16 -10,21 -7,6 -16,8 -27,9 -11,-11 -23,-20 -37,-29 -14,-8 -29,-16 -46,-22 -16,-6 -33,-10 -51,-13 -18,-3 -36,-4 -54,-4 -30,1 -52,8 -67,20 -15,12 -22,28 -21,48 0,7 1,13 2,20 2,6 4,12 7,16l43 -1c14,0 21,8 22,25 0,3 -1,7 -1,12 -1,5 -2,10 -3,13l-58 1z"/>
  <path id="3" class="fil16" d="M4935 1657l9 306c-4,1 -7,2 -12,3 -5,1 -10,2 -17,2 -14,0 -24,-2 -30,-6 -6,-5 -9,-13 -9,-24l-3 -86c-9,6 -20,11 -32,15 -12,4 -26,6 -40,6 -36,1 -64,-8 -86,-27 -22,-19 -33,-49 -35,-89l-2 -93 -31 1c-8,0 -13,-2 -17,-6 -3,-4 -5,-11 -5,-20 0,-3 0,-7 1,-12 1,-5 1,-9 3,-12l346 -10c14,0 21,8 21,25 0,4 0,8 -1,13 0,5 -1,9 -3,12l-57 2zm-121 161c12,0 23,-2 33,-7 10,-4 18,-9 24,-15l-126 -94 2 50c0,26 6,43 18,53 11,9 28,14 49,13zm57 -66l-3 -93 -121 3 124 90z"/>
  <path id="4" class="fil16" d="M5429 1727l-54 302c-3,0 -7,1 -12,1 -5,0 -10,-1 -16,-2 -14,-2 -23,-6 -28,-12 -5,-6 -7,-14 -5,-25l50 -275 -70 -13c-2,21 -4,41 -7,59 -2,18 -5,37 -8,56 -4,18 -9,33 -17,45 -8,12 -18,22 -29,29 -12,7 -25,11 -39,13 -15,2 -30,2 -47,-1 -16,-3 -31,-8 -43,-15 -13,-6 -24,-15 -32,-25 -9,-10 -15,-23 -18,-37 -3,-15 -3,-31 0,-49 3,-19 7,-38 11,-56 3,-18 8,-37 13,-57l-35 -6c-7,-2 -12,-5 -14,-10 -3,-4 -3,-11 -1,-20 0,-3 1,-7 3,-12 2,-4 3,-8 5,-11l443 79c14,3 19,12 16,29 -1,3 -2,7 -3,12 -2,5 -4,9 -6,12l-57 -11zm-272 122c14,3 25,1 34,-6 9,-7 15,-18 18,-34l21 -117 -88 -16 -21 118c-3,15 -1,28 6,37 6,10 16,16 30,18z"/>
  <path id="5" class="fil16" d="M5585 1754l-54 302c-4,0 -8,1 -13,1 -4,0 -10,-1 -16,-2 -14,-2 -24,-6 -28,-12 -5,-6 -6,-14 -5,-25l50 -275 -43 -8c-7,-1 -12,-4 -15,-9 -2,-5 -2,-11 -1,-20 1,-4 2,-8 4,-12 1,-5 3,-9 5,-11l59 10 3 -17c5,-29 4,-51 -2,-66 -6,-14 -17,-23 -33,-26 -11,-2 -22,0 -32,6 -9,7 -15,18 -18,34l-3 15c-3,1 -6,2 -9,2 -6,1 -13,0 -20,-1 -11,-2 -20,-6 -26,-12 -7,-6 -9,-16 -7,-29 2,-13 7,-24 14,-34 7,-10 16,-18 27,-24 11,-6 23,-11 37,-12 14,-2 29,-2 46,1 35,6 61,22 78,48 17,26 21,63 13,109l-3 18 41 7c14,3 19,12 16,29 0,3 -2,7 -3,12 -2,5 -4,9 -6,11l-56 -10z"/>
  <path class="fil3" d="M8524 4788c0,2087 -1691,3779 -3779,3779 -2087,0 -3778,-1692 -3778,-3779"/>
  <path class="fil17" d="M3665 8674l-139 346c-4,-1 -9,-1 -15,-3 -6,-1 -12,-3 -19,-5 -16,-7 -26,-14 -30,-22 -4,-8 -4,-18 1,-30l27 -67c-16,5 -32,6 -49,5 -17,-1 -36,-6 -55,-14 -32,-13 -58,-31 -77,-54 -19,-23 -31,-48 -36,-75 -1,-6 -2,-13 -3,-21 -16,-3 -32,-7 -49,-14 -17,-7 -34,-16 -51,-27 -17,-12 -31,-25 -42,-40 -21,4 -44,3 -68,-4 1,16 3,31 8,46 4,15 9,30 15,43 7,14 14,27 22,39 9,12 17,23 26,33 -5,13 -13,23 -25,30 -11,6 -25,6 -41,0 -13,-5 -24,-14 -34,-27 -11,-13 -19,-29 -26,-48 -6,-19 -11,-41 -13,-64 -3,-24 -2,-49 1,-75 -12,-6 -20,-14 -23,-22 -3,-9 -3,-18 1,-28 3,-6 6,-11 11,-16 4,-5 9,-9 14,-12 5,4 11,8 19,12 7,4 16,8 24,11 27,11 49,13 67,6 17,-7 30,-20 39,-40 4,-12 7,-24 7,-36 1,-12 0,-24 -3,-35l-65 -26c-3,4 -6,7 -9,9l-60 -36 -191 320c-4,-1 -9,-3 -14,-5 -5,-1 -11,-4 -18,-8 -15,-9 -24,-18 -27,-26 -3,-9 -1,-19 6,-30l174 -292 -32 -20 -13 -7 -1 -1 0 0 0 0 -1 0 -203 -121 -43 71c13,-2 26,-1 41,3 14,3 28,9 44,18 16,10 29,21 40,35 11,13 18,28 22,43 5,16 5,32 3,49 -3,17 -9,34 -19,51 -11,18 -23,32 -37,42 -14,10 -28,17 -43,21 -16,3 -31,3 -47,1 -15,-3 -30,-9 -44,-17 -31,-19 -40,-39 -27,-62 3,-5 6,-9 10,-13 4,-3 7,-6 11,-7 2,2 5,4 9,7 3,2 7,4 10,6 15,9 31,12 46,10 16,-3 30,-14 40,-32 10,-16 12,-32 8,-48 -4,-16 -16,-29 -34,-40 -11,-6 -22,-10 -35,-11 -12,0 -23,1 -33,4l-113 189c-4,-2 -9,-3 -14,-5 -6,-2 -11,-5 -18,-9 -15,-9 -24,-18 -27,-26 -3,-8 -1,-18 6,-30l27 -45c-13,1 -26,0 -41,-3 -14,-3 -29,-10 -46,-20 -15,-9 -28,-19 -39,-33 -11,-13 -19,-27 -23,-43 -5,-15 -7,-32 -5,-50 2,-18 9,-36 20,-55 10,-17 22,-31 36,-40 14,-10 28,-17 43,-20 16,-3 31,-3 47,0 15,2 30,8 44,16 20,12 32,23 36,35 5,12 4,23 -2,34 -6,10 -14,16 -23,20 -4,-4 -7,-7 -10,-10 -3,-3 -8,-6 -13,-9 -16,-10 -32,-13 -48,-11 -16,3 -29,13 -39,31 -10,16 -12,32 -8,48 5,17 17,30 35,41 14,8 27,13 39,13 13,0 24,-1 33,-5l111 -186 -212 -126c-14,-9 -16,-22 -6,-40 3,-4 6,-8 9,-12 4,-5 8,-8 11,-10l487 289 13 8 1 0 106 64 701 283c8,3 13,8 15,14 2,7 0,14 -3,24 -2,4 -4,8 -8,14 -3,5 -6,9 -8,12l-66 -27zm3385 -550l188 321c-3,3 -7,7 -11,10 -4,4 -10,8 -17,12 -15,9 -27,12 -35,11 -9,-2 -17,-8 -23,-19l-172 -294 -34 20 -12 6 0 1 -1 0 0 0 0 0 -48 28 189 322c-4,2 -7,6 -12,10 -4,4 -10,8 -16,11 -15,9 -27,13 -36,11 -9,-1 -16,-8 -23,-19l-96 -165c-11,4 -21,8 -31,12 -10,4 -20,9 -30,14 -25,15 -42,33 -51,54 -9,22 -6,45 9,72 13,21 29,38 49,48 20,11 40,19 61,24 2,10 1,20 -3,29 -3,9 -10,16 -21,23 -10,5 -22,8 -36,6 -14,-2 -29,-7 -44,-14 -15,-8 -30,-18 -44,-32 -14,-13 -27,-28 -37,-46 -12,-21 -20,-42 -22,-62 -3,-20 -1,-39 5,-57 7,-19 17,-36 32,-52 14,-15 32,-30 54,-42 13,-8 25,-14 38,-20 14,-6 26,-11 37,-15l-42 -71 -242 142c-8,4 -15,5 -20,3 -6,-3 -12,-8 -17,-18 -2,-3 -4,-8 -7,-13 -2,-6 -3,-11 -4,-15l361 -211 12 -7 1 0 50 -30c-15,-4 -30,-11 -45,-21 -14,-10 -26,-24 -36,-40 -14,-25 -18,-51 -11,-76 8,-26 25,-47 54,-64 21,-12 38,-17 50,-15 12,2 21,9 27,19 6,10 8,19 6,29 -5,0 -10,2 -14,3 -5,2 -11,5 -16,8 -12,7 -21,17 -25,31 -4,13 -2,27 7,43 7,11 16,21 27,29 12,8 24,14 37,18l52 -30c15,-9 27,-4 38,14 2,3 4,8 6,14 2,6 3,10 4,14l-60 36zm-2630 674l-44 370c-4,0 -9,1 -15,1 -6,1 -12,0 -20,-1 -17,-2 -29,-6 -35,-12 -6,-7 -8,-17 -6,-30l8 -71c-14,8 -29,14 -46,17 -17,4 -36,4 -57,1 -34,-4 -64,-14 -88,-32 -24,-17 -42,-38 -54,-63 -8,-14 -13,-28 -16,-44 -3,-15 -3,-28 -2,-39 1,-6 2,-11 5,-15 3,-4 8,-6 14,-6 30,1 52,-3 66,-12 15,-8 23,-22 25,-39 2,-13 0,-25 -6,-35 -5,-10 -13,-18 -24,-25l-88 -11c-17,-2 -24,-13 -21,-34 0,-4 1,-9 3,-15 2,-5 4,-10 6,-13l439 52 13 1 0 0 1 0 0 0 59 7c-6,-16 -14,-31 -25,-46 -11,-14 -22,-27 -35,-40 -13,-12 -27,-22 -40,-31 -14,-9 -27,-16 -39,-21 0,-1 0,-3 0,-5 0,-2 0,-4 1,-6 1,-14 6,-25 15,-34 8,-9 20,-12 36,-10 15,1 31,8 47,20 17,12 32,28 46,46 15,19 27,40 39,63 12,24 20,48 26,73l13 1 397 -14c8,0 14,2 18,7l1 -3 384 -45 16 -2 1 0 1 -1 121 -14c0,-4 0,-8 1,-11l403 -94c3,0 6,0 8,0l520 -211c16,-6 28,0 35,19 2,4 3,9 5,15 1,6 2,11 1,15l-235 95 31 77c7,-11 16,-21 27,-30 11,-9 25,-17 42,-24 17,-7 35,-11 52,-11 16,0 33,2 48,8 15,6 28,16 40,28 12,12 22,28 29,46 8,19 12,37 11,55 0,17 -3,33 -10,47 -6,14 -15,26 -27,37 -12,11 -25,19 -39,25 -35,14 -57,9 -67,-16 -2,-5 -3,-10 -4,-15 0,-6 0,-10 1,-14 3,0 7,-1 11,-2 4,-2 8,-3 11,-5 17,-6 28,-17 36,-31 7,-14 7,-31 -1,-51 -7,-17 -18,-29 -34,-35 -15,-6 -32,-5 -52,3 -12,5 -22,12 -30,21 -8,9 -13,19 -17,29l82 204c-4,2 -8,5 -12,8 -5,3 -11,6 -18,9 -16,7 -29,9 -37,6 -9,-3 -16,-10 -20,-23l-20 -48c-7,11 -16,21 -27,30 -11,9 -26,18 -44,25 -16,6 -32,10 -49,11 -17,1 -34,-2 -49,-7 -15,-6 -30,-15 -43,-27 -13,-13 -23,-29 -31,-49 -8,-19 -12,-37 -11,-54 0,-16 4,-32 11,-46 6,-14 16,-26 27,-37 12,-11 26,-19 41,-25 21,-9 37,-11 49,-8 12,3 21,11 25,22 5,11 5,21 2,31 -5,0 -9,1 -13,2 -5,0 -10,2 -16,4 -17,7 -29,18 -37,32 -7,15 -7,31 1,50 7,17 18,29 34,35 16,6 33,5 53,-3 15,-6 26,-14 34,-23 8,-10 13,-20 16,-29l-81 -201 -226 91 0 0 -1 1 -2 0c-4,2 -7,3 -11,3l-55 12 84 363c-4,2 -8,4 -14,7 -5,2 -11,4 -19,6 -16,4 -29,4 -37,-1 -8,-4 -13,-12 -16,-25l-36 -156 -112 26c-9,2 -15,5 -19,11 -3,5 -4,13 -2,24l8 31c-5,4 -10,8 -16,11 -5,3 -11,5 -17,7 -15,3 -30,1 -45,-8 -14,-8 -24,-23 -29,-46 -5,-21 -2,-39 9,-54 10,-15 28,-25 51,-30l157 -36 -26 -112 -196 46 -1 6c0,6 -1,11 -2,15l-69 8 44 370c-4,1 -9,3 -15,5 -5,2 -12,3 -20,4 -17,2 -29,0 -36,-5 -8,-5 -12,-13 -14,-26l-40 -338 -36 4 -16 2 -1 0 0 0 0 0 -63 7 11 94c1,11 0,19 -5,24 -4,6 -13,9 -25,11l-81 9c-27,4 -48,13 -64,28 -16,15 -22,36 -19,63 1,13 5,24 11,34 6,10 13,18 22,24 9,6 19,11 30,13 11,3 22,3 34,2 17,-2 29,-7 37,-13 7,-7 10,-17 8,-30 0,-6 -2,-11 -3,-17 -2,-6 -4,-12 -6,-16 3,-6 9,-11 16,-15 7,-4 16,-6 25,-7 7,-1 15,-1 22,1 8,2 15,5 21,9 6,5 11,10 15,17 4,7 7,16 8,26 2,14 0,26 -5,37 -4,11 -11,21 -18,28 12,17 24,31 36,44 13,13 25,24 35,33 0,12 -5,23 -13,31 -7,9 -18,14 -31,15 -15,2 -27,-1 -37,-10 -11,-8 -19,-21 -26,-38l-19 -44c-7,3 -14,6 -23,9 -9,3 -20,5 -33,6 -23,3 -46,2 -67,-2 -21,-4 -41,-11 -58,-22 -17,-10 -31,-25 -43,-43 -11,-17 -18,-39 -21,-64 -2,-20 -1,-40 3,-58 5,-19 13,-35 25,-49 13,-15 28,-27 48,-37 19,-9 42,-16 70,-19l46 -6 -7 -58 -239 28c-10,1 -18,-2 -22,-9 -1,3 -2,6 -3,8l-69 2 13 372c-4,1 -9,3 -14,4 -6,1 -13,2 -20,2 -18,1 -30,-1 -37,-7 -7,-6 -11,-15 -12,-28l-11 -340 -121 4c10,16 20,34 27,55 8,21 12,43 13,68 0,23 -2,43 -7,61 -6,18 -14,33 -24,45 -10,12 -22,22 -36,28 -14,7 -30,11 -46,11 -18,1 -32,-3 -42,-10 -10,-7 -16,-18 -16,-31 -1,-12 1,-22 6,-32 7,1 13,2 19,1 19,0 35,-8 46,-22 12,-15 17,-37 16,-69 -1,-20 -5,-39 -12,-57 -7,-17 -16,-32 -26,-45l-3 0c-1,4 -3,7 -4,9l-61 -7 -9 0 0 0 -43 369c-5,1 -10,1 -15,2 -6,0 -13,0 -21,-1 -17,-2 -28,-6 -34,-13 -6,-7 -9,-16 -7,-29l40 -338 -39 -5 0 0 -13 -2 -1 0 -56 -6zm-199 210c21,2 40,0 56,-5 16,-6 29,-14 40,-23l23 -192 -127 -15c8,9 14,19 19,31 5,12 7,24 5,38 -1,15 -5,27 -12,37 -6,11 -14,19 -24,26 -10,7 -22,13 -35,16 -13,3 -26,5 -41,6 4,20 14,37 30,53 15,15 38,24 66,28zm-1199 -787c7,-12 17,-20 30,-23 13,-4 26,-2 40,7 13,8 22,18 25,31 3,13 1,26 -6,38 -7,11 -17,19 -30,23 -13,3 -27,1 -40,-7 -14,-8 -22,-19 -25,-32 -3,-13 -1,-26 6,-37zm397 604c19,8 37,11 55,10 17,-2 32,-5 44,-11l72 -180 -118 -47c5,10 9,21 11,34 1,13 0,26 -6,39 -5,13 -12,24 -21,32 -9,8 -19,15 -31,19 -11,4 -23,6 -37,6 -13,0 -27,-2 -41,-5 -1,20 4,40 15,58 11,19 30,34 57,45zm-193 -328c2,12 2,25 2,39 -1,13 -4,27 -10,42 -8,19 -19,35 -34,48 14,11 30,20 48,27 8,3 16,6 24,8 7,3 15,4 24,5 2,-5 5,-8 8,-10 4,-2 8,-3 14,-1 28,9 51,11 67,6 16,-5 28,-15 34,-32 5,-12 6,-24 4,-35 -3,-11 -8,-21 -16,-31l-165 -66z"/>
  <path class="fil18" d="M3665 8644l-139 346c-4,-1 -9,-2 -15,-3 -6,-1 -12,-3 -19,-6 -16,-6 -26,-13 -30,-21 -4,-8 -4,-18 1,-31l27 -66c-16,4 -32,6 -49,5 -17,-2 -36,-6 -55,-14 -32,-13 -58,-31 -77,-54 -19,-23 -31,-48 -36,-76 -1,-6 -2,-13 -3,-20 -16,-3 -32,-8 -49,-14 -17,-7 -34,-16 -51,-28 -17,-11 -31,-24 -42,-39 -21,4 -44,3 -68,-4 1,16 3,31 8,46 4,15 9,29 15,43 7,14 14,27 22,39 9,12 17,23 26,33 -5,13 -13,23 -25,29 -11,7 -25,7 -41,0 -13,-5 -24,-14 -34,-27 -11,-13 -19,-29 -26,-48 -6,-19 -11,-40 -13,-64 -3,-23 -2,-48 1,-74 -12,-6 -20,-14 -23,-22 -3,-9 -3,-18 1,-28 3,-6 6,-12 11,-16 4,-5 9,-9 14,-12 5,3 11,7 19,11 7,4 16,8 24,12 27,10 49,12 67,6 17,-7 30,-20 39,-41 4,-12 7,-23 7,-36 1,-12 0,-23 -3,-35l-65 -26c-3,4 -6,7 -9,10l-60 -36 -191 320c-4,-1 -9,-3 -14,-5 -5,-2 -11,-5 -18,-9 -15,-9 -24,-17 -27,-26 -3,-8 -1,-18 6,-29l174 -293 -32 -19 -13 -8 -1 0 0 0 0 0 -1 -1 -203 -121 -43 71c13,-1 26,0 41,3 14,3 28,10 44,19 16,10 29,21 40,34 11,14 18,28 22,44 5,15 5,32 3,49 -3,17 -9,34 -19,51 -11,18 -23,32 -37,42 -14,10 -28,17 -43,20 -16,4 -31,4 -47,1 -15,-3 -30,-8 -44,-16 -31,-19 -40,-40 -27,-63 3,-5 6,-9 10,-12 4,-4 7,-6 11,-8 2,3 5,5 9,7 3,3 7,5 10,7 15,9 31,12 46,9 16,-3 30,-13 40,-31 10,-16 12,-32 8,-48 -4,-16 -16,-29 -34,-40 -11,-7 -22,-10 -35,-11 -12,-1 -23,0 -33,3l-113 189c-4,-1 -9,-3 -14,-4 -6,-2 -11,-5 -18,-9 -15,-9 -24,-18 -27,-26 -3,-9 -1,-19 6,-30l27 -45c-13,1 -26,0 -41,-3 -14,-4 -29,-10 -46,-20 -15,-9 -28,-20 -39,-33 -11,-13 -19,-27 -23,-43 -5,-16 -7,-32 -5,-50 2,-18 9,-36 20,-55 10,-17 22,-31 36,-41 14,-10 28,-16 43,-19 16,-3 31,-4 47,-1 15,3 30,9 44,17 20,12 32,23 36,35 5,12 4,23 -2,33 -6,10 -14,17 -23,20 -4,-3 -7,-6 -10,-9 -3,-3 -8,-7 -13,-10 -16,-9 -32,-13 -48,-10 -16,3 -29,13 -39,30 -10,17 -12,33 -8,49 5,16 17,30 35,40 14,9 27,13 39,14 13,0 24,-2 33,-5l111 -186 -212 -126c-14,-9 -16,-22 -6,-40 3,-4 6,-8 9,-13 4,-4 8,-8 11,-10l487 290 13 7 1 1 106 63 701 284c8,3 13,8 15,14 2,6 0,14 -3,24 -2,3 -4,8 -8,13 -3,6 -6,10 -8,13l-66 -27zm3385 -551l188 322c-3,3 -7,6 -11,10 -4,4 -10,8 -17,12 -15,9 -27,12 -35,11 -9,-2 -17,-9 -23,-20l-172 -294 -34 20 -12 7 0 0 -1 0 0 1 0 0 -48 28 189 321c-4,3 -7,7 -12,10 -4,4 -10,8 -16,12 -15,9 -27,12 -36,11 -9,-2 -16,-8 -23,-20l-96 -164c-11,3 -21,7 -31,11 -10,4 -20,9 -30,15 -25,15 -42,33 -51,54 -9,21 -6,45 9,71 13,22 29,38 49,49 20,11 40,19 61,24 2,10 1,19 -3,28 -3,9 -10,17 -21,23 -10,6 -22,8 -36,7 -14,-2 -29,-7 -44,-15 -15,-7 -30,-18 -44,-31 -14,-13 -27,-29 -37,-46 -12,-21 -20,-42 -22,-62 -3,-20 -1,-39 5,-58 7,-18 17,-35 32,-51 14,-16 32,-30 54,-43 13,-7 25,-14 38,-19 14,-6 26,-11 37,-15l-42 -71 -242 141c-8,5 -15,6 -20,4 -6,-3 -12,-9 -17,-18 -2,-4 -4,-8 -7,-14 -2,-5 -3,-10 -4,-14l361 -211 12 -7 1 -1 50 -29c-15,-4 -30,-11 -45,-21 -14,-11 -26,-24 -36,-40 -14,-25 -18,-51 -11,-77 8,-25 25,-46 54,-63 21,-12 38,-18 50,-15 12,2 21,9 27,19 6,9 8,19 6,28 -5,1 -10,2 -14,4 -5,2 -11,4 -16,8 -12,7 -21,17 -25,30 -4,14 -2,28 7,43 7,12 16,22 27,30 12,8 24,14 37,18l52 -31c15,-8 27,-4 38,14 2,4 4,9 6,14 2,6 3,11 4,15l-60 35zm-2630 674l-44 370c-4,1 -9,1 -15,2 -6,0 -12,0 -20,-1 -17,-2 -29,-6 -35,-13 -6,-6 -8,-16 -6,-29l8 -72c-14,9 -29,15 -46,18 -17,3 -36,4 -57,1 -34,-4 -64,-15 -88,-32 -24,-17 -42,-38 -54,-63 -8,-14 -13,-29 -16,-44 -3,-16 -3,-29 -2,-39 1,-6 2,-11 5,-15 3,-4 8,-6 14,-6 30,1 52,-3 66,-12 15,-9 23,-22 25,-40 2,-13 0,-24 -6,-34 -5,-10 -13,-19 -24,-26l-88 -10c-17,-2 -24,-13 -21,-34 0,-4 1,-9 3,-15 2,-6 4,-10 6,-14l439 52 13 2 0 0 1 0 0 0 59 7c-6,-16 -14,-32 -25,-46 -11,-15 -22,-28 -35,-40 -13,-12 -27,-23 -40,-31 -14,-9 -27,-16 -39,-21 0,-2 0,-4 0,-6 0,-1 0,-3 1,-6 1,-13 6,-24 15,-33 8,-9 20,-13 36,-11 15,2 31,9 47,21 17,12 32,27 46,46 15,19 27,40 39,63 12,24 20,48 26,72l13 2 397 -14c8,0 14,2 18,7l1 -3 384 -46 16 -2 1 0 1 0 121 -14c0,-5 0,-9 1,-12l403 -93c3,-1 6,-1 8,-1l520 -210c16,-6 28,0 35,19 2,4 3,9 5,15 1,6 2,11 1,15l-235 95 31 77c7,-11 16,-21 27,-30 11,-10 25,-18 42,-25 17,-6 35,-10 52,-10 16,-1 33,2 48,8 15,6 28,15 40,27 12,13 22,28 29,47 8,19 12,37 11,54 0,18 -3,33 -10,47 -6,15 -15,27 -27,38 -12,11 -25,19 -39,25 -35,14 -57,8 -67,-16 -2,-6 -3,-11 -4,-16 0,-5 0,-9 1,-13 3,-1 7,-1 11,-3 4,-1 8,-3 11,-4 17,-7 28,-17 36,-31 7,-15 7,-32 -1,-51 -7,-17 -18,-29 -34,-35 -15,-6 -32,-5 -52,2 -12,5 -22,12 -30,22 -8,9 -13,18 -17,29l82 204c-4,2 -8,5 -12,8 -5,3 -11,6 -18,9 -16,7 -29,8 -37,6 -9,-3 -16,-11 -20,-23l-20 -49c-7,11 -16,21 -27,31 -11,9 -26,17 -44,24 -16,7 -32,11 -49,11 -17,1 -34,-1 -49,-7 -15,-5 -30,-14 -43,-27 -13,-12 -23,-28 -31,-49 -8,-18 -12,-36 -11,-53 0,-17 4,-32 11,-46 6,-14 16,-27 27,-37 12,-11 26,-20 41,-26 21,-8 37,-11 49,-7 12,3 21,10 25,22 5,10 5,21 2,31 -5,0 -9,1 -13,1 -5,1 -10,3 -16,5 -17,7 -29,18 -37,32 -7,14 -7,31 1,49 7,18 18,30 34,36 16,6 33,5 53,-3 15,-6 26,-14 34,-24 8,-10 13,-19 16,-29l-81 -200 -226 91 0 0 -1 0 -2 1c-4,2 -7,2 -11,2l-55 13 84 363c-4,2 -8,4 -14,6 -5,3 -11,5 -19,6 -16,4 -29,4 -37,0 -8,-4 -13,-13 -16,-25l-36 -157 -112 26c-9,2 -15,6 -19,11 -3,6 -4,14 -2,24l8 32c-5,4 -10,7 -16,10 -5,3 -11,6 -17,7 -15,4 -30,1 -45,-7 -14,-8 -24,-24 -29,-46 -5,-21 -2,-40 9,-54 10,-15 28,-25 51,-30l157 -37 -26 -111 -196 45 -1 6c0,7 -1,11 -2,15l-69 9 44 370c-4,1 -9,3 -15,4 -5,2 -12,4 -20,5 -17,2 -29,0 -36,-5 -8,-5 -12,-14 -14,-27l-40 -338 -36 4 -16 2 -1 0 0 0 0 0 -63 8 11 94c1,10 0,19 -5,24 -4,5 -13,9 -25,10l-81 10c-27,3 -48,12 -64,28 -16,15 -22,36 -19,62 1,13 5,25 11,35 6,9 13,17 22,24 9,6 19,10 30,13 11,2 22,3 34,1 17,-2 29,-6 37,-12 7,-7 10,-17 8,-30 0,-6 -2,-12 -3,-18 -2,-5 -4,-11 -6,-16 3,-5 9,-10 16,-14 7,-4 16,-7 25,-8 7,0 15,0 22,2 8,1 15,4 21,9 6,4 11,10 15,17 4,7 7,16 8,26 2,13 0,26 -5,37 -4,11 -11,20 -18,28 12,16 24,31 36,44 13,13 25,24 35,33 0,12 -5,22 -13,31 -7,8 -18,13 -31,15 -15,1 -27,-2 -37,-10 -11,-9 -19,-21 -26,-38l-19 -45c-7,3 -14,6 -23,9 -9,3 -20,5 -33,7 -23,3 -46,2 -67,-2 -21,-4 -41,-11 -58,-22 -17,-11 -31,-25 -43,-43 -11,-18 -18,-39 -21,-64 -2,-21 -1,-40 3,-59 5,-18 13,-34 25,-49 13,-14 28,-26 48,-36 19,-10 42,-16 70,-20l46 -5 -7 -59 -239 29c-10,1 -18,-2 -22,-9 -1,3 -2,5 -3,7l-69 3 13 372c-4,1 -9,2 -14,4 -6,1 -13,2 -20,2 -18,1 -30,-2 -37,-7 -7,-6 -11,-15 -12,-28l-11 -341 -121 5c10,15 20,33 27,54 8,21 12,44 13,68 0,23 -2,44 -7,62 -6,17 -14,33 -24,45 -10,12 -22,21 -36,28 -14,7 -30,10 -46,11 -18,0 -32,-3 -42,-10 -10,-8 -16,-18 -16,-32 -1,-11 1,-21 6,-31 7,1 13,1 19,1 19,-1 35,-8 46,-23 12,-14 17,-37 16,-68 -1,-21 -5,-40 -12,-57 -7,-18 -16,-33 -26,-46l-3 1c-1,3 -3,6 -4,9l-61 -7 -9 0 0 0 -43 369c-5,0 -10,1 -15,1 -6,1 -13,0 -21,0 -17,-2 -28,-7 -34,-13 -6,-7 -9,-17 -7,-30l40 -338 -39 -4 0 0 -13 -2 -1 0 -56 -7zm-199 210c21,3 40,1 56,-5 16,-6 29,-13 40,-22l23 -192 -127 -15c8,8 14,18 19,30 5,12 7,25 5,39 -1,14 -5,27 -12,37 -6,10 -14,19 -24,26 -10,7 -22,12 -35,16 -13,3 -26,5 -41,6 4,20 14,37 30,52 15,16 38,25 66,28zm-1199 -787c7,-12 17,-19 30,-23 13,-3 26,-1 40,7 13,8 22,19 25,32 3,13 1,25 -6,37 -7,12 -17,20 -30,23 -13,4 -27,2 -40,-6 -14,-9 -22,-19 -25,-32 -3,-14 -1,-26 6,-38zm397 604c19,8 37,12 55,10 17,-1 32,-5 44,-11l72 -179 -118 -48c5,10 9,22 11,35 1,12 0,25 -6,38 -5,14 -12,25 -21,33 -9,8 -19,14 -31,18 -11,5 -23,7 -37,6 -13,0 -27,-1 -41,-5 -1,21 4,40 15,59 11,19 30,34 57,44zm-193 -328c2,13 2,26 2,39 -1,14 -4,28 -10,43 -8,19 -19,35 -34,48 14,10 30,19 48,26 8,4 16,7 24,9 7,2 15,4 24,5 2,-5 5,-8 8,-11 4,-2 8,-2 14,-1 28,9 51,11 67,6 16,-4 28,-15 34,-31 5,-12 6,-24 4,-35 -3,-11 -8,-22 -16,-31l-165 -67z"/>
  <path class="fil19" d="M3461 8959c-3,-8 -3,-18 2,-30l15 -38c4,-1 8,-2 12,-3l-27 67 -2 4zm-398 -313c1,6 3,13 5,19 4,15 9,29 15,43 7,14 14,27 22,39 9,12 17,23 26,33 -2,6 -5,11 -8,15 -6,-7 -12,-14 -18,-22 -8,-13 -15,-26 -22,-39 -6,-14 -11,-28 -15,-43 -5,-15 -7,-31 -8,-46l3 1zm-73 5c0,-10 0,-20 1,-31l2 2c-1,10 -2,20 -3,29zm-20 -77l0 0c-3,-9 -3,-18 1,-28 3,-6 6,-12 11,-16 4,-5 9,-9 14,-12 5,3 11,7 19,11 7,4 16,8 24,12 27,10 49,12 67,6 17,-7 30,-20 39,-41 3,-9 6,-18 7,-28 0,6 0,12 0,18 0,12 -3,24 -7,36 -9,20 -22,34 -39,40 -18,7 -40,5 -67,-6 -8,-3 -17,-7 -24,-11 -8,-4 -14,-8 -19,-11 -5,3 -10,6 -14,11 -5,5 -8,10 -11,16l-1 3zm-203 93c-1,-1 -1,-2 -2,-4 -3,-8 -1,-18 6,-29l163 -274 11 7 -174 292c-2,3 -3,6 -4,8zm-99 -404c8,0 16,1 25,3 14,3 28,10 44,19 16,10 29,21 40,34 11,14 18,28 22,44 4,14 5,28 4,43 -1,-6 -2,-12 -4,-17 -4,-16 -11,-31 -22,-44 -11,-13 -24,-25 -40,-34 -16,-10 -30,-16 -44,-19 -15,-3 -28,-4 -41,-3l16 -26zm-86 217c-5,-10 -4,-21 3,-33 3,-5 6,-9 10,-12 4,-4 7,-6 11,-8 2,3 5,5 9,7 3,3 7,5 10,7 15,9 31,12 46,9 16,-3 30,-13 40,-31 4,-7 7,-14 9,-20 3,15 0,30 -9,46 -10,18 -24,28 -40,31 -15,3 -31,0 -46,-10 -3,-1 -7,-4 -10,-6 -4,-2 -7,-5 -9,-7 -4,1 -7,4 -11,8 -4,3 -7,7 -10,12 -1,2 -2,5 -3,7zm-135 -3c-1,-2 -2,-3 -2,-4 -3,-9 -1,-19 6,-30l11 -19c5,0 11,0 16,0l-27 45c-2,2 -3,5 -4,8zm-123 -201c-1,-8 -1,-18 0,-27 2,-18 9,-36 20,-55 10,-17 22,-31 36,-41 14,-10 28,-16 43,-19 16,-3 31,-4 47,-1 15,3 30,9 44,17 20,12 32,23 36,35 4,9 4,19 1,27l-1 -1c-4,-12 -16,-24 -36,-35 -14,-9 -29,-14 -44,-17 -16,-3 -31,-3 -47,1 -15,3 -29,9 -43,19 -14,10 -26,23 -36,40 -11,19 -18,38 -20,56l0 1zm83 9l0 3c5,16 17,30 35,40 14,9 27,13 39,14 13,0 24,-2 33,-5l100 -167 11 6 -111 186c-9,4 -20,6 -33,5 -12,0 -25,-5 -39,-13 -18,-11 -30,-24 -35,-40 -2,-10 -3,-19 0,-29zm-3 -268c-6,-9 -4,-19 3,-32 3,-4 6,-8 9,-13 4,-4 8,-8 11,-10l487 290 13 7 1 1 106 63 701 284c8,3 13,8 15,14 1,5 1,12 -2,21 -3,-4 -7,-7 -13,-10l-701 -283 -106 -63 -1 -1 -13 -8 -487 -289c-3,2 -7,5 -11,10 -3,5 -6,9 -9,12 -1,2 -2,5 -3,7zm4657 96l177 302 -10 9 -178 -305 11 -6zm-165 96l178 302 -10 9 -179 -305 11 -6zm-121 269c2,11 6,22 13,33 13,22 29,38 49,49 20,11 40,19 61,24 2,9 1,17 -2,25 -20,-5 -40,-13 -59,-23 -20,-11 -36,-27 -49,-49 -12,-21 -17,-41 -13,-59zm-85 6c-2,-19 0,-37 6,-54 7,-18 17,-35 32,-51 14,-16 32,-30 54,-43 13,-7 25,-14 38,-19 9,-4 17,-7 25,-10l12 21c-11,4 -23,8 -37,14 -13,6 -25,13 -38,20 -22,13 -40,27 -54,43 -15,16 -25,33 -32,51 -3,9 -5,18 -6,28zm-158 -133c-1,-2 -2,-4 -3,-7 -2,-5 -3,-10 -4,-14l361 -211 12 -7 1 -1 23 -14c9,5 18,8 27,10l-50 30 -1 0 -12 7 -354 207zm323 -368c-2,-13 -1,-26 2,-39 8,-25 25,-46 54,-63 21,-12 38,-18 50,-15 12,2 21,9 27,19 6,9 8,19 6,28l-4 1 -2 -3c-6,-11 -15,-17 -27,-20 -12,-2 -29,3 -50,16 -29,16 -46,37 -54,63 -1,4 -2,9 -2,13zm84 -1c1,5 4,11 7,16 7,12 16,22 27,30 12,8 24,14 37,18l52 -31c15,-8 27,-4 38,14 2,4 4,9 6,14 2,6 3,11 4,15l-7 4c-1,-3 -2,-5 -3,-7 -11,-18 -23,-22 -38,-14l-52 31c-13,-5 -25,-11 -37,-19 -11,-8 -20,-17 -27,-29 -9,-15 -11,-29 -7,-42zm-2638 1132c-2,-5 -2,-11 -1,-18l5 -44 3 -2 -7 64zm-256 -225c-1,-9 -1,-17 0,-24 1,-6 2,-11 5,-15 3,-4 8,-6 14,-6 30,1 52,-3 66,-12 13,-8 21,-20 24,-35 2,7 2,14 1,21 -2,18 -10,31 -25,40 -14,9 -36,13 -66,11 -6,1 -11,3 -14,7 -2,3 -4,8 -5,13zm-28 -182c-2,-5 -2,-12 -1,-19 0,-4 1,-9 3,-15 2,-6 4,-10 6,-14l439 52 13 2 0 0 1 0 0 0 47 5c5,9 9,18 12,28l-59 -7 0 0 -1 -1 0 0 -13 -1 -439 -52c-2,3 -4,8 -6,14 -1,3 -2,5 -2,8zm384 -124l-3 -1c0,-2 0,-4 0,-6 0,-1 0,-3 1,-6 1,-13 6,-24 15,-33 8,-9 20,-13 36,-11 15,2 31,9 47,21 17,12 32,27 46,46 15,19 27,40 39,63 12,24 20,48 26,72l13 2 397 -14c8,0 14,2 18,7l1 -3 384 -46 16 -2 1 0 1 0 121 -14c0,-5 0,-9 1,-12l403 -93c3,-1 6,-1 8,-1l520 -210c15,-6 26,-1 33,15 1,3 2,8 4,13l3 5 0 1c1,6 2,11 1,15l-4 2c0,-2 -1,-4 -2,-6 -7,-19 -19,-26 -35,-19l-520 210c-2,0 -5,0 -8,1l-403 93c-1,3 -1,7 -1,11l-121 15 -1 0 -1 0 -16 2 -384 45 -1 4c-4,-5 -10,-8 -18,-7l-397 13 -13 -1c-6,-25 -14,-49 -26,-72 -12,-24 -24,-45 -39,-63 -14,-19 -29,-34 -46,-46 -16,-12 -32,-19 -47,-21 -16,-2 -28,2 -36,10 -6,6 -10,13 -13,21zm1906 -75l22 55c7,-11 16,-21 27,-30 11,-10 25,-18 42,-25 17,-6 35,-10 52,-10 16,-1 33,2 48,8 15,6 28,15 40,27 12,13 22,28 29,47 8,19 12,37 11,54 0,4 0,8 0,11 -2,-12 -5,-26 -11,-39 -7,-19 -17,-35 -29,-47 -12,-12 -25,-21 -40,-27 -15,-6 -32,-9 -48,-9 -17,1 -35,4 -52,11 -17,7 -31,15 -42,24 -11,10 -20,20 -27,30l-31 -76 9 -4zm127 216c-1,-4 -2,-8 -3,-12 0,-5 0,-9 1,-13 3,-1 7,-1 11,-3 4,-1 8,-3 11,-4 17,-7 28,-17 36,-31 1,-4 3,-7 4,-10 2,13 1,25 -4,35 -8,15 -19,25 -36,32 -3,1 -7,3 -11,4 -3,1 -6,2 -9,2zm-73 -82l77 190 -8 5 -74 -184c1,-4 3,-8 5,-11zm-283 87c-1,-6 -1,-11 -1,-16 0,-17 4,-32 11,-46 6,-14 16,-27 27,-37 12,-11 26,-20 41,-26 21,-8 37,-11 49,-7 12,3 21,10 25,22 5,10 5,21 2,31l0 0c0,-2 -1,-4 -2,-6 -4,-11 -13,-18 -25,-22 -12,-3 -28,-1 -49,8 -15,6 -29,14 -41,25 -11,11 -21,23 -27,37 -6,12 -9,24 -10,37zm84 -5c1,4 3,9 5,13 7,18 18,30 34,36 16,6 33,5 53,-3 15,-6 26,-14 34,-24 5,-5 8,-10 11,-16l5 13c-3,9 -8,19 -16,29 -8,10 -19,18 -34,24 -20,8 -37,9 -53,3 -16,-6 -27,-18 -34,-36 -6,-14 -8,-27 -5,-39zm-228 -76l78 339 -6 3 -78 -340 6 -2zm-176 234l7 28 -5 4 -3 -10c-2,-9 -1,-17 1,-22zm-101 -14c-3,-19 0,-35 10,-48 10,-15 28,-25 51,-30l152 -35 5 24 -157 36c-23,6 -41,16 -51,30 -5,7 -9,15 -10,23zm-73 -126l41 345 -3 1 -41 -346 3 0zm-197 23l8 69c1,6 1,12 -1,17l-10 -85 3 -1zm-186 204c2,13 5,24 11,34 6,9 13,17 22,24 9,6 19,10 30,13 11,2 22,3 34,1 17,-2 29,-6 37,-12 3,-4 6,-7 7,-12 1,2 1,5 1,7 2,14 -1,24 -8,30 -8,7 -20,11 -37,13 -12,1 -23,1 -34,-2 -11,-2 -21,-6 -30,-13 -9,-6 -16,-14 -22,-24 -6,-10 -10,-21 -11,-34 -1,-9 -1,-17 0,-25zm139 14l0 -2c-2,-5 -4,-11 -6,-16 3,-5 9,-10 16,-14 7,-4 16,-7 25,-8 7,0 15,0 22,2 8,1 15,4 21,9 6,4 11,10 15,17 4,7 7,16 8,26 1,8 1,15 0,22 -2,-9 -4,-16 -8,-22 -4,-7 -9,-13 -15,-17 -6,-5 -13,-8 -21,-10 -7,-1 -15,-2 -22,-1 -9,1 -18,4 -25,8 -4,2 -7,4 -10,6zm88 92c9,11 17,21 26,31 13,13 25,24 35,33 0,7 -2,14 -5,21 -9,-8 -19,-18 -30,-29 -12,-12 -24,-27 -36,-44 4,-3 7,-7 10,-12zm-311 -106c-1,-18 0,-34 4,-51 5,-18 13,-34 25,-49 13,-14 28,-26 48,-36 19,-10 42,-16 70,-20l43 -5 3 26 -46 5c-28,3 -51,10 -70,20 -20,9 -35,22 -48,36 -12,14 -20,31 -25,49 -2,8 -3,17 -4,25zm-146 -165l12 347 -1 0 -12 -347 1 0zm-188 7c4,9 8,19 12,29 8,21 12,44 13,68 0,8 0,15 -1,21 -1,-22 -5,-43 -12,-63 -7,-21 -17,-39 -27,-55l15 0zm-145 211c-1,-3 -1,-6 -1,-10 -1,-11 1,-21 6,-31 7,1 13,1 19,1 19,-1 35,-8 46,-23 9,-11 14,-27 15,-48l1 6c1,31 -4,54 -16,68 -11,14 -27,22 -46,23 -6,0 -12,-1 -19,-2 -3,5 -4,10 -5,16zm-148 115c-2,-6 -2,-12 -1,-19l37 -312 3 0 -39 331zm-269 -160c21,3 40,1 56,-5 16,-6 29,-13 40,-22l20 -167 3 1 -23 191c-11,10 -24,17 -40,23 -16,6 -35,7 -56,5 -28,-3 -51,-13 -66,-28 -16,-15 -26,-33 -30,-53 3,0 6,0 9,0 5,10 12,19 21,27 15,16 38,25 66,28zm10 -206l1 2c5,12 7,25 5,39l0 3c-1,-5 -3,-11 -5,-16 -5,-12 -11,-22 -19,-30l18 2zm-1209 -581c7,-12 17,-19 30,-23 13,-3 26,-1 40,7 13,8 22,19 25,32 2,8 2,16 -1,24 -3,-12 -11,-22 -24,-30 -14,-8 -27,-11 -40,-7 -13,3 -23,11 -30,23 -3,4 -5,9 -6,13l0 -1c-3,-14 -1,-26 6,-38zm397 604c19,8 37,12 55,10 17,-1 32,-5 44,-11l64 -157 8 4 -72 179c-12,6 -27,10 -44,11 -18,1 -36,-2 -55,-10 -27,-11 -46,-26 -57,-44 -11,-19 -16,-39 -15,-59l2 1c2,11 7,21 13,32 11,19 30,34 57,44zm63 -198l1 5c1,7 1,15 -1,22 -2,-11 -5,-22 -10,-31l10 4zm-254 -103c0,4 0,8 0,12l-1 3c0,-5 -1,-11 -1,-16l2 1zm-29 113c10,6 21,12 33,16 8,4 16,7 24,9 7,2 15,4 24,5 2,-5 5,-8 8,-11 4,-2 8,-2 14,-1 28,9 51,11 67,6 16,-4 28,-15 34,-31 2,-4 3,-7 4,-10l0 1c2,11 1,22 -4,34 -6,17 -18,27 -34,32 -16,5 -39,3 -67,-6 -6,-1 -10,-1 -14,1 -3,2 -6,6 -8,10 -9,-1 -17,-2 -24,-4 -8,-3 -16,-6 -24,-9 -18,-7 -34,-16 -48,-26 5,-5 10,-10 15,-16z"/>
  <g id="_674142056">
   <path class="fil20" d="M6268 4309l0 394c-6,2 -12,3 -20,5 -7,1 -16,2 -27,2 -24,0 -40,-4 -49,-11 -8,-8 -13,-21 -13,-38l0 -352 -35 0 -14 0 -1 0 -262 0 0 74c12,-7 25,-13 39,-17 15,-4 32,-6 51,-6 20,0 39,3 56,10 18,6 33,16 46,28 13,13 23,28 31,46 8,18 11,39 11,63 0,23 -3,43 -11,61 -7,18 -17,33 -29,45 -12,12 -26,21 -43,27 -16,6 -32,9 -50,9 -44,0 -67,-17 -67,-52 0,-7 1,-14 3,-20 2,-6 5,-12 8,-17 6,2 14,2 22,2 15,0 28,-4 39,-14 11,-10 17,-24 17,-44 0,-17 -6,-32 -17,-42 -12,-11 -27,-16 -47,-16 -12,0 -24,3 -33,7 -10,5 -18,11 -26,18l0 232c-5,2 -11,3 -19,5 -8,1 -17,2 -27,2 -24,0 -40,-4 -49,-11 -9,-8 -13,-21 -13,-38l0 -39c-11,7 -25,13 -40,17 -15,5 -32,7 -51,7 -20,0 -38,-3 -56,-10 -17,-6 -33,-16 -46,-28 -14,-13 -25,-28 -33,-46 -8,-19 -12,-40 -12,-65 0,-22 4,-43 11,-60 8,-18 18,-33 31,-44 12,-12 27,-21 43,-27 16,-6 33,-9 51,-9 25,0 43,5 55,14 12,10 18,23 18,39 0,15 -4,28 -12,38 -3,-1 -7,-2 -11,-3 -4,-1 -9,-2 -16,-2 -17,0 -30,5 -42,15 -11,9 -16,24 -16,43 0,17 5,32 17,42 12,11 28,16 47,16 14,0 26,-2 37,-7 10,-5 18,-11 25,-18l0 -225 -246 0 -16 0 0 0 -68 0c7,13 13,28 18,46 5,18 7,40 7,65 0,44 -7,76 -21,96 -14,20 -32,30 -54,30 -12,0 -23,-2 -33,-7 -9,-5 -17,-11 -25,-18 8,-18 13,-38 16,-61 4,-22 6,-44 6,-65 0,-17 -2,-33 -5,-48 -3,-14 -6,-27 -10,-38l-113 0 0 230c12,6 26,13 43,20 16,8 32,16 49,25 17,9 34,17 50,26 17,9 31,17 45,25 15,9 27,19 34,29 8,10 12,22 12,35 0,16 -5,29 -16,40 -12,11 -27,17 -46,18 -15,-12 -31,-25 -51,-38 -19,-14 -40,-27 -61,-41 -22,-14 -44,-28 -67,-42 -23,-14 -45,-27 -67,-39 -11,-6 -19,-13 -25,-20 -6,-8 -9,-18 -9,-32l0 -236 -49 0c-12,0 -20,-4 -25,-11 -4,-7 -7,-17 -7,-31 0,-5 1,-12 2,-20 2,-7 3,-13 5,-18l284 0c-9,-15 -20,-29 -34,-42 -14,-13 -28,-25 -43,-36 -15,-10 -30,-19 -46,-26 -15,-8 -29,-13 -42,-17 -1,-2 -1,-5 -1,-7 0,-2 0,-5 0,-7 0,-18 5,-34 15,-47 9,-14 25,-21 45,-21 19,0 39,6 58,18 20,11 39,26 56,45 18,20 35,41 49,65 15,25 27,50 36,75l64 0 16 0 616 0 16 0 216 0c21,0 31,13 31,40 0,5 0,12 -2,20 -1,9 -4,15 -6,20l-72 0zm-2224 -270c192,2 358,117 427,297 67,176 25,368 -121,494 -99,85 -141,190 -155,315 -14,126 -121,224 -242,226 -129,3 -238,-89 -258,-218 -2,-12 -6,-26 -1,-36 6,-13 20,-32 30,-32 14,0 32,13 41,26 8,11 5,29 8,43 18,84 95,146 178,142 89,-5 161,-72 171,-160 4,-37 10,-73 18,-109 19,-97 71,-174 147,-236 75,-62 118,-142 134,-239 34,-198 -115,-403 -314,-431 -135,-18 -250,18 -344,119 -16,18 -33,33 -55,11 -21,-20 -17,-40 0,-62 72,-92 203,-151 336,-150zm497 852c-4,78 -66,141 -142,140 -28,0 -45,-13 -46,-41 -1,-25 17,-33 42,-35 63,-6 83,-41 55,-99 -11,-24 -11,-42 14,-55 25,-14 44,-1 54,21 10,22 16,46 23,69zm174 -5c-3,177 -150,315 -323,301 -26,-2 -39,-16 -39,-40 0,-22 14,-34 38,-35 27,-2 55,-4 80,-10 127,-34 189,-154 150,-292 -4,-16 -12,-32 -17,-48 -8,-26 -3,-47 24,-57 28,-11 40,9 46,29 15,50 27,101 41,152zm153 17c0,214 -145,397 -353,442 -36,7 -76,7 -113,3 -13,-2 -31,-25 -33,-40 -3,-22 15,-32 39,-33 285,-8 449,-245 360,-521 -8,-27 -20,-53 -31,-79 -10,-24 -6,-44 17,-56 26,-13 42,1 52,25 38,82 63,167 62,259zm-827 -134c-1,-52 8,-71 37,-70 45,3 35,41 38,68 9,115 -65,221 -167,242 -54,12 -101,0 -138,-42 -37,-43 -46,-96 -22,-148 14,-32 37,-61 61,-86 41,-42 44,-51 11,-100 -8,-12 -15,-23 -24,-33 -71,-81 -50,-172 0,-245 83,-122 261,-144 374,-49 111,94 118,272 14,375 -10,10 -24,22 -36,22 -12,0 -32,-11 -35,-21 -3,-13 1,-34 11,-44 37,-41 61,-86 61,-142 -2,-87 -69,-162 -157,-174 -77,-10 -172,50 -195,124 -11,34 -4,65 17,94 19,27 38,55 54,84 26,47 21,92 -15,133 -18,19 -37,37 -53,56 -28,33 -31,76 -10,102 21,26 63,29 102,7 46,-26 73,-84 72,-153zm881 1373c-782,0 -1415,-633 -1415,-1415 0,-782 633,-1416 1415,-1416 487,0 917,247 1172,622l183 0c-272,-465 -777,-777 -1355,-777 -868,0 -1571,703 -1571,1571 0,499 233,944 596,1232l-229 749 581 -539c191,83 401,129 623,129 608,0 1136,-346 1397,-852l-178 0c-246,417 -700,696 -1219,696zm112 273c-244,0 -477,-44 -690,-125l-247 181c207,82 433,126 670,126 416,0 801,-139 1109,-372 -252,121 -538,190 -842,190zm-1209 -425c-385,-315 -628,-778 -628,-1294 0,-950 823,-1719 1837,-1719 75,0 149,4 222,12 -156,-43 -320,-66 -489,-66 -1015,0 -1838,823 -1838,1837 0,648 335,1217 841,1544l55 -314zm1787 -866c8,-2 17,-4 26,-6 10,-1 20,-2 30,-2 30,0 53,7 68,20 16,13 24,30 24,51 0,13 -3,24 -9,34 -5,9 -13,17 -23,24 -9,6 -21,11 -35,14 -14,3 -29,5 -45,5 -1,0 -3,0 -4,0 -1,0 -2,0 -4,-1 8,8 17,15 27,23 9,7 20,13 31,20 -1,10 -4,19 -10,26 -6,6 -15,10 -26,10 -12,0 -22,-4 -32,-12 -9,-8 -19,-20 -28,-37l-20 -35c-15,-4 -27,-10 -36,-17 -9,-7 -14,-16 -14,-26 0,-7 2,-13 6,-18 5,-5 10,-9 16,-11 10,9 23,18 39,24 16,7 34,10 55,10 17,0 30,-3 39,-8 9,-6 13,-14 13,-24 0,-19 -16,-29 -47,-29 -9,0 -18,1 -27,3 -10,2 -18,4 -26,6 -7,-2 -14,-5 -22,-9 -7,-4 -14,-9 -20,-15 -6,-6 -11,-13 -15,-21 -4,-8 -7,-17 -7,-27 0,-19 7,-34 20,-46 13,-11 33,-17 59,-17l66 0 0 -37 -169 0c-12,0 -18,-8 -18,-23 0,-2 0,-6 1,-10 1,-4 2,-8 3,-10l269 0 12 0 36 0c-3,-5 -5,-11 -6,-18 -2,-7 -3,-14 -3,-22 0,-29 12,-52 35,-69 23,-16 55,-25 96,-25 27,0 52,3 74,10 22,6 42,13 58,22 16,9 28,18 37,28 9,10 13,18 13,24 0,7 -3,13 -9,17 -7,5 -15,7 -26,7 -17,-19 -37,-34 -61,-45 -23,-11 -50,-16 -81,-16 -25,0 -43,4 -57,14 -13,10 -19,23 -19,41 0,6 0,12 1,17 1,6 3,11 5,15l29 0 11 0 259 0 12 0 301 0 9 0 135 0c12,0 18,7 18,21 0,3 0,7 -1,11 -1,5 -2,8 -3,11l-50 0 0 263c-2,1 -6,1 -10,2 -4,1 -9,2 -14,2 -12,0 -21,-3 -26,-7 -5,-4 -7,-11 -7,-20l0 -240 -28 0 -9 0 0 0 -41 0 0 263c-2,1 -6,1 -10,2 -4,1 -9,2 -14,2 -12,0 -21,-3 -25,-7 -5,-4 -8,-11 -8,-20l0 -51c-8,8 -19,13 -30,17 -12,3 -25,5 -40,5 -25,0 -46,-5 -65,-15 -18,-10 -33,-23 -43,-40 -6,-9 -11,-19 -14,-30 -4,-10 -5,-19 -5,-27 0,-4 0,-8 2,-11 2,-3 5,-4 9,-5 21,-2 36,-6 46,-14 9,-7 14,-17 14,-30 0,-9 -2,-17 -7,-23 -5,-7 -11,-12 -19,-16l-51 0 -12 0 -43 0 0 57c0,15 -8,22 -24,22l-87 0c-12,0 -20,2 -25,7 -4,4 -7,10 -7,17 0,6 2,12 5,16 3,3 7,7 11,9 9,-2 17,-4 27,-6 9,-1 19,-2 29,-2 30,0 53,7 69,20 15,13 23,30 23,51 0,26 -10,45 -30,59 -20,13 -47,19 -81,19 -16,0 -30,-1 -44,-3 -14,-3 -27,-6 -37,-11 -11,-4 -20,-9 -26,-15 -6,-7 -10,-13 -10,-21 0,-8 2,-14 7,-19 4,-4 9,-8 15,-10 10,9 23,17 39,24 16,7 34,10 55,10 18,0 31,-3 39,-8 9,-6 14,-14 14,-24 0,-19 -16,-29 -48,-29 -9,0 -18,1 -27,3 -9,2 -18,4 -26,6 -7,-2 -14,-5 -21,-9 -8,-4 -15,-9 -21,-15 -6,-6 -11,-13 -15,-21 -4,-8 -6,-17 -6,-27 0,-19 6,-34 20,-46 13,-11 32,-17 58,-17l67 0 0 -37 -160 0 -10 0 -39 0 0 263c-3,1 -6,1 -10,2 -4,1 -9,2 -15,2 -12,0 -20,-3 -25,-7 -5,-4 -7,-11 -7,-20l0 -240 -26 0 -12 0 0 0 -42 0 0 57c0,15 -8,22 -24,22l-87 0c-12,0 -20,2 -25,7 -5,4 -7,10 -7,17 0,6 1,12 5,16 3,3 6,7 11,9zm62 -248c0,-9 3,-18 9,-24 7,-7 16,-11 27,-11 11,0 20,4 27,11 6,6 10,15 10,24 0,10 -4,18 -10,25 -7,7 -16,11 -27,11 -11,0 -20,-4 -27,-11 -6,-7 -9,-15 -9,-25zm662 284c15,0 27,-3 38,-9 11,-5 20,-11 26,-19l0 -136 -90 0c6,5 12,12 16,20 5,7 7,16 7,26 0,11 -2,20 -5,27 -4,8 -9,15 -15,21 -7,5 -14,10 -23,13 -9,4 -18,6 -29,8 5,14 13,25 26,34 12,10 28,15 49,15z"/>
   <path class="fil21" d="M6268 4281l0 394c-6,2 -12,3 -20,5 -7,1 -16,2 -27,2 -24,0 -40,-4 -49,-11 -8,-8 -13,-21 -13,-38l0 -352 -35 0 -14 0 -1 0 -262 0 0 74c12,-7 25,-13 39,-17 15,-4 32,-6 51,-6 20,0 39,3 56,10 18,6 33,16 46,28 13,13 23,28 31,46 8,18 11,39 11,63 0,23 -3,43 -11,61 -7,18 -17,33 -29,45 -12,12 -26,21 -43,27 -16,6 -32,9 -50,9 -44,0 -67,-17 -67,-52 0,-7 1,-14 3,-20 2,-6 5,-12 8,-17 6,2 14,2 22,2 15,0 28,-4 39,-14 11,-10 17,-24 17,-44 0,-18 -6,-32 -17,-42 -12,-11 -27,-16 -47,-16 -12,0 -24,3 -33,7 -10,5 -18,11 -26,18l0 232c-5,2 -11,3 -19,5 -8,1 -17,2 -27,2 -24,0 -40,-4 -49,-11 -9,-8 -13,-21 -13,-38l0 -39c-11,7 -25,13 -40,17 -15,5 -32,7 -51,7 -20,0 -38,-3 -56,-10 -17,-6 -33,-16 -46,-28 -14,-13 -25,-28 -33,-46 -8,-19 -12,-40 -12,-65 0,-23 4,-43 11,-60 8,-18 18,-33 31,-44 12,-12 27,-21 43,-27 16,-6 33,-9 51,-9 25,0 43,5 55,14 12,10 18,23 18,39 0,15 -4,28 -12,38 -3,-1 -7,-2 -11,-3 -4,-1 -9,-2 -16,-2 -17,0 -30,5 -42,15 -11,9 -16,24 -16,42 0,18 5,33 17,43 12,11 28,16 47,16 14,0 26,-2 37,-7 10,-5 18,-11 25,-18l0 -225 -246 0 -16 0 0 0 -68 0c7,13 13,28 18,46 5,18 7,40 7,65 0,44 -7,76 -21,96 -14,20 -32,30 -54,30 -12,0 -23,-2 -33,-7 -9,-5 -17,-11 -25,-18 8,-18 13,-38 16,-61 4,-22 6,-44 6,-65 0,-17 -2,-33 -5,-48 -3,-14 -6,-27 -10,-38l-113 0 0 230c12,6 26,13 43,20 16,8 32,16 49,25 17,9 34,17 50,26 17,9 31,17 45,25 15,9 27,19 34,29 8,10 12,22 12,35 0,16 -5,29 -16,40 -12,11 -27,17 -46,18 -15,-12 -31,-25 -51,-38 -19,-14 -40,-27 -61,-41 -22,-14 -44,-28 -67,-42 -23,-14 -45,-27 -67,-39 -11,-6 -19,-13 -25,-20 -6,-8 -9,-18 -9,-32l0 -236 -49 0c-12,0 -20,-4 -25,-11 -4,-7 -7,-17 -7,-31 0,-5 1,-12 2,-20 2,-7 3,-13 5,-18l284 0c-9,-15 -20,-29 -34,-42 -14,-13 -28,-25 -43,-36 -15,-10 -30,-19 -46,-26 -15,-8 -29,-13 -42,-17 -1,-2 -1,-5 -1,-7 0,-2 0,-5 0,-7 0,-18 5,-34 15,-47 9,-14 25,-21 45,-21 19,0 39,6 58,18 20,11 39,26 56,45 18,20 35,41 49,65 15,25 27,50 36,75l64 0 16 0 616 0 16 0 216 0c21,0 31,13 31,40 0,5 0,12 -2,20 -1,9 -4,15 -6,20l-72 0zm-2224 -270c192,2 358,117 427,297 67,176 25,368 -121,494 -99,85 -141,190 -155,315 -14,126 -121,224 -242,226 -129,3 -238,-89 -258,-218 -2,-12 -6,-26 -1,-36 6,-13 20,-32 30,-32 14,0 32,13 41,26 8,11 5,28 8,43 18,84 95,146 178,142 89,-5 161,-72 171,-160 4,-37 10,-73 18,-109 19,-97 71,-174 147,-236 75,-62 118,-143 134,-239 34,-198 -115,-403 -314,-431 -135,-18 -250,18 -344,119 -16,18 -33,33 -55,11 -21,-20 -17,-40 0,-62 72,-92 203,-151 336,-150zm497 852c-4,78 -66,141 -142,140 -28,0 -45,-13 -46,-41 -1,-25 17,-33 42,-35 63,-6 83,-41 55,-99 -11,-24 -11,-42 14,-55 25,-14 44,-1 54,21 10,22 16,46 23,69zm174 -5c-3,177 -150,315 -323,301 -26,-2 -39,-16 -39,-40 0,-22 14,-34 38,-35 27,-2 55,-4 80,-11 127,-33 189,-153 150,-291 -4,-16 -12,-32 -17,-48 -8,-26 -3,-47 24,-57 28,-11 40,9 46,29 15,50 27,101 41,152zm153 17c0,214 -145,397 -353,442 -36,7 -76,7 -113,3 -13,-2 -31,-25 -33,-40 -3,-22 15,-32 39,-33 285,-8 449,-245 360,-521 -8,-27 -20,-53 -31,-79 -10,-24 -6,-44 17,-56 26,-13 42,1 52,25 38,82 63,167 62,259zm-827 -134c-1,-52 8,-71 37,-70 45,3 35,41 38,68 9,115 -65,221 -167,242 -54,12 -101,0 -138,-42 -37,-43 -46,-96 -22,-148 14,-32 37,-61 61,-86 41,-42 44,-51 11,-100 -8,-12 -15,-23 -24,-33 -71,-81 -50,-172 0,-245 83,-122 261,-144 374,-49 111,94 118,272 14,375 -10,10 -24,22 -36,22 -12,0 -32,-11 -35,-21 -3,-13 1,-34 11,-44 37,-41 61,-86 61,-142 -2,-87 -69,-162 -157,-174 -77,-10 -172,50 -195,124 -11,34 -4,65 17,94 19,27 38,55 54,84 26,47 21,92 -15,133 -18,19 -37,37 -53,56 -28,33 -31,76 -10,102 21,26 63,29 102,7 46,-26 73,-84 72,-153zm881 1373c-782,0 -1415,-633 -1415,-1415 0,-782 633,-1416 1415,-1416 487,0 917,247 1172,622l183 0c-272,-465 -777,-777 -1355,-777 -868,0 -1571,703 -1571,1571 0,499 233,944 596,1232l-229 749 581 -539c191,83 401,129 623,129 608,0 1136,-346 1397,-852l-178 0c-246,417 -700,696 -1219,696zm112 273c-244,0 -477,-44 -690,-125l-247 181c207,82 433,126 670,126 416,0 801,-139 1109,-372 -252,121 -538,190 -842,190zm-1209 -425c-385,-315 -628,-778 -628,-1294 0,-950 823,-1719 1837,-1719 75,0 149,4 222,12 -156,-43 -320,-66 -489,-66 -1015,0 -1838,823 -1838,1837 0,648 335,1217 841,1544l55 -314zm1787 -866c8,-2 17,-4 26,-6 10,-1 20,-2 30,-2 30,0 53,7 68,20 16,13 24,30 24,51 0,13 -3,24 -9,34 -5,9 -13,17 -23,24 -9,6 -21,11 -35,14 -14,3 -29,5 -45,5 -1,0 -3,0 -4,0 -1,0 -2,0 -4,-1 8,8 17,15 27,22 9,8 20,14 31,21 -1,10 -4,19 -10,25 -6,7 -15,11 -26,11 -12,0 -22,-4 -32,-12 -9,-8 -19,-21 -28,-37l-20 -35c-15,-4 -27,-10 -36,-17 -9,-7 -14,-16 -14,-26 0,-7 2,-13 6,-18 5,-5 10,-9 16,-11 10,9 23,18 39,24 16,7 34,10 55,10 17,0 30,-3 39,-9 9,-5 13,-13 13,-23 0,-19 -16,-29 -47,-29 -9,0 -18,1 -27,3 -10,2 -18,4 -26,6 -7,-2 -14,-5 -22,-9 -7,-4 -14,-9 -20,-15 -6,-6 -11,-13 -15,-21 -4,-8 -7,-17 -7,-27 0,-19 7,-34 20,-46 13,-11 33,-17 59,-17l66 0 0 -37 -169 0c-12,0 -18,-8 -18,-23 0,-3 0,-6 1,-10 1,-4 2,-8 3,-10l269 0 12 0 36 0c-3,-5 -5,-11 -6,-18 -2,-7 -3,-14 -3,-22 0,-29 12,-52 35,-69 23,-17 55,-25 96,-25 27,0 52,3 74,9 22,7 42,14 58,23 16,9 28,18 37,28 9,10 13,18 13,24 0,7 -3,13 -9,17 -7,5 -15,7 -26,7 -17,-19 -37,-34 -61,-45 -23,-11 -50,-16 -81,-16 -25,0 -43,4 -57,14 -13,10 -19,23 -19,41 0,6 0,12 1,17 1,6 3,11 5,15l29 0 11 0 259 0 12 0 301 0 9 0 135 0c12,0 18,7 18,21 0,3 0,7 -1,11 -1,5 -2,8 -3,11l-50 0 0 263c-2,1 -6,1 -10,2 -4,1 -9,1 -14,1 -12,0 -21,-2 -26,-6 -5,-4 -7,-11 -7,-20l0 -240 -28 0 -9 0 0 0 -41 0 0 263c-2,1 -6,1 -10,2 -4,1 -9,1 -14,1 -12,0 -21,-2 -25,-6 -5,-4 -8,-11 -8,-20l0 -51c-8,8 -19,13 -30,17 -12,3 -25,5 -40,5 -25,0 -46,-5 -65,-15 -18,-10 -33,-23 -43,-40 -6,-9 -11,-19 -14,-30 -4,-10 -5,-19 -5,-27 0,-4 0,-8 2,-11 2,-3 5,-4 9,-5 21,-2 36,-6 46,-14 9,-7 14,-17 14,-30 0,-9 -2,-17 -7,-23 -5,-7 -11,-12 -19,-16l-51 0 -12 0 -43 0 0 57c0,15 -8,22 -24,22l-87 0c-12,0 -20,2 -25,7 -4,4 -7,10 -7,17 0,6 2,12 5,16 3,3 7,7 11,9 9,-2 17,-4 27,-6 9,-1 19,-2 29,-2 30,0 53,7 69,20 15,13 23,30 23,51 0,26 -10,45 -30,59 -20,13 -47,19 -81,19 -16,0 -30,-1 -44,-3 -14,-3 -27,-6 -37,-11 -11,-4 -20,-9 -26,-15 -6,-7 -10,-13 -10,-21 0,-8 2,-14 7,-19 4,-4 9,-8 15,-10 10,9 23,17 39,24 16,7 34,10 55,10 18,0 31,-3 39,-9 9,-5 14,-13 14,-23 0,-19 -16,-29 -48,-29 -9,0 -18,1 -27,3 -9,2 -18,4 -26,6 -7,-2 -14,-5 -21,-9 -8,-4 -15,-9 -21,-15 -6,-6 -11,-13 -15,-21 -4,-8 -6,-17 -6,-27 0,-19 6,-34 20,-46 13,-11 32,-17 58,-17l67 0 0 -37 -160 0 -10 0 -39 0 0 263c-3,1 -6,1 -10,2 -4,1 -9,1 -15,1 -12,0 -20,-2 -25,-6 -5,-4 -7,-11 -7,-20l0 -240 -26 0 -12 0 0 0 -42 0 0 57c0,15 -8,22 -24,22l-87 0c-12,0 -20,2 -25,7 -5,4 -7,10 -7,17 0,6 1,12 5,16 3,3 6,7 11,9zm62 -248c0,-9 3,-18 9,-25 7,-6 16,-10 27,-10 11,0 20,4 27,10 6,7 10,16 10,25 0,10 -4,18 -10,25 -7,7 -16,11 -27,11 -11,0 -20,-4 -27,-11 -6,-7 -9,-15 -9,-25zm662 284c15,0 27,-3 38,-9 11,-5 20,-11 26,-19l0 -136 -90 0c6,5 12,12 16,20 5,7 7,16 7,26 0,10 -2,19 -5,27 -4,8 -9,15 -15,21 -7,5 -14,10 -23,13 -9,4 -18,6 -29,8 5,14 13,25 26,34 12,10 28,15 49,15z"/>
   <path class="fil19" d="M5847 4355c12,-7 25,-13 39,-17 15,-4 32,-6 51,-6 20,0 39,3 56,10 18,6 33,16 46,28 13,13 23,28 31,46 8,18 11,39 11,63 0,4 0,9 0,14 -1,-18 -5,-34 -11,-49 -8,-18 -18,-33 -31,-46 -13,-12 -28,-22 -46,-28 -17,-7 -36,-10 -56,-10 -19,0 -36,2 -51,6 -14,4 -27,10 -39,17l0 -28zm36 228c-1,-4 -2,-9 -2,-14 0,-7 1,-14 3,-20 2,-6 5,-12 8,-17 6,2 14,2 22,2 15,0 28,-4 39,-14 8,-7 13,-17 16,-29 0,4 1,9 1,13 0,20 -6,34 -17,44 -11,10 -24,14 -39,14 -8,0 -16,0 -22,-2 -3,5 -6,11 -8,17 -1,2 -1,4 -1,6zm-382 -99c0,-5 0,-10 0,-15 0,-23 4,-43 11,-60 8,-18 18,-33 31,-44 12,-12 27,-21 43,-27 16,-6 33,-9 51,-9 25,0 43,5 55,14 12,10 18,23 18,39 0,6 -1,10 -2,15 -2,-10 -7,-19 -16,-26 -12,-9 -30,-14 -55,-14 -18,0 -35,3 -51,9 -16,6 -31,15 -43,27 -13,11 -23,26 -31,44 -6,14 -9,29 -11,47zm113 2c2,12 8,21 16,29 12,11 28,16 47,16 14,0 26,-2 37,-7 10,-5 18,-11 25,-18l0 28c-7,7 -15,13 -25,18 -11,5 -23,7 -37,7 -19,0 -35,-5 -47,-16 -12,-10 -17,-25 -17,-42 0,-6 0,-10 1,-15zm-193 -177c2,5 4,12 6,18 5,18 7,40 7,65 0,5 0,10 0,14 -1,-19 -3,-36 -7,-51 -5,-18 -11,-33 -18,-46l12 0zm-112 191c-3,-2 -5,-5 -8,-7 8,-18 13,-38 16,-61 3,-17 5,-33 5,-50 1,4 1,9 1,13 0,21 -2,43 -6,65 -2,14 -5,27 -8,40zm-114 11c12,6 26,13 43,20 16,8 32,16 49,25 17,9 34,17 50,26 17,9 31,17 45,25 15,9 27,19 34,29 8,10 12,22 12,35 0,5 0,10 -1,14 -2,-8 -6,-15 -11,-21 -7,-10 -19,-20 -34,-29 -14,-8 -28,-16 -45,-25 -16,-9 -33,-17 -50,-26 -17,-9 -33,-17 -49,-25 -17,-7 -31,-14 -43,-20l0 -28zm-189 -258c0,-4 -1,-8 -1,-14 0,-5 1,-12 2,-20 2,-7 3,-13 5,-18l264 0c7,9 14,18 20,28l-284 0c-2,5 -3,11 -5,18l-1 6zm125 -173l0 0c-1,-2 -1,-5 -1,-7 0,-2 0,-5 0,-7 0,-18 5,-34 15,-47 9,-14 25,-21 45,-21 19,0 39,6 58,18 20,11 39,26 56,45 18,20 35,41 49,65 15,25 27,50 36,75l64 0 16 0 616 0 16 0 216 0c21,0 31,13 31,40 0,4 0,8 -1,14 -3,-17 -13,-26 -30,-26l-216 0 -16 0 -616 0 -16 0 -64 0c-9,-25 -21,-50 -36,-75 -14,-24 -31,-45 -49,-65 -17,-19 -36,-34 -56,-45 -19,-12 -39,-18 -58,-18 -20,0 -36,7 -45,21 -8,10 -12,21 -14,33zm-1087 -69c192,2 358,117 427,297 22,59 33,120 31,180 -2,-51 -12,-102 -31,-152 -69,-180 -235,-295 -427,-297 -133,-1 -264,58 -336,150 -5,6 -9,13 -12,19 -6,-15 -1,-31 12,-47 72,-92 203,-151 336,-150zm-351 1107c-1,-10 -3,-21 1,-29 6,-13 20,-32 30,-32 14,0 32,13 41,26 8,11 5,28 8,43 18,84 95,146 178,142 89,-5 161,-72 171,-160 4,-37 10,-73 18,-109 19,-97 71,-174 147,-236 75,-62 118,-143 134,-239 2,-14 4,-28 4,-43 1,24 0,47 -4,71 -16,97 -59,177 -134,239 -76,62 -128,139 -147,236 -8,36 -14,72 -18,109 -10,88 -82,155 -171,160 -83,4 -160,-58 -178,-142 -3,-14 0,-32 -8,-43 -9,-13 -27,-26 -41,-26 -10,0 -24,19 -30,32l-1 1zm848 -255c0,6 -1,13 -2,20 -6,-21 -12,-42 -21,-61 -10,-22 -29,-35 -54,-21 -9,5 -15,10 -18,16 -7,-19 -3,-33 18,-44 25,-14 44,-1 54,21 10,22 16,46 23,69zm-186 113c-1,-4 -2,-9 -2,-14 -1,-25 17,-33 42,-35 38,-4 60,-18 66,-41 8,40 -15,64 -66,69 -20,1 -35,7 -40,21zm360 -118c0,8 -1,15 -1,23 -13,-49 -25,-98 -40,-147 -6,-20 -18,-40 -46,-29 -14,5 -22,13 -25,23 -6,-23 0,-42 25,-51 28,-11 40,9 46,29 15,50 27,101 41,152zm-360 276c-1,-5 -2,-10 -2,-15 0,-22 14,-34 38,-35 27,-2 55,-4 80,-11 97,-25 156,-102 161,-197 6,108 -54,197 -161,226 -25,6 -53,8 -80,10 -19,0 -31,8 -36,22zm513 -259l0 11c-2,-85 -26,-165 -62,-242 -10,-24 -26,-38 -52,-25 -10,5 -17,12 -20,20 -6,-21 -1,-38 20,-48 26,-13 42,1 52,25 38,82 63,167 62,259zm-496 415c-1,-4 -3,-7 -3,-10 -3,-22 15,-32 39,-33 227,-6 377,-158 384,-359 7,215 -146,381 -384,387 -16,1 -30,5 -36,15zm-331 -549c-1,-52 8,-71 37,-70 45,3 35,41 38,68 1,11 1,23 0,34l0 -6c-3,-27 7,-65 -38,-68 -29,-1 -38,18 -37,70 1,69 -26,127 -72,153 -39,22 -81,19 -102,-7 -12,-15 -16,-35 -12,-55 2,10 6,19 12,27 21,26 63,29 102,7 46,-26 73,-84 72,-153zm-265 122c-2,-23 2,-48 13,-72 14,-32 37,-61 61,-86 16,-16 26,-27 30,-38 9,23 -1,36 -30,66 -24,25 -47,54 -61,86 -7,15 -11,30 -13,44zm16 -392c-5,-50 15,-100 45,-144 83,-122 261,-144 374,-49 62,52 92,131 88,208 -4,-68 -33,-134 -88,-180 -113,-95 -291,-73 -374,49 -24,36 -42,75 -45,116zm363 185c0,0 0,-1 -1,-2 -3,-13 1,-34 11,-44 33,-37 56,-77 60,-125 0,3 1,7 1,11 0,56 -24,101 -61,142 -4,4 -8,11 -10,18zm-285 -193c3,17 10,33 21,49 19,27 38,55 54,84 13,24 18,48 15,72 -2,-15 -7,-30 -15,-44 -16,-29 -35,-57 -54,-84 -17,-24 -25,-50 -21,-77zm1052 1651c-777,0 -1408,-626 -1415,-1401l0 14c0,782 633,1415 1415,1415 519,0 973,-279 1219,-696l163 0c5,-10 10,-19 15,-28l-178 0c-246,417 -700,696 -1219,696zm1339 -2209l16 0c-272,-465 -777,-777 -1355,-777 -868,0 -1571,703 -1571,1571l0 18c6,-863 707,-1561 1571,-1561 566,0 1062,300 1339,749zm-2320 2048l-223 727 12 -11 217 -710 -6 -6zm1093 434c-244,0 -477,-44 -690,-125l-247 181c8,4 16,7 25,10l222 -163c213,81 446,125 690,125 261,0 509,-51 733,-142 38,-24 74,-50 109,-76 -252,121 -538,190 -842,190zm-1209 -425c-380,-312 -622,-768 -628,-1276l0 10c0,514 241,975 623,1290l5 -24zm1251 -3013c60,1 121,5 180,12 -156,-43 -320,-66 -489,-66 -1015,0 -1838,823 -1838,1837l1 18c5,-1010 825,-1827 1837,-1827 105,0 208,9 309,26zm536 2147c8,-2 17,-4 26,-6 10,-1 20,-2 30,-2 30,0 53,7 68,20 16,13 24,30 24,51 0,5 -1,10 -2,14 -2,-15 -10,-27 -22,-37 -15,-13 -38,-20 -68,-20 -10,0 -20,1 -30,2 -9,2 -18,4 -26,6 -5,-2 -8,-6 -11,-9 -4,-4 -5,-10 -5,-16 0,-5 1,-10 4,-14l1 2c3,3 6,7 11,9zm62 167c7,5 15,10 24,15 -1,9 -3,17 -8,23 -8,-5 -16,-10 -23,-15 -10,-8 -19,-15 -27,-23 2,1 3,1 4,1 1,0 3,0 4,0 9,0 18,0 26,-1zm-139 -62c-2,-4 -3,-9 -3,-14 0,-7 2,-13 6,-18 5,-5 10,-9 16,-11 10,9 23,18 39,24 16,7 34,10 55,10 17,0 30,-3 39,-9 4,-2 7,-5 9,-9 3,4 4,9 4,14 0,10 -4,18 -13,24 -9,5 -22,8 -39,8 -21,0 -39,-3 -55,-10 -16,-6 -29,-15 -39,-24 -6,2 -11,6 -16,11 -1,1 -2,2 -3,4zm3 -119c-1,-4 -2,-9 -2,-14 0,-19 7,-34 20,-46 13,-11 33,-17 59,-17l66 0 0 28 -66 0c-26,0 -46,6 -59,17 -9,9 -15,19 -18,32zm-42 -124c-1,-3 -2,-8 -2,-13 0,-3 0,-6 1,-10 1,-4 2,-8 3,-10l269 0 12 0 28 0c0,3 1,7 2,10 1,7 3,13 6,18l-36 0 -12 0 -269 0c-1,1 -2,3 -2,5zm311 -59c-1,-5 -1,-9 -1,-14 0,-29 12,-52 35,-69 23,-17 55,-25 96,-25 27,0 52,3 74,9 22,7 42,14 58,23 16,9 28,18 37,28 9,10 13,18 13,24 0,5 -2,10 -5,14 -2,-3 -5,-7 -8,-10 -9,-10 -21,-19 -37,-28 -16,-9 -36,-16 -58,-22 -22,-7 -47,-10 -74,-10 -41,0 -73,9 -96,25 -20,14 -31,33 -34,55zm60 9l0 2c1,6 3,11 5,15l29 0 11 0 170 0 2 2c6,0 12,-1 17,-2l70 0 12 0 301 0 9 0 135 0c12,0 18,7 18,21 0,3 0,7 -1,11l-1 5c-3,-6 -8,-9 -16,-9l-135 0 -9 0 -301 0 -12 0 -259 0 -11 0 -29 0c-2,-4 -4,-9 -5,-15 -1,-5 -1,-11 -1,-17 0,-5 0,-9 1,-13zm338 177c-2,-7 -2,-13 -2,-18 0,-4 0,-8 2,-11 2,-3 5,-4 9,-5 21,-2 36,-6 46,-14 5,-4 9,-10 12,-16 1,4 2,9 2,14 0,13 -5,23 -14,30 -10,8 -25,12 -46,14 -4,1 -7,2 -9,5l0 1zm-202 0l1 2c3,3 7,7 11,9 9,-2 17,-4 27,-6 9,-1 19,-2 29,-2 30,0 53,7 69,20 15,13 23,30 23,51 0,5 0,10 -1,14 -3,-14 -10,-27 -22,-37 -16,-13 -39,-20 -69,-20 -10,0 -20,1 -29,2 -10,2 -18,4 -27,6 -4,-2 -8,-6 -11,-9 -3,-4 -5,-10 -5,-16 0,-5 1,-10 4,-14zm-64 115c-2,-4 -4,-8 -4,-13 0,-8 2,-14 7,-19 4,-4 9,-8 15,-10 10,9 23,17 39,24 16,7 34,10 55,10 18,0 31,-3 39,-9 5,-2 8,-5 10,-9 2,4 4,9 4,14 0,10 -5,18 -14,24 -8,5 -21,8 -39,8 -21,0 -39,-3 -55,-10 -16,-7 -29,-15 -39,-24 -6,2 -11,6 -15,10 -1,2 -2,3 -3,4zm2 -118c-1,-4 -1,-9 -1,-14 0,-19 6,-34 20,-46 13,-11 32,-17 58,-17l67 0 0 28 -67 0c-26,0 -45,6 -58,17 -10,9 -16,19 -19,32zm-267 -234c0,-9 3,-18 9,-25 7,-6 16,-10 27,-10 11,0 20,4 27,10 6,7 10,16 10,25 0,5 -1,10 -3,14 -2,-4 -4,-7 -7,-10 -7,-7 -16,-11 -27,-11 -11,0 -20,4 -27,11 -3,3 -5,6 -7,10 -2,-4 -2,-9 -2,-14zm662 284c15,0 27,-3 38,-9 11,-5 20,-11 26,-19l0 28c-6,8 -15,14 -26,19 -11,6 -23,9 -38,9 -21,0 -37,-5 -49,-15 -13,-9 -21,-20 -26,-34 6,-1 11,-2 15,-3 3,3 7,6 11,9 12,10 28,15 49,15zm-6 -136c2,5 3,12 3,18 0,6 0,11 -1,15 -1,-5 -3,-9 -6,-13 -4,-8 -10,-15 -16,-20l20 0z"/>
  </g>
  <g id="_674143952">
   <path class="fil17" d="M2929 1100l212 416c-5,5 -11,10 -18,16 -7,6 -16,11 -27,17 -25,13 -45,17 -58,14 -13,-3 -25,-14 -34,-32l-68 -134 -125 64c5,24 3,46 -6,66 -10,20 -27,37 -51,49 -31,16 -57,20 -78,13 -22,-7 -38,-20 -48,-40 -8,-16 -12,-35 -11,-57l20 -10c12,-6 19,-14 22,-24 3,-10 1,-21 -6,-34l-59 -117c-5,-10 -12,-16 -19,-17 -7,-2 -15,-1 -22,3 -8,4 -13,9 -15,15 -3,6 -3,13 -1,20 -5,5 -10,9 -15,11 -16,9 -32,11 -45,7 -14,-4 -25,-14 -33,-30 -6,-12 -9,-23 -9,-36 0,-12 3,-23 9,-34 6,-11 14,-22 25,-31 11,-10 23,-18 38,-26 44,-22 82,-30 115,-22 33,7 59,29 78,65l70 137 120 -61 -76 -149 -47 23c-12,7 -23,8 -31,3 -9,-5 -17,-15 -24,-29 -3,-6 -6,-13 -9,-22 -3,-9 -4,-16 -5,-22l239 -122c22,-12 41,-3 55,25 3,6 6,13 9,23 2,9 4,17 4,23l-76 39zm230 -118l213 416c-5,5 -11,10 -18,16 -8,6 -17,11 -27,17 -26,13 -45,18 -58,14 -13,-3 -25,-14 -34,-32l-190 -372 -53 26c-12,7 -23,7 -31,3 -9,-5 -17,-15 -24,-29 -3,-6 -6,-14 -9,-22 -3,-9 -4,-16 -4,-22l244 -125c22,-12 40,-3 55,25 3,6 6,13 8,23 3,9 4,17 4,23l-76 39zm597 -192l128 450c-5,3 -12,7 -20,11 -8,4 -18,8 -30,11 -27,8 -47,9 -59,3 -13,-6 -22,-19 -27,-38l-32 -114c-13,13 -27,23 -43,33 -16,9 -35,17 -55,22 -57,17 -106,14 -148,-9 -41,-22 -71,-64 -88,-126l-36 -126 -43 12c-13,4 -24,2 -31,-4 -8,-6 -14,-17 -18,-33 -2,-6 -3,-14 -4,-23 -1,-9 -2,-17 -1,-23l537 -153c24,-7 40,5 49,35 2,7 3,15 4,25 1,9 1,17 0,23l-83 24zm-138 272c15,-4 29,-11 41,-20 12,-8 20,-18 26,-27l-197 -80 16 57c10,35 24,57 43,67 18,10 42,11 71,3zm49 -118l-34 -119 -155 44 189 75zm339 -226l129 450c-6,4 -13,8 -22,12 -8,4 -18,8 -29,11 -28,8 -48,9 -60,3 -12,-6 -21,-19 -27,-38l-114 -402 -57 16c-13,4 -24,2 -31,-4 -8,-6 -14,-17 -18,-33 -2,-6 -3,-14 -5,-23 -1,-9 -1,-17 0,-23l264 -75c24,-7 40,5 49,35 2,6 3,15 4,24 1,10 1,18 -1,24l-82 23zm949 -62l12 468c-6,2 -14,4 -23,6 -9,2 -20,3 -32,3 -28,1 -47,-3 -58,-12 -10,-9 -16,-23 -16,-44l-4 -156c-10,2 -20,4 -30,6 -10,1 -21,2 -32,2 -21,1 -44,-1 -70,-6 -25,-6 -48,-14 -67,-26 -11,7 -23,12 -35,17 -13,5 -26,9 -41,11 20,31 45,58 75,80 30,22 60,38 89,50 1,23 -6,43 -19,60 -13,17 -33,26 -61,26 -18,1 -37,-3 -55,-12 -19,-8 -37,-22 -54,-39 -17,-18 -33,-40 -48,-66 -15,-26 -27,-57 -37,-91 -20,-2 -33,-8 -41,-18 -9,-11 -13,-24 -13,-39 -1,-11 1,-20 4,-30 4,-9 8,-17 14,-24 8,1 18,2 30,3 12,1 24,1 36,1 33,-1 57,-10 73,-25 15,-16 23,-35 22,-60 0,-13 -2,-27 -7,-39 -5,-12 -10,-24 -17,-35l-178 4c-14,1 -23,-3 -29,-11 -6,-8 -9,-20 -9,-36 0,-7 0,-15 1,-24 2,-9 3,-17 6,-22l669 -18c25,0 38,15 39,47 0,6 -1,14 -2,24 -2,10 -4,17 -6,23l-86 2zm-206 171c31,-1 58,-8 82,-20l-4 -147 -148 3c7,14 13,29 19,44 5,16 8,33 8,52 1,22 -3,43 -11,64 17,3 35,4 54,4zm843 -97l-59 464c-7,1 -15,2 -24,3 -9,0 -20,0 -32,-2 -28,-3 -46,-10 -55,-20 -9,-11 -13,-26 -10,-46l19 -149 -152 -19c-18,50 -55,71 -110,64 -33,-4 -57,-15 -71,-33 -15,-18 -20,-38 -18,-61 3,-19 11,-36 24,-52l21 2c13,2 23,-1 31,-8 8,-6 13,-17 15,-31l21 -162 -94 -12c-14,-2 -23,-7 -27,-16 -4,-9 -6,-21 -4,-37 1,-7 3,-15 6,-23 2,-9 5,-16 8,-21l579 73c25,3 35,20 31,51 -1,7 -2,15 -5,24 -3,10 -6,17 -10,22l-84 -11zm-294 132l145 18 21 -166 -145 -18 -21 166zm974 70l-151 443c-6,0 -14,-1 -24,-3 -9,-1 -19,-3 -31,-7 -26,-9 -43,-20 -50,-32 -7,-12 -7,-27 -1,-47l21 -60c-20,4 -42,4 -65,3 -23,-2 -48,-8 -75,-17 -49,-17 -89,-41 -119,-73 -29,-31 -48,-67 -56,-106 -4,-17 -5,-35 -5,-53 0,-17 2,-33 6,-46 3,-8 7,-14 13,-18 6,-4 15,-4 26,-1 25,5 49,8 71,10 22,1 41,0 59,-3 17,-4 32,-10 44,-19 12,-9 20,-21 26,-36 5,-15 5,-28 0,-38 -5,-10 -13,-17 -24,-21 -11,-4 -21,-3 -31,1 -9,5 -16,14 -20,27 -3,8 -4,15 -5,21 0,6 1,12 2,17 -8,4 -17,6 -29,7 -11,0 -24,-2 -37,-7 -9,-3 -17,-7 -24,-13 -8,-6 -14,-13 -18,-21 -5,-8 -7,-18 -8,-29 0,-11 2,-23 6,-36 6,-15 14,-29 26,-41 12,-12 26,-21 43,-27 16,-6 36,-9 58,-9 22,0 45,4 70,13 26,9 48,20 65,34 18,15 31,31 40,48 9,18 14,37 15,58 0,20 -3,41 -10,62 -8,23 -20,43 -36,58 -15,15 -33,27 -54,35 -21,9 -44,14 -69,15 -25,2 -51,1 -77,-3 2,20 12,40 29,58 16,19 40,34 71,44 24,9 48,12 70,11 22,-2 42,-6 59,-15l96 -281c3,-10 8,-17 16,-21 8,-5 17,-5 26,-2l146 49c23,8 30,27 20,57 -2,6 -6,14 -11,22 -5,9 -9,15 -13,20l-81 -28zm-90 -124c-12,-21 -19,-44 -20,-68 -2,-25 1,-49 8,-71 7,-20 16,-36 28,-50 12,-14 27,-24 43,-31 17,-8 34,-11 54,-12 19,0 40,3 61,11 35,11 57,26 66,42 9,16 10,33 4,50 -6,17 -14,29 -26,35 -6,-4 -11,-8 -17,-11 -6,-4 -13,-7 -21,-9 -18,-6 -35,-6 -51,2 -17,7 -29,22 -36,44 -6,17 -8,35 -5,53 2,17 7,34 13,49l-101 -34zm610 366l-40 79c16,-2 33,-1 50,3 18,3 37,10 57,21 21,10 39,24 54,41 15,16 26,34 33,54 7,21 10,42 8,66 -2,23 -9,47 -21,72 -13,24 -28,43 -45,58 -17,15 -36,25 -55,32 -19,6 -39,8 -60,5 -20,-2 -39,-8 -57,-17 -48,-24 -62,-55 -43,-91 3,-8 8,-14 14,-19 5,-6 11,-10 17,-14 6,5 13,10 22,14 16,9 32,10 49,6 17,-4 31,-17 41,-37 10,-19 11,-37 5,-54 -7,-17 -20,-31 -41,-42 -13,-6 -26,-10 -39,-10 -13,-1 -25,1 -36,5l-125 245c-6,-1 -14,-3 -23,-6 -9,-2 -19,-6 -30,-12 -25,-13 -40,-25 -45,-38 -5,-13 -3,-29 6,-47l21 -41c-16,1 -33,0 -51,-3 -18,-4 -37,-11 -58,-21 -20,-11 -38,-24 -53,-40 -15,-16 -27,-35 -34,-55 -8,-21 -11,-43 -10,-66 2,-24 9,-49 22,-75 12,-24 27,-43 45,-58 17,-14 36,-24 55,-30 20,-6 40,-7 60,-5 21,2 41,8 59,18 27,13 44,28 51,45 7,17 6,33 -3,51 -8,15 -18,26 -32,33 -3,-3 -7,-6 -10,-9 -4,-3 -9,-7 -17,-11 -17,-8 -34,-11 -51,-7 -17,5 -31,17 -41,37 -9,18 -11,37 -4,54 6,18 20,32 40,42 15,8 30,12 43,12 13,1 25,-1 36,-5l122 -238 -276 -141c-13,-6 -19,-14 -21,-24 -1,-10 2,-22 10,-36 3,-6 7,-13 13,-20 5,-8 10,-13 15,-17l684 349c22,11 25,31 11,59 -3,6 -7,13 -13,20 -6,8 -11,14 -16,18l-293 -150z"/>
   <path class="fil22" d="M2929 1072l212 416c-5,5 -11,10 -18,16 -7,6 -16,11 -27,17 -25,13 -45,17 -58,14 -13,-3 -25,-14 -34,-32l-68 -134 -125 64c5,24 3,46 -6,66 -10,20 -27,36 -51,49 -31,16 -57,20 -78,13 -22,-7 -38,-20 -48,-40 -8,-16 -12,-35 -11,-57l20 -10c12,-6 19,-14 22,-24 3,-10 1,-21 -6,-34l-59 -117c-5,-10 -12,-16 -19,-17 -7,-2 -15,-1 -22,3 -8,4 -13,9 -15,15 -3,6 -3,13 -1,20 -5,5 -10,9 -15,11 -16,9 -32,11 -45,7 -14,-4 -25,-14 -33,-30 -6,-12 -9,-24 -9,-36 0,-12 3,-23 9,-34 6,-11 14,-22 25,-31 11,-10 23,-18 38,-26 44,-22 82,-30 115,-22 33,7 59,29 78,65l70 137 120 -61 -76 -149 -47 23c-12,7 -23,8 -31,3 -9,-5 -17,-15 -24,-29 -3,-6 -6,-13 -9,-22 -3,-9 -4,-16 -5,-22l239 -122c22,-12 41,-3 55,25 3,6 6,13 9,23 2,9 4,17 4,23l-76 39zm230 -118l213 416c-5,5 -11,10 -18,16 -8,6 -17,11 -27,17 -26,13 -45,18 -58,14 -13,-3 -25,-14 -34,-32l-190 -372 -53 26c-12,7 -23,7 -31,3 -9,-5 -17,-15 -24,-29 -3,-6 -6,-14 -9,-22 -3,-9 -4,-16 -4,-22l244 -125c22,-12 40,-3 55,25 3,6 6,13 8,23 3,9 4,17 4,23l-76 39zm597 -192l128 449c-5,4 -12,8 -20,12 -8,4 -18,8 -30,11 -27,8 -47,9 -59,3 -13,-6 -22,-19 -27,-38l-32 -114c-13,13 -27,23 -43,33 -16,9 -35,17 -55,22 -57,17 -106,13 -148,-9 -41,-22 -71,-64 -88,-126l-36 -126 -43 12c-13,4 -24,2 -31,-4 -8,-6 -14,-17 -18,-33 -2,-6 -3,-14 -4,-23 -1,-9 -2,-17 -1,-23l537 -153c24,-7 40,5 49,35 2,7 3,15 4,25 1,9 1,17 0,23l-83 24zm-138 272c15,-4 29,-11 41,-20 12,-8 20,-18 26,-27l-197 -80 16 57c10,35 24,57 43,67 18,10 42,11 71,3zm49 -118l-34 -119 -155 44 189 75zm339 -226l129 450c-6,4 -13,8 -22,12 -8,4 -18,8 -29,11 -28,8 -48,9 -60,3 -12,-6 -21,-19 -27,-38l-114 -402 -57 16c-13,4 -24,2 -31,-4 -8,-6 -14,-17 -18,-33 -2,-6 -3,-14 -5,-23 -1,-9 -1,-17 0,-23l264 -75c24,-7 40,5 49,35 2,6 3,15 4,24 1,10 1,18 -1,24l-82 23zm949 -62l12 468c-6,2 -14,4 -23,6 -9,2 -20,3 -32,3 -28,1 -47,-3 -58,-12 -10,-9 -16,-23 -16,-44l-4 -156c-10,2 -20,4 -30,6 -10,1 -21,2 -32,2 -21,1 -44,-1 -70,-6 -25,-6 -48,-14 -67,-26 -11,7 -23,12 -35,17 -13,5 -26,9 -41,11 20,31 45,58 75,80 30,22 60,38 89,50 1,23 -6,43 -19,60 -13,17 -33,25 -61,26 -18,1 -37,-3 -55,-12 -19,-9 -37,-22 -54,-39 -17,-18 -33,-40 -48,-66 -15,-26 -27,-57 -37,-91 -20,-2 -33,-8 -41,-18 -9,-11 -13,-24 -13,-39 -1,-11 1,-20 4,-30 4,-9 8,-17 14,-24 8,1 18,2 30,3 12,1 24,1 36,0 33,0 57,-9 73,-24 15,-16 23,-35 22,-60 0,-14 -2,-27 -7,-39 -5,-12 -10,-24 -17,-35l-178 4c-14,1 -23,-3 -29,-11 -6,-8 -9,-20 -9,-37 0,-6 0,-14 1,-23 2,-9 3,-17 6,-22l669 -18c25,0 38,15 39,47 0,6 -1,14 -2,24 -2,10 -4,17 -6,23l-86 2zm-206 171c31,-1 58,-8 82,-20l-4 -147 -148 3c7,14 13,29 19,44 5,16 8,33 8,52 1,22 -3,43 -11,64 17,3 35,4 54,4zm843 -97l-59 464c-7,1 -15,2 -24,3 -9,0 -20,0 -32,-2 -28,-3 -46,-10 -55,-20 -9,-11 -13,-26 -10,-46l19 -149 -152 -19c-18,50 -55,71 -110,64 -33,-4 -57,-15 -71,-33 -15,-18 -20,-38 -18,-61 3,-19 11,-36 24,-52l21 2c13,2 23,-1 31,-8 8,-6 13,-17 15,-31l21 -162 -94 -12c-14,-2 -23,-7 -27,-16 -4,-9 -6,-21 -4,-37 1,-7 3,-15 6,-23 2,-9 5,-16 8,-21l579 73c25,3 35,20 31,51 -1,7 -2,15 -5,24 -3,10 -6,17 -10,22l-84 -11zm-294 132l145 18 21 -166 -145 -18 -21 166zm974 70l-151 443c-6,-1 -14,-1 -24,-3 -9,-1 -19,-3 -31,-7 -26,-9 -43,-20 -50,-32 -7,-12 -7,-27 -1,-47l21 -60c-20,4 -42,4 -65,3 -23,-2 -48,-8 -75,-17 -49,-17 -89,-41 -119,-73 -29,-31 -48,-67 -56,-106 -4,-17 -5,-35 -5,-53 0,-17 2,-33 6,-46 3,-8 7,-14 13,-18 6,-4 15,-4 26,-1 25,5 49,8 71,10 22,1 41,0 59,-3 17,-4 32,-10 44,-19 12,-9 20,-21 26,-36 5,-15 5,-28 0,-38 -5,-10 -13,-17 -24,-21 -11,-4 -21,-4 -31,1 -9,5 -16,14 -20,27 -3,8 -4,15 -5,21 0,6 1,12 2,17 -8,4 -17,6 -29,7 -11,0 -24,-2 -37,-7 -9,-3 -17,-7 -24,-13 -8,-6 -14,-13 -18,-21 -5,-8 -7,-18 -8,-29 0,-11 2,-23 6,-36 6,-15 14,-29 26,-41 12,-12 26,-21 43,-27 16,-6 36,-9 58,-9 22,0 45,4 70,13 26,9 48,20 65,34 18,15 31,31 40,48 9,18 14,37 15,57 0,21 -3,42 -10,63 -8,23 -20,43 -36,58 -15,15 -33,27 -54,35 -21,9 -44,14 -69,15 -25,2 -51,1 -77,-3 2,20 12,40 29,58 16,19 40,34 71,44 24,9 48,12 70,11 22,-2 42,-6 59,-15l96 -281c3,-10 8,-17 16,-21 8,-5 17,-5 26,-2l146 49c23,8 30,27 20,57 -2,6 -6,14 -11,22 -5,9 -9,15 -13,20l-81 -28zm-90 -124c-12,-21 -19,-44 -20,-68 -2,-25 1,-49 8,-71 7,-20 16,-36 28,-50 12,-14 27,-24 43,-31 17,-8 34,-11 54,-12 19,0 40,3 61,11 35,11 57,25 66,42 9,16 10,33 4,50 -6,17 -14,29 -26,35 -6,-4 -11,-8 -17,-11 -6,-4 -13,-7 -21,-9 -18,-6 -35,-6 -51,2 -17,7 -29,22 -36,44 -6,17 -8,35 -5,53 2,17 7,34 13,49l-101 -34zm610 366l-40 79c16,-2 33,-1 50,3 18,3 37,10 57,21 21,10 39,24 54,40 15,17 26,35 33,55 7,21 10,42 8,66 -2,23 -9,47 -21,72 -13,24 -28,43 -45,58 -17,15 -36,25 -55,32 -19,6 -39,8 -60,5 -20,-2 -39,-8 -57,-17 -48,-24 -62,-55 -43,-91 3,-8 8,-14 14,-19 5,-6 11,-10 17,-14 6,5 13,10 22,14 16,8 32,10 49,6 17,-4 31,-17 41,-37 10,-19 11,-37 5,-54 -7,-17 -20,-31 -41,-42 -13,-6 -26,-10 -39,-10 -13,-1 -25,1 -36,5l-125 245c-6,-1 -14,-3 -23,-6 -9,-2 -19,-6 -30,-12 -25,-13 -40,-25 -45,-38 -5,-13 -3,-29 6,-47l21 -41c-16,1 -33,0 -51,-3 -18,-4 -37,-11 -58,-21 -20,-11 -38,-24 -53,-40 -15,-16 -27,-35 -34,-55 -8,-21 -11,-43 -10,-66 2,-24 9,-49 22,-75 12,-24 27,-43 45,-58 17,-14 36,-24 55,-30 20,-6 40,-7 60,-5 21,2 41,8 59,18 27,13 44,28 51,45 7,17 6,33 -3,51 -8,15 -18,26 -32,33 -3,-3 -7,-6 -10,-9 -4,-3 -9,-7 -17,-11 -17,-8 -34,-11 -51,-7 -17,5 -31,17 -41,37 -9,18 -11,37 -4,54 6,18 20,32 40,42 15,8 30,12 43,12 13,1 25,-1 36,-5l122 -238 -276 -141c-13,-6 -19,-14 -21,-24 -1,-10 2,-22 10,-36 3,-6 7,-13 13,-20 5,-8 10,-13 15,-17l684 349c22,11 25,31 11,59 -3,6 -7,13 -13,20 -6,8 -11,14 -16,18l-293 -150z"/>
   <path class="fil23" d="M6162 712l0 0c-2,-25 1,-49 9,-71 6,-20 15,-36 27,-50 12,-14 27,-24 43,-31 17,-8 35,-11 54,-12 19,0 40,3 61,11 35,11 57,25 66,42 8,14 10,29 6,44 -1,-5 -3,-11 -6,-16 -9,-17 -31,-31 -66,-42 -21,-8 -42,-11 -61,-11 -19,1 -37,4 -54,12 -16,7 -31,17 -43,31 -12,14 -21,30 -27,50 -5,14 -8,28 -9,43zm107 50l1 2c2,16 6,30 10,43l77 26c21,8 28,24 22,48 -3,-9 -11,-16 -22,-20l-77 -26c-4,-13 -8,-27 -10,-42 -2,-10 -2,-21 -1,-31zm-257 535c-3,-11 -2,-24 3,-39l11 -30c3,-1 6,-1 10,-2l-21 60c-1,4 -2,7 -3,11zm-296 -330c0,-5 0,-10 0,-15 0,-17 2,-33 6,-46 3,-8 7,-14 13,-18 6,-4 15,-4 27,-1 25,5 48,8 70,10 22,1 41,0 59,-3 17,-4 32,-10 44,-19 12,-9 20,-21 26,-36 0,-3 1,-5 2,-7 3,10 2,21 -2,35 -6,15 -14,27 -26,36 -12,9 -27,15 -44,19 -18,3 -37,4 -59,3 -22,-2 -45,-5 -70,-10 -12,-3 -21,-3 -27,1 -6,4 -10,10 -13,18 -3,10 -5,21 -6,33zm53 -173c-1,-3 -1,-7 -2,-11 0,-11 2,-23 7,-36 5,-15 13,-29 25,-41 12,-12 26,-21 43,-27 16,-6 36,-9 58,-9 22,0 45,4 71,13 25,9 47,20 64,34 18,15 31,31 40,48 9,18 14,37 15,57 0,7 0,14 -1,20 -1,-17 -6,-33 -14,-49 -9,-17 -22,-33 -40,-48 -17,-14 -39,-25 -64,-34 -26,-9 -49,-13 -71,-13 -22,0 -42,3 -58,9 -17,6 -31,15 -43,27 -12,12 -20,26 -25,41 -3,7 -4,13 -5,19zm84 226c5,9 11,19 20,28 17,19 40,34 71,44 24,9 48,12 70,11 23,-2 42,-6 59,-15l96 -281c1,-5 3,-9 6,-13 2,5 4,9 7,14l10 3c-2,1 -5,2 -7,3 -7,4 -13,11 -16,21l-96 281c-17,9 -36,13 -59,15 -22,1 -46,-2 -70,-11 -31,-10 -54,-25 -71,-44 -17,-18 -27,-38 -29,-58l9 2zm-2682 -44l201 394c-3,3 -6,6 -10,9l-203 -397 12 -6zm-231 118l201 394c-3,3 -6,6 -10,9l-202 -397 11 -6zm-126 366c0,4 -1,8 -1,12 -1,-3 -1,-7 -2,-11l3 -1zm-196 32c-1,-9 -1,-18 -1,-28l20 -10c10,-5 17,-12 21,-20 3,9 3,17 1,24 -3,10 -10,18 -22,24l-19 10zm-182 -224c-1,-5 -1,-10 -1,-16 0,-12 3,-23 9,-34 6,-11 14,-22 25,-31 11,-10 23,-18 38,-26 44,-22 82,-30 115,-22 33,7 59,29 78,65l70 137 109 -55 11 22 -120 61 -70 -137c-19,-36 -45,-58 -78,-65 -33,-8 -71,0 -115,22 -15,8 -27,16 -38,26 -11,9 -19,20 -25,31 -4,7 -6,14 -8,22zm268 -159l-1 -3c-3,-9 -4,-16 -5,-22l226 -115 13 -7 1 -1 230 -117c22,-12 40,-3 55,25 3,6 6,13 8,23 3,9 4,17 4,23l-4 3c-3,-9 -6,-16 -8,-21 -15,-28 -33,-37 -55,-25l-230 117 -1 1 -13 7 -220 112zm1060 -321l120 423 -6 5 -122 -426 8 -2zm-514 48l0 -5c-1,-9 -2,-17 -1,-23l523 -149 14 -4 1 0 249 -71c24,-7 40,5 49,35 2,6 3,15 4,24 1,10 1,17 0,23 -1,-7 -3,-14 -4,-19 -9,-30 -25,-42 -49,-35l-249 71 -1 0 -14 4 -522 149zm764 -120l121 424 -7 4 -122 -426 8 -2zm-396 318c15,-4 29,-11 41,-20 3,-2 5,-4 8,-6l18 7c-6,9 -14,19 -26,27 -12,9 -26,16 -41,20 -29,8 -53,7 -71,-3 -19,-10 -33,-32 -43,-67l-16 -57 9 4 7 25c10,35 24,57 43,67 18,10 42,11 71,3zm-99 -177l139 56 9 31 -189 -75 41 -12zm1437 -201l11 440 -1 0 -11 -440 1 0zm-380 266c17,21 36,39 58,55 30,22 60,38 89,50 0,9 -1,18 -3,27 -28,-12 -57,-28 -86,-49 -30,-22 -55,-49 -75,-80 6,-1 12,-2 17,-3zm-180 -62c-1,-4 -1,-8 -1,-12 0,-11 1,-20 4,-30 4,-9 8,-17 14,-24 8,1 18,2 30,3 12,1 24,1 36,0 33,0 57,-9 73,-24 12,-12 19,-26 22,-44 0,4 0,8 0,12 1,25 -6,44 -22,60 -16,15 -40,24 -73,25 -12,0 -24,0 -36,-1 -12,-1 -22,-2 -30,-3 -6,7 -10,15 -14,24 -1,5 -2,9 -3,14zm-61 -253c-1,-4 -1,-7 -1,-12 0,-6 0,-14 1,-23 2,-9 4,-17 6,-22l669 -18c25,0 38,15 39,47 0,4 -1,10 -1,16 -4,-24 -16,-35 -38,-35l-669 18c-2,5 -4,13 -6,22l0 7zm414 192c30,-1 58,-8 81,-19l1 27c-24,12 -51,19 -82,20 -19,0 -37,-1 -54,-4 4,-9 6,-18 8,-27 15,2 30,3 46,3zm-57 -136c2,5 4,11 6,16 5,16 8,33 8,52 1,6 0,12 0,18 -1,-15 -4,-29 -8,-42 -5,-15 -12,-30 -19,-44l13 0zm720 463c-1,-7 -1,-16 0,-25l15 -121 4 0 -19 146zm-331 -198c-1,-8 -2,-16 0,-25 2,-19 10,-36 23,-52l21 2c13,2 23,-1 31,-8 9,-6 14,-17 15,-31l17 -135 4 1 -21 162c-1,14 -6,25 -15,31 -8,7 -18,10 -31,8l-21 -2c-13,15 -20,31 -23,49zm-13 -314c-2,-8 -2,-17 0,-27 0,-7 2,-15 5,-23 2,-9 5,-16 8,-21l579 73c25,3 35,20 31,51l0 3c-4,-15 -14,-24 -31,-26l-579 -73c-3,5 -6,12 -8,21 -3,8 -4,15 -5,22zm234 221l141 17 18 -138 3 0 -21 166 -145 -18 4 -27zm1465 389c11,0 23,1 35,4 18,3 37,10 57,21 21,10 39,24 54,40 15,17 26,35 33,55 7,21 10,42 8,66l0 0c-1,-13 -3,-25 -8,-38 -7,-20 -18,-38 -33,-55 -15,-16 -33,-30 -54,-40 -20,-11 -39,-18 -57,-21 -17,-4 -34,-5 -49,-3l14 -29zm-100 288c-4,-13 -2,-28 6,-43 4,-8 8,-14 14,-19 5,-6 11,-10 17,-14 6,5 13,10 22,14 16,9 33,10 49,6 17,-4 31,-17 41,-37 3,-6 6,-13 7,-19 4,15 1,31 -7,47 -10,20 -24,33 -41,37 -16,4 -33,3 -49,-6 -9,-4 -16,-9 -22,-14 -6,4 -12,8 -17,14 -6,5 -10,11 -14,19 -3,5 -5,10 -6,15zm-186 -7c-4,-13 -2,-28 7,-45l6 -12c5,0 10,-1 15,-1l-21 41c-3,6 -5,12 -7,17zm-177 -247c-1,-8 -1,-16 -1,-24 2,-24 9,-49 22,-75 12,-24 27,-43 45,-58 17,-14 36,-24 56,-30 19,-6 39,-7 60,-5 20,2 40,8 59,18 26,13 43,28 50,45 5,12 6,24 3,37 -1,-3 -2,-6 -3,-9 -7,-17 -24,-32 -50,-45 -19,-10 -39,-16 -59,-18 -21,-2 -41,-1 -60,5 -20,6 -39,16 -56,30 -18,15 -33,34 -45,58 -12,25 -20,48 -21,71zm130 11c1,3 2,6 3,8 6,18 20,32 40,42 15,8 30,12 43,12 13,1 26,-1 36,-5l111 -216 11 6 -122 238c-10,4 -23,6 -36,5 -13,0 -28,-4 -43,-12 -20,-10 -34,-24 -40,-42 -5,-11 -5,-23 -3,-36zm-50 -338c-1,-2 -2,-5 -2,-8 -2,-10 2,-22 9,-36 3,-6 7,-13 13,-20 5,-8 10,-13 15,-17l684 349c18,9 24,24 17,45 -3,-7 -8,-13 -17,-17l-684 -349c-5,4 -10,9 -15,17 -6,7 -10,14 -13,20 -3,5 -5,11 -7,16z"/>
  </g>
 </g>
</svg>
