<?xml version="1.0" encoding="UTF-8"?>
<!DOCTYPE svg PUBLIC "-//W3C//DTD SVG 1.1//EN" "http://www.w3.org/Graphics/SVG/1.1/DTD/svg11.dtd">
<!-- Creator: CorelDRAW X7 -->
<svg xmlns="http://www.w3.org/2000/svg" xml:space="preserve" width="4.88435in" height="1.57481in" version="1.1" style="shape-rendering:geometricPrecision; text-rendering:geometricPrecision; image-rendering:optimizeQuality; fill-rule:evenodd; clip-rule:evenodd"
viewBox="0 0 4462 1439"
 xmlns:xlink="http://www.w3.org/1999/xlink">
 <defs>
  <style type="text/css">
   <![CDATA[
    .fil4 {fill:#FDE9E2}
    .fil5 {fill:#FDE9E2;fill-rule:nonzero}
    .fil12 {fill:#FDB92E;fill-rule:nonzero}
    .fil10 {fill:#F9A33C;fill-rule:nonzero}
    .fil2 {fill:#EF4B4A;fill-rule:nonzero}
    .fil17 {fill:#EE3F3E;fill-rule:nonzero}
    .fil7 {fill:#EEF1E7;fill-rule:nonzero}
    .fil6 {fill:#E8E3F1;fill-rule:nonzero}
    .fil16 {fill:#EBE842;fill-rule:nonzero}
    .fil9 {fill:#DFE67D;fill-rule:nonzero}
    .fil11 {fill:#ACD79E;fill-rule:nonzero}
    .fil1 {fill:#97B55F;fill-rule:nonzero}
    .fil18 {fill:#8E699F;fill-rule:nonzero}
    .fil15 {fill:#67BD51;fill-rule:nonzero}
    .fil0 {fill:#694B9C;fill-rule:nonzero}
    .fil14 {fill:#2E5FA7;fill-rule:nonzero}
    .fil19 {fill:#3A325A;fill-rule:nonzero}
    .fil13 {fill:#3150A0;fill-rule:nonzero}
    .fil3 {fill:#354D8F;fill-rule:nonzero}
    .fil20 {fill:url(#id0)}
    .fil8 {fill:url(#id1)}
   ]]>
  </style>
  <linearGradient id="id0" gradientUnits="userSpaceOnUse" x1="952.381" y1="368.417" x2="998.019" y2="613.086">
   <stop offset="0" style="stop-opacity:1; stop-color:#FEFEFE"/>
   <stop offset="1" style="stop-opacity:1; stop-color:#F89B4F"/>
  </linearGradient>
  <linearGradient id="id1" gradientUnits="userSpaceOnUse" x1="1129.41" y1="1015.94" x2="1071.72" y2="801.787">
   <stop offset="0" style="stop-opacity:1; stop-color:#FEFEFE"/>
   <stop offset="1" style="stop-opacity:1; stop-color:#30924F"/>
  </linearGradient>
 </defs>
 <g id="Layer_x0020_1">
  <metadata id="CorelCorpID_0Corel-Layer"/>
  <g id="_662949744">
   <path class="fil0" d="M2680 641c4,0 9,-1 13,-5 5,-3 7,-8 8,-16 0,-6 0,-12 -1,-18 0,-7 0,-13 0,-19 -1,-6 -1,-11 -1,-16 0,-4 0,-7 0,-8 4,-3 10,-5 17,-6 7,-1 13,-2 19,-2 12,0 22,4 30,10 7,7 12,19 15,35 1,6 1,12 2,20 1,7 1,16 1,25 0,32 -4,59 -13,81 -8,23 -20,42 -35,57 -15,14 -33,25 -54,32 -21,7 -44,10 -68,10 -26,0 -50,-4 -72,-11 -22,-7 -41,-18 -57,-31 -16,-14 -28,-31 -37,-51 -9,-20 -14,-43 -14,-68 -21,-11 -40,-27 -55,-50 -16,-22 -23,-51 -23,-88 0,-31 6,-59 19,-85 13,-26 32,-49 56,-68 24,-19 52,-33 86,-44 34,-11 71,-16 113,-16 45,0 87,6 125,19 38,13 70,32 98,56 27,24 48,53 63,88 15,34 23,72 23,113 0,17 -1,34 -4,49 -3,16 -6,30 -10,43 -4,13 -8,25 -13,35 -5,11 -9,20 -12,27 5,4 10,9 17,15 7,5 14,11 21,17 7,7 15,13 22,19 7,6 14,12 21,17 -1,17 -5,31 -14,42 -9,10 -21,16 -38,16 -8,0 -15,-2 -23,-6 -8,-3 -16,-9 -25,-17 -9,-8 -19,-19 -29,-32 -11,-13 -22,-30 -35,-50 -3,-4 -4,-7 -6,-10 -1,-2 -1,-5 -1,-9 0,-4 0,-8 2,-14 1,-5 3,-11 6,-20 5,-13 10,-30 14,-51 5,-20 7,-40 7,-61 0,-31 -5,-59 -16,-84 -11,-25 -25,-46 -44,-63 -18,-18 -40,-31 -66,-40 -25,-10 -52,-15 -81,-15 -28,0 -53,4 -75,11 -22,7 -40,17 -55,29 -15,12 -27,26 -34,42 -8,17 -12,34 -12,53 0,11 1,21 4,28 7,-9 14,-17 22,-22 8,-5 17,-8 28,-8 7,0 13,1 18,4 5,2 9,5 13,9 3,4 6,8 8,13 1,4 3,8 3,13 -6,7 -12,18 -18,32 -6,15 -9,32 -9,51 0,32 9,55 27,72 18,16 40,24 65,24 20,0 36,-4 49,-12 13,-8 22,-18 27,-31 -8,3 -18,4 -28,4 -27,0 -50,-7 -67,-21 -18,-15 -27,-36 -27,-65 0,-23 5,-41 15,-53 10,-13 23,-19 37,-19 9,0 17,2 24,6 7,3 12,7 16,11 -3,5 -5,11 -7,18 -2,6 -3,14 -3,22 0,14 3,24 8,29 5,6 12,8 20,8z"/>
   <path id="1" class="fil0" d="M3118 811c-4,1 -11,2 -19,3 -8,1 -16,1 -24,1 -17,0 -31,-2 -40,-8 -9,-5 -14,-17 -14,-36l0 -444c4,-1 10,-2 18,-4 8,-1 16,-1 24,-1 18,0 31,2 41,8 9,5 14,17 14,36l0 445z"/>
   <path id="2" class="fil1" d="M3254 676c0,-18 4,-34 10,-48 -10,-5 -19,-11 -28,-19 -9,-8 -17,-18 -24,-29 -7,-11 -12,-24 -16,-37 -4,-14 -6,-29 -6,-44 0,-28 5,-54 16,-77 11,-23 27,-43 48,-60 20,-17 45,-30 74,-39 30,-10 62,-14 98,-14 18,0 35,1 52,4 18,3 34,7 50,12 15,5 30,11 43,17 13,7 25,14 34,22 11,8 18,15 21,23 3,8 5,17 5,27l0 399c-5,2 -12,3 -19,4 -8,1 -16,1 -23,1 -19,0 -32,-2 -40,-7 -9,-5 -13,-12 -13,-22 -13,8 -28,15 -46,21 -18,6 -40,9 -65,9 -56,0 -99,-13 -127,-39 -29,-26 -44,-61 -44,-104zm173 -288c-5,0 -10,0 -15,0 -5,1 -10,1 -15,2l137 257 0 -229c-9,-8 -24,-15 -44,-21 -19,-6 -40,-9 -63,-9zm11 355c11,0 23,-1 33,-4 10,-3 20,-7 28,-12l-66 -120c-26,1 -46,8 -61,19 -15,12 -22,28 -22,48 0,23 8,40 23,52 15,11 37,17 65,17zm-118 -180c10,-8 21,-13 35,-18 14,-4 28,-6 41,-7l-66 -123c-14,9 -24,21 -31,35 -7,14 -11,30 -11,47 0,16 3,29 10,40 6,11 13,19 22,26z"/>
   <path id="3" class="fil1" d="M3424 155c21,0 42,2 62,5 19,3 38,7 55,12 17,4 32,10 46,16 15,7 27,13 37,19 11,7 20,14 27,22 7,8 11,17 11,27 0,10 -3,20 -9,27 -6,7 -15,13 -25,18 -25,-20 -55,-35 -88,-47 -34,-11 -72,-17 -114,-17 -42,0 -80,6 -115,18 -34,11 -63,27 -87,46 -10,-4 -18,-9 -25,-17 -7,-8 -10,-17 -10,-28 0,-16 9,-31 26,-44 22,-16 51,-30 85,-41 34,-10 75,-16 124,-16z"/>
   <path id="4" class="fil2" d="M3958 457c15,5 26,11 34,20 7,8 11,17 11,26 0,11 -2,20 -7,27 -5,7 -11,13 -18,18 -9,-5 -20,-10 -33,-14 -13,-5 -27,-7 -42,-7 -9,0 -17,1 -26,2 -9,2 -18,5 -27,9 -8,5 -16,10 -23,17 -8,6 -14,15 -19,25 7,-1 14,-2 20,-3 6,0 13,0 19,0 27,0 52,3 73,9 21,7 39,16 54,27 15,12 26,26 33,42 8,15 12,33 12,51 0,16 -3,31 -9,46 -6,14 -15,26 -26,36 -12,11 -26,19 -43,25 -17,6 -37,9 -59,9 -25,0 -47,-4 -69,-12 -21,-8 -40,-19 -56,-35 -16,-15 -28,-34 -38,-57 -9,-23 -14,-50 -14,-79 0,-30 5,-56 14,-79 10,-22 22,-42 37,-57 14,-16 31,-28 50,-36 19,-9 38,-14 58,-17l0 -8c0,-19 4,-37 13,-52 9,-16 21,-30 36,-41 14,-11 32,-20 52,-26 20,-6 41,-9 64,-9 30,0 55,3 76,9 21,7 37,15 50,24 8,6 14,12 16,20 3,7 4,16 4,25l0 419c-5,1 -11,2 -19,3 -7,1 -15,1 -22,1 -9,0 -16,0 -24,-1 -7,-1 -13,-4 -18,-7 -5,-3 -8,-8 -11,-14 -3,-6 -4,-14 -4,-23l0 -368c-6,-2 -12,-5 -20,-7 -8,-2 -17,-3 -26,-3 -21,0 -38,6 -52,17 -14,11 -21,26 -21,46l0 2zm-122 195c-5,0 -10,0 -17,1 -7,1 -14,2 -21,3 2,30 11,52 27,66 16,15 35,22 55,22 15,0 26,-4 34,-10 8,-7 12,-16 12,-28 0,-7 -1,-13 -5,-20 -3,-6 -8,-12 -15,-17 -7,-5 -17,-9 -28,-12 -11,-3 -25,-5 -42,-5z"/>
   <path id="5" class="fil2" d="M4455 342c2,4 4,9 5,14 2,5 2,12 2,20l0 435c-5,0 -11,2 -18,3 -8,1 -16,1 -24,1 -17,0 -30,-2 -40,-8 -10,-6 -15,-18 -15,-36l0 -337 -83 67c-12,-3 -24,-10 -33,-20 -10,-10 -15,-22 -15,-36 0,-10 3,-19 8,-27 6,-8 15,-17 29,-26l107 -73c1,-1 3,-1 6,-1 3,0 7,0 10,0 17,0 30,2 40,7 10,4 17,10 21,17z"/>
   <path class="fil3" d="M2438 1018c3,0 6,0 8,-2 2,-2 3,-5 3,-9 0,-4 0,-7 0,-10 -1,-4 -1,-6 -1,-9 0,0 1,-1 3,-1 1,0 2,0 3,0 4,0 7,3 8,9 0,2 1,5 1,8 0,2 0,5 0,7 0,9 -1,17 -3,23 -2,6 -6,11 -10,15 -3,3 -8,6 -13,8 -5,2 -11,2 -17,2 -6,0 -12,-1 -18,-3 -5,-2 -10,-4 -14,-8 -4,-4 -7,-9 -9,-14 -3,-5 -4,-12 -4,-19l0 0c-2,-1 -4,-3 -7,-5 -2,-2 -4,-5 -6,-8 -2,-3 -4,-7 -5,-11 -2,-4 -2,-10 -2,-16 0,-8 1,-16 5,-23 3,-7 8,-14 14,-19 6,-5 14,-9 22,-12 9,-3 18,-4 28,-4 12,0 22,1 32,5 9,4 17,9 24,15 6,7 11,14 15,23 4,9 5,19 5,30 0,6 0,12 -1,17 -1,5 -2,9 -3,13 -2,4 -3,8 -5,11 -1,3 -3,6 -4,8l23 21c-1,3 -2,5 -3,6 -1,2 -3,3 -6,3 -3,0 -7,-2 -11,-6 -3,-4 -8,-10 -14,-19 -1,-1 -2,-2 -2,-3 0,-1 0,-1 0,-2 0,-1 0,-2 0,-3 1,0 1,-1 1,-2 1,-2 2,-5 4,-8 1,-2 2,-6 3,-9 1,-4 2,-7 2,-12 1,-4 1,-9 1,-14 0,-9 -1,-18 -4,-26 -4,-7 -8,-14 -13,-19 -6,-5 -12,-9 -20,-12 -7,-3 -15,-4 -24,-4 -7,0 -14,1 -21,3 -7,2 -12,5 -17,9 -5,4 -9,9 -12,15 -3,6 -4,12 -4,19 0,11 2,18 7,23 2,-6 4,-10 7,-13 3,-3 5,-5 8,-5 3,0 5,1 6,2 1,2 1,4 2,5 -2,2 -5,5 -7,9 -2,5 -4,10 -4,17 0,11 3,19 9,24 6,6 13,9 22,9 8,0 14,-2 19,-5 5,-4 8,-9 9,-16 -1,1 -3,2 -5,3 -2,1 -4,1 -7,1 -3,0 -6,0 -9,-1 -3,-1 -6,-3 -8,-5 -2,-2 -4,-4 -5,-8 -1,-3 -2,-7 -2,-11 0,-6 1,-11 3,-14 2,-4 5,-5 8,-5 1,0 3,0 4,1 1,1 2,2 2,3 -1,1 -1,3 -2,5 -1,3 -2,6 -2,9 0,5 1,8 4,11 2,2 5,3 9,3z"/>
   <path id="1" class="fil3" d="M2544 1058c-1,0 -2,1 -3,1 -1,0 -2,0 -3,0 -3,0 -5,-1 -7,-2 -1,-1 -2,-2 -2,-5l0 -131c1,0 2,0 3,0 1,0 2,0 3,0 3,0 5,0 7,1 1,1 2,2 2,5l0 131z"/>
   <path id="2" class="fil3" d="M2590 1022c0,-4 0,-7 1,-9 1,-3 1,-5 2,-7 -2,-1 -5,-3 -8,-5 -2,-2 -5,-5 -7,-9 -2,-3 -3,-6 -5,-11 -1,-4 -2,-9 -2,-14 0,-8 2,-15 5,-21 3,-6 7,-12 12,-16 6,-4 12,-8 20,-10 7,-2 15,-3 24,-3 5,0 10,0 15,1 4,1 8,2 12,3 4,1 7,3 9,4 3,1 5,2 6,3 3,2 5,4 6,6 2,2 2,4 2,8l0 116c-1,0 -2,1 -3,1 -1,0 -2,0 -2,0 -3,0 -6,-1 -7,-2 -1,-1 -1,-2 -1,-4l0 -5c-4,3 -8,6 -14,8 -6,2 -13,3 -22,3 -13,0 -24,-3 -31,-9 -8,-7 -12,-16 -12,-28zm43 -92c-6,0 -12,0 -17,2l52 99 0 -91c-1,-1 -3,-2 -6,-3 -2,-2 -5,-3 -8,-4 -3,-1 -6,-2 -10,-2 -4,-1 -7,-1 -11,-1zm1 117c5,0 9,-1 14,-2 4,-1 8,-3 11,-5l-24 -44c-9,0 -17,2 -22,7 -6,4 -8,11 -8,18 0,9 2,15 8,20 6,4 13,6 21,6zm-32 -51c2,-3 6,-6 11,-8 5,-2 10,-3 16,-4l-25 -47c-6,3 -10,7 -13,12 -3,5 -5,11 -5,18 0,8 2,14 5,18 3,5 6,8 11,11z"/>
   <path id="3" class="fil3" d="M2733 1058c-1,0 -2,1 -3,1 -1,0 -2,0 -2,0 -4,0 -6,-1 -7,-2 -2,-1 -2,-2 -2,-5l0 -131c0,0 1,0 2,0 1,0 2,0 4,0 2,0 4,0 6,1 1,1 2,2 2,5l0 131z"/>
   <path id="4" class="fil3" d="M2804 946c0,-4 1,-9 2,-12 1,-4 3,-7 5,-9 3,-2 5,-4 8,-5 3,-1 6,-1 10,-1 5,0 9,1 13,3 3,3 5,6 7,9 1,-4 4,-7 7,-9 4,-2 8,-3 13,-3 3,0 6,0 9,1 3,1 5,3 8,5 2,3 4,6 5,10 2,4 2,9 2,14 0,8 -1,14 -2,19 -2,6 -5,10 -9,13 -4,4 -8,7 -14,9 -5,2 -11,3 -18,5l-2 0c-6,1 -10,2 -14,3 -3,1 -6,3 -9,5 -2,2 -4,4 -5,7 -1,3 -2,6 -2,10 0,4 1,7 2,10 2,4 4,6 8,9 3,2 7,4 13,5 5,2 11,2 18,2 6,0 12,0 17,-1 6,-2 10,-3 15,-5 4,-2 7,-4 11,-6 3,-3 5,-5 7,-8l0 -105c1,0 2,0 3,0 1,0 2,0 3,0 3,0 5,0 7,1 1,1 2,2 2,5l0 131c-1,0 -2,1 -3,1 -1,0 -2,0 -3,0 -3,0 -5,-1 -7,-2 -1,-1 -2,-2 -2,-5l0 -8c-2,2 -5,4 -8,5 -3,2 -7,4 -12,5 -4,2 -9,3 -14,4 -5,1 -11,1 -18,1 -18,0 -31,-3 -40,-10 -10,-7 -14,-17 -14,-29 0,-6 0,-11 2,-16 2,-4 5,-8 9,-11 4,-3 8,-5 14,-7 5,-2 11,-3 18,-4l3 -1c10,-1 18,-5 23,-9 5,-5 8,-13 8,-23 0,-4 -1,-7 -1,-9 -1,-2 -2,-4 -3,-6 -1,-1 -3,-2 -4,-3 -2,0 -3,-1 -5,-1 -3,0 -6,2 -8,4 -2,2 -4,6 -4,11l0 17c0,1 -2,1 -3,2 -1,0 -2,0 -3,0 -2,0 -3,0 -4,-1 -1,0 -2,0 -3,-1l0 -17c0,-5 -1,-9 -3,-11 -3,-2 -6,-4 -9,-4 -3,0 -6,2 -8,4 -3,2 -4,6 -4,12 0,5 1,8 2,11 2,3 3,5 5,6 -1,2 -2,3 -3,4 -1,1 -3,2 -5,2 -3,0 -6,-2 -9,-6 -3,-4 -4,-9 -4,-17z"/>
   <path id="5" class="fil3" d="M3007 930c-5,0 -9,1 -14,2 -4,2 -8,5 -12,9 -3,4 -6,9 -9,15 -2,5 -4,13 -4,21 1,0 2,0 4,0 1,0 3,0 5,0 8,0 15,1 22,3 7,2 13,5 18,9 6,4 10,9 13,15 3,6 5,13 5,21 0,11 -3,20 -10,26 -6,6 -14,8 -25,8 -6,0 -12,-1 -17,-3 -6,-3 -11,-7 -16,-12 -4,-6 -8,-13 -10,-21 -3,-9 -4,-20 -4,-33 0,-14 1,-26 5,-35 3,-9 7,-17 12,-23 6,-5 11,-9 17,-12 7,-2 13,-3 19,-3 4,0 7,0 10,0 2,1 5,2 6,3 2,1 3,2 4,3 0,1 1,2 1,4 0,1 -1,3 -1,4 -1,1 -2,2 -3,2 -1,0 -4,-1 -7,-2 -2,-1 -6,-1 -9,-1zm-29 60c-2,0 -4,0 -6,0 -2,0 -3,0 -5,1l0 3c0,9 1,16 3,23 2,7 4,12 7,16 3,5 7,8 11,10 4,2 8,3 12,3 6,0 11,-1 15,-5 3,-3 5,-8 5,-15 0,-6 -1,-11 -3,-15 -3,-5 -6,-8 -10,-11 -4,-4 -8,-6 -13,-8 -5,-1 -10,-2 -16,-2z"/>
   <path id="6" class="fil3" d="M3136 1058c-1,0 -2,1 -3,1 -1,0 -2,0 -2,0 -4,0 -6,-1 -7,-2 -1,-1 -2,-2 -2,-5l0 -26c0,-2 0,-4 0,-7 0,-2 0,-5 1,-7 0,-3 0,-6 0,-9 0,-2 0,-5 0,-7 -4,2 -9,5 -14,8 -5,4 -10,8 -14,13 -5,6 -9,12 -13,19 -4,6 -8,14 -11,23l-2 0c-6,0 -9,-3 -9,-8 0,-2 0,-4 1,-7 1,-3 2,-6 3,-9 2,-3 4,-6 5,-9 2,-2 4,-5 6,-7 -4,-2 -8,-4 -11,-6 -4,-3 -7,-6 -10,-10 -2,-4 -5,-8 -6,-13 -2,-6 -3,-11 -3,-18 0,-8 2,-15 5,-22 3,-7 7,-13 13,-18 5,-5 12,-9 19,-11 8,-3 17,-4 26,-4 10,0 19,1 27,4 9,3 16,7 22,12 6,6 11,12 15,20 3,7 5,16 5,26 0,11 -2,20 -5,27 -2,2 -3,4 -5,4 -1,1 -3,2 -5,2 -3,0 -5,-2 -7,-5 2,-3 3,-7 5,-11 1,-4 2,-10 2,-17 0,-8 -1,-14 -4,-21 -3,-6 -7,-11 -11,-15 -5,-4 -11,-7 -18,-10 -6,-2 -13,-3 -21,-3 -7,0 -13,1 -19,3 -5,2 -11,4 -15,8 -4,4 -8,8 -10,14 -2,5 -4,11 -4,18 0,4 1,9 2,13 2,4 3,7 5,10 3,3 5,5 8,7 3,2 5,4 8,5 7,-6 13,-12 21,-17 7,-5 15,-8 22,-10 2,1 4,2 6,4 2,1 3,3 4,4l0 69z"/>
   <path id="7" class="fil3" d="M3265 1059c-3,0 -5,-1 -7,-2 -1,-1 -1,-2 -1,-5l0 -15c-2,2 -4,3 -7,5 -3,1 -6,1 -10,1 -4,0 -7,-1 -10,-2 -4,-1 -7,-3 -9,-5 -3,-3 -5,-6 -7,-10 -1,-3 -2,-8 -2,-13l0 -2c-2,-1 -4,-3 -6,-5 -2,-2 -4,-5 -5,-8 -2,-3 -3,-6 -4,-10 -1,-4 -1,-8 -1,-13 0,-8 1,-15 5,-23 3,-7 8,-13 14,-18 6,-5 13,-10 22,-13 9,-3 18,-4 30,-4 11,0 22,1 31,5 10,3 18,8 24,14 7,6 12,13 15,21 4,8 6,17 6,27 0,8 -2,15 -4,20 -3,6 -6,8 -9,8 -2,0 -4,0 -5,-1 -1,-1 -2,-2 -3,-3 2,-3 3,-6 4,-11 1,-4 2,-9 2,-14 0,-8 -2,-15 -5,-21 -3,-7 -7,-12 -13,-17 -5,-5 -12,-9 -19,-11 -8,-3 -16,-4 -25,-4 -8,0 -16,1 -22,3 -7,3 -13,6 -18,10 -5,4 -9,9 -11,15 -3,5 -4,11 -4,18 0,5 0,9 2,13 1,3 2,6 4,8 3,-4 6,-7 10,-9 4,-2 8,-3 14,-3 3,0 6,0 8,1 3,1 5,2 7,3 2,2 4,3 5,4 1,2 2,3 3,5 2,-4 5,-7 9,-10 4,-2 8,-3 13,-3 8,0 14,2 19,7 4,5 7,12 7,21l0 45c-1,0 -2,1 -3,1 -1,0 -2,0 -3,0 -3,0 -5,-1 -7,-2 -1,-1 -1,-2 -1,-5l0 -39c0,-5 -1,-8 -4,-11 -2,-3 -5,-5 -10,-5 -3,0 -7,2 -9,4 -3,3 -4,7 -4,12l0 45c-1,0 -2,1 -3,1 -1,0 -2,0 -3,0zm-39 -45c0,5 1,9 4,12 3,3 7,5 11,5 5,0 8,-2 12,-5 3,-3 4,-7 4,-12 0,-5 -1,-9 -4,-12 -4,-3 -7,-5 -12,-5 -4,0 -8,2 -11,5 -3,3 -4,7 -4,12z"/>
   <path id="8" class="fil3" d="M3357 1077c-1,2 -3,3 -4,4 -1,1 -2,1 -4,1 -3,0 -6,-1 -8,-3 1,-3 2,-6 4,-9 1,-4 2,-7 3,-11 1,-4 2,-7 3,-11 1,-3 2,-7 2,-9 1,-1 2,-1 4,-2 1,0 2,0 4,0 2,0 4,0 5,1 2,2 2,4 2,6 0,3 0,5 -1,8 -1,3 -2,7 -3,10 -1,3 -2,6 -4,9 -1,2 -2,4 -3,6z"/>
   <path id="9" class="fil3" d="M3506 1018c3,0 5,0 8,-2 2,-2 3,-5 3,-9 0,-4 0,-7 -1,-10 0,-4 0,-6 -1,-9 1,0 2,-1 3,-1 1,0 3,0 4,0 4,0 7,3 8,9 0,2 0,5 1,8 0,2 0,5 0,7 0,9 -1,17 -4,23 -2,6 -5,11 -9,15 -4,3 -8,6 -14,8 -5,2 -10,2 -16,2 -7,0 -13,-1 -18,-3 -6,-2 -10,-4 -14,-8 -4,-4 -7,-9 -10,-14 -2,-5 -3,-12 -3,-19l0 0c-2,-1 -5,-3 -7,-5 -3,-2 -5,-5 -7,-8 -2,-3 -3,-7 -5,-11 -1,-4 -2,-10 -2,-16 0,-8 2,-16 5,-23 4,-7 9,-14 15,-19 6,-5 13,-9 22,-12 8,-3 18,-4 28,-4 11,0 22,1 31,5 10,4 18,9 24,15 7,7 12,14 16,23 3,9 5,19 5,30 0,6 0,12 -1,17 -1,5 -2,9 -4,13 -1,4 -3,8 -4,11 -2,3 -3,6 -4,8l22 21c0,3 -1,5 -2,6 -2,2 -4,3 -6,3 -3,0 -7,-2 -11,-6 -4,-4 -9,-10 -15,-19 -1,-1 -1,-2 -1,-3 -1,-1 -1,-1 -1,-2 0,-1 0,-2 1,-3 0,0 1,-1 1,-2 1,-2 2,-5 3,-8 1,-2 2,-6 3,-9 1,-4 2,-7 3,-12 1,-4 1,-9 1,-14 0,-9 -2,-18 -5,-26 -3,-7 -7,-14 -13,-19 -5,-5 -12,-9 -19,-12 -8,-3 -16,-4 -24,-4 -8,0 -15,1 -21,3 -7,2 -13,5 -18,9 -5,4 -9,9 -11,15 -3,6 -5,12 -5,19 0,11 3,18 8,23 2,-6 4,-10 7,-13 2,-3 5,-5 8,-5 3,0 4,1 5,2 1,2 2,4 2,5 -2,2 -4,5 -6,9 -3,5 -4,10 -4,17 0,11 3,19 9,24 5,6 13,9 22,9 7,0 14,-2 18,-5 5,-4 9,-9 10,-16 -1,1 -3,2 -5,3 -2,1 -5,1 -7,1 -4,0 -7,0 -10,-1 -2,-1 -5,-3 -7,-5 -2,-2 -4,-4 -6,-8 -1,-3 -1,-7 -1,-11 0,-6 1,-11 3,-14 2,-4 4,-5 7,-5 2,0 3,0 4,1 1,1 2,2 3,3 -1,1 -2,3 -3,5 -1,3 -1,6 -1,9 0,5 1,8 3,11 3,2 6,3 10,3z"/>
   <path id="10" class="fil3" d="M3612 1058c-1,0 -2,1 -3,1 -1,0 -2,0 -3,0 -3,0 -6,-1 -7,-2 -1,-1 -2,-2 -2,-5l0 -131c1,0 1,0 3,0 1,0 2,0 3,0 2,0 5,0 6,1 2,1 3,2 3,5l0 131z"/>
   <path id="11" class="fil3" d="M3654 972c0,6 1,12 3,17 3,5 5,9 9,11 3,-4 7,-8 12,-10 5,-3 10,-5 17,-5 5,0 10,1 14,3 5,1 8,4 12,7 3,3 5,7 7,12 2,4 3,10 3,15 0,7 -1,12 -3,17 -2,4 -4,8 -8,11 -3,3 -7,6 -11,7 -4,2 -9,2 -14,2 -5,0 -9,0 -13,-2 -5,-1 -9,-4 -12,-7 -3,-3 -6,-7 -8,-11 -1,-5 -2,-10 -2,-17 0,-3 0,-6 0,-8 -2,-2 -5,-4 -7,-6 -3,-3 -5,-5 -7,-9 -2,-3 -4,-7 -5,-12 -1,-4 -2,-9 -2,-15 0,-8 2,-15 5,-22 3,-7 7,-13 13,-18 6,-5 12,-9 20,-11 7,-3 16,-4 24,-4 12,0 22,1 31,5 9,4 16,9 22,16 7,6 11,14 14,23 4,9 5,18 5,29 0,8 -1,16 -3,24 -2,8 -6,16 -10,25l23 21c-1,3 -1,5 -3,6 -1,2 -3,3 -6,3 -3,0 -7,-2 -11,-6 -3,-4 -8,-10 -14,-19 -1,-1 -2,-2 -2,-3 0,-1 0,-1 0,-2 0,-1 0,-2 0,-2 1,-1 1,-2 1,-2 3,-6 5,-13 7,-20 2,-8 3,-15 3,-24 0,-9 -1,-17 -4,-25 -2,-7 -6,-14 -11,-19 -4,-6 -10,-10 -17,-13 -7,-3 -15,-4 -25,-4 -7,0 -13,1 -19,3 -6,2 -11,5 -15,8 -4,4 -7,9 -9,14 -3,5 -4,11 -4,17zm20 50c0,8 2,14 6,18 4,5 9,7 16,7 6,0 11,-2 15,-7 4,-4 5,-10 5,-18 0,-7 -2,-13 -6,-18 -4,-4 -9,-6 -15,-6 -6,0 -11,2 -15,6 -4,4 -6,10 -6,18z"/>
   <path id="12" class="fil3" d="M3813 1018c0,-1 0,-2 0,-3 0,-1 0,-2 1,-3 -6,-3 -11,-7 -15,-14 -4,-6 -6,-14 -6,-24 0,-9 2,-17 5,-24 3,-7 8,-13 14,-18 6,-5 13,-9 21,-11 8,-3 16,-4 26,-4 11,0 21,1 29,5 9,4 16,8 22,14 6,6 11,13 14,21 3,8 4,17 4,26 0,5 0,9 -1,13 -1,4 -3,7 -4,10 -2,4 -5,6 -9,6 -2,0 -3,-1 -5,-2 -1,-1 -2,-2 -2,-3 1,-2 3,-6 4,-10 2,-4 2,-9 2,-14 0,-7 -1,-13 -3,-19 -2,-7 -6,-12 -10,-17 -5,-5 -10,-9 -17,-13 -7,-3 -15,-4 -24,-4 -8,0 -15,1 -21,3 -7,2 -12,5 -16,9 -5,4 -8,9 -10,14 -3,6 -4,12 -4,18 0,6 1,10 2,15 2,4 4,7 7,9 2,-6 5,-10 9,-13 3,-3 7,-5 10,-5 1,0 3,0 4,1 0,1 1,1 2,2 0,1 0,2 1,3 0,1 0,2 0,2 -4,3 -8,6 -11,11 -3,5 -5,11 -5,19 0,9 3,16 8,21 6,5 13,8 21,8 8,0 15,-3 20,-8 5,-4 8,-11 8,-20 0,-3 -1,-7 -1,-10 -1,-3 -3,-5 -4,-7 -1,1 -2,2 -3,3 -1,1 -3,1 -5,1 -4,0 -7,-1 -9,-3 -3,-2 -4,-5 -4,-9 0,-4 2,-7 4,-9 3,-2 6,-3 10,-3 2,0 5,0 8,2 3,1 6,4 9,7 2,3 4,7 6,11 2,5 3,11 3,17 0,7 -2,14 -4,19 -3,5 -6,9 -10,12 -4,4 -8,6 -13,7 -5,2 -10,2 -15,2 -6,0 -12,0 -17,-2 -6,-2 -10,-5 -14,-8 -4,-4 -7,-8 -9,-14 -2,-5 -3,-11 -3,-17z"/>
   <path id="13" class="fil3" d="M4090 1054c-1,1 -3,3 -4,4 -2,1 -4,2 -7,3 -14,-3 -27,-8 -39,-15 -12,-7 -21,-16 -30,-25 -8,-10 -14,-21 -18,-32 -5,-12 -7,-23 -7,-34 0,-4 1,-6 2,-8 1,-2 4,-3 7,-3 1,0 2,0 3,0 1,1 2,1 2,1l1 8c1,11 4,22 8,32 4,10 9,19 16,27 6,8 14,15 23,21 9,6 18,10 29,13l0 -106c-4,3 -7,6 -10,8 -2,3 -5,5 -8,8 -3,3 -6,5 -9,8 -3,3 -8,7 -12,11 -3,0 -5,-1 -7,-3 -2,-1 -3,-3 -3,-5 0,-2 1,-4 2,-5 1,-1 2,-3 5,-5 5,-4 9,-8 13,-12 4,-3 8,-6 11,-9 4,-3 7,-6 10,-8 2,-2 5,-5 8,-7 1,0 3,0 5,0 6,0 9,2 9,7l0 126z"/>
   <path id="14" class="fil3" d="M4187 1059c-3,0 -5,-1 -6,-2 -2,-1 -2,-2 -2,-5l0 -15c-2,2 -4,3 -7,5 -3,1 -6,1 -10,1 -3,0 -7,-1 -10,-2 -4,-1 -7,-3 -9,-5 -3,-3 -5,-6 -7,-10 -1,-3 -2,-8 -2,-13l0 -2c-2,-1 -4,-3 -6,-5 -2,-2 -4,-5 -5,-8 -2,-3 -3,-6 -4,-10 -1,-4 -1,-8 -1,-13 0,-8 1,-15 5,-23 3,-7 8,-13 14,-18 6,-5 13,-10 22,-13 9,-3 19,-4 30,-4 11,0 22,1 31,5 10,3 18,8 24,14 7,6 12,13 16,21 3,8 5,17 5,27 0,8 -1,15 -4,20 -2,6 -6,8 -9,8 -2,0 -3,0 -5,-1 -1,-1 -2,-2 -3,-3 2,-3 3,-6 4,-11 1,-4 2,-9 2,-14 0,-8 -2,-15 -5,-21 -3,-7 -7,-12 -13,-17 -5,-5 -12,-9 -19,-11 -8,-3 -16,-4 -25,-4 -8,0 -16,1 -22,3 -7,3 -13,6 -18,10 -5,4 -9,9 -11,15 -3,5 -4,11 -4,18 0,5 0,9 2,13 1,3 2,6 4,8 3,-4 6,-7 10,-9 4,-2 9,-3 14,-3 3,0 6,0 8,1 3,1 5,2 7,3 2,2 4,3 5,4 1,2 2,3 3,5 2,-4 5,-7 9,-10 4,-2 8,-3 13,-3 8,0 14,2 19,7 4,5 7,12 7,21l0 45c-1,0 -2,1 -3,1 -1,0 -2,0 -3,0 -3,0 -5,-1 -6,-2 -2,-1 -2,-2 -2,-5l0 -39c0,-5 -1,-8 -4,-11 -2,-3 -5,-5 -9,-5 -4,0 -8,2 -10,4 -3,3 -4,7 -4,12l0 45c-1,0 -2,1 -3,1 -1,0 -2,0 -3,0zm-39 -45c0,5 1,9 4,12 3,3 7,5 11,5 5,0 9,-2 12,-5 3,-3 4,-7 4,-12 0,-5 -1,-9 -4,-12 -3,-3 -7,-5 -12,-5 -4,0 -8,2 -11,5 -3,3 -4,7 -4,12z"/>
   <path class="fil4" d="M4414 688c-1,0 -3,0 -4,-1 -2,0 -4,-2 -5,-3 -2,-2 -3,-3 -3,-5 -1,-2 -1,-4 -1,-6 0,-2 1,-3 2,-5 0,-2 1,-4 2,-6 1,-2 2,-4 3,-6 1,-2 2,-4 3,-5 0,-2 1,-4 1,-5 0,-1 -1,-2 -2,-3 -1,-1 -2,-2 -3,-2 -1,-1 -2,-1 -3,-1 0,0 -1,0 -1,1 -2,0 -3,0 -4,1 -2,1 -3,2 -4,3 -1,2 -2,3 -3,4 0,1 -1,3 -1,4 0,1 0,3 0,4 1,1 1,2 2,4l-5 5c-2,-1 -3,-3 -4,-6 -1,-2 -1,-4 0,-6 0,-3 1,-5 2,-7 1,-2 2,-4 4,-6 2,-2 4,-4 6,-5 2,-1 4,-2 6,-3 1,0 2,0 3,0 1,0 3,0 4,0 2,1 4,2 6,4l20 19c1,1 2,1 3,1 1,0 1,0 1,0 1,0 1,0 2,-1l0 0 1 -1 4 4 -1 2 -1 1c-1,2 -3,3 -5,3 0,0 0,0 0,0 -2,0 -5,-1 -7,-4 0,3 0,5 0,8 0,2 0,3 -1,5 0,2 -1,3 -2,5 -1,1 -2,2 -3,4 -2,1 -3,2 -5,3 -2,1 -4,2 -5,2 -1,0 -1,0 -2,0zm2 -40c0,2 0,4 -1,5 0,2 -1,4 -2,6 -1,1 -2,3 -3,5 -1,2 -1,4 -2,5 0,2 -1,4 0,5 0,2 0,3 2,4 1,1 2,2 3,2 1,0 1,0 2,0 0,0 1,0 1,0 1,0 2,0 3,-1 1,0 2,-1 3,-2 2,-2 3,-5 4,-9 1,-3 0,-7 -1,-12l-9 -8z"/>
   <path class="fil4" d="M4128 666c-1,-4 -2,-7 -4,-10 -4,-9 -11,-15 -20,-20 -2,-1 -3,-5 -4,-7l1 -1c11,-8 23,-14 37,-14l0 0c2,-2 1,-4 2,-6l-2 -1c-11,-3 -22,-5 -32,-7l-3 -1c1,-3 1,-3 2,-3 0,0 1,0 2,0 16,3 31,6 46,9 4,1 4,1 2,5 -3,-1 -6,-1 -9,-2l0 3c-4,17 -7,34 -11,51 0,2 -1,2 -2,3 -2,0 -3,0 -5,1zm-11 -40c-1,0 -2,0 -4,1 -1,1 -3,3 -5,4 9,6 17,14 22,24l1 -1c0,-4 1,-7 2,-11l-1 -2c-4,-5 -8,-9 -12,-13 -2,-1 -3,-2 -3,-2zm20 -6c-5,0 -12,2 -15,3 4,5 8,9 12,13 1,-6 2,-11 3,-16 0,0 0,0 0,0z"/>
   <path class="fil5" d="M4118 546l-8 -15c-4,0 -9,-2 -12,-5 -4,-2 -7,-6 -9,-10 -2,-4 -3,-8 -4,-12 0,-4 1,-8 2,-12 2,-4 4,-7 7,-11 3,-3 7,-6 11,-8 5,-3 9,-4 14,-5 1,0 3,0 4,0 3,0 6,0 9,1 3,1 7,3 10,5 4,3 6,6 8,10 2,2 3,5 3,8 0,3 1,6 0,9l-6 -1c1,-3 1,-5 1,-7 0,-3 -1,-5 -2,-7 -1,-3 -3,-5 -6,-7 -2,-1 -5,-3 -9,-3 -1,0 -3,-1 -4,-1 -2,0 -4,1 -6,1 -4,1 -8,2 -12,4 -4,2 -7,4 -9,7 -3,3 -5,6 -7,9 -1,3 -2,6 -2,9 0,3 1,6 2,9 2,2 3,4 5,6 3,1 5,3 8,3l-1 -1c-1,-2 -1,-3 -1,-5 -1,-2 -1,-4 0,-6 0,-1 1,-3 2,-4 1,-1 2,-2 4,-3 2,-1 3,-1 5,-1 0,0 0,0 0,0 2,0 4,0 6,1 0,-2 0,-4 1,-5 2,-2 3,-3 5,-4 1,-1 3,-1 4,-1 1,0 1,0 1,0 1,0 3,0 4,1 2,0 3,1 5,2 1,1 2,3 3,5l13 23 -6 3 -11 -21 -2 -2 -2 -2 -3 -1 -3 1 -2 1 0 3 0 3 1 3 11 21 -6 3 -11 -21 -2 -3 -2 -1 -3 -1 -2 0 -2 2 -1 3 0 3 1 3 11 21 -5 3z"/>
   <g>
    <path class="fil6" d="M3050 401c-3,0 -6,-1 -9,-3l-2 -3 -3 -3 7 -5 2 3 2 1c2,2 4,3 6,3 1,0 1,0 2,0 1,-1 2,-2 2,-4l0 -2 -1 -1c0,-1 -1,-2 -2,-4 -1,-1 -3,-2 -6,-2l-5 2 0 -6 0 0 1 0c2,-1 3,-2 4,-3l0 -2 0 -2 -1 -2 -1 -1c-1,-1 -1,-1 -2,-1 -1,0 -1,0 -2,0 -1,1 -2,2 -2,3l1 1 0 2 -8 4 0 -3c-1,-1 0,-2 0,-3 0,-4 3,-7 7,-9 2,0 4,-1 6,-1 2,0 3,0 4,1 3,1 5,3 6,6 1,3 1,5 0,7l-1 2 1 0 1 1 2 -2 2 -2 3 -3 4 -2 -4 -9 -6 3 -2 -6 22 -8 0 0 -4 2 2 5 -3 1 12 32 -7 8 -8 -23 -2 1 -2 1 -2 2 -1 1 -2 1 1 1 1 1 1 1 0 1c0,1 1,2 1,2l0 2c0,4 -1,7 -4,10 -2,1 -3,2 -5,3 -2,1 -4,1 -6,1z"/>
    <polygon class="fil6" points="3095,389 3082,353 3076,355 3076,355 3074,350 3100,340 3102,345 3090,350 3102,381 "/>
   </g>
   <path class="fil6" d="M2422 572l-11 -4 -3 -23c-2,3 -4,4 -6,6 -1,1 -3,2 -5,2 0,0 -1,0 -2,0 -3,0 -6,-1 -10,-4 -4,-3 -7,-6 -8,-10 0,-4 1,-7 3,-10 2,-3 5,-4 9,-5 0,0 1,0 1,0 2,0 4,0 6,1 3,1 6,3 9,6l-3 -16 -31 6 -2 -8 68 -13 2 8 -27 5 2 13c1,-1 3,-2 4,-2 2,-1 4,-2 5,-2 1,0 1,0 2,0 2,0 5,1 8,4 4,3 6,6 7,10 0,3 0,6 0,9 0,2 -1,5 -3,8l-9 -4c1,-4 2,-8 3,-10 1,-3 1,-5 0,-6 0,-1 0,-2 -1,-3l-3 0c-2,0 -4,1 -6,2 -2,2 -3,4 -5,6l6 34zm-26 -40c-1,0 -1,0 -2,0 -2,0 -4,1 -5,3 -2,2 -2,4 -2,6 1,2 1,3 2,4 1,0 2,1 3,1 0,0 1,-1 1,-1 2,0 3,0 5,-1 1,-1 2,-2 3,-3l5 -6c-2,-1 -4,-2 -6,-3 -1,0 -3,0 -4,0z"/>
   <path class="fil5" d="M4430 792l-10 -3 -2 -20c-2,2 -4,3 -5,4 -2,1 -3,2 -5,2 0,1 -1,1 -1,1 -3,0 -6,-2 -9,-4 -4,-3 -7,-6 -7,-9 -1,-3 0,-6 2,-9 2,-2 5,-4 8,-4 0,0 1,-1 1,-1 2,0 3,1 5,2 3,1 5,3 8,5l-2 -14 -28 5 -2 -7 61 -12 1 8 -24 4 2 12c2,-1 3,-2 4,-3 2,0 3,-1 4,-1 1,0 1,0 2,0 2,0 5,1 7,3 4,3 6,6 6,9 1,3 1,5 0,8 0,3 -1,5 -2,8l-8 -4c1,-4 2,-7 2,-9 1,-2 1,-4 1,-5 0,-1 -1,-2 -2,-3l-2 0c-2,0 -4,1 -5,2 -2,1 -4,3 -5,5l5 30zm-23 -35c0,0 -1,0 -2,0 -2,0 -3,1 -4,3 -1,1 -2,3 -1,5 0,1 0,2 1,3 1,1 2,1 3,1 0,0 0,0 1,0 1,-1 3,-1 4,-2 1,0 2,-1 2,-2l5 -5c-1,-2 -3,-3 -5,-3 -1,0 -3,0 -4,0z"/>
   <path class="fil7" d="M3313 656c-2,0 -4,0 -5,0 -2,-1 -4,-2 -6,-4 -2,-3 -3,-5 -3,-8 0,-3 0,-6 2,-9 -2,1 -5,2 -7,2 -1,0 -1,0 -2,0 -3,-1 -6,-2 -8,-5 -4,-5 -5,-11 -1,-17 1,-2 3,-4 5,-5 0,-1 1,-2 2,-2 1,-1 2,-2 3,-2 3,-1 6,-2 8,-2 2,0 3,0 5,1 2,1 4,2 5,4 2,2 3,5 4,7 0,3 0,5 -2,9l4 -1 2 0 1 0c3,0 5,1 7,3l9 -8 -30 -34 3 -3 44 50 -3 3 -10 -11 -9 8 1 2 0 1c1,2 0,5 -1,9 -1,2 -3,5 -5,7 -2,2 -4,3 -7,4 -2,1 -4,1 -6,1zm6 -27c-2,0 -4,0 -6,1l-2 1 -2 1 -1 1 -2 3c-3,5 -4,9 0,13 1,2 3,2 5,2 1,0 1,0 2,0 1,0 3,-1 4,-2l4 -3 2 -2 1 -1c1,-1 2,-3 2,-4 1,-2 1,-5 -1,-8 -2,-1 -4,-2 -6,-2zm-17 -19c-2,0 -4,0 -6,1 -1,1 -2,1 -3,2l-1 1 -2 2 -2 2c-2,3 -3,5 -2,8 0,1 1,2 2,3 1,2 4,3 6,3 2,0 3,0 5,-1l2 -1 4 -2 2 -3c2,-3 3,-5 3,-8 -1,-2 -1,-4 -2,-5 -2,-2 -4,-2 -6,-2z"/>
   <path class="fil6" d="M2865 517c-5,0 -9,-1 -12,-3 -4,-1 -7,-3 -10,-6 -2,-3 -4,-7 -6,-11 -1,-3 -1,-5 -1,-7 0,-3 0,-5 1,-7 1,-2 2,-4 4,-5 2,-2 4,-3 6,-4 1,0 3,0 4,0 0,0 0,0 1,0 1,0 3,0 4,1 1,1 2,2 3,3 1,1 1,2 2,3 0,2 0,4 0,6 0,1 -1,2 -1,4l-3 2 -3 2c-1,0 -2,0 -3,0 0,0 0,0 0,0 -2,0 -3,0 -4,-1l-3 -2c-1,-1 -1,-3 -2,-4l0 -1 0 -1 0 -1 0 -1c-1,1 -1,3 -2,4 0,2 0,4 1,7 1,3 2,5 5,7 2,2 5,3 8,4 3,2 6,2 10,2 0,0 0,0 0,0 3,0 7,-1 11,-2 4,-1 7,-3 10,-5 3,-2 6,-4 8,-7 2,-2 3,-5 4,-8 1,-3 0,-6 0,-8 -1,-3 -2,-5 -3,-6 -2,-2 -3,-3 -4,-3l0 1 1 1 0 1 1 0c0,2 0,3 0,5 0,1 0,2 -1,3l-2 3c-1,1 -2,2 -3,2 -1,0 -2,0 -3,0 0,0 0,0 -1,0 -1,0 -2,0 -3,0 -1,-1 -3,-2 -4,-3 -1,-1 -1,-3 -2,-4l-1 -4 1 -3 1 -3 3 -2 -3 0 -3 1 -3 1c-1,0 -2,1 -3,1l-1 0c0,0 -1,0 -2,0 0,0 0,0 -1,0 -1,0 -2,0 -3,-1l-4 -2c0,-1 -1,-2 -1,-3l-1 -2 1 -2 1 -1 1 0 2 0 1 1 2 2 1 2 2 1 2 0 0 -1 1 0 1 -2 1 -2 1 -2 1 -2 1 -3 1 -3c1,-3 2,-5 3,-8l1 -1 1 0 2 0 1 2 0 1c-1,2 -2,4 -3,6 -1,2 -1,3 -2,6 -1,2 -2,4 -3,6l-1 1 -1 2c4,-1 8,-2 11,-2 0,0 0,0 0,0 3,0 6,1 9,2 2,1 5,2 6,5 2,2 4,4 5,8 1,4 2,9 1,12 0,4 -2,8 -4,11 -2,4 -5,6 -8,9 -4,2 -8,4 -12,6 -5,1 -9,2 -13,2zm-14 -39l-2 0 -2 1 -1 2 -1 2 1 2 1 2 1 2 2 0 3 0 2 -1 1 -2 0 -2 0 -2 -1 -2 -2 -1 -2 -1zm32 -10l-3 0 -1 1 -2 2 0 2 0 3 1 2 2 1 2 1 2 -1 2 -1 1 -1 1 -2 -1 -3 -1 -2 -1 -1 -2 -1z"/>
   <path class="fil5" d="M3821 634c-1,0 -1,0 -2,-1 -2,0 -3,-2 -5,-3 -1,-2 -2,-3 -2,-5 -1,-3 -1,-5 -1,-7 0,-3 1,-6 2,-9 1,-2 3,-4 5,-6 3,-2 5,-3 8,-4 3,-1 6,-1 10,-1 2,0 4,1 7,1 0,0 1,0 1,1 3,0 5,2 7,3l3 -1 3 -2c1,0 2,0 3,0 1,-1 3,-1 4,-1 1,0 2,1 3,1 1,0 1,0 1,0 1,0 2,1 2,1 1,0 2,1 3,1 1,1 2,1 3,2 1,-1 3,-2 5,-2 2,-1 5,-1 7,-1l19 1 0 4 -9 0 -1 32 -7 0 1 -32 -4 -1c-1,0 -3,0 -4,1 -1,0 -3,1 -4,1 1,1 2,3 3,4 1,1 1,3 2,4 0,2 1,3 1,5 0,1 0,3 0,5 0,1 0,3 0,4 -1,2 -2,3 -2,4 -1,2 -2,3 -4,3 -1,1 -2,1 -4,1 -1,0 -3,0 -3,0 -1,0 -2,-1 -2,-1 -2,-1 -3,-2 -3,-3 -1,-1 -2,-3 -2,-4 0,-2 0,-4 0,-6 0,-3 1,-5 2,-8 1,-3 2,-5 4,-7 -1,-1 -2,-2 -3,-3 -1,0 -2,0 -2,-1 -1,0 -2,0 -3,0 -1,0 -3,0 -4,1 -2,0 -3,1 -4,1 2,3 4,5 5,8 1,3 2,6 1,9 0,2 0,4 0,5 -1,2 -1,3 -2,4 -1,1 -2,2 -3,3 -2,1 -3,1 -5,1 -1,0 -2,0 -3,0 -1,-1 -2,-1 -2,-1 -1,-1 -2,-2 -3,-3 -1,-1 -2,-3 -2,-4 0,-2 0,-4 0,-6 0,-3 1,-5 2,-8 1,-3 2,-5 4,-7 -2,-1 -4,-2 -6,-3 0,0 -1,0 -1,-1 -2,0 -3,0 -5,0 -2,0 -4,0 -7,0 -2,1 -4,2 -6,3 -2,1 -3,3 -4,5 -2,2 -2,5 -2,7 -1,2 0,4 1,6 0,1 1,3 3,4l-1 -1 0 -2 0 -1 0 -2c0,-1 0,-2 1,-4 0,-1 1,-2 2,-2 1,-1 2,-2 3,-2 1,0 3,0 4,0 1,0 2,0 2,0 1,0 1,0 2,1 1,0 2,1 3,2 1,1 1,2 2,4 0,1 0,2 0,4 0,2 -1,3 -1,4 -1,1 -2,3 -3,3 -1,1 -2,2 -4,2 -1,1 -3,1 -5,1 -1,0 -3,0 -4,-1zm7 -16l-2 1 -2 1 0 2 -1 1 0 2 1 3 1 1 1 1 2 0 2 -2 1 -2 0 -2 0 -2 -1 -2 -1 -1 -1 -1zm22 -8c-1,2 -2,4 -3,6 -1,2 -1,4 -1,6l0 2 0 2 0 2 1 1 1 2 2 0 2 0 1 -2c1,-1 1,-2 1,-3 0,-1 1,-2 1,-3 0,-2 -1,-4 -1,-7 -1,-2 -2,-4 -4,-6zm24 1c-1,2 -2,4 -3,6 -1,2 -1,4 -2,6l0 2 1 2 0 2 1 2 1 1 2 0 2 0 1 -2c0,-1 1,-2 1,-3 0,-1 0,-2 0,-2 1,-3 0,-5 0,-7 -1,-3 -2,-5 -4,-7z"/>
   <path class="fil7" d="M3259 428c-1,0 -3,-1 -4,-1 -2,-1 -3,-1 -5,-2 -1,-1 -2,-3 -3,-4 -1,-1 -2,-2 -3,-4 -1,-1 -2,-2 -2,-4 -2,-3 -2,-7 -3,-10 0,-3 1,-7 2,-10 1,-2 2,-5 5,-7 2,-3 5,-5 8,-6 2,-1 3,-1 5,-2 2,0 3,0 5,0 0,0 0,0 0,0 2,0 4,0 6,1 1,0 3,1 5,2 0,-2 0,-4 1,-5 0,-2 1,-3 2,-4 1,-1 2,-2 3,-3 1,-1 2,-1 3,-2 1,0 2,0 4,-1 0,0 1,0 1,0 1,0 2,0 2,0 1,0 3,1 4,1 1,1 3,2 4,3 0,-2 1,-4 1,-5 1,-2 2,-3 3,-4 1,-1 2,-2 3,-2 1,-1 2,-2 3,-2 3,-1 5,-2 8,-2 0,0 0,0 1,0 3,0 5,1 8,2 2,2 4,4 6,6 2,2 3,5 4,7 1,3 2,5 2,8 0,2 0,5 0,8 -1,2 -2,5 -3,7 -1,2 -3,4 -5,6l-4 -4c1,-1 2,-3 3,-5 0,-1 1,-3 1,-5 1,-1 1,-3 0,-5 0,-2 -1,-4 -1,-6 -1,-2 -2,-4 -3,-6 -2,-1 -3,-3 -4,-4 -2,-1 -4,-1 -6,-2 0,0 -1,0 -1,0 -1,0 -3,0 -4,1 -2,1 -3,1 -3,2 -1,1 -2,3 -2,4 -1,1 -1,3 -1,5 0,1 1,3 1,5l11 25 -8 3 -10 -24c-1,-2 -2,-4 -3,-5 -1,-2 -2,-3 -3,-3 -1,-1 -3,-2 -4,-2 0,0 0,0 -1,0 -1,0 -2,0 -3,1 -1,0 -2,1 -3,2 -1,1 -1,3 -1,4 -1,1 -1,3 0,5 0,1 0,3 1,4l11 25 -8 3 -10 -23c-1,-2 -2,-3 -3,-5 -1,-1 -3,-2 -5,-3 -2,-1 -3,-1 -5,-1 0,0 -1,0 -1,0 -2,0 -3,0 -5,1 -2,1 -4,2 -6,4 -2,1 -3,3 -4,4 -1,2 -1,4 -2,6 0,2 0,4 1,6l1 -2 2 -2 2 -3c1,0 2,-1 3,-1 2,-1 4,-2 6,-2 0,0 0,0 1,0 2,0 3,1 5,2 2,1 3,2 5,3 1,2 2,3 3,5 1,2 1,4 1,7 0,2 0,4 -1,5 -1,2 -2,4 -3,5 -2,1 -3,3 -5,3 -2,1 -4,2 -5,2 -1,0 -1,0 -1,0zm-1 -24c-2,0 -3,0 -4,1l-3 2 -1 2c-1,1 -1,2 -1,3 0,2 0,3 1,4 0,1 1,2 2,3 1,1 2,2 3,2 1,1 2,1 3,1 0,0 1,0 1,0 1,0 1,0 2,0 1,-1 2,-2 3,-2 1,-1 1,-2 2,-3 0,-1 0,-3 0,-4 0,-1 0,-2 -1,-3 -1,-3 -2,-4 -4,-5 -1,-1 -2,-1 -3,-1z"/>
   <path class="fil6" d="M3044 529c0,0 -1,0 -1,-1 -1,0 -2,-1 -3,-2 0,-1 -1,-2 -2,-3 -2,-2 -3,-4 -4,-7 0,-2 -1,-5 0,-7 0,-2 1,-5 2,-7 1,-2 3,-4 5,-5 1,-1 2,-2 4,-2 1,-1 2,-1 3,-2 2,0 3,0 4,0 2,0 3,0 4,1 0,-2 0,-3 0,-4 0,-2 1,-3 1,-4 1,-1 1,-1 2,-2 1,-1 1,-1 2,-2l2 -1 3 -1c1,0 2,0 3,0 1,0 2,1 3,1 0,-1 0,-2 0,-4 1,-1 1,-2 2,-3 0,-1 1,-2 1,-2 1,-1 2,-2 2,-2 2,-2 5,-3 7,-3 2,0 4,0 6,0 1,1 2,1 4,2 0,0 1,1 1,1 2,2 3,3 5,5 1,2 2,3 3,5 0,2 1,4 1,6 0,2 -1,4 -1,6 -1,2 -1,4 -3,5l-4 -2c1,-1 2,-3 2,-4 0,-1 0,-2 0,-4 0,-1 0,-3 -1,-4 0,-1 -1,-3 -2,-4 -1,-1 -2,-2 -3,-3 -1,-1 -2,-1 -2,-2 -1,0 -1,-1 -2,-1 -1,0 -3,-1 -4,0 -2,0 -3,0 -4,1 -1,1 -2,2 -2,2 -1,1 -1,2 -1,3 0,2 0,3 0,4 1,1 2,3 2,4l13 16 -6 4 -11 -16c-1,-1 -2,-2 -3,-3 -1,-1 -1,-1 -2,-1 0,-1 -1,-1 -1,-1 -1,-1 -2,-1 -3,-1 -1,1 -2,1 -3,2 -1,0 -2,1 -2,2 0,1 0,2 0,3 0,1 0,2 1,3 0,2 1,3 1,4l13 16 -5 4 -12 -16c-1,-1 -2,-2 -3,-3 0,0 0,0 0,0 0,0 0,0 0,0 -1,0 -3,-1 -4,-1 -1,0 -3,0 -4,0 -2,0 -3,1 -4,2 -2,1 -3,2 -4,4 -1,1 -2,2 -2,4 0,1 -1,3 0,4 0,2 0,3 1,5l1 -2 0 -2c1,-1 1,-2 2,-2 0,-1 1,-2 2,-2 1,-1 3,-2 4,-2 2,-1 3,-1 5,0 1,0 2,1 3,1 0,0 0,0 0,1 2,1 3,2 4,3 1,1 1,3 2,4 0,2 0,3 0,5 0,1 -1,2 -2,4 0,1 -1,2 -2,3 -2,1 -3,1 -4,2 -2,0 -3,0 -4,0 -1,0 -2,0 -4,-1 0,0 -1,-1 -2,-1zm8 -14c0,-1 -1,-1 -2,-1 -1,-1 -3,0 -4,1l-2 2 -1 2 0 2c0,1 1,2 1,3 1,1 2,1 2,2 0,0 0,0 0,0 1,0 2,1 3,1 1,0 2,0 3,0l2 -1c1,0 1,-1 2,-2 0,-1 0,-2 0,-2l0 -3c0,-1 -1,-2 -1,-2 -1,-1 -2,-2 -3,-2z"/>
   <path class="fil5" d="M4118 797c-1,0 -2,0 -3,-1 -1,0 -3,0 -4,0 -1,-1 -3,-1 -4,-2 -3,-1 -5,-3 -7,-5 -3,-2 -4,-5 -5,-7 -1,-3 -1,-5 -1,-8 0,-3 1,-6 2,-9 1,-1 2,-3 3,-4 0,-1 2,-2 3,-3 1,-1 2,-2 4,-3 1,-1 2,-1 4,-1 -1,-2 -2,-3 -2,-4 -1,-2 -1,-3 -1,-4 0,-1 0,-3 0,-4 1,-1 1,-2 2,-3l1 -2 3 -2c1,-1 2,-1 3,-2 1,0 2,0 4,-1 -1,-1 -2,-2 -2,-4 -1,-1 -1,-2 -1,-3 0,-2 0,-3 1,-4 0,-1 0,-2 1,-3 1,-3 3,-5 5,-6 2,-2 4,-3 6,-3 1,0 2,0 4,0 1,0 2,0 3,0 3,0 5,1 8,2 2,1 3,3 5,4 2,2 3,4 4,6 1,1 2,4 3,6 0,2 0,4 0,7l-5 0c0,-2 0,-4 -1,-5 0,-2 -1,-3 -2,-4 0,-2 -2,-3 -3,-4 -1,-1 -3,-2 -5,-3 -1,-1 -3,-1 -5,-2 -1,0 -2,0 -3,0 -1,0 -1,0 -2,0 -1,0 -3,1 -4,1 -2,1 -3,3 -4,4 0,1 0,2 0,4 0,1 0,2 1,3 0,1 1,2 2,4 1,1 2,2 4,2l21 11 -3 6 -21 -10c-1,-1 -3,-1 -5,-2 -1,0 -2,0 -2,0 -1,0 -1,0 -2,0 -1,0 -2,1 -3,1 -1,1 -2,2 -2,3 -1,1 -1,2 -1,3 0,2 1,3 2,4 0,1 1,2 2,3 1,1 3,1 4,2l21 10 -3 7 -20 -10c-1,0 -3,-1 -5,-1 0,0 -1,0 -1,0 -1,0 -3,0 -4,1 -1,0 -3,1 -4,2 -1,1 -3,2 -3,4 -1,2 -2,4 -2,6 0,2 0,3 0,5 1,2 1,4 2,5 1,1 3,3 4,4l0 -2 -1 -3 1 -3c0,-1 0,-2 1,-3 0,-2 2,-3 3,-4 1,-1 3,-2 5,-3 1,0 2,0 3,0 0,0 1,0 2,0 1,0 3,1 5,2 1,1 3,2 4,3 1,1 2,3 2,4 1,2 1,4 1,5 0,2 0,4 -1,5 -1,2 -2,3 -3,4 -1,1 -2,2 -4,3 -1,0 -2,0 -4,1 0,0 -1,0 -1,0zm-1 -20c-1,0 -2,0 -2,1 -2,0 -4,2 -5,4l0 2 0 3 1 2c1,1 2,2 3,2 1,1 2,1 3,1 0,0 0,0 1,0 1,0 1,0 2,0 1,0 2,-1 3,-1l2 -2c0,-1 0,-3 0,-4 0,-1 0,-2 0,-3l-2 -2 -2 -2c-2,0 -3,-1 -4,-1z"/>
   <path class="fil6" d="M2647 809l-3 -7 -2 2c0,0 -1,1 -2,1 -1,1 -2,1 -3,1 -1,0 -2,0 -3,-1 -2,0 -4,-2 -5,-3 -3,-1 -5,-3 -7,-5 -2,-2 -4,-4 -5,-7 -1,-4 -1,-7 -1,-10 0,-3 1,-6 3,-8 2,-3 4,-5 6,-8 3,-2 7,-4 10,-5 3,-1 5,-1 8,-2 0,0 1,0 2,0 2,0 3,0 5,1 2,0 4,1 6,2 2,1 4,2 6,3 2,2 3,4 5,5 1,2 2,4 3,6 0,3 1,5 1,8 0,3 -1,6 -1,8l-5 -1c1,-2 1,-4 1,-7 0,-2 0,-4 -1,-6 -1,-3 -2,-5 -4,-7 -2,-2 -4,-4 -7,-5 -2,-1 -5,-2 -8,-2 0,0 -1,0 -1,0 -3,0 -6,0 -8,1 -3,1 -6,3 -8,5 -3,1 -4,3 -6,6 -1,2 -2,4 -2,7 -1,2 -1,4 0,7 2,3 3,6 6,7 0,-2 1,-4 2,-5 1,-2 2,-3 4,-4 1,0 2,0 4,0 0,0 0,0 0,0 2,0 3,1 4,1 1,-1 1,-2 2,-3 1,-1 3,-2 4,-2 1,-1 2,-1 3,-1 0,0 1,0 1,0 1,0 2,0 3,1 1,0 2,1 3,2 1,1 2,2 2,4l6 15 -5 1 -5 -15 -1 -2 -2 -1 -1 0 -2 0 -2 1 -1 2 -1 2 1 2 5 15 -4 1zm-10 -19l-2 1 -2 1 -1 1 0 2 0 3 1 1 2 2 1 0 2 0 2 -1 1 -2 1 -2 -1 -2 0 0 0 0 -1 -2 -1 -1 -2 -1z"/>
   <path class="fil6" d="M2495 771c-1,0 -2,0 -3,0 -1,-1 -2,-2 -3,-4 0,-1 0,-2 1,-4 1,-1 2,-2 4,-2 1,0 1,0 2,0 1,0 2,0 3,0 1,1 2,2 2,3 0,2 0,3 -1,5 -1,1 -2,2 -3,2 -1,0 -2,0 -2,0zm13 -13c-11,0 -17,-3 -18,-9l-2 -5 20 -9c-4,-2 -8,-3 -13,-3 -3,0 -6,0 -10,1l-2 -8 -8 2 -1 -3 64 -16 1 3 -10 2 9 35 4 4c-14,4 -26,6 -34,6zm9 -42l-19 5 0 2c5,2 8,4 9,5 3,2 5,4 6,7l-13 7c1,5 4,8 10,10 3,1 7,2 11,2 2,0 3,0 5,-1l-9 -37z"/>
   <g>
    <path class="fil7" d="M3580 682c-4,0 -8,0 -12,-1 -10,-1 -21,-3 -31,-5 -19,-4 -37,-10 -54,-19 -5,-3 -7,-8 -6,-14 1,-7 5,-13 8,-18l3 -1 1 2c-1,2 -1,3 -2,5 -1,4 0,7 4,9 11,7 22,11 34,15 18,6 36,11 55,14 4,1 9,2 14,2 3,0 5,-1 8,-1 4,-1 7,-3 10,-5 1,0 2,0 4,-1l0 2c-4,5 -10,9 -16,12 -6,3 -13,4 -20,4z"/>
    <path class="fil7" d="M3521 707c-3,-2 -5,-4 -8,-7 -1,-1 -2,-3 -3,-5 -1,-1 -1,-2 1,-2 4,-2 8,-5 13,-7l3 1c4,4 7,7 10,11 2,2 2,3 0,3 -4,2 -8,4 -13,6 0,0 -2,0 -3,0z"/>
   </g>
   <path class="fil7" d="M3582 616c-2,-4 -3,-8 -5,-12 -6,-12 -15,-20 -26,-27 -4,-2 -4,-6 -6,-9l1 -2c15,-10 30,-18 49,-19l0 0c3,-1 1,-5 2,-7l-2 -2c-14,-3 -28,-6 -43,-8l-3 -1c1,-4 1,-5 3,-5 0,0 1,0 3,0 20,4 40,8 59,13 6,1 6,1 3,6 -3,-1 -7,-2 -11,-3 0,2 -1,3 -1,4 -4,22 -9,45 -13,67 -1,2 -2,3 -4,4 -2,0 -4,0 -6,1zm-15 -52c-1,0 -2,0 -4,1 -3,2 -5,4 -7,6 12,7 22,17 29,31 0,-1 0,-1 0,-2 1,-4 2,-9 3,-13l-1 -4c-5,-6 -11,-11 -16,-17 -2,-1 -3,-2 -4,-2zm27 -8c-6,0 -16,2 -20,5 6,5 11,10 16,16 1,-7 3,-14 4,-21 0,0 0,0 0,0z"/>
   <path class="fil6" d="M3069 657c-1,-3 -3,-6 -4,-9 -5,-9 -12,-15 -20,-20 -3,-2 -3,-5 -4,-7l1 -1c11,-8 22,-14 36,-15l0 0c3,-1 2,-3 3,-5l-2 -1c-11,-3 -22,-5 -33,-7l-2 -1c0,-3 0,-3 2,-3 0,0 1,0 2,0 15,3 30,6 45,9 4,1 4,1 3,5 -3,-1 -6,-1 -9,-2l-1 3c-3,17 -7,34 -10,51 0,1 -1,2 -3,2 -1,1 -3,1 -4,1zm-12 -39c-1,0 -1,0 -3,1 -2,1 -3,3 -5,4 9,6 17,13 22,24l0 -2c1,-3 2,-6 2,-10l0 -2c-4,-5 -9,-9 -13,-13 -1,-2 -2,-2 -3,-2zm21 -6c-5,0 -13,2 -15,3 4,5 8,9 12,13 1,-6 2,-11 3,-16 0,0 0,0 0,0z"/>
   <path class="fil6" d="M2761 402c-1,0 -3,0 -4,0 -2,-1 -4,-2 -5,-3 -2,-2 -3,-4 -4,-5 0,-2 0,-4 0,-6 0,-2 1,-4 2,-6 0,-2 1,-4 2,-6 1,-2 2,-4 3,-6 1,-1 2,-3 3,-5 0,-1 0,-3 0,-4 0,-1 0,-3 -1,-3 -1,-1 -2,-2 -4,-3 0,0 -1,0 -2,0 0,0 -1,0 -1,0 -2,1 -3,1 -4,2 -2,1 -3,2 -4,3 -1,1 -2,3 -3,4 0,1 -1,2 -1,4 0,1 0,2 0,4 1,1 1,2 2,3l-5 6c-2,-2 -3,-4 -4,-6 -1,-2 -1,-4 0,-7 0,-2 1,-4 2,-6 1,-3 2,-5 4,-6 2,-2 4,-4 6,-5 2,-2 4,-3 6,-3 1,0 2,0 3,0 1,0 3,0 4,0 2,1 4,2 6,4l20 18c1,1 2,2 3,2 0,0 0,0 0,0 1,0 2,-1 3,-1l0 -1 1 0 4 4 -1 2 -1 1c-1,2 -3,2 -5,2 0,0 0,0 0,0 -3,0 -5,-1 -8,-3 1,3 1,5 1,7 0,2 0,4 -1,6 -1,1 -1,3 -2,4 -1,2 -2,3 -3,4 -2,2 -3,3 -5,4 -2,1 -4,1 -6,1 0,0 0,0 -1,0zm2 -39c0,2 0,3 -1,5 0,2 -1,4 -2,5 -1,2 -2,4 -3,6 -1,2 -1,3 -2,5 0,2 -1,3 0,5 0,1 0,3 2,4 1,1 2,1 3,2 1,0 1,0 2,0 0,0 1,0 1,0 1,0 2,-1 3,-1l3 -2c2,-3 3,-6 4,-9 0,-4 0,-8 -1,-12l-9 -8z"/>
   <path class="fil5" d="M4445 484c-1,1 -2,1 -3,1 -1,0 -1,-1 -2,-1 -1,0 -1,-1 -2,-2 -1,0 -1,-1 -1,-2l-8 -18c0,1 -1,2 -2,3 0,1 -1,2 -3,3 0,0 -1,0 -2,0 0,0 -1,0 -2,0l2 3c1,4 1,7 1,10 -1,2 -4,4 -7,6 -2,1 -4,1 -6,1 -2,0 -5,-1 -6,-1 -2,-1 -4,-2 -6,-3 -2,-2 -3,-3 -5,-4 -1,0 -2,0 -3,0 -1,0 -2,0 -3,-1l-2 -1 -1 -1c0,-1 1,-1 1,-2l1 -1 0 -1 1 1 2 1c1,0 1,0 2,0 1,0 2,0 3,-1 1,0 1,-1 2,-1 1,-1 2,-2 2,-3 0,-1 1,-2 1,-3 0,-1 -1,-2 -1,-3 -1,-1 -1,-2 -2,-3 -1,-1 -1,-1 -2,-2 -1,0 -2,0 -2,0 -1,0 -2,0 -3,0 -1,0 -1,1 -2,2 -1,0 -2,1 -2,3l-5 -2c1,-2 2,-4 3,-5 1,-1 2,-2 4,-3 2,-1 3,-1 5,-1 2,0 3,1 4,2 2,0 3,1 4,3 1,1 2,2 3,4 1,1 1,3 1,5 0,1 0,3 0,4 -1,1 -1,3 -2,4 -1,1 -2,2 -3,2 1,1 2,2 3,3 1,0 3,1 4,2 1,0 3,0 4,1 1,0 3,-1 4,-1 1,-1 2,-1 2,-2 1,-1 1,-2 1,-2 0,-1 0,-2 0,-3 0,-1 0,-1 0,-2l-9 -18 5 -2 5 10c1,1 1,0 2,0 1,0 2,0 2,0 1,-1 2,-2 3,-3 1,-1 1,-2 1,-3l-7 -17 5 -2 17 40 1 1 2 0 0 -1 1 -1 3 1 0 2 0 1 -1 2c-1,0 -2,1 -2,1z"/>
   <path class="fil6" d="M2477 659c-2,0 -4,-1 -6,-1 -2,-1 -4,-2 -6,-3 -2,-1 -3,-3 -4,-5 -1,-2 -2,-4 -2,-7 0,-2 1,-3 1,-5 1,-1 2,-3 4,-4l-3 -2 -2 -2c-1,-1 -2,-2 -2,-3 0,-1 -1,-3 -1,-4 0,-2 1,-3 2,-5 0,-1 1,-2 3,-3 1,-1 3,-2 4,-3 2,0 4,-1 7,-1l1 6c-1,0 -2,0 -3,0 -2,1 -3,1 -4,1l-2 3 -2 3c0,1 1,2 1,3l2 1 3 1 3 1 5 0 0 6 -4 0 -2 0 -2 2 -2 2 -1 3c0,2 1,3 2,4 0,1 1,2 2,3 2,1 3,2 4,2 1,0 3,1 4,1 3,0 5,-1 7,-2 1,-1 3,-2 4,-3 1,-2 2,-3 2,-5 1,-2 1,-3 1,-5 0,-2 0,-3 -1,-5 0,-1 -1,-3 -1,-4 -1,-2 -2,-3 -2,-5 -1,-1 -2,-2 -2,-4 -1,-1 -2,-3 -2,-4 0,-2 -1,-3 -1,-5 0,-2 1,-4 1,-5 1,-2 2,-3 2,-4 1,-1 3,-2 4,-2 1,-1 3,-1 4,-1 1,0 2,0 4,1l3 2 2 2c0,1 1,3 1,4l-1 2 0 2 -1 1 -1 1 -5 -3 1 -1 1 -2 -1 -1 0 -1 -1 -1 -2 0 -1 0 -2 2 -1 1 -1 3c0,1 1,3 1,4 0,2 1,3 2,5 0,1 1,3 2,4 0,1 1,3 2,5 0,1 1,3 1,4 1,2 1,3 1,5 0,3 -1,6 -1,8 -1,3 -3,5 -4,7 -2,2 -4,3 -6,4 -3,1 -6,2 -9,2z"/>
   <path class="fil7" d="M3406 220c-2,0 -4,0 -5,-1 -2,0 -4,-1 -5,-2 -1,-1 -2,-3 -3,-4 -1,-2 -2,-4 -2,-6 0,-1 1,-3 1,-4 1,-1 2,-2 3,-3 -1,-1 -2,-1 -2,-2 -1,0 -2,-1 -2,-1 -1,-1 -1,-2 -2,-3 0,-1 0,-2 0,-3 0,-2 0,-3 1,-4 0,-1 1,-2 2,-3 1,-1 3,-1 4,-2 2,0 3,-1 5,-1l1 5c-1,0 -1,0 -2,0 -1,0 -2,1 -3,1 -1,1 -2,1 -2,2 -1,1 -1,1 -1,2 0,1 0,2 0,3l2 1c1,1 1,1 2,1 1,0 2,0 3,0l4 0 0 5 -3 0 -2 1 -2 1c-1,0 -1,1 -1,2 -1,0 -1,1 -1,2 0,1 1,3 1,4 1,1 2,1 2,2 1,1 2,1 3,1 2,1 3,1 4,1 2,0 4,0 5,-1 1,-1 3,-2 4,-3 0,-1 1,-3 1,-4 1,-1 1,-3 1,-4 0,-1 0,-3 -1,-4 0,-1 0,-2 -1,-3 0,-2 -1,-3 -2,-4 0,-1 -1,-2 -1,-4 -1,-1 -1,-2 -2,-3 0,-1 0,-3 0,-4 0,-2 0,-3 1,-4 0,-1 1,-2 2,-3 0,-1 1,-2 2,-2 1,0 2,-1 4,-1 1,0 2,1 3,1 0,0 1,1 2,1 1,1 1,2 2,3 0,1 0,1 0,2l0 2 0 1 -1 2 -1 1 -4 -3 1 -1 1 -1 -1 -1 0 -1 -1 0 -1 -1 -2 1 -1 0 -1 2c0,0 0,1 0,2 0,1 0,2 0,4 1,1 1,2 2,3 0,1 1,2 1,4 1,1 2,2 2,3 1,2 1,3 1,4 1,1 1,3 1,4 0,3 -1,5 -1,7 -1,2 -2,4 -3,5 -2,2 -3,3 -5,4 -2,0 -5,1 -7,1z"/>
   <path class="fil5" d="M3778 586c-2,0 -4,0 -6,-1 -2,-1 -4,-2 -6,-3 -2,-1 -3,-3 -4,-5 -1,-2 -2,-4 -2,-7 0,-2 1,-4 1,-5 1,-2 2,-3 4,-5l-3 -1 -3 -3c0,-1 -1,-2 -1,-3 -1,-1 -1,-3 -1,-4 0,-2 0,-3 1,-5 1,-1 2,-2 3,-3 2,-1 3,-2 5,-3 2,-1 5,-1 7,-2l1 7c-1,0 -2,0 -3,0 -2,0 -3,1 -4,1l-3 3c0,1 -1,2 -1,3 0,1 1,2 1,3l2 2 3 1 3 0 6 0 0 6 -5 0 -2 1 -2 1 -2 3 -1 3c0,2 1,3 2,4 0,2 1,3 3,3 1,1 2,2 3,2 2,1 3,1 4,1 3,0 5,-1 7,-2 2,-1 4,-2 5,-3 1,-2 2,-3 2,-5 1,-2 1,-4 1,-5 0,-2 0,-4 -1,-5 0,-2 -1,-3 -1,-5 -1,-1 -2,-3 -3,-4 0,-2 -1,-3 -2,-5 0,-1 -1,-3 -1,-4 -1,-2 -1,-4 -1,-5 0,-2 0,-4 1,-6 0,-1 1,-2 2,-3 1,-1 2,-2 4,-3 1,0 2,-1 4,-1 1,0 2,1 4,1 1,1 2,1 3,2l2 3c1,1 1,2 1,3l0 2 -1 2 -1 2 -1 1 -5 -3 1 -2 1 -1 -1 -1 0 -1 -1 -1 -2 0 -2 0 -1 1 -1 2 -1 3c0,1 0,3 1,4 0,2 1,3 1,5 1,1 2,3 3,4 0,2 1,3 2,5 0,1 1,3 1,5 1,1 1,3 1,5 0,3 0,6 -1,8 -1,3 -3,5 -4,7 -2,2 -4,3 -7,4 -2,1 -5,2 -9,2z"/>
   <g>
    <path class="fil7" d="M3584 223c-8,0 -17,-1 -27,-3 -3,0 -9,-1 -15,-4 -6,-1 -6,-3 -6,-8 0,-3 1,-6 3,-9l2 -1 0 2c0,1 0,2 0,3 0,1 0,2 2,3 5,2 10,4 16,5 12,2 23,4 35,4 1,0 1,0 2,0 4,0 8,-1 13,-1 2,-1 5,-2 6,-4l1 -1 2 0 0 2c-5,7 -12,10 -20,11 -4,0 -9,1 -14,1z"/>
    <path class="fil7" d="M3579 239c0,0 -1,0 -1,-1 -3,-1 -5,-3 -7,-5 -2,1 -3,2 -4,3 -1,1 -2,1 -3,1 -1,0 -2,-1 -4,-1 -1,-1 -3,-3 -4,-4l0 -1c2,-2 4,-3 6,-4l2 0c2,1 5,3 7,4 0,0 0,1 1,1 0,0 1,-1 1,-1 1,-1 3,-2 4,-3l2 0c2,2 4,3 6,4 2,1 2,2 1,3 -2,1 -4,2 -6,3 0,1 0,1 -1,1z"/>
    <path class="fil7" d="M3571 249l-2 0c-2,-1 -4,-3 -7,-4l0 -1c3,-2 5,-3 7,-5l2 1c2,1 5,3 7,4l0 1c-2,2 -5,3 -7,4z"/>
   </g>
   <g>
    <path class="fil5" d="M3798 733c-7,0 -14,-3 -20,-8 -14,-10 -25,-22 -38,-38 -3,-3 -8,-10 -11,-18 -4,-6 -3,-9 2,-13 3,-3 7,-5 11,-6l2 1 -1 2 -3 2c-1,2 -2,3 -1,5 3,7 7,13 11,19 9,13 19,25 30,36 5,4 10,8 15,12 3,2 6,2 10,2l1 0 2 2 -2 1c-3,0 -5,1 -8,1z"/>
    <path class="fil5" d="M3755 726c0,0 0,0 -1,0 -2,-1 -5,-1 -8,-1 -1,0 -2,-1 -2,-2 -1,-4 -2,-8 -3,-12 -2,0 -4,0 -6,-1 -3,0 -5,-3 -5,-6 -1,-2 -1,-4 -2,-7 0,-1 0,-1 1,-1 0,0 1,0 1,0 3,0 6,1 9,1l2 2c1,4 1,7 2,10 1,1 1,2 3,2 2,0 4,1 6,1l2 2c0,3 1,6 2,10 0,1 0,2 -1,2z"/>
    <path class="fil5" d="M3738 729c-4,-1 -7,-1 -11,-2l-1 -1c-1,-4 -2,-8 -3,-11l1 -1c3,1 7,1 10,2l2 1c1,4 1,8 2,11l0 1z"/>
   </g>
   <path class="fil6" d="M3076 788c0,-2 -1,-3 -2,-4 -3,-10 -10,-17 -20,-20 -7,-2 -11,-6 -15,-11 9,-7 18,-13 29,-16 2,-1 3,-3 5,-4l-2 -2c-6,0 -11,0 -17,0 -4,0 -8,0 -12,0 -1,0 -1,0 -1,0 -4,0 -7,-1 -9,-5 2,0 4,0 5,0 2,0 4,0 6,0 4,0 8,0 11,0 4,0 8,0 11,0 11,0 21,0 32,-1 0,0 0,0 0,0 4,0 7,2 9,6 -4,0 -9,0 -13,0 -3,0 -7,0 -11,0 -1,0 -3,1 -4,2 1,1 2,2 3,2 10,3 18,12 18,22 1,5 -1,9 -6,11 -1,1 -2,1 -3,1 -3,0 -5,-1 -6,-3 -1,-2 -1,-7 0,-8 2,-1 6,-1 8,-1l2 0c0,-8 -6,-13 -15,-13 0,0 -1,0 -1,0 0,14 0,29 0,43l-2 1zm-4 -45c-8,4 -14,7 -20,11 7,6 13,11 20,16 0,-8 0,-17 0,-27z"/>
   <path class="fil6" d="M2923 818c0,-1 -1,-2 -2,-3 -3,-7 -8,-12 -15,-14l0 1c-1,10 -9,15 -17,15 -1,0 -3,-1 -4,-1 -6,-1 -11,-4 -15,-9 -5,-4 -9,-10 -12,-15l0 -1 3 2c4,5 9,10 14,14 4,2 8,3 12,3 2,0 4,0 6,-1 8,-3 11,-11 7,-18 -2,-3 -5,-4 -8,-4 -1,0 -3,0 -4,1l1 0c2,3 2,6 1,8 -2,2 -4,3 -6,3 -1,0 -1,0 -2,0 -3,-1 -5,-3 -6,-6 0,-4 2,-7 4,-9 -2,-2 -5,-3 -7,-3 -1,0 -3,0 -4,0 -3,2 -7,3 -10,4 -1,1 -2,1 -3,1 -1,0 -2,-1 -4,-2l2 -1c19,-7 38,-13 56,-20 1,0 2,0 2,0 2,0 3,1 5,2 -4,1 -6,2 -10,3 6,17 12,33 17,49l-1 1zm-9 -17c-4,-10 -7,-21 -11,-31 -8,3 -16,5 -24,8l1 2 2 2 2 0c2,0 3,0 4,0 6,0 11,3 14,8 3,5 8,7 12,11z"/>
   <path class="fil5" d="M4426 398c-1,-1 -2,-2 -3,-3 -3,-6 -7,-12 -14,-14l-1 1c0,10 -9,15 -16,15 -2,0 -3,0 -4,-1 -6,-1 -11,-4 -15,-8 -5,-5 -9,-10 -12,-16l0 -1 3 2c4,5 8,10 14,14 4,2 8,3 12,3 2,0 4,0 6,-1 7,-3 10,-11 6,-17 -2,-3 -5,-5 -8,-5 -1,0 -2,0 -3,1l0 1c2,3 3,5 1,8 -1,1 -3,2 -6,2 0,0 -1,0 -1,0 -4,-1 -6,-3 -6,-6 0,-4 1,-6 4,-9 -3,-1 -5,-3 -8,-3 -1,0 -2,0 -3,1 -3,1 -7,2 -10,4 -1,0 -2,0 -3,0 -1,0 -3,-1 -4,-2l2 -1c19,-6 37,-13 56,-19 0,-1 1,-1 2,-1 1,0 3,1 4,3 -3,1 -6,2 -9,3 5,16 11,32 17,48l-1 1zm-10 -17c-3,-10 -7,-20 -10,-31 -8,3 -16,6 -25,9l1 1 3 2 2 0c1,0 3,0 4,0 6,0 10,3 13,8 3,5 9,7 12,11z"/>
   <path class="fil6" d="M2453 435c-4,0 -9,-1 -12,-2 -4,-2 -7,-4 -10,-6 -2,-3 -4,-5 -6,-9 -1,-3 -2,-7 -2,-10 0,-3 1,-5 1,-7 1,-2 2,-4 3,-6 2,-1 3,-3 5,-3 2,-1 4,-2 6,-2l3 1 3 2c1,1 2,2 2,3 1,1 1,2 1,4 0,1 0,2 -1,3l-2 3 -2 2 -4 0 -3 0 -3 -2 -1 -2c-1,-1 -1,-2 -1,-4l0 0 0 -1 0 -1 1 -1 -2 2 -1 3 -1 3 0 2c0,3 1,6 2,8 1,3 3,5 5,7 3,1 5,3 9,4 3,1 6,1 10,1 4,0 7,-1 10,-2 3,-1 6,-2 8,-4 2,-2 4,-4 5,-6 1,-3 1,-5 1,-7 0,-2 0,-4 0,-5 -1,-2 -1,-3 -2,-4 -1,-1 -2,-1 -4,-2 -1,-1 -3,-1 -4,-1 -2,0 -3,0 -4,1l-2 1 -1 2 0 2c0,1 0,2 0,3l3 3c1,1 2,2 3,3 1,1 3,1 4,2l1 1 -1 2 -2 0 -29 0 -1 0 -1 -1 1 -1 1 -1 26 0c-1,-1 -3,-1 -4,-2 -1,-1 -2,-2 -3,-3 -1,-1 -2,-2 -3,-3 0,-2 -1,-3 -1,-5 0,-1 1,-3 1,-4 1,-1 2,-2 3,-3 1,-1 2,-2 3,-2 2,-1 3,-1 5,-1 2,0 4,1 6,2 2,1 3,2 5,3 1,2 2,4 3,6 1,2 1,4 1,7 0,2 0,4 -1,7 0,2 -1,4 -2,6 -1,2 -3,4 -4,6 -2,1 -4,3 -6,4 -2,1 -4,2 -7,3 -2,1 -5,1 -8,1zm-14 -40l-3 0 -1 1 -1 2 -1 2 1 2 1 1 1 1 3 1 2 -1 1 -1 1 -1 1 -2c0,-2 -1,-3 -2,-4 -1,-1 -2,-1 -3,-1z"/>
   <path class="fil5" d="M4155 425l-5 0 0 -18 -7 0c-1,3 -2,5 -4,8 -2,2 -4,4 -6,6 -3,1 -6,2 -9,3 -3,1 -6,1 -9,1 -2,0 -4,0 -6,0 -2,0 -4,-1 -6,-1 -2,-1 -4,-1 -6,-2 -2,-1 -4,-2 -5,-3 -1,-2 -3,-3 -3,-4 -1,-2 -2,-4 -2,-6 0,-1 1,-2 1,-3l2 -3 3 -1c1,-1 2,-1 4,-1l41 0c0,-3 0,-5 -1,-8 -1,-2 -2,-4 -3,-5 -1,-2 -3,-3 -4,-4 -2,-1 -4,-2 -5,-2 1,1 1,2 2,3 1,1 1,3 1,4 0,1 0,3 -1,4l-2 3c-1,0 -2,1 -3,2 -2,0 -3,0 -5,0 -1,0 -3,0 -4,0 -1,-1 -3,-2 -4,-3 -1,-1 -1,-2 -2,-3 0,-1 -1,-2 -1,-4 0,-2 1,-3 1,-5 1,-1 2,-2 3,-3 1,-1 3,-2 4,-2 2,-1 4,-1 6,-1 3,0 7,0 10,2 3,1 5,3 7,5 3,2 4,5 5,8 1,3 2,6 2,9l6 0 0 -24 5 0 0 48zm-58 -18c-2,0 -3,0 -3,0l-1 2c0,2 0,3 2,5 1,1 2,2 4,3 2,1 5,2 8,2 2,1 5,1 8,1 3,0 5,0 7,-1 3,-1 5,-2 7,-3 2,-1 4,-2 5,-4 2,-2 3,-3 3,-5l-40 0zm20 -25l-2 1 -2 1 -1 1 0 3 0 2 2 1 1 2 2 0 2 0 2 -2 1 -1 1 -2 -1 -3 -1 -1 -2 -1 -2 -1z"/>
   <path class="fil7" d="M3456 375c0,-1 0,-1 -1,-1 -1,-1 -1,-3 -2,-5 0,-2 -1,-4 -1,-6 0,-2 0,-5 1,-7 0,-3 1,-6 2,-9 1,-3 3,-5 4,-7 2,-2 3,-3 5,-4 2,-2 4,-2 6,-2 2,-1 4,0 6,1 2,0 3,1 4,2 0,0 0,0 0,1 1,1 1,2 2,3 0,1 0,3 0,4 0,2 -1,3 -1,4 -1,1 -1,2 -2,3 -1,1 -2,2 -3,3l17 7c0,-1 -1,-3 0,-4 0,-1 0,-2 0,-4 1,-1 2,-2 3,-3 0,-1 1,-2 3,-3 1,-1 2,-1 4,-1 1,0 2,0 4,0 2,1 4,2 5,4 0,0 1,1 1,1 1,1 1,3 2,5 0,2 0,4 0,6 0,3 -1,5 -2,8 -1,3 -3,6 -4,8 -2,2 -3,4 -5,6 -2,1 -3,2 -5,3 -2,1 -4,2 -5,2 -2,0 -3,0 -5,0 -1,0 -3,0 -4,-1 -1,0 -2,-1 -3,-2 -1,0 -2,-1 -3,-2 -1,-1 -1,-3 -2,-4 0,-1 0,-3 0,-5 -1,2 -2,3 -4,3 -1,1 -2,2 -3,2 -2,0 -3,0 -4,0 -2,0 -3,-1 -4,-1 -1,-1 -2,-1 -4,-2 0,-1 -1,-2 -2,-3zm4 -25c-1,3 -2,6 -2,9 0,3 0,5 0,7 1,2 1,4 2,5 0,0 0,0 1,0 1,2 2,3 3,3 2,1 3,1 4,1 2,0 3,-1 4,-1 1,-1 2,-2 3,-3 1,-1 2,-2 2,-3l6 2 -1 4c0,2 0,3 0,4 1,1 1,2 2,3 0,0 0,0 0,1 1,1 2,1 3,2 2,1 3,1 5,1 2,-1 3,-1 5,-2 2,-2 4,-3 6,-5 1,-2 3,-5 4,-9 -1,1 -2,1 -4,1 -1,0 -2,0 -4,-1l-33 -13c-1,-1 -2,-2 -3,-3 -1,0 -1,0 -1,-1 -1,0 -1,-1 -2,-2zm15 -9l-2 -2c-2,0 -3,0 -5,0 -1,1 -2,2 -4,4l1 3 0 2 2 1 1 1 2 1 3 -1 1 -2 1 -1 1 -2 0 -2 -1 -2zm33 14c0,-1 -1,-1 -2,-2l-2 0 -2 1 -2 1 -1 2 0 1 0 3 1 2 2 1 1 1 2 0 2 -1c1,-1 2,-2 3,-3 0,-1 0,-3 -1,-5 0,0 0,0 -1,-1z"/>
   <path class="fil7" d="M3278 733c0,0 -1,0 -1,-1 -1,-1 -2,-2 -3,-4 -1,-1 -2,-3 -2,-6 -1,-2 -1,-4 -1,-7 -1,-3 0,-5 0,-9 1,-3 2,-5 3,-7 1,-3 2,-4 4,-6 1,-1 3,-2 5,-3 2,-1 4,-1 6,0 2,0 3,1 4,1 0,1 0,1 1,1 1,1 1,2 2,3 0,1 1,2 1,4 0,1 0,3 0,4 -1,1 -1,2 -2,3 0,2 -1,3 -2,3l18 4c0,-1 -1,-3 -1,-4 0,-1 0,-2 0,-4 0,-1 1,-2 1,-4 1,-1 2,-2 3,-3 1,-1 2,-2 3,-2 2,-1 3,-1 5,0 2,0 4,1 6,2 0,0 0,0 0,1 2,1 3,2 3,4 1,2 2,4 2,6 0,3 0,6 0,8 -1,4 -2,7 -3,9 -1,3 -2,5 -3,7 -2,1 -3,3 -4,4 -2,1 -4,2 -5,3 -2,1 -3,1 -5,1 -1,0 -2,0 -3,0 -2,0 -3,0 -4,-1 -1,-1 -3,-1 -4,-2 0,-1 -1,-2 -2,-3 -1,-2 -1,-3 -1,-5 -1,2 -2,3 -3,4 -1,1 -2,2 -4,2 -1,1 -2,1 -3,1 -2,0 -3,0 -4,0 -2,-1 -3,-1 -4,-2 -1,0 -2,-1 -3,-2zm-1 -25c-1,3 -1,7 -1,9 1,3 1,5 2,7 1,2 2,4 3,5 0,0 1,0 1,0 1,1 2,2 4,2 1,0 3,0 4,0 1,-1 2,-1 3,-2 1,-1 2,-2 3,-3 0,-2 1,-3 1,-4l6 1 0 4c0,1 1,3 1,4 1,1 1,2 2,2 0,1 1,1 1,1 1,1 2,1 4,1 1,1 2,1 4,0 2,-1 3,-2 5,-3 1,-2 3,-4 4,-6 1,-2 2,-5 3,-9 -1,1 -3,1 -4,2 -1,0 -3,0 -4,0l-35 -7c-2,0 -3,0 -4,-1 -1,0 -1,-1 -1,-1 -1,-1 -2,-1 -2,-2zm12 -12l-2 -1c-2,0 -3,0 -4,1 -2,1 -3,2 -4,4l1 3 1 2 2 1 2 1 2 -1 2 -1 1 -1 1 -2 0 -2 -1 -2 -1 -2zm36 7c-1,-1 -2,-1 -3,-1l-2 0 -2 1 -1 1 -1 2 0 2 1 2 1 2 2 1 2 0 2 0 2 -2c0,0 1,-1 1,-2 0,-2 0,-4 -1,-5 0,0 -1,-1 -1,-1z"/>
   <path class="fil7" d="M3242 262c0,0 0,0 0,0 -2,0 -3,0 -5,-1 -1,0 -3,-1 -5,-2 -1,-1 -3,-2 -5,-4 -1,-2 -3,-4 -5,-6 -1,-2 -2,-5 -3,-7 0,-2 0,-4 0,-6 0,-2 0,-3 1,-5 1,-1 2,-3 4,-4 1,-1 3,-1 4,-1 0,0 0,0 0,0 1,0 3,0 4,1l3 2 2 2 1 3 0 4 14 -9 -3 -2 -2 -2c-1,-1 -1,-2 -1,-3 -1,-1 -1,-3 -1,-4 0,-1 1,-2 1,-3 1,-2 2,-2 3,-3 2,-1 3,-2 5,-2 0,0 1,0 1,0 1,0 3,0 4,1 2,1 4,2 6,3 1,1 3,3 4,5 2,3 3,5 3,7 1,3 2,5 2,7 0,2 0,4 0,5 0,2 -1,3 -1,5 -1,1 -2,2 -2,3l-3 3 -3 1c-1,0 -2,1 -4,1 -1,0 -2,-1 -3,-1 -1,0 -2,-1 -4,-2 1,1 1,3 1,4 0,1 -1,2 -1,3l-2 3 -3 2c-1,1 -2,1 -3,2 -1,0 -2,0 -4,0zm-15 -16c2,3 4,5 5,7 2,1 4,3 6,3 1,1 3,1 4,1 0,0 0,0 1,0 1,0 2,0 3,-1 2,-1 3,-2 3,-3l1 -3c0,-1 0,-2 0,-3l-1 -3 4 -3 2 2 3 2 4 0c1,0 2,0 3,-1 1,0 2,-1 3,-3 1,-1 1,-3 1,-4 0,-2 0,-4 -1,-7 0,-2 -1,-5 -3,-7 0,1 -1,2 -2,3l-2 2 -27 17c-1,1 -2,1 -3,2 -1,0 -1,0 -2,0 0,0 -1,0 -2,-1zm1 -14l-2 0c-1,1 -2,2 -2,3 -1,2 0,3 0,5l2 1 2 1 2 0 1 -1 2 -2 0 -1 0 -2 0 -2 -2 -1 -1 -1 -2 0zm27 -17c-1,0 -2,0 -2,0l-2 2 0 2 0 1 0 2 2 1 1 1 2 1 2 -1 1 -1 1 -1 1 -2 -1 -3c-1,-1 -2,-2 -4,-2 0,0 0,0 -1,0z"/>
   <path class="fil5" d="M4410 593c0,0 0,0 -1,0 -2,0 -3,-1 -5,-1 -2,-1 -4,-2 -6,-3 -3,-2 -5,-3 -7,-5 -2,-2 -4,-5 -6,-8 -1,-3 -2,-5 -3,-8 -1,-2 -1,-5 -1,-7 0,-2 1,-5 2,-6 1,-2 2,-4 4,-5 2,-1 4,-2 5,-2 0,0 1,0 1,0 1,0 2,0 4,1 1,1 2,1 3,2 2,1 2,3 3,4 1,1 2,2 2,4 0,1 0,2 0,4l17 -11c-1,0 -2,-1 -4,-2 -1,-1 -2,-2 -2,-3 -1,-1 -2,-3 -2,-4 -1,-2 -1,-3 -1,-5 0,-1 1,-3 2,-4 0,-1 1,-2 3,-3 2,-2 4,-2 6,-3 1,0 1,0 1,0 2,0 4,1 6,1 2,1 4,3 6,4 2,2 4,4 6,7 2,3 3,6 4,9 1,2 2,5 2,7 0,3 0,5 0,7 -1,2 -1,4 -2,6 -1,1 -1,3 -2,4 -1,1 -2,2 -4,3 -1,1 -2,1 -3,2 -2,0 -3,0 -4,0 0,0 -1,0 -1,0 -1,0 -2,0 -4,0 -1,-1 -3,-2 -4,-3 0,2 0,4 0,5 0,2 0,3 -1,4 -1,2 -1,3 -2,4 -1,1 -2,2 -4,3 -1,0 -2,1 -4,1 -1,0 -2,1 -4,1zm-19 -20c2,4 4,6 7,8 2,2 4,3 6,4 2,1 4,2 6,2 0,0 0,0 0,0 2,-1 4,-1 5,-2 1,-1 3,-2 3,-3 1,-1 1,-3 1,-4 0,-1 0,-3 0,-4 0,-2 -1,-3 -1,-4l5 -4 3 3c1,1 2,2 4,2 1,1 2,1 3,1 0,0 1,0 1,0 1,0 3,0 4,-1 1,-1 2,-2 3,-4 1,-2 2,-4 2,-6 0,-2 0,-5 -1,-8 -1,-3 -2,-6 -4,-9 -1,2 -1,3 -2,4 -1,1 -2,2 -3,3l-33 21c-1,1 -3,1 -4,1 -1,1 -1,1 -2,1 -1,0 -2,-1 -3,-1zm1 -18l-2 1c-2,1 -3,2 -3,4 0,1 0,3 0,5l3 2 3 1 2 -1 1 0 2 -2 1 -3 0 -2 -1 -2 -2 -2 -2 -1 -2 0zm34 -21c-1,0 -2,1 -3,1l-2 2 -1 2 0 2 1 3 1 1 3 1 2 0 2 0 2 -1 1 -2 1 -3c0,-1 -1,-2 -1,-3 -2,-1 -3,-2 -5,-3 0,0 -1,0 -1,0z"/>
   <path class="fil6" d="M2592 382c-1,0 -1,0 -1,0 -2,0 -3,-1 -5,-1 -2,-1 -3,-1 -5,-2 -2,-2 -4,-3 -5,-5 -2,-2 -4,-4 -5,-6 -2,-3 -3,-5 -3,-7 -1,-2 -1,-4 -1,-6 0,-2 1,-4 1,-6 1,-1 3,-3 4,-4 2,0 3,-1 4,-1 1,0 1,0 1,0 1,0 2,0 3,1 1,0 2,1 3,2 1,1 2,2 3,3 0,1 1,2 1,3 0,1 1,2 0,3l15 -9c-1,0 -2,-1 -3,-1l-3 -3c0,-1 -1,-2 -1,-4 0,-1 -1,-2 -1,-3 1,-2 1,-3 2,-4 0,-1 1,-2 2,-3 2,-1 4,-2 6,-2 0,0 0,0 1,0 1,0 3,0 4,1 2,1 4,2 6,3 1,2 3,4 4,6 2,3 3,5 4,7 1,3 1,5 2,7 0,2 0,4 0,6 -1,2 -1,3 -2,5 0,1 -1,2 -2,3 -1,1 -2,2 -3,3 -1,0 -2,1 -3,1 -1,1 -2,1 -3,1 -2,0 -3,0 -4,-1 -1,0 -3,-1 -4,-2 1,1 1,3 0,4 0,2 0,3 0,4 -1,1 -2,2 -2,3 -1,1 -2,1 -3,2 -1,1 -2,1 -4,1 -1,1 -2,1 -3,1zm-17 -17c2,3 4,5 6,7 2,2 4,3 6,4 1,0 3,1 4,1 1,0 1,0 1,0 1,0 3,-1 4,-2 1,0 2,-1 3,-2 0,-1 0,-3 1,-4 0,-1 0,-2 -1,-3 0,-1 0,-3 -1,-4l5 -2 2 2c1,1 2,1 3,2 1,0 2,0 3,0 1,0 1,0 1,0 1,0 2,0 3,-1 2,-1 2,-2 3,-3 1,-1 1,-3 2,-5 0,-2 -1,-4 -1,-7 -1,-2 -2,-5 -4,-8 0,2 -1,3 -1,4 -1,1 -2,2 -3,3l-28 17c-1,1 -2,1 -4,1 0,1 -1,1 -1,1 -1,0 -2,-1 -3,-1zm1 -15l-2 0c-1,1 -2,2 -2,4 0,1 0,3 0,4l3 2 2 1 2 -1 1 0 1 -2 1 -2 0 -2 -1 -2 -1 -1 -2 -1 -2 0zm29 -18c-1,0 -2,0 -3,1l-1 1 -1 2 0 2 1 2 1 1 2 1 2 1 2 -1 1 -1 1 -2 1 -2c0,0 0,-1 -1,-2 -1,-2 -2,-2 -4,-3 0,0 -1,0 -1,0z"/>
   <path class="fil5" d="M3965 387c0,0 0,0 0,0 -2,-1 -3,-1 -5,-3 -1,-1 -3,-2 -4,-4 -2,-1 -3,-3 -4,-6 -1,-2 -2,-5 -3,-8 0,-3 -1,-5 0,-8 0,-2 0,-4 1,-6 1,-2 2,-4 3,-5 2,-1 4,-2 6,-3 1,0 3,0 4,0 0,0 0,0 1,1 1,0 2,1 3,1 1,1 2,2 2,4 1,1 1,2 2,3 0,1 0,3 0,4 0,1 -1,2 -1,3l17 -4c-1,0 -1,-1 -2,-2 -1,-1 -1,-3 -1,-4 -1,-1 -1,-2 -1,-4 0,-1 0,-2 1,-4 0,-1 1,-2 2,-3 1,-1 3,-2 4,-2 2,0 4,0 6,0 1,0 1,0 1,0 2,1 3,2 4,3 2,1 3,3 5,5 1,2 2,5 2,7 1,3 1,6 1,9 0,2 0,5 0,7 -1,2 -1,4 -2,6 -1,1 -2,3 -3,4 -1,1 -3,2 -4,3 -1,1 -2,1 -3,1 -2,1 -3,1 -4,1 -1,0 -3,0 -4,-1 -1,0 -2,-1 -3,-2 -1,-1 -2,-2 -3,-3 0,1 -1,3 -1,4 -1,1 -2,2 -2,3 -1,1 -2,2 -3,3 -2,0 -3,1 -4,1 -1,0 -3,0 -4,0 -1,0 -2,0 -4,-1zm-10 -22c1,4 2,7 3,9 2,2 3,4 5,5 1,2 2,2 4,3 0,0 0,0 0,0 2,1 3,1 5,0 1,0 2,-1 3,-2 1,0 2,-1 2,-3 1,-1 1,-2 1,-3 1,-1 1,-3 0,-4l6 -1 2 3c0,1 1,2 2,3 1,1 2,1 3,2 0,0 0,0 0,0 2,0 3,0 4,0 2,0 3,-1 4,-2 2,-1 2,-3 3,-5 1,-2 2,-4 2,-7 0,-2 0,-5 -1,-9 -1,1 -2,2 -3,3 -1,1 -2,1 -3,2l-34 8c-2,0 -3,0 -4,0 -1,0 -1,0 -2,-1 0,0 -1,0 -2,-1zm6 -15l-2 0c-2,0 -3,1 -4,3 0,1 -1,2 -1,4l2 3 2 1 2 0 1 0 2 -1 2 -2 0 -2 0 -2 -1 -1 -1 -2 -2 -1zm35 -8c-1,0 -2,0 -3,0l-2 1 -1 2 -1 2 0 2 1 1 1 2 2 1 2 0 2 0 2 -1 1 -2c0,-1 0,-2 0,-3 -1,-2 -2,-3 -3,-4 0,0 -1,0 -1,-1z"/>
   <path class="fil6" d="M2707 696c-1,0 -2,0 -3,0 -2,-1 -3,-1 -4,-2l-3 -3 -2 -3 -2 -3c-1,-3 -2,-5 -2,-8 0,-3 0,-5 1,-8 1,-2 2,-4 4,-6 2,-2 4,-3 7,-5 1,0 3,-1 4,-1 1,0 3,0 4,0 0,0 0,0 0,0 2,0 3,0 4,0 2,1 3,1 4,2 0,-1 1,-3 1,-4 1,-1 1,-2 2,-3l2 -2 3 -2 3 0 3 -1 3 1 3 2c0,-1 0,-3 1,-4l2 -3 2 -2 3 -1c2,-1 4,-1 6,-1 0,0 1,0 1,0 2,0 4,0 6,1 2,1 3,3 5,5 1,1 3,3 3,6 1,2 2,4 2,6 0,2 0,4 0,6 -1,2 -1,4 -2,6 -1,2 -3,3 -4,5l-4 -4c1,-1 2,-2 3,-3 0,-2 1,-3 1,-4 0,-2 0,-3 0,-5 0,-1 -1,-3 -2,-5 0,-1 -1,-3 -2,-4 -1,-1 -2,-2 -3,-3 -1,-1 -3,-2 -4,-2 -1,0 -1,0 -1,0 -2,0 -3,0 -4,1l-2 2 -2 3c0,1 0,2 0,3 0,2 0,3 1,5l8 20 -6 2 -8 -19c-1,-2 -2,-3 -2,-4l-3 -3 -3 -1 -3 0 -3 2 -1 3c0,2 0,3 0,4 0,1 1,3 1,4l9 20 -6 2 -8 -18c-1,-2 -2,-3 -3,-4 -1,-1 -2,-2 -4,-3 -1,0 -2,-1 -4,-1 0,0 0,0 0,0 -2,0 -3,1 -5,1 -1,1 -3,2 -4,3 -2,1 -3,3 -3,4 -1,2 -2,3 -2,5 0,1 0,3 1,5l1 -2 1 -2 2 -2 2 -1c2,-1 4,-1 5,-1 0,0 0,0 0,0 2,0 4,0 5,1 1,0 2,1 3,3 2,1 2,2 3,3 1,2 1,4 1,5 0,2 0,4 -1,5 -1,1 -1,3 -2,4 -1,1 -3,2 -4,2 -2,1 -3,1 -5,1 0,0 0,0 0,0zm-1 -18c-1,0 -2,0 -3,0l-2 2 -1 2 -1 2 1 3 1 3 3 1 2 1 3 0 2 -2 1 -2 1 -3 -1 -3c-1,-2 -2,-3 -4,-4 -1,0 -1,0 -2,0z"/>
   <path class="fil5" d="M3924 808c0,0 0,0 -1,0l-2 -4c2,-1 3,-2 4,-3 1,-1 2,-2 3,-3 1,-1 1,-3 2,-4 0,-2 0,-4 0,-6 0,-1 0,-3 0,-5 -1,-1 -1,-3 -2,-4 -1,-1 -2,-2 -3,-3 -2,-1 -3,-1 -5,-1l-3 0 -3 3 -2 3c0,1 -1,3 -1,5l1 22 -7 0 0 -22c0,-2 -1,-3 -1,-5 0,-1 -1,-2 -1,-3 -1,-1 -2,-2 -3,-2l-3 -1 -3 1 -2 2 -2 4c0,1 0,2 0,4l0 22 -7 0 0 -21c0,-1 0,-3 -1,-5 -1,-1 -2,-2 -3,-3 -1,-2 -2,-2 -3,-3 -2,-1 -4,-1 -5,-1 -2,0 -4,0 -6,1 0,0 0,0 -1,0 -1,1 -2,1 -3,2 -2,1 -3,3 -4,4 0,2 -1,3 -1,5l2 -1 2 -2 2 -1 3 0c2,0 4,0 5,1 2,1 3,2 4,3 1,1 2,2 2,4 1,2 1,3 1,5 0,2 0,3 -1,5 0,1 -1,3 -2,4 -2,1 -3,2 -4,3 0,0 -1,0 -1,0 -1,0 -2,1 -4,1 -2,0 -3,-1 -4,-1 -2,-1 -3,-1 -4,-2 -1,-1 -2,-2 -3,-3 0,-2 -1,-3 -1,-4 -1,-1 -1,-3 -1,-4 0,-1 -1,-2 -1,-4 0,-3 1,-6 2,-8 1,-3 2,-5 4,-7 1,-2 3,-4 6,-5 0,0 0,0 0,0 3,-1 5,-1 8,-1 2,0 3,0 5,0 1,0 3,1 4,1 1,1 2,2 4,3 1,1 2,2 3,3 0,-2 1,-3 2,-4 1,-1 2,-2 3,-2 0,0 1,0 1,-1 1,0 2,0 2,0l3 -1 3 1 3 1 3 2c0,1 1,2 2,3 1,-1 1,-2 2,-3 1,-1 2,-2 3,-2l3 -1 4 -1c2,0 5,1 7,2 2,1 4,2 5,4 1,2 2,4 3,6 1,2 1,5 1,7 0,2 0,4 -1,7 -1,2 -1,4 -3,5 -1,2 -2,4 -4,5 -1,1 -3,2 -5,3zm-63 -19l-2 2 -2 2 0 3 0 3 2 2 2 2 2 1 3 -1 3 -2 1 -2 0 -3c0,-2 0,-4 -2,-5 -1,-2 -3,-2 -5,-2l-2 0z"/>
   <path class="fil7" d="M3434 581l-6 -11c-4,-1 -7,-2 -10,-4 -3,-2 -6,-5 -8,-8 -1,-3 -2,-7 -2,-10 0,-3 0,-6 1,-9 1,-3 3,-6 6,-9 2,-3 5,-5 9,-7 3,-2 7,-3 11,-3 1,-1 2,-1 3,-1 2,0 5,1 7,1 3,1 6,2 8,4 3,2 5,5 6,8 2,2 2,4 3,7 0,2 0,5 0,7l-5 -1c1,-2 1,-4 1,-6 0,-2 -1,-4 -2,-5 -1,-2 -2,-4 -4,-6 -3,-1 -5,-2 -7,-2 -2,-1 -3,-1 -4,-1 -2,0 -3,0 -5,1 -3,0 -6,1 -9,3 -3,2 -6,3 -8,6 -2,2 -4,4 -5,6 -1,3 -1,5 -1,8 -1,2 0,5 1,7 1,2 3,3 4,5 2,1 4,2 6,3l0 -1c-1,-2 -1,-3 -2,-5 0,-1 0,-3 1,-4 0,-1 1,-2 1,-4 1,-1 2,-1 3,-2 2,-1 3,-1 5,-1 0,0 0,0 0,0 1,0 3,0 4,1 0,-1 1,-3 1,-4 1,-1 2,-2 4,-3 1,-1 2,-1 4,-1 0,0 0,0 0,0 1,0 2,0 3,1 2,0 3,1 4,2 1,1 2,2 3,3l10 19 -5 3 -9 -17 -1 -2 -2 -2 -2 0 -2 0 -2 1 0 2 0 3 1 2 8 17 -4 2 -9 -16 -1 -2 -2 -2 -2 -1 -2 1 -2 1 -1 2 1 3 0 2 9 17 -4 2z"/>
   <path class="fil5" d="M3980 740c0,0 0,0 0,0 -2,0 -4,0 -6,0 -1,-1 -3,-2 -5,-3 -2,-1 -4,-2 -6,-4l4 -5c2,2 3,3 5,4 1,2 2,2 4,3 1,1 2,1 4,1 0,1 1,1 2,1 1,0 1,0 2,-1 2,0 3,0 4,-1 1,0 2,-1 3,-2l2 -3 0 -3c0,-1 -1,-3 -2,-4 -1,-1 -2,-2 -3,-3 -2,-1 -3,-1 -5,-2 -2,0 -4,-1 -6,-2 -2,0 -4,-1 -5,-2 -2,-1 -4,-1 -6,-3 -1,-1 -2,-2 -3,-4 -1,-1 -2,-3 -2,-6 -1,-2 0,-4 0,-6 1,-2 2,-3 3,-5 2,-1 4,-3 6,-4 2,-1 4,-2 7,-2 2,0 3,0 4,0 1,0 1,0 1,0 2,0 3,0 5,1 1,0 3,1 5,2 1,1 3,3 5,5l-3 4c-3,-3 -5,-5 -8,-7 -2,-1 -5,-1 -7,-1 0,0 -1,0 -2,0 -1,0 -2,0 -4,1 -1,0 -2,1 -3,2l-2 2 0 3c0,2 1,3 2,4 1,1 2,2 4,3 1,1 3,1 5,2 2,1 4,1 6,2 2,0 4,1 6,2 2,1 4,2 6,3 1,1 3,2 4,4 1,1 2,3 2,5 0,3 0,5 0,7 -1,2 -2,4 -4,6 -1,1 -3,3 -6,4 -2,1 -5,2 -8,2 -2,0 -3,0 -5,0z"/>
   <path class="fil7" d="M3239 544c-1,0 -3,-1 -4,-1 -2,0 -4,-1 -7,-2l2 -6c2,1 4,2 6,3 1,0 3,1 4,1 1,0 1,0 2,0 1,0 2,0 3,-1 1,0 2,0 4,-1 1,-1 2,-2 3,-3l2 -3 0 -3 0 -3c-1,-1 -2,-3 -3,-3 -2,-1 -3,-1 -5,-2 -1,0 -2,0 -3,0 -1,0 -2,0 -2,0 -2,1 -4,1 -6,1 -2,0 -4,0 -5,0 0,0 -1,0 -1,0 -2,0 -4,0 -6,-1 -2,0 -3,-1 -5,-2 -2,-1 -3,-3 -4,-5 -1,-2 -2,-4 -2,-6 0,-2 1,-4 1,-6 1,-2 2,-4 4,-6 2,-1 4,-3 6,-4 1,-1 3,-2 5,-2 1,-1 3,-1 4,-1 1,0 1,0 1,0 2,0 3,0 5,0 2,1 4,1 6,3l-2 5c-3,-2 -6,-3 -9,-4 -1,0 -1,0 -1,0 -3,0 -5,1 -7,2 -2,1 -3,2 -4,3l-2 3 -1 3 1 2c1,2 2,3 3,4 2,0 3,0 5,1 1,0 1,0 2,0 1,0 2,0 4,0 2,-1 4,-1 6,-1 2,0 4,0 6,0 1,0 1,0 1,0 2,0 4,0 5,0 2,0 4,1 6,2 1,1 3,3 4,5 1,2 2,4 2,6 0,2 0,4 -1,6 -1,3 -2,5 -4,7 -2,2 -4,4 -7,5 -2,1 -3,2 -5,2 -2,1 -3,1 -5,1 -1,0 -1,1 -2,1z"/>
   <path class="fil7" d="M3594 467c0,0 0,0 0,0 -11,0 -19,-5 -25,-13 -9,-11 -5,-24 8,-26 6,-1 12,-3 18,-5 -1,-6 -3,-11 -5,-17 -13,3 -26,7 -40,11 0,-2 -1,-4 -1,-6 18,-5 37,-10 56,-16 1,2 1,4 2,6 -3,1 -6,2 -10,3 1,2 1,4 2,6 3,12 7,25 10,38 3,10 -4,19 -15,19zm3 -39c-7,2 -14,4 -20,6 -6,2 -9,7 -5,13 5,9 13,13 24,14 0,0 0,0 0,0 5,0 8,-5 7,-9 -2,-8 -4,-15 -6,-24z"/>
   <path class="fil5" d="M3921 513c0,0 0,0 0,0 -11,-1 -19,-6 -25,-14 -9,-11 -5,-23 8,-26 6,0 12,-3 18,-4 -1,-6 -3,-12 -5,-18 -13,4 -26,8 -40,11 0,-2 -1,-4 -1,-6 18,-5 37,-10 56,-15 1,2 1,3 2,5 -3,1 -6,2 -10,4 1,1 1,3 2,5 3,13 7,26 10,39 3,10 -4,19 -15,19zm3 -39c-7,2 -14,4 -20,5 -6,2 -9,8 -5,14 5,8 13,13 24,13 0,0 0,0 0,0 5,0 8,-4 7,-9 -1,-7 -4,-15 -6,-23z"/>
   <path class="fil6" d="M2888 654c-5,0 -9,-2 -14,-5 -7,-6 -6,-15 2,-18 4,-2 7,-4 11,-6 -2,-4 -4,-7 -6,-10 -8,4 -16,8 -24,13 -1,-2 -1,-3 -2,-4 11,-6 22,-12 34,-18 0,1 1,2 2,3 -2,1 -4,2 -6,4l2 3c4,8 8,15 12,23 4,6 0,13 -7,14 -1,1 -3,1 -4,1zm1 -26c-5,2 -9,4 -12,7 -4,2 -5,6 -2,9 4,4 8,6 13,6 2,0 3,-1 5,-1 3,-1 5,-4 3,-7 -2,-4 -5,-9 -7,-14z"/>
   <path class="fil7" d="M3589 786c-1,0 -3,0 -4,0 0,-4 0,-7 0,-11 9,-1 14,-5 15,-11 1,-8 -2,-12 -10,-15 -2,4 -4,9 -7,13 -1,2 -2,3 -4,3 -1,0 -2,-1 -3,-3 -3,-4 -5,-9 -8,-13 -7,2 -10,7 -9,14 0,7 6,11 14,12 0,3 0,7 0,11 -1,0 -2,0 -4,0 -8,0 -16,-6 -20,-15 -5,-12 -1,-23 13,-33 -3,-9 -3,-9 -12,-9 -4,0 -7,0 -11,0 0,-4 0,-8 0,-12 25,0 51,0 77,0 0,4 0,7 0,11 -5,1 -10,0 -15,2 -2,0 -3,5 -5,7 14,8 19,21 14,35 -3,8 -12,14 -21,14zm-18 -57c3,5 6,10 8,16 3,-5 6,-11 9,-16 -6,0 -11,0 -17,0z"/>
   <path class="fil6" d="M2622 629c-5,0 -10,-2 -14,-5 -7,-6 -6,-14 2,-18 4,-1 7,-4 11,-6 -2,-3 -4,-6 -6,-10 -8,4 -16,9 -24,13 -1,-1 -2,-2 -2,-3 11,-7 22,-13 34,-19 0,1 1,2 2,3 -2,2 -4,3 -6,4l2 3c4,8 8,16 12,23 4,7 0,13 -7,15 -1,0 -3,0 -4,0zm1 -25c-5,2 -9,4 -12,6 -4,2 -5,6 -2,9 4,4 8,6 13,6 2,0 3,0 4,-1 4,0 6,-4 4,-7 -2,-4 -5,-8 -7,-13z"/>
   <path class="fil6" d="M2735 631c-2,0 -4,-1 -6,-1 -2,-1 -4,-2 -6,-3 -2,-2 -3,-3 -4,-5 -1,-2 -2,-5 -2,-7 0,-2 0,-4 1,-5 1,-2 2,-3 4,-5l-3 -2 -3 -2c0,-1 -1,-2 -1,-3 -1,-1 -1,-3 -1,-4 0,-2 0,-3 1,-5 1,-1 2,-2 3,-3 2,-2 3,-2 5,-3 2,-1 4,-2 7,-2l1 6c-1,0 -2,1 -3,1 -2,0 -3,1 -4,1l-3 2c0,1 -1,2 -1,3 0,2 1,3 1,4l2 1 3 1 3 1 6 0 0 6 -5 0 -2 1 -2 1 -2 2 -1 3c0,2 1,4 2,5 0,1 1,2 2,3 2,1 3,2 4,2 2,0 3,1 4,1 3,0 5,-1 7,-2 2,-1 4,-2 5,-4 1,-1 2,-3 2,-5 1,-1 1,-3 1,-5 0,-1 0,-3 -1,-4 0,-2 -1,-4 -2,-5 0,-2 -1,-3 -2,-5 0,-1 -1,-3 -2,-4 -1,-2 -1,-3 -1,-5 -1,-1 -1,-3 -1,-5 0,-2 0,-3 1,-5 0,-1 1,-3 2,-4 1,-1 2,-2 4,-2 1,-1 2,-1 4,-1 1,0 2,0 4,1 1,0 2,1 3,2l2 3c1,1 1,2 1,3l0 2 -1 2 -1 1 -1 2 -5 -3 1 -2 1 -1 -1 -2 0 -1 -1 0 -2 -1 -2 1 -1 1 -1 2 -1 2c0,2 0,3 1,5 0,1 1,3 1,4 1,2 2,3 3,5 0,1 1,3 2,5 0,1 1,3 1,4 1,2 1,4 1,6 0,3 0,5 -1,8 -1,3 -3,5 -4,7 -2,2 -4,3 -7,4 -2,1 -5,2 -9,2z"/>
   <path class="fil7" d="M3421 813c-5,0 -9,-1 -12,-2 -4,-1 -7,-3 -10,-6 -2,-2 -4,-5 -6,-9 -1,-3 -2,-6 -2,-10 0,-3 1,-5 1,-7 1,-2 2,-4 3,-5 2,-2 3,-3 5,-4 2,-1 4,-2 6,-2l3 1 3 2c1,1 2,2 2,3 1,1 1,2 1,4 0,1 0,2 -1,4l-2 2 -3 2 -3 1 -3 -1 -3 -2 -2 -2c0,-1 0,-2 0,-3l0 -1 0 -1 0 -1 0 -1 -1 2 -1 3 -1 3 0 3c0,3 0,5 2,8 1,2 3,4 5,6 3,2 5,3 9,4 3,1 6,1 10,1 4,0 7,0 10,-1 3,-1 6,-3 8,-5 2,-2 4,-4 5,-6 1,-2 1,-5 1,-7 0,-2 0,-4 0,-5 -1,-1 -2,-3 -3,-4 0,-1 -2,-1 -3,-2 -1,0 -3,-1 -4,-1 -2,0 -3,1 -4,1l-2 1 -1 2 0 2c0,1 0,2 0,3l3 3c1,1 2,2 3,3 1,1 3,2 4,2l1 2 -1 1 -2 1 -29 0 -1 -1 -1 -1 1 -1 1 -1 25 0c-1,0 -2,-1 -3,-2 -1,-1 -2,-2 -3,-3 -1,-1 -2,-2 -3,-3 0,-2 -1,-3 -1,-5 0,-1 1,-2 1,-4 1,-1 1,-2 2,-3 1,-1 3,-1 4,-2 1,0 3,-1 5,-1 2,0 4,1 6,2 2,1 3,2 5,4 1,1 2,3 3,5 0,2 1,5 1,7 0,2 0,5 -1,7 -1,2 -1,4 -3,6 -1,2 -2,4 -4,6 -1,1 -3,3 -5,4 -2,1 -4,2 -7,3 -2,1 -5,1 -8,1zm-15 -40l-2 0 -1 1 -1 2 -1 2 1 2 1 1 1 2 2 0 2 0 2 -1 1 -2 0 -2c0,-1 0,-3 -1,-4 -1,-1 -2,-1 -4,-1z"/>
   <path class="fil5" d="M4276 471c-3,0 -5,0 -7,-1 -2,0 -4,-1 -6,-3 -1,-1 -3,-3 -4,-5 -1,-2 -2,-4 -2,-7 0,-2 1,-3 1,-5 1,-1 2,-3 4,-4l-3 -2 -2 -2c-1,-1 -2,-2 -2,-4 -1,-1 -1,-2 -1,-4 0,-1 1,-3 1,-4 1,-2 2,-3 4,-4 1,-1 3,-2 5,-3 2,0 4,-1 6,-1l1 6c-1,0 -2,0 -3,0 -1,1 -3,1 -4,2l-2 2c-1,1 -2,2 -2,3 0,1 1,2 1,3l2 2 3 1 3 0 6 0 0 7 -5 0 -2 0 -2 2 -2 2 0 3c0,2 0,3 1,5 1,1 1,2 3,3 1,0 2,1 4,1 1,1 2,1 3,1 3,0 5,0 7,-1 2,-1 4,-3 5,-4 1,-2 2,-3 2,-5 1,-2 1,-3 1,-5 0,-2 0,-3 -1,-5 0,-2 -1,-3 -1,-5 -1,-1 -2,-3 -2,-4 -1,-2 -2,-3 -3,-5 0,-1 -1,-3 -1,-4 -1,-2 -1,-3 -1,-5 0,-2 0,-4 1,-5 1,-2 1,-3 2,-4 1,-1 3,-2 4,-2 1,-1 3,-1 4,-1 1,0 3,0 4,0 1,1 2,2 3,2l2 3c1,1 1,2 1,4l0 2 -1 1 -1 2 -1 2 -5 -4 1 -2 1 -1 0 -1 -1 -1 -1 -1 -2 0 -1 0 -2 1 -1 2 -1 3c0,1 1,3 1,4 0,2 1,3 2,5 0,1 1,3 2,4 1,2 1,4 2,5 1,2 1,3 2,5 0,2 0,3 0,5 0,3 0,6 -1,8 -1,3 -2,5 -4,7 -2,2 -4,4 -7,5 -2,1 -5,1 -8,1z"/>
  </g>
  <g id="_662970264">
   <path class="fil8" d="M1436 810c-1,-3 -2,-7 -4,-8 -2,-2 -6,0 -6,3 0,3 0,6 5,7 2,1 3,0 5,-2zm-715 30c8,-1 16,-1 24,-8 -9,2 -17,3 -24,8zm619 152c-5,-2 -11,-3 -17,-1 6,6 12,4 17,1zm-846 -10c-3,0 -5,0 -7,0 -2,0 -6,-1 -5,0 1,4 -1,6 -1,8 2,0 5,0 7,-1 2,-2 6,-2 6,-7zm645 -213c8,-1 15,-2 24,-3 -10,-8 -17,-2 -24,3zm-230 144c4,1 7,7 10,3 3,-4 -1,-9 0,-14 -7,2 -4,9 -10,11zm21 0c9,-3 15,-5 21,-6 1,-1 3,-1 3,-3 0,-2 -2,-3 -4,-3 -7,1 -13,5 -20,12zm-41 -2c-3,7 -10,10 -8,16 1,1 7,0 10,-2 5,-5 -2,-8 -2,-14zm92 -170c9,3 21,1 27,-4 -10,-2 -18,1 -27,4zm-158 70c-12,-1 -22,4 -32,9 11,-2 22,-2 32,-9zm676 9c-1,9 1,11 2,10 6,-7 11,-3 16,0 2,1 5,2 6,-2 1,-2 -2,-3 -4,-4 -7,-1 -13,-3 -20,-4zm-924 116c-1,-4 -5,-4 -6,-4 -6,8 -15,10 -24,13 -1,1 -1,3 0,4 0,2 1,2 2,1 10,-5 19,-10 28,-14zm861 -112c-16,-5 -35,2 -49,-13 -1,-1 -4,-1 -6,-1 -2,1 -2,5 -1,5 9,-1 13,9 20,10 12,1 25,3 36,-1zm-536 26c-14,2 -29,1 -41,12 5,3 9,1 12,-2 3,-3 9,-3 10,-2 11,7 16,2 19,-8zm-254 42c-22,8 -43,18 -63,29 -3,2 -5,4 -3,6 1,3 4,0 6,-1 5,-3 9,-9 15,-10 17,-5 30,-17 45,-24zm589 -108c15,10 30,5 48,1 -18,-8 -33,-3 -48,-1zm17 50c12,5 23,0 35,-1 -4,-4 -21,-2 -6,-14 2,-1 2,-6 -1,-7 -3,-2 -7,-3 -11,-3 -2,0 -1,4 -1,6 4,12 4,12 -8,15 -3,0 -6,1 -8,4zm235 -25l0 1c12,3 24,6 36,8 3,1 6,0 7,4 3,5 7,5 11,3 5,-2 10,-4 16,-6 -3,-1 -5,-2 -7,-3 -12,-3 -25,-1 -34,-12 -1,-2 -2,-2 -4,1 -5,6 -11,9 -19,4 -1,-1 -4,0 -6,0zm-638 56c-6,-2 -12,-4 -19,3 -2,2 -7,3 -10,2 -8,-2 -15,3 -21,7 -5,3 -13,5 -16,13 25,-4 49,-7 66,-25zm861 21c-10,-16 -40,-27 -59,-22 -3,1 -6,3 -8,-1 -4,-7 -12,-7 -19,-12 8,20 23,20 38,23 2,-2 -3,-5 1,-7 3,0 6,2 6,3 -1,7 5,6 7,6 12,-4 19,4 28,9 2,1 4,2 6,1zm-1012 41c4,-6 8,-8 13,-9 19,-3 37,-12 55,-18 2,-1 3,-2 5,-3 4,-1 4,-4 3,-8 0,-4 -3,-2 -6,-2 -7,1 -12,6 -18,7 -13,4 -27,7 -41,6 -4,0 -6,0 -7,2 -8,12 -25,2 -32,15l-3 -1c-5,-2 -9,2 -13,3 -14,5 -24,16 -38,17 -11,1 -19,7 -25,16 4,-5 11,-3 16,-4 5,-1 11,-2 16,-3 9,-2 18,-2 25,-7 1,-1 5,-1 3,-4 -4,-7 2,-5 5,-5 5,1 6,0 6,0 -6,-9 3,-5 4,-5 7,-5 17,-1 24,-6 7,-4 8,0 8,9zm-104 252c3,-9 7,-16 17,-16 6,-1 7,-5 5,-10 -3,-12 7,-33 20,-36 20,-7 -60,74 -42,62 9,-6 11,-15 13,-24 2,-8 18,-19 26,-16 9,3 18,2 27,4 3,1 7,-2 7,-6 -1,-3 -4,-2 -7,-2 -6,0 -15,2 -16,-6 -1,-7 9,-6 14,-7 14,-3 29,-4 40,-13 2,-2 7,-2 4,-7 -3,-3 -6,-2 -9,0 -6,7 -15,7 -24,9 -6,1 -5,-2 -3,-5 7,-15 20,-22 36,-25 7,-1 13,-2 17,-8l3 -2c4,-4 9,-1 12,1 2,4 -2,6 -5,8 -6,4 -13,6 -14,15 5,2 10,1 15,1 8,-1 15,-2 19,6 1,3 6,3 8,2 11,-5 22,-9 28,-20 2,-5 5,-7 11,-8 9,-1 15,-10 25,-8 2,0 5,-1 8,0 5,2 9,2 12,-4 2,-4 5,-7 11,-8 5,-1 10,-5 8,-10 -1,-5 -7,-7 -13,-5 -5,2 -10,4 -13,8 -6,6 -13,8 -21,9 -22,3 -44,7 -68,11 6,-10 14,-12 22,-14 8,-2 12,-3 9,-13 -3,-10 -72,13 -62,11 6,-1 80,-36 80,-39 0,-4 -4,-2 -7,-2 -5,-1 -9,1 -12,5 -3,4 -7,4 -11,3 -1,-1 -3,-4 -3,-6 0,-4 -70,25 -67,24 12,-5 99,-37 110,-47 -16,2 -30,4 -43,10 -11,4 -22,7 -32,12 -29,14 -131,46 -160,58 -4,1 -9,6 -12,1 -2,-4 5,-6 9,-7 21,-12 114,-43 137,-50 5,-2 7,-6 11,-8 33,-12 65,-29 99,-39 6,-2 11,-8 17,-13 -5,-3 -13,5 -14,-3 -1,-8 10,-3 14,-8 -11,-4 -18,0 -20,10 -1,3 -3,4 -7,4 -7,-1 -13,1 -20,6 -7,6 -17,6 -26,6 -8,0 -14,3 -18,11 -4,8 -10,13 -20,12 -2,-1 -5,-1 -5,3 0,2 -2,3 -4,4 -22,5 -110,44 -133,48 -10,2 -19,11 -30,10 -6,0 -14,0 -16,-8 -2,-8 2,-13 9,-18 6,-3 82,-27 86,-32 6,-8 13,-9 22,-6 14,3 28,4 42,-3 2,-1 8,-1 3,-7 -1,-1 -6,-2 -3,-5 3,-2 8,-6 11,-3 11,13 19,3 26,-4 11,-11 24,-16 40,-14 4,1 6,-4 9,-7 -6,-1 -11,-1 -15,-2 -3,0 -6,0 -6,-3 -1,-3 1,-6 5,-6 9,-1 16,-6 23,-13 6,-5 15,-6 24,-6 3,1 6,1 8,-2 6,-7 14,-7 20,-2 6,3 10,2 12,-3 3,-6 8,-8 12,-8 15,-1 25,-13 40,-14 3,0 4,-5 3,-7 -1,-3 -4,-6 -8,-5 -13,2 -24,6 -34,14 -9,7 -21,9 -32,3 -4,-2 -8,-2 -9,1 -3,8 -10,8 -15,10 -8,2 -15,4 -21,10 -5,7 -15,4 -22,8 -13,8 -28,8 -41,14 -2,1 -3,1 -4,0 -5,-5 -18,-9 -27,-8 -1,-3 5,-2 3,-5 -1,-1 -3,-1 -5,0 -5,2 -10,4 -15,6 -3,2 -6,4 -11,7 15,3 21,6 33,13 -16,17 -90,44 -115,41 10,-8 51,-33 61,-40 1,-1 4,-1 3,-3 -1,-5 -3,0 -5,0 -9,1 -15,9 -25,10l1 0c-3,-2 -1,-6 -2,-10 -7,11 -18,7 -25,6 -9,-2 -13,4 -20,6l0 1c-5,2 -10,6 -15,8 -9,4 -16,9 -23,16 -3,4 -12,5 -19,8 3,-8 6,-12 10,-17 -22,6 -40,19 -61,27 -20,9 -19,-4 -39,4 -17,7 18,-4 0,0 9,-16 12,-21 31,-28 5,-2 -59,46 -54,42 1,-1 6,-3 4,3 0,2 3,1 3,0 1,-1 5,-1 4,-3 -6,-5 0,-5 2,-7 14,-15 33,-22 51,-29 3,-2 7,-2 7,-8 -1,-7 8,-3 9,-9 -5,-4 -22,-3 -31,4 -12,9 -26,14 -38,22 -17,10 36,-27 19,-17 -7,4 -15,7 -21,12 -1,-4 9,-10 -3,-10 -3,0 -5,4 -9,3l0 -2c14,-7 24,-20 37,-26 11,-5 -52,29 -38,28 2,0 -2,-7 3,-9 -3,-2 -4,1 -6,2 -1,0 -3,3 -5,1 7,-1 -4,-6 2,-8 6,-3 11,-8 16,-14 1,-2 4,-6 9,-4 3,1 6,-3 9,-5 3,-2 5,-6 11,-5 -7,5 -10,11 -9,20 10,-6 19,-11 28,-18 3,-2 7,-2 10,-4 2,-2 3,-2 3,3 0,3 4,1 6,0 7,-4 14,-8 21,-11 -8,5 -15,9 -23,14 1,1 1,2 2,3 68,-33 138,-66 209,-96 -18,-3 -30,6 -43,13 -7,3 -12,5 -20,2 -4,-3 -11,-1 -17,-1 -4,0 -8,-1 -10,-5 -1,-6 4,-7 7,-9 11,-10 26,-9 38,-15 5,-2 12,-2 16,-7 2,-2 6,-4 10,-4 12,-2 23,-6 35,-10 11,-4 23,-4 34,-10 23,-13 49,-18 74,-26 31,-11 63,-18 95,-23 4,-1 8,-4 12,-5 -8,-1 -17,2 -25,3 -6,1 -13,3 -20,4 -1,0 -4,2 -5,-1 0,-3 1,-6 4,-6 6,-2 13,-2 19,-4 24,-9 49,-12 73,-19 3,0 6,0 10,2 -11,7 -24,4 -38,11 32,0 59,-14 88,-16 29,-2 58,-1 86,-9 2,5 -6,4 -3,10 -1,-2 0,-1 0,-1 8,-1 16,4 23,-4l3 -1c13,7 24,-4 36,-2 19,3 38,-5 56,-1 6,1 12,1 16,-2 9,-7 19,-5 29,-4 12,1 24,2 37,0 2,-1 4,-2 7,-1 26,5 52,-1 78,2 26,2 51,0 77,3 9,0 15,7 22,10 3,-4 -1,-6 0,-9 4,0 7,1 6,6 0,3 0,5 2,5 3,1 4,0 5,-3 2,-5 6,-3 9,-1 6,5 12,8 15,-2 1,-2 3,-3 6,-2 5,1 11,1 16,2 25,7 49,13 74,21 12,4 26,7 41,8 8,0 12,9 18,15 -9,-4 -18,-4 -27,-3 -1,0 -2,0 -3,-1 -6,-12 -13,-6 -21,-2 -7,2 -15,1 -23,-3 -7,-4 -15,-9 -24,-5 -2,1 -4,-2 -6,-3 -3,0 -7,-5 -10,1 -1,1 -3,2 -5,1 -15,-9 -32,-2 -48,-8 -17,-6 -36,-2 -54,-7 -1,-1 -3,-1 -3,0 -4,9 -10,5 -16,4 -6,-1 -13,-1 -20,-1 -5,-1 -11,0 -16,-4 -1,-1 -4,-1 -6,0 -15,6 -32,2 -48,4 -14,1 -29,-3 -44,-4 -3,-1 -5,-1 -8,0 -7,3 -13,4 -20,1 -11,-3 -21,4 -32,3 -3,-1 -1,3 -2,4 0,4 2,3 4,3 4,1 9,0 10,7 1,5 7,5 10,4 14,-4 28,-2 41,-3 21,-2 42,-5 63,-3 28,2 55,0 83,3 30,5 62,4 92,11 11,3 23,1 34,4 8,3 16,6 25,6 5,1 9,-4 13,-3 19,6 41,6 57,20 2,2 6,2 4,6 -2,3 -4,-1 -6,-1 -2,-1 -4,-2 -6,-2 -16,7 -28,-6 -42,-7 -16,-2 -31,-9 -47,-7 -2,0 -2,0 -1,2l1 2c-2,1 -5,3 -6,3 -6,-2 -11,-4 -15,-6 -6,-4 -11,-4 -18,-2 -10,2 -21,0 -32,-1 -13,-2 -29,3 -41,-7 -10,4 -20,-5 -30,0 -9,4 -14,1 -17,-6 -3,-5 -5,-5 -9,-2 -8,4 -16,9 -25,8 -9,0 -18,-7 -27,3 -3,4 -9,-2 -15,-1 10,9 22,8 33,10 4,1 7,0 10,2 1,1 9,9 7,-3 0,-2 6,-1 9,0 12,4 23,5 35,1 9,-4 19,-1 29,-2 12,-1 25,-3 35,7 2,2 4,1 5,0 4,-7 11,-5 17,-4 9,2 19,0 26,8 2,2 7,2 10,2 18,-2 34,7 51,5l2 1c6,13 16,12 27,9 5,-1 8,-1 12,3 5,4 10,6 17,6 4,0 33,8 39,10 -5,2 -36,-1 -39,-3 -12,-9 -26,-6 -39,-4 -7,1 -14,1 -20,-5 -7,-6 -17,-3 -26,-1 -4,0 -9,0 -15,4 11,2 21,6 31,5 5,-1 10,-2 13,2 1,4 -2,8 -5,10 -5,3 -8,-1 -11,-4 -2,-1 -4,-4 -8,-2 -2,1 -5,-5 -6,1 -1,4 3,7 5,6 7,-2 12,3 17,4 7,2 11,2 13,-6 2,-6 7,-7 12,-6 8,2 15,4 23,5 33,5 65,15 96,26 33,11 -8,-14 24,2 5,2 9,4 3,10 -7,7 -5,12 4,17 2,1 4,3 5,4 5,-2 -2,-8 4,-9 4,0 38,-1 41,2 4,3 -14,17 -7,20 4,2 -9,11 -8,19 0,1 -2,1 -4,0 -10,-10 -23,-13 -34,-21 -10,-9 -22,-15 -35,-18 -3,0 -3,-6 -5,-6 -4,-1 65,34 63,39 0,2 -2,4 -2,4 -6,-7 -11,1 -17,-1 -7,-1 -4,-5 -2,-9 6,-12 6,-15 -7,-22 -2,-2 -3,-4 -2,-6 5,-7 0,-8 -5,-9 -2,0 -4,-2 -7,-3 -2,0 0,-6 -5,-4 -4,1 -4,5 -5,8 -1,1 -1,3 1,5 2,2 3,0 5,-1 6,-5 11,0 11,4 0,7 4,11 7,16 2,3 4,6 3,9 -3,4 -7,0 -9,0 -9,-2 -14,-9 -22,-11 -5,-1 -10,-5 -14,2 -3,4 -7,2 -10,0 -3,-3 -5,-1 -6,0 -4,1 -1,4 0,5 1,7 8,10 11,10 13,-2 20,8 30,12 6,2 10,8 17,0 3,-3 11,-3 13,2 3,10 -62,-26 -54,-24 30,8 59,18 89,27 1,0 3,1 3,5 -12,-7 -24,-2 -36,-5 -45,-14 -16,8 -62,0 -33,-7 -66,-12 -100,-16 -44,-5 -88,-7 -132,-9 -9,0 -18,0 -27,1 10,13 25,5 38,8 8,1 19,-1 28,0 6,1 12,4 18,3 6,0 -3,6 2,7 4,1 10,0 10,4 -1,6 -7,3 -11,3l-2 2c-2,4 -7,7 -13,5 -6,-2 -13,-3 -17,4 -2,3 -4,1 -6,1 -4,0 -9,2 -13,4 -3,-7 -9,-1 -13,-4 -2,-1 -5,0 -6,1 -3,11 -12,7 -19,7 -15,3 -30,5 -45,5 10,1 19,6 29,1 1,-1 3,-1 4,1 1,2 -2,3 -2,4 20,0 41,-4 61,1 1,0 2,0 2,1 7,8 7,8 21,10 -5,-6 -11,-3 -16,-6 11,-3 21,-2 32,1 4,1 3,4 0,6 -4,3 -8,5 -13,5 -10,-1 -19,9 -29,2 -1,-2 5,-2 2,-4 -2,-2 -6,-3 -8,-2 -13,6 -27,0 -40,2 -11,2 -22,2 -33,0 -6,-1 -4,5 -4,8 -9,-4 -9,-4 -12,3 -1,3 -3,3 -5,2 -10,-6 -21,-3 -31,0 -3,1 -6,1 -8,-2 1,-4 6,-2 8,-6 -7,-1 -13,2 -20,-1l-3 1c-4,9 -5,11 -12,12 -11,1 -23,3 -35,3 -13,1 -27,3 -41,6 -13,4 -26,3 -39,6 -16,4 -32,5 -47,9 -16,4 -32,7 -49,9 -4,0 -9,2 -13,3 -22,5 -45,9 -67,16 -15,4 -30,8 -45,13 -12,4 -25,8 -38,12 -18,6 -37,12 -56,17 -21,6 -41,14 -61,23 -37,16 -9,-14 -45,4l-51 4 -30 10c-52,22 8,-13 -42,13 -18,9 -38,14 -57,21 -5,2 -10,4 -14,7 -3,1 -7,1 -11,2z"/>
   <polygon class="fil9" points="805,1272 806,1270 805,1271 "/>
   <path class="fil10" d="M1958 879l-4 12c16,-31 25,-65 30,-100 5,-35 5,-70 4,-102 1,-5 2,-13 2,-17 -2,-33 -16,-72 -32,-101 -4,-7 -10,-12 -16,-14 -6,-3 -10,-4 -10,-4 -4,-2 -11,-3 -11,1 2,8 11,25 6,27 -2,1 -3,-3 -5,-6 -5,2 -19,-3 -21,-6 -3,-2 -21,-17 -25,-18 -2,-2 -4,-1 -5,2 -1,3 -2,7 -3,12 -1,9 -1,22 0,28 1,7 -6,3 -9,5 4,5 1,10 5,15 -1,1 5,19 8,28 0,0 3,2 6,11 1,3 2,3 3,3 -1,0 -1,0 -2,0 3,3 3,10 5,12 -2,1 -2,1 -3,1 4,5 3,12 6,18 -1,0 -1,0 -3,1 1,3 2,6 0,6l-2 0c-1,4 3,9 0,10 2,0 2,0 3,-1 2,13 2,22 1,31 -4,24 -2,53 -6,80 0,3 2,6 5,4 -1,3 -1,6 -2,9 -2,6 3,4 1,10 -4,24 -15,47 -29,68 -13,21 -30,40 -47,60 10,-9 19,-14 26,-25 1,1 3,3 5,0 7,-7 13,-16 18,-23 5,-8 10,-14 15,-17 3,-2 8,-3 12,-12l-4 9c1,0 3,2 3,2 4,-6 8,-12 12,-19 2,-3 3,-7 5,-10 2,-3 3,-6 5,-9 0,0 2,1 4,1l2 -6c6,-2 5,6 2,17 -4,10 -9,23 -13,31 1,0 3,2 4,2l4 -6 2 1c-5,10 -9,18 -15,27 -5,8 -11,16 -17,25 2,-3 6,-9 8,-12 1,1 2,2 5,-1 -5,6 -10,12 -15,19 -5,6 -10,13 -13,19 -2,4 4,4 12,-4 7,-9 11,-15 18,-24l2 2c-4,6 -12,14 -16,21 -1,3 8,-4 7,0 -3,3 -5,6 -7,10 4,-5 8,-10 12,-15 4,-6 8,-11 12,-15 3,-3 6,-5 8,-4 5,-8 10,-15 15,-21 5,-6 11,-11 17,-15 4,-2 11,-21 15,-33z"/>
   <path class="fil10" d="M2061 781c-4,0 -8,0 -12,0 17,3 36,1 52,-7 16,-7 30,-21 39,-37 9,-15 13,-34 12,-52 -1,-19 -7,-37 -17,-52 -1,-5 -6,-13 -9,-18 -14,-14 -34,-24 -57,-26 -22,-3 -44,4 -61,14 -8,6 -12,14 -14,20 -1,7 -1,12 -1,12 -1,5 1,11 6,10 2,-3 7,-7 12,-10 4,-2 9,-3 10,-1 1,1 -2,3 -4,5 1,2 1,6 2,10 0,5 0,8 -1,9 0,2 0,7 0,12 0,4 1,9 2,10 0,4 8,2 14,2 7,0 13,2 15,3 3,1 4,5 7,8 0,-1 2,2 1,1l1 1 0 0 0 0c0,-1 1,-2 1,-3 0,1 0,1 -1,3 1,-3 0,0 1,-1 -1,1 -1,1 -1,2 1,-2 0,0 1,-1l-1 0 1 0 -1 0 0 0 1 0c0,0 0,0 -1,0l0 0 1 0 -1 0 0 0 0 0 0 0c1,1 1,2 1,2 0,4 -4,3 -4,1l-1 -2c0,-1 0,-1 -1,-3 -2,1 -5,2 -3,3 -1,0 -4,1 -4,1 0,2 1,4 2,6 0,1 1,2 0,5 0,2 -2,6 1,7 -1,0 -1,-1 -2,-2 -1,2 -2,4 -2,4 3,4 9,7 14,8 0,0 0,2 0,4 1,0 3,0 4,-1 2,5 -2,8 -8,8 -6,1 -13,-2 -18,-4 -1,1 -2,4 -3,5 2,1 3,1 4,2l-1 2c-12,-6 -21,-15 -26,-28 1,2 3,6 4,8 -1,1 -2,2 -1,4 -6,-9 -8,-20 -10,-30 -1,-3 -6,-1 -6,8 1,8 3,14 7,21l-3 2c-3,-6 -4,-14 -7,-20 -1,-3 -2,7 -4,4 -1,-3 -1,-6 -3,-9 1,10 6,22 10,31 1,3 2,7 -1,8 12,13 21,23 30,34 1,2 7,5 13,6 7,1 15,2 21,1z"/>
   <path class="fil11" d="M367 1064l1 3 1 1 0 1 1 1c1,3 3,5 4,8 4,5 8,10 13,16 11,12 24,25 38,36 14,11 28,21 40,27 11,7 10,8 7,8 -2,1 -5,0 -7,0 -2,0 -4,1 -5,2 12,4 21,9 30,13 2,1 4,2 7,3 2,2 4,3 7,4 2,1 5,2 8,3 1,0 2,1 4,1 1,0 3,1 4,1 0,1 5,3 12,5 4,2 8,3 13,5 5,2 11,4 16,5 23,8 52,14 70,18 0,0 4,0 12,1 4,1 9,2 15,3 7,1 15,2 24,3 13,2 13,1 13,-1 0,2 0,2 0,3 6,-1 16,1 25,2 9,1 19,2 25,2 0,1 0,1 0,3 6,0 13,0 19,0 3,0 6,0 9,1l8 0c3,0 5,1 7,1l0 0c2,-1 3,-1 5,-1l0 -1 1 0 -1 0c68,-17 141,-47 200,-99l-42 -2 -23 0 -11 0c-4,-1 -8,-1 -12,-1 -12,0 -25,0 -37,0 -7,0 -13,0 -20,0l-2 0 -2 0 -4 0c-3,0 -6,0 -9,-1 -11,0 -22,-1 -34,-1 -3,0 -6,0 -8,0l-3 -1 -1 0 -2 0c-3,0 -6,0 -9,-1 -7,0 -13,-1 -19,-1 -7,-1 -13,-2 -20,-2 -6,-1 -12,-2 -19,-3 -6,0 -12,-1 -19,-2 -51,-7 -101,-18 -143,-31 -21,-7 -40,-11 -54,-14 -7,-1 -13,-2 -17,-2 -4,-1 -6,-1 -6,-1 -11,-3 -24,-4 -15,4 2,1 5,3 8,5 3,2 7,4 11,6 4,2 8,4 12,6 4,2 8,4 11,6 4,2 8,4 11,6 4,1 7,3 10,4 5,3 8,5 7,7 0,0 -3,-1 -7,-2 -4,-1 -9,-4 -15,-6 0,1 -3,2 -7,2 -4,1 -9,0 -14,0 -6,-1 -11,-2 -16,-3 -5,-2 -10,-3 -12,-5 -3,0 -10,-3 -18,-6 -8,-4 -18,-8 -27,-13 -10,-5 -19,-10 -26,-15 -4,-3 -7,-5 -10,-7 -3,-2 -5,-3 -6,-5 -3,-3 -5,-4 -6,-4 -2,0 -2,2 -1,5z"/>
   <path class="fil11" d="M367 1064l1 3 1 1 0 1 1 1c1,3 3,5 4,8 4,5 8,10 13,16 11,12 24,25 38,36 14,11 28,21 40,27 11,7 10,8 7,8 -2,0 -3,0 -5,0 0,0 -1,0 -2,0 -2,0 -4,1 -5,2 12,4 21,9 30,13 2,1 4,2 7,3 2,2 4,3 7,4 2,1 5,2 8,3 1,0 2,1 4,1 1,0 3,1 4,1 0,1 5,3 12,5 4,2 8,3 13,5 5,2 11,4 16,5 23,8 52,14 70,18 0,0 4,0 12,1 4,1 9,2 15,3 7,1 15,2 24,3 13,2 13,1 13,-1 0,2 0,2 0,3 6,-1 16,1 25,2 9,1 19,2 25,2 0,1 0,1 0,3 6,0 13,0 19,0 3,0 6,0 9,1l8 0c3,0 5,1 7,1l0 0c2,-1 3,-1 5,-1l0 -1 1 0 -1 0c68,-17 141,-47 200,-99l-42 -2 -23 0 -11 0c-4,-1 -8,-1 -12,-1 -12,0 -25,0 -37,0 -7,0 -13,0 -20,0l-2 0 -2 0 -4 0c-3,0 -6,0 -9,-1 -11,0 -22,-1 -34,-1 -3,0 -6,0 -8,0l-3 -1 -1 0 -2 0c-3,0 -6,0 -9,-1 -7,0 -13,-1 -19,-1 -7,-1 -13,-2 -20,-2 -6,-1 -12,-2 -19,-3 -6,0 -12,-1 -19,-2 -51,-7 -101,-18 -143,-31 -21,-7 -40,-11 -54,-14 -7,-1 -13,-2 -17,-2 -4,-1 -6,-1 -6,-1 -11,-3 -24,-4 -15,4 2,1 5,3 8,5 3,2 7,4 11,6 4,2 8,4 12,6 4,2 8,4 11,6 4,2 8,4 11,6 4,1 7,3 10,4 5,3 8,5 7,7 0,0 -3,-1 -7,-2 -4,-1 -9,-4 -15,-6 0,1 -3,2 -7,2 -4,1 -9,0 -14,0 -6,-1 -11,-2 -16,-3 -5,-2 -10,-3 -12,-5 -3,0 -10,-3 -18,-6 -8,-4 -18,-8 -27,-13 -10,-5 -19,-10 -26,-15 -4,-3 -7,-5 -10,-7 -3,-2 -5,-3 -6,-5 -3,-3 -5,-4 -6,-4 -2,0 -2,2 -1,5l0 0z"/>
   <path class="fil12" d="M419 1410c-2,0 -3,0 -3,0 1,0 2,0 3,0l0 0z"/>
   <path class="fil12" d="M1113 1177c1,-2 2,-4 3,-6 1,-1 2,-2 2,-3l1 -1 1 -1 0 0c6,0 12,-1 18,-1 -4,1 -11,3 -16,3l-1 1 0 0 -1 2 -2 2 -4 6c0,-1 -1,-3 -8,8 2,-4 4,-7 7,-10zm2 -22c5,0 10,0 16,0 -5,1 -11,3 -15,3l0 0 -1 -3 0 0zm180 42c-22,3 -45,6 -70,9 0,-1 0,-3 -13,-2 -14,1 -29,2 -44,3 -18,1 -19,1 -26,1 -1,2 -2,3 -4,5l-1 3 -1 0 0 0 0 1 -1 1c-1,1 -2,2 -3,3 -7,9 -14,17 -21,24 -3,3 -7,7 -10,10 -2,2 -3,3 -5,5 -2,1 -3,3 -5,4 -6,5 -12,10 -17,13 -3,2 -6,4 -9,6 -2,1 -3,2 -5,3 -2,1 -4,2 -6,3 -4,3 -9,6 -15,10 -1,1 -2,2 -4,3 -2,1 -3,2 -5,3 -4,2 -7,4 -11,7 5,-4 10,-7 16,-11 5,-3 10,-7 15,-11 -1,-1 -2,-3 -2,-3 -21,15 -45,30 -71,42 -26,13 -54,22 -78,29 0,0 -1,-3 -2,-4 -8,3 -16,5 -24,7 -7,-1 -3,-3 7,-7 2,-1 5,-2 8,-3 3,-1 7,-2 10,-4 2,0 4,-1 6,-2 2,0 4,-1 6,-2 4,-2 9,-3 13,-5 1,0 3,-1 4,-1 1,-1 2,-1 3,-2 2,-1 5,-2 7,-3 5,-2 10,-4 14,-6 5,-2 10,-5 15,-7 5,-2 9,-5 14,-7 5,-3 9,-5 13,-8 5,-3 9,-5 13,-8 4,-2 8,-5 11,-7 2,-2 4,-3 5,-4 2,-1 4,-2 5,-4 -1,-1 -2,-3 -3,-4 -2,2 -3,3 -5,4l-5 3 -10 7 -2 -2 9 -6 5 -3c1,-1 3,-2 5,-3l16 -12 16 -14 2 -2 2 -1 3 -4 8 -7 4 -4c1,-1 2,-2 3,-4l7 -7c3,-3 5,-5 8,-8l6 -8 7 -8c1,-1 2,-2 3,-4l3 -4 7 -9 3 -4 1 -2 1 -2 1 0 0 0c6,-1 13,-1 19,-1l9 -7c2,0 4,-1 7,-1 11,0 23,-1 34,-2 23,-2 46,-5 66,-9 6,-1 5,-3 -1,-3 -3,0 -8,0 -14,0 -6,0 -13,0 -22,1 -7,1 -14,1 -20,2 1,0 2,0 3,0 6,-2 0,-2 -6,-3 -6,0 -12,0 -7,-2 6,0 12,-1 18,-1 6,-1 12,-2 18,-4 -16,2 -34,4 -53,6 -4,0 -9,1 -13,1l-1 -1 -13 1c0,0 -1,0 -3,1 -12,0 -24,1 -35,1l-1 1 0 1 -2 1c-1,1 -1,3 -2,4 -2,2 -3,4 -5,6 -2,3 -5,7 -8,10 -1,1 -2,3 -3,4l-2 2 -1 1 0 0c-4,3 -6,5 -7,4 -2,3 -5,6 -7,8 -1,2 -2,3 -3,5 -1,1 -2,2 -3,3 -5,5 -9,10 -13,15 -5,4 -10,9 -14,13 -1,1 -2,2 -3,3 -2,1 -3,1 -4,2 -2,2 -4,4 -7,6 -2,1 -4,3 -6,5 -3,1 -5,3 -7,4 -5,3 -9,6 -13,8 -9,4 -17,9 -25,11 -1,1 -3,2 -6,3 -2,1 -5,3 -8,4 -6,4 -14,8 -23,12 -8,4 -17,8 -26,11 -3,2 -6,3 -9,4 -1,1 -2,2 -4,3 0,0 -109,87 -170,112 -4,1 -9,3 -14,5l1 0c1,0 3,0 4,0l2 1c2,0 4,0 7,0 7,0 15,0 23,-1 13,0 27,-3 13,-5 7,0 14,-1 20,-1 7,-1 14,-1 20,-2 14,-2 17,-3 20,-4 3,-2 6,-3 20,-5 31,-7 63,-16 93,-28 31,-12 60,-27 88,-45 27,-18 53,-39 76,-63l4 -4c1,-1 4,-4 5,-5l7 -9 9 -9c2,-3 5,-6 7,-9l8 -10 4 -5 0 -1c1,-1 3,-10 3,-10l4 8 5 -1c5,0 10,0 15,0 5,-1 10,-1 15,-1 20,-2 40,-4 60,-6 5,-1 10,-1 15,-2 5,-1 10,-1 15,-2l15 -3 15 -2c21,-4 41,-9 62,-16 -27,8 -49,11 -72,14z"/>
   <path class="fil13" d="M890 1311c12,-10 21,-20 28,-27 2,-2 4,-4 6,-7l6 -6 3 -3c1,-1 1,-2 2,-3l5 -6 3 -3 2 -4 5 -6c1,-2 2,-4 4,-6 1,-2 2,-4 4,-6l3 -7c1,-2 2,-4 3,-6 2,-4 4,-8 6,-12 4,-8 7,-16 11,-25 2,-5 4,-9 6,-14l0 -1 0 0 0 0 1 -1 0 -3 1 -4c2,-6 1,-12 3,-18 0,0 -70,65 -199,99l0 0 -1 0 0 1 0 0 -11 0c2,0 4,1 6,1 1,0 2,0 4,0l1 0 0 0 -1 0c2,0 4,0 3,2 -2,1 -2,1 -3,2l1 0c1,0 2,0 0,1 2,-1 2,-1 4,-2l1 0c1,0 2,0 2,0 -1,1 -2,2 -2,3 -2,1 -4,2 -6,3 -2,0 -3,0 -4,0l0 0 0 0 -1 0c-2,1 -4,2 -6,3 -4,2 -8,4 -11,6 -4,2 1,14 -3,16 -29,24 -56,37 -103,35l-15 11 0 3c-13,1 -39,4 -60,8 -31,6 -31,13 -33,12 -3,0 -8,0 -8,0l-8 6c-57,12 -126,-21 -126,-21 8,12 27,16 27,16 -9,3 12,8 12,8 37,9 41,15 37,14 -3,0 -3,6 -3,6l37 7 6 0c4,14 -29,10 -38,10 -10,0 -5,5 -5,5l5 5c0,0 -28,-3 -65,-11 -33,-7 -5,5 1,10 6,5 -3,7 -8,8 0,0 21,-1 36,11 0,0 23,1 26,5 0,0 10,9 23,10l47 3 68 -8c0,0 47,-6 55,-4 9,3 22,2 31,-2 0,0 29,-9 59,-27 29,-18 107,-69 121,-83l5 -4z"/>
   <path class="fil14" d="M773 212l12 -2c-69,2 -70,1 -135,12 -4,0 -13,0 -17,0 -32,7 -70,24 -98,40 -8,4 -12,11 -15,17 -3,5 -4,10 -4,10 -3,4 -4,11 1,12 8,-3 26,-11 28,-6 1,1 -3,3 -6,5 2,5 -4,20 -7,21 -3,4 -20,23 -21,27 -8,9 31,11 46,9 8,-1 3,6 5,10 6,-5 11,-3 17,-7 1,1 6,-1 13,-3 6,-3 14,-6 19,-8 0,0 3,-3 13,-7 4,-1 3,-2 3,-4 0,2 0,2 1,3 2,-4 10,-4 13,-7 1,1 1,1 1,3 6,-6 14,-5 20,-9 1,1 1,1 1,2 4,-1 7,-2 8,-1l1 3c4,0 10,-5 11,-3l-1 -2c14,-5 25,-7 36,-9 29,-3 -6,7 26,-2 4,0 7,-4 3,-6l11 -2c7,-1 2,-5 10,-6 14,-3 28,-7 43,-9 15,-1 29,-3 44,-4l44 -1c14,1 29,1 43,0 -14,-1 -25,-5 -40,-4 0,-1 0,-4 -3,-4 -11,-1 -23,0 -34,0 -5,1 -10,1 -15,0 -4,0 -8,-1 -11,-2 -4,-1 -8,-5 -19,-3l11 -2c0,-1 0,-4 0,-4 -8,0 -16,0 -25,1 -8,0 -17,1 -24,1 0,0 -1,-3 -1,-4l-7 1c-10,-9 33,-14 52,-16 0,-2 -1,-4 -1,-6l-8 1 0 -3c12,-1 22,-2 33,-3 11,0 22,0 33,-1 -4,0 -11,1 -15,1 0,-2 0,-3 -4,-3 15,0 35,0 50,-2 4,-1 1,-5 -11,-7 -12,0 -20,0 -32,1l0 -3c8,0 20,0 28,-1 4,-1 -8,-4 -4,-5 4,0 8,0 12,-1 -12,-1 -28,1 -40,0 -4,-1 -8,-2 -8,-5 -5,0 -10,0 -15,0 -4,1 -8,0 -13,0 -8,-1 -15,-3 -21,-6 -3,-1 -9,-1 -16,0 -7,1 -15,2 -21,3z"/>
   <path class="fil14" d="M579 64c4,0 8,-1 12,-1 -17,-2 -36,3 -52,12 -7,5 -15,11 -21,18 -6,7 -11,15 -15,23 -4,9 -6,18 -8,27 -1,10 -1,19 0,29 3,19 11,36 22,52 3,4 8,12 12,16 15,14 37,22 60,22 12,0 23,-2 34,-5 10,-4 20,-10 28,-16 8,-6 11,-15 12,-22 1,-7 0,-12 0,-12 0,-5 -2,-11 -7,-9 -2,2 -7,7 -11,10 -5,4 -9,5 -11,3 -1,-1 2,-3 4,-6 -1,-2 -2,-6 -3,-10 -1,-5 -1,-8 -1,-9 0,-2 0,-7 0,-12 -1,-5 -3,-9 -4,-10 -1,-5 -8,-2 -15,-2 -7,1 -13,-1 -15,-2 -3,-1 -5,-5 -8,-7 0,1 -2,-2 -1,-1l-1 0 1 0c0,0 0,-1 -1,1l1 -1c-1,0 0,-1 0,0l0 -1 0 1 -1 0 0 0 0 0 1 0 -1 0c0,0 0,0 1,0l0 0 -1 0 1 0 0 0 0 0 0 0c-1,-2 -1,-3 0,-3l2 0 0 2c0,1 1,1 2,2 1,0 4,-2 2,-3 2,0 4,-1 4,-1 1,-2 -1,-3 -1,-5 -1,-1 -2,-2 -1,-5 0,-2 1,-6 -2,-7 1,0 2,1 3,1l2 -3c-4,-4 -10,-7 -15,-7 0,0 -1,-3 -1,-4 -1,0 -2,0 -3,0 -3,-4 1,-7 7,-8 6,-2 13,0 18,2 1,-2 2,-4 2,-5 -1,-1 -2,-2 -4,-2l1 -3c14,5 23,14 30,26 -1,-2 -4,-6 -5,-8 1,-1 2,-1 0,-3 7,8 10,19 14,29 1,3 6,0 5,-9 -2,-8 -4,-14 -9,-21l2 -1c4,5 6,13 9,19 2,2 2,-8 5,-5 1,3 2,6 3,9 -1,-10 -8,-21 -13,-30 -1,-4 -2,-7 0,-9 -13,-12 -23,-22 -33,-32 -1,-2 -7,-4 -14,-4 -8,-1 -16,-1 -22,0z"/>
   <path class="fil15" d="M1273 209l12 2c-67,-21 -67,-23 -131,-34 -4,-1 -13,-4 -17,-5 -32,-5 -73,-1 -106,5 -8,1 -15,6 -19,10 -5,5 -8,9 -8,9 -3,3 -7,9 -2,11 8,1 28,-1 28,4 1,2 -3,2 -7,2 0,6 -10,18 -14,19 -4,3 -26,14 -29,18 -10,6 26,20 41,23 8,2 1,7 2,11 7,-2 11,2 18,0 0,1 6,1 13,1 7,0 15,0 20,-1 0,0 4,-2 15,-2 4,0 4,-1 4,-3 0,2 0,2 0,3 3,-3 11,-1 15,-2 0,1 0,1 0,3 7,-3 15,0 22,-2 0,1 0,1 0,3 4,0 7,0 7,1l0 3c4,1 11,-2 11,1l0 -3c15,1 26,2 37,4 29,7 -7,5 26,7 3,1 7,-1 4,-5l11 2c7,1 4,-4 12,-2 14,1 29,3 44,6 14,3 28,6 42,10l42 14c13,5 27,10 41,15 -13,-7 -22,-13 -36,-17 0,-2 1,-4 -2,-6 -11,-4 -22,-7 -32,-10 -5,-2 -10,-4 -14,-6 -4,-1 -7,-3 -10,-5 -3,-2 -6,-7 -17,-10l11 3c1,-2 1,-4 1,-4 -7,-3 -15,-5 -23,-8 -8,-3 -16,-5 -24,-7 0,0 1,-3 1,-4l-7 -2c-6,-11 35,-2 54,2 0,-1 1,-4 1,-5l-7 -2 1 -2c11,2 21,5 32,8 10,3 20,6 31,10 -4,-1 -11,-4 -15,-5 1,-1 1,-3 -3,-4 15,5 34,12 49,15 4,0 2,-5 -9,-10 -11,-5 -18,-7 -30,-10l1 -3c8,2 19,7 27,9 4,0 -6,-7 -2,-7 3,1 7,3 11,3 -11,-5 -27,-8 -38,-13 -3,-2 -6,-5 -6,-7 -4,-2 -9,-3 -13,-5 -5,-1 -9,-3 -12,-5 -8,-3 -14,-8 -19,-12 -1,-2 -7,-4 -14,-6 -7,-1 -15,-2 -21,-3z"/>
   <path class="fil15" d="M1139 5c4,0 8,1 11,3 -15,-8 -34,-10 -52,-6 -9,2 -18,5 -26,9 -9,5 -16,11 -22,18 -7,7 -12,14 -17,23 -4,8 -7,17 -9,27 -3,18 -2,37 4,56 0,4 3,14 5,19 10,18 28,33 50,41 11,4 22,6 33,6 11,0 22,-2 31,-5 10,-4 16,-11 20,-17 3,-6 3,-11 3,-11 2,-5 2,-12 -3,-12 -3,2 -9,5 -14,6 -6,2 -10,2 -11,-1 0,-1 3,-2 6,-3 -1,-3 0,-8 0,-12 1,-4 2,-8 3,-8 0,-2 2,-7 3,-12 1,-4 1,-9 0,-11 1,-4 -7,-4 -14,-6 -6,-1 -12,-5 -14,-7 -2,-2 -3,-6 -5,-10 0,2 -1,-2 -1,-1 0,-1 0,0 0,0l0 0c0,1 1,0 0,2l0 -2 0 0 1 0 0 0 -1 0 0 0 0 0 1 0 -1 0c0,0 0,0 1,1l0 -1 -1 0 0 0 0 0 0 0 0 0c0,-2 1,-2 2,-3l1 2 0 1c0,1 0,1 1,3 1,0 5,0 3,-2 2,0 4,1 5,0 0,-2 0,-3 -1,-5 0,-1 0,-3 1,-5 1,-2 4,-5 1,-7l2 2 3 -3c-2,-4 -7,-9 -12,-11 0,0 1,-3 1,-4 -1,-1 -2,-1 -3,-1 -1,-5 3,-7 9,-6 6,1 13,5 17,8 1,-1 3,-3 4,-4 -1,-1 -2,-2 -4,-3l2 -2c11,9 17,20 19,34 0,-2 -1,-7 -2,-9 2,0 3,-1 2,-3 4,9 3,22 3,32 0,3 6,2 8,-7 1,-8 1,-14 -1,-22l2 -1c2,6 1,15 2,21 1,3 5,-6 6,-3 0,3 0,6 0,10 2,-10 0,-23 -2,-33 0,-4 0,-7 3,-8 -8,-16 -15,-29 -21,-42 -1,-2 -5,-6 -12,-9 -6,-3 -14,-5 -20,-6z"/>
   <path class="fil16" d="M1760 374l11 6c-54,-44 -54,-45 -110,-79 -3,-3 -10,-8 -13,-11 -29,-16 -68,-28 -101,-34 -8,-2 -16,0 -22,2 -6,3 -10,6 -10,6 -4,1 -10,6 -6,10 7,3 26,8 25,14 -1,1 -4,0 -8,-1 -2,5 -16,13 -20,12 -4,1 -29,4 -33,6 -12,2 17,29 30,37 6,5 -2,7 -3,11 7,0 10,5 17,6 0,1 5,3 12,5 6,3 14,6 19,8 0,0 4,-1 15,3 3,1 4,0 4,-1 0,1 0,1 -1,2 5,-1 11,4 15,4 -1,1 -1,1 -1,2 8,0 14,6 21,7 0,1 0,1 -1,3 3,1 7,2 6,3l-1 3c3,3 11,3 10,5l1 -2c14,6 24,11 33,17 24,17 -8,1 21,16 3,2 8,1 6,-3l10 5c6,4 5,-2 11,2 14,7 27,14 39,22 12,8 24,17 36,26l33 28c11,9 22,19 33,28 -9,-11 -16,-20 -27,-29 1,-1 3,-3 0,-6 -8,-7 -18,-15 -26,-21 -4,-4 -8,-7 -11,-10 -3,-3 -5,-6 -7,-9 -2,-3 -3,-9 -12,-15l9 6c1,-1 3,-3 3,-3 -6,-5 -13,-10 -19,-16 -7,-6 -14,-10 -20,-15 0,0 2,-2 3,-4l-7 -4c-1,-12 34,12 50,22 1,-1 3,-3 3,-4l-6 -5 2 -2c9,7 18,13 26,19 9,7 17,14 26,21 -3,-2 -9,-7 -12,-10 1,-1 2,-2 -1,-4 12,10 26,23 39,32 4,1 4,-4 -4,-14 -8,-8 -15,-12 -24,-20l2 -2c6,5 14,13 21,18 4,1 -3,-9 1,-7 3,2 6,5 10,7 -9,-9 -23,-17 -31,-26 -2,-3 -4,-7 -3,-9 -4,-3 -8,-6 -11,-9 -3,-3 -7,-6 -9,-9 -6,-6 -10,-12 -13,-19 -1,-2 -6,-6 -11,-10 -6,-4 -13,-8 -19,-11z"/>
   <path class="fil16" d="M1710 135c4,2 7,5 10,7 -12,-13 -29,-22 -47,-25 -9,-1 -18,-1 -28,0 -9,1 -18,4 -26,8 -9,4 -17,9 -24,15 -7,7 -13,14 -18,22 -10,16 -16,34 -18,53 -1,5 -2,15 -2,20 3,20 14,42 32,57 8,7 18,13 29,17 10,4 21,6 31,7 10,0 18,-4 23,-9 6,-4 8,-9 8,-9 4,-3 6,-10 1,-11 -3,0 -10,1 -15,0 -6,-1 -10,-2 -10,-5 0,-2 4,-1 7,-1 0,-3 2,-7 4,-11 2,-4 5,-7 6,-7 1,-2 4,-5 7,-9 3,-4 4,-9 4,-10 2,-4 -5,-7 -10,-11 -6,-4 -10,-10 -11,-12 -1,-2 0,-7 -1,-11 0,2 0,-3 0,-1 0,-1 0,0 0,0l-1 0c0,0 1,-1 0,1l0 -1 1 0 0 -1 0 1 -1 0 0 0 1 0 0 0 -1 0 1 0 0 0 0 -1 0 1 0 0 0 0 0 0c0,-2 1,-2 2,-2l1 1 -1 2c0,1 0,1 0,2 1,1 4,2 4,0 1,1 3,2 4,2 1,-2 1,-3 1,-5 1,-2 1,-3 3,-5 1,-1 5,-3 4,-6l1 3 4 -2c-1,-4 -4,-11 -7,-15 0,0 1,-2 2,-3l-3 -2c1,-5 6,-5 11,-2 5,3 10,10 13,14 1,-1 3,-2 5,-3 -1,-1 -2,-2 -2,-4l2 -1c7,12 9,25 5,39 1,-2 2,-7 2,-9 1,0 2,0 3,-3 -1,11 -6,22 -10,31 0,3 5,4 11,-3 3,-8 5,-13 6,-22l3 1c0,6 -4,14 -6,20 0,3 7,-4 7,-1 -2,3 -3,6 -4,10 6,-9 9,-22 10,-32 2,-3 3,-7 6,-7 -2,-17 -3,-31 -4,-45 0,-3 -3,-8 -8,-13 -5,-6 -11,-11 -17,-14z"/>
   <path class="fil17" d="M1519 1154l-11 4c68,-14 69,-13 130,-35 5,-1 13,-2 17,-3 31,-12 65,-35 91,-56 6,-5 10,-13 11,-19 2,-6 3,-11 3,-11 1,-5 1,-11 -4,-11 -7,3 -23,15 -27,10 0,-1 3,-3 6,-5 -3,-5 0,-21 3,-23 2,-4 16,-25 17,-30 6,-10 -33,-5 -48,0 -8,2 -4,-6 -6,-9 -5,5 -11,4 -16,9 -1,0 -6,2 -12,6 -6,3 -13,7 -18,10 0,0 -2,4 -11,9 -4,2 -3,3 -2,5 -1,-2 -1,-2 -2,-3 -1,5 -9,6 -12,9 0,-1 0,-1 -1,-2 -5,6 -13,7 -18,12 -1,-1 -1,-1 -2,-2 -3,2 -6,3 -7,2l-1 -2c-4,0 -9,6 -11,4l2 2c-13,7 -24,11 -34,15 -29,8 4,-8 -26,6 -3,2 -6,5 -1,7l-11 4c-7,2 -2,5 -9,7 -13,6 -27,12 -41,17 -14,4 -28,8 -42,11l-43 8c-15,2 -29,5 -43,8 14,-1 25,0 40,-3 0,1 0,4 4,3 11,-1 23,-4 33,-6 5,-1 10,-1 15,-2 4,0 8,-1 11,0 4,0 8,3 19,1l-11 2c1,2 1,4 1,4 8,-1 16,-2 25,-4 8,-1 16,-4 24,-5 0,0 1,2 1,4l7 -3c11,7 -30,19 -48,25 0,1 1,4 1,5l8 -2 0 3c-11,3 -21,6 -32,8 -10,2 -21,5 -32,7 4,-1 11,-2 15,-3 1,1 1,3 5,2 -16,3 -35,6 -50,10 -4,2 1,6 13,5 11,-1 19,-3 31,-6l0 3c-8,2 -19,3 -27,6 -4,2 9,2 5,4 -4,1 -8,2 -12,4 12,-2 27,-7 40,-8 4,1 8,1 9,4 4,-2 9,-2 14,-3 4,-1 8,-2 12,-2 9,0 16,1 23,2 2,1 8,0 15,-2 7,-2 14,-5 20,-7z"/>
   <path class="fil17" d="M1736 1267c-4,1 -8,2 -12,2 17,-1 35,-8 49,-20 7,-6 13,-13 18,-21 5,-8 8,-17 11,-26 2,-9 3,-18 3,-28 -1,-9 -2,-19 -5,-28 -6,-18 -17,-34 -31,-47 -3,-4 -10,-11 -14,-15 -17,-10 -41,-15 -63,-11 -12,2 -23,6 -32,12 -10,5 -18,12 -25,19 -7,8 -9,17 -9,24 1,7 3,12 3,12 0,5 4,10 8,8 2,-3 5,-8 9,-12 4,-4 8,-6 10,-4 1,1 -1,3 -3,6 2,1 4,6 5,10 2,4 3,7 3,8 0,2 1,7 2,12 2,4 4,8 5,9 2,4 9,0 15,-1 7,-2 14,-1 16,-1 3,1 6,4 9,6 -1,-1 3,2 1,1l1 0 -1 0c0,0 1,1 0,-1l0 1c0,0 0,1 0,0l0 1 1 -1 0 0 0 0 0 0 -1 0 1 0c0,0 0,0 -1,0l0 0 1 0 -1 0 0 0 0 0 1 0c0,2 0,3 0,3l-2 0 -1 -2c0,0 -1,0 -2,-1 -1,0 -4,2 -2,3 -1,0 -4,1 -4,2 0,2 2,3 3,4 1,1 2,2 2,5 0,2 -1,6 2,7 -1,0 -2,-1 -3,-1l-1 4c4,3 11,4 16,4 0,0 1,3 1,4 1,0 2,-1 3,-1 4,4 1,7 -5,10 -5,2 -13,1 -18,1 -1,1 -1,4 -2,5 2,0 3,1 5,1l-1 3c-14,-3 -25,-10 -33,-21 1,2 4,6 6,7 -1,1 -2,2 0,4 -8,-7 -13,-18 -18,-27 -2,-2 -6,1 -4,10 3,8 7,13 13,19l-2 2c-5,-4 -9,-12 -12,-17 -3,-2 -1,7 -4,5 -1,-3 -3,-6 -5,-8 3,9 12,20 18,27 1,4 3,7 2,9 14,10 26,17 38,26 1,1 7,2 15,2 7,0 15,-2 21,-4z"/>
   <path class="fil18" d="M110 864l-6 -11c27,64 26,66 60,121 2,5 5,12 7,16 18,28 47,57 72,78 7,5 15,7 21,8 7,0 11,-1 11,-1 5,1 12,0 11,-5 -5,-6 -20,-20 -16,-24 1,-1 4,2 7,4 4,-4 20,-4 23,-1 4,1 27,10 32,10 11,4 -1,-33 -9,-47 -3,-7 5,-5 8,-8 -7,-4 -6,-9 -13,-13 1,-1 -3,-5 -7,-10 -5,-6 -10,-12 -14,-16 0,0 -4,-2 -11,-10 -3,-2 -4,-2 -5,-1 1,-1 1,-1 2,-1 -5,-1 -8,-9 -11,-10 1,-1 1,-1 2,-2 -7,-4 -10,-11 -16,-16 1,-1 1,-1 2,-2 -2,-3 -5,-5 -4,-6l3 -2c-2,-4 -9,-8 -7,-9l-2 1c-9,-11 -15,-21 -21,-30 -13,-27 8,2 -11,-24 -2,-3 -6,-5 -7,0l-6 -10c-3,-6 -5,0 -9,-7 -8,-12 -17,-24 -24,-37 -7,-13 -14,-26 -19,-39l-17 -41c-5,-14 -10,-27 -16,-41 4,15 5,26 11,39 -2,1 -4,2 -3,5 3,11 9,22 13,31 2,5 3,10 5,14 1,4 2,8 2,11 0,4 -2,9 3,19l-5 -10c-1,1 -3,2 -3,2 2,7 6,15 9,23 3,8 7,15 10,22 0,0 -2,2 -4,2l4 7c-4,12 -25,-26 -34,-43 -1,1 -3,2 -5,3l4 7 -3 1c-5,-10 -10,-20 -14,-30 -5,-9 -9,-19 -13,-30 1,4 4,11 6,14 -1,1 -3,1 -1,5 -6,-14 -13,-33 -20,-47 -3,-3 -6,2 -3,14 4,11 8,18 12,29l-2 1c-4,-7 -7,-19 -11,-25 -3,-4 -1,8 -4,5 -1,-3 -3,-7 -5,-11 3,12 11,26 15,37 0,5 0,9 -2,10 2,5 4,9 6,13 1,4 3,8 4,12 2,8 2,16 2,23 0,2 2,8 5,14 4,6 8,13 11,19z"/>
   <path class="fil18" d="M43 1098c-2,-3 -4,-7 -5,-11 4,17 15,33 29,44 8,6 16,10 25,14 8,3 18,5 27,5 10,1 19,0 28,-2 9,-3 18,-6 26,-11 17,-9 31,-23 41,-39 3,-4 9,-12 11,-17 7,-19 7,-43 -1,-64 -5,-11 -11,-21 -18,-29 -7,-9 -15,-16 -24,-21 -9,-5 -18,-5 -25,-3 -7,1 -11,4 -11,4 -5,2 -10,6 -7,10 4,1 10,4 14,7 5,3 8,6 6,9 0,1 -3,-1 -6,-2 -1,2 -5,5 -9,7 -4,2 -7,4 -8,4 -2,1 -7,2 -11,5 -4,2 -7,5 -8,6 -4,3 2,9 4,15 3,6 4,13 4,15 0,3 -3,6 -4,10 1,-1 -1,3 -1,2l1 0 0 0c0,0 -1,0 1,-1l-1 1c0,0 -2,0 -1,0l0 0 0 0 1 0 0 0 0 0 -1 0 0 0c1,0 0,0 0,-1l0 1 0 0 0 0 1 0 0 0 -1 0c-1,1 -2,1 -3,0l0 -1 2 -1c0,-1 0,-1 1,-2 -1,-2 -3,-4 -4,-2 0,-1 -2,-3 -2,-3 -2,0 -3,2 -4,3 -1,1 -2,2 -5,3 -1,0 -6,1 -5,4 -1,-1 0,-2 0,-3l-4 -1c-2,5 -3,11 -1,17 0,0 -3,1 -4,2l2 2c-3,4 -7,3 -11,-2 -3,-6 -4,-14 -4,-18 -2,-1 -5,-1 -6,-1 0,2 0,3 0,5l-3 0c0,-14 4,-26 14,-37 -2,2 -5,5 -6,8 -1,-1 -2,-2 -4,0 5,-9 15,-16 23,-23 2,-2 -2,-5 -10,-2 -8,5 -12,9 -17,16l-2 -1c3,-5 11,-11 15,-15 1,-3 -8,0 -6,-3 2,-2 5,-4 7,-7 -9,5 -17,16 -24,24 -3,2 -5,4 -8,3 -6,16 -11,30 -18,42 -1,2 0,8 1,15 2,7 6,15 9,20z"/>
   <path class="fil19" d="M283 382l10 -8c-60,36 -62,35 -113,76 -3,2 -11,6 -15,8 -25,21 -50,54 -67,82 -4,7 -5,15 -5,22 0,6 2,11 2,11 0,5 2,11 6,10 6,-6 18,-22 22,-19 1,1 -1,4 -3,7 4,4 6,20 4,23 0,4 -6,29 -6,33 -2,12 33,-5 45,-15 7,-4 6,4 9,7 4,-7 9,-8 12,-14 1,0 5,-4 9,-9 5,-5 11,-12 14,-16 0,0 1,-4 8,-12 3,-3 2,-4 0,-5 2,1 2,1 3,2 0,-5 7,-9 8,-13 1,1 1,1 2,2 3,-7 10,-11 14,-18 1,1 1,1 2,2 2,-2 5,-5 6,-4l2 2c3,-2 6,-10 8,-8l-2 -2c10,-10 19,-18 27,-25 25,-16 -1,9 23,-14 3,-2 4,-7 -1,-6l9 -7c5,-5 0,-6 6,-11 10,-10 21,-20 33,-28 12,-9 24,-17 37,-25l38 -22c13,-6 26,-13 38,-21 -13,6 -24,8 -37,16 -1,-1 -2,-4 -5,-2 -10,5 -20,12 -29,17 -5,2 -9,5 -13,6 -4,2 -8,4 -11,4 -4,1 -9,0 -19,6l10 -6c-1,-1 -3,-4 -3,-4 -6,4 -14,8 -21,12 -8,4 -15,9 -21,13 0,0 -2,-2 -3,-3l-6 5c-12,-3 23,-28 38,-40 0,-1 -2,-3 -3,-4l-6 4 -2 -2c10,-7 19,-13 28,-18 9,-6 18,-11 28,-17 -3,2 -10,6 -13,8 -1,-2 -2,-3 -5,-1 14,-8 31,-17 44,-26 3,-3 -3,-5 -14,-1 -11,6 -17,10 -27,16l-2 -2c7,-4 18,-9 24,-14 3,-3 -9,0 -6,-3 3,-2 7,-4 10,-7 -11,5 -24,15 -35,20 -4,1 -8,2 -10,-1 -4,3 -8,5 -12,8 -4,2 -8,4 -11,5 -8,3 -15,5 -22,5 -3,1 -8,4 -14,8 -6,4 -12,9 -17,13z"/>
   <path class="fil19" d="M42 345c3,-2 7,-4 10,-6 -16,6 -30,19 -40,35 -4,8 -8,17 -10,26 -2,9 -2,18 -2,28 1,9 3,18 7,27 3,9 8,17 13,25 12,15 27,27 44,35 5,3 13,7 18,9 20,4 44,1 64,-10 10,-5 19,-13 27,-21 7,-8 13,-17 17,-27 4,-9 3,-19 0,-25 -2,-7 -6,-10 -6,-10 -2,-5 -7,-9 -10,-6 -1,4 -3,10 -5,15 -3,5 -6,9 -8,7 -2,0 0,-3 1,-6 -3,-1 -6,-5 -8,-8 -3,-3 -5,-6 -5,-8 -1,-1 -4,-6 -7,-10 -2,-4 -6,-6 -7,-7 -3,-3 -8,3 -14,6 -6,4 -13,5 -15,6 -3,0 -6,-2 -10,-3 1,1 -3,-1 -2,0l0 0 0 0c0,0 0,-1 1,1l-1 -1c0,0 0,-1 0,0l0 -1 0 0 0 1 0 0 0 0 0 0 0 0c0,0 0,0 1,0l-1 0 0 0 0 0 0 0 0 0 0 0c-1,-2 -1,-3 -1,-3l2 0 1 1c1,0 1,0 2,1 1,-1 3,-4 1,-4 1,-1 3,-3 3,-3 -1,-2 -2,-2 -4,-3 -1,-1 -2,-2 -3,-5 -1,-1 -1,-5 -4,-5 1,0 1,0 2,0l0 -4c-4,-2 -11,-1 -16,1 0,0 -2,-2 -3,-3l-2 2c-4,-3 -3,-7 1,-11 5,-4 13,-6 18,-7 0,-1 -1,-4 -1,-6 -1,0 -3,1 -4,1l-1 -3c14,-2 27,1 39,9 -2,-1 -6,-4 -9,-5 1,-1 2,-2 -1,-3 10,4 19,12 26,19 3,2 5,-3 1,-10 -6,-7 -11,-10 -18,-15l1 -2c5,3 12,9 17,13 3,1 -2,-8 1,-7 3,3 5,5 8,7 -6,-8 -17,-15 -26,-21 -2,-2 -5,-5 -4,-7 -17,-5 -31,-8 -45,-12 -2,-1 -8,0 -15,3 -6,2 -13,7 -18,10z"/>
   <path class="fil20" d="M1303 446c-1,-3 -1,-6 -3,-8 -1,-2 -5,0 -6,2 0,3 0,6 4,8 2,0 3,0 5,-2zm-636 -36c7,0 14,0 22,-5 -9,1 -16,1 -22,5zm534 191c-5,-2 -10,-4 -15,-3 4,6 10,4 15,3zm-749 -84c-2,0 -4,0 -6,0 -2,-1 -5,-2 -5,0 1,3 -1,4 -1,7 2,-1 5,0 6,-1 2,-1 6,-1 6,-6zm592 -134c6,0 13,0 21,0 -8,-8 -15,-3 -21,0zm-217 109c3,1 5,6 8,3 3,-3 0,-8 1,-12 -6,1 -5,8 -9,9zm18 2c8,-2 13,-3 19,-4 1,0 3,0 3,-2 1,-2 -1,-3 -3,-3 -7,0 -12,3 -19,9zm-36 -6c-4,6 -10,8 -9,14 1,1 7,1 9,-1 6,-4 0,-7 0,-13zm97 -143c8,3 19,2 25,-2 -9,-3 -17,0 -25,2zm-147 48c-10,-1 -19,1 -28,5 10,-1 19,0 28,-5zm599 67c-2,9 -1,11 0,9 6,-5 10,-1 15,2 2,1 4,2 5,-1 1,-2 -1,-3 -3,-4 -6,-2 -11,-4 -17,-6zm-829 23c-1,-4 -5,-4 -5,-4 -7,6 -15,7 -23,10 -1,1 -1,2 -1,3 0,2 1,2 3,1 8,-3 17,-7 26,-10zm773 -25c-14,-5 -32,-1 -43,-16 0,-1 -3,-1 -5,-1 -2,1 -2,4 -1,4 8,0 10,10 17,11 10,2 21,5 32,2zm-478 -24c-13,1 -25,-1 -37,8 4,3 8,1 11,-1 3,-2 8,-1 9,-1 9,7 13,4 17,-6zm-229 16c-20,6 -39,12 -58,21 -3,1 -5,3 -4,5 2,2 4,0 6,-1 5,-2 9,-7 15,-8 15,-2 27,-12 41,-17zm532 -45c12,10 26,7 42,5 -15,-9 -29,-6 -42,-5zm10 47c11,5 21,2 32,2 -3,-5 -19,-4 -4,-14 1,0 2,-5 0,-6 -3,-2 -7,-3 -10,-3 -2,0 -1,2 -1,4 2,12 2,12 -9,13 -3,0 -5,0 -8,4zm211 -2l0 1c10,3 20,7 31,10 2,1 5,1 6,4 2,5 5,5 9,4 5,-1 10,-3 15,-4 -2,-2 -4,-3 -6,-3 -10,-4 -22,-4 -28,-14 -2,-2 -3,-2 -5,0 -5,5 -10,7 -17,2 -1,-1 -3,0 -5,0zm-570 -6c-5,-3 -11,-5 -17,0 -2,3 -6,3 -9,2 -8,-3 -14,1 -20,4 -5,2 -11,3 -15,10 22,-1 44,-2 61,-16zm761 94c-8,-15 -34,-28 -51,-25 -3,1 -6,2 -7,-2 -3,-6 -9,-7 -16,-12 5,18 19,20 32,24 2,-1 -2,-5 2,-6 2,0 5,2 4,3 -1,6 5,6 6,6 11,-2 17,5 24,11 1,1 4,2 6,1zm-901 -52c4,-5 8,-7 13,-7 17,-1 33,-7 50,-11 1,-1 3,-2 5,-2 3,-1 4,-4 3,-7 0,-4 -3,-2 -5,-2 -6,-1 -11,3 -16,4 -13,2 -25,4 -38,2 -3,-1 -5,-1 -6,1 -8,10 -22,0 -30,10l-2 0c-5,-3 -8,0 -12,1 -12,3 -23,12 -36,12 -9,0 -17,4 -23,12 5,-5 10,-2 15,-2 5,0 10,-1 15,-2 7,-1 15,1 22,-4 1,-1 4,0 3,-3 -3,-6 2,-4 5,-4 4,1 5,1 5,0 -5,-8 3,-3 4,-4 7,-3 15,1 22,-2 7,-4 7,0 6,8zm-212 289c3,-7 7,-13 17,-13 5,0 6,-3 5,-8 -2,-11 9,-29 21,-31 19,-4 37,-11 54,-20 8,-5 10,-13 13,-21 3,-7 18,-15 25,-11 7,3 15,3 23,5 3,1 6,-1 7,-4 0,-3 -4,-3 -6,-3 -5,-1 -14,1 -13,-6 0,-7 8,-5 13,-6 12,-1 25,0 36,-8 2,-1 7,-1 4,-6 -2,-3 -5,-3 -8,0 -6,5 -14,5 -21,5 -6,1 -5,-2 -3,-4 8,-13 20,-18 34,-20 6,0 12,0 16,-6l3 -1c4,-3 8,0 10,2 2,4 -2,6 -5,7 -5,3 -12,4 -14,12 4,3 9,2 14,2 7,0 13,-1 16,7 1,3 5,4 7,3 10,-4 20,-6 26,-16 3,-4 6,-6 11,-6 8,0 14,-8 23,-5 2,0 5,0 7,1 4,2 8,2 11,-3 2,-3 5,-5 10,-6 5,0 10,-3 9,-8 -1,-5 -6,-8 -12,-6 -4,2 -8,3 -12,7 -5,4 -12,5 -19,5 -20,2 -40,3 -61,5 6,-9 13,-11 20,-11 7,-1 11,-2 9,-11 -1,-10 4,-16 14,-17 5,0 4,-4 5,-6 0,-4 -4,-3 -6,-3 -4,-1 -8,0 -11,3 -3,4 -7,3 -10,2 -1,-1 -2,-4 -2,-6 0,-4 4,-4 7,-5 11,-4 22,-4 33,-12 -14,1 -27,2 -39,6 -10,3 -20,4 -30,8 -27,10 -55,17 -82,25 -3,1 -8,6 -10,1 -1,-4 5,-5 8,-6 20,-8 40,-16 61,-21 5,-1 7,-5 11,-6 30,-8 60,-20 91,-26 6,-1 11,-7 16,-10 -3,-4 -12,3 -12,-5 1,-7 10,-1 13,-5 -9,-5 -16,-2 -18,7 -1,3 -3,4 -6,3 -7,-1 -13,0 -19,4 -7,5 -15,4 -23,3 -8,-1 -14,1 -18,8 -4,7 -10,11 -18,9 -3,-1 -5,-2 -5,2 0,2 -2,3 -4,3 -20,3 -36,18 -58,20 -8,1 -17,8 -27,7 -5,-1 -12,-2 -13,-9 -1,-7 2,-12 9,-15 5,-3 11,-6 15,-10 6,-6 11,-7 19,-4 12,4 25,6 38,2 2,-1 8,-1 3,-6 -1,-2 -5,-3 -1,-5 2,-2 7,-5 9,-2 9,13 17,4 23,-1 11,-9 23,-12 37,-9 4,1 6,-3 9,-6 -5,-1 -9,-2 -14,-2 -2,-1 -5,-1 -5,-4 1,-3 2,-5 6,-5 8,0 15,-4 21,-9 6,-5 15,-5 22,-3 3,0 5,0 7,-2 6,-6 13,-5 19,0 5,3 8,3 11,-2 2,-4 7,-6 11,-6 13,1 23,-9 36,-9 3,0 4,-4 4,-6 -1,-3 -3,-5 -7,-5 -11,1 -21,3 -31,10 -9,5 -20,6 -29,-1 -3,-2 -7,-2 -8,1 -3,7 -9,6 -14,7 -7,2 -14,2 -19,8 -6,5 -14,2 -21,5 -12,6 -25,4 -38,8 -1,1 -2,1 -3,0 -4,-5 -15,-9 -23,-9 0,-3 5,-2 3,-5 0,-1 -3,-1 -5,0 -4,2 -9,3 -13,4 -3,1 -6,3 -10,5 12,4 25,1 35,8 -16,14 -62,25 -84,20 10,-6 19,-11 28,-17 2,0 4,0 4,-2 -1,-5 -3,0 -5,0 -8,-1 -15,6 -23,6l0 0c-2,-2 0,-5 -1,-9 -6,9 -16,5 -22,3 -8,-3 -12,2 -18,4l0 0c-5,2 -10,5 -14,6 -9,3 -15,7 -22,13 -3,3 -12,3 -18,5 3,-7 6,-10 10,-14 -19,4 -37,13 -56,19 -18,6 -37,14 -56,19 -15,5 -29,16 -45,18 9,-14 12,-18 30,-23 5,-1 10,-1 14,-3 2,-1 7,-3 4,3 -1,1 2,1 2,0 1,-1 5,-1 4,-3 -4,-5 1,-4 3,-6 14,-12 31,-17 47,-22 3,0 7,-1 7,-6 1,-6 8,-2 10,-7 -5,-4 -20,-5 -29,0 -11,7 -24,11 -35,17 -16,8 -32,15 -49,23 -6,3 -13,5 -19,9 0,-4 8,-9 -2,-9 -2,0 -5,3 -8,2l0 -2c13,-5 23,-16 35,-20 11,-4 18,-15 31,-14 1,0 -1,-7 3,-9 -3,-2 -3,1 -5,1 -1,1 -3,3 -5,1 6,-1 -3,-5 3,-7 6,-2 11,-6 15,-11 2,-2 4,-5 8,-3 3,2 6,-2 9,-4 3,-1 5,-4 10,-3 -6,4 -10,9 -10,17 9,-4 19,-8 27,-13 3,-2 6,-2 9,-4 2,-1 3,0 2,3 0,4 3,2 6,1 6,-3 12,-6 19,-8 -7,4 -14,7 -21,11 0,1 1,2 1,3 64,-24 128,-47 194,-68 -15,-4 -27,3 -39,8 -6,2 -11,3 -18,-1 -4,-2 -10,-1 -15,-2 -3,0 -7,-1 -8,-5 -1,-5 4,-6 7,-8 10,-7 24,-5 35,-9 5,-2 10,-1 15,-5 2,-2 5,-3 9,-3 11,0 21,-4 32,-6 10,-3 21,-1 31,-6 21,-9 45,-11 68,-17 28,-7 57,-10 86,-12 4,0 7,-3 11,-3 -7,-2 -15,0 -22,0 -6,1 -12,1 -18,2 -1,0 -4,1 -4,-2 -1,-2 1,-4 4,-5 5,0 11,0 16,-2 22,-5 45,-6 67,-10 3,0 6,0 9,2 -11,6 -22,2 -35,7 29,3 54,-7 80,-6 25,0 51,4 77,-1 0,5 -6,3 -4,9 -1,-2 0,-1 0,-1 7,0 14,5 21,-2l2 0c11,7 23,-2 33,1 16,4 33,-1 50,4 4,2 10,2 14,0 8,-6 17,-3 25,-1 11,2 22,4 33,2 2,0 4,0 6,0 23,7 47,4 70,9 22,5 45,5 67,9 8,2 13,8 19,12 3,-3 0,-6 1,-9 4,1 6,2 5,7 -1,2 -1,4 1,4 2,1 4,1 5,-2 2,-5 5,-2 8,0 5,4 9,8 14,-1 1,-2 3,-2 4,-1 5,1 10,2 15,4 21,8 42,15 63,25 11,4 23,8 35,10 8,1 11,9 16,15 -8,-5 -16,-5 -24,-5l-2 -1c-5,-11 -11,-7 -19,-4 -7,2 -14,0 -20,-5 -6,-3 -13,-8 -21,-6 -2,1 -3,-2 -5,-3 -3,-1 -6,-5 -9,0 -1,1 -3,2 -5,0 -12,-9 -28,-4 -41,-11 -15,-7 -32,-5 -47,-11 -1,-1 -3,-2 -3,0 -4,7 -9,3 -15,2 -5,-2 -11,-2 -17,-3 -5,-1 -10,-1 -14,-5 -1,-1 -4,-1 -5,-1 -14,5 -29,0 -43,0 -13,0 -26,-5 -39,-8 -2,0 -5,-1 -7,0 -6,2 -12,2 -18,-1 -9,-4 -19,1 -29,0 -2,-1 -1,2 -1,4 -1,3 1,2 3,3 3,0 7,0 8,6 0,5 5,6 9,5 12,-3 24,0 36,1 19,0 38,-1 56,3 24,4 49,4 73,10 27,7 54,9 81,18 9,3 20,3 29,7 7,2 14,6 22,7 4,1 8,-3 11,-1 17,6 36,8 50,22 1,2 5,3 2,6 -2,2 -3,-1 -5,-2 -1,0 -3,-2 -5,-2 -14,5 -24,-7 -36,-10 -14,-3 -27,-10 -41,-10 -2,0 -2,0 -1,2l0 2c-2,0 -4,2 -6,1 -4,-2 -9,-4 -12,-6 -5,-4 -10,-4 -15,-4 -10,2 -20,-2 -29,-3 -12,-3 -26,0 -36,-10 -9,3 -18,-6 -27,-3 -7,3 -12,0 -14,-7 -2,-5 -4,-4 -8,-2 -7,3 -14,7 -22,5 -8,-1 -16,-8 -24,0 -4,3 -9,-2 -14,-2 8,9 19,9 29,12 2,1 5,1 8,3 1,0 7,8 6,-3 0,-1 6,0 9,1 10,4 20,7 30,4 9,-2 17,1 26,1 11,0 23,-1 31,10 1,1 3,1 4,-1 4,-5 10,-3 15,-1 8,2 17,1 23,9 2,2 6,3 9,3 15,-1 29,9 44,9l2 1c4,12 13,12 23,10 4,-1 7,0 10,3 4,5 9,7 14,8 4,0 6,3 10,5 -5,2 -8,3 -10,1 -10,-9 -22,-7 -34,-7 -6,0 -12,-1 -17,-6 -6,-6 -15,-4 -23,-4 -4,1 -8,0 -14,3 10,3 18,7 27,7 4,0 9,-1 11,3 1,3 -2,7 -5,9 -5,2 -7,-2 -10,-5 -1,-2 -3,-4 -6,-3 -2,1 -4,-4 -6,1 -1,4 2,7 5,6 6,-1 9,3 14,5 6,2 9,2 12,-4 2,-6 6,-6 11,-5 7,2 13,5 20,7 29,7 56,19 83,31 28,13 56,25 83,42 4,3 8,4 1,10 -6,5 -5,10 2,15 2,1 3,3 5,4 4,-1 -2,-7 4,-7 4,0 6,3 8,5 4,4 4,10 10,13 3,2 1,13 1,20 0,2 -2,1 -3,0 -8,-10 -20,-14 -28,-22 -9,-9 -18,-15 -30,-19 -3,0 -2,-5 -4,-6 -3,-1 -8,-2 -10,3 0,1 -2,3 -2,3 -4,-7 -10,0 -15,-2 -6,-2 -3,-6 -1,-8 7,-10 7,-14 -4,-21 -2,-2 -2,-4 -1,-5 4,-6 0,-7 -4,-9 -2,0 -4,-2 -5,-3 -2,-1 0,-5 -4,-4 -4,1 -4,4 -6,6 -1,2 -1,3 0,5 2,2 3,1 5,0 6,-4 10,1 9,4 0,7 3,11 5,16 2,2 3,5 2,7 -3,3 -6,0 -8,-1 -8,-2 -12,-9 -19,-11 -4,-2 -8,-5 -12,0 -3,3 -7,2 -9,-1 -2,-2 -4,-1 -6,0 -3,1 0,3 0,5 0,6 6,9 9,9 12,0 17,9 25,14 6,2 9,8 16,1 3,-2 9,-1 11,3 2,9 10,10 16,12 26,9 51,22 77,32 1,1 2,1 2,5 -10,-7 -21,-4 -31,-8 -39,-16 -77,-32 -118,-44 -28,-8 -57,-16 -86,-22 -39,-9 -78,-14 -116,-20 -9,-1 -17,-1 -24,-2 7,13 21,7 32,11 7,2 17,1 25,3 5,1 10,4 16,4 5,0 -3,4 1,6 3,1 9,1 8,5 -1,5 -6,2 -10,1l-2 2c-2,3 -7,6 -11,4 -6,-3 -12,-4 -17,1 -1,2 -3,1 -4,1 -4,-1 -8,0 -12,2 -2,-6 -8,-2 -12,-4 -1,-1 -4,-1 -5,0 -4,9 -11,5 -17,5 -14,0 -27,1 -41,0 9,2 17,7 26,3 1,0 2,0 3,1 1,2 -2,3 -2,4 18,1 36,0 54,7l2 0c5,9 5,9 17,11 -3,-5 -9,-3 -14,-6 10,-3 20,0 29,3 3,1 2,4 0,6 -4,2 -8,3 -13,2 -8,-1 -17,7 -26,0 0,-2 5,-1 3,-3 -1,-2 -5,-4 -7,-3 -12,4 -24,-2 -36,-1 -10,0 -20,0 -29,-3 -5,-2 -4,3 -4,6 -8,-4 -8,-4 -11,2 -1,3 -3,2 -5,1 -8,-6 -18,-4 -27,-2 -3,1 -6,0 -8,-3 2,-3 7,-1 9,-5 -6,-1 -12,1 -18,-2l-3 1c-4,8 -5,9 -11,9 -11,0 -21,0 -32,0 -12,0 -24,0 -37,2 -11,2 -23,0 -35,2 -14,1 -28,1 -42,3 -15,2 -30,3 -44,4 -5,0 -8,1 -13,2 -20,2 -40,4 -60,8 -14,3 -28,5 -41,8 -12,3 -23,5 -35,7 -17,4 -34,8 -51,11 -19,3 -38,9 -57,15 -34,11 -68,22 -102,35l-2 2 0 -1c-48,16 -97,30 -144,49 -17,7 -35,10 -52,15 -5,1 -9,2 -13,5 -3,0 -6,0 -10,0z"/>
  </g>
 </g>
</svg>
