<?xml version="1.0" encoding="UTF-8"?>
<!DOCTYPE svg PUBLIC "-//W3C//DTD SVG 1.1//EN" "http://www.w3.org/Graphics/SVG/1.1/DTD/svg11.dtd">
<!-- Creator: CorelDRAW X7 -->
<svg xmlns="http://www.w3.org/2000/svg" xml:space="preserve" width="3.93701in" height="3.93701in" version="1.1" style="shape-rendering:geometricPrecision; text-rendering:geometricPrecision; image-rendering:optimizeQuality; fill-rule:evenodd; clip-rule:evenodd"
viewBox="0 0 3937 3937"
 xmlns:xlink="http://www.w3.org/1999/xlink">
 <defs>
  <style type="text/css">
   <![CDATA[
    .fil17 {fill:#FDE9E2}
    .fil18 {fill:#FDE9E2;fill-rule:nonzero}
    .fil4 {fill:#FDB92E;fill-rule:nonzero}
    .fil2 {fill:#F9A33C;fill-rule:nonzero}
    .fil15 {fill:#EF4B4A;fill-rule:nonzero}
    .fil9 {fill:#EE3F3E;fill-rule:nonzero}
    .fil20 {fill:#EEF1E7;fill-rule:nonzero}
    .fil19 {fill:#E8E3F1;fill-rule:nonzero}
    .fil8 {fill:#EBE842;fill-rule:nonzero}
    .fil1 {fill:#DFE67D;fill-rule:nonzero}
    .fil3 {fill:#ACD79E;fill-rule:nonzero}
    .fil14 {fill:#97B55F;fill-rule:nonzero}
    .fil10 {fill:#8E699F;fill-rule:nonzero}
    .fil7 {fill:#67BD51;fill-rule:nonzero}
    .fil13 {fill:#694B9C;fill-rule:nonzero}
    .fil6 {fill:#2E5FA7;fill-rule:nonzero}
    .fil11 {fill:#3A325A;fill-rule:nonzero}
    .fil5 {fill:#3150A0;fill-rule:nonzero}
    .fil16 {fill:#354D8F;fill-rule:nonzero}
    .fil12 {fill:url(#id0)}
    .fil0 {fill:url(#id1)}
   ]]>
  </style>
  <linearGradient id="id0" gradientUnits="userSpaceOnUse" x1="1798.65" y1="922.976" x2="1861.3" y2="1258.87">
   <stop offset="0" style="stop-opacity:1; stop-color:#FEFEFE"/>
   <stop offset="1" style="stop-opacity:1; stop-color:#F89B4F"/>
  </linearGradient>
  <linearGradient id="id1" gradientUnits="userSpaceOnUse" x1="2041.69" y1="1811.94" x2="1962.48" y2="1517.93">
   <stop offset="0" style="stop-opacity:1; stop-color:#FEFEFE"/>
   <stop offset="1" style="stop-opacity:1; stop-color:#30924F"/>
  </linearGradient>
 </defs>
 <g id="Layer_x0020_1">
  <metadata id="CorelCorpID_0Corel-Layer"/>
  <g id="_852127008">
   <g>
    <path class="fil0" d="M2462 1529c-1,-4 -2,-9 -5,-11 -3,-2 -8,1 -8,4 -1,4 0,9 6,10 3,1 5,0 7,-3zm-981 42c11,-2 22,-2 33,-12 -13,4 -24,4 -33,12zm850 208c-7,-2 -15,-4 -23,-2 7,9 15,6 23,2zm-1162 -14c-4,0 -7,0 -10,0 -2,0 -7,-1 -7,1 3,4 -1,7 0,11 3,-1 6,-1 9,-3 3,-2 8,-2 8,-9zm886 -293c10,-1 20,-2 33,-3 -14,-11 -23,-2 -33,3zm-316 199c6,1 10,9 14,3 5,-5 -2,-12 -1,-18 -9,2 -5,13 -13,15zm29 -1c12,-3 20,-6 28,-8 3,0 5,-1 5,-3 0,-3 -3,-5 -6,-5 -10,1 -18,6 -27,16zm-56 -3c-5,10 -14,14 -11,23 1,2 10,0 13,-3 8,-7 -2,-10 -2,-20zm126 -232c12,4 29,0 37,-6 -14,-3 -25,2 -37,6zm-218 96c-15,-1 -29,5 -42,12 14,-3 29,-3 42,-12zm930 12c-2,13 0,16 2,14 7,-9 15,-4 22,-1 3,2 7,3 8,-1 1,-4 -3,-6 -6,-6 -8,-2 -17,-4 -26,-6zm-1269 159c-2,-6 -8,-5 -8,-5 -9,10 -22,13 -33,18 -3,1 -2,3 -1,5 0,2 2,3 4,1 12,-6 25,-13 38,-19zm1182 -154c-23,-6 -49,3 -67,-18 -2,-1 -6,-1 -8,-1 -3,1 -4,7 -2,7 12,-2 18,13 27,14 17,1 34,4 50,-2zm-736 36c-20,3 -40,1 -57,16 8,4 13,2 17,-2 5,-4 12,-4 14,-2 14,9 21,2 26,-12zm-349 58c-30,11 -59,25 -87,40 -4,2 -6,5 -4,8 2,4 6,0 8,-1 8,-4 13,-12 22,-15 23,-6 40,-22 61,-32zm808 -148c21,13 41,7 66,1 -25,-11 -45,-4 -66,-1zm24 69c17,6 32,0 49,-2 -6,-6 -30,-3 -9,-19 2,-2 2,-8 -1,-10 -5,-2 -10,-4 -16,-4 -2,0 -1,5 0,7 5,17 5,17 -13,21 -3,1 -7,2 -10,7zm323 -35l0 2c16,3 32,8 49,11 4,0 8,0 10,4 3,8 9,7 15,5 7,-2 14,-5 21,-8 -3,-2 -6,-3 -9,-4 -16,-4 -34,-2 -46,-16 -3,-3 -4,-3 -6,0 -7,9 -15,13 -26,6 -2,-1 -5,0 -8,0zm-877 77c-7,-3 -16,-5 -25,3 -3,4 -9,5 -14,4 -12,-3 -21,3 -29,9 -7,4 -18,6 -22,18 34,-5 67,-10 90,-34zm1183 28c-13,-21 -55,-37 -81,-29 -5,1 -9,3 -12,-2 -5,-10 -15,-10 -26,-16 11,27 33,27 54,31 2,-2 -5,-7 0,-9 4,-1 9,2 8,3 -1,10 8,9 10,9 16,-5 27,5 38,12 3,2 6,3 9,1zm-1390 57c6,-8 11,-12 18,-13 27,-4 51,-16 75,-24 3,-1 5,-3 8,-4 5,-2 5,-6 4,-11 -1,-5 -5,-3 -8,-2 -10,0 -17,7 -25,9 -18,5 -38,9 -57,7 -4,0 -8,0 -9,3 -10,17 -34,4 -45,20l-4 0c-7,-3 -12,2 -18,4 -18,6 -32,21 -52,23 -15,2 -26,9 -34,23 7,-8 15,-5 23,-6 7,-1 15,-3 22,-5 11,-3 24,-2 34,-9 1,-2 6,-2 4,-5 -5,-10 2,-7 6,-7 8,0 9,0 8,-1 -8,-11 5,-6 7,-7 10,-6 22,-1 33,-7 10,-6 11,0 10,12zm-142 346c4,-12 9,-22 23,-23 8,0 10,-6 7,-13 -5,-16 10,-45 27,-50 28,-9 -82,102 -57,86 12,-8 15,-21 18,-33 2,-11 24,-26 35,-22 12,5 25,3 37,5 4,1 9,-3 9,-7 0,-5 -5,-4 -9,-4 -8,0 -20,3 -21,-7 -2,-11 11,-9 19,-11 19,-3 39,-4 55,-17 2,-2 9,-3 5,-9 -4,-5 -9,-4 -12,-1 -9,10 -21,10 -33,13 -9,1 -7,-3 -5,-7 10,-21 28,-31 49,-35 10,-2 19,-2 25,-11l3 -2c6,-6 13,-2 16,1 4,5 -2,9 -6,11 -8,6 -18,9 -20,20 7,4 15,2 22,1 10,0 19,-3 25,9 2,4 8,5 12,3 14,-7 30,-12 38,-27 3,-7 7,-10 15,-11 12,-2 20,-14 34,-12 4,0 7,0 11,1 7,2 13,2 17,-6 2,-6 7,-10 15,-11 6,-1 14,-7 11,-14 -2,-7 -10,-10 -18,-6 -7,2 -13,5 -18,11 -8,8 -18,10 -29,11 -30,5 -60,11 -93,16 8,-13 19,-17 30,-20 11,-2 16,-4 12,-17 -3,-15 -99,18 -84,15 8,-2 109,-49 109,-53 0,-6 -6,-3 -9,-4 -7,-1 -13,2 -17,7 -4,6 -9,5 -15,4 -2,0 -4,-5 -4,-8 0,-6 -97,35 -92,33 16,-7 135,-51 151,-65 -22,3 -41,7 -59,14 -15,6 -30,10 -45,17 -39,20 -178,62 -219,79 -5,2 -12,9 -16,2 -2,-6 7,-8 12,-10 29,-16 157,-58 188,-69 7,-2 10,-8 15,-10 46,-16 89,-40 136,-54 9,-2 16,-11 23,-18 -6,-4 -17,7 -18,-4 -2,-11 14,-3 18,-10 -14,-6 -25,-1 -27,12 -1,6 -4,7 -9,6 -10,0 -19,2 -27,9 -10,8 -24,8 -36,8 -12,0 -20,4 -25,15 -6,11 -15,18 -28,16 -3,0 -6,-1 -6,4 0,3 -3,5 -6,5 -31,8 -151,61 -183,67 -13,3 -25,14 -40,14 -9,0 -20,0 -23,-11 -2,-11 2,-19 13,-25 7,-4 113,-37 118,-44 8,-10 17,-12 29,-9 19,5 39,6 58,-3 3,-1 12,-2 5,-10 -2,-2 -9,-3 -4,-7 4,-3 11,-8 15,-3 15,18 26,3 35,-6 15,-15 33,-22 55,-20 6,1 8,-5 13,-10 -9,0 -15,-1 -22,-1 -4,0 -8,0 -8,-5 0,-4 2,-8 7,-9 13,-1 23,-8 32,-17 8,-8 21,-8 32,-8 5,0 9,1 12,-3 8,-10 19,-9 28,-3 8,4 13,3 17,-4 3,-8 9,-11 16,-11 20,-1 34,-17 54,-19 4,0 5,-7 4,-10 -1,-4 -5,-7 -11,-7 -17,3 -32,9 -46,20 -12,9 -29,12 -45,4 -4,-3 -10,-3 -12,2 -3,11 -13,10 -20,13 -10,3 -21,5 -28,14 -8,9 -21,5 -31,11 -17,10 -38,10 -57,19 -2,0 -3,1 -5,0 -6,-7 -24,-12 -36,-11 -2,-4 6,-3 4,-7 -2,-2 -5,-2 -8,0 -7,3 -14,5 -20,8 -5,3 -9,6 -15,9 20,5 28,9 45,18 -22,24 -124,62 -158,56 14,-10 71,-44 84,-53 2,-2 6,-2 5,-5 -3,-7 -5,0 -7,0 -13,1 -22,13 -35,14l1 0c-4,-3 -1,-8 -3,-14 -9,15 -24,9 -34,7 -13,-2 -18,6 -27,10l0 0c-8,3 -15,9 -21,11 -13,5 -22,13 -31,23 -5,5 -18,6 -27,10 4,-10 8,-17 14,-22 -30,8 -55,25 -83,36 -28,12 -26,-5 -54,6 -24,10 25,-5 0,0 12,-22 16,-29 42,-39 8,-2 -81,63 -74,58 2,-1 9,-5 6,5 -1,1 3,1 4,0 1,-3 7,-3 5,-5 -8,-7 1,-7 3,-10 19,-21 45,-30 69,-40 5,-2 11,-3 10,-11 0,-9 12,-3 13,-11 -7,-6 -31,-5 -43,4 -16,12 -35,20 -52,30 -23,15 50,-36 26,-23 -10,6 -20,10 -29,17 0,-5 12,-14 -4,-13 -4,0 -7,5 -12,4l0 -3c19,-9 32,-27 51,-36 16,-7 -72,40 -52,39 2,0 -3,-10 4,-13 -5,-2 -6,1 -8,3 -2,1 -4,4 -7,1 9,-2 -6,-8 2,-11 9,-3 16,-10 22,-19 2,-3 5,-8 12,-5 5,1 9,-5 13,-8 4,-3 7,-8 16,-6 -10,7 -14,15 -13,27 13,-8 27,-15 39,-24 4,-3 8,-3 13,-6 2,-2 4,-2 4,4 0,5 5,1 8,0 9,-6 19,-11 29,-15 -10,6 -21,13 -31,19 0,2 1,3 2,5 94,-46 189,-91 288,-133 -25,-4 -42,9 -60,18 -9,5 -17,8 -27,3 -6,-3 -15,-1 -23,-1 -6,0 -12,-1 -14,-8 -2,-7 5,-8 9,-12 15,-13 36,-11 53,-19 7,-4 16,-3 22,-10 3,-4 8,-6 13,-6 17,-2 32,-9 48,-14 15,-5 32,-5 47,-13 31,-18 67,-25 101,-37 43,-15 87,-23 131,-31 6,-1 11,-6 17,-6 -12,-2 -23,2 -35,4 -9,1 -18,3 -27,4 -2,1 -6,3 -7,-1 -1,-4 1,-7 5,-8 9,-2 18,-3 26,-6 33,-11 67,-16 101,-25 4,-1 9,-1 13,2 -15,10 -33,6 -52,15 45,1 81,-19 121,-22 40,-2 80,-1 118,-11 2,7 -8,4 -4,13 -1,-2 -1,-1 0,-1 10,-1 22,5 31,-6l4 -1c18,9 34,-6 50,-3 26,4 52,-6 77,-1 8,2 16,2 22,-3 12,-10 26,-7 39,-6 17,2 34,4 51,0 3,-1 7,-2 10,-1 35,7 72,-2 107,2 35,4 70,1 105,4 13,1 21,10 32,15 3,-5 -2,-8 -1,-13 6,0 9,2 8,9 0,3 0,6 3,7 4,1 6,0 7,-4 3,-8 8,-4 12,-1 9,5 16,9 21,-4 2,-3 5,-4 7,-3 8,2 16,2 23,4 34,9 68,17 101,28 17,6 37,10 56,11 13,0 18,12 26,20 -12,-6 -25,-4 -37,-4 -1,0 -3,0 -4,-1 -8,-16 -18,-8 -29,-3 -10,4 -21,1 -32,-4 -10,-5 -20,-12 -32,-7 -4,2 -6,-2 -9,-3 -4,-1 -9,-8 -14,1 -1,2 -5,3 -7,1 -20,-12 -44,-3 -65,-10 -24,-9 -50,-3 -74,-11 -2,0 -4,-2 -5,0 -5,13 -14,7 -22,5 -9,-1 -18,-1 -27,-1 -8,0 -15,1 -22,-5 -2,-1 -6,-1 -8,-1 -21,10 -44,4 -66,6 -20,2 -41,-3 -61,-5 -4,-1 -7,-1 -11,0 -9,5 -17,5 -27,2 -15,-5 -29,4 -44,3 -5,0 -2,4 -2,6 -2,5 2,4 4,4 7,1 13,0 14,9 1,8 9,8 15,6 18,-6 37,-3 55,-4 29,-3 58,-6 87,-4 38,3 76,-1 114,5 42,6 84,4 126,14 15,4 31,2 47,6 11,3 21,7 33,8 8,1 13,-5 18,-4 27,8 57,7 80,27 2,2 8,4 5,8 -3,5 -6,-1 -8,-1 -3,-1 -6,-3 -8,-2 -22,8 -39,-8 -58,-11 -22,-2 -43,-11 -65,-9 -2,0 -2,0 -1,3l1 3c-3,1 -6,4 -9,3 -7,-2 -14,-4 -20,-8 -8,-5 -15,-5 -24,-3 -14,4 -29,0 -44,-1 -19,-2 -40,4 -57,-9 -14,6 -28,-6 -41,0 -12,6 -19,2 -23,-8 -4,-8 -8,-7 -13,-3 -10,6 -21,12 -34,11 -12,-1 -24,-9 -36,4 -5,5 -13,-2 -21,-2 13,13 30,12 45,14 5,1 9,1 13,3 1,1 12,12 10,-4 -1,-3 8,-1 13,0 16,5 31,7 47,1 13,-5 26,-1 40,-2 17,-1 35,-5 49,10 2,2 4,1 6,-1 6,-9 16,-7 23,-5 12,3 27,0 37,11 2,3 9,3 13,2 24,-2 46,10 70,7l3 1c7,18 22,17 36,13 8,-2 12,-1 18,3 6,6 13,10 22,10 5,0 46,10 54,13 -7,3 -50,-1 -53,-4 -17,-12 -35,-8 -54,-5 -9,1 -19,0 -28,-7 -9,-8 -23,-4 -34,-2 -6,1 -14,0 -21,6 15,3 28,8 42,6 6,0 14,-3 17,4 2,4 -2,11 -7,14 -6,4 -10,-2 -15,-6 -2,-2 -5,-6 -10,-4 -3,2 -7,-5 -8,2 -1,6 3,10 7,9 9,-3 16,4 23,5 10,2 14,2 17,-8 3,-9 10,-10 18,-8 10,2 20,5 31,6 45,7 89,20 132,35 45,16 -11,-18 32,3 7,4 13,6 4,15 -9,9 -6,16 6,23 3,1 5,3 7,5 7,-2 -4,-11 5,-12 6,0 52,-2 56,2 6,5 -19,24 -9,28 5,2 -12,15 -11,26 0,2 -3,2 -5,0 -14,-13 -33,-17 -47,-29 -14,-12 -30,-20 -48,-24 -5,-1 -4,-8 -7,-9 -6,0 89,47 87,54 -1,2 -3,6 -4,5 -7,-9 -15,1 -22,-1 -10,-2 -6,-7 -4,-12 9,-16 8,-21 -8,-31 -4,-2 -5,-5 -3,-8 5,-9 -1,-10 -8,-12 -3,-1 -6,-2 -9,-4 -3,-1 0,-8 -7,-6 -5,2 -5,7 -7,11 -1,2 -1,5 1,7 3,3 5,0 7,-1 8,-7 16,0 15,5 0,10 6,16 11,23 2,3 5,8 3,11 -3,6 -9,1 -13,0 -11,-2 -19,-12 -30,-14 -7,-2 -13,-7 -19,2 -3,5 -10,4 -13,0 -4,-4 -7,-1 -9,0 -5,2 -1,5 0,8 1,8 11,13 16,13 17,-3 27,10 41,16 8,3 14,11 23,0 4,-4 15,-4 17,3 6,14 -84,-35 -74,-33 42,11 82,25 122,37 3,1 5,2 5,7 -16,-9 -33,-2 -49,-7 -62,-19 -22,11 -86,0 -45,-9 -91,-16 -137,-22 -60,-7 -120,-9 -181,-12 -12,0 -25,0 -37,1 13,18 35,7 52,11 11,2 26,-1 39,1 8,1 16,4 24,4 8,0 -4,7 3,9 5,1 14,0 13,6 -1,7 -9,4 -15,3l-2 3c-2,6 -10,10 -17,8 -10,-4 -19,-5 -25,5 -2,3 -4,1 -7,1 -7,0 -12,2 -18,5 -4,-9 -13,-1 -18,-4 -3,-2 -7,-1 -8,1 -5,14 -17,8 -26,10 -21,2 -41,6 -62,6 13,2 26,8 39,1 2,-1 4,0 5,1 3,3 -2,4 -2,6 28,0 56,-5 84,2 1,0 2,-1 3,1 9,12 9,12 29,14 -7,-8 -16,-4 -23,-8 15,-5 30,-3 45,1 5,1 3,6 0,8 -6,4 -12,6 -19,6 -13,0 -25,13 -40,4 -1,-3 8,-3 4,-6 -3,-2 -9,-4 -11,-3 -18,9 -37,1 -55,3 -16,2 -31,3 -46,1 -8,-2 -5,6 -5,10 -12,-5 -13,-5 -16,5 -2,4 -5,3 -7,2 -15,-9 -29,-4 -43,0 -5,2 -8,1 -12,-3 2,-5 9,-3 12,-8 -9,-2 -18,2 -27,-2l-4 2c-6,13 -7,15 -17,16 -16,2 -32,4 -48,5 -18,1 -38,3 -56,8 -18,5 -36,4 -54,8 -21,5 -43,6 -65,12 -21,5 -44,9 -66,12 -7,1 -13,4 -19,5 -30,7 -61,13 -91,22 -21,6 -42,11 -62,18 -17,5 -35,11 -52,16 -26,8 -51,16 -77,24 -29,8 -57,19 -84,31 -51,22 -13,-20 -62,6l-70 4 -41 14c-72,31 11,-18 -58,18 -25,13 -52,20 -79,30 -6,2 -13,4 -18,9 -5,1 -10,2 -15,3z"/>
    <polygon class="fil1" points="1596,2163 1598,2161 1596,2162 "/>
    <path class="fil1" d="M1421 2497c5,-1 9,-3 13,-4 -6,0 -9,2 -13,4z"/>
    <path class="fil2" d="M3179 1625l-6 15c22,-42 36,-89 42,-137 7,-48 6,-95 6,-140 1,-6 2,-18 3,-24 -3,-45 -23,-99 -44,-137 -6,-10 -15,-17 -23,-21 -7,-3 -14,-5 -14,-5 -5,-3 -14,-4 -15,2 4,10 15,34 8,37 -2,1 -4,-4 -6,-8 -6,3 -26,-5 -28,-9 -6,-3 -30,-24 -36,-25 -3,-2 -5,-1 -6,3 -2,4 -3,10 -4,16 -1,14 -2,31 0,40 0,10 -8,4 -13,6 5,7 2,14 8,21 -2,1 7,25 11,38 0,0 3,3 7,16 1,4 3,3 5,3 -2,0 -2,0 -4,1 5,3 4,13 7,16 -2,1 -2,1 -3,1 6,8 4,17 8,25 -2,0 -2,0 -4,1 1,4 2,8 0,9l-3 0c-1,5 4,12 0,13 2,0 2,0 4,-1 2,17 2,30 1,43 -5,33 -2,73 -7,109 -1,4 1,9 6,6 -1,4 -2,8 -3,12 -3,8 4,5 1,13 -5,34 -20,65 -39,94 -18,29 -41,55 -64,83 13,-12 26,-19 35,-34 1,1 4,3 7,0 10,-10 17,-22 25,-32 7,-11 14,-20 20,-24 4,-3 11,-4 17,-16l-6 12c1,1 4,3 4,3 6,-8 11,-17 16,-26 3,-4 5,-9 8,-13 2,-5 4,-9 6,-14 0,0 4,2 5,2l4 -8c7,-3 6,8 2,23 -4,14 -12,32 -18,43 2,0 5,2 7,3l4 -9 4 2c-7,13 -14,25 -21,36 -7,12 -15,23 -24,35 3,-4 9,-12 12,-16 1,1 3,2 6,-2 -6,8 -13,17 -20,26 -7,9 -14,18 -19,27 -1,5 6,4 17,-6 10,-12 16,-20 25,-32l3 2c-6,8 -17,19 -22,28 -2,5 11,-4 9,1 -3,4 -7,8 -9,13 5,-6 11,-13 16,-21 5,-7 11,-15 16,-20 5,-4 9,-7 12,-5 6,-12 14,-21 21,-30 7,-8 14,-14 22,-20 6,-3 16,-29 21,-44z"/>
    <path class="fil2" d="M3321 1490c-5,0 -11,0 -16,-1 23,5 48,2 70,-9 22,-10 41,-28 54,-50 12,-22 18,-48 17,-73 -2,-25 -10,-50 -23,-71 -3,-6 -9,-18 -13,-24 -19,-19 -47,-34 -78,-37 -31,-3 -61,6 -84,20 -11,8 -17,19 -19,28 -2,9 -1,15 -1,15 -2,7 1,16 7,14 4,-3 10,-9 17,-13 6,-3 12,-5 14,-2 1,2 -3,4 -6,7 2,3 2,9 3,15 0,5 0,10 -1,12 0,2 -1,9 -1,15 0,7 2,13 3,15 1,5 11,2 20,3 9,0 17,3 20,4 4,1 6,7 10,10 -1,-1 3,3 2,1l1 3 0 -1 0 0c0,-1 0,-2 1,-4 -1,2 -1,2 -1,4 1,-4 0,0 1,-2 -1,2 -1,2 -1,4 1,-4 0,0 0,-2l0 0 0 0 0 0 0 1 0 0c1,0 0,0 -1,-1l1 1 0 0 0 -1 0 0 0 0 0 0c0,2 1,3 1,3 0,5 -5,4 -6,2l-1 -3c0,-2 -1,-2 -2,-4 -2,0 -6,2 -4,4 -1,0 -5,1 -5,2 0,2 1,5 2,7 1,2 2,4 1,7 0,2 -2,8 2,10 -2,-1 -3,-2 -4,-2 -1,1 -3,4 -3,4 5,5 13,10 20,11 0,0 0,4 1,6 1,-1 2,-1 4,-1 3,6 -2,10 -10,11 -9,1 -19,-3 -25,-5 -1,1 -3,4 -4,6 2,1 4,2 6,3l-2 3c-17,-8 -29,-21 -36,-39 1,3 4,9 5,12 -1,0 -3,1 -1,4 -8,-11 -11,-28 -14,-41 -1,-4 -8,-1 -8,11 1,12 4,19 9,30l-3 1c-4,-7 -6,-19 -9,-26 -3,-4 -4,9 -7,5 0,-4 -1,-8 -3,-13 0,14 8,30 13,43 1,4 2,9 -1,11 16,18 29,32 41,47 1,2 9,6 18,8 10,2 21,2 29,2z"/>
    <path class="fil3" d="M996 1878l1 4 0 1 1 1 1 3c2,3 4,6 6,9 5,8 11,15 18,24 14,16 33,33 52,49 19,15 39,28 54,37 15,9 15,11 9,11 -2,0 -6,0 -9,0 -3,0 -5,0 -6,2 17,6 29,13 41,19 3,1 6,2 9,4 3,1 6,3 10,4 3,1 7,3 10,4 2,1 4,2 6,2 2,1 4,2 6,2 0,1 6,3 17,7 5,2 11,4 18,6 6,3 14,5 22,8 32,10 70,19 96,24 0,0 5,0 15,2 6,1 13,2 22,3 9,1 20,3 32,5 18,2 18,0 18,-1 0,1 0,1 0,3 9,-1 22,1 35,3 13,1 25,3 34,3 0,2 0,2 0,4 9,-1 17,0 26,0 4,0 9,0 13,1l11 1c3,0 6,0 9,0l0 0c2,0 4,-1 7,-1l0 -1 1 -1 0 1c92,-23 193,-65 273,-137l-57 -1 -31 -1 -17 0c-5,0 -10,-1 -16,-1 -16,0 -33,0 -51,0 -9,0 -17,0 -26,0l-3 0 -4 0 -5 0c-4,-1 -8,-1 -12,-1 -15,-1 -31,-1 -46,-2 -4,0 -8,0 -12,-1l-3 0 -2 0 -3 0c-4,0 -9,-1 -13,-1 -8,-1 -17,-2 -26,-2 -9,-1 -17,-2 -26,-3 -9,-1 -18,-2 -26,-3 -9,-2 -18,-2 -27,-4 -69,-10 -138,-24 -196,-43 -29,-9 -55,-14 -75,-18 -9,-2 -17,-3 -23,-3 -5,-1 -8,-1 -8,-1 -15,-4 -33,-6 -21,5 3,2 7,5 12,7 4,3 9,5 14,8 5,3 11,6 16,9 6,2 11,5 17,8 5,3 10,5 15,7 5,3 9,5 12,7 7,4 12,7 11,8 0,1 -4,0 -10,-2 -6,-2 -13,-5 -21,-8 0,2 -4,3 -9,3 -6,0 -13,0 -20,-1 -8,-1 -15,-2 -22,-4 -7,-2 -13,-4 -16,-6 -5,-1 -13,-4 -24,-9 -11,-4 -25,-10 -38,-17 -13,-7 -26,-15 -36,-21 -5,-4 -10,-7 -13,-10 -4,-2 -7,-4 -9,-6 -4,-4 -7,-6 -8,-6 -2,0 -2,3 0,7z"/>
    <path class="fil3" d="M996 1878l1 4 0 1 1 1 1 3c2,3 4,6 6,9 5,8 11,15 18,24 14,16 33,33 52,49 19,15 39,28 54,37 15,9 15,11 9,11 -1,0 -3,0 -5,0 -1,0 -3,0 -4,0 -3,0 -5,0 -6,2 17,6 29,13 41,19 3,1 6,2 9,4 3,1 6,3 10,4 3,1 7,3 10,4 2,1 4,2 6,2 2,1 4,2 6,2 0,1 6,3 17,7 5,2 11,4 18,6 6,3 14,5 22,8 32,10 70,19 96,24 0,0 5,0 15,2 6,1 13,2 22,3 9,1 20,3 32,5 18,2 18,0 18,-1 0,1 0,1 0,3 9,-1 22,1 35,3 13,1 25,3 34,3 0,2 0,2 0,4 9,-1 17,0 26,0 4,0 9,0 13,1l11 1c3,0 6,0 9,0l0 0c2,0 4,-1 7,-1l0 -1 1 -1 0 1c92,-23 193,-65 273,-137l-57 -1 -31 -1 -17 0c-5,0 -10,-1 -16,-1 -16,0 -33,0 -51,0 -9,0 -17,0 -26,0l-3 0 -4 0 -5 0c-4,-1 -8,-1 -12,-1 -15,-1 -31,-1 -46,-2 -4,0 -8,0 -12,-1l-3 0 -2 0 -3 0c-4,0 -9,-1 -13,-1 -8,-1 -17,-2 -26,-2 -9,-1 -17,-2 -26,-3 -9,-1 -18,-2 -26,-3 -9,-2 -18,-2 -27,-4 -69,-10 -138,-24 -196,-43 -29,-9 -55,-14 -75,-18 -9,-2 -17,-3 -23,-3 -5,-1 -8,-1 -8,-1 -15,-4 -33,-6 -21,5 3,2 7,5 12,7 4,3 9,5 14,8 5,3 11,6 16,9 6,2 11,5 17,8 5,3 10,5 15,7 5,3 9,5 12,7 7,4 12,7 11,8 0,1 -4,0 -10,-2 -6,-2 -13,-5 -21,-8 0,2 -4,3 -9,3 -6,0 -13,0 -20,-1 -8,-1 -15,-2 -22,-4 -7,-2 -13,-4 -16,-6 -5,-1 -13,-4 -24,-9 -11,-4 -25,-10 -38,-17 -13,-7 -26,-15 -36,-21 -5,-4 -10,-7 -13,-10 -4,-2 -7,-4 -9,-6 -4,-4 -7,-6 -8,-6 -2,0 -2,3 0,7l0 0z"/>
    <path class="fil4" d="M1066 2352c-2,1 -4,1 -4,1 1,0 3,0 4,0l0 -1z"/>
    <path class="fil4" d="M2019 2033c1,-3 3,-6 5,-8 1,-1 2,-3 3,-4l1 -2 1 -1 0 0c8,-1 17,-1 25,-1 -5,1 -16,4 -23,4l0 1 -1 1 -1 1 -3 4 -5 7c-1,-1 -2,-3 -12,11 3,-4 6,-9 10,-13zm3 -30c7,0 14,0 22,-1 -7,3 -15,4 -21,5l0 0 -2 -4 1 0zm247 58c-31,4 -61,8 -96,12 0,-1 0,-5 -18,-3 -19,1 -40,3 -60,4 -26,1 -27,1 -36,2 -2,2 -3,4 -5,7l-3 3 0 1 0 0 -1 1 -1 1c-1,1 -2,3 -3,4 -10,12 -20,24 -30,33 -4,5 -9,10 -14,14 -2,3 -4,5 -6,7 -3,2 -5,4 -7,5 -9,8 -17,14 -24,19 -3,2 -7,5 -12,7 -2,2 -4,3 -7,4 -2,2 -5,4 -8,5 -5,4 -12,8 -20,13 -2,1 -4,3 -6,4 -2,1 -5,3 -7,4 -5,3 -10,7 -15,10 7,-5 14,-9 22,-14 7,-6 14,-11 21,-16 -1,-2 -3,-4 -3,-4 -28,21 -63,41 -98,58 -36,17 -73,30 -107,39 0,0 -1,-3 -2,-5 -11,4 -22,6 -33,9 -9,0 -5,-4 9,-9 3,-1 7,-2 11,-4 5,-2 9,-3 14,-5 3,-1 6,-2 8,-3 3,-1 6,-2 9,-3 5,-2 11,-4 18,-7 1,0 3,-1 4,-2 2,0 4,-1 5,-2 3,-1 6,-2 10,-4 6,-2 13,-5 19,-8 7,-3 13,-7 20,-10 7,-3 13,-7 19,-10 7,-3 13,-7 19,-11 6,-3 12,-6 17,-10 5,-4 11,-7 16,-11 2,-1 4,-3 7,-5 2,-1 4,-3 6,-5 -1,-1 -3,-4 -4,-5 -2,1 -5,3 -7,5l-7 4 -14 10 -2 -3 12 -8 6 -4c2,-2 6,-4 7,-5l22 -17 22 -18 3 -3 3 -2 5 -5 10 -10 6 -5c1,-1 3,-3 4,-5l10 -10c3,-4 7,-7 10,-11l9 -11 9 -11c2,-2 3,-3 5,-5l4 -6 9 -12 4 -6 2 -3 1 -2 1 -1 1 0c8,0 17,-1 26,-1l12 -10c3,0 6,0 9,0 16,-1 32,-2 47,-4 32,-2 63,-6 90,-12 8,-2 8,-3 0,-4 -5,0 -11,-1 -19,0 -9,0 -19,1 -32,1 -9,1 -18,2 -27,3 2,0 3,0 4,-1 9,-1 0,-2 -8,-2 -8,-1 -17,-2 -9,-3 9,-1 17,-2 25,-3 8,-1 16,-2 24,-4 -22,3 -47,5 -72,7 -6,1 -12,1 -18,2l-2 -1 -18 1c0,0 -1,0 -4,1 -16,1 -32,1 -48,1l-1 2 -1 1 -1 2c-2,2 -3,3 -4,5 -2,3 -4,6 -6,9 -4,4 -7,9 -11,13 -2,2 -3,4 -5,6l-2 2 -1 1 -1 1c-5,4 -8,7 -10,5 -3,4 -6,8 -8,12 -2,2 -3,4 -5,6 -1,1 -3,3 -4,5 -7,7 -13,14 -19,20 -6,6 -12,12 -18,17 -2,2 -3,3 -5,4 -1,2 -3,3 -5,4 -3,3 -6,5 -9,7 -3,3 -6,5 -9,7 -3,2 -6,4 -9,6 -6,4 -12,8 -18,11 -12,6 -23,12 -34,16 -2,1 -5,2 -8,3 -3,2 -7,4 -12,6 -9,5 -19,11 -31,16 -11,6 -24,11 -36,16 -4,2 -8,3 -12,4 -2,2 -4,4 -5,6 0,0 -150,119 -234,152 -6,3 -13,5 -20,8l2 0c2,0 4,0 6,0l3 1c3,0 5,0 8,0 11,0 22,0 32,-1 19,0 37,-5 18,-8 10,0 19,0 28,-1 9,-1 18,-1 28,-2 18,-2 22,-4 27,-6 4,-2 9,-4 27,-7 43,-9 86,-22 128,-38 42,-17 82,-38 120,-62 38,-25 73,-54 104,-86l6 -6c2,-2 6,-5 7,-7l11 -11 11 -13c3,-4 7,-9 10,-13l11 -13 5 -7 1 -1c1,-2 4,-14 4,-14l6 10 5 0c7,-1 14,-1 21,-1 7,-1 14,-1 20,-2 28,-2 55,-4 83,-7 7,-1 14,-2 21,-3 7,-1 13,-2 20,-3l21 -3 21 -4c28,-6 56,-12 85,-22 -37,11 -68,15 -99,20z"/>
    <path class="fil5" d="M1713 2216c16,-13 29,-26 39,-37 2,-2 5,-5 8,-8l8 -9 3 -4c2,-1 3,-3 4,-4l7 -9 3 -4 4 -4 6 -9c2,-3 3,-6 5,-9 2,-3 4,-5 6,-8l5 -9c1,-3 2,-5 4,-8 3,-6 5,-11 8,-17 5,-11 10,-23 15,-34 3,-7 5,-13 8,-19l0 -1 1 -1 0 0 0 -2 1 -3 1 -6c3,-8 1,-17 4,-25 0,0 -96,89 -274,137l1 -1 -1 0 -1 1 0 0 -14 1c3,0 5,1 8,1 1,0 3,0 5,0l1 0 0 0 0 0c2,0 5,0 3,2 -2,2 -2,2 -4,4l2 0c1,0 2,0 -1,1 3,-1 3,-1 6,-3l1 0c1,0 2,0 3,0 -1,2 -2,3 -3,4 -3,2 -5,3 -8,4 -3,1 -4,1 -5,0l-1 0 0 0 -1 1c-3,1 -5,3 -8,4 -5,3 -10,6 -16,8 -5,3 3,19 -3,21 -40,34 -78,51 -141,48l-21 16 0 4c-19,2 -54,6 -83,11 -42,8 -43,18 -45,17 -3,-1 -11,0 -11,0l-12 7c-77,17 -172,-28 -172,-28 12,16 37,22 37,22 -12,4 16,11 16,11 51,12 57,21 52,20 -5,-2 -5,8 -5,8l51 9 8 0c6,19 -39,13 -52,13 -13,0 -7,8 -7,8l8 6c0,0 -39,-3 -89,-14 -46,-10 -8,6 1,13 8,7 -5,9 -12,10 0,0 29,-1 49,16 0,0 32,2 37,7 0,0 13,12 31,14l64 3 94 -10c0,0 64,-9 76,-5 12,3 29,1 43,-4 0,0 39,-12 80,-36 40,-25 147,-95 167,-115l6 -6z"/>
    <path class="fil6" d="M1553 708l16 -2c-95,3 -96,0 -185,16 -6,0 -18,0 -24,0 -44,10 -95,33 -135,55 -10,5 -16,15 -20,23 -4,8 -6,14 -6,14 -3,6 -4,15 2,16 11,-3 36,-15 39,-8 1,2 -4,4 -9,6 3,7 -5,28 -10,30 -3,6 -26,31 -29,37 -10,12 43,15 64,12 11,-1 4,8 7,13 8,-6 15,-3 24,-9 0,1 7,-1 16,-4 9,-3 20,-7 27,-11 0,0 4,-3 18,-9 5,-2 4,-4 4,-5 0,1 0,1 1,3 3,-5 14,-5 18,-9 1,2 1,2 2,3 8,-7 19,-7 28,-12 0,2 0,2 1,4 5,-2 9,-4 10,-2l1 4c6,0 14,-7 15,-4l-1 -3c19,-6 34,-9 49,-12 41,-4 -7,9 37,-2 5,-1 9,-6 3,-9l15 -3c10,-2 4,-6 14,-8 20,-5 39,-10 60,-12 20,-3 40,-5 60,-6l60 -1c20,1 40,1 60,0 -20,-2 -35,-7 -55,-5 0,-2 0,-6 -5,-6 -15,-1 -32,0 -46,0 -8,0 -14,0 -21,0 -5,-1 -11,-1 -15,-3 -5,-1 -10,-6 -26,-5l16 -1c-1,-2 -1,-6 -1,-6 -10,0 -22,0 -34,0 -12,0 -23,2 -34,2 0,0 0,-4 0,-6l-11 2c-12,-12 45,-19 72,-22 0,-2 -1,-6 -1,-8l-11 1 0 -3c16,-2 31,-4 45,-4 15,-1 30,-1 46,-2 -6,0 -16,1 -22,1 0,-2 0,-4 -5,-4 21,-1 48,0 70,-2 5,-2 0,-8 -16,-10 -17,-1 -28,0 -44,0l0 -3c11,-1 27,0 38,-1 6,-2 -11,-6 -5,-8 5,0 11,0 16,-1 -16,-2 -38,2 -55,0 -5,-1 -11,-3 -11,-7 -7,1 -14,1 -20,1 -6,0 -12,0 -17,-1 -12,-1 -22,-4 -30,-8 -3,-2 -12,-1 -21,0 -10,1 -21,3 -29,4z"/>
    <path class="fil6" d="M1286 505c6,-1 11,-1 17,-1 -24,-3 -50,3 -71,16 -11,7 -21,15 -30,25 -8,9 -15,20 -20,32 -6,12 -9,24 -11,37 -1,13 -1,26 0,39 4,26 15,50 31,71 3,6 10,18 15,23 21,18 52,30 83,30 16,0 32,-3 46,-8 15,-5 28,-12 38,-20 11,-9 16,-21 17,-31 2,-9 0,-16 0,-16 1,-7 -3,-15 -9,-13 -4,3 -9,10 -16,14 -6,5 -12,7 -14,3 -1,-1 2,-4 6,-7 -3,-3 -4,-9 -5,-15 -1,-6 -2,-11 -1,-12 0,-3 0,-10 -1,-16 -1,-7 -3,-13 -4,-14 -2,-6 -12,-2 -21,-2 -9,1 -18,-2 -22,-3 -3,-1 -6,-6 -11,-10 1,2 -2,-3 -1,-1l0 0 0 0c0,0 0,-1 0,2l0 -2c0,0 0,-2 0,0l0 -1 0 0 0 1 0 0 0 0 0 -1 -1 1c0,0 0,0 2,0l-1 0 -1 -1 1 1 0 0 0 0 0 -1c-1,-2 0,-3 1,-4l2 1 1 3c0,0 0,1 1,2 2,0 6,-2 4,-3 2,-1 6,-2 6,-2 0,-3 -2,-5 -3,-7 -1,-2 -2,-3 -1,-7 0,-2 2,-8 -2,-9 1,0 3,1 4,1l2 -5c-4,-5 -13,-8 -20,-9 0,0 -1,-4 -1,-6 -1,1 -3,1 -4,1 -4,-6 0,-10 9,-12 8,-2 19,1 25,3 1,-2 2,-5 3,-7 -2,-1 -4,-2 -5,-2l1 -4c18,7 31,18 40,36 -1,-3 -5,-9 -7,-11 2,-1 3,-3 1,-5 9,11 14,27 19,40 1,4 8,0 7,-12 -3,-12 -6,-19 -12,-29l3 -2c5,7 8,19 12,26 3,4 3,-10 6,-6 1,4 3,8 5,12 -2,-13 -11,-29 -18,-41 -1,-5 -3,-10 0,-12 -18,-17 -32,-30 -45,-44 -3,-3 -10,-6 -20,-7 -10,-1 -22,0 -30,1z"/>
    <path class="fil7" d="M2239 704l16 3c-91,-29 -91,-32 -180,-46 -6,-2 -17,-6 -22,-8 -45,-6 -102,-1 -146,7 -11,2 -21,8 -27,14 -6,7 -10,12 -10,12 -5,5 -9,13 -4,16 12,1 39,-2 40,5 0,2 -5,3 -11,3 1,8 -14,25 -19,25 -5,4 -35,20 -39,25 -14,8 35,29 56,32 11,3 1,10 2,16 10,-4 15,2 25,-1 0,1 8,1 18,1 9,0 21,0 28,-1 0,0 5,-2 20,-3 6,0 5,-2 5,-4 0,2 0,2 1,4 4,-4 15,0 20,-2 0,1 0,1 0,3 10,-4 20,0 30,-2 0,2 0,2 0,4 6,0 11,0 11,2l0 3c5,2 15,-2 15,2l0 -4c20,1 35,3 50,6 40,9 -10,6 35,9 5,1 11,-2 7,-6l14 2c10,1 6,-5 16,-3 20,2 41,4 61,8 19,4 39,9 58,15l57 18c19,8 38,14 57,20 -18,-9 -31,-18 -50,-23 0,-2 2,-5 -3,-7 -14,-6 -30,-10 -44,-15 -7,-2 -13,-5 -19,-7 -5,-3 -10,-5 -13,-8 -4,-3 -8,-9 -23,-13l15 4c0,-2 1,-6 1,-6 -10,-3 -21,-7 -32,-11 -11,-4 -22,-6 -32,-9 0,0 1,-4 1,-6l-10 -2c-8,-15 49,-3 74,3 1,-2 2,-6 2,-7l-10 -3 1 -4c15,4 30,7 44,12 14,4 28,8 43,13 -5,-1 -15,-5 -20,-6 0,-2 1,-4 -4,-5 20,6 45,15 66,20 6,0 3,-7 -11,-14 -16,-7 -26,-9 -42,-14l2 -4c10,4 25,10 36,12 6,0 -9,-9 -3,-9 5,2 10,4 16,4 -15,-7 -37,-10 -52,-17 -5,-4 -9,-7 -8,-11 -7,-2 -13,-4 -19,-6 -6,-2 -11,-4 -16,-6 -10,-5 -19,-11 -26,-18 -2,-3 -10,-5 -20,-7 -9,-2 -20,-4 -28,-5z"/>
    <path class="fil7" d="M2054 423c6,2 11,3 17,5 -22,-10 -48,-13 -73,-8 -12,2 -24,7 -36,13 -11,6 -21,14 -30,24 -9,9 -16,20 -22,31 -6,12 -10,24 -13,37 -5,26 -3,52 5,77 1,7 4,20 7,27 14,24 39,45 69,56 15,5 30,8 46,8 15,0 29,-3 42,-7 14,-5 22,-15 27,-23 4,-9 5,-16 5,-16 3,-6 2,-15 -4,-15 -5,2 -13,6 -20,8 -8,2 -14,2 -15,-2 -1,-1 4,-3 8,-4 -1,-4 0,-10 0,-16 1,-6 2,-11 4,-12 0,-2 3,-9 4,-16 2,-6 1,-12 1,-14 0,-6 -10,-6 -19,-9 -9,-2 -17,-8 -20,-9 -3,-3 -4,-9 -7,-14 1,2 -1,-3 -1,-2 0,-1 0,0 0,1l0 0c0,0 1,-1 0,1l0 -1 0 -1 1 0 0 0 -1 1 0 0 0 -1 1 0 -1 0c0,0 0,0 1,1l-1 -1 0 0 0 1 0 0 0 0 0 -1c0,-2 1,-3 2,-3l2 1 0 3c0,0 0,1 1,3 2,0 6,0 5,-3 2,1 5,1 6,0 1,-2 0,-4 -1,-6 0,-2 0,-4 2,-8 1,-2 4,-6 1,-9l3 3 4 -4c-3,-6 -10,-13 -16,-16 0,0 0,-4 1,-5 -2,-1 -3,-1 -4,-1 -2,-7 4,-10 12,-8 8,1 18,7 23,11 1,-2 4,-4 5,-6 -1,-1 -3,-3 -4,-4l2 -3c15,13 24,28 26,47 0,-3 -1,-9 -3,-12 2,-1 4,-2 3,-5 5,13 4,30 4,44 1,4 8,3 11,-9 1,-12 1,-20 -2,-31l4 -1c2,8 1,20 2,29 2,4 6,-9 8,-4 0,4 0,8 1,13 2,-13 -1,-31 -3,-45 0,-5 0,-10 4,-11 -12,-22 -21,-39 -29,-57 -1,-3 -8,-8 -17,-12 -8,-5 -19,-8 -28,-10z"/>
    <path class="fil8" d="M2908 930l14 9c-74,-60 -73,-62 -151,-108 -4,-4 -13,-12 -18,-16 -39,-22 -93,-38 -137,-47 -12,-2 -23,1 -31,4 -8,3 -13,7 -13,7 -7,3 -14,9 -10,14 11,4 37,12 35,19 -1,2 -6,0 -11,-1 -2,7 -22,18 -27,16 -6,2 -40,6 -46,9 -15,2 23,39 41,51 9,6 -2,9 -4,14 10,1 14,8 24,9 0,1 7,4 16,7 9,4 19,8 27,10 0,0 5,0 19,5 5,2 6,0 7,-2 -1,2 -1,2 -2,4 6,-2 15,5 20,5 0,1 0,1 -1,3 11,0 19,7 29,9 -1,2 -1,2 -1,4 5,2 9,3 9,5l-2 4c4,3 15,3 14,7l1 -4c19,8 32,16 45,24 34,23 -12,2 29,22 4,2 11,1 8,-4l13 7c9,5 8,-2 16,3 18,9 37,18 53,30 17,11 34,22 49,35l47 38c14,14 29,27 45,39 -13,-14 -22,-27 -38,-40 1,-1 4,-4 0,-7 -11,-11 -24,-21 -35,-30 -6,-5 -11,-9 -15,-14 -4,-4 -8,-8 -10,-11 -3,-5 -4,-13 -16,-22l12 9c1,-1 4,-4 4,-4 -8,-7 -17,-15 -26,-22 -9,-8 -19,-14 -27,-21 0,0 2,-3 3,-5l-9 -5c-2,-17 47,15 69,30 1,-2 3,-5 4,-6l-8 -7 2 -3c13,10 25,18 37,27 11,9 22,18 35,28 -4,-3 -13,-10 -17,-13 1,-1 3,-3 -2,-6 17,13 37,31 55,43 5,3 5,-5 -6,-18 -12,-11 -21,-17 -33,-27l2 -3c9,7 20,18 30,24 5,2 -5,-12 1,-10 4,4 8,8 13,10 -12,-12 -30,-23 -42,-35 -3,-5 -6,-10 -4,-13 -6,-4 -11,-8 -15,-12 -5,-4 -9,-8 -13,-12 -8,-9 -13,-17 -17,-26 -2,-3 -8,-9 -16,-14 -8,-5 -18,-11 -25,-16z"/>
    <path class="fil8" d="M2839 602c5,3 9,7 14,11 -17,-18 -40,-30 -65,-35 -12,-2 -25,-2 -38,-1 -13,2 -25,6 -37,11 -11,6 -22,13 -32,22 -10,8 -18,18 -25,29 -14,22 -22,47 -24,74 -1,6 -3,20 -3,27 4,28 19,57 43,78 12,10 26,18 40,24 14,5 29,8 42,9 14,0 26,-6 33,-12 7,-6 10,-12 10,-12 6,-5 8,-14 2,-16 -5,0 -14,1 -21,0 -8,-1 -14,-3 -13,-7 0,-2 4,-1 9,-1 0,-4 3,-10 6,-15 3,-5 6,-9 8,-10 1,-2 6,-7 9,-13 4,-5 6,-11 6,-13 3,-5 -7,-9 -14,-15 -8,-6 -13,-13 -15,-16 -1,-4 0,-10 -1,-15 -1,2 -1,-4 -1,-2 1,-1 0,0 0,0l0 0c0,0 1,-1 -1,1l1 -1 0 0 1 -1 0 1 -1 0 0 0 0 0 1 0 -1 0 1 1 0 -1 -1 -1 0 1 0 0 0 0 0 0c1,-3 3,-3 4,-3l1 2 -1 2c0,1 0,2 0,4 1,1 6,2 5,-1 2,1 5,3 5,2 2,-1 2,-4 2,-6 1,-2 1,-4 4,-6 2,-2 7,-5 5,-9l2 4 5 -2c0,-7 -4,-15 -10,-21 0,0 2,-3 4,-4l-4 -2c1,-7 7,-8 15,-4 7,4 13,13 17,19 2,-1 5,-2 7,-3 -1,-2 -2,-4 -3,-6l3 -1c10,16 12,34 7,53 1,-3 2,-10 2,-13 2,0 4,0 4,-3 0,14 -7,29 -12,43 -1,3 6,5 14,-5 5,-10 8,-18 9,-30l4 1c-1,8 -6,19 -8,27 0,5 9,-5 9,-1 -2,4 -4,8 -5,13 8,-12 11,-29 14,-43 2,-4 4,-9 8,-9 -3,-24 -5,-44 -6,-63 0,-3 -4,-11 -11,-18 -7,-7 -16,-14 -23,-19z"/>
    <path class="fil9" d="M2577 2002l-16 5c94,-19 95,-17 180,-48 5,-1 17,-3 23,-4 42,-17 89,-48 124,-77 9,-7 13,-17 16,-26 2,-9 3,-15 3,-15 2,-6 2,-16 -5,-16 -10,5 -32,21 -37,15 -1,-2 4,-5 8,-8 -4,-6 0,-28 5,-31 2,-6 21,-35 22,-41 8,-14 -45,-7 -65,-1 -11,3 -6,-7 -9,-12 -7,8 -15,6 -22,13 0,-1 -7,3 -15,7 -9,5 -19,11 -25,15 0,0 -3,5 -16,12 -5,3 -4,5 -3,6 -1,-1 -1,-1 -2,-3 -2,6 -13,8 -16,12 -1,-1 -1,-1 -2,-3 -7,9 -18,10 -26,17 -1,-2 -1,-2 -1,-3 -5,2 -9,5 -10,3l-2 -3c-5,1 -12,9 -14,6l2 3c-18,9 -33,15 -47,20 -40,11 6,-10 -35,9 -5,1 -8,7 -2,8l-15 6c-9,3 -2,7 -12,10 -18,9 -37,17 -56,23 -20,5 -39,11 -59,15l-59 12c-20,3 -39,6 -59,10 20,-1 36,1 55,-4 1,2 1,6 6,5 15,-2 31,-6 46,-9 7,-1 14,-2 20,-2 6,-1 11,-1 15,-1 5,1 12,5 27,1l-15 4c0,2 1,6 1,6 10,-2 22,-4 33,-6 12,-3 23,-6 33,-8 0,0 2,4 2,5l10 -3c14,9 -41,26 -67,34 1,2 2,6 3,7l10 -2 1 3c-16,4 -30,9 -44,12 -15,3 -29,6 -45,9 6,-1 16,-3 21,-4 1,2 1,4 6,2 -21,5 -47,9 -68,15 -5,2 1,7 18,7 16,-2 26,-5 42,-8l1 3c-11,3 -27,4 -37,8 -5,3 11,4 6,7 -5,0 -11,1 -16,4 17,-2 38,-9 54,-10 6,0 12,1 13,5 6,-2 13,-3 19,-4 6,-2 12,-2 17,-3 12,0 22,1 31,3 4,1 12,0 21,-3 9,-3 20,-7 28,-9z"/>
    <path class="fil9" d="M2874 2156c-5,2 -11,3 -16,4 24,-1 48,-11 67,-28 10,-8 18,-18 25,-29 7,-11 12,-23 15,-36 3,-12 4,-25 4,-38 -1,-13 -3,-26 -7,-38 -8,-25 -23,-47 -42,-65 -4,-5 -14,-16 -19,-20 -24,-14 -56,-21 -87,-16 -16,3 -31,9 -44,16 -14,8 -25,17 -34,27 -10,10 -12,23 -12,33 0,10 3,16 3,16 1,7 6,15 11,11 3,-4 8,-11 13,-17 6,-5 12,-8 14,-5 2,1 -2,4 -4,8 3,2 5,8 7,14 2,5 3,10 3,12 1,2 1,9 4,15 2,7 5,12 6,14 3,5 12,0 21,-2 9,-3 18,-2 22,-1 3,1 7,5 12,8 -1,-1 3,2 2,1l0 0 0 0c0,-1 0,1 0,-2l0 2c0,-1 0,1 0,0l0 1 0 0 0 -1 0 0 0 0 0 0 1 0c0,0 0,0 -2,0l1 0 0 0 0 0 0 0 0 0 0 0c1,2 1,4 0,4l-2 0 -1 -2c-1,-1 -1,-1 -3,-3 -2,1 -5,4 -3,5 -2,1 -5,2 -5,3 0,2 2,4 4,5 1,2 2,3 2,8 0,2 -1,8 4,8 -2,0 -3,0 -4,-1l-2 6c5,4 14,6 22,5 0,0 1,4 2,6 1,-1 2,-1 4,-2 4,5 1,11 -7,14 -8,3 -19,2 -26,1 0,2 -1,6 -2,7 2,1 4,1 6,2l0 3c-19,-3 -34,-12 -46,-28 2,3 6,8 9,10 -2,1 -3,3 -1,5 -10,-9 -18,-24 -24,-37 -3,-3 -8,2 -6,14 5,11 9,18 17,26l-2 3c-6,-6 -12,-17 -17,-24 -3,-3 -1,10 -5,7 -2,-4 -4,-8 -7,-11 5,13 16,27 25,38 2,4 4,9 2,12 20,13 37,23 52,35 3,2 11,4 21,3 10,-1 21,-3 29,-6z"/>
    <path class="fil10" d="M642 1603l-8 -15c38,88 36,90 83,167 2,6 6,17 8,22 25,38 65,78 100,106 9,7 20,10 29,11 9,1 15,0 15,0 7,1 16,-1 15,-8 -7,-9 -27,-27 -22,-33 1,-1 5,2 9,6 5,-5 28,-5 32,-2 6,1 38,14 44,14 15,5 -2,-46 -12,-64 -5,-10 6,-7 10,-11 -9,-6 -8,-13 -17,-19 1,-1 -4,-7 -10,-14 -6,-7 -14,-16 -19,-21 0,0 -6,-2 -16,-13 -3,-4 -5,-3 -6,-2 1,-1 1,-1 3,-2 -7,-1 -11,-11 -16,-14 2,-1 2,-1 3,-2 -9,-5 -13,-16 -21,-22 1,-1 1,-1 3,-3 -4,-3 -7,-7 -6,-8l3 -3c-2,-5 -11,-10 -8,-13l-3 3c-13,-16 -21,-29 -29,-42 -19,-37 11,4 -16,-33 -2,-4 -8,-6 -9,0l-8 -13c-5,-8 -7,-1 -12,-10 -12,-16 -24,-33 -34,-51 -9,-18 -18,-36 -26,-54l-23 -56c-7,-18 -14,-37 -22,-55 5,19 6,34 15,53 -2,0 -6,2 -4,7 5,14 12,29 17,42 3,7 5,14 7,19 2,6 3,11 3,15 1,6 -2,13 5,27l-7 -14c-2,1 -5,2 -5,2 4,10 8,21 12,32 5,11 10,21 14,31 0,0 -3,2 -4,3l5 9c-7,15 -34,-36 -47,-59 -2,1 -5,3 -7,3l5 10 -3 2c-7,-15 -14,-28 -20,-41 -6,-14 -12,-27 -18,-42 2,5 6,15 8,20 -1,1 -3,1 -1,6 -9,-20 -18,-45 -28,-64 -3,-4 -7,3 -3,19 5,15 10,25 16,40l-3 1c-4,-10 -9,-25 -15,-35 -4,-4 -2,12 -5,8 -2,-5 -4,-10 -8,-15 5,16 17,35 21,51 1,6 1,12 -2,13 3,6 5,12 7,18 3,6 5,12 6,17 3,11 4,21 3,31 0,3 3,11 8,20 5,8 10,18 14,25z"/>
    <path class="fil10" d="M550 1925c-3,-5 -5,-10 -7,-15 6,23 21,45 41,60 10,8 21,14 33,19 12,4 25,7 38,7 13,1 25,0 38,-3 13,-4 25,-8 36,-15 23,-13 42,-31 56,-54 4,-5 12,-16 15,-22 10,-27 10,-59 -2,-89 -6,-15 -14,-29 -24,-40 -10,-11 -21,-21 -33,-28 -12,-7 -25,-7 -35,-5 -9,2 -14,6 -14,6 -7,2 -14,9 -10,14 5,2 13,5 20,9 6,4 10,9 8,13 -1,1 -5,-1 -9,-3 -2,3 -7,6 -12,10 -5,3 -10,5 -11,5 -2,1 -9,3 -15,6 -6,4 -10,8 -11,10 -5,3 2,11 5,20 5,8 6,17 6,21 0,4 -4,8 -6,14 1,-2 -2,3 -1,1l1 1 0 -1c0,0 -1,1 1,0l-1 0c0,0 -2,1 0,1l-2 0 1 0 1 0 0 0 0 0 -1 -1 1 1c0,0 0,0 -1,-1l0 0 0 1 1 0 0 -1 0 0 -1 1c-2,1 -3,1 -4,0l0 -2 2 -1c1,-1 1,-1 2,-3 -1,-2 -4,-5 -5,-2 -1,-2 -3,-5 -4,-5 -2,1 -3,3 -5,5 -1,2 -2,3 -6,4 -2,0 -8,1 -8,5 0,-2 0,-3 0,-4l-6 -1c-2,6 -3,16 -1,23 0,0 -3,2 -5,3l2 3c-3,6 -9,3 -14,-4 -5,-7 -6,-18 -6,-24 -2,-1 -6,-1 -8,-1 0,2 0,4 0,6l-4 0c0,-19 6,-36 19,-50 -2,2 -7,7 -8,10 -2,-1 -3,-2 -5,1 7,-12 20,-22 31,-32 2,-3 -3,-7 -14,-2 -10,7 -16,12 -23,22l-3 -2c5,-7 15,-15 20,-21 2,-4 -10,1 -8,-3 4,-3 7,-6 10,-10 -12,7 -24,21 -32,32 -4,3 -8,6 -11,5 -10,22 -17,41 -25,58 -1,3 -1,11 1,21 3,9 8,20 12,27z"/>
    <path class="fil11" d="M880 941l13 -10c-82,49 -84,47 -154,104 -5,2 -16,8 -21,11 -34,29 -68,74 -92,113 -6,9 -8,21 -7,30 0,9 2,15 2,15 0,7 3,16 9,13 8,-8 24,-30 30,-25 2,1 -1,5 -4,9 6,5 9,27 5,31 0,7 -8,40 -7,46 -4,16 45,-7 62,-20 9,-6 7,5 12,8 4,-9 12,-10 16,-19 1,1 6,-5 13,-12 6,-7 14,-16 18,-22 0,0 2,-5 12,-17 3,-4 1,-5 0,-6 1,1 1,1 3,2 0,-6 10,-11 11,-17 2,2 2,2 3,3 4,-10 14,-15 19,-24 1,1 1,1 3,2 3,-4 7,-7 8,-6l3 2c5,-2 8,-12 11,-10l-2 -2c13,-15 25,-25 37,-34 34,-23 -2,11 31,-20 4,-3 5,-9 -1,-9l12 -10c7,-6 0,-7 8,-13 15,-14 30,-28 46,-40 16,-11 33,-23 50,-34l52 -30c18,-9 36,-18 53,-28 -19,7 -34,10 -51,21 -1,-2 -3,-5 -7,-3 -14,7 -28,16 -40,23 -7,4 -13,7 -18,9 -6,3 -11,5 -15,5 -5,2 -12,0 -25,8l13 -8c-1,-2 -4,-5 -4,-5 -9,5 -19,11 -29,17 -10,5 -20,12 -29,17 0,0 -2,-3 -3,-4l-9 6c-16,-4 31,-38 52,-53 -1,-2 -3,-5 -4,-7l-9 6 -2 -3c14,-9 26,-17 38,-25 13,-8 25,-15 39,-23 -5,2 -14,8 -18,11 -1,-2 -2,-4 -7,-1 19,-11 42,-23 60,-36 4,-4 -3,-6 -19,-1 -14,8 -23,14 -37,22l-2 -3c9,-6 24,-13 32,-20 4,-4 -12,1 -8,-4 5,-2 10,-5 14,-9 -15,7 -33,21 -48,27 -6,1 -11,3 -13,-1 -6,4 -12,8 -17,10 -6,4 -11,6 -16,8 -11,4 -21,7 -30,7 -4,0 -11,5 -19,10 -8,6 -16,13 -23,18z"/>
    <path class="fil11" d="M548 891c5,-3 10,-6 15,-9 -23,9 -42,27 -55,49 -6,10 -11,23 -14,35 -3,13 -3,26 -2,39 1,12 4,25 8,37 5,12 11,24 19,34 16,21 37,37 61,48 5,4 18,10 24,13 27,6 60,1 88,-14 14,-8 26,-18 36,-29 11,-11 18,-24 24,-37 5,-12 4,-25 0,-34 -3,-9 -8,-14 -8,-14 -3,-7 -10,-13 -14,-8 -2,5 -4,14 -7,21 -3,6 -8,11 -11,9 -2,0 0,-4 1,-9 -3,-1 -7,-6 -11,-11 -4,-4 -7,-8 -7,-10 -1,-2 -4,-8 -8,-14 -4,-5 -9,-9 -11,-10 -4,-4 -11,4 -19,8 -8,6 -17,8 -20,9 -4,0 -9,-3 -15,-4 2,1 -3,-1 -2,-1l0 1 0 0c1,0 0,-1 1,1l-1 -1c1,0 0,-2 0,-1l0 -1 0 1 0 1 0 0 0 0 0 -1 0 1c0,0 0,0 1,-1l-1 0 0 0 0 0 1 1 0 0 -1 -1c-2,-1 -2,-3 -1,-4l2 0 2 2c1,0 1,0 3,1 2,-1 4,-5 2,-5 1,-1 4,-4 3,-4 -1,-2 -3,-4 -5,-5 -2,-1 -3,-2 -4,-6 -1,-1 -2,-8 -7,-7 2,0 3,0 4,0l0 -6c-6,-2 -15,-1 -22,2 0,0 -3,-3 -4,-5l-3 3c-6,-3 -4,-9 2,-15 6,-5 17,-8 24,-9 0,-2 -1,-6 -1,-8 -2,0 -4,0 -6,1l-1 -4c20,-3 37,1 53,12 -3,-2 -8,-5 -11,-6 0,-2 1,-4 -2,-5 13,5 25,17 36,26 3,2 7,-4 0,-14 -8,-9 -14,-14 -24,-20l1 -3c8,4 16,13 23,17 5,2 -2,-10 3,-8 3,3 6,6 10,8 -8,-11 -24,-20 -35,-27 -4,-4 -8,-7 -6,-11 -24,-6 -43,-11 -61,-17 -3,-1 -12,1 -21,4 -9,4 -19,10 -26,15z"/>
    <path class="fil12" d="M2279 1029c-1,-3 -1,-8 -3,-11 -2,-2 -7,1 -8,4 -1,3 0,8 5,10 2,0 4,0 6,-3zm-872 -49c10,0 19,1 30,-7 -12,2 -22,1 -30,7zm733 262c-6,-3 -13,-5 -20,-4 5,8 13,6 20,4zm-1028 -115c-3,0 -6,0 -9,-1 -2,0 -6,-1 -6,0 2,4 -1,7 -2,10 3,0 6,0 9,-1 3,-2 8,-1 8,-8zm812 -184c9,0 18,0 30,0 -12,-12 -21,-5 -30,0zm-298 150c5,1 8,9 12,4 4,-4 -1,-11 1,-16 -9,0 -6,10 -13,12zm26 2c10,-2 18,-4 25,-5 2,0 5,0 5,-3 0,-2 -2,-4 -5,-4 -9,0 -17,4 -25,12zm-50 -8c-5,9 -14,11 -12,19 1,2 9,2 12,-1 7,-5 -1,-9 0,-18zm133 -197c11,5 26,3 34,-2 -12,-4 -23,0 -34,2zm-201 67c-14,-2 -27,1 -39,7 13,-1 26,0 39,-7zm822 92c-3,12 -2,14 0,13 8,-8 14,-2 20,2 2,1 6,2 7,-1 1,-4 -2,-5 -5,-6 -7,-3 -14,-5 -22,-8zm-1139 31c-1,-5 -6,-5 -7,-5 -9,9 -20,10 -31,14 -2,0 -1,2 -1,4 0,2 1,2 3,2 12,-5 24,-10 36,-15zm1061 -33c-19,-8 -43,-2 -58,-23 -1,-1 -4,-2 -7,-1 -2,1 -3,5 -2,5 11,0 15,14 23,15 15,3 29,7 44,4zm-655 -33c-18,1 -35,-2 -52,10 7,4 12,2 15,-1 5,-3 11,-2 13,-1 12,9 18,4 24,-8zm-314 21c-28,8 -55,17 -81,28 -4,2 -6,4 -4,7 1,4 5,1 7,0 7,-3 12,-10 20,-11 21,-4 38,-17 58,-24zm729 -62c17,14 36,10 58,7 -20,-12 -39,-8 -58,-7zm15 64c14,7 28,3 43,3 -5,-6 -26,-6 -6,-18 2,-1 3,-7 0,-9 -4,-2 -9,-4 -13,-4 -3,-1 -2,3 -2,6 4,15 4,15 -12,17 -4,1 -7,1 -10,5zm289 -2l0 1c14,5 28,10 42,14 4,1 7,1 9,5 2,7 7,7 12,6 7,-2 13,-4 20,-6 -2,-2 -5,-3 -8,-4 -13,-5 -29,-5 -39,-19 -2,-3 -3,-3 -5,0 -7,7 -15,10 -24,3 -1,-1 -4,0 -7,0zm-783 -9c-7,-3 -15,-6 -23,1 -3,3 -9,4 -13,2 -10,-3 -19,1 -27,5 -6,4 -16,5 -20,15 30,-2 59,-3 83,-23zm1045 130c-11,-21 -46,-38 -70,-34 -4,1 -8,2 -10,-3 -3,-9 -13,-10 -21,-17 7,26 26,28 44,33 2,-2 -4,-6 2,-8 3,0 7,3 6,4 -2,8 6,9 8,8 15,-2 23,7 33,15 2,1 5,3 8,2zm-1237 -72c6,-6 11,-9 18,-9 23,-2 45,-10 68,-16 3,-1 5,-2 7,-2 5,-2 5,-6 5,-10 0,-5 -4,-3 -7,-3 -9,0 -16,5 -23,6 -17,3 -34,5 -51,2 -4,-1 -7,-1 -9,2 -10,14 -30,0 -41,14l-3 0c-6,-4 -11,0 -17,1 -16,4 -30,16 -48,17 -13,0 -24,5 -32,17 6,-7 13,-3 20,-3 7,-1 14,-2 20,-3 11,-1 21,1 31,-5 2,-2 6,-1 5,-5 -4,-9 2,-5 6,-5 6,1 7,1 7,0 -6,-11 4,-5 6,-6 9,-4 20,1 30,-3 9,-5 10,1 8,11zm-291 398c5,-10 10,-19 23,-19 7,1 9,-4 7,-11 -2,-15 13,-39 29,-42 26,-6 50,-15 74,-28 11,-6 14,-17 18,-28 4,-10 24,-21 34,-16 10,5 21,4 32,7 4,2 8,-2 9,-6 0,-4 -4,-3 -8,-4 -7,0 -18,2 -18,-8 0,-10 11,-7 18,-8 17,-1 35,-1 50,-11 3,-1 9,-1 5,-7 -3,-5 -7,-5 -10,-2 -9,8 -20,7 -30,8 -8,1 -6,-3 -4,-6 11,-18 28,-25 47,-27 9,-1 16,0 22,-8l4 -2c5,-4 12,0 14,3 3,5 -3,8 -7,10 -7,4 -16,6 -19,16 6,4 13,2 19,3 9,0 17,-1 22,10 1,3 6,5 9,3 14,-4 28,-8 37,-21 3,-6 7,-8 14,-8 11,-1 20,-11 32,-8 3,1 6,0 9,2 6,3 11,3 15,-4 3,-5 8,-8 15,-8 6,-1 13,-5 12,-12 -2,-6 -9,-10 -16,-7 -6,2 -12,3 -18,8 -7,7 -16,7 -26,8 -27,2 -54,4 -84,6 9,-11 19,-14 28,-15 10,-1 15,-3 13,-15 -2,-13 5,-21 18,-23 8,0 7,-5 7,-9 1,-5 -4,-3 -7,-4 -6,-1 -11,1 -15,5 -5,5 -10,4 -14,2 -2,0 -3,-5 -3,-7 1,-6 5,-7 10,-8 14,-4 30,-5 45,-15 -20,0 -37,2 -53,7 -14,4 -28,6 -42,11 -37,14 -75,24 -113,35 -4,1 -11,7 -13,0 -2,-5 7,-6 11,-8 27,-11 55,-22 84,-28 6,-1 9,-7 14,-8 42,-11 83,-28 126,-36 8,-2 15,-9 22,-14 -5,-5 -16,4 -16,-6 0,-10 13,-2 17,-7 -12,-7 -22,-4 -25,8 -2,5 -4,6 -8,5 -10,-1 -18,0 -26,6 -9,6 -21,5 -32,3 -11,-1 -18,2 -24,11 -6,10 -14,15 -26,13 -3,-1 -5,-2 -6,3 0,3 -3,4 -5,4 -28,4 -50,25 -80,28 -11,0 -23,10 -37,9 -8,-1 -17,-2 -18,-13 -2,-9 3,-16 13,-20 7,-3 14,-8 19,-13 9,-9 17,-10 27,-6 17,6 34,9 52,3 3,-2 11,-1 5,-9 -2,-2 -8,-4 -3,-7 4,-2 11,-6 14,-2 12,18 23,6 31,-1 16,-13 32,-17 51,-13 5,1 8,-4 13,-8 -8,-2 -14,-3 -20,-4 -3,0 -7,0 -6,-5 0,-3 2,-7 7,-7 12,1 20,-5 30,-12 8,-6 19,-6 29,-4 4,0 7,1 10,-2 9,-9 18,-7 26,-1 6,5 11,5 15,-2 3,-6 9,-8 15,-8 18,0 32,-13 50,-12 4,0 5,-6 5,-9 -1,-4 -4,-7 -9,-7 -16,1 -30,5 -43,13 -12,8 -27,9 -40,0 -4,-3 -9,-3 -11,1 -4,9 -12,8 -20,10 -9,2 -18,3 -26,10 -7,7 -19,3 -28,7 -16,8 -35,6 -52,12 -2,0 -3,1 -4,-1 -6,-6 -21,-12 -32,-13 -1,-3 6,-2 4,-5 -1,-2 -4,-2 -6,-1 -6,2 -13,4 -19,6 -4,1 -8,4 -14,6 17,6 34,1 48,11 -21,19 -84,35 -114,27 13,-8 26,-15 38,-22 2,-1 6,-1 5,-4 -2,-6 -4,0 -6,0 -12,-1 -21,9 -32,9l0 1c-3,-4 0,-8 -1,-13 -9,12 -22,6 -30,3 -12,-3 -17,4 -25,6l-1 1c-6,2 -13,6 -19,8 -12,3 -20,9 -30,17 -4,5 -16,4 -24,7 4,-9 8,-14 14,-19 -27,5 -51,18 -77,26 -26,8 -51,19 -77,26 -21,7 -40,22 -63,25 13,-19 18,-25 42,-32 6,-1 13,-1 20,-4 2,-2 8,-4 5,4 -1,2 2,1 3,0 1,-2 7,-1 5,-3 -6,-8 1,-7 4,-9 19,-17 42,-23 65,-30 4,-1 9,-1 10,-9 0,-7 10,-2 12,-9 -6,-6 -27,-7 -39,1 -15,9 -32,14 -48,22 -22,11 -45,21 -67,32 -9,4 -18,7 -27,12 0,-5 12,-12 -2,-12 -3,-1 -7,4 -11,2l0 -2c17,-7 31,-22 48,-28 15,-5 25,-21 42,-20 2,1 -1,-9 5,-11 -4,-2 -5,1 -7,2 -2,0 -4,3 -6,0 8,0 -6,-7 3,-9 8,-2 15,-8 20,-15 3,-3 6,-7 12,-4 4,2 8,-4 11,-6 5,-2 8,-6 15,-3 -9,5 -14,12 -13,23 12,-6 24,-12 36,-19 4,-2 8,-2 12,-4 2,-2 4,-2 4,4 -1,4 4,2 7,0 8,-4 17,-8 27,-10 -10,5 -20,9 -30,14 1,2 1,3 2,5 88,-34 176,-65 267,-94 -21,-6 -38,4 -55,11 -8,3 -15,5 -24,0 -5,-4 -13,-2 -20,-3 -5,-1 -10,-2 -11,-8 -2,-7 5,-7 9,-10 14,-11 32,-7 48,-13 7,-2 14,-1 20,-7 3,-3 8,-4 13,-4 15,-1 29,-5 44,-9 14,-3 29,-1 42,-7 30,-13 62,-16 93,-24 39,-10 79,-13 119,-16 6,-1 10,-5 16,-4 -11,-3 -21,-1 -31,0 -8,1 -16,1 -25,2 -2,0 -5,2 -6,-2 0,-3 2,-6 6,-7 7,-1 15,-1 23,-3 30,-7 61,-9 91,-13 4,-1 8,0 12,2 -14,8 -30,3 -47,10 39,4 73,-10 109,-9 35,1 70,6 106,0 1,6 -8,3 -5,12 -1,-3 -1,-2 -1,-2 10,0 20,6 29,-2l3 -1c15,10 31,-2 45,2 23,5 46,-1 69,6 6,2 13,2 19,-1 12,-8 23,-4 35,-2 15,3 30,6 45,4 3,0 6,-1 9,0 31,10 64,5 95,12 30,6 62,7 92,13 11,2 18,10 27,15 4,-4 -1,-7 0,-11 6,0 9,3 7,9 -1,2 -1,5 2,6 3,1 5,0 7,-3 3,-7 7,-3 10,0 7,6 14,10 19,-1 2,-3 4,-3 7,-2 6,2 13,2 20,5 29,11 58,22 86,34 15,7 32,12 49,14 11,2 14,14 21,21 -10,-6 -21,-6 -32,-7l-4 -1c-6,-15 -15,-9 -26,-6 -8,3 -18,0 -27,-6 -8,-5 -17,-12 -28,-9 -4,1 -5,-3 -8,-3 -3,-2 -7,-8 -12,-1 -1,2 -4,2 -7,1 -16,-13 -38,-7 -56,-15 -20,-10 -44,-7 -65,-16 -1,-1 -3,-2 -4,0 -6,10 -12,4 -20,2 -7,-2 -16,-3 -23,-4 -7,0 -14,0 -20,-6 -1,-1 -5,-2 -7,-1 -19,6 -39,-1 -59,-1 -17,0 -35,-6 -53,-10 -4,-1 -7,-1 -10,0 -8,3 -16,2 -24,-2 -13,-5 -26,2 -40,-1 -3,0 -2,4 -2,6 -1,4 1,4 4,4 5,1 11,1 11,9 0,7 8,8 12,7 17,-4 34,0 50,1 26,0 52,-1 77,4 34,6 68,6 101,14 36,9 74,12 110,24 13,5 28,4 41,10 9,4 18,8 29,10 6,1 12,-4 16,-2 23,9 50,11 68,31 2,2 7,4 4,8 -3,3 -5,-2 -7,-2 -3,-1 -5,-3 -7,-3 -20,6 -34,-11 -51,-14 -19,-5 -36,-15 -56,-15 -2,0 -2,1 -1,3l0 3c-2,1 -6,3 -8,2 -6,-2 -12,-5 -17,-9 -6,-5 -13,-6 -21,-4 -13,1 -26,-3 -38,-6 -17,-3 -36,1 -50,-13 -13,4 -24,-8 -37,-3 -11,4 -17,0 -20,-10 -2,-7 -5,-6 -11,-4 -9,5 -19,10 -30,8 -11,-2 -21,-11 -33,0 -5,4 -11,-3 -18,-4 10,13 25,14 38,17 4,1 8,1 11,4 2,1 10,11 10,-3 -1,-2 7,0 11,1 14,6 27,9 42,5 12,-3 23,2 35,2 15,0 31,-1 43,13 1,2 4,1 5,0 6,-8 15,-5 21,-3 11,4 24,2 32,13 2,3 7,4 11,4 22,-1 40,12 61,12l3 1c5,17 18,17 31,15 6,-1 11,0 15,4 5,6 11,10 19,11 5,0 7,4 14,7 -7,2 -11,4 -14,1 -14,-12 -31,-10 -47,-10 -9,1 -17,-1 -24,-8 -8,-8 -21,-6 -31,-5 -5,0 -12,-1 -19,4 13,4 24,9 37,9 5,0 12,-1 15,5 1,4 -3,9 -7,12 -7,3 -10,-2 -13,-7 -2,-2 -5,-6 -9,-4 -3,1 -6,-6 -8,1 -1,5 3,9 6,9 8,-3 13,4 20,6 8,3 12,3 16,-5 3,-8 9,-9 16,-7 9,3 18,7 27,9 40,10 77,26 114,43 38,18 77,35 113,58 6,3 12,6 2,13 -8,8 -6,14 4,21 2,2 4,4 6,6 6,-2 -3,-10 5,-10 5,-1 9,4 12,7 4,6 4,13 13,17 4,3 2,19 2,29 0,2 -3,1 -5,-1 -11,-13 -27,-19 -39,-30 -11,-12 -24,-21 -40,-26 -4,-1 -3,-8 -6,-8 -4,-1 -10,-3 -13,3 -1,2 -3,5 -3,4 -6,-8 -14,0 -20,-2 -9,-3 -5,-7 -3,-11 10,-14 10,-19 -4,-29 -3,-2 -4,-5 -2,-7 6,-8 1,-10 -6,-12 -2,-1 -5,-2 -7,-4 -3,-1 0,-7 -6,-6 -5,1 -5,6 -7,9 -1,2 -1,4 0,6 2,3 5,1 7,0 7,-5 13,2 13,6 -2,9 3,15 6,21 2,4 4,8 2,11 -3,4 -8,0 -11,-1 -10,-3 -16,-13 -25,-16 -6,-2 -11,-7 -17,1 -4,4 -9,2 -12,-2 -3,-3 -6,-1 -8,-1 -4,2 -1,5 -1,8 1,7 9,13 13,12 16,0 23,13 35,19 7,3 12,11 21,2 4,-3 13,-2 15,4 3,13 13,13 23,16 35,13 69,30 104,44 2,1 4,2 4,7 -14,-10 -30,-5 -43,-11 -53,-22 -106,-44 -161,-60 -40,-12 -79,-22 -120,-31 -52,-12 -105,-19 -159,-27 -11,-1 -22,-2 -33,-3 10,18 30,10 45,15 10,2 23,2 34,4 7,2 14,6 22,6 7,0 -5,6 1,8 4,2 13,2 12,7 -2,6 -9,3 -14,1l-3 3c-2,5 -9,8 -16,5 -8,-4 -15,-6 -22,2 -2,3 -4,1 -6,1 -6,-1 -11,1 -17,3 -2,-9 -11,-2 -16,-6 -2,-1 -5,-1 -6,1 -6,12 -16,6 -25,6 -18,1 -36,2 -55,1 12,2 23,9 35,4 2,-1 3,0 4,1 2,3 -2,4 -2,5 24,2 50,1 73,9l3 1c7,12 7,12 24,15 -5,-7 -13,-5 -19,-9 14,-3 27,1 40,5 4,2 2,6 -1,8 -5,2 -11,4 -17,3 -12,-1 -24,10 -36,0 -1,-3 7,-1 4,-5 -2,-2 -7,-4 -10,-3 -17,6 -32,-3 -49,-2 -13,0 -27,0 -40,-4 -7,-2 -6,5 -6,9 -10,-5 -10,-6 -14,3 -2,3 -5,2 -7,1 -12,-9 -25,-6 -38,-3 -4,1 -7,-1 -10,-4 2,-5 9,-2 11,-7 -7,-2 -16,1 -23,-3l-4 1c-6,11 -8,13 -16,13 -15,0 -29,1 -43,0 -17,0 -34,-1 -51,2 -16,3 -33,1 -49,3 -19,2 -38,2 -58,5 -20,3 -40,4 -60,5 -6,0 -11,2 -17,3 -28,3 -56,6 -83,11 -19,3 -38,6 -57,11 -15,3 -31,6 -47,10 -23,5 -47,10 -70,14 -27,5 -53,13 -78,21 -47,15 -94,30 -140,48l-3 2 0 0c-66,21 -133,41 -198,67 -23,9 -48,14 -72,20 -6,2 -12,3 -17,7 -5,0 -9,0 -14,1z"/>
   </g>
   <path class="fil13" d="M1169 2999c5,0 9,-2 14,-5 5,-4 8,-10 8,-18 0,-6 0,-13 0,-20 0,-8 -1,-14 -1,-21 0,-6 0,-12 -1,-17 0,-5 0,-8 0,-9 5,-3 12,-5 19,-7 8,-1 15,-2 21,-2 13,0 24,4 32,12 9,7 14,20 17,37 1,7 2,14 2,22 1,9 2,18 2,28 0,34 -5,64 -14,89 -10,25 -23,45 -39,61 -17,16 -37,28 -59,36 -23,7 -48,11 -75,11 -29,0 -55,-4 -79,-12 -23,-8 -44,-20 -61,-35 -18,-15 -31,-33 -41,-55 -10,-22 -15,-47 -16,-75 -23,-11 -43,-29 -60,-54 -17,-24 -25,-56 -25,-96 0,-34 7,-65 21,-94 14,-28 34,-53 61,-74 26,-20 57,-37 94,-48 37,-12 78,-18 124,-18 50,0 95,7 137,22 41,14 77,34 107,61 29,26 53,58 69,95 17,38 25,79 25,125 0,18 -1,36 -4,53 -4,18 -7,33 -11,48 -5,14 -9,27 -14,38 -6,11 -10,21 -14,29 6,4 12,10 19,16 7,6 15,13 23,20 8,6 16,13 24,20 8,7 16,13 23,18 0,20 -6,35 -15,46 -10,12 -24,17 -42,17 -8,0 -16,-1 -25,-5 -9,-4 -18,-11 -28,-19 -9,-9 -20,-21 -31,-35 -12,-15 -25,-33 -39,-55 -2,-4 -4,-7 -5,-10 -2,-3 -2,-7 -2,-11 0,-4 0,-9 2,-15 2,-5 4,-13 7,-21 5,-15 10,-34 15,-56 5,-23 8,-45 8,-67 0,-35 -6,-65 -18,-92 -12,-28 -28,-51 -48,-70 -20,-19 -44,-33 -72,-44 -28,-10 -57,-15 -89,-15 -31,0 -58,4 -82,11 -24,8 -44,19 -61,32 -16,13 -28,29 -37,47 -8,18 -13,37 -13,58 0,12 2,22 5,30 7,-10 15,-18 24,-24 8,-6 18,-9 30,-9 8,0 15,2 20,4 6,3 10,6 14,10 4,4 7,9 9,14 2,5 3,10 4,14 -7,8 -14,20 -20,36 -6,16 -9,35 -9,55 0,35 9,61 29,79 19,17 43,26 71,26 21,0 39,-4 53,-13 14,-8 24,-19 30,-33 -9,3 -20,4 -31,4 -30,0 -54,-8 -74,-23 -19,-16 -29,-40 -29,-72 0,-25 6,-44 17,-58 11,-13 25,-20 40,-20 10,0 19,2 27,6 7,4 12,8 17,12 -3,6 -5,13 -7,20 -2,7 -3,15 -3,25 0,15 2,25 8,31 6,6 13,9 22,9z"/>
   <path id="1" class="fil13" d="M1648 3185c-5,1 -11,2 -20,3 -9,1 -18,2 -27,2 -19,0 -34,-3 -44,-9 -10,-6 -15,-19 -15,-40l0 -486c4,-1 11,-2 20,-4 8,-1 17,-2 26,-2 19,0 34,3 44,9 11,6 16,20 16,40l0 487z"/>
   <path id="2" class="fil14" d="M1797 3037c0,-19 4,-37 11,-53 -11,-5 -21,-12 -31,-21 -10,-8 -18,-19 -26,-31 -8,-12 -13,-26 -18,-41 -4,-15 -6,-31 -6,-48 0,-31 6,-59 18,-84 12,-25 29,-47 52,-66 22,-18 50,-32 82,-43 31,-10 67,-15 107,-15 19,0 38,2 57,5 19,3 37,7 54,13 17,5 33,12 47,19 15,7 27,15 38,23 11,9 19,18 22,26 4,8 6,18 6,29l0 437c-6,2 -13,3 -21,4 -9,1 -17,2 -25,2 -21,0 -35,-3 -44,-8 -9,-6 -14,-14 -15,-24 -13,9 -30,17 -50,23 -20,6 -44,10 -71,10 -61,0 -108,-15 -139,-43 -32,-29 -48,-66 -48,-114zm189 -315c-5,0 -11,0 -16,0 -6,1 -11,1 -16,2l150 281 0 -250c-11,-9 -27,-17 -48,-23 -22,-7 -45,-10 -70,-10zm12 388c13,0 25,-1 37,-4 11,-3 21,-8 31,-13l-73 -132c-28,2 -51,9 -67,22 -16,13 -24,30 -24,52 0,25 9,44 25,56 17,13 40,19 71,19zm-129 -197c11,-8 24,-14 39,-19 15,-4 30,-7 45,-8l-73 -135c-15,11 -26,23 -34,39 -7,15 -11,32 -11,51 0,17 3,32 10,44 6,12 15,21 24,28z"/>
   <path id="3" class="fil14" d="M1983 2467c24,0 46,2 67,5 22,4 42,8 61,13 18,5 36,11 51,18 16,7 29,14 40,21 12,7 22,15 30,24 8,8 12,18 12,29 0,12 -4,22 -10,30 -7,8 -16,15 -28,20 -27,-22 -59,-39 -96,-52 -38,-12 -79,-18 -124,-18 -47,0 -89,6 -126,19 -38,12 -70,29 -96,51 -11,-4 -19,-11 -27,-19 -8,-8 -11,-18 -11,-30 0,-18 9,-35 29,-49 24,-18 55,-33 92,-44 37,-12 83,-18 136,-18z"/>
   <path id="4" class="fil15" d="M2568 2798c16,4 28,11 37,21 8,9 12,19 12,29 0,12 -3,21 -8,29 -6,8 -12,14 -20,20 -10,-6 -22,-11 -36,-16 -14,-4 -29,-7 -46,-7 -9,0 -19,1 -28,3 -10,2 -20,5 -29,9 -9,5 -18,11 -26,18 -8,8 -15,17 -20,28 7,-1 14,-2 21,-3 7,0 14,-1 21,-1 30,0 57,4 80,11 23,7 43,17 59,30 16,12 28,27 37,45 8,17 12,36 12,56 0,18 -3,34 -10,50 -6,15 -16,29 -28,40 -13,12 -29,21 -47,27 -19,7 -41,10 -65,10 -26,0 -51,-4 -75,-13 -24,-9 -44,-21 -61,-38 -18,-17 -32,-38 -42,-63 -10,-25 -15,-54 -15,-87 0,-33 5,-61 15,-86 10,-24 24,-45 40,-62 16,-18 35,-31 56,-40 20,-9 41,-15 63,-18l0 -9c0,-21 4,-40 14,-57 10,-18 23,-33 39,-45 16,-12 35,-21 57,-28 22,-7 45,-10 70,-10 33,0 60,3 83,10 23,7 42,16 56,26 8,6 14,14 17,22 3,8 4,17 4,27l0 459c-5,1 -12,2 -20,3 -8,1 -17,2 -25,2 -9,0 -18,-1 -25,-2 -8,-1 -15,-4 -20,-8 -6,-3 -10,-8 -13,-15 -3,-6 -4,-15 -4,-25l0 -403c-6,-2 -14,-5 -22,-7 -9,-3 -18,-4 -29,-4 -22,0 -41,6 -56,19 -15,12 -23,28 -23,50l0 3zm-134 213c-5,0 -11,0 -18,1 -8,1 -15,2 -24,4 2,32 12,56 30,72 18,15 38,23 61,23 16,0 28,-3 37,-11 9,-7 13,-17 13,-30 0,-7 -2,-14 -5,-22 -4,-7 -10,-13 -17,-19 -8,-5 -18,-10 -31,-13 -12,-3 -28,-5 -46,-5z"/>
   <path id="5" class="fil15" d="M3112 2671c2,5 4,10 6,16 1,5 2,13 2,22l0 475c-6,1 -12,3 -21,4 -8,1 -17,2 -25,2 -19,0 -34,-3 -45,-10 -11,-6 -16,-19 -16,-39l0 -369 -90 74c-14,-4 -27,-12 -37,-23 -11,-10 -16,-23 -16,-38 0,-12 3,-22 9,-30 6,-9 16,-18 31,-29l118 -80c1,0 3,-1 6,-1 4,0 7,0 11,0 19,0 33,3 44,8 11,5 19,11 23,18z"/>
   <path class="fil16" d="M1015 3412c3,0 6,-1 8,-3 2,-2 4,-5 4,-9 0,-5 -1,-9 -1,-12 0,-3 -1,-6 -1,-9 1,-1 2,-1 3,-1 1,-1 3,-1 4,-1 5,0 8,4 9,10 0,3 0,6 1,9 0,3 0,6 0,8 0,10 -1,18 -4,25 -2,6 -6,12 -10,16 -4,4 -9,7 -15,9 -6,2 -12,3 -18,3 -7,0 -14,-1 -20,-3 -6,-3 -11,-6 -15,-10 -5,-4 -8,-9 -11,-15 -2,-6 -3,-13 -3,-20l0 -1c-3,-1 -6,-3 -8,-5 -3,-3 -5,-5 -7,-9 -3,-3 -4,-7 -6,-12 -1,-5 -2,-11 -2,-17 0,-9 2,-18 6,-26 4,-8 9,-15 16,-20 6,-6 14,-11 24,-14 9,-3 19,-5 30,-5 13,0 24,2 35,6 10,4 19,10 26,17 7,7 13,16 17,25 4,10 6,21 6,33 0,7 -1,13 -2,18 -1,6 -2,11 -4,15 -1,4 -3,8 -4,12 -2,3 -4,6 -5,8l25 24c-1,2 -2,5 -3,6 -1,2 -4,3 -6,3 -4,0 -8,-2 -12,-6 -5,-5 -10,-12 -16,-21 -1,-1 -2,-3 -2,-3 -1,-1 -1,-2 -1,-3 0,-1 1,-2 1,-2 0,-1 1,-2 1,-3 1,-3 3,-5 4,-8 1,-3 2,-7 3,-11 1,-3 2,-8 3,-12 1,-5 1,-10 1,-16 0,-10 -2,-20 -5,-28 -3,-9 -8,-16 -14,-22 -6,-5 -13,-10 -21,-13 -9,-3 -17,-4 -27,-4 -8,0 -16,1 -23,3 -7,3 -14,6 -19,11 -5,4 -10,9 -13,16 -3,6 -4,13 -4,21 0,11 2,20 8,25 2,-6 4,-11 7,-15 3,-3 6,-5 9,-5 3,0 5,1 6,3 1,1 2,3 2,5 -2,2 -4,5 -7,10 -3,4 -4,11 -4,18 0,12 3,21 9,27 7,6 15,9 25,9 8,0 15,-2 20,-6 6,-3 9,-9 11,-17 -2,2 -4,3 -6,4 -2,1 -5,1 -8,1 -3,0 -7,-1 -10,-2 -3,-1 -6,-2 -8,-5 -3,-2 -5,-5 -6,-8 -2,-4 -2,-8 -2,-13 0,-7 1,-12 3,-16 2,-3 5,-5 9,-5 1,0 3,1 4,1 1,1 2,2 3,3 -1,2 -2,4 -3,7 -1,3 -2,6 -2,9 0,5 2,9 4,12 3,3 6,4 11,4z"/>
   <path id="1" class="fil16" d="M1130 3455c-1,1 -2,1 -3,1 -1,0 -2,0 -3,0 -3,0 -6,0 -7,-1 -2,-1 -3,-3 -3,-6l0 -143c1,0 2,-1 3,-1 1,0 2,0 4,0 3,0 5,0 7,1 1,1 2,3 2,6l0 143z"/>
   <path id="2" class="fil16" d="M1181 3416c0,-4 0,-7 1,-10 0,-3 1,-5 2,-7 -3,-2 -5,-4 -8,-6 -3,-3 -6,-6 -8,-9 -2,-4 -4,-8 -5,-13 -2,-4 -3,-9 -3,-15 0,-9 2,-17 5,-23 4,-7 8,-13 14,-18 6,-5 13,-8 21,-11 8,-2 17,-4 27,-4 6,0 11,1 16,2 5,1 9,2 13,3 4,2 8,3 10,5 3,1 5,2 6,3 4,2 6,4 8,6 1,2 2,5 2,9l0 127c-2,1 -3,1 -4,1 -1,0 -2,0 -2,0 -4,0 -6,0 -7,-1 -2,-1 -2,-3 -2,-5l0 -5c-4,3 -9,5 -15,8 -7,3 -15,4 -24,4 -14,0 -26,-4 -35,-11 -8,-7 -12,-17 -12,-30zm47 -101c-7,0 -13,1 -19,2l57 109 0 -100c-2,-1 -4,-2 -6,-3 -3,-2 -6,-3 -9,-4 -3,-1 -7,-2 -11,-3 -4,-1 -8,-1 -12,-1zm1 128c5,0 10,0 15,-2 5,-1 9,-3 12,-5l-26 -49c-10,0 -18,3 -24,8 -6,5 -9,12 -9,20 0,10 3,17 9,21 6,5 14,7 23,7zm-36 -56c3,-3 8,-6 13,-8 5,-3 11,-4 17,-4l-27 -53c-6,4 -11,8 -14,14 -4,6 -6,12 -6,20 0,8 2,15 5,20 4,5 8,9 12,11z"/>
   <path id="3" class="fil16" d="M1338 3455c-2,1 -3,1 -4,1 -1,0 -2,0 -3,0 -3,0 -6,0 -7,-1 -2,-1 -2,-3 -2,-6l0 -143c0,0 1,-1 2,-1 2,0 3,0 4,0 3,0 5,0 7,1 2,1 3,3 3,6l0 143z"/>
   <path id="4" class="fil16" d="M1415 3333c0,-5 1,-10 2,-14 2,-3 4,-7 6,-9 3,-3 5,-4 9,-6 3,-1 6,-1 10,-1 6,0 10,1 14,4 4,3 6,6 8,9 2,-4 4,-8 8,-10 4,-2 8,-3 14,-3 3,0 6,0 10,1 3,2 6,4 8,6 3,3 5,6 7,11 1,4 2,9 2,15 0,9 -1,16 -3,21 -3,6 -6,11 -10,14 -4,4 -9,7 -15,10 -5,2 -12,4 -20,5l-2 0c-6,1 -11,2 -15,4 -4,1 -7,3 -10,5 -3,2 -4,5 -6,8 -1,3 -2,7 -2,11 0,4 1,8 3,11 2,4 4,7 8,9 4,3 8,5 14,6 6,2 13,2 21,2 6,0 12,0 18,-1 6,-2 11,-3 16,-5 4,-2 8,-5 12,-7 3,-3 6,-6 8,-8l0 -115c1,0 2,-1 3,-1 1,0 2,0 4,0 3,0 5,0 7,1 1,1 2,3 2,6l0 143c-1,1 -2,1 -3,1 -1,0 -2,0 -3,0 -3,0 -6,0 -7,-1 -2,-1 -3,-3 -3,-6l0 -9c-2,2 -5,4 -9,6 -3,2 -8,4 -12,5 -5,2 -11,3 -16,4 -6,1 -13,2 -20,2 -19,0 -34,-4 -44,-12 -11,-8 -16,-18 -16,-31 0,-7 1,-13 4,-18 2,-4 5,-8 9,-12 4,-3 9,-6 15,-8 6,-1 13,-3 20,-4l3 -1c11,-1 20,-5 25,-10 6,-5 9,-14 9,-25 0,-4 -1,-7 -1,-10 -1,-2 -2,-5 -4,-6 -1,-2 -2,-3 -4,-3 -2,-1 -3,-1 -5,-1 -3,0 -6,1 -9,3 -2,3 -4,7 -4,12l0 19c-1,1 -2,2 -3,2 -2,0 -3,0 -4,0 -2,0 -3,0 -4,0 -2,0 -3,-1 -3,-2l0 -19c0,-5 -2,-9 -4,-12 -3,-2 -6,-3 -9,-3 -4,0 -7,1 -9,4 -3,2 -5,7 -5,13 0,5 1,9 3,12 1,3 3,5 5,7 -1,1 -2,3 -3,4 -2,1 -3,1 -5,1 -4,0 -8,-2 -11,-6 -3,-4 -4,-10 -4,-18z"/>
   <path id="5" class="fil16" d="M1637 3315c-5,0 -10,1 -15,3 -5,2 -9,5 -13,9 -4,4 -7,10 -10,16 -2,7 -4,15 -5,24 1,0 3,0 5,0 1,0 3,-1 5,-1 9,0 17,2 25,4 7,2 14,6 20,10 5,4 10,10 13,17 4,6 6,14 6,23 0,12 -4,21 -11,27 -7,7 -16,10 -27,10 -7,0 -13,-1 -19,-4 -7,-3 -12,-7 -17,-13 -5,-6 -9,-14 -12,-24 -3,-9 -4,-21 -4,-35 0,-15 2,-28 5,-38 4,-11 8,-19 14,-25 6,-6 12,-11 19,-14 7,-2 13,-4 20,-4 4,0 8,1 11,1 3,1 5,2 7,3 2,1 3,2 4,4 0,1 1,2 1,4 0,1 -1,3 -2,4 -1,1 -1,2 -2,3 -2,-1 -4,-2 -7,-3 -4,-1 -7,-1 -11,-1zm-31 66c-3,0 -5,0 -7,0 -2,0 -4,0 -5,1l0 3c0,10 1,18 3,25 2,8 4,14 8,18 3,5 7,9 11,11 4,2 9,3 14,3 6,0 12,-1 16,-5 4,-4 6,-9 6,-17 0,-6 -2,-11 -4,-16 -3,-5 -6,-9 -11,-13 -4,-3 -9,-6 -14,-7 -6,-2 -12,-3 -17,-3z"/>
   <path id="6" class="fil16" d="M1779 3455c-1,1 -2,1 -4,1 -1,0 -2,0 -3,0 -3,0 -5,0 -7,-1 -1,-1 -2,-3 -2,-6l0 -29c0,-2 0,-4 0,-7 0,-3 1,-6 1,-9 0,-2 0,-5 0,-9 0,-3 0,-5 0,-8 -5,2 -10,6 -15,10 -6,4 -11,8 -16,14 -5,6 -10,12 -14,20 -4,7 -8,16 -11,25l-3 0c-7,0 -10,-2 -10,-8 0,-2 0,-5 1,-8 1,-3 3,-6 4,-10 2,-3 3,-6 5,-9 2,-3 4,-6 6,-9 -4,-1 -8,-4 -12,-6 -4,-3 -7,-7 -10,-11 -3,-4 -5,-9 -7,-15 -2,-5 -3,-11 -3,-18 0,-9 2,-18 5,-25 3,-8 8,-14 14,-20 6,-5 13,-9 22,-12 8,-3 18,-5 28,-5 11,0 21,2 30,5 9,3 17,8 24,14 6,6 12,13 16,21 3,9 5,18 5,28 0,13 -2,23 -6,30 -1,3 -3,4 -4,5 -2,1 -4,1 -6,1 -3,0 -6,-1 -7,-4 1,-4 3,-8 4,-12 2,-5 3,-11 3,-19 0,-9 -2,-16 -5,-23 -3,-6 -7,-12 -12,-17 -5,-4 -12,-8 -19,-10 -7,-3 -15,-4 -23,-4 -8,0 -15,1 -21,3 -6,2 -12,5 -16,9 -5,4 -9,9 -11,15 -3,6 -4,13 -4,20 0,5 0,10 2,14 1,4 3,8 5,11 3,3 5,6 8,8 3,3 7,5 10,6 7,-7 14,-14 22,-19 8,-5 16,-9 25,-11 1,1 3,2 6,4 2,2 3,3 5,5l0 75z"/>
   <path id="7" class="fil16" d="M1919 3456c-3,0 -5,0 -7,-1 -1,-1 -1,-3 -1,-6l0 -17c-2,3 -5,4 -8,5 -3,1 -7,2 -11,2 -4,0 -7,-1 -11,-2 -4,-1 -7,-3 -10,-6 -3,-3 -5,-6 -7,-10 -2,-4 -3,-9 -3,-15l0 -2c-2,-1 -4,-3 -6,-6 -2,-2 -4,-5 -6,-8 -1,-3 -3,-7 -4,-11 -1,-4 -1,-9 -1,-14 0,-9 2,-17 5,-25 4,-8 9,-15 15,-21 7,-5 15,-10 25,-13 9,-4 20,-6 32,-6 13,0 25,2 35,6 10,4 19,9 26,16 7,6 13,14 17,23 4,9 6,19 6,29 0,9 -2,17 -4,23 -3,5 -7,8 -11,8 -2,0 -3,0 -5,-1 -1,-1 -2,-2 -3,-4 2,-2 3,-6 4,-11 2,-5 2,-10 2,-16 0,-8 -2,-16 -5,-23 -3,-7 -8,-13 -14,-19 -6,-5 -13,-9 -21,-12 -8,-3 -17,-4 -27,-4 -9,0 -17,1 -25,4 -7,2 -14,6 -19,10 -5,5 -10,10 -12,16 -3,7 -5,13 -5,20 0,6 1,11 2,14 2,4 3,7 5,9 3,-4 7,-7 11,-9 4,-2 9,-4 15,-4 4,0 7,1 9,2 3,1 5,2 8,3 2,2 4,3 5,5 2,1 3,3 3,4 3,-4 6,-8 10,-10 4,-2 9,-4 14,-4 9,0 16,3 21,8 5,6 8,13 8,23l0 49c-1,1 -2,1 -4,1 -1,0 -2,0 -3,0 -3,0 -5,0 -7,-1 -1,-1 -2,-3 -2,-6l0 -43c0,-5 -1,-9 -3,-12 -3,-3 -6,-5 -11,-5 -4,0 -8,1 -11,4 -3,3 -4,8 -4,13l0 49c-1,1 -2,1 -4,1 -1,0 -2,0 -3,0zm-43 -49c0,6 2,10 5,14 4,3 8,5 13,5 4,0 9,-2 12,-5 3,-4 5,-8 5,-14 0,-5 -2,-10 -5,-13 -3,-4 -8,-5 -12,-5 -5,0 -9,1 -12,5 -4,3 -6,7 -6,13z"/>
   <path id="8" class="fil16" d="M2020 3476c-1,2 -2,3 -4,4 -1,1 -3,2 -5,2 -3,0 -6,-1 -8,-4 1,-3 2,-6 4,-10 1,-4 2,-8 3,-12 2,-4 3,-8 4,-12 1,-3 1,-7 2,-10 1,-1 2,-1 4,-1 1,-1 3,-1 4,-1 3,0 5,1 7,2 1,1 2,3 2,6 0,3 -1,6 -2,9 -1,4 -2,7 -3,10 -1,4 -3,7 -4,10 -2,3 -3,5 -4,7z"/>
   <path id="9" class="fil16" d="M2183 3412c4,0 6,-1 9,-3 2,-2 3,-5 4,-9 -1,-5 -1,-9 -1,-12 -1,-3 -1,-6 -1,-9 0,-1 1,-1 3,-1 1,-1 2,-1 4,-1 4,0 7,4 8,10 1,3 1,6 1,9 1,3 1,6 1,8 0,10 -2,18 -4,25 -3,6 -6,12 -10,16 -5,4 -10,7 -15,9 -6,2 -12,3 -18,3 -8,0 -14,-1 -20,-3 -6,-3 -11,-6 -16,-10 -4,-4 -8,-9 -10,-15 -3,-6 -4,-13 -4,-20l0 -1c-2,-1 -5,-3 -7,-5 -3,-3 -5,-5 -8,-9 -2,-3 -4,-7 -5,-12 -2,-5 -2,-11 -2,-17 0,-9 2,-18 5,-26 4,-8 9,-15 16,-20 7,-6 15,-11 24,-14 10,-3 20,-5 31,-5 13,0 24,2 34,6 10,4 19,10 26,17 8,7 13,16 17,25 4,10 6,21 6,33 0,7 0,13 -1,18 -1,6 -3,11 -4,15 -2,4 -3,8 -5,12 -2,3 -3,6 -4,8l24 24c0,2 -1,5 -2,6 -2,2 -4,3 -7,3 -3,0 -7,-2 -12,-6 -4,-5 -9,-12 -16,-21 -1,-1 -1,-3 -2,-3 0,-1 0,-2 0,-3 0,-1 0,-2 1,-2 0,-1 1,-2 1,-3 1,-3 2,-5 3,-8 2,-3 3,-7 4,-11 1,-3 2,-8 3,-12 0,-5 1,-10 1,-16 0,-10 -2,-20 -5,-28 -4,-9 -9,-16 -15,-22 -6,-5 -13,-10 -21,-13 -8,-3 -17,-4 -26,-4 -8,0 -16,1 -23,3 -8,3 -14,6 -19,11 -6,4 -10,9 -13,16 -3,6 -5,13 -5,21 0,11 3,20 8,25 2,-6 5,-11 8,-15 3,-3 6,-5 9,-5 3,0 5,1 6,3 1,1 2,3 2,5 -2,2 -5,5 -7,10 -3,4 -4,11 -4,18 0,12 3,21 9,27 6,6 15,9 25,9 8,0 14,-2 20,-6 5,-3 9,-9 10,-17 -1,2 -3,3 -5,4 -3,1 -5,1 -8,1 -4,0 -7,-1 -10,-2 -3,-1 -6,-2 -9,-5 -2,-2 -4,-5 -5,-8 -2,-4 -3,-8 -3,-13 0,-7 2,-12 4,-16 2,-3 5,-5 8,-5 2,0 3,1 5,1 1,1 2,2 2,3 -1,2 -2,4 -2,7 -1,3 -2,6 -2,9 0,5 1,9 4,12 3,3 6,4 10,4z"/>
   <path id="10" class="fil16" d="M2299 3455c-1,1 -2,1 -3,1 -1,0 -2,0 -3,0 -4,0 -6,0 -8,-1 -1,-1 -2,-3 -2,-6l0 -143c1,0 2,-1 3,-1 1,0 2,0 3,0 3,0 6,0 7,1 2,1 3,3 3,6l0 143z"/>
   <path id="11" class="fil16" d="M2346 3361c0,7 1,13 3,19 2,5 6,9 9,12 4,-4 8,-8 13,-12 6,-3 12,-4 19,-4 6,0 11,1 16,2 5,2 9,5 12,8 4,4 6,8 8,13 2,5 3,11 3,17 0,7 -1,13 -3,18 -2,5 -4,9 -8,13 -3,3 -8,6 -12,7 -5,2 -10,3 -15,3 -6,0 -11,-1 -15,-3 -5,-1 -9,-4 -13,-7 -3,-4 -6,-8 -8,-13 -2,-5 -3,-11 -3,-18 0,-4 0,-7 0,-9 -2,-2 -5,-4 -8,-7 -3,-2 -5,-5 -8,-9 -2,-4 -4,-8 -5,-13 -1,-5 -2,-10 -2,-16 0,-9 2,-18 5,-25 4,-8 9,-14 15,-20 6,-5 13,-9 21,-12 8,-3 18,-5 27,-5 13,0 24,3 34,7 9,4 18,9 24,16 7,8 12,16 16,26 3,10 5,20 5,32 0,9 -1,18 -4,26 -2,9 -6,18 -10,27l24 24c0,2 -1,5 -2,6 -2,2 -4,3 -7,3 -4,0 -8,-2 -12,-6 -4,-5 -9,-12 -16,-21 -1,-1 -2,-3 -2,-3 0,-1 0,-2 0,-3 0,0 0,-1 0,-2 1,-1 1,-2 1,-2 4,-7 6,-14 8,-22 2,-8 3,-17 3,-26 0,-10 -1,-19 -4,-27 -3,-9 -7,-16 -12,-22 -5,-5 -11,-10 -19,-13 -8,-3 -17,-5 -27,-5 -7,0 -14,1 -21,3 -6,2 -12,6 -16,10 -5,4 -8,9 -11,14 -2,6 -3,12 -3,19zm21 55c0,9 2,15 7,20 4,5 10,7 17,7 7,0 13,-2 17,-7 4,-5 6,-11 6,-20 0,-8 -2,-15 -7,-20 -4,-4 -10,-7 -16,-7 -7,0 -13,3 -17,7 -5,5 -7,12 -7,20z"/>
   <path id="12" class="fil16" d="M2520 3411c0,-1 0,-2 0,-3 0,-1 0,-2 0,-3 -6,-3 -12,-8 -16,-15 -4,-7 -6,-16 -6,-27 0,-10 1,-18 5,-26 4,-8 9,-15 15,-20 7,-5 14,-9 23,-12 9,-3 18,-5 28,-5 12,0 23,2 33,6 9,4 17,10 24,16 6,7 11,14 15,23 3,9 5,18 5,28 0,5 -1,11 -2,15 -1,4 -3,8 -4,10 -3,4 -6,6 -10,6 -2,0 -4,0 -5,-1 -1,-1 -2,-2 -3,-3 2,-3 3,-7 5,-12 1,-4 2,-9 2,-15 0,-7 -1,-14 -3,-21 -3,-7 -7,-13 -11,-19 -5,-5 -12,-10 -19,-13 -8,-3 -17,-5 -27,-5 -8,0 -16,1 -23,4 -7,2 -12,5 -17,10 -5,4 -9,9 -11,15 -3,6 -4,12 -4,19 0,6 1,12 3,16 1,5 3,8 6,11 3,-6 6,-11 10,-15 4,-3 8,-5 11,-5 2,0 4,0 5,1 0,1 1,2 2,2 0,1 1,2 1,3 0,2 0,2 0,3 -4,2 -8,6 -12,12 -3,5 -5,12 -5,20 0,11 3,18 9,24 6,5 13,8 22,8 10,0 17,-3 23,-8 5,-5 8,-13 8,-23 0,-3 0,-7 -1,-10 -2,-3 -3,-6 -4,-8 -1,2 -2,2 -4,3 -1,1 -3,1 -6,1 -4,0 -7,-1 -9,-3 -3,-2 -4,-6 -4,-10 0,-4 1,-7 4,-10 3,-2 7,-3 11,-3 2,0 5,0 9,2 3,2 6,4 9,8 3,3 5,7 7,12 2,6 3,12 3,18 0,9 -1,16 -4,21 -3,6 -6,11 -11,14 -4,4 -9,6 -14,8 -6,1 -11,2 -17,2 -6,0 -13,-1 -18,-3 -6,-2 -11,-5 -15,-9 -5,-4 -8,-9 -10,-14 -2,-6 -3,-13 -3,-20z"/>
   <path id="13" class="fil16" d="M2823 3450c-2,2 -3,4 -5,5 -2,1 -4,3 -7,4 -16,-3 -30,-9 -43,-17 -13,-8 -24,-17 -32,-28 -9,-10 -16,-22 -21,-34 -5,-13 -7,-25 -7,-38 0,-3 1,-6 2,-8 1,-3 4,-4 7,-4 2,0 3,0 4,1 1,0 2,1 3,1l0 8c1,12 4,24 9,35 4,11 10,21 17,30 7,9 16,17 26,23 9,6 20,11 31,14l0 -116c-4,4 -8,7 -10,9 -3,3 -6,6 -9,9 -3,2 -7,5 -10,9 -4,3 -8,7 -14,12 -3,-1 -5,-2 -7,-3 -2,-2 -3,-4 -3,-6 0,-2 1,-4 2,-6 0,-1 2,-3 5,-5 6,-5 11,-9 15,-13 4,-4 8,-7 12,-10 4,-4 7,-6 10,-9 3,-3 6,-5 9,-7 2,-1 3,-1 6,-1 6,0 10,3 10,8l0 137z"/>
   <path id="14" class="fil16" d="M2929 3456c-4,0 -6,0 -7,-1 -1,-1 -2,-3 -2,-6l0 -17c-2,3 -5,4 -8,5 -3,1 -7,2 -10,2 -4,0 -8,-1 -12,-2 -4,-1 -7,-3 -10,-6 -3,-3 -5,-6 -7,-10 -1,-4 -2,-9 -2,-15l0 -2c-3,-1 -5,-3 -7,-6 -2,-2 -4,-5 -5,-8 -2,-3 -3,-7 -4,-11 -1,-4 -2,-9 -2,-14 0,-9 2,-17 5,-25 4,-8 9,-15 16,-21 6,-5 15,-10 24,-13 10,-4 20,-6 33,-6 13,0 24,2 34,6 11,4 19,9 27,16 7,6 12,14 16,23 4,9 6,19 6,29 0,9 -1,17 -4,23 -3,5 -6,8 -10,8 -2,0 -4,0 -5,-1 -2,-1 -3,-2 -3,-4 1,-2 3,-6 4,-11 1,-5 2,-10 2,-16 0,-8 -2,-16 -6,-23 -3,-7 -8,-13 -14,-19 -6,-5 -13,-9 -21,-12 -8,-3 -17,-4 -27,-4 -9,0 -17,1 -25,4 -7,2 -13,6 -19,10 -5,5 -9,10 -12,16 -3,7 -4,13 -4,20 0,6 0,11 2,14 1,4 3,7 5,9 2,-4 6,-7 10,-9 4,-2 10,-4 16,-4 3,0 6,1 9,2 2,1 5,2 7,3 2,2 4,3 5,5 2,1 3,3 4,4 2,-4 5,-8 9,-10 4,-2 9,-4 15,-4 9,0 16,3 21,8 4,6 7,13 7,23l0 49c-1,1 -2,1 -3,1 -1,0 -2,0 -3,0 -4,0 -6,0 -7,-1 -2,-1 -2,-3 -2,-6l0 -43c0,-5 -2,-9 -4,-12 -2,-3 -6,-5 -11,-5 -4,0 -8,1 -11,4 -2,3 -4,8 -4,13l0 49c-1,1 -2,1 -3,1 -1,0 -2,0 -3,0zm-43 -49c0,6 1,10 5,14 3,3 7,5 12,5 5,0 9,-2 12,-5 4,-4 5,-8 5,-14 0,-5 -1,-10 -5,-13 -3,-4 -7,-5 -12,-5 -5,0 -9,1 -12,5 -4,3 -5,7 -5,13z"/>
   <path class="fil17" d="M3067 3050c-1,0 -3,0 -5,-1 -2,0 -4,-2 -5,-3 -2,-2 -3,-4 -4,-6 0,-1 -1,-3 0,-6 0,-2 1,-4 1,-6 1,-2 2,-5 3,-7 1,-2 3,-4 4,-6 1,-2 2,-4 2,-6 1,-2 1,-3 1,-5 0,-1 0,-2 -1,-3 -2,-1 -3,-2 -4,-2 -1,-1 -2,-1 -3,-1 0,0 -1,0 -2,0 -1,1 -2,1 -4,2 -1,1 -3,2 -4,4 -1,1 -2,2 -3,4 -1,1 -1,3 -1,4 -1,1 0,3 0,4 0,2 1,3 2,4l-6 7c-2,-2 -3,-5 -4,-7 -1,-2 -1,-5 0,-7 0,-3 1,-5 2,-8 1,-2 2,-4 4,-6 2,-3 4,-4 7,-6 2,-1 4,-2 7,-3 1,0 2,0 3,0 1,0 3,0 4,1 3,0 5,2 7,4l22 20c1,1 2,1 4,1 0,0 0,0 0,0 1,0 2,0 2,-1l1 0 0 -1 5 5 -1 2 -1 1c-2,2 -3,3 -6,3 0,0 0,0 0,0 -2,0 -5,-1 -8,-4 1,3 1,6 1,8 0,2 -1,4 -1,6 -1,2 -2,4 -3,5 -1,2 -2,3 -3,4 -2,2 -4,3 -5,4 -2,1 -4,2 -6,2 -1,0 -1,0 -2,0zm2 -43c0,2 0,3 -1,5 0,2 -1,4 -2,6 -1,2 -2,4 -3,6 -1,2 -2,4 -3,6 0,2 0,4 0,5 0,2 1,3 2,4 1,1 2,2 4,3 0,0 1,0 2,0 0,0 1,0 1,0 1,0 2,-1 4,-1 1,-1 1,-2 2,-3 3,-2 4,-5 5,-9 1,-4 0,-9 -1,-13l-10 -9z"/>
   <path class="fil17" d="M2754 3026c-1,-4 -3,-7 -5,-10 -4,-10 -12,-17 -21,-22 -3,-2 -3,-6 -5,-8l1 -2c12,-8 25,-15 40,-15l0 0c3,-2 2,-4 3,-6l-2 -2c-12,-2 -24,-5 -36,-7l-2 -1c0,-3 0,-4 1,-4 1,0 2,0 3,1 17,3 33,6 50,10 4,1 4,1 2,5 -3,-1 -6,-1 -9,-2l-1 3c-4,18 -7,37 -11,56 -1,2 -1,2 -3,3 -2,0 -3,0 -5,1zm-13 -44c-1,0 -1,1 -3,2 -2,1 -4,3 -6,4 10,7 19,15 24,27l1 -2c0,-4 1,-8 2,-12l-1 -3c-4,-4 -9,-9 -14,-13 -1,-2 -2,-3 -3,-3zm23 -6c-6,0 -14,2 -16,4 4,4 8,9 12,13 2,-6 3,-12 4,-17 0,0 0,0 0,0z"/>
   <path class="fil18" d="M2742 2895l-8 -16c-5,-1 -9,-3 -14,-6 -4,-3 -7,-6 -9,-11 -3,-4 -4,-8 -4,-13 0,-4 0,-9 2,-13 2,-4 4,-8 7,-12 4,-4 8,-7 13,-9 5,-3 10,-5 15,-5 1,0 3,0 5,0 3,0 6,0 9,1 4,1 8,3 11,5 4,3 7,7 9,11 2,3 3,6 3,9 1,4 1,7 0,10l-6 -2c1,-3 1,-5 1,-8 -1,-2 -1,-5 -3,-7 -1,-3 -3,-5 -6,-7 -3,-2 -6,-3 -10,-4 -1,0 -3,0 -5,0 -2,0 -4,0 -6,0 -4,1 -8,2 -13,5 -4,2 -7,4 -10,7 -3,3 -6,7 -7,10 -2,3 -3,6 -3,10 0,3 1,6 3,9 1,3 3,5 5,7 3,2 6,3 9,4l-1 -1c-1,-2 -2,-4 -2,-6 0,-2 0,-4 0,-6 1,-2 2,-3 3,-5 1,-1 2,-2 4,-3 2,-1 4,-2 5,-2 1,0 1,0 1,0 2,0 4,1 6,2 0,-2 1,-4 2,-6 1,-2 2,-3 4,-4 2,-1 3,-1 5,-1 1,0 1,0 1,0 2,0 3,0 5,1 1,0 3,1 5,2 1,2 2,4 4,6l13 25 -6 4 -12 -24 -2 -2 -3 -2 -3 -1 -3 0 -2 2 -1 3 1 3 1 3 12 24 -6 3 -12 -23 -2 -3 -3 -2 -3 -1 -3 1 -2 2 -1 3 0 3 2 3 12 23 -7 4z"/>
   <g>
    <path class="fil19" d="M1574 2736c-3,0 -7,-1 -10,-4l-3 -2 -3 -4 8 -5 2 3 2 2c3,2 5,3 7,3 1,0 1,0 2,-1 2,0 3,-2 2,-4l0 -3 0 -1c-1,0 -2,-2 -3,-3 -1,-2 -3,-2 -6,-3l-6 2 0 -6 1 0 0 0c2,-1 4,-2 4,-3l1 -3 0 -2 -1 -2 -2 -1c0,-1 -1,-1 -2,-1 -1,0 -1,0 -2,0 -1,0 -2,2 -2,4l1 1 0 1 -9 5 0 -4c0,-1 0,-2 0,-2 1,-5 3,-8 8,-10 2,-1 5,-1 7,-1 1,0 3,0 4,0 3,1 5,3 6,7 1,3 1,5 0,8l-1 1 2 1 0 0 2 -2 3 -2 3 -2 4 -3 -3 -10 -8 3 -2 -6 24 -9 0 0 -4 2 2 6 -3 1 13 34 -8 9 -9 -25 -2 2 -2 1 -2 1 -2 2 -1 1 1 1 1 1 1 1 0 2c1,1 1,2 1,2l0 2c0,4 -1,8 -4,10 -2,2 -4,3 -6,4 -2,1 -4,1 -6,1z"/>
    <polygon class="fil19" points="1623,2723 1609,2683 1602,2686 1602,2686 1600,2680 1629,2669 1631,2675 1618,2680 1631,2714 "/>
   </g>
   <path class="fil19" d="M886 2923l-12 -4 -3 -25c-2,3 -4,4 -6,6 -2,1 -4,2 -6,2 0,1 -1,1 -2,1 -3,0 -7,-2 -11,-5 -5,-3 -8,-7 -8,-11 -1,-4 0,-7 2,-10 3,-4 6,-6 10,-6 1,0 1,-1 2,-1 1,0 3,1 6,2 3,1 6,4 10,6l-4 -17 -34 7 -2 -10 75 -14 2 10 -30 5 3 14c1,-1 3,-2 4,-3 2,-1 4,-1 6,-2 0,0 1,0 1,0 3,0 6,2 10,5 4,3 6,7 7,11 0,3 0,6 0,9 0,3 -1,7 -3,10l-10 -5c1,-5 2,-8 3,-11 1,-3 1,-5 1,-6 -1,-2 -1,-3 -2,-3l-3 -1c-2,0 -5,1 -7,3 -2,2 -3,4 -5,6l6 37zm-28 -44c-1,0 -2,0 -2,0 -3,1 -5,2 -6,4 -2,2 -2,4 -2,7 1,1 1,3 3,3 1,1 2,1 3,1 0,0 0,0 1,0 2,0 3,-1 5,-2 1,0 2,-1 3,-2l6 -7c-2,-2 -4,-3 -7,-3 -1,-1 -3,-1 -4,-1z"/>
   <path class="fil18" d="M3084 3164l-10 -4 -3 -21c-2,2 -4,3 -5,5 -2,1 -4,2 -5,2 -1,0 -2,0 -2,0 -3,0 -7,-1 -10,-4 -4,-3 -7,-6 -8,-10 0,-3 1,-6 3,-9 2,-3 5,-5 9,-5 0,0 1,0 1,0 2,0 3,0 5,1 3,1 6,3 9,6l-3 -16 -30 6 -2 -8 67 -13 1 9 -26 5 2 12c1,-1 3,-2 4,-3 2,0 3,-1 5,-1 0,0 1,0 1,0 3,0 6,1 9,4 3,3 5,6 6,10 1,2 1,5 0,8 0,3 -1,5 -2,8l-10 -4c2,-4 3,-7 3,-10 1,-2 1,-4 1,-5 0,-1 -1,-2 -2,-3l-2 -1c-2,1 -4,2 -6,3 -2,1 -4,3 -5,6l5 32zm-24 -39c-1,0 -2,0 -3,1 -2,0 -3,1 -5,3 -1,2 -1,4 -1,6 0,1 1,2 2,3 1,0 2,1 3,1 0,0 0,0 1,0 1,-1 3,-1 4,-2 1,-1 2,-1 3,-2l5 -6c-2,-2 -4,-3 -6,-3 -1,-1 -2,-1 -3,-1z"/>
   <path class="fil20" d="M1861 3016c-1,0 -3,-1 -5,-1 -2,-1 -4,-2 -6,-4 -2,-3 -4,-6 -4,-9 0,-3 1,-6 2,-9 -2,1 -5,1 -7,1 -1,0 -2,0 -3,0 -3,0 -6,-2 -8,-5 -5,-5 -5,-12 -1,-19 1,-2 3,-4 5,-5 1,-1 2,-2 2,-3 1,0 3,-1 4,-1 3,-2 6,-2 9,-2 2,0 3,0 5,0 2,1 4,3 6,5 2,2 3,5 3,8 1,2 0,5 -1,9l4 -1 2 0 2 0c2,1 5,2 7,4l10 -9 -33 -38 4 -3 48 55 -4 3 -11 -12 -9 8 0 3 1 1c0,3 0,6 -2,10 -1,3 -3,5 -6,8 -2,2 -4,3 -6,4 -3,1 -5,2 -8,2zm7 -30c-2,0 -4,0 -6,1l-3 1 -2 1 -1 2 -2 2c-4,6 -4,10 0,15 1,1 3,2 5,2 1,0 2,0 3,0 1,-1 3,-1 4,-2l4 -3 3 -3 1 -1c1,-2 2,-3 2,-4 1,-3 1,-6 -1,-9 -2,-1 -4,-2 -7,-2zm-18 -22c-2,0 -4,1 -7,2 -1,1 -2,1 -3,2l-1 1 -3 3 -1 2c-3,3 -3,5 -3,8 0,2 1,3 2,4 2,2 4,3 7,3 2,0 3,0 5,-1l3 -1 4 -2 2 -4c2,-2 3,-6 3,-9 0,-2 -1,-4 -2,-5 -2,-2 -4,-3 -6,-3z"/>
   <path class="fil19" d="M1371 2863c-5,0 -9,-1 -13,-3 -4,-1 -8,-4 -11,-7 -3,-3 -5,-7 -6,-12 -1,-3 -2,-5 -1,-8 0,-2 0,-5 1,-7 1,-2 2,-4 4,-6 2,-1 4,-3 7,-3 1,-1 2,-1 4,-1 0,0 0,0 1,0 1,0 3,1 4,1 1,1 2,2 3,3 1,1 2,3 2,4 1,2 1,4 1,6 0,1 -1,3 -2,4l-2 3 -3 2c-1,0 -3,0 -4,0 0,0 0,0 0,0 -2,0 -3,0 -4,-1l-3 -3c-1,-1 -2,-2 -3,-4l0 -1 0 -1 0 -1 0 -1c-1,1 -2,3 -2,5 0,2 0,4 1,7 1,3 3,5 5,8 3,2 5,3 9,5 3,1 7,1 11,1 0,0 0,0 0,0 4,0 8,0 12,-2 5,-1 8,-3 12,-5 3,-2 6,-5 8,-8 2,-3 3,-6 4,-9 1,-3 1,-6 0,-9 -1,-3 -2,-5 -3,-6 -2,-2 -3,-3 -5,-4l1 1 1 1 0 1 1 1c0,2 0,4 0,5 0,1 0,3 -1,4l-3 3c-1,1 -2,2 -3,2 -1,0 -2,0 -3,0 0,0 0,0 -1,0 -1,0 -2,0 -4,0 -1,-1 -2,-2 -3,-3 -2,-1 -2,-3 -3,-5l-1 -4 1 -3 1 -3 3 -3 -3 1 -3 0 -3 1c-1,1 -2,1 -4,1l-1 1c0,0 -1,0 -2,0 0,0 -1,0 -1,0 -1,0 -3,-1 -4,-1l-3 -3c-1,-1 -2,-2 -2,-3l-1 -2 1 -2 1 -1 1 -1 2 0 2 2 1 2 2 2 2 1 2 0 1 0 1 -1 1 -2 1 -2 0 -2 2 -3 1 -3 1 -4c1,-2 2,-5 3,-8l1 -1 1 0 2 0 2 1 0 2c-1,2 -2,4 -3,7 -1,1 -2,3 -3,6 -1,2 -2,4 -3,6l-1 2 -1 2c4,-1 8,-2 12,-2 0,0 0,0 0,0 3,0 6,1 9,2 3,1 6,3 8,5 2,2 4,5 5,9 1,5 2,10 1,14 -1,4 -2,8 -4,12 -3,3 -6,6 -10,9 -4,3 -8,5 -13,6 -5,2 -10,3 -14,3zm-15 -43l-2 1 -2 1 -1 2 -1 2 0 2 1 3 2 1 2 1 3 0 2 -2 1 -1 1 -3 0 -2 -2 -2 -1 -2 -3 -1zm35 -10l-3 0 -2 1 -1 2 -1 2 0 3 1 2 2 1 3 1 2 0 2 -1 1 -2 1 -2 0 -3 -1 -2 -2 -2 -2 0z"/>
   <path class="fil18" d="M2418 2991c-1,0 -2,0 -2,0 -2,-1 -4,-3 -5,-4 -2,-2 -3,-4 -3,-6 -1,-2 -1,-5 -1,-8 0,-3 1,-6 2,-9 2,-3 3,-5 6,-7 2,-2 5,-3 8,-4 3,-1 7,-1 11,-1 2,0 5,0 8,1 0,0 0,0 1,0 3,1 5,3 8,5l3 -2 3 -2c1,0 2,0 4,-1 1,0 2,0 4,0 1,0 2,1 3,1 1,0 1,0 1,0 1,0 2,1 3,1 1,0 2,1 3,2 1,0 1,1 2,1 2,-1 4,-2 7,-2 2,-1 4,-1 7,-1l21 1 0 5 -10 -1 -1 36 -8 -1 2 -35 -5 0c-2,0 -3,0 -5,0 -1,1 -2,1 -4,2 1,1 2,3 3,4 1,2 2,3 2,5 1,1 1,3 2,5 0,1 0,3 0,5 0,2 0,3 -1,5 0,2 -1,3 -2,5 -1,1 -2,2 -3,3 -2,1 -3,1 -5,1 -2,0 -3,0 -4,-1 -1,0 -1,0 -2,-1 -1,0 -3,-1 -3,-3 -1,-1 -2,-3 -2,-5 0,-1 0,-3 0,-5 0,-4 1,-7 2,-10 1,-3 3,-5 5,-8 -1,-1 -3,-2 -4,-2 -1,-1 -2,-1 -2,-1 -1,0 -2,-1 -3,-1 -2,0 -3,0 -5,1 -1,0 -3,1 -4,2 2,2 4,5 5,8 2,3 2,7 2,11 0,1 0,3 -1,5 0,1 -1,3 -2,4 -1,2 -2,3 -3,3 -2,1 -4,2 -6,2 -1,-1 -2,-1 -3,-1 -1,0 -1,-1 -2,-1 -2,-1 -3,-2 -3,-3 -1,-1 -2,-3 -2,-5 0,-2 -1,-4 0,-6 0,-3 0,-6 1,-9 2,-2 3,-5 5,-7 -2,-2 -4,-3 -6,-4 -1,0 -1,0 -2,0 -2,-1 -3,-1 -5,-1 -2,0 -5,0 -7,1 -3,0 -5,1 -7,3 -2,1 -4,3 -5,5 -1,2 -2,5 -2,8 0,2 0,4 1,6 1,2 2,3 4,5l-1 -2 0 -1 -1 -2 0 -1c0,-2 1,-4 1,-5 1,-1 2,-2 3,-3 1,-1 2,-1 3,-2 1,0 3,0 4,0 1,0 2,0 3,0 1,0 1,1 2,1 1,1 2,1 3,3 1,1 1,2 2,3 0,2 0,4 0,5 0,2 0,4 -1,5 -1,1 -2,3 -3,3 -1,1 -3,2 -4,3 -2,0 -4,0 -5,0 -2,0 -4,0 -5,-1zm7 -17l-2 0 -2 2 0 1 -1 3 0 2 1 2 1 2 2 1 2 -1 1 -1 1 -2 1 -3 0 -2 -1 -2 -1 -1 -2 -1zm25 -9c-2,2 -3,4 -4,7 -1,2 -1,4 -1,6l0 2 0 2 0 2 1 2 1 2 2 0 2 -1 2 -2c0,-1 1,-1 1,-3 0,-1 0,-2 0,-2 1,-3 0,-6 -1,-8 0,-2 -2,-5 -3,-7zm26 1c-1,2 -3,4 -4,7 -1,2 -1,4 -1,7l0 1 0 2 0 2 1 2 2 2 1 0 3 0 1 -2c1,-1 1,-2 1,-3 0,-1 0,-2 1,-3 0,-3 -1,-5 -1,-8 -1,-2 -2,-5 -4,-7z"/>
   <path class="fil20" d="M1803 2765c-2,0 -4,0 -5,-1 -2,0 -4,-1 -5,-2 -1,-1 -3,-2 -4,-4 -1,-1 -2,-3 -3,-4 -1,-2 -2,-3 -2,-4 -2,-4 -3,-8 -3,-12 0,-3 0,-7 1,-10 1,-3 3,-6 6,-9 2,-2 5,-4 9,-6 2,-1 4,-1 6,-2 1,0 3,0 5,0 0,0 0,0 0,0 2,0 4,0 6,1 2,0 4,1 6,2 0,-2 0,-4 1,-6 0,-1 1,-3 2,-4 1,-1 2,-2 4,-3 1,-1 2,-1 3,-2 1,0 2,-1 4,-1 0,0 1,0 2,0 0,0 1,0 2,0 1,0 3,1 4,1 1,1 3,2 4,3 1,-2 1,-4 2,-5 0,-2 1,-3 2,-5 1,-1 2,-2 4,-2 1,-1 2,-2 3,-2 3,-1 6,-2 9,-2 0,0 1,0 1,0 3,0 6,1 8,2 3,2 5,4 7,6 2,3 4,6 5,9 1,2 2,5 2,8 0,3 0,5 0,8 -1,3 -2,6 -3,8 -2,3 -3,5 -6,7l-5 -4c2,-2 3,-4 4,-5 1,-2 1,-4 2,-6 0,-2 0,-4 0,-6 -1,-2 -1,-4 -2,-7 -1,-2 -2,-4 -4,-6 -1,-1 -2,-3 -4,-4 -2,-1 -4,-2 -6,-2 0,0 -1,0 -1,0 -2,0 -3,0 -5,1 -1,0 -2,1 -3,2 -1,1 -2,3 -3,4 0,2 0,3 0,5 0,2 0,4 1,6l12 27 -9 4 -11 -27c-1,-2 -2,-4 -3,-5 -1,-2 -2,-3 -3,-4 -2,-1 -3,-1 -4,-1 -1,0 -1,0 -1,0 -2,0 -3,0 -4,0 -1,1 -2,2 -3,3 -1,1 -2,3 -2,4 0,2 0,3 0,5 1,2 1,4 2,5l11 28 -8 3 -11 -25c-1,-2 -2,-4 -3,-6 -2,-1 -4,-2 -5,-3 -2,-1 -4,-1 -7,-2 0,0 0,0 0,0 -2,0 -4,1 -6,2 -2,1 -5,2 -6,4 -2,1 -4,3 -5,5 -1,2 -1,4 -2,6 0,2 0,5 1,7l1 -2 2 -3 3 -3c1,0 2,-1 3,-2 2,0 4,-1 7,-1 0,0 0,0 0,0 2,0 4,1 6,2 2,1 4,2 5,4 2,1 3,3 4,5 0,2 1,4 1,7 0,2 -1,4 -1,6 -1,2 -2,4 -4,5 -1,2 -3,3 -5,4 -2,1 -4,1 -6,1 0,0 0,0 0,0zm-2 -25c-1,0 -3,0 -4,0l-3 2 -2 3c0,1 0,2 0,4 0,1 0,2 0,3 1,2 2,3 3,4 1,1 2,2 3,2 1,1 2,1 3,1 1,0 1,0 1,0 1,0 2,0 3,0 1,-1 2,-2 3,-3 1,-1 2,-2 2,-3 0,-1 0,-2 0,-3 0,-2 0,-3 -1,-4 -1,-3 -3,-5 -5,-6 -1,0 -2,0 -3,0z"/>
   <path class="fil19" d="M1567 2876c0,0 0,0 -1,-1 -1,0 -2,-1 -3,-2 -1,-1 -2,-2 -2,-3 -2,-2 -3,-5 -4,-8 -1,-2 -1,-5 -1,-8 0,-2 1,-5 2,-7 2,-2 4,-4 6,-6 1,-1 3,-2 4,-2 1,-1 3,-1 4,-2 1,0 3,0 4,0 2,0 3,0 5,1 0,-2 -1,-4 0,-5 0,-1 0,-2 1,-3 0,-1 1,-2 2,-3 0,-1 1,-2 2,-2l2 -2 3 0c1,0 2,0 4,0 1,0 2,0 3,1 0,-2 0,-3 0,-4 1,-2 1,-3 1,-4 1,-1 2,-2 2,-2 1,-1 2,-2 3,-2 2,-2 4,-3 7,-3 2,-1 4,-1 6,0 2,0 3,1 4,2 1,0 2,1 2,1 2,1 4,3 5,5 2,2 3,4 3,6 1,2 1,4 1,6 1,2 0,4 0,7 -1,2 -2,4 -3,6l-4 -3c0,-1 1,-3 1,-4 0,-2 1,-3 0,-5 0,-1 0,-3 -1,-4 0,-2 -1,-3 -2,-5 -1,-1 -2,-2 -4,-3 0,-1 -1,-1 -2,-2 0,0 -1,-1 -2,-1 -1,0 -3,-1 -4,-1 -2,1 -3,1 -5,2 -1,1 -1,2 -2,3 0,1 -1,2 -1,3 0,1 0,3 1,4 0,1 1,3 2,4l13 18 -5 4 -13 -18c-1,-1 -2,-2 -3,-3 -1,0 -2,-1 -2,-1 -1,-1 -1,-1 -2,-1 -1,0 -2,-1 -3,0 -1,0 -2,0 -3,1 -1,1 -2,1 -2,2 -1,1 -1,3 -1,4 1,1 1,2 1,3 1,2 2,3 2,4l14 18 -6 4 -12 -17c-1,-1 -2,-2 -4,-3 0,0 0,0 0,0 0,0 0,0 0,0 -1,-1 -3,-1 -4,-2 -2,0 -3,0 -5,0 -1,1 -3,1 -4,2 -2,2 -3,3 -4,4 -1,2 -2,4 -2,5 -1,2 -1,3 -1,5 0,2 1,3 2,5l0 -2 1 -2c1,-1 1,-2 2,-3 0,0 1,-1 2,-2 1,-1 3,-2 5,-2 1,0 3,0 5,0 1,0 2,1 3,2 0,0 1,0 1,0 1,1 2,2 3,3 1,2 2,4 2,5 1,2 1,4 1,5 -1,2 -1,3 -2,5 -1,1 -2,2 -3,3 -1,1 -3,2 -4,2 -2,0 -3,1 -4,0 -2,0 -3,0 -4,-1 -1,0 -2,0 -3,-1zm9 -16c0,0 -1,0 -2,0 -2,-1 -3,0 -5,1l-2 2 -1 2 0 3c1,1 1,2 2,3 0,0 1,1 2,2 0,0 0,0 0,0 1,0 2,1 3,1 1,0 2,0 2,0l3 -1c1,-1 1,-1 2,-2 0,-1 1,-2 1,-3l-1 -3c0,0 0,-1 -1,-2 -1,-1 -2,-2 -3,-3z"/>
   <path class="fil18" d="M2743 3169c-2,0 -3,0 -4,0 -1,0 -3,-1 -4,-1 -1,-1 -3,-1 -4,-2 -3,-1 -6,-3 -8,-5 -3,-3 -4,-5 -5,-8 -2,-3 -2,-6 -2,-9 0,-3 1,-6 3,-10 1,-1 1,-2 2,-4 1,-1 3,-2 4,-3 1,-1 3,-2 4,-3 2,-1 3,-1 5,-2 -1,-1 -2,-3 -2,-4 -1,-2 -1,-3 -1,-4 0,-2 0,-3 0,-4 1,-1 1,-3 1,-4l2 -2 3 -3c1,0 2,-1 3,-1 2,-1 3,-1 5,-1 -1,-2 -2,-3 -3,-4 0,-2 0,-3 0,-5 0,-1 0,-2 0,-3 1,-2 1,-3 2,-4 1,-3 3,-5 5,-7 2,-1 5,-2 7,-3 1,0 3,0 4,0 1,0 3,0 4,0 3,1 5,2 8,3 2,1 4,2 6,4 2,2 3,4 5,6 1,2 2,4 2,7 1,2 1,5 1,8l-6 -1c0,-1 0,-3 -1,-5 0,-2 -1,-3 -2,-5 -1,-1 -2,-2 -3,-4 -2,-1 -4,-2 -6,-3 -1,-1 -3,-1 -5,-2 -1,0 -3,0 -4,0 0,0 -1,0 -2,0 -1,0 -3,0 -4,1 -2,1 -3,3 -4,5 -1,1 -1,2 -1,3 0,2 0,3 1,4 0,2 1,3 3,4 1,1 2,2 4,3l23 11 -3 8 -23 -12c-2,0 -4,-1 -5,-1 -1,-1 -2,-1 -3,-1 -1,0 -1,0 -2,0 -1,0 -2,1 -3,2 -1,0 -2,1 -3,2 0,2 -1,3 0,4 0,2 0,3 1,4 1,1 2,2 3,3 1,1 2,2 4,3l23 11 -3 7 -22 -10c-2,-1 -4,-2 -6,-2 0,0 0,0 -1,0 -1,0 -3,0 -4,1 -2,0 -3,1 -5,2 -1,2 -2,3 -3,5 -1,2 -2,4 -2,6 0,2 0,4 0,6 1,2 1,4 3,5 1,2 2,3 4,5l-1 -3 0 -3 0 -3c0,-1 1,-2 1,-3 1,-2 2,-4 4,-5 2,-1 3,-2 5,-3 1,0 2,0 3,0 1,0 2,0 2,0 2,0 4,1 6,2 2,1 3,2 5,4 1,1 2,3 2,4 1,2 1,4 1,6 0,2 0,3 -1,5 -1,2 -2,3 -3,4 -1,2 -3,2 -4,3 -2,1 -3,1 -5,1 0,0 -1,0 -1,0zm-2 -21c0,0 -1,0 -2,0 -2,1 -3,2 -5,5l0 3 0 3 2 2c0,1 1,2 2,2 1,1 3,1 4,1 0,0 0,0 0,0 1,0 2,0 3,0 1,0 2,-1 3,-1l2 -3c1,-1 1,-2 1,-3 0,-1 0,-2 -1,-3l-2 -3 -2 -2c-2,-1 -3,-1 -5,-1z"/>
   <path class="fil19" d="M1132 3183l-2 -8 -3 2c0,1 -1,1 -2,2 -1,0 -3,0 -4,0 -1,0 -2,0 -3,0 -2,-1 -4,-2 -5,-4 -3,-1 -6,-3 -8,-5 -2,-2 -4,-5 -5,-9 -1,-3 -2,-6 -1,-10 0,-3 1,-6 3,-9 2,-3 4,-6 7,-8 3,-3 7,-4 11,-6 3,-1 5,-2 8,-2 1,0 2,0 2,0 2,0 4,0 6,1 2,0 5,1 7,2 2,1 4,2 6,4 2,1 4,3 5,5 1,2 3,4 3,7 1,2 2,5 2,8 0,3 -1,6 -2,9l-5 -2c1,-2 2,-4 2,-6 0,-3 0,-5 -1,-8 -1,-3 -3,-5 -5,-7 -2,-3 -5,-4 -7,-6 -3,-1 -6,-2 -10,-2 0,0 0,0 -1,0 -3,0 -6,1 -9,2 -3,1 -6,2 -8,4 -3,2 -5,5 -6,7 -2,2 -3,5 -3,8 -1,2 0,5 1,7 1,4 3,7 6,9 0,-2 0,-4 2,-6 1,-2 3,-3 5,-4 1,0 2,-1 3,-1 0,0 1,0 1,1 2,0 3,0 4,1 1,-2 2,-3 3,-4 1,-1 2,-2 4,-2 1,-1 2,-1 3,-1 0,0 1,0 1,0 1,0 2,1 4,1 1,1 2,2 3,3 1,1 2,2 2,4l6 16 -5 1 -5 -16 -2 -2 -1 -1 -3 -1 -2 0 -2 2 -1 1 0 3 0 2 6 16 -5 2zm-11 -21l-2 1 -2 1 -1 2 0 2 0 2 1 2 2 2 2 0 2 0 2 -1 1 -2 1 -2 0 -2 -1 -1 0 0 -1 -2 -2 -1 -2 -1z"/>
   <path class="fil19" d="M966 3141c-1,0 -2,0 -3,0 -1,-1 -2,-2 -3,-4 0,-1 0,-3 1,-4 1,-2 2,-3 4,-3 1,0 1,0 2,0 1,0 2,0 3,1 2,0 3,2 3,3 0,2 0,3 -1,4 -1,2 -2,3 -4,3 -1,0 -1,0 -2,0zm14 -14c-12,0 -18,-4 -20,-10l-1 -5 21 -11c-4,-2 -9,-3 -14,-3 -3,0 -7,1 -10,2l-3 -10 -9 2 -1 -3 71 -17 0 3 -10 3 9 39 5 4c-16,4 -28,6 -38,6zm10 -46l-21 5 1 3c5,2 8,4 10,5 3,2 5,5 6,8l-14 8c1,5 5,8 11,10 3,2 7,2 11,2 2,0 4,0 7,0l-11 -41z"/>
   <g>
    <path class="fil20" d="M2154 3044c-4,0 -9,-1 -13,-1 -11,-2 -23,-4 -34,-6 -21,-4 -40,-11 -59,-21 -6,-3 -8,-8 -7,-15 1,-8 5,-14 9,-20l3 -1 1 3c0,1 -1,3 -2,5 -1,4 0,7 5,10 11,7 24,12 37,16 19,7 39,13 59,15 6,1 11,2 16,2 3,0 6,0 9,-1 4,-1 7,-3 11,-5 1,0 3,0 4,-1l0 2c-4,6 -10,10 -17,13 -7,4 -14,5 -22,5z"/>
    <path class="fil20" d="M2089 3071c-2,-2 -5,-5 -8,-7 -1,-2 -3,-4 -4,-6 -1,-1 -1,-2 1,-3 5,-2 10,-4 14,-6l4 0c4,4 7,8 11,12 2,2 1,3 0,4 -5,2 -9,4 -14,6 -1,0 -2,0 -4,0z"/>
   </g>
   <path class="fil20" d="M2156 2971c-2,-4 -4,-9 -6,-13 -6,-13 -16,-22 -28,-29 -4,-2 -4,-7 -6,-10l1 -2c16,-12 33,-20 53,-21l0 0c3,-1 2,-5 3,-8l-2 -2c-16,-3 -32,-6 -47,-9l-4 -1c1,-4 1,-5 3,-5 1,0 2,0 3,0 22,5 44,9 66,13 5,2 5,2 3,7 -4,-1 -8,-1 -13,-2 0,1 0,2 0,3 -5,25 -11,49 -15,74 -1,2 -2,3 -4,4 -2,0 -4,1 -7,1zm-17 -57c-1,0 -2,1 -4,2 -3,2 -5,4 -8,6 14,8 25,19 32,35 0,-2 1,-2 1,-3 1,-5 2,-10 3,-15l-1 -4c-6,-6 -12,-12 -18,-18 -2,-2 -3,-3 -5,-3zm30 -9c-7,0 -18,3 -21,6 5,6 11,12 17,18 1,-8 3,-16 5,-24 -1,0 -1,0 -1,0z"/>
   <path class="fil19" d="M1595 3017c-2,-4 -3,-7 -5,-10 -5,-10 -12,-17 -22,-22 -3,-2 -3,-6 -4,-8l0 -2c13,-8 26,-14 41,-15l0 0c3,-1 1,-4 2,-6l-2 -2c-11,-2 -23,-5 -35,-7l-3 -1c0,-3 0,-4 2,-4 1,0 1,0 3,1 16,3 33,6 49,10 5,1 5,1 3,5 -3,-1 -6,-1 -10,-2l0 3c-4,18 -8,37 -12,56 0,2 -1,2 -3,3 -1,0 -3,0 -4,1zm-13 -44c-1,0 -2,1 -4,2 -2,1 -4,3 -6,4 11,7 19,15 25,27l0 -2c1,-4 2,-8 2,-12l-1 -2c-4,-5 -9,-10 -13,-14 -2,-2 -2,-3 -3,-3zm22 -6c-5,0 -13,2 -16,4 4,4 8,9 13,14 1,-7 2,-12 4,-18 -1,0 -1,0 -1,0z"/>
   <path class="fil19" d="M1258 2738c-2,0 -4,-1 -5,-1 -2,-1 -4,-2 -6,-4 -2,-1 -3,-3 -3,-5 -1,-2 -1,-4 -1,-6 1,-2 1,-4 2,-6 1,-3 2,-5 3,-7 1,-2 2,-4 3,-6 1,-2 2,-4 3,-6 0,-2 1,-3 1,-5 0,-1 -1,-2 -2,-3 -1,-2 -2,-2 -4,-3 -1,0 -2,0 -2,0 -1,0 -2,0 -2,0 -1,0 -3,1 -4,2 -2,1 -3,2 -5,3 -1,2 -2,3 -2,4 -1,2 -2,3 -2,5 0,1 0,3 1,4 0,1 1,3 2,4l-6 6c-2,-2 -4,-4 -4,-6 -1,-3 -1,-5 -1,-8 0,-2 1,-5 2,-7 2,-2 3,-5 5,-7 2,-2 4,-4 6,-5 3,-1 5,-2 7,-3 1,0 2,0 4,0 1,0 2,0 4,0 2,1 4,2 7,4l22 21c1,1 2,1 3,1 0,0 0,0 0,0 1,0 2,0 3,-1l0 -1 1 0 5 4 -1 2 -2 2c-1,2 -3,3 -5,3 0,0 -1,0 -1,0 -2,-1 -5,-2 -7,-4 0,3 0,5 0,8 0,2 0,4 -1,6 -1,2 -1,3 -2,5 -1,1 -3,3 -4,4 -1,2 -3,3 -5,4 -2,1 -4,1 -6,2 0,0 -1,0 -1,0zm2 -43c0,1 -1,3 -1,5 -1,2 -2,4 -3,6 -1,2 -2,4 -3,6 -1,2 -1,4 -2,6 -1,1 -1,3 -1,5 0,1 1,3 3,4 1,1 2,2 3,2 1,0 2,1 3,1 0,0 0,0 1,-1 1,0 2,0 3,-1l3 -2c2,-3 4,-6 4,-10 1,-4 1,-8 -1,-13l-9 -8z"/>
   <path class="fil18" d="M3100 2827c0,1 -1,1 -2,1 -1,0 -2,-1 -3,-1 -1,-1 -1,-1 -2,-2 -1,-1 -1,-1 -1,-2l-9 -20c0,1 -1,2 -2,3 0,2 -1,2 -3,3 0,0 -1,0 -2,1 -1,0 -1,0 -2,0l1 3c2,4 2,7 1,10 -1,3 -3,6 -7,7 -2,1 -5,2 -7,1 -2,0 -5,0 -7,-1 -2,-1 -4,-2 -6,-4 -2,-1 -3,-2 -5,-3 -1,0 -2,0 -3,0 -1,-1 -2,-1 -3,-1l-3 -1 -1 -2c0,-1 1,-1 1,-2l1 -1 0 -1 1 1 2 1c1,0 2,0 3,0 1,0 2,0 3,-1 1,0 2,-1 2,-1 1,-1 2,-2 2,-3 1,-1 1,-2 1,-3 0,-2 0,-3 -1,-4 0,-1 -1,-2 -2,-3 0,-1 -1,-2 -2,-2 -1,0 -2,-1 -3,-1 -1,0 -1,0 -2,1 -1,0 -2,1 -3,1 -1,1 -2,2 -2,4l-5 -2c1,-3 2,-5 3,-6 1,-1 3,-2 4,-3 2,0 4,-1 6,-1 1,0 3,1 5,2 1,1 3,2 4,3 1,1 2,3 3,5 1,2 1,3 1,5 0,2 0,3 0,5 -1,1 -2,3 -2,4 -1,1 -2,2 -3,3 1,1 2,1 3,2 1,1 3,2 4,2 1,1 3,1 4,1 2,1 3,0 5,0 1,-1 2,-2 2,-2 1,-1 1,-2 1,-3 1,-1 1,-2 0,-3 0,-1 0,-1 0,-2l-9 -20 5 -2 5 12c1,0 2,0 3,-1 0,0 1,0 2,0 1,-1 2,-2 3,-3 1,-1 1,-3 1,-4l-8 -18 6 -2 19 43 1 1 1 0 1 0 0 -2 4 1 0 2 0 2 -2 2c0,0 -1,1 -2,1z"/>
   <path class="fil19" d="M947 3018c-3,0 -5,0 -7,-1 -2,-1 -5,-2 -6,-3 -2,-1 -4,-3 -5,-5 -1,-2 -2,-5 -2,-8 0,-2 1,-4 1,-5 1,-2 2,-3 4,-5l-3 -2 -3 -2c0,-1 -1,-2 -1,-4 -1,-1 -1,-3 -1,-4 0,-2 0,-3 1,-5 1,-1 2,-3 4,-4 1,-1 3,-2 5,-3 2,0 4,-1 7,-1l1 6c-1,0 -2,1 -4,1 -1,0 -2,1 -3,1l-3 3 -1 3c0,1 0,2 0,3l3 2 2 1 4 0 6 0 0 7 -5 0 -2 1 -3 1 -1 3 -1 3c0,2 0,3 1,5 1,1 2,2 3,3 1,1 3,1 4,2 2,0 3,1 4,1 3,0 6,-1 8,-2 2,-1 3,-2 4,-4 2,-1 3,-3 3,-5 1,-2 1,-4 1,-5 0,-2 0,-4 -1,-6 0,-1 -1,-3 -2,-5 0,-1 -1,-3 -2,-4 -1,-2 -1,-3 -2,-5 -1,-2 -1,-3 -2,-5 0,-2 -1,-3 -1,-5 0,-2 1,-4 1,-6 1,-1 2,-3 3,-4 1,-1 2,-2 4,-2 1,-1 2,-1 4,-1 1,0 3,0 4,1l3 2 3 3c0,1 1,2 1,3l-1 3 0 2 -1 1 -2 2 -5 -4 2 -2 0 -1 0 -1 -1 -1 -1 -1 -2 0 -2 0 -1 1 -2 2 0 3c0,2 0,3 1,5 0,1 1,3 1,4 1,2 2,4 3,5 0,2 1,3 2,5 1,2 1,4 2,5 0,2 0,4 0,6 0,3 0,6 -1,9 -1,2 -2,5 -4,7 -2,2 -4,3 -7,4 -3,2 -6,2 -9,2z"/>
   <path class="fil20" d="M1963 2538c-2,0 -4,0 -5,-1 -2,-1 -4,-1 -6,-3 -1,-1 -2,-2 -3,-4 -1,-2 -2,-4 -2,-6 0,-2 1,-3 1,-4 1,-2 2,-3 3,-4 -1,-1 -1,-1 -2,-2 -1,0 -2,-1 -2,-2 -1,-1 -1,-1 -2,-3 0,-1 0,-2 0,-3 0,-1 0,-3 1,-4 0,-1 1,-2 2,-3 2,-1 3,-2 5,-2 1,-1 3,-2 5,-2l1 5c-1,1 -2,1 -3,1 -1,0 -2,1 -3,1 -1,1 -1,1 -2,2 -1,1 -1,2 -1,3 0,1 0,2 1,2l1 2c1,0 2,1 3,1 1,0 2,0 2,0l6 0 0 5 -4 0 -2 1 -2 1c-1,1 -1,1 -2,2 0,1 0,2 0,3 0,1 0,3 1,4 0,1 1,2 2,2 1,1 2,2 4,2 1,0 2,0 3,0 2,0 4,0 6,-1 2,-1 3,-2 4,-3 1,-1 1,-3 2,-4 0,-2 0,-3 0,-4 0,-2 0,-3 0,-5 0,-1 -1,-2 -2,-4 0,-1 -1,-2 -1,-4 -1,-1 -2,-2 -2,-3 -1,-2 -1,-3 -2,-4 0,-2 0,-3 0,-5 0,-1 0,-3 1,-4 0,-2 1,-3 2,-3 0,-1 1,-2 3,-2 1,-1 2,-1 3,-1 1,0 2,0 3,0 1,1 2,1 3,2 1,1 2,2 2,3 1,0 1,1 1,2l0 2 -1 2 -1 1 -1 2 -4 -4 1 -1 0 -1 0 -1 0 -1 -1 -1 -2 0 -1 1 -1 0 -1 2c-1,1 -1,1 -1,2 0,2 0,3 1,4 0,2 1,3 1,4 1,1 1,3 2,4 1,1 1,3 2,4 0,1 1,3 1,4 1,2 1,3 1,5 0,2 -1,5 -1,7 -1,2 -2,4 -4,6 -1,1 -3,3 -5,3 -3,1 -5,2 -8,2z"/>
   <path class="fil18" d="M2371 2939c-2,0 -5,-1 -7,-1 -2,-1 -4,-2 -6,-4 -2,-1 -4,-3 -5,-5 -1,-2 -2,-5 -2,-8 0,-2 0,-4 1,-5 1,-2 2,-4 4,-6l-3 -1 -3 -3c-1,-1 -1,-2 -2,-3 0,-2 0,-3 0,-5 0,-2 0,-3 1,-5 1,-1 2,-3 3,-4 2,-1 4,-2 6,-3 2,-1 4,-1 7,-2l1 7c-1,0 -2,0 -3,1 -2,0 -3,1 -4,1l-3 3c-1,1 -1,2 -1,3 0,1 0,2 0,3l3 2 3 2 3 0 6 0 0 7 -5 0 -2 0 -3 2 -1 3 -1 3c0,2 0,3 1,5 1,1 2,2 3,3 2,1 3,2 5,2 1,1 3,1 4,1 3,0 5,-1 8,-2 2,-1 3,-2 4,-4 2,-1 3,-3 3,-5 1,-2 1,-4 1,-6 0,-2 0,-3 -1,-5 0,-2 -1,-3 -2,-5 0,-2 -1,-3 -2,-5 -1,-2 -2,-3 -2,-5 -1,-2 -2,-3 -2,-5 -1,-2 -1,-3 -1,-5 0,-3 0,-5 1,-6 1,-2 2,-3 3,-4 1,-1 2,-2 4,-3 1,0 3,-1 4,-1 2,0 3,1 4,1 2,1 3,1 4,2l2 3c1,1 1,3 1,4l0 2 -1 2 -1 2 -1 2 -5 -4 1 -2 0 -2 0 -1 -1 -1 -1 -1 -2 0 -2 0 -1 2 -2 2 0 3c0,1 0,3 1,5 0,1 1,3 1,4 1,2 2,4 3,5 1,2 1,4 2,6 1,1 1,3 2,5 0,2 1,4 1,6 0,3 -1,6 -2,9 -1,2 -2,5 -4,7 -2,2 -5,4 -7,5 -3,1 -6,2 -10,2z"/>
   <g>
    <path class="fil20" d="M2159 2541c-9,0 -19,-1 -30,-3 -4,0 -11,-1 -17,-4 -6,-2 -7,-4 -6,-9 0,-4 1,-7 3,-10l2 -1 0 2c1,1 0,2 0,3 0,2 0,3 2,4 6,2 12,4 18,5 13,2 26,4 39,4 0,0 1,0 1,0 5,0 10,0 14,-1 3,0 6,-2 8,-4l1 -1 1 0 0 2c-5,8 -13,11 -21,12 -5,1 -10,1 -15,1z"/>
    <path class="fil20" d="M2153 2559c-1,0 -1,0 -1,-1 -3,-2 -6,-3 -8,-5 -2,1 -3,1 -5,2 -1,1 -2,1 -3,1 -1,0 -2,0 -3,-1 -2,-1 -4,-2 -5,-4l0 -1c2,-2 4,-3 7,-5l2 0c2,2 4,4 7,5 0,1 1,1 1,1 0,0 1,0 1,-1 2,-1 3,-2 5,-3l2 0c2,2 4,3 7,5 1,1 1,1 0,2 -2,1 -4,3 -6,4 0,0 -1,1 -1,1z"/>
    <path class="fil20" d="M2144 2570l-2 0c-2,-2 -5,-3 -7,-5l0 -1c2,-1 5,-3 7,-5l2 0c2,2 5,4 8,6l0 1c-3,1 -6,3 -8,4z"/>
   </g>
   <g>
    <path class="fil18" d="M2393 3099c-9,0 -16,-3 -23,-8 -14,-11 -27,-24 -41,-42 -3,-4 -8,-11 -12,-19 -4,-7 -3,-10 2,-15 4,-3 8,-5 12,-6l3 1 -1 2 -4 3c-2,1 -2,3 -1,5 3,7 7,14 12,20 10,14 21,28 33,40 5,4 11,8 16,12 3,3 7,3 11,3l1 0 2 2 -2 1c-3,1 -6,1 -8,1z"/>
    <path class="fil18" d="M2346 3092c-1,0 -1,0 -1,0 -3,-1 -6,-1 -9,-1 -2,-1 -3,-1 -3,-3 -1,-4 -2,-8 -3,-12 -2,0 -4,-1 -6,-1 -4,-1 -6,-4 -6,-7 -1,-2 -1,-5 -2,-8 0,-1 0,-1 1,-1 0,0 1,0 1,0 3,0 7,1 10,2l2 2c1,3 2,7 3,11 0,1 1,2 2,2 3,0 5,0 7,1l2 2c1,3 2,7 3,10 0,2 0,3 -1,3z"/>
    <path class="fil18" d="M2327 3096c-4,-1 -8,-2 -12,-3l-2 -2c0,-4 -1,-8 -2,-12l0 0c4,0 8,1 12,2l2 1c0,4 1,8 2,12l0 2z"/>
   </g>
   <path class="fil19" d="M1603 3159c-1,-1 -2,-2 -3,-4 -4,-11 -11,-19 -22,-21 -8,-2 -12,-7 -16,-13 10,-7 20,-13 31,-17 2,-1 4,-3 6,-4l-2 -2c-6,0 -13,-1 -19,-1 -5,0 -9,0 -14,1 0,0 0,0 0,0 -5,0 -8,-2 -10,-6 2,0 4,-1 6,-1 2,0 4,0 6,0 4,0 8,0 12,0 4,0 8,0 12,0 12,0 23,0 35,0 0,0 0,0 0,0 5,0 7,2 10,7 -5,0 -9,-1 -14,-1 -4,0 -8,1 -12,1 -2,0 -3,1 -5,2 1,1 3,2 4,2 11,3 19,13 20,24 0,5 -2,10 -7,12 -2,1 -3,1 -4,1 -2,0 -5,-1 -6,-3 -1,-3 -1,-8 0,-9 2,-1 6,-1 9,-2l2 1c0,-9 -7,-15 -17,-15 0,0 -1,0 -1,0 0,16 0,32 0,48l-1 0zm-6 -49c-8,5 -15,9 -21,12 8,7 15,13 21,18 0,-9 0,-19 0,-30z"/>
   <path class="fil19" d="M1435 3193c-1,-2 -2,-2 -3,-4 -3,-7 -8,-13 -16,-16l0 2c-1,11 -10,16 -18,16 -2,0 -3,0 -5,0 -6,-2 -11,-6 -16,-10 -5,-5 -10,-11 -14,-17l1 -1 3 2c4,6 9,11 16,15 4,2 8,4 12,4 3,0 5,0 7,-1 8,-4 11,-13 7,-20 -2,-3 -5,-5 -8,-5 -2,0 -3,1 -4,1l0 1c3,3 3,6 1,9 -1,2 -4,3 -6,3 -1,0 -2,0 -2,0 -4,-1 -6,-4 -6,-7 -1,-4 1,-7 4,-10 -3,-2 -5,-3 -8,-3 -2,0 -3,0 -4,1 -4,1 -8,2 -11,4 -1,0 -2,0 -3,0 -2,0 -3,0 -5,-2l3 -1c20,-7 40,-14 61,-21 1,-1 1,-1 2,-1 2,0 3,1 5,3 -4,1 -7,2 -10,3 6,18 12,36 18,54l-1 1zm-10 -19c-4,-11 -8,-23 -12,-34 -9,3 -18,6 -27,9l2 2 2 2 2 0c2,0 3,0 5,0 6,0 11,3 15,9 3,5 9,8 13,12z"/>
   <path class="fil18" d="M3080 2733c-1,-1 -2,-2 -3,-3 -4,-7 -8,-13 -16,-16l0 1c-1,11 -10,16 -19,16 -1,0 -3,0 -4,0 -6,-2 -12,-5 -16,-9 -6,-6 -10,-11 -14,-18l1 0 3 1c4,6 9,12 16,16 4,2 8,3 12,3 2,0 5,0 7,-1 8,-3 11,-12 7,-19 -2,-3 -5,-5 -9,-5 -1,0 -2,0 -4,1l1 1c2,3 3,6 1,8 -1,2 -4,3 -6,3 -1,0 -2,0 -2,0 -4,-1 -6,-3 -6,-7 -1,-3 1,-6 4,-9 -3,-2 -6,-3 -9,-3 -1,0 -2,0 -3,0 -4,2 -8,3 -11,4 -1,1 -2,1 -3,1 -2,0 -3,-1 -5,-2l3 -1c20,-7 40,-14 60,-21 1,-1 2,-1 3,-1 1,0 3,1 4,2 -3,2 -6,3 -10,4 6,18 12,36 19,53l-1 1zm-11 -18c-3,-12 -7,-23 -11,-34 -9,3 -18,6 -27,9l1 1 3 3 2 0c2,0 3,-1 5,-1 6,0 11,4 14,9 4,6 9,8 13,13z"/>
   <path class="fil19" d="M920 2773c-5,0 -9,-1 -13,-2 -4,-2 -7,-4 -10,-7 -3,-2 -5,-5 -7,-9 -1,-4 -2,-8 -2,-12 0,-2 0,-5 1,-7 1,-2 2,-4 3,-6 2,-2 4,-3 5,-4 2,-1 5,-2 7,-2l4 1 3 2c1,1 1,2 2,3 0,2 1,3 1,5 0,1 0,2 -1,4l-2 3 -3 2 -4 0 -3 0 -3 -2 -2 -3c-1,-1 -1,-2 -1,-4l0 0 0 -1 0 -1 1 -1 -2 2 -1 3 -1 3 0 3c0,3 0,6 2,9 1,3 3,5 6,7 2,2 5,3 9,4 3,1 7,2 11,2 5,0 8,-1 12,-2 3,-1 6,-3 8,-5 2,-2 4,-4 5,-7 1,-2 2,-5 2,-8 0,-2 0,-3 -1,-5 0,-1 -1,-3 -2,-4 -1,-1 -2,-2 -4,-2 -1,-1 -3,-1 -5,-1 -1,0 -2,0 -3,0l-3 2 -1 2 0 2c0,1 0,2 0,4l3 3c1,1 2,2 4,3 1,1 2,2 4,2l1 2 -1 1 -2 1 -32 0 -2 0 0 -2 0 -1 2 -1 28 0c-1,0 -2,-1 -4,-2 -1,-1 -2,-2 -3,-3 -1,-1 -2,-3 -3,-4 -1,-1 -1,-3 -1,-5 0,-1 0,-3 1,-4 0,-1 1,-3 2,-4 1,-1 3,-1 4,-2 2,0 3,-1 5,-1 3,0 5,1 7,2 2,1 4,2 5,4 2,2 3,4 4,6 0,2 1,5 1,7 0,3 0,6 -1,8 -1,2 -2,5 -3,7 -1,2 -2,4 -4,6 -2,2 -4,4 -6,5 -2,1 -5,2 -8,3 -2,1 -5,1 -9,1zm-16 -44l-2 1 -2 1 -1 1 0 3 0 2 1 2 2 1 2 0 3 0 1 -1 2 -2 0 -2c0,-2 -1,-3 -2,-4 -1,-1 -2,-2 -4,-2z"/>
   <path class="fil18" d="M2783 2763l-6 0 0 -21 -7 0c0,4 -2,7 -4,9 -2,3 -4,5 -7,7 -3,1 -6,3 -9,4 -4,0 -7,1 -10,1 -3,0 -5,0 -7,-1 -2,0 -5,0 -7,-1 -2,0 -4,-1 -6,-2 -2,-1 -4,-2 -6,-4 -1,-1 -3,-2 -3,-4 -1,-2 -2,-4 -2,-6 0,-1 0,-2 1,-3l2 -3 3 -2c2,-1 3,-1 4,-1l46 0c0,-3 0,-6 -1,-8 -1,-3 -2,-5 -4,-6 -1,-2 -3,-4 -5,-5 -1,-1 -3,-1 -5,-2 1,1 2,2 3,4 0,1 1,3 1,4 0,1 -1,3 -1,4l-3 3c-1,1 -2,2 -3,2 -2,1 -3,1 -5,1 -2,0 -3,0 -5,-1 -1,0 -2,-1 -4,-2 -1,-1 -2,-2 -2,-4 -1,-1 -1,-2 -1,-4 0,-2 0,-4 1,-5 1,-2 2,-3 3,-4 1,-1 3,-2 5,-3 1,0 3,0 6,0 4,0 8,0 11,2 3,1 6,3 8,5 2,3 4,6 5,9 1,3 2,7 2,10l6 0 0 -26 6 0 0 53zm-64 -21c-1,0 -2,0 -3,1l-1 2c0,2 1,3 2,5 1,1 3,3 5,4 3,1 5,1 8,2 3,1 6,1 10,1 2,0 5,0 8,-1 2,-1 5,-2 7,-3 2,-1 4,-3 5,-5 2,-2 3,-4 4,-6l-45 0zm23 -27l-2 1 -2 1 -2 2 0 2 0 3 2 2 2 1 2 0 2 0 2 -1 1 -2 1 -3 -1 -2 -1 -2 -2 -1 -2 -1z"/>
   <path class="fil20" d="M2018 2707c0,0 0,0 0,0 -1,-2 -2,-4 -3,-6 -1,-2 -1,-4 -1,-6 0,-3 0,-6 0,-9 1,-2 2,-6 3,-9 1,-3 3,-5 5,-7 1,-3 3,-4 5,-6 2,-1 4,-1 7,-2 2,0 4,0 6,1 2,1 3,2 4,3 0,0 0,1 1,1 0,1 1,2 1,3 1,2 1,3 0,5 0,2 0,3 -1,4 0,2 -1,3 -2,4 -1,1 -2,2 -3,3l19 7c-1,-1 -1,-2 -1,-4 0,-1 1,-3 1,-4 1,-1 1,-3 2,-4 1,-1 3,-2 4,-3 1,-1 3,-1 4,-1 2,-1 3,0 5,0 2,1 4,3 6,4 0,1 0,1 0,1 1,2 2,4 3,6 0,2 0,4 0,7 0,3 -1,6 -2,8 -2,4 -3,7 -5,9 -2,3 -4,5 -5,6 -2,2 -4,3 -6,4 -2,1 -4,2 -6,2 -1,0 -3,1 -5,0 -1,0 -3,0 -4,-1 -1,0 -3,-1 -4,-2 -1,-1 -2,-2 -3,-3 0,-1 -1,-2 -1,-4 -1,-1 -1,-3 -1,-5 -1,2 -3,3 -4,3 -1,1 -3,2 -4,2 -1,0 -3,0 -4,0 -2,0 -3,-1 -4,-1 -2,-1 -3,-1 -4,-3 -1,0 -2,-1 -3,-3zm5 -27c-2,4 -2,7 -3,10 0,3 0,6 1,8 0,2 1,4 2,5 0,1 0,1 0,1 1,1 3,2 4,3 2,1 3,1 5,1 1,0 2,-1 4,-2 1,0 2,-1 3,-2 1,-2 2,-3 2,-4l6 3 0 4c0,1 0,3 0,4 0,1 1,2 2,3 0,1 0,1 0,1 1,1 2,2 4,3 1,0 3,0 4,0 2,0 4,-1 6,-2 2,-1 4,-3 6,-5 2,-3 4,-6 5,-10 -1,1 -3,2 -4,2 -2,-1 -3,-1 -4,-1l-37 -15c-1,-1 -2,-2 -4,-3 0,0 0,-1 -1,-1 0,-1 -1,-2 -1,-3zm16 -10l-2 -1c-2,-1 -4,-1 -5,0 -2,0 -3,2 -5,3l0 4 1 2 2 2 1 1 3 0 2 -1 2 -1 1 -2 1 -2 0 -3 -1 -2zm37 16c-1,-1 -2,-2 -3,-2l-2 0 -3 0 -2 2 -1 2 0 2 0 2 1 2 2 2 2 0 2 0 2 -1c1,0 2,-1 3,-2 0,-2 0,-4 -1,-6 0,0 0,-1 0,-1z"/>
   <path class="fil20" d="M1823 3100c0,-1 0,-1 -1,-1 -1,-1 -2,-3 -3,-5 -1,-2 -2,-4 -3,-6 0,-2 -1,-5 -1,-8 0,-3 0,-6 1,-10 1,-3 1,-6 3,-8 1,-2 2,-4 4,-6 2,-2 4,-3 6,-4 2,0 4,0 6,0 2,0 4,1 5,2 0,0 0,0 0,0 1,1 2,2 3,4 0,1 1,3 1,4 0,2 0,3 0,5 0,1 -1,2 -2,3 0,2 -1,3 -2,4l20 3c-1,-1 -1,-2 -2,-4 0,-1 0,-2 0,-4 1,-1 1,-3 2,-4 1,-1 1,-3 3,-4 1,-1 2,-2 3,-2 2,-1 4,-1 5,0 3,0 5,1 7,2 0,1 0,1 0,1 2,1 3,3 4,5 1,2 1,4 2,7 0,3 0,5 -1,9 0,3 -1,6 -2,9 -2,3 -3,5 -4,7 -2,2 -3,4 -5,5 -2,1 -3,2 -5,3 -2,1 -3,1 -5,2 -1,0 -3,0 -4,-1 -2,0 -3,0 -4,-1 -2,0 -3,-1 -4,-2 -1,-1 -2,-2 -3,-4 0,-1 -1,-3 -1,-5 -1,2 -2,3 -3,4 -1,2 -3,2 -4,3 -1,0 -3,1 -4,1 -1,0 -3,0 -4,0 -2,-1 -3,-1 -4,-2 -2,-1 -3,-1 -4,-2zm-1 -28c-1,4 -1,7 0,10 0,3 1,6 2,8 1,2 2,4 3,5 0,0 0,0 0,0 2,1 3,2 5,2 2,1 3,1 4,0 2,0 3,-1 4,-2 1,-1 2,-2 3,-4 0,-1 1,-2 1,-3l7 1 0 4c0,1 0,3 1,4 1,1 1,2 2,3 0,0 1,0 1,0 1,1 2,2 4,2 1,0 3,0 5,0 2,-1 3,-2 5,-4 2,-1 3,-3 5,-6 1,-3 2,-6 3,-10 -1,1 -3,2 -4,2 -2,0 -3,0 -5,0l-38 -7c-2,0 -3,-1 -5,-2 0,0 0,0 -1,-1 -1,0 -1,-1 -2,-2zm13 -13l-2 -1c-2,0 -3,0 -5,1 -1,1 -2,3 -3,4l1 4 1 2 2 1 2 1 2 -1 2 -1 2 -2 1 -2 0 -2 -1 -2 -2 -2zm40 8c-1,-1 -2,-2 -3,-2l-3 0 -2 1 -1 2 -1 2 0 2 1 3 1 2 3 1 1 0 2 -1 3 -1c0,-1 1,-2 1,-3 0,-2 0,-4 -1,-5 -1,-1 -1,-1 -1,-1z"/>
   <path class="fil20" d="M1784 2584c0,0 0,0 0,0 -2,0 -4,0 -5,-1 -2,0 -4,-1 -6,-2 -2,-1 -3,-3 -5,-5 -2,-2 -4,-4 -5,-7 -2,-2 -3,-4 -4,-7 0,-2 -1,-4 0,-6 0,-2 0,-4 1,-6 1,-1 3,-3 4,-4 2,-1 3,-1 5,-1 0,0 0,0 0,0 1,0 2,0 3,0l4 2 2 3 2 4 0 3 15 -9 -3 -2 -3 -3c0,-1 -1,-2 -1,-3 -1,-1 -1,-3 -1,-4 0,-1 1,-3 1,-4 1,-1 2,-2 4,-3 1,-1 3,-2 5,-2 0,0 1,0 1,0 2,0 3,0 5,1 2,1 4,2 6,3 1,2 3,4 4,6 2,3 3,6 4,8 1,3 2,5 2,7 0,2 0,4 0,6 0,2 -1,3 -2,5 0,1 -1,3 -2,4l-3 2 -3 2c-1,0 -3,1 -4,1 -1,0 -2,-1 -4,-1 -1,-1 -2,-1 -4,-2 1,1 1,3 1,4 0,1 -1,3 -1,4l-2 3 -3 2c-1,1 -2,1 -4,2 -1,0 -2,0 -4,0zm-16 -17c1,3 3,5 5,7 2,2 4,3 6,4 2,0 4,1 5,1 0,0 0,0 1,0 1,0 3,-1 4,-1 1,-1 2,-2 3,-3l1 -4c0,-1 0,-2 -1,-4l-1 -3 5 -3 3 2 3 2 3 1c2,0 3,-1 4,-1 1,-1 2,-2 3,-4 1,-1 1,-3 2,-5 0,-2 -1,-4 -1,-7 -1,-2 -2,-5 -4,-8 0,1 -1,3 -2,4l-2 2 -30 19c-1,0 -2,1 -3,1 -1,0 -1,0 -2,0 -1,0 -2,0 -2,0zm0 -16l-2 0c-1,1 -2,2 -2,4 0,1 0,3 0,5l3 1 2 1 2 0 1 -1 2 -2 0 -2 0 -2 0 -2 -2 -1 -2 -1 -2 0zm30 -19c-1,0 -2,0 -2,1l-2 2 -1 1 0 3 1 1 2 2 1 1 3 0 2 -1 1 -1 1 -1 0 -2 0 -3c-1,-2 -3,-2 -4,-3 -1,0 -1,0 -2,0z"/>
   <path class="fil18" d="M3063 2946c-1,0 -1,0 -1,0 -2,0 -4,-1 -7,-1 -2,-1 -4,-2 -6,-3 -3,-2 -5,-4 -7,-6 -2,-2 -4,-5 -6,-8 -2,-3 -4,-6 -4,-9 -1,-3 -2,-5 -1,-8 0,-2 0,-5 2,-7 1,-2 3,-4 5,-5 2,-1 3,-2 5,-2 0,0 0,0 1,0 1,0 2,1 4,1 1,1 3,2 4,3 1,1 2,2 3,3 1,2 1,3 2,5 0,1 0,3 0,4l18 -12c-1,0 -2,-1 -3,-2 -1,-1 -2,-2 -3,-3 -1,-1 -2,-3 -2,-5 -1,-1 -1,-3 -1,-4 0,-2 1,-4 1,-5 1,-2 3,-3 4,-4 2,-1 5,-2 7,-2 1,0 1,0 1,0 2,0 4,0 6,1 3,1 5,2 7,4 2,2 4,5 6,7 2,4 4,7 5,10 1,3 2,6 2,8 0,3 0,5 0,8 -1,2 -1,4 -2,6 -1,2 -2,3 -3,5 -1,1 -2,2 -3,3 -2,1 -3,1 -4,2 -2,0 -3,0 -5,0 0,0 0,0 0,0 -1,0 -3,0 -5,0 -1,-1 -3,-2 -4,-3 0,2 0,4 0,5 0,2 -1,3 -1,5 -1,1 -2,3 -3,4 -1,1 -2,2 -4,3 -1,0 -2,1 -4,1 -1,1 -3,1 -4,1zm-21 -21c2,3 4,6 7,8 2,2 5,4 7,5 2,1 4,1 6,1 0,0 1,0 1,0 2,0 3,0 5,-1 1,-1 3,-3 3,-4 1,-1 2,-3 2,-4 0,-2 0,-3 -1,-5 0,-1 -1,-3 -1,-4l6 -4 3 3c1,1 2,2 4,3 1,0 3,0 4,0 0,0 0,0 0,0 2,0 4,0 5,-1 2,-1 3,-2 4,-4 1,-2 1,-4 1,-7 1,-2 0,-5 -1,-8 -1,-3 -2,-7 -4,-10 -1,1 -1,3 -2,4 -1,2 -2,3 -4,4l-36 22c-1,1 -3,2 -4,2 -1,0 -1,0 -2,0 -1,0 -2,0 -3,0zm1 -20l-3 1c-1,1 -2,2 -3,4 0,2 0,4 1,6l3 2 2 1 3 -1 1 -1 2 -2 1 -2 0 -3 -1 -2 -2 -2 -2 -1 -2 0zm37 -23c-2,0 -3,0 -4,1l-2 2 0 2 0 3 1 2 1 2 2 1 3 0 3 0 1 -2 2 -2 0 -2c0,-1 0,-3 0,-4 -2,-1 -4,-2 -6,-3 0,0 -1,0 -1,0z"/>
   <path class="fil19" d="M1072 2715c0,0 0,0 -1,0 -1,0 -3,0 -5,-1 -2,0 -4,-1 -6,-2 -2,-2 -4,-3 -5,-5 -2,-2 -4,-5 -6,-7 -1,-3 -3,-5 -3,-8 -1,-2 -1,-4 -1,-6 0,-3 1,-5 2,-6 1,-2 2,-4 4,-5 1,-1 3,-1 4,-1 1,0 1,0 1,0 1,0 2,0 4,0 1,1 2,2 3,3 1,1 2,2 3,3 0,1 1,2 1,3 0,2 1,3 0,4l16 -10c-1,0 -2,-1 -3,-2l-3 -2c0,-2 -1,-3 -1,-4 -1,-2 -1,-3 -1,-4 0,-2 1,-3 1,-4 1,-2 2,-3 4,-4 1,-1 3,-2 5,-2 1,0 1,0 1,0 2,0 4,1 5,1 3,1 4,2 6,4 2,2 4,4 5,6 2,3 4,6 4,8 1,3 2,5 2,7 0,3 0,5 0,7 0,2 -1,3 -1,5 -1,1 -2,3 -3,4 -1,1 -2,2 -3,3 -1,0 -2,1 -3,1 -2,1 -3,1 -4,1 -2,0 -3,0 -4,-1 -2,0 -3,-1 -4,-2 0,2 0,3 0,5 0,1 0,2 -1,3 -1,2 -1,3 -2,4 -1,1 -2,1 -3,2 -1,1 -3,1 -4,2 -1,0 -3,0 -4,0zm-18 -18c2,3 4,6 7,7 2,2 4,4 6,4 1,1 3,1 5,1 0,0 0,0 0,0 2,0 3,0 5,-1 1,-1 2,-2 3,-3 0,-1 1,-2 1,-4 0,-1 0,-2 -1,-3 0,-2 0,-3 -1,-4l5 -3 3 2c1,1 2,2 3,2 1,1 2,1 4,1 0,0 0,0 0,0 1,0 3,0 4,-1 1,-1 2,-2 3,-4 1,-1 1,-3 2,-5 0,-2 -1,-5 -1,-7 -1,-3 -2,-6 -4,-9 -1,1 -1,3 -2,4 -1,1 -2,2 -3,3l-30 19c-2,0 -3,1 -4,1 -1,0 -1,0 -2,0 -1,0 -2,0 -3,0zm1 -17l-2 1c-1,1 -2,2 -2,3 -1,2 -1,4 0,5l2 2 3 1 2 0 1 -1 2 -2 0 -2 0 -2 0 -2 -2 -2 -2 -1 -2 0zm32 -19c-1,0 -2,0 -3,1l-2 1 -1 2 1 2 0 2 2 2 2 1 2 0 2 -1 1 -1 2 -1 0 -2c0,-1 0,-2 0,-4 -2,-1 -3,-2 -5,-2 0,0 -1,0 -1,0z"/>
   <path class="fil18" d="M2576 2721c-1,0 -1,0 -1,0 -2,-1 -3,-2 -5,-3 -2,-1 -3,-3 -5,-5 -1,-1 -3,-4 -4,-6 -1,-3 -2,-6 -3,-9 -1,-3 -1,-6 -1,-9 0,-2 1,-5 2,-7 1,-2 2,-4 4,-5 1,-1 3,-2 5,-3 2,0 4,0 5,0 0,0 1,0 1,0 1,1 2,1 3,2 1,1 2,2 3,4 1,1 1,2 1,4 1,1 1,2 1,4 0,1 -1,2 -1,4l19 -5c-1,-1 -2,-2 -3,-3 -1,-1 -1,-2 -1,-3 -1,-2 -1,-3 -1,-5 0,-1 1,-3 1,-4 1,-1 1,-3 3,-4 1,-1 2,-1 4,-2 2,0 4,0 7,0 0,0 0,0 1,0 1,1 3,2 4,3 2,2 3,4 5,6 1,2 2,5 3,8 0,3 1,6 1,9 0,3 0,6 -1,8 0,2 -1,4 -2,6 -1,2 -2,4 -3,5 -1,1 -3,2 -4,3 -1,1 -3,1 -4,2 -1,0 -3,0 -4,0 -2,0 -3,0 -4,-1 -1,0 -3,-1 -4,-2 -1,-1 -2,-2 -3,-3 0,1 -1,3 -1,4 -1,2 -2,3 -3,4 -1,1 -2,2 -3,2 -1,1 -3,1 -4,2 -1,0 -3,0 -4,0 -2,0 -3,0 -4,-1zm-12 -24c1,4 2,7 4,9 1,3 3,5 5,6 1,2 3,3 4,3 0,0 1,0 1,0 2,1 3,1 5,1 1,-1 3,-1 4,-2 1,-1 1,-2 2,-4 1,-1 1,-2 1,-4 0,-1 0,-2 0,-4l6 -1 2 4c1,1 2,2 3,3 0,1 2,1 3,2 0,0 0,0 0,0 1,0 3,0 5,0 1,-1 2,-1 4,-3 1,-1 2,-3 3,-5 1,-2 2,-4 2,-7 0,-3 0,-6 -1,-10 -1,1 -2,2 -3,3 -1,1 -3,2 -4,2l-37 8c-2,1 -3,1 -4,1 -1,0 -2,-1 -2,-1 -1,0 -2,0 -3,-1zm7 -17l-2 0c-2,1 -3,2 -4,3 -1,2 -1,3 -2,5l2 3 2 1 3 1 1 0 2 -2 2 -2 1 -2 -1 -2 0 -2 -2 -2 -2 -1zm38 -8c-1,0 -2,0 -3,0l-2 1 -2 2 0 2 0 2 0 2 2 2 2 1 3 0 1 -1 2 -1 1 -2c1,-1 1,-2 1,-3 -1,-2 -2,-4 -4,-4 0,-1 -1,-1 -1,-1z"/>
   <path class="fil19" d="M1198 3060c-1,0 -2,-1 -3,-1 -2,-1 -3,-1 -4,-2l-3 -3 -3 -3 -2 -4c-1,-3 -2,-6 -2,-9 0,-3 0,-6 1,-8 1,-3 3,-5 4,-7 2,-2 5,-4 8,-5 1,-1 3,-1 4,-1 2,-1 3,-1 5,-1 0,0 0,0 0,0 2,0 3,0 5,1 1,0 2,1 4,2 0,-2 0,-4 1,-5 0,-1 1,-2 2,-3l2 -3 3 -1 3 -1 3 0 4 1 3 2c0,-2 1,-3 1,-4l2 -4 3 -2 3 -1c2,-1 4,-2 7,-2 0,0 0,0 1,0 2,0 4,1 6,2 2,1 4,3 6,5 1,2 3,4 4,7 0,2 1,4 1,6 0,2 0,4 0,7 0,2 -1,4 -2,6 -1,2 -3,4 -5,6l-4 -4c1,-1 2,-3 3,-4 1,-1 1,-3 1,-4 1,-2 1,-4 1,-5 -1,-2 -1,-4 -2,-6 -1,-1 -2,-3 -3,-4 -1,-2 -2,-3 -3,-4 -2,-1 -3,-1 -5,-2 0,0 0,0 -1,0 -1,0 -2,0 -4,1l-2 2 -2 3c-1,2 -1,3 -1,4 0,2 1,4 2,5l9 22 -7 3 -9 -22c-1,-1 -1,-3 -2,-4l-3 -3 -3 -1 -4 0 -3 3 -1 3c0,1 0,3 0,4 0,1 1,3 1,4l10 22 -7 3 -9 -21c0,-1 -1,-3 -3,-4 -1,-1 -2,-2 -4,-3 -1,0 -3,-1 -4,-1 -1,0 -1,0 -1,0 -1,0 -3,1 -5,1 -2,1 -3,2 -5,3 -1,2 -2,3 -3,5 -1,1 -1,3 -2,5 0,1 0,3 1,5l1 -2 1 -2 2 -2 3 -2c2,0 4,-1 5,-1 1,0 1,0 1,0 2,0 3,1 5,2 1,0 2,1 4,3 1,1 2,2 2,4 1,2 1,4 1,5 0,2 0,4 -1,5 0,2 -1,3 -2,5 -1,1 -3,2 -4,2 -2,1 -4,2 -5,2 0,0 0,0 -1,0zm-1 -21c-1,0 -2,0 -3,1l-2 1 -2 3 0 2 0 3 2 3 3 2 2 1 3 -1 3 -1 1 -3 0 -3 0 -3c-1,-2 -3,-4 -4,-4 -1,-1 -2,-1 -3,-1z"/>
   <path class="fil18" d="M2531 3182c-1,0 -1,0 -1,0l-3 -5c2,-1 3,-2 4,-3 2,-1 3,-2 4,-3 0,-2 1,-3 2,-5 0,-2 0,-4 0,-6 0,-2 0,-3 0,-5 -1,-2 -2,-4 -2,-5 -1,-2 -3,-3 -4,-4 -1,-1 -3,-1 -5,-1l-4 1 -2 2 -2 4c-1,2 -1,3 -1,5l0 24 -8 1 0 -24c0,-2 0,-4 0,-6 -1,-1 -1,-2 -2,-3 -1,-2 -2,-2 -3,-3l-3 -1 -4 1 -2 3 -2 4c0,1 0,3 0,4l0 25 -7 0 -1 -23c0,-2 0,-4 -1,-5 0,-2 -1,-3 -2,-5 -2,-1 -3,-2 -5,-3 -1,0 -3,-1 -5,-1 -2,0 -4,1 -6,1 0,1 -1,1 -1,1 -1,0 -3,1 -4,2 -1,1 -2,3 -3,4 -1,2 -2,4 -2,6l2 -2 2 -1 3 -1 3 -1c2,0 4,1 6,1 1,1 3,2 4,4 1,1 2,2 2,4 1,2 1,3 1,5 0,2 0,4 -1,6 -1,2 -2,3 -3,4 -1,2 -2,3 -4,3 0,0 0,0 -1,0 -1,1 -2,1 -4,1 -2,0 -4,0 -5,-1 -2,0 -3,-1 -4,-2 -1,-1 -2,-2 -3,-3 -1,-2 -1,-3 -2,-4 0,-2 0,-3 -1,-4 0,-2 0,-3 0,-5 0,-3 0,-6 1,-9 1,-3 3,-5 5,-8 2,-2 4,-3 7,-4 0,-1 0,-1 0,-1 3,-1 6,-1 9,-1 1,0 3,0 5,0 1,0 3,1 4,2 2,0 3,1 4,2 1,1 3,2 4,4 0,-2 1,-3 2,-4 1,-2 2,-2 4,-3 0,0 0,0 1,0 0,-1 1,-1 2,-1l3 -1 3 1 3 1 3 2c1,1 2,2 3,4 1,-2 2,-3 3,-4 1,-1 2,-2 3,-2l3 -1 4 -1c3,0 5,1 8,2 2,1 4,3 5,4 2,2 3,5 4,7 0,3 1,5 1,8 0,2 -1,5 -1,7 -1,2 -2,4 -3,6 -2,2 -3,4 -5,5 -2,2 -3,3 -5,4zm-70 -21l-2 2 -2 2 0 3 0 4 2 2 2 2 3 1 3 -1 3 -1 1 -3 1 -3c0,-3 -1,-5 -2,-6 -2,-2 -4,-2 -6,-2l-3 0z"/>
   <path class="fil20" d="M1994 2934l-7 -13c-4,-1 -7,-2 -11,-4 -3,-3 -6,-6 -8,-9 -1,-4 -2,-7 -3,-11 0,-3 1,-7 2,-10 1,-3 3,-7 6,-10 3,-3 6,-5 10,-7 4,-2 8,-4 12,-4 1,0 2,0 4,0 2,0 5,0 7,1 3,0 6,2 9,4 3,2 5,5 7,8 1,3 2,5 3,8 0,3 0,5 0,8l-5 -2c0,-2 0,-4 0,-6 0,-2 -1,-4 -1,-6 -2,-2 -3,-4 -6,-5 -2,-2 -5,-3 -7,-3 -2,-1 -3,-1 -5,-1 -1,0 -3,0 -5,1 -3,0 -6,1 -10,3 -3,2 -6,4 -8,6 -3,3 -4,5 -6,8 -1,3 -1,5 -1,8 0,3 0,5 1,8 1,2 3,4 5,5 2,1 4,2 6,3l0 -1c-1,-2 -1,-3 -2,-5 0,-1 0,-3 1,-4 0,-2 1,-3 2,-4 1,-1 2,-2 3,-3 1,-1 3,-1 4,-1 1,0 1,0 1,0 1,0 3,0 4,1 0,-2 1,-3 2,-4 1,-2 2,-3 3,-4 2,0 3,-1 5,-1 0,0 0,0 0,0 2,0 3,0 4,1 1,0 3,1 4,2 1,1 2,3 3,4l11 21 -5 2 -10 -18 -2 -2 -2 -2 -2 -1 -2 1 -2 1 -1 3 1 2 0 3 10 18 -5 3 -9 -18 -2 -3 -2 -1 -2 -1 -3 0 -1 2 -1 2 0 3 1 3 10 18 -5 3z"/>
   <path class="fil18" d="M2592 3108c0,0 0,0 -1,0 -2,0 -3,-1 -5,-1 -2,-1 -4,-2 -6,-3 -2,-1 -4,-3 -6,-5l4 -5c1,2 3,4 5,5 1,1 3,2 4,3 1,1 3,1 4,1 1,0 2,0 3,0 1,0 1,0 2,0 2,0 3,0 5,-1 1,-1 2,-1 3,-2l2 -3 0 -4c0,-2 -1,-3 -2,-4 -1,-2 -2,-3 -4,-3 -2,-1 -3,-2 -5,-3 -2,0 -4,-1 -6,-2 -2,0 -5,-1 -7,-2 -2,-1 -3,-2 -5,-3 -2,-1 -3,-3 -4,-5 -1,-1 -2,-3 -2,-6 -1,-2 -1,-5 0,-7 1,-2 2,-4 4,-5 1,-2 3,-4 6,-5 2,-1 5,-2 8,-2 1,0 3,0 4,0 1,0 1,0 1,0 2,0 4,0 5,1 2,0 4,1 6,2 1,2 3,3 5,5l-3 5c-3,-4 -6,-6 -9,-7 -2,-2 -5,-2 -7,-2 -1,0 -1,0 -2,0 -2,0 -3,1 -5,1 -1,1 -2,1 -3,2l-2 3 0 3c0,2 1,4 2,5 1,1 2,2 4,3 2,1 4,1 6,2 2,1 4,1 7,2 2,1 4,1 6,2 2,1 4,2 6,3 2,1 3,3 5,5 1,1 2,3 2,6 0,2 0,5 -1,7 0,2 -1,4 -3,6 -2,2 -4,4 -7,5 -2,1 -5,2 -9,2 -2,1 -3,1 -5,1z"/>
   <path class="fil20" d="M1781 2892c-2,0 -3,0 -5,0 -2,-1 -5,-1 -7,-2l2 -7c2,1 4,2 6,3 2,0 4,1 5,1 1,0 1,0 2,0 1,0 2,0 3,0 1,-1 3,-1 4,-2 2,-1 3,-2 4,-3l2 -3 1 -4 -1 -3c-1,-2 -2,-3 -4,-4 -1,0 -3,-1 -5,-1 -1,0 -2,0 -3,0 -1,0 -2,0 -3,0 -2,0 -4,0 -6,0 -2,0 -4,0 -5,0 -1,0 -1,0 -2,0 -2,0 -4,0 -6,0 -2,-1 -4,-2 -5,-3 -2,-1 -4,-3 -5,-5 -1,-2 -1,-4 -2,-7 0,-2 1,-4 2,-6 0,-2 2,-5 3,-6 2,-2 4,-4 7,-5 2,-1 3,-2 5,-3 2,0 3,-1 5,-1 1,0 1,0 1,0 2,0 3,0 5,1 2,0 5,1 7,2l-2 6c-3,-2 -7,-4 -10,-4 -1,0 -1,0 -1,0 -3,0 -6,1 -8,2 -2,1 -3,2 -4,3l-2 3 -1 3 1 3c1,2 2,3 3,4 2,0 3,1 5,1 1,0 2,0 3,0 1,0 2,0 4,0 2,0 4,-1 7,-1 2,0 4,0 7,0 0,0 0,0 0,0 2,0 4,0 6,0 2,1 4,2 6,3 2,1 3,3 4,5 2,2 2,4 3,7 0,2 0,4 -1,7 -1,2 -3,4 -5,6 -2,3 -4,5 -8,7 -1,0 -3,1 -5,2 -1,0 -3,1 -5,1 -1,0 -2,0 -2,0z"/>
   <path class="fil20" d="M2169 2808c0,0 0,0 0,0 -12,0 -20,-6 -27,-14 -10,-12 -6,-26 9,-28 7,-2 13,-4 20,-6 -2,-6 -4,-12 -6,-19 -15,4 -29,8 -44,12 0,-2 -1,-4 -2,-6 21,-6 41,-11 62,-17 1,2 1,4 2,6 -3,1 -6,2 -10,3 0,2 1,4 1,6 4,15 8,29 12,43 3,11 -5,20 -17,20zm3 -42c-7,2 -14,4 -21,6 -7,2 -10,8 -6,15 6,9 15,14 26,14 0,0 0,0 0,0 6,0 10,-4 8,-10 -2,-8 -4,-16 -7,-25z"/>
   <path class="fil18" d="M2527 2858c0,0 0,0 0,0 -12,0 -20,-6 -27,-14 -11,-12 -6,-26 9,-29 7,-1 13,-3 19,-5 -1,-6 -3,-12 -5,-19 -15,4 -29,8 -44,12 0,-2 -1,-4 -2,-6 21,-6 41,-11 62,-17 1,2 1,4 2,6 -3,1 -6,2 -10,3 0,2 1,4 1,6 4,15 8,29 12,43 3,11 -5,20 -17,20zm3 -42c-7,2 -14,4 -21,6 -7,2 -10,8 -6,15 6,9 15,14 26,14 0,0 0,0 0,0 6,0 10,-4 8,-10 -2,-8 -4,-16 -7,-25z"/>
   <path class="fil19" d="M1396 3013c-5,0 -10,-2 -15,-6 -8,-6 -7,-16 2,-19 4,-2 8,-4 12,-7 -2,-4 -4,-7 -6,-11 -9,5 -18,9 -27,14 0,-1 -1,-2 -2,-4 13,-6 25,-13 37,-20 1,2 2,3 2,4 -2,1 -3,2 -6,4l2 3c5,9 9,17 14,26 4,6 0,14 -8,15 -1,1 -3,1 -5,1zm1 -28c-5,2 -9,5 -13,7 -4,2 -5,7 -1,10 4,4 8,6 14,6 1,0 3,0 4,0 4,-1 6,-5 4,-8 -2,-5 -5,-10 -8,-15z"/>
   <path class="fil20" d="M2164 3158c-2,0 -3,0 -5,-1 0,-3 0,-7 0,-11 11,-2 16,-6 17,-13 1,-8 -3,-13 -11,-16 -2,5 -5,9 -7,14 -2,3 -3,4 -5,4 -1,0 -3,-1 -4,-4 -3,-4 -5,-9 -8,-14 -7,3 -11,8 -11,15 1,8 7,13 17,13 0,4 0,8 0,12 -2,0 -3,1 -5,1 -9,0 -18,-7 -22,-16 -6,-14 -1,-26 14,-37 -3,-10 -3,-10 -13,-10 -4,0 -8,0 -12,0 0,-5 0,-8 0,-13 28,0 56,0 84,0 0,4 0,8 0,12 -5,1 -11,0 -16,2 -2,1 -3,5 -5,8 15,9 20,23 15,38 -4,9 -14,16 -23,16zm-20 -63c3,6 6,12 9,18 4,-6 6,-12 9,-18 -6,0 -11,0 -18,0z"/>
   <path class="fil19" d="M1105 2986c-5,0 -10,-2 -15,-6 -8,-6 -7,-16 2,-19 4,-2 8,-4 12,-7 -2,-3 -4,-7 -6,-11 -9,5 -18,10 -27,14 -1,-1 -1,-2 -2,-4 12,-6 25,-13 37,-20 1,2 1,3 2,4 -2,1 -4,2 -6,4l2 3c4,9 9,17 14,26 3,7 0,14 -8,15 -2,1 -3,1 -5,1zm1 -28c-5,2 -9,5 -13,7 -4,2 -5,7 -2,10 4,4 9,6 15,6 1,0 3,0 4,0 4,-1 6,-5 4,-8 -2,-5 -5,-10 -8,-15z"/>
   <path class="fil19" d="M1229 2988c-2,0 -4,-1 -7,-1 -2,-1 -4,-2 -6,-4 -2,-1 -4,-3 -5,-5 -1,-2 -2,-5 -2,-8 0,-2 1,-4 2,-6 0,-1 2,-3 3,-5l-3 -1 -3 -3c0,-1 -1,-2 -1,-3 -1,-2 -1,-3 -1,-5 0,-2 0,-3 1,-5 1,-1 2,-3 4,-4 1,-1 3,-2 5,-3 2,-1 5,-1 7,-2l1 7c-1,0 -2,0 -3,1 -2,0 -3,1 -4,1l-3 3c-1,0 -1,2 -1,3 0,1 0,2 1,3l2 2 3 1 3 1 7 0 0 7 -5 0 -3 0 -2 2 -2 2 -1 4c0,2 1,3 1,5 1,1 2,2 4,3 1,1 2,2 4,2 1,1 3,1 4,1 3,0 6,-1 8,-2 2,-1 3,-2 5,-4 1,-1 2,-3 2,-5 1,-2 1,-4 1,-6 0,-2 0,-3 -1,-5 0,-2 -1,-4 -1,-5 -1,-2 -2,-4 -3,-5 -1,-2 -1,-3 -2,-5 -1,-2 -1,-3 -2,-5 0,-2 -1,-4 -1,-5 0,-3 1,-5 1,-6 1,-2 2,-3 3,-4 1,-2 2,-2 4,-3 1,-1 3,-1 5,-1 1,0 2,0 4,1 1,0 2,1 3,2l2 3c1,1 1,3 1,4l0 2 -1 2 -1 2 -1 2 -5 -4 1 -2 0 -2 0 -1 0 -1 -2 -1 -1 0 -2 0 -2 2 -1 2 -1 3c0,1 0,3 1,5 0,1 1,3 2,4 0,2 1,4 2,5 1,2 2,4 2,5 1,2 2,4 2,6 1,2 1,4 1,5 0,4 -1,7 -2,10 -1,2 -2,5 -4,7 -2,2 -4,4 -7,5 -3,1 -6,2 -10,2z"/>
   <path class="fil20" d="M1980 3187c-5,0 -10,-1 -14,-2 -4,-2 -7,-4 -10,-7 -3,-2 -5,-5 -6,-9 -2,-4 -3,-8 -3,-12 0,-2 1,-5 1,-7 1,-2 2,-4 4,-6 1,-2 3,-3 5,-4 2,-1 4,-2 6,-2l4 1 3 2c1,1 2,2 2,3 1,2 1,3 1,5 0,1 0,2 -1,4l-2 3 -3 2 -3 0 -4 0 -3 -2 -2 -3c0,-1 -1,-2 -1,-4l0 0 1 -1 0 -1 0 -1 -2 2 -1 3 -1 3 0 3c0,3 1,6 2,9 2,3 4,5 6,7 3,2 6,3 9,4 4,1 8,2 12,2 4,0 8,-1 11,-2 3,-1 6,-3 8,-5 3,-2 4,-4 6,-7 1,-2 1,-5 1,-8 0,-2 0,-3 0,-5 -1,-1 -2,-3 -3,-4 -1,-1 -2,-2 -3,-2 -2,-1 -3,-1 -5,-1 -2,0 -3,0 -4,0l-2 2 -2 2 0 2c0,1 0,3 1,4l2 3c1,1 3,2 4,3 1,1 3,2 4,2l1 2 0 1 -2 1 -33 0 -1 0 -1 -2 1 -1 1 -1 28 0c-1,0 -2,-1 -3,-2 -2,-1 -3,-2 -4,-3 -1,-1 -2,-3 -3,-4 0,-1 -1,-3 -1,-5 0,-1 1,-3 1,-4 1,-1 2,-3 3,-4 1,-1 2,-1 4,-2 1,0 3,-1 5,-1 2,0 4,1 6,2 2,1 4,2 6,4 1,2 2,4 3,6 1,2 1,5 1,7 0,3 0,6 -1,8 0,2 -1,5 -2,7 -2,2 -3,4 -5,6 -1,2 -3,4 -6,5 -2,1 -4,2 -7,3 -3,1 -6,1 -9,1zm-16 -44l-2 1 -2 1 -1 1 -1 3 1 2 1 2 1 1 3 0 2 0 2 -1 1 -2 0 -2c0,-2 0,-3 -1,-4 -1,-1 -2,-2 -4,-2z"/>
   <path class="fil18" d="M2915 2813c-2,0 -4,0 -7,-1 -2,-1 -4,-2 -6,-3 -2,-2 -4,-4 -5,-6 -1,-2 -2,-4 -2,-7 0,-3 1,-4 1,-6 1,-2 3,-3 4,-5l-3 -2 -3 -2c0,-1 -1,-3 -1,-4 -1,-1 -1,-3 -1,-5 0,-1 0,-3 1,-4 1,-2 2,-3 4,-4 1,-2 3,-3 5,-3 2,-1 5,-2 7,-2l1 7c-1,0 -2,0 -3,0 -2,0 -3,1 -4,2l-3 2c-1,1 -1,2 -1,3 0,2 0,3 1,4l2 2 3 1 3 0 7 0 0 7 -5 0 -3 1 -2 1 -2 3 -1 3c0,2 1,4 1,5 1,2 2,3 4,4 1,0 2,1 4,2 1,0 3,0 4,0 3,0 6,0 8,-1 2,-1 3,-3 5,-4 1,-2 2,-4 2,-6 1,-2 1,-3 1,-5 0,-2 0,-4 -1,-6 0,-1 -1,-3 -1,-5 -1,-1 -2,-3 -3,-5 -1,-1 -1,-3 -2,-5 -1,-1 -2,-3 -2,-5 0,-1 -1,-3 -1,-5 0,-2 1,-4 1,-6 1,-1 2,-3 3,-4 1,-1 2,-2 4,-2 1,-1 3,-1 4,-1 2,0 3,0 4,0 2,1 3,2 4,3l2 3c1,1 1,2 1,3l0 3 -1 2 -1 1 -1 2 -5 -4 1 -2 0 -1 0 -1 -1 -1 -1 -1 -2 -1 -1 1 -2 1 -1 2 -1 3c0,2 0,3 1,5 0,2 1,3 2,5 0,2 1,3 2,5 1,2 2,3 2,5 1,2 2,3 2,5 1,2 1,4 1,6 0,3 -1,6 -2,9 -1,3 -2,5 -4,7 -2,2 -4,4 -7,5 -3,1 -6,2 -10,2z"/>
  </g>
 </g>
</svg>
