<?xml version="1.0" encoding="UTF-8"?>
<!DOCTYPE svg PUBLIC "-//W3C//DTD SVG 1.1//EN" "http://www.w3.org/Graphics/SVG/1.1/DTD/svg11.dtd">
<!-- Creator: CorelDRAW X7 -->
<svg xmlns="http://www.w3.org/2000/svg" xml:space="preserve" width="484px" height="611px" version="1.1" style="shape-rendering:geometricPrecision; text-rendering:geometricPrecision; image-rendering:optimizeQuality; fill-rule:evenodd; clip-rule:evenodd"
viewBox="0 0 9575 12084"
 xmlns:xlink="http://www.w3.org/1999/xlink">
 <defs>
  <style type="text/css">
   <![CDATA[
    .fil3 {fill:none}
    .fil5 {fill:#70342D}
    .fil23 {fill:#7A1C09}
    .fil14 {fill:#C4491C}
    .fil22 {fill:white}
    .fil16 {fill:#7A1C09;fill-rule:nonzero}
    .fil20 {fill:#7A1C09;fill-rule:nonzero}
    .fil11 {fill:#F6DFB4;fill-rule:nonzero}
    .fil6 {fill:#FFEBBF;fill-rule:nonzero}
    .fil19 {fill:#FFF5DF;fill-rule:nonzero}
    .fil7 {fill:#FFF7EB;fill-rule:nonzero}
    .fil18 {fill:white;fill-rule:nonzero}
    .fil1 {fill:#FFF0D4;fill-rule:nonzero;fill-opacity:0.501961}
    .fil13 {fill:url(#id0)}
    .fil10 {fill:url(#id1)}
    .fil4 {fill:url(#id2)}
    .fil12 {fill:url(#id3)}
    .fil9 {fill:url(#id4)}
    .fil8 {fill:url(#id5)}
    .fil0 {fill:url(#id6)}
    .fil2 {fill:url(#id7)}
    .fil24 {fill:url(#id8)}
    .fil15 {fill:url(#id9)}
    .fil21 {fill:url(#id10)}
    .fil17 {fill:url(#id11);fill-rule:nonzero}
   ]]>
  </style>
  <linearGradient id="id0" gradientUnits="userSpaceOnUse" x1="4787.75" y1="2098.23" x2="4787.75" y2="7751.59">
   <stop offset="0" style="stop-opacity:1; stop-color:#F4D8BA"/>
   <stop offset="0.278431" style="stop-opacity:1; stop-color:#F28F1D"/>
   <stop offset="0.541176" style="stop-opacity:1; stop-color:#BF391B"/>
   <stop offset="1" style="stop-opacity:1; stop-color:#D9601F"/>
  </linearGradient>
  <linearGradient id="id1" gradientUnits="userSpaceOnUse" x1="4787.66" y1="2119.2" x2="4787.75" y2="8000.71">
   <stop offset="0" style="stop-opacity:1; stop-color:#F08B18"/>
   <stop offset="0.470588" style="stop-opacity:1; stop-color:#AB1916"/>
   <stop offset="1" style="stop-opacity:1; stop-color:#D95E1C"/>
  </linearGradient>
  <linearGradient id="id2" gradientUnits="userSpaceOnUse" x1="4805.57" y1="424.21" x2="4805.57" y2="9554.04">
   <stop offset="0" style="stop-opacity:1; stop-color:#FFD991"/>
   <stop offset="0.258824" style="stop-opacity:1; stop-color:#EC9A3E"/>
   <stop offset="0.611765" style="stop-opacity:1; stop-color:#A12224"/>
   <stop offset="1" style="stop-opacity:1; stop-color:#CF5A1B"/>
  </linearGradient>
  <linearGradient id="id3" gradientUnits="userSpaceOnUse" x1="4786.47" y1="8304.46" x2="4786.56" y2="4787.66">
   <stop offset="0" style="stop-opacity:1; stop-color:#F6DFB4"/>
   <stop offset="1" style="stop-opacity:1; stop-color:#BC3416"/>
  </linearGradient>
  <linearGradient id="id4" gradientUnits="userSpaceOnUse" x1="8924.1" y1="4009.32" x2="8928.82" y2="5373.27">
   <stop offset="0" style="stop-opacity:1; stop-color:#FCE0AB"/>
   <stop offset="1" style="stop-opacity:1; stop-color:#D15C1E"/>
  </linearGradient>
  <linearGradient id="id5" gradientUnits="userSpaceOnUse" xlink:href="#id4" x1="797.671" y1="4009.32" x2="802.388" y2="5373.27">
  </linearGradient>
  <linearGradient id="id6" gradientUnits="userSpaceOnUse" x1="7235.93" y1="8774.07" x2="4822.83" y2="9123.48">
   <stop offset="0" style="stop-opacity:1; stop-color:red"/>
   <stop offset="1" style="stop-opacity:1; stop-color:#B00205"/>
  </linearGradient>
  <linearGradient id="id7" gradientUnits="userSpaceOnUse" x1="2405.76" y1="9569.62" x2="4350.28" y2="8330.36">
   <stop offset="0" style="stop-opacity:1; stop-color:#B00205"/>
   <stop offset="1" style="stop-opacity:1; stop-color:red"/>
  </linearGradient>
  <linearGradient id="id8" gradientUnits="userSpaceOnUse" x1="3554.66" y1="5756.68" x2="3554.92" y2="2908.3">
   <stop offset="0" style="stop-opacity:1; stop-color:#E3A96A"/>
   <stop offset="1" style="stop-opacity:1; stop-color:#FCE0AB"/>
  </linearGradient>
  <linearGradient id="id9" gradientUnits="userSpaceOnUse" x1="5069.59" y1="2119.09" x2="5069.69" y2="7519.71">
   <stop offset="0" style="stop-opacity:1; stop-color:#FFF4DF"/>
   <stop offset="1" style="stop-opacity:1; stop-color:#D65B1E"/>
  </linearGradient>
  <radialGradient id="id10" gradientUnits="userSpaceOnUse" gradientTransform="matrix(-0.0190228 0.521732 -1.12134 3.88821E-005 13647 5375)" cx="4749.59" cy="7853.65" r="2402.63" fx="4749.59" fy="7853.65">
   <stop offset="0" style="stop-opacity:1; stop-color:#FEFEFE"/>
   <stop offset="0.878431" style="stop-opacity:1; stop-color:#F2D5B8"/>
   <stop offset="1" style="stop-opacity:1; stop-color:#E6AC73"/>
  </radialGradient>
  <linearGradient id="id11" gradientUnits="userSpaceOnUse" x1="4529.1" y1="1068.4" x2="4529.1" y2="389.061">
   <stop offset="0" style="stop-opacity:1; stop-color:#F4D8BA"/>
   <stop offset="0.560784" style="stop-opacity:1; stop-color:#F9EBDC"/>
   <stop offset="1" style="stop-opacity:1; stop-color:white"/>
  </linearGradient>
 </defs>
 <g id="Layer_x0020_1">
  <metadata id="CorelCorpID_0Corel-Layer"/>
  <g id="_811675712">
   <g>
    <g>
     <path class="fil0" d="M4728 9283l-456 94 -126 25 -85 18 -76 15 -37 8 -10 2 36 63 757 1315 694 1205c39,60 84,75 139,25l937 -1143c25,-47 62,-81 128,-87l1453 -242c95,-6 117,-54 67,-144l-880 -1552 -30 -52 -4 -8 -16 -28 -12 -21 -16 3 -125 25 -67 14 -43 9 -2228 456z"/>
     <path class="fil1" d="M6993 8891l36 -21 -41 -71 -36 21 41 71zm-2853 520l-36 21 41 71 36 -20 -41 -72zm82 143l-36 21 41 71 36 -20 -41 -72zm82 143l-36 21 41 71 36 -20 -41 -72zm82 143l-35 21 41 71 35 -20 -41 -72zm82 143l-35 20 41 72 35 -21 -41 -71zm83 143l-36 20 41 72 36 -21 -41 -71zm82 143l-36 20 41 72 36 -21 -41 -71zm82 143l-36 20 41 72 36 -21 -41 -71zm82 142l-36 21 41 71 36 -20 -41 -72zm82 143l-36 21 41 71 36 -20 -41 -72zm82 143l-36 21 41 71 36 -20 -41 -72zm82 143l-36 21 42 71 35 -20 -41 -72zm82 143l-35 21 41 71 35 -21 -41 -71zm82 143l-35 20 41 72 35 -21 -41 -71zm83 143l-36 20 41 72 36 -21 -41 -71zm82 143l-36 20 41 72 36 -21 -41 -71zm82 142l-36 21 41 71 36 -20 -41 -72zm50 120l32 26 52 -63 -31 -26 -53 63zm106 -126l31 26 53 -63 -32 -27 -52 64zm105 -127l32 26 53 -63 -32 -26 -53 63zm106 -126l31 26 53 -63 -31 -27 -53 64zm105 -127l32 26 53 -63 -32 -26 -53 63zm106 -126l32 26 52 -63 -31 -27 -53 64zm106 -127l31 26 53 -63 -32 -26 -52 63zm105 -126l32 26 53 -63 -32 -27 -53 64zm106 -127l31 26 53 -63 -31 -26 -53 63zm105 -126l6 5 15 26 79 -13 -7 -40 -86 13 -7 9zm175 -35l6 40 82 -13 -7 -40 -81 13zm162 -27l7 41 81 -13 -6 -41 -82 13zm163 -26l7 41 81 -13 -7 -41 -81 13zm163 -26l6 41 82 -13 -7 -41 -81 13zm163 -26l6 41 81 -13 -6 -41 -81 13zm162 -26l7 41 81 -13 -6 -41 -82 13zm163 -26l6 41 82 -13 -7 -41 -81 13zm163 -26l6 41 81 -13 -6 -41 -81 13zm134 -2l36 -20 -41 -72 -36 21 41 71zm-82 -142l35 -21 -41 -71 -36 20 42 72zm-83 -143l36 -20 -42 -72 -35 21 41 71zm-83 -142l36 -21 -41 -71 -36 20 41 72zm-82 -143l35 -21 -41 -71 -36 21 42 71zm-83 -143l36 -20 -42 -72 -35 21 41 71zm-83 -142l36 -21 -41 -71 -36 21 41 71zm-82 -143l35 -20 -41 -72 -36 21 42 71zm-83 -142l36 -21 -42 -71 -35 20 41 72zm-82 -143l35 -20 -41 -72 -36 21 42 71zm-83 -142l36 -21 -42 -71 -35 20 41 72z"/>
     <path class="fil2" d="M2254 8777c-314,553 -627,1107 -941,1661 -51,90 -29,138 67,144 484,81 968,161 1452,242 66,6 104,40 128,88 313,381 625,762 938,1143 54,49 100,35 139,-26 495,-861 991,-1722 1487,-2583 -1090,-223 -2180,-446 -3270,-669z"/>
     <path class="fil1" d="M2457 8870l-36 -21 41 -71 36 21 -41 71zm2853 520l36 21 -41 71 -36 -20 41 -72zm-82 143l36 21 -41 71 -36 -20 41 -72zm-82 143l36 21 -41 71 -36 -21 41 -71zm-82 143l35 20 -41 72 -35 -21 41 -71zm-82 143l35 20 -41 72 -35 -21 41 -71zm-82 143l35 20 -41 72 -36 -21 42 -71zm-83 143l36 20 -41 72 -36 -21 41 -71zm-82 142l36 21 -41 71 -36 -20 41 -72zm-82 143l36 21 -41 71 -36 -20 41 -72zm-82 143l36 21 -41 71 -36 -20 41 -72zm-82 143l36 21 -41 71 -36 -20 41 -72zm-82 143l36 20 -41 72 -36 -21 41 -71zm-82 143l35 20 -41 72 -35 -21 41 -71zm-82 143l35 20 -41 72 -35 -21 41 -71zm-83 143l36 20 -41 72 -36 -21 41 -71zm-82 142l36 21 -41 71 -36 -20 41 -72zm-82 143l36 21 -41 71 -36 -20 41 -72zm-50 120l-31 26 -53 -63 31 -26 53 63zm-105 -127l-32 27 -53 -63 32 -27 53 63zm-106 -126l-32 26 -52 -63 31 -26 53 63zm-106 -127l-31 27 -53 -63 32 -27 52 63zm-105 -126l-32 26 -53 -63 32 -26 53 63zm-106 -127l-32 27 -52 -63 31 -27 53 63zm-106 -126l-31 26 -53 -63 32 -26 52 63zm-105 -127l-32 27 -53 -63 32 -27 53 63zm-106 -126l-31 26 -53 -63 31 -26 53 63zm-105 -127l-6 6 -15 26 -79 -13 7 -41 86 14 7 8zm-175 -35l-6 41 -81 -13 6 -41 81 13zm-162 -26l-7 41 -81 -13 6 -41 82 13zm-163 -26l-7 41 -81 -13 7 -41 81 13zm-163 -26l-6 41 -82 -13 7 -41 81 13zm-163 -26l-6 41 -81 -13 6 -41 81 13zm-162 -26l-7 41 -81 -13 6 -41 82 13zm-163 -26l-6 41 -82 -13 7 -41 81 13zm-163 -26l-6 41 -81 -13 6 -41 81 13zm-134 -2l-36 -20 42 -72 35 21 -41 71zm83 -142l-36 -21 41 -71 36 20 -41 72zm82 -143l-35 -21 41 -71 35 21 -41 71zm83 -143l-36 -20 41 -72 36 21 -41 71zm82 -142l-35 -21 41 -71 36 21 -42 71zm83 -143l-36 -20 42 -72 35 21 -41 71zm83 -142l-36 -21 41 -71 36 20 -41 72zm82 -143l-35 -21 41 -71 36 21 -42 71zm83 -142l-36 -21 42 -71 35 20 -41 72zm83 -143l-36 -21 41 -71 36 21 -41 71zm82 -143l-35 -20 41 -71 35 20 -41 71z"/>
    </g>
    <g>
     <circle class="fil3" cx="4788" cy="4751" r="4751"/>
     <path class="fil4" d="M4788 0c2644,0 4787,2143 4787,4788 0,2644 -2143,4787 -4787,4787 -2645,0 -4788,-2143 -4788,-4787 0,-2645 2143,-4788 4788,-4788zm0 1306c1923,0 3482,1559 3482,3482 0,1923 -1559,3482 -3482,3482 -1923,0 -3482,-1559 -3482,-3482 0,-1923 1559,-3482 3482,-3482z"/>
     <path class="fil5" d="M828 5588c-26,-131 -46,-264 -59,-397 -13,-133 -19,-267 -19,-401 0,-134 6,-268 19,-401 13,-133 33,-266 59,-397 5,-21 -9,-42 -31,-46 -21,-5 -42,9 -46,31 -27,133 -47,268 -60,404 -14,136 -20,273 -20,409 0,137 6,273 20,409 13,136 33,271 60,404 4,22 25,36 46,32 22,-5 36,-26 31,-47z"/>
     <path class="fil6" d="M4788 60c1305,0 2487,529 3343,1385 855,855 1385,2037 1385,3343 0,1305 -530,2487 -1385,3343 -856,855 -2038,1385 -3343,1385 -1306,0 -2488,-530 -3343,-1385 -856,-856 -1385,-2038 -1385,-3343 0,-1306 529,-2488 1385,-3343 855,-856 2037,-1385 3343,-1385zm3314 1414c-848,-848 -2020,-1373 -3314,-1373 -1295,0 -2466,525 -3314,1373 -848,848 -1373,2019 -1373,3314 0,1294 525,2465 1373,3314 848,848 2019,1372 3314,1372 1294,0 2466,-524 3314,-1372 848,-849 1372,-2020 1372,-3314 0,-1295 -524,-2466 -1372,-3314z"/>
     <path class="fil7" d="M4788 131c1286,0 2450,521 3293,1364 842,842 1364,2007 1364,3293 0,1286 -522,2450 -1364,3293 -843,842 -2007,1364 -3293,1364 -1286,0 -2451,-522 -3293,-1364 -843,-843 -1364,-2007 -1364,-3293 0,-1286 521,-2451 1364,-3293 842,-843 2007,-1364 3293,-1364zm3264 1393c-836,-836 -1990,-1352 -3264,-1352 -1275,0 -2429,516 -3264,1352 -836,835 -1352,1989 -1352,3264 0,1274 516,2428 1352,3264 835,835 1989,1352 3264,1352 1274,0 2428,-517 3264,-1352 835,-836 1352,-1990 1352,-3264 0,-1275 -517,-2429 -1352,-3264z"/>
     <path class="fil5" d="M8803 3992c26,131 46,264 59,397 13,133 19,267 19,401 0,134 -6,268 -19,401 -13,134 -33,266 -59,397 -4,21 10,42 31,47 22,4 42,-10 47,-31 26,-134 46,-269 60,-405 13,-136 20,-272 20,-409 0,-136 -7,-273 -20,-409 -14,-136 -34,-271 -60,-404 -5,-22 -25,-36 -47,-31 -21,4 -35,25 -31,46z"/>
     <path class="fil8" d="M803 5586c-26,-132 -46,-264 -59,-397 -13,-133 -20,-267 -20,-401 0,-134 7,-268 20,-402 13,-133 33,-265 59,-396 4,-22 -10,-43 -31,-47 -22,-4 -42,10 -47,31 -26,134 -46,269 -60,405 -13,136 -20,272 -20,409 0,136 7,273 20,409 14,135 34,270 60,404 5,21 25,35 47,31 21,-4 35,-25 31,-46z"/>
     <path class="fil9" d="M8772 3990c27,131 46,263 59,396 14,134 20,268 20,402 0,134 -6,268 -20,401 -13,133 -32,265 -59,397 -4,21 10,42 31,46 22,4 43,-10 47,-31 27,-134 47,-269 60,-404 13,-136 20,-273 20,-409 0,-137 -7,-273 -20,-409 -13,-136 -33,-271 -60,-405 -4,-21 -25,-35 -47,-31 -21,4 -35,25 -31,47z"/>
     <circle class="fil10" cx="4788" cy="4788" r="3485"/>
     <path class="fil11" d="M7664 3663c-15,-38 -74,-29 -74,14 0,5 1,9 3,14 9,23 18,47 26,70 17,45 84,25 73,-22l-1 -4c-9,-24 -18,-48 -27,-72zm-5672 4c6,-17 1,-34 -14,-45 -21,-14 -47,-6 -57,17 -10,24 -19,48 -28,72 -15,39 37,72 66,36 2,-3 4,-6 6,-10 8,-23 17,-46 27,-70zm-119 357c12,-40 -45,-68 -69,-29 -2,4 -3,6 -4,10 -7,25 -13,50 -19,75 -10,46 58,67 74,19 6,-25 12,-50 18,-75zm-72 369c6,-46 -62,-62 -75,-14l-1 4c-3,26 -6,51 -9,77 -1,14 5,27 16,35 23,17 57,1 60,-27 3,-25 6,-50 9,-75zm-26 375c0,-40 -55,-54 -73,-16 -2,6 -3,10 -3,15 0,26 0,52 0,78 2,48 72,50 76,1 1,-26 0,-52 0,-78zm21 375c-6,-47 -76,-44 -76,6 2,26 7,54 11,80 1,8 5,17 12,22 27,24 68,2 63,-33 -4,-25 -7,-50 -10,-75zm68 370c-13,-48 -83,-32 -74,17 6,25 13,51 20,76 11,43 77,34 74,-13 0,-3 0,-5 -1,-8 -7,-24 -13,-48 -19,-72zm113 358c-14,-37 -71,-29 -73,13 0,5 0,10 2,15 10,24 19,48 29,71 8,18 27,28 45,22 22,-6 34,-30 25,-51 -9,-23 -19,-47 -28,-70zm157 342c-22,-41 -84,-14 -70,30 1,2 2,4 3,6 12,23 25,45 37,68 20,35 77,18 71,-26 -1,-5 -2,-8 -5,-12 -12,-19 -25,-46 -36,-66zm198 319c-23,-33 -78,-10 -68,32 1,5 3,8 6,13 15,21 30,41 45,62 28,36 84,2 65,-39 -1,-2 -2,-5 -4,-7 -15,-20 -30,-40 -44,-61zm236 293c-30,-32 -82,3 -62,44 2,3 4,5 6,8 17,18 35,37 53,56 32,32 84,-8 58,-49 -1,-1 -2,-3 -4,-4 -17,-18 -34,-37 -51,-55zm271 260c-25,-22 -66,-1 -63,32 1,11 6,20 14,27 19,16 39,33 59,49 18,14 44,10 56,-10 11,-16 7,-38 -8,-50 -20,-16 -39,-31 -58,-48zm301 225c-16,-11 -37,-8 -49,7 -15,17 -11,45 8,57 21,14 43,27 65,41 35,22 77,-22 49,-58 -3,-3 -6,-5 -9,-7 -22,-13 -43,-26 -64,-40zm327 185c-40,-19 -75,35 -40,64 2,2 5,3 7,5 23,11 47,22 70,32 43,19 75,-39 37,-66 -1,-1 -3,-2 -6,-3 -22,-10 -45,-21 -68,-32zm348 144c-44,-15 -71,46 -31,69 2,1 4,2 6,3 25,8 49,16 74,24 42,13 70,-47 29,-70 -2,-1 -4,-2 -7,-3 -24,-8 -47,-15 -71,-23zm362 99c-39,-9 -65,45 -27,70 4,2 7,3 12,5 25,5 50,10 76,14 44,8 64,-55 20,-73 -2,-1 -5,-1 -7,-2 -24,-4 -49,-9 -74,-14zm372 53c-43,-4 -58,60 -14,75 3,0 6,1 8,1 26,2 52,4 78,5 42,2 56,-57 15,-74 -4,-1 -8,-2 -12,-2 -25,-1 -50,-3 -75,-5zm376 6c-42,2 -50,63 -8,75 4,1 7,1 12,1 26,-1 51,-2 77,-4 46,-4 48,-72 -1,-76 -1,0 -3,0 -5,0 -25,2 -50,3 -75,4zm374 -41c-44,8 -41,74 6,76 2,0 5,0 7,-1 25,-4 51,-9 76,-14 48,-11 35,-81 -14,-75 -25,5 -50,10 -75,14zm366 -87c-46,15 -30,83 18,74 26,-6 53,-16 77,-24 39,-13 33,-72 -11,-74 -5,0 -8,0 -13,2 -24,7 -48,15 -71,22zm352 -131c-39,16 -25,77 20,72 4,0 7,-1 11,-3 23,-10 47,-21 70,-32 8,-4 15,-11 19,-20 13,-33 -21,-64 -52,-49 -23,11 -45,21 -68,32zm333 -175c-39,25 -11,83 32,69 3,-1 5,-2 7,-4 22,-13 44,-26 66,-40 34,-22 15,-76 -27,-70 -5,1 -10,3 -15,6 -21,13 -42,26 -63,39zm308 -214c-32,26 -5,80 38,66 4,-2 6,-4 10,-6 20,-16 40,-32 60,-49 11,-10 16,-25 12,-39 -8,-27 -40,-37 -61,-19 -20,16 -39,32 -59,47zm280 -251c-30,30 7,82 47,59 3,-2 5,-3 7,-6 18,-18 36,-37 54,-55 31,-35 -14,-84 -51,-57 -2,2 -3,3 -5,5 -17,18 -34,36 -52,54zm246 -284c-25,32 13,78 51,55 4,-3 7,-6 10,-9 15,-21 31,-41 46,-62 26,-39 -24,-81 -58,-50 -2,2 -3,4 -4,5 -15,21 -30,41 -45,61zm208 -313c-23,42 36,80 65,41 13,-22 26,-47 39,-70 21,-39 -32,-78 -63,-43 -1,2 -3,4 -4,6 -12,22 -24,44 -37,66zm168 -336c-17,39 36,73 65,38 2,-3 4,-5 5,-9 10,-23 20,-47 30,-71 16,-42 -41,-72 -67,-36 -2,3 -3,5 -4,8 -10,22 -19,47 -29,70zm125 -355c-4,17 2,34 17,43 21,13 50,2 57,-22 7,-25 13,-50 20,-75 10,-37 -39,-65 -67,-33 -3,5 -5,9 -7,15 -6,24 -13,48 -20,72zm80 -367c-5,41 47,60 70,26 3,-4 5,-9 5,-15 4,-25 8,-51 11,-76 6,-43 -54,-61 -73,-20 -1,4 -2,7 -2,10 -4,25 -7,50 -11,75zm34 -374c-2,40 54,54 72,17 3,-6 4,-10 4,-16 0,-25 1,-51 1,-77 0,-39 -53,-53 -72,-16 -3,5 -4,10 -4,16 0,25 -1,50 -1,76zm-14 -376c4,42 68,47 76,2 0,-3 0,-6 0,-10 -2,-25 -5,-51 -8,-76 -6,-46 -74,-44 -76,4 0,2 0,3 0,5 3,25 6,50 8,75zm-60 -371c10,45 79,36 75,-13l-1 -4c-5,-25 -11,-50 -18,-75 -12,-47 -83,-32 -74,17 6,25 13,50 18,75z"/>
     <path class="fil12" d="M4788 1291c965,0 1839,392 2472,1024 633,633 1024,1507 1024,2473 0,965 -391,1839 -1024,2472 -633,633 -1507,1024 -2472,1024 -966,0 -1840,-391 -2473,-1024 -632,-633 -1024,-1507 -1024,-2472 0,-966 392,-1840 1024,-2473 633,-632 1507,-1024 2473,-1024zm0 42c1908,0 3455,1546 3455,3455 0,1908 -1547,3455 -3455,3455 -1908,0 -3455,-1547 -3455,-3455 0,-1909 1547,-3455 3455,-3455z"/>
     <circle class="fil13" cx="4788" cy="4788" r="2689"/>
     <path class="fil14" d="M4788 1291c1929,0 3494,1561 3494,3486 0,14 -1,29 -1,43 -23,-1905 -1578,-3442 -3493,-3442 -1916,0 -3471,1537 -3494,3442 0,-14 0,-29 0,-43 0,-1925 1564,-3486 3494,-3486z"/>
    </g>
   </g>
   <path class="fil15" d="M4788 2101c741,0 1413,301 1899,787 486,486 787,1158 787,1900 0,741 -301,1413 -787,1899 -486,486 -1158,787 -1899,787 -742,0 -1414,-301 -1900,-787 -486,-486 -787,-1158 -787,-1899 0,-742 301,-1414 787,-1900 486,-486 1158,-787 1900,-787zm0 41c1461,0 2645,1185 2645,2646 0,1461 -1184,2645 -2645,2645 -1461,0 -2646,-1184 -2646,-2645 0,-1461 1185,-2646 2646,-2646z"/>
  </g>
  <g id="_811681160">
   <path class="fil16" d="M2813 1121c17,31 29,60 36,89 7,29 10,55 9,77 18,7 35,16 51,29 15,12 29,28 40,47 15,26 23,52 25,79 1,27 -4,53 -15,78 -11,26 -29,51 -52,75 -23,23 -52,45 -87,65 -34,20 -68,34 -101,44 -32,9 -59,12 -80,10 -14,-1 -26,-4 -34,-9 -9,-5 -16,-12 -21,-21 -7,-12 -10,-25 -8,-39 2,-15 7,-27 15,-37 23,3 49,3 79,0 30,-3 62,-14 97,-35 41,-23 67,-50 79,-80 12,-30 10,-57 -4,-81 -2,-4 -5,-8 -7,-12 -3,-3 -6,-6 -9,-8 -4,22 -16,44 -33,66 -18,22 -42,42 -71,59 -22,13 -43,22 -64,28 -21,5 -41,7 -60,6 -18,-2 -35,-8 -50,-17 -16,-9 -28,-23 -39,-41 -19,-34 -22,-68 -9,-102 14,-35 43,-65 86,-90 29,-16 56,-27 83,-32 27,-5 51,-6 72,-4 -3,-12 -8,-25 -14,-40 -5,-14 -12,-28 -19,-42l-324 187c-12,7 -22,8 -31,4 -9,-5 -17,-14 -25,-27 -3,-5 -6,-12 -9,-21 -3,-9 -5,-16 -5,-22l485 -281c11,-6 20,-7 29,-2 9,5 17,13 24,26 4,6 7,14 10,22 3,9 5,16 6,21l-55 31zm-131 312c16,-9 29,-20 40,-34 12,-13 20,-29 24,-46 -17,-4 -35,-4 -53,-1 -19,3 -35,9 -48,17 -16,9 -25,18 -29,29 -4,11 -3,21 2,29 5,10 14,16 25,17 11,2 24,-2 39,-11zm323 -422l134 232c-4,4 -11,9 -19,16 -8,7 -16,13 -26,18 -19,12 -36,17 -51,17 -14,-1 -27,-12 -40,-33l-108 -187 -42 25c-12,7 -23,8 -31,4 -9,-4 -17,-13 -25,-26 -3,-5 -6,-13 -9,-22 -3,-9 -5,-16 -6,-22l219 -127c11,-6 22,-8 30,-3 9,4 17,13 25,26 3,6 7,13 10,22 3,9 5,16 6,21l-67 39zm622 -222l142 425c-5,3 -12,7 -22,12 -9,5 -19,9 -29,13 -21,7 -39,9 -53,5 -15,-3 -26,-17 -33,-40l-46 -138 -159 53c16,93 -4,150 -62,169 -21,7 -42,7 -61,-2 -20,-8 -34,-21 -43,-39 16,-22 25,-50 28,-84 3,-34 -3,-73 -18,-117 -6,-17 -14,-37 -24,-60 -11,-22 -22,-42 -34,-58l-65 22c-13,4 -24,3 -31,-3 -8,-6 -14,-16 -19,-31 -2,-6 -4,-13 -5,-22 -2,-9 -2,-17 -1,-23l559 -187c12,-4 23,-3 30,3 8,6 14,16 19,30 2,7 4,15 6,24 1,9 1,16 1,22l-80 26zm-73 183l-48 -142 -169 56c7,11 14,23 20,35 6,13 12,25 18,37 6,12 11,24 15,35 5,11 9,21 12,29l152 -50zm-83 271c-6,-17 -5,-33 3,-49 7,-15 20,-26 39,-32 18,-6 35,-5 50,3 15,7 25,20 31,37 5,17 5,33 -3,49 -7,15 -20,26 -38,32 -18,6 -35,6 -50,-2 -16,-8 -26,-21 -32,-38zm389 -531l85 254c-6,3 -13,7 -22,12 -9,5 -19,9 -29,13 -21,7 -39,9 -53,5 -14,-3 -25,-16 -33,-40l-69 -204 -46 15c-13,5 -24,4 -31,-2 -8,-5 -14,-15 -19,-30 -2,-6 -4,-14 -5,-23 -1,-10 -2,-17 -1,-23l240 -81c12,-4 23,-3 30,3 8,6 14,16 19,31 2,6 4,14 6,23 1,9 2,17 1,22l-73 25zm736 170l-152 12c-8,94 -41,144 -102,148 -23,2 -42,-3 -59,-16 -17,-13 -27,-29 -32,-48 21,-18 36,-43 48,-75 11,-32 15,-72 11,-118 -1,-18 -4,-39 -9,-64 -4,-24 -11,-46 -19,-65l-68 5c-14,1 -23,-2 -29,-10 -7,-7 -10,-19 -11,-35 -1,-6 -1,-13 0,-22 1,-10 3,-17 5,-23l573 -43c14,-1 24,2 30,10 5,8 9,19 10,34 1,7 0,15 0,25 -1,9 -2,16 -4,21l-85 6 34 447c-5,1 -13,3 -23,6 -11,3 -21,4 -32,5 -23,2 -40,-1 -53,-8 -13,-7 -20,-22 -22,-46l-11 -146zm-8 -99l-11 -149 -164 12c4,13 8,26 11,39 3,13 6,27 8,40 3,13 5,25 7,37 2,12 3,23 4,32l145 -11zm651 325c-22,-1 -38,-6 -50,-15 -12,-9 -17,-25 -15,-50l12 -152 -154 -12c-10,49 -26,85 -46,108 -21,23 -46,33 -75,31 -26,-2 -46,-11 -59,-26 -13,-15 -20,-32 -21,-52 23,-14 42,-36 58,-67 16,-30 26,-69 30,-115 1,-20 1,-41 1,-66 -1,-25 -3,-46 -9,-65l-68 -5c-14,-1 -24,-6 -28,-14 -5,-9 -7,-21 -6,-37 1,-6 2,-13 4,-22 2,-9 5,-16 8,-21l189 14c5,11 11,24 16,40 6,17 11,35 14,55 4,21 7,44 8,68 2,24 2,49 0,75l145 11 14 -179c1,-19 7,-33 16,-41 9,-8 23,-11 42,-10l129 10c13,1 22,6 27,14 4,9 6,21 5,36 0,7 -2,15 -4,24 -3,9 -5,16 -7,20l-84 -6 -34 447c-7,0 -15,1 -26,2 -10,1 -21,1 -32,0zm677 -328l-68 293c-11,48 -35,82 -72,103 -37,21 -88,25 -153,10 -33,-8 -63,-20 -90,-36 -26,-16 -49,-36 -66,-59 -17,-23 -29,-48 -36,-77 -7,-28 -6,-59 1,-92 12,-50 35,-85 71,-105 36,-19 81,-23 134,-10l136 31 20 -87 -325 -75c-14,-3 -22,-9 -26,-18 -3,-9 -3,-22 0,-37 1,-6 4,-13 7,-22 4,-8 8,-15 12,-19l529 122c24,5 33,24 26,54 -2,7 -5,15 -8,24 -4,8 -7,14 -11,18l-81 -18zm-272 303c24,6 42,5 55,-3 14,-8 22,-21 26,-38l25 -107 -111 -26c-23,-5 -41,-3 -54,7 -13,10 -22,24 -26,41 -4,16 -4,32 -1,46 3,14 9,26 18,37 8,11 18,20 30,28 12,7 25,12 38,15zm518 175c-60,-24 -105,-56 -134,-98 -30,-41 -44,-86 -42,-134 21,-15 41,-34 60,-56 19,-22 34,-47 45,-76 4,-9 7,-18 10,-28 3,-10 5,-20 6,-30l-59 -23c-13,-5 -20,-13 -23,-22 -2,-10 0,-22 6,-36 2,-6 6,-13 10,-21 5,-8 10,-14 15,-17l555 218c12,5 19,12 21,21 2,10 0,22 -6,36 -2,6 -6,14 -11,22 -5,7 -9,13 -12,17l-79 -31 -163 417c-6,-1 -14,-2 -24,-5 -11,-2 -21,-5 -31,-9 -21,-8 -36,-18 -45,-30 -8,-12 -8,-29 1,-51l16 -41c-16,1 -34,0 -55,-5 -21,-4 -41,-10 -61,-18zm53 -94c20,8 39,13 57,14 19,2 34,1 47,-1l26 -66 -187 -74c-6,7 -12,13 -18,19 -6,5 -13,10 -20,15 3,14 12,29 27,48 15,18 37,33 68,45zm-11 -204l173 68 29 -74 -178 -70c-2,9 -4,19 -7,29 -3,10 -6,19 -9,28l-8 19zm898 358c-20,33 -45,64 -72,92 -28,28 -58,51 -90,69 1,30 -2,59 -9,87 -7,29 -16,53 -28,74 -15,26 -31,41 -48,45 -17,4 -36,0 -55,-11 -10,-5 -19,-12 -27,-19 -9,-8 -15,-15 -19,-23 5,-6 9,-13 14,-20 4,-7 9,-15 13,-23 6,-9 11,-19 17,-29 6,-11 11,-23 15,-35 -23,6 -50,7 -79,2 -29,-5 -58,-15 -87,-32 -26,-15 -47,-32 -65,-50 -17,-19 -29,-39 -37,-60 -8,-21 -11,-42 -9,-64 2,-21 8,-43 20,-64 13,-21 28,-38 46,-50 18,-13 38,-20 59,-24 22,-4 45,-3 69,3 24,6 49,16 73,30 29,16 53,37 72,61 19,24 32,50 40,77 14,-14 27,-30 39,-48 13,-18 24,-36 35,-53l-340 -196c-12,-7 -18,-16 -19,-25 0,-10 3,-22 11,-35 3,-6 8,-12 13,-19 6,-7 12,-12 17,-15l515 297c12,6 18,15 18,24 1,10 -3,22 -10,35 -4,6 -8,12 -14,19 -5,7 -11,12 -16,16l-62 -36zm-390 93c19,11 39,17 61,16 21,0 40,-4 57,-13 -1,-20 -7,-40 -19,-59 -12,-19 -27,-33 -45,-44 -21,-12 -40,-17 -57,-14 -18,2 -30,10 -39,24 -8,15 -9,30 -2,46 7,17 22,31 44,44z"/>
   <path class="fil17" d="M2813 1096c17,30 29,59 36,88 7,29 10,55 9,78 18,6 35,16 51,28 15,12 29,28 40,48 15,25 23,51 25,78 1,27 -4,53 -15,79 -11,26 -29,50 -52,74 -23,23 -52,45 -87,66 -34,19 -68,34 -101,43 -32,9 -59,13 -80,11 -14,-2 -26,-5 -34,-10 -9,-4 -16,-12 -21,-21 -7,-12 -10,-25 -8,-39 2,-14 7,-26 15,-37 23,4 49,4 79,1 30,-3 62,-15 97,-35 41,-24 67,-51 79,-80 12,-30 10,-57 -4,-82 -2,-4 -5,-8 -7,-11 -3,-4 -6,-7 -9,-9 -4,22 -16,44 -33,66 -18,23 -42,42 -71,59 -22,13 -43,22 -64,28 -21,6 -41,8 -60,6 -18,-2 -35,-7 -50,-17 -16,-9 -28,-23 -39,-40 -19,-34 -22,-69 -9,-103 14,-34 43,-64 86,-90 29,-16 56,-27 83,-32 27,-5 51,-6 72,-3 -3,-13 -8,-26 -14,-40 -5,-15 -12,-29 -19,-43l-324 187c-12,7 -22,8 -31,4 -9,-4 -17,-13 -25,-27 -3,-5 -6,-12 -9,-21 -3,-8 -5,-16 -5,-22l485 -280c11,-7 20,-8 29,-3 9,5 17,14 24,26 4,6 7,14 10,23 3,8 5,15 6,20l-55 32zm-131 312c16,-10 29,-21 40,-34 12,-14 20,-29 24,-47 -17,-4 -35,-4 -53,0 -19,3 -35,8 -48,16 -16,9 -25,19 -29,29 -4,11 -3,21 2,30 5,10 14,15 25,17 11,1 24,-3 39,-11zm323 -423l134 232c-4,4 -11,10 -19,16 -8,7 -16,13 -26,19 -19,11 -36,16 -51,16 -14,0 -27,-11 -40,-33l-108 -186 -42 24c-12,7 -23,8 -31,4 -9,-4 -17,-12 -25,-25 -3,-6 -6,-13 -9,-22 -3,-9 -5,-17 -6,-23l219 -126c11,-7 22,-8 30,-4 9,4 17,13 25,26 3,6 7,13 10,22 3,9 5,16 6,21l-67 39zm622 -221l142 424c-5,3 -12,7 -22,12 -9,5 -19,10 -29,13 -21,7 -39,9 -53,5 -15,-3 -26,-16 -33,-39l-46 -139 -159 53c16,94 -4,150 -62,169 -21,7 -42,7 -61,-2 -20,-8 -34,-21 -43,-38 16,-22 25,-50 28,-84 3,-34 -3,-74 -18,-118 -6,-17 -14,-37 -24,-59 -11,-23 -22,-42 -34,-59l-65 22c-13,4 -24,4 -31,-3 -8,-6 -14,-16 -19,-31 -2,-6 -4,-13 -5,-22 -2,-9 -2,-17 -1,-23l559 -187c12,-4 23,-3 30,3 8,6 14,16 19,31 2,6 4,14 6,23 1,10 1,17 1,22l-80 27zm-73 182l-48 -142 -169 57c7,11 14,22 20,35 6,12 12,24 18,36 6,12 11,24 15,35 5,11 9,21 12,30l152 -51zm-83 271c-6,-17 -5,-33 3,-48 7,-16 20,-26 39,-33 18,-6 35,-5 50,3 15,8 25,20 31,37 5,17 5,34 -3,49 -7,16 -20,27 -38,33 -18,6 -35,5 -50,-3 -16,-8 -26,-20 -32,-38zm389 -531l85 254c-6,3 -13,7 -22,12 -9,5 -19,10 -29,13 -21,7 -39,9 -53,6 -14,-3 -25,-17 -33,-40l-69 -205 -46 16c-13,4 -24,3 -31,-2 -8,-6 -14,-16 -19,-30 -2,-7 -4,-15 -5,-24 -1,-9 -2,-17 -1,-23l240 -80c12,-5 23,-4 30,2 8,6 14,17 19,31 2,6 4,14 6,23 1,10 2,17 1,22l-73 25zm736 171l-152 11c-8,95 -41,144 -102,149 -23,1 -42,-4 -59,-17 -17,-13 -27,-29 -32,-48 21,-17 36,-42 48,-75 11,-32 15,-71 11,-118 -1,-18 -4,-39 -9,-64 -4,-24 -11,-46 -19,-65l-68 6c-14,1 -23,-3 -29,-10 -7,-8 -10,-20 -11,-35 -1,-6 -1,-14 0,-23 1,-9 3,-17 5,-22l573 -44c14,-1 24,2 30,10 5,8 9,19 10,34 1,8 0,16 0,25 -1,9 -2,16 -4,21l-85 6 34 447c-5,2 -13,4 -23,6 -11,3 -21,5 -32,5 -23,2 -40,-1 -53,-7 -13,-7 -20,-23 -22,-47l-11 -145zm-8 -100l-11 -149 -164 13c4,12 8,25 11,38 3,14 6,27 8,40 3,13 5,26 7,38 2,12 3,22 4,31l145 -11zm651 326c-22,-2 -38,-7 -50,-16 -12,-9 -17,-25 -15,-49l12 -153 -154 -12c-10,49 -26,85 -46,108 -21,23 -46,34 -75,31 -26,-2 -46,-10 -59,-26 -13,-15 -20,-32 -21,-52 23,-14 42,-36 58,-66 16,-31 26,-70 30,-116 1,-19 1,-41 1,-66 -1,-24 -3,-46 -9,-65l-68 -5c-14,-1 -24,-6 -28,-14 -5,-9 -7,-21 -6,-36 1,-6 2,-14 4,-23 2,-9 5,-16 8,-21l189 14c5,11 11,24 16,41 6,16 11,34 14,55 4,20 7,43 8,67 2,25 2,50 0,76l145 11 14 -180c1,-19 7,-32 16,-40 9,-8 23,-12 42,-10l129 9c13,1 22,6 27,15 4,8 6,20 5,35 0,7 -2,16 -4,24 -3,9 -5,16 -7,21l-84 -7 -34 447c-7,1 -15,1 -26,2 -10,1 -21,2 -32,1zm677 -329l-68 293c-11,48 -35,82 -72,103 -37,22 -88,25 -153,10 -33,-8 -63,-20 -90,-36 -26,-16 -49,-35 -66,-58 -17,-23 -29,-49 -36,-78 -7,-28 -6,-59 1,-92 12,-50 35,-85 71,-104 36,-20 81,-24 134,-11l136 31 20 -87 -325 -75c-14,-3 -22,-9 -26,-18 -3,-9 -3,-21 0,-37 1,-6 4,-13 7,-21 4,-9 8,-15 12,-20l529 122c24,6 33,24 26,54 -2,8 -5,15 -8,24 -4,8 -7,15 -11,19l-81 -19zm-272 304c24,5 42,4 55,-4 14,-8 22,-20 26,-38l25 -107 -111 -26c-23,-5 -41,-3 -54,8 -13,9 -22,23 -26,40 -4,17 -4,32 -1,46 3,14 9,27 18,37 8,11 18,20 30,28 12,7 25,13 38,16zm518 174c-60,-23 -105,-56 -134,-97 -30,-42 -44,-87 -42,-135 21,-15 41,-33 60,-55 19,-23 34,-48 45,-77 4,-9 7,-18 10,-28 3,-10 5,-20 6,-30l-59 -23c-13,-5 -20,-12 -23,-22 -2,-9 0,-22 6,-36 2,-6 6,-13 10,-20 5,-8 10,-14 15,-18l555 218c12,5 19,12 21,22 2,9 0,21 -6,35 -2,7 -6,14 -11,22 -5,8 -9,14 -12,17l-79 -30 -163 416c-6,-1 -14,-2 -24,-4 -11,-3 -21,-6 -31,-10 -21,-8 -36,-18 -45,-30 -8,-11 -8,-29 1,-51l16 -41c-16,1 -34,0 -55,-5 -21,-4 -41,-10 -61,-18zm53 -94c20,8 39,13 57,15 19,1 34,1 47,-2l26 -66 -187 -73c-6,6 -12,13 -18,18 -6,5 -13,10 -20,15 3,14 12,30 27,48 15,18 37,33 68,45zm-11 -204l173 68 29 -74 -178 -70c-2,10 -4,19 -7,29 -3,10 -6,20 -9,28l-8 19zm898 358c-20,34 -45,65 -72,92 -28,28 -58,51 -90,69 1,30 -2,59 -9,88 -7,28 -16,52 -28,73 -15,27 -31,42 -48,46 -17,4 -36,0 -55,-12 -10,-5 -19,-12 -27,-19 -9,-7 -15,-15 -19,-23 5,-6 9,-13 14,-20 4,-7 9,-15 13,-22 6,-9 11,-19 17,-30 6,-11 11,-23 15,-35 -23,6 -50,7 -79,2 -29,-4 -58,-15 -87,-32 -26,-15 -47,-31 -65,-50 -17,-19 -29,-38 -37,-59 -8,-21 -11,-43 -9,-64 2,-22 8,-43 20,-64 13,-22 28,-39 46,-51 18,-12 38,-20 59,-24 22,-3 45,-2 69,3 24,6 49,16 73,30 29,17 53,37 72,61 19,24 32,50 40,77 14,-14 27,-30 39,-48 13,-18 24,-35 35,-53l-340 -196c-12,-7 -18,-15 -19,-25 0,-10 3,-22 11,-35 3,-5 8,-11 13,-19 6,-7 12,-12 17,-15l515 297c12,7 18,15 18,25 1,9 -3,21 -10,34 -4,6 -8,13 -14,19 -5,7 -11,12 -16,16l-62 -36zm-390 93c19,11 39,17 61,17 21,-1 40,-5 57,-13 -1,-21 -7,-41 -19,-60 -12,-18 -27,-33 -45,-43 -21,-12 -40,-17 -57,-15 -18,2 -30,10 -39,24 -8,15 -9,31 -2,47 7,16 22,31 44,43z"/>
   <path class="fil18" d="M2813 1096l2 3c-6,-4 -12,-12 -18,-22 -3,-5 -6,-13 -9,-22 -3,-9 -5,-16 -6,-22l6 -3c3,9 6,16 9,22 8,13 16,21 25,25 8,4 19,3 31,-4l8 -5 0 0 -48 28zm11 20c11,23 20,46 25,68 7,29 10,55 9,78 18,6 35,16 51,28 15,12 29,28 40,48 15,25 23,51 25,78 0,8 0,15 -1,22 -1,-25 -10,-50 -24,-75 -11,-19 -25,-35 -40,-47 -16,-13 -33,-22 -51,-29 1,-22 -2,-48 -9,-77 -7,-29 -19,-58 -36,-89l11 -5zm-247 525c-1,-7 -2,-15 -1,-22 2,-14 7,-26 15,-37 23,4 49,4 79,1 30,-3 62,-15 97,-35 41,-24 67,-51 79,-80 3,-9 6,-18 7,-26 2,16 0,33 -7,51 -12,30 -38,57 -79,80 -35,21 -67,32 -97,35 -30,3 -56,3 -79,0 -7,9 -12,20 -14,33zm-84 -221c-3,-18 0,-37 7,-55 14,-34 43,-64 86,-90 29,-16 56,-27 83,-32 23,-4 45,-6 64,-4 3,9 6,18 8,26 -21,-2 -45,-1 -72,4 -27,5 -54,16 -83,32 -43,25 -72,55 -86,90 -4,9 -6,19 -7,29zm-174 -119l0 -1c-3,-8 -5,-16 -5,-22l485 -280c11,-7 20,-8 29,-3 3,2 6,4 9,6l164 -95c11,-6 22,-8 30,-3 9,4 17,13 25,26 3,5 6,12 10,21l6 -4c-1,-5 -3,-12 -6,-21 -3,-9 -7,-16 -10,-22 -8,-13 -16,-22 -25,-26 -8,-4 -19,-3 -30,4l-219 126c1,6 3,14 6,23l-469 271zm363 107c16,-10 29,-21 40,-34 6,-7 11,-15 15,-23 3,1 6,1 9,2 -4,17 -12,33 -24,46 -11,14 -24,25 -40,34 -15,9 -28,13 -39,11 -11,-1 -20,-7 -25,-17 -5,-8 -6,-18 -2,-29 0,1 1,3 2,4 5,10 14,15 25,17 11,1 24,-3 39,-11zm334 -404l123 213 -10 9 -124 -215 11 -7zm619 -217l134 401 -7 5 -135 -404 8 -2zm-204 331c2,16 2,30 1,44 0,-14 -2,-28 -5,-43l4 -1zm-162 116c-3,-4 -6,-8 -8,-12 16,-22 25,-50 28,-84l0 -5c1,11 1,21 0,30 -3,28 -9,52 -20,71zm-176 -363l0 -3c-2,-9 -2,-17 -1,-23l559 -187c12,-4 23,-3 30,3 4,3 7,6 9,10l187 -63c12,-4 23,-3 30,3 8,6 14,16 19,31 2,5 4,12 5,20l2 -1c1,-5 0,-12 -1,-22 -2,-9 -4,-17 -6,-23 -5,-14 -11,-25 -19,-31 -7,-6 -18,-7 -30,-2l-240 80c-1,6 0,14 1,23l0 2 -545 183zm612 -133l-53 17c-3,-5 -6,-12 -9,-20 -2,-6 -4,-14 -5,-23 -1,-10 -2,-17 -1,-23l1 -1c2,9 3,16 5,22 5,14 11,24 19,30 7,5 18,6 31,2l12 -4 0 0zm-355 144c2,5 5,9 7,14 6,12 12,24 18,36 6,12 11,24 15,35 5,11 9,21 12,30l144 -49 8 24 -152 50c-3,-8 -7,-18 -12,-29 -4,-11 -9,-23 -15,-35 -6,-12 -12,-24 -18,-37 -6,-12 -13,-24 -20,-35l13 -4zm118 327c-2,-14 -1,-28 6,-40 7,-16 20,-26 39,-33 18,-6 35,-5 50,3 15,8 25,20 31,37 4,12 5,24 2,35 0,-3 -1,-6 -2,-9 -6,-17 -16,-30 -31,-37 -15,-8 -32,-9 -50,-3 -19,6 -32,17 -39,32 -3,5 -4,10 -6,15zm399 -500l78 231 -7 4 -78 -232 7 -3zm391 262c-3,-6 -5,-12 -7,-19 21,-17 36,-42 48,-75 7,-21 11,-45 12,-73 1,38 -3,71 -12,99 -10,29 -24,51 -41,68zm-84 -376l0 -4c-1,-6 -1,-14 0,-23 1,-9 3,-17 5,-22l573 -44c14,-1 24,2 30,10 5,8 9,19 10,34 0,7 0,15 0,23 -2,-14 -5,-24 -10,-31 -6,-8 -16,-11 -30,-10l-573 43c-2,6 -4,13 -5,23l0 1zm531 29l32 421 -2 0 -32 -421 2 0zm-285 22l4 13c3,14 6,27 8,40 3,13 5,26 7,38 2,12 3,22 4,31l143 -11 2 26 -145 11c-1,-9 -2,-20 -4,-32 -2,-12 -4,-24 -7,-37 -2,-13 -5,-27 -8,-40 -3,-13 -7,-26 -11,-39l7 0zm754 393c0,-6 -1,-13 0,-21l10 -127 2 0 -12 148zm-339 -102c-2,-7 -4,-15 -4,-23 23,-14 42,-36 58,-66 16,-31 26,-70 30,-116 0,-11 1,-22 1,-34 0,22 0,42 -1,60 -4,46 -14,85 -30,115 -15,29 -33,50 -54,64zm-25 -370c-1,-7 -1,-14 -1,-21 1,-6 2,-14 4,-23 2,-9 5,-16 8,-21l189 14c5,11 11,24 16,41 6,16 11,34 14,55 4,20 7,43 8,67 1,15 2,30 1,45 0,-6 0,-13 -1,-19 -1,-24 -4,-47 -8,-68 -3,-20 -8,-38 -14,-55 -5,-16 -11,-29 -16,-40l-189 -14c-3,5 -6,12 -8,21 -2,7 -3,12 -3,18zm239 188l144 11 14 -180c1,-19 7,-32 16,-40 9,-8 23,-12 42,-10l129 9c13,1 22,6 27,15 4,8 6,20 5,35l0 6c-1,-6 -3,-11 -5,-16 -5,-8 -14,-13 -27,-14l-129 -10c-19,-1 -33,2 -42,10 -9,8 -15,22 -16,41l-14 179 -145 -11c0,-8 1,-17 1,-25zm378 205c-2,-21 0,-42 5,-64 12,-50 35,-85 71,-104 36,-20 81,-24 134,-11l136 31 14 -62 6 1 -20 87 -136 -31c-53,-13 -98,-9 -134,10 -36,20 -59,55 -71,105 -3,13 -5,25 -5,38zm14 -332c-2,-9 -2,-20 1,-33 1,-6 4,-13 7,-21 4,-9 8,-15 12,-20l529 122c23,5 32,22 27,50 -4,-13 -13,-21 -27,-24l-529 -122c-4,4 -8,11 -12,19 -3,9 -6,16 -7,22 0,2 -1,5 -1,7zm203 430c24,5 42,4 55,-4 14,-8 22,-20 26,-38l19 -82 6 1 -25 107c-4,17 -12,30 -26,38 -13,8 -31,9 -55,3 -13,-3 -26,-8 -38,-15 -12,-8 -22,-17 -30,-28 -9,-11 -15,-23 -18,-37 -2,-11 -3,-22 -1,-34 0,3 1,5 1,8 3,14 9,27 18,37 8,11 18,20 30,28 12,7 25,13 38,16zm342 -33c0,-8 -1,-16 0,-25 21,-15 41,-33 60,-55 19,-23 34,-48 45,-77 4,-9 7,-18 10,-28l1 -6 5 2c-1,10 -3,20 -6,30 -3,10 -6,19 -10,28 -11,29 -26,54 -45,76 -19,22 -39,41 -60,55zm40 -256c0,-2 0,-3 -1,-4 -2,-9 0,-22 6,-36 2,-6 6,-13 10,-20 5,-8 10,-14 15,-18l555 218c12,5 19,12 21,22 1,6 1,13 -1,21 -3,-7 -10,-13 -20,-17l-555 -218c-5,3 -10,9 -15,17 -4,8 -8,15 -10,21 -2,5 -3,9 -5,14zm231 569c-4,-11 -2,-25 5,-42l5 -15c4,0 7,0 11,0l-16 41c-2,5 -4,11 -5,16zm-42 -200c20,8 39,13 57,15 19,1 34,1 47,-2l17 -44 9 4 -26 66c-13,2 -28,3 -47,1 -18,-1 -37,-6 -57,-14 -31,-12 -53,-27 -68,-45 -15,-19 -24,-34 -27,-48l8 -6c4,9 11,18 19,28 15,18 37,33 68,45zm-2 -200l164 64 21 -52 8 4 -29 74 -173 -68 8 -19 1 -3zm550 682c-4,-5 -7,-9 -9,-14 5,-6 9,-13 14,-20 4,-7 9,-15 13,-22 6,-9 11,-19 17,-30l3 -7c4,0 8,-1 12,-2 -4,12 -9,24 -15,35 -6,10 -11,20 -17,29 -4,8 -9,16 -13,23 -2,2 -3,5 -5,8zm-227 -300c-1,-8 -1,-16 0,-24 2,-22 8,-43 20,-64 13,-22 28,-39 46,-51 18,-12 38,-20 59,-24 22,-3 45,-2 69,3 24,6 49,16 73,30 29,17 53,37 72,61 19,24 32,50 40,77 14,-14 27,-30 39,-48 8,-11 16,-23 23,-34l12 7c-11,17 -22,35 -35,53 -12,18 -25,34 -39,48 -8,-27 -21,-53 -40,-77 -19,-24 -43,-45 -72,-61 -24,-14 -49,-24 -73,-30 -24,-6 -47,-7 -69,-3 -21,4 -41,11 -59,24 -18,12 -33,29 -46,50 -11,21 -18,42 -20,63zm97 -305c-2,-3 -3,-6 -3,-9 0,-10 3,-22 11,-35 3,-5 8,-11 13,-19 6,-7 12,-12 17,-15l515 297c12,7 18,15 18,25 1,5 0,10 -2,16 -3,-6 -8,-11 -16,-15l-515 -297c-5,3 -11,8 -17,15 -5,7 -10,13 -13,19 -4,6 -7,12 -8,18zm79 370c19,11 39,17 61,17 20,-1 38,-4 54,-12 2,8 3,16 3,24 -17,9 -36,13 -57,13 -22,1 -42,-5 -61,-16 -22,-13 -37,-27 -44,-44 -5,-11 -6,-23 -3,-34 1,3 2,6 3,9 7,16 22,31 44,43z"/>
   <path class="fil19" d="M4306 1711c4,22 5,43 3,62 -1,19 -5,36 -11,51 9,7 17,17 24,28 7,11 12,24 14,38 3,18 3,35 -2,51 -5,16 -13,30 -25,43 -12,13 -27,23 -45,32 -19,9 -40,16 -64,20 -25,4 -47,6 -68,4 -20,-2 -36,-5 -48,-11 -15,-7 -23,-16 -25,-28 -1,-7 0,-15 4,-22 4,-6 9,-12 15,-15 12,8 27,14 46,18 19,5 41,5 66,1 31,-6 53,-17 68,-33 14,-17 19,-35 16,-54 -2,-9 -5,-17 -9,-23 -9,14 -21,26 -37,35 -15,10 -34,17 -54,20 -16,3 -31,4 -45,3 -13,-2 -25,-5 -35,-10 -10,-5 -19,-12 -26,-20 -7,-9 -11,-19 -13,-31 -4,-24 1,-44 17,-62 15,-17 38,-28 69,-34 21,-3 40,-4 57,0 18,3 34,8 47,15 1,-9 1,-20 1,-31 -1,-12 -2,-24 -3,-36l-241 43c-8,1 -13,0 -17,-4 -4,-3 -7,-9 -8,-18 -1,-3 -1,-7 -1,-12 0,-4 0,-9 1,-12l351 -62c7,-1 12,0 16,4 4,4 7,10 8,18 1,3 1,7 1,12 0,5 -1,9 -1,12l-46 8zm-139 167c13,-2 26,-7 37,-14 11,-6 20,-15 27,-27 -11,-7 -23,-12 -36,-15 -14,-3 -27,-3 -39,-1 -13,3 -23,7 -29,14 -6,6 -8,14 -7,22 2,9 6,15 14,19 9,4 19,4 33,2zm275 -191l30 170c-3,2 -7,3 -12,5 -5,2 -10,3 -16,4 -11,2 -21,2 -28,-1 -7,-3 -11,-11 -13,-23l-26 -144 -38 7c-13,2 -21,-4 -24,-21 -1,-4 -1,-8 -1,-12 0,-5 0,-9 1,-13l156 -28c14,-2 22,5 25,22 0,3 1,7 1,12 0,5 -1,9 -1,12l-54 10zm209 -16l-7 292c-3,1 -7,1 -13,2 -5,0 -11,1 -16,1 -12,-1 -21,-3 -27,-7 -6,-5 -9,-13 -9,-25l6 -265 -39 -1c-8,0 -13,-2 -16,-7 -3,-4 -4,-10 -4,-18 0,-4 0,-8 1,-13 1,-5 3,-9 4,-12l55 1 1 -48c1,-35 11,-62 32,-81 21,-18 48,-27 83,-26 18,0 34,3 48,8 14,6 26,12 35,21 10,8 17,17 22,28 4,11 7,22 6,34 0,15 -3,25 -10,32 -6,7 -15,10 -26,10 -6,0 -12,-1 -18,-3 -6,-2 -10,-4 -13,-7 0,-3 0,-6 1,-10 0,-4 0,-8 0,-12 1,-13 -3,-24 -12,-33 -8,-8 -20,-13 -35,-13 -13,-1 -25,4 -33,12 -9,9 -13,23 -14,42l-1 48 42 1c8,0 13,2 16,7 3,4 4,10 4,19 0,3 0,7 -1,12 -1,5 -2,9 -3,12l-59 -1zm355 8l-7 292c-3,1 -7,2 -13,2 -6,1 -11,1 -16,1 -12,0 -21,-3 -28,-7 -6,-4 -9,-13 -9,-24l3 -104 -118 -3c-5,31 -14,54 -25,69 -12,15 -26,22 -43,22 -12,-1 -21,-4 -29,-12 -8,-7 -12,-16 -14,-26 13,-10 24,-24 33,-44 9,-19 14,-46 15,-80 0,-13 0,-29 -2,-46 -1,-17 -4,-33 -8,-46l-48 -1c-14,-1 -20,-9 -20,-26 0,-4 1,-8 2,-12 1,-5 2,-9 3,-12l367 8c8,0 13,3 16,8 3,4 4,10 4,18 0,4 -1,8 -2,13 -1,4 -2,8 -3,11l-58 -1zm-184 103l115 3 3 -108 -127 -3c3,16 6,33 8,52 1,19 2,35 2,48l-1 8zm6 137c1,-10 4,-19 11,-25 7,-7 16,-10 27,-10 11,1 20,4 26,11 7,7 10,16 10,26 -1,10 -4,19 -11,26 -7,7 -16,10 -27,9 -10,0 -19,-3 -26,-11 -7,-7 -10,-15 -10,-26zm429 -210c7,20 21,37 42,51 22,15 46,25 75,30l13 2c1,3 1,6 2,9 0,4 0,8 -1,12 -1,8 -5,15 -12,20 -6,4 -16,5 -28,3 -4,-1 -9,-2 -13,-3 -5,-1 -10,-3 -15,-4l-43 67c-9,-8 -19,-14 -30,-20 -11,-6 -22,-10 -35,-12 -14,-3 -27,-2 -40,2 -12,3 -22,10 -28,20 6,17 17,32 34,44 17,13 37,21 61,25 23,4 43,4 59,1 17,-4 30,-8 41,-14 5,3 10,8 13,14 4,6 5,13 4,19 -2,11 -9,20 -21,26 -11,6 -25,10 -44,12 -19,2 -40,0 -65,-4 -23,-4 -44,-11 -62,-19 -18,-9 -33,-20 -45,-32 -13,-12 -23,-26 -30,-40 -8,-15 -13,-30 -15,-46 7,-12 16,-22 26,-31 10,-8 21,-15 33,-21 12,-5 24,-8 38,-10 13,-2 26,-1 40,1 9,2 17,4 24,7 7,3 13,6 18,9l14 -22c-21,-13 -39,-28 -53,-45 -14,-18 -23,-39 -29,-64l-88 -16c-14,-2 -19,-12 -16,-28 1,-4 2,-7 3,-12 2,-4 4,-8 5,-11l338 59c14,3 19,12 16,29 -1,4 -2,8 -4,12 -1,5 -3,8 -4,11l-178 -31zm192 334c-12,-2 -20,-6 -26,-11 -5,-5 -7,-14 -5,-25l46 -262 -39 -7c-7,-1 -12,-4 -14,-9 -3,-4 -3,-11 -2,-19 1,-3 2,-7 4,-12 2,-4 3,-8 5,-11l56 10 8 -49c4,-18 1,-32 -6,-42 -8,-11 -19,-17 -33,-20 -15,-2 -27,0 -36,8 -8,7 -14,17 -16,29 -1,4 -1,8 -2,12 0,4 -1,7 -1,10 -4,2 -9,3 -14,4 -6,1 -12,0 -19,-1 -11,-2 -19,-7 -24,-15 -5,-8 -6,-19 -3,-33 2,-12 6,-22 13,-32 7,-10 15,-17 26,-24 11,-6 23,-10 38,-13 14,-2 30,-2 48,2 35,6 60,20 77,41 17,22 23,50 17,85l-9 49 40 7c8,1 13,5 15,9 2,5 3,11 1,20 0,3 -1,7 -3,12 -1,4 -3,8 -4,11l-58 -10 -51 288c-3,0 -7,0 -13,0 -5,0 -11,-1 -16,-2z"/>
  </g>
  <path class="fil3" d="M8408 4788c0,1999 -1621,3620 -3620,3620 -1999,0 -3620,-1621 -3620,-3620"/>
  <g id="_811682168">
   <path class="fil20" d="M3186 8884c-13,-6 -22,-13 -27,-21 -5,-8 -4,-18 2,-31l131 -295 -32 -14 -65 -29 -144 325c-4,-1 -9,-2 -16,-4 -7,-2 -13,-4 -19,-7 -13,-6 -22,-13 -27,-21 -5,-7 -4,-18 1,-31l52 -115 -124 -55c-20,33 -40,55 -60,66 -20,11 -39,12 -58,4 -13,-6 -22,-15 -27,-27 -5,-12 -6,-24 -3,-36 19,-5 38,-16 57,-33 19,-18 37,-46 54,-84 7,-14 13,-31 20,-51 6,-19 10,-36 12,-52l-22 -14 -31 -14 -2 -1 -110 173c-3,-1 -8,-3 -14,-5 -6,-3 -12,-6 -18,-9 -12,-8 -20,-16 -24,-25 -3,-8 -1,-19 7,-31l95 -150 -40 -25 0 0 -31 -20c-18,26 -38,50 -61,71 -22,22 -45,40 -69,53 -2,24 -6,47 -14,69 -7,23 -16,42 -27,59 -12,20 -24,31 -35,33 -11,3 -23,0 -35,-8 -6,-4 -12,-8 -17,-13 -5,-5 -8,-10 -11,-14 5,-6 9,-12 13,-18 4,-6 8,-12 12,-19 5,-7 10,-16 16,-27 6,-10 11,-21 16,-32 -19,4 -41,5 -65,1 -24,-4 -48,-14 -72,-29 -19,-11 -34,-24 -46,-39 -12,-14 -20,-29 -26,-44 -5,-15 -6,-31 -4,-47 2,-16 8,-31 17,-46 10,-16 21,-28 35,-36 13,-9 28,-14 44,-16 16,-2 33,-1 51,4 17,4 35,12 53,24 24,15 42,33 56,53 13,21 23,43 27,65 13,-11 25,-24 38,-40 13,-16 24,-32 34,-48l-261 -166c-14,-8 -15,-21 -4,-39 2,-3 5,-7 9,-11 4,-5 7,-8 11,-11l381 242 0 0 130 82 336 150 63 28 24 -54c9,-21 11,-38 5,-53 -6,-14 -17,-25 -33,-32 -17,-7 -32,-8 -44,-2 -13,6 -23,16 -29,30 -2,5 -4,9 -5,13 -2,5 -3,9 -4,12 -5,1 -11,1 -18,0 -7,-1 -15,-3 -22,-6 -12,-5 -20,-14 -24,-24 -3,-11 -2,-25 6,-41 5,-13 14,-24 25,-34 10,-9 23,-16 37,-20 15,-4 31,-6 49,-4 17,1 36,7 56,16 39,17 65,41 79,71 14,31 12,66 -5,105l-25 55 45 20c9,4 14,9 15,16 1,6 0,14 -4,23 -2,4 -4,8 -7,13 -3,5 -6,9 -9,12l-65 -29 -144 325c-4,-1 -9,-2 -16,-4 -6,-2 -13,-4 -19,-7zm3856 -827l152 -99c14,-9 26,-5 38,13 2,3 4,8 7,13 2,5 4,10 5,14l-56 36 114 176c-2,3 -6,7 -11,11 -5,5 -10,9 -15,13 -12,7 -23,11 -32,11 -10,0 -18,-6 -26,-19l-97 -148 -30 19 0 0 -43 28c13,22 22,45 28,68 5,24 6,46 2,66 15,0 31,4 47,12 17,8 31,21 43,40 13,20 21,41 22,61 2,20 -1,40 -9,59 -8,19 -21,37 -37,55 -17,17 -36,33 -59,48 -26,17 -49,28 -70,35 -20,7 -38,10 -52,10 -14,0 -24,-2 -31,-5 -7,-4 -13,-9 -17,-16 -6,-9 -8,-18 -7,-27 2,-8 5,-16 10,-22 6,1 14,2 22,2 9,0 19,0 30,-2 12,-2 24,-5 36,-9 13,-5 27,-12 41,-21 16,-11 29,-22 39,-33 9,-11 15,-22 18,-33 4,-11 4,-22 2,-32 -2,-11 -6,-20 -12,-29 -6,-10 -13,-18 -22,-23 -9,-6 -17,-9 -26,-9 -9,12 -19,24 -31,35 -12,11 -26,22 -41,32 -31,20 -55,30 -73,32 -18,1 -31,-6 -41,-20 -4,-7 -7,-13 -8,-20 -1,-8 -1,-14 0,-18l153 -95c2,-13 1,-28 -5,-45 -6,-16 -13,-33 -23,-50l-236 154c-14,9 -26,5 -37,-12 -3,-4 -5,-8 -7,-14 -2,-5 -4,-10 -5,-14l350 -228zm-404 644c19,-9 32,-20 37,-33 6,-13 5,-27 -2,-43l-40 -87 -93 43c-19,8 -30,19 -34,33 -4,14 -2,28 4,42 6,14 14,25 24,33 10,8 21,14 33,18 12,3 24,4 36,3 12,-1 24,-4 35,-9zm-510 131c19,-7 36,-17 49,-32 13,-16 22,-31 26,-47 -7,-5 -15,-10 -24,-13 -9,-4 -18,-7 -28,-8 -9,-2 -19,-3 -29,-2 -10,1 -19,3 -28,6 -21,7 -36,17 -44,30 -8,13 -9,26 -4,41 4,14 14,23 28,28 14,5 32,4 54,-3zm-1645 275c31,3 48,-12 50,-43l8 -106 -70 -5c-17,-1 -31,3 -41,12 -11,10 -17,24 -18,44 -1,14 0,27 3,39 4,11 9,22 16,30 6,9 14,16 23,21 9,5 19,7 29,8zm-348 -397c1,-4 1,-8 2,-11 6,-30 -8,-49 -41,-55 -9,-2 -19,-3 -30,-4 -11,-2 -22,-3 -32,-5 -34,-7 -58,-19 -72,-37 -14,-17 -18,-38 -14,-61 3,-18 10,-30 21,-36 11,-6 22,-8 33,-6 6,2 11,3 15,6 5,3 9,6 12,10 -1,2 -2,5 -4,8 -1,4 -2,8 -2,10 -5,26 9,41 40,47 10,2 22,3 34,4 13,1 24,2 34,4 30,5 52,17 67,35 16,18 21,40 16,66 -2,9 -5,18 -8,26 -2,4 -4,8 -6,11l58 11c8,2 14,5 17,12 2,6 3,14 1,23 -1,4 -2,9 -4,15 -2,5 -4,9 -6,13l-70 -13 -65 349c-4,0 -10,0 -16,0 -7,-1 -14,-2 -20,-3 -14,-2 -24,-7 -31,-13 -7,-7 -9,-17 -6,-32l31 -169 -87 -16 -27 146c-8,2 -18,3 -30,3 -12,0 -25,-2 -40,-4 -47,-9 -87,-27 -118,-54 -31,-27 -51,-60 -59,-100 15,-14 28,-32 40,-53 12,-22 20,-45 25,-69 2,-10 3,-19 4,-30 0,-10 0,-20 0,-30l-59 -11c-16,-3 -22,-15 -18,-35 1,-4 2,-9 4,-14 1,-6 4,-10 6,-14l405 76zm616 481c-14,-1 -25,-4 -33,-10 -7,-5 -10,-16 -9,-30l25 -321 -102 -8 -19 249c-3,35 -16,62 -38,80 -23,19 -55,26 -97,23 -24,-2 -45,-7 -64,-17 -19,-9 -35,-21 -48,-37 -14,-15 -23,-33 -30,-53 -6,-21 -8,-43 -7,-67 3,-39 16,-68 39,-88 23,-19 54,-28 93,-25l85 7 6 -78 -235 -18c-16,-1 -23,-12 -22,-32 1,-5 1,-9 3,-15 1,-5 3,-10 4,-14l556 42c0,-4 1,-8 2,-11l440 -34 1 0 101 -7 0 -3 432 -99c8,-2 15,-1 20,3 0,-2 0,-3 0,-5l428 -144c2,-1 5,-2 8,-2 -1,-3 -1,-6 -2,-9l378 -171c15,-6 27,-1 36,18 2,4 3,9 5,15 1,5 2,10 2,14l-63 29 101 222c15,33 16,64 4,93 -12,29 -41,54 -85,74 -22,10 -45,16 -68,18 -23,3 -45,1 -66,-5 -21,-6 -39,-17 -57,-31 -17,-14 -31,-33 -41,-56 -16,-34 -17,-65 -6,-94 12,-28 37,-51 75,-68l104 -47 -34 -74 -242 110c-4,2 -9,3 -12,3 0,4 0,8 0,11l-56 19c9,30 15,61 18,92 2,31 1,60 -3,88 17,15 32,33 45,53 13,20 22,40 28,58 8,22 9,39 4,49 -5,10 -14,17 -28,22 -7,2 -14,4 -21,4 -7,1 -13,1 -18,0 -1,-7 -3,-14 -6,-21 -2,-7 -4,-14 -7,-21 -3,-9 -6,-18 -10,-30 -5,-11 -10,-22 -16,-32 -8,17 -22,34 -40,51 -18,16 -41,29 -67,38 -21,7 -41,11 -59,11 -19,0 -36,-2 -51,-8 -15,-6 -28,-14 -39,-26 -12,-11 -20,-26 -26,-42 -5,-18 -7,-34 -6,-50 2,-16 7,-31 16,-44 8,-14 20,-26 35,-37 14,-11 32,-20 52,-27 26,-9 52,-12 77,-9 24,2 47,9 67,19 -1,-17 -3,-35 -8,-55 -4,-20 -9,-38 -15,-56l-293 99c-10,3 -19,1 -25,-6 0,4 0,8 -1,11l-187 43 15 66c21,0 41,3 60,8 19,5 37,13 53,24 16,11 30,24 41,40 12,17 20,36 25,57 5,20 6,39 4,56 -3,17 -7,31 -14,44 -6,13 -15,23 -25,31 -10,9 -20,14 -31,16 -15,4 -26,2 -35,-5 -8,-6 -14,-16 -17,-27l-1 -5c5,-3 11,-7 16,-13 6,-5 11,-12 15,-19 4,-8 7,-17 9,-28 2,-10 1,-22 -2,-36 -3,-13 -9,-25 -18,-36 -8,-11 -18,-19 -29,-26 -12,-6 -24,-11 -37,-13 -13,-3 -26,-4 -39,-2 -13,4 -24,10 -35,19 -10,8 -19,17 -26,28 -7,11 -12,23 -15,36 -3,13 -2,26 1,40 3,13 7,24 13,33 7,8 13,15 20,21 8,5 15,9 22,11 8,2 15,4 20,4l2 5c2,12 2,22 -2,32 -4,10 -14,16 -28,20 -11,2 -23,2 -36,0 -13,-3 -25,-8 -37,-17 -11,-8 -22,-19 -32,-34 -10,-14 -17,-31 -22,-52 -5,-22 -6,-43 -2,-62 3,-20 10,-38 19,-54 9,-17 21,-32 36,-45 15,-13 32,-24 50,-33l-15 -66 -96 22 0 3c-1,6 -2,10 -3,14l-66 5 16 210c-4,1 -9,2 -15,4 -7,2 -13,3 -20,3 -14,1 -25,0 -33,-5 -9,-4 -13,-14 -14,-29l-14 -177 -46 4 -1 0 -52 4 10 132c1,15 -1,26 -6,32 -6,7 -16,10 -31,11l-189 15c3,23 9,42 17,57 8,15 19,27 31,36 12,8 26,14 41,17 15,3 30,4 46,3 14,-1 25,-3 35,-6 10,-3 19,-7 26,-11 8,-4 14,-9 19,-14 5,-5 10,-10 14,-15 9,3 16,7 22,14 7,7 10,14 11,23 1,15 -6,29 -22,42 -10,9 -23,16 -40,22 -16,6 -37,10 -60,12 -25,1 -50,0 -73,-4 -24,-5 -45,-14 -64,-26 -20,-13 -36,-31 -50,-53 -15,-22 -25,-50 -30,-84 -14,0 -25,-5 -36,-14 -10,-9 -16,-21 -17,-38 -2,-20 4,-36 16,-49 13,-13 30,-20 51,-22 9,-1 18,0 26,2 8,2 14,5 18,8l7 36 157 -12 -8 -108 -290 22 0 1c-2,6 -4,11 -5,14l-70 -5 -27 354c-4,1 -9,1 -16,2 -7,0 -13,0 -20,-1zm-818 -329c3,-14 7,-23 14,-27 6,-5 16,-6 30,-3l124 23 16 -87 -242 -46c1,11 1,21 0,33 0,11 -1,20 -2,28 -6,30 -14,55 -25,75 -10,20 -21,36 -31,47 5,15 15,30 32,43 16,13 37,22 63,27l21 -113zm-984 -334l119 53 54 -119 -133 -60c-4,20 -9,40 -16,62 -7,22 -14,40 -20,55l-4 9zm-532 -202c18,11 36,16 56,17 20,1 38,-2 52,-9 0,-8 -1,-17 -4,-27 -2,-9 -6,-18 -11,-26 -5,-9 -10,-17 -17,-24 -7,-7 -14,-14 -22,-19 -19,-12 -36,-16 -51,-14 -15,2 -27,9 -35,21 -8,13 -9,27 -4,41 5,14 17,27 36,40zm465 -100c-12,-8 -20,-19 -23,-33 -3,-13 -1,-26 7,-38 8,-13 19,-20 32,-22 14,-2 27,0 38,7 12,8 19,18 22,31 4,13 1,25 -6,38 -8,12 -19,20 -32,23 -13,4 -26,1 -38,-6z"/>
   <path class="fil21" d="M3186 8858c-13,-6 -22,-13 -27,-20 -5,-8 -4,-19 2,-32l131 -294 -32 -14 -65 -29 -144 324c-4,-1 -9,-2 -16,-4 -7,-2 -13,-4 -19,-7 -13,-6 -22,-12 -27,-20 -5,-8 -4,-19 1,-32l52 -115 -124 -55c-20,33 -40,55 -60,66 -20,11 -39,12 -58,4 -13,-6 -22,-15 -27,-27 -5,-12 -6,-24 -3,-35 19,-5 38,-16 57,-34 19,-18 37,-45 54,-83 7,-15 13,-32 20,-52 6,-19 10,-36 12,-52l-22 -14 -31 -14 -2 0 -110 173c-3,-2 -8,-3 -14,-6 -6,-2 -12,-5 -18,-9 -12,-8 -20,-16 -24,-24 -3,-9 -1,-19 7,-32l95 -149 -40 -26 0 0 -31 -20c-18,26 -38,50 -61,72 -22,21 -45,39 -69,52 -2,24 -6,47 -14,70 -7,22 -16,42 -27,58 -12,20 -24,31 -35,34 -11,2 -23,-1 -35,-9 -6,-4 -12,-8 -17,-13 -5,-4 -8,-9 -11,-14 5,-6 9,-11 13,-17 4,-7 8,-13 12,-20 5,-7 10,-16 16,-26 6,-11 11,-22 16,-33 -19,4 -41,5 -65,1 -24,-4 -48,-13 -72,-28 -19,-12 -34,-25 -46,-39 -12,-14 -20,-29 -26,-45 -5,-15 -6,-31 -4,-47 2,-15 8,-31 17,-46 10,-15 21,-27 35,-36 13,-8 28,-14 44,-16 16,-2 33,-1 51,4 17,5 35,13 53,24 24,15 42,33 56,54 13,20 23,42 27,64 13,-11 25,-24 38,-40 13,-16 24,-32 34,-48l-261 -165c-14,-9 -15,-22 -4,-39 2,-4 5,-8 9,-12 4,-4 7,-8 11,-11l381 242 0 0 130 83 336 149 63 28 24 -54c9,-20 11,-38 5,-52 -6,-15 -17,-25 -33,-33 -17,-7 -32,-8 -44,-2 -13,6 -23,17 -29,31 -2,4 -4,8 -5,13 -2,4 -3,8 -4,11 -5,1 -11,1 -18,1 -7,-1 -15,-3 -22,-7 -12,-5 -20,-13 -24,-24 -3,-11 -2,-24 6,-41 5,-13 14,-24 25,-33 10,-10 23,-16 37,-21 15,-4 31,-5 49,-4 17,2 36,7 56,16 39,17 65,41 79,72 14,30 12,65 -5,104l-25 56 45 20c9,4 14,9 15,15 1,6 0,14 -4,23 -2,4 -4,9 -7,14 -3,5 -6,9 -9,11l-65 -28 -144 324c-4,-1 -9,-2 -16,-4 -6,-2 -13,-4 -19,-7zm3856 -826l152 -100c14,-8 26,-4 38,13 2,3 4,8 7,13 2,6 4,10 5,14l-56 37 114 176c-2,2 -6,6 -11,11 -5,4 -10,8 -15,12 -12,8 -23,12 -32,12 -10,-1 -18,-7 -26,-19l-97 -149 -30 20 0 0 -43 28c13,21 22,44 28,68 5,23 6,45 2,65 15,0 31,4 47,12 17,8 31,22 43,40 13,21 21,41 22,61 2,20 -1,40 -9,59 -8,19 -21,37 -37,55 -17,17 -36,33 -59,48 -26,17 -49,29 -70,36 -20,6 -38,10 -52,10 -14,0 -24,-2 -31,-6 -7,-4 -13,-9 -17,-16 -6,-9 -8,-18 -7,-26 2,-9 5,-17 10,-23 6,1 14,2 22,2 9,1 19,0 30,-2 12,-1 24,-4 36,-9 13,-5 27,-12 41,-21 16,-11 29,-22 39,-33 9,-11 15,-22 18,-33 4,-11 4,-22 2,-32 -2,-10 -6,-20 -12,-29 -6,-10 -13,-18 -22,-23 -9,-6 -17,-8 -26,-9 -9,12 -19,24 -31,35 -12,12 -26,22 -41,32 -31,20 -55,31 -73,32 -18,1 -31,-5 -41,-20 -4,-6 -7,-13 -8,-20 -1,-7 -1,-13 0,-18l153 -94c2,-14 1,-29 -5,-45 -6,-17 -13,-34 -23,-50l-236 153c-14,9 -26,5 -37,-12 -3,-4 -5,-8 -7,-13 -2,-5 -4,-10 -5,-14l350 -228zm-404 643c19,-9 32,-20 37,-33 6,-13 5,-27 -2,-43l-40 -87 -93 43c-19,8 -30,19 -34,33 -4,14 -2,28 4,43 6,13 14,24 24,32 10,9 21,15 33,18 12,3 24,5 36,3 12,-1 24,-4 35,-9zm-510 131c19,-6 36,-17 49,-32 13,-15 22,-31 26,-46 -7,-6 -15,-10 -24,-14 -9,-4 -18,-6 -28,-8 -9,-2 -19,-2 -29,-2 -10,1 -19,3 -28,6 -21,7 -36,17 -44,30 -8,13 -9,27 -4,41 4,14 14,24 28,29 14,5 32,4 54,-4zm-1645 275c31,3 48,-12 50,-43l8 -105 -70 -6c-17,-1 -31,3 -41,13 -11,9 -17,24 -18,43 -1,14 0,27 3,39 4,12 9,22 16,31 6,8 14,15 23,20 9,5 19,8 29,8zm-348 -397c1,-4 1,-7 2,-11 6,-30 -8,-48 -41,-54 -9,-2 -19,-4 -30,-5 -11,-1 -22,-3 -32,-5 -34,-6 -58,-18 -72,-36 -14,-18 -18,-38 -14,-61 3,-19 10,-31 21,-37 11,-6 22,-7 33,-5 6,1 11,3 15,5 5,3 9,6 12,10 -1,2 -2,5 -4,9 -1,4 -2,7 -2,10 -5,25 9,40 40,46 10,2 22,4 34,4 13,1 24,2 34,4 30,6 52,17 67,35 16,18 21,40 16,66 -2,9 -5,18 -8,26 -2,5 -4,8 -6,11l58 11c8,2 14,6 17,12 2,6 3,14 1,23 -1,5 -2,10 -4,15 -2,5 -4,10 -6,13l-70 -13 -65 349c-4,0 -10,0 -16,0 -7,-1 -14,-1 -20,-2 -14,-3 -24,-8 -31,-14 -7,-7 -9,-17 -6,-31l31 -170 -87 -16 -27 146c-8,2 -18,3 -30,3 -12,0 -25,-1 -40,-4 -47,-9 -87,-27 -118,-53 -31,-27 -51,-61 -59,-101 15,-14 28,-32 40,-53 12,-21 20,-44 25,-69 2,-9 3,-19 4,-29 0,-11 0,-21 0,-31l-59 -11c-16,-3 -22,-15 -18,-35 1,-4 2,-9 4,-14 1,-5 4,-10 6,-14l405 76zm616 482c-14,-1 -25,-5 -33,-10 -7,-6 -10,-16 -9,-31l25 -321 -102 -8 -19 249c-3,35 -16,62 -38,81 -23,18 -55,26 -97,22 -24,-1 -45,-7 -64,-16 -19,-10 -35,-22 -48,-37 -14,-16 -23,-33 -30,-54 -6,-20 -8,-43 -7,-67 3,-38 16,-68 39,-87 23,-20 54,-29 93,-26l85 7 6 -78 -235 -18c-16,-1 -23,-12 -22,-32 1,-4 1,-9 3,-15 1,-5 3,-10 4,-14l556 42c0,-4 1,-8 2,-11l440 -33 1 0 101 -8 0 -2 432 -100c8,-2 15,-1 20,4 0,-2 0,-4 0,-6l428 -144c2,-1 5,-2 8,-2 -1,-3 -1,-6 -2,-8l378 -171c15,-7 27,-1 36,17 2,5 3,10 5,15 1,6 2,10 2,14l-63 29 101 223c15,32 16,63 4,92 -12,29 -41,54 -85,74 -22,10 -45,16 -68,19 -23,2 -45,0 -66,-6 -21,-6 -39,-16 -57,-30 -17,-15 -31,-34 -41,-57 -16,-34 -17,-65 -6,-94 12,-28 37,-51 75,-68l104 -47 -34 -73 -242 109c-4,2 -9,3 -12,3 0,4 0,8 0,12l-56 19c9,30 15,60 18,91 2,32 1,61 -3,88 17,16 32,33 45,54 13,20 22,39 28,58 8,22 9,38 4,48 -5,10 -14,17 -28,22 -7,2 -14,4 -21,5 -7,1 -13,0 -18,-1 -1,-7 -3,-14 -6,-20 -2,-7 -4,-14 -7,-22 -3,-8 -6,-18 -10,-29 -5,-11 -10,-22 -16,-33 -8,17 -22,35 -40,51 -18,17 -41,29 -67,38 -21,7 -41,11 -59,11 -19,1 -36,-2 -51,-8 -15,-5 -28,-14 -39,-26 -12,-11 -20,-25 -26,-42 -5,-17 -7,-34 -6,-50 2,-16 7,-30 16,-44 8,-14 20,-26 35,-37 14,-11 32,-20 52,-26 26,-9 52,-13 77,-10 24,2 47,9 67,19 -1,-16 -3,-35 -8,-54 -4,-20 -9,-39 -15,-57l-293 99c-10,3 -19,1 -25,-6 0,4 0,8 -1,11l-187 44 15 65c21,0 41,3 60,8 19,5 37,14 53,24 16,11 30,24 41,41 12,16 20,35 25,57 5,20 6,38 4,55 -3,17 -7,32 -14,44 -6,13 -15,24 -25,32 -10,8 -20,13 -31,16 -15,3 -26,1 -35,-5 -8,-7 -14,-16 -17,-28l-1 -5c5,-3 11,-7 16,-13 6,-5 11,-11 15,-19 4,-8 7,-17 9,-27 2,-11 1,-23 -2,-36 -3,-14 -9,-26 -18,-37 -8,-10 -18,-19 -29,-25 -12,-7 -24,-11 -37,-14 -13,-3 -26,-3 -39,-2 -13,5 -24,11 -35,19 -10,8 -19,18 -26,29 -7,11 -12,23 -15,35 -3,13 -2,27 1,40 3,13 7,24 13,33 7,9 13,16 20,21 8,5 15,9 22,11 8,3 15,4 20,5l2 5c2,11 2,21 -2,31 -4,10 -14,17 -28,20 -11,2 -23,2 -36,0 -13,-3 -25,-8 -37,-16 -11,-9 -22,-20 -32,-34 -10,-15 -17,-32 -22,-53 -5,-22 -6,-43 -2,-62 3,-20 10,-38 19,-54 9,-17 21,-32 36,-45 15,-13 32,-24 50,-33l-15 -66 -96 22 0 3c-1,6 -2,11 -3,15l-66 5 16 209c-4,1 -9,3 -15,4 -7,2 -13,3 -20,4 -14,1 -25,-1 -33,-5 -9,-5 -13,-15 -14,-30l-14 -176 -46 3 -1 0 -52 4 10 132c1,15 -1,26 -6,32 -6,7 -16,11 -31,12l-189 14c3,23 9,42 17,58 8,15 19,26 31,35 12,9 26,15 41,18 15,3 30,4 46,2 14,-1 25,-3 35,-6 10,-3 19,-6 26,-11 8,-4 14,-9 19,-14 5,-5 10,-10 14,-14 9,2 16,6 22,13 7,7 10,15 11,24 1,14 -6,28 -22,41 -10,9 -23,16 -40,22 -16,6 -37,10 -60,12 -25,2 -50,0 -73,-4 -24,-5 -45,-13 -64,-26 -20,-13 -36,-30 -50,-52 -15,-23 -25,-50 -30,-84 -14,-1 -25,-6 -36,-15 -10,-9 -16,-21 -17,-37 -2,-20 4,-37 16,-50 13,-13 30,-20 51,-22 9,0 18,0 26,2 8,2 14,5 18,8l7 37 157 -13 -8 -108 -290 22 0 2c-2,5 -4,10 -5,14l-70 -6 -27 354c-4,1 -9,1 -16,2 -7,0 -13,0 -20,0zm-818 -330c3,-14 7,-23 14,-27 6,-4 16,-5 30,-3l124 24 16 -88 -242 -45c1,10 1,21 0,32 0,11 -1,21 -2,29 -6,29 -14,54 -25,74 -10,20 -21,36 -31,48 5,15 15,29 32,42 16,14 37,23 63,27l21 -113zm-984 -334l119 54 54 -120 -133 -59c-4,19 -9,40 -16,61 -7,22 -14,40 -20,55l-4 9zm-532 -202c18,11 36,17 56,18 20,0 38,-3 52,-9 0,-9 -1,-18 -4,-27 -2,-10 -6,-18 -11,-27 -5,-9 -10,-16 -17,-24 -7,-7 -14,-13 -22,-18 -19,-12 -36,-17 -51,-15 -15,2 -27,9 -35,22 -8,12 -9,26 -4,40 5,14 17,28 36,40zm465 -100c-12,-8 -20,-19 -23,-32 -3,-14 -1,-27 7,-39 8,-13 19,-20 32,-22 14,-2 27,1 38,8 12,7 19,17 22,30 4,13 1,26 -6,38 -8,13 -19,20 -32,24 -13,3 -26,1 -38,-7z"/>
   <path class="fil22" d="M3159 8837c-5,-8 -4,-18 2,-31l121 -273 10 4 -131 295 -2 5zm-171 -76c-4,-8 -3,-18 2,-31l42 -94 10 5 -52 115 -2 5zm-218 -167c-2,-9 -2,-18 0,-26 19,-5 38,-16 57,-34 19,-18 37,-45 54,-83 7,-15 13,-32 20,-52 3,-10 6,-20 8,-29l4 3c-2,16 -6,33 -12,52 -7,20 -13,37 -20,51 -17,38 -35,66 -54,84 -19,17 -38,28 -57,33l0 1zm-76 -138l-2 -3c-3,-9 -1,-19 7,-32l83 -131 12 7 -95 150c-2,3 -4,6 -5,9zm-230 33c-4,-4 -8,-9 -10,-13 5,-6 9,-11 13,-17 4,-7 8,-13 12,-20 5,-7 10,-16 16,-26l3 -5c4,-1 9,-1 13,-2 -5,11 -10,22 -16,32 -6,11 -11,20 -16,27 -4,7 -8,13 -12,19l-3 5zm-166 -240c-1,-9 -1,-18 0,-27 2,-15 8,-31 17,-46 10,-15 21,-27 35,-36 13,-8 28,-14 44,-16 16,-2 33,-1 51,4 17,5 35,13 53,24 24,15 42,33 56,54 13,20 23,42 27,64 13,-11 25,-24 38,-40 8,-10 15,-20 22,-30l12 8c-10,16 -21,32 -34,48 -13,16 -25,29 -38,40 -4,-22 -14,-44 -27,-65 -14,-20 -32,-38 -56,-53 -18,-12 -36,-20 -53,-24 -18,-5 -35,-6 -51,-4 -16,2 -31,7 -44,16 -14,8 -25,20 -35,36 -9,15 -15,30 -17,46l0 1zm86 -239c-6,-8 -4,-19 4,-32 2,-4 5,-8 9,-12 4,-4 7,-8 11,-11l381 242 0 0 130 83 336 149 63 28 24 -54c3,-7 5,-14 7,-21 3,14 1,29 -7,47l-24 54 -63 -28 -336 -150 -130 -82 0 0 -381 -242c-4,3 -7,6 -11,11 -4,4 -7,8 -9,11 -2,3 -3,5 -4,7zm784 331l0 0c-3,-11 -2,-24 6,-41 5,-13 14,-24 25,-33 10,-10 23,-16 37,-21 15,-4 31,-5 49,-4 17,2 36,7 56,16 39,17 65,41 79,72 8,17 11,36 8,56 -1,-11 -4,-21 -8,-31 -14,-30 -40,-54 -79,-71 -20,-9 -39,-15 -56,-16 -18,-2 -34,0 -49,4 -14,4 -27,11 -37,20 -11,10 -20,21 -25,34 -3,5 -5,10 -6,15zm231 153l36 16c9,4 14,9 15,15 1,5 0,12 -3,19 -2,-3 -6,-6 -12,-9l-45 -20 9 -21zm3643 -462l152 -100c14,-8 26,-4 38,13 2,3 4,8 7,13 2,6 4,10 5,14l-8 5c-2,-2 -3,-4 -4,-6 -12,-18 -24,-22 -38,-13l-152 99 -342 223 -3 -6c-2,-5 -4,-10 -5,-14l350 -228zm158 -5l102 158c-2,2 -5,6 -10,10l-104 -161 12 -7zm-142 91c8,16 14,33 18,50 4,18 5,36 4,52 -1,-9 -2,-18 -4,-27 -6,-23 -15,-46 -28,-68l10 -7zm23 115c14,1 28,5 44,12 17,8 31,22 43,40 13,21 21,41 22,61 1,8 1,15 0,22 -2,-19 -9,-38 -22,-57 -12,-19 -26,-32 -43,-40 -16,-8 -32,-12 -47,-12 2,-9 3,-17 3,-26zm-171 291c-2,-6 -3,-12 -2,-18 2,-9 5,-17 10,-23 6,1 14,2 22,2 9,1 19,0 30,-2 12,-1 24,-4 36,-9 13,-5 27,-12 41,-21 16,-11 29,-22 39,-33 9,-11 15,-22 18,-33 1,-2 2,-4 2,-7l0 1c2,10 2,21 -2,32 -3,11 -9,22 -18,33 -10,11 -23,22 -39,33 -14,9 -28,16 -41,21 -12,4 -24,7 -36,9 -11,2 -21,2 -30,2 -8,0 -16,-1 -22,-2 -4,4 -6,9 -8,15zm-56 -164c-1,-3 -2,-5 -2,-7 -1,-7 -1,-13 0,-18l153 -94 0 -1c1,10 1,18 0,26l-151 94zm-216 315c19,-9 32,-20 37,-33 1,-1 2,-3 2,-5 3,11 2,21 -2,31 -5,13 -18,24 -37,33 -11,5 -23,8 -35,9 -12,1 -24,0 -36,-3 -12,-4 -23,-10 -33,-18 -10,-8 -18,-19 -24,-33 -6,-13 -8,-26 -5,-39 1,4 3,9 5,14 6,13 14,24 24,32 10,9 21,15 33,18 12,3 24,5 36,3 12,-1 24,-4 35,-9zm-510 131c19,-6 36,-17 49,-32 7,-9 13,-17 18,-26 3,2 5,3 8,5 -4,16 -13,31 -26,47 -13,15 -30,25 -49,32 -22,7 -40,8 -54,3 -14,-5 -24,-14 -28,-28 -4,-10 -4,-20 -1,-29l1 3c4,14 14,24 28,29 14,5 32,4 54,-4zm-1645 275c31,3 48,-12 50,-43l6 -80 2 0 -8 106c-2,31 -19,46 -50,43 -10,-1 -20,-3 -29,-8 -9,-5 -17,-12 -23,-21 -7,-8 -12,-19 -16,-30 -3,-12 -4,-25 -3,-39l0 -4c1,6 2,12 3,17 4,12 9,22 16,31 6,8 14,15 23,20 9,5 19,8 29,8zm-348 -397c0,-3 1,-6 2,-10 2,8 2,16 0,25 -1,3 -1,7 -2,11l-405 -76c-2,4 -5,8 -6,14 -1,3 -2,7 -3,10 -2,-6 -3,-13 -1,-22 1,-4 2,-9 4,-14 1,-5 4,-10 6,-14l405 76zm-187 -144c-2,-9 -2,-18 0,-28 3,-19 10,-31 21,-37 11,-6 22,-7 33,-5 6,1 11,3 15,5 5,3 9,6 12,10 -1,2 -2,5 -4,9 -1,4 -2,7 -2,10l0 1c-2,-2 -4,-3 -6,-4 -4,-3 -9,-4 -15,-6 -11,-2 -22,0 -33,6 -11,6 -18,18 -21,36l0 3zm76 -15c5,13 18,21 39,25 10,2 22,4 34,4 13,1 24,2 34,4 30,6 52,17 67,35 15,17 20,37 17,61 -2,-13 -8,-25 -17,-35 -15,-18 -37,-30 -67,-35 -10,-2 -21,-3 -34,-4 -12,-1 -24,-2 -34,-4 -31,-6 -45,-21 -40,-47l1 -4zm186 173l48 9c8,2 14,6 17,12 2,6 3,14 1,23l-1 4 0 -1c-3,-7 -9,-10 -17,-12l-58 -11c2,-3 4,-7 6,-11 2,-4 3,-8 4,-13zm-152 383c-2,-6 -2,-13 0,-22l27 -145 4 1 -31 166zm-325 -196c-2,-7 -4,-14 -5,-21 15,-14 28,-32 40,-53 12,-21 20,-44 25,-69 2,-9 3,-19 4,-29l0 -5 0 0c0,10 0,20 0,30 -1,11 -2,20 -4,30 -5,24 -13,47 -25,69 -10,18 -22,34 -35,48zm977 256c-1,-5 -1,-10 -1,-16l23 -295 2 0 -24 311zm-381 -138c0,-9 0,-19 0,-29 3,-38 16,-68 39,-87 23,-20 54,-29 93,-26l85 7 4 -52 2 0 -6 78 -85 -7c-39,-3 -70,6 -93,25 -23,20 -36,49 -39,88l0 3zm-32 -246c-2,-5 -2,-11 -2,-17 1,-4 1,-9 3,-15 1,-5 3,-10 4,-14l556 42c0,-4 1,-8 2,-11l440 -33 1 0 101 -8 0 -2 432 -100c8,-2 15,-1 20,4 0,-2 0,-4 0,-6l428 -144c2,-1 5,-2 8,-2 -1,-3 -1,-6 -2,-8l378 -171c13,-6 23,-3 31,10l-5 3c1,4 3,9 5,14 2,6 4,10 7,14 1,2 3,4 4,6l-4 2c-1,-2 -2,-4 -2,-6 -9,-19 -21,-24 -36,-18l-378 171c1,3 1,6 2,9 -3,0 -6,1 -8,2l-428 144c0,2 0,3 0,5 -5,-4 -12,-5 -20,-3l-432 99 0 3 -101 7 -1 0 -440 34c-1,3 -2,7 -2,11l-556 -42c-1,4 -3,9 -4,14l-1 6zm2359 -389l91 202c10,22 14,44 11,64 -1,-12 -5,-25 -11,-39l-101 -222 10 -5zm-235 252c-2,-18 1,-35 7,-52 12,-28 37,-51 75,-68l94 -42 10 21 -104 47c-38,17 -63,40 -75,68 -3,9 -5,17 -7,26zm-152 -74c6,23 10,45 12,68 1,16 1,31 1,46 0,-6 -1,-13 -1,-20 -3,-31 -9,-62 -18,-92l6 -2zm12 159c16,15 30,32 42,51 13,20 22,39 28,58 7,19 9,34 6,44 -1,-5 -3,-12 -6,-19 -6,-18 -15,-38 -28,-58 -13,-20 -28,-38 -45,-53 1,-8 2,-16 3,-23zm-319 78c-1,-9 -1,-17 -1,-25 2,-16 7,-30 16,-44 8,-14 20,-26 35,-37 14,-11 32,-20 52,-26 26,-9 52,-13 77,-10 23,2 45,8 65,18 1,9 2,18 2,27 -20,-10 -43,-17 -67,-19 -25,-3 -51,0 -77,9 -20,7 -38,16 -52,27 -15,11 -27,23 -35,37 -8,13 -13,27 -15,43zm-278 -62l10 41c21,0 41,3 60,8 19,5 37,14 53,24 16,11 30,24 41,41 12,16 20,35 25,57 4,18 6,35 4,50 0,-8 -2,-16 -4,-25 -5,-21 -13,-40 -25,-57 -11,-16 -25,-29 -41,-40 -16,-11 -34,-19 -53,-24 -19,-5 -39,-8 -60,-8l-15 -66 5 -1zm78 301c-3,-5 -5,-10 -7,-16l-1 -5c5,-3 11,-7 16,-13 6,-5 11,-11 15,-19 4,-8 7,-16 9,-27 1,10 1,18 0,25 -2,11 -5,20 -9,28 -4,7 -9,14 -15,19 -3,3 -6,6 -8,8zm-170 -79c1,3 1,5 2,8 3,13 7,24 13,33 7,9 13,16 20,21 8,5 15,9 22,11 8,3 15,4 20,5l2 5c2,9 2,17 0,25l-2 -5c-5,0 -12,-2 -20,-4 -7,-2 -14,-6 -22,-11 -7,-6 -13,-13 -20,-21 -6,-9 -10,-20 -13,-33 -3,-12 -3,-23 -2,-34zm-82 6c-1,-13 0,-25 2,-37 3,-20 10,-38 19,-54 9,-17 21,-32 36,-45 14,-12 28,-22 44,-30l6 23c-18,9 -35,20 -50,33 -15,13 -27,28 -36,45 -9,16 -16,34 -19,54 -1,3 -1,7 -2,11zm-71 -165l14 184 -2 1 -14 -185 2 0zm-179 14l8 106c1,7 1,13 0,18l-10 -124 2 0zm-213 190c3,12 7,22 12,32 8,15 19,26 31,35 12,9 26,15 41,18 15,3 30,4 46,2 14,-1 25,-3 35,-6 10,-3 19,-6 26,-11 8,-4 14,-9 19,-14 5,-5 10,-10 14,-14 9,2 16,6 22,13 7,7 10,15 11,24 0,5 -1,10 -2,15 -2,-4 -5,-9 -9,-13 -6,-7 -13,-11 -22,-14 -4,5 -9,10 -14,15 -5,5 -11,10 -19,14 -7,4 -16,8 -26,11 -10,3 -21,5 -35,6 -16,1 -31,0 -46,-3 -15,-3 -29,-9 -41,-17 -12,-9 -23,-21 -31,-36 -8,-15 -14,-34 -17,-57l5 0zm-135 -57c0,-3 0,-5 0,-7 -2,-20 4,-37 16,-50 13,-13 30,-20 51,-22 9,0 18,0 26,2 8,2 14,5 18,8l7 37 156 -12 1 25 -157 12 -7 -36c-4,-3 -10,-6 -18,-8 -8,-2 -17,-3 -26,-2 -21,2 -38,9 -51,22 -8,9 -14,19 -16,31zm-979 -95c3,-14 7,-23 14,-27 6,-4 16,-5 30,-3l124 24 11 -63 5 1 -16 87 -124 -23c-14,-3 -24,-2 -30,3 -7,4 -11,13 -14,27l-21 113c-26,-5 -47,-14 -63,-27 -17,-13 -27,-28 -32,-43 2,-3 5,-6 8,-9 5,9 13,18 24,26 16,14 37,23 63,27l21 -113zm-57 -113l0 3 -1 -4 1 1zm-918 -217l110 50 44 -99 10 5 -54 119 -119 -53 4 -9c1,-4 3,-8 5,-13zm-541 -206c18,11 36,17 56,18 19,0 35,-2 49,-8 2,8 3,16 3,24 -14,7 -32,10 -52,9 -20,-1 -38,-6 -56,-17 -19,-13 -31,-26 -36,-40 -4,-10 -4,-20 -1,-29l1 3c5,14 17,28 36,40zm442 -131l0 -1c-3,-14 -1,-27 7,-39 8,-13 19,-20 32,-22 14,-2 27,1 38,8 12,7 19,17 22,30 3,8 2,16 0,24 -4,-12 -11,-22 -22,-29 -11,-7 -24,-9 -38,-7 -13,2 -24,9 -32,22 -3,5 -6,9 -7,14z"/>
  </g>
  <g id="_811682480">
   <path class="fil23" d="M6713 5014l0 149c-2,1 -6,1 -11,2 -4,1 -9,1 -13,1 -11,0 -18,-2 -24,-5 -5,-4 -8,-11 -8,-21l0 -126 -71 0 0 251c-2,1 -6,2 -11,2 -4,1 -9,1 -14,1 -10,0 -18,-2 -23,-5 -6,-4 -9,-11 -9,-21l0 -89 -58 0c-3,24 -10,43 -21,56 -10,14 -23,21 -38,21 -11,0 -19,-3 -25,-9 -6,-5 -10,-13 -11,-23 11,-9 20,-21 28,-37 8,-15 11,-32 11,-52 0,-15 -1,-29 -5,-41 -9,4 -19,10 -31,18 -11,8 -22,18 -33,29 -4,20 -11,35 -21,46 -9,11 -21,17 -34,17 -10,0 -18,-3 -24,-9 -6,-6 -10,-13 -11,-22 10,-10 19,-21 27,-35 7,-13 11,-30 11,-51 0,-10 -1,-18 -2,-26 -1,-7 -4,-14 -7,-21l-31 0 -11 0 -39 0 0 251c-2,1 -6,2 -11,2 -5,1 -9,1 -14,1 -10,0 -18,-2 -24,-5 -5,-4 -8,-11 -8,-21l0 -228 -25 0 -8 0 -1 0 -33 0c-1,8 -2,15 -5,22 -2,8 -5,15 -9,21 -3,7 -7,13 -11,19 -5,5 -9,10 -13,13 11,7 21,17 30,30 9,13 13,29 13,48 0,16 -3,30 -10,43 -7,13 -16,24 -27,33 -12,10 -26,17 -43,22 -16,5 -34,8 -54,8 -38,0 -66,-7 -86,-21 -19,-13 -29,-30 -29,-51 0,-19 7,-33 20,-44 13,-10 30,-15 52,-15 13,0 25,1 35,4 11,4 21,8 29,14 9,5 17,12 23,20 7,7 13,15 17,24 5,-5 10,-10 13,-17 2,-7 4,-15 4,-23 0,-13 -3,-25 -10,-34 -6,-9 -13,-15 -22,-19 -10,3 -21,5 -31,6 -11,2 -23,2 -38,2 -23,0 -40,-2 -51,-6 -11,-5 -16,-13 -16,-26 0,-5 1,-9 2,-13 2,-4 4,-7 7,-9 23,1 45,1 66,1 21,1 42,1 63,2 4,-5 9,-13 14,-22 4,-10 7,-20 9,-32l-193 0 -6 0 -1 0 -39 0 0 90c0,10 -3,17 -7,22 -4,4 -11,6 -22,6l-68 0c-10,0 -20,1 -29,4 -8,3 -16,6 -22,10 -7,5 -13,10 -17,15 -4,6 -7,12 -9,18 4,13 15,24 31,32 15,9 34,13 54,13 21,0 38,-3 52,-9 13,-5 24,-11 31,-17 6,3 10,6 14,10 4,5 5,10 5,17 0,6 -1,11 -4,15 -3,5 -7,9 -12,12 -9,6 -21,10 -35,14 -15,4 -32,6 -54,6 -19,0 -37,-3 -54,-7 -16,-5 -30,-12 -42,-20 -13,-8 -23,-18 -31,-29 -8,-11 -13,-23 -16,-36 3,-15 10,-29 21,-43 11,-13 24,-24 39,-32 -12,-7 -23,-18 -32,-33 -9,-16 -15,-35 -17,-58l-70 0 0 251c-3,1 -6,2 -11,2 -5,1 -10,1 -14,1 -10,0 -18,-2 -24,-5 -5,-4 -8,-11 -8,-21l0 -228 -33 0c-7,0 -12,-1 -14,-5 -3,-4 -4,-9 -4,-16 0,-3 0,-7 1,-11 1,-4 2,-7 3,-10l47 0 0 -41c0,-31 8,-54 26,-71 17,-16 41,-24 71,-24 15,0 29,2 41,6 12,5 22,10 30,17 9,7 15,15 19,24 5,9 7,19 7,29 0,12 -3,22 -8,28 -6,6 -13,9 -22,9 -6,0 -11,-1 -16,-3 -5,-1 -9,-3 -12,-5 1,-2 1,-5 1,-9 0,-3 0,-6 0,-10 0,-11 -3,-21 -11,-28 -7,-7 -17,-11 -30,-11 -12,0 -21,4 -28,12 -8,7 -11,19 -11,36l0 41 319 0 7 0 285 0 8 0 40 0 0 -42c0,-16 -4,-28 -12,-35 -8,-8 -18,-12 -30,-12 -13,0 -23,4 -29,12 -7,7 -10,16 -10,27 0,4 0,7 0,10 1,4 1,7 1,9 -3,2 -7,4 -12,5 -4,2 -10,3 -15,3 -10,0 -17,-3 -23,-9 -5,-6 -8,-16 -8,-28 0,-10 2,-20 7,-29 4,-9 10,-17 18,-24 8,-7 18,-12 30,-17 12,-4 26,-6 41,-6 30,0 54,8 72,24 17,16 26,39 26,69l0 43 25 0 11 0 85 0c5,6 9,16 14,29 4,13 8,29 10,48 15,-13 31,-23 47,-31 16,-8 31,-14 45,-17 8,10 16,25 22,44 6,18 9,39 10,62l56 0 0 -107c0,-10 2,-17 6,-21 5,-5 12,-7 22,-7l190 0c11,0 17,7 17,22 0,3 0,6 -1,10 -1,4 -2,8 -3,10l-47 0zm-920 -797c0,-4 0,-7 0,-11 0,-17 -5,-29 -15,-38 -10,-9 -23,-13 -41,-13 -9,0 -20,0 -32,1 -12,1 -24,1 -35,1 -41,0 -72,-9 -92,-27 -21,-18 -32,-41 -32,-69 0,-25 7,-42 20,-52 13,-10 27,-15 44,-15 8,0 15,1 22,4 7,2 13,5 18,8 -1,3 -2,6 -2,11 -1,5 -1,8 -1,11 0,28 17,42 52,42 12,0 24,-1 38,-3 14,-2 26,-3 38,-3 35,0 64,9 87,27 22,18 33,44 33,78 0,12 -1,23 -4,33 -1,6 -3,11 -4,15l114 0c12,0 20,4 25,11 5,8 7,18 7,32 0,6 -1,13 -2,21 -1,8 -3,15 -5,19l-131 0c-2,16 -5,33 -8,51 -4,17 -10,34 -17,49 14,5 28,12 41,21 13,9 25,20 35,33 10,13 18,28 24,45 7,17 10,37 10,59 0,25 -5,47 -14,66 -9,19 -21,35 -35,48 -13,13 -28,22 -44,29 -16,6 -31,10 -45,10 -19,0 -33,-6 -43,-17 -10,-10 -15,-23 -15,-38 0,-2 0,-6 0,-10 0,-4 0,-8 1,-11 9,-1 19,-3 28,-7 10,-3 18,-8 25,-15 8,-6 14,-14 18,-25 5,-10 7,-22 7,-36 0,-20 -4,-36 -13,-49 -9,-13 -20,-22 -32,-28 -14,17 -30,31 -48,44 -19,12 -36,20 -53,24 -16,-4 -33,-12 -51,-24 -18,-12 -35,-27 -49,-43 -12,6 -23,15 -32,28 -9,12 -13,28 -13,48 0,14 2,26 6,36 5,10 11,18 19,25 7,7 16,12 25,16 9,4 18,6 27,8 1,3 2,6 2,9 0,4 0,7 0,9 0,16 -5,29 -16,39 -10,11 -24,17 -43,17 -15,0 -30,-4 -46,-10 -17,-6 -31,-15 -45,-28 -13,-13 -25,-29 -33,-48 -9,-19 -13,-42 -13,-67 0,-22 3,-42 9,-59 6,-17 14,-32 24,-45 10,-13 21,-24 34,-33 13,-9 27,-16 41,-21 -7,-15 -13,-31 -18,-49 -5,-18 -8,-35 -9,-51l-90 0 -14 0 0 0 -62 0 0 400c-4,1 -11,2 -21,4 -10,2 -19,3 -29,3 -19,0 -35,-4 -46,-11 -11,-6 -17,-20 -17,-41l0 -18c-11,4 -24,8 -39,10 -14,3 -29,4 -45,4 -58,0 -106,-12 -144,-36 -39,-24 -65,-55 -78,-94 4,-19 12,-37 25,-56 13,-18 29,-32 47,-41 -19,-11 -35,-27 -47,-48 -12,-22 -18,-47 -19,-76l-38 0c-11,0 -19,-4 -23,-11 -5,-7 -7,-18 -7,-32 0,-5 1,-12 2,-20 1,-8 3,-15 5,-20l367 0c1,-4 1,-7 1,-11 0,-17 -5,-29 -15,-38 -10,-9 -24,-13 -42,-13 -9,0 -20,0 -32,1 -12,1 -23,1 -34,1 -41,0 -72,-9 -93,-27 -21,-18 -31,-41 -31,-69 0,-25 6,-42 19,-52 13,-10 28,-15 44,-15 8,0 16,1 23,4 7,2 13,5 17,8 -1,3 -1,6 -2,11 0,5 -1,8 -1,11 0,28 18,42 52,42 12,0 25,-1 39,-3 13,-2 26,-3 37,-3 36,0 65,9 87,27 23,18 34,44 34,78 0,12 -2,23 -4,33 -2,6 -3,11 -5,15l50 0 14 0 372 0zm-614 350c31,0 56,-4 78,-14l0 -83 -111 0c-21,0 -37,4 -49,13 -13,9 -21,20 -25,33 6,14 18,26 35,36 18,10 42,15 72,15zm-105 -267c1,23 5,42 13,56 8,15 17,25 25,31l145 0 0 -87 -183 0zm646 149c19,-14 35,-35 46,-62 11,-27 18,-56 19,-87l-140 0c1,15 4,30 8,46 4,15 9,30 16,43 6,14 14,26 22,36 9,11 18,19 29,24zm-1891 1507l-229 750 581 -539c191,82 402,128 623,128 609,0 1136,-346 1397,-852l-178 0c-246,417 -700,697 -1219,697 -576,0 -1071,-344 -1292,-837 2,-6 4,-12 6,-18 10,-28 25,-57 62,-58 19,0 37,0 55,0 61,-4 122,-6 178,-33 44,-20 57,-52 42,-97 -15,-49 -16,-96 18,-138 4,-5 6,-10 9,-15 12,-29 4,-55 -26,-66 -18,-8 -39,-10 -59,-14 -13,-3 -26,-6 -39,-8 14,-11 27,-16 40,-22 16,-7 33,-13 48,-22 30,-19 38,-47 23,-79 -5,-11 -11,-21 -16,-32 -7,-17 -1,-33 15,-41 8,-4 17,-7 26,-10 75,-31 87,-78 38,-142 -15,-20 -33,-38 -51,-56 -27,-28 -56,-54 -82,-83 -44,-49 -64,-103 -32,-169 14,-28 -22,-275 -44,-388 259,-308 647,-503 1081,-503 487,0 917,247 1172,622l183 0c-272,-465 -777,-777 -1355,-777 -867,0 -1571,703 -1571,1570 0,500 233,945 596,1232zm-343 -716c-63,-160 -97,-334 -97,-516 0,-324 109,-622 292,-861 20,115 48,301 41,319 -6,16 -14,33 -17,50 -3,20 -4,41 -1,60 13,64 55,110 100,154 32,32 64,64 93,99 24,29 19,41 -16,56 -8,4 -17,7 -25,10 -50,19 -67,76 -46,115 4,7 7,15 11,22 9,13 4,21 -8,27 -18,7 -36,12 -54,20 -17,8 -36,17 -51,29 -20,16 -20,42 2,56 22,14 47,23 72,31 17,6 36,7 53,10 0,4 0,5 -1,7 -1,2 -2,5 -4,7 -41,51 -40,109 -24,169 9,31 6,39 -25,51 -8,3 -16,6 -24,7 -53,5 -106,13 -160,15 -44,1 -81,11 -104,51 -3,4 -5,8 -7,12zm1430 1173c-244,0 -476,-45 -690,-126l-247 182c207,81 433,126 670,126 416,0 801,-139 1109,-373 -252,122 -538,191 -842,191zm-1209 -426c-385,-315 -628,-778 -628,-1293 0,-950 823,-1720 1837,-1720 75,0 149,5 222,13 -156,-43 -320,-66 -489,-66 -1015,0 -1838,822 -1838,1837 0,647 335,1216 841,1544l55 -315zm454 -1136c-1,-77 -29,-148 -85,-208 -22,-24 -19,-50 10,-58 10,-3 28,3 36,12 76,79 112,174 105,284 -5,88 -39,166 -99,232 -16,16 -33,28 -55,10 -17,-13 -14,-34 6,-56 54,-60 82,-130 82,-216zm287 54c-1,83 -44,197 -131,294 -4,4 -8,8 -12,12 -17,17 -35,22 -53,5 -17,-17 -11,-35 4,-50 45,-47 81,-100 101,-162 53,-165 23,-314 -91,-446 -5,-5 -11,-11 -16,-17 -11,-15 -12,-31 2,-43 14,-12 32,-16 47,-1 15,15 29,30 42,47 70,92 108,196 107,361zm220 -47c-2,166 -57,312 -170,435 -6,7 -11,13 -18,19 -15,13 -31,14 -46,0 -15,-15 -14,-31 -1,-47 13,-16 29,-30 42,-47 134,-177 163,-370 85,-578 -27,-70 -68,-129 -119,-184 -9,-10 -16,-27 -15,-40 4,-27 36,-32 58,-10 56,56 99,121 131,193 36,83 54,169 53,259zm1059 228l0 -72 -108 0c1,17 6,31 13,44 7,13 17,23 30,29 7,-1 14,-1 21,-1l44 0zm-15 -138c-7,0 -14,-3 -19,-7 -5,-5 -8,-14 -8,-26 0,-10 2,-18 6,-26 3,-7 8,-14 14,-19 7,-6 14,-10 22,-13 9,-3 18,-4 27,-4 10,0 19,2 27,5 9,2 16,7 22,12 6,6 11,12 15,20 3,7 5,16 5,25 0,12 -2,21 -8,26 -5,4 -11,7 -18,7 -7,0 -13,-3 -18,-7 1,-1 1,-4 2,-7 0,-3 1,-6 1,-8 0,-9 -3,-16 -8,-21 -6,-5 -12,-8 -20,-8 -8,0 -14,3 -19,8 -5,5 -8,12 -8,21 0,2 0,5 1,8 1,3 1,6 2,7 -5,4 -11,7 -18,7zm235 281c4,0 9,0 14,-1 5,0 9,-1 14,-2 -6,-14 -14,-24 -24,-31 -11,-8 -23,-11 -36,-11 -6,0 -11,1 -16,4 -4,3 -7,8 -7,14 0,8 5,14 14,19 8,6 22,8 41,8z"/>
   <path class="fil24" d="M6713 4989l0 148c-2,1 -6,2 -11,2 -4,1 -9,2 -13,2 -11,0 -18,-2 -24,-6 -5,-3 -8,-11 -8,-21l0 -125 -71 0 0 251c-2,0 -6,1 -11,2 -4,0 -9,1 -14,1 -10,0 -18,-2 -23,-6 -6,-4 -9,-10 -9,-21l0 -89 -58 0c-3,24 -10,43 -21,57 -10,13 -23,20 -38,20 -11,0 -19,-3 -25,-8 -6,-6 -10,-14 -11,-23 11,-10 20,-22 28,-37 8,-16 11,-33 11,-52 0,-16 -1,-30 -5,-42 -9,4 -19,11 -31,18 -11,8 -22,18 -33,30 -4,19 -11,34 -21,45 -9,11 -21,17 -34,17 -10,0 -18,-3 -24,-9 -6,-6 -10,-13 -11,-22 10,-9 19,-21 27,-34 7,-14 11,-31 11,-52 0,-9 -1,-18 -2,-25 -1,-8 -4,-15 -7,-21l-31 0 -11 0 -39 0 0 251c-2,0 -6,1 -11,2 -5,0 -9,1 -14,1 -10,0 -18,-2 -24,-6 -5,-4 -8,-10 -8,-21l0 -227 -25 0 -8 0 -1 0 -33 0c-1,7 -2,14 -5,22 -2,7 -5,14 -9,21 -3,6 -7,12 -11,18 -5,6 -9,10 -13,13 11,7 21,17 30,30 9,13 13,29 13,49 0,15 -3,30 -10,43 -7,13 -16,24 -27,33 -12,9 -26,16 -43,21 -16,5 -34,8 -54,8 -38,0 -66,-7 -86,-20 -19,-14 -29,-31 -29,-52 0,-18 7,-33 20,-43 13,-11 30,-16 52,-16 13,0 25,2 35,5 11,3 21,8 29,13 9,6 17,12 23,20 7,8 13,16 17,25 5,-5 10,-11 13,-18 2,-7 4,-15 4,-23 0,-13 -3,-24 -10,-33 -6,-9 -13,-16 -22,-19 -10,2 -21,4 -31,6 -11,1 -23,2 -38,2 -23,0 -40,-3 -51,-7 -11,-5 -16,-13 -16,-26 0,-5 1,-9 2,-13 2,-4 4,-7 7,-9 23,1 45,1 66,2 21,0 42,0 63,1 4,-5 9,-13 14,-22 4,-10 7,-20 9,-31l-193 0 -6 0 -1 0 -39 0 0 90c0,10 -3,17 -7,21 -4,4 -11,6 -22,6l-68 0c-10,0 -20,2 -29,4 -8,3 -16,7 -22,11 -7,4 -13,9 -17,15 -4,5 -7,11 -9,17 4,14 15,24 31,33 15,8 34,12 54,12 21,0 38,-3 52,-8 13,-6 24,-12 31,-17 6,2 10,5 14,10 4,4 5,9 5,16 0,6 -1,11 -4,16 -3,4 -7,8 -12,11 -9,6 -21,11 -35,14 -15,4 -32,6 -54,6 -19,0 -37,-2 -54,-7 -16,-5 -30,-11 -42,-19 -13,-9 -23,-18 -31,-29 -8,-12 -13,-24 -16,-37 3,-15 10,-29 21,-43 11,-13 24,-24 39,-31 -12,-8 -23,-19 -32,-34 -9,-16 -15,-35 -17,-57l-70 0 0 251c-3,0 -6,1 -11,2 -5,0 -10,1 -14,1 -10,0 -18,-2 -24,-6 -5,-4 -8,-10 -8,-21l0 -227 -33 0c-7,0 -12,-2 -14,-6 -3,-3 -4,-9 -4,-16 0,-3 0,-7 1,-10 1,-4 2,-8 3,-11l47 0 0 -41c0,-31 8,-54 26,-70 17,-16 41,-24 71,-24 15,0 29,2 41,6 12,4 22,9 30,16 9,7 15,15 19,24 5,9 7,19 7,29 0,13 -3,22 -8,28 -6,6 -13,9 -22,9 -6,0 -11,-1 -16,-2 -5,-2 -9,-4 -12,-6 1,-2 1,-5 1,-8 0,-4 0,-7 0,-10 0,-12 -3,-21 -11,-29 -7,-7 -17,-10 -30,-10 -12,0 -21,3 -28,11 -8,8 -11,20 -11,36l0 41 319 0 7 0 285 0 8 0 40 0 0 -42c0,-16 -4,-27 -12,-35 -8,-8 -18,-11 -30,-11 -13,0 -23,3 -29,11 -7,8 -10,17 -10,28 0,3 0,6 0,10 1,3 1,6 1,8 -3,2 -7,4 -12,6 -4,1 -10,2 -15,2 -10,0 -17,-3 -23,-9 -5,-6 -8,-15 -8,-28 0,-10 2,-20 7,-29 4,-9 10,-17 18,-24 8,-7 18,-12 30,-16 12,-4 26,-6 41,-6 30,0 54,7 72,23 17,16 26,39 26,69l0 43 25 0 11 0 85 0c5,7 9,16 14,29 4,13 8,29 10,48 15,-12 31,-22 47,-30 16,-8 31,-14 45,-18 8,11 16,25 22,44 6,19 9,39 10,62l56 0 0 -107c0,-10 2,-17 6,-21 5,-5 12,-7 22,-7l190 0c11,0 17,7 17,22 0,3 0,6 -1,11 -1,4 -2,7 -3,10l-47 0zm-920 -797c0,-4 0,-8 0,-12 0,-16 -5,-29 -15,-38 -10,-8 -23,-13 -41,-13 -9,0 -20,1 -32,2 -12,0 -24,1 -35,1 -41,0 -72,-9 -92,-28 -21,-18 -32,-41 -32,-69 0,-24 7,-42 20,-52 13,-10 27,-15 44,-15 8,0 15,1 22,4 7,2 13,5 18,8 -1,3 -2,7 -2,11 -1,5 -1,9 -1,11 0,28 17,42 52,42 12,0 24,-1 38,-3 14,-2 26,-3 38,-3 35,0 64,9 87,27 22,18 33,44 33,78 0,13 -1,24 -4,34 -1,5 -3,10 -4,15l114 0c12,0 20,3 25,11 5,7 7,17 7,31 0,6 -1,14 -2,22 -1,8 -3,14 -5,18l-131 0c-2,17 -5,33 -8,51 -4,17 -10,34 -17,50 14,5 28,11 41,20 13,9 25,20 35,33 10,13 18,28 24,46 7,17 10,36 10,58 0,25 -5,47 -14,67 -9,19 -21,35 -35,47 -13,13 -28,23 -44,29 -16,7 -31,10 -45,10 -19,0 -33,-6 -43,-16 -10,-11 -15,-24 -15,-38 0,-3 0,-6 0,-11 0,-4 0,-7 1,-10 9,-2 19,-4 28,-7 10,-4 18,-9 25,-15 8,-7 14,-15 18,-25 5,-11 7,-23 7,-37 0,-20 -4,-36 -13,-49 -9,-13 -20,-22 -32,-28 -14,17 -30,32 -48,44 -19,12 -36,20 -53,24 -16,-4 -33,-12 -51,-24 -18,-12 -35,-26 -49,-43 -12,6 -23,15 -32,28 -9,13 -13,29 -13,48 0,14 2,26 6,36 5,10 11,19 19,25 7,7 16,12 25,16 9,4 18,7 27,8 1,3 2,6 2,9 0,4 0,7 0,10 0,15 -5,28 -16,39 -10,10 -24,16 -43,16 -15,0 -30,-3 -46,-9 -17,-7 -31,-16 -45,-29 -13,-12 -25,-28 -33,-48 -9,-19 -13,-41 -13,-67 0,-22 3,-41 9,-58 6,-18 14,-33 24,-46 10,-13 21,-24 34,-33 13,-9 27,-15 41,-20 -7,-15 -13,-32 -18,-50 -5,-18 -8,-35 -9,-51l-90 0 -14 0 0 0 -62 0 0 400c-4,1 -11,3 -21,4 -10,2 -19,3 -29,3 -19,0 -35,-4 -46,-10 -11,-7 -17,-21 -17,-42l0 -18c-11,4 -24,8 -39,11 -14,2 -29,4 -45,4 -58,0 -106,-12 -144,-36 -39,-24 -65,-56 -78,-95 4,-19 12,-37 25,-56 13,-18 29,-32 47,-41 -19,-11 -35,-27 -47,-48 -12,-21 -18,-47 -19,-76l-38 0c-11,0 -19,-3 -23,-11 -5,-7 -7,-18 -7,-32 0,-5 1,-12 2,-20 1,-8 3,-14 5,-19l367 0c1,-4 1,-8 1,-12 0,-16 -5,-29 -15,-38 -10,-8 -24,-13 -42,-13 -9,0 -20,1 -32,2 -12,0 -23,1 -34,1 -41,0 -72,-9 -93,-28 -21,-18 -31,-41 -31,-69 0,-24 6,-42 19,-52 13,-10 28,-15 44,-15 8,0 16,1 23,4 7,2 13,5 17,8 -1,3 -1,7 -2,11 0,5 -1,9 -1,11 0,28 18,42 52,42 12,0 25,-1 39,-3 13,-2 26,-3 37,-3 36,0 65,9 87,27 23,18 34,44 34,78 0,13 -2,24 -4,34 -2,5 -3,10 -5,15l50 0 14 0 372 0zm-614 350c31,0 56,-5 78,-14l0 -84 -111 0c-21,0 -37,5 -49,14 -13,9 -21,20 -25,33 6,14 18,26 35,36 18,10 42,15 72,15zm-105 -268c1,24 5,42 13,57 8,14 17,24 25,30l145 0 0 -87 -183 0zm646 149c19,-14 35,-34 46,-62 11,-27 18,-56 19,-87l-140 0c1,15 4,31 8,46 4,15 9,30 16,43 6,14 14,26 22,36 9,11 18,19 29,24zm-1891 1508l-229 749 581 -539c191,83 402,129 623,129 609,0 1136,-346 1397,-852l-178 0c-246,417 -700,696 -1219,696 -576,0 -1071,-344 -1292,-837 2,-6 4,-12 6,-18 10,-28 25,-57 62,-58 19,0 37,1 55,0 61,-3 122,-6 178,-33 44,-20 57,-52 42,-97 -15,-49 -16,-96 18,-138 4,-4 6,-10 9,-15 12,-28 4,-54 -26,-66 -18,-7 -39,-9 -59,-14 -13,-3 -26,-5 -39,-8 14,-11 27,-16 40,-22 16,-7 33,-13 48,-22 30,-19 38,-47 23,-79 -5,-11 -11,-21 -16,-32 -7,-17 -1,-33 15,-41 8,-4 17,-6 26,-10 75,-31 87,-77 38,-141 -15,-21 -33,-39 -51,-57 -27,-28 -56,-54 -82,-83 -44,-49 -64,-103 -32,-168 14,-29 -22,-275 -44,-389 259,-307 647,-503 1081,-503 487,0 917,247 1172,622l183 0c-272,-465 -777,-777 -1355,-777 -867,0 -1571,703 -1571,1571 0,499 233,944 596,1232zm-343 -717c-63,-159 -97,-333 -97,-515 0,-324 109,-623 292,-861 20,114 48,300 41,318 -6,17 -14,33 -17,50 -3,20 -4,41 -1,61 13,64 55,110 100,154 32,31 64,63 93,98 24,29 19,42 -16,57 -8,3 -17,6 -25,9 -50,19 -67,76 -46,115 4,7 7,15 11,22 9,13 4,22 -8,27 -18,7 -36,12 -54,21 -17,8 -36,16 -51,28 -20,17 -20,42 2,56 22,14 47,23 72,32 17,5 36,6 53,9 0,4 0,6 -1,7 -1,3 -2,5 -4,7 -41,52 -40,110 -24,169 9,31 6,39 -25,51 -8,3 -16,6 -24,7 -53,6 -106,14 -160,15 -44,1 -81,11 -104,52 -3,3 -5,7 -7,11zm1430 1173c-244,0 -476,-44 -690,-125l-247 181c207,82 433,126 670,126 416,0 801,-139 1109,-372 -252,121 -538,190 -842,190zm-1209 -425c-385,-315 -628,-778 -628,-1294 0,-950 823,-1719 1837,-1719 75,0 149,4 222,12 -156,-43 -320,-66 -489,-66 -1015,0 -1838,823 -1838,1837 0,648 335,1217 841,1544l55 -314zm454 -1137c-1,-77 -29,-147 -85,-207 -22,-24 -19,-51 10,-58 10,-3 28,3 36,11 76,79 112,174 105,284 -5,89 -39,166 -99,232 -16,17 -33,28 -55,11 -17,-14 -14,-34 6,-57 54,-60 82,-130 82,-216zm287 54c-1,83 -44,197 -131,294 -4,5 -8,9 -12,13 -17,17 -35,22 -53,4 -17,-17 -11,-34 4,-50 45,-47 81,-100 101,-162 53,-165 23,-314 -91,-445 -5,-6 -11,-11 -16,-17 -11,-15 -12,-32 2,-44 14,-12 32,-16 47,-1 15,15 29,30 42,47 70,92 108,196 107,361zm220 -47c-2,167 -57,312 -170,436 -6,6 -11,12 -18,18 -15,13 -31,14 -46,0 -15,-14 -14,-31 -1,-46 13,-17 29,-31 42,-48 134,-176 163,-370 85,-578 -27,-69 -68,-129 -119,-184 -9,-10 -16,-27 -15,-40 4,-27 36,-32 58,-10 56,56 99,121 131,193 36,83 54,169 53,259zm1059 228l0 -71 -108 0c1,16 6,30 13,43 7,13 17,23 30,29 7,-1 14,-1 21,-1l44 0zm-15 -138c-7,0 -14,-2 -19,-7 -5,-5 -8,-13 -8,-26 0,-9 2,-18 6,-26 3,-7 8,-14 14,-19 7,-5 14,-10 22,-12 9,-3 18,-5 27,-5 10,0 19,2 27,5 9,3 16,7 22,12 6,6 11,12 15,20 3,8 5,16 5,25 0,13 -2,21 -8,26 -5,5 -11,7 -18,7 -7,0 -13,-2 -18,-7 1,-1 1,-3 2,-6 0,-3 1,-6 1,-9 0,-9 -3,-16 -8,-21 -6,-5 -12,-8 -20,-8 -8,0 -14,3 -19,8 -5,6 -8,13 -8,21 0,3 0,6 1,9 1,3 1,5 2,6 -5,5 -11,7 -18,7zm235 281c4,0 9,0 14,0 5,-1 9,-2 14,-3 -6,-14 -14,-24 -24,-31 -11,-7 -23,-11 -36,-11 -6,0 -11,1 -16,4 -4,3 -7,8 -7,15 0,7 5,13 14,19 8,5 22,7 41,7z"/>
   <path class="fil22" d="M6383 5192c-4,-5 -6,-12 -7,-19 11,-10 20,-22 28,-37 6,-12 10,-26 11,-40 0,4 0,9 0,13 0,20 -3,37 -11,52 -6,12 -13,22 -21,31zm-119 -52c-5,-6 -7,-12 -8,-19 10,-9 19,-21 27,-34 6,-11 9,-24 11,-39 0,4 0,8 0,13 0,21 -4,38 -11,51 -6,11 -12,20 -19,28zm-208 -66c6,5 11,12 16,19 9,13 13,29 13,49 0,4 0,8 -1,12 -1,-14 -5,-25 -12,-35 -9,-13 -19,-23 -30,-30 4,-3 8,-8 13,-13l1 -2zm-218 114c-1,-4 -2,-8 -2,-13 0,-18 7,-33 20,-43 10,-8 22,-13 37,-15 10,1 21,2 35,2l10 0 5 2c11,3 21,8 29,13 9,6 17,12 23,20 7,8 13,16 17,25 5,-5 10,-11 13,-18 1,-3 2,-7 3,-10 1,4 1,8 1,13 0,8 -2,16 -4,23 -3,7 -8,12 -13,17 -4,-9 -10,-17 -17,-24 -6,-8 -14,-15 -23,-20 -8,-6 -18,-10 -29,-14 -10,-3 -22,-4 -35,-4 -22,0 -39,5 -52,15 -10,8 -16,18 -18,31zm25 -114c-1,-3 -2,-8 -2,-13 0,-5 1,-9 2,-13 2,-4 4,-7 7,-9 23,1 45,1 66,2 21,0 42,0 63,1 4,-5 9,-13 14,-22l2 -6 7 0c-2,12 -5,22 -9,32 -5,9 -10,17 -14,22 -21,-1 -42,-1 -63,-2 -21,0 -43,0 -66,-1 -3,2 -5,5 -7,9l0 0zm-248 91c6,8 14,15 25,21 15,8 34,12 54,12 21,0 38,-3 52,-8 13,-6 24,-12 31,-17 6,2 10,5 14,10 4,4 5,9 5,16 0,5 -1,9 -3,13 0,-1 -1,-2 -2,-4 -4,-4 -8,-7 -14,-10 -7,6 -18,12 -31,17 -14,6 -31,9 -52,9 -20,0 -39,-4 -54,-13 -16,-8 -27,-19 -31,-32 1,-5 3,-9 6,-14zm-63 2c-2,-4 -3,-8 -4,-13 3,-15 10,-29 21,-43 6,-8 13,-14 21,-20 6,6 12,11 18,14 -15,8 -28,19 -39,32 -8,10 -13,20 -17,30zm-169 -188c-2,-3 -2,-7 -2,-12 0,-3 0,-7 1,-10 1,-4 2,-8 3,-11l47 0 0 26 -47 0c-1,2 -2,5 -2,7zm49 -50l0 -24c0,-31 8,-54 26,-70 17,-16 41,-24 71,-24 15,0 29,2 41,6 12,4 22,9 30,16 9,7 15,15 19,24 5,9 7,19 7,29 0,5 -1,9 -1,13 -2,-5 -3,-11 -6,-16 -4,-9 -10,-17 -19,-24 -8,-7 -18,-12 -30,-17 -12,-4 -26,-6 -41,-6 -30,0 -54,8 -71,24 -17,16 -26,39 -26,69zm137 -13l-1 -1 0 -1 1 2zm-80 30l90 0 1 0c5,2 10,3 16,3 5,0 9,-1 13,-3l94 0c3,1 6,2 9,2 4,0 7,-1 9,-2l66 0c3,1 6,2 10,2 3,0 6,-1 9,-2l2 0 7 0 213 0c3,2 8,3 13,3 5,0 11,-1 15,-3l1 0 43 0 8 0 40 0 0 26 -40 0 -8 0 -285 0 -7 0 -319 0 0 -26zm579 -33l0 2 -1 1 1 -3zm-57 -14c0,-4 -1,-8 -1,-13 0,-10 2,-20 7,-29 4,-9 10,-17 18,-24 8,-7 18,-12 30,-16 12,-4 26,-6 41,-6 30,0 54,7 72,23 17,16 26,39 26,69l0 24c0,-29 -9,-51 -26,-67 -18,-16 -42,-24 -72,-24 -15,0 -29,2 -41,6 -12,5 -22,10 -30,17 -8,7 -14,15 -18,24 -3,5 -5,11 -6,16zm193 47l25 0 11 0 85 0c5,7 9,16 14,29 4,13 8,29 10,48 15,-12 31,-22 47,-30 16,-8 31,-14 45,-18 8,11 16,25 22,44 6,19 9,39 10,62l56 0 0 26 -56 0c-1,-23 -4,-44 -10,-62 -6,-19 -14,-34 -22,-44 -14,3 -29,9 -45,17 -16,8 -32,18 -47,31 -2,-19 -6,-35 -10,-48 -5,-13 -9,-23 -14,-29l-85 0 -11 0 -25 0 0 -26zm325 53l0 -25c0,-10 2,-17 6,-21 5,-5 12,-7 22,-7l190 0c11,0 17,7 17,22 0,3 0,6 -1,11l-1 3c-2,-7 -8,-10 -15,-10l-190 0c-10,0 -17,2 -22,7 -4,4 -6,11 -6,20zm-982 -951c0,-4 -1,-8 -1,-13 0,-24 7,-42 20,-52 13,-10 27,-15 44,-15 8,0 15,1 22,4 7,2 13,5 18,8 -1,3 -2,7 -2,11 -1,5 -1,9 -1,11l0 2c-4,-2 -9,-5 -15,-6 -7,-3 -14,-4 -22,-4 -17,0 -31,5 -44,15 -11,8 -17,21 -19,39zm101 -34c5,20 21,30 51,30 12,0 24,-1 38,-3 14,-2 26,-3 38,-3 35,0 64,9 87,27 22,18 33,44 33,78 0,5 0,9 0,13 -3,-28 -14,-49 -33,-65 -23,-18 -52,-27 -87,-27 -12,0 -24,1 -38,3 -14,2 -26,3 -38,3 -35,0 -52,-14 -52,-42 0,-3 0,-6 1,-11l0 -3zm246 178l107 0c12,0 20,3 25,11 5,7 7,17 7,31 0,4 0,8 -1,13 -1,-8 -3,-14 -6,-19 -5,-7 -13,-11 -25,-11l-114 0c1,-4 3,-9 4,-15 1,-3 2,-7 3,-10zm-15 186c11,5 22,10 32,17 13,9 25,20 35,33 10,13 18,28 24,46 7,17 10,36 10,58 0,4 -1,8 -1,12 -1,-16 -4,-31 -9,-45 -6,-17 -14,-32 -24,-45 -10,-13 -22,-24 -35,-33 -13,-9 -27,-16 -41,-21 3,-7 6,-14 9,-22zm-95 261c0,-3 0,-5 0,-8 0,-3 0,-6 0,-11 0,-4 0,-7 1,-10 9,-2 19,-4 28,-7 10,-4 18,-9 25,-15 8,-7 14,-15 18,-25 3,-7 5,-15 6,-24 1,4 1,8 1,13 0,14 -2,26 -7,36 -4,11 -10,19 -18,25 -7,7 -15,12 -25,15 -9,4 -19,6 -28,7 0,2 0,3 -1,4zm-212 -100c1,9 3,16 6,23 5,10 11,19 19,25 7,7 16,12 25,16 9,4 18,7 27,8 1,3 2,6 2,9 0,4 0,7 0,10 0,3 0,6 -1,10 0,-1 0,-2 -1,-3 -9,-2 -18,-4 -27,-8 -9,-4 -18,-9 -25,-16 -8,-7 -14,-15 -19,-25 -4,-10 -6,-22 -6,-36 0,-5 0,-9 0,-13zm-117 6c0,-4 0,-9 0,-13 0,-22 3,-41 9,-58 6,-18 14,-33 24,-46 10,-13 21,-24 34,-33 10,-7 21,-12 32,-17 3,8 6,15 9,22 -14,5 -28,12 -41,21 -13,9 -24,20 -34,33 -10,13 -18,28 -24,45 -5,14 -8,29 -9,46zm-500 -39c-1,-3 -3,-7 -4,-11 4,-19 12,-37 25,-56 8,-11 18,-21 28,-29 5,6 12,10 19,14 -18,9 -34,23 -47,41 -9,14 -16,27 -21,41zm-65 -261c-1,-4 -1,-9 -1,-14 0,-5 1,-12 2,-20 1,-8 3,-14 5,-19l366 0c1,4 2,9 2,14 0,4 0,7 -1,11l-367 0c-2,5 -4,12 -5,20l-1 8zm128 -197c-1,-4 -1,-8 -1,-13 0,-24 6,-42 19,-52 13,-10 28,-15 44,-15 8,0 16,1 23,4 7,2 13,5 17,8 -1,3 -1,7 -2,11 0,5 -1,9 -1,11l0 2c-4,-2 -9,-5 -14,-6 -7,-3 -15,-4 -23,-4 -16,0 -31,5 -44,15 -10,8 -16,21 -18,39zm100 -34c5,20 22,30 51,30 12,0 25,-1 39,-3 13,-2 26,-3 37,-3 36,0 65,9 87,27 23,18 34,44 34,78 0,5 0,9 -1,13 -2,-28 -13,-50 -33,-65 -22,-18 -51,-27 -87,-27 -11,0 -24,1 -37,3 -14,2 -27,3 -39,3 -34,0 -52,-14 -52,-42 0,-3 1,-6 1,-11l0 -3zm246 178l43 0 14 0 371 0c1,4 1,9 1,14 0,4 0,7 0,11l-372 0 -14 0 -50 0c2,-4 3,-9 5,-15 1,-3 1,-7 2,-10zm-185 350c31,0 56,-5 78,-14l0 25c-22,10 -47,14 -78,14 -30,0 -54,-5 -72,-15 -17,-10 -29,-22 -35,-36 2,-5 4,-9 7,-14 6,9 16,17 28,25 18,10 42,15 72,15zm-102 -242c2,12 5,22 10,31 8,14 17,24 25,30l145 0 0 26 -145 0c-8,-6 -17,-16 -25,-31 -8,-14 -12,-33 -13,-56l3 0zm643 123c19,-14 35,-34 46,-62 8,-19 14,-40 17,-61l2 0c-1,31 -8,60 -19,87 -11,27 -27,48 -46,62 -11,-5 -20,-13 -29,-24 -8,-10 -16,-22 -22,-36 -7,-13 -12,-28 -16,-43 -4,-16 -7,-31 -8,-46l3 0c2,7 3,13 5,20 4,15 9,30 16,43 6,14 14,26 22,36 9,11 18,19 29,24zm-1897 1528l-223 729 11 -10 218 -714 -6 -5zm2364 -508c5,-8 10,-17 14,-25l-178 0c-246,417 -700,696 -1219,696 -571,0 -1064,-339 -1287,-826 -2,5 -4,10 -5,15 221,493 716,837 1292,837 519,0 973,-280 1219,-697l164 0zm-2327 -327c2,-13 1,-28 -5,-45 -5,-15 -8,-31 -9,-45 -2,23 2,46 9,71 2,6 4,13 5,19zm26 -209c6,-24 -4,-45 -30,-55 -18,-7 -39,-9 -59,-14l-6 -1c-11,5 -22,10 -33,19 13,2 26,5 39,8 20,4 41,6 59,14 16,6 26,16 30,29zm-11 -158c3,-13 1,-27 -6,-42 -5,-11 -11,-21 -16,-32l0 -1c-4,8 -4,17 0,27 5,11 11,21 16,32 3,5 5,11 6,16zm85 -186c5,-23 -4,-50 -28,-80 -15,-21 -33,-39 -51,-57 -27,-28 -56,-54 -82,-83 -26,-29 -43,-59 -47,-92 -5,43 15,82 47,118 26,29 55,55 82,83 18,18 36,36 51,56 16,20 25,39 28,55zm-190 -405c4,-59 -23,-244 -43,-351l-4 5c18,90 44,264 47,346zm2374 -253l15 0c-272,-465 -777,-777 -1355,-777 -867,0 -1571,703 -1571,1571l0 16c5,-863 707,-1561 1571,-1561 567,0 1064,300 1340,751zm-2658 1309c-61,-156 -96,-325 -97,-502l0 12c0,182 34,356 97,516 2,-4 4,-8 7,-12 23,-40 60,-50 104,-51 54,-2 107,-10 160,-15 8,-1 16,-4 24,-7 28,-11 33,-18 27,-44 -3,7 -12,12 -27,18 -8,3 -16,6 -24,7 -53,6 -106,14 -160,15 -44,1 -81,11 -104,52 -3,3 -5,7 -7,11zm236 -1059l0 1c-6,17 -14,33 -17,50 -2,16 -4,33 -2,49 0,-8 1,-16 2,-23 3,-17 11,-34 17,-50 1,-4 1,-13 0,-27zm185 404c-4,6 -13,11 -26,17 -8,3 -17,6 -25,9 -41,15 -60,56 -54,92 4,-28 23,-54 54,-66 8,-3 17,-6 25,-10 29,-12 37,-22 26,-42zm-87 186c-2,2 -5,3 -7,4 -18,7 -36,12 -54,21 -17,8 -36,16 -51,28 -14,12 -18,28 -12,41 3,-5 7,-10 12,-15 15,-12 34,-21 51,-29 18,-8 36,-13 54,-20 12,-6 17,-14 8,-27l-1 -3zm3 174c-22,32 -29,67 -27,103 2,-31 12,-60 34,-87 2,-2 3,-5 4,-7 1,-2 1,-3 1,-7 -4,-1 -8,-2 -12,-2zm1093 1468c-244,0 -476,-44 -690,-125l-247 181 23 9 224 -165c214,81 446,126 690,126 265,0 516,-52 743,-146 34,-23 67,-46 99,-70 -252,121 -538,190 -842,190zm-1209 -425c-381,-312 -622,-768 -628,-1278l0 10c0,514 242,975 624,1290l4 -22zm1266 -3013c56,2 111,6 165,12 -156,-43 -320,-66 -489,-66 -1015,0 -1838,823 -1838,1837l1 16c5,-1010 825,-1827 1837,-1827 110,0 219,10 324,28zm-909 1651c-7,-18 0,-34 22,-40 10,-3 28,3 36,11 74,76 109,168 106,272 -3,-94 -38,-176 -106,-246 -8,-9 -26,-15 -36,-12 -11,3 -18,9 -22,15zm1 488c-7,-13 -2,-29 14,-47 51,-57 79,-122 82,-201l0 11c0,86 -28,156 -82,216 -6,7 -11,14 -14,21zm383 -209l0 6c-2,-153 -39,-253 -107,-341 -13,-17 -27,-32 -42,-47 -15,-15 -33,-11 -47,1 -3,3 -5,6 -7,9 -6,-13 -4,-25 7,-35 14,-12 32,-16 47,-1 15,15 29,30 42,47 70,92 108,196 107,361zm-203 302c-7,-14 -1,-28 11,-41 45,-47 81,-100 101,-162 15,-48 23,-95 25,-141 1,54 -7,109 -25,167 -20,62 -56,115 -101,162 -4,5 -8,10 -11,15zm423 -349l0 7c-1,-83 -20,-163 -53,-240 -32,-72 -75,-137 -131,-193 -19,-20 -47,-18 -56,2 -2,-6 -3,-12 -2,-18 4,-27 36,-32 58,-10 56,56 99,121 131,193 36,83 54,169 53,259zm-242 443c-6,-11 -3,-24 7,-35 13,-17 29,-31 42,-48 82,-108 125,-222 127,-342 3,130 -39,252 -127,368 -13,17 -29,31 -42,47 -3,4 -5,7 -7,10zm1198 -261c2,7 5,13 8,18 7,13 17,23 30,29 7,-1 14,-1 21,-1l44 0 0 26 -44 0c-7,0 -14,0 -21,1 -13,-6 -23,-16 -30,-29 -7,-13 -12,-27 -13,-44l5 0zm62 -112c-1,-4 -1,-8 -1,-13 0,-9 2,-18 6,-26 3,-7 8,-14 14,-19 7,-5 14,-10 22,-12 9,-3 18,-5 27,-5 10,0 19,2 27,5 9,3 16,7 22,12 6,6 11,12 15,20 3,8 5,16 5,25 0,5 0,10 -1,13 -1,-4 -2,-8 -4,-12 -4,-8 -9,-14 -15,-20 -6,-5 -13,-10 -22,-12 -8,-3 -17,-5 -27,-5 -9,0 -18,1 -27,4 -8,3 -15,7 -22,13 -6,5 -11,12 -14,19 -2,4 -4,8 -5,13zm95 15l-2 -2 0 -1c1,1 1,2 2,3zm-52 -4l1 2 -2 2c0,-1 1,-2 1,-4zm218 290c4,0 9,0 13,0 6,6 11,14 15,23 -5,1 -9,2 -14,2 -5,1 -10,1 -14,1 -19,0 -33,-2 -41,-8 -9,-5 -14,-11 -14,-19 0,-5 2,-10 6,-13 2,2 4,5 8,7 8,5 22,7 41,7z"/>
  </g>
 </g>
</svg>
