<?xml version="1.0" encoding="UTF-8"?>
<!DOCTYPE svg PUBLIC "-//W3C//DTD SVG 1.1//EN" "http://www.w3.org/Graphics/SVG/1.1/DTD/svg11.dtd">
<!-- Creator: CorelDRAW X7 -->
<svg xmlns="http://www.w3.org/2000/svg" xml:space="preserve" width="484px" height="611px" version="1.1" style="shape-rendering:geometricPrecision; text-rendering:geometricPrecision; image-rendering:optimizeQuality; fill-rule:evenodd; clip-rule:evenodd"
viewBox="0 0 17330 21869"
 xmlns:xlink="http://www.w3.org/1999/xlink">
 <defs>
  <style type="text/css">
   <![CDATA[
    .fil3 {fill:none}
    .fil20 {fill:#4D4D4E}
    .fil5 {fill:#666666}
    .fil13 {fill:#A6A6A6}
    .fil22 {fill:white}
    .fil15 {fill:#4D4D4D;fill-rule:nonzero}
    .fil18 {fill:#4D4D4D;fill-rule:nonzero}
    .fil6 {fill:#FAFAFA;fill-rule:nonzero}
    .fil17 {fill:#FEFEFE;fill-rule:nonzero}
    .fil10 {fill:white;fill-rule:nonzero}
    .fil1 {fill:#FFF0D4;fill-rule:nonzero;fill-opacity:0.501961}
    .fil11 {fill:url(#id0)}
    .fil4 {fill:url(#id1)}
    .fil14 {fill:url(#id2)}
    .fil8 {fill:url(#id3)}
    .fil0 {fill:url(#id4)}
    .fil2 {fill:url(#id5)}
    .fil9 {fill:url(#id6)}
    .fil12 {fill:url(#id7)}
    .fil21 {fill:url(#id8)}
    .fil7 {fill:url(#id9)}
    .fil16 {fill:url(#id10);fill-rule:nonzero}
    .fil19 {fill:url(#id11);fill-rule:nonzero}
   ]]>
  </style>
  <linearGradient id="id0" gradientUnits="userSpaceOnUse" x1="8665.17" y1="8598.26" x2="8665.17" y2="13532.8">
   <stop offset="0" style="stop-opacity:1; stop-color:#A6A6A6"/>
   <stop offset="1" style="stop-opacity:1; stop-color:#E8EEF7"/>
  </linearGradient>
  <linearGradient id="id1" gradientUnits="userSpaceOnUse" x1="8697.59" y1="767.776" x2="8697.59" y2="17291.8">
   <stop offset="0" style="stop-opacity:1; stop-color:#D0D5E0"/>
   <stop offset="0.0901961" style="stop-opacity:1; stop-color:#BECAD5"/>
   <stop offset="0.180392" style="stop-opacity:1; stop-color:#AEB1C4"/>
   <stop offset="0.611765" style="stop-opacity:1; stop-color:#6D7D85"/>
   <stop offset="1" style="stop-opacity:1; stop-color:#ABBEC9"/>
  </linearGradient>
  <linearGradient id="id2" gradientUnits="userSpaceOnUse" x1="8665.17" y1="3797.58" x2="8566.43" y2="11679.7">
   <stop offset="0" style="stop-opacity:1; stop-color:#F0F5FF"/>
   <stop offset="1" style="stop-opacity:1; stop-color:#A9BCC7"/>
  </linearGradient>
  <linearGradient id="id3" gradientUnits="userSpaceOnUse" x1="16151.7" y1="7256.47" x2="16160.2" y2="9725.07">
   <stop offset="0" style="stop-opacity:1; stop-color:#F7F7F7"/>
   <stop offset="1" style="stop-opacity:1; stop-color:#BDBDBD"/>
  </linearGradient>
  <linearGradient id="id4" gradientUnits="userSpaceOnUse" x1="13096.5" y1="15877.5" x2="8729.04" y2="16509.9">
   <stop offset="0" style="stop-opacity:1; stop-color:red"/>
   <stop offset="1" style="stop-opacity:1; stop-color:#B00205"/>
  </linearGradient>
  <linearGradient id="id5" gradientUnits="userSpaceOnUse" x1="4354.4" y1="17317.3" x2="7873.76" y2="15074.4">
   <stop offset="0" style="stop-opacity:1; stop-color:#B00205"/>
   <stop offset="1" style="stop-opacity:1; stop-color:red"/>
  </linearGradient>
  <linearGradient id="id6" gradientUnits="userSpaceOnUse" x1="8688.76" y1="2915.98" x2="8688.76" y2="14945.2">
   <stop offset="0" style="stop-opacity:1; stop-color:#EDEDED"/>
   <stop offset="0.411765" style="stop-opacity:1; stop-color:#B8B8B8"/>
   <stop offset="1" style="stop-opacity:1; stop-color:#CCCCCC"/>
  </linearGradient>
  <linearGradient id="id7" gradientUnits="userSpaceOnUse" x1="8683.39" y1="4228.86" x2="8683.39" y2="13511.2">
   <stop offset="0" style="stop-opacity:1; stop-color:#D0D5E0"/>
   <stop offset="0.180392" style="stop-opacity:1; stop-color:#BECAD5"/>
   <stop offset="0.490196" style="stop-opacity:1; stop-color:#6D7D85"/>
   <stop offset="1" style="stop-opacity:1; stop-color:#ABBEC9"/>
  </linearGradient>
  <linearGradient id="id8" gradientUnits="userSpaceOnUse" x1="8228.53" y1="11693.3" x2="8228.7" y2="5388.81">
   <stop offset="0" style="stop-opacity:1; stop-color:#AFB1B1"/>
   <stop offset="0.709804" style="stop-opacity:1; stop-color:#D0D2D3"/>
   <stop offset="1" style="stop-opacity:1; stop-color:#F2F4F5"/>
  </linearGradient>
  <linearGradient id="id9" gradientUnits="userSpaceOnUse" xlink:href="#id3" x1="1443.7" y1="7256.47" x2="1452.24" y2="9725.07">
  </linearGradient>
  <linearGradient id="id10" gradientUnits="userSpaceOnUse" x1="8061.02" y1="2085.9" x2="8061.02" y2="837.098">
   <stop offset="0" style="stop-opacity:1; stop-color:#C8CCD9"/>
   <stop offset="0.619608" style="stop-opacity:1; stop-color:#E3E5EC"/>
   <stop offset="1" style="stop-opacity:1; stop-color:white"/>
  </linearGradient>
  <radialGradient id="id11" gradientUnits="userSpaceOnUse" gradientTransform="matrix(2.43002E-017 0.396852 -0.91868 -2.67971E-005 22456 11484)" cx="8724.64" cy="14946.5" r="4864.03" fx="8724.64" fy="14946.5">
   <stop offset="0" style="stop-opacity:1; stop-color:#FEFEFE"/>
   <stop offset="0.780392" style="stop-opacity:1; stop-color:#E5E5E5"/>
   <stop offset="1" style="stop-opacity:1; stop-color:#CCCDCD"/>
  </radialGradient>
 </defs>
 <g id="Layer_x0020_1">
  <metadata id="CorelCorpID_0Corel-Layer"/>
  <g id="_896633832">
   <g>
    <path class="fil0" d="M8557 16799l-825 169 -228 47 -154 31 -138 28 -66 14 -19 4 65 114 1371 2380 1255 2180c71,110 153,136 252,47l1696 -2069c45,-86 113,-148 233,-159l2628 -438c172,-11 213,-97 121,-261l-1592 -2809 -54 -94 -8 -14 -29 -51 -21 -38 -28 6 -227 46 -122 25 -77 16 -4033 826z"/>
    <path class="fil1" d="M12657 16089l65 -37 -75 -129 -64 37 74 129zm-5164 942l-65 37 75 129 64 -37 -74 -129zm149 259l-65 37 74 129 65 -37 -74 -129zm148 258l-64 37 74 130 65 -38 -75 -129zm149 259l-65 37 75 129 64 -37 -74 -129zm149 258l-65 38 74 129 65 -37 -74 -130zm148 259l-64 37 74 129 64 -37 -74 -129zm149 259l-65 37 74 129 65 -37 -74 -129zm148 258l-64 37 74 130 65 -37 -75 -130zm149 259l-65 37 75 129 64 -37 -74 -129zm149 258l-65 38 74 129 65 -37 -74 -130zm148 259l-64 37 74 129 65 -37 -75 -129zm149 259l-65 37 75 129 64 -37 -74 -129zm149 258l-65 37 74 130 65 -37 -74 -130zm148 259l-65 37 75 129 64 -37 -74 -129zm149 258l-65 38 74 129 65 -37 -74 -130zm148 259l-64 37 74 129 65 -37 -75 -129zm149 258l-65 38 74 129 65 -37 -74 -130zm91 217l57 48 95 -115 -57 -48 -95 115zm191 -229l57 48 96 -115 -58 -48 -95 115zm191 -229l57 48 96 -115 -57 -48 -96 115zm191 -229l57 48 96 -115 -57 -47 -96 114zm191 -229l57 48 96 -115 -57 -47 -96 114zm191 -229l58 48 95 -115 -57 -47 -96 114zm192 -229l57 48 95 -114 -57 -48 -95 114zm191 -229l57 48 95 -114 -57 -48 -95 114zm191 -229l57 48 96 -114 -58 -48 -95 114zm191 -229l11 10 27 47 142 -23 -12 -73 -156 25 -12 14zm315 -63l12 74 147 -24 -11 -74 -148 24zm295 -47l12 73 147 -23 -12 -74 -147 24zm294 -47l12 73 147 -23 -11 -74 -148 24zm295 -47l12 73 147 -23 -12 -74 -147 24zm294 -48l12 74 148 -24 -12 -73 -148 23zm295 -47l12 74 147 -24 -12 -73 -147 23zm294 -47l12 74 147 -24 -11 -74 -148 24zm295 -47l12 74 147 -24 -12 -74 -147 24zm243 -3l65 -38 -75 -129 -64 38 74 129zm-149 -258l64 -38 -75 -129 -64 38 75 129zm-150 -259l65 -37 -75 -129 -65 37 75 129zm-149 -258l64 -37 -75 -129 -64 37 75 129zm-150 -258l65 -37 -75 -129 -65 37 75 129zm-149 -258l64 -37 -75 -129 -64 37 75 129zm-150 -258l65 -37 -75 -129 -65 37 75 129zm-150 -258l65 -37 -75 -129 -64 37 74 129zm-149 -258l64 -37 -74 -129 -65 37 75 129zm-150 -258l65 -37 -75 -129 -64 37 74 129zm-149 -258l64 -37 -74 -129 -65 37 75 129z"/>
    <path class="fil2" d="M4080 15882c-568,1002 -1136,2004 -1704,3007 -92,163 -51,250 121,261 876,146 1752,292 2628,438 120,11 188,73 233,158 566,690 1131,1379 1696,2069 99,89 181,63 252,-47 897,-1558 1794,-3116 2691,-4674 -1972,-404 -3944,-808 -5917,-1212z"/>
    <path class="fil1" d="M4447 16051l-65 -37 75 -129 65 37 -75 129zm5164 942l65 37 -75 129 -64 -37 74 -129zm-149 258l65 37 -74 130 -65 -37 74 -130zm-148 259l64 37 -74 129 -65 -37 75 -129zm-149 259l65 37 -75 129 -64 -37 74 -129zm-149 258l65 37 -74 130 -65 -38 74 -129zm-148 259l65 37 -75 129 -64 -37 74 -129zm-149 258l65 37 -74 130 -65 -37 74 -130zm-148 259l64 37 -74 129 -65 -37 75 -129zm-149 259l65 37 -75 129 -64 -37 74 -129zm-149 258l65 37 -74 130 -65 -38 74 -129zm-148 259l64 37 -74 129 -65 -37 75 -129zm-149 258l65 37 -74 130 -65 -37 74 -130zm-148 259l64 37 -74 129 -65 -37 75 -129zm-149 259l65 37 -75 129 -64 -37 74 -129zm-149 258l65 37 -74 130 -65 -38 74 -129zm-148 259l64 37 -74 129 -65 -37 75 -129zm-149 258l65 37 -74 130 -65 -38 74 -129zm-91 217l-57 47 -95 -114 57 -48 95 115zm-191 -229l-57 47 -96 -114 58 -48 95 115zm-191 -229l-57 47 -96 -114 57 -48 96 115zm-191 -229l-57 48 -96 -115 57 -48 96 115zm-191 -229l-57 48 -96 -115 57 -48 96 115zm-191 -229l-58 48 -95 -115 57 -48 96 115zm-192 -229l-57 48 -95 -115 57 -48 95 115zm-191 -229l-57 48 -95 -115 57 -47 95 114zm-191 -229l-57 48 -96 -115 58 -47 95 114zm-191 -229l-11 9 -27 48 -142 -23 12 -74 156 25 12 15zm-315 -63l-12 73 -147 -23 11 -74 148 24zm-295 -47l-12 73 -147 -23 12 -74 147 24zm-294 -48l-12 74 -147 -24 11 -73 148 23zm-295 -47l-12 74 -147 -24 12 -73 147 23zm-294 -47l-12 74 -147 -24 11 -74 148 24zm-295 -47l-12 74 -147 -24 12 -74 147 24zm-294 -47l-12 73 -147 -23 11 -74 148 24zm-295 -47l-12 73 -147 -23 12 -74 147 24zm-243 -4l-65 -37 75 -129 64 37 -74 129zm149 -258l-64 -37 75 -129 64 37 -75 129zm150 -258l-65 -37 75 -129 65 37 -75 129zm149 -258l-64 -37 75 -129 64 37 -75 129zm150 -258l-65 -37 75 -129 65 37 -75 129zm149 -258l-64 -37 75 -129 64 37 -75 129zm150 -258l-64 -37 74 -129 65 37 -75 129zm150 -258l-65 -37 75 -129 64 37 -74 129zm149 -258l-64 -37 74 -129 65 37 -75 129zm150 -258l-65 -37 75 -129 64 37 -74 129zm149 -258l-64 -37 74 -129 65 37 -75 129z"/>
   </g>
   <circle class="fil3" cx="8665" cy="8598" r="8598"/>
   <path class="fil4" d="M8665 0c4786,0 8665,3880 8665,8665 0,4786 -3879,8665 -8665,8665 -4785,0 -8665,-3879 -8665,-8665 0,-4785 3880,-8665 8665,-8665zm0 2363c3481,0 6302,2822 6302,6302 0,3481 -2821,6302 -6302,6302 -3480,0 -6302,-2821 -6302,-6302 0,-3480 2822,-6302 6302,-6302z"/>
   <path class="fil5" d="M1499 10114c-47,-238 -83,-477 -107,-718 -23,-241 -35,-484 -35,-726 0,-243 12,-485 35,-727 24,-241 60,-480 107,-717 8,-39 -17,-77 -56,-85 -39,-7 -77,18 -84,57 -48,241 -85,486 -109,731 -24,246 -36,493 -36,741 0,247 12,494 36,740 24,245 61,490 109,732 7,39 45,64 84,56 39,-8 64,-46 56,-84z"/>
   <path class="fil6" d="M8665 108c2363,0 4502,958 6051,2506 1548,1549 2506,3688 2506,6051 0,2363 -958,4502 -2506,6051 -1549,1548 -3688,2506 -6051,2506 -2363,0 -4502,-958 -6051,-2506 -1548,-1549 -2506,-3688 -2506,-6051 0,-2363 958,-4502 2506,-6051 1549,-1548 3688,-2506 6051,-2506zm5998 2559c-1535,-1535 -3656,-2484 -5998,-2484 -2342,0 -4463,949 -5998,2484 -1535,1535 -2484,3656 -2484,5998 0,2342 949,4463 2484,5998 1535,1535 3656,2485 5998,2485 2342,0 4463,-950 5998,-2485 1535,-1535 2485,-3656 2485,-5998 0,-2342 -950,-4463 -2485,-5998z"/>
   <path class="fil6" d="M8665 236c2328,0 4435,944 5960,2469 1526,1525 2469,3633 2469,5960 0,2328 -943,4435 -2469,5960 -1525,1526 -3632,2469 -5960,2469 -2327,0 -4435,-943 -5960,-2469 -1525,-1525 -2469,-3632 -2469,-5960 0,-2327 944,-4435 2469,-5960 1525,-1525 3633,-2469 5960,-2469zm5907 2522c-1511,-1512 -3600,-2447 -5907,-2447 -2307,0 -4395,935 -5907,2447 -1512,1512 -2447,3600 -2447,5907 0,2307 935,4396 2447,5907 1512,1512 3600,2447 5907,2447 2307,0 4396,-935 5907,-2447 1512,-1511 2447,-3600 2447,-5907 0,-2307 -935,-4395 -2447,-5907z"/>
   <path class="fil5" d="M15932 7226c48,237 84,477 107,717 24,242 36,484 36,727 0,242 -12,485 -36,726 -23,241 -59,480 -107,718 -7,39 18,76 57,84 39,8 76,-17 84,-56 48,-242 84,-487 108,-732 25,-246 37,-493 37,-740 0,-247 -12,-495 -37,-741 -24,-245 -60,-489 -108,-731 -8,-39 -45,-64 -84,-57 -39,8 -64,46 -57,85z"/>
   <path class="fil7" d="M1453 10109c-47,-237 -83,-477 -107,-718 -23,-241 -35,-483 -35,-726 0,-242 12,-485 35,-726 24,-241 60,-481 107,-718 8,-39 -17,-77 -56,-84 -39,-8 -77,17 -84,56 -49,242 -84,486 -109,732 -24,246 -36,493 -36,740 0,247 12,494 36,740 25,246 60,490 109,732 7,39 45,64 84,57 39,-8 64,-46 56,-85z"/>
   <path class="fil8" d="M15877 7221c47,237 83,477 107,718 24,241 35,484 35,726 0,243 -11,485 -35,726 -24,241 -60,481 -107,718 -8,39 18,77 56,85 39,7 77,-18 85,-57 48,-242 84,-486 108,-732 24,-246 37,-493 37,-740 0,-247 -13,-494 -37,-740 -24,-246 -60,-490 -108,-732 -8,-39 -46,-64 -85,-56 -38,7 -64,45 -56,84z"/>
   <circle class="fil9" cx="8665" cy="8665" r="6308"/>
   <path class="fil10" d="M13871 6630c-27,-70 -133,-53 -133,26 0,9 1,16 4,24 17,42 33,85 48,127 31,81 151,46 132,-40l-2 -7c-16,-44 -32,-87 -49,-130zm-10266 7c11,-30 2,-63 -25,-81 -38,-26 -85,-11 -103,30 -18,44 -34,87 -51,131 -27,70 67,129 120,66 4,-6 7,-12 10,-19 15,-42 32,-84 49,-127zm-214 646c20,-73 -82,-123 -126,-52 -4,6 -6,11 -8,18 -11,45 -23,90 -33,135 -19,84 104,122 133,35 12,-45 22,-91 34,-136zm-132 668c11,-83 -112,-112 -135,-25l-1 7c-7,46 -12,92 -17,138 -2,26 8,50 29,64 42,31 104,2 108,-49 5,-45 10,-90 16,-135zm-47 678c0,-73 -99,-97 -132,-28 -3,10 -5,18 -5,28 -1,46 0,93 0,139 4,88 130,91 138,3 1,-46 -1,-95 -1,-142zm39 679c-11,-84 -137,-79 -137,11 3,47 12,98 18,144 2,15 11,31 22,41 49,43 123,4 115,-61 -7,-45 -13,-90 -18,-135zm123 669c-24,-85 -151,-57 -135,31 11,46 24,93 36,138 21,77 139,62 136,-23 -1,-5 -1,-9 -3,-14 -12,-44 -23,-88 -34,-132zm205 649c-26,-68 -130,-53 -134,23 0,10 2,18 5,27 17,44 34,87 52,130 14,32 49,49 82,39 40,-10 61,-55 45,-92 -17,-42 -34,-85 -50,-127zm283 619c-40,-74 -152,-25 -126,55 2,3 3,7 5,10 22,41 45,82 67,122 35,64 140,34 128,-46 -1,-8 -4,-15 -8,-22 -22,-33 -47,-83 -66,-119zm358 578c-41,-60 -141,-19 -123,57 3,9 6,15 11,23 27,38 54,76 82,113 51,65 152,4 118,-71 -2,-4 -4,-8 -7,-12 -28,-36 -54,-73 -81,-110zm428 529c-55,-57 -148,6 -112,79 3,6 6,10 10,15 32,34 64,68 96,101 58,58 153,-13 106,-87 -2,-3 -4,-6 -7,-9 -32,-32 -63,-66 -93,-99zm490 472c-45,-40 -119,-3 -113,58 1,18 11,35 24,47 36,30 72,60 108,89 33,26 79,18 102,-17 18,-29 11,-70 -16,-91 -35,-28 -70,-57 -105,-86zm546 406c-30,-19 -67,-13 -90,13 -27,31 -20,81 15,103 39,25 78,50 118,74 63,40 140,-40 87,-104 -4,-5 -9,-9 -15,-13 -39,-24 -77,-48 -115,-73zm592 335c-73,-35 -137,63 -73,116 4,3 8,6 13,8 42,21 84,40 126,60 77,33 135,-71 68,-120 -4,-2 -7,-4 -11,-6 -42,-19 -83,-38 -123,-58zm629 260c-80,-25 -129,83 -56,126 4,1 7,3 11,4 44,15 88,30 133,44 76,24 127,-84 54,-126 -4,-2 -9,-4 -13,-6 -43,-13 -86,-27 -129,-42zm656 180c-71,-16 -118,81 -51,126 8,5 14,7 23,9 45,9 91,18 137,26 80,15 116,-100 36,-132 -4,-1 -8,-2 -12,-3 -44,-8 -89,-17 -133,-26zm673 96c-79,-7 -106,108 -25,135 5,1 9,2 14,3 47,3 93,6 140,9 77,3 102,-104 27,-134 -7,-2 -13,-4 -21,-4 -45,-2 -90,-6 -135,-9zm680 11c-77,3 -91,114 -15,135 8,2 14,3 22,3 46,-2 93,-5 139,-8 84,-8 86,-130 -1,-138 -3,0 -6,0 -9,0 -45,3 -91,6 -136,8zm676 -74c-79,15 -74,133 11,137 5,0 9,0 13,-1 46,-8 92,-16 137,-26 88,-19 65,-147 -24,-135 -46,8 -91,17 -137,25zm662 -157c-82,26 -53,149 34,133 46,-12 95,-29 140,-44 69,-22 60,-130 -21,-134 -9,0 -15,1 -23,3 -43,15 -87,29 -130,42zm637 -239c-69,30 -45,139 37,132 7,-1 13,-3 20,-6 42,-19 84,-38 126,-58 16,-8 28,-20 35,-36 23,-59 -37,-116 -94,-89 -41,20 -82,39 -124,57zm603 -315c-70,44 -19,150 59,124 5,-2 8,-4 13,-6 40,-24 79,-49 118,-74 62,-39 27,-137 -48,-126 -10,2 -17,4 -26,10 -39,24 -77,49 -116,72zm559 -388c-59,46 -9,145 67,119 7,-3 13,-6 19,-11 36,-29 73,-58 108,-88 21,-18 30,-45 22,-71 -13,-49 -72,-67 -110,-35 -35,30 -71,58 -106,86zm506 -454c-55,55 13,148 85,107 5,-3 9,-7 14,-11 32,-33 64,-67 96,-101 56,-63 -24,-151 -92,-102 -3,3 -6,5 -9,8 -31,33 -62,66 -94,99zm445 -515c-45,58 24,141 93,100 7,-5 12,-10 17,-17 28,-37 56,-74 83,-112 48,-69 -43,-146 -104,-90 -3,3 -6,7 -8,10 -27,37 -54,73 -81,109zm377 -566c-42,77 65,145 117,74 25,-40 48,-85 71,-127 39,-70 -57,-141 -113,-77 -3,4 -6,7 -8,11 -22,40 -44,79 -67,119zm304 -609c-30,72 65,134 118,70 4,-6 7,-10 9,-16 18,-43 35,-86 53,-129 29,-76 -73,-131 -120,-65 -3,5 -6,9 -8,14 -18,40 -34,85 -52,126zm227 -641c-9,30 3,61 30,77 38,24 90,4 102,-40 13,-45 25,-90 37,-135 18,-67 -70,-118 -121,-60 -6,9 -10,16 -13,27 -11,43 -23,87 -35,131zm144 -665c-10,74 85,109 126,48 5,-9 9,-17 10,-27 7,-46 14,-92 20,-139 10,-76 -99,-110 -132,-35 -3,6 -4,12 -5,18 -6,45 -12,90 -19,135zm61 -677c-3,72 99,99 131,31 4,-10 6,-17 7,-28 1,-47 1,-93 2,-140 0,-71 -96,-96 -131,-30 -5,10 -7,19 -7,30 0,46 -1,91 -2,137zm-25 -680c7,77 122,86 137,3 1,-6 1,-11 1,-17 -4,-46 -10,-93 -16,-139 -10,-82 -133,-79 -137,8 0,3 0,6 0,9 6,45 11,91 15,136zm-108 -672c18,81 143,66 135,-24l-1 -7c-10,-45 -21,-90 -32,-135 -24,-86 -151,-57 -135,30 11,46 23,91 33,136z"/>
   <path class="fil11" d="M8665 2339c1747,0 3329,708 4474,1853 1145,1144 1853,2726 1853,4473 0,1747 -708,3329 -1853,4474 -1145,1145 -2727,1853 -4474,1853 -1747,0 -3329,-708 -4473,-1853 -1145,-1145 -1853,-2727 -1853,-4474 0,-1747 708,-3329 1853,-4473 1144,-1145 2726,-1853 4473,-1853zm0 74c3453,0 6252,2799 6252,6252 0,3453 -2799,6252 -6252,6252 -3453,0 -6252,-2799 -6252,-6252 0,-3453 2799,-6252 6252,-6252z"/>
   <circle class="fil12" cx="8665" cy="8665" r="4868"/>
   <path class="fil13" d="M8665 2337c3490,0 6319,2825 6319,6308 0,27 0,53 -1,79 -42,-3448 -2854,-6230 -6318,-6230 -3464,0 -6276,2782 -6318,6230 0,-26 -1,-52 -1,-79 0,-3483 2829,-6308 6319,-6308z"/>
   <path class="fil3" d="M8682 3389c2914,0 5276,2362 5276,5276 0,2914 -2362,5276 -5276,5276 -2914,0 -5276,-2362 -5276,-5276 0,-2914 2362,-5276 5276,-5276z"/>
   <path class="fil14" d="M8665 3803c1343,0 2558,544 3438,1424 880,880 1424,2096 1424,3438 0,1343 -544,2558 -1424,3438 -880,880 -2095,1424 -3438,1424 -1342,0 -2558,-544 -3438,-1424 -880,-880 -1424,-2095 -1424,-3438 0,-1342 544,-2558 1424,-3438 880,-880 2096,-1424 3438,-1424zm0 75c2644,0 4788,2143 4788,4787 0,2644 -2144,4788 -4788,4788 -2644,0 -4787,-2144 -4787,-4788 0,-2644 2143,-4787 4787,-4787z"/>
  </g>
  <path class="fil3" d="M15217 8665c0,3619 -2933,6552 -6552,6552 -3618,0 -6551,-2933 -6551,-6552"/>
  <path class="fil3" d="M15505 8665c0,3778 -3062,6840 -6840,6840 -3777,0 -6839,-3062 -6839,-6840"/>
  <g id="_896638896">
   <path class="fil15" d="M5109 2030c31,54 52,108 64,160 13,52 18,99 17,140 32,12 63,29 91,51 29,23 54,51 74,87 27,46 42,93 44,142 3,48 -6,95 -26,142 -21,46 -52,91 -94,134 -42,43 -95,82 -159,119 -61,36 -122,62 -181,78 -59,17 -107,23 -145,20 -27,-2 -47,-8 -63,-17 -15,-9 -27,-22 -37,-39 -13,-22 -17,-45 -14,-71 4,-25 13,-47 27,-66 40,6 88,7 142,1 54,-5 113,-27 176,-63 74,-43 122,-91 143,-145 21,-54 19,-103 -7,-148 -4,-8 -9,-14 -14,-20 -4,-7 -9,-12 -15,-16 -8,40 -28,80 -61,120 -32,40 -74,76 -127,106 -40,23 -79,40 -116,50 -38,11 -74,15 -108,11 -34,-3 -65,-13 -92,-30 -28,-17 -51,-41 -69,-73 -36,-62 -41,-124 -17,-186 25,-62 77,-116 156,-162 52,-30 101,-49 150,-58 48,-9 91,-12 129,-7 -5,-22 -13,-46 -23,-72 -11,-27 -23,-52 -36,-77l-585 338c-22,13 -41,15 -57,7 -16,-8 -31,-24 -45,-48 -6,-10 -11,-22 -17,-38 -6,-16 -9,-29 -9,-40l877 -508c20,-11 38,-13 54,-4 15,8 30,24 43,47 6,11 12,25 18,41 5,15 9,28 10,37l-98 57zm-238 564c28,-16 53,-37 73,-61 21,-25 36,-53 44,-84 -32,-7 -64,-8 -98,-2 -33,6 -62,16 -86,31 -28,15 -45,33 -52,52 -7,20 -6,37 3,53 10,18 26,29 45,31 20,3 44,-4 71,-20zm585 -765l243 421c-9,7 -20,17 -34,29 -15,12 -31,23 -48,33 -35,20 -65,30 -92,29 -26,0 -50,-20 -73,-59l-195 -338 -77 45c-22,12 -40,15 -56,8 -15,-8 -30,-23 -44,-47 -6,-10 -12,-24 -17,-40 -6,-16 -9,-30 -11,-41l397 -229c20,-12 39,-14 55,-6 16,8 30,23 44,47 6,11 12,24 18,40 6,16 10,29 10,38l-120 70zm1125 -400l257 768c-8,6 -21,13 -38,22 -17,9 -35,17 -54,23 -38,13 -70,16 -96,10 -26,-7 -46,-31 -60,-72l-83 -250 -287 95c29,169 -8,271 -112,306 -39,13 -77,12 -112,-3 -35,-16 -60,-39 -77,-71 29,-39 45,-90 51,-151 5,-62 -6,-133 -32,-213 -11,-31 -25,-67 -44,-108 -19,-41 -40,-76 -62,-105l-117 39c-24,8 -43,6 -57,-5 -14,-11 -26,-29 -35,-56 -3,-11 -6,-24 -9,-41 -2,-16 -3,-30 0,-41l1011 -338c22,-8 41,-6 55,5 14,11 25,29 34,55 4,13 8,27 10,43 3,17 3,30 2,39l-145 49zm-132 329l-86 -256 -306 102c13,20 24,41 36,63 11,23 22,45 32,67 11,22 20,43 28,63 9,20 16,38 21,53l275 -92zm-150 492c-10,-31 -9,-61 5,-88 14,-28 37,-47 71,-59 33,-11 63,-9 90,5 27,14 46,36 56,67 11,31 9,61 -4,89 -13,28 -36,48 -69,59 -33,11 -64,9 -92,-5 -28,-14 -47,-37 -57,-68zm704 -962l154 460c-10,6 -23,13 -40,22 -16,9 -34,17 -52,23 -39,13 -71,16 -96,10 -26,-5 -46,-30 -60,-72l-124 -370 -84 28c-24,8 -43,7 -57,-4 -13,-10 -25,-28 -33,-54 -4,-12 -7,-26 -9,-43 -3,-17 -3,-31 -2,-42l434 -145c23,-7 41,-6 55,5 14,11 25,29 34,55 4,12 7,26 10,43 3,17 3,30 2,40l-132 44zm1332 309l-275 21c-13,171 -75,260 -184,269 -41,3 -77,-7 -107,-31 -30,-23 -50,-52 -58,-87 37,-31 66,-76 86,-135 20,-58 27,-129 21,-213 -2,-33 -8,-72 -16,-116 -9,-44 -20,-83 -35,-117l-122 9c-25,2 -43,-4 -54,-18 -11,-14 -18,-35 -20,-64 -1,-11 0,-24 1,-41 2,-16 5,-30 9,-40l1037 -79c25,-2 43,4 53,18 11,14 17,35 19,62 1,13 1,28 -1,45 -1,16 -3,29 -6,38l-153 12 61 808c-10,3 -24,6 -43,11 -19,5 -38,8 -57,9 -41,3 -73,-1 -96,-14 -24,-12 -37,-40 -40,-84l-20 -263zm-14 -180l-20 -270 -296 23c7,22 13,45 19,70 6,24 11,48 15,72 5,23 9,46 12,68 3,22 6,41 7,57l263 -20zm1178 589c-39,-3 -69,-12 -90,-28 -22,-16 -31,-46 -27,-89l21 -277 -278 -21c-19,89 -47,154 -84,195 -37,42 -83,60 -136,56 -47,-3 -82,-19 -106,-46 -24,-28 -36,-59 -38,-94 41,-26 77,-66 105,-122 29,-55 47,-125 53,-209 3,-34 4,-74 3,-119 -1,-44 -6,-83 -16,-117l-124 -9c-25,-2 -42,-11 -51,-26 -9,-16 -12,-38 -10,-66 1,-11 3,-24 7,-41 4,-16 9,-29 14,-38l342 26c10,19 21,44 30,73 10,29 19,62 26,100 7,37 12,78 14,122 3,44 3,89 -1,136l263 20 25 -325c3,-34 12,-58 29,-73 16,-15 42,-21 77,-18l232 18c24,2 40,10 49,26 9,15 12,37 10,64 -1,13 -4,27 -8,44 -5,16 -9,28 -13,36l-152 -11 -62 808c-11,1 -26,3 -45,5 -20,1 -39,2 -59,0zm1226 -595l-123 531c-20,86 -63,148 -130,187 -68,38 -160,44 -277,17 -60,-14 -114,-36 -163,-65 -49,-29 -89,-64 -120,-106 -31,-41 -53,-88 -65,-140 -13,-51 -12,-107 2,-166 21,-91 64,-154 129,-190 64,-35 145,-42 242,-19l245 56 36 -156 -588 -136c-25,-6 -40,-17 -46,-34 -7,-16 -7,-38 0,-66 2,-11 7,-24 13,-39 6,-16 13,-27 21,-36l957 221c44,10 59,43 47,99 -3,12 -8,26 -14,42 -7,15 -13,27 -19,34l-147 -34zm-492 550c42,10 76,8 100,-7 24,-14 39,-37 47,-69l44 -193 -201 -47c-42,-9 -74,-5 -98,13 -24,18 -39,43 -47,74 -6,29 -7,57 -1,83 6,25 16,48 31,67 15,20 34,37 55,50 22,14 45,23 70,29zm937 316c-109,-43 -190,-102 -243,-177 -54,-75 -79,-156 -77,-243 39,-27 76,-61 110,-101 34,-40 61,-86 81,-138 7,-16 13,-33 18,-51 5,-18 9,-36 11,-54l-107 -42c-23,-9 -37,-22 -40,-40 -4,-17 -1,-39 10,-65 4,-11 10,-23 18,-37 9,-14 18,-25 26,-32l1005 395c22,9 35,22 38,39 3,17 0,38 -10,64 -5,12 -12,25 -20,40 -9,14 -16,24 -22,31l-142 -56 -297 755c-10,-2 -24,-5 -43,-9 -19,-4 -38,-9 -56,-17 -38,-14 -65,-32 -80,-54 -16,-21 -16,-52 0,-93l29 -73c-28,2 -61,-1 -99,-9 -38,-8 -74,-19 -110,-33zm95 -171c37,15 72,23 105,26 32,3 60,2 84,-3l46 -119 -337 -132c-11,12 -22,23 -33,32 -12,10 -24,19 -37,28 6,25 22,54 49,87 27,32 68,60 123,81zm-19 -368l313 123 53 -135 -322 -126c-4,17 -9,34 -14,52 -4,19 -10,35 -16,51l-14 35zm1625 648c-37,60 -81,116 -131,166 -50,51 -104,92 -162,125 2,54 -3,106 -16,158 -13,51 -30,95 -51,132 -28,49 -57,76 -87,83 -31,7 -64,0 -100,-20 -17,-10 -34,-22 -49,-35 -16,-14 -27,-27 -34,-42 9,-11 17,-23 25,-36 9,-13 17,-26 25,-41 9,-16 19,-34 30,-53 11,-20 20,-41 28,-63 -43,11 -91,12 -143,4 -53,-9 -106,-28 -159,-59 -47,-27 -85,-57 -116,-90 -31,-34 -54,-70 -68,-108 -14,-38 -20,-76 -17,-115 3,-40 16,-78 38,-116 22,-39 50,-69 82,-92 32,-22 68,-37 107,-43 39,-6 81,-5 125,6 44,10 88,28 133,53 52,30 95,67 129,111 34,44 58,90 73,139 25,-25 48,-54 71,-86 22,-33 43,-65 63,-96l-615 -355c-22,-13 -34,-28 -35,-46 -1,-17 6,-39 20,-63 5,-10 13,-21 24,-34 10,-13 21,-22 30,-28l932 538c21,12 32,27 33,45 1,17 -5,38 -19,62 -6,11 -14,23 -24,35 -10,11 -20,21 -29,28l-113 -64zm-706 168c35,20 72,30 110,29 39,0 74,-8 104,-23 -1,-38 -13,-73 -35,-107 -22,-35 -49,-61 -81,-80 -38,-21 -73,-30 -104,-26 -31,4 -54,19 -69,44 -15,27 -17,55 -4,84 13,29 39,56 79,79z"/>
   <path class="fil16" d="M5109 1983c31,55 52,108 64,160 13,52 18,99 17,140 32,12 63,29 91,52 29,22 54,51 74,86 27,46 42,94 44,142 3,48 -6,96 -26,142 -21,47 -52,92 -94,134 -42,43 -95,83 -159,120 -61,35 -122,61 -181,78 -59,16 -107,23 -145,19 -27,-2 -47,-8 -63,-16 -15,-9 -27,-22 -37,-39 -13,-22 -17,-46 -14,-71 4,-26 13,-47 27,-66 40,6 88,6 142,1 54,-6 113,-27 176,-64 74,-43 122,-91 143,-145 21,-54 19,-103 -7,-147 -4,-8 -9,-15 -14,-21 -4,-6 -9,-11 -15,-16 -8,40 -28,80 -61,121 -32,40 -74,75 -127,106 -40,23 -79,40 -116,50 -38,10 -74,14 -108,11 -34,-3 -65,-13 -92,-30 -28,-17 -51,-42 -69,-74 -36,-61 -41,-123 -17,-185 25,-63 77,-117 156,-163 52,-29 101,-49 150,-58 48,-9 91,-11 129,-7 -5,-22 -13,-46 -23,-72 -11,-26 -23,-52 -36,-77l-585 339c-22,12 -41,15 -57,7 -16,-8 -31,-24 -45,-49 -6,-9 -11,-22 -17,-37 -6,-16 -9,-29 -9,-41l877 -507c20,-12 38,-13 54,-5 15,9 30,25 43,47 6,12 12,25 18,41 5,16 9,28 10,38l-98 56zm-238 565c28,-17 53,-37 73,-62 21,-24 36,-52 44,-84 -32,-7 -64,-7 -98,-1 -33,6 -62,16 -86,30 -28,16 -45,34 -52,53 -7,19 -6,37 3,53 10,18 26,28 45,31 20,2 44,-5 71,-20zm585 -765l243 420c-9,7 -20,17 -34,29 -15,12 -31,24 -48,33 -35,21 -65,30 -92,30 -26,-1 -50,-20 -73,-59l-195 -338 -77 44c-22,13 -40,15 -56,8 -15,-7 -30,-23 -44,-46 -6,-11 -12,-24 -17,-41 -6,-16 -9,-29 -11,-40l397 -229c20,-12 39,-14 55,-7 16,8 30,24 44,48 6,10 12,23 18,39 6,16 10,29 10,39l-120 70zm1125 -401l257 769c-8,5 -21,12 -38,21 -17,10 -35,17 -54,24 -38,12 -70,16 -96,9 -26,-6 -46,-30 -60,-72l-83 -250 -287 96c29,169 -8,271 -112,305 -39,14 -77,12 -112,-3 -35,-15 -60,-39 -77,-70 29,-40 45,-90 51,-152 5,-62 -6,-132 -32,-212 -11,-31 -25,-67 -44,-108 -19,-41 -40,-76 -62,-106l-117 39c-24,8 -43,7 -57,-4 -14,-11 -26,-30 -35,-57 -3,-10 -6,-24 -9,-40 -2,-17 -3,-30 0,-41l1011 -339c22,-7 41,-6 55,5 14,11 25,30 34,56 4,12 8,26 10,43 3,16 3,29 2,39l-145 48zm-132 330l-86 -257 -306 103c13,20 24,41 36,63 11,22 22,44 32,66 11,22 20,43 28,63 9,21 16,38 21,54l275 -92zm-150 491c-10,-31 -9,-60 5,-88 14,-28 37,-47 71,-58 33,-11 63,-10 90,4 27,14 46,37 56,68 11,31 9,61 -4,89 -13,28 -36,47 -69,58 -33,11 -64,10 -92,-5 -28,-14 -47,-37 -57,-68zm704 -962l154 461c-10,5 -23,13 -40,22 -16,9 -34,16 -52,23 -39,12 -71,16 -96,10 -26,-6 -46,-30 -60,-73l-124 -370 -84 28c-24,8 -43,7 -57,-3 -13,-11 -25,-29 -33,-55 -4,-11 -7,-25 -9,-42 -3,-18 -3,-31 -2,-42l434 -145c23,-8 41,-6 55,4 14,11 25,30 34,56 4,11 7,25 10,42 3,17 3,30 2,40l-132 44zm1332 309l-275 21c-13,171 -75,261 -184,269 -41,3 -77,-7 -107,-30 -30,-24 -50,-53 -58,-87 37,-32 66,-76 86,-135 20,-59 27,-130 21,-214 -2,-33 -8,-71 -16,-115 -9,-45 -20,-84 -35,-118l-122 9c-25,2 -43,-4 -54,-18 -11,-14 -18,-35 -20,-63 -1,-11 0,-25 1,-41 2,-17 5,-30 9,-41l1037 -78c25,-2 43,4 53,18 11,14 17,34 19,62 1,13 1,28 -1,44 -1,17 -3,30 -6,38l-153 12 61 808c-10,3 -24,7 -43,12 -19,4 -38,7 -57,9 -41,3 -73,-2 -96,-14 -24,-13 -37,-41 -40,-84l-20 -264zm-14 -180l-20 -269 -296 22c7,23 13,46 19,70 6,24 11,48 15,72 5,24 9,47 12,68 3,22 6,41 7,57l263 -20zm1178 590c-39,-3 -69,-13 -90,-29 -22,-16 -31,-45 -27,-89l21 -276 -278 -21c-19,88 -47,153 -84,195 -37,41 -83,60 -136,56 -47,-4 -82,-19 -106,-47 -24,-27 -36,-59 -38,-94 41,-25 77,-66 105,-121 29,-55 47,-125 53,-209 3,-35 4,-75 3,-119 -1,-45 -6,-84 -16,-117l-124 -10c-25,-2 -42,-10 -51,-26 -9,-15 -12,-37 -10,-66 1,-10 3,-24 7,-40 4,-16 9,-29 14,-39l342 26c10,20 21,44 30,73 10,30 19,63 26,100 7,38 12,78 14,122 3,44 3,90 -1,137l263 20 25 -326c3,-33 12,-58 29,-72 16,-15 42,-21 77,-18l232 17c24,2 40,11 49,26 9,16 12,37 10,64 -1,13 -4,28 -8,44 -5,16 -9,28 -13,37l-152 -12 -62 808c-11,2 -26,3 -45,5 -20,2 -39,2 -59,1zm1226 -595l-123 530c-20,87 -63,149 -130,187 -68,39 -160,44 -277,17 -60,-14 -114,-35 -163,-64 -49,-29 -89,-65 -120,-106 -31,-42 -53,-88 -65,-140 -13,-52 -12,-107 2,-167 21,-91 64,-154 129,-189 64,-36 145,-42 242,-20l245 57 36 -157 -588 -136c-25,-5 -40,-17 -46,-33 -7,-17 -7,-39 0,-67 2,-10 7,-23 13,-39 6,-15 13,-27 21,-35l957 221c44,10 59,43 47,98 -3,13 -8,27 -14,42 -7,16 -13,27 -19,35l-147 -34zm-492 549c42,10 76,8 100,-6 24,-14 39,-37 47,-69l44 -194 -201 -46c-42,-10 -74,-5 -98,13 -24,18 -39,42 -47,73 -6,30 -7,58 -1,83 6,26 16,48 31,68 15,20 34,36 55,50 22,13 45,23 70,28zm937 316c-109,-42 -190,-101 -243,-176 -54,-75 -79,-157 -77,-244 39,-27 76,-60 110,-100 34,-40 61,-86 81,-138 7,-17 13,-34 18,-52 5,-18 9,-35 11,-53l-107 -42c-23,-10 -37,-23 -40,-40 -4,-18 -1,-39 10,-66 4,-10 10,-22 18,-36 9,-15 18,-25 26,-33l1005 395c22,9 35,22 38,39 3,18 0,39 -10,64 -5,13 -12,26 -20,40 -9,14 -16,25 -22,32l-142 -56 -297 754c-10,-2 -24,-4 -43,-8 -19,-4 -38,-10 -56,-17 -38,-15 -65,-33 -80,-54 -16,-22 -16,-53 0,-94l29 -73c-28,2 -61,-1 -99,-9 -38,-8 -74,-19 -110,-33zm95 -170c37,14 72,23 105,26 32,3 60,2 84,-3l46 -119 -337 -133c-11,12 -22,23 -33,33 -12,9 -24,19 -37,28 6,24 22,53 49,86 27,33 68,60 123,82zm-19 -369l313 123 53 -134 -322 -127c-4,17 -9,35 -14,53 -4,18 -10,35 -16,50l-14 35zm1625 648c-37,61 -81,116 -131,167 -50,50 -104,92 -162,124 2,54 -3,107 -16,158 -13,52 -30,96 -51,133 -28,48 -57,76 -87,83 -31,7 -64,0 -100,-21 -17,-10 -34,-21 -49,-35 -16,-13 -27,-27 -34,-41 9,-11 17,-23 25,-36 9,-13 17,-27 25,-41 9,-16 19,-34 30,-54 11,-20 20,-40 28,-62 -43,10 -91,11 -143,3 -53,-8 -106,-28 -159,-58 -47,-27 -85,-57 -116,-91 -31,-34 -54,-69 -68,-107 -14,-38 -20,-77 -17,-116 3,-39 16,-78 38,-116 22,-38 50,-69 82,-91 32,-23 68,-37 107,-44 39,-6 81,-4 125,6 44,10 88,28 133,54 52,30 95,67 129,111 34,43 58,90 73,138 25,-25 48,-53 71,-86 22,-32 43,-64 63,-96l-615 -355c-22,-12 -34,-28 -35,-45 -1,-18 6,-39 20,-64 5,-9 13,-20 24,-33 10,-13 21,-22 30,-28l932 538c21,12 32,26 33,44 1,18 -5,39 -19,62 -6,12 -14,23 -24,35 -10,12 -20,22 -29,29l-113 -65zm-706 168c35,20 72,30 110,30 39,-1 74,-8 104,-24 -1,-37 -13,-73 -35,-107 -22,-34 -49,-60 -81,-79 -38,-22 -73,-31 -104,-27 -31,4 -54,19 -69,45 -15,26 -17,54 -4,84 13,29 39,55 79,78z"/>
   <path class="fil10" d="M5109 1983l4 7c-12,-9 -23,-22 -33,-40 -6,-10 -12,-24 -17,-40 -6,-16 -9,-30 -11,-41l11 -6c5,17 11,30 17,41 14,23 29,39 44,46 16,7 34,5 56,-8l16 -9 0 0 -87 50zm19 36c21,42 36,84 45,124 13,52 18,99 17,140 32,12 63,29 91,52 29,22 54,51 74,86 27,46 42,94 44,142 1,14 1,27 0,40 -4,-46 -18,-91 -44,-135 -20,-36 -45,-64 -74,-87 -28,-22 -59,-39 -91,-51 1,-41 -4,-88 -17,-140 -12,-52 -33,-106 -64,-160l19 -11zm-447 950c-2,-12 -3,-25 -1,-39 4,-26 13,-47 27,-66 40,6 88,6 142,1 54,-6 113,-27 176,-64 74,-43 122,-91 143,-145 6,-16 10,-31 13,-47 4,30 0,61 -13,94 -21,54 -69,102 -143,145 -63,36 -122,58 -176,63 -54,6 -102,5 -142,-1 -13,17 -21,37 -26,59zm-152 -399c-4,-33 0,-66 13,-99 25,-63 77,-117 156,-163 52,-29 101,-49 150,-58 42,-8 81,-10 115,-8 6,17 11,33 14,48 -38,-5 -81,-2 -129,7 -49,9 -98,28 -150,58 -79,46 -131,100 -156,162 -7,18 -11,35 -13,53zm-315 -216l0 0c-6,-16 -9,-29 -9,-41l877 -507c20,-12 38,-13 54,-5 5,3 10,7 15,11l298 -172c20,-12 39,-14 55,-6 16,8 30,23 44,47 6,10 12,23 18,38l10 -6c0,-10 -4,-23 -10,-39 -6,-16 -12,-29 -18,-39 -14,-24 -28,-40 -44,-48 -16,-7 -35,-5 -55,7l-397 229c2,11 5,24 11,40l-849 491zm657 194c28,-17 53,-37 73,-62 11,-12 20,-26 27,-40 6,1 11,2 17,3 -8,31 -23,59 -44,84 -20,24 -45,45 -73,61 -27,16 -51,23 -71,20 -19,-2 -35,-13 -45,-31 -9,-16 -10,-33 -3,-53 1,3 2,5 3,7 10,18 26,28 45,31 20,2 44,-5 71,-20zm605 -730l223 385 -18 16 -225 -390 20 -11zm1119 -394l243 727 -13 7 -244 -729 14 -5zm-368 599c3,29 4,55 2,79 -1,-24 -4,-49 -9,-77l7 -2zm-293 211c-6,-7 -10,-15 -15,-23 29,-40 45,-90 51,-152l0 -8c1,19 1,37 0,55 -5,50 -16,93 -36,128zm-319 -658l-1 -5c-2,-17 -3,-30 0,-41l1011 -339c22,-7 41,-6 55,5 6,5 11,11 16,18l338 -113c23,-7 41,-6 55,5 14,11 25,29 34,55 3,10 6,23 9,37l3 -1c1,-10 1,-23 -2,-40 -3,-17 -6,-31 -10,-42 -9,-26 -20,-45 -34,-56 -14,-10 -32,-12 -55,-4l-434 145c-1,11 -1,24 2,42l0 3 -987 331zm1108 -241l-95 32c-7,-10 -12,-22 -17,-36 -4,-12 -7,-26 -9,-43 -3,-17 -3,-31 -2,-42l2 0c2,15 5,28 9,38 8,26 20,44 33,55 14,10 33,11 57,3l22 -7 0 0zm-643 262c4,8 9,16 13,24 11,22 22,44 32,66 11,22 20,43 28,63 9,21 16,38 21,54l261 -87 14 41 -275 92c-5,-15 -12,-33 -21,-53 -8,-20 -17,-41 -28,-63 -10,-22 -21,-44 -32,-67 -12,-22 -23,-43 -36,-63l23 -7zm215 591c-6,-26 -2,-50 9,-73 14,-28 37,-47 71,-58 33,-11 63,-10 90,4 27,14 46,37 56,68 8,22 9,43 5,63 -1,-5 -3,-11 -5,-17 -10,-31 -29,-53 -56,-67 -27,-14 -57,-16 -90,-5 -34,12 -57,31 -71,59 -4,8 -7,17 -9,26zm722 -905l140 419 -13 7 -141 -421 14 -5zm707 475c-6,-11 -10,-23 -13,-35 37,-32 66,-76 86,-135 14,-39 21,-83 23,-133 2,69 -5,129 -23,179 -18,52 -42,93 -73,124zm-152 -681l-1 -8c-1,-11 0,-25 1,-41 2,-17 5,-30 9,-41l1037 -78c25,-2 43,4 53,18 11,14 17,34 19,62 1,12 1,26 0,41 -3,-25 -9,-44 -19,-57 -10,-14 -28,-20 -53,-18l-1037 79c-4,10 -7,24 -9,40l0 3zm961 52l58 762 -3 1 -58 -762 3 -1zm-515 40l6 24c6,24 11,48 15,72 5,24 9,47 12,68 3,22 6,41 7,57l260 -19 3 46 -263 20c-1,-16 -4,-35 -7,-57 -3,-22 -7,-45 -12,-68 -4,-24 -9,-48 -15,-72 -6,-25 -12,-48 -19,-70l13 -1zm1364 711c-1,-11 -1,-24 0,-38l17 -230 4 0 -21 268zm-613 -183c-5,-14 -7,-27 -8,-42 41,-25 77,-66 105,-121 29,-55 47,-125 53,-209 2,-19 3,-40 3,-62 1,40 0,76 -3,108 -6,84 -24,154 -53,209 -27,52 -59,91 -97,117zm-47 -672c-2,-11 -2,-23 -1,-38 1,-10 3,-24 7,-40 4,-16 9,-29 14,-39l342 26c10,20 21,44 30,73 10,30 19,63 26,100 7,38 12,78 14,122 2,27 3,54 2,81 0,-11 -1,-23 -2,-34 -2,-44 -7,-85 -14,-122 -7,-38 -16,-71 -26,-100 -9,-29 -20,-54 -30,-73l-342 -26c-5,9 -10,22 -14,38 -3,13 -5,23 -6,32zm434 341l260 20 25 -326c3,-33 12,-58 29,-72 16,-15 42,-21 77,-18l232 17c24,2 40,11 49,26 9,16 12,37 10,64l-1 10c-2,-11 -5,-20 -9,-27 -9,-16 -25,-24 -49,-26l-232 -18c-35,-3 -61,3 -77,18 -17,15 -26,39 -29,73l-25 325 -263 -20c1,-15 2,-31 3,-46zm683 371c-3,-37 1,-75 10,-115 21,-91 64,-154 129,-189 64,-36 145,-42 242,-20l245 57 26 -113 10 3 -36 156 -245 -56c-97,-23 -178,-16 -242,19 -65,36 -108,99 -129,190 -6,23 -9,46 -10,68zm25 -601c-3,-15 -3,-35 3,-59 2,-10 7,-23 13,-39 6,-15 13,-27 21,-35l957 221c42,9 58,39 48,89 -5,-22 -21,-37 -48,-43l-957 -221c-8,9 -15,20 -21,36 -6,15 -11,28 -13,39 -1,4 -2,8 -3,12zm369 778c42,10 76,8 100,-6 24,-14 39,-37 47,-69l34 -149 10 2 -44 193c-8,32 -23,55 -47,69 -24,15 -58,17 -100,7 -25,-6 -48,-15 -70,-29 -21,-13 -40,-30 -55,-50 -15,-19 -25,-42 -31,-67 -4,-19 -5,-39 -3,-61 1,5 2,10 3,14 6,26 16,48 31,68 15,20 34,36 55,50 22,13 45,23 70,28zm619 -58c-2,-15 -2,-30 -2,-46 39,-27 76,-60 110,-100 34,-40 61,-86 81,-138 7,-17 13,-34 18,-52l3 -10 8 3c-2,18 -6,36 -11,54 -5,18 -11,35 -18,51 -20,52 -47,98 -81,138 -34,40 -70,73 -108,100zm72 -465c0,-2 -1,-4 -1,-6 -4,-18 -1,-39 10,-66 4,-10 10,-22 18,-36 9,-15 18,-25 26,-33l1005 395c22,9 35,22 38,39 2,12 2,25 -2,39 -5,-13 -17,-24 -36,-31l-1005 -395c-8,7 -17,18 -26,32 -8,14 -14,26 -18,37 -4,9 -7,17 -9,25zm417 1030c-6,-20 -3,-45 9,-76l11 -26c6,0 12,0 18,0l-29 73c-4,10 -7,20 -9,29zm-76 -361c37,14 72,23 105,26 32,3 60,2 84,-3l31 -79 15 6 -46 119c-24,5 -52,6 -84,3 -33,-3 -68,-11 -105,-26 -55,-21 -96,-49 -123,-81 -27,-33 -43,-62 -49,-87l15 -10c8,15 20,32 34,50 27,33 68,60 123,82zm-3 -363l297 117 37 -94 16 6 -53 135 -313 -123 14 -35 2 -6zm995 1234c-7,-8 -12,-16 -16,-24 9,-11 17,-23 25,-36 9,-13 17,-27 25,-41 9,-16 19,-34 30,-54l6 -11c7,-2 15,-3 22,-5 -8,22 -17,43 -28,63 -11,19 -21,37 -30,53 -8,15 -16,28 -25,41 -3,5 -6,10 -9,14zm-410 -542c-2,-14 -2,-29 -1,-44 3,-39 16,-78 38,-116 22,-38 50,-69 82,-91 32,-23 68,-37 107,-44 39,-6 81,-4 125,6 44,10 88,28 133,54 52,30 95,67 129,111 34,43 58,90 73,138 25,-25 48,-53 71,-86 14,-21 28,-41 41,-62l22 13c-20,31 -41,63 -63,96 -23,32 -46,61 -71,86 -15,-49 -39,-95 -73,-139 -34,-44 -77,-81 -129,-111 -45,-25 -89,-43 -133,-53 -44,-11 -86,-12 -125,-6 -39,6 -75,21 -107,43 -32,23 -60,53 -82,92 -22,37 -34,75 -37,113zm175 -552c-3,-5 -4,-11 -5,-16 -1,-18 6,-39 20,-64 5,-9 13,-20 24,-33 10,-13 21,-22 30,-28l932 538c21,12 32,26 33,44 1,9 -1,19 -4,30 -5,-10 -15,-20 -29,-28l-932 -538c-9,6 -20,15 -30,28 -11,13 -19,24 -24,34 -7,12 -12,23 -15,33zm143 670c35,20 72,30 110,30 36,-1 69,-7 98,-21 3,15 5,29 6,44 -30,15 -65,23 -104,23 -38,1 -75,-9 -110,-29 -40,-23 -66,-50 -79,-79 -9,-21 -11,-42 -5,-62 1,5 3,10 5,16 13,29 39,55 79,78z"/>
   <path class="fil17" d="M7811 3097c7,39 9,77 6,112 -3,34 -10,65 -21,92 17,14 31,31 44,51 12,20 20,43 25,69 6,33 4,64 -4,92 -9,29 -24,55 -45,78 -22,23 -49,42 -82,58 -33,16 -72,28 -116,36 -44,8 -85,10 -122,7 -37,-3 -66,-9 -88,-20 -26,-12 -41,-29 -45,-50 -2,-14 0,-27 8,-39 7,-13 16,-22 27,-29 21,14 49,26 83,34 34,8 74,9 119,1 56,-10 97,-30 123,-60 26,-30 36,-63 29,-98 -2,-15 -8,-29 -15,-41 -16,25 -39,47 -67,64 -28,17 -61,29 -99,36 -29,5 -55,6 -80,4 -24,-2 -46,-8 -64,-17 -19,-9 -34,-22 -47,-37 -12,-16 -20,-34 -24,-56 -7,-43 3,-80 31,-111 28,-32 70,-52 125,-62 37,-7 72,-7 104,-1 32,6 60,16 83,28 3,-16 4,-35 3,-57 -1,-21 -3,-43 -6,-64l-436 77c-14,3 -24,0 -31,-6 -7,-7 -11,-17 -14,-33 -1,-6 -2,-13 -2,-22 0,-8 1,-16 3,-22l635 -113c12,-2 22,1 29,8 7,7 11,18 14,33 1,6 1,13 1,22 0,8 -1,15 -2,21l-82 15zm-252 302c24,-4 46,-13 67,-25 20,-12 36,-28 48,-49 -18,-13 -40,-22 -65,-27 -25,-5 -48,-6 -69,-2 -25,5 -43,13 -54,24 -11,12 -15,26 -12,41 3,16 11,27 26,34 15,7 34,8 59,4zm498 -346l54 309c-5,2 -12,5 -22,8 -9,4 -18,6 -28,8 -21,4 -38,3 -51,-3 -12,-5 -21,-19 -25,-41l-46 -260 -68 12c-24,4 -39,-8 -44,-38 -1,-7 -2,-14 -2,-23 0,-8 0,-16 1,-22l284 -50c24,-5 38,8 44,39 1,6 2,13 2,22 0,9 -1,16 -2,22l-97 17zm379 -30l-13 530c-5,1 -13,2 -23,3 -11,1 -20,2 -30,2 -22,-1 -38,-5 -50,-13 -11,-8 -16,-23 -16,-44l12 -480 -71 -2c-14,0 -24,-4 -29,-12 -6,-8 -8,-19 -8,-34 0,-7 1,-14 3,-23 2,-8 4,-15 7,-22l99 3 2 -87c1,-64 21,-113 58,-147 37,-33 88,-49 151,-47 33,1 62,6 87,15 25,9 46,21 63,36 17,15 30,33 39,52 8,19 12,40 12,61 -1,27 -7,46 -18,58 -12,13 -28,18 -48,18 -12,0 -22,-2 -32,-5 -11,-4 -19,-8 -25,-12 1,-6 2,-12 2,-19 1,-7 1,-14 1,-21 1,-24 -6,-44 -22,-60 -15,-15 -36,-23 -62,-24 -25,-1 -46,7 -61,22 -16,16 -24,41 -25,76l-2 87 76 2c14,0 23,4 29,12 5,7 8,19 7,34 0,7 -1,14 -2,23 -2,8 -4,15 -6,21l-105 -3zm641 16l-12 529c-6,1 -14,2 -24,3 -10,1 -20,2 -29,2 -22,-1 -38,-5 -50,-13 -11,-8 -16,-23 -16,-44l5 -188 -214 -5c-9,57 -24,99 -45,125 -21,27 -47,40 -77,39 -22,0 -40,-7 -54,-21 -14,-14 -22,-29 -24,-48 23,-17 43,-43 59,-79 16,-35 25,-83 27,-145 0,-24 -1,-51 -3,-83 -2,-31 -7,-59 -14,-84l-88 -2c-24,0 -36,-16 -35,-46 0,-7 1,-14 2,-22 2,-9 4,-16 6,-22l665 16c13,0 22,4 28,13 5,8 8,20 7,33 0,7 -1,15 -2,23 -2,9 -4,16 -6,21l-106 -2zm-332 187l208 5 4 -195 -229 -6c6,29 11,60 14,94 3,34 4,63 3,87l0 15zm11 248c0,-19 7,-34 20,-46 13,-12 29,-18 48,-17 20,0 35,7 47,19 12,12 18,28 18,47 -1,19 -7,34 -20,46 -12,13 -28,19 -48,18 -19,0 -35,-7 -47,-20 -13,-13 -18,-28 -18,-47zm776 -381c13,36 39,67 77,93 38,26 83,44 135,53l24 4c1,6 2,11 2,17 1,6 1,13 -1,21 -2,16 -10,28 -21,36 -12,8 -29,10 -52,6 -7,-1 -15,-3 -24,-5 -8,-2 -17,-5 -26,-8l-78 122c-16,-14 -34,-27 -54,-37 -20,-11 -41,-18 -63,-22 -26,-5 -50,-3 -73,4 -22,7 -39,19 -51,36 11,31 32,58 62,80 30,23 67,38 110,45 42,8 78,8 108,2 29,-7 54,-15 72,-26 11,6 19,15 25,26 6,11 8,23 6,35 -4,20 -16,36 -38,47 -19,11 -45,18 -79,21 -34,3 -73,1 -117,-7 -42,-7 -79,-19 -112,-35 -32,-16 -60,-35 -83,-57 -22,-22 -40,-47 -54,-73 -14,-27 -22,-55 -27,-83 13,-22 29,-40 47,-56 19,-15 39,-28 60,-38 21,-9 44,-15 69,-18 24,-3 48,-2 73,2 16,3 30,7 42,12 13,5 24,10 33,16l25 -40c-37,-22 -69,-49 -94,-81 -26,-32 -43,-71 -53,-115l-160 -29c-24,-4 -34,-21 -28,-51 1,-7 3,-14 5,-22 3,-8 6,-14 9,-20l612 108c24,4 33,21 28,51 -1,7 -3,15 -6,23 -3,8 -6,14 -9,19l-321 -56zm347 605c-21,-4 -37,-11 -47,-20 -10,-10 -13,-25 -9,-46l84 -473 -70 -13c-14,-2 -23,-7 -27,-16 -4,-8 -5,-20 -2,-34 1,-7 3,-14 6,-22 3,-8 6,-15 10,-21l100 18 16 -88c6,-32 2,-58 -12,-77 -14,-19 -34,-30 -60,-35 -26,-5 -48,0 -64,13 -16,14 -26,32 -30,54 -1,7 -2,14 -3,21 -1,7 -2,13 -2,19 -7,3 -16,5 -26,6 -11,2 -22,1 -33,-1 -20,-3 -35,-12 -44,-27 -9,-14 -11,-34 -6,-60 3,-22 11,-41 23,-58 13,-17 28,-32 48,-43 19,-11 42,-19 68,-23 26,-5 55,-4 88,2 62,11 109,36 139,75 31,40 41,91 30,153l-16 89 73 13c14,3 23,8 27,17 4,8 5,20 2,35 -1,6 -3,13 -5,22 -3,8 -5,15 -8,20l-104 -18 -92 521c-6,0 -14,0 -24,0 -10,-1 -20,-2 -30,-3z"/>
  </g>
  <path class="fil3" d="M15217 8665c0,3619 -2933,6552 -6552,6552 -3618,0 -6551,-2933 -6551,-6552"/>
  <g id="_896641944">
   <path class="fil18" d="M13353 14151l236 299c-5,5 -11,12 -19,21 -8,9 -16,17 -26,25 -20,16 -39,25 -56,26 -16,1 -33,-9 -50,-30l-198 -252 -51 40 -73 58c27,37 48,76 61,118 14,42 19,81 15,117 27,-1 56,4 87,15 31,12 59,33 84,65 28,35 44,70 50,106 6,36 3,72 -8,108 -11,36 -30,71 -57,105 -27,34 -59,66 -98,96 -44,35 -84,60 -120,76 -36,15 -67,24 -93,26 -24,2 -43,1 -57,-5 -13,-6 -25,-14 -33,-25 -12,-15 -18,-31 -17,-47 2,-16 6,-30 14,-42 12,1 25,1 41,0 17,-1 34,-4 54,-8 20,-5 41,-13 63,-24 23,-10 46,-25 70,-44 28,-22 49,-44 64,-65 16,-22 25,-43 29,-63 4,-21 3,-40 -2,-58 -5,-19 -14,-35 -26,-51 -13,-16 -28,-29 -44,-37 -17,-9 -33,-13 -48,-11 -14,23 -31,45 -51,67 -20,23 -43,44 -69,64 -52,41 -94,64 -126,70 -32,5 -57,-5 -77,-29 -8,-11 -14,-23 -18,-35 -3,-13 -4,-24 -2,-33l259 -195c2,-24 -3,-51 -16,-80 -13,-29 -29,-58 -49,-86l-369 291 227 349c35,54 46,109 32,165 -14,55 -57,107 -131,155 -38,24 -77,42 -117,52 -41,10 -81,13 -119,8 -39,-5 -76,-18 -110,-39 -35,-21 -65,-51 -90,-90 -37,-56 -49,-112 -35,-166 13,-54 52,-102 115,-143l172 -112 -79 -122 -403 262c20,46 36,94 47,143 12,56 17,108 16,158 35,24 67,52 94,85 28,33 50,66 65,98 19,37 25,66 19,85 -7,19 -22,35 -46,47 -12,6 -23,10 -36,13 -12,3 -23,5 -32,4 -4,-12 -9,-24 -15,-36 -6,-12 -12,-24 -19,-37 -7,-14 -15,-31 -26,-50 -10,-19 -22,-37 -36,-55 -10,34 -30,68 -59,102 -29,34 -66,62 -111,85 -36,17 -70,29 -104,34 -33,5 -64,4 -93,-2 -28,-7 -54,-19 -76,-37 -23,-18 -41,-42 -56,-70 -14,-30 -22,-59 -23,-88 0,-29 5,-57 17,-83 12,-27 30,-52 54,-75 23,-23 52,-43 87,-60 45,-22 90,-34 135,-36 45,-2 87,5 126,18 -5,-29 -14,-61 -27,-96 -13,-35 -27,-67 -42,-97l-501 248c-15,7 -28,7 -39,1l-225 89 45 113c37,-6 74,-6 110,-2 36,4 70,14 102,28 31,15 59,36 84,61 26,26 46,58 61,96 14,34 21,67 21,98 1,30 -3,58 -12,83 -8,24 -20,45 -36,63 -16,17 -33,29 -52,37 -24,10 -45,10 -63,0 -17,-9 -30,-24 -38,-45l-3 -8c8,-7 16,-16 25,-27 9,-11 16,-24 21,-39 6,-15 8,-32 9,-51 0,-19 -5,-41 -14,-64 -10,-24 -23,-44 -41,-60 -18,-17 -38,-29 -60,-38 -22,-8 -45,-13 -70,-15 -24,-1 -47,2 -70,8 -21,11 -40,25 -57,43 -16,18 -30,37 -39,59 -10,21 -15,44 -17,68 -1,23 3,47 12,71 9,22 20,41 34,55 13,13 27,24 41,32 14,7 29,12 43,14 14,2 26,3 37,2l3 9c8,19 9,38 5,57 -4,18 -19,33 -44,43 -19,7 -40,10 -64,9 -24,-1 -47,-7 -70,-19 -24,-11 -46,-29 -67,-51 -22,-23 -40,-53 -54,-89 -15,-38 -22,-74 -21,-110 0,-36 7,-70 19,-102 12,-32 30,-62 53,-90 23,-28 50,-52 79,-73l-45 -113 -167 66c0,5 0,8 -1,12l-65 15 -50 20 84 362c-7,3 -15,7 -26,12 -11,5 -23,8 -34,11 -26,6 -46,6 -62,0 -16,-6 -27,-22 -33,-48l-72 -313 -175 41 54 233c6,26 5,46 -3,59 -9,14 -26,23 -52,29l-334 77c11,41 26,74 46,98 19,25 41,43 65,56 25,12 51,18 78,20 28,1 56,-1 84,-8 24,-5 44,-12 61,-20 16,-9 31,-17 43,-27 12,-10 22,-20 30,-31 8,-10 15,-20 22,-29 15,1 29,8 42,18 13,10 22,23 25,39 7,26 -2,53 -26,80 -16,19 -38,35 -66,51 -28,15 -64,27 -106,37 -44,10 -88,14 -131,13 -44,-2 -84,-12 -122,-29 -38,-18 -72,-45 -104,-81 -31,-35 -56,-83 -76,-141 -24,2 -46,-4 -68,-17 -21,-12 -35,-33 -41,-62 -8,-36 -3,-67 17,-93 19,-27 47,-44 84,-53 17,-4 32,-5 47,-3 15,1 26,4 35,9l21 63 279 -65 -44 -191 -389 90c-1,10 -3,18 -5,25l-126 9 49 641c-7,2 -16,5 -28,7 -12,3 -24,5 -36,6 -26,2 -47,-1 -61,-10 -15,-8 -23,-25 -25,-51l-44 -581 -185 14 34 450c5,64 -10,115 -45,154 -35,39 -91,62 -168,68 -42,3 -81,-1 -118,-13 -37,-12 -69,-29 -97,-53 -28,-24 -50,-53 -67,-88 -17,-34 -27,-74 -31,-117 -5,-70 10,-126 46,-168 36,-42 89,-65 159,-70l154 -12 -11 -140 -319 24c-2,8 -4,15 -6,20l-128 -4 -22 642c-7,2 -16,3 -29,4 -12,2 -24,2 -36,2 -25,-1 -45,-7 -59,-16 -14,-10 -20,-28 -20,-54l11 -312 -161 -5 -9 268c-13,6 -30,10 -52,14 -21,3 -46,5 -73,4 -87,-3 -162,-24 -225,-64 -64,-39 -108,-93 -134,-163 23,-29 42,-65 58,-106 15,-42 24,-85 25,-131 1,-17 0,-34 -1,-53 -2,-19 -4,-37 -8,-55l-108 -3c-29,-1 -43,-21 -42,-58 0,-7 1,-16 3,-26 1,-10 4,-19 8,-27l744 25c0,-7 1,-13 1,-20 2,-55 -28,-84 -88,-86 -17,-1 -36,-1 -55,0 -20,0 -40,0 -58,0 -63,-3 -109,-18 -139,-46 -30,-28 -44,-63 -43,-105 2,-34 11,-57 28,-71 18,-13 37,-20 58,-19 10,1 20,3 29,6 9,4 17,8 24,14 -2,4 -4,10 -5,17 -1,7 -2,13 -2,18 -1,46 27,71 85,73 19,0 39,-1 62,-3 22,-2 43,-3 61,-2 55,2 99,17 131,44 32,28 47,66 46,114 -1,17 -4,33 -8,49 -2,6 -3,11 -5,16l889 -67 739 -171 25 -6 277 -64 650 -258c11,-5 21,-5 30,-3l634 -314c9,-5 17,-6 24,-6l506 -329c12,-8 25,-10 36,-7l414 -326 274 -216c24,-18 47,-13 70,16 5,6 10,14 15,23 5,9 9,18 11,24l-95 75zm-9194 746c-16,-4 -37,-11 -63,-22 -26,-11 -52,-26 -77,-46 -70,-52 -116,-110 -139,-173 -23,-63 -26,-125 -8,-186 34,-11 68,-27 102,-49 33,-22 63,-49 88,-83 10,-13 19,-27 28,-41 8,-15 14,-28 17,-39l-81 -62c-23,-17 -24,-41 -1,-71 4,-6 10,-12 18,-19 7,-8 14,-13 21,-18l200 151c-4,26 -13,55 -26,88 -13,33 -32,67 -57,100 -31,41 -62,71 -93,91 -32,20 -59,35 -81,45 -2,23 4,50 17,82 14,32 39,62 75,89 28,21 54,36 78,43 24,8 45,12 62,13l230 -305c15,-20 30,-31 46,-34 15,-3 33,3 54,18l134 102c3,2 6,4 8,7l380 226c-4,-9 -8,-18 -14,-28 -14,-26 -32,-52 -53,-78 -21,-26 -45,-50 -70,-72 -25,-23 -51,-42 -77,-58 2,-16 7,-29 14,-41 12,-20 27,-31 45,-36 19,-4 40,1 63,15 25,15 48,34 69,58 21,25 39,51 55,78 16,28 29,56 38,85 9,29 15,56 17,81l4 3c11,-35 15,-70 14,-104 -2,-35 -8,-67 -19,-98 -11,-31 -26,-61 -44,-88 -19,-27 -40,-52 -64,-73 1,-4 2,-8 4,-12 3,-4 5,-8 7,-12 12,-19 27,-30 46,-33 19,-3 38,2 59,14 26,16 49,39 71,70 21,32 36,68 45,110 9,42 11,87 4,136 -6,49 -25,98 -55,149 -4,8 -8,14 -13,21l163 96c3,2 6,4 8,6l549 245 113 50 44 -98c16,-37 19,-69 9,-95 -11,-26 -31,-45 -60,-58 -30,-14 -57,-15 -80,-4 -23,11 -40,29 -51,55 -4,7 -7,15 -10,23 -3,8 -6,15 -7,22 -9,1 -20,1 -33,0 -13,-2 -26,-5 -39,-11 -22,-10 -37,-25 -43,-45 -7,-19 -4,-44 10,-73 10,-24 25,-44 45,-61 19,-17 42,-29 68,-37 26,-7 56,-10 88,-7 32,2 66,12 102,28 70,31 118,75 143,130 24,56 21,119 -10,189l-45 101 75 33 646 178c13,3 23,10 28,19l143 27c5,16 10,35 14,59 4,23 6,50 7,79 2,29 1,59 -1,92 -2,33 -6,66 -12,99l-3 16 231 43 49 -261c4,-24 12,-41 25,-51 12,-10 31,-12 56,-7l165 30c29,6 40,27 33,63 -1,9 -4,18 -7,27 -4,10 -8,18 -11,24l-125 -23 -118 631c-7,1 -17,1 -30,0 -13,-1 -25,-2 -36,-4 -25,-5 -44,-13 -56,-25 -12,-11 -15,-30 -10,-56l43 -232 -239 -44c-23,68 -49,117 -81,146 -31,29 -64,40 -99,34 -28,-5 -49,-17 -61,-36 -13,-19 -19,-39 -17,-61 30,-17 59,-45 86,-85 27,-39 47,-96 61,-170 3,-15 5,-31 7,-48 3,-18 5,-35 6,-53 1,-18 2,-35 1,-52 0,-18 -1,-33 -3,-47l-104 -20c-17,-3 -28,-12 -33,-26l-240 -66 -32 117c33,18 62,39 89,65 26,25 47,53 63,84 17,30 27,64 31,99 5,36 2,74 -9,113 -10,36 -24,66 -42,91 -18,25 -38,44 -60,59 -21,15 -43,24 -66,28 -24,5 -45,4 -64,-1 -26,-7 -42,-20 -51,-38 -8,-18 -9,-38 -3,-59l2 -8c11,-1 23,-3 37,-7 14,-3 27,-10 40,-18 14,-9 26,-21 38,-36 11,-15 21,-35 27,-59 7,-25 8,-49 4,-73 -4,-24 -13,-46 -25,-66 -13,-20 -28,-38 -47,-54 -18,-15 -39,-27 -61,-36 -23,-4 -47,-4 -71,0 -24,4 -46,12 -67,23 -20,12 -38,26 -54,44 -15,19 -26,40 -33,64 -7,24 -9,45 -6,64 2,19 6,36 13,51 7,14 16,27 26,37 9,10 19,18 28,24l-3 9c-5,20 -15,36 -30,48 -15,13 -35,15 -61,8 -20,-5 -39,-16 -57,-31 -18,-15 -33,-34 -45,-57 -11,-24 -19,-51 -22,-82 -3,-31 0,-66 11,-103 10,-39 27,-73 49,-101 22,-28 48,-51 77,-69 29,-19 61,-32 96,-40 36,-9 71,-12 108,-11l32 -117 -175 -48 -5 4 -34 -15 -85 -23 -3 -1 -256 574c-7,-1 -17,-4 -28,-7 -12,-3 -24,-8 -34,-12 -24,-11 -41,-24 -50,-38 -9,-14 -8,-33 3,-57l237 -532 -78 -35 -1 -1 0 0 -1 0 -89 -40 -76 172c-11,24 -23,38 -37,44 -14,5 -34,2 -59,-9l-111 -50c-54,-24 -106,-33 -155,-25 -49,7 -89,28 -120,62 1,42 14,83 40,122 26,39 64,70 114,92 24,11 46,19 66,23 19,5 37,8 54,8 16,0 32,-1 46,-3 14,-3 27,-5 39,-8 11,10 19,23 23,38 4,14 3,29 -3,43 -7,14 -15,25 -25,33 -9,7 -24,12 -45,16 -23,5 -52,5 -86,-1 -35,-6 -74,-19 -119,-39 -83,-37 -146,-89 -191,-156 -45,-67 -64,-146 -57,-235 28,-32 58,-58 93,-78 34,-20 70,-33 109,-41 38,-7 78,-8 120,-3 41,6 82,18 123,36l69 31 58 -130 -348 -155 -1 1 -11 -6 -69 -31c-13,-6 -21,-14 -24,-25l-82 -48c-18,23 -37,45 -57,66 -20,22 -42,41 -66,58 14,17 26,37 37,59 11,22 18,46 22,72 4,26 3,53 -2,83 -5,29 -17,59 -36,91 -21,35 -44,61 -72,79 -27,19 -54,31 -82,37 -27,6 -54,7 -79,3 -25,-4 -46,-11 -63,-21 -21,-12 -33,-28 -37,-47 -4,-19 -1,-37 9,-54 2,-3 4,-6 6,-10 2,-4 5,-8 9,-10 13,4 27,8 43,10 16,3 32,2 49,-1 16,-3 33,-10 49,-21 17,-11 31,-28 44,-49 19,-32 27,-63 22,-93 -4,-29 -13,-54 -26,-74 -35,15 -70,25 -106,30 -35,5 -65,4 -90,-3 -17,-21 -32,-48 -46,-80 -13,-33 -22,-68 -27,-105 -24,-2 -50,2 -77,13 -27,12 -50,33 -68,63 -13,22 -21,42 -22,62 -2,20 -1,38 4,54 6,16 13,31 22,44 10,13 20,24 30,33 -1,4 -2,8 -4,12 -2,4 -4,7 -6,10 -10,17 -25,29 -43,34 -19,5 -38,2 -59,-11 -18,-10 -34,-25 -50,-46 -16,-20 -27,-43 -35,-70 -7,-27 -9,-57 -6,-90 3,-32 15,-66 36,-102 18,-30 39,-55 62,-73 22,-19 46,-33 69,-42 24,-10 48,-15 73,-16 24,-1 47,0 68,4 4,-30 10,-59 18,-88 9,-30 19,-57 29,-83l-64 -39 -1 1 -9 -6 -76 -46c-10,-6 -17,-13 -20,-22l-385 510c-6,-3 -15,-7 -25,-13 -11,-6 -21,-13 -31,-20 -20,-15 -33,-31 -39,-47 -6,-16 -1,-35 15,-56l63 -82zm672 188c19,-2 40,-7 61,-16 21,-9 42,-21 63,-37 21,-15 41,-32 60,-52 19,-19 36,-41 52,-64l-212 -126c-12,26 -22,52 -30,79 -7,28 -13,54 -15,81 -3,26 -2,51 1,75 4,23 10,43 20,60zm3582 1023c1,-25 7,-43 17,-52 11,-9 28,-14 53,-13l228 8 5 -161 -445 -15c4,18 7,37 9,57 3,21 3,38 3,52 -2,55 -10,102 -23,141 -14,39 -28,70 -43,93 12,26 35,49 68,68 34,19 74,29 121,31l7 -209zm858 286c56,-4 83,-34 78,-91l-14 -191 -128 10c-30,2 -54,14 -70,33 -16,20 -23,48 -20,83 2,26 7,48 17,68 10,20 21,37 36,51 14,14 30,24 47,30 18,6 35,9 54,7zm2638 -826c33,-17 60,-40 80,-70 20,-31 31,-60 35,-89 -14,-9 -29,-15 -46,-19 -17,-5 -34,-7 -52,-8 -17,-1 -35,1 -53,4 -17,4 -34,9 -49,17 -36,18 -60,40 -71,65 -11,25 -10,50 2,74 12,24 31,39 58,45 27,5 59,-1 96,-19zm778 -277c33,-21 52,-44 59,-68 6,-25 0,-50 -17,-77l-94 -144 -156 101c-30,20 -47,43 -51,69 -3,26 3,51 19,75 15,23 32,40 52,52 20,12 41,20 63,23 22,2 44,1 65,-4 22,-6 42,-15 60,-27z"/>
   <path class="fil19" d="M13353 14104l236 299c-5,6 -11,13 -19,22 -8,9 -16,17 -26,24 -20,17 -39,25 -56,27 -16,1 -33,-9 -50,-30l-198 -252 -51 40 -73 57c27,37 48,77 61,118 14,42 19,82 15,118 27,-2 56,3 87,15 31,11 59,33 84,65 28,34 44,69 50,106 6,36 3,72 -8,107 -11,36 -30,71 -57,105 -27,34 -59,67 -98,97 -44,34 -84,59 -120,75 -36,16 -67,25 -93,27 -24,2 -43,0 -57,-5 -13,-6 -25,-14 -33,-26 -12,-15 -18,-31 -17,-47 2,-16 6,-30 14,-41 12,0 25,0 41,0 17,-1 34,-4 54,-9 20,-5 41,-13 63,-23 23,-11 46,-25 70,-44 28,-22 49,-44 64,-66 16,-21 25,-42 29,-63 4,-20 3,-39 -2,-58 -5,-18 -14,-35 -26,-50 -13,-17 -28,-29 -44,-38 -17,-9 -33,-12 -48,-11 -14,23 -31,46 -51,68 -20,22 -43,44 -69,64 -52,41 -94,64 -126,69 -32,5 -57,-4 -77,-29 -8,-10 -14,-22 -18,-35 -3,-13 -4,-24 -2,-32l259 -195c2,-25 -3,-51 -16,-81 -13,-29 -29,-58 -49,-86l-369 291 227 349c35,55 46,110 32,165 -14,56 -57,107 -131,155 -38,25 -77,42 -117,52 -41,11 -81,13 -119,8 -39,-5 -76,-18 -110,-39 -35,-21 -65,-50 -90,-89 -37,-57 -49,-112 -35,-167 13,-54 52,-102 115,-143l172 -111 -79 -123 -403 262c20,46 36,94 47,144 12,55 17,108 16,158 35,23 67,52 94,85 28,33 50,65 65,97 19,38 25,66 19,86 -7,19 -22,35 -46,47 -12,5 -23,10 -36,13 -12,3 -23,4 -32,3 -4,-12 -9,-24 -15,-35 -6,-12 -12,-24 -19,-37 -7,-15 -15,-31 -26,-50 -10,-19 -22,-38 -36,-55 -10,33 -30,67 -59,101 -29,34 -66,63 -111,85 -36,18 -70,29 -104,34 -33,5 -64,5 -93,-2 -28,-6 -54,-19 -76,-37 -23,-18 -41,-41 -56,-70 -14,-29 -22,-59 -23,-87 0,-29 5,-57 17,-84 12,-26 30,-51 54,-74 23,-24 52,-44 87,-60 45,-23 90,-35 135,-37 45,-1 87,5 126,19 -5,-30 -14,-62 -27,-96 -13,-35 -27,-67 -42,-98l-501 248c-15,8 -28,8 -39,1l-225 89 45 113c37,-5 74,-6 110,-2 36,5 70,14 102,29 31,15 59,35 84,61 26,26 46,57 61,95 14,35 21,67 21,98 1,31 -3,59 -12,83 -8,25 -20,46 -36,63 -16,17 -33,30 -52,37 -24,10 -45,10 -63,1 -17,-10 -30,-25 -38,-45l-3 -8c8,-7 16,-16 25,-27 9,-12 16,-25 21,-40 6,-15 8,-32 9,-51 0,-19 -5,-40 -14,-64 -10,-23 -23,-43 -41,-60 -18,-16 -38,-29 -60,-37 -22,-9 -45,-14 -70,-15 -24,-1 -47,1 -70,8 -21,11 -40,25 -57,43 -16,17 -30,37 -39,58 -10,22 -15,44 -17,68 -1,24 3,48 12,71 9,23 20,41 34,55 13,14 27,25 41,32 14,8 29,12 43,14 14,3 26,3 37,3l3 8c8,20 9,39 5,57 -4,19 -19,33 -44,43 -19,8 -40,11 -64,10 -24,-1 -47,-8 -70,-19 -24,-12 -46,-29 -67,-52 -22,-23 -40,-52 -54,-88 -15,-38 -22,-75 -21,-111 0,-35 7,-69 19,-101 12,-33 30,-63 53,-90 23,-28 50,-53 79,-74l-45 -113 -167 67c0,4 0,8 -1,11l-65 15 -50 20 84 363c-7,3 -15,7 -26,12 -11,4 -23,8 -34,11 -26,6 -46,6 -62,0 -16,-6 -27,-22 -33,-49l-72 -312 -77 17 -98 23 54 234c6,26 5,46 -3,59 -9,13 -26,23 -52,29l-334 77c11,40 26,73 46,98 19,24 41,43 65,55 25,12 51,19 78,20 28,2 56,-1 84,-7 24,-6 44,-13 61,-21 16,-8 31,-17 43,-27 12,-9 22,-19 30,-30 8,-11 15,-20 22,-30 15,2 29,8 42,18 13,11 22,24 25,39 7,27 -2,54 -26,81 -16,18 -38,35 -66,50 -28,15 -64,28 -106,37 -44,11 -88,15 -131,13 -44,-2 -84,-11 -122,-29 -38,-18 -72,-44 -104,-80 -31,-36 -56,-83 -76,-142 -24,2 -46,-3 -68,-16 -21,-13 -35,-34 -41,-63 -8,-35 -3,-66 17,-93 19,-26 47,-44 84,-52 17,-4 32,-5 47,-4 15,1 26,5 35,9l21 63 279 -64 -44 -192 -389 90c-1,10 -3,19 -5,25l-126 10 49 641c-7,2 -16,4 -28,7 -12,3 -24,4 -36,5 -26,2 -47,-1 -61,-9 -15,-8 -23,-25 -25,-52l-44 -581 -185 14 34 450c5,64 -10,116 -45,155 -35,39 -91,61 -168,67 -42,3 -81,-1 -118,-12 -37,-12 -69,-30 -97,-53 -28,-24 -50,-53 -67,-88 -17,-35 -27,-74 -31,-118 -5,-70 10,-126 46,-167 36,-42 89,-66 159,-71l154 -12 -11 -140 -319 24c-2,8 -4,15 -6,21l-128 -5 -22 643c-7,1 -16,2 -29,4 -12,1 -24,1 -36,1 -25,-1 -45,-6 -59,-16 -14,-10 -20,-28 -20,-54l11 -311 -161 -6 -9 269c-13,5 -30,10 -52,13 -21,4 -46,5 -73,4 -87,-3 -162,-24 -225,-63 -64,-40 -108,-94 -134,-163 23,-30 42,-65 58,-107 15,-41 24,-85 25,-130 1,-17 0,-35 -1,-54 -2,-18 -4,-36 -8,-54l-108 -4c-29,-1 -43,-20 -42,-57 0,-8 1,-17 3,-27 1,-10 4,-19 8,-26l744 25c0,-7 1,-14 1,-20 2,-56 -28,-85 -88,-87 -17,-1 -36,-1 -55,0 -20,1 -40,1 -58,0 -63,-2 -109,-17 -139,-45 -30,-28 -44,-63 -43,-106 2,-33 11,-57 28,-70 18,-14 37,-20 58,-19 10,0 20,2 29,6 9,3 17,8 24,13 -2,4 -4,10 -5,17 -1,7 -2,13 -2,18 -1,47 27,71 85,73 19,1 39,0 62,-2 22,-2 43,-3 61,-3 55,2 99,17 131,45 32,27 47,65 46,113 -1,17 -4,34 -8,49 -2,6 -3,12 -5,17l889 -68 739 -170 25 -6 277 -64 650 -259c11,-4 21,-5 30,-2l634 -315c9,-4 17,-6 24,-5l506 -329c12,-9 25,-11 36,-7l414 -326 274 -217c24,-18 47,-13 70,17 5,6 10,13 15,23 5,9 9,17 11,24l-95 74zm-9194 746c-16,-3 -37,-10 -63,-22 -26,-11 -52,-26 -77,-45 -70,-53 -116,-110 -139,-173 -23,-63 -26,-125 -8,-186 34,-11 68,-28 102,-49 33,-22 63,-50 88,-83 10,-13 19,-27 28,-42 8,-15 14,-28 17,-39l-81 -61c-23,-18 -24,-42 -1,-71 4,-6 10,-13 18,-20 7,-7 14,-13 21,-17l200 151c-4,25 -13,54 -26,88 -13,33 -32,66 -57,100 -31,40 -62,71 -93,91 -32,20 -59,35 -81,44 -2,23 4,50 17,83 14,32 39,61 75,88 28,22 54,36 78,44 24,7 45,12 62,13l230 -306c15,-19 30,-31 46,-34 15,-3 33,3 54,19l134 101c3,3 6,5 8,7l380 226c-4,-9 -8,-18 -14,-27 -14,-27 -32,-53 -53,-78 -21,-26 -45,-50 -70,-73 -25,-22 -51,-42 -77,-58 2,-15 7,-29 14,-40 12,-20 27,-32 45,-36 19,-4 40,1 63,14 25,15 48,35 69,59 21,24 39,50 55,78 16,27 29,56 38,85 9,29 15,56 17,81l4 2c11,-35 15,-70 14,-104 -2,-34 -8,-67 -19,-98 -11,-31 -26,-60 -44,-87 -19,-28 -40,-52 -64,-73 1,-5 2,-9 4,-13 3,-4 5,-8 7,-11 12,-20 27,-31 46,-34 19,-2 38,3 59,15 26,15 49,39 71,70 21,31 36,68 45,109 9,42 11,87 4,136 -6,49 -25,99 -55,150 -4,7 -8,14 -13,20l163 97c3,2 6,3 8,5l549 245 113 51 44 -99c16,-37 19,-68 9,-94 -11,-26 -31,-46 -60,-59 -30,-13 -57,-15 -80,-4 -23,12 -40,30 -51,55 -4,8 -7,16 -10,24 -3,8 -6,15 -7,21 -9,2 -20,2 -33,0 -13,-1 -26,-5 -39,-11 -22,-10 -37,-25 -43,-44 -7,-20 -4,-44 10,-73 10,-24 25,-45 45,-61 19,-17 42,-29 68,-37 26,-8 56,-10 88,-8 32,3 66,12 102,29 70,31 118,74 143,130 24,55 21,118 -10,188l-45 101 75 34 646 177c13,4 23,10 28,20l143 27c5,15 10,35 14,58 4,24 6,50 7,79 2,29 1,60 -1,93 -2,32 -6,65 -12,99l-3 16 231 43 49 -262c4,-24 12,-41 25,-50 12,-10 31,-13 56,-8l165 31c29,5 40,26 33,63 -1,8 -4,17 -7,27 -4,10 -8,17 -11,24l-125 -24 -118 632c-7,0 -17,0 -30,0 -13,-1 -25,-3 -36,-5 -25,-4 -44,-13 -56,-24 -12,-12 -15,-31 -10,-56l43 -232 -239 -45c-23,69 -49,118 -81,147 -31,29 -64,40 -99,33 -28,-5 -49,-17 -61,-36 -13,-18 -19,-39 -17,-61 30,-16 59,-45 86,-84 27,-40 47,-97 61,-171 3,-15 5,-31 7,-48 3,-17 5,-35 6,-52 1,-18 2,-36 1,-53 0,-17 -1,-33 -3,-47l-104 -20c-17,-3 -28,-12 -33,-26l-240 -66 -32 118c33,17 62,39 89,64 26,25 47,53 63,84 17,31 27,64 31,100 5,36 2,73 -9,112 -10,36 -24,67 -42,91 -18,25 -38,45 -60,60 -21,14 -43,24 -66,28 -24,4 -45,3 -64,-2 -26,-7 -42,-19 -51,-37 -8,-18 -9,-38 -3,-59l2 -9c11,0 23,-2 37,-6 14,-4 27,-10 40,-19 14,-8 26,-20 38,-35 11,-16 21,-35 27,-60 7,-24 8,-48 4,-72 -4,-24 -13,-46 -25,-66 -13,-21 -28,-38 -47,-54 -18,-16 -39,-28 -61,-36 -23,-4 -47,-4 -71,0 -24,4 -46,11 -67,23 -20,11 -38,26 -54,44 -15,18 -26,39 -33,64 -7,23 -9,45 -6,64 2,19 6,36 13,50 7,15 16,27 26,37 9,11 19,19 28,25l-3 8c-5,20 -15,37 -30,49 -15,12 -35,15 -61,7 -20,-5 -39,-15 -57,-30 -18,-15 -33,-35 -45,-58 -11,-23 -19,-51 -22,-82 -3,-31 0,-65 11,-103 10,-39 27,-72 49,-100 22,-28 48,-52 77,-70 29,-18 61,-31 96,-40 36,-8 71,-12 108,-10l32 -118 -175 -48 -5 5 -34 -15 -85 -24 -3 -1 -256 574c-7,-1 -17,-3 -28,-7 -12,-3 -24,-7 -34,-12 -24,-11 -41,-23 -50,-37 -9,-14 -8,-33 3,-57l237 -533 -78 -35 -1 0 0 0 -1 -1 -89 -39 -76 171c-11,24 -23,39 -37,44 -14,5 -34,2 -59,-9l-111 -50c-54,-24 -106,-32 -155,-25 -49,7 -89,28 -120,63 1,41 14,82 40,121 26,40 64,71 114,93 24,11 46,18 66,23 19,5 37,7 54,7 16,1 32,0 46,-3 14,-2 27,-5 39,-8 11,11 19,23 23,38 4,15 3,29 -3,43 -7,15 -15,26 -25,33 -9,7 -24,13 -45,17 -23,5 -52,5 -86,-2 -35,-6 -74,-19 -119,-39 -83,-36 -146,-88 -191,-156 -45,-67 -64,-145 -57,-234 28,-33 58,-59 93,-78 34,-20 70,-34 109,-41 38,-8 78,-9 120,-3 41,5 82,17 123,36l69 30 58 -130 -348 -154 -1 1 -11 -7 -69 -31c-13,-5 -21,-13 -24,-24l-82 -49c-18,23 -37,45 -57,67 -20,21 -42,40 -66,58 14,17 26,36 37,58 11,23 18,47 22,72 4,26 3,54 -2,83 -5,30 -17,60 -36,91 -21,35 -44,62 -72,80 -27,18 -54,30 -82,37 -27,6 -54,7 -79,3 -25,-4 -46,-11 -63,-21 -21,-13 -33,-29 -37,-48 -4,-19 -1,-37 9,-53 2,-3 4,-7 6,-11 2,-4 5,-7 9,-10 13,5 27,8 43,11 16,2 32,2 49,-1 16,-4 33,-11 49,-22 17,-11 31,-27 44,-49 19,-32 27,-63 22,-92 -4,-29 -13,-54 -26,-74 -35,15 -70,25 -106,29 -35,5 -65,4 -90,-2 -17,-21 -32,-48 -46,-81 -13,-32 -22,-67 -27,-104 -24,-3 -50,2 -77,13 -27,11 -50,32 -68,63 -13,21 -21,42 -22,62 -2,19 -1,37 4,53 6,17 13,31 22,44 10,13 20,24 30,33 -1,5 -2,9 -4,13 -2,3 -4,6 -6,9 -10,18 -25,29 -43,34 -19,6 -38,2 -59,-10 -18,-11 -34,-26 -50,-46 -16,-20 -27,-44 -35,-71 -7,-27 -9,-57 -6,-89 3,-33 15,-67 36,-102 18,-31 39,-55 62,-74 22,-18 46,-32 69,-42 24,-9 48,-14 73,-16 24,-1 47,0 68,4 4,-29 10,-58 18,-88 9,-29 19,-57 29,-83l-64 -38 -1 1 -9 -7 -76 -45c-10,-6 -17,-14 -20,-22l-385 509c-6,-2 -15,-7 -25,-13 -11,-6 -21,-12 -31,-20 -20,-15 -33,-30 -39,-47 -6,-16 -1,-34 15,-55l63 -83zm672 189c19,-2 40,-8 61,-17 21,-9 42,-21 63,-36 21,-15 41,-33 60,-52 19,-20 36,-41 52,-64l-212 -126c-12,25 -22,51 -30,79 -7,27 -13,54 -15,80 -3,27 -2,52 1,75 4,23 10,43 20,61zm3582 1023c1,-26 7,-43 17,-52 11,-10 28,-14 53,-13l228 7 5 -160 -445 -15c4,17 7,37 9,57 3,20 3,38 3,52 -2,55 -10,102 -23,141 -14,38 -28,69 -43,93 12,25 35,48 68,67 34,20 74,30 121,32l7 -209zm858 286c56,-4 83,-35 78,-91l-14 -191 -128 10c-30,2 -54,13 -70,33 -16,20 -23,47 -20,83 2,25 7,48 17,68 10,20 21,37 36,50 14,14 30,24 47,30 18,7 35,9 54,8zm1276 -756l-6 2c-28,6 -47,-8 -55,-43 -2,-9 -3,-18 -4,-28m1427 -2c33,-16 60,-40 80,-70 20,-30 31,-60 35,-89 -14,-8 -29,-15 -46,-19 -17,-4 -34,-7 -52,-7 -17,-1 -35,0 -53,4 -17,3 -34,9 -49,16 -36,18 -60,40 -71,65 -11,26 -10,50 2,75 12,24 31,39 58,44 27,6 59,0 96,-19zm778 -276c33,-21 52,-44 59,-69 6,-24 0,-50 -17,-76l-94 -145 -156 102c-30,20 -47,43 -51,68 -3,26 3,51 19,75 15,23 32,40 52,53 20,12 41,19 63,22 22,3 44,2 65,-4 22,-5 42,-14 60,-26z"/>
   <path class="fil10" d="M13376 14133l213 270c-5,6 -11,13 -19,22l0 1 -217 -275 23 -18zm-239 189c17,28 30,57 40,87 14,42 19,81 15,117 -2,-22 -7,-46 -15,-70 -13,-42 -34,-81 -61,-118l21 -16zm55 205c27,-2 56,3 87,15 31,11 59,33 84,65 28,34 44,69 50,106 3,20 4,40 2,61 -1,-5 -1,-10 -2,-15 -6,-36 -22,-71 -50,-106 -25,-32 -53,-53 -84,-65 -31,-11 -60,-16 -87,-15 2,-15 2,-30 0,-46zm-258 545c-3,-8 -4,-17 -4,-26 2,-16 6,-30 14,-41 12,0 25,0 41,0 17,-1 34,-4 54,-9 20,-5 41,-13 63,-23 23,-11 46,-25 70,-44 28,-22 49,-44 64,-66 16,-21 25,-42 29,-63l0 -1c3,15 3,31 0,48 -4,20 -13,41 -29,63 -15,21 -36,43 -64,65 -24,19 -47,34 -70,44 -22,11 -43,19 -63,24 -20,4 -37,7 -54,8 -16,1 -29,1 -41,0 -4,7 -7,14 -10,21zm-126 -282c-2,-4 -3,-7 -4,-10 -3,-13 -4,-24 -2,-32l256 -193c3,16 4,30 3,44l-253 191zm-161 -82l207 318c30,47 43,95 37,142 -4,-32 -17,-64 -37,-95l-227 -349 20 -16zm-367 471c-3,-23 -2,-45 4,-68 13,-54 52,-102 115,-143l151 -98 21 33 -172 112c-63,41 -102,89 -115,143 -2,7 -3,14 -4,21zm-176 -146c13,35 24,70 32,107 12,55 17,108 16,158 35,23 67,52 94,85 28,33 50,65 65,97 19,38 25,66 19,86l-2 4c-3,-13 -9,-27 -17,-43 -15,-32 -37,-65 -65,-98 -27,-33 -59,-61 -94,-85 1,-50 -4,-102 -16,-158 -11,-49 -27,-97 -47,-143l15 -10zm-504 461c-1,-6 -2,-12 -2,-18 0,-29 5,-57 17,-84 12,-26 30,-51 54,-74 23,-24 52,-44 87,-60 45,-23 90,-35 135,-37 41,-1 79,4 114,15 5,17 9,34 12,50 -39,-13 -81,-20 -126,-18 -45,2 -90,14 -135,36 -35,17 -64,37 -87,60 -24,23 -42,48 -54,75 -8,18 -13,36 -15,55zm-401 -69l29 72c37,-5 74,-6 110,-2 36,5 70,14 102,29 31,15 59,35 84,61 26,26 46,57 61,95 14,35 21,67 21,98 0,10 0,20 -1,29 -2,-26 -9,-52 -20,-80 -15,-38 -35,-70 -61,-96 -25,-25 -53,-46 -84,-61 -32,-14 -66,-24 -102,-28 -36,-4 -73,-4 -110,2l-45 -113 16 -6zm219 514c-5,-6 -10,-14 -13,-22l-3 -8c8,-7 16,-16 25,-27 9,-12 16,-25 21,-40 3,-8 5,-17 7,-26 1,7 2,15 2,22 -1,19 -3,36 -9,51 -5,15 -12,28 -21,39 -3,4 -6,8 -9,11zm-327 -114c2,12 5,25 10,38 9,23 20,41 34,55 13,14 27,25 41,32 14,8 29,12 43,14 14,3 26,3 37,3l3 8c8,20 9,39 5,57l-1 3c-1,-5 -2,-9 -4,-13l-3 -9c-11,1 -23,0 -37,-2 -14,-2 -29,-7 -43,-14 -14,-8 -28,-19 -41,-32 -14,-14 -25,-33 -34,-55 -9,-24 -13,-48 -12,-71 1,-5 1,-10 2,-14zm-146 18c-1,-9 -2,-18 -1,-28 0,-35 7,-69 19,-101 12,-33 30,-63 53,-90 19,-24 41,-45 65,-63l14 36c-29,21 -56,45 -79,73 -23,28 -41,58 -53,90 -10,26 -16,54 -18,83zm-168 -250l74 320 -10 4 -74 -320 10 -4zm-318 66l44 190c5,21 5,38 1,50l-1 -4 -54 -233 10 -3zm-330 398c8,21 19,40 31,55 19,24 41,43 65,55 25,12 51,19 78,20 28,2 56,-1 84,-7 24,-6 44,-13 61,-21 16,-8 31,-17 43,-27 12,-9 22,-19 30,-30 8,-11 15,-20 22,-30 15,2 29,8 42,18 13,11 22,24 25,39 3,13 3,27 -2,40 -4,-13 -12,-23 -23,-32 -13,-10 -27,-17 -42,-18 -7,9 -14,19 -22,29 -8,11 -18,21 -30,31 -12,10 -27,18 -43,27 -17,8 -37,15 -61,20 -28,7 -56,9 -84,8 -27,-2 -53,-8 -78,-20 -24,-13 -46,-31 -65,-56 -20,-24 -35,-57 -46,-98l15 -3zm-261 -83c-6,-33 0,-62 19,-87 19,-26 47,-44 84,-52 17,-4 32,-5 47,-4 15,1 26,5 35,9l21 63 269 -62 10 44 -279 65 -21 -63c-9,-5 -20,-8 -35,-9 -15,-2 -30,-1 -47,3 -37,9 -65,26 -84,53 -9,12 -16,26 -19,40zm-75 -156l45 595 -4 1 -45 -596 4 0zm-330 25l30 404c2,16 2,31 0,46l-34 -449 4 -1zm-496 353c-5,-69 11,-124 46,-165 36,-42 89,-66 159,-71l150 -11 4 46 -154 12c-70,5 -123,28 -159,70 -27,32 -42,71 -46,119zm-270 250c0,-6 -1,-13 -1,-20l9 -265 2 0 -10 285zm-631 -248c-5,-9 -9,-19 -13,-29 23,-30 42,-65 58,-107 14,-39 22,-79 25,-122 0,13 0,26 0,38 -1,46 -10,89 -25,131 -13,33 -28,63 -45,89zm-87 -410c-2,-7 -2,-16 -2,-25 0,-8 1,-17 3,-27 1,-10 4,-19 8,-26l743 25c2,8 2,17 2,26 0,7 -1,13 -1,20l-744 -25c-4,8 -7,17 -8,27l-1 5zm373 -282c-1,-9 -2,-19 -2,-29 2,-33 11,-57 28,-70 18,-14 37,-20 58,-19 10,0 20,2 29,6 9,3 17,8 24,13 -2,4 -4,10 -5,17 -1,7 -2,13 -2,18l0 7c-5,-3 -11,-6 -17,-9 -9,-3 -19,-5 -29,-6 -21,-1 -40,6 -58,19 -14,11 -23,28 -26,53zm133 -39c8,31 35,47 82,48 19,1 39,0 62,-2 22,-2 43,-3 61,-3 55,2 99,17 131,45 32,27 47,65 46,113 -1,6 -1,12 -2,18 -4,-35 -19,-63 -44,-85 -32,-27 -76,-42 -131,-44 -18,-1 -39,0 -61,2 -23,2 -43,3 -62,3 -58,-2 -86,-27 -85,-73 0,-5 1,-11 2,-18l1 -4zm380 266l878 -67 739 -170 25 -6 277 -64 650 -259c11,-4 21,-5 30,-2l634 -315c9,-4 17,-6 24,-5l506 -329c12,-9 25,-11 36,-7l414 -326 274 -217c24,-18 47,-13 70,17 5,6 10,13 15,23 5,9 9,17 11,24l-17 13c-3,-5 -6,-10 -9,-14 -23,-29 -46,-34 -70,-16l-274 216 -414 326c-11,-3 -24,-1 -36,7l-506 329c-7,0 -15,1 -24,6l-634 314c-9,-2 -19,-2 -30,3l-650 258 -277 64 -25 6 -739 171 -889 67c2,-5 3,-10 5,-16 3,-10 5,-20 6,-31zm-5003 -1206c-3,-35 0,-69 10,-103 34,-11 68,-28 102,-49 33,-22 63,-50 88,-83 10,-13 19,-27 28,-42l2 -4 15 12c-3,11 -9,24 -17,39 -9,14 -18,28 -28,41 -25,34 -55,61 -88,83 -34,22 -68,38 -102,49 -5,19 -9,38 -10,57zm153 -388c-12,-16 -9,-36 10,-60 4,-6 10,-13 18,-20 7,-7 14,-13 21,-17l200 151c-2,12 -5,25 -9,39l-191 -144c-7,5 -14,10 -21,18 -8,7 -14,13 -18,19 -4,5 -7,10 -10,14zm-4 422c3,12 8,24 13,38 14,32 39,61 75,88 28,22 54,36 78,44 24,7 45,12 62,13l230 -306c15,-19 30,-31 46,-34 15,-3 33,3 54,19l134 101c3,3 6,5 8,7l339 202c10,14 19,29 27,43 6,10 10,19 14,28l-380 -226c-2,-3 -5,-5 -8,-7l-134 -102c-21,-15 -39,-21 -54,-18 -16,3 -31,14 -46,34l-230 305c-17,-1 -38,-5 -62,-13 -24,-7 -50,-22 -78,-43 -36,-27 -61,-57 -75,-89 -13,-32 -19,-59 -17,-82l4 -2zm879 -32l-13 -8c2,-15 7,-29 14,-40 12,-20 27,-32 45,-36 19,-4 40,1 63,14 25,15 48,35 69,59 21,24 39,50 55,78 16,27 29,56 38,85 9,29 15,56 17,81l4 2c7,-23 11,-46 13,-69l1 12c1,34 -3,69 -14,104l-4 -3c-2,-25 -8,-52 -17,-81 -9,-29 -22,-57 -38,-85 -16,-27 -34,-53 -55,-78 -21,-24 -44,-43 -69,-58 -23,-14 -44,-19 -63,-15 -18,5 -33,16 -45,36l-1 2zm195 -112c-5,-5 -11,-10 -16,-15 1,-5 2,-9 4,-13 3,-4 5,-8 7,-11 12,-20 27,-31 46,-34 19,-2 38,3 59,15 26,15 49,39 71,70 21,31 36,68 45,109 7,32 9,66 7,101 -1,-18 -3,-37 -7,-54 -9,-42 -24,-78 -45,-110 -22,-31 -45,-54 -71,-70 -21,-12 -40,-17 -59,-14 -16,2 -30,11 -41,26zm173 439l142 85c3,2 6,3 8,5l549 245 113 51 44 -99c6,-13 10,-25 12,-37 6,24 2,52 -12,84l-44 98 -113 -50 -549 -245c-2,-2 -5,-4 -8,-6l-163 -96c5,-7 9,-13 13,-21l8 -14zm542 175l0 0c-7,-20 -4,-44 10,-73 10,-24 25,-45 45,-61 19,-17 42,-29 68,-37 26,-8 56,-10 88,-8 32,3 66,12 102,29 70,31 118,74 143,130 14,31 19,65 15,101 -3,-19 -8,-37 -15,-55 -25,-55 -73,-99 -143,-130 -36,-16 -70,-26 -102,-28 -32,-3 -62,0 -88,7 -26,8 -49,20 -68,37 -20,17 -35,37 -45,61 -5,10 -8,19 -10,27zm418 277l58 26 646 177c13,4 23,10 28,20l143 27c5,15 10,35 14,58 4,24 6,50 7,79 1,18 1,36 1,56l-1 -9c-1,-29 -3,-56 -7,-79 -4,-24 -9,-43 -14,-59l-143 -27c-5,-9 -15,-16 -28,-19l-646 -178 -75 -33 17 -39zm888 596l223 42 49 -262c4,-24 12,-41 25,-50 12,-10 31,-13 56,-8l165 31c29,5 40,26 33,63l-1 7c-5,-13 -16,-21 -32,-24l-165 -30c-25,-5 -44,-3 -56,7 -13,10 -21,27 -25,51l-49 261 -231 -43 3 -16c2,-10 4,-19 5,-29zm159 430c-4,-10 -5,-24 -1,-40l35 -187 8 1 -42 226zm-449 -191c-5,-14 -7,-28 -6,-43 30,-16 59,-45 86,-84 27,-40 47,-97 61,-171 3,-15 5,-31 7,-48 3,-17 5,-35 6,-52 0,-7 1,-14 1,-21l0 15c1,17 0,34 -1,52 -1,18 -3,35 -6,53 -2,17 -4,33 -7,48 -14,74 -34,131 -61,170 -25,37 -51,64 -80,81zm-246 -486c28,16 54,36 78,58 26,25 47,53 63,84 17,31 27,64 31,100 3,18 3,37 1,56l-1 -10c-4,-35 -14,-69 -31,-99 -16,-31 -37,-59 -63,-84 -27,-26 -56,-47 -89,-65l11 -40zm-124 483c-4,-15 -4,-31 1,-48l2 -9c11,0 23,-2 37,-6 14,-4 27,-10 40,-19 14,-8 26,-20 38,-35 11,-16 21,-35 27,-60 2,-7 4,-14 5,-21 3,22 2,45 -5,68 -6,24 -16,44 -27,59 -12,15 -24,27 -38,36 -13,8 -26,15 -40,18 -14,4 -26,6 -37,7l-2 8 -1 2zm-214 -203c2,16 6,31 12,43 7,15 16,27 26,37 9,11 19,19 28,25l-3 8c-2,10 -6,19 -11,27 -5,-4 -10,-8 -14,-13 -10,-10 -19,-23 -26,-37 -7,-15 -11,-32 -13,-51 -2,-12 -2,-25 1,-39zm-152 -1c-3,-31 0,-65 11,-103 10,-39 27,-72 49,-100 22,-28 48,-52 77,-70 29,-18 61,-31 96,-40 36,-8 71,-12 108,-10l20 -74 12 3 -32 117c-37,-1 -72,2 -108,11 -35,8 -67,21 -96,40 -29,18 -55,41 -77,69 -22,28 -39,62 -49,101 -6,19 -9,38 -11,56zm-298 -8c-8,-14 -6,-32 4,-55l220 -494 17 8 -237 532c-2,3 -3,6 -4,9zm-481 -428c6,27 18,54 35,80 26,40 64,71 114,93 24,11 46,18 66,23 19,5 37,7 54,7 16,1 32,0 46,-3 14,-2 27,-5 39,-8 11,11 19,23 23,38 4,14 3,27 -2,40 -4,-12 -11,-22 -21,-31 -12,3 -25,5 -39,8 -14,2 -30,3 -46,3 -17,0 -35,-3 -54,-8 -20,-4 -42,-12 -66,-23 -50,-22 -88,-53 -114,-92 -26,-39 -39,-80 -40,-122l5 -5zm-150 -48c-1,-20 0,-40 1,-60 28,-33 58,-59 93,-78 34,-20 70,-34 109,-41 38,-8 78,-9 120,-3 41,5 82,17 123,36l69 30 40 -91 18 8 -58 130 -69 -31c-41,-18 -82,-30 -123,-36 -42,-5 -82,-4 -120,3 -39,8 -75,21 -109,41 -35,20 -65,46 -93,78l-1 14zm-64 -355c6,9 11,18 16,28 11,23 18,47 22,72 2,19 3,38 1,58l-1 -11c-4,-26 -11,-50 -22,-72 -11,-22 -23,-42 -37,-59 7,-5 14,-10 21,-16zm-331 333c-1,-3 -2,-5 -2,-8 -4,-19 -1,-37 9,-53 2,-3 4,-7 6,-11 2,-4 5,-7 9,-10 13,5 27,8 43,11 16,2 32,2 49,-1 16,-4 33,-11 49,-22 17,-11 31,-27 44,-49 11,-18 18,-36 21,-53l1 7c5,30 -3,61 -22,93 -13,21 -27,38 -44,49 -16,11 -33,18 -49,21 -17,3 -33,4 -49,1 -16,-2 -30,-6 -43,-10 -4,2 -7,6 -9,10 -2,4 -4,7 -6,10 -3,5 -5,10 -7,15zm-232 -291c1,5 2,10 3,15 6,17 13,31 22,44 10,13 20,24 30,33 -1,5 -2,9 -4,13 -2,3 -4,6 -6,9 -2,3 -4,6 -6,9 -5,-5 -9,-11 -14,-17 -9,-13 -16,-28 -22,-44 -5,-16 -6,-34 -4,-54l1 -8zm-149 -17c-1,-16 -1,-33 1,-51 3,-33 15,-67 36,-102 18,-31 39,-55 62,-74 22,-18 46,-32 69,-42 24,-9 48,-14 73,-16 24,-1 47,0 68,4 4,-29 10,-58 18,-88 5,-15 10,-30 15,-45l14 9c-10,26 -20,53 -29,83 -8,29 -14,58 -18,88 -21,-4 -44,-5 -68,-4 -25,1 -49,6 -73,16 -23,9 -47,23 -69,42 -23,18 -44,43 -62,73 -21,36 -33,70 -36,102l-1 5zm-290 -125c-2,-3 -3,-6 -4,-9 -6,-16 -1,-34 15,-55l34 -45c11,4 20,7 29,9l-63 82c-5,7 -8,12 -11,18zm746 42c19,-2 40,-8 61,-17 21,-9 42,-21 63,-36 21,-15 41,-33 60,-52 10,-10 19,-21 28,-32l24 14c-16,23 -33,45 -52,64 -19,20 -39,37 -60,52 -21,16 -42,28 -63,37 -21,9 -42,14 -61,16 -10,-17 -16,-37 -20,-60 -3,-21 -3,-43 -2,-66 1,6 1,13 2,19 4,23 10,43 20,61zm3582 1023c1,-26 7,-43 17,-52 11,-10 28,-14 53,-13l228 7 3 -114 2 0 -5 161 -228 -8c-25,-1 -42,4 -53,13 -10,9 -16,27 -17,52l-7 209c-47,-2 -87,-12 -121,-31 -33,-19 -56,-42 -68,-68 5,-7 9,-15 14,-24 13,17 31,32 54,45 34,20 74,30 121,32l7 -209zm-134 -187l1 11c3,20 3,38 3,52l-1 16c0,-7 -1,-14 -2,-22 -2,-20 -5,-39 -9,-57l8 0zm992 473c45,-4 71,-23 77,-60l1 15c5,57 -22,87 -78,91 -19,2 -36,-1 -54,-7 -17,-6 -33,-16 -47,-30 -15,-14 -26,-31 -36,-51 -10,-20 -15,-42 -17,-68 -1,-13 -1,-25 1,-36 2,21 8,40 16,58 10,20 21,37 36,50 14,14 30,24 47,30 18,7 35,9 54,8zm2638 -827c33,-16 60,-40 80,-70 10,-16 19,-32 25,-48 3,2 7,4 10,6 -4,29 -15,58 -35,89 -20,30 -47,53 -80,70 -37,18 -69,24 -96,19 -27,-6 -46,-21 -58,-45 -10,-20 -12,-41 -6,-62 1,6 3,11 6,16 12,24 31,39 58,44 27,6 59,0 96,-19zm778 -276c32,-20 51,-42 58,-66 4,15 4,30 1,44 -7,24 -26,47 -59,68 -18,12 -38,21 -60,27 -21,5 -43,6 -65,4 -22,-3 -43,-11 -63,-23 -20,-12 -37,-29 -52,-52 -16,-24 -22,-49 -19,-75 1,-3 1,-6 2,-10 3,13 9,26 17,38 15,23 32,40 52,53 20,12 41,19 63,22 22,3 44,2 65,-4 22,-5 42,-14 60,-26z"/>
  </g>
  <g id="_896643096">
   <path class="fil20" d="M12151 9076l0 268c-5,1 -12,3 -20,4 -8,2 -17,2 -25,2 -19,0 -33,-3 -43,-9 -9,-7 -14,-20 -14,-39l0 -226 -128 0 0 454c-5,1 -12,2 -20,3 -8,1 -17,2 -25,2 -19,0 -33,-3 -43,-10 -10,-6 -15,-19 -15,-37l0 -162 -105 0c-7,44 -20,78 -39,102 -19,25 -42,37 -70,37 -18,0 -33,-5 -44,-15 -12,-10 -18,-24 -20,-41 20,-18 37,-40 51,-67 14,-28 21,-59 21,-95 0,-28 -4,-53 -10,-75 -16,8 -35,19 -56,33 -21,15 -41,32 -60,53 -7,35 -20,63 -37,83 -18,20 -39,30 -62,30 -19,0 -34,-5 -45,-16 -11,-11 -17,-24 -19,-39 19,-18 35,-39 49,-63 13,-25 20,-56 20,-93 0,-18 -1,-33 -4,-46 -3,-14 -7,-27 -12,-38l-56 0 -20 0 -71 0 0 454c-5,1 -11,2 -20,3 -9,1 -17,2 -26,2 -18,0 -32,-3 -42,-10 -10,-6 -15,-19 -15,-37l0 -412 -46 0 -15 0 0 0 -60 0c-2,13 -5,26 -9,39 -5,14 -10,26 -16,38 -7,12 -14,23 -21,34 -8,10 -16,18 -24,24 21,12 39,30 55,54 15,23 23,52 23,87 0,29 -6,55 -18,78 -12,23 -28,43 -49,60 -22,17 -47,30 -77,39 -30,9 -63,14 -98,14 -69,0 -120,-12 -155,-37 -35,-24 -52,-55 -52,-93 0,-33 11,-60 35,-79 24,-19 55,-28 95,-28 23,0 44,3 63,9 19,6 37,14 53,24 15,10 29,22 41,36 12,13 22,28 31,44 9,-8 17,-19 22,-32 5,-12 8,-26 8,-41 0,-24 -6,-44 -17,-60 -12,-17 -25,-28 -40,-35 -19,5 -38,8 -58,11 -19,2 -41,3 -68,3 -41,0 -71,-4 -91,-12 -20,-8 -30,-23 -30,-46 0,-9 1,-17 4,-24 4,-7 7,-13 12,-16 42,1 82,2 120,3 38,0 76,1 113,2 9,-9 17,-23 26,-40 8,-17 14,-36 17,-56l-351 0 -10 0 -1 0 -72 0 0 163c0,17 -4,30 -11,38 -8,8 -21,12 -41,12l-123 0c-19,0 -36,2 -52,7 -15,5 -29,11 -41,19 -12,7 -22,16 -30,27 -8,10 -13,20 -16,31 8,24 27,44 55,59 29,15 62,22 100,22 37,0 68,-5 92,-15 24,-10 43,-20 57,-30 10,4 19,10 25,18 7,7 10,17 10,29 0,11 -3,20 -8,28 -5,8 -13,15 -22,21 -16,11 -38,19 -63,26 -26,7 -59,10 -97,10 -36,0 -68,-4 -98,-13 -29,-8 -55,-20 -77,-35 -22,-14 -41,-32 -55,-52 -14,-20 -24,-42 -30,-65 6,-28 19,-54 39,-78 19,-25 42,-44 70,-58 -22,-13 -41,-33 -58,-61 -17,-28 -27,-62 -30,-103l-127 0 0 454c-5,1 -12,2 -20,3 -9,1 -17,2 -26,2 -18,0 -32,-3 -42,-10 -10,-6 -15,-19 -15,-37l0 -412 -61 0c-12,0 -20,-4 -25,-10 -5,-7 -7,-16 -7,-29 0,-6 1,-13 2,-20 2,-7 3,-13 5,-18l85 0 0 -75c0,-55 16,-98 47,-127 31,-29 74,-44 129,-44 28,0 53,4 74,11 22,8 41,18 55,30 15,13 27,27 34,44 8,16 12,34 12,52 0,23 -5,40 -14,50 -10,11 -23,16 -40,16 -11,0 -20,-1 -29,-4 -8,-2 -15,-5 -21,-9 1,-5 1,-10 2,-16 0,-6 0,-12 0,-18 0,-21 -7,-38 -20,-51 -14,-13 -32,-20 -54,-20 -22,0 -39,7 -52,21 -13,13 -20,35 -20,65l0 75 579 0 11 0 516 0 14 0 74 0 0 -77c0,-28 -7,-50 -22,-63 -14,-14 -32,-21 -55,-21 -23,0 -41,7 -52,21 -12,13 -18,30 -18,50 0,6 0,12 0,18 1,6 1,11 2,16 -6,4 -13,7 -21,9 -9,3 -18,4 -28,4 -18,0 -31,-5 -41,-16 -10,-10 -15,-27 -15,-50 0,-18 4,-36 12,-52 7,-17 19,-31 33,-44 15,-12 33,-22 54,-30 22,-7 47,-11 75,-11 54,0 97,14 129,43 32,29 48,70 48,125l0 78 46 0 18 0 155 0c8,11 16,29 25,52 8,24 14,52 18,86 27,-22 56,-40 85,-54 30,-15 57,-25 82,-33 15,20 28,47 39,81 11,33 17,71 18,112l103 0 0 -194c0,-18 3,-30 11,-38 7,-8 20,-12 39,-12l343 0c21,0 31,13 31,39 0,5 -1,12 -2,19 -1,8 -2,14 -4,19l-85 0zm-1666 -1443c0,-7 1,-14 1,-20 0,-31 -9,-54 -27,-69 -19,-16 -44,-24 -76,-24 -17,0 -36,1 -58,2 -22,2 -43,3 -62,3 -74,0 -130,-17 -168,-50 -38,-33 -56,-75 -56,-125 0,-45 11,-76 35,-94 23,-18 50,-27 79,-27 15,0 28,2 41,6 13,5 23,10 32,16 -2,4 -3,11 -4,19 -1,9 -2,15 -2,20 0,51 32,76 94,76 22,0 45,-2 70,-6 25,-3 47,-5 68,-5 64,0 117,16 157,49 41,32 61,80 61,141 0,23 -2,43 -7,61 -3,10 -6,19 -8,27l206 0c21,0 36,7 45,20 9,13 13,32 13,56 0,12 -1,25 -3,40 -3,15 -6,26 -10,34l-236 0c-4,29 -9,59 -16,91 -7,32 -17,62 -31,90 27,9 52,22 76,38 24,16 45,36 63,59 18,23 33,51 44,82 11,31 17,67 17,106 0,46 -9,86 -25,120 -17,35 -38,64 -62,87 -25,23 -52,40 -81,52 -29,12 -56,18 -81,18 -35,0 -61,-10 -79,-30 -18,-19 -27,-42 -27,-69 0,-4 0,-11 0,-18 0,-7 1,-14 3,-20 17,-2 33,-6 51,-12 17,-6 32,-16 45,-27 13,-12 24,-27 32,-46 9,-18 13,-40 13,-66 0,-36 -8,-65 -24,-88 -17,-23 -36,-40 -58,-51 -26,30 -55,57 -88,79 -32,23 -64,37 -94,44 -29,-8 -60,-22 -93,-44 -33,-21 -62,-47 -89,-77 -21,10 -40,27 -57,50 -17,23 -25,52 -25,87 0,26 4,48 13,66 8,18 19,33 32,45 14,12 29,22 46,29 17,6 33,11 50,14 2,5 3,11 3,17 0,6 0,12 0,17 0,27 -10,51 -28,70 -19,20 -45,30 -79,30 -27,0 -55,-6 -84,-17 -29,-11 -56,-29 -80,-52 -25,-22 -45,-51 -61,-86 -15,-35 -23,-75 -23,-122 0,-39 5,-75 16,-106 11,-31 25,-59 43,-82 18,-23 39,-43 63,-59 23,-16 48,-29 74,-38 -13,-27 -25,-57 -33,-90 -9,-33 -14,-63 -16,-91l-163 0 -25 0 -1 0 -112 0 0 724c-8,2 -20,4 -38,7 -18,3 -35,4 -51,4 -36,0 -64,-6 -84,-18 -21,-12 -31,-37 -32,-76l0 -32c-20,8 -43,14 -69,19 -26,5 -54,8 -82,8 -105,0 -192,-22 -262,-66 -69,-43 -116,-100 -140,-170 7,-35 22,-68 46,-101 23,-34 51,-59 83,-75 -34,-20 -62,-49 -83,-87 -22,-39 -33,-85 -35,-137l-69 0c-20,0 -34,-7 -42,-20 -8,-13 -12,-33 -12,-58 0,-10 1,-22 3,-37 3,-14 6,-26 10,-35l664 0c1,-7 1,-14 1,-20 0,-31 -9,-54 -27,-69 -18,-16 -43,-24 -75,-24 -17,0 -36,1 -58,2 -22,2 -43,3 -63,3 -74,0 -130,-17 -167,-50 -38,-33 -57,-75 -57,-125 0,-45 12,-76 35,-94 24,-18 50,-27 79,-27 15,0 29,2 42,6 12,5 23,10 32,16 -2,4 -4,11 -5,19 -1,9 -1,15 -1,20 0,51 31,76 94,76 21,0 44,-2 69,-6 25,-3 48,-5 68,-5 65,0 117,16 158,49 41,32 61,80 61,141 0,23 -3,43 -8,61 -2,10 -5,19 -8,27l91 0 24 0 674 0zm-1112 633c56,0 103,-8 141,-25l0 -151 -201 0c-37,0 -67,8 -88,24 -22,17 -37,36 -45,60 11,25 32,47 64,65 31,18 75,27 129,27zm-190 -483c2,42 10,76 25,101 14,26 29,45 45,55l261 0 0 -156 -331 0zm1169 269c35,-25 63,-63 84,-112 20,-49 32,-102 35,-157l-254 0c2,27 7,54 14,82 8,28 17,54 29,79 12,24 25,46 41,65 16,19 33,33 51,43zm-3421 2729l-416 1356 1052 -976c346,150 727,233 1128,233 1101,0 2056,-626 2528,-1542l-321 0c-446,754 -1267,1261 -2207,1261 -1042,0 -1939,-623 -2339,-1516 4,-11 7,-22 11,-33 18,-50 45,-102 113,-104 33,-1 67,1 100,0 110,-6 220,-11 322,-59 79,-37 102,-95 76,-177 -28,-88 -29,-172 33,-249 6,-8 11,-18 15,-27 23,-52 7,-99 -46,-120 -34,-13 -72,-17 -108,-25 -23,-5 -46,-10 -69,-15 23,-19 48,-29 72,-40 29,-12 60,-23 87,-39 54,-34 67,-85 41,-144 -9,-19 -21,-38 -29,-57 -13,-31 -2,-60 27,-74 15,-7 31,-12 47,-18 135,-56 158,-141 69,-256 -28,-37 -61,-70 -93,-103 -49,-50 -102,-97 -148,-150 -79,-89 -116,-186 -57,-305 25,-51 -40,-498 -81,-703 470,-556 1172,-910 1957,-910 882,0 1660,446 2121,1125l332 0c-493,-841 -1407,-1406 -2453,-1406 -1570,0 -2843,1273 -2843,2843 0,904 422,1709 1079,2230zm-622 -1297c-113,-289 -175,-604 -175,-933 0,-587 197,-1127 528,-1559 37,208 87,544 75,577 -11,30 -26,59 -30,90 -6,36 -9,75 -2,110 22,116 98,199 179,279 58,57 117,115 169,177 44,53 35,76 -28,103 -15,6 -31,11 -46,17 -90,34 -121,137 -83,208 7,13 12,28 21,41 16,23 7,38 -16,48 -32,13 -65,22 -97,37 -32,15 -65,30 -92,52 -37,30 -37,75 2,100 40,26 86,43 132,58 30,10 64,11 95,17 -1,8 0,10 -1,13 -3,4 -5,9 -8,13 -74,93 -72,198 -43,305 15,57 11,71 -45,92 -14,6 -29,12 -44,13 -96,11 -193,25 -289,27 -81,2 -147,21 -189,93 -4,8 -9,15 -13,22zm2589 2123c-441,0 -863,-81 -1248,-228l-449 329c376,147 785,228 1213,228 754,0 1450,-251 2008,-674 -457,220 -975,345 -1524,345zm-2189 -770c-696,-571 -1136,-1408 -1136,-2342 0,-1719 1489,-3112 3325,-3112 136,0 270,8 402,23 -282,-78 -579,-120 -886,-120 -1837,0 -3325,1489 -3325,3325 0,1172 606,2202 1522,2794l98 -568zm823 -2057c-2,-140 -54,-268 -155,-376 -40,-44 -34,-91 18,-105 19,-5 52,5 66,21 138,143 202,315 190,513 -9,161 -70,301 -180,420 -28,31 -59,51 -98,20 -31,-25 -27,-62 10,-103 98,-108 148,-235 149,-390zm519 97c-2,150 -81,356 -238,533 -7,7 -14,15 -22,22 -29,30 -62,40 -94,8 -31,-30 -21,-62 7,-91 81,-84 145,-181 181,-293 96,-298 43,-568 -163,-806 -10,-10 -21,-20 -29,-30 -21,-28 -23,-57 4,-79 25,-22 57,-29 84,-2 27,26 53,54 76,84 127,168 195,356 194,654zm399 -85c-4,302 -105,565 -308,788 -11,12 -21,23 -33,34 -28,23 -57,26 -83,0 -27,-27 -26,-57 -3,-84 24,-30 53,-56 76,-86 244,-320 295,-669 154,-1046 -48,-126 -123,-234 -214,-333 -17,-18 -31,-49 -28,-72 7,-49 65,-59 105,-19 102,101 180,219 237,350 65,149 98,305 97,468zm1915 412l0 -128 -195 0c3,29 11,55 24,78 13,24 31,41 54,53 12,-2 25,-3 37,-3l80 0zm-26 -249c-14,0 -26,-5 -35,-13 -10,-8 -14,-24 -14,-47 0,-17 3,-32 9,-46 7,-14 16,-26 27,-35 12,-10 25,-18 40,-23 15,-5 32,-7 49,-7 17,0 34,2 49,8 15,5 28,13 39,22 11,10 20,22 27,36 6,14 9,29 9,45 0,23 -4,39 -13,47 -10,8 -21,13 -34,13 -13,0 -24,-4 -33,-12 2,-3 3,-7 4,-13 1,-5 1,-10 1,-15 0,-16 -5,-29 -14,-38 -10,-9 -21,-14 -35,-14 -14,0 -26,5 -35,15 -10,9 -14,22 -14,37 0,5 0,10 2,15 1,6 2,10 3,13 -9,8 -20,12 -32,12zm424 509c9,0 17,0 26,-1 9,-1 17,-3 25,-5 -10,-25 -25,-43 -44,-56 -19,-14 -40,-20 -64,-20 -11,0 -21,3 -29,8 -8,5 -12,14 -12,26 0,13 8,24 24,34 15,9 40,14 74,14z"/>
   <path class="fil21" d="M12151 9029l0 269c-5,1 -12,2 -20,4 -8,1 -17,2 -25,2 -19,0 -33,-3 -43,-10 -9,-6 -14,-19 -14,-38l0 -227 -128 0 0 454c-5,1 -12,2 -20,4 -8,1 -17,1 -25,1 -19,0 -33,-3 -43,-9 -10,-7 -15,-19 -15,-38l0 -161 -105 0c-7,43 -20,77 -39,102 -19,24 -42,37 -70,37 -18,0 -33,-5 -44,-16 -12,-10 -18,-23 -20,-41 20,-17 37,-40 51,-67 14,-27 21,-59 21,-94 0,-29 -4,-54 -10,-75 -16,8 -35,19 -56,33 -21,14 -41,32 -60,53 -7,35 -20,63 -37,83 -18,20 -39,30 -62,30 -19,0 -34,-6 -45,-17 -11,-10 -17,-23 -19,-39 19,-17 35,-38 49,-63 13,-24 20,-55 20,-93 0,-17 -1,-32 -4,-46 -3,-13 -7,-26 -12,-38l-56 0 -20 0 -71 0 0 454c-5,1 -11,2 -20,4 -9,1 -17,1 -26,1 -18,0 -32,-3 -42,-9 -10,-7 -15,-19 -15,-38l0 -412 -46 0 -15 0 0 0 -60 0c-2,13 -5,26 -9,40 -5,13 -10,26 -16,38 -7,12 -14,23 -21,33 -8,10 -16,18 -24,24 21,13 39,31 55,54 15,23 23,53 23,88 0,28 -6,54 -18,78 -12,23 -28,43 -49,60 -22,16 -47,29 -77,39 -30,9 -63,14 -98,14 -69,0 -120,-13 -155,-37 -35,-25 -52,-56 -52,-93 0,-34 11,-60 35,-79 24,-19 55,-29 95,-29 23,0 44,3 63,9 19,6 37,14 53,24 15,11 29,22 41,36 12,14 22,29 31,45 9,-9 17,-20 22,-32 5,-13 8,-27 8,-41 0,-24 -6,-45 -17,-61 -12,-16 -25,-28 -40,-34 -19,4 -38,8 -58,10 -19,3 -41,4 -68,4 -41,0 -71,-4 -91,-12 -20,-8 -30,-24 -30,-46 0,-9 1,-17 4,-24 4,-8 7,-13 12,-17 42,2 82,2 120,3 38,1 76,2 113,3 9,-10 17,-23 26,-41 8,-17 14,-36 17,-56l-351 0 -10 0 -1 0 -72 0 0 163c0,18 -4,31 -11,39 -8,7 -21,11 -41,11l-123 0c-19,0 -36,3 -52,7 -15,5 -29,11 -41,19 -12,8 -22,17 -30,27 -8,10 -13,21 -16,31 8,25 27,45 55,59 29,15 62,23 100,23 37,0 68,-5 92,-15 24,-10 43,-21 57,-31 10,4 19,10 25,18 7,8 10,18 10,30 0,10 -3,20 -8,28 -5,8 -13,15 -22,21 -16,10 -38,19 -63,25 -26,7 -59,11 -97,11 -36,0 -68,-5 -98,-13 -29,-9 -55,-21 -77,-35 -22,-15 -41,-32 -55,-53 -14,-20 -24,-42 -30,-65 6,-27 19,-53 39,-78 19,-24 42,-43 70,-57 -22,-13 -41,-34 -58,-62 -17,-27 -27,-62 -30,-103l-127 0 0 454c-5,1 -12,2 -20,4 -9,1 -17,1 -26,1 -18,0 -32,-3 -42,-9 -10,-7 -15,-19 -15,-38l0 -412 -61 0c-12,0 -20,-3 -25,-10 -5,-6 -7,-16 -7,-28 0,-6 1,-13 2,-20 2,-7 3,-14 5,-19l85 0 0 -74c0,-56 16,-98 47,-128 31,-29 74,-43 129,-43 28,0 53,3 74,11 22,7 41,17 55,30 15,12 27,27 34,43 8,17 12,34 12,53 0,22 -5,39 -14,50 -10,11 -23,16 -40,16 -11,0 -20,-1 -29,-4 -8,-3 -15,-6 -21,-10 1,-4 1,-10 2,-16 0,-6 0,-12 0,-18 0,-20 -7,-37 -20,-51 -14,-13 -32,-19 -54,-19 -22,0 -39,7 -52,20 -13,14 -20,36 -20,66l0 74 579 0 11 0 516 0 14 0 74 0 0 -76c0,-29 -7,-50 -22,-64 -14,-13 -32,-20 -55,-20 -23,0 -41,7 -52,20 -12,14 -18,31 -18,50 0,6 0,12 0,18 1,6 1,12 2,16 -6,4 -13,7 -21,10 -9,3 -18,4 -28,4 -18,0 -31,-5 -41,-16 -10,-11 -15,-28 -15,-50 0,-19 4,-36 12,-53 7,-16 19,-31 33,-43 15,-13 33,-23 54,-30 22,-8 47,-11 75,-11 54,0 97,14 129,43 32,28 48,70 48,124l0 78 46 0 18 0 155 0c8,12 16,30 25,53 8,23 14,52 18,86 27,-22 56,-40 85,-55 30,-14 57,-25 82,-32 15,20 28,46 39,80 11,34 17,71 18,112l103 0 0 -194c0,-17 3,-30 11,-38 7,-8 20,-12 39,-12l343 0c21,0 31,13 31,39 0,6 -1,12 -2,20 -1,7 -2,13 -4,18l-85 0zm-1666 -1442c0,-8 1,-15 1,-21 0,-30 -9,-53 -27,-69 -19,-15 -44,-23 -76,-23 -17,0 -36,0 -58,2 -22,1 -43,2 -62,2 -74,0 -130,-16 -168,-50 -38,-33 -56,-74 -56,-124 0,-45 11,-77 35,-95 23,-18 50,-27 79,-27 15,0 28,2 41,7 13,4 23,9 32,15 -2,5 -3,12 -4,20 -1,8 -2,15 -2,20 0,50 32,76 94,76 22,0 45,-2 70,-6 25,-4 47,-6 68,-6 64,0 117,16 157,49 41,33 61,80 61,142 0,22 -2,42 -7,60 -3,11 -6,20 -8,28l206 0c21,0 36,6 45,19 9,14 13,32 13,57 0,12 -1,25 -3,39 -3,15 -6,26 -10,34l-236 0c-4,29 -9,60 -16,92 -7,31 -17,61 -31,90 27,9 52,21 76,37 24,16 45,36 63,60 18,23 33,50 44,82 11,31 17,66 17,105 0,46 -9,86 -25,121 -17,35 -38,64 -62,86 -25,23 -52,41 -81,53 -29,11 -56,17 -81,17 -35,0 -61,-10 -79,-29 -18,-20 -27,-43 -27,-69 0,-5 0,-11 0,-18 0,-8 1,-14 3,-20 17,-2 33,-6 51,-13 17,-6 32,-15 45,-27 13,-11 24,-27 32,-45 9,-19 13,-41 13,-66 0,-36 -8,-66 -24,-89 -17,-23 -36,-40 -58,-50 -26,30 -55,56 -88,79 -32,22 -64,37 -94,44 -29,-8 -60,-23 -93,-44 -33,-22 -62,-48 -89,-78 -21,11 -40,28 -57,51 -17,23 -25,52 -25,87 0,25 4,47 13,65 8,18 19,33 32,46 14,12 29,21 46,28 17,7 33,12 50,15 2,5 3,10 3,17 0,6 0,12 0,16 0,28 -10,51 -28,71 -19,19 -45,29 -79,29 -27,0 -55,-6 -84,-17 -29,-11 -56,-28 -80,-51 -25,-23 -45,-52 -61,-87 -15,-34 -23,-75 -23,-122 0,-39 5,-74 16,-105 11,-32 25,-59 43,-82 18,-24 39,-44 63,-60 23,-16 48,-28 74,-37 -13,-28 -25,-58 -33,-90 -9,-33 -14,-64 -16,-92l-163 0 -25 0 -1 0 -112 0 0 724c-8,2 -20,4 -38,7 -18,3 -35,5 -51,5 -36,0 -64,-6 -84,-19 -21,-12 -31,-37 -32,-75l0 -32c-20,8 -43,14 -69,19 -26,5 -54,7 -82,7 -105,0 -192,-22 -262,-65 -69,-44 -116,-100 -140,-171 7,-34 22,-68 46,-101 23,-33 51,-58 83,-75 -34,-19 -62,-48 -83,-87 -22,-39 -33,-84 -35,-137l-69 0c-20,0 -34,-7 -42,-20 -8,-13 -12,-32 -12,-58 0,-9 1,-22 3,-36 3,-15 6,-27 10,-35l664 0c1,-8 1,-15 1,-21 0,-30 -9,-53 -27,-69 -18,-15 -43,-23 -75,-23 -17,0 -36,0 -58,2 -22,1 -43,2 -63,2 -74,0 -130,-16 -167,-50 -38,-33 -57,-74 -57,-124 0,-45 12,-77 35,-95 24,-18 50,-27 79,-27 15,0 29,2 42,7 12,4 23,9 32,15 -2,5 -4,12 -5,20 -1,8 -1,15 -1,20 0,50 31,76 94,76 21,0 44,-2 69,-6 25,-4 48,-6 68,-6 65,0 117,16 158,49 41,33 61,80 61,142 0,22 -3,42 -8,60 -2,11 -5,20 -8,28l91 0 24 0 674 0zm-1112 633c56,0 103,-9 141,-25l0 -151 -201 0c-37,0 -67,8 -88,24 -22,16 -37,36 -45,59 11,26 32,48 64,66 31,18 75,27 129,27zm-190 -484c2,42 10,76 25,102 14,26 29,44 45,55l261 0 0 -157 -331 0zm1169 270c35,-26 63,-63 84,-112 20,-50 32,-102 35,-158l-254 0c2,27 7,55 14,83 8,28 17,54 29,78 12,25 25,46 41,65 16,20 33,34 51,44zm-3421 2728l-416 1357 1052 -976c346,149 727,232 1128,232 1101,0 2056,-626 2528,-1542l-321 0c-446,755 -1267,1261 -2207,1261 -1042,0 -1939,-622 -2339,-1515 4,-11 7,-22 11,-33 18,-51 45,-103 113,-105 33,0 67,2 100,0 110,-6 220,-11 322,-59 79,-37 102,-94 76,-176 -28,-88 -29,-173 33,-250 6,-8 11,-17 15,-27 23,-51 7,-98 -46,-119 -34,-14 -72,-17 -108,-26 -23,-5 -46,-10 -69,-14 23,-20 48,-29 72,-40 29,-13 60,-23 87,-40 54,-34 67,-85 41,-143 -9,-20 -21,-38 -29,-58 -13,-31 -2,-59 27,-73 15,-8 31,-12 47,-19 135,-55 158,-140 69,-256 -28,-36 -61,-69 -93,-102 -49,-51 -102,-97 -148,-150 -79,-89 -116,-187 -57,-305 25,-51 -40,-498 -81,-704 470,-556 1172,-909 1957,-909 882,0 1660,446 2121,1124l332 0c-493,-841 -1407,-1406 -2453,-1406 -1570,0 -2843,1273 -2843,2843 0,904 422,1709 1079,2230zm-622 -1296c-113,-290 -175,-604 -175,-934 0,-586 197,-1127 528,-1558 37,208 87,543 75,576 -11,30 -26,60 -30,91 -6,35 -9,74 -2,109 22,116 98,199 179,279 58,58 117,115 169,178 44,53 35,75 -28,102 -15,7 -31,12 -46,18 -90,34 -121,137 -83,207 7,14 12,28 21,41 16,24 7,39 -16,48 -32,13 -65,23 -97,37 -32,15 -65,30 -92,52 -37,30 -37,76 2,101 40,26 86,42 132,57 30,11 64,12 95,17 -1,9 0,11 -1,13 -3,5 -5,9 -8,13 -74,94 -72,198 -43,306 15,57 11,70 -45,92 -14,5 -29,11 -44,13 -96,10 -193,24 -289,27 -81,2 -147,21 -189,93 -4,7 -9,14 -13,22zm2589 2122c-441,0 -863,-81 -1248,-227l-449 329c376,147 785,228 1213,228 754,0 1450,-252 2008,-675 -457,221 -975,345 -1524,345zm-2189 -770c-696,-570 -1136,-1408 -1136,-2342 0,-1718 1489,-3111 3325,-3111 136,0 270,7 402,22 -282,-78 -579,-119 -886,-119 -1837,0 -3325,1488 -3325,3325 0,1171 606,2201 1522,2794l98 -569zm823 -2056c-2,-140 -54,-268 -155,-377 -40,-43 -34,-91 18,-105 19,-5 52,6 66,21 138,143 202,316 190,514 -9,160 -70,301 -180,420 -28,30 -59,51 -98,19 -31,-24 -27,-61 10,-102 98,-109 148,-236 149,-390zm519 97c-2,149 -81,356 -238,532 -7,8 -14,15 -22,23 -29,30 -62,40 -94,8 -31,-31 -21,-63 7,-91 81,-85 145,-181 181,-293 96,-299 43,-569 -163,-806 -10,-11 -21,-20 -29,-31 -21,-27 -23,-57 4,-79 25,-22 57,-28 84,-2 27,27 53,55 76,85 127,167 195,356 194,654zm399 -85c-4,301 -105,564 -308,788 -11,11 -21,23 -33,33 -28,24 -57,26 -83,0 -27,-26 -26,-56 -3,-84 24,-30 53,-55 76,-85 244,-320 295,-670 154,-1047 -48,-126 -123,-234 -214,-333 -17,-17 -31,-49 -28,-72 7,-49 65,-58 105,-19 102,101 180,219 237,350 65,150 98,306 97,469zm1915 412l0 -129 -195 0c3,29 11,56 24,79 13,23 31,41 54,53 12,-2 25,-3 37,-3l80 0zm-26 -250c-14,0 -26,-4 -35,-12 -10,-9 -14,-24 -14,-47 0,-17 3,-33 9,-47 7,-13 16,-25 27,-35 12,-10 25,-17 40,-22 15,-5 32,-8 49,-8 17,0 34,3 49,8 15,5 28,13 39,23 11,10 20,22 27,35 6,14 9,29 9,46 0,23 -4,38 -13,47 -10,8 -21,12 -34,12 -13,0 -24,-4 -33,-12 2,-2 3,-7 4,-12 1,-5 1,-11 1,-15 0,-16 -5,-29 -14,-38 -10,-10 -21,-14 -35,-14 -14,0 -26,5 -35,14 -10,10 -14,22 -14,38 0,4 0,10 2,15 1,5 2,10 3,12 -9,8 -20,12 -32,12zm424 510c9,0 17,-1 26,-2 9,-1 17,-2 25,-5 -10,-24 -25,-43 -44,-56 -19,-13 -40,-20 -64,-20 -11,0 -21,3 -29,8 -8,6 -12,14 -12,26 0,14 8,25 24,34 15,10 40,15 74,15z"/>
   <path class="fil22" d="M11553 9396c-7,-9 -12,-20 -13,-34 20,-17 37,-40 51,-67 11,-22 17,-46 20,-73 0,8 1,17 1,25 0,36 -7,67 -21,95 -11,21 -23,39 -38,54zm-216 -94c-8,-9 -12,-20 -14,-33 19,-17 35,-38 49,-63 10,-19 17,-42 19,-70 1,8 1,15 1,24 0,37 -7,68 -20,93 -11,18 -22,35 -35,49zm-376 -118c10,9 20,21 29,34 15,23 23,53 23,88 0,7 0,15 -1,22 -3,-24 -10,-46 -22,-63 -16,-24 -34,-42 -55,-54 8,-6 16,-14 24,-24l2 -3zm-395 205c-2,-7 -2,-15 -2,-22 0,-34 11,-60 35,-79 18,-15 40,-24 67,-27 17,3 38,4 63,4l18 0 10 3c19,6 37,14 53,24 15,11 29,22 41,36 12,14 22,29 31,45 9,-9 17,-20 22,-32 3,-6 5,-13 6,-19 1,7 2,16 2,24 0,15 -3,29 -8,41 -5,13 -13,24 -22,32 -9,-16 -19,-31 -31,-44 -12,-14 -26,-26 -41,-36 -16,-10 -34,-18 -53,-24 -19,-6 -40,-9 -63,-9 -40,0 -71,9 -95,28 -18,15 -29,33 -33,55zm46 -205c-3,-7 -4,-14 -4,-23 0,-9 1,-17 4,-24 4,-8 7,-13 12,-17 42,2 82,2 120,3 38,1 76,2 113,3 9,-10 17,-23 26,-41l4 -9 13 0c-3,20 -9,39 -17,56 -9,17 -17,31 -26,40 -37,-1 -75,-2 -113,-2 -38,-1 -78,-2 -120,-3 -5,3 -8,9 -12,16l0 1zm-449 165c10,14 25,26 44,36 29,15 62,23 100,23 37,0 68,-5 92,-15 24,-10 43,-21 57,-31 10,4 19,10 25,18 7,8 10,18 10,30 0,8 -2,16 -5,23 -1,-2 -3,-4 -5,-6 -6,-8 -15,-14 -25,-18 -14,10 -33,20 -57,30 -24,10 -55,15 -92,15 -38,0 -71,-7 -100,-22 -28,-15 -47,-35 -55,-59 2,-8 6,-16 11,-24zm-115 3c-2,-8 -5,-15 -7,-23 6,-27 19,-53 39,-78 11,-14 24,-27 38,-37 10,11 21,19 32,26 -28,14 -51,33 -70,58 -14,17 -25,35 -32,54zm-306 -340c-2,-6 -3,-13 -3,-21 0,-6 1,-13 2,-20 2,-7 3,-14 5,-19l85 0 0 47 -85 0c-1,4 -3,8 -4,13zm89 -90l0 -44c0,-56 16,-98 47,-128 31,-29 74,-43 129,-43 28,0 53,3 74,11 22,7 41,17 55,30 15,12 27,27 34,43 8,17 12,34 12,53 0,8 -1,16 -2,23 -2,-10 -5,-20 -10,-29 -7,-17 -19,-31 -34,-44 -14,-12 -33,-22 -55,-30 -21,-7 -46,-11 -74,-11 -55,0 -98,15 -129,44 -31,29 -46,70 -47,125zm248 -25l-1 -1 1 -3 0 4zm-145 55l164 0 1 0c9,3 18,4 29,4 9,0 17,-1 23,-4l170 0c6,2 12,3 18,3 6,0 11,-1 16,-3l120 0c5,2 11,3 17,3 6,0 12,-1 17,-3l4 0 11 0 385 0c7,3 15,4 25,4 10,0 19,-1 28,-4l1 0 77 0 14 0 74 0 0 47 -74 0 -14 0 -516 0 -11 0 -579 0 0 -47zm1048 -59l1 3 -1 1 0 -4zm-102 -26c-1,-7 -2,-15 -2,-23 0,-19 4,-36 12,-53 7,-16 19,-31 33,-43 15,-13 33,-23 54,-30 22,-8 47,-11 75,-11 54,0 97,14 129,43 32,28 48,70 48,124l0 44c0,-53 -16,-94 -48,-122 -32,-29 -75,-43 -129,-43 -28,0 -53,4 -75,11 -21,8 -39,18 -54,30 -14,13 -26,27 -33,44 -5,9 -8,19 -10,29zm349 85l46 0 18 0 155 0c8,12 16,30 25,53 8,23 14,52 18,86 27,-22 56,-40 85,-55 30,-14 57,-25 82,-32 15,20 28,46 39,80 11,34 17,71 18,112l103 0 0 47 -103 0c-1,-41 -7,-79 -18,-112 -11,-34 -24,-61 -39,-81 -25,8 -52,18 -82,33 -29,14 -58,32 -85,54 -4,-34 -10,-62 -18,-86 -9,-23 -17,-41 -25,-52l-155 0 -18 0 -46 0 0 -47zm589 95l0 -45c0,-17 3,-30 11,-38 7,-8 20,-12 39,-12l343 0c21,0 31,13 31,39 0,6 -1,12 -2,20l-1 6c-4,-12 -14,-18 -28,-18l-343 0c-19,0 -32,4 -39,12 -7,7 -11,20 -11,36zm-1778 -1721c-1,-7 -1,-15 -1,-22 0,-45 11,-77 35,-95 23,-18 50,-27 79,-27 15,0 28,2 41,7 13,4 23,9 32,15 -2,5 -3,12 -4,20 -1,8 -2,15 -2,20l0 3c-7,-4 -16,-8 -26,-12 -13,-4 -26,-6 -41,-6 -29,0 -56,9 -79,27 -19,14 -30,38 -34,70zm183 -61c8,37 38,55 91,55 22,0 45,-2 70,-6 25,-4 47,-6 68,-6 64,0 117,16 157,49 41,33 61,80 61,142 0,8 0,16 -1,24 -4,-51 -24,-91 -60,-119 -40,-33 -93,-49 -157,-49 -21,0 -43,2 -68,5 -25,4 -48,6 -70,6 -62,0 -94,-25 -94,-76 0,-5 1,-11 2,-20l1 -5zm444 322l194 0c21,0 36,6 45,19 9,14 13,32 13,57 0,7 0,15 -1,24 -2,-14 -6,-25 -12,-34 -9,-13 -24,-20 -45,-20l-206 0c2,-8 5,-17 8,-27 2,-6 3,-13 4,-19zm-27 337c20,8 40,18 59,31 24,16 45,36 63,60 18,23 33,50 44,82 11,31 17,66 17,105 0,8 -1,15 -1,23 -2,-30 -7,-57 -16,-82 -11,-31 -26,-59 -44,-82 -18,-23 -39,-43 -63,-59 -24,-16 -49,-29 -76,-38 7,-13 12,-26 17,-40zm-171 472c-1,-5 -1,-10 -1,-15 0,-5 0,-11 0,-18 0,-8 1,-14 3,-20 17,-2 33,-6 51,-13 17,-6 32,-15 45,-27 13,-11 24,-27 32,-45 6,-13 10,-27 11,-43 1,7 2,15 2,23 0,26 -4,48 -13,66 -8,19 -19,34 -32,46 -13,11 -28,21 -45,27 -18,6 -34,10 -51,12 -1,3 -1,5 -2,7zm-384 -181c2,16 6,30 12,42 8,18 19,33 32,46 14,12 29,21 46,28 17,7 33,12 50,15 2,5 3,10 3,17 0,6 0,12 0,16 0,7 -1,12 -2,18 0,-2 -1,-3 -1,-5 -17,-3 -33,-8 -50,-14 -17,-7 -32,-17 -46,-29 -13,-12 -24,-27 -32,-45 -9,-18 -13,-40 -13,-66 0,-8 1,-15 1,-23zm-211 10c-1,-7 -1,-15 -1,-23 0,-39 5,-74 16,-105 11,-32 25,-59 43,-82 18,-24 39,-44 63,-60 18,-12 37,-23 57,-31 5,14 11,28 17,40 -26,9 -51,22 -74,38 -24,16 -45,36 -63,59 -18,23 -32,51 -43,82 -8,25 -14,53 -15,82zm-905 -69c-3,-7 -5,-13 -8,-20 7,-34 22,-68 46,-101 15,-21 31,-38 49,-53 11,10 22,18 34,25 -32,16 -60,41 -83,75 -17,24 -30,49 -38,74zm-119 -473c-1,-8 -1,-16 -1,-25 0,-9 1,-22 3,-36 3,-15 6,-27 10,-35l663 0c1,8 2,16 2,26 0,6 0,13 -1,20l-664 0c-4,9 -7,21 -10,35l-2 15zm231 -357c0,-7 -1,-15 -1,-22 0,-45 12,-77 35,-95 24,-18 50,-27 79,-27 15,0 29,2 42,7 12,4 23,9 32,15 -2,5 -4,12 -5,20 -1,8 -1,15 -1,20l0 3c-8,-4 -16,-8 -26,-12 -13,-4 -27,-6 -42,-6 -29,0 -55,9 -79,27 -19,14 -30,38 -34,70zm183 -61c8,37 39,55 92,55 21,0 44,-2 69,-6 25,-4 48,-6 68,-6 65,0 117,16 158,49 41,33 61,80 61,142 0,8 -1,16 -1,23 -5,-50 -25,-90 -60,-118 -41,-33 -93,-49 -158,-49 -20,0 -43,2 -68,5 -25,4 -48,6 -69,6 -63,0 -94,-25 -94,-76 0,-5 0,-11 1,-20l1 -5zm445 322l78 0 24 0 672 0c2,8 3,16 3,26 0,6 -1,13 -1,20l-674 0 -24 0 -91 0c3,-8 6,-17 8,-27 2,-6 4,-13 5,-19zm-336 633c56,0 103,-9 141,-25l0 46c-38,17 -85,25 -141,25 -54,0 -98,-9 -129,-27 -32,-18 -53,-40 -64,-65 3,-9 7,-17 12,-25 12,16 29,31 52,44 31,18 75,27 129,27zm-185 -437c4,21 11,39 20,55 14,26 29,44 45,55l261 0 0 46 -261 0c-16,-10 -31,-29 -45,-55 -15,-25 -23,-59 -25,-101l5 0zm1164 223c35,-26 63,-63 84,-112 15,-36 25,-73 30,-111l5 0c-3,55 -15,108 -35,157 -21,49 -49,87 -84,112 -18,-10 -35,-24 -51,-43 -16,-19 -29,-41 -41,-65 -12,-25 -21,-51 -29,-79 -7,-28 -12,-55 -14,-82l6 0c2,12 5,24 8,36 8,28 17,54 29,78 12,25 25,46 41,65 16,20 33,34 51,44zm-3432 2765l-405 1320 20 -19 396 -1291 -11 -10zm4279 -919c8,-16 16,-31 24,-47l-321 0c-446,755 -1267,1261 -2207,1261 -1034,0 -1925,-613 -2330,-1496 -3,9 -6,18 -9,27 400,893 1297,1516 2339,1516 940,0 1761,-507 2207,-1261l297 0zm-4213 -593c4,-23 2,-51 -8,-81 -9,-28 -15,-55 -18,-82 -3,41 4,84 18,128 4,13 7,24 8,35zm47 -378c11,-44 -7,-81 -53,-99 -34,-14 -72,-17 -108,-26l-10 -2c-20,9 -40,18 -59,34 23,5 46,10 69,15 36,8 74,12 108,25 28,12 46,30 53,53zm-20 -285c6,-23 3,-49 -10,-77 -9,-20 -21,-38 -29,-58l0 -1c-7,14 -7,30 0,48 8,19 20,38 29,57 5,11 8,21 10,31zm155 -337c9,-42 -8,-90 -51,-146 -28,-36 -61,-69 -93,-102 -49,-51 -102,-97 -148,-150 -47,-52 -78,-107 -85,-168 -8,79 27,149 85,214 46,53 99,100 148,150 32,33 65,66 93,103 28,36 45,69 51,99zm-344 -733c6,-107 -42,-443 -79,-636l-7 9c32,163 81,479 86,627zm4296 -459l28 0c-493,-841 -1407,-1406 -2453,-1406 -1570,0 -2843,1273 -2843,2843l0 30c9,-1562 1278,-2826 2843,-2826 1026,0 1926,544 2425,1359zm-4811 2371c-111,-283 -172,-590 -175,-911l0 24c0,329 62,644 175,933 4,-7 9,-14 13,-22 42,-72 108,-91 189,-93 96,-2 193,-16 289,-27 15,-1 30,-7 44,-13 51,-19 59,-32 49,-78 -7,13 -22,21 -49,32 -14,5 -29,11 -44,13 -96,10 -193,24 -289,27 -81,2 -147,21 -189,93 -4,7 -9,14 -13,22zm428 -1918l0 2c-11,30 -26,60 -30,91 -5,28 -8,59 -5,88 1,-14 3,-28 5,-42 4,-31 19,-60 30,-90 2,-7 2,-24 0,-49zm335 732c-8,10 -24,20 -47,29 -15,7 -31,12 -46,18 -73,27 -108,101 -97,165 8,-50 41,-98 97,-119 15,-6 31,-11 46,-17 51,-22 67,-41 47,-76zm-159 336c-3,3 -7,5 -12,7 -32,13 -65,23 -97,37 -32,15 -65,30 -92,52 -26,21 -34,50 -22,74 4,-9 11,-19 22,-27 27,-22 60,-37 92,-52 32,-15 65,-24 97,-37 23,-10 32,-25 16,-48l-4 -6zm6 314c-40,59 -52,122 -48,187 4,-55 22,-108 61,-157 3,-4 5,-9 8,-13 1,-3 0,-5 1,-13 -7,-2 -14,-3 -22,-4zm1979 2658c-441,0 -863,-81 -1248,-227l-449 329 42 16 407 -299c385,147 807,228 1248,228 479,0 934,-95 1345,-265 61,-41 120,-83 179,-127 -457,221 -975,345 -1524,345zm-2189 -770c-689,-564 -1126,-1390 -1135,-2312l-1 17c0,930 437,1765 1129,2336l7 -41zm2292 -5452c101,3 201,10 299,21 -282,-78 -579,-119 -886,-119 -1837,0 -3325,1488 -3325,3325l0 29c9,-1829 1494,-3308 3325,-3308 200,0 397,18 587,52zm-1645 2988c-14,-33 0,-63 39,-74 19,-5 52,6 66,21 133,138 197,303 191,492 -5,-169 -69,-319 -191,-445 -14,-16 -47,-26 -66,-21 -19,5 -32,15 -39,27zm1 883c-12,-24 -3,-53 26,-85 92,-103 142,-221 148,-364l1 20c-1,155 -51,282 -149,390 -12,14 -20,26 -26,39zm694 -378l0 10c-5,-277 -72,-457 -194,-618 -23,-30 -49,-58 -76,-84 -27,-27 -59,-20 -84,2 -6,5 -11,10 -14,16 -10,-23 -7,-45 14,-63 25,-22 57,-28 84,-2 27,27 53,55 76,85 127,167 195,356 194,654zm-367 546c-14,-25 -3,-51 20,-74 81,-85 145,-181 181,-293 28,-87 43,-172 46,-255 3,97 -13,197 -46,301 -36,112 -100,209 -181,293 -9,9 -16,18 -20,28zm766 -631l-1 13c-3,-151 -36,-296 -96,-435 -57,-131 -135,-249 -237,-350 -35,-35 -85,-32 -101,4 -4,-11 -5,-22 -4,-32 7,-49 65,-58 105,-19 102,101 180,219 237,350 65,150 98,306 97,469zm-439 802c-10,-21 -5,-44 12,-65 24,-30 53,-55 76,-85 149,-196 226,-403 231,-620 6,234 -72,457 -231,666 -23,30 -52,56 -76,86 -5,6 -9,12 -12,18zm2168 -472c4,11 9,22 15,32 13,23 31,41 54,53 12,-2 25,-3 37,-3l80 0 0 46 -80 0c-12,0 -25,1 -37,3 -23,-12 -41,-29 -54,-53 -13,-23 -21,-49 -24,-78l9 0zm113 -204c-2,-6 -2,-14 -2,-23 0,-17 3,-33 9,-47 7,-13 16,-25 27,-35 12,-10 25,-17 40,-22 15,-5 32,-8 49,-8 17,0 34,3 49,8 15,5 28,13 39,23 11,10 20,22 27,35 6,14 9,29 9,46 0,9 0,17 -2,24 -1,-8 -4,-16 -7,-23 -7,-14 -16,-26 -27,-36 -11,-9 -24,-17 -39,-22 -15,-6 -32,-8 -49,-8 -17,0 -34,2 -49,7 -15,5 -28,13 -40,23 -11,9 -20,21 -27,35 -3,7 -6,15 -7,23zm170 27l-3 -3 2 -3c0,2 1,4 1,6zm-92 -6l1 3 -3 3c0,-2 1,-4 2,-6zm393 525c8,0 16,-1 25,-1 10,11 19,25 26,41 -8,2 -16,4 -25,5 -9,1 -17,1 -26,1 -34,0 -59,-5 -74,-14 -16,-10 -24,-21 -24,-34 0,-11 3,-19 9,-24 4,4 9,8 15,11 15,10 40,15 74,15z"/>
  </g>
 </g>
</svg>
