<?xml version="1.0" encoding="UTF-8"?>
<!DOCTYPE svg PUBLIC "-//W3C//DTD SVG 1.1//EN" "http://www.w3.org/Graphics/SVG/1.1/DTD/svg11.dtd">
<!-- Creator: CorelDRAW X7 -->
<svg xmlns="http://www.w3.org/2000/svg" xml:space="preserve" width="484px" height="611px" version="1.1" style="shape-rendering:geometricPrecision; text-rendering:geometricPrecision; image-rendering:optimizeQuality; fill-rule:evenodd; clip-rule:evenodd"
viewBox="0 0 19851 25049"
 xmlns:xlink="http://www.w3.org/1999/xlink">
 <defs>
  <style type="text/css">
   <![CDATA[
    .fil3 {fill:none}
    .fil5 {fill:#70342D}
    .fil22 {fill:#70352E}
    .fil15 {fill:#BD8617}
    .fil18 {fill:white}
    .fil16 {fill:#70342D;fill-rule:nonzero}
    .fil11 {fill:#F0E673;fill-rule:nonzero}
    .fil6 {fill:#FFEEC2;fill-rule:nonzero}
    .fil7 {fill:#FFF7EB;fill-rule:nonzero}
    .fil21 {fill:#FFFBC2;fill-rule:nonzero}
    .fil20 {fill:white;fill-rule:nonzero}
    .fil1 {fill:#FFF0D4;fill-rule:nonzero;fill-opacity:0.501961}
    .fil13 {fill:url(#id0)}
    .fil10 {fill:url(#id1)}
    .fil12 {fill:url(#id2)}
    .fil8 {fill:url(#id3)}
    .fil2 {fill:url(#id4)}
    .fil4 {fill:url(#id5)}
    .fil9 {fill:url(#id6)}
    .fil14 {fill:url(#id7)}
    .fil0 {fill:url(#id8)}
    .fil17 {fill:url(#id9)}
    .fil23 {fill:url(#id10);fill-rule:nonzero}
    .fil19 {fill:url(#id11);fill-rule:nonzero}
   ]]>
  </style>
  <linearGradient id="id0" gradientUnits="userSpaceOnUse" x1="9925.61" y1="5260.23" x2="9925.61" y2="16070">
   <stop offset="0" style="stop-opacity:1; stop-color:#F0E673"/>
   <stop offset="0.278431" style="stop-opacity:1; stop-color:#AF813C"/>
   <stop offset="0.501961" style="stop-opacity:1; stop-color:#7E3D30"/>
   <stop offset="1" style="stop-opacity:1; stop-color:#CC983B"/>
  </linearGradient>
  <linearGradient id="id1" gradientUnits="userSpaceOnUse" x1="9925.61" y1="2762.7" x2="9925.8" y2="17759.6">
   <stop offset="0" style="stop-opacity:1; stop-color:#F5E534"/>
   <stop offset="0.521569" style="stop-opacity:1; stop-color:#80210E"/>
   <stop offset="1" style="stop-opacity:1; stop-color:#DDB343"/>
  </linearGradient>
  <linearGradient id="id2" gradientUnits="userSpaceOnUse" x1="9930.64" y1="10002.9" x2="9930.64" y2="17146.7">
   <stop offset="0" style="stop-opacity:1; stop-color:#BD8617"/>
   <stop offset="0.568627" style="stop-opacity:1; stop-color:#DEBF61"/>
   <stop offset="1" style="stop-opacity:1; stop-color:#FFF9AB"/>
  </linearGradient>
  <linearGradient id="id3" gradientUnits="userSpaceOnUse" x1="1653.67" y1="8311.78" x2="1663.45" y2="11139.5">
   <stop offset="0" style="stop-opacity:1; stop-color:#ECDF56"/>
   <stop offset="1" style="stop-opacity:1; stop-color:#CC983B"/>
  </linearGradient>
  <linearGradient id="id4" gradientUnits="userSpaceOnUse" x1="4987.74" y1="19835.9" x2="9018.96" y2="17266.8">
   <stop offset="0" style="stop-opacity:1; stop-color:#B00205"/>
   <stop offset="1" style="stop-opacity:1; stop-color:red"/>
  </linearGradient>
  <linearGradient id="id5" gradientUnits="userSpaceOnUse" x1="9962.55" y1="879.44" x2="9962.55" y2="19806.7">
   <stop offset="0" style="stop-opacity:1; stop-color:#FFF9AB"/>
   <stop offset="0.211765" style="stop-opacity:1; stop-color:#E8DA3A"/>
   <stop offset="0.639216" style="stop-opacity:1; stop-color:#782211"/>
   <stop offset="1" style="stop-opacity:1; stop-color:#CF8D1B"/>
  </linearGradient>
  <linearGradient id="id6" gradientUnits="userSpaceOnUse" xlink:href="#id3" x1="18500.8" y1="8311.78" x2="18510.6" y2="11139.5">
  </linearGradient>
  <linearGradient id="id7" gradientUnits="userSpaceOnUse" x1="10509.9" y1="4393.13" x2="10510.1" y2="15589.3">
   <stop offset="0" style="stop-opacity:1; stop-color:#FFF9AB"/>
   <stop offset="1" style="stop-opacity:1; stop-color:#C18A3A"/>
  </linearGradient>
  <linearGradient id="id8" gradientUnits="userSpaceOnUse" x1="15001.3" y1="18186.7" x2="9998.62" y2="18911">
   <stop offset="0" style="stop-opacity:1; stop-color:red"/>
   <stop offset="1" style="stop-opacity:1; stop-color:#B00205"/>
  </linearGradient>
  <radialGradient id="id9" gradientUnits="userSpaceOnUse" gradientTransform="matrix(0.0133483 0.552826 -1.2451 0.00890098 29712 10645)" cx="9718.38" cy="16161.9" r="4645.58" fx="9718.38" fy="16161.9">
   <stop offset="0" style="stop-opacity:1; stop-color:#FEFEFE"/>
   <stop offset="0.85098" style="stop-opacity:1; stop-color:#EDD8A0"/>
   <stop offset="1" style="stop-opacity:1; stop-color:#DDB343"/>
  </radialGradient>
  <linearGradient id="id10" gradientUnits="userSpaceOnUse" x1="9087.42" y1="12218.8" x2="9087.47" y2="6843.26">
   <stop offset="0" style="stop-opacity:1; stop-color:#DDB343"/>
   <stop offset="1" style="stop-opacity:1; stop-color:#ECDF56"/>
  </linearGradient>
  <linearGradient id="id11" gradientUnits="userSpaceOnUse" x1="9389.3" y1="1787.98" x2="9389.3" y2="1089.08">
   <stop offset="0" style="stop-opacity:1; stop-color:#ECDF56"/>
   <stop offset="0.541176" style="stop-opacity:1; stop-color:#F3E971"/>
   <stop offset="1" style="stop-opacity:1; stop-color:#FBF38C"/>
  </linearGradient>
 </defs>
 <g id="Layer_x0020_1">
  <metadata id="CorelCorpID_0Corel-Layer"/>
  <g id="_698924784">
   <g>
    <path class="fil0" d="M9801 19242l-945 194 -261 53 -176 36 -158 32 -75 16 -23 5 76 130 1569 2726 1438 2498c81,126 175,155 288,53l1943 -2370c52,-98 130,-169 267,-181l3010 -502c198,-12 244,-112 139,-299l-1824 -3217 -61 -108 -9 -16 -33 -59 -25 -43 -32 6 -260 53 -140 29 -88 18 -4620 946z"/>
    <path class="fil1" d="M14498 18429l74 -43 -86 -147 -73 42 85 148zm-5915 1079l-74 42 85 149 74 -43 -85 -148zm170 296l-74 43 85 148 74 -43 -85 -148zm170 296l-74 43 85 148 74 -43 -85 -148zm171 297l-74 42 85 148 74 -42 -85 -148zm170 296l-74 42 85 148 74 -42 -85 -148zm170 296l-74 43 85 148 74 -43 -85 -148zm170 296l-74 43 85 148 74 -43 -85 -148zm171 296l-75 43 86 148 74 -42 -85 -149zm170 297l-74 42 85 148 74 -42 -85 -148zm170 296l-74 42 85 148 74 -42 -85 -148zm170 296l-74 43 85 148 74 -43 -85 -148zm170 296l-74 43 86 148 74 -43 -86 -148zm171 296l-74 43 85 148 74 -42 -85 -149zm170 297l-74 42 85 148 74 -42 -85 -148zm170 296l-74 42 85 148 74 -42 -85 -148zm170 296l-74 43 85 148 74 -43 -85 -148zm170 296l-74 43 85 148 75 -43 -86 -148zm105 248l65 55 110 -131 -66 -55 -109 131zm218 -262l66 55 110 -132 -66 -54 -110 131zm219 -262l66 54 109 -131 -65 -55 -110 132zm219 -263l66 55 109 -131 -65 -55 -110 131zm219 -262l66 55 109 -131 -65 -55 -110 131zm219 -262l66 55 109 -132 -65 -54 -110 131zm219 -262l66 54 109 -131 -65 -55 -110 132zm219 -263l66 55 109 -131 -65 -55 -110 131zm219 -262l66 55 109 -131 -65 -55 -110 131zm219 -262l13 11 30 54 163 -26 -13 -85 -179 29 -14 17zm361 -73l14 85 168 -27 -13 -85 -169 27zm338 -54l13 85 169 -27 -14 -85 -168 27zm337 -54l13 85 169 -27 -13 -85 -169 27zm337 -54l14 85 169 -27 -14 -85 -169 27zm338 -54l13 85 169 -27 -14 -85 -168 27zm337 -54l14 84 168 -27 -13 -84 -169 27zm337 -54l14 85 168 -27 -13 -85 -169 27zm338 -54l13 85 169 -27 -14 -85 -168 27zm279 -4l73 -42 -85 -148 -74 43 86 147zm-172 -295l74 -43 -86 -148 -73 43 85 148zm-171 -296l74 -43 -86 -147 -74 42 86 148zm-171 -295l73 -43 -85 -148 -74 43 86 148zm-172 -296l74 -43 -86 -148 -73 43 85 148zm-171 -296l74 -42 -86 -148 -74 43 86 147zm-171 -295l74 -43 -86 -148 -74 43 86 148zm-172 -296l74 -42 -85 -148 -74 43 85 147zm-171 -295l74 -43 -86 -148 -74 43 86 148zm-171 -296l74 -43 -86 -147 -74 42 86 148zm-172 -295l74 -43 -85 -148 -74 43 85 148z"/>
    <path class="fil2" d="M4674 18192c-651,1148 -1302,2296 -1952,3444 -106,187 -59,286 138,299 1004,167 2007,334 3011,501 137,13 215,84 267,182 647,790 1295,1580 1942,2370 113,102 208,72 289,-54 1027,-1784 2055,-3569 3082,-5354 -2259,-463 -4518,-925 -6777,-1388z"/>
    <path class="fil1" d="M5094 18385l-74 -42 85 -148 74 43 -85 147zm5915 1079l74 43 -85 148 -74 -43 85 -148zm-170 296l74 43 -85 148 -75 -43 86 -148zm-171 297l74 42 -85 148 -74 -42 85 -148zm-170 296l74 42 -85 148 -74 -42 85 -148zm-170 296l74 42 -85 149 -74 -43 85 -148zm-170 296l74 43 -85 148 -74 -43 85 -148zm-171 296l74 43 -85 148 -74 -42 85 -149zm-170 297l74 42 -85 148 -74 -42 85 -148zm-170 296l74 42 -85 148 -74 -42 85 -148zm-170 296l74 43 -85 148 -74 -43 85 -148zm-171 296l75 43 -86 148 -74 -43 85 -148zm-170 296l74 43 -85 148 -74 -42 85 -149zm-170 297l74 42 -85 148 -74 -42 85 -148zm-170 296l74 42 -85 149 -74 -43 85 -148zm-170 296l74 43 -86 148 -74 -43 86 -148zm-171 296l74 43 -85 148 -74 -43 85 -148zm-170 296l74 43 -85 148 -74 -43 85 -148zm-104 248l-65 55 -110 -131 66 -55 109 131zm-219 -262l-65 55 -110 -131 66 -55 109 131zm-219 -262l-65 54 -110 -131 66 -54 109 131zm-219 -263l-65 55 -110 -131 66 -55 109 131zm-219 -262l-65 55 -110 -131 66 -55 109 131zm-219 -262l-65 55 -110 -131 66 -55 109 131zm-218 -262l-66 55 -110 -132 66 -54 110 131zm-219 -262l-66 54 -109 -131 65 -55 110 132zm-219 -263l-66 55 -109 -131 65 -55 110 131zm-219 -262l-13 11 -31 54 -162 -26 13 -84 178 28 15 17zm-362 -73l-13 85 -169 -27 14 -85 168 27zm-337 -54l-13 85 -169 -27 13 -85 169 27zm-337 -54l-14 85 -168 -27 13 -85 169 27zm-338 -54l-13 85 -169 -27 14 -85 168 27zm-337 -54l-14 85 -168 -27 13 -85 169 27zm-337 -54l-14 85 -168 -27 13 -85 169 27zm-338 -54l-13 85 -169 -27 14 -85 168 27zm-337 -54l-13 85 -169 -27 13 -85 169 27zm-279 -3l-74 -43 86 -148 74 43 -86 148zm172 -296l-74 -43 85 -148 74 43 -85 148zm171 -296l-74 -42 86 -148 73 43 -85 147zm171 -295l-74 -43 86 -148 74 43 -86 148zm171 -296l-73 -43 85 -147 74 42 -86 148zm172 -295l-74 -43 86 -148 73 43 -85 148zm171 -296l-74 -43 86 -148 74 43 -86 148zm171 -296l-74 -42 86 -148 74 43 -86 147zm172 -295l-74 -43 85 -148 74 43 -85 148zm171 -296l-74 -42 86 -148 74 43 -86 147zm171 -295l-74 -43 86 -148 74 43 -86 148z"/>
   </g>
   <circle class="fil3" cx="9925" cy="9849" r="9849"/>
   <path class="fil4" d="M9925 0c5482,0 9926,4444 9926,9925 0,5482 -4444,9926 -9926,9926 -5481,0 -9925,-4444 -9925,-9926 0,-5481 4444,-9925 9925,-9925zm0 2707c3987,0 7219,3232 7219,7218 0,3987 -3232,7219 -7219,7219 -3986,0 -7218,-3232 -7218,-7219 0,-3986 3232,-7218 7218,-7218z"/>
   <path class="fil5" d="M1717 11585c-54,-272 -95,-547 -122,-823 -27,-276 -40,-554 -40,-831 0,-278 13,-556 40,-832 27,-276 68,-551 122,-823 9,-44 -20,-87 -64,-96 -45,-9 -88,20 -97,64 -55,277 -96,557 -124,839 -28,281 -42,564 -42,848 0,283 14,566 42,847 28,282 69,562 124,839 9,44 52,73 97,64 44,-9 73,-52 64,-96z"/>
   <path class="fil6" d="M9925 124c2707,0 5157,1097 6931,2871 1774,1773 2871,4224 2871,6930 0,2707 -1097,5157 -2871,6931 -1774,1774 -4224,2871 -6931,2871 -2706,0 -5157,-1097 -6930,-2871 -1774,-1774 -2871,-4224 -2871,-6931 0,-2706 1097,-5157 2871,-6930 1773,-1774 4224,-2871 6930,-2871zm6871 2931c-1759,-1758 -4188,-2846 -6871,-2846 -2683,0 -5112,1088 -6870,2846 -1758,1758 -2846,4187 -2846,6870 0,2683 1088,5112 2846,6871 1758,1758 4187,2845 6870,2845 2683,0 5112,-1087 6871,-2845 1758,-1759 2845,-4188 2845,-6871 0,-2683 -1087,-5112 -2845,-6870z"/>
   <path class="fil7" d="M9925 271c2666,0 5080,1080 6827,2827 1747,1748 2828,4161 2828,6827 0,2667 -1081,5080 -2828,6827 -1747,1747 -4160,2828 -6827,2828 -2666,0 -5079,-1081 -6827,-2828 -1747,-1747 -2827,-4161 -2827,-6827 0,-2666 1080,-5079 2827,-6827 1748,-1747 4161,-2827 6827,-2827zm6767 2888c-1732,-1732 -4124,-2803 -6767,-2803 -2642,0 -5034,1071 -6766,2803 -1732,1732 -2803,4124 -2803,6766 0,2643 1071,5035 2803,6767 1732,1732 4124,2803 6766,2803 2643,0 5035,-1071 6767,-2803 1732,-1732 2803,-4124 2803,-6767 0,-2642 -1071,-5034 -2803,-6766z"/>
   <path class="fil5" d="M18250 8276c54,272 95,547 122,823 27,276 40,554 40,832 0,277 -13,555 -40,831 -27,276 -68,551 -122,823 -9,44 20,87 64,96 45,9 88,-20 97,-64 55,-277 96,-557 124,-838 28,-282 42,-565 42,-848 0,-284 -14,-567 -42,-848 -28,-282 -69,-561 -124,-839 -9,-44 -52,-73 -97,-64 -44,9 -73,52 -64,96z"/>
   <path class="fil8" d="M1665 11580c-55,-272 -96,-547 -123,-823 -27,-276 -40,-554 -40,-832 0,-277 13,-555 40,-831 27,-276 68,-551 123,-823 8,-44 -20,-87 -65,-96 -44,-9 -88,20 -96,64 -56,277 -97,557 -125,838 -27,282 -41,565 -41,848 0,284 14,567 41,848 28,282 69,561 125,839 8,44 52,73 96,64 44,-9 73,-52 65,-96z"/>
   <path class="fil9" d="M18186 8271c54,272 95,547 123,823 27,276 40,554 40,831 0,278 -13,556 -40,832 -28,276 -69,551 -123,823 -9,44 20,87 65,96 44,9 87,-20 96,-64 55,-278 97,-557 124,-839 28,-281 42,-564 42,-848 0,-283 -14,-566 -42,-848 -27,-281 -69,-561 -124,-838 -9,-44 -52,-73 -96,-64 -45,9 -74,52 -65,96z"/>
   <circle class="fil10" cx="9925" cy="9925" r="7226"/>
   <path class="fil11" d="M15888 7594c-30,-80 -152,-60 -152,30 0,10 1,18 5,27 19,49 37,98 55,147 35,91 173,51 151,-47l-3 -8c-18,-50 -37,-100 -56,-149zm-11759 9c13,-35 2,-72 -28,-94 -44,-29 -98,-13 -119,35 -20,50 -39,99 -57,149 -31,81 76,149 136,76 5,-6 9,-13 12,-21 18,-48 37,-97 56,-145zm-245 739c23,-83 -94,-140 -145,-59 -3,7 -6,12 -8,20 -13,51 -26,103 -39,155 -21,96 120,140 153,40 13,-52 26,-104 39,-156zm-151 765c13,-95 -128,-128 -155,-28l-1 8c-7,53 -14,105 -19,158 -3,30 9,57 33,73 48,35 119,2 124,-56 5,-52 11,-104 18,-155zm-53 777c0,-83 -114,-111 -152,-32 -4,11 -6,20 -6,32 -1,53 0,106 1,159 4,101 148,104 157,4 2,-54 -1,-109 0,-163zm44 778c-13,-97 -158,-90 -158,12 5,54 14,112 22,166 2,17 12,35 25,47 56,49 141,4 131,-70 -7,-52 -14,-103 -20,-155zm140 766c-26,-98 -172,-65 -153,36 12,52 26,106 41,158 24,88 159,71 155,-27 -1,-6 -2,-10 -3,-16 -14,-50 -27,-100 -40,-151zm235 743c-30,-77 -148,-61 -152,27 0,12 1,20 5,31 19,50 39,99 59,148 16,37 56,57 95,46 45,-13 69,-64 51,-107 -20,-48 -39,-96 -58,-145zm325 709c-46,-84 -175,-28 -144,63 1,4 3,8 5,12 25,47 51,93 77,140 40,73 160,39 147,-53 -2,-10 -5,-17 -10,-26 -25,-37 -53,-95 -75,-136zm410 663c-47,-69 -162,-23 -141,65 3,10 6,17 13,26 30,44 62,87 94,129 58,75 173,5 134,-80 -2,-5 -5,-10 -8,-14 -31,-42 -62,-84 -92,-126zm490 606c-63,-66 -170,6 -128,90 4,7 7,11 12,17 36,39 72,78 109,116 66,67 175,-15 122,-100 -3,-3 -6,-7 -9,-10 -36,-37 -71,-75 -106,-113zm561 540c-51,-46 -136,-3 -129,66 1,21 12,41 28,54 40,35 81,69 123,102 38,30 91,21 116,-20 21,-33 13,-79 -17,-103 -41,-33 -81,-66 -121,-99zm625 465c-34,-21 -76,-15 -102,15 -32,35 -24,92 16,118 45,29 90,57 135,85 73,46 161,-46 101,-119 -5,-6 -11,-11 -18,-15 -44,-28 -88,-55 -132,-84zm678 384c-83,-40 -156,72 -83,133 5,4 9,7 15,9 48,24 96,46 144,68 88,38 155,-81 78,-136 -4,-3 -8,-6 -13,-8 -47,-21 -94,-43 -141,-66zm721 298c-92,-30 -147,95 -64,144 5,2 8,4 13,5 50,17 101,34 152,50 88,28 145,-96 62,-144 -5,-3 -10,-5 -15,-7 -50,-15 -99,-32 -148,-48zm751 206c-81,-19 -135,93 -57,144 9,5 15,8 25,10 52,11 105,21 157,31 92,16 133,-115 42,-152 -5,-2 -9,-3 -14,-4 -51,-9 -102,-19 -153,-29zm772 110c-91,-8 -122,123 -30,154 6,2 11,3 17,3 54,4 107,8 160,11 88,4 117,-119 31,-153 -7,-3 -15,-4 -23,-5 -52,-3 -104,-6 -155,-10zm778 13c-87,3 -104,130 -17,155 9,2 16,3 25,2 53,-2 107,-5 160,-9 95,-8 99,-149 -2,-158 -3,0 -7,0 -10,0 -52,4 -104,7 -156,10zm775 -85c-91,16 -85,152 13,157 5,0 10,-1 15,-2 52,-9 104,-18 157,-29 99,-23 73,-169 -29,-155 -52,10 -104,20 -156,29zm758 -181c-94,30 -60,171 39,153 52,-13 109,-33 160,-50 80,-26 69,-150 -24,-154 -10,0 -17,1 -26,4 -49,17 -99,33 -149,47zm730 -273c-79,34 -52,160 42,151 8,-1 15,-3 23,-6 48,-22 97,-45 145,-67 18,-9 31,-23 39,-42 27,-67 -42,-132 -107,-101 -47,22 -94,44 -142,65zm691 -361c-80,51 -23,172 67,142 5,-2 9,-4 15,-7 45,-27 90,-56 135,-84 71,-45 31,-157 -54,-145 -12,2 -21,5 -31,12 -44,28 -88,55 -132,82zm640 -444c-68,53 -11,166 77,136 8,-4 14,-7 21,-12 42,-34 83,-67 124,-101 24,-21 34,-51 25,-82 -15,-55 -82,-76 -126,-39 -40,33 -81,66 -121,98zm579 -521c-63,63 15,171 98,123 6,-3 10,-7 15,-12 38,-38 74,-77 111,-116 64,-72 -28,-173 -106,-116 -3,3 -6,5 -10,9 -35,38 -71,75 -108,112zm510 -589c-52,66 28,162 106,114 8,-5 14,-11 20,-19 32,-42 64,-85 95,-128 55,-80 -49,-168 -119,-103 -3,3 -7,7 -9,11 -31,42 -62,84 -93,125zm432 -648c-48,88 74,166 134,84 28,-46 55,-97 81,-145 45,-81 -66,-161 -130,-88 -3,4 -6,8 -8,13 -25,45 -51,90 -77,136zm348 -697c-35,81 75,152 135,79 5,-6 8,-11 11,-18 21,-49 40,-99 60,-148 33,-87 -83,-150 -138,-74 -3,5 -6,10 -9,16 -20,46 -39,98 -59,145zm260 -735c-10,34 4,69 34,88 44,27 104,5 117,-45 15,-52 28,-103 42,-155 21,-77 -79,-136 -137,-69 -8,10 -12,18 -16,30 -13,50 -26,101 -40,151zm165 -762c-11,85 98,125 144,55 6,-10 11,-20 12,-31 8,-53 16,-106 22,-159 12,-87 -112,-126 -151,-40 -2,7 -4,13 -5,21 -7,51 -14,103 -22,154zm70 -776c-4,83 113,114 150,36 5,-11 7,-20 7,-32 2,-53 3,-106 3,-160 0,-81 -110,-111 -150,-35 -5,12 -8,22 -8,35 0,52 -1,104 -2,156zm-28 -779c7,89 139,99 156,5 1,-7 2,-13 1,-20 -5,-53 -11,-106 -18,-159 -12,-95 -152,-92 -157,8 0,4 0,8 1,11 6,52 12,104 17,155zm-125 -769c22,93 165,76 156,-27l-2 -8c-12,-52 -24,-104 -37,-156 -27,-98 -172,-65 -154,36 12,52 25,103 37,155z"/>
   <path class="fil12" d="M9925 2677c2002,0 3814,812 5126,2123 1311,1312 2123,3124 2123,5125 0,2002 -812,3814 -2123,5126 -1312,1311 -3124,2123 -5126,2123 -2001,0 -3813,-812 -5125,-2123 -1311,-1312 -2123,-3124 -2123,-5126 0,-2001 812,-3813 2123,-5125 1312,-1311 3124,-2123 5125,-2123zm0 86c3956,0 7163,3207 7163,7162 0,3956 -3207,7163 -7163,7163 -3955,0 -7162,-3207 -7162,-7163 0,-3955 3207,-7162 7162,-7162z"/>
   <circle class="fil13" cx="9925" cy="9925" r="5576"/>
   <path class="fil14" d="M9925 4356c1538,0 2931,623 3939,1631 1007,1008 1631,2401 1631,3938 0,1538 -624,2931 -1631,3938 -1008,1008 -2401,1632 -3939,1632 -1537,0 -2930,-624 -3938,-1632 -1007,-1007 -1631,-2400 -1631,-3938 0,-1537 624,-2930 1631,-3938 1008,-1007 2401,-1631 3938,-1631zm0 85c3029,0 5484,2456 5484,5484 0,3029 -2455,5484 -5484,5484 -3028,0 -5483,-2455 -5483,-5484 0,-3028 2455,-5484 5483,-5484z"/>
   <path class="fil15" d="M9925 2677c4001,0 7244,3235 7244,7226 0,30 -1,60 -1,90 -49,-3950 -3272,-7136 -7243,-7136 -3970,0 -7194,3186 -7242,7136 0,-30 -1,-60 -1,-90 0,-3991 3243,-7226 7243,-7226z"/>
  </g>
  <path class="fil3" d="M17424 9925c0,4145 -3360,7505 -7505,7505 -4145,0 -7505,-3360 -7505,-7505"/>
  <path class="fil16" d="M14539 16796l220 376c-5,5 -13,13 -24,22 -10,8 -22,16 -33,23 -26,15 -49,22 -68,21 -19,-1 -36,-15 -52,-42l-186 -317 -84 50 0 0 -71 41c25,46 42,94 51,144 8,50 8,95 -2,136 31,2 63,12 96,30 34,18 62,47 86,87 25,43 38,86 39,128 1,42 -7,83 -26,121 -18,39 -45,76 -81,110 -36,35 -78,66 -126,94 -56,33 -105,55 -148,67 -44,12 -81,17 -111,15 -27,-1 -49,-6 -63,-15 -14,-8 -26,-19 -34,-33 -11,-20 -15,-38 -11,-56 4,-18 12,-33 22,-45 13,2 29,4 47,6 18,2 39,1 62,-1 24,-3 49,-8 76,-17 27,-8 55,-21 85,-39 36,-20 63,-42 84,-64 21,-22 35,-44 43,-67 7,-22 9,-44 6,-66 -3,-22 -10,-42 -21,-61 -13,-21 -27,-38 -45,-50 -17,-12 -34,-19 -52,-20 -19,24 -42,47 -69,69 -26,22 -55,43 -88,62 -65,38 -116,57 -153,58 -37,1 -65,-14 -83,-45 -8,-13 -13,-27 -15,-42 -2,-15 -1,-28 2,-37l325 -181c7,-27 5,-58 -5,-93 -10,-35 -24,-71 -43,-106l-503 295c-17,10 -33,11 -47,3l-127 57 209 462c31,68 34,132 8,192 -25,60 -83,111 -175,153 -47,21 -94,34 -142,38 -48,5 -93,1 -136,-11 -43,-13 -82,-34 -118,-63 -35,-30 -64,-69 -86,-117 -32,-71 -36,-136 -11,-195 25,-59 77,-106 155,-142l214 -97 -68 -152 -503 228c-28,12 -50,4 -67,-26 1,6 2,13 3,20 1,11 1,21 1,30l-119 33c16,63 24,127 26,192 2,65 -3,125 -16,181 35,34 65,73 89,116 24,43 41,84 52,123 13,47 14,80 2,101 -11,20 -32,34 -61,43 -14,4 -29,6 -43,7 -14,1 -27,0 -38,-3 -2,-15 -5,-29 -9,-44 -4,-14 -8,-29 -12,-45 -5,-18 -12,-38 -19,-62 -8,-23 -17,-47 -29,-70 -19,36 -48,70 -88,102 -40,32 -88,56 -144,72 -44,12 -85,17 -123,16 -39,-1 -73,-9 -104,-22 -31,-14 -58,-33 -79,-58 -22,-25 -37,-56 -47,-91 -10,-36 -13,-71 -7,-104 5,-32 17,-62 36,-90 19,-27 45,-51 77,-72 32,-21 68,-37 110,-49 56,-16 110,-20 161,-12 51,8 96,24 137,48 1,-34 -2,-72 -10,-114 -7,-42 -15,-81 -26,-119l-607 169 0 3 -392 73 25 137c43,2 84,9 124,22 40,13 76,31 108,54 32,24 59,53 82,88 23,34 38,74 47,120 8,42 8,80 2,115 -6,35 -17,65 -32,91 -14,26 -33,47 -54,62 -22,16 -44,26 -67,31 -30,5 -53,1 -71,-14 -17,-14 -28,-34 -33,-59l-2 -10c11,-5 23,-14 35,-24 12,-11 23,-24 32,-40 10,-15 17,-34 21,-55 4,-22 4,-47 -1,-75 -6,-29 -17,-54 -33,-77 -17,-22 -37,-41 -59,-55 -23,-15 -48,-25 -75,-32 -27,-7 -54,-9 -81,-7 -26,8 -51,20 -73,36 -23,16 -42,35 -57,57 -16,22 -27,46 -34,73 -7,26 -8,54 -2,82 5,28 13,51 25,69 12,19 25,34 40,45 14,12 29,20 44,26 16,5 29,9 42,11l1 10c5,23 3,45 -7,65 -9,20 -28,33 -59,39 -23,4 -47,3 -74,-4 -26,-6 -51,-18 -74,-37 -24,-18 -45,-42 -64,-73 -19,-30 -33,-67 -41,-111 -9,-45 -9,-88 0,-128 9,-40 24,-77 45,-111 20,-33 47,-63 79,-89 32,-26 67,-48 105,-65l-26 -137 -239 45 0 0 -3 1 -107 20c-10,2 -19,1 -27,-1l32 425c-7,3 -18,6 -31,9 -13,4 -27,6 -40,7 -30,2 -54,-1 -70,-11 -17,-9 -27,-29 -29,-60l-28 -367 -68 6 -137 10 20 274c3,31 -2,53 -13,66 -12,14 -33,22 -64,24l-391 30c6,48 17,88 35,119 17,31 38,56 64,74 26,17 54,30 85,36 31,6 63,8 96,6 28,-2 52,-7 73,-13 20,-6 38,-14 53,-23 15,-9 29,-19 39,-29 11,-11 21,-21 30,-30 17,4 32,14 45,28 13,14 21,30 22,48 2,31 -12,60 -44,87 -21,18 -49,33 -83,45 -35,13 -77,21 -126,24 -52,4 -103,2 -151,-8 -49,-9 -93,-27 -133,-54 -40,-26 -75,-62 -104,-108 -29,-46 -50,-104 -62,-174 -27,-2 -52,-12 -74,-30 -21,-18 -33,-44 -36,-78 -3,-42 8,-76 35,-102 27,-27 62,-42 105,-46 19,-1 37,0 54,4 16,5 29,10 38,17l13 75 327 -25 -17 -224 -611 46c-19,2 -33,-3 -42,-13l0 0 -3 7 -145 -17 -87 731c-7,1 -18,2 -33,2 -14,0 -28,-1 -41,-2 -30,-4 -52,-12 -67,-24 -14,-13 -20,-34 -16,-64l79 -663 -211 -25 -61 513c-9,74 -37,128 -85,164 -48,37 -116,49 -204,39 -48,-6 -91,-19 -130,-40 -39,-22 -71,-49 -97,-81 -26,-33 -45,-71 -56,-114 -12,-42 -14,-89 -8,-139 9,-80 39,-139 88,-178 49,-39 114,-54 194,-44l176 21 19 -160 -485 -58c-12,-1 -22,-5 -29,-12l-3 6 -143 -34 -168 717c-8,0 -19,0 -33,-2 -14,-1 -28,-3 -41,-6 -28,-7 -49,-17 -63,-31 -13,-14 -17,-36 -10,-65l82 -348 -180 -42 -70 300c-16,3 -36,4 -61,3 -25,-1 -53,-5 -83,-12 -97,-22 -177,-63 -239,-121 -63,-58 -101,-129 -114,-213 33,-28 62,-64 88,-107 27,-43 46,-90 58,-141 4,-19 8,-39 10,-60 3,-21 4,-42 4,-63l-120 -28c-33,-8 -45,-33 -35,-74 2,-9 5,-18 9,-29 4,-11 9,-21 15,-28l830 194c2,-8 4,-15 6,-22 15,-63 -12,-102 -80,-118 -19,-4 -39,-8 -62,-12 -22,-4 -44,-8 -65,-13 -69,-16 -118,-43 -145,-81 -28,-39 -36,-81 -25,-129 9,-37 25,-62 47,-73 23,-11 46,-14 69,-8 12,2 22,7 31,13 10,6 18,13 24,20 -3,5 -6,11 -9,19 -3,7 -5,14 -6,20 -12,52 14,85 79,100 21,5 44,9 70,11 26,3 49,7 70,11 61,15 107,41 137,79 29,39 38,85 25,138 -4,19 -10,37 -19,53 -4,9 -9,17 -13,23l119 28c8,2 15,5 20,9l1167 138c13,2 23,6 30,13l874 -67 0 0 400 -30c5,0 10,0 15,1l765 -144c3,0 6,-1 8,-1l873 -243c23,-6 41,-1 53,17 -3,-11 -5,-20 -6,-29l784 -355c17,-8 33,-7 46,1l714 -418 346 -202c29,-17 55,-7 76,29 5,8 9,17 14,29 4,11 7,21 8,29l-119 70zm-9112 545l-236 -150c-52,61 -100,100 -144,117 -43,17 -83,14 -119,-9 -26,-16 -42,-37 -49,-63 -7,-26 -5,-51 5,-74 41,-4 83,-22 128,-52 44,-30 89,-82 135,-154 18,-28 37,-62 56,-101 20,-39 34,-76 44,-110l-103 -65c-29,-18 -32,-45 -9,-81 5,-8 11,-16 19,-25 8,-8 15,-16 22,-22l547 348c5,-7 10,-13 14,-19 34,-54 22,-100 -37,-137 -17,-11 -35,-21 -55,-32 -20,-11 -39,-22 -57,-34 -60,-38 -97,-80 -110,-125 -13,-45 -7,-88 19,-129 21,-33 43,-50 68,-54 25,-3 48,2 68,15 10,6 18,14 25,23 7,9 12,18 16,27 -4,3 -9,8 -14,14 -6,7 -10,12 -13,17 -28,45 -14,86 42,121 18,12 39,23 62,34 24,11 44,22 62,33 53,34 88,74 103,120 16,46 9,92 -21,139 -10,16 -22,30 -35,43 -8,7 -14,13 -20,18l102 65c9,5 16,12 20,19l5 -5 821 412c31,16 37,43 18,81 -5,9 -11,18 -18,27 -7,9 -14,17 -20,22l-357 -179 -62 124c32,28 61,59 85,93 24,34 41,70 52,108 12,39 16,78 13,120 -3,41 -15,82 -36,124 -19,38 -42,69 -68,93 -26,23 -52,41 -80,53 -27,11 -55,17 -82,16 -26,0 -50,-6 -71,-16 -27,-14 -43,-31 -48,-53 -5,-23 -2,-45 9,-67l5 -9c12,1 26,2 43,1 16,-1 32,-5 49,-12 17,-7 34,-17 50,-32 17,-14 32,-34 45,-60 13,-26 19,-53 20,-81 0,-28 -4,-55 -14,-80 -9,-25 -22,-49 -40,-70 -17,-22 -37,-40 -60,-55 -25,-10 -52,-15 -80,-16 -27,-1 -54,3 -80,11 -26,8 -49,21 -71,37 -21,17 -39,39 -52,65 -12,25 -19,48 -21,70 -2,22 -1,42 4,60 4,18 11,34 20,47 9,14 18,25 26,34l-4 9c-11,21 -26,37 -46,48 -19,10 -42,8 -70,-6 -21,-10 -40,-26 -57,-47 -17,-21 -29,-46 -37,-75 -8,-28 -10,-61 -7,-96 4,-36 15,-74 35,-114 21,-41 47,-75 79,-102 31,-26 65,-46 102,-60 37,-14 76,-22 117,-24 41,-1 82,3 123,13l63 -125 -318 -160c-13,-6 -22,-15 -26,-26 -4,4 -8,7 -11,10l-124 -79 -394 622c-8,-3 -18,-7 -31,-13 -13,-6 -25,-12 -37,-19 -25,-17 -42,-33 -49,-51 -8,-17 -4,-39 12,-64l140 -221zm-157 -259l230 145 145 -229 -255 -162c-13,39 -30,79 -51,122 -20,42 -40,78 -58,106l-11 18zm2517 1104c7,-28 17,-47 31,-55 14,-8 35,-9 62,-3l254 60 42 -180 -496 -116c0,21 -1,43 -3,67 -2,23 -5,43 -8,59 -15,61 -34,112 -58,153 -24,40 -47,72 -69,95 9,32 29,62 62,91 33,29 76,50 129,62l54 -233zm1043 555c64,7 100,-21 108,-85l26 -218 -146 -17c-34,-5 -63,3 -86,21 -22,19 -36,49 -41,89 -3,29 -2,56 4,80 7,25 16,47 29,65 13,19 29,34 47,44 18,11 38,18 59,21zm3436 -402c41,-11 76,-32 105,-61 29,-30 49,-61 59,-93 -14,-12 -29,-23 -47,-31 -18,-9 -37,-15 -57,-20 -20,-4 -40,-6 -61,-6 -20,0 -40,3 -58,8 -45,12 -76,32 -94,58 -18,26 -23,54 -15,84 9,29 27,50 56,62 29,12 67,12 112,-1zm1129 -245c41,-18 67,-41 78,-67 11,-27 9,-57 -5,-90l-82 -180 -194 88c-38,18 -61,41 -70,69 -8,29 -5,58 8,88 13,29 30,51 50,68 21,18 43,30 68,37 24,7 49,9 75,7 25,-3 49,-9 72,-20z"/>
  <path class="fil17" d="M14539 16743l220 376c-5,5 -13,12 -24,21 -10,9 -22,17 -33,24 -26,15 -49,22 -68,21 -19,-1 -36,-15 -52,-42l-186 -317 -84 49 0 1 -71 41c25,46 42,94 51,144 8,50 8,95 -2,135 31,3 63,13 96,31 34,18 62,47 86,87 25,43 38,86 39,128 1,42 -7,82 -26,121 -18,39 -45,75 -81,110 -36,34 -78,66 -126,94 -56,32 -105,54 -148,66 -44,12 -81,18 -111,16 -27,-1 -49,-6 -63,-15 -14,-8 -26,-19 -34,-34 -11,-19 -15,-38 -11,-56 4,-18 12,-33 22,-45 13,3 29,5 47,7 18,1 39,1 62,-1 24,-3 49,-8 76,-17 27,-8 55,-21 85,-39 36,-20 63,-42 84,-64 21,-22 35,-45 43,-67 7,-22 9,-44 6,-66 -3,-22 -10,-42 -21,-61 -13,-21 -27,-38 -45,-50 -17,-13 -34,-19 -52,-20 -19,24 -42,47 -69,69 -26,22 -55,42 -88,61 -65,39 -116,58 -153,59 -37,1 -65,-14 -83,-45 -8,-13 -13,-27 -15,-43 -2,-15 -1,-27 2,-37l325 -180c7,-27 5,-58 -5,-94 -10,-35 -24,-70 -43,-105l-503 295c-17,9 -33,10 -47,2l-127 58 209 461c31,68 34,132 8,193 -25,60 -83,111 -175,153 -47,21 -94,34 -142,38 -48,5 -93,1 -136,-12 -43,-12 -82,-33 -118,-63 -35,-29 -64,-68 -86,-117 -32,-70 -36,-135 -11,-194 25,-59 77,-106 155,-142l214 -97 -68 -152 -503 227c-28,13 -50,4 -67,-25 1,6 2,12 3,19 1,12 1,22 1,31l-119 33c16,63 24,127 26,192 2,65 -3,125 -16,181 35,34 65,73 89,116 24,43 41,84 52,123 13,47 14,80 2,101 -11,20 -32,34 -61,42 -14,4 -29,7 -43,8 -14,1 -27,0 -38,-3 -2,-15 -5,-29 -9,-44 -4,-14 -8,-29 -12,-45 -5,-18 -12,-39 -19,-62 -8,-24 -17,-47 -29,-70 -19,36 -48,70 -88,102 -40,32 -88,56 -144,71 -44,13 -85,18 -123,17 -39,-2 -73,-9 -104,-22 -31,-14 -58,-33 -79,-58 -22,-26 -37,-56 -47,-91 -10,-37 -13,-71 -7,-104 5,-33 17,-63 36,-90 19,-27 45,-51 77,-72 32,-21 68,-38 110,-49 56,-16 110,-20 161,-12 51,8 96,24 137,48 1,-35 -2,-73 -10,-114 -7,-42 -15,-82 -26,-119l-607 169 0 2 -392 74 25 137c43,2 84,9 124,22 40,12 76,30 108,54 32,24 59,53 82,87 23,35 38,75 47,121 8,42 8,80 2,115 -6,34 -17,65 -32,90 -14,26 -33,47 -54,63 -22,16 -44,26 -67,30 -30,6 -53,1 -71,-13 -17,-15 -28,-34 -33,-59l-2 -10c11,-6 23,-14 35,-25 12,-10 23,-24 32,-39 10,-16 17,-34 21,-56 4,-21 4,-46 -1,-75 -6,-28 -17,-54 -33,-76 -17,-23 -37,-41 -59,-56 -23,-14 -48,-25 -75,-31 -27,-7 -54,-10 -81,-7 -26,7 -51,19 -73,35 -23,16 -42,36 -57,58 -16,22 -27,46 -34,72 -7,27 -8,54 -2,83 5,27 13,50 25,69 12,18 25,33 40,45 14,12 29,20 44,26 16,5 29,9 42,10l1 10c5,24 3,46 -7,66 -9,20 -28,33 -59,38 -23,5 -47,4 -74,-3 -26,-6 -51,-19 -74,-37 -24,-18 -45,-42 -64,-73 -19,-30 -33,-67 -41,-111 -9,-46 -9,-89 0,-129 9,-40 24,-76 45,-110 20,-33 47,-63 79,-89 32,-26 67,-48 105,-65l-26 -137 -239 45 0 0 -3 0 -107 20c-10,2 -19,2 -27,-1l32 426c-7,3 -18,5 -31,9 -13,3 -27,6 -40,7 -30,2 -54,-2 -70,-11 -17,-10 -27,-30 -29,-60l-28 -367 -68 5 -137 11 20 273c3,31 -2,54 -13,67 -12,14 -33,21 -64,24l-391 30c6,48 17,87 35,119 17,31 38,55 64,73 26,18 54,30 85,37 31,6 63,8 96,6 28,-3 52,-7 73,-13 20,-7 38,-14 53,-23 15,-9 29,-19 39,-29 11,-11 21,-21 30,-30 17,4 32,13 45,28 13,14 21,30 22,48 2,31 -12,60 -44,86 -21,18 -49,34 -83,46 -35,12 -77,20 -126,24 -52,4 -103,1 -151,-8 -49,-9 -93,-27 -133,-54 -40,-26 -75,-63 -104,-109 -29,-45 -50,-103 -62,-173 -27,-2 -52,-12 -74,-30 -21,-19 -33,-45 -36,-78 -3,-42 8,-76 35,-103 27,-26 62,-41 105,-45 19,-1 37,0 54,4 16,4 29,10 38,17l13 75 327 -25 -17 -225 -611 47c-19,1 -33,-3 -42,-13l0 -1 -3 8 -145 -17 -87 731c-7,1 -18,1 -33,2 -14,0 -28,-1 -41,-2 -30,-4 -52,-12 -67,-24 -14,-13 -20,-34 -16,-64l79 -663 -211 -25 -61 513c-9,73 -37,128 -85,164 -48,36 -116,49 -204,39 -48,-6 -91,-19 -130,-41 -39,-21 -71,-48 -97,-81 -26,-32 -45,-70 -56,-113 -12,-43 -14,-89 -8,-139 9,-80 39,-139 88,-178 49,-39 114,-54 194,-44l176 21 19 -161 -485 -57c-12,-2 -22,-6 -29,-12l-3 6 -143 -34 -168 717c-8,0 -19,-1 -33,-2 -14,-1 -28,-3 -41,-6 -28,-7 -49,-17 -63,-32 -13,-14 -17,-35 -10,-64l82 -348 -180 -42 -70 299c-16,4 -36,5 -61,4 -25,-1 -53,-5 -83,-12 -97,-23 -177,-63 -239,-121 -63,-59 -101,-130 -114,-213 33,-29 62,-64 88,-107 27,-43 46,-90 58,-141 4,-19 8,-39 10,-60 3,-22 4,-43 4,-64l-120 -28c-33,-7 -45,-32 -35,-73 2,-9 5,-19 9,-30 4,-11 9,-20 15,-27l830 194c2,-8 4,-16 6,-23 15,-62 -12,-101 -80,-117 -19,-4 -39,-8 -62,-12 -22,-4 -44,-8 -65,-13 -69,-16 -118,-44 -145,-82 -28,-38 -36,-81 -25,-128 9,-37 25,-62 47,-73 23,-11 46,-14 69,-8 12,2 22,7 31,13 10,6 18,13 24,20 -3,4 -6,11 -9,18 -3,8 -5,15 -6,20 -12,52 14,86 79,101 21,5 44,9 70,11 26,3 49,6 70,11 61,15 107,41 137,79 29,38 38,84 25,138 -4,19 -10,37 -19,53 -4,9 -9,17 -13,23l119 28c8,2 15,5 20,8l1167 139c13,2 23,6 30,13l874 -67 0 0 400 -30c5,-1 10,0 15,0l765 -143c3,-1 6,-1 8,-1l873 -243c23,-7 41,-1 53,17 -3,-11 -5,-21 -6,-29l784 -355c17,-8 33,-8 46,1l714 -418 346 -202c29,-17 55,-8 76,29 5,8 9,17 14,29 4,11 7,21 8,29l-119 70zm-9112 545l-236 -150c-52,61 -100,100 -144,117 -43,17 -83,14 -119,-9 -26,-16 -42,-37 -49,-63 -7,-27 -5,-51 5,-75 41,-4 83,-21 128,-51 44,-31 89,-82 135,-155 18,-28 37,-61 56,-100 20,-39 34,-76 44,-110l-103 -66c-29,-18 -32,-45 -9,-81 5,-7 11,-15 19,-24 8,-9 15,-16 22,-22l547 347c5,-6 10,-12 14,-19 34,-54 22,-99 -37,-137 -17,-10 -35,-21 -55,-32 -20,-11 -39,-22 -57,-33 -60,-38 -97,-80 -110,-125 -13,-45 -7,-88 19,-129 21,-33 43,-51 68,-54 25,-3 48,2 68,15 10,6 18,14 25,23 7,9 12,18 16,27 -4,3 -9,8 -14,14 -6,6 -10,12 -13,17 -28,45 -14,85 42,121 18,11 39,23 62,34 24,10 44,22 62,33 53,34 88,74 103,119 16,46 9,93 -21,139 -10,17 -22,31 -35,44 -8,7 -14,13 -20,17l102 65c9,6 16,12 20,19l5 -5 821 413c31,16 37,43 18,81 -5,8 -11,17 -18,27 -7,9 -14,16 -20,22l-357 -179 -62 124c32,28 61,58 85,93 24,34 41,70 52,108 12,38 16,78 13,119 -3,42 -15,83 -36,125 -19,38 -42,69 -68,92 -26,24 -52,42 -80,53 -27,12 -55,18 -82,17 -26,0 -50,-6 -71,-16 -27,-14 -43,-32 -48,-54 -5,-22 -2,-44 9,-67l5 -9c12,2 26,2 43,1 16,-1 32,-5 49,-11 17,-7 34,-17 50,-32 17,-14 32,-35 45,-60 13,-26 19,-53 20,-81 0,-28 -4,-55 -14,-80 -9,-26 -22,-49 -40,-71 -17,-21 -37,-40 -60,-54 -25,-10 -52,-15 -80,-16 -27,-1 -54,3 -80,11 -26,8 -49,20 -71,37 -21,17 -39,38 -52,64 -12,25 -19,49 -21,71 -2,22 -1,41 4,59 4,18 11,34 20,48 9,14 18,25 26,33l-4 10c-11,21 -26,37 -46,47 -19,11 -42,9 -70,-5 -21,-10 -40,-26 -57,-47 -17,-21 -29,-46 -37,-75 -8,-29 -10,-61 -7,-97 4,-35 15,-73 35,-113 21,-41 47,-75 79,-102 31,-26 65,-47 102,-61 37,-14 76,-21 117,-23 41,-1 82,3 123,13l63 -125 -318 -160c-13,-6 -22,-15 -26,-26 -4,4 -8,7 -11,10l-124 -79 -394 622c-8,-3 -18,-7 -31,-13 -13,-6 -25,-12 -37,-20 -25,-16 -42,-33 -49,-50 -8,-18 -4,-39 12,-64l140 -221zm-157 -260l230 146 145 -229 -255 -162c-13,39 -30,79 -51,122 -20,42 -40,78 -58,106l-11 17zm2517 1105c7,-29 17,-47 31,-55 14,-8 35,-9 62,-3l254 60 42 -180 -496 -116c0,21 -1,43 -3,67 -2,23 -5,43 -8,59 -15,61 -34,112 -58,153 -24,40 -47,72 -69,94 9,32 29,63 62,92 33,29 76,50 129,62l54 -233zm1043 554c64,8 100,-20 108,-85l26 -217 -146 -18c-34,-4 -63,3 -86,22 -22,19 -36,48 -41,89 -3,29 -2,55 4,80 7,25 16,46 29,65 13,19 29,33 47,44 18,11 38,18 59,20zm3436 -401c41,-11 76,-32 105,-62 29,-29 49,-60 59,-92 -14,-12 -29,-23 -47,-31 -18,-9 -37,-15 -57,-20 -20,-4 -40,-7 -61,-6 -20,0 -40,2 -58,8 -45,12 -76,31 -94,57 -18,27 -23,54 -15,84 9,30 27,51 56,63 29,12 67,12 112,-1zm1129 -245c41,-18 67,-41 78,-68 11,-27 9,-56 -5,-89l-82 -180 -194 88c-38,17 -61,40 -70,69 -8,29 -5,58 8,88 13,28 30,51 50,68 21,17 43,30 68,37 24,7 49,9 75,6 25,-2 49,-8 72,-19z"/>
  <path class="fil18" d="M14563 16782l196 337c-5,4 -11,11 -20,18l-200 -341 24 -14zm-302 177c14,33 24,67 31,102 5,33 7,64 5,93 -1,-13 -3,-26 -5,-40 -9,-50 -26,-98 -51,-144l20 -11zm37 238c28,3 57,13 88,30 34,18 62,47 86,87 25,43 38,86 39,128 1,11 0,23 -1,34 -4,-36 -17,-72 -38,-109 -24,-40 -52,-69 -86,-87 -33,-18 -65,-28 -96,-30 4,-17 7,-35 8,-53zm-383 588c-6,-14 -7,-27 -4,-41 4,-18 12,-33 22,-45 13,3 29,5 47,7 18,1 39,1 62,-1 24,-3 49,-8 76,-17 27,-8 55,-21 85,-39 36,-20 63,-42 84,-64 21,-22 35,-45 43,-67 2,-7 4,-13 5,-20l1 7c3,22 1,44 -6,66 -8,23 -22,45 -43,67 -21,22 -48,44 -84,64 -30,18 -58,31 -85,39 -27,9 -52,14 -76,17 -23,2 -44,3 -62,1 -18,-2 -34,-4 -47,-6 -8,9 -14,20 -18,32zm-102 -347c-1,-5 -2,-10 -3,-16 -2,-15 -1,-27 2,-37l325 -180 2 -8c3,22 2,43 -2,61l-324 180zm-381 -33l189 417c21,47 29,92 24,135 -3,-26 -11,-54 -24,-81l-209 -462 20 -9zm-485 523c-5,-38 0,-74 14,-108 25,-59 77,-106 155,-142l194 -88 20 44 -214 97c-78,36 -130,83 -155,142 -7,18 -12,36 -14,55zm-359 -164c9,47 14,94 15,142 1,18 1,35 0,52 -2,-64 -10,-128 -26,-191l11 -3zm8 331c31,32 58,68 80,108 24,43 41,84 52,123 11,38 13,67 8,87 -2,-10 -5,-21 -8,-34 -11,-39 -28,-80 -52,-123 -24,-43 -54,-82 -89,-116 4,-15 7,-30 9,-45zm-671 135c-2,-21 -2,-42 2,-62 5,-33 17,-63 36,-90 19,-27 45,-51 77,-72 32,-21 68,-38 110,-49 56,-16 110,-20 161,-12 50,8 95,23 135,46 2,20 3,38 2,55 -41,-24 -86,-40 -137,-48 -51,-8 -105,-4 -161,12 -42,12 -78,28 -110,49 -32,21 -58,45 -77,72 -19,28 -31,58 -36,90l-2 9zm-503 -174l16 86c43,2 84,9 124,22 40,12 76,30 108,54 32,24 59,53 82,87 23,35 38,75 47,121 6,33 8,64 5,92 -1,-13 -3,-26 -5,-39 -9,-46 -24,-86 -47,-120 -23,-35 -50,-64 -82,-88 -32,-23 -68,-41 -108,-54 -40,-13 -81,-20 -124,-22l-25 -137 9 -2zm135 631c-6,-11 -10,-22 -13,-35l-2 -10c11,-6 23,-14 35,-25 12,-10 23,-24 32,-39 10,-16 17,-34 21,-56l1 -5c3,22 3,41 -1,59 -4,21 -11,40 -21,55 -9,16 -20,29 -32,40 -7,6 -14,11 -20,16zm-344 -172l2 10c5,27 13,50 25,69 12,18 25,33 40,45 14,12 29,20 44,26 16,5 29,9 42,10l1 10c4,17 3,34 -1,49l0 -5c-13,-2 -26,-6 -42,-11 -15,-6 -30,-14 -44,-26 -15,-11 -28,-26 -40,-45 -12,-18 -20,-41 -25,-69 -4,-21 -5,-43 -2,-63zm-170 11c-3,-31 -1,-61 5,-90 9,-40 24,-76 45,-110 20,-33 47,-63 79,-89 29,-24 61,-44 96,-61l9 49c-38,17 -73,39 -105,65 -32,26 -59,56 -79,89 -21,34 -36,71 -45,111 -2,12 -4,24 -5,36zm-164 -372l28 371 -4 1 -28 -373 4 1zm-371 18l16 220c1,15 1,27 -1,38l-19 -258 4 0zm-443 393c7,25 15,48 26,67 17,31 38,55 64,73 26,18 54,30 85,37 31,6 63,8 96,6 28,-3 52,-7 73,-13 20,-7 38,-14 53,-23 15,-9 29,-19 39,-29 11,-11 21,-21 30,-30 17,4 32,13 45,28 13,14 21,30 22,48 1,11 0,22 -4,33 -4,-10 -10,-20 -18,-28 -13,-14 -28,-24 -45,-28 -9,9 -19,19 -30,30 -10,10 -24,20 -39,29 -15,9 -33,17 -53,23 -21,6 -45,11 -73,13 -33,2 -65,0 -96,-6 -31,-6 -59,-19 -85,-36 -26,-18 -47,-43 -64,-74 -18,-31 -29,-71 -35,-119l9 -1zm-278 -118c-1,-4 -2,-9 -2,-14 -3,-42 8,-76 35,-103 27,-26 62,-41 105,-45 19,-1 37,0 54,4 16,4 29,10 38,17l13 75 323 -25 4 53 -327 25 -13 -75c-9,-7 -22,-12 -38,-17 -17,-4 -35,-5 -54,-4 -43,4 -78,19 -105,46 -18,17 -29,39 -33,63zm-491 390c-2,-11 -3,-24 -1,-39l72 -610 7 0 -78 649zm-777 -309c-1,-24 -1,-50 3,-76 9,-80 39,-139 88,-178 49,-39 114,-54 194,-44l176 21 12 -108 7 1 -19 160 -176 -21c-80,-10 -145,5 -194,44 -49,39 -79,98 -88,178 -1,8 -2,15 -3,23zm-494 128c-5,-13 -6,-30 -1,-50l70 -298 12 3 -81 345zm-656 -439c-4,-14 -7,-29 -10,-44 33,-29 62,-64 88,-107 27,-43 46,-90 58,-141 4,-19 8,-39 10,-60l1 -11 3 1c0,21 -1,42 -4,63 -2,21 -6,41 -10,60 -12,51 -31,98 -58,141 -23,39 -50,71 -78,98zm-4 -469c-6,-12 -6,-28 -1,-48 2,-9 5,-19 9,-30 4,-11 9,-20 15,-27l830 194c2,-8 4,-16 6,-23l1 -2c4,16 4,34 -1,56 -2,7 -4,14 -6,22l-830 -194c-6,7 -11,17 -15,28 -3,9 -6,17 -8,24zm480 -220c-4,-21 -3,-43 2,-66 9,-37 25,-62 47,-73 23,-11 46,-14 69,-8 12,2 22,7 31,13 10,6 18,13 24,20 -3,4 -6,11 -9,18 -3,8 -5,15 -6,20l0 1 -9 -6c-9,-6 -19,-11 -31,-13 -23,-6 -46,-3 -69,8 -22,11 -38,36 -47,73l-2 13zm160 -28c9,25 35,43 77,53 21,5 44,9 70,11 26,3 49,6 70,11 61,15 107,41 137,79 26,34 36,74 29,120 -4,-25 -14,-47 -29,-67 -30,-38 -76,-64 -137,-79 -21,-4 -44,-8 -70,-11 -26,-2 -49,-6 -70,-11 -65,-15 -91,-48 -79,-100l2 -6zm371 374l95 22c8,2 15,5 20,8l1167 139c13,2 23,6 30,13l874 -67 0 0 400 -30c5,-1 10,0 15,0l765 -143c3,-1 6,-1 8,-1l873 -243c23,-7 41,-1 53,17 -3,-11 -5,-21 -6,-29l784 -355c17,-8 33,-8 46,1l714 -418 346 -202c29,-17 55,-8 76,29 5,8 9,17 14,29 4,11 7,21 8,29l-15 9c-2,-5 -4,-10 -7,-14 -21,-36 -47,-46 -76,-29l-346 202 -714 418c-13,-8 -29,-9 -46,-1l-784 355c1,9 3,18 6,29 -12,-18 -30,-23 -53,-17l-873 243c-2,0 -5,1 -8,1l-765 144c-5,-1 -10,-1 -15,-1l-400 30 0 0 -874 67c-7,-7 -17,-11 -30,-13l-1167 -138c-5,-4 -12,-7 -20,-9l-119 -28c4,-6 9,-14 13,-23 4,-8 8,-16 11,-24zm-3498 -695c-5,-25 -3,-48 6,-71 41,-4 83,-21 128,-51 44,-31 89,-82 135,-155 18,-28 37,-61 56,-100 12,-23 21,-45 29,-66l15 9c-10,34 -24,71 -44,110 -19,39 -38,73 -56,101 -46,72 -91,124 -135,154 -45,30 -87,48 -128,52 -2,5 -4,11 -6,17zm250 -567c-13,-17 -10,-39 7,-67 5,-7 11,-15 19,-24 8,-9 15,-16 22,-22l547 347c5,-6 10,-12 14,-19 6,-9 11,-19 14,-28 9,24 5,52 -14,82 -4,6 -9,12 -14,19l-547 -348c-7,6 -14,14 -22,22 -8,9 -14,17 -19,25 -3,4 -5,9 -7,13zm345 -130c-6,-39 1,-76 24,-111 21,-33 43,-51 68,-54 25,-3 48,2 68,15 10,6 18,14 25,23 7,9 12,18 16,27 -4,3 -9,8 -14,14l-6 7c-6,-7 -13,-13 -21,-18 -20,-13 -43,-18 -68,-15 -25,4 -47,21 -68,54 -12,19 -20,38 -24,58zm166 1c8,18 24,35 50,51 18,11 39,23 62,34 24,10 44,22 62,33 53,34 88,74 103,119 9,25 10,50 6,75 -2,-7 -3,-14 -6,-21 -15,-46 -50,-86 -103,-120 -18,-11 -38,-22 -62,-33 -23,-11 -44,-22 -62,-34 -49,-31 -66,-66 -50,-104zm235 459l68 43c9,6 16,12 20,19l5 -5 821 413c28,15 36,39 22,72 -5,-7 -12,-14 -22,-19l-821 -412 -5 5c-4,-7 -11,-14 -20,-19l-102 -65c6,-5 12,-11 20,-18 5,-4 9,-9 14,-14zm493 561c25,24 47,49 67,77 24,34 41,70 52,108 12,38 16,78 13,119l0 2c-2,-23 -6,-46 -13,-68 -11,-38 -28,-74 -52,-108 -24,-34 -53,-65 -85,-93l18 -37zm-251 527l-2 -6c-5,-22 -2,-44 9,-67l5 -9c12,2 26,2 43,1 16,-1 32,-5 49,-11 17,-7 34,-17 50,-32 17,-14 32,-35 45,-60 9,-20 15,-39 18,-60 2,11 2,21 2,32 -1,28 -7,55 -20,81 -13,26 -28,46 -45,60 -16,15 -33,25 -50,32 -17,7 -33,11 -49,12 -17,1 -31,0 -43,-1l-5 9c-3,6 -5,13 -7,19zm-198 -259c1,5 2,10 3,15 4,18 11,34 20,48 9,14 18,25 26,33l-4 10c-4,8 -9,15 -14,21l-8 -11c-9,-13 -16,-29 -20,-47 -5,-18 -6,-38 -4,-60l1 -9zm-172 -13c-2,-18 -1,-37 0,-58 4,-35 15,-73 35,-113 21,-41 47,-75 79,-102 31,-26 65,-47 102,-61 37,-14 76,-21 117,-23 41,-1 82,3 123,13l41 -83 22 11 -63 125c-41,-10 -82,-14 -123,-13 -41,2 -80,10 -117,24 -37,14 -71,34 -102,60 -32,27 -58,61 -79,102 -20,40 -31,78 -35,114l0 4zm-468 -179l-3 -6c-8,-18 -4,-39 12,-64l116 -183 24 15 -140 221c-4,6 -7,11 -9,17zm16 -536l206 131 121 -191 24 15 -145 229 -230 -145 11 -18c4,-6 9,-13 13,-21zm2493 1090c7,-29 17,-47 31,-55 14,-8 35,-9 62,-3l254 60 31 -129 11 2 -42 180 -254 -60c-27,-6 -48,-5 -62,3 -14,8 -24,27 -31,55l-54 233c-53,-12 -96,-33 -129,-62 -33,-29 -53,-59 -62,-91 5,-5 10,-11 16,-17 10,19 26,37 46,55 33,29 76,50 129,62l54 -233zm1043 554c64,8 100,-20 108,-85l20 -165 6 1 -26 218c-8,64 -44,92 -108,85 -21,-3 -41,-10 -59,-21 -18,-10 -34,-25 -47,-44 -13,-18 -22,-40 -29,-65 -6,-24 -7,-50 -4,-77 1,8 2,16 4,24 7,25 16,46 29,65 13,19 29,33 47,44 18,11 38,18 59,20zm3436 -401c41,-11 76,-32 105,-62 17,-17 31,-35 41,-53 7,5 12,9 18,14 -10,32 -30,63 -59,93 -29,29 -64,50 -105,61 -45,13 -83,13 -112,1 -29,-12 -47,-33 -56,-62 -5,-19 -5,-37 0,-54l0 0c9,30 27,51 56,63 29,12 67,12 112,-1zm1129 -245c41,-18 67,-41 78,-68 1,-3 3,-7 4,-10 5,23 4,44 -4,64 -11,26 -37,49 -78,67 -23,11 -47,17 -72,20 -26,2 -51,0 -75,-7 -25,-7 -47,-19 -68,-37 -20,-17 -37,-39 -50,-68 -12,-28 -15,-55 -9,-81 2,9 5,18 9,28 13,28 30,51 50,68 21,17 43,30 68,37 24,7 49,9 75,6 25,-2 49,-8 72,-19z"/>
  <g id="_254167144">
   <path class="fil16" d="M5833 2325c34,62 59,123 73,183 14,60 21,113 19,161 37,13 72,33 105,59 33,25 61,58 84,98 31,53 48,108 51,163 3,55 -7,110 -31,163 -23,53 -59,105 -107,154 -49,49 -109,94 -182,136 -70,41 -139,71 -207,90 -68,19 -123,26 -166,22 -31,-2 -55,-9 -72,-19 -18,-10 -32,-25 -43,-45 -15,-24 -20,-51 -16,-81 4,-29 15,-54 31,-75 46,7 100,7 162,0 63,-6 130,-30 203,-72 84,-49 139,-104 163,-166 24,-62 22,-118 -8,-169 -5,-9 -10,-17 -16,-24 -5,-7 -11,-13 -17,-18 -9,46 -33,92 -70,138 -37,46 -85,87 -146,122 -46,26 -90,45 -133,57 -43,12 -84,16 -123,13 -39,-4 -74,-15 -106,-35 -31,-19 -58,-47 -79,-84 -41,-71 -47,-142 -19,-213 28,-71 88,-133 179,-186 59,-34 116,-56 171,-66 56,-11 105,-13 149,-8 -6,-25 -15,-53 -28,-83 -12,-30 -26,-59 -41,-88l-670 388c-25,14 -46,17 -65,8 -18,-9 -35,-28 -51,-56 -7,-11 -13,-25 -20,-43 -7,-18 -10,-33 -10,-46l1005 -582c23,-13 43,-14 61,-5 18,10 34,28 49,54 8,13 15,29 21,47 6,18 10,32 12,43l-112 65zm-273 646c32,-19 60,-42 84,-70 23,-28 40,-60 50,-96 -37,-8 -74,-9 -112,-2 -38,7 -71,19 -99,35 -32,18 -52,38 -60,60 -8,23 -7,43 4,61 12,21 29,33 52,35 22,3 49,-5 81,-23zm669 -876l279 482c-10,8 -23,19 -39,33 -17,14 -35,27 -54,38 -40,23 -75,35 -106,34 -30,-1 -57,-23 -83,-68l-224 -387 -88 51c-25,14 -46,17 -64,9 -18,-9 -35,-26 -51,-53 -7,-12 -13,-28 -20,-46 -6,-19 -10,-34 -11,-47l453 -262c24,-14 45,-16 63,-8 19,9 36,28 51,55 7,12 14,27 21,45 7,18 11,33 12,44l-139 80zm1290 -458l294 880c-10,6 -24,14 -44,25 -20,10 -40,19 -62,26 -43,15 -80,18 -110,11 -29,-7 -52,-35 -68,-82l-96 -287 -328 110c33,193 -9,310 -128,350 -45,15 -88,14 -128,-4 -40,-17 -70,-44 -88,-80 32,-45 51,-103 57,-174 6,-71 -6,-152 -37,-243 -11,-36 -28,-77 -50,-124 -22,-47 -45,-87 -71,-121l-134 45c-27,9 -49,7 -65,-5 -16,-13 -29,-34 -39,-65 -4,-12 -8,-28 -11,-46 -3,-19 -3,-35 -1,-48l1158 -387c27,-9 48,-7 64,6 16,12 29,33 39,63 4,14 8,31 11,49 3,19 4,34 2,45l-165 56zm-151 377l-99 -294 -351 118c15,23 28,47 41,72 13,25 26,51 38,76 11,25 22,49 32,72 9,23 17,44 23,62l316 -106zm-173 563c-12,-36 -10,-69 6,-101 16,-32 43,-54 81,-67 38,-12 73,-11 104,5 31,16 52,42 64,78 12,35 11,69 -4,101 -15,32 -42,55 -80,68 -38,12 -73,10 -105,-6 -32,-16 -54,-42 -66,-78zm807 -1102l176 528c-11,6 -26,14 -45,25 -19,10 -39,19 -61,26 -44,15 -80,18 -110,12 -29,-7 -52,-35 -68,-83l-142 -424 -96 32c-27,9 -49,8 -65,-4 -16,-12 -29,-33 -38,-63 -5,-13 -8,-29 -11,-49 -3,-19 -3,-35 -2,-47l497 -167c26,-8 47,-7 63,6 16,12 29,33 39,63 5,13 8,29 12,49 3,19 4,34 2,46l-151 50zm1525 354l-314 24c-16,196 -86,299 -211,308 -47,4 -88,-8 -123,-35 -35,-27 -57,-60 -66,-99 43,-36 75,-88 99,-155 23,-67 31,-149 23,-245 -2,-37 -9,-81 -18,-132 -10,-51 -23,-96 -40,-135l-140 11c-29,2 -49,-5 -62,-21 -13,-16 -20,-40 -23,-72 0,-13 0,-29 2,-48 1,-19 5,-34 10,-46l1188 -90c29,-2 49,5 61,21 12,16 19,40 21,71 1,15 1,32 -1,51 -1,19 -4,33 -7,44l-176 13 71 925c-11,4 -28,8 -49,14 -22,5 -44,9 -66,10 -46,4 -83,-2 -110,-16 -27,-14 -42,-46 -46,-96l-23 -302zm-15 -206l-24 -309 -339 26c8,25 16,52 22,80 7,28 13,55 18,83 5,27 9,53 13,78 4,24 7,46 8,65l302 -23zm1349 675c-45,-4 -79,-14 -104,-33 -24,-18 -34,-52 -31,-102l25 -316 -319 -25c-21,102 -53,176 -96,224 -43,48 -94,69 -156,64 -53,-4 -94,-21 -121,-53 -27,-32 -42,-68 -44,-108 48,-29 88,-75 121,-139 33,-63 54,-143 61,-239 3,-40 4,-86 3,-137 -1,-50 -7,-95 -18,-134l-143 -11c-29,-2 -48,-12 -58,-29 -10,-18 -14,-43 -11,-76 1,-12 4,-28 8,-46 5,-19 10,-33 16,-44l391 30c12,22 24,50 35,83 12,34 21,72 29,115 8,42 14,89 17,139 3,51 3,103 -1,157l301 23 29 -373c2,-39 13,-67 32,-83 19,-17 49,-24 89,-21l266 20c27,2 46,12 56,30 10,18 13,42 11,73 -1,15 -4,32 -9,50 -6,19 -10,33 -15,43l-174 -14 -70 926c-13,1 -31,3 -53,5 -22,2 -44,3 -67,1zm1404 -682l-140 608c-23,99 -73,170 -150,214 -77,44 -183,51 -317,20 -68,-16 -130,-41 -186,-74 -56,-34 -102,-74 -138,-122 -36,-47 -61,-100 -75,-160 -14,-59 -13,-122 3,-191 24,-104 73,-176 147,-216 74,-41 167,-49 278,-23l280 65 42 -180 -674 -155c-28,-7 -46,-19 -53,-39 -7,-19 -7,-44 0,-76 3,-12 8,-27 15,-44 8,-18 16,-32 24,-41l1097 253c50,12 68,49 53,113 -3,14 -9,30 -16,48 -7,18 -15,31 -22,39l-168 -39zm-564 630c49,11 87,9 115,-7 27,-16 45,-43 54,-79l51 -222 -231 -53c-48,-11 -85,-6 -112,14 -28,21 -45,49 -53,84 -8,35 -9,66 -2,96 7,29 19,55 36,77 17,23 38,42 63,57 25,16 51,27 79,33zm1074 362c-125,-49 -218,-117 -279,-203 -61,-85 -90,-178 -87,-278 44,-31 86,-70 125,-115 39,-46 70,-99 93,-159 8,-18 14,-38 21,-58 6,-21 10,-41 13,-62l-123 -48c-27,-10 -42,-26 -46,-45 -5,-20 -1,-45 11,-76 5,-11 12,-25 22,-42 9,-16 19,-28 29,-37l1151 453c25,10 40,25 44,45 3,19 0,44 -12,73 -5,14 -13,29 -23,45 -10,17 -18,29 -25,37l-163 -64 -340 863c-11,-1 -28,-5 -49,-9 -22,-5 -44,-11 -65,-19 -43,-17 -73,-38 -91,-62 -18,-25 -18,-61 0,-107l33 -84c-31,2 -69,-1 -113,-10 -43,-9 -85,-22 -126,-38zm109 -195c42,16 82,26 119,30 38,3 70,2 97,-4l53 -136 -386 -152c-12,14 -25,26 -38,37 -13,11 -27,22 -42,32 7,28 25,61 56,99 31,38 78,69 141,94zm-22 -423l359 141 60 -154 -369 -145c-5,20 -10,40 -15,61 -6,21 -12,40 -19,57l-16 40zm1862 743c-43,69 -93,132 -151,190 -57,58 -119,106 -185,143 2,62 -4,122 -19,181 -14,59 -34,110 -58,152 -32,55 -65,87 -100,95 -35,8 -73,0 -115,-24 -19,-11 -38,-24 -56,-40 -18,-15 -31,-31 -39,-47 11,-13 21,-27 30,-42 9,-14 18,-30 28,-46 11,-19 22,-39 34,-62 13,-22 23,-46 32,-72 -49,13 -104,14 -164,5 -60,-10 -121,-32 -182,-67 -53,-31 -97,-66 -133,-104 -35,-39 -61,-80 -77,-123 -17,-43 -23,-88 -19,-133 3,-44 17,-89 42,-132 26,-45 57,-80 95,-105 37,-26 78,-42 123,-50 44,-7 92,-5 142,7 51,11 101,32 152,61 60,35 109,77 148,127 40,50 67,103 84,159 28,-28 55,-61 81,-98 26,-38 50,-74 72,-111l-704 -406c-25,-15 -38,-32 -40,-52 -1,-20 6,-45 23,-73 6,-11 15,-24 27,-38 12,-15 24,-26 35,-32l1068 616c24,13 36,30 37,51 2,20 -5,44 -21,71 -8,13 -17,26 -29,40 -11,13 -22,24 -33,33l-128 -74zm-810 192c40,23 83,34 127,34 44,0 84,-9 119,-27 -2,-43 -15,-84 -40,-123 -25,-39 -56,-69 -93,-90 -44,-25 -83,-36 -119,-31 -36,5 -62,22 -79,51 -18,30 -19,62 -5,96 15,34 45,64 90,90z"/>
   <path class="fil19" d="M5833 2272c34,62 59,123 73,183 14,60 21,113 19,160 37,14 72,34 105,59 33,26 61,59 84,99 31,53 48,107 51,163 3,55 -7,110 -31,163 -23,53 -59,104 -107,153 -49,49 -109,95 -182,137 -70,41 -139,71 -207,90 -68,19 -123,26 -166,22 -31,-3 -55,-9 -72,-19 -18,-10 -32,-25 -43,-45 -15,-25 -20,-52 -16,-81 4,-29 15,-54 31,-75 46,6 100,6 162,0 63,-6 130,-30 203,-72 84,-49 139,-105 163,-166 24,-62 22,-119 -8,-170 -5,-8 -10,-16 -16,-23 -5,-7 -11,-13 -17,-18 -9,46 -33,92 -70,138 -37,46 -85,86 -146,121 -46,27 -90,46 -133,58 -43,12 -84,16 -123,12 -39,-3 -74,-15 -106,-34 -31,-19 -58,-48 -79,-84 -41,-71 -47,-142 -19,-213 28,-71 88,-133 179,-186 59,-34 116,-56 171,-67 56,-10 105,-13 149,-7 -6,-26 -15,-53 -28,-83 -12,-30 -26,-59 -41,-88l-670 387c-25,15 -46,18 -65,9 -18,-9 -35,-28 -51,-56 -7,-11 -13,-25 -20,-43 -7,-18 -10,-33 -10,-46l1005 -582c23,-13 43,-15 61,-5 18,10 34,28 49,54 8,13 15,29 21,47 6,18 10,32 12,43l-112 65zm-273 646c32,-19 60,-42 84,-70 23,-28 40,-60 50,-96 -37,-8 -74,-9 -112,-2 -38,7 -71,18 -99,35 -32,18 -52,38 -60,60 -8,22 -7,43 4,61 12,21 29,32 52,35 22,3 49,-5 81,-23zm669 -876l279 481c-10,9 -23,20 -39,34 -17,14 -35,27 -54,38 -40,23 -75,34 -106,34 -30,-1 -57,-24 -83,-68l-224 -387 -88 51c-25,14 -46,17 -64,9 -18,-9 -35,-27 -51,-54 -7,-12 -13,-27 -20,-46 -6,-18 -10,-34 -11,-46l453 -263c24,-13 45,-16 63,-7 19,9 36,27 51,54 7,12 14,27 21,46 7,18 11,33 12,44l-139 80zm1290 -459l294 881c-10,6 -24,14 -44,24 -20,11 -40,20 -62,27 -43,15 -80,18 -110,11 -29,-7 -52,-35 -68,-82l-96 -287 -328 110c33,193 -9,310 -128,350 -45,15 -88,13 -128,-4 -40,-18 -70,-44 -88,-81 32,-45 51,-103 57,-173 6,-71 -6,-152 -37,-244 -11,-35 -28,-77 -50,-123 -22,-47 -45,-88 -71,-121l-134 44c-27,10 -49,8 -65,-5 -16,-12 -29,-34 -39,-65 -4,-11 -8,-27 -11,-46 -3,-18 -3,-34 -1,-47l1158 -387c27,-9 48,-7 64,5 16,13 29,34 39,64 4,14 8,30 11,49 3,19 4,34 2,45l-165 55zm-151 378l-99 -294 -351 117c15,23 28,47 41,73 13,25 26,50 38,75 11,26 22,50 32,73 9,23 17,44 23,61l316 -105zm-173 563c-12,-36 -10,-70 6,-101 16,-32 43,-54 81,-67 38,-13 73,-11 104,5 31,16 52,42 64,77 12,36 11,70 -4,102 -15,32 -42,55 -80,67 -38,13 -73,11 -105,-5 -32,-17 -54,-43 -66,-78zm807 -1102l176 527c-11,7 -26,15 -45,25 -19,11 -39,19 -61,27 -44,14 -80,18 -110,12 -29,-7 -52,-35 -68,-84l-142 -424 -96 33c-27,9 -49,7 -65,-5 -16,-11 -29,-32 -38,-62 -5,-13 -8,-29 -11,-49 -3,-19 -3,-35 -2,-48l497 -166c26,-9 47,-7 63,6 16,12 29,33 39,63 5,13 8,29 12,49 3,19 4,34 2,45l-151 51zm1525 354l-314 24c-16,196 -86,298 -211,308 -47,3 -88,-8 -123,-35 -35,-27 -57,-60 -66,-100 43,-36 75,-87 99,-154 23,-67 31,-149 23,-245 -2,-37 -9,-82 -18,-132 -10,-51 -23,-96 -40,-135l-140 11c-29,2 -49,-5 -62,-21 -13,-16 -20,-40 -23,-73 0,-12 0,-28 2,-47 1,-19 5,-34 10,-46l1188 -90c29,-2 49,5 61,21 12,16 19,39 21,71 1,15 1,32 -1,50 -1,19 -4,34 -7,44l-176 14 71 925c-11,4 -28,8 -49,13 -22,6 -44,9 -66,11 -46,4 -83,-2 -110,-16 -27,-14 -42,-47 -46,-97l-23 -301zm-15 -206l-24 -309 -339 25c8,26 16,53 22,81 7,27 13,55 18,82 5,27 9,54 13,78 4,25 7,47 8,66l302 -23zm1349 675c-45,-4 -79,-15 -104,-33 -24,-18 -34,-52 -31,-102l25 -317 -319 -24c-21,102 -53,176 -96,224 -43,47 -94,69 -156,64 -53,-4 -94,-22 -121,-53 -27,-32 -42,-68 -44,-108 48,-29 88,-76 121,-139 33,-63 54,-143 61,-239 3,-40 4,-86 3,-137 -1,-51 -7,-95 -18,-134l-143 -11c-29,-2 -48,-12 -58,-30 -10,-17 -14,-42 -11,-75 1,-12 4,-28 8,-46 5,-19 10,-34 16,-44l391 29c12,23 24,50 35,84 12,34 21,72 29,114 8,43 14,90 17,140 3,51 3,103 -1,156l301 23 29 -373c2,-38 13,-66 32,-83 19,-17 49,-23 89,-20l266 20c27,2 46,12 56,30 10,17 13,42 11,73 -1,15 -4,32 -9,50 -6,19 -10,33 -15,42l-174 -13 -70 926c-13,1 -31,3 -53,5 -22,2 -44,2 -67,1zm1404 -682l-140 608c-23,99 -73,170 -150,214 -77,44 -183,51 -317,20 -68,-16 -130,-41 -186,-74 -56,-34 -102,-74 -138,-122 -36,-47 -61,-101 -75,-160 -14,-59 -13,-123 3,-191 24,-104 73,-176 147,-217 74,-40 167,-48 278,-22l280 64 42 -179 -674 -156c-28,-6 -46,-19 -53,-38 -7,-19 -7,-44 0,-76 3,-12 8,-27 15,-45 8,-17 16,-31 24,-40l1097 253c50,11 68,49 53,112 -3,15 -9,31 -16,49 -7,17 -15,30 -22,39l-168 -39zm-564 630c49,11 87,9 115,-8 27,-16 45,-42 54,-79l51 -221 -231 -53c-48,-11 -85,-7 -112,14 -28,21 -45,49 -53,84 -8,34 -9,66 -2,95 7,30 19,55 36,78 17,23 38,42 63,57 25,15 51,26 79,33zm1074 362c-125,-49 -218,-117 -279,-203 -61,-86 -90,-179 -87,-278 44,-31 86,-70 125,-116 39,-46 70,-98 93,-158 8,-18 14,-38 21,-59 6,-20 10,-41 13,-61l-123 -48c-27,-11 -42,-26 -46,-46 -5,-20 -1,-45 11,-75 5,-12 12,-26 22,-42 9,-16 19,-29 29,-37l1151 453c25,10 40,25 44,44 3,20 0,44 -12,74 -5,14 -13,29 -23,45 -10,16 -18,29 -25,36l-163 -63 -340 863c-11,-2 -28,-5 -49,-9 -22,-5 -44,-11 -65,-19 -43,-17 -73,-38 -91,-63 -18,-24 -18,-60 0,-107l33 -83c-31,2 -69,-2 -113,-11 -43,-9 -85,-21 -126,-37zm109 -196c42,17 82,27 119,30 38,4 70,2 97,-3l53 -137 -386 -152c-12,14 -25,27 -38,38 -13,11 -27,22 -42,32 7,28 25,61 56,99 31,37 78,69 141,93zm-22 -422l359 141 60 -154 -369 -145c-5,20 -10,40 -15,61 -6,20 -12,39 -19,57l-16 40zm1862 742c-43,70 -93,133 -151,191 -57,58 -119,106 -185,143 2,62 -4,122 -19,181 -14,59 -34,109 -58,152 -32,55 -65,87 -100,95 -35,8 -73,0 -115,-24 -19,-11 -38,-25 -56,-40 -18,-15 -31,-31 -39,-47 11,-13 21,-27 30,-42 9,-15 18,-30 28,-47 11,-18 22,-39 34,-61 13,-23 23,-47 32,-72 -49,12 -104,14 -164,4 -60,-9 -121,-32 -182,-67 -53,-30 -97,-65 -133,-103 -35,-39 -61,-80 -77,-123 -17,-44 -23,-88 -19,-133 3,-45 17,-89 42,-132 26,-45 57,-80 95,-105 37,-26 78,-42 123,-50 44,-7 92,-5 142,7 51,11 101,32 152,61 60,35 109,77 148,127 40,50 67,103 84,159 28,-29 55,-62 81,-99 26,-37 50,-74 72,-110l-704 -407c-25,-14 -38,-31 -40,-52 -1,-20 6,-44 23,-72 6,-11 15,-24 27,-39 12,-14 24,-25 35,-32l1068 616c24,14 36,31 37,51 2,21 -5,44 -21,72 -8,13 -17,26 -29,40 -11,13 -22,24 -33,32l-128 -74zm-810 193c40,23 83,34 127,34 44,-1 84,-10 119,-27 -2,-43 -15,-84 -40,-123 -25,-39 -56,-69 -93,-91 -44,-25 -83,-35 -119,-30 -36,4 -62,21 -79,51 -18,30 -19,62 -5,96 15,33 45,63 90,90z"/>
   <path class="fil20" d="M5833 2272l4 7c-13,-10 -26,-25 -38,-45 -7,-12 -13,-28 -20,-46 -6,-19 -10,-34 -11,-47l11 -7c7,19 13,34 20,46 16,27 33,45 51,54 18,8 39,5 64,-9l18 -11 0 0 -99 58zm21 41c24,48 41,95 52,142 14,60 21,113 19,160 37,14 72,34 105,59 33,26 61,59 84,99 31,53 48,107 51,163 1,15 1,31 -1,46 -4,-53 -21,-105 -50,-156 -23,-40 -51,-73 -84,-98 -33,-26 -68,-46 -105,-59 2,-48 -5,-101 -19,-161 -14,-60 -39,-121 -73,-183l21 -12zm-511 1088c-4,-14 -4,-29 -2,-45 4,-29 15,-54 31,-75 46,6 100,6 162,0 63,-6 130,-30 203,-72 84,-49 139,-105 163,-166 7,-19 12,-37 14,-54 6,34 1,69 -14,107 -24,62 -79,117 -163,166 -73,42 -140,66 -203,72 -62,7 -116,7 -162,0 -15,19 -25,41 -29,67zm-175 -457c-5,-38 0,-76 15,-114 28,-71 88,-133 179,-186 59,-34 116,-56 171,-67 49,-9 93,-12 132,-9 7,19 13,38 17,55 -44,-5 -93,-3 -149,8 -55,10 -112,32 -171,66 -91,53 -151,115 -179,186 -8,20 -13,41 -15,61zm-360 -247l-1 -1c-7,-18 -10,-33 -10,-46l1005 -582c23,-13 43,-15 61,-5 6,4 12,8 18,13l340 -197c24,-14 45,-16 63,-8 19,9 36,28 51,55 7,11 14,26 20,43l13 -7c-1,-11 -5,-26 -12,-44 -7,-19 -14,-34 -21,-46 -15,-27 -32,-45 -51,-54 -18,-9 -39,-6 -63,7l-453 263c1,12 5,28 11,46l-971 563zm752 221c32,-19 60,-42 84,-70 12,-15 22,-30 31,-47 6,1 12,3 19,4 -10,36 -27,68 -50,96 -24,28 -52,51 -84,70 -32,18 -59,26 -81,23 -23,-2 -40,-14 -52,-35 -11,-18 -12,-38 -4,-60 1,2 3,4 4,7 12,21 29,32 52,35 22,3 49,-5 81,-23zm693 -836l255 441 -21 18 -258 -446 24 -13zm1282 -451l278 833 -15 8 -279 -835 16 -6zm-422 686c3,33 4,63 2,91 -1,-27 -4,-57 -10,-88l8 -3zm-336 242c-6,-8 -12,-17 -16,-27 32,-45 51,-103 57,-173l1 -10c1,22 1,43 -1,63 -5,57 -18,106 -41,147zm-365 -754l-1 -6c-3,-18 -3,-34 -1,-47l1158 -387c27,-9 48,-7 64,5 7,6 13,12 18,21l387 -130c26,-8 47,-7 63,6 16,12 29,33 39,63 4,12 8,26 11,42l3 -1c2,-11 1,-26 -2,-45 -4,-20 -7,-36 -12,-49 -10,-30 -23,-51 -39,-63 -16,-13 -37,-15 -63,-6l-497 166c-1,13 -1,29 2,48l1 5 -1131 378zm1269 -276l-109 37c-8,-11 -14,-25 -19,-42 -5,-13 -8,-29 -11,-49 -3,-19 -3,-35 -2,-47l3 -1c2,17 5,32 10,44 9,30 22,51 38,62 16,12 38,14 65,5l25 -9 0 0zm-737 300c5,9 10,18 15,28 13,25 26,50 38,75 11,26 22,50 32,73 9,23 17,44 23,61l300 -100 16 48 -316 106c-6,-18 -14,-39 -23,-62 -10,-23 -21,-47 -32,-72 -12,-25 -25,-51 -38,-76 -13,-25 -26,-49 -41,-72l26 -9zm247 677c-7,-29 -3,-57 10,-83 16,-32 43,-54 81,-67 38,-13 73,-11 104,5 31,16 52,42 64,77 9,26 10,50 5,73 -1,-6 -3,-13 -5,-19 -12,-36 -33,-62 -64,-78 -31,-16 -66,-17 -104,-5 -38,13 -65,35 -81,67 -5,10 -8,20 -10,30zm827 -1036l160 479 -15 9 -161 -483 16 -5zm810 543c-7,-12 -12,-26 -15,-40 43,-36 75,-87 99,-154 15,-44 24,-95 26,-152 2,79 -6,148 -26,205 -21,59 -49,106 -84,141zm-175 -779l-1 -10c0,-12 0,-28 2,-47 1,-19 5,-34 10,-46l1188 -90c29,-2 49,5 61,21 12,16 19,39 21,71 1,14 1,29 0,47 -3,-29 -10,-50 -21,-65 -12,-16 -32,-23 -61,-21l-1188 90c-5,12 -9,27 -10,46l-1 4zm1101 60l67 872 -4 1 -67 -873 4 0zm-590 45l7 28c7,27 13,55 18,82 5,27 9,54 13,78 4,25 7,47 8,66l298 -23 4 53 -302 23c-1,-19 -4,-41 -8,-65 -4,-25 -8,-51 -13,-78 -5,-28 -11,-55 -18,-83 -6,-28 -14,-55 -22,-80l15 -1zm1563 814c-2,-12 -2,-27 -1,-43l21 -264 4 1 -24 306zm-703 -210c-5,-15 -8,-31 -9,-47 48,-29 88,-76 121,-139 33,-63 54,-143 61,-239 1,-22 3,-46 3,-71 1,46 0,87 -3,124 -7,96 -28,176 -61,239 -31,60 -68,104 -112,133zm-53 -768c-2,-13 -2,-28 -1,-44 1,-12 4,-28 8,-46 5,-19 10,-34 16,-44l391 29c12,23 24,50 35,84 12,34 21,72 29,114 8,43 14,90 17,140 2,30 3,61 2,93 0,-13 -1,-27 -2,-40 -3,-50 -9,-97 -17,-139 -8,-43 -17,-81 -29,-115 -11,-33 -23,-61 -35,-83l-391 -30c-6,11 -11,25 -16,44 -3,14 -6,26 -7,37zm496 390l299 22 29 -373c2,-38 13,-66 32,-83 19,-17 49,-23 89,-20l266 20c27,2 46,12 56,30 10,17 13,42 11,73l-1 11c-2,-12 -5,-22 -10,-31 -10,-18 -29,-28 -56,-30l-266 -20c-40,-3 -70,4 -89,21 -19,16 -30,44 -32,83l-29 373 -301 -23c1,-18 2,-36 2,-53zm783 424c-3,-41 1,-85 12,-131 24,-104 73,-176 147,-217 74,-40 167,-48 278,-22l280 64 30 -128 12 2 -42 180 -280 -65c-111,-26 -204,-18 -278,23 -74,40 -123,112 -147,216 -7,27 -10,53 -12,78zm29 -687c-4,-18 -3,-41 3,-68 3,-12 8,-27 15,-45 8,-17 16,-31 24,-40l1097 253c47,11 66,45 55,102 -7,-26 -25,-42 -55,-49l-1097 -253c-8,9 -16,23 -24,41 -7,17 -12,32 -15,44 -1,5 -2,10 -3,15zm422 891c49,11 87,9 115,-8 27,-16 45,-42 54,-79l39 -171 12 3 -51 222c-9,36 -27,63 -54,79 -28,16 -66,18 -115,7 -28,-6 -54,-17 -79,-33 -25,-15 -46,-34 -63,-57 -17,-22 -29,-48 -36,-77 -5,-22 -6,-45 -3,-69 1,5 2,10 3,15 7,30 19,55 36,78 17,23 38,42 63,57 25,15 51,26 79,33zm709 -67c-1,-17 -2,-35 -1,-52 44,-31 86,-70 125,-116 39,-46 70,-98 93,-158 8,-18 14,-38 21,-59l3 -12 10 4c-3,21 -7,41 -13,62 -7,20 -13,40 -21,58 -23,60 -54,113 -93,159 -39,45 -80,83 -124,114zm84 -533c-1,-2 -2,-4 -2,-7 -5,-20 -1,-45 11,-75 5,-12 12,-26 22,-42 9,-16 19,-29 29,-37l1151 453c25,10 40,25 44,44 2,13 1,28 -3,45 -6,-15 -20,-27 -41,-36l-1151 -453c-10,9 -20,21 -29,37 -10,17 -17,31 -22,42 -4,11 -7,20 -9,29zm477 1180c-7,-22 -3,-51 10,-87l12 -29c7,0 15,-1 21,-1l-33 84c-4,12 -8,23 -10,33zm-87 -414c42,17 82,27 119,30 38,4 70,2 97,-3l35 -90 18 7 -53 136c-27,6 -59,7 -97,4 -37,-4 -77,-14 -119,-30 -63,-25 -110,-56 -141,-94 -31,-38 -49,-71 -56,-99l17 -12c9,18 22,37 39,58 31,37 78,69 141,93zm-4 -415l341 134 42 -108 18 7 -60 154 -359 -141 16 -40 2 -6zm1140 1414c-8,-10 -14,-19 -19,-28 11,-13 21,-27 30,-42 9,-15 18,-30 28,-47 11,-18 22,-39 34,-61l7 -13c9,-2 17,-4 25,-6 -9,26 -19,50 -32,72 -12,23 -23,43 -34,62 -10,16 -19,32 -28,46 -4,6 -7,11 -11,17zm-470 -621c-2,-17 -2,-34 0,-51 3,-45 17,-89 42,-132 26,-45 57,-80 95,-105 37,-26 78,-42 123,-50 44,-7 92,-5 142,7 51,11 101,32 152,61 60,35 109,77 148,127 40,50 67,103 84,159 28,-29 55,-62 81,-99 17,-24 33,-47 48,-71l24 14c-22,37 -46,73 -72,111 -26,37 -53,70 -81,98 -17,-56 -44,-109 -84,-159 -39,-50 -88,-92 -148,-127 -51,-29 -101,-50 -152,-61 -50,-12 -98,-14 -142,-7 -45,8 -86,24 -123,50 -38,25 -69,60 -95,105 -24,42 -38,86 -42,130zm200 -633c-3,-6 -4,-12 -5,-19 -1,-20 6,-44 23,-72 6,-11 15,-24 27,-39 12,-14 24,-25 35,-32l1068 616c24,14 36,31 37,51 1,11 -1,22 -4,35 -6,-12 -17,-23 -33,-32l-1068 -616c-11,6 -23,17 -35,32 -12,14 -21,27 -27,38 -8,14 -14,26 -18,38zm164 768c40,23 83,34 127,34 41,-1 79,-9 111,-24 5,17 7,33 8,50 -35,18 -75,27 -119,27 -44,0 -87,-11 -127,-34 -45,-26 -75,-56 -90,-90 -10,-25 -12,-48 -6,-71 2,6 4,12 6,18 15,33 45,63 90,90z"/>
   <path class="fil21" d="M8927 3547c8,46 11,88 7,128 -3,40 -11,75 -24,106 19,16 36,35 50,58 14,23 24,50 29,80 7,37 5,73 -5,105 -10,33 -27,63 -51,89 -25,26 -56,49 -94,67 -38,19 -82,32 -132,41 -52,9 -98,12 -140,8 -43,-3 -76,-11 -101,-22 -30,-15 -47,-34 -52,-58 -2,-16 0,-31 9,-45 8,-15 19,-25 31,-33 25,16 57,29 96,39 39,10 84,10 136,1 64,-12 111,-35 141,-69 29,-34 40,-72 33,-112 -3,-18 -9,-34 -18,-47 -18,29 -44,53 -76,73 -33,20 -70,34 -114,42 -33,5 -63,7 -91,4 -28,-3 -53,-9 -74,-19 -21,-11 -39,-25 -53,-43 -14,-18 -23,-39 -28,-64 -8,-49 3,-91 35,-127 33,-36 80,-60 144,-71 42,-7 82,-8 119,-1 37,7 68,18 95,32 3,-19 4,-41 3,-65 -1,-25 -3,-49 -7,-74l-499 89c-15,2 -27,0 -35,-7 -8,-8 -13,-20 -16,-38 -2,-7 -2,-15 -2,-25 0,-10 0,-18 2,-26l728 -128c14,-3 25,0 33,8 8,9 13,21 16,37 2,8 2,16 2,26 -1,9 -1,18 -3,24l-94 17zm-288 346c27,-5 53,-14 76,-28 24,-14 42,-32 56,-56 -22,-16 -46,-26 -75,-32 -28,-5 -55,-6 -79,-1 -28,5 -49,14 -61,27 -13,14 -18,29 -15,47 3,18 13,31 30,39 17,8 40,9 68,4zm570 -396l62 353c-6,3 -14,6 -25,10 -10,4 -21,7 -32,9 -25,4 -44,3 -58,-3 -15,-6 -24,-22 -29,-47l-53 -298 -78 14c-28,5 -45,-10 -51,-43 -1,-8 -2,-17 -2,-27 0,-9 1,-18 2,-25l325 -58c27,-5 44,10 50,45 1,7 2,15 2,25 0,10 0,19 -2,26l-111 19zm434 -34l-14 606c-7,2 -16,3 -27,4 -12,2 -23,2 -35,2 -24,-1 -43,-5 -56,-15 -13,-9 -19,-25 -19,-50l13 -550 -81 -2c-16,0 -27,-5 -33,-14 -6,-9 -9,-22 -9,-38 1,-8 2,-17 4,-27 2,-9 5,-17 7,-25l114 3 2 -99c2,-74 24,-130 67,-168 43,-38 100,-57 173,-55 37,1 70,7 99,17 29,11 53,25 73,42 19,17 34,37 44,59 10,22 14,46 14,71 -1,30 -8,52 -21,66 -13,14 -31,21 -54,20 -14,0 -26,-2 -38,-6 -11,-4 -21,-8 -28,-13 1,-7 2,-14 3,-22 0,-8 1,-16 1,-24 0,-27 -8,-50 -26,-68 -17,-18 -41,-28 -71,-28 -29,-1 -52,8 -70,26 -18,17 -28,46 -29,86l-2 99 87 2c16,1 27,5 34,14 6,9 9,23 8,40 0,7 -1,16 -3,26 -2,10 -4,18 -6,24l-121 -3zm735 18l-14 606c-7,1 -16,2 -27,4 -12,1 -23,2 -35,1 -24,0 -43,-5 -56,-14 -13,-9 -19,-26 -18,-51l5 -215 -245 -6c-11,65 -28,113 -52,144 -23,30 -53,45 -88,44 -25,0 -45,-8 -61,-24 -16,-15 -25,-34 -28,-54 27,-20 49,-51 68,-91 18,-40 28,-96 30,-167 1,-27 0,-58 -3,-94 -3,-36 -8,-68 -16,-96l-101 -3c-28,0 -41,-18 -40,-53 0,-7 1,-16 3,-25 2,-10 4,-18 6,-25l762 18c15,0 25,5 32,15 6,10 9,22 8,38 0,8 -1,17 -3,27 -2,9 -4,17 -6,23l-121 -2zm-381 214l238 6 6 -224 -263 -6c7,33 12,69 16,108 3,38 4,72 4,99l-1 17zm13 284c0,-22 8,-39 23,-53 14,-13 33,-20 55,-19 22,0 40,8 54,22 14,14 20,32 20,54 -1,21 -8,39 -23,53 -14,14 -32,21 -54,20 -23,0 -41,-8 -55,-23 -14,-14 -21,-33 -20,-54zm889 -437c15,42 44,78 87,108 44,30 96,50 155,60l28 5c1,6 2,13 3,20 1,7 0,14 -1,23 -4,18 -12,32 -25,41 -14,10 -33,12 -59,7 -9,-1 -18,-3 -28,-6 -9,-2 -19,-5 -30,-9l-89 140c-18,-16 -39,-30 -62,-43 -23,-12 -47,-20 -72,-24 -30,-6 -58,-4 -83,4 -26,8 -45,21 -59,41 13,36 36,67 71,92 35,26 77,43 126,52 48,8 89,9 123,2 34,-8 62,-18 84,-30 11,7 21,17 28,30 7,13 9,26 7,39 -4,24 -19,42 -44,55 -22,12 -52,20 -90,24 -39,3 -84,1 -135,-8 -48,-9 -90,-22 -128,-40 -37,-19 -68,-41 -94,-66 -26,-25 -47,-53 -63,-84 -15,-30 -25,-62 -30,-94 15,-25 33,-46 54,-64 21,-18 43,-32 68,-43 25,-11 51,-19 78,-22 28,-3 56,-2 84,3 18,3 35,8 49,13 14,6 27,13 38,19l29 -46c-44,-25 -80,-56 -109,-93 -29,-37 -49,-81 -60,-132l-184 -32c-27,-5 -38,-25 -32,-60 1,-7 3,-15 7,-24 3,-9 6,-17 10,-24l700 124c28,5 39,25 33,59 -2,8 -4,17 -7,26 -4,9 -7,17 -10,22l-368 -65zm397 694c-24,-5 -42,-12 -53,-23 -12,-11 -15,-29 -11,-53l96 -542 -80 -14c-16,-3 -26,-9 -31,-19 -5,-9 -6,-23 -3,-39 2,-8 4,-16 8,-25 3,-9 7,-17 11,-24l115 20 18 -100c6,-37 2,-67 -14,-88 -15,-22 -38,-35 -68,-40 -31,-6 -55,-1 -74,15 -18,15 -30,36 -34,62 -2,7 -3,15 -4,23 -1,8 -2,15 -2,22 -8,3 -18,6 -30,7 -12,2 -24,1 -38,-1 -22,-4 -39,-14 -50,-31 -10,-16 -13,-39 -7,-69 4,-24 13,-47 27,-66 14,-20 32,-37 54,-50 23,-13 49,-22 79,-26 30,-5 63,-4 100,2 71,13 125,42 160,87 35,45 47,103 34,175l-18 102 84 15c15,2 26,9 30,19 5,9 6,23 3,40 -1,7 -4,15 -6,25 -3,10 -7,17 -10,23l-119 -21 -105 597c-7,1 -16,1 -28,0 -11,0 -23,-2 -34,-3z"/>
  </g>
  <g id="_254168560">
   <path class="fil22" d="M13911 10395l0 308c-5,2 -13,3 -22,5 -10,2 -19,2 -29,2 -21,0 -37,-3 -49,-11 -11,-7 -17,-22 -17,-44l0 -260 -146 0 0 521c-6,1 -13,2 -23,4 -10,1 -19,2 -29,2 -21,0 -37,-4 -49,-12 -12,-7 -17,-21 -17,-43l0 -184 -120 0c-8,50 -23,89 -44,117 -22,28 -49,42 -81,42 -21,0 -38,-6 -51,-18 -13,-11 -20,-27 -22,-47 23,-20 42,-45 58,-77 16,-31 24,-67 24,-108 0,-32 -4,-61 -12,-86 -18,9 -39,22 -63,38 -24,17 -47,37 -69,61 -8,40 -23,72 -43,95 -21,23 -44,34 -71,34 -21,0 -38,-6 -51,-18 -12,-13 -20,-28 -22,-46 22,-19 40,-43 56,-71 15,-28 23,-64 23,-107 0,-20 -1,-38 -4,-53 -3,-15 -8,-30 -14,-44l-65 0 -22 0 -81 0 0 521c-6,1 -14,2 -23,4 -10,1 -20,2 -30,2 -21,0 -37,-4 -48,-12 -12,-7 -17,-21 -17,-43l0 -472 -54 0 -16 0 -1 0 -68 0c-2,16 -5,31 -11,46 -5,15 -11,30 -18,44 -7,13 -15,26 -24,38 -9,11 -18,21 -27,27 24,15 45,35 63,62 17,27 26,60 26,100 0,33 -6,63 -20,90 -14,26 -33,49 -57,68 -24,20 -54,34 -88,45 -34,11 -72,16 -113,16 -78,0 -137,-14 -177,-42 -40,-28 -60,-64 -60,-107 0,-38 14,-68 41,-90 27,-22 63,-33 108,-33 27,0 51,4 73,10 22,7 42,16 60,28 18,12 34,25 48,41 13,16 25,33 35,51 10,-10 19,-22 25,-37 6,-14 9,-30 9,-47 0,-27 -6,-50 -20,-69 -13,-19 -28,-32 -45,-39 -22,5 -44,9 -66,12 -22,3 -48,4 -78,4 -47,0 -82,-5 -105,-14 -23,-9 -34,-27 -34,-53 0,-10 2,-19 5,-27 4,-9 8,-15 13,-19 49,1 95,2 138,3 44,1 87,2 130,3 9,-11 19,-26 29,-46 9,-20 16,-41 19,-65l-401 0 -12 0 -1 0 -82 0 0 187c0,21 -5,35 -13,44 -9,9 -24,14 -47,14l-140 0c-22,0 -42,2 -60,8 -18,5 -33,12 -47,21 -14,9 -25,20 -35,31 -9,12 -15,24 -19,36 10,28 31,51 64,68 33,17 71,25 114,25 43,0 78,-5 106,-17 28,-12 50,-23 65,-35 12,5 21,12 29,21 8,9 11,20 11,33 0,13 -3,24 -9,33 -6,9 -15,17 -26,24 -18,12 -42,21 -72,29 -30,8 -66,12 -110,12 -41,0 -79,-5 -113,-15 -33,-10 -63,-23 -88,-40 -26,-17 -46,-37 -63,-60 -16,-23 -28,-48 -34,-75 7,-31 22,-61 44,-89 22,-28 49,-50 80,-66 -24,-15 -46,-38 -66,-70 -19,-32 -31,-71 -34,-119l-146 0 0 521c-5,1 -13,2 -23,4 -10,1 -20,2 -29,2 -21,0 -38,-4 -49,-12 -11,-7 -17,-21 -17,-43l0 -472 -70 0c-13,0 -23,-3 -28,-11 -6,-7 -8,-18 -8,-33 0,-6 0,-14 2,-22 2,-8 4,-16 6,-22l97 0 0 -85c0,-64 18,-112 54,-146 36,-33 85,-50 147,-50 32,0 61,4 86,13 25,9 46,20 63,34 17,15 30,31 39,50 9,19 13,39 13,60 0,26 -5,45 -16,58 -11,12 -26,18 -46,18 -12,0 -23,-2 -33,-5 -9,-3 -18,-6 -24,-10 1,-6 2,-12 2,-19 0,-7 0,-14 0,-20 0,-24 -7,-44 -23,-59 -15,-15 -36,-22 -62,-22 -24,0 -44,7 -59,23 -15,16 -23,41 -23,75l0 85 663 0 13 0 591 0 17 0 84 0 0 -87c0,-33 -9,-57 -25,-73 -16,-16 -38,-23 -64,-23 -26,0 -46,7 -60,23 -13,16 -20,35 -20,58 0,6 1,13 1,20 0,7 1,13 2,19 -7,4 -15,7 -25,10 -10,3 -20,5 -32,5 -20,0 -35,-6 -47,-18 -11,-13 -17,-32 -17,-58 0,-21 5,-41 14,-60 9,-19 22,-35 38,-50 17,-14 38,-25 62,-34 25,-9 53,-13 85,-13 63,0 112,17 149,49 36,33 55,81 55,143l0 89 52 0 21 0 177 0c10,14 19,34 29,61 9,26 16,59 20,98 32,-25 64,-46 98,-62 34,-17 65,-29 94,-37 17,22 32,53 45,92 12,38 19,81 21,128l117 0 0 -222c0,-20 4,-35 12,-44 9,-9 24,-14 45,-14l393 0c24,0 36,15 36,45 0,7 -1,14 -2,22 -1,9 -3,16 -5,21l-98 0zm-1908 -1652c1,-8 1,-16 1,-23 0,-35 -10,-61 -31,-79 -21,-18 -50,-27 -86,-27 -19,0 -42,1 -67,2 -25,2 -49,3 -71,3 -85,0 -149,-19 -192,-57 -43,-38 -65,-86 -65,-143 0,-51 13,-87 40,-108 27,-21 57,-31 91,-31 17,0 32,2 47,7 15,5 27,11 37,18 -2,6 -4,13 -5,23 -1,9 -2,17 -2,22 0,59 36,88 108,88 24,0 51,-3 79,-7 29,-5 55,-7 78,-7 74,0 134,19 181,56 46,38 70,92 70,162 0,26 -3,49 -9,70 -3,12 -6,22 -9,31l236 0c24,0 42,8 52,23 10,15 15,37 15,65 0,13 -1,28 -4,45 -3,17 -7,29 -11,38l-270 0c-5,34 -11,69 -19,105 -8,37 -19,71 -35,104 30,10 59,24 86,42 28,19 52,42 72,68 21,27 38,59 51,94 13,36 19,76 19,121 0,53 -9,99 -28,139 -19,39 -43,73 -72,99 -28,26 -59,46 -92,59 -33,14 -64,21 -93,21 -39,0 -69,-12 -90,-34 -21,-22 -31,-49 -31,-79 0,-5 0,-13 0,-21 0,-8 1,-16 3,-23 19,-2 39,-7 58,-14 20,-7 37,-17 52,-31 15,-13 28,-31 37,-52 10,-21 14,-46 14,-75 0,-42 -9,-76 -27,-102 -19,-26 -41,-46 -67,-58 -29,35 -62,65 -99,91 -38,25 -74,42 -109,50 -33,-9 -69,-26 -106,-50 -38,-25 -72,-55 -102,-89 -25,12 -46,31 -65,58 -19,26 -29,59 -29,100 0,29 5,54 14,74 10,21 22,38 38,52 16,14 33,25 52,33 19,8 38,13 57,17 2,5 4,12 4,19 0,7 0,14 0,19 0,32 -11,59 -32,81 -22,22 -52,34 -91,34 -30,0 -62,-7 -96,-20 -33,-13 -64,-32 -92,-59 -28,-26 -51,-59 -69,-99 -18,-39 -27,-86 -27,-140 0,-45 6,-85 19,-121 12,-35 29,-67 49,-94 21,-26 45,-49 72,-68 27,-18 55,-32 85,-42 -15,-32 -28,-66 -38,-104 -10,-37 -17,-72 -19,-105l-186 0 -29 0 -1 0 -128 0 0 830c-9,2 -23,5 -44,8 -20,3 -39,5 -58,5 -42,0 -74,-7 -97,-21 -23,-14 -35,-43 -36,-86l0 -37c-22,9 -49,16 -79,22 -30,5 -61,8 -94,8 -120,0 -220,-25 -300,-75 -80,-49 -133,-115 -160,-195 8,-39 25,-78 52,-116 27,-38 59,-67 96,-86 -39,-22 -71,-55 -96,-100 -24,-44 -38,-96 -40,-157l-79 0c-22,0 -38,-7 -48,-22 -9,-15 -14,-37 -14,-67 0,-11 1,-25 4,-41 3,-17 7,-31 11,-41l761 0c1,-8 1,-16 1,-23 0,-35 -10,-61 -31,-79 -21,-18 -49,-27 -86,-27 -19,0 -42,1 -67,2 -25,2 -49,3 -71,3 -85,0 -149,-19 -192,-57 -43,-38 -65,-86 -65,-143 0,-51 14,-87 40,-108 27,-21 58,-31 91,-31 17,0 33,2 47,7 15,5 27,11 37,18 -2,6 -4,13 -5,23 -1,9 -2,17 -2,22 0,59 36,88 108,88 24,0 51,-3 79,-7 29,-5 55,-7 79,-7 73,0 134,19 180,56 46,38 70,92 70,162 0,26 -3,49 -9,70 -3,12 -6,22 -9,31l103 0 28 0 772 0zm-1273 725c64,0 117,-9 161,-28l0 -173 -230 0c-43,0 -76,9 -102,28 -25,18 -42,41 -51,68 13,29 37,54 73,74 37,21 86,31 149,31zm-218 -554c2,49 11,87 28,117 17,30 34,51 52,63l299 0 0 -180 -379 0zm1339 309c41,-29 72,-72 96,-128 23,-57 37,-117 40,-181l-290 0c2,32 7,63 16,95 8,32 19,62 32,90 14,28 30,53 48,75 17,22 37,38 58,49zm-3918 3125l-477 1554 1205 -1118c396,172 833,267 1292,267 1262,0 2355,-717 2896,-1767l-368 0c-511,865 -1451,1445 -2528,1445 -1194,0 -2221,-713 -2679,-1736 4,-13 8,-25 13,-37 20,-58 51,-118 129,-120 38,-1 76,1 114,0 126,-7 253,-13 369,-68 91,-43 117,-108 87,-202 -32,-101 -33,-198 38,-286 7,-9 12,-20 17,-31 26,-59 8,-113 -53,-137 -39,-15 -82,-19 -123,-29 -26,-6 -53,-11 -80,-17 27,-22 55,-33 83,-45 33,-15 69,-27 99,-46 62,-39 78,-97 48,-164 -10,-22 -24,-43 -33,-66 -15,-35 -3,-68 31,-84 17,-9 35,-14 53,-21 155,-64 182,-161 79,-294 -32,-41 -69,-79 -106,-117 -56,-58 -117,-111 -170,-171 -90,-103 -132,-214 -65,-350 29,-59 -46,-571 -93,-806 538,-637 1343,-1042 2242,-1042 1010,0 1901,511 2429,1288l381 0c-565,-963 -1612,-1610 -2810,-1610 -1799,0 -3256,1458 -3256,3256 0,1036 483,1958 1236,2554zm-713 -1485c-130,-331 -201,-691 -201,-1069 0,-671 226,-1290 606,-1785 42,238 98,623 85,660 -12,35 -29,69 -34,104 -7,41 -10,85 -3,125 26,133 113,228 206,320 66,66 133,132 194,204 50,60 39,86 -33,117 -17,7 -35,13 -53,20 -103,39 -139,157 -95,238 8,15 15,32 24,46 18,27 8,45 -18,55 -37,15 -75,26 -111,43 -36,17 -75,34 -106,60 -42,34 -42,86 3,115 46,29 99,48 151,66 34,11 73,13 109,19 -1,9 -1,12 -1,15 -3,5 -6,10 -10,15 -84,107 -82,227 -49,350 18,65 13,80 -51,105 -17,6 -33,13 -51,15 -110,12 -220,28 -331,31 -92,2 -168,24 -217,107 -4,8 -9,16 -14,24zm2966 2432c-506,0 -989,-93 -1430,-261l-514 377c430,169 899,261 1389,261 864,0 1661,-288 2300,-773 -523,253 -1116,396 -1745,396zm-2508 -882c-797,-654 -1301,-1613 -1301,-2683 0,-1968 1706,-3564 3809,-3564 156,0 309,9 460,26 -323,-89 -664,-137 -1015,-137 -2104,0 -3809,1705 -3809,3809 0,1342 694,2522 1743,3200l113 -651zm943 -2356c-3,-160 -62,-307 -178,-431 -46,-50 -38,-104 20,-120 23,-6 60,6 77,24 157,164 231,361 217,588 -11,184 -81,345 -206,481 -33,35 -68,59 -113,22 -35,-28 -30,-70 12,-117 112,-124 170,-270 171,-447zm594 111c-2,172 -92,408 -273,610 -8,9 -16,17 -24,26 -34,35 -72,46 -109,9 -35,-35 -23,-71 9,-104 93,-97 166,-207 207,-335 110,-343 49,-652 -187,-924 -11,-12 -23,-23 -33,-35 -23,-31 -26,-65 4,-91 29,-24 66,-32 97,-2 31,31 61,63 87,97 146,192 223,408 222,749zm457 -97c-5,345 -120,647 -353,902 -12,14 -24,27 -37,39 -32,27 -66,30 -96,0 -30,-30 -29,-65 -3,-96 28,-34 60,-64 87,-98 279,-367 338,-767 177,-1199 -55,-144 -142,-268 -246,-381 -19,-21 -35,-56 -32,-83 8,-56 75,-67 121,-21 117,115 206,250 271,400 74,171 113,350 111,537zm2194 472l0 -148 -224 0c3,34 13,64 28,91 15,26 35,47 61,60 15,-2 29,-3 43,-3l92 0zm-30 -286c-16,0 -29,-5 -40,-14 -11,-10 -17,-28 -17,-54 0,-20 4,-37 12,-53 7,-16 18,-29 31,-41 13,-11 28,-19 45,-25 18,-6 36,-9 56,-9 20,0 39,3 56,9 17,6 32,15 45,26 13,12 23,25 30,41 8,16 12,33 12,52 0,26 -6,44 -16,54 -11,9 -24,14 -39,14 -15,0 -27,-4 -38,-13 2,-4 4,-9 5,-15 1,-6 2,-12 2,-17 0,-19 -6,-33 -17,-44 -11,-10 -24,-16 -40,-16 -16,0 -30,6 -40,17 -11,11 -16,25 -16,43 0,5 0,11 2,17 1,6 2,11 4,15 -10,9 -23,13 -37,13zm486 584c10,0 19,-1 29,-2 10,-1 20,-3 30,-5 -13,-29 -30,-50 -51,-65 -22,-15 -46,-23 -73,-23 -13,0 -25,3 -34,10 -9,6 -14,16 -14,29 0,15 9,28 27,39 19,11 47,17 86,17z"/>
   <path class="fil23" d="M13911 10342l0 308c-5,1 -13,3 -22,5 -10,1 -19,2 -29,2 -21,0 -37,-4 -49,-11 -11,-8 -17,-22 -17,-44l0 -260 -146 0 0 520c-6,2 -13,3 -23,4 -10,2 -19,2 -29,2 -21,0 -37,-3 -49,-11 -12,-7 -17,-22 -17,-43l0 -185 -120 0c-8,50 -23,89 -44,117 -22,28 -49,42 -81,42 -21,0 -38,-5 -51,-17 -13,-12 -20,-27 -22,-47 23,-20 42,-46 58,-77 16,-32 24,-67 24,-108 0,-33 -4,-61 -12,-86 -18,9 -39,22 -63,38 -24,16 -47,37 -69,60 -8,41 -23,72 -43,95 -21,23 -44,35 -71,35 -21,0 -38,-6 -51,-19 -12,-12 -20,-27 -22,-45 22,-20 40,-44 56,-72 15,-28 23,-63 23,-106 0,-20 -1,-38 -4,-53 -3,-16 -8,-30 -14,-44l-65 0 -22 0 -81 0 0 520c-6,2 -14,3 -23,4 -10,2 -20,2 -30,2 -21,0 -37,-3 -48,-11 -12,-7 -17,-22 -17,-43l0 -472 -54 0 -16 0 -1 0 -68 0c-2,15 -5,30 -11,46 -5,15 -11,30 -18,43 -7,14 -15,27 -24,38 -9,12 -18,21 -27,28 24,14 45,35 63,62 17,26 26,60 26,100 0,33 -6,63 -20,89 -14,27 -33,50 -57,69 -24,19 -54,34 -88,45 -34,10 -72,16 -113,16 -78,0 -137,-14 -177,-42 -40,-28 -60,-64 -60,-107 0,-38 14,-68 41,-90 27,-22 63,-33 108,-33 27,0 51,3 73,10 22,7 42,16 60,28 18,11 34,25 48,41 13,16 25,33 35,51 10,-10 19,-22 25,-37 6,-14 9,-30 9,-47 0,-27 -6,-50 -20,-69 -13,-19 -28,-32 -45,-40 -22,6 -44,10 -66,13 -22,2 -48,4 -78,4 -47,0 -82,-5 -105,-14 -23,-9 -34,-27 -34,-53 0,-10 2,-20 5,-28 4,-8 8,-14 13,-18 49,1 95,2 138,3 44,1 87,2 130,3 9,-11 19,-26 29,-46 9,-20 16,-42 19,-65l-401 0 -12 0 -1 0 -82 0 0 187c0,20 -5,35 -13,44 -9,9 -24,13 -47,13l-140 0c-22,0 -42,3 -60,9 -18,5 -33,12 -47,21 -14,9 -25,19 -35,31 -9,11 -15,23 -19,36 10,28 31,50 64,67 33,18 71,26 114,26 43,0 78,-6 106,-17 28,-12 50,-24 65,-35 12,5 21,11 29,20 8,9 11,21 11,34 0,13 -3,23 -9,33 -6,9 -15,17 -26,24 -18,11 -42,21 -72,29 -30,8 -66,12 -110,12 -41,0 -79,-5 -113,-15 -33,-10 -63,-23 -88,-40 -26,-17 -46,-37 -63,-60 -16,-23 -28,-48 -34,-75 7,-32 22,-61 44,-89 22,-28 49,-50 80,-66 -24,-15 -46,-39 -66,-70 -19,-32 -31,-72 -34,-119l-146 0 0 520c-5,2 -13,3 -23,4 -10,2 -20,2 -29,2 -21,0 -38,-3 -49,-11 -11,-7 -17,-22 -17,-43l0 -472 -70 0c-13,0 -23,-4 -28,-11 -6,-8 -8,-19 -8,-33 0,-7 0,-14 2,-22 2,-9 4,-16 6,-22l97 0 0 -85c0,-64 18,-112 54,-146 36,-33 85,-50 147,-50 32,0 61,4 86,13 25,8 46,20 63,34 17,14 30,31 39,50 9,19 13,39 13,60 0,26 -5,45 -16,57 -11,13 -26,19 -46,19 -12,0 -23,-2 -33,-5 -9,-3 -18,-7 -24,-11 1,-5 2,-11 2,-18 0,-7 0,-14 0,-21 0,-24 -7,-43 -23,-58 -15,-15 -36,-23 -62,-23 -24,0 -44,8 -59,24 -15,16 -23,41 -23,75l0 85 663 0 13 0 591 0 17 0 84 0 0 -87c0,-33 -9,-57 -25,-73 -16,-16 -38,-24 -64,-24 -26,0 -46,8 -60,24 -13,16 -20,35 -20,57 0,7 1,14 1,21 0,7 1,13 2,18 -7,4 -15,8 -25,11 -10,3 -20,5 -32,5 -20,0 -35,-6 -47,-19 -11,-12 -17,-31 -17,-57 0,-21 5,-41 14,-60 9,-19 22,-36 38,-50 17,-14 38,-26 62,-34 25,-9 53,-13 85,-13 63,0 112,16 149,49 36,33 55,80 55,143l0 89 52 0 21 0 177 0c10,14 19,34 29,60 9,27 16,60 20,99 32,-25 64,-46 98,-63 34,-16 65,-28 94,-37 17,23 32,54 45,92 12,39 19,82 21,129l117 0 0 -223c0,-19 4,-34 12,-43 9,-9 24,-14 45,-14l393 0c24,0 36,15 36,45 0,6 -1,14 -2,22 -1,9 -3,16 -5,21l-98 0zm-1908 -1652c1,-9 1,-16 1,-24 0,-34 -10,-61 -31,-78 -21,-18 -50,-27 -86,-27 -19,0 -42,1 -67,2 -25,2 -49,3 -71,3 -85,0 -149,-19 -192,-57 -43,-38 -65,-86 -65,-143 0,-52 13,-88 40,-108 27,-21 57,-31 91,-31 17,0 32,2 47,7 15,5 27,11 37,18 -2,5 -4,13 -5,22 -1,10 -2,18 -2,23 0,58 36,87 108,87 24,0 51,-2 79,-6 29,-5 55,-7 78,-7 74,0 134,19 181,56 46,38 70,92 70,162 0,26 -3,49 -9,70 -3,12 -6,22 -9,31l236 0c24,0 42,8 52,23 10,15 15,36 15,64 0,14 -1,29 -4,46 -3,16 -7,29 -11,38l-270 0c-5,34 -11,69 -19,105 -8,36 -19,71 -35,103 30,10 59,25 86,43 28,19 52,41 72,68 21,27 38,58 51,94 13,36 19,76 19,121 0,53 -9,99 -28,138 -19,40 -43,73 -72,100 -28,26 -59,46 -92,59 -33,14 -64,20 -93,20 -39,0 -69,-11 -90,-33 -21,-23 -31,-49 -31,-79 0,-6 0,-13 0,-21 0,-9 1,-16 3,-23 19,-2 39,-7 58,-14 20,-7 37,-18 52,-31 15,-14 28,-31 37,-52 10,-21 14,-47 14,-76 0,-41 -9,-75 -27,-101 -19,-27 -41,-46 -67,-58 -29,34 -62,65 -99,90 -38,26 -74,43 -109,51 -33,-9 -69,-26 -106,-51 -38,-24 -72,-54 -102,-89 -25,13 -46,32 -65,58 -19,27 -29,60 -29,100 0,29 5,54 14,75 10,21 22,38 38,52 16,14 33,25 52,33 19,8 38,13 57,17 2,5 4,12 4,19 0,7 0,14 0,19 0,31 -11,58 -32,81 -22,22 -52,33 -91,33 -30,0 -62,-6 -96,-19 -33,-13 -64,-32 -92,-59 -28,-26 -51,-59 -69,-99 -18,-40 -27,-86 -27,-140 0,-45 6,-85 19,-121 12,-36 29,-67 49,-94 21,-27 45,-49 72,-68 27,-18 55,-33 85,-43 -15,-31 -28,-65 -38,-103 -10,-37 -17,-72 -19,-105l-186 0 -29 0 -1 0 -128 0 0 829c-9,3 -23,6 -44,9 -20,3 -39,5 -58,5 -42,0 -74,-7 -97,-21 -23,-14 -35,-43 -36,-87l0 -36c-22,8 -49,16 -79,21 -30,6 -61,9 -94,9 -120,0 -220,-25 -300,-75 -80,-50 -133,-115 -160,-196 8,-39 25,-77 52,-115 27,-38 59,-67 96,-86 -39,-22 -71,-56 -96,-100 -24,-44 -38,-96 -40,-157l-79 0c-22,0 -38,-7 -48,-22 -9,-16 -14,-38 -14,-67 0,-11 1,-25 4,-42 3,-17 7,-30 11,-40l761 0c1,-9 1,-16 1,-24 0,-34 -10,-61 -31,-78 -21,-18 -49,-27 -86,-27 -19,0 -42,1 -67,2 -25,2 -49,3 -71,3 -85,0 -149,-19 -192,-57 -43,-38 -65,-86 -65,-143 0,-52 14,-88 40,-108 27,-21 58,-31 91,-31 17,0 33,2 47,7 15,5 27,11 37,18 -2,5 -4,13 -5,22 -1,10 -2,18 -2,23 0,58 36,87 108,87 24,0 51,-2 79,-6 29,-5 55,-7 79,-7 73,0 134,19 180,56 46,38 70,92 70,162 0,26 -3,49 -9,70 -3,12 -6,22 -9,31l103 0 28 0 772 0zm-1273 725c64,0 117,-9 161,-28l0 -173 -230 0c-43,0 -76,9 -102,27 -25,19 -42,42 -51,68 13,30 37,54 73,75 37,21 86,31 149,31zm-218 -554c2,48 11,87 28,117 17,30 34,50 52,63l299 0 0 -180 -379 0zm1339 309c41,-29 72,-72 96,-128 23,-57 37,-117 40,-181l-290 0c2,32 7,63 16,95 8,32 19,62 32,90 14,28 30,53 48,75 17,21 37,38 58,49zm-3918 3125l-477 1554 1205 -1118c396,172 833,267 1292,267 1262,0 2355,-718 2896,-1767l-368 0c-511,865 -1451,1445 -2528,1445 -1194,0 -2221,-713 -2679,-1736 4,-13 8,-25 13,-38 20,-58 51,-118 129,-119 38,-1 76,1 114,-1 126,-6 253,-12 369,-67 91,-43 117,-109 87,-202 -32,-101 -33,-198 38,-286 7,-9 12,-20 17,-31 26,-59 8,-113 -53,-137 -39,-15 -82,-20 -123,-29 -26,-6 -53,-12 -80,-17 27,-22 55,-33 83,-45 33,-15 69,-27 99,-46 62,-39 78,-97 48,-164 -10,-23 -24,-44 -33,-66 -15,-35 -3,-68 31,-84 17,-9 35,-14 53,-21 155,-64 182,-161 79,-294 -32,-42 -69,-80 -106,-117 -56,-58 -117,-111 -170,-172 -90,-102 -132,-213 -65,-349 29,-59 -46,-571 -93,-806 538,-637 1343,-1042 2242,-1042 1010,0 1901,511 2429,1288l381 0c-565,-963 -1612,-1610 -2810,-1610 -1799,0 -3256,1458 -3256,3256 0,1035 483,1958 1236,2554zm-713 -1485c-130,-331 -201,-692 -201,-1069 0,-672 226,-1291 606,-1785 42,238 98,623 85,660 -12,35 -29,68 -34,104 -7,41 -10,85 -3,125 26,133 113,228 206,320 66,66 133,132 194,203 50,61 39,87 -33,118 -17,7 -35,13 -53,20 -103,39 -139,157 -95,238 8,15 15,32 24,46 18,27 8,44 -18,55 -37,15 -75,26 -111,43 -36,17 -75,34 -106,59 -42,35 -42,87 3,116 46,29 99,48 151,65 34,12 73,14 109,20 -1,9 -1,12 -1,15 -3,5 -6,10 -10,14 -84,107 -82,227 -49,350 18,66 13,81 -51,106 -17,6 -33,13 -51,15 -110,12 -220,28 -331,31 -92,2 -168,23 -217,106 -4,9 -9,17 -14,25zm2966 2431c-506,0 -989,-92 -1430,-260l-514 377c430,168 899,261 1389,261 864,0 1661,-288 2300,-773 -523,253 -1116,395 -1745,395zm-2508 -882c-797,-653 -1301,-1612 -1301,-2682 0,-1968 1706,-3564 3809,-3564 156,0 309,9 460,26 -323,-89 -664,-137 -1015,-137 -2104,0 -3809,1705 -3809,3808 0,1342 694,2522 1743,3201l113 -652zm943 -2355c-3,-160 -62,-307 -178,-431 -46,-50 -38,-104 20,-120 23,-6 60,6 77,24 157,163 231,361 217,588 -11,184 -81,345 -206,481 -33,35 -68,58 -113,22 -35,-28 -30,-70 12,-117 112,-125 170,-270 171,-447zm594 111c-2,172 -92,408 -273,610 -8,9 -16,17 -24,26 -34,34 -72,45 -109,9 -35,-35 -23,-72 9,-104 93,-97 166,-207 207,-336 110,-342 49,-651 -187,-923 -11,-12 -23,-23 -33,-35 -23,-31 -26,-65 4,-91 29,-25 66,-32 97,-2 31,31 61,62 87,97 146,192 223,408 222,749zm457 -97c-5,345 -120,647 -353,902 -12,13 -24,27 -37,39 -32,27 -66,29 -96,0 -30,-30 -29,-65 -3,-97 28,-34 60,-63 87,-98 279,-366 338,-766 177,-1198 -55,-144 -142,-268 -246,-381 -19,-21 -35,-57 -32,-83 8,-56 75,-67 121,-22 117,116 206,251 271,401 74,171 113,350 111,537zm2194 472l0 -148 -224 0c3,34 13,64 28,90 15,27 35,47 61,61 15,-2 29,-3 43,-3l92 0zm-30 -286c-16,0 -29,-5 -40,-15 -11,-9 -17,-27 -17,-53 0,-20 4,-38 12,-53 7,-16 18,-30 31,-41 13,-11 28,-20 45,-26 18,-5 36,-8 56,-8 20,0 39,3 56,9 17,6 32,15 45,26 13,11 23,25 30,41 8,15 12,33 12,52 0,26 -6,44 -16,53 -11,10 -24,15 -39,15 -15,0 -27,-5 -38,-14 2,-3 4,-8 5,-14 1,-6 2,-12 2,-17 0,-19 -6,-33 -17,-44 -11,-11 -24,-16 -40,-16 -16,0 -30,6 -40,16 -11,11 -16,26 -16,44 0,5 0,11 2,17 1,6 2,11 4,14 -10,9 -23,14 -37,14zm486 583c10,0 19,0 29,-1 10,-1 20,-3 30,-6 -13,-28 -30,-49 -51,-64 -22,-15 -46,-23 -73,-23 -13,0 -25,3 -34,9 -9,6 -14,16 -14,30 0,15 9,28 27,39 19,11 47,16 86,16z"/>
   <path class="fil18" d="M13227 10763c-9,-11 -14,-24 -15,-39 23,-20 42,-46 58,-77 13,-25 20,-53 23,-83 0,9 1,18 1,28 0,41 -8,77 -24,108 -12,25 -27,45 -43,63zm-248 -108c-9,-11 -14,-24 -16,-38 22,-20 40,-44 56,-72 12,-22 20,-49 22,-80 1,8 1,17 1,27 0,43 -8,79 -23,107 -12,21 -25,39 -40,56zm-431 -136c13,11 24,25 34,40 17,26 26,60 26,100 0,9 0,18 -1,26 -3,-28 -12,-53 -25,-73 -18,-27 -39,-47 -63,-62 9,-6 18,-16 27,-27l2 -4zm-452 236c-2,-9 -3,-17 -3,-26 0,-38 14,-68 41,-90 20,-17 46,-27 77,-31 19,3 43,5 72,5l20 0 12 3c22,7 42,16 60,28 18,11 34,25 48,41 13,16 25,33 35,51 10,-10 19,-22 25,-37 3,-7 5,-14 7,-21 2,8 2,18 2,27 0,17 -3,33 -9,47 -6,15 -15,27 -25,37 -10,-18 -22,-35 -35,-51 -14,-16 -30,-29 -48,-41 -18,-12 -38,-21 -60,-28 -22,-6 -46,-10 -73,-10 -45,0 -81,11 -108,33 -20,16 -33,37 -38,63zm53 -235c-4,-8 -5,-17 -5,-27 0,-10 2,-20 5,-28 4,-8 8,-14 13,-18 49,1 95,2 138,3 44,1 87,2 130,3 9,-11 19,-26 29,-46l5 -12 14 0c-3,24 -10,45 -19,65 -10,20 -20,35 -29,46 -43,-1 -86,-2 -130,-3 -43,-1 -89,-2 -138,-3 -5,4 -9,10 -13,19l0 1zm-515 188c12,17 29,31 51,42 33,18 71,26 114,26 43,0 78,-6 106,-17 28,-12 50,-24 65,-35 12,5 21,11 29,20 8,9 11,21 11,34 0,10 -2,19 -6,27 -1,-3 -3,-5 -5,-7 -8,-9 -17,-16 -29,-21 -15,12 -37,23 -65,35 -28,12 -63,17 -106,17 -43,0 -81,-8 -114,-25 -33,-17 -54,-40 -64,-68 3,-9 7,-19 13,-28zm-131 4c-3,-8 -6,-17 -8,-26 7,-32 22,-61 44,-89 13,-17 28,-31 44,-43 11,12 23,22 36,30 -31,16 -58,38 -80,66 -16,20 -28,40 -36,62zm-351 -389c-2,-7 -3,-15 -3,-25 0,-7 0,-14 2,-22 2,-9 4,-16 6,-22l97 0 0 53 -97 0c-2,5 -3,10 -5,16zm102 -104l0 -50c0,-64 18,-112 54,-146 36,-33 85,-50 147,-50 32,0 61,4 86,13 25,8 46,20 63,34 17,14 30,31 39,50 9,19 13,39 13,60 0,10 0,19 -2,27 -2,-12 -6,-23 -11,-34 -9,-19 -22,-35 -39,-50 -17,-14 -38,-25 -63,-34 -25,-9 -54,-13 -86,-13 -62,0 -111,17 -147,50 -35,33 -53,81 -54,143zm284 -28l-1 -1 1 -3 0 4zm-166 63l188 0 1 0c10,3 21,5 33,5 10,0 19,-2 27,-5l195 0c6,2 13,3 20,3 7,0 13,-1 19,-3l137 0c6,2 12,3 19,3 7,0 14,-1 20,-3l4 0 13 0 442 0c8,3 17,5 27,5 12,0 22,-2 32,-5l2 0 88 0 17 0 84 0 0 53 -84 0 -17 0 -591 0 -13 0 -663 0 0 -53zm1201 -68l1 4 -2 1 1 -5zm-117 -29c-2,-8 -3,-17 -3,-27 0,-21 5,-41 14,-60 9,-19 22,-36 38,-50 17,-14 38,-26 62,-34 25,-9 53,-13 85,-13 63,0 112,16 149,49 36,33 55,80 55,143l0 50c-1,-61 -19,-107 -55,-140 -37,-32 -86,-49 -149,-49 -32,0 -60,4 -85,13 -24,9 -45,20 -62,34 -16,15 -29,31 -38,50 -5,11 -9,22 -11,34zm400 97l52 0 21 0 177 0c10,14 19,34 29,60 9,27 16,60 20,99 32,-25 64,-46 98,-63 34,-16 65,-28 94,-37 17,23 32,54 45,92 12,39 19,82 21,129l117 0 0 53 -117 0c-2,-47 -9,-90 -21,-128 -13,-39 -28,-70 -45,-92 -29,8 -60,20 -94,37 -34,16 -66,37 -98,62 -4,-39 -11,-72 -20,-98 -10,-27 -19,-47 -29,-61l-177 0 -21 0 -52 0 0 -53zm674 109l0 -52c0,-19 4,-34 12,-43 9,-9 24,-14 45,-14l393 0c24,0 36,15 36,45 0,6 -1,14 -2,22l-2 8c-5,-15 -15,-22 -32,-22l-393 0c-21,0 -36,5 -45,14 -8,9 -12,23 -12,42zm-2036 -1972c-1,-8 -2,-16 -2,-25 0,-52 13,-88 40,-108 27,-21 57,-31 91,-31 17,0 32,2 47,7 15,5 27,11 37,18 -2,5 -4,13 -5,22 -1,10 -2,18 -2,23l0 4c-8,-5 -19,-10 -30,-14 -15,-5 -30,-7 -47,-7 -34,0 -64,10 -91,31 -21,17 -34,43 -38,80zm209 -69c9,42 44,62 105,62 24,0 51,-2 79,-6 29,-5 55,-7 78,-7 74,0 134,19 181,56 46,38 70,92 70,162 0,10 -1,19 -2,28 -5,-58 -28,-104 -68,-137 -47,-37 -107,-56 -181,-56 -23,0 -49,2 -78,7 -28,4 -55,7 -79,7 -72,0 -108,-29 -108,-88 0,-5 1,-13 2,-22l1 -6zm509 368l222 0c24,0 42,8 52,23 10,15 15,36 15,64 0,9 -1,18 -2,28 -2,-16 -6,-29 -13,-39 -10,-15 -28,-23 -52,-23l-236 0c3,-9 6,-19 9,-31 2,-7 4,-14 5,-22zm-31 386c23,10 46,22 67,36 28,19 52,41 72,68 21,27 38,58 51,94 13,36 19,76 19,121 0,9 0,18 -1,26 -2,-34 -8,-65 -18,-94 -13,-35 -30,-67 -51,-94 -20,-26 -44,-49 -72,-68 -27,-18 -56,-32 -86,-42 7,-15 13,-31 19,-47zm-196 542c-1,-6 -1,-12 -1,-18 0,-6 0,-13 0,-21 0,-9 1,-16 3,-23 19,-2 39,-7 58,-14 20,-7 37,-18 52,-31 15,-14 28,-31 37,-52 7,-15 11,-31 13,-50 1,9 1,18 1,28 0,29 -4,54 -14,75 -9,21 -22,39 -37,52 -15,14 -32,24 -52,31 -19,7 -39,12 -58,14 -1,3 -1,6 -2,9zm-439 -208c2,18 6,34 12,48 10,21 22,38 38,52 16,14 33,25 52,33 19,8 38,13 57,17 2,5 4,12 4,19 0,7 0,14 0,19 0,7 -1,14 -2,20 0,-1 -1,-3 -2,-5 -19,-4 -38,-9 -57,-17 -19,-8 -36,-19 -52,-33 -16,-14 -28,-31 -38,-52 -9,-20 -14,-45 -14,-74 0,-10 1,-19 2,-27zm-243 12c0,-9 -1,-18 -1,-27 0,-45 6,-85 19,-121 12,-36 29,-67 49,-94 21,-27 45,-49 72,-68 20,-14 42,-26 65,-35 6,16 13,31 20,46 -30,10 -58,24 -85,42 -27,19 -51,42 -72,68 -20,27 -37,59 -49,94 -10,29 -16,60 -18,95zm-1037 -80c-3,-8 -5,-15 -8,-23 8,-39 25,-77 52,-115 17,-24 36,-44 57,-61 12,11 25,20 39,28 -37,19 -69,48 -96,86 -20,28 -34,56 -44,85zm-135 -542c-2,-8 -2,-18 -2,-28 0,-11 1,-25 4,-42 3,-17 7,-30 11,-40l759 0c2,9 3,19 3,30 0,7 0,15 -1,23l-761 0c-4,10 -8,24 -11,41l-2 16zm265 -409c-1,-8 -2,-16 -2,-25 0,-52 14,-88 40,-108 27,-21 58,-31 91,-31 17,0 33,2 47,7 15,5 27,11 37,18 -2,5 -4,13 -5,22 -1,10 -2,18 -2,23l0 4c-8,-5 -18,-10 -30,-14 -14,-5 -30,-7 -47,-7 -33,0 -64,10 -91,31 -21,17 -34,43 -38,80zm209 -69c9,42 44,62 105,62 24,0 51,-2 79,-6 29,-5 55,-7 79,-7 73,0 134,19 180,56 46,38 70,92 70,162 0,10 -1,19 -1,27 -6,-57 -28,-103 -69,-136 -46,-37 -107,-56 -180,-56 -24,0 -50,2 -79,7 -28,4 -55,7 -79,7 -72,0 -108,-29 -108,-88 0,-5 1,-13 2,-22l1 -6zm509 368l89 0 28 0 770 0c2,9 3,19 3,30 0,7 0,15 -1,23l-772 0 -28 0 -103 0c3,-9 6,-19 9,-31 2,-7 4,-14 5,-22zm-384 725c64,0 117,-9 161,-28l0 53c-44,19 -97,28 -161,28 -63,0 -112,-10 -149,-31 -36,-20 -60,-45 -73,-74 4,-11 8,-20 14,-29 14,19 34,35 59,50 37,21 86,31 149,31zm-212 -501c5,25 12,46 22,64 17,30 34,50 52,63l299 0 0 53 -299 0c-18,-12 -35,-33 -52,-63 -17,-30 -26,-68 -28,-117l6 0zm1333 256c41,-29 72,-72 96,-128 17,-41 28,-83 35,-128l5 0c-3,64 -17,124 -40,181 -24,56 -55,99 -96,128 -21,-11 -41,-27 -58,-49 -18,-22 -34,-47 -48,-75 -13,-28 -24,-58 -32,-90 -9,-32 -14,-63 -16,-95l7 0c2,14 5,28 9,42 8,32 19,62 32,90 14,28 30,53 48,75 17,21 37,38 58,49zm-3931 3168l-464 1511 23 -21 454 -1480 -13 -10zm4901 -1054c10,-17 19,-35 28,-53l-368 0c-511,865 -1451,1445 -2528,1445 -1185,0 -2206,-703 -2669,-1714 -3,10 -7,21 -10,31 458,1023 1485,1736 2679,1736 1077,0 2017,-580 2528,-1445l340 0zm-4825 -678c5,-27 1,-58 -10,-93 -10,-32 -17,-64 -20,-94 -4,47 4,97 20,147 4,14 8,27 10,40zm53 -434c13,-49 -8,-92 -61,-113 -39,-15 -82,-20 -123,-29l-12 -3c-23,10 -45,21 -68,39 27,6 54,11 80,17 41,10 84,14 123,29 33,13 53,34 61,60zm-22 -326c6,-27 2,-56 -12,-88 -10,-23 -24,-44 -33,-66l-1 -2c-8,16 -8,35 1,55 9,23 23,44 33,66 6,12 9,24 12,35zm176 -386c11,-48 -8,-103 -58,-167 -32,-42 -69,-80 -106,-117 -56,-58 -117,-111 -170,-172 -53,-60 -89,-123 -97,-192 -10,91 31,171 97,246 53,60 114,113 170,171 37,38 74,76 106,117 32,42 52,80 58,114zm-393 -839c7,-123 -49,-508 -91,-729l-8 10c38,187 93,549 99,719zm4921 -526l32 0c-565,-963 -1612,-1610 -2810,-1610 -1799,0 -3256,1458 -3256,3256l0 34c10,-1789 1464,-3237 3256,-3237 1176,0 2206,623 2778,1557zm-5511 2715c-127,-323 -198,-675 -201,-1042l0 26c0,378 71,738 201,1069 5,-8 10,-16 14,-24 49,-83 125,-105 217,-107 111,-3 221,-19 331,-31 18,-2 34,-9 51,-15 58,-22 68,-37 55,-89 -7,14 -24,24 -55,36 -17,6 -33,13 -51,15 -110,12 -220,28 -331,31 -92,2 -168,23 -217,106 -4,9 -9,17 -14,25zm491 -2196l-1 2c-12,35 -29,68 -34,104 -6,33 -9,67 -6,101 1,-16 3,-32 6,-48 5,-35 22,-69 34,-104 3,-7 3,-26 1,-55zm383 838c-10,12 -28,23 -54,34 -17,7 -35,13 -53,20 -84,31 -123,116 -111,189 9,-57 47,-112 111,-136 18,-7 36,-13 53,-20 59,-25 77,-47 54,-87zm-182 385c-4,3 -8,6 -14,8 -37,15 -75,26 -111,43 -36,17 -75,34 -106,59 -30,25 -38,58 -25,85 5,-11 13,-22 25,-31 31,-26 70,-43 106,-60 36,-17 74,-28 111,-43 26,-10 36,-28 18,-55l-4 -6zm7 360c-46,67 -60,139 -55,214 4,-63 24,-124 69,-180 4,-5 7,-10 10,-15 0,-3 0,-6 1,-15 -8,-2 -17,-3 -25,-4zm2267 3044c-506,0 -989,-92 -1430,-260l-514 377 48 18 466 -342c441,168 924,261 1430,261 548,0 1069,-109 1540,-304 70,-46 138,-94 205,-145 -523,253 -1116,395 -1745,395zm-2508 -882c-789,-646 -1290,-1592 -1300,-2648l-1 19c0,1066 500,2023 1293,2676l8 -47zm2626 -6245c115,4 229,12 342,25 -323,-89 -664,-137 -1015,-137 -2104,0 -3809,1705 -3809,3808l0 34c11,-2095 1712,-3789 3809,-3789 230,0 454,20 673,59zm-1884 3423c-16,-38 -1,-72 43,-84 23,-6 60,6 77,24 152,158 225,347 218,563 -6,-194 -79,-365 -218,-510 -17,-18 -54,-30 -77,-24 -21,6 -36,17 -43,31zm1 1011c-14,-27 -4,-60 29,-97 106,-118 163,-254 170,-417l1 23c-1,177 -59,323 -171,447 -13,15 -23,30 -29,44zm794 -433l0 12c-5,-318 -82,-524 -222,-708 -26,-34 -56,-66 -87,-97 -31,-30 -68,-22 -97,2 -6,6 -12,12 -15,19 -12,-25 -9,-51 15,-72 29,-25 66,-32 97,-2 31,31 61,62 87,97 146,192 223,408 222,749zm-421 626c-15,-29 -2,-59 24,-85 93,-97 166,-207 207,-336 32,-100 50,-197 53,-291 3,111 -14,226 -53,345 -41,128 -114,238 -207,335 -10,10 -18,21 -24,32zm878 -723l0 15c-4,-173 -42,-339 -111,-499 -65,-150 -154,-285 -271,-400 -41,-40 -98,-36 -116,4 -4,-13 -6,-25 -5,-36 8,-56 75,-67 121,-22 117,116 206,251 271,401 74,171 113,350 111,537zm-502 919c-12,-25 -7,-51 13,-75 28,-34 60,-63 87,-98 171,-224 259,-460 265,-709 6,268 -82,523 -265,763 -27,34 -59,64 -87,98 -5,7 -10,14 -13,21zm2483 -542c5,13 10,26 17,37 15,27 35,47 61,61 15,-2 29,-3 43,-3l92 0 0 53 -92 0c-14,0 -28,1 -43,3 -26,-13 -46,-34 -61,-60 -15,-27 -25,-57 -28,-91l11 0zm129 -232c-2,-8 -3,-17 -3,-27 0,-20 4,-38 12,-53 7,-16 18,-30 31,-41 13,-11 28,-20 45,-26 18,-5 36,-8 56,-8 20,0 39,3 56,9 17,6 32,15 45,26 13,11 23,25 30,41 8,15 12,33 12,52 0,10 -1,19 -3,27 -2,-9 -5,-18 -9,-26 -7,-16 -17,-29 -30,-41 -13,-11 -28,-20 -45,-26 -17,-6 -36,-9 -56,-9 -20,0 -38,3 -56,9 -17,6 -32,14 -45,25 -13,12 -24,25 -31,41 -4,8 -7,17 -9,27zm195 31l-4 -4 2 -3c1,2 2,4 2,7zm-106 -8l2 4 -4 4c0,-3 1,-6 2,-8zm451 601c9,0 18,0 28,-1 12,13 22,29 31,48 -10,2 -20,4 -30,5 -10,1 -19,2 -29,2 -39,0 -67,-6 -86,-17 -18,-11 -27,-24 -27,-39 0,-12 4,-21 11,-27 4,5 10,9 16,13 19,11 47,16 86,16z"/>
  </g>
 </g>
</svg>
