<svg width="21" height="20" viewBox="0 0 21 20" fill="none" xmlns="http://www.w3.org/2000/svg">
<path fill-rule="evenodd" clip-rule="evenodd" d="M15.7974 3.63227C15.8677 3.56198 15.9511 3.50622 16.043 3.46817C16.1348 3.43013 16.2333 3.41055 16.3327 3.41055C16.4321 3.41055 16.5305 3.43013 16.6224 3.46817C16.7142 3.50622 16.7977 3.56198 16.868 3.63227C16.9383 3.70257 16.994 3.78602 17.0321 3.87787C17.0701 3.96971 17.0897 4.06815 17.0897 4.16757C17.0897 4.26699 17.0701 4.36543 17.0321 4.45727C16.994 4.54912 16.9383 4.63257 16.868 4.70287L15.6011 5.96974L14.5305 4.89915L15.7974 3.63227ZM13.3991 6.03052L4.84784 14.5818L4.44637 16.0539L5.91843 15.6524L14.4697 7.10111L13.3991 6.03052ZM17.9993 5.83424L6.74935 17.0842L2.16602 18.3342L3.41602 13.7509L14.666 2.5009C14.8849 2.28203 15.1447 2.10842 15.4307 1.98996C15.7167 1.87151 16.0232 1.81055 16.3327 1.81055C16.6422 1.81055 16.9487 1.87151 17.2347 1.98996C17.5206 2.10842 17.7805 2.28203 17.9993 2.5009C18.2182 2.71977 18.3918 2.97961 18.5103 3.26558C18.6287 3.55154 18.6897 3.85804 18.6897 4.16757C18.6897 4.4771 18.6287 4.7836 18.5103 5.06956C18.3918 5.35553 18.2182 5.61537 17.9993 5.83424Z" fill="#007BFF"/>
</svg>
