<svg width="218" height="266" viewBox="0 0 218 266" fill="none" xmlns="http://www.w3.org/2000/svg">
<path d="M86.0059 29.7983C84.9045 29.7983 84.0234 30.669 84.0234 31.7573V50.0412C84.0234 51.1295 84.9045 52.0002 86.0059 52.0002H131.381C132.483 52.0002 133.364 51.1295 133.364 50.0412V31.7573C133.364 30.669 132.483 29.7983 131.381 29.7983H86.0059ZM129.399 44.1642C129.399 45.2526 128.518 46.1232 127.416 46.1232H90.191C89.0896 46.1232 88.2086 45.2526 88.2086 44.1642V35.893C88.2086 34.8046 89.0896 33.934 90.191 33.934H127.416C128.518 33.934 129.399 34.8046 129.399 35.893V44.1642Z" fill="#D1D4D8"/>
<path d="M140.045 0L114.918 37.8775H127.37L155.388 0H140.045Z" fill="#0FA711"/>
<path d="M127.377 0L102.473 37.8775H114.925L140.052 0H127.377Z" fill="white"/>
<path d="M114.92 0L90.0156 37.8775H102.468L127.373 0H114.92Z" fill="#FF7600"/>
<path d="M90.0177 37.8775H102.47L77.343 0H62L90.0177 37.8775Z" fill="#FF7600"/>
<path d="M102.471 37.8775H114.923L90.0184 0H77.3438L102.471 37.8775Z" fill="white"/>
<path opacity="0.5" d="M110.695 6.27979L104.469 15.6931L119.145 37.8818H127.372L129.596 34.744L110.695 6.27979Z" fill="#3E4347"/>
<path d="M114.92 37.8775H127.373L102.468 0H90.0156L114.92 37.8775Z" fill="#0FA711"/>
<g filter="url(#filter0_ii)">
<path d="M218 157C218 217.199 169.199 266 109 266C48.801 266 0 217.199 0 157C0 96.801 48.801 48 109 48C169.199 48 218 96.801 218 157Z" fill="#34373C" fill-opacity="0.4"/>
</g>
<path d="M214.5 157C214.5 215.266 167.266 262.5 109 262.5C50.734 262.5 3.5 215.266 3.5 157C3.5 98.734 50.734 51.5 109 51.5C167.266 51.5 214.5 98.734 214.5 157Z" stroke="#DFDFDF" stroke-width="7"/>
<path d="M214.5 157C214.5 215.266 167.266 262.5 109 262.5C50.734 262.5 3.5 215.266 3.5 157C3.5 98.734 50.734 51.5 109 51.5C167.266 51.5 214.5 98.734 214.5 157Z" stroke="url(#paint0_linear)" stroke-width="7"/>
<path d="M214.5 157C214.5 215.266 167.266 262.5 109 262.5C50.734 262.5 3.5 215.266 3.5 157C3.5 98.734 50.734 51.5 109 51.5C167.266 51.5 214.5 98.734 214.5 157Z" stroke="url(#paint1_linear)" stroke-width="7"/>
<path d="M196 157C196 205.049 157.049 244 109 244C60.9512 244 22 205.049 22 157C22 108.951 60.9512 70 109 70C157.049 70 196 108.951 196 157Z" fill="#5C686B" stroke="#6F7A7D" stroke-width="30"/>
<path d="M109.001 80C66.5595 80 32 114.357 32 157.001C32 199.645 66.3574 234.002 109.001 234.002C151.645 234.002 186.002 199.645 186.002 157.001C186.002 114.357 151.442 80 109.001 80ZM93.6412 87.4778C93.8433 87.4778 93.8433 87.4778 93.6412 87.4778C95.0559 90.5093 97.6833 92.3282 100.311 91.7219C102.938 91.3177 105.565 89.4988 105.767 85.861C106.172 85.861 106.576 85.861 106.98 85.861C106.98 96.7745 106.172 108.496 104.959 121.229C104.757 122.441 104.757 123.654 104.757 124.867C104.353 123.856 103.948 122.644 103.544 121.229C99.3001 110.517 95.4601 98.9976 92.4286 87.6799C93.0349 87.6799 93.237 87.4778 93.6412 87.4778ZM76.0583 93.743C78.2814 96.3703 81.1109 97.3808 83.5361 96.1682C86.3655 94.9556 87.9823 92.1261 87.376 89.0946C87.7802 88.8925 88.1844 88.8925 88.5886 88.6904C91.216 99.1997 93.8433 110.72 95.8643 123.452C96.0664 124.867 96.2685 125.877 96.6727 127.09C96.0664 126.079 95.4601 125.069 94.4496 123.856C87.5781 114.559 80.9088 104.454 75.0478 94.3493C75.2499 94.1472 75.6541 93.9451 76.0583 93.743ZM60.4964 104.656C63.3259 106.475 66.3574 106.678 68.3784 105.061C69.9952 103.848 70.8036 102.029 70.8036 100.21C70.8036 99.1997 70.6015 98.1892 69.9952 97.3808C70.3994 97.1787 70.6015 96.9766 71.0057 96.7745C76.4625 106.071 81.7172 116.783 87.1739 128.302C87.7802 129.515 88.3865 130.526 88.7907 131.536C87.9823 130.728 86.9718 129.919 85.9613 129.111C77.0688 121.633 67.9742 113.549 59.688 105.465C59.8901 105.061 60.2943 104.859 60.4964 104.656ZM48.3703 119.006C48.5724 119.006 48.5724 119.006 48.3703 119.006C51.6039 120.016 54.6355 119.612 56.0502 117.389C56.4544 116.783 57.4649 115.166 57.4649 113.549C57.4649 112.538 57.0607 110.922 55.8481 109.507C56.0502 109.305 56.4544 108.901 56.6565 108.699C64.3364 116.378 72.2184 125.271 80.5046 134.972C81.313 135.982 82.1214 136.791 82.9298 137.599C81.9193 136.993 80.7067 136.589 79.494 135.982C68.9847 131.132 58.0712 125.675 47.764 120.016C47.9661 119.612 48.1682 119.41 48.3703 119.006ZM40.4883 135.982C40.4883 135.982 40.4883 135.78 40.4883 135.982C43.924 136.184 46.5514 134.972 47.5619 132.344C47.764 131.738 47.9661 130.93 47.9661 129.717C47.9661 128.505 47.5619 126.281 45.1367 124.665C45.3388 124.26 45.5409 124.058 45.743 123.654C55.0397 129.111 65.1448 135.578 75.452 142.854C76.4625 143.662 77.6751 144.269 78.4835 144.875C77.473 144.673 76.0583 144.471 74.6436 144.066C63.3259 142.45 51.4018 140.024 39.882 136.993C40.2862 136.791 40.4883 136.387 40.4883 135.982ZM37.2547 154.374C37.2547 154.374 37.2547 154.172 37.2547 154.374C40.4883 153.767 42.9135 151.746 43.1156 149.119C43.1156 148.917 43.1156 148.715 43.1156 148.311C43.1156 145.885 41.903 143.258 38.8715 142.248C38.8715 141.843 39.0736 141.439 39.0736 141.035C49.5829 143.864 60.9006 147.704 72.8247 151.948C74.0373 152.353 75.2499 152.757 76.2604 152.959C75.0478 152.959 73.8352 153.161 72.4205 153.161C61.1027 154.576 48.7745 155.182 37.0526 155.384C37.2547 155.182 37.2547 154.778 37.2547 154.374ZM38.8715 173.169C38.8715 172.967 38.8715 172.967 38.8715 173.169C41.4988 171.754 43.1156 169.733 43.1156 167.308C43.1156 167.106 43.1156 166.702 43.1156 166.5C42.7114 163.872 40.8925 161.245 37.2547 161.043C37.2547 160.639 37.2547 160.235 37.2547 159.83C48.1682 159.83 59.8901 160.437 72.6226 161.447C74.0373 161.649 75.2499 161.649 76.2604 161.649C75.2499 162.054 74.0373 162.458 72.6226 162.862C61.9111 167.106 50.3913 170.946 39.0736 174.18C39.0736 173.978 39.0736 173.573 38.8715 173.169ZM45.3387 190.752C45.3387 190.752 45.3387 190.55 45.3387 190.752C47.1577 189.135 48.1682 187.316 48.1682 185.295C48.1682 184.487 47.9661 183.881 47.764 183.274C46.7535 180.849 44.3282 178.828 40.6904 179.636C40.4883 179.232 40.4883 178.828 40.2862 178.424C50.7955 175.594 62.3153 173.169 74.8457 170.946C76.2604 170.744 77.2709 170.34 78.4835 170.138C77.473 170.744 76.4625 171.35 75.2499 172.361C65.9532 179.232 55.8481 185.902 45.743 191.965C45.743 191.358 45.5409 191.156 45.3387 190.752ZM56.2523 206.112C57.2628 204.495 57.667 203.08 57.667 201.463C57.667 200.251 57.2628 199.038 56.4544 198.23C54.8376 196.209 51.806 194.794 48.5724 196.411C48.3703 196.007 48.1682 195.805 47.9661 195.4C57.2628 189.944 67.9742 184.487 79.494 179.03C80.7067 178.424 81.7172 177.818 82.7277 177.413C81.9193 178.222 81.1109 179.232 80.3024 180.243C73.2289 189.337 65.1448 198.432 57.0607 206.92C56.8586 206.718 56.4544 206.516 56.2523 206.112ZM70.6015 218.036C70.8036 216.823 71.0057 215.813 71.0057 214.802C71.0057 212.781 70.1973 211.164 68.7826 210.356C66.7616 208.941 63.528 208.133 60.9006 210.76C60.4964 210.558 60.2943 210.154 60.0922 209.952C67.7721 202.272 76.4625 194.188 86.1634 186.104C87.1739 185.295 87.9823 184.487 88.7907 183.678C88.1844 184.689 87.7802 185.902 87.1739 187.114C82.7277 197.624 77.473 208.537 71.612 218.642C71.4099 218.44 71.0057 218.238 70.6015 218.036ZM87.5781 225.918C87.7802 222.482 86.3655 219.855 83.9403 218.844C81.5151 218.036 78.2814 218.238 76.2604 221.27C75.8562 221.067 75.6541 220.865 75.2499 220.663C80.7066 211.367 86.9718 201.261 94.2475 190.752C95.0559 189.539 95.6622 188.529 96.2685 187.721C96.0664 188.731 95.8643 190.146 95.4601 191.56C93.8433 202.878 91.4181 214.802 88.5886 226.322C88.3865 226.12 87.9823 226.12 87.5781 225.918ZM105.969 228.949C105.363 225.716 103.342 223.291 100.715 223.088C98.0874 222.886 95.0559 223.897 94.0454 227.333C93.6412 227.333 93.237 227.13 92.8328 227.13C95.6622 216.621 99.3001 205.303 103.544 193.379C103.948 192.167 104.353 190.954 104.555 189.944C104.555 191.156 104.757 192.369 104.757 193.784C106.172 205.101 106.98 217.43 107.182 229.151C106.778 229.151 106.374 229.151 105.969 228.949ZM178.928 142.45C176.301 143.864 174.482 145.885 174.482 148.311C174.482 148.513 174.482 148.917 174.482 149.119C174.886 151.746 176.705 154.374 180.343 154.576C180.343 154.98 180.343 155.384 180.343 155.788C169.632 155.788 157.708 154.98 144.975 153.767C143.56 153.565 142.348 153.565 141.337 153.565C142.348 153.161 143.56 152.757 144.975 152.353C155.687 148.108 167.206 144.269 178.524 141.237C178.726 141.641 178.726 142.045 178.928 142.45ZM172.663 124.867C172.663 124.867 172.663 125.069 172.663 124.867C170.844 126.484 169.834 128.302 169.834 130.323C169.834 131.132 170.036 131.738 170.238 132.344C171.248 134.77 173.674 136.791 177.312 136.184C177.514 136.589 177.514 136.993 177.716 137.397C167.206 140.024 155.485 142.45 142.954 144.673C141.539 144.875 140.529 145.077 139.316 145.481C140.327 144.875 141.337 144.269 142.55 143.46C151.847 136.387 161.952 129.717 172.057 123.856C172.259 124.26 172.461 124.463 172.663 124.867ZM162.154 109.709C161.143 111.326 160.537 112.943 160.537 114.357C160.537 115.57 160.941 116.783 161.75 117.591C163.366 119.612 166.196 121.027 169.43 119.41C169.632 119.814 169.834 120.016 170.036 120.42C160.537 125.675 150.028 131.132 138.306 136.184C137.093 136.791 136.083 137.195 135.072 137.801C135.881 136.993 136.689 135.982 137.7 134.972C144.975 126.079 153.059 116.985 161.345 108.699C161.548 109.103 161.952 109.305 162.154 109.709ZM147.603 97.1787C147.603 97.1787 147.805 97.3808 147.603 97.1787C147.4 98.3913 146.996 99.4018 146.996 100.412C146.996 102.231 147.805 103.848 149.219 104.859C151.24 106.273 154.474 107.082 157.101 104.656C157.303 104.859 157.708 105.263 157.91 105.465C150.23 113.145 141.337 121.027 131.434 129.111C130.424 129.919 129.413 130.728 128.807 131.536C129.413 130.526 129.818 129.515 130.424 128.1C135.072 117.591 140.529 106.678 146.39 96.5724C146.996 96.7745 147.198 96.9766 147.603 97.1787ZM130.626 89.2967C130.828 89.2967 130.828 89.2967 130.626 89.2967C130.424 92.7324 131.839 95.3598 134.264 96.3703C136.689 97.3808 139.923 97.1787 141.944 93.9451C142.348 94.1472 142.55 94.3493 142.954 94.5514C137.497 103.848 131.03 113.751 123.552 124.26C122.744 125.271 122.138 126.281 121.531 127.292C121.733 126.281 122.138 124.867 122.34 123.452C124.159 112.134 126.584 100.21 129.413 88.8925C130.02 88.8925 130.222 89.0946 130.626 89.2967ZM112.437 85.861C112.437 85.861 112.639 85.861 112.437 85.861C113.043 89.0946 115.064 91.5198 117.691 91.7219C120.319 91.924 123.35 90.9135 124.563 87.4778C124.967 87.4778 125.371 87.6799 125.775 87.6799C122.946 98.1892 119.106 109.507 114.66 121.229C114.256 122.441 113.851 123.654 113.447 124.665C113.447 123.452 113.245 122.239 113.245 120.825C112.033 109.507 111.224 97.1787 111.224 85.4568C111.628 85.861 112.033 85.861 112.437 85.861ZM124.361 227.333C122.744 224.301 120.319 222.684 117.691 223.088C115.064 223.493 112.437 225.312 112.235 228.949C111.83 228.949 111.426 228.949 111.022 228.949C111.022 218.036 111.628 206.314 112.841 193.581C113.043 192.369 113.043 191.358 113.043 190.348C113.043 190.146 113.043 190.146 113.043 189.944C113.447 190.954 113.851 192.167 114.256 193.581C118.5 204.293 122.34 215.813 125.573 227.13C125.169 227.333 124.765 227.333 124.361 227.333ZM141.742 221.067C141.742 221.067 141.539 221.067 141.742 221.067C139.518 218.44 136.689 217.43 134.264 218.642C131.434 219.855 129.818 222.684 130.626 225.716C130.222 225.918 129.818 225.918 129.413 226.12C126.584 215.611 124.159 204.091 122.138 191.56C121.936 190.146 121.733 189.135 121.329 187.923C121.936 188.933 122.542 189.944 123.552 191.156C130.424 200.453 137.093 210.558 142.954 220.663C142.348 220.865 142.146 220.865 141.742 221.067ZM157.303 210.154C157.303 210.356 157.303 210.356 157.303 210.154C154.474 208.335 151.442 208.133 149.421 209.75C147.805 210.962 146.996 212.781 146.996 214.6C146.996 215.611 147.198 216.621 147.805 217.43C147.4 217.632 147.198 217.834 146.794 218.036C141.337 208.739 135.881 198.028 130.626 186.508C130.02 185.295 129.413 184.285 129.009 183.274C129.818 184.083 130.828 184.891 131.839 185.699C140.933 192.773 150.028 200.857 158.314 209.143C157.91 209.75 157.708 209.952 157.303 210.154ZM169.227 196.007C169.227 196.007 169.227 196.209 169.227 196.007C165.994 194.996 162.962 195.4 161.548 197.624C161.143 198.23 160.133 199.847 160.133 201.463C160.133 202.474 160.537 204.091 161.75 205.506C161.548 205.708 161.143 206.112 160.941 206.314C153.261 198.634 145.379 189.742 137.295 180.041C136.487 179.03 135.678 178.02 134.87 177.413C135.881 178.02 137.093 178.424 138.306 179.03C148.815 183.678 159.729 189.135 170.036 194.794C169.632 195.4 169.43 195.603 169.227 196.007ZM177.109 179.03C177.109 179.232 177.109 179.232 177.109 179.03C173.674 178.828 171.046 180.041 170.036 182.668C169.834 183.274 169.632 184.083 169.632 185.295C169.632 186.508 170.036 188.731 172.461 190.348C172.259 190.752 172.057 190.954 171.855 191.358C162.558 185.902 152.453 179.434 142.146 172.159C141.135 171.35 139.923 170.744 139.114 170.138C140.125 170.34 141.539 170.744 142.954 170.946C154.272 172.563 166.196 174.988 177.514 178.02C177.312 178.424 177.312 178.828 177.109 179.03ZM180.343 160.841C177.109 161.447 174.684 163.266 174.482 165.893C174.482 166.096 174.482 166.298 174.482 166.702C174.482 169.127 175.695 171.754 178.726 172.765C178.726 173.169 178.524 173.573 178.524 173.978C168.015 171.148 156.697 167.51 144.773 163.064C143.56 162.66 142.348 162.256 141.337 162.054C142.55 162.054 143.763 161.851 145.177 161.851C156.495 160.639 168.823 159.83 180.545 159.83C180.545 160.033 180.343 160.437 180.343 160.841Z" fill="#D1D4D8"/>
<circle cx="109" cy="157" r="77" stroke="url(#paint2_linear)" stroke-width="2"/>
<circle cx="109" cy="157" r="101" stroke="url(#paint3_linear)" stroke-width="2"/>
<g filter="url(#filter1_i)">
<circle cx="109" cy="157" r="50" fill="#6F7A7D"/>
</g>
<mask id="mask0" mask-type="alpha" maskUnits="userSpaceOnUse" x="59" y="107" width="100" height="100">
<circle cx="109" cy="157" r="50" fill="#C3863A"/>
</mask>
<g mask="url(#mask0)">
<path d="M82.6969 105.385L82.6979 105.386L82.948 105.755C83.1118 105.996 83.3522 106.351 83.6587 106.803C84.2716 107.708 85.1489 109.003 86.2061 110.568C88.3206 113.698 91.1554 117.904 94.0364 122.21C96.917 126.516 99.8455 130.924 102.147 134.456C103.297 136.222 104.293 137.772 105.048 138.983C105.788 140.169 106.335 141.088 106.55 141.554C106.628 141.723 106.657 141.91 106.632 142.094C106.534 142.829 106.129 143.471 105.646 144.005C105.156 144.547 104.516 145.053 103.813 145.52C102.404 146.455 100.608 147.318 98.8706 148.047C97.125 148.779 95.4 149.393 94.1146 149.823C93.6747 149.97 93.2852 150.095 92.9629 150.198C93.1439 150.686 93.3873 151.329 93.6735 152.051C94.3132 153.666 95.1542 155.645 95.9843 157.186C96.4389 158.031 96.1789 158.859 95.7262 159.467C95.3 160.04 94.6303 160.543 93.9004 160.984C92.419 161.877 90.3247 162.724 88.2437 163.448C86.3521 164.107 84.4214 164.682 82.875 165.113C83.4397 165.304 84.052 165.513 84.687 165.732C87.3423 166.647 90.4545 167.766 92.1006 168.526C93.8143 169.317 94.6604 170.287 94.7213 171.384C94.7496 171.893 94.5932 172.305 94.4453 172.575C94.3705 172.712 94.2935 172.82 94.2321 172.898C94.2011 172.937 94.1733 172.97 94.1506 172.995L94.1371 173.01C94.1295 173.019 94.1172 173.034 94.1009 173.055C94.0648 173.101 94.0092 173.173 93.9405 173.272C93.8027 173.468 93.6142 173.764 93.4245 174.144C93.0436 174.905 92.6701 175.98 92.6701 177.259C92.6701 177.659 92.6801 178.157 92.6916 178.725L92.6916 178.726V178.726C92.7201 180.144 92.7574 181.997 92.669 183.832C92.5466 186.371 92.1799 189.179 91.0541 191.008C90.7744 191.463 90.3091 191.739 89.8966 191.918C89.4594 192.109 88.9312 192.254 88.3535 192.37C87.195 192.603 85.6931 192.742 83.9974 192.818C80.5971 192.969 76.2723 192.868 72.0358 192.668C67.7934 192.469 63.6152 192.169 60.4994 191.92C58.941 191.795 57.6472 191.683 56.7427 191.601C56.2904 191.561 55.9354 191.528 55.6932 191.505L55.4164 191.479L55.3682 191.475H33.6015C33.06 191.475 32.6211 191.036 32.6211 190.494V106.916C32.6211 106.382 33.048 105.947 33.5816 105.936L81.8659 104.955C82.1977 104.949 82.5104 105.11 82.6969 105.385Z" fill="white"/>
<path fill-rule="evenodd" clip-rule="evenodd" d="M114.267 149.364C113.599 150.033 113.638 151.118 114.209 151.872C115.402 153.445 116.109 155.406 116.109 157.533C116.109 159.506 115.5 161.337 114.46 162.847C113.94 163.603 113.928 164.646 114.577 165.295C115.23 165.948 116.301 165.951 116.86 165.215C118.481 163.081 119.442 160.419 119.442 157.533C119.442 154.437 118.336 151.6 116.497 149.395C115.926 148.709 114.898 148.733 114.267 149.364ZM119.872 168.245C119.292 168.957 119.286 170.004 119.936 170.653C120.588 171.306 121.652 171.308 122.247 170.603C125.223 167.072 127.017 162.512 127.017 157.533C127.017 152.356 125.078 147.631 121.886 144.046C121.284 143.371 120.245 143.386 119.606 144.026C118.944 144.687 118.965 145.759 119.576 146.468C122.136 149.438 123.684 153.305 123.684 157.533C123.684 161.596 122.255 165.325 119.872 168.245ZM125.634 174.002C125.03 174.695 125.027 175.744 125.677 176.394C126.328 177.046 127.39 177.048 128.001 176.358C132.439 171.346 135.134 164.755 135.134 157.534C135.134 150.119 132.293 143.368 127.64 138.309C127.024 137.64 125.98 137.651 125.337 138.294C124.679 138.953 124.693 140.019 125.318 140.71C129.346 145.158 131.8 151.059 131.8 157.534C131.8 163.837 129.474 169.597 125.634 174.002Z" fill="white"/>
</g>
<path d="M52.3984 81.2998L54.8984 79.4998C55.1984 79.2998 55.4984 79.0998 55.8984 78.9998C56.2984 78.8998 56.4985 78.7998 56.7985 78.7998C57.0985 78.7998 57.3985 78.8998 57.6985 78.9998C57.9985 79.0998 58.1985 79.3998 58.4985 79.6998C58.7985 80.0998 58.8984 80.4998 58.8984 80.9998C58.8984 81.3998 58.6984 81.7998 58.3984 82.1998C58.5984 82.0998 58.8984 81.9998 59.0984 81.8998C59.2984 81.7998 59.5984 81.8998 59.8984 81.8998C60.1984 81.9998 60.3984 82.0998 60.5984 82.1998C60.7984 82.3998 60.9985 82.5998 61.1985 82.7998C61.3985 83.0998 61.5984 83.4998 61.5984 83.7998C61.5984 84.0998 61.5985 84.4998 61.4985 84.7998C61.3985 85.0998 61.1985 85.4998 60.9985 85.7998C60.7985 86.0998 60.4984 86.3998 60.0984 86.6998L57.5984 88.4998L52.3984 81.2998ZM55.5984 83.5998L56.9985 82.5998C57.1985 82.4998 57.2985 82.2998 57.4985 82.1998C57.5985 81.9998 57.6985 81.8998 57.7985 81.6998C57.8985 81.4998 57.8985 81.2998 57.7985 81.0998C57.7985 80.8998 57.6985 80.6998 57.4985 80.4998C57.2985 80.1998 56.9985 79.9998 56.6985 79.8998C56.3985 79.7998 55.9984 79.8998 55.5984 80.1998L53.9985 81.2998L55.5984 83.5998ZM57.9985 86.9998L59.4985 85.8998C59.6985 85.7998 59.7985 85.6998 59.9985 85.4998C60.1985 85.2998 60.2984 85.1998 60.3984 84.8998C60.4984 84.5998 60.4985 84.4998 60.4985 84.1998C60.4985 83.8998 60.3985 83.6998 60.1985 83.3998C59.8985 82.9998 59.4984 82.6998 59.0984 82.6998C58.6984 82.6998 58.1985 82.8998 57.6985 83.1998L56.1985 84.2998L57.9985 86.9998Z" fill="white"/>
<path d="M58.6992 76.1L59.6992 75.5L61.9992 79.4C61.9992 79 61.9992 78.7 62.1992 78.3C62.3992 77.9 62.6992 77.6 63.0992 77.4C63.2992 77.3 63.5992 77.1 63.8992 77.1C64.1992 77 64.3992 77 64.6992 77.1C64.9992 77.2 65.1992 77.3 65.4992 77.5C65.7992 77.7 65.9992 78 66.1992 78.3L68.1992 81.6L67.1992 82.2L65.3992 79.1C65.2992 78.9 65.0992 78.7 64.8992 78.5C64.6992 78.4 64.5992 78.3 64.3992 78.2C64.1992 78.2 64.0992 78.2 63.8992 78.2C63.6992 78.2 63.5992 78.3 63.3992 78.4C63.1992 78.5 62.9992 78.7 62.8992 78.8C62.7992 78.9 62.6992 79.2 62.5992 79.4C62.5992 79.6 62.5992 79.9 62.5992 80.1C62.6992 80.4 62.7992 80.6 62.9992 80.9L64.5992 83.6L63.5992 84.2L58.6992 76.1Z" fill="white"/>
<path d="M67.1992 76.1999C67.3992 75.7999 67.5992 75.3999 67.8992 75.0999C68.1992 74.7999 68.5992 74.4999 68.8992 74.2999C69.2992 74.0999 69.6992 73.9999 69.9992 73.8999C70.2992 73.7999 70.5992 73.8999 70.8992 73.8999C71.1992 73.9999 71.3992 74.0999 71.5992 74.2999C71.7992 74.4999 71.9992 74.6999 72.0992 74.8999L73.4992 77.6999C73.5992 77.8999 73.6992 78.0999 73.7992 78.1999C73.8992 78.3999 73.9992 78.4999 74.0992 78.5999L73.1992 79.0999C72.9992 78.7999 72.8992 78.5999 72.7992 78.2999C72.6992 78.7999 72.5992 79.0999 72.3992 79.3999C72.1992 79.6999 71.7992 79.9999 71.3992 80.1999C71.0992 80.2999 70.8992 80.3999 70.5992 80.4999C70.2992 80.4999 70.0992 80.4999 69.7992 80.4999C69.5992 80.3999 69.2992 80.2999 69.0992 80.1999C68.8992 79.9999 68.6992 79.7999 68.5992 79.5999C68.3992 79.1999 68.3992 78.8999 68.3992 78.5999C68.3992 78.2999 68.5992 77.9999 68.7992 77.6999C68.9992 77.3999 69.2992 77.1999 69.5992 76.8999C69.8992 76.6999 70.2992 76.3999 70.6992 76.1999L71.4992 75.7999L71.3992 75.5999C71.2992 75.4999 71.1992 75.2999 71.0992 75.1999C70.9992 75.0999 70.7992 74.9999 70.6992 74.8999C70.4992 74.7999 70.3992 74.7999 70.1992 74.7999C69.9992 74.7999 69.7992 74.8999 69.5992 74.9999C69.3992 75.0999 69.1992 75.1999 69.0992 75.2999C68.9992 75.3999 68.8992 75.4999 68.7992 75.5999C68.6992 75.6999 68.2992 75.9999 68.2992 76.1999C68.1992 76.2999 68.1992 76.3999 68.0992 76.5999L67.1992 76.1999ZM71.0992 76.8999C70.8992 76.9999 70.5992 77.1999 70.3992 77.2999C70.1992 77.4999 69.9992 77.5999 69.7992 77.7999C69.5992 77.9999 69.4992 78.1999 69.3992 78.3999C69.2992 78.5999 69.3992 78.7999 69.4992 78.9999C69.6992 79.2999 69.8992 79.4999 70.1992 79.4999C70.4992 79.4999 70.7992 79.4999 71.1992 79.2999C71.4992 79.1999 71.6992 78.9999 71.7992 78.7999C71.8992 78.5999 71.9992 78.3999 72.0992 78.1999C72.1992 77.9999 72.0992 77.7999 72.0992 77.5999C72.0992 77.3999 71.9992 77.1999 71.8992 76.9999L71.6992 76.6999L71.0992 76.8999Z" fill="white"/>
<path d="M76.4 72.7999C76.2 72.6999 76 72.5999 75.8 72.5999C75.6 72.5999 75.3 72.5999 75.1 72.6999C74.8 72.7999 74.7 72.8999 74.5 73.0999C74.3 73.2999 74.3 73.4999 74.4 73.6999C74.5 73.8999 74.6 73.9999 74.7 73.9999C74.8 73.9999 75 74.0999 75.2 74.0999C75.4 74.0999 75.5 74.0999 75.7 73.9999C75.9 73.9999 76 73.8999 76.2 73.8999C76.5 73.8999 76.7 73.7999 76.9 73.7999C77.1 73.7999 77.3 73.7999 77.5 73.8999C77.7 73.9999 77.9 74.0999 78 74.1999C78.2 74.2999 78.3 74.4999 78.4 74.7999C78.5 75.0999 78.6 75.3999 78.5 75.6999C78.4 75.9999 78.4 76.1999 78.2 76.4999C78 76.7999 77.8 76.8999 77.6 77.0999C77.4 77.2999 77.1 77.3999 76.8 77.4999C76.3 77.6999 75.9 77.7999 75.5 77.7999C75.1 77.7999 74.7 77.6999 74.2 77.3999L74.7 76.3999C74.9 76.4999 75.2 76.5999 75.5 76.5999C75.8 76.5999 76.1 76.5999 76.4 76.4999C76.5 76.3999 76.7 76.3999 76.8 76.2999C76.9 76.1999 77 76.0999 77.1 75.9999C77.2 75.8999 77.2 75.7999 77.3 75.6999C77.4 75.5999 77.3 75.4999 77.3 75.2999C77.2 75.0999 77.1 74.9999 77 74.9999C76.9 74.8999 76.7 74.8999 76.5 74.8999C76.3 74.8999 76.2 74.8999 76 74.8999C75.8 74.8999 75.7 74.9999 75.6 74.9999C75.3 74.9999 75.1 75.0999 74.9 75.0999C74.7 75.0999 74.4 75.0999 74.2 74.9999C74 74.8999 73.8 74.8999 73.6 74.6999C73.4 74.5999 73.3 74.3999 73.2 74.0999C73.1 73.7999 73 73.4999 73.1 73.2999C73.1 72.9999 73.2 72.7999 73.4 72.5999C73.5 72.3999 73.7 72.1999 74 71.9999C74.2 71.7999 74.5 71.6999 74.7 71.5999C75.1 71.3999 75.5 71.3999 75.9 71.3999C76.3 71.3999 76.7 71.4999 77 71.7999L76.4 72.7999Z" fill="white"/>
<path d="M77.0977 67.0001L78.1977 66.6001L79.5977 70.9001C79.5977 70.5001 79.7977 70.2001 80.0977 69.9001C80.3977 69.6001 80.6977 69.4001 81.1977 69.2001C81.4977 69.1001 81.7977 69.1001 81.9977 69.1001C82.1977 69.1001 82.4977 69.2001 82.7977 69.3001C82.9977 69.4001 83.2977 69.6001 83.4977 69.8001C83.6977 70.0001 83.8977 70.4001 83.9977 70.7001L85.1977 74.4001L84.0977 74.8001L82.9977 71.4001C82.8977 71.1001 82.7977 70.9001 82.6977 70.8001C82.5977 70.6001 82.3977 70.5001 82.2977 70.4001C82.0977 70.3001 81.9977 70.3001 81.7977 70.3001C81.5977 70.3001 81.4977 70.3001 81.2977 70.4001C81.0977 70.5001 80.8977 70.6001 80.6977 70.7001C80.4977 70.8001 80.3977 71.0001 80.2977 71.2001C80.1977 71.4001 80.1977 71.6001 80.1977 71.9001C80.1977 72.2001 80.2976 72.5001 80.3976 72.8001L81.3976 75.8001L80.2977 76.2001L77.0977 67.0001Z" fill="white"/>
<path d="M84.2992 66.2001C84.1992 66.0001 84.2992 65.8001 84.3992 65.6001C84.4992 65.4001 84.6992 65.3001 84.8992 65.2001C85.0992 65.1001 85.2993 65.2001 85.4993 65.3001C85.6993 65.4001 85.7992 65.6001 85.8992 65.8001C85.9992 66.0001 85.8992 66.2001 85.7992 66.4001C85.6992 66.6001 85.4992 66.7001 85.2992 66.8001C85.0992 66.9001 84.8993 66.8001 84.6993 66.7001C84.4993 66.6001 84.3992 66.5001 84.2992 66.2001ZM85.1993 68.3001L86.2992 68.0001L87.8992 73.8001L86.7992 74.1001L85.1993 68.3001Z" fill="white"/>
<path d="M88.0977 67.5001L89.1977 67.3001L89.3976 68.2001C89.4976 67.9001 89.6977 67.5001 89.9977 67.3001C90.2977 67.1001 90.6977 66.8001 91.1977 66.8001C91.4977 66.7001 91.7977 66.7001 91.9977 66.8001C92.2977 66.8001 92.4977 66.9001 92.7977 67.1001C92.9977 67.2001 93.1976 67.4001 93.3976 67.7001C93.5976 68.0001 93.6977 68.3001 93.7977 68.7001L94.5977 72.5001L93.4977 72.7001L92.7977 69.0001C92.6977 68.7001 92.6977 68.5001 92.4977 68.3001C92.3977 68.1001 92.2977 68.0001 92.0977 67.9001C91.9977 67.8001 91.7977 67.7001 91.5977 67.7001C91.3977 67.7001 91.2977 67.7001 91.0977 67.7001C90.8977 67.7001 90.6977 67.8001 90.4977 67.9001C90.2977 68.0001 90.1977 68.2001 89.9977 68.4001C89.8977 68.6001 89.7977 68.8001 89.7977 69.1001C89.7977 69.4001 89.7976 69.7001 89.8976 70.0001L90.4977 73.0001L89.3976 73.2001L88.0977 67.5001Z" fill="white"/>
<path d="M94.6992 64.0001C94.6992 63.8001 94.6992 63.6001 94.8992 63.4001C94.9992 63.2001 95.1992 63.1001 95.3992 63.1001C95.5992 63.1001 95.7992 63.1001 95.9992 63.3001C96.1992 63.4001 96.2992 63.6001 96.2992 63.9001C96.2992 64.1001 96.2992 64.3001 96.0992 64.5001C95.9992 64.7001 95.7992 64.8001 95.5992 64.8001C95.3992 64.8001 95.1992 64.8001 94.9992 64.6001C94.7992 64.4001 94.6992 64.2001 94.6992 64.0001ZM95.1992 66.1001L96.2992 65.9001L97.1992 71.9001L96.0992 72.1001L95.1992 66.1001Z" fill="white"/>
<path d="M102 66.8C102 66.5 102 66.2 102.1 65.9C102.2 65.6 102.4 65.4 102.5 65.2C102.7 65 102.9 64.8 103.2 64.7C103.5 64.6 103.8 64.5 104.1 64.5C104.4 64.5 104.7 64.5 105 64.6C105.3 64.7 105.5 64.9 105.7 65C105.9 65.2 106.1 65.4 106.2 65.7C106.3 66 106.4 66.3 106.4 66.6C106.4 66.9 106.4 67.2 106.3 67.5C106.2 67.8 106 68 105.9 68.2C105.7 68.4 105.5 68.6 105.2 68.7C104.9 68.8 104.6 68.9 104.3 68.9C104 68.9 103.7 68.9 103.4 68.8C103.1 68.7 102.9 68.5 102.7 68.4C102.5 68.2 102.3 68 102.2 67.7C102.1 67.4 102 67.1 102 66.8Z" fill="white"/>
<path d="M112.398 62L115.498 62.2C115.898 62.2 116.298 62.3 116.598 62.4C116.898 62.5 117.198 62.7 117.398 62.9C117.598 63.1 117.798 63.3 117.898 63.6C117.998 63.9 118.098 64.2 117.998 64.6C117.998 65.1 117.798 65.5 117.498 65.8C117.198 66.1 116.798 66.3 116.298 66.5C116.598 66.5 116.798 66.6 117.098 66.8C117.298 66.9 117.498 67.1 117.698 67.3C117.898 67.5 117.998 67.8 118.098 68C118.198 68.3 118.198 68.6 118.198 68.9C118.198 69.3 118.098 69.7 117.898 70C117.698 70.3 117.498 70.5 117.198 70.7C116.898 70.9 116.598 71 116.198 71.1C115.798 71.2 115.398 71.2 114.998 71.2L111.898 71L112.398 62ZM113.198 70L114.998 70.1C115.198 70.1 115.398 70.1 115.598 70.1C115.798 70.1 115.998 70 116.198 69.9C116.398 69.8 116.598 69.7 116.698 69.5C116.798 69.3 116.898 69.1 116.998 68.7C116.998 68.2 116.898 67.8 116.598 67.5C116.298 67.2 115.798 67 115.198 67L113.398 66.9L113.198 70ZM113.398 65.8L115.098 65.9C115.298 65.9 115.498 65.9 115.798 65.9C115.998 65.9 116.198 65.8 116.298 65.7C116.498 65.6 116.598 65.5 116.698 65.3C116.798 65.1 116.898 64.9 116.898 64.7C116.898 64.3 116.798 64 116.598 63.7C116.398 63.4 115.998 63.3 115.498 63.2L113.598 63.1L113.398 65.8Z" fill="white"/>
<path d="M119.398 68.4998C119.498 68.0998 119.598 67.6998 119.798 67.2998C119.998 66.8998 120.298 66.5998 120.598 66.3998C120.898 66.1998 121.298 65.9998 121.698 65.8998C122.098 65.7998 122.498 65.7998 122.998 65.7998C123.398 65.8998 123.798 65.9998 124.198 66.1998C124.598 66.3998 124.898 66.6998 125.098 66.9998C125.298 67.2998 125.498 67.6998 125.598 68.0998C125.698 68.4998 125.698 68.8998 125.698 69.3998C125.698 69.8998 125.498 70.1998 125.298 70.5998C125.098 70.9998 124.798 71.2998 124.498 71.4998C124.198 71.6998 123.798 71.8998 123.398 71.9998C122.998 72.0998 122.598 72.0998 122.098 72.0998C121.698 71.9998 121.298 71.8998 120.898 71.6998C120.498 71.4998 120.198 71.1998 119.998 70.8998C119.798 70.5998 119.598 70.1998 119.498 69.7998C119.298 69.3998 119.298 68.8998 119.398 68.4998ZM120.598 68.6998C120.598 68.9998 120.598 69.2998 120.598 69.5998C120.698 69.8998 120.798 70.0998 120.898 70.2998C120.998 70.4998 121.198 70.6998 121.498 70.7998C121.698 70.8998 121.998 70.9998 122.298 71.0998C122.598 71.0998 122.898 71.0998 123.098 71.0998C123.298 71.0998 123.598 70.8998 123.798 70.7998C123.998 70.5998 124.198 70.3998 124.298 70.1998C124.398 69.9998 124.498 69.6998 124.598 69.3998C124.598 69.0998 124.598 68.7998 124.598 68.4998C124.498 68.1998 124.398 67.9998 124.298 67.7998C124.198 67.5998 123.998 67.3998 123.698 67.2998C123.498 67.1998 123.198 67.0998 122.898 66.9998C122.598 66.9998 122.298 66.9998 122.098 66.9998C121.798 67.0998 121.598 67.1998 121.398 67.2998C121.198 67.4998 120.998 67.6998 120.898 67.8998C120.698 68.0998 120.598 68.3998 120.598 68.6998Z" fill="white"/>
<path d="M128.5 63.2998L129.6 63.4998L127.6 72.8998L126.5 72.6998L128.5 63.2998Z" fill="white"/>
<path d="M129.7 70.2999C129.8 69.8999 130 69.4999 130.3 69.1999C130.6 68.8999 130.9 68.5999 131.2 68.3999C131.6 68.1999 131.9 68.0999 132.4 67.9999C132.8 67.8999 133.2 67.9999 133.7 68.0999C134.2 68.1999 134.5 68.3999 134.9 68.6999C135.2 68.9999 135.5 69.2999 135.7 69.5999C135.9 69.9999 136 70.2999 136.1 70.7999C136.2 71.1999 136.1 71.5999 136 72.0999C135.9 72.4999 135.7 72.8999 135.4 73.1999C135.1 73.4999 134.8 73.7999 134.5 73.9999C134.1 74.1999 133.8 74.2999 133.3 74.3999C132.9 74.4999 132.5 74.3999 132 74.2999C131.6 74.1999 131.2 73.9999 130.8 73.6999C130.4 73.3999 130.2 73.0999 130 72.7999C129.8 72.3999 129.7 72.0999 129.6 71.5999C129.5 71.0999 129.6 70.6999 129.7 70.2999ZM130.9 70.5999C130.8 70.8999 130.8 71.1999 130.8 71.4999C130.8 71.7999 130.9 71.9999 131 72.1999C131.1 72.3999 131.3 72.5999 131.5 72.7999C131.7 72.9999 132 73.0999 132.3 73.1999C132.6 73.2999 132.9 73.2999 133.1 73.2999C133.4 73.2999 133.6 73.1999 133.8 72.9999C134 72.7999 134.2 72.6999 134.4 72.4999C134.6 72.2999 134.7 71.9999 134.8 71.6999C134.9 71.3999 134.9 71.0999 134.9 70.7999C134.9 70.4999 134.8 70.2999 134.7 70.0999C134.6 69.8999 134.4 69.6999 134.2 69.4999C134 69.2999 133.7 69.1999 133.4 69.0999C133.1 68.9999 132.8 68.9999 132.6 68.9999C132.3 68.9999 132.1 69.0999 131.9 69.2999C131.7 69.3999 131.5 69.5999 131.3 69.7999C131.1 70.0999 130.9 70.2999 130.9 70.5999Z" fill="white"/>
<path d="M142.898 68.1001L143.998 68.5001L140.698 76.9001L139.598 76.5001L142.898 68.1001Z" fill="white"/>
<path d="M144.897 72.1001L145.897 72.6001L145.497 73.4001C145.797 73.2001 146.097 73.0001 146.497 73.0001C146.897 73.0001 147.297 73.1001 147.697 73.2001C147.997 73.3001 148.197 73.5001 148.397 73.7001C148.597 73.9001 148.797 74.1001 148.897 74.4001C148.997 74.7001 148.997 74.9001 148.997 75.3001C148.997 75.7001 148.897 76.0001 148.697 76.3001L147.097 79.8001L146.097 79.3001L147.597 76.1001C147.697 75.8001 147.797 75.6001 147.797 75.4001C147.797 75.2001 147.797 75.0001 147.697 74.8001C147.597 74.6001 147.497 74.5001 147.397 74.4001C147.297 74.3001 147.097 74.2001 146.997 74.1001C146.797 74.0001 146.597 73.9001 146.297 73.9001C146.097 73.9001 145.897 73.9001 145.697 74.0001C145.497 74.1001 145.297 74.2001 145.097 74.4001C144.897 74.6001 144.797 74.9001 144.597 75.2001L143.297 78.0001L142.297 77.5001L144.897 72.1001Z" fill="white"/>
<path d="M153.7 83.4998L152.7 82.8998L153.1 82.0998C152.7 82.2998 152.4 82.2998 151.9 82.2998C151.4 82.2998 151.1 82.0998 150.7 81.8998C150.3 81.6998 150 81.3998 149.7 81.0998C149.5 80.7998 149.3 80.3998 149.2 79.9998C149.1 79.5998 149.1 79.1998 149.2 78.7998C149.3 78.3998 149.4 77.9998 149.6 77.5998C149.8 77.1998 150.1 76.8998 150.4 76.5998C150.7 76.2998 151.1 76.0998 151.4 75.9998C151.8 75.8998 152.2 75.7998 152.6 75.8998C153 75.8998 153.4 76.0998 153.8 76.2998C154.2 76.4998 154.5 76.7998 154.7 77.0998C154.9 77.3998 155.1 77.7998 155.1 78.1998L157.3 74.2998L158.3 74.8998L153.7 83.4998ZM151.5 81.0998C151.8 81.2998 152 81.2998 152.3 81.3998C152.6 81.3998 152.8 81.3998 153.1 81.2998C153.4 81.1998 153.6 81.0998 153.8 80.8998C154 80.6998 154.2 80.4998 154.3 80.1998C154.5 79.8998 154.5 79.6998 154.6 79.3998C154.6 79.0998 154.6 78.8998 154.6 78.5998C154.5 78.3998 154.4 78.0998 154.3 77.8998C154.1 77.6998 153.9 77.4998 153.7 77.3998C153.4 77.1998 153.2 77.1998 152.9 77.0998C152.6 77.0998 152.4 77.0998 152.1 77.1998C151.9 77.2998 151.6 77.3998 151.4 77.5998C151.2 77.7998 151 77.9998 150.9 78.2998C150.7 78.5998 150.7 78.7998 150.6 79.0998C150.6 79.3998 150.6 79.5998 150.6 79.8998C150.7 80.0998 150.8 80.3998 150.9 80.5998C151 80.7998 151.2 80.9998 151.5 81.0998Z" fill="white"/>
<path d="M158.3 79.2999L159.3 79.8999L156 84.9999L155 84.3999L158.3 79.2999ZM159.3 77.2999C159.4 77.0999 159.6 76.9999 159.8 76.8999C160 76.8999 160.2 76.8999 160.4 76.9999C160.6 77.0999 160.7 77.2999 160.8 77.4999C160.8 77.6999 160.8 77.8999 160.7 78.0999C160.6 78.2999 160.4 78.3999 160.2 78.4999C160 78.5999 159.8 78.4999 159.6 78.3999C159.4 78.2999 159.3 78.0999 159.2 77.8999C159.1 77.6999 159.2 77.4999 159.3 77.2999Z" fill="white"/>
<path d="M160.497 81.6001C160.897 81.6001 161.397 81.6001 161.797 81.7001C162.197 81.8001 162.597 82.0001 162.997 82.3001C163.397 82.6001 163.597 82.8001 163.797 83.1001C163.997 83.4001 164.097 83.7001 164.197 83.9001C164.297 84.2001 164.197 84.4001 164.197 84.7001C164.097 85.0001 163.997 85.2001 163.897 85.4001L162.097 87.9001C161.997 88.1001 161.897 88.2001 161.797 88.4001C161.697 88.5001 161.597 88.7001 161.497 88.8001L160.697 88.2001C160.897 87.9001 160.997 87.7001 161.197 87.4001C160.797 87.6001 160.397 87.6001 159.997 87.5001C159.597 87.4001 159.197 87.3001 158.897 87.0001C158.697 86.8001 158.497 86.6001 158.297 86.4001C158.097 86.2001 157.997 86.0001 157.997 85.7001C157.897 85.5001 157.897 85.2001 157.997 85.0001C157.997 84.8001 158.197 84.5001 158.297 84.3001C158.497 84.0001 158.797 83.8001 159.097 83.7001C159.397 83.6001 159.697 83.6001 160.097 83.6001C160.497 83.6001 160.797 83.8001 161.197 83.9001C161.597 84.1001 161.897 84.3001 162.297 84.6001L162.997 85.1001L163.197 84.9001C163.297 84.8001 163.397 84.6001 163.397 84.5001C163.397 84.3001 163.497 84.2001 163.397 84.0001C163.297 83.8001 163.297 83.7001 163.197 83.5001C163.097 83.3001 162.897 83.2001 162.697 83.0001C162.497 82.9001 162.397 82.8001 162.197 82.7001C161.997 82.6001 161.897 82.6001 161.697 82.6001C161.597 82.6001 161.397 82.6001 161.297 82.6001C161.197 82.6001 160.997 82.6001 160.897 82.6001L160.497 81.6001ZM161.697 85.4001C161.497 85.2001 161.197 85.1001 160.997 84.9001C160.797 84.8001 160.497 84.7001 160.297 84.6001C160.097 84.5001 159.797 84.5001 159.597 84.6001C159.397 84.6001 159.197 84.8001 159.097 84.9001C158.897 85.2001 158.797 85.5001 158.897 85.7001C158.997 85.9001 159.197 86.2001 159.497 86.4001C159.797 86.6001 159.997 86.7001 160.197 86.7001C160.397 86.7001 160.697 86.7001 160.897 86.7001C161.097 86.7001 161.297 86.5001 161.497 86.4001C161.697 86.3001 161.797 86.1001 161.897 86.0001L162.097 85.7001L161.697 85.4001Z" fill="white"/>
<path d="M26.7 175.2L27.5 178.2C27.6 178.6 27.6 178.9 27.6 179.3C27.6 179.6 27.5 180 27.4 180.2C27.3 180.5 27.1 180.7 26.9 180.9C26.7 181.1 26.4 181.3 26 181.4C25.5 181.5 25.1 181.5 24.7 181.3C24.3 181.1 24 180.8 23.7 180.4C23.8 180.7 23.7 180.9 23.7 181.2C23.6 181.5 23.5 181.7 23.4 181.9C23.2 182.1 23.1 182.3 22.8 182.5C22.6 182.7 22.3 182.8 22 182.9C21.6 183 21.2 183 20.9 182.9C20.6 182.8 20.2 182.7 20 182.4C19.7 182.2 19.5 181.9 19.3 181.5C19.1 181.2 18.9 180.8 18.8 180.3L18 177.3L26.7 175.2ZM19.3 178.4L19.8 180.1C19.8 180.3 19.9 180.5 20 180.7C20.1 180.9 20.2 181.1 20.4 181.3C20.6 181.5 20.8 181.6 21 181.7C21.2 181.8 21.5 181.8 21.8 181.7C22.3 181.6 22.7 181.3 22.8 180.9C23 180.5 23 180 22.8 179.4L22.3 177.6L19.3 178.4ZM23.4 177.3L23.8 178.9C23.9 179.1 23.9 179.3 24 179.5C24.1 179.7 24.2 179.8 24.4 180C24.5 180.1 24.7 180.2 24.9 180.2C25.1 180.2 25.3 180.2 25.5 180.2C25.8 180.1 26.1 179.9 26.3 179.6C26.5 179.3 26.5 178.9 26.4 178.5L25.9 176.6L23.4 177.3Z" fill="white"/>
<path d="M29.1992 182.1L29.5992 183.2L25.2992 184.7C25.6992 184.7 25.9992 184.9 26.2992 185.1C26.5992 185.4 26.7992 185.7 26.9992 186.2C27.0992 186.5 27.0992 186.8 27.1992 187C27.2992 187.2 27.1992 187.5 26.9992 187.8C26.8992 188 26.6992 188.3 26.4992 188.5C26.2992 188.7 25.9992 188.9 25.5992 189L21.8992 190.3L21.4992 189.2L24.8992 188C25.1992 187.9 25.3992 187.8 25.4992 187.7C25.6992 187.6 25.7992 187.4 25.8992 187.3C25.9992 187.1 25.9992 187 25.9992 186.8C25.9992 186.6 25.9992 186.5 25.8992 186.3C25.7992 186.1 25.6992 185.9 25.5992 185.7C25.4992 185.5 25.2992 185.4 25.0992 185.3C24.8992 185.2 24.6992 185.2 24.3992 185.2C24.0992 185.2 23.7992 185.3 23.4992 185.4L20.5992 186.4L20.1992 185.3L29.1992 182.1Z" fill="white"/>
<path d="M27.5016 190.2C27.9016 190.4 28.3016 190.6 28.6016 191C28.9016 191.3 29.1016 191.7 29.3016 192.1C29.5016 192.5 29.6016 192.9 29.6016 193.2C29.6016 193.5 29.6016 193.8 29.5016 194.1C29.4016 194.4 29.3016 194.6 29.1016 194.8C28.9016 195 28.7016 195.1 28.5016 195.2L25.7016 196.4C25.5016 196.5 25.3016 196.6 25.2016 196.6C25.1016 196.6 24.9016 196.8 24.7016 196.8L24.3016 196C24.6016 195.9 24.8016 195.7 25.1016 195.6C24.6016 195.5 24.3016 195.4 24.0016 195.1C23.7016 194.8 23.5016 194.5 23.3016 194.1C23.2016 193.8 23.1016 193.6 23.1016 193.3C23.1016 193 23.1016 192.8 23.1016 192.5C23.2016 192.3 23.3016 192 23.4016 191.9C23.6016 191.7 23.8016 191.6 24.1016 191.4C24.5016 191.2 24.8016 191.2 25.1016 191.2C25.4016 191.3 25.7016 191.4 26.0016 191.6C26.3016 191.8 26.5016 192.1 26.8016 192.4C27.0016 192.7 27.2016 193.1 27.4016 193.5L27.7016 194.3L27.9016 194.2C28.0016 194.1 28.2016 194 28.3016 193.9C28.4016 193.8 28.5016 193.6 28.6016 193.5C28.7016 193.3 28.7016 193.2 28.7016 193C28.7016 192.8 28.6016 192.6 28.5016 192.4C28.4016 192.2 28.3016 192 28.2016 191.9C28.1016 191.8 28.0016 191.6 27.9016 191.6C27.8016 191.6 27.7016 191.4 27.5016 191.4C27.4016 191.3 27.3016 191.3 27.1016 191.2L27.5016 190.2ZM26.6016 194.1C26.5016 193.9 26.4016 193.6 26.2016 193.4C26.1016 193.2 25.9016 192.9 25.7016 192.8C25.5016 192.7 25.3016 192.5 25.1016 192.4C24.9016 192.3 24.7016 192.3 24.5016 192.4C24.2016 192.5 24.0016 192.7 24.0016 193C24.0016 193.3 24.0016 193.6 24.2016 194C24.3016 194.3 24.5016 194.5 24.7016 194.7C24.9016 194.9 25.1016 195 25.3016 195C25.5016 195 25.7016 195.1 25.9016 195C26.1016 195 26.3016 194.9 26.5016 194.8L26.8016 194.6L26.6016 194.1Z" fill="white"/>
<path d="M31.0016 199.4C31.1016 199.2 31.1016 199 31.1016 198.8C31.1016 198.6 31.0016 198.3 30.9016 198.1C30.8016 197.9 30.6016 197.7 30.4016 197.6C30.2016 197.5 30.0016 197.5 29.8016 197.6C29.6016 197.7 29.5016 197.8 29.5016 198C29.5016 198.2 29.4016 198.3 29.5016 198.5C29.5016 198.7 29.5016 198.8 29.6016 199C29.7016 199.2 29.7016 199.3 29.7016 199.4C29.8016 199.6 29.8016 199.9 29.8016 200.1C29.8016 200.3 29.8016 200.5 29.8016 200.8C29.8016 201 29.7016 201.2 29.5016 201.4C29.4016 201.6 29.2016 201.7 28.9016 201.9C28.6016 202.1 28.3016 202.1 28.0016 202.1C27.7016 202.1 27.5016 202 27.2016 201.9C27.0016 201.8 26.7016 201.6 26.5016 201.4C26.3016 201.2 26.1016 200.9 26.0016 200.7C25.8016 200.3 25.6016 199.8 25.6016 199.4C25.6016 199 25.6016 198.6 25.9016 198.1L26.9016 198.5C26.8016 198.8 26.8016 199 26.8016 199.3C26.8016 199.6 26.8016 199.9 27.0016 200.1C27.1016 200.2 27.1016 200.3 27.2016 200.5C27.3016 200.6 27.4016 200.7 27.5016 200.8C27.6016 200.9 27.7016 200.9 27.8016 200.9C27.9016 200.9 28.0016 200.9 28.1016 200.8C28.3016 200.7 28.3016 200.6 28.4016 200.5C28.5016 200.4 28.5016 200.2 28.5016 200C28.5016 199.8 28.5016 199.7 28.4016 199.5C28.4016 199.3 28.3016 199.2 28.3016 199.1C28.2016 198.9 28.2016 198.6 28.2016 198.4C28.2016 198.2 28.2016 197.9 28.2016 197.7C28.2016 197.5 28.3016 197.3 28.4016 197.1C28.5016 196.9 28.7016 196.8 29.0016 196.6C29.3016 196.5 29.6016 196.4 29.8016 196.4C30.1016 196.4 30.3016 196.5 30.6016 196.6C30.8016 196.7 31.1016 196.9 31.3016 197.1C31.5016 197.3 31.7016 197.5 31.8016 197.8C32.0016 198.2 32.1016 198.5 32.1016 198.9C32.1016 199.3 32.1016 199.7 31.8016 200L31.0016 199.4Z" fill="white"/>
<path d="M36.4985 198.8L37.0984 199.8L33.2985 202.2C33.6985 202.2 33.9984 202.2 34.3984 202.4C34.7984 202.6 35.0985 202.9 35.2985 203.3C35.4985 203.5 35.5984 203.8 35.5984 204.1C35.6984 204.4 35.6984 204.6 35.5984 204.9C35.4984 205.2 35.3985 205.4 35.1985 205.7C34.9985 206 34.7984 206.2 34.3984 206.4L31.0984 208.5L30.4985 207.5L33.4985 205.6C33.6985 205.5 33.8984 205.3 34.0984 205.1C34.1984 204.9 34.2985 204.8 34.2985 204.6C34.2985 204.4 34.2985 204.3 34.2985 204.1C34.2985 203.9 34.1984 203.8 34.0984 203.6C33.9984 203.4 33.7985 203.2 33.6985 203.1C33.5985 203 33.2984 202.9 33.0984 202.8C32.8984 202.8 32.5984 202.8 32.3984 202.8C32.0984 202.9 31.8984 203 31.5984 203.2L28.9985 204.8L28.3984 203.8L36.4985 198.8Z" fill="white"/>
<path d="M36.6992 207.1C37.0992 207.2 37.4992 207.4 37.8992 207.6C38.2992 207.9 38.5992 208.2 38.7992 208.5C39.0992 208.9 39.1992 209.2 39.2992 209.5C39.3992 209.8 39.3992 210.1 39.3992 210.4C39.3992 210.7 39.2992 210.9 39.0992 211.1C38.9992 211.3 38.7992 211.5 38.5992 211.7L36.0992 213.5C35.8992 213.6 35.7992 213.7 35.5992 213.9C35.3992 214.1 35.2992 214.1 35.1992 214.2L34.5992 213.4C34.7992 213.2 35.0992 213 35.2992 212.8C34.7992 212.8 34.3992 212.7 34.0992 212.6C33.7992 212.4 33.4992 212.1 33.1992 211.8C32.9992 211.6 32.8992 211.3 32.7992 211.1C32.6992 210.8 32.6992 210.6 32.6992 210.4C32.6992 210.2 32.7992 209.9 32.8992 209.7C32.9992 209.5 33.1992 209.3 33.3992 209.1C33.6992 208.9 33.9992 208.7 34.2992 208.7C34.5992 208.7 34.8992 208.7 35.1992 208.9C35.4992 209 35.7992 209.3 36.0992 209.5C36.3992 209.8 36.6992 210.1 36.9992 210.5L37.4992 211.2L37.6992 211C37.7992 210.9 37.8992 210.8 37.9992 210.7C38.0992 210.6 38.0992 210.4 38.1992 210.2C38.1992 210 38.1992 209.9 38.1992 209.7C38.1992 209.5 38.0992 209.3 37.8992 209.1C37.7992 208.9 37.5992 208.8 37.4992 208.7C37.3992 208.6 37.1992 208.5 37.0992 208.4C36.9992 208.3 36.7992 208.3 36.6992 208.2C36.5992 208.1 36.3992 208.1 36.2992 208.1L36.6992 207.1ZM36.6992 211.1C36.4992 210.9 36.3992 210.7 36.1992 210.5C35.9992 210.3 35.7992 210.1 35.5992 210C35.3992 209.9 35.1992 209.8 34.9992 209.7C34.7992 209.7 34.5992 209.7 34.3992 209.9C34.0992 210.1 33.9992 210.3 33.9992 210.6C33.9992 210.9 34.0992 211.2 34.3992 211.5C34.5992 211.8 34.7992 211.9 34.9992 212.1C35.1992 212.3 35.3992 212.3 35.6992 212.3C35.8992 212.3 36.0992 212.3 36.2992 212.2C36.4992 212.1 36.6992 212 36.8992 211.9L37.1992 211.7L36.6992 211.1Z" fill="white"/>
<path d="M44.5016 217.9C44.5016 217.7 44.5016 217.5 44.5016 217.2C44.4016 217 44.3015 216.8 44.1015 216.5C43.9015 216.3 43.7016 216.2 43.5016 216.1C43.3016 216 43.1015 216.1 42.9015 216.2C42.8015 216.3 42.7016 216.5 42.7016 216.6C42.7016 216.8 42.7016 216.9 42.8016 217.1C42.9016 217.3 42.9016 217.4 43.0016 217.6C43.1016 217.8 43.2016 217.9 43.2016 218C43.3016 218.2 43.4016 218.4 43.5016 218.7C43.6016 219 43.6015 219.1 43.6015 219.3C43.6015 219.5 43.6016 219.7 43.5016 219.9C43.4016 220.1 43.3015 220.3 43.1015 220.5C42.8015 220.7 42.6016 220.9 42.3016 220.9C42.0016 221 41.8016 221 41.5016 220.9C41.2016 220.8 41.0016 220.7 40.7016 220.5C40.5016 220.3 40.2016 220.1 40.0016 219.9C39.7016 219.5 39.4016 219.2 39.3016 218.8C39.2016 218.4 39.1016 218 39.2016 217.5L40.3016 217.7C40.3016 218 40.3015 218.2 40.4015 218.5C40.4015 218.8 40.6016 219 40.8016 219.3C40.9016 219.4 41.0015 219.5 41.1015 219.6C41.2015 219.7 41.3016 219.8 41.5016 219.8C41.6016 219.8 41.7015 219.9 41.9015 219.8C42.1015 219.7 42.1016 219.7 42.2016 219.7C42.3016 219.6 42.4015 219.5 42.4015 219.3C42.4015 219.1 42.4016 219 42.3016 218.8C42.2016 218.6 42.2015 218.5 42.1015 218.3C42.0015 218.2 41.9015 218 41.9015 217.9C41.8015 217.7 41.7015 217.5 41.6015 217.2C41.5015 216.9 41.5015 216.8 41.4015 216.6C41.4015 216.4 41.4016 216.2 41.5016 216C41.6016 215.8 41.7015 215.6 41.9015 215.4C42.1015 215.2 42.4015 215.1 42.6015 215C42.9015 214.9 43.1015 214.9 43.4015 215C43.7015 215.1 43.9016 215.2 44.2016 215.3C44.4016 215.5 44.7016 215.6 44.8016 215.8C45.1016 216.1 45.3015 216.4 45.4015 216.8C45.5015 217.2 45.6015 217.6 45.4015 218L44.5016 217.9Z" fill="white"/>
<path d="M46.7008 219.1C47.1008 219.1 47.6008 219.2 48.0008 219.4C48.4008 219.6 48.8008 219.8 49.1008 220.1C49.4008 220.4 49.7008 220.7 49.8008 221C50.0008 221.3 50.0008 221.6 50.1008 221.9C50.2008 222.2 50.1008 222.4 50.0008 222.7C49.9008 222.9 49.8008 223.2 49.6008 223.4L47.5008 225.6C47.4008 225.8 47.2008 225.9 47.1008 226C47.0008 226.1 46.9008 226.3 46.8008 226.4L46.1008 225.7C46.3008 225.5 46.5008 225.2 46.7008 225C46.2008 225.1 45.8008 225.1 45.5008 225C45.1008 224.9 44.8008 224.7 44.5008 224.3C44.3008 224.1 44.1008 223.9 44.0008 223.7C43.9008 223.5 43.8008 223.2 43.8008 223C43.8008 222.8 43.8008 222.5 43.9008 222.3C44.0008 222.1 44.1008 221.8 44.3008 221.6C44.6008 221.3 44.9008 221.1 45.2008 221.1C45.5008 221 45.8008 221 46.2008 221.1C46.6008 221.2 46.9008 221.3 47.2008 221.6C47.5008 221.8 47.9008 222.1 48.2008 222.4L48.8008 223L49.0008 222.8C49.1008 222.7 49.2008 222.6 49.3008 222.4C49.4008 222.2 49.4008 222.1 49.4008 221.9C49.4008 221.7 49.4008 221.6 49.3008 221.4C49.2008 221.2 49.1008 221.1 48.9008 220.9C48.7008 220.7 48.6008 220.6 48.4008 220.5C48.3008 220.4 48.1008 220.4 48.0008 220.3C47.9008 220.2 47.7008 220.2 47.6008 220.2C47.5008 220.2 47.3008 220.2 47.2008 220.2L46.7008 219.1ZM47.4008 223.1C47.2008 222.9 47.0008 222.7 46.8008 222.6C46.6008 222.4 46.3008 222.3 46.1008 222.2C45.9008 222.1 45.7008 222.1 45.4008 222.1C45.2008 222.1 45.0008 222.2 44.8008 222.4C44.6008 222.7 44.5008 222.9 44.5008 223.2C44.6008 223.5 44.7008 223.7 45.0008 224C45.2008 224.2 45.5008 224.4 45.7008 224.4C45.9008 224.4 46.2008 224.5 46.4008 224.5C46.6008 224.5 46.8008 224.4 47.0008 224.3C47.2008 224.2 47.3008 224.1 47.5008 223.9L47.8008 223.6L47.4008 223.1Z" fill="white"/>
<path d="M51.8984 223L52.6985 223.7L52.0984 224.4C52.1984 224.3 52.2985 224.3 52.4985 224.3C52.6985 224.3 52.7985 224.3 52.9985 224.3C53.1985 224.3 53.3984 224.4 53.5984 224.4C53.7984 224.4 53.9985 224.6 54.2985 224.8C54.6985 225.1 54.8985 225.4 54.9985 225.7C55.0985 226 55.1984 226.4 55.0984 226.8C55.4984 226.6 55.8985 226.6 56.2985 226.6C56.6985 226.7 56.9985 226.8 57.2985 227C57.6985 227.3 57.8984 227.6 58.0984 227.9C58.2984 228.2 58.2985 228.5 58.2985 228.8C58.2985 229.1 58.1985 229.4 58.0984 229.7C57.9984 230 57.7984 230.3 57.5984 230.5L55.3984 233.3L54.4985 232.6L56.5984 229.9C56.6985 229.7 56.8985 229.5 56.9985 229.3C57.0985 229.1 57.1985 228.9 57.1985 228.7C57.1985 228.5 57.1985 228.3 57.0984 228.2C56.9984 228 56.8985 227.8 56.6985 227.7C56.2985 227.4 55.7985 227.2 55.4985 227.4C55.0985 227.5 54.6984 227.8 54.3984 228.2L52.3984 230.8L51.4985 230.1L53.3984 227.6C53.5984 227.4 53.6984 227.2 53.8984 226.9C53.9984 226.7 54.0984 226.5 54.0984 226.3C54.0984 226.1 54.0985 225.9 53.9985 225.7C53.8985 225.5 53.7984 225.3 53.5984 225.2C53.3984 225.1 53.2984 225 53.0984 224.9C52.8984 224.8 52.6985 224.8 52.4985 224.9C52.2985 224.9 52.0985 225 51.7985 225.2C51.5985 225.3 51.3985 225.6 51.1985 225.8L49.2985 228.3L48.3984 227.6L51.8984 223Z" fill="white"/>
<path d="M60.1 230.1C60.5 230 61 230 61.4 230.1C61.8 230.2 62.2 230.4 62.6 230.6C63 230.8 63.3 231.1 63.5 231.4C63.7 231.7 63.9 231.9 63.9 232.2C64 232.5 64 232.7 63.9 233C63.9 233.3 63.8 233.5 63.6 233.7L61.9 236.3C61.8 236.5 61.7 236.6 61.6 236.8C61.5 237 61.4 237.1 61.4 237.3L60.5 236.8C60.6 236.5 60.8 236.3 61 236C60.6 236.2 60.2 236.3 59.8 236.2C59.4 236.1 59 236 58.6 235.8C58.4 235.6 58.2 235.5 58 235.3C57.8 235.1 57.7 234.9 57.6 234.7C57.5 234.5 57.5 234.2 57.5 234C57.5 233.8 57.6 233.5 57.8 233.2C58 232.9 58.3 232.6 58.5 232.5C58.8 232.4 59.1 232.3 59.4 232.3C59.7 232.3 60.1 232.4 60.5 232.6C60.9 232.8 61.3 233 61.7 233.2L62.4 233.7L62.5 233.5C62.6 233.4 62.6 233.2 62.7 233.1C62.7 232.9 62.7 232.8 62.7 232.6C62.7 232.4 62.6 232.3 62.5 232.1C62.4 231.9 62.2 231.8 62 231.7C61.8 231.6 61.6 231.5 61.5 231.4C61.3 231.3 61.2 231.3 61 231.3C60.9 231.3 60.7 231.3 60.6 231.3C60.5 231.3 60.3 231.3 60.2 231.3L60.1 230.1ZM61.5 233.9C61.3 233.8 61 233.6 60.8 233.5C60.5 233.4 60.3 233.3 60.1 233.2C59.9 233.1 59.6 233.1 59.4 233.2C59.2 233.2 59 233.4 58.9 233.6C58.7 233.9 58.7 234.2 58.8 234.4C58.9 234.7 59.1 234.9 59.5 235.1C59.8 235.3 60 235.4 60.3 235.4C60.5 235.4 60.8 235.4 61 235.3C61.2 235.2 61.4 235.1 61.6 235C61.8 234.9 61.9 234.7 62 234.5L62.2 234.2L61.5 233.9Z" fill="white"/>
<path d="M66.0016 232.9L67.0016 233.5L66.6016 234.3C66.7016 234.2 66.9016 234.1 67.1016 234.1C67.3016 234 67.5016 234 67.6016 234C67.8016 234 68.0016 234 68.2016 234.1C68.4016 234.2 68.6016 234.2 68.7016 234.3C68.8016 234.4 69.0016 234.5 69.1016 234.6L68.5016 235.7C68.4016 235.6 68.4016 235.6 68.3016 235.5C68.2016 235.4 68.1016 235.4 68.1016 235.3C67.6016 235 67.2016 235 66.7016 235.1C66.3016 235.2 65.9016 235.6 65.6016 236.2L64.1016 238.9L63.1016 238.3L66.0016 232.9Z" fill="white"/>
<path d="M72.4992 237.4L70.9992 236.7L69.7992 239.2C69.6992 239.4 69.6992 239.5 69.5992 239.7C69.4992 239.9 69.4992 240 69.4992 240.1C69.4992 240.2 69.4992 240.4 69.5992 240.5C69.6992 240.6 69.7992 240.7 69.9992 240.8C70.0992 240.9 70.2992 240.9 70.3992 240.9C70.4992 240.9 70.6992 241 70.7992 240.9L70.2992 241.8C70.0992 241.8 69.9992 241.8 69.7992 241.7C69.5992 241.6 69.3992 241.6 69.2992 241.5C68.8992 241.3 68.5992 241.1 68.4992 240.9C68.2992 240.7 68.1992 240.5 68.1992 240.2C68.1992 240 68.1992 239.7 68.2992 239.5C68.3992 239.3 68.4992 239 68.5992 238.8L69.9992 236L68.7992 235.4L69.1992 234.5L70.3992 235.1L71.0992 233.6L72.0992 234.1L71.3992 235.6L72.8992 236.3L72.4992 237.4Z" fill="white"/>
<path d="M75.5984 233.8L76.6985 234.2L74.9985 238.4C75.2985 238.2 75.5985 238 75.9985 238C76.3985 238 76.7985 238 77.2985 238.2C77.5985 238.3 77.7985 238.5 77.9985 238.6C78.1985 238.8 78.3985 239 78.4985 239.2C78.5985 239.4 78.6985 239.7 78.6985 240C78.6985 240.3 78.5985 240.7 78.4985 241L76.9985 244.6L75.8984 244.2L77.1985 240.9C77.2985 240.6 77.3984 240.4 77.3984 240.2C77.3984 240 77.3985 239.8 77.2985 239.6C77.1985 239.4 77.0985 239.3 76.9985 239.2C76.8985 239.1 76.6984 239 76.5984 238.9C76.3984 238.8 76.1984 238.8 75.8984 238.8C75.6984 238.8 75.4985 238.8 75.2985 238.9C75.0985 239 74.8985 239.1 74.6985 239.4C74.4985 239.7 74.3985 239.9 74.1985 240.2L72.9985 243.1L71.8984 242.7L75.5984 233.8Z" fill="white"/>
<path d="M80.5 240.4C80.9 240.2 81.3 240.1 81.8 240.1C82.3 240.1 82.7 240.1 83.1 240.3C83.5 240.4 83.9 240.6 84.1 240.8C84.4 241 84.6 241.2 84.7 241.5C84.8 241.7 84.9 242 84.9 242.3C84.9 242.6 84.9 242.8 84.8 243.1L83.9 246C83.8 246.2 83.8 246.4 83.7 246.6C83.6 246.8 83.6 246.9 83.6 247.1L82.6 246.8C82.7 246.5 82.7 246.2 82.8 245.9C82.4 246.2 82.1 246.4 81.7 246.4C81.3 246.4 80.9 246.4 80.5 246.3C80.2 246.2 80 246.1 79.8 245.9C79.6 245.8 79.4 245.6 79.3 245.4C79.2 245.2 79.1 245 79 244.7C79 244.5 79 244.2 79.1 243.9C79.2 243.5 79.4 243.2 79.6 243C79.8 242.8 80.1 242.7 80.5 242.6C80.9 242.5 81.2 242.5 81.6 242.6C82 242.7 82.4 242.7 82.9 242.9L83.7 243.2L83.8 243C83.8 242.9 83.9 242.7 83.9 242.5C83.9 242.3 83.8 242.2 83.8 242C83.7 241.8 83.6 241.7 83.5 241.6C83.4 241.5 83.2 241.4 82.9 241.3C82.7 241.2 82.5 241.2 82.3 241.2C82.1 241.2 82 241.2 81.8 241.2C81.7 241.2 81.5 241.3 81.4 241.3C81.3 241.3 81.1 241.4 81 241.4L80.5 240.4ZM82.9 243.6C82.6 243.5 82.4 243.4 82.1 243.4C81.8 243.3 81.6 243.3 81.3 243.3C81.1 243.3 80.8 243.4 80.6 243.5C80.4 243.6 80.3 243.8 80.2 244C80.1 244.3 80.1 244.6 80.3 244.8C80.5 245 80.8 245.2 81.1 245.3C81.4 245.4 81.7 245.4 81.9 245.4C82.1 245.4 82.4 245.3 82.5 245.2C82.7 245.1 82.8 244.9 83 244.7C83.1 244.5 83.2 244.3 83.3 244.1L83.4 243.7L82.9 243.6Z" fill="white"/>
<path d="M87.8016 238L88.9016 238.3L87.5016 244.4L90.6016 242.4L92.2016 242.8L88.8016 244.8L91.0016 248.7L89.4016 248.3L87.4016 244.6L86.7016 247.7L85.6016 247.4L87.8016 238Z" fill="white"/>
<path d="M96.6016 245.1C96.6016 244.8 96.7016 244.5 96.9016 244.2C97.1016 243.9 97.2016 243.7 97.5016 243.5C97.8016 243.3 98.0016 243.2 98.3016 243.1C98.6016 243 98.9016 243 99.2016 243C99.5016 243 99.8016 243.1 100.102 243.3C100.402 243.5 100.602 243.6 100.802 243.9C101.002 244.2 101.102 244.4 101.202 244.7C101.302 245 101.302 245.3 101.302 245.6C101.302 245.9 101.202 246.2 101.002 246.5C100.802 246.8 100.702 247 100.402 247.2C100.102 247.4 99.9016 247.5 99.6016 247.6C99.3016 247.7 99.0016 247.7 98.7016 247.7C98.4016 247.7 98.1016 247.6 97.8016 247.4C97.5016 247.2 97.3016 247.1 97.1016 246.8C96.9016 246.6 96.8016 246.3 96.7016 246C96.6016 245.7 96.6016 245.4 96.6016 245.1Z" fill="white"/>
<path d="M106.802 241.4L110.002 241.5C110.602 241.5 111.102 241.6 111.402 241.8C111.802 242 112.102 242.2 112.302 242.4C112.502 242.6 112.702 242.9 112.702 243.2C112.802 243.5 112.802 243.8 112.802 244.1C112.802 244.4 112.702 244.7 112.702 245C112.602 245.3 112.502 245.6 112.202 245.8C111.902 246 111.702 246.2 111.302 246.4C110.902 246.6 110.402 246.6 109.902 246.6H107.902L107.802 250.6H106.602L106.802 241.4ZM108.002 245.4H109.602C109.802 245.4 110.102 245.4 110.302 245.4C110.502 245.4 110.702 245.3 110.902 245.2C111.102 245.1 111.202 245 111.302 244.8C111.402 244.6 111.502 244.4 111.502 244.1C111.502 243.8 111.502 243.5 111.302 243.4C111.202 243.2 111.002 243.1 110.902 243C110.702 242.9 110.502 242.8 110.302 242.8C110.102 242.8 109.802 242.7 109.602 242.7H108.002V245.4Z" fill="white"/>
<path d="M113.801 240.7L114.901 240.6L115.501 250.2L114.401 250.3L113.801 240.7Z" fill="white"/>
<path d="M117 244.9C117.3 244.6 117.6 244.3 118 244.1C118.4 243.9 118.8 243.8 119.2 243.7C119.6 243.7 120 243.7 120.4 243.7C120.8 243.7 121 243.9 121.2 244.1C121.4 244.3 121.6 244.5 121.7 244.7C121.8 244.9 121.9 245.2 121.9 245.4L122.2 248.5C122.2 248.7 122.2 248.9 122.3 249.1C122.3 249.3 122.4 249.4 122.4 249.6L121.4 249.7C121.3 249.4 121.3 249.1 121.3 248.8C121.1 249.2 120.8 249.5 120.5 249.7C120.2 249.9 119.8 250 119.3 250.1C119 250.1 118.8 250.1 118.5 250.1C118.2 250.1 118 250 117.8 249.8C117.6 249.6 117.4 249.5 117.3 249.3C117.2 249.1 117.1 248.8 117 248.5C117 248.1 117 247.8 117.1 247.5C117.2 247.2 117.5 247 117.7 246.8C118 246.6 118.3 246.4 118.7 246.3C119.1 246.2 119.5 246.1 120 246L120.8 245.9V245.6C120.8 245.4 120.7 245.3 120.7 245.2C120.6 245.1 120.5 244.9 120.4 244.8C120.3 244.7 120.1 244.6 119.9 244.6C119.7 244.6 119.5 244.5 119.3 244.6C119.1 244.6 118.9 244.7 118.7 244.7C118.5 244.8 118.4 244.8 118.3 244.9C118.2 245 118.1 245.1 118 245.2C117.9 245.3 117.8 245.4 117.7 245.5L117 244.9ZM120.5 246.9C120.2 246.9 120 247 119.7 247C119.4 247.1 119.2 247.1 118.9 247.3C118.6 247.5 118.5 247.5 118.4 247.7C118.3 247.9 118.2 248.1 118.2 248.3C118.2 248.6 118.4 248.9 118.6 249C118.8 249.1 119.2 249.2 119.6 249.1C119.9 249.1 120.2 249 120.4 248.9C120.6 248.8 120.8 248.6 120.9 248.4C121 248.2 121.1 248 121.1 247.8C121.1 247.6 121.1 247.4 121.1 247.2V246.8L120.5 246.9Z" fill="white"/>
<path d="M126.7 243.7L125.1 244L125.6 246.7C125.6 246.9 125.7 247 125.7 247.2C125.7 247.4 125.8 247.5 125.9 247.6C126 247.7 126.1 247.8 126.2 247.9C126.3 248 126.5 248 126.7 247.9C126.8 247.9 127 247.8 127.1 247.8C127.2 247.7 127.4 247.7 127.5 247.6L127.7 248.6C127.6 248.7 127.4 248.8 127.2 248.8C127 248.9 126.8 248.9 126.7 248.9C126.3 249 125.9 249 125.7 248.9C125.4 248.8 125.2 248.7 125.1 248.5C125 248.3 124.8 248.1 124.8 247.9C124.7 247.7 124.7 247.4 124.6 247.2L124 244.1L122.7 244.3L122.5 243.3L123.8 243.1L123.5 241.4L124.6 241.2L124.9 242.9L126.5 242.6L126.7 243.7Z" fill="white"/>
<path d="M127.301 240.4C127.301 240.2 127.301 240 127.401 239.8C127.501 239.6 127.701 239.5 127.901 239.4C128.101 239.4 128.301 239.4 128.501 239.5C128.701 239.6 128.801 239.8 128.901 240C128.901 240.2 128.901 240.4 128.801 240.6C128.701 240.8 128.501 240.9 128.301 241C128.101 241 127.901 241 127.701 240.9C127.501 240.8 127.301 240.6 127.301 240.4ZM128.001 242.4L129.101 242.2L130.401 248.1L129.301 248.3L128.001 242.4Z" fill="white"/>
<path d="M130.801 241.9L131.801 241.6L132.101 242.5C132.101 242.4 132.101 242.3 132.201 242.1C132.301 241.9 132.401 241.8 132.501 241.6C132.601 241.4 132.801 241.3 133.001 241.1C133.201 241 133.401 240.8 133.701 240.8C134.101 240.7 134.501 240.6 134.901 240.7C135.301 240.8 135.601 241 135.901 241.3C136.001 240.9 136.201 240.5 136.401 240.3C136.701 240 137.001 239.8 137.401 239.7C137.801 239.6 138.201 239.5 138.601 239.6C138.901 239.7 139.201 239.8 139.401 240C139.601 240.2 139.801 240.4 140.001 240.7C140.201 241 140.301 241.3 140.401 241.6L141.401 245L140.301 245.3L139.301 242.1C139.201 241.9 139.201 241.7 139.101 241.5C139.001 241.3 138.901 241.1 138.801 241C138.701 240.9 138.501 240.8 138.301 240.7C138.101 240.7 137.901 240.7 137.601 240.8C137.101 241 136.701 241.2 136.601 241.6C136.501 242 136.501 242.4 136.601 243L137.601 246.2L136.501 246.5L135.601 243.5C135.501 243.2 135.401 243 135.301 242.8C135.201 242.6 135.101 242.4 134.901 242.3C134.701 242.2 134.601 242.1 134.401 242C134.201 242 134.001 242 133.701 242.1C133.501 242.2 133.301 242.3 133.201 242.4C133.001 242.5 132.901 242.7 132.801 242.9C132.701 243.1 132.701 243.3 132.701 243.6C132.701 243.9 132.701 244.2 132.801 244.5L133.701 247.5L132.601 247.8L130.801 241.9Z" fill="white"/>
<path d="M148.3 242.1L147.2 242.5L146.8 241.6C146.8 242 146.7 242.3 146.4 242.6C146.1 242.9 145.8 243.2 145.4 243.4C145.1 243.5 144.9 243.6 144.6 243.6C144.3 243.6 144.1 243.6 143.8 243.5C143.5 243.4 143.3 243.2 143.1 243C142.9 242.8 142.7 242.5 142.5 242.1L141 238.5L142.1 238.1L143.5 241.4C143.6 241.7 143.7 241.9 143.9 242C144 242.2 144.2 242.3 144.4 242.3C144.6 242.4 144.7 242.4 144.9 242.4C145.1 242.4 145.2 242.3 145.4 242.3C145.6 242.2 145.8 242.1 146 241.9C146.2 241.7 146.3 241.6 146.4 241.4C146.5 241.2 146.5 240.9 146.5 240.7C146.5 240.4 146.4 240.1 146.3 239.8L145.1 236.9L146.2 236.5L148.3 242.1Z" fill="white"/>
<path d="M147.398 235.9L148.298 235.4L148.798 236.2C148.798 236.1 148.798 236 148.798 235.8C148.798 235.6 148.898 235.5 148.998 235.3C149.098 235.1 149.198 234.9 149.398 234.8C149.598 234.6 149.798 234.5 149.998 234.3C150.398 234.1 150.798 234 151.098 234C151.498 234 151.798 234.1 152.198 234.4C152.198 234 152.298 233.6 152.498 233.3C152.698 233 152.998 232.7 153.298 232.5C153.698 232.3 154.098 232.2 154.398 232.2C154.698 232.2 154.998 232.3 155.298 232.4C155.598 232.5 155.798 232.7 155.998 233C156.198 233.3 156.398 233.5 156.598 233.8L158.298 236.9L157.298 237.5L155.698 234.5C155.598 234.3 155.498 234.1 155.298 233.9C155.198 233.7 154.998 233.6 154.898 233.5C154.698 233.4 154.598 233.4 154.398 233.3C154.198 233.2 153.998 233.4 153.698 233.5C153.198 233.8 152.898 234.1 152.898 234.5C152.898 234.9 152.998 235.4 153.198 235.8L154.798 238.7L153.798 239.3L152.298 236.5C152.198 236.2 151.998 236 151.898 235.8C151.798 235.6 151.598 235.5 151.398 235.3C151.198 235.2 151.098 235.1 150.898 235.1C150.698 235.1 150.498 235.2 150.198 235.3C149.998 235.4 149.898 235.5 149.698 235.7C149.498 235.9 149.498 236 149.398 236.3C149.398 236.5 149.298 236.7 149.398 237C149.498 237.3 149.598 237.5 149.698 237.8L151.198 240.6L150.198 241.2L147.398 235.9Z" fill="white"/>
<path d="M164.3 223.9C163.9 223.8 163.5 223.8 163.1 223.9C162.7 224 162.3 224.2 162 224.4C161.6 224.7 161.3 225.1 161.1 225.5C160.9 225.9 160.8 226.3 160.7 226.8C160.7 227.2 160.7 227.7 160.9 228.1C161 228.6 161.3 229 161.6 229.4C161.9 229.8 162.2 230.1 162.6 230.3C163 230.5 163.4 230.7 163.8 230.8C164.2 230.9 164.7 230.9 165.1 230.8C165.5 230.7 166 230.5 166.4 230.2C166.8 229.9 167.1 229.5 167.3 229.1C167.5 228.7 167.6 228.3 167.5 227.8H168.8C168.8 227.9 168.8 228.1 168.8 228.3C168.8 228.5 168.7 228.8 168.6 229.1C168.5 229.4 168.3 229.7 168.1 230.1C167.9 230.4 167.5 230.8 167.1 231.1C166.5 231.5 165.9 231.8 165.3 231.9C164.7 232 164.1 232 163.5 231.9C162.9 231.8 162.4 231.6 161.9 231.3C161.4 231 161 230.6 160.6 230.1C160.2 229.5 159.9 229 159.7 228.4C159.5 227.8 159.5 227.2 159.5 226.6C159.5 226 159.8 225.4 160.1 224.9C160.4 224.4 160.9 223.9 161.4 223.5C161.9 223.1 162.4 222.9 163 222.7C163.6 222.5 164.2 222.5 164.8 222.7L164.3 223.9Z" fill="white"/>
<path d="M168.4 225.7C168.1 225.4 167.9 225 167.7 224.6C167.6 224.2 167.5 223.8 167.5 223.4C167.5 223 167.6 222.6 167.8 222.2C168 221.8 168.2 221.5 168.6 221.2C168.9 220.9 169.3 220.7 169.7 220.5C170.1 220.3 170.5 220.3 170.9 220.3C171.3 220.3 171.7 220.4 172.1 220.6C172.5 220.8 172.8 221 173.1 221.3C173.4 221.6 173.6 222 173.8 222.4C173.9 222.8 174 223.2 174 223.6C174 224 173.9 224.4 173.7 224.8C173.5 225.2 173.3 225.5 172.9 225.8C172.6 226.1 172.2 226.3 171.8 226.5C171.4 226.7 171 226.7 170.6 226.7C170.2 226.7 169.8 226.6 169.4 226.4C169.1 226.2 168.7 226 168.4 225.7ZM169.3 224.8C169.5 225 169.7 225.2 170 225.3C170.2 225.4 170.5 225.5 170.7 225.5C170.9 225.5 171.2 225.5 171.5 225.4C171.8 225.3 172 225.2 172.2 225C172.4 224.8 172.6 224.6 172.7 224.3C172.8 224.1 172.9 223.8 172.9 223.6C172.9 223.4 172.8 223.1 172.7 222.8C172.6 222.5 172.4 222.3 172.2 222.1C172 221.9 171.8 221.7 171.5 221.6C171.3 221.5 171 221.4 170.8 221.4C170.6 221.4 170.3 221.4 170 221.5C169.7 221.6 169.5 221.7 169.3 221.9C169.1 222.1 168.9 222.3 168.8 222.6C168.7 222.9 168.6 223.1 168.6 223.3C168.6 223.5 168.7 223.8 168.8 224.1C169 224.4 169.1 224.6 169.3 224.8Z" fill="white"/>
<path d="M172 218.1L172.8 217.3L173.5 217.9C173.4 217.6 173.3 217.2 173.4 216.8C173.5 216.4 173.7 216 174 215.7C174.2 215.5 174.4 215.3 174.7 215.2C174.9 215.1 175.2 215 175.5 215C175.8 215 176.1 215 176.4 215.1C176.7 215.2 177 215.4 177.3 215.7L180.2 218.3L179.4 219.1L176.8 216.7C176.6 216.5 176.4 216.4 176.2 216.3C176 216.2 175.8 216.2 175.6 216.2C175.4 216.2 175.3 216.3 175.1 216.3C174.9 216.4 174.8 216.5 174.7 216.6C174.5 216.8 174.4 217 174.3 217.2C174.2 217.4 174.2 217.6 174.2 217.8C174.2 218 174.3 218.3 174.4 218.5C174.5 218.7 174.7 219 175 219.2L177.3 221.3L176.5 222.1L172 218.1Z" fill="white"/>
<path d="M179.5 211L178.5 212.3L180.6 214C180.7 214.1 180.9 214.2 181 214.3C181.1 214.4 181.3 214.5 181.4 214.5C181.5 214.5 181.7 214.5 181.8 214.5C181.9 214.5 182.1 214.4 182.2 214.2C182.3 214.1 182.4 214 182.4 213.8C182.5 213.7 182.5 213.5 182.5 213.4L183.3 214.1C183.3 214.3 183.2 214.4 183.1 214.6C183 214.8 182.9 214.9 182.8 215C182.5 215.3 182.3 215.6 182 215.7C181.7 215.8 181.5 215.9 181.3 215.8C181.1 215.8 180.9 215.7 180.7 215.5C180.5 215.4 180.3 215.2 180.1 215.1L177.6 213.1L176.8 214.1L176 213.5L176.8 212.5L175.5 211.4L176.2 210.5L177.5 211.6L178.5 210.3L179.5 211Z" fill="white"/>
<path d="M179.602 209.3L180.302 208.4L181.102 208.9C181.002 208.7 181.002 208.6 180.902 208.4C180.902 208.2 180.902 208 180.902 207.9C180.902 207.7 181.002 207.5 181.002 207.4C181.102 207.2 181.202 207 181.302 206.9C181.402 206.7 181.502 206.6 181.702 206.5L182.702 207.3C182.602 207.4 182.602 207.4 182.502 207.5C182.402 207.6 182.402 207.6 182.302 207.7C182.002 208.2 181.802 208.6 181.902 209C182.002 209.4 182.302 209.8 182.802 210.2L185.302 212L184.602 212.9L179.602 209.3Z" fill="white"/>
<path d="M180.4 204.5C180.2 204.4 180.1 204.2 180 204C180 203.8 180 203.6 180.1 203.4C180.2 203.2 180.4 203.1 180.6 203C180.8 203 181 203 181.2 203.1C181.4 203.2 181.5 203.4 181.6 203.6C181.6 203.8 181.6 204 181.5 204.2C181.4 204.4 181.2 204.5 181 204.6C180.8 204.6 180.6 204.6 180.4 204.5ZM182.3 205.4L182.9 204.4L187.9 207.7L187.3 208.7L182.3 205.4Z" fill="white"/>
<path d="M180.801 201.3L181.401 200.3L185.301 202.5C185.101 202.2 185.101 201.8 185.101 201.4C185.101 201 185.301 200.6 185.501 200.2C185.701 199.8 186.001 199.5 186.301 199.2C186.601 199 187.001 198.8 187.401 198.7C187.801 198.6 188.201 198.6 188.601 198.7C189.001 198.8 189.401 198.9 189.801 199.1C190.201 199.3 190.501 199.6 190.801 199.9C191.101 200.2 191.201 200.6 191.401 200.9C191.501 201.3 191.601 201.7 191.501 202.1C191.501 202.5 191.301 202.9 191.101 203.3C190.901 203.7 190.601 204 190.301 204.2C190.001 204.4 189.601 204.6 189.201 204.6L190.001 205L189.401 206L180.801 201.3ZM189.901 202.9C190.101 202.6 190.101 202.4 190.201 202.1C190.201 201.8 190.201 201.6 190.101 201.3C190.001 201.1 189.901 200.8 189.701 200.6C189.501 200.4 189.301 200.2 189.001 200.1C188.701 199.9 188.501 199.8 188.201 199.8C187.901 199.8 187.701 199.8 187.401 199.8C187.201 199.9 186.901 200 186.701 200.1C186.501 200.3 186.301 200.5 186.101 200.7C185.901 201 185.901 201.2 185.801 201.5C185.801 201.8 185.801 202 185.901 202.3C186.001 202.5 186.101 202.8 186.301 203C186.501 203.2 186.701 203.4 187.001 203.5C187.301 203.7 187.501 203.8 187.801 203.8C188.101 203.8 188.301 203.8 188.601 203.8C188.801 203.7 189.101 203.6 189.301 203.5C189.601 203.4 189.801 203.2 189.901 202.9Z" fill="white"/>
<path d="M195.499 194.1L194.999 195.1L194.199 194.7C194.399 195 194.599 195.3 194.599 195.7C194.599 196.1 194.499 196.5 194.299 196.9C194.199 197.2 193.999 197.4 193.799 197.6C193.599 197.8 193.399 198 193.099 198.1C192.799 198.2 192.599 198.2 192.199 198.2C191.799 198.2 191.499 198.1 191.199 197.9L187.699 196.2L188.199 195.2L191.399 196.7C191.699 196.8 191.899 196.9 192.099 196.9C192.299 196.9 192.499 196.9 192.699 196.8C192.899 196.7 192.999 196.6 193.099 196.5C193.199 196.4 193.299 196.2 193.399 196.1C193.499 195.9 193.599 195.7 193.599 195.5C193.599 195.3 193.599 195.1 193.499 194.9C193.399 194.7 193.299 194.5 193.099 194.3C192.899 194.1 192.599 193.9 192.299 193.8L189.499 192.5L189.999 191.5L195.499 194.1Z" fill="white"/>
<path d="M192.7 187.3L192.1 188.8L194.7 189.8C194.9 189.9 195 189.9 195.2 190C195.4 190.1 195.5 190.1 195.7 190.1C195.8 190.1 196 190.1 196.1 190C196.2 189.9 196.3 189.8 196.4 189.6C196.4 189.5 196.5 189.3 196.5 189.2C196.5 189.1 196.5 188.9 196.5 188.8L197.5 189.2C197.5 189.4 197.5 189.5 197.5 189.8C197.5 190.1 197.4 190.2 197.4 190.3C197.2 190.7 197.1 191 196.9 191.2C196.7 191.4 196.5 191.5 196.3 191.5C196.1 191.5 195.8 191.5 195.6 191.5C195.4 191.5 195.1 191.4 194.9 191.3L192 190.2L191.5 191.4L190.6 191L191.1 189.8L189.5 189.2L189.9 188.1L191.5 188.7L192.1 187.2L192.7 187.3Z" fill="white"/>
<path d="M195.098 186.9C194.698 186.8 194.298 186.6 193.998 186.3C193.698 186 193.398 185.7 193.198 185.3C192.998 184.9 192.898 184.5 192.898 184.1C192.898 183.7 192.898 183.3 192.998 182.8C193.098 182.4 193.298 182 193.598 181.7C193.898 181.4 194.198 181.1 194.598 180.9C194.998 180.7 195.398 180.6 195.798 180.5C196.198 180.5 196.598 180.5 197.098 180.6C197.598 180.7 197.898 180.9 198.198 181.2C198.498 181.5 198.798 181.8 198.998 182.2C199.198 182.6 199.298 183 199.298 183.4C199.298 183.8 199.298 184.2 199.198 184.7C199.098 185.1 198.898 185.5 198.598 185.8C198.298 186.1 197.998 186.4 197.598 186.6C197.198 186.8 196.898 186.9 196.398 187C195.898 187.1 195.498 187 195.098 186.9ZM195.398 185.7C195.698 185.8 195.998 185.8 196.298 185.8C196.598 185.8 196.798 185.7 197.098 185.6C197.298 185.5 197.498 185.3 197.698 185.1C197.898 184.9 197.998 184.6 198.098 184.4C198.198 184.1 198.198 183.8 198.198 183.6C198.198 183.3 198.098 183.1 197.998 182.9C197.898 182.7 197.698 182.5 197.498 182.3C197.298 182.1 196.998 182 196.698 181.9C196.398 181.8 196.098 181.8 195.798 181.8C195.498 181.8 195.298 181.9 194.998 182C194.798 182.1 194.598 182.3 194.398 182.5C194.198 182.7 194.098 183 193.998 183.2C193.898 183.5 193.898 183.8 193.898 184C193.898 184.3 193.998 184.5 194.098 184.7C194.198 184.9 194.398 185.1 194.598 185.3C194.798 185.5 195.098 185.6 195.398 185.7Z" fill="white"/>
<path d="M194.398 178.5L194.698 177.4L195.598 177.6C195.498 177.5 195.298 177.4 195.198 177.2C195.098 177 194.998 176.9 194.998 176.7C194.998 176.5 194.898 176.3 194.898 176.1C194.898 175.9 194.898 175.7 194.898 175.5C194.898 175.3 194.998 175.2 195.098 175L196.298 175.3C196.298 175.4 196.198 175.5 196.198 175.6C196.198 175.7 196.098 175.8 196.098 175.9C195.998 176.4 195.998 176.9 196.298 177.3C196.598 177.7 196.998 177.9 197.598 178.1L200.598 178.8L200.298 179.9L194.398 178.5Z" fill="white"/>
<defs>
<filter id="filter0_ii" x="0" y="48" width="218" height="218" filterUnits="userSpaceOnUse" color-interpolation-filters="sRGB">
<feFlood flood-opacity="0" result="BackgroundImageFix"/>
<feBlend mode="normal" in="SourceGraphic" in2="BackgroundImageFix" result="shape"/>
<feColorMatrix in="SourceAlpha" type="matrix" values="0 0 0 0 0 0 0 0 0 0 0 0 0 0 0 0 0 0 127 0" result="hardAlpha"/>
<feOffset/>
<feGaussianBlur stdDeviation="4"/>
<feComposite in2="hardAlpha" operator="arithmetic" k2="-1" k3="1"/>
<feColorMatrix type="matrix" values="0 0 0 0 0.9875 0 0 0 0 0.722843 0 0 0 0 0.386771 0 0 0 1 0"/>
<feBlend mode="normal" in2="shape" result="effect1_innerShadow"/>
<feColorMatrix in="SourceAlpha" type="matrix" values="0 0 0 0 0 0 0 0 0 0 0 0 0 0 0 0 0 0 127 0" result="hardAlpha"/>
<feOffset/>
<feGaussianBlur stdDeviation="6"/>
<feComposite in2="hardAlpha" operator="arithmetic" k2="-1" k3="1"/>
<feColorMatrix type="matrix" values="0 0 0 0 0 0 0 0 0 0 0 0 0 0 0 0 0 0 0.2 0"/>
<feBlend mode="normal" in2="effect1_innerShadow" result="effect2_innerShadow"/>
</filter>
<filter id="filter1_i" x="59" y="107" width="100" height="100" filterUnits="userSpaceOnUse" color-interpolation-filters="sRGB">
<feFlood flood-opacity="0" result="BackgroundImageFix"/>
<feBlend mode="normal" in="SourceGraphic" in2="BackgroundImageFix" result="shape"/>
<feColorMatrix in="SourceAlpha" type="matrix" values="0 0 0 0 0 0 0 0 0 0 0 0 0 0 0 0 0 0 127 0" result="hardAlpha"/>
<feOffset/>
<feGaussianBlur stdDeviation="6"/>
<feComposite in2="hardAlpha" operator="arithmetic" k2="-1" k3="1"/>
<feColorMatrix type="matrix" values="0 0 0 0 0 0 0 0 0 0 0 0 0 0 0 0 0 0 0.4 0"/>
<feBlend mode="normal" in2="shape" result="effect1_innerShadow"/>
</filter>
<linearGradient id="paint0_linear" x1="51.775" y1="55.4938" x2="322.848" y2="326.729" gradientUnits="userSpaceOnUse">
<stop stop-color="#F2F2F2"/>
<stop offset="1" stop-color="#3D485C"/>
</linearGradient>
<linearGradient id="paint1_linear" x1="-158.31" y1="-178.824" x2="234.09" y2="289.357" gradientUnits="userSpaceOnUse">
<stop stop-color="white"/>
<stop offset="1" stop-color="white" stop-opacity="0"/>
</linearGradient>
<linearGradient id="paint2_linear" x1="174.52" y1="211.6" x2="38.8" y2="105.52" gradientUnits="userSpaceOnUse">
<stop stop-color="white"/>
<stop offset="1" stop-color="#203A41" stop-opacity="0.4"/>
</linearGradient>
<linearGradient id="paint3_linear" x1="194.68" y1="228.4" x2="17.2" y2="89.68" gradientUnits="userSpaceOnUse">
<stop stop-color="white"/>
<stop offset="1" stop-color="#203A41" stop-opacity="0.24"/>
</linearGradient>
</defs>
</svg>
