<svg width="218" height="268" viewBox="0 0 218 268" fill="none" xmlns="http://www.w3.org/2000/svg">
<path d="M86.0059 29.7983C84.9045 29.7983 84.0234 30.669 84.0234 31.7573V50.0412C84.0234 51.1295 84.9045 52.0002 86.0059 52.0002H131.381C132.483 52.0002 133.364 51.1295 133.364 50.0412V31.7573C133.364 30.669 132.483 29.7983 131.381 29.7983H86.0059ZM129.399 44.1642C129.399 45.2526 128.518 46.1232 127.416 46.1232H90.191C89.0896 46.1232 88.2086 45.2526 88.2086 44.1642V35.893C88.2086 34.8046 89.0896 33.934 90.191 33.934H127.416C128.518 33.934 129.399 34.8046 129.399 35.893V44.1642Z" fill="#D1D4D8"/>
<path d="M140.045 0L114.918 37.8775H127.37L155.388 0H140.045Z" fill="#0FA711"/>
<path d="M127.377 0L102.473 37.8775H114.925L140.052 0H127.377Z" fill="white"/>
<path d="M114.92 0L90.0156 37.8775H102.468L127.373 0H114.92Z" fill="#FF7600"/>
<path d="M90.0177 37.8775H102.47L77.343 0H62L90.0177 37.8775Z" fill="#FF7600"/>
<path d="M102.471 37.8775H114.923L90.0184 0H77.3438L102.471 37.8775Z" fill="white"/>
<path opacity="0.5" d="M110.695 6.27979L104.469 15.6931L119.145 37.8818H127.372L129.596 34.744L110.695 6.27979Z" fill="#3E4347"/>
<path d="M114.92 37.8775H127.373L102.468 0H90.0156L114.92 37.8775Z" fill="#0FA711"/>
<g filter="url(#filter0_ii)">
<path d="M218 159C218 219.199 169.199 268 109 268C48.801 268 0 219.199 0 159C0 98.801 48.801 50 109 50C169.199 50 218 98.801 218 159Z" fill="#34373C" fill-opacity="0.4"/>
</g>
<path d="M214.5 159C214.5 217.266 167.266 264.5 109 264.5C50.734 264.5 3.5 217.266 3.5 159C3.5 100.734 50.734 53.5 109 53.5C167.266 53.5 214.5 100.734 214.5 159Z" stroke="#DFDFDF" stroke-width="7"/>
<path d="M214.5 159C214.5 217.266 167.266 264.5 109 264.5C50.734 264.5 3.5 217.266 3.5 159C3.5 100.734 50.734 53.5 109 53.5C167.266 53.5 214.5 100.734 214.5 159Z" stroke="url(#paint0_linear)" stroke-width="7"/>
<path d="M214.5 159C214.5 217.266 167.266 264.5 109 264.5C50.734 264.5 3.5 217.266 3.5 159C3.5 100.734 50.734 53.5 109 53.5C167.266 53.5 214.5 100.734 214.5 159Z" stroke="url(#paint1_linear)" stroke-width="7"/>
<path d="M196 159C196 207.049 157.049 246 109 246C60.9512 246 22 207.049 22 159C22 110.951 60.9512 72 109 72C157.049 72 196 110.951 196 159Z" fill="#5C686B"/>
<path fill-rule="evenodd" clip-rule="evenodd" d="M109 87C69.2355 87 37 119.235 37 159C37 198.764 69.2355 231 109 231C148.764 231 181 198.764 181 159C181 119.235 148.764 87 109 87ZM7 159C7 102.667 52.667 57 109 57C165.333 57 211 102.667 211 159C211 215.333 165.333 261 109 261C52.667 261 7 215.333 7 159Z" fill="#6F7A7D"/>
<path d="M109.001 82C66.5595 82 32 116.357 32 159.001C32 201.645 66.3574 236.002 109.001 236.002C151.645 236.002 186.002 201.645 186.002 159.001C186.002 116.357 151.442 82 109.001 82ZM93.6412 89.4778C93.8433 89.4778 93.8433 89.4778 93.6412 89.4778C95.0559 92.5093 97.6833 94.3282 100.311 93.7219C102.938 93.3177 105.565 91.4988 105.767 87.861C106.172 87.861 106.576 87.861 106.98 87.861C106.98 98.7745 106.172 110.496 104.959 123.229C104.757 124.441 104.757 125.654 104.757 126.867C104.353 125.856 103.948 124.644 103.544 123.229C99.3001 112.517 95.4601 100.998 92.4286 89.6799C93.0349 89.6799 93.237 89.4778 93.6412 89.4778ZM76.0583 95.743C78.2814 98.3703 81.1109 99.3808 83.5361 98.1682C86.3655 96.9556 87.9823 94.1261 87.376 91.0946C87.7802 90.8925 88.1844 90.8925 88.5886 90.6904C91.216 101.2 93.8433 112.72 95.8643 125.452C96.0664 126.867 96.2685 127.877 96.6727 129.09C96.0664 128.079 95.4601 127.069 94.4496 125.856C87.5781 116.559 80.9088 106.454 75.0478 96.3493C75.2499 96.1472 75.6541 95.9451 76.0583 95.743ZM60.4964 106.656C63.3259 108.475 66.3574 108.678 68.3784 107.061C69.9952 105.848 70.8036 104.029 70.8036 102.21C70.8036 101.2 70.6015 100.189 69.9952 99.3808C70.3994 99.1787 70.6015 98.9766 71.0057 98.7745C76.4625 108.071 81.7172 118.783 87.1739 130.302C87.7802 131.515 88.3865 132.526 88.7907 133.536C87.9823 132.728 86.9718 131.919 85.9613 131.111C77.0688 123.633 67.9742 115.549 59.688 107.465C59.8901 107.061 60.2943 106.859 60.4964 106.656ZM48.3703 121.006C48.5724 121.006 48.5724 121.006 48.3703 121.006C51.6039 122.016 54.6355 121.612 56.0502 119.389C56.4544 118.783 57.4649 117.166 57.4649 115.549C57.4649 114.538 57.0607 112.922 55.8481 111.507C56.0502 111.305 56.4544 110.901 56.6565 110.699C64.3364 118.378 72.2184 127.271 80.5046 136.972C81.313 137.982 82.1214 138.791 82.9298 139.599C81.9193 138.993 80.7067 138.589 79.494 137.982C68.9847 133.132 58.0712 127.675 47.764 122.016C47.9661 121.612 48.1682 121.41 48.3703 121.006ZM40.4883 137.982C40.4883 137.982 40.4883 137.78 40.4883 137.982C43.924 138.184 46.5514 136.972 47.5619 134.344C47.764 133.738 47.9661 132.93 47.9661 131.717C47.9661 130.505 47.5619 128.281 45.1367 126.665C45.3388 126.26 45.5409 126.058 45.743 125.654C55.0397 131.111 65.1448 137.578 75.452 144.854C76.4625 145.662 77.6751 146.269 78.4835 146.875C77.473 146.673 76.0583 146.471 74.6436 146.066C63.3259 144.45 51.4018 142.024 39.882 138.993C40.2862 138.791 40.4883 138.387 40.4883 137.982ZM37.2547 156.374C37.2547 156.374 37.2547 156.172 37.2547 156.374C40.4883 155.767 42.9135 153.746 43.1156 151.119C43.1156 150.917 43.1156 150.715 43.1156 150.311C43.1156 147.885 41.903 145.258 38.8715 144.248C38.8715 143.843 39.0736 143.439 39.0736 143.035C49.5829 145.864 60.9006 149.704 72.8247 153.948C74.0373 154.353 75.2499 154.757 76.2604 154.959C75.0478 154.959 73.8352 155.161 72.4205 155.161C61.1027 156.576 48.7745 157.182 37.0526 157.384C37.2547 157.182 37.2547 156.778 37.2547 156.374ZM38.8715 175.169C38.8715 174.967 38.8715 174.967 38.8715 175.169C41.4988 173.754 43.1156 171.733 43.1156 169.308C43.1156 169.106 43.1156 168.702 43.1156 168.5C42.7114 165.872 40.8925 163.245 37.2547 163.043C37.2547 162.639 37.2547 162.235 37.2547 161.83C48.1682 161.83 59.8901 162.437 72.6226 163.447C74.0373 163.649 75.2499 163.649 76.2604 163.649C75.2499 164.054 74.0373 164.458 72.6226 164.862C61.9111 169.106 50.3913 172.946 39.0736 176.18C39.0736 175.978 39.0736 175.573 38.8715 175.169ZM45.3387 192.752C45.3387 192.752 45.3387 192.55 45.3387 192.752C47.1577 191.135 48.1682 189.316 48.1682 187.295C48.1682 186.487 47.9661 185.881 47.764 185.274C46.7535 182.849 44.3282 180.828 40.6904 181.636C40.4883 181.232 40.4883 180.828 40.2862 180.424C50.7955 177.594 62.3153 175.169 74.8457 172.946C76.2604 172.744 77.2709 172.34 78.4835 172.138C77.473 172.744 76.4625 173.35 75.2499 174.361C65.9532 181.232 55.8481 187.902 45.743 193.965C45.743 193.358 45.5409 193.156 45.3387 192.752ZM56.2523 208.112C57.2628 206.495 57.667 205.08 57.667 203.463C57.667 202.251 57.2628 201.038 56.4544 200.23C54.8376 198.209 51.806 196.794 48.5724 198.411C48.3703 198.007 48.1682 197.805 47.9661 197.4C57.2628 191.944 67.9742 186.487 79.494 181.03C80.7067 180.424 81.7172 179.818 82.7277 179.413C81.9193 180.222 81.1109 181.232 80.3024 182.243C73.2289 191.337 65.1448 200.432 57.0607 208.92C56.8586 208.718 56.4544 208.516 56.2523 208.112ZM70.6015 220.036C70.8036 218.823 71.0057 217.813 71.0057 216.802C71.0057 214.781 70.1973 213.164 68.7826 212.356C66.7616 210.941 63.528 210.133 60.9006 212.76C60.4964 212.558 60.2943 212.154 60.0922 211.952C67.7721 204.272 76.4625 196.188 86.1634 188.104C87.1739 187.295 87.9823 186.487 88.7907 185.678C88.1844 186.689 87.7802 187.902 87.1739 189.114C82.7277 199.624 77.473 210.537 71.612 220.642C71.4099 220.44 71.0057 220.238 70.6015 220.036ZM87.5781 227.918C87.7802 224.482 86.3655 221.855 83.9403 220.844C81.5151 220.036 78.2814 220.238 76.2604 223.27C75.8562 223.067 75.6541 222.865 75.2499 222.663C80.7066 213.367 86.9718 203.261 94.2475 192.752C95.0559 191.539 95.6622 190.529 96.2685 189.721C96.0664 190.731 95.8643 192.146 95.4601 193.56C93.8433 204.878 91.4181 216.802 88.5886 228.322C88.3865 228.12 87.9823 228.12 87.5781 227.918ZM105.969 230.949C105.363 227.716 103.342 225.291 100.715 225.088C98.0874 224.886 95.0559 225.897 94.0454 229.333C93.6412 229.333 93.237 229.13 92.8328 229.13C95.6622 218.621 99.3001 207.303 103.544 195.379C103.948 194.167 104.353 192.954 104.555 191.944C104.555 193.156 104.757 194.369 104.757 195.784C106.172 207.101 106.98 219.43 107.182 231.151C106.778 231.151 106.374 231.151 105.969 230.949ZM178.928 144.45C176.301 145.864 174.482 147.885 174.482 150.311C174.482 150.513 174.482 150.917 174.482 151.119C174.886 153.746 176.705 156.374 180.343 156.576C180.343 156.98 180.343 157.384 180.343 157.788C169.632 157.788 157.708 156.98 144.975 155.767C143.56 155.565 142.348 155.565 141.337 155.565C142.348 155.161 143.56 154.757 144.975 154.353C155.687 150.108 167.206 146.269 178.524 143.237C178.726 143.641 178.726 144.045 178.928 144.45ZM172.663 126.867C172.663 126.867 172.663 127.069 172.663 126.867C170.844 128.484 169.834 130.302 169.834 132.323C169.834 133.132 170.036 133.738 170.238 134.344C171.248 136.77 173.674 138.791 177.312 138.184C177.514 138.589 177.514 138.993 177.716 139.397C167.206 142.024 155.485 144.45 142.954 146.673C141.539 146.875 140.529 147.077 139.316 147.481C140.327 146.875 141.337 146.269 142.55 145.46C151.847 138.387 161.952 131.717 172.057 125.856C172.259 126.26 172.461 126.463 172.663 126.867ZM162.154 111.709C161.143 113.326 160.537 114.943 160.537 116.357C160.537 117.57 160.941 118.783 161.75 119.591C163.366 121.612 166.196 123.027 169.43 121.41C169.632 121.814 169.834 122.016 170.036 122.42C160.537 127.675 150.028 133.132 138.306 138.184C137.093 138.791 136.083 139.195 135.072 139.801C135.881 138.993 136.689 137.982 137.7 136.972C144.975 128.079 153.059 118.985 161.345 110.699C161.548 111.103 161.952 111.305 162.154 111.709ZM147.603 99.1787C147.603 99.1787 147.805 99.3808 147.603 99.1787C147.4 100.391 146.996 101.402 146.996 102.412C146.996 104.231 147.805 105.848 149.219 106.859C151.24 108.273 154.474 109.082 157.101 106.656C157.303 106.859 157.708 107.263 157.91 107.465C150.23 115.145 141.337 123.027 131.434 131.111C130.424 131.919 129.413 132.728 128.807 133.536C129.413 132.526 129.818 131.515 130.424 130.1C135.072 119.591 140.529 108.678 146.39 98.5724C146.996 98.7745 147.198 98.9766 147.603 99.1787ZM130.626 91.2967C130.828 91.2967 130.828 91.2967 130.626 91.2967C130.424 94.7324 131.839 97.3598 134.264 98.3703C136.689 99.3808 139.923 99.1787 141.944 95.9451C142.348 96.1472 142.55 96.3493 142.954 96.5514C137.497 105.848 131.03 115.751 123.552 126.26C122.744 127.271 122.138 128.281 121.531 129.292C121.733 128.281 122.138 126.867 122.34 125.452C124.159 114.134 126.584 102.21 129.413 90.8925C130.02 90.8925 130.222 91.0946 130.626 91.2967ZM112.437 87.861C112.437 87.861 112.639 87.861 112.437 87.861C113.043 91.0946 115.064 93.5198 117.691 93.7219C120.319 93.924 123.35 92.9135 124.563 89.4778C124.967 89.4778 125.371 89.6799 125.775 89.6799C122.946 100.189 119.106 111.507 114.66 123.229C114.256 124.441 113.851 125.654 113.447 126.665C113.447 125.452 113.245 124.239 113.245 122.825C112.033 111.507 111.224 99.1787 111.224 87.4568C111.628 87.861 112.033 87.861 112.437 87.861ZM124.361 229.333C122.744 226.301 120.319 224.684 117.691 225.088C115.064 225.493 112.437 227.312 112.235 230.949C111.83 230.949 111.426 230.949 111.022 230.949C111.022 220.036 111.628 208.314 112.841 195.581C113.043 194.369 113.043 193.358 113.043 192.348C113.043 192.146 113.043 192.146 113.043 191.944C113.447 192.954 113.851 194.167 114.256 195.581C118.5 206.293 122.34 217.813 125.573 229.13C125.169 229.333 124.765 229.333 124.361 229.333ZM141.742 223.067C141.742 223.067 141.539 223.067 141.742 223.067C139.518 220.44 136.689 219.43 134.264 220.642C131.434 221.855 129.818 224.684 130.626 227.716C130.222 227.918 129.818 227.918 129.413 228.12C126.584 217.611 124.159 206.091 122.138 193.56C121.936 192.146 121.733 191.135 121.329 189.923C121.936 190.933 122.542 191.944 123.552 193.156C130.424 202.453 137.093 212.558 142.954 222.663C142.348 222.865 142.146 222.865 141.742 223.067ZM157.303 212.154C157.303 212.356 157.303 212.356 157.303 212.154C154.474 210.335 151.442 210.133 149.421 211.75C147.805 212.962 146.996 214.781 146.996 216.6C146.996 217.611 147.198 218.621 147.805 219.43C147.4 219.632 147.198 219.834 146.794 220.036C141.337 210.739 135.881 200.028 130.626 188.508C130.02 187.295 129.413 186.285 129.009 185.274C129.818 186.083 130.828 186.891 131.839 187.699C140.933 194.773 150.028 202.857 158.314 211.143C157.91 211.75 157.708 211.952 157.303 212.154ZM169.227 198.007C169.227 198.007 169.227 198.209 169.227 198.007C165.994 196.996 162.962 197.4 161.548 199.624C161.143 200.23 160.133 201.847 160.133 203.463C160.133 204.474 160.537 206.091 161.75 207.506C161.548 207.708 161.143 208.112 160.941 208.314C153.261 200.634 145.379 191.742 137.295 182.041C136.487 181.03 135.678 180.02 134.87 179.413C135.881 180.02 137.093 180.424 138.306 181.03C148.815 185.678 159.729 191.135 170.036 196.794C169.632 197.4 169.43 197.603 169.227 198.007ZM177.109 181.03C177.109 181.232 177.109 181.232 177.109 181.03C173.674 180.828 171.046 182.041 170.036 184.668C169.834 185.274 169.632 186.083 169.632 187.295C169.632 188.508 170.036 190.731 172.461 192.348C172.259 192.752 172.057 192.954 171.855 193.358C162.558 187.902 152.453 181.434 142.146 174.159C141.135 173.35 139.923 172.744 139.114 172.138C140.125 172.34 141.539 172.744 142.954 172.946C154.272 174.563 166.196 176.988 177.514 180.02C177.312 180.424 177.312 180.828 177.109 181.03ZM180.343 162.841C177.109 163.447 174.684 165.266 174.482 167.893C174.482 168.096 174.482 168.298 174.482 168.702C174.482 171.127 175.695 173.754 178.726 174.765C178.726 175.169 178.524 175.573 178.524 175.978C168.015 173.148 156.697 169.51 144.773 165.064C143.56 164.66 142.348 164.256 141.337 164.054C142.55 164.054 143.763 163.851 145.177 163.851C156.495 162.639 168.823 161.83 180.545 161.83C180.545 162.033 180.343 162.437 180.343 162.841Z" fill="#D1D4D8"/>
<circle cx="109" cy="159" r="77" stroke="url(#paint2_linear)" stroke-width="2"/>
<circle cx="109" cy="159" r="101" stroke="url(#paint3_linear)" stroke-width="2"/>
<g filter="url(#filter1_i)">
<circle cx="109" cy="159" r="50" fill="#6F7A7D"/>
</g>
<mask id="mask0" mask-type="alpha" maskUnits="userSpaceOnUse" x="59" y="109" width="100" height="100">
<circle cx="109" cy="159" r="50" fill="#C3863A"/>
</mask>
<g mask="url(#mask0)">
<path d="M82.6969 107.385L82.6979 107.386L82.948 107.755C83.1118 107.996 83.3522 108.351 83.6587 108.803C84.2716 109.708 85.1489 111.003 86.2061 112.568C88.3206 115.698 91.1554 119.904 94.0364 124.21C96.917 128.516 99.8455 132.924 102.147 136.456C103.297 138.222 104.293 139.772 105.048 140.983C105.788 142.169 106.335 143.088 106.55 143.554C106.628 143.723 106.657 143.91 106.632 144.094C106.534 144.829 106.129 145.471 105.646 146.005C105.156 146.547 104.516 147.053 103.813 147.52C102.404 148.455 100.608 149.318 98.8706 150.047C97.125 150.779 95.4 151.393 94.1146 151.823C93.6747 151.97 93.2852 152.095 92.9629 152.198C93.1439 152.686 93.3873 153.329 93.6735 154.051C94.3132 155.666 95.1542 157.645 95.9843 159.186C96.4389 160.031 96.1789 160.859 95.7262 161.467C95.3 162.04 94.6303 162.543 93.9004 162.984C92.419 163.877 90.3247 164.724 88.2437 165.448C86.3521 166.107 84.4214 166.682 82.875 167.113C83.4397 167.304 84.052 167.513 84.687 167.732C87.3423 168.647 90.4545 169.766 92.1006 170.526C93.8143 171.317 94.6604 172.287 94.7213 173.384C94.7496 173.893 94.5932 174.305 94.4453 174.575C94.3705 174.712 94.2935 174.82 94.2321 174.898C94.2011 174.937 94.1733 174.97 94.1506 174.995L94.1371 175.01C94.1295 175.019 94.1172 175.034 94.1009 175.055C94.0648 175.101 94.0092 175.173 93.9405 175.272C93.8027 175.468 93.6142 175.764 93.4245 176.144C93.0436 176.905 92.6701 177.98 92.6701 179.259C92.6701 179.659 92.6801 180.157 92.6916 180.725L92.6916 180.726V180.726C92.7201 182.144 92.7574 183.997 92.669 185.832C92.5466 188.371 92.1799 191.179 91.0541 193.008C90.7744 193.463 90.3091 193.739 89.8966 193.918C89.4594 194.109 88.9312 194.254 88.3535 194.37C87.195 194.603 85.6931 194.742 83.9974 194.818C80.5971 194.969 76.2723 194.868 72.0358 194.668C67.7934 194.469 63.6152 194.169 60.4994 193.92C58.941 193.795 57.6472 193.683 56.7427 193.601C56.2904 193.561 55.9354 193.528 55.6932 193.505L55.4164 193.479L55.3682 193.475H33.6015C33.06 193.475 32.6211 193.036 32.6211 192.494V108.916C32.6211 108.382 33.048 107.947 33.5816 107.936L81.8659 106.955C82.1977 106.949 82.5104 107.11 82.6969 107.385Z" fill="white"/>
<path fill-rule="evenodd" clip-rule="evenodd" d="M114.267 151.364C113.599 152.033 113.638 153.118 114.209 153.872C115.402 155.445 116.109 157.406 116.109 159.533C116.109 161.506 115.5 163.337 114.46 164.847C113.94 165.603 113.928 166.646 114.577 167.295C115.23 167.948 116.301 167.951 116.86 167.215C118.481 165.081 119.442 162.419 119.442 159.533C119.442 156.437 118.336 153.6 116.497 151.395C115.926 150.709 114.898 150.733 114.267 151.364ZM119.872 170.245C119.292 170.957 119.286 172.004 119.936 172.653C120.588 173.306 121.652 173.308 122.247 172.603C125.223 169.072 127.017 164.512 127.017 159.533C127.017 154.356 125.078 149.631 121.886 146.046C121.284 145.371 120.245 145.386 119.606 146.026C118.944 146.687 118.965 147.759 119.576 148.468C122.136 151.438 123.684 155.305 123.684 159.533C123.684 163.596 122.255 167.325 119.872 170.245ZM125.634 176.002C125.03 176.695 125.027 177.744 125.677 178.394C126.328 179.046 127.39 179.048 128.001 178.358C132.439 173.346 135.134 166.755 135.134 159.534C135.134 152.119 132.293 145.368 127.64 140.309C127.024 139.64 125.98 139.651 125.337 140.294C124.679 140.953 124.693 142.019 125.318 142.71C129.346 147.158 131.8 153.059 131.8 159.534C131.8 165.837 129.474 171.597 125.634 176.002Z" fill="white"/>
</g>
<path d="M58.5008 90.7998L53.3008 83.2998L55.7008 81.5998C56.5008 80.9998 57.2008 80.7998 57.9008 80.7998C58.6008 80.7998 59.1008 81.1998 59.5008 81.8998C59.7008 82.1998 59.9008 82.5998 59.8008 82.9998C59.8008 83.3998 59.7008 83.7998 59.4008 84.1998C59.9008 83.9998 60.3008 83.9998 60.8008 84.1998C61.3008 84.3998 61.6008 84.5998 61.9008 85.0998C62.4008 85.7998 62.5008 86.3998 62.3008 87.0998C62.1008 87.7998 61.7008 88.3998 60.9008 88.8998L58.5008 90.7998ZM56.5008 85.7998L58.0008 84.7998C58.4008 84.4998 58.7008 84.1998 58.8008 83.7998C58.9008 83.3998 58.8008 82.9998 58.6008 82.6998C58.3008 82.2998 58.0008 82.0998 57.6008 82.0998C57.2008 82.0998 56.8008 82.1998 56.3008 82.5998L54.8008 83.5998L56.5008 85.7998ZM57.1008 86.5998L59.0008 89.2998L60.6008 88.1998C61.1008 87.8998 61.3008 87.4998 61.4008 87.0998C61.5008 86.6998 61.4008 86.2998 61.1008 85.7998C60.5008 84.8998 59.7008 84.7998 58.7008 85.4998L57.1008 86.5998Z" fill="white"/>
<path d="M62.7023 80.8998C62.8023 80.0998 63.2023 79.4998 64.0023 79.0998C65.2023 78.3998 66.3024 78.6998 67.1024 80.0998L69.3023 83.9998L68.3023 84.5998L66.1024 80.6998C65.9024 80.2998 65.6023 79.9998 65.3023 79.8998C65.0023 79.7998 64.6023 79.8998 64.2023 80.0998C63.9023 80.2998 63.6023 80.4998 63.5023 80.8998C63.4023 81.2998 63.3023 81.5998 63.3023 81.8998L65.7023 86.0998L64.7023 86.6998L59.9023 78.3998L60.9023 77.7998L62.7023 80.8998Z" fill="white"/>
<path d="M74.2016 81.6002C74.1016 81.5002 73.9016 81.3002 73.7016 81.0002C73.5016 81.7002 73.0016 82.3002 72.3016 82.6002C71.7016 82.9002 71.1016 82.9002 70.6016 82.8002C70.1016 82.6002 69.7016 82.3002 69.4016 81.8002C69.1016 81.2002 69.1016 80.6002 69.4016 80.0002C69.7016 79.4002 70.3016 78.9002 71.2016 78.5002L72.2016 78.0002L72.0016 77.5002C71.8016 77.1002 71.6016 76.9002 71.3016 76.8002C71.0016 76.7002 70.6016 76.7002 70.2016 76.9002C69.8016 77.1002 69.6016 77.3002 69.4016 77.6002C69.2016 77.9002 69.2016 78.2002 69.3016 78.5002L68.3016 79.0002C68.2016 78.7002 68.1016 78.4002 68.2016 78.0002C68.3016 77.6002 68.5016 77.3002 68.8016 76.9002C69.1016 76.6002 69.5016 76.3002 69.9016 76.1002C70.6016 75.8002 71.2016 75.7002 71.8016 75.8002C72.4016 76.0002 72.8016 76.3002 73.1016 77.0002L74.4016 79.8002C74.7016 80.4002 74.9016 80.8002 75.2016 81.0002V81.1002L74.2016 81.6002ZM72.1016 81.6002C72.4016 81.4002 72.7016 81.2002 72.9016 80.9002C73.1016 80.6002 73.2016 80.3002 73.2016 79.9002L72.6016 78.7002L71.8016 79.1002C70.5016 79.7002 70.1016 80.4002 70.4016 81.1002C70.6016 81.4002 70.8016 81.6002 71.1016 81.7002C71.4016 81.8002 71.8016 81.7002 72.1016 81.6002Z" fill="white"/>
<path d="M79.4001 77.4998C79.3001 77.1998 79.1001 76.9998 78.8001 76.8998C78.5001 76.7998 78.1001 76.7998 77.5001 76.8998C76.9001 76.9998 76.4001 76.9998 76.0001 76.9998C75.6001 76.9998 75.3002 76.8998 75.1002 76.6998C74.9002 76.4998 74.7002 76.2998 74.6002 75.9998C74.4002 75.4998 74.5001 74.9998 74.8001 74.3998C75.1001 73.7998 75.6001 73.4998 76.3001 73.1998C77.0001 72.8998 77.7001 72.8998 78.2001 73.0998C78.8001 73.2998 79.2001 73.6998 79.4001 74.2998L78.3001 74.6998C78.2001 74.3998 78.0002 74.1998 77.6002 74.0998C77.3002 73.9998 76.9001 73.9998 76.5001 74.0998C76.1001 74.2998 75.8001 74.4998 75.7001 74.6998C75.5001 74.9998 75.5002 75.1998 75.6002 75.4998C75.7002 75.7998 75.9002 75.8998 76.1002 75.9998C76.3002 76.0998 76.8001 75.9998 77.4001 75.8998C78.0001 75.7998 78.5001 75.7998 78.9001 75.7998C79.3001 75.7998 79.6001 75.8998 79.9001 76.0998C80.2001 76.2998 80.3001 76.4998 80.5001 76.8998C80.7001 77.4998 80.7001 77.9998 80.3001 78.4998C80.0001 78.9998 79.5001 79.3998 78.7001 79.6998C78.2001 79.8998 77.7001 79.9998 77.3001 79.8998C76.8001 79.8998 76.4002 79.6998 76.1002 79.4998C75.8002 79.2998 75.5001 78.9998 75.4001 78.5998L76.5001 78.1998C76.7001 78.5998 76.9001 78.7998 77.3001 78.8998C77.7001 78.9998 78.0001 78.9998 78.5001 78.7998C78.9001 78.5998 79.2001 78.3998 79.4001 78.1998C79.5001 77.9998 79.5001 77.7998 79.4001 77.4998Z" fill="white"/>
<path d="M81.7015 72.3999C82.0015 71.6999 82.6015 71.1999 83.3015 70.8999C84.7015 70.4999 85.6016 71.0999 86.1016 72.5999L87.4016 76.8999L86.3015 77.1999L85.0015 72.8999C84.9015 72.3999 84.6016 72.0999 84.4016 71.9999C84.2016 71.8999 83.8015 71.7999 83.3015 71.9999C82.9015 72.0999 82.7016 72.2999 82.4016 72.5999C82.2016 72.8999 82.1015 73.1999 82.0015 73.4999L83.4016 78.0999L82.3015 78.3999L79.6016 69.1999L80.7015 68.8999L81.7015 72.3999Z" fill="white"/>
<path d="M86.8008 68.1998C86.8008 67.9998 86.8008 67.8998 86.9008 67.6998C87.0008 67.4998 87.1008 67.3998 87.3008 67.3998C87.5008 67.2998 87.7008 67.3998 87.8008 67.4998C87.9008 67.5998 88.0008 67.6998 88.1008 67.8998C88.1008 68.0998 88.1008 68.1998 88.0008 68.3998C87.9008 68.4998 87.8008 68.5998 87.5008 68.6998C87.3008 68.7998 87.1008 68.6998 87.0008 68.5998C86.9008 68.4998 86.8008 68.3998 86.8008 68.1998ZM90.0008 76.1998L88.9008 76.4998L87.3008 69.8998L88.4008 69.5998L90.0008 76.1998Z" fill="white"/>
<path d="M91.4008 69L91.6008 69.8C92.0008 69.1 92.6008 68.6 93.4008 68.5C94.8008 68.3 95.7008 68.9 95.9008 70.5L96.7008 74.9L95.6008 75.1L94.8008 70.7C94.7008 70.2 94.5008 69.9 94.3008 69.7C94.0008 69.5 93.7008 69.5 93.2008 69.5C92.8008 69.6 92.5008 69.7 92.3008 70C92.1008 70.3 91.9008 70.5 91.8008 70.9L92.6008 75.6L91.5008 75.8L90.3008 69.2L91.4008 69Z" fill="white"/>
<path d="M97.1992 66.3C97.1992 66.1 97.1992 66 97.2992 65.8C97.3992 65.7 97.5992 65.6 97.7992 65.5C97.9992 65.5 98.1992 65.5 98.2992 65.6C98.3992 65.7 98.4992 65.9 98.4992 66C98.4992 66.2 98.4992 66.3 98.3992 66.5C98.2992 66.6 98.0992 66.7 97.8992 66.7C97.6992 66.7 97.4992 66.7 97.3992 66.6C97.2992 66.5 97.1992 66.5 97.1992 66.3ZM99.3992 74.6L98.2992 74.7L97.4992 68L98.5992 67.9L99.3992 74.6Z" fill="white"/>
<path d="M103.902 69.4001C103.902 69.0001 104.002 68.7001 104.202 68.5001C104.402 68.3001 104.702 68.1001 105.102 68.1001C105.502 68.1001 105.802 68.2001 106.002 68.4001C106.202 68.6001 106.402 68.9001 106.402 69.3001V69.5001C106.402 69.9001 106.302 70.2001 106.102 70.4001C105.902 70.6001 105.602 70.8001 105.202 70.8001C104.802 70.8001 104.502 70.7001 104.302 70.5001C104.102 70.3001 103.902 70.0001 103.902 69.6001V69.4001Z" fill="white"/>
<path d="M111.199 74.1L111.699 65L114.699 65.2C115.699 65.3 116.399 65.5 116.899 65.9C117.399 66.3 117.599 67 117.499 67.7C117.499 68.1 117.299 68.5 117.099 68.8C116.799 69.1 116.499 69.3 116.099 69.5C116.599 69.7 116.999 69.9 117.199 70.3C117.499 70.7 117.599 71.2 117.499 71.7C117.499 72.5 117.199 73.1 116.599 73.6C115.999 74 115.299 74.2 114.299 74.2L111.199 74.1ZM112.699 69.9L112.499 73.2L114.499 73.3C115.099 73.3 115.499 73.2 115.799 72.9C116.099 72.6 116.299 72.2 116.399 71.7C116.499 70.6 115.899 70 114.699 70L112.699 69.9ZM112.699 68.9L114.499 69C114.999 69 115.399 68.9 115.799 68.7C116.099 68.5 116.299 68.1 116.299 67.7C116.299 67.2 116.199 66.8 115.899 66.6C115.599 66.4 115.199 66.2 114.599 66.2L112.899 66L112.699 68.9Z" fill="white"/>
<path d="M118.802 71.0998C118.902 70.3998 119.102 69.8998 119.402 69.3998C119.702 68.8998 120.102 68.5998 120.602 68.2998C121.102 68.0998 121.602 67.9998 122.202 68.0998C123.102 68.1998 123.802 68.6998 124.302 69.3998C124.802 70.0998 124.902 70.9998 124.802 71.9998V72.0998C124.702 72.6998 124.502 73.2998 124.202 73.7998C123.902 74.2998 123.502 74.5998 123.002 74.8998C122.502 75.0998 121.902 75.1998 121.302 75.0998C120.402 74.9998 119.702 74.4998 119.202 73.7998C118.702 73.0998 118.702 72.1998 118.802 71.0998ZM119.902 71.3998C119.802 72.0998 119.902 72.7998 120.202 73.2998C120.502 73.7998 120.902 74.0998 121.502 74.1998C122.102 74.2998 122.602 74.0998 123.002 73.6998C123.402 73.2998 123.702 72.6998 123.802 71.8998C123.902 71.1998 123.802 70.5998 123.502 69.9998C123.202 69.4998 122.802 69.1998 122.202 69.0998C121.602 68.9998 121.202 69.1998 120.702 69.5998C120.302 69.9998 120.102 70.5998 119.902 71.3998Z" fill="white"/>
<path d="M126.799 75.8998L125.699 75.6998L127.599 66.2998L128.699 66.4998L126.799 75.8998Z" fill="white"/>
<path d="M128.901 72.7999C129.101 72.1999 129.301 71.5999 129.701 71.1999C130.101 70.7999 130.501 70.4999 131.101 70.2999C131.601 70.0999 132.201 70.0999 132.701 70.2999C133.601 70.4999 134.201 70.9999 134.601 71.7999C135.001 72.5999 135.001 73.4999 134.801 74.4999V74.5999C134.601 75.1999 134.401 75.7999 134.001 76.1999C133.601 76.5999 133.201 76.8999 132.601 77.0999C132.001 77.2999 131.501 77.2999 130.901 77.0999C130.001 76.8999 129.401 76.3999 129.001 75.5999C128.601 74.7999 128.601 73.8999 128.901 72.7999ZM130.001 73.2999C129.801 73.9999 129.801 74.5999 130.001 75.1999C130.201 75.6999 130.601 76.0999 131.201 76.1999C131.801 76.3999 132.301 76.1999 132.701 75.8999C133.201 75.4999 133.501 74.9999 133.701 74.1999C133.901 73.4999 133.901 72.8999 133.701 72.2999C133.501 71.7999 133.101 71.3999 132.501 71.2999C132.001 71.1999 131.401 71.2999 131.001 71.5999C130.501 71.8999 130.201 72.3999 130.001 73.2999Z" fill="white"/>
<path d="M139.299 79.6002L138.199 79.2002L141.399 70.7002L142.499 71.1002L139.299 79.6002Z" fill="white"/>
<path d="M144.601 74.5001L144.301 75.3001C145.001 74.9001 145.801 74.9001 146.501 75.2001C147.801 75.8001 148.101 76.8001 147.501 78.3001L145.701 82.4001L144.601 81.9001L146.401 77.8001C146.601 77.4001 146.601 77.0001 146.501 76.7001C146.401 76.4001 146.101 76.2001 145.701 76.0001C145.401 75.8001 145.001 75.8001 144.701 75.9001C144.401 76.0001 144.101 76.1001 143.801 76.4001L141.901 80.8001L140.801 80.3001L143.501 74.1001L144.601 74.5001Z" fill="white"/>
<path d="M148.402 79.8001C148.902 78.9001 149.502 78.3001 150.202 78.0001C150.902 77.7001 151.602 77.7001 152.302 78.1001C153.002 78.5001 153.402 79.0001 153.602 79.7001L155.302 76.6001L156.302 77.1001L151.702 85.5001L150.802 85.0001L151.102 84.3001C150.402 84.6001 149.702 84.5001 149.002 84.1001C148.302 83.7001 147.902 83.1001 147.802 82.3001C147.602 81.6001 147.802 80.8001 148.402 79.8001ZM149.302 80.5001C148.902 81.2001 148.802 81.8001 148.902 82.3001C149.002 82.8001 149.302 83.2001 149.702 83.5001C150.302 83.8001 151.002 83.8001 151.602 83.4001L153.102 80.7001C153.102 80.0001 152.802 79.4001 152.202 79.1001C151.702 78.8001 151.202 78.8001 150.702 79.0001C150.202 79.2001 149.702 79.7001 149.302 80.5001Z" fill="white"/>
<path d="M154.102 86.9998L153.102 86.3998L156.602 80.6998L157.602 81.2998L154.102 86.9998ZM157.502 79.0998C157.602 78.8998 157.702 78.7998 157.902 78.7998C158.102 78.7998 158.202 78.7998 158.402 78.8998C158.602 78.9998 158.702 79.1998 158.702 79.2998C158.702 79.4998 158.702 79.5998 158.602 79.7998C158.502 79.9998 158.402 80.0998 158.202 80.0998C158.002 80.0998 157.902 80.0998 157.702 79.9998C157.502 79.8998 157.402 79.6998 157.402 79.5998C157.402 79.4998 157.402 79.2998 157.502 79.0998Z" fill="white"/>
<path d="M158.802 90.2001C158.802 90.1001 158.902 89.8001 159.102 89.5001C158.302 89.6001 157.702 89.5001 157.002 89.1001C156.502 88.7001 156.102 88.3001 156.002 87.7001C155.902 87.1001 156.002 86.6001 156.302 86.2001C156.702 85.6001 157.202 85.3001 157.902 85.3001C158.602 85.3001 159.302 85.6001 160.102 86.1001L161.002 86.7001L161.302 86.3001C161.502 86.0001 161.602 85.6001 161.602 85.3001C161.502 85.0001 161.302 84.7001 160.902 84.4001C160.602 84.2001 160.202 84.1001 159.902 84.1001C159.602 84.1001 159.302 84.2001 159.102 84.5001L158.202 83.8001C158.402 83.5001 158.702 83.3001 159.102 83.2001C159.502 83.1001 159.902 83.1001 160.302 83.1001C160.702 83.1001 161.202 83.4001 161.602 83.6001C162.202 84.0001 162.602 84.6001 162.802 85.1001C162.902 85.7001 162.802 86.2001 162.402 86.8001L160.602 89.3001C160.202 89.8001 160.002 90.3001 159.902 90.6001L159.802 90.7001L158.802 90.2001ZM157.802 88.4001C158.102 88.6001 158.402 88.7001 158.802 88.8001C159.202 88.9001 159.502 88.8001 159.802 88.6001L160.602 87.5001L159.902 87.0001C158.702 86.2001 157.902 86.1001 157.502 86.8001C157.302 87.1001 157.202 87.4001 157.302 87.7001C157.302 87.9001 157.502 88.2001 157.802 88.4001Z" fill="white"/>
<path d="M18 181L26.7 178.6L27.5 181.5C27.8 182.4 27.8 183.2 27.5 183.8C27.2 184.4 26.7 184.8 26 185C25.6 185.1 25.2 185.1 24.8 185C24.4 184.9 24.1 184.6 23.8 184.3C23.8 184.8 23.7 185.3 23.4 185.6C23.1 185.9 22.7 186.2 22.2 186.4C21.4 186.6 20.7 186.5 20.1 186.2C19.5 185.8 19.1 185.2 18.8 184.2L18 181ZM22.4 181.1L19.3 182L19.8 183.9C19.9 184.4 20.2 184.8 20.6 185.1C21 185.3 21.4 185.4 21.9 185.2C23 184.9 23.3 184.2 23 183L22.4 181.1ZM23.3 180.8L23.8 182.5C23.9 183 24.2 183.4 24.5 183.6C24.8 183.8 25.2 183.9 25.7 183.8C26.2 183.7 26.5 183.4 26.6 183.1C26.7 182.8 26.7 182.3 26.6 181.7L26.1 180L23.3 180.8Z" fill="white"/>
<path d="M26.2008 187.9C27.0008 188.2 27.5008 188.7 27.8008 189.4C28.3008 190.7 27.8008 191.7 26.3008 192.3L22.1008 193.8L21.7008 192.7L25.9008 191.2C26.4008 191 26.7008 190.8 26.8008 190.5C26.9008 190.2 26.9008 189.9 26.8008 189.4C26.7008 189 26.5008 188.8 26.2008 188.6C25.9008 188.4 25.6008 188.3 25.2008 188.3L20.7008 190L20.3008 188.9L29.3008 185.6L29.7008 186.7L26.2008 187.9Z" fill="white"/>
<path d="M24.5997 199.5C24.6997 199.4 24.8996 199.2 25.1996 199.1C24.4996 198.8 23.8997 198.4 23.5997 197.7C23.2997 197.1 23.2996 196.5 23.3996 196C23.4996 195.5 23.8996 195.1 24.3996 194.8C24.9996 194.5 25.5996 194.5 26.1996 194.8C26.7996 195.1 27.2996 195.7 27.6996 196.6L28.1996 197.6L28.6996 197.4C29.0996 197.2 29.2996 197 29.3996 196.7C29.4996 196.4 29.4996 196 29.2996 195.6C29.0996 195.2 28.8997 195 28.5997 194.8C28.2997 194.6 27.9996 194.6 27.6996 194.7L27.1996 193.6C27.4996 193.5 27.8996 193.4 28.1996 193.5C28.4996 193.6 28.8996 193.8 29.2996 194.1C29.5996 194.4 29.8997 194.8 30.0997 195.2C30.3997 195.9 30.4996 196.5 30.2996 197.1C30.0996 197.7 29.6997 198.1 29.0997 198.4L26.2996 199.7C25.6996 200 25.2997 200.2 25.0997 200.5H24.9996L24.5997 199.5ZM24.5997 197.4C24.7997 197.7 24.9996 198 25.2996 198.2C25.5996 198.4 25.8996 198.5 26.2996 198.5L27.5997 197.9L27.1996 197.1C26.5996 195.8 25.8996 195.4 25.1996 195.7C24.8996 195.9 24.6997 196.1 24.5997 196.4C24.3997 196.8 24.4997 197.1 24.5997 197.4Z" fill="white"/>
<path d="M29.4992 204.9C29.7992 204.7 29.8992 204.5 29.9992 204.2C29.9992 203.9 29.9992 203.5 29.7992 202.9C29.5992 202.3 29.4992 201.9 29.4992 201.5C29.4992 201.1 29.4992 200.8 29.6992 200.5C29.8992 200.2 29.9992 200 30.2992 199.9C30.7992 199.6 31.2992 199.6 31.8992 199.8C32.4992 200 32.8992 200.4 33.2992 201.1C33.6992 201.8 33.7992 202.4 33.6992 203C33.5992 203.6 33.2992 204.1 32.6992 204.4L32.0992 203.4C32.3992 203.2 32.4992 203 32.5992 202.7C32.6992 202.4 32.5992 202 32.3992 201.6C32.1992 201.2 31.9992 201 31.6992 200.9C31.3992 200.8 31.1992 200.8 30.8992 200.9C30.6992 201 30.4992 201.2 30.4992 201.5C30.4992 201.8 30.5992 202.2 30.6992 202.7C30.8992 203.3 30.9992 203.7 30.9992 204.1C30.9992 204.5 30.9992 204.8 30.7992 205.1C30.6992 205.4 30.3992 205.6 30.0992 205.8C29.5992 206.1 28.9992 206.1 28.4992 205.9C27.8992 205.7 27.4992 205.2 27.0992 204.5C26.7992 204 26.6992 203.6 26.6992 203.1C26.6992 202.6 26.6992 202.2 26.8992 201.9C27.0992 201.5 27.3992 201.2 27.6992 201L28.2992 202C27.9992 202.2 27.7992 202.5 27.6992 202.9C27.5992 203.3 27.6992 203.7 27.9992 204.1C28.1992 204.5 28.4992 204.7 28.6992 204.9C28.9992 205 29.1992 205 29.4992 204.9Z" fill="white"/>
<path d="M35 206C35.8 206.1 36.4 206.5 36.9 207.1C37.7 208.3 37.4 209.3 36.1 210.2L32.4 212.7L31.8 211.7L35.5 209.2C35.9 208.9 36.1 208.6 36.2 208.3C36.3 208 36.2 207.6 35.9 207.3C35.7 207 35.4 206.8 35.1 206.6C34.8 206.4 34.4 206.4 34.1 206.5L30.1 209.2L29.5 208.2L37.5 202.9L38.1 203.9L35 206Z" fill="white"/>
<path d="M36.2008 217.7C36.3008 217.6 36.4008 217.4 36.7008 217.1C35.9008 217 35.3008 216.7 34.9008 216.1C34.5008 215.6 34.3008 215 34.3008 214.5C34.3008 213.9 34.6008 213.5 35.0008 213.1C35.6008 212.7 36.1008 212.5 36.8008 212.7C37.5008 212.9 38.0008 213.4 38.6008 214.1L39.3008 215L39.7008 214.7C40.0008 214.5 40.2008 214.2 40.2008 213.8C40.2008 213.5 40.1008 213.1 39.8008 212.7C39.5008 212.4 39.3008 212.2 38.9008 212.1C38.5008 212 38.3008 212.1 38.0008 212.2L37.3008 211.3C37.6008 211.1 37.9008 211 38.3008 211C38.7008 211 39.1008 211.1 39.5008 211.3C39.9008 211.5 40.2008 211.8 40.5008 212.2C41.0008 212.8 41.2008 213.4 41.2008 214C41.2008 214.6 40.9008 215.1 40.4008 215.5L38.0008 217.4C37.5008 217.8 37.2008 218.1 37.0008 218.5L36.9008 218.6L36.2008 217.7ZM35.7008 215.7C35.9008 216 36.2008 216.2 36.6008 216.3C36.9008 216.4 37.3008 216.5 37.6008 216.4L38.7008 215.5L38.1008 214.8C37.2008 213.7 36.5008 213.4 35.8008 213.9C35.5008 214.1 35.4008 214.4 35.4008 214.7C35.4008 215.1 35.5008 215.4 35.7008 215.7Z" fill="white"/>
<path d="M45.2986 221.8C44.7986 220.9 44.4986 220.1 44.4986 219.4C44.4986 218.8 44.6986 218.2 45.0986 217.8C45.5986 217.3 46.1986 217.1 46.9986 217.2C47.7986 217.3 48.3986 217.6 49.0986 218.3C49.4986 218.7 49.7986 219.2 49.9986 219.7C50.1986 220.2 50.1986 220.7 50.0986 221.2C49.9986 221.7 49.7986 222.1 49.3986 222.5L48.5986 221.6C48.9986 221.2 49.1986 220.8 49.1986 220.3C49.1986 219.8 48.8986 219.4 48.4986 218.9C48.0986 218.5 47.6986 218.2 47.2986 218.2C46.8986 218.1 46.4986 218.3 46.1986 218.6C45.8986 218.9 45.7986 219.2 45.8986 219.6C45.8986 220 46.0986 220.5 46.4986 221.2C46.8986 221.9 47.0986 222.5 47.1986 223C47.2986 223.5 47.2986 223.9 47.1986 224.3C47.0986 224.7 46.8986 225 46.5986 225.4C46.0986 225.9 45.4986 226.1 44.6986 226C43.9986 225.9 43.2986 225.5 42.5986 224.8C42.1986 224.4 41.7986 223.9 41.5986 223.3C41.3986 222.7 41.2986 222.2 41.3986 221.7C41.4986 221.2 41.6986 220.8 42.0986 220.4L42.8986 221.3C42.4986 221.7 42.2986 222.1 42.3986 222.6C42.4986 223.1 42.6986 223.6 43.1986 224.1C43.5986 224.5 44.0986 224.8 44.4986 224.9C44.8986 225 45.2986 224.8 45.5986 224.5C45.8986 224.2 46.0986 223.8 45.9986 223.4C45.8986 223.1 45.6986 222.6 45.2986 221.8Z" fill="white"/>
<path d="M49.2002 230.9C49.2002 230.8 49.3002 230.5 49.5002 230.3C48.7002 230.4 48.1002 230.2 47.5002 229.7C47.0002 229.3 46.7002 228.8 46.6002 228.2C46.5002 227.6 46.7002 227.1 47.0002 226.7C47.5002 226.2 48.0002 225.9 48.7002 226C49.4002 226.1 50.1002 226.4 50.8002 227L51.7002 227.7L52.0002 227.3C52.3002 227 52.4002 226.7 52.4002 226.3C52.4002 226 52.2002 225.6 51.8002 225.3C51.5002 225 51.2002 224.9 50.8002 224.9C50.4002 224.9 50.2002 225 50.0002 225.2L49.1002 224.4C49.3002 224.1 49.6002 224 50.0002 223.9C50.4002 223.8 50.8002 223.8 51.2002 224C51.6002 224.1 52.0002 224.4 52.4002 224.7C53.0002 225.2 53.3002 225.7 53.4002 226.3C53.5002 226.9 53.3002 227.4 52.9002 228L50.9002 230.4C50.5002 230.9 50.2002 231.3 50.1002 231.7L50.0002 231.8L49.2002 230.9ZM48.3002 229C48.6002 229.2 48.9002 229.4 49.3002 229.5C49.7002 229.6 50.0002 229.5 50.3002 229.4L51.2002 228.4L50.5002 227.8C49.4002 226.9 48.6002 226.7 48.1002 227.4C47.9002 227.7 47.8002 228 47.8002 228.3C47.9002 228.5 48.0002 228.8 48.3002 229Z" fill="white"/>
<path d="M56.3992 228.1L55.9992 228.7C56.6992 228.5 57.4992 228.6 58.0992 229.1C58.8992 229.6 59.1992 230.3 59.0992 231.1C59.4992 231 59.8992 230.9 60.2992 231C60.6992 231 61.0992 231.2 61.4992 231.5C62.6992 232.3 62.8992 233.4 61.9992 234.7L59.3992 238.4L58.4992 237.7L60.9992 234.1C61.2992 233.7 61.3992 233.3 61.2992 233C61.2992 232.7 60.9992 232.4 60.5992 232.1C60.1992 231.9 59.8992 231.8 59.4992 231.8C59.0992 231.8 58.7992 232 58.4992 232.4L55.8992 236.1L54.8992 235.4L57.3992 231.8C57.9992 231 57.7992 230.3 57.0992 229.8C56.4992 229.4 55.8992 229.3 55.2992 229.7L52.4992 233.7L51.6992 233L55.5992 227.5L56.3992 228.1Z" fill="white"/>
<path d="M64.9981 241.5C64.9981 241.4 65.0981 241.1 65.1981 240.8C64.4981 241 63.7981 241 63.0981 240.6C62.4981 240.3 62.0981 239.8 61.8981 239.3C61.6981 238.8 61.7981 238.2 61.9981 237.7C62.2981 237.1 62.7981 236.7 63.4981 236.7C64.1981 236.6 64.8981 236.8 65.7981 237.3L66.7981 237.8L67.0981 237.3C67.2981 236.9 67.2981 236.6 67.2981 236.3C67.1981 236 66.9981 235.7 66.4981 235.5C66.0981 235.3 65.7981 235.2 65.3981 235.3C65.0981 235.3 64.7981 235.5 64.6981 235.8L63.6981 235.2C63.8981 234.9 64.0981 234.7 64.4981 234.5C64.8981 234.3 65.2981 234.3 65.6981 234.3C66.0981 234.3 66.5981 234.5 66.9981 234.7C67.6981 235.1 68.0981 235.5 68.2981 236.1C68.4981 236.7 68.3981 237.2 68.0981 237.8L66.5981 240.5C66.2981 241 66.0981 241.5 66.0981 241.9V242L64.9981 241.5ZM63.6981 239.8C63.9981 240 64.3981 240.1 64.6981 240.1C64.9981 240.1 65.3981 240 65.6981 239.8L66.3981 238.6L65.5981 238.2C64.3981 237.5 63.4981 237.5 63.0981 238.3C62.8981 238.6 62.8981 238.9 62.9981 239.2C63.1981 239.4 63.3981 239.6 63.6981 239.8Z" fill="white"/>
<path d="M73.0992 239.1C72.9992 239 72.7992 238.9 72.5992 238.8C71.8992 238.5 71.2992 238.5 70.7992 239L68.6992 243.3L67.6992 242.8L70.5992 236.7L71.5992 237.2L71.2992 237.9C71.8992 237.5 72.4992 237.5 73.0992 237.8C73.2992 237.9 73.3992 238 73.4992 238.1L73.0992 239.1Z" fill="white"/>
<path d="M76.7993 237.8L76.1993 239.3L77.3993 239.8L77.0993 240.6L75.8993 240.1L74.2993 244C74.1993 244.2 74.1993 244.5 74.1993 244.6C74.2993 244.8 74.3993 244.9 74.6993 245C74.7993 245.1 74.9993 245.1 75.1993 245.1L74.7993 246C74.4993 246 74.1993 245.9 73.8993 245.8C73.3993 245.6 73.0993 245.3 72.9993 244.9C72.8993 244.5 72.8993 244.1 73.0993 243.5L74.6993 239.6L73.5993 239.1L73.8993 238.3L74.9993 238.8L75.5993 237.3L76.7993 237.8Z" fill="white"/>
<path d="M79.2992 241.4C79.9992 241 80.6992 240.9 81.4992 241.2C82.7992 241.7 83.2992 242.7 82.7992 244.2L81.3992 248.4L80.2992 248L81.6992 243.8C81.8992 243.3 81.8992 243 81.6992 242.7C81.5992 242.4 81.2992 242.2 80.7992 242C80.3992 241.9 80.0992 241.9 79.7992 242C79.4992 242.1 79.1992 242.3 78.8992 242.5L77.2992 247L76.1992 246.6L79.2992 237.5L80.3992 237.9L79.2992 241.4Z" fill="white"/>
<path d="M87.2984 250C87.2984 249.9 87.2984 249.6 87.2984 249.3C86.5984 249.7 85.9985 249.8 85.1985 249.6C84.5985 249.4 84.0984 249.1 83.7984 248.6C83.4984 248.1 83.3984 247.6 83.4984 247.1C83.6984 246.4 84.0985 246 84.6985 245.7C85.2985 245.5 86.0984 245.5 86.9984 245.7L88.0985 246L88.1985 245.5C88.2985 245.1 88.2985 244.8 88.0985 244.5C87.8985 244.2 87.5985 244 87.1985 243.9C86.7985 243.8 86.3985 243.8 86.0985 243.9C85.7985 244 85.5984 244.2 85.4984 244.5L84.3985 244.2C84.4985 243.9 84.6984 243.6 84.9984 243.3C85.2984 243.1 85.6985 242.9 86.0985 242.8C86.4985 242.7 86.9984 242.7 87.4984 242.9C88.2984 243.1 88.7985 243.4 89.0985 243.9C89.3985 244.4 89.4985 245 89.3985 245.6L88.5985 248.6C88.3985 249.2 88.3984 249.7 88.4984 250.1V250.2L87.2984 250ZM85.5985 248.6C85.8985 248.7 86.2985 248.7 86.6985 248.6C87.0985 248.5 87.2985 248.3 87.5985 248.1L87.8985 246.8L86.9984 246.6C85.5984 246.3 84.7985 246.5 84.5985 247.3C84.4985 247.6 84.5985 248 84.6985 248.2C84.7985 248.4 85.2985 248.5 85.5985 248.6Z" fill="white"/>
<path d="M92.6984 247.9L91.8984 248.5L91.4984 250.8L90.3984 250.6L92.0984 241.2L93.1984 241.4L92.1984 247.1L92.8984 246.5L95.3984 244.7L96.7984 244.9L93.6984 247.2L95.8984 251.6L94.5984 251.4L92.6984 247.9Z" fill="white"/>
<path d="M100.6 247.3C100.6 246.9 100.8 246.7 101 246.4C101.2 246.2 101.6 246.1 101.9 246.1C102.3 246.1 102.6 246.3 102.8 246.5C103 246.7 103.1 247.1 103.1 247.4V247.6C103.1 248 102.9 248.2 102.7 248.5C102.5 248.7 102.1 248.8 101.7 248.8C101.3 248.8 101 248.6 100.8 248.4C100.6 248.2 100.5 247.8 100.5 247.5L100.6 247.3Z" fill="white"/>
<path d="M109.499 249L109.599 252.5H108.399L108.199 243.4L111.499 243.3C112.499 243.3 113.299 243.5 113.799 244C114.299 244.5 114.699 245.2 114.699 246C114.699 246.9 114.499 247.6 113.899 248.1C113.299 248.6 112.599 248.8 111.599 248.9L109.499 249ZM109.499 248L111.599 247.9C112.199 247.9 112.699 247.7 113.099 247.4C113.499 247.1 113.599 246.6 113.599 246.1C113.599 245.6 113.399 245.1 113.099 244.8C112.799 244.5 112.299 244.3 111.699 244.3L109.499 244.4V248Z" fill="white"/>
<path d="M117.798 252.1L116.698 252.2L115.898 242.7L116.998 242.6L117.798 252.1Z" fill="white"/>
<path d="M124.002 251.3C123.902 251.2 123.802 251 123.702 250.6C123.202 251.2 122.702 251.6 121.902 251.7C121.202 251.8 120.702 251.7 120.202 251.4C119.702 251.1 119.402 250.6 119.402 250.1C119.302 249.4 119.502 248.8 120.002 248.4C120.502 247.9 121.202 247.6 122.102 247.5L123.202 247.3L123.102 246.8C123.002 246.4 122.902 246.1 122.602 245.9C122.302 245.7 122.002 245.6 121.502 245.7C121.102 245.8 120.802 245.9 120.502 246.2C120.302 246.4 120.202 246.7 120.202 247L119.102 247.2C119.102 246.9 119.102 246.5 119.302 246.2C119.502 245.9 119.802 245.6 120.202 245.3C120.602 245.1 121.002 244.9 121.502 244.8C122.302 244.7 122.902 244.8 123.402 245.1C123.902 245.4 124.202 245.9 124.302 246.6L124.702 249.7C124.802 250.3 124.902 250.8 125.102 251.1V251.2L124.002 251.3ZM121.902 250.7C122.302 250.6 122.602 250.5 122.902 250.3C123.202 250.1 123.402 249.8 123.502 249.5L123.302 248.1L122.402 248.2C121.002 248.4 120.402 248.9 120.502 249.7C120.602 250.1 120.702 250.3 121.002 250.5C121.202 250.7 121.602 250.8 121.902 250.7Z" fill="white"/>
<path d="M126.801 242.3L127.101 243.9L128.301 243.6L128.501 244.5L127.301 244.8L128.101 248.9C128.201 249.2 128.301 249.4 128.401 249.5C128.501 249.6 128.701 249.6 129.001 249.6C129.101 249.6 129.301 249.5 129.501 249.4L129.701 250.3C129.401 250.4 129.101 250.5 128.901 250.6C128.401 250.7 128.001 250.6 127.701 250.4C127.401 250.2 127.201 249.7 127.001 249.2L126.201 245.1L125.001 245.3L124.801 244.4L126.001 244.2L125.701 242.6L126.801 242.3Z" fill="white"/>
<path d="M129.199 241.6C129.199 241.4 129.199 241.3 129.299 241.1C129.399 240.9 129.499 240.8 129.699 240.8C129.899 240.7 130.099 240.8 130.199 240.9C130.299 241 130.399 241.1 130.499 241.3C130.499 241.5 130.499 241.6 130.399 241.8C130.299 241.9 130.199 242.1 129.899 242.1C129.699 242.2 129.499 242.1 129.399 242C129.299 241.9 129.199 241.8 129.199 241.6ZM132.499 249.6L131.399 249.9L129.799 243.4L130.899 243.1L132.499 249.6Z" fill="white"/>
<path d="M133.498 242.4L133.798 243.1C134.098 242.4 134.598 241.9 135.398 241.6C136.298 241.3 136.998 241.4 137.598 242C137.698 241.6 137.898 241.3 138.198 241C138.498 240.7 138.798 240.5 139.298 240.3C140.698 239.8 141.698 240.3 142.198 241.8L143.598 246.1L142.498 246.5L141.098 242.3C140.898 241.8 140.698 241.5 140.398 241.4C140.098 241.2 139.698 241.2 139.198 241.4C138.798 241.5 138.498 241.8 138.298 242.1C138.098 242.4 138.098 242.8 138.198 243.2L139.598 247.4L138.498 247.8L137.098 243.6C136.798 242.7 136.198 242.4 135.298 242.7C134.598 242.9 134.198 243.4 134.098 244.1L135.698 248.8L134.598 249.2L132.398 242.8L133.498 242.4Z" fill="white"/>
<path d="M149.099 242.8C148.899 243.5 148.399 244 147.599 244.3C146.899 244.6 146.399 244.6 145.799 244.4C145.299 244.2 144.899 243.7 144.499 243L142.699 239L143.699 238.5L145.499 242.5C145.899 243.4 146.499 243.7 147.299 243.4C148.099 243 148.499 242.5 148.499 241.8L146.499 237.3L147.499 236.8L150.299 242.9L149.299 243.4L149.099 242.8Z" fill="white"/>
<path d="M149.902 235.7L150.302 236.3C150.402 235.5 150.902 235 151.602 234.5C152.402 234 153.102 234 153.802 234.5C153.802 234.1 153.902 233.7 154.202 233.4C154.402 233 154.702 232.7 155.102 232.5C156.402 231.8 157.402 232 158.202 233.4L160.502 237.3L159.502 237.9L157.202 234.1C157.002 233.7 156.702 233.4 156.402 233.3C156.102 233.2 155.702 233.3 155.302 233.6C154.902 233.8 154.702 234.1 154.602 234.5C154.502 234.9 154.502 235.2 154.702 235.6L157.002 239.5L156.002 240.1L153.802 236.3C153.302 235.5 152.602 235.3 151.802 235.8C151.102 236.2 150.902 236.7 151.002 237.4L153.502 241.6L152.502 242.2L149.102 236.4L149.902 235.7Z" fill="white"/>
<path d="M168.598 227.5C169.098 228.3 169.298 229.1 169.198 229.9C169.098 230.7 168.598 231.4 167.798 232C166.998 232.7 166.098 232.9 165.098 232.7C164.098 232.5 163.198 231.9 162.398 230.9L161.898 230.2C161.398 229.5 160.998 228.9 160.898 228.2C160.698 227.5 160.798 226.9 160.998 226.3C161.198 225.7 161.598 225.2 162.198 224.7C162.998 224.1 163.698 223.8 164.498 223.9C165.298 224 165.998 224.3 166.698 225L165.798 225.8C165.298 225.3 164.798 225 164.298 225C163.798 225 163.298 225.1 162.898 225.5C162.298 226 161.998 226.6 161.998 227.3C161.998 228 162.298 228.8 162.998 229.6L163.498 230.3C164.098 231.1 164.798 231.6 165.498 231.7C166.198 231.8 166.798 231.8 167.398 231.3C167.898 230.9 168.198 230.4 168.298 230C168.398 229.5 168.198 229 167.898 228.3L168.598 227.5Z" fill="white"/>
<path d="M169.199 226.2C168.699 225.7 168.398 225.2 168.298 224.6C168.098 224 168.099 223.5 168.199 223C168.299 222.5 168.599 222 169.099 221.6C169.799 221 170.499 220.7 171.399 220.8C172.299 220.9 172.998 221.3 173.798 222L173.899 222.1C174.399 222.6 174.698 223.1 174.798 223.6C174.998 224.2 174.999 224.7 174.899 225.2C174.799 225.7 174.498 226.2 173.998 226.6C173.298 227.2 172.599 227.5 171.699 227.4C170.799 227.3 169.999 227 169.199 226.2ZM170.099 225.5C170.599 226 171.199 226.4 171.699 226.4C172.299 226.5 172.799 226.3 173.199 225.9C173.599 225.5 173.799 225 173.699 224.4C173.599 223.8 173.299 223.2 172.699 222.6C172.199 222.1 171.599 221.8 171.099 221.7C170.499 221.6 169.999 221.8 169.599 222.2C169.199 222.6 168.999 223.1 169.099 223.6C169.199 224.3 169.599 224.9 170.099 225.5Z" fill="white"/>
<path d="M173.001 217.9L173.701 218.4C173.601 217.6 173.801 216.9 174.301 216.2C175.201 215.1 176.301 215.1 177.501 216.2L180.801 219.2L180.001 220.1L176.701 217.1C176.301 216.8 176.001 216.6 175.701 216.6C175.401 216.6 175.101 216.8 174.801 217.1C174.601 217.4 174.401 217.7 174.401 218C174.401 218.3 174.401 218.7 174.501 219L178.101 222.2L177.301 223.1L172.301 218.6L173.001 217.9Z" fill="white"/>
<path d="M176.402 211.2L177.702 212.2L178.502 211.2L179.202 211.8L178.402 212.8L181.702 215.4C181.902 215.6 182.102 215.6 182.302 215.6C182.502 215.6 182.602 215.5 182.802 215.3C182.902 215.2 183.002 215 183.102 214.8L183.802 215.4C183.702 215.7 183.502 215.9 183.302 216.2C183.002 216.6 182.602 216.8 182.202 216.8C181.802 216.8 181.402 216.6 180.902 216.3L177.602 213.7L176.802 214.7L176.102 214.1L176.902 213.1L175.602 212.1L176.402 211.2Z" fill="white"/>
<path d="M181.999 208.2C181.899 208.3 181.799 208.5 181.599 208.6C181.199 209.2 181.099 209.8 181.499 210.4L185.399 213.2L184.699 214.1L179.199 210.2L179.899 209.3L180.499 209.7C180.199 209 180.299 208.4 180.699 207.9C180.799 207.7 180.999 207.6 181.099 207.5L181.999 208.2Z" fill="white"/>
<path d="M180.198 205.8C179.998 205.7 179.898 205.6 179.898 205.4C179.898 205.2 179.898 205.1 179.998 204.9C180.098 204.7 180.298 204.6 180.398 204.6C180.598 204.6 180.698 204.6 180.898 204.7C181.098 204.8 181.198 204.9 181.198 205.1C181.198 205.3 181.198 205.4 181.098 205.6C180.998 205.8 180.798 205.9 180.698 205.9C180.498 206 180.298 205.9 180.198 205.8ZM187.998 209.4L187.398 210.4L181.798 206.7L182.398 205.7L187.998 209.4Z" fill="white"/>
<path d="M189.101 201.1C190.001 201.6 190.601 202.2 190.901 203C191.201 203.8 191.201 204.4 190.801 205.1C190.401 205.8 189.801 206.3 189.001 206.4L189.601 206.8L189.101 207.7L180.801 202.9L181.401 201.9L184.501 203.7C184.201 203 184.301 202.3 184.701 201.6C185.101 200.9 185.701 200.5 186.501 200.4C187.201 200.3 188.101 200.5 189.101 201.1ZM188.401 202C187.701 201.6 187.101 201.4 186.601 201.5C186.101 201.5 185.701 201.8 185.401 202.3C185.001 203 185.101 203.6 185.501 204.2L188.001 205.6C188.801 205.6 189.401 205.3 189.701 204.7C190.001 204.2 190.001 203.7 189.801 203.3C189.701 202.9 189.201 202.4 188.401 202Z" fill="white"/>
<path d="M193.999 197C194.299 197.6 194.199 198.3 193.899 199.1C193.599 199.7 193.199 200.2 192.599 200.3C192.099 200.5 191.399 200.4 190.699 200L186.699 198.1L187.199 197.1L191.099 199C191.999 199.4 192.699 199.3 192.999 198.5C193.399 197.7 193.299 197 192.899 196.5L188.499 194.4L188.999 193.4L195.099 196.3L194.599 197.3L193.999 197Z" fill="white"/>
<path d="M188.602 189.9L190.102 190.5L190.602 189.3L191.402 189.6L190.902 190.8L194.802 192.3C195.102 192.4 195.302 192.4 195.402 192.4C195.602 192.3 195.702 192.2 195.802 191.9C195.802 191.8 195.902 191.6 195.902 191.4L196.802 191.7C196.802 192 196.702 192.3 196.602 192.6C196.402 193.1 196.102 193.4 195.702 193.5C195.302 193.6 194.902 193.6 194.302 193.4L190.402 191.9L189.902 193L189.102 192.7L189.602 191.6L188.102 191L188.602 189.9Z" fill="white"/>
<path d="M194.001 189.6C193.401 189.4 192.801 189.1 192.401 188.7C192.001 188.3 191.701 187.8 191.601 187.3C191.501 186.8 191.501 186.2 191.701 185.7C192.001 184.8 192.501 184.2 193.301 183.9C194.101 183.6 195.001 183.5 196.001 183.9H196.101C196.701 184.1 197.201 184.4 197.701 184.8C198.101 185.2 198.401 185.7 198.501 186.2C198.601 186.7 198.601 187.3 198.401 187.9C198.101 188.8 197.601 189.4 196.801 189.7C196.001 190 195.101 190 194.001 189.6ZM194.501 188.6C195.201 188.8 195.801 188.9 196.401 188.7C196.901 188.5 197.301 188.1 197.501 187.6C197.701 187 197.601 186.5 197.301 186.1C197.001 185.6 196.401 185.3 195.601 185C194.901 184.8 194.301 184.8 193.701 184.9C193.201 185.1 192.801 185.5 192.601 186C192.401 186.5 192.501 187 192.801 187.5C193.201 187.9 193.701 188.3 194.501 188.6Z" fill="white"/>
<path d="M194.902 178.6C194.802 178.8 194.802 178.9 194.702 179.1C194.502 179.8 194.702 180.4 195.302 180.8L199.902 182L199.602 183.1L193.102 181.4L193.402 180.3L194.202 180.5C193.702 180 193.502 179.4 193.702 178.7C193.802 178.5 193.802 178.3 193.902 178.2L194.902 178.6Z" fill="white"/>
<defs>
<filter id="filter0_ii" x="0" y="50" width="218" height="218" filterUnits="userSpaceOnUse" color-interpolation-filters="sRGB">
<feFlood flood-opacity="0" result="BackgroundImageFix"/>
<feBlend mode="normal" in="SourceGraphic" in2="BackgroundImageFix" result="shape"/>
<feColorMatrix in="SourceAlpha" type="matrix" values="0 0 0 0 0 0 0 0 0 0 0 0 0 0 0 0 0 0 127 0" result="hardAlpha"/>
<feOffset/>
<feGaussianBlur stdDeviation="4"/>
<feComposite in2="hardAlpha" operator="arithmetic" k2="-1" k3="1"/>
<feColorMatrix type="matrix" values="0 0 0 0 0.9875 0 0 0 0 0.722843 0 0 0 0 0.386771 0 0 0 1 0"/>
<feBlend mode="normal" in2="shape" result="effect1_innerShadow"/>
<feColorMatrix in="SourceAlpha" type="matrix" values="0 0 0 0 0 0 0 0 0 0 0 0 0 0 0 0 0 0 127 0" result="hardAlpha"/>
<feOffset/>
<feGaussianBlur stdDeviation="6"/>
<feComposite in2="hardAlpha" operator="arithmetic" k2="-1" k3="1"/>
<feColorMatrix type="matrix" values="0 0 0 0 0 0 0 0 0 0 0 0 0 0 0 0 0 0 0.2 0"/>
<feBlend mode="normal" in2="effect1_innerShadow" result="effect2_innerShadow"/>
</filter>
<filter id="filter1_i" x="59" y="109" width="100" height="100" filterUnits="userSpaceOnUse" color-interpolation-filters="sRGB">
<feFlood flood-opacity="0" result="BackgroundImageFix"/>
<feBlend mode="normal" in="SourceGraphic" in2="BackgroundImageFix" result="shape"/>
<feColorMatrix in="SourceAlpha" type="matrix" values="0 0 0 0 0 0 0 0 0 0 0 0 0 0 0 0 0 0 127 0" result="hardAlpha"/>
<feOffset/>
<feGaussianBlur stdDeviation="6"/>
<feComposite in2="hardAlpha" operator="arithmetic" k2="-1" k3="1"/>
<feColorMatrix type="matrix" values="0 0 0 0 0 0 0 0 0 0 0 0 0 0 0 0 0 0 0.4 0"/>
<feBlend mode="normal" in2="shape" result="effect1_innerShadow"/>
</filter>
<linearGradient id="paint0_linear" x1="51.775" y1="57.4938" x2="322.848" y2="328.729" gradientUnits="userSpaceOnUse">
<stop stop-color="#F2F2F2"/>
<stop offset="1" stop-color="#3D485C"/>
</linearGradient>
<linearGradient id="paint1_linear" x1="-158.31" y1="-176.824" x2="234.09" y2="291.357" gradientUnits="userSpaceOnUse">
<stop stop-color="white"/>
<stop offset="1" stop-color="white" stop-opacity="0"/>
</linearGradient>
<linearGradient id="paint2_linear" x1="174.52" y1="213.6" x2="38.8" y2="107.52" gradientUnits="userSpaceOnUse">
<stop stop-color="white"/>
<stop offset="1" stop-color="#203A41" stop-opacity="0.4"/>
</linearGradient>
<linearGradient id="paint3_linear" x1="194.68" y1="230.4" x2="17.2" y2="91.68" gradientUnits="userSpaceOnUse">
<stop stop-color="white"/>
<stop offset="1" stop-color="#203A41" stop-opacity="0.24"/>
</linearGradient>
</defs>
</svg>
