<svg width="160" height="188" viewBox="0 0 160 188" fill="none" xmlns="http://www.w3.org/2000/svg">
<g filter="url(#filter0_d)">
<path d="M65.7044 26.6865C64.9962 26.6865 64.4297 27.2325 64.4297 27.915V39.3807C64.4297 40.0631 64.9962 40.6091 65.7044 40.6091H94.882C95.5902 40.6091 96.1568 40.0631 96.1568 39.3807V27.915C96.1568 27.2325 95.5902 26.6865 94.882 26.6865H65.7044ZM93.6073 35.6953C93.6073 36.3777 93.0407 36.9237 92.3325 36.9237H68.3956C67.6874 36.9237 67.1208 36.3777 67.1208 35.6953V30.5084C67.1208 29.8259 67.6874 29.2799 68.3956 29.2799H92.3325C93.0407 29.2799 93.6073 29.8259 93.6073 30.5084V35.6953Z" fill="#D1D4D8"/>
<path d="M100.458 8L84.3008 31.7527H92.308L110.324 8H100.458Z" fill="#0FA711"/>
<path d="M92.3073 8L76.293 31.7527H84.3001L100.457 8H92.3073Z" fill="white"/>
<path d="M84.3034 8L68.2891 31.7527H76.2962L92.3106 8H84.3034Z" fill="#FF7600"/>
<path d="M68.2857 31.7527H76.2928L60.1355 8H50.2695L68.2857 31.7527Z" fill="#FF7600"/>
<path d="M76.2901 31.7527H84.2973L68.283 8H60.1328L76.2901 31.7527Z" fill="white"/>
<path opacity="0.5" d="M81.5817 11.9385L77.5781 17.8415L87.0152 31.7558H92.3056L93.7355 29.7882L81.5817 11.9385Z" fill="#3E4347"/>
<path d="M84.3034 31.7527H92.3106L76.2962 8H68.2891L84.3034 31.7527Z" fill="#0FA711"/>
<g filter="url(#filter1_ii)">
<path d="M147.003 104.73C147.003 141.819 116.936 171.886 79.8473 171.886C42.7581 171.886 12.6914 141.819 12.6914 104.73C12.6914 67.6409 42.7581 37.5742 79.8473 37.5742C116.936 37.5742 147.003 67.6409 147.003 104.73Z" fill="#34373C" fill-opacity="0.4"/>
</g>
<path d="M143.503 104.73C143.503 139.886 115.003 168.386 79.8473 168.386C44.6911 168.386 16.1914 139.886 16.1914 104.73C16.1914 69.5739 44.6911 41.0742 79.8473 41.0742C115.003 41.0742 143.503 69.5739 143.503 104.73Z" stroke="#DFDFDF" stroke-width="7"/>
<path d="M143.503 104.73C143.503 139.886 115.003 168.386 79.8473 168.386C44.6911 168.386 16.1914 139.886 16.1914 104.73C16.1914 69.5739 44.6911 41.0742 79.8473 41.0742C115.003 41.0742 143.503 69.5739 143.503 104.73Z" stroke="url(#paint0_linear)" stroke-width="7"/>
<path d="M143.503 104.73C143.503 139.886 115.003 168.386 79.8473 168.386C44.6911 168.386 16.1914 139.886 16.1914 104.73C16.1914 69.5739 44.6911 41.0742 79.8473 41.0742C115.003 41.0742 143.503 69.5739 143.503 104.73Z" stroke="url(#paint1_linear)" stroke-width="7"/>
<path d="M133.449 104.73C133.449 134.334 109.451 158.332 79.8476 158.332C50.2443 158.332 26.2461 134.334 26.2461 104.73C26.2461 75.1271 50.2443 51.1289 79.8476 51.1289C109.451 51.1289 133.449 75.1271 133.449 104.73Z" fill="#5C686B"/>
<path fill-rule="evenodd" clip-rule="evenodd" d="M79.847 60.371C55.3478 60.371 35.4872 80.2316 35.4872 104.731C35.4872 129.23 55.3478 149.091 79.847 149.091C104.346 149.091 124.207 129.23 124.207 104.731C124.207 80.2316 104.346 60.371 79.847 60.371ZM17.0039 104.731C17.0039 70.0235 45.1397 41.8877 79.847 41.8877C114.554 41.8877 142.69 70.0235 142.69 104.731C142.69 139.438 114.554 167.574 79.847 167.574C45.1397 167.574 17.0039 139.438 17.0039 104.731Z" fill="#6F7A7D"/>
<path d="M79.8433 57.2891C53.6948 57.2891 32.4023 78.457 32.4023 104.73C32.4023 131.003 53.5702 152.171 79.8433 152.171C106.116 152.171 127.284 131.003 127.284 104.73C127.284 78.457 105.992 57.2891 79.8433 57.2891ZM70.38 61.8962C70.5046 61.8962 70.5046 61.8962 70.38 61.8962C71.2517 63.764 72.8704 64.8846 74.4891 64.5111C76.1078 64.262 77.7266 63.1414 77.8511 60.9001C78.1001 60.9001 78.3491 60.9001 78.5982 60.9001C78.5982 67.624 78.1001 74.846 77.353 82.6905C77.2285 83.4376 77.2285 84.1847 77.2285 84.9319C76.9795 84.3093 76.7304 83.5622 76.4814 82.6905C73.8665 76.0911 71.5007 68.9937 69.6329 62.0207C70.0065 62.0207 70.131 61.8962 70.38 61.8962ZM59.5471 65.7562C60.9168 67.3749 62.66 67.9975 64.1542 67.2504C65.8974 66.5033 66.8936 64.7601 66.52 62.8923C66.7691 62.7678 67.0181 62.7678 67.2671 62.6433C68.8858 69.1182 70.5046 76.2157 71.7497 84.0602C71.8743 84.9319 71.9988 85.5544 72.2478 86.3015C71.8743 85.679 71.5007 85.0564 70.8781 84.3093C66.6445 78.5815 62.5355 72.3556 58.9245 66.1298C59.049 66.0053 59.298 65.8807 59.5471 65.7562ZM49.9592 72.4801C51.7025 73.6008 53.5702 73.7253 54.8154 72.7292C55.8116 71.9821 56.3096 70.8614 56.3096 69.7408C56.3096 69.1182 56.1851 68.4956 55.8116 67.9975C56.0606 67.873 56.1851 67.7485 56.4341 67.624C59.7961 73.3518 63.0335 79.9512 66.3955 87.0486C66.7691 87.7957 67.1426 88.4183 67.3916 89.0409C66.8936 88.5429 66.271 88.0448 65.6484 87.5467C60.1697 82.9396 54.5664 77.9589 49.4612 72.9782C49.5857 72.7292 49.8347 72.6047 49.9592 72.4801ZM42.4882 81.3209C42.6127 81.3209 42.6127 81.3209 42.4882 81.3209C44.4805 81.9434 46.3483 81.6944 47.2199 80.3247C47.4689 79.9512 48.0915 78.955 48.0915 77.9589C48.0915 77.3363 47.8425 76.3402 47.0954 75.4686C47.2199 75.344 47.4689 75.095 47.5934 74.9705C52.3251 79.7021 57.1812 85.1809 62.2864 91.1577C62.7845 91.7803 63.2826 92.2784 63.7806 92.7764C63.1581 92.4029 62.411 92.1538 61.6639 91.7803C55.189 88.7919 48.465 85.4299 42.1147 81.9434C42.2392 81.6944 42.3637 81.5699 42.4882 81.3209ZM37.6321 91.7803C37.6321 91.7803 37.6321 91.6558 37.6321 91.7803C39.7489 91.9048 41.3676 91.1577 41.9902 89.539C42.1147 89.1654 42.2392 88.6674 42.2392 87.9203C42.2392 87.1732 41.9902 85.8035 40.496 84.8073C40.6205 84.5583 40.745 84.4338 40.8695 84.1847C46.5973 87.5467 52.8231 91.5313 59.1735 96.0139C59.7961 96.5119 60.5432 96.8855 61.0413 97.259C60.4187 97.1345 59.5471 97.01 58.6754 96.761C51.7025 95.7648 44.356 94.2706 37.2585 92.4029C37.5075 92.2784 37.6321 92.0293 37.6321 91.7803ZM35.6398 103.111C35.6398 103.111 35.6398 102.987 35.6398 103.111C37.6321 102.738 39.1263 101.493 39.2508 99.8739C39.2508 99.7494 39.2508 99.6249 39.2508 99.3758C39.2508 97.8816 38.5037 96.2629 36.6359 95.6403C36.6359 95.3913 36.7604 95.1423 36.7604 94.8932C43.2353 96.6365 50.2083 99.0023 57.5548 101.617C58.3019 101.866 59.049 102.115 59.6716 102.24C58.9245 102.24 58.1774 102.364 57.3058 102.364C50.3328 103.236 42.7373 103.609 35.5153 103.734C35.6398 103.609 35.6398 103.36 35.6398 103.111ZM36.6359 114.691C36.6359 114.567 36.6359 114.567 36.6359 114.691C38.2546 113.82 39.2508 112.575 39.2508 111.08C39.2508 110.956 39.2508 110.707 39.2508 110.582C39.0017 108.964 37.8811 107.345 35.6398 107.22C35.6398 106.971 35.6398 106.722 35.6398 106.473C42.3637 106.473 49.5857 106.847 57.4303 107.469C58.3019 107.594 59.049 107.594 59.6716 107.594C59.049 107.843 58.3019 108.092 57.4303 108.341C50.8309 110.956 43.7334 113.322 36.7604 115.314C36.7604 115.189 36.7604 114.94 36.6359 114.691ZM40.6205 125.524C40.6205 125.524 40.6205 125.4 40.6205 125.524C41.7411 124.528 42.3637 123.408 42.3637 122.162C42.3637 121.664 42.2392 121.291 42.1147 120.917C41.4921 119.423 39.9979 118.178 37.7566 118.676C37.6321 118.427 37.6321 118.178 37.5075 117.929C43.9824 116.186 51.0799 114.691 58.8 113.322C59.6716 113.197 60.2942 112.948 61.0413 112.824C60.4187 113.197 59.7961 113.571 59.049 114.193C53.3212 118.427 47.0954 122.536 40.8695 126.272C40.8695 125.898 40.745 125.773 40.6205 125.524ZM47.3444 134.988C47.967 133.992 48.216 133.12 48.216 132.124C48.216 131.377 47.967 130.63 47.4689 130.132C46.4728 128.886 44.605 128.015 42.6127 129.011C42.4882 128.762 42.3637 128.637 42.2392 128.388C47.967 125.026 54.5664 121.664 61.6639 118.302C62.411 117.929 63.0335 117.555 63.6561 117.306C63.1581 117.804 62.66 118.427 62.1619 119.05C57.8038 124.653 52.8231 130.256 47.8425 135.486C47.7179 135.361 47.4689 135.237 47.3444 134.988ZM56.1851 142.334C56.3096 141.587 56.4341 140.965 56.4341 140.342C56.4341 139.097 55.9361 138.101 55.0645 137.603C53.8193 136.731 51.827 136.233 50.2083 137.852C49.9592 137.727 49.8347 137.478 49.7102 137.354C54.4419 132.622 59.7961 127.641 65.7729 122.661C66.3955 122.162 66.8936 121.664 67.3916 121.166C67.0181 121.789 66.7691 122.536 66.3955 123.283C63.6561 129.758 60.4187 136.482 56.8077 142.708C56.6832 142.583 56.4341 142.459 56.1851 142.334ZM66.6445 147.19C66.7691 145.074 65.8974 143.455 64.4032 142.832C62.909 142.334 60.9167 142.459 59.6716 144.326C59.4225 144.202 59.298 144.077 59.049 143.953C62.411 138.225 66.271 131.999 70.7536 125.524C71.2517 124.777 71.6252 124.155 71.9988 123.657C71.8743 124.279 71.7497 125.151 71.5007 126.022C70.5046 132.995 69.0104 140.342 67.2671 147.439C67.1426 147.315 66.8936 147.315 66.6445 147.19ZM77.9756 149.058C77.602 147.066 76.3569 145.572 74.7381 145.447C73.1194 145.323 71.2517 145.945 70.6291 148.062C70.3801 148.062 70.131 147.937 69.882 147.937C71.6252 141.463 73.8665 134.49 76.4814 127.143C76.7304 126.396 76.9795 125.649 77.104 125.026C77.104 125.773 77.2285 126.521 77.2285 127.392C78.1001 134.365 78.5982 141.961 78.7227 149.183C78.4737 149.183 78.2246 149.183 77.9756 149.058ZM122.926 95.7648C121.308 96.6365 120.187 97.8816 120.187 99.3758C120.187 99.5004 120.187 99.7494 120.187 99.8739C120.436 101.493 121.557 103.111 123.798 103.236C123.798 103.485 123.798 103.734 123.798 103.983C117.198 103.983 109.852 103.485 102.007 102.738C101.136 102.613 100.389 102.613 99.7661 102.613C100.389 102.364 101.136 102.115 102.007 101.866C108.607 99.2513 115.704 96.8855 122.677 95.0177C122.802 95.2668 122.802 95.5158 122.926 95.7648ZM119.066 84.9319C119.066 84.9319 119.066 85.0564 119.066 84.9319C117.946 85.928 117.323 87.0486 117.323 88.2938C117.323 88.7919 117.447 89.1654 117.572 89.539C118.195 91.0332 119.689 92.2784 121.93 91.9048C122.055 92.1538 122.055 92.4029 122.179 92.6519C115.704 94.2706 108.482 95.7648 100.762 97.1345C99.8906 97.259 99.268 97.3836 98.5209 97.6326C99.1435 97.259 99.7661 96.8855 100.513 96.3874C106.241 92.0293 112.467 87.9203 118.693 84.3093C118.817 84.5583 118.942 84.6828 119.066 84.9319ZM112.591 75.5931C111.969 76.5892 111.595 77.5853 111.595 78.457C111.595 79.2041 111.844 79.9512 112.342 80.4492C113.338 81.6944 115.082 82.566 117.074 81.5699C117.198 81.8189 117.323 81.9434 117.448 82.1925C111.595 85.4299 105.12 88.7919 97.8983 91.9048C97.1512 92.2784 96.5286 92.5274 95.906 92.9009C96.4041 92.4029 96.9022 91.7803 97.5248 91.1577C102.007 85.679 106.988 80.0757 112.093 74.9705C112.218 75.2195 112.467 75.344 112.591 75.5931ZM103.626 67.873C103.626 67.873 103.751 67.9975 103.626 67.873C103.502 68.6201 103.253 69.2427 103.253 69.8653C103.253 70.9859 103.751 71.9821 104.622 72.6047C105.867 73.4763 107.86 73.9743 109.478 72.4801C109.603 72.6047 109.852 72.8537 109.976 72.9782C105.245 77.7099 99.7661 82.566 93.6647 87.5467C93.0422 88.0448 92.4196 88.5429 92.046 89.0409C92.4196 88.4183 92.6686 87.7957 93.0422 86.9241C95.9061 80.4492 99.268 73.7253 102.879 67.4995C103.253 67.624 103.377 67.7485 103.626 67.873ZM93.1667 63.0168C93.2912 63.0168 93.2912 63.0168 93.1667 63.0168C93.0422 65.1336 93.9138 66.7524 95.408 67.3749C96.9022 67.9975 98.8945 67.873 100.14 65.8807C100.389 66.0053 100.513 66.1298 100.762 66.2543C97.4003 71.9821 93.4157 78.0834 88.8086 84.5583C88.3105 85.1809 87.937 85.8035 87.5634 86.4261C87.6879 85.8035 87.937 84.9319 88.0615 84.0602C89.1821 77.0873 90.6763 69.7408 92.4196 62.7678C92.7931 62.7678 92.9176 62.8923 93.1667 63.0168ZM81.9601 60.9001C81.9601 60.9001 82.0847 60.9001 81.9601 60.9001C82.3337 62.8923 83.5789 64.3865 85.1976 64.5111C86.8163 64.6356 88.6841 64.013 89.4312 61.8962C89.6802 61.8962 89.9292 62.0207 90.1783 62.0207C88.435 68.4956 86.0692 75.4686 83.3298 82.6905C83.0808 83.4376 82.8318 84.1847 82.5827 84.8073C82.5827 84.0602 82.4582 83.3131 82.4582 82.4415C81.7111 75.4686 81.213 67.873 81.213 60.651C81.4621 60.9001 81.7111 60.9001 81.9601 60.9001ZM89.3066 148.062C88.3105 146.194 86.8163 145.198 85.1976 145.447C83.5789 145.696 81.9601 146.817 81.8356 149.058C81.5866 149.058 81.3376 149.058 81.0885 149.058C81.0885 142.334 81.4621 135.112 82.2092 127.268C82.3337 126.521 82.3337 125.898 82.3337 125.275C82.3337 125.151 82.3337 125.151 82.3337 125.026C82.5827 125.649 82.8318 126.396 83.0808 127.268C85.6957 133.867 88.0615 140.965 90.0537 147.937C89.8047 148.062 89.5557 148.062 89.3066 148.062ZM100.015 144.202C100.015 144.202 99.8906 144.202 100.015 144.202C98.6454 142.583 96.9022 141.961 95.408 142.708C93.6647 143.455 92.6686 145.198 93.1667 147.066C92.9176 147.19 92.6686 147.19 92.4196 147.315C90.6763 140.84 89.1821 133.743 87.937 126.022C87.8124 125.151 87.6879 124.528 87.4389 123.781C87.8124 124.404 88.186 125.026 88.8086 125.773C93.0422 131.501 97.1512 137.727 100.762 143.953C100.389 144.077 100.264 144.077 100.015 144.202ZM109.603 137.478C109.603 137.603 109.603 137.603 109.603 137.478C107.86 136.357 105.992 136.233 104.747 137.229C103.751 137.976 103.253 139.097 103.253 140.217C103.253 140.84 103.377 141.463 103.751 141.961C103.502 142.085 103.377 142.21 103.128 142.334C99.7661 136.606 96.4041 130.007 93.1667 122.91C92.7931 122.162 92.4196 121.54 92.1705 120.917C92.6686 121.415 93.2912 121.913 93.9138 122.411C99.517 126.77 105.12 131.75 110.226 136.855C109.976 137.229 109.852 137.354 109.603 137.478ZM116.949 128.762C116.949 128.762 116.949 128.886 116.949 128.762C114.957 128.139 113.089 128.388 112.218 129.758C111.969 130.132 111.346 131.128 111.346 132.124C111.346 132.746 111.595 133.743 112.342 134.614C112.218 134.739 111.969 134.988 111.844 135.112C107.113 130.381 102.256 124.902 97.2757 118.925C96.7777 118.302 96.2796 117.68 95.7815 117.306C96.4041 117.68 97.1512 117.929 97.8983 118.302C104.373 121.166 111.097 124.528 117.448 128.015C117.198 128.388 117.074 128.513 116.949 128.762ZM121.806 118.302C121.806 118.427 121.806 118.427 121.806 118.302C119.689 118.178 118.07 118.925 117.448 120.544C117.323 120.917 117.198 121.415 117.198 122.162C117.198 122.91 117.448 124.279 118.942 125.275C118.817 125.524 118.693 125.649 118.568 125.898C112.84 122.536 106.615 118.551 100.264 114.069C99.6416 113.571 98.8945 113.197 98.3964 112.824C99.019 112.948 99.8906 113.197 100.762 113.322C107.735 114.318 115.082 115.812 122.055 117.68C121.93 117.929 121.93 118.178 121.806 118.302ZM123.798 107.096C121.806 107.469 120.311 108.59 120.187 110.209C120.187 110.333 120.187 110.458 120.187 110.707C120.187 112.201 120.934 113.82 122.802 114.442C122.802 114.691 122.677 114.94 122.677 115.189C116.202 113.446 109.229 111.205 101.883 108.466C101.136 108.217 100.389 107.968 99.7661 107.843C100.513 107.843 101.26 107.718 102.132 107.718C109.105 106.971 116.7 106.473 123.922 106.473C123.922 106.598 123.798 106.847 123.798 107.096Z" fill="#D1D4D8"/>
<circle cx="79.8495" cy="104.73" r="47.0565" stroke="url(#paint2_linear)" stroke-width="2"/>
<circle cx="79.847" cy="104.731" r="61.8431" stroke="url(#paint3_linear)" stroke-width="2"/>
<g filter="url(#filter2_i)">
<circle cx="79.8445" cy="104.731" r="30.8055" fill="#6F7A7D"/>
</g>
<mask id="mask0" mask-type="alpha" maskUnits="userSpaceOnUse" x="49" y="73" width="62" height="63">
<circle cx="79.8445" cy="104.731" r="30.8055" fill="#C3863A"/>
</mask>
<g mask="url(#mask0)">
<path d="M63.6334 72.9307L63.634 72.9316L63.7881 73.1587L64.226 73.8045C64.6036 74.3618 65.1441 75.1602 65.7955 76.1243C67.0982 78.0524 68.8448 80.6439 70.6198 83.297C72.3946 85.9497 74.1988 88.6656 75.6165 90.8418C76.3252 91.9296 76.9388 92.8848 77.4043 93.6309C77.8603 94.3618 78.1973 94.9278 78.3298 95.215C78.3778 95.3189 78.3952 95.4344 78.3801 95.5479C78.3197 96.0008 78.0704 96.396 77.7727 96.7249C77.4705 97.0587 77.0767 97.3706 76.6431 97.6584C75.7754 98.2344 74.6685 98.7659 73.5982 99.2151C72.5227 99.6664 71.4599 100.044 70.6679 100.309C70.3969 100.4 70.157 100.477 69.9584 100.54C70.0699 100.841 70.2199 101.237 70.3962 101.682C70.7903 102.677 71.3085 103.896 71.8199 104.846C72.1 105.366 71.9398 105.877 71.6609 106.251C71.3983 106.604 70.9857 106.914 70.536 107.186C69.6233 107.736 68.333 108.258 67.0508 108.704C65.8854 109.11 64.6959 109.464 63.7431 109.73C64.091 109.848 64.4683 109.976 64.8595 110.111C66.4955 110.675 68.413 111.364 69.4271 111.832C70.4829 112.32 71.0042 112.918 71.0418 113.593C71.0592 113.907 70.9628 114.161 70.8717 114.327C70.8256 114.411 70.7782 114.478 70.7403 114.526C70.7213 114.551 70.7041 114.571 70.6902 114.586L70.6818 114.595C70.6771 114.601 70.6696 114.61 70.6595 114.623C70.6373 114.651 70.603 114.696 70.5607 114.756C70.4758 114.878 70.3596 115.06 70.2428 115.294C70.0081 115.763 69.778 116.425 69.778 117.213C69.778 117.459 69.7842 117.767 69.7912 118.117V118.117V118.117C69.8088 118.991 69.8318 120.132 69.7773 121.263C69.7019 122.827 69.476 124.557 68.7824 125.684C68.61 125.964 68.3234 126.134 68.0692 126.245C67.7999 126.362 67.4744 126.452 67.1185 126.523C66.4047 126.667 65.4794 126.753 64.4347 126.799C62.3397 126.892 59.6752 126.83 57.065 126.707C54.4512 126.584 51.877 126.399 49.9573 126.246C48.9972 126.169 48.2001 126.1 47.6428 126.05C47.3641 126.025 47.1454 126.004 46.9962 125.99L46.8257 125.974L46.796 125.972H33.3853C33.0517 125.972 32.7812 125.701 32.7812 125.368V73.8741C32.7812 73.5453 33.0443 73.2768 33.373 73.2702L63.1214 72.6661C63.3259 72.662 63.5185 72.7615 63.6334 72.9307Z" fill="white"/>
<path fill-rule="evenodd" clip-rule="evenodd" d="M83.0855 100.026C82.6736 100.438 82.698 101.107 83.0498 101.571C83.7844 102.541 84.2203 103.749 84.2203 105.059C84.2203 106.275 83.845 107.402 83.2041 108.333C82.8837 108.799 82.8767 109.441 83.2762 109.841C83.6789 110.244 84.3386 110.246 84.683 109.792C85.6814 108.477 86.274 106.837 86.274 105.059C86.274 103.152 85.5923 101.403 84.4593 100.045C84.1072 99.6226 83.4743 99.6375 83.0855 100.026ZM86.5388 111.659C86.1811 112.097 86.1778 112.743 86.5779 113.143C86.9799 113.545 87.6356 113.546 88.002 113.112C89.8357 110.936 90.9406 108.127 90.9406 105.059C90.9406 101.869 89.7458 98.9583 87.7793 96.7497C87.4088 96.3335 86.7686 96.3431 86.3746 96.7371C85.967 97.1447 85.98 97.8052 86.3563 98.2418C87.9334 100.072 88.8869 102.454 88.8869 105.059C88.8869 107.562 88.0067 109.86 86.5388 111.659ZM90.0886 115.206C89.7165 115.633 89.7145 116.279 90.1148 116.68C90.5165 117.081 91.1705 117.083 91.5471 116.657C94.2815 113.569 95.9415 109.508 95.9415 105.059C95.9415 100.491 94.1912 96.3317 91.3246 93.215C90.9453 92.8027 90.3021 92.8097 89.9059 93.2058C89.5003 93.6114 89.5089 94.2687 89.8939 94.6939C92.3759 97.4347 93.8878 101.07 93.8878 105.059C93.8878 108.943 92.4548 112.492 90.0886 115.206Z" fill="white"/>
</g>
<path d="M26.8594 82.9816L27.229 82.1191L32.466 81.2565L28.3996 79.4082L28.7077 78.7305L33.6366 80.9485L33.2669 81.811L27.9684 82.7352L32.0347 84.5835L31.7882 85.1996L26.8594 82.9816Z" fill="#FFFDFD"/>
<path d="M31.4173 78.5454C31.3557 78.299 31.3557 78.0525 31.4173 77.7445C31.4789 77.498 31.5405 77.2516 31.6637 77.0051C31.787 76.8203 31.9718 76.6355 32.095 76.5122C32.2799 76.389 32.4031 76.2658 32.5879 76.2042C32.7727 76.1426 32.896 76.1426 33.0808 76.1426C33.2656 76.1426 33.3889 76.2042 33.5121 76.2658L35.114 77.19C35.2372 77.2516 35.2988 77.3132 35.422 77.3748C35.5452 77.4364 35.6068 77.4364 35.6685 77.498L35.3604 78.0525C35.1756 77.9909 35.0523 77.8677 34.8675 77.8061C34.9907 78.0525 35.0523 78.299 35.0523 78.5454C35.0523 78.7918 34.9291 79.0383 34.8059 79.2231C34.7443 79.3463 34.6211 79.4696 34.4978 79.5928C34.3746 79.716 34.2514 79.7776 34.1282 79.8392C34.005 79.9008 33.8201 79.9008 33.6969 79.9008C33.5737 79.9008 33.3889 79.8392 33.2656 79.7776C33.0808 79.6544 32.896 79.5312 32.8344 79.3463C32.7727 79.1615 32.7111 78.9767 32.7111 78.7918C32.7111 78.607 32.7727 78.3606 32.8344 78.1141C32.896 77.8677 33.0192 77.6212 33.1424 77.4364L33.3889 77.0051L33.2656 76.9435C33.204 76.8819 33.0808 76.8819 33.0192 76.8819C32.9576 76.8819 32.8344 76.8819 32.7111 76.8819C32.5879 76.8819 32.4647 76.9435 32.4031 77.0051C32.3415 77.0667 32.2182 77.19 32.1566 77.3132C32.095 77.4364 32.0334 77.5596 32.0334 77.6212C32.0334 77.7445 31.9718 77.8061 31.9718 77.9293C31.9718 77.9909 31.9718 78.1141 31.9718 78.1757C31.9718 78.2373 31.9718 78.3606 32.0334 78.4222L31.4173 78.5454ZM33.6353 77.5596C33.5737 77.6829 33.4505 77.8677 33.3889 77.9909C33.3272 78.1757 33.2656 78.299 33.2656 78.4222C33.2656 78.5454 33.2656 78.7302 33.2656 78.8535C33.2656 78.9767 33.3889 79.0999 33.5121 79.1615C33.6969 79.2847 33.8817 79.2847 34.005 79.2231C34.1282 79.1615 34.313 78.9767 34.3746 78.7918C34.4978 78.607 34.4978 78.4838 34.5595 78.299C34.5595 78.1757 34.5595 77.9909 34.4978 77.8677C34.4362 77.7445 34.3746 77.6212 34.313 77.5596C34.2514 77.4364 34.1282 77.3748 34.005 77.3132L33.8201 77.19L33.6353 77.5596Z" fill="#FFFDFD"/>
<path d="M34.6194 73.555L34.0649 74.356L35.4204 75.2801C35.482 75.3418 35.6052 75.4034 35.6668 75.465C35.7284 75.5266 35.8517 75.5266 35.9133 75.5882C35.9749 75.6498 36.0981 75.5882 36.1597 75.5882C36.2213 75.5882 36.2829 75.465 36.4062 75.4034C36.4678 75.3418 36.4678 75.2801 36.5294 75.1569C36.591 75.0337 36.591 74.9721 36.591 74.9105L37.0839 75.2801C37.0839 75.4034 37.0223 75.465 36.9607 75.5882C36.8991 75.7114 36.8374 75.773 36.8374 75.8346C36.7142 76.0811 36.5294 76.2043 36.4062 76.2659C36.2829 76.3275 36.0981 76.3891 35.9749 76.3891C35.8517 76.3891 35.7284 76.3275 35.6052 76.2659C35.482 76.2043 35.3588 76.1427 35.2356 76.0195L33.6953 74.9721L33.264 75.6498L32.7711 75.3418L33.2024 74.664L32.3398 74.1095L32.7095 73.555L33.5721 74.1095L34.1266 73.3086L34.6194 73.555Z" fill="#FFFDFD"/>
<path d="M33.5755 71.8294C33.4522 71.7677 33.3906 71.6445 33.3906 71.5213C33.3906 71.3981 33.3906 71.2749 33.4522 71.1516C33.5138 71.0284 33.6371 70.9668 33.7603 70.9668C33.8835 70.9668 34.0067 70.9668 34.13 71.0284C34.2532 71.09 34.3148 71.2132 34.3148 71.3365C34.3148 71.4597 34.3148 71.5829 34.2532 71.7061C34.1916 71.8294 34.0683 71.891 33.9451 71.891C33.8219 71.891 33.6371 71.891 33.5755 71.8294ZM34.6845 72.4455L35.0541 71.891L38.0114 73.9857L37.6418 74.5402L34.6845 72.4455Z" fill="#FFFDFD"/>
<path d="M37.0215 72.2607C36.8366 72.0758 36.6518 71.891 36.5286 71.7062C36.4054 71.4597 36.3438 71.2749 36.3438 71.0285C36.3438 70.782 36.3438 70.5356 36.4054 70.2891C36.467 70.0427 36.5902 69.7962 36.775 69.6114C36.9599 69.4266 37.1447 69.2417 37.3911 69.1185C37.6376 68.9953 37.8224 68.9337 38.0689 68.8721C38.3153 68.8721 38.5617 68.8721 38.8082 68.9337C39.0546 68.9953 39.3011 69.1185 39.4859 69.3033C39.6707 69.4882 39.8556 69.673 39.9788 69.8578C40.102 70.1043 40.1636 70.2891 40.1636 70.5356C40.1636 70.782 40.1636 71.0285 40.102 71.2749C40.0404 71.5213 39.9172 71.7678 39.7324 71.9526C39.5475 72.1374 39.3627 72.3223 39.1162 72.4455C38.8698 72.5687 38.685 72.6303 38.4385 72.6919C38.1921 72.6919 37.9456 72.6919 37.6992 72.6303C37.4527 72.5071 37.2679 72.3839 37.0215 72.2607ZM37.5144 71.6446C37.6376 71.7678 37.8224 71.8294 37.9456 71.891C38.1305 71.9526 38.2537 71.9526 38.3769 71.9526C38.5001 71.9526 38.685 71.891 38.8082 71.8294C38.9314 71.7678 39.0546 71.6446 39.1779 71.5213C39.3011 71.3981 39.3627 71.2133 39.4243 71.0901C39.4859 70.9052 39.4859 70.782 39.4859 70.6588C39.4859 70.5356 39.4243 70.3507 39.3011 70.2275C39.2395 70.1043 39.1162 69.9811 38.9314 69.8578C38.8082 69.7346 38.6234 69.673 38.5001 69.6114C38.3153 69.5498 38.1921 69.5498 38.0689 69.5498C37.9456 69.5498 37.7608 69.6114 37.6376 69.673C37.5144 69.7346 37.3911 69.8578 37.2679 69.9811C37.1447 70.1043 37.0831 70.2891 37.0215 70.4123C36.9599 70.5972 36.9599 70.7204 36.9599 70.8436C36.9599 70.9668 37.0215 71.1517 37.1447 71.2749C37.2679 71.3981 37.3295 71.583 37.5144 71.6446Z" fill="#FFFDFD"/>
<path d="M38.6875 67.4549L39.1804 66.962L39.6117 67.3316C39.5501 67.1468 39.5501 66.9004 39.5501 66.6539C39.6117 66.4075 39.7349 66.2226 39.9197 65.9762C40.0429 65.853 40.1662 65.7298 40.351 65.6681C40.4742 65.6065 40.659 65.5449 40.8439 65.5449C41.0287 65.5449 41.1519 65.5449 41.3368 65.6065C41.5216 65.6681 41.7064 65.7914 41.8913 65.9762L43.4932 67.5781L43.0003 68.071L41.46 66.5923C41.3368 66.4691 41.2135 66.4075 41.0903 66.3459C40.9671 66.2843 40.8439 66.2843 40.7823 66.2843C40.7207 66.2843 40.5974 66.3459 40.4742 66.3459C40.351 66.3459 40.2894 66.4691 40.2278 66.5307C40.1046 66.6539 40.0429 66.7155 39.9813 66.8388C39.9197 66.962 39.9197 67.0852 39.9197 67.2084C39.9197 67.3316 39.9813 67.4549 40.0429 67.6397C40.1046 67.8245 40.2278 67.9477 40.4126 68.071L41.768 69.3648L41.2752 69.8577L38.6875 67.4549Z" fill="#FFFDFD"/>
<path d="M41.9531 64.6208C41.9531 64.3743 42.0763 64.1279 42.1996 63.8815C42.3228 63.635 42.5076 63.4502 42.6925 63.2653C42.8773 63.0805 43.0621 62.9573 43.247 62.8957C43.4318 62.8341 43.6166 62.7725 43.8015 62.7725C43.9863 62.7725 44.1095 62.8341 44.2327 62.8957C44.356 62.9573 44.4792 63.0805 44.6024 63.1421L45.8346 64.4976C45.8962 64.6208 46.0194 64.6824 46.0811 64.744C46.1427 64.8056 46.2043 64.8672 46.3275 64.9288L45.8962 65.3601C45.773 65.2369 45.6498 65.1137 45.5266 64.9905C45.5882 65.2369 45.5266 65.4833 45.4649 65.7298C45.4033 65.9146 45.2185 66.1611 45.0337 66.3459C44.9104 66.4691 44.7872 66.5307 44.6024 66.5923C44.4792 66.6539 44.2943 66.7156 44.1711 66.7156C44.0479 66.7156 43.8631 66.7156 43.7398 66.6539C43.6166 66.5923 43.4934 66.5307 43.3702 66.3459C43.1853 66.1611 43.1237 65.9762 43.0621 65.7914C43.0621 65.6066 43.0621 65.4217 43.1237 65.2369C43.1853 65.0521 43.3086 64.8672 43.4318 64.6824C43.555 64.4976 43.7398 64.3127 43.9863 64.1279L44.356 63.7582L44.2327 63.635C44.1711 63.5734 44.1095 63.5118 43.9863 63.4502C43.9247 63.3886 43.8015 63.3886 43.6782 63.3886C43.555 63.3886 43.4934 63.3886 43.3702 63.4502C43.247 63.5118 43.1237 63.5734 43.0621 63.635C42.9389 63.6966 42.8773 63.8198 42.8157 63.8815C42.7541 63.9431 42.6925 64.0663 42.6925 64.1279C42.6925 64.1895 42.6308 64.3127 42.6308 64.3743C42.6308 64.436 42.6308 64.5592 42.5692 64.6208H41.9531ZM44.356 64.3743C44.2327 64.4976 44.1095 64.6208 43.9863 64.744C43.8631 64.8672 43.8015 64.9905 43.7398 65.1137C43.6782 65.2369 43.6166 65.3601 43.6166 65.4833C43.6166 65.6066 43.6782 65.7298 43.7398 65.853C43.8631 65.9762 44.0479 66.0994 44.1711 66.0378C44.2943 65.9762 44.4792 65.9146 44.664 65.7298C44.7872 65.6066 44.9104 65.4833 44.9721 65.3601C45.0337 65.2369 45.0337 65.1137 45.0337 64.9905C45.0337 64.8672 44.9721 64.744 44.9104 64.6208C44.8488 64.4976 44.7872 64.3743 44.7256 64.3127L44.5408 64.1279L44.356 64.3743Z" fill="#FFFDFD"/>
<path d="M43.3086 59.9391L43.8631 59.5078L47.4981 63.9438L46.9436 64.3751L43.3086 59.9391Z" fill="#FFFDFD"/>
<path d="M46.9453 57.5963L47.5614 57.165L50.2107 61.0465L52.2439 59.6295L52.6135 60.184L49.9642 61.9707L46.9453 57.5963Z" fill="#FFFDFD"/>
<path d="M51.3828 57.351C51.4444 57.1045 51.5676 56.8581 51.7525 56.6732C51.9373 56.4884 52.1221 56.3036 52.3686 56.1803C52.615 56.0571 52.7999 55.9339 52.9847 55.9339C53.1695 55.8723 53.3544 55.8723 53.5392 55.9339C53.724 55.9955 53.8472 56.0571 53.9705 56.1187C54.0937 56.242 54.2169 56.3036 54.2785 56.4884L55.2027 58.0903C55.2643 58.2135 55.3259 58.2751 55.3875 58.3983C55.4491 58.46 55.5107 58.5832 55.5724 58.6448L55.0179 58.9528C54.8946 58.8296 54.833 58.6448 54.7098 58.46C54.7098 58.768 54.6482 58.9528 54.4634 59.1377C54.3401 59.3225 54.1553 59.5073 53.9089 59.6306C53.7856 59.6922 53.6008 59.7538 53.4776 59.8154C53.2928 59.877 53.1695 59.877 53.0463 59.8154C52.9231 59.7538 52.7383 59.7538 52.615 59.6306C52.4918 59.5073 52.3686 59.4457 52.307 59.2609C52.1838 59.0761 52.1221 58.8912 52.1221 58.6448C52.1221 58.3983 52.1838 58.2751 52.307 58.0903C52.4302 57.9055 52.5534 57.7206 52.7383 57.5974C52.9231 57.4126 53.1079 57.2893 53.3544 57.1661L53.7856 56.9197L53.724 56.7965C53.6624 56.7348 53.6008 56.6732 53.5392 56.6116C53.4776 56.55 53.3544 56.4884 53.2928 56.4884C53.2311 56.4884 53.1079 56.4268 52.9847 56.4884C52.8615 56.4884 52.7383 56.55 52.615 56.6116C52.4918 56.6732 52.4302 56.7348 52.307 56.7965C52.1838 56.8581 52.1838 56.9197 52.1221 57.0429C52.0605 57.1661 51.9989 57.1661 51.9989 57.2893C51.9373 57.351 51.9373 57.4126 51.9373 57.5358L51.3828 57.351ZM53.7856 57.5974C53.6624 57.659 53.4776 57.7822 53.3544 57.8438C53.2311 57.9671 53.1079 58.0287 52.9847 58.1519C52.8615 58.2751 52.7999 58.3983 52.7999 58.5216C52.7999 58.6448 52.7999 58.768 52.8615 58.8912C52.9847 59.0761 53.1079 59.1377 53.2928 59.1993C53.4776 59.1993 53.6624 59.1377 53.8472 59.0144C54.0321 58.8912 54.1553 58.8296 54.2169 58.7064C54.2785 58.5832 54.3401 58.46 54.3401 58.3367C54.3401 58.2135 54.3401 58.0903 54.3401 57.9671C54.3401 57.8438 54.2785 57.7206 54.2169 57.5974L54.0937 57.4126L53.7856 57.5974Z" fill="#FFFDFD"/>
<path d="M54.6484 54.9478L55.2645 54.6397L55.511 55.1326C55.511 54.9478 55.5726 54.7013 55.6958 54.5165C55.819 54.3317 56.0039 54.1468 56.3119 54.0236C56.4968 53.962 56.62 53.9004 56.8048 53.9004C56.9897 53.9004 57.1129 53.9004 57.2977 53.962C57.4825 54.0236 57.6058 54.0852 57.729 54.2084C57.8522 54.3317 57.9754 54.5165 58.0987 54.7013L59.0844 56.7961L58.4683 57.1042L57.5442 55.1942C57.4825 55.071 57.3593 54.9478 57.2977 54.8246C57.1745 54.7629 57.1129 54.7013 56.9897 54.6397C56.8664 54.5781 56.8048 54.5781 56.6816 54.6397C56.5584 54.7013 56.4968 54.6397 56.4352 54.7013C56.3119 54.7629 56.1887 54.8246 56.1271 54.9478C56.0655 55.071 56.0039 55.1326 55.9423 55.2558C55.8807 55.3791 55.8807 55.5023 55.9423 55.6871C55.9423 55.8719 56.0039 55.9952 56.1271 56.18L56.928 57.8435L56.3119 58.1515L54.6484 54.9478Z" fill="#FFFDFD"/>
<path d="M63.2716 55.1338C63.3948 55.3802 63.3948 55.6267 63.3948 55.8731C63.3948 56.1196 63.3332 56.366 63.21 56.5509C63.0867 56.7973 62.9635 56.9821 62.7787 57.1054C62.5939 57.2902 62.3474 57.4134 62.101 57.5366C61.7929 57.6599 61.4849 57.7215 61.1768 57.7215C60.8687 57.7215 60.5607 57.6599 60.2526 57.5366L60.4991 56.7973C60.7455 56.9205 60.992 56.9821 61.1768 56.9821C61.3616 56.9821 61.6697 56.9821 61.9161 56.8589C62.1626 56.7357 62.3474 56.6741 62.4706 56.5509C62.5939 56.4276 62.7171 56.3044 62.7171 56.1196C62.7787 55.9964 62.7787 55.8115 62.7787 55.6883C62.7787 55.5035 62.7171 55.3802 62.6555 55.257L62.4706 54.7641C62.409 55.0106 62.3474 55.257 62.1626 55.3802C61.9777 55.5651 61.7929 55.6883 61.5465 55.8115C61.3 55.9347 61.0536 55.9347 60.8071 55.9347C60.5607 55.9347 60.3143 55.8731 60.1294 55.8115C59.9446 55.6883 59.6981 55.5651 59.5749 55.3802C59.4517 55.1954 59.2669 55.0106 59.2053 54.7641C59.082 54.5177 59.082 54.2713 59.082 54.0248C59.082 53.7784 59.1436 53.5319 59.2053 53.3471C59.2669 53.1006 59.4517 52.9158 59.5749 52.731C59.6981 52.5461 59.9446 52.4229 60.2526 52.2997C60.4991 52.2381 60.7455 52.1765 60.992 52.1765C61.2384 52.1765 61.4849 52.2381 61.6697 52.4229L61.4849 51.93L62.101 51.6836L63.2716 55.1338ZM60.3759 52.9774C60.191 53.039 60.0678 53.1623 59.9446 53.2239C59.8214 53.3471 59.7598 53.4703 59.6981 53.5935C59.6365 53.7168 59.6365 53.9016 59.6365 54.0248C59.6365 54.148 59.6981 54.3329 59.7598 54.5177C59.883 54.8874 60.0678 55.0722 60.3759 55.1954C60.6839 55.3186 60.992 55.3186 61.3 55.1954C61.6697 55.0722 61.8545 54.8257 61.9777 54.5793C62.101 54.2713 62.101 53.9632 61.9777 53.6551C61.9161 53.4703 61.8545 53.3471 61.7313 53.2239C61.6081 53.1006 61.4849 52.9774 61.3616 52.9158C61.2384 52.8542 61.0536 52.7926 60.9304 52.7926C60.7455 52.9158 60.5607 52.9158 60.3759 52.9774Z" fill="#FFFDFD"/>
<path d="M67.0928 53.964L66.4151 54.1488L66.2918 53.6559C66.2918 53.8407 66.1686 54.0872 65.9838 54.2104C65.7989 54.3952 65.6141 54.5185 65.3061 54.5801C65.1212 54.6417 64.998 54.6417 64.8132 54.6417C64.6283 54.6417 64.5051 54.5801 64.3203 54.5185C64.1971 54.4569 64.0122 54.3336 63.9506 54.2104C63.8274 54.0872 63.7658 53.9024 63.6426 53.6559L62.9648 51.4379L63.6426 51.2531L64.2587 53.2862C64.3203 53.4711 64.3819 53.5943 64.4435 53.6559C64.5051 53.7791 64.6283 53.8407 64.69 53.9024C64.8132 53.964 64.8748 53.964 64.998 53.964C65.1212 53.964 65.1828 53.964 65.3061 53.9024C65.4293 53.8407 65.5525 53.7791 65.6757 53.7175C65.7989 53.6559 65.8606 53.5327 65.9222 53.4095C65.9838 53.2862 65.9838 53.163 66.0454 52.9782C66.0454 52.7934 66.0454 52.6085 65.9838 52.4237L65.4293 50.637L66.107 50.4521L67.0928 53.964Z" fill="#FFFDFD"/>
<path d="M67.2773 50.6966C67.4006 50.5118 67.647 50.327 67.8318 50.1421C68.0167 49.9573 68.3247 49.8957 68.5712 49.8341C68.8176 49.7725 69.0641 49.7725 69.2489 49.7725C69.4337 49.7725 69.6186 49.8341 69.7418 49.9573C69.865 50.0189 69.9882 50.1421 70.1114 50.2653C70.1731 50.3886 70.2347 50.5118 70.2963 50.6966L70.6659 52.4833C70.6659 52.6066 70.7276 52.7298 70.7276 52.853C70.7276 52.9762 70.7892 53.0378 70.7892 53.1611L70.1731 53.2843C70.1114 53.0994 70.0498 52.9146 70.0498 52.7298C69.9266 52.9762 69.8034 53.1611 69.6186 53.3459C69.4337 53.4691 69.1873 53.5923 68.9408 53.6539C68.756 53.7156 68.6328 53.7156 68.448 53.7156C68.2631 53.7156 68.1399 53.6539 68.0167 53.5923C67.8935 53.5307 67.7702 53.4075 67.7086 53.3459C67.647 53.2843 67.5238 53.0995 67.5238 52.9146C67.4622 52.6682 67.4622 52.4833 67.5238 52.2985C67.5854 52.1137 67.7086 51.9905 67.8318 51.8056C68.0167 51.6824 68.2015 51.5592 68.3863 51.436C68.6328 51.3127 68.8792 51.2511 69.1257 51.1895L69.6186 51.0663L69.6802 50.9431C69.6802 50.8815 69.6186 50.7582 69.557 50.6966C69.4953 50.635 69.4337 50.5734 69.3721 50.5118C69.3105 50.4502 69.1873 50.3886 69.0641 50.3886C68.9408 50.3886 68.8176 50.3886 68.6944 50.3886C68.5712 50.3886 68.448 50.4502 68.3863 50.5118C68.3247 50.5734 68.2015 50.635 68.1399 50.635C68.0783 50.6966 68.0167 50.7582 67.9551 50.8198C67.8935 50.8815 67.8318 50.9431 67.7702 51.0047L67.2773 50.6966ZM69.4337 51.6824C69.2489 51.744 69.1257 51.744 68.9408 51.8056C68.756 51.8672 68.6328 51.9288 68.5096 51.9905C68.3863 52.0521 68.2631 52.1753 68.2015 52.2985C68.1399 52.4217 68.1399 52.545 68.1399 52.6682C68.2015 52.853 68.2631 52.9762 68.448 53.0378C68.6328 53.0994 68.8176 53.0994 69.0025 53.0378C69.1873 52.9762 69.3105 52.9146 69.4337 52.853C69.5569 52.7914 69.6186 52.6682 69.6802 52.545C69.7418 52.4217 69.7418 52.2985 69.8034 52.1753C69.8034 52.0521 69.8034 51.9288 69.8034 51.8056V51.5592L69.4337 51.6824Z" fill="#FFFDFD"/>
<path d="M75.161 52.4838C75.2226 52.7302 75.161 53.0383 75.0994 53.2231C75.0378 53.4695 74.9146 53.6544 74.7913 53.8392C74.6681 54.024 74.4833 54.2089 74.2368 54.3321C73.9904 54.4553 73.7439 54.5169 73.4359 54.5785C73.0662 54.6401 72.7582 54.6401 72.4501 54.5785C72.1421 54.5169 71.834 54.3937 71.5876 54.2089L71.9572 53.5928C72.1421 53.7776 72.3885 53.9008 72.5733 53.9624C72.8198 54.024 73.0046 54.024 73.3127 54.024C73.5591 53.9624 73.7439 53.9008 73.9288 53.8392C74.1136 53.716 74.1752 53.6544 74.2984 53.5312C74.3601 53.4079 74.4217 53.2847 74.4217 53.0999C74.4217 52.915 74.4217 52.7918 74.4217 52.6686L74.3601 52.1141C74.2368 52.3605 74.1136 52.5454 73.8672 52.6686C73.6823 52.7302 73.4359 52.7918 73.1894 52.7918C72.943 52.8534 72.6966 52.7918 72.4501 52.7302C72.2037 52.6686 72.0188 52.5454 71.834 52.4222C71.6492 52.2989 71.526 52.1141 71.4027 51.8677C71.2795 51.6828 71.2179 51.4364 71.1563 51.1283C71.0947 50.8819 71.1563 50.6354 71.1563 50.389C71.2179 50.1425 71.2795 49.9577 71.4643 49.7113C71.6492 49.4648 71.7724 49.3416 71.9572 49.2184C72.1421 49.0952 72.3885 49.0336 72.6966 48.9719C72.943 48.9103 73.1894 48.9719 73.4359 49.0336C73.6823 49.0952 73.8672 49.2184 74.052 49.4032L73.9904 48.9103L74.6681 48.7871L75.161 52.4838ZM72.8814 49.7113C72.6966 49.7113 72.5117 49.7729 72.3885 49.8961C72.2653 50.0193 72.1421 50.0809 72.0805 50.2042C72.0188 50.3274 71.9572 50.4506 71.8956 50.6354C71.834 50.8203 71.834 50.9435 71.8956 51.1283C71.9572 51.498 72.0805 51.7444 72.3269 51.9293C72.5733 52.1141 72.8814 52.1757 73.2511 52.1141C73.6207 52.0525 73.8672 51.9293 74.052 51.6828C74.2368 51.4364 74.2984 51.1283 74.2368 50.7587C74.2368 50.5738 74.1752 50.389 74.1136 50.2658C74.052 50.1425 73.9288 50.0193 73.8056 49.8961C73.6823 49.7729 73.5591 49.7113 73.3743 49.7113C73.1894 49.7113 73.0662 49.7113 72.8814 49.7113Z" fill="#FFFDFD"/>
<path d="M76.3947 50.8821C76.3947 51.0669 76.4563 51.1901 76.5179 51.3133C76.5795 51.4366 76.7027 51.5598 76.826 51.6214C76.9492 51.683 77.0724 51.7446 77.1956 51.8062C77.3189 51.8678 77.5037 51.8678 77.6269 51.8678C77.8117 51.8678 77.9966 51.8062 78.1814 51.683C78.3046 51.5598 78.4895 51.4366 78.6127 51.2517L79.1672 51.6214C78.7975 52.1143 78.3046 52.4223 77.6269 52.4223C77.3189 52.4223 77.0724 52.4223 76.826 52.2991C76.5795 52.2375 76.3947 52.1143 76.2099 51.9294C76.025 51.7446 75.9018 51.5598 75.7786 51.3749C75.6554 51.1285 75.5938 50.8821 75.5938 50.6356C75.5938 50.3892 75.5938 50.1427 75.717 49.8963C75.7786 49.6498 75.9018 49.465 76.0866 49.2802C76.2715 49.0953 76.4563 48.9721 76.6411 48.8489C76.8876 48.7257 77.134 48.6641 77.3805 48.6641C77.6885 48.6641 77.9966 48.6641 78.1814 48.7873C78.3662 48.9105 78.6127 49.0337 78.7359 49.2186C78.8591 49.4034 78.9824 49.5882 79.1056 49.8347C79.2288 50.0811 79.2288 50.2659 79.2288 50.5124V50.7588L76.3947 50.8821ZM78.5511 50.2043C78.5511 50.0811 78.4895 49.8963 78.4279 49.7731C78.3662 49.6498 78.3046 49.5266 78.243 49.465C78.1814 49.4034 78.0582 49.2802 77.935 49.2802C77.8117 49.2186 77.6269 49.2186 77.5037 49.2186C77.3189 49.2186 77.1956 49.2802 77.0724 49.3418C76.9492 49.4034 76.826 49.5266 76.7027 49.5882C76.6411 49.7114 76.5179 49.8347 76.5179 49.9579C76.4563 50.0811 76.4563 50.2043 76.4563 50.3276L78.5511 50.2043Z" fill="#FFFDFD"/>
<path d="M83.604 47.6164L81.8789 47.4931L81.9405 46.8154L86.1301 47.0619L86.0684 47.7396L84.3433 47.6164L84.0969 52.2988L83.3576 52.2372L83.604 47.6164Z" fill="#FFFDFD"/>
<path d="M85.9412 48.9092L86.6189 48.9708L86.5573 49.5253C86.6189 49.4637 86.6805 49.3405 86.7422 49.2788C86.8038 49.2172 86.927 49.1556 86.9886 49.094C87.1118 49.0324 87.1734 49.0324 87.2967 48.9708C87.4199 48.9092 87.5431 48.9708 87.6047 48.9708C87.7279 48.9708 87.7895 49.0324 87.9128 49.0324L87.7895 49.7717C87.7279 49.7717 87.6663 49.7101 87.6047 49.7101C87.5431 49.7101 87.4815 49.7101 87.4199 49.6485C87.1118 49.5869 86.8038 49.6485 86.6189 49.8333C86.4341 50.0182 86.3109 50.2646 86.2493 50.6959L86.0644 52.4826L85.3867 52.421L85.9412 48.9092Z" fill="#FFFDFD"/>
<path d="M88.7165 49.6502C88.9629 49.5269 89.2094 49.4037 89.4558 49.3421C89.7022 49.2805 89.9487 49.2805 90.2567 49.3421C90.5032 49.4037 90.7496 49.4653 90.9345 49.5269C91.1193 49.6502 91.2425 49.7118 91.3657 49.8966C91.489 50.0198 91.5506 50.143 91.5506 50.3279C91.6122 50.4511 91.6122 50.6359 91.5506 50.7592L91.2425 52.6075C91.2425 52.7307 91.1809 52.8539 91.1809 52.9772C91.1809 53.1004 91.1809 53.162 91.1809 53.2852L90.5648 53.162C90.5648 52.9772 90.6264 52.7923 90.6264 52.6075C90.4416 52.7923 90.2567 52.9155 90.0103 52.9772C89.7639 53.0388 89.5174 53.0388 89.271 52.9772C89.0861 52.9772 88.9629 52.9155 88.8397 52.8539C88.7165 52.7923 88.5933 52.6691 88.47 52.6075C88.3468 52.4843 88.2852 52.361 88.2852 52.2378C88.2852 52.1146 88.2236 51.9298 88.2852 51.7449C88.3468 51.4985 88.4084 51.3137 88.5316 51.1904C88.6549 51.0672 88.8397 50.944 89.0245 50.8824C89.2094 50.8208 89.4558 50.7592 89.7022 50.7592C89.9487 50.7592 90.1951 50.7592 90.5032 50.8208L90.9961 50.8824V50.7592C90.9961 50.6975 90.9961 50.5743 90.9961 50.4511C90.9961 50.3279 90.9345 50.2663 90.8729 50.2047C90.8112 50.143 90.7496 50.0198 90.6264 49.9582C90.5032 49.8966 90.38 49.835 90.2567 49.835C90.1335 49.835 90.0103 49.835 89.8871 49.835C89.7639 49.835 89.7023 49.835 89.579 49.8966C89.5174 49.8966 89.3942 49.9582 89.3326 50.0198C89.271 50.0814 89.2094 50.0814 89.1477 50.143L88.7165 49.6502ZM90.38 51.3753C90.1951 51.3753 90.0719 51.3137 89.8871 51.3137C89.7023 51.3137 89.579 51.3137 89.3942 51.3137C89.271 51.3137 89.1478 51.3753 89.0245 51.4369C88.9013 51.4985 88.8397 51.6217 88.8397 51.7449C88.7781 51.9298 88.8397 52.1146 88.9629 52.2378C89.0861 52.361 89.271 52.4227 89.5174 52.4843C89.7022 52.5459 89.8871 52.4843 90.0103 52.4843C90.1335 52.4227 90.2567 52.361 90.38 52.2994C90.5032 52.2378 90.5648 52.1146 90.6264 51.9914C90.688 51.8682 90.7496 51.7449 90.7496 51.6217L90.8112 51.3753H90.38Z" fill="#FFFDFD"/>
<path d="M92.7835 49.958L93.4613 50.1428L93.338 50.6973C93.4613 50.5125 93.6461 50.3893 93.8925 50.3277C94.139 50.2661 94.3854 50.2661 94.6319 50.3277C94.8167 50.3893 94.9399 50.4509 95.1248 50.5125C95.248 50.5741 95.3712 50.6973 95.4944 50.8822C95.556 51.0054 95.6176 51.1902 95.6792 51.3751C95.6792 51.5599 95.6793 51.7447 95.6176 51.9912L95.0631 54.2708L94.3854 54.0859L94.8783 51.9912C94.9399 51.8063 94.9399 51.6831 94.9399 51.5599C94.9399 51.4367 94.8783 51.3134 94.8167 51.2518C94.7551 51.1902 94.6935 51.067 94.5703 51.0054C94.5086 50.9438 94.3854 50.8822 94.2622 50.8822C94.139 50.8206 94.0158 50.8206 93.8309 50.8822C93.7077 50.8822 93.5845 50.9438 93.4613 51.0054C93.338 51.067 93.2764 51.1902 93.1532 51.3134C93.0916 51.4367 92.9684 51.6215 92.9684 51.8063L92.5371 53.5931L91.8594 53.4082L92.7835 49.958Z" fill="#FFFDFD"/>
<path d="M98.4531 52.4832C98.3915 52.36 98.3298 52.2368 98.2682 52.1751C98.2066 52.1135 98.0218 51.9903 97.8986 51.9287C97.7137 51.8671 97.5905 51.8671 97.4673 51.8671C97.3441 51.8671 97.2208 51.9903 97.2208 52.1135C97.1592 52.2368 97.2208 52.2984 97.2208 52.4216C97.2825 52.4832 97.3441 52.6064 97.4057 52.668C97.4673 52.7296 97.5905 52.7912 97.6521 52.8529C97.7137 52.9145 97.837 52.9761 97.8986 52.9761C98.0218 53.0377 98.145 53.1609 98.2682 53.2225C98.3915 53.2841 98.4531 53.4074 98.5147 53.5306C98.5763 53.6538 98.6379 53.777 98.6379 53.9002C98.6379 54.0235 98.6379 54.1467 98.5763 54.3315C98.5147 54.5164 98.3915 54.7012 98.2682 54.7628C98.145 54.886 98.0218 54.9476 97.837 55.0092C97.6521 55.0709 97.5289 55.0709 97.3441 55.0709C97.1592 55.0709 96.9744 55.0092 96.8512 54.9476C96.5431 54.8244 96.3583 54.7012 96.1735 54.578C95.9886 54.3931 95.8654 54.2083 95.7422 53.9002L96.3583 53.6538C96.4199 53.777 96.5431 53.9002 96.6047 54.0235C96.728 54.1467 96.8512 54.2699 97.036 54.3315C97.0976 54.3315 97.2208 54.3931 97.2825 54.3931C97.3441 54.3931 97.4673 54.3931 97.5289 54.3931C97.5905 54.3931 97.6521 54.3315 97.7137 54.3315C97.7753 54.2699 97.837 54.2083 97.837 54.1467C97.8986 54.0235 97.837 53.9619 97.837 53.9002C97.7753 53.8386 97.7137 53.7154 97.6521 53.6538C97.5905 53.5922 97.5289 53.5306 97.4057 53.469C97.3441 53.4074 97.2208 53.3457 97.1592 53.3457C97.036 53.2841 96.9128 53.1609 96.7896 53.0993C96.6663 53.0377 96.6047 52.9145 96.5431 52.7912C96.4815 52.668 96.4199 52.5448 96.4199 52.4216C96.4199 52.2984 96.4199 52.1751 96.4815 51.9903C96.5431 51.8055 96.6047 51.6823 96.728 51.559C96.8512 51.4358 96.9744 51.3742 97.1592 51.3126C97.3441 51.251 97.4673 51.251 97.6521 51.251C97.837 51.251 97.9602 51.3126 98.145 51.3126C98.3915 51.3742 98.5763 51.4974 98.7611 51.6823C98.946 51.8671 99.0692 52.0519 99.1308 52.2984L98.4531 52.4832Z" fill="#FFFDFD"/>
<path d="M100.978 50.1436L101.595 50.39L99.5614 55.7501L98.9453 55.5037L100.978 50.1436Z" fill="#FFFDFD"/>
<path d="M101.716 53.2228C101.962 53.1612 102.209 53.0996 102.517 53.0996C102.825 53.0996 103.01 53.1612 103.256 53.2844C103.502 53.4077 103.687 53.5309 103.81 53.6541C103.934 53.7773 104.057 53.9622 104.119 54.0854C104.18 54.2086 104.242 54.3934 104.18 54.5783C104.18 54.7631 104.119 54.8863 104.057 55.0095L103.318 56.673C103.256 56.7963 103.194 56.9195 103.194 56.9811C103.194 57.0427 103.133 57.1659 103.071 57.2892L102.517 57.0427C102.578 56.8579 102.64 56.673 102.701 56.5498C102.455 56.673 102.209 56.7963 102.024 56.7963C101.777 56.7963 101.531 56.7347 101.284 56.6114C101.161 56.5498 100.976 56.4882 100.853 56.365C100.73 56.2418 100.668 56.1185 100.545 55.9953C100.483 55.8721 100.422 55.7489 100.422 55.564C100.422 55.3792 100.422 55.256 100.545 55.0712C100.668 54.8863 100.792 54.7015 100.915 54.5783C101.038 54.455 101.284 54.3934 101.469 54.3934C101.654 54.3934 101.901 54.3934 102.147 54.455C102.393 54.5167 102.64 54.5783 102.886 54.7015L103.318 54.8863L103.379 54.7631C103.441 54.7015 103.441 54.5783 103.441 54.5167C103.441 54.455 103.441 54.3318 103.379 54.2086C103.318 54.0854 103.256 54.0238 103.194 53.9622C103.133 53.9006 103.01 53.8389 102.886 53.7773C102.763 53.7157 102.64 53.7157 102.578 53.6541C102.455 53.6541 102.393 53.6541 102.27 53.6541C102.147 53.6541 102.085 53.6541 102.024 53.7157C101.962 53.7157 101.839 53.7773 101.777 53.7773L101.716 53.2228ZM102.948 55.3176C102.825 55.256 102.64 55.1944 102.455 55.1328C102.27 55.0712 102.147 55.0712 101.962 55.0095C101.839 55.0095 101.654 55.0095 101.592 55.0712C101.469 55.1328 101.408 55.1944 101.346 55.3176C101.284 55.5024 101.284 55.6873 101.346 55.8105C101.408 55.9337 101.592 56.0569 101.839 56.1802C102.024 56.2418 102.147 56.3034 102.332 56.3034C102.455 56.3034 102.64 56.2418 102.701 56.1802C102.825 56.1185 102.886 56.0569 103.01 55.9337C103.071 55.8105 103.133 55.7489 103.194 55.6257L103.256 55.4408L102.948 55.3176Z" fill="#FFFDFD"/>
<path d="M107.014 55.8723L106.152 55.441L105.412 56.9197C105.351 56.9813 105.351 57.1045 105.289 57.1661C105.228 57.2277 105.228 57.351 105.228 57.4126C105.228 57.4742 105.228 57.5974 105.289 57.659C105.351 57.7206 105.412 57.7822 105.536 57.8438C105.597 57.9055 105.659 57.9054 105.782 57.9671C105.844 57.9671 105.967 58.0287 106.029 58.0287L105.72 58.5832C105.597 58.5832 105.536 58.5832 105.412 58.5216C105.289 58.4599 105.166 58.4599 105.104 58.3983C104.858 58.2751 104.735 58.1519 104.612 58.0287C104.488 57.9054 104.488 57.7822 104.488 57.5974C104.488 57.4742 104.488 57.351 104.55 57.1661C104.612 56.9813 104.673 56.9197 104.735 56.7965L105.597 55.133L104.92 54.7633L105.166 54.2088L105.844 54.5785L106.337 53.6543L106.953 53.9624L106.46 54.8865L107.322 55.3178L107.014 55.8723Z" fill="#FFFDFD"/>
<path d="M108.127 55.8088L108.743 56.1784L106.956 59.3206L106.34 58.9509L108.127 55.8088ZM108.619 54.6382C108.681 54.515 108.804 54.4533 108.928 54.3917C109.051 54.3301 109.174 54.3917 109.297 54.4533C109.42 54.515 109.482 54.6382 109.544 54.7614C109.605 54.8846 109.544 55.0078 109.482 55.1311C109.42 55.2543 109.297 55.3159 109.174 55.3775C109.051 55.4391 108.928 55.3775 108.804 55.3159C108.681 55.2543 108.619 55.1311 108.558 55.0078C108.558 54.8846 108.558 54.7614 108.619 54.6382Z" fill="#FFFDFD"/>
<path d="M108.616 58.1519C108.739 57.9055 108.924 57.7206 109.17 57.5974C109.355 57.4742 109.602 57.351 109.848 57.2894C110.095 57.2278 110.341 57.2278 110.588 57.2894C110.834 57.351 111.08 57.4126 111.327 57.5974C111.573 57.7823 111.758 57.9055 111.881 58.1519C112.005 58.3368 112.128 58.5832 112.189 58.8296C112.251 59.0761 112.251 59.3225 112.189 59.569C112.128 59.8154 112.066 60.0619 111.881 60.2467C111.758 60.4931 111.573 60.678 111.327 60.8012C111.142 60.9244 110.896 61.0476 110.649 61.1092C110.403 61.1709 110.156 61.1709 109.91 61.1092C109.663 61.0476 109.417 60.986 109.17 60.8012C108.924 60.6164 108.739 60.4931 108.616 60.2467C108.493 60.0003 108.37 59.8154 108.308 59.569C108.246 59.3225 108.246 59.0761 108.308 58.8296C108.37 58.5832 108.431 58.3984 108.616 58.1519ZM109.232 58.5832C109.109 58.7064 109.047 58.8913 109.047 59.0761C108.986 59.2609 108.986 59.3841 109.047 59.5074C109.047 59.6306 109.109 59.8154 109.232 59.9386C109.355 60.0619 109.417 60.1851 109.602 60.3083C109.787 60.4315 109.91 60.4931 110.095 60.4931C110.279 60.4931 110.403 60.4931 110.526 60.4931C110.649 60.4315 110.834 60.3699 110.957 60.3083C111.08 60.1851 111.204 60.0619 111.327 59.9386C111.45 59.8154 111.512 59.6306 111.512 59.4458C111.573 59.2609 111.573 59.1377 111.512 59.0145C111.512 58.8913 111.45 58.7064 111.327 58.5832C111.204 58.46 111.142 58.3368 110.957 58.2135C110.834 58.0903 110.649 58.0287 110.464 58.0287C110.279 58.0287 110.156 58.0287 110.033 58.0287C109.91 58.0903 109.725 58.1519 109.602 58.2135C109.417 58.2751 109.294 58.3984 109.232 58.5832Z" fill="#FFFDFD"/>
<path d="M113.547 59.2598L114.102 59.691L113.793 60.1223C113.978 59.9991 114.163 59.9991 114.41 59.9991C114.656 59.9991 114.902 60.1223 115.087 60.3072C115.211 60.4304 115.334 60.5536 115.457 60.6768C115.58 60.8 115.642 60.9849 115.642 61.1081C115.642 61.2313 115.642 61.4161 115.58 61.601C115.519 61.7858 115.457 61.9706 115.272 62.1555L113.855 64.0038L113.301 63.5725L114.594 61.909C114.718 61.7858 114.779 61.6626 114.779 61.5394C114.841 61.4161 114.841 61.2929 114.841 61.1697C114.841 61.0465 114.779 60.9849 114.718 60.8616C114.656 60.7384 114.594 60.6768 114.533 60.6152C114.41 60.5536 114.286 60.492 114.163 60.4304C114.04 60.3688 113.917 60.3688 113.793 60.4304C113.67 60.4304 113.547 60.492 113.424 60.6152C113.301 60.7384 113.177 60.8616 113.054 60.9849L111.945 62.4635L111.391 62.0323L113.547 59.2598Z" fill="#FFFDFD"/>
<path d="M119.953 62.1562L120.692 62.9572L118.967 67.0235L123.095 65.36L123.834 66.161L120.014 69.9192L119.521 69.4263L122.664 66.3458L118.228 68.1325L117.858 67.7628L119.768 63.3269L116.626 66.4074L116.133 65.9145L119.953 62.1562Z" fill="#FFFDFD"/>
<path d="M123.464 68.44L123.895 68.9945L121.123 71.3357L120.691 70.7812L123.464 68.44ZM124.326 67.5158C124.45 67.4542 124.573 67.3926 124.696 67.3926C124.819 67.3926 124.943 67.4542 125.066 67.5774C125.127 67.7006 125.189 67.8239 125.189 67.9471C125.189 68.0703 125.127 68.1935 125.004 68.3167C124.881 68.3784 124.758 68.44 124.635 68.44C124.511 68.44 124.388 68.3784 124.265 68.2551C124.203 68.1319 124.142 68.0087 124.142 67.8855C124.142 67.7006 124.203 67.5774 124.326 67.5158Z" fill="#FFFDFD"/>
<path d="M125.003 71.9517C125.065 71.8284 125.065 71.7052 125.003 71.582C125.003 71.4588 124.941 71.3356 124.818 71.1507C124.695 71.0275 124.633 70.9043 124.51 70.9043C124.387 70.8427 124.264 70.8427 124.14 70.9659C124.079 71.0275 124.017 71.0891 124.017 71.2123C124.017 71.3356 124.017 71.3972 124.017 71.5204C124.017 71.6436 124.079 71.7052 124.14 71.8284C124.202 71.9517 124.202 72.0133 124.264 72.0749C124.325 72.1981 124.387 72.3213 124.387 72.5062C124.448 72.6294 124.448 72.7526 124.448 72.8758C124.448 72.9991 124.387 73.1223 124.325 73.2455C124.264 73.3687 124.14 73.4919 124.017 73.5536C123.832 73.6768 123.709 73.7384 123.524 73.7384C123.339 73.7384 123.216 73.7384 123.031 73.6768C122.847 73.6152 122.723 73.5536 122.6 73.4303C122.477 73.3071 122.354 73.1839 122.23 73.0607C122.046 72.8142 121.922 72.5678 121.861 72.3213C121.799 72.0749 121.799 71.8284 121.922 71.5204L122.6 71.6436C122.6 71.8284 122.6 71.9517 122.6 72.1365C122.6 72.3213 122.662 72.4446 122.785 72.6294C122.847 72.691 122.908 72.7526 122.97 72.8142C123.031 72.8758 123.093 72.9374 123.155 72.9374C123.216 72.9991 123.278 72.9991 123.401 72.9991C123.463 72.9991 123.524 72.9991 123.586 72.9374C123.647 72.8758 123.709 72.8142 123.709 72.691C123.709 72.6294 123.709 72.5062 123.709 72.4446C123.709 72.3829 123.647 72.2597 123.586 72.1365C123.524 72.0133 123.524 71.9517 123.463 71.8901C123.401 71.7668 123.339 71.6436 123.278 71.4588C123.216 71.3356 123.216 71.2123 123.216 71.0891C123.216 70.9659 123.216 70.8427 123.278 70.7194C123.339 70.5962 123.401 70.473 123.586 70.4114C123.709 70.2882 123.894 70.2266 124.079 70.2266C124.264 70.2266 124.387 70.2266 124.572 70.2882C124.756 70.3498 124.88 70.4114 125.003 70.5346C125.126 70.6578 125.249 70.7811 125.373 70.9043C125.496 71.0891 125.619 71.3356 125.681 71.5204C125.742 71.7668 125.742 72.0133 125.619 72.1981L125.003 71.9517Z" fill="#FFFDFD"/>
<path d="M126.979 74.7254C127.041 74.6021 127.041 74.4789 127.041 74.3557C127.041 74.2325 126.979 74.0476 126.856 73.9244C126.794 73.8012 126.671 73.678 126.548 73.6164C126.425 73.5548 126.302 73.5548 126.178 73.6164C126.117 73.678 126.055 73.7396 125.994 73.8628C125.994 73.986 125.994 74.0476 125.994 74.1709C125.994 74.2941 126.055 74.3557 126.055 74.4789C126.055 74.6021 126.117 74.6638 126.178 74.7254C126.24 74.8486 126.302 75.0334 126.302 75.1566C126.302 75.2799 126.363 75.4031 126.302 75.5263C126.24 75.6495 126.24 75.7728 126.178 75.896C126.117 76.0192 125.994 76.0808 125.87 76.204C125.685 76.3273 125.562 76.3889 125.377 76.3889C125.193 76.3889 125.069 76.3889 124.885 76.3273C124.761 76.2656 124.576 76.1424 124.453 76.0192C124.33 75.896 124.207 75.7728 124.084 75.5879C123.899 75.3415 123.837 75.095 123.776 74.8486C123.714 74.6021 123.776 74.3557 123.837 74.0476L124.453 74.2325C124.453 74.4173 124.392 74.5405 124.392 74.7254C124.392 74.9102 124.453 75.0334 124.576 75.2183C124.638 75.2799 124.7 75.3415 124.761 75.4031C124.823 75.4647 124.885 75.5263 124.946 75.5263C125.008 75.5879 125.069 75.5879 125.131 75.5879C125.193 75.5879 125.254 75.5879 125.316 75.5263C125.377 75.4647 125.439 75.4031 125.501 75.2799C125.501 75.2183 125.501 75.095 125.501 75.0334C125.501 74.9102 125.439 74.8486 125.439 74.7254C125.439 74.6021 125.377 74.5405 125.316 74.4789C125.254 74.3557 125.193 74.1709 125.193 74.0476C125.131 73.9244 125.131 73.8012 125.131 73.678C125.131 73.5548 125.193 73.4315 125.254 73.3083C125.316 73.1851 125.439 73.0619 125.562 73.0003C125.747 72.877 125.87 72.8154 126.055 72.8154C126.24 72.8154 126.363 72.8154 126.548 72.877C126.671 72.9387 126.856 73.0003 126.979 73.1235C127.103 73.2467 127.226 73.3699 127.287 73.4931C127.411 73.678 127.534 73.9244 127.534 74.1709C127.595 74.4173 127.534 74.6638 127.472 74.8486L126.979 74.7254Z" fill="#FFFDFD"/>
<path d="M128.581 75.5256L128.95 76.1417L125.87 77.9901L125.5 77.374L128.581 75.5256ZM129.566 74.7247C129.69 74.6631 129.813 74.6631 129.936 74.6631C130.059 74.6631 130.182 74.7863 130.244 74.9095C130.306 75.0328 130.306 75.156 130.306 75.2792C130.306 75.4024 130.182 75.5256 130.059 75.5872C129.936 75.6489 129.813 75.6489 129.69 75.6489C129.566 75.5872 129.443 75.5256 129.381 75.4024C129.32 75.2792 129.32 75.156 129.32 75.0328C129.32 74.9095 129.443 74.7863 129.566 74.7247Z" fill="#FFFDFD"/>
<path d="M127.841 77.8049C128.088 77.6817 128.334 77.6201 128.581 77.6201C128.827 77.6201 129.073 77.6201 129.32 77.6817C129.566 77.7433 129.751 77.8666 129.936 78.0514C130.121 78.2362 130.306 78.4211 130.429 78.6675C130.552 78.9139 130.614 79.1604 130.675 79.4068C130.675 79.6533 130.675 79.8997 130.614 80.1462C130.552 80.3926 130.429 80.5774 130.244 80.7623C130.059 80.9471 129.874 81.1319 129.69 81.2552C129.443 81.3784 129.197 81.44 128.95 81.44C128.704 81.44 128.457 81.44 128.211 81.3784C127.964 81.3168 127.78 81.1936 127.595 81.0087C127.41 80.8239 127.225 80.6391 127.102 80.3926C126.979 80.1462 126.917 79.8997 126.855 79.6533C126.855 79.4068 126.855 79.1604 126.917 78.9139C126.979 78.6675 127.102 78.4827 127.287 78.2978C127.472 78.113 127.595 77.9282 127.841 77.8049ZM128.149 78.4211C127.964 78.4827 127.841 78.6059 127.718 78.7291C127.595 78.8523 127.533 78.9756 127.472 79.0988C127.41 79.222 127.41 79.4068 127.41 79.5301C127.41 79.6533 127.472 79.8381 127.533 80.0229C127.595 80.2078 127.718 80.331 127.841 80.3926C127.964 80.5158 128.088 80.5774 128.273 80.5774C128.396 80.6391 128.581 80.6391 128.704 80.5774C128.889 80.5774 129.012 80.5158 129.197 80.3926C129.382 80.331 129.505 80.2078 129.628 80.0846C129.751 79.9613 129.813 79.8381 129.874 79.7149C129.936 79.5917 129.936 79.4068 129.936 79.2836C129.936 79.1604 129.874 78.9756 129.813 78.7907C129.751 78.6059 129.628 78.4827 129.505 78.4211C129.382 78.2978 129.258 78.2362 129.073 78.2362C128.889 78.2362 128.765 78.1746 128.642 78.2362C128.519 78.2978 128.334 78.3594 128.149 78.4211Z" fill="#FFFDFD"/>
<path d="M131.6 81.1953L131.846 81.8114L131.353 82.0579C131.538 82.0579 131.784 82.1195 131.969 82.3043C132.154 82.4275 132.339 82.674 132.4 82.9204C132.462 83.1053 132.524 83.2285 132.524 83.4133C132.524 83.5981 132.524 83.7214 132.462 83.9062C132.4 84.0294 132.339 84.2142 132.154 84.3375C132.031 84.4607 131.846 84.5839 131.6 84.7071L129.443 85.6313L129.197 85.0152L131.168 84.1526C131.291 84.091 131.415 84.0294 131.538 83.9062C131.6 83.8446 131.723 83.7214 131.723 83.5981C131.784 83.4749 131.784 83.4133 131.784 83.2901C131.784 83.1669 131.723 83.1053 131.723 82.982C131.661 82.8588 131.6 82.7356 131.476 82.674C131.353 82.6124 131.291 82.4891 131.168 82.4891C131.045 82.4275 130.922 82.4275 130.737 82.4275C130.552 82.4275 130.429 82.4891 130.182 82.5508L128.457 83.2901L128.211 82.674L131.6 81.1953Z" fill="#FFFDFD"/>
<path d="M38.5667 135.289L39.6757 136.768C39.7989 136.953 39.9221 137.137 39.9837 137.322C40.0453 137.507 40.1069 137.692 40.1069 137.877C40.1069 138.062 40.0453 138.246 39.9837 138.37C39.9221 138.493 39.7989 138.678 39.6141 138.801C39.3676 138.986 39.1212 139.047 38.8747 139.047C38.6283 139.047 38.3818 138.924 38.1354 138.801C38.197 138.924 38.2586 139.109 38.3202 139.232C38.3202 139.417 38.3202 139.54 38.3202 139.725C38.3202 139.848 38.2586 140.033 38.1354 140.156C38.0122 140.28 37.9506 140.403 37.7657 140.526C37.5809 140.649 37.3961 140.772 37.1496 140.772C36.9648 140.834 36.7183 140.772 36.5335 140.711C36.3487 140.649 36.1022 140.526 35.9174 140.403C35.7326 140.28 35.5477 140.095 35.3629 139.91L34.2539 138.493L38.5667 135.289ZM35.3013 138.739L35.979 139.602C36.0406 139.663 36.1022 139.787 36.2255 139.848C36.3487 139.91 36.4103 140.033 36.5335 140.033C36.6567 140.095 36.78 140.095 36.9032 140.095C37.0264 140.095 37.2112 140.033 37.3345 139.91C37.5809 139.725 37.7041 139.479 37.7041 139.232C37.7041 138.986 37.5809 138.678 37.3961 138.431L36.7183 137.569L35.3013 138.739ZM37.2728 137.261L37.8889 138.062C37.9506 138.185 38.0738 138.246 38.1354 138.308C38.2586 138.37 38.3202 138.431 38.4434 138.493C38.5667 138.554 38.6899 138.554 38.7515 138.493C38.8747 138.493 38.9979 138.431 39.1212 138.308C39.306 138.185 39.3676 138 39.4292 137.815C39.4908 137.63 39.4292 137.384 39.2444 137.137L38.5667 136.213L37.2728 137.261Z" fill="#FFFDFD"/>
<path d="M38.5653 141.018C38.7502 140.833 38.9966 140.71 39.1814 140.649C39.4279 140.587 39.6743 140.525 39.9208 140.525C40.1672 140.525 40.4137 140.587 40.5985 140.71C40.8449 140.833 41.0298 140.957 41.2146 141.141C41.3994 141.326 41.5227 141.573 41.5843 141.819C41.6459 142.066 41.7075 142.312 41.7075 142.559C41.7075 142.805 41.6459 143.051 41.5227 143.236C41.3994 143.483 41.2762 143.668 41.0914 143.852C40.9065 144.037 40.6601 144.16 40.4753 144.222C40.2288 144.284 39.9824 144.345 39.7359 144.345C39.4895 144.345 39.243 144.284 39.0582 144.16C38.8118 144.037 38.6269 143.914 38.4421 143.729C38.2573 143.544 38.1341 143.298 38.0724 143.051C38.0108 142.805 37.9492 142.559 37.9492 142.312C37.9492 142.066 38.0108 141.819 38.1341 141.634C38.1957 141.388 38.3805 141.142 38.5653 141.018ZM39.0582 141.511C38.935 141.634 38.8118 141.758 38.7502 141.881C38.6885 142.004 38.6269 142.189 38.6269 142.312C38.6269 142.435 38.6269 142.62 38.6886 142.743C38.7502 142.867 38.8118 143.051 38.935 143.175C39.0582 143.298 39.1814 143.421 39.3663 143.483C39.4895 143.544 39.6743 143.606 39.7975 143.606C39.9208 143.606 40.1056 143.544 40.2288 143.483C40.352 143.421 40.5369 143.298 40.6601 143.175C40.7833 143.051 40.9065 142.928 40.9682 142.743C41.0298 142.559 41.0914 142.435 41.0914 142.312C41.0914 142.189 41.0914 142.004 41.0298 141.881C40.9682 141.758 40.9065 141.573 40.7833 141.45C40.6601 141.326 40.5369 141.203 40.352 141.141C40.2288 141.08 40.044 141.018 39.9208 141.018C39.7975 141.018 39.6127 141.018 39.4895 141.141C39.3047 141.326 39.1814 141.388 39.0582 141.511Z" fill="#FFFDFD"/>
<path d="M44.5447 141.636L45.0375 142.129L41.0945 146.195L40.6016 145.702L44.5447 141.636Z" fill="#FFFDFD"/>
<path d="M43.0055 145.579C43.1903 145.394 43.3752 145.209 43.6216 145.148C43.868 145.086 44.0529 144.963 44.2993 144.963C44.5458 144.963 44.7922 144.963 45.0387 145.024C45.2851 145.086 45.4699 145.209 45.7164 145.394C45.9012 145.579 46.086 145.764 46.2093 146.01C46.3325 146.257 46.3941 146.442 46.3941 146.688C46.3941 146.934 46.3941 147.181 46.3325 147.427C46.2709 147.674 46.1477 147.859 45.9628 148.105C45.778 148.29 45.5932 148.475 45.3467 148.536C45.1003 148.66 44.9154 148.721 44.669 148.721C44.4225 148.721 44.1761 148.721 43.9297 148.66C43.6832 148.598 43.4984 148.475 43.2519 148.29C43.0055 148.105 42.8823 147.92 42.7591 147.674C42.6358 147.427 42.5742 147.242 42.5742 146.996C42.5742 146.75 42.5742 146.503 42.6358 146.257C42.6974 146.01 42.8207 145.764 43.0055 145.579ZM43.4984 146.072C43.3752 146.195 43.3135 146.38 43.2519 146.503C43.1903 146.626 43.1903 146.811 43.1903 146.934C43.1903 147.058 43.2519 147.242 43.3136 147.366C43.3752 147.489 43.4984 147.612 43.6216 147.735C43.7448 147.859 43.9297 147.92 44.0529 147.982C44.1761 148.043 44.3609 148.043 44.4842 148.043C44.6074 148.043 44.7922 147.982 44.9154 147.92C45.0387 147.859 45.1619 147.735 45.2851 147.612C45.4083 147.489 45.4699 147.304 45.5315 147.181C45.5932 147.058 45.5932 146.873 45.5932 146.75C45.5932 146.626 45.5315 146.442 45.4699 146.318C45.4083 146.195 45.2851 146.072 45.1619 145.949C45.0387 145.825 44.8538 145.764 44.7306 145.702C44.6074 145.641 44.4225 145.641 44.2993 145.641C44.1761 145.641 43.9913 145.702 43.868 145.764C43.7448 145.825 43.6216 145.887 43.4984 146.072Z" fill="#FFFDFD"/>
<path d="M50.4595 147.057L51.0756 147.488L47.995 151.862L47.3789 151.431L50.4595 147.057Z" fill="#FFFDFD"/>
<path d="M50.949 149.582L51.5035 149.952L51.1954 150.445C51.3803 150.321 51.5651 150.26 51.8116 150.26C52.058 150.26 52.3044 150.321 52.5509 150.506C52.6741 150.568 52.7973 150.691 52.9205 150.814C53.0438 150.937 53.1054 151.061 53.167 151.246C53.2286 151.43 53.2286 151.554 53.167 151.738C53.1054 151.923 53.0438 152.108 52.9205 152.293L51.6883 154.264L51.1338 153.895L52.2428 152.108C52.3044 151.985 52.3661 151.862 52.4277 151.738C52.4277 151.615 52.4277 151.492 52.4277 151.43C52.4277 151.307 52.3661 151.246 52.3044 151.184C52.2428 151.122 52.1812 151.061 52.058 150.999C51.9348 150.937 51.8116 150.876 51.6883 150.876C51.5651 150.876 51.4419 150.876 51.3187 150.876C51.1954 150.937 51.0722 150.999 50.949 151.061C50.8258 151.122 50.7026 151.307 50.5793 151.492L49.5936 153.032L49.0391 152.663L50.949 149.582Z" fill="#FFFDFD"/>
<path d="M56.0038 156.545L55.3877 156.237L55.6342 155.805C55.4494 155.929 55.2029 155.99 54.9565 155.929C54.71 155.929 54.4636 155.867 54.2787 155.744C54.0323 155.621 53.8475 155.436 53.6626 155.251C53.4778 155.066 53.4162 154.881 53.3546 154.635C53.293 154.388 53.293 154.204 53.293 153.957C53.293 153.711 53.4162 153.464 53.5394 153.218C53.6626 152.971 53.7859 152.787 53.9707 152.602C54.1555 152.417 54.3404 152.294 54.5868 152.232C54.8332 152.17 55.0181 152.109 55.2645 152.17C55.511 152.17 55.7574 152.232 56.0038 152.355C56.2503 152.478 56.4351 152.602 56.5583 152.848C56.6816 153.033 56.8048 153.279 56.8048 153.464L58.037 151.123L58.6531 151.431L56.0038 156.545ZM54.6484 155.189C54.8332 155.251 54.9565 155.313 55.1413 155.313C55.3261 155.313 55.4493 155.313 55.5726 155.251C55.6958 155.189 55.819 155.128 55.9422 155.005C56.0655 154.881 56.1887 154.758 56.2503 154.573C56.3119 154.388 56.3735 154.265 56.4351 154.08C56.4351 153.896 56.4351 153.772 56.4351 153.649C56.4351 153.526 56.3119 153.403 56.2503 153.279C56.1271 153.156 56.0038 153.033 55.8806 152.971C55.6958 152.91 55.5726 152.848 55.3877 152.848C55.2029 152.848 55.0797 152.848 54.9565 152.91C54.8332 152.971 54.71 153.033 54.5868 153.156C54.4636 153.279 54.3404 153.403 54.2787 153.587C54.2171 153.772 54.1555 153.896 54.0939 154.08C54.0939 154.265 54.0939 154.388 54.0939 154.512C54.1555 154.635 54.2171 154.758 54.2787 154.881C54.3404 155.005 54.4636 155.128 54.6484 155.189Z" fill="#FFFDFD"/>
<path d="M58.5889 153.773L59.205 154.019L57.788 157.285L57.1719 157.038L58.5889 153.773ZM58.9586 152.541C59.0202 152.417 59.0818 152.356 59.205 152.294C59.3283 152.233 59.4515 152.233 59.5747 152.294C59.6979 152.356 59.7595 152.417 59.8211 152.541C59.8828 152.664 59.8828 152.787 59.8211 152.91C59.7595 153.034 59.6979 153.095 59.5747 153.157C59.4515 153.218 59.3283 153.218 59.205 153.157C59.0818 153.095 59.0202 153.034 58.9586 152.91C58.897 152.787 58.897 152.664 58.9586 152.541Z" fill="#FFFDFD"/>
<path d="M60.0122 154.881C60.2587 154.758 60.5051 154.758 60.7516 154.758C60.998 154.758 61.2444 154.819 61.4909 154.881C61.7373 155.004 61.9222 155.066 62.107 155.189C62.2302 155.312 62.3534 155.436 62.4151 155.62C62.4767 155.744 62.5383 155.928 62.5383 156.052C62.5383 156.175 62.5383 156.36 62.4767 156.483L61.7989 158.208C61.7373 158.331 61.7373 158.454 61.6757 158.516C61.6141 158.639 61.6141 158.701 61.6141 158.824L61.0596 158.639C61.1212 158.454 61.1828 158.27 61.2444 158.146C60.998 158.331 60.8132 158.393 60.5667 158.393C60.3203 158.393 60.0738 158.393 59.8274 158.27C59.6426 158.208 59.5193 158.146 59.3961 158.023C59.2729 157.9 59.1497 157.838 59.0881 157.715C59.0265 157.592 58.9648 157.469 58.9648 157.284C58.9648 157.161 58.9648 156.976 59.0265 156.791C59.0881 156.545 59.2113 156.421 59.3961 156.298C59.5193 156.175 59.7042 156.113 59.9506 156.113C60.1355 156.113 60.3819 156.113 60.6283 156.113C60.8748 156.175 61.1212 156.236 61.3677 156.298L61.8606 156.483L61.9222 156.36C61.9838 156.298 61.9838 156.175 61.9838 156.113C61.9838 155.99 61.9838 155.928 61.9222 155.805C61.8606 155.682 61.7989 155.62 61.7373 155.559C61.6757 155.497 61.5525 155.436 61.4293 155.374C61.3061 155.312 61.1828 155.312 61.1212 155.312C60.998 155.312 60.9364 155.312 60.8132 155.312C60.7516 155.312 60.6283 155.312 60.5667 155.374C60.5051 155.436 60.4435 155.436 60.3203 155.436L60.0122 154.881ZM61.3061 156.853C61.1828 156.791 60.998 156.729 60.8132 156.729C60.6283 156.668 60.5051 156.668 60.3203 156.668C60.1355 156.668 60.0122 156.668 59.9506 156.729C59.889 156.791 59.7658 156.853 59.7042 156.976C59.6426 157.161 59.6426 157.345 59.7658 157.469C59.889 157.592 60.0122 157.715 60.2587 157.777C60.4435 157.838 60.5667 157.9 60.7516 157.838C60.9364 157.777 60.998 157.777 61.1212 157.715C61.2444 157.654 61.3061 157.592 61.4293 157.469C61.4909 157.345 61.5525 157.284 61.6141 157.161L61.6757 156.976L61.3061 156.853Z" fill="#FFFDFD"/>
<path d="M65.554 157.283C65.6156 157.098 65.6772 156.975 65.8005 156.79C65.9237 156.667 66.0469 156.543 66.1701 156.482C66.2934 156.42 66.4782 156.358 66.663 156.297C66.8478 156.297 67.0327 156.297 67.2175 156.297C67.4023 156.297 67.5256 156.42 67.7104 156.543C67.8952 156.667 67.9568 156.79 68.0185 156.913C68.0801 157.036 68.1417 157.221 68.2033 157.406C68.2649 157.591 68.2033 157.776 68.2033 157.96C68.1417 158.145 68.0801 158.268 67.9568 158.453C67.8336 158.576 67.7104 158.7 67.5872 158.761C67.464 158.823 67.2791 158.885 67.0943 158.946C66.9095 158.946 66.7246 158.946 66.5398 158.946C66.355 158.885 66.2317 158.823 66.0469 158.7C65.9237 158.576 65.8005 158.453 65.7389 158.33C65.6772 158.207 65.6156 158.022 65.554 157.837C65.4924 157.652 65.4924 157.467 65.554 157.283Z" fill="#FFFDFD"/>
<path d="M71.7745 155.99L73.6228 156.237C73.9309 156.298 74.2389 156.36 74.4238 156.483C74.6086 156.606 74.7934 156.73 74.9166 156.914C75.0399 157.099 75.1015 157.222 75.1015 157.407C75.1015 157.592 75.1015 157.777 75.1015 157.9C75.1015 158.085 75.0399 158.208 74.9783 158.393C74.9166 158.578 74.7934 158.701 74.6702 158.824C74.547 158.948 74.3621 159.009 74.1157 159.071C73.8693 159.132 73.6228 159.132 73.2532 159.071L72.0825 158.886L71.7745 161.227L71.0352 161.104L71.7745 155.99ZM72.1442 158.393L73.0683 158.516C73.1915 158.516 73.3764 158.516 73.4996 158.516C73.6228 158.516 73.746 158.516 73.8693 158.455C73.9925 158.393 74.0541 158.331 74.1773 158.208C74.2389 158.085 74.3005 157.962 74.3621 157.777C74.3621 157.592 74.3621 157.469 74.3005 157.346C74.2389 157.222 74.1773 157.099 74.0541 157.038C73.9309 156.976 73.8693 156.914 73.6844 156.853C73.4996 156.791 73.438 156.791 73.2532 156.791L72.329 156.668L72.1442 158.393Z" fill="#FFFDFD"/>
<path d="M75.9655 156.174L76.6433 156.235L76.1504 161.904L75.4727 161.842L75.9655 156.174Z" fill="#FFFDFD"/>
<path d="M77.4448 158.825C77.6296 158.64 77.876 158.517 78.1225 158.455C78.3689 158.394 78.6154 158.332 78.8618 158.332C79.1083 158.332 79.3547 158.394 79.5395 158.455C79.7244 158.517 79.8476 158.64 79.9708 158.702C80.094 158.825 80.1557 158.948 80.2173 159.071C80.2789 159.195 80.2789 159.379 80.2789 159.503L80.2173 161.351C80.2173 161.474 80.2173 161.597 80.2173 161.721C80.2173 161.844 80.2173 161.905 80.2173 162.029H79.6012C79.6012 161.844 79.6012 161.659 79.6012 161.474C79.4163 161.721 79.2315 161.844 79.0467 161.967C78.8618 162.029 78.6154 162.09 78.3073 162.09C78.1225 162.09 77.9993 162.029 77.8144 162.029C77.6296 162.029 77.5064 161.905 77.4448 161.844C77.3832 161.782 77.2599 161.659 77.1983 161.474C77.1367 161.351 77.1367 161.166 77.1367 160.981C77.1367 160.735 77.1983 160.55 77.3216 160.427C77.4448 160.304 77.568 160.18 77.7528 160.057C77.9377 159.934 78.1225 159.872 78.3689 159.872C78.6154 159.872 78.8618 159.811 79.1083 159.811H79.6012V159.687C79.6012 159.626 79.6012 159.503 79.5395 159.441C79.4779 159.379 79.4779 159.256 79.4163 159.195C79.3547 159.133 79.2931 159.071 79.1699 159.01C79.0467 158.948 78.9234 158.948 78.8002 158.948C78.677 158.948 78.5538 158.948 78.4305 158.948C78.3073 158.948 78.2457 159.01 78.1841 159.01C78.1225 159.071 77.9993 159.071 77.9377 159.133C77.8761 159.195 77.8144 159.256 77.7528 159.256L77.4448 158.825ZM79.3547 160.304C79.1699 160.304 79.0467 160.304 78.8618 160.304C78.677 160.304 78.5538 160.365 78.3689 160.365C78.2457 160.427 78.1225 160.488 77.9993 160.55C77.9377 160.612 77.8761 160.735 77.8761 160.92C77.8761 161.105 77.9377 161.289 78.0609 161.351C78.1841 161.413 78.3689 161.474 78.6154 161.474C78.8002 161.474 78.985 161.474 79.1083 161.413C79.2315 161.351 79.3547 161.289 79.4163 161.166C79.4779 161.043 79.5395 160.981 79.6012 160.858C79.6628 160.735 79.6628 160.612 79.6628 160.488V160.242L79.3547 160.304Z" fill="#FFFDFD"/>
<path d="M83.2379 159.009H82.2521L82.3137 160.611C82.3137 160.734 82.3137 160.796 82.3137 160.919C82.3137 161.042 82.3137 161.104 82.3753 161.165C82.4369 161.227 82.4369 161.288 82.5602 161.35C82.6218 161.412 82.745 161.412 82.8682 161.412C82.9298 161.412 83.053 161.412 83.1147 161.412C83.1763 161.412 83.2995 161.35 83.3611 161.35V161.966C83.2995 162.028 83.1763 162.028 83.053 162.089C82.9298 162.151 82.8066 162.151 82.745 162.151C82.4985 162.151 82.2521 162.151 82.1289 162.089C82.0057 162.028 81.8824 161.905 81.8208 161.843C81.7592 161.72 81.6976 161.596 81.6976 161.473C81.6976 161.35 81.6976 161.165 81.636 161.042L81.5744 159.194H80.7734V158.578H81.5744V157.592H82.2521V158.578H83.2379V159.009Z" fill="#FFFDFD"/>
<path d="M83.8516 157.1C83.8516 156.977 83.9132 156.854 83.9748 156.731C84.0364 156.608 84.1596 156.546 84.2828 156.546C84.4061 156.546 84.5293 156.546 84.6525 156.669C84.7757 156.731 84.8373 156.854 84.8373 156.977C84.8373 157.1 84.8373 157.224 84.7141 157.347C84.5909 157.47 84.5293 157.532 84.4061 157.532C84.2828 157.532 84.1596 157.47 84.0364 157.408C83.9132 157.347 83.8516 157.224 83.8516 157.1ZM84.098 158.394L84.7757 158.333L85.0222 161.906L84.3445 161.968L84.098 158.394Z" fill="#FFFDFD"/>
<path d="M85.8242 158.27L86.5019 158.208L86.5636 158.763C86.6252 158.578 86.7484 158.393 86.9332 158.27C87.118 158.147 87.3645 158.023 87.6109 158.023C87.7958 158.023 87.919 158.023 88.1038 158.023C88.2887 158.085 88.4119 158.147 88.5351 158.208C88.6583 158.27 88.7815 158.455 88.8432 158.578C88.9048 158.763 88.9664 158.948 89.028 159.194L89.336 161.474L88.6583 161.535L88.4735 159.379C88.4735 159.194 88.4119 159.071 88.3503 158.948C88.2887 158.824 88.227 158.763 88.1654 158.701C88.1038 158.64 87.9806 158.578 87.8574 158.578C87.7342 158.578 87.6725 158.578 87.5493 158.578C87.4261 158.578 87.3029 158.64 87.1797 158.701C87.0564 158.763 86.9948 158.824 86.8716 158.948C86.7484 159.071 86.7484 159.194 86.6868 159.317C86.6252 159.502 86.6252 159.625 86.6868 159.872L86.9332 161.72L86.2555 161.782L85.8242 158.27Z" fill="#FFFDFD"/>
<path d="M93.7105 160.55L93.0328 160.673L92.9096 160.119C92.8479 160.303 92.7247 160.488 92.5399 160.673C92.3551 160.858 92.1086 160.919 91.8622 160.981C91.6773 161.043 91.4925 161.043 91.3693 160.981C91.2461 160.919 91.0612 160.919 90.938 160.796C90.8148 160.735 90.6916 160.611 90.5683 160.427C90.4451 160.242 90.3835 160.057 90.3219 159.872L89.8906 157.592L90.5683 157.469L90.9996 159.564C91.0612 159.749 91.0612 159.872 91.1228 159.995C91.1845 160.119 91.2461 160.18 91.3693 160.242C91.4309 160.303 91.5541 160.303 91.6773 160.365C91.8006 160.427 91.8622 160.365 91.9854 160.365C92.1086 160.365 92.2318 160.303 92.3551 160.242C92.4783 160.18 92.5399 160.057 92.6015 159.995C92.6631 159.872 92.7247 159.749 92.7247 159.564C92.7247 159.379 92.7247 159.256 92.6631 159.01L92.2934 157.223L92.9712 157.1L93.7105 160.55Z" fill="#FFFDFD"/>
<path d="M93.8945 156.916L94.5106 156.731L94.6955 157.286C94.6955 157.224 94.6955 157.162 94.7571 157.101C94.8187 157.039 94.8803 156.916 94.9419 156.854C95.0035 156.731 95.1267 156.669 95.25 156.608C95.3732 156.546 95.4964 156.485 95.6196 156.423C95.8661 156.361 96.1125 156.3 96.2974 156.361C96.4822 156.423 96.667 156.546 96.8519 156.731C96.9135 156.485 96.9751 156.3 97.1599 156.115C97.3447 155.93 97.5296 155.807 97.7144 155.745C97.9608 155.684 98.2073 155.622 98.3921 155.684C98.577 155.745 98.7618 155.807 98.885 155.93C99.0082 156.053 99.1315 156.177 99.2547 156.361C99.3779 156.546 99.4395 156.731 99.5011 156.916L100.117 158.887L99.5011 159.072L98.885 157.162C98.8234 157.039 98.8234 156.916 98.7618 156.793C98.7002 156.669 98.6386 156.608 98.577 156.485C98.5153 156.423 98.3921 156.361 98.2689 156.361C98.1457 156.361 98.0225 156.361 97.8376 156.423C97.5296 156.546 97.3447 156.669 97.2831 156.916C97.2215 157.162 97.2215 157.409 97.2831 157.717L97.8376 159.565L97.1599 159.75L96.6054 157.963C96.5438 157.778 96.4822 157.655 96.4206 157.532C96.359 157.409 96.2974 157.286 96.2357 157.224C96.1741 157.162 96.0509 157.101 95.9277 157.039C95.8045 157.039 95.6812 157.039 95.4964 157.101C95.3732 157.162 95.25 157.224 95.1884 157.286C95.0651 157.347 95.0035 157.47 94.9419 157.594C94.8803 157.717 94.8803 157.84 94.8803 158.025C94.8803 158.21 94.8803 158.333 94.9419 158.518L95.4964 160.305L94.8803 160.489L93.8945 156.916Z" fill="#FFFDFD"/>
<path d="M100.547 152.786L101.286 152.416L104.552 155.682L104.182 151.061L104.921 150.753L105.291 156.483L104.675 156.791L100.547 152.786Z" fill="#FFFDFD"/>
<path d="M105.906 152.663C105.968 152.417 106.091 152.171 106.276 151.986C106.461 151.801 106.646 151.616 106.892 151.493C107.138 151.37 107.323 151.308 107.508 151.246C107.693 151.185 107.878 151.185 108.063 151.246C108.247 151.308 108.371 151.37 108.494 151.431C108.617 151.554 108.74 151.616 108.802 151.801L109.726 153.403C109.788 153.526 109.849 153.588 109.911 153.711C109.973 153.772 110.034 153.896 110.096 153.957L109.541 154.265C109.418 154.142 109.356 153.957 109.233 153.834C109.233 154.081 109.11 154.327 108.987 154.512C108.864 154.697 108.679 154.881 108.432 155.005C108.309 155.066 108.124 155.128 108.001 155.189C107.878 155.251 107.693 155.251 107.57 155.189C107.447 155.189 107.323 155.128 107.2 155.005C107.077 154.943 106.954 154.82 106.892 154.635C106.769 154.45 106.707 154.265 106.769 154.08C106.769 153.896 106.83 153.711 106.954 153.526C107.077 153.341 107.2 153.218 107.385 153.033C107.57 152.91 107.755 152.725 108.001 152.602L108.432 152.355L108.371 152.232C108.309 152.171 108.247 152.109 108.186 152.047C108.124 151.986 108.001 151.924 107.939 151.924C107.878 151.924 107.755 151.863 107.631 151.924C107.508 151.924 107.385 151.986 107.262 152.047C107.138 152.109 107.077 152.171 106.954 152.232C106.892 152.294 106.83 152.355 106.769 152.417C106.707 152.479 106.646 152.54 106.646 152.663C106.584 152.725 106.584 152.787 106.522 152.91L105.906 152.663ZM108.247 152.972C108.124 153.033 107.939 153.156 107.816 153.218C107.693 153.341 107.57 153.403 107.447 153.526C107.323 153.649 107.262 153.772 107.262 153.896C107.2 154.019 107.262 154.142 107.323 154.265C107.447 154.45 107.57 154.512 107.693 154.573C107.878 154.573 108.063 154.512 108.247 154.389C108.432 154.327 108.556 154.204 108.617 154.08C108.679 153.957 108.74 153.834 108.802 153.711C108.802 153.588 108.802 153.464 108.802 153.341C108.802 153.218 108.74 153.095 108.679 152.972L108.556 152.787L108.247 152.972Z" fill="#FFFDFD"/>
<path d="M107.879 148.537L108.433 148.167L111.514 152.973L110.959 153.342L107.879 148.537Z" fill="#FFFDFD"/>
<path d="M109.665 148.413C109.604 148.29 109.542 148.167 109.604 148.044C109.665 147.92 109.727 147.797 109.788 147.736C109.912 147.674 110.035 147.612 110.158 147.674C110.281 147.674 110.405 147.797 110.466 147.859C110.528 147.92 110.589 148.105 110.528 148.228C110.528 148.352 110.405 148.475 110.343 148.537C110.22 148.598 110.097 148.66 109.973 148.598C109.85 148.598 109.788 148.537 109.665 148.413ZM110.528 149.399L111.082 149.029L113.115 151.987L112.561 152.356L110.528 149.399Z" fill="#FFFDFD"/>
<path d="M116.937 149.089L116.383 149.521L116.075 149.089C116.075 149.336 116.013 149.521 115.89 149.767C115.767 150.013 115.643 150.198 115.459 150.322C115.212 150.506 115.027 150.63 114.781 150.691C114.534 150.753 114.288 150.753 114.103 150.753C113.918 150.753 113.672 150.63 113.425 150.506C113.241 150.383 113.056 150.198 112.871 150.013C112.686 149.829 112.563 149.582 112.501 149.336C112.44 149.089 112.378 148.843 112.44 148.658C112.44 148.412 112.563 148.227 112.624 147.98C112.686 147.734 112.932 147.549 113.117 147.426C113.302 147.241 113.549 147.179 113.795 147.118C114.041 147.056 114.288 147.056 114.473 147.179L112.871 145.085L113.425 144.653L116.937 149.089ZM115.15 149.767C115.274 149.644 115.397 149.521 115.459 149.397C115.52 149.274 115.582 149.089 115.582 148.966C115.582 148.843 115.582 148.658 115.52 148.535C115.459 148.412 115.397 148.227 115.274 148.104C115.15 147.98 115.027 147.857 114.904 147.734C114.781 147.672 114.596 147.611 114.473 147.549C114.35 147.549 114.165 147.549 114.041 147.549C113.918 147.611 113.733 147.672 113.61 147.795C113.487 147.919 113.364 148.042 113.302 148.165C113.241 148.288 113.179 148.473 113.179 148.596C113.179 148.72 113.179 148.904 113.241 149.028C113.302 149.151 113.364 149.336 113.487 149.459C113.61 149.582 113.733 149.705 113.857 149.829C113.98 149.89 114.165 149.952 114.288 150.013C114.411 150.075 114.596 150.013 114.719 150.013C114.842 149.952 115.027 149.89 115.15 149.767Z" fill="#FFFDFD"/>
<path d="M115.824 145.948C115.824 145.701 115.947 145.455 116.071 145.209C116.194 144.962 116.379 144.777 116.564 144.592C116.748 144.408 116.933 144.284 117.118 144.223C117.303 144.161 117.488 144.1 117.611 144.1C117.796 144.1 117.919 144.161 118.042 144.223C118.165 144.284 118.289 144.408 118.412 144.469L119.644 145.825C119.706 145.948 119.829 146.01 119.891 146.071C119.952 146.133 120.014 146.194 120.137 146.256L119.706 146.687C119.582 146.564 119.459 146.441 119.336 146.318C119.398 146.564 119.336 146.81 119.274 147.057C119.213 147.303 119.028 147.488 118.843 147.673C118.72 147.796 118.597 147.858 118.473 147.919C118.35 147.981 118.165 148.043 118.042 148.043C117.919 148.043 117.734 148.043 117.611 147.981C117.488 147.919 117.364 147.858 117.241 147.673C117.056 147.488 116.995 147.303 116.995 147.119C116.995 146.934 116.995 146.749 117.056 146.564C117.118 146.379 117.241 146.194 117.364 146.01C117.488 145.825 117.673 145.64 117.919 145.455L118.289 145.147L118.165 145.024C118.104 144.962 118.042 144.901 117.919 144.839C117.857 144.777 117.734 144.777 117.611 144.777C117.488 144.777 117.426 144.777 117.303 144.839C117.18 144.901 117.118 144.962 116.995 145.024C116.872 145.085 116.81 145.209 116.748 145.27C116.687 145.332 116.625 145.455 116.625 145.517C116.625 145.578 116.564 145.701 116.564 145.763C116.564 145.825 116.564 145.948 116.502 146.01L115.824 145.948ZM118.165 145.701C118.042 145.825 117.919 145.948 117.796 146.071C117.673 146.194 117.611 146.318 117.549 146.441C117.488 146.564 117.426 146.687 117.426 146.81C117.426 146.934 117.488 147.057 117.549 147.18C117.673 147.303 117.857 147.427 117.981 147.365C118.104 147.303 118.289 147.242 118.473 147.119C118.597 146.995 118.72 146.872 118.782 146.749C118.843 146.626 118.843 146.502 118.843 146.379C118.843 146.256 118.782 146.133 118.72 146.01C118.658 145.886 118.597 145.763 118.535 145.701L118.412 145.517L118.165 145.701Z" fill="#FFFDFD"/>
<path d="M120.077 142.006L119.4 142.683L120.57 143.792C120.632 143.854 120.693 143.916 120.817 143.977C120.94 144.039 120.94 144.1 121.063 144.1C121.186 144.1 121.248 144.162 121.31 144.1C121.371 144.1 121.494 144.039 121.556 143.916C121.618 143.854 121.679 143.792 121.741 143.731C121.802 143.669 121.802 143.608 121.864 143.484L122.295 143.916C122.295 143.977 122.234 144.1 122.172 144.224C122.111 144.347 122.049 144.409 121.987 144.47C121.802 144.655 121.618 144.778 121.494 144.84C121.371 144.901 121.186 144.901 121.063 144.84C120.94 144.778 120.817 144.717 120.693 144.655C120.57 144.593 120.447 144.47 120.385 144.347L119.03 143.053L118.475 143.608L118.044 143.176L118.599 142.622L117.859 141.944L118.352 141.451L119.092 142.129L119.769 141.451L120.077 142.006Z" fill="#FFFDFD"/>
<path d="M121.495 142.314C121.31 142.13 121.125 141.945 121.064 141.698C121.002 141.452 120.879 141.267 120.879 141.021C120.879 140.774 120.879 140.528 120.941 140.281C121.002 140.035 121.125 139.85 121.31 139.603C121.495 139.419 121.68 139.234 121.926 139.111C122.173 138.987 122.358 138.926 122.604 138.926C122.85 138.926 123.097 138.926 123.343 138.987C123.59 139.049 123.775 139.172 124.021 139.357C124.268 139.542 124.391 139.727 124.452 139.973C124.576 140.22 124.637 140.404 124.637 140.651C124.637 140.897 124.637 141.144 124.576 141.39C124.514 141.637 124.391 141.821 124.206 142.068C124.021 142.314 123.836 142.438 123.59 142.561C123.343 142.684 123.159 142.746 122.912 142.746C122.666 142.746 122.419 142.746 122.173 142.684C121.926 142.622 121.68 142.499 121.495 142.314ZM121.926 141.76C122.05 141.883 122.234 141.945 122.358 142.006C122.481 142.068 122.666 142.068 122.789 142.068C122.912 142.068 123.097 142.006 123.22 141.945C123.343 141.883 123.467 141.76 123.59 141.637C123.713 141.513 123.775 141.329 123.836 141.205C123.898 141.082 123.898 140.897 123.898 140.774C123.898 140.651 123.836 140.466 123.775 140.343C123.713 140.22 123.59 140.096 123.467 139.973C123.343 139.85 123.159 139.788 123.035 139.727C122.912 139.665 122.727 139.665 122.604 139.665C122.481 139.665 122.296 139.727 122.173 139.788C122.05 139.85 121.926 139.973 121.803 140.096C121.68 140.22 121.618 140.404 121.557 140.528C121.495 140.651 121.495 140.836 121.495 140.959C121.495 141.082 121.557 141.267 121.618 141.39C121.68 141.513 121.803 141.698 121.926 141.76Z" fill="#FFFDFD"/>
<path d="M123.035 137.63L123.466 137.076L123.898 137.384C123.836 137.261 123.836 137.199 123.774 137.076C123.774 136.953 123.774 136.891 123.774 136.768C123.774 136.645 123.836 136.583 123.836 136.46C123.898 136.336 123.959 136.275 124.021 136.152C124.083 136.09 124.144 135.967 124.267 135.967L124.822 136.46C124.76 136.521 124.76 136.521 124.699 136.583C124.637 136.645 124.637 136.645 124.575 136.706C124.391 136.953 124.329 137.199 124.329 137.507C124.391 137.754 124.575 138 124.883 138.246L126.301 139.294L125.869 139.848L123.035 137.63Z" fill="#FFFDFD"/>
</g>
<defs>
<filter id="filter0_d" x="0.691406" y="0" width="158.312" height="187.886" filterUnits="userSpaceOnUse" color-interpolation-filters="sRGB">
<feFlood flood-opacity="0" result="BackgroundImageFix"/>
<feColorMatrix in="SourceAlpha" type="matrix" values="0 0 0 0 0 0 0 0 0 0 0 0 0 0 0 0 0 0 127 0"/>
<feOffset dy="4"/>
<feGaussianBlur stdDeviation="6"/>
<feColorMatrix type="matrix" values="0 0 0 0 0 0 0 0 0 0.482353 0 0 0 0 1 0 0 0 0.2 0"/>
<feBlend mode="normal" in2="BackgroundImageFix" result="effect1_dropShadow"/>
<feBlend mode="normal" in="SourceGraphic" in2="effect1_dropShadow" result="shape"/>
</filter>
<filter id="filter1_ii" x="12.6914" y="37.5742" width="134.312" height="134.312" filterUnits="userSpaceOnUse" color-interpolation-filters="sRGB">
<feFlood flood-opacity="0" result="BackgroundImageFix"/>
<feBlend mode="normal" in="SourceGraphic" in2="BackgroundImageFix" result="shape"/>
<feColorMatrix in="SourceAlpha" type="matrix" values="0 0 0 0 0 0 0 0 0 0 0 0 0 0 0 0 0 0 127 0" result="hardAlpha"/>
<feOffset/>
<feGaussianBlur stdDeviation="4"/>
<feComposite in2="hardAlpha" operator="arithmetic" k2="-1" k3="1"/>
<feColorMatrix type="matrix" values="0 0 0 0 0.9875 0 0 0 0 0.722843 0 0 0 0 0.386771 0 0 0 1 0"/>
<feBlend mode="normal" in2="shape" result="effect1_innerShadow"/>
<feColorMatrix in="SourceAlpha" type="matrix" values="0 0 0 0 0 0 0 0 0 0 0 0 0 0 0 0 0 0 127 0" result="hardAlpha"/>
<feOffset/>
<feGaussianBlur stdDeviation="6"/>
<feComposite in2="hardAlpha" operator="arithmetic" k2="-1" k3="1"/>
<feColorMatrix type="matrix" values="0 0 0 0 0 0 0 0 0 0 0 0 0 0 0 0 0 0 0.2 0"/>
<feBlend mode="normal" in2="effect1_innerShadow" result="effect2_innerShadow"/>
</filter>
<filter id="filter2_i" x="49.0391" y="73.9258" width="61.6109" height="61.6109" filterUnits="userSpaceOnUse" color-interpolation-filters="sRGB">
<feFlood flood-opacity="0" result="BackgroundImageFix"/>
<feBlend mode="normal" in="SourceGraphic" in2="BackgroundImageFix" result="shape"/>
<feColorMatrix in="SourceAlpha" type="matrix" values="0 0 0 0 0 0 0 0 0 0 0 0 0 0 0 0 0 0 127 0" result="hardAlpha"/>
<feOffset/>
<feGaussianBlur stdDeviation="6"/>
<feComposite in2="hardAlpha" operator="arithmetic" k2="-1" k3="1"/>
<feColorMatrix type="matrix" values="0 0 0 0 0 0 0 0 0 0 0 0 0 0 0 0 0 0 0.4 0"/>
<feBlend mode="normal" in2="shape" result="effect1_innerShadow"/>
</filter>
<linearGradient id="paint0_linear" x1="44.5905" y1="42.1912" x2="211.601" y2="209.301" gradientUnits="userSpaceOnUse">
<stop stop-color="#F2F2F2"/>
<stop offset="1" stop-color="#3D485C"/>
</linearGradient>
<linearGradient id="paint1_linear" x1="-84.8445" y1="-102.174" x2="156.917" y2="186.277" gradientUnits="userSpaceOnUse">
<stop stop-color="white"/>
<stop offset="1" stop-color="white" stop-opacity="0"/>
</linearGradient>
<linearGradient id="paint2_linear" x1="120.217" y1="138.37" x2="36.5986" y2="73.013" gradientUnits="userSpaceOnUse">
<stop stop-color="white"/>
<stop offset="1" stop-color="#203A41" stop-opacity="0.4"/>
</linearGradient>
<linearGradient id="paint3_linear" x1="132.635" y1="148.721" x2="23.2882" y2="63.2544" gradientUnits="userSpaceOnUse">
<stop stop-color="white"/>
<stop offset="1" stop-color="#203A41" stop-opacity="0.24"/>
</linearGradient>
</defs>
</svg>
