<svg width="218" height="268" viewBox="0 0 218 268" fill="none" xmlns="http://www.w3.org/2000/svg">
<path d="M86.0059 29.7983C84.9045 29.7983 84.0234 30.669 84.0234 31.7573V50.0412C84.0234 51.1295 84.9045 52.0002 86.0059 52.0002H131.381C132.483 52.0002 133.364 51.1295 133.364 50.0412V31.7573C133.364 30.669 132.483 29.7983 131.381 29.7983H86.0059ZM129.399 44.1642C129.399 45.2526 128.518 46.1232 127.416 46.1232H90.191C89.0896 46.1232 88.2086 45.2526 88.2086 44.1642V35.893C88.2086 34.8046 89.0896 33.934 90.191 33.934H127.416C128.518 33.934 129.399 34.8046 129.399 35.893V44.1642Z" fill="#BABABA"/>
<path d="M140.045 0L114.918 37.8775H127.37L155.388 0H140.045Z" fill="#0FA711"/>
<path d="M127.377 0L102.473 37.8775H114.925L140.052 0H127.377Z" fill="white"/>
<path d="M114.924 0L90.0195 37.8775H102.472L127.376 0H114.924Z" fill="#FF7600"/>
<path d="M90.0177 37.8775H102.47L77.343 0H62L90.0177 37.8775Z" fill="#FF7600"/>
<path d="M102.471 37.8775H114.923L90.0184 0H77.3438L102.471 37.8775Z" fill="white"/>
<path opacity="0.5" d="M110.695 6.27979L104.469 15.6931L119.145 37.8818H127.372L129.596 34.744L110.695 6.27979Z" fill="#3E4347"/>
<path d="M114.924 37.8775H127.376L102.472 0H90.0195L114.924 37.8775Z" fill="#0FA711"/>
<g filter="url(#filter0_ii)">
<path d="M218 159C218 219.199 169.199 268 109 268C48.801 268 0 219.199 0 159C0 98.801 48.801 50 109 50C169.199 50 218 98.801 218 159Z" fill="#D5D5D5" fill-opacity="0.8"/>
</g>
<path d="M214.5 159C214.5 217.266 167.266 264.5 109 264.5C50.734 264.5 3.5 217.266 3.5 159C3.5 100.734 50.734 53.5 109 53.5C167.266 53.5 214.5 100.734 214.5 159Z" stroke="#DFDFDF" stroke-width="7"/>
<path d="M214.5 159C214.5 217.266 167.266 264.5 109 264.5C50.734 264.5 3.5 217.266 3.5 159C3.5 100.734 50.734 53.5 109 53.5C167.266 53.5 214.5 100.734 214.5 159Z" stroke="url(#paint0_linear)" stroke-width="7"/>
<path d="M196 159C196 207.049 157.049 246 109 246C60.9512 246 22 207.049 22 159C22 110.951 60.9512 72 109 72C157.049 72 196 110.951 196 159Z" fill="#A0A0A0"/>
<path fill-rule="evenodd" clip-rule="evenodd" d="M109 87C69.2355 87 37 119.235 37 159C37 198.764 69.2355 231 109 231C148.764 231 181 198.764 181 159C181 119.235 148.764 87 109 87ZM7 159C7 102.667 52.667 57 109 57C165.333 57 211 102.667 211 159C211 215.333 165.333 261 109 261C52.667 261 7 215.333 7 159Z" fill="#BABABA"/>
<path d="M109.001 82C66.5595 82 32 116.357 32 159.001C32 201.645 66.3574 236.002 109.001 236.002C151.645 236.002 186.002 201.645 186.002 159.001C186.002 116.357 151.442 82 109.001 82ZM93.6412 89.4778C93.8433 89.4778 93.8433 89.4778 93.6412 89.4778C95.0559 92.5093 97.6833 94.3282 100.311 93.7219C102.938 93.3177 105.565 91.4988 105.767 87.861C106.172 87.861 106.576 87.861 106.98 87.861C106.98 98.7745 106.172 110.496 104.959 123.229C104.757 124.441 104.757 125.654 104.757 126.867C104.353 125.856 103.948 124.644 103.544 123.229C99.3001 112.517 95.4601 100.998 92.4286 89.6799C93.0349 89.6799 93.237 89.4778 93.6412 89.4778ZM76.0583 95.743C78.2814 98.3703 81.1109 99.3808 83.5361 98.1682C86.3655 96.9556 87.9823 94.1261 87.376 91.0946C87.7802 90.8925 88.1844 90.8925 88.5886 90.6904C91.216 101.2 93.8433 112.72 95.8643 125.452C96.0664 126.867 96.2685 127.877 96.6727 129.09C96.0664 128.079 95.4601 127.069 94.4496 125.856C87.5781 116.559 80.9088 106.454 75.0478 96.3493C75.2499 96.1472 75.6541 95.9451 76.0583 95.743ZM60.4964 106.656C63.3259 108.475 66.3574 108.678 68.3784 107.061C69.9952 105.848 70.8036 104.029 70.8036 102.21C70.8036 101.2 70.6015 100.189 69.9952 99.3808C70.3994 99.1787 70.6015 98.9766 71.0057 98.7745C76.4625 108.071 81.7172 118.783 87.1739 130.302C87.7802 131.515 88.3865 132.526 88.7907 133.536C87.9823 132.728 86.9718 131.919 85.9613 131.111C77.0688 123.633 67.9742 115.549 59.688 107.465C59.8901 107.061 60.2943 106.859 60.4964 106.656ZM48.3703 121.006C48.5724 121.006 48.5724 121.006 48.3703 121.006C51.6039 122.016 54.6355 121.612 56.0502 119.389C56.4544 118.783 57.4649 117.166 57.4649 115.549C57.4649 114.538 57.0607 112.922 55.8481 111.507C56.0502 111.305 56.4544 110.901 56.6565 110.699C64.3364 118.378 72.2184 127.271 80.5046 136.972C81.313 137.982 82.1214 138.791 82.9298 139.599C81.9193 138.993 80.7067 138.589 79.494 137.982C68.9847 133.132 58.0712 127.675 47.764 122.016C47.9661 121.612 48.1682 121.41 48.3703 121.006ZM40.4883 137.982C40.4883 137.982 40.4883 137.78 40.4883 137.982C43.924 138.184 46.5514 136.972 47.5619 134.344C47.764 133.738 47.9661 132.93 47.9661 131.717C47.9661 130.505 47.5619 128.281 45.1367 126.665C45.3388 126.26 45.5409 126.058 45.743 125.654C55.0397 131.111 65.1448 137.578 75.452 144.854C76.4625 145.662 77.6751 146.269 78.4835 146.875C77.473 146.673 76.0583 146.471 74.6436 146.066C63.3259 144.45 51.4018 142.024 39.882 138.993C40.2862 138.791 40.4883 138.387 40.4883 137.982ZM37.2547 156.374C37.2547 156.374 37.2547 156.172 37.2547 156.374C40.4883 155.767 42.9135 153.746 43.1156 151.119C43.1156 150.917 43.1156 150.715 43.1156 150.311C43.1156 147.885 41.903 145.258 38.8715 144.248C38.8715 143.843 39.0736 143.439 39.0736 143.035C49.5829 145.864 60.9006 149.704 72.8247 153.948C74.0373 154.353 75.2499 154.757 76.2604 154.959C75.0478 154.959 73.8352 155.161 72.4205 155.161C61.1027 156.576 48.7745 157.182 37.0526 157.384C37.2547 157.182 37.2547 156.778 37.2547 156.374ZM38.8715 175.169C38.8715 174.967 38.8715 174.967 38.8715 175.169C41.4988 173.754 43.1156 171.733 43.1156 169.308C43.1156 169.106 43.1156 168.702 43.1156 168.5C42.7114 165.872 40.8925 163.245 37.2547 163.043C37.2547 162.639 37.2547 162.235 37.2547 161.83C48.1682 161.83 59.8901 162.437 72.6226 163.447C74.0373 163.649 75.2499 163.649 76.2604 163.649C75.2499 164.054 74.0373 164.458 72.6226 164.862C61.9111 169.106 50.3913 172.946 39.0736 176.18C39.0736 175.978 39.0736 175.573 38.8715 175.169ZM45.3387 192.752C45.3387 192.752 45.3387 192.55 45.3387 192.752C47.1577 191.135 48.1682 189.316 48.1682 187.295C48.1682 186.487 47.9661 185.881 47.764 185.274C46.7535 182.849 44.3282 180.828 40.6904 181.636C40.4883 181.232 40.4883 180.828 40.2862 180.424C50.7955 177.594 62.3153 175.169 74.8457 172.946C76.2604 172.744 77.2709 172.34 78.4835 172.138C77.473 172.744 76.4625 173.35 75.2499 174.361C65.9532 181.232 55.8481 187.902 45.743 193.965C45.743 193.358 45.5409 193.156 45.3387 192.752ZM56.2523 208.112C57.2628 206.495 57.667 205.08 57.667 203.463C57.667 202.251 57.2628 201.038 56.4544 200.23C54.8376 198.209 51.806 196.794 48.5724 198.411C48.3703 198.007 48.1682 197.805 47.9661 197.4C57.2628 191.944 67.9742 186.487 79.494 181.03C80.7067 180.424 81.7172 179.818 82.7277 179.413C81.9193 180.222 81.1109 181.232 80.3024 182.243C73.2289 191.337 65.1448 200.432 57.0607 208.92C56.8586 208.718 56.4544 208.516 56.2523 208.112ZM70.6015 220.036C70.8036 218.823 71.0057 217.813 71.0057 216.802C71.0057 214.781 70.1973 213.164 68.7826 212.356C66.7616 210.941 63.528 210.133 60.9006 212.76C60.4964 212.558 60.2943 212.154 60.0922 211.952C67.7721 204.272 76.4625 196.188 86.1634 188.104C87.1739 187.295 87.9823 186.487 88.7907 185.678C88.1844 186.689 87.7802 187.902 87.1739 189.114C82.7277 199.624 77.473 210.537 71.612 220.642C71.4099 220.44 71.0057 220.238 70.6015 220.036ZM87.5781 227.918C87.7802 224.482 86.3655 221.855 83.9403 220.844C81.5151 220.036 78.2814 220.238 76.2604 223.27C75.8562 223.067 75.6541 222.865 75.2499 222.663C80.7066 213.367 86.9718 203.261 94.2475 192.752C95.0559 191.539 95.6622 190.529 96.2685 189.721C96.0664 190.731 95.8643 192.146 95.4601 193.56C93.8433 204.878 91.4181 216.802 88.5886 228.322C88.3865 228.12 87.9823 228.12 87.5781 227.918ZM105.969 230.949C105.363 227.716 103.342 225.291 100.715 225.088C98.0874 224.886 95.0559 225.897 94.0454 229.333C93.6412 229.333 93.237 229.13 92.8328 229.13C95.6622 218.621 99.3001 207.303 103.544 195.379C103.948 194.167 104.353 192.954 104.555 191.944C104.555 193.156 104.757 194.369 104.757 195.784C106.172 207.101 106.98 219.43 107.182 231.151C106.778 231.151 106.374 231.151 105.969 230.949ZM178.928 144.45C176.301 145.864 174.482 147.885 174.482 150.311C174.482 150.513 174.482 150.917 174.482 151.119C174.886 153.746 176.705 156.374 180.343 156.576C180.343 156.98 180.343 157.384 180.343 157.788C169.632 157.788 157.708 156.98 144.975 155.767C143.56 155.565 142.348 155.565 141.337 155.565C142.348 155.161 143.56 154.757 144.975 154.353C155.687 150.108 167.206 146.269 178.524 143.237C178.726 143.641 178.726 144.045 178.928 144.45ZM172.663 126.867C172.663 126.867 172.663 127.069 172.663 126.867C170.844 128.484 169.834 130.302 169.834 132.323C169.834 133.132 170.036 133.738 170.238 134.344C171.248 136.77 173.674 138.791 177.312 138.184C177.514 138.589 177.514 138.993 177.716 139.397C167.206 142.024 155.485 144.45 142.954 146.673C141.539 146.875 140.529 147.077 139.316 147.481C140.327 146.875 141.337 146.269 142.55 145.46C151.847 138.387 161.952 131.717 172.057 125.856C172.259 126.26 172.461 126.463 172.663 126.867ZM162.154 111.709C161.143 113.326 160.537 114.943 160.537 116.357C160.537 117.57 160.941 118.783 161.75 119.591C163.366 121.612 166.196 123.027 169.43 121.41C169.632 121.814 169.834 122.016 170.036 122.42C160.537 127.675 150.028 133.132 138.306 138.184C137.093 138.791 136.083 139.195 135.072 139.801C135.881 138.993 136.689 137.982 137.7 136.972C144.975 128.079 153.059 118.985 161.345 110.699C161.548 111.103 161.952 111.305 162.154 111.709ZM147.603 99.1787C147.603 99.1787 147.805 99.3808 147.603 99.1787C147.4 100.391 146.996 101.402 146.996 102.412C146.996 104.231 147.805 105.848 149.219 106.859C151.24 108.273 154.474 109.082 157.101 106.656C157.303 106.859 157.708 107.263 157.91 107.465C150.23 115.145 141.337 123.027 131.434 131.111C130.424 131.919 129.413 132.728 128.807 133.536C129.413 132.526 129.818 131.515 130.424 130.1C135.072 119.591 140.529 108.678 146.39 98.5724C146.996 98.7745 147.198 98.9766 147.603 99.1787ZM130.626 91.2967C130.828 91.2967 130.828 91.2967 130.626 91.2967C130.424 94.7324 131.839 97.3598 134.264 98.3703C136.689 99.3808 139.923 99.1787 141.944 95.9451C142.348 96.1472 142.55 96.3493 142.954 96.5514C137.497 105.848 131.03 115.751 123.552 126.26C122.744 127.271 122.138 128.281 121.531 129.292C121.733 128.281 122.138 126.867 122.34 125.452C124.159 114.134 126.584 102.21 129.413 90.8925C130.02 90.8925 130.222 91.0946 130.626 91.2967ZM112.437 87.861C112.437 87.861 112.639 87.861 112.437 87.861C113.043 91.0946 115.064 93.5198 117.691 93.7219C120.319 93.924 123.35 92.9135 124.563 89.4778C124.967 89.4778 125.371 89.6799 125.775 89.6799C122.946 100.189 119.106 111.507 114.66 123.229C114.256 124.441 113.851 125.654 113.447 126.665C113.447 125.452 113.245 124.239 113.245 122.825C112.033 111.507 111.224 99.1787 111.224 87.4568C111.628 87.861 112.033 87.861 112.437 87.861ZM124.361 229.333C122.744 226.301 120.319 224.684 117.691 225.088C115.064 225.493 112.437 227.312 112.235 230.949C111.83 230.949 111.426 230.949 111.022 230.949C111.022 220.036 111.628 208.314 112.841 195.581C113.043 194.369 113.043 193.358 113.043 192.348C113.043 192.146 113.043 192.146 113.043 191.944C113.447 192.954 113.851 194.167 114.256 195.581C118.5 206.293 122.34 217.813 125.573 229.13C125.169 229.333 124.765 229.333 124.361 229.333ZM141.742 223.067C141.742 223.067 141.539 223.067 141.742 223.067C139.518 220.44 136.689 219.43 134.264 220.642C131.434 221.855 129.818 224.684 130.626 227.716C130.222 227.918 129.818 227.918 129.413 228.12C126.584 217.611 124.159 206.091 122.138 193.56C121.936 192.146 121.733 191.135 121.329 189.923C121.936 190.933 122.542 191.944 123.552 193.156C130.424 202.453 137.093 212.558 142.954 222.663C142.348 222.865 142.146 222.865 141.742 223.067ZM157.303 212.154C157.303 212.356 157.303 212.356 157.303 212.154C154.474 210.335 151.442 210.133 149.421 211.75C147.805 212.962 146.996 214.781 146.996 216.6C146.996 217.611 147.198 218.621 147.805 219.43C147.4 219.632 147.198 219.834 146.794 220.036C141.337 210.739 135.881 200.028 130.626 188.508C130.02 187.295 129.413 186.285 129.009 185.274C129.818 186.083 130.828 186.891 131.839 187.699C140.933 194.773 150.028 202.857 158.314 211.143C157.91 211.75 157.708 211.952 157.303 212.154ZM169.227 198.007C169.227 198.007 169.227 198.209 169.227 198.007C165.994 196.996 162.962 197.4 161.548 199.624C161.143 200.23 160.133 201.847 160.133 203.463C160.133 204.474 160.537 206.091 161.75 207.506C161.548 207.708 161.143 208.112 160.941 208.314C153.261 200.634 145.379 191.742 137.295 182.041C136.487 181.03 135.678 180.02 134.87 179.413C135.881 180.02 137.093 180.424 138.306 181.03C148.815 185.678 159.729 191.135 170.036 196.794C169.632 197.4 169.43 197.603 169.227 198.007ZM177.109 181.03C177.109 181.232 177.109 181.232 177.109 181.03C173.674 180.828 171.046 182.041 170.036 184.668C169.834 185.274 169.632 186.083 169.632 187.295C169.632 188.508 170.036 190.731 172.461 192.348C172.259 192.752 172.057 192.954 171.855 193.358C162.558 187.902 152.453 181.434 142.146 174.159C141.135 173.35 139.923 172.744 139.114 172.138C140.125 172.34 141.539 172.744 142.954 172.946C154.272 174.563 166.196 176.988 177.514 180.02C177.312 180.424 177.312 180.828 177.109 181.03ZM180.343 162.841C177.109 163.447 174.684 165.266 174.482 167.893C174.482 168.096 174.482 168.298 174.482 168.702C174.482 171.127 175.695 173.754 178.726 174.765C178.726 175.169 178.524 175.573 178.524 175.978C168.015 173.148 156.697 169.51 144.773 165.064C143.56 164.66 142.348 164.256 141.337 164.054C142.55 164.054 143.763 163.851 145.177 163.851C156.495 162.639 168.823 161.83 180.545 161.83C180.545 162.033 180.343 162.437 180.343 162.841Z" fill="#D1D1D1"/>
<circle cx="109" cy="159" r="77" stroke="url(#paint1_linear)" stroke-width="2"/>
<circle cx="109" cy="159" r="101" stroke="url(#paint2_linear)" stroke-width="2"/>
<g filter="url(#filter1_i)">
<circle cx="109" cy="159" r="50" fill="#AEAEAE"/>
</g>
<mask id="mask0" mask-type="alpha" maskUnits="userSpaceOnUse" x="59" y="109" width="100" height="100">
<circle cx="109" cy="159" r="50" fill="#C3863A"/>
</mask>
<g mask="url(#mask0)">
<path d="M82.6969 107.385L82.6979 107.386L82.948 107.755C83.1118 107.996 83.3522 108.351 83.6587 108.803C84.2716 109.708 85.1489 111.003 86.2061 112.568C88.3206 115.698 91.1554 119.904 94.0364 124.21C96.917 128.516 99.8455 132.924 102.147 136.456C103.297 138.222 104.293 139.772 105.048 140.983C105.788 142.169 106.335 143.088 106.55 143.554C106.628 143.723 106.657 143.91 106.632 144.094C106.534 144.829 106.129 145.471 105.646 146.005C105.156 146.547 104.516 147.053 103.813 147.52C102.404 148.455 100.608 149.318 98.8706 150.047C97.125 150.779 95.4 151.393 94.1146 151.823C93.6747 151.97 93.2852 152.095 92.9629 152.198C93.1439 152.686 93.3873 153.329 93.6735 154.051C94.3132 155.666 95.1542 157.645 95.9843 159.186C96.4389 160.031 96.1789 160.859 95.7262 161.467C95.3 162.04 94.6303 162.543 93.9004 162.984C92.419 163.877 90.3247 164.724 88.2437 165.448C86.3521 166.107 84.4214 166.682 82.875 167.113C83.4397 167.304 84.052 167.513 84.687 167.732C87.3423 168.647 90.4545 169.766 92.1006 170.526C93.8143 171.317 94.6604 172.287 94.7213 173.384C94.7496 173.893 94.5932 174.305 94.4453 174.575C94.3705 174.712 94.2935 174.82 94.2321 174.898C94.2011 174.937 94.1733 174.97 94.1506 174.995L94.1371 175.01C94.1295 175.019 94.1172 175.034 94.1009 175.055C94.0648 175.101 94.0092 175.173 93.9405 175.272C93.8027 175.468 93.6142 175.764 93.4245 176.144C93.0436 176.905 92.6701 177.98 92.6701 179.259C92.6701 179.659 92.6801 180.157 92.6916 180.725L92.6916 180.726V180.726C92.7201 182.144 92.7574 183.997 92.669 185.832C92.5466 188.371 92.1799 191.179 91.0541 193.008C90.7744 193.463 90.3091 193.739 89.8966 193.918C89.4594 194.109 88.9312 194.254 88.3535 194.37C87.195 194.603 85.6931 194.742 83.9974 194.818C80.5971 194.969 76.2723 194.868 72.0358 194.668C67.7934 194.469 63.6152 194.169 60.4994 193.92C58.941 193.795 57.6472 193.683 56.7427 193.601C56.2904 193.561 55.9354 193.528 55.6932 193.505L55.4164 193.479L55.3682 193.475H33.6015C33.06 193.475 32.6211 193.036 32.6211 192.494V108.916C32.6211 108.382 33.048 107.947 33.5816 107.936L81.8659 106.955C82.1977 106.949 82.5104 107.11 82.6969 107.385Z" fill="white"/>
<path fill-rule="evenodd" clip-rule="evenodd" d="M114.267 151.364C113.599 152.033 113.638 153.118 114.209 153.872C115.402 155.445 116.109 157.406 116.109 159.533C116.109 161.506 115.5 163.337 114.46 164.847C113.94 165.603 113.928 166.646 114.577 167.295C115.23 167.948 116.301 167.951 116.86 167.215C118.481 165.081 119.442 162.419 119.442 159.533C119.442 156.437 118.336 153.6 116.497 151.395C115.926 150.709 114.898 150.733 114.267 151.364ZM119.872 170.245C119.292 170.957 119.286 172.004 119.936 172.653C120.588 173.306 121.652 173.308 122.247 172.603C125.223 169.072 127.017 164.512 127.017 159.533C127.017 154.356 125.078 149.631 121.886 146.046C121.284 145.371 120.245 145.386 119.606 146.026C118.944 146.687 118.965 147.759 119.576 148.468C122.136 151.438 123.684 155.305 123.684 159.533C123.684 163.596 122.255 167.325 119.872 170.245ZM125.634 176.002C125.03 176.695 125.027 177.744 125.677 178.394C126.328 179.046 127.39 179.048 128.001 178.358C132.439 173.346 135.134 166.755 135.134 159.534C135.134 152.119 132.293 145.368 127.64 140.309C127.024 139.64 125.98 139.651 125.337 140.294C124.679 140.953 124.693 142.019 125.318 142.71C129.346 147.158 131.8 153.059 131.8 159.534C131.8 165.837 129.474 171.597 125.634 176.002Z" fill="white"/>
</g>
<path d="M59.2 90.7998L54 83.2998L56.4 81.5998C57.2 80.9998 57.9 80.7998 58.6 80.7998C59.3 80.7998 59.8 81.1998 60.2 81.8998C60.4 82.1998 60.6 82.5998 60.5 82.9998C60.5 83.3998 60.4 83.7998 60.1 84.1998C60.6 83.9998 61 83.9998 61.5 84.1998C62 84.3998 62.3 84.5998 62.6 85.0998C63.1 85.7998 63.2 86.3998 63 87.0998C62.8 87.7998 62.4 88.3998 61.6 88.8998L59.2 90.7998ZM57.2 85.7998L58.7 84.7998C59.1 84.4998 59.4 84.1998 59.5 83.7998C59.6 83.3998 59.5 82.9998 59.3 82.6998C59 82.2998 58.7 82.0998 58.3 82.0998C57.9 82.0998 57.5 82.1998 57 82.5998L55.5 83.5998L57.2 85.7998ZM57.8 86.5998L59.7 89.2998L61.3 88.1998C61.8 87.8998 62 87.4998 62.1 87.0998C62.2 86.6998 62.1 86.2998 61.8 85.7998C61.2 84.8998 60.4 84.7998 59.4 85.4998L57.8 86.5998Z" fill="white"/>
<path d="M63.4016 80.8998C63.5016 80.0998 63.9016 79.4998 64.7016 79.0998C65.9016 78.3998 67.0015 78.6998 67.8015 80.0998L70.0016 83.9998L69.0016 84.5998L66.8015 80.6998C66.6015 80.2998 66.3016 79.9998 66.0016 79.8998C65.7016 79.7998 65.3016 79.8998 64.9016 80.0998C64.6016 80.2998 64.3016 80.4998 64.2016 80.8998C64.1016 81.1998 64.0016 81.5998 64.0016 81.8998L66.4016 86.0998L65.4016 86.6998L60.6016 78.3998L61.6016 77.7998L63.4016 80.8998Z" fill="white"/>
<path d="M74.9008 81.6002C74.8008 81.5002 74.6008 81.3002 74.4008 81.0002C74.2008 81.7002 73.7008 82.3002 73.0008 82.6002C72.4008 82.9002 71.8008 82.9002 71.3008 82.8002C70.8008 82.6002 70.4008 82.3002 70.1008 81.8002C69.8008 81.2002 69.8008 80.6002 70.1008 80.0002C70.4008 79.4002 71.0008 78.9002 71.9008 78.5002L72.9008 78.0002L72.7008 77.5002C72.5008 77.1002 72.3008 76.9002 72.0008 76.8002C71.7008 76.7002 71.3008 76.7002 70.9008 76.9002C70.5008 77.1002 70.3008 77.3002 70.1008 77.6002C69.9008 77.9002 69.9008 78.2002 70.0008 78.5002L69.0008 79.0002C68.9008 78.7002 68.8008 78.4002 68.9008 78.0002C69.0008 77.6002 69.2008 77.3002 69.5008 76.9002C69.8008 76.6002 70.2008 76.3002 70.6008 76.1002C71.3008 75.8002 71.9008 75.7002 72.5008 75.8002C73.1008 76.0002 73.5008 76.3002 73.8008 77.0002L75.1008 79.8002C75.4008 80.4002 75.6008 80.8002 75.9008 81.0002V81.1002L74.9008 81.6002ZM72.8008 81.6002C73.1008 81.4002 73.4008 81.2002 73.6008 80.9002C73.8008 80.6002 73.9008 80.3002 73.9008 79.9002L73.3008 78.7002L72.5008 79.1002C71.2008 79.7002 70.8008 80.4002 71.1008 81.1002C71.3008 81.4002 71.5008 81.6002 71.8008 81.7002C72.1008 81.8002 72.5008 81.8002 72.8008 81.6002Z" fill="white"/>
<path d="M80.0994 77.4998C79.9994 77.1998 79.7994 76.9998 79.4994 76.8998C79.1994 76.7998 78.7994 76.7998 78.1994 76.8998C77.5994 76.9998 77.0994 76.9998 76.6994 76.9998C76.2994 76.9998 75.9994 76.8998 75.7994 76.6998C75.5994 76.4998 75.3994 76.2998 75.2994 75.9998C75.0994 75.4998 75.1994 74.9998 75.4994 74.3998C75.7994 73.8998 76.2994 73.4998 76.9994 73.1998C77.6994 72.8998 78.3994 72.8998 78.8994 73.0998C79.3994 73.2998 79.8994 73.6998 80.0994 74.2998L78.9994 74.6998C78.8994 74.3998 78.6994 74.1998 78.2994 74.0998C77.9994 73.9998 77.5994 73.9998 77.1994 74.0998C76.7994 74.2998 76.4994 74.4998 76.3994 74.6998C76.1994 74.9998 76.1994 75.1998 76.2994 75.4998C76.3994 75.7998 76.5994 75.8998 76.7994 75.9998C77.0994 76.0998 77.4994 75.9998 78.0994 75.8998C78.6994 75.7998 79.1994 75.7998 79.5994 75.7998C79.9994 75.7998 80.2994 75.8998 80.5994 76.0998C80.8994 76.2998 80.9994 76.4998 81.1994 76.8998C81.3994 77.4998 81.3994 77.9998 80.9994 78.4998C80.6994 78.9998 80.1994 79.3998 79.3994 79.6998C78.8994 79.8998 78.3994 79.9998 77.9994 79.8998C77.4994 79.8998 77.0994 79.6998 76.7994 79.4998C76.4994 79.2998 76.1994 78.9998 76.0994 78.5998L77.1994 78.1998C77.3994 78.5998 77.5994 78.7998 77.9994 78.8998C78.3994 78.9998 78.6994 78.9998 79.1994 78.7998C79.5994 78.5998 79.8994 78.3998 80.0994 78.1998C80.1994 77.9998 80.1994 77.7998 80.0994 77.4998Z" fill="white"/>
<path d="M82.4008 72.3999C82.7008 71.6999 83.3008 71.1999 84.0008 70.8999C85.4008 70.4999 86.3008 71.0999 86.8008 72.5999L88.1008 76.8999L87.0008 77.1999L85.7008 72.8999C85.6008 72.3999 85.3008 72.0999 85.1008 71.9999C84.9008 71.8999 84.5008 71.7999 84.0008 71.9999C83.6008 72.0999 83.4008 72.2999 83.1008 72.5999C82.9008 72.8999 82.8008 73.1999 82.7008 73.4999L84.1008 78.0999L83.0008 78.3999L80.3008 69.1999L81.4008 68.8999L82.4008 72.3999Z" fill="white"/>
<path d="M87.5 68.1999C87.5 67.9999 87.5 67.8999 87.6 67.6999C87.7 67.4999 87.8 67.3999 88 67.3999C88.2 67.3999 88.4 67.3999 88.5 67.4999C88.6 67.5999 88.7 67.6999 88.8 67.8999C88.8 68.0999 88.8 68.1999 88.7 68.3999C88.6 68.4999 88.5 68.5999 88.2 68.6999C88 68.7999 87.8 68.6999 87.7 68.5999C87.6 68.5999 87.5 68.3999 87.5 68.1999ZM90.7 76.2999L89.6 76.5999L88 69.9999L89.1 69.6999L90.7 76.2999Z" fill="white"/>
<path d="M92.1 69L92.3 69.8C92.7 69.1 93.3 68.6 94.1 68.5C95.5 68.3 96.4 68.9 96.6 70.5L97.4 74.9L96.3 75.1L95.5 70.8C95.4 70.3 95.2 70 95 69.8C94.7 69.6 94.4 69.6 93.9 69.6C93.5 69.7 93.2 69.8 93 70.1C92.8 70.4 92.6 70.6 92.5 71L93.3 75.7L92.2 75.9L91 69.3L92.1 69Z" fill="white"/>
<path d="M97.8984 66.3C97.8984 66.1 97.8984 66 97.9984 65.8C98.0984 65.6 98.2984 65.6 98.4984 65.5C98.6984 65.5 98.8984 65.5 98.9984 65.6C99.0984 65.7 99.1985 65.9 99.1985 66C99.1985 66.2 99.1984 66.3 99.0984 66.5C98.9984 66.6 98.7984 66.7 98.5984 66.7C98.3984 66.7 98.1984 66.7 98.0984 66.6C97.9984 66.6 97.8984 66.5 97.8984 66.3ZM100.098 74.6L98.9984 74.7L98.1985 68L99.2984 67.9L100.098 74.6Z" fill="white"/>
<path d="M104.602 69.4001C104.602 69.0001 104.702 68.7001 104.902 68.5001C105.102 68.3001 105.402 68.1001 105.802 68.1001C106.202 68.1001 106.502 68.2001 106.702 68.4001C106.902 68.6001 107.102 68.9001 107.102 69.3001V69.5001C107.102 69.9001 107.002 70.2001 106.802 70.4001C106.602 70.6001 106.302 70.8001 105.902 70.8001C105.502 70.8001 105.202 70.7001 105.002 70.5001C104.802 70.3001 104.602 70.0001 104.602 69.6001V69.4001Z" fill="white"/>
<path d="M112 74.1L112.5 65L115.5 65.2C116.5 65.3 117.2 65.5 117.7 65.9C118.2 66.3 118.4 67 118.3 67.7C118.3 68.1 118.1 68.5 117.9 68.8C117.6 69.1 117.3 69.3 116.9 69.5C117.4 69.7 117.8 69.9 118 70.3C118.3 70.7 118.4 71.2 118.3 71.7C118.3 72.5 118 73.1 117.4 73.6C116.8 74 116.1 74.2 115.1 74.2L112 74.1ZM113.4 69.9L113.2 73.2L115.2 73.3C115.8 73.3 116.2 73.2 116.5 72.9C116.8 72.6 117 72.2 117.1 71.7C117.2 70.6 116.6 70 115.4 70L113.4 69.9ZM113.5 68.9L115.3 69C115.8 69 116.2 68.9 116.6 68.7C116.9 68.5 117.1 68.1 117.1 67.7C117.1 67.2 117 66.8 116.7 66.6C116.4 66.4 116 66.2 115.4 66.2L113.6 66.1L113.5 68.9Z" fill="white"/>
<path d="M119.501 71.0998C119.601 70.3998 119.801 69.8998 120.101 69.3998C120.401 68.8998 120.801 68.5998 121.301 68.2998C121.801 68.0998 122.301 67.9998 122.901 68.0998C123.801 68.1998 124.501 68.6998 125.001 69.3998C125.501 70.0998 125.601 70.9998 125.501 71.9998V72.0998C125.401 72.6998 125.201 73.2998 124.901 73.7998C124.601 74.2998 124.201 74.5998 123.701 74.8998C123.201 75.0998 122.601 75.1998 122.001 75.0998C121.101 74.9998 120.401 74.4998 119.901 73.7998C119.401 73.0998 119.401 72.2998 119.501 71.0998ZM120.701 71.3998C120.601 72.0998 120.701 72.7998 121.001 73.2998C121.301 73.7998 121.701 74.0998 122.301 74.1998C122.901 74.2998 123.401 74.0998 123.801 73.6998C124.201 73.2998 124.501 72.6998 124.601 71.8998C124.701 71.1998 124.601 70.5998 124.301 69.9998C124.001 69.4998 123.601 69.1998 123.001 69.0998C122.401 68.9998 122.001 69.1998 121.501 69.5998C121.001 69.9998 120.801 70.5998 120.701 71.3998Z" fill="white"/>
<path d="M127.498 75.8998L126.398 75.6998L128.298 66.2998L129.398 66.4998L127.498 75.8998Z" fill="white"/>
<path d="M129.601 72.7999C129.801 72.1999 130.001 71.5999 130.401 71.1999C130.801 70.7999 131.201 70.4999 131.801 70.2999C132.301 70.0999 132.901 70.0999 133.401 70.2999C134.301 70.4999 134.901 70.9999 135.301 71.7999C135.701 72.5999 135.701 73.4999 135.501 74.4999V74.5999C135.301 75.1999 135.101 75.7999 134.701 76.1999C134.301 76.5999 133.901 76.8999 133.301 77.0999C132.701 77.2999 132.201 77.2999 131.601 77.0999C130.701 76.8999 130.101 76.3999 129.701 75.5999C129.301 74.7999 129.301 73.8999 129.601 72.7999ZM130.701 73.2999C130.501 73.9999 130.501 74.5999 130.701 75.1999C130.901 75.6999 131.301 76.0999 131.901 76.1999C132.501 76.3999 133.001 76.1999 133.401 75.8999C133.901 75.4999 134.201 74.9999 134.401 74.1999C134.601 73.4999 134.601 72.8999 134.401 72.2999C134.201 71.7999 133.801 71.3999 133.201 71.2999C132.701 71.1999 132.101 71.2999 131.701 71.5999C131.201 71.8999 130.901 72.4999 130.701 73.2999Z" fill="white"/>
<path d="M139.998 79.6002L138.898 79.2002L142.098 70.7002L143.198 71.1002L139.998 79.6002Z" fill="white"/>
<path d="M145.3 74.5001L145 75.3001C145.7 74.9001 146.5 74.9001 147.2 75.2001C148.5 75.8001 148.8 76.8001 148.2 78.3001L146.4 82.4001L145.3 81.9001L147.1 77.8001C147.3 77.4001 147.3 77.0001 147.2 76.7001C147.1 76.4001 146.8 76.2001 146.4 76.0001C146.1 75.8001 145.7 75.8001 145.4 75.9001C145.1 76.0001 144.8 76.1001 144.5 76.4001L142.6 80.8001L141.5 80.3001L144.2 74.1001L145.3 74.5001Z" fill="white"/>
<path d="M149.101 79.8001C149.601 78.9001 150.201 78.3001 150.901 78.0001C151.601 77.7001 152.301 77.7001 153.001 78.1001C153.701 78.5001 154.101 79.0001 154.301 79.7001L156.001 76.6001L157.001 77.1001L152.401 85.5001L151.501 85.0001L151.801 84.3001C151.101 84.6001 150.401 84.5001 149.701 84.1001C149.001 83.7001 148.601 83.1001 148.501 82.3001C148.301 81.7001 148.501 80.8001 149.101 79.8001ZM150.001 80.5001C149.601 81.2001 149.501 81.8001 149.601 82.3001C149.701 82.8001 150.001 83.2001 150.401 83.5001C151.001 83.8001 151.701 83.8001 152.301 83.4001L153.801 80.7001C153.801 80.0001 153.501 79.4001 152.901 79.1001C152.401 78.8001 151.901 78.8001 151.401 79.0001C150.901 79.2001 150.401 79.7001 150.001 80.5001Z" fill="white"/>
<path d="M154.801 86.9998L153.801 86.3998L157.301 80.6998L158.301 81.2998L154.801 86.9998ZM158.201 79.0998C158.301 78.8998 158.401 78.7998 158.601 78.7998C158.801 78.7998 158.901 78.7998 159.101 78.8998C159.301 78.9998 159.401 79.1998 159.401 79.2998C159.401 79.4998 159.401 79.5998 159.301 79.7998C159.201 79.9998 159.101 80.0998 158.901 80.0998C158.701 80.0998 158.601 80.0998 158.401 79.9998C158.201 79.8998 158.101 79.6998 158.101 79.5998C158.101 79.4998 158.101 79.2998 158.201 79.0998Z" fill="white"/>
<path d="M159.502 90.2001C159.502 90.1001 159.602 89.8001 159.802 89.5001C159.002 89.6001 158.402 89.5001 157.702 89.1001C157.202 88.7001 156.802 88.3001 156.702 87.7001C156.602 87.1001 156.702 86.6001 157.002 86.2001C157.402 85.6001 157.902 85.3001 158.602 85.3001C159.302 85.3001 160.002 85.6001 160.802 86.1001L161.702 86.7001L162.002 86.3001C162.202 86.0001 162.302 85.6001 162.302 85.3001C162.202 85.0001 162.002 84.7001 161.602 84.4001C161.302 84.2001 160.902 84.1001 160.602 84.1001C160.302 84.1001 160.002 84.2001 159.802 84.5001L158.902 83.8001C159.102 83.5001 159.402 83.3001 159.802 83.2001C160.202 83.1001 160.602 83.1001 161.002 83.1001C161.402 83.1001 161.902 83.4001 162.302 83.6001C162.902 84.0001 163.302 84.6001 163.502 85.1001C163.602 85.7001 163.502 86.2001 163.102 86.8001L161.302 89.3001C160.902 89.8001 160.702 90.3001 160.602 90.6001L160.502 90.7001L159.502 90.2001ZM158.502 88.4001C158.802 88.6001 159.102 88.7001 159.502 88.8001C159.902 88.9001 160.202 88.8001 160.502 88.6001L161.302 87.5001L160.602 87.0001C159.402 86.2001 158.602 86.1001 158.202 86.8001C158.002 87.1001 157.902 87.4001 158.002 87.7001C158.002 87.9001 158.202 88.2001 158.502 88.4001Z" fill="white"/>
<path d="M22 193L30.3 189.4L31.5 192.1C31.9 193 32 193.8 31.8 194.4C31.6 195 31.2 195.5 30.4 195.8C30 196 29.6 196 29.2 195.9C28.8 195.8 28.4 195.6 28.1 195.3C28.2 195.8 28.1 196.3 27.8 196.7C27.6 197.1 27.2 197.4 26.7 197.6C26 197.9 25.3 197.9 24.6 197.6C23.9 197.3 23.5 196.7 23.1 195.8L22 193ZM26.4 192.4L23.4 193.7L24.2 195.5C24.4 196 24.7 196.4 25.1 196.5C25.5 196.7 25.9 196.7 26.4 196.5C27.4 196.1 27.7 195.3 27.2 194.2L26.4 192.4ZM27.3 192L28 193.7C28.2 194.2 28.5 194.5 28.9 194.7C29.3 194.9 29.7 194.9 30.1 194.7C30.6 194.5 30.8 194.2 30.9 193.9C31 193.5 30.9 193.1 30.7 192.5L30 190.9L27.3 192Z" fill="white"/>
<path d="M31.1 198.7C31.9 198.9 32.5 199.3 32.9 200C33.6 201.3 33.2 202.3 31.8 203L27.9 205.1L27.4 204.1L31.3 202C31.7 201.8 32 201.5 32.1 201.2C32.2 200.9 32.1 200.5 31.9 200.1C31.7 199.8 31.5 199.5 31.2 199.4C30.9 199.2 30.6 199.2 30.2 199.2L26 201.5L25.5 200.5L33.9 196L34.4 197L31.1 198.7Z" fill="white"/>
<path d="M31.1009 210.4C31.2009 210.3 31.3009 210.1 31.6009 209.9C30.8009 209.7 30.3009 209.4 29.9009 208.7C29.5009 208.1 29.4009 207.6 29.5009 207C29.6009 206.4 29.9009 206 30.4009 205.7C31.0009 205.3 31.6009 205.3 32.2009 205.5C32.8009 205.7 33.4009 206.3 33.9009 207.1L34.5009 208L34.9009 207.7C35.2009 207.5 35.4009 207.2 35.5009 206.9C35.6009 206.6 35.5009 206.2 35.2009 205.8C35.0009 205.5 34.7009 205.2 34.4009 205.1C34.1009 205 33.8009 205 33.5009 205.2L32.9009 204.2C33.2009 204 33.5009 203.9 33.9009 204C34.3009 204 34.7009 204.2 35.0009 204.4C35.4009 204.6 35.7009 205 36.0009 205.4C36.4009 206.1 36.6009 206.7 36.5009 207.3C36.4009 207.9 36.1009 208.4 35.5009 208.7L32.9009 210.4C32.4009 210.7 32.0009 211.1 31.8009 211.4L31.7009 211.5L31.1009 210.4ZM30.8009 208.3C31.0009 208.6 31.3009 208.8 31.6009 209C31.9009 209.2 32.3009 209.2 32.6009 209.2L33.8009 208.5L33.3009 207.7C32.5009 206.5 31.8009 206.1 31.1009 206.6C30.8009 206.8 30.6009 207 30.6009 207.4C30.6009 207.7 30.6009 208 30.8009 208.3Z" fill="white"/>
<path d="M36.6993 215.1C36.8993 214.9 37.0993 214.7 37.0993 214.4C37.0993 214.1 36.9993 213.7 36.6993 213.2C36.4993 212.7 36.2993 212.2 36.1993 211.8C36.0993 211.4 36.0993 211.1 36.1993 210.8C36.2993 210.5 36.4993 210.3 36.6993 210.1C37.0993 209.8 37.6993 209.7 38.1993 209.8C38.6993 209.9 39.2993 210.3 39.6993 210.9C40.1993 211.5 40.3993 212.1 40.2993 212.7C40.2993 213.3 39.9993 213.8 39.4993 214.2L38.7993 213.3C39.0993 213.1 39.1993 212.8 39.1993 212.5C39.1993 212.1 39.0993 211.8 38.8993 211.5C38.5993 211.2 38.3993 211 38.0993 210.9C37.7993 210.8 37.4993 210.9 37.2993 211C37.0993 211.2 36.9993 211.4 36.9993 211.6C36.9993 211.9 37.0993 212.3 37.3993 212.8C37.5993 213.3 37.7993 213.8 37.8993 214.2C37.9993 214.6 37.9993 214.9 37.8993 215.2C37.7993 215.5 37.5993 215.7 37.2993 216C36.7993 216.4 36.2993 216.5 35.6993 216.3C35.0993 216.1 34.5993 215.7 34.0993 215.1C33.7993 214.7 33.5993 214.2 33.4993 213.8C33.3993 213.4 33.3993 212.9 33.5993 212.5C33.6993 212.1 33.9993 211.8 34.2993 211.6L34.9993 212.5C34.6993 212.7 34.5993 213.1 34.4993 213.4C34.4993 213.8 34.5993 214.1 34.8993 214.5C35.1993 214.8 35.3993 215.1 35.6993 215.2C36.1993 215.3 36.3993 215.2 36.6993 215.1Z" fill="white"/>
<path d="M42.3 215.5C43.1 215.5 43.8 215.8 44.3 216.4C45.2 217.5 45.1 218.5 43.9 219.6L40.5 222.5L39.7 221.6L43.1 218.7C43.5 218.4 43.7 218.1 43.7 217.7C43.7 217.4 43.6 217.1 43.3 216.7C43.1 216.4 42.8 216.2 42.4 216.2C42 216.2 41.7 216.1 41.4 216.2L37.8 219.4L37 218.5L44.2 212.2L45 213.1L42.3 215.5Z" fill="white"/>
<path d="M45.0016 226.9C45.0016 226.8 45.2016 226.6 45.4016 226.3C44.6016 226.3 44.0016 226.1 43.4016 225.6C42.9016 225.1 42.7016 224.6 42.6016 224.1C42.6016 223.5 42.7016 223 43.1016 222.6C43.6016 222.1 44.2016 221.9 44.8016 222C45.5016 222.1 46.1016 222.5 46.8016 223.2L47.6016 224L48.0016 223.6C48.3016 223.3 48.4016 223 48.4016 222.7C48.4016 222.4 48.2016 222 47.9016 221.7C47.6016 221.4 47.3016 221.2 46.9016 221.2C46.6016 221.2 46.3016 221.2 46.1016 221.4L45.3016 220.6C45.5016 220.4 45.8016 220.2 46.2016 220.2C46.6016 220.1 47.0016 220.2 47.4016 220.3C47.8016 220.5 48.2016 220.7 48.6016 221C49.2016 221.5 49.5016 222.1 49.5016 222.7C49.5016 223.3 49.3016 223.8 48.9016 224.3L46.7016 226.5C46.3016 226.9 46.0016 227.3 45.8016 227.7L45.7016 227.8L45.0016 226.9ZM44.2016 224.9C44.5016 225.2 44.8016 225.3 45.1016 225.4C45.4016 225.5 45.8016 225.5 46.1016 225.4L47.1016 224.4L46.5016 223.8C45.5016 222.8 44.7016 222.6 44.1016 223.2C43.8016 223.5 43.7016 223.7 43.8016 224.1C43.8016 224.4 44.0016 224.7 44.2016 224.9Z" fill="white"/>
<path d="M54.5 229.7C53.9 228.8 53.5 228.1 53.4 227.5C53.3 226.9 53.4 226.3 53.8 225.8C54.2 225.2 54.8 224.9 55.6 224.9C56.3 224.9 57.1 225.1 57.8 225.7C58.3 226.1 58.7 226.5 58.9 227C59.1 227.5 59.2 228 59.2 228.5C59.2 229 59 229.4 58.7 229.8L57.7 229.1C58 228.7 58.2 228.2 58.1 227.8C58 227.3 57.7 226.9 57.2 226.5C56.7 226.1 56.3 226 55.9 226C55.5 226 55.1 226.2 54.8 226.6C54.6 226.9 54.5 227.2 54.6 227.6C54.7 228 55 228.5 55.4 229.1C55.9 229.7 56.2 230.3 56.4 230.7C56.6 231.2 56.6 231.6 56.6 232C56.6 232.4 56.4 232.8 56.1 233.1C55.7 233.7 55.1 234 54.3 234C53.6 234 52.8 233.7 52.1 233.1C51.6 232.7 51.2 232.3 50.9 231.8C50.6 231.3 50.5 230.8 50.5 230.3C50.5 229.8 50.7 229.3 51 228.9L52 229.6C51.7 230 51.6 230.5 51.7 231C51.8 231.5 52.2 232 52.7 232.4C53.2 232.8 53.7 233 54.1 233C54.5 233 54.9 232.8 55.1 232.5C55.4 232.1 55.5 231.8 55.4 231.4C55.3 231 55 230.4 54.5 229.7Z" fill="white"/>
<path d="M59.6017 238.3C59.6017 238.2 59.7017 237.9 59.9017 237.6C59.1017 237.8 58.5017 237.7 57.8017 237.3C57.2017 236.9 56.9017 236.5 56.7017 235.9C56.5017 235.3 56.6017 234.8 56.9017 234.4C57.3017 233.8 57.8017 233.5 58.5017 233.5C59.2017 233.5 59.9017 233.7 60.7017 234.2L61.6017 234.8L61.9017 234.4C62.1017 234.1 62.2017 233.7 62.1017 233.4C62.0017 233.1 61.8017 232.8 61.4017 232.5C61.1017 232.3 60.7017 232.2 60.4017 232.2C60.1017 232.2 59.8017 232.4 59.6017 232.6L58.6017 232C58.8017 231.7 59.1017 231.5 59.4017 231.4C59.8017 231.3 60.2017 231.2 60.6017 231.3C61.0017 231.4 61.5017 231.5 61.9017 231.8C62.6017 232.2 63.0017 232.7 63.1017 233.3C63.3017 233.9 63.2017 234.4 62.8017 235L61.1017 237.6C60.8017 238.1 60.6017 238.6 60.5017 239L60.4017 239.1L59.6017 238.3ZM58.5017 236.5C58.8017 236.7 59.1017 236.8 59.5017 236.8C59.9017 236.8 60.2017 236.7 60.5017 236.6L61.3017 235.4L60.5017 234.9C59.3017 234.1 58.5017 234.1 58.0017 234.8C57.8017 235.1 57.7017 235.4 57.8017 235.7C58.0017 236 58.2017 236.3 58.5017 236.5Z" fill="white"/>
<path d="M66.3984 234.5L66.0984 235.2C66.7984 234.9 67.4985 235 68.2985 235.3C69.0985 235.7 69.4984 236.3 69.4984 237.1C69.7984 236.9 70.1984 236.8 70.5984 236.8C70.9984 236.8 71.3984 236.9 71.8984 237.1C73.1984 237.8 73.4985 238.8 72.7985 240.2L70.6985 244.2L69.6985 243.7L71.6985 239.7C71.8985 239.3 71.9984 238.9 71.8984 238.6C71.7984 238.3 71.4984 238 71.0984 237.8C70.6985 237.6 70.2984 237.6 69.9984 237.7C69.5984 237.8 69.2984 238 69.0984 238.4L67.0984 242.4L66.0984 241.9L68.0984 238C68.4984 237.1 68.2984 236.5 67.4984 236C66.7984 235.7 66.1985 235.7 65.6985 236.1L63.3984 240.5L62.3984 240L65.4984 234L66.3984 234.5Z" fill="white"/>
<path d="M76.6995 246.7C76.6995 246.6 76.6996 246.3 76.7996 246C76.0996 246.3 75.3995 246.3 74.6995 246.1C74.0995 245.9 73.5995 245.5 73.3995 245C73.0995 244.5 73.0996 244 73.2996 243.4C73.5996 242.7 73.9995 242.3 74.5995 242.2C75.1995 242 75.9995 242.1 76.8995 242.5L77.8995 242.9L78.0995 242.4C78.1995 242 78.2995 241.7 78.0995 241.4C77.9995 241.1 77.6995 240.8 77.1995 240.7C76.7995 240.6 76.4995 240.5 76.0995 240.6C75.7995 240.7 75.4995 240.9 75.3995 241.1L74.2996 240.7C74.3996 240.4 74.6995 240.1 74.9995 239.9C75.2995 239.7 75.6995 239.6 76.1995 239.6C76.5995 239.6 77.0995 239.7 77.5995 239.8C78.2995 240.1 78.7995 240.5 79.0995 241C79.3995 241.5 79.3995 242.1 79.1995 242.7L78.0995 245.6C77.8995 246.2 77.7996 246.7 77.7996 247.1V247.2L76.6995 246.7ZM75.1995 245.1C75.4995 245.2 75.8996 245.3 76.2996 245.2C76.6996 245.1 76.9995 245 77.1995 244.8L77.6995 243.5L76.8995 243.2C75.5995 242.7 74.7995 242.8 74.4995 243.6C74.3995 243.9 74.3995 244.2 74.4995 244.5C74.5995 244.8 74.8995 245 75.1995 245.1Z" fill="white"/>
<path d="M84.4 243.2C84.2 243.1 84.1 243 83.9 243C83.2 242.8 82.6 242.9 82.1 243.5L80.6 248.1L79.5 247.7L81.6 241.3L82.7 241.6L82.5 242.3C83 241.8 83.6 241.7 84.3 241.9C84.5 242 84.7 242 84.8 242.1L84.4 243.2Z" fill="white"/>
<path d="M87.8992 241.4L87.4992 243L88.6992 243.3L88.4992 244.2L87.2992 243.9L86.1992 247.9C86.0992 248.2 86.0992 248.4 86.1992 248.5C86.2992 248.7 86.3992 248.8 86.6992 248.8C86.7992 248.8 86.9992 248.9 87.1992 248.9L86.9992 249.8C86.6992 249.8 86.3992 249.8 86.0992 249.7C85.5992 249.6 85.2992 249.3 85.0992 249C84.8992 248.6 84.8992 248.2 85.0992 247.6L86.1992 243.6L84.9992 243.3L85.1992 242.4L86.3992 242.7L86.7992 241.1L87.8992 241.4Z" fill="white"/>
<path d="M90.8016 244.6C91.4016 244.1 92.1016 243.9 92.9016 244.1C94.3016 244.4 94.8016 245.3 94.5016 246.9L93.6016 251.3L92.5016 251.1L93.4016 246.7C93.5016 246.2 93.5016 245.8 93.3016 245.6C93.1016 245.3 92.8016 245.1 92.4016 245.1C92.0016 245 91.7016 245.1 91.4016 245.2C91.1016 245.3 90.8016 245.6 90.6016 245.8L89.7016 250.5L88.6016 250.3L90.5016 240.9L91.6016 241.1L90.8016 244.6Z" fill="white"/>
<path d="M99.8992 252.1C99.7992 252 99.7992 251.7 99.7992 251.4C99.1992 251.9 98.4992 252.1 97.7992 252C97.0992 251.9 96.5992 251.7 96.1992 251.2C95.7992 250.7 95.6992 250.3 95.6992 249.7C95.7992 249 96.0992 248.5 96.6992 248.2C97.2992 247.9 97.9992 247.8 98.9992 247.9L100.099 248L100.199 247.5C100.199 247.1 100.199 246.8 99.9992 246.5C99.7992 246.2 99.3992 246.1 98.9992 246C98.5992 246 98.1992 246 97.8992 246.2C97.5992 246.4 97.3992 246.6 97.3992 246.9L96.1992 246.8C96.1992 246.5 96.3992 246.2 96.6992 245.9C96.9992 245.6 97.2992 245.4 97.7992 245.3C98.1992 245.2 98.6992 245.1 99.1992 245.2C99.9992 245.3 100.599 245.6 100.899 246C101.299 246.4 101.499 247 101.399 247.7L100.999 250.8C100.899 251.4 100.899 251.9 101.099 252.3V252.4L99.8992 252.1ZM98.0992 251C98.4992 251 98.7992 251 99.1992 250.8C99.4992 250.7 99.7992 250.4 99.9992 250.2L100.199 248.8L99.2992 248.7C97.8992 248.5 97.0992 248.9 97.0992 249.7C97.0992 250.1 97.0992 250.4 97.3992 250.6C97.4992 250.8 97.7992 250.9 98.0992 251Z" fill="white"/>
<path d="M105.1 249.3L104.3 250L104.2 252.4H103L103.4 242.8H104.6L104.4 248.6L105 247.9L107.2 245.8L108.6 245.9L105.9 248.6L108.7 252.6L107.3 252.5L105.1 249.3Z" fill="white"/>
<path d="M112.801 247.7C112.801 247.3 112.901 247 113.101 246.8C113.301 246.6 113.601 246.4 114.001 246.4C114.401 246.4 114.701 246.5 114.901 246.7C115.101 246.9 115.301 247.2 115.301 247.6V247.8C115.301 248.2 115.201 248.5 115.001 248.7C114.801 248.9 114.501 249.1 114.101 249.1C113.701 249.1 113.401 249 113.201 248.8C113.001 248.6 112.801 248.3 112.801 247.9V247.7Z" fill="white"/>
<path d="M123.2 247.4C122.1 247.3 121.3 247 120.8 246.7C120.3 246.3 120 245.9 119.9 245.2C119.8 244.5 120 243.9 120.5 243.3C121 242.8 121.7 242.4 122.6 242.3C123.2 242.2 123.8 242.2 124.3 242.4C124.8 242.6 125.2 242.8 125.6 243.2C126 243.6 126.1 244 126.2 244.5L125 244.7C124.9 244.2 124.7 243.8 124.3 243.5C123.9 243.2 123.4 243.2 122.8 243.3C122.2 243.4 121.8 243.6 121.5 243.9C121.2 244.2 121.1 244.6 121.2 245C121.3 245.4 121.5 245.7 121.8 245.9C122.1 246.1 122.7 246.3 123.5 246.3C124.3 246.4 124.9 246.5 125.4 246.7C125.9 246.9 126.2 247.1 126.5 247.4C126.8 247.7 126.9 248.1 127 248.5C127.1 249.2 126.9 249.9 126.4 250.4C125.9 250.9 125.2 251.3 124.2 251.4C123.6 251.5 123 251.5 122.4 251.3C121.8 251.1 121.4 250.9 121 250.5C120.6 250.1 120.4 249.7 120.3 249.2L121.5 249C121.6 249.5 121.9 249.9 122.3 250.2C122.7 250.5 123.3 250.5 124 250.4C124.6 250.3 125.1 250.1 125.4 249.8C125.7 249.5 125.8 249.1 125.7 248.7C125.6 248.3 125.4 247.9 125.1 247.8C124.8 247.7 124 247.5 123.2 247.4Z" fill="white"/>
<path d="M126.898 242.2C126.898 242 126.898 241.9 126.998 241.7C127.098 241.6 127.198 241.5 127.498 241.4C127.698 241.4 127.898 241.4 127.998 241.5C128.098 241.6 128.198 241.7 128.298 241.9C128.298 242.1 128.298 242.2 128.198 242.4C128.098 242.6 127.998 242.6 127.698 242.7C127.498 242.7 127.298 242.7 127.198 242.6C127.098 242.5 126.898 242.4 126.898 242.2ZM129.898 250.3L128.798 250.5L127.398 243.9L128.498 243.7L129.898 250.3Z" fill="white"/>
<path d="M133.102 249.5L132.002 249.8L129.602 240.5L130.702 240.2L133.102 249.5Z" fill="white"/>
<path d="M136.802 246.8L136.902 241.4L138.002 241.1L137.702 248.3L136.902 248.6L132.602 242.9L133.702 242.6L136.802 246.8Z" fill="white"/>
<path d="M143.898 246.1C142.998 246.4 142.198 246.4 141.498 246.1C140.698 245.8 140.198 245.1 139.798 244.2L139.698 244C139.498 243.4 139.398 242.8 139.398 242.2C139.398 241.6 139.598 241.1 139.898 240.7C140.198 240.3 140.598 239.9 141.098 239.7C141.898 239.4 142.698 239.4 143.298 239.8C143.898 240.2 144.498 240.8 144.898 241.8L145.098 242.2L140.798 243.9C141.098 244.5 141.398 244.9 141.898 245.2C142.398 245.4 142.898 245.5 143.398 245.3C143.798 245.2 144.098 244.9 144.298 244.7C144.498 244.5 144.698 244.1 144.698 243.8L145.598 244.1C145.598 245 144.898 245.7 143.898 246.1ZM141.498 240.5C141.098 240.7 140.798 241 140.598 241.4C140.398 241.8 140.398 242.3 140.598 242.9L143.698 241.7V241.6C143.498 241.1 143.098 240.7 142.798 240.5C142.398 240.4 141.998 240.4 141.498 240.5Z" fill="white"/>
<path d="M148.3 237.8C148.1 237.8 148 237.9 147.8 238C147.1 238.3 146.8 238.8 146.8 239.5L148.8 243.8L147.8 244.3L145 238.2L146 237.7L146.3 238.4C146.4 237.7 146.7 237.2 147.4 236.9C147.6 236.8 147.8 236.8 147.9 236.8L148.3 237.8Z" fill="white"/>
<path d="M159.298 234.8C159.698 235.7 159.798 236.5 159.498 237.2C159.298 238 158.698 238.6 157.898 239.1C156.998 239.7 155.998 239.8 155.098 239.4C154.198 239 153.298 238.4 152.698 237.3L152.298 236.6C151.898 235.9 151.598 235.2 151.498 234.5C151.398 233.8 151.498 233.2 151.798 232.6C152.098 232 152.598 231.5 153.198 231.2C153.998 230.7 154.798 230.5 155.598 230.7C156.398 230.9 156.998 231.3 157.598 232.1L156.598 232.7C156.098 232.1 155.698 231.8 155.198 231.7C154.698 231.6 154.198 231.7 153.698 232C152.998 232.4 152.698 232.9 152.598 233.7C152.498 234.5 152.698 235.2 153.298 236.1L153.798 236.9C154.298 237.7 154.898 238.3 155.498 238.6C156.198 238.9 156.798 238.8 157.398 238.5C157.998 238.2 158.298 237.8 158.498 237.3C158.598 236.9 158.598 236.3 158.298 235.6L159.298 234.8Z" fill="white"/>
<path d="M160.001 233.7C159.601 233.2 159.401 232.6 159.301 232C159.201 231.4 159.301 230.9 159.501 230.4C159.701 229.9 160.001 229.5 160.501 229.1C161.201 228.6 162.001 228.4 162.901 228.6C163.701 228.8 164.501 229.3 165.101 230.1V230.2C165.501 230.7 165.701 231.3 165.801 231.8C165.901 232.3 165.901 232.9 165.601 233.4C165.401 233.9 165.001 234.3 164.601 234.7C163.901 235.2 163.101 235.4 162.201 235.2C161.401 235.1 160.701 234.6 160.001 233.7ZM161.001 233.1C161.401 233.7 161.901 234.1 162.501 234.2C163.001 234.4 163.601 234.3 164.001 233.9C164.501 233.6 164.701 233.1 164.701 232.5C164.701 231.9 164.501 231.3 164.001 230.6C163.601 230 163.101 229.6 162.501 229.5C161.901 229.3 161.401 229.4 161.001 229.8C160.501 230.1 160.301 230.6 160.301 231.2C160.301 231.8 160.501 232.4 161.001 233.1Z" fill="white"/>
<path d="M164.801 225.8L165.401 226.4C165.401 225.6 165.701 224.9 166.301 224.3C167.401 223.4 168.401 223.5 169.501 224.7L172.401 228.1L171.501 228.9L168.601 225.5C168.301 225.1 168.001 224.9 167.601 224.9C167.301 224.9 167.001 225 166.601 225.3C166.301 225.5 166.101 225.8 166.001 226.2C165.901 226.5 165.901 226.9 166.001 227.2L169.101 230.8L168.201 231.6L163.801 226.5L164.801 225.8Z" fill="white"/>
<path d="M169.201 219.7L170.301 220.9L171.201 220L171.801 220.6L170.901 221.5L173.801 224.5C174.001 224.7 174.201 224.8 174.301 224.8C174.401 224.8 174.701 224.7 174.901 224.5C175.001 224.4 175.101 224.3 175.201 224.1L175.801 224.8C175.601 225.1 175.501 225.3 175.301 225.5C174.901 225.9 174.501 226 174.101 226C173.701 226 173.301 225.7 172.901 225.3L170.001 222.3L169.101 223.2L168.501 222.6L169.401 221.7L168.301 220.5L169.201 219.7Z" fill="white"/>
<path d="M175.002 217.5C174.902 217.6 174.702 217.7 174.602 217.9C174.102 218.5 174.002 219 174.302 219.7L177.802 223L177.002 223.8L172.102 219.2L172.902 218.4L173.502 218.9C173.302 218.2 173.502 217.6 173.902 217.1C174.102 216.9 174.202 216.8 174.302 216.8L175.002 217.5Z" fill="white"/>
<path d="M173.598 214.8C173.498 214.7 173.398 214.5 173.398 214.4C173.398 214.2 173.398 214.1 173.598 213.9C173.698 213.7 173.898 213.6 174.098 213.6C174.298 213.6 174.398 213.7 174.598 213.8C174.698 213.9 174.798 214.1 174.798 214.2C174.798 214.3 174.798 214.5 174.598 214.7C174.398 214.9 174.298 215 174.098 215C173.898 215 173.698 215 173.598 214.8ZM180.798 219.5L179.998 220.4L174.898 216L175.698 215.1L180.798 219.5Z" fill="white"/>
<path d="M183.099 211.3C183.899 211.9 184.399 212.6 184.599 213.4C184.799 214.2 184.699 214.9 184.199 215.5C183.699 216.2 182.999 216.5 182.299 216.5L182.899 217L182.299 217.8L174.699 212L175.399 211.1L178.199 213.3C177.999 212.6 178.199 211.9 178.699 211.2C179.199 210.6 179.799 210.2 180.599 210.2C181.299 210.3 182.099 210.6 183.099 211.3ZM182.299 212.2C181.699 211.7 181.099 211.5 180.599 211.5C180.099 211.5 179.599 211.7 179.299 212.1C178.799 212.7 178.799 213.4 179.099 214L181.399 215.8C182.199 215.9 182.799 215.7 183.199 215.1C183.499 214.7 183.599 214.2 183.499 213.7C183.399 213.2 182.899 212.7 182.299 212.2Z" fill="white"/>
<path d="M188.4 208C188.6 208.7 188.5 209.4 188 210.1C187.6 210.7 187.1 211 186.6 211.1C186.1 211.2 185.4 211 184.7 210.6L181 208.2L181.6 207.2L185.3 209.6C186.2 210.2 186.8 210.1 187.3 209.4C187.8 208.7 187.8 208 187.4 207.4L183.3 204.7L183.9 203.7L189.6 207.4L189 208.3L188.4 208Z" fill="white"/>
<path d="M184.102 200.2L185.502 201L186.102 199.9L186.902 200.3L186.302 201.4L189.902 203.4C190.102 203.5 190.302 203.6 190.502 203.6C190.702 203.6 190.802 203.4 191.002 203.2C191.102 203.1 191.102 202.9 191.202 202.7L192.002 203.2C191.902 203.5 191.802 203.8 191.702 204C191.402 204.4 191.102 204.7 190.702 204.8C190.302 204.9 189.902 204.8 189.402 204.5L185.802 202.5L185.202 203.6L184.402 203.2L185.002 202.1L183.602 201.3L184.102 200.2Z" fill="white"/>
<path d="M189.498 200.7C188.898 200.4 188.398 200 188.098 199.6C187.698 199.1 187.498 198.6 187.498 198.1C187.398 197.6 187.498 197 187.798 196.5C188.198 195.7 188.798 195.1 189.598 194.9C190.398 194.7 191.298 194.8 192.298 195.2H192.398C192.998 195.5 193.498 195.9 193.798 196.3C194.198 196.8 194.398 197.3 194.398 197.8C194.498 198.3 194.398 198.9 194.098 199.4C193.698 200.2 193.098 200.8 192.298 201C191.398 201.3 190.498 201.1 189.498 200.7ZM190.098 199.7C190.798 200 191.398 200.1 191.898 200C192.398 199.9 192.898 199.6 193.098 199C193.398 198.5 193.298 198 193.098 197.4C192.798 196.9 192.298 196.5 191.598 196.1C190.898 195.8 190.298 195.7 189.798 195.8C189.198 195.9 188.798 196.2 188.598 196.8C188.398 197.3 188.398 197.8 188.598 198.3C188.798 198.9 189.398 199.3 190.098 199.7Z" fill="white"/>
<path d="M191.8 189.8C191.7 190 191.6 190.1 191.5 190.3C191.2 191 191.3 191.6 191.8 192.1L196.2 193.9L195.8 195L189.5 192.5L189.9 191.5L190.6 191.8C190.2 191.2 190.1 190.6 190.4 190C190.5 189.8 190.6 189.6 190.7 189.6L191.8 189.8Z" fill="white"/>
<defs>
<filter id="filter0_ii" x="0" y="50" width="218" height="218" filterUnits="userSpaceOnUse" color-interpolation-filters="sRGB">
<feFlood flood-opacity="0" result="BackgroundImageFix"/>
<feBlend mode="normal" in="SourceGraphic" in2="BackgroundImageFix" result="shape"/>
<feColorMatrix in="SourceAlpha" type="matrix" values="0 0 0 0 0 0 0 0 0 0 0 0 0 0 0 0 0 0 127 0" result="hardAlpha"/>
<feOffset/>
<feGaussianBlur stdDeviation="4"/>
<feComposite in2="hardAlpha" operator="arithmetic" k2="-1" k3="1"/>
<feColorMatrix type="matrix" values="0 0 0 0 0.9875 0 0 0 0 0.722843 0 0 0 0 0.386771 0 0 0 1 0"/>
<feBlend mode="normal" in2="shape" result="effect1_innerShadow"/>
<feColorMatrix in="SourceAlpha" type="matrix" values="0 0 0 0 0 0 0 0 0 0 0 0 0 0 0 0 0 0 127 0" result="hardAlpha"/>
<feOffset/>
<feGaussianBlur stdDeviation="6"/>
<feComposite in2="hardAlpha" operator="arithmetic" k2="-1" k3="1"/>
<feColorMatrix type="matrix" values="0 0 0 0 0 0 0 0 0 0 0 0 0 0 0 0 0 0 0.2 0"/>
<feBlend mode="normal" in2="effect1_innerShadow" result="effect2_innerShadow"/>
</filter>
<filter id="filter1_i" x="59" y="109" width="100" height="100" filterUnits="userSpaceOnUse" color-interpolation-filters="sRGB">
<feFlood flood-opacity="0" result="BackgroundImageFix"/>
<feBlend mode="normal" in="SourceGraphic" in2="BackgroundImageFix" result="shape"/>
<feColorMatrix in="SourceAlpha" type="matrix" values="0 0 0 0 0 0 0 0 0 0 0 0 0 0 0 0 0 0 127 0" result="hardAlpha"/>
<feOffset/>
<feGaussianBlur stdDeviation="6"/>
<feComposite in2="hardAlpha" operator="arithmetic" k2="-1" k3="1"/>
<feColorMatrix type="matrix" values="0 0 0 0 0.34902 0 0 0 0 0.360784 0 0 0 0 0.364706 0 0 0 1 0"/>
<feBlend mode="normal" in2="shape" result="effect1_innerShadow"/>
</filter>
<linearGradient id="paint0_linear" x1="51.775" y1="57.4938" x2="322.848" y2="328.729" gradientUnits="userSpaceOnUse">
<stop stop-color="white"/>
<stop offset="1" stop-color="#969696" stop-opacity="0"/>
</linearGradient>
<linearGradient id="paint1_linear" x1="174.52" y1="213.6" x2="38.8" y2="107.52" gradientUnits="userSpaceOnUse">
<stop stop-color="white"/>
<stop offset="1" stop-color="#383838" stop-opacity="0"/>
</linearGradient>
<linearGradient id="paint2_linear" x1="194.68" y1="230.4" x2="17.2" y2="91.68" gradientUnits="userSpaceOnUse">
<stop stop-color="white"/>
<stop offset="1" stop-color="#383838" stop-opacity="0"/>
</linearGradient>
</defs>
</svg>
