<svg width="218" height="266" viewBox="0 0 218 266" fill="none" xmlns="http://www.w3.org/2000/svg">
<path d="M86.0059 29.7983C84.9045 29.7983 84.0234 30.669 84.0234 31.7573V50.0412C84.0234 51.1295 84.9045 52.0002 86.0059 52.0002H131.381C132.483 52.0002 133.364 51.1295 133.364 50.0412V31.7573C133.364 30.669 132.483 29.7983 131.381 29.7983H86.0059ZM129.399 44.1642C129.399 45.2526 128.518 46.1232 127.416 46.1232H90.191C89.0896 46.1232 88.2086 45.2526 88.2086 44.1642V35.893C88.2086 34.8046 89.0896 33.934 90.191 33.934H127.416C128.518 33.934 129.399 34.8046 129.399 35.893V44.1642Z" fill="#BABABA"/>
<path d="M140.045 0L114.918 37.8775H127.37L155.388 0H140.045Z" fill="#0FA711"/>
<path d="M127.377 0L102.473 37.8775H114.925L140.052 0H127.377Z" fill="white"/>
<path d="M114.924 0L90.0195 37.8775H102.472L127.376 0H114.924Z" fill="#FF7600"/>
<path d="M90.0177 37.8775H102.47L77.343 0H62L90.0177 37.8775Z" fill="#FF7600"/>
<path d="M102.471 37.8775H114.923L90.0184 0H77.3438L102.471 37.8775Z" fill="white"/>
<path opacity="0.5" d="M110.695 6.27979L104.469 15.6931L119.145 37.8818H127.372L129.596 34.744L110.695 6.27979Z" fill="#3E4347"/>
<path d="M114.924 37.8775H127.376L102.472 0H90.0195L114.924 37.8775Z" fill="#0FA711"/>
<g filter="url(#filter0_ii)">
<path d="M218 157C218 217.199 169.199 266 109 266C48.801 266 0 217.199 0 157C0 96.801 48.801 48 109 48C169.199 48 218 96.801 218 157Z" fill="#D5D5D5" fill-opacity="0.8"/>
</g>
<path d="M214.5 157C214.5 215.266 167.266 262.5 109 262.5C50.734 262.5 3.5 215.266 3.5 157C3.5 98.734 50.734 51.5 109 51.5C167.266 51.5 214.5 98.734 214.5 157Z" stroke="#DFDFDF" stroke-width="7"/>
<path d="M214.5 157C214.5 215.266 167.266 262.5 109 262.5C50.734 262.5 3.5 215.266 3.5 157C3.5 98.734 50.734 51.5 109 51.5C167.266 51.5 214.5 98.734 214.5 157Z" stroke="url(#paint0_linear)" stroke-width="7"/>
<g filter="url(#filter1_i)">
<path d="M196 157C196 205.049 157.049 244 109 244C60.9512 244 22 205.049 22 157C22 108.951 60.9512 70 109 70C157.049 70 196 108.951 196 157Z" fill="#A0A0A0"/>
</g>
<path d="M196 157C196 205.049 157.049 244 109 244C60.9512 244 22 205.049 22 157C22 108.951 60.9512 70 109 70C157.049 70 196 108.951 196 157Z" stroke="#BABABA" stroke-width="30"/>
<path d="M109.001 80C66.5595 80 32 114.357 32 157.001C32 199.645 66.3574 234.002 109.001 234.002C151.645 234.002 186.002 199.645 186.002 157.001C186.002 114.357 151.442 80 109.001 80ZM93.6412 87.4778C93.8433 87.4778 93.8433 87.4778 93.6412 87.4778C95.0559 90.5093 97.6833 92.3282 100.311 91.7219C102.938 91.3177 105.565 89.4988 105.767 85.861C106.172 85.861 106.576 85.861 106.98 85.861C106.98 96.7745 106.172 108.496 104.959 121.229C104.757 122.441 104.757 123.654 104.757 124.867C104.353 123.856 103.948 122.644 103.544 121.229C99.3001 110.517 95.4601 98.9976 92.4286 87.6799C93.0349 87.6799 93.237 87.4778 93.6412 87.4778ZM76.0583 93.743C78.2814 96.3703 81.1109 97.3808 83.5361 96.1682C86.3655 94.9556 87.9823 92.1261 87.376 89.0946C87.7802 88.8925 88.1844 88.8925 88.5886 88.6904C91.216 99.1997 93.8433 110.72 95.8643 123.452C96.0664 124.867 96.2685 125.877 96.6727 127.09C96.0664 126.079 95.4601 125.069 94.4496 123.856C87.5781 114.559 80.9088 104.454 75.0478 94.3493C75.2499 94.1472 75.6541 93.9451 76.0583 93.743ZM60.4964 104.656C63.3259 106.475 66.3574 106.678 68.3784 105.061C69.9952 103.848 70.8036 102.029 70.8036 100.21C70.8036 99.1997 70.6015 98.1892 69.9952 97.3808C70.3994 97.1787 70.6015 96.9766 71.0057 96.7745C76.4625 106.071 81.7172 116.783 87.1739 128.302C87.7802 129.515 88.3865 130.526 88.7907 131.536C87.9823 130.728 86.9718 129.919 85.9613 129.111C77.0688 121.633 67.9742 113.549 59.688 105.465C59.8901 105.061 60.2943 104.859 60.4964 104.656ZM48.3703 119.006C48.5724 119.006 48.5724 119.006 48.3703 119.006C51.6039 120.016 54.6355 119.612 56.0502 117.389C56.4544 116.783 57.4649 115.166 57.4649 113.549C57.4649 112.538 57.0607 110.922 55.8481 109.507C56.0502 109.305 56.4544 108.901 56.6565 108.699C64.3364 116.378 72.2184 125.271 80.5046 134.972C81.313 135.982 82.1214 136.791 82.9298 137.599C81.9193 136.993 80.7067 136.589 79.494 135.982C68.9847 131.132 58.0712 125.675 47.764 120.016C47.9661 119.612 48.1682 119.41 48.3703 119.006ZM40.4883 135.982C40.4883 135.982 40.4883 135.78 40.4883 135.982C43.924 136.184 46.5514 134.972 47.5619 132.344C47.764 131.738 47.9661 130.93 47.9661 129.717C47.9661 128.505 47.5619 126.281 45.1367 124.665C45.3388 124.26 45.5409 124.058 45.743 123.654C55.0397 129.111 65.1448 135.578 75.452 142.854C76.4625 143.662 77.6751 144.269 78.4835 144.875C77.473 144.673 76.0583 144.471 74.6436 144.066C63.3259 142.45 51.4018 140.024 39.882 136.993C40.2862 136.791 40.4883 136.387 40.4883 135.982ZM37.2547 154.374C37.2547 154.374 37.2547 154.172 37.2547 154.374C40.4883 153.767 42.9135 151.746 43.1156 149.119C43.1156 148.917 43.1156 148.715 43.1156 148.311C43.1156 145.885 41.903 143.258 38.8715 142.248C38.8715 141.843 39.0736 141.439 39.0736 141.035C49.5829 143.864 60.9006 147.704 72.8247 151.948C74.0373 152.353 75.2499 152.757 76.2604 152.959C75.0478 152.959 73.8352 153.161 72.4205 153.161C61.1027 154.576 48.7745 155.182 37.0526 155.384C37.2547 155.182 37.2547 154.778 37.2547 154.374ZM38.8715 173.169C38.8715 172.967 38.8715 172.967 38.8715 173.169C41.4988 171.754 43.1156 169.733 43.1156 167.308C43.1156 167.106 43.1156 166.702 43.1156 166.5C42.7114 163.872 40.8925 161.245 37.2547 161.043C37.2547 160.639 37.2547 160.235 37.2547 159.83C48.1682 159.83 59.8901 160.437 72.6226 161.447C74.0373 161.649 75.2499 161.649 76.2604 161.649C75.2499 162.054 74.0373 162.458 72.6226 162.862C61.9111 167.106 50.3913 170.946 39.0736 174.18C39.0736 173.978 39.0736 173.573 38.8715 173.169ZM45.3387 190.752C45.3387 190.752 45.3387 190.55 45.3387 190.752C47.1577 189.135 48.1682 187.316 48.1682 185.295C48.1682 184.487 47.9661 183.881 47.764 183.274C46.7535 180.849 44.3282 178.828 40.6904 179.636C40.4883 179.232 40.4883 178.828 40.2862 178.424C50.7955 175.594 62.3153 173.169 74.8457 170.946C76.2604 170.744 77.2709 170.34 78.4835 170.138C77.473 170.744 76.4625 171.35 75.2499 172.361C65.9532 179.232 55.8481 185.902 45.743 191.965C45.743 191.358 45.5409 191.156 45.3387 190.752ZM56.2523 206.112C57.2628 204.495 57.667 203.08 57.667 201.463C57.667 200.251 57.2628 199.038 56.4544 198.23C54.8376 196.209 51.806 194.794 48.5724 196.411C48.3703 196.007 48.1682 195.805 47.9661 195.4C57.2628 189.944 67.9742 184.487 79.494 179.03C80.7067 178.424 81.7172 177.818 82.7277 177.413C81.9193 178.222 81.1109 179.232 80.3024 180.243C73.2289 189.337 65.1448 198.432 57.0607 206.92C56.8586 206.718 56.4544 206.516 56.2523 206.112ZM70.6015 218.036C70.8036 216.823 71.0057 215.813 71.0057 214.802C71.0057 212.781 70.1973 211.164 68.7826 210.356C66.7616 208.941 63.528 208.133 60.9006 210.76C60.4964 210.558 60.2943 210.154 60.0922 209.952C67.7721 202.272 76.4625 194.188 86.1634 186.104C87.1739 185.295 87.9823 184.487 88.7907 183.678C88.1844 184.689 87.7802 185.902 87.1739 187.114C82.7277 197.624 77.473 208.537 71.612 218.642C71.4099 218.44 71.0057 218.238 70.6015 218.036ZM87.5781 225.918C87.7802 222.482 86.3655 219.855 83.9403 218.844C81.5151 218.036 78.2814 218.238 76.2604 221.27C75.8562 221.067 75.6541 220.865 75.2499 220.663C80.7066 211.367 86.9718 201.261 94.2475 190.752C95.0559 189.539 95.6622 188.529 96.2685 187.721C96.0664 188.731 95.8643 190.146 95.4601 191.56C93.8433 202.878 91.4181 214.802 88.5886 226.322C88.3865 226.12 87.9823 226.12 87.5781 225.918ZM105.969 228.949C105.363 225.716 103.342 223.291 100.715 223.088C98.0874 222.886 95.0559 223.897 94.0454 227.333C93.6412 227.333 93.237 227.13 92.8328 227.13C95.6622 216.621 99.3001 205.303 103.544 193.379C103.948 192.167 104.353 190.954 104.555 189.944C104.555 191.156 104.757 192.369 104.757 193.784C106.172 205.101 106.98 217.43 107.182 229.151C106.778 229.151 106.374 229.151 105.969 228.949ZM178.928 142.45C176.301 143.864 174.482 145.885 174.482 148.311C174.482 148.513 174.482 148.917 174.482 149.119C174.886 151.746 176.705 154.374 180.343 154.576C180.343 154.98 180.343 155.384 180.343 155.788C169.632 155.788 157.708 154.98 144.975 153.767C143.56 153.565 142.348 153.565 141.337 153.565C142.348 153.161 143.56 152.757 144.975 152.353C155.687 148.108 167.206 144.269 178.524 141.237C178.726 141.641 178.726 142.045 178.928 142.45ZM172.663 124.867C172.663 124.867 172.663 125.069 172.663 124.867C170.844 126.484 169.834 128.302 169.834 130.323C169.834 131.132 170.036 131.738 170.238 132.344C171.248 134.77 173.674 136.791 177.312 136.184C177.514 136.589 177.514 136.993 177.716 137.397C167.206 140.024 155.485 142.45 142.954 144.673C141.539 144.875 140.529 145.077 139.316 145.481C140.327 144.875 141.337 144.269 142.55 143.46C151.847 136.387 161.952 129.717 172.057 123.856C172.259 124.26 172.461 124.463 172.663 124.867ZM162.154 109.709C161.143 111.326 160.537 112.943 160.537 114.357C160.537 115.57 160.941 116.783 161.75 117.591C163.366 119.612 166.196 121.027 169.43 119.41C169.632 119.814 169.834 120.016 170.036 120.42C160.537 125.675 150.028 131.132 138.306 136.184C137.093 136.791 136.083 137.195 135.072 137.801C135.881 136.993 136.689 135.982 137.7 134.972C144.975 126.079 153.059 116.985 161.345 108.699C161.548 109.103 161.952 109.305 162.154 109.709ZM147.603 97.1787C147.603 97.1787 147.805 97.3808 147.603 97.1787C147.4 98.3913 146.996 99.4018 146.996 100.412C146.996 102.231 147.805 103.848 149.219 104.859C151.24 106.273 154.474 107.082 157.101 104.656C157.303 104.859 157.708 105.263 157.91 105.465C150.23 113.145 141.337 121.027 131.434 129.111C130.424 129.919 129.413 130.728 128.807 131.536C129.413 130.526 129.818 129.515 130.424 128.1C135.072 117.591 140.529 106.678 146.39 96.5724C146.996 96.7745 147.198 96.9766 147.603 97.1787ZM130.626 89.2967C130.828 89.2967 130.828 89.2967 130.626 89.2967C130.424 92.7324 131.839 95.3598 134.264 96.3703C136.689 97.3808 139.923 97.1787 141.944 93.9451C142.348 94.1472 142.55 94.3493 142.954 94.5514C137.497 103.848 131.03 113.751 123.552 124.26C122.744 125.271 122.138 126.281 121.531 127.292C121.733 126.281 122.138 124.867 122.34 123.452C124.159 112.134 126.584 100.21 129.413 88.8925C130.02 88.8925 130.222 89.0946 130.626 89.2967ZM112.437 85.861C112.437 85.861 112.639 85.861 112.437 85.861C113.043 89.0946 115.064 91.5198 117.691 91.7219C120.319 91.924 123.35 90.9135 124.563 87.4778C124.967 87.4778 125.371 87.6799 125.775 87.6799C122.946 98.1892 119.106 109.507 114.66 121.229C114.256 122.441 113.851 123.654 113.447 124.665C113.447 123.452 113.245 122.239 113.245 120.825C112.033 109.507 111.224 97.1787 111.224 85.4568C111.628 85.861 112.033 85.861 112.437 85.861ZM124.361 227.333C122.744 224.301 120.319 222.684 117.691 223.088C115.064 223.493 112.437 225.312 112.235 228.949C111.83 228.949 111.426 228.949 111.022 228.949C111.022 218.036 111.628 206.314 112.841 193.581C113.043 192.369 113.043 191.358 113.043 190.348C113.043 190.146 113.043 190.146 113.043 189.944C113.447 190.954 113.851 192.167 114.256 193.581C118.5 204.293 122.34 215.813 125.573 227.13C125.169 227.333 124.765 227.333 124.361 227.333ZM141.742 221.067C141.742 221.067 141.539 221.067 141.742 221.067C139.518 218.44 136.689 217.43 134.264 218.642C131.434 219.855 129.818 222.684 130.626 225.716C130.222 225.918 129.818 225.918 129.413 226.12C126.584 215.611 124.159 204.091 122.138 191.56C121.936 190.146 121.733 189.135 121.329 187.923C121.936 188.933 122.542 189.944 123.552 191.156C130.424 200.453 137.093 210.558 142.954 220.663C142.348 220.865 142.146 220.865 141.742 221.067ZM157.303 210.154C157.303 210.356 157.303 210.356 157.303 210.154C154.474 208.335 151.442 208.133 149.421 209.75C147.805 210.962 146.996 212.781 146.996 214.6C146.996 215.611 147.198 216.621 147.805 217.43C147.4 217.632 147.198 217.834 146.794 218.036C141.337 208.739 135.881 198.028 130.626 186.508C130.02 185.295 129.413 184.285 129.009 183.274C129.818 184.083 130.828 184.891 131.839 185.699C140.933 192.773 150.028 200.857 158.314 209.143C157.91 209.75 157.708 209.952 157.303 210.154ZM169.227 196.007C169.227 196.007 169.227 196.209 169.227 196.007C165.994 194.996 162.962 195.4 161.548 197.624C161.143 198.23 160.133 199.847 160.133 201.463C160.133 202.474 160.537 204.091 161.75 205.506C161.548 205.708 161.143 206.112 160.941 206.314C153.261 198.634 145.379 189.742 137.295 180.041C136.487 179.03 135.678 178.02 134.87 177.413C135.881 178.02 137.093 178.424 138.306 179.03C148.815 183.678 159.729 189.135 170.036 194.794C169.632 195.4 169.43 195.603 169.227 196.007ZM177.109 179.03C177.109 179.232 177.109 179.232 177.109 179.03C173.674 178.828 171.046 180.041 170.036 182.668C169.834 183.274 169.632 184.083 169.632 185.295C169.632 186.508 170.036 188.731 172.461 190.348C172.259 190.752 172.057 190.954 171.855 191.358C162.558 185.902 152.453 179.434 142.146 172.159C141.135 171.35 139.923 170.744 139.114 170.138C140.125 170.34 141.539 170.744 142.954 170.946C154.272 172.563 166.196 174.988 177.514 178.02C177.312 178.424 177.312 178.828 177.109 179.03ZM180.343 160.841C177.109 161.447 174.684 163.266 174.482 165.893C174.482 166.096 174.482 166.298 174.482 166.702C174.482 169.127 175.695 171.754 178.726 172.765C178.726 173.169 178.524 173.573 178.524 173.978C168.015 171.148 156.697 167.51 144.773 163.064C143.56 162.66 142.348 162.256 141.337 162.054C142.55 162.054 143.763 161.851 145.177 161.851C156.495 160.639 168.823 159.83 180.545 159.83C180.545 160.033 180.343 160.437 180.343 160.841Z" fill="#D1D1D1"/>
<circle cx="109" cy="157" r="77" stroke="url(#paint1_linear)" stroke-width="2"/>
<circle cx="109" cy="157" r="101" stroke="url(#paint2_linear)" stroke-width="2"/>
<g filter="url(#filter2_i)">
<circle cx="109" cy="157" r="50" fill="#AEAEAE"/>
</g>
<mask id="mask0" mask-type="alpha" maskUnits="userSpaceOnUse" x="59" y="107" width="100" height="100">
<circle cx="109" cy="157" r="50" fill="#C3863A"/>
</mask>
<g mask="url(#mask0)">
<path d="M82.6969 105.385L82.6979 105.386L82.948 105.755C83.1118 105.996 83.3522 106.351 83.6587 106.803C84.2716 107.708 85.1489 109.003 86.2061 110.568C88.3206 113.698 91.1554 117.904 94.0364 122.21C96.917 126.516 99.8455 130.924 102.147 134.456C103.297 136.222 104.293 137.772 105.048 138.983C105.788 140.169 106.335 141.088 106.55 141.554C106.628 141.723 106.657 141.91 106.632 142.094C106.534 142.829 106.129 143.471 105.646 144.005C105.156 144.547 104.516 145.053 103.813 145.52C102.404 146.455 100.608 147.318 98.8706 148.047C97.125 148.779 95.4 149.393 94.1146 149.823C93.6747 149.97 93.2852 150.095 92.9629 150.198C93.1439 150.686 93.3873 151.329 93.6735 152.051C94.3132 153.666 95.1542 155.645 95.9843 157.186C96.4389 158.031 96.1789 158.859 95.7262 159.467C95.3 160.04 94.6303 160.543 93.9004 160.984C92.419 161.877 90.3247 162.724 88.2437 163.448C86.3521 164.107 84.4214 164.682 82.875 165.113C83.4397 165.304 84.052 165.513 84.687 165.732C87.3423 166.647 90.4545 167.766 92.1006 168.526C93.8143 169.317 94.6604 170.287 94.7213 171.384C94.7496 171.893 94.5932 172.305 94.4453 172.575C94.3705 172.712 94.2935 172.82 94.2321 172.898C94.2011 172.937 94.1733 172.97 94.1506 172.995L94.1371 173.01C94.1295 173.019 94.1172 173.034 94.1009 173.055C94.0648 173.101 94.0092 173.173 93.9405 173.272C93.8027 173.468 93.6142 173.764 93.4245 174.144C93.0436 174.905 92.6701 175.98 92.6701 177.259C92.6701 177.659 92.6801 178.157 92.6916 178.725L92.6916 178.726V178.726C92.7201 180.144 92.7574 181.997 92.669 183.832C92.5466 186.371 92.1799 189.179 91.0541 191.008C90.7744 191.463 90.3091 191.739 89.8966 191.918C89.4594 192.109 88.9312 192.254 88.3535 192.37C87.195 192.603 85.6931 192.742 83.9974 192.818C80.5971 192.969 76.2723 192.868 72.0358 192.668C67.7934 192.469 63.6152 192.169 60.4994 191.92C58.941 191.795 57.6472 191.683 56.7427 191.601C56.2904 191.561 55.9354 191.528 55.6932 191.505L55.4164 191.479L55.3682 191.475H33.6015C33.06 191.475 32.6211 191.036 32.6211 190.494V106.916C32.6211 106.382 33.048 105.947 33.5816 105.936L81.8659 104.955C82.1977 104.949 82.5104 105.11 82.6969 105.385Z" fill="white"/>
<path fill-rule="evenodd" clip-rule="evenodd" d="M114.267 149.364C113.599 150.033 113.638 151.118 114.209 151.872C115.402 153.445 116.109 155.406 116.109 157.533C116.109 159.506 115.5 161.337 114.46 162.847C113.94 163.603 113.928 164.646 114.577 165.295C115.23 165.948 116.301 165.951 116.86 165.215C118.481 163.081 119.442 160.419 119.442 157.533C119.442 154.437 118.336 151.6 116.497 149.395C115.926 148.709 114.898 148.733 114.267 149.364ZM119.872 168.245C119.292 168.957 119.286 170.004 119.936 170.653C120.588 171.306 121.652 171.308 122.247 170.603C125.223 167.072 127.017 162.512 127.017 157.533C127.017 152.356 125.078 147.631 121.886 144.046C121.284 143.371 120.245 143.386 119.606 144.026C118.944 144.687 118.965 145.759 119.576 146.468C122.136 149.438 123.684 153.305 123.684 157.533C123.684 161.596 122.255 165.325 119.872 168.245ZM125.634 174.002C125.03 174.695 125.027 175.744 125.677 176.394C126.328 177.046 127.39 177.048 128.001 176.358C132.439 171.346 135.134 164.755 135.134 157.534C135.134 150.119 132.293 143.368 127.64 138.309C127.024 137.64 125.98 137.651 125.337 138.294C124.679 138.953 124.693 140.019 125.318 140.71C129.346 145.158 131.8 151.059 131.8 157.534C131.8 163.837 129.474 169.597 125.634 174.002Z" fill="white"/>
</g>
<path d="M51.8984 81.2998L54.3984 79.4998C54.6984 79.2998 54.9984 79.0998 55.3984 78.9998C55.7984 78.8998 55.9984 78.7998 56.2984 78.7998C56.5984 78.7998 56.8984 78.8998 57.1984 78.9998C57.4984 79.0998 57.6984 79.3998 57.9984 79.6998C58.2984 80.0998 58.3984 80.4998 58.3984 80.9998C58.3984 81.3998 58.1984 81.7998 57.8984 82.1998C58.0984 82.0998 58.3984 81.9998 58.5984 81.8998C58.8984 81.8998 59.0984 81.8998 59.3984 81.8998C59.6984 81.9998 59.8984 82.0998 60.0984 82.1998C60.2984 82.3998 60.4984 82.5998 60.6984 82.7998C60.8984 83.0998 61.0984 83.4998 61.0984 83.7998C61.0984 84.0998 61.0984 84.4998 60.9984 84.7998C60.8984 85.0998 60.6984 85.4998 60.4984 85.7998C60.2984 86.0998 59.9984 86.3998 59.5984 86.6998L57.0984 88.4998L51.8984 81.2998ZM55.0984 83.5998L56.4984 82.5998C56.6984 82.4998 56.7984 82.2998 56.9984 82.1998C57.0984 81.9998 57.1984 81.8998 57.2984 81.6998C57.3984 81.4998 57.3984 81.2998 57.2984 81.0998C57.2984 80.8998 57.1984 80.6998 56.9984 80.4998C56.7984 80.1998 56.4984 79.9998 56.1984 79.8998C55.8984 79.7998 55.4984 79.8998 55.0984 80.1998L53.4984 81.2998L55.0984 83.5998ZM57.5984 86.9998L59.0984 85.9998C59.2984 85.8998 59.3984 85.7998 59.5984 85.5998C59.7984 85.3998 59.8984 85.2998 59.9984 84.9998C60.0984 84.7998 60.0984 84.5998 60.0984 84.2998C60.0984 83.9998 59.9984 83.7998 59.7984 83.4998C59.4984 83.0998 59.0984 82.7998 58.6984 82.7998C58.2984 82.7998 57.7984 82.9998 57.2984 83.2998L55.7984 84.3998L57.5984 86.9998Z" fill="white"/>
<path d="M58.2969 76.1L59.2969 75.5L61.5969 79.4C61.5969 79 61.5969 78.7 61.7969 78.3C61.9969 77.9 62.2969 77.6 62.6969 77.4C62.8969 77.3 63.1969 77.1 63.4969 77.1C63.7969 77.1 63.9969 77 64.2969 77.1C64.5969 77.2 64.7969 77.3 65.0969 77.5C65.3969 77.7 65.5969 78 65.7969 78.3L67.7969 81.6L66.7969 82.2L64.9969 79.1C64.8969 78.9 64.6969 78.7 64.4969 78.5C64.2969 78.4 64.1969 78.3 63.9969 78.2C63.7969 78.1 63.6969 78.2 63.4969 78.2C63.2969 78.2 63.1969 78.3 62.9969 78.4C62.7969 78.5 62.5969 78.7 62.4969 78.8C62.3969 79 62.2969 79.2 62.1969 79.4C62.1969 79.6 62.1969 79.9 62.1969 80.1C62.2969 80.4 62.3969 80.6 62.5969 80.9L64.1969 83.6L63.1969 84.2L58.2969 76.1Z" fill="white"/>
<path d="M66.6992 76.1999C66.8992 75.7999 67.0992 75.3999 67.3992 75.0999C67.6992 74.7999 68.0992 74.4999 68.3992 74.2999C68.7992 74.0999 69.1992 73.9999 69.4992 73.8999C69.7992 73.8999 70.0992 73.8999 70.3992 73.8999C70.6992 73.9999 70.8992 74.0999 71.0992 74.2999C71.2992 74.4999 71.4992 74.6999 71.5992 74.8999L72.9992 77.6999C73.0992 77.8999 73.1992 78.0999 73.2992 78.1999C73.3992 78.3999 73.4992 78.4999 73.5992 78.5999L72.6992 79.0999C72.4992 78.7999 72.3992 78.5999 72.2992 78.2999C72.1992 78.7999 72.0992 79.0999 71.8992 79.3999C71.6992 79.6999 71.2992 79.9999 70.8992 80.1999C70.5992 80.2999 70.3992 80.3999 70.0992 80.4999C69.7992 80.4999 69.5992 80.4999 69.2992 80.4999C68.9992 80.4999 68.7992 80.2999 68.5992 80.1999C68.3992 79.9999 68.1992 79.7999 68.0992 79.5999C67.8992 79.1999 67.8992 78.8999 67.8992 78.5999C67.8992 78.2999 68.0992 77.9999 68.2992 77.6999C68.4992 77.3999 68.7992 77.1999 69.0992 76.8999C69.3992 76.6999 69.7992 76.3999 70.1992 76.1999L70.9992 75.7999L70.8992 75.5999C70.7992 75.4999 70.6992 75.2999 70.5992 75.1999C70.4992 75.0999 70.2992 74.9999 70.1992 74.8999C69.9992 74.7999 69.8992 74.7999 69.6992 74.7999C69.4992 74.7999 69.2992 74.8999 69.0992 74.9999C68.8992 75.0999 68.6992 75.1999 68.5992 75.2999C68.4992 75.3999 68.3992 75.4999 68.2992 75.5999C68.1992 75.6999 68.0992 75.7999 68.0992 75.9999C67.9992 76.0999 67.9992 76.1999 67.8992 76.3999L66.6992 76.1999ZM70.5992 76.8999C70.3992 76.9999 70.0992 77.1999 69.8992 77.2999C69.6992 77.4999 69.4992 77.5999 69.2992 77.7999C69.0992 77.9999 68.9992 78.1999 68.8992 78.3999C68.7992 78.5999 68.8992 78.7999 68.9992 78.9999C69.1992 79.2999 69.3992 79.4999 69.5992 79.4999C69.8992 79.4999 70.1992 79.4999 70.5992 79.2999C70.8992 79.1999 71.0992 78.9999 71.1992 78.7999C71.3992 78.5999 71.3992 78.3999 71.4992 78.1999C71.5992 77.9999 71.4992 77.7999 71.4992 77.5999C71.4992 77.3999 71.3992 77.1999 71.2992 76.9999L71.0992 76.6999L70.5992 76.8999Z" fill="white"/>
<path d="M75.9 72.7999C75.7 72.6999 75.5 72.5999 75.3 72.5999C75.1 72.5999 74.8 72.5999 74.6 72.6999C74.3 72.7999 74.2 72.8999 74 73.0999C73.8 73.2999 73.8 73.4999 73.9 73.6999C74 73.8999 74.1 73.9999 74.2 73.9999C74.3 74.0999 74.5 74.0999 74.7 74.0999C74.9 74.0999 75 74.0999 75.2 73.9999C75.4 73.9999 75.5 73.8999 75.7 73.8999C76 73.8999 76.2 73.7999 76.4 73.7999C76.6 73.7999 76.8 73.7999 77 73.8999C77.2 73.9999 77.4 74.0999 77.5 74.1999C77.7 74.2999 77.8 74.4999 77.9 74.7999C78 75.0999 78.1 75.3999 78 75.6999C78 75.9999 77.9 76.1999 77.7 76.4999C77.5 76.6999 77.3 76.8999 77.1 77.0999C76.9 77.2999 76.6 77.3999 76.3 77.4999C75.8 77.6999 75.4 77.7999 75 77.7999C74.6 77.7999 74.2 77.6999 73.7 77.3999L74.2 76.3999C74.4 76.4999 74.7 76.5999 75 76.5999C75.3 76.5999 75.6 76.5999 75.9 76.4999C76 76.3999 76.2 76.3999 76.3 76.2999C76.4 76.1999 76.5 76.0999 76.6 75.9999C76.7 75.8999 76.7 75.7999 76.8 75.6999C76.8 75.5999 76.8 75.4999 76.8 75.2999C76.7 75.0999 76.6 74.9999 76.5 74.9999C76.4 74.8999 76.2 74.8999 76 74.8999C75.8 74.8999 75.7 74.8999 75.5 74.8999C75.3 74.8999 75.2 74.9999 75.1 74.9999C74.8 74.9999 74.6 75.0999 74.4 75.0999C74.2 75.0999 73.9 75.0999 73.7 74.9999C73.5 74.8999 73.3 74.7999 73.1 74.6999C72.9 74.5999 72.8 74.3999 72.7 74.0999C72.6 73.7999 72.5 73.4999 72.6 73.2999C72.6 72.9999 72.7 72.7999 72.9 72.5999C73.1 72.3999 73.2 72.1999 73.5 71.9999C73.7 71.7999 74 71.6999 74.2 71.5999C74.6 71.3999 75 71.3999 75.4 71.3999C75.8 71.3999 76.2 71.4999 76.5 71.7999L75.9 72.7999Z" fill="white"/>
<path d="M76.5977 67.0001L77.6976 66.6001L79.0977 70.9001C79.0977 70.5001 79.2977 70.2001 79.5977 69.9001C79.8977 69.6001 80.1976 69.4001 80.6976 69.2001C80.9976 69.1001 81.2977 69.1001 81.4977 69.1001C81.7977 69.1001 81.9976 69.2001 82.2976 69.3001C82.4976 69.4001 82.7977 69.6001 82.9977 69.8001C83.1976 70.0001 83.3977 70.4001 83.4977 70.7001L84.6976 74.4001L83.5977 74.8001L82.4977 71.4001C82.3977 71.1001 82.2976 70.9001 82.1976 70.8001C82.0976 70.6001 81.8976 70.5001 81.7976 70.4001C81.5976 70.3001 81.4976 70.3001 81.2976 70.3001C81.0976 70.3001 80.9976 70.3001 80.7976 70.4001C80.5976 70.5001 80.3976 70.6001 80.1976 70.7001C79.9976 70.8001 79.8976 71.0001 79.7976 71.2001C79.6976 71.4001 79.6976 71.6001 79.6976 71.9001C79.6976 72.2001 79.7976 72.5001 79.8976 72.8001L80.8976 75.8001L79.7976 76.2001L76.5977 67.0001Z" fill="white"/>
<path d="M83.8969 66.2001C83.7969 66.0001 83.8969 65.8001 83.9969 65.6001C84.0969 65.4001 84.2969 65.3001 84.4969 65.2001C84.6969 65.1001 84.8969 65.2001 85.0969 65.3001C85.2969 65.4001 85.3969 65.6001 85.4969 65.8001C85.5969 66.0001 85.4969 66.2001 85.3969 66.4001C85.2969 66.6001 85.0969 66.7001 84.8969 66.8001C84.6969 66.9001 84.4969 66.8001 84.2969 66.7001C84.0969 66.6001 83.8969 66.5001 83.8969 66.2001ZM84.6969 68.3001L85.7969 68.0001L87.3969 73.8001L86.2969 74.1001L84.6969 68.3001Z" fill="white"/>
<path d="M87.5977 67.5001L88.6976 67.3001L88.8976 68.2001C88.9976 67.9001 89.1977 67.5001 89.4977 67.3001C89.7977 67.1001 90.1977 66.8001 90.5977 66.8001C90.8977 66.7001 91.1976 66.7001 91.3976 66.8001C91.6976 66.8001 91.8976 66.9001 92.1976 67.1001C92.3976 67.2001 92.5976 67.4001 92.7976 67.7001C92.9976 68.0001 93.0976 68.3001 93.1976 68.7001L93.9977 72.5001L92.8976 72.7001L92.1976 69.2001C92.0976 68.9001 92.0976 68.7001 91.8976 68.5001C91.7976 68.3001 91.6976 68.2001 91.4977 68.1001C91.2977 68.0001 91.1977 67.9001 90.9977 67.9001C90.7977 67.9001 90.6977 67.9001 90.4977 67.9001C90.2977 67.9001 90.0976 68.0001 89.8976 68.1001C89.6976 68.2001 89.5976 68.4001 89.3976 68.6001C89.2976 68.8001 89.1976 69.0001 89.1976 69.3001C89.1976 69.6001 89.1976 69.9001 89.2976 70.2001L89.8976 73.2001L88.7976 73.4001L87.5977 67.5001Z" fill="white"/>
<path d="M94.1992 64.0001C94.1992 63.8001 94.1992 63.6001 94.3992 63.4001C94.4992 63.2001 94.6992 63.1001 94.8992 63.1001C95.0992 63.1001 95.2992 63.1001 95.4992 63.3001C95.6992 63.4001 95.7992 63.6001 95.7992 63.8001C95.7992 64.0001 95.7992 64.2001 95.5992 64.4001C95.4992 64.6001 95.2992 64.7001 95.0992 64.7001C94.8992 64.7001 94.6992 64.7001 94.4992 64.5001C94.2992 64.3001 94.1992 64.2001 94.1992 64.0001ZM94.7992 66.1001L95.8992 65.9001L96.7992 71.9001L95.6992 72.1001L94.7992 66.1001Z" fill="white"/>
<path d="M101.5 66.8C101.5 66.5 101.5 66.2 101.6 65.9C101.7 65.6 101.9 65.4 102 65.2C102.2 65 102.4 64.8 102.7 64.7C103 64.6 103.3 64.5 103.6 64.5C103.9 64.5 104.2 64.5 104.5 64.6C104.8 64.7 105 64.9 105.2 65C105.4 65.1 105.6 65.4 105.7 65.7C105.8 66 105.9 66.3 105.9 66.6C105.9 66.9 105.9 67.2 105.8 67.5C105.7 67.8 105.5 68 105.4 68.2C105.2 68.4 105 68.6 104.7 68.7C104.4 68.8 104.1 68.9 103.8 68.9C103.5 68.9 103.2 68.9 102.9 68.8C102.6 68.7 102.4 68.5 102.2 68.4C102 68.2 101.8 68 101.7 67.7C101.6 67.4 101.5 67.1 101.5 66.8Z" fill="white"/>
<path d="M111.898 62L114.998 62.2C115.398 62.2 115.798 62.3 116.098 62.4C116.398 62.5 116.698 62.7 116.898 62.9C117.098 63.1 117.298 63.3 117.398 63.6C117.498 63.9 117.598 64.2 117.498 64.6C117.498 65.1 117.298 65.5 116.998 65.8C116.698 66.1 116.298 66.3 115.798 66.5C116.098 66.5 116.298 66.6 116.598 66.8C116.798 66.9 116.998 67.1 117.198 67.3C117.398 67.5 117.498 67.8 117.598 68C117.698 68.3 117.698 68.6 117.698 68.9C117.698 69.3 117.598 69.7 117.398 70C117.198 70.3 116.998 70.5 116.698 70.7C116.398 70.9 116.098 71 115.698 71.1C115.298 71.2 114.898 71.2 114.498 71.2L111.398 71L111.898 62ZM112.698 70L114.498 70.1C114.698 70.1 114.898 70.1 115.098 70.1C115.298 70.1 115.498 70 115.698 69.9C115.898 69.8 116.098 69.7 116.198 69.5C116.298 69.3 116.398 69.1 116.498 68.7C116.498 68.2 116.398 67.8 116.098 67.5C115.798 67.2 115.298 67 114.698 67L112.898 66.9L112.698 70ZM112.898 65.8L114.598 65.9C114.798 65.9 114.998 65.9 115.298 65.9C115.498 65.9 115.698 65.8 115.798 65.7C115.998 65.6 116.098 65.5 116.198 65.3C116.298 65.1 116.398 64.9 116.398 64.7C116.398 64.3 116.298 64 116.098 63.7C115.898 63.4 115.498 63.3 114.998 63.2L113.098 63.1L112.898 65.8Z" fill="white"/>
<path d="M118.898 68.4998C118.998 68.0998 119.098 67.6998 119.298 67.2998C119.498 66.8998 119.798 66.5998 120.098 66.3998C120.398 66.1998 120.798 65.9998 121.198 65.8998C121.598 65.7998 121.998 65.7998 122.498 65.7998C122.898 65.8998 123.298 65.9998 123.698 66.1998C124.098 66.3998 124.398 66.6998 124.598 66.9998C124.798 67.2998 124.998 67.6998 125.098 68.0998C125.198 68.4998 125.198 68.8998 125.198 69.3998C125.098 69.7998 124.998 70.1998 124.798 70.5998C124.598 70.9998 124.298 71.2998 123.998 71.4998C123.698 71.6998 123.298 71.8998 122.898 71.9998C122.498 72.0998 122.098 72.0998 121.598 72.0998C121.198 71.9998 120.798 71.8998 120.398 71.6998C119.998 71.4998 119.698 71.1998 119.498 70.8998C119.298 70.5998 119.098 70.1998 118.998 69.7998C118.798 69.3998 118.798 68.9998 118.898 68.4998ZM120.098 68.6998C120.098 68.9998 120.098 69.2998 120.098 69.5998C120.198 69.8998 120.298 70.0998 120.398 70.2998C120.498 70.4998 120.698 70.6998 120.998 70.7998C121.198 70.8998 121.498 70.9998 121.798 71.0998C122.098 71.0998 122.398 71.0998 122.598 71.0998C122.798 71.0998 123.098 70.8998 123.298 70.7998C123.498 70.5998 123.698 70.3998 123.798 70.1998C123.898 69.9998 123.998 69.6998 124.098 69.3998C124.098 69.0998 124.098 68.7998 124.098 68.4998C123.998 68.1998 123.898 67.9998 123.798 67.7998C123.698 67.5998 123.498 67.3998 123.198 67.2998C122.898 67.1998 122.698 67.0998 122.398 66.9998C122.098 66.9998 121.798 66.9998 121.598 66.9998C121.298 67.0998 121.098 67.1998 120.898 67.2998C120.698 67.4998 120.498 67.6998 120.398 67.8998C120.198 68.0998 120.098 68.3998 120.098 68.6998Z" fill="white"/>
<path d="M128 63.2998L129.1 63.4998L127.1 72.8998L126 72.6998L128 63.2998Z" fill="white"/>
<path d="M129.2 70.2999C129.3 69.8999 129.5 69.4999 129.8 69.1999C130.1 68.8999 130.4 68.5999 130.7 68.3999C131.1 68.1999 131.4 68.0999 131.9 67.9999C132.3 67.8999 132.7 67.9999 133.2 68.0999C133.6 68.1999 134 68.3999 134.4 68.6999C134.7 68.9999 135 69.2999 135.2 69.5999C135.4 69.9999 135.5 70.2999 135.6 70.7999C135.7 71.1999 135.6 71.5999 135.5 72.0999C135.4 72.4999 135.2 72.8999 134.9 73.1999C134.6 73.4999 134.3 73.7999 134 73.9999C133.7 74.1999 133.3 74.2999 132.8 74.3999C132.4 74.4999 132 74.3999 131.5 74.2999C131.1 74.1999 130.7 73.9999 130.3 73.6999C130 73.3999 129.7 73.0999 129.5 72.7999C129.3 72.3999 129.2 72.0999 129.1 71.5999C129 71.1999 129.1 70.6999 129.2 70.2999ZM130.4 70.5999C130.3 70.8999 130.3 71.1999 130.3 71.4999C130.3 71.7999 130.4 71.9999 130.5 72.1999C130.6 72.3999 130.8 72.5999 131 72.7999C131.2 72.9999 131.5 73.0999 131.8 73.1999C132.1 73.2999 132.4 73.2999 132.6 73.2999C132.9 73.2999 133.1 73.1999 133.3 72.9999C133.5 72.7999 133.7 72.6999 133.9 72.4999C134.1 72.2999 134.2 71.9999 134.3 71.6999C134.4 71.3999 134.4 71.0999 134.4 70.7999C134.4 70.4999 134.3 70.2999 134.2 70.0999C134.1 69.8999 133.9 69.6999 133.7 69.4999C133.5 69.2999 133.2 69.1999 132.9 69.0999C132.6 68.9999 132.3 68.9999 132.1 68.9999C131.8 68.9999 131.6 69.0999 131.4 69.2999C131.2 69.3999 131 69.5999 130.8 69.7999C130.6 70.0999 130.5 70.2999 130.4 70.5999Z" fill="white"/>
<path d="M142.398 68.2002L143.498 68.6002L140.198 77.0002L139.098 76.6002L142.398 68.2002Z" fill="white"/>
<path d="M144.397 72.2002L145.397 72.7002L144.997 73.5002C145.297 73.3002 145.597 73.1002 145.997 73.1002C146.397 73.1002 146.797 73.1002 147.197 73.3002C147.497 73.4002 147.697 73.6002 147.897 73.8002C148.097 74.0002 148.297 74.2002 148.397 74.5002C148.497 74.8002 148.497 75.0002 148.497 75.4002C148.497 75.8002 148.397 76.1002 148.197 76.4002L146.597 79.9002L145.597 79.4002L147.097 76.2002C147.197 75.9002 147.297 75.7002 147.297 75.5002C147.297 75.3002 147.297 75.1002 147.197 74.9002C147.097 74.7002 146.997 74.6002 146.897 74.5002C146.797 74.4002 146.597 74.3002 146.497 74.2002C146.297 74.1002 146.097 74.0002 145.797 74.0002C145.597 74.0002 145.397 74.0002 145.197 74.1002C144.997 74.2002 144.797 74.3002 144.597 74.5002C144.397 74.7002 144.297 75.0002 144.097 75.3002L142.797 78.1002L141.797 77.6002L144.397 72.2002Z" fill="white"/>
<path d="M153.2 83.4998L152.2 82.8998L152.6 82.0998C152.2 82.2998 151.9 82.2998 151.4 82.2998C150.9 82.2998 150.6 82.0998 150.2 81.8998C149.8 81.6998 149.5 81.3998 149.2 81.0998C149 80.7998 148.8 80.3998 148.7 79.9998C148.6 79.5998 148.6 79.1998 148.7 78.7998C148.8 78.3998 148.9 77.9998 149.1 77.5998C149.3 77.1998 149.6 76.8998 149.9 76.5998C150.2 76.2998 150.6 76.0998 150.9 75.9998C151.3 75.8998 151.7 75.7998 152.1 75.8998C152.5 75.8998 152.9 76.0998 153.3 76.2998C153.7 76.4998 154 76.7998 154.2 77.0998C154.4 77.3998 154.6 77.7998 154.6 78.1998L156.8 74.2998L157.8 74.8998L153.2 83.4998ZM151 81.0998C151.3 81.2998 151.5 81.2998 151.8 81.3998C152.1 81.3998 152.3 81.3998 152.6 81.2998C152.9 81.1998 153.1 81.0998 153.3 80.8998C153.5 80.6998 153.7 80.4998 153.8 80.1998C154 79.8998 154 79.6998 154.1 79.3998C154.1 79.0998 154.1 78.8998 154.1 78.5998C154 78.3998 153.9 78.0998 153.8 77.8998C153.6 77.6998 153.4 77.4998 153.2 77.3998C153 77.2998 152.7 77.1998 152.4 77.0998C152.1 77.0998 151.9 77.0998 151.6 77.1998C151.4 77.2998 151.1 77.3998 150.9 77.5998C150.7 77.7998 150.5 77.9998 150.4 78.2998C150.2 78.5998 150.2 78.7998 150.1 79.0998C150.1 79.3998 150.1 79.5998 150.1 79.8998C150.2 80.0998 150.3 80.3998 150.4 80.5998C150.5 80.7998 150.7 80.9998 151 81.0998Z" fill="white"/>
<path d="M157.8 79.2999L158.8 79.8999L155.5 84.9999L154.5 84.3999L157.8 79.2999ZM158.8 77.2999C158.9 77.0999 159.1 76.9999 159.3 76.8999C159.5 76.8999 159.7 76.8999 159.9 76.9999C160.1 77.0999 160.2 77.2999 160.3 77.4999C160.4 77.6999 160.3 77.8999 160.2 78.0999C160.1 78.2999 159.9 78.3999 159.7 78.4999C159.5 78.5999 159.3 78.4999 159.1 78.3999C158.9 78.2999 158.8 78.0999 158.7 77.8999C158.6 77.6999 158.7 77.4999 158.8 77.2999Z" fill="white"/>
<path d="M159.998 81.6001C160.398 81.6001 160.898 81.6001 161.298 81.7001C161.698 81.8001 162.098 82.0001 162.498 82.3001C162.898 82.6001 163.098 82.8001 163.298 83.1001C163.498 83.4001 163.598 83.7001 163.698 83.9001C163.798 84.2001 163.698 84.4001 163.698 84.7001C163.598 85.0001 163.498 85.2001 163.398 85.4001L161.598 87.9001C161.498 88.1001 161.398 88.2001 161.298 88.4001C161.198 88.5001 161.098 88.7001 160.998 88.8001L160.198 88.2001C160.398 87.9001 160.498 87.7001 160.698 87.4001C160.298 87.6001 159.898 87.6001 159.498 87.5001C159.098 87.4001 158.698 87.3001 158.398 87.0001C158.198 86.8001 157.998 86.6001 157.798 86.4001C157.598 86.2001 157.498 86.0001 157.498 85.7001C157.498 85.4001 157.398 85.2001 157.498 85.0001C157.498 84.8001 157.698 84.5001 157.798 84.3001C157.998 84.0001 158.298 83.8001 158.598 83.7001C158.898 83.6001 159.198 83.6001 159.598 83.6001C159.998 83.6001 160.298 83.8001 160.698 83.9001C161.098 84.1001 161.398 84.3001 161.798 84.6001L162.498 85.1001L162.698 84.9001C162.798 84.8001 162.898 84.6001 162.898 84.5001C162.898 84.3001 162.998 84.2001 162.898 84.0001C162.798 83.8001 162.798 83.7001 162.698 83.5001C162.598 83.3001 162.398 83.2001 162.198 83.0001C161.998 82.9001 161.898 82.8001 161.698 82.7001C161.498 82.6001 161.398 82.6001 161.198 82.6001C161.098 82.6001 160.898 82.6001 160.798 82.6001C160.698 82.6001 160.498 82.6001 160.398 82.6001L159.998 81.6001ZM161.198 85.4001C160.998 85.2001 160.698 85.1001 160.498 84.9001C160.298 84.8001 159.998 84.7001 159.798 84.6001C159.598 84.5001 159.298 84.5001 159.098 84.6001C158.898 84.6001 158.698 84.8001 158.598 84.9001C158.398 85.2001 158.298 85.5001 158.398 85.7001C158.498 86.0001 158.698 86.2001 158.998 86.4001C159.298 86.6001 159.498 86.7001 159.698 86.7001C159.898 86.7001 160.198 86.7001 160.398 86.7001C160.598 86.6001 160.798 86.5001 160.998 86.4001C161.198 86.3001 161.298 86.1001 161.398 86.0001L161.598 85.7001L161.198 85.4001Z" fill="white"/>
<path d="M29.2 185.5L30.4 188.4C30.5 188.8 30.6 189.1 30.7 189.5C30.7 189.8 30.7 190.2 30.6 190.5C30.5 190.8 30.4 191.1 30.2 191.3C30 191.5 29.7 191.7 29.3 191.9C28.8 192.1 28.4 192.1 28 192C27.6 191.9 27.2 191.6 26.9 191.2C27 191.5 27 191.7 27 192C27 192.3 26.9 192.5 26.8 192.8C26.7 193 26.5 193.3 26.3 193.4C26.1 193.6 25.8 193.7 25.6 193.9C25.2 194.1 24.9 194.1 24.5 194.1C24.1 194.1 23.8 193.9 23.5 193.8C23.2 193.6 22.9 193.4 22.7 193C22.5 192.7 22.3 192.3 22.1 191.9L21 189L29.2 185.5ZM22.2 189.6L22.9 191.3C23 191.5 23.1 191.7 23.2 191.9C23.3 192.1 23.5 192.3 23.6 192.4C23.8 192.5 24 192.6 24.2 192.7C24.4 192.8 24.7 192.7 25 192.6C25.5 192.4 25.8 192.1 25.9 191.7C26 191.3 26 190.8 25.7 190.2L25 188.5L22.2 189.6ZM26.1 188L26.7 189.6C26.8 189.8 26.9 190 27 190.2C27.1 190.4 27.3 190.5 27.4 190.6C27.6 190.7 27.7 190.8 27.9 190.8C28.1 190.8 28.3 190.8 28.5 190.7C28.8 190.6 29.1 190.3 29.2 190C29.4 189.7 29.3 189.3 29.2 188.8L28.5 187L26.1 188Z" fill="white"/>
<path d="M32.5008 192L33.0008 193L29.0008 195C29.4008 195 29.7008 195.1 30.0008 195.3C30.3008 195.5 30.6008 195.9 30.8008 196.3C30.9008 196.6 31.0008 196.8 31.1008 197.1C31.1008 197.4 31.1008 197.7 31.0008 197.9C30.9008 198.2 30.8008 198.4 30.6008 198.7C30.4008 199 30.1008 199.1 29.8008 199.3L26.3008 201L25.8008 200L29.0008 198.4C29.3008 198.3 29.4008 198.1 29.6008 198C29.7008 197.8 29.8008 197.7 29.9008 197.5C30.0008 197.3 30.0008 197.2 29.9008 197C29.9008 196.8 29.8008 196.7 29.7008 196.5C29.6008 196.3 29.5008 196.1 29.3008 196C29.1008 195.9 29.0008 195.7 28.7008 195.7C28.4008 195.7 28.2008 195.6 28.0008 195.7C27.7008 195.7 27.4008 195.8 27.1008 196L24.3008 197.4L23.8008 196.4L32.5008 192Z" fill="white"/>
<path d="M31.8992 200.2C32.2992 200.3 32.6992 200.5 33.0992 200.8C33.3992 201.1 33.6992 201.4 33.8992 201.8C34.0992 202.2 34.2992 202.5 34.2992 202.9C34.3992 203.2 34.3992 203.5 34.2992 203.8C34.1992 204.1 34.0992 204.3 33.9992 204.5C33.8992 204.7 33.6992 204.9 33.3992 205L30.7992 206.6C30.5992 206.7 30.4992 206.8 30.2992 206.9C30.1992 207 29.9992 207.1 29.8992 207.2L29.3992 206.3C29.5992 206.1 29.8992 206 30.1992 205.8C29.6992 205.8 29.2992 205.7 28.9992 205.5C28.6992 205.3 28.3992 205 28.1992 204.6C28.0992 204.4 27.9992 204.1 27.8992 203.9C27.7992 203.6 27.7992 203.4 27.8992 203.1C27.8992 202.9 27.9992 202.6 28.1992 202.4C28.3992 202.2 28.4992 202 28.7992 201.9C29.0992 201.7 29.4992 201.6 29.7992 201.6C30.0992 201.6 30.3992 201.7 30.6992 201.9C30.9992 202.1 31.2992 202.3 31.5992 202.6C31.8992 202.9 32.0992 203.3 32.3992 203.7L32.7992 204.4L32.9992 204.3C33.0992 204.2 33.1992 204.1 33.2992 204C33.3992 203.9 33.4992 203.7 33.4992 203.6C33.4992 203.4 33.5992 203.3 33.4992 203.1C33.3992 202.9 33.3992 202.7 33.2992 202.5C33.1992 202.3 33.0992 202.2 32.8992 202C32.6992 201.8 32.6992 201.8 32.4992 201.7C32.3992 201.6 32.1992 201.5 32.0992 201.5C31.9992 201.5 31.7992 201.4 31.6992 201.4L31.8992 200.2ZM31.4992 204.2C31.3992 204 31.1992 203.7 30.9992 203.5C30.7992 203.3 30.5992 203.1 30.4992 202.9C30.2992 202.7 30.0992 202.6 29.8992 202.6C29.6992 202.6 29.4992 202.6 29.2992 202.7C28.9992 202.9 28.7992 203.1 28.7992 203.4C28.7992 203.7 28.8992 204 29.0992 204.3C29.2992 204.6 29.3992 204.8 29.6992 204.9C29.9992 205 30.0992 205.1 30.2992 205.1C30.4992 205.1 30.6992 205.1 30.8992 205.1C31.0992 205.1 31.2992 205 31.4992 204.9L31.7992 204.7L31.4992 204.2Z" fill="white"/>
<path d="M36.5016 208.9C36.6016 208.7 36.6016 208.5 36.6016 208.2C36.6016 207.9 36.5016 207.7 36.3016 207.5C36.1016 207.3 36.0016 207.1 35.8016 207C35.6016 206.9 35.4016 206.9 35.2016 207C35.1016 207.1 35.0016 207.2 34.9016 207.4C34.9016 207.6 34.9016 207.7 34.9016 207.9C34.9016 208.1 35.0016 208.2 35.1016 208.4C35.2016 208.6 35.2016 208.7 35.3016 208.8C35.4016 209 35.5016 209.3 35.5016 209.5C35.5016 209.7 35.6016 209.9 35.6016 210.1C35.6016 210.3 35.5016 210.5 35.4016 210.7C35.3016 210.9 35.1016 211.1 34.9016 211.2C34.6016 211.4 34.3016 211.5 34.1016 211.5C33.9016 211.5 33.5016 211.5 33.3016 211.4C33.0016 211.3 32.8016 211.1 32.6016 210.9C32.4016 210.7 32.2016 210.5 32.0016 210.2C31.7016 209.8 31.5016 209.4 31.4016 209C31.3016 208.6 31.3016 208.2 31.5016 207.7L32.6016 208C32.6016 208.3 32.5016 208.5 32.6016 208.8C32.6016 209.1 32.7016 209.3 32.9016 209.6C33.0016 209.7 33.1016 209.8 33.2016 209.9C33.3016 210 33.4016 210.1 33.5016 210.1C33.6016 210.1 33.7016 210.2 33.9016 210.2C34.0016 210.2 34.1016 210.2 34.2016 210.1C34.3016 210 34.4016 209.9 34.5016 209.7C34.5016 209.5 34.5016 209.4 34.5016 209.2C34.5016 209 34.4016 208.9 34.4016 208.7C34.3016 208.5 34.3016 208.4 34.2016 208.3C34.1016 208.1 34.0016 207.8 34.0016 207.6C33.9016 207.4 33.9016 207.2 33.9016 206.9C33.9016 206.6 34.0016 206.5 34.1016 206.3C34.2016 206.1 34.4016 205.9 34.6016 205.8C34.9016 205.6 35.1016 205.5 35.4016 205.5C35.7016 205.5 35.9016 205.5 36.2016 205.6C36.5016 205.7 36.7016 205.8 36.9016 206C37.1016 206.2 37.3016 206.4 37.5016 206.6C37.7016 206.9 37.9016 207.3 38.0016 207.7C38.1016 208.1 38.1016 208.5 37.9016 208.9H36.5016Z" fill="white"/>
<path d="M41.8984 207.6L42.5984 208.5L39.0984 211.4C39.3984 211.3 39.7984 211.3 40.1984 211.5C40.5984 211.7 40.8984 211.9 41.1984 212.3C41.3984 212.5 41.4984 212.8 41.5984 213C41.6984 213.3 41.6984 213.5 41.6984 213.8C41.6984 214.1 41.5984 214.3 41.3984 214.6C41.1984 214.9 40.9984 215.1 40.6984 215.4L37.6984 217.9L36.9984 217L39.7984 214.7C39.9984 214.5 40.1984 214.3 40.2984 214.2C40.3984 214 40.4984 213.8 40.4984 213.7C40.4984 213.5 40.4984 213.4 40.3984 213.2C40.2984 213 40.2984 212.9 40.0984 212.7C39.8984 212.5 39.7984 212.4 39.5984 212.3C39.3984 212.2 39.1984 212.1 38.9984 212.1C38.7984 212.1 38.4984 212.1 38.2984 212.2C37.9984 212.3 37.7984 212.5 37.4984 212.7L35.0984 214.7L34.3984 213.8L41.8984 207.6Z" fill="white"/>
<path d="M43.1008 215.8C43.5008 215.8 44.0008 215.9 44.4008 216.2C44.8008 216.5 45.1008 216.7 45.4008 217C45.7008 217.3 45.9008 217.6 46.1008 217.9C46.2008 218.2 46.3008 218.5 46.3008 218.8C46.3008 219.1 46.3008 219.3 46.1008 219.6C46.0008 219.8 45.8008 220 45.7008 220.2L43.5008 222.3C43.3008 222.4 43.2008 222.6 43.1008 222.7C43.0008 222.8 42.9008 223 42.8008 223.1L42.1008 222.4C42.3008 222.2 42.5008 222 42.7008 221.7C42.2008 221.8 41.8008 221.8 41.5008 221.6C41.1008 221.5 40.8008 221.2 40.5008 220.9C40.3008 220.7 40.2008 220.5 40.0008 220.2C39.9008 220 39.8008 219.7 39.8008 219.5C39.8008 219.3 39.8008 219 39.9008 218.8C40.0008 218.6 40.1008 218.3 40.4008 218.1C40.7008 217.8 41.0008 217.7 41.3008 217.6C41.6008 217.5 41.9008 217.6 42.3008 217.7C42.7008 217.8 43.0008 218 43.3008 218.2C43.6008 218.4 44.0008 218.7 44.3008 219.1L44.9008 219.7L45.1008 219.5C45.2008 219.4 45.3008 219.3 45.4008 219.1C45.5008 219 45.5008 218.8 45.5008 218.6C45.5008 218.4 45.5008 218.3 45.4008 218.1C45.3008 217.9 45.2008 217.7 45.0008 217.6C44.8008 217.4 44.7008 217.3 44.6008 217.2C44.5008 217.1 44.3008 217 44.2008 217C44.1008 216.9 43.9008 216.9 43.8008 216.9C43.7008 216.9 43.5008 216.9 43.4008 216.8L43.1008 215.8ZM43.6008 219.8C43.4008 219.6 43.2008 219.4 43.0008 219.2C42.8008 219 42.6008 218.9 42.3008 218.8C42.1008 218.7 41.9008 218.6 41.6008 218.6C41.4008 218.6 41.2008 218.7 41.0008 218.8C40.7008 219 40.6008 219.3 40.7008 219.6C40.7008 219.9 40.9008 220.2 41.2008 220.4C41.4008 220.6 41.6008 220.8 41.9008 220.9C42.1008 221 42.4008 221 42.6008 221C42.8008 221 43.0008 220.9 43.2008 220.8C43.4008 220.7 43.6008 220.6 43.7008 220.4L44.0008 220.1L43.6008 219.8Z" fill="white"/>
<path d="M52.2017 225.6C52.2017 225.4 52.2017 225.2 52.1017 224.9C52.0017 224.6 51.9017 224.5 51.7017 224.3C51.5017 224.1 51.3017 224 51.0017 224C50.8017 224 50.6017 224 50.4017 224.2C50.3017 224.3 50.2017 224.5 50.3017 224.6C50.3017 224.8 50.4017 224.9 50.4017 225.1C50.5017 225.3 50.6017 225.4 50.7017 225.5C50.8017 225.6 50.9017 225.8 51.0017 225.9C51.1017 226.1 51.3017 226.3 51.4017 226.5C51.5017 226.7 51.6017 226.9 51.6017 227.1C51.6017 227.3 51.6017 227.5 51.6017 227.7C51.6017 227.9 51.4017 228.1 51.2017 228.3C51.0017 228.6 50.7017 228.7 50.5017 228.8C50.2017 228.9 50.0017 228.9 49.7017 228.9C49.4017 228.9 49.2017 228.8 48.9017 228.6C48.6017 228.5 48.4017 228.3 48.2017 228.1C47.8017 227.8 47.5017 227.4 47.3017 227.1C47.1017 226.7 47.0017 226.3 47.1017 225.8H48.2017C48.2017 226.1 48.3017 226.3 48.4017 226.6C48.5017 226.9 48.6017 227.1 48.9017 227.3C49.0017 227.4 49.1017 227.5 49.3017 227.6C49.4017 227.7 49.6017 227.7 49.7017 227.7C49.8017 227.7 50.0017 227.7 50.1017 227.7C50.2017 227.7 50.3017 227.6 50.4017 227.5C50.5017 227.4 50.6017 227.2 50.6017 227.1C50.6017 226.9 50.5017 226.8 50.5017 226.7C50.4017 226.6 50.3017 226.4 50.2017 226.3C50.1017 226.2 50.0017 226 49.9017 225.9C49.8017 225.7 49.6017 225.5 49.5017 225.3C49.4017 225.1 49.3017 224.9 49.3017 224.7C49.3017 224.5 49.3017 224.3 49.3017 224.1C49.3017 223.9 49.5017 223.7 49.7017 223.4C49.9017 223.2 50.1017 223 50.4017 222.9C50.7017 222.8 50.9017 222.8 51.2017 222.8C51.5017 222.8 51.7017 222.9 52.0017 223C52.3017 223.1 52.5017 223.3 52.7017 223.5C53.0017 223.8 53.3017 224.1 53.4017 224.4C53.6017 224.8 53.6017 225.1 53.6017 225.6H52.2017Z" fill="white"/>
<path d="M54.5008 226.5C54.9008 226.5 55.4008 226.5 55.8008 226.6C56.2008 226.7 56.6008 226.9 57.0008 227.2C57.4008 227.5 57.6008 227.7 57.8008 228C58.0008 228.3 58.1008 228.6 58.2008 228.8C58.3008 229.1 58.2008 229.3 58.2008 229.6C58.2008 229.9 58.0008 230.1 57.9008 230.3L56.1008 232.8C56.0008 233 55.9008 233.1 55.8008 233.3C55.7008 233.4 55.6008 233.6 55.5008 233.7L54.7008 233.1C54.9008 232.8 55.0008 232.6 55.2008 232.3C54.8008 232.5 54.4008 232.5 54.0008 232.4C53.6008 232.3 53.2008 232.1 52.9008 231.9C52.7008 231.7 52.5008 231.5 52.3008 231.3C52.1008 231.1 52.0008 230.9 52.0008 230.6C51.9008 230.4 51.9008 230.1 52.0008 229.9C52.1008 229.7 52.2008 229.4 52.3008 229.2C52.5008 228.9 52.8008 228.7 53.1008 228.6C53.4008 228.5 53.7008 228.5 54.1008 228.5C54.4008 228.5 54.8008 228.7 55.2008 228.8C55.6008 229 55.9008 229.2 56.3008 229.5L57.0008 230L57.2008 229.8C57.3008 229.7 57.4008 229.5 57.4008 229.4C57.4008 229.2 57.5008 229.1 57.4008 228.9C57.4008 228.7 57.3008 228.6 57.2008 228.4C57.1008 228.2 57.0008 228.1 56.8008 227.9C56.6008 227.8 56.5008 227.7 56.3008 227.6C56.1008 227.5 56.0008 227.5 55.8008 227.5C55.7008 227.5 55.5008 227.5 55.4008 227.5C55.3008 227.5 55.1008 227.5 55.0008 227.5L54.5008 226.5ZM55.7008 230.3C55.5008 230.1 55.2008 230 55.0008 229.8C54.8008 229.7 54.5008 229.5 54.3008 229.5C54.1008 229.4 53.8008 229.4 53.6008 229.4C53.4008 229.4 53.2008 229.5 53.1008 229.7C52.9008 230 52.8008 230.3 52.9008 230.5C53.0008 230.8 53.2008 231 53.5008 231.2C53.8008 231.4 54.0008 231.5 54.2008 231.5C54.4008 231.5 54.7008 231.5 54.9008 231.5C55.1008 231.4 55.3008 231.3 55.5008 231.2C55.7008 231.1 55.8008 230.9 55.9008 230.8L56.1008 230.5L55.7008 230.3Z" fill="white"/>
<path d="M60.2 229.8L61.1 230.3L60.6 231.1C60.7 231 60.8 231 60.9 230.9C61.1 230.8 61.2 230.8 61.4 230.8C61.6 230.8 61.8 230.8 62.1 230.8C62.3 230.8 62.6 230.9 62.8 231.1C63.2 231.3 63.5 231.6 63.6 231.9C63.7 232.2 63.8 232.6 63.8 233C64.2 232.8 64.5 232.7 64.9 232.7C65.3 232.7 65.7 232.8 66 233C66.4 233.2 66.7 233.5 66.9 233.8C67.1 234.1 67.2 234.4 67.2 234.7C67.2 235 67.2 235.3 67.1 235.6C67 235.9 66.9 236.2 66.7 236.5L64.9 239.5L63.9 238.9L65.6 236C65.7 235.8 65.8 235.6 65.9 235.4C66 235.2 66 235 66 234.8C66 234.6 66 234.4 65.9 234.3C65.8 234.2 65.6 234 65.4 233.8C64.9 233.5 64.5 233.5 64.1 233.6C63.7 233.8 63.4 234.1 63.1 234.5L61.4 237.3L60.4 236.7L62 234C62.1 233.8 62.3 233.5 62.4 233.3C62.5 233.1 62.6 232.9 62.6 232.7C62.6 232.5 62.6 232.3 62.5 232.2C62.4 232 62.2 231.9 62 231.7C61.8 231.6 61.6 231.5 61.4 231.5C61.2 231.5 61 231.5 60.8 231.6C60.6 231.7 60.4 231.8 60.2 232C60 232.2 59.8 232.4 59.6 232.7L58 235.4L57 234.8L60.2 229.8Z" fill="white"/>
<path d="M69.2015 235.8C69.6015 235.7 70.1016 235.6 70.5016 235.7C70.9016 235.8 71.4015 235.9 71.7015 236C72.1015 236.2 72.4015 236.4 72.7015 236.6C73.0015 236.8 73.1015 237.1 73.2015 237.3C73.3015 237.6 73.4015 237.8 73.3015 238.1C73.3015 238.4 73.2016 238.6 73.1016 238.8L71.8015 241.6C71.7015 241.8 71.6016 242 71.6016 242.1C71.6016 242.2 71.5016 242.4 71.4016 242.6L70.5016 242.2C70.6016 241.9 70.7016 241.6 70.9016 241.4C70.5016 241.6 70.1015 241.8 69.7015 241.8C69.3015 241.8 68.9016 241.7 68.5016 241.5C68.2016 241.4 68.0015 241.2 67.8015 241.1C67.6015 240.9 67.4015 240.7 67.3015 240.5C67.2015 240.3 67.1016 240 67.1016 239.8C67.1016 239.5 67.2015 239.3 67.3015 239C67.5015 238.6 67.7016 238.4 68.0016 238.2C68.3016 238 68.6016 237.9 68.9016 237.9C69.2016 237.9 69.6016 237.9 70.0016 238C70.4016 238.1 70.8015 238.3 71.2015 238.5L72.0016 238.9L72.1016 238.7C72.2016 238.6 72.2015 238.4 72.2015 238.2C72.2015 238 72.2016 237.9 72.1016 237.7C72.0016 237.5 72.0015 237.4 71.8015 237.2C71.6015 237 71.5015 236.9 71.3015 236.8C71.1015 236.7 70.9015 236.6 70.7015 236.6C70.5015 236.6 70.4015 236.6 70.2015 236.6C70.0015 236.6 69.9015 236.6 69.8015 236.6C69.7015 236.6 69.5016 236.7 69.4016 236.7L69.2015 235.8ZM71.1016 239.3C70.9016 239.2 70.6015 239.1 70.3015 239C70.0015 238.9 69.8016 238.8 69.5016 238.8C69.3016 238.8 69.0015 238.8 68.8015 238.9C68.6015 239 68.4015 239.1 68.3015 239.3C68.2015 239.6 68.2015 239.9 68.3015 240.1C68.4015 240.3 68.7016 240.5 69.1016 240.7C69.4016 240.8 69.6016 240.9 69.9016 240.9C70.1016 240.9 70.4016 240.8 70.6016 240.8C70.8016 240.7 71.0016 240.6 71.1016 240.4C71.2016 240.2 71.4016 240.1 71.4016 239.9L71.6016 239.6L71.1016 239.3Z" fill="white"/>
<path d="M75.4016 237.8L76.5016 238.2L76.2015 239.1C76.3015 239 76.5016 238.9 76.6016 238.8C76.8016 238.7 76.9016 238.7 77.1016 238.6C77.3016 238.6 77.5015 238.6 77.7015 238.6C77.9015 238.6 78.1015 238.7 78.3015 238.7C78.5015 238.8 78.6015 238.9 78.7015 239L78.2015 240.1C78.1015 240 78.0016 240 78.0016 239.9C77.9016 239.9 77.8015 239.8 77.7015 239.8C77.2015 239.6 76.7015 239.6 76.3015 239.8C75.9015 240 75.6015 240.4 75.3015 241L74.2015 243.8L73.1016 243.4L75.4016 237.8Z" fill="white"/>
<path d="M82.5008 241.4L80.9008 240.9L80.0008 243.5C79.9008 243.7 79.9008 243.8 79.9008 244C79.9008 244.2 79.8008 244.3 79.8008 244.5C79.8008 244.7 79.9008 244.8 79.9008 244.9C80.0008 245 80.1008 245.1 80.3008 245.2C80.4008 245.2 80.6008 245.3 80.7008 245.3C80.8008 245.3 81.0008 245.3 81.1008 245.3L80.8008 246.3C80.6008 246.3 80.5008 246.3 80.2008 246.3C80.0008 246.3 79.8008 246.2 79.7008 246.2C79.3008 246.1 79.0008 245.9 78.8008 245.7C78.6008 245.5 78.5008 245.3 78.4008 245.1C78.4008 244.9 78.4008 244.6 78.4008 244.4C78.5008 244.2 78.5008 243.9 78.6008 243.7L79.6008 240.7L78.3008 240.3L78.6008 239.4L79.9008 239.8L80.4008 238.2L81.5008 238.6L81.0008 240.2L82.6008 240.7L82.5008 241.4Z" fill="white"/>
<path d="M85 237.4L86.1 237.7L85 242.1C85.2 241.8 85.5 241.6 85.9 241.5C86.3 241.4 86.7 241.4 87.2 241.5C87.5 241.6 87.7 241.7 88 241.8C88.2 242 88.4 242.1 88.6 242.4C88.7 242.6 88.8 242.9 88.9 243.2C88.9 243.5 88.9 243.9 88.8 244.3L87.8 248.1L86.7 247.8L87.6 244.3C87.7 244 87.7 243.8 87.7 243.6C87.7 243.4 87.6 243.2 87.5 243.1C87.4 242.9 87.3 242.8 87.1 242.7C86.9 242.6 86.8 242.5 86.6 242.5C86.4 242.4 86.1 242.4 85.9 242.4C85.7 242.4 85.5 242.5 85.3 242.6C85.1 242.7 84.9 242.9 84.8 243.1C84.7 243.3 84.5 243.6 84.4 243.9L83.6 246.9L82.5 246.6L85 237.4Z" fill="white"/>
<path d="M90.7992 243.3C91.1992 243.1 91.5992 242.9 91.9992 242.8C92.3992 242.7 92.8992 242.7 93.2992 242.8C93.6992 242.9 94.0992 243 94.3992 243.2C94.6992 243.4 94.8992 243.6 95.0992 243.8C95.2992 244 95.3992 244.3 95.3992 244.5C95.4992 244.8 95.4992 245 95.3992 245.3L94.8992 248.3C94.8992 248.5 94.7992 248.7 94.7992 248.9C94.7992 249.1 94.7992 249.2 94.6992 249.4L93.6992 249.2C93.6992 248.9 93.7992 248.6 93.7992 248.3C93.4992 248.6 93.0992 248.9 92.7992 249C92.3992 249.1 91.9992 249.1 91.5992 249C91.2992 249 91.0992 248.9 90.7992 248.7C90.5992 248.6 90.3992 248.4 90.1992 248.2C89.9992 248 89.8992 247.8 89.8992 247.6C89.7992 247.4 89.7992 247.1 89.8992 246.8C89.9992 246.4 90.0992 246.1 90.2992 245.9C90.4992 245.7 90.7992 245.5 91.0992 245.4C91.3992 245.3 91.7992 245.2 92.1992 245.2C92.5992 245.2 92.9992 245.2 93.4992 245.3L94.2992 245.4V245.1C94.2992 244.9 94.2992 244.8 94.2992 244.6C94.2992 244.4 94.1992 244.3 94.0992 244.1C93.9992 244 93.8992 243.8 93.6992 243.7C93.4992 243.6 93.2992 243.5 93.0992 243.5C92.8992 243.5 92.6992 243.4 92.4992 243.5C92.2992 243.5 92.1992 243.5 91.9992 243.6C91.8992 243.6 91.6992 243.7 91.5992 243.8C91.4992 243.9 91.3992 243.9 91.1992 244L90.7992 243.3ZM93.4992 246.3C93.1992 246.3 92.9992 246.2 92.6992 246.2C92.3992 246.2 92.0992 246.2 91.8992 246.2C91.6992 246.2 91.3992 246.3 91.2992 246.4C91.0992 246.5 90.9992 246.7 90.9992 246.9C90.8992 247.2 90.9992 247.5 91.1992 247.7C91.3992 247.9 91.6992 248 92.0992 248.1C92.3992 248.2 92.6992 248.2 92.8992 248.1C93.0992 248 93.2992 247.9 93.4992 247.8C93.6992 247.7 93.7992 247.5 93.8992 247.3C93.9992 247.1 94.0992 246.9 94.0992 246.7L94.1992 246.3H93.4992Z" fill="white"/>
<path d="M97.7008 240.1L98.8008 240.2L98.2008 246.4L101.101 244.1L102.701 244.3L99.6008 246.7L102.301 250.3L100.701 250.1L98.2008 246.7L97.9008 249.8L96.8008 249.7L97.7008 240.1Z" fill="white"/>
<path d="M107.301 246C107.301 245.7 107.301 245.4 107.501 245.1C107.601 244.8 107.801 244.6 108.001 244.4C108.201 244.2 108.401 244 108.701 243.9C109.001 243.8 109.301 243.7 109.601 243.7C109.901 243.7 110.201 243.7 110.501 243.9C110.801 244 111.001 244.2 111.201 244.4C111.401 244.6 111.601 244.8 111.701 245.1C111.801 245.4 111.901 245.7 111.901 246C111.901 246.3 111.901 246.6 111.701 246.9C111.601 247.2 111.401 247.4 111.201 247.6C111.001 247.8 110.801 248 110.501 248.1C110.201 248.2 109.901 248.3 109.601 248.3C109.301 248.3 109.001 248.3 108.701 248.1C108.401 248 108.201 247.8 108.001 247.6C107.801 247.4 107.601 247.2 107.501 246.9C107.401 246.6 107.301 246.3 107.301 246Z" fill="white"/>
<path d="M117.999 248.2C118.299 248.5 118.599 248.7 118.899 248.8C119.299 248.9 119.599 249 119.999 248.9C120.199 248.9 120.399 248.8 120.599 248.7C120.799 248.6 120.999 248.5 121.099 248.3C121.299 248.2 121.399 248 121.499 247.8C121.599 247.6 121.599 247.4 121.599 247.1C121.599 246.8 121.399 246.5 121.199 246.3C120.999 246.1 120.699 246 120.299 245.9C119.899 245.8 119.599 245.7 119.199 245.7C118.799 245.6 118.399 245.5 118.099 245.4C117.799 245.2 117.399 245 117.199 244.7C116.899 244.4 116.799 243.9 116.699 243.4C116.699 243.1 116.699 242.9 116.799 242.5C116.899 242.1 116.999 241.9 117.199 241.6C117.399 241.3 117.699 241.1 118.099 240.9C118.499 240.7 118.899 240.6 119.499 240.5C119.999 240.4 120.499 240.5 120.899 240.5C121.399 240.6 121.799 240.8 122.199 241.2L121.299 242.2C121.099 242 120.899 241.8 120.599 241.7C120.299 241.6 119.999 241.6 119.599 241.6C119.299 241.6 118.999 241.7 118.799 241.8C118.599 241.9 118.399 242.1 118.299 242.2C118.199 242.4 118.099 242.5 118.099 242.7C118.099 242.9 118.099 243 118.099 243.2C118.099 243.6 118.299 243.9 118.499 244C118.699 244.1 118.999 244.3 119.399 244.4C119.699 244.5 120.099 244.6 120.499 244.6C120.899 244.7 121.299 244.8 121.599 244.9C121.899 245 122.199 245.3 122.499 245.5C122.799 245.8 122.899 246.2 122.999 246.7C123.099 247.1 122.999 247.5 122.899 247.9C122.799 248.3 122.599 248.6 122.299 248.9C122.099 249.2 121.699 249.4 121.399 249.6C121.099 249.8 120.599 249.9 120.199 249.9C119.599 250 119.099 249.9 118.499 249.8C117.999 249.7 117.499 249.4 117.199 249L117.999 248.2Z" fill="white"/>
<path d="M123.398 241C123.398 240.8 123.398 240.6 123.498 240.4C123.598 240.2 123.798 240.1 123.998 240.1C124.198 240.1 124.398 240.1 124.598 240.2C124.798 240.3 124.898 240.5 124.998 240.7C125.098 240.9 124.998 241.1 124.898 241.3C124.798 241.5 124.598 241.6 124.398 241.6C124.198 241.6 123.998 241.6 123.798 241.5C123.498 241.4 123.398 241.3 123.398 241ZM123.998 243.1L125.098 242.9L126.198 248.9L125.098 249.1L123.998 243.1Z" fill="white"/>
<path d="M126.199 239L127.299 238.8L129.299 248.2L128.199 248.4L126.199 239Z" fill="white"/>
<path d="M129.102 242.1L130.402 241.8L133.402 245.8L133.902 240.9L135.102 240.6L134.402 247.1L133.202 247.4L129.102 242.1Z" fill="white"/>
<path d="M137.798 243.2C137.898 243.4 137.998 243.7 138.198 243.8C138.398 244 138.598 244.1 138.798 244.2C138.998 244.3 139.298 244.3 139.498 244.3C139.798 244.3 139.998 244.3 140.298 244.2C140.598 244.1 140.898 243.9 141.098 243.7C141.298 243.5 141.398 243.2 141.598 242.8L142.598 243.1C142.298 244.1 141.598 244.8 140.498 245.2C140.098 245.4 139.598 245.4 139.198 245.4C138.798 245.4 138.398 245.3 138.098 245.1C137.798 244.9 137.398 244.7 137.198 244.4C136.898 244.1 136.698 243.7 136.598 243.3C136.398 242.9 136.398 242.5 136.398 242C136.398 241.6 136.498 241.2 136.698 240.8C136.898 240.4 137.098 240.1 137.398 239.8C137.698 239.5 138.098 239.3 138.498 239.2C138.998 239 139.498 239 139.898 239C140.298 239.1 140.698 239.2 140.998 239.4C141.298 239.6 141.598 239.9 141.798 240.2C141.998 240.5 142.198 240.9 142.298 241.2L142.398 241.6L137.798 243.2ZM140.898 241.1C140.798 240.9 140.698 240.7 140.598 240.5C140.498 240.3 140.298 240.2 140.098 240.1C139.898 240 139.698 239.9 139.498 239.9C139.298 239.9 138.998 239.9 138.698 240C138.398 240.1 138.198 240.2 137.998 240.4C137.798 240.6 137.698 240.8 137.598 241C137.498 241.2 137.398 241.4 137.398 241.7C137.398 241.9 137.398 242.1 137.498 242.3L140.898 241.1Z" fill="white"/>
<path d="M142.398 237.8L143.498 237.3L143.898 238.2C143.898 238 143.898 237.8 143.998 237.7C144.098 237.5 144.198 237.4 144.298 237.2C144.398 237 144.498 236.9 144.698 236.8C144.898 236.7 144.998 236.6 145.198 236.5C145.398 236.4 145.498 236.4 145.698 236.4L146.098 237.6C145.998 237.6 145.898 237.6 145.798 237.7C145.698 237.8 145.598 237.8 145.498 237.8C144.998 238 144.698 238.3 144.498 238.7C144.398 239.1 144.398 239.6 144.698 240.2L145.898 243L144.798 243.5L142.398 237.8Z" fill="white"/>
<path d="M154.901 230.3C154.501 230.1 154.101 230.1 153.701 230.1C153.301 230.1 152.901 230.3 152.501 230.5C152.101 230.8 151.701 231.1 151.401 231.4C151.101 231.8 151.001 232.2 150.901 232.6C150.801 233 150.801 233.5 150.901 234C151.001 234.5 151.201 234.9 151.401 235.4C151.601 235.8 151.901 236.2 152.301 236.5C152.701 236.8 153.001 237 153.401 237.1C153.801 237.2 154.201 237.3 154.701 237.2C155.201 237.2 155.601 237 156.101 236.7C156.501 236.4 156.901 236.1 157.101 235.7C157.301 235.3 157.501 234.9 157.501 234.4L158.801 234.6C158.801 234.7 158.801 234.9 158.701 235.1C158.601 235.3 158.501 235.6 158.401 235.9C158.201 236.2 158.001 236.5 157.801 236.8C157.501 237.1 157.201 237.4 156.701 237.7C156.101 238.1 155.501 238.3 154.801 238.3C154.201 238.4 153.601 238.3 153.001 238.1C152.401 237.9 151.901 237.6 151.401 237.3C150.901 236.9 150.601 236.5 150.301 236C150.001 235.4 149.701 234.8 149.601 234.2C149.501 233.6 149.501 233 149.701 232.4C149.801 231.8 150.101 231.3 150.501 230.8C150.901 230.3 151.401 229.9 152.001 229.5C152.501 229.2 153.101 229 153.701 228.9C154.301 228.8 154.901 228.9 155.501 229.1L154.901 230.3Z" fill="white"/>
<path d="M158.802 232.6C158.502 232.2 158.402 231.9 158.302 231.4C158.202 230.9 158.202 230.6 158.302 230.2C158.402 229.8 158.502 229.4 158.702 229.1C158.902 228.7 159.202 228.4 159.602 228.2C160.002 227.9 160.402 227.8 160.802 227.7C161.202 227.6 161.602 227.6 162.002 227.7C162.402 227.8 162.802 227.9 163.102 228.1C163.502 228.3 163.802 228.6 164.002 229C164.302 229.4 164.402 229.7 164.502 230.2C164.602 230.6 164.602 231 164.502 231.4C164.402 231.8 164.302 232.2 164.102 232.5C163.902 232.9 163.602 233.2 163.202 233.4C162.802 233.7 162.402 233.8 162.002 233.9C161.602 234 161.202 234 160.802 233.9C160.402 233.8 160.002 233.7 159.702 233.5C159.402 233.3 159.102 232.9 158.802 232.6ZM159.802 231.8C160.002 232 160.202 232.3 160.402 232.4C160.602 232.5 160.902 232.7 161.102 232.7C161.302 232.7 161.602 232.7 161.902 232.7C162.202 232.6 162.402 232.5 162.702 232.3C162.902 232.1 163.102 231.9 163.302 231.7C163.402 231.5 163.502 231.2 163.602 231C163.602 230.8 163.602 230.5 163.502 230.2C163.402 229.9 163.302 229.7 163.102 229.4C162.902 229.2 162.702 228.9 162.502 228.8C162.302 228.7 162.002 228.5 161.802 228.5C161.602 228.4 161.302 228.5 161.002 228.5C160.702 228.6 160.502 228.7 160.202 228.9C159.902 229.1 159.802 229.3 159.602 229.5C159.502 229.7 159.402 230 159.302 230.2C159.302 230.4 159.302 230.7 159.402 231C159.502 231.3 159.702 231.6 159.802 231.8Z" fill="white"/>
<path d="M163.398 225.5L164.298 224.8L164.898 225.5C164.798 225.2 164.798 224.8 164.998 224.4C165.098 224 165.398 223.7 165.798 223.4C165.998 223.2 166.298 223.1 166.498 223C166.798 222.9 166.998 222.9 167.298 222.9C167.598 222.9 167.798 223 168.098 223.1C168.398 223.2 168.598 223.5 168.898 223.8L171.398 226.8L170.498 227.5L168.198 224.8C167.998 224.6 167.798 224.4 167.598 224.3C167.398 224.2 167.198 224.1 167.098 224.1C166.898 224.1 166.798 224.1 166.598 224.2C166.398 224.3 166.298 224.4 166.198 224.5C165.998 224.7 165.898 224.8 165.798 225C165.698 225.2 165.598 225.4 165.598 225.6C165.598 225.8 165.598 226.1 165.698 226.3C165.798 226.5 165.998 226.8 166.198 227.1L168.198 229.5L167.298 230.2L163.398 225.5Z" fill="white"/>
<path d="M171.701 219.4L170.501 220.5L172.401 222.5C172.501 222.6 172.601 222.7 172.801 222.9C172.901 223 173.001 223.1 173.201 223.2C173.301 223.3 173.501 223.3 173.601 223.3C173.701 223.3 173.901 223.2 174.001 223C174.101 222.9 174.201 222.8 174.301 222.7C174.401 222.6 174.401 222.5 174.501 222.3L175.201 223.1C175.201 223.2 175.101 223.4 174.901 223.6C174.701 223.8 174.701 223.9 174.601 224C174.301 224.3 174.001 224.5 173.701 224.6C173.401 224.7 173.201 224.7 173.001 224.6C172.801 224.5 172.601 224.4 172.401 224.3C172.201 224.1 172.001 224 171.901 223.8L169.701 221.5L168.701 222.4L168.001 221.7L169.001 220.8L167.801 219.6L168.601 218.8L169.801 220L171.001 218.9L171.701 219.4Z" fill="white"/>
<path d="M172 217.7L172.8 216.9L173.5 217.5C173.4 217.3 173.4 217.2 173.4 217C173.4 216.8 173.4 216.6 173.4 216.5C173.4 216.3 173.5 216.1 173.6 216C173.7 215.8 173.8 215.7 173.9 215.5C174 215.4 174.2 215.3 174.3 215.2L175.2 216.1C175.1 216.2 175 216.2 175 216.3C174.9 216.4 174.9 216.4 174.8 216.5C174.4 216.9 174.2 217.3 174.3 217.8C174.3 218.2 174.6 218.7 175.1 219.1L177.3 221.2L176.5 222L172 217.7Z" fill="white"/>
<path d="M173.3 213C173.1 212.9 173 212.7 173 212.4C173 212.2 173 212 173.2 211.8C173.4 211.6 173.5 211.5 173.8 211.5C174 211.5 174.2 211.5 174.4 211.7C174.6 211.8 174.7 212 174.7 212.3C174.7 212.5 174.7 212.7 174.5 212.9C174.4 213.1 174.2 213.2 173.9 213.2C173.7 213.2 173.5 213.1 173.3 213ZM175.2 214.2L175.9 213.3L180.5 217.2L179.8 218.1L175.2 214.2Z" fill="white"/>
<path d="M174.199 209.9L174.899 209L178.499 211.7C178.399 211.3 178.399 211 178.399 210.5C178.499 210.1 178.699 209.7 178.899 209.4C179.199 209 179.499 208.7 179.899 208.5C180.299 208.3 180.599 208.2 180.999 208.1C181.399 208.1 181.799 208.1 182.199 208.2C182.599 208.3 182.999 208.5 183.299 208.8C183.599 209.1 183.899 209.4 184.199 209.7C184.399 210 184.599 210.4 184.599 210.8C184.699 211.2 184.699 211.6 184.599 212C184.499 212.4 184.299 212.8 183.999 213.2C183.799 213.5 183.399 213.8 183.099 214C182.699 214.2 182.299 214.3 181.899 214.3L182.599 214.8L181.899 215.7L174.199 209.9ZM182.999 212.6C183.199 212.4 183.299 212.1 183.399 211.8C183.499 211.5 183.499 211.3 183.399 211C183.399 210.8 183.299 210.5 183.099 210.3C182.899 210.1 182.799 209.9 182.499 209.7C182.299 209.5 181.999 209.4 181.699 209.3C181.399 209.2 181.199 209.2 180.899 209.2C180.699 209.2 180.399 209.3 180.199 209.4C179.999 209.5 179.799 209.7 179.599 210C179.399 210.3 179.299 210.5 179.199 210.8C179.099 211.1 179.099 211.3 179.199 211.6C179.299 211.9 179.299 212.1 179.499 212.3C179.699 212.5 179.799 212.7 180.099 212.9C180.299 213.1 180.599 213.2 180.899 213.3C181.199 213.4 181.399 213.4 181.699 213.4C181.899 213.4 182.199 213.3 182.399 213.2C182.599 213.1 182.799 212.9 182.999 212.6Z" fill="white"/>
<path d="M189.602 204.6L189.002 205.6L188.202 205.1C188.402 205.4 188.502 205.7 188.502 206.2C188.502 206.6 188.302 207 188.102 207.4C187.902 207.7 187.802 207.9 187.502 208C187.202 208.1 187.002 208.3 186.802 208.4C186.502 208.5 186.202 208.5 185.902 208.4C185.602 208.3 185.302 208.2 184.902 208L181.602 205.9L182.202 204.9L185.202 206.8C185.402 207 185.702 207 185.902 207.1C186.102 207.1 186.302 207.1 186.502 207.1C186.702 207.1 186.802 207 187.002 206.9C187.102 206.8 187.302 206.7 187.302 206.5C187.402 206.3 187.502 206.1 187.602 205.9C187.602 205.7 187.602 205.5 187.602 205.3C187.502 205.1 187.402 204.9 187.302 204.7C187.102 204.5 186.902 204.3 186.602 204.1L184.002 202.4L184.602 201.4L189.602 204.6Z" fill="white"/>
<path d="M187.699 197.6L186.899 199L189.299 200.3C189.399 200.4 189.599 200.5 189.699 200.5C189.799 200.6 189.999 200.6 190.099 200.6C190.199 200.6 190.399 200.6 190.499 200.5C190.599 200.4 190.699 200.3 190.799 200.1C190.899 200 190.899 199.9 190.999 199.7C190.999 199.6 191.099 199.4 191.099 199.3L191.999 199.8C191.999 200 191.999 200.1 191.899 200.3C191.799 200.5 191.799 200.7 191.699 200.8C191.499 201.2 191.299 201.5 190.999 201.6C190.799 201.8 190.599 201.8 190.299 201.8C190.099 201.8 189.799 201.8 189.599 201.7C189.399 201.6 189.199 201.5 188.899 201.4L186.099 199.9L185.499 201.1L184.599 200.6L185.199 199.4L183.699 198.6L184.199 197.6L185.699 198.4L186.499 197L187.699 197.6Z" fill="white"/>
<path d="M190.101 197.4C189.701 197.2 189.401 197 189.101 196.7C188.801 196.4 188.601 196 188.501 195.7C188.401 195.3 188.301 194.9 188.301 194.5C188.301 194.1 188.401 193.7 188.601 193.2C188.801 192.7 189.001 192.4 189.401 192.2C189.701 191.9 190.101 191.7 190.401 191.6C190.801 191.5 191.201 191.4 191.601 191.4C192.001 191.4 192.401 191.5 192.801 191.7C193.201 191.9 193.501 192.1 193.801 192.4C194.101 192.7 194.301 193.1 194.401 193.4C194.501 193.7 194.601 194.2 194.601 194.6C194.601 195 194.501 195.4 194.301 195.9C194.101 196.3 193.901 196.7 193.501 196.9C193.201 197.2 192.801 197.4 192.501 197.5C192.101 197.6 191.701 197.7 191.301 197.7C190.901 197.7 190.501 197.6 190.101 197.4ZM190.601 196.3C190.901 196.4 191.201 196.5 191.401 196.5C191.701 196.5 191.901 196.5 192.201 196.4C192.401 196.3 192.701 196.2 192.901 196C193.101 195.8 193.301 195.6 193.401 195.3C193.501 195 193.601 194.7 193.601 194.5C193.601 194.3 193.601 194 193.501 193.8C193.401 193.6 193.301 193.4 193.101 193.2C192.901 193 192.701 192.8 192.401 192.7C192.101 192.6 191.801 192.5 191.601 192.5C191.301 192.5 191.101 192.5 190.801 192.6C190.601 192.7 190.301 192.8 190.101 193C189.901 193.2 189.701 193.4 189.601 193.7C189.501 194 189.401 194.3 189.401 194.5C189.401 194.8 189.401 195 189.501 195.2C189.601 195.4 189.701 195.6 189.901 195.8C190.101 196 190.301 196.2 190.601 196.3Z" fill="white"/>
<path d="M190.5 189L190.9 187.9L191.8 188.2C191.7 188.1 191.6 187.9 191.5 187.8C191.4 187.6 191.4 187.5 191.3 187.3C191.2 187.1 191.3 186.9 191.3 186.7C191.3 186.5 191.4 186.3 191.4 186.1C191.5 185.9 191.5 185.8 191.7 185.6L192.8 186.1C192.7 186.2 192.7 186.3 192.6 186.3C192.6 186.4 192.5 186.5 192.5 186.6C192.3 187.1 192.3 187.6 192.5 188C192.7 188.4 193.1 188.7 193.7 188.9L196.5 190L196.1 191.1L190.5 189Z" fill="white"/>
<defs>
<filter id="filter0_ii" x="0" y="48" width="218" height="218" filterUnits="userSpaceOnUse" color-interpolation-filters="sRGB">
<feFlood flood-opacity="0" result="BackgroundImageFix"/>
<feBlend mode="normal" in="SourceGraphic" in2="BackgroundImageFix" result="shape"/>
<feColorMatrix in="SourceAlpha" type="matrix" values="0 0 0 0 0 0 0 0 0 0 0 0 0 0 0 0 0 0 127 0" result="hardAlpha"/>
<feOffset/>
<feGaussianBlur stdDeviation="4"/>
<feComposite in2="hardAlpha" operator="arithmetic" k2="-1" k3="1"/>
<feColorMatrix type="matrix" values="0 0 0 0 0.9875 0 0 0 0 0.722843 0 0 0 0 0.386771 0 0 0 1 0"/>
<feBlend mode="normal" in2="shape" result="effect1_innerShadow"/>
<feColorMatrix in="SourceAlpha" type="matrix" values="0 0 0 0 0 0 0 0 0 0 0 0 0 0 0 0 0 0 127 0" result="hardAlpha"/>
<feOffset/>
<feGaussianBlur stdDeviation="6"/>
<feComposite in2="hardAlpha" operator="arithmetic" k2="-1" k3="1"/>
<feColorMatrix type="matrix" values="0 0 0 0 0 0 0 0 0 0 0 0 0 0 0 0 0 0 0.2 0"/>
<feBlend mode="normal" in2="effect1_innerShadow" result="effect2_innerShadow"/>
</filter>
<filter id="filter1_i" x="7" y="55" width="204" height="208" filterUnits="userSpaceOnUse" color-interpolation-filters="sRGB">
<feFlood flood-opacity="0" result="BackgroundImageFix"/>
<feBlend mode="normal" in="SourceGraphic" in2="BackgroundImageFix" result="shape"/>
<feColorMatrix in="SourceAlpha" type="matrix" values="0 0 0 0 0 0 0 0 0 0 0 0 0 0 0 0 0 0 127 0" result="hardAlpha"/>
<feOffset dy="4"/>
<feGaussianBlur stdDeviation="10"/>
<feComposite in2="hardAlpha" operator="arithmetic" k2="-1" k3="1"/>
<feColorMatrix type="matrix" values="0 0 0 0 0 0 0 0 0 0 0 0 0 0 0 0 0 0 1 0"/>
<feBlend mode="normal" in2="shape" result="effect1_innerShadow"/>
</filter>
<filter id="filter2_i" x="59" y="107" width="100" height="100" filterUnits="userSpaceOnUse" color-interpolation-filters="sRGB">
<feFlood flood-opacity="0" result="BackgroundImageFix"/>
<feBlend mode="normal" in="SourceGraphic" in2="BackgroundImageFix" result="shape"/>
<feColorMatrix in="SourceAlpha" type="matrix" values="0 0 0 0 0 0 0 0 0 0 0 0 0 0 0 0 0 0 127 0" result="hardAlpha"/>
<feOffset/>
<feGaussianBlur stdDeviation="6"/>
<feComposite in2="hardAlpha" operator="arithmetic" k2="-1" k3="1"/>
<feColorMatrix type="matrix" values="0 0 0 0 0.34902 0 0 0 0 0.360784 0 0 0 0 0.364706 0 0 0 1 0"/>
<feBlend mode="normal" in2="shape" result="effect1_innerShadow"/>
</filter>
<linearGradient id="paint0_linear" x1="51.775" y1="55.4938" x2="322.848" y2="326.729" gradientUnits="userSpaceOnUse">
<stop stop-color="white"/>
<stop offset="1" stop-color="#969696" stop-opacity="0"/>
</linearGradient>
<linearGradient id="paint1_linear" x1="174.52" y1="211.6" x2="38.8" y2="105.52" gradientUnits="userSpaceOnUse">
<stop stop-color="white"/>
<stop offset="1" stop-color="#383838" stop-opacity="0"/>
</linearGradient>
<linearGradient id="paint2_linear" x1="194.68" y1="228.4" x2="17.2" y2="89.68" gradientUnits="userSpaceOnUse">
<stop stop-color="white"/>
<stop offset="1" stop-color="#383838" stop-opacity="0"/>
</linearGradient>
</defs>
</svg>
