<svg width="159" height="188" viewBox="0 0 159 188" fill="none" xmlns="http://www.w3.org/2000/svg">
<g filter="url(#filter0_d)">
<path d="M65.5794 26.6855C64.8712 26.6855 64.3047 27.2315 64.3047 27.914V39.3797C64.3047 40.0622 64.8712 40.6081 65.5794 40.6081H94.757C95.4652 40.6081 96.0318 40.0622 96.0318 39.3797V27.914C96.0318 27.2315 95.4652 26.6855 94.757 26.6855H65.5794ZM93.4823 35.6943C93.4823 36.3768 92.9157 36.9228 92.2075 36.9228H68.2706C67.5624 36.9228 66.9958 36.3768 66.9958 35.6943V30.5074C66.9958 29.825 67.5624 29.279 68.2706 29.279H92.2075C92.9157 29.279 93.4823 29.825 93.4823 30.5074V35.6943Z" fill="#BABABA"/>
<path d="M100.329 8L84.1719 31.7527H92.1791L110.195 8H100.329Z" fill="#0FA711"/>
<path d="M92.1862 8L76.1719 31.7527H84.179L100.336 8H92.1862Z" fill="white"/>
<path d="M84.1784 8L68.1641 31.7527H76.1712L92.1856 8H84.1784Z" fill="#FF7600"/>
<path d="M68.1607 31.7527H76.1678L60.0105 8H50.1445L68.1607 31.7527Z" fill="#FF7600"/>
<path d="M76.1651 31.7527H84.1723L68.158 8H60.0078L76.1651 31.7527Z" fill="white"/>
<path opacity="0.5" d="M81.4567 11.9385L77.4531 17.8415L86.8902 31.7558H92.1806L93.6105 29.7882L81.4567 11.9385Z" fill="#3E4347"/>
<path d="M84.1784 31.7527H92.1856L76.1712 8H68.1641L84.1784 31.7527Z" fill="#0FA711"/>
<g filter="url(#filter1_ii)">
<path d="M146.878 104.729C146.878 141.818 116.811 171.885 79.7223 171.885C42.6331 171.885 12.5664 141.818 12.5664 104.729C12.5664 67.64 42.6331 37.5732 79.7223 37.5732C116.811 37.5732 146.878 67.64 146.878 104.729Z" fill="#D5D5D5" fill-opacity="0.8"/>
</g>
<path d="M143.378 104.729C143.378 139.885 114.878 168.385 79.7223 168.385C44.5661 168.385 16.0664 139.885 16.0664 104.729C16.0664 69.573 44.5661 41.0732 79.7223 41.0732C114.878 41.0732 143.378 69.573 143.378 104.729Z" stroke="#DFDFDF" stroke-width="7"/>
<path d="M143.378 104.729C143.378 139.885 114.878 168.385 79.7223 168.385C44.5661 168.385 16.0664 139.885 16.0664 104.729C16.0664 69.573 44.5661 41.0732 79.7223 41.0732C114.878 41.0732 143.378 69.573 143.378 104.729Z" stroke="url(#paint0_linear)" stroke-width="7"/>
<path d="M133.32 104.731C133.32 134.335 109.322 158.333 79.7187 158.333C50.1154 158.333 26.1172 134.335 26.1172 104.731C26.1172 75.1281 50.1154 51.1299 79.7187 51.1299C109.322 51.1299 133.32 75.1281 133.32 104.731Z" fill="#A0A0A0"/>
<path fill-rule="evenodd" clip-rule="evenodd" d="M79.722 60.371C55.2228 60.371 35.3622 80.2316 35.3622 104.731C35.3622 129.23 55.2228 149.091 79.722 149.091C104.221 149.091 124.082 129.23 124.082 104.731C124.082 80.2316 104.221 60.371 79.722 60.371ZM16.8789 104.731C16.8789 70.0235 45.0147 41.8877 79.722 41.8877C114.429 41.8877 142.565 70.0235 142.565 104.731C142.565 139.438 114.429 167.574 79.722 167.574C45.0147 167.574 16.8789 139.438 16.8789 104.731Z" fill="#BABABA"/>
<path d="M79.7223 57.2891C53.5737 57.2891 32.2812 78.457 32.2812 104.73C32.2812 131.003 53.4492 152.171 79.7223 152.171C105.995 152.171 127.163 131.003 127.163 104.73C127.163 78.457 105.871 57.2891 79.7223 57.2891ZM70.259 61.8962C70.3835 61.8962 70.3835 61.8962 70.259 61.8962C71.1306 63.764 72.7493 64.8846 74.368 64.5111C75.9867 64.262 77.6055 63.1414 77.73 60.9001C77.979 60.9001 78.2281 60.9001 78.4771 60.9001C78.4771 67.624 77.979 74.846 77.2319 82.6905C77.1074 83.4376 77.1074 84.1847 77.1074 84.9319C76.8584 84.3093 76.6093 83.5622 76.3603 82.6905C73.7454 76.0911 71.3796 68.9937 69.5119 62.0207C69.8854 62.0207 70.0099 61.8962 70.259 61.8962ZM59.426 65.7562C60.7957 67.3749 62.5389 67.9975 64.0331 67.2504C65.7763 66.5033 66.7725 64.7601 66.3989 62.8923C66.648 62.7678 66.897 62.7678 67.146 62.6433C68.7648 69.1182 70.3835 76.2157 71.6286 84.0602C71.7532 84.9319 71.8777 85.5544 72.1267 86.3015C71.7532 85.679 71.3796 85.0564 70.757 84.3093C66.5234 78.5815 62.4144 72.3556 58.8034 66.1298C58.9279 66.0053 59.1769 65.8807 59.426 65.7562ZM49.8382 72.4801C51.5814 73.6008 53.4492 73.7253 54.6943 72.7292C55.6905 71.9821 56.1885 70.8614 56.1885 69.7408C56.1885 69.1182 56.064 68.4956 55.6905 67.9975C55.9395 67.873 56.064 67.7485 56.313 67.624C59.675 73.3518 62.9124 79.9512 66.2744 87.0486C66.648 87.7957 67.0215 88.4183 67.2705 89.0409C66.7725 88.5429 66.1499 88.0448 65.5273 87.5467C60.0486 82.9396 54.4453 77.9589 49.3401 72.9782C49.4646 72.7292 49.7136 72.6047 49.8382 72.4801ZM42.3671 81.3209C42.4916 81.3209 42.4916 81.3209 42.3671 81.3209C44.3594 81.9434 46.2272 81.6944 47.0988 80.3247C47.3478 79.9512 47.9704 78.955 47.9704 77.9589C47.9704 77.3363 47.7214 76.3402 46.9743 75.4686C47.0988 75.344 47.3478 75.095 47.4723 74.9705C52.204 79.7021 57.0601 85.1809 62.1653 91.1577C62.6634 91.7803 63.1615 92.2784 63.6596 92.7764C63.037 92.4029 62.2899 92.1538 61.5428 91.7803C55.0679 88.7919 48.344 85.4299 41.9936 81.9434C42.1181 81.6944 42.2426 81.5699 42.3671 81.3209ZM37.511 91.7803C37.511 91.7803 37.511 91.6558 37.511 91.7803C39.6278 91.9048 41.2465 91.1577 41.8691 89.539C41.9936 89.1654 42.1181 88.6674 42.1181 87.9203C42.1181 87.1732 41.8691 85.8035 40.3749 84.8073C40.4994 84.5583 40.6239 84.4338 40.7484 84.1847C46.4762 87.5467 52.702 91.5313 59.0524 96.0139C59.675 96.5119 60.4221 96.8855 60.9202 97.259C60.2976 97.1345 59.426 97.01 58.5543 96.761C51.5814 95.7648 44.2349 94.2706 37.1374 92.4029C37.3864 92.2784 37.511 92.0293 37.511 91.7803ZM35.5187 103.111C35.5187 103.111 35.5187 102.987 35.5187 103.111C37.511 102.738 39.0052 101.493 39.1297 99.8739C39.1297 99.7494 39.1297 99.6249 39.1297 99.3758C39.1297 97.8816 38.3826 96.2629 36.5148 95.6403C36.5148 95.3913 36.6393 95.1423 36.6393 94.8932C43.1142 96.6365 50.0872 99.0023 57.4337 101.617C58.1808 101.866 58.9279 102.115 59.5505 102.24C58.8034 102.24 58.0563 102.364 57.1847 102.364C50.2117 103.236 42.6162 103.609 35.3942 103.734C35.5187 103.609 35.5187 103.36 35.5187 103.111ZM36.5148 114.691C36.5148 114.567 36.5148 114.567 36.5148 114.691C38.1335 113.82 39.1297 112.575 39.1297 111.08C39.1297 110.956 39.1297 110.707 39.1297 110.582C38.8807 108.964 37.76 107.345 35.5187 107.22C35.5187 106.971 35.5187 106.722 35.5187 106.473C42.2426 106.473 49.4646 106.847 57.3092 107.469C58.1808 107.594 58.9279 107.594 59.5505 107.594C58.9279 107.843 58.1808 108.092 57.3092 108.341C50.7098 110.956 43.6123 113.322 36.6393 115.314C36.6393 115.189 36.6393 114.94 36.5148 114.691ZM40.4994 125.524C40.4994 125.524 40.4994 125.4 40.4994 125.524C41.62 124.528 42.2426 123.408 42.2426 122.162C42.2426 121.664 42.1181 121.291 41.9936 120.917C41.371 119.423 39.8768 118.178 37.6355 118.676C37.511 118.427 37.511 118.178 37.3864 117.929C43.8613 116.186 50.9588 114.691 58.6789 113.322C59.5505 113.197 60.1731 112.948 60.9202 112.824C60.2976 113.197 59.675 113.571 58.9279 114.193C53.2001 118.427 46.9743 122.536 40.7484 126.272C40.7484 125.898 40.6239 125.773 40.4994 125.524ZM47.2233 134.988C47.8459 133.992 48.0949 133.12 48.0949 132.124C48.0949 131.377 47.8459 130.63 47.3478 130.132C46.3517 128.886 44.4839 128.015 42.4917 129.011C42.3671 128.762 42.2426 128.637 42.1181 128.388C47.8459 125.026 54.4453 121.664 61.5428 118.302C62.2899 117.929 62.9124 117.555 63.535 117.306C63.037 117.804 62.5389 118.427 62.0408 119.05C57.6827 124.653 52.702 130.256 47.7214 135.486C47.5968 135.361 47.3478 135.237 47.2233 134.988ZM56.064 142.334C56.1885 141.587 56.313 140.965 56.313 140.342C56.313 139.097 55.815 138.101 54.9434 137.603C53.6982 136.731 51.7059 136.233 50.0872 137.852C49.8382 137.727 49.7136 137.478 49.5891 137.354C54.3208 132.622 59.675 127.641 65.6518 122.661C66.2744 122.162 66.7725 121.664 67.2705 121.166C66.897 121.789 66.648 122.536 66.2744 123.283C63.535 129.758 60.2976 136.482 56.6866 142.708C56.5621 142.583 56.313 142.459 56.064 142.334ZM66.5234 147.19C66.648 145.074 65.7763 143.455 64.2821 142.832C62.7879 142.334 60.7957 142.459 59.5505 144.326C59.3015 144.202 59.1769 144.077 58.9279 143.953C62.2899 138.225 66.1499 131.999 70.6325 125.524C71.1306 124.777 71.5041 124.155 71.8777 123.657C71.7532 124.279 71.6286 125.151 71.3796 126.022C70.3835 132.995 68.8893 140.342 67.146 147.439C67.0215 147.315 66.7725 147.315 66.5234 147.19ZM77.8545 149.058C77.4809 147.066 76.2358 145.572 74.6171 145.447C72.9983 145.323 71.1306 145.945 70.508 148.062C70.259 148.062 70.0099 147.937 69.7609 147.937C71.5041 141.463 73.7454 134.49 76.3603 127.143C76.6093 126.396 76.8584 125.649 76.9829 125.026C76.9829 125.773 77.1074 126.521 77.1074 127.392C77.979 134.365 78.4771 141.961 78.6016 149.183C78.3526 149.183 78.1035 149.183 77.8545 149.058ZM122.805 95.7648C121.186 96.6365 120.066 97.8816 120.066 99.3758C120.066 99.5004 120.066 99.7494 120.066 99.8739C120.315 101.493 121.435 103.111 123.677 103.236C123.677 103.485 123.677 103.734 123.677 103.983C117.077 103.983 109.731 103.485 101.886 102.738C101.015 102.613 100.268 102.613 99.645 102.613C100.268 102.364 101.015 102.115 101.886 101.866C108.486 99.2513 115.583 96.8855 122.556 95.0177C122.681 95.2668 122.681 95.5158 122.805 95.7648ZM118.945 84.9319C118.945 84.9319 118.945 85.0564 118.945 84.9319C117.824 85.928 117.202 87.0486 117.202 88.2938C117.202 88.7919 117.326 89.1654 117.451 89.539C118.074 91.0332 119.568 92.2784 121.809 91.9048C121.934 92.1538 121.934 92.4029 122.058 92.6519C115.583 94.2706 108.361 95.7648 100.641 97.1345C99.7695 97.259 99.1469 97.3836 98.3998 97.6326C99.0224 97.259 99.645 96.8855 100.392 96.3874C106.12 92.0293 112.346 87.9203 118.572 84.3093C118.696 84.5583 118.821 84.6828 118.945 84.9319ZM112.47 75.5931C111.848 76.5892 111.474 77.5853 111.474 78.457C111.474 79.2041 111.723 79.9512 112.221 80.4492C113.217 81.6944 114.961 82.566 116.953 81.5699C117.077 81.8189 117.202 81.9434 117.326 82.1925C111.474 85.4299 104.999 88.7919 97.7772 91.9048C97.0301 92.2784 96.4075 92.5274 95.785 92.9009C96.283 92.4029 96.7811 91.7803 97.4037 91.1577C101.886 85.679 106.867 80.0757 111.972 74.9705C112.097 75.2195 112.346 75.344 112.47 75.5931ZM103.505 67.873C103.505 67.873 103.63 67.9975 103.505 67.873C103.381 68.6201 103.131 69.2427 103.131 69.8653C103.131 70.9859 103.63 71.9821 104.501 72.6047C105.746 73.4763 107.739 73.9743 109.357 72.4801C109.482 72.6047 109.731 72.8537 109.855 72.9782C105.124 77.7099 99.645 82.566 93.5437 87.5467C92.9211 88.0448 92.2985 88.5429 91.9249 89.0409C92.2985 88.4183 92.5475 87.7957 92.9211 86.9241C95.785 80.4492 99.1469 73.7253 102.758 67.4995C103.131 67.624 103.256 67.7485 103.505 67.873ZM93.0456 63.0168C93.1701 63.0168 93.1701 63.0168 93.0456 63.0168C92.9211 65.1336 93.7927 66.7524 95.2869 67.3749C96.7811 67.9975 98.7734 67.873 100.019 65.8807C100.268 66.0053 100.392 66.1298 100.641 66.2543C97.2792 71.9821 93.2946 78.0834 88.6875 84.5583C88.1894 85.1809 87.8159 85.8035 87.4423 86.4261C87.5668 85.8035 87.8159 84.9319 87.9404 84.0602C89.061 77.0873 90.5552 69.7408 92.2985 62.7678C92.672 62.7678 92.7965 62.8923 93.0456 63.0168ZM81.839 60.9001C81.839 60.9001 81.9636 60.9001 81.839 60.9001C82.2126 62.8923 83.4578 64.3865 85.0765 64.5111C86.6952 64.6356 88.563 64.013 89.3101 61.8962C89.5591 61.8962 89.8081 62.0207 90.0572 62.0207C88.3139 68.4956 85.9481 75.4686 83.2087 82.6905C82.9597 83.4376 82.7107 84.1847 82.4616 84.8073C82.4616 84.0602 82.3371 83.3131 82.3371 82.4415C81.59 75.4686 81.0919 67.873 81.0919 60.651C81.341 60.9001 81.59 60.9001 81.839 60.9001ZM89.1856 148.062C88.1894 146.194 86.6952 145.198 85.0765 145.447C83.4578 145.696 81.839 146.817 81.7145 149.058C81.4655 149.058 81.2165 149.058 80.9674 149.058C80.9674 142.334 81.341 135.112 82.0881 127.268C82.2126 126.521 82.2126 125.898 82.2126 125.275C82.2126 125.151 82.2126 125.151 82.2126 125.026C82.4616 125.649 82.7107 126.396 82.9597 127.268C85.5746 133.867 87.9404 140.965 89.9327 147.937C89.6836 148.062 89.4346 148.062 89.1856 148.062ZM99.894 144.202C99.894 144.202 99.7695 144.202 99.894 144.202C98.5243 142.583 96.7811 141.961 95.2869 142.708C93.5437 143.455 92.5475 145.198 93.0456 147.066C92.7965 147.19 92.5475 147.19 92.2985 147.315C90.5552 140.84 89.061 133.743 87.8159 126.022C87.6913 125.151 87.5668 124.528 87.3178 123.781C87.6913 124.404 88.0649 125.026 88.6875 125.773C92.9211 131.501 97.0301 137.727 100.641 143.953C100.268 144.077 100.143 144.077 99.894 144.202ZM109.482 137.478C109.482 137.603 109.482 137.603 109.482 137.478C107.739 136.357 105.871 136.233 104.626 137.229C103.63 137.976 103.131 139.097 103.131 140.217C103.131 140.84 103.256 141.463 103.63 141.961C103.38 142.085 103.256 142.21 103.007 142.334C99.645 136.606 96.283 130.007 93.0456 122.91C92.672 122.162 92.2985 121.54 92.0494 120.917C92.5475 121.415 93.1701 121.913 93.7927 122.411C99.396 126.77 104.999 131.75 110.104 136.855C109.855 137.229 109.731 137.354 109.482 137.478ZM116.828 128.762C116.828 128.762 116.828 128.886 116.828 128.762C114.836 128.139 112.968 128.388 112.097 129.758C111.848 130.132 111.225 131.128 111.225 132.124C111.225 132.746 111.474 133.743 112.221 134.614C112.097 134.739 111.848 134.988 111.723 135.112C106.991 130.381 102.135 124.902 97.1546 118.925C96.6566 118.302 96.1585 117.68 95.6604 117.306C96.283 117.68 97.0301 117.929 97.7772 118.302C104.252 121.166 110.976 124.528 117.326 128.015C117.077 128.388 116.953 128.513 116.828 128.762ZM121.685 118.302C121.685 118.427 121.685 118.427 121.685 118.302C119.568 118.178 117.949 118.925 117.326 120.544C117.202 120.917 117.077 121.415 117.077 122.162C117.077 122.91 117.326 124.279 118.821 125.275C118.696 125.524 118.572 125.649 118.447 125.898C112.719 122.536 106.493 118.551 100.143 114.069C99.5205 113.571 98.7734 113.197 98.2753 112.824C98.8979 112.948 99.7695 113.197 100.641 113.322C107.614 114.318 114.961 115.812 121.934 117.68C121.809 117.929 121.809 118.178 121.685 118.302ZM123.677 107.096C121.685 107.469 120.19 108.59 120.066 110.209C120.066 110.333 120.066 110.458 120.066 110.707C120.066 112.201 120.813 113.82 122.681 114.442C122.681 114.691 122.556 114.94 122.556 115.189C116.081 113.446 109.108 111.205 101.762 108.466C101.015 108.217 100.268 107.968 99.645 107.843C100.392 107.843 101.139 107.718 102.011 107.718C108.984 106.971 116.579 106.473 123.801 106.473C123.801 106.598 123.677 106.847 123.677 107.096Z" fill="#D1D1D1"/>
<circle cx="79.7206" cy="104.731" r="47.0565" stroke="url(#paint1_linear)" stroke-width="2"/>
<circle cx="79.722" cy="104.731" r="61.8431" stroke="url(#paint2_linear)" stroke-width="2"/>
<g filter="url(#filter2_i)">
<circle cx="79.7195" cy="104.729" r="30.8055" fill="#AEAEAE"/>
</g>
<mask id="mask0" mask-type="alpha" maskUnits="userSpaceOnUse" x="48" y="73" width="63" height="63">
<circle cx="79.7195" cy="104.729" r="30.8055" fill="#C3863A"/>
</mask>
<g mask="url(#mask0)">
<path d="M63.5123 72.9287L63.5129 72.9297L63.667 73.1567L64.1049 73.8026C64.4825 74.3599 65.023 75.1582 65.6744 76.1223C66.9771 78.0505 68.7237 80.642 70.4987 83.2951C72.2735 85.9478 74.0777 88.6636 75.4955 90.8398C76.2041 91.9276 76.8177 92.8829 77.2832 93.6289C77.7392 94.3598 78.0762 94.9259 78.2087 95.213C78.2567 95.317 78.2741 95.4325 78.259 95.546C78.1986 95.9988 77.9493 96.394 77.6516 96.723C77.3494 97.0567 76.9556 97.3686 76.522 97.6564C75.6543 98.2324 74.5474 98.764 73.4771 99.2131C72.4016 99.6645 71.3388 100.043 70.5468 100.307C70.2758 100.398 70.0359 100.475 69.8373 100.538C69.9488 100.839 70.0988 101.235 70.2751 101.68C70.6692 102.675 71.1874 103.894 71.6988 104.844C71.9789 105.364 71.8187 105.875 71.5398 106.249C71.2772 106.602 70.8646 106.912 70.4149 107.184C69.5022 107.734 68.2119 108.256 66.9297 108.702C65.7643 109.108 64.5748 109.462 63.622 109.728C63.9699 109.846 64.3472 109.974 64.7384 110.109C66.3744 110.673 68.2919 111.362 69.306 111.831C70.3618 112.318 70.8831 112.916 70.9207 113.591C70.9381 113.905 70.8417 114.159 70.7506 114.325C70.7045 114.41 70.6571 114.476 70.6193 114.524C70.6002 114.549 70.583 114.569 70.5691 114.584L70.5607 114.593C70.556 114.599 70.5485 114.608 70.5384 114.621C70.5162 114.649 70.4819 114.694 70.4396 114.754C70.3547 114.876 70.2385 115.058 70.1217 115.292C69.887 115.761 69.6569 116.423 69.6569 117.211C69.6569 117.458 69.6631 117.765 69.6701 118.115V118.115V118.115C69.6877 118.989 69.7107 120.13 69.6562 121.261C69.5808 122.825 69.3549 124.555 68.6613 125.682C68.4889 125.962 68.2023 126.132 67.9481 126.243C67.6788 126.36 67.3533 126.45 66.9974 126.521C66.2836 126.665 65.3583 126.751 64.3136 126.797C62.2186 126.89 59.5541 126.828 56.9439 126.705C54.3301 126.582 51.7559 126.397 49.8362 126.244C48.8761 126.167 48.079 126.098 47.5217 126.048C47.243 126.023 47.0243 126.002 46.8751 125.989L46.7046 125.972L46.6749 125.97H33.2642C32.9306 125.97 32.6602 125.699 32.6602 125.366V73.8721C32.6602 73.5433 32.9232 73.2749 33.2519 73.2682L63.0003 72.6642C63.2048 72.66 63.3974 72.7596 63.5123 72.9287Z" fill="white"/>
<path fill-rule="evenodd" clip-rule="evenodd" d="M82.9605 100.024C82.5486 100.436 82.573 101.105 82.9248 101.569C83.6594 102.539 84.0953 103.747 84.0953 105.057C84.0953 106.273 83.72 107.4 83.0791 108.331C82.7587 108.797 82.7517 109.44 83.1512 109.839C83.5539 110.242 84.2136 110.244 84.558 109.79C85.5564 108.475 86.149 106.835 86.149 105.057C86.149 103.15 85.4673 101.402 84.3343 100.043C83.9822 99.6207 83.3493 99.6355 82.9605 100.024ZM86.4138 111.657C86.0561 112.095 86.0528 112.741 86.4529 113.141C86.8549 113.543 87.5106 113.544 87.877 113.11C89.7107 110.934 90.8156 108.125 90.8156 105.057C90.8156 101.867 89.6208 98.9564 87.6543 96.7477C87.2838 96.3316 86.6436 96.3412 86.2496 96.7352C85.842 97.1427 85.855 97.8033 86.2313 98.2398C87.8084 100.07 88.7619 102.452 88.7619 105.057C88.7619 107.56 87.8817 109.858 86.4138 111.657ZM89.9636 115.204C89.5915 115.631 89.5895 116.277 89.9898 116.678C90.3915 117.079 91.0455 117.081 91.4221 116.655C94.1565 113.567 95.8165 109.506 95.8165 105.057C95.8165 100.489 94.0662 96.3297 91.1996 93.2131C90.8203 92.8007 90.1771 92.8077 89.7809 93.2039C89.3753 93.6095 89.3839 94.2668 89.7689 94.6919C92.2509 97.4328 93.7628 101.069 93.7628 105.057C93.7628 108.941 92.3298 112.49 89.9636 115.204Z" fill="white"/>
</g>
<path d="M26.7305 83.5969L27.1001 82.7343L32.3371 81.8718L28.2707 80.0234L28.5788 79.3457L33.5077 81.5637L33.138 82.4262L27.8395 83.3504L31.9058 85.1987L31.5977 85.8765L26.7305 83.5969Z" fill="#FFFDFD"/>
<path d="M31.2884 79.1607C31.2268 78.9142 31.2268 78.6678 31.2884 78.3597C31.35 78.1133 31.4116 77.8668 31.5348 77.6204C31.6581 77.3739 31.7813 77.1891 31.9661 77.0659C32.0893 76.9426 32.2742 76.8194 32.459 76.8194C32.6438 76.7578 32.7671 76.7578 32.9519 76.7578C33.1367 76.7578 33.2599 76.8194 33.3832 76.881L34.9851 77.8052C35.1083 77.8668 35.1699 77.9284 35.2931 77.99C35.4163 78.0516 35.4779 78.1133 35.5395 78.1133L35.2315 78.6678C35.0467 78.6062 34.9234 78.4829 34.7386 78.4213C34.8618 78.6678 34.9234 78.9142 34.9234 79.1607C34.9234 79.4071 34.8002 79.6535 34.677 79.8384C34.6154 79.9616 34.4922 80.0848 34.3689 80.208C34.2457 80.3313 34.1225 80.3929 33.9993 80.4545C33.8761 80.5161 33.6912 80.5161 33.568 80.5161C33.4448 80.5161 33.2599 80.4545 33.1367 80.3929C32.9519 80.2696 32.7671 80.1464 32.7054 79.9616C32.6438 79.7768 32.5822 79.5919 32.5822 79.4071C32.5822 79.2223 32.6438 78.9758 32.7054 78.7294C32.7671 78.4829 32.8903 78.2365 33.0135 78.0517L33.2599 77.6204L33.1367 77.5588C33.0751 77.4972 32.9519 77.4972 32.8903 77.4972C32.7671 77.4972 32.7054 77.4972 32.5822 77.4972C32.459 77.4972 32.3974 77.5588 32.2742 77.6204C32.2126 77.682 32.0893 77.8052 32.0277 77.9284C31.9661 78.0517 31.9045 78.1749 31.9045 78.2365C31.9045 78.2981 31.8429 78.4213 31.8429 78.5445C31.8429 78.6062 31.8429 78.7294 31.8429 78.791C31.8429 78.8526 31.8429 78.9758 31.9045 79.0374L31.2884 79.1607ZM33.5064 78.1749C33.4448 78.2981 33.3216 78.4829 33.2599 78.6061C33.1983 78.7294 33.1367 78.9142 33.1367 79.0374C33.1367 79.1606 33.1367 79.3455 33.1367 79.4687C33.1367 79.5919 33.2599 79.7152 33.3832 79.7768C33.568 79.9 33.7528 79.9 33.8761 79.8384C33.9993 79.7767 34.1841 79.5919 34.2457 79.4071C34.3689 79.2223 34.3689 79.099 34.4306 78.9142C34.4306 78.791 34.4306 78.6062 34.3689 78.4829C34.3073 78.3597 34.2457 78.2365 34.1841 78.1749C34.1225 78.0517 33.9993 77.99 33.8761 77.9284L33.6912 77.8052L33.5064 78.1749Z" fill="#FFFDFD"/>
<path d="M34.4936 74.1703L33.9391 74.9712L35.2945 75.8954C35.3561 75.957 35.4793 76.0186 35.5409 76.0802C35.6026 76.1418 35.7258 76.1418 35.7874 76.2034C35.849 76.2034 35.9722 76.2034 36.0338 76.2034C36.0954 76.1418 36.1571 76.0802 36.2803 76.0186C36.3419 75.957 36.3419 75.8954 36.4035 75.7722C36.4651 75.7105 36.4651 75.5873 36.4651 75.5257L36.958 75.8954C36.958 76.0186 36.8964 76.0802 36.8348 76.2034C36.7732 76.3267 36.7116 76.3882 36.7116 76.4499C36.5883 76.6963 36.4035 76.8195 36.2803 76.8811C36.1571 76.9428 35.9722 77.0044 35.849 77.0044C35.7258 77.0044 35.6026 76.9428 35.4793 76.8811C35.3561 76.8195 35.2329 76.7579 35.1097 76.6347L33.5078 75.5873L33.0765 76.265L32.5836 75.957L33.0149 75.2793L32.1523 74.7248L32.522 74.1703L33.3846 74.7248L33.9391 73.9238L34.4936 74.1703Z" fill="#FFFDFD"/>
<path d="M33.3841 72.4446C33.2608 72.383 33.1992 72.2597 33.1992 72.1365C33.1992 72.0133 33.1992 71.8901 33.2608 71.7669C33.3224 71.6436 33.4457 71.582 33.5689 71.582C33.6921 71.582 33.8153 71.582 33.9385 71.6436C34.0618 71.7052 34.1234 71.8285 34.1234 71.9517C34.1234 72.0749 34.1234 72.1981 34.0618 72.3214C34.0002 72.4446 33.8769 72.5062 33.7537 72.5062C33.6305 72.5678 33.5073 72.5062 33.3841 72.4446ZM34.5547 73.0607L34.9243 72.5062L37.8816 74.6009L37.512 75.1555L34.5547 73.0607Z" fill="#FFFDFD"/>
<path d="M36.8926 72.8759C36.7077 72.6911 36.5229 72.5063 36.3997 72.3214C36.2765 72.075 36.2148 71.8901 36.2148 71.6437C36.2148 71.3972 36.2148 71.1508 36.2765 70.9043C36.3381 70.6579 36.4613 70.4115 36.6461 70.2266C36.831 70.0418 37.0158 69.857 37.2622 69.7338C37.5087 69.6105 37.6935 69.5489 37.9399 69.4873C38.1864 69.4873 38.4328 69.4873 38.6793 69.5489C38.9257 69.6105 39.1722 69.7338 39.357 69.9186C39.5418 70.1034 39.7267 70.2883 39.8499 70.4731C39.9731 70.6579 40.0347 70.9044 40.0347 71.1508C40.0347 71.3973 40.0347 71.6437 39.9731 71.8901C39.9115 72.1366 39.7883 72.383 39.6034 72.5679C39.4186 72.7527 39.2338 72.9375 38.9873 73.0607C38.7409 73.184 38.5561 73.2456 38.3096 73.3072C38.0632 73.3688 37.8167 73.3072 37.5703 73.2456C37.3238 73.1224 37.0774 72.9991 36.8926 72.8759ZM37.3855 72.2598C37.5087 72.383 37.6935 72.4446 37.8167 72.5063C38.0016 72.5679 38.1248 72.5679 38.248 72.5679C38.3712 72.5679 38.5561 72.5062 38.6793 72.4446C38.8025 72.383 38.9257 72.2598 39.0489 72.1366C39.1722 72.0133 39.2338 71.8285 39.2954 71.7053C39.357 71.5821 39.357 71.3973 39.357 71.274C39.357 71.1508 39.2954 70.966 39.1722 70.8428C39.0489 70.7195 38.9873 70.5963 38.8025 70.4731C38.6793 70.3499 38.4944 70.2883 38.3712 70.2266C38.248 70.165 38.0632 70.165 37.9399 70.165C37.8167 70.165 37.6319 70.2266 37.5087 70.2882C37.3855 70.3498 37.2622 70.4731 37.139 70.5963C37.0158 70.7195 36.9542 70.9044 36.8926 71.0276C36.831 71.1508 36.831 71.3356 36.831 71.4589C36.831 71.5821 36.8926 71.7669 37.0158 71.8901C37.139 72.0134 37.2006 72.1366 37.3855 72.2598Z" fill="#FFFDFD"/>
<path d="M38.5 68.0096L38.9929 67.5167L39.4242 67.8863C39.3626 67.7015 39.3626 67.455 39.3626 67.2086C39.3626 66.9622 39.5474 66.7773 39.7322 66.5309C39.8554 66.4077 39.9787 66.2844 40.1635 66.2228C40.3483 66.1612 40.4715 66.0996 40.6564 66.0996C40.8412 66.0996 40.9644 66.0996 41.1493 66.1612C41.3341 66.2229 41.5189 66.3461 41.7038 66.5309L43.3673 68.1328L42.8744 68.6257L41.3341 67.147C41.2109 67.0238 41.0877 66.9622 40.9644 66.9005C40.8412 66.8389 40.718 66.8389 40.6564 66.8389C40.5948 66.8389 40.4715 66.9005 40.3483 66.9005C40.2251 66.9005 40.1635 67.0238 40.1019 67.0854C39.9787 67.2086 39.9171 67.2702 39.8554 67.3935C39.7938 67.5167 39.7938 67.6399 39.7938 67.7631C39.7938 67.8863 39.8554 68.0096 39.9171 68.1944C39.9787 68.3176 40.1019 68.5025 40.2867 68.6257L41.6422 69.9195L41.1493 70.4124L38.5 68.0096Z" fill="#FFFDFD"/>
<path d="M41.8242 65.236C41.8242 64.9896 41.9474 64.7431 42.0707 64.4967C42.1939 64.2502 42.3787 64.0654 42.5636 63.8806C42.7484 63.6957 42.9332 63.5725 43.118 63.5109C43.3029 63.4493 43.4877 63.3877 43.6725 63.3877C43.8574 63.3877 43.9806 63.4493 44.1038 63.5109C44.227 63.5725 44.3503 63.6957 44.4735 63.7573L45.7057 65.1128C45.7673 65.236 45.8905 65.2976 45.9522 65.3592C46.0138 65.4208 46.0754 65.4825 46.1986 65.5441L45.7673 65.9753C45.6441 65.8521 45.5209 65.7289 45.3977 65.6057C45.4593 65.8521 45.3977 66.0986 45.336 66.345C45.2744 66.5298 45.0896 66.7763 44.9048 66.9611C44.7815 67.0843 44.6583 67.1459 44.4735 67.2075C44.3503 67.2692 44.1654 67.3308 44.0422 67.3308C43.919 67.3308 43.7342 67.3308 43.6109 67.2692C43.4877 67.2076 43.3645 67.146 43.2413 66.9611C43.0564 66.7763 42.9948 66.5914 42.9332 66.4066C42.8716 66.2218 42.9332 66.037 42.9948 65.8521C43.0564 65.6673 43.1797 65.4825 43.3029 65.2976C43.4261 65.1128 43.6109 64.9279 43.8574 64.7431L44.227 64.3735L44.1038 64.2502C44.0422 64.1886 43.9806 64.127 43.8574 64.0654C43.7342 64.0038 43.6725 64.0038 43.5493 64.0038C43.4261 64.0038 43.3645 64.0038 43.2413 64.0654C43.118 64.127 42.9948 64.1886 42.9332 64.2502C42.81 64.3118 42.7484 64.4351 42.6868 64.4967C42.6252 64.5583 42.5636 64.6815 42.5636 64.7431C42.5019 64.8047 42.5019 64.928 42.5019 64.9896C42.5019 65.0512 42.5019 65.1744 42.4403 65.236H41.8242ZM44.227 64.9896C44.1038 65.1128 43.9806 65.236 43.8574 65.3592C43.7342 65.4824 43.6725 65.6057 43.6109 65.7289C43.5493 65.8521 43.4877 65.9753 43.4877 66.0986C43.4877 66.2218 43.5493 66.345 43.6109 66.4682C43.7342 66.5915 43.919 66.7147 44.0422 66.6531C44.1654 66.5915 44.3503 66.5298 44.5351 66.345C44.6583 66.2218 44.7815 66.0985 44.8432 65.9753C44.9048 65.8521 44.9048 65.7289 44.9048 65.6057C44.9048 65.4825 44.8432 65.3592 44.7815 65.236C44.7199 65.1128 44.6583 64.9896 44.5967 64.928L44.4735 64.7431L44.227 64.9896Z" fill="#FFFDFD"/>
<path d="M43.1797 60.5543L43.7342 60.123L47.3692 64.559L46.8147 64.9903L43.1797 60.5543Z" fill="#FFFDFD"/>
<path d="M46.8164 58.2116L47.4325 57.7803L50.0818 61.6618L52.1149 60.2447L52.4846 60.7992L49.8353 62.5859L46.8164 58.2116Z" fill="#FFFDFD"/>
<path d="M51.2539 57.9056C51.3155 57.6592 51.4387 57.4128 51.6236 57.2279C51.8084 57.0431 51.9932 56.8582 52.2397 56.735C52.4861 56.6118 52.671 56.4886 52.8558 56.4886C53.0406 56.427 53.2255 56.427 53.4103 56.4886C53.5951 56.5502 53.7183 56.6118 53.8416 56.6734C53.9648 56.7966 54.088 56.8582 54.1496 57.0431L55.0738 58.645C55.1354 58.7682 55.197 58.8298 55.2586 58.953C55.3202 59.0146 55.3818 59.1378 55.4434 59.1994L54.8889 59.5075C54.7657 59.3843 54.7041 59.1995 54.5809 59.0146C54.5809 59.3227 54.5193 59.5075 54.3345 59.6924C54.1496 59.8772 54.0264 60.062 53.78 60.1852C53.6567 60.2469 53.4719 60.3085 53.3487 60.3701C53.2255 60.4317 53.0406 60.4317 52.9174 60.3701C52.7942 60.3701 52.6093 60.3085 52.4861 60.1852C52.3629 60.1236 52.2397 60.0004 52.1781 59.8156C52.0548 59.6307 51.9932 59.4459 51.9932 59.1994C51.9932 59.0146 52.0548 58.8298 52.1781 58.645C52.3013 58.4601 52.4245 58.2753 52.6093 58.1521C52.7942 58.0289 52.979 57.844 53.2255 57.7208L53.6567 57.4744L53.5951 57.3511C53.5335 57.2895 53.4719 57.2279 53.4103 57.1663C53.3487 57.1047 53.2255 57.0431 53.1638 57.0431C53.0406 57.0431 52.979 56.9815 52.8558 57.0431C52.7326 57.0431 52.6093 57.1047 52.4861 57.1663C52.3629 57.2279 52.3013 57.2895 52.1781 57.3511C52.1165 57.4127 52.0548 57.4744 51.9932 57.5976C51.9316 57.7208 51.9316 57.7208 51.87 57.844C51.8084 57.9056 51.8084 57.9672 51.8084 58.0905L51.2539 57.9056ZM53.6567 58.2137C53.5335 58.2753 53.3487 58.3985 53.2255 58.4601C53.1022 58.5834 52.979 58.645 52.8558 58.7682C52.7326 58.8914 52.671 59.0146 52.671 59.1379C52.6093 59.2611 52.671 59.3843 52.7326 59.5075C52.8558 59.6923 52.979 59.7539 53.1638 59.8156C53.3487 59.8156 53.5335 59.754 53.7183 59.6307C53.9032 59.5075 54.0264 59.4459 54.088 59.3227C54.1496 59.1995 54.2112 59.0762 54.2112 58.953C54.2112 58.8298 54.2112 58.7066 54.2112 58.5833C54.2112 58.4601 54.1496 58.3369 54.088 58.2137L53.9648 58.0289L53.6567 58.2137Z" fill="#FFFDFD"/>
<path d="M54.5195 55.563L55.1356 55.255L55.3821 55.7478C55.3821 55.563 55.4437 55.3166 55.5669 55.1317C55.6901 54.9469 55.875 54.7621 56.183 54.6389C56.3679 54.5772 56.4911 54.5156 56.6759 54.5156C56.8607 54.5156 56.984 54.5156 57.1688 54.5772C57.3536 54.6388 57.4769 54.7005 57.6001 54.8237C57.7233 54.9469 57.8465 55.1317 57.9697 55.3166L58.9555 57.4113L58.3394 57.7194L57.4152 55.8094C57.3536 55.6862 57.2304 55.563 57.1688 55.4398C57.0456 55.3782 56.984 55.3166 56.8607 55.255C56.7375 55.1934 56.6759 55.1934 56.5527 55.255C56.4295 55.3166 56.3679 55.3166 56.2446 55.3166C56.1214 55.3782 55.9982 55.4398 55.9366 55.563C55.875 55.6862 55.8134 55.7479 55.7517 55.8711C55.6901 55.9943 55.6901 56.1175 55.7517 56.3024C55.7517 56.4872 55.8134 56.6104 55.9366 56.7952L56.7375 58.4587L56.1214 58.7668L54.5195 55.563Z" fill="#FFFDFD"/>
<path d="M63.0802 55.7479C63.2034 55.9943 63.2034 56.2408 63.2034 56.4872C63.2034 56.7337 63.1418 56.9801 63.0186 57.1649C62.8953 57.3498 62.7721 57.5962 62.5873 57.7811C62.4024 57.9659 62.156 58.0891 61.9096 58.2123C61.6015 58.3356 61.2934 58.3972 60.9854 58.3972C60.6773 58.3972 60.3693 58.3356 60.0612 58.2123L60.3077 57.5346C60.5541 57.6579 60.8006 57.7195 60.9854 57.7195C61.2318 57.7195 61.4783 57.7195 61.7247 57.5962C61.9712 57.5346 62.156 57.4114 62.2792 57.2882C62.4024 57.165 62.5257 57.0417 62.5257 56.8569C62.5873 56.7337 62.5873 56.5488 62.5873 56.4256C62.5873 56.3024 62.5257 56.1176 62.4641 55.9944L62.2792 55.5014C62.2176 55.7479 62.156 55.9943 61.9712 56.1176C61.7863 56.3024 61.6015 56.4256 61.3551 56.5488C61.1086 56.6721 60.8622 56.6721 60.6157 56.6721C60.3693 56.6721 60.1228 56.6104 59.938 56.5488C59.7532 56.4872 59.5067 56.3024 59.3835 56.1176C59.1987 55.9327 59.0755 55.7479 59.0138 55.5014C58.8906 55.255 58.8906 55.0086 58.8906 54.7621C58.8906 54.5157 58.9522 54.2692 59.0138 54.0844C59.0755 53.8996 59.2603 53.6531 59.3835 53.4683C59.5067 53.2835 59.7532 53.1602 60.0612 53.037C60.3077 52.9754 60.5541 52.9138 60.8006 52.9138C61.047 52.9138 61.2934 52.9754 61.4783 53.1602L61.1702 52.6674L61.7863 52.4209L63.0802 55.7479ZM60.2461 53.5915C60.0612 53.6531 59.938 53.7764 59.8148 53.838C59.6916 53.8996 59.63 54.0844 59.5683 54.2076C59.5067 54.3309 59.5067 54.5157 59.5067 54.6389C59.5067 54.8237 59.5683 54.947 59.63 55.1318C59.7532 55.5015 59.938 55.6863 60.2461 55.8095C60.5541 55.9327 60.8622 55.9327 61.1702 55.8095C61.5399 55.6863 61.7247 55.4398 61.8479 55.1934C61.9712 54.8853 61.9712 54.5773 61.8479 54.2692C61.7863 54.0844 61.7247 53.9612 61.6015 53.838C61.4783 53.7148 61.3551 53.5915 61.2318 53.5299C61.1086 53.4683 60.9238 53.4067 60.8006 53.4067C60.6157 53.4683 60.4309 53.5299 60.2461 53.5915Z" fill="#FFFDFD"/>
<path d="M66.963 54.5783L66.2853 54.7632L66.1004 54.2087C66.1004 54.3935 65.9772 54.6399 65.7924 54.7632C65.6075 54.8864 65.4227 55.0712 65.1147 55.1328C64.9298 55.1944 64.8066 55.1944 64.6218 55.1944C64.4369 55.1944 64.3137 55.1328 64.1289 55.0712C64.0057 55.0096 63.8208 54.8864 63.7592 54.7632C63.636 54.6399 63.5744 54.4551 63.4512 54.2087L62.7734 51.9907L63.4512 51.8058L64.0673 53.839C64.1289 54.0238 64.1905 54.147 64.2521 54.2087C64.3137 54.3319 64.4369 54.3935 64.4985 54.4551C64.6218 54.5167 64.6834 54.5167 64.8066 54.5167C64.9298 54.5167 64.9914 54.5167 65.1147 54.4551C65.2379 54.3935 65.3611 54.3319 65.4843 54.2703C65.6075 54.2086 65.6692 54.0854 65.7308 53.9622C65.7924 53.839 65.7924 53.7158 65.854 53.531C65.854 53.3461 65.854 53.1613 65.7924 52.9764L65.2379 51.1897L65.9156 51.0049L66.963 54.5783Z" fill="#FFFDFD"/>
<path d="M67.0859 51.3119C67.2092 51.127 67.4556 50.9422 67.6404 50.7574C67.8869 50.6342 68.1333 50.5109 68.3798 50.4493C68.6262 50.3877 68.8727 50.3877 69.0575 50.3877C69.2423 50.3877 69.4272 50.4493 69.5504 50.5725C69.6736 50.6341 69.7968 50.7574 69.92 50.8806C69.9816 51.0038 70.0433 51.127 70.1049 51.3119L70.4745 53.0986C70.4745 53.2218 70.5361 53.345 70.5361 53.4682C70.5361 53.5915 70.5978 53.6531 70.5978 53.7763L69.9817 53.8995C69.92 53.7147 69.8584 53.5298 69.8584 53.345C69.7352 53.5915 69.612 53.7763 69.4272 53.9611C69.2423 54.146 68.9959 54.2076 68.7494 54.2692C68.5646 54.3308 68.4414 54.3308 68.2565 54.3308C68.0717 54.3308 67.9485 54.2692 67.8253 54.2076C67.702 54.146 67.5788 54.0227 67.5172 53.9611C67.394 53.8379 67.3324 53.7147 67.3324 53.5299C67.2708 53.2834 67.2708 53.0986 67.3324 52.9138C67.394 52.7289 67.5172 52.6057 67.6404 52.4208C67.8253 52.2976 68.0101 52.1744 68.1949 52.0512C68.4414 51.928 68.6878 51.8663 68.9343 51.8047L69.4272 51.6815L69.3655 51.5583C69.3655 51.4967 69.3039 51.3735 69.2423 51.3119C69.1807 51.2502 69.1191 51.1886 69.0575 51.127C68.9959 51.0654 68.8727 51.0038 68.7494 51.0038C68.6262 51.0038 68.503 51.0038 68.3798 51.0038C68.2565 51.0038 68.1333 51.0654 68.0717 51.127C68.0101 51.1886 67.8869 51.2503 67.8253 51.2503C67.7637 51.3119 67.702 51.3735 67.6404 51.4351C67.5788 51.4967 67.5172 51.5583 67.4556 51.6199L67.0859 51.3119ZM69.3039 52.2977C69.1191 52.3593 68.9959 52.3592 68.811 52.4208C68.6262 52.4825 68.503 52.5441 68.3798 52.6057C68.2565 52.6673 68.1333 52.7905 68.0717 52.9138C68.0101 53.037 68.0101 53.1602 68.0101 53.2834C68.0717 53.4682 68.1333 53.5915 68.3182 53.6531C68.503 53.7147 68.6878 53.7147 68.8727 53.6531C69.0575 53.5915 69.1807 53.5299 69.3039 53.4682C69.4272 53.4066 69.4888 53.2834 69.5504 53.1602C69.612 53.037 69.612 52.9138 69.6736 52.7905C69.6736 52.6673 69.6736 52.5441 69.6736 52.4208L69.612 52.1744L69.3039 52.2977Z" fill="#FFFDFD"/>
<path d="M75.0321 53.0978C75.0937 53.3443 75.0321 53.6523 74.9705 53.8372C74.9089 54.0836 74.7856 54.2685 74.6624 54.4533C74.5392 54.6381 74.3544 54.8229 74.1079 54.9462C73.8615 55.0694 73.615 55.131 73.307 55.1926C72.9373 55.2542 72.6293 55.2542 72.3212 55.1926C72.0132 55.131 71.7051 55.0078 71.4587 54.8229L71.8283 54.2068C72.0132 54.3917 72.2596 54.5149 72.4444 54.5765C72.6909 54.6381 72.8757 54.6381 73.1838 54.6381C73.4302 54.5765 73.615 54.5149 73.7999 54.4533C73.9847 54.3301 74.0463 54.2685 74.1695 54.1452C74.2311 54.022 74.2928 53.8988 74.2928 53.7139C74.2928 53.5907 74.2928 53.4059 74.2928 53.2827L74.2311 52.7282C74.1079 52.9746 73.9847 53.1594 73.7383 53.2827C73.5534 53.4059 73.307 53.5291 73.0605 53.5291C72.8141 53.5907 72.5677 53.5291 72.3212 53.4675C72.0748 53.4059 71.8899 53.2827 71.7051 53.1594C71.5203 53.0362 71.397 52.8514 71.2738 52.605C71.1506 52.3585 71.089 52.1737 71.0274 51.8656C70.9658 51.6192 71.0274 51.3727 71.0274 51.1263C71.089 50.8798 71.1506 50.695 71.3354 50.4486C71.4587 50.2637 71.6435 50.0789 71.8283 49.9557C72.0132 49.8324 72.2596 49.7709 72.5677 49.7092C72.8141 49.6476 73.0605 49.7092 73.307 49.7708C73.5534 49.8324 73.7383 49.9557 73.9231 50.1405L73.8615 49.6476L74.5392 49.5244L75.0321 53.0978ZM72.7525 50.3253C72.5677 50.3253 72.3828 50.387 72.2596 50.5102C72.1364 50.5718 72.0132 50.695 71.9515 50.8182C71.8899 50.9414 71.8283 51.0647 71.7667 51.2495C71.7051 51.4343 71.7051 51.5576 71.7667 51.7424C71.8283 52.1121 71.9515 52.3585 72.198 52.5433C72.4444 52.7282 72.7525 52.7898 73.1222 52.7282C73.4918 52.6665 73.7383 52.5433 73.9231 52.2969C74.1079 52.0505 74.1695 51.7424 74.1079 51.3727C74.1079 51.1879 74.0463 51.003 73.9847 50.8798C73.9231 50.7566 73.7999 50.6334 73.6767 50.5102C73.5534 50.387 73.4302 50.3253 73.2454 50.3253C73.0605 50.3253 72.9373 50.3253 72.7525 50.3253Z" fill="#FFFDFD"/>
<path d="M76.2658 51.4367C76.2658 51.6216 76.3274 51.7448 76.389 51.868C76.4506 51.9912 76.5738 52.1145 76.6971 52.1761C76.8203 52.2377 76.9435 52.2993 77.0667 52.3609C77.19 52.4225 77.3748 52.4225 77.498 52.4225C77.6828 52.4225 77.8677 52.3609 78.0525 52.2377C78.1757 52.1144 78.3606 51.9912 78.4838 51.8064L79.0383 52.1761C78.6686 52.669 78.1757 52.977 77.498 52.977C77.19 52.977 76.9435 52.977 76.6971 52.8538C76.4506 52.7305 76.2658 52.669 76.081 52.4841C75.8961 52.2993 75.7729 52.1144 75.6497 51.9296C75.5265 51.6832 75.4648 51.4367 75.4648 51.1903C75.4648 50.9438 75.4648 50.6974 75.5881 50.451C75.7113 50.2045 75.7729 50.0197 75.9577 49.8349C76.1426 49.65 76.3274 49.5268 76.5122 49.4036C76.6971 49.2804 77.0051 49.2188 77.2516 49.2188C77.5596 49.2188 77.8677 49.2187 78.0525 49.3419C78.2989 49.4652 78.4838 49.5884 78.607 49.7732C78.7302 49.9581 78.8534 50.1429 78.9767 50.3893C79.0999 50.6358 79.0999 50.8206 79.0999 51.0671V51.3135L76.2658 51.4367ZM78.3606 50.8206C78.3606 50.6974 78.2989 50.5126 78.2373 50.3893C78.1757 50.2661 78.1141 50.1429 78.0525 50.0813C77.9909 50.0197 77.8677 49.8965 77.7445 49.8965C77.6212 49.8965 77.4364 49.8349 77.3132 49.8349C77.1283 49.8349 77.0051 49.8964 76.8819 49.9581C76.7587 50.0197 76.6355 50.1429 76.5122 50.2045C76.4506 50.3277 76.3274 50.4509 76.3274 50.5742C76.3274 50.6974 76.2658 50.8206 76.2658 50.9438L78.3606 50.8206Z" fill="#FFFDFD"/>
<path d="M83.4126 48.2316L81.6875 48.1084L81.7491 47.4307L85.9386 47.6771L85.877 48.3548L84.1519 48.2316L83.9055 52.9141L83.1662 52.8524L83.4126 48.2316Z" fill="#FFFDFD"/>
<path d="M85.8123 49.5244L86.49 49.586L86.4284 50.1405C86.49 50.0789 86.5516 49.9557 86.6133 49.8941C86.6749 49.8325 86.7981 49.7709 86.8597 49.7092C86.9829 49.6476 87.0445 49.6476 87.1677 49.586C87.291 49.586 87.4142 49.586 87.4758 49.586C87.5374 49.586 87.6606 49.6476 87.7839 49.6476L87.6606 50.3869C87.599 50.3869 87.5374 50.3253 87.4758 50.3253C87.4142 50.3253 87.3526 50.3253 87.291 50.2637C86.9829 50.2021 86.6749 50.2637 86.49 50.4486C86.3052 50.6334 86.182 50.8798 86.1204 51.3111L85.9355 53.0978L85.2578 53.0362L85.8123 49.5244Z" fill="#FFFDFD"/>
<path d="M88.5876 50.2654C88.834 50.1422 89.0804 50.019 89.3269 49.9573C89.5733 49.8957 89.8198 49.8957 90.1278 49.9573C90.3743 50.019 90.6207 50.0806 90.8056 50.1422C90.9904 50.2654 91.1136 50.327 91.2368 50.5119C91.3601 50.6351 91.4217 50.7583 91.4217 50.9431C91.4833 51.0664 91.4833 51.2512 91.4217 51.436L91.1136 53.2227C91.1136 53.346 91.052 53.4692 91.052 53.5924C91.052 53.7156 91.052 53.7772 91.052 53.9005L90.4359 53.7772C90.4359 53.5924 90.4975 53.4076 90.4975 53.2227C90.3127 53.4076 90.1278 53.5308 89.8814 53.5924C89.6349 53.654 89.3885 53.654 89.1421 53.5924C88.9572 53.5924 88.834 53.5308 88.7108 53.4692C88.5876 53.4076 88.4643 53.2844 88.3411 53.2227C88.2179 53.0995 88.1563 52.9763 88.1563 52.8531C88.1563 52.7298 88.0947 52.545 88.1563 52.3602C88.2179 52.1137 88.2795 51.9289 88.4027 51.8057C88.526 51.6824 88.7108 51.5592 88.8956 51.4976C89.0805 51.436 89.3269 51.3744 89.5733 51.3744C89.8198 51.3744 90.0662 51.3744 90.3743 51.436L90.8672 51.4976V51.3744C90.8672 51.3128 90.8672 51.1896 90.8672 51.0664C90.8672 50.9431 90.8056 50.8815 90.7439 50.8199C90.6823 50.7583 90.6207 50.6351 90.4975 50.5735C90.3743 50.5118 90.2511 50.4503 90.1278 50.4503C90.0046 50.4503 89.8814 50.4503 89.7582 50.4503C89.6349 50.4503 89.5733 50.4502 89.4501 50.5119C89.3885 50.5119 89.2653 50.5735 89.2037 50.6351C89.1421 50.6967 89.0804 50.6967 89.0188 50.7583L88.5876 50.2654ZM90.2511 51.9905C90.0662 51.9905 89.943 51.9289 89.7582 51.9289C89.5733 51.9289 89.4501 51.9289 89.2653 51.9289C89.1421 51.9289 89.0188 51.9905 88.8956 52.0521C88.7724 52.1137 88.7108 52.237 88.7108 52.3602C88.6492 52.545 88.7108 52.7298 88.834 52.8531C88.9572 52.9763 89.1421 53.0379 89.3885 53.0995C89.5733 53.1611 89.7582 53.0995 89.8814 53.0995C90.0046 53.0379 90.1278 52.9763 90.2511 52.9147C90.3743 52.8531 90.4359 52.7299 90.4975 52.6066C90.5591 52.4834 90.6207 52.3602 90.6207 52.237L90.6823 51.9905H90.2511Z" fill="#FFFDFD"/>
<path d="M92.5921 50.5732L93.2699 50.7581L93.1466 51.3126C93.2699 51.1277 93.4547 51.0045 93.7011 50.9429C93.9476 50.8813 94.194 50.8813 94.4405 50.9429C94.6253 51.0045 94.7485 51.0661 94.9333 51.1278C95.0566 51.1894 95.1798 51.3126 95.303 51.4974C95.3646 51.6206 95.4262 51.8055 95.4878 51.9903C95.5495 52.1752 95.4878 52.36 95.4262 52.6064L94.8717 54.886L94.194 54.7012L94.6869 52.6064C94.7485 52.4216 94.7485 52.2984 94.7485 52.1751C94.7485 52.0519 94.6869 51.9287 94.6253 51.8671C94.5637 51.8055 94.5021 51.6822 94.3788 51.6206C94.3172 51.559 94.194 51.4974 94.0708 51.4974C93.9476 51.4358 93.8243 51.4358 93.6395 51.4974C93.5163 51.4974 93.3931 51.559 93.2699 51.6206C93.1466 51.6822 93.085 51.8055 92.9618 51.9287C92.9002 52.0519 92.777 52.2367 92.777 52.4216L92.3457 54.2083L91.668 54.0235L92.5921 50.5732Z" fill="#FFFDFD"/>
<path d="M98.3242 53.0984C98.2626 52.9752 98.2009 52.852 98.1393 52.7904C98.0777 52.7288 97.8929 52.6055 97.7697 52.5439C97.5848 52.4823 97.4616 52.4823 97.3384 52.4823C97.2152 52.4823 97.0919 52.6055 97.0919 52.7287C97.0303 52.852 97.0919 52.9136 97.0919 53.0368C97.1536 53.0984 97.2152 53.2216 97.2768 53.2833C97.3384 53.3449 97.4616 53.4065 97.5232 53.4681C97.5848 53.5297 97.7081 53.5913 97.7697 53.5913C97.8929 53.6529 98.0161 53.7762 98.1393 53.8378C98.2626 53.8994 98.3242 54.0226 98.3858 54.1458C98.4474 54.269 98.509 54.3923 98.509 54.5155C98.509 54.6387 98.509 54.7619 98.4474 54.9468C98.3858 55.1316 98.2626 55.3164 98.1393 55.378C98.0161 55.4397 97.8929 55.5629 97.7081 55.6245C97.5232 55.6861 97.4 55.6861 97.2152 55.6861C97.0303 55.6861 96.8455 55.6245 96.7223 55.5629C96.4142 55.4396 96.2294 55.3164 96.0446 55.1932C95.8597 55.0083 95.7365 54.8235 95.6133 54.5155L96.2294 54.269C96.291 54.3922 96.4142 54.5155 96.4758 54.6387C96.5991 54.7619 96.7223 54.8851 96.9071 54.9468C96.9687 54.9468 97.0919 55.0084 97.1536 55.0084C97.2152 55.0084 97.3384 55.0084 97.4 55.0084C97.4616 55.0084 97.5232 54.9468 97.5848 54.9468C97.6464 54.8851 97.7081 54.8235 97.7081 54.7619C97.7697 54.6387 97.7081 54.5771 97.7081 54.5155C97.6464 54.4539 97.5848 54.3306 97.5232 54.269C97.4616 54.2074 97.4 54.1458 97.2768 54.0842C97.2152 54.0226 97.0919 53.961 97.0303 53.961C96.9071 53.8993 96.7839 53.7761 96.6607 53.7145C96.5375 53.6529 96.4758 53.5297 96.4142 53.4065C96.3526 53.2833 96.291 53.16 96.291 53.0368C96.291 52.9136 96.291 52.7288 96.3526 52.6055C96.4142 52.4207 96.4758 52.2975 96.5991 52.1743C96.7223 52.051 96.8455 51.9894 97.0303 51.9278C97.2152 51.8662 97.3384 51.8662 97.5232 51.8662C97.7081 51.8662 97.8313 51.9278 98.0161 51.9278C98.2626 51.9894 98.4474 52.1127 98.6322 52.2975C98.8171 52.4823 98.9403 52.6672 99.0019 52.9136L98.3242 53.0984Z" fill="#FFFDFD"/>
<path d="M100.85 50.7588L101.466 51.0052L99.4325 56.3654L98.8164 56.1189L100.85 50.7588Z" fill="#FFFDFD"/>
<path d="M101.587 53.8381C101.833 53.7765 102.08 53.7148 102.388 53.7148C102.634 53.7148 102.881 53.7764 103.127 53.8997C103.374 54.0229 103.558 54.1461 103.682 54.2693C103.805 54.3925 103.928 54.5774 103.99 54.7006C104.051 54.8238 104.113 55.0087 104.051 55.1319C104.051 55.3167 103.99 55.4399 103.928 55.5632L103.189 57.2267C103.127 57.3499 103.065 57.4731 103.065 57.5347C103.065 57.5963 103.004 57.7196 102.942 57.8428L102.388 57.5963C102.449 57.4115 102.511 57.2267 102.573 57.1034C102.326 57.2267 102.08 57.3499 101.895 57.3499C101.648 57.3499 101.402 57.2883 101.156 57.165C101.032 57.1034 100.847 57.0418 100.724 56.9186C100.601 56.7954 100.539 56.6722 100.416 56.5489C100.355 56.4257 100.293 56.3025 100.293 56.1176C100.293 55.9328 100.293 55.8096 100.416 55.6248C100.539 55.4399 100.663 55.2551 100.786 55.1319C100.971 55.0087 101.156 54.9471 101.34 54.9471C101.525 54.9471 101.772 54.947 102.018 55.0087C102.265 55.0703 102.511 55.1319 102.757 55.2551L103.189 55.4399L103.25 55.3167C103.312 55.2551 103.312 55.1319 103.312 55.0703C103.312 55.0087 103.312 54.8855 103.25 54.7622C103.189 54.639 103.127 54.5774 103.065 54.5158C103.004 54.4542 102.881 54.3926 102.757 54.331C102.634 54.2693 102.511 54.2693 102.449 54.2077C102.326 54.2077 102.265 54.2077 102.141 54.2077C102.018 54.2077 101.956 54.2077 101.895 54.2693C101.833 54.2693 101.71 54.331 101.648 54.331L101.587 53.8381ZM102.819 55.9328C102.696 55.8712 102.511 55.8096 102.326 55.748C102.141 55.6864 102.018 55.6864 101.833 55.6248C101.71 55.6248 101.525 55.6248 101.464 55.6864C101.34 55.748 101.279 55.8096 101.217 55.9328C101.156 56.1177 101.156 56.3025 101.217 56.4257C101.279 56.5489 101.464 56.6722 101.71 56.7954C101.895 56.857 102.018 56.9186 102.203 56.9186C102.326 56.9186 102.511 56.857 102.573 56.7954C102.696 56.7338 102.757 56.6722 102.881 56.5489C102.942 56.4257 103.004 56.3641 103.065 56.2409L103.127 56.0561L102.819 55.9328Z" fill="#FFFDFD"/>
<path d="M106.885 56.4875L106.023 56.0563L105.284 57.5349C105.222 57.5966 105.222 57.7197 105.16 57.7814C105.099 57.843 105.099 57.9662 105.099 58.0278C105.099 58.0894 105.099 58.2126 105.16 58.2742C105.222 58.3359 105.284 58.3975 105.407 58.4591C105.468 58.5207 105.53 58.5207 105.653 58.5823C105.715 58.5823 105.838 58.6439 105.9 58.6439L105.592 59.1984C105.468 59.1984 105.407 59.1984 105.284 59.1368C105.16 59.0752 105.037 59.0752 104.975 59.0136C104.729 58.8904 104.606 58.7671 104.483 58.6439C104.359 58.5207 104.359 58.3975 104.359 58.2126C104.359 58.0894 104.359 57.9662 104.421 57.7814C104.483 57.5965 104.544 57.5349 104.606 57.4117L105.468 55.7482L104.791 55.3786L105.037 54.824L105.715 55.1937L106.208 54.2695L106.824 54.5776L106.331 55.5017L107.193 55.933L106.885 56.4875Z" fill="#FFFDFD"/>
<path d="M107.998 56.424L108.614 56.7937L106.827 59.9358L106.211 59.5662L107.998 56.424ZM108.491 55.2534C108.552 55.1302 108.675 55.0686 108.799 55.007C108.922 54.9453 109.045 55.007 109.168 55.0686C109.291 55.1302 109.353 55.2534 109.415 55.3766C109.476 55.4999 109.415 55.6231 109.353 55.7463C109.291 55.8695 109.168 55.9311 109.045 55.9928C108.922 56.0544 108.799 55.9927 108.675 55.9311C108.552 55.8695 108.491 55.7463 108.429 55.6231C108.429 55.4998 108.429 55.3766 108.491 55.2534Z" fill="#FFFDFD"/>
<path d="M108.425 58.7672C108.548 58.5207 108.733 58.3359 108.979 58.2127C109.164 58.0894 109.41 57.9662 109.657 57.9046C109.903 57.843 110.15 57.843 110.396 57.9046C110.643 57.9662 110.889 58.0278 111.135 58.2127C111.382 58.3975 111.567 58.5207 111.69 58.7672C111.813 59.0136 111.936 59.1984 111.998 59.4449C112.06 59.6913 112.06 59.9378 111.998 60.1842C111.936 60.4307 111.875 60.6771 111.69 60.8619C111.567 61.1084 111.382 61.2932 111.135 61.4164C110.951 61.5397 110.704 61.6629 110.458 61.7245C110.211 61.7861 109.965 61.7861 109.718 61.7245C109.472 61.6629 109.226 61.6013 108.979 61.4164C108.733 61.2316 108.548 61.1084 108.425 60.8619C108.301 60.6771 108.178 60.4307 108.117 60.1842C108.055 59.9378 108.055 59.6913 108.117 59.4449C108.178 59.1984 108.301 59.0136 108.425 58.7672ZM109.041 59.1368C108.917 59.26 108.856 59.4449 108.856 59.6297C108.794 59.8145 108.794 59.9378 108.856 60.061C108.856 60.1842 108.917 60.3691 109.041 60.4923C109.164 60.6155 109.226 60.7387 109.41 60.8619C109.595 60.9851 109.718 61.0467 109.903 61.0467C110.088 61.0467 110.211 61.0467 110.335 61.0467C110.458 60.9851 110.643 60.9235 110.766 60.8619C110.889 60.7387 111.012 60.6155 111.135 60.4923C111.259 60.3691 111.32 60.1842 111.32 59.9994C111.382 59.8146 111.382 59.6913 111.32 59.5681C111.32 59.4449 111.259 59.26 111.135 59.1368C111.012 59.0136 110.951 58.8904 110.766 58.7672C110.643 58.644 110.458 58.5823 110.273 58.5823C110.088 58.5823 109.965 58.5823 109.842 58.5823C109.718 58.6439 109.534 58.7056 109.41 58.7672C109.287 58.8904 109.164 59.0136 109.041 59.1368Z" fill="#FFFDFD"/>
<path d="M113.418 59.875L113.973 60.3063L113.665 60.7375C113.849 60.6143 114.034 60.6143 114.281 60.6143C114.527 60.6143 114.774 60.7376 114.958 60.9224C115.082 61.0456 115.205 61.1688 115.328 61.292C115.451 61.4153 115.513 61.6001 115.513 61.7233C115.513 61.9082 115.513 62.0314 115.451 62.2162C115.39 62.401 115.328 62.5859 115.143 62.7707L113.726 64.619L113.172 64.1878L114.465 62.5243C114.589 62.401 114.65 62.2778 114.65 62.1546C114.65 62.0314 114.712 61.9081 114.712 61.7849C114.712 61.6617 114.65 61.6001 114.589 61.4769C114.527 61.3536 114.465 61.2921 114.404 61.2304C114.281 61.1688 114.157 61.1072 114.034 61.0456C113.911 60.984 113.788 60.984 113.665 61.0456C113.541 61.0456 113.418 61.1072 113.295 61.2304C113.172 61.3537 113.048 61.4769 112.925 61.6001L111.816 63.0788L111.262 62.6475L113.418 59.875Z" fill="#FFFDFD"/>
<path d="M119.824 62.7715L120.563 63.5724L118.838 67.6387L122.966 65.9752L123.705 66.7762L119.885 70.5344L119.393 70.0416L122.535 66.961L118.099 68.7477L117.729 68.3781L119.639 63.9421L116.497 67.0226L116.004 66.5297L119.824 62.7715Z" fill="#FFFDFD"/>
<path d="M123.272 69.0552L123.704 69.6097L120.931 71.9509L120.5 71.3964L123.272 69.0552ZM124.197 68.131C124.32 68.0694 124.443 68.0078 124.566 68.0078C124.69 68.0078 124.813 68.0694 124.936 68.1926C124.998 68.3159 125.059 68.4391 125.059 68.5623C125.059 68.6855 124.998 68.8088 124.874 68.932C124.751 68.9936 124.628 69.0552 124.505 69.0552C124.381 69.0552 124.258 68.9936 124.135 68.8703C124.073 68.7471 124.012 68.6239 124.012 68.5007C124.012 68.3159 124.073 68.1926 124.197 68.131Z" fill="#FFFDFD"/>
<path d="M124.874 72.5669C124.936 72.4437 124.936 72.3205 124.874 72.1972C124.874 72.074 124.812 71.9508 124.689 71.766C124.566 71.6427 124.504 71.5195 124.381 71.5195C124.258 71.4579 124.135 71.4579 124.011 71.5811C123.95 71.6427 123.888 71.7043 123.888 71.8276C123.888 71.9508 123.888 72.0124 123.888 72.1356C123.888 72.2588 123.95 72.3204 124.011 72.4437C124.073 72.5669 124.073 72.6285 124.135 72.6901C124.196 72.8133 124.258 72.9366 124.258 73.1214C124.32 73.2446 124.32 73.3678 124.32 73.4911C124.32 73.6143 124.258 73.7375 124.196 73.8607C124.135 73.984 124.011 74.1072 123.888 74.1688C123.703 74.292 123.58 74.3536 123.395 74.3536C123.211 74.3536 123.087 74.3536 122.902 74.292C122.718 74.2304 122.594 74.1688 122.471 74.0456C122.348 73.9224 122.225 73.7991 122.102 73.6759C121.917 73.4294 121.793 73.183 121.732 72.9366C121.67 72.6901 121.67 72.4437 121.793 72.1356L122.471 72.2588C122.471 72.4437 122.471 72.5669 122.471 72.7517C122.471 72.9366 122.533 73.0598 122.656 73.2446C122.718 73.3062 122.779 73.3679 122.841 73.4295C122.902 73.4911 122.964 73.5527 123.026 73.5527C123.087 73.6143 123.149 73.6143 123.272 73.6143C123.395 73.6143 123.395 73.6143 123.457 73.5527C123.519 73.4911 123.58 73.4295 123.58 73.3062C123.58 73.2446 123.58 73.1214 123.58 73.0598C123.58 72.9366 123.519 72.8749 123.457 72.7517C123.395 72.6285 123.395 72.5669 123.334 72.5053C123.272 72.3821 123.211 72.2588 123.149 72.074C123.087 71.9508 123.087 71.8276 123.087 71.7044C123.087 71.5811 123.087 71.4579 123.149 71.3347C123.211 71.2115 123.272 71.0882 123.457 71.0266C123.58 70.9034 123.765 70.8418 123.95 70.8418C124.135 70.8418 124.258 70.8418 124.443 70.9034C124.628 70.965 124.751 71.0266 124.874 71.1499C124.997 71.2731 125.12 71.3963 125.244 71.5195C125.367 71.7043 125.49 71.9508 125.552 72.1356C125.613 72.3821 125.613 72.6285 125.49 72.8134L124.874 72.5669Z" fill="#FFFDFD"/>
<path d="M126.85 75.3417C126.912 75.2185 126.912 75.0952 126.912 74.972C126.912 74.8488 126.85 74.664 126.727 74.5407C126.666 74.4175 126.542 74.2943 126.419 74.2327C126.296 74.1711 126.173 74.1711 126.049 74.2327C125.988 74.2943 125.926 74.3559 125.865 74.4791C125.803 74.6024 125.865 74.664 125.865 74.7872C125.865 74.9104 125.926 74.972 125.926 75.0953C125.988 75.2185 125.988 75.2801 126.049 75.3417C126.111 75.4649 126.173 75.6497 126.173 75.773C126.173 75.8962 126.234 76.0194 126.173 76.1426C126.111 76.2658 126.111 76.3891 126.049 76.5123C125.988 76.6355 125.865 76.6971 125.741 76.8204C125.557 76.9436 125.433 77.0052 125.249 77.0052C125.064 77.0052 124.94 77.0052 124.756 76.9436C124.632 76.882 124.448 76.7587 124.324 76.6355C124.201 76.5123 124.078 76.3891 123.955 76.2042C123.77 75.9578 123.708 75.7113 123.647 75.4649C123.585 75.2185 123.647 74.972 123.708 74.664L124.324 74.8488C124.324 75.0336 124.263 75.1568 124.263 75.3417C124.263 75.5265 124.324 75.6497 124.448 75.8346C124.509 75.8962 124.571 75.9578 124.632 76.0194C124.694 76.081 124.756 76.1426 124.817 76.1426C124.879 76.2042 124.94 76.2042 125.002 76.2042C125.064 76.2042 125.125 76.2042 125.187 76.1426C125.248 76.081 125.31 76.0194 125.372 75.8962C125.372 75.8346 125.372 75.7114 125.372 75.5881C125.372 75.4649 125.31 75.4033 125.31 75.2801C125.31 75.1569 125.248 75.0952 125.187 75.0336C125.125 74.9104 125.064 74.7256 125.064 74.6023C125.002 74.4791 125.002 74.3559 125.002 74.2327C125.002 74.1095 125.064 73.9863 125.125 73.863C125.187 73.7398 125.31 73.6166 125.433 73.555C125.618 73.4318 125.741 73.3701 125.926 73.3701C126.111 73.3701 126.234 73.3701 126.419 73.4318C126.542 73.4934 126.727 73.5549 126.85 73.6782C126.974 73.8014 127.097 73.9246 127.158 74.0479C127.282 74.2327 127.405 74.4791 127.405 74.7256C127.466 74.972 127.405 75.2185 127.343 75.4033L126.85 75.3417Z" fill="#FFFDFD"/>
<path d="M128.389 76.1409L128.759 76.757L125.678 78.6053L125.309 77.9892L128.389 76.1409ZM129.437 75.3399C129.56 75.2783 129.683 75.2783 129.806 75.2783C129.929 75.2783 130.053 75.4015 130.114 75.5247C130.176 75.648 130.176 75.7712 130.176 75.8944C130.176 76.0177 130.053 76.1409 129.929 76.2025C129.806 76.2641 129.683 76.2641 129.56 76.2641C129.437 76.2641 129.313 76.1409 129.252 76.0177C129.19 75.8944 129.19 75.7712 129.19 75.648C129.19 75.5247 129.313 75.4015 129.437 75.3399Z" fill="#FFFDFD"/>
<path d="M127.712 78.4202C127.959 78.297 128.205 78.2354 128.452 78.2354C128.698 78.2354 128.945 78.2353 129.191 78.2969C129.437 78.3586 129.622 78.4818 129.807 78.6666C129.992 78.8515 130.177 79.0363 130.3 79.2827C130.423 79.5292 130.485 79.7756 130.546 80.0221C130.546 80.2685 130.546 80.5149 130.485 80.7614C130.423 81.0078 130.3 81.1927 130.115 81.3775C129.93 81.5623 129.746 81.7472 129.561 81.8704C129.314 81.9936 129.068 82.0552 128.821 82.0552C128.575 82.0552 128.328 82.0552 128.082 81.9936C127.836 81.932 127.651 81.8088 127.466 81.624C127.281 81.4391 127.096 81.2543 126.973 81.0078C126.85 80.7614 126.788 80.5149 126.727 80.2685C126.727 80.0221 126.727 79.7756 126.788 79.5292C126.85 79.2827 126.973 79.0979 127.158 78.9131C127.343 78.7282 127.466 78.5434 127.712 78.4202ZM128.02 79.0363C127.836 79.0979 127.712 79.2211 127.589 79.3443C127.466 79.4676 127.404 79.5908 127.343 79.714C127.281 79.8373 127.281 80.0221 127.281 80.1453C127.281 80.2685 127.343 80.4534 127.404 80.6382C127.466 80.823 127.589 80.9462 127.712 81.0078C127.836 81.0695 127.959 81.1927 128.144 81.1927C128.267 81.2543 128.452 81.2543 128.575 81.1927C128.76 81.1927 128.883 81.1311 129.068 81.0078C129.253 80.9462 129.376 80.823 129.499 80.6998C129.622 80.5766 129.684 80.4534 129.746 80.3301C129.807 80.2069 129.807 80.0221 129.807 79.8989C129.807 79.7756 129.745 79.5908 129.684 79.406C129.622 79.2211 129.499 79.0979 129.376 79.0363C129.253 78.9131 129.129 78.8515 128.945 78.8515C128.821 78.7898 128.637 78.7898 128.513 78.8515C128.39 78.9131 128.205 78.9747 128.02 79.0363Z" fill="#FFFDFD"/>
<path d="M131.471 81.8105L131.717 82.4267L131.224 82.6731C131.409 82.6731 131.655 82.7347 131.84 82.9195C132.025 83.0428 132.21 83.2892 132.272 83.5356C132.333 83.7205 132.395 83.8437 132.395 84.0286C132.395 84.2134 132.395 84.3366 132.333 84.5214C132.272 84.6447 132.21 84.8295 132.025 84.9527C131.902 85.0759 131.717 85.1992 131.471 85.3224L129.314 86.2465L129.068 85.6304L131.039 84.7679C131.163 84.7063 131.286 84.6447 131.409 84.5214C131.471 84.4598 131.594 84.3366 131.594 84.2134C131.655 84.0902 131.655 84.0286 131.655 83.9053C131.655 83.7821 131.594 83.7205 131.594 83.5973C131.532 83.4741 131.471 83.3508 131.347 83.2892C131.286 83.166 131.163 83.1044 131.039 83.1044C130.916 83.0428 130.793 83.0428 130.608 83.0428C130.423 83.0428 130.3 83.1044 130.054 83.166L128.328 83.9053L128.082 83.2892L131.471 81.8105Z" fill="#FFFDFD"/>
<path d="M41.7036 139.97L42.9974 141.325C43.1822 141.51 43.3055 141.695 43.3671 141.818C43.4903 142.003 43.5519 142.188 43.5519 142.373C43.5519 142.557 43.5519 142.742 43.4903 142.927C43.4287 143.112 43.3055 143.297 43.1206 143.42C42.8742 143.605 42.6894 143.728 42.3813 143.728C42.0732 143.728 41.8884 143.666 41.642 143.543C41.7652 143.666 41.8268 143.79 41.8884 143.974C41.95 144.098 41.95 144.282 41.95 144.406C41.95 144.591 41.8884 144.714 41.8268 144.837C41.7652 144.96 41.642 145.145 41.5187 145.268C41.3339 145.453 41.1491 145.515 40.9642 145.576C40.7794 145.638 40.533 145.638 40.3481 145.576C40.1633 145.515 39.9169 145.453 39.732 145.33C39.5472 145.207 39.3624 145.083 39.1775 144.899L37.9453 143.605L41.7036 139.97ZM38.8079 143.79L39.5472 144.529C39.6088 144.591 39.732 144.714 39.7936 144.775C39.9169 144.837 40.0401 144.899 40.1633 144.96C40.2865 145.022 40.4097 145.022 40.5946 144.96C40.7178 144.96 40.9026 144.837 41.0259 144.714C41.2723 144.467 41.3339 144.282 41.3339 143.974C41.3339 143.728 41.1491 143.482 40.9026 143.235L40.1633 142.434L38.8079 143.79ZM40.5946 142.064L41.2723 142.804C41.3955 142.927 41.4571 142.989 41.5804 143.05C41.7036 143.112 41.7652 143.174 41.8884 143.174C42.0116 143.174 42.1349 143.174 42.1965 143.174C42.3197 143.112 42.4429 143.05 42.5045 142.989C42.6277 142.865 42.751 142.681 42.751 142.434C42.751 142.188 42.6894 142.003 42.5045 141.818L41.7036 141.017L40.5946 142.064Z" fill="#FFFDFD"/>
<path d="M42.2585 145.637C42.4433 145.452 42.6282 145.267 42.8746 145.205C43.1211 145.082 43.3059 145.021 43.5523 145.021C43.7988 145.021 44.0452 145.02 44.2917 145.144C44.5381 145.205 44.7229 145.329 44.9694 145.513C45.1542 145.698 45.3391 145.883 45.4007 146.129C45.4623 146.376 45.5855 146.561 45.5855 146.807C45.5855 147.054 45.5855 147.3 45.4623 147.547C45.4007 147.793 45.2774 147.978 45.0926 148.163C44.9078 148.347 44.7229 148.532 44.4765 148.594C44.2301 148.717 44.0452 148.779 43.7988 148.779C43.5523 148.779 43.3059 148.779 43.0595 148.656C42.813 148.594 42.6282 148.471 42.3817 148.286C42.1969 148.101 42.0121 147.916 41.9505 147.67C41.8888 147.423 41.7656 147.238 41.7656 146.992C41.7656 146.746 41.7656 146.499 41.8888 146.253C41.9505 146.068 42.0737 145.821 42.2585 145.637ZM42.813 146.129C42.6898 146.253 42.6282 146.438 42.5666 146.561C42.505 146.684 42.505 146.869 42.505 146.992C42.505 147.115 42.5666 147.3 42.6282 147.423C42.6898 147.547 42.813 147.67 42.9362 147.793C43.0595 147.916 43.2443 147.978 43.3675 148.039C43.4907 148.101 43.6756 148.101 43.7988 148.101C43.922 148.101 44.1068 148.039 44.2301 147.978C44.3533 147.916 44.4765 147.793 44.5997 147.67C44.7229 147.547 44.7846 147.362 44.8462 147.238C44.9078 147.115 44.9078 146.93 44.9078 146.807C44.9078 146.684 44.8462 146.499 44.7846 146.376C44.7229 146.253 44.5997 146.129 44.4765 146.006C44.3533 145.883 44.1685 145.821 44.0452 145.76C43.922 145.698 43.7372 145.698 43.614 145.698C43.4907 145.698 43.3059 145.76 43.1827 145.821C43.0595 145.883 42.9362 146.006 42.813 146.129Z" fill="#FFFDFD"/>
<path d="M48.297 145.699L48.8515 146.131L45.3397 150.566L44.7852 150.135L48.297 145.699Z" fill="#FFFDFD"/>
<path d="M47.1277 149.765C47.2509 149.58 47.4358 149.395 47.6822 149.272C47.867 149.149 48.1135 149.087 48.3599 149.026C48.6064 148.964 48.8528 148.964 49.0993 149.026C49.3457 149.087 49.5921 149.211 49.777 149.334C49.9618 149.457 50.1466 149.642 50.3315 149.888C50.4547 150.073 50.5779 150.32 50.5779 150.566C50.6395 150.812 50.6395 151.059 50.5779 151.305C50.5163 151.552 50.4547 151.798 50.2699 151.983C50.1466 152.168 49.9618 152.353 49.7154 152.476C49.5305 152.599 49.2841 152.722 49.0376 152.722C48.7912 152.784 48.5447 152.784 48.2983 152.722C48.0519 152.661 47.8054 152.538 47.6206 152.414C47.3741 152.291 47.2509 152.106 47.0661 151.86C46.9429 151.675 46.8196 151.429 46.8196 151.182C46.758 150.936 46.758 150.689 46.8196 150.443C46.8813 150.196 47.0045 149.95 47.1277 149.765ZM47.7438 150.196C47.6206 150.32 47.559 150.504 47.4974 150.628C47.4358 150.812 47.4358 150.936 47.4358 151.059C47.4358 151.182 47.4974 151.367 47.6206 151.49C47.7438 151.613 47.8054 151.737 47.9903 151.86C48.1135 151.983 48.2983 152.045 48.4215 152.045C48.6064 152.106 48.7296 152.106 48.8528 152.045C48.976 151.983 49.1609 151.921 49.2841 151.86C49.4073 151.737 49.5305 151.675 49.6537 151.49C49.777 151.367 49.8386 151.182 49.9002 151.059C49.9618 150.874 49.9618 150.751 49.9618 150.628C49.9618 150.504 49.9002 150.32 49.777 150.196C49.7154 150.073 49.5921 149.95 49.4073 149.827C49.2225 149.703 49.0992 149.642 48.976 149.642C48.8528 149.642 48.668 149.58 48.5448 149.642C48.4215 149.703 48.2367 149.765 48.1135 149.827C47.9903 149.888 47.8054 150.011 47.7438 150.196Z" fill="#FFFDFD"/>
<path d="M54.7048 150.505L55.321 150.875L52.7333 155.495L52.1172 155.126L54.7048 150.505Z" fill="#FFFDFD"/>
<path d="M55.5042 152.97L56.1203 153.278L55.8739 153.771C56.0587 153.647 56.2436 153.586 56.49 153.524C56.7364 153.524 56.9829 153.586 57.2293 153.709C57.3526 153.771 57.5374 153.894 57.6606 154.017C57.7838 154.14 57.8454 154.264 57.9071 154.448C57.9687 154.572 57.9687 154.756 57.9687 154.941C57.9687 155.126 57.9071 155.311 57.7838 155.557L56.7981 157.591L56.1819 157.282L57.1061 155.373C57.1677 155.249 57.2293 155.065 57.2293 154.941C57.2293 154.818 57.2293 154.695 57.1677 154.633C57.1061 154.51 57.1061 154.448 56.9829 154.387C56.9213 154.325 56.7981 154.264 56.7364 154.202C56.6132 154.14 56.49 154.079 56.3668 154.079C56.2436 154.079 56.1203 154.079 55.9971 154.14C55.8739 154.202 55.7507 154.264 55.6274 154.387C55.5042 154.51 55.4426 154.633 55.3194 154.818L54.5185 156.482L53.9023 156.174L55.5042 152.97Z" fill="#FFFDFD"/>
<path d="M61.2386 159.378L60.6225 159.132L60.8073 158.639C60.6225 158.762 60.376 158.823 60.1296 158.885C59.8831 158.885 59.6367 158.885 59.3902 158.762C59.1438 158.639 58.8974 158.515 58.7741 158.331C58.5893 158.146 58.4661 157.961 58.4045 157.776C58.3429 157.591 58.2812 157.345 58.2812 157.098C58.2812 156.852 58.3429 156.605 58.4045 156.359C58.5277 156.113 58.6509 155.866 58.7741 155.743C58.959 155.558 59.1438 155.435 59.3286 155.312C59.5135 155.188 59.7599 155.188 60.0064 155.127C60.2528 155.127 60.4992 155.188 60.7457 155.25C60.9921 155.373 61.177 155.497 61.3618 155.681C61.5466 155.866 61.6699 156.051 61.6699 156.297L62.6556 153.833L63.2717 154.079L61.2386 159.378ZM59.6983 158.207C59.8831 158.269 60.0064 158.331 60.1912 158.269C60.376 158.269 60.4992 158.207 60.6225 158.146C60.7457 158.084 60.8689 157.961 60.9921 157.838C61.1153 157.714 61.177 157.591 61.2386 157.406C61.3002 157.222 61.3618 157.098 61.3618 156.914C61.3618 156.729 61.3618 156.605 61.3002 156.482C61.2386 156.359 61.177 156.236 61.0537 156.113C60.9305 155.989 60.8073 155.928 60.6225 155.866C60.4376 155.805 60.3144 155.743 60.1296 155.805C59.9447 155.805 59.8215 155.866 59.6983 155.928C59.5751 155.989 59.4519 156.113 59.3286 156.236C59.2054 156.359 59.1438 156.482 59.0822 156.667C59.0206 156.852 58.959 156.975 58.959 157.16C58.959 157.345 58.959 157.468 59.0206 157.591C59.0822 157.714 59.1438 157.838 59.267 157.961C59.3902 158.084 59.5135 158.146 59.6983 158.207Z" fill="#FFFDFD"/>
<path d="M63.5152 156.359L64.1314 156.544L63.0224 159.932L62.4062 159.747L63.5152 156.359ZM63.7617 155.065C63.8233 154.942 63.8849 154.819 64.0081 154.757C64.1314 154.695 64.2546 154.695 64.3778 154.695C64.501 154.695 64.6242 154.819 64.6859 154.942C64.7475 155.065 64.7475 155.188 64.6859 155.311C64.6242 155.435 64.5626 155.558 64.4394 155.619C64.3162 155.681 64.193 155.681 64.0697 155.681C63.9465 155.681 63.8233 155.558 63.7617 155.435C63.7001 155.311 63.7001 155.188 63.7617 155.065Z" fill="#FFFDFD"/>
<path d="M65.0518 157.282C65.2983 157.158 65.5447 157.097 65.7912 157.097C66.0376 157.097 66.284 157.097 66.5305 157.158C66.7769 157.22 66.9618 157.343 67.1466 157.405C67.3314 157.528 67.4547 157.651 67.5163 157.774C67.5779 157.898 67.6395 158.082 67.7011 158.206C67.7627 158.329 67.7011 158.514 67.6395 158.637L67.1466 160.424C67.085 160.547 67.085 160.67 67.085 160.732C67.085 160.855 67.0234 160.917 67.0234 161.04L66.4689 160.855C66.5305 160.67 66.5305 160.485 66.5921 160.3C66.4073 160.485 66.1608 160.609 65.976 160.609C65.7296 160.67 65.4831 160.608 65.2367 160.547C65.0518 160.485 64.9286 160.424 64.8054 160.362C64.6822 160.3 64.5589 160.177 64.4973 160.054C64.4357 159.931 64.3741 159.808 64.3125 159.684C64.3125 159.561 64.3125 159.376 64.3125 159.191C64.3741 158.945 64.4973 158.822 64.6206 158.699C64.7438 158.575 64.9286 158.514 65.1134 158.452C65.2983 158.391 65.5447 158.39 65.7912 158.39C66.0376 158.39 66.284 158.452 66.5305 158.514L67.0234 158.637L67.085 158.514C67.085 158.452 67.085 158.329 67.085 158.267C67.085 158.144 67.0234 158.082 67.0234 157.959C66.9618 157.898 66.9002 157.774 66.8385 157.713C66.7769 157.651 66.6537 157.59 66.4689 157.528C66.3457 157.466 66.2224 157.466 66.0992 157.466C65.976 157.466 65.9144 157.466 65.7912 157.466C65.7296 157.466 65.6063 157.528 65.5447 157.528C65.4831 157.59 65.4215 157.59 65.2983 157.59L65.0518 157.282ZM66.5305 159.191C66.3457 159.13 66.2224 159.13 66.0376 159.068C65.8528 159.007 65.7296 159.007 65.5447 159.068C65.4215 159.068 65.2983 159.13 65.1751 159.191C65.0518 159.253 64.9902 159.376 64.9286 159.5C64.867 159.684 64.9286 159.869 64.9902 159.992C65.0518 160.116 65.2983 160.177 65.4831 160.239C65.6679 160.3 65.8528 160.3 65.976 160.3C66.0992 160.3 66.2224 160.239 66.3457 160.177C66.4689 160.116 66.5305 159.992 66.5921 159.869C66.6537 159.746 66.7153 159.623 66.7153 159.5L66.7769 159.253L66.5305 159.191Z" fill="#FFFDFD"/>
<path d="M70.7845 159.129C70.7845 158.944 70.8461 158.759 70.9693 158.636C71.0925 158.513 71.1542 158.39 71.339 158.266C71.4622 158.143 71.647 158.081 71.7703 158.02C71.9551 157.958 72.1399 157.958 72.3248 158.02C72.5096 158.081 72.6944 158.081 72.8177 158.205C72.9409 158.328 73.0641 158.39 73.1873 158.574C73.3105 158.759 73.3721 158.882 73.4338 159.006C73.4954 159.19 73.4954 159.375 73.4338 159.56C73.4338 159.745 73.3721 159.93 73.2489 160.053C73.1257 160.176 73.0641 160.299 72.8793 160.423C72.756 160.546 72.5712 160.607 72.448 160.669C72.2632 160.731 72.0783 160.731 71.8935 160.669C71.7087 160.669 71.5238 160.607 71.4006 160.484C71.2774 160.361 71.1542 160.299 71.0309 160.115C70.9077 159.991 70.8461 159.807 70.7845 159.683C70.7229 159.499 70.7229 159.314 70.7845 159.129Z" fill="#FFFDFD"/>
<path d="M76.8223 161.409C76.9455 161.593 77.1303 161.778 77.3151 161.84C77.5 161.901 77.7464 162.025 77.9312 162.025C78.0545 162.025 78.1777 162.025 78.3009 161.963C78.4241 161.901 78.5474 161.901 78.6706 161.778C78.7938 161.655 78.8554 161.593 78.917 161.532C78.9786 161.47 79.0402 161.285 79.0402 161.162C79.0402 160.977 78.9786 160.792 78.8554 160.669C78.7322 160.546 78.5474 160.484 78.3625 160.361C78.1777 160.3 77.9929 160.176 77.7464 160.115C77.5 160.053 77.3151 159.93 77.1303 159.807C76.9455 159.683 76.7606 159.499 76.6374 159.314C76.5142 159.129 76.4526 158.821 76.4526 158.513C76.4526 158.328 76.5142 158.205 76.5758 158.02C76.6374 157.835 76.7606 157.712 76.9455 157.527C77.0687 157.404 77.3151 157.281 77.5 157.157C77.6848 157.034 77.9929 157.034 78.3009 157.034C78.609 157.034 78.8554 157.096 79.1019 157.219C79.3483 157.342 79.5947 157.465 79.7796 157.712L79.1635 158.205C79.1019 158.082 78.9786 157.958 78.7938 157.835C78.609 157.712 78.4241 157.712 78.2393 157.712C78.0545 157.712 77.8696 157.712 77.7464 157.773C77.6232 157.835 77.5 157.897 77.4384 157.958C77.3767 158.02 77.3151 158.143 77.2535 158.205C77.1919 158.266 77.1919 158.39 77.1919 158.451C77.1919 158.698 77.2535 158.882 77.3767 159.006C77.5 159.129 77.6848 159.252 77.8696 159.314C78.0545 159.375 78.2393 159.499 78.4857 159.56C78.7322 159.622 78.917 159.745 79.1019 159.868C79.2867 159.991 79.4715 160.115 79.5947 160.3C79.718 160.484 79.7796 160.731 79.7796 161.039C79.7796 161.285 79.718 161.532 79.5947 161.717C79.4715 161.901 79.3483 162.086 79.1635 162.209C78.9786 162.333 78.7938 162.456 78.5474 162.518C78.3009 162.579 78.0545 162.641 77.808 162.579C77.4384 162.579 77.1303 162.518 76.8223 162.333C76.5142 162.148 76.2678 162.025 76.1445 161.717L76.8223 161.409Z" fill="#FFFDFD"/>
<path d="M80.582 157.836C80.582 157.712 80.6436 157.589 80.7053 157.466C80.8285 157.343 80.8901 157.343 81.0749 157.343C81.2598 157.343 81.3214 157.404 81.4446 157.466C81.5678 157.589 81.5678 157.651 81.5678 157.836C81.5678 157.959 81.5062 158.082 81.4446 158.205C81.3214 158.329 81.2598 158.329 81.0749 158.329C80.9517 158.329 80.8285 158.267 80.7053 158.205C80.582 158.144 80.582 157.959 80.582 157.836ZM80.7669 159.068H81.4446L81.5062 162.641H80.8285L80.7669 159.068Z" fill="#FFFDFD"/>
<path d="M82.4297 156.912H83.1074L83.3539 162.58H82.6761L82.4297 156.912Z" fill="#FFFDFD"/>
<path d="M83.7852 159.007L84.5861 158.946L85.8799 161.533L86.6193 158.699L87.3586 158.638L86.3112 162.334L85.5719 162.396L83.7852 159.007Z" fill="#FFFDFD"/>
<path d="M88.7738 160.485C88.7738 160.608 88.8354 160.793 88.9587 160.916C89.0203 161.04 89.1435 161.101 89.2667 161.224C89.3899 161.286 89.5132 161.348 89.698 161.348C89.8212 161.348 90.006 161.348 90.1293 161.348C90.3141 161.286 90.4989 161.224 90.6222 161.101C90.7454 160.978 90.8686 160.855 90.9918 160.67L91.5463 160.978C91.2383 161.532 90.807 161.84 90.1293 161.964C89.8212 162.025 89.5748 162.025 89.3283 161.964C89.0819 161.902 88.897 161.84 88.7122 161.656C88.5274 161.532 88.4042 161.348 88.2809 161.101C88.1577 160.916 88.0961 160.67 88.0345 160.362C87.9729 160.115 87.9729 159.869 88.0345 159.622C88.0961 159.376 88.1577 159.191 88.3425 158.945C88.4658 158.76 88.6506 158.575 88.8354 158.452C89.0203 158.329 89.2667 158.205 89.5132 158.205C89.8212 158.144 90.0677 158.144 90.3141 158.205C90.5605 158.267 90.7454 158.39 90.9302 158.513C91.115 158.637 91.2383 158.822 91.3615 159.068C91.4847 159.253 91.5463 159.499 91.5463 159.746L91.6079 159.992L88.7738 160.485ZM90.807 159.622C90.807 159.499 90.7454 159.314 90.6838 159.253C90.6221 159.13 90.5605 159.068 90.4373 158.945C90.3141 158.883 90.1909 158.822 90.0677 158.76C89.9444 158.76 89.7596 158.698 89.6364 158.76C89.4515 158.76 89.3283 158.822 89.2051 158.945C89.0819 159.006 88.9587 159.13 88.897 159.253C88.8354 159.376 88.7738 159.499 88.7122 159.622C88.6506 159.746 88.6506 159.869 88.7122 159.992L90.807 159.622Z" fill="#FFFDFD"/>
<path d="M91.9805 157.836L92.6582 157.651L92.7814 158.205C92.7814 158.082 92.843 158.021 92.9046 157.897C92.9662 157.774 93.0279 157.712 93.0895 157.651C93.1511 157.589 93.2743 157.528 93.3359 157.466C93.4591 157.404 93.5207 157.343 93.644 157.343C93.7672 157.343 93.8288 157.281 93.952 157.343L94.0752 158.082C94.0136 158.082 93.952 158.082 93.8904 158.082C93.8288 158.082 93.7672 158.082 93.7056 158.082C93.3975 158.144 93.1511 158.329 93.0279 158.513C92.9046 158.76 92.9046 159.006 92.9662 159.438L93.3975 161.163L92.7198 161.348L91.9805 157.836Z" fill="#FFFDFD"/>
<path d="M95.4883 155.186L96.2892 154.878L99.1849 158.451L99.2466 153.83L99.9859 153.584L99.801 159.314L99.1849 159.56L95.4883 155.186Z" fill="#FFFDFD"/>
<path d="M100.789 155.619C100.912 155.372 101.036 155.188 101.22 155.003C101.405 154.818 101.652 154.695 101.836 154.572C102.083 154.448 102.268 154.387 102.514 154.387C102.699 154.387 102.884 154.387 103.069 154.448C103.253 154.51 103.377 154.572 103.438 154.695C103.562 154.818 103.623 154.941 103.685 155.064L104.424 156.728C104.486 156.851 104.547 156.974 104.547 157.036C104.609 157.159 104.671 157.221 104.671 157.282L104.116 157.529C104.054 157.344 103.931 157.221 103.87 157.036C103.808 157.282 103.746 157.529 103.562 157.714C103.438 157.899 103.192 158.022 102.945 158.145C102.822 158.207 102.637 158.268 102.514 158.268C102.329 158.268 102.206 158.268 102.083 158.268C101.96 158.207 101.836 158.145 101.713 158.083C101.59 157.96 101.528 157.837 101.467 157.714C101.344 157.529 101.344 157.282 101.405 157.098C101.467 156.913 101.528 156.728 101.652 156.605C101.775 156.42 101.96 156.297 102.145 156.173C102.329 156.05 102.576 155.927 102.822 155.804L103.253 155.619L103.192 155.496C103.13 155.434 103.13 155.311 103.007 155.249C102.945 155.188 102.884 155.126 102.761 155.064C102.637 155.003 102.576 155.003 102.453 155.003C102.329 155.003 102.206 155.064 102.083 155.064C101.96 155.126 101.836 155.188 101.775 155.249C101.713 155.311 101.652 155.373 101.59 155.434C101.528 155.496 101.467 155.557 101.467 155.619C101.405 155.681 101.405 155.742 101.344 155.804L100.789 155.619ZM103.13 156.112C103.007 156.173 102.822 156.235 102.699 156.358C102.576 156.42 102.453 156.543 102.329 156.605C102.206 156.666 102.144 156.79 102.083 156.913C102.021 157.036 102.021 157.159 102.083 157.282C102.144 157.467 102.268 157.59 102.453 157.59C102.637 157.59 102.822 157.59 103.007 157.467C103.192 157.406 103.315 157.282 103.377 157.221C103.438 157.159 103.562 156.974 103.562 156.851C103.623 156.728 103.623 156.605 103.562 156.482C103.562 156.358 103.5 156.235 103.438 156.112L103.377 155.927L103.13 156.112Z" fill="#FFFDFD"/>
<path d="M103.25 151.676L103.866 151.368L106.392 156.482L105.776 156.79L103.25 151.676Z" fill="#FFFDFD"/>
<path d="M104.976 151.737C104.914 151.614 104.914 151.491 104.914 151.368C104.976 151.245 105.037 151.121 105.161 151.06C105.284 150.998 105.407 150.998 105.53 150.998C105.653 151.06 105.777 151.121 105.838 151.245C105.9 151.368 105.9 151.491 105.9 151.614C105.838 151.737 105.777 151.861 105.653 151.922C105.53 151.984 105.407 151.984 105.284 151.984C105.161 151.984 105.037 151.861 104.976 151.737ZM105.777 152.785L106.393 152.477L108.118 155.619L107.502 155.927L105.777 152.785Z" fill="#FFFDFD"/>
<path d="M112.186 153.093L111.632 153.462L111.385 153.031C111.385 153.278 111.324 153.462 111.139 153.709C111.016 153.894 110.831 154.078 110.646 154.202C110.399 154.325 110.153 154.448 109.907 154.448C109.66 154.51 109.414 154.448 109.229 154.386C109.044 154.325 108.798 154.202 108.613 154.078C108.428 153.955 108.243 153.77 108.12 153.524C107.997 153.278 107.873 153.093 107.812 152.846C107.75 152.6 107.75 152.353 107.812 152.169C107.873 151.922 107.935 151.737 108.058 151.552C108.182 151.368 108.366 151.183 108.613 151.06C108.859 150.936 109.044 150.813 109.291 150.813C109.537 150.813 109.783 150.813 109.968 150.936L108.551 148.718L109.106 148.349L112.186 153.093ZM110.338 153.647C110.461 153.524 110.584 153.462 110.708 153.339C110.769 153.216 110.831 153.093 110.892 152.908C110.892 152.785 110.892 152.6 110.892 152.477C110.831 152.292 110.769 152.169 110.708 151.984C110.584 151.86 110.523 151.676 110.399 151.614C110.276 151.491 110.153 151.429 109.968 151.429C109.845 151.368 109.66 151.368 109.537 151.429C109.352 151.429 109.229 151.491 109.044 151.614C108.921 151.737 108.798 151.799 108.674 151.984C108.613 152.107 108.551 152.23 108.49 152.415C108.49 152.538 108.49 152.723 108.49 152.846C108.551 153.031 108.613 153.154 108.674 153.339C108.798 153.462 108.859 153.647 108.982 153.709C109.106 153.832 109.229 153.894 109.414 153.894C109.537 153.955 109.722 153.955 109.845 153.894C110.03 153.77 110.153 153.709 110.338 153.647Z" fill="#FFFDFD"/>
<path d="M111.324 149.888C111.386 149.642 111.447 149.395 111.632 149.149C111.755 148.902 111.94 148.718 112.187 148.594C112.372 148.471 112.618 148.348 112.803 148.286C112.988 148.225 113.173 148.225 113.357 148.225C113.542 148.225 113.665 148.286 113.789 148.348C113.912 148.409 114.035 148.533 114.097 148.656L115.206 150.135C115.267 150.258 115.329 150.319 115.391 150.381C115.452 150.443 115.514 150.566 115.575 150.627L115.082 150.997C114.959 150.874 114.836 150.689 114.713 150.566C114.713 150.812 114.651 151.059 114.59 151.305C114.466 151.49 114.343 151.675 114.097 151.86C113.973 151.983 113.85 152.045 113.665 152.106C113.481 152.168 113.357 152.168 113.234 152.168C113.111 152.168 112.926 152.106 112.803 152.044C112.68 151.983 112.556 151.86 112.433 151.736C112.31 151.552 112.248 151.367 112.187 151.182C112.187 150.997 112.187 150.812 112.31 150.627C112.372 150.443 112.495 150.258 112.68 150.073C112.864 149.888 113.049 149.703 113.234 149.58L113.604 149.272L113.542 149.149C113.481 149.087 113.419 149.026 113.357 148.964C113.296 148.902 113.173 148.902 113.111 148.841C113.049 148.779 112.926 148.841 112.803 148.841C112.68 148.841 112.556 148.902 112.433 149.026C112.31 149.087 112.248 149.21 112.187 149.272C112.125 149.334 112.064 149.457 112.002 149.518C111.94 149.58 111.94 149.703 111.879 149.765C111.879 149.826 111.817 149.95 111.817 150.011L111.324 149.888ZM113.727 149.888C113.604 150.011 113.481 150.073 113.357 150.196C113.234 150.319 113.111 150.443 113.049 150.566C112.988 150.689 112.926 150.812 112.926 150.936C112.926 151.059 112.926 151.182 113.049 151.305C113.173 151.49 113.296 151.552 113.481 151.552C113.665 151.552 113.85 151.49 114.035 151.305C114.158 151.182 114.282 151.059 114.343 150.936C114.405 150.812 114.466 150.689 114.466 150.566C114.466 150.443 114.466 150.319 114.405 150.196C114.343 150.073 114.282 149.95 114.22 149.888L114.097 149.703L113.727 149.888Z" fill="#FFFDFD"/>
<path d="M116.009 146.437L115.27 147.053L116.317 148.286C116.379 148.347 116.44 148.409 116.502 148.532C116.564 148.594 116.625 148.655 116.687 148.717C116.749 148.778 116.81 148.778 116.933 148.778C117.057 148.778 117.118 148.717 117.18 148.655C117.241 148.594 117.303 148.532 117.365 148.47C117.426 148.409 117.488 148.347 117.488 148.286L117.858 148.778C117.796 148.84 117.734 148.963 117.673 149.025C117.611 149.148 117.488 149.21 117.488 149.21C117.303 149.395 117.118 149.456 116.933 149.518C116.749 149.579 116.625 149.579 116.502 149.518C116.379 149.456 116.256 149.395 116.132 149.271C116.009 149.148 115.948 149.086 115.824 148.963L114.654 147.546L114.038 148.039L113.668 147.608L114.284 147.115L113.668 146.376L114.161 145.944L114.777 146.684L115.516 146.068L116.009 146.437Z" fill="#FFFDFD"/>
<path d="M117.364 146.87C117.179 146.685 117.056 146.5 116.994 146.254C116.933 146.007 116.871 145.761 116.871 145.576C116.871 145.329 116.933 145.083 117.056 144.898C117.179 144.652 117.302 144.467 117.487 144.282C117.672 144.097 117.918 143.974 118.103 143.851C118.35 143.789 118.596 143.728 118.843 143.728C119.089 143.728 119.336 143.789 119.52 143.851C119.767 143.974 119.952 144.097 120.136 144.282C120.321 144.467 120.445 144.652 120.506 144.898C120.568 145.145 120.629 145.391 120.629 145.576C120.629 145.822 120.568 146.069 120.445 146.254C120.321 146.5 120.198 146.685 120.013 146.87C119.828 147.055 119.582 147.178 119.397 147.301C119.151 147.363 118.904 147.424 118.658 147.424C118.411 147.424 118.165 147.363 117.98 147.301C117.734 147.178 117.549 147.055 117.364 146.87ZM117.857 146.377C117.98 146.5 118.103 146.623 118.288 146.685C118.473 146.746 118.596 146.808 118.719 146.808C118.843 146.808 119.027 146.808 119.151 146.746C119.274 146.685 119.459 146.623 119.582 146.5C119.705 146.377 119.828 146.254 119.89 146.069C119.952 145.884 119.952 145.761 119.952 145.637C119.952 145.514 119.89 145.329 119.828 145.206C119.767 145.083 119.644 144.898 119.52 144.775C119.397 144.652 119.274 144.528 119.089 144.467C118.966 144.405 118.781 144.344 118.658 144.344C118.535 144.344 118.35 144.344 118.227 144.405C118.103 144.467 117.918 144.528 117.795 144.652C117.672 144.775 117.549 144.898 117.487 145.083C117.426 145.268 117.426 145.391 117.426 145.514C117.426 145.637 117.487 145.822 117.549 145.946C117.61 146.069 117.734 146.254 117.857 146.377Z" fill="#FFFDFD"/>
<path d="M119.398 142.371L119.83 141.878L120.261 142.248C120.199 142.125 120.199 142.063 120.199 141.94C120.199 141.817 120.199 141.755 120.199 141.632C120.199 141.509 120.261 141.447 120.323 141.324C120.384 141.201 120.446 141.139 120.507 141.016C120.569 140.954 120.631 140.893 120.754 140.831L121.247 141.324C121.185 141.324 121.124 141.386 121.124 141.447C121.062 141.509 121.062 141.509 121 141.57C120.754 141.817 120.692 142.063 120.692 142.31C120.692 142.556 120.877 142.803 121.124 143.111L122.417 144.343L121.986 144.836L119.398 142.371Z" fill="#FFFDFD"/>
</g>
<defs>
<filter id="filter0_d" x="0.566406" y="0" width="158.312" height="187.885" filterUnits="userSpaceOnUse" color-interpolation-filters="sRGB">
<feFlood flood-opacity="0" result="BackgroundImageFix"/>
<feColorMatrix in="SourceAlpha" type="matrix" values="0 0 0 0 0 0 0 0 0 0 0 0 0 0 0 0 0 0 127 0"/>
<feOffset dy="4"/>
<feGaussianBlur stdDeviation="6"/>
<feColorMatrix type="matrix" values="0 0 0 0 0 0 0 0 0 0.482353 0 0 0 0 1 0 0 0 0.2 0"/>
<feBlend mode="normal" in2="BackgroundImageFix" result="effect1_dropShadow"/>
<feBlend mode="normal" in="SourceGraphic" in2="effect1_dropShadow" result="shape"/>
</filter>
<filter id="filter1_ii" x="12.5664" y="37.5732" width="134.312" height="134.312" filterUnits="userSpaceOnUse" color-interpolation-filters="sRGB">
<feFlood flood-opacity="0" result="BackgroundImageFix"/>
<feBlend mode="normal" in="SourceGraphic" in2="BackgroundImageFix" result="shape"/>
<feColorMatrix in="SourceAlpha" type="matrix" values="0 0 0 0 0 0 0 0 0 0 0 0 0 0 0 0 0 0 127 0" result="hardAlpha"/>
<feOffset/>
<feGaussianBlur stdDeviation="4"/>
<feComposite in2="hardAlpha" operator="arithmetic" k2="-1" k3="1"/>
<feColorMatrix type="matrix" values="0 0 0 0 0.9875 0 0 0 0 0.722843 0 0 0 0 0.386771 0 0 0 1 0"/>
<feBlend mode="normal" in2="shape" result="effect1_innerShadow"/>
<feColorMatrix in="SourceAlpha" type="matrix" values="0 0 0 0 0 0 0 0 0 0 0 0 0 0 0 0 0 0 127 0" result="hardAlpha"/>
<feOffset/>
<feGaussianBlur stdDeviation="6"/>
<feComposite in2="hardAlpha" operator="arithmetic" k2="-1" k3="1"/>
<feColorMatrix type="matrix" values="0 0 0 0 0 0 0 0 0 0 0 0 0 0 0 0 0 0 0.2 0"/>
<feBlend mode="normal" in2="effect1_innerShadow" result="effect2_innerShadow"/>
</filter>
<filter id="filter2_i" x="48.9141" y="73.9238" width="61.6109" height="61.6109" filterUnits="userSpaceOnUse" color-interpolation-filters="sRGB">
<feFlood flood-opacity="0" result="BackgroundImageFix"/>
<feBlend mode="normal" in="SourceGraphic" in2="BackgroundImageFix" result="shape"/>
<feColorMatrix in="SourceAlpha" type="matrix" values="0 0 0 0 0 0 0 0 0 0 0 0 0 0 0 0 0 0 127 0" result="hardAlpha"/>
<feOffset/>
<feGaussianBlur stdDeviation="6"/>
<feComposite in2="hardAlpha" operator="arithmetic" k2="-1" k3="1"/>
<feColorMatrix type="matrix" values="0 0 0 0 0.34902 0 0 0 0 0.360784 0 0 0 0 0.364706 0 0 0 1 0"/>
<feBlend mode="normal" in2="shape" result="effect1_innerShadow"/>
</filter>
<linearGradient id="paint0_linear" x1="44.4655" y1="42.1902" x2="211.476" y2="209.3" gradientUnits="userSpaceOnUse">
<stop stop-color="white"/>
<stop offset="1" stop-color="#969696" stop-opacity="0"/>
</linearGradient>
<linearGradient id="paint1_linear" x1="120.088" y1="138.371" x2="36.4697" y2="73.014" gradientUnits="userSpaceOnUse">
<stop stop-color="white"/>
<stop offset="1" stop-color="#383838" stop-opacity="0"/>
</linearGradient>
<linearGradient id="paint2_linear" x1="132.51" y1="148.721" x2="23.1632" y2="63.2544" gradientUnits="userSpaceOnUse">
<stop stop-color="white"/>
<stop offset="1" stop-color="#383838" stop-opacity="0"/>
</linearGradient>
</defs>
</svg>
