<svg width="20" height="20" viewBox="0 0 20 20" fill="none" xmlns="http://www.w3.org/2000/svg">
<path d="M10.8675 2.55013C10.9805 2.59798 11.0769 2.67801 11.1447 2.78026C11.2124 2.88251 11.2486 3.00245 11.2487 3.12513V16.8751C11.2487 16.9982 11.2124 17.1185 11.1442 17.221C11.0761 17.3235 10.9792 17.4036 10.8658 17.4513C10.7523 17.4989 10.6273 17.512 10.5064 17.4889C10.3855 17.4658 10.2741 17.4075 10.1863 17.3214L6.52875 13.7276H4.375C3.87772 13.7276 3.40081 13.5301 3.04917 13.1785C2.69754 12.8268 2.5 12.3499 2.5 11.8526V8.11513C2.5 7.61785 2.69754 7.14094 3.04917 6.78931C3.40081 6.43767 3.87772 6.24013 4.375 6.24013H6.53L10.1888 2.67763C10.2767 2.59183 10.388 2.53385 10.5087 2.51095C10.6294 2.48805 10.7542 2.50124 10.8675 2.54888V2.55013ZM9.99875 4.60638L7.22 7.31388C7.10329 7.42767 6.94675 7.49136 6.78375 7.49138H4.375C4.20924 7.49138 4.05027 7.55723 3.93306 7.67444C3.81585 7.79165 3.75 7.95062 3.75 8.11638V11.8526C3.75 12.0184 3.81585 12.1774 3.93306 12.2946C4.05027 12.4118 4.20924 12.4776 4.375 12.4776H6.78375C6.94736 12.4777 7.10443 12.5418 7.22125 12.6564L10 15.3851V4.60638H9.99875Z" fill="#666666"/>
<path d="M12.637 6.48616C12.6881 6.42185 12.7514 6.36825 12.8232 6.32841C12.895 6.28858 12.974 6.2633 13.0556 6.25401C13.1373 6.24472 13.2199 6.25161 13.2988 6.27429C13.3778 6.29696 13.4515 6.33498 13.5157 6.38616H13.517L13.5182 6.38741L13.5207 6.38991L13.5282 6.39491L13.547 6.41116L13.6032 6.46116C13.8671 6.71451 14.097 7.00107 14.287 7.31366C14.652 7.91366 15.0045 8.80491 15.0045 9.99866C15.0045 11.1912 14.652 12.0837 14.287 12.6837C14.1416 12.9253 13.9724 13.1518 13.782 13.3599C13.7022 13.4464 13.6174 13.5282 13.5282 13.6049L13.5182 13.6137C13.5182 13.6137 12.9595 13.9174 12.6382 13.5162C12.5355 13.3873 12.4878 13.223 12.5056 13.0591C12.5234 12.8952 12.6052 12.745 12.7332 12.6412L12.7345 12.6387V12.6399L12.7357 12.6387L12.7582 12.6187C12.9357 12.4441 13.0907 12.248 13.2195 12.0349C13.4807 11.6037 13.7545 10.9324 13.7545 9.99741C13.7545 9.06366 13.4807 8.39366 13.2195 7.96366C13.0906 7.75143 12.9356 7.55617 12.7582 7.38241C12.7509 7.37562 12.7434 7.36895 12.7357 7.36241H12.737C12.6078 7.25926 12.5248 7.10915 12.5061 6.94493C12.4873 6.78071 12.5344 6.61576 12.637 6.48616Z" fill="#666666"/>
<path d="M14.7657 3.88569C14.7017 3.83274 14.6278 3.79307 14.5483 3.769C14.4688 3.74493 14.3853 3.73695 14.3027 3.74552C14.2201 3.75409 14.14 3.77904 14.0671 3.81892C13.9943 3.85879 13.9301 3.91278 13.8784 3.97774C13.8266 4.04271 13.7883 4.11733 13.7657 4.19726C13.7432 4.27718 13.7367 4.36081 13.7468 4.44325C13.7569 4.52569 13.7834 4.60529 13.8246 4.67739C13.8658 4.74949 13.921 4.81266 13.9869 4.86319L14.0007 4.87569L14.0657 4.93194C14.1232 4.98444 14.2107 5.06569 14.3157 5.17569C14.5282 5.39694 14.8157 5.72944 15.1044 6.16819C15.6794 7.04444 16.2532 8.33444 16.2532 10.0044C16.2568 11.3669 15.8571 12.7 15.1044 13.8357C14.8169 14.2732 14.5294 14.6032 14.3169 14.8232C14.2164 14.9278 14.1113 15.0279 14.0019 15.1232L13.9869 15.1357C13.8647 15.2412 13.788 15.3898 13.7729 15.5506C13.7578 15.7113 13.8055 15.8716 13.906 15.998C14.0065 16.1243 14.152 16.2069 14.312 16.2284C14.472 16.2498 14.6342 16.2086 14.7644 16.1132L14.8057 16.0794L14.9007 15.9982C15.3742 15.5581 15.7935 15.0629 16.1494 14.5232C17.0361 13.1833 17.5071 11.6112 17.5032 10.0044C17.5063 8.39664 17.0354 6.82358 16.1494 5.48194C15.8752 5.06333 15.5631 4.67084 15.2169 4.30944C15.0862 4.17371 14.9494 4.04399 14.8069 3.92069L14.7794 3.89694L14.7707 3.88944L14.7669 3.88694L14.7657 3.88569Z" fill="#666666"/>
</svg>
