<svg width="55" height="55" viewBox="0 0 55 55" fill="none" xmlns="http://www.w3.org/2000/svg">
<path d="M55 27.5C55 34.7935 52.1027 41.7882 46.9454 46.9454C41.7882 52.1027 34.7935 55 27.5 55C20.2065 55 13.2118 52.1027 8.05456 46.9454C2.89731 41.7882 0 34.7935 0 27.5C0 20.2065 2.89731 13.2118 8.05456 8.05456C13.2118 2.89731 20.2065 0 27.5 0C34.7935 0 41.7882 2.89731 46.9454 8.05456C52.1027 13.2118 55 20.2065 55 27.5ZM41.3531 17.0844C41.1076 16.8397 40.8152 16.647 40.4935 16.5179C40.1718 16.3888 39.8274 16.3259 39.4808 16.333C39.1342 16.34 38.7926 16.4169 38.4765 16.559C38.1603 16.7011 37.876 16.9055 37.6406 17.16L25.7022 32.3709L18.5075 25.1728C18.0188 24.7174 17.3724 24.4695 16.7045 24.4813C16.0365 24.4931 15.3993 24.7636 14.9269 25.236C14.4546 25.7083 14.184 26.3456 14.1722 27.0135C14.1604 27.6814 14.4083 28.3278 14.8637 28.8166L23.9594 37.9156C24.2044 38.1602 24.4962 38.3529 24.8173 38.4823C25.1385 38.6117 25.4823 38.6751 25.8285 38.6686C26.1747 38.6622 26.516 38.5862 26.8321 38.445C27.1482 38.3038 27.4326 38.1004 27.6684 37.8469L41.3909 20.6938C41.8588 20.2073 42.1172 19.5569 42.1108 18.882C42.1043 18.2072 41.8336 17.5618 41.3566 17.0844H41.3531Z" fill="#42BF2E"/>
</svg>
