<svg width="218" height="266" viewBox="0 0 218 266" fill="none" xmlns="http://www.w3.org/2000/svg">
<path d="M87.0098 29.7983C85.9084 29.7983 85.0273 30.669 85.0273 31.7573V50.0412C85.0273 51.1295 85.9084 52.0002 87.0098 52.0002H132.385C133.487 52.0002 134.368 51.1295 134.368 50.0412V31.7573C134.368 30.669 133.487 29.7983 132.385 29.7983H87.0098ZM130.403 44.1642C130.403 45.2526 129.522 46.1232 128.42 46.1232H91.1949C90.0935 46.1232 89.2125 45.2526 89.2125 44.1642V35.893C89.2125 34.8046 90.0935 33.934 91.1949 33.934H128.42C129.522 33.934 130.403 34.8046 130.403 35.893V44.1642Z" fill="#FFE287"/>
<path d="M141.045 0L115.918 37.8775H128.37L156.388 0H141.045Z" fill="#0FA711"/>
<path d="M128.377 0L103.473 37.8775H115.925L141.052 0H128.377Z" fill="white"/>
<path d="M115.924 0L91.0195 37.8775H103.472L128.376 0H115.924Z" fill="#FF7600"/>
<path d="M91.0177 37.8775H103.47L78.343 0H63L91.0177 37.8775Z" fill="#FF7600"/>
<path d="M103.471 37.8775H115.923L91.0184 0H78.3438L103.471 37.8775Z" fill="white"/>
<path opacity="0.5" d="M111.695 6.27979L105.469 15.6931L120.145 37.8818H128.372L130.596 34.744L111.695 6.27979Z" fill="#3E4347"/>
<path d="M115.924 37.8775H128.376L103.472 0H91.0195L115.924 37.8775Z" fill="#0FA711"/>
<g filter="url(#filter0_ii)">
<path d="M218 157C218 217.199 169.199 266 109 266C48.801 266 0 217.199 0 157C0 96.801 48.801 48 109 48C169.199 48 218 96.801 218 157Z" fill="#FDD24F" fill-opacity="0.8"/>
</g>
<path d="M214.5 157C214.5 215.266 167.266 262.5 109 262.5C50.734 262.5 3.5 215.266 3.5 157C3.5 98.734 50.734 51.5 109 51.5C167.266 51.5 214.5 98.734 214.5 157Z" stroke="#DFDFDF" stroke-width="7"/>
<path d="M214.5 157C214.5 215.266 167.266 262.5 109 262.5C50.734 262.5 3.5 215.266 3.5 157C3.5 98.734 50.734 51.5 109 51.5C167.266 51.5 214.5 98.734 214.5 157Z" stroke="url(#paint0_linear)" stroke-width="7"/>
<path d="M196 157C196 205.049 157.049 244 109 244C60.9512 244 22 205.049 22 157C22 108.951 60.9512 70 109 70C157.049 70 196 108.951 196 157Z" fill="#EEB42F"/>
<path fill-rule="evenodd" clip-rule="evenodd" d="M109 85C69.2355 85 37 117.235 37 157C37 196.764 69.2355 229 109 229C148.764 229 181 196.764 181 157C181 117.235 148.764 85 109 85ZM7 157C7 100.667 52.667 55 109 55C165.333 55 211 100.667 211 157C211 213.333 165.333 259 109 259C52.667 259 7 213.333 7 157Z" fill="#F9C54C"/>
<path d="M109 80C66.5591 80 32 114.357 32 157C32 199.643 66.357 234 109 234C151.643 234 186 199.643 186 157C186 114.357 151.441 80 109 80ZM93.6404 87.4777C93.8425 87.4777 93.8425 87.4777 93.6404 87.4777C95.0551 90.5092 97.6824 92.3281 100.31 91.7218C102.937 91.3176 105.564 89.4987 105.766 85.8609C106.171 85.8609 106.575 85.8609 106.979 85.8609C106.979 96.7743 106.171 108.496 104.958 121.228C104.756 122.441 104.756 123.654 104.756 124.866C104.352 123.856 103.948 122.643 103.543 121.228C99.2992 110.517 95.4593 98.9974 92.4278 87.6798C93.0341 87.6798 93.2362 87.4777 93.6404 87.4777ZM76.0577 93.7428C78.2808 96.3701 81.1102 97.3806 83.5354 96.168C86.3648 94.9554 87.9816 92.126 87.3753 89.0945C87.7795 88.8924 88.1837 88.8924 88.5879 88.6903C91.2152 99.1995 93.8425 110.719 95.8635 123.451C96.0656 124.866 96.2677 125.877 96.6719 127.089C96.0656 126.079 95.4593 125.068 94.4488 123.856C87.5774 114.559 80.9081 104.454 75.0472 94.3491C75.2493 94.147 75.6535 93.9449 76.0577 93.7428ZM60.4961 104.656C63.3255 106.475 66.357 106.677 68.378 105.06C69.9948 103.848 70.8032 102.029 70.8032 100.21C70.8032 99.1995 70.6011 98.189 69.9948 97.3806C70.399 97.1785 70.6011 96.9764 71.0052 96.7743C76.4619 106.071 81.7165 116.782 87.1732 128.302C87.7795 129.514 88.3858 130.525 88.79 131.535C87.9816 130.727 86.9711 129.919 85.9606 129.11C77.0682 121.633 67.9738 113.549 59.6877 105.465C59.8898 105.06 60.294 104.858 60.4961 104.656ZM48.3701 119.005C48.5722 119.005 48.5722 119.005 48.3701 119.005C51.6037 120.016 54.6352 119.612 56.0499 117.388C56.4541 116.782 57.4646 115.165 57.4646 113.549C57.4646 112.538 57.0604 110.921 55.8478 109.507C56.0499 109.304 56.4541 108.9 56.6562 108.698C64.336 116.378 72.2178 125.27 80.5039 134.971C81.3123 135.982 82.1207 136.79 82.9291 137.598C81.9186 136.992 80.706 136.588 79.4934 135.982C68.9843 131.131 58.0709 125.675 47.7638 120.016C47.9659 119.612 48.168 119.409 48.3701 119.005ZM40.4882 135.982C40.4882 135.982 40.4882 135.78 40.4882 135.982C43.9239 136.184 46.5512 134.971 47.5617 132.344C47.7638 131.738 47.9659 130.929 47.9659 129.717C47.9659 128.504 47.5617 126.281 45.1365 124.664C45.3386 124.26 45.5407 124.058 45.7428 123.654C55.0394 129.11 65.1444 135.577 75.4514 142.853C76.4619 143.661 77.6745 144.268 78.4829 144.874C77.4724 144.672 76.0577 144.47 74.643 144.066C63.3255 142.449 51.4016 140.024 39.8819 136.992C40.2861 136.79 40.4882 136.386 40.4882 135.982ZM37.2546 154.373C37.2546 154.373 37.2546 154.171 37.2546 154.373C40.4882 153.766 42.9134 151.745 43.1155 149.118C43.1155 148.916 43.1155 148.714 43.1155 148.31C43.1155 145.885 41.9029 143.257 38.8714 142.247C38.8714 141.843 39.0735 141.438 39.0735 141.034C49.5827 143.864 60.9003 147.703 72.8242 151.948C74.0368 152.352 75.2493 152.756 76.2598 152.958C75.0472 152.958 73.8346 153.16 72.42 153.16C61.1024 154.575 48.7743 155.181 37.0525 155.383C37.2546 155.181 37.2546 154.777 37.2546 154.373ZM38.8714 173.168C38.8714 172.966 38.8714 172.966 38.8714 173.168C41.4987 171.753 43.1155 169.732 43.1155 167.307C43.1155 167.105 43.1155 166.701 43.1155 166.499C42.7113 163.871 40.8924 161.244 37.2546 161.042C37.2546 160.638 37.2546 160.234 37.2546 159.829C48.168 159.829 59.8898 160.436 72.622 161.446C74.0367 161.648 75.2493 161.648 76.2598 161.648C75.2493 162.053 74.0367 162.457 72.622 162.861C61.9108 167.105 50.3911 170.945 39.0735 174.178C39.0735 173.976 39.0735 173.572 38.8714 173.168ZM45.3386 190.751C45.3386 190.751 45.3386 190.549 45.3386 190.751C47.1575 189.134 48.168 187.315 48.168 185.294C48.168 184.486 47.9659 183.879 47.7638 183.273C46.7533 180.848 44.3281 178.827 40.6903 179.635C40.4882 179.231 40.4882 178.827 40.2861 178.423C50.7953 175.593 62.315 173.168 74.8451 170.945C76.2598 170.743 77.2703 170.339 78.4829 170.136C77.4724 170.743 76.4619 171.349 75.2493 172.36C65.9528 179.231 55.8478 185.9 45.7428 191.963C45.7428 191.357 45.5407 191.155 45.3386 190.751ZM56.252 206.11C57.2625 204.493 57.6667 203.079 57.6667 201.462C57.6667 200.249 57.2625 199.037 56.4541 198.228C54.8373 196.207 51.8058 194.793 48.5722 196.409C48.3701 196.005 48.168 195.803 47.9659 195.399C57.2625 189.942 67.9738 184.486 79.4934 179.029C80.706 178.423 81.7165 177.816 82.727 177.412C81.9186 178.22 81.1102 179.231 80.3018 180.241C73.2283 189.336 65.1444 198.43 57.0604 206.919C56.8583 206.717 56.4541 206.514 56.252 206.11ZM70.6011 218.034C70.8032 216.822 71.0052 215.811 71.0052 214.801C71.0052 212.78 70.1969 211.163 68.7822 210.354C66.7612 208.94 63.5276 208.131 60.9003 210.759C60.4961 210.556 60.294 210.152 60.0919 209.95C67.7717 202.27 76.4619 194.186 86.1627 186.102C87.1732 185.294 87.9816 184.486 88.79 183.677C88.1837 184.688 87.7795 185.9 87.1732 187.113C82.727 197.622 77.4724 208.535 71.6115 218.64C71.4095 218.438 71.0052 218.236 70.6011 218.034ZM87.5774 225.916C87.7795 222.48 86.3648 219.853 83.9396 218.843C81.5144 218.034 78.2808 218.236 76.2598 221.268C75.8556 221.066 75.6535 220.864 75.2493 220.661C80.706 211.365 86.9711 201.26 94.2467 190.751C95.0551 189.538 95.6614 188.528 96.2677 187.719C96.0656 188.73 95.8635 190.144 95.4593 191.559C93.8425 202.877 91.4173 214.801 88.5879 226.32C88.3858 226.118 87.9816 226.118 87.5774 225.916ZM105.969 228.948C105.362 225.714 103.341 223.289 100.714 223.087C98.0866 222.885 95.0551 223.895 94.0446 227.331C93.6404 227.331 93.2362 227.129 92.832 227.129C95.6614 216.619 99.2992 205.302 103.543 193.378C103.948 192.165 104.352 190.953 104.554 189.942C104.554 191.155 104.756 192.367 104.756 193.782C106.171 205.1 106.979 217.428 107.181 229.15C106.777 229.15 106.373 229.15 105.969 228.948ZM178.927 142.449C176.299 143.864 174.48 145.885 174.48 148.31C174.48 148.512 174.48 148.916 174.48 149.118C174.885 151.745 176.703 154.373 180.341 154.575C180.341 154.979 180.341 155.383 180.341 155.787C169.63 155.787 157.706 154.979 144.974 153.766C143.559 153.564 142.346 153.564 141.336 153.564C142.346 153.16 143.559 152.756 144.974 152.352C155.685 148.108 167.205 144.268 178.522 141.236C178.724 141.64 178.724 142.045 178.927 142.449ZM172.661 124.866C172.661 124.866 172.661 125.068 172.661 124.866C170.843 126.483 169.832 128.302 169.832 130.323C169.832 131.131 170.034 131.738 170.236 132.344C171.247 134.769 173.672 136.79 177.31 136.184C177.512 136.588 177.512 136.992 177.714 137.396C167.205 140.024 155.483 142.449 142.953 144.672C141.538 144.874 140.528 145.076 139.315 145.48C140.325 144.874 141.336 144.268 142.549 143.459C151.845 136.386 161.95 129.717 172.055 123.856C172.257 124.26 172.459 124.462 172.661 124.866ZM162.152 109.709C161.142 111.325 160.535 112.942 160.535 114.357C160.535 115.57 160.94 116.782 161.748 117.591C163.365 119.612 166.194 121.026 169.428 119.409C169.63 119.814 169.832 120.016 170.034 120.42C160.535 125.675 150.026 131.131 138.304 136.184C137.092 136.79 136.081 137.194 135.071 137.801C135.879 136.992 136.688 135.982 137.698 134.971C144.974 126.079 153.058 116.984 161.344 108.698C161.546 109.102 161.95 109.304 162.152 109.709ZM147.601 97.1785C147.601 97.1785 147.803 97.3806 147.601 97.1785C147.399 98.3911 146.995 99.4016 146.995 100.412C146.995 102.231 147.803 103.848 149.218 104.858C151.239 106.273 154.472 107.081 157.1 104.656C157.302 104.858 157.706 105.262 157.908 105.465C150.228 113.144 141.336 121.026 131.433 129.11C130.423 129.919 129.412 130.727 128.806 131.535C129.412 130.525 129.816 129.514 130.423 128.1C135.071 117.591 140.528 106.677 146.388 96.5722C146.995 96.7743 147.197 96.9764 147.601 97.1785ZM130.625 89.2966C130.827 89.2966 130.827 89.2966 130.625 89.2966C130.423 92.7323 131.837 95.3596 134.262 96.3701C136.688 97.3806 139.921 97.1785 141.942 93.9449C142.346 94.147 142.549 94.3491 142.953 94.5512C137.496 103.848 131.029 113.751 123.551 124.26C122.743 125.27 122.136 126.281 121.53 127.291C121.732 126.281 122.136 124.866 122.339 123.451C124.157 112.134 126.583 100.21 129.412 88.8924C130.018 88.8924 130.22 89.0945 130.625 89.2966ZM112.436 85.8609C112.436 85.8609 112.638 85.8609 112.436 85.8609C113.042 89.0945 115.063 91.5197 117.69 91.7218C120.318 91.9239 123.349 90.9134 124.562 87.4777C124.966 87.4777 125.37 87.6798 125.774 87.6798C122.945 98.189 119.105 109.507 114.659 121.228C114.255 122.441 113.85 123.654 113.446 124.664C113.446 123.451 113.244 122.239 113.244 120.824C112.032 109.507 111.223 97.1785 111.223 85.4567C111.627 85.8609 112.032 85.8609 112.436 85.8609ZM124.36 227.331C122.743 224.299 120.318 222.682 117.69 223.087C115.063 223.491 112.436 225.31 112.234 228.948C111.829 228.948 111.425 228.948 111.021 228.948C111.021 218.034 111.627 206.312 112.84 193.58C113.042 192.367 113.042 191.357 113.042 190.346C113.042 190.144 113.042 190.144 113.042 189.942C113.446 190.953 113.85 192.165 114.255 193.58C118.499 204.291 122.339 215.811 125.572 227.129C125.168 227.331 124.764 227.331 124.36 227.331ZM141.74 221.066C141.74 221.066 141.538 221.066 141.74 221.066C139.517 218.438 136.688 217.428 134.262 218.64C131.433 219.853 129.816 222.682 130.625 225.714C130.22 225.916 129.816 225.916 129.412 226.118C126.583 215.609 124.157 204.089 122.136 191.559C121.934 190.144 121.732 189.134 121.328 187.921C121.934 188.932 122.541 189.942 123.551 191.155C130.423 200.451 137.092 210.556 142.953 220.661C142.346 220.864 142.144 220.864 141.74 221.066ZM157.302 210.152C157.302 210.354 157.302 210.354 157.302 210.152C154.472 208.333 151.441 208.131 149.42 209.748C147.803 210.961 146.995 212.78 146.995 214.598C146.995 215.609 147.197 216.619 147.803 217.428C147.399 217.63 147.197 217.832 146.793 218.034C141.336 208.738 135.879 198.026 130.625 186.507C130.018 185.294 129.412 184.283 129.008 183.273C129.816 184.081 130.827 184.89 131.837 185.698C140.932 192.772 150.026 200.856 158.312 209.142C157.908 209.748 157.706 209.95 157.302 210.152ZM169.226 196.005C169.226 196.005 169.226 196.207 169.226 196.005C165.992 194.995 162.961 195.399 161.546 197.622C161.142 198.228 160.131 199.845 160.131 201.462C160.131 202.472 160.535 204.089 161.748 205.504C161.546 205.706 161.142 206.11 160.94 206.312C153.26 198.633 145.378 189.74 137.294 180.039C136.486 179.029 135.677 178.018 134.869 177.412C135.879 178.018 137.092 178.423 138.304 179.029C148.814 183.677 159.727 189.134 170.034 194.793C169.63 195.399 169.428 195.601 169.226 196.005ZM177.108 179.029C177.108 179.231 177.108 179.231 177.108 179.029C173.672 178.827 171.045 180.039 170.034 182.667C169.832 183.273 169.63 184.081 169.63 185.294C169.63 186.507 170.034 188.73 172.459 190.346C172.257 190.751 172.055 190.953 171.853 191.357C162.556 185.9 152.451 179.433 142.144 172.157C141.134 171.349 139.921 170.743 139.113 170.136C140.123 170.339 141.538 170.743 142.953 170.945C154.27 172.562 166.194 174.987 177.512 178.018C177.31 178.423 177.31 178.827 177.108 179.029ZM180.341 160.84C177.108 161.446 174.682 163.265 174.48 165.892C174.48 166.094 174.48 166.297 174.48 166.701C174.48 169.126 175.693 171.753 178.724 172.764C178.724 173.168 178.522 173.572 178.522 173.976C168.013 171.147 156.696 167.509 144.772 163.063C143.559 162.659 142.346 162.255 141.336 162.052C142.549 162.052 143.761 161.85 145.176 161.85C156.493 160.638 168.822 159.829 180.543 159.829C180.543 160.032 180.341 160.436 180.341 160.84Z" fill="#FFE287"/>
<circle cx="109" cy="157" r="77" stroke="url(#paint1_linear)" stroke-width="2"/>
<circle cx="109" cy="157" r="101" stroke="url(#paint2_linear)" stroke-width="2"/>
<g filter="url(#filter1_i)">
<circle cx="109" cy="157" r="50" fill="#FDD24F"/>
</g>
<path fill-rule="evenodd" clip-rule="evenodd" d="M75.6891 149.366C75.0206 150.034 75.0602 151.12 75.6313 151.873C76.8239 153.447 77.5316 155.408 77.5316 157.535C77.5316 159.508 76.9226 161.338 75.8825 162.849C75.3625 163.604 75.3512 164.648 75.9996 165.296C76.6533 165.95 77.7241 165.953 78.2831 165.217C79.9033 163.083 80.8649 160.421 80.8649 157.535C80.8649 154.439 79.7582 151.601 77.9189 149.396C77.3474 148.711 76.3201 148.735 75.6891 149.366ZM81.295 168.247C80.7145 168.958 80.7092 170.006 81.3586 170.655C82.011 171.308 83.0753 171.31 83.6701 170.604C86.646 167.074 88.4393 162.514 88.4393 157.535C88.4393 152.357 86.4998 147.632 83.3076 144.047C82.7062 143.372 81.6671 143.388 81.0276 144.027C80.3661 144.689 80.3871 145.761 80.9979 146.469C83.558 149.439 85.106 153.306 85.106 157.535C85.106 161.598 83.6773 165.326 81.295 168.247ZM87.0569 174.004C86.453 174.696 86.4496 175.746 87.0995 176.396C87.7514 177.048 88.8129 177.05 89.4241 176.36C93.8623 171.348 96.5566 164.756 96.5566 157.535C96.5566 150.12 93.7154 143.369 89.0623 138.31C88.4466 137.641 87.4026 137.652 86.7596 138.295C86.1012 138.954 86.1152 140.02 86.7402 140.711C90.7691 145.159 93.2233 151.061 93.2233 157.535C93.2233 163.839 90.8973 169.599 87.0569 174.004Z" fill="white"/>
<mask id="mask0" mask-type="alpha" maskUnits="userSpaceOnUse" x="59" y="107" width="100" height="100">
<circle cx="109" cy="157" r="50" fill="#020A0E"/>
</mask>
<g mask="url(#mask0)">
<path fill-rule="evenodd" clip-rule="evenodd" d="M129.609 178.434C130.744 178.065 131.757 177.369 132.551 176.399L139.604 201.405H174.614V110.334H133.542V111.763V138.14C130.415 136.036 127.253 135.115 124.251 135.15C120.5 135.194 117.141 136.728 114.553 139.047C109.454 143.617 107.049 151.589 110.896 157.866C114.299 163.418 117.254 167.986 119.36 171.167C120.413 172.758 121.254 174.002 121.832 174.85C122.121 175.274 122.345 175.599 122.496 175.818C122.572 175.927 122.63 176.011 122.669 176.067L122.729 176.153C122.747 176.178 122.765 176.203 122.784 176.226C124.568 178.457 127.234 179.205 129.609 178.434ZM125.764 163.903C124.179 162.318 123.286 160.17 123.279 157.929C123.264 156.256 123.745 154.617 124.659 153.217C125.574 151.816 126.882 150.718 128.419 150.058C127.933 149.09 127.134 148.315 126.152 147.859C125.169 147.403 124.061 147.294 123.008 147.548C121.956 147.803 121.02 148.407 120.355 149.261C119.689 150.116 119.333 151.17 119.343 152.253C119.343 152.608 119.202 152.949 118.951 153.2C118.7 153.451 118.36 153.592 118.005 153.592C117.65 153.592 117.309 153.451 117.058 153.2C116.807 152.949 116.666 152.608 116.666 152.253C116.67 150.401 117.36 148.616 118.603 147.242C119.845 145.869 121.552 145.004 123.395 144.814C125.237 144.624 127.085 145.124 128.581 146.216C130.077 147.308 131.116 148.915 131.498 150.727C131.562 151.071 131.493 151.426 131.304 151.72C131.115 152.014 130.82 152.224 130.48 152.307C129.111 152.636 127.909 153.453 127.1 154.605C126.29 155.757 125.928 157.164 126.083 158.564C126.237 159.963 126.897 161.258 127.938 162.206C128.979 163.154 130.331 163.689 131.738 163.712C132.094 163.712 132.434 163.853 132.685 164.104C132.936 164.355 133.077 164.695 133.077 165.05C133.07 165.403 132.927 165.74 132.677 165.989C132.428 166.239 132.091 166.382 131.738 166.389C129.497 166.382 127.349 165.488 125.764 163.903Z" fill="white"/>
</g>
<path d="M51.3008 81.3002L53.8008 79.4002C54.1008 79.2002 54.4008 79.0002 54.8008 78.9002C55.1008 78.8002 55.4008 78.7002 55.7008 78.7002C56.0008 78.7002 56.3008 78.8002 56.6008 78.9002C56.9008 79.0002 57.1008 79.3002 57.4008 79.6002C57.7008 80.0002 57.8008 80.4002 57.8008 80.9002C57.8008 81.3002 57.6008 81.8002 57.3008 82.1002C57.5008 82.0002 57.8008 81.9002 58.0008 81.8002C58.3008 81.8002 58.5008 81.8002 58.8008 81.8002C59.1008 81.9002 59.3008 82.0002 59.5008 82.1002C59.7008 82.3002 59.9008 82.4002 60.1008 82.7002C60.3008 83.0002 60.5008 83.4002 60.5008 83.7002C60.6008 84.0002 60.5008 84.4002 60.4008 84.7002C60.3008 85.0002 60.1008 85.4002 59.9008 85.7002C59.7008 86.0002 59.4008 86.3002 59.0008 86.6002L56.5008 88.4002L51.3008 81.3002ZM54.5008 83.5002L55.8008 82.5002C56.0008 82.4002 56.1008 82.2002 56.3008 82.1002C56.4008 81.9002 56.5008 81.8002 56.6008 81.6002C56.7008 81.4002 56.7008 81.2002 56.6008 81.0002C56.6008 80.8002 56.5008 80.6002 56.3008 80.4002C56.1008 80.1002 55.8008 79.9002 55.5008 79.9002C55.2008 79.8002 54.8008 79.9002 54.4008 80.2002L52.9008 81.3002L54.5008 83.5002ZM57.0008 86.9002L58.4008 85.8002C58.5008 85.7002 58.7008 85.6002 58.9008 85.4002C59.1008 85.2002 59.2008 85.0002 59.3008 84.8002C59.4008 84.6002 59.4008 84.4002 59.4008 84.1002C59.4008 83.9002 59.3008 83.6002 59.1008 83.4002C58.8008 83.0002 58.4008 82.8002 58.0008 82.7002C57.6008 82.6002 57.1008 82.9002 56.6008 83.2002L55.1008 84.3002L57.0008 86.9002Z" fill="white"/>
<path d="M57.5 75.9999L58.5 75.3999L60.9 79.2999C60.9 78.8999 60.9 78.5999 61.1 78.1999C61.3 77.7999 61.6 77.4999 62 77.2999C62.2 77.0999 62.5 76.9999 62.8 76.9999C63.1 76.8999 63.3 76.8999 63.6 76.9999C63.9 77.0999 64.1 77.1999 64.4 77.3999C64.7 77.5999 64.9 77.8999 65.1 78.1999L67.1 81.4999L66.1 82.0999L64.2 79.0999C64.1 78.8999 63.9 78.6999 63.7 78.4999C63.5 78.3999 63.4 78.2999 63.2 78.1999C63 78.1999 62.9 78.1999 62.7 78.1999C62.5 78.1999 62.4 78.2999 62.2 78.3999C62 78.4999 61.8 78.6999 61.7 78.7999C61.6 78.9999 61.5 79.1999 61.4 79.3999C61.4 79.5999 61.4 79.8999 61.4 80.0999C61.5 80.3999 61.6 80.5999 61.8 80.8999L63.4 83.4999L62.4 84.0999L57.5 75.9999Z" fill="white"/>
<path d="M66 76.0002C66.2 75.6002 66.4 75.2002 66.7 74.9002C67 74.6002 67.4 74.3002 67.7 74.1002C68.1 73.9002 68.5 73.8002 68.8 73.7002C69.1 73.7002 69.4 73.7002 69.7 73.7002C70 73.8002 70.2 73.9002 70.4 74.1002C70.6 74.3002 70.8 74.5002 70.9 74.7002L72.3 77.4002C72.4 77.6002 72.5 77.8002 72.6 77.9002C72.7 78.1002 72.8 78.2002 72.9 78.3002L72 78.8002C71.8 78.5002 71.7 78.3002 71.5 78.0002C71.5 78.5002 71.3 78.8002 71.1 79.2002C70.9 79.5002 70.5 79.8002 70.1 80.0002C69.9 80.1002 69.6 80.2002 69.3 80.3002C69 80.4002 68.8 80.3002 68.5 80.3002C68.2 80.3002 68 80.2002 67.8 80.0002C67.6 79.8002 67.4 79.6002 67.3 79.4002C67.1 79.1002 67 78.7002 67.1 78.4002C67.1 78.1002 67.2 77.8002 67.4 77.5002C67.6 77.2002 67.9 76.9002 68.2 76.7002C68.5 76.5002 68.9 76.2002 69.3 76.0002L70 75.6002L69.9 75.4002C69.8 75.3002 69.7 75.1002 69.6 75.0002C69.5 74.9002 69.3 74.8002 69.2 74.8002C69 74.7002 68.9 74.7002 68.7 74.7002C68.5 74.7002 68.3 74.8002 68.1 74.9002C67.9 75.0002 67.7 75.1002 67.6 75.2002C67.5 75.3002 67.4 75.4002 67.3 75.5002C67.2 75.6002 67.1 75.7002 67.1 75.9002C67 76.0002 67 76.1002 66.9 76.3002L66 76.0002ZM70 76.6002C69.8 76.7002 69.5 76.9002 69.3 77.0002C69.1 77.1002 68.9 77.3002 68.7 77.5002C68.5 77.7002 68.4 77.9002 68.4 78.1002C68.3 78.3002 68.4 78.5002 68.5 78.7002C68.7 79.0002 68.9 79.2002 69.2 79.2002C69.5 79.2002 69.8 79.2002 70.2 79.0002C70.5 78.9002 70.7 78.7002 70.8 78.5002C70.9 78.3002 71 78.1002 71.1 77.9002C71.1 77.7002 71.1 77.5002 71.1 77.3002C71.1 77.1002 71 76.9002 70.9 76.7002L70.7 76.4002L70 76.6002Z" fill="white"/>
<path d="M75.2008 72.4C75.0008 72.3 74.8008 72.2 74.6008 72.2C74.4008 72.2 74.1008 72.2 73.9008 72.3C73.7008 72.4 73.5008 72.6 73.3008 72.7C73.1008 72.8 73.1008 73.1 73.2008 73.3C73.3008 73.5 73.4008 73.6 73.5008 73.6C73.6008 73.7 73.8008 73.7 74.0008 73.7C74.2008 73.7 74.3008 73.7 74.5008 73.6C74.7008 73.6 74.8008 73.5 75.0008 73.5C75.2008 73.5 75.5008 73.4 75.7008 73.4C75.9008 73.4 76.1008 73.4 76.3008 73.5C76.5008 73.6 76.7008 73.7 76.8008 73.8C76.9008 73.9 77.1008 74.1 77.2008 74.4C77.3008 74.7 77.4008 75 77.3008 75.3C77.3008 75.6 77.2008 75.8 77.0008 76.1C76.9008 76.3 76.7008 76.5 76.4008 76.7C76.2008 76.9 75.9008 77 75.6008 77.1C75.1008 77.3 74.7008 77.4 74.3008 77.4C73.9008 77.4 73.5008 77.3 73.0008 77L73.5008 76C73.7008 76.1 74.0008 76.2 74.3008 76.2C74.6008 76.2 74.9008 76.2 75.2008 76.1C75.3008 76 75.5008 76 75.6008 75.9C75.7008 75.8 75.8008 75.7 75.9008 75.6C76.0008 75.5 76.0008 75.4 76.1008 75.3C76.2008 75.2 76.1008 75.1 76.1008 74.9C76.0008 74.7 75.9008 74.6 75.8008 74.6C75.7008 74.5 75.5008 74.5 75.3008 74.5C75.1008 74.5 75.0008 74.5 74.8008 74.5C74.6008 74.5 74.5008 74.6 74.4008 74.6C74.2008 74.6 73.9008 74.7 73.7008 74.7C73.5008 74.7 73.2008 74.7 73.0008 74.7C72.8008 74.7 72.6008 74.6 72.4008 74.4C72.2008 74.3 72.1008 74.1 72.0008 73.8C71.9008 73.5 71.8008 73.2 71.9008 73C72.0008 72.8 72.0008 72.5 72.1008 72.3C72.2008 72.1 72.4008 71.9 72.6008 71.7C72.8008 71.5 73.1008 71.4 73.3008 71.3C73.7008 71.1 74.1008 71.1 74.5008 71C74.9008 71 75.3008 71.1 75.6008 71.3L75.2008 72.4Z" fill="white"/>
<path d="M75.8008 66.6998L76.9008 66.2998L78.4008 70.5998C78.4008 70.1998 78.6008 69.8998 78.9008 69.5998C79.2008 69.2998 79.5008 69.0998 80.0008 68.8998C80.3008 68.7998 80.6008 68.7998 80.8008 68.7998C81.0008 68.7998 81.3008 68.8998 81.6008 68.9998C81.9008 69.0998 82.1008 69.2998 82.3008 69.4998C82.5008 69.6998 82.7008 69.9998 82.8008 70.3998L84.1008 74.0998L83.0008 74.4998L81.8008 71.0998C81.7008 70.7998 81.6008 70.5998 81.5008 70.4998C81.4008 70.2998 81.2008 70.1998 81.1008 70.0998C80.9008 69.9998 80.8008 69.9998 80.6008 69.9998C80.4008 69.9998 80.3008 69.9998 80.1008 70.0998C79.9008 70.1998 79.7008 70.2998 79.5008 70.3998C79.3008 70.4998 79.2008 70.6998 79.1008 70.8998C79.0008 71.0998 79.0008 71.2998 79.0008 71.5998C79.0008 71.8998 79.1008 72.1998 79.2008 72.4998L80.2008 75.3998L79.1008 75.7998L75.8008 66.6998Z" fill="white"/>
<path d="M83.0024 65.8002C82.9024 65.6002 83.0023 65.4002 83.1023 65.2002C83.2023 65.0002 83.4023 64.9002 83.6023 64.8002C83.8023 64.7002 84.0024 64.8002 84.2024 64.9002C84.4024 65.0002 84.5023 65.2002 84.6023 65.4002C84.7023 65.6002 84.6024 65.8002 84.5024 66.0002C84.4024 66.2002 84.2024 66.3002 84.0024 66.4002C83.8024 66.5002 83.6023 66.4002 83.4023 66.3002C83.2023 66.2002 83.1024 66.0002 83.0024 65.8002ZM83.8024 67.8002L84.9023 67.5002L86.6023 73.3002L85.5024 73.6002L83.8024 67.8002Z" fill="white"/>
<path d="M86.8008 66.8999L87.9008 66.5999L88.1008 67.4999C88.2008 67.1999 88.4008 66.7999 88.7008 66.5999C89.0008 66.3999 89.4008 66.0999 89.8008 65.9999C90.1008 65.8999 90.4008 65.8999 90.6008 65.8999C90.9008 65.8999 91.1008 65.9999 91.4008 66.0999C91.6008 66.1999 91.8008 66.3999 92.0008 66.6999C92.2008 66.9999 92.3008 67.2999 92.4008 67.6999L93.3008 71.4999L92.2008 71.7999L91.4008 68.2999C91.3008 67.9999 91.2008 67.7999 91.1008 67.5999C91.0008 67.3999 90.8008 67.2999 90.7008 67.1999C90.5008 67.0999 90.4008 67.0999 90.2008 66.9999C90.0008 66.9999 89.9008 66.9999 89.7008 66.9999C89.5008 67.0999 89.3008 67.0999 89.1008 67.2999C88.9008 67.3999 88.8008 67.5999 88.7008 67.7999C88.6008 67.9999 88.5008 68.1999 88.5008 68.4999C88.5008 68.7999 88.5008 69.0999 88.6008 69.3999L89.3008 72.3999L88.2008 72.6999L86.8008 66.8999Z" fill="white"/>
<path d="M93.3008 63.2999C93.3008 63.0999 93.3008 62.8999 93.4008 62.6999C93.5008 62.4999 93.7008 62.3999 93.9008 62.3999C94.1008 62.3999 94.3008 62.3999 94.5008 62.4999C94.7008 62.5999 94.8008 62.7999 94.8008 62.9999C94.8008 63.1999 94.8008 63.3999 94.7008 63.5999C94.6008 63.7999 94.4008 63.8999 94.2008 63.8999C94.0008 63.8999 93.8008 63.8999 93.6008 63.7999C93.4008 63.7999 93.3008 63.5999 93.3008 63.2999ZM93.9008 65.3999L95.0008 65.1999L96.0008 71.1999L94.9008 71.3999L93.9008 65.3999Z" fill="white"/>
<path d="M100.699 66.0998C100.699 65.7998 100.699 65.4998 100.799 65.1998C100.899 64.8998 100.999 64.6998 101.199 64.4998C101.399 64.2998 101.599 64.0998 101.899 63.9998C102.199 63.8998 102.499 63.7998 102.799 63.7998C103.099 63.7998 103.399 63.7998 103.699 63.8998C103.999 63.9998 104.199 64.0998 104.399 64.2998C104.599 64.4998 104.799 64.6998 104.899 64.9998C104.999 65.2998 105.099 65.5998 105.099 65.8998C105.099 66.1998 105.099 66.4998 104.999 66.7998C104.899 67.0998 104.799 67.2998 104.599 67.4998C104.399 67.6998 104.199 67.8998 103.899 67.9998C103.599 68.0998 103.299 68.1998 102.999 68.1998C102.699 68.1998 102.399 68.1998 102.099 68.0998C101.799 67.9998 101.599 67.8998 101.399 67.6998C101.199 67.4998 100.999 67.2998 100.899 66.9998C100.799 66.6998 100.699 66.3998 100.699 66.0998Z" fill="white"/>
<path d="M110.999 68.3C111.199 68.6 111.499 68.9 111.799 69.1C112.099 69.3 112.499 69.4 112.899 69.4C113.099 69.4 113.299 69.4 113.499 69.3C113.699 69.2 113.899 69.2 114.099 69C114.299 68.8 114.399 68.7 114.499 68.5C114.599 68.3 114.699 68.1 114.699 67.9C114.699 67.6 114.599 67.3 114.399 67.1C114.199 66.9 113.899 66.7 113.599 66.6C113.299 66.5 112.899 66.3 112.499 66.2C112.099 66.1 111.799 65.9 111.499 65.7C111.199 65.5 110.899 65.2 110.699 64.8C110.499 64.4 110.399 64 110.399 63.4C110.399 63.1 110.499 62.9 110.599 62.6C110.699 62.3 110.899 62 111.199 61.8C111.499 61.6 111.799 61.4 112.199 61.2C112.599 61 113.099 61 113.599 61C114.099 61 114.599 61.1 114.999 61.3C115.399 61.5 115.799 61.7 116.199 62.2L115.199 63.1C115.099 62.9 114.799 62.7 114.599 62.5C114.299 62.3 113.999 62.3 113.699 62.2C113.399 62.2 113.099 62.2 112.799 62.3C112.599 62.4 112.399 62.5 112.199 62.6C111.999 62.7 111.999 62.9 111.899 63C111.799 63.2 111.799 63.3 111.799 63.4C111.799 63.8 111.899 64.1 112.099 64.3C112.299 64.5 112.599 64.7 112.899 64.8C113.199 64.9 113.599 65.1 113.999 65.2C114.399 65.3 114.699 65.5 115.099 65.7C115.399 65.9 115.699 66.2 115.899 66.5C116.099 66.8 116.199 67.3 116.199 67.8C116.199 68.2 116.099 68.6 115.899 69C115.699 69.3 115.499 69.6 115.199 69.9C114.899 70.1 114.599 70.3 114.199 70.4C113.799 70.5 113.399 70.6 112.999 70.5C112.399 70.5 111.899 70.4 111.399 70.1C110.899 69.9 110.499 69.5 110.199 69.1L110.999 68.3Z" fill="white"/>
<path d="M122.402 71.0999L121.302 70.9999L121.402 70.0999C121.202 70.3999 120.902 70.5999 120.602 70.7999C120.202 70.9999 119.802 70.9999 119.302 70.8999C119.002 70.8999 118.702 70.7999 118.502 70.6999C118.302 70.5999 118.002 70.3999 117.902 70.1999C117.702 69.9999 117.602 69.6999 117.502 69.3999C117.402 69.0999 117.402 68.6999 117.402 68.2999L117.902 64.3999L119.002 64.4999L118.602 67.9999C118.602 68.2999 118.602 68.4999 118.602 68.6999C118.702 68.8999 118.702 69.0999 118.802 69.1999C118.902 69.2999 119.002 69.3999 119.202 69.4999C119.402 69.5999 119.502 69.5999 119.702 69.5999C119.902 69.5999 120.202 69.5999 120.402 69.5999C120.602 69.4999 120.802 69.4999 121.002 69.2999C121.202 69.1999 121.302 68.9999 121.402 68.6999C121.502 68.4999 121.602 68.1999 121.602 67.7999L122.002 64.6999L123.102 64.7999L122.402 71.0999Z" fill="white"/>
<path d="M124.902 65.3999L126.002 65.5999L125.802 66.4999C126.002 66.1999 126.302 65.9999 126.702 65.8999C127.102 65.7999 127.502 65.7999 128.002 65.8999C128.302 65.9999 128.502 66.0999 128.802 66.1999C129.002 66.2999 129.202 66.4999 129.402 66.6999C129.602 66.8999 129.702 67.1999 129.702 67.4999C129.802 67.7999 129.702 68.1999 129.702 68.5999L128.902 72.3999L127.802 72.1999L128.502 68.6999C128.602 68.3999 128.602 68.1999 128.502 67.9999C128.502 67.7999 128.402 67.5999 128.302 67.4999C128.202 67.3999 128.102 67.1999 127.902 67.1999C127.702 67.0999 127.602 67.0999 127.402 66.9999C127.202 66.9999 126.902 66.8999 126.702 66.9999C126.502 66.9999 126.302 67.0999 126.102 67.1999C125.902 67.2999 125.802 67.4999 125.602 67.6999C125.502 67.8999 125.402 68.1999 125.302 68.5999L124.702 71.5999L123.602 71.3999L124.902 65.3999Z" fill="white"/>
<path d="M130.899 69.8C130.999 69.4 131.199 69 131.499 68.7C131.799 68.4 132.099 68.1 132.399 67.9C132.799 67.7 133.099 67.6 133.599 67.5C133.999 67.5 134.399 67.5 134.899 67.6C135.299 67.7 135.699 67.9 135.999 68.2C136.299 68.5 136.599 68.8 136.799 69.1C136.999 69.5 137.099 69.8 137.199 70.3C137.299 70.7 137.199 71.1 137.099 71.6C136.999 72 136.799 72.4 136.499 72.7C136.199 73 135.899 73.3 135.599 73.5C135.199 73.7 134.899 73.8 134.399 73.9C133.899 74 133.599 73.9 133.099 73.8C132.699 73.7 132.299 73.5 131.999 73.2C131.699 72.9 131.399 72.6 131.199 72.3C130.999 71.9 130.899 71.6 130.799 71.1C130.699 70.6 130.799 70.2 130.899 69.8ZM132.099 70.1C131.999 70.4 131.999 70.7 131.999 71C131.999 71.3 132.099 71.5 132.199 71.7C132.299 71.9 132.499 72.1 132.699 72.3C132.899 72.5 133.199 72.6 133.499 72.7C133.799 72.8 134.099 72.8 134.299 72.8C134.599 72.8 134.799 72.7 134.999 72.6C135.199 72.5 135.399 72.3 135.599 72.1C135.799 71.9 135.899 71.6 135.999 71.3C136.099 71 136.099 70.7 136.099 70.4C136.099 70.1 135.999 69.9 135.899 69.7C135.799 69.5 135.599 69.3 135.399 69.1C135.199 68.9 134.899 68.8 134.599 68.7C134.299 68.6 133.999 68.6 133.799 68.6C133.499 68.6 133.299 68.7 133.099 68.8C132.899 68.9 132.699 69.1 132.499 69.3C132.299 69.5 132.099 69.8 132.099 70.1Z" fill="white"/>
<path d="M144.099 67.7998L145.199 68.2998L141.799 76.6998L140.699 76.1998L144.099 67.7998Z" fill="white"/>
<path d="M146.1 71.7998L147.1 72.2998L146.7 73.0998C147 72.8998 147.3 72.6998 147.7 72.6998C148.1 72.6998 148.5 72.7998 148.9 72.9998C149.2 73.0998 149.4 73.2998 149.6 73.4998C149.8 73.6998 150 73.8998 150.1 74.1998C150.2 74.4998 150.2 74.6998 150.2 75.0998C150.2 75.3998 150.1 75.7998 149.9 76.0998L148.2 79.5998L147.2 79.0998L148.7 75.8998C148.8 75.5998 148.9 75.3998 148.9 75.1998C148.9 74.9998 148.9 74.7998 148.8 74.5998C148.7 74.3998 148.6 74.2998 148.5 74.1998C148.4 74.0998 148.2 73.9998 148.1 73.8998C147.9 73.7998 147.7 73.6998 147.5 73.6998C147.3 73.6998 147.1 73.6998 146.9 73.7998C146.7 73.8998 146.5 73.9998 146.3 74.1998C146.1 74.3998 145.9 74.5998 145.8 74.9998L144.5 77.7998L143.5 77.2998L146.1 71.7998Z" fill="white"/>
<path d="M154.7 83.3002L153.7 82.7002L154.1 82.0002C153.7 82.2002 153.4 82.2002 152.9 82.2002C152.5 82.2002 152.1 82.0002 151.7 81.8002C151.3 81.6002 151 81.3002 150.7 80.9002C150.4 80.5002 150.3 80.2002 150.2 79.8002C150.1 79.4002 150.1 79.0002 150.2 78.6002C150.3 78.2002 150.4 77.8002 150.6 77.4002C150.8 77.0002 151.1 76.7002 151.4 76.4002C151.7 76.1002 152.1 76.0002 152.4 75.8002C152.7 75.6002 153.2 75.7002 153.6 75.7002C154 75.8002 154.4 75.9002 154.8 76.1002C155.2 76.3002 155.5 76.6002 155.7 77.0002C155.9 77.4002 156.1 77.7002 156.1 78.1002L158.4 74.2002L159.4 74.8002L154.7 83.3002ZM152.5 80.9002C152.8 81.1002 153 81.1002 153.3 81.2002C153.6 81.3002 153.8 81.2002 154.1 81.1002C154.3 81.0002 154.6 80.9002 154.8 80.7002C155 80.5002 155.2 80.3002 155.4 80.0002C155.6 79.7002 155.7 79.5002 155.7 79.2002C155.7 78.9002 155.7 78.7002 155.7 78.4002C155.6 78.2002 155.5 77.9002 155.4 77.7002C155.2 77.5002 155 77.3002 154.8 77.1002C154.5 76.9002 154.3 76.9002 154 76.8002C153.7 76.7002 153.5 76.8002 153.2 76.9002C153 77.0002 152.7 77.1002 152.5 77.3002C152.3 77.5002 152.1 77.7002 151.9 78.0002C151.7 78.3002 151.6 78.5002 151.6 78.8002C151.5 79.1002 151.6 79.3002 151.6 79.6002C151.6 79.9002 151.8 80.1002 151.9 80.3002C152 80.6002 152.2 80.7002 152.5 80.9002Z" fill="white"/>
<path d="M159.4 79.0998L160.4 79.6998L157 84.6998L156 84.0998L159.4 79.0998ZM160.4 77.1998C160.5 76.9998 160.7 76.8998 160.9 76.7998C161.1 76.7998 161.3 76.7998 161.5 76.8998C161.7 76.9998 161.8 77.1998 161.9 77.3998C161.9 77.5998 161.9 77.7998 161.8 77.9998C161.7 78.1998 161.5 78.2998 161.3 78.3998C161.1 78.3998 160.9 78.3998 160.7 78.2998C160.5 78.1998 160.4 77.9998 160.3 77.7998C160.2 77.5998 160.2 77.3998 160.4 77.1998Z" fill="white"/>
<path d="M161.499 81.5C161.899 81.5 162.399 81.5 162.799 81.6C163.199 81.7 163.599 81.9 163.999 82.2C164.399 82.5 164.599 82.7 164.799 83C164.999 83.3 165.099 83.6 165.199 83.8C165.299 84 165.199 84.3 165.199 84.6C165.099 84.9 164.999 85.1 164.899 85.3L162.999 87.8C162.899 88 162.799 88.1 162.699 88.3C162.599 88.4 162.499 88.6 162.399 88.7L161.599 88.1C161.799 87.8 161.899 87.6 162.099 87.3C161.699 87.5 161.299 87.5 160.899 87.4C160.499 87.3 160.199 87.1 159.799 86.9C159.599 86.7 159.399 86.5 159.199 86.3C158.999 86.1 158.899 85.9 158.899 85.6C158.799 85.4 158.799 85.1 158.899 84.9C158.899 84.7 159.099 84.4 159.199 84.2C159.399 83.9 159.699 83.7 159.999 83.6C160.299 83.5 160.599 83.5 160.999 83.5C161.299 83.5 161.699 83.7 162.099 83.9C162.499 84.1 162.799 84.3 163.199 84.6L163.899 85.1L164.099 84.9C164.199 84.8 164.299 84.6 164.299 84.5C164.299 84.3 164.399 84.2 164.299 84C164.299 83.8 164.199 83.7 164.099 83.5C163.999 83.3 163.899 83.2 163.699 83C163.499 82.9 163.399 82.8 163.199 82.7C162.999 82.6 162.899 82.6 162.699 82.6C162.599 82.6 162.399 82.6 162.299 82.6C162.199 82.6 161.999 82.6 161.899 82.6L161.499 81.5ZM162.699 85.3C162.499 85.1 162.299 85 161.999 84.8C161.799 84.7 161.499 84.5 161.299 84.5C161.099 84.4 160.799 84.4 160.599 84.4C160.399 84.4 160.199 84.5 160.099 84.7C159.899 85 159.799 85.2 159.899 85.5C159.999 85.8 160.199 86 160.499 86.3C160.799 86.5 160.999 86.6 161.199 86.7C161.399 86.7 161.699 86.7 161.899 86.7C162.099 86.6 162.299 86.6 162.499 86.4C162.699 86.2 162.799 86.1 162.899 86L163.099 85.7L162.699 85.3Z" fill="white"/>
<path d="M30.1 186L31.3 188.9C31.5 189.3 31.5 189.6 31.6 190C31.6 190.3 31.6 190.7 31.6 191C31.5 191.3 31.4 191.6 31.2 191.8C31 192 30.7 192.2 30.4 192.4C29.9 192.6 29.5 192.6 29.1 192.5C28.7 192.4 28.3 192.1 28 191.7C28.1 192 28.1 192.2 28.1 192.5C28.1 192.8 28 193 27.9 193.3C27.8 193.5 27.6 193.8 27.4 194C27.2 194.2 27 194.4 26.7 194.5C26.3 194.7 26 194.7 25.6 194.7C25.2 194.7 24.9 194.6 24.6 194.4C24.3 194.2 24 194 23.8 193.7C23.6 193.4 23.3 193 23.2 192.6L22 189.7L30.1 186ZM23.3 190.2L24 191.9C24.1 192.1 24.2 192.3 24.3 192.4C24.4 192.6 24.6 192.8 24.8 192.9C25 193 25.2 193.1 25.4 193.2C25.6 193.2 25.9 193.2 26.2 193.1C26.7 192.9 27 192.6 27.1 192.2C27.2 191.8 27.2 191.3 26.9 190.7L26.2 189L23.3 190.2ZM27.1 188.6L27.7 190.1C27.8 190.3 27.9 190.5 28 190.7C28.1 190.9 28.3 191 28.4 191.1C28.6 191.2 28.7 191.3 28.9 191.3C29.1 191.3 29.3 191.3 29.5 191.2C29.8 191.1 30.1 190.8 30.2 190.5C30.4 190.2 30.3 189.8 30.1 189.3L29.4 187.5L27.1 188.6Z" fill="white"/>
<path d="M33.6016 192.5L34.1016 193.5L30.1016 195.6C30.5016 195.6 30.8016 195.7 31.1016 195.9C31.4016 196.1 31.7016 196.4 31.9016 196.9C32.0016 197.2 32.1016 197.4 32.2016 197.7C32.3016 198 32.2016 198.3 32.2016 198.5C32.1016 198.8 32.0016 199 31.8016 199.3C31.6016 199.5 31.3016 199.8 31.0016 199.9L27.6016 201.7L27.1016 200.7L30.3016 199C30.5016 198.9 30.7016 198.7 30.9016 198.6C31.1016 198.5 31.1016 198.3 31.2016 198.1C31.3016 197.9 31.3016 197.8 31.2016 197.6C31.2016 197.4 31.1016 197.3 31.0016 197.1C30.9016 196.9 30.8016 196.7 30.6016 196.6C30.4016 196.5 30.2016 196.4 30.0016 196.3C29.8016 196.2 29.5016 196.2 29.3016 196.3C29.1016 196.4 28.7016 196.4 28.4016 196.6L25.6016 198L25.1016 197L33.6016 192.5Z" fill="white"/>
<path d="M33.0992 200.7C33.4992 200.8 33.8992 201 34.2992 201.3C34.6992 201.6 34.8992 201.9 35.1992 202.3C35.3992 202.7 35.5992 203 35.6992 203.4C35.7992 203.7 35.7992 204 35.6992 204.3C35.6992 204.6 35.4992 204.8 35.3992 205C35.1992 205.2 35.0992 205.4 34.7992 205.5L32.1992 207.1C31.9992 207.2 31.8992 207.3 31.6992 207.4C31.4992 207.5 31.3992 207.6 31.2992 207.7L30.7992 206.8C30.9992 206.6 31.2992 206.4 31.5992 206.3C31.0992 206.3 30.6992 206.2 30.3992 206C30.0992 205.8 29.7992 205.5 29.5992 205.1C29.4992 204.9 29.2992 204.6 29.2992 204.4C29.1992 204.1 29.1992 203.9 29.1992 203.6C29.1992 203.4 29.2992 203.1 29.3992 202.9C29.4992 202.7 29.6992 202.5 29.9992 202.3C30.2992 202.1 30.6992 202 30.9992 202C31.2992 202 31.5992 202.1 31.8992 202.3C32.1992 202.5 32.4992 202.7 32.7992 203C33.0992 203.3 33.2992 203.7 33.5992 204L33.9992 204.7L34.1992 204.6C34.2992 204.5 34.3992 204.4 34.4992 204.3C34.5992 204.2 34.6992 204 34.6992 203.9C34.6992 203.7 34.6992 203.6 34.6992 203.4C34.6992 203.2 34.5992 203 34.4992 202.8C34.3992 202.6 34.2992 202.5 34.0992 202.3C33.9992 202.2 33.8992 202.1 33.6992 202C33.4992 201.9 33.3992 201.9 33.2992 201.8C33.1992 201.7 32.9992 201.7 32.8992 201.7L33.0992 200.7ZM32.7992 204.7C32.6992 204.5 32.4992 204.2 32.2992 204C32.0992 203.8 31.8992 203.6 31.6992 203.4C31.4992 203.2 31.2992 203.1 31.0992 203.1C30.8992 203.1 30.6992 203.1 30.4992 203.2C30.1992 203.4 30.0992 203.6 29.9992 203.9C29.8992 204.2 30.0992 204.5 30.2992 204.8C30.4992 205.1 30.6992 205.3 30.8992 205.4C31.0992 205.5 31.2992 205.6 31.4992 205.6C31.6992 205.6 31.8992 205.6 32.0992 205.5C32.2992 205.4 32.4992 205.4 32.6992 205.2L32.9992 205L32.7992 204.7Z" fill="white"/>
<path d="M37.8985 209.2C37.9985 209 37.9985 208.8 37.8985 208.5C37.8985 208.3 37.7985 208 37.5985 207.8C37.3985 207.6 37.2985 207.4 36.9985 207.3C36.7985 207.2 36.5985 207.2 36.3985 207.4C36.2985 207.5 36.1985 207.6 36.1985 207.8C36.1985 208 36.1985 208.1 36.1985 208.3C36.1985 208.5 36.2985 208.6 36.3985 208.8C36.4985 209 36.4985 209.1 36.5985 209.2C36.6985 209.4 36.7985 209.7 36.7985 209.9C36.8985 210.1 36.8985 210.3 36.8985 210.5C36.8985 210.7 36.7985 210.9 36.6985 211.1C36.5985 211.3 36.3985 211.5 36.1985 211.6C35.8985 211.8 35.5985 211.9 35.3985 211.9C35.1985 211.9 34.7985 211.9 34.5985 211.8C34.3985 211.7 34.0985 211.6 33.8985 211.4C33.6985 211.2 33.4985 211 33.2985 210.7C32.9985 210.3 32.7985 209.9 32.6985 209.5C32.5985 209.1 32.5985 208.7 32.7985 208.2L33.8985 208.5C33.8985 208.8 33.7985 209 33.8985 209.3C33.8985 209.6 33.9985 209.8 34.1985 210.1C34.2985 210.2 34.3985 210.3 34.4985 210.4C34.5985 210.5 34.6985 210.6 34.7985 210.6C34.8985 210.7 34.9985 210.7 35.1985 210.7C35.2985 210.7 35.3985 210.7 35.4985 210.6C35.5985 210.5 35.6985 210.4 35.6985 210.2C35.6985 210 35.6985 209.9 35.6985 209.7C35.6985 209.5 35.5985 209.4 35.4985 209.2C35.3985 209 35.3985 208.9 35.2985 208.8C35.1985 208.6 35.0985 208.3 35.0985 208.1C34.9985 207.9 34.9985 207.7 34.9985 207.4C34.9985 207.2 35.0985 207 35.1985 206.8C35.2985 206.6 35.4985 206.4 35.6985 206.2C35.9985 206 36.1985 205.9 36.4985 205.9C36.7985 205.9 36.9985 205.9 37.2985 206C37.5985 206.1 37.7985 206.2 37.9985 206.4C38.1985 206.6 38.3985 206.8 38.5985 207C38.7985 207.3 38.9985 207.7 39.0985 208.1C39.1985 208.5 39.1985 208.9 38.9985 209.3L37.8985 209.2Z" fill="white"/>
<path d="M43.3008 207.9L44.0008 208.8L40.5008 211.7C40.8008 211.6 41.2008 211.6 41.6008 211.8C42.0008 211.9 42.3008 212.2 42.6008 212.6C42.8008 212.8 42.9008 213.1 43.0008 213.3C43.1008 213.6 43.1008 213.8 43.1008 214.1C43.1008 214.4 43.0008 214.6 42.9008 214.9C42.8008 215.2 42.5008 215.4 42.2008 215.7L39.2008 218.2L38.5008 217.3L41.2008 215C41.4008 214.8 41.6008 214.6 41.7008 214.4C41.8008 214.2 41.9008 214 41.9008 213.9C41.9008 213.7 41.9008 213.6 41.8008 213.4C41.7008 213.2 41.6008 213.1 41.5008 213C41.3008 212.8 41.2008 212.7 41.0008 212.6C40.8008 212.5 40.6008 212.4 40.4008 212.4C40.2008 212.4 39.9008 212.4 39.7008 212.5C39.5008 212.6 39.2008 212.8 38.9008 213L36.5008 215L35.8008 214.1L43.3008 207.9Z" fill="white"/>
<path d="M44.4984 216.1C44.8984 216.1 45.3984 216.2 45.7984 216.4C46.1984 216.6 46.5984 216.9 46.8984 217.2C47.1984 217.5 47.3984 217.8 47.5984 218.1C47.6984 218.4 47.7984 218.7 47.7984 219C47.7984 219.3 47.7984 219.5 47.6984 219.8C47.5984 220 47.3984 220.3 47.2984 220.4L45.0984 222.6C44.8984 222.7 44.7984 222.9 44.6984 223C44.5984 223.1 44.4984 223.3 44.3984 223.4L43.6984 222.7C43.8984 222.5 44.0984 222.2 44.2984 222C43.7984 222.1 43.3984 222.1 43.0984 221.9C42.6984 221.8 42.3984 221.5 42.0984 221.2C41.8984 221 41.6984 220.8 41.5984 220.5C41.4984 220.3 41.3984 220 41.3984 219.8C41.3984 219.6 41.3984 219.3 41.4984 219.1C41.5984 218.9 41.6984 218.6 41.8984 218.4C42.1984 218.1 42.4984 218 42.7984 217.9C43.0984 217.8 43.3984 217.9 43.7984 218C44.1984 218.1 44.4984 218.3 44.7984 218.5C45.0984 218.7 45.4984 219 45.7984 219.3L46.3984 219.9L46.5984 219.7C46.6984 219.6 46.7984 219.5 46.8984 219.3C46.9984 219.1 46.9984 219 46.9984 218.8C46.9984 218.6 46.9984 218.5 46.8984 218.3C46.7984 218.1 46.6984 217.9 46.4984 217.8C46.2984 217.6 46.1984 217.5 45.9984 217.4C45.8984 217.3 45.6984 217.2 45.5984 217.2C45.4984 217.2 45.2984 217.1 45.1984 217.1C45.0984 217.1 44.8984 217.1 44.7984 217L44.4984 216.1ZM45.0984 220.1C44.8984 219.9 44.6984 219.7 44.4984 219.5C44.2984 219.3 44.0984 219.2 43.7984 219.1C43.4984 219 43.3984 218.9 43.0984 218.9C42.8984 218.9 42.6984 219 42.4984 219.2C42.2984 219.4 42.1984 219.7 42.1984 220C42.2984 220.3 42.3984 220.6 42.6984 220.8C42.8984 221 43.0984 221.2 43.3984 221.3C43.5984 221.4 43.8984 221.4 44.0984 221.4C44.2984 221.4 44.4984 221.3 44.6984 221.2C44.8984 221.1 45.0984 221 45.1984 220.8L45.4984 220.5L45.0984 220.1Z" fill="white"/>
<path d="M53.8017 225.7C53.8017 225.5 53.8017 225.3 53.7017 225C53.6017 224.8 53.5017 224.6 53.2017 224.4C53.0017 224.2 52.8018 224.1 52.5018 224.1C52.3018 224.1 52.1017 224.1 51.9017 224.3C51.8017 224.4 51.7017 224.6 51.8017 224.7C51.9017 224.8 51.9017 225 51.9017 225.2C51.9017 225.4 52.1017 225.5 52.2017 225.6C52.3017 225.7 52.4018 225.9 52.5018 226C52.7018 226.2 52.8017 226.4 52.9017 226.6C53.0017 226.8 53.1017 227 53.1017 227.2C53.1017 227.4 53.1017 227.6 53.1017 227.8C53.0017 228 52.9017 228.2 52.8017 228.4C52.6017 228.7 52.3017 228.8 52.1017 228.9C51.9017 229 51.6017 229 51.3017 229C51.0017 229 50.8018 228.9 50.5018 228.8C50.2018 228.7 50.0017 228.5 49.7017 228.3C49.3017 228 49.0017 227.6 48.8017 227.3C48.6017 226.9 48.5017 226.5 48.6017 226H49.7017C49.7017 226.3 49.8017 226.5 49.9017 226.8C50.0017 227.1 50.2017 227.3 50.4017 227.5C50.5017 227.6 50.6017 227.7 50.8017 227.7C50.9017 227.8 51.1017 227.8 51.2017 227.8C51.3017 227.8 51.5017 227.8 51.6017 227.8C51.7017 227.8 51.8017 227.7 51.9017 227.6C52.0017 227.5 52.1018 227.3 52.0018 227.2C52.0018 227 51.9017 226.9 51.9017 226.8C51.8017 226.7 51.7017 226.5 51.6017 226.4C51.5017 226.3 51.4017 226.1 51.3017 226C51.1017 225.8 51.0017 225.6 50.9017 225.4C50.8017 225.2 50.7017 225 50.6017 224.8C50.5017 224.6 50.5017 224.4 50.6017 224.2C50.6017 224 50.8017 223.8 50.9017 223.5C51.1017 223.3 51.3017 223.1 51.6017 223C51.8017 222.9 52.1017 222.9 52.4017 222.9C52.7017 222.9 52.9017 223 53.2017 223.1C53.5017 223.2 53.7017 223.4 53.9017 223.5C54.2017 223.8 54.5017 224.1 54.7017 224.4C54.9017 224.7 55.0017 225.1 54.9017 225.6L53.8017 225.7Z" fill="white"/>
<path d="M56.2007 226.6C56.6007 226.5 57.1007 226.6 57.5007 226.7C57.9007 226.8 58.3007 227 58.7007 227.3C59.1007 227.6 59.3007 227.8 59.5007 228.1C59.7007 228.4 59.8007 228.6 59.9007 228.9C60.0007 229.2 60.0007 229.4 59.9007 229.7C59.8007 230 59.7007 230.2 59.6007 230.4L57.8007 232.9C57.7007 233.1 57.6007 233.2 57.5007 233.4C57.4007 233.6 57.3007 233.7 57.2007 233.8L56.4007 233.2C56.6007 232.9 56.7007 232.7 56.9007 232.4C56.5007 232.6 56.1007 232.6 55.7007 232.6C55.3007 232.5 54.9007 232.4 54.6007 232.1C54.4007 231.9 54.2007 231.8 54.0007 231.5C53.8007 231.3 53.7007 231.1 53.7007 230.8C53.7007 230.5 53.6007 230.3 53.7007 230.1C53.7007 229.9 53.8007 229.6 54.0007 229.4C54.2007 229.1 54.5007 228.9 54.8007 228.8C55.1007 228.7 55.4007 228.6 55.8007 228.7C56.1007 228.7 56.5007 228.8 56.9007 229C57.3007 229.2 57.6007 229.4 58.0007 229.7L58.7007 230.2L58.8007 230C58.9007 229.9 59.0007 229.7 59.0007 229.6C59.0007 229.4 59.0007 229.3 59.0007 229.1C59.0007 228.9 58.9007 228.8 58.8007 228.6C58.7007 228.4 58.5007 228.3 58.3007 228.1C58.1007 228 58.0007 227.9 57.8007 227.8C57.6007 227.7 57.5007 227.7 57.3007 227.7C57.2007 227.7 57.0007 227.7 56.9007 227.7C56.8007 227.7 56.6007 227.7 56.5007 227.7L56.2007 226.6ZM57.4007 230.4C57.2007 230.2 56.9007 230.1 56.7007 230C56.5007 229.9 56.2007 229.8 56.0007 229.7C55.8007 229.6 55.5007 229.6 55.3007 229.7C55.1007 229.7 54.9007 229.9 54.8007 230C54.6007 230.3 54.5007 230.6 54.6007 230.8C54.7007 231.1 54.9007 231.3 55.2007 231.5C55.5007 231.7 55.7007 231.8 55.9007 231.8C56.1007 231.8 56.4007 231.8 56.6007 231.8C56.8007 231.7 57.0007 231.6 57.2007 231.5C57.4007 231.4 57.5007 231.2 57.6007 231L57.8007 230.7L57.4007 230.4Z" fill="white"/>
<path d="M61.9008 229.7L62.8008 230.2L62.3008 231C62.4008 230.9 62.5008 230.9 62.6008 230.8C62.8008 230.7 62.9008 230.7 63.1008 230.7C63.3008 230.7 63.5008 230.7 63.8008 230.7C64.0008 230.7 64.3008 230.8 64.5008 231C64.9008 231.2 65.2008 231.5 65.3008 231.8C65.4008 232.1 65.5008 232.5 65.5008 232.9C65.9008 232.7 66.2008 232.6 66.6008 232.6C67.0008 232.6 67.4008 232.7 67.7008 232.9C68.1008 233.1 68.4008 233.4 68.6008 233.7C68.8008 234 68.9008 234.3 68.9008 234.6C68.9008 234.9 68.9008 235.2 68.8008 235.5C68.7008 235.8 68.6008 236.1 68.4008 236.4L66.6008 239.5L65.6008 238.9L67.3008 236C67.4008 235.8 67.5008 235.6 67.6008 235.4C67.7008 235.2 67.7008 235 67.7008 234.8C67.7008 234.6 67.6008 234.4 67.6008 234.3C67.5008 234.1 67.3008 234 67.1008 233.8C66.6008 233.5 66.2008 233.5 65.8008 233.7C65.4008 233.9 65.1008 234.2 64.8008 234.7L63.2008 237.6L62.2008 237L63.8008 234.3C63.9008 234.1 64.1008 233.8 64.2008 233.6C64.3008 233.4 64.3008 233.2 64.4008 233C64.4008 232.8 64.4008 232.6 64.3008 232.5C64.2008 232.3 64.0008 232.2 63.8008 232C63.6008 231.9 63.4008 231.8 63.2008 231.8C63.0008 231.8 62.8008 231.8 62.6008 231.9C62.4008 232 62.2008 232.1 62.0008 232.3C61.8008 232.5 61.6008 232.7 61.4008 233L59.8008 235.7L58.8008 235.1L61.9008 229.7Z" fill="white"/>
<path d="M70.9985 235.6C71.3985 235.5 71.7985 235.4 72.2985 235.4C72.6985 235.4 73.1984 235.5 73.5984 235.7C73.9984 235.9 74.2984 236.1 74.5984 236.3C74.7984 236.5 74.9984 236.8 75.0984 237C75.1984 237.3 75.2985 237.5 75.1985 237.8C75.1985 238.1 75.0985 238.3 74.9985 238.6L73.6985 241.4C73.5985 241.6 73.4985 241.8 73.4985 241.9C73.4985 242 73.3985 242.2 73.2985 242.4L72.3984 242C72.4984 241.7 72.5985 241.4 72.6985 241.1C72.2985 241.4 71.8985 241.5 71.4985 241.5C71.0985 241.5 70.6985 241.4 70.2985 241.2C69.9985 241.1 69.7984 240.9 69.5984 240.8C69.3984 240.6 69.1984 240.4 69.0984 240.2C68.9984 240 68.8984 239.7 68.8984 239.5C68.8984 239.3 68.8984 239 69.0984 238.7C69.2984 238.3 69.4985 238.1 69.6985 237.9C69.9985 237.7 70.2984 237.6 70.5984 237.6C70.8984 237.6 71.2985 237.6 71.6985 237.7C72.0985 237.8 72.4984 237.9 72.8984 238.1L73.6985 238.4L73.7985 238.2C73.8985 238.1 73.8984 237.9 73.8984 237.7C73.8984 237.5 73.8985 237.4 73.7985 237.2C73.6985 237 73.5985 236.9 73.4985 236.7C73.3985 236.6 73.1985 236.4 72.9985 236.3C72.7985 236.2 72.5984 236.1 72.3984 236.1C72.1984 236.1 72.0984 236.1 71.8984 236.1C71.6984 236.1 71.5985 236.1 71.4985 236.2C71.3985 236.2 71.1984 236.3 71.0984 236.3L70.9985 235.6ZM72.8984 239.1C72.6984 239 72.3984 238.9 72.0984 238.8C71.7984 238.7 71.5985 238.7 71.2985 238.6C71.0985 238.6 70.7984 238.6 70.5984 238.7C70.3984 238.8 70.2985 238.9 70.1985 239.1C70.0985 239.4 70.0985 239.7 70.1985 239.9C70.3985 240.1 70.5985 240.3 70.9985 240.5C71.2985 240.6 71.5985 240.7 71.7985 240.7C71.9985 240.7 72.2985 240.6 72.4985 240.5C72.6985 240.4 72.8985 240.3 72.9985 240.1C73.0985 239.9 73.2985 239.8 73.2985 239.6L73.4985 239.3L72.8984 239.1Z" fill="white"/>
<path d="M77.2016 237.5L78.3016 237.9L78.0016 238.8C78.1016 238.7 78.3016 238.6 78.4016 238.5C78.6016 238.4 78.7016 238.4 78.9016 238.3C79.1016 238.3 79.3016 238.3 79.5016 238.3C79.7016 238.3 79.9016 238.4 80.1016 238.4C80.3016 238.5 80.4016 238.6 80.6016 238.7L80.1016 239.8C80.0016 239.7 79.9016 239.7 79.9016 239.6C79.8016 239.6 79.7016 239.5 79.6016 239.5C79.1016 239.3 78.6016 239.3 78.2016 239.5C77.8016 239.7 77.5016 240.1 77.3016 240.7L76.2016 243.5L75.1016 243.1L77.2016 237.5Z" fill="white"/>
<path d="M84.4008 241L82.8008 240.5L82.0008 243.1C81.9008 243.3 81.9008 243.4 81.9008 243.6C81.9008 243.8 81.8008 243.9 81.9008 244.1C81.9008 244.2 82.0008 244.4 82.0008 244.5C82.1008 244.6 82.2008 244.7 82.4008 244.8C82.5008 244.8 82.7008 244.9 82.8008 244.9C82.9008 244.9 83.1008 244.9 83.2008 244.9L82.9008 245.9C82.7008 245.9 82.6008 245.9 82.3008 245.9C82.0008 245.9 81.9008 245.8 81.8008 245.8C81.4008 245.7 81.1008 245.5 80.9008 245.3C80.7008 245.1 80.6008 244.9 80.5008 244.7C80.4008 244.5 80.5008 244.3 80.5008 244C80.6008 243.8 80.6008 243.5 80.7008 243.3L81.6008 240.3L80.3008 239.9L80.6008 239L81.9008 239.4L82.4008 237.8L83.5008 238.1L83.0008 239.7L84.6008 240.2L84.4008 241Z" fill="white"/>
<path d="M86.8 237L87.9 237.3L86.8 241.7C87 241.4 87.3 241.2 87.7 241.1C88.1 241 88.5 241 89 241.1C89.3 241.2 89.5 241.3 89.8 241.4C90.1 241.5 90.2 241.7 90.4 242C90.6 242.2 90.6 242.5 90.7 242.8C90.7 243.1 90.7 243.5 90.6 243.9L89.7 247.7L88.6 247.4L89.4 243.9C89.5 243.6 89.5 243.4 89.5 243.2C89.5 243 89.4 242.8 89.3 242.7C89.2 242.6 89.1 242.4 88.9 242.3C88.8 242.2 88.6 242.1 88.4 242.1C88.2 242 87.9 242 87.7 242.1C87.5 242.1 87.3 242.2 87.1 242.3C86.9 242.4 86.7 242.6 86.6 242.8C86.5 243 86.3 243.3 86.3 243.6L85.6 246.6L84.5 246.3L86.8 237Z" fill="white"/>
<path d="M92.7016 242.8C93.1016 242.6 93.5015 242.4 93.9015 242.3C94.3015 242.2 94.8016 242.2 95.2016 242.3C95.6016 242.4 96.0016 242.5 96.3016 242.6C96.6016 242.8 96.8016 242.9 97.0016 243.2C97.2016 243.4 97.3016 243.7 97.3016 243.9C97.4016 244.2 97.4016 244.4 97.3016 244.7L96.8016 247.7C96.8016 247.9 96.7016 248.1 96.7016 248.3C96.7016 248.5 96.7016 248.6 96.7016 248.8L95.7016 248.6C95.7016 248.3 95.8016 248 95.8016 247.7C95.5016 248 95.1016 248.3 94.8016 248.4C94.4016 248.5 94.0016 248.5 93.6016 248.4C93.3016 248.4 93.1016 248.3 92.8016 248.2C92.6016 248.1 92.4016 247.9 92.2016 247.8C92.0016 247.6 91.9016 247.4 91.8016 247.2C91.7016 247 91.7016 246.7 91.8016 246.4C91.9016 246 92.0016 245.7 92.2016 245.5C92.4016 245.3 92.7016 245.1 93.0016 245C93.3016 244.9 93.7016 244.8 94.1016 244.8C94.5016 244.8 94.9015 244.8 95.4015 244.9L96.2016 245V244.7C96.2016 244.5 96.2016 244.4 96.2016 244.2C96.2016 244 96.1016 243.9 96.0016 243.7C95.9016 243.5 95.8016 243.4 95.6016 243.3C95.4016 243.2 95.2016 243.1 95.0016 243.1C94.8016 243.1 94.6015 243.1 94.4015 243.1C94.2015 243.1 94.1015 243.1 93.9015 243.2C93.8015 243.2 93.6016 243.3 93.5016 243.4C93.4016 243.5 93.3016 243.5 93.1016 243.6L92.7016 242.8ZM95.5016 245.6C95.2016 245.6 95.0016 245.5 94.7016 245.5C94.4016 245.5 94.1015 245.5 93.9015 245.5C93.7015 245.5 93.4016 245.6 93.3016 245.8C93.1016 245.9 93.0016 246.1 93.0016 246.3C92.9016 246.6 93.0016 246.9 93.2016 247.1C93.4016 247.3 93.7016 247.4 94.1016 247.5C94.4016 247.5 94.7015 247.5 94.9015 247.5C95.1015 247.4 95.3016 247.3 95.5016 247.2C95.7016 247.1 95.8015 246.9 95.9015 246.7C96.0015 246.5 96.1016 246.3 96.1016 246.1L96.2016 245.7L95.5016 245.6Z" fill="white"/>
<path d="M99.5008 239.4L100.601 239.5L100.101 245.7L102.901 243.3L104.501 243.4L101.501 245.9L104.301 249.4L102.701 249.3L100.201 245.9L99.9008 249L98.8008 248.9L99.5008 239.4Z" fill="white"/>
<path d="M109.301 245.1C109.301 244.8 109.301 244.5 109.501 244.2C109.701 243.9 109.801 243.7 110.001 243.5C110.201 243.3 110.401 243.1 110.701 243C111.001 242.9 111.301 242.8 111.601 242.8C111.901 242.8 112.201 242.8 112.501 243C112.801 243.1 113.001 243.3 113.201 243.5C113.401 243.7 113.601 243.9 113.701 244.2C113.801 244.5 113.901 244.8 113.901 245.1C113.901 245.4 113.901 245.7 113.701 246C113.601 246.3 113.401 246.5 113.201 246.7C113.001 246.9 112.801 247.1 112.501 247.2C112.201 247.3 111.901 247.4 111.601 247.4C111.301 247.4 111.001 247.4 110.701 247.2C110.401 247.1 110.201 246.9 110.001 246.7C109.801 246.5 109.601 246.3 109.501 246C109.401 245.7 109.301 245.4 109.301 245.1Z" fill="white"/>
<path d="M127 242.9L127.7 247.3C127.5 247.5 127.3 247.6 127 247.8C126.7 248 126.5 248.1 126.2 248.2C125.9 248.3 125.6 248.4 125.3 248.5C125 248.6 124.7 248.6 124.4 248.7C123.6 248.8 122.9 248.8 122.3 248.6C121.7 248.4 121.1 248.2 120.6 247.8C120.1 247.4 119.7 247 119.4 246.5C119.1 246 118.9 245.4 118.8 244.8C118.7 244.1 118.7 243.5 118.9 242.9C119 242.3 119.3 241.7 119.6 241.3C119.9 240.8 120.4 240.4 120.9 240.1C121.4 239.8 122 239.6 122.7 239.4C123.5 239.3 124.2 239.3 124.8 239.4C125.4 239.5 125.8 239.7 126.2 240L125.5 241.1C125.1 240.8 124.6 240.6 124.2 240.5C123.8 240.4 123.3 240.4 122.9 240.5C122.4 240.6 121.9 240.7 121.6 241C121.2 241.3 120.9 241.6 120.7 241.9C120.5 242.3 120.3 242.7 120.2 243.1C120.1 243.6 120.1 244 120.2 244.5C120.3 245 120.4 245.5 120.7 245.9C120.9 246.3 121.2 246.6 121.6 246.9C122 247.2 122.4 247.4 122.8 247.5C123.2 247.6 123.7 247.6 124.2 247.6C124.6 247.5 125 247.4 125.4 247.3C125.8 247.2 126.1 247 126.3 246.8L125.9 244.3L123.9 244.6L123.7 243.5L127 242.9Z" fill="white"/>
<path d="M128.998 244.5C128.898 244.1 128.898 243.7 128.898 243.2C128.998 242.8 129.098 242.4 129.298 242.1C129.498 241.7 129.798 241.4 130.098 241.2C130.398 240.9 130.798 240.8 131.298 240.6C131.698 240.5 132.198 240.5 132.598 240.5C132.998 240.6 133.398 240.7 133.798 240.9C134.198 241.1 134.498 241.4 134.698 241.7C134.998 242 135.098 242.4 135.298 242.8C135.398 243.2 135.398 243.6 135.398 244.1C135.298 244.5 135.198 244.9 134.998 245.2C134.798 245.5 134.498 245.9 134.198 246.1C133.898 246.4 133.498 246.5 132.998 246.7C132.598 246.8 132.098 246.8 131.698 246.8C131.298 246.7 130.898 246.6 130.498 246.4C130.098 246.2 129.798 245.9 129.598 245.6C129.298 245.3 129.098 244.9 128.998 244.5ZM130.198 244.2C130.298 244.5 130.398 244.8 130.498 245C130.698 245.2 130.798 245.4 130.998 245.5C131.198 245.6 131.398 245.7 131.698 245.8C131.998 245.9 132.198 245.8 132.498 245.7C132.798 245.6 133.098 245.5 133.298 245.3C133.498 245.1 133.698 244.9 133.798 244.7C133.898 244.5 133.998 244.2 133.998 244C133.998 243.7 133.998 243.4 133.898 243.1C133.798 242.8 133.698 242.5 133.598 242.3C133.398 242.1 133.298 241.9 133.098 241.8C132.898 241.7 132.698 241.6 132.398 241.5C132.098 241.5 131.898 241.5 131.598 241.6C131.298 241.7 130.998 241.8 130.798 242C130.598 242.2 130.398 242.4 130.298 242.6C130.198 242.8 130.098 243.1 130.098 243.3C130.098 243.6 130.098 243.9 130.198 244.2Z" fill="white"/>
<path d="M134.801 236.1L135.901 235.7L138.901 244.9L137.801 245.3L134.801 236.1Z" fill="white"/>
<path d="M146.499 242L145.399 242.4L145.099 241.6C144.999 242 144.799 242.3 144.499 242.6C144.199 242.9 143.899 243.1 143.499 243.3C143.099 243.5 142.599 243.5 142.199 243.5C141.799 243.5 141.399 243.4 141.099 243.2C140.699 243 140.399 242.8 140.199 242.5C139.899 242.2 139.699 241.8 139.499 241.4C139.299 241 139.199 240.6 139.199 240.2C139.199 239.8 139.299 239.4 139.399 239C139.499 238.6 139.799 238.3 140.099 238C140.399 237.7 140.799 237.5 141.199 237.3C141.599 237.1 141.999 237.1 142.399 237.1C142.799 237.1 143.199 237.3 143.499 237.5L141.899 233.3L142.999 232.9L146.499 242ZM143.199 242.3C143.499 242.2 143.699 242 143.899 241.8C144.099 241.6 144.199 241.4 144.299 241.2C144.399 241 144.399 240.7 144.399 240.4C144.399 240.1 144.299 239.8 144.199 239.6C144.099 239.4 143.899 239.1 143.799 238.9C143.599 238.7 143.399 238.5 143.199 238.4C142.999 238.3 142.699 238.2 142.499 238.2C142.199 238.2 141.999 238.2 141.699 238.4C141.399 238.5 141.199 238.7 140.999 238.9C140.799 239.1 140.699 239.3 140.599 239.5C140.499 239.7 140.499 240 140.499 240.3C140.499 240.6 140.599 240.9 140.699 241.1C140.799 241.3 140.999 241.6 141.099 241.8C141.299 242 141.499 242.2 141.699 242.3C141.899 242.4 142.199 242.5 142.399 242.5C142.599 242.5 142.899 242.4 143.199 242.3Z" fill="white"/>
<path d="M154.1 230.2C153.7 230 153.3 230 152.9 230C152.5 230 152.1 230.2 151.7 230.4C151.3 230.6 150.9 231 150.6 231.3C150.3 231.7 150.2 232.1 150.1 232.5C150 232.9 150 233.4 150.1 233.9C150.2 234.4 150.3 234.8 150.6 235.3C150.8 235.7 151.1 236.1 151.5 236.4C151.9 236.7 152.2 236.9 152.6 237.1C153 237.2 153.4 237.3 153.9 237.3C154.4 237.3 154.8 237.1 155.3 236.9C155.8 236.6 156.1 236.3 156.3 236C156.5 235.6 156.7 235.2 156.7 234.7L158 234.9C158 235 157.9 235.2 157.9 235.4C157.8 235.6 157.7 235.9 157.6 236.2C157.5 236.5 157.2 236.8 156.9 237.1C156.6 237.4 156.3 237.7 155.8 237.9C155.2 238.2 154.5 238.4 153.9 238.5C153.3 238.5 152.7 238.5 152.1 238.3C151.5 238.1 151 237.8 150.6 237.4C150.1 237 149.8 236.6 149.5 236.1C149.2 235.5 148.9 234.9 148.9 234.2C148.9 233.5 148.8 233 149 232.4C149.2 231.8 149.4 231.3 149.8 230.8C150.2 230.3 150.7 229.9 151.3 229.6C151.8 229.3 152.4 229.1 153 229C153.6 228.9 154.2 229 154.7 229.2L154.1 230.2Z" fill="white"/>
<path d="M158.001 232.5C157.801 232.1 157.601 231.7 157.501 231.3C157.401 230.9 157.401 230.5 157.501 230.1C157.601 229.7 157.701 229.3 158.001 229C158.301 228.7 158.501 228.3 158.901 228.1C159.301 227.8 159.701 227.7 160.101 227.6C160.501 227.5 160.901 227.5 161.301 227.6C161.701 227.7 162.101 227.8 162.401 228C162.801 228.2 163.101 228.5 163.301 228.9C163.501 229.3 163.701 229.7 163.801 230.1C163.901 230.5 163.901 230.9 163.801 231.3C163.701 231.7 163.601 232.1 163.301 232.4C163.101 232.8 162.801 233.1 162.401 233.3C162.001 233.6 161.601 233.7 161.201 233.8C160.801 233.9 160.401 233.9 160.001 233.8C159.601 233.7 159.201 233.6 158.901 233.4C158.501 233.2 158.201 232.9 158.001 232.5ZM159.001 231.8C159.201 232.1 159.401 232.3 159.601 232.4C159.801 232.6 160.101 232.7 160.301 232.7C160.501 232.7 160.801 232.8 161.101 232.7C161.401 232.6 161.601 232.5 161.901 232.4C162.201 232.2 162.401 232 162.501 231.8C162.601 231.6 162.701 231.3 162.801 231.1C162.801 230.9 162.801 230.6 162.801 230.3C162.701 230 162.601 229.8 162.401 229.5C162.201 229.2 162.001 229 161.801 228.9C161.601 228.8 161.301 228.6 161.101 228.6C160.901 228.5 160.601 228.5 160.301 228.6C160.001 228.7 159.801 228.8 159.501 228.9C159.201 229.1 159.001 229.3 158.901 229.5C158.801 229.7 158.701 230 158.601 230.2C158.601 230.4 158.601 230.7 158.601 231C158.701 231.3 158.801 231.6 159.001 231.8Z" fill="white"/>
<path d="M162.602 225.6L163.502 224.9L164.102 225.6C164.002 225.3 164.002 224.9 164.202 224.5C164.402 224.1 164.602 223.8 165.002 223.5C165.202 223.3 165.502 223.2 165.702 223.1C166.002 223 166.202 223 166.502 223C166.802 223 167.002 223.1 167.302 223.3C167.602 223.5 167.802 223.7 168.102 224L170.602 227L169.702 227.7L167.402 224.9C167.202 224.7 167.002 224.5 166.902 224.4C166.702 224.3 166.502 224.2 166.402 224.2C166.202 224.2 166.102 224.2 165.902 224.3C165.702 224.4 165.602 224.5 165.402 224.6C165.202 224.8 165.102 224.9 165.002 225.1C164.902 225.3 164.802 225.5 164.802 225.7C164.802 225.9 164.802 226.2 164.902 226.4C165.002 226.7 165.202 226.9 165.402 227.2L167.402 229.6L166.502 230.3L162.602 225.6Z" fill="white"/>
<path d="M171.001 219.6L169.801 220.7L171.701 222.7C171.801 222.8 171.901 222.9 172.101 223.1C172.301 223.3 172.301 223.3 172.501 223.4C172.601 223.5 172.801 223.5 172.901 223.5C173.001 223.5 173.201 223.4 173.401 223.2C173.501 223.1 173.601 223 173.701 222.9C173.801 222.8 173.901 222.7 173.901 222.5L174.601 223.3C174.601 223.4 174.501 223.6 174.301 223.8C174.101 224 174.001 224.1 174.001 224.2C173.701 224.5 173.401 224.7 173.101 224.8C172.801 224.9 172.601 224.9 172.401 224.8C172.201 224.7 172.001 224.6 171.801 224.5C171.601 224.3 171.401 224.2 171.301 224L169.201 221.7L168.201 222.6L167.501 221.9L168.501 221L167.301 219.8L168.101 219L169.301 220.2L170.501 219.1L171.001 219.6Z" fill="white"/>
<path d="M171.301 217.9L172.101 217.1L172.801 217.7C172.701 217.5 172.701 217.4 172.701 217.2C172.701 217 172.701 216.8 172.801 216.7C172.901 216.6 172.901 216.3 173.001 216.2C173.101 216 173.201 215.9 173.301 215.7C173.401 215.6 173.601 215.5 173.701 215.4L174.601 216.3C174.501 216.4 174.401 216.4 174.401 216.5C174.301 216.6 174.301 216.6 174.201 216.7C173.801 217.1 173.601 217.5 173.601 218C173.601 218.4 173.901 218.9 174.301 219.3L176.501 221.4L175.701 222.2L171.301 217.9Z" fill="white"/>
<path d="M172.8 213.2C172.6 213 172.5 212.9 172.5 212.6C172.5 212.4 172.6 212.2 172.7 212C172.8 211.8 173 211.7 173.3 211.7C173.6 211.7 173.7 211.8 173.9 211.9C174.1 212 174.2 212.2 174.2 212.5C174.2 212.7 174.1 212.9 174 213.1C173.9 213.3 173.7 213.4 173.4 213.4C173.2 213.5 173 213.4 172.8 213.2ZM174.6 214.5L175.4 213.6L179.9 217.6L179.1 218.5L174.6 214.5Z" fill="white"/>
<path d="M173.699 210.1L174.399 209.2L177.899 212C177.799 211.6 177.799 211.3 177.899 210.8C177.999 210.4 178.199 210 178.399 209.7C178.699 209.3 178.999 209 179.399 208.9C179.799 208.7 180.099 208.6 180.499 208.6C180.899 208.6 181.299 208.6 181.699 208.7C182.099 208.8 182.499 209 182.799 209.3C183.199 209.6 183.399 209.9 183.599 210.2C183.799 210.5 183.899 210.9 183.999 211.3C184.099 211.7 183.999 212.1 183.899 212.5C183.799 212.9 183.599 213.3 183.299 213.6C182.999 213.9 182.699 214.2 182.399 214.4C181.999 214.6 181.599 214.7 181.199 214.7L181.899 215.2L181.199 216.1L173.699 210.1ZM182.499 213C182.699 212.8 182.799 212.5 182.899 212.2C182.999 211.9 182.999 211.7 182.899 211.4C182.899 211.2 182.799 210.9 182.599 210.7C182.499 210.5 182.299 210.3 181.999 210.1C181.799 209.9 181.499 209.8 181.199 209.7C180.899 209.6 180.699 209.6 180.399 209.6C180.099 209.6 179.899 209.7 179.699 209.8C179.499 209.9 179.299 210.1 179.099 210.4C178.899 210.6 178.799 210.9 178.699 211.2C178.599 211.5 178.599 211.7 178.699 212C178.699 212.2 178.799 212.5 178.999 212.7C179.099 212.9 179.299 213.1 179.599 213.3C179.799 213.5 180.099 213.6 180.399 213.7C180.699 213.8 180.899 213.8 181.199 213.8C181.499 213.8 181.699 213.7 181.899 213.6C182.099 213.5 182.299 213.3 182.499 213Z" fill="white"/>
<path d="M189.199 205.1L188.599 206.1L187.799 205.6C187.999 205.9 188.099 206.3 187.999 206.7C187.899 207.1 187.799 207.5 187.599 207.9C187.399 208.1 187.199 208.4 186.999 208.5C186.799 208.6 186.499 208.8 186.299 208.9C185.999 209 185.699 209 185.399 208.9C185.099 208.8 184.799 208.7 184.399 208.5L181.199 206.4L181.799 205.4L184.799 207.4C184.999 207.6 185.299 207.7 185.499 207.7C185.699 207.7 185.899 207.7 186.099 207.7C186.299 207.7 186.399 207.6 186.599 207.5C186.699 207.4 186.899 207.3 186.999 207.1C187.099 206.9 187.199 206.7 187.299 206.5C187.399 206.3 187.299 206.1 187.299 205.9C187.199 205.7 187.099 205.5 186.999 205.3C186.799 205.1 186.599 204.9 186.299 204.7L183.699 203L184.299 202L189.199 205.1Z" fill="white"/>
<path d="M187.402 198L186.602 199.4L189.002 200.8C189.102 200.9 189.302 201 189.402 201C189.502 201 189.702 201.1 189.802 201.1C189.902 201.1 190.102 201.1 190.202 201C190.302 200.9 190.402 200.8 190.602 200.6C190.702 200.5 190.702 200.4 190.802 200.2C190.902 200 190.902 199.9 190.902 199.8L191.802 200.3C191.802 200.5 191.802 200.6 191.702 200.8C191.602 201 191.502 201.2 191.502 201.3C191.302 201.7 191.102 202 190.802 202.1C190.502 202.2 190.302 202.3 190.102 202.3C189.902 202.3 189.602 202.3 189.402 202.2C189.202 202.1 189.002 202 188.702 201.9L186.002 200.3L185.302 201.5L184.402 201L185.102 199.8L183.602 199L184.202 198L185.702 198.8L186.502 197.4L187.402 198Z" fill="white"/>
<path d="M189.8 197.9C189.4 197.7 189.1 197.5 188.8 197.1C188.5 196.8 188.3 196.4 188.2 196C188.1 195.6 188 195.2 188 194.8C188 194.4 188.1 194 188.3 193.6C188.5 193.2 188.8 192.8 189.1 192.6C189.4 192.4 189.8 192.1 190.2 192C190.6 191.9 191 191.8 191.4 191.8C191.8 191.8 192.2 191.9 192.6 192.1C193 192.3 193.3 192.5 193.6 192.9C193.9 193.3 194.1 193.6 194.2 194C194.3 194.4 194.4 194.8 194.4 195.2C194.4 195.6 194.3 196 194.1 196.4C193.9 196.8 193.6 197.2 193.3 197.4C193 197.6 192.6 197.9 192.2 198C191.8 198.1 191.4 198.2 191 198.2C190.6 198.2 190.2 198.1 189.8 197.9ZM190.4 196.8C190.7 196.9 191 197 191.2 197C191.5 197 191.7 197 192 196.9C192.2 196.8 192.5 196.7 192.7 196.5C192.9 196.3 193.1 196.1 193.2 195.8C193.3 195.5 193.4 195.3 193.4 195C193.4 194.7 193.4 194.5 193.3 194.2C193.2 194 193.1 193.8 192.9 193.6C192.7 193.4 192.5 193.2 192.2 193.1C191.9 193 191.6 192.9 191.4 192.9C191.2 192.9 190.9 192.9 190.6 193C190.3 193.1 190.1 193.2 189.9 193.4C189.7 193.6 189.5 193.8 189.4 194.1C189.3 194.4 189.2 194.6 189.2 194.9C189.2 195.2 189.2 195.4 189.3 195.7C189.4 195.9 189.5 196.1 189.7 196.3C189.8 196.5 190.1 196.7 190.4 196.8Z" fill="white"/>
<path d="M190.398 189.5L190.798 188.4L191.698 188.7C191.598 188.6 191.498 188.4 191.398 188.3C191.298 188.1 191.298 188 191.198 187.8C191.198 187.6 191.198 187.4 191.198 187.2C191.198 187 191.298 186.8 191.298 186.6C191.398 186.4 191.498 186.3 191.598 186.2L192.698 186.7C192.598 186.8 192.598 186.9 192.498 186.9C192.498 187 192.398 187.1 192.398 187.1C192.198 187.6 192.198 188.1 192.398 188.5C192.598 188.9 192.998 189.2 193.598 189.5L196.398 190.6L195.998 191.7L190.398 189.5Z" fill="white"/>
<defs>
<filter id="filter0_ii" x="0" y="48" width="218" height="218" filterUnits="userSpaceOnUse" color-interpolation-filters="sRGB">
<feFlood flood-opacity="0" result="BackgroundImageFix"/>
<feBlend mode="normal" in="SourceGraphic" in2="BackgroundImageFix" result="shape"/>
<feColorMatrix in="SourceAlpha" type="matrix" values="0 0 0 0 0 0 0 0 0 0 0 0 0 0 0 0 0 0 127 0" result="hardAlpha"/>
<feOffset/>
<feGaussianBlur stdDeviation="4"/>
<feComposite in2="hardAlpha" operator="arithmetic" k2="-1" k3="1"/>
<feColorMatrix type="matrix" values="0 0 0 0 0.9875 0 0 0 0 0.722843 0 0 0 0 0.386771 0 0 0 1 0"/>
<feBlend mode="normal" in2="shape" result="effect1_innerShadow"/>
<feColorMatrix in="SourceAlpha" type="matrix" values="0 0 0 0 0 0 0 0 0 0 0 0 0 0 0 0 0 0 127 0" result="hardAlpha"/>
<feOffset/>
<feGaussianBlur stdDeviation="6"/>
<feComposite in2="hardAlpha" operator="arithmetic" k2="-1" k3="1"/>
<feColorMatrix type="matrix" values="0 0 0 0 0 0 0 0 0 0 0 0 0 0 0 0 0 0 0.2 0"/>
<feBlend mode="normal" in2="effect1_innerShadow" result="effect2_innerShadow"/>
</filter>
<filter id="filter1_i" x="59" y="107" width="100" height="100" filterUnits="userSpaceOnUse" color-interpolation-filters="sRGB">
<feFlood flood-opacity="0" result="BackgroundImageFix"/>
<feBlend mode="normal" in="SourceGraphic" in2="BackgroundImageFix" result="shape"/>
<feColorMatrix in="SourceAlpha" type="matrix" values="0 0 0 0 0 0 0 0 0 0 0 0 0 0 0 0 0 0 127 0" result="hardAlpha"/>
<feOffset/>
<feGaussianBlur stdDeviation="6"/>
<feComposite in2="hardAlpha" operator="arithmetic" k2="-1" k3="1"/>
<feColorMatrix type="matrix" values="0 0 0 0 0.75 0 0 0 0 0.525098 0 0 0 0 0.00937498 0 0 0 1 0"/>
<feBlend mode="normal" in2="shape" result="effect1_innerShadow"/>
</filter>
<linearGradient id="paint0_linear" x1="51.775" y1="55.4937" x2="233.571" y2="234.338" gradientUnits="userSpaceOnUse">
<stop stop-color="white"/>
<stop offset="1" stop-color="#E3BC43"/>
</linearGradient>
<linearGradient id="paint1_linear" x1="174.52" y1="211.6" x2="38.8" y2="105.52" gradientUnits="userSpaceOnUse">
<stop stop-color="#FFFEFB"/>
<stop offset="1" stop-color="#8C6A00" stop-opacity="0"/>
</linearGradient>
<linearGradient id="paint2_linear" x1="194.68" y1="228.4" x2="17.2" y2="89.68" gradientUnits="userSpaceOnUse">
<stop stop-color="#FFFEFC"/>
<stop offset="1" stop-color="#8C6A00" stop-opacity="0"/>
</linearGradient>
</defs>
</svg>
