<svg width="218" height="268" viewBox="0 0 218 268" fill="none" xmlns="http://www.w3.org/2000/svg">
<path d="M86.0098 29.7983C84.9084 29.7983 84.0273 30.669 84.0273 31.7573V50.0412C84.0273 51.1295 84.9084 52.0002 86.0098 52.0002H131.385C132.487 52.0002 133.368 51.1295 133.368 50.0412V31.7573C133.368 30.669 132.487 29.7983 131.385 29.7983H86.0098ZM129.403 44.1642C129.403 45.2526 128.522 46.1232 127.42 46.1232H90.1949C89.0935 46.1232 88.2125 45.2526 88.2125 44.1642V35.893C88.2125 34.8046 89.0935 33.934 90.1949 33.934H127.42C128.522 33.934 129.403 34.8046 129.403 35.893V44.1642Z" fill="#FFE287"/>
<path d="M140.045 0L114.918 37.8775H127.37L155.388 0H140.045Z" fill="#0FA711"/>
<path d="M127.377 0L102.473 37.8775H114.925L140.052 0H127.377Z" fill="white"/>
<path d="M114.924 0L90.0195 37.8775H102.472L127.376 0H114.924Z" fill="#FF7600"/>
<path d="M90.0177 37.8775H102.47L77.343 0H62L90.0177 37.8775Z" fill="#FF7600"/>
<path d="M102.471 37.8775H114.923L90.0184 0H77.3438L102.471 37.8775Z" fill="white"/>
<path opacity="0.5" d="M110.695 6.27979L104.469 15.6931L119.145 37.8818H127.372L129.596 34.744L110.695 6.27979Z" fill="#3E4347"/>
<path d="M114.924 37.8775H127.376L102.472 0H90.0195L114.924 37.8775Z" fill="#0FA711"/>
<g filter="url(#filter0_ii)">
<path d="M218 159C218 219.199 169.199 268 109 268C48.801 268 0 219.199 0 159C0 98.801 48.801 50 109 50C169.199 50 218 98.801 218 159Z" fill="#FDD24F" fill-opacity="0.8"/>
</g>
<path d="M214.5 159C214.5 217.266 167.266 264.5 109 264.5C50.734 264.5 3.5 217.266 3.5 159C3.5 100.734 50.734 53.5 109 53.5C167.266 53.5 214.5 100.734 214.5 159Z" stroke="#DFDFDF" stroke-width="7"/>
<path d="M214.5 159C214.5 217.266 167.266 264.5 109 264.5C50.734 264.5 3.5 217.266 3.5 159C3.5 100.734 50.734 53.5 109 53.5C167.266 53.5 214.5 100.734 214.5 159Z" stroke="url(#paint0_linear)" stroke-width="7"/>
<path d="M196 159C196 207.049 157.049 246 109 246C60.9512 246 22 207.049 22 159C22 110.951 60.9512 72 109 72C157.049 72 196 110.951 196 159Z" fill="#EEB42F"/>
<path fill-rule="evenodd" clip-rule="evenodd" d="M109 87C69.2355 87 37 119.235 37 159C37 198.764 69.2355 231 109 231C148.764 231 181 198.764 181 159C181 119.235 148.764 87 109 87ZM7 159C7 102.667 52.667 57 109 57C165.333 57 211 102.667 211 159C211 215.333 165.333 261 109 261C52.667 261 7 215.333 7 159Z" fill="#F9C54C"/>
<path d="M109 82C66.5591 82 32 116.357 32 159C32 201.643 66.357 236 109 236C151.643 236 186 201.643 186 159C186 116.357 151.441 82 109 82ZM93.6404 89.4777C93.8425 89.4777 93.8425 89.4777 93.6404 89.4777C95.0551 92.5092 97.6824 94.3281 100.31 93.7218C102.937 93.3176 105.564 91.4987 105.766 87.8609C106.171 87.8609 106.575 87.8609 106.979 87.8609C106.979 98.7743 106.171 110.496 104.958 123.228C104.756 124.441 104.756 125.654 104.756 126.866C104.352 125.856 103.948 124.643 103.543 123.228C99.2992 112.517 95.4593 100.997 92.4278 89.6798C93.0341 89.6798 93.2362 89.4777 93.6404 89.4777ZM76.0577 95.7428C78.2808 98.3701 81.1102 99.3806 83.5354 98.168C86.3648 96.9554 87.9816 94.126 87.3753 91.0945C87.7795 90.8924 88.1837 90.8924 88.5879 90.6903C91.2152 101.199 93.8425 112.719 95.8635 125.451C96.0656 126.866 96.2677 127.877 96.6719 129.089C96.0656 128.079 95.4593 127.068 94.4488 125.856C87.5774 116.559 80.9081 106.454 75.0472 96.3491C75.2493 96.147 75.6535 95.9449 76.0577 95.7428ZM60.4961 106.656C63.3255 108.475 66.357 108.677 68.378 107.06C69.9948 105.848 70.8032 104.029 70.8032 102.21C70.8032 101.199 70.6011 100.189 69.9948 99.3806C70.399 99.1785 70.6011 98.9764 71.0052 98.7743C76.4619 108.071 81.7165 118.782 87.1732 130.302C87.7795 131.514 88.3858 132.525 88.79 133.535C87.9816 132.727 86.9711 131.919 85.9606 131.11C77.0682 123.633 67.9738 115.549 59.6877 107.465C59.8898 107.06 60.294 106.858 60.4961 106.656ZM48.3701 121.005C48.5722 121.005 48.5722 121.005 48.3701 121.005C51.6037 122.016 54.6352 121.612 56.0499 119.388C56.4541 118.782 57.4646 117.165 57.4646 115.549C57.4646 114.538 57.0604 112.921 55.8478 111.507C56.0499 111.304 56.4541 110.9 56.6562 110.698C64.336 118.378 72.2178 127.27 80.5039 136.971C81.3123 137.982 82.1207 138.79 82.9291 139.598C81.9186 138.992 80.706 138.588 79.4934 137.982C68.9843 133.131 58.0709 127.675 47.7638 122.016C47.9659 121.612 48.168 121.409 48.3701 121.005ZM40.4882 137.982C40.4882 137.982 40.4882 137.78 40.4882 137.982C43.9239 138.184 46.5512 136.971 47.5617 134.344C47.7638 133.738 47.9659 132.929 47.9659 131.717C47.9659 130.504 47.5617 128.281 45.1365 126.664C45.3386 126.26 45.5407 126.058 45.7428 125.654C55.0394 131.11 65.1444 137.577 75.4514 144.853C76.4619 145.661 77.6745 146.268 78.4829 146.874C77.4724 146.672 76.0577 146.47 74.643 146.066C63.3255 144.449 51.4016 142.024 39.8819 138.992C40.2861 138.79 40.4882 138.386 40.4882 137.982ZM37.2546 156.373C37.2546 156.373 37.2546 156.171 37.2546 156.373C40.4882 155.766 42.9134 153.745 43.1155 151.118C43.1155 150.916 43.1155 150.714 43.1155 150.31C43.1155 147.885 41.9029 145.257 38.8714 144.247C38.8714 143.843 39.0735 143.438 39.0735 143.034C49.5827 145.864 60.9003 149.703 72.8242 153.948C74.0368 154.352 75.2493 154.756 76.2598 154.958C75.0472 154.958 73.8346 155.16 72.42 155.16C61.1024 156.575 48.7743 157.181 37.0525 157.383C37.2546 157.181 37.2546 156.777 37.2546 156.373ZM38.8714 175.168C38.8714 174.966 38.8714 174.966 38.8714 175.168C41.4987 173.753 43.1155 171.732 43.1155 169.307C43.1155 169.105 43.1155 168.701 43.1155 168.499C42.7113 165.871 40.8924 163.244 37.2546 163.042C37.2546 162.638 37.2546 162.234 37.2546 161.829C48.168 161.829 59.8898 162.436 72.622 163.446C74.0367 163.648 75.2493 163.648 76.2598 163.648C75.2493 164.053 74.0367 164.457 72.622 164.861C61.9108 169.105 50.3911 172.945 39.0735 176.178C39.0735 175.976 39.0735 175.572 38.8714 175.168ZM45.3386 192.751C45.3386 192.751 45.3386 192.549 45.3386 192.751C47.1575 191.134 48.168 189.315 48.168 187.294C48.168 186.486 47.9659 185.879 47.7638 185.273C46.7533 182.848 44.3281 180.827 40.6903 181.635C40.4882 181.231 40.4882 180.827 40.2861 180.423C50.7953 177.593 62.315 175.168 74.8451 172.945C76.2598 172.743 77.2703 172.339 78.4829 172.136C77.4724 172.743 76.4619 173.349 75.2493 174.36C65.9528 181.231 55.8478 187.9 45.7428 193.963C45.7428 193.357 45.5407 193.155 45.3386 192.751ZM56.252 208.11C57.2625 206.493 57.6667 205.079 57.6667 203.462C57.6667 202.249 57.2625 201.037 56.4541 200.228C54.8373 198.207 51.8058 196.793 48.5722 198.409C48.3701 198.005 48.168 197.803 47.9659 197.399C57.2625 191.942 67.9738 186.486 79.4934 181.029C80.706 180.423 81.7165 179.816 82.727 179.412C81.9186 180.22 81.1102 181.231 80.3018 182.241C73.2283 191.336 65.1444 200.43 57.0604 208.919C56.8583 208.717 56.4541 208.514 56.252 208.11ZM70.6011 220.034C70.8032 218.822 71.0052 217.811 71.0052 216.801C71.0052 214.78 70.1969 213.163 68.7822 212.354C66.7612 210.94 63.5276 210.131 60.9003 212.759C60.4961 212.556 60.294 212.152 60.0919 211.95C67.7717 204.27 76.4619 196.186 86.1627 188.102C87.1732 187.294 87.9816 186.486 88.79 185.677C88.1837 186.688 87.7795 187.9 87.1732 189.113C82.727 199.622 77.4724 210.535 71.6115 220.64C71.4095 220.438 71.0052 220.236 70.6011 220.034ZM87.5774 227.916C87.7795 224.48 86.3648 221.853 83.9396 220.843C81.5144 220.034 78.2808 220.236 76.2598 223.268C75.8556 223.066 75.6535 222.864 75.2493 222.661C80.706 213.365 86.9711 203.26 94.2467 192.751C95.0551 191.538 95.6614 190.528 96.2677 189.719C96.0656 190.73 95.8635 192.144 95.4593 193.559C93.8425 204.877 91.4173 216.801 88.5879 228.32C88.3858 228.118 87.9816 228.118 87.5774 227.916ZM105.969 230.948C105.362 227.714 103.341 225.289 100.714 225.087C98.0866 224.885 95.0551 225.895 94.0446 229.331C93.6404 229.331 93.2362 229.129 92.832 229.129C95.6614 218.619 99.2992 207.302 103.543 195.378C103.948 194.165 104.352 192.953 104.554 191.942C104.554 193.155 104.756 194.367 104.756 195.782C106.171 207.1 106.979 219.428 107.181 231.15C106.777 231.15 106.373 231.15 105.969 230.948ZM178.927 144.449C176.299 145.864 174.48 147.885 174.48 150.31C174.48 150.512 174.48 150.916 174.48 151.118C174.885 153.745 176.703 156.373 180.341 156.575C180.341 156.979 180.341 157.383 180.341 157.787C169.63 157.787 157.706 156.979 144.974 155.766C143.559 155.564 142.346 155.564 141.336 155.564C142.346 155.16 143.559 154.756 144.974 154.352C155.685 150.108 167.205 146.268 178.522 143.236C178.724 143.64 178.724 144.045 178.927 144.449ZM172.661 126.866C172.661 126.866 172.661 127.068 172.661 126.866C170.843 128.483 169.832 130.302 169.832 132.323C169.832 133.131 170.034 133.738 170.236 134.344C171.247 136.769 173.672 138.79 177.31 138.184C177.512 138.588 177.512 138.992 177.714 139.396C167.205 142.024 155.483 144.449 142.953 146.672C141.538 146.874 140.528 147.076 139.315 147.48C140.325 146.874 141.336 146.268 142.549 145.459C151.845 138.386 161.95 131.717 172.055 125.856C172.257 126.26 172.459 126.462 172.661 126.866ZM162.152 111.709C161.142 113.325 160.535 114.942 160.535 116.357C160.535 117.57 160.94 118.782 161.748 119.591C163.365 121.612 166.194 123.026 169.428 121.409C169.63 121.814 169.832 122.016 170.034 122.42C160.535 127.675 150.026 133.131 138.304 138.184C137.092 138.79 136.081 139.194 135.071 139.801C135.879 138.992 136.688 137.982 137.698 136.971C144.974 128.079 153.058 118.984 161.344 110.698C161.546 111.102 161.95 111.304 162.152 111.709ZM147.601 99.1785C147.601 99.1785 147.803 99.3806 147.601 99.1785C147.399 100.391 146.995 101.402 146.995 102.412C146.995 104.231 147.803 105.848 149.218 106.858C151.239 108.273 154.472 109.081 157.1 106.656C157.302 106.858 157.706 107.262 157.908 107.465C150.228 115.144 141.336 123.026 131.433 131.11C130.423 131.919 129.412 132.727 128.806 133.535C129.412 132.525 129.816 131.514 130.423 130.1C135.071 119.591 140.528 108.677 146.388 98.5722C146.995 98.7743 147.197 98.9764 147.601 99.1785ZM130.625 91.2966C130.827 91.2966 130.827 91.2966 130.625 91.2966C130.423 94.7323 131.837 97.3596 134.262 98.3701C136.688 99.3806 139.921 99.1785 141.942 95.9449C142.346 96.147 142.549 96.3491 142.953 96.5512C137.496 105.848 131.029 115.751 123.551 126.26C122.743 127.27 122.136 128.281 121.53 129.291C121.732 128.281 122.136 126.866 122.339 125.451C124.157 114.134 126.583 102.21 129.412 90.8924C130.018 90.8924 130.22 91.0945 130.625 91.2966ZM112.436 87.8609C112.436 87.8609 112.638 87.8609 112.436 87.8609C113.042 91.0945 115.063 93.5197 117.69 93.7218C120.318 93.9239 123.349 92.9134 124.562 89.4777C124.966 89.4777 125.37 89.6798 125.774 89.6798C122.945 100.189 119.105 111.507 114.659 123.228C114.255 124.441 113.85 125.654 113.446 126.664C113.446 125.451 113.244 124.239 113.244 122.824C112.032 111.507 111.223 99.1785 111.223 87.4567C111.627 87.8609 112.032 87.8609 112.436 87.8609ZM124.36 229.331C122.743 226.299 120.318 224.682 117.69 225.087C115.063 225.491 112.436 227.31 112.234 230.948C111.829 230.948 111.425 230.948 111.021 230.948C111.021 220.034 111.627 208.312 112.84 195.58C113.042 194.367 113.042 193.357 113.042 192.346C113.042 192.144 113.042 192.144 113.042 191.942C113.446 192.953 113.85 194.165 114.255 195.58C118.499 206.291 122.339 217.811 125.572 229.129C125.168 229.331 124.764 229.331 124.36 229.331ZM141.74 223.066C141.74 223.066 141.538 223.066 141.74 223.066C139.517 220.438 136.688 219.428 134.262 220.64C131.433 221.853 129.816 224.682 130.625 227.714C130.22 227.916 129.816 227.916 129.412 228.118C126.583 217.609 124.157 206.089 122.136 193.559C121.934 192.144 121.732 191.134 121.328 189.921C121.934 190.932 122.541 191.942 123.551 193.155C130.423 202.451 137.092 212.556 142.953 222.661C142.346 222.864 142.144 222.864 141.74 223.066ZM157.302 212.152C157.302 212.354 157.302 212.354 157.302 212.152C154.472 210.333 151.441 210.131 149.42 211.748C147.803 212.961 146.995 214.78 146.995 216.598C146.995 217.609 147.197 218.619 147.803 219.428C147.399 219.63 147.197 219.832 146.793 220.034C141.336 210.738 135.879 200.026 130.625 188.507C130.018 187.294 129.412 186.283 129.008 185.273C129.816 186.081 130.827 186.89 131.837 187.698C140.932 194.772 150.026 202.856 158.312 211.142C157.908 211.748 157.706 211.95 157.302 212.152ZM169.226 198.005C169.226 198.005 169.226 198.207 169.226 198.005C165.992 196.995 162.961 197.399 161.546 199.622C161.142 200.228 160.131 201.845 160.131 203.462C160.131 204.472 160.535 206.089 161.748 207.504C161.546 207.706 161.142 208.11 160.94 208.312C153.26 200.633 145.378 191.74 137.294 182.039C136.486 181.029 135.677 180.018 134.869 179.412C135.879 180.018 137.092 180.423 138.304 181.029C148.814 185.677 159.727 191.134 170.034 196.793C169.63 197.399 169.428 197.601 169.226 198.005ZM177.108 181.029C177.108 181.231 177.108 181.231 177.108 181.029C173.672 180.827 171.045 182.039 170.034 184.667C169.832 185.273 169.63 186.081 169.63 187.294C169.63 188.507 170.034 190.73 172.459 192.346C172.257 192.751 172.055 192.953 171.853 193.357C162.556 187.9 152.451 181.433 142.144 174.157C141.134 173.349 139.921 172.743 139.113 172.136C140.123 172.339 141.538 172.743 142.953 172.945C154.27 174.562 166.194 176.987 177.512 180.018C177.31 180.423 177.31 180.827 177.108 181.029ZM180.341 162.84C177.108 163.446 174.682 165.265 174.48 167.892C174.48 168.094 174.48 168.297 174.48 168.701C174.48 171.126 175.693 173.753 178.724 174.764C178.724 175.168 178.522 175.572 178.522 175.976C168.013 173.147 156.696 169.509 144.772 165.063C143.559 164.659 142.346 164.255 141.336 164.052C142.549 164.052 143.761 163.85 145.176 163.85C156.493 162.638 168.822 161.829 180.543 161.829C180.543 162.032 180.341 162.436 180.341 162.84Z" fill="#FFE287"/>
<circle cx="109" cy="159" r="77" stroke="url(#paint1_linear)" stroke-width="2"/>
<circle cx="109" cy="159" r="101" stroke="url(#paint2_linear)" stroke-width="2"/>
<g filter="url(#filter1_i)">
<circle cx="109" cy="159" r="50" fill="#FDD24F"/>
</g>
<path fill-rule="evenodd" clip-rule="evenodd" d="M75.6891 151.366C75.0206 152.034 75.0602 153.12 75.6313 153.873C76.8239 155.447 77.5316 157.408 77.5316 159.535C77.5316 161.508 76.9226 163.338 75.8825 164.849C75.3625 165.604 75.3512 166.648 75.9996 167.296C76.6533 167.95 77.7241 167.953 78.2831 167.217C79.9033 165.083 80.8649 162.421 80.8649 159.535C80.8649 156.439 79.7582 153.601 77.9189 151.396C77.3474 150.711 76.3201 150.735 75.6891 151.366ZM81.295 170.247C80.7145 170.958 80.7092 172.006 81.3586 172.655C82.011 173.308 83.0753 173.31 83.6701 172.604C86.646 169.074 88.4393 164.514 88.4393 159.535C88.4393 154.357 86.4998 149.632 83.3076 146.047C82.7062 145.372 81.6671 145.388 81.0276 146.027C80.3661 146.689 80.3871 147.761 80.9979 148.469C83.558 151.439 85.106 155.306 85.106 159.535C85.106 163.598 83.6773 167.326 81.295 170.247ZM87.0569 176.004C86.453 176.696 86.4496 177.746 87.0995 178.396C87.7514 179.048 88.8129 179.05 89.4241 178.36C93.8623 173.348 96.5566 166.756 96.5566 159.535C96.5566 152.12 93.7154 145.369 89.0623 140.31C88.4466 139.641 87.4026 139.652 86.7596 140.295C86.1012 140.954 86.1152 142.02 86.7402 142.711C90.7691 147.159 93.2233 153.061 93.2233 159.535C93.2233 165.839 90.8973 171.599 87.0569 176.004Z" fill="white"/>
<mask id="mask0" mask-type="alpha" maskUnits="userSpaceOnUse" x="59" y="109" width="100" height="100">
<circle cx="109" cy="159" r="50" fill="#020A0E"/>
</mask>
<g mask="url(#mask0)">
<path fill-rule="evenodd" clip-rule="evenodd" d="M129.609 180.434C130.744 180.065 131.757 179.369 132.551 178.399L139.604 203.405H174.614V112.334H133.542V113.763V140.14C130.415 138.036 127.253 137.115 124.251 137.15C120.5 137.194 117.141 138.728 114.553 141.047C109.454 145.617 107.049 153.589 110.896 159.866C114.299 165.418 117.254 169.986 119.36 173.167C120.413 174.758 121.254 176.002 121.832 176.85C122.121 177.274 122.345 177.599 122.496 177.818C122.572 177.927 122.63 178.011 122.669 178.067L122.729 178.153C122.747 178.178 122.765 178.203 122.784 178.226C124.568 180.457 127.234 181.205 129.609 180.434ZM125.764 165.903C124.179 164.318 123.286 162.17 123.279 159.929C123.264 158.256 123.745 156.617 124.659 155.217C125.574 153.816 126.882 152.718 128.419 152.058C127.933 151.09 127.134 150.315 126.152 149.859C125.169 149.403 124.061 149.294 123.008 149.548C121.956 149.803 121.02 150.407 120.355 151.261C119.689 152.116 119.333 153.17 119.343 154.253C119.343 154.608 119.202 154.949 118.951 155.2C118.7 155.451 118.36 155.592 118.005 155.592C117.65 155.592 117.309 155.451 117.058 155.2C116.807 154.949 116.666 154.608 116.666 154.253C116.67 152.401 117.36 150.616 118.603 149.242C119.845 147.869 121.552 147.004 123.395 146.814C125.237 146.624 127.085 147.124 128.581 148.216C130.077 149.308 131.116 150.915 131.498 152.727C131.562 153.071 131.493 153.426 131.304 153.72C131.115 154.014 130.82 154.224 130.48 154.307C129.111 154.636 127.909 155.453 127.1 156.605C126.29 157.757 125.928 159.164 126.083 160.564C126.237 161.963 126.897 163.258 127.938 164.206C128.979 165.154 130.331 165.689 131.738 165.712C132.094 165.712 132.434 165.853 132.685 166.104C132.936 166.355 133.077 166.695 133.077 167.05C133.07 167.403 132.927 167.74 132.677 167.989C132.428 168.239 132.091 168.382 131.738 168.389C129.497 168.382 127.349 167.488 125.764 165.903Z" fill="white"/>
</g>
<path d="M57.6008 91.7194L52.3008 84.3193L54.7008 82.6194C55.5008 82.0194 56.2008 81.8193 56.9008 81.8193C57.5008 81.8193 58.1008 82.2193 58.6008 82.8193C58.8008 83.1193 59.0008 83.5193 59.0008 83.9193C59.0008 84.3193 58.9008 84.7194 58.6008 85.1194C59.1008 84.9194 59.5008 84.9194 60.0008 85.1194C60.5008 85.2194 60.8008 85.5193 61.1008 86.0193C61.6008 86.7193 61.7008 87.3193 61.6008 88.0193C61.4008 88.7193 61.0008 89.3193 60.2008 89.9193L57.6008 91.7194ZM55.5008 86.8193L57.0008 85.7194C57.4008 85.4194 57.7008 85.0194 57.8008 84.6194C57.9008 84.2194 57.8008 83.8193 57.6008 83.5193C57.3008 83.1193 57.0008 82.9193 56.6008 82.9193C56.2008 82.9193 55.8008 83.1193 55.3008 83.4193L53.9008 84.4193L55.5008 86.8193ZM56.1008 87.5193L58.0008 90.1194L59.6008 88.9193C60.1008 88.6193 60.3008 88.2193 60.4008 87.8193C60.5008 87.4193 60.4008 87.0194 60.1008 86.6194C59.5008 85.7194 58.7008 85.6193 57.7008 86.3193L56.1008 87.5193Z" fill="white"/>
<path d="M61.5992 81.8192C61.6992 81.0192 62.0992 80.4192 62.7992 80.0192C63.9992 79.3192 65.0992 79.6192 65.8992 81.0192L68.1992 84.8192L67.1992 85.4192L64.8992 81.6192C64.5992 81.2192 64.3992 80.9192 64.0992 80.8192C63.7992 80.7192 63.3992 80.8192 62.9992 81.0192C62.6992 81.2192 62.3992 81.4192 62.2992 81.8192C62.1992 82.1192 62.0992 82.5192 62.0992 82.8192L64.5992 86.9192L63.5992 87.5192L58.6992 79.3192L59.6992 78.7192L61.5992 81.8192Z" fill="white"/>
<path d="M73.1024 82.2194C73.0024 82.1194 72.8024 81.9194 72.6024 81.6194C72.4024 82.3194 71.9024 82.9194 71.3024 83.2194C70.7024 83.5194 70.1024 83.6194 69.6024 83.4194C69.1024 83.3194 68.6024 82.9194 68.4024 82.4194C68.1024 81.8194 68.1024 81.2194 68.4024 80.6194C68.7024 80.0194 69.3024 79.5194 70.2024 79.1194L71.2024 78.6194L71.0024 78.1194C70.8024 77.7194 70.6024 77.5194 70.2024 77.4194C69.9024 77.3194 69.5024 77.3194 69.1024 77.6194C68.7024 77.8194 68.5024 78.0194 68.3024 78.3194C68.1024 78.6194 68.1024 78.9194 68.3024 79.2194L67.3024 79.7194C67.1024 79.4194 67.1024 79.1194 67.2024 78.7194C67.3024 78.3194 67.5024 77.9194 67.7024 77.6194C68.0024 77.3194 68.3024 77.0194 68.8024 76.8194C69.5024 76.5194 70.1024 76.4194 70.7024 76.5194C71.3024 76.7194 71.7024 77.0194 72.0024 77.6194L73.4024 80.4194C73.7024 81.0194 74.0024 81.4194 74.3024 81.6194V81.7194L73.1024 82.2194ZM71.0024 82.2194C71.3024 82.0194 71.6024 81.8194 71.8024 81.5194C72.0024 81.2194 72.1024 80.9194 72.1024 80.5194L71.5024 79.3194L70.7024 79.7194C69.4024 80.3194 69.0024 81.0194 69.4024 81.8194C69.6024 82.1194 69.8024 82.3194 70.1024 82.4194C70.3024 82.5194 70.7024 82.4194 71.0024 82.2194Z" fill="white"/>
<path d="M78.3011 78.0194C78.2011 77.7194 78.0011 77.5194 77.7011 77.5194C77.4011 77.5194 77.0011 77.4194 76.4011 77.5194C75.8011 77.6194 75.3011 77.6194 74.9011 77.6194C74.5011 77.6194 74.2011 77.5194 74.0011 77.3194C73.8011 77.1194 73.6011 76.9194 73.4011 76.6194C73.2011 76.1194 73.2011 75.6194 73.5011 75.0194C73.8011 74.5194 74.3011 74.1194 74.9011 73.8194C75.6011 73.5194 76.3011 73.5194 76.8011 73.6194C77.3011 73.7194 77.8011 74.2194 78.0011 74.7194L76.9011 75.1194C76.8011 74.8194 76.6011 74.6194 76.2011 74.5194C75.9011 74.4194 75.5011 74.4194 75.1011 74.6194C74.7011 74.8194 74.4011 75.0194 74.3011 75.2194C74.1011 75.5194 74.1011 75.7194 74.2011 76.0194C74.3011 76.3194 74.5011 76.4194 74.7011 76.5194C75.0011 76.5194 75.4011 76.5194 76.0011 76.4194C76.6011 76.3194 77.1011 76.3194 77.5011 76.3194C77.9011 76.3194 78.2011 76.4194 78.5011 76.6194C78.8011 76.8194 79.0011 77.0194 79.1011 77.4194C79.3011 78.0194 79.3011 78.5194 79.0011 79.0194C78.7011 79.5194 78.2011 79.9194 77.5011 80.2194C77.0011 80.4194 76.5011 80.5194 76.1011 80.5194C75.6011 80.5194 75.2011 80.4194 74.9011 80.1194C74.6011 79.9194 74.3011 79.6194 74.2011 79.2194L75.3011 78.8194C75.5011 79.1194 75.7011 79.4194 76.1011 79.5194C76.5011 79.6194 76.8011 79.6194 77.3011 79.4194C77.7011 79.2194 78.0011 79.0194 78.2011 78.8194C78.4011 78.6194 78.4011 78.3194 78.3011 78.0194Z" fill="white"/>
<path d="M80.4008 72.9195C80.7008 72.1195 81.2008 71.6195 82.0008 71.4195C83.4008 71.0195 84.3008 71.5195 84.8008 73.0195L86.2007 77.2195L85.1008 77.6195L83.7007 73.4195C83.5007 72.9195 83.3008 72.6195 83.1008 72.5195C82.9008 72.4195 82.5008 72.3195 82.0008 72.5195C81.6008 72.6195 81.4007 72.8195 81.2007 73.1195C81.0007 73.4195 80.9008 73.7195 80.8008 74.0195L82.3008 78.6195L81.2007 79.0195L78.3008 69.9195L79.4008 69.5195L80.4008 72.9195Z" fill="white"/>
<path d="M85.5 68.6193C85.5 68.4193 85.5 68.3193 85.5 68.1193C85.5 67.9193 85.7 67.8193 85.9 67.8193C86.1 67.8193 86.3 67.8193 86.4 67.9193C86.5 68.0193 86.6 68.1193 86.7 68.3193C86.7 68.5193 86.7 68.6193 86.6 68.8193C86.5 69.0193 86.4 69.1193 86.2 69.1193C86 69.2193 85.8 69.1193 85.7 69.0193C85.6 68.9193 85.5 68.8193 85.5 68.6193ZM88.8 76.6193L87.7 76.9193L86 70.4193L87.1 70.1193L88.8 76.6193Z" fill="white"/>
<path d="M90.1016 69.3192L90.3016 70.1192C90.7016 69.4192 91.3016 68.9192 92.1016 68.8192C93.5016 68.5192 94.4015 69.2192 94.7015 70.7192L95.6016 75.1192L94.5016 75.3192L93.6016 70.9192C93.5016 70.4192 93.3016 70.1192 93.1016 69.9192C92.8016 69.7192 92.5016 69.7192 92.0016 69.8192C91.6016 69.9192 91.3016 70.0192 91.1016 70.3192C90.9016 70.6192 90.7016 70.8192 90.6016 71.2192L91.5016 75.9192L90.4016 76.1192L89.1016 69.5192L90.1016 69.3192Z" fill="white"/>
<path d="M95.8008 66.5192C95.8008 66.3192 95.8008 66.2192 95.9008 66.0192C96.0008 65.8192 96.2008 65.8192 96.4008 65.7192C96.6008 65.7192 96.8008 65.7192 96.9008 65.8192C97.0008 65.9192 97.1008 66.1192 97.1008 66.2192C97.1008 66.4192 97.1008 66.5192 97.0008 66.7192C96.9008 66.8192 96.7008 66.9192 96.5008 67.0192C96.3008 67.0192 96.1008 67.0192 96.0008 66.9192C95.9008 66.8192 95.8008 66.7192 95.8008 66.5192ZM98.2007 74.8192L97.1008 75.0192L96.2007 68.3192L97.3008 68.1192L98.2007 74.8192Z" fill="white"/>
<path d="M102.602 69.5192C102.602 69.1192 102.702 68.8192 102.902 68.6192C103.102 68.4192 103.402 68.2192 103.802 68.2192C104.202 68.2192 104.502 68.3192 104.702 68.5192C104.902 68.7192 105.102 69.0192 105.102 69.4192V69.6192C105.102 70.0192 105.002 70.3192 104.802 70.5192C104.602 70.7192 104.302 70.9192 103.902 70.9192C103.502 70.9192 103.202 70.8192 103.002 70.6192C102.802 70.4192 102.602 70.1193 102.602 69.7193V69.5192Z" fill="white"/>
<path d="M112.802 70.1194C111.802 69.8194 111.102 69.4194 110.602 68.9194C110.102 68.5194 109.902 67.9194 110.002 67.3194C110.002 66.6194 110.302 66.0194 110.902 65.6194C111.502 65.2194 112.202 64.9194 113.202 65.0194C113.802 65.0194 114.402 65.2194 114.902 65.4194C115.402 65.7194 115.702 66.0194 116.002 66.4194C116.302 66.8194 116.402 67.3194 116.302 67.8194H115.102C115.102 67.3194 115.002 66.8194 114.602 66.5194C114.302 66.2194 113.802 66.0194 113.102 66.0194C112.502 66.0194 112.002 66.1194 111.702 66.3194C111.402 66.5194 111.202 66.9194 111.202 67.4194C111.202 67.8194 111.302 68.1194 111.602 68.4194C111.902 68.7194 112.402 68.9194 113.202 69.2194C114.002 69.5194 114.502 69.7194 114.902 70.0194C115.302 70.3194 115.602 70.6194 115.802 70.9194C116.002 71.2194 116.102 71.7194 116.102 72.1194C116.102 72.8194 115.802 73.4194 115.202 73.8194C114.602 74.2194 113.802 74.4194 112.902 74.4194C112.302 74.4194 111.702 74.2194 111.202 74.0194C110.702 73.7194 110.302 73.4194 110.002 73.0194C109.702 72.6194 109.602 72.1194 109.602 71.6194H110.802C110.802 72.1194 111.002 72.6194 111.402 72.9194C111.802 73.2194 112.302 73.4194 113.002 73.4194C113.602 73.4194 114.102 73.3194 114.502 73.1194C114.802 72.9194 115.002 72.5194 115.002 72.1194C115.002 71.7194 114.902 71.3194 114.602 71.1194C114.202 70.6194 113.702 70.3194 112.802 70.1194Z" fill="white"/>
<path d="M121.302 74.2191C120.802 74.7191 120.102 74.9191 119.202 74.7191C118.502 74.6191 118.002 74.3191 117.602 73.9191C117.202 73.5191 117.202 72.8191 117.302 72.0191L117.802 67.6191L118.902 67.7191L118.402 72.0191C118.302 73.0191 118.602 73.6191 119.502 73.7191C120.402 73.8191 121.002 73.5191 121.402 72.9191L122.002 68.0191L123.102 68.1191L122.302 74.8191L121.202 74.7191L121.302 74.2191Z" fill="white"/>
<path d="M126.102 68.8191L126.002 69.6191C126.602 69.1191 127.402 68.9191 128.202 69.0191C129.602 69.3191 130.102 70.2191 129.802 71.8191L128.902 76.2191L127.802 76.0191L128.702 71.6191C128.802 71.1191 128.802 70.7191 128.602 70.5191C128.402 70.2191 128.102 70.0191 127.702 70.0191C127.302 69.9191 127.002 70.0191 126.702 70.1191C126.402 70.2191 126.102 70.5191 125.902 70.7191L125.002 75.4191L123.902 75.2191L125.202 68.6191L126.102 68.8191Z" fill="white"/>
<path d="M130.802 73.2195C131.002 72.6195 131.302 72.0195 131.702 71.6195C132.102 71.2195 132.602 70.9195 133.102 70.7195C133.602 70.5195 134.202 70.6195 134.702 70.7195C135.602 71.0195 136.202 71.5195 136.602 72.2195C137.002 73.0195 137.002 73.9195 136.702 74.9195V75.0195C136.502 75.6195 136.202 76.2195 135.902 76.6195C135.502 77.0195 135.102 77.3195 134.502 77.5195C133.902 77.7195 133.402 77.6195 132.802 77.5195C131.902 77.2195 131.302 76.7195 130.902 76.0195C130.602 75.1195 130.502 74.2195 130.802 73.2195ZM131.902 73.6195C131.702 74.3195 131.702 74.9195 131.902 75.5195C132.102 76.0195 132.502 76.4195 133.102 76.5195C133.702 76.7195 134.202 76.6195 134.602 76.2195C135.102 75.9195 135.402 75.3195 135.602 74.5195C135.802 73.8195 135.802 73.2195 135.602 72.6195C135.402 72.1195 135.002 71.7195 134.402 71.6195C133.902 71.4195 133.402 71.5195 132.902 71.9195C132.402 72.3195 132.102 72.8195 131.902 73.6195Z" fill="white"/>
<path d="M141.1 80.1194L140 79.7194L143.3 71.3193L144.4 71.7194L141.1 80.1194Z" fill="white"/>
<path d="M146.501 75.1194L146.201 75.9193C146.901 75.5193 147.701 75.5193 148.401 75.9193C149.701 76.5193 150.001 77.5193 149.301 79.0193L147.401 83.0193L146.401 82.5193L148.301 78.5193C148.501 78.1193 148.601 77.7193 148.501 77.4193C148.401 77.1193 148.101 76.8194 147.701 76.7194C147.401 76.5194 147.001 76.5194 146.701 76.6194C146.401 76.7194 146.101 76.8193 145.801 77.0193L143.801 81.4193L142.801 80.9193L145.601 74.8193L146.501 75.1194Z" fill="white"/>
<path d="M150.201 80.5193C150.701 79.6193 151.301 79.0194 152.101 78.7194C152.801 78.4194 153.601 78.4193 154.201 78.8193C154.901 79.2193 155.301 79.7193 155.401 80.4193L157.101 77.3193L158.101 77.9193L153.401 86.2194L152.501 85.7194L152.801 85.0193C152.101 85.3193 151.401 85.2193 150.701 84.8193C150.001 84.4193 149.601 83.8193 149.501 83.0193C149.401 82.3193 149.601 81.5193 150.201 80.5193ZM151.101 81.2194C150.701 81.9194 150.601 82.5193 150.601 83.0193C150.701 83.5193 150.901 83.9194 151.401 84.2194C152.001 84.6194 152.701 84.5194 153.301 84.1194L154.801 81.4193C154.801 80.7193 154.501 80.1193 153.901 79.8193C153.401 79.5193 152.901 79.5194 152.401 79.7194C151.901 79.9194 151.501 80.4194 151.101 81.2194Z" fill="white"/>
<path d="M155.801 87.8192L154.801 87.2192L158.501 81.5192L159.501 82.1192L155.801 87.8192ZM159.301 80.0192C159.401 79.8192 159.501 79.7192 159.701 79.7192C159.901 79.7192 160.001 79.7192 160.201 79.8192C160.401 79.9192 160.501 80.1192 160.501 80.2192C160.501 80.4192 160.501 80.5192 160.401 80.7192C160.301 80.9192 160.201 81.0192 160.001 81.0192C159.801 81.0192 159.701 81.0192 159.501 80.9192C159.301 80.8192 159.201 80.6192 159.201 80.5192C159.201 80.3192 159.201 80.1192 159.301 80.0192Z" fill="white"/>
<path d="M160.499 91.1194C160.499 91.0194 160.599 90.7194 160.799 90.4194C159.999 90.5194 159.399 90.4194 158.799 89.9194C158.299 89.5194 157.899 89.0194 157.799 88.5194C157.699 87.9194 157.799 87.4194 158.099 87.0194C158.499 86.4194 158.999 86.1194 159.699 86.1194C160.399 86.1194 161.099 86.4194 161.899 87.0194L162.799 87.7194L163.099 87.3194C163.299 87.0194 163.399 86.6194 163.399 86.3194C163.299 86.0194 163.099 85.7194 162.699 85.4194C162.399 85.2194 161.999 85.0194 161.699 85.0194C161.399 85.0194 161.099 85.1194 160.899 85.4194L159.999 84.7194C160.199 84.4194 160.499 84.2194 160.899 84.1194C161.299 84.0194 161.699 84.0194 162.099 84.1194C162.499 84.2194 162.999 84.4194 163.399 84.7194C163.999 85.2194 164.399 85.7194 164.499 86.2194C164.599 86.8194 164.499 87.3194 164.099 87.9194L162.299 90.4194C161.899 90.9194 161.699 91.3194 161.599 91.7194L161.499 91.8194L160.499 91.1194ZM159.399 89.3194C159.699 89.5194 159.999 89.6194 160.399 89.7194C160.799 89.7194 161.099 89.7194 161.399 89.5194L162.199 88.4194L161.499 87.9194C160.399 87.1194 159.499 87.0194 159.099 87.7194C158.899 88.0194 158.799 88.3194 158.899 88.6194C158.899 88.8194 159.099 89.1194 159.399 89.3194Z" fill="white"/>
<path d="M23 195.219L31.2 191.419L32.4 194.119C32.8 195.019 32.9 195.819 32.8 196.419C32.6 197.019 32.2 197.519 31.5 197.819C31.1 198.019 30.7 198.019 30.3 197.919C29.9 197.819 29.5 197.619 29.2 197.319C29.3 197.819 29.2 198.319 29 198.719C28.8 199.119 28.4 199.419 27.9 199.719C27.2 200.019 26.5 200.119 25.8 199.819C25.2 199.519 24.6 198.919 24.2 198.119L23 195.219ZM27.4 194.519L24.4 195.919L25.2 197.719C25.4 198.219 25.7 198.519 26.1 198.719C26.5 198.919 26.9 198.919 27.4 198.619C28.4 198.119 28.6 197.419 28.1 196.319L27.4 194.519ZM28.2 194.119L29 195.719C29.2 196.219 29.5 196.519 29.9 196.719C30.3 196.919 30.7 196.919 31.1 196.719C31.6 196.519 31.8 196.219 31.9 195.819C32 195.419 31.9 195.019 31.7 194.519L31 192.919L28.2 194.119Z" fill="white"/>
<path d="M32.2 200.619C33 200.719 33.6 201.219 34 201.919C34.7 203.119 34.4 204.219 33 205.019L29.1 207.219L28.5 206.219L32.4 204.019C32.8 203.819 33.1 203.519 33.2 203.219C33.3 202.919 33.2 202.519 33 202.119C32.8 201.819 32.6 201.519 32.3 201.419C32 201.319 31.7 201.219 31.3 201.219L27.1 203.619L26.5 202.619L34.8 197.919L35.4 198.919L32.2 200.619Z" fill="white"/>
<path d="M32.5994 212.42C32.6994 212.32 32.7994 212.12 33.0994 211.92C32.2994 211.82 31.7994 211.42 31.2994 210.82C30.8994 210.22 30.7993 209.72 30.8993 209.12C30.9993 208.52 31.1994 208.12 31.6994 207.82C32.2994 207.42 32.8994 207.32 33.4994 207.52C34.0994 207.72 34.6994 208.22 35.1994 209.02L35.7994 209.92L36.1994 209.62C36.4994 209.42 36.6994 209.12 36.7994 208.82C36.8994 208.52 36.7994 208.12 36.4994 207.72C36.2994 207.42 35.9994 207.12 35.6994 207.02C35.3994 206.92 35.0994 206.92 34.7994 207.12L34.1994 206.12C34.4994 205.92 34.7994 205.82 35.1994 205.92C35.5994 206.02 35.9993 206.12 36.3993 206.32C36.7993 206.52 37.0993 206.92 37.3993 207.32C37.7993 207.92 37.9993 208.62 37.8993 209.12C37.7993 209.72 37.4994 210.22 36.9994 210.62L34.3993 212.32C33.8993 212.62 33.4994 213.02 33.2994 213.32L33.1994 213.42L32.5994 212.42ZM32.1994 210.32C32.3994 210.62 32.6994 210.82 32.9994 211.02C33.2994 211.22 33.6994 211.22 33.9994 211.22L35.0994 210.42L34.5994 209.72C33.7994 208.52 33.0993 208.22 32.3993 208.62C32.0993 208.82 31.8993 209.12 31.8993 209.42C31.8993 209.72 31.9994 210.02 32.1994 210.32Z" fill="white"/>
<path d="M38.1984 216.92C38.3984 216.72 38.5984 216.52 38.5984 216.22C38.5984 215.92 38.4984 215.52 38.1984 215.02C37.8984 214.52 37.7984 214.02 37.6984 213.62C37.5984 213.22 37.5984 212.92 37.6984 212.62C37.7984 212.32 37.9984 212.12 38.1984 211.92C38.5984 211.62 39.0984 211.52 39.6984 211.62C40.2984 211.72 40.7984 212.12 41.2984 212.62C41.7984 213.22 41.9984 213.82 41.9984 214.42C41.9984 215.02 41.6984 215.52 41.2984 215.92L40.5984 215.02C40.7984 214.82 40.9984 214.52 40.9984 214.22C40.9984 213.92 40.8984 213.52 40.5984 213.22C40.2984 212.92 40.0984 212.72 39.7984 212.62C39.4984 212.52 39.1984 212.62 38.9984 212.82C38.7984 213.02 38.6984 213.22 38.6984 213.42C38.6984 213.72 38.8984 214.12 39.0984 214.62C39.3984 215.12 39.4984 215.62 39.5984 216.02C39.6984 216.42 39.6984 216.72 39.5984 217.02C39.4984 217.32 39.2984 217.52 38.9984 217.82C38.4984 218.22 37.9984 218.32 37.3984 218.12C36.7984 217.92 36.2984 217.62 35.7984 217.02C35.4984 216.62 35.1984 216.12 35.0984 215.72C34.9984 215.32 34.9984 214.82 35.0984 214.42C35.1984 214.02 35.3984 213.72 35.7984 213.42L36.4984 214.32C36.1984 214.62 36.0984 214.92 36.0984 215.22C36.0984 215.62 36.1984 215.92 36.4984 216.32C36.7984 216.62 37.0984 216.92 37.3984 217.02C37.6984 217.12 37.9984 217.12 38.1984 216.92Z" fill="white"/>
<path d="M43.9008 217.219C44.7008 217.219 45.4008 217.419 45.9008 218.019C46.9008 219.019 46.8008 220.119 45.6008 221.219L42.3008 224.219L41.5008 223.419L44.8008 220.419C45.2008 220.119 45.3008 219.719 45.4008 219.419C45.4008 219.119 45.3008 218.819 45.0008 218.419C44.7008 218.119 44.5008 218.019 44.1008 217.919C43.7008 217.819 43.4008 217.819 43.1008 217.919L39.6008 221.219L38.8008 220.419L45.8008 213.919L46.6008 214.719L43.9008 217.219Z" fill="white"/>
<path d="M46.8005 228.519C46.8005 228.419 47.0005 228.119 47.2005 227.919C46.4005 227.919 45.8005 227.719 45.2005 227.219C44.7005 226.719 44.4005 226.219 44.4005 225.719C44.3005 225.119 44.5005 224.619 44.9005 224.219C45.4005 223.719 45.9005 223.519 46.6005 223.519C47.3005 223.519 47.9005 223.919 48.6005 224.619L49.4005 225.419L49.8005 225.019C50.1005 224.719 50.2005 224.419 50.2005 224.019C50.2005 223.719 50.0005 223.319 49.7005 223.019C49.4005 222.719 49.1005 222.619 48.7005 222.519C48.4005 222.519 48.1005 222.619 47.9005 222.819L47.1005 222.019C47.3005 221.819 47.6005 221.619 48.0005 221.519C48.4005 221.419 48.8005 221.519 49.2005 221.619C49.6005 221.719 50.0005 222.019 50.4005 222.319C51.0005 222.819 51.3005 223.419 51.3005 224.019C51.4005 224.619 51.2005 225.119 50.7005 225.619L48.6005 228.019C48.2005 228.519 47.9005 228.919 47.8005 229.219L47.7005 229.319L46.8005 228.519ZM46.0005 226.619C46.3005 226.819 46.6005 227.019 46.9005 227.119C47.3005 227.219 47.6005 227.219 47.9005 227.019L48.8005 226.019L48.1005 225.419C47.1005 224.419 46.3005 224.319 45.7005 224.919C45.5005 225.219 45.4005 225.519 45.4005 225.819C45.6005 226.019 45.7005 226.319 46.0005 226.619Z" fill="white"/>
<path d="M56.5 231.119C55.8 230.319 55.5 229.519 55.3 228.919C55.2 228.319 55.3 227.719 55.7 227.219C56.1 226.619 56.7 226.319 57.4 226.319C58.1 226.319 58.9 226.519 59.6 227.119C60.1 227.519 60.5 227.919 60.7 228.419C61 228.919 61.1 229.419 61 229.919C60.9 230.419 60.8 230.919 60.5 231.319L59.5 230.619C59.8 230.219 59.9 229.719 59.8 229.219C59.7 228.719 59.4 228.319 58.9 227.919C58.4 227.619 58 227.419 57.6 227.419C57.2 227.419 56.8 227.619 56.6 228.019C56.4 228.319 56.3 228.619 56.4 229.019C56.5 229.419 56.8 229.919 57.3 230.519C57.8 231.119 58.1 231.719 58.3 232.119C58.5 232.619 58.6 233.019 58.5 233.419C58.5 233.819 58.3 234.219 58 234.619C57.6 235.219 57 235.519 56.3 235.519C55.6 235.519 54.8 235.219 54.1 234.719C53.6 234.319 53.2 233.919 52.9 233.419C52.6 232.919 52.5 232.419 52.5 231.919C52.5 231.419 52.7 230.919 53 230.519L54 231.219C53.7 231.619 53.6 232.119 53.7 232.619C53.8 233.119 54.2 233.519 54.7 233.919C55.2 234.319 55.7 234.519 56.1 234.419C56.5 234.419 56.9 234.219 57.1 233.819C57.4 233.419 57.4 233.119 57.3 232.719C57.3 232.319 57 231.819 56.5 231.119Z" fill="white"/>
<path d="M61.7994 239.519C61.7994 239.419 61.8994 239.119 61.9994 238.819C61.2994 239.019 60.5993 238.919 59.8993 238.519C59.2993 238.219 58.9994 237.719 58.7994 237.219C58.5994 236.719 58.6994 236.119 58.9994 235.619C59.3994 235.019 59.8994 234.719 60.4994 234.619C61.1994 234.519 61.8994 234.819 62.6994 235.319L63.6994 235.919L63.9994 235.419C64.1994 235.119 64.2994 234.719 64.1994 234.419C64.0994 234.119 63.8994 233.819 63.4994 233.519C63.0994 233.319 62.7994 233.219 62.4994 233.219C62.1994 233.219 61.8994 233.419 61.6994 233.619L60.6994 233.019C60.8994 232.719 61.0994 232.519 61.4994 232.419C61.8994 232.319 62.2994 232.219 62.6994 232.319C63.0994 232.419 63.5994 232.519 63.9994 232.819C64.6994 233.219 65.0993 233.719 65.1993 234.319C65.3993 234.919 65.2993 235.419 64.8993 236.019L63.2994 238.619C62.9994 239.119 62.7994 239.619 62.6994 240.019L62.5994 240.119L61.7994 239.519ZM60.5994 237.719C60.8994 237.919 61.1994 238.019 61.5994 238.019C61.9994 238.019 62.2994 237.919 62.5994 237.719L63.2994 236.519L62.4994 236.019C61.2994 235.319 60.4994 235.219 59.9994 235.919C59.7994 236.219 59.7993 236.519 59.8993 236.819C60.0993 237.319 60.2994 237.519 60.5994 237.719Z" fill="white"/>
<path d="M68.3992 235.619L68.0992 236.319C68.7992 236.019 69.4993 236.019 70.2993 236.419C71.0993 236.819 71.5992 237.419 71.5992 238.219C71.8992 238.019 72.2992 237.919 72.6992 237.919C73.0992 237.919 73.4993 238.019 73.9993 238.219C75.2993 238.819 75.6993 239.919 74.9993 241.319L72.9993 245.419L71.9993 244.919L73.8992 240.919C74.0992 240.519 74.1992 240.119 74.0992 239.819C73.9992 239.519 73.6993 239.219 73.2993 239.019C72.8993 238.819 72.4992 238.819 72.1992 238.919C71.8992 239.019 71.4993 239.219 71.2993 239.619L69.3992 243.619L68.3992 243.119L70.2993 239.119C70.6993 238.219 70.4992 237.619 69.5992 237.219C68.8992 236.919 68.2993 236.919 67.7993 237.419L65.6992 241.819L64.6992 241.319L67.5992 235.219L68.3992 235.619Z" fill="white"/>
<path d="M79.0012 247.42C79.0012 247.32 79.0012 247.02 79.1012 246.72C78.4012 247.02 77.7012 247.12 77.0012 246.82C76.4012 246.62 75.9012 246.22 75.7012 245.72C75.5012 245.22 75.4012 244.72 75.6012 244.12C75.8012 243.42 76.3012 243.02 76.9012 242.82C77.5012 242.62 78.3012 242.72 79.2012 243.02L80.3012 243.42L80.5012 242.92C80.6012 242.52 80.6012 242.22 80.5012 241.92C80.4012 241.62 80.1012 241.42 79.6012 241.22C79.2012 241.12 78.9012 241.02 78.5012 241.12C78.2012 241.22 78.0012 241.42 77.9012 241.72L76.8012 241.32C76.9012 241.02 77.1012 240.72 77.5012 240.52C77.9012 240.32 78.2012 240.22 78.7012 240.12C79.1012 240.12 79.6012 240.12 80.1012 240.32C80.8012 240.62 81.3012 241.02 81.6012 241.52C81.9012 242.02 81.9012 242.62 81.7012 243.22L80.6012 246.12C80.4012 246.72 80.3012 247.22 80.3012 247.62V247.72L79.0012 247.42ZM77.5012 246.02C77.8012 246.12 78.2012 246.22 78.6012 246.12C79.0012 246.02 79.3012 245.92 79.5012 245.72L80.0012 244.42L79.2012 244.12C77.9012 243.62 77.1012 243.82 76.8012 244.52C76.7012 244.82 76.7012 245.12 76.9012 245.42C76.9012 245.62 77.2012 245.82 77.5012 246.02Z" fill="white"/>
<path d="M86.7015 243.819C86.5015 243.719 86.4015 243.719 86.2015 243.619C85.5015 243.419 84.9016 243.619 84.5016 244.119L83.2015 248.719L82.1016 248.419L84.0016 241.919L85.1016 242.219L84.9016 243.019C85.4016 242.519 86.0015 242.419 86.7015 242.619C86.9015 242.719 87.1015 242.719 87.2015 242.819L86.7015 243.819Z" fill="white"/>
<path d="M90.0992 241.92L89.6992 243.52L90.8992 243.82L90.6992 244.72L89.4993 244.42L88.4993 248.52C88.3993 248.82 88.3993 249.02 88.4993 249.12C88.5993 249.32 88.6993 249.42 88.9993 249.42C89.0993 249.42 89.2992 249.42 89.5992 249.52L89.3992 250.42C89.0992 250.42 88.7993 250.42 88.4993 250.32C87.9993 250.22 87.6993 249.92 87.4993 249.62C87.2993 249.22 87.2992 248.82 87.3992 248.22L88.3992 244.12L87.1992 243.82L87.3992 242.92L88.5992 243.22L88.9993 241.62L90.0992 241.92Z" fill="white"/>
<path d="M93.1016 245.019C93.7016 244.519 94.4015 244.319 95.2015 244.419C96.6015 244.619 97.2016 245.619 96.9016 247.119L96.2015 251.519L95.1016 251.319L95.8016 246.919C95.9016 246.419 95.8015 246.019 95.7015 245.819C95.6015 245.619 95.2016 245.419 94.8016 245.319C94.4016 245.219 94.1016 245.319 93.8016 245.419C93.5016 245.519 93.2016 245.819 93.0016 246.119L92.2015 250.819L91.1016 250.619L92.7015 241.219L93.8016 241.419L93.1016 245.019Z" fill="white"/>
<path d="M102.401 252.22C102.301 252.12 102.301 251.82 102.301 251.52C101.701 252.02 101.101 252.22 100.301 252.22C99.6013 252.12 99.1013 251.92 98.7013 251.52C98.3013 251.12 98.1013 250.62 98.2013 250.02C98.3013 249.32 98.6013 248.82 99.1013 248.42C99.6013 248.02 100.401 247.92 101.401 248.02L102.501 248.12V247.62C102.501 247.22 102.401 246.92 102.201 246.62C102.001 246.32 101.601 246.22 101.201 246.12C100.801 246.12 100.401 246.12 100.101 246.32C99.8013 246.52 99.6013 246.72 99.6013 247.02L98.4013 246.92C98.4013 246.62 98.6013 246.32 98.8013 246.02C99.1013 245.72 99.4013 245.52 99.8013 245.32C100.201 245.22 100.701 245.12 101.201 245.12C102.001 245.22 102.601 245.42 103.001 245.82C103.401 246.22 103.601 246.82 103.501 247.52L103.201 250.62C103.101 251.22 103.201 251.72 103.301 252.12V252.22H102.401ZM100.601 251.22C101.001 251.22 101.301 251.22 101.601 251.02C101.901 250.82 102.201 250.62 102.401 250.32L102.501 248.92L101.601 248.82C100.201 248.72 99.5013 249.02 99.4013 249.82C99.4013 250.22 99.5013 250.52 99.7013 250.72C99.9013 250.92 100.201 251.12 100.601 251.22Z" fill="white"/>
<path d="M107.502 249.319L106.802 250.019V252.419H105.602L105.802 242.819H107.002L106.902 248.619L107.502 247.919L109.602 245.719H111.002L108.302 248.519L111.202 252.519H109.802L107.502 249.319Z" fill="white"/>
<path d="M115.199 247.519C115.199 247.119 115.299 246.819 115.499 246.619C115.699 246.419 115.999 246.219 116.399 246.219C116.799 246.219 117.099 246.319 117.299 246.519C117.599 246.719 117.699 247.019 117.699 247.419V247.619C117.699 248.019 117.599 248.319 117.399 248.519C117.199 248.719 116.899 248.919 116.499 248.919C116.099 248.919 115.799 248.819 115.599 248.619C115.399 248.419 115.199 248.119 115.199 247.719V247.519Z" fill="white"/>
<path d="M130 249.019C129.8 249.519 129.4 249.919 128.9 250.219C128.4 250.519 127.8 250.719 127.1 250.919C126.4 251.019 125.7 251.019 125.1 250.819C124.5 250.619 123.9 250.219 123.5 249.619C123.1 249.019 122.8 248.319 122.6 247.519L122.5 246.719C122.2 245.419 122.4 244.319 122.9 243.419C123.4 242.519 124.2 242.019 125.3 241.819C126.2 241.619 127 241.719 127.7 242.119C128.4 242.519 128.8 243.119 129.1 243.919L127.9 244.119C127.5 243.019 126.6 242.519 125.5 242.719C124.7 242.819 124.2 243.219 123.9 243.919C123.6 244.619 123.5 245.419 123.7 246.419L123.8 247.119C124 248.119 124.4 248.919 124.9 249.419C125.4 249.919 126.1 250.119 126.9 249.919C127.3 249.819 127.7 249.719 128 249.519C128.3 249.319 128.6 249.119 128.7 248.919L128.3 246.919L126.2 247.319L126 246.319L129.2 245.719L130 249.019Z" fill="white"/>
<path d="M131.201 246.419C131.001 245.819 131.001 245.219 131.101 244.619C131.201 244.019 131.401 243.519 131.801 243.119C132.201 242.719 132.601 242.419 133.201 242.319C134.101 242.119 134.901 242.219 135.601 242.619C136.301 243.119 136.801 243.819 137.101 244.819V244.919C137.301 245.519 137.301 246.119 137.201 246.719C137.101 247.319 136.901 247.819 136.501 248.219C136.101 248.619 135.701 248.919 135.101 249.119C134.201 249.319 133.401 249.219 132.701 248.819C132.001 248.319 131.501 247.519 131.201 246.419ZM132.301 246.319C132.501 247.019 132.801 247.519 133.301 247.919C133.801 248.219 134.301 248.319 134.801 248.219C135.401 248.019 135.701 247.719 136.001 247.219C136.201 246.719 136.201 246.019 136.001 245.219C135.801 244.519 135.501 244.019 135.001 243.619C134.501 243.219 134.001 243.219 133.501 243.319C133.001 243.519 132.601 243.819 132.401 244.319C132.101 244.819 132.101 245.419 132.301 246.319Z" fill="white"/>
<path d="M140.802 247.12L139.702 247.52L136.602 238.52L137.702 238.12L140.802 247.12Z" fill="white"/>
<path d="M141.201 243.32C140.801 242.32 140.701 241.52 140.901 240.72C141.101 239.92 141.601 239.42 142.301 239.12C143.001 238.82 143.701 238.82 144.301 239.12L143.001 235.92L144.101 235.52L147.801 244.32L146.801 244.72L146.501 244.12C146.301 244.82 145.801 245.32 145.001 245.62C144.301 245.92 143.601 245.82 142.901 245.42C142.201 245.02 141.601 244.42 141.201 243.32ZM142.301 243.02C142.601 243.72 143.001 244.22 143.401 244.52C143.801 244.82 144.301 244.82 144.901 244.62C145.601 244.32 145.901 243.82 146.001 243.12L144.801 240.22C144.201 239.72 143.601 239.72 143.001 239.92C142.501 240.12 142.201 240.52 142.001 241.02C141.901 241.62 142.001 242.22 142.301 243.02Z" fill="white"/>
<path d="M157.299 236.019C157.699 236.919 157.699 237.719 157.499 238.519C157.199 239.219 156.699 239.919 155.799 240.419C154.899 240.919 153.899 241.019 152.999 240.719C152.099 240.419 151.299 239.619 150.599 238.519L150.199 237.719C149.799 237.019 149.499 236.219 149.499 235.519C149.399 234.819 149.599 234.219 149.899 233.619C150.199 233.019 150.699 232.619 151.299 232.219C152.099 231.719 152.899 231.619 153.699 231.819C154.499 232.019 155.099 232.519 155.699 233.219L154.699 233.819C154.299 233.219 153.799 232.919 153.299 232.819C152.799 232.719 152.299 232.819 151.799 233.119C151.099 233.519 150.799 234.019 150.699 234.719C150.599 235.419 150.799 236.219 151.299 237.119L151.699 237.919C152.199 238.819 152.799 239.319 153.399 239.619C153.999 239.919 154.699 239.919 155.299 239.519C155.899 239.219 156.199 238.819 156.399 238.419C156.599 238.019 156.499 237.419 156.199 236.719L157.299 236.019Z" fill="white"/>
<path d="M158.099 234.919C157.699 234.419 157.499 233.819 157.399 233.219C157.299 232.619 157.399 232.119 157.599 231.619C157.799 231.119 158.199 230.719 158.699 230.319C159.499 229.819 160.199 229.619 161.099 229.819C161.899 230.019 162.599 230.519 163.199 231.419V231.519C163.599 232.019 163.799 232.619 163.899 233.219C163.999 233.819 163.899 234.319 163.699 234.819C163.499 235.319 163.099 235.719 162.599 236.119C161.799 236.619 161.099 236.819 160.199 236.619C159.399 236.419 158.699 235.819 158.099 234.919ZM159.099 234.319C159.499 234.919 159.999 235.319 160.499 235.519C160.999 235.719 161.599 235.619 161.999 235.319C162.499 235.019 162.699 234.519 162.799 233.919C162.799 233.319 162.599 232.719 162.099 232.019C161.699 231.419 161.199 231.019 160.599 230.819C160.099 230.619 159.499 230.719 159.099 231.019C158.599 231.319 158.399 231.819 158.399 232.319C158.399 233.019 158.599 233.719 159.099 234.319Z" fill="white"/>
<path d="M163.101 227.22L163.701 227.82C163.701 227.02 164.001 226.32 164.701 225.82C165.801 224.92 166.901 225.12 167.901 226.32L170.701 229.82L169.801 230.52L167.001 227.02C166.701 226.62 166.401 226.42 166.101 226.42C165.801 226.42 165.401 226.52 165.101 226.82C164.801 227.02 164.601 227.32 164.501 227.72C164.401 228.02 164.401 228.42 164.501 228.72L167.501 232.42L166.601 233.12L162.301 227.92L163.101 227.22Z" fill="white"/>
<path d="M167.599 221.219L168.699 222.419L169.599 221.519L170.199 222.219L169.299 223.119L172.099 226.219C172.299 226.419 172.499 226.519 172.599 226.519C172.699 226.519 172.999 226.419 173.199 226.319C173.299 226.219 173.399 226.119 173.599 225.919L174.199 226.619C173.999 226.919 173.799 227.119 173.599 227.319C173.199 227.619 172.799 227.819 172.399 227.719C171.999 227.619 171.599 227.419 171.199 227.019L168.399 223.919L167.499 224.719L166.899 224.019L167.799 223.219L166.699 222.019L167.599 221.219Z" fill="white"/>
<path d="M173.5 219.119C173.4 219.219 173.2 219.319 173.1 219.519C172.6 220.019 172.4 220.619 172.7 221.319L176.1 224.719L175.3 225.519L170.5 220.819L171.3 220.019L171.9 220.519C171.7 219.819 171.9 219.219 172.4 218.719C172.6 218.519 172.7 218.419 172.8 218.419L173.5 219.119Z" fill="white"/>
<path d="M172.098 216.519C171.998 216.419 171.898 216.219 171.898 216.119C171.898 216.019 171.898 215.819 172.098 215.619C172.298 215.419 172.398 215.419 172.598 215.419C172.798 215.419 172.898 215.519 173.098 215.619C173.198 215.719 173.298 215.919 173.298 216.019C173.298 216.219 173.198 216.319 173.098 216.519C172.898 216.719 172.798 216.719 172.598 216.719C172.398 216.619 172.298 216.619 172.098 216.519ZM179.298 221.319L178.498 222.219L173.498 217.719L174.298 216.819L179.298 221.319Z" fill="white"/>
<path d="M181.701 213.22C182.501 213.82 183.001 214.62 183.201 215.32C183.401 216.12 183.201 216.82 182.701 217.42C182.201 218.12 181.501 218.42 180.801 218.42L181.401 218.92L180.701 219.72L173.301 213.72L174.001 212.82L176.801 215.02C176.601 214.32 176.801 213.62 177.301 213.02C177.801 212.42 178.501 212.12 179.201 212.12C180.001 212.12 180.801 212.52 181.701 213.22ZM180.901 214.02C180.301 213.52 179.701 213.22 179.201 213.22C178.701 213.22 178.201 213.42 177.901 213.82C177.401 214.42 177.401 215.02 177.701 215.72L180.001 217.52C180.801 217.72 181.401 217.52 181.901 216.92C182.201 216.52 182.401 216.02 182.201 215.52C182.001 215.12 181.501 214.62 180.901 214.02Z" fill="white"/>
<path d="M187.099 210.02C187.299 210.72 187.099 211.42 186.599 212.12C186.199 212.72 185.699 213.02 185.199 213.12C184.699 213.22 183.999 213.02 183.299 212.52L179.699 210.02L180.399 209.02L183.999 211.52C184.799 212.12 185.499 212.02 185.999 211.32C186.499 210.62 186.599 209.92 186.199 209.32L182.199 206.52L182.899 205.52L188.499 209.32L187.899 210.22L187.099 210.02Z" fill="white"/>
<path d="M183 202.119L184.4 202.919L185 201.819L185.8 202.319L185.2 203.419L188.8 205.519C189 205.619 189.2 205.719 189.4 205.719C189.6 205.719 189.7 205.519 189.9 205.319C190 205.219 190 205.019 190.1 204.819L190.9 205.319C190.8 205.619 190.7 205.919 190.6 206.119C190.3 206.519 190 206.819 189.6 206.919C189.2 207.019 188.8 206.919 188.3 206.619L184.7 204.519L184.1 205.619L183.3 205.119L183.9 204.019L182.5 203.219L183 202.119Z" fill="white"/>
<path d="M188.398 202.719C187.798 202.419 187.298 202.019 186.998 201.519C186.598 201.019 186.498 200.519 186.398 200.019C186.398 199.519 186.498 198.919 186.698 198.419C187.098 197.619 187.698 197.119 188.598 196.919C189.498 196.719 190.298 196.819 191.198 197.319H191.298C191.898 197.619 192.298 198.019 192.698 198.419C193.098 198.819 193.198 199.419 193.298 199.919C193.298 200.419 193.198 201.019 192.998 201.519C192.598 202.319 191.998 202.819 191.098 203.019C190.298 203.319 189.398 203.219 188.398 202.719ZM189.098 201.719C189.798 202.019 190.398 202.219 190.898 202.119C191.498 202.019 191.898 201.719 192.098 201.219C192.398 200.719 192.398 200.219 192.098 199.619C191.798 199.119 191.398 198.619 190.598 198.319C189.898 198.019 189.298 197.819 188.798 197.919C188.298 198.019 187.798 198.319 187.498 198.819C187.198 199.319 187.198 199.819 187.498 200.319C187.798 200.919 188.298 201.319 189.098 201.719Z" fill="white"/>
<path d="M190.999 191.92C190.899 192.02 190.799 192.22 190.699 192.42C190.399 193.12 190.499 193.72 190.999 194.22L195.399 196.12L194.899 197.22L188.699 194.52L189.099 193.52L189.799 193.82C189.399 193.22 189.299 192.62 189.599 192.02C189.699 191.82 189.799 191.62 189.899 191.62L190.999 191.92Z" fill="white"/>
<defs>
<filter id="filter0_ii" x="0" y="50" width="218" height="218" filterUnits="userSpaceOnUse" color-interpolation-filters="sRGB">
<feFlood flood-opacity="0" result="BackgroundImageFix"/>
<feBlend mode="normal" in="SourceGraphic" in2="BackgroundImageFix" result="shape"/>
<feColorMatrix in="SourceAlpha" type="matrix" values="0 0 0 0 0 0 0 0 0 0 0 0 0 0 0 0 0 0 127 0" result="hardAlpha"/>
<feOffset/>
<feGaussianBlur stdDeviation="4"/>
<feComposite in2="hardAlpha" operator="arithmetic" k2="-1" k3="1"/>
<feColorMatrix type="matrix" values="0 0 0 0 0.9875 0 0 0 0 0.722843 0 0 0 0 0.386771 0 0 0 1 0"/>
<feBlend mode="normal" in2="shape" result="effect1_innerShadow"/>
<feColorMatrix in="SourceAlpha" type="matrix" values="0 0 0 0 0 0 0 0 0 0 0 0 0 0 0 0 0 0 127 0" result="hardAlpha"/>
<feOffset/>
<feGaussianBlur stdDeviation="6"/>
<feComposite in2="hardAlpha" operator="arithmetic" k2="-1" k3="1"/>
<feColorMatrix type="matrix" values="0 0 0 0 0 0 0 0 0 0 0 0 0 0 0 0 0 0 0.2 0"/>
<feBlend mode="normal" in2="effect1_innerShadow" result="effect2_innerShadow"/>
</filter>
<filter id="filter1_i" x="59" y="109" width="100" height="100" filterUnits="userSpaceOnUse" color-interpolation-filters="sRGB">
<feFlood flood-opacity="0" result="BackgroundImageFix"/>
<feBlend mode="normal" in="SourceGraphic" in2="BackgroundImageFix" result="shape"/>
<feColorMatrix in="SourceAlpha" type="matrix" values="0 0 0 0 0 0 0 0 0 0 0 0 0 0 0 0 0 0 127 0" result="hardAlpha"/>
<feOffset/>
<feGaussianBlur stdDeviation="6"/>
<feComposite in2="hardAlpha" operator="arithmetic" k2="-1" k3="1"/>
<feColorMatrix type="matrix" values="0 0 0 0 0.75 0 0 0 0 0.525098 0 0 0 0 0.00937498 0 0 0 1 0"/>
<feBlend mode="normal" in2="shape" result="effect1_innerShadow"/>
</filter>
<linearGradient id="paint0_linear" x1="51.775" y1="57.4937" x2="233.571" y2="236.338" gradientUnits="userSpaceOnUse">
<stop stop-color="white"/>
<stop offset="1" stop-color="#E3BC43"/>
</linearGradient>
<linearGradient id="paint1_linear" x1="174.52" y1="213.6" x2="38.8" y2="107.52" gradientUnits="userSpaceOnUse">
<stop stop-color="#FFFEFB"/>
<stop offset="1" stop-color="#8C6A00" stop-opacity="0"/>
</linearGradient>
<linearGradient id="paint2_linear" x1="194.68" y1="230.4" x2="17.2" y2="91.68" gradientUnits="userSpaceOnUse">
<stop stop-color="#FFFEFC"/>
<stop offset="1" stop-color="#8C6A00" stop-opacity="0"/>
</linearGradient>
</defs>
</svg>
