<svg width="218" height="266" viewBox="0 0 218 266" fill="none" xmlns="http://www.w3.org/2000/svg">
<path d="M86.0098 29.7983C84.9084 29.7983 84.0273 30.669 84.0273 31.7573V50.0412C84.0273 51.1295 84.9084 52.0002 86.0098 52.0002H131.385C132.487 52.0002 133.368 51.1295 133.368 50.0412V31.7573C133.368 30.669 132.487 29.7983 131.385 29.7983H86.0098ZM129.403 44.1642C129.403 45.2526 128.522 46.1232 127.42 46.1232H90.1949C89.0935 46.1232 88.2125 45.2526 88.2125 44.1642V35.893C88.2125 34.8046 89.0935 33.934 90.1949 33.934H127.42C128.522 33.934 129.403 34.8046 129.403 35.893V44.1642Z" fill="#D9B68B"/>
<path d="M140.045 0L114.918 37.8775H127.37L155.388 0H140.045Z" fill="#0FA711"/>
<path d="M127.377 0L102.473 37.8775H114.925L140.052 0H127.377Z" fill="white"/>
<path d="M114.924 0L90.0195 37.8775H102.472L127.376 0H114.924Z" fill="#FF7600"/>
<path d="M90.0177 37.8775H102.47L77.343 0H62L90.0177 37.8775Z" fill="#FF7600"/>
<path d="M102.471 37.8775H114.923L90.0184 0H77.3438L102.471 37.8775Z" fill="white"/>
<path opacity="0.5" d="M110.695 6.27979L104.469 15.6931L119.145 37.8818H127.372L129.596 34.744L110.695 6.27979Z" fill="#3E4347"/>
<path d="M114.924 37.8775H127.376L102.472 0H90.0195L114.924 37.8775Z" fill="#0FA711"/>
<g filter="url(#filter0_ii)">
<path d="M218 157C218 217.199 169.199 266 109 266C48.801 266 0 217.199 0 157C0 96.801 48.801 48 109 48C169.199 48 218 96.801 218 157Z" fill="#C18A43" fill-opacity="0.7"/>
</g>
<path d="M214.5 157C214.5 215.266 167.266 262.5 109 262.5C50.734 262.5 3.5 215.266 3.5 157C3.5 98.734 50.734 51.5 109 51.5C167.266 51.5 214.5 98.734 214.5 157Z" stroke="#E29435" stroke-width="7"/>
<path d="M214.5 157C214.5 215.266 167.266 262.5 109 262.5C50.734 262.5 3.5 215.266 3.5 157C3.5 98.734 50.734 51.5 109 51.5C167.266 51.5 214.5 98.734 214.5 157Z" stroke="url(#paint0_linear)" stroke-width="7"/>
<path d="M196 157C196 205.049 157.049 244 109 244C60.9512 244 22 205.049 22 157C22 108.951 60.9512 70 109 70C157.049 70 196 108.951 196 157Z" fill="#764B16" stroke="#805726" stroke-width="30"/>
<path d="M109.001 80C66.5595 80 32 114.357 32 157.001C32 199.645 66.3574 234.002 109.001 234.002C151.645 234.002 186.002 199.645 186.002 157.001C186.002 114.357 151.442 80 109.001 80ZM93.6412 87.4778C93.8433 87.4778 93.8433 87.4778 93.6412 87.4778C95.0559 90.5093 97.6833 92.3282 100.311 91.7219C102.938 91.3177 105.565 89.4988 105.767 85.861C106.172 85.861 106.576 85.861 106.98 85.861C106.98 96.7745 106.172 108.496 104.959 121.229C104.757 122.441 104.757 123.654 104.757 124.867C104.353 123.856 103.948 122.644 103.544 121.229C99.3001 110.517 95.4601 98.9976 92.4286 87.6799C93.0349 87.6799 93.237 87.4778 93.6412 87.4778ZM76.0583 93.743C78.2814 96.3703 81.1109 97.3808 83.5361 96.1682C86.3655 94.9556 87.9823 92.1261 87.376 89.0946C87.7802 88.8925 88.1844 88.8925 88.5886 88.6904C91.216 99.1997 93.8433 110.72 95.8643 123.452C96.0664 124.867 96.2685 125.877 96.6727 127.09C96.0664 126.079 95.4601 125.069 94.4496 123.856C87.5781 114.559 80.9088 104.454 75.0478 94.3493C75.2499 94.1472 75.6541 93.9451 76.0583 93.743ZM60.4964 104.656C63.3259 106.475 66.3574 106.678 68.3784 105.061C69.9952 103.848 70.8036 102.029 70.8036 100.21C70.8036 99.1997 70.6015 98.1892 69.9952 97.3808C70.3994 97.1787 70.6015 96.9766 71.0057 96.7745C76.4625 106.071 81.7172 116.783 87.1739 128.302C87.7802 129.515 88.3865 130.526 88.7907 131.536C87.9823 130.728 86.9718 129.919 85.9613 129.111C77.0688 121.633 67.9742 113.549 59.688 105.465C59.8901 105.061 60.2943 104.859 60.4964 104.656ZM48.3703 119.006C48.5724 119.006 48.5724 119.006 48.3703 119.006C51.6039 120.016 54.6355 119.612 56.0502 117.389C56.4544 116.783 57.4649 115.166 57.4649 113.549C57.4649 112.538 57.0607 110.922 55.8481 109.507C56.0502 109.305 56.4544 108.901 56.6565 108.699C64.3364 116.378 72.2184 125.271 80.5046 134.972C81.313 135.982 82.1214 136.791 82.9298 137.599C81.9193 136.993 80.7067 136.589 79.494 135.982C68.9847 131.132 58.0712 125.675 47.764 120.016C47.9661 119.612 48.1682 119.41 48.3703 119.006ZM40.4883 135.982C40.4883 135.982 40.4883 135.78 40.4883 135.982C43.924 136.184 46.5514 134.972 47.5619 132.344C47.764 131.738 47.9661 130.93 47.9661 129.717C47.9661 128.505 47.5619 126.281 45.1367 124.665C45.3388 124.26 45.5409 124.058 45.743 123.654C55.0397 129.111 65.1448 135.578 75.452 142.854C76.4625 143.662 77.6751 144.269 78.4835 144.875C77.473 144.673 76.0583 144.471 74.6436 144.066C63.3259 142.45 51.4018 140.024 39.882 136.993C40.2862 136.791 40.4883 136.387 40.4883 135.982ZM37.2547 154.374C37.2547 154.374 37.2547 154.172 37.2547 154.374C40.4883 153.767 42.9135 151.746 43.1156 149.119C43.1156 148.917 43.1156 148.715 43.1156 148.311C43.1156 145.885 41.903 143.258 38.8715 142.248C38.8715 141.843 39.0736 141.439 39.0736 141.035C49.5829 143.864 60.9006 147.704 72.8247 151.948C74.0373 152.353 75.2499 152.757 76.2604 152.959C75.0478 152.959 73.8352 153.161 72.4205 153.161C61.1027 154.576 48.7745 155.182 37.0526 155.384C37.2547 155.182 37.2547 154.778 37.2547 154.374ZM38.8715 173.169C38.8715 172.967 38.8715 172.967 38.8715 173.169C41.4988 171.754 43.1156 169.733 43.1156 167.308C43.1156 167.106 43.1156 166.702 43.1156 166.5C42.7114 163.872 40.8925 161.245 37.2547 161.043C37.2547 160.639 37.2547 160.235 37.2547 159.83C48.1682 159.83 59.8901 160.437 72.6226 161.447C74.0373 161.649 75.2499 161.649 76.2604 161.649C75.2499 162.054 74.0373 162.458 72.6226 162.862C61.9111 167.106 50.3913 170.946 39.0736 174.18C39.0736 173.978 39.0736 173.573 38.8715 173.169ZM45.3387 190.752C45.3387 190.752 45.3387 190.55 45.3387 190.752C47.1577 189.135 48.1682 187.316 48.1682 185.295C48.1682 184.487 47.9661 183.881 47.764 183.274C46.7535 180.849 44.3282 178.828 40.6904 179.636C40.4883 179.232 40.4883 178.828 40.2862 178.424C50.7955 175.594 62.3153 173.169 74.8457 170.946C76.2604 170.744 77.2709 170.34 78.4835 170.138C77.473 170.744 76.4625 171.35 75.2499 172.361C65.9532 179.232 55.8481 185.902 45.743 191.965C45.743 191.358 45.5409 191.156 45.3387 190.752ZM56.2523 206.112C57.2628 204.495 57.667 203.08 57.667 201.463C57.667 200.251 57.2628 199.038 56.4544 198.23C54.8376 196.209 51.806 194.794 48.5724 196.411C48.3703 196.007 48.1682 195.805 47.9661 195.4C57.2628 189.944 67.9742 184.487 79.494 179.03C80.7067 178.424 81.7172 177.818 82.7277 177.413C81.9193 178.222 81.1109 179.232 80.3024 180.243C73.2289 189.337 65.1448 198.432 57.0607 206.92C56.8586 206.718 56.4544 206.516 56.2523 206.112ZM70.6015 218.036C70.8036 216.823 71.0057 215.813 71.0057 214.802C71.0057 212.781 70.1973 211.164 68.7826 210.356C66.7616 208.941 63.528 208.133 60.9006 210.76C60.4964 210.558 60.2943 210.154 60.0922 209.952C67.7721 202.272 76.4625 194.188 86.1634 186.104C87.1739 185.295 87.9823 184.487 88.7907 183.678C88.1844 184.689 87.7802 185.902 87.1739 187.114C82.7277 197.624 77.473 208.537 71.612 218.642C71.4099 218.44 71.0057 218.238 70.6015 218.036ZM87.5781 225.918C87.7802 222.482 86.3655 219.855 83.9403 218.844C81.5151 218.036 78.2814 218.238 76.2604 221.27C75.8562 221.067 75.6541 220.865 75.2499 220.663C80.7066 211.367 86.9718 201.261 94.2475 190.752C95.0559 189.539 95.6622 188.529 96.2685 187.721C96.0664 188.731 95.8643 190.146 95.4601 191.56C93.8433 202.878 91.4181 214.802 88.5886 226.322C88.3865 226.12 87.9823 226.12 87.5781 225.918ZM105.969 228.949C105.363 225.716 103.342 223.291 100.715 223.088C98.0874 222.886 95.0559 223.897 94.0454 227.333C93.6412 227.333 93.237 227.13 92.8328 227.13C95.6622 216.621 99.3001 205.303 103.544 193.379C103.948 192.167 104.353 190.954 104.555 189.944C104.555 191.156 104.757 192.369 104.757 193.784C106.172 205.101 106.98 217.43 107.182 229.151C106.778 229.151 106.374 229.151 105.969 228.949ZM178.928 142.45C176.301 143.864 174.482 145.885 174.482 148.311C174.482 148.513 174.482 148.917 174.482 149.119C174.886 151.746 176.705 154.374 180.343 154.576C180.343 154.98 180.343 155.384 180.343 155.788C169.632 155.788 157.708 154.98 144.975 153.767C143.56 153.565 142.348 153.565 141.337 153.565C142.348 153.161 143.56 152.757 144.975 152.353C155.687 148.108 167.206 144.269 178.524 141.237C178.726 141.641 178.726 142.045 178.928 142.45ZM172.663 124.867C172.663 124.867 172.663 125.069 172.663 124.867C170.844 126.484 169.834 128.302 169.834 130.323C169.834 131.132 170.036 131.738 170.238 132.344C171.248 134.77 173.674 136.791 177.312 136.184C177.514 136.589 177.514 136.993 177.716 137.397C167.206 140.024 155.485 142.45 142.954 144.673C141.539 144.875 140.529 145.077 139.316 145.481C140.327 144.875 141.337 144.269 142.55 143.46C151.847 136.387 161.952 129.717 172.057 123.856C172.259 124.26 172.461 124.463 172.663 124.867ZM162.154 109.709C161.143 111.326 160.537 112.943 160.537 114.357C160.537 115.57 160.941 116.783 161.75 117.591C163.366 119.612 166.196 121.027 169.43 119.41C169.632 119.814 169.834 120.016 170.036 120.42C160.537 125.675 150.028 131.132 138.306 136.184C137.093 136.791 136.083 137.195 135.072 137.801C135.881 136.993 136.689 135.982 137.7 134.972C144.975 126.079 153.059 116.985 161.345 108.699C161.548 109.103 161.952 109.305 162.154 109.709ZM147.603 97.1787C147.603 97.1787 147.805 97.3808 147.603 97.1787C147.4 98.3913 146.996 99.4018 146.996 100.412C146.996 102.231 147.805 103.848 149.219 104.859C151.24 106.273 154.474 107.082 157.101 104.656C157.303 104.859 157.708 105.263 157.91 105.465C150.23 113.145 141.337 121.027 131.434 129.111C130.424 129.919 129.413 130.728 128.807 131.536C129.413 130.526 129.818 129.515 130.424 128.1C135.072 117.591 140.529 106.678 146.39 96.5724C146.996 96.7745 147.198 96.9766 147.603 97.1787ZM130.626 89.2967C130.828 89.2967 130.828 89.2967 130.626 89.2967C130.424 92.7324 131.839 95.3598 134.264 96.3703C136.689 97.3808 139.923 97.1787 141.944 93.9451C142.348 94.1472 142.55 94.3493 142.954 94.5514C137.497 103.848 131.03 113.751 123.552 124.26C122.744 125.271 122.138 126.281 121.531 127.292C121.733 126.281 122.138 124.867 122.34 123.452C124.159 112.134 126.584 100.21 129.413 88.8925C130.02 88.8925 130.222 89.0946 130.626 89.2967ZM112.437 85.861C112.437 85.861 112.639 85.861 112.437 85.861C113.043 89.0946 115.064 91.5198 117.691 91.7219C120.319 91.924 123.35 90.9135 124.563 87.4778C124.967 87.4778 125.371 87.6799 125.775 87.6799C122.946 98.1892 119.106 109.507 114.66 121.229C114.256 122.441 113.851 123.654 113.447 124.665C113.447 123.452 113.245 122.239 113.245 120.825C112.033 109.507 111.224 97.1787 111.224 85.4568C111.628 85.861 112.033 85.861 112.437 85.861ZM124.361 227.333C122.744 224.301 120.319 222.684 117.691 223.088C115.064 223.493 112.437 225.312 112.235 228.949C111.83 228.949 111.426 228.949 111.022 228.949C111.022 218.036 111.628 206.314 112.841 193.581C113.043 192.369 113.043 191.358 113.043 190.348C113.043 190.146 113.043 190.146 113.043 189.944C113.447 190.954 113.851 192.167 114.256 193.581C118.5 204.293 122.34 215.813 125.573 227.13C125.169 227.333 124.765 227.333 124.361 227.333ZM141.742 221.067C141.742 221.067 141.539 221.067 141.742 221.067C139.518 218.44 136.689 217.43 134.264 218.642C131.434 219.855 129.818 222.684 130.626 225.716C130.222 225.918 129.818 225.918 129.413 226.12C126.584 215.611 124.159 204.091 122.138 191.56C121.936 190.146 121.733 189.135 121.329 187.923C121.936 188.933 122.542 189.944 123.552 191.156C130.424 200.453 137.093 210.558 142.954 220.663C142.348 220.865 142.146 220.865 141.742 221.067ZM157.303 210.154C157.303 210.356 157.303 210.356 157.303 210.154C154.474 208.335 151.442 208.133 149.421 209.75C147.805 210.962 146.996 212.781 146.996 214.6C146.996 215.611 147.198 216.621 147.805 217.43C147.4 217.632 147.198 217.834 146.794 218.036C141.337 208.739 135.881 198.028 130.626 186.508C130.02 185.295 129.413 184.285 129.009 183.274C129.818 184.083 130.828 184.891 131.839 185.699C140.933 192.773 150.028 200.857 158.314 209.143C157.91 209.75 157.708 209.952 157.303 210.154ZM169.227 196.007C169.227 196.007 169.227 196.209 169.227 196.007C165.994 194.996 162.962 195.4 161.548 197.624C161.143 198.23 160.133 199.847 160.133 201.463C160.133 202.474 160.537 204.091 161.75 205.506C161.548 205.708 161.143 206.112 160.941 206.314C153.261 198.634 145.379 189.742 137.295 180.041C136.487 179.03 135.678 178.02 134.87 177.413C135.881 178.02 137.093 178.424 138.306 179.03C148.815 183.678 159.729 189.135 170.036 194.794C169.632 195.4 169.43 195.603 169.227 196.007ZM177.109 179.03C177.109 179.232 177.109 179.232 177.109 179.03C173.674 178.828 171.046 180.041 170.036 182.668C169.834 183.274 169.632 184.083 169.632 185.295C169.632 186.508 170.036 188.731 172.461 190.348C172.259 190.752 172.057 190.954 171.855 191.358C162.558 185.902 152.453 179.434 142.146 172.159C141.135 171.35 139.923 170.744 139.114 170.138C140.125 170.34 141.539 170.744 142.954 170.946C154.272 172.563 166.196 174.988 177.514 178.02C177.312 178.424 177.312 178.828 177.109 179.03ZM180.343 160.841C177.109 161.447 174.684 163.266 174.482 165.893C174.482 166.096 174.482 166.298 174.482 166.702C174.482 169.127 175.695 171.754 178.726 172.765C178.726 173.169 178.524 173.573 178.524 173.978C168.015 171.148 156.697 167.51 144.773 163.064C143.56 162.66 142.348 162.256 141.337 162.054C142.55 162.054 143.763 161.851 145.177 161.851C156.495 160.639 168.823 159.83 180.545 159.83C180.545 160.033 180.343 160.437 180.343 160.841Z" fill="#D9B68B"/>
<circle cx="109" cy="157" r="77" stroke="url(#paint1_linear)" stroke-width="2"/>
<circle cx="109" cy="157" r="101" stroke="url(#paint2_linear)" stroke-width="2"/>
<g filter="url(#filter1_i)">
<circle cx="109" cy="157" r="50" fill="#805726"/>
</g>
<path fill-rule="evenodd" clip-rule="evenodd" d="M75.6891 149.366C75.0206 150.034 75.0602 151.12 75.6313 151.873C76.8239 153.447 77.5316 155.408 77.5316 157.535C77.5316 159.508 76.9226 161.338 75.8825 162.849C75.3625 163.604 75.3512 164.648 75.9996 165.296C76.6533 165.95 77.7241 165.953 78.2831 165.217C79.9033 163.083 80.8649 160.421 80.8649 157.535C80.8649 154.439 79.7582 151.601 77.9189 149.396C77.3474 148.711 76.3201 148.735 75.6891 149.366ZM81.295 168.247C80.7145 168.958 80.7092 170.006 81.3586 170.655C82.011 171.308 83.0753 171.31 83.6701 170.604C86.646 167.074 88.4393 162.514 88.4393 157.535C88.4393 152.357 86.4998 147.632 83.3076 144.047C82.7062 143.372 81.6671 143.388 81.0276 144.027C80.3661 144.689 80.3871 145.761 80.9979 146.469C83.558 149.439 85.106 153.306 85.106 157.535C85.106 161.598 83.6773 165.326 81.295 168.247ZM87.0569 174.004C86.453 174.696 86.4496 175.746 87.0995 176.396C87.7514 177.048 88.8129 177.05 89.4241 176.36C93.8623 171.348 96.5566 164.756 96.5566 157.535C96.5566 150.12 93.7154 143.369 89.0623 138.31C88.4466 137.641 87.4026 137.652 86.7596 138.295C86.1012 138.954 86.1152 140.02 86.7402 140.711C90.7691 145.159 93.2233 151.061 93.2233 157.535C93.2233 163.839 90.8973 169.599 87.0569 174.004Z" fill="#FFE4C1"/>
<mask id="mask0" mask-type="alpha" maskUnits="userSpaceOnUse" x="59" y="107" width="100" height="100">
<circle cx="109" cy="157" r="50" fill="#805726"/>
</mask>
<g mask="url(#mask0)">
<path fill-rule="evenodd" clip-rule="evenodd" d="M129.609 178.434C130.744 178.065 131.757 177.369 132.551 176.399L139.604 201.405H174.614V110.334H133.542V111.763V138.14C130.415 136.036 127.253 135.115 124.251 135.15C120.5 135.194 117.141 136.728 114.553 139.047C109.454 143.617 107.049 151.589 110.896 157.866C114.299 163.418 117.254 167.986 119.36 171.167C120.413 172.758 121.254 174.002 121.832 174.85C122.121 175.274 122.345 175.599 122.496 175.818C122.572 175.927 122.63 176.011 122.669 176.067L122.729 176.153C122.747 176.178 122.765 176.203 122.784 176.226C124.568 178.457 127.234 179.205 129.609 178.434ZM125.764 163.903C124.179 162.318 123.286 160.17 123.279 157.929C123.264 156.256 123.745 154.617 124.659 153.217C125.574 151.816 126.882 150.718 128.419 150.058C127.933 149.09 127.134 148.315 126.152 147.859C125.169 147.403 124.061 147.294 123.008 147.548C121.956 147.803 121.02 148.407 120.355 149.261C119.689 150.116 119.333 151.17 119.343 152.253C119.343 152.608 119.202 152.949 118.951 153.2C118.7 153.451 118.36 153.592 118.005 153.592C117.65 153.592 117.309 153.451 117.058 153.2C116.807 152.949 116.666 152.608 116.666 152.253C116.67 150.401 117.36 148.616 118.603 147.242C119.845 145.869 121.552 145.004 123.395 144.814C125.237 144.624 127.085 145.124 128.581 146.216C130.077 147.308 131.116 148.915 131.498 150.727C131.562 151.071 131.493 151.426 131.304 151.72C131.115 152.014 130.82 152.224 130.48 152.307C129.111 152.636 127.909 153.453 127.1 154.605C126.29 155.757 125.928 157.164 126.083 158.564C126.237 159.963 126.897 161.258 127.938 162.206C128.979 163.154 130.331 163.689 131.738 163.712C132.094 163.712 132.434 163.853 132.685 164.104C132.936 164.355 133.077 164.695 133.077 165.05C133.07 165.403 132.927 165.74 132.677 165.989C132.428 166.239 132.091 166.382 131.738 166.389C129.497 166.382 127.349 165.488 125.764 163.903Z" fill="#FFE4C1"/>
</g>
<path d="M50.6016 81.3002L53.1016 79.4002C53.4016 79.2002 53.7016 79.0002 54.1016 78.9002C54.4016 78.8002 54.7016 78.7002 55.0016 78.7002C55.3016 78.7002 55.6016 78.8002 55.9016 78.9002C56.2016 79.0002 56.4016 79.3002 56.7016 79.6002C57.0016 80.0002 57.1016 80.4002 57.1016 80.9002C57.1016 81.3002 56.9016 81.8002 56.6016 82.1002C56.8016 82.0002 57.1016 81.9002 57.3016 81.8002C57.5016 81.7002 57.8016 81.8002 58.1016 81.8002C58.4016 81.8002 58.6016 82.0002 58.8016 82.1002C59.0016 82.3002 59.3016 82.4002 59.4016 82.7002C59.6016 83.0002 59.8016 83.4002 59.8016 83.7002C59.9016 84.0002 59.8016 84.4002 59.7016 84.7002C59.6016 85.0002 59.4016 85.4002 59.2016 85.7002C59.0016 86.0002 58.7016 86.3002 58.3016 86.6002L55.8016 88.4002L50.6016 81.3002ZM53.9016 83.6002L55.2016 82.6002C55.4016 82.5002 55.5016 82.3002 55.7016 82.2002C55.9016 82.1002 55.9016 81.9002 56.0016 81.7002C56.1016 81.5002 56.1016 81.3002 56.0016 81.1002C56.0016 80.9002 55.9016 80.7002 55.7016 80.5002C55.5016 80.2002 55.2016 80.0002 54.9016 80.0002C54.6016 79.9002 54.2016 80.0002 53.8016 80.3002L52.3016 81.4002L53.9016 83.6002ZM56.4016 86.9002L57.8016 85.8002C58.0016 85.7002 58.1016 85.6002 58.3016 85.4002C58.5016 85.2002 58.6016 85.0002 58.7016 84.8002C58.8016 84.6002 58.8016 84.4002 58.8016 84.1002C58.8016 83.8002 58.7016 83.6002 58.5016 83.4002C58.2016 83.0002 57.8016 82.8002 57.4016 82.7002C57.0016 82.7002 56.5016 82.9002 56.0016 83.2002L54.5016 84.3002L56.4016 86.9002Z" fill="white"/>
<path d="M56.9023 75.9999L57.9023 75.3999L60.3023 79.2999C60.3023 78.8999 60.3023 78.5999 60.5023 78.1999C60.7023 77.7999 61.0023 77.4999 61.4023 77.2999C61.6023 77.0999 61.9023 76.9999 62.2023 76.9999C62.5023 76.8999 62.7023 76.8999 63.0023 76.9999C63.3023 77.0999 63.5023 77.1999 63.8023 77.3999C64.1023 77.5999 64.3023 77.8999 64.5023 78.1999L66.5023 81.4999L65.5023 82.0999L63.6023 79.0999C63.5023 78.8999 63.3023 78.6999 63.1023 78.4999C62.9023 78.3999 62.8023 78.2999 62.6023 78.1999C62.4023 78.1999 62.3023 78.1999 62.1023 78.1999C61.9023 78.1999 61.8023 78.2999 61.6023 78.3999C61.4023 78.4999 61.2023 78.6999 61.1023 78.7999C61.0023 78.9999 60.9023 79.1999 60.8023 79.3999C60.7023 79.5999 60.8023 79.8999 60.8023 80.0999C60.9023 80.3999 61.0023 80.5999 61.2023 80.8999L62.8023 83.4999L61.8023 84.0999L56.9023 75.9999Z" fill="white"/>
<path d="M65.3008 76.0002C65.5008 75.6002 65.7008 75.2002 66.0008 74.9002C66.3008 74.6002 66.7008 74.3002 67.0008 74.1002C67.4008 73.9002 67.8008 73.8002 68.1008 73.7002C68.4008 73.6002 68.7008 73.7002 69.0008 73.7002C69.3008 73.8002 69.5008 73.9002 69.7008 74.1002C69.9008 74.3002 70.1008 74.5002 70.2008 74.7002L71.6008 77.4002C71.7008 77.6002 71.8008 77.8002 71.9008 77.9002C72.0008 78.1002 72.1008 78.2002 72.2008 78.3002L71.3008 78.8002C71.1008 78.5002 71.0008 78.3002 70.8008 78.0002C70.8008 78.5002 70.6008 78.8002 70.4008 79.2002C70.2008 79.5002 69.8008 79.8002 69.4008 80.0002C69.2008 80.1002 68.9008 80.2002 68.6008 80.3002C68.3008 80.3002 68.1008 80.3002 67.8008 80.3002C67.6008 80.3002 67.3008 80.2002 67.1008 80.0002C66.9008 79.9002 66.7008 79.6002 66.6008 79.4002C66.4008 79.1002 66.3008 78.7002 66.4008 78.4002C66.4008 78.1002 66.5008 77.8002 66.7008 77.5002C66.9008 77.2002 67.2008 76.9002 67.5008 76.7002C67.8008 76.5002 68.2008 76.2002 68.6008 76.0002L69.3008 75.6002L69.2008 75.4002C69.1008 75.3002 69.0008 75.1002 68.9008 75.0002C68.8008 74.9002 68.6008 74.8002 68.5008 74.8002C68.3008 74.7002 68.2008 74.7002 68.0008 74.7002C67.8008 74.7002 67.6008 74.8002 67.4008 74.9002C67.2008 75.0002 67.0008 75.1002 66.9008 75.2002C66.8008 75.3002 66.7008 75.4002 66.6008 75.5002C66.5008 75.6002 66.4008 75.7002 66.4008 75.9002C66.3008 76.0002 66.3008 76.1002 66.2008 76.3002L65.3008 76.0002ZM69.3008 76.6002C69.1008 76.7002 68.8008 76.9002 68.6008 77.0002C68.4008 77.2002 68.2008 77.3002 68.0008 77.5002C67.8008 77.7002 67.7008 77.9002 67.7008 78.1002C67.7008 78.3002 67.7008 78.5002 67.8008 78.7002C68.0008 79.0002 68.2008 79.2002 68.5008 79.2002C68.8008 79.2002 69.1008 79.2002 69.4008 79.0002C69.7008 78.9002 69.9008 78.7002 70.0008 78.5002C70.1008 78.3002 70.2008 78.1002 70.3008 77.9002C70.4008 77.7002 70.3008 77.5002 70.3008 77.3002C70.3008 77.1002 70.2008 76.9002 70.1008 76.7002L69.9008 76.4002L69.3008 76.6002Z" fill="white"/>
<path d="M74.5016 72.4C74.3016 72.3 74.1016 72.2 73.9016 72.2C73.7016 72.2 73.4016 72.2 73.2016 72.3C73.0016 72.4 72.8016 72.6 72.6016 72.7C72.5016 72.9 72.4016 73.1 72.5016 73.3C72.6016 73.5 72.7016 73.6 72.8016 73.6C72.9016 73.7 73.1016 73.7 73.3016 73.7C73.5016 73.7 73.6016 73.7 73.8016 73.6C74.0016 73.6 74.1016 73.5 74.3016 73.5C74.5016 73.5 74.8016 73.4 75.0016 73.4C75.2016 73.4 75.4016 73.4 75.6016 73.5C75.8016 73.6 76.0016 73.7 76.1016 73.8C76.3016 73.9 76.4016 74.1 76.5016 74.4C76.6016 74.7 76.7016 75 76.6016 75.3C76.6016 75.6 76.5016 75.8 76.3016 76.1C76.1016 76.4 76.0016 76.5 75.7016 76.7C75.4016 76.9 75.2016 77 74.9016 77.1C74.4016 77.3 74.0016 77.4 73.6016 77.4C73.2016 77.4 72.8016 77.3 72.3016 77L72.8016 76C73.0016 76.1 73.3016 76.2 73.6016 76.2C73.9016 76.2 74.2016 76.2 74.5016 76.1C74.6016 76 74.8016 76 74.9016 75.9C75.0016 75.8 75.1016 75.7 75.2016 75.6C75.3016 75.5 75.3016 75.4 75.4016 75.3C75.4016 75.2 75.4016 75.1 75.4016 74.9C75.3016 74.7 75.2016 74.6 75.1016 74.6C75.0016 74.5 74.8016 74.5 74.6016 74.5C74.4016 74.5 74.3016 74.5 74.1016 74.5C73.9016 74.5 73.8016 74.6 73.7016 74.6C73.5016 74.6 73.2016 74.7 73.0016 74.7C72.8016 74.7 72.5016 74.7 72.3016 74.7C72.1016 74.7 71.9016 74.6 71.7016 74.4C71.5016 74.3 71.4016 74.1 71.3016 73.8C71.2016 73.5 71.1016 73.2 71.2016 73C71.2016 72.7 71.3016 72.5 71.4016 72.3C71.5016 72.1 71.7016 71.9 71.9016 71.7C72.1016 71.5 72.4016 71.4 72.6016 71.3C73.0016 71.1 73.4016 71.1 73.8016 71C74.2016 71 74.6016 71.1 74.9016 71.3L74.5016 72.4Z" fill="white"/>
<path d="M75.1016 66.6998L76.2016 66.2998L77.7016 70.5998C77.7016 70.1998 77.9016 69.8998 78.2016 69.5998C78.5016 69.2998 78.8016 69.0998 79.3016 68.8998C79.6016 68.7998 79.9016 68.7998 80.1016 68.7998C80.3016 68.7998 80.6016 68.7998 80.9016 68.9998C81.1016 69.0998 81.4016 69.2998 81.6016 69.4998C81.8016 69.6998 82.0016 69.9998 82.1016 70.3998L83.4016 74.0998L82.3016 74.4998L81.1016 71.0998C81.0016 70.7998 80.9016 70.5998 80.8016 70.4998C80.7016 70.2998 80.5016 70.1998 80.4016 70.0998C80.3016 69.9998 80.1016 69.9998 79.9016 69.9998C79.7016 69.9998 79.6016 69.9998 79.4016 70.0998C79.2016 70.1998 79.0016 70.2998 78.8016 70.3998C78.6016 70.4998 78.5016 70.6998 78.4016 70.8998C78.3016 71.0998 78.3016 71.2998 78.3016 71.5998C78.3016 71.8998 78.4016 72.1998 78.5016 72.4998L79.5016 75.3998L78.4016 75.7998L75.1016 66.6998Z" fill="white"/>
<path d="M82.4008 65.8002C82.3008 65.6002 82.4008 65.4002 82.5008 65.2002C82.6008 65.0002 82.8008 64.9002 83.0008 64.8002C83.2008 64.7002 83.4008 64.8002 83.6008 64.9002C83.8008 65.0002 83.9008 65.2002 84.0008 65.4002C84.1008 65.6002 84.0008 65.8002 83.9008 66.0002C83.8008 66.2002 83.6008 66.3002 83.4008 66.4002C83.2008 66.5002 83.0008 66.4002 82.8008 66.3002C82.6008 66.2002 82.4008 66.0002 82.4008 65.8002ZM83.2008 67.8002L84.3008 67.5002L86.0008 73.3002L84.9008 73.6002L83.2008 67.8002Z" fill="white"/>
<path d="M86.1016 66.8999L87.2016 66.5999L87.4016 67.4999C87.5016 67.1999 87.7016 66.7999 88.0016 66.5999C88.3016 66.3999 88.7016 66.0999 89.1016 65.9999C89.4016 65.8999 89.7016 65.8999 89.9016 65.8999C90.1016 65.8999 90.4016 65.9999 90.7016 66.0999C90.9016 66.1999 91.1016 66.3999 91.3016 66.6999C91.5016 66.9999 91.6016 67.2999 91.7016 67.6999L92.6016 71.4999L91.5016 71.7999L90.7016 68.2999C90.6016 67.9999 90.5016 67.7999 90.4016 67.5999C90.3016 67.3999 90.1016 67.2999 90.0016 67.1999C89.8016 67.0999 89.7016 67.0999 89.5016 66.9999C89.3016 66.8999 89.2016 66.9999 89.0016 66.9999C88.8016 67.0999 88.6016 67.0999 88.4016 67.2999C88.2016 67.4999 88.1016 67.5999 88.0016 67.7999C87.9016 67.9999 87.8016 68.1999 87.8016 68.4999C87.8016 68.7999 87.8016 69.0999 87.9016 69.3999L88.6016 72.3999L87.5016 72.6999L86.1016 66.8999Z" fill="white"/>
<path d="M92.6016 63.4C92.6016 63.2 92.6016 63 92.7016 62.8C92.8016 62.6 93.0016 62.5 93.2016 62.5C93.4016 62.5 93.6016 62.5 93.8016 62.6C94.0016 62.7 94.1016 62.9 94.1016 63.1C94.1016 63.3 94.1016 63.5 94.0016 63.7C93.9016 63.9 93.7016 64 93.5016 64C93.3016 64 93.1016 64 92.9016 63.9C92.7016 63.8 92.7016 63.6 92.6016 63.4ZM93.3016 65.5L94.4016 65.3L95.4016 71.3L94.3016 71.5L93.3016 65.5Z" fill="white"/>
<path d="M100 66.0998C100 65.7998 100 65.4998 100.1 65.1998C100.2 64.8998 100.3 64.6998 100.5 64.4998C100.7 64.2998 100.9 64.0998 101.2 63.9998C101.5 63.8998 101.8 63.7998 102.1 63.7998C102.4 63.7998 102.7 63.7998 103 63.8998C103.3 63.9998 103.5 64.0998 103.7 64.2998C103.9 64.4998 104.1 64.6998 104.2 64.9998C104.3 65.2998 104.4 65.5998 104.4 65.8998C104.4 66.1998 104.4 66.4998 104.3 66.7998C104.2 67.0998 104.1 67.2998 103.9 67.4998C103.7 67.6998 103.5 67.8998 103.2 67.9998C102.9 68.0998 102.6 68.1998 102.3 68.1998C102 68.1998 101.7 68.1998 101.4 68.0998C101.1 67.9998 100.9 67.8998 100.7 67.6998C100.5 67.4998 100.3 67.2998 100.2 66.9998C100.1 66.6998 100.1 66.3998 100 66.0998Z" fill="white"/>
<path d="M110.3 68.3C110.5 68.6 110.8 68.9 111.1 69.1C111.4 69.3 111.8 69.4 112.2 69.4C112.4 69.4 112.6 69.4 112.8 69.3C113 69.2 113.2 69.2 113.4 69C113.6 68.8 113.7 68.7 113.8 68.5C113.9 68.3 114 68.1 114 67.9C114 67.6 113.9 67.3 113.7 67.1C113.5 66.9 113.2 66.7 112.9 66.6C112.6 66.5 112.2 66.3 111.8 66.2C111.4 66.1 111.1 65.9 110.8 65.7C110.5 65.5 110.2 65.2 110 64.8C109.8 64.4 109.7 64 109.7 63.4C109.7 63.1 109.8 62.9 109.9 62.6C110 62.3 110.2 62 110.5 61.8C110.8 61.6 111.1 61.4 111.5 61.2C111.9 61 112.4 61 112.9 61C113.4 61 113.9 61.1 114.3 61.3C114.7 61.5 115.1 61.7 115.5 62.2L114.5 63.1C114.4 62.9 114.1 62.7 113.9 62.5C113.6 62.3 113.3 62.3 113 62.2C112.7 62.2 112.4 62.2 112.1 62.3C111.9 62.4 111.7 62.5 111.5 62.6C111.4 62.7 111.3 62.9 111.2 63C111.1 63.2 111.1 63.3 111.1 63.4C111.1 63.8 111.2 64.1 111.4 64.3C111.6 64.5 111.9 64.7 112.2 64.8C112.5 64.9 112.9 65.1 113.3 65.2C113.7 65.3 114 65.5 114.4 65.7C114.7 65.9 115 66.2 115.2 66.5C115.4 66.8 115.5 67.3 115.5 67.8C115.5 68.2 115.4 68.6 115.2 69C115 69.3 114.8 69.6 114.5 69.9C114.2 70.1 113.9 70.3 113.5 70.4C113.1 70.5 112.7 70.6 112.3 70.5C111.7 70.5 111.2 70.4 110.7 70.1C110.2 69.8 109.8 69.5 109.5 69.1L110.3 68.3Z" fill="white"/>
<path d="M121.703 71.0999L120.603 70.9999L120.703 70.0999C120.503 70.3999 120.203 70.5999 119.903 70.7999C119.503 70.9999 119.103 70.9999 118.603 70.8999C118.303 70.8999 118.003 70.7999 117.803 70.6999C117.503 70.5999 117.303 70.3999 117.203 70.1999C117.003 69.9999 116.903 69.6999 116.803 69.3999C116.703 69.0999 116.703 68.6999 116.703 68.2999L117.203 64.3999L118.303 64.4999L117.903 67.9999C117.903 68.2999 117.903 68.4999 117.903 68.6999C118.003 68.8999 118.003 69.0999 118.103 69.1999C118.203 69.2999 118.303 69.3999 118.503 69.4999C118.703 69.5999 118.803 69.5999 119.003 69.5999C119.203 69.5999 119.503 69.5999 119.703 69.5999C119.903 69.4999 120.103 69.4999 120.303 69.2999C120.503 69.0999 120.603 68.9999 120.703 68.6999C120.803 68.4999 120.903 68.1999 120.903 67.7999L121.303 64.6999L122.403 64.7999L121.703 71.0999Z" fill="white"/>
<path d="M124.3 65.3999L125.4 65.5999L125.2 66.4999C125.4 66.1999 125.7 65.9999 126.1 65.8999C126.5 65.7999 126.9 65.7999 127.4 65.8999C127.7 65.9999 127.9 66.0999 128.2 66.1999C128.4 66.2999 128.6 66.4999 128.8 66.6999C129 66.8999 129.1 67.1999 129.1 67.4999C129.2 67.7999 129.1 68.1999 129.1 68.5999L128.3 72.3999L127.2 72.1999L127.9 68.6999C128 68.3999 128 68.1999 127.9 67.9999C127.9 67.7999 127.8 67.5999 127.7 67.4999C127.6 67.3999 127.5 67.1999 127.3 67.0999C127.1 66.9999 127 66.9999 126.8 66.8999C126.6 66.8999 126.3 66.7999 126.1 66.8999C125.9 66.8999 125.7 66.9999 125.5 67.0999C125.3 67.1999 125.2 67.3999 125 67.5999C124.9 67.7999 124.8 68.0999 124.7 68.4999L124.1 71.5999L123 71.3999L124.3 65.3999Z" fill="white"/>
<path d="M130.2 69.8C130.3 69.4 130.5 69 130.8 68.7C131.1 68.4 131.4 68.1 131.7 67.9C132 67.7 132.4 67.6 132.9 67.5C133.3 67.5 133.7 67.5 134.2 67.6C134.6 67.7 135 67.9 135.3 68.2C135.6 68.5 135.9 68.8 136.1 69.1C136.3 69.5 136.4 69.8 136.5 70.3C136.6 70.7 136.5 71.1 136.4 71.6C136.3 72 136.1 72.4 135.8 72.7C135.5 73 135.2 73.3 134.9 73.5C134.5 73.7 134.2 73.8 133.7 73.9C133.2 74 132.9 73.9 132.4 73.8C132 73.7 131.6 73.5 131.3 73.2C131 72.9 130.7 72.6 130.5 72.3C130.3 71.9 130.2 71.6 130.1 71.1C130 70.6 130.1 70.2 130.2 69.8ZM131.4 70.1C131.3 70.4 131.3 70.7 131.3 71C131.3 71.3 131.4 71.5 131.5 71.7C131.6 71.9 131.8 72.1 132 72.3C132.2 72.5 132.5 72.6 132.8 72.7C133.1 72.8 133.4 72.8 133.6 72.8C133.9 72.8 134.1 72.7 134.3 72.6C134.5 72.5 134.7 72.3 134.9 72.1C135.1 71.9 135.2 71.6 135.3 71.3C135.4 71 135.4 70.7 135.4 70.4C135.4 70.1 135.3 69.9 135.2 69.7C135.1 69.5 134.9 69.3 134.7 69.1C134.5 68.9 134.2 68.8 133.9 68.7C133.6 68.6 133.3 68.6 133.1 68.6C132.8 68.6 132.6 68.7 132.4 68.8C132.2 68.9 132 69.1 131.8 69.3C131.6 69.6 131.5 69.8 131.4 70.1Z" fill="white"/>
<path d="M143.502 67.7998L144.602 68.2998L141.202 76.6998L140.102 76.1998L143.502 67.7998Z" fill="white"/>
<path d="M145.401 71.7998L146.401 72.2998L146.001 73.0998C146.301 72.8998 146.601 72.6998 147.001 72.6998C147.401 72.6998 147.801 72.7998 148.201 72.9998C148.501 73.0998 148.701 73.2998 148.901 73.4998C149.101 73.6998 149.301 73.8998 149.401 74.1998C149.501 74.4998 149.501 74.6998 149.501 75.0998C149.501 75.3998 149.401 75.7998 149.201 76.0998L147.501 79.5998L146.501 79.0998L148.001 75.8998C148.101 75.5998 148.201 75.3998 148.201 75.1998C148.201 74.9998 148.201 74.7998 148.101 74.5998C148.001 74.3998 147.901 74.2998 147.801 74.1998C147.701 74.0998 147.501 73.9998 147.401 73.8998C147.201 73.7998 147.001 73.6998 146.801 73.6998C146.601 73.6998 146.401 73.6998 146.201 73.7998C146.001 73.8998 145.801 73.9998 145.601 74.1998C145.401 74.3998 145.201 74.5998 145.101 74.9998L143.801 77.7998L142.801 77.2998L145.401 71.7998Z" fill="white"/>
<path d="M154.102 83.3002L153.102 82.7002L153.502 82.0002C153.102 82.2002 152.802 82.2002 152.302 82.2002C151.802 82.2002 151.502 82.0002 151.102 81.8002C150.702 81.6002 150.402 81.3002 150.102 80.9002C149.902 80.6002 149.702 80.2002 149.602 79.8002C149.502 79.4002 149.502 79.0002 149.602 78.6002C149.702 78.2002 149.802 77.8002 150.002 77.4002C150.202 77.0002 150.502 76.7002 150.802 76.4002C151.102 76.1002 151.502 76.0002 151.802 75.8002C152.202 75.7002 152.602 75.7002 153.002 75.7002C153.402 75.7002 153.802 75.9002 154.202 76.1002C154.602 76.3002 154.902 76.6002 155.102 77.0002C155.302 77.4002 155.502 77.7002 155.502 78.1002L157.802 74.2002L158.802 74.8002L154.102 83.3002ZM151.902 80.9002C152.202 81.1002 152.402 81.1002 152.702 81.2002C153.002 81.2002 153.202 81.2002 153.502 81.1002C153.702 81.0002 154.002 80.9002 154.202 80.7002C154.402 80.5002 154.602 80.3002 154.802 80.0002C155.002 79.7002 155.102 79.5002 155.102 79.2002C155.102 78.9002 155.102 78.7002 155.102 78.4002C155.002 78.2002 154.902 77.9002 154.802 77.7002C154.602 77.5002 154.402 77.3002 154.202 77.1002C153.902 76.9002 153.702 76.9002 153.402 76.8002C153.102 76.7002 152.902 76.8002 152.602 76.9002C152.402 77.0002 152.102 77.1002 151.902 77.3002C151.702 77.5002 151.502 77.7002 151.302 78.0002C151.102 78.3002 151.002 78.5002 151.002 78.8002C150.902 79.1002 151.002 79.3002 151.002 79.6002C151.002 79.9002 151.202 80.1002 151.302 80.3002C151.402 80.6002 151.602 80.8002 151.902 80.9002Z" fill="white"/>
<path d="M158.701 79.1998L159.701 79.7998L156.301 84.7998L155.301 84.1998L158.701 79.1998ZM159.701 77.1998C159.801 76.9998 160.001 76.8998 160.201 76.7998C160.401 76.7998 160.601 76.7998 160.801 76.8998C161.001 76.9998 161.101 77.1998 161.201 77.3998C161.201 77.5998 161.201 77.7998 161.101 77.9998C161.001 78.1998 160.801 78.2998 160.601 78.3998C160.401 78.3998 160.201 78.3998 160.001 78.2998C159.801 78.1998 159.701 77.9998 159.601 77.7998C159.601 77.5998 159.601 77.3998 159.701 77.1998Z" fill="white"/>
<path d="M160.902 81.5C161.302 81.5 161.802 81.5 162.202 81.6C162.602 81.7 163.002 81.9 163.402 82.2C163.802 82.5 164.002 82.7 164.202 83C164.402 83.3 164.502 83.6 164.602 83.8C164.702 84.1 164.602 84.3 164.602 84.6C164.502 84.9 164.402 85.1 164.302 85.3L162.402 87.8C162.302 88 162.202 88.1 162.102 88.3C162.002 88.4 161.902 88.6 161.802 88.7L161.002 88.1C161.202 87.8 161.302 87.6 161.502 87.3C161.102 87.5 160.702 87.5 160.302 87.4C159.902 87.3 159.602 87.1 159.202 86.9C159.002 86.7 158.802 86.5 158.602 86.3C158.402 86.1 158.302 85.9 158.302 85.6C158.202 85.4 158.202 85.1 158.302 84.9C158.302 84.7 158.502 84.4 158.602 84.2C158.802 83.9 159.102 83.7 159.402 83.6C159.702 83.5 160.002 83.5 160.402 83.5C160.702 83.5 161.102 83.7 161.502 83.9C161.902 84.1 162.202 84.3 162.602 84.6L163.302 85.1L163.502 84.9C163.602 84.8 163.702 84.6 163.702 84.5C163.702 84.3 163.802 84.2 163.702 84C163.702 83.8 163.602 83.7 163.502 83.5C163.402 83.3 163.302 83.2 163.102 83C162.902 82.9 162.802 82.8 162.602 82.7C162.402 82.6 162.302 82.6 162.102 82.6C162.002 82.6 161.802 82.6 161.702 82.6C161.602 82.6 161.402 82.6 161.302 82.6L160.902 81.5ZM162.002 85.3C161.802 85.1 161.602 85 161.302 84.8C161.102 84.7 160.802 84.5 160.602 84.5C160.402 84.4 160.102 84.4 159.902 84.4C159.702 84.4 159.502 84.5 159.402 84.7C159.202 85 159.102 85.2 159.202 85.5C159.302 85.8 159.502 86 159.802 86.3C160.102 86.5 160.302 86.6 160.502 86.7C160.702 86.7 161.002 86.7 161.202 86.7C161.402 86.7 161.602 86.6 161.802 86.4C162.002 86.2 162.102 86.1 162.202 86L162.402 85.7L162.002 85.3Z" fill="white"/>
<path d="M27.7 180.7L28.7 183.7C28.8 184.1 28.9 184.4 28.9 184.8C28.9 185.1 28.9 185.5 28.8 185.8C28.7 186.1 28.5 186.3 28.3 186.6C28.1 186.8 27.8 187 27.4 187.1C26.9 187.3 26.5 187.3 26.1 187.1C25.7 186.9 25.3 186.7 25.1 186.3C25.2 186.6 25.2 186.8 25.1 187.1C25.1 187.4 25 187.6 24.8 187.8C24.7 188 24.5 188.2 24.3 188.4C24.1 188.6 23.8 188.7 23.5 188.8C23.1 188.9 22.7 189 22.4 188.9C22.1 188.8 21.7 188.7 21.4 188.5C21.1 188.3 20.8 188 20.6 187.7C20.4 187.4 20.2 187 20 186.6L19 183.7L27.7 180.7ZM20.5 184.4L21.1 186.1C21.2 186.3 21.2 186.5 21.4 186.7C21.5 186.9 21.6 187.1 21.8 187.2C22 187.3 22.2 187.5 22.4 187.5C22.6 187.6 22.9 187.5 23.2 187.4C23.7 187.2 24 186.9 24.2 186.5C24.3 186.1 24.3 185.6 24.1 185L23.5 183.3L20.5 184.4ZM24.5 183L25 184.6C25.1 184.8 25.2 185 25.3 185.2C25.4 185.4 25.5 185.5 25.7 185.6C25.9 185.7 26 185.8 26.2 185.8C26.4 185.8 26.6 185.8 26.8 185.7C27.1 185.6 27.4 185.4 27.6 185.1C27.8 184.8 27.8 184.4 27.6 183.9L27 182.1L24.5 183Z" fill="white"/>
<path d="M30.6984 187.4L31.1984 188.5L27.0984 190.3C27.4984 190.3 27.7984 190.4 28.0984 190.7C28.3984 190.9 28.6984 191.3 28.8984 191.7C28.9984 192 29.0984 192.2 29.0984 192.5C29.0984 192.8 29.0984 193.1 28.9984 193.3C28.8984 193.6 28.7984 193.8 28.4984 194C28.2984 194.2 27.9984 194.4 27.5984 194.6L23.9984 196.2L23.4984 195.2L26.7984 193.8C27.0984 193.7 27.2984 193.6 27.3984 193.4C27.5984 193.2 27.6984 193.1 27.6984 192.9C27.7984 192.7 27.7984 192.6 27.7984 192.4C27.7984 192.2 27.6984 192.1 27.6984 191.9C27.5984 191.7 27.4984 191.5 27.2984 191.3C27.0984 191.1 26.9984 191 26.7984 191C26.5984 190.9 26.2984 190.9 26.0984 190.9C25.8984 190.9 25.4984 191 25.1984 191.1L22.3984 192.4L21.8984 191.4L30.6984 187.4Z" fill="white"/>
<path d="M29.6016 195.5C30.0016 195.6 30.4016 195.9 30.7016 196.2C31.0016 196.5 31.3016 196.8 31.5016 197.2C31.7016 197.6 31.8016 198 31.9016 198.3C32.0016 198.6 31.9016 198.9 31.9016 199.2C31.9016 199.5 31.7016 199.7 31.5016 199.9C31.3016 200.1 31.1016 200.3 30.9016 200.4L28.2016 201.9C28.0016 202 27.8016 202.1 27.7016 202.2C27.6016 202.3 27.4016 202.4 27.3016 202.5L26.8016 201.6C27.1016 201.4 27.3016 201.3 27.6016 201.1C27.1016 201.1 26.7016 200.9 26.4016 200.7C26.1016 200.5 25.8016 200.2 25.6016 199.7C25.5016 199.5 25.4016 199.2 25.3016 198.9C25.2016 198.6 25.2016 198.4 25.3016 198.1C25.4016 197.8 25.4016 197.6 25.6016 197.4C25.7016 197.2 26.0016 197 26.2016 196.9C26.5016 196.7 26.9016 196.6 27.2016 196.7C27.5016 196.7 27.8016 196.8 28.1016 197C28.4016 197.2 28.7016 197.4 28.9016 197.8C29.2016 198.1 29.4016 198.5 29.6016 198.9L30.0016 199.6L30.2016 199.5C30.3016 199.4 30.5016 199.3 30.6016 199.2C30.7016 199.1 30.8016 198.9 30.8016 198.8C30.9016 198.6 30.9016 198.5 30.8016 198.3C30.7016 198.1 30.7016 197.9 30.6016 197.7C30.5016 197.5 30.4016 197.3 30.3016 197.2C30.2016 197.1 30.1016 197 29.9016 196.9C29.8016 196.8 29.7016 196.7 29.5016 196.7C29.4016 196.6 29.3016 196.6 29.1016 196.5L29.6016 195.5ZM29.1016 199.5C29.0016 199.3 28.8016 199 28.7016 198.8C28.5016 198.6 28.4016 198.4 28.2016 198.2C28.0016 198 27.8016 197.9 27.6016 197.9C27.4016 197.8 27.2016 197.9 27.0016 198C26.7016 198.2 26.5016 198.4 26.5016 198.7C26.5016 199 26.6016 199.3 26.7016 199.6C26.8016 199.9 27.0016 200.1 27.2016 200.2C27.4016 200.3 27.6016 200.4 27.8016 200.5C28.0016 200.5 28.2016 200.5 28.4016 200.5C28.6016 200.5 28.8016 200.4 29.0016 200.3L29.3016 200.1L29.1016 199.5Z" fill="white"/>
<path d="M33.8994 204.4C33.9994 204.2 33.9994 204 33.9994 203.7C33.9994 203.4 33.8994 203.2 33.7994 203C33.6994 202.8 33.4994 202.6 33.2994 202.5C33.0994 202.4 32.8994 202.4 32.6994 202.5C32.4994 202.6 32.4994 202.7 32.3994 202.9C32.3994 203.1 32.3994 203.2 32.3994 203.4C32.3994 203.6 32.4994 203.7 32.4994 203.9C32.4994 204.1 32.5994 204.2 32.6994 204.3C32.7994 204.5 32.7994 204.8 32.8994 205C32.8994 205.2 32.8994 205.4 32.8994 205.7C32.8994 205.9 32.7994 206.1 32.6994 206.3C32.5994 206.5 32.3994 206.6 32.1994 206.8C31.8994 207 31.5994 207.1 31.2994 207.1C30.9994 207.1 30.7994 207.1 30.4994 206.9C30.1994 206.8 29.9994 206.6 29.7994 206.4C29.5994 206.2 29.3994 206 29.1994 205.7C28.8994 205.3 28.7994 204.9 28.6994 204.5C28.5994 204.1 28.6994 203.7 28.8994 203.2L29.9994 203.6C29.8994 203.9 29.8994 204.1 29.8994 204.4C29.8994 204.7 29.9994 204.9 30.1994 205.2C30.2994 205.3 30.3994 205.4 30.4994 205.5C30.5994 205.6 30.6994 205.7 30.7994 205.8C30.8994 205.9 30.9994 205.9 31.1994 205.9C31.2994 205.9 31.3994 205.9 31.4994 205.8C31.5994 205.7 31.6994 205.6 31.7994 205.4C31.7994 205.3 31.7994 205.1 31.7994 204.9C31.7994 204.7 31.6994 204.6 31.6994 204.4C31.5994 204.2 31.5994 204.1 31.4994 204C31.3994 203.8 31.3994 203.5 31.2994 203.3C31.1994 203.1 31.1994 202.9 31.1994 202.6C31.1994 202.4 31.2994 202.2 31.3994 202C31.4994 201.8 31.6994 201.6 31.8994 201.5C32.1994 201.3 32.3994 201.2 32.6994 201.2C32.9994 201.2 33.1994 201.2 33.4994 201.3C33.6994 201.4 33.9994 201.5 34.1994 201.7C34.3994 201.9 34.5994 202.1 34.6994 202.3C34.8994 202.6 35.0994 203 35.0994 203.4C35.1994 203.8 35.0994 204.2 34.8994 204.6L33.8994 204.4Z" fill="white"/>
<path d="M39.2992 203.4L39.9992 204.3L36.2992 207C36.5992 206.9 36.9992 207 37.3992 207.1C37.7992 207.3 38.0992 207.5 38.3992 207.9C38.5992 208.1 38.6992 208.4 38.7992 208.7C38.8992 209 38.8992 209.2 38.8992 209.5C38.8992 209.8 38.7992 210 38.5992 210.3C38.3992 210.6 38.1992 210.8 37.8992 211.1L34.7992 213.4L34.0992 212.5L36.9992 210.4C37.1992 210.2 37.3992 210.1 37.4992 209.9C37.5992 209.7 37.6992 209.5 37.6992 209.4C37.6992 209.2 37.6992 209.1 37.6992 208.9C37.5992 208.7 37.5992 208.6 37.4992 208.4C37.3992 208.2 37.1992 208.1 36.9992 207.9C36.7992 207.7 36.5992 207.7 36.3992 207.7C36.1992 207.7 35.8992 207.7 35.6992 207.8C35.3992 207.9 35.1992 208 34.8992 208.2L32.3992 210L31.6992 209.1L39.2992 203.4Z" fill="white"/>
<path d="M40.1 211.6C40.5 211.7 40.9 211.8 41.3 212C41.7 212.2 42 212.5 42.3 212.8C42.6 213.1 42.8 213.5 42.9 213.8C43 214.1 43.1 214.4 43.1 214.7C43.1 215 43 215.2 42.9 215.5C42.8 215.7 42.6 215.9 42.4 216.1L40.1 218.1C39.9 218.2 39.8 218.4 39.7 218.5C39.6 218.6 39.4 218.7 39.3 218.9L38.6 218.1C38.8 217.9 39 217.7 39.3 217.5C38.8 217.6 38.4 217.5 38.1 217.4C37.8 217.2 37.4 217 37.1 216.6C36.9 216.4 36.8 216.2 36.7 215.9C36.6 215.6 36.5 215.4 36.5 215.2C36.5 215 36.5 214.7 36.6 214.5C36.7 214.3 36.9 214.1 37.1 213.9C37.4 213.6 37.7 213.5 38 213.5C38.3 213.5 38.6 213.5 39 213.6C39.3 213.7 39.6 213.9 40 214.2C40.3 214.5 40.6 214.8 40.9 215.1L41.4 215.7L41.6 215.5C41.7 215.4 41.8 215.3 41.9 215.1C42 215 42 214.8 42 214.6C42 214.4 42 214.3 41.9 214.1C41.8 213.9 41.7 213.7 41.6 213.5C41.5 213.3 41.3 213.2 41.2 213.1C41.1 213 40.9 212.9 40.8 212.9C40.7 212.8 40.5 212.8 40.4 212.8C40.3 212.8 40.1 212.7 40 212.7L40.1 211.6ZM40.4 215.7C40.2 215.5 40 215.3 39.8 215.1C39.6 214.9 39.4 214.7 39.2 214.6C39 214.5 38.8 214.4 38.6 214.4C38.4 214.4 38.2 214.5 38 214.6C37.7 214.8 37.6 215.1 37.7 215.4C37.8 215.7 37.9 216 38.1 216.3C38.3 216.5 38.5 216.7 38.7 216.8C38.9 216.9 39.1 216.9 39.4 216.9C39.7 216.9 39.8 216.8 40 216.8C40.2 216.8 40.4 216.6 40.5 216.5L40.8 216.3L40.4 215.7Z" fill="white"/>
<path d="M48.5984 221.8C48.5984 221.6 48.5984 221.4 48.4984 221.1C48.3984 220.9 48.2984 220.7 48.0984 220.5C47.8984 220.3 47.6984 220.2 47.4984 220.1C47.2984 220 47.0984 220.1 46.8984 220.3C46.7984 220.4 46.6984 220.6 46.6984 220.7C46.6984 220.9 46.6984 221 46.7984 221.2C46.8984 221.4 46.9984 221.5 47.0984 221.7C47.1984 221.8 47.2984 222 47.3984 222.1C47.4984 222.3 47.6984 222.5 47.7984 222.7C47.8984 222.9 47.9984 223.1 47.9984 223.3C47.9984 223.5 47.9984 223.7 47.8984 223.9C47.7984 224.1 47.6984 224.3 47.4984 224.5C47.2984 224.7 46.9984 224.9 46.6984 225C46.3984 225.1 46.1984 225.1 45.8984 225C45.5984 225 45.3984 224.9 45.0984 224.7C44.7984 224.5 44.5984 224.4 44.3984 224.2C43.9984 223.9 43.7984 223.5 43.5984 223.1C43.3984 222.7 43.3984 222.3 43.3984 221.8L44.4984 221.9C44.4984 222.2 44.4984 222.4 44.5984 222.7C44.6984 223 44.7984 223.2 45.0984 223.4C45.1984 223.5 45.2984 223.6 45.4984 223.7C45.5984 223.8 45.7984 223.8 45.8984 223.9C45.9984 223.9 46.1984 223.9 46.2984 223.9C46.3984 223.9 46.4984 223.8 46.5984 223.7C46.6984 223.6 46.7984 223.4 46.7984 223.3C46.7984 223.1 46.7984 223 46.6984 222.8C46.5984 222.6 46.5984 222.5 46.4984 222.4C46.3984 222.3 46.2984 222.1 46.1984 222C46.0984 221.8 45.8984 221.6 45.7984 221.4C45.6984 221.2 45.5984 221 45.5984 220.8C45.5984 220.6 45.5984 220.4 45.5984 220.2C45.6984 220 45.7984 219.8 45.9984 219.6C46.1984 219.4 46.4984 219.2 46.6984 219.1C46.9984 219 47.1984 219 47.4984 219C47.7984 219 47.9984 219.1 48.2984 219.3C48.5984 219.4 48.7984 219.6 48.9984 219.8C49.2984 220.1 49.4984 220.4 49.6984 220.8C49.8984 221.2 49.8984 221.6 49.7984 222L48.5984 221.8Z" fill="white"/>
<path d="M51.0015 222.9C51.4015 222.9 51.9015 222.9 52.3015 223.1C52.7015 223.3 53.1015 223.5 53.4015 223.7C53.7015 224 54.0015 224.3 54.2015 224.6C54.4015 224.9 54.5015 225.2 54.5015 225.4C54.5015 225.7 54.5015 225.9 54.4015 226.2C54.3015 226.4 54.2015 226.7 54.0015 226.9L52.0015 229.3C51.9015 229.5 51.7015 229.6 51.6015 229.8C51.5015 230 51.4015 230.1 51.3015 230.2L50.5015 229.6C50.7015 229.3 50.9015 229.1 51.1015 228.9C50.7015 229 50.2015 229.1 49.9015 229C49.5015 228.9 49.2015 228.7 48.8015 228.4C48.6015 228.2 48.4015 228 48.3015 227.8C48.2015 227.6 48.1015 227.3 48.0015 227.1C47.9015 226.9 48.0015 226.6 48.0015 226.4C48.1015 226.2 48.2015 225.9 48.4015 225.7C48.6015 225.4 48.9015 225.2 49.2015 225.1C49.5015 225 49.8015 225 50.2015 225.1C50.5015 225.2 50.9015 225.3 51.2015 225.5C51.6015 225.7 51.9015 225.9 52.3015 226.2L53.0015 226.7L53.2015 226.5C53.3015 226.4 53.4015 226.2 53.4015 226.1C53.4015 226 53.5015 225.8 53.5015 225.6C53.5015 225.4 53.4015 225.3 53.3015 225.1C53.2015 224.9 53.1015 224.8 52.9015 224.6C52.7015 224.5 52.6015 224.4 52.4015 224.3C52.2015 224.2 52.1015 224.2 51.9015 224.1C51.8015 224.1 51.6015 224 51.5015 224C51.4015 224 51.2015 224 51.1015 224L51.0015 222.9ZM52.0015 226.8C51.8015 226.6 51.6015 226.5 51.3015 226.3C51.1015 226.1 50.8015 226 50.6015 225.9C50.4015 225.8 50.1015 225.8 49.9015 225.8C49.7015 225.8 49.5015 225.9 49.4015 226.1C49.2015 226.4 49.1015 226.6 49.2015 226.9C49.3015 227.2 49.5015 227.4 49.8015 227.7C50.0015 227.9 50.3015 228 50.5015 228.1C50.7015 228.2 51.0015 228.2 51.2015 228.1C51.4015 228.1 51.6015 228 51.8015 227.8C52.0015 227.7 52.1015 227.5 52.3015 227.4L52.5015 227.1L52.0015 226.8Z" fill="white"/>
<path d="M56.4 226.4L57.3 227L56.8 227.8C56.9 227.7 57 227.7 57.1 227.6C57.3 227.6 57.4 227.5 57.6 227.5C57.8 227.5 58 227.5 58.3 227.6C58.5 227.7 58.8 227.8 59 227.9C59.4 228.1 59.6 228.4 59.8 228.8C60 229.1 60 229.5 60 229.9C60.4 229.7 60.8 229.6 61.2 229.7C61.6 229.8 62 229.9 62.3 230.1C62.7 230.4 63 230.6 63.1 230.9C63.2 231.2 63.3 231.5 63.3 231.8C63.3 232.1 63.2 232.4 63.1 232.7C63 233 62.8 233.3 62.6 233.6L60.6 236.5L59.6 235.9L61.5 233.1C61.6 232.9 61.7 232.7 61.8 232.5C61.9 232.3 61.9 232.1 62 231.9C62 231.7 62 231.5 61.9 231.4C61.8 231.2 61.7 231.1 61.4 230.9C60.9 230.6 60.5 230.5 60.1 230.7C59.7 230.9 59.4 231.2 59.1 231.6L57.3 234.4L56.3 233.8L58.1 231.2C58.3 231 58.4 230.7 58.5 230.5C58.6 230.3 58.7 230.1 58.7 229.9C58.7 229.7 58.7 229.5 58.6 229.3C58.5 229.1 58.4 229 58.1 228.8C57.9 228.7 57.7 228.6 57.5 228.6C57.3 228.6 57.1 228.6 56.9 228.6C56.7 228.7 56.5 228.8 56.3 228.9C56.1 229.1 55.9 229.3 55.7 229.6L54 232.2L53 231.6L56.4 226.4Z" fill="white"/>
<path d="M65.1008 232.9C65.5008 232.8 66.0008 232.8 66.4008 232.8C66.8008 232.9 67.3008 233 67.6008 233.2C68.0008 233.4 68.3008 233.6 68.5008 233.9C68.7008 234.1 68.9008 234.4 69.0008 234.7C69.1008 235 69.1008 235.2 69.1008 235.5C69.1008 235.8 69.0008 236 68.9008 236.2L67.4008 238.9C67.3008 239.1 67.2008 239.3 67.1008 239.4C67.0008 239.6 67.0008 239.7 66.9008 239.9L66.0008 239.4C66.1008 239.1 66.3008 238.8 66.4008 238.6C66.0008 238.8 65.6008 238.9 65.2008 238.9C64.8008 238.9 64.4008 238.8 64.0008 238.5C63.8008 238.4 63.5008 238.2 63.3008 238C63.1008 237.8 63.0008 237.6 62.9008 237.4C62.8008 237.2 62.8008 236.9 62.8008 236.7C62.8008 236.4 62.9008 236.2 63.0008 235.9C63.2008 235.6 63.4008 235.3 63.7008 235.2C64.0008 235 64.3008 235 64.6008 235C64.9008 235 65.3008 235.1 65.7008 235.2C66.1008 235.3 66.5008 235.5 66.9008 235.7L67.6008 236.1L67.7008 235.9C67.8008 235.8 67.8008 235.6 67.8008 235.5C67.8008 235.4 67.8008 235.2 67.8008 235C67.8008 234.8 67.7008 234.7 67.5008 234.5C67.4008 234.4 67.2008 234.2 67.0008 234.1C66.8008 234 66.6008 233.9 66.5008 233.9C66.3008 233.9 66.2008 233.8 66.0008 233.8C65.8008 233.8 65.7008 233.8 65.6008 233.8C65.5008 233.8 65.3008 233.8 65.2008 233.9L65.1008 232.9ZM66.9008 236.5C66.7008 236.4 66.4008 236.3 66.1008 236.1C65.8008 235.9 65.6008 235.9 65.3008 235.9C65.1008 235.9 64.8008 235.9 64.6008 235.9C64.4008 235.9 64.2008 236.1 64.1008 236.3C63.9008 236.6 63.9008 236.9 64.1008 237.1C64.2008 237.3 64.5008 237.6 64.8008 237.7C65.1008 237.8 65.3008 237.9 65.6008 237.9C65.8008 237.9 66.1008 237.9 66.3008 237.8C66.5008 237.7 66.7008 237.6 66.8008 237.4C66.9008 237.2 67.1008 237.1 67.2008 236.9L67.4008 236.6L66.9008 236.5Z" fill="white"/>
<path d="M71.2016 235.2L72.2016 235.7L71.8016 236.5C71.9016 236.4 72.1016 236.3 72.3016 236.2C72.5016 236.1 72.6016 236.1 72.8016 236.1C73.0016 236.1 73.2016 236.1 73.4016 236.1C73.6016 236.1 73.8016 236.2 73.9016 236.3C74.1016 236.4 74.2016 236.5 74.3016 236.6L73.7016 237.7C73.6016 237.6 73.5016 237.6 73.5016 237.5C73.4016 237.4 73.3016 237.4 73.3016 237.4C72.8016 237.2 72.3016 237.1 71.9016 237.3C71.5016 237.5 71.2016 237.8 70.9016 238.5L69.6016 241.3L68.6016 240.8L71.2016 235.2Z" fill="white"/>
<path d="M78.0984 239.2L76.5984 238.6L75.5984 241.2C75.4984 241.4 75.4984 241.5 75.3984 241.7C75.2984 241.9 75.2984 242 75.2984 242.2C75.2984 242.3 75.2984 242.5 75.3984 242.6C75.4984 242.7 75.5984 242.8 75.7984 242.9C75.8984 242.9 76.0984 243 76.1984 243C76.2984 243 76.4984 243 76.5984 243L76.1984 244C75.9984 244 75.8984 244 75.5984 244C75.3984 243.9 75.1984 243.9 75.0984 243.9C74.6984 243.7 74.3984 243.6 74.1984 243.4C73.9984 243.2 73.8984 243 73.8984 242.8C73.8984 242.6 73.8984 242.3 73.8984 242.1C73.8984 241.9 73.9984 241.6 74.0984 241.4L75.1984 238.5L73.9984 238L74.3984 237.1L75.5984 237.6L76.1984 236L77.2984 236.4L76.6984 238L78.1984 238.6L78.0984 239.2Z" fill="white"/>
<path d="M80.9016 235.3L82.0016 235.6L80.6016 239.9C80.8016 239.6 81.2016 239.5 81.6016 239.4C82.0016 239.3 82.4016 239.3 82.9016 239.5C83.2016 239.6 83.4016 239.7 83.7016 239.9C83.9016 240.1 84.1016 240.3 84.2016 240.5C84.3016 240.7 84.4016 241 84.4016 241.3C84.4016 241.6 84.4016 242 84.3016 242.3L83.1016 246L82.0016 245.7L83.1016 242.3C83.2016 242 83.2016 241.8 83.2016 241.6C83.2016 241.4 83.1016 241.2 83.1016 241C83.0016 240.8 82.9016 240.7 82.8016 240.6C82.7016 240.5 82.5016 240.4 82.3016 240.4C82.1016 240.3 81.8016 240.3 81.6016 240.3C81.4016 240.3 81.2016 240.4 81.0016 240.5C80.8016 240.6 80.6016 240.8 80.5016 241C80.3016 241.2 80.2016 241.5 80.1016 241.8L79.2016 244.8L78.1016 244.5L80.9016 235.3Z" fill="white"/>
<path d="M86.3 241.5C86.7 241.3 87.1 241.1 87.5 241.1C87.9 241.1 88.4 241.1 88.8 241.2C89.2 241.3 89.6 241.4 89.9 241.6C90.2 241.8 90.4 242 90.6 242.2C90.8 242.4 90.9 242.7 90.9 242.9C90.9 243.2 90.9 243.4 90.9 243.7L90.2 246.7C90.2 246.9 90.1 247.1 90.1 247.3C90.1 247.5 90 247.6 90 247.8L89 247.6C89 247.3 89.1 247 89.2 246.7C88.9 247 88.5 247.2 88.1 247.3C87.7 247.4 87.3 247.4 86.9 247.3C86.6 247.2 86.4 247.1 86.1 247C85.9 246.9 85.7 246.7 85.5 246.5C85.3 246.3 85.2 246.1 85.2 245.8C85.1 245.6 85.1 245.3 85.2 245C85.3 244.6 85.4 244.3 85.7 244.1C85.9 243.9 86.2 243.7 86.5 243.6C86.8 243.5 87.2 243.5 87.6 243.5C88 243.5 88.4 243.6 88.9 243.7L89.7 243.9L89.8 243.7C89.8 243.6 89.8 243.4 89.8 243.2C89.8 243 89.7 242.9 89.6 242.7C89.5 242.6 89.4 242.4 89.2 242.3C89 242.2 88.8 242.1 88.6 242.1C88.4 242.1 88.2 242 88 242C87.8 242 87.7 242 87.5 242.1C87.4 242.1 87.2 242.2 87.1 242.2C87 242.3 86.9 242.3 86.7 242.4L86.3 241.5ZM89 244.6C88.7 244.5 88.5 244.5 88.2 244.5C87.9 244.5 87.7 244.5 87.4 244.5C87.1 244.5 86.9 244.6 86.8 244.7C86.6 244.8 86.5 245 86.5 245.2C86.4 245.5 86.5 245.8 86.7 246C86.9 246.2 87.2 246.3 87.6 246.4C87.9 246.5 88.2 246.5 88.4 246.4C88.6 246.3 88.8 246.3 89 246.1C89.2 245.9 89.3 245.8 89.4 245.6C89.5 245.4 89.6 245.2 89.6 245L89.7 244.6H89Z" fill="white"/>
<path d="M93.3984 238.6L94.4984 238.8L93.4984 245L96.4984 242.8L98.0984 243L94.8984 245.3L97.3984 249L95.7984 248.8L93.4984 245.3L92.9984 248.4L91.8984 248.2L93.3984 238.6Z" fill="white"/>
<path d="M102.699 244.9C102.699 244.6 102.799 244.3 102.899 244C102.999 243.7 103.199 243.5 103.399 243.3C103.599 243.1 103.899 243 104.099 242.8C104.399 242.7 104.699 242.6 104.999 242.7C105.299 242.8 105.599 242.8 105.899 242.9C106.199 243 106.399 243.2 106.599 243.4C106.799 243.6 106.899 243.9 107.099 244.1C107.199 244.4 107.299 244.7 107.199 245C107.099 245.3 107.099 245.6 106.999 245.9C106.899 246.2 106.699 246.4 106.499 246.6C106.299 246.8 105.999 246.9 105.799 247.1C105.499 247.2 105.199 247.3 104.899 247.2C104.599 247.1 104.299 247.1 103.999 247C103.699 246.9 103.499 246.7 103.299 246.5C103.099 246.3 102.999 246 102.799 245.8C102.799 245.5 102.699 245.3 102.699 244.9Z" fill="white"/>
<path d="M112.5 240.6L115.6 240.4C116 240.4 116.4 240.4 116.7 240.5C117 240.6 117.3 240.7 117.6 240.8C117.9 241 118.1 241.2 118.2 241.5C118.4 241.8 118.5 242.1 118.5 242.5C118.5 243 118.4 243.5 118.2 243.8C117.9 244.1 117.6 244.4 117.1 244.6C117.4 244.6 117.6 244.6 117.9 244.8C118.2 245 118.4 245 118.6 245.2C118.8 245.4 118.9 245.6 119.1 245.9C119.3 246.2 119.3 246.4 119.3 246.7C119.3 247.1 119.3 247.5 119.1 247.8C118.9 248.1 118.8 248.4 118.5 248.6C118.2 248.8 117.9 249 117.5 249.2C117.1 249.4 116.7 249.4 116.3 249.5L113.2 249.7L112.5 240.6ZM114.1 244.2L115.8 244.1C116 244.1 116.2 244 116.4 244C116.6 243.9 116.8 243.8 116.9 243.7C117 243.6 117.2 243.4 117.2 243.3C117.3 243.1 117.3 242.9 117.3 242.7C117.3 242.3 117.1 242 116.9 241.8C116.7 241.6 116.3 241.5 115.8 241.5L113.9 241.6L114.1 244.2ZM114.4 248.4L116.2 248.3C116.4 248.3 116.6 248.3 116.8 248.2C117 248.1 117.2 248.1 117.4 247.9C117.6 247.8 117.7 247.6 117.9 247.4C118 247.2 118.1 246.9 118 246.6C118 246.1 117.8 245.7 117.4 245.4C117 245.2 116.6 245.1 116 245.1L114.2 245.2L114.4 248.4Z" fill="white"/>
<path d="M120.398 242.8L121.498 242.6L121.598 243.5C121.698 243.3 121.698 243.2 121.798 243C121.898 242.8 121.998 242.7 122.198 242.6C122.298 242.5 122.498 242.4 122.698 242.3C122.898 242.2 123.098 242.2 123.198 242.1C123.398 242.1 123.598 242.1 123.698 242.1L123.798 243.3C123.698 243.3 123.598 243.3 123.498 243.3C123.398 243.3 123.298 243.3 123.198 243.3C122.598 243.4 122.198 243.6 121.998 244C121.798 244.4 121.698 244.9 121.798 245.5L122.298 248.5L121.198 248.7L120.398 242.8Z" fill="white"/>
<path d="M125.098 245.2C124.998 244.8 124.998 244.3 125.098 243.9C125.198 243.5 125.298 243.1 125.598 242.8C125.798 242.5 126.098 242.2 126.498 241.9C126.798 241.7 127.198 241.5 127.698 241.4C128.098 241.3 128.598 241.3 128.998 241.4C129.398 241.5 129.798 241.6 130.098 241.8C130.398 242 130.698 242.3 130.998 242.6C131.198 242.9 131.398 243.3 131.498 243.8C131.598 244.2 131.598 244.7 131.498 245.1C131.398 245.5 131.298 245.9 130.998 246.2C130.798 246.5 130.498 246.8 130.098 247.1C129.698 247.4 129.398 247.5 128.898 247.6C128.498 247.7 127.998 247.7 127.598 247.6C127.198 247.5 126.798 247.4 126.498 247.2C126.198 247 125.898 246.7 125.598 246.4C125.298 246 125.198 245.6 125.098 245.2ZM126.298 244.9C126.398 245.2 126.498 245.5 126.598 245.7C126.698 245.9 126.898 246.1 127.098 246.3C127.298 246.4 127.498 246.5 127.798 246.6C128.098 246.7 128.298 246.6 128.598 246.6C128.898 246.5 129.198 246.4 129.398 246.3C129.598 246.1 129.798 246 129.898 245.7C129.998 245.5 130.098 245.2 130.098 245C130.098 244.8 130.098 244.4 130.098 244.1C129.998 243.8 129.898 243.5 129.798 243.3C129.698 243.1 129.498 242.9 129.298 242.7C129.098 242.6 128.898 242.5 128.598 242.4C128.298 242.3 128.098 242.4 127.798 242.4C127.498 242.4 127.198 242.6 126.998 242.7C126.798 242.9 126.598 243 126.498 243.3C126.398 243.5 126.298 243.8 126.298 244C126.198 244.3 126.198 244.6 126.298 244.9Z" fill="white"/>
<path d="M132 240.5L133.1 240.2L133.4 241.1C133.4 240.7 133.6 240.4 133.9 240.1C134.2 239.8 134.5 239.6 135 239.4C135.3 239.3 135.6 239.3 135.8 239.3C136 239.3 136.3 239.4 136.6 239.5C136.8 239.6 137.1 239.8 137.3 240C137.5 240.2 137.7 240.6 137.8 240.9L138.9 244.6L137.8 244.9L136.8 241.5C136.7 241.2 136.6 241 136.5 240.8C136.4 240.6 136.2 240.5 136.1 240.4C135.9 240.3 135.8 240.3 135.6 240.3C135.4 240.3 135.3 240.3 135.1 240.4C134.9 240.5 134.7 240.6 134.5 240.7C134.3 240.8 134.2 241 134.1 241.2C134 241.4 134 241.6 133.9 241.9C133.9 242.2 133.9 242.5 134 242.8L134.9 245.8L133.8 246.3L132 240.5Z" fill="white"/>
<path d="M140.101 243.2L141.801 238.2L138.701 239.4L138.301 238.5L142.701 236.8L143.101 237.8L141.301 242.8L144.701 241.5L145.101 242.4L140.401 244.2L140.101 243.2Z" fill="white"/>
<path d="M146.302 239C146.402 239.2 146.602 239.4 146.802 239.6C147.002 239.7 147.202 239.8 147.402 239.9C147.602 240 147.902 240 148.102 239.9C148.402 239.9 148.602 239.8 148.802 239.7C149.102 239.5 149.402 239.3 149.502 239.1C149.702 238.8 149.802 238.5 149.902 238.2L151.002 238.4C150.802 239.4 150.202 240.2 149.102 240.7C148.702 240.9 148.202 241 147.802 241C147.402 241 147.002 241 146.602 240.8C146.202 240.7 145.902 240.4 145.602 240.2C145.302 240 145.102 239.6 144.902 239.2C144.702 238.8 144.602 238.4 144.602 238C144.602 237.6 144.602 237.2 144.802 236.8C145.002 236.4 145.102 236.1 145.402 235.8C145.702 235.5 146.002 235.2 146.402 235C146.902 234.8 147.302 234.7 147.702 234.7C148.102 234.7 148.502 234.8 148.802 235C149.102 235.2 149.402 235.4 149.702 235.7C150.002 236 150.202 236.3 150.302 236.7L150.502 237.1L146.302 239ZM149.202 236.6C149.102 236.4 148.902 236.2 148.802 236C148.602 235.8 148.502 235.7 148.302 235.6C148.102 235.5 147.902 235.5 147.702 235.5C147.502 235.5 147.202 235.6 147.002 235.7C146.702 235.8 146.502 236 146.402 236.2C146.202 236.4 146.102 236.6 146.002 236.8C145.902 237 145.902 237.2 145.902 237.5C145.902 237.7 146.002 237.9 146.002 238.1L149.202 236.6Z" fill="white"/>
<path d="M158.301 227.1C157.901 227 157.501 226.9 157.101 227C156.701 227.1 156.301 227.2 155.901 227.4C155.501 227.7 155.101 228 154.901 228.4C154.701 228.8 154.501 229.2 154.401 229.6C154.301 230 154.401 230.5 154.501 231C154.601 231.5 154.801 231.9 155.101 232.3C155.401 232.7 155.701 233 156.001 233.3C156.401 233.6 156.701 233.8 157.201 233.9C157.601 234 158.101 234 158.501 234C159.001 233.9 159.401 233.8 159.801 233.5C160.201 233.2 160.601 232.9 160.801 232.5C161.001 232.1 161.101 231.7 161.101 231.2L162.401 231.3C162.401 231.4 162.401 231.6 162.301 231.8C162.301 232 162.201 232.3 162.001 232.6C161.901 232.9 161.701 233.2 161.401 233.5C161.101 233.8 160.801 234.1 160.401 234.4C159.801 234.8 159.201 235 158.601 235.1C158.001 235.2 157.401 235.1 156.801 235C156.201 234.8 155.701 234.6 155.201 234.2C154.701 233.8 154.301 233.4 154.001 233C153.601 232.4 153.401 231.8 153.201 231.2C153.001 230.6 153.101 230 153.201 229.4C153.301 228.8 153.501 228.3 153.901 227.8C154.301 227.3 154.701 226.8 155.301 226.5C155.801 226.2 156.401 226 157.001 225.8C157.601 225.7 158.201 225.7 158.801 225.9L158.301 227.1Z" fill="white"/>
<path d="M162.302 229.2C162.002 228.9 161.802 228.5 161.702 228.1C161.602 227.7 161.602 227.3 161.602 226.9C161.602 226.5 161.802 226.1 162.002 225.7C162.202 225.3 162.502 225 162.802 224.7C163.202 224.4 163.502 224.2 163.902 224.1C164.302 224 164.702 224 165.102 224C165.502 224 165.902 224.2 166.302 224.4C166.702 224.6 167.002 224.9 167.302 225.2C167.602 225.5 167.802 225.9 167.902 226.3C168.002 226.7 168.002 227.1 168.002 227.5C167.902 227.9 167.802 228.3 167.602 228.7C167.402 229.1 167.102 229.4 166.802 229.7C166.402 230 166.102 230.2 165.702 230.3C165.302 230.4 164.902 230.4 164.502 230.4C164.102 230.4 163.702 230.2 163.302 230C162.902 229.8 162.602 229.5 162.302 229.2ZM163.302 228.4C163.502 228.6 163.702 228.8 163.902 229C164.102 229.1 164.402 229.2 164.602 229.3C164.802 229.3 165.102 229.3 165.402 229.3C165.702 229.2 165.902 229.1 166.202 228.9C166.402 228.7 166.602 228.5 166.802 228.3C167.002 228.1 167.002 227.8 167.002 227.6C167.002 227.4 167.002 227.1 166.902 226.8C166.802 226.5 166.702 226.3 166.502 226C166.302 225.8 166.102 225.6 165.902 225.4C165.702 225.3 165.402 225.2 165.202 225.1C165.002 225.1 164.702 225.1 164.402 225.1C164.102 225.1 163.902 225.3 163.602 225.5C163.302 225.7 163.202 225.9 163.002 226.1C162.802 226.3 162.802 226.6 162.802 226.8C162.802 227 162.802 227.3 162.902 227.6C163.002 227.9 163.102 228.2 163.302 228.4Z" fill="white"/>
<path d="M166.5 221.9L167.3 221.1L167.9 221.8C167.8 221.5 167.8 221.1 167.9 220.7C168 220.3 168.3 220 168.6 219.6C168.8 219.4 169 219.2 169.3 219.1C169.6 219 169.8 218.9 170.1 218.9C170.4 218.9 170.7 219 170.9 219.1C171.1 219.2 171.5 219.4 171.7 219.7L174.3 222.5L173.5 223.3L171.1 220.7C170.9 220.5 170.7 220.3 170.5 220.3C170.3 220.2 170.1 220.2 169.9 220.2C169.7 220.2 169.6 220.2 169.4 220.3C169.2 220.4 169.1 220.5 169 220.6C168.8 220.8 168.7 220.9 168.6 221.1C168.5 221.3 168.5 221.5 168.5 221.7C168.5 221.9 168.6 222.2 168.7 222.4C168.8 222.6 169 222.9 169.2 223.2L171.3 225.5L170.5 226.3L166.5 221.9Z" fill="white"/>
<path d="M174.498 215.4L173.398 216.6L175.398 218.5C175.498 218.6 175.598 218.7 175.798 218.8C175.898 218.9 176.098 219 176.198 219C176.298 219.1 176.498 219.1 176.598 219C176.698 218.9 176.898 218.9 176.998 218.7C177.098 218.6 177.198 218.5 177.298 218.4C177.398 218.3 177.398 218.1 177.498 218L178.298 218.7C178.298 218.9 178.198 219 178.098 219.2C177.998 219.4 177.898 219.5 177.798 219.6C177.498 219.9 177.198 220.1 176.998 220.2C176.798 220.3 176.498 220.3 176.298 220.3C176.098 220.2 175.898 220.1 175.698 220C175.498 219.8 175.298 219.7 175.098 219.5L172.798 217.3L171.898 218.3L171.198 217.6L172.098 216.6L170.898 215.4L171.698 214.6L172.898 215.8L173.998 214.6L174.498 215.4Z" fill="white"/>
<path d="M174.699 213.7L175.399 212.8L176.099 213.4C175.999 213.2 175.999 213.1 175.999 212.9C175.999 212.7 175.999 212.5 175.999 212.4C175.999 212.3 176.099 212 176.199 211.9C176.299 211.7 176.399 211.6 176.499 211.4C176.599 211.2 176.799 211.1 176.899 211.1L177.799 211.9C177.699 212 177.599 212 177.599 212.1C177.599 212.2 177.499 212.2 177.399 212.3C176.999 212.7 176.899 213.2 176.899 213.6C176.899 214 177.199 214.5 177.699 214.9L179.999 216.9L179.299 217.8L174.699 213.7Z" fill="white"/>
<path d="M175.8 208.9C175.6 208.8 175.5 208.6 175.5 208.3C175.5 208.1 175.5 207.9 175.7 207.7C175.9 207.5 176 207.4 176.3 207.4C176.6 207.4 176.7 207.4 176.9 207.6C177.1 207.8 177.2 207.9 177.2 208.2C177.2 208.5 177.2 208.6 177 208.8C176.8 209 176.7 209.1 176.4 209.1C176.1 209.1 176 209.1 175.8 208.9ZM177.7 210L178.4 209.1L183.2 212.8L182.5 213.7L177.7 210Z" fill="white"/>
<path d="M176.5 205.7L177.1 204.8L180.8 207.3C180.7 207 180.6 206.6 180.7 206.2C180.8 205.8 180.9 205.4 181.2 205C181.5 204.6 181.8 204.3 182.1 204.1C182.4 203.9 182.8 203.7 183.2 203.7C183.6 203.6 184 203.7 184.4 203.8C184.8 203.9 185.2 204.1 185.6 204.3C186 204.6 186.3 204.8 186.5 205.2C186.7 205.5 186.9 205.9 187 206.3C187.1 206.7 187.1 207.1 187 207.5C186.9 207.9 186.7 208.3 186.5 208.7C186.3 209 186 209.3 185.6 209.5C185.2 209.7 184.9 209.8 184.5 209.8L185.2 210.3L184.6 211.2L176.5 205.7ZM185.5 208.1C185.7 207.8 185.8 207.6 185.8 207.3C185.9 207 185.8 206.8 185.8 206.5C185.8 206.2 185.6 206 185.5 205.8C185.3 205.6 185.1 205.4 184.9 205.2C184.7 205 184.4 204.9 184.1 204.8C183.8 204.7 183.6 204.7 183.3 204.8C183.1 204.8 182.8 204.9 182.6 205.1C182.4 205.2 182.2 205.4 182 205.7C181.8 206 181.7 206.2 181.7 206.5C181.7 206.8 181.7 207 181.7 207.3C181.8 207.5 181.9 207.8 182 208C182.2 208.2 182.4 208.4 182.6 208.6C182.8 208.8 183.1 208.9 183.4 209C183.7 209.1 183.9 209.1 184.2 209C184.4 209 184.7 208.9 184.9 208.7C185.1 208.5 185.3 208.3 185.5 208.1Z" fill="white"/>
<path d="M191.701 199.7L191.101 200.7L190.301 200.2C190.501 200.5 190.601 200.8 190.601 201.2C190.601 201.6 190.501 202 190.301 202.4C190.201 202.7 190.001 202.9 189.801 203.1C189.601 203.3 189.401 203.4 189.101 203.5C188.801 203.6 188.601 203.6 188.201 203.6C187.901 203.6 187.601 203.4 187.201 203.2L183.801 201.3L184.401 200.3L187.501 202.1C187.701 202.2 188.001 202.3 188.201 202.4C188.401 202.4 188.601 202.4 188.801 202.4C189.001 202.3 189.101 202.3 189.301 202.1C189.501 201.9 189.501 201.8 189.601 201.7C189.701 201.5 189.801 201.3 189.801 201.1C189.801 200.9 189.801 200.7 189.701 200.5C189.601 200.3 189.501 200.1 189.301 199.9C189.101 199.7 188.901 199.5 188.601 199.3L185.901 197.8L186.501 196.8L191.701 199.7Z" fill="white"/>
<path d="M189.402 192.8L188.702 194.3L191.202 195.5C191.402 195.6 191.502 195.6 191.702 195.7C191.902 195.8 192.002 195.8 192.102 195.8C192.202 195.8 192.402 195.8 192.502 195.7C192.602 195.6 192.702 195.5 192.802 195.3C192.902 195.2 192.902 195 192.902 194.9C192.902 194.8 193.002 194.6 192.902 194.5L193.802 195C193.802 195.2 193.802 195.3 193.702 195.5C193.602 195.7 193.602 195.9 193.502 196C193.302 196.4 193.102 196.7 192.902 196.8C192.702 196.9 192.502 197.1 192.202 197.1C192.002 197.1 191.702 197.1 191.502 197C191.302 196.9 191.002 196.8 190.802 196.7L188.002 195.3L187.402 196.5L186.502 196.1L187.102 194.9L185.602 194.2L186.102 193.2L187.602 193.9L188.302 192.4L189.402 192.8Z" fill="white"/>
<path d="M191.799 192.5C191.399 192.3 190.999 192.1 190.699 191.8C190.399 191.5 190.199 191.2 189.999 190.8C189.799 190.4 189.799 190 189.699 189.6C189.699 189.2 189.799 188.8 189.899 188.3C190.099 187.9 190.299 187.5 190.599 187.2C190.899 186.9 191.199 186.7 191.599 186.5C191.999 186.3 192.399 186.3 192.799 186.2C193.199 186.2 193.599 186.3 193.999 186.4C194.399 186.6 194.799 186.8 195.099 187.1C195.399 187.4 195.599 187.7 195.799 188.1C195.999 188.5 195.999 188.9 195.999 189.3C195.999 189.7 195.899 190.1 195.799 190.6C195.699 191.1 195.399 191.4 195.099 191.7C194.799 192 194.499 192.2 194.099 192.4C193.699 192.6 193.299 192.6 192.899 192.7C192.499 192.8 192.199 192.7 191.799 192.5ZM192.299 191.4C192.599 191.5 192.899 191.6 193.099 191.6C193.399 191.6 193.599 191.6 193.899 191.5C194.099 191.4 194.299 191.3 194.499 191.1C194.699 190.9 194.799 190.7 194.999 190.4C195.199 190.1 195.199 189.8 195.199 189.6C195.199 189.3 195.099 189.1 194.999 188.9C194.899 188.7 194.699 188.5 194.499 188.3C194.299 188.1 193.999 188 193.799 187.9C193.499 187.8 193.199 187.7 192.999 187.7C192.699 187.7 192.499 187.7 192.199 187.8C191.999 187.9 191.799 188 191.599 188.2C191.399 188.4 191.299 188.6 191.099 188.9C190.999 189.2 190.899 189.5 190.899 189.7C190.899 190 190.999 190.2 191.099 190.4C191.199 190.6 191.399 190.8 191.599 191C191.699 191.1 191.999 191.2 192.299 191.4Z" fill="white"/>
<path d="M191.801 184.1L192.201 183L193.101 183.3C193.001 183.2 192.901 183 192.801 182.9C192.701 182.7 192.701 182.6 192.601 182.4C192.501 182.2 192.501 182 192.501 181.8C192.501 181.6 192.501 181.4 192.601 181.2C192.701 181 192.701 180.9 192.801 180.7L194.001 181.1C193.901 181.2 193.901 181.3 193.901 181.3C193.901 181.3 193.801 181.5 193.801 181.6C193.601 182.1 193.601 182.6 193.901 183C194.101 183.4 194.501 183.7 195.201 183.9L198.101 184.8L197.701 185.9L191.801 184.1Z" fill="white"/>
<defs>
<filter id="filter0_ii" x="0" y="48" width="218" height="218" filterUnits="userSpaceOnUse" color-interpolation-filters="sRGB">
<feFlood flood-opacity="0" result="BackgroundImageFix"/>
<feBlend mode="normal" in="SourceGraphic" in2="BackgroundImageFix" result="shape"/>
<feColorMatrix in="SourceAlpha" type="matrix" values="0 0 0 0 0 0 0 0 0 0 0 0 0 0 0 0 0 0 127 0" result="hardAlpha"/>
<feOffset/>
<feGaussianBlur stdDeviation="4"/>
<feComposite in2="hardAlpha" operator="arithmetic" k2="-1" k3="1"/>
<feColorMatrix type="matrix" values="0 0 0 0 0.9875 0 0 0 0 0.722843 0 0 0 0 0.386771 0 0 0 1 0"/>
<feBlend mode="normal" in2="shape" result="effect1_innerShadow"/>
<feColorMatrix in="SourceAlpha" type="matrix" values="0 0 0 0 0 0 0 0 0 0 0 0 0 0 0 0 0 0 127 0" result="hardAlpha"/>
<feOffset/>
<feGaussianBlur stdDeviation="6"/>
<feComposite in2="hardAlpha" operator="arithmetic" k2="-1" k3="1"/>
<feColorMatrix type="matrix" values="0 0 0 0 0 0 0 0 0 0 0 0 0 0 0 0 0 0 0.2 0"/>
<feBlend mode="normal" in2="effect1_innerShadow" result="effect2_innerShadow"/>
</filter>
<filter id="filter1_i" x="59" y="107" width="100" height="100" filterUnits="userSpaceOnUse" color-interpolation-filters="sRGB">
<feFlood flood-opacity="0" result="BackgroundImageFix"/>
<feBlend mode="normal" in="SourceGraphic" in2="BackgroundImageFix" result="shape"/>
<feColorMatrix in="SourceAlpha" type="matrix" values="0 0 0 0 0 0 0 0 0 0 0 0 0 0 0 0 0 0 127 0" result="hardAlpha"/>
<feOffset/>
<feGaussianBlur stdDeviation="6"/>
<feComposite in2="hardAlpha" operator="arithmetic" k2="-1" k3="1"/>
<feColorMatrix type="matrix" values="0 0 0 0 0 0 0 0 0 0 0 0 0 0 0 0 0 0 0.4 0"/>
<feBlend mode="normal" in2="shape" result="effect1_innerShadow"/>
</filter>
<linearGradient id="paint0_linear" x1="51.775" y1="55.4938" x2="218" y2="244.2" gradientUnits="userSpaceOnUse">
<stop stop-color="white"/>
<stop offset="1" stop-color="#705F5F" stop-opacity="0"/>
</linearGradient>
<linearGradient id="paint1_linear" x1="174.52" y1="211.6" x2="38.8" y2="105.52" gradientUnits="userSpaceOnUse">
<stop stop-color="#FFE4C1"/>
<stop offset="1" stop-color="#383838" stop-opacity="0"/>
</linearGradient>
<linearGradient id="paint2_linear" x1="194.68" y1="228.4" x2="17.2" y2="89.68" gradientUnits="userSpaceOnUse">
<stop stop-color="#FFE4C1"/>
<stop offset="1" stop-color="#383838" stop-opacity="0"/>
</linearGradient>
</defs>
</svg>
