<svg width="218" height="268" viewBox="0 0 218 268" fill="none" xmlns="http://www.w3.org/2000/svg">
<path d="M86.0098 29.7983C84.9084 29.7983 84.0273 30.669 84.0273 31.7573V50.0412C84.0273 51.1295 84.9084 52.0002 86.0098 52.0002H131.385C132.487 52.0002 133.368 51.1295 133.368 50.0412V31.7573C133.368 30.669 132.487 29.7983 131.385 29.7983H86.0098ZM129.403 44.1642C129.403 45.2526 128.522 46.1232 127.42 46.1232H90.1949C89.0935 46.1232 88.2125 45.2526 88.2125 44.1642V35.893C88.2125 34.8046 89.0935 33.934 90.1949 33.934H127.42C128.522 33.934 129.403 34.8046 129.403 35.893V44.1642Z" fill="#D9B68B"/>
<path d="M140.045 0L114.918 37.8775H127.37L155.388 0H140.045Z" fill="#0FA711"/>
<path d="M127.377 0L102.473 37.8775H114.925L140.052 0H127.377Z" fill="white"/>
<path d="M114.924 0L90.0195 37.8775H102.472L127.376 0H114.924Z" fill="#FF7600"/>
<path d="M90.0177 37.8775H102.47L77.343 0H62L90.0177 37.8775Z" fill="#FF7600"/>
<path d="M102.471 37.8775H114.923L90.0184 0H77.3438L102.471 37.8775Z" fill="white"/>
<path opacity="0.5" d="M110.695 6.27979L104.469 15.6931L119.145 37.8818H127.372L129.596 34.744L110.695 6.27979Z" fill="#3E4347"/>
<path d="M114.924 37.8775H127.376L102.472 0H90.0195L114.924 37.8775Z" fill="#0FA711"/>
<g filter="url(#filter0_ii)">
<path d="M218 159C218 219.199 169.199 268 109 268C48.801 268 0 219.199 0 159C0 98.801 48.801 50 109 50C169.199 50 218 98.801 218 159Z" fill="#C18A43" fill-opacity="0.7"/>
</g>
<path d="M214.5 159C214.5 217.266 167.266 264.5 109 264.5C50.734 264.5 3.5 217.266 3.5 159C3.5 100.734 50.734 53.5 109 53.5C167.266 53.5 214.5 100.734 214.5 159Z" stroke="#E29435" stroke-width="7"/>
<path d="M214.5 159C214.5 217.266 167.266 264.5 109 264.5C50.734 264.5 3.5 217.266 3.5 159C3.5 100.734 50.734 53.5 109 53.5C167.266 53.5 214.5 100.734 214.5 159Z" stroke="url(#paint0_linear)" stroke-width="7"/>
<path d="M196 159C196 207.049 157.049 246 109 246C60.9512 246 22 207.049 22 159C22 110.951 60.9512 72 109 72C157.049 72 196 110.951 196 159Z" fill="#764B16"/>
<path fill-rule="evenodd" clip-rule="evenodd" d="M109 87C69.2355 87 37 119.235 37 159C37 198.764 69.2355 231 109 231C148.764 231 181 198.764 181 159C181 119.235 148.764 87 109 87ZM7 159C7 102.667 52.667 57 109 57C165.333 57 211 102.667 211 159C211 215.333 165.333 261 109 261C52.667 261 7 215.333 7 159Z" fill="#805726"/>
<path d="M109.001 82C66.5595 82 32 116.357 32 159.001C32 201.645 66.3574 236.002 109.001 236.002C151.645 236.002 186.002 201.645 186.002 159.001C186.002 116.357 151.442 82 109.001 82ZM93.6412 89.4778C93.8433 89.4778 93.8433 89.4778 93.6412 89.4778C95.0559 92.5093 97.6833 94.3282 100.311 93.7219C102.938 93.3177 105.565 91.4988 105.767 87.861C106.172 87.861 106.576 87.861 106.98 87.861C106.98 98.7745 106.172 110.496 104.959 123.229C104.757 124.441 104.757 125.654 104.757 126.867C104.353 125.856 103.948 124.644 103.544 123.229C99.3001 112.517 95.4601 100.998 92.4286 89.6799C93.0349 89.6799 93.237 89.4778 93.6412 89.4778ZM76.0583 95.743C78.2814 98.3703 81.1109 99.3808 83.5361 98.1682C86.3655 96.9556 87.9823 94.1261 87.376 91.0946C87.7802 90.8925 88.1844 90.8925 88.5886 90.6904C91.216 101.2 93.8433 112.72 95.8643 125.452C96.0664 126.867 96.2685 127.877 96.6727 129.09C96.0664 128.079 95.4601 127.069 94.4496 125.856C87.5781 116.559 80.9088 106.454 75.0478 96.3493C75.2499 96.1472 75.6541 95.9451 76.0583 95.743ZM60.4964 106.656C63.3259 108.475 66.3574 108.678 68.3784 107.061C69.9952 105.848 70.8036 104.029 70.8036 102.21C70.8036 101.2 70.6015 100.189 69.9952 99.3808C70.3994 99.1787 70.6015 98.9766 71.0057 98.7745C76.4625 108.071 81.7172 118.783 87.1739 130.302C87.7802 131.515 88.3865 132.526 88.7907 133.536C87.9823 132.728 86.9718 131.919 85.9613 131.111C77.0688 123.633 67.9742 115.549 59.688 107.465C59.8901 107.061 60.2943 106.859 60.4964 106.656ZM48.3703 121.006C48.5724 121.006 48.5724 121.006 48.3703 121.006C51.6039 122.016 54.6355 121.612 56.0502 119.389C56.4544 118.783 57.4649 117.166 57.4649 115.549C57.4649 114.538 57.0607 112.922 55.8481 111.507C56.0502 111.305 56.4544 110.901 56.6565 110.699C64.3364 118.378 72.2184 127.271 80.5046 136.972C81.313 137.982 82.1214 138.791 82.9298 139.599C81.9193 138.993 80.7067 138.589 79.494 137.982C68.9847 133.132 58.0712 127.675 47.764 122.016C47.9661 121.612 48.1682 121.41 48.3703 121.006ZM40.4883 137.982C40.4883 137.982 40.4883 137.78 40.4883 137.982C43.924 138.184 46.5514 136.972 47.5619 134.344C47.764 133.738 47.9661 132.93 47.9661 131.717C47.9661 130.505 47.5619 128.281 45.1367 126.665C45.3388 126.26 45.5409 126.058 45.743 125.654C55.0397 131.111 65.1448 137.578 75.452 144.854C76.4625 145.662 77.6751 146.269 78.4835 146.875C77.473 146.673 76.0583 146.471 74.6436 146.066C63.3259 144.45 51.4018 142.024 39.882 138.993C40.2862 138.791 40.4883 138.387 40.4883 137.982ZM37.2547 156.374C37.2547 156.374 37.2547 156.172 37.2547 156.374C40.4883 155.767 42.9135 153.746 43.1156 151.119C43.1156 150.917 43.1156 150.715 43.1156 150.311C43.1156 147.885 41.903 145.258 38.8715 144.248C38.8715 143.843 39.0736 143.439 39.0736 143.035C49.5829 145.864 60.9006 149.704 72.8247 153.948C74.0373 154.353 75.2499 154.757 76.2604 154.959C75.0478 154.959 73.8352 155.161 72.4205 155.161C61.1027 156.576 48.7745 157.182 37.0526 157.384C37.2547 157.182 37.2547 156.778 37.2547 156.374ZM38.8715 175.169C38.8715 174.967 38.8715 174.967 38.8715 175.169C41.4988 173.754 43.1156 171.733 43.1156 169.308C43.1156 169.106 43.1156 168.702 43.1156 168.5C42.7114 165.872 40.8925 163.245 37.2547 163.043C37.2547 162.639 37.2547 162.235 37.2547 161.83C48.1682 161.83 59.8901 162.437 72.6226 163.447C74.0373 163.649 75.2499 163.649 76.2604 163.649C75.2499 164.054 74.0373 164.458 72.6226 164.862C61.9111 169.106 50.3913 172.946 39.0736 176.18C39.0736 175.978 39.0736 175.573 38.8715 175.169ZM45.3387 192.752C45.3387 192.752 45.3387 192.55 45.3387 192.752C47.1577 191.135 48.1682 189.316 48.1682 187.295C48.1682 186.487 47.9661 185.881 47.764 185.274C46.7535 182.849 44.3282 180.828 40.6904 181.636C40.4883 181.232 40.4883 180.828 40.2862 180.424C50.7955 177.594 62.3153 175.169 74.8457 172.946C76.2604 172.744 77.2709 172.34 78.4835 172.138C77.473 172.744 76.4625 173.35 75.2499 174.361C65.9532 181.232 55.8481 187.902 45.743 193.965C45.743 193.358 45.5409 193.156 45.3387 192.752ZM56.2523 208.112C57.2628 206.495 57.667 205.08 57.667 203.463C57.667 202.251 57.2628 201.038 56.4544 200.23C54.8376 198.209 51.806 196.794 48.5724 198.411C48.3703 198.007 48.1682 197.805 47.9661 197.4C57.2628 191.944 67.9742 186.487 79.494 181.03C80.7067 180.424 81.7172 179.818 82.7277 179.413C81.9193 180.222 81.1109 181.232 80.3024 182.243C73.2289 191.337 65.1448 200.432 57.0607 208.92C56.8586 208.718 56.4544 208.516 56.2523 208.112ZM70.6015 220.036C70.8036 218.823 71.0057 217.813 71.0057 216.802C71.0057 214.781 70.1973 213.164 68.7826 212.356C66.7616 210.941 63.528 210.133 60.9006 212.76C60.4964 212.558 60.2943 212.154 60.0922 211.952C67.7721 204.272 76.4625 196.188 86.1634 188.104C87.1739 187.295 87.9823 186.487 88.7907 185.678C88.1844 186.689 87.7802 187.902 87.1739 189.114C82.7277 199.624 77.473 210.537 71.612 220.642C71.4099 220.44 71.0057 220.238 70.6015 220.036ZM87.5781 227.918C87.7802 224.482 86.3655 221.855 83.9403 220.844C81.5151 220.036 78.2814 220.238 76.2604 223.27C75.8562 223.067 75.6541 222.865 75.2499 222.663C80.7066 213.367 86.9718 203.261 94.2475 192.752C95.0559 191.539 95.6622 190.529 96.2685 189.721C96.0664 190.731 95.8643 192.146 95.4601 193.56C93.8433 204.878 91.4181 216.802 88.5886 228.322C88.3865 228.12 87.9823 228.12 87.5781 227.918ZM105.969 230.949C105.363 227.716 103.342 225.291 100.715 225.088C98.0874 224.886 95.0559 225.897 94.0454 229.333C93.6412 229.333 93.237 229.13 92.8328 229.13C95.6622 218.621 99.3001 207.303 103.544 195.379C103.948 194.167 104.353 192.954 104.555 191.944C104.555 193.156 104.757 194.369 104.757 195.784C106.172 207.101 106.98 219.43 107.182 231.151C106.778 231.151 106.374 231.151 105.969 230.949ZM178.928 144.45C176.301 145.864 174.482 147.885 174.482 150.311C174.482 150.513 174.482 150.917 174.482 151.119C174.886 153.746 176.705 156.374 180.343 156.576C180.343 156.98 180.343 157.384 180.343 157.788C169.632 157.788 157.708 156.98 144.975 155.767C143.56 155.565 142.348 155.565 141.337 155.565C142.348 155.161 143.56 154.757 144.975 154.353C155.687 150.108 167.206 146.269 178.524 143.237C178.726 143.641 178.726 144.045 178.928 144.45ZM172.663 126.867C172.663 126.867 172.663 127.069 172.663 126.867C170.844 128.484 169.834 130.302 169.834 132.323C169.834 133.132 170.036 133.738 170.238 134.344C171.248 136.77 173.674 138.791 177.312 138.184C177.514 138.589 177.514 138.993 177.716 139.397C167.206 142.024 155.485 144.45 142.954 146.673C141.539 146.875 140.529 147.077 139.316 147.481C140.327 146.875 141.337 146.269 142.55 145.46C151.847 138.387 161.952 131.717 172.057 125.856C172.259 126.26 172.461 126.463 172.663 126.867ZM162.154 111.709C161.143 113.326 160.537 114.943 160.537 116.357C160.537 117.57 160.941 118.783 161.75 119.591C163.366 121.612 166.196 123.027 169.43 121.41C169.632 121.814 169.834 122.016 170.036 122.42C160.537 127.675 150.028 133.132 138.306 138.184C137.093 138.791 136.083 139.195 135.072 139.801C135.881 138.993 136.689 137.982 137.7 136.972C144.975 128.079 153.059 118.985 161.345 110.699C161.548 111.103 161.952 111.305 162.154 111.709ZM147.603 99.1787C147.603 99.1787 147.805 99.3808 147.603 99.1787C147.4 100.391 146.996 101.402 146.996 102.412C146.996 104.231 147.805 105.848 149.219 106.859C151.24 108.273 154.474 109.082 157.101 106.656C157.303 106.859 157.708 107.263 157.91 107.465C150.23 115.145 141.337 123.027 131.434 131.111C130.424 131.919 129.413 132.728 128.807 133.536C129.413 132.526 129.818 131.515 130.424 130.1C135.072 119.591 140.529 108.678 146.39 98.5724C146.996 98.7745 147.198 98.9766 147.603 99.1787ZM130.626 91.2967C130.828 91.2967 130.828 91.2967 130.626 91.2967C130.424 94.7324 131.839 97.3598 134.264 98.3703C136.689 99.3808 139.923 99.1787 141.944 95.9451C142.348 96.1472 142.55 96.3493 142.954 96.5514C137.497 105.848 131.03 115.751 123.552 126.26C122.744 127.271 122.138 128.281 121.531 129.292C121.733 128.281 122.138 126.867 122.34 125.452C124.159 114.134 126.584 102.21 129.413 90.8925C130.02 90.8925 130.222 91.0946 130.626 91.2967ZM112.437 87.861C112.437 87.861 112.639 87.861 112.437 87.861C113.043 91.0946 115.064 93.5198 117.691 93.7219C120.319 93.924 123.35 92.9135 124.563 89.4778C124.967 89.4778 125.371 89.6799 125.775 89.6799C122.946 100.189 119.106 111.507 114.66 123.229C114.256 124.441 113.851 125.654 113.447 126.665C113.447 125.452 113.245 124.239 113.245 122.825C112.033 111.507 111.224 99.1787 111.224 87.4568C111.628 87.861 112.033 87.861 112.437 87.861ZM124.361 229.333C122.744 226.301 120.319 224.684 117.691 225.088C115.064 225.493 112.437 227.312 112.235 230.949C111.83 230.949 111.426 230.949 111.022 230.949C111.022 220.036 111.628 208.314 112.841 195.581C113.043 194.369 113.043 193.358 113.043 192.348C113.043 192.146 113.043 192.146 113.043 191.944C113.447 192.954 113.851 194.167 114.256 195.581C118.5 206.293 122.34 217.813 125.573 229.13C125.169 229.333 124.765 229.333 124.361 229.333ZM141.742 223.067C141.742 223.067 141.539 223.067 141.742 223.067C139.518 220.44 136.689 219.43 134.264 220.642C131.434 221.855 129.818 224.684 130.626 227.716C130.222 227.918 129.818 227.918 129.413 228.12C126.584 217.611 124.159 206.091 122.138 193.56C121.936 192.146 121.733 191.135 121.329 189.923C121.936 190.933 122.542 191.944 123.552 193.156C130.424 202.453 137.093 212.558 142.954 222.663C142.348 222.865 142.146 222.865 141.742 223.067ZM157.303 212.154C157.303 212.356 157.303 212.356 157.303 212.154C154.474 210.335 151.442 210.133 149.421 211.75C147.805 212.962 146.996 214.781 146.996 216.6C146.996 217.611 147.198 218.621 147.805 219.43C147.4 219.632 147.198 219.834 146.794 220.036C141.337 210.739 135.881 200.028 130.626 188.508C130.02 187.295 129.413 186.285 129.009 185.274C129.818 186.083 130.828 186.891 131.839 187.699C140.933 194.773 150.028 202.857 158.314 211.143C157.91 211.75 157.708 211.952 157.303 212.154ZM169.227 198.007C169.227 198.007 169.227 198.209 169.227 198.007C165.994 196.996 162.962 197.4 161.548 199.624C161.143 200.23 160.133 201.847 160.133 203.463C160.133 204.474 160.537 206.091 161.75 207.506C161.548 207.708 161.143 208.112 160.941 208.314C153.261 200.634 145.379 191.742 137.295 182.041C136.487 181.03 135.678 180.02 134.87 179.413C135.881 180.02 137.093 180.424 138.306 181.03C148.815 185.678 159.729 191.135 170.036 196.794C169.632 197.4 169.43 197.603 169.227 198.007ZM177.109 181.03C177.109 181.232 177.109 181.232 177.109 181.03C173.674 180.828 171.046 182.041 170.036 184.668C169.834 185.274 169.632 186.083 169.632 187.295C169.632 188.508 170.036 190.731 172.461 192.348C172.259 192.752 172.057 192.954 171.855 193.358C162.558 187.902 152.453 181.434 142.146 174.159C141.135 173.35 139.923 172.744 139.114 172.138C140.125 172.34 141.539 172.744 142.954 172.946C154.272 174.563 166.196 176.988 177.514 180.02C177.312 180.424 177.312 180.828 177.109 181.03ZM180.343 162.841C177.109 163.447 174.684 165.266 174.482 167.893C174.482 168.096 174.482 168.298 174.482 168.702C174.482 171.127 175.695 173.754 178.726 174.765C178.726 175.169 178.524 175.573 178.524 175.978C168.015 173.148 156.697 169.51 144.773 165.064C143.56 164.66 142.348 164.256 141.337 164.054C142.55 164.054 143.763 163.851 145.177 163.851C156.495 162.639 168.823 161.83 180.545 161.83C180.545 162.033 180.343 162.437 180.343 162.841Z" fill="#D9B68B"/>
<circle cx="109" cy="159" r="77" stroke="url(#paint1_linear)" stroke-width="2"/>
<circle cx="109" cy="159" r="101" stroke="url(#paint2_linear)" stroke-width="2"/>
<g filter="url(#filter1_i)">
<circle cx="109" cy="159" r="50" fill="#805726"/>
</g>
<path fill-rule="evenodd" clip-rule="evenodd" d="M75.6891 151.366C75.0206 152.034 75.0602 153.12 75.6313 153.873C76.8239 155.447 77.5316 157.408 77.5316 159.535C77.5316 161.508 76.9226 163.338 75.8825 164.849C75.3625 165.604 75.3512 166.648 75.9996 167.296C76.6533 167.95 77.7241 167.953 78.2831 167.217C79.9033 165.083 80.8649 162.421 80.8649 159.535C80.8649 156.439 79.7582 153.601 77.9189 151.396C77.3474 150.711 76.3201 150.735 75.6891 151.366ZM81.295 170.247C80.7145 170.958 80.7092 172.006 81.3586 172.655C82.011 173.308 83.0753 173.31 83.6701 172.604C86.646 169.074 88.4393 164.514 88.4393 159.535C88.4393 154.357 86.4998 149.632 83.3076 146.047C82.7062 145.372 81.6671 145.388 81.0276 146.027C80.3661 146.689 80.3871 147.761 80.9979 148.469C83.558 151.439 85.106 155.306 85.106 159.535C85.106 163.598 83.6773 167.326 81.295 170.247ZM87.0569 176.004C86.453 176.696 86.4496 177.746 87.0995 178.396C87.7514 179.048 88.8129 179.05 89.4241 178.36C93.8623 173.348 96.5566 166.756 96.5566 159.535C96.5566 152.12 93.7154 145.369 89.0623 140.31C88.4466 139.641 87.4026 139.652 86.7596 140.295C86.1012 140.954 86.1152 142.02 86.7402 142.711C90.7691 147.159 93.2233 153.061 93.2233 159.535C93.2233 165.839 90.8973 171.599 87.0569 176.004Z" fill="#FFE4C1"/>
<mask id="mask0" mask-type="alpha" maskUnits="userSpaceOnUse" x="59" y="109" width="100" height="100">
<circle cx="109" cy="159" r="50" fill="#805726"/>
</mask>
<g mask="url(#mask0)">
<path fill-rule="evenodd" clip-rule="evenodd" d="M129.609 180.434C130.744 180.065 131.757 179.369 132.551 178.399L139.604 203.405H174.614V112.334H133.542V113.763V140.14C130.415 138.036 127.253 137.115 124.251 137.15C120.5 137.194 117.141 138.728 114.553 141.047C109.454 145.617 107.049 153.589 110.896 159.866C114.299 165.418 117.254 169.986 119.36 173.167C120.413 174.758 121.254 176.002 121.832 176.85C122.121 177.274 122.345 177.599 122.496 177.818C122.572 177.927 122.63 178.011 122.669 178.067L122.729 178.153C122.747 178.178 122.765 178.203 122.784 178.226C124.568 180.457 127.234 181.205 129.609 180.434ZM125.764 165.903C124.179 164.318 123.286 162.17 123.279 159.929C123.264 158.256 123.745 156.617 124.659 155.217C125.574 153.816 126.882 152.718 128.419 152.058C127.933 151.09 127.134 150.315 126.152 149.859C125.169 149.403 124.061 149.294 123.008 149.548C121.956 149.803 121.02 150.407 120.355 151.261C119.689 152.116 119.333 153.17 119.343 154.253C119.343 154.608 119.202 154.949 118.951 155.2C118.7 155.451 118.36 155.592 118.005 155.592C117.65 155.592 117.309 155.451 117.058 155.2C116.807 154.949 116.666 154.608 116.666 154.253C116.67 152.401 117.36 150.616 118.603 149.242C119.845 147.869 121.552 147.004 123.395 146.814C125.237 146.624 127.085 147.124 128.581 148.216C130.077 149.308 131.116 150.915 131.498 152.727C131.562 153.071 131.493 153.426 131.304 153.72C131.115 154.014 130.82 154.224 130.48 154.307C129.111 154.636 127.909 155.453 127.1 156.605C126.29 157.757 125.928 159.164 126.083 160.564C126.237 161.963 126.897 163.258 127.938 164.206C128.979 165.154 130.331 165.689 131.738 165.712C132.094 165.712 132.434 165.853 132.685 166.104C132.936 166.355 133.077 166.695 133.077 167.05C133.07 167.403 132.927 167.74 132.677 167.989C132.428 168.239 132.091 168.382 131.738 168.389C129.497 168.382 127.349 167.488 125.764 165.903Z" fill="#FFE4C1"/>
</g>
<path d="M58.3 91.6998L53 84.2998L55.4 82.5998C56.2 81.9998 56.9 81.7998 57.6 81.7998C58.2 81.7998 58.8 82.1998 59.3 82.7998C59.5 83.0998 59.7 83.4998 59.7 83.8998C59.7 84.2998 59.6 84.6998 59.3 85.0998C59.8 84.8998 60.2 84.8998 60.7 85.0998C61.2 85.1998 61.5 85.4998 61.8 85.9998C62.3 86.6998 62.4 87.2998 62.3 87.9998C62.2 88.6998 61.7 89.2998 60.9 89.8998L58.3 91.6998ZM56.2 86.7998L57.7 85.6998C58.1 85.3998 58.4 84.9998 58.5 84.5998C58.6 84.1998 58.5 83.7998 58.3 83.4998C58 83.0998 57.7 82.8998 57.3 82.8998C56.9 82.8998 56.5 83.0998 56 83.3998L54.6 84.3998L56.2 86.7998ZM56.8 87.5998L58.7 90.1998L60.3 88.9998C60.8 88.6998 61 88.2998 61.1 87.8998C61.2 87.4998 61.1 87.0998 60.8 86.6998C60.2 85.7998 59.4 85.6998 58.4 86.3998L56.8 87.5998Z" fill="white"/>
<path d="M62.2008 81.8002C62.3008 81.0002 62.7008 80.4002 63.4008 80.0002C64.6008 79.3002 65.7008 79.6002 66.5008 81.0002L68.8008 84.8002L67.8008 85.4002L65.5008 81.6002C65.2008 81.2002 65.0008 80.9002 64.7008 80.8002C64.4008 80.7002 64.0008 80.8002 63.6008 81.0002C63.3008 81.2002 63.0008 81.4002 62.9008 81.8002C62.8008 82.1002 62.7008 82.5002 62.7008 82.8002L65.2008 86.9002L64.2008 87.5002L59.3008 79.3002L60.3008 78.7002L62.2008 81.8002Z" fill="white"/>
<path d="M73.8008 82.1999C73.7008 82.0999 73.5008 81.8999 73.3008 81.5999C73.1008 82.2999 72.6008 82.8999 72.0008 83.1999C71.4008 83.4999 70.8008 83.5999 70.3008 83.3999C69.8008 83.2999 69.3008 82.8999 69.1008 82.3999C68.8008 81.7999 68.8008 81.1999 69.1008 80.5999C69.4008 79.9999 70.0008 79.4999 70.9008 79.0999L71.9008 78.5999L71.7008 78.0999C71.5008 77.6999 71.3008 77.4999 70.9008 77.3999C70.6008 77.2999 70.2008 77.2999 69.8008 77.5999C69.4008 77.7999 69.2008 77.9999 69.0008 78.2999C68.8008 78.5999 68.8008 78.8999 69.0008 79.1999L68.0008 79.6999C67.9008 79.3999 67.8008 79.0999 67.9008 78.6999C68.0008 78.2999 68.2008 77.8999 68.4008 77.5999C68.7008 77.2999 69.0008 76.9999 69.5008 76.7999C70.2008 76.4999 70.8008 76.3999 71.4008 76.4999C72.0008 76.6999 72.4008 76.9999 72.7008 77.5999L74.1008 80.3999C74.4008 80.9999 74.7008 81.3999 75.0008 81.5999V81.6999L73.8008 82.1999ZM71.7008 82.2999C72.0008 82.0999 72.3008 81.8999 72.5008 81.5999C72.7008 81.2999 72.8008 80.9999 72.8008 80.5999L72.2008 79.3999L71.4008 79.7999C70.1008 80.3999 69.7008 81.0999 70.1008 81.8999C70.3008 82.1999 70.5008 82.3999 70.8008 82.4999C71.0008 82.4999 71.3008 82.3999 71.7008 82.2999Z" fill="white"/>
<path d="M78.8988 77.9998C78.7988 77.6998 78.5988 77.4998 78.2988 77.4998C77.9988 77.3998 77.5988 77.3998 76.9988 77.4998C76.3988 77.5998 75.8988 77.5998 75.4988 77.5998C75.0988 77.5998 74.7988 77.4999 74.5988 77.2999C74.3988 77.0999 74.1988 76.8998 73.9988 76.5998C73.7988 76.0998 73.7988 75.5998 74.0988 74.9998C74.3988 74.4998 74.8988 74.0999 75.4988 73.7999C76.1988 73.4999 76.8988 73.4998 77.3988 73.5998C77.9988 73.7998 78.3988 74.1998 78.5988 74.6998L77.4988 75.0998C77.3988 74.7998 77.1988 74.5998 76.7988 74.4998C76.4988 74.3998 76.0988 74.3998 75.6988 74.5998C75.2988 74.7998 74.9988 74.9998 74.8988 75.1998C74.6988 75.4998 74.6988 75.6998 74.7988 75.9998C74.8988 76.2998 75.0988 76.3998 75.2988 76.4998C75.5988 76.4998 75.9988 76.4998 76.5988 76.3998C77.1988 76.2998 77.6988 76.2999 78.0988 76.2999C78.4988 76.2999 78.7988 76.3998 79.0988 76.5998C79.3988 76.7998 79.4988 76.9998 79.6988 77.3998C79.8988 77.9998 79.8988 78.4998 79.5988 78.9998C79.2988 79.4998 78.7988 79.8998 78.0988 80.1998C77.5988 80.3998 77.0988 80.4998 76.6988 80.4998C76.1988 80.4998 75.7988 80.3998 75.4988 80.0998C75.1988 79.8998 74.8988 79.5998 74.7988 79.1998L75.8988 78.7999C76.0988 79.0999 76.2988 79.3998 76.6988 79.4998C77.0988 79.5998 77.3988 79.5998 77.8988 79.3998C78.2988 79.1998 78.5988 78.9999 78.7988 78.7999C78.9988 78.5999 79.0988 78.2998 78.8988 77.9998Z" fill="white"/>
<path d="M80.9984 72.9C81.2984 72.1 81.7984 71.6 82.5984 71.4C83.9984 71 84.8984 71.5 85.3984 73L86.7984 77.2L85.6984 77.6L84.2984 73.4C84.0984 72.9 83.8984 72.6 83.6984 72.5C83.3984 72.3 83.0984 72.3 82.5984 72.5C82.1984 72.6 81.9984 72.8 81.7984 73.1C81.5984 73.4 81.4984 73.7 81.3984 74L82.8984 78.6L81.7984 79L78.8984 69.9L79.9984 69.5L80.9984 72.9Z" fill="white"/>
<path d="M86.1016 68.6002C86.1016 68.4002 86.1016 68.3002 86.1016 68.1002C86.2016 67.9002 86.3016 67.8002 86.5016 67.8002C86.7016 67.7002 86.9016 67.8002 87.0016 67.9002C87.1016 68.0002 87.2016 68.1002 87.3016 68.3002C87.3016 68.5002 87.3016 68.6002 87.2016 68.8002C87.1016 69.0002 87.0016 69.1002 86.8016 69.1002C86.6016 69.2002 86.4016 69.1002 86.3016 69.0002C86.3016 68.9002 86.2016 68.8002 86.1016 68.6002ZM89.5016 76.6002L88.4016 76.9002L86.7016 70.4002L87.8016 70.1002L89.5016 76.6002Z" fill="white"/>
<path d="M90.8008 69.3001L91.0008 70.1001C91.4008 69.4001 92.0008 68.9001 92.8008 68.8001C94.2008 68.5001 95.1008 69.2001 95.4008 70.7001L96.3008 75.1001L95.2008 75.3001L94.3008 70.9001C94.2008 70.4001 94.0008 70.1001 93.8008 69.9001C93.5008 69.7001 93.2008 69.7001 92.7008 69.8001C92.3008 69.9001 92.0008 70.0001 91.8008 70.3001C91.6008 70.6001 91.4008 70.8001 91.3008 71.2001L92.2008 75.9001L91.1008 76.1001L89.8008 69.5001L90.8008 69.3001Z" fill="white"/>
<path d="M96.5 66.5001C96.5 66.3001 96.5 66.2001 96.6 66.0001C96.7 65.9001 96.9 65.8001 97.1 65.7001C97.3 65.6001 97.5 65.7001 97.6 65.8001C97.7 65.9001 97.8 66.1001 97.8 66.2001C97.8 66.4001 97.8 66.5001 97.7 66.7001C97.6 66.8001 97.4 66.9001 97.2 67.0001C97 67.0001 96.8 67.0001 96.7 66.9001C96.6 66.8001 96.5 66.7001 96.5 66.5001ZM98.9 74.8001L97.8 75.0001L96.9 68.3001L98 68.1001L98.9 74.8001Z" fill="white"/>
<path d="M103.199 69.5002C103.199 69.1002 103.299 68.8002 103.499 68.6002C103.699 68.4002 103.999 68.2002 104.399 68.2002C104.799 68.2002 105.099 68.3002 105.299 68.5002C105.499 68.7002 105.699 69.0002 105.699 69.4002V69.6002C105.699 70.0002 105.599 70.3002 105.399 70.5002C105.199 70.7002 104.899 70.9002 104.499 70.9002C104.099 70.9002 103.799 70.8002 103.599 70.6002C103.399 70.4002 103.199 70.1002 103.199 69.7002V69.5002Z" fill="white"/>
<path d="M113.501 70.1C112.501 69.8 111.801 69.4 111.301 68.9C110.801 68.5 110.601 67.9 110.701 67.3C110.701 66.6 111.001 66 111.601 65.6C112.201 65.2 112.901 65 113.901 65C114.501 65 115.101 65.2 115.601 65.4C116.101 65.6 116.401 66 116.701 66.4C117.001 66.8 117.101 67.3 117.001 67.8H115.801C115.801 67.3 115.701 66.8 115.301 66.5C115.001 66.2 114.501 66 113.801 66C113.201 66 112.701 66.1 112.401 66.3C112.101 66.5 111.901 66.9 111.901 67.4C111.901 67.8 112.001 68.1 112.301 68.4C112.601 68.7 113.101 68.9 113.901 69.2C114.601 69.4 115.201 69.7 115.601 70C116.001 70.3 116.301 70.6 116.501 70.9C116.701 71.2 116.801 71.7 116.801 72.1C116.801 72.8 116.501 73.4 115.901 73.8C115.301 74.2 114.501 74.4 113.601 74.4C113.001 74.4 112.401 74.2 111.901 74C111.401 73.7 111.001 73.4 110.701 73C110.401 72.6 110.301 72.1 110.301 71.6H111.501C111.501 72.1 111.701 72.6 112.101 72.9C112.501 73.2 113.001 73.4 113.701 73.4C114.301 73.4 114.801 73.3 115.201 73.1C115.501 72.9 115.701 72.5 115.701 72.1C115.701 71.7 115.601 71.3 115.301 71.1C114.901 70.6 114.301 70.3 113.501 70.1Z" fill="white"/>
<path d="M121.899 74.2001C121.399 74.7001 120.699 74.9001 119.799 74.7001C119.099 74.6001 118.599 74.3001 118.199 73.9001C117.799 73.5001 117.799 72.8001 117.899 72.0001L118.399 67.6001L119.499 67.7001L118.999 72.0001C118.899 73.0001 119.199 73.6001 120.099 73.7001C120.999 73.8001 121.599 73.5001 121.999 72.9001L122.599 68.0001L123.699 68.1001L122.899 74.8001L121.799 74.7001L121.899 74.2001Z" fill="white"/>
<path d="M126.7 68.8001L126.6 69.6001C127.2 69.1001 128 68.9001 128.8 69.0001C130.2 69.3001 130.7 70.2001 130.4 71.8001L129.5 76.2001L128.4 76.0001L129.3 71.6001C129.4 71.1001 129.4 70.7001 129.2 70.5001C129 70.2001 128.7 70.0001 128.3 70.0001C127.9 69.9001 127.6 70.0001 127.3 70.1001C127 70.2001 126.7 70.5001 126.5 70.7001L125.6 75.4001L124.5 75.2001L125.8 68.6001L126.7 68.8001Z" fill="white"/>
<path d="M131.499 73.1999C131.699 72.5999 131.999 71.9999 132.399 71.5999C132.799 71.1999 133.299 70.8999 133.799 70.6999C134.299 70.4999 134.899 70.5999 135.399 70.6999C136.299 70.9999 136.899 71.4999 137.299 72.1999C137.699 72.9999 137.699 73.8999 137.399 74.8999V74.9999C137.199 75.5999 136.899 76.1999 136.599 76.5999C136.199 76.9999 135.799 77.2999 135.199 77.4999C134.599 77.6999 134.099 77.5999 133.499 77.4999C132.599 77.1999 131.999 76.6999 131.599 75.9999C131.199 75.0999 131.199 74.2999 131.499 73.1999ZM132.599 73.5999C132.399 74.2999 132.399 74.8999 132.599 75.4999C132.799 75.9999 133.199 76.3999 133.799 76.4999C134.399 76.6999 134.899 76.5999 135.299 76.1999C135.799 75.8999 136.099 75.2999 136.299 74.4999C136.499 73.7999 136.499 73.1999 136.299 72.5999C136.099 72.0999 135.699 71.6999 135.099 71.5999C134.599 71.3999 134.099 71.4999 133.599 71.8999C133.099 72.2999 132.799 72.7999 132.599 73.5999Z" fill="white"/>
<path d="M141.702 80.0998L140.602 79.6998L143.902 71.2998L145.002 71.6998L141.702 80.0998Z" fill="white"/>
<path d="M147.2 75.0998L146.9 75.8998C147.6 75.4998 148.4 75.4998 149.1 75.8998C150.4 76.4998 150.7 77.4998 150 78.9998L148.1 82.9998L147.1 82.4998L149 78.4998C149.2 78.0998 149.3 77.6998 149.2 77.3998C149.1 77.0998 148.8 76.7998 148.4 76.6998C148.1 76.4998 147.7 76.4998 147.4 76.5998C147.1 76.6998 146.8 76.7998 146.5 76.9998L144.5 81.3998L143.5 80.8998L146.3 74.7998L147.2 75.0998Z" fill="white"/>
<path d="M150.801 80.4998C151.301 79.5998 151.901 78.9998 152.701 78.6998C153.501 78.3998 154.201 78.3998 154.801 78.7998C155.501 79.1998 155.901 79.6998 156.001 80.3998L157.701 77.2998L158.701 77.8998L154.001 86.1998L153.101 85.6998L153.401 84.9998C152.701 85.2998 152.001 85.1998 151.301 84.7998C150.601 84.3998 150.201 83.7998 150.101 82.9998C150.001 82.1998 150.301 81.4998 150.801 80.4998ZM151.801 81.1998C151.401 81.8998 151.301 82.4998 151.301 82.9998C151.401 83.4998 151.601 83.8998 152.101 84.1998C152.701 84.5998 153.401 84.4998 154.001 84.0998L155.501 81.3998C155.501 80.6998 155.201 80.0998 154.601 79.7998C154.101 79.4998 153.601 79.4998 153.101 79.6998C152.701 79.9998 152.201 80.4998 151.801 81.1998Z" fill="white"/>
<path d="M156.398 87.8002L155.398 87.2002L159.098 81.5002L160.098 82.1002L156.398 87.8002ZM159.998 80.0002C160.098 79.8002 160.198 79.7002 160.398 79.7002C160.598 79.7002 160.698 79.7002 160.898 79.8002C161.098 79.9002 161.198 80.1002 161.198 80.2002C161.198 80.4002 161.198 80.5002 161.098 80.7002C160.998 80.9002 160.898 81.0002 160.698 81.0002C160.498 81.0002 160.398 81.0002 160.198 80.9002C159.998 80.8002 159.898 80.6002 159.898 80.5002C159.898 80.4002 159.898 80.1002 159.998 80.0002Z" fill="white"/>
<path d="M161.101 91.0999C161.101 90.9999 161.201 90.6999 161.401 90.3999C160.601 90.4999 160.001 90.3999 159.401 89.8999C158.901 89.4999 158.501 88.9999 158.401 88.4999C158.301 87.9999 158.401 87.3999 158.701 86.9999C159.101 86.3999 159.601 86.0999 160.301 86.0999C161.001 86.0999 161.701 86.3999 162.501 86.9999L163.401 87.6999L163.701 87.2999C163.901 86.9999 164.001 86.5999 164.001 86.2999C163.901 85.9999 163.701 85.6999 163.301 85.3999C163.001 85.1999 162.601 84.9999 162.301 84.9999C162.001 84.9999 161.701 85.0999 161.501 85.3999L160.601 84.6999C160.801 84.3999 161.101 84.1999 161.501 84.0999C161.901 83.9999 162.301 83.9999 162.701 84.0999C163.101 84.1999 163.601 84.3999 164.001 84.6999C164.601 85.1999 165.001 85.6999 165.101 86.1999C165.201 86.7999 165.101 87.2999 164.701 87.8999L162.901 90.3999C162.501 90.8999 162.301 91.2999 162.201 91.6999L162.101 91.7999L161.101 91.0999ZM160.101 89.2999C160.401 89.4999 160.701 89.5999 161.101 89.6999C161.501 89.7999 161.801 89.6999 162.101 89.4999L162.901 88.3999L162.201 87.8999C161.101 87.0999 160.201 86.9999 159.801 87.6999C159.601 87.9999 159.501 88.2999 159.601 88.5999C159.601 88.7999 159.801 89.0999 160.101 89.2999Z" fill="white"/>
<path d="M20 188.7L28.5 185.5L29.5 188.3C29.8 189.2 29.9 190 29.7 190.6C29.5 191.2 29 191.7 28.3 191.9C27.9 192 27.5 192.1 27.1 192C26.7 191.9 26.4 191.7 26 191.3C26 191.8 25.9 192.3 25.7 192.7C25.4 193.1 25.1 193.4 24.6 193.6C23.8 193.9 23.1 193.9 22.5 193.5C21.9 193.1 21.4 192.6 21.1 191.6L20 188.7ZM24.4 188.4L21.3 189.5L22 191.3C22.2 191.8 22.5 192.2 22.9 192.4C23.3 192.6 23.7 192.6 24.2 192.4C25.2 192 25.5 191.3 25.1 190.2L24.4 188.4ZM25.3 188L25.9 189.7C26.1 190.2 26.4 190.5 26.7 190.7C27.1 190.9 27.4 190.9 27.9 190.8C28.4 190.6 28.7 190.4 28.8 190C28.9 189.6 28.9 189.2 28.7 188.6L28.1 186.9L25.3 188Z" fill="white"/>
<path d="M28.7984 194.9C29.5984 195.1 30.1984 195.6 30.4984 196.3C31.0984 197.6 30.6984 198.6 29.1984 199.3L25.1984 201.2L24.6984 200.2L28.6984 198.3C29.0984 198.1 29.3984 197.8 29.4984 197.5C29.5984 197.2 29.5984 196.8 29.3984 196.4C29.1984 196.1 28.9984 195.8 28.6984 195.6C28.3984 195.4 28.0984 195.3 27.6984 195.3L23.3984 197.4L22.8984 196.4L31.5984 192.3L32.0984 193.3L28.7984 194.9Z" fill="white"/>
<path d="M28.2992 206.6C28.3992 206.5 28.5992 206.3 28.7992 206.1C28.0992 205.9 27.4992 205.5 27.0992 204.9C26.7992 204.3 26.6992 203.8 26.7992 203.2C26.8992 202.6 27.1992 202.2 27.6992 201.9C28.2992 201.6 28.8992 201.5 29.4992 201.8C30.0992 202.1 30.5992 202.6 31.0992 203.5L31.6992 204.5L32.1992 204.2C32.4992 204 32.7992 203.7 32.8992 203.4C32.9992 203.1 32.8992 202.7 32.6992 202.3C32.4992 201.9 32.1992 201.7 31.8992 201.6C31.5992 201.5 31.2992 201.5 30.9992 201.6L30.3992 200.6C30.6992 200.4 30.9992 200.4 31.3992 200.4C31.7992 200.5 32.1992 200.6 32.4992 200.9C32.7992 201.2 33.1992 201.5 33.3992 201.9C33.7992 202.6 33.8992 203.2 33.7992 203.8C33.6992 204.4 33.2992 204.8 32.6992 205.2L29.9992 206.7C29.4992 207 29.0992 207.3 28.7992 207.6H28.6992L28.2992 206.6ZM28.0992 204.5C28.2992 204.8 28.4992 205.1 28.8992 205.3C29.1992 205.5 29.5992 205.6 29.8992 205.5L31.0992 204.8L30.6992 204C29.9992 202.8 29.2992 202.4 28.5992 202.8C28.2992 203 28.0992 203.2 27.9992 203.5C27.7992 203.9 27.8992 204.2 28.0992 204.5Z" fill="white"/>
<path d="M33.6016 211.5C33.9016 211.3 34.0016 211.1 34.0016 210.8C34.0016 210.5 33.9016 210.1 33.7016 209.5C33.5016 208.9 33.3016 208.5 33.3016 208.1C33.3016 207.7 33.3016 207.4 33.4016 207.1C33.5016 206.8 33.7016 206.6 34.0016 206.4C34.5016 206.1 35.0016 206 35.6016 206.2C36.2016 206.4 36.7016 206.8 37.1016 207.4C37.5016 208 37.7016 208.7 37.7016 209.3C37.6016 209.9 37.4016 210.4 36.8016 210.7L36.2016 209.7C36.5016 209.5 36.6016 209.3 36.6016 208.9C36.6016 208.6 36.5016 208.2 36.3016 207.9C36.1016 207.6 35.8016 207.3 35.5016 207.2C35.2016 207.1 35.0016 207.1 34.7016 207.3C34.5016 207.5 34.4016 207.7 34.4016 207.9C34.4016 208.1 34.5016 208.6 34.7016 209.1C34.9016 209.6 35.1016 210.1 35.1016 210.5C35.2016 210.9 35.1016 211.2 35.0016 211.5C34.9016 211.8 34.7016 212 34.4016 212.2C33.9016 212.5 33.4016 212.6 32.8016 212.4C32.2016 212.2 31.7016 211.8 31.3016 211.2C31.0016 210.8 30.8016 210.3 30.7016 209.9C30.6016 209.4 30.7016 209 30.8016 208.6C31.0016 208.2 31.2016 207.9 31.5016 207.7L32.1016 208.7C31.8016 208.9 31.6016 209.2 31.6016 209.6C31.6016 210 31.7016 210.3 32.0016 210.7C32.2016 211.1 32.5016 211.3 32.8016 211.4C33.1016 211.7 33.3016 211.7 33.6016 211.5Z" fill="white"/>
<path d="M39.1984 212.2C39.9984 212.2 40.6984 212.5 41.1984 213.2C42.0984 214.3 41.8984 215.4 40.6984 216.4L37.1984 219.2L36.4984 218.3L39.9984 215.5C40.3984 215.2 40.5984 214.9 40.5984 214.6C40.5984 214.3 40.4984 213.9 40.1984 213.6C39.9984 213.3 39.6984 213.1 39.3984 213C39.0984 212.9 38.6984 212.9 38.3984 213L34.5984 216L33.8984 215.1L41.3984 209.1L42.0984 210L39.1984 212.2Z" fill="white"/>
<path d="M41.3016 223.7C41.4016 223.6 41.5016 223.4 41.7016 223.1C40.9016 223.1 40.3016 222.8 39.8016 222.3C39.3016 221.8 39.1016 221.3 39.1016 220.7C39.1016 220.1 39.3016 219.7 39.7016 219.3C40.2016 218.8 40.8016 218.6 41.4016 218.8C42.0016 218.9 42.7016 219.3 43.4016 220.1L44.2016 220.9L44.6016 220.5C44.9016 220.2 45.0016 219.9 45.1016 219.6C45.1016 219.3 45.0016 218.9 44.6016 218.6C44.3016 218.3 44.0016 218.1 43.7016 218.1C43.4016 218 43.1016 218.1 42.9016 218.3L42.1016 217.5C42.3016 217.3 42.7016 217.1 43.1016 217.1C43.5016 217.1 43.9016 217.1 44.3016 217.3C44.7016 217.5 45.1016 217.7 45.4016 218.1C45.9016 218.7 46.2016 219.2 46.2016 219.8C46.2016 220.4 46.0016 220.9 45.5016 221.4L43.2016 223.5C42.7016 223.9 42.4016 224.3 42.3016 224.7L42.2016 224.8L41.3016 223.7ZM40.7016 221.7C40.9016 222 41.2016 222.2 41.6016 222.3C42.0016 222.4 42.3016 222.4 42.6016 222.3L43.6016 221.4L43.0016 220.7C42.0016 219.7 41.3016 219.4 40.6016 220C40.3016 220.2 40.2016 220.5 40.2016 220.8C40.3016 221.1 40.4016 221.4 40.7016 221.7Z" fill="white"/>
<path d="M50.7 227C50.1 226.1 49.8 225.3 49.7 224.7C49.6 224.1 49.8 223.5 50.2 223C50.7 222.5 51.3 222.2 52 222.2C52.7 222.2 53.5 222.5 54.1 223.1C54.6 223.5 54.9 224 55.1 224.5C55.3 225 55.4 225.5 55.3 226C55.2 226.5 55 226.9 54.7 227.3L53.8 226.5C54.2 226.1 54.3 225.6 54.2 225.2C54.1 224.7 53.9 224.3 53.4 223.9C53 223.5 52.5 223.3 52.1 223.3C51.7 223.3 51.3 223.5 51 223.8C50.8 224.1 50.7 224.4 50.7 224.8C50.8 225.2 51 225.7 51.5 226.4C51.9 227.1 52.2 227.6 52.4 228.1C52.6 228.6 52.6 229 52.5 229.4C52.4 229.8 52.3 230.2 52 230.5C51.5 231.1 50.9 231.3 50.2 231.3C49.5 231.3 48.8 230.9 48 230.3C47.5 229.9 47.2 229.4 46.9 228.9C46.6 228.4 46.5 227.8 46.6 227.3C46.6 226.8 46.8 226.3 47.2 225.9L48.1 226.7C47.7 227.1 47.6 227.6 47.7 228.1C47.8 228.6 48.1 229.1 48.6 229.5C49.1 229.9 49.5 230.1 50 230.1C50.4 230.1 50.8 230 51.1 229.6C51.4 229.2 51.5 228.9 51.4 228.5C51.3 228.1 51.2 227.7 50.7 227Z" fill="white"/>
<path d="M55.4016 235.7C55.4016 235.6 55.5016 235.3 55.7016 235C54.9016 235.1 54.3016 235 53.7016 234.6C53.2016 234.2 52.8016 233.7 52.7016 233.2C52.6016 232.6 52.7016 232.1 53.0016 231.7C53.4016 231.1 53.9016 230.8 54.6016 230.8C55.3016 230.8 56.0016 231.1 56.8016 231.6L57.7016 232.3L58.0016 231.9C58.2016 231.6 58.3016 231.2 58.3016 230.9C58.2016 230.6 58.0016 230.3 57.6016 230C57.3016 229.8 56.9016 229.6 56.6016 229.6C56.3016 229.6 56.0016 229.7 55.8016 230L54.9016 229.3C55.1016 229 55.4016 228.8 55.8016 228.7C56.2016 228.6 56.6016 228.6 57.0016 228.7C57.4016 228.8 57.9016 229 58.3016 229.3C58.9016 229.8 59.3016 230.3 59.4016 230.8C59.5016 231.4 59.4016 231.9 59.0016 232.5L57.2016 235C56.8016 235.5 56.6016 235.9 56.5016 236.3L56.4016 236.4L55.4016 235.7ZM54.4016 233.9C54.7016 234.1 55.0016 234.2 55.4016 234.3C55.8016 234.3 56.1016 234.3 56.4016 234.1L57.2016 233L56.5016 232.5C55.4016 231.7 54.5016 231.6 54.1016 232.3C53.9016 232.6 53.8016 232.9 53.9016 233.2C53.9016 233.4 54.1016 233.7 54.4016 233.9Z" fill="white"/>
<path d="M62.4008 232.3L62.1008 233C62.8008 232.7 63.5008 232.8 64.3008 233.2C65.1008 233.7 65.5008 234.3 65.4008 235.1C65.8008 234.9 66.1008 234.9 66.6008 234.9C67.0008 234.9 67.4008 235 67.9008 235.3C69.2008 236 69.4008 237.1 68.7008 238.5L66.4008 242.4L65.4008 241.8L67.6008 237.9C67.8008 237.5 67.9008 237.1 67.9008 236.8C67.8008 236.5 67.6008 236.2 67.1008 235.9C66.7008 235.7 66.4008 235.6 66.0008 235.7C65.6008 235.8 65.3008 236 65.1008 236.3L62.9008 240.2L61.9008 239.6L64.1008 235.8C64.6008 235 64.4008 234.3 63.6008 233.8C62.9008 233.4 62.3008 233.4 61.8008 233.9L59.3008 238.2L58.3008 237.6L61.7008 231.8L62.4008 232.3Z" fill="white"/>
<path d="M72.0008 245C72.0008 244.9 72.0008 244.6 72.1008 244.3C71.4008 244.6 70.7008 244.6 70.0008 244.3C69.4008 244 69.0008 243.6 68.7008 243.1C68.5008 242.6 68.5008 242.1 68.7008 241.5C69.0008 240.9 69.5008 240.5 70.1008 240.3C70.7008 240.2 71.5008 240.3 72.4008 240.7L73.4008 241.2L73.6008 240.7C73.8008 240.3 73.8008 240 73.7008 239.7C73.6008 239.4 73.3008 239.1 72.9008 238.9C72.5008 238.7 72.2008 238.7 71.8008 238.8C71.5008 238.9 71.2008 239 71.1008 239.3L70.0008 238.8C70.1008 238.5 70.4008 238.2 70.7008 238.1C71.0008 237.9 71.4008 237.8 71.9008 237.8C72.3008 237.8 72.8008 237.9 73.2008 238.1C73.9008 238.4 74.4008 238.8 74.6008 239.4C74.8008 239.9 74.8008 240.5 74.6008 241.1L73.3008 243.9C73.0008 244.5 72.9008 244.9 72.9008 245.3V245.4L72.0008 245ZM70.7008 243.4C71.0008 243.5 71.4008 243.6 71.8008 243.6C72.2008 243.6 72.5008 243.4 72.7008 243.2L73.3008 241.9L72.5008 241.5C71.2008 240.9 70.4008 241 70.1008 241.8C70.0008 242.1 69.9008 242.4 70.1008 242.7C70.1008 243 70.3008 243.2 70.7008 243.4Z" fill="white"/>
<path d="M79.9008 241.9C79.7008 241.8 79.6008 241.7 79.4008 241.7C78.7008 241.4 78.1008 241.6 77.6008 242.1L75.9008 246.6L74.8008 246.2L77.2008 239.9L78.3008 240.3L78.0008 241C78.6008 240.6 79.2008 240.5 79.8008 240.7C80.0008 240.8 80.2008 240.9 80.2008 241L79.9008 241.9Z" fill="white"/>
<path d="M83.5014 240.2L83.0014 241.8L84.2014 242.2L83.9014 243L82.7014 242.6L81.4014 246.6C81.3014 246.9 81.3014 247.1 81.4014 247.2C81.5014 247.4 81.6014 247.5 81.9014 247.6C82.0014 247.6 82.2014 247.7 82.4014 247.7L82.1014 248.6C81.8014 248.6 81.5014 248.5 81.2014 248.5C80.7014 248.3 80.4014 248.1 80.2014 247.7C80.0014 247.3 80.1014 246.9 80.2014 246.3L81.5014 242.3L80.3014 241.9L80.7014 241.1L81.9014 241.5L82.4014 239.9L83.5014 240.2Z" fill="white"/>
<path d="M86.2992 243.6C86.8992 243.1 87.6992 243 88.4992 243.2C89.8992 243.5 90.3992 244.5 89.9992 246.1L88.8992 250.4L87.7992 250.1L88.8992 245.8C88.9992 245.3 88.9992 245 88.7992 244.7C88.5992 244.4 88.2992 244.2 87.8992 244.1C87.4992 244 87.1992 244 86.8992 244.2C86.5992 244.3 86.2992 244.5 86.0992 244.8L84.8992 249.5L83.6992 249.1L85.9992 239.8L87.0992 240.1L86.2992 243.6Z" fill="white"/>
<path d="M94.9986 251.5C94.9986 251.4 94.8986 251.1 94.9986 250.8C94.3986 251.3 93.6986 251.4 92.9986 251.3C92.2986 251.2 91.7986 250.9 91.4986 250.5C91.0986 250.1 90.9986 249.6 91.0986 249C91.1986 248.3 91.5986 247.8 92.1986 247.5C92.7986 247.2 93.5986 247.1 94.4986 247.3L95.5986 247.5L95.6986 247C95.7986 246.6 95.6986 246.3 95.4986 246C95.2986 245.7 94.9986 245.5 94.4986 245.5C94.0986 245.4 93.6986 245.5 93.3986 245.6C93.0986 245.8 92.8986 246 92.8986 246.3L91.7986 246.1C91.8986 245.8 91.9986 245.5 92.2986 245.2C92.5986 244.9 92.8986 244.7 93.3986 244.6C93.7986 244.5 94.2986 244.5 94.7986 244.5C95.5986 244.6 96.0986 244.9 96.4986 245.4C96.8986 245.9 96.9986 246.4 96.8986 247.1L96.3986 250.2C96.2986 250.8 96.2986 251.3 96.3986 251.7V251.8L94.9986 251.5ZM93.2986 250.3C93.6986 250.4 93.9986 250.3 94.3986 250.2C94.7986 250.1 94.9986 249.9 95.1986 249.6L95.3986 248.2L94.4986 248.1C93.0986 247.9 92.2986 248.2 92.1986 249C92.0986 249.4 92.1986 249.7 92.3986 249.9C92.5986 250.1 92.8986 250.2 93.2986 250.3Z" fill="white"/>
<path d="M100.202 248.9L99.4016 249.6L99.2016 252L98.1016 251.9L99.0016 242.4L100.102 242.5L99.6016 248.3L100.302 247.6L102.602 245.6L104.002 245.7L101.102 248.3L103.702 252.5L102.402 252.4L100.202 248.9Z" fill="white"/>
<path d="M108.102 247.7C108.102 247.3 108.202 247 108.402 246.8C108.602 246.6 108.902 246.4 109.302 246.4C109.702 246.4 110.002 246.5 110.202 246.7C110.402 246.9 110.602 247.2 110.602 247.6V247.8C110.602 248.2 110.502 248.5 110.302 248.7C110.102 248.9 109.802 249 109.402 249.1C109.002 249.1 108.702 249 108.502 248.8C108.302 248.6 108.102 248.3 108.102 247.9V247.7Z" fill="white"/>
<path d="M116.199 252.2L115.199 243.2L118.099 242.9C119.099 242.8 119.799 242.9 120.399 243.3C120.899 243.6 121.199 244.2 121.299 245C121.299 245.4 121.299 245.8 121.099 246.2C120.899 246.5 120.599 246.8 120.199 247.1C120.699 247.2 121.099 247.4 121.399 247.8C121.699 248.2 121.899 248.6 121.999 249.1C122.099 249.9 121.899 250.6 121.399 251.1C120.899 251.6 120.199 251.9 119.299 252L116.199 252.2ZM116.899 246.9L118.699 246.7C119.199 246.6 119.599 246.5 119.899 246.2C120.199 245.9 120.299 245.5 120.299 245.1C120.199 244.6 120.099 244.3 119.699 244.1C119.399 243.9 118.899 243.8 118.299 243.9L116.499 244.1L116.899 246.9ZM116.999 247.9L117.399 251.1L119.399 250.9C119.999 250.8 120.399 250.6 120.699 250.3C120.999 250 121.099 249.6 121.099 249.1C120.999 248 120.299 247.5 119.199 247.7L116.999 247.9Z" fill="white"/>
<path d="M126.4 245C126.2 245 126 245 125.8 245.1C125.1 245.2 124.6 245.6 124.5 246.3L125.3 251L124.2 251.2L123 244.6L124.1 244.4L124.3 245.2C124.6 244.5 125 244.2 125.7 244C125.9 244 126.1 244 126.2 244L126.4 245Z" fill="white"/>
<path d="M127.502 247.2C127.302 246.6 127.302 246 127.502 245.4C127.702 244.8 127.902 244.3 128.302 244C128.702 243.6 129.202 243.3 129.702 243.2C130.602 243 131.402 243.1 132.102 243.6C132.802 244.1 133.302 244.8 133.502 245.9V246C133.702 246.6 133.702 247.2 133.602 247.8C133.502 248.4 133.202 248.8 132.802 249.2C132.402 249.6 131.902 249.9 131.302 250C130.402 250.2 129.602 250.1 128.902 249.6C128.302 249 127.802 248.3 127.502 247.2ZM128.702 247C128.902 247.7 129.202 248.3 129.602 248.6C130.002 249 130.502 249.1 131.102 248.9C131.702 248.8 132.102 248.4 132.302 247.9C132.502 247.4 132.502 246.7 132.302 245.9C132.102 245.2 131.802 244.6 131.402 244.3C131.002 244 130.402 243.8 129.902 244C129.302 244.1 129.002 244.5 128.702 245C128.502 245.5 128.502 246.2 128.702 247Z" fill="white"/>
<path d="M134.998 241.8L135.298 242.6C135.598 241.8 136.098 241.3 136.898 241C138.298 240.6 139.198 241.1 139.698 242.6L141.098 246.8L139.998 247.2L138.598 243C138.398 242.5 138.198 242.2 137.898 242.1C137.598 241.9 137.298 241.9 136.798 242.1C136.398 242.2 136.198 242.4 135.998 242.7C135.798 243 135.698 243.3 135.598 243.7L137.098 248.3L135.998 248.7L133.898 242.3L134.998 241.8Z" fill="white"/>
<path d="M143.699 244.8L147.299 243.3L147.699 244.2L142.799 246.3L142.499 245.5L143.999 239.5L140.599 240.9L140.199 240L144.899 238L145.199 238.8L143.699 244.8Z" fill="white"/>
<path d="M151.599 242.4C150.799 242.8 149.999 242.9 149.199 242.6C148.399 242.3 147.799 241.7 147.299 240.8L147.199 240.6C146.899 240 146.699 239.4 146.699 238.8C146.699 238.2 146.799 237.7 147.099 237.2C147.399 236.7 147.799 236.4 148.199 236.1C148.999 235.7 149.699 235.7 150.399 235.9C151.099 236.1 151.699 236.8 152.199 237.8L152.399 238.2L148.299 240.3C148.599 240.9 148.999 241.3 149.499 241.5C149.999 241.7 150.499 241.7 150.999 241.4C151.399 241.2 151.599 241 151.799 240.7C151.999 240.4 152.099 240.1 152.199 239.8L153.099 240C153.199 241.1 152.599 241.8 151.599 242.4ZM148.699 237C148.299 237.2 147.999 237.5 147.899 238C147.799 238.4 147.799 239 147.999 239.5L150.999 238V237.9C150.699 237.4 150.399 237.1 149.999 236.9C149.599 236.8 149.199 236.8 148.699 237Z" fill="white"/>
<path d="M162.3 232.3C162.7 233.2 162.9 234 162.7 234.7C162.5 235.5 162 236.1 161.2 236.7C160.3 237.3 159.4 237.5 158.4 237.2C157.4 236.9 156.6 236.2 155.9 235.2L155.4 234.5C154.9 233.8 154.6 233.1 154.5 232.4C154.4 231.7 154.5 231.1 154.7 230.5C154.9 229.9 155.4 229.4 156 229C156.8 228.5 157.6 228.3 158.4 228.4C159.2 228.5 159.9 229 160.5 229.7L159.5 230.4C159 229.9 158.5 229.5 158.1 229.5C157.6 229.4 157.1 229.6 156.6 229.9C156 230.3 155.6 230.9 155.6 231.6C155.6 232.3 155.8 233.1 156.4 234L156.9 234.7C157.4 235.5 158.1 236.1 158.7 236.3C159.4 236.6 160 236.5 160.6 236.1C161.2 235.7 161.5 235.3 161.6 234.9C161.7 234.5 161.6 233.9 161.3 233.2L162.3 232.3Z" fill="white"/>
<path d="M162.998 231.1C162.598 230.6 162.298 230 162.198 229.5C162.098 228.9 162.099 228.4 162.299 227.9C162.499 227.4 162.799 226.9 163.299 226.6C163.999 226 164.798 225.8 165.598 225.9C166.398 226 167.199 226.5 167.799 227.3L167.898 227.4C168.298 227.9 168.598 228.5 168.698 229C168.798 229.6 168.798 230.1 168.598 230.6C168.398 231.1 168.098 231.6 167.598 231.9C166.898 232.5 166.099 232.7 165.299 232.5C164.499 232.3 163.698 232 162.998 231.1ZM163.998 230.5C164.498 231.1 164.998 231.4 165.498 231.6C166.098 231.7 166.598 231.6 166.998 231.3C167.498 230.9 167.698 230.5 167.698 229.9C167.698 229.3 167.398 228.7 166.898 228.1C166.398 227.5 165.898 227.2 165.398 227C164.798 226.9 164.298 227 163.898 227.3C163.498 227.7 163.199 228.1 163.299 228.7C163.199 229.2 163.498 229.8 163.998 230.5Z" fill="white"/>
<path d="M167.501 223.1L168.101 223.7C168.001 222.9 168.301 222.2 168.901 221.6C169.901 220.6 171.001 220.7 172.101 221.9L175.201 225.1L174.401 225.9L171.301 222.7C171.001 222.4 170.601 222.2 170.301 222.1C170.001 222 169.701 222.2 169.301 222.5C169.001 222.8 168.901 223.1 168.801 223.4C168.701 223.7 168.801 224.1 168.901 224.4L172.201 227.9L171.401 228.7L166.801 223.8L167.501 223.1Z" fill="white"/>
<path d="M171.501 216.8L172.701 217.9L173.601 217L174.301 217.6L173.401 218.5L176.501 221.4C176.701 221.6 176.901 221.7 177.101 221.7C177.301 221.7 177.501 221.6 177.601 221.4C177.701 221.3 177.801 221.2 177.901 220.9L178.601 221.5C178.501 221.8 178.301 222 178.101 222.2C177.701 222.6 177.401 222.8 177.001 222.7C176.601 222.6 176.201 222.5 175.801 222.1L172.701 219.2L171.901 220.1L171.201 219.5L172.001 218.6L170.801 217.5L171.501 216.8Z" fill="white"/>
<path d="M177.298 214.2C177.198 214.3 176.998 214.4 176.898 214.6C176.398 215.2 176.298 215.8 176.598 216.4L180.198 219.5L179.498 220.4L174.398 216L175.098 215.1L175.698 215.6C175.498 214.9 175.598 214.3 176.098 213.8C176.198 213.6 176.398 213.5 176.498 213.5L177.298 214.2Z" fill="white"/>
<path d="M175.698 211.7C175.598 211.6 175.498 211.4 175.398 211.3C175.398 211.1 175.398 211 175.598 210.8C175.698 210.6 175.898 210.5 176.098 210.5C176.298 210.5 176.398 210.5 176.598 210.7C176.698 210.8 176.798 211 176.898 211.1C176.898 211.3 176.898 211.4 176.698 211.6C176.598 211.8 176.398 211.9 176.198 211.9C175.998 211.9 175.798 211.8 175.698 211.7ZM183.198 216L182.498 216.9L177.198 212.7L177.898 211.8L183.198 216Z" fill="white"/>
<path d="M185 207.7C185.8 208.3 186.4 209 186.6 209.7C186.8 210.4 186.7 211.1 186.3 211.8C185.8 212.5 185.2 212.9 184.4 212.9L185 213.4L184.4 214.3L176.5 208.8L177.2 207.9L180.1 209.9C179.9 209.2 180 208.5 180.5 207.8C181 207.1 181.6 206.8 182.4 206.7C183.2 206.8 184 207.1 185 207.7ZM184.2 208.6C183.6 208.2 183 207.9 182.4 207.9C181.9 207.9 181.5 208.1 181.1 208.6C180.7 209.2 180.6 209.9 181 210.5L183.4 212.2C184.2 212.3 184.8 212.1 185.2 211.4C185.5 210.9 185.6 210.5 185.4 210C185.2 209.5 184.9 209.1 184.2 208.6Z" fill="white"/>
<path d="M190.201 204.1C190.401 204.8 190.301 205.5 189.901 206.2C189.501 206.8 189.101 207.2 188.501 207.3C188.001 207.4 187.301 207.3 186.601 206.9L182.801 204.7L183.401 203.7L187.201 205.9C188.101 206.4 188.701 206.3 189.201 205.6C189.601 204.8 189.701 204.2 189.201 203.6L185.001 201.1L185.601 200.1L191.401 203.5L190.801 204.4L190.201 204.1Z" fill="white"/>
<path d="M185.498 196.6L186.998 197.3L187.598 196.2L188.398 196.6L187.798 197.7L191.498 199.6C191.698 199.7 191.898 199.8 192.098 199.7C192.298 199.7 192.398 199.5 192.498 199.3C192.598 199.2 192.598 199 192.698 198.8L193.498 199.2C193.398 199.5 193.298 199.8 193.198 200C192.998 200.5 192.698 200.7 192.298 200.8C191.898 200.9 191.498 200.8 190.898 200.6L187.198 198.7L186.698 199.8L185.898 199.4L186.398 198.3L184.898 197.6L185.498 196.6Z" fill="white"/>
<path d="M190.899 196.8C190.299 196.5 189.799 196.2 189.399 195.7C188.999 195.3 188.799 194.8 188.699 194.2C188.599 193.7 188.699 193.1 188.899 192.6C189.299 191.8 189.799 191.2 190.599 190.9C191.399 190.6 192.299 190.7 193.299 191.1H193.399C193.999 191.4 194.499 191.7 194.899 192.1C195.299 192.5 195.499 193 195.599 193.6C195.699 194.1 195.599 194.7 195.399 195.3C194.999 196.1 194.499 196.7 193.699 197C192.799 197.3 191.899 197.2 190.899 196.8ZM191.499 195.8C192.199 196.1 192.799 196.2 193.399 196C193.999 195.8 194.299 195.5 194.599 195C194.799 194.5 194.799 193.9 194.499 193.4C194.199 192.9 193.699 192.5 192.899 192.2C192.199 191.9 191.599 191.8 190.999 192C190.399 192.1 189.999 192.5 189.799 193C189.599 193.5 189.599 194 189.899 194.5C190.199 195 190.699 195.4 191.499 195.8Z" fill="white"/>
<path d="M192.702 185.8C192.602 186 192.502 186.1 192.502 186.3C192.302 187 192.402 187.6 192.902 188.1L197.402 189.7L197.002 190.8L190.602 188.6L191.002 187.5L191.702 187.7C191.302 187.1 191.102 186.5 191.402 185.9C191.502 185.7 191.602 185.5 191.702 185.4L192.702 185.8Z" fill="white"/>
<defs>
<filter id="filter0_ii" x="0" y="50" width="218" height="218" filterUnits="userSpaceOnUse" color-interpolation-filters="sRGB">
<feFlood flood-opacity="0" result="BackgroundImageFix"/>
<feBlend mode="normal" in="SourceGraphic" in2="BackgroundImageFix" result="shape"/>
<feColorMatrix in="SourceAlpha" type="matrix" values="0 0 0 0 0 0 0 0 0 0 0 0 0 0 0 0 0 0 127 0" result="hardAlpha"/>
<feOffset/>
<feGaussianBlur stdDeviation="4"/>
<feComposite in2="hardAlpha" operator="arithmetic" k2="-1" k3="1"/>
<feColorMatrix type="matrix" values="0 0 0 0 0.9875 0 0 0 0 0.722843 0 0 0 0 0.386771 0 0 0 1 0"/>
<feBlend mode="normal" in2="shape" result="effect1_innerShadow"/>
<feColorMatrix in="SourceAlpha" type="matrix" values="0 0 0 0 0 0 0 0 0 0 0 0 0 0 0 0 0 0 127 0" result="hardAlpha"/>
<feOffset/>
<feGaussianBlur stdDeviation="6"/>
<feComposite in2="hardAlpha" operator="arithmetic" k2="-1" k3="1"/>
<feColorMatrix type="matrix" values="0 0 0 0 0 0 0 0 0 0 0 0 0 0 0 0 0 0 0.2 0"/>
<feBlend mode="normal" in2="effect1_innerShadow" result="effect2_innerShadow"/>
</filter>
<filter id="filter1_i" x="59" y="109" width="100" height="100" filterUnits="userSpaceOnUse" color-interpolation-filters="sRGB">
<feFlood flood-opacity="0" result="BackgroundImageFix"/>
<feBlend mode="normal" in="SourceGraphic" in2="BackgroundImageFix" result="shape"/>
<feColorMatrix in="SourceAlpha" type="matrix" values="0 0 0 0 0 0 0 0 0 0 0 0 0 0 0 0 0 0 127 0" result="hardAlpha"/>
<feOffset/>
<feGaussianBlur stdDeviation="6"/>
<feComposite in2="hardAlpha" operator="arithmetic" k2="-1" k3="1"/>
<feColorMatrix type="matrix" values="0 0 0 0 0 0 0 0 0 0 0 0 0 0 0 0 0 0 0.4 0"/>
<feBlend mode="normal" in2="shape" result="effect1_innerShadow"/>
</filter>
<linearGradient id="paint0_linear" x1="51.775" y1="57.4938" x2="218" y2="246.2" gradientUnits="userSpaceOnUse">
<stop stop-color="white"/>
<stop offset="1" stop-color="#705F5F" stop-opacity="0"/>
</linearGradient>
<linearGradient id="paint1_linear" x1="174.52" y1="213.6" x2="38.8" y2="107.52" gradientUnits="userSpaceOnUse">
<stop stop-color="#FFE4C1"/>
<stop offset="1" stop-color="#383838" stop-opacity="0"/>
</linearGradient>
<linearGradient id="paint2_linear" x1="194.68" y1="230.4" x2="17.2" y2="91.68" gradientUnits="userSpaceOnUse">
<stop stop-color="#FFE4C1"/>
<stop offset="1" stop-color="#383838" stop-opacity="0"/>
</linearGradient>
</defs>
</svg>
