<svg width="218" height="268" viewBox="0 0 218 268" fill="none" xmlns="http://www.w3.org/2000/svg">
<path d="M86.0059 29.7983C84.9045 29.7983 84.0234 30.669 84.0234 31.7573V50.0412C84.0234 51.1295 84.9045 52.0002 86.0059 52.0002H131.381C132.483 52.0002 133.364 51.1295 133.364 50.0412V31.7573C133.364 30.669 132.483 29.7983 131.381 29.7983H86.0059ZM129.399 44.1642C129.399 45.2526 128.518 46.1232 127.416 46.1232H90.191C89.0896 46.1232 88.2086 45.2526 88.2086 44.1642V35.893C88.2086 34.8046 89.0896 33.934 90.191 33.934H127.416C128.518 33.934 129.399 34.8046 129.399 35.893V44.1642Z" fill="#BABABA"/>
<path d="M140.045 0L114.918 37.8775H127.37L155.388 0H140.045Z" fill="#0FA711"/>
<path d="M127.377 0L102.473 37.8775H114.925L140.052 0H127.377Z" fill="white"/>
<path d="M114.924 0L90.0195 37.8775H102.472L127.376 0H114.924Z" fill="#FF7600"/>
<path d="M90.0177 37.8775H102.47L77.343 0H62L90.0177 37.8775Z" fill="#FF7600"/>
<path d="M102.471 37.8775H114.923L90.0184 0H77.3438L102.471 37.8775Z" fill="white"/>
<path opacity="0.5" d="M110.695 6.27979L104.469 15.6931L119.145 37.8818H127.372L129.596 34.744L110.695 6.27979Z" fill="#3E4347"/>
<path d="M114.924 37.8775H127.376L102.472 0H90.0195L114.924 37.8775Z" fill="#0FA711"/>
<g filter="url(#filter0_ii)">
<path d="M218 159C218 219.199 169.199 268 109 268C48.801 268 0 219.199 0 159C0 98.801 48.801 50 109 50C169.199 50 218 98.801 218 159Z" fill="#D5D5D5" fill-opacity="0.8"/>
</g>
<path d="M214.5 159C214.5 217.266 167.266 264.5 109 264.5C50.734 264.5 3.5 217.266 3.5 159C3.5 100.734 50.734 53.5 109 53.5C167.266 53.5 214.5 100.734 214.5 159Z" stroke="#DFDFDF" stroke-width="7"/>
<path d="M214.5 159C214.5 217.266 167.266 264.5 109 264.5C50.734 264.5 3.5 217.266 3.5 159C3.5 100.734 50.734 53.5 109 53.5C167.266 53.5 214.5 100.734 214.5 159Z" stroke="url(#paint0_linear)" stroke-width="7"/>
<path d="M196 159C196 207.049 157.049 246 109 246C60.9512 246 22 207.049 22 159C22 110.951 60.9512 72 109 72C157.049 72 196 110.951 196 159Z" fill="#A0A0A0"/>
<path fill-rule="evenodd" clip-rule="evenodd" d="M109 87C69.2355 87 37 119.235 37 159C37 198.764 69.2355 231 109 231C148.764 231 181 198.764 181 159C181 119.235 148.764 87 109 87ZM7 159C7 102.667 52.667 57 109 57C165.333 57 211 102.667 211 159C211 215.333 165.333 261 109 261C52.667 261 7 215.333 7 159Z" fill="#BABABA"/>
<path d="M109.001 82C66.5595 82 32 116.357 32 159.001C32 201.645 66.3574 236.002 109.001 236.002C151.645 236.002 186.002 201.645 186.002 159.001C186.002 116.357 151.442 82 109.001 82ZM93.6412 89.4778C93.8433 89.4778 93.8433 89.4778 93.6412 89.4778C95.0559 92.5093 97.6833 94.3282 100.311 93.7219C102.938 93.3177 105.565 91.4988 105.767 87.861C106.172 87.861 106.576 87.861 106.98 87.861C106.98 98.7745 106.172 110.496 104.959 123.229C104.757 124.441 104.757 125.654 104.757 126.867C104.353 125.856 103.948 124.644 103.544 123.229C99.3001 112.517 95.4601 100.998 92.4286 89.6799C93.0349 89.6799 93.237 89.4778 93.6412 89.4778ZM76.0583 95.743C78.2814 98.3703 81.1109 99.3808 83.5361 98.1682C86.3655 96.9556 87.9823 94.1261 87.376 91.0946C87.7802 90.8925 88.1844 90.8925 88.5886 90.6904C91.216 101.2 93.8433 112.72 95.8643 125.452C96.0664 126.867 96.2685 127.877 96.6727 129.09C96.0664 128.079 95.4601 127.069 94.4496 125.856C87.5781 116.559 80.9088 106.454 75.0478 96.3493C75.2499 96.1472 75.6541 95.9451 76.0583 95.743ZM60.4964 106.656C63.3259 108.475 66.3574 108.678 68.3784 107.061C69.9952 105.848 70.8036 104.029 70.8036 102.21C70.8036 101.2 70.6015 100.189 69.9952 99.3808C70.3994 99.1787 70.6015 98.9766 71.0057 98.7745C76.4625 108.071 81.7172 118.783 87.1739 130.302C87.7802 131.515 88.3865 132.526 88.7907 133.536C87.9823 132.728 86.9718 131.919 85.9613 131.111C77.0688 123.633 67.9742 115.549 59.688 107.465C59.8901 107.061 60.2943 106.859 60.4964 106.656ZM48.3703 121.006C48.5724 121.006 48.5724 121.006 48.3703 121.006C51.6039 122.016 54.6355 121.612 56.0502 119.389C56.4544 118.783 57.4649 117.166 57.4649 115.549C57.4649 114.538 57.0607 112.922 55.8481 111.507C56.0502 111.305 56.4544 110.901 56.6565 110.699C64.3364 118.378 72.2184 127.271 80.5046 136.972C81.313 137.982 82.1214 138.791 82.9298 139.599C81.9193 138.993 80.7067 138.589 79.494 137.982C68.9847 133.132 58.0712 127.675 47.764 122.016C47.9661 121.612 48.1682 121.41 48.3703 121.006ZM40.4883 137.982C40.4883 137.982 40.4883 137.78 40.4883 137.982C43.924 138.184 46.5514 136.972 47.5619 134.344C47.764 133.738 47.9661 132.93 47.9661 131.717C47.9661 130.505 47.5619 128.281 45.1367 126.665C45.3388 126.26 45.5409 126.058 45.743 125.654C55.0397 131.111 65.1448 137.578 75.452 144.854C76.4625 145.662 77.6751 146.269 78.4835 146.875C77.473 146.673 76.0583 146.471 74.6436 146.066C63.3259 144.45 51.4018 142.024 39.882 138.993C40.2862 138.791 40.4883 138.387 40.4883 137.982ZM37.2547 156.374C37.2547 156.374 37.2547 156.172 37.2547 156.374C40.4883 155.767 42.9135 153.746 43.1156 151.119C43.1156 150.917 43.1156 150.715 43.1156 150.311C43.1156 147.885 41.903 145.258 38.8715 144.248C38.8715 143.843 39.0736 143.439 39.0736 143.035C49.5829 145.864 60.9006 149.704 72.8247 153.948C74.0373 154.353 75.2499 154.757 76.2604 154.959C75.0478 154.959 73.8352 155.161 72.4205 155.161C61.1027 156.576 48.7745 157.182 37.0526 157.384C37.2547 157.182 37.2547 156.778 37.2547 156.374ZM38.8715 175.169C38.8715 174.967 38.8715 174.967 38.8715 175.169C41.4988 173.754 43.1156 171.733 43.1156 169.308C43.1156 169.106 43.1156 168.702 43.1156 168.5C42.7114 165.872 40.8925 163.245 37.2547 163.043C37.2547 162.639 37.2547 162.235 37.2547 161.83C48.1682 161.83 59.8901 162.437 72.6226 163.447C74.0373 163.649 75.2499 163.649 76.2604 163.649C75.2499 164.054 74.0373 164.458 72.6226 164.862C61.9111 169.106 50.3913 172.946 39.0736 176.18C39.0736 175.978 39.0736 175.573 38.8715 175.169ZM45.3387 192.752C45.3387 192.752 45.3387 192.55 45.3387 192.752C47.1577 191.135 48.1682 189.316 48.1682 187.295C48.1682 186.487 47.9661 185.881 47.764 185.274C46.7535 182.849 44.3282 180.828 40.6904 181.636C40.4883 181.232 40.4883 180.828 40.2862 180.424C50.7955 177.594 62.3153 175.169 74.8457 172.946C76.2604 172.744 77.2709 172.34 78.4835 172.138C77.473 172.744 76.4625 173.35 75.2499 174.361C65.9532 181.232 55.8481 187.902 45.743 193.965C45.743 193.358 45.5409 193.156 45.3387 192.752ZM56.2523 208.112C57.2628 206.495 57.667 205.08 57.667 203.463C57.667 202.251 57.2628 201.038 56.4544 200.23C54.8376 198.209 51.806 196.794 48.5724 198.411C48.3703 198.007 48.1682 197.805 47.9661 197.4C57.2628 191.944 67.9742 186.487 79.494 181.03C80.7067 180.424 81.7172 179.818 82.7277 179.413C81.9193 180.222 81.1109 181.232 80.3024 182.243C73.2289 191.337 65.1448 200.432 57.0607 208.92C56.8586 208.718 56.4544 208.516 56.2523 208.112ZM70.6015 220.036C70.8036 218.823 71.0057 217.813 71.0057 216.802C71.0057 214.781 70.1973 213.164 68.7826 212.356C66.7616 210.941 63.528 210.133 60.9006 212.76C60.4964 212.558 60.2943 212.154 60.0922 211.952C67.7721 204.272 76.4625 196.188 86.1634 188.104C87.1739 187.295 87.9823 186.487 88.7907 185.678C88.1844 186.689 87.7802 187.902 87.1739 189.114C82.7277 199.624 77.473 210.537 71.612 220.642C71.4099 220.44 71.0057 220.238 70.6015 220.036ZM87.5781 227.918C87.7802 224.482 86.3655 221.855 83.9403 220.844C81.5151 220.036 78.2814 220.238 76.2604 223.27C75.8562 223.067 75.6541 222.865 75.2499 222.663C80.7066 213.367 86.9718 203.261 94.2475 192.752C95.0559 191.539 95.6622 190.529 96.2685 189.721C96.0664 190.731 95.8643 192.146 95.4601 193.56C93.8433 204.878 91.4181 216.802 88.5886 228.322C88.3865 228.12 87.9823 228.12 87.5781 227.918ZM105.969 230.949C105.363 227.716 103.342 225.291 100.715 225.088C98.0874 224.886 95.0559 225.897 94.0454 229.333C93.6412 229.333 93.237 229.13 92.8328 229.13C95.6622 218.621 99.3001 207.303 103.544 195.379C103.948 194.167 104.353 192.954 104.555 191.944C104.555 193.156 104.757 194.369 104.757 195.784C106.172 207.101 106.98 219.43 107.182 231.151C106.778 231.151 106.374 231.151 105.969 230.949ZM178.928 144.45C176.301 145.864 174.482 147.885 174.482 150.311C174.482 150.513 174.482 150.917 174.482 151.119C174.886 153.746 176.705 156.374 180.343 156.576C180.343 156.98 180.343 157.384 180.343 157.788C169.632 157.788 157.708 156.98 144.975 155.767C143.56 155.565 142.348 155.565 141.337 155.565C142.348 155.161 143.56 154.757 144.975 154.353C155.687 150.108 167.206 146.269 178.524 143.237C178.726 143.641 178.726 144.045 178.928 144.45ZM172.663 126.867C172.663 126.867 172.663 127.069 172.663 126.867C170.844 128.484 169.834 130.302 169.834 132.323C169.834 133.132 170.036 133.738 170.238 134.344C171.248 136.77 173.674 138.791 177.312 138.184C177.514 138.589 177.514 138.993 177.716 139.397C167.206 142.024 155.485 144.45 142.954 146.673C141.539 146.875 140.529 147.077 139.316 147.481C140.327 146.875 141.337 146.269 142.55 145.46C151.847 138.387 161.952 131.717 172.057 125.856C172.259 126.26 172.461 126.463 172.663 126.867ZM162.154 111.709C161.143 113.326 160.537 114.943 160.537 116.357C160.537 117.57 160.941 118.783 161.75 119.591C163.366 121.612 166.196 123.027 169.43 121.41C169.632 121.814 169.834 122.016 170.036 122.42C160.537 127.675 150.028 133.132 138.306 138.184C137.093 138.791 136.083 139.195 135.072 139.801C135.881 138.993 136.689 137.982 137.7 136.972C144.975 128.079 153.059 118.985 161.345 110.699C161.548 111.103 161.952 111.305 162.154 111.709ZM147.603 99.1787C147.603 99.1787 147.805 99.3808 147.603 99.1787C147.4 100.391 146.996 101.402 146.996 102.412C146.996 104.231 147.805 105.848 149.219 106.859C151.24 108.273 154.474 109.082 157.101 106.656C157.303 106.859 157.708 107.263 157.91 107.465C150.23 115.145 141.337 123.027 131.434 131.111C130.424 131.919 129.413 132.728 128.807 133.536C129.413 132.526 129.818 131.515 130.424 130.1C135.072 119.591 140.529 108.678 146.39 98.5724C146.996 98.7745 147.198 98.9766 147.603 99.1787ZM130.626 91.2967C130.828 91.2967 130.828 91.2967 130.626 91.2967C130.424 94.7324 131.839 97.3598 134.264 98.3703C136.689 99.3808 139.923 99.1787 141.944 95.9451C142.348 96.1472 142.55 96.3493 142.954 96.5514C137.497 105.848 131.03 115.751 123.552 126.26C122.744 127.271 122.138 128.281 121.531 129.292C121.733 128.281 122.138 126.867 122.34 125.452C124.159 114.134 126.584 102.21 129.413 90.8925C130.02 90.8925 130.222 91.0946 130.626 91.2967ZM112.437 87.861C112.437 87.861 112.639 87.861 112.437 87.861C113.043 91.0946 115.064 93.5198 117.691 93.7219C120.319 93.924 123.35 92.9135 124.563 89.4778C124.967 89.4778 125.371 89.6799 125.775 89.6799C122.946 100.189 119.106 111.507 114.66 123.229C114.256 124.441 113.851 125.654 113.447 126.665C113.447 125.452 113.245 124.239 113.245 122.825C112.033 111.507 111.224 99.1787 111.224 87.4568C111.628 87.861 112.033 87.861 112.437 87.861ZM124.361 229.333C122.744 226.301 120.319 224.684 117.691 225.088C115.064 225.493 112.437 227.312 112.235 230.949C111.83 230.949 111.426 230.949 111.022 230.949C111.022 220.036 111.628 208.314 112.841 195.581C113.043 194.369 113.043 193.358 113.043 192.348C113.043 192.146 113.043 192.146 113.043 191.944C113.447 192.954 113.851 194.167 114.256 195.581C118.5 206.293 122.34 217.813 125.573 229.13C125.169 229.333 124.765 229.333 124.361 229.333ZM141.742 223.067C141.742 223.067 141.539 223.067 141.742 223.067C139.518 220.44 136.689 219.43 134.264 220.642C131.434 221.855 129.818 224.684 130.626 227.716C130.222 227.918 129.818 227.918 129.413 228.12C126.584 217.611 124.159 206.091 122.138 193.56C121.936 192.146 121.733 191.135 121.329 189.923C121.936 190.933 122.542 191.944 123.552 193.156C130.424 202.453 137.093 212.558 142.954 222.663C142.348 222.865 142.146 222.865 141.742 223.067ZM157.303 212.154C157.303 212.356 157.303 212.356 157.303 212.154C154.474 210.335 151.442 210.133 149.421 211.75C147.805 212.962 146.996 214.781 146.996 216.6C146.996 217.611 147.198 218.621 147.805 219.43C147.4 219.632 147.198 219.834 146.794 220.036C141.337 210.739 135.881 200.028 130.626 188.508C130.02 187.295 129.413 186.285 129.009 185.274C129.818 186.083 130.828 186.891 131.839 187.699C140.933 194.773 150.028 202.857 158.314 211.143C157.91 211.75 157.708 211.952 157.303 212.154ZM169.227 198.007C169.227 198.007 169.227 198.209 169.227 198.007C165.994 196.996 162.962 197.4 161.548 199.624C161.143 200.23 160.133 201.847 160.133 203.463C160.133 204.474 160.537 206.091 161.75 207.506C161.548 207.708 161.143 208.112 160.941 208.314C153.261 200.634 145.379 191.742 137.295 182.041C136.487 181.03 135.678 180.02 134.87 179.413C135.881 180.02 137.093 180.424 138.306 181.03C148.815 185.678 159.729 191.135 170.036 196.794C169.632 197.4 169.43 197.603 169.227 198.007ZM177.109 181.03C177.109 181.232 177.109 181.232 177.109 181.03C173.674 180.828 171.046 182.041 170.036 184.668C169.834 185.274 169.632 186.083 169.632 187.295C169.632 188.508 170.036 190.731 172.461 192.348C172.259 192.752 172.057 192.954 171.855 193.358C162.558 187.902 152.453 181.434 142.146 174.159C141.135 173.35 139.923 172.744 139.114 172.138C140.125 172.34 141.539 172.744 142.954 172.946C154.272 174.563 166.196 176.988 177.514 180.02C177.312 180.424 177.312 180.828 177.109 181.03ZM180.343 162.841C177.109 163.447 174.684 165.266 174.482 167.893C174.482 168.096 174.482 168.298 174.482 168.702C174.482 171.127 175.695 173.754 178.726 174.765C178.726 175.169 178.524 175.573 178.524 175.978C168.015 173.148 156.697 169.51 144.773 165.064C143.56 164.66 142.348 164.256 141.337 164.054C142.55 164.054 143.763 163.851 145.177 163.851C156.495 162.639 168.823 161.83 180.545 161.83C180.545 162.033 180.343 162.437 180.343 162.841Z" fill="#D1D1D1"/>
<circle cx="109" cy="159" r="77" stroke="url(#paint1_linear)" stroke-width="2"/>
<circle cx="109" cy="159" r="101" stroke="url(#paint2_linear)" stroke-width="2"/>
<g filter="url(#filter1_i)">
<circle cx="109" cy="159" r="50" fill="#AEAEAE"/>
</g>
<path fill-rule="evenodd" clip-rule="evenodd" d="M75.6891 151.366C75.0206 152.034 75.0602 153.12 75.6313 153.873C76.8239 155.447 77.5316 157.408 77.5316 159.535C77.5316 161.508 76.9226 163.338 75.8825 164.849C75.3625 165.604 75.3512 166.648 75.9996 167.296C76.6533 167.95 77.7241 167.953 78.2831 167.217C79.9033 165.083 80.8649 162.421 80.8649 159.535C80.8649 156.439 79.7582 153.601 77.9189 151.396C77.3474 150.711 76.3201 150.735 75.6891 151.366ZM81.295 170.247C80.7145 170.958 80.7092 172.006 81.3586 172.655C82.011 173.308 83.0753 173.31 83.6701 172.604C86.646 169.074 88.4393 164.514 88.4393 159.535C88.4393 154.357 86.4998 149.632 83.3076 146.047C82.7062 145.372 81.6671 145.388 81.0276 146.027C80.3661 146.689 80.3871 147.761 80.9979 148.469C83.558 151.439 85.106 155.306 85.106 159.535C85.106 163.598 83.6773 167.326 81.295 170.247ZM87.0569 176.004C86.453 176.696 86.4496 177.746 87.0995 178.396C87.7514 179.048 88.8129 179.05 89.4241 178.36C93.8623 173.348 96.5566 166.756 96.5566 159.535C96.5566 152.12 93.7154 145.369 89.0623 140.31C88.4466 139.641 87.4026 139.652 86.7596 140.295C86.1012 140.954 86.1152 142.02 86.7402 142.711C90.7691 147.159 93.2233 153.061 93.2233 159.535C93.2233 165.839 90.8973 171.599 87.0569 176.004Z" fill="white"/>
<mask id="mask0" mask-type="alpha" maskUnits="userSpaceOnUse" x="59" y="109" width="100" height="100">
<circle cx="109" cy="159" r="50" fill="#020A0E"/>
</mask>
<g mask="url(#mask0)">
<path fill-rule="evenodd" clip-rule="evenodd" d="M129.609 180.434C130.744 180.065 131.757 179.369 132.551 178.399L139.604 203.405H174.614V112.334H133.542V113.763V140.14C130.415 138.036 127.253 137.115 124.251 137.15C120.5 137.194 117.141 138.728 114.553 141.047C109.454 145.617 107.049 153.589 110.896 159.866C114.299 165.418 117.254 169.986 119.36 173.167C120.413 174.758 121.254 176.002 121.832 176.85C122.121 177.274 122.345 177.599 122.496 177.818C122.572 177.927 122.63 178.011 122.669 178.067L122.729 178.153C122.747 178.178 122.765 178.203 122.784 178.226C124.568 180.457 127.234 181.205 129.609 180.434ZM125.764 165.903C124.179 164.318 123.286 162.17 123.279 159.929C123.264 158.256 123.745 156.617 124.659 155.217C125.574 153.816 126.882 152.718 128.419 152.058C127.933 151.09 127.134 150.315 126.152 149.859C125.169 149.403 124.061 149.294 123.008 149.548C121.956 149.803 121.02 150.407 120.355 151.261C119.689 152.116 119.333 153.17 119.343 154.253C119.343 154.608 119.202 154.949 118.951 155.2C118.7 155.451 118.36 155.592 118.005 155.592C117.65 155.592 117.309 155.451 117.058 155.2C116.807 154.949 116.666 154.608 116.666 154.253C116.67 152.401 117.36 150.616 118.603 149.242C119.845 147.869 121.552 147.004 123.395 146.814C125.237 146.624 127.085 147.124 128.581 148.216C130.077 149.308 131.116 150.915 131.498 152.727C131.562 153.071 131.493 153.426 131.304 153.72C131.115 154.014 130.82 154.224 130.48 154.307C129.111 154.636 127.909 155.453 127.1 156.605C126.29 157.757 125.928 159.164 126.083 160.564C126.237 161.963 126.897 163.258 127.938 164.206C128.979 165.154 130.331 165.689 131.738 165.712C132.094 165.712 132.434 165.853 132.685 166.104C132.936 166.355 133.077 166.695 133.077 167.05C133.07 167.403 132.927 167.74 132.677 167.989C132.428 168.239 132.091 168.382 131.738 168.389C129.497 168.382 127.349 167.488 125.764 165.903Z" fill="white"/>
</g>
<path d="M58.3 91.6998L53 84.2998L55.4 82.5998C56.2 81.9998 56.9 81.7998 57.6 81.7998C58.3 81.7998 58.8 82.1998 59.3 82.7998C59.5 83.0998 59.7 83.4998 59.7 83.8998C59.7 84.2998 59.6 84.6998 59.3 85.0998C59.8 84.8998 60.2 84.8998 60.7 85.0998C61.2 85.1998 61.5 85.4998 61.8 85.9998C62.3 86.6998 62.4 87.2998 62.3 87.9998C62.2 88.6998 61.7 89.2998 60.9 89.8998L58.3 91.6998ZM56.2 86.7998L57.7 85.6998C58.1 85.3998 58.4 84.9998 58.5 84.5998C58.6 84.1998 58.5 83.7998 58.3 83.4998C58 83.0998 57.7 82.8998 57.3 82.8998C56.9 82.8998 56.5 83.0998 56 83.3998L54.6 84.3998L56.2 86.7998ZM56.8 87.5998L58.7 90.1998L60.3 88.9998C60.8 88.6998 61 88.2998 61.1 87.8998C61.2 87.4998 61.1 87.0998 60.8 86.6998C60.2 85.7998 59.4 85.6998 58.4 86.3998L56.8 87.5998Z" fill="white"/>
<path d="M62.2984 81.8002C62.3984 81.0002 62.7984 80.4002 63.4984 80.0002C64.6984 79.3002 65.7984 79.6002 66.5984 81.0002L68.8984 84.8002L67.8984 85.4002L65.5984 81.6002C65.2984 81.2002 65.0984 80.9002 64.7984 80.8002C64.4984 80.7002 64.0985 80.8002 63.6985 81.0002C63.3985 81.2002 63.0984 81.4002 62.9984 81.8002C62.8984 82.1002 62.7984 82.5002 62.7984 82.8002L65.2984 86.9002L64.2984 87.5002L59.3984 79.3002L60.3984 78.7002L62.2984 81.8002Z" fill="white"/>
<path d="M73.8008 82.1999C73.7008 82.0999 73.5008 81.8999 73.3008 81.5999C73.1008 82.2999 72.6008 82.8999 72.0008 83.1999C71.4008 83.4999 70.8008 83.5999 70.3008 83.3999C69.8008 83.2999 69.3008 82.8999 69.1008 82.3999C68.8008 81.7999 68.8008 81.1999 69.1008 80.5999C69.4008 79.9999 70.0008 79.4999 70.9008 79.0999L71.9008 78.5999L71.7008 78.0999C71.5008 77.6999 71.3008 77.4999 70.9008 77.3999C70.6008 77.2999 70.2008 77.2999 69.8008 77.5999C69.4008 77.7999 69.2008 77.9999 69.0008 78.2999C68.8008 78.5999 68.8008 78.8999 69.0008 79.1999L68.0008 79.6999C67.9008 79.3999 67.8008 79.0999 67.9008 78.6999C68.0008 78.2999 68.2008 77.8999 68.4008 77.5999C68.7008 77.2999 69.0008 76.9999 69.5008 76.7999C70.2008 76.4999 70.8008 76.3999 71.4008 76.4999C72.0008 76.6999 72.4008 76.9999 72.7008 77.5999L74.1008 80.3999C74.4008 80.9999 74.7008 81.3999 75.0008 81.5999V81.6999L73.8008 82.1999ZM71.7008 82.2999C72.0008 82.0999 72.3008 81.8999 72.5008 81.5999C72.7008 81.2999 72.8008 80.9999 72.8008 80.5999L72.2008 79.3999L71.4008 79.7999C70.1008 80.3999 69.7008 81.0999 70.1008 81.8999C70.3008 82.1999 70.5008 82.3999 70.8008 82.4999C71.0008 82.4999 71.4008 82.4999 71.7008 82.2999Z" fill="white"/>
<path d="M79.0003 78.0999C78.9003 77.7999 78.7003 77.5999 78.4003 77.5999C78.1003 77.5999 77.7003 77.4999 77.1003 77.5999C76.5003 77.6999 76.0003 77.6999 75.6003 77.6999C75.2003 77.6999 74.9003 77.5999 74.7003 77.3999C74.5003 77.1999 74.3003 76.9999 74.1003 76.6999C73.9003 76.1999 73.9003 75.6999 74.2003 75.0999C74.5003 74.5999 75.0003 74.1999 75.6003 73.8999C76.3003 73.5999 77.0003 73.5999 77.5003 73.6999C78.1003 73.8999 78.5003 74.2999 78.7003 74.7999L77.6003 75.1999C77.5003 74.8999 77.3003 74.6999 76.9003 74.5999C76.6003 74.4999 76.2003 74.4999 75.8003 74.6999C75.4003 74.8999 75.1003 75.0999 75.0003 75.2999C74.8003 75.5999 74.8003 75.7999 74.9003 76.0999C75.0003 76.3999 75.2003 76.4999 75.4003 76.5999C75.7003 76.5999 76.1003 76.5999 76.7003 76.4999C77.3003 76.3999 77.8003 76.3999 78.2003 76.3999C78.6003 76.3999 78.9003 76.4999 79.2003 76.6999C79.5003 76.9 79.6003 77.0999 79.8003 77.4999C80.0003 78.0999 80.0003 78.5999 79.7003 79.0999C79.4003 79.5999 78.9003 79.9999 78.2003 80.2999C77.7003 80.4999 77.2003 80.5999 76.8003 80.5999C76.4003 80.5999 75.9003 80.4999 75.6003 80.1999C75.3003 79.9999 75.0003 79.6999 74.9003 79.2999L76.0003 78.8999C76.2003 79.2999 76.4003 79.4999 76.8003 79.5999C77.2003 79.6999 77.5003 79.6999 78.0003 79.4999C78.4003 79.2999 78.7003 79.0999 78.9003 78.8999C79.1003 78.6999 79.1003 78.3999 79.0003 78.0999Z" fill="white"/>
<path d="M81.1 72.9C81.4 72.1 81.9 71.6 82.7 71.4C84.1 71 85 71.5 85.5 73L86.9 77.2L85.8 77.6L84.4 73.4C84.2 72.9 84 72.6 83.8 72.5C83.5 72.3 83.2 72.3 82.7 72.5C82.3 72.6 82.1 72.8 81.9 73.1C81.7 73.4 81.6 73.7 81.5 74L83 78.6L81.9 79L79 69.9L80.1 69.5L81.1 72.9Z" fill="white"/>
<path d="M86.1992 68.6998C86.1992 68.4998 86.1992 68.3998 86.1992 68.1998C86.2992 67.9998 86.3992 67.8998 86.5992 67.8998C86.7992 67.7998 86.9992 67.8998 87.0992 67.9998C87.1992 68.0998 87.2992 68.1998 87.3992 68.3998C87.3992 68.5998 87.3992 68.6998 87.2992 68.8998C87.1992 69.0998 87.0992 69.1998 86.8992 69.1998C86.6992 69.2998 86.4992 69.1998 86.3992 69.0998C86.2992 68.9998 86.1992 68.8998 86.1992 68.6998ZM89.4992 76.5998L88.3992 76.8998L86.6992 70.3998L87.7992 70.0998L89.4992 76.5998Z" fill="white"/>
<path d="M90.8008 69.4002L91.0008 70.2002C91.4008 69.5002 92.0008 69.0002 92.8008 68.9002C94.2008 68.6002 95.1008 69.3002 95.4008 70.8002L96.3008 75.2002L95.2008 75.4002L94.3008 71.0002C94.2008 70.5002 94.0008 70.2002 93.8008 70.0002C93.5008 69.8002 93.2008 69.8002 92.7008 69.9002C92.3008 70.0002 92.0008 70.1002 91.8008 70.4002C91.6008 70.7002 91.4008 70.9002 91.3008 71.3002L92.2008 76.0002L91.1008 76.2002L89.8008 69.6002L90.8008 69.4002Z" fill="white"/>
<path d="M96.5 66.6002C96.5 66.4002 96.5 66.3002 96.6 66.1002C96.7 66.0002 96.9 65.9002 97.1 65.8002C97.3 65.7002 97.5 65.8002 97.6 65.9002C97.7 66.0002 97.8 66.2002 97.8 66.3002C97.8 66.5002 97.8 66.6002 97.7 66.8002C97.6 66.9002 97.4 67.0002 97.2 67.1002C97 67.1002 96.8 67.1002 96.7 67.0002C96.6 66.9002 96.5 66.7002 96.5 66.6002ZM98.9 74.8002L97.8 75.0002L96.9 68.3002L98 68.1002L98.9 74.8002Z" fill="white"/>
<path d="M103.301 69.5002C103.301 69.1002 103.401 68.8002 103.601 68.6002C103.801 68.4002 104.101 68.2002 104.501 68.2002C104.901 68.2002 105.201 68.3002 105.401 68.5002C105.601 68.7002 105.801 69.0002 105.801 69.4002V69.6002C105.801 70.0002 105.701 70.3002 105.501 70.5002C105.301 70.7002 105.001 70.9002 104.601 70.9002C104.201 70.9002 103.901 70.8002 103.701 70.6002C103.501 70.4002 103.301 70.1002 103.301 69.7002V69.5002Z" fill="white"/>
<path d="M113.501 70.1C112.501 69.8 111.801 69.4 111.301 68.9C110.801 68.5 110.601 67.9 110.701 67.3C110.701 66.6 111.001 66 111.601 65.6C112.201 65.2 112.901 65 113.901 65C114.501 65 115.101 65.2 115.601 65.4C116.101 65.6 116.401 66 116.701 66.4C117.001 66.8 117.101 67.3 117.001 67.8H115.801C115.801 67.3 115.701 66.8 115.301 66.5C115.001 66.2 114.501 66 113.801 66C113.201 66 112.701 66.1 112.401 66.3C112.101 66.5 111.901 66.9 111.901 67.4C111.901 67.8 112.001 68.1 112.301 68.4C112.601 68.7 113.101 68.9 113.901 69.2C114.601 69.4 115.201 69.7 115.601 70C116.001 70.3 116.301 70.6 116.501 70.9C116.701 71.2 116.801 71.7 116.801 72.1C116.801 72.8 116.501 73.4 115.901 73.8C115.301 74.2 114.501 74.4 113.601 74.4C113.001 74.4 112.401 74.2 111.901 74C111.401 73.7 111.001 73.4 110.701 73C110.401 72.6 110.301 72.1 110.301 71.6H111.501C111.501 72.1 111.701 72.6 112.101 72.9C112.501 73.2 113.001 73.4 113.701 73.4C114.301 73.4 114.801 73.3 115.201 73.1C115.501 72.9 115.701 72.5 115.701 72.1C115.701 71.7 115.601 71.3 115.301 71.1C114.901 70.6 114.401 70.4 113.501 70.1Z" fill="white"/>
<path d="M121.998 74.2001C121.498 74.7001 120.798 74.9001 119.898 74.7001C119.198 74.6001 118.698 74.3001 118.298 73.9001C117.998 73.4001 117.898 72.8001 117.998 72.0001L118.498 67.6001L119.598 67.7001L119.098 72.0001C118.998 73.0001 119.298 73.6001 120.198 73.7001C121.098 73.8001 121.698 73.5001 122.098 72.9001L122.698 68.0001L123.798 68.1001L122.998 74.8001L121.898 74.7001L121.998 74.2001Z" fill="white"/>
<path d="M126.802 68.8001L126.702 69.6001C127.302 69.1001 128.102 68.9001 128.902 69.0001C130.302 69.3001 130.802 70.2001 130.502 71.8001L129.602 76.2001L128.502 76.0001L129.402 71.6001C129.502 71.1001 129.502 70.7001 129.302 70.5001C129.102 70.2001 128.802 70.0001 128.402 70.0001C128.002 69.9001 127.702 70.0001 127.402 70.1001C127.102 70.2001 126.802 70.5001 126.602 70.7001L125.702 75.4001L124.602 75.2001L125.902 68.6001L126.802 68.8001Z" fill="white"/>
<path d="M131.501 73.2C131.701 72.6 132.001 72 132.401 71.6C132.801 71.2 133.301 70.9 133.801 70.7C134.301 70.6 134.901 70.6 135.401 70.7C136.301 71 136.901 71.5 137.301 72.2C137.701 73 137.701 73.9 137.401 74.9V75C137.201 75.6 136.901 76.2 136.601 76.6C136.201 77 135.801 77.3 135.201 77.5C134.701 77.7 134.101 77.6 133.501 77.5C132.601 77.2 132.001 76.7 131.601 76C131.301 75.2 131.201 74.3 131.501 73.2ZM132.601 73.7C132.401 74.4 132.401 75 132.601 75.6C132.801 76.1 133.201 76.5 133.801 76.6C134.401 76.8 134.901 76.7 135.301 76.3C135.801 76 136.101 75.4 136.301 74.6C136.501 73.9 136.501 73.3 136.301 72.7C136.101 72.2 135.701 71.8 135.101 71.7C134.601 71.5 134.101 71.6 133.601 72C133.101 72.4 132.801 72.9 132.601 73.7Z" fill="white"/>
<path d="M141.799 80.1999L140.699 79.7999L143.999 71.3999L145.099 71.7999L141.799 80.1999Z" fill="white"/>
<path d="M147.2 75.1999L146.9 75.9999C147.6 75.5999 148.4 75.5999 149.1 75.9999C150.4 76.5999 150.7 77.5999 150 79.0999L148.1 83.0999L147.1 82.5999L149 78.5999C149.2 78.1999 149.3 77.7999 149.2 77.4999C149.1 77.1999 148.8 76.8999 148.4 76.7999C148.1 76.5999 147.7 76.5999 147.4 76.6999C147.1 76.7999 146.8 76.8999 146.5 77.0999L144.5 81.4999L143.5 80.9999L146.3 74.8999L147.2 75.1999Z" fill="white"/>
<path d="M150.9 80.5999C151.4 79.6999 152 79.0999 152.8 78.7999C153.5 78.4999 154.3 78.4999 154.9 78.8999C155.6 79.2999 156 79.7999 156.1 80.4999L157.8 77.3999L158.8 77.9999L154.1 86.2999L153.2 85.7999L153.5 85.0999C152.8 85.3999 152.1 85.2999 151.4 84.8999C150.7 84.4999 150.3 83.8999 150.2 83.0999C150.1 82.2999 150.3 81.4999 150.9 80.5999ZM151.8 81.2999C151.4 81.9999 151.3 82.5999 151.3 83.0999C151.4 83.5999 151.6 83.9999 152.1 84.2999C152.7 84.6999 153.4 84.5999 154 84.1999L155.5 81.4999C155.5 80.7999 155.2 80.1999 154.6 79.8999C154.1 79.5999 153.6 79.5999 153.1 79.7999C152.7 79.9999 152.2 80.4999 151.8 81.2999Z" fill="white"/>
<path d="M156.5 87.9002L155.5 87.3002L159.2 81.6002L160.2 82.2002L156.5 87.9002ZM160 80.0002C160.1 79.8002 160.2 79.7002 160.4 79.7002C160.6 79.7002 160.7 79.7002 160.9 79.8002C161.1 79.9002 161.2 80.1002 161.2 80.2002C161.2 80.4002 161.2 80.5002 161.1 80.7002C161 80.9002 160.9 81.0002 160.7 81.0002C160.5 81.0002 160.4 81.0002 160.2 80.9002C160 80.8002 159.9 80.6002 159.9 80.5002C159.9 80.3002 159.9 80.2002 160 80.0002Z" fill="white"/>
<path d="M161.198 91.2C161.198 91.1 161.298 90.8 161.498 90.5C160.698 90.6 160.098 90.5 159.498 90C158.998 89.6 158.598 89.1 158.498 88.6C158.398 88 158.498 87.5 158.798 87.1C159.198 86.5 159.698 86.2 160.398 86.2C161.098 86.2 161.798 86.5 162.598 87.1L163.498 87.8L163.798 87.4C163.998 87.1 164.098 86.7 164.098 86.4C164.098 86.1 163.798 85.8 163.398 85.5C163.098 85.3 162.698 85.1 162.398 85.1C162.098 85.1 161.798 85.2 161.598 85.5L160.698 84.8C160.898 84.5 161.198 84.3 161.598 84.2C161.998 84.1 162.398 84.1 162.798 84.2C163.198 84.3 163.698 84.5 164.098 84.8C164.698 85.3 165.098 85.8 165.198 86.3C165.298 86.9 165.198 87.4 164.798 88L162.998 90.5C162.598 91 162.398 91.4 162.298 91.8L162.198 91.9L161.198 91.2ZM160.098 89.3C160.398 89.5 160.698 89.6 161.098 89.7C161.498 89.7 161.798 89.7 162.098 89.5L162.898 88.4L162.198 87.9C161.098 87.1 160.198 87 159.798 87.7C159.598 88 159.498 88.3 159.598 88.6C159.598 88.9 159.798 89.1 160.098 89.3Z" fill="white"/>
<path d="M22 193L30.3 189.4L31.5 192.1C31.9 193 32 193.8 31.8 194.4C31.6 195 31.2 195.5 30.4 195.8C30 196 29.6 196 29.2 195.9C28.8 195.8 28.4 195.6 28.1 195.3C28.2 195.8 28.1 196.3 27.8 196.7C27.6 197.1 27.2 197.4 26.7 197.6C26 197.9 25.3 197.9 24.6 197.6C23.9 197.3 23.5 196.7 23.1 195.8L22 193ZM26.4 192.4L23.4 193.7L24.2 195.5C24.4 196 24.7 196.4 25.1 196.5C25.5 196.7 25.9 196.7 26.4 196.5C27.4 196.1 27.7 195.3 27.2 194.2L26.4 192.4ZM27.2 192L27.9 193.7C28.1 194.2 28.4 194.5 28.8 194.7C29.2 194.9 29.6 194.9 30 194.7C30.5 194.5 30.7 194.2 30.8 193.9C30.9 193.5 30.8 193.1 30.6 192.5L29.9 190.9L27.2 192Z" fill="white"/>
<path d="M31.1 198.7C31.9 198.9 32.5 199.3 32.9 200C33.6 201.3 33.2 202.3 31.8 203L27.9 205.1L27.4 204.1L31.3 202C31.7 201.8 32 201.5 32.1 201.2C32.2 200.9 32.1 200.5 31.9 200.1C31.7 199.8 31.5 199.5 31.2 199.4C30.9 199.2 30.6 199.2 30.2 199.2L26 201.5L25.5 200.5L33.9 196L34.4 197L31.1 198.7Z" fill="white"/>
<path d="M31.1009 210.4C31.2009 210.3 31.3009 210.1 31.6009 209.9C30.8009 209.7 30.3009 209.4 29.9009 208.7C29.5009 208.1 29.4009 207.6 29.5009 207C29.6009 206.4 29.9009 206 30.4009 205.7C31.0009 205.3 31.6009 205.3 32.2009 205.5C32.8009 205.7 33.4009 206.3 33.9009 207.1L34.5009 208L34.9009 207.7C35.2009 207.5 35.4009 207.2 35.5009 206.9C35.6009 206.6 35.5009 206.2 35.2009 205.8C35.0009 205.5 34.7009 205.2 34.4009 205.1C34.1009 205 33.8009 205 33.5009 205.2L32.9009 204.2C33.2009 204 33.5009 203.9 33.9009 204C34.3009 204 34.7009 204.2 35.0009 204.4C35.4009 204.6 35.7009 205 36.0009 205.4C36.4009 206.1 36.6009 206.7 36.5009 207.3C36.4009 207.9 36.1009 208.4 35.5009 208.7L32.9009 210.4C32.4009 210.7 32.0009 211.1 31.8009 211.4L31.7009 211.5L31.1009 210.4ZM30.8009 208.3C31.0009 208.6 31.3009 208.8 31.6009 209C31.9009 209.2 32.3009 209.2 32.6009 209.2L33.8009 208.5L33.3009 207.7C32.5009 206.5 31.8009 206.1 31.1009 206.6C30.8009 206.8 30.6009 207 30.6009 207.4C30.5009 207.7 30.6009 208 30.8009 208.3Z" fill="white"/>
<path d="M36.6016 215.1C36.8016 214.9 37.0016 214.7 37.0016 214.4C37.0016 214.1 36.9016 213.7 36.6016 213.2C36.4016 212.7 36.2016 212.2 36.1016 211.8C36.0016 211.4 36.0016 211.1 36.1016 210.8C36.2016 210.5 36.4016 210.3 36.6016 210.1C37.0016 209.8 37.6016 209.7 38.1016 209.8C38.6016 209.9 39.2016 210.3 39.6016 210.9C40.1016 211.5 40.3016 212.1 40.2016 212.7C40.2016 213.3 39.9016 213.8 39.4016 214.2L38.7016 213.3C39.0016 213.1 39.1016 212.8 39.1016 212.5C39.1016 212.1 39.0016 211.8 38.8016 211.5C38.5016 211.2 38.3016 211 38.0016 210.9C37.7016 210.8 37.4016 210.9 37.2016 211C37.0016 211.2 36.9016 211.4 36.9016 211.6C36.9016 211.9 37.0016 212.3 37.3016 212.8C37.5016 213.3 37.7016 213.8 37.8016 214.2C37.9016 214.6 37.9016 214.9 37.8016 215.2C37.7016 215.5 37.5016 215.7 37.2016 216C36.7016 216.4 36.2016 216.5 35.6016 216.3C35.0016 216.1 34.5016 215.7 34.0016 215.1C33.7016 214.7 33.5016 214.2 33.4016 213.8C33.3016 213.4 33.3016 212.9 33.5016 212.5C33.6016 212.1 33.9016 211.8 34.2016 211.6L34.9016 212.5C34.6016 212.7 34.5016 213.1 34.4016 213.4C34.4016 213.8 34.5016 214.1 34.8016 214.5C35.1016 214.8 35.3016 215.1 35.6016 215.2C36.1016 215.3 36.4016 215.2 36.6016 215.1Z" fill="white"/>
<path d="M42.3 215.5C43.1 215.5 43.8 215.8 44.3 216.4C45.2 217.5 45.1 218.5 43.9 219.6L40.5 222.5L39.7 221.6L43.1 218.7C43.5 218.4 43.7 218.1 43.7 217.7C43.7 217.4 43.6 217.1 43.3 216.7C43.1 216.4 42.8 216.2 42.4 216.2C42 216.2 41.7 216.1 41.4 216.2L37.8 219.4L37 218.5L44.2 212.2L45 213.1L42.3 215.5Z" fill="white"/>
<path d="M44.9 226.9C44.9 226.8 45.1 226.6 45.3 226.3C44.5 226.3 43.9 226.1 43.3 225.6C42.8 225.1 42.6 224.6 42.5 224.1C42.5 223.5 42.6 223 43 222.6C43.5 222.1 44.1 221.9 44.7 222C45.4 222.1 46 222.5 46.7 223.2L47.5 224L47.9 223.6C48.2 223.3 48.3 223 48.3 222.7C48.3 222.4 48.1 222 47.8 221.7C47.5 221.4 47.2 221.2 46.8 221.2C46.5 221.2 46.2 221.2 46 221.4L45.2 220.6C45.4 220.4 45.7 220.2 46.1 220.2C46.5 220.1 46.9 220.2 47.3 220.3C47.7 220.5 48.1 220.7 48.5 221C49.1 221.5 49.4 222.1 49.4 222.7C49.4 223.3 49.2 223.8 48.8 224.3L46.6 226.5C46.2 226.9 45.9 227.3 45.7 227.7L45.6 227.8L44.9 226.9ZM44.2 224.9C44.5 225.2 44.8 225.3 45.1 225.4C45.4 225.5 45.8 225.5 46.1 225.4L47.1 224.4L46.5 223.8C45.5 222.8 44.7 222.6 44.1 223.2C43.8 223.5 43.7 223.7 43.8 224.1C43.7 224.4 43.9 224.7 44.2 224.9Z" fill="white"/>
<path d="M54.5 229.8C53.9 228.9 53.5 228.2 53.4 227.6C53.3 227 53.4 226.4 53.8 225.9C54.2 225.3 54.8 225 55.6 225C56.3 225 57.1 225.2 57.8 225.8C58.3 226.2 58.7 226.6 58.9 227.1C59.1 227.6 59.2 228.1 59.2 228.6C59.2 229.1 59 229.5 58.7 229.9L57.7 229.2C58 228.8 58.2 228.3 58.1 227.9C58 227.4 57.7 227 57.2 226.6C56.7 226.2 56.3 226.1 55.9 226.1C55.5 226.1 55.1 226.3 54.8 226.7C54.6 227 54.5 227.3 54.6 227.7C54.7 228.1 55 228.6 55.4 229.2C55.9 229.8 56.2 230.4 56.4 230.8C56.6 231.3 56.6 231.7 56.6 232.1C56.6 232.5 56.4 232.9 56.1 233.2C55.7 233.8 55.1 234.1 54.3 234.1C53.6 234.1 52.8 233.8 52.1 233.2C51.6 232.8 51.2 232.4 50.9 231.9C50.6 231.4 50.5 230.9 50.5 230.4C50.5 229.9 50.7 229.4 51 229L52 229.7C51.7 230.1 51.6 230.6 51.7 231.1C51.8 231.6 52.2 232.1 52.7 232.5C53.2 232.9 53.7 233.1 54.1 233.1C54.5 233.1 54.9 232.9 55.1 232.6C55.4 232.2 55.5 231.9 55.4 231.5C55.3 231 55 230.4 54.5 229.8Z" fill="white"/>
<path d="M59.6017 238.3C59.6017 238.2 59.7017 237.9 59.9017 237.6C59.1017 237.8 58.5017 237.7 57.8017 237.3C57.2017 236.9 56.9017 236.5 56.7017 235.9C56.5017 235.3 56.6017 234.8 56.9017 234.4C57.3017 233.8 57.8017 233.5 58.5017 233.5C59.2017 233.5 59.9017 233.7 60.7017 234.2L61.6017 234.8L61.9017 234.4C62.1017 234.1 62.2017 233.7 62.1017 233.4C62.0017 233.1 61.8017 232.8 61.4017 232.5C61.1017 232.3 60.7017 232.2 60.4017 232.2C60.1017 232.2 59.8017 232.4 59.6017 232.6L58.6017 232C58.8017 231.7 59.1017 231.5 59.4017 231.4C59.8017 231.3 60.2017 231.2 60.6017 231.3C61.0017 231.4 61.5017 231.5 61.9017 231.8C62.6017 232.2 63.0017 232.7 63.1017 233.3C63.3017 233.9 63.2017 234.4 62.8017 235L61.1017 237.6C60.8017 238.1 60.6017 238.6 60.5017 239L60.4017 239.1L59.6017 238.3ZM58.5017 236.5C58.8017 236.7 59.1017 236.8 59.5017 236.8C59.9017 236.8 60.2017 236.7 60.5017 236.6L61.3017 235.4L60.5017 234.9C59.3017 234.1 58.5017 234.1 58.0017 234.8C57.8017 235.1 57.7017 235.4 57.8017 235.7C57.9017 236 58.1017 236.3 58.5017 236.5Z" fill="white"/>
<path d="M66.3984 234.5L66.0984 235.2C66.7984 234.9 67.4984 235 68.2984 235.3C69.0984 235.7 69.4984 236.3 69.4984 237.1C69.7984 236.9 70.1984 236.8 70.5984 236.8C70.9984 236.8 71.3984 236.9 71.8984 237.1C73.1984 237.8 73.4984 238.8 72.7984 240.2L70.6984 244.2L69.6984 243.7L71.6984 239.7C71.8984 239.3 71.9984 238.9 71.8984 238.6C71.7984 238.3 71.4984 238 71.0984 237.8C70.6984 237.6 70.2984 237.6 69.9984 237.7C69.5984 237.8 69.2984 238 69.0984 238.4L67.0984 242.4L66.0984 241.9L68.0984 238C68.4984 237.1 68.2984 236.5 67.4984 236C66.7984 235.7 66.1984 235.7 65.6984 236.1L63.3984 240.5L62.3984 240L65.4984 234L66.3984 234.5Z" fill="white"/>
<path d="M76.6019 246.7C76.6019 246.6 76.6019 246.3 76.7019 246C76.0019 246.3 75.3019 246.3 74.6019 246.1C74.0019 245.9 73.5019 245.5 73.3019 245C73.0019 244.5 73.0019 244 73.2019 243.4C73.5019 242.7 73.9019 242.3 74.5019 242.2C75.1019 242 75.9019 242.1 76.8019 242.5L77.8019 242.9L78.0019 242.4C78.1019 242 78.2019 241.7 78.0019 241.4C77.9019 241.1 77.6019 240.8 77.1019 240.7C76.7019 240.6 76.4019 240.5 76.0019 240.6C75.7019 240.7 75.4019 240.9 75.3019 241.1L74.2019 240.7C74.3019 240.4 74.6019 240.1 74.9019 239.9C75.2019 239.7 75.6019 239.6 76.1019 239.6C76.5019 239.6 77.0019 239.7 77.5019 239.8C78.2019 240.1 78.7019 240.5 79.0019 241C79.3019 241.5 79.3019 242.1 79.1019 242.7L78.0019 245.6C77.8019 246.2 77.7019 246.7 77.7019 247.1V247.2L76.6019 246.7ZM75.2019 245.1C75.5019 245.2 75.9019 245.3 76.3019 245.2C76.7019 245.1 77.0019 245 77.2019 244.8L77.7019 243.5L76.9019 243.2C75.6019 242.7 74.8019 242.8 74.5019 243.6C74.4019 243.9 74.4019 244.2 74.5019 244.5C74.6019 244.8 74.8019 245 75.2019 245.1Z" fill="white"/>
<path d="M84.4 243.2C84.2 243.1 84.1 243 83.9 243C83.2 242.8 82.6 242.9 82.1 243.5L80.6 248.1L79.5 247.7L81.6 241.3L82.7 241.6L82.5 242.3C83 241.8 83.6 241.7 84.3 241.9C84.5 242 84.7 242 84.8 242.1L84.4 243.2Z" fill="white"/>
<path d="M87.8016 241.4L87.4016 243L88.6016 243.3L88.4016 244.2L87.2016 243.9L86.1016 247.9C86.0016 248.2 86.0016 248.4 86.1016 248.5C86.2016 248.7 86.3016 248.8 86.6016 248.8C86.7016 248.8 86.9016 248.9 87.1016 248.9L86.9016 249.8C86.6016 249.8 86.3016 249.8 86.0016 249.7C85.5016 249.6 85.2016 249.3 85.0016 249C84.8016 248.6 84.8016 248.2 85.0016 247.6L86.1016 243.6L84.9016 243.3L85.1016 242.4L86.3016 242.7L86.7016 241.1L87.8016 241.4Z" fill="white"/>
<path d="M90.8016 244.6C91.4016 244.1 92.1016 243.9 92.9016 244.1C94.3016 244.4 94.8016 245.3 94.5016 246.9L93.6016 251.3L92.5016 251.1L93.4016 246.7C93.5016 246.2 93.5016 245.8 93.3016 245.6C93.1016 245.3 92.8016 245.1 92.4016 245.1C92.0016 245 91.7016 245.1 91.4016 245.2C91.1016 245.3 90.8016 245.6 90.6016 245.8L89.7016 250.5L88.6016 250.3L90.5016 240.9L91.6016 241.1L90.8016 244.6Z" fill="white"/>
<path d="M99.8992 252.1C99.7992 252 99.7992 251.7 99.7992 251.4C99.1992 251.9 98.4992 252.1 97.7992 252C97.0992 251.9 96.5992 251.7 96.1992 251.2C95.7992 250.7 95.6992 250.3 95.6992 249.7C95.7992 249 96.0992 248.5 96.6992 248.2C97.2992 247.9 97.9992 247.8 98.9992 247.9L100.099 248L100.199 247.5C100.199 247.1 100.199 246.8 99.9992 246.5C99.7992 246.2 99.3992 246.1 98.9992 246C98.5992 246 98.1992 246 97.8992 246.2C97.5992 246.4 97.3992 246.6 97.3992 246.9L96.1992 246.8C96.1992 246.5 96.3992 246.2 96.6992 245.9C96.9992 245.6 97.2992 245.4 97.7992 245.3C98.1992 245.2 98.6992 245.1 99.1992 245.2C99.9992 245.3 100.599 245.6 100.899 246C101.299 246.4 101.499 247 101.399 247.7L100.999 250.8C100.899 251.4 100.899 251.9 101.099 252.3V252.4L99.8992 252.1ZM98.0992 251C98.4992 251 98.7992 251 99.1992 250.8C99.4992 250.7 99.7992 250.4 99.9992 250.2L100.199 248.8L99.2992 248.7C97.8992 248.5 97.0992 248.9 97.0992 249.7C97.0992 250.1 97.0992 250.4 97.3992 250.6C97.3992 250.8 97.6992 250.9 98.0992 251Z" fill="white"/>
<path d="M104.998 249.3L104.198 250L104.098 252.4H102.898L103.298 242.8H104.498L104.298 248.6L104.898 247.9L107.098 245.8L108.498 245.9L105.798 248.6L108.598 252.6L107.198 252.5L104.998 249.3Z" fill="white"/>
<path d="M112.801 247.7C112.801 247.3 112.901 247 113.101 246.8C113.301 246.6 113.601 246.4 114.001 246.4C114.401 246.4 114.701 246.5 114.901 246.7C115.101 246.9 115.301 247.2 115.301 247.6V247.8C115.301 248.2 115.201 248.5 115.001 248.7C114.801 248.9 114.501 249.1 114.101 249.1C113.701 249.1 113.401 249 113.201 248.8C113.001 248.6 112.801 248.3 112.801 247.9V247.7Z" fill="white"/>
<path d="M123.098 247.4C121.998 247.3 121.198 247 120.698 246.7C120.198 246.3 119.898 245.9 119.798 245.2C119.698 244.5 119.898 243.9 120.398 243.3C120.898 242.8 121.598 242.4 122.498 242.3C123.098 242.2 123.698 242.2 124.198 242.4C124.698 242.6 125.098 242.8 125.498 243.2C125.898 243.6 125.998 244 126.098 244.5L124.898 244.7C124.798 244.2 124.598 243.8 124.198 243.5C123.798 243.2 123.298 243.2 122.698 243.3C122.098 243.4 121.698 243.6 121.398 243.9C121.098 244.2 120.998 244.6 121.098 245C121.198 245.4 121.398 245.7 121.698 245.9C121.998 246.1 122.598 246.3 123.398 246.3C124.198 246.4 124.798 246.5 125.298 246.7C125.798 246.9 126.098 247.1 126.398 247.4C126.698 247.7 126.798 248.1 126.898 248.5C126.998 249.2 126.798 249.9 126.298 250.4C125.798 250.9 125.098 251.3 124.098 251.4C123.498 251.5 122.898 251.5 122.298 251.3C121.698 251.1 121.298 250.9 120.898 250.5C120.498 250.1 120.298 249.7 120.198 249.2L121.398 249C121.498 249.5 121.798 249.9 122.198 250.2C122.598 250.5 123.198 250.5 123.898 250.4C124.498 250.3 124.998 250.1 125.298 249.8C125.598 249.5 125.698 249.1 125.598 248.7C125.498 248.3 125.298 247.9 124.998 247.8C124.698 247.7 123.998 247.5 123.098 247.4Z" fill="white"/>
<path d="M126.801 242.2C126.801 242 126.801 241.9 126.901 241.7C127.001 241.6 127.101 241.5 127.401 241.4C127.601 241.4 127.801 241.4 127.901 241.5C128.001 241.6 128.101 241.7 128.201 241.9C128.201 242.1 128.201 242.2 128.101 242.4C128.001 242.6 127.901 242.6 127.601 242.7C127.401 242.7 127.201 242.7 127.101 242.6C127.001 242.5 126.901 242.4 126.801 242.2ZM129.901 250.3L128.801 250.5L127.401 243.9L128.501 243.7L129.901 250.3Z" fill="white"/>
<path d="M133 249.5L131.9 249.8L129.5 240.5L130.6 240.2L133 249.5Z" fill="white"/>
<path d="M136.7 246.8L136.8 241.4L137.9 241.1L137.6 248.3L136.8 248.6L132.5 242.9L133.6 242.6L136.7 246.8Z" fill="white"/>
<path d="M143.801 246.1C142.901 246.4 142.101 246.4 141.401 246.1C140.601 245.8 140.101 245.1 139.701 244.2L139.601 244C139.401 243.4 139.301 242.8 139.301 242.2C139.301 241.6 139.501 241.1 139.801 240.7C140.101 240.3 140.501 239.9 141.001 239.7C141.801 239.4 142.601 239.4 143.201 239.8C143.801 240.2 144.401 240.8 144.801 241.8L145.001 242.2L140.701 243.9C141.001 244.5 141.301 244.9 141.801 245.2C142.301 245.4 142.801 245.5 143.301 245.3C143.701 245.2 144.001 244.9 144.201 244.7C144.401 244.5 144.601 244.1 144.601 243.8L145.501 244.1C145.501 245 144.901 245.7 143.801 246.1ZM141.501 240.5C141.101 240.7 140.801 241 140.601 241.4C140.401 241.8 140.401 242.3 140.601 242.9L143.701 241.7V241.6C143.501 241.1 143.101 240.7 142.801 240.5C142.301 240.4 141.901 240.4 141.501 240.5Z" fill="white"/>
<path d="M148.198 237.8C147.998 237.8 147.898 237.9 147.698 238C146.998 238.3 146.698 238.8 146.698 239.5L148.698 243.8L147.698 244.3L144.898 238.2L145.898 237.7L146.198 238.4C146.298 237.7 146.598 237.2 147.298 236.9C147.498 236.8 147.698 236.8 147.798 236.8L148.198 237.8Z" fill="white"/>
<path d="M159.201 234.8C159.601 235.7 159.701 236.5 159.401 237.2C159.201 238 158.601 238.6 157.801 239.1C156.901 239.7 155.901 239.8 155.001 239.4C154.101 239 153.201 238.4 152.601 237.3L152.201 236.6C151.801 235.9 151.501 235.2 151.401 234.5C151.301 233.8 151.401 233.2 151.701 232.6C152.001 232 152.501 231.5 153.101 231.2C153.901 230.7 154.701 230.5 155.501 230.7C156.301 230.9 156.901 231.3 157.501 232.1L156.501 232.7C156.001 232.1 155.601 231.8 155.101 231.7C154.601 231.6 154.101 231.7 153.601 232C152.901 232.4 152.601 232.9 152.501 233.7C152.401 234.5 152.601 235.2 153.201 236.1L153.701 236.9C154.201 237.7 154.801 238.3 155.401 238.6C156.101 238.9 156.701 238.8 157.301 238.5C157.901 238.2 158.201 237.8 158.401 237.3C158.501 236.9 158.501 236.3 158.201 235.6L159.201 234.8Z" fill="white"/>
<path d="M159.899 233.7C159.499 233.2 159.299 232.6 159.199 232C159.099 231.4 159.199 230.9 159.399 230.4C159.599 229.9 159.899 229.5 160.399 229.1C161.099 228.6 161.899 228.4 162.799 228.6C163.699 228.8 164.399 229.3 164.999 230.1V230.2C165.399 230.7 165.599 231.3 165.699 231.8C165.799 232.3 165.799 232.9 165.499 233.4C165.299 233.9 164.899 234.3 164.499 234.7C163.799 235.2 162.999 235.4 162.099 235.2C161.299 235.1 160.599 234.6 159.899 233.7ZM160.999 233.1C161.399 233.7 161.899 234.1 162.499 234.2C162.999 234.4 163.599 234.3 163.999 233.9C164.499 233.6 164.699 233.1 164.699 232.5C164.699 231.9 164.499 231.3 163.999 230.6C163.599 230 163.099 229.6 162.499 229.5C161.899 229.3 161.399 229.4 160.999 229.8C160.499 230.1 160.299 230.6 160.299 231.2C160.299 231.8 160.499 232.4 160.999 233.1Z" fill="white"/>
<path d="M164.801 225.9L165.401 226.5C165.401 225.7 165.701 225 166.301 224.4C167.401 223.5 168.401 223.6 169.501 224.8L172.401 228.2L171.501 229L168.601 225.6C168.301 225.2 168.001 225 167.601 225C167.301 225 167.001 225.1 166.601 225.4C166.301 225.6 166.101 225.9 166.001 226.3C165.901 226.6 165.901 227 166.001 227.3L169.101 230.9L168.201 231.7L163.801 226.6L164.801 225.9Z" fill="white"/>
<path d="M169.099 219.8L170.199 221L171.099 220.1L171.699 220.7L170.799 221.6L173.699 224.6C173.899 224.8 174.099 224.9 174.199 224.9C174.299 224.9 174.599 224.8 174.799 224.6C174.899 224.5 174.999 224.4 175.099 224.2L175.699 224.9C175.499 225.2 175.399 225.4 175.199 225.6C174.799 226 174.399 226.1 173.999 226.1C173.599 226.1 173.199 225.8 172.799 225.4L169.899 222.4L168.999 223.3L168.399 222.7L169.299 221.8L168.199 220.6L169.099 219.8Z" fill="white"/>
<path d="M175.002 217.5C174.902 217.6 174.702 217.7 174.602 217.9C174.102 218.5 174.002 219 174.302 219.7L177.802 223L177.002 223.8L172.102 219.2L172.902 218.4L173.502 218.9C173.302 218.2 173.502 217.6 173.902 217.1C174.102 216.9 174.202 216.8 174.302 216.8L175.002 217.5Z" fill="white"/>
<path d="M173.501 214.9C173.401 214.8 173.301 214.6 173.301 214.5C173.301 214.3 173.301 214.2 173.501 214C173.601 213.8 173.801 213.7 174.001 213.7C174.201 213.7 174.301 213.8 174.501 213.9C174.601 214 174.701 214.2 174.701 214.3C174.701 214.4 174.701 214.6 174.501 214.8C174.301 215 174.201 215.1 174.001 215.1C173.801 215 173.701 215 173.501 214.9ZM180.801 219.5L180.001 220.4L174.901 216L175.701 215.1L180.801 219.5Z" fill="white"/>
<path d="M183.002 211.4C183.802 212 184.302 212.7 184.502 213.5C184.702 214.3 184.602 215 184.102 215.6C183.602 216.3 182.902 216.6 182.202 216.6L182.802 217.1L182.202 217.9L174.602 212.1L175.302 211.2L178.102 213.4C177.902 212.7 178.102 212 178.602 211.3C179.102 210.7 179.702 210.3 180.502 210.3C181.302 210.3 182.102 210.6 183.002 211.4ZM182.202 212.2C181.602 211.7 181.002 211.5 180.502 211.5C180.002 211.5 179.502 211.7 179.202 212.1C178.702 212.7 178.702 213.4 179.002 214L181.302 215.8C182.102 215.9 182.702 215.7 183.102 215.1C183.402 214.7 183.502 214.2 183.402 213.7C183.302 213.2 182.902 212.7 182.202 212.2Z" fill="white"/>
<path d="M188.4 208C188.6 208.7 188.5 209.4 188 210.1C187.6 210.7 187.1 211 186.6 211.1C186.1 211.2 185.4 211 184.7 210.6L181 208.2L181.6 207.2L185.3 209.6C186.2 210.2 186.8 210.1 187.3 209.4C187.8 208.7 187.8 208 187.4 207.4L183.3 204.7L183.9 203.7L189.6 207.4L189 208.3L188.4 208Z" fill="white"/>
<path d="M184 200.2L185.4 201L186 199.9L186.8 200.3L186.2 201.4L189.8 203.4C190 203.5 190.2 203.6 190.4 203.6C190.6 203.6 190.7 203.4 190.9 203.2C191 203.1 191 202.9 191.1 202.7L191.9 203.2C191.8 203.5 191.7 203.8 191.6 204C191.3 204.4 191 204.7 190.6 204.8C190.2 204.9 189.8 204.8 189.3 204.5L185.7 202.5L185.1 203.6L184.3 203.2L184.9 202.1L183.5 201.3L184 200.2Z" fill="white"/>
<path d="M189.401 200.7C188.801 200.4 188.301 200 188.001 199.6C187.601 199.1 187.401 198.6 187.401 198.1C187.301 197.6 187.401 197 187.701 196.5C188.101 195.7 188.701 195.1 189.501 194.9C190.301 194.7 191.201 194.8 192.201 195.2H192.301C192.901 195.5 193.401 195.9 193.701 196.3C194.101 196.8 194.301 197.3 194.301 197.8C194.401 198.3 194.301 198.9 194.001 199.4C193.601 200.2 193.001 200.8 192.201 201C191.301 201.3 190.501 201.2 189.401 200.7ZM190.101 199.7C190.801 200 191.401 200.1 191.901 200C192.401 199.9 192.901 199.6 193.101 199C193.401 198.5 193.301 198 193.101 197.4C192.801 196.9 192.301 196.5 191.601 196.1C190.901 195.8 190.301 195.7 189.801 195.8C189.201 195.9 188.801 196.2 188.601 196.8C188.401 197.3 188.401 197.8 188.601 198.3C188.801 198.9 189.301 199.3 190.101 199.7Z" fill="white"/>
<path d="M191.8 189.9C191.7 190.1 191.6 190.2 191.5 190.4C191.2 191.1 191.3 191.7 191.8 192.2L196.2 194L195.8 195.1L189.5 192.6L189.9 191.6L190.6 191.9C190.2 191.3 190.1 190.7 190.4 190.1C190.5 189.9 190.6 189.7 190.7 189.7L191.8 189.9Z" fill="white"/>
<defs>
<filter id="filter0_ii" x="0" y="50" width="218" height="218" filterUnits="userSpaceOnUse" color-interpolation-filters="sRGB">
<feFlood flood-opacity="0" result="BackgroundImageFix"/>
<feBlend mode="normal" in="SourceGraphic" in2="BackgroundImageFix" result="shape"/>
<feColorMatrix in="SourceAlpha" type="matrix" values="0 0 0 0 0 0 0 0 0 0 0 0 0 0 0 0 0 0 127 0" result="hardAlpha"/>
<feOffset/>
<feGaussianBlur stdDeviation="4"/>
<feComposite in2="hardAlpha" operator="arithmetic" k2="-1" k3="1"/>
<feColorMatrix type="matrix" values="0 0 0 0 0.9875 0 0 0 0 0.722843 0 0 0 0 0.386771 0 0 0 1 0"/>
<feBlend mode="normal" in2="shape" result="effect1_innerShadow"/>
<feColorMatrix in="SourceAlpha" type="matrix" values="0 0 0 0 0 0 0 0 0 0 0 0 0 0 0 0 0 0 127 0" result="hardAlpha"/>
<feOffset/>
<feGaussianBlur stdDeviation="6"/>
<feComposite in2="hardAlpha" operator="arithmetic" k2="-1" k3="1"/>
<feColorMatrix type="matrix" values="0 0 0 0 0 0 0 0 0 0 0 0 0 0 0 0 0 0 0.2 0"/>
<feBlend mode="normal" in2="effect1_innerShadow" result="effect2_innerShadow"/>
</filter>
<filter id="filter1_i" x="59" y="109" width="100" height="100" filterUnits="userSpaceOnUse" color-interpolation-filters="sRGB">
<feFlood flood-opacity="0" result="BackgroundImageFix"/>
<feBlend mode="normal" in="SourceGraphic" in2="BackgroundImageFix" result="shape"/>
<feColorMatrix in="SourceAlpha" type="matrix" values="0 0 0 0 0 0 0 0 0 0 0 0 0 0 0 0 0 0 127 0" result="hardAlpha"/>
<feOffset/>
<feGaussianBlur stdDeviation="6"/>
<feComposite in2="hardAlpha" operator="arithmetic" k2="-1" k3="1"/>
<feColorMatrix type="matrix" values="0 0 0 0 0.34902 0 0 0 0 0.360784 0 0 0 0 0.364706 0 0 0 1 0"/>
<feBlend mode="normal" in2="shape" result="effect1_innerShadow"/>
</filter>
<linearGradient id="paint0_linear" x1="51.775" y1="57.4938" x2="322.848" y2="328.729" gradientUnits="userSpaceOnUse">
<stop stop-color="white"/>
<stop offset="1" stop-color="#969696" stop-opacity="0"/>
</linearGradient>
<linearGradient id="paint1_linear" x1="174.52" y1="213.6" x2="38.8" y2="107.52" gradientUnits="userSpaceOnUse">
<stop stop-color="white"/>
<stop offset="1" stop-color="#383838" stop-opacity="0"/>
</linearGradient>
<linearGradient id="paint2_linear" x1="194.68" y1="230.4" x2="17.2" y2="91.68" gradientUnits="userSpaceOnUse">
<stop stop-color="white"/>
<stop offset="1" stop-color="#383838" stop-opacity="0"/>
</linearGradient>
</defs>
</svg>
