<svg width="218" height="266" viewBox="0 0 218 266" fill="none" xmlns="http://www.w3.org/2000/svg">
<path d="M86.0059 29.7983C84.9045 29.7983 84.0234 30.669 84.0234 31.7573V50.0412C84.0234 51.1295 84.9045 52.0002 86.0059 52.0002H131.381C132.483 52.0002 133.364 51.1295 133.364 50.0412V31.7573C133.364 30.669 132.483 29.7983 131.381 29.7983H86.0059ZM129.399 44.1642C129.399 45.2526 128.518 46.1232 127.416 46.1232H90.191C89.0896 46.1232 88.2086 45.2526 88.2086 44.1642V35.893C88.2086 34.8046 89.0896 33.934 90.191 33.934H127.416C128.518 33.934 129.399 34.8046 129.399 35.893V44.1642Z" fill="#BABABA"/>
<path d="M140.045 0L114.918 37.8775H127.37L155.388 0H140.045Z" fill="#0FA711"/>
<path d="M127.377 0L102.473 37.8775H114.925L140.052 0H127.377Z" fill="white"/>
<path d="M114.924 0L90.0195 37.8775H102.472L127.376 0H114.924Z" fill="#FF7600"/>
<path d="M90.0177 37.8775H102.47L77.343 0H62L90.0177 37.8775Z" fill="#FF7600"/>
<path d="M102.471 37.8775H114.923L90.0184 0H77.3438L102.471 37.8775Z" fill="white"/>
<path opacity="0.5" d="M110.695 6.27979L104.469 15.6931L119.145 37.8818H127.372L129.596 34.744L110.695 6.27979Z" fill="#3E4347"/>
<path d="M114.924 37.8775H127.376L102.472 0H90.0195L114.924 37.8775Z" fill="#0FA711"/>
<g filter="url(#filter0_ii)">
<path d="M218 157C218 217.199 169.199 266 109 266C48.801 266 0 217.199 0 157C0 96.801 48.801 48 109 48C169.199 48 218 96.801 218 157Z" fill="#D5D5D5" fill-opacity="0.8"/>
</g>
<path d="M214.5 157C214.5 215.266 167.266 262.5 109 262.5C50.734 262.5 3.5 215.266 3.5 157C3.5 98.734 50.734 51.5 109 51.5C167.266 51.5 214.5 98.734 214.5 157Z" stroke="#DFDFDF" stroke-width="7"/>
<path d="M214.5 157C214.5 215.266 167.266 262.5 109 262.5C50.734 262.5 3.5 215.266 3.5 157C3.5 98.734 50.734 51.5 109 51.5C167.266 51.5 214.5 98.734 214.5 157Z" stroke="url(#paint0_linear)" stroke-width="7"/>
<g filter="url(#filter1_i)">
<path d="M196 157C196 205.049 157.049 244 109 244C60.9512 244 22 205.049 22 157C22 108.951 60.9512 70 109 70C157.049 70 196 108.951 196 157Z" fill="#A0A0A0"/>
</g>
<path d="M196 157C196 205.049 157.049 244 109 244C60.9512 244 22 205.049 22 157C22 108.951 60.9512 70 109 70C157.049 70 196 108.951 196 157Z" stroke="#BABABA" stroke-width="30"/>
<path d="M109.001 80C66.5595 80 32 114.357 32 157.001C32 199.645 66.3574 234.002 109.001 234.002C151.645 234.002 186.002 199.645 186.002 157.001C186.002 114.357 151.442 80 109.001 80ZM93.6412 87.4778C93.8433 87.4778 93.8433 87.4778 93.6412 87.4778C95.0559 90.5093 97.6833 92.3282 100.311 91.7219C102.938 91.3177 105.565 89.4988 105.767 85.861C106.172 85.861 106.576 85.861 106.98 85.861C106.98 96.7745 106.172 108.496 104.959 121.229C104.757 122.441 104.757 123.654 104.757 124.867C104.353 123.856 103.948 122.644 103.544 121.229C99.3001 110.517 95.4601 98.9976 92.4286 87.6799C93.0349 87.6799 93.237 87.4778 93.6412 87.4778ZM76.0583 93.743C78.2814 96.3703 81.1109 97.3808 83.5361 96.1682C86.3655 94.9556 87.9823 92.1261 87.376 89.0946C87.7802 88.8925 88.1844 88.8925 88.5886 88.6904C91.216 99.1997 93.8433 110.72 95.8643 123.452C96.0664 124.867 96.2685 125.877 96.6727 127.09C96.0664 126.079 95.4601 125.069 94.4496 123.856C87.5781 114.559 80.9088 104.454 75.0478 94.3493C75.2499 94.1472 75.6541 93.9451 76.0583 93.743ZM60.4964 104.656C63.3259 106.475 66.3574 106.678 68.3784 105.061C69.9952 103.848 70.8036 102.029 70.8036 100.21C70.8036 99.1997 70.6015 98.1892 69.9952 97.3808C70.3994 97.1787 70.6015 96.9766 71.0057 96.7745C76.4625 106.071 81.7172 116.783 87.1739 128.302C87.7802 129.515 88.3865 130.526 88.7907 131.536C87.9823 130.728 86.9718 129.919 85.9613 129.111C77.0688 121.633 67.9742 113.549 59.688 105.465C59.8901 105.061 60.2943 104.859 60.4964 104.656ZM48.3703 119.006C48.5724 119.006 48.5724 119.006 48.3703 119.006C51.6039 120.016 54.6355 119.612 56.0502 117.389C56.4544 116.783 57.4649 115.166 57.4649 113.549C57.4649 112.538 57.0607 110.922 55.8481 109.507C56.0502 109.305 56.4544 108.901 56.6565 108.699C64.3364 116.378 72.2184 125.271 80.5046 134.972C81.313 135.982 82.1214 136.791 82.9298 137.599C81.9193 136.993 80.7067 136.589 79.494 135.982C68.9847 131.132 58.0712 125.675 47.764 120.016C47.9661 119.612 48.1682 119.41 48.3703 119.006ZM40.4883 135.982C40.4883 135.982 40.4883 135.78 40.4883 135.982C43.924 136.184 46.5514 134.972 47.5619 132.344C47.764 131.738 47.9661 130.93 47.9661 129.717C47.9661 128.505 47.5619 126.281 45.1367 124.665C45.3388 124.26 45.5409 124.058 45.743 123.654C55.0397 129.111 65.1448 135.578 75.452 142.854C76.4625 143.662 77.6751 144.269 78.4835 144.875C77.473 144.673 76.0583 144.471 74.6436 144.066C63.3259 142.45 51.4018 140.024 39.882 136.993C40.2862 136.791 40.4883 136.387 40.4883 135.982ZM37.2547 154.374C37.2547 154.374 37.2547 154.172 37.2547 154.374C40.4883 153.767 42.9135 151.746 43.1156 149.119C43.1156 148.917 43.1156 148.715 43.1156 148.311C43.1156 145.885 41.903 143.258 38.8715 142.248C38.8715 141.843 39.0736 141.439 39.0736 141.035C49.5829 143.864 60.9006 147.704 72.8247 151.948C74.0373 152.353 75.2499 152.757 76.2604 152.959C75.0478 152.959 73.8352 153.161 72.4205 153.161C61.1027 154.576 48.7745 155.182 37.0526 155.384C37.2547 155.182 37.2547 154.778 37.2547 154.374ZM38.8715 173.169C38.8715 172.967 38.8715 172.967 38.8715 173.169C41.4988 171.754 43.1156 169.733 43.1156 167.308C43.1156 167.106 43.1156 166.702 43.1156 166.5C42.7114 163.872 40.8925 161.245 37.2547 161.043C37.2547 160.639 37.2547 160.235 37.2547 159.83C48.1682 159.83 59.8901 160.437 72.6226 161.447C74.0373 161.649 75.2499 161.649 76.2604 161.649C75.2499 162.054 74.0373 162.458 72.6226 162.862C61.9111 167.106 50.3913 170.946 39.0736 174.18C39.0736 173.978 39.0736 173.573 38.8715 173.169ZM45.3387 190.752C45.3387 190.752 45.3387 190.55 45.3387 190.752C47.1577 189.135 48.1682 187.316 48.1682 185.295C48.1682 184.487 47.9661 183.881 47.764 183.274C46.7535 180.849 44.3282 178.828 40.6904 179.636C40.4883 179.232 40.4883 178.828 40.2862 178.424C50.7955 175.594 62.3153 173.169 74.8457 170.946C76.2604 170.744 77.2709 170.34 78.4835 170.138C77.473 170.744 76.4625 171.35 75.2499 172.361C65.9532 179.232 55.8481 185.902 45.743 191.965C45.743 191.358 45.5409 191.156 45.3387 190.752ZM56.2523 206.112C57.2628 204.495 57.667 203.08 57.667 201.463C57.667 200.251 57.2628 199.038 56.4544 198.23C54.8376 196.209 51.806 194.794 48.5724 196.411C48.3703 196.007 48.1682 195.805 47.9661 195.4C57.2628 189.944 67.9742 184.487 79.494 179.03C80.7067 178.424 81.7172 177.818 82.7277 177.413C81.9193 178.222 81.1109 179.232 80.3024 180.243C73.2289 189.337 65.1448 198.432 57.0607 206.92C56.8586 206.718 56.4544 206.516 56.2523 206.112ZM70.6015 218.036C70.8036 216.823 71.0057 215.813 71.0057 214.802C71.0057 212.781 70.1973 211.164 68.7826 210.356C66.7616 208.941 63.528 208.133 60.9006 210.76C60.4964 210.558 60.2943 210.154 60.0922 209.952C67.7721 202.272 76.4625 194.188 86.1634 186.104C87.1739 185.295 87.9823 184.487 88.7907 183.678C88.1844 184.689 87.7802 185.902 87.1739 187.114C82.7277 197.624 77.473 208.537 71.612 218.642C71.4099 218.44 71.0057 218.238 70.6015 218.036ZM87.5781 225.918C87.7802 222.482 86.3655 219.855 83.9403 218.844C81.5151 218.036 78.2814 218.238 76.2604 221.27C75.8562 221.067 75.6541 220.865 75.2499 220.663C80.7066 211.367 86.9718 201.261 94.2475 190.752C95.0559 189.539 95.6622 188.529 96.2685 187.721C96.0664 188.731 95.8643 190.146 95.4601 191.56C93.8433 202.878 91.4181 214.802 88.5886 226.322C88.3865 226.12 87.9823 226.12 87.5781 225.918ZM105.969 228.949C105.363 225.716 103.342 223.291 100.715 223.088C98.0874 222.886 95.0559 223.897 94.0454 227.333C93.6412 227.333 93.237 227.13 92.8328 227.13C95.6622 216.621 99.3001 205.303 103.544 193.379C103.948 192.167 104.353 190.954 104.555 189.944C104.555 191.156 104.757 192.369 104.757 193.784C106.172 205.101 106.98 217.43 107.182 229.151C106.778 229.151 106.374 229.151 105.969 228.949ZM178.928 142.45C176.301 143.864 174.482 145.885 174.482 148.311C174.482 148.513 174.482 148.917 174.482 149.119C174.886 151.746 176.705 154.374 180.343 154.576C180.343 154.98 180.343 155.384 180.343 155.788C169.632 155.788 157.708 154.98 144.975 153.767C143.56 153.565 142.348 153.565 141.337 153.565C142.348 153.161 143.56 152.757 144.975 152.353C155.687 148.108 167.206 144.269 178.524 141.237C178.726 141.641 178.726 142.045 178.928 142.45ZM172.663 124.867C172.663 124.867 172.663 125.069 172.663 124.867C170.844 126.484 169.834 128.302 169.834 130.323C169.834 131.132 170.036 131.738 170.238 132.344C171.248 134.77 173.674 136.791 177.312 136.184C177.514 136.589 177.514 136.993 177.716 137.397C167.206 140.024 155.485 142.45 142.954 144.673C141.539 144.875 140.529 145.077 139.316 145.481C140.327 144.875 141.337 144.269 142.55 143.46C151.847 136.387 161.952 129.717 172.057 123.856C172.259 124.26 172.461 124.463 172.663 124.867ZM162.154 109.709C161.143 111.326 160.537 112.943 160.537 114.357C160.537 115.57 160.941 116.783 161.75 117.591C163.366 119.612 166.196 121.027 169.43 119.41C169.632 119.814 169.834 120.016 170.036 120.42C160.537 125.675 150.028 131.132 138.306 136.184C137.093 136.791 136.083 137.195 135.072 137.801C135.881 136.993 136.689 135.982 137.7 134.972C144.975 126.079 153.059 116.985 161.345 108.699C161.548 109.103 161.952 109.305 162.154 109.709ZM147.603 97.1787C147.603 97.1787 147.805 97.3808 147.603 97.1787C147.4 98.3913 146.996 99.4018 146.996 100.412C146.996 102.231 147.805 103.848 149.219 104.859C151.24 106.273 154.474 107.082 157.101 104.656C157.303 104.859 157.708 105.263 157.91 105.465C150.23 113.145 141.337 121.027 131.434 129.111C130.424 129.919 129.413 130.728 128.807 131.536C129.413 130.526 129.818 129.515 130.424 128.1C135.072 117.591 140.529 106.678 146.39 96.5724C146.996 96.7745 147.198 96.9766 147.603 97.1787ZM130.626 89.2967C130.828 89.2967 130.828 89.2967 130.626 89.2967C130.424 92.7324 131.839 95.3598 134.264 96.3703C136.689 97.3808 139.923 97.1787 141.944 93.9451C142.348 94.1472 142.55 94.3493 142.954 94.5514C137.497 103.848 131.03 113.751 123.552 124.26C122.744 125.271 122.138 126.281 121.531 127.292C121.733 126.281 122.138 124.867 122.34 123.452C124.159 112.134 126.584 100.21 129.413 88.8925C130.02 88.8925 130.222 89.0946 130.626 89.2967ZM112.437 85.861C112.437 85.861 112.639 85.861 112.437 85.861C113.043 89.0946 115.064 91.5198 117.691 91.7219C120.319 91.924 123.35 90.9135 124.563 87.4778C124.967 87.4778 125.371 87.6799 125.775 87.6799C122.946 98.1892 119.106 109.507 114.66 121.229C114.256 122.441 113.851 123.654 113.447 124.665C113.447 123.452 113.245 122.239 113.245 120.825C112.033 109.507 111.224 97.1787 111.224 85.4568C111.628 85.861 112.033 85.861 112.437 85.861ZM124.361 227.333C122.744 224.301 120.319 222.684 117.691 223.088C115.064 223.493 112.437 225.312 112.235 228.949C111.83 228.949 111.426 228.949 111.022 228.949C111.022 218.036 111.628 206.314 112.841 193.581C113.043 192.369 113.043 191.358 113.043 190.348C113.043 190.146 113.043 190.146 113.043 189.944C113.447 190.954 113.851 192.167 114.256 193.581C118.5 204.293 122.34 215.813 125.573 227.13C125.169 227.333 124.765 227.333 124.361 227.333ZM141.742 221.067C141.742 221.067 141.539 221.067 141.742 221.067C139.518 218.44 136.689 217.43 134.264 218.642C131.434 219.855 129.818 222.684 130.626 225.716C130.222 225.918 129.818 225.918 129.413 226.12C126.584 215.611 124.159 204.091 122.138 191.56C121.936 190.146 121.733 189.135 121.329 187.923C121.936 188.933 122.542 189.944 123.552 191.156C130.424 200.453 137.093 210.558 142.954 220.663C142.348 220.865 142.146 220.865 141.742 221.067ZM157.303 210.154C157.303 210.356 157.303 210.356 157.303 210.154C154.474 208.335 151.442 208.133 149.421 209.75C147.805 210.962 146.996 212.781 146.996 214.6C146.996 215.611 147.198 216.621 147.805 217.43C147.4 217.632 147.198 217.834 146.794 218.036C141.337 208.739 135.881 198.028 130.626 186.508C130.02 185.295 129.413 184.285 129.009 183.274C129.818 184.083 130.828 184.891 131.839 185.699C140.933 192.773 150.028 200.857 158.314 209.143C157.91 209.75 157.708 209.952 157.303 210.154ZM169.227 196.007C169.227 196.007 169.227 196.209 169.227 196.007C165.994 194.996 162.962 195.4 161.548 197.624C161.143 198.23 160.133 199.847 160.133 201.463C160.133 202.474 160.537 204.091 161.75 205.506C161.548 205.708 161.143 206.112 160.941 206.314C153.261 198.634 145.379 189.742 137.295 180.041C136.487 179.03 135.678 178.02 134.87 177.413C135.881 178.02 137.093 178.424 138.306 179.03C148.815 183.678 159.729 189.135 170.036 194.794C169.632 195.4 169.43 195.603 169.227 196.007ZM177.109 179.03C177.109 179.232 177.109 179.232 177.109 179.03C173.674 178.828 171.046 180.041 170.036 182.668C169.834 183.274 169.632 184.083 169.632 185.295C169.632 186.508 170.036 188.731 172.461 190.348C172.259 190.752 172.057 190.954 171.855 191.358C162.558 185.902 152.453 179.434 142.146 172.159C141.135 171.35 139.923 170.744 139.114 170.138C140.125 170.34 141.539 170.744 142.954 170.946C154.272 172.563 166.196 174.988 177.514 178.02C177.312 178.424 177.312 178.828 177.109 179.03ZM180.343 160.841C177.109 161.447 174.684 163.266 174.482 165.893C174.482 166.096 174.482 166.298 174.482 166.702C174.482 169.127 175.695 171.754 178.726 172.765C178.726 173.169 178.524 173.573 178.524 173.978C168.015 171.148 156.697 167.51 144.773 163.064C143.56 162.66 142.348 162.256 141.337 162.054C142.55 162.054 143.763 161.851 145.177 161.851C156.495 160.639 168.823 159.83 180.545 159.83C180.545 160.033 180.343 160.437 180.343 160.841Z" fill="#D1D1D1"/>
<circle cx="109" cy="157" r="77" stroke="url(#paint1_linear)" stroke-width="2"/>
<circle cx="109" cy="157" r="101" stroke="url(#paint2_linear)" stroke-width="2"/>
<g filter="url(#filter2_i)">
<circle cx="109" cy="157" r="50" fill="#AEAEAE"/>
</g>
<path fill-rule="evenodd" clip-rule="evenodd" d="M75.6891 149.366C75.0206 150.034 75.0602 151.12 75.6313 151.873C76.8239 153.447 77.5316 155.408 77.5316 157.535C77.5316 159.508 76.9226 161.338 75.8825 162.849C75.3625 163.604 75.3512 164.648 75.9996 165.296C76.6533 165.95 77.7241 165.953 78.2831 165.217C79.9033 163.083 80.8649 160.421 80.8649 157.535C80.8649 154.439 79.7582 151.601 77.9189 149.396C77.3474 148.711 76.3201 148.735 75.6891 149.366ZM81.295 168.247C80.7145 168.958 80.7092 170.006 81.3586 170.655C82.011 171.308 83.0753 171.31 83.6701 170.604C86.646 167.074 88.4393 162.514 88.4393 157.535C88.4393 152.357 86.4998 147.632 83.3076 144.047C82.7062 143.372 81.6671 143.388 81.0276 144.027C80.3661 144.689 80.3871 145.761 80.9979 146.469C83.558 149.439 85.106 153.306 85.106 157.535C85.106 161.598 83.6773 165.326 81.295 168.247ZM87.0569 174.004C86.453 174.696 86.4496 175.746 87.0995 176.396C87.7514 177.048 88.8129 177.05 89.4241 176.36C93.8623 171.348 96.5566 164.756 96.5566 157.535C96.5566 150.12 93.7154 143.369 89.0623 138.31C88.4466 137.641 87.4026 137.652 86.7596 138.295C86.1012 138.954 86.1152 140.02 86.7402 140.711C90.7691 145.159 93.2233 151.061 93.2233 157.535C93.2233 163.839 90.8973 169.599 87.0569 174.004Z" fill="white"/>
<mask id="mask0" mask-type="alpha" maskUnits="userSpaceOnUse" x="59" y="107" width="100" height="100">
<circle cx="109" cy="157" r="50" fill="#020A0E"/>
</mask>
<g mask="url(#mask0)">
<path fill-rule="evenodd" clip-rule="evenodd" d="M129.609 178.434C130.744 178.065 131.757 177.369 132.551 176.399L139.604 201.405H174.614V110.334H133.542V111.763V138.14C130.415 136.036 127.253 135.115 124.251 135.15C120.5 135.194 117.141 136.728 114.553 139.047C109.454 143.617 107.049 151.589 110.896 157.866C114.299 163.418 117.254 167.986 119.36 171.167C120.413 172.758 121.254 174.002 121.832 174.85C122.121 175.274 122.345 175.599 122.496 175.818C122.572 175.927 122.63 176.011 122.669 176.067L122.729 176.153C122.747 176.178 122.765 176.203 122.784 176.226C124.568 178.457 127.234 179.205 129.609 178.434ZM125.764 163.903C124.179 162.318 123.286 160.17 123.279 157.929C123.264 156.256 123.745 154.617 124.659 153.217C125.574 151.816 126.882 150.718 128.419 150.058C127.933 149.09 127.134 148.315 126.152 147.859C125.169 147.403 124.061 147.294 123.008 147.548C121.956 147.803 121.02 148.407 120.355 149.261C119.689 150.116 119.333 151.17 119.343 152.253C119.343 152.608 119.202 152.949 118.951 153.2C118.7 153.451 118.36 153.592 118.005 153.592C117.65 153.592 117.309 153.451 117.058 153.2C116.807 152.949 116.666 152.608 116.666 152.253C116.67 150.401 117.36 148.616 118.603 147.242C119.845 145.869 121.552 145.004 123.395 144.814C125.237 144.624 127.085 145.124 128.581 146.216C130.077 147.308 131.116 148.915 131.498 150.727C131.562 151.071 131.493 151.426 131.304 151.72C131.115 152.014 130.82 152.224 130.48 152.307C129.111 152.636 127.909 153.453 127.1 154.605C126.29 155.757 125.928 157.164 126.083 158.564C126.237 159.963 126.897 161.258 127.938 162.206C128.979 163.154 130.331 163.689 131.738 163.712C132.094 163.712 132.434 163.853 132.685 164.104C132.936 164.355 133.077 164.695 133.077 165.05C133.07 165.403 132.927 165.74 132.677 165.989C132.428 166.239 132.091 166.382 131.738 166.389C129.497 166.382 127.349 165.488 125.764 163.903Z" fill="white"/>
</g>
<path d="M50.8984 81.3002L53.3984 79.4002C53.6984 79.2002 53.9984 79.0002 54.3984 78.9002C54.6984 78.8002 54.9985 78.7002 55.2985 78.7002C55.5985 78.7002 55.8985 78.8002 56.1985 78.9002C56.4985 79.0002 56.6984 79.3002 56.9984 79.6002C57.2984 80.0002 57.3984 80.4002 57.3984 80.9002C57.3984 81.3002 57.1984 81.8002 56.8984 82.1002C57.0984 82.0002 57.3984 81.9002 57.5984 81.8002C57.8984 81.8002 58.0984 81.8002 58.3984 81.8002C58.6984 81.9002 58.8984 82.0002 59.0984 82.1002C59.2984 82.3002 59.4985 82.4002 59.6985 82.7002C59.8985 83.0002 60.0984 83.4002 60.0984 83.7002C60.1985 84.0002 60.0984 84.4002 59.9984 84.7002C59.8984 85.0002 59.6984 85.4002 59.4984 85.7002C59.2984 86.0002 58.9984 86.3002 58.5984 86.6002L56.0984 88.4002L50.8984 81.3002ZM54.0984 83.6002L55.3984 82.6002C55.5984 82.5002 55.6984 82.3002 55.8984 82.2002C55.9984 82.0002 56.0985 81.9002 56.1985 81.7002C56.2985 81.5002 56.2985 81.3002 56.1985 81.1002C56.1985 80.9002 56.0984 80.7002 55.8984 80.5002C55.6984 80.2002 55.3984 80.0002 55.0984 80.0002C54.7984 79.9002 54.3984 80.0002 53.9984 80.3002L52.4984 81.4002L54.0984 83.6002ZM56.5984 87.0002L57.9984 85.9002C58.0984 85.8002 58.2984 85.7002 58.4984 85.5002C58.6984 85.3002 58.7984 85.1002 58.8984 84.9002C58.9984 84.7002 58.9984 84.5002 58.9984 84.2002C58.9984 84.0002 58.8985 83.7002 58.6985 83.5002C58.3985 83.1002 57.9984 82.9002 57.5984 82.8002C57.1984 82.8002 56.6985 83.0002 56.1985 83.3002L54.6985 84.4002L56.5984 87.0002Z" fill="white"/>
<path d="M57.0977 76.1L58.0977 75.5L60.4977 79.4C60.4977 79 60.4977 78.7 60.6977 78.3C60.8977 77.9 61.1977 77.6 61.5977 77.4C61.7977 77.2 62.0976 77.1 62.3976 77.1C62.6976 77 62.8977 77 63.1977 77.1C63.4977 77.2 63.6976 77.3 63.9977 77.5C64.2977 77.7 64.4977 78 64.6977 78.3L66.6977 81.6L65.6977 82.2L63.7977 79.2C63.6977 79 63.4977 78.8 63.2977 78.6C63.0977 78.5 62.9977 78.4 62.7977 78.3C62.5977 78.3 62.4977 78.3 62.2977 78.3C62.0977 78.3 61.9977 78.4 61.7977 78.5C61.5977 78.6 61.3977 78.8 61.2977 78.9C61.1977 79.1 61.0977 79.3 60.9977 79.5C60.9977 79.7 60.9977 80 60.9977 80.2C61.0977 80.5 61.1976 80.7 61.3976 81L62.9977 83.6L61.9977 84.2L57.0977 76.1Z" fill="white"/>
<path d="M65.5977 76.0002C65.7977 75.6002 65.9977 75.2002 66.2977 74.9002C66.5977 74.6002 66.9977 74.3002 67.2977 74.1002C67.6977 73.9002 68.0976 73.8002 68.3976 73.7002C68.6976 73.7002 68.9977 73.7002 69.2977 73.7002C69.5977 73.7002 69.7977 73.9002 69.9977 74.1002C70.1976 74.3002 70.3977 74.5002 70.4977 74.7002L71.8976 77.4002C71.9976 77.6002 72.0977 77.8002 72.1977 77.9002C72.2977 78.1002 72.3977 78.2002 72.4977 78.3002L71.5977 78.8002C71.3977 78.5002 71.2977 78.3002 71.0977 78.0002C71.0977 78.5002 70.8977 78.8002 70.6977 79.2002C70.4977 79.5002 70.0977 79.8002 69.6977 80.0002C69.4977 80.1002 69.1976 80.2002 68.8976 80.3002C68.5976 80.4002 68.3977 80.3002 68.0977 80.3002C67.8977 80.3002 67.5976 80.2002 67.3976 80.0002C67.1976 79.9002 66.9976 79.6002 66.8976 79.4002C66.6976 79.1002 66.5977 78.7002 66.6977 78.4002C66.6977 78.1002 66.7977 77.8002 66.9977 77.5002C67.1977 77.2002 67.4977 76.9002 67.7977 76.7002C68.0977 76.5002 68.4976 76.2002 68.8976 76.0002L69.5977 75.6002L69.4977 75.4002C69.3977 75.3002 69.2977 75.1002 69.1977 75.0002C69.0977 74.9002 68.8977 74.8002 68.7977 74.8002C68.6977 74.8002 68.4977 74.7002 68.2977 74.7002C68.0977 74.7002 67.8977 74.8002 67.6977 74.9002C67.4977 75.0002 67.2977 75.1002 67.1977 75.2002C67.0977 75.3002 66.9976 75.4002 66.8976 75.5002C66.7976 75.6002 66.6977 75.7002 66.6977 75.9002C66.5977 76.0002 66.5977 76.1002 66.4977 76.3002L65.5977 76.0002ZM69.5977 76.7002C69.3977 76.8002 69.0976 77.0002 68.8976 77.1002C68.6976 77.2002 68.4977 77.4002 68.2977 77.6002C68.0977 77.8002 67.9977 78.0002 67.9977 78.2002C67.8977 78.4002 67.9977 78.6002 68.0977 78.8002C68.2977 79.1002 68.4977 79.3002 68.7977 79.3002C69.0977 79.3002 69.3977 79.3002 69.7977 79.1002C70.0977 79.0002 70.2976 78.8002 70.3976 78.6002C70.4976 78.4002 70.5977 78.2002 70.6977 78.0002C70.6977 77.8002 70.6977 77.6002 70.6977 77.4002C70.6977 77.2002 70.5977 77.0002 70.4977 76.8002L70.2977 76.5002L69.5977 76.7002Z" fill="white"/>
<path d="M74.7985 72.4998C74.5985 72.3998 74.3985 72.2999 74.1985 72.2999C73.9985 72.2999 73.6985 72.2999 73.4985 72.3999C73.2985 72.4999 73.0984 72.6999 72.8984 72.7999C72.6984 72.8999 72.6985 73.1999 72.7985 73.3999C72.8985 73.5999 72.9985 73.6998 73.0985 73.6998C73.1985 73.7998 73.3985 73.7999 73.5985 73.7999C73.7985 73.7999 73.8985 73.7998 74.0985 73.6998C74.2985 73.6998 74.3985 73.5998 74.5985 73.5998C74.7985 73.5998 75.0985 73.4998 75.2985 73.4998C75.4985 73.4998 75.6984 73.4998 75.8984 73.5998C76.0984 73.6998 76.2984 73.7999 76.3984 73.8999C76.5984 73.9999 76.6985 74.1998 76.7985 74.4998C76.8985 74.7998 76.9984 75.0999 76.8984 75.3999C76.8984 75.6999 76.7985 75.8998 76.5985 76.1998C76.4985 76.3998 76.2985 76.5999 75.9985 76.7999C75.7985 76.9999 75.4985 77.0998 75.1985 77.1998C74.6985 77.3998 74.2984 77.4998 73.8984 77.4998C73.4984 77.4998 73.0985 77.3998 72.5985 77.0998L73.0985 76.0998C73.2985 76.1998 73.5984 76.2999 73.8984 76.2999C74.1984 76.2999 74.4985 76.2998 74.7985 76.1998C74.8985 76.0998 75.0985 76.0998 75.1985 75.9998C75.2985 75.8998 75.3985 75.7998 75.4985 75.6998C75.5985 75.5998 75.5985 75.4999 75.6985 75.3999C75.6985 75.2999 75.6985 75.1998 75.6985 74.9998C75.5985 74.7998 75.4984 74.6998 75.3984 74.6998C75.2984 74.5998 75.0984 74.5998 74.8984 74.5998C74.6984 74.5998 74.5984 74.5998 74.3984 74.5998C74.1984 74.5998 74.0985 74.6998 73.9985 74.6998C73.7985 74.6998 73.4985 74.7999 73.2985 74.7999C73.0985 74.7999 72.7985 74.7999 72.5985 74.7999C72.3985 74.7999 72.1985 74.6998 71.9985 74.4998C71.7985 74.3998 71.6985 74.1999 71.5985 73.8999C71.4985 73.5999 71.3985 73.2998 71.4985 73.0998C71.4985 72.7998 71.5985 72.5999 71.6985 72.3999C71.7985 72.1999 71.9985 71.9999 72.1985 71.7999C72.3985 71.5999 72.6984 71.4999 72.8984 71.3999C73.2984 71.1999 73.6985 71.1998 74.0985 71.0998C74.4985 70.9998 74.8985 71.1999 75.1985 71.3999L74.7985 72.4998Z" fill="white"/>
<path d="M75.3984 66.6998L76.4984 66.2998L77.9984 70.5998C77.9984 70.1998 78.1984 69.8998 78.4984 69.5998C78.7984 69.2998 79.0984 69.0998 79.5984 68.8998C79.8984 68.7998 80.1984 68.7998 80.3984 68.7998C80.5984 68.7998 80.8985 68.7998 81.1985 68.9998C81.4985 69.0998 81.6984 69.2998 81.8984 69.4998C82.0984 69.6998 82.2984 69.9998 82.3984 70.3998L83.6985 74.0998L82.5984 74.4998L81.3984 71.0998C81.2984 70.7998 81.1984 70.5998 81.0984 70.4998C80.9984 70.2998 80.7985 70.1998 80.6985 70.0998C80.4985 69.9998 80.3985 69.9998 80.1985 69.9998C79.9985 69.9998 79.8985 69.9998 79.6985 70.0998C79.4985 70.1998 79.2984 70.2998 79.0984 70.3998C78.8984 70.4998 78.7985 70.6998 78.6985 70.8998C78.5985 71.0998 78.5984 71.2998 78.5984 71.5998C78.5984 71.8998 78.6985 72.1998 78.7985 72.4998L79.7985 75.3998L78.6985 75.7998L75.3984 66.6998Z" fill="white"/>
<path d="M82.6 65.8002C82.5 65.6002 82.6 65.4002 82.7 65.2002C82.8 65.0002 83 64.9002 83.2 64.8002C83.4 64.7002 83.6 64.8002 83.8 64.9002C84 65.0002 84.1 65.2002 84.2 65.4002C84.3 65.6002 84.2 65.8002 84.1 66.0002C84 66.2002 83.8 66.3002 83.6 66.4002C83.4 66.5002 83.2 66.4002 83 66.3002C82.8 66.2002 82.7 66.0002 82.6 65.8002ZM83.4 67.8002L84.5 67.5002L86.2 73.3002L85.1 73.7002L83.4 67.8002Z" fill="white"/>
<path d="M86.3984 67L87.4984 66.7L87.6985 67.6C87.7985 67.3 87.9985 66.9 88.2985 66.7C88.5985 66.5 88.9984 66.2 89.3984 66.1C89.6984 66 89.9985 66 90.1985 66C90.4985 66 90.6984 66.1 90.9984 66.3C91.1984 66.4 91.3984 66.6 91.5984 66.9C91.7984 67.2 91.8984 67.5 91.9984 67.9L92.8984 71.7L91.7985 72L90.9984 68.5C90.8984 68.2 90.7985 68 90.6985 67.8C90.5985 67.6 90.3985 67.5 90.2985 67.4C90.0985 67.3 89.9985 67.3 89.7985 67.2C89.5985 67.2 89.4985 67.2 89.2985 67.2C89.0985 67.3 88.8985 67.3 88.6985 67.5C88.4985 67.6 88.3985 67.8 88.2985 68C88.1985 68.2 88.0984 68.4 88.0984 68.7C88.0984 69 88.0985 69.3 88.1985 69.6L88.8984 72.6L87.7985 72.9L86.3984 67Z" fill="white"/>
<path d="M92.8984 63.4C92.8984 63.2 92.8984 63 92.9984 62.8C93.0984 62.6 93.2984 62.5 93.4984 62.5C93.6984 62.5 93.8984 62.5 94.0984 62.6C94.2984 62.7 94.3984 62.9 94.3984 63.1C94.3984 63.3 94.3985 63.5 94.2985 63.7C94.1985 63.9 93.9985 64 93.7985 64C93.5985 64 93.3985 64 93.1985 63.9C92.9985 63.8 92.8984 63.6 92.8984 63.4ZM93.4984 65.5L94.5984 65.3L95.5984 71.3L94.4984 71.5L93.4984 65.5Z" fill="white"/>
<path d="M100.297 66.0998C100.297 65.7998 100.297 65.4998 100.397 65.1998C100.497 64.8998 100.597 64.6998 100.797 64.4998C100.997 64.2998 101.197 64.0998 101.497 63.9998C101.797 63.8998 102.097 63.7998 102.397 63.7998C102.697 63.7998 102.997 63.7998 103.297 63.8998C103.597 63.9998 103.797 64.0998 103.997 64.2998C104.197 64.4998 104.397 64.6998 104.497 64.9998C104.597 65.2998 104.697 65.5998 104.697 65.8998C104.697 66.1998 104.697 66.4998 104.597 66.7998C104.497 67.0998 104.397 67.2998 104.197 67.4998C103.997 67.6998 103.797 67.8998 103.497 67.9998C103.197 68.0998 102.897 68.1998 102.597 68.1998C102.297 68.1998 101.997 68.1998 101.697 68.0998C101.397 67.9998 101.197 67.8998 100.997 67.6998C100.797 67.4998 100.597 67.2998 100.497 66.9998C100.397 66.6998 100.297 66.3998 100.297 66.0998Z" fill="white"/>
<path d="M110.597 68.3C110.797 68.6 111.097 68.9 111.397 69.1C111.697 69.3 112.097 69.4 112.497 69.4C112.697 69.4 112.897 69.4 113.097 69.3C113.297 69.2 113.497 69.2 113.697 69C113.897 68.8 113.997 68.7 114.097 68.5C114.197 68.3 114.297 68.1 114.297 67.9C114.297 67.6 114.197 67.3 113.997 67.1C113.797 66.9 113.497 66.7 113.197 66.6C112.897 66.5 112.497 66.3 112.097 66.2C111.697 66.1 111.397 65.9 111.097 65.7C110.797 65.5 110.497 65.2 110.297 64.8C110.097 64.4 109.997 64 109.997 63.4C109.997 63.1 110.097 62.9 110.197 62.6C110.297 62.3 110.497 62 110.797 61.8C111.097 61.6 111.397 61.4 111.797 61.2C112.197 61 112.697 61 113.197 61C113.697 61 114.197 61.1 114.597 61.3C114.997 61.5 115.397 61.7 115.797 62.2L114.797 63.1C114.697 62.9 114.397 62.7 114.197 62.5C113.897 62.3 113.597 62.3 113.297 62.2C112.997 62.2 112.697 62.2 112.397 62.3C112.197 62.4 111.997 62.5 111.797 62.6C111.597 62.7 111.597 62.9 111.497 63C111.397 63.2 111.397 63.3 111.397 63.4C111.397 63.8 111.497 64.1 111.697 64.3C111.897 64.5 112.197 64.7 112.497 64.8C112.797 64.9 113.197 65.1 113.597 65.2C113.997 65.3 114.297 65.5 114.697 65.7C114.997 65.9 115.297 66.2 115.497 66.5C115.697 66.8 115.797 67.3 115.797 67.8C115.797 68.2 115.697 68.6 115.497 69C115.297 69.3 115.097 69.6 114.797 69.9C114.497 70.1 114.197 70.3 113.797 70.4C113.397 70.5 112.997 70.6 112.597 70.5C111.997 70.5 111.497 70.4 110.997 70.1C110.497 69.9 110.097 69.5 109.797 69.1L110.597 68.3Z" fill="white"/>
<path d="M122 71.2L120.9 71.1L121 70.2C120.8 70.5 120.5 70.7 120.2 70.9C119.9 71.1 119.4 71.1 118.9 71C118.6 71 118.3 70.9 118.1 70.8C117.8 70.7 117.6 70.5 117.5 70.3C117.4 70.1 117.2 69.8 117.1 69.5C117 69.2 117 68.8 117 68.4L117.5 64.5L118.6 64.6L118.2 68.1C118.2 68.4 118.2 68.6 118.2 68.8C118.3 69 118.3 69.2 118.4 69.3C118.5 69.4 118.6 69.5 118.8 69.6C119 69.7 119.1 69.7 119.3 69.7C119.5 69.7 119.8 69.7 120 69.7C120.2 69.6 120.4 69.5 120.6 69.4C120.8 69.3 120.9 69.1 121 68.8C121.1 68.5 121.2 68.3 121.2 67.9L121.6 64.8L122.7 64.9L122 71.2Z" fill="white"/>
<path d="M124.499 65.5L125.599 65.7L125.399 66.6C125.599 66.3 125.899 66.1 126.299 66C126.699 65.9 127.099 65.9 127.599 66C127.899 66.1 128.099 66.2 128.399 66.3C128.599 66.4 128.799 66.6 128.999 66.8C129.199 67 129.299 67.3 129.299 67.6C129.399 67.9 129.299 68.3 129.299 68.7L128.499 72.5L127.399 72.3L128.099 68.8C128.199 68.5 128.199 68.3 128.099 68.1C128.099 67.9 127.999 67.7 127.899 67.6C127.799 67.5 127.699 67.3 127.499 67.3C127.299 67.2 127.199 67.2 126.999 67.1C126.799 67.1 126.499 67 126.299 67.1C126.099 67.1 125.899 67.2 125.699 67.3C125.499 67.4 125.399 67.6 125.199 67.8C125.099 68 124.999 68.3 124.899 68.7L124.299 71.7L123.199 71.5L124.499 65.5Z" fill="white"/>
<path d="M130.497 69.7999C130.597 69.3999 130.797 68.9999 131.097 68.6999C131.397 68.3999 131.697 68.0999 131.997 67.8999C132.397 67.6999 132.697 67.5999 133.197 67.4999C133.697 67.3999 133.997 67.4999 134.497 67.5999C134.897 67.6999 135.297 67.8999 135.597 68.1999C135.897 68.4999 136.197 68.7999 136.397 69.0999C136.597 69.4999 136.697 69.7999 136.797 70.2999C136.897 70.6999 136.797 71.0999 136.697 71.5999C136.597 71.9999 136.397 72.3999 136.097 72.6999C135.797 72.9999 135.497 73.2999 135.197 73.4999C134.897 73.6999 134.497 73.7999 133.997 73.8999C133.497 73.9999 133.197 73.8999 132.697 73.7999C132.297 73.6999 131.897 73.4999 131.597 73.1999C131.297 72.8999 130.997 72.5999 130.797 72.2999C130.597 71.8999 130.497 71.5999 130.397 71.0999C130.297 70.5999 130.397 70.1999 130.497 69.7999ZM131.697 70.1999C131.597 70.4999 131.597 70.7999 131.597 71.0999C131.597 71.3999 131.697 71.5999 131.797 71.7999C131.897 71.9999 132.097 72.1999 132.297 72.3999C132.497 72.5999 132.797 72.6999 133.097 72.7999C133.397 72.8999 133.697 72.8999 133.897 72.8999C134.197 72.8999 134.397 72.7999 134.597 72.6999C134.797 72.5999 134.997 72.3999 135.197 72.1999C135.397 71.9999 135.497 71.6999 135.597 71.3999C135.697 71.0999 135.697 70.7999 135.697 70.4999C135.697 70.1999 135.597 69.9999 135.497 69.7999C135.397 69.5999 135.197 69.3999 134.997 69.1999C134.797 68.9999 134.497 68.8999 134.197 68.7999C133.897 68.6999 133.597 68.6999 133.397 68.6999C133.097 68.6999 132.897 68.7999 132.697 68.8999C132.497 68.9999 132.297 69.1999 132.097 69.3999C131.897 69.5999 131.697 69.8999 131.697 70.1999Z" fill="white"/>
<path d="M143.697 67.8999L144.797 68.3999L141.397 76.7999L140.297 76.2999L143.697 67.8999Z" fill="white"/>
<path d="M145.698 71.8999L146.698 72.3999L146.298 73.1999C146.598 72.9999 146.898 72.7999 147.298 72.7999C147.698 72.7999 148.098 72.8999 148.498 73.0999C148.798 73.1999 148.998 73.3999 149.198 73.5999C149.398 73.7999 149.598 73.9999 149.698 74.2999C149.798 74.5999 149.798 74.7999 149.798 75.1999C149.798 75.4999 149.698 75.8999 149.498 76.1999L147.798 79.6999L146.798 79.1999L148.298 75.9999C148.398 75.6999 148.498 75.4999 148.498 75.2999C148.498 75.0999 148.498 74.8999 148.398 74.6999C148.298 74.4999 148.198 74.3999 148.098 74.2999C147.998 74.1999 147.798 74.0999 147.698 73.9999C147.498 73.8999 147.298 73.7999 147.098 73.7999C146.898 73.7999 146.698 73.7999 146.498 73.8999C146.298 73.9999 146.098 74.0999 145.898 74.2999C145.698 74.4999 145.498 74.6999 145.398 75.0999L144.098 77.8999L143.098 77.3999L145.698 71.8999Z" fill="white"/>
<path d="M154.298 83.3002L153.298 82.7002L153.698 82.0002C153.298 82.2002 152.998 82.2002 152.498 82.2002C152.098 82.2002 151.698 82.0002 151.298 81.8002C150.898 81.6002 150.598 81.3002 150.298 80.9002C150.098 80.6002 149.898 80.2002 149.798 79.8002C149.698 79.4002 149.698 79.0002 149.798 78.6002C149.898 78.2002 149.998 77.8002 150.198 77.4002C150.398 77.0002 150.698 76.7002 150.998 76.4002C151.298 76.1002 151.698 76.0002 151.998 75.8002C152.298 75.6002 152.798 75.7002 153.198 75.7002C153.598 75.8002 153.998 75.9002 154.398 76.1002C154.798 76.3002 155.098 76.6002 155.298 77.0002C155.498 77.4002 155.698 77.7002 155.698 78.1002L157.998 74.2002L158.998 74.8002L154.298 83.3002ZM152.098 81.0002C152.398 81.2002 152.598 81.2002 152.898 81.3002C153.198 81.4002 153.398 81.3002 153.698 81.2002C153.898 81.1002 154.198 81.0002 154.398 80.8002C154.598 80.6002 154.798 80.4002 154.998 80.1002C155.198 79.8002 155.298 79.6002 155.298 79.3002C155.298 79.0002 155.298 78.8002 155.298 78.5002C155.198 78.3002 155.098 78.0002 154.998 77.8002C154.898 77.6002 154.598 77.4002 154.398 77.2002C154.098 77.0002 153.898 77.0002 153.598 76.9002C153.298 76.8002 153.098 76.9002 152.798 77.0002C152.598 77.1002 152.298 77.2002 152.098 77.4002C151.898 77.6002 151.698 77.8002 151.498 78.1002C151.298 78.4002 151.198 78.6002 151.198 78.9002C151.098 79.2002 151.198 79.4002 151.198 79.7002C151.298 79.9002 151.398 80.2002 151.498 80.4002C151.598 80.6002 151.798 80.8002 152.098 81.0002Z" fill="white"/>
<path d="M158.998 79.1999L159.998 79.7999L156.598 84.7999L155.598 84.1999L158.998 79.1999ZM159.998 77.2999C160.098 77.0999 160.298 76.9999 160.498 76.8999C160.698 76.8999 160.898 76.8999 161.098 76.9999C161.298 77.0999 161.398 77.2999 161.498 77.4999C161.498 77.6999 161.498 77.8999 161.398 78.0999C161.298 78.2999 161.098 78.3999 160.898 78.4999C160.698 78.4999 160.498 78.4999 160.298 78.3999C160.098 78.2999 159.998 78.0999 159.898 77.8999C159.798 77.6999 159.798 77.3999 159.998 77.2999Z" fill="white"/>
<path d="M161.097 81.5C161.497 81.5 161.997 81.5 162.397 81.6C162.797 81.7 163.197 81.9 163.597 82.2C163.997 82.5 164.197 82.7 164.397 83C164.597 83.3 164.697 83.6 164.797 83.8C164.897 84 164.797 84.3 164.797 84.6C164.697 84.9 164.597 85.1 164.497 85.3L162.597 87.8C162.497 88 162.397 88.1 162.297 88.3C162.197 88.5 162.097 88.6 161.997 88.7L161.197 88.1C161.397 87.8 161.497 87.6 161.697 87.3C161.297 87.5 160.897 87.5 160.497 87.4C160.097 87.3 159.797 87.1 159.397 86.9C159.197 86.7 158.997 86.5 158.797 86.3C158.597 86.1 158.497 85.9 158.497 85.6C158.397 85.4 158.397 85.1 158.497 84.9C158.497 84.7 158.697 84.4 158.797 84.2C158.997 83.9 159.297 83.7 159.597 83.6C159.897 83.5 160.197 83.5 160.597 83.5C160.897 83.5 161.297 83.7 161.697 83.9C162.097 84.1 162.397 84.3 162.797 84.6L163.497 85.1L163.697 84.9C163.797 84.8 163.897 84.6 163.897 84.5C163.897 84.3 163.997 84.2 163.897 84C163.897 83.8 163.797 83.7 163.697 83.5C163.597 83.3 163.497 83.2 163.297 83C163.097 82.9 162.997 82.8 162.797 82.7C162.597 82.6 162.497 82.6 162.297 82.6C162.197 82.6 161.997 82.6 161.897 82.6C161.797 82.6 161.597 82.6 161.497 82.6L161.097 81.5ZM162.297 85.4C162.097 85.2 161.897 85.1 161.597 84.9C161.397 84.8 161.097 84.6 160.897 84.6C160.697 84.5 160.397 84.5 160.197 84.5C159.997 84.5 159.797 84.6 159.697 84.8C159.497 85.1 159.397 85.3 159.497 85.6C159.597 85.9 159.797 86.1 160.097 86.4C160.397 86.6 160.597 86.7 160.797 86.8C160.997 86.8 161.297 86.8 161.497 86.8C161.697 86.7 161.897 86.7 162.097 86.5C162.297 86.3 162.397 86.2 162.497 86.1L162.697 85.8L162.297 85.4Z" fill="white"/>
<path d="M29.2 184.7L30.4 187.6C30.5 188 30.6 188.3 30.7 188.7C30.7 189 30.7 189.4 30.6 189.7C30.5 190 30.4 190.3 30.2 190.5C30 190.7 29.7 190.9 29.3 191.1C28.8 191.3 28.4 191.3 28 191.2C27.6 191.1 27.2 190.8 26.9 190.4C27 190.7 27 190.9 27 191.2C27 191.5 26.9 191.7 26.8 192C26.7 192.2 26.5 192.5 26.3 192.6C26.1 192.8 25.8 192.9 25.6 193.1C25.2 193.3 24.9 193.3 24.5 193.3C24.1 193.3 23.8 193.1 23.5 193C23.2 192.8 22.9 192.6 22.7 192.2C22.5 191.9 22.3 191.5 22.1 191.1L21 188.2L29.2 184.7ZM22.3 188.8L23 190.5C23.1 190.7 23.2 190.9 23.3 191.1C23.4 191.3 23.6 191.5 23.7 191.6C23.9 191.7 24.1 191.8 24.3 191.9C24.5 192 24.8 191.9 25.1 191.8C25.6 191.6 25.9 191.3 26 190.9C26.1 190.5 26.1 190 25.8 189.4L25.1 187.7L22.3 188.8ZM26.2 187.2L26.8 188.8C26.9 189 27 189.2 27.1 189.4C27.2 189.6 27.4 189.7 27.5 189.8C27.7 189.9 27.8 190 28 190C28.2 190 28.4 190 28.6 189.9C28.9 189.8 29.2 189.5 29.3 189.2C29.5 188.9 29.4 188.5 29.3 188L28.6 186.2L26.2 187.2Z" fill="white"/>
<path d="M32.5984 191.2L33.0984 192.2L29.0984 194.2C29.4984 194.2 29.7984 194.3 30.0984 194.5C30.3984 194.7 30.6984 195.1 30.8984 195.5C30.9984 195.8 31.0985 196 31.1985 196.3C31.1985 196.6 31.1984 196.9 31.0984 197.1C30.9984 197.4 30.8985 197.6 30.6985 197.9C30.4985 198.2 30.1984 198.3 29.8984 198.5L26.3984 200.2L25.8984 199.2L29.0984 197.6C29.3984 197.5 29.4985 197.3 29.6985 197.2C29.7985 197 29.8984 196.9 29.9984 196.7C30.0984 196.5 30.0984 196.4 29.9984 196.2C29.9984 196 29.8985 195.9 29.7985 195.7C29.6985 195.5 29.5984 195.3 29.3984 195.2C29.1984 195.1 29.0985 194.9 28.7985 194.9C28.4985 194.9 28.2984 194.8 28.0984 194.9C27.7984 194.9 27.4985 195 27.1985 195.2L24.3984 196.6L23.8984 195.6L32.5984 191.2Z" fill="white"/>
<path d="M31.8992 199.4C32.2992 199.5 32.6992 199.7 33.0992 200C33.3992 200.3 33.6992 200.6 33.8992 201C34.0992 201.4 34.2992 201.7 34.2992 202.1C34.3992 202.4 34.3992 202.7 34.2992 203C34.1992 203.3 34.0992 203.5 33.9992 203.7C33.8992 203.9 33.6992 204.1 33.3992 204.2L30.7992 205.8C30.5992 205.9 30.4992 206 30.2992 206.1C30.1992 206.2 29.9992 206.3 29.8992 206.4L29.3992 205.5C29.5992 205.3 29.8992 205.2 30.1992 205C29.6992 205 29.2992 204.9 28.9992 204.7C28.6992 204.5 28.3992 204.2 28.1992 203.8C28.0992 203.6 27.9992 203.3 27.8992 203.1C27.7992 202.8 27.7992 202.6 27.8992 202.3C27.8992 202.1 27.9992 201.8 28.1992 201.6C28.3992 201.4 28.4992 201.2 28.7992 201.1C29.0992 200.9 29.4992 200.8 29.7992 200.8C30.0992 200.8 30.3992 200.9 30.6992 201.1C30.9992 201.3 31.2992 201.5 31.5992 201.8C31.8992 202.1 32.0992 202.5 32.3992 202.9L32.7992 203.6L32.9992 203.5C33.0992 203.4 33.1992 203.3 33.2992 203.2C33.3992 203.1 33.4992 202.9 33.4992 202.8C33.4992 202.6 33.5992 202.5 33.4992 202.3C33.3992 202.1 33.3992 201.9 33.2992 201.7C33.1992 201.5 33.0992 201.4 32.8992 201.2C32.6992 201 32.6992 201 32.4992 200.9C32.3992 200.8 32.1992 200.7 32.0992 200.7C31.9992 200.7 31.7992 200.6 31.6992 200.6L31.8992 199.4ZM31.4992 203.4C31.3992 203.2 31.1992 202.9 30.9992 202.7C30.7992 202.5 30.5992 202.3 30.4992 202.1C30.2992 201.9 30.0992 201.8 29.8992 201.8C29.6992 201.8 29.4992 201.8 29.2992 201.9C28.9992 202.1 28.7992 202.3 28.7992 202.6C28.7992 202.9 28.8992 203.2 29.0992 203.5C29.2992 203.8 29.3992 204 29.6992 204.1C29.9992 204.2 30.0992 204.3 30.2992 204.3C30.4992 204.3 30.6992 204.3 30.8992 204.3C31.0992 204.3 31.2992 204.2 31.4992 204.1L31.7992 203.9L31.4992 203.4Z" fill="white"/>
<path d="M36.5993 208.1C36.6993 207.9 36.6993 207.7 36.6993 207.4C36.6993 207.1 36.5993 206.9 36.3993 206.7C36.1993 206.5 36.0993 206.3 35.8993 206.2C35.6993 206.1 35.4993 206.1 35.2993 206.2C35.1993 206.3 35.0993 206.4 34.9993 206.6C34.9993 206.8 34.9993 206.9 34.9993 207.1C34.9993 207.3 35.0993 207.4 35.1993 207.6C35.2993 207.8 35.2993 207.9 35.3993 208C35.4993 208.2 35.5993 208.5 35.5993 208.7C35.5993 208.9 35.6993 209.1 35.6993 209.3C35.6993 209.5 35.5993 209.7 35.4993 209.9C35.3993 210.1 35.1993 210.3 34.9993 210.4C34.6993 210.6 34.3993 210.7 34.1993 210.7C33.9993 210.7 33.5993 210.7 33.3993 210.6C33.0993 210.5 32.8993 210.3 32.6993 210.1C32.4993 209.9 32.2993 209.7 32.0993 209.4C31.7993 209 31.5993 208.6 31.4993 208.2C31.3993 207.8 31.3993 207.4 31.5993 206.9L32.6993 207.2C32.6993 207.5 32.5993 207.7 32.6993 208C32.6993 208.3 32.7993 208.5 32.9993 208.8C33.0993 208.9 33.1993 209 33.2993 209.1C33.3993 209.2 33.4993 209.3 33.5993 209.3C33.6993 209.3 33.7993 209.4 33.9993 209.4C34.0993 209.4 34.1993 209.4 34.2993 209.3C34.3993 209.2 34.4993 209.1 34.5993 208.9C34.5993 208.7 34.5993 208.6 34.5993 208.4C34.5993 208.2 34.4993 208.1 34.4993 207.9C34.3993 207.7 34.3993 207.6 34.2993 207.5C34.1993 207.3 34.0993 207 34.0993 206.8C33.9993 206.6 33.9993 206.4 33.9993 206.1C33.9993 205.8 34.0993 205.7 34.1993 205.5C34.2993 205.3 34.4993 205.1 34.6993 205C34.9993 204.8 35.1993 204.7 35.4993 204.7C35.7993 204.7 35.9993 204.7 36.2993 204.8C36.5993 204.9 36.7993 205 36.9993 205.2C37.1993 205.4 37.3993 205.6 37.5993 205.8C37.7993 206.1 37.9993 206.5 38.0993 206.9C38.1993 207.3 38.1993 207.7 37.9993 208.1H36.5993Z" fill="white"/>
<path d="M42 206.8L42.7 207.7L39.2 210.6C39.5 210.5 39.9 210.5 40.3 210.7C40.7 210.9 41 211.1 41.3 211.5C41.5 211.7 41.6 212 41.7 212.2C41.8 212.5 41.8 212.7 41.8 213C41.8 213.3 41.7 213.5 41.5 213.8C41.3 214.1 41.1 214.3 40.8 214.6L37.8 217.1L37.1 216.2L39.9 213.9C40.1 213.7 40.3 213.5 40.4 213.4C40.5 213.2 40.6 213 40.6 212.9C40.6 212.7 40.6 212.6 40.5 212.4C40.4 212.2 40.4 212.1 40.2 211.9C40 211.7 39.9 211.6 39.7 211.5C39.5 211.4 39.3 211.3 39.1 211.3C38.9 211.3 38.6 211.3 38.4 211.4C38.1 211.5 37.9 211.7 37.6 211.9L35.2 213.9L34.5 213L42 206.8Z" fill="white"/>
<path d="M43.1008 215C43.5008 215 44.0008 215.1 44.4008 215.4C44.8008 215.7 45.1008 215.9 45.4008 216.2C45.7008 216.5 45.9008 216.8 46.1008 217.1C46.2008 217.4 46.3008 217.7 46.3008 218C46.3008 218.3 46.3008 218.5 46.1008 218.8C46.0008 219 45.8008 219.2 45.7008 219.4L43.5008 221.5C43.3008 221.6 43.2008 221.8 43.1008 221.9C43.0008 222 42.9008 222.2 42.8008 222.3L42.1008 221.6C42.3008 221.4 42.5008 221.2 42.7008 220.9C42.2008 221 41.8008 221 41.5008 220.8C41.1008 220.7 40.8008 220.4 40.5008 220.1C40.3008 219.9 40.2008 219.7 40.0008 219.4C39.9008 219.2 39.8008 218.9 39.8008 218.7C39.8008 218.5 39.8008 218.2 39.9008 218C40.0008 217.8 40.1008 217.5 40.4008 217.3C40.7008 217 41.0008 216.9 41.3008 216.8C41.6008 216.7 41.9008 216.8 42.3008 216.9C42.7008 217 43.0008 217.2 43.3008 217.4C43.6008 217.6 44.0008 217.9 44.3008 218.3L44.9008 218.9L45.1008 218.7C45.2008 218.6 45.3008 218.5 45.4008 218.3C45.5008 218.2 45.5008 218 45.5008 217.8C45.5008 217.6 45.5008 217.5 45.4008 217.3C45.3008 217.1 45.2008 216.9 45.0008 216.8C44.8008 216.6 44.7008 216.5 44.6008 216.4C44.5008 216.3 44.3008 216.2 44.2008 216.2C44.1008 216.1 43.9008 216.1 43.8008 216.1C43.7008 216.1 43.5008 216.1 43.4008 216L43.1008 215ZM43.6008 219C43.4008 218.8 43.2008 218.6 43.0008 218.4C42.8008 218.2 42.6008 218.1 42.3008 218C42.1008 217.9 41.9008 217.8 41.6008 217.8C41.4008 217.8 41.2008 217.9 41.0008 218C40.7008 218.2 40.6008 218.5 40.7008 218.8C40.7008 219.1 40.9008 219.4 41.2008 219.6C41.4008 219.8 41.6008 220 41.9008 220.1C42.1008 220.2 42.4008 220.2 42.6008 220.2C42.8008 220.2 43.0008 220.1 43.2008 220C43.4008 219.9 43.6008 219.8 43.7008 219.6L44.0008 219.3L43.6008 219Z" fill="white"/>
<path d="M52.2017 224.8C52.2017 224.6 52.2017 224.4 52.1017 224.1C52.0017 223.8 51.9017 223.7 51.7017 223.5C51.5017 223.3 51.3017 223.2 51.0017 223.2C50.8017 223.2 50.6017 223.2 50.4017 223.4C50.3017 223.5 50.2017 223.7 50.3017 223.8C50.3017 224 50.4017 224.1 50.4017 224.3C50.5017 224.5 50.6017 224.6 50.7017 224.7C50.8017 224.8 50.9017 225 51.0017 225.1C51.1017 225.3 51.3017 225.5 51.4017 225.7C51.5017 225.9 51.6017 226.1 51.6017 226.3C51.6017 226.5 51.6017 226.7 51.6017 226.9C51.6017 227.1 51.4017 227.3 51.2017 227.5C51.0017 227.8 50.7017 227.9 50.5017 228C50.2017 228.1 50.0017 228.1 49.7017 228.1C49.4017 228.1 49.2017 228 48.9017 227.8C48.6017 227.7 48.4017 227.5 48.2017 227.3C47.8017 227 47.5017 226.6 47.3017 226.3C47.1017 225.9 47.0017 225.5 47.1017 225H48.2017C48.2017 225.3 48.3017 225.5 48.4017 225.8C48.5017 226.1 48.6017 226.3 48.9017 226.5C49.0017 226.6 49.1017 226.7 49.3017 226.8C49.4017 226.9 49.6017 226.9 49.7017 226.9C49.8017 226.9 50.0017 226.9 50.1017 226.9C50.2017 226.9 50.3017 226.8 50.4017 226.7C50.5017 226.6 50.6017 226.4 50.6017 226.3C50.6017 226.1 50.5017 226 50.5017 225.9C50.4017 225.8 50.3017 225.6 50.2017 225.5C50.1017 225.4 50.0017 225.2 49.9017 225.1C49.8017 224.9 49.6017 224.7 49.5017 224.5C49.4017 224.3 49.3017 224.1 49.3017 223.9C49.3017 223.7 49.3017 223.5 49.3017 223.3C49.3017 223.1 49.5017 222.9 49.7017 222.6C49.9017 222.4 50.1017 222.2 50.4017 222.1C50.7017 222 50.9017 222 51.2017 222C51.5017 222 51.7017 222.1 52.0017 222.2C52.3017 222.3 52.5017 222.5 52.7017 222.7C53.0017 223 53.3017 223.3 53.4017 223.6C53.6017 224 53.6017 224.3 53.6017 224.8H52.2017Z" fill="white"/>
<path d="M54.5984 225.7C54.9984 225.7 55.4984 225.7 55.8984 225.8C56.2984 225.9 56.6984 226.1 57.0984 226.4C57.4984 226.7 57.6984 226.9 57.8984 227.2C58.0984 227.5 58.1984 227.8 58.2984 228C58.3984 228.3 58.2984 228.5 58.2984 228.8C58.2984 229.1 58.0984 229.3 57.9984 229.5L56.1984 232C56.0984 232.2 55.9984 232.3 55.8984 232.5C55.7984 232.6 55.6984 232.8 55.5984 232.9L54.7984 232.3C54.9984 232 55.0984 231.8 55.2984 231.5C54.8984 231.7 54.4984 231.7 54.0984 231.6C53.6984 231.5 53.2984 231.3 52.9984 231.1C52.7984 230.9 52.5984 230.7 52.3984 230.5C52.1984 230.3 52.0984 230.1 52.0984 229.8C51.9984 229.6 51.9984 229.3 52.0984 229.1C52.1984 228.9 52.2984 228.6 52.3984 228.4C52.5984 228.1 52.8984 227.9 53.1984 227.8C53.4984 227.7 53.7984 227.7 54.1984 227.7C54.4984 227.7 54.8984 227.9 55.2984 228C55.6984 228.2 55.9984 228.4 56.3984 228.7L57.0984 229.2L57.2984 229C57.3984 228.9 57.4984 228.7 57.4984 228.6C57.4984 228.4 57.5984 228.3 57.4984 228.1C57.4984 227.9 57.3984 227.8 57.2984 227.6C57.1984 227.4 57.0984 227.3 56.8984 227.1C56.6984 227 56.5984 226.9 56.3984 226.8C56.1984 226.7 56.0984 226.7 55.8984 226.7C55.7984 226.7 55.5984 226.7 55.4984 226.7C55.3984 226.7 55.1984 226.7 55.0984 226.7L54.5984 225.7ZM55.7984 229.6C55.5984 229.4 55.2984 229.3 55.0984 229.1C54.8984 229 54.5984 228.8 54.3984 228.8C54.1984 228.7 53.8984 228.7 53.6984 228.7C53.4984 228.7 53.2984 228.8 53.1984 229C52.9984 229.3 52.8984 229.6 52.9984 229.8C53.0984 230.1 53.2984 230.3 53.5984 230.5C53.8984 230.7 54.0984 230.8 54.2984 230.8C54.4984 230.8 54.7984 230.8 54.9984 230.8C55.1984 230.7 55.3984 230.6 55.5984 230.5C55.7984 230.4 55.8984 230.2 55.9984 230.1L56.1984 229.8L55.7984 229.6Z" fill="white"/>
<path d="M60.2016 229L61.1016 229.5L60.6016 230.3C60.7016 230.2 60.8016 230.2 60.9016 230.1C61.1016 230 61.2016 230 61.4016 230C61.6016 230 61.8016 230 62.1016 230C62.3016 230 62.6016 230.1 62.8016 230.3C63.2016 230.5 63.5016 230.8 63.6016 231.1C63.7016 231.4 63.8016 231.8 63.8016 232.2C64.2016 232 64.5016 231.9 64.9016 231.9C65.3015 231.9 65.7016 232 66.0016 232.2C66.4016 232.4 66.7016 232.7 66.9016 233C67.1016 233.3 67.2016 233.6 67.2016 233.9C67.2016 234.2 67.2016 234.5 67.1016 234.8C67.0016 235.1 66.9016 235.4 66.7016 235.7L64.9016 238.7L63.9016 238.1L65.6016 235.2C65.7016 235 65.8015 234.8 65.9016 234.6C66.0016 234.4 66.0016 234.2 66.0016 234C66.0016 233.8 66.0016 233.6 65.9016 233.5C65.8015 233.4 65.6016 233.2 65.4016 233C64.9016 232.7 64.5016 232.7 64.1016 232.8C63.7016 233 63.4016 233.3 63.1016 233.7L61.4016 236.5L60.4016 235.9L62.0016 233.2C62.1016 233 62.3016 232.7 62.4016 232.5C62.5016 232.3 62.6016 232.1 62.6016 231.9C62.6016 231.7 62.6016 231.5 62.5016 231.4C62.4016 231.2 62.2016 231.1 62.0016 230.9C61.8016 230.8 61.6016 230.7 61.4016 230.7C61.2016 230.7 61.0016 230.7 60.8016 230.8C60.6016 230.9 60.4016 231 60.2016 231.2C60.0016 231.4 59.8016 231.6 59.6016 231.9L58.1016 234.7L57.1016 234.1L60.2016 229Z" fill="white"/>
<path d="M69.2016 235C69.6016 234.9 70.1016 234.8 70.5016 234.9C70.9016 235 71.4016 235.1 71.7016 235.2C72.1016 235.4 72.4016 235.6 72.7016 235.8C73.0016 236 73.1016 236.3 73.2016 236.5C73.3016 236.8 73.4016 237 73.3016 237.3C73.3016 237.6 73.2016 237.8 73.1016 238L71.8016 240.8C71.7016 241 71.6016 241.2 71.6016 241.3C71.6016 241.4 71.5016 241.6 71.4016 241.8L70.5016 241.4C70.6016 241.1 70.7016 240.8 70.9016 240.6C70.5016 240.8 70.1016 241 69.7016 241C69.3016 241 68.9016 240.9 68.5016 240.7C68.2016 240.6 68.0016 240.4 67.8016 240.3C67.6016 240.1 67.4016 239.9 67.3016 239.7C67.2016 239.5 67.1016 239.2 67.1016 239C67.1016 238.7 67.2016 238.5 67.3016 238.2C67.5016 237.8 67.7016 237.6 68.0016 237.4C68.3016 237.2 68.6016 237.1 68.9016 237.1C69.2016 237.1 69.6016 237.1 70.0016 237.2C70.4016 237.3 70.8016 237.5 71.2016 237.7L72.0016 238.1L72.1016 237.9C72.2016 237.8 72.2016 237.6 72.2016 237.4C72.2016 237.2 72.2016 237.1 72.1016 236.9C72.0016 236.7 72.0016 236.6 71.8016 236.4C71.6016 236.2 71.5016 236.1 71.3016 236C71.1016 235.9 70.9016 235.8 70.7016 235.8C70.5016 235.8 70.4016 235.8 70.2016 235.8C70.0016 235.8 69.9016 235.8 69.8016 235.8C69.7016 235.8 69.5016 235.9 69.4016 235.9L69.2016 235ZM71.1016 238.5C70.9016 238.4 70.6016 238.3 70.3016 238.2C70.0016 238.1 69.8016 238 69.5016 238C69.3016 238 69.0016 238 68.8016 238.1C68.6016 238.2 68.4016 238.3 68.3016 238.5C68.2016 238.8 68.2016 239.1 68.3016 239.3C68.4016 239.5 68.7016 239.7 69.1016 239.9C69.4016 240 69.6016 240.1 69.9016 240.1C70.1016 240.1 70.4016 240 70.6016 240C70.8016 239.9 71.0016 239.8 71.1016 239.6C71.2016 239.4 71.4016 239.3 71.4016 239.1L71.6016 238.8L71.1016 238.5Z" fill="white"/>
<path d="M75.4016 237L76.5016 237.4L76.2016 238.3C76.3016 238.2 76.5016 238.1 76.6016 238C76.8016 237.9 76.9016 237.9 77.1016 237.8C77.3016 237.8 77.5016 237.8 77.7016 237.8C77.9016 237.8 78.1016 237.9 78.3016 237.9C78.5016 238 78.6016 238.1 78.7016 238.2L78.2016 239.3C78.1016 239.2 78.0016 239.2 78.0016 239.1C77.9016 239.1 77.8016 239 77.7016 239C77.2016 238.8 76.7016 238.8 76.3016 239C75.9016 239.2 75.6016 239.6 75.3016 240.2L74.2016 243L73.1016 242.6L75.4016 237Z" fill="white"/>
<path d="M82.4984 240.6L80.8984 240.1L80.0984 242.7C79.9984 242.9 79.9984 243 79.9984 243.2C79.9984 243.4 79.8984 243.5 79.8984 243.7C79.8984 243.9 79.9984 244 79.9984 244.1C80.0984 244.2 80.1984 244.3 80.3984 244.4C80.4984 244.4 80.6985 244.5 80.7985 244.5C80.8985 244.5 81.0985 244.5 81.1985 244.5L80.8984 245.5C80.6984 245.5 80.5985 245.5 80.2985 245.5C80.0985 245.5 79.8985 245.4 79.7985 245.4C79.3985 245.3 79.0984 245.1 78.8984 244.9C78.6984 244.7 78.5984 244.5 78.4984 244.3C78.4984 244.1 78.4984 243.8 78.4984 243.6C78.5984 243.4 78.5985 243.1 78.6985 242.9L79.6985 239.9L78.3984 239.5L78.6985 238.6L79.9984 239L80.4984 237.4L81.5984 237.8L81.0984 239.4L82.6985 239.9L82.4984 240.6Z" fill="white"/>
<path d="M85 236.6L86.1 236.9L85 241.3C85.2 241 85.5 240.8 85.9 240.7C86.3 240.6 86.7 240.6 87.2 240.7C87.5 240.8 87.7 240.9 88 241C88.2 241.2 88.4 241.3 88.6 241.6C88.7 241.8 88.8 242.1 88.9 242.4C88.9 242.7 88.9 243.1 88.8 243.5L87.8 247.3L86.7 247L87.6 243.5C87.7 243.2 87.7 243 87.7 242.8C87.7 242.6 87.6 242.4 87.5 242.3C87.4 242.1 87.3 242 87.1 241.9C86.9 241.8 86.8 241.7 86.6 241.7C86.4 241.6 86.1 241.6 85.9 241.6C85.7 241.6 85.5 241.7 85.3 241.8C85.1 241.9 84.9 242.1 84.8 242.3C84.7 242.5 84.5 242.8 84.4 243.1L83.6 246.1L82.5 245.8L85 236.6Z" fill="white"/>
<path d="M90.7992 242.5C91.1992 242.3 91.5992 242.1 91.9992 242C92.3992 241.9 92.8992 241.9 93.2992 242C93.6992 242.1 94.0992 242.2 94.3992 242.4C94.6992 242.6 94.8992 242.8 95.0992 243C95.2992 243.2 95.3992 243.5 95.3992 243.7C95.4992 244 95.4992 244.2 95.3992 244.5L94.8992 247.5C94.8992 247.7 94.7992 247.9 94.7992 248.1C94.7992 248.3 94.7992 248.4 94.6992 248.6L93.6992 248.4C93.6992 248.1 93.7992 247.8 93.7992 247.5C93.4992 247.8 93.0992 248.1 92.7992 248.2C92.3992 248.3 91.9992 248.3 91.5992 248.2C91.2992 248.2 91.0992 248.1 90.7992 247.9C90.5992 247.8 90.3992 247.6 90.1992 247.4C89.9992 247.2 89.8992 247 89.8992 246.8C89.7992 246.6 89.7992 246.3 89.8992 246C89.9992 245.6 90.0992 245.3 90.2992 245.1C90.4992 244.9 90.7992 244.7 91.0992 244.6C91.3992 244.5 91.7992 244.4 92.1992 244.4C92.5992 244.4 92.9992 244.4 93.4992 244.5L94.2992 244.6V244.3C94.2992 244.1 94.2992 244 94.2992 243.8C94.2992 243.6 94.1992 243.5 94.0992 243.3C93.9992 243.2 93.8992 243 93.6992 242.9C93.4992 242.8 93.2992 242.7 93.0992 242.7C92.8992 242.7 92.6992 242.6 92.4992 242.7C92.2992 242.7 92.1992 242.7 91.9992 242.8C91.8992 242.8 91.6992 242.9 91.5992 243C91.4992 243.1 91.3992 243.1 91.1992 243.2L90.7992 242.5ZM93.5992 245.5C93.2992 245.5 93.0992 245.4 92.7992 245.4C92.4992 245.4 92.1992 245.4 91.9992 245.4C91.7992 245.4 91.4992 245.5 91.3992 245.6C91.1992 245.7 91.0992 245.9 91.0992 246.1C90.9992 246.4 91.0992 246.7 91.2992 246.9C91.4992 247.1 91.7992 247.2 92.1992 247.3C92.4992 247.4 92.7992 247.4 92.9992 247.3C93.1992 247.2 93.3992 247.1 93.5992 247C93.7992 246.9 93.8992 246.7 93.9992 246.5C94.0992 246.3 94.1992 246.1 94.1992 245.9L94.2992 245.5H93.5992Z" fill="white"/>
<path d="M97.7008 239.3L98.8008 239.4L98.2008 245.6L101.101 243.3L102.701 243.5L99.6008 245.9L102.301 249.5L100.701 249.3L98.2008 245.9L97.9008 249L96.8008 248.9L97.7008 239.3Z" fill="white"/>
<path d="M107.398 245.2C107.398 244.9 107.398 244.6 107.598 244.3C107.698 244 107.898 243.8 108.098 243.6C108.298 243.4 108.498 243.2 108.798 243.1C109.098 243 109.398 242.9 109.698 242.9C109.998 242.9 110.298 242.9 110.598 243.1C110.898 243.2 111.098 243.4 111.298 243.6C111.498 243.8 111.698 244 111.798 244.3C111.898 244.6 111.998 244.9 111.998 245.2C111.998 245.5 111.998 245.8 111.798 246.1C111.698 246.4 111.498 246.6 111.298 246.8C111.098 247 110.898 247.2 110.598 247.3C110.298 247.4 109.998 247.5 109.698 247.5C109.398 247.5 109.098 247.5 108.798 247.3C108.498 247.2 108.298 247 108.098 246.8C107.898 246.6 107.698 246.4 107.598 246.1C107.398 245.8 107.398 245.5 107.398 245.2Z" fill="white"/>
<path d="M118.101 247.4C118.401 247.7 118.701 247.9 119.001 248C119.401 248.1 119.701 248.2 120.101 248.1C120.301 248.1 120.501 248 120.701 247.9C120.901 247.8 121.101 247.7 121.201 247.5C121.401 247.4 121.501 247.2 121.601 247C121.701 246.8 121.701 246.6 121.701 246.3C121.701 246 121.501 245.7 121.301 245.5C121.101 245.3 120.801 245.2 120.401 245.1C120.001 245 119.701 244.9 119.301 244.9C118.901 244.8 118.501 244.7 118.201 244.6C117.901 244.4 117.501 244.2 117.301 243.9C117.001 243.6 116.901 243.1 116.801 242.6C116.801 242.3 116.801 242.1 116.901 241.7C117.001 241.3 117.101 241.1 117.301 240.8C117.501 240.5 117.801 240.3 118.201 240.1C118.601 239.9 119.001 239.8 119.601 239.7C120.101 239.6 120.601 239.7 121.001 239.7C121.501 239.8 121.901 240 122.301 240.4L121.401 241.4C121.201 241.2 121.001 241 120.701 240.9C120.401 240.8 120.101 240.8 119.701 240.8C119.401 240.8 119.101 240.9 118.901 241C118.701 241.1 118.501 241.3 118.401 241.4C118.301 241.6 118.201 241.7 118.201 241.9C118.201 242.1 118.201 242.2 118.201 242.4C118.201 242.8 118.401 243.1 118.601 243.2C118.801 243.3 119.101 243.5 119.501 243.6C119.801 243.7 120.201 243.8 120.601 243.8C121.001 243.9 121.401 244 121.701 244.1C122.001 244.2 122.301 244.5 122.601 244.7C122.901 245 123.001 245.4 123.101 245.9C123.201 246.3 123.101 246.7 123.001 247.1C122.901 247.5 122.701 247.8 122.401 248.1C122.201 248.4 121.801 248.6 121.501 248.8C121.201 249 120.701 249.1 120.301 249.1C119.701 249.2 119.201 249.1 118.601 249C118.101 248.9 117.601 248.6 117.301 248.2L118.101 247.4Z" fill="white"/>
<path d="M123.398 240.2C123.398 240 123.398 239.8 123.498 239.6C123.598 239.4 123.798 239.3 123.998 239.3C124.198 239.3 124.398 239.3 124.598 239.4C124.798 239.5 124.898 239.7 124.998 239.9C125.098 240.1 124.998 240.3 124.898 240.5C124.798 240.7 124.598 240.8 124.398 240.8C124.198 240.8 123.998 240.8 123.798 240.7C123.598 240.7 123.498 240.5 123.398 240.2ZM124.098 242.3L125.198 242.1L126.298 248.1L125.198 248.3L124.098 242.3Z" fill="white"/>
<path d="M126.301 238.2L127.401 238L129.401 247.4L128.301 247.6L126.301 238.2Z" fill="white"/>
<path d="M129.199 241.3L130.499 241L133.499 245L133.999 240.1L135.199 239.8L134.499 246.3L133.299 246.6L129.199 241.3Z" fill="white"/>
<path d="M137.798 242.4C137.898 242.6 137.998 242.9 138.198 243C138.398 243.2 138.598 243.3 138.798 243.4C138.998 243.5 139.298 243.5 139.498 243.5C139.798 243.5 139.998 243.5 140.298 243.4C140.598 243.3 140.898 243.1 141.098 242.9C141.298 242.7 141.398 242.4 141.598 242L142.598 242.3C142.298 243.3 141.598 244 140.498 244.4C140.098 244.6 139.598 244.6 139.198 244.6C138.798 244.6 138.398 244.5 138.098 244.3C137.798 244.1 137.398 243.9 137.198 243.6C136.898 243.3 136.698 242.9 136.598 242.5C136.398 242.1 136.398 241.7 136.398 241.2C136.398 240.8 136.498 240.4 136.698 240C136.898 239.6 137.098 239.3 137.398 239C137.698 238.7 138.098 238.5 138.498 238.4C138.998 238.2 139.498 238.2 139.898 238.2C140.298 238.3 140.698 238.4 140.998 238.6C141.298 238.8 141.598 239.1 141.798 239.4C141.998 239.7 142.198 240.1 142.298 240.4L142.398 240.8L137.798 242.4ZM140.898 240.3C140.798 240.1 140.698 239.9 140.598 239.7C140.498 239.5 140.298 239.4 140.098 239.3C139.898 239.2 139.698 239.1 139.498 239.1C139.298 239.1 138.998 239.1 138.698 239.2C138.398 239.3 138.198 239.4 137.998 239.6C137.798 239.8 137.698 240 137.598 240.2C137.498 240.4 137.398 240.6 137.398 240.9C137.398 241.1 137.398 241.3 137.498 241.5L140.898 240.3Z" fill="white"/>
<path d="M142.398 237L143.498 236.5L143.898 237.4C143.898 237.2 143.898 237 143.998 236.9C144.098 236.7 144.198 236.6 144.298 236.4C144.398 236.2 144.498 236.1 144.698 236C144.898 235.9 144.998 235.8 145.198 235.7C145.398 235.6 145.498 235.6 145.698 235.6L146.098 236.8C145.998 236.8 145.898 236.8 145.798 236.9C145.698 237 145.598 237 145.498 237C144.998 237.2 144.698 237.5 144.498 237.9C144.398 238.3 144.398 238.8 144.698 239.4L145.898 242.2L144.798 242.7L142.398 237Z" fill="white"/>
<path d="M154.901 229.5C154.501 229.3 154.101 229.3 153.701 229.3C153.301 229.3 152.901 229.5 152.501 229.7C152.101 230 151.701 230.3 151.401 230.6C151.101 231 151.001 231.4 150.901 231.8C150.801 232.2 150.801 232.7 150.901 233.2C151.001 233.7 151.201 234.1 151.401 234.6C151.601 235 151.901 235.4 152.301 235.7C152.701 236 153.001 236.2 153.401 236.3C153.801 236.4 154.201 236.5 154.701 236.4C155.201 236.4 155.601 236.2 156.101 235.9C156.501 235.6 156.901 235.3 157.101 234.9C157.301 234.5 157.501 234.1 157.501 233.6L158.801 233.8C158.801 233.9 158.801 234.1 158.701 234.3C158.601 234.5 158.501 234.8 158.401 235.1C158.201 235.4 158.001 235.7 157.801 236C157.501 236.3 157.201 236.6 156.701 236.9C156.101 237.3 155.501 237.5 154.801 237.5C154.201 237.6 153.601 237.5 153.001 237.3C152.401 237.1 151.901 236.8 151.401 236.5C150.901 236.1 150.601 235.7 150.301 235.2C150.001 234.6 149.701 234 149.601 233.4C149.501 232.8 149.501 232.2 149.701 231.6C149.801 231 150.101 230.5 150.501 230C150.901 229.5 151.401 229.1 152.001 228.7C152.501 228.4 153.101 228.2 153.701 228.1C154.301 228 154.901 228.1 155.501 228.3L154.901 229.5Z" fill="white"/>
<path d="M158.899 231.8C158.599 231.4 158.499 231.1 158.399 230.6C158.299 230.1 158.299 229.8 158.399 229.4C158.499 229 158.599 228.6 158.799 228.3C158.999 227.9 159.299 227.6 159.699 227.4C160.099 227.1 160.499 227 160.899 226.9C161.299 226.8 161.699 226.8 162.099 226.9C162.499 227 162.899 227.1 163.199 227.3C163.599 227.5 163.899 227.8 164.099 228.2C164.399 228.6 164.499 228.9 164.599 229.4C164.699 229.8 164.699 230.2 164.599 230.6C164.499 231 164.399 231.4 164.199 231.7C163.999 232.1 163.699 232.4 163.299 232.6C162.899 232.9 162.499 233 162.099 233.1C161.699 233.2 161.299 233.2 160.899 233.1C160.499 233 160.099 232.9 159.799 232.7C159.499 232.5 159.099 232.1 158.899 231.8ZM159.899 231C160.099 231.2 160.299 231.5 160.499 231.6C160.699 231.7 160.999 231.9 161.199 231.9C161.399 231.9 161.699 231.9 161.999 231.9C162.299 231.8 162.499 231.7 162.799 231.5C162.999 231.3 163.199 231.1 163.399 230.9C163.499 230.7 163.599 230.4 163.699 230.2C163.699 230 163.699 229.7 163.599 229.4C163.499 229.1 163.399 228.9 163.199 228.6C162.999 228.4 162.799 228.1 162.599 228C162.399 227.9 162.099 227.7 161.899 227.7C161.699 227.6 161.399 227.7 161.099 227.7C160.799 227.8 160.599 227.9 160.299 228.1C159.999 228.3 159.899 228.5 159.699 228.7C159.599 228.9 159.499 229.2 159.399 229.4C159.399 229.6 159.399 229.9 159.499 230.2C159.599 230.5 159.699 230.8 159.899 231Z" fill="white"/>
<path d="M163.398 224.7L164.298 224L164.898 224.7C164.798 224.4 164.798 224 164.998 223.6C165.098 223.2 165.398 222.9 165.798 222.6C165.998 222.4 166.298 222.3 166.498 222.2C166.798 222.1 166.998 222.1 167.298 222.1C167.598 222.1 167.798 222.2 168.098 222.3C168.398 222.4 168.598 222.7 168.898 223L171.398 226L170.498 226.7L168.198 224C167.998 223.8 167.798 223.6 167.598 223.5C167.398 223.4 167.198 223.3 167.098 223.3C166.898 223.3 166.798 223.3 166.598 223.4C166.398 223.5 166.298 223.6 166.198 223.7C165.998 223.9 165.898 224 165.798 224.2C165.698 224.4 165.598 224.6 165.598 224.8C165.598 225 165.598 225.3 165.698 225.5C165.798 225.7 165.998 226 166.198 226.3L168.198 228.7L167.298 229.4L163.398 224.7Z" fill="white"/>
<path d="M171.701 218.6L170.501 219.7L172.401 221.7C172.501 221.8 172.601 221.9 172.801 222.1C172.901 222.2 173.001 222.3 173.201 222.4C173.301 222.5 173.501 222.5 173.601 222.5C173.701 222.5 173.901 222.4 174.001 222.2C174.101 222.1 174.201 222 174.301 221.9C174.401 221.8 174.401 221.7 174.501 221.5L175.201 222.3C175.201 222.4 175.101 222.6 174.901 222.8C174.701 223 174.701 223.1 174.601 223.2C174.301 223.5 174.001 223.7 173.701 223.8C173.401 223.9 173.201 223.9 173.001 223.8C172.801 223.7 172.601 223.6 172.401 223.5C172.201 223.3 172.001 223.2 171.901 223L169.701 220.7L168.701 221.6L168.001 220.9L169.001 220L167.801 218.8L168.601 218L169.801 219.2L171.001 218.1L171.701 218.6Z" fill="white"/>
<path d="M172 216.9L172.8 216.1L173.5 216.7C173.4 216.5 173.4 216.4 173.4 216.2C173.4 216 173.4 215.8 173.4 215.7C173.4 215.5 173.5 215.3 173.6 215.2C173.7 215 173.8 214.9 173.9 214.7C174 214.6 174.2 214.5 174.3 214.4L175.2 215.3C175.1 215.4 175 215.4 175 215.5C174.9 215.6 174.9 215.6 174.8 215.7C174.4 216.1 174.2 216.5 174.3 217C174.3 217.4 174.6 217.9 175.1 218.3L177.3 220.4L176.5 221.2L172 216.9Z" fill="white"/>
<path d="M173.402 212.2C173.202 212.1 173.102 211.9 173.102 211.6C173.102 211.4 173.102 211.2 173.302 211C173.502 210.8 173.602 210.7 173.902 210.7C174.102 210.7 174.302 210.7 174.502 210.9C174.702 211 174.802 211.2 174.802 211.5C174.802 211.7 174.802 211.9 174.602 212.1C174.502 212.3 174.302 212.4 174.002 212.4C173.802 212.4 173.602 212.4 173.402 212.2ZM175.202 213.4L175.902 212.5L180.502 216.4L179.802 217.3L175.202 213.4Z" fill="white"/>
<path d="M174.199 209.1L174.899 208.2L178.499 210.9C178.399 210.5 178.399 210.2 178.399 209.7C178.499 209.3 178.699 208.9 178.899 208.6C179.199 208.2 179.499 207.9 179.899 207.7C180.299 207.5 180.599 207.4 180.999 207.3C181.399 207.3 181.799 207.3 182.199 207.4C182.599 207.5 182.999 207.7 183.299 208C183.599 208.3 183.899 208.6 184.199 208.9C184.399 209.2 184.599 209.6 184.599 210C184.699 210.4 184.699 210.8 184.599 211.2C184.499 211.6 184.299 212 183.999 212.4C183.799 212.7 183.399 213 183.099 213.2C182.699 213.4 182.299 213.5 181.899 213.5L182.599 214L181.899 214.9L174.199 209.1ZM183.099 211.8C183.299 211.6 183.399 211.3 183.499 211C183.599 210.7 183.599 210.5 183.499 210.2C183.499 210 183.399 209.7 183.199 209.5C182.999 209.3 182.899 209.1 182.599 208.9C182.399 208.7 182.099 208.6 181.799 208.5C181.499 208.4 181.299 208.4 180.999 208.4C180.799 208.4 180.499 208.5 180.299 208.6C180.099 208.7 179.899 208.9 179.699 209.2C179.499 209.5 179.399 209.7 179.299 210C179.199 210.3 179.199 210.5 179.299 210.8C179.399 211.1 179.399 211.3 179.599 211.5C179.799 211.7 179.899 211.9 180.199 212.1C180.399 212.3 180.699 212.4 180.999 212.5C181.299 212.6 181.499 212.6 181.799 212.6C181.999 212.6 182.299 212.5 182.499 212.4C182.699 212.3 182.899 212.1 183.099 211.8Z" fill="white"/>
<path d="M189.602 203.8L189.002 204.8L188.202 204.3C188.402 204.6 188.502 204.9 188.502 205.4C188.502 205.8 188.302 206.2 188.102 206.6C187.902 206.9 187.802 207.1 187.502 207.2C187.202 207.3 187.002 207.5 186.802 207.6C186.502 207.7 186.202 207.7 185.902 207.6C185.602 207.5 185.302 207.4 184.902 207.2L181.602 205.1L182.202 204.1L185.202 206C185.402 206.2 185.702 206.2 185.902 206.3C186.102 206.3 186.302 206.3 186.502 206.3C186.702 206.3 186.802 206.2 187.002 206.1C187.102 206 187.302 205.9 187.302 205.7C187.402 205.5 187.502 205.3 187.602 205.1C187.602 204.9 187.602 204.7 187.602 204.5C187.502 204.3 187.402 204.1 187.302 203.9C187.102 203.7 186.902 203.5 186.602 203.3L184.002 201.6L184.602 200.6L189.602 203.8Z" fill="white"/>
<path d="M187.699 196.8L186.899 198.2L189.299 199.5C189.399 199.6 189.599 199.7 189.699 199.7C189.799 199.8 189.999 199.8 190.099 199.8C190.199 199.8 190.399 199.8 190.499 199.7C190.599 199.6 190.699 199.5 190.799 199.3C190.899 199.2 190.899 199.1 190.999 198.9C190.999 198.8 191.099 198.6 191.099 198.5L191.999 199C191.999 199.2 191.999 199.3 191.899 199.5C191.799 199.7 191.799 199.9 191.699 200C191.499 200.4 191.299 200.7 190.999 200.8C190.799 201 190.599 201 190.299 201C190.099 201 189.799 201 189.599 200.9C189.399 200.8 189.199 200.7 188.899 200.6L186.099 199.1L185.499 200.3L184.599 199.8L185.199 198.6L183.699 197.8L184.199 196.8L185.699 197.6L186.499 196.2L187.699 196.8Z" fill="white"/>
<path d="M190.101 196.6C189.701 196.4 189.401 196.2 189.101 195.9C188.801 195.6 188.601 195.2 188.501 194.9C188.401 194.5 188.301 194.1 188.301 193.7C188.301 193.3 188.401 192.9 188.601 192.4C188.801 191.9 189.001 191.6 189.401 191.4C189.701 191.1 190.101 190.9 190.401 190.8C190.801 190.7 191.201 190.6 191.601 190.6C192.001 190.6 192.401 190.7 192.801 190.9C193.201 191.1 193.501 191.3 193.801 191.6C194.101 191.9 194.301 192.3 194.401 192.6C194.501 192.9 194.601 193.4 194.601 193.8C194.601 194.2 194.501 194.6 194.301 195.1C194.101 195.5 193.901 195.9 193.501 196.1C193.201 196.4 192.801 196.6 192.501 196.7C192.101 196.8 191.701 196.9 191.301 196.9C190.901 196.9 190.501 196.8 190.101 196.6ZM190.601 195.5C190.901 195.6 191.201 195.7 191.401 195.7C191.701 195.7 191.901 195.7 192.201 195.6C192.401 195.5 192.701 195.4 192.901 195.2C193.101 195 193.301 194.8 193.401 194.5C193.501 194.2 193.601 193.9 193.601 193.7C193.601 193.5 193.601 193.2 193.501 193C193.401 192.8 193.301 192.6 193.101 192.4C192.901 192.2 192.701 192 192.401 191.9C192.101 191.8 191.801 191.7 191.601 191.7C191.301 191.7 191.101 191.7 190.801 191.8C190.601 191.9 190.301 192 190.101 192.2C189.901 192.4 189.701 192.6 189.601 192.9C189.501 193.2 189.401 193.5 189.401 193.7C189.401 194 189.401 194.2 189.501 194.4C189.601 194.6 189.701 194.8 189.901 195C190.101 195.2 190.401 195.4 190.601 195.5Z" fill="white"/>
<path d="M190.5 188.2L190.9 187.1L191.8 187.4C191.7 187.3 191.6 187.1 191.5 187C191.4 186.8 191.4 186.7 191.3 186.5C191.2 186.3 191.3 186.1 191.3 185.9C191.3 185.7 191.4 185.5 191.4 185.3C191.5 185.1 191.5 185 191.7 184.8L192.8 185.3C192.7 185.4 192.7 185.5 192.6 185.5C192.6 185.6 192.5 185.7 192.5 185.8C192.3 186.3 192.3 186.8 192.5 187.2C192.7 187.6 193.1 187.9 193.7 188.1L196.5 189.2L196.1 190.3L190.5 188.2Z" fill="white"/>
<defs>
<filter id="filter0_ii" x="0" y="48" width="218" height="218" filterUnits="userSpaceOnUse" color-interpolation-filters="sRGB">
<feFlood flood-opacity="0" result="BackgroundImageFix"/>
<feBlend mode="normal" in="SourceGraphic" in2="BackgroundImageFix" result="shape"/>
<feColorMatrix in="SourceAlpha" type="matrix" values="0 0 0 0 0 0 0 0 0 0 0 0 0 0 0 0 0 0 127 0" result="hardAlpha"/>
<feOffset/>
<feGaussianBlur stdDeviation="4"/>
<feComposite in2="hardAlpha" operator="arithmetic" k2="-1" k3="1"/>
<feColorMatrix type="matrix" values="0 0 0 0 0.9875 0 0 0 0 0.722843 0 0 0 0 0.386771 0 0 0 1 0"/>
<feBlend mode="normal" in2="shape" result="effect1_innerShadow"/>
<feColorMatrix in="SourceAlpha" type="matrix" values="0 0 0 0 0 0 0 0 0 0 0 0 0 0 0 0 0 0 127 0" result="hardAlpha"/>
<feOffset/>
<feGaussianBlur stdDeviation="6"/>
<feComposite in2="hardAlpha" operator="arithmetic" k2="-1" k3="1"/>
<feColorMatrix type="matrix" values="0 0 0 0 0 0 0 0 0 0 0 0 0 0 0 0 0 0 0.2 0"/>
<feBlend mode="normal" in2="effect1_innerShadow" result="effect2_innerShadow"/>
</filter>
<filter id="filter1_i" x="7" y="55" width="204" height="208" filterUnits="userSpaceOnUse" color-interpolation-filters="sRGB">
<feFlood flood-opacity="0" result="BackgroundImageFix"/>
<feBlend mode="normal" in="SourceGraphic" in2="BackgroundImageFix" result="shape"/>
<feColorMatrix in="SourceAlpha" type="matrix" values="0 0 0 0 0 0 0 0 0 0 0 0 0 0 0 0 0 0 127 0" result="hardAlpha"/>
<feOffset dy="4"/>
<feGaussianBlur stdDeviation="10"/>
<feComposite in2="hardAlpha" operator="arithmetic" k2="-1" k3="1"/>
<feColorMatrix type="matrix" values="0 0 0 0 0 0 0 0 0 0 0 0 0 0 0 0 0 0 1 0"/>
<feBlend mode="normal" in2="shape" result="effect1_innerShadow"/>
</filter>
<filter id="filter2_i" x="59" y="107" width="100" height="100" filterUnits="userSpaceOnUse" color-interpolation-filters="sRGB">
<feFlood flood-opacity="0" result="BackgroundImageFix"/>
<feBlend mode="normal" in="SourceGraphic" in2="BackgroundImageFix" result="shape"/>
<feColorMatrix in="SourceAlpha" type="matrix" values="0 0 0 0 0 0 0 0 0 0 0 0 0 0 0 0 0 0 127 0" result="hardAlpha"/>
<feOffset/>
<feGaussianBlur stdDeviation="6"/>
<feComposite in2="hardAlpha" operator="arithmetic" k2="-1" k3="1"/>
<feColorMatrix type="matrix" values="0 0 0 0 0.34902 0 0 0 0 0.360784 0 0 0 0 0.364706 0 0 0 1 0"/>
<feBlend mode="normal" in2="shape" result="effect1_innerShadow"/>
</filter>
<linearGradient id="paint0_linear" x1="51.775" y1="55.4938" x2="322.848" y2="326.729" gradientUnits="userSpaceOnUse">
<stop stop-color="white"/>
<stop offset="1" stop-color="#969696" stop-opacity="0"/>
</linearGradient>
<linearGradient id="paint1_linear" x1="174.52" y1="211.6" x2="38.8" y2="105.52" gradientUnits="userSpaceOnUse">
<stop stop-color="white"/>
<stop offset="1" stop-color="#383838" stop-opacity="0"/>
</linearGradient>
<linearGradient id="paint2_linear" x1="194.68" y1="228.4" x2="17.2" y2="89.68" gradientUnits="userSpaceOnUse">
<stop stop-color="white"/>
<stop offset="1" stop-color="#383838" stop-opacity="0"/>
</linearGradient>
</defs>
</svg>
