<svg width="218" height="268" viewBox="0 0 218 268" fill="none" xmlns="http://www.w3.org/2000/svg">
<path d="M86.0059 29.7983C84.9045 29.7983 84.0234 30.669 84.0234 31.7573V50.0412C84.0234 51.1295 84.9045 52.0002 86.0059 52.0002H131.381C132.483 52.0002 133.364 51.1295 133.364 50.0412V31.7573C133.364 30.669 132.483 29.7983 131.381 29.7983H86.0059ZM129.399 44.1642C129.399 45.2526 128.518 46.1232 127.416 46.1232H90.191C89.0896 46.1232 88.2086 45.2526 88.2086 44.1642V35.893C88.2086 34.8046 89.0896 33.934 90.191 33.934H127.416C128.518 33.934 129.399 34.8046 129.399 35.893V44.1642Z" fill="#D1D4D8"/>
<path d="M140.045 0L114.918 37.8775H127.37L155.388 0H140.045Z" fill="#0FA711"/>
<path d="M127.377 0L102.473 37.8775H114.925L140.052 0H127.377Z" fill="white"/>
<path d="M114.92 0L90.0156 37.8775H102.468L127.373 0H114.92Z" fill="#FF7600"/>
<path d="M90.0177 37.8775H102.47L77.343 0H62L90.0177 37.8775Z" fill="#FF7600"/>
<path d="M102.471 37.8775H114.923L90.0184 0H77.3438L102.471 37.8775Z" fill="white"/>
<path opacity="0.5" d="M110.695 6.27979L104.469 15.6931L119.145 37.8818H127.372L129.596 34.744L110.695 6.27979Z" fill="#3E4347"/>
<path d="M114.92 37.8775H127.373L102.468 0H90.0156L114.92 37.8775Z" fill="#0FA711"/>
<g filter="url(#filter0_ii)">
<path d="M218 159C218 219.199 169.199 268 109 268C48.801 268 0 219.199 0 159C0 98.801 48.801 50 109 50C169.199 50 218 98.801 218 159Z" fill="#34373C" fill-opacity="0.4"/>
</g>
<path d="M214.5 159C214.5 217.266 167.266 264.5 109 264.5C50.734 264.5 3.5 217.266 3.5 159C3.5 100.734 50.734 53.5 109 53.5C167.266 53.5 214.5 100.734 214.5 159Z" stroke="#DFDFDF" stroke-width="7"/>
<path d="M214.5 159C214.5 217.266 167.266 264.5 109 264.5C50.734 264.5 3.5 217.266 3.5 159C3.5 100.734 50.734 53.5 109 53.5C167.266 53.5 214.5 100.734 214.5 159Z" stroke="url(#paint0_linear)" stroke-width="7"/>
<path d="M214.5 159C214.5 217.266 167.266 264.5 109 264.5C50.734 264.5 3.5 217.266 3.5 159C3.5 100.734 50.734 53.5 109 53.5C167.266 53.5 214.5 100.734 214.5 159Z" stroke="url(#paint1_linear)" stroke-width="7"/>
<path d="M196 159C196 207.049 157.049 246 109 246C60.9512 246 22 207.049 22 159C22 110.951 60.9512 72 109 72C157.049 72 196 110.951 196 159Z" fill="#5C686B"/>
<path fill-rule="evenodd" clip-rule="evenodd" d="M109 87C69.2355 87 37 119.235 37 159C37 198.764 69.2355 231 109 231C148.764 231 181 198.764 181 159C181 119.235 148.764 87 109 87ZM7 159C7 102.667 52.667 57 109 57C165.333 57 211 102.667 211 159C211 215.333 165.333 261 109 261C52.667 261 7 215.333 7 159Z" fill="#6F7A7D"/>
<path d="M109.001 82C66.5595 82 32 116.357 32 159.001C32 201.645 66.3574 236.002 109.001 236.002C151.645 236.002 186.002 201.645 186.002 159.001C186.002 116.357 151.442 82 109.001 82ZM93.6412 89.4778C93.8433 89.4778 93.8433 89.4778 93.6412 89.4778C95.0559 92.5093 97.6833 94.3282 100.311 93.7219C102.938 93.3177 105.565 91.4988 105.767 87.861C106.172 87.861 106.576 87.861 106.98 87.861C106.98 98.7745 106.172 110.496 104.959 123.229C104.757 124.441 104.757 125.654 104.757 126.867C104.353 125.856 103.948 124.644 103.544 123.229C99.3001 112.517 95.4601 100.998 92.4286 89.6799C93.0349 89.6799 93.237 89.4778 93.6412 89.4778ZM76.0583 95.743C78.2814 98.3703 81.1109 99.3808 83.5361 98.1682C86.3655 96.9556 87.9823 94.1261 87.376 91.0946C87.7802 90.8925 88.1844 90.8925 88.5886 90.6904C91.216 101.2 93.8433 112.72 95.8643 125.452C96.0664 126.867 96.2685 127.877 96.6727 129.09C96.0664 128.079 95.4601 127.069 94.4496 125.856C87.5781 116.559 80.9088 106.454 75.0478 96.3493C75.2499 96.1472 75.6541 95.9451 76.0583 95.743ZM60.4964 106.656C63.3259 108.475 66.3574 108.678 68.3784 107.061C69.9952 105.848 70.8036 104.029 70.8036 102.21C70.8036 101.2 70.6015 100.189 69.9952 99.3808C70.3994 99.1787 70.6015 98.9766 71.0057 98.7745C76.4625 108.071 81.7172 118.783 87.1739 130.302C87.7802 131.515 88.3865 132.526 88.7907 133.536C87.9823 132.728 86.9718 131.919 85.9613 131.111C77.0688 123.633 67.9742 115.549 59.688 107.465C59.8901 107.061 60.2943 106.859 60.4964 106.656ZM48.3703 121.006C48.5724 121.006 48.5724 121.006 48.3703 121.006C51.6039 122.016 54.6355 121.612 56.0502 119.389C56.4544 118.783 57.4649 117.166 57.4649 115.549C57.4649 114.538 57.0607 112.922 55.8481 111.507C56.0502 111.305 56.4544 110.901 56.6565 110.699C64.3364 118.378 72.2184 127.271 80.5046 136.972C81.313 137.982 82.1214 138.791 82.9298 139.599C81.9193 138.993 80.7067 138.589 79.494 137.982C68.9847 133.132 58.0712 127.675 47.764 122.016C47.9661 121.612 48.1682 121.41 48.3703 121.006ZM40.4883 137.982C40.4883 137.982 40.4883 137.78 40.4883 137.982C43.924 138.184 46.5514 136.972 47.5619 134.344C47.764 133.738 47.9661 132.93 47.9661 131.717C47.9661 130.505 47.5619 128.281 45.1367 126.665C45.3388 126.26 45.5409 126.058 45.743 125.654C55.0397 131.111 65.1448 137.578 75.452 144.854C76.4625 145.662 77.6751 146.269 78.4835 146.875C77.473 146.673 76.0583 146.471 74.6436 146.066C63.3259 144.45 51.4018 142.024 39.882 138.993C40.2862 138.791 40.4883 138.387 40.4883 137.982ZM37.2547 156.374C37.2547 156.374 37.2547 156.172 37.2547 156.374C40.4883 155.767 42.9135 153.746 43.1156 151.119C43.1156 150.917 43.1156 150.715 43.1156 150.311C43.1156 147.885 41.903 145.258 38.8715 144.248C38.8715 143.843 39.0736 143.439 39.0736 143.035C49.5829 145.864 60.9006 149.704 72.8247 153.948C74.0373 154.353 75.2499 154.757 76.2604 154.959C75.0478 154.959 73.8352 155.161 72.4205 155.161C61.1027 156.576 48.7745 157.182 37.0526 157.384C37.2547 157.182 37.2547 156.778 37.2547 156.374ZM38.8715 175.169C38.8715 174.967 38.8715 174.967 38.8715 175.169C41.4988 173.754 43.1156 171.733 43.1156 169.308C43.1156 169.106 43.1156 168.702 43.1156 168.5C42.7114 165.872 40.8925 163.245 37.2547 163.043C37.2547 162.639 37.2547 162.235 37.2547 161.83C48.1682 161.83 59.8901 162.437 72.6226 163.447C74.0373 163.649 75.2499 163.649 76.2604 163.649C75.2499 164.054 74.0373 164.458 72.6226 164.862C61.9111 169.106 50.3913 172.946 39.0736 176.18C39.0736 175.978 39.0736 175.573 38.8715 175.169ZM45.3387 192.752C45.3387 192.752 45.3387 192.55 45.3387 192.752C47.1577 191.135 48.1682 189.316 48.1682 187.295C48.1682 186.487 47.9661 185.881 47.764 185.274C46.7535 182.849 44.3282 180.828 40.6904 181.636C40.4883 181.232 40.4883 180.828 40.2862 180.424C50.7955 177.594 62.3153 175.169 74.8457 172.946C76.2604 172.744 77.2709 172.34 78.4835 172.138C77.473 172.744 76.4625 173.35 75.2499 174.361C65.9532 181.232 55.8481 187.902 45.743 193.965C45.743 193.358 45.5409 193.156 45.3387 192.752ZM56.2523 208.112C57.2628 206.495 57.667 205.08 57.667 203.463C57.667 202.251 57.2628 201.038 56.4544 200.23C54.8376 198.209 51.806 196.794 48.5724 198.411C48.3703 198.007 48.1682 197.805 47.9661 197.4C57.2628 191.944 67.9742 186.487 79.494 181.03C80.7067 180.424 81.7172 179.818 82.7277 179.413C81.9193 180.222 81.1109 181.232 80.3024 182.243C73.2289 191.337 65.1448 200.432 57.0607 208.92C56.8586 208.718 56.4544 208.516 56.2523 208.112ZM70.6015 220.036C70.8036 218.823 71.0057 217.813 71.0057 216.802C71.0057 214.781 70.1973 213.164 68.7826 212.356C66.7616 210.941 63.528 210.133 60.9006 212.76C60.4964 212.558 60.2943 212.154 60.0922 211.952C67.7721 204.272 76.4625 196.188 86.1634 188.104C87.1739 187.295 87.9823 186.487 88.7907 185.678C88.1844 186.689 87.7802 187.902 87.1739 189.114C82.7277 199.624 77.473 210.537 71.612 220.642C71.4099 220.44 71.0057 220.238 70.6015 220.036ZM87.5781 227.918C87.7802 224.482 86.3655 221.855 83.9403 220.844C81.5151 220.036 78.2814 220.238 76.2604 223.27C75.8562 223.067 75.6541 222.865 75.2499 222.663C80.7066 213.367 86.9718 203.261 94.2475 192.752C95.0559 191.539 95.6622 190.529 96.2685 189.721C96.0664 190.731 95.8643 192.146 95.4601 193.56C93.8433 204.878 91.4181 216.802 88.5886 228.322C88.3865 228.12 87.9823 228.12 87.5781 227.918ZM105.969 230.949C105.363 227.716 103.342 225.291 100.715 225.088C98.0874 224.886 95.0559 225.897 94.0454 229.333C93.6412 229.333 93.237 229.13 92.8328 229.13C95.6622 218.621 99.3001 207.303 103.544 195.379C103.948 194.167 104.353 192.954 104.555 191.944C104.555 193.156 104.757 194.369 104.757 195.784C106.172 207.101 106.98 219.43 107.182 231.151C106.778 231.151 106.374 231.151 105.969 230.949ZM178.928 144.45C176.301 145.864 174.482 147.885 174.482 150.311C174.482 150.513 174.482 150.917 174.482 151.119C174.886 153.746 176.705 156.374 180.343 156.576C180.343 156.98 180.343 157.384 180.343 157.788C169.632 157.788 157.708 156.98 144.975 155.767C143.56 155.565 142.348 155.565 141.337 155.565C142.348 155.161 143.56 154.757 144.975 154.353C155.687 150.108 167.206 146.269 178.524 143.237C178.726 143.641 178.726 144.045 178.928 144.45ZM172.663 126.867C172.663 126.867 172.663 127.069 172.663 126.867C170.844 128.484 169.834 130.302 169.834 132.323C169.834 133.132 170.036 133.738 170.238 134.344C171.248 136.77 173.674 138.791 177.312 138.184C177.514 138.589 177.514 138.993 177.716 139.397C167.206 142.024 155.485 144.45 142.954 146.673C141.539 146.875 140.529 147.077 139.316 147.481C140.327 146.875 141.337 146.269 142.55 145.46C151.847 138.387 161.952 131.717 172.057 125.856C172.259 126.26 172.461 126.463 172.663 126.867ZM162.154 111.709C161.143 113.326 160.537 114.943 160.537 116.357C160.537 117.57 160.941 118.783 161.75 119.591C163.366 121.612 166.196 123.027 169.43 121.41C169.632 121.814 169.834 122.016 170.036 122.42C160.537 127.675 150.028 133.132 138.306 138.184C137.093 138.791 136.083 139.195 135.072 139.801C135.881 138.993 136.689 137.982 137.7 136.972C144.975 128.079 153.059 118.985 161.345 110.699C161.548 111.103 161.952 111.305 162.154 111.709ZM147.603 99.1787C147.603 99.1787 147.805 99.3808 147.603 99.1787C147.4 100.391 146.996 101.402 146.996 102.412C146.996 104.231 147.805 105.848 149.219 106.859C151.24 108.273 154.474 109.082 157.101 106.656C157.303 106.859 157.708 107.263 157.91 107.465C150.23 115.145 141.337 123.027 131.434 131.111C130.424 131.919 129.413 132.728 128.807 133.536C129.413 132.526 129.818 131.515 130.424 130.1C135.072 119.591 140.529 108.678 146.39 98.5724C146.996 98.7745 147.198 98.9766 147.603 99.1787ZM130.626 91.2967C130.828 91.2967 130.828 91.2967 130.626 91.2967C130.424 94.7324 131.839 97.3598 134.264 98.3703C136.689 99.3808 139.923 99.1787 141.944 95.9451C142.348 96.1472 142.55 96.3493 142.954 96.5514C137.497 105.848 131.03 115.751 123.552 126.26C122.744 127.271 122.138 128.281 121.531 129.292C121.733 128.281 122.138 126.867 122.34 125.452C124.159 114.134 126.584 102.21 129.413 90.8925C130.02 90.8925 130.222 91.0946 130.626 91.2967ZM112.437 87.861C112.437 87.861 112.639 87.861 112.437 87.861C113.043 91.0946 115.064 93.5198 117.691 93.7219C120.319 93.924 123.35 92.9135 124.563 89.4778C124.967 89.4778 125.371 89.6799 125.775 89.6799C122.946 100.189 119.106 111.507 114.66 123.229C114.256 124.441 113.851 125.654 113.447 126.665C113.447 125.452 113.245 124.239 113.245 122.825C112.033 111.507 111.224 99.1787 111.224 87.4568C111.628 87.861 112.033 87.861 112.437 87.861ZM124.361 229.333C122.744 226.301 120.319 224.684 117.691 225.088C115.064 225.493 112.437 227.312 112.235 230.949C111.83 230.949 111.426 230.949 111.022 230.949C111.022 220.036 111.628 208.314 112.841 195.581C113.043 194.369 113.043 193.358 113.043 192.348C113.043 192.146 113.043 192.146 113.043 191.944C113.447 192.954 113.851 194.167 114.256 195.581C118.5 206.293 122.34 217.813 125.573 229.13C125.169 229.333 124.765 229.333 124.361 229.333ZM141.742 223.067C141.742 223.067 141.539 223.067 141.742 223.067C139.518 220.44 136.689 219.43 134.264 220.642C131.434 221.855 129.818 224.684 130.626 227.716C130.222 227.918 129.818 227.918 129.413 228.12C126.584 217.611 124.159 206.091 122.138 193.56C121.936 192.146 121.733 191.135 121.329 189.923C121.936 190.933 122.542 191.944 123.552 193.156C130.424 202.453 137.093 212.558 142.954 222.663C142.348 222.865 142.146 222.865 141.742 223.067ZM157.303 212.154C157.303 212.356 157.303 212.356 157.303 212.154C154.474 210.335 151.442 210.133 149.421 211.75C147.805 212.962 146.996 214.781 146.996 216.6C146.996 217.611 147.198 218.621 147.805 219.43C147.4 219.632 147.198 219.834 146.794 220.036C141.337 210.739 135.881 200.028 130.626 188.508C130.02 187.295 129.413 186.285 129.009 185.274C129.818 186.083 130.828 186.891 131.839 187.699C140.933 194.773 150.028 202.857 158.314 211.143C157.91 211.75 157.708 211.952 157.303 212.154ZM169.227 198.007C169.227 198.007 169.227 198.209 169.227 198.007C165.994 196.996 162.962 197.4 161.548 199.624C161.143 200.23 160.133 201.847 160.133 203.463C160.133 204.474 160.537 206.091 161.75 207.506C161.548 207.708 161.143 208.112 160.941 208.314C153.261 200.634 145.379 191.742 137.295 182.041C136.487 181.03 135.678 180.02 134.87 179.413C135.881 180.02 137.093 180.424 138.306 181.03C148.815 185.678 159.729 191.135 170.036 196.794C169.632 197.4 169.43 197.603 169.227 198.007ZM177.109 181.03C177.109 181.232 177.109 181.232 177.109 181.03C173.674 180.828 171.046 182.041 170.036 184.668C169.834 185.274 169.632 186.083 169.632 187.295C169.632 188.508 170.036 190.731 172.461 192.348C172.259 192.752 172.057 192.954 171.855 193.358C162.558 187.902 152.453 181.434 142.146 174.159C141.135 173.35 139.923 172.744 139.114 172.138C140.125 172.34 141.539 172.744 142.954 172.946C154.272 174.563 166.196 176.988 177.514 180.02C177.312 180.424 177.312 180.828 177.109 181.03ZM180.343 162.841C177.109 163.447 174.684 165.266 174.482 167.893C174.482 168.096 174.482 168.298 174.482 168.702C174.482 171.127 175.695 173.754 178.726 174.765C178.726 175.169 178.524 175.573 178.524 175.978C168.015 173.148 156.697 169.51 144.773 165.064C143.56 164.66 142.348 164.256 141.337 164.054C142.55 164.054 143.763 163.851 145.177 163.851C156.495 162.639 168.823 161.83 180.545 161.83C180.545 162.033 180.343 162.437 180.343 162.841Z" fill="#D1D4D8"/>
<circle cx="109" cy="159" r="77" stroke="url(#paint2_linear)" stroke-width="2"/>
<circle cx="109" cy="159" r="101" stroke="url(#paint3_linear)" stroke-width="2"/>
<g filter="url(#filter1_i)">
<circle cx="109" cy="159" r="50" fill="#6F7A7D"/>
</g>
<path fill-rule="evenodd" clip-rule="evenodd" d="M75.6891 151.366C75.0206 152.034 75.0602 153.12 75.6313 153.873C76.8239 155.447 77.5316 157.408 77.5316 159.535C77.5316 161.508 76.9226 163.338 75.8825 164.849C75.3625 165.604 75.3512 166.648 75.9996 167.296C76.6533 167.95 77.7241 167.953 78.2831 167.217C79.9033 165.083 80.8649 162.421 80.8649 159.535C80.8649 156.439 79.7582 153.601 77.9189 151.396C77.3474 150.711 76.3201 150.735 75.6891 151.366ZM81.295 170.247C80.7145 170.958 80.7092 172.006 81.3586 172.655C82.011 173.308 83.0753 173.31 83.6701 172.604C86.646 169.074 88.4393 164.514 88.4393 159.535C88.4393 154.357 86.4998 149.632 83.3076 146.047C82.7062 145.372 81.6671 145.388 81.0276 146.027C80.3661 146.689 80.3871 147.761 80.9979 148.469C83.558 151.439 85.106 155.306 85.106 159.535C85.106 163.598 83.6773 167.326 81.295 170.247ZM87.0569 176.004C86.453 176.696 86.4496 177.746 87.0995 178.396C87.7514 179.048 88.8129 179.05 89.4241 178.36C93.8623 173.348 96.5566 166.756 96.5566 159.535C96.5566 152.12 93.7154 145.369 89.0623 140.31C88.4466 139.641 87.4026 139.652 86.7596 140.295C86.1012 140.954 86.1152 142.02 86.7402 142.711C90.7691 147.159 93.2233 153.061 93.2233 159.535C93.2233 165.839 90.8973 171.599 87.0569 176.004Z" fill="white"/>
<mask id="mask0" mask-type="alpha" maskUnits="userSpaceOnUse" x="59" y="109" width="100" height="100">
<circle cx="109" cy="159" r="50" fill="#020A0E"/>
</mask>
<g mask="url(#mask0)">
<path fill-rule="evenodd" clip-rule="evenodd" d="M129.609 180.434C130.744 180.065 131.757 179.369 132.551 178.399L139.604 203.405H174.614V112.334H133.542V113.763V140.14C130.415 138.036 127.253 137.115 124.251 137.15C120.5 137.194 117.141 138.728 114.553 141.047C109.454 145.617 107.049 153.589 110.896 159.866C114.299 165.418 117.254 169.986 119.36 173.167C120.413 174.758 121.254 176.002 121.832 176.85C122.121 177.274 122.345 177.599 122.496 177.818C122.572 177.927 122.63 178.011 122.669 178.067L122.729 178.153C122.747 178.178 122.765 178.203 122.784 178.226C124.568 180.457 127.234 181.205 129.609 180.434ZM125.764 165.903C124.179 164.318 123.286 162.17 123.279 159.929C123.264 158.256 123.745 156.617 124.659 155.217C125.574 153.816 126.882 152.718 128.419 152.058C127.933 151.09 127.134 150.315 126.152 149.859C125.169 149.403 124.061 149.294 123.008 149.548C121.956 149.803 121.02 150.407 120.355 151.261C119.689 152.116 119.333 153.17 119.343 154.253C119.343 154.608 119.202 154.949 118.951 155.2C118.7 155.451 118.36 155.592 118.005 155.592C117.65 155.592 117.309 155.451 117.058 155.2C116.807 154.949 116.666 154.608 116.666 154.253C116.67 152.401 117.36 150.616 118.603 149.242C119.845 147.869 121.552 147.004 123.395 146.814C125.237 146.624 127.085 147.124 128.581 148.216C130.077 149.308 131.116 150.915 131.498 152.727C131.562 153.071 131.493 153.426 131.304 153.72C131.115 154.014 130.82 154.224 130.48 154.307C129.111 154.636 127.909 155.453 127.1 156.605C126.29 157.757 125.928 159.164 126.083 160.564C126.237 161.963 126.897 163.258 127.938 164.206C128.979 165.154 130.331 165.689 131.738 165.712C132.094 165.712 132.434 165.853 132.685 166.104C132.936 166.355 133.077 166.695 133.077 167.05C133.07 167.403 132.927 167.74 132.677 167.989C132.428 168.239 132.091 168.382 131.738 168.389C129.497 168.382 127.349 167.488 125.764 165.903Z" fill="white"/>
</g>
<path d="M57.3 91.6998L52 84.2998L54.4 82.5998C55.2 81.9998 55.9 81.7998 56.6 81.7998C57.3 81.7998 57.8 82.1998 58.3 82.7998C58.5 83.0998 58.7 83.4998 58.7 83.8998C58.7 84.2998 58.6 84.6998 58.3 85.0998C58.8 84.8998 59.2 84.8998 59.7 85.0998C60.2 85.1998 60.5 85.4998 60.8 85.9998C61.3 86.6998 61.4 87.2998 61.3 87.9998C61.1 88.6998 60.7 89.2998 59.9 89.8998L57.3 91.6998ZM55.2 86.7998L56.7 85.6998C57.1 85.3998 57.4 84.9998 57.5 84.5998C57.6 84.1998 57.5 83.7998 57.3 83.4998C57 83.0998 56.7 82.8998 56.3 82.8998C55.9 82.8998 55.5 83.0998 55 83.3998L53.6 84.3998L55.2 86.7998ZM55.8 87.5998L57.7 90.1998L59.3 88.9998C59.8 88.6998 60 88.2998 60.1 87.8998C60.2 87.4998 60.1 87.0998 59.8 86.6998C59.2 85.7998 58.4 85.6998 57.4 86.3998L55.8 87.5998Z" fill="white"/>
<path d="M61.2985 81.8002C61.3985 81.0002 61.7984 80.4002 62.4984 80.0002C63.6984 79.3002 64.6984 79.6002 65.5984 81.0002L67.8984 84.8002L66.8984 85.4002L64.5984 81.6002C64.2984 81.2002 64.0985 80.9002 63.7985 80.8002C63.4985 80.7002 63.0984 80.8002 62.6984 81.0002C62.3984 81.2002 62.1984 81.4002 61.9984 81.8002C61.7984 82.2002 61.7985 82.5002 61.7985 82.8002L64.2985 86.9002L63.2985 87.5002L58.3984 79.3002L59.3984 78.7002L61.2985 81.8002Z" fill="white"/>
<path d="M72.8008 82.1999C72.7008 82.0999 72.5008 81.8999 72.3008 81.5999C72.1008 82.2999 71.6008 82.8999 71.0008 83.1999C70.4008 83.4999 69.8008 83.5999 69.3008 83.3999C68.8008 83.2999 68.3008 82.8999 68.1008 82.3999C67.8008 81.7999 67.8008 81.1999 68.1008 80.5999C68.4008 79.9999 69.0008 79.4999 69.9008 79.0999L70.9008 78.5999L70.7008 78.0999C70.5008 77.6999 70.3008 77.4999 69.9008 77.3999C69.5008 77.2999 69.2008 77.2999 68.8008 77.5999C68.4008 77.7999 68.2008 77.9999 68.0008 78.2999C67.8008 78.5999 67.8008 78.8999 68.0008 79.1999L67.0008 79.6999C66.9008 79.3999 66.8008 79.0999 66.9008 78.6999C67.0008 78.2999 67.2008 77.8999 67.4008 77.5999C67.7008 77.2999 68.0008 76.9999 68.5008 76.7999C69.2008 76.4999 69.8008 76.3999 70.4008 76.4999C71.0008 76.6999 71.4008 76.9999 71.7008 77.5999L73.1008 80.3999C73.4008 80.9999 73.7008 81.3999 74.0008 81.5999V81.6999L72.8008 82.1999ZM70.7008 82.2999C71.0008 82.0999 71.3008 81.8999 71.5008 81.5999C71.7008 81.2999 71.8008 80.9999 71.8008 80.5999L71.2008 79.3999L70.4008 79.7999C69.1008 80.3999 68.7008 81.0999 69.1008 81.8999C69.3008 82.1999 69.5008 82.3999 69.8008 82.4999C70.0008 82.4999 70.4008 82.4999 70.7008 82.2999Z" fill="white"/>
<path d="M78.0003 78.0999C77.9003 77.7999 77.7003 77.5999 77.4003 77.5999C77.1003 77.5999 76.7003 77.4999 76.1003 77.5999C75.5003 77.6999 75.0003 77.6999 74.6003 77.6999C74.2003 77.6999 73.9003 77.6 73.7003 77.4C73.5003 77.2 73.3003 76.9999 73.1003 76.6999C72.9003 76.1999 72.9003 75.6999 73.2003 75.0999C73.5003 74.5999 74.0003 74.2 74.6003 73.9C75.3003 73.6 76.0003 73.5999 76.5003 73.6999C77.1003 73.8999 77.5003 74.2999 77.7003 74.7999L76.6003 75.1999C76.5003 74.8999 76.3003 74.6999 75.9003 74.5999C75.6003 74.4999 75.2003 74.4999 74.8003 74.6999C74.4003 74.8999 74.1003 75.0999 74.0003 75.2999C73.8003 75.5999 73.8003 75.7999 73.9003 76.0999C74.0003 76.3999 74.2003 76.4999 74.4003 76.5999C74.6003 76.6999 75.1003 76.5999 75.7003 76.4999C76.3003 76.3999 76.8003 76.4 77.2003 76.4C77.6003 76.4 77.9003 76.4999 78.2003 76.6999C78.5003 76.8999 78.6003 77.0999 78.8003 77.4999C79.0003 78.0999 79.0003 78.5999 78.7003 79.0999C78.4003 79.5999 77.9003 79.9999 77.2003 80.2999C76.7003 80.4999 76.2003 80.5999 75.8003 80.5999C75.3003 80.5999 74.9003 80.4999 74.6003 80.1999C74.3003 79.9999 74.0003 79.6999 73.9003 79.2999L75.0003 78.9C75.2003 79.3 75.4003 79.4999 75.8003 79.5999C76.2003 79.6999 76.5003 79.6999 77.0003 79.4999C77.4003 79.2999 77.7003 79.1 77.9003 78.9C78.1003 78.7 78.1003 78.2999 78.0003 78.0999Z" fill="white"/>
<path d="M80.1 72.9C80.4 72.1 80.9 71.6 81.7 71.4C83.1 71 84 71.5 84.5 73L85.9 77.2L84.8 77.6L83.4 73.4C83.2 72.9 83 72.6 82.8 72.5C82.5 72.3 82.2 72.3 81.7 72.5C81.3 72.6 81.1 72.8 80.9 73.1C80.7 73.4 80.6 73.7 80.5 74L82 78.6L80.9 79L78 69.9L79.1 69.5L80.1 72.9Z" fill="white"/>
<path d="M85.1992 68.6998C85.1992 68.4998 85.1992 68.3998 85.1992 68.1998C85.2992 67.9998 85.3992 67.8998 85.5992 67.8998C85.7992 67.7998 85.9992 67.8998 86.0992 67.9998C86.1992 68.0998 86.2992 68.1998 86.3992 68.3998C86.4992 68.5998 86.3993 68.6998 86.2993 68.8998C86.1993 68.9998 86.0992 69.1998 85.8992 69.1998C85.6992 69.1998 85.4992 69.1998 85.3992 69.0998C85.2992 68.9998 85.1992 68.7998 85.1992 68.6998ZM88.4992 76.5998L87.3992 76.8998L85.6992 70.3998L86.7993 70.0998L88.4992 76.5998Z" fill="white"/>
<path d="M89.8008 69.4002L90.0007 70.2002C90.4007 69.5002 91.0008 69.0002 91.8008 68.9002C93.2008 68.6002 94.1008 69.3002 94.4008 70.8002L95.3008 75.2002L94.2007 75.4002L93.3008 71.0002C93.2008 70.5002 93.0008 70.2002 92.8008 70.0002C92.5008 69.8002 92.2007 69.8002 91.7007 69.9002C91.3007 70.0002 91.0008 70.1002 90.8008 70.4002C90.6008 70.7002 90.4008 70.9002 90.3008 71.3002L91.2007 76.0002L90.1008 76.2002L88.8008 69.6002L89.8008 69.4002Z" fill="white"/>
<path d="M95.5 66.5002C95.5 66.3002 95.5 66.2002 95.6 66.0002C95.7 65.9002 95.9 65.8002 96.1 65.7002C96.3 65.7002 96.5 65.7002 96.6 65.8002C96.7 65.9002 96.8 66.1002 96.8 66.2002C96.8 66.4002 96.8 66.5002 96.7 66.7002C96.6 66.8002 96.4 66.9002 96.2 67.0002C96 67.0002 95.8 67.0002 95.7 66.9002C95.6 66.9002 95.5 66.7002 95.5 66.5002ZM97.9 74.8002L96.8 75.0002L95.9 68.3002L97 68.1002L97.9 74.8002Z" fill="white"/>
<path d="M102.199 69.5002C102.199 69.1002 102.299 68.8002 102.499 68.6002C102.699 68.4002 102.999 68.2002 103.399 68.2002C103.799 68.2002 104.099 68.3002 104.299 68.5002C104.499 68.7002 104.699 69.0002 104.699 69.4002V69.6002C104.699 70.0002 104.599 70.3002 104.399 70.5002C104.199 70.7002 103.899 70.9002 103.499 70.9002C103.099 70.9002 102.799 70.8002 102.599 70.6002C102.399 70.4002 102.199 70.1002 102.199 69.7002V69.5002Z" fill="white"/>
<path d="M112.501 70.1C111.501 69.8 110.801 69.4 110.301 68.9C109.801 68.5 109.601 67.9 109.701 67.3C109.701 66.6 110.001 66 110.601 65.6C111.201 65.2 111.901 65 112.901 65C113.501 65 114.101 65.2 114.601 65.4C115.101 65.6 115.401 66 115.701 66.4C116.001 66.8 116.101 67.3 116.001 67.8H114.801C114.801 67.3 114.701 66.8 114.301 66.5C114.001 66.2 113.501 66 112.801 66C112.201 66 111.701 66.1 111.401 66.3C111.101 66.5 110.901 66.9 110.901 67.4C110.901 67.8 111.001 68.1 111.301 68.4C111.601 68.7 112.101 68.9 112.901 69.2C113.601 69.4 114.201 69.7 114.601 70C115.001 70.3 115.301 70.6 115.501 70.9C115.701 71.2 115.801 71.7 115.801 72.1C115.801 72.8 115.501 73.4 114.901 73.8C114.301 74.2 113.501 74.4 112.601 74.4C112.001 74.4 111.401 74.2 110.901 74C110.401 73.7 110.001 73.4 109.701 73C109.401 72.6 109.301 72.1 109.301 71.6H110.501C110.501 72.1 110.701 72.6 111.101 72.9C111.501 73.2 112.001 73.4 112.701 73.4C113.301 73.4 113.801 73.3 114.201 73.1C114.501 72.9 114.701 72.5 114.701 72.1C114.701 71.7 114.601 71.3 114.301 71.1C113.901 70.6 113.301 70.4 112.501 70.1Z" fill="white"/>
<path d="M120.901 74.2001C120.401 74.7001 119.701 74.9001 118.801 74.7001C118.101 74.6001 117.601 74.3001 117.201 73.9001C116.901 73.4001 116.801 72.8001 116.901 72.0001L117.401 67.6001L118.501 67.7001L118.001 72.0001C117.901 73.0001 118.201 73.6001 119.101 73.7001C120.001 73.8001 120.601 73.5001 121.001 72.9001L121.601 68.0001L122.701 68.1001L121.901 74.8001L120.801 74.7001L120.901 74.2001Z" fill="white"/>
<path d="M125.7 68.8001L125.6 69.6001C126.2 69.1001 127 68.9001 127.8 69.0001C129.2 69.3001 129.7 70.2001 129.4 71.8001L128.5 76.2001L127.4 76.0001L128.3 71.6001C128.4 71.1001 128.4 70.7001 128.2 70.5001C128 70.2001 127.7 70.0001 127.3 70.0001C126.9 69.9001 126.6 70.0001 126.3 70.1001C126 70.2001 125.7 70.5001 125.5 70.7001L124.6 75.4001L123.5 75.2001L124.8 68.6001L125.7 68.8001Z" fill="white"/>
<path d="M130.501 73.2C130.701 72.6 131.001 72 131.401 71.6C131.801 71.2 132.301 70.9 132.801 70.7C133.301 70.6 133.901 70.6 134.401 70.7C135.301 71 135.901 71.5 136.301 72.2C136.701 73 136.701 73.9 136.401 74.9V75C136.201 75.6 135.901 76.2 135.601 76.6C135.201 77 134.801 77.3 134.201 77.5C133.701 77.7 133.101 77.6 132.501 77.5C131.601 77.2 131.001 76.7 130.601 76C130.301 75.2 130.201 74.3 130.501 73.2ZM131.601 73.7C131.401 74.4 131.401 75 131.601 75.6C131.801 76.1 132.201 76.5 132.801 76.6C133.401 76.8 133.901 76.7 134.301 76.3C134.801 76 135.101 75.4 135.301 74.6C135.501 73.9 135.501 73.3 135.301 72.7C135.101 72.2 134.701 71.8 134.101 71.7C133.601 71.5 133.101 71.6 132.601 72C132.101 72.4 131.801 72.9 131.601 73.7Z" fill="white"/>
<path d="M140.799 80.1999L139.699 79.7999L142.999 71.3999L144.099 71.7999L140.799 80.1999Z" fill="white"/>
<path d="M146.2 75.1999L145.9 75.9999C146.6 75.5999 147.4 75.5999 148.1 75.9999C149.4 76.5999 149.7 77.5999 149 79.0999L147.1 83.0999L146.1 82.5999L148 78.5999C148.2 78.1999 148.3 77.7999 148.2 77.4999C148.1 77.1999 147.8 76.8999 147.4 76.7999C147.1 76.5999 146.7 76.5999 146.4 76.6999C146.1 76.7999 145.8 76.8999 145.5 77.0999L143.5 81.4999L142.5 80.9999L145.3 74.8999L146.2 75.1999Z" fill="white"/>
<path d="M149.9 80.5999C150.4 79.6999 151 79.0999 151.8 78.7999C152.5 78.4999 153.3 78.4999 153.9 78.8999C154.6 79.2999 155 79.7999 155.1 80.4999L156.8 77.3999L157.8 77.9999L153.1 86.2999L152.2 85.7999L152.5 85.0999C151.8 85.3999 151.1 85.2999 150.4 84.8999C149.7 84.4999 149.3 83.8999 149.2 83.0999C149.1 82.2999 149.3 81.4999 149.9 80.5999ZM150.8 81.1999C150.4 81.8999 150.3 82.4999 150.3 82.9999C150.4 83.4999 150.6 83.8999 151.1 84.1999C151.7 84.5999 152.4 84.4999 153 84.0999L154.5 81.3999C154.5 80.6999 154.2 80.0999 153.6 79.7999C153.1 79.4999 152.6 79.4999 152.1 79.6999C151.7 79.9999 151.2 80.4999 150.8 81.1999Z" fill="white"/>
<path d="M155.398 87.9002L154.398 87.3002L158.098 81.6002L159.098 82.2002L155.398 87.9002ZM158.998 80.0002C159.098 79.8002 159.198 79.7002 159.398 79.7002C159.598 79.7002 159.698 79.7002 159.898 79.8002C160.098 79.9002 160.198 80.1002 160.198 80.2002C160.198 80.4002 160.198 80.5002 160.098 80.7002C159.998 80.9002 159.898 81.0002 159.698 81.0002C159.498 81.0002 159.398 81.0002 159.198 80.9002C158.998 80.8002 158.898 80.6002 158.898 80.5002C158.898 80.3002 158.898 80.2002 158.998 80.0002Z" fill="white"/>
<path d="M160.198 91.2C160.198 91.1 160.298 90.8 160.498 90.5C159.698 90.6 159.098 90.5 158.498 90C157.998 89.6 157.598 89.1 157.498 88.6C157.398 88 157.498 87.5 157.798 87.1C158.198 86.5 158.698 86.2 159.398 86.2C160.098 86.2 160.798 86.5 161.598 87.1L162.498 87.8L162.798 87.4C162.998 87.1 163.098 86.7 163.098 86.4C163.098 86.1 162.798 85.8 162.398 85.5C162.098 85.3 161.698 85.1 161.398 85.1C161.098 85.1 160.798 85.2 160.598 85.5L159.698 84.8C159.898 84.5 160.198 84.3 160.598 84.2C160.998 84.1 161.398 84.1 161.798 84.2C162.198 84.3 162.698 84.5 163.098 84.8C163.698 85.3 164.098 85.8 164.198 86.3C164.298 86.9 164.198 87.4 163.798 88L161.998 90.5C161.598 91 161.398 91.4 161.298 91.8L161.198 91.9L160.198 91.2ZM159.098 89.3C159.398 89.5 159.698 89.6 160.098 89.7C160.498 89.7 160.798 89.7 161.098 89.5L161.898 88.4L161.198 87.9C160.098 87.1 159.198 87 158.798 87.7C158.598 88 158.498 88.3 158.598 88.6C158.598 88.8 158.798 89.1 159.098 89.3Z" fill="white"/>
<path d="M18 181.1L26.7 178.7L27.5 181.6C27.8 182.5 27.8 183.3 27.5 183.9C27.2 184.5 26.7 184.9 26 185.1C25.6 185.2 25.2 185.2 24.8 185.1C24.4 185 24.1 184.7 23.8 184.4C23.8 184.9 23.7 185.4 23.4 185.7C23.1 186 22.7 186.3 22.2 186.5C21.4 186.7 20.7 186.6 20.1 186.3C19.5 186 19.1 185.3 18.8 184.3L18 181.1ZM22.4 181.1L19.3 182L19.8 183.9C19.9 184.4 20.2 184.8 20.6 185.1C21 185.3 21.4 185.4 21.9 185.2C23 184.9 23.3 184.2 23 183L22.4 181.1ZM23.3 180.8L23.8 182.5C23.9 183 24.2 183.4 24.5 183.6C24.8 183.8 25.2 183.9 25.7 183.8C26.2 183.7 26.5 183.4 26.6 183.1C26.7 182.8 26.7 182.3 26.6 181.7L26.1 180L23.3 180.8Z" fill="white"/>
<path d="M26.2007 187.9C27.0007 188.2 27.5008 188.7 27.8008 189.4C28.3008 190.7 27.8008 191.7 26.3008 192.3L22.1008 193.8L21.7007 192.7L25.9008 191.2C26.4008 191 26.7008 190.8 26.8008 190.5C26.9008 190.2 26.9008 189.9 26.8008 189.4C26.7008 189 26.5007 188.8 26.2007 188.6C25.9007 188.4 25.6007 188.3 25.2007 188.3L20.7007 190L20.3008 188.9L29.3008 185.6L29.7007 186.7L26.2007 187.9Z" fill="white"/>
<path d="M24.7012 199.5C24.8012 199.4 25.0013 199.2 25.3013 199.1C24.6013 198.8 24.0012 198.4 23.7012 197.7C23.4012 197.1 23.4012 196.5 23.5012 196C23.6012 195.5 24.0012 195.1 24.5012 194.8C25.1012 194.5 25.7013 194.5 26.3013 194.8C26.9013 195.1 27.4013 195.7 27.8013 196.6L28.3013 197.6L28.8013 197.4C29.2013 197.2 29.4012 197 29.5012 196.7C29.6012 196.4 29.6012 196 29.4012 195.6C29.2012 195.2 29.0012 195 28.7012 194.8C28.4012 194.6 28.1013 194.6 27.8013 194.7L27.3013 193.6C27.6013 193.5 27.9013 193.4 28.3013 193.5C28.7013 193.6 29.0012 193.8 29.4012 194.1C29.7012 194.4 30.0012 194.8 30.2012 195.2C30.5012 195.9 30.6012 196.5 30.4012 197.1C30.2012 197.7 29.8012 198.1 29.2012 198.4L26.4012 199.7C25.8012 200 25.4012 200.2 25.2012 200.5H25.1012L24.7012 199.5ZM24.7012 197.4C24.9012 197.7 25.1012 198 25.4012 198.2C25.7012 198.4 26.0012 198.5 26.4012 198.5L27.7012 197.9L27.3013 197.1C26.7013 195.8 26.0013 195.4 25.3013 195.7C25.0013 195.9 24.8012 196.1 24.7012 196.4C24.5012 196.8 24.5012 197.1 24.7012 197.4Z" fill="white"/>
<path d="M29.4992 204.9C29.7992 204.7 29.8992 204.5 29.9992 204.2C29.9992 203.9 29.9993 203.5 29.7993 202.9C29.5993 202.3 29.4992 201.9 29.4992 201.5C29.4992 201.1 29.4992 200.8 29.6992 200.5C29.7992 200.2 29.9993 200 30.2993 199.9C30.7993 199.6 31.2992 199.6 31.8992 199.8C32.4992 200 32.8993 200.4 33.2993 201.1C33.6993 201.8 33.7992 202.4 33.6992 203C33.5992 203.6 33.2992 204.1 32.6992 204.4L32.0992 203.4C32.3992 203.2 32.4992 203 32.5992 202.7C32.6992 202.4 32.5992 202 32.3992 201.6C32.1992 201.2 31.9992 201 31.6992 200.9C31.3992 200.8 31.1992 200.8 30.8992 200.9C30.6992 201 30.4992 201.2 30.4992 201.5C30.4992 201.8 30.5992 202.2 30.6992 202.7C30.8992 203.3 30.9992 203.7 30.9992 204.1C30.9992 204.5 30.9993 204.8 30.7993 205.1C30.6993 205.4 30.3992 205.6 30.0992 205.8C29.5992 206.1 28.9992 206.1 28.4992 205.9C27.8992 205.7 27.4992 205.2 27.0992 204.5C26.7992 204 26.6992 203.6 26.6992 203.1C26.6992 202.6 26.6992 202.2 26.8992 201.9C27.0992 201.5 27.3992 201.2 27.6992 201L28.2993 202C27.9993 202.2 27.7992 202.5 27.6992 202.9C27.5992 203.3 27.6992 203.7 27.9992 204.1C28.1992 204.5 28.4992 204.7 28.6992 204.9C28.9992 205 29.2992 205 29.4992 204.9Z" fill="white"/>
<path d="M35.1016 206C35.9016 206.1 36.5015 206.5 37.0015 207.1C37.8015 208.3 37.5015 209.3 36.2015 210.2L32.5015 212.7L31.9016 211.7L35.6016 209.2C36.0016 208.9 36.2016 208.6 36.3016 208.3C36.4016 208 36.3015 207.6 36.0015 207.3C35.8015 207 35.5015 206.8 35.2015 206.6C34.9015 206.4 34.5015 206.4 34.2015 206.5L30.2015 209.2L29.6016 208.2L37.6016 202.9L38.2015 203.9L35.1016 206Z" fill="white"/>
<path d="M36.2007 217.7C36.3007 217.6 36.4007 217.4 36.7007 217.1C35.9007 217 35.3008 216.7 34.9008 216.1C34.5008 215.6 34.3008 215 34.3008 214.5C34.3008 213.9 34.6007 213.5 35.0007 213.1C35.6007 212.7 36.1008 212.5 36.8008 212.7C37.4008 212.9 38.0008 213.4 38.6008 214.1L39.3008 215L39.7007 214.7C40.0007 214.5 40.2007 214.2 40.2007 213.8C40.2007 213.5 40.1008 213.1 39.8008 212.7C39.5008 212.4 39.3008 212.2 38.9008 212.1C38.5008 212 38.3007 212.1 38.0007 212.2L37.3008 211.3C37.6008 211.1 37.9008 211 38.3008 211C38.7008 211 39.1007 211.1 39.5007 211.3C39.9007 211.5 40.2007 211.8 40.5007 212.2C41.0007 212.8 41.2007 213.4 41.2007 214C41.2007 214.6 40.9008 215.1 40.4008 215.5L38.0007 217.4C37.5007 217.8 37.2007 218.1 37.0007 218.5L36.9008 218.6L36.2007 217.7ZM35.8008 215.7C36.0008 216 36.3007 216.2 36.7007 216.3C37.0007 216.4 37.4007 216.5 37.7007 216.4L38.8008 215.5L38.2007 214.8C37.3007 213.7 36.6008 213.4 35.9008 213.9C35.6008 214.1 35.5007 214.4 35.5007 214.7C35.4007 215.1 35.5008 215.4 35.8008 215.7Z" fill="white"/>
<path d="M45.2986 221.8C44.7986 220.9 44.4986 220.1 44.4986 219.4C44.4986 218.8 44.6986 218.2 45.0986 217.8C45.5986 217.3 46.1986 217.1 46.9986 217.2C47.6986 217.3 48.3986 217.6 49.0986 218.3C49.4986 218.7 49.7986 219.2 49.9986 219.7C50.1986 220.2 50.1986 220.7 50.0986 221.2C49.9986 221.7 49.7986 222.1 49.3986 222.5L48.5986 221.6C48.9986 221.2 49.1986 220.8 49.1986 220.3C49.1986 219.8 48.8986 219.4 48.4986 218.9C48.0986 218.5 47.6986 218.2 47.2986 218.2C46.8986 218.2 46.4986 218.3 46.1986 218.6C45.8986 218.9 45.7986 219.2 45.8986 219.6C45.8986 220 46.0986 220.5 46.4986 221.2C46.8986 221.9 47.0986 222.5 47.1986 223C47.2986 223.5 47.2986 223.9 47.1986 224.3C47.0986 224.7 46.8986 225 46.5986 225.4C46.0986 225.9 45.4986 226.1 44.6986 226C43.9986 225.9 43.2986 225.5 42.5986 224.8C42.1986 224.4 41.7986 223.9 41.5986 223.3C41.3986 222.7 41.2986 222.2 41.3986 221.7C41.4986 221.2 41.6986 220.8 42.0986 220.4L42.8986 221.3C42.4986 221.7 42.2986 222.1 42.3986 222.6C42.4986 223.1 42.6986 223.6 43.1986 224.1C43.5986 224.5 44.0986 224.8 44.4986 224.9C44.8986 225 45.2986 224.8 45.5986 224.5C45.8986 224.2 46.0986 223.8 45.9986 223.4C45.9986 223.1 45.6986 222.6 45.2986 221.8Z" fill="white"/>
<path d="M49.3018 230.9C49.3018 230.8 49.4018 230.5 49.6018 230.3C48.8018 230.4 48.2018 230.2 47.6018 229.7C47.1018 229.3 46.8018 228.8 46.7018 228.2C46.6018 227.6 46.8018 227.1 47.1018 226.7C47.6018 226.2 48.1018 225.9 48.8018 226C49.5018 226.1 50.2018 226.4 50.9018 227L51.8018 227.7L52.1018 227.3C52.4018 227 52.5018 226.7 52.5018 226.3C52.5018 225.9 52.3018 225.6 51.9018 225.3C51.6018 225 51.3018 224.9 50.9018 224.9C50.6018 224.9 50.3018 225 50.1018 225.2L49.2018 224.4C49.4018 224.1 49.7018 224 50.1018 223.9C50.5018 223.8 50.9018 223.8 51.3018 224C51.7018 224.1 52.1018 224.4 52.5018 224.7C53.1018 225.2 53.4018 225.7 53.5018 226.3C53.6018 226.9 53.4018 227.4 53.0018 228L51.0018 230.4C50.6018 230.9 50.3018 231.3 50.2018 231.7L50.1018 231.8L49.3018 230.9ZM48.4018 229C48.7018 229.2 49.0018 229.4 49.4018 229.5C49.8018 229.6 50.1018 229.5 50.4018 229.4L51.3018 228.4L50.6018 227.8C49.5018 226.9 48.7018 226.7 48.2018 227.4C48.0018 227.7 47.9018 228 47.9018 228.3C47.9018 228.5 48.1018 228.8 48.4018 229Z" fill="white"/>
<path d="M56.4992 228.1L56.0992 228.7C56.7992 228.5 57.5992 228.6 58.1992 229.1C58.9992 229.6 59.2992 230.3 59.1992 231.1C59.5992 231 59.9992 230.9 60.3992 231C60.7992 231 61.1992 231.2 61.5992 231.5C62.7992 232.3 62.9992 233.4 62.0992 234.7L59.4992 238.4L58.5992 237.7L61.0992 234.1C61.3992 233.7 61.4992 233.3 61.3992 233C61.3992 232.7 61.0992 232.4 60.6992 232.1C60.2992 231.9 59.9992 231.8 59.5992 231.8C59.1992 231.8 58.8992 232 58.5992 232.4L55.9992 236.1L54.9992 235.4L57.4992 231.8C58.0992 231 57.8992 230.3 57.1992 229.8C56.5992 229.4 55.9992 229.3 55.3992 229.7L52.5992 233.7L51.6992 233L55.5992 227.5L56.4992 228.1Z" fill="white"/>
<path d="M64.9981 241.5C64.9981 241.4 65.0981 241.1 65.1981 240.8C64.4981 241 63.7981 241 63.0981 240.6C62.4981 240.3 62.0981 239.8 61.8981 239.3C61.6981 238.8 61.7981 238.2 61.9981 237.7C62.2981 237.1 62.7981 236.7 63.4981 236.7C64.1981 236.6 64.8981 236.8 65.7981 237.3L66.7981 237.8L67.0981 237.3C67.2981 236.9 67.2981 236.6 67.2981 236.3C67.1981 236 66.9981 235.7 66.4981 235.5C66.0981 235.3 65.7981 235.2 65.3981 235.3C65.0981 235.3 64.7981 235.5 64.6981 235.8L63.6981 235.2C63.8981 234.9 64.0981 234.7 64.4981 234.5C64.8981 234.3 65.2981 234.3 65.6981 234.3C66.0981 234.3 66.5981 234.5 66.9981 234.7C67.6981 235.1 68.0981 235.5 68.2981 236.1C68.4981 236.7 68.3981 237.2 68.0981 237.8L66.5981 240.5C66.2981 241 66.0981 241.5 66.0981 241.9V242L64.9981 241.5ZM63.7981 239.8C64.0981 240 64.4981 240.1 64.7981 240.1C65.0981 240.1 65.4981 240 65.7981 239.8L66.4981 238.6L65.6981 238.2C64.4981 237.5 63.5981 237.5 63.1981 238.3C62.9981 238.6 62.9981 238.9 63.0981 239.2C63.1981 239.4 63.4981 239.6 63.7981 239.8Z" fill="white"/>
<path d="M73.0992 239.2C72.9992 239.1 72.7992 239 72.5992 238.9C71.8992 238.6 71.2993 238.6 70.7993 239.1L68.6992 243.4L67.6992 242.9L70.5992 236.8L71.5992 237.3L71.2993 238C71.8993 237.6 72.4992 237.6 73.0992 237.9C73.2992 238 73.3992 238.1 73.4992 238.2L73.0992 239.2Z" fill="white"/>
<path d="M76.7993 237.8L76.1993 239.3L77.3993 239.8L77.0993 240.6L75.8993 240.1L74.2993 244C74.1993 244.2 74.1993 244.5 74.1993 244.6C74.2993 244.8 74.3993 244.9 74.6993 245C74.7993 245.1 74.9993 245.1 75.1993 245.1L74.7993 246C74.4993 246 74.1993 245.9 73.8993 245.8C73.3993 245.6 73.0993 245.3 72.9993 244.9C72.8993 244.5 72.8993 244.1 73.0993 243.5L74.6993 239.6L73.5993 239.1L73.8993 238.3L74.9993 238.8L75.5993 237.3L76.7993 237.8Z" fill="white"/>
<path d="M79.2993 241.4C79.9993 241 80.6992 240.9 81.4992 241.2C82.7992 241.7 83.2993 242.7 82.7993 244.2L81.3992 248.4L80.2993 248L81.6992 243.8C81.8992 243.3 81.8992 243 81.6992 242.7C81.5992 242.4 81.2993 242.2 80.7993 242C80.3993 241.9 80.0993 241.9 79.7993 242C79.4993 242.1 79.1992 242.3 78.8992 242.5L77.2993 247L76.1992 246.6L79.2993 237.5L80.3992 237.9L79.2993 241.4Z" fill="white"/>
<path d="M87.2985 250C87.2985 249.9 87.2985 249.6 87.2985 249.3C86.5985 249.7 85.9984 249.8 85.1984 249.6C84.5984 249.4 84.0985 249.1 83.7985 248.6C83.4985 248.1 83.3984 247.6 83.4984 247.1C83.6984 246.4 84.0984 246 84.6984 245.7C85.2984 245.5 86.0984 245.5 86.9984 245.7L88.0985 246L88.1984 245.5C88.2984 245.1 88.2985 244.8 88.0985 244.5C87.8985 244.2 87.5984 244 87.1984 243.9C86.7984 243.8 86.3985 243.8 86.0985 243.9C85.7985 244 85.5984 244.2 85.4984 244.5L84.3985 244.2C84.4985 243.9 84.6984 243.6 84.9984 243.3C85.2984 243.1 85.6985 242.9 86.0985 242.8C86.4985 242.7 86.9984 242.7 87.4984 242.9C88.2984 243.1 88.7985 243.4 89.0985 243.9C89.3985 244.4 89.4985 245 89.3985 245.6L88.5985 248.6C88.3985 249.2 88.3984 249.7 88.4984 250.1V250.2L87.2985 250ZM85.6984 248.6C86.0984 248.7 86.3985 248.7 86.7985 248.6C87.1985 248.5 87.3984 248.3 87.6984 248.1L87.9984 246.8L87.0985 246.6C85.6985 246.3 84.8984 246.5 84.6984 247.3C84.5984 247.6 84.6985 248 84.7985 248.2C84.8985 248.4 85.2984 248.5 85.6984 248.6Z" fill="white"/>
<path d="M92.8 247.9L92 248.5L91.6 250.8L90.5 250.6L92.2 241.2L93.3 241.4L92.3 247.1L93 246.5L95.5 244.7L96.9 244.9L93.8 247.2L96 251.6L94.7 251.4L92.8 247.9Z" fill="white"/>
<path d="M100.702 247.3C100.702 246.9 100.902 246.7 101.102 246.4C101.302 246.2 101.702 246.1 102.002 246.1C102.402 246.1 102.702 246.3 102.902 246.5C103.102 246.7 103.202 247.1 103.202 247.4V247.6C103.202 248 103.002 248.2 102.802 248.5C102.602 248.7 102.202 248.8 101.802 248.8C101.402 248.8 101.102 248.6 100.902 248.4C100.702 248.2 100.602 247.8 100.602 247.5L100.702 247.3Z" fill="white"/>
<path d="M109.499 249L109.599 252.5H108.399L108.199 243.4L111.499 243.3C112.499 243.3 113.299 243.5 113.799 244C114.299 244.5 114.699 245.2 114.699 246C114.699 246.9 114.499 247.6 113.899 248.1C113.299 248.6 112.599 248.8 111.599 248.9L109.499 249ZM109.499 248L111.599 247.9C112.199 247.9 112.699 247.7 113.099 247.4C113.499 247.1 113.599 246.6 113.599 246.1C113.599 245.6 113.399 245.1 113.099 244.8C112.799 244.5 112.299 244.3 111.699 244.3L109.499 244.4V248Z" fill="white"/>
<path d="M117.798 252.1L116.698 252.2L115.898 242.7L116.998 242.6L117.798 252.1Z" fill="white"/>
<path d="M124.002 251.3C123.902 251.2 123.802 251 123.702 250.6C123.202 251.2 122.702 251.6 121.902 251.7C121.202 251.8 120.702 251.7 120.202 251.4C119.702 251.1 119.402 250.6 119.402 250.1C119.302 249.4 119.502 248.8 120.002 248.4C120.502 247.9 121.202 247.6 122.102 247.5L123.202 247.3L123.102 246.8C123.002 246.4 122.902 246.1 122.602 245.9C122.302 245.7 122.002 245.6 121.502 245.7C121.102 245.8 120.802 245.9 120.502 246.2C120.302 246.4 120.202 246.7 120.202 247L119.102 247.2C119.102 246.9 119.102 246.5 119.302 246.2C119.502 245.9 119.802 245.6 120.202 245.3C120.602 245.1 121.002 244.9 121.502 244.8C122.302 244.7 122.902 244.8 123.402 245.1C123.902 245.4 124.202 245.9 124.302 246.6L124.702 249.7C124.802 250.3 124.902 250.8 125.102 251.1V251.2L124.002 251.3ZM122.002 250.7C122.402 250.6 122.702 250.5 123.002 250.3C123.302 250.1 123.502 249.8 123.602 249.5L123.402 248.1L122.502 248.2C121.102 248.4 120.502 248.9 120.602 249.7C120.702 250.1 120.802 250.3 121.102 250.5C121.302 250.7 121.602 250.8 122.002 250.7Z" fill="white"/>
<path d="M126.898 242.3L127.198 243.9L128.398 243.6L128.598 244.5L127.398 244.8L128.198 248.9C128.298 249.2 128.398 249.4 128.498 249.5C128.598 249.6 128.798 249.6 129.098 249.6C129.198 249.6 129.398 249.5 129.598 249.4L129.798 250.3C129.498 250.4 129.198 250.5 128.998 250.6C128.498 250.7 128.098 250.6 127.798 250.4C127.498 250.2 127.298 249.7 127.098 249.2L126.298 245.1L125.098 245.3L124.898 244.4L126.098 244.2L125.798 242.6L126.898 242.3Z" fill="white"/>
<path d="M129.199 241.6C129.199 241.4 129.199 241.3 129.299 241.1C129.399 240.9 129.499 240.8 129.699 240.8C129.899 240.7 130.099 240.8 130.199 240.9C130.299 241 130.399 241.1 130.499 241.3C130.499 241.5 130.499 241.6 130.399 241.8C130.299 241.9 130.199 242.1 129.899 242.1C129.699 242.2 129.499 242.1 129.399 242C129.399 241.9 129.299 241.8 129.199 241.6ZM132.499 249.6L131.399 249.9L129.799 243.4L130.899 243.1L132.499 249.6Z" fill="white"/>
<path d="M133.498 242.4L133.798 243.1C134.098 242.4 134.598 241.9 135.398 241.6C136.298 241.3 136.998 241.4 137.598 242C137.698 241.6 137.898 241.3 138.198 241C138.498 240.7 138.798 240.5 139.298 240.3C140.698 239.8 141.698 240.3 142.198 241.8L143.598 246.1L142.498 246.5L141.098 242.3C140.898 241.8 140.698 241.5 140.398 241.4C140.098 241.2 139.698 241.2 139.198 241.4C138.798 241.5 138.498 241.8 138.298 242.1C138.098 242.4 138.098 242.8 138.198 243.2L139.598 247.4L138.498 247.8L137.098 243.6C136.798 242.7 136.198 242.4 135.298 242.7C134.598 242.9 134.198 243.4 134.098 244.1L135.698 248.8L134.598 249.2L132.398 242.8L133.498 242.4Z" fill="white"/>
<path d="M149.099 242.8C148.899 243.5 148.399 244 147.599 244.3C146.899 244.6 146.399 244.6 145.799 244.4C145.299 244.2 144.899 243.7 144.499 243L142.699 239L143.699 238.5L145.499 242.5C145.899 243.4 146.499 243.7 147.299 243.4C148.099 243 148.499 242.5 148.499 241.8L146.499 237.3L147.499 236.8L150.299 242.9L149.299 243.4L149.099 242.8Z" fill="white"/>
<path d="M149.999 235.7L150.399 236.3C150.499 235.5 150.999 235 151.699 234.5C152.499 234 153.199 234 153.899 234.5C153.899 234.1 153.999 233.7 154.299 233.4C154.499 233 154.799 232.7 155.199 232.5C156.499 231.8 157.499 232 158.299 233.4L160.599 237.3L159.599 237.9L157.299 234.1C157.099 233.7 156.799 233.4 156.499 233.3C156.199 233.2 155.799 233.3 155.399 233.6C154.999 233.8 154.799 234.1 154.699 234.5C154.599 234.9 154.599 235.2 154.799 235.6L157.099 239.5L156.099 240.1L153.899 236.3C153.399 235.5 152.699 235.3 151.899 235.8C151.199 236.2 150.999 236.7 151.099 237.4L153.599 241.6L152.599 242.2L149.199 236.4L149.999 235.7Z" fill="white"/>
<path d="M168.7 227.5C169.2 228.3 169.4 229.1 169.3 229.9C169.2 230.7 168.7 231.4 167.9 232C167.1 232.7 166.2 232.9 165.2 232.7C164.2 232.5 163.3 231.9 162.5 230.9L162 230.2C161.5 229.5 161.1 228.9 161 228.2C160.8 227.5 160.9 226.9 161.1 226.3C161.3 225.7 161.7 225.2 162.3 224.7C163.1 224.1 163.8 223.8 164.6 223.9C165.4 224 166.1 224.3 166.8 225L165.9 225.8C165.4 225.3 164.9 225 164.4 225C163.9 225 163.4 225.1 163 225.5C162.4 226 162.1 226.6 162.1 227.3C162.1 228 162.4 228.8 163.1 229.6L163.6 230.3C164.2 231.1 164.9 231.6 165.6 231.7C166.3 231.8 166.9 231.8 167.5 231.3C168 230.9 168.3 230.4 168.4 230C168.5 229.5 168.3 229 168 228.3L168.7 227.5Z" fill="white"/>
<path d="M169.198 226.2C168.698 225.7 168.399 225.2 168.299 224.6C168.099 224 168.098 223.5 168.198 223C168.298 222.5 168.599 222 169.099 221.6C169.799 221 170.498 220.7 171.398 220.8C172.298 220.9 172.999 221.3 173.799 222L173.898 222.1C174.398 222.6 174.699 223.1 174.799 223.6C174.999 224.2 174.998 224.7 174.898 225.2C174.798 225.7 174.498 226.2 173.998 226.6C173.298 227.2 172.598 227.5 171.698 227.4C170.798 227.3 169.998 227 169.198 226.2ZM170.198 225.5C170.698 226 171.299 226.4 171.799 226.4C172.399 226.5 172.899 226.3 173.299 225.9C173.699 225.5 173.899 225 173.799 224.4C173.699 223.8 173.399 223.2 172.799 222.6C172.299 222.1 171.698 221.8 171.198 221.7C170.598 221.6 170.098 221.8 169.698 222.2C169.298 222.6 169.098 223.1 169.198 223.6C169.298 224.3 169.598 224.9 170.198 225.5Z" fill="white"/>
<path d="M173.001 217.9L173.701 218.4C173.601 217.6 173.801 216.9 174.301 216.2C175.201 215.1 176.301 215.1 177.501 216.2L180.801 219.2L180.001 220.1L176.701 217.1C176.301 216.8 176.001 216.6 175.701 216.6C175.401 216.6 175.101 216.8 174.801 217.1C174.601 217.4 174.401 217.7 174.401 218C174.401 218.3 174.401 218.7 174.501 219L178.101 222.2L177.301 223.1L172.301 218.6L173.001 217.9Z" fill="white"/>
<path d="M176.499 211.2L177.799 212.2L178.599 211.2L179.299 211.8L178.499 212.8L181.799 215.4C181.999 215.6 182.199 215.6 182.399 215.6C182.599 215.6 182.699 215.5 182.899 215.3C182.999 215.2 183.099 215 183.199 214.8L183.899 215.4C183.799 215.7 183.599 215.9 183.399 216.2C183.099 216.6 182.699 216.8 182.299 216.8C181.899 216.8 181.499 216.6 180.999 216.3L177.699 213.7L176.899 214.7L176.199 214.1L176.999 213.1L175.699 212.1L176.499 211.2Z" fill="white"/>
<path d="M181.999 208.2C181.899 208.3 181.799 208.5 181.599 208.6C181.199 209.2 181.099 209.8 181.499 210.4L185.399 213.2L184.699 214.1L179.199 210.2L179.899 209.3L180.499 209.7C180.199 209 180.299 208.4 180.699 207.9C180.799 207.7 180.999 207.6 181.099 207.5L181.999 208.2Z" fill="white"/>
<path d="M180.198 205.8C179.998 205.7 179.898 205.6 179.898 205.4C179.898 205.2 179.898 205.1 179.998 204.9C180.098 204.7 180.298 204.6 180.398 204.6C180.598 204.6 180.698 204.6 180.898 204.7C181.098 204.8 181.198 204.9 181.198 205.1C181.198 205.3 181.198 205.4 181.098 205.6C180.998 205.8 180.798 205.9 180.698 205.9C180.498 206 180.398 205.9 180.198 205.8ZM187.998 209.4L187.398 210.4L181.798 206.7L182.398 205.7L187.998 209.4Z" fill="white"/>
<path d="M189.198 201.1C190.098 201.6 190.698 202.2 190.998 203C191.298 203.8 191.298 204.4 190.898 205.1C190.498 205.8 189.898 206.3 189.098 206.4L189.698 206.8L189.198 207.7L180.898 202.9L181.498 201.9L184.598 203.7C184.298 203 184.398 202.3 184.798 201.6C185.198 200.9 185.798 200.5 186.598 200.4C187.298 200.3 188.098 200.5 189.198 201.1ZM188.498 202C187.798 201.6 187.198 201.4 186.698 201.5C186.198 201.5 185.798 201.8 185.498 202.3C185.098 203 185.198 203.6 185.598 204.2L188.098 205.6C188.898 205.6 189.498 205.3 189.798 204.7C190.098 204.2 190.098 203.7 189.898 203.3C189.698 202.9 189.198 202.4 188.498 202Z" fill="white"/>
<path d="M193.999 197C194.299 197.6 194.199 198.3 193.899 199.1C193.599 199.7 193.199 200.2 192.599 200.3C192.099 200.5 191.399 200.4 190.699 200L186.699 198.1L187.199 197.1L191.099 199C191.999 199.4 192.699 199.3 192.999 198.5C193.399 197.7 193.299 197 192.899 196.5L188.499 194.4L188.999 193.4L195.099 196.3L194.599 197.3L193.999 197Z" fill="white"/>
<path d="M188.699 189.9L190.199 190.5L190.699 189.3L191.499 189.6L190.999 190.8L194.899 192.3C195.199 192.4 195.399 192.4 195.499 192.4C195.699 192.3 195.799 192.2 195.899 191.9C195.899 191.8 195.999 191.6 195.999 191.4L196.899 191.7C196.899 192 196.799 192.3 196.699 192.6C196.499 193.1 196.199 193.4 195.799 193.5C195.399 193.6 194.999 193.6 194.399 193.4L190.499 191.9L189.999 193L189.199 192.7L189.699 191.6L188.199 191L188.699 189.9Z" fill="white"/>
<path d="M194.099 189.6C193.499 189.4 192.898 189.1 192.498 188.7C192.098 188.3 191.798 187.8 191.698 187.3C191.598 186.8 191.599 186.2 191.799 185.7C192.099 184.8 192.598 184.2 193.398 183.9C194.198 183.6 195.099 183.5 196.099 183.9H196.198C196.798 184.1 197.299 184.4 197.799 184.8C198.199 185.2 198.499 185.7 198.599 186.2C198.699 186.7 198.698 187.3 198.498 187.9C198.198 188.8 197.698 189.4 196.898 189.7C196.098 190 195.199 190 194.099 189.6ZM194.599 188.6C195.299 188.8 195.898 188.9 196.498 188.7C196.998 188.5 197.399 188.1 197.599 187.6C197.799 187 197.698 186.5 197.398 186.1C197.098 185.6 196.498 185.3 195.698 185C194.998 184.8 194.399 184.8 193.799 184.9C193.299 185.1 192.898 185.5 192.698 186C192.498 186.5 192.598 187 192.898 187.5C193.198 187.9 193.799 188.3 194.599 188.6Z" fill="white"/>
<path d="M194.999 178.6C194.899 178.8 194.899 178.9 194.799 179.1C194.599 179.8 194.799 180.4 195.399 180.8L199.999 182L199.699 183.1L193.199 181.4L193.499 180.3L194.299 180.5C193.799 180 193.599 179.4 193.799 178.7C193.899 178.5 193.899 178.3 193.999 178.2L194.999 178.6Z" fill="white"/>
<defs>
<filter id="filter0_ii" x="0" y="50" width="218" height="218" filterUnits="userSpaceOnUse" color-interpolation-filters="sRGB">
<feFlood flood-opacity="0" result="BackgroundImageFix"/>
<feBlend mode="normal" in="SourceGraphic" in2="BackgroundImageFix" result="shape"/>
<feColorMatrix in="SourceAlpha" type="matrix" values="0 0 0 0 0 0 0 0 0 0 0 0 0 0 0 0 0 0 127 0" result="hardAlpha"/>
<feOffset/>
<feGaussianBlur stdDeviation="4"/>
<feComposite in2="hardAlpha" operator="arithmetic" k2="-1" k3="1"/>
<feColorMatrix type="matrix" values="0 0 0 0 0.9875 0 0 0 0 0.722843 0 0 0 0 0.386771 0 0 0 1 0"/>
<feBlend mode="normal" in2="shape" result="effect1_innerShadow"/>
<feColorMatrix in="SourceAlpha" type="matrix" values="0 0 0 0 0 0 0 0 0 0 0 0 0 0 0 0 0 0 127 0" result="hardAlpha"/>
<feOffset/>
<feGaussianBlur stdDeviation="6"/>
<feComposite in2="hardAlpha" operator="arithmetic" k2="-1" k3="1"/>
<feColorMatrix type="matrix" values="0 0 0 0 0 0 0 0 0 0 0 0 0 0 0 0 0 0 0.2 0"/>
<feBlend mode="normal" in2="effect1_innerShadow" result="effect2_innerShadow"/>
</filter>
<filter id="filter1_i" x="59" y="109" width="100" height="100" filterUnits="userSpaceOnUse" color-interpolation-filters="sRGB">
<feFlood flood-opacity="0" result="BackgroundImageFix"/>
<feBlend mode="normal" in="SourceGraphic" in2="BackgroundImageFix" result="shape"/>
<feColorMatrix in="SourceAlpha" type="matrix" values="0 0 0 0 0 0 0 0 0 0 0 0 0 0 0 0 0 0 127 0" result="hardAlpha"/>
<feOffset/>
<feGaussianBlur stdDeviation="6"/>
<feComposite in2="hardAlpha" operator="arithmetic" k2="-1" k3="1"/>
<feColorMatrix type="matrix" values="0 0 0 0 0 0 0 0 0 0 0 0 0 0 0 0 0 0 0.4 0"/>
<feBlend mode="normal" in2="shape" result="effect1_innerShadow"/>
</filter>
<linearGradient id="paint0_linear" x1="51.775" y1="57.4938" x2="322.848" y2="328.729" gradientUnits="userSpaceOnUse">
<stop stop-color="#F2F2F2"/>
<stop offset="1" stop-color="#3D485C"/>
</linearGradient>
<linearGradient id="paint1_linear" x1="-158.31" y1="-176.824" x2="234.09" y2="291.357" gradientUnits="userSpaceOnUse">
<stop stop-color="white"/>
<stop offset="1" stop-color="white" stop-opacity="0"/>
</linearGradient>
<linearGradient id="paint2_linear" x1="174.52" y1="213.6" x2="38.8" y2="107.52" gradientUnits="userSpaceOnUse">
<stop stop-color="white"/>
<stop offset="1" stop-color="#203A41" stop-opacity="0.4"/>
</linearGradient>
<linearGradient id="paint3_linear" x1="194.68" y1="230.4" x2="17.2" y2="91.68" gradientUnits="userSpaceOnUse">
<stop stop-color="white"/>
<stop offset="1" stop-color="#203A41" stop-opacity="0.24"/>
</linearGradient>
</defs>
</svg>
