<svg width="218" height="266" viewBox="0 0 218 266" fill="none" xmlns="http://www.w3.org/2000/svg">
<path d="M87.0059 29.7983C85.9045 29.7983 85.0234 30.669 85.0234 31.7573V50.0412C85.0234 51.1295 85.9045 52.0002 87.0059 52.0002H132.381C133.483 52.0002 134.364 51.1295 134.364 50.0412V31.7573C134.364 30.669 133.483 29.7983 132.381 29.7983H87.0059ZM130.399 44.1642C130.399 45.2526 129.518 46.1232 128.416 46.1232H91.191C90.0896 46.1232 89.2086 45.2526 89.2086 44.1642V35.893C89.2086 34.8046 90.0896 33.934 91.191 33.934H128.416C129.518 33.934 130.399 34.8046 130.399 35.893V44.1642Z" fill="#D1D4D8"/>
<path d="M141.045 0L115.918 37.8775H128.37L156.388 0H141.045Z" fill="#0FA711"/>
<path d="M128.377 0L103.473 37.8775H115.925L141.052 0H128.377Z" fill="white"/>
<path d="M115.92 0L91.0156 37.8775H103.468L128.373 0H115.92Z" fill="#FF7600"/>
<path d="M91.0177 37.8775H103.47L78.343 0H63L91.0177 37.8775Z" fill="#FF7600"/>
<path d="M103.471 37.8775H115.923L91.0184 0H78.3438L103.471 37.8775Z" fill="white"/>
<path opacity="0.5" d="M111.695 6.27979L105.469 15.6931L120.145 37.8818H128.372L130.596 34.744L111.695 6.27979Z" fill="#3E4347"/>
<path d="M115.92 37.8775H128.373L103.468 0H91.0156L115.92 37.8775Z" fill="#0FA711"/>
<g filter="url(#filter0_ii)">
<path d="M218 157C218 217.199 169.199 266 109 266C48.801 266 0 217.199 0 157C0 96.801 48.801 48 109 48C169.199 48 218 96.801 218 157Z" fill="#34373C" fill-opacity="0.4"/>
</g>
<path d="M214.5 157C214.5 215.266 167.266 262.5 109 262.5C50.734 262.5 3.5 215.266 3.5 157C3.5 98.734 50.734 51.5 109 51.5C167.266 51.5 214.5 98.734 214.5 157Z" stroke="#DFDFDF" stroke-width="7"/>
<path d="M214.5 157C214.5 215.266 167.266 262.5 109 262.5C50.734 262.5 3.5 215.266 3.5 157C3.5 98.734 50.734 51.5 109 51.5C167.266 51.5 214.5 98.734 214.5 157Z" stroke="url(#paint0_linear)" stroke-width="7"/>
<path d="M214.5 157C214.5 215.266 167.266 262.5 109 262.5C50.734 262.5 3.5 215.266 3.5 157C3.5 98.734 50.734 51.5 109 51.5C167.266 51.5 214.5 98.734 214.5 157Z" stroke="url(#paint1_linear)" stroke-width="7"/>
<path d="M196 157C196 205.049 157.049 244 109 244C60.9512 244 22 205.049 22 157C22 108.951 60.9512 70 109 70C157.049 70 196 108.951 196 157Z" fill="#5C686B" stroke="#6F7A7D" stroke-width="30"/>
<path d="M109.001 80C66.5595 80 32 114.357 32 157.001C32 199.645 66.3574 234.002 109.001 234.002C151.645 234.002 186.002 199.645 186.002 157.001C186.002 114.357 151.442 80 109.001 80ZM93.6412 87.4778C93.8433 87.4778 93.8433 87.4778 93.6412 87.4778C95.0559 90.5093 97.6833 92.3282 100.311 91.7219C102.938 91.3177 105.565 89.4988 105.767 85.861C106.172 85.861 106.576 85.861 106.98 85.861C106.98 96.7745 106.172 108.496 104.959 121.229C104.757 122.441 104.757 123.654 104.757 124.867C104.353 123.856 103.948 122.644 103.544 121.229C99.3001 110.517 95.4601 98.9976 92.4286 87.6799C93.0349 87.6799 93.237 87.4778 93.6412 87.4778ZM76.0583 93.743C78.2814 96.3703 81.1109 97.3808 83.5361 96.1682C86.3655 94.9556 87.9823 92.1261 87.376 89.0946C87.7802 88.8925 88.1844 88.8925 88.5886 88.6904C91.216 99.1997 93.8433 110.72 95.8643 123.452C96.0664 124.867 96.2685 125.877 96.6727 127.09C96.0664 126.079 95.4601 125.069 94.4496 123.856C87.5781 114.559 80.9088 104.454 75.0478 94.3493C75.2499 94.1472 75.6541 93.9451 76.0583 93.743ZM60.4964 104.656C63.3259 106.475 66.3574 106.678 68.3784 105.061C69.9952 103.848 70.8036 102.029 70.8036 100.21C70.8036 99.1997 70.6015 98.1892 69.9952 97.3808C70.3994 97.1787 70.6015 96.9766 71.0057 96.7745C76.4625 106.071 81.7172 116.783 87.1739 128.302C87.7802 129.515 88.3865 130.526 88.7907 131.536C87.9823 130.728 86.9718 129.919 85.9613 129.111C77.0688 121.633 67.9742 113.549 59.688 105.465C59.8901 105.061 60.2943 104.859 60.4964 104.656ZM48.3703 119.006C48.5724 119.006 48.5724 119.006 48.3703 119.006C51.6039 120.016 54.6355 119.612 56.0502 117.389C56.4544 116.783 57.4649 115.166 57.4649 113.549C57.4649 112.538 57.0607 110.922 55.8481 109.507C56.0502 109.305 56.4544 108.901 56.6565 108.699C64.3364 116.378 72.2184 125.271 80.5046 134.972C81.313 135.982 82.1214 136.791 82.9298 137.599C81.9193 136.993 80.7067 136.589 79.494 135.982C68.9847 131.132 58.0712 125.675 47.764 120.016C47.9661 119.612 48.1682 119.41 48.3703 119.006ZM40.4883 135.982C40.4883 135.982 40.4883 135.78 40.4883 135.982C43.924 136.184 46.5514 134.972 47.5619 132.344C47.764 131.738 47.9661 130.93 47.9661 129.717C47.9661 128.505 47.5619 126.281 45.1367 124.665C45.3388 124.26 45.5409 124.058 45.743 123.654C55.0397 129.111 65.1448 135.578 75.452 142.854C76.4625 143.662 77.6751 144.269 78.4835 144.875C77.473 144.673 76.0583 144.471 74.6436 144.066C63.3259 142.45 51.4018 140.024 39.882 136.993C40.2862 136.791 40.4883 136.387 40.4883 135.982ZM37.2547 154.374C37.2547 154.374 37.2547 154.172 37.2547 154.374C40.4883 153.767 42.9135 151.746 43.1156 149.119C43.1156 148.917 43.1156 148.715 43.1156 148.311C43.1156 145.885 41.903 143.258 38.8715 142.248C38.8715 141.843 39.0736 141.439 39.0736 141.035C49.5829 143.864 60.9006 147.704 72.8247 151.948C74.0373 152.353 75.2499 152.757 76.2604 152.959C75.0478 152.959 73.8352 153.161 72.4205 153.161C61.1027 154.576 48.7745 155.182 37.0526 155.384C37.2547 155.182 37.2547 154.778 37.2547 154.374ZM38.8715 173.169C38.8715 172.967 38.8715 172.967 38.8715 173.169C41.4988 171.754 43.1156 169.733 43.1156 167.308C43.1156 167.106 43.1156 166.702 43.1156 166.5C42.7114 163.872 40.8925 161.245 37.2547 161.043C37.2547 160.639 37.2547 160.235 37.2547 159.83C48.1682 159.83 59.8901 160.437 72.6226 161.447C74.0373 161.649 75.2499 161.649 76.2604 161.649C75.2499 162.054 74.0373 162.458 72.6226 162.862C61.9111 167.106 50.3913 170.946 39.0736 174.18C39.0736 173.978 39.0736 173.573 38.8715 173.169ZM45.3387 190.752C45.3387 190.752 45.3387 190.55 45.3387 190.752C47.1577 189.135 48.1682 187.316 48.1682 185.295C48.1682 184.487 47.9661 183.881 47.764 183.274C46.7535 180.849 44.3282 178.828 40.6904 179.636C40.4883 179.232 40.4883 178.828 40.2862 178.424C50.7955 175.594 62.3153 173.169 74.8457 170.946C76.2604 170.744 77.2709 170.34 78.4835 170.138C77.473 170.744 76.4625 171.35 75.2499 172.361C65.9532 179.232 55.8481 185.902 45.743 191.965C45.743 191.358 45.5409 191.156 45.3387 190.752ZM56.2523 206.112C57.2628 204.495 57.667 203.08 57.667 201.463C57.667 200.251 57.2628 199.038 56.4544 198.23C54.8376 196.209 51.806 194.794 48.5724 196.411C48.3703 196.007 48.1682 195.805 47.9661 195.4C57.2628 189.944 67.9742 184.487 79.494 179.03C80.7067 178.424 81.7172 177.818 82.7277 177.413C81.9193 178.222 81.1109 179.232 80.3024 180.243C73.2289 189.337 65.1448 198.432 57.0607 206.92C56.8586 206.718 56.4544 206.516 56.2523 206.112ZM70.6015 218.036C70.8036 216.823 71.0057 215.813 71.0057 214.802C71.0057 212.781 70.1973 211.164 68.7826 210.356C66.7616 208.941 63.528 208.133 60.9006 210.76C60.4964 210.558 60.2943 210.154 60.0922 209.952C67.7721 202.272 76.4625 194.188 86.1634 186.104C87.1739 185.295 87.9823 184.487 88.7907 183.678C88.1844 184.689 87.7802 185.902 87.1739 187.114C82.7277 197.624 77.473 208.537 71.612 218.642C71.4099 218.44 71.0057 218.238 70.6015 218.036ZM87.5781 225.918C87.7802 222.482 86.3655 219.855 83.9403 218.844C81.5151 218.036 78.2814 218.238 76.2604 221.27C75.8562 221.067 75.6541 220.865 75.2499 220.663C80.7066 211.367 86.9718 201.261 94.2475 190.752C95.0559 189.539 95.6622 188.529 96.2685 187.721C96.0664 188.731 95.8643 190.146 95.4601 191.56C93.8433 202.878 91.4181 214.802 88.5886 226.322C88.3865 226.12 87.9823 226.12 87.5781 225.918ZM105.969 228.949C105.363 225.716 103.342 223.291 100.715 223.088C98.0874 222.886 95.0559 223.897 94.0454 227.333C93.6412 227.333 93.237 227.13 92.8328 227.13C95.6622 216.621 99.3001 205.303 103.544 193.379C103.948 192.167 104.353 190.954 104.555 189.944C104.555 191.156 104.757 192.369 104.757 193.784C106.172 205.101 106.98 217.43 107.182 229.151C106.778 229.151 106.374 229.151 105.969 228.949ZM178.928 142.45C176.301 143.864 174.482 145.885 174.482 148.311C174.482 148.513 174.482 148.917 174.482 149.119C174.886 151.746 176.705 154.374 180.343 154.576C180.343 154.98 180.343 155.384 180.343 155.788C169.632 155.788 157.708 154.98 144.975 153.767C143.56 153.565 142.348 153.565 141.337 153.565C142.348 153.161 143.56 152.757 144.975 152.353C155.687 148.108 167.206 144.269 178.524 141.237C178.726 141.641 178.726 142.045 178.928 142.45ZM172.663 124.867C172.663 124.867 172.663 125.069 172.663 124.867C170.844 126.484 169.834 128.302 169.834 130.323C169.834 131.132 170.036 131.738 170.238 132.344C171.248 134.77 173.674 136.791 177.312 136.184C177.514 136.589 177.514 136.993 177.716 137.397C167.206 140.024 155.485 142.45 142.954 144.673C141.539 144.875 140.529 145.077 139.316 145.481C140.327 144.875 141.337 144.269 142.55 143.46C151.847 136.387 161.952 129.717 172.057 123.856C172.259 124.26 172.461 124.463 172.663 124.867ZM162.154 109.709C161.143 111.326 160.537 112.943 160.537 114.357C160.537 115.57 160.941 116.783 161.75 117.591C163.366 119.612 166.196 121.027 169.43 119.41C169.632 119.814 169.834 120.016 170.036 120.42C160.537 125.675 150.028 131.132 138.306 136.184C137.093 136.791 136.083 137.195 135.072 137.801C135.881 136.993 136.689 135.982 137.7 134.972C144.975 126.079 153.059 116.985 161.345 108.699C161.548 109.103 161.952 109.305 162.154 109.709ZM147.603 97.1787C147.603 97.1787 147.805 97.3808 147.603 97.1787C147.4 98.3913 146.996 99.4018 146.996 100.412C146.996 102.231 147.805 103.848 149.219 104.859C151.24 106.273 154.474 107.082 157.101 104.656C157.303 104.859 157.708 105.263 157.91 105.465C150.23 113.145 141.337 121.027 131.434 129.111C130.424 129.919 129.413 130.728 128.807 131.536C129.413 130.526 129.818 129.515 130.424 128.1C135.072 117.591 140.529 106.678 146.39 96.5724C146.996 96.7745 147.198 96.9766 147.603 97.1787ZM130.626 89.2967C130.828 89.2967 130.828 89.2967 130.626 89.2967C130.424 92.7324 131.839 95.3598 134.264 96.3703C136.689 97.3808 139.923 97.1787 141.944 93.9451C142.348 94.1472 142.55 94.3493 142.954 94.5514C137.497 103.848 131.03 113.751 123.552 124.26C122.744 125.271 122.138 126.281 121.531 127.292C121.733 126.281 122.138 124.867 122.34 123.452C124.159 112.134 126.584 100.21 129.413 88.8925C130.02 88.8925 130.222 89.0946 130.626 89.2967ZM112.437 85.861C112.437 85.861 112.639 85.861 112.437 85.861C113.043 89.0946 115.064 91.5198 117.691 91.7219C120.319 91.924 123.35 90.9135 124.563 87.4778C124.967 87.4778 125.371 87.6799 125.775 87.6799C122.946 98.1892 119.106 109.507 114.66 121.229C114.256 122.441 113.851 123.654 113.447 124.665C113.447 123.452 113.245 122.239 113.245 120.825C112.033 109.507 111.224 97.1787 111.224 85.4568C111.628 85.861 112.033 85.861 112.437 85.861ZM124.361 227.333C122.744 224.301 120.319 222.684 117.691 223.088C115.064 223.493 112.437 225.312 112.235 228.949C111.83 228.949 111.426 228.949 111.022 228.949C111.022 218.036 111.628 206.314 112.841 193.581C113.043 192.369 113.043 191.358 113.043 190.348C113.043 190.146 113.043 190.146 113.043 189.944C113.447 190.954 113.851 192.167 114.256 193.581C118.5 204.293 122.34 215.813 125.573 227.13C125.169 227.333 124.765 227.333 124.361 227.333ZM141.742 221.067C141.742 221.067 141.539 221.067 141.742 221.067C139.518 218.44 136.689 217.43 134.264 218.642C131.434 219.855 129.818 222.684 130.626 225.716C130.222 225.918 129.818 225.918 129.413 226.12C126.584 215.611 124.159 204.091 122.138 191.56C121.936 190.146 121.733 189.135 121.329 187.923C121.936 188.933 122.542 189.944 123.552 191.156C130.424 200.453 137.093 210.558 142.954 220.663C142.348 220.865 142.146 220.865 141.742 221.067ZM157.303 210.154C157.303 210.356 157.303 210.356 157.303 210.154C154.474 208.335 151.442 208.133 149.421 209.75C147.805 210.962 146.996 212.781 146.996 214.6C146.996 215.611 147.198 216.621 147.805 217.43C147.4 217.632 147.198 217.834 146.794 218.036C141.337 208.739 135.881 198.028 130.626 186.508C130.02 185.295 129.413 184.285 129.009 183.274C129.818 184.083 130.828 184.891 131.839 185.699C140.933 192.773 150.028 200.857 158.314 209.143C157.91 209.75 157.708 209.952 157.303 210.154ZM169.227 196.007C169.227 196.007 169.227 196.209 169.227 196.007C165.994 194.996 162.962 195.4 161.548 197.624C161.143 198.23 160.133 199.847 160.133 201.463C160.133 202.474 160.537 204.091 161.75 205.506C161.548 205.708 161.143 206.112 160.941 206.314C153.261 198.634 145.379 189.742 137.295 180.041C136.487 179.03 135.678 178.02 134.87 177.413C135.881 178.02 137.093 178.424 138.306 179.03C148.815 183.678 159.729 189.135 170.036 194.794C169.632 195.4 169.43 195.603 169.227 196.007ZM177.109 179.03C177.109 179.232 177.109 179.232 177.109 179.03C173.674 178.828 171.046 180.041 170.036 182.668C169.834 183.274 169.632 184.083 169.632 185.295C169.632 186.508 170.036 188.731 172.461 190.348C172.259 190.752 172.057 190.954 171.855 191.358C162.558 185.902 152.453 179.434 142.146 172.159C141.135 171.35 139.923 170.744 139.114 170.138C140.125 170.34 141.539 170.744 142.954 170.946C154.272 172.563 166.196 174.988 177.514 178.02C177.312 178.424 177.312 178.828 177.109 179.03ZM180.343 160.841C177.109 161.447 174.684 163.266 174.482 165.893C174.482 166.096 174.482 166.298 174.482 166.702C174.482 169.127 175.695 171.754 178.726 172.765C178.726 173.169 178.524 173.573 178.524 173.978C168.015 171.148 156.697 167.51 144.773 163.064C143.56 162.66 142.348 162.256 141.337 162.054C142.55 162.054 143.763 161.851 145.177 161.851C156.495 160.639 168.823 159.83 180.545 159.83C180.545 160.033 180.343 160.437 180.343 160.841Z" fill="#D1D4D8"/>
<circle cx="109" cy="157" r="77" stroke="url(#paint2_linear)" stroke-width="2"/>
<circle cx="109" cy="157" r="101" stroke="url(#paint3_linear)" stroke-width="2"/>
<g filter="url(#filter1_i)">
<circle cx="109" cy="157" r="50" fill="#6F7A7D"/>
</g>
<path fill-rule="evenodd" clip-rule="evenodd" d="M75.6891 149.366C75.0206 150.034 75.0602 151.12 75.6313 151.873C76.8239 153.447 77.5316 155.408 77.5316 157.535C77.5316 159.508 76.9226 161.338 75.8825 162.849C75.3625 163.604 75.3512 164.648 75.9996 165.296C76.6533 165.95 77.7241 165.953 78.2831 165.217C79.9033 163.083 80.8649 160.421 80.8649 157.535C80.8649 154.439 79.7582 151.601 77.9189 149.396C77.3474 148.711 76.3201 148.735 75.6891 149.366ZM81.295 168.247C80.7145 168.958 80.7092 170.006 81.3586 170.655C82.011 171.308 83.0753 171.31 83.6701 170.604C86.646 167.074 88.4393 162.514 88.4393 157.535C88.4393 152.357 86.4998 147.632 83.3076 144.047C82.7062 143.372 81.6671 143.388 81.0276 144.027C80.3661 144.689 80.3871 145.761 80.9979 146.469C83.558 149.439 85.106 153.306 85.106 157.535C85.106 161.598 83.6773 165.326 81.295 168.247ZM87.0569 174.004C86.453 174.696 86.4496 175.746 87.0995 176.396C87.7514 177.048 88.8129 177.05 89.4241 176.36C93.8623 171.348 96.5566 164.756 96.5566 157.535C96.5566 150.12 93.7154 143.369 89.0623 138.31C88.4466 137.641 87.4026 137.652 86.7596 138.295C86.1012 138.954 86.1152 140.02 86.7402 140.711C90.7691 145.159 93.2233 151.061 93.2233 157.535C93.2233 163.839 90.8973 169.599 87.0569 174.004Z" fill="white"/>
<mask id="mask0" mask-type="alpha" maskUnits="userSpaceOnUse" x="59" y="107" width="100" height="100">
<circle cx="109" cy="157" r="50" fill="#020A0E"/>
</mask>
<g mask="url(#mask0)">
<path fill-rule="evenodd" clip-rule="evenodd" d="M129.609 178.434C130.744 178.065 131.757 177.369 132.551 176.399L139.604 201.405H174.614V110.334H133.542V111.763V138.14C130.415 136.036 127.253 135.115 124.251 135.15C120.5 135.194 117.141 136.728 114.553 139.047C109.454 143.617 107.049 151.589 110.896 157.866C114.299 163.418 117.254 167.986 119.36 171.167C120.413 172.758 121.254 174.002 121.832 174.85C122.121 175.274 122.345 175.599 122.496 175.818C122.572 175.927 122.63 176.011 122.669 176.067L122.729 176.153C122.747 176.178 122.765 176.203 122.784 176.226C124.568 178.457 127.234 179.205 129.609 178.434ZM125.764 163.903C124.179 162.318 123.286 160.17 123.279 157.929C123.264 156.256 123.745 154.617 124.659 153.217C125.574 151.816 126.882 150.718 128.419 150.058C127.933 149.09 127.134 148.315 126.152 147.859C125.169 147.403 124.061 147.294 123.008 147.548C121.956 147.803 121.02 148.407 120.355 149.261C119.689 150.116 119.333 151.17 119.343 152.253C119.343 152.608 119.202 152.949 118.951 153.2C118.7 153.451 118.36 153.592 118.005 153.592C117.65 153.592 117.309 153.451 117.058 153.2C116.807 152.949 116.666 152.608 116.666 152.253C116.67 150.401 117.36 148.616 118.603 147.242C119.845 145.869 121.552 145.004 123.395 144.814C125.237 144.624 127.085 145.124 128.581 146.216C130.077 147.308 131.116 148.915 131.498 150.727C131.562 151.071 131.493 151.426 131.304 151.72C131.115 152.014 130.82 152.224 130.48 152.307C129.111 152.636 127.909 153.453 127.1 154.605C126.29 155.757 125.928 157.164 126.083 158.564C126.237 159.963 126.897 161.258 127.938 162.206C128.979 163.154 130.331 163.689 131.738 163.712C132.094 163.712 132.434 163.853 132.685 164.104C132.936 164.355 133.077 164.695 133.077 165.05C133.07 165.403 132.927 165.74 132.677 165.989C132.428 166.239 132.091 166.382 131.738 166.389C129.497 166.382 127.349 165.488 125.764 163.903Z" fill="white"/>
</g>
<path d="M51.3984 81.3002L53.8984 79.4002C54.1984 79.2002 54.4984 79.0002 54.8984 78.9002C55.1984 78.8002 55.4984 78.7002 55.7984 78.7002C56.0984 78.7002 56.3984 78.8002 56.6984 78.9002C56.9984 79.0002 57.1984 79.3002 57.4984 79.6002C57.7984 80.0002 57.8984 80.4002 57.8984 80.9002C57.8984 81.3002 57.6984 81.8002 57.3984 82.1002C57.5984 82.0002 57.8984 81.9002 58.0984 81.8002C58.3984 81.8002 58.5984 81.8002 58.8984 81.8002C59.1984 81.9002 59.3984 82.0002 59.5984 82.1002C59.7984 82.3002 59.9984 82.4002 60.1984 82.7002C60.3984 83.0002 60.5984 83.4002 60.5984 83.7002C60.6984 84.0002 60.5984 84.4002 60.4984 84.7002C60.3984 85.0002 60.1984 85.4002 59.9984 85.7002C59.7984 86.0002 59.4984 86.3002 59.0984 86.6002L56.5984 88.4002L51.3984 81.3002ZM54.5984 83.6002L55.8984 82.6002C56.0984 82.5002 56.1984 82.3002 56.3984 82.2002C56.4984 82.0002 56.5984 81.9002 56.6984 81.7002C56.7984 81.5002 56.7984 81.3002 56.6984 81.1002C56.6984 80.9002 56.5984 80.7002 56.3984 80.5002C56.1984 80.2002 55.8984 80.0002 55.5984 80.0002C55.2984 79.9002 54.8984 80.0002 54.4984 80.3002L52.9984 81.4002L54.5984 83.6002ZM57.0984 87.0002L58.4984 85.9002C58.5984 85.8002 58.7984 85.7002 58.9984 85.5002C59.1984 85.3002 59.2984 85.1002 59.3984 84.9002C59.4984 84.7002 59.4984 84.5002 59.4984 84.2002C59.4984 84.0002 59.3984 83.7002 59.1984 83.5002C58.8984 83.1002 58.4984 82.9002 58.0984 82.8002C57.6984 82.8002 57.1984 83.0002 56.6984 83.3002L55.1984 84.4002L57.0984 87.0002Z" fill="white"/>
<path d="M57.5977 75.9999L58.5977 75.3999L60.9977 79.2999C60.9977 78.8999 60.9977 78.5999 61.1977 78.1999C61.3977 77.7999 61.6977 77.4999 62.0977 77.2999C62.2977 77.0999 62.5977 76.9999 62.8977 76.9999C63.1977 76.8999 63.3977 76.8999 63.6977 76.9999C63.9977 77.0999 64.1977 77.1999 64.4977 77.3999C64.7977 77.5999 64.9977 77.8999 65.1977 78.1999L67.1977 81.4999L66.1977 82.0999L64.2977 79.0999C64.1977 78.8999 63.9977 78.6999 63.7977 78.4999C63.5977 78.3999 63.4977 78.2999 63.2977 78.1999C63.0977 78.1999 62.9977 78.1999 62.7977 78.1999C62.5977 78.1999 62.4977 78.2999 62.2977 78.3999C62.0977 78.4999 61.8977 78.6999 61.7977 78.7999C61.6977 78.9999 61.5977 79.1999 61.4977 79.3999C61.4977 79.5999 61.4977 79.8999 61.4977 80.0999C61.5977 80.3999 61.6977 80.5999 61.8977 80.8999L63.4977 83.4999L62.4977 84.0999L57.5977 75.9999Z" fill="white"/>
<path d="M66.0977 76.0002C66.2977 75.6002 66.4977 75.2002 66.7977 74.9002C67.0977 74.6002 67.4977 74.3002 67.7977 74.1002C68.1977 73.9002 68.5977 73.8002 68.8977 73.7002C69.1977 73.7002 69.4977 73.7002 69.7977 73.7002C70.0977 73.7002 70.2977 73.9002 70.4977 74.1002C70.6977 74.3002 70.8977 74.5002 70.9977 74.7002L72.3977 77.4002C72.4977 77.6002 72.5977 77.8002 72.6977 77.9002C72.7977 78.1002 72.8977 78.2002 72.9977 78.3002L72.0977 78.8002C71.8977 78.5002 71.7977 78.3002 71.5977 78.0002C71.5977 78.5002 71.3977 78.8002 71.1977 79.2002C70.9977 79.5002 70.5977 79.8002 70.1977 80.0002C69.9977 80.1002 69.6977 80.2002 69.3977 80.3002C69.0977 80.4002 68.8977 80.3002 68.5977 80.3002C68.3977 80.3002 68.0977 80.2002 67.8977 80.0002C67.6977 79.9002 67.4977 79.6002 67.3977 79.4002C67.1977 79.1002 67.0977 78.7002 67.1977 78.4002C67.1977 78.1002 67.2977 77.8002 67.4977 77.5002C67.6977 77.2002 67.9977 76.9002 68.2977 76.7002C68.5977 76.5002 68.9977 76.2002 69.3977 76.0002L70.0977 75.6002L69.9977 75.4002C69.8977 75.3002 69.7977 75.1002 69.6977 75.0002C69.5977 74.9002 69.3977 74.8002 69.2977 74.8002C69.1977 74.8002 68.9977 74.7002 68.7977 74.7002C68.5977 74.7002 68.3977 74.8002 68.1977 74.9002C67.9977 75.0002 67.7977 75.1002 67.6977 75.2002C67.5977 75.3002 67.4977 75.4002 67.3977 75.5002C67.2977 75.6002 67.1977 75.7002 67.1977 75.9002C67.0977 76.0002 67.0977 76.1002 66.9977 76.3002L66.0977 76.0002ZM69.9977 76.7002C69.7977 76.8002 69.4977 77.0002 69.2977 77.1002C69.0977 77.2002 68.8977 77.4002 68.6977 77.6002C68.4977 77.8002 68.3977 78.0002 68.3977 78.2002C68.2977 78.4002 68.3977 78.6002 68.4977 78.8002C68.6977 79.1002 68.8977 79.3002 69.1977 79.3002C69.4977 79.3002 69.7977 79.3002 70.1977 79.1002C70.4977 79.0002 70.6977 78.8002 70.7977 78.6002C70.8977 78.4002 70.9977 78.2002 71.0977 78.0002C71.0977 77.8002 71.0977 77.6002 71.0977 77.4002C71.0977 77.2002 70.9977 77.0002 70.8977 76.8002L70.6977 76.5002L69.9977 76.7002Z" fill="white"/>
<path d="M75.2984 72.4998C75.0984 72.3998 74.8985 72.2998 74.6985 72.2998C74.4985 72.2998 74.1985 72.2998 73.9985 72.3998C73.7985 72.4998 73.5985 72.6998 73.3985 72.7998C73.1985 72.8998 73.1984 73.1998 73.2984 73.3998C73.3984 73.5998 73.4984 73.6998 73.5984 73.6998C73.6984 73.7998 73.8984 73.7998 74.0984 73.7998C74.2984 73.7998 74.3984 73.7998 74.5984 73.6998C74.7984 73.6998 74.8984 73.5998 75.0984 73.5998C75.2984 73.5998 75.5984 73.4998 75.7984 73.4998C75.9984 73.4998 76.1985 73.4998 76.3985 73.5998C76.5985 73.6998 76.7985 73.7998 76.8985 73.8998C77.0985 73.9998 77.1984 74.1998 77.2984 74.4998C77.3984 74.7998 77.4985 75.0998 77.3985 75.3998C77.3985 75.6998 77.2984 75.8998 77.0984 76.1998C76.9984 76.3998 76.7985 76.5998 76.4985 76.7998C76.2985 76.9998 75.9985 77.0998 75.6985 77.1998C75.1985 77.3998 74.7985 77.4998 74.3985 77.4998C73.9985 77.4998 73.5984 77.3998 73.0984 77.0998L73.5984 76.0998C73.7984 76.1998 74.0985 76.2998 74.3985 76.2998C74.6985 76.2998 74.9984 76.2998 75.2984 76.1998C75.3984 76.0998 75.5985 76.0998 75.6985 75.9998C75.7985 75.8998 75.8985 75.7998 75.9985 75.6998C76.0985 75.5998 76.0985 75.4998 76.1985 75.3998C76.1985 75.2998 76.1985 75.1998 76.1985 74.9998C76.0985 74.7998 75.9985 74.6998 75.8985 74.6998C75.7985 74.5998 75.5985 74.5998 75.3985 74.5998C75.1985 74.5998 75.0985 74.5998 74.8985 74.5998C74.6985 74.5998 74.5985 74.6998 74.4985 74.6998C74.2985 74.6998 73.9984 74.7998 73.7984 74.7998C73.5984 74.7998 73.2984 74.7998 73.0984 74.7998C72.8984 74.7998 72.6985 74.6998 72.4985 74.4998C72.2985 74.3998 72.1984 74.1998 72.0984 73.8998C71.9984 73.5998 71.8985 73.2998 71.9985 73.0998C71.9985 72.7998 72.0985 72.5998 72.1985 72.3998C72.2985 72.1998 72.4985 71.9998 72.6985 71.7998C72.8985 71.5998 73.1985 71.4998 73.3985 71.3998C73.7985 71.1998 74.1984 71.1998 74.5984 71.0998C74.9984 70.9998 75.3985 71.1998 75.6985 71.3998L75.2984 72.4998Z" fill="white"/>
<path d="M75.8984 66.6998L76.9984 66.2998L78.4984 70.5998C78.4984 70.1998 78.6984 69.8998 78.9984 69.5998C79.2984 69.2998 79.5984 69.0998 80.0984 68.8998C80.3984 68.7998 80.6984 68.7998 80.8984 68.7998C81.0984 68.7998 81.3984 68.7998 81.6984 68.9998C81.9984 69.0998 82.1984 69.2998 82.3984 69.4998C82.5984 69.6998 82.7984 69.9998 82.8984 70.3998L84.1984 74.0998L83.0984 74.4998L81.8984 71.0998C81.7984 70.7998 81.6984 70.5998 81.5984 70.4998C81.4984 70.2998 81.2984 70.1998 81.1984 70.0998C80.9984 69.9998 80.8984 69.9998 80.6984 69.9998C80.4984 69.9998 80.3984 69.9998 80.1984 70.0998C79.9984 70.1998 79.7984 70.2998 79.5984 70.3998C79.3984 70.4998 79.2984 70.6998 79.1984 70.8998C79.0984 71.0998 79.0984 71.2998 79.0984 71.5998C79.0984 71.8998 79.1984 72.1998 79.2984 72.4998L80.2984 75.3998L79.1984 75.7998L75.8984 66.6998Z" fill="white"/>
<path d="M83.1 65.8002C83 65.6002 83.1 65.4002 83.2 65.2002C83.3 65.0002 83.5 64.9002 83.7 64.8002C83.9 64.7002 84.1 64.8002 84.3 64.9002C84.5 65.0002 84.6 65.2002 84.7 65.4002C84.8 65.6002 84.7 65.8002 84.6 66.0002C84.5 66.2002 84.3 66.3002 84.1 66.4002C83.9 66.5002 83.7 66.4002 83.5 66.3002C83.3 66.2002 83.1 66.0002 83.1 65.8002ZM83.9001 67.8002L85 67.5002L86.7 73.3002L85.6 73.6002L83.9001 67.8002Z" fill="white"/>
<path d="M86.8984 67L87.9984 66.7L88.1984 67.6C88.2984 67.3 88.4984 66.9 88.7984 66.7C89.0984 66.5 89.4984 66.2 89.8984 66.1C90.1984 66 90.4984 66 90.6984 66C90.9984 66 91.1984 66.1 91.4984 66.3C91.6984 66.4 91.8984 66.6 92.0984 66.9C92.2984 67.2 92.3984 67.5 92.4984 67.9L93.3984 71.7L92.2984 72L91.4984 68.5C91.3984 68.2 91.2984 68 91.1984 67.8C91.0984 67.6 90.8984 67.5 90.7984 67.4C90.5984 67.3 90.4984 67.3 90.2984 67.2C90.0984 67.2 89.9984 67.2 89.7984 67.2C89.5984 67.3 89.3984 67.3 89.1984 67.5C88.9984 67.6 88.8984 67.8 88.7984 68C88.6984 68.2 88.5984 68.4 88.5984 68.7C88.5984 69 88.5984 69.3 88.6984 69.6L89.3984 72.6L88.2984 72.9L86.8984 67Z" fill="white"/>
<path d="M93.3984 63.4C93.3984 63.2 93.3984 63 93.4984 62.8C93.5984 62.6 93.7984 62.5 93.9984 62.5C94.1984 62.5 94.3984 62.5 94.5984 62.6C94.7984 62.7 94.8984 62.9 94.8984 63.1C94.8984 63.3 94.8984 63.5 94.7984 63.7C94.6984 63.9 94.4984 64 94.2984 64C94.0984 64 93.8984 64 93.6984 63.9C93.4984 63.8 93.3984 63.6 93.3984 63.4ZM93.9984 65.5L95.0984 65.3L96.0984 71.3L94.9984 71.5L93.9984 65.5Z" fill="white"/>
<path d="M100.797 66.0998C100.797 65.7998 100.797 65.4998 100.897 65.1998C100.997 64.8998 101.097 64.6998 101.297 64.4998C101.497 64.2998 101.697 64.0998 101.997 63.9998C102.297 63.8998 102.597 63.7998 102.897 63.7998C103.197 63.7998 103.497 63.7998 103.797 63.8998C104.097 63.9998 104.297 64.0998 104.497 64.2998C104.697 64.4998 104.897 64.6998 104.997 64.9998C105.097 65.2998 105.197 65.5998 105.197 65.8998C105.197 66.1998 105.197 66.4998 105.097 66.7998C104.997 67.0998 104.897 67.2998 104.697 67.4998C104.497 67.6998 104.297 67.8998 103.997 67.9998C103.697 68.0998 103.397 68.1998 103.097 68.1998C102.797 68.1998 102.497 68.1998 102.197 68.0998C101.897 67.9998 101.697 67.8998 101.497 67.6998C101.297 67.4998 101.097 67.2998 100.997 66.9998C100.897 66.6998 100.797 66.3998 100.797 66.0998Z" fill="white"/>
<path d="M111.097 68.3C111.297 68.6 111.597 68.9 111.897 69.1C112.197 69.3 112.597 69.4 112.997 69.4C113.197 69.4 113.397 69.4 113.597 69.3C113.797 69.2 113.997 69.2 114.197 69C114.397 68.8 114.497 68.7 114.597 68.5C114.697 68.3 114.797 68.1 114.797 67.9C114.797 67.6 114.697 67.3 114.497 67.1C114.297 66.9 113.997 66.7 113.697 66.6C113.397 66.5 112.997 66.3 112.597 66.2C112.197 66.1 111.897 65.9 111.597 65.7C111.297 65.5 110.997 65.2 110.797 64.8C110.597 64.4 110.497 64 110.497 63.4C110.497 63.1 110.597 62.9 110.697 62.6C110.797 62.3 110.997 62 111.297 61.8C111.597 61.6 111.897 61.4 112.297 61.2C112.697 61 113.197 61 113.697 61C114.197 61 114.697 61.1 115.097 61.3C115.497 61.5 115.897 61.7 116.297 62.2L115.297 63.1C115.197 62.9 114.897 62.7 114.697 62.5C114.397 62.3 114.097 62.3 113.797 62.2C113.497 62.2 113.197 62.2 112.897 62.3C112.697 62.4 112.497 62.5 112.297 62.6C112.097 62.7 112.097 62.9 111.997 63C111.897 63.2 111.897 63.3 111.897 63.4C111.897 63.8 111.997 64.1 112.197 64.3C112.397 64.5 112.697 64.7 112.997 64.8C113.297 64.9 113.697 65.1 114.097 65.2C114.497 65.3 114.797 65.5 115.197 65.7C115.497 65.9 115.797 66.2 115.997 66.5C116.197 66.8 116.297 67.3 116.297 67.8C116.297 68.2 116.197 68.6 115.997 69C115.797 69.3 115.597 69.6 115.297 69.9C114.997 70.1 114.697 70.3 114.297 70.4C113.897 70.5 113.497 70.6 113.097 70.5C112.497 70.5 111.997 70.4 111.497 70.1C110.997 69.9 110.597 69.5 110.297 69.1L111.097 68.3Z" fill="white"/>
<path d="M122.5 71.2L121.4 71.1L121.5 70.2C121.3 70.5 121 70.7 120.7 70.9C120.4 71.1 119.9 71.1 119.4 71C119.1 71 118.8 70.9 118.6 70.8C118.3 70.7 118.1 70.5 118 70.3C117.9 70.1 117.7 69.8 117.6 69.5C117.5 69.2 117.5 68.8 117.5 68.4L118 64.5L119.1 64.6L118.7 68.1C118.7 68.4 118.7 68.6 118.7 68.8C118.8 69 118.8 69.2 118.9 69.3C119 69.4 119.1 69.5 119.3 69.6C119.5 69.7 119.6 69.7 119.8 69.7C120 69.7 120.3 69.7 120.5 69.7C120.7 69.6 120.9 69.5 121.1 69.4C121.3 69.3 121.4 69.1 121.5 68.8C121.6 68.5 121.7 68.3 121.7 67.9L122.1 64.8L123.2 64.9L122.5 71.2Z" fill="white"/>
<path d="M124.999 65.5L126.099 65.7L125.899 66.6C126.099 66.3 126.399 66.1 126.799 66C127.199 65.9 127.599 65.9 128.099 66C128.399 66.1 128.599 66.2 128.899 66.3C129.099 66.4 129.299 66.6 129.499 66.8C129.699 67 129.799 67.3 129.799 67.6C129.899 67.9 129.799 68.3 129.799 68.7L128.999 72.5L127.899 72.3L128.599 68.8C128.699 68.5 128.699 68.3 128.599 68.1C128.599 67.9 128.499 67.7 128.399 67.6C128.299 67.5 128.199 67.3 127.999 67.3C127.799 67.2 127.699 67.2 127.499 67.1C127.299 67.1 126.999 67 126.799 67.1C126.599 67.1 126.399 67.2 126.199 67.3C125.999 67.4 125.899 67.6 125.699 67.8C125.599 68 125.499 68.3 125.399 68.7L124.799 71.7L123.699 71.5L124.999 65.5Z" fill="white"/>
<path d="M130.997 69.7999C131.097 69.3999 131.297 68.9999 131.597 68.6999C131.897 68.3999 132.197 68.0999 132.497 67.8999C132.897 67.6999 133.197 67.5999 133.697 67.4999C134.197 67.3999 134.497 67.4999 134.997 67.5999C135.397 67.6999 135.797 67.8999 136.097 68.1999C136.397 68.4999 136.697 68.7999 136.897 69.0999C137.097 69.4999 137.197 69.7999 137.297 70.2999C137.397 70.6999 137.297 71.0999 137.197 71.5999C137.097 71.9999 136.897 72.3999 136.597 72.6999C136.297 72.9999 135.997 73.2999 135.697 73.4999C135.397 73.6999 134.997 73.7999 134.497 73.8999C133.997 73.9999 133.697 73.8999 133.197 73.7999C132.797 73.6999 132.397 73.4999 132.097 73.1999C131.797 72.8999 131.497 72.5999 131.297 72.2999C131.097 71.8999 130.997 71.5999 130.897 71.0999C130.797 70.5999 130.897 70.1999 130.997 69.7999ZM132.197 70.0999C132.097 70.3999 132.097 70.6999 132.097 70.9999C132.097 71.2999 132.197 71.4999 132.297 71.6999C132.397 71.8999 132.597 72.0999 132.797 72.2999C132.997 72.4999 133.297 72.5999 133.597 72.6999C133.897 72.7999 134.197 72.7999 134.397 72.7999C134.697 72.7999 134.897 72.6999 135.097 72.5999C135.297 72.4999 135.497 72.2999 135.697 72.0999C135.897 71.8999 135.997 71.5999 136.097 71.2999C136.197 70.9999 136.197 70.6999 136.197 70.3999C136.197 70.0999 136.097 69.8999 135.997 69.6999C135.897 69.4999 135.697 69.2999 135.497 69.0999C135.297 68.8999 134.997 68.7999 134.697 68.6999C134.397 68.5999 134.097 68.5999 133.897 68.5999C133.597 68.5999 133.397 68.6999 133.197 68.7999C132.997 68.8999 132.797 69.0999 132.597 69.2999C132.397 69.5999 132.197 69.8999 132.197 70.0999Z" fill="white"/>
<path d="M144.197 67.7998L145.297 68.2998L141.897 76.6998L140.797 76.1998L144.197 67.7998Z" fill="white"/>
<path d="M146.198 71.8999L147.198 72.3999L146.798 73.1999C147.098 72.9999 147.398 72.7999 147.798 72.7999C148.198 72.7999 148.598 72.8999 148.998 73.0999C149.298 73.1999 149.498 73.3999 149.698 73.5999C149.898 73.7999 150.098 73.9999 150.198 74.2999C150.298 74.5999 150.298 74.7999 150.298 75.1999C150.298 75.4999 150.198 75.8999 149.998 76.1999L148.298 79.6999L147.298 79.1999L148.798 75.9999C148.898 75.6999 148.998 75.4999 148.998 75.2999C148.998 75.0999 148.998 74.8999 148.898 74.6999C148.798 74.4999 148.698 74.3999 148.598 74.2999C148.498 74.1999 148.298 74.0999 148.198 73.9999C147.998 73.8999 147.798 73.7999 147.598 73.7999C147.398 73.7999 147.198 73.7999 146.998 73.8999C146.798 73.9999 146.598 74.0999 146.398 74.2999C146.198 74.4999 145.998 74.6999 145.898 75.0999L144.598 77.8999L143.598 77.3999L146.198 71.8999Z" fill="white"/>
<path d="M154.798 83.3002L153.798 82.7002L154.198 82.0002C153.798 82.2002 153.498 82.2002 152.998 82.2002C152.598 82.2002 152.198 82.0002 151.798 81.8002C151.398 81.6002 151.098 81.3002 150.798 80.9002C150.598 80.6002 150.398 80.2002 150.298 79.8002C150.198 79.4002 150.198 79.0002 150.298 78.6002C150.398 78.2002 150.498 77.8002 150.698 77.4002C150.898 77.0002 151.198 76.7002 151.498 76.4002C151.798 76.1002 152.198 76.0002 152.498 75.8002C152.798 75.6002 153.298 75.7002 153.698 75.7002C154.098 75.8002 154.498 75.9002 154.898 76.1002C155.298 76.3002 155.598 76.6002 155.798 77.0002C155.998 77.4002 156.198 77.7002 156.198 78.1002L158.498 74.2002L159.498 74.8002L154.798 83.3002ZM152.598 81.0002C152.898 81.2002 153.098 81.2002 153.398 81.3002C153.698 81.4002 153.898 81.3002 154.198 81.2002C154.398 81.1002 154.698 81.0002 154.898 80.8002C155.098 80.6002 155.298 80.4002 155.498 80.1002C155.698 79.8002 155.798 79.6002 155.798 79.3002C155.798 79.0002 155.798 78.8002 155.798 78.5002C155.698 78.3002 155.598 78.0002 155.498 77.8002C155.398 77.6002 155.098 77.4002 154.898 77.2002C154.598 77.0002 154.398 77.0002 154.098 76.9002C153.798 76.8002 153.598 76.9002 153.298 77.0002C153.098 77.1002 152.798 77.2002 152.598 77.4002C152.398 77.6002 152.198 77.8002 151.998 78.1002C151.798 78.4002 151.698 78.6002 151.698 78.9002C151.598 79.2002 151.698 79.4002 151.698 79.7002C151.798 79.9002 151.898 80.2002 151.998 80.4002C152.098 80.6002 152.298 80.8002 152.598 81.0002Z" fill="white"/>
<path d="M159.498 79.1998L160.498 79.7998L157.098 84.7998L156.098 84.1998L159.498 79.1998ZM160.498 77.1998C160.598 76.9998 160.798 76.8998 160.998 76.7998C161.198 76.7998 161.398 76.7998 161.598 76.8998C161.798 76.9998 161.898 77.1998 161.998 77.3998C161.998 77.5998 161.998 77.7998 161.898 77.9998C161.798 78.1998 161.598 78.2998 161.398 78.3998C161.198 78.3998 160.998 78.3998 160.798 78.2998C160.598 78.1998 160.498 77.9998 160.398 77.7998C160.298 77.5998 160.298 77.3998 160.498 77.1998Z" fill="white"/>
<path d="M161.597 81.5C161.997 81.5 162.497 81.5 162.897 81.6C163.297 81.7 163.697 81.9 164.097 82.2C164.497 82.5 164.697 82.7 164.897 83C165.097 83.3 165.197 83.6 165.297 83.8C165.397 84 165.297 84.3 165.297 84.6C165.197 84.9 165.097 85.1 164.997 85.3L163.097 87.8C162.997 88 162.897 88.1 162.797 88.3C162.697 88.5 162.597 88.6 162.497 88.7L161.697 88.1C161.897 87.8 161.997 87.6 162.197 87.3C161.797 87.5 161.397 87.5 160.997 87.4C160.597 87.3 160.297 87.1 159.897 86.9C159.697 86.7 159.497 86.5 159.297 86.3C159.097 86.1 158.997 85.9 158.997 85.6C158.897 85.4 158.897 85.1 158.997 84.9C158.997 84.7 159.197 84.4 159.297 84.2C159.497 83.9 159.797 83.7 160.097 83.6C160.397 83.5 160.697 83.5 161.097 83.5C161.397 83.5 161.797 83.7 162.197 83.9C162.597 84.1 162.897 84.3 163.297 84.6L163.997 85.1L164.197 84.9C164.297 84.8 164.397 84.6 164.397 84.5C164.397 84.3 164.497 84.2 164.397 84C164.397 83.8 164.297 83.7 164.197 83.5C164.097 83.3 163.997 83.2 163.797 83C163.597 82.9 163.497 82.8 163.297 82.7C163.097 82.6 162.997 82.6 162.797 82.6C162.697 82.6 162.497 82.6 162.397 82.6C162.297 82.6 162.097 82.6 161.997 82.6L161.597 81.5ZM162.697 85.4C162.497 85.2 162.297 85.1 161.997 84.9C161.797 84.8 161.497 84.6 161.297 84.6C161.097 84.5 160.797 84.5 160.597 84.5C160.397 84.5 160.197 84.6 160.097 84.8C159.897 85.1 159.797 85.3 159.897 85.6C159.997 85.9 160.197 86.1 160.497 86.4C160.797 86.6 160.997 86.7 161.197 86.8C161.397 86.8 161.697 86.8 161.897 86.8C162.097 86.7 162.297 86.7 162.497 86.5C162.697 86.3 162.797 86.2 162.897 86.1L163.097 85.8L162.697 85.4Z" fill="white"/>
<path d="M26.7 174.4L27.5 177.4C27.6 177.8 27.6 178.1 27.6 178.5C27.6 178.9 27.5 179.2 27.4 179.4C27.3 179.6 27.1 179.9 26.9 180.1C26.7 180.3 26.4 180.5 26 180.6C25.5 180.7 25.1 180.7 24.7 180.5C24.3 180.3 24 180 23.7 179.6C23.8 179.9 23.7 180.1 23.7 180.4C23.6 180.7 23.5 180.9 23.4 181.1C23.3 181.3 23.1 181.5 22.8 181.7C22.6 181.9 22.3 182 22 182.1C21.6 182.2 21.2 182.2 20.9 182.1C20.6 182 20.2 181.9 20 181.6C19.8 181.3 19.5 181.1 19.3 180.7C19.1 180.4 18.9 180 18.8 179.5L18 176.5L26.7 174.4ZM19.3 177.6L19.8 179.3C19.8 179.5 19.9 179.7 20 179.9C20.1 180.1 20.2 180.3 20.4 180.5C20.6 180.7 20.8 180.8 21 180.9C21.2 181 21.5 181 21.8 180.9C22.3 180.8 22.7 180.5 22.8 180.1C23 179.7 23 179.2 22.8 178.6L22.3 176.8L19.3 177.6ZM23.4 176.6L23.8 178.2C23.9 178.4 23.9 178.6 24 178.8C24.1 179 24.2 179.1 24.4 179.3C24.5 179.4 24.7 179.5 24.9 179.5C25.1 179.5 25.3 179.5 25.5 179.5C25.8 179.4 26.1 179.2 26.3 178.9C26.5 178.6 26.5 178.2 26.4 177.8L25.9 175.9L23.4 176.6Z" fill="white"/>
<path d="M29.1992 181.3L29.5992 182.4L25.2992 183.9C25.6992 183.9 25.9992 184.1 26.2992 184.3C26.5992 184.6 26.7992 184.9 26.9992 185.4C27.0992 185.7 27.0992 186 27.1992 186.2C27.2992 186.4 27.1992 186.7 26.9992 187C26.8992 187.2 26.6992 187.5 26.4992 187.7C26.2992 187.9 25.9992 188.1 25.5992 188.2L21.8992 189.5L21.4992 188.4L24.8992 187.2C25.1992 187.1 25.3992 187 25.4992 186.9C25.6992 186.8 25.7992 186.6 25.8992 186.5C25.9992 186.3 25.9992 186.2 25.9992 186C25.9992 185.8 25.9992 185.7 25.8992 185.5C25.7992 185.3 25.6992 185.1 25.5992 184.9C25.4992 184.7 25.2992 184.6 25.0992 184.5C24.8992 184.4 24.6992 184.4 24.3992 184.4C24.0992 184.4 23.7992 184.5 23.4992 184.6L20.5992 185.6L20.1992 184.5L29.1992 181.3Z" fill="white"/>
<path d="M27.5992 189.4C27.9992 189.6 28.3992 189.8 28.6992 190.2C28.9992 190.6 29.1992 190.9 29.3992 191.3C29.5992 191.7 29.6992 192.1 29.6992 192.4C29.6992 192.7 29.6992 193 29.5992 193.3C29.4992 193.6 29.3992 193.8 29.1992 194C28.9992 194.2 28.7992 194.3 28.5992 194.4L25.7992 195.6C25.5992 195.7 25.3992 195.8 25.2992 195.8C25.0992 195.9 24.9992 196 24.7992 196L24.3992 195.1C24.6992 195 24.8992 194.8 25.1992 194.7C24.6992 194.6 24.3992 194.5 24.0992 194.2C23.7992 193.9 23.5992 193.6 23.3992 193.2C23.2992 192.9 23.1992 192.7 23.1992 192.4C23.1992 192.1 23.1992 191.9 23.1992 191.6C23.2992 191.4 23.3992 191.1 23.4992 191C23.6992 190.8 23.8992 190.7 24.1992 190.5C24.5992 190.3 24.8992 190.3 25.1992 190.3C25.4992 190.4 25.7992 190.5 26.0992 190.7C26.3992 190.9 26.5992 191.2 26.8992 191.5C27.0992 191.8 27.2992 192.2 27.4992 192.6L27.7992 193.4L27.9992 193.3C28.0992 193.2 28.2992 193.1 28.3992 193C28.4992 192.9 28.5992 192.7 28.6992 192.6C28.7992 192.4 28.7992 192.3 28.7992 192.1C28.7992 191.9 28.6992 191.7 28.5992 191.5C28.4992 191.3 28.3992 191.1 28.2992 191C28.1992 190.9 28.0992 190.7 27.9992 190.7C27.8992 190.7 27.7992 190.5 27.5992 190.5C27.4992 190.4 27.3992 190.4 27.1992 190.3L27.5992 189.4ZM26.6992 193.3C26.5992 193.1 26.4992 192.8 26.2992 192.6C26.1992 192.4 25.9992 192.1 25.7992 192C25.5992 191.8 25.3992 191.7 25.1992 191.6C24.9992 191.5 24.7992 191.5 24.5992 191.6C24.2992 191.7 24.0992 191.9 24.0992 192.2C24.0992 192.5 24.0992 192.8 24.2992 193.2C24.3992 193.5 24.5992 193.7 24.7992 193.9C24.9992 194.1 25.1992 194.2 25.3992 194.2C25.5992 194.3 25.7992 194.3 25.9992 194.2C26.1992 194.2 26.3992 194.1 26.5992 194L26.9992 193.8L26.6992 193.3Z" fill="white"/>
<path d="M31.0992 198.6C31.1992 198.4 31.1992 198.2 31.1992 198C31.1992 197.8 31.0992 197.5 30.9992 197.3C30.8992 197.1 30.6992 196.9 30.4992 196.8C30.2992 196.7 30.0992 196.7 29.8992 196.8C29.6992 196.9 29.5992 197 29.5992 197.2C29.5992 197.4 29.4992 197.5 29.5992 197.7C29.5992 197.9 29.5992 198 29.6992 198.2C29.7992 198.4 29.7992 198.5 29.7992 198.6C29.8992 198.8 29.8992 199.1 29.8992 199.3C29.8992 199.5 29.8992 199.7 29.8992 200C29.8992 200.2 29.7992 200.4 29.5992 200.6C29.4992 200.8 29.2992 200.9 28.9992 201.1C28.6992 201.3 28.3992 201.3 28.0992 201.3C27.7992 201.3 27.5992 201.2 27.2992 201.1C27.0992 201 26.7992 200.8 26.5992 200.6C26.3992 200.4 26.1992 200.1 26.0992 199.9C25.8992 199.5 25.6992 199 25.6992 198.6C25.6992 198.2 25.6992 197.8 25.9992 197.3L26.9992 197.7C26.8992 198 26.8992 198.2 26.8992 198.5C26.8992 198.8 26.8992 199.1 27.0992 199.3C27.1992 199.4 27.1992 199.5 27.2992 199.7C27.3992 199.8 27.4992 199.9 27.5992 200C27.6992 200.1 27.7992 200.1 27.8992 200.1C27.9992 200.1 28.0992 200.1 28.1992 200C28.3992 199.9 28.3992 199.8 28.4992 199.7C28.4992 199.6 28.5992 199.4 28.5992 199.2C28.5992 199 28.5992 198.9 28.4992 198.7C28.4992 198.5 28.3992 198.4 28.3992 198.3C28.2992 198.1 28.2992 197.8 28.2992 197.6C28.2992 197.4 28.2992 197.1 28.2992 196.9C28.2992 196.7 28.3992 196.5 28.4992 196.3C28.5992 196.1 28.7992 196 29.0992 195.8C29.3992 195.7 29.6992 195.6 29.8992 195.6C30.0992 195.6 30.3992 195.7 30.6992 195.8C30.8992 195.9 31.1992 196.1 31.2992 196.3C31.3992 196.5 31.6992 196.7 31.7992 197C31.9992 197.4 32.0992 197.7 32.0992 198.1C32.0992 198.5 32.0992 198.9 31.7992 199.2L31.0992 198.6Z" fill="white"/>
<path d="M36.6 198L37.2 199L33.4 201.4C33.8 201.4 34.1 201.4 34.5 201.6C34.9 201.8 35.2 202.1 35.4 202.5C35.6 202.7 35.7 203 35.7 203.3C35.7 203.6 35.8 203.8 35.7 204.1C35.6 204.4 35.5 204.6 35.3 204.9C35.1 205.2 34.9 205.4 34.5 205.6L31.2 207.7L30.6 206.7L33.6 204.8C33.8 204.7 34 204.5 34.2 204.3C34.3 204.1 34.4 204 34.4 203.8C34.4 203.6 34.4 203.5 34.4 203.3C34.4 203.1 34.3 203 34.2 202.8C34.1 202.6 33.9 202.4 33.8 202.3C33.7 202.2 33.4 202.1 33.2 202C33 202 32.7 202 32.5 202C32.2 202.1 32 202.2 31.7 202.4L29.1 204L28.5 203L36.6 198Z" fill="white"/>
<path d="M36.6992 206.3C37.0992 206.4 37.4992 206.6 37.8992 206.8C38.2992 207.1 38.5992 207.4 38.7992 207.7C39.0992 208.1 39.1992 208.4 39.2992 208.7C39.3992 209 39.3992 209.3 39.3992 209.6C39.3992 209.9 39.2992 210.1 39.0992 210.3C38.8992 210.5 38.7992 210.7 38.5992 210.9L36.0992 212.7C35.8992 212.8 35.7992 212.9 35.5992 213.1C35.4992 213.2 35.2992 213.3 35.1992 213.4L34.5992 212.6C34.7992 212.4 35.0992 212.2 35.2992 212C34.7992 212 34.3992 211.9 34.0992 211.8C33.7992 211.6 33.4992 211.3 33.1992 211C32.9992 210.8 32.8992 210.5 32.7992 210.3C32.6992 210 32.6992 209.8 32.6992 209.6C32.6992 209.4 32.7992 209.1 32.8992 208.9C32.9992 208.7 33.1992 208.5 33.3992 208.3C33.6992 208.1 33.9992 207.9 34.2992 207.9C34.5992 207.9 34.8992 207.9 35.1992 208.1C35.4992 208.2 35.7992 208.5 36.0992 208.7C36.3992 209 36.6992 209.3 36.9992 209.7L37.4992 210.4L37.6992 210.2C37.7992 210.1 37.8992 210 37.9992 209.9C38.0992 209.8 38.0992 209.6 38.1992 209.4C38.1992 209.2 38.1992 209.1 38.1992 208.9C38.1992 208.7 38.0992 208.5 37.8992 208.3C37.7992 208.1 37.5992 208 37.4992 207.9C37.3992 207.8 37.1992 207.7 37.0992 207.6C36.9992 207.5 36.7992 207.5 36.6992 207.4C36.5992 207.3 36.3992 207.3 36.2992 207.3L36.6992 206.3ZM36.6992 210.3C36.4992 210.1 36.3992 209.9 36.1992 209.7C35.9992 209.5 35.7992 209.3 35.5992 209.2C35.3992 209.1 35.1992 209 34.9992 208.9C34.7992 208.9 34.5992 208.9 34.3992 209.1C34.0992 209.3 33.9992 209.5 33.9992 209.8C33.9992 210.1 34.0992 210.4 34.3992 210.7C34.5992 211 34.7992 211.1 34.9992 211.3C35.1992 211.5 35.3992 211.5 35.6992 211.5C35.8992 211.5 36.0992 211.5 36.2992 211.4C36.4992 211.3 36.6992 211.2 36.8992 211.1L37.1992 210.9L36.6992 210.3Z" fill="white"/>
<path d="M44.5016 217.1C44.5016 216.9 44.5016 216.7 44.5016 216.4C44.5016 216.2 44.3015 216 44.1015 215.7C43.9015 215.5 43.7016 215.4 43.5016 215.3C43.3016 215.2 43.1016 215.3 42.9016 215.4C42.8016 215.5 42.7016 215.7 42.7016 215.8C42.7016 216 42.7016 216.1 42.8016 216.3C42.9016 216.5 42.9016 216.6 43.0016 216.8C43.1016 217 43.2016 217.1 43.2016 217.2C43.3016 217.4 43.4016 217.6 43.5016 217.9C43.6016 218.2 43.6015 218.3 43.6015 218.5C43.6015 218.7 43.6016 218.9 43.5016 219.1C43.4016 219.3 43.3015 219.5 43.1015 219.7C42.8015 219.9 42.6016 220.1 42.3016 220.1C42.0016 220.2 41.8016 220.2 41.5016 220.1C41.2016 220 41.0016 219.9 40.7016 219.7C40.5016 219.5 40.2016 219.3 40.0016 219.1C39.7016 218.7 39.4016 218.4 39.3016 218C39.2016 217.6 39.1016 217.2 39.2016 216.7L40.3016 216.9C40.3016 217.2 40.3016 217.4 40.4016 217.7C40.4016 218 40.6016 218.2 40.8016 218.5C40.9016 218.6 41.0015 218.7 41.1015 218.8C41.2015 218.9 41.3016 219 41.5016 219C41.6016 219 41.7016 219.1 41.9016 219C42.1016 218.9 42.1016 218.9 42.2016 218.9C42.3016 218.8 42.4016 218.7 42.4016 218.5C42.4016 218.3 42.4016 218.2 42.3016 218C42.2016 217.8 42.2015 217.7 42.1015 217.5C42.0015 217.4 41.9016 217.2 41.9016 217.1C41.8016 216.9 41.7015 216.7 41.6015 216.4C41.5015 216.1 41.4016 216 41.4016 215.8C41.4016 215.6 41.4016 215.4 41.5016 215.2C41.6016 215 41.7016 214.8 41.9016 214.6C42.1016 214.4 42.4015 214.3 42.6015 214.2C42.8015 214.1 43.1016 214.1 43.4016 214.2C43.7016 214.3 43.9016 214.4 44.2016 214.5C44.4016 214.7 44.7016 214.8 44.8016 215C45.1016 215.3 45.3016 215.6 45.4016 216C45.5016 216.4 45.6016 216.8 45.4016 217.2L44.5016 217.1Z" fill="white"/>
<path d="M46.7984 218.3C47.1984 218.3 47.6984 218.4 48.0984 218.6C48.4984 218.8 48.8984 219 49.1984 219.3C49.4984 219.6 49.7984 219.9 49.8984 220.2C50.0984 220.5 50.0984 220.8 50.1984 221.1C50.1984 221.4 50.1984 221.6 50.0984 221.9C49.9984 222.1 49.8984 222.4 49.6984 222.6L47.5984 224.8C47.4984 225 47.2984 225.1 47.1984 225.2C47.0984 225.3 46.9984 225.5 46.8984 225.6L46.1984 224.9C46.3984 224.7 46.5984 224.4 46.7984 224.2C46.2984 224.3 45.8984 224.3 45.5984 224.2C45.1984 224.1 44.8984 223.9 44.5984 223.5C44.3984 223.3 44.1984 223.1 44.0984 222.9C43.9984 222.7 43.8984 222.4 43.8984 222.2C43.8984 222 43.8984 221.7 43.9984 221.5C44.0984 221.3 44.1984 221 44.3984 220.8C44.6984 220.5 44.9984 220.3 45.2984 220.3C45.5984 220.2 45.8984 220.2 46.2984 220.3C46.6984 220.4 46.9984 220.5 47.2984 220.8C47.5984 221 47.9984 221.3 48.2984 221.6L48.8984 222.2L49.0984 222C49.1984 221.9 49.2984 221.8 49.3984 221.6C49.4984 221.4 49.4984 221.3 49.4984 221.1C49.4984 220.9 49.4984 220.8 49.3984 220.6C49.2984 220.4 49.1984 220.3 48.9984 220.1C48.7984 219.9 48.6984 219.8 48.4984 219.7C48.3984 219.6 48.1984 219.6 48.0984 219.5C47.9984 219.4 47.7984 219.4 47.6984 219.4C47.5984 219.4 47.3984 219.4 47.2984 219.4L46.7984 218.3ZM47.3984 222.3C47.1984 222.1 46.9984 221.9 46.7984 221.8C46.5984 221.6 46.2984 221.5 46.0984 221.4C45.8984 221.3 45.6984 221.3 45.3984 221.3C45.1984 221.3 44.9984 221.4 44.7984 221.6C44.5984 221.9 44.4984 222.1 44.4984 222.4C44.5984 222.7 44.6984 222.9 44.9984 223.2C45.1984 223.4 45.4984 223.6 45.6984 223.6C45.8984 223.7 46.1984 223.7 46.3984 223.7C46.5984 223.7 46.7984 223.6 46.9984 223.5C47.1984 223.4 47.3984 223.3 47.4984 223.1L47.7984 222.8L47.3984 222.3Z" fill="white"/>
<path d="M51.9 222.2L52.7 222.9L52.1 223.6C52.2 223.5 52.3 223.5 52.5 223.5C52.7 223.5 52.8 223.5 53 223.5C53.2 223.5 53.4 223.6 53.6 223.6C53.8 223.7 54 223.8 54.3 224C54.7 224.3 54.9 224.6 55 224.9C55.1 225.2 55.2 225.6 55.1 226C55.5 225.8 55.9 225.8 56.3 225.8C56.7 225.9 57 226 57.3 226.2C57.7 226.5 57.9 226.8 58.1 227.1C58.2 227.4 58.3 227.7 58.3 228C58.3 228.3 58.2 228.6 58.1 228.9C58 229.2 57.8 229.5 57.6 229.7L55.4 232.5L54.5 231.9L56.6 229.2C56.7 229 56.9 228.8 57 228.6C57.1 228.4 57.2 228.2 57.2 228C57.2 227.8 57.2 227.6 57.1 227.5C57 227.3 56.9 227.1 56.7 227C56.3 226.7 55.8 226.5 55.5 226.7C55.1 226.8 54.7 227.1 54.4 227.5L52.4 230.1L51.5 229.4L53.4 226.9C53.6 226.7 53.7 226.5 53.9 226.2C54.1 225.9 54.1 225.8 54.1 225.6C54.1 225.4 54.1 225.2 54.1 225C54 224.8 53.9 224.6 53.7 224.5C53.5 224.4 53.4 224.3 53.2 224.2C53 224.1 52.8 224.1 52.6 224.2C52.4 224.2 52.2 224.3 51.9 224.5C51.7 224.6 51.5 224.9 51.3 225.1L49.4 227.6L48.5 226.9L51.9 222.2Z" fill="white"/>
<path d="M60.1 229.3C60.5 229.2 61 229.2 61.4 229.3C61.8 229.4 62.2 229.6 62.6 229.8C63 230 63.3 230.3 63.5 230.6C63.7 230.9 63.9 231.1 63.9 231.4C64 231.7 64 231.9 63.9 232.2C63.9 232.5 63.8 232.7 63.6 232.9L61.9 235.5C61.8 235.7 61.7 235.8 61.6 236C61.5 236.2 61.4 236.3 61.4 236.5L60.5 236C60.6 235.7 60.8 235.5 61 235.2C60.6 235.4 60.2 235.5 59.8 235.4C59.4 235.3 59 235.2 58.6 235C58.4 234.8 58.2 234.7 58 234.5C57.8 234.3 57.7 234.1 57.6 233.9C57.5 233.7 57.5 233.4 57.5 233.2C57.5 233 57.6 232.7 57.8 232.4C58 232.1 58.3 231.8 58.5 231.7C58.8 231.6 59.1 231.5 59.4 231.5C59.7 231.5 60.1 231.6 60.5 231.8C60.9 232 61.3 232.2 61.7 232.4L62.4 232.9L62.5 232.7C62.6 232.6 62.6 232.4 62.7 232.3C62.7 232.1 62.7 232 62.7 231.8C62.7 231.6 62.6 231.5 62.5 231.3C62.4 231.1 62.2 231 62 230.9C61.8 230.8 61.6 230.7 61.5 230.6C61.4 230.5 61.2 230.5 61 230.5C60.9 230.5 60.7 230.5 60.6 230.5C60.5 230.5 60.3 230.5 60.2 230.5L60.1 229.3ZM61.5 233.1C61.3 233 61 232.8 60.8 232.7C60.5 232.6 60.3 232.5 60 232.4C59.8 232.3 59.5 232.3 59.3 232.4C59.1 232.4 58.9 232.6 58.8 232.8C58.6 233.1 58.6 233.4 58.7 233.6C58.8 233.9 59 234.1 59.4 234.3C59.7 234.5 59.9 234.6 60.2 234.6C60.4 234.6 60.7 234.6 60.9 234.5C61.1 234.4 61.3 234.3 61.5 234.2C61.7 234.1 61.8 233.9 61.9 233.7L62.1 233.4L61.5 233.1Z" fill="white"/>
<path d="M66.0016 232.1L67.0016 232.7L66.6016 233.5C66.7016 233.4 66.9016 233.3 67.1016 233.3C67.3016 233.2 67.5016 233.2 67.6016 233.2C67.8016 233.2 68.0016 233.2 68.2016 233.3C68.4016 233.3 68.6016 233.4 68.7016 233.5C68.8016 233.6 69.0016 233.7 69.1016 233.8L68.5016 234.9C68.4016 234.8 68.4016 234.8 68.3016 234.7C68.2016 234.6 68.1016 234.6 68.1016 234.5C67.6016 234.2 67.2016 234.2 66.7016 234.3C66.3016 234.4 65.9016 234.8 65.6016 235.4L64.1016 238.1L63.1016 237.5L66.0016 232.1Z" fill="white"/>
<path d="M72.6008 236.6L71.1008 235.9L69.9008 238.4C69.8008 238.6 69.8008 238.7 69.7008 238.9C69.6008 239.1 69.6008 239.2 69.6008 239.3C69.6008 239.4 69.6008 239.6 69.7008 239.7C69.8008 239.8 69.9008 239.9 70.1008 240C70.2008 240.1 70.4008 240.1 70.5008 240.1C70.6008 240.1 70.8008 240.2 70.9008 240.1L70.4008 241C70.2008 241 70.1008 241 69.9008 240.9C69.7008 240.8 69.5008 240.8 69.4008 240.7C69.0008 240.5 68.7008 240.3 68.6008 240.1C68.4008 239.9 68.3008 239.7 68.3008 239.4C68.3008 239.2 68.3008 238.9 68.4008 238.7C68.5008 238.5 68.6008 238.2 68.7008 238L70.1008 235.2L68.9008 234.6L69.3008 233.7L70.5008 234.3L71.2008 232.8L72.2008 233.3L71.5008 234.8L73.0008 235.5L72.6008 236.6Z" fill="white"/>
<path d="M75.5984 233L76.6984 233.4L74.9984 237.6C75.2984 237.4 75.5984 237.2 75.9984 237.2C76.3984 237.1 76.7984 237.2 77.2984 237.4C77.5984 237.5 77.7984 237.7 77.9984 237.8C78.1984 238 78.3984 238.2 78.4984 238.4C78.5984 238.6 78.6984 238.9 78.6984 239.2C78.6984 239.5 78.5984 239.9 78.4984 240.2L76.9984 243.8L75.8984 243.4L77.1984 240.1C77.2984 239.8 77.3984 239.6 77.3984 239.4C77.3984 239.2 77.3984 239 77.2984 238.8C77.1984 238.6 77.0984 238.5 76.9984 238.4C76.8984 238.3 76.6984 238.2 76.5984 238.1C76.3984 238 76.1984 238 75.8984 238C75.6984 238 75.4984 238 75.2984 238.1C75.0984 238.2 74.8984 238.3 74.6984 238.6C74.4984 238.8 74.3984 239.1 74.1984 239.4L72.9984 242.3L71.8984 241.9L75.5984 233Z" fill="white"/>
<path d="M80.6 239.6C81 239.4 81.4001 239.3 81.9001 239.3C82.4001 239.3 82.8 239.3 83.2 239.5C83.6 239.6 84 239.8 84.2 240C84.5 240.2 84.7 240.4 84.8 240.7C84.9 240.9 85 241.2 85 241.5C85 241.8 85.0001 242 84.9001 242.3L84 245.2C83.9 245.4 83.9 245.6 83.8 245.8C83.8 246 83.7 246.1 83.7 246.3L82.7 246C82.8 245.7 82.8001 245.4 82.9001 245.1C82.5001 245.4 82.2 245.6 81.8 245.6C81.4 245.6 81 245.6 80.6 245.5C80.3 245.4 80.1001 245.3 79.9001 245.1C79.7001 244.9 79.5001 244.8 79.4001 244.6C79.3001 244.4 79.2 244.2 79.1 243.9C79 243.6 79.1 243.4 79.2 243.1C79.3 242.7 79.5 242.4 79.7 242.2C79.9 242 80.2 241.9 80.6 241.8C80.9 241.7 81.3 241.7 81.7 241.8C82.1 241.9 82.5 241.9 83 242.1L83.8 242.4L83.9001 242.2C83.9001 242.1 84 241.9 84 241.7C84 241.5 83.9001 241.4 83.9001 241.2C83.8001 241 83.7 240.9 83.6 240.8C83.5 240.7 83.3 240.6 83 240.5C82.8 240.4 82.6001 240.4 82.4001 240.4C82.2001 240.4 82.1001 240.4 81.9001 240.4C81.8001 240.4 81.6 240.5 81.5 240.5C81.4 240.5 81.2 240.6 81.1 240.6L80.6 239.6ZM82.9001 242.8C82.6001 242.7 82.4 242.6 82.1 242.6C81.8 242.5 81.6 242.5 81.3 242.5C81.1 242.5 80.8 242.6 80.6 242.7C80.4 242.8 80.3 243 80.2 243.2C80.1 243.5 80.1 243.8 80.3 244C80.5 244.2 80.8 244.4 81.1 244.5C81.4 244.6 81.7001 244.6 81.9001 244.6C82.1001 244.6 82.4 244.5 82.5 244.4C82.7 244.3 82.8 244.1 83 243.9C83.2 243.7 83.2 243.5 83.3 243.3L83.4001 242.9L82.9001 242.8Z" fill="white"/>
<path d="M87.8016 237.2L88.9016 237.5L87.5016 243.6L90.6016 241.6L92.2016 242L88.8016 244L91.0016 247.9L89.4016 247.5L87.4016 243.8L86.7016 246.9L85.6016 246.6L87.8016 237.2Z" fill="white"/>
<path d="M96.6985 244.3C96.6985 244 96.7985 243.7 96.9985 243.4C97.0985 243.1 97.2985 242.9 97.5985 242.7C97.8985 242.5 98.0985 242.4 98.3985 242.3C98.6985 242.2 98.9985 242.2 99.2985 242.2C99.5985 242.2 99.8985 242.3 100.199 242.5C100.499 242.7 100.699 242.8 100.899 243.1C101.099 243.4 101.198 243.6 101.298 243.9C101.398 244.2 101.399 244.5 101.399 244.8C101.399 245.1 101.298 245.4 101.098 245.7C100.998 246 100.798 246.2 100.498 246.4C100.198 246.6 99.9985 246.7 99.6985 246.8C99.3985 246.9 99.0985 246.9 98.7985 246.9C98.4985 246.9 98.1985 246.8 97.8985 246.6C97.5985 246.4 97.3985 246.3 97.1985 246C96.9985 245.8 96.8985 245.5 96.7985 245.2C96.5985 244.9 96.5985 244.6 96.6985 244.3Z" fill="white"/>
<path d="M106.899 240.6L110.099 240.7C110.699 240.7 111.199 240.8 111.499 241C111.899 241.2 112.199 241.4 112.399 241.6C112.599 241.8 112.799 242.1 112.799 242.4C112.899 242.7 112.899 243 112.899 243.3C112.899 243.6 112.799 243.9 112.799 244.2C112.699 244.5 112.599 244.8 112.299 245C111.999 245.2 111.799 245.4 111.399 245.6C110.999 245.8 110.499 245.8 109.999 245.8H107.999L107.899 249.8H106.699L106.899 240.6ZM107.999 244.6H109.599C109.799 244.6 110.099 244.6 110.299 244.6C110.499 244.6 110.699 244.5 110.899 244.4C111.099 244.3 111.199 244.2 111.299 244C111.399 243.8 111.499 243.6 111.499 243.3C111.499 243 111.499 242.7 111.299 242.6C111.199 242.4 110.999 242.3 110.899 242.2C110.699 242.1 110.499 242 110.299 242C110.099 242 109.799 241.9 109.599 241.9H107.999V244.6Z" fill="white"/>
<path d="M113.898 239.9L114.998 239.8L115.598 249.4L114.498 249.5L113.898 239.9Z" fill="white"/>
<path d="M117 244.1C117.3 243.8 117.6 243.5 118 243.3C118.4 243.1 118.8 243 119.2 242.9C119.6 242.9 120 242.9 120.4 242.9C120.8 242.9 121 243.1 121.2 243.3C121.4 243.5 121.6 243.7 121.7 243.9C121.8 244.1 121.9 244.4 121.9 244.6L122.2 247.7C122.2 247.9 122.2 248.1 122.3 248.3C122.3 248.5 122.4 248.6 122.4 248.8L121.4 248.9C121.3 248.6 121.3 248.3 121.3 248C121.1 248.4 120.8 248.7 120.5 248.9C120.2 249.1 119.8 249.2 119.3 249.3C119 249.3 118.8 249.3 118.5 249.3C118.2 249.3 118 249.2 117.8 249C117.6 248.8 117.4 248.7 117.3 248.5C117.2 248.3 117.1 248 117 247.7C117 247.3 117 247 117.1 246.7C117.2 246.4 117.5 246.2 117.7 246C118 245.8 118.3 245.6 118.7 245.5C119.1 245.4 119.5 245.3 120 245.2L120.8 245.1V244.8C120.8 244.6 120.7 244.5 120.7 244.4C120.6 244.3 120.5 244.1 120.4 244C120.3 243.9 120.1 243.8 119.9 243.8C119.7 243.8 119.5 243.7 119.3 243.8C119.1 243.8 118.9 243.9 118.7 243.9C118.5 244 118.4 244 118.3 244.1C118.2 244.2 118.1 244.3 118 244.4C117.9 244.5 117.8 244.6 117.7 244.7L117 244.1ZM120.5 246.1C120.2 246.1 120 246.2 119.7 246.2C119.4 246.3 119.2 246.3 118.9 246.5C118.6 246.7 118.5 246.7 118.4 246.9C118.3 247.1 118.2 247.3 118.2 247.5C118.2 247.8 118.4 248.1 118.6 248.2C118.8 248.3 119.2 248.4 119.6 248.3C119.9 248.3 120.2 248.2 120.4 248.1C120.6 248 120.8 247.8 120.9 247.6C121 247.4 121.1 247.2 121.1 247C121.1 246.8 121.1 246.6 121.1 246.4V246L120.5 246.1Z" fill="white"/>
<path d="M126.802 242.9L125.202 243.2L125.702 245.9C125.702 246.1 125.802 246.2 125.802 246.4C125.802 246.6 125.902 246.7 126.002 246.8C126.102 246.9 126.202 247 126.302 247.1C126.402 247.2 126.602 247.2 126.802 247.1C126.902 247.1 127.102 247 127.202 247C127.302 246.9 127.502 246.9 127.602 246.8L127.802 247.8C127.702 247.9 127.502 248 127.302 248C127.102 248.1 126.902 248.1 126.802 248.1C126.402 248.2 126.002 248.2 125.802 248.1C125.502 248 125.302 247.9 125.202 247.7C125.102 247.5 124.902 247.3 124.902 247.1C124.802 246.9 124.802 246.6 124.702 246.4L124.102 243.3L122.802 243.5L122.602 242.5L123.902 242.3L123.602 240.6L124.702 240.4L125.002 242.1L126.602 241.8L126.802 242.9Z" fill="white"/>
<path d="M127.301 239.6C127.301 239.4 127.301 239.2 127.401 239C127.501 238.8 127.701 238.7 127.901 238.6C128.101 238.6 128.301 238.6 128.501 238.7C128.701 238.8 128.801 239 128.901 239.2C128.901 239.4 128.901 239.6 128.801 239.8C128.701 240 128.501 240.1 128.301 240.2C128.101 240.2 127.901 240.2 127.701 240.1C127.501 240 127.401 239.8 127.301 239.6ZM128.101 241.6L129.201 241.4L130.501 247.3L129.401 247.5L128.101 241.6Z" fill="white"/>
<path d="M130.898 241.1L131.898 240.8L132.198 241.7C132.198 241.6 132.198 241.5 132.298 241.3C132.398 241.1 132.498 241 132.598 240.8C132.698 240.6 132.898 240.5 133.098 240.3C133.298 240.2 133.498 240 133.798 240C134.198 239.9 134.598 239.8 134.998 239.9C135.398 240 135.698 240.2 135.998 240.5C136.098 240.1 136.298 239.7 136.498 239.5C136.798 239.2 137.098 239 137.498 238.9C137.898 238.8 138.298 238.7 138.698 238.8C138.998 238.9 139.298 239 139.498 239.2C139.698 239.4 139.898 239.6 140.098 239.9C140.298 240.2 140.398 240.5 140.498 240.8L141.498 244.2L140.398 244.5L139.398 241.3C139.298 241.1 139.298 240.9 139.198 240.7C139.098 240.5 138.998 240.3 138.898 240.2C138.798 240.1 138.598 240 138.398 239.9C138.198 239.9 137.998 239.9 137.698 240C137.198 240.2 136.798 240.4 136.698 240.8C136.598 241.2 136.598 241.6 136.698 242.2L137.698 245.4L136.598 245.7L135.698 242.7C135.598 242.4 135.498 242.2 135.398 242C135.298 241.8 135.198 241.6 134.998 241.5C134.798 241.4 134.698 241.3 134.498 241.2C134.298 241.2 134.098 241.2 133.798 241.3C133.598 241.4 133.398 241.5 133.298 241.6C133.098 241.7 132.998 241.9 132.898 242.1C132.798 242.3 132.798 242.5 132.798 242.8C132.798 243.1 132.798 243.4 132.898 243.7L133.798 246.7L132.698 247L130.898 241.1Z" fill="white"/>
<path d="M148.3 241.3L147.2 241.7L146.8 240.8C146.8 241.2 146.7 241.5 146.4 241.8C146.1 242.1 145.8 242.4 145.4 242.6C145.1 242.7 144.9 242.8 144.6 242.8C144.3 242.8 144.1 242.8 143.8 242.7C143.5 242.6 143.3 242.4 143.1 242.2C142.9 242 142.7 241.7 142.5 241.3L141 237.7L142.1 237.3L143.5 240.6C143.6 240.9 143.7 241.1 143.9 241.2C144 241.4 144.2 241.5 144.4 241.5C144.6 241.6 144.7 241.6 144.9 241.6C145.1 241.6 145.2 241.5 145.4 241.5C145.6 241.4 145.8 241.3 146 241.1C146.2 240.9 146.3 240.8 146.4 240.6C146.5 240.4 146.5 240.1 146.5 239.9C146.5 239.6 146.4 239.3 146.3 239L145.1 236.1L146.2 235.7L148.3 241.3Z" fill="white"/>
<path d="M147.5 235.1L148.4 234.6L148.9 235.4C148.9 235.3 148.9 235.2 148.9 235C148.9 234.8 149 234.7 149.1 234.5C149.2 234.3 149.3 234.1 149.5 234C149.7 233.8 149.9 233.7 150.1 233.5C150.5 233.3 150.9 233.2 151.2 233.2C151.6 233.2 151.9 233.3 152.3 233.6C152.3 233.2 152.4 232.8 152.6 232.5C152.8 232.2 153.1 231.9 153.4 231.7C153.8 231.5 154.2 231.4 154.5 231.4C154.8 231.4 155.1 231.5 155.4 231.6C155.7 231.7 155.9 231.9 156.1 232.2C156.3 232.5 156.5 232.7 156.7 233L158.4 236.1L157.4 236.7L155.8 233.7C155.7 233.5 155.6 233.3 155.4 233.1C155.3 232.9 155.1 232.8 155 232.7C154.8 232.6 154.7 232.6 154.5 232.5C154.3 232.4 154.1 232.6 153.8 232.7C153.3 233 153 233.3 153 233.7C153 234.1 153.1 234.6 153.3 235L154.9 237.9L153.9 238.5L152.4 235.7C152.3 235.4 152.1 235.2 152 235C151.9 234.8 151.7 234.7 151.5 234.5C151.3 234.4 151.2 234.3 151 234.3C150.8 234.3 150.6 234.4 150.3 234.5C150.1 234.6 150 234.7 149.8 234.9C149.6 235.1 149.6 235.2 149.5 235.5C149.5 235.7 149.4 235.9 149.5 236.2C149.6 236.5 149.7 236.7 149.8 237L151.3 239.8L150.3 240.4L147.5 235.1Z" fill="white"/>
<path d="M164.3 223.1C163.9 223 163.5 223 163.1 223.1C162.7 223.2 162.3 223.4 162 223.6C161.6 223.9 161.3 224.3 161.1 224.7C160.9 225.1 160.8 225.5 160.7 226C160.7 226.4 160.7 226.9 160.9 227.3C161 227.8 161.3 228.2 161.6 228.6C161.9 229 162.2 229.3 162.6 229.5C163 229.7 163.4 229.9 163.8 230C164.2 230.1 164.7 230.1 165.1 230C165.5 229.9 166 229.7 166.4 229.4C166.8 229.1 167.1 228.7 167.3 228.3C167.5 227.9 167.6 227.5 167.5 227H168.8C168.8 227.1 168.8 227.3 168.8 227.5C168.8 227.7 168.7 228 168.6 228.3C168.5 228.6 168.3 228.9 168.1 229.3C167.9 229.6 167.5 230 167.1 230.3C166.5 230.7 165.9 231 165.3 231.1C164.7 231.2 164.1 231.2 163.5 231.1C162.9 231 162.4 230.8 161.9 230.5C161.4 230.2 161 229.8 160.6 229.3C160.2 228.7 159.9 228.2 159.7 227.6C159.5 227 159.5 226.4 159.5 225.8C159.5 225.2 159.8 224.6 160.1 224.1C160.4 223.6 160.9 223.1 161.4 222.7C161.9 222.3 162.4 222.1 163 221.9C163.6 221.7 164.2 221.7 164.8 221.9L164.3 223.1Z" fill="white"/>
<path d="M168.502 224.9C168.202 224.6 168.002 224.2 167.802 223.8C167.702 223.4 167.602 223 167.602 222.6C167.602 222.2 167.702 221.8 167.902 221.4C168.102 221 168.302 220.7 168.702 220.4C169.002 220.1 169.402 219.9 169.802 219.7C170.202 219.5 170.602 219.5 171.002 219.5C171.402 219.5 171.802 219.6 172.202 219.8C172.602 220 172.902 220.2 173.202 220.5C173.502 220.8 173.702 221.2 173.902 221.6C174.002 222 174.102 222.4 174.102 222.8C174.102 223.2 174.002 223.6 173.802 224C173.602 224.4 173.402 224.7 173.002 225C172.702 225.3 172.302 225.5 171.902 225.7C171.502 225.9 171.102 225.9 170.702 225.9C170.302 225.9 169.902 225.8 169.502 225.6C169.102 225.5 168.802 225.2 168.502 224.9ZM169.402 224.1C169.602 224.3 169.802 224.5 170.102 224.6C170.302 224.7 170.602 224.8 170.802 224.8C171.002 224.8 171.302 224.8 171.602 224.7C171.902 224.6 172.102 224.5 172.302 224.3C172.502 224.1 172.702 223.9 172.802 223.6C172.902 223.4 173.002 223.1 173.002 222.9C173.002 222.7 172.902 222.4 172.802 222.1C172.702 221.8 172.502 221.6 172.302 221.4C172.102 221.2 171.902 221 171.602 220.9C171.402 220.8 171.102 220.7 170.902 220.7C170.702 220.7 170.402 220.7 170.102 220.8C169.802 220.9 169.602 221 169.402 221.2C169.202 221.4 169.002 221.6 168.902 221.9C168.802 222.2 168.702 222.4 168.702 222.6C168.702 222.8 168.802 223.1 168.902 223.4C169.002 223.6 169.202 223.8 169.402 224.1Z" fill="white"/>
<path d="M172.102 217.4L172.902 216.6L173.602 217.2C173.502 216.9 173.402 216.5 173.502 216.1C173.602 215.7 173.802 215.3 174.102 215C174.302 214.8 174.502 214.6 174.802 214.5C175.002 214.4 175.302 214.3 175.602 214.3C175.902 214.3 176.202 214.3 176.502 214.4C176.802 214.5 177.102 214.7 177.402 215L180.302 217.6L179.502 218.4L176.902 216C176.702 215.8 176.502 215.7 176.302 215.6C176.102 215.5 175.902 215.5 175.702 215.5C175.502 215.5 175.402 215.6 175.202 215.6C175.002 215.7 174.902 215.8 174.802 215.9C174.602 216.1 174.502 216.3 174.402 216.5C174.302 216.7 174.302 216.9 174.302 217.1C174.302 217.3 174.402 217.6 174.502 217.8C174.602 218 174.802 218.3 175.102 218.5L177.402 220.6L176.602 221.4L172.102 217.4Z" fill="white"/>
<path d="M179.602 210.3L178.602 211.6L180.702 213.3C180.802 213.4 181.002 213.5 181.102 213.6C181.202 213.7 181.402 213.8 181.502 213.8C181.602 213.8 181.802 213.8 181.902 213.8C182.002 213.8 182.202 213.7 182.302 213.5C182.402 213.4 182.502 213.3 182.502 213.1C182.602 213 182.602 212.8 182.602 212.7L183.402 213.4C183.402 213.6 183.302 213.7 183.202 213.9C183.102 214.1 183.002 214.2 182.902 214.3C182.602 214.6 182.402 214.9 182.102 215C181.802 215.1 181.602 215.2 181.402 215.1C181.202 215.1 181.002 215 180.802 214.8C180.602 214.7 180.402 214.5 180.202 214.4L177.702 212.4L176.902 213.4L176.102 212.8L176.902 211.8L175.602 210.7L176.302 209.8L177.602 210.9L178.602 209.6L179.602 210.3Z" fill="white"/>
<path d="M179.602 208.5L180.302 207.6L181.102 208.1C181.002 207.9 181.002 207.8 180.902 207.6C180.902 207.4 180.902 207.2 180.902 207.1C180.902 206.9 181.002 206.7 181.002 206.6C181.102 206.4 181.202 206.2 181.302 206.1C181.402 205.9 181.502 205.8 181.702 205.7L182.702 206.5C182.602 206.6 182.602 206.6 182.502 206.7C182.402 206.8 182.402 206.8 182.302 206.9C182.002 207.4 181.802 207.8 181.902 208.2C182.002 208.6 182.302 209 182.802 209.4L185.302 211.2L184.602 212.1L179.602 208.5Z" fill="white"/>
<path d="M180.4 203.7C180.2 203.6 180.1 203.4 180 203.2C180 203 180 202.8 180.1 202.6C180.2 202.4 180.4 202.3 180.6 202.2C180.8 202.2 181 202.2 181.2 202.3C181.4 202.4 181.5 202.6 181.6 202.8C181.6 203 181.6 203.2 181.5 203.4C181.4 203.6 181.2 203.7 181 203.8C180.8 203.8 180.6 203.8 180.4 203.7ZM182.4 204.6L183 203.6L188 206.9L187.4 207.9L182.4 204.6Z" fill="white"/>
<path d="M180.898 200.5L181.498 199.5L185.398 201.7C185.198 201.4 185.198 201 185.198 200.6C185.198 200.2 185.398 199.8 185.598 199.4C185.798 199 186.098 198.7 186.398 198.4C186.698 198.2 187.098 198 187.498 197.9C187.898 197.8 188.298 197.8 188.698 197.9C189.098 198 189.498 198.1 189.898 198.3C190.298 198.5 190.598 198.8 190.898 199.1C191.198 199.4 191.298 199.8 191.498 200.1C191.598 200.5 191.698 200.9 191.598 201.3C191.598 201.7 191.398 202.1 191.198 202.5C190.998 202.9 190.698 203.2 190.398 203.4C190.098 203.6 189.698 203.8 189.298 203.8L190.098 204.2L189.498 205.2L180.898 200.5ZM189.998 202.1C190.198 201.8 190.198 201.6 190.298 201.3C190.298 201 190.298 200.8 190.198 200.5C190.098 200.3 189.998 200 189.798 199.8C189.598 199.6 189.398 199.4 189.098 199.3C188.798 199.1 188.598 199 188.298 199C187.998 199 187.798 199 187.498 199C187.298 199.1 186.998 199.2 186.798 199.3C186.598 199.5 186.398 199.7 186.198 199.9C185.998 200.2 185.998 200.4 185.898 200.7C185.898 201 185.898 201.2 185.998 201.5C186.098 201.7 186.198 202 186.398 202.2C186.598 202.4 186.798 202.6 187.098 202.7C187.398 202.9 187.598 203 187.898 203C188.198 203 188.398 203 188.698 203C188.898 202.9 189.198 202.8 189.398 202.7C189.698 202.6 189.798 202.4 189.998 202.1Z" fill="white"/>
<path d="M195.499 193.3L194.999 194.3L194.199 193.9C194.399 194.2 194.599 194.5 194.599 194.9C194.599 195.3 194.499 195.7 194.299 196.1C194.199 196.4 193.999 196.6 193.799 196.8C193.599 197 193.399 197.2 193.099 197.3C192.799 197.4 192.599 197.4 192.199 197.4C191.799 197.4 191.499 197.3 191.199 197.1L187.699 195.4L188.199 194.4L191.399 195.9C191.699 196 191.899 196.1 192.099 196.1C192.299 196.1 192.499 196.1 192.699 196C192.899 195.9 192.999 195.8 193.099 195.7C193.199 195.6 193.299 195.4 193.399 195.3C193.499 195.1 193.599 194.9 193.599 194.7C193.599 194.5 193.599 194.3 193.499 194.1C193.399 193.9 193.299 193.7 193.099 193.5C192.899 193.3 192.599 193.1 192.299 193L189.499 191.7L189.999 190.7L195.499 193.3Z" fill="white"/>
<path d="M192.7 186.5L192.1 188L194.7 189C194.9 189.1 195 189.1 195.2 189.2C195.4 189.3 195.5 189.3 195.7 189.3C195.8 189.3 196 189.3 196.1 189.2C196.2 189.1 196.3 189 196.4 188.8C196.4 188.7 196.5 188.5 196.5 188.4C196.5 188.3 196.5 188.1 196.5 188L197.5 188.4C197.5 188.6 197.5 188.7 197.5 189C197.5 189.3 197.4 189.4 197.4 189.5C197.2 189.9 197.1 190.2 196.9 190.4C196.7 190.6 196.5 190.7 196.3 190.7C196.1 190.7 195.8 190.7 195.6 190.7C195.4 190.7 195.1 190.6 194.9 190.5L192 189.4L191.5 190.6L190.6 190.2L191.1 189L189.5 188.4L189.9 187.3L191.5 187.9L192.1 186.4L192.7 186.5Z" fill="white"/>
<path d="M195.098 186.1C194.698 186 194.298 185.8 193.998 185.5C193.698 185.2 193.398 184.9 193.198 184.5C192.998 184.1 192.898 183.7 192.898 183.3C192.898 182.9 192.898 182.5 192.998 182C193.098 181.6 193.298 181.2 193.598 180.9C193.898 180.6 194.198 180.3 194.598 180.1C194.998 179.9 195.398 179.8 195.798 179.7C196.198 179.7 196.598 179.7 197.098 179.8C197.598 179.9 197.898 180.1 198.198 180.4C198.498 180.7 198.798 181 198.998 181.4C199.198 181.8 199.298 182.2 199.298 182.6C199.298 183 199.298 183.4 199.198 183.9C199.098 184.3 198.898 184.7 198.598 185C198.298 185.3 197.998 185.6 197.598 185.8C197.198 186 196.898 186.1 196.398 186.2C195.898 186.3 195.498 186.2 195.098 186.1ZM195.498 184.9C195.798 185 196.098 185 196.398 185C196.698 185 196.898 184.9 197.198 184.8C197.398 184.7 197.598 184.5 197.798 184.3C197.998 184.1 198.098 183.8 198.198 183.6C198.298 183.3 198.298 183 198.298 182.8C198.298 182.5 198.198 182.3 198.098 182.1C197.998 181.9 197.798 181.7 197.598 181.5C197.398 181.3 197.098 181.2 196.798 181.1C196.498 181 196.198 181 195.898 181C195.598 181 195.398 181.1 195.098 181.2C194.898 181.3 194.698 181.5 194.498 181.7C194.298 181.9 194.198 182.2 194.098 182.4C193.998 182.7 193.998 183 193.998 183.2C193.998 183.5 194.098 183.7 194.198 183.9C194.298 184.1 194.498 184.3 194.698 184.5C194.898 184.7 195.198 184.8 195.498 184.9Z" fill="white"/>
<path d="M194.398 177.7L194.698 176.6L195.598 176.8C195.498 176.7 195.298 176.6 195.198 176.4C195.098 176.2 194.998 176.1 194.998 175.9C194.998 175.7 194.898 175.5 194.898 175.3C194.898 175.1 194.898 174.9 194.898 174.7C194.898 174.5 194.998 174.4 195.098 174.2L196.298 174.5C196.298 174.6 196.198 174.7 196.198 174.8C196.198 174.9 196.098 175 196.098 175.1C195.998 175.6 195.998 176.1 196.298 176.5C196.598 176.9 196.998 177.1 197.598 177.3L200.598 178L200.298 179.1L194.398 177.7Z" fill="white"/>
<defs>
<filter id="filter0_ii" x="0" y="48" width="218" height="218" filterUnits="userSpaceOnUse" color-interpolation-filters="sRGB">
<feFlood flood-opacity="0" result="BackgroundImageFix"/>
<feBlend mode="normal" in="SourceGraphic" in2="BackgroundImageFix" result="shape"/>
<feColorMatrix in="SourceAlpha" type="matrix" values="0 0 0 0 0 0 0 0 0 0 0 0 0 0 0 0 0 0 127 0" result="hardAlpha"/>
<feOffset/>
<feGaussianBlur stdDeviation="4"/>
<feComposite in2="hardAlpha" operator="arithmetic" k2="-1" k3="1"/>
<feColorMatrix type="matrix" values="0 0 0 0 0.9875 0 0 0 0 0.722843 0 0 0 0 0.386771 0 0 0 1 0"/>
<feBlend mode="normal" in2="shape" result="effect1_innerShadow"/>
<feColorMatrix in="SourceAlpha" type="matrix" values="0 0 0 0 0 0 0 0 0 0 0 0 0 0 0 0 0 0 127 0" result="hardAlpha"/>
<feOffset/>
<feGaussianBlur stdDeviation="6"/>
<feComposite in2="hardAlpha" operator="arithmetic" k2="-1" k3="1"/>
<feColorMatrix type="matrix" values="0 0 0 0 0 0 0 0 0 0 0 0 0 0 0 0 0 0 0.2 0"/>
<feBlend mode="normal" in2="effect1_innerShadow" result="effect2_innerShadow"/>
</filter>
<filter id="filter1_i" x="59" y="107" width="100" height="100" filterUnits="userSpaceOnUse" color-interpolation-filters="sRGB">
<feFlood flood-opacity="0" result="BackgroundImageFix"/>
<feBlend mode="normal" in="SourceGraphic" in2="BackgroundImageFix" result="shape"/>
<feColorMatrix in="SourceAlpha" type="matrix" values="0 0 0 0 0 0 0 0 0 0 0 0 0 0 0 0 0 0 127 0" result="hardAlpha"/>
<feOffset/>
<feGaussianBlur stdDeviation="6"/>
<feComposite in2="hardAlpha" operator="arithmetic" k2="-1" k3="1"/>
<feColorMatrix type="matrix" values="0 0 0 0 0 0 0 0 0 0 0 0 0 0 0 0 0 0 0.4 0"/>
<feBlend mode="normal" in2="shape" result="effect1_innerShadow"/>
</filter>
<linearGradient id="paint0_linear" x1="51.775" y1="55.4938" x2="322.848" y2="326.729" gradientUnits="userSpaceOnUse">
<stop stop-color="#F2F2F2"/>
<stop offset="1" stop-color="#3D485C"/>
</linearGradient>
<linearGradient id="paint1_linear" x1="-158.31" y1="-178.824" x2="234.09" y2="289.357" gradientUnits="userSpaceOnUse">
<stop stop-color="white"/>
<stop offset="1" stop-color="white" stop-opacity="0"/>
</linearGradient>
<linearGradient id="paint2_linear" x1="174.52" y1="211.6" x2="38.8" y2="105.52" gradientUnits="userSpaceOnUse">
<stop stop-color="white"/>
<stop offset="1" stop-color="#203A41" stop-opacity="0.4"/>
</linearGradient>
<linearGradient id="paint3_linear" x1="194.68" y1="228.4" x2="17.2" y2="89.68" gradientUnits="userSpaceOnUse">
<stop stop-color="white"/>
<stop offset="1" stop-color="#203A41" stop-opacity="0.24"/>
</linearGradient>
</defs>
</svg>
