<svg width="133" height="103" viewBox="0 0 133 103" fill="none" xmlns="http://www.w3.org/2000/svg">
<path fill-rule="evenodd" clip-rule="evenodd" d="M24.3809 22.6094C24.7759 23.6142 26.3999 33.6187 25.9171 34.5362C25.0393 36.3274 25.6099 37.7691 26.7949 39.1234C27.4972 39.8661 28.2872 40.5651 29.0334 41.3515C29.4723 41.8321 29.999 42.3127 30.394 42.8369C31.7547 44.5844 31.4035 45.8514 29.3406 46.6815C29.1212 46.7688 28.9017 46.8562 28.6823 46.9436C28.2434 47.162 28.0678 47.5989 28.2434 48.0358C28.375 48.3416 28.5506 48.6037 28.6823 48.9095C29.0773 49.7833 28.9017 50.526 28.0678 51.0502C27.6728 51.2687 27.19 51.4434 26.7949 51.6182C26.3999 51.7929 26.0488 51.924 25.6977 52.2298C26.0488 52.3172 26.3999 52.3609 26.751 52.4483C27.2777 52.5793 27.8483 52.623 28.3311 52.8415C29.1651 53.1473 29.3845 53.8463 29.0334 54.589C28.9895 54.7637 28.9017 54.8948 28.8139 55.0259C27.8922 56.1617 27.8922 57.4287 28.3311 58.7393C28.7262 59.9626 28.375 60.7927 27.19 61.3606C25.6538 62.0596 23.9859 62.147 22.3619 62.2344C21.8791 62.2781 21.3524 62.2344 20.8696 62.2344C19.8601 62.2781 19.4212 63.0644 19.1579 63.8071C18.8067 64.8993 18.5434 66.0352 18.28 67.1711C18.1484 67.5643 18.1045 67.9575 17.5339 67.9138C17.0511 67.8264 16.8316 67.4769 16.9633 66.909C17.2266 65.8168 17.49 64.7246 17.7972 63.6324C17.9289 63.1518 18.2361 62.7149 18.4995 62.2781C19.114 61.1859 20.1235 60.9237 21.3085 60.88C22.7569 60.8364 24.2054 60.6616 25.6538 60.4869C25.8732 60.4432 26.0927 60.3558 26.3121 60.3121C27.1461 59.9626 27.2339 59.7878 26.9705 58.9141C26.5316 57.3413 26.5316 55.7685 27.6289 54.3705C27.6728 54.3268 27.7167 54.2395 27.7605 54.1521C27.7605 54.1521 27.7605 54.1084 27.7605 53.9773C27.2777 53.89 26.7949 53.89 26.356 53.7152C25.6538 53.4968 24.9515 53.2346 24.3809 52.8851C23.7664 52.492 23.7664 51.8366 24.337 51.3561C24.732 51.0502 25.2587 50.8318 25.6977 50.6134C26.1805 50.3949 26.6633 50.2202 27.1461 50.0454C27.4972 49.9144 27.6289 49.6959 27.4094 49.3464C27.2777 49.128 27.19 48.9095 27.1022 48.7348C26.5316 47.6863 26.9705 46.1135 28.3311 45.6329C28.5506 45.5456 28.8139 45.4582 29.0334 45.3708C29.9551 44.9776 30.0868 44.6281 29.4284 43.8417C28.6823 42.9243 27.8044 42.0505 26.9266 41.1768C25.6977 39.9972 24.5565 38.7739 24.2054 37.0264C24.1176 36.5022 24.1615 35.9342 24.2492 35.41C24.337 34.9294 24.5565 34.4925 24.6882 34.0556C24.9515 33.3566 23.4153 23.7453 23.0642 23.0463L24.3809 22.6094Z" fill="#F58B71" stroke="#F58B71" stroke-width="0.0135276"/>
<path fill-rule="evenodd" clip-rule="evenodd" d="M50.3407 52.2609C50.2529 56.7607 48.7606 60.6926 45.7321 64.0129C45.5565 64.1877 45.4248 64.3624 45.2054 64.5372C44.8104 64.8867 44.3715 64.8867 43.9764 64.5372C43.5814 64.144 43.5814 63.6634 43.9325 63.2702C44.2837 62.8333 44.7226 62.4402 45.0737 62.0033C48.7167 57.2413 49.5067 51.9987 47.4 46.4067C46.6538 44.5281 45.5565 42.9116 44.1959 41.4262C43.9325 41.1641 43.7131 40.6835 43.757 40.3777C43.8448 39.635 44.7226 39.504 45.3371 40.0719C46.8733 41.601 48.0144 43.3485 48.8923 45.2708C49.8579 47.4989 50.3407 49.858 50.3407 52.2609Z" fill="#F58B71"/>
<path fill-rule="evenodd" clip-rule="evenodd" d="M50.3407 52.2609C50.2529 56.7607 48.7606 60.6926 45.7321 64.0129C45.5565 64.1877 45.4248 64.3624 45.2054 64.5372C44.8104 64.8867 44.3715 64.8867 43.9764 64.5372C43.5814 64.144 43.5814 63.6634 43.9325 63.2702C44.2837 62.8333 44.7226 62.4402 45.0737 62.0033C48.7167 57.2413 49.5067 51.9987 47.4 46.4067C46.6538 44.5281 45.5565 42.9116 44.1959 41.4262C43.9325 41.1641 43.7131 40.6835 43.757 40.3777C43.8448 39.635 44.7226 39.504 45.3371 40.0719C46.8733 41.601 48.0144 43.3485 48.8923 45.2708C49.8579 47.4989 50.3407 49.858 50.3407 52.2609Z" stroke="#F58B71" stroke-width="0.0135276"/>
<path fill-rule="evenodd" clip-rule="evenodd" d="M44.3885 53.532C44.3446 55.7601 43.1596 58.8619 40.7894 61.4832C40.7017 61.6143 40.6139 61.7016 40.4822 61.8327C40.0433 62.2696 39.5605 62.4006 39.0777 61.9201C38.5949 61.4832 38.7704 61.0026 39.1655 60.5657C40.3944 59.3425 41.36 57.9008 41.8867 56.1969C43.3351 51.7845 42.5451 47.7652 39.4288 44.1828C39.2971 44.0517 39.1216 43.9206 39.0338 43.7459C38.7266 43.3527 38.6827 42.9158 39.0777 42.5663C39.4288 42.2605 39.9116 42.1294 40.3505 42.5226C40.7455 42.9158 41.1406 43.3527 41.4917 43.7896C43.379 46.2798 44.3885 49.1195 44.3885 53.532Z" fill="#F58B71"/>
<path fill-rule="evenodd" clip-rule="evenodd" d="M44.3885 53.532C44.3446 55.7601 43.1596 58.8619 40.7894 61.4832C40.7017 61.6143 40.6139 61.7016 40.4822 61.8327C40.0433 62.2696 39.5605 62.4006 39.0777 61.9201C38.5949 61.4832 38.7704 61.0026 39.1655 60.5657C40.3944 59.3425 41.36 57.9008 41.8867 56.1969C43.3351 51.7845 42.5451 47.7652 39.4288 44.1828C39.2971 44.0517 39.1216 43.9206 39.0338 43.7459C38.7266 43.3527 38.6827 42.9158 39.0777 42.5663C39.4288 42.2605 39.9116 42.1294 40.3505 42.5226C40.7455 42.9158 41.1406 43.3527 41.4917 43.7896C43.379 46.2798 44.3885 49.1195 44.3885 53.532Z" stroke="#F58B71" stroke-width="0.0135276"/>
<path fill-rule="evenodd" clip-rule="evenodd" d="M36.5916 52.1087C36.5477 50.0117 35.7576 48.1331 34.2653 46.5166C33.6508 45.8613 33.7386 45.1623 34.5287 44.9439C34.8359 44.8565 35.3187 45.0313 35.5382 45.2497C37.6011 47.3904 38.5228 49.968 38.3472 52.8951C38.2155 55.2979 37.2938 57.3949 35.6698 59.1862C35.2309 59.623 34.792 59.9288 34.1775 59.4483C33.7386 59.0988 33.7825 58.5308 34.3531 57.9192C35.8015 56.3027 36.5477 54.4242 36.5916 52.1087Z" fill="#F58B71"/>
<path fill-rule="evenodd" clip-rule="evenodd" d="M36.5916 52.1087C36.5477 50.0117 35.7576 48.1331 34.2653 46.5166C33.6508 45.8613 33.7386 45.1623 34.5287 44.9439C34.8359 44.8565 35.3187 45.0313 35.5382 45.2497C37.6011 47.3904 38.5228 49.968 38.3472 52.8951C38.2155 55.2979 37.2938 57.3949 35.6698 59.1862C35.2309 59.623 34.792 59.9288 34.1775 59.4483C33.7386 59.0988 33.7825 58.5308 34.3531 57.9192C35.8015 56.3027 36.5477 54.4242 36.5916 52.1087Z" stroke="#F58B71" stroke-width="0.0135276"/>
<path fill-rule="evenodd" clip-rule="evenodd" d="M38.3176 90.8354C44.1002 93.0272 50.4265 94.235 57.0587 94.235C65.2663 94.235 73.0351 92.3564 79.8821 89.0798C71.4989 95.3709 61.0967 99.128 49.8166 99.128C43.3981 99.128 37.2638 97.9208 31.6302 95.7224L38.3176 90.8354ZM24.2716 82.7493C13.8562 74.2414 7.28595 61.7493 7.28595 47.8383C7.28595 22.2372 29.5388 1.4417 57.0587 1.4417C59.0777 1.4417 61.0967 1.57277 63.0718 1.79121C58.8582 0.611632 54.3813 0 49.8166 0C22.2968 0 0 22.1935 0 49.5859C0 67.0372 9.07883 82.3895 22.8003 91.2158L24.2716 82.7493Z" fill="#F47D5C"/>
<path d="M28.2757 79.6514L21.3848 102.107L39.7313 85.1561L28.2757 79.6514Z" fill="#377044"/>
<path fill-rule="evenodd" clip-rule="evenodd" d="M15.6577 48.6879C15.6577 69.7892 32.8192 86.8712 54.0186 86.8712C66.9688 86.8712 78.4223 80.4703 85.3589 70.6649H90.3919C82.9314 82.8984 69.4297 91.0652 54.0186 91.0652C30.4929 91.0652 11.4441 72.1046 11.4441 48.6879C11.4441 25.2711 30.4929 6.31055 54.0186 6.31055C70.7175 6.31055 85.1745 15.8992 92.1332 29.8604H87.3635C80.7763 18.2985 68.3086 10.5046 54.0186 10.5046C32.8192 10.5046 15.6577 27.5866 15.6577 48.6879Z" fill="#377044"/>
<path d="M77.0894 39.1023C77.5283 39.5828 77.9233 40.1071 78.1867 40.7624C78.45 41.4177 78.6256 42.1604 78.6256 43.0342C78.6256 43.8206 78.4939 44.5633 78.2745 45.2186C78.0111 45.8739 77.7039 46.4419 77.265 46.8787C76.8699 47.3593 76.3432 47.7088 75.7727 47.9709C75.1582 48.1894 74.4998 48.3204 73.7537 48.3204C73.0953 48.3204 72.4808 48.2331 71.8663 48.0583C71.2957 47.8836 70.769 47.6214 70.3301 47.2719C69.5401 47.9709 68.5306 48.3204 67.3016 48.3204C66.5994 48.3204 65.9849 48.1894 65.5021 47.9709C65.0193 47.7525 64.6243 47.4467 64.317 47.0535C64.0098 47.4467 63.6148 47.7525 63.132 47.9709C62.6492 48.1894 62.0786 48.3204 61.4202 48.3204C60.8496 48.3204 60.3668 48.2331 59.884 48.0583C59.4451 47.8836 59.0501 47.6651 58.7428 47.3593C58.4356 47.0535 58.1722 46.6603 57.9967 46.2671C57.8211 45.8302 57.7772 45.3933 57.7772 44.8691C57.7772 44.3885 57.8211 43.9516 57.9967 43.5148C58.1722 43.0779 58.4356 42.7284 58.7428 42.4226C59.094 42.1168 59.489 41.8546 59.9718 41.6799C60.4107 41.5051 60.9374 41.4177 61.508 41.4177C62.6053 41.4177 63.4831 41.7236 64.0976 42.2478C64.712 42.8158 65.1071 43.5585 65.2826 44.4759C65.4143 45.0438 65.6338 45.4807 65.9849 45.7865C66.2921 46.0924 66.6872 46.2234 67.17 46.2234C67.7405 46.2234 68.2233 46.005 68.5745 45.6118C68.9695 45.1749 69.1451 44.4759 69.1451 43.5585C69.1451 42.9031 69.0573 42.3352 68.7939 41.7672C68.5745 41.243 68.2233 40.7624 67.7844 40.3692C67.3016 39.976 66.731 39.6702 66.0288 39.4518C65.3265 39.2333 64.4926 39.146 63.4831 39.146H63.2636C63.0442 39.146 62.7808 39.1023 62.5175 38.9712C62.2541 38.8838 61.9908 38.7528 61.6835 38.5343C61.3324 38.3159 60.9813 38.0101 60.5863 37.6606C60.1912 37.3111 59.7084 36.8305 59.1817 36.3499C59.2256 35.9567 59.3134 35.6509 59.5329 35.3888C59.7523 35.083 60.0596 34.9519 60.4546 34.9519C60.674 34.9519 60.8935 34.9956 61.113 35.1267C61.2885 35.2141 61.508 35.3451 61.7274 35.5636C61.9469 35.7383 62.1664 36.0004 62.4297 36.2626C62.693 36.5684 63.0003 36.9179 63.3514 37.3111C63.4831 37.0926 63.6587 36.8305 63.922 36.481C64.1854 36.1752 64.4926 35.8257 64.7998 35.4762C65.151 35.083 65.5021 34.6898 65.8532 34.2966C66.2043 33.9034 66.5994 33.5102 66.9505 33.117L67.4333 32.5928C67.9161 32.5928 68.3111 32.7238 68.5745 32.9423C68.8817 33.1607 69.0573 33.4665 69.0573 33.816C69.0573 34.0782 68.9695 34.2966 68.8378 34.515C68.7062 34.7335 68.5306 34.9956 68.2233 35.2577C67.7844 35.6946 67.3894 36.0878 66.9944 36.4373C66.6433 36.7868 66.2921 37.0926 65.9849 37.3548C66.8188 37.4858 67.6089 37.7043 68.3111 38.0538C69.0134 38.4033 69.584 38.7965 70.1107 39.3207C70.6374 39.8887 70.9885 40.5003 71.2957 41.1993C71.5591 41.8983 71.6908 42.6847 71.6908 43.5585C71.6908 43.908 71.6908 44.2575 71.6469 44.5633C71.603 44.9128 71.5152 45.2186 71.4274 45.4807C71.6908 45.6992 71.998 45.9176 72.3052 46.0487C72.6564 46.1797 73.0514 46.2234 73.4464 46.2234C74.1926 46.2234 74.807 45.9613 75.2898 45.3933C75.8165 44.8254 76.036 44.039 76.036 42.9905C76.036 42.3789 75.9482 41.8546 75.7288 41.3741C75.5532 40.8498 75.2898 40.4566 74.9826 40.1071C74.6315 39.7576 74.2803 39.4955 73.8853 39.277C73.4903 39.1023 73.0953 38.9712 72.7003 38.9275C72.7003 38.8402 72.6564 38.7965 72.6564 38.7091C72.6564 38.6654 72.6564 38.578 72.6564 38.5343C72.6564 38.1411 72.788 37.8353 73.0075 37.5732C73.227 37.3548 73.5342 37.2237 74.017 37.2237H81.698C82.488 37.2237 83.1903 37.3548 83.8048 37.5732C84.4192 37.8353 84.9459 38.1848 85.3848 38.6217C85.7799 39.0586 86.0871 39.5828 86.3066 40.1945C86.526 40.7624 86.6577 41.4177 86.6577 42.1168C86.6577 42.6847 86.5699 43.209 86.3943 43.6458C86.2627 44.0827 85.9993 44.4759 85.736 44.7817C85.4287 45.0438 85.0776 45.306 84.6826 45.437C84.2876 45.6118 83.8486 45.6555 83.3658 45.6555C82.9269 45.6555 82.488 45.6118 82.093 45.4807C81.698 45.3497 81.3907 45.1312 81.0835 44.8691C80.8202 44.6507 80.6007 44.3448 80.4251 43.9953C80.2935 43.6021 80.2057 43.209 80.2057 42.7721C80.2057 42.3789 80.2496 42.0294 80.3812 41.7236C80.5129 41.3741 80.7324 41.1119 80.9518 40.8935C81.1713 40.6314 81.4346 40.4566 81.7858 40.3255C82.093 40.1945 82.4441 40.1508 82.7953 40.1508C83.1464 40.1508 83.4097 40.1945 83.6731 40.2819C83.8925 40.3692 84.112 40.5003 84.2876 40.5877C84.0681 40.1071 83.7609 39.7576 83.2781 39.4955C82.8391 39.2333 82.2686 39.1023 81.5663 39.1023H77.0894ZM60.1035 44.8691C60.1035 45.3497 60.2351 45.6992 60.4985 45.9613C60.7618 46.1797 61.113 46.3108 61.508 46.3108C61.9469 46.3108 62.298 46.1797 62.5614 45.9613C62.8247 45.6992 62.9564 45.3497 62.9564 44.8691C62.9564 44.4322 62.8247 44.0827 62.5614 43.8206C62.298 43.5585 61.9469 43.4274 61.508 43.4274C61.113 43.4274 60.7618 43.5585 60.4985 43.8206C60.2351 44.0827 60.1035 44.4322 60.1035 44.8691ZM82.3563 42.7721C82.3563 43.1216 82.488 43.3837 82.6636 43.5585C82.883 43.6895 83.1025 43.7769 83.3658 43.7769C83.6292 43.7769 83.8925 43.6895 84.112 43.5585C84.2876 43.3837 84.4192 43.1216 84.4192 42.7721C84.4192 42.4226 84.2876 42.1604 84.112 41.9857C83.8925 41.8109 83.6292 41.7236 83.3658 41.7236C83.1025 41.7236 82.883 41.8109 82.6636 41.9857C82.488 42.1604 82.3563 42.4226 82.3563 42.7721Z" fill="#377044"/>
<path d="M98.7001 48.3218C98.0417 48.3218 97.4711 48.1907 96.9883 47.9723C96.4616 47.7538 96.0666 47.448 95.7155 47.0548C95.4082 47.448 95.0132 47.7538 94.4865 47.9723C94.0037 48.1907 93.4331 48.3218 92.7748 48.3218C91.3702 48.3218 90.3169 47.8412 89.5268 46.9237C88.6929 46.0063 88.2979 44.652 88.2979 42.9044C88.2979 42.2491 88.3856 41.6375 88.5173 41.0259C88.649 40.4579 88.8684 39.89 89.1318 39.4094C89.3951 38.9288 89.7024 38.5356 90.0974 38.1861C90.4924 37.8366 90.9313 37.5745 91.458 37.3998C91.4141 37.0502 91.4141 36.6571 91.3702 36.3076C91.3702 35.9144 91.3702 35.6085 91.3702 35.3901V34.6911C91.5019 34.6474 91.6775 34.56 91.853 34.5163C92.0286 34.5163 92.2481 34.4727 92.4675 34.4727C92.8625 34.4727 93.1259 34.56 93.3015 34.7348C93.5209 34.8658 93.6087 35.128 93.6087 35.3901V35.7833C93.6087 36.0017 93.5648 36.2202 93.5648 36.4823C93.5648 36.7007 93.5648 37.0066 93.5209 37.3124C94.2671 37.4871 94.8815 37.8366 95.2766 38.3609C95.6716 38.8851 95.8472 39.4531 95.8472 40.0647C95.8472 40.4579 95.8033 40.8074 95.6716 41.1569C95.5399 41.4627 95.3205 41.7686 95.101 42.0307C94.8377 42.2491 94.5304 42.4239 94.1793 42.5986C93.8282 42.7297 93.4331 42.7734 92.9942 42.7734C92.5553 42.7734 92.1603 42.7297 91.7653 42.5549C91.4141 42.4239 91.1069 42.2054 90.8435 41.8996C90.7997 42.0744 90.7997 42.2491 90.7558 42.4239C90.7558 42.5986 90.7558 42.8171 90.7558 42.9918C90.7558 44.0403 90.9313 44.8267 91.3264 45.3947C91.6775 45.9626 92.2042 46.2684 92.8625 46.2684C93.3454 46.2684 93.7404 46.1374 94.0476 45.8752C94.3549 45.6131 94.5304 45.2636 94.5304 44.8267V43.9966C94.6621 43.8656 94.8377 43.7782 95.0571 43.7345C95.2327 43.6471 95.496 43.6471 95.7155 43.6471C95.9788 43.6471 96.2422 43.6471 96.4616 43.7345C96.6372 43.7782 96.8128 43.8656 96.9444 43.9966V44.8267C96.9883 45.2636 97.12 45.6131 97.4272 45.8752C97.7345 46.0937 98.0856 46.2247 98.5245 46.2247C99.139 46.2247 99.6218 46.0063 99.9729 45.5257C100.28 45.0452 100.456 44.3461 100.456 43.4287C100.456 42.7734 100.368 42.1617 100.192 41.5938C100.017 41.0695 99.7535 40.6327 99.4901 40.2395C99.1829 39.89 98.8318 39.5842 98.4367 39.322C98.0856 39.1036 97.6906 38.9725 97.2956 38.9288C97.2956 38.8415 97.2956 38.7978 97.2956 38.7104C97.2517 38.6667 97.2517 38.5793 97.2517 38.5356C97.2517 38.1424 97.3834 37.8366 97.6028 37.5745C97.8223 37.3561 98.1734 37.225 98.6123 37.225H106.074C106.908 37.225 107.61 37.3561 108.225 37.5745C108.839 37.8366 109.366 38.1861 109.761 38.623C110.2 39.0599 110.507 39.5842 110.726 40.1958C110.946 40.7637 111.077 41.419 111.077 42.1181C111.077 42.686 110.99 43.2103 110.814 43.6471C110.682 44.084 110.419 44.4772 110.156 44.783C109.848 45.0452 109.497 45.3073 109.102 45.4383C108.707 45.6131 108.268 45.6568 107.786 45.6568C107.303 45.6568 106.908 45.6131 106.513 45.482C106.118 45.351 105.81 45.1325 105.503 44.8704C105.24 44.652 105.02 44.3461 104.845 43.9966C104.713 43.6034 104.625 43.2103 104.625 42.7734C104.625 42.3802 104.669 42.0307 104.801 41.7249C104.977 41.3754 105.152 41.1132 105.372 40.8948C105.591 40.6327 105.898 40.4579 106.206 40.3268C106.513 40.1958 106.864 40.1521 107.215 40.1521C107.566 40.1521 107.829 40.1958 108.093 40.2832C108.312 40.3705 108.532 40.5016 108.707 40.6327C108.268 39.6278 107.391 39.1036 106.03 39.1036H101.509C101.948 39.6278 102.299 40.1958 102.606 40.9385C102.914 41.6375 103.045 42.4676 103.045 43.4724C103.045 44.2588 102.958 44.9141 102.738 45.5257C102.519 46.1374 102.255 46.6616 101.86 47.0548C101.465 47.4917 101.026 47.7975 100.5 48.0159C99.929 48.2344 99.3585 48.3218 98.7001 48.3218ZM92.6431 41.1132C92.9503 41.1132 93.2137 40.9822 93.3892 40.8074C93.5648 40.6327 93.6526 40.3705 93.6526 40.0647C93.6526 39.8026 93.5648 39.5405 93.3892 39.322C93.2137 39.1473 92.9503 39.0599 92.6431 39.0599C92.3359 39.0599 92.0725 39.1473 91.8969 39.322C91.7214 39.5405 91.6336 39.8026 91.6336 40.0647C91.6336 40.3705 91.7214 40.6327 91.8969 40.8074C92.0725 40.9822 92.3359 41.1132 92.6431 41.1132ZM106.776 42.7734C106.776 43.1229 106.908 43.385 107.083 43.5598C107.303 43.6908 107.522 43.7782 107.786 43.7782C108.049 43.7782 108.312 43.6908 108.532 43.5598C108.707 43.385 108.839 43.1229 108.839 42.7734C108.839 42.4239 108.707 42.1617 108.532 41.987C108.312 41.8122 108.049 41.7249 107.786 41.7249C107.522 41.7249 107.303 41.8122 107.083 41.987C106.908 42.1617 106.776 42.4239 106.776 42.7734Z" fill="#377044"/>
<path d="M94.8584 52.7873C94.8584 52.4815 94.7706 52.2631 94.595 52.0447C94.4194 51.8699 94.2 51.7825 93.8927 51.7825C93.5416 51.7825 93.2344 51.8699 93.0588 52.0883C92.8394 52.3068 92.7516 52.6126 92.7516 53.0058C92.7516 53.4427 92.8832 53.7922 93.1027 54.0543C93.3661 54.3164 93.6733 54.4912 93.9805 54.6659C93.9366 54.9281 93.8489 55.1465 93.7172 55.3213C93.5416 55.496 93.3222 55.5834 93.0149 55.5834C92.7516 55.5834 92.4882 55.5397 92.2249 55.4086C91.9615 55.2776 91.7421 55.1028 91.5665 54.8844C91.3909 54.6222 91.2154 54.3601 91.1276 54.0543C90.9959 53.7048 90.952 53.3553 90.952 52.9621C90.952 52.6126 90.9959 52.2631 91.1276 51.9573C91.2593 51.6078 91.4348 51.3456 91.6543 51.1272C91.9176 50.8651 92.181 50.6903 92.5321 50.5593C92.8832 50.4282 93.2783 50.3408 93.7611 50.3408C94.1561 50.3408 94.5511 50.4282 94.9023 50.6029C95.2534 50.7777 95.5167 50.9961 95.7362 51.302C95.9556 50.9961 96.2629 50.7777 96.614 50.6029C96.9213 50.4282 97.3163 50.3408 97.7552 50.3408C98.1941 50.3408 98.5891 50.3845 98.9403 50.5593C99.2914 50.6903 99.5547 50.8651 99.8181 51.0835C100.038 51.3456 100.213 51.6078 100.345 51.9136C100.476 52.2631 100.564 52.6126 100.564 52.9621C100.564 53.3553 100.476 53.7048 100.389 54.0543C100.257 54.3601 100.081 54.6222 99.9059 54.8844C99.7303 55.1028 99.5108 55.2776 99.2475 55.4086C98.9841 55.5397 98.7647 55.5834 98.4575 55.5834C98.1941 55.5834 97.9746 55.496 97.7991 55.3213C97.6235 55.1465 97.5357 54.9281 97.4918 54.6659C97.843 54.4912 98.1063 54.3164 98.3697 54.0543C98.633 53.7922 98.7647 53.4427 98.7647 53.0058C98.7647 52.6126 98.633 52.3068 98.4575 52.0883C98.238 51.8699 97.9746 51.7825 97.5796 51.7825C97.3163 51.7825 97.0529 51.8699 96.8774 52.0447C96.7018 52.2631 96.614 52.4815 96.614 52.7873V53.9232C96.3946 54.0543 96.1312 54.1417 95.7362 54.1417C95.5606 54.1417 95.3851 54.1417 95.2534 54.098C95.0778 54.0543 94.99 54.0106 94.8584 53.9232V52.7873Z" fill="#377044"/>
<path d="M127.7 46.2234C128.446 46.2234 129.06 45.9613 129.587 45.3933C130.07 44.8254 130.289 44.039 130.289 42.9905C130.289 42.3789 130.202 41.8109 130.026 41.3304C129.806 40.8498 129.543 40.4566 129.236 40.1071C128.929 39.7576 128.578 39.4955 128.183 39.277C127.744 39.1023 127.349 38.9712 126.954 38.9275C126.954 38.8402 126.954 38.7965 126.954 38.7091C126.91 38.6654 126.91 38.578 126.91 38.5343C126.91 38.1411 127.041 37.8353 127.261 37.5732C127.48 37.3548 127.831 37.2237 128.27 37.2237C128.753 37.2237 129.28 37.3548 129.806 37.5732C130.377 37.8353 130.86 38.2285 131.299 38.7091C131.782 39.1897 132.133 39.8013 132.44 40.544C132.747 41.243 132.879 42.0731 132.879 43.0342C132.879 43.8206 132.791 44.5633 132.528 45.2186C132.308 45.8739 132.001 46.4419 131.562 46.8787C131.123 47.3593 130.64 47.7088 130.026 47.9709C129.411 48.1894 128.753 48.3204 128.007 48.3204C126.822 48.3204 125.812 48.0583 124.935 47.5341C124.627 47.7962 124.232 47.9709 123.793 48.1457C123.311 48.2768 122.828 48.3204 122.345 48.3204C121.687 48.3204 121.116 48.1894 120.589 47.9709C120.107 47.7088 119.668 47.403 119.36 46.9661C119.053 47.403 118.614 47.7525 118.131 47.9709C117.649 48.1894 117.078 48.3204 116.464 48.3204C115.235 48.3204 114.269 47.9273 113.523 47.1846C112.821 46.3982 112.426 45.306 112.426 43.8643C112.426 43.1216 112.557 42.4226 112.733 41.7672C112.952 41.1119 113.259 40.544 113.654 40.0197C114.006 39.4955 114.488 39.0586 115.015 38.6654C115.586 38.2722 116.156 37.9664 116.815 37.748C116.595 37.5732 116.332 37.3548 116.025 37.0926C115.717 36.8742 115.41 36.6121 115.059 36.3063C115.103 35.9131 115.235 35.6072 115.454 35.3014C115.673 35.0393 116.025 34.8645 116.42 34.8645C116.639 34.8645 116.859 34.9082 117.078 35.0393C117.297 35.1267 117.473 35.3014 117.692 35.4762C117.912 35.6509 118.175 35.9131 118.395 36.1752C118.658 36.481 118.965 36.8305 119.273 37.18C119.404 36.9616 119.58 36.6994 119.843 36.3936C120.107 36.0878 120.37 35.782 120.721 35.3888C121.028 35.0393 121.379 34.6898 121.73 34.2966C122.126 33.9034 122.477 33.5102 122.828 33.117L123.311 32.5928C123.793 32.5928 124.188 32.7238 124.496 32.9423C124.759 33.1607 124.935 33.4665 124.935 33.816C124.935 34.0782 124.847 34.2966 124.715 34.4714C124.583 34.6461 124.364 34.9082 124.101 35.1704C123.574 35.6509 123.135 36.0878 122.74 36.481C122.345 36.8305 121.994 37.18 121.643 37.4421C122.608 37.6606 123.398 37.9664 123.925 38.3596C124.496 38.7528 124.759 39.146 124.759 39.4955C124.759 39.8013 124.671 40.0197 124.496 40.1945C124.32 40.4129 124.145 40.544 123.881 40.6314C123.662 40.5003 123.442 40.3255 123.179 40.1508C122.916 39.976 122.608 39.845 122.301 39.6702C121.95 39.5392 121.599 39.4518 121.16 39.3644C120.765 39.277 120.326 39.2333 119.843 39.2333C119.185 39.2333 118.57 39.3207 118 39.4955C117.385 39.7139 116.902 39.976 116.464 40.3692C116.025 40.7624 115.673 41.243 115.41 41.8546C115.147 42.4226 115.015 43.1216 115.015 43.8643C115.015 44.6507 115.191 45.2623 115.454 45.6555C115.761 46.0487 116.156 46.2234 116.683 46.2234C117.122 46.2234 117.473 46.0924 117.736 45.8302C118 45.5681 118.131 45.2186 118.131 44.7817V43.9953C118.263 43.8643 118.395 43.7769 118.614 43.7332C118.834 43.6458 119.053 43.6458 119.316 43.6458C119.58 43.6458 119.843 43.6458 120.019 43.7332C120.238 43.7769 120.414 43.8643 120.545 43.9953V44.6943C120.545 45.1749 120.721 45.5681 121.028 45.8302C121.335 46.0924 121.73 46.2671 122.169 46.2671C122.652 46.2671 123.003 46.136 123.267 45.9176C123.53 45.6992 123.618 45.3933 123.618 45.0438C123.618 44.6943 123.53 44.4322 123.311 44.2575C123.135 44.0827 122.872 43.9953 122.608 43.9953C122.477 43.9953 122.345 44.039 122.213 44.039C122.082 44.0827 121.994 44.1264 121.906 44.1701C121.643 43.908 121.511 43.6021 121.511 43.209C121.511 42.9031 121.643 42.641 121.906 42.3789C122.213 42.1604 122.608 42.0294 123.179 42.0294C123.574 42.0294 123.925 42.1168 124.276 42.2478C124.627 42.3789 124.935 42.5973 125.198 42.8594C125.461 43.1216 125.681 43.4274 125.856 43.8206C125.988 44.1701 126.076 44.5633 126.076 45.0438C126.076 45.306 126.076 45.5244 126.032 45.7429C126.251 45.9176 126.515 46.005 126.778 46.0924C127.085 46.1797 127.392 46.2234 127.7 46.2234Z" fill="#377044"/>
<path d="M79.8571 58.2135C79.8571 58.9125 79.7254 59.5678 79.4621 60.1358C79.1987 60.7474 78.8476 61.2716 78.4087 61.7085C78.6282 61.9707 78.7598 62.2765 78.8476 62.5386C78.9354 62.8444 78.9793 63.0628 78.9793 63.2813C78.9793 63.8055 78.7159 64.0677 78.2331 64.0677C78.1454 64.0677 78.0576 64.0677 77.9259 64.024C77.8381 64.024 77.7503 63.9803 77.6626 63.9366C77.6626 63.5434 77.5748 63.0628 77.3992 62.5823C77.0481 62.8007 76.6531 63.0192 76.258 63.1502C75.863 63.2813 75.3802 63.325 74.8535 63.325C74.4585 63.325 74.1074 63.2813 73.8001 63.1939C73.449 63.1065 73.1856 62.9755 72.9662 62.8007C72.7028 62.626 72.5273 62.4075 72.4395 62.1454C72.3078 61.8833 72.22 61.5775 72.22 61.2716C72.22 60.9658 72.3078 60.7037 72.4395 60.4416C72.5273 60.1794 72.7028 59.961 72.9223 59.7863C73.1418 59.6552 73.4051 59.5241 73.7123 59.4367C74.0196 59.3494 74.3707 59.3057 74.7218 59.3057C75.3802 59.3057 75.9508 59.4367 76.4336 59.6989C76.9164 59.961 77.3114 60.2668 77.6187 60.6163C78.1015 59.9173 78.3209 59.1309 78.3209 58.2572C78.3209 57.7329 78.1892 57.3397 77.9698 57.0339C77.7064 56.7281 77.3553 56.597 76.9603 56.597C76.5653 56.597 76.258 56.6844 76.0386 56.9028C75.8191 57.165 75.7313 57.4271 75.7313 57.8203V58.3009C75.5558 58.3882 75.2924 58.4756 75.0291 58.4756C74.7218 58.4756 74.4585 58.3882 74.3268 58.3009V57.8203C74.3268 57.4271 74.1951 57.165 73.9318 56.9028C73.7123 56.6844 73.4051 56.597 73.054 56.597C72.6151 56.597 72.3078 56.7281 72.0884 56.9465C71.8689 57.2087 71.7811 57.4708 71.7811 57.8203C71.7811 57.995 71.825 58.1698 71.8689 58.3009C71.9128 58.4756 72.0006 58.6067 72.0884 58.6941C72.0006 58.7814 71.9128 58.8688 71.7811 58.9562C71.6494 59.0436 71.5178 59.0872 71.3422 59.0872C71.035 59.0872 70.8155 58.9999 70.5961 58.7377C70.3766 58.5193 70.2888 58.1261 70.2888 57.6019C70.2888 57.2523 70.3327 56.9465 70.4644 56.6844C70.5961 56.3786 70.7716 56.1601 71.035 55.9417C71.2544 55.767 71.5178 55.5922 71.825 55.5048C72.1761 55.3738 72.4834 55.3301 72.8784 55.3301C73.3612 55.3301 73.7562 55.4175 74.1074 55.5922C74.5024 55.767 74.7657 56.0291 74.9852 56.3786C75.2046 56.0291 75.468 55.767 75.8191 55.5922C76.1702 55.4175 76.6092 55.3301 77.092 55.3301C77.5309 55.3301 77.9259 55.4175 78.277 55.5485C78.6282 55.6796 78.8915 55.898 79.1549 56.1601C79.3743 56.4223 79.5499 56.7281 79.6816 57.0776C79.7693 57.4271 79.8571 57.8203 79.8571 58.2135ZM74.9413 62.1454C75.3363 62.1454 75.6874 62.058 75.9947 61.927C76.3019 61.8396 76.5653 61.6648 76.7847 61.4901C76.5653 61.1843 76.3019 60.9658 75.9947 60.7474C75.6436 60.5726 75.2924 60.4853 74.8535 60.4853C74.5024 60.4853 74.239 60.5289 74.0196 60.7037C73.8001 60.8348 73.7123 61.0532 73.7123 61.3153C73.7123 61.5775 73.8001 61.7959 74.0196 61.927C74.239 62.058 74.5463 62.1454 74.9413 62.1454Z" fill="#373435"/>
<path d="M83.428 59.7628C83.0768 59.7628 82.8135 59.8502 82.594 60.0686C82.4185 60.287 82.2868 60.5929 82.2868 60.9861C82.2868 61.3792 82.4185 61.7288 82.6379 61.9472C82.8574 62.2093 83.1207 62.4278 83.4719 62.5588C83.428 62.7773 83.3841 62.952 83.2524 63.1268C83.1207 63.3015 82.9452 63.3452 82.6818 63.3452C82.4624 63.3452 82.2429 63.3015 82.0234 63.1705C81.804 63.0831 81.5845 62.9083 81.409 62.6899C81.2334 62.4714 81.1017 62.2093 81.0139 61.9472C80.8823 61.6414 80.8384 61.3356 80.8384 60.9861C80.8384 60.5929 80.9262 60.2434 81.0578 59.9375C81.1895 59.6317 81.3651 59.3696 81.5845 59.1512C81.804 58.9327 82.1112 58.8017 82.4185 58.6706C82.7257 58.5832 83.0329 58.4958 83.3841 58.4958C84.0424 58.4958 84.5691 58.6706 84.9642 58.9764C85.4031 59.2385 85.7542 59.6754 86.1053 60.2434L86.4126 60.8113C86.632 61.2482 86.8515 61.554 87.0709 61.7724C87.2904 61.9909 87.5537 62.0783 87.9049 62.0783C88.2999 62.0783 88.6071 61.9035 88.8705 61.5103C89.0899 61.1608 89.2216 60.5492 89.2216 59.6754C89.2216 59.0638 89.1338 58.4958 89.0022 57.9716C88.8266 57.4473 88.6071 56.9668 88.3438 56.5299C88.0804 56.093 87.7293 55.6998 87.3782 55.3503C87.0271 55.0445 86.632 54.7387 86.1931 54.5202C86.1931 54.7824 86.1492 55.0445 86.0614 55.2629C85.9737 55.4814 85.8859 55.6561 85.7103 55.8309C85.5347 56.0056 85.3153 56.1367 85.0958 56.2241C84.8325 56.3551 84.5252 56.3988 84.218 56.3988C83.9108 56.3988 83.6474 56.3551 83.428 56.2678C83.1646 56.1804 82.9452 56.093 82.7696 55.9183C82.594 55.7872 82.4624 55.6124 82.3746 55.394C82.2429 55.1756 82.199 54.9134 82.199 54.6513C82.199 54.127 82.3746 53.6902 82.7696 53.3407C83.1646 52.9912 83.6913 52.8164 84.3497 52.8164H84.4375C84.9203 52.8164 85.4031 52.9038 85.8859 53.0785C86.3687 53.2096 86.8515 53.428 87.3343 53.6902C87.8171 53.996 88.256 54.3018 88.651 54.695C89.0899 55.1319 89.4411 55.5687 89.7483 56.093C90.0556 56.5736 90.3189 57.1415 90.4945 57.7531C90.67 58.3648 90.7578 59.0201 90.7578 59.7191C90.7578 60.3307 90.7139 60.8987 90.5384 61.3792C90.4067 61.8161 90.1872 62.2093 89.9678 62.5151C89.7044 62.821 89.3972 62.9957 89.0461 63.1705C88.7388 63.3015 88.3438 63.3452 87.9927 63.3452C87.5976 63.3452 87.2904 63.3015 87.0271 63.2141C86.7637 63.1705 86.5442 63.0394 86.3248 62.8646C86.1053 62.6899 85.8859 62.5151 85.7103 62.253C85.5347 62.0346 85.3592 61.7288 85.1836 61.4229L84.8325 60.855C84.613 60.4618 84.4375 60.1997 84.218 60.0249C83.9986 59.8502 83.7352 59.7628 83.428 59.7628ZM84.2619 55.394C84.4814 55.394 84.7008 55.3066 84.8325 55.1756C84.9642 55.0445 85.0081 54.8697 85.0081 54.6513C85.0081 54.3892 84.9642 54.2144 84.8325 54.0834C84.7008 53.9523 84.4814 53.8649 84.2619 53.8649C84.0424 53.8649 83.823 53.9523 83.6913 54.0834C83.5596 54.2144 83.4719 54.3892 83.4719 54.6513C83.4719 54.8697 83.5596 55.0445 83.6913 55.1756C83.823 55.3066 84.0424 55.394 84.2619 55.394Z" fill="#373435"/>
<path d="M87.2066 69.1845C86.8994 69.1845 86.636 69.1408 86.4166 69.0098C86.1532 68.9224 85.9776 68.7476 85.8021 68.5729C85.6704 68.7476 85.4948 68.9224 85.2315 69.0098C85.012 69.1408 84.7487 69.1845 84.4853 69.1845C83.9148 69.1845 83.4758 69.0098 83.1247 68.6603C82.7736 68.3545 82.598 67.8302 82.598 67.2186C82.598 66.738 82.6858 66.3448 82.8614 65.9953C83.0369 65.6021 83.2564 65.2963 83.5636 65.0342C83.8709 64.772 84.222 64.5536 84.6609 64.4225C85.0559 64.2915 85.4948 64.2041 85.9776 64.2041C86.3288 64.2041 86.636 64.2478 86.9432 64.3352C87.2066 64.3789 87.4699 64.4662 87.6455 64.5536C87.865 64.6847 88.0405 64.772 88.1283 64.9031C88.26 65.0342 88.3039 65.1652 88.3039 65.2963C88.3039 65.4274 88.26 65.5147 88.1722 65.6021C88.0844 65.6895 87.9966 65.7332 87.9089 65.7769C87.6894 65.6458 87.4699 65.4711 87.1188 65.34C86.8116 65.2089 86.4166 65.1652 86.0215 65.1652C85.7143 65.1652 85.4071 65.2089 85.1437 65.2963C84.8804 65.3837 84.6609 65.5147 84.4415 65.6895C84.222 65.8642 84.0464 66.0827 83.9586 66.3448C83.827 66.6069 83.7392 66.8691 83.7392 67.2186C83.7392 67.5681 83.827 67.8302 83.9586 68.005C84.0903 68.1797 84.3098 68.2671 84.5731 68.2671C84.7487 68.2671 84.9243 68.2234 85.0559 68.0923C85.1876 68.005 85.2315 67.8302 85.2754 67.6118V67.2623C85.3193 67.2186 85.4071 67.1749 85.4948 67.1312C85.5826 67.1312 85.6704 67.0875 85.8021 67.0875C85.9338 67.0875 86.0215 67.1312 86.1093 67.1312C86.1971 67.1749 86.2849 67.2186 86.3288 67.2623V67.4807C86.3288 67.7428 86.4166 67.9176 86.5482 68.0486C86.7238 68.2234 86.8994 68.2671 87.1627 68.2671C87.3822 68.2671 87.5577 68.2234 87.6455 68.136C87.7772 68.005 87.865 67.8739 87.865 67.7428C87.865 67.5681 87.8211 67.4807 87.7333 67.3933C87.6455 67.3059 87.5577 67.2623 87.4261 67.2623C87.2944 67.2623 87.1627 67.3059 87.0749 67.3496C86.9871 67.2186 86.8994 67.0875 86.8994 66.9128C86.8994 66.7817 86.9432 66.6506 87.0749 66.5632C87.2066 66.4322 87.3822 66.3885 87.6016 66.3885C87.9966 66.3885 88.3039 66.5196 88.5672 66.738C88.7867 67.0001 88.9184 67.3059 88.9184 67.7428C88.9184 67.9613 88.8745 68.1797 88.7867 68.3545C88.6989 68.5292 88.5672 68.704 88.4355 68.835C88.26 68.9224 88.0844 69.0098 87.865 69.0971C87.6455 69.1408 87.4261 69.1845 87.2066 69.1845Z" fill="#373435"/>
<path d="M108.564 56.4588C108.959 56.8083 109.266 57.2452 109.485 57.7258C109.749 58.2501 109.88 58.8617 109.88 59.5607C109.88 60.1286 109.792 60.6529 109.617 61.1335C109.485 61.5703 109.266 61.9635 108.959 62.313C108.651 62.6625 108.3 62.9247 107.861 63.0994C107.422 63.2742 106.983 63.3615 106.457 63.3615C105.93 63.3615 105.447 63.3179 105.008 63.1431C104.613 63.012 104.218 62.7936 103.911 62.4878C103.604 62.7936 103.253 63.012 102.902 63.1431C102.507 63.3179 102.068 63.3615 101.585 63.3615C100.444 63.3615 99.5658 63.0557 98.9075 62.3567C98.5563 62.6625 98.1613 62.9247 97.6785 63.0994C97.2396 63.2742 96.7129 63.3615 96.0984 63.3615C95.4839 63.3615 94.9133 63.2742 94.4305 63.0557C93.9477 62.8373 93.5527 62.5752 93.2016 62.182C92.8505 61.8325 92.5871 61.3956 92.4115 60.915C92.236 60.4344 92.1482 59.9102 92.1482 59.3422C92.1482 58.7743 92.236 58.2937 92.4115 57.7695C92.5871 57.2889 92.8505 56.852 93.2016 56.5025C93.5527 56.153 93.9916 55.8472 94.4744 55.6288C94.9572 55.4103 95.5278 55.323 96.0984 55.323C96.7568 55.323 97.2835 55.4103 97.7663 55.6288C98.293 55.8472 98.688 56.1093 99.0391 56.5025C99.3903 56.852 99.6536 57.2889 99.8292 57.7695C100.005 58.2501 100.093 58.7743 100.093 59.3422C100.093 60.0413 99.9608 60.6966 99.6536 61.3082C99.8731 61.5266 100.093 61.7451 100.4 61.8762C100.707 62.0072 101.014 62.0946 101.409 62.0946C102.024 62.0946 102.507 61.8762 102.902 61.4393C103.297 61.0024 103.472 60.3471 103.472 59.517C103.472 59.0364 103.428 58.6432 103.297 58.2937C103.165 57.9442 102.989 57.6384 102.77 57.42C102.55 57.1579 102.331 56.9394 102.068 56.7647C101.804 56.5899 101.541 56.4588 101.278 56.3715C101.058 56.2841 100.795 56.1093 100.444 55.7598C100.093 55.454 99.6536 55.0171 99.0391 54.4492C99.0391 54.2308 99.1269 54.0123 99.2586 53.8376C99.3903 53.6628 99.5658 53.5754 99.7853 53.5754C99.9608 53.5754 100.049 53.6191 100.18 53.7065C100.312 53.7502 100.444 53.8813 100.619 54.0123C100.751 54.1434 100.926 54.3181 101.102 54.5366C101.278 54.755 101.497 55.0171 101.716 55.323C101.936 54.9735 102.243 54.5366 102.638 54.056C103.077 53.5754 103.516 53.0075 103.955 52.3959L104.306 51.959C104.613 52.0027 104.833 52.0464 105.052 52.1774C105.228 52.3085 105.316 52.4832 105.316 52.7454C105.316 52.8764 105.272 53.0075 105.184 53.1822C105.096 53.357 104.964 53.4881 104.789 53.7065C104.35 54.1871 103.955 54.6239 103.648 54.9735C103.34 55.2793 103.033 55.5414 102.814 55.7598C103.077 55.8909 103.34 56.0657 103.604 56.2841C103.867 56.5025 104.131 56.7647 104.306 57.0705C104.526 57.3763 104.701 57.7695 104.833 58.1627C104.964 58.5559 105.008 59.0364 105.008 59.5607C105.008 60.2597 104.877 60.8713 104.657 61.4393C104.833 61.6577 105.096 61.8325 105.359 61.9198C105.623 62.0509 105.93 62.0946 106.237 62.0946C106.852 62.0946 107.335 61.8762 107.73 61.4393C108.125 61.0024 108.344 60.3471 108.344 59.517C108.344 59.0364 108.256 58.5996 108.081 58.2501C107.949 57.8569 107.73 57.551 107.51 57.2889C107.247 57.0268 106.983 56.8083 106.676 56.6336C106.369 56.5025 106.062 56.4152 105.754 56.3715C105.754 56.3278 105.754 56.2841 105.754 56.2404C105.754 56.1967 105.754 56.153 105.754 56.1093C105.754 55.8909 105.798 55.6725 105.93 55.5414C106.062 55.3666 106.281 55.323 106.545 55.323H112.031C112.602 55.323 113.128 55.4103 113.567 55.5851C114.006 55.7161 114.357 55.9783 114.664 56.2841C114.972 56.5899 115.191 56.9394 115.367 57.3763C115.498 57.8132 115.586 58.2501 115.586 58.7743C115.586 59.6044 115.367 60.216 114.928 60.6529C114.533 61.0461 113.962 61.2645 113.304 61.2645C112.997 61.2645 112.689 61.2208 112.426 61.0898C112.163 61.0024 111.943 60.8713 111.724 60.6966C111.548 60.5218 111.373 60.3034 111.285 60.0849C111.153 59.8228 111.109 59.5607 111.109 59.2549C111.109 58.9491 111.153 58.6869 111.241 58.4685C111.329 58.2064 111.46 58.0316 111.636 57.8569C111.811 57.6821 112.031 57.551 112.25 57.4637C112.47 57.3763 112.733 57.3326 112.997 57.3326C113.26 57.3326 113.479 57.3763 113.655 57.4637C113.874 57.551 114.006 57.6384 114.138 57.7695C113.83 56.8957 113.084 56.4588 111.987 56.4588H108.564ZM98.5563 59.3422C98.5563 58.9054 98.4685 58.5122 98.3369 58.1627C98.2491 57.8132 98.0735 57.551 97.8541 57.2889C97.6346 57.0705 97.3713 56.8957 97.064 56.7647C96.7568 56.6336 96.4495 56.5462 96.0984 56.5462C95.7912 56.5462 95.44 56.6336 95.1328 56.7647C94.8256 56.8957 94.6061 57.0705 94.3867 57.2889C94.1672 57.551 93.9916 57.8569 93.86 58.2064C93.7283 58.5122 93.6844 58.9054 93.6844 59.3422C93.6844 59.7791 93.7283 60.216 93.86 60.5655C93.9916 60.915 94.1672 61.1771 94.3867 61.4393C94.6061 61.6577 94.8256 61.8325 95.1328 61.9635C95.44 62.0946 95.7912 62.1383 96.0984 62.1383C96.4934 62.1383 96.8007 62.0946 97.1079 61.9635C97.4152 61.8325 97.6785 61.6577 97.8541 61.4393C98.0735 61.1771 98.2491 60.915 98.3808 60.5655C98.4685 60.216 98.5563 59.7791 98.5563 59.3422ZM112.47 59.2112C112.47 59.517 112.558 59.6918 112.733 59.8665C112.909 59.9976 113.084 60.0849 113.304 60.0849C113.567 60.0849 113.743 59.9976 113.918 59.8665C114.094 59.6918 114.182 59.517 114.182 59.2112C114.182 58.9054 114.094 58.7306 113.918 58.5559C113.743 58.4248 113.567 58.3374 113.304 58.3374C113.084 58.3374 112.909 58.4248 112.733 58.5559C112.558 58.7306 112.47 58.9054 112.47 59.2112Z" fill="#373435"/>
</svg>
