<svg width="117" height="103" viewBox="0 0 117 103" fill="none" xmlns="http://www.w3.org/2000/svg">
<path fill-rule="evenodd" clip-rule="evenodd" d="M39.165 90.8308C44.9486 93.0255 51.2736 94.235 57.8999 94.235C66.1075 94.235 73.8763 92.3564 80.7233 89.0798C72.3401 95.3709 61.9379 99.128 50.6578 99.128C44.2393 99.128 38.1049 97.9208 32.4713 95.7224L39.165 90.8308ZM25.1149 82.7365C14.7038 74.2289 8.12714 61.7423 8.12714 47.8383C8.12714 22.2372 30.4239 1.4417 57.8999 1.4417C59.9189 1.4417 61.9379 1.57277 63.913 1.79121C59.6994 0.611632 55.2225 0 50.6578 0C23.138 0 0.841187 22.1935 0.841187 49.5859C0.841187 67.0372 9.91997 82.3895 23.6414 91.2157L25.1149 82.7365Z" fill="#F47D5C"/>
<path d="M29.1606 79.6514L22.2258 102.107L40.5724 85.1561L29.1606 79.6514Z" fill="#377044"/>
<path fill-rule="evenodd" clip-rule="evenodd" d="M16.4987 48.6879C16.4987 69.7892 33.6602 86.8712 54.8597 86.8712C67.8099 86.8712 79.2798 80.4703 86.2291 70.6649H91.233C83.7724 82.8984 70.2708 91.0652 54.8597 91.0652C31.334 91.0652 12.2852 72.1046 12.2852 48.6879C12.2852 25.2711 31.334 6.31055 54.8597 6.31055C71.5585 6.31055 86.0155 15.8992 92.9743 29.8604H88.2376C81.6374 18.2985 69.1497 10.5046 54.8597 10.5046C33.6602 10.5046 16.4987 27.5866 16.4987 48.6879Z" fill="#377044"/>
<path fill-rule="evenodd" clip-rule="evenodd" d="M36.1274 60.0604C33.7573 60.0604 31.4749 60.1041 29.1487 60.0168C27.5247 59.9731 26.3835 58.7498 26.3835 57.0897C26.3835 50.0122 26.3835 42.9348 26.3835 35.901C26.3835 34.2408 27.6564 33.0176 29.2804 33.0176C34.9862 33.0176 40.6921 33.0176 46.3979 33.0176C47.9341 33.0176 49.207 34.1098 49.2509 35.5952C49.2948 39.3523 49.2509 43.1095 49.2509 46.9104C48.3731 46.4298 47.4952 46.0366 46.6174 45.556C46.4857 45.4687 46.4418 45.0755 46.4418 44.8133C46.4418 42.1047 46.4418 39.396 46.4418 36.6874V35.8573H29.3243V57.177C30.9043 57.177 32.4844 57.177 34.0645 57.177C34.5034 57.177 34.7668 57.2644 34.9423 57.745C35.2935 58.4877 35.6885 59.1867 36.1274 60.0604Z" fill="#F58B71"/>
<path fill-rule="evenodd" clip-rule="evenodd" d="M36.1274 60.0604C33.7573 60.0604 31.4749 60.1041 29.1487 60.0168C27.5247 59.9731 26.3835 58.7498 26.3835 57.0897C26.3835 50.0122 26.3835 42.9348 26.3835 35.901C26.3835 34.2408 27.6564 33.0176 29.2804 33.0176C34.9862 33.0176 40.6921 33.0176 46.3979 33.0176C47.9341 33.0176 49.207 34.1098 49.2509 35.5952C49.2948 39.3523 49.2509 43.1095 49.2509 46.9104C48.3731 46.4298 47.4952 46.0366 46.6174 45.556C46.4857 45.4687 46.4418 45.0755 46.4418 44.8133C46.4418 42.1047 46.4418 39.396 46.4418 36.6874V35.8573H29.3243V57.177C30.9043 57.177 32.4844 57.177 34.0645 57.177C34.5034 57.177 34.7668 57.2644 34.9423 57.745C35.2935 58.4877 35.6885 59.1867 36.1274 60.0604Z" stroke="#F58B71" stroke-width="0.0116378"/>
<path fill-rule="evenodd" clip-rule="evenodd" d="M47.9115 54.3772C47.8676 52.018 45.9364 50.0521 43.5662 50.0521C41.2839 50.0521 39.2649 52.018 39.2649 54.2898C39.2649 56.6926 41.24 58.6586 43.6101 58.6586C45.9364 58.6149 47.9115 56.6489 47.9115 54.3772ZM49.5355 58.3091C50.8961 59.6197 52.2567 60.8867 53.5296 62.1099C52.8273 62.8089 52.1689 63.4643 51.4667 64.1633C50.5889 63.3332 49.5794 62.4158 48.6576 61.4109C47.9554 60.6245 47.4287 60.4061 46.2875 60.8867C43.654 62.0226 41.0644 61.5857 38.8699 59.6634C36.6753 57.6975 35.9292 55.2072 36.7192 52.4112C37.5092 49.6152 39.4844 47.824 42.3812 47.3434C45.1902 46.8628 47.5604 47.824 49.2721 50.0958C50.9839 52.4112 51.1594 54.9014 50.0183 57.479C49.8866 57.7411 49.7549 57.9596 49.5355 58.3091Z" fill="#F58B71"/>
<path fill-rule="evenodd" clip-rule="evenodd" d="M47.9115 54.3772C47.8676 52.018 45.9364 50.0521 43.5662 50.0521C41.2839 50.0521 39.2649 52.018 39.2649 54.2898C39.2649 56.6926 41.24 58.6586 43.6101 58.6586C45.9364 58.6149 47.9115 56.6489 47.9115 54.3772ZM49.5355 58.3091C50.8961 59.6197 52.2567 60.8867 53.5296 62.1099C52.8273 62.8089 52.1689 63.4643 51.4667 64.1633C50.5889 63.3332 49.5794 62.4158 48.6576 61.4109C47.9554 60.6245 47.4287 60.4061 46.2875 60.8867C43.654 62.0226 41.0644 61.5857 38.8699 59.6634C36.6753 57.6975 35.9292 55.2072 36.7192 52.4112C37.5092 49.6152 39.4844 47.824 42.3812 47.3434C45.1902 46.8628 47.5604 47.824 49.2721 50.0958C50.9839 52.4112 51.1594 54.9014 50.0183 57.479C49.8866 57.7411 49.7549 57.9596 49.5355 58.3091Z" stroke="#F58B71" stroke-width="0.0116378"/>
<path d="M78.8098 39.1899C79.2926 39.6268 79.6437 40.151 79.9071 40.8064C80.2143 41.4617 80.346 42.2044 80.346 43.0781C80.346 43.9082 80.2143 44.6509 79.9948 45.2625C79.7754 45.9179 79.4243 46.4858 79.0292 46.9664C78.5903 47.4033 78.1075 47.7528 77.493 48.0149C76.8786 48.277 76.2202 48.3644 75.5179 48.3644C74.8596 48.3644 74.289 48.3207 73.7623 48.1459C73.1917 48.0149 72.7089 47.7964 72.27 47.4906C71.5677 48.1023 70.7338 48.3644 69.6804 48.3644C69.022 48.3644 68.4514 48.277 67.9686 48.0149C67.4419 47.7964 67.0469 47.4469 66.7397 47.0537C66.4324 47.4469 65.9935 47.7964 65.5107 48.0149C64.984 48.277 64.4134 48.3644 63.7112 48.3644C63.1406 48.3644 62.57 48.277 62.1311 48.1023C61.6483 47.9275 61.2533 47.7091 60.9021 47.4033C60.5949 47.0537 60.3316 46.7042 60.156 46.2674C59.9365 45.8305 59.8487 45.3499 59.8487 44.8257C59.8487 43.9956 60.1121 43.3403 60.5949 42.816H58.6198C58.532 42.7286 58.4881 42.5539 58.4003 42.4228C58.3564 42.2918 58.3564 42.0733 58.3564 41.8986C58.3564 41.5491 58.4442 41.2869 58.6198 41.1122C58.7954 40.9374 59.0148 40.8501 59.2782 40.8501H64.5451C64.6329 40.9811 64.6768 41.1122 64.7646 41.2869C64.8085 41.4617 64.8524 41.6364 64.8524 41.8549C64.8524 42.0733 64.8085 42.2481 64.7646 42.4228C64.6768 42.5976 64.6329 42.7286 64.5451 42.816H64.0184C63.4917 42.9034 63.1406 43.0781 62.8334 43.4276C62.57 43.7335 62.4383 44.1267 62.4383 44.6509C62.4383 45.1315 62.57 45.5247 62.8772 45.8305C63.1406 46.1363 63.5356 46.3111 63.9745 46.3111C64.4573 46.3111 64.8085 46.18 65.0718 45.9615C65.3791 45.6994 65.5107 45.3499 65.5546 44.9567V44.0393C65.6863 43.9519 65.8619 43.8645 66.0374 43.7772C66.2569 43.7335 66.4763 43.6898 66.7397 43.6898C67.003 43.6898 67.2225 43.7335 67.4419 43.7772C67.6614 43.8645 67.837 43.9519 67.9686 44.0393V44.782C67.9686 45.2625 68.1003 45.612 68.3637 45.8742C68.627 46.1363 68.9781 46.3111 69.417 46.3111C69.8999 46.3111 70.2949 46.0926 70.6021 45.6994C70.9094 45.3062 71.041 44.6946 71.041 43.9519C71.041 43.2092 70.9532 42.5976 70.6899 42.0296C70.4704 41.4617 70.1193 40.9374 69.6804 40.5442C69.2854 40.151 68.7587 39.8452 68.1881 39.6268C67.6175 39.3647 66.9591 39.2336 66.3008 39.1899C66.0374 39.1899 65.7741 39.1025 65.5546 39.0152C65.2913 38.9278 65.0279 38.753 64.7207 38.5346C64.4134 38.3162 64.0623 38.054 63.6673 37.7045C63.3162 37.355 62.8334 36.9181 62.3067 36.3939C62.3067 36.0444 62.4383 35.6949 62.6578 35.4327C62.8772 35.1706 63.1845 35.0396 63.5795 35.0396C63.799 35.0396 64.0184 35.0832 64.2379 35.1706C64.4134 35.258 64.6329 35.4327 64.8524 35.6075C65.0718 35.7823 65.2913 36.0444 65.5546 36.3502C65.818 36.656 66.1252 36.9618 66.4763 37.355C66.608 37.1366 66.7836 36.8745 67.0469 36.5686C67.3103 36.2191 67.6175 35.9133 67.9247 35.5201C68.2759 35.1706 68.627 34.7774 68.9781 34.3842C69.3293 33.9474 69.6804 33.5542 70.0315 33.2047L70.5143 32.6367C70.9971 32.6804 71.3922 32.7678 71.6994 33.0299C72.0066 33.2484 72.1383 33.5105 72.1383 33.9037C72.1383 34.1221 72.0944 34.3842 71.9627 34.559C71.8311 34.7774 71.6116 35.0396 71.3483 35.3017C70.8655 35.7823 70.3827 36.2191 69.9876 36.6123C69.5926 36.9618 69.2415 37.3113 68.8904 37.6171C69.5926 37.7919 70.2071 38.0977 70.7777 38.4472C71.3922 38.8404 71.875 39.2773 72.3139 39.8452C72.7089 40.3695 73.06 40.9811 73.2795 41.6801C73.4989 42.3791 73.6306 43.1218 73.6306 43.9519C73.6306 44.6072 73.5428 45.1752 73.3673 45.6994C73.6306 45.8742 73.894 46.0489 74.2012 46.1363C74.5084 46.2237 74.8157 46.3111 75.1668 46.3111C75.913 46.3111 76.5713 46.0052 77.0541 45.4373C77.5369 44.913 77.8003 44.083 77.8003 43.0781C77.8003 42.4665 77.6686 41.8986 77.493 41.418C77.2736 40.9374 77.0102 40.5006 76.703 40.151C76.3958 39.8015 76.0446 39.5394 75.6496 39.3647C75.2546 39.1462 74.8596 39.0152 74.4207 38.9715C74.4207 38.9278 74.4207 38.8404 74.4207 38.7967C74.4207 38.7093 74.4207 38.6657 74.4207 38.5783C74.4207 38.1851 74.5084 37.8793 74.7279 37.6608C74.9473 37.3987 75.2985 37.2676 75.7374 37.2676H83.4184C84.2084 37.2676 84.9546 37.3987 85.569 37.6608C86.1835 37.923 86.6663 38.2288 87.1052 38.6657C87.5441 39.1025 87.8514 39.6268 88.0708 40.2384C88.2903 40.8501 88.3781 41.5054 88.3781 42.1607C88.3781 42.7723 88.3342 43.2529 88.1586 43.7335C87.9831 44.1703 87.7636 44.5198 87.4564 44.8257C87.193 45.1315 86.8419 45.3499 86.4469 45.481C86.0518 45.6557 85.6129 45.7431 85.1301 45.7431C84.6473 45.7431 84.2523 45.6557 83.8573 45.5247C83.4623 45.3936 83.1111 45.2189 82.8478 44.9567C82.5405 44.6946 82.3211 44.3888 82.1894 44.0393C82.0138 43.6898 81.9261 43.2966 81.9261 42.8597C81.9261 42.4665 82.0138 42.0733 82.1455 41.7675C82.2772 41.4617 82.4528 41.1559 82.6722 40.9374C82.9356 40.719 83.1989 40.5442 83.5061 40.4132C83.8573 40.2821 84.2084 40.1947 84.5595 40.1947C84.8668 40.1947 85.174 40.2384 85.3935 40.3695C85.6568 40.4569 85.8324 40.5442 86.008 40.6753C85.8324 40.1947 85.4813 39.8015 85.0423 39.5394C84.6034 39.321 84.0328 39.1899 83.3306 39.1899H78.8098ZM84.1206 42.816C84.1206 43.1655 84.2084 43.4276 84.4279 43.6024C84.6034 43.7772 84.8668 43.8645 85.1301 43.8645C85.3935 43.8645 85.6129 43.7772 85.8324 43.6024C86.0518 43.4276 86.1396 43.1655 86.1396 42.816C86.1396 42.4665 86.0518 42.2044 85.8324 42.0296C85.6129 41.8986 85.3935 41.8112 85.1301 41.8112C84.8668 41.8112 84.6034 41.8986 84.4279 42.0296C84.2084 42.2044 84.1206 42.4665 84.1206 42.816Z" fill="#377044"/>
<path d="M104.967 46.3111C105.757 46.3111 106.371 46.0052 106.854 45.4373C107.337 44.913 107.6 44.083 107.6 43.0781C107.6 42.4228 107.513 41.8986 107.293 41.3743C107.074 40.8937 106.854 40.5006 106.503 40.151C106.196 39.8015 105.845 39.5394 105.45 39.3647C105.055 39.1462 104.66 39.0152 104.265 38.9715C104.221 38.9278 104.221 38.8404 104.221 38.7967C104.221 38.7093 104.221 38.6657 104.221 38.5783C104.221 38.1851 104.309 37.8793 104.572 37.6608C104.791 37.3987 105.099 37.2676 105.581 37.2676C106.064 37.2676 106.591 37.3987 107.118 37.6608C107.644 37.923 108.171 38.2725 108.61 38.753C109.049 39.2773 109.444 39.8452 109.707 40.5879C110.014 41.2869 110.19 42.1607 110.19 43.0781C110.19 43.9082 110.058 44.6509 109.839 45.2625C109.575 45.9179 109.268 46.4858 108.829 46.9664C108.434 47.4033 107.908 47.7528 107.293 48.0149C106.723 48.277 106.02 48.3644 105.318 48.3644C104.133 48.3644 103.08 48.1023 102.246 47.578C101.894 47.8401 101.499 48.0586 101.061 48.1896C100.622 48.3207 100.139 48.3644 99.6121 48.3644C98.9538 48.3644 98.3832 48.277 97.9004 48.0149C97.3737 47.7964 96.9786 47.4469 96.6275 47.0101C96.3203 47.4469 95.9253 47.7964 95.3986 48.0586C94.9158 48.277 94.3452 48.3644 93.7307 48.3644C92.5456 48.3644 91.5361 48.0149 90.8339 47.2285C90.0877 46.4858 89.7366 45.3936 89.7366 43.9519C89.7366 43.1655 89.8244 42.4665 90.0438 41.8112C90.2633 41.1559 90.5266 40.5879 90.9216 40.0637C91.3167 39.5394 91.7556 39.1025 92.3262 38.7093C92.8529 38.3598 93.4673 38.054 94.1257 37.7919C93.8624 37.6171 93.599 37.3987 93.2918 37.1803C93.0284 36.9181 92.6773 36.656 92.3262 36.3502C92.3701 36.0007 92.5017 35.6512 92.7212 35.3891C92.9845 35.0832 93.2918 34.9522 93.7307 34.9522C93.9501 34.9522 94.1696 34.9959 94.3452 35.0832C94.5646 35.1706 94.7841 35.3454 95.0035 35.5201C95.223 35.7386 95.4424 35.957 95.7058 36.2628C95.9691 36.5249 96.2325 36.8745 96.5397 37.224C96.6714 37.0055 96.847 36.7434 97.1103 36.4813C97.3737 36.1754 97.6809 35.8259 97.9881 35.4764C98.3393 35.1269 98.6904 34.7337 99.0415 34.3405C99.3927 33.9474 99.7438 33.5542 100.095 33.2047L100.578 32.6367C101.061 32.6804 101.456 32.7678 101.763 33.0299C102.07 33.2484 102.202 33.5105 102.202 33.9037C102.202 34.1221 102.114 34.3405 101.982 34.5153C101.851 34.7337 101.675 34.9522 101.368 35.258C100.885 35.7386 100.402 36.1754 100.007 36.5249C99.656 36.9181 99.261 37.224 98.9538 37.5298C99.9194 37.7045 100.666 38.0103 101.192 38.4035C101.763 38.7967 102.026 39.1899 102.026 39.5831C102.026 39.8452 101.938 40.1074 101.807 40.2821C101.631 40.4569 101.412 40.5879 101.148 40.719C100.973 40.5442 100.753 40.3695 100.49 40.1947C100.227 40.02 99.9194 39.8889 99.5682 39.7579C99.261 39.6268 98.866 39.4957 98.471 39.4084C98.032 39.321 97.5931 39.2773 97.1103 39.2773C96.4519 39.2773 95.8375 39.3647 95.2669 39.5831C94.6963 39.7579 94.1696 40.0637 93.7307 40.4569C93.2918 40.8064 92.9406 41.2869 92.6773 41.8986C92.4139 42.4665 92.3262 43.1655 92.3262 43.9519C92.3262 44.7383 92.4578 45.3062 92.7651 45.6994C93.0723 46.0926 93.4673 46.3111 93.9501 46.3111C94.3891 46.3111 94.7402 46.1363 95.0035 45.8742C95.2669 45.612 95.3986 45.2625 95.3986 44.8257V44.0393C95.5302 43.9519 95.7058 43.8645 95.9253 43.7772C96.1008 43.7335 96.3642 43.6898 96.5836 43.6898C96.8909 43.6898 97.1103 43.7335 97.3298 43.7772C97.5053 43.8645 97.6809 43.9519 97.8126 44.0393V44.7383C97.8565 45.2625 97.9881 45.612 98.2954 45.9179C98.6465 46.18 98.9976 46.3111 99.4805 46.3111C99.9194 46.3111 100.314 46.18 100.534 45.9615C100.797 45.7431 100.929 45.481 100.929 45.0878C100.929 44.782 100.797 44.5198 100.622 44.3451C100.402 44.1703 100.183 44.083 99.9194 44.083C99.7877 44.083 99.656 44.083 99.5243 44.1267C99.3927 44.1267 99.261 44.1703 99.2171 44.214C98.9538 43.9519 98.7782 43.6461 98.7782 43.2966C98.7782 42.9471 98.9538 42.685 99.2171 42.4665C99.4805 42.2044 99.9194 42.117 100.446 42.117C100.841 42.117 101.236 42.1607 101.587 42.3354C101.938 42.4665 102.246 42.6413 102.509 42.9034C102.772 43.1655 102.992 43.4713 103.123 43.8645C103.299 44.214 103.387 44.6509 103.387 45.0878C103.387 45.3499 103.343 45.612 103.299 45.7868C103.518 45.9615 103.782 46.0926 104.089 46.18C104.352 46.2674 104.66 46.3111 104.967 46.3111Z" fill="#377044"/>
<path d="M80.6585 57.9557C80.6585 58.6547 80.5268 59.31 80.2635 59.8779C80.0001 60.4896 79.649 60.9701 79.254 61.407C79.4296 61.7128 79.5612 62.0187 79.649 62.2808C79.7368 62.5866 79.7807 62.805 79.7807 63.0235C79.7807 63.5477 79.5173 63.8099 79.0345 63.8099C78.9467 63.8099 78.859 63.8099 78.7273 63.7662C78.6395 63.7662 78.5517 63.7225 78.4639 63.6788C78.4639 63.2419 78.3762 62.805 78.2445 62.3245C77.8495 62.5429 77.4983 62.7177 77.0594 62.8924C76.6644 63.0235 76.1816 63.0672 75.6549 63.0672C75.3038 63.0672 74.9088 63.0235 74.6015 62.9361C74.2943 62.8487 73.987 62.7177 73.7676 62.4992C73.5481 62.3245 73.3726 62.106 73.2409 61.8876C73.1092 61.6255 73.0653 61.3196 73.0653 61.0138C73.0653 60.708 73.1092 60.4022 73.2409 60.1838C73.3726 59.9216 73.5481 59.7032 73.7676 59.5284C73.987 59.3537 74.2504 59.2663 74.5576 59.1352C74.821 59.0479 75.1721 59.0042 75.5232 59.0042C76.1816 59.0042 76.7522 59.1352 77.235 59.3974C77.7178 59.6595 78.1128 60.009 78.4201 60.3585C78.9029 59.6595 79.1662 58.8731 79.1662 57.9994C79.1662 57.4751 79.0345 57.0819 78.7712 56.7761C78.5517 56.4703 78.2006 56.3392 77.7617 56.3392C77.3667 56.3392 77.1033 56.4266 76.8839 56.645C76.6644 56.8635 76.5327 57.1693 76.5327 57.5625V58.043C76.3572 58.1304 76.1377 58.2178 75.8305 58.2178C75.5232 58.2178 75.3038 58.1304 75.1282 58.043V57.5625C75.1282 57.1693 74.9965 56.8635 74.7771 56.645C74.5137 56.4266 74.2065 56.3392 73.8554 56.3392C73.4164 56.3392 73.1092 56.4703 72.8898 56.6887C72.7142 56.9508 72.5825 57.213 72.5825 57.5625C72.5825 57.7372 72.6264 57.912 72.6703 58.043C72.7581 58.2178 72.802 58.3052 72.8898 58.4362C72.802 58.5236 72.7142 58.611 72.6264 58.6984C72.4947 58.7857 72.3192 58.8294 72.1436 58.8294C71.8803 58.8294 71.6169 58.6984 71.3974 58.4799C71.178 58.2178 71.0902 57.8683 71.0902 57.344C71.0902 56.9945 71.178 56.6887 71.3097 56.4266C71.4413 56.1208 71.6169 55.9023 71.8364 55.6839C72.0558 55.5091 72.3631 55.3344 72.6703 55.2033C72.9775 55.116 73.3287 55.0723 73.6798 55.0723C74.1626 55.0723 74.6015 55.1596 74.9526 55.3344C75.3038 55.5091 75.611 55.7713 75.8305 56.1208C76.006 55.7713 76.3133 55.5091 76.6644 55.3344C77.0155 55.1596 77.4106 55.0723 77.8934 55.0723C78.3323 55.0723 78.7273 55.116 79.0784 55.2907C79.4296 55.4218 79.7368 55.6402 79.9562 55.9023C80.1757 56.1645 80.3513 56.4703 80.4829 56.8198C80.6146 57.1693 80.6585 57.5625 80.6585 57.9557ZM75.7866 61.8876C76.1377 61.8876 76.4888 61.8002 76.7961 61.6691C77.1033 61.5381 77.3667 61.407 77.63 61.2323C77.4106 60.9265 77.1033 60.708 76.7961 60.4896C76.4888 60.3148 76.0938 60.2274 75.6549 60.2274C75.3038 60.2274 75.0404 60.2711 74.821 60.4459C74.6454 60.577 74.5137 60.7954 74.5137 61.0575C74.5137 61.3196 74.6454 61.4944 74.8649 61.6691C75.0843 61.8002 75.3916 61.8876 75.7866 61.8876Z" fill="#373435"/>
<path d="M84.2246 59.505C83.8735 59.505 83.6101 59.5924 83.4346 59.8108C83.2151 60.0292 83.1273 60.3351 83.1273 60.7283C83.1273 61.1214 83.2151 61.4273 83.4346 61.6894C83.654 61.9515 83.9174 62.17 84.2685 62.301C84.2685 62.5195 84.1807 62.6942 84.049 62.869C83.9612 63 83.7418 63.0874 83.4784 63.0874C83.259 63.0874 83.0395 63.0437 82.8201 62.9127C82.6006 62.8253 82.4251 62.6505 82.2495 62.4321C82.0739 62.2136 81.8984 61.9515 81.8106 61.6894C81.7228 61.3836 81.635 61.0778 81.635 60.7283C81.635 60.3351 81.7228 59.9856 81.8545 59.6797C81.9861 59.3739 82.1617 59.1118 82.3812 58.8934C82.6445 58.6749 82.9079 58.5439 83.2151 58.4128C83.5223 58.3254 83.8296 58.238 84.1807 58.238C84.8391 58.238 85.3658 58.4128 85.8047 58.7186C86.1997 58.9807 86.5947 59.4176 86.902 59.9856L87.2092 60.5535C87.4287 60.9467 87.6481 61.2962 87.8676 61.5146C88.087 61.6894 88.3504 61.8205 88.7015 61.8205C89.0965 61.8205 89.4038 61.6457 89.6671 61.2525C89.9305 60.903 90.0621 60.2914 90.0621 59.4176C90.0621 58.806 89.9744 58.238 89.7988 57.7138C89.6232 57.1895 89.4477 56.6653 89.1404 56.2284C88.8771 55.7915 88.5698 55.442 88.1748 55.0925C87.8237 54.743 87.4287 54.4809 86.9897 54.2624C86.9897 54.5246 86.9459 54.743 86.902 55.0051C86.8142 55.2236 86.6825 55.3983 86.5069 55.5731C86.3314 55.7478 86.1558 55.8789 85.8925 55.9663C85.6291 56.0973 85.3658 56.141 85.0146 56.141C84.7513 56.141 84.4879 56.0973 84.2246 56.0099C84.0051 55.9226 83.7857 55.7915 83.6101 55.6604C83.4346 55.5294 83.259 55.3109 83.1712 55.1362C83.0834 54.9177 83.0395 54.6556 83.0395 54.3935C83.0395 53.8692 83.2151 53.4324 83.5662 53.0828C83.9612 52.7333 84.4879 52.5586 85.1902 52.5586H85.278C85.7169 52.5586 86.1997 52.646 86.6825 52.8207C87.2092 52.9518 87.692 53.1702 88.1309 53.4324C88.6137 53.7382 89.0526 54.044 89.4915 54.4372C89.8866 54.8304 90.2377 55.3109 90.5888 55.7915C90.8961 56.3158 91.1155 56.8837 91.335 57.4953C91.5105 58.107 91.5983 58.7623 91.5983 59.4613C91.5983 60.0729 91.5105 60.6409 91.3789 61.1214C91.2033 61.5583 91.0277 61.9515 90.7644 62.2573C90.501 62.5195 90.1938 62.7379 89.8866 62.869C89.5354 63.0437 89.1843 63.0874 88.7893 63.0874C88.4382 63.0874 88.1309 63.0437 87.8676 62.9563C87.5603 62.869 87.3409 62.7816 87.1214 62.6068C86.902 62.4321 86.7264 62.2573 86.5069 61.9952C86.3314 61.7768 86.1558 61.4709 85.9802 61.1651L85.6291 60.5535C85.4536 60.204 85.2341 59.9419 85.0146 59.7671C84.8391 59.5924 84.5757 59.505 84.2246 59.505ZM85.0585 55.1362C85.3219 55.1362 85.4974 55.0488 85.6291 54.9177C85.7608 54.7867 85.8486 54.5682 85.8486 54.3498C85.8486 54.1314 85.7608 53.9566 85.6291 53.8255C85.4974 53.6945 85.3219 53.6071 85.0585 53.6071C84.8391 53.6071 84.6635 53.6945 84.4879 53.8255C84.3563 53.9566 84.3124 54.1314 84.3124 54.3498C84.3124 54.5682 84.3563 54.7867 84.4879 54.9177C84.6635 55.0488 84.8391 55.1362 85.0585 55.1362Z" fill="#373435"/>
<path d="M88.043 68.9267C87.7358 68.9267 87.4286 68.883 87.2091 68.752C86.9457 68.6646 86.7702 68.4898 86.5946 68.3151C86.4629 68.4898 86.2874 68.6646 86.0679 68.752C85.8485 68.883 85.5851 68.9267 85.2779 68.9267C84.7073 68.9267 84.2684 68.752 83.9173 68.4025C83.61 68.053 83.4344 67.5724 83.4344 66.9608C83.4344 66.4802 83.5222 66.087 83.6978 65.7375C83.8295 65.3443 84.0928 65.0385 84.4001 64.7764C84.7073 64.5142 85.0584 64.2958 85.4534 64.1647C85.8485 64.0337 86.2874 63.9463 86.7702 63.9463C87.1213 63.9463 87.4724 63.99 87.7358 64.0337C87.9991 64.121 88.2625 64.2084 88.4819 64.2958C88.6575 64.4269 88.8331 64.5142 88.9209 64.6453C89.0525 64.7764 89.0964 64.9074 89.0964 65.0385C89.0964 65.1259 89.0525 65.2569 89.0086 65.3443C88.9209 65.388 88.8331 65.4754 88.7014 65.5191C88.5258 65.3443 88.2625 65.2132 87.9552 65.0822C87.6041 64.9511 87.253 64.9074 86.8141 64.9074C86.5068 64.9074 86.2435 64.9511 85.9801 65.0385C85.6729 65.1259 85.4534 65.2569 85.234 65.4317C85.0584 65.6064 84.8829 65.8249 84.7512 66.087C84.6195 66.3054 84.5756 66.6113 84.5756 66.9608C84.5756 67.3103 84.6195 67.5724 84.7512 67.7471C84.9268 67.9219 85.1023 68.0093 85.3657 68.0093C85.5851 68.0093 85.7168 67.9656 85.8485 67.8345C85.9801 67.7035 86.0679 67.5724 86.0679 67.354V67.0045C86.1118 66.9608 86.1996 66.9171 86.2874 66.8734C86.3752 66.8734 86.5068 66.8297 86.5946 66.8297C86.7263 66.8297 86.8141 66.8734 86.9019 66.8734C86.9896 66.9171 87.0774 66.9608 87.1652 67.0045V67.2229C87.1652 67.485 87.2091 67.6598 87.3847 67.7908C87.5163 67.9219 87.6919 68.0093 87.9552 68.0093C88.1747 68.0093 88.3503 67.9656 88.4819 67.8782C88.5697 67.7471 88.6575 67.6161 88.6575 67.485C88.6575 67.3103 88.6136 67.1792 88.5258 67.1355C88.4381 67.0481 88.3503 67.0045 88.2186 67.0045C88.0869 67.0045 87.9991 67.0481 87.9114 67.0918C87.7797 66.9608 87.6919 66.8297 87.6919 66.6549C87.6919 66.5239 87.7797 66.3928 87.8675 66.2618C87.9991 66.1744 88.1747 66.1307 88.3942 66.1307C88.7892 66.1307 89.0964 66.2618 89.3598 66.4802C89.6231 66.7423 89.7548 67.0481 89.7548 67.485C89.7548 67.7035 89.7109 67.9219 89.5792 68.0967C89.4914 68.2714 89.3598 68.4462 89.2281 68.5335C89.0525 68.6646 88.877 68.752 88.6575 68.8394C88.4819 68.883 88.2625 68.9267 88.043 68.9267Z" fill="#373435"/>
<path d="M109.365 56.2069C109.76 56.5564 110.067 56.9933 110.33 57.4738C110.55 57.9981 110.682 58.566 110.682 59.3087C110.682 59.8767 110.594 60.4009 110.462 60.8378C110.287 61.3184 110.067 61.7116 109.76 62.0611C109.453 62.4106 109.101 62.6727 108.663 62.8475C108.268 63.0222 107.785 63.1096 107.258 63.1096C106.731 63.1096 106.249 63.0659 105.854 62.8911C105.415 62.7601 105.02 62.5416 104.712 62.2358C104.449 62.5416 104.098 62.7601 103.703 62.8911C103.308 63.0659 102.869 63.1096 102.386 63.1096C101.289 63.1096 100.367 62.7601 99.7087 62.1048C99.3576 62.4106 98.9626 62.6727 98.5237 62.8475C98.0409 63.0222 97.5142 63.1096 96.9436 63.1096C96.3291 63.1096 95.7585 63.0222 95.2757 62.8038C94.749 62.5853 94.354 62.2795 94.0029 61.93C93.6517 61.5805 93.3884 61.1436 93.2128 60.6631C93.0372 60.1388 92.9495 59.6582 92.9495 59.0903C92.9495 58.5224 93.0372 57.9981 93.2128 57.5175C93.4323 57.037 93.6956 56.6001 94.0467 56.2506C94.354 55.9011 94.7929 55.5953 95.2757 55.3768C95.7585 55.1584 96.3291 55.071 96.9436 55.071C97.5581 55.071 98.0848 55.1584 98.6114 55.3768C99.0943 55.5953 99.4893 55.8574 99.8404 56.2506C100.192 56.6001 100.455 57.037 100.63 57.5175C100.806 57.9981 100.894 58.5224 100.894 59.0903C100.894 59.7893 100.762 60.4446 100.455 61.0563C100.674 61.2747 100.938 61.4931 101.201 61.6242C101.508 61.7553 101.859 61.8426 102.211 61.8426C102.825 61.8426 103.308 61.6242 103.703 61.1873C104.098 60.7504 104.317 60.0951 104.317 59.265C104.317 58.7845 104.23 58.3913 104.098 58.0418C103.966 57.6923 103.791 57.3865 103.571 57.1243C103.396 56.9059 103.132 56.6875 102.869 56.5127C102.649 56.338 102.386 56.2069 102.123 56.1195C101.859 56.0321 101.596 55.8137 101.245 55.5079C100.938 55.2021 100.455 54.7652 99.8404 54.1972C99.8404 53.9351 99.9282 53.7604 100.06 53.5856C100.235 53.4109 100.411 53.3235 100.63 53.3235C100.762 53.3235 100.894 53.3672 101.025 53.4545C101.157 53.4982 101.289 53.5856 101.42 53.7604C101.552 53.8914 101.728 54.0662 101.903 54.2846C102.079 54.5031 102.298 54.7652 102.518 55.071C102.737 54.6778 103.044 54.2846 103.483 53.7604C103.878 53.2798 104.317 52.7555 104.8 52.1439L105.107 51.707C105.415 51.707 105.678 51.7944 105.854 51.9255C106.029 52.0565 106.117 52.2313 106.117 52.4497C106.117 52.6245 106.073 52.7555 105.985 52.9303C105.897 53.105 105.766 53.2361 105.634 53.4109C105.195 53.9351 104.8 54.372 104.449 54.6778C104.142 55.0273 103.878 55.2894 103.615 55.5079C103.878 55.6389 104.142 55.8137 104.449 56.0321C104.712 56.2506 104.932 56.5127 105.151 56.8185C105.327 57.1243 105.502 57.4738 105.634 57.9107C105.766 58.3039 105.854 58.7845 105.854 59.3087C105.854 60.0077 105.722 60.6194 105.459 61.1873C105.678 61.4058 105.897 61.5805 106.161 61.6679C106.424 61.7989 106.731 61.8426 107.039 61.8426C107.653 61.8426 108.18 61.6242 108.575 61.1873C108.926 60.7504 109.145 60.0951 109.145 59.265C109.145 58.7845 109.058 58.3476 108.926 57.9544C108.75 57.6049 108.575 57.2554 108.311 56.9933C108.092 56.7311 107.785 56.5564 107.478 56.3816C107.17 56.2506 106.863 56.1632 106.556 56.1195C106.556 56.0321 106.556 55.9885 106.556 55.9448C106.556 55.9011 106.556 55.9011 106.556 55.8574C106.556 55.5953 106.6 55.4205 106.731 55.2894C106.863 55.1147 107.082 55.071 107.346 55.071H112.876C113.447 55.071 113.93 55.1584 114.368 55.2894C114.807 55.4642 115.202 55.7263 115.51 56.0321C115.773 56.338 115.992 56.6875 116.168 57.1243C116.3 57.5612 116.387 57.9981 116.387 58.5224C116.387 59.3524 116.168 59.9641 115.773 60.3572C115.334 60.7941 114.763 61.0126 114.105 61.0126C113.798 61.0126 113.491 60.9689 113.227 60.8378C112.964 60.7504 112.744 60.6194 112.525 60.4446C112.349 60.2699 112.174 60.0514 112.086 59.7893C111.998 59.5709 111.911 59.265 111.911 59.0029C111.911 58.6971 111.954 58.435 112.086 58.2165C112.174 57.9544 112.306 57.7797 112.481 57.6049C112.613 57.4302 112.832 57.2991 113.052 57.2117C113.315 57.1243 113.535 57.0807 113.798 57.0807C114.061 57.0807 114.281 57.1243 114.5 57.2117C114.676 57.2991 114.807 57.3865 114.939 57.5175C114.632 56.6438 113.93 56.2069 112.788 56.2069H109.365ZM99.3576 59.0903C99.3576 58.6534 99.3137 58.2602 99.182 57.9107C99.0504 57.5612 98.8748 57.2991 98.6553 57.037C98.4359 56.8185 98.1725 56.6001 97.8653 56.5127C97.6019 56.3816 97.2947 56.2943 96.9436 56.2943C96.5924 56.2943 96.2413 56.3816 95.978 56.5127C95.6707 56.6001 95.4074 56.8185 95.1879 57.037C94.9685 57.2991 94.7929 57.6049 94.6612 57.9544C94.5734 58.2602 94.4857 58.6534 94.4857 59.0903C94.4857 59.5272 94.5734 59.9641 94.6612 60.2699C94.7929 60.6194 94.9685 60.9252 95.1879 61.1436C95.4074 61.4058 95.6707 61.5805 95.978 61.7116C96.2413 61.7989 96.5924 61.8863 96.9436 61.8863C97.2947 61.8863 97.6019 61.7989 97.9092 61.7116C98.2164 61.5805 98.4798 61.4058 98.6992 61.1436C98.9187 60.9252 99.0504 60.6194 99.182 60.2699C99.3137 59.9641 99.3576 59.5272 99.3576 59.0903ZM113.271 58.9592C113.271 59.2214 113.359 59.4398 113.535 59.6146C113.71 59.7456 113.93 59.833 114.149 59.833C114.368 59.833 114.588 59.7456 114.763 59.6146C114.939 59.4398 115.027 59.2214 115.027 58.9592C115.027 58.6534 114.939 58.435 114.763 58.3039C114.588 58.1292 114.368 58.0855 114.149 58.0855C113.93 58.0855 113.71 58.1292 113.535 58.3039C113.359 58.435 113.271 58.6534 113.271 58.9592Z" fill="#373435"/>
</svg>
