<svg width="117" height="103" viewBox="0 0 117 103" fill="none" xmlns="http://www.w3.org/2000/svg">
<path fill-rule="evenodd" clip-rule="evenodd" d="M31.1216 30.163C36.3447 30.2067 40.8216 33.3085 42.7089 38.1579C44.5523 42.9199 43.4112 48.0751 39.4171 51.4827C36.7397 53.7545 35.5985 56.5942 35.2474 59.9582C34.8524 63.3659 31.9556 66.0308 28.6637 66.0745C25.1963 66.1182 22.2556 63.6717 21.685 60.1766C21.6411 59.8708 21.5094 59.4776 21.6411 59.2155C21.8167 58.866 22.2117 58.3417 22.4751 58.3417C22.8701 58.3417 23.3529 58.6913 23.5723 59.0408C23.7918 59.3466 23.704 59.8271 23.7918 60.2203C24.2746 62.4921 26.3814 64.1522 28.6198 64.0212C31.0338 63.9338 32.9651 62.0989 33.2723 59.7398C33.3601 58.7349 33.5356 57.7738 33.7551 56.769C34.2818 54.1914 35.6863 52.0944 37.7053 50.3905C39.7682 48.7304 40.9094 46.5897 41.3483 43.9684C42.27 38.6385 38.232 33.0901 32.8334 32.3474C29.1904 31.8668 26.0741 32.828 23.5284 35.5803C23.0895 36.0609 22.6506 36.4541 22.0361 35.8424C21.4656 35.3182 21.5533 34.7502 22.0361 34.1823C23.9674 31.6921 27.5225 30.1193 31.1216 30.163Z" fill="#F58B71"/>
<path fill-rule="evenodd" clip-rule="evenodd" d="M31.1216 30.163C36.3447 30.2067 40.8216 33.3085 42.7089 38.1579C44.5523 42.9199 43.4112 48.0751 39.4171 51.4827C36.7397 53.7545 35.5985 56.5942 35.2474 59.9582C34.8524 63.3659 31.9556 66.0308 28.6637 66.0745C25.1963 66.1182 22.2556 63.6717 21.685 60.1766C21.6411 59.8708 21.5094 59.4776 21.6411 59.2155C21.8167 58.866 22.2117 58.3417 22.4751 58.3417C22.8701 58.3417 23.3529 58.6913 23.5723 59.0408C23.7918 59.3466 23.704 59.8271 23.7918 60.2203C24.2746 62.4921 26.3814 64.1522 28.6198 64.0212C31.0338 63.9338 32.9651 62.0989 33.2723 59.7398C33.3601 58.7349 33.5356 57.7738 33.7551 56.769C34.2818 54.1914 35.6863 52.0944 37.7053 50.3905C39.7682 48.7304 40.9094 46.5897 41.3483 43.9684C42.27 38.6385 38.232 33.0901 32.8334 32.3474C29.1904 31.8668 26.0741 32.828 23.5284 35.5803C23.0895 36.0609 22.6506 36.4541 22.0361 35.8424C21.4656 35.3182 21.5533 34.7502 22.0361 34.1823C23.9674 31.6921 27.5225 30.1193 31.1216 30.163Z" stroke="#F58B71" stroke-width="0.0135276"/>
<path fill-rule="evenodd" clip-rule="evenodd" d="M31.0224 49.8356C31.0224 48.4376 31.2857 47.9133 32.0319 47.957C33.3047 48.0444 32.9975 49.0492 33.0853 49.7919C33.3486 52.8937 31.3296 55.7335 28.5644 56.3451C27.0721 56.6072 25.7993 56.3014 24.8336 55.2092C23.8241 53.9859 23.5608 52.5879 24.2192 51.1899C24.6142 50.3161 25.2287 49.5298 25.887 48.8744C26.9843 47.7386 27.0721 47.4764 26.1504 46.1658C25.9748 45.86 25.7554 45.5542 25.5359 45.292C23.6047 43.0639 24.1753 40.6611 25.5359 38.6951C27.7744 35.3749 32.6025 34.7632 35.6749 37.3408C38.6595 39.8747 38.8789 44.6804 36.026 47.4764C35.7626 47.7386 35.4115 48.0444 35.0604 48.0444C34.7531 48.0881 34.1825 47.7822 34.1387 47.4764C34.007 47.1269 34.1387 46.559 34.402 46.2969C35.4115 45.2047 36.0699 43.9814 36.0699 42.4523C36.026 40.1368 34.1825 38.0835 31.8124 37.7777C29.7056 37.5156 27.1599 39.132 26.5454 41.098C26.2382 42.0591 26.4137 42.8892 26.9843 43.6756C27.4671 44.4183 27.9938 45.1173 28.4328 45.9037C29.135 47.1706 29.0033 48.3939 28.0377 49.4861C27.5549 50.0103 27.0721 50.4909 26.5893 51.0588C25.8432 51.8889 25.7554 53.0685 26.326 53.7675C26.8966 54.4665 28.0377 54.5539 29.0911 53.9422C30.3201 53.2432 31.0662 51.7142 31.0224 49.8356Z" fill="#F58B71"/>
<path fill-rule="evenodd" clip-rule="evenodd" d="M31.0224 49.8356C31.0224 48.4376 31.2857 47.9133 32.0319 47.957C33.3047 48.0444 32.9975 49.0492 33.0853 49.7919C33.3486 52.8937 31.3296 55.7335 28.5644 56.3451C27.0721 56.6072 25.7993 56.3014 24.8336 55.2092C23.8241 53.9859 23.5608 52.5879 24.2192 51.1899C24.6142 50.3161 25.2287 49.5298 25.887 48.8744C26.9843 47.7386 27.0721 47.4764 26.1504 46.1658C25.9748 45.86 25.7554 45.5542 25.5359 45.292C23.6047 43.0639 24.1753 40.6611 25.5359 38.6951C27.7744 35.3749 32.6025 34.7632 35.6749 37.3408C38.6595 39.8747 38.8789 44.6804 36.026 47.4764C35.7626 47.7386 35.4115 48.0444 35.0604 48.0444C34.7531 48.0881 34.1825 47.7822 34.1387 47.4764C34.007 47.1269 34.1387 46.559 34.402 46.2969C35.4115 45.2047 36.0699 43.9814 36.0699 42.4523C36.026 40.1368 34.1825 38.0835 31.8124 37.7777C29.7056 37.5156 27.1599 39.132 26.5454 41.098C26.2382 42.0591 26.4137 42.8892 26.9843 43.6756C27.4671 44.4183 27.9938 45.1173 28.4328 45.9037C29.135 47.1706 29.0033 48.3939 28.0377 49.4861C27.5549 50.0103 27.0721 50.4909 26.5893 51.0588C25.8432 51.8889 25.7554 53.0685 26.326 53.7675C26.8966 54.4665 28.0377 54.5539 29.0911 53.9422C30.3201 53.2432 31.0662 51.7142 31.0224 49.8356Z" stroke="#F58B71" stroke-width="0.0135276"/>
<path fill-rule="evenodd" clip-rule="evenodd" d="M53.4577 53.4495C53.4577 59.2163 49.5514 64.153 43.8894 65.3326C42.9238 65.551 41.8704 65.551 40.8609 65.42C40.5097 65.3763 40.0269 64.7647 39.9391 64.3715C39.8514 63.7598 40.3342 63.4977 40.9925 63.4977C48.7174 63.2793 53.1944 56.8571 50.7803 49.4302C50.5609 48.6875 50.2097 47.9885 49.9025 47.2895C49.6392 46.6341 49.7269 46.1099 50.3853 45.7604C51.0876 45.4546 51.5265 45.8041 51.7898 46.4594C52.8432 48.6438 53.5016 50.9593 53.4577 53.4495Z" fill="#F58B71"/>
<path fill-rule="evenodd" clip-rule="evenodd" d="M53.4577 53.4495C53.4577 59.2163 49.5514 64.153 43.8894 65.3326C42.9238 65.551 41.8704 65.551 40.8609 65.42C40.5097 65.3763 40.0269 64.7647 39.9391 64.3715C39.8514 63.7598 40.3342 63.4977 40.9925 63.4977C48.7174 63.2793 53.1944 56.8571 50.7803 49.4302C50.5609 48.6875 50.2097 47.9885 49.9025 47.2895C49.6392 46.6341 49.7269 46.1099 50.3853 45.7604C51.0876 45.4546 51.5265 45.8041 51.7898 46.4594C52.8432 48.6438 53.5016 50.9593 53.4577 53.4495Z" stroke="#F58B71" stroke-width="0.0135276"/>
<path fill-rule="evenodd" clip-rule="evenodd" d="M49.3308 52.9579C49.243 57.7199 45.2489 61.4771 40.5964 61.0839C39.8942 61.0402 39.4991 60.647 39.4991 60.0354C39.4991 59.4237 39.8942 59.0742 40.5525 59.0742C41.2548 59.0305 42.001 58.9868 42.7032 58.7684C46.1706 57.8946 47.8385 54.618 46.7851 50.9046C46.6534 50.4677 46.4779 50.0745 46.3023 49.6376C46.0828 48.9386 46.2145 48.3707 46.9607 48.0648C47.7068 47.8027 48.058 48.327 48.2335 48.8512C48.6285 50.2056 48.9358 51.6036 49.3308 52.9579Z" fill="#F58B71"/>
<path fill-rule="evenodd" clip-rule="evenodd" d="M49.3308 52.9579C49.243 57.7199 45.2489 61.4771 40.5964 61.0839C39.8942 61.0402 39.4991 60.647 39.4991 60.0354C39.4991 59.4237 39.8942 59.0742 40.5525 59.0742C41.2548 59.0305 42.001 58.9868 42.7032 58.7684C46.1706 57.8946 47.8385 54.618 46.7851 50.9046C46.6534 50.4677 46.4779 50.0745 46.3023 49.6376C46.0828 48.9386 46.2145 48.3707 46.9607 48.0648C47.7068 47.8027 48.058 48.327 48.2335 48.8512C48.6285 50.2056 48.9358 51.6036 49.3308 52.9579Z" stroke="#F58B71" stroke-width="0.0135276"/>
<path fill-rule="evenodd" clip-rule="evenodd" d="M44.6345 53.0839C44.5028 55.2246 42.791 56.8848 40.772 56.8848C40.0258 56.8848 39.543 56.5353 39.4991 55.7926C39.4991 55.0936 39.982 54.8751 40.6403 54.8314C42.3521 54.6567 42.9227 53.6955 42.1326 52.1665C41.8254 51.5111 41.8254 51.0306 42.5277 50.6811C43.186 50.2879 43.7127 50.6374 43.9761 51.249C44.2833 51.817 44.415 52.4723 44.6345 53.0839Z" fill="#F58B71"/>
<path fill-rule="evenodd" clip-rule="evenodd" d="M44.6345 53.0839C44.5028 55.2246 42.791 56.8848 40.772 56.8848C40.0258 56.8848 39.543 56.5353 39.4991 55.7926C39.4991 55.0936 39.982 54.8751 40.6403 54.8314C42.3521 54.6567 42.9227 53.6955 42.1326 52.1665C41.8254 51.5111 41.8254 51.0306 42.5277 50.6811C43.186 50.2879 43.7127 50.6374 43.9761 51.249C44.2833 51.817 44.415 52.4723 44.6345 53.0839Z" stroke="#F58B71" stroke-width="0.0135276"/>
<path fill-rule="evenodd" clip-rule="evenodd" d="M39.2497 90.8308C45.0333 93.0255 51.3583 94.235 57.9846 94.235C66.1922 94.235 73.961 92.3564 80.808 89.0798C72.4248 95.3709 62.0226 99.128 50.7425 99.128C44.324 99.128 38.1896 97.9208 32.556 95.7224L39.2497 90.8308ZM25.1996 82.7365C14.7885 74.2289 8.21186 61.7423 8.21186 47.8383C8.21186 22.2372 30.5086 1.4417 57.9846 1.4417C60.0036 1.4417 62.0226 1.57277 63.9977 1.79121C59.7841 0.611632 55.3072 0 50.7425 0C23.2227 0 0.925903 22.1935 0.925903 49.5859C0.925903 67.0372 10.0047 82.3895 23.7261 91.2157L25.1996 82.7365Z" fill="#F47D5C"/>
<path d="M29.2455 79.6514L22.3107 102.107L40.6572 85.1561L29.2455 79.6514Z" fill="#377044"/>
<path fill-rule="evenodd" clip-rule="evenodd" d="M16.5838 48.6879C16.5838 69.7892 33.7453 86.8712 54.9448 86.8712C67.8949 86.8712 79.3648 80.4703 86.3142 70.6649H91.3499C83.8764 82.8984 70.3558 91.0652 54.9448 91.0652C31.419 91.0652 12.3702 72.1046 12.3702 48.6879C12.3702 25.2711 31.419 6.31055 54.9448 6.31055C71.6436 6.31055 86.1227 15.8992 93.0943 29.8604H88.3226C81.7224 18.2985 69.2348 10.5046 54.9448 10.5046C33.7453 10.5046 16.5838 27.5866 16.5838 48.6879Z" fill="#377044"/>
<path d="M63.4419 38.8127C63.0469 38.8127 62.6518 38.769 62.3007 38.6379C61.9496 38.5505 61.6423 38.3758 61.379 38.1573C61.1156 37.9389 60.8962 37.7205 60.7645 37.4146C60.6328 37.1088 60.5451 36.7593 60.5451 36.3661C60.5451 35.9729 60.5889 35.6234 60.7645 35.3176C60.8962 35.0118 61.0718 34.706 61.379 34.4876C61.6423 34.2254 61.9496 34.0507 62.3446 33.9196C62.7396 33.7885 63.1346 33.7012 63.6613 33.7012H63.793C64.8464 33.7449 65.9437 33.9633 66.9971 34.4439C68.0505 34.9244 69.0161 35.5798 69.85 36.4098C70.6839 37.2836 71.3862 38.2884 71.869 39.4243C72.3957 40.6039 72.6591 41.8708 72.6591 43.2251C72.6591 44.8416 72.264 46.1086 71.474 46.9823C70.6839 47.8998 69.5867 48.3366 68.1383 48.3366C67.436 48.3366 66.8654 48.2056 66.3387 47.9871C65.8559 47.725 65.4609 47.4192 65.1536 47.0697C64.8464 47.4192 64.4514 47.725 63.9686 47.9871C63.4858 48.2056 62.9152 48.3366 62.2568 48.3366C61.6862 48.3366 61.1595 48.2493 60.7206 48.0745C60.2817 47.8998 59.8867 47.6376 59.5794 47.3318C59.2283 47.026 59.0089 46.6765 58.8333 46.2396C58.6577 45.8464 58.5699 45.3659 58.5699 44.8853C58.5699 44.4047 58.6577 43.9242 58.8333 43.531C59.0089 43.0941 59.2722 42.7446 59.5794 42.3951C59.9306 42.0893 60.3256 41.8708 60.7645 41.6961C61.2473 41.5213 61.774 41.4339 62.3446 41.4339C63.4419 41.4339 64.3197 41.6961 64.9342 42.264C65.5487 42.832 65.9437 43.5747 66.1193 44.4484C66.2509 45.06 66.4704 45.4969 66.7776 45.8027C67.1288 46.0649 67.5238 46.2396 68.0505 46.2396C68.7088 46.2396 69.2355 45.9775 69.5867 45.4532C69.8939 44.929 70.0695 44.1863 70.0695 43.2251C70.0695 42.3951 69.9817 41.6524 69.7622 40.9534C69.5867 40.2981 69.3233 39.6427 68.9722 39.0748C68.6211 38.5068 68.226 37.9826 67.7432 37.5457C67.3043 37.1088 66.8215 36.7593 66.2948 36.4535C66.207 37.1525 65.9437 37.6768 65.4609 38.1573C64.9781 38.5942 64.3197 38.8127 63.4419 38.8127ZM60.9401 44.8853C60.9401 45.3222 61.0718 45.7154 61.3351 45.9338C61.5984 46.1959 61.9057 46.327 62.3446 46.327C62.7835 46.327 63.1346 46.1959 63.398 45.9338C63.6613 45.7154 63.793 45.3222 63.793 44.8853C63.793 44.4047 63.6613 44.0552 63.398 43.7931C63.1346 43.531 62.7835 43.3999 62.3446 43.3999C61.9057 43.3999 61.5984 43.531 61.3351 43.7931C61.0718 44.0552 60.9401 44.4047 60.9401 44.8853ZM63.5297 37.2399C63.8369 37.2399 64.0564 37.1525 64.2319 36.9778C64.4075 36.803 64.4953 36.5846 64.4953 36.2788C64.4953 36.0166 64.4075 35.7982 64.2319 35.6234C64.0564 35.4487 63.8369 35.3613 63.5297 35.3613C63.2663 35.3613 63.0469 35.4487 62.8274 35.6234C62.6518 35.7982 62.5641 36.0166 62.5641 36.2788C62.5641 36.5846 62.6518 36.803 62.8274 36.9778C63.0469 37.1525 63.2663 37.2399 63.5297 37.2399Z" fill="#377044"/>
<path d="M89.6723 46.2234C90.4184 46.2234 91.0329 45.9176 91.5157 45.3933C91.9985 44.8254 92.2619 44.039 92.2619 42.9905C92.2619 42.3789 92.1741 41.8109 91.9546 41.3304C91.779 40.8498 91.5157 40.4129 91.2085 40.0634C90.8573 39.7576 90.5062 39.4518 90.1112 39.277C89.7162 39.1023 89.3211 38.9712 88.9261 38.8838C88.9261 38.8402 88.8822 38.7528 88.8822 38.7091C88.8822 38.6217 88.8822 38.578 88.8822 38.5343C88.8822 38.1411 89.0139 37.7916 89.2333 37.5732C89.4528 37.3111 89.8039 37.2237 90.2428 37.2237C90.7257 37.2237 91.2524 37.3111 91.779 37.5732C92.3057 37.8353 92.8324 38.1848 93.2714 38.6654C93.7103 39.1897 94.1053 39.8013 94.4125 40.5003C94.6759 41.243 94.8514 42.0731 94.8514 42.9905C94.8514 43.8206 94.7198 44.5633 94.5003 45.2186C94.2809 45.8739 93.9297 46.3982 93.5347 46.8787C93.0958 47.3156 92.5691 47.6651 91.9985 47.9273C91.384 48.1894 90.7257 48.3204 89.9795 48.3204C88.6189 48.3204 87.5216 47.9709 86.6438 47.3156C86.2926 47.6651 85.8537 47.8836 85.4148 48.0583C84.9759 48.2331 84.4492 48.3204 83.9225 48.3204C83.4397 48.3204 83.0008 48.2331 82.6496 48.1457C82.2546 48.0146 81.9474 47.8836 81.6401 47.6651C81.3329 47.4467 81.0696 47.1846 80.8062 46.8787C80.5429 46.5729 80.3234 46.2234 80.1039 45.8302L79.4895 44.8254C79.1822 44.3448 78.9189 43.9953 78.6994 43.7769C78.4361 43.5585 78.0849 43.4274 77.6899 43.4274C77.3388 43.4274 76.9877 43.5585 76.7682 43.8206C76.5049 44.0827 76.3732 44.4322 76.3732 44.9565C76.3732 45.437 76.5487 45.8739 76.8121 46.2234C77.0754 46.5729 77.4266 46.8351 77.8655 47.0535C77.8216 47.403 77.6899 47.7088 77.4705 47.9273C77.2949 48.1894 76.9877 48.3204 76.5487 48.3204C76.2415 48.3204 75.8904 48.2331 75.5831 48.0583C75.2759 47.8836 75.0126 47.6214 74.7931 47.3156C74.5297 47.0535 74.3542 46.6603 74.2225 46.2671C74.0469 45.8739 74.0031 45.3933 74.0031 44.9565C74.0031 44.3885 74.0908 43.908 74.2664 43.4711C74.442 43.0342 74.7053 42.641 75.0564 42.3352C75.3637 42.0294 75.7587 41.8109 76.1976 41.6362C76.6365 41.5051 77.1193 41.4177 77.646 41.4177C78.5239 41.4177 79.27 41.5925 79.8845 42.0294C80.499 42.4226 81.0257 42.9905 81.5085 43.7769L82.0352 44.6943C82.2985 45.1749 82.5619 45.5681 82.8252 45.8302C83.0886 46.0924 83.3958 46.2234 83.7908 46.2234C84.0103 46.2234 84.1858 46.1797 84.3614 46.0924C84.5809 46.005 84.7125 45.8302 84.8442 45.6555C84.9759 45.437 85.1076 45.1749 85.1953 44.8691C85.2831 44.5633 85.327 44.1701 85.327 43.7332C85.327 43.0779 85.1953 42.4226 84.9759 41.8546C84.7564 41.2867 84.4053 40.8061 83.9225 40.4129C83.4397 39.976 82.8252 39.6702 82.123 39.4518C81.3768 39.2333 80.499 39.1023 79.4456 39.1023C79.2261 39.1023 78.9628 39.0586 78.6994 38.9712C78.4361 38.8838 78.1727 38.7091 77.8655 38.4906C77.5144 38.2722 77.1632 38.0101 76.7682 37.6169C76.3732 37.2674 75.8904 36.8305 75.3637 36.3063C75.3637 35.9567 75.4954 35.6072 75.7148 35.3451C75.9343 35.083 76.2415 34.9519 76.6365 34.9519C76.856 34.9519 77.0754 34.9956 77.251 35.083C77.4705 35.1704 77.6899 35.3451 77.9094 35.5199C78.1288 35.7383 78.3922 35.9567 78.6116 36.2626C78.875 36.5684 79.1822 36.9179 79.5334 37.3111C79.665 37.0926 79.8406 36.7868 80.1039 36.481C80.3673 36.1752 80.6745 35.8257 80.9818 35.4325C81.3329 35.083 81.684 34.6898 82.0352 34.2966C82.4302 33.9034 82.7813 33.5102 83.1325 33.117L83.6153 32.5928C84.0981 32.5928 84.4931 32.7238 84.7564 32.9423C85.0637 33.1607 85.2392 33.4665 85.2392 33.816C85.2392 34.0782 85.1515 34.2966 85.0198 34.515C84.8881 34.7335 84.6686 34.9519 84.4053 35.2577C83.9664 35.6509 83.5714 36.0441 83.1763 36.3936C82.8252 36.7431 82.4741 37.0489 82.1668 37.3548C83.0008 37.4858 83.7908 37.7043 84.4931 38.0538C85.1953 38.3596 85.8098 38.8402 86.2926 39.3644C86.8193 39.9324 87.2143 40.544 87.4777 41.2867C87.741 42.0294 87.9166 42.8594 87.9166 43.7332C87.9166 44.0827 87.8727 44.3885 87.8288 44.6507C87.7849 44.9565 87.741 45.2186 87.6972 45.4807C87.9166 45.6992 88.2238 45.8739 88.575 46.005C88.8822 46.136 89.2772 46.2234 89.6723 46.2234Z" fill="#377044"/>
<path d="M80.7046 57.9593C80.7046 58.6583 80.5729 59.27 80.3096 59.8816C80.0462 60.4495 79.6951 60.9738 79.3001 61.4107C79.4756 61.7165 79.6073 62.0223 79.6951 62.2844C79.7829 62.5466 79.8268 62.8087 79.8268 62.9834C79.8268 63.5077 79.6073 63.7698 79.1245 63.7698C78.9928 63.7698 78.9051 63.7698 78.7734 63.7698C78.6856 63.7261 78.5978 63.6825 78.51 63.6825C78.51 63.2456 78.4223 62.8087 78.2906 62.3281C77.8956 62.5466 77.5444 62.7213 77.1055 62.8524C76.7105 62.9834 76.2277 63.0708 75.7449 63.0708C75.3499 63.0708 74.9549 63.0271 74.6476 62.9398C74.3404 62.8087 74.0332 62.6776 73.8137 62.5029C73.5942 62.3281 73.4187 62.1097 73.287 61.8476C73.1553 61.5854 73.1114 61.3233 73.1114 61.0175C73.1114 60.668 73.1553 60.4059 73.287 60.1437C73.4187 59.9253 73.5942 59.7068 73.8137 59.5321C74.0332 59.3573 74.2965 59.2263 74.6037 59.1389C74.8671 59.0515 75.2182 59.0078 75.5693 59.0078C76.2277 59.0078 76.7983 59.1389 77.2811 59.401C77.7639 59.6632 78.1589 59.969 78.4661 60.3185C78.949 59.6632 79.2123 58.8768 79.2123 57.9593C79.2123 57.4788 79.0806 57.0856 78.8173 56.7797C78.5978 56.4739 78.2467 56.2992 77.8078 56.2992C77.4567 56.2992 77.1494 56.4302 76.93 56.6487C76.7105 56.8671 76.5788 57.1729 76.5788 57.5224V58.003C76.4033 58.1341 76.1838 58.1778 75.8766 58.1778C75.5693 58.1778 75.3499 58.1341 75.1743 58.003V57.5224C75.1743 57.1729 75.0427 56.8671 74.8232 56.6487C74.5599 56.4302 74.2526 56.2992 73.9015 56.2992C73.4626 56.2992 73.1553 56.4302 72.9359 56.6924C72.7603 56.9108 72.6286 57.2166 72.6286 57.5224C72.6286 57.6972 72.6725 57.8719 72.7164 58.0467C72.8042 58.1778 72.8481 58.3088 72.9359 58.3962C72.892 58.5273 72.7603 58.6146 72.6725 58.702C72.5409 58.7894 72.3653 58.8331 72.1897 58.8331C71.9264 58.8331 71.663 58.702 71.4436 58.4836C71.2241 58.2215 71.1364 57.8283 71.1364 57.3477C71.1364 56.9982 71.2241 56.6924 71.3558 56.3866C71.4875 56.1244 71.663 55.8623 71.8825 55.6875C72.102 55.4691 72.4092 55.338 72.7164 55.207C73.0237 55.1196 73.3748 55.0322 73.7259 55.0322C74.2087 55.0322 74.6476 55.1196 74.9988 55.338C75.3499 55.5128 75.6571 55.7749 75.8766 56.1244C76.0521 55.7749 76.3594 55.5128 76.7105 55.338C77.0616 55.1196 77.4567 55.0322 77.9395 55.0322C78.3784 55.0322 78.7734 55.1196 79.1245 55.2507C79.4756 55.4254 79.7829 55.6439 80.0023 55.906C80.2218 56.1244 80.3974 56.4302 80.529 56.8234C80.6607 57.1729 80.7046 57.5661 80.7046 57.9593ZM75.8327 61.8476C76.1838 61.8476 76.5349 61.8039 76.8422 61.6728C77.1494 61.5417 77.4567 61.367 77.6761 61.1922C77.4567 60.9301 77.1933 60.668 76.8422 60.4932C76.5349 60.2748 76.1399 60.1874 75.701 60.1874C75.3499 60.1874 75.0865 60.2748 74.8671 60.4059C74.6915 60.5806 74.5599 60.799 74.5599 61.0175C74.5599 61.2796 74.6915 61.4981 74.911 61.6291C75.1304 61.8039 75.4377 61.8476 75.8327 61.8476Z" fill="#373435"/>
<path d="M84.3094 59.4613C83.9583 59.4613 83.695 59.5924 83.5194 59.8108C83.2999 60.0292 83.2122 60.3351 83.2122 60.6846C83.2122 61.1214 83.2999 61.4273 83.5194 61.6894C83.7388 61.9515 84.0022 62.1263 84.3533 62.2573C84.3533 62.4758 84.2655 62.6942 84.1339 62.8253C84.0461 63 83.8266 63.0874 83.5633 63.0874C83.3438 63.0874 83.1244 63.0437 82.9049 62.9127C82.6855 62.7816 82.5099 62.6068 82.3343 62.4321C82.1588 62.2136 82.0271 61.9515 81.8954 61.6457C81.8076 61.3836 81.7198 61.0341 81.7198 60.6846C81.7198 60.2914 81.8076 59.9419 81.9393 59.6361C82.071 59.3302 82.2465 59.1118 82.5099 58.8934C82.7293 58.6749 82.9927 58.5002 83.2999 58.4128C83.6072 58.2817 83.9583 58.238 84.2655 58.238C84.9239 58.238 85.4506 58.3691 85.8895 58.6749C86.2845 58.9807 86.6796 59.4176 86.9868 59.9856L87.294 60.5098C87.5135 60.9467 87.733 61.2525 87.9524 61.4709C88.1719 61.6894 88.4352 61.8205 88.7863 61.8205C89.1814 61.8205 89.4886 61.602 89.752 61.2525C90.0153 60.8593 90.147 60.2477 90.147 59.4176C90.147 58.806 90.0592 58.238 89.8836 57.6701C89.752 57.1458 89.5325 56.6653 89.2253 56.2284C88.9619 55.7915 88.6547 55.3983 88.2596 55.0925C87.9085 54.743 87.5135 54.4809 87.0746 54.2624C87.0746 54.4809 87.0307 54.743 86.9868 54.9614C86.899 55.1799 86.7673 55.3983 86.5918 55.5731C86.4162 55.7478 86.2406 55.8789 85.9773 55.9663C85.714 56.0536 85.4506 56.0973 85.0995 56.0973C84.8361 56.0973 84.5728 56.0536 84.3094 56.0099C84.09 55.9226 83.8705 55.7915 83.695 55.6604C83.5194 55.4857 83.3438 55.3109 83.256 55.0925C83.1683 54.8741 83.1244 54.6556 83.1244 54.3935C83.1244 53.8692 83.2999 53.4324 83.6511 53.0828C84.0461 52.7333 84.5728 52.5586 85.275 52.5586H85.3628C85.8017 52.5586 86.2845 52.646 86.7673 52.777C87.294 52.9518 87.7768 53.1702 88.2158 53.4324C88.6986 53.6945 89.1375 54.044 89.5764 54.4372C89.9714 54.8304 90.3225 55.2672 90.6737 55.7915C90.9809 56.3158 91.2004 56.84 91.4198 57.4517C91.5954 58.0633 91.6832 58.7186 91.6832 59.4176C91.6832 60.0729 91.5954 60.6409 91.4637 61.0778C91.2881 61.5583 91.1126 61.9515 90.8492 62.2136C90.5859 62.5195 90.2786 62.7379 89.9714 62.869C89.6203 63 89.2691 63.0874 88.8741 63.0874C88.523 63.0874 88.2158 63.0437 87.9524 62.9563C87.6452 62.869 87.4257 62.7379 87.2063 62.6068C86.9868 62.4321 86.8112 62.2136 86.5918 61.9952C86.4162 61.7331 86.2406 61.4709 86.0651 61.1651L85.714 60.5535C85.5384 60.204 85.3189 59.9419 85.0995 59.7671C84.9239 59.5487 84.6606 59.4613 84.3094 59.4613ZM85.1434 55.0925C85.4067 55.0925 85.5823 55.0488 85.714 54.9177C85.8456 54.743 85.9334 54.5682 85.9334 54.3498C85.9334 54.1314 85.8456 53.9129 85.714 53.7819C85.5823 53.6508 85.4067 53.6071 85.1434 53.6071C84.9239 53.6071 84.7483 53.6508 84.5728 53.7819C84.4411 53.9566 84.3972 54.1314 84.3972 54.3498C84.3972 54.5682 84.4411 54.743 84.5728 54.9177C84.7483 55.0488 84.9239 55.0925 85.1434 55.0925Z" fill="#373435"/>
<path d="M88.1278 68.883C87.8205 68.883 87.5133 68.8393 87.2938 68.752C87.0305 68.6209 86.8549 68.4898 86.6794 68.2714C86.5477 68.4898 86.3721 68.6209 86.1527 68.752C85.9332 68.8393 85.6698 68.883 85.3626 68.883C84.792 68.883 84.3531 68.752 84.002 68.4025C83.6947 68.053 83.5192 67.5724 83.5192 66.9171C83.5192 66.4802 83.6069 66.0433 83.7825 65.6938C83.9142 65.3443 84.1775 65.0385 84.4848 64.7764C84.792 64.5142 85.1431 64.2958 85.5382 64.1647C85.9332 63.99 86.3721 63.9463 86.8549 63.9463C87.206 63.9463 87.5572 63.99 87.8205 64.0337C88.0839 64.121 88.3472 64.2084 88.5667 64.2958C88.7423 64.3832 88.9178 64.5142 89.0056 64.6453C89.1373 64.7764 89.1812 64.9074 89.1812 64.9948C89.1812 65.1259 89.1373 65.2132 89.0934 65.3006C89.0056 65.388 88.9178 65.4754 88.7861 65.5191C88.6106 65.3443 88.3472 65.2132 88.04 65.0822C87.6889 64.9511 87.3377 64.8637 86.8988 64.8637C86.5916 64.8637 86.3282 64.9074 86.0649 65.0385C85.7576 65.1259 85.5382 65.2569 85.3187 65.4317C85.1431 65.6064 84.9676 65.7812 84.8359 66.0433C84.7042 66.3054 84.6603 66.6113 84.6603 66.9608C84.6603 67.2666 84.7042 67.5287 84.8359 67.7035C85.0115 67.9219 85.187 68.0093 85.4504 68.0093C85.6698 68.0093 85.8015 67.9219 85.9332 67.8345C86.0649 67.7035 86.1527 67.5287 86.1527 67.354V66.9608C86.1965 66.9171 86.2843 66.9171 86.3721 66.8734C86.4599 66.8297 86.5916 66.8297 86.6794 66.8297C86.811 66.8297 86.8988 66.8297 86.9866 66.8734C87.0744 66.9171 87.1622 66.9171 87.2499 66.9608V67.2229C87.2499 67.4413 87.2938 67.6598 87.4694 67.7908C87.6011 67.9219 87.8205 68.0093 88.04 68.0093C88.2594 68.0093 88.435 67.9219 88.5667 67.8345C88.6984 67.7471 88.7423 67.6161 88.7423 67.4413C88.7423 67.3103 88.6984 67.1792 88.6106 67.0918C88.5228 67.0481 88.435 67.0044 88.3033 67.0044C88.1717 67.0044 88.0839 67.0044 87.9961 67.0481C87.8644 66.9608 87.8205 66.8297 87.8205 66.6549C87.8205 66.4802 87.8644 66.3491 87.9522 66.2618C88.0839 66.1744 88.2594 66.1307 88.4789 66.1307C88.8739 66.1307 89.1812 66.2181 89.4445 66.4802C89.7079 66.7423 89.8395 67.0481 89.8395 67.4413C89.8395 67.7035 89.7956 67.8782 89.664 68.0966C89.5762 68.2714 89.4445 68.4025 89.3128 68.5335C89.1373 68.6646 88.9617 68.752 88.7861 68.7957C88.5667 68.883 88.3472 68.883 88.1278 68.883Z" fill="#373435"/>
<path d="M109.411 56.2069C109.806 56.5564 110.113 56.9496 110.377 57.4738C110.596 57.9544 110.728 58.566 110.728 59.265C110.728 59.833 110.64 60.3572 110.508 60.8378C110.333 61.3184 110.113 61.7116 109.806 62.0611C109.499 62.3669 109.148 62.629 108.709 62.8475C108.314 63.0222 107.831 63.1096 107.304 63.1096C106.778 63.1096 106.295 63.0222 105.9 62.8911C105.461 62.7164 105.066 62.498 104.759 62.2358C104.495 62.498 104.144 62.7164 103.749 62.8911C103.354 63.0222 102.915 63.1096 102.432 63.1096C101.335 63.1096 100.413 62.7601 99.755 62.0611C99.4039 62.4106 99.0088 62.629 98.5699 62.8475C98.0871 63.0222 97.5604 63.1096 96.9898 63.1096C96.3754 63.1096 95.8048 62.9785 95.322 62.8038C94.7953 62.5853 94.4002 62.2795 94.0491 61.93C93.698 61.5368 93.4346 61.1436 93.2591 60.6194C93.0835 60.1388 92.9957 59.6146 92.9957 59.0903C92.9957 58.5224 93.0835 57.9981 93.2591 57.5175C93.4785 57.037 93.7419 56.6001 94.093 56.2069C94.4002 55.8574 94.8392 55.5953 95.322 55.3768C95.8048 55.1584 96.3754 55.0273 96.9898 55.0273C97.6043 55.0273 98.131 55.1584 98.6577 55.3331C99.1405 55.5516 99.5355 55.8574 99.8867 56.2069C100.238 56.6001 100.501 56.9933 100.677 57.5175C100.852 57.9981 100.94 58.5224 100.94 59.0903C100.94 59.7893 100.808 60.4446 100.501 61.0126C100.721 61.2747 100.984 61.4494 101.247 61.6242C101.555 61.7553 101.906 61.8426 102.257 61.8426C102.871 61.8426 103.354 61.5805 103.749 61.1436C104.144 60.7068 104.364 60.0951 104.364 59.265C104.364 58.7845 104.276 58.3913 104.144 58.0418C104.012 57.6923 103.837 57.3865 103.661 57.1243C103.442 56.8622 103.178 56.6875 102.915 56.5127C102.696 56.338 102.432 56.2069 102.169 56.1195C101.906 56.0321 101.642 55.8137 101.291 55.5079C100.984 55.2021 100.501 54.7652 99.8867 54.1972C99.8867 53.9351 99.9744 53.7167 100.106 53.5856C100.282 53.4109 100.457 53.3235 100.677 53.3235C100.808 53.3235 100.94 53.3672 101.072 53.4109C101.203 53.4982 101.335 53.5856 101.467 53.7167C101.598 53.8477 101.774 54.0225 101.95 54.2846C102.125 54.5031 102.345 54.7652 102.608 55.071C102.783 54.6778 103.091 54.2409 103.53 53.7604C103.925 53.2798 104.364 52.7555 104.846 52.1439L105.154 51.707C105.461 51.707 105.724 51.7944 105.9 51.9255C106.075 52.0565 106.163 52.2313 106.163 52.4497C106.163 52.5808 106.119 52.7555 106.031 52.9303C105.944 53.0614 105.812 53.2361 105.68 53.4109C105.241 53.9351 104.846 54.3283 104.495 54.6778C104.188 55.0273 103.925 55.2894 103.661 55.4642C103.925 55.5953 104.188 55.77 104.495 55.9885C104.759 56.2069 104.978 56.469 105.197 56.7748C105.373 57.1243 105.549 57.4738 105.68 57.9107C105.812 58.3039 105.9 58.7845 105.9 59.265C105.9 59.9641 105.768 60.6194 105.505 61.1873C105.724 61.4058 105.944 61.5368 106.207 61.6679C106.47 61.7553 106.778 61.8426 107.085 61.8426C107.699 61.8426 108.226 61.5805 108.621 61.1436C108.972 60.7068 109.192 60.0951 109.192 59.265C109.192 58.7845 109.104 58.3476 108.972 57.9544C108.797 57.5612 108.621 57.2554 108.358 56.9933C108.138 56.7311 107.831 56.5127 107.524 56.3816C107.216 56.2069 106.909 56.1195 106.602 56.0758C106.602 56.0321 106.602 55.9885 106.602 55.9448C106.602 55.9011 106.602 55.8574 106.602 55.8137C106.602 55.5953 106.646 55.4205 106.778 55.2458C106.909 55.1147 107.129 55.0273 107.436 55.0273H112.922C113.493 55.0273 113.976 55.1147 114.415 55.2894C114.854 55.4642 115.249 55.6826 115.556 55.9885C115.819 56.2943 116.083 56.6875 116.214 57.0807C116.346 57.5175 116.434 57.9981 116.434 58.4787C116.434 59.3087 116.214 59.9641 115.819 60.3572C115.38 60.7941 114.81 60.9689 114.151 60.9689C113.844 60.9689 113.537 60.9252 113.273 60.8378C113.01 60.7504 112.791 60.6194 112.571 60.4446C112.396 60.2699 112.264 60.0514 112.132 59.7893C112.045 59.5272 111.957 59.265 111.957 58.9592C111.957 58.6971 112.001 58.435 112.132 58.1728C112.22 57.9544 112.352 57.736 112.527 57.5612C112.703 57.4302 112.878 57.2991 113.098 57.2117C113.361 57.0807 113.581 57.037 113.844 57.037C114.107 57.037 114.327 57.0807 114.546 57.168C114.722 57.2991 114.897 57.3865 114.985 57.5175C114.678 56.6438 113.976 56.2069 112.835 56.2069H109.411ZM99.4039 59.0903C99.4039 58.6534 99.36 58.2602 99.2283 57.9107C99.0966 57.5612 98.921 57.2554 98.7016 57.037C98.4821 56.7748 98.2188 56.6001 97.9115 56.469C97.6482 56.338 97.341 56.2943 96.9898 56.2943C96.6387 56.2943 96.2876 56.338 96.0242 56.469C95.717 56.6001 95.4536 56.7748 95.2342 57.037C95.0147 57.2991 94.8392 57.5612 94.7075 57.9107C94.6197 58.2602 94.5319 58.6534 94.5319 59.0903C94.5319 59.5272 94.6197 59.9204 94.7075 60.2699C94.8392 60.6194 95.0147 60.9252 95.2342 61.1436C95.4536 61.3621 95.717 61.5805 96.0242 61.6679C96.2876 61.7989 96.6387 61.8426 96.9898 61.8426C97.341 61.8426 97.6482 61.7989 97.9554 61.6679C98.2627 61.5805 98.526 61.3621 98.7455 61.1436C98.9649 60.9252 99.0966 60.6194 99.2283 60.2699C99.36 59.9204 99.4039 59.5272 99.4039 59.0903ZM113.317 58.9592C113.317 59.2214 113.405 59.4398 113.581 59.5709C113.756 59.7456 113.976 59.7893 114.195 59.7893C114.415 59.7893 114.634 59.7456 114.81 59.5709C114.985 59.4398 115.073 59.2214 115.073 58.9592C115.073 58.6534 114.985 58.435 114.81 58.3039C114.634 58.1292 114.415 58.0418 114.195 58.0418C113.976 58.0418 113.756 58.1292 113.581 58.3039C113.405 58.435 113.317 58.6534 113.317 58.9592Z" fill="#373435"/>
</svg>
