<svg width="20" height="18" viewBox="0 0 20 18" fill="none" xmlns="http://www.w3.org/2000/svg">
<path d="M19.9189 2.87421C19.1866 3.19145 18.3898 3.41976 17.5691 3.50869C18.4212 3.00023 19.0593 2.19695 19.3637 1.24957C18.5641 1.72732 17.6881 2.06233 16.7746 2.23973C16.3928 1.82979 15.9311 1.50321 15.4181 1.28035C14.9052 1.05748 14.352 0.943106 13.7931 0.944346C11.5319 0.944346 9.71328 2.78529 9.71328 5.0444C9.71328 5.36164 9.75157 5.67888 9.81378 5.9841C6.42788 5.80626 3.40808 4.18161 1.40046 1.69418C1.03465 2.32172 0.842956 3.03626 0.845316 3.76344C0.845316 5.1862 1.56557 6.44073 2.66389 7.17855C2.01663 7.15295 1.38453 6.97426 0.818995 6.65703V6.7075C0.818995 8.69985 2.22121 10.3509 4.09004 10.7307C3.73915 10.8222 3.37818 10.869 3.01565 10.87C2.75004 10.87 2.49879 10.8436 2.24514 10.8076C2.762 12.4322 4.26712 13.6122 6.05937 13.6507C4.65715 14.7538 2.90079 15.4027 0.993674 15.4027C0.651494 15.4027 0.335635 15.3907 0.0078125 15.3522C1.81682 16.5178 3.96322 17.1908 6.27473 17.1908C13.7788 17.1908 17.8849 10.9469 17.8849 5.52747C17.8849 5.34963 17.8849 5.17178 17.873 4.99393C18.6674 4.40993 19.3637 3.68653 19.9189 2.87421Z" fill="#142745"/>
</svg>
