<svg width="21" height="18" viewBox="0 0 21 18" fill="none" xmlns="http://www.w3.org/2000/svg">
    <path d="M20.6874 2.87421C19.952 3.19145 19.1517 3.41976 18.3274 3.50869C19.1832 3.00023 19.8242 2.19695 20.1299 1.24957C19.3268 1.72732 18.447 2.06233 17.5295 2.23973C17.146 1.82979 16.6823 1.50321 16.1671 1.28035C15.6519 1.05748 15.0963 0.943106 14.535 0.944346C12.2638 0.944346 10.4373 2.78529 10.4373 5.0444C10.4373 5.36164 10.4758 5.67888 10.5382 5.9841C7.13755 5.80626 4.10457 4.18161 2.08818 1.69418C1.72078 2.32172 1.52824 3.03626 1.53061 3.76344C1.53061 5.1862 2.25401 6.44073 3.35713 7.17855C2.70705 7.15295 2.07218 6.97426 1.50418 6.65703V6.7075C1.50418 8.69985 2.91252 10.3509 4.78951 10.7307C4.43709 10.8222 4.07454 10.869 3.71042 10.87C3.44365 10.87 3.19131 10.8436 2.93655 10.8076C3.45567 12.4322 4.96736 13.6122 6.76744 13.6507C5.3591 14.7538 3.59506 15.4027 1.67962 15.4027C1.33595 15.4027 1.01871 15.3907 0.689453 15.3522C2.50636 16.5178 4.66214 17.1908 6.98374 17.1908C14.5205 17.1908 18.6446 10.9469 18.6446 5.52747C18.6446 5.34963 18.6446 5.17178 18.6326 4.99393C19.4305 4.40993 20.1299 3.68653 20.6874 2.87421Z" fill="#007BFF"/>
</svg>