<svg width="26" height="24" viewBox="0 0 26 24" fill="none" xmlns="http://www.w3.org/2000/svg">
<g clip-path="url(#clip0)">
<path d="M26.2461 6.39421C25.3635 6.77493 24.403 7.04893 23.4137 7.15565C24.4409 6.54544 25.21 5.58142 25.5769 4.44444C24.6131 5.0178 23.5572 5.41985 22.4562 5.63276C21.996 5.14078 21.4394 4.74884 20.8211 4.48138C20.2028 4.21391 19.536 4.07665 18.8624 4.07814C16.1367 4.07814 13.9447 6.28749 13.9447 8.9987C13.9447 9.37942 13.9908 9.76015 14.0658 10.1264C9.98459 9.91301 6.34464 7.96325 3.92474 4.97803C3.48381 5.73116 3.25274 6.58868 3.25559 7.46138C3.25559 9.16887 4.12375 10.6745 5.44763 11.5599C4.66745 11.5292 3.90554 11.3148 3.22386 10.934V10.9946C3.22386 13.3857 4.91404 15.3672 7.16666 15.8229C6.7437 15.9327 6.30861 15.9889 5.87162 15.9902C5.55147 15.9902 5.24862 15.9584 4.94288 15.9152C5.56589 17.8649 7.38009 19.2811 9.54041 19.3273C7.85023 20.6511 5.73317 21.4299 3.43441 21.4299C3.02196 21.4299 2.64124 21.4155 2.24609 21.3693C4.4266 22.7682 7.01379 23.5758 9.79999 23.5758C18.8451 23.5758 23.7945 16.0825 23.7945 9.57844C23.7945 9.365 23.7945 9.15157 23.78 8.93813C24.7376 8.23725 25.5769 7.36909 26.2461 6.39421Z" fill="#0F2749"/>
</g>
<defs>
<clipPath id="clip0">
<rect width="26" height="24" fill="white"/>
</clipPath>
</defs>
</svg>
