<svg width="24" height="24" viewBox="0 0 24 24" fill="none" xmlns="http://www.w3.org/2000/svg">
<path d="M12.2 5.6C11.3513 5.6 10.5374 5.93714 9.93726 6.53726C9.33714 7.13737 9 7.95131 9 8.8C9 9.64869 9.33714 10.4626 9.93726 11.0627C10.5374 11.6629 11.3513 12 12.2 12C13.0487 12 13.8626 11.6629 14.4627 11.0627C15.0629 10.4626 15.4 9.64869 15.4 8.8C15.4 7.95131 15.0629 7.13737 14.4627 6.53726C13.8626 5.93714 13.0487 5.6 12.2 5.6ZM7.4 8.8C7.4 7.52696 7.90571 6.30606 8.80589 5.40589C9.70606 4.50571 10.927 4 12.2 4C13.473 4 14.6939 4.50571 15.5941 5.40589C16.4943 6.30606 17 7.52696 17 8.8C17 10.073 16.4943 11.2939 15.5941 12.1941C14.6939 13.0943 13.473 13.6 12.2 13.6C10.927 13.6 9.70606 13.0943 8.80589 12.1941C7.90571 11.2939 7.4 10.073 7.4 8.8ZM9 16.8C8.36348 16.8 7.75303 17.0529 7.30294 17.5029C6.85286 17.953 6.6 18.5635 6.6 19.2C6.6 19.4122 6.51571 19.6157 6.36569 19.7657C6.21566 19.9157 6.01217 20 5.8 20C5.58783 20 5.38434 19.9157 5.23431 19.7657C5.08429 19.6157 5 19.4122 5 19.2C5 18.1391 5.42143 17.1217 6.17157 16.3716C6.92172 15.6214 7.93913 15.2 9 15.2H15.4C16.4609 15.2 17.4783 15.6214 18.2284 16.3716C18.9786 17.1217 19.4 18.1391 19.4 19.2C19.4 19.4122 19.3157 19.6157 19.1657 19.7657C19.0157 19.9157 18.8122 20 18.6 20C18.3878 20 18.1843 19.9157 18.0343 19.7657C17.8843 19.6157 17.8 19.4122 17.8 19.2C17.8 18.5635 17.5471 17.953 17.0971 17.5029C16.647 17.0529 16.0365 16.8 15.4 16.8H9Z" fill="#111111"/>
</svg>
