<svg width="21" height="20" viewBox="0 0 21 20" fill="none" xmlns="http://www.w3.org/2000/svg">
    <path d="M19.4927 4.61265C16.5012 0.000824387 10.3936 -1.37026 5.65717 1.49655C1.04534 4.36336 -0.450384 10.5956 2.54107 15.2074L2.79036 15.5813L1.79321 19.3206L5.53253 18.3235L5.90646 18.5728C7.52683 19.4453 9.27185 19.9439 11.0169 19.9439C12.8865 19.9439 14.7562 19.4453 16.3766 18.4481C20.9884 15.4567 22.3595 9.34912 19.4927 4.61265ZM16.8751 14.2102C16.3766 14.9581 15.7533 15.4567 14.8808 15.5813C14.3823 15.5813 13.759 15.8306 11.2662 14.8335C9.1472 13.8363 7.40219 12.2159 6.15575 10.3463C5.40788 9.47377 5.03395 8.35197 4.90931 7.23018C4.90931 6.23302 5.28324 5.36052 5.90646 4.7373C6.15575 4.48801 6.40504 4.36336 6.65432 4.36336H7.27754C7.52683 4.36336 7.77612 4.36336 7.90076 4.86194C8.15005 5.48516 8.77327 6.98089 8.77327 7.10553C8.89792 7.23017 8.89792 7.47946 8.77327 7.60411C8.89792 7.85339 8.77327 8.10268 8.64863 8.22733C8.52398 8.35197 8.39934 8.60126 8.2747 8.7259C8.02541 8.85055 7.90076 9.09983 8.02541 9.34912C8.52398 10.097 9.1472 10.8448 9.77042 11.4681C10.5183 12.0913 11.2662 12.5899 12.1387 12.9638C12.3879 13.0884 12.6372 13.0884 12.7619 12.8392C12.8865 12.5899 13.5097 11.9666 13.759 11.7174C14.0083 11.4681 14.133 11.4681 14.3823 11.5927L16.3766 12.5899C16.6258 12.7145 16.8751 12.8392 16.9998 12.9638C17.1244 13.3377 17.1244 13.8363 16.8751 14.2102Z" fill="#007BFF"/>
</svg>