<svg width="21" height="20" viewBox="0 0 21 20" fill="none" xmlns="http://www.w3.org/2000/svg">
<path d="M18.5685 4.61265C15.59 0.000824387 9.50901 -1.37026 4.79313 1.49655C0.201354 4.36336 -1.28787 10.5956 1.69058 15.2074L1.93878 15.5813L0.945966 19.3206L4.66903 18.3235L5.04134 18.5728C6.65466 19.4453 8.39209 19.9439 10.1295 19.9439C11.9911 19.9439 13.8526 19.4453 15.4659 18.4481C20.0577 15.4567 21.4228 9.34912 18.5685 4.61265ZM15.9623 14.2102C15.4659 14.9581 14.8454 15.4567 13.9767 15.5813C13.4803 15.5813 12.8598 15.8306 10.3777 14.8335C8.26799 13.8363 6.53056 12.2159 5.28954 10.3463C4.54493 9.47377 4.17262 8.35197 4.04852 7.23018C4.04852 6.23302 4.42082 5.36052 5.04134 4.7373C5.28954 4.48801 5.53774 4.36336 5.78595 4.36336H6.40646C6.65466 4.36336 6.90287 4.36336 7.02697 4.86194C7.27517 5.48516 7.89568 6.98089 7.89568 7.10553C8.01978 7.23017 8.01978 7.47946 7.89568 7.60411C8.01978 7.85339 7.89568 8.10268 7.77158 8.22733C7.64748 8.35197 7.52338 8.60126 7.39927 8.7259C7.15107 8.85055 7.02697 9.09983 7.15107 9.34912C7.64748 10.097 8.26799 10.8448 8.8885 11.4681C9.63311 12.0913 10.3777 12.5899 11.2464 12.9638C11.4946 13.0884 11.7428 13.0884 11.8669 12.8392C11.9911 12.5899 12.6116 11.9666 12.8598 11.7174C13.108 11.4681 13.2321 11.4681 13.4803 11.5927L15.4659 12.5899C15.7141 12.7145 15.9623 12.8392 16.0864 12.9638C16.2105 13.3377 16.2105 13.8363 15.9623 14.2102Z" fill="#142745"/>
</svg>
