<svg width="27" height="27" viewBox="0 0 27 27" fill="none" xmlns="http://www.w3.org/2000/svg">
<path d="M24.5528 7.933C20.9627 2.39825 13.6329 0.75279 7.94854 4.19331C2.41379 7.63383 0.61874 15.1132 4.20885 20.648L4.50802 21.0967L3.31132 25.5844L7.79895 24.3877L8.24772 24.6868C10.1924 25.7339 12.2866 26.3323 14.3808 26.3323C16.6246 26.3323 18.8685 25.7339 20.8131 24.5372C26.3478 20.9471 27.9933 13.6173 24.5528 7.933ZM21.4114 19.4513C20.8131 20.3488 20.0652 20.9471 19.018 21.0967C18.4197 21.0967 17.6717 21.3959 14.68 20.1992C12.137 19.0025 10.0428 17.0579 8.54689 14.814C7.64937 13.7669 7.2006 12.4206 7.05102 11.0743C7.05102 9.87764 7.49978 8.83053 8.24772 8.08259C8.54689 7.78341 8.84607 7.63383 9.14525 7.63383H9.89318C10.1924 7.63383 10.4915 7.63383 10.6411 8.23218C10.9403 8.98012 11.6882 10.7752 11.6882 10.9248C11.8378 11.0743 11.8378 11.3735 11.6882 11.5231C11.8378 11.8223 11.6882 12.1215 11.5387 12.271C11.3891 12.4206 11.2395 12.7198 11.0899 12.8694C10.7907 13.019 10.6411 13.3182 10.7907 13.6173C11.3891 14.5149 12.137 15.4124 12.8849 16.1603C13.7825 16.9083 14.68 17.5066 15.7271 17.9554C16.0263 18.105 16.3255 18.105 16.475 17.8058C16.6246 17.5066 17.3726 16.7587 17.6718 16.4595C17.9709 16.1603 18.1205 16.1603 18.4197 16.3099L20.8131 17.5066C21.1123 17.6562 21.4114 17.8058 21.561 17.9554C21.7106 18.4041 21.7106 19.0025 21.4114 19.4513Z" fill="#0F2749"/>
</svg>
