<svg width="101" height="103" viewBox="0 0 101 103" fill="none" xmlns="http://www.w3.org/2000/svg">
<path fill-rule="evenodd" clip-rule="evenodd" d="M38.3863 91.6263C44.166 93.8254 50.4851 95.037 57.1045 95.037C65.3187 95.037 73.0935 93.1482 79.946 89.8538C71.5561 96.1791 61.1457 99.9567 49.8568 99.9567C43.445 99.9567 37.3166 98.7474 31.687 96.5448L38.3863 91.6263ZM24.3322 83.5075C13.8906 74.9529 7.29266 62.3847 7.29266 48.3878C7.29266 22.6473 29.607 1.73861 57.1045 1.73861C59.1251 1.73861 61.1457 1.87039 63.1224 2.09002C58.9055 0.904024 54.4251 0.289062 49.8568 0.289062C22.3153 0.289062 0.000976562 22.6034 0.000976562 50.1449C0.000976562 67.708 9.10431 83.1566 22.8586 92.0268L24.3322 83.5075Z" fill="#F47D5C"/>
<path d="M28.3456 80.376L21.4053 102.954L39.7663 85.9106L28.3456 80.376Z" fill="#377044"/>
<path fill-rule="evenodd" clip-rule="evenodd" d="M15.7159 49.2047C15.7159 70.4209 32.8909 87.5959 54.1071 87.5959C67.75 87.5959 79.7515 80.4644 86.562 69.7155H91.4256C84.1846 82.8906 70.184 91.8128 54.1071 91.8128C30.5628 91.8128 11.499 72.749 11.499 49.2047C11.499 25.6605 30.5628 6.59668 54.1071 6.59668C70.182 6.59668 84.181 15.5165 91.4227 28.6888H86.5588C79.7477 17.9428 67.7479 10.8136 54.1071 10.8136C32.8909 10.8136 15.7159 27.9886 15.7159 49.2047Z" fill="#377044"/>
<path fill-rule="evenodd" clip-rule="evenodd" d="M35.3199 60.6393C32.9479 60.6393 30.6638 60.6832 28.3357 60.5954C26.7104 60.5514 25.5684 59.3215 25.5684 57.6523C25.5684 50.5364 25.5684 43.4204 25.5684 36.3483C25.5684 34.6791 26.8422 33.4492 28.4675 33.4492C34.1778 33.4492 39.8882 33.4492 45.5985 33.4492C47.1359 33.4492 48.4098 34.5474 48.4537 36.0408C48.4976 39.8185 48.4537 43.5961 48.4537 47.4176C47.5752 46.9344 46.6967 46.5391 45.8182 46.0559C45.6864 45.9681 45.6425 45.5727 45.6425 45.3092C45.6425 42.5858 45.6425 39.8624 45.6425 37.139V36.3044H28.5114V57.7402C30.0927 57.7402 31.674 57.7402 33.2554 57.7402C33.6946 57.7402 33.9582 57.828 34.1339 58.3112C34.4853 59.058 34.8806 59.7608 35.3199 60.6393Z" fill="#F58B71"/>
<path fill-rule="evenodd" clip-rule="evenodd" d="M35.3199 60.6393C32.9479 60.6393 30.6638 60.6832 28.3357 60.5954C26.7104 60.5514 25.5684 59.3215 25.5684 57.6523C25.5684 50.5364 25.5684 43.4204 25.5684 36.3483C25.5684 34.6791 26.8422 33.4492 28.4675 33.4492C34.1778 33.4492 39.8882 33.4492 45.5985 33.4492C47.1359 33.4492 48.4098 34.5474 48.4537 36.0408C48.4976 39.8185 48.4537 43.5961 48.4537 47.4176C47.5752 46.9344 46.6967 46.5391 45.8182 46.0559C45.6864 45.9681 45.6425 45.5727 45.6425 45.3092C45.6425 42.5858 45.6425 39.8624 45.6425 37.139V36.3044H28.5114V57.7402C30.0927 57.7402 31.674 57.7402 33.2554 57.7402C33.6946 57.7402 33.9582 57.828 34.1339 58.3112C34.4853 59.058 34.8806 59.7608 35.3199 60.6393Z" stroke="#F58B71" stroke-width="0.0116378"/>
<path d="M62.9636 37.7481C62.7 37.8799 62.4804 38.0995 62.2168 38.407C61.9093 38.7145 61.6897 39.1098 61.4701 39.549C61.2065 39.9883 61.0308 40.5154 60.899 41.0864C60.7233 41.6136 60.6794 42.2285 60.6794 42.7996C60.6794 43.4584 60.7673 44.0295 60.899 44.5566C61.0308 45.0837 61.2505 45.523 61.514 45.9183C61.7776 46.3136 62.085 46.665 62.3925 46.9725C62.7439 47.28 63.0514 47.4996 63.4467 47.6753C63.4467 47.7632 63.4467 47.8071 63.4467 47.895C63.4467 47.9389 63.4467 48.0267 63.4467 48.0707C63.4467 48.5099 63.315 48.8174 63.0953 49.0809C62.8318 49.3445 62.5243 49.4763 62.085 49.4763C61.6458 49.4763 61.1626 49.3006 60.6794 49.037C60.1523 48.7295 59.713 48.3342 59.3177 47.8071C58.8785 47.28 58.5271 46.6211 58.2635 45.8304C57.9999 45.0398 57.8682 44.1613 57.8682 43.1949C57.8682 42.0089 58.0439 40.9547 58.3513 40.0322C58.7028 39.1098 59.0981 38.3191 59.5813 37.6602C60.0205 37.0013 60.5476 36.5182 61.0747 36.1668C61.6458 35.8154 62.129 35.6396 62.5682 35.6396H63.7981C64.1056 35.6396 64.3253 35.7275 64.501 35.8593C64.6767 36.035 64.7645 36.2985 64.7645 36.6939C64.7645 36.9135 64.7206 37.0892 64.6767 37.2649C64.6327 37.4406 64.5888 37.6163 64.501 37.7481H62.9636Z" fill="#377044"/>
<path d="M67.4636 37.7481V38.978L70.4945 39.6808C71.6805 39.9444 72.559 40.3397 73.1301 40.8229C73.745 41.35 74.0525 42.1407 74.0525 43.1949C74.0525 43.9416 73.9207 44.6884 73.6133 45.3473C73.3058 46.0061 72.9104 46.5772 72.3833 47.1043C71.9001 47.5875 71.3291 47.9828 70.6263 48.2464C69.9674 48.5538 69.2646 48.6856 68.5618 48.6856C67.2879 48.6856 66.3216 48.3781 65.6627 47.7192C65.0477 47.1043 64.6963 46.1818 64.6963 44.9958V37.7481H63.5103C63.2028 37.7481 62.9832 37.6602 62.8075 37.4845C62.6318 37.3088 62.5439 37.0453 62.5439 36.6499C62.5439 36.4742 62.5879 36.2546 62.6318 36.0789C62.6757 35.9032 62.7636 35.7275 62.8075 35.6396H75.0628C75.3703 35.6396 75.5899 35.7275 75.7656 35.8593C75.9413 36.035 76.0292 36.2985 76.0292 36.6939C76.0292 36.9135 75.9852 37.0892 75.9413 37.2649C75.8974 37.4406 75.8535 37.6163 75.7656 37.7481H67.4636ZM67.4636 41.35V45.0398C67.4636 45.479 67.5515 45.8304 67.7272 46.0061C67.859 46.2258 68.1664 46.3136 68.5618 46.3136C68.8693 46.3136 69.1767 46.2258 69.4842 46.0501C69.7917 45.9183 70.0553 45.6987 70.3188 45.4351C70.5824 45.1716 70.802 44.8641 70.9777 44.5127C71.1534 44.1613 71.2413 43.8099 71.2413 43.4145C71.2413 42.9313 71.1095 42.6239 70.8459 42.4482C70.6263 42.2285 70.2749 42.0967 69.7917 41.965L67.4636 41.35Z" fill="#377044"/>
<path d="M74.317 37.7481C74.0534 37.7481 73.8338 37.6602 73.6581 37.4845C73.4824 37.3088 73.3945 37.0453 73.3945 36.6499C73.3945 36.4742 73.3945 36.2546 73.4824 36.0789C73.5263 35.9032 73.5702 35.7275 73.6581 35.6396H76.074C76.5133 35.6396 76.9086 35.7275 77.26 35.8593C77.6553 36.035 77.9189 36.2985 78.0946 36.6499C78.2703 36.2985 78.4899 36.035 78.7974 35.8593C79.061 35.6836 79.4124 35.6396 79.8077 35.6396H80.8619C81.1255 35.6396 81.389 35.7275 81.5647 35.8593C81.7404 36.035 81.7844 36.2985 81.7844 36.6939C81.7844 36.9135 81.7844 37.0892 81.7404 37.2649C81.6965 37.4406 81.6087 37.6163 81.5647 37.7481H80.0273C79.7198 37.7481 79.4563 37.8359 79.2806 37.9677C79.1049 38.1434 79.017 38.407 79.017 38.8023V49.037C78.9292 49.037 78.7535 49.0809 78.5778 49.1249C78.3581 49.1688 78.0946 49.1688 77.831 49.1688C77.3479 49.1688 76.9525 49.0809 76.689 48.9052C76.3815 48.7295 76.2497 48.3781 76.2497 47.851V38.4509C76.2497 38.2313 76.2058 38.0556 76.074 37.9677C75.9862 37.8359 75.8105 37.7481 75.6347 37.7481H74.317Z" fill="#377044"/>
<path d="M91.4675 37.7481V48.5978C91.16 48.9052 90.6329 49.0809 89.9301 49.0809C89.7983 49.0809 89.6226 49.0809 89.4909 49.037C88.832 48.5538 88.217 48.0707 87.646 47.6753C87.031 47.28 86.46 46.8847 85.845 46.5332C85.2301 46.1379 84.6151 45.7865 84.0001 45.479C83.3852 45.1276 82.6824 44.8201 81.9796 44.5127C81.8038 44.2491 81.6721 43.8977 81.5842 43.5024C81.4964 43.107 81.4524 42.7117 81.4524 42.3164C81.4524 42.2285 81.4524 42.1407 81.4524 42.0528C81.4524 41.965 81.4524 41.8771 81.4524 41.8332C81.9796 41.4818 82.5067 41.1304 83.1216 40.8229C83.6927 40.5154 84.3076 40.2079 84.9665 39.9005C85.5815 39.6369 86.1964 39.3733 86.8553 39.1098C87.5142 38.8902 88.1292 38.7145 88.7441 38.5388V37.7481H80.8814C80.5739 37.7481 80.3543 37.6602 80.1786 37.4845C80.0029 37.3088 79.915 37.0453 79.915 36.6499C79.915 36.4742 79.959 36.2546 80.0029 36.0789C80.0468 35.9032 80.1347 35.7275 80.1786 35.6396H93.3124C93.6199 35.6396 93.8395 35.7275 94.0152 35.8593C94.1909 36.035 94.2788 36.2985 94.2788 36.6939C94.2788 36.9135 94.2349 37.0892 94.1909 37.2649C94.147 37.4406 94.1031 37.6163 94.0152 37.7481H91.4675ZM81.9796 48.6417C81.8478 48.4221 81.8038 48.1585 81.8038 47.9389C81.8038 47.5875 81.8917 47.28 82.1113 46.9725C82.287 46.709 82.5945 46.5332 82.9898 46.4454C83.6048 46.709 84.1758 47.0164 84.7469 47.3678C85.3179 47.6753 85.7572 47.9828 86.1086 48.2024C86.3721 48.3781 86.5918 48.5538 86.6796 48.7295C86.8114 48.9052 86.8992 49.1249 86.8992 49.3445C86.8992 49.652 86.8114 49.8716 86.6357 50.0912C86.4161 50.3109 86.1964 50.4866 85.8889 50.5305L81.9796 48.6417ZM88.7002 41.0864C87.9095 41.2622 87.1628 41.5257 86.4161 41.8771C85.6693 42.2285 85.0104 42.5799 84.4394 42.9313C84.7908 43.107 85.1861 43.3267 85.5815 43.5463C85.9768 43.7659 86.3721 44.0295 86.7675 44.2491C87.1189 44.4687 87.5142 44.6884 87.8656 44.908C88.217 45.1715 88.5245 45.3912 88.832 45.5669C88.7881 45.3912 88.7881 45.2155 88.7881 44.9519C88.7441 44.7323 88.7441 44.5127 88.7441 44.293C88.7441 44.0734 88.7441 43.8538 88.7441 43.6341C88.7002 43.4145 88.7002 43.1949 88.7002 43.0631V41.0864Z" fill="#377044"/>
<path d="M92.5533 37.7481C92.2458 37.7481 92.0262 37.6602 91.8505 37.4845C91.6748 37.3088 91.5869 37.0453 91.5869 36.6499C91.5869 36.4742 91.6308 36.2546 91.6748 36.0789C91.7626 35.9032 91.8065 35.7275 91.8944 35.6396H94.2664C94.7056 35.6396 95.1449 35.7275 95.4963 35.8593C95.8477 36.035 96.1552 36.2985 96.3309 36.6499C96.5066 36.2985 96.7262 36.035 96.9898 35.8593C97.2973 35.6836 97.6048 35.6396 98.0001 35.6396H99.0543C99.3618 35.6396 99.5814 35.7275 99.7571 35.8593C99.9328 36.035 100.021 36.2985 100.021 36.6939C100.021 36.9135 100.021 37.0892 99.9328 37.2649C99.8889 37.4406 99.845 37.6163 99.7571 37.7481H98.2197C97.9562 37.7481 97.6926 37.8359 97.5169 37.9677C97.2973 38.1434 97.2094 38.407 97.2094 38.8023V49.037C97.1216 49.037 96.9898 49.0809 96.7702 49.1249C96.5505 49.1688 96.3309 49.1688 96.0673 49.1688C95.5842 49.1688 95.1888 49.0809 94.8813 48.9052C94.6178 48.7295 94.486 48.3781 94.486 47.851V38.4509C94.486 38.2313 94.3982 38.0556 94.3103 37.9677C94.1785 37.8359 94.0468 37.7481 93.8711 37.7481H92.5533Z" fill="#377044"/>
<path d="M73.5055 56.3813C73.3738 56.4692 73.1981 56.6449 73.0224 56.8645C72.8906 57.0841 72.7149 57.3477 72.5831 57.6552C72.4074 57.9627 72.3196 58.2701 72.2317 58.6655C72.0999 59.0608 72.056 59.4561 72.056 59.8515C72.056 60.2907 72.0999 60.6861 72.2317 61.0375C72.3196 61.3889 72.4513 61.6964 72.627 62.0038C72.8027 62.2674 72.9784 62.487 73.1981 62.6627C73.4177 62.8384 73.6373 63.0141 73.857 63.102C73.857 63.1459 73.9009 63.1898 73.9009 63.2338C73.9009 63.2777 73.9009 63.3216 73.9009 63.3655C73.9009 63.5412 73.813 63.7169 73.6813 63.8487C73.5495 63.9805 73.3738 64.0683 73.1541 64.0683C72.8906 64.0683 72.627 63.9805 72.3196 63.8048C72.0121 63.5852 71.7485 63.3216 71.485 63.0141C71.2214 62.6627 71.0018 62.2674 70.87 61.7403C70.6943 61.2571 70.6064 60.6861 70.6064 60.0711C70.6064 59.3683 70.6943 58.7094 70.87 58.1384C71.0896 57.5234 71.3093 57.0402 71.6167 56.601C71.8803 56.1617 72.1878 55.8542 72.5392 55.5907C72.8467 55.371 73.1541 55.2393 73.4177 55.2393H74.2962C74.6476 55.2393 74.8233 55.4589 74.8233 55.8542C74.8233 55.9421 74.7794 56.0299 74.7794 56.1178C74.7355 56.2496 74.7355 56.3374 74.6915 56.3813H73.5055Z" fill="#373435"/>
<path d="M76.2936 56.3813V57.9627C76.2936 58.0944 76.2497 58.2701 76.2497 58.4898C76.2497 58.6655 76.2058 58.8851 76.2058 59.0608C76.2058 59.2365 76.1619 59.4122 76.1619 59.5879C76.1179 59.7197 76.1179 59.8515 76.074 59.9393C76.3376 59.6758 76.6011 59.4561 76.9086 59.1926C77.26 58.929 77.5675 58.6655 77.9189 58.4458C78.2703 58.2262 78.6217 58.0505 79.017 57.8748C79.3684 57.6991 79.7198 57.5673 80.0713 57.4795C80.203 57.5673 80.3787 57.6991 80.5544 57.8748C80.6862 58.0505 80.818 58.2262 80.8619 58.4019C80.818 58.5776 80.7301 58.7972 80.6423 59.0608C80.5984 59.2804 80.5105 59.5879 80.4666 59.8515C80.4227 60.1589 80.3787 60.5104 80.3348 60.8618C80.2909 61.2571 80.2909 61.6524 80.2909 62.1356C80.2909 62.487 80.2909 62.8384 80.3348 63.1459C80.3787 63.4534 80.4227 63.7609 80.4666 64.0244C80.4227 64.1123 80.3348 64.2001 80.203 64.244C80.1152 64.288 79.9834 64.3319 79.8516 64.3319C79.6759 64.3319 79.5441 64.288 79.4124 64.2001C79.2806 64.1562 79.1488 64.0244 79.061 63.8926C78.9731 63.7169 78.8853 63.4973 78.8413 63.2338C78.7974 62.9702 78.7535 62.6188 78.7535 62.2235C78.7535 61.8721 78.7974 61.5206 78.8413 61.2132C78.8853 60.8618 78.9292 60.5543 79.017 60.2907C79.1049 59.9832 79.1927 59.7197 79.2367 59.5001C79.3245 59.2804 79.4124 59.1047 79.5002 58.973C79.1927 59.1047 78.8853 59.2804 78.5778 59.4561C78.2703 59.6758 78.0067 59.8954 77.6993 60.115C77.3918 60.3786 77.1282 60.6421 76.8647 60.9057C76.6011 61.1692 76.3376 61.4328 76.1619 61.6964C76.0301 61.7403 75.9422 61.7403 75.8105 61.7403C75.6347 61.7403 75.4151 61.6964 75.2394 61.6085C75.0198 61.5206 74.888 61.4328 74.8441 61.301V56.3813H73.9216C73.5702 56.3813 73.3945 56.2056 73.3945 55.8103C73.3945 55.7224 73.4385 55.5907 73.4385 55.5028C73.4824 55.415 73.4824 55.3271 73.5263 55.2393H81.6526C82.004 55.2393 82.1797 55.4589 82.1797 55.8542C82.1797 55.9421 82.1358 56.0299 82.1358 56.1178C82.0918 56.2496 82.0918 56.3374 82.0479 56.3813H76.2936Z" fill="#373435"/>
<path d="M82.3118 60.0711C82.3118 59.2365 82.4436 58.5337 82.7071 57.9187C82.9707 57.3038 83.2342 56.7767 83.5856 56.3813H81.2576C80.9062 56.3813 80.7305 56.2056 80.7305 55.8103C80.7305 55.7224 80.7305 55.5907 80.7305 55.5028C80.7744 55.415 80.8183 55.3271 80.8183 55.2393H86.1333C86.4848 55.2393 86.6605 55.4589 86.6605 55.8542C86.6605 55.9421 86.6605 56.0299 86.6165 56.1178C86.6165 56.2496 86.5726 56.3374 86.5287 56.3813H85.167C84.9913 56.5131 84.8595 56.6449 84.6838 56.8645C84.5081 57.0841 84.3763 57.3477 84.2445 57.6113C84.1128 57.9187 83.981 58.2701 83.8931 58.6215C83.8053 59.0169 83.7613 59.4122 83.7613 59.8075C83.7613 60.2907 83.8492 60.6861 83.9371 61.0375C84.0249 61.4328 84.1567 61.7403 84.3324 62.0038C84.5081 62.2674 84.6838 62.487 84.9034 62.6627C85.1231 62.8384 85.3427 63.0141 85.5623 63.102C85.6062 63.1459 85.6062 63.1898 85.6062 63.2338C85.6062 63.2777 85.6062 63.3216 85.6062 63.3655C85.6062 63.5412 85.5184 63.7169 85.3866 63.8487C85.2548 63.9805 85.0791 64.0683 84.8595 64.0683C84.5959 64.0683 84.3324 63.9805 84.0249 63.8048C83.7174 63.6291 83.4539 63.3655 83.1903 63.0141C82.9268 62.6627 82.7071 62.2674 82.5314 61.7842C82.3996 61.2571 82.3118 60.73 82.3118 60.0711Z" fill="#373435"/>
<path d="M92.2147 63.8516C91.7755 63.5002 91.3362 63.1927 90.897 62.9291C90.4577 62.6217 90.0184 62.3581 89.5792 62.0946C89.096 61.831 88.6567 61.6114 88.1736 61.3478C87.6464 61.1282 87.1633 60.9086 86.5922 60.645C86.5483 60.5572 86.5044 60.4254 86.4605 60.2497C86.4165 60.074 86.4165 59.8983 86.4165 59.7226C86.4165 59.6347 86.4165 59.5029 86.4165 59.4151C86.4165 59.3272 86.4605 59.2394 86.4605 59.1955L87.3829 59.0197C88.0418 58.844 88.5689 58.6683 88.9203 58.4048C89.2717 58.1412 89.4474 57.7898 89.4474 57.3945C89.4474 57.2627 89.4474 57.1309 89.4035 56.9992C89.3596 56.9113 89.3156 56.8235 89.2278 56.7356C88.9642 56.9552 88.7007 57.1309 88.3493 57.3066C87.9979 57.4384 87.6464 57.5263 87.2072 57.5263C86.6801 57.5263 86.2408 57.3945 85.8894 57.1749C85.538 56.9113 85.3623 56.5599 85.3623 56.1206C85.3623 55.8132 85.4502 55.5935 85.6259 55.4618C85.8016 55.2861 86.0212 55.2421 86.2408 55.2421C86.3726 55.2421 86.5044 55.2421 86.6362 55.2861C86.6362 55.6375 86.724 55.901 86.8558 56.0328C87.0315 56.2085 87.2072 56.2963 87.4707 56.2963C87.8222 56.2963 88.1296 56.1646 88.4371 55.9449C88.7446 55.7692 89.096 55.4618 89.5353 55.1104C89.711 55.1982 89.8867 55.3739 90.0184 55.5057C90.1941 55.6814 90.3698 55.8571 90.5016 56.0328C90.6334 56.2524 90.7213 56.4721 90.8091 56.6917C90.897 56.9113 90.9409 57.1749 90.9409 57.3945C90.9409 57.7459 90.853 58.0973 90.7213 58.3609C90.5895 58.6683 90.4138 58.888 90.1502 59.1076C89.9306 59.3272 89.6231 59.5029 89.3156 59.6347C88.9642 59.7665 88.6128 59.8983 88.2175 59.9861C88.525 60.1179 88.8324 60.2497 89.1839 60.4254C89.4913 60.6011 89.8427 60.7768 90.1502 60.9525C90.4577 61.1282 90.8091 61.3478 91.0727 61.5235C91.3801 61.7431 91.6437 61.9189 91.9073 62.0946C91.8633 61.7871 91.8194 61.4796 91.8194 61.1282C91.7755 60.7768 91.7755 60.4693 91.7755 60.1618V56.3403C91.7755 56.0328 91.8633 55.7692 92.039 55.5935C92.2147 55.3739 92.4783 55.2421 92.8297 55.2421H94.4989C94.8503 55.2421 95.026 55.4618 95.026 55.8571C95.026 55.9449 95.026 56.0328 95.026 56.1206C94.9821 56.2524 94.9381 56.3403 94.9381 56.3842H93.225V63.632C93.0493 63.7637 92.7858 63.8516 92.4344 63.8516C92.3465 63.8516 92.3026 63.8516 92.2147 63.8516Z" fill="#373435"/>
<path d="M94.1306 56.3813C93.7792 56.3813 93.6035 56.2056 93.6035 55.8103C93.6035 55.7224 93.6035 55.5907 93.6474 55.5028C93.6474 55.415 93.6914 55.3271 93.7353 55.2393H95.2288C95.4923 55.2393 95.7559 55.3271 95.9316 55.415C96.1512 55.5467 96.3269 55.6785 96.4148 55.8981C96.5026 55.6785 96.5905 55.5028 96.7662 55.415C96.9419 55.3271 97.1615 55.2393 97.3811 55.2393H98.1718C98.3475 55.2393 98.4793 55.2832 98.5671 55.371C98.655 55.5028 98.6989 55.6346 98.6989 55.8542C98.6989 55.9421 98.6989 56.0299 98.655 56.1178C98.655 56.2496 98.6111 56.3374 98.5671 56.3813H97.5129C97.3372 56.3813 97.1615 56.4253 97.0737 56.557C96.9419 56.6449 96.898 56.8206 96.898 57.0402V63.8487C96.8101 63.8487 96.7662 63.8487 96.6344 63.8926C96.5465 63.8926 96.4148 63.9366 96.283 63.9366C96.0194 63.9366 95.8437 63.8487 95.668 63.7609C95.5363 63.673 95.4484 63.4973 95.4484 63.2338V56.8645C95.4484 56.557 95.3166 56.3813 95.0091 56.3813H94.1306Z" fill="#373435"/>
<path fill-rule="evenodd" clip-rule="evenodd" d="M47.1101 54.9288C47.0662 52.5568 45.1334 50.5802 42.7614 50.5802C40.4773 50.5802 38.4567 52.5568 38.4567 54.841C38.4567 57.2569 40.4334 59.2336 42.8054 59.2336C45.1334 59.1896 47.1101 57.213 47.1101 54.9288ZM48.7354 58.8821C50.0971 60.1999 51.4588 61.4738 52.7326 62.7037C52.0298 63.4065 51.3709 64.0654 50.6681 64.7682C49.7896 63.9336 48.7793 63.0112 47.8568 62.0009C47.154 61.2102 46.6269 60.9906 45.4848 61.4738C42.8493 62.6158 40.2577 62.1766 38.0614 60.2438C35.8651 58.2672 35.1184 55.7634 35.909 52.9522C36.6997 50.1409 38.6763 48.3399 41.5755 47.8568C44.3867 47.3736 46.7587 48.3399 48.4718 50.6241C50.1849 52.9522 50.3606 55.4559 49.2185 58.0476C49.0868 58.3111 48.955 58.5307 48.7354 58.8821Z" fill="#F58B71"/>
</svg>
