<svg width="105" height="103" viewBox="0 0 105 103" fill="none" xmlns="http://www.w3.org/2000/svg">
<path fill-rule="evenodd" clip-rule="evenodd" d="M38.3564 91.6153C44.144 93.8213 50.4731 95.037 57.1036 95.037C65.3177 95.037 73.0926 93.1482 79.945 89.8538C71.5551 96.1791 61.1447 99.9567 49.8558 99.9567C43.4332 99.9567 37.2948 98.7433 31.6575 96.5336L38.3564 91.6153ZM24.2924 83.4756C13.8733 74.9217 7.29168 62.3673 7.29168 48.3878C7.29168 22.6473 29.606 1.73861 57.1036 1.73861C59.1241 1.73861 61.1447 1.87039 63.1214 2.09002C58.9045 0.904024 54.4241 0.289062 49.8558 0.289062C22.3143 0.289062 0 22.6034 0 50.1449C0 67.691 9.08574 83.1267 22.8177 92.0011L24.2924 83.4756Z" fill="#F47D5C"/>
<path d="M28.3446 80.376L21.4043 102.954L39.7653 85.9106L28.3446 80.376Z" fill="#377044"/>
<path fill-rule="evenodd" clip-rule="evenodd" d="M15.671 49.2438C15.671 70.4599 32.846 87.6349 54.0621 87.6349C67.7052 87.6349 79.7068 80.5033 86.5173 69.7542H91.3808C84.14 82.9295 70.1392 91.8518 54.0621 91.8518C30.5179 91.8518 11.4541 72.788 11.4541 49.2438C11.4541 25.6995 30.5179 6.63574 54.0621 6.63574C70.1369 6.63574 84.1359 15.5555 91.3776 28.7275H86.5136C79.7025 17.9817 67.7028 10.8526 54.0621 10.8526C32.846 10.8526 15.671 28.0276 15.671 49.2438Z" fill="#377044"/>
<path fill-rule="evenodd" clip-rule="evenodd" d="M35.3189 60.6393C32.9469 60.6393 30.6628 60.6832 28.3347 60.5954C26.7095 60.5514 25.5674 59.3215 25.5674 57.6523C25.5674 50.5364 25.5674 43.4204 25.5674 36.3483C25.5674 34.6791 26.8412 33.4492 28.4665 33.4492C34.1768 33.4492 39.8872 33.4492 45.5976 33.4492C47.135 33.4492 48.4088 34.5474 48.4527 36.0408C48.4967 39.8185 48.4527 43.5961 48.4527 47.4176C47.5742 46.9344 46.6957 46.5391 45.8172 46.0559C45.6854 45.9681 45.6415 45.5727 45.6415 45.3092C45.6415 42.5858 45.6415 39.8624 45.6415 37.139V36.3044H28.5104V57.7402C30.0917 57.7402 31.6731 57.7402 33.2544 57.7402C33.6937 57.7402 33.9572 57.828 34.1329 58.3112C34.4843 59.058 34.8797 59.7608 35.3189 60.6393Z" fill="#F58B71"/>
<path fill-rule="evenodd" clip-rule="evenodd" d="M35.3189 60.6393C32.9469 60.6393 30.6628 60.6832 28.3347 60.5954C26.7095 60.5514 25.5674 59.3215 25.5674 57.6523C25.5674 50.5364 25.5674 43.4204 25.5674 36.3483C25.5674 34.6791 26.8412 33.4492 28.4665 33.4492C34.1768 33.4492 39.8872 33.4492 45.5976 33.4492C47.135 33.4492 48.4088 34.5474 48.4527 36.0408C48.4967 39.8185 48.4527 43.5961 48.4527 47.4176C47.5742 46.9344 46.6957 46.5391 45.8172 46.0559C45.6854 45.9681 45.6415 45.5727 45.6415 45.3092C45.6415 42.5858 45.6415 39.8624 45.6415 37.139V36.3044H28.5104V57.7402C30.0917 57.7402 31.6731 57.7402 33.2544 57.7402C33.6937 57.7402 33.9572 57.828 34.1329 58.3112C34.4843 59.058 34.8797 59.7608 35.3189 60.6393Z" stroke="#F58B71" stroke-width="0.0116378"/>
<path fill-rule="evenodd" clip-rule="evenodd" d="M47.115 54.9239C47.0711 52.5519 45.1383 50.5753 42.7663 50.5753C40.4822 50.5753 38.4616 52.5519 38.4616 54.8361C38.4616 57.252 40.4383 59.2287 42.8103 59.2287C45.1383 59.1847 47.115 57.2081 47.115 54.9239ZM48.7402 58.8773C50.1019 60.195 51.4636 61.4689 52.7375 62.6988C52.0347 63.4016 51.3758 64.0605 50.673 64.7633C49.7945 63.9287 48.7842 63.0063 47.8617 61.996C47.1589 61.2053 46.6318 60.9857 45.4897 61.4689C42.8542 62.611 40.2626 62.1717 38.0663 60.239C35.87 58.2623 35.1232 55.7585 35.9139 52.9473C36.7046 50.136 38.6812 48.3351 41.5803 47.8519C44.3916 47.3687 46.7636 48.3351 48.4767 50.6192C50.1898 52.9473 50.3655 55.451 49.2234 58.0427C49.0916 58.3062 48.9599 58.5259 48.7402 58.8773Z" fill="#F58B71"/>
<path fill-rule="evenodd" clip-rule="evenodd" d="M47.115 54.9239C47.0711 52.5519 45.1383 50.5753 42.7663 50.5753C40.4822 50.5753 38.4616 52.5519 38.4616 54.8361C38.4616 57.252 40.4383 59.2287 42.8103 59.2287C45.1383 59.1847 47.115 57.2081 47.115 54.9239ZM48.7402 58.8773C50.1019 60.195 51.4636 61.4689 52.7375 62.6988C52.0347 63.4016 51.3758 64.0605 50.673 64.7633C49.7945 63.9287 48.7842 63.0063 47.8617 61.996C47.1589 61.2053 46.6318 60.9857 45.4897 61.4689C42.8542 62.611 40.2626 62.1717 38.0663 60.239C35.87 58.2623 35.1232 55.7585 35.9139 52.9473C36.7046 50.136 38.6812 48.3351 41.5803 47.8519C44.3916 47.3687 46.7636 48.3351 48.4767 50.6192C50.1898 52.9473 50.3655 55.451 49.2234 58.0427C49.0916 58.3062 48.9599 58.5259 48.7402 58.8773Z" stroke="#F58B71" stroke-width="0.0116378"/>
<path d="M62.9626 37.7422C62.699 37.874 62.4794 38.0936 62.2158 38.4011C61.9084 38.7086 61.6887 39.1039 61.4691 39.5432C61.2055 39.9824 61.0298 40.5096 60.8981 41.0806C60.7224 41.6077 60.6784 42.2227 60.6784 42.7937C60.6784 43.4526 60.7663 44.0236 60.8981 44.5507C61.0298 45.0778 61.2495 45.5171 61.513 45.9124C61.7766 46.3078 62.0841 46.6592 62.3915 46.9667C62.743 47.2741 63.0504 47.4938 63.4458 47.6695C63.4458 47.7573 63.4458 47.8012 63.4458 47.8891C63.4458 47.933 63.4458 48.0209 63.4458 48.0648C63.4458 48.5041 63.314 48.8115 63.0944 49.0751C62.8308 49.3386 62.5233 49.4704 62.0841 49.4704C61.6448 49.4704 61.1616 49.2947 60.6784 49.0312C60.1513 48.7237 59.7121 48.3284 59.3167 47.8012C58.8775 47.2741 58.5261 46.6152 58.2625 45.8246C57.999 45.0339 57.8672 44.1554 57.8672 43.189C57.8672 42.003 58.0429 40.9488 58.3504 40.0264C58.7018 39.1039 59.0971 38.3133 59.5803 37.6544C60.0196 36.9955 60.5467 36.5123 61.0738 36.1609C61.6448 35.8095 62.128 35.6338 62.5672 35.6338H63.7972C64.1047 35.6338 64.3243 35.7216 64.5 35.8534C64.6757 36.0291 64.7635 36.2927 64.7635 36.688C64.7635 36.9076 64.7196 37.0833 64.6757 37.259C64.6318 37.4347 64.5878 37.6105 64.5 37.7422H62.9626Z" fill="#377044"/>
<path d="M67.4182 37.7422V39.675C67.4182 40.2021 67.3743 40.7292 67.2864 41.2563C67.1986 41.7834 67.1547 42.2227 67.0668 42.5301C67.4182 42.1787 67.8136 41.8273 68.2528 41.4759C68.6921 41.1245 69.1753 40.817 69.7024 40.5096C70.2295 40.2021 70.7566 39.9385 71.3276 39.675C71.8987 39.4553 72.4697 39.2796 72.9968 39.1918C73.2604 39.2796 73.5239 39.4993 73.7875 39.8067C74.095 40.1142 74.2707 40.4217 74.4024 40.7731C74.1828 41.432 73.9632 42.1787 73.7875 43.0133C73.6118 43.8479 73.5678 44.9461 73.5678 46.2199C73.5678 46.8349 73.5678 47.4059 73.6557 47.8891C73.6996 48.4162 73.7875 48.8994 73.8753 49.3386C73.6118 49.69 73.1725 49.8658 72.6015 49.8658C72.3379 49.8658 72.0744 49.7779 71.8108 49.69C71.5912 49.5583 71.3715 49.3386 71.1958 49.0751C71.0201 48.8115 70.8884 48.4601 70.8005 48.0648C70.7127 47.6255 70.6248 47.0984 70.6248 46.4835C70.6248 46.0003 70.6687 45.5171 70.7566 45.0339C70.8444 44.5947 70.9323 44.1993 71.0201 43.804C71.1519 43.4087 71.2837 43.0573 71.3715 42.7937C71.5033 42.4862 71.6351 42.2227 71.723 42.047C71.2837 42.2227 70.8444 42.4423 70.4052 42.7498C69.9659 43.0133 69.5706 43.3208 69.1753 43.6722C68.7799 44.0236 68.3846 44.375 68.0332 44.7264C67.6818 45.1218 67.3743 45.4292 67.1107 45.7807C66.935 45.8246 66.7593 45.8685 66.4958 45.8685C66.1444 45.8685 65.793 45.7807 65.3976 45.6489C65.0462 45.4732 64.7827 45.2535 64.6509 44.99V37.7422H63.4649C63.1574 37.7422 62.9378 37.6544 62.7621 37.4787C62.5864 37.303 62.4985 37.0394 62.4985 36.6441C62.4985 36.4684 62.4985 36.2488 62.5864 36.073C62.6303 35.8973 62.6742 35.7216 62.7621 35.6338H75.6763C75.9838 35.6338 76.2034 35.7216 76.3791 35.8534C76.5548 36.0291 76.6426 36.2927 76.6426 36.688C76.6426 36.9076 76.5987 37.0833 76.5548 37.259C76.5109 37.4347 76.4669 37.6105 76.3791 37.7422H67.4182Z" fill="#377044"/>
<path d="M76.4569 43.189C76.4569 41.9591 76.6326 40.9049 76.984 39.9824C77.3354 39.1039 77.7747 38.3572 78.3018 37.7422H74.9634C74.6999 37.7422 74.4363 37.6544 74.2606 37.4787C74.0849 37.303 73.9971 37.0394 73.9971 36.6441C73.9971 36.4684 74.041 36.2488 74.0849 36.073C74.1288 35.8973 74.2167 35.7216 74.2606 35.6338H82.7822C83.0458 35.6338 83.3093 35.7216 83.485 35.8534C83.6607 36.0291 83.7047 36.2927 83.7047 36.688C83.7047 36.9076 83.7047 37.0833 83.6607 37.259C83.6168 37.4347 83.529 37.6105 83.485 37.7422H81.3327C81.1131 37.874 80.8495 38.0936 80.6299 38.4011C80.3663 38.7086 80.1467 39.1039 79.971 39.5432C79.7514 39.9824 79.5756 40.4656 79.4439 40.9927C79.3121 41.5638 79.2682 42.1348 79.2682 42.7498C79.2682 43.4087 79.356 44.0236 79.4878 44.5507C79.6635 45.0778 79.8392 45.561 80.1028 45.9564C80.3663 46.3517 80.6738 46.7031 80.9813 46.9667C81.3327 47.2741 81.6841 47.4938 82.0355 47.6695C82.0355 47.7573 82.0355 47.8012 82.0355 47.8891C82.0355 47.933 82.0355 48.0209 82.0355 48.0648C82.0355 48.5041 81.9037 48.8115 81.6841 49.0751C81.4205 49.3386 81.1131 49.4704 80.6738 49.4704C80.2345 49.4704 79.7514 49.2947 79.2242 49.0312C78.7411 48.7237 78.3018 48.3284 77.9065 47.8012C77.4672 47.2741 77.1597 46.6152 76.8522 45.8246C76.5887 45.0339 76.4569 44.1554 76.4569 43.189Z" fill="#377044"/>
<path d="M92.047 49.0379C91.3442 48.5108 90.6414 48.0276 89.9825 47.5883C89.3236 47.1491 88.6648 46.7537 87.9619 46.4023C87.2591 46.007 86.5563 45.6556 85.8096 45.3042C85.0628 44.9967 84.2722 44.6453 83.3937 44.2939C83.3058 44.1182 83.218 43.8986 83.174 43.5911C83.0862 43.2836 83.0422 42.9322 83.0422 42.5369C83.0422 42.3612 83.0862 42.1855 83.0862 42.0098C83.1301 41.834 83.174 41.7023 83.174 41.6144L84.4918 41.3069C85.5021 41.1312 86.2488 40.8677 86.6881 40.4723C87.1273 40.1209 87.3909 39.6817 87.3909 39.1985C87.3909 39.0228 87.347 38.891 87.3031 38.7592C87.2591 38.6275 87.2152 38.4957 87.1273 38.4078C86.7759 38.6714 86.3806 38.9349 85.8974 39.1106C85.4142 39.2864 84.8871 39.4181 84.3161 39.4181C83.4376 39.4181 82.7348 39.1985 82.2077 38.7592C81.6805 38.3639 81.417 37.7929 81.417 37.134C81.417 36.6069 81.5488 36.2115 81.8563 35.9041C82.1637 35.6405 82.5591 35.5087 82.9544 35.5087C83.218 35.5087 83.4815 35.5527 83.7011 35.6405C83.7011 36.1676 83.8329 36.519 84.0525 36.6947C84.2722 36.9144 84.5797 37.0022 84.8871 37.0022C85.1507 37.0022 85.3703 36.9583 85.5899 36.8704C85.8096 36.8265 86.0731 36.6947 86.2928 36.563C86.5124 36.3872 86.7759 36.2115 87.0395 36.0358C87.3031 35.8162 87.5666 35.5966 87.8741 35.377C88.1816 35.5527 88.4451 35.8162 88.7087 36.0798C88.9722 36.3433 89.2358 36.6508 89.4115 36.9583C89.6311 37.2658 89.8068 37.6172 89.9386 38.0125C90.0704 38.3639 90.1143 38.7592 90.1143 39.1985C90.1143 40.2088 89.8068 41.0434 89.1479 41.7023C88.489 42.3172 87.6105 42.7565 86.5124 43.02C86.9077 43.1957 87.3031 43.3715 87.7423 43.5472C88.1816 43.7668 88.6208 43.9864 89.0601 44.25C89.4993 44.4696 89.8947 44.7332 90.29 44.9967C90.6853 45.2163 91.0367 45.4799 91.3442 45.6995C91.3442 45.3042 91.3003 44.8649 91.3003 44.3817C91.2564 43.8986 91.2564 43.4593 91.2564 43.1079V37.5732C91.2564 37.0461 91.3882 36.563 91.6956 36.2115C92.0031 35.8162 92.4863 35.6405 93.1013 35.6405H95.8686C96.1321 35.6405 96.3957 35.7284 96.5714 35.8601C96.7032 36.0358 96.791 36.2994 96.791 36.6947C96.791 36.9144 96.791 37.0901 96.7471 37.2658C96.7032 37.4415 96.6153 37.6172 96.5714 37.7489H93.9798V48.5986C93.7162 48.9061 93.1891 49.0818 92.4424 49.0818C92.3106 49.0818 92.1788 49.0818 92.047 49.0379Z" fill="#377044"/>
<path d="M95.1221 37.7422C94.8146 37.7422 94.595 37.6544 94.4193 37.4787C94.2436 37.303 94.1558 37.0394 94.1558 36.6441C94.1558 36.4684 94.1997 36.2488 94.2436 36.073C94.2875 35.8973 94.3754 35.7216 94.4193 35.6338H96.8352C97.2745 35.6338 97.6698 35.7216 98.0652 35.8534C98.4166 36.0291 98.6801 36.2927 98.8997 36.6441C99.0315 36.2927 99.2512 36.0291 99.5586 35.8534C99.8222 35.6777 100.174 35.6338 100.569 35.6338H101.623C101.931 35.6338 102.15 35.7216 102.326 35.8534C102.502 36.0291 102.59 36.2927 102.59 36.688C102.59 36.9076 102.546 37.0833 102.502 37.259C102.458 37.4347 102.414 37.6105 102.326 37.7422H100.789C100.481 37.7422 100.261 37.8301 100.042 37.9619C99.8661 38.1376 99.7783 38.4011 99.7783 38.7964V49.0312C99.6904 49.0312 99.5586 49.0751 99.339 49.119C99.1194 49.1629 98.8997 49.1629 98.6362 49.1629C98.153 49.1629 97.7577 49.0751 97.4502 48.8994C97.1427 48.7237 97.0109 48.3723 97.0109 47.8452V38.445C97.0109 38.2254 96.967 38.0497 96.8352 37.9619C96.7474 37.8301 96.6156 37.7422 96.396 37.7422H95.1221Z" fill="#377044"/>
<path d="M70.6362 61.8323C70.5484 61.7005 70.5044 61.5248 70.5044 61.3491C70.5044 61.2173 70.5484 61.0855 70.5923 60.9537C70.6362 60.822 70.7241 60.7341 70.768 60.6902C70.9876 60.6902 71.2072 60.7341 71.4708 60.7341C71.7783 60.778 71.9979 60.778 72.2615 60.778C73.0961 60.778 73.7549 60.6023 74.1942 60.2509C74.6335 59.8995 74.8531 59.4603 74.8531 58.8892C74.8531 58.45 74.7652 58.0986 74.5017 57.835C74.2821 57.6154 73.9746 57.4836 73.6232 57.4836C73.2718 57.4836 73.0082 57.5715 72.7886 57.7911C72.5689 58.0107 72.4372 58.2743 72.4372 58.6696C72.4372 58.7574 72.4372 58.8892 72.4811 58.9771C72.525 59.1089 72.525 59.1967 72.5689 59.2406C72.4372 59.4603 72.1736 59.592 71.8661 59.592C71.6026 59.592 71.4269 59.5042 71.2072 59.3285C71.0315 59.1528 70.9437 58.8453 70.9437 58.45C70.9437 58.1864 70.9876 57.9229 71.0755 57.7032C71.2072 57.4836 71.339 57.264 71.5147 57.0883C71.6904 56.9126 71.9101 56.7808 72.1736 56.649C72.4372 56.5172 72.7007 56.4294 73.0082 56.3855H70.0213C69.6698 56.3855 69.4941 56.2097 69.4941 55.8144C69.4941 55.7266 69.4941 55.5948 69.5381 55.5069C69.5381 55.4191 69.582 55.3312 69.6259 55.2434H74.9849C75.0288 55.1995 75.0727 55.1116 75.0727 55.0238C75.1166 54.9798 75.1166 54.892 75.1166 54.7602C75.1166 54.5845 75.0288 54.4088 74.8531 54.277C74.7213 54.1452 74.4138 54.0574 74.0624 54.0574C73.8867 54.0574 73.7549 54.0574 73.6671 54.0574C73.5353 54.0574 73.4035 54.1013 73.3157 54.1013C73.1839 54.1013 73.0961 54.1013 72.9204 54.1013C72.7886 54.1013 72.6568 54.1013 72.4372 54.1013C71.7344 54.1013 71.1633 53.9695 70.768 53.6181C70.3287 53.3106 70.153 52.9153 70.153 52.3882C70.153 52.0368 70.197 51.8172 70.3727 51.5975C70.5044 51.4218 70.7241 51.334 70.9876 51.334C71.1194 51.334 71.2512 51.3779 71.339 51.4218C71.4708 51.4658 71.5147 51.5097 71.6026 51.5536C71.6026 51.5975 71.6026 51.6854 71.5587 51.7293C71.5587 51.8172 71.5587 51.905 71.5587 51.9929C71.5587 52.6518 71.954 52.9592 72.7886 52.9592C73.0521 52.9592 73.3157 52.9592 73.5353 52.9592C73.7989 52.9153 74.0624 52.9153 74.3699 52.9153C75.0727 52.9153 75.5559 53.091 75.9512 53.3546C76.3026 53.6621 76.4783 54.0135 76.4783 54.4966C76.4783 54.6723 76.4344 54.8041 76.3905 54.9359C76.3905 55.0677 76.3026 55.1555 76.2587 55.2434H77.269C77.6204 55.2434 77.7961 55.463 77.7961 55.8583C77.7961 55.9462 77.7961 56.034 77.7522 56.1219C77.7522 56.2537 77.7083 56.3415 77.6643 56.3855H74.1064C74.4138 56.4294 74.7213 56.5172 74.9849 56.649C75.2484 56.7808 75.512 56.9565 75.6877 57.1761C75.9073 57.3957 76.083 57.6593 76.1709 57.9229C76.3026 58.2303 76.3466 58.5378 76.3466 58.9332C76.3466 59.3724 76.2587 59.7677 76.083 60.1191C75.9073 60.4266 75.6877 60.7341 75.3802 60.9537C75.0727 61.2173 74.7652 61.393 74.3699 61.4808C73.9746 61.6126 73.5353 61.7005 73.0961 61.7005C73.7549 61.964 74.3699 62.1837 74.9409 62.4472C75.4681 62.6668 75.9073 62.8425 76.2148 62.9743C76.4344 63.1061 76.6101 63.194 76.698 63.3257C76.8298 63.4136 76.8737 63.5893 76.8737 63.765C76.8737 63.9407 76.8298 64.1164 76.698 64.2482C76.6101 64.38 76.4783 64.5117 76.3026 64.5557C75.7316 64.2921 75.2484 63.9846 74.7652 63.765C74.326 63.5454 73.8867 63.3257 73.4475 63.1061C73.0521 62.8865 72.6129 62.6668 72.1297 62.4911C71.6904 62.2715 71.1633 62.0519 70.6362 61.8323Z" fill="#373435"/>
<path d="M79.6838 56.3787V63.8022C79.6398 63.8022 79.552 63.8461 79.4202 63.8461C79.3323 63.89 79.2006 63.89 79.0688 63.89C78.8052 63.89 78.6295 63.8461 78.4538 63.7583C78.3221 63.6704 78.2342 63.4947 78.2342 63.1872V56.3787H77.2678C76.9164 56.3787 76.7407 56.203 76.7407 55.8077C76.7407 55.7198 76.7407 55.5881 76.7846 55.5002C76.7846 55.4124 76.8286 55.3245 76.8725 55.2367H78.1463C78.0146 55.1488 77.9267 54.9731 77.8828 54.7535C77.7949 54.5778 77.751 54.3581 77.751 54.0946C77.751 53.7432 77.8389 53.3918 78.0146 53.0843C78.1903 52.7768 78.4538 52.5133 78.7613 52.2936C79.1127 52.0301 79.508 51.8983 79.9473 51.7665C80.3866 51.6347 80.9137 51.5908 81.4408 51.5908C81.9679 51.5908 82.4072 51.6347 82.8464 51.7226C83.2857 51.8104 83.681 51.8983 84.0324 51.9862C84.3838 52.1179 84.6913 52.2497 84.9548 52.3815C85.2184 52.5133 85.3941 52.6011 85.5259 52.689C85.7894 52.8647 85.9651 53.0404 86.0091 53.1282C86.0969 53.26 86.1408 53.3918 86.1408 53.5236C86.1408 53.6993 86.0969 53.831 86.0091 53.9628C85.8773 54.0507 85.7455 54.1385 85.6137 54.2264C85.0866 53.831 84.4717 53.5236 83.7689 53.2161C83.066 52.9525 82.3193 52.8207 81.4847 52.8207C80.7819 52.8207 80.2548 52.9525 79.8595 53.2161C79.4641 53.4796 79.2445 53.831 79.2445 54.3142C79.2445 54.5338 79.2884 54.7096 79.3763 54.8853C79.4202 55.061 79.508 55.1488 79.6398 55.2367H80.9576C81.1333 55.2367 81.2651 55.2806 81.3529 55.3684C81.4408 55.5002 81.4847 55.632 81.4847 55.8516C81.4847 55.9395 81.4847 56.0273 81.4847 56.1152C81.4408 56.247 81.3969 56.3348 81.3969 56.3787H79.6838Z" fill="#373435"/>
<path d="M91.8934 55.2393C92.2448 55.2393 92.4205 55.4589 92.4205 55.8542C92.4205 55.9421 92.4205 56.0299 92.3766 56.1178C92.3766 56.2496 92.3326 56.3374 92.2887 56.3813H88.0279V58.7094C88.2475 58.5776 88.5111 58.4019 88.8186 58.1823C89.126 58.0066 89.4335 57.787 89.741 57.6113C89.9167 57.743 90.0485 57.8748 90.2242 58.0066C90.3999 58.1823 90.5317 58.358 90.7074 58.6215C90.8391 58.8412 90.927 59.0608 91.0149 59.3683C91.1027 59.6318 91.1466 59.9393 91.1466 60.2907C91.1466 60.8178 91.0588 61.301 90.8391 61.6964C90.6195 62.0917 90.312 62.4431 89.9606 62.7506C89.5653 63.0141 89.126 63.2338 88.6429 63.3655C88.1157 63.4973 87.5886 63.5852 87.0176 63.5852C86.3587 63.5852 85.7438 63.4973 85.1727 63.3216C84.6017 63.1459 84.0306 62.8824 83.5475 62.5309C83.0643 62.1795 82.6689 61.7842 82.3175 61.2571C81.9661 60.7739 81.6587 60.1589 81.4829 59.5001C81.4829 59.3683 81.439 59.2365 81.3951 59.0608C81.3951 58.929 81.3951 58.7533 81.3951 58.6215C81.3951 58.3141 81.439 58.0505 81.6147 57.8748C81.7465 57.6991 81.9661 57.6113 82.2736 57.6113C82.3615 57.6113 82.4932 57.6113 82.5811 57.6552C82.6689 57.6552 82.7568 57.6991 82.8007 57.743L82.8447 58.2262C82.9325 58.929 83.0643 59.544 83.3278 60.0711C83.5914 60.5982 83.8989 61.0375 84.2942 61.3449C84.6456 61.6964 85.0849 61.9599 85.5681 62.0917C86.0512 62.2674 86.5344 62.3552 87.0615 62.3552C87.4129 62.3552 87.7204 62.3113 88.0718 62.2235C88.3793 62.1356 88.6429 62.0038 88.9064 61.7842C89.126 61.6085 89.3457 61.3889 89.4774 61.1253C89.6092 60.9057 89.6532 60.5982 89.6532 60.2907C89.6532 60.0272 89.6532 59.8075 89.6092 59.6318C89.5214 59.4122 89.4774 59.2804 89.3457 59.1487C89.0382 59.3683 88.7307 59.544 88.4232 59.7197C88.1157 59.8954 87.8083 60.0272 87.5008 60.2029C87.3251 60.1589 87.1494 60.0711 86.9737 59.8954C86.8419 59.7636 86.7101 59.6318 86.6223 59.5001V58.7972C86.5783 58.7094 86.4466 58.5776 86.3148 58.5337C86.2269 58.4458 86.0512 58.4019 85.9195 58.4019C85.6998 58.4019 85.5241 58.4898 85.3923 58.6215C85.2606 58.7533 85.2166 58.8851 85.2166 59.1047C85.2166 59.1926 85.2166 59.2804 85.2606 59.3683C85.2606 59.4122 85.3045 59.5001 85.3045 59.5879C85.3045 59.6758 85.2166 59.7636 85.1288 59.8515C84.997 59.9393 84.8652 59.9393 84.6895 59.9393C84.4699 59.9393 84.2942 59.8515 84.1185 59.6758C83.9428 59.5001 83.8549 59.2365 83.8549 58.8851C83.8549 58.6215 83.8989 58.4019 83.9867 58.1823C84.0746 57.9627 84.2064 57.787 84.3821 57.6552C84.5138 57.5234 84.7335 57.4355 84.9531 57.3477C85.1727 57.2598 85.3923 57.2598 85.6559 57.2598C85.8755 57.2598 86.0512 57.2598 86.2269 57.3038C86.3587 57.3916 86.4905 57.4355 86.6223 57.5234V56.3813H80.9558C80.6484 56.3813 80.4727 56.2056 80.4727 55.8103C80.4727 55.7224 80.4727 55.5907 80.4727 55.5028C80.5166 55.415 80.5605 55.3271 80.5605 55.2393H91.8934Z" fill="#373435"/>
<path d="M92.9534 63.673C92.9534 63.4095 93.0412 63.1898 93.2169 63.0141C93.3926 62.8823 93.6122 62.7945 93.8758 62.7945C94.0954 62.7945 94.3151 62.8823 94.4908 63.0581C94.6665 63.1898 94.7543 63.4095 94.7543 63.673C94.7543 63.8926 94.6665 64.1123 94.4908 64.288C94.3151 64.4198 94.0954 64.5076 93.8758 64.5076C93.6122 64.5076 93.3926 64.4198 93.2169 64.288C93.0412 64.1123 92.9534 63.8926 92.9534 63.673ZM99.1908 56.3813V63.6291C99.103 63.673 99.0151 63.7609 98.8833 63.8048C98.7076 63.8487 98.5759 63.8926 98.3562 63.8926C98.3123 63.8926 98.2245 63.8487 98.1805 63.8487C97.6973 63.5412 97.2581 63.2777 96.8628 63.0141C96.4235 62.7506 95.9842 62.5309 95.545 62.2674C95.1497 62.0478 94.7104 61.8281 94.2711 61.6524C93.8319 61.4328 93.3926 61.2132 92.9094 61.0375C92.8216 60.9057 92.7777 60.73 92.7337 60.5543C92.6898 60.3347 92.6459 60.115 92.6459 59.9393C92.6459 59.8954 92.6459 59.8515 92.6459 59.7636C92.6459 59.7197 92.6459 59.6758 92.6898 59.6318C92.8216 59.544 92.9973 59.4561 93.173 59.3683C93.3926 59.2365 93.6122 59.1487 93.8319 59.0169C94.0515 58.929 94.2711 58.7972 94.4908 58.7094C94.7104 58.6215 94.8861 58.5337 95.0179 58.4458L92.6459 57.4355C92.5141 57.3477 92.3823 57.3038 92.3384 57.2159C92.2505 57.172 92.2505 57.0402 92.2505 56.9084C92.2505 56.8206 92.2505 56.7327 92.2945 56.6449C92.3384 56.557 92.3823 56.4692 92.4263 56.3813H91.8113C91.4599 56.3813 91.2842 56.2056 91.2842 55.8103C91.2842 55.7224 91.2842 55.5907 91.3281 55.5028C91.3281 55.415 91.372 55.3271 91.416 55.2393H100.509C100.86 55.2393 100.992 55.4589 100.992 55.8542C100.992 55.9421 100.992 56.0299 100.992 56.1178C100.948 56.2496 100.948 56.3374 100.904 56.3813H99.1908ZM96.3796 57.8748C96.4235 57.9627 96.4235 58.0505 96.4235 58.1384C96.4235 58.2262 96.4235 58.3141 96.4235 58.4458C96.4235 58.5337 96.4235 58.6655 96.4235 58.7533C96.3796 58.8851 96.3796 58.973 96.3356 59.0608C96.2039 59.1487 96.0282 59.2365 95.8525 59.3244C95.6328 59.4561 95.4571 59.544 95.2375 59.6318C95.0618 59.7636 94.8861 59.8515 94.7104 59.9393C94.4908 60.0272 94.359 60.115 94.2272 60.2029C94.7982 60.4664 95.3693 60.73 96.0282 61.0814C96.6871 61.4328 97.2581 61.8281 97.8291 62.1795C97.8291 62.0478 97.8291 61.916 97.8291 61.7403C97.7852 61.5646 97.7852 61.3889 97.7852 61.1692C97.7852 60.9935 97.7413 60.8178 97.7413 60.6861C97.7413 60.5104 97.7413 60.3347 97.7413 60.2468V56.3813H93.4365C93.6122 56.4692 93.8758 56.601 94.1394 56.6888C94.4029 56.8206 94.6665 56.9524 94.93 57.1281C95.2375 57.2598 95.5011 57.3916 95.7646 57.5234C96.0282 57.6552 96.2039 57.787 96.3796 57.8748Z" fill="#373435"/>
<path d="M100.131 56.3813C99.7792 56.3813 99.6035 56.2056 99.6035 55.8103C99.6035 55.7224 99.6035 55.5907 99.6035 55.5028C99.6474 55.415 99.6914 55.3271 99.6914 55.2393H101.185C101.492 55.2393 101.712 55.3271 101.932 55.415C102.151 55.5467 102.283 55.6785 102.415 55.8981C102.459 55.6785 102.59 55.5028 102.766 55.415C102.942 55.3271 103.118 55.2393 103.381 55.2393H104.172C104.348 55.2393 104.435 55.2832 104.567 55.371C104.655 55.5028 104.699 55.6346 104.699 55.8542C104.699 55.9421 104.699 56.0299 104.655 56.1178C104.655 56.2496 104.611 56.3374 104.567 56.3813H103.513C103.293 56.3813 103.162 56.4253 103.03 56.557C102.942 56.6449 102.854 56.8206 102.854 57.0402V63.8487C102.81 63.8487 102.722 63.8487 102.634 63.8926C102.503 63.8926 102.415 63.9366 102.239 63.9366C102.019 63.9366 101.8 63.8487 101.668 63.7609C101.492 63.673 101.448 63.4973 101.448 63.2338V56.8645C101.448 56.557 101.273 56.3813 101.009 56.3813H100.131Z" fill="#373435"/>
</svg>
