<svg width="196" height="44" viewBox="0 0 196 44" fill="none" xmlns="http://www.w3.org/2000/svg">
<g opacity="0.45">
<path d="M140.888 36.1216L139.383 32.2755H134.431L132.943 36.1216H131.351L136.233 23.6433H137.65L142.515 36.1216H140.888ZM137.51 27.124C137.475 27.0312 137.417 26.863 137.335 26.6193C137.254 26.3757 137.172 26.1262 137.09 25.871C137.02 25.6041 136.962 25.4011 136.916 25.2618C136.834 25.6215 136.741 25.9754 136.636 26.3235C136.531 26.6599 136.443 26.9268 136.373 27.124L134.956 30.8832H138.91L137.51 27.124Z" fill="#FF7F11"/>
<path d="M84.3813 18.5608V20.0635H81.6404V24.0531H75.6507C74.7477 24.0531 74.2962 24.3106 74.2962 24.8256C74.2962 25.1148 74.4514 25.5134 74.7618 26.0214C75.0793 26.5294 75.3756 26.8962 75.6507 27.122C76.716 26.4235 77.7425 26.0743 78.7302 26.0743C79.6968 26.0743 80.5434 26.4271 81.27 27.1326C81.9967 27.8381 82.36 28.5929 82.36 29.3972C82.36 30.5613 81.7039 31.6689 80.3917 32.7201L79.1747 31.5243C80.7973 30.4378 81.6087 29.5348 81.6087 28.8152C81.6087 28.3989 81.4429 28.0603 81.1113 27.7993C80.7797 27.5312 80.3458 27.3971 79.8096 27.3971C78.8572 27.3971 77.9118 27.6934 76.9735 28.286C76.0352 28.8716 75.5661 29.6018 75.5661 30.4766C75.5661 31.4996 76.3139 32.5614 77.8095 33.6619C79.3123 34.7625 81.3617 35.6938 83.958 36.4557L83.8204 36.9002L83.0479 36.6462C80.4587 35.7925 78.3069 34.7308 76.5926 33.4609C74.8782 32.198 74.021 30.9422 74.021 29.6935C74.021 28.9386 74.4267 28.1908 75.238 27.45C74.1092 26.1378 73.5448 25.069 73.5448 24.2435C73.5448 23.1147 74.4232 22.5503 76.1798 22.5503H79.9684V20.0635H72.2432V18.5608H80.5504L78.9313 16.4548C77.8166 15.0015 76.6666 14.2749 75.4814 14.2749H74.3067L73.6295 12.4758H74.4443C75.2274 12.4758 75.9576 12.6875 76.6349 13.1108C77.3122 13.527 78.1658 14.4336 79.1958 15.8305L81.2171 18.5608H84.3813Z" fill="#98A0A0"/>
<path d="M168.671 12.4463C168.478 12.433 168.283 12.4264 168.084 12.4264C167.276 12.4264 166.626 12.6219 166.136 13.0129C165.652 13.4039 165.41 13.9507 165.41 14.6532C165.41 16.1908 166.414 16.9595 168.422 16.9595C169.635 16.9595 170.705 16.6679 171.633 16.0847C172.568 15.5015 173.293 14.7062 173.81 13.6989C174.327 12.6849 174.586 11.6742 174.586 10.6668C174.586 9.61968 174.427 8.82439 174.108 8.28095C173.79 7.73087 173.326 7.45583 172.717 7.45583C172.266 7.45583 171.908 7.59501 171.643 7.87336C171.385 8.14508 171.255 8.47645 171.255 8.86747C171.255 9.5766 171.494 10.1234 171.971 10.5078C172.455 10.8921 173.171 11.1771 174.118 11.3627L173.611 12.824C170.967 12.1215 169.645 10.8325 169.645 8.95694C169.645 8.08212 169.91 7.36968 170.44 6.8196C170.977 6.2629 171.703 5.98455 172.617 5.98455C173.717 5.98455 174.599 6.38882 175.262 7.19736C175.924 8.00591 176.256 9.16239 176.256 10.6668C176.256 11.9525 175.934 13.2117 175.291 14.4444C174.655 15.6705 173.744 16.6447 172.558 17.3671C171.371 18.0895 170.006 18.4507 168.462 18.4507C166.977 18.4507 165.824 18.1094 165.002 17.4268C164.181 16.7441 163.77 15.8263 163.77 14.6731C163.77 13.6458 164.114 12.7909 164.804 12.1083C164.147 11.6709 163.66 11.1871 163.342 10.6569C163.031 10.1267 162.875 9.5269 162.875 8.85753C162.875 8.0291 163.18 7.34317 163.79 6.79972C164.406 6.25627 165.231 5.98455 166.265 5.98455C166.934 5.98455 167.567 6.05745 168.164 6.20325L167.885 7.6646C167.329 7.53868 166.848 7.47572 166.444 7.47572C165.834 7.47572 165.36 7.61158 165.022 7.8833C164.684 8.1484 164.515 8.51291 164.515 8.97682C164.515 9.48713 164.654 9.92123 164.933 10.2791C165.218 10.637 165.642 10.9584 166.205 11.2434C166.762 11.0379 167.382 10.9352 168.064 10.9352C168.23 10.9352 168.495 10.9485 168.86 10.975L168.671 12.4463Z" fill="#F3C2A0"/>
<path d="M172.687 5.1992C172.342 3.93337 171.958 3.00222 171.534 2.40575C171.103 1.80928 170.536 1.51105 169.834 1.51105C169.463 1.51105 169.111 1.57401 168.78 1.69993L168.303 0.248528C168.846 0.0828426 169.393 0 169.943 0C170.785 0 171.461 0.202136 171.971 0.606408C172.475 1.00405 172.899 1.59389 173.244 2.37593C173.582 3.15796 173.88 4.09905 174.138 5.1992H172.687Z" fill="#F3C2A0"/>
<path d="M99.8271 13.5942C99.8271 12.7271 100.011 11.9656 100.38 11.3097C100.748 10.6427 101.256 10.1257 101.903 9.75886C102.562 9.38088 103.326 9.19189 104.197 9.19189C105.079 9.19189 105.843 9.37532 106.491 9.74218C107.149 10.0979 107.663 10.6037 108.031 11.2596C108.4 11.9155 108.584 12.6882 108.584 13.5775C108.584 13.9889 108.539 14.3835 108.45 14.7615C108.885 15.3173 109.326 15.7342 109.772 16.0121C110.219 16.2789 110.704 16.4123 111.229 16.4123C111.798 16.4123 112.234 16.2345 112.535 15.8787C112.836 15.5119 112.987 14.9894 112.987 14.3112C112.987 13.6665 112.853 13.1051 112.585 12.627C112.329 12.1379 111.977 11.721 111.53 11.3764C111.095 11.0206 110.598 10.7205 110.04 10.4759L110.66 9.19189C111.352 9.48093 111.977 9.87003 112.535 10.3592C113.093 10.8483 113.54 11.4153 113.874 12.0601C114.209 12.7048 114.377 13.4219 114.377 14.2112C114.377 14.4446 114.366 14.6614 114.343 14.8615C114.767 15.384 115.197 15.7731 115.632 16.0288C116.068 16.2845 116.537 16.4123 117.039 16.4123C117.608 16.4123 118.043 16.2345 118.345 15.8787C118.646 15.5119 118.797 14.9894 118.797 14.3112C118.797 13.6665 118.663 13.1051 118.395 12.627C118.138 12.1379 117.787 11.721 117.34 11.3764C116.905 11.0206 116.408 10.7205 115.85 10.4759L116.47 9.19189C117.162 9.48093 117.787 9.87003 118.345 10.3592C118.903 10.8483 119.349 11.4153 119.684 12.0601C120.019 12.7048 120.187 13.4219 120.187 14.2112C120.187 15.3118 119.907 16.1733 119.349 16.7959C118.791 17.4184 117.982 17.7297 116.922 17.7297C116.308 17.7297 115.75 17.5963 115.247 17.3295C114.756 17.0627 114.315 16.7069 113.925 16.2623C113.668 16.7292 113.3 17.0905 112.82 17.3462C112.351 17.6019 111.782 17.7297 111.112 17.7297C110.431 17.7297 109.828 17.5741 109.304 17.2628C108.779 16.9404 108.31 16.518 107.897 15.9955C107.529 16.5402 107.027 16.9682 106.39 17.2795C105.765 17.5796 105.034 17.7297 104.197 17.7297C103.315 17.7297 102.545 17.5574 101.887 17.2128C101.239 16.8681 100.731 16.3901 100.363 15.7787C100.006 15.1561 99.8271 14.428 99.8271 13.5942ZM101.217 13.4441C101.217 14.3112 101.468 15.0227 101.97 15.5786C102.473 16.1344 103.215 16.4123 104.197 16.4123C105.19 16.4123 105.938 16.1455 106.441 15.6119C106.943 15.0672 107.194 14.3724 107.194 13.5275C107.194 12.9717 107.082 12.4658 106.859 12.01C106.647 11.5542 106.318 11.1929 105.871 10.9261C105.436 10.6482 104.878 10.5093 104.197 10.5093C103.516 10.5093 102.952 10.6482 102.506 10.9261C102.071 11.1929 101.747 11.5487 101.535 11.9934C101.323 12.438 101.217 12.9216 101.217 13.4441Z" fill="#FF7F11"/>
<path d="M105.524 35.2125V36.0913H103.88C103.94 36.1967 103.982 36.308 104.006 36.4252C104.042 36.5424 104.06 36.6654 104.06 36.7943C104.06 37.2044 103.964 37.5851 103.771 37.9366C103.579 38.2764 103.313 38.5401 102.976 38.7275C103.362 38.9501 103.669 39.2665 103.898 39.6766C104.127 40.075 104.241 40.5202 104.241 41.0123C104.241 41.8325 103.813 42.5355 102.958 43.1213C102.115 43.7071 101.097 44.0001 99.9041 44.0001C99.2054 44.0001 98.6091 43.8126 98.1151 43.4377C97.6212 43.0627 97.3742 42.6058 97.3742 42.0668C97.3742 41.6333 97.585 41.2642 98.0067 40.9596C98.4284 40.6432 98.9404 40.485 99.5427 40.485C100.037 40.485 100.561 40.6491 101.115 40.9771C101.669 41.2935 102.199 41.7446 102.705 42.3304C102.91 42.1312 103.067 41.9203 103.175 41.6977C103.283 41.4634 103.338 41.2349 103.338 41.0123C103.338 40.6842 103.223 40.3679 102.994 40.0632C102.765 39.7469 102.458 39.4774 102.073 39.2548C101.844 39.3134 101.561 39.3602 101.223 39.3954C100.898 39.4188 100.519 39.4305 100.085 39.4305C99.4825 39.4305 98.9705 39.3485 98.5488 39.1845C98.1272 39.0087 97.9163 38.7978 97.9163 38.5518C97.9163 38.3526 98.073 38.1886 98.3862 38.0597C98.7115 37.9191 99.097 37.8488 99.5427 37.8488C99.88 37.8488 100.235 37.8898 100.609 37.9718C100.994 38.0421 101.392 38.1476 101.802 38.2882C102.211 38.1007 102.536 37.8722 102.777 37.6027C103.03 37.3332 103.157 37.0638 103.157 36.7943C103.157 36.6654 103.133 36.5424 103.085 36.4252C103.036 36.308 102.97 36.1967 102.886 36.0913H96.543V35.2125H105.524ZM98.2778 42.1547C98.2778 42.4242 98.4344 42.6526 98.7476 42.8401C99.0729 43.0276 99.4584 43.1213 99.9041 43.1213C100.266 43.1213 100.633 43.0803 101.006 42.9983C101.392 42.9046 101.777 42.7698 102.163 42.5941C101.681 42.1957 101.211 41.8911 100.753 41.6802C100.308 41.4693 99.9041 41.3638 99.5427 41.3638C99.1933 41.3638 98.8922 41.44 98.6392 41.5923C98.3982 41.7446 98.2778 41.9321 98.2778 42.1547Z" fill="#98A0A0"/>
<path d="M102.811 33.9822C102.811 33.3027 103.058 32.7227 103.552 32.2423C104.046 31.7619 104.642 31.5217 105.341 31.5217C106.04 31.5217 106.636 31.7619 107.13 32.2423C107.624 32.7227 107.871 33.3027 107.871 33.9822V35.2125H109.678V36.0913H107.871V44.0001H106.967V36.0913H105.16V35.2125H106.967V33.9822C106.967 33.5487 106.805 33.1796 106.48 32.875C106.166 32.5587 105.787 32.4005 105.341 32.4005C104.895 32.4005 104.516 32.5587 104.203 32.875C103.877 33.1796 103.715 33.5487 103.715 33.9822V35.2125H102.811V33.9822Z" fill="#98A0A0"/>
<path opacity="0.4" d="M47.9516 2.6272C48.724 2.6272 49.3538 2.7645 49.8411 3.0391C50.3283 3.30226 50.7204 3.66839 51.0175 4.1375C51.4335 3.57686 51.885 3.18784 52.3723 2.97045C52.8595 2.74161 53.4537 2.6272 54.1548 2.6272C55.0698 2.6272 55.8423 2.83887 56.4721 3.26221C57.1138 3.67411 57.601 4.23476 57.9338 4.94415C58.2784 5.65353 58.4507 6.44873 58.4507 7.32974C58.4507 8.46247 58.213 9.43502 57.7377 10.2474C57.2742 11.0597 56.5909 11.8035 55.6878 12.4785L54.743 11.4316C55.3729 10.9968 55.8839 10.4591 56.276 9.81832C56.6801 9.16614 56.8821 8.33662 56.8821 7.32974C56.8821 6.66612 56.7692 6.07688 56.5434 5.562C56.3176 5.03568 55.9968 4.62378 55.5808 4.32629C55.1768 4.01737 54.6955 3.8629 54.137 3.8629C53.6379 3.8629 53.2279 3.94872 52.907 4.12034C52.598 4.28053 52.3485 4.52652 52.1584 4.85833C52.0039 5.12149 51.9029 5.43042 51.8553 5.78511C51.8078 6.13981 51.784 6.65468 51.784 7.32974V12.3412H50.251V6.91784C50.251 6.32287 50.2035 5.82516 50.1084 5.4247C50.0252 5.02424 49.8648 4.70387 49.6271 4.46359C49.4489 4.26908 49.2231 4.12034 48.9498 4.01737C48.6765 3.91439 48.3378 3.8629 47.9337 3.8629C47.5653 3.8629 47.2445 3.92583 46.9712 4.05169C46.6978 4.16611 46.4661 4.32057 46.276 4.51508C46.0502 4.75536 45.8838 5.06428 45.7769 5.44186C45.6699 5.81944 45.6164 6.36292 45.6164 7.07231V12.3412H44.0834V7.32974C44.0834 6.67757 44.0597 6.16841 44.0121 5.80227C43.9646 5.4247 43.8577 5.11005 43.6913 4.85833C43.2872 4.19471 42.6574 3.8629 41.8018 3.8629C41.2551 3.8629 40.7679 4.01737 40.3401 4.32629C39.9242 4.62378 39.5974 5.03568 39.3597 5.562C39.122 6.07688 39.0032 6.66612 39.0032 7.32974C39.0032 8.37094 39.2112 9.21191 39.6271 9.85264C40.0549 10.4934 40.56 11.0083 41.1423 11.3973L40.1084 12.4785C39.5974 12.0781 39.1399 11.6433 38.7358 11.1742C38.3318 10.6936 38.0109 10.1444 37.7733 9.52655C37.5475 8.89726 37.4346 8.16499 37.4346 7.32974C37.4346 6.40297 37.6128 5.5906 37.9693 4.89266C38.3377 4.18327 38.8547 3.62835 39.5201 3.22789C40.1856 2.82743 40.9699 2.6272 41.8731 2.6272C42.6336 2.6272 43.2457 2.77594 43.7091 3.07342C44.1726 3.35947 44.5528 3.71988 44.8499 4.15467C45.5986 3.13635 46.6325 2.6272 47.9516 2.6272Z" fill="#FF7F11"/>
<path d="M7.09519 29.9415V30.3205L6.91082 30.4954C6.67147 30.7092 6.5518 31.004 6.5518 31.3798C6.68118 31.5741 6.95287 31.7134 7.36688 31.7976C7.71621 31.8819 7.94586 31.9855 8.05583 32.1086C8.36634 32.4196 8.51836 32.9249 8.51189 33.6246C8.46014 34.9657 8.16903 36.1416 7.63858 37.1523C7.134 38.1565 6.43536 39.0182 5.54264 39.7373C4.77284 40.3528 3.94481 40.6605 3.05857 40.6605C2.1982 40.6346 1.5416 40.356 1.08877 39.8248C0.331905 38.9501 -0.0303563 37.7419 0.00198841 36.1999C0.0408021 35.0338 0.296326 33.6829 0.768559 32.1475C1.05319 31.1886 1.22139 30.6865 1.27314 30.6412C1.38958 30.557 1.47367 30.5796 1.52543 30.7092C1.5513 30.7999 1.53836 30.9522 1.48661 31.166C1.18257 32.4164 0.975565 33.4627 0.865593 34.3049C0.716807 35.5359 0.917344 36.5627 1.4672 37.3855C1.66127 37.6771 1.92973 37.9103 2.27259 38.0852C2.91301 38.4092 3.69252 38.4221 4.61111 38.1241C5.91784 37.6835 6.87848 36.8413 7.49303 35.5974C7.66122 35.2475 7.74532 34.9528 7.74532 34.7131V34.4895C7.56419 34.3146 7.27309 34.1786 6.87201 34.0814C6.12161 33.9583 5.68819 33.5598 5.57175 32.8861C5.50059 32.4714 5.52 31.9466 5.62997 31.3117C5.82404 30.7027 6.18954 30.1456 6.72646 29.6402C6.74587 29.6467 6.81056 29.6985 6.92053 29.7957L7.09519 29.9415Z" fill="#4D82F7"/>
<path d="M9.17172 31.1271L9.22994 31.1854C9.06822 31.7814 8.85798 32.6885 8.59922 33.9065C8.51512 34.36 8.47307 34.7843 8.47307 35.1795C8.47307 36.5465 8.92267 37.4762 9.82185 37.9686C10.3846 38.2731 11.0024 38.4254 11.6752 38.4254C12.7102 38.4254 13.7097 38.1144 14.6736 37.4924C15.6957 36.8446 16.3587 36.0412 16.6628 35.0823C16.7145 34.739 16.7404 34.3341 16.7404 33.8676C16.7404 33.7121 16.721 33.1484 16.6822 32.1766C16.6563 31.4899 16.6628 30.9327 16.7016 30.5051C16.8892 29.786 17.1415 29.0571 17.4584 28.3186C17.549 28.2214 17.6363 28.2149 17.7204 28.2991C17.7463 28.5388 17.7301 29.1802 17.6719 30.2233C17.659 31.0072 17.646 31.7912 17.6331 32.5751C17.5943 33.5015 17.4908 34.2498 17.3226 34.82C16.8439 36.3489 16.1194 37.6771 15.149 38.8044C14.3533 39.5624 13.48 40.1066 12.5291 40.437C11.9857 40.6249 11.4294 40.7188 10.8601 40.7188C10.2262 40.7188 9.6763 40.599 9.21053 40.3593C8.1755 39.679 7.65799 38.4448 7.65799 36.6567C7.65799 35.646 7.82295 34.5252 8.15286 33.2942C8.15286 33.197 8.18197 33.0772 8.24019 32.9346C8.30488 32.7856 8.33723 32.6787 8.33723 32.614C8.44073 32.2835 8.63803 31.8074 8.92914 31.1854C9.02617 31.0493 9.10703 31.0299 9.17172 31.1271Z" fill="#4D82F7"/>
<path d="M192.387 26.6803C192.387 26.9896 192.492 27.2568 192.704 27.4817C192.93 27.6926 193.192 27.798 193.488 27.798C193.799 27.798 194.06 27.6926 194.272 27.4817C194.498 27.2568 194.611 26.9896 194.611 26.6803C194.611 26.3851 194.498 26.132 194.272 25.9212C194.06 25.7103 193.799 25.6048 193.488 25.6048C193.192 25.6048 192.93 25.7103 192.704 25.9212C192.492 26.132 192.387 26.3851 192.387 26.6803ZM189.675 27.2286H189.505C189.209 27.7488 188.82 28.1565 188.34 28.4518C187.874 28.747 187.373 28.8946 186.836 28.8946C185.847 28.8946 185 28.494 184.294 27.6926C183.587 26.8772 183.234 25.9001 183.234 24.7613C183.234 23.2008 183.785 21.8441 184.887 20.6912C186.003 19.5384 187.38 18.8846 189.018 18.73L188.806 16.2205V15.1028H190.437V16.2205L190.204 18.8144C191.193 18.8987 192.097 19.0885 192.916 19.3837C193.75 19.679 194.456 20.0797 195.035 20.5858L194.081 21.5137C193.516 21.0497 192.853 20.6912 192.09 20.4382C191.327 20.1851 190.508 20.0586 189.632 20.0586C188.545 20.0586 187.584 20.2905 186.751 20.7545C185.932 21.2044 185.381 21.8019 185.099 22.547H195.437V23.9388H184.739C184.696 24.0091 184.661 24.1146 184.633 24.2552C184.619 24.3958 184.611 24.5645 184.611 24.7613C184.611 25.5205 184.83 26.1672 185.268 26.7014C185.706 27.2357 186.229 27.5028 186.836 27.5028C187.472 27.5028 188.008 27.2357 188.446 26.7014C188.884 26.1672 189.103 25.5205 189.103 24.7613H190.12C190.12 25.3518 190.233 25.8649 190.459 26.3008C190.685 26.7225 190.988 27.0037 191.37 27.1443L191.285 26.6803C191.285 26.0758 191.497 25.5556 191.92 25.1198C192.358 24.684 192.881 24.4661 193.488 24.4661C194.11 24.4661 194.632 24.684 195.056 25.1198C195.494 25.5556 195.713 26.0758 195.713 26.6803C195.713 27.2849 195.458 27.8051 194.95 28.2409C194.456 28.6767 193.855 28.8946 193.149 28.8946C192.358 28.8946 191.652 28.747 191.031 28.4518C190.423 28.1565 189.971 27.7488 189.675 27.2286Z" fill="#2961AD"/>
<path d="M168.017 39.3741C167.024 39.3741 166.289 39.151 165.813 38.7046C165.336 38.2477 165.098 37.6632 165.098 36.9511C165.098 36.2604 165.341 35.7131 165.828 35.3093C166.324 34.8948 167.024 34.6876 167.926 34.6876C168.706 34.6876 169.395 34.8417 169.993 35.1499C170.591 35.458 171.113 35.8937 171.559 36.457C171.762 36.1063 171.909 35.7237 172 35.3093C172.091 34.8948 172.137 34.4644 172.137 34.0181C172.137 33.1254 171.985 32.4771 171.681 32.0733C171.377 31.6695 170.961 31.4676 170.434 31.4676C169.988 31.4676 169.623 31.6376 169.34 31.9777C169.056 32.3071 168.878 32.7534 168.808 33.3167H167.607C167.536 32.7109 167.348 32.254 167.044 31.9458C166.75 31.627 166.39 31.4676 165.965 31.4676C165.559 31.4676 165.26 31.5738 165.068 31.7864C164.875 31.9883 164.779 32.2593 164.779 32.5993C164.779 32.8013 164.804 33.0085 164.855 33.221C164.916 33.4229 164.976 33.5877 165.037 33.7152L163.882 34.0978C163.791 33.8959 163.71 33.6674 163.639 33.4123C163.568 33.1466 163.532 32.8438 163.532 32.5037C163.532 32.0361 163.639 31.6323 163.851 31.2922C164.064 30.9415 164.348 30.6758 164.703 30.4952C165.058 30.3039 165.448 30.2083 165.873 30.2083C166.4 30.2083 166.846 30.3198 167.211 30.543C167.576 30.7662 167.911 31.1328 168.215 31.6429C168.539 31.0478 168.909 30.6599 169.324 30.4792C169.74 30.2986 170.15 30.2083 170.556 30.2083C171.235 30.2083 171.782 30.3942 172.198 30.7662C172.613 31.1381 172.912 31.6163 173.095 32.2008C173.287 32.7853 173.384 33.3911 173.384 34.0181C173.384 34.5707 173.297 35.1605 173.125 35.7875C172.963 36.4039 172.674 36.9724 172.259 37.4931C172.451 37.8544 172.613 38.2264 172.745 38.609C172.877 38.9915 172.983 39.3901 173.064 39.8045L171.802 40.0596C171.681 39.4219 171.514 38.8534 171.301 38.3539C170.906 38.6515 170.434 38.8959 169.887 39.0872C169.35 39.2785 168.726 39.3741 168.017 39.3741ZM166.33 36.9352C166.33 37.3178 166.466 37.6207 166.74 37.8438C167.024 38.067 167.475 38.1786 168.093 38.1786C168.681 38.1786 169.193 38.1095 169.628 37.9713C170.074 37.8226 170.455 37.6207 170.769 37.3656C170.444 36.898 170.044 36.5314 169.568 36.2657C169.101 35.9894 168.554 35.8512 167.926 35.8512C167.409 35.8512 167.014 35.9469 166.74 36.1382C166.466 36.3295 166.33 36.5951 166.33 36.9352Z" fill="#2961AD"/>
</g>
</svg>
