<svg width="14" height="15" viewBox="0 0 14 15" fill="none" xmlns="http://www.w3.org/2000/svg">
<path d="M7 0.5C3.13438 0.5 0 3.63438 0 7.5C0 11.3656 3.13438 14.5 7 14.5C10.8656 14.5 14 11.3656 14 7.5C14 3.63438 10.8656 0.5 7 0.5ZM7 13.3125C3.79063 13.3125 1.1875 10.7094 1.1875 7.5C1.1875 4.29063 3.79063 1.6875 7 1.6875C10.2094 1.6875 12.8125 4.29063 12.8125 7.5C12.8125 10.7094 10.2094 13.3125 7 13.3125Z" fill="#666666"/>
<path d="M6.25073 10.75C6.25073 10.9489 6.32975 11.1397 6.4704 11.2803C6.61105 11.421 6.80182 11.5 7.00073 11.5C7.19964 11.5 7.39041 11.421 7.53106 11.2803C7.67171 11.1397 7.75073 10.9489 7.75073 10.75C7.75073 10.5511 7.67171 10.3603 7.53106 10.2197C7.39041 10.079 7.19964 10 7.00073 10C6.80182 10 6.61105 10.079 6.4704 10.2197C6.32975 10.3603 6.25073 10.5511 6.25073 10.75ZM6.62573 9H7.37573C7.44448 9 7.50073 8.94375 7.50073 8.875V4.625C7.50073 4.55625 7.44448 4.5 7.37573 4.5H6.62573C6.55698 4.5 6.50073 4.55625 6.50073 4.625V8.875C6.50073 8.94375 6.55698 9 6.62573 9Z" fill="#666666"/>
</svg>
