<svg width="218" height="268" viewBox="0 0 218 268" fill="none" xmlns="http://www.w3.org/2000/svg">
<path d="M86.0059 29.7979C84.9045 29.7979 84.0234 30.6685 84.0234 31.7568V50.0407C84.0234 51.129 84.9045 51.9997 86.0059 51.9997H131.381C132.483 51.9997 133.364 51.129 133.364 50.0407V31.7568C133.364 30.6685 132.483 29.7979 131.381 29.7979H86.0059ZM129.399 44.1637C129.399 45.2521 128.518 46.1227 127.416 46.1227H90.191C89.0896 46.1227 88.2086 45.2521 88.2086 44.1637V35.8925C88.2086 34.8041 89.0896 33.9335 90.191 33.9335H127.416C128.518 33.9335 129.399 34.8041 129.399 35.8925V44.1637Z" fill="#D1D4D8"/>
<path d="M140.045 0L114.918 37.8775H127.37L155.388 0H140.045Z" fill="#0FA711"/>
<path d="M127.377 0L102.473 37.8775H114.925L140.052 0H127.377Z" fill="white"/>
<path d="M114.92 0L90.0156 37.8775H102.468L127.373 0H114.92Z" fill="#FF7600"/>
<path d="M90.0177 37.8775H102.47L77.343 0H62L90.0177 37.8775Z" fill="#FF7600"/>
<path d="M102.471 37.8775H114.923L90.0184 0H77.3438L102.471 37.8775Z" fill="white"/>
<path opacity="0.5" d="M110.695 6.28027L104.469 15.6936L119.145 37.8823H127.372L129.596 34.7445L110.695 6.28027Z" fill="#3E4347"/>
<path d="M114.92 37.8775H127.373L102.468 0H90.0156L114.92 37.8775Z" fill="#0FA711"/>
<g filter="url(#filter0_ii)">
<path d="M218 159C218 219.199 169.199 268 109 268C48.801 268 0 219.199 0 159C0 98.801 48.801 50 109 50C169.199 50 218 98.801 218 159Z" fill="#34373C" fill-opacity="0.4"/>
</g>
<path d="M214.5 159C214.5 217.266 167.266 264.5 109 264.5C50.734 264.5 3.5 217.266 3.5 159C3.5 100.734 50.734 53.5 109 53.5C167.266 53.5 214.5 100.734 214.5 159Z" stroke="#DFDFDF" stroke-width="7"/>
<path d="M214.5 159C214.5 217.266 167.266 264.5 109 264.5C50.734 264.5 3.5 217.266 3.5 159C3.5 100.734 50.734 53.5 109 53.5C167.266 53.5 214.5 100.734 214.5 159Z" stroke="url(#paint0_linear)" stroke-width="7"/>
<path d="M214.5 159C214.5 217.266 167.266 264.5 109 264.5C50.734 264.5 3.5 217.266 3.5 159C3.5 100.734 50.734 53.5 109 53.5C167.266 53.5 214.5 100.734 214.5 159Z" stroke="url(#paint1_linear)" stroke-width="7"/>
<path d="M196 159C196 207.049 157.049 246 109 246C60.9512 246 22 207.049 22 159C22 110.951 60.9512 72 109 72C157.049 72 196 110.951 196 159Z" fill="#5C686B"/>
<path fill-rule="evenodd" clip-rule="evenodd" d="M109 87C69.2355 87 37 119.235 37 159C37 198.764 69.2355 231 109 231C148.764 231 181 198.764 181 159C181 119.235 148.764 87 109 87ZM7 159C7 102.667 52.667 57 109 57C165.333 57 211 102.667 211 159C211 215.333 165.333 261 109 261C52.667 261 7 215.333 7 159Z" fill="#6F7A7D"/>
<path d="M109.001 82C66.5595 82 32 116.357 32 159.001C32 201.645 66.3574 236.002 109.001 236.002C151.645 236.002 186.002 201.645 186.002 159.001C186.002 116.357 151.442 82 109.001 82ZM93.6412 89.4778C93.8433 89.4778 93.8433 89.4778 93.6412 89.4778C95.0559 92.5093 97.6833 94.3282 100.311 93.7219C102.938 93.3177 105.565 91.4988 105.767 87.861C106.172 87.861 106.576 87.861 106.98 87.861C106.98 98.7745 106.172 110.496 104.959 123.229C104.757 124.441 104.757 125.654 104.757 126.867C104.353 125.856 103.948 124.644 103.544 123.229C99.3001 112.517 95.4601 100.998 92.4286 89.6799C93.0349 89.6799 93.237 89.4778 93.6412 89.4778ZM76.0583 95.743C78.2814 98.3703 81.1109 99.3808 83.5361 98.1682C86.3655 96.9556 87.9823 94.1261 87.376 91.0946C87.7802 90.8925 88.1844 90.8925 88.5886 90.6904C91.216 101.2 93.8433 112.72 95.8643 125.452C96.0664 126.867 96.2685 127.877 96.6727 129.09C96.0664 128.079 95.4601 127.069 94.4496 125.856C87.5781 116.559 80.9088 106.454 75.0478 96.3493C75.2499 96.1472 75.6541 95.9451 76.0583 95.743ZM60.4964 106.656C63.3259 108.475 66.3574 108.678 68.3784 107.061C69.9952 105.848 70.8036 104.029 70.8036 102.21C70.8036 101.2 70.6015 100.189 69.9952 99.3808C70.3994 99.1787 70.6015 98.9766 71.0057 98.7745C76.4625 108.071 81.7172 118.783 87.1739 130.302C87.7802 131.515 88.3865 132.526 88.7907 133.536C87.9823 132.728 86.9718 131.919 85.9613 131.111C77.0688 123.633 67.9742 115.549 59.688 107.465C59.8901 107.061 60.2943 106.859 60.4964 106.656ZM48.3703 121.006C48.5724 121.006 48.5724 121.006 48.3703 121.006C51.6039 122.016 54.6355 121.612 56.0502 119.389C56.4544 118.783 57.4649 117.166 57.4649 115.549C57.4649 114.538 57.0607 112.922 55.8481 111.507C56.0502 111.305 56.4544 110.901 56.6565 110.699C64.3364 118.378 72.2184 127.271 80.5046 136.972C81.313 137.982 82.1214 138.791 82.9298 139.599C81.9193 138.993 80.7067 138.589 79.494 137.982C68.9847 133.132 58.0712 127.675 47.764 122.016C47.9661 121.612 48.1682 121.41 48.3703 121.006ZM40.4883 137.982C40.4883 137.982 40.4883 137.78 40.4883 137.982C43.924 138.184 46.5514 136.972 47.5619 134.344C47.764 133.738 47.9661 132.93 47.9661 131.717C47.9661 130.505 47.5619 128.281 45.1367 126.665C45.3388 126.26 45.5409 126.058 45.743 125.654C55.0397 131.111 65.1448 137.578 75.452 144.854C76.4625 145.662 77.6751 146.269 78.4835 146.875C77.473 146.673 76.0583 146.471 74.6436 146.066C63.3259 144.45 51.4018 142.024 39.882 138.993C40.2862 138.791 40.4883 138.387 40.4883 137.982ZM37.2547 156.374C37.2547 156.374 37.2547 156.172 37.2547 156.374C40.4883 155.767 42.9135 153.746 43.1156 151.119C43.1156 150.917 43.1156 150.715 43.1156 150.311C43.1156 147.885 41.903 145.258 38.8715 144.248C38.8715 143.843 39.0736 143.439 39.0736 143.035C49.5829 145.864 60.9006 149.704 72.8247 153.948C74.0373 154.353 75.2499 154.757 76.2604 154.959C75.0478 154.959 73.8352 155.161 72.4205 155.161C61.1027 156.576 48.7745 157.182 37.0526 157.384C37.2547 157.182 37.2547 156.778 37.2547 156.374ZM38.8715 175.169C38.8715 174.967 38.8715 174.967 38.8715 175.169C41.4988 173.754 43.1156 171.733 43.1156 169.308C43.1156 169.106 43.1156 168.702 43.1156 168.5C42.7114 165.872 40.8925 163.245 37.2547 163.043C37.2547 162.639 37.2547 162.235 37.2547 161.83C48.1682 161.83 59.8901 162.437 72.6226 163.447C74.0373 163.649 75.2499 163.649 76.2604 163.649C75.2499 164.054 74.0373 164.458 72.6226 164.862C61.9111 169.106 50.3913 172.946 39.0736 176.18C39.0736 175.978 39.0736 175.573 38.8715 175.169ZM45.3387 192.752C45.3387 192.752 45.3387 192.55 45.3387 192.752C47.1577 191.135 48.1682 189.316 48.1682 187.295C48.1682 186.487 47.9661 185.881 47.764 185.274C46.7535 182.849 44.3282 180.828 40.6904 181.636C40.4883 181.232 40.4883 180.828 40.2862 180.424C50.7955 177.594 62.3153 175.169 74.8457 172.946C76.2604 172.744 77.2709 172.34 78.4835 172.138C77.473 172.744 76.4625 173.35 75.2499 174.361C65.9532 181.232 55.8481 187.902 45.743 193.965C45.743 193.358 45.5409 193.156 45.3387 192.752ZM56.2523 208.112C57.2628 206.495 57.667 205.08 57.667 203.463C57.667 202.251 57.2628 201.038 56.4544 200.23C54.8376 198.209 51.806 196.794 48.5724 198.411C48.3703 198.007 48.1682 197.805 47.9661 197.4C57.2628 191.944 67.9742 186.487 79.494 181.03C80.7067 180.424 81.7172 179.818 82.7277 179.413C81.9193 180.222 81.1109 181.232 80.3024 182.243C73.2289 191.337 65.1448 200.432 57.0607 208.92C56.8586 208.718 56.4544 208.516 56.2523 208.112ZM70.6015 220.036C70.8036 218.823 71.0057 217.813 71.0057 216.802C71.0057 214.781 70.1973 213.164 68.7826 212.356C66.7616 210.941 63.528 210.133 60.9006 212.76C60.4964 212.558 60.2943 212.154 60.0922 211.952C67.7721 204.272 76.4625 196.188 86.1634 188.104C87.1739 187.295 87.9823 186.487 88.7907 185.678C88.1844 186.689 87.7802 187.902 87.1739 189.114C82.7277 199.624 77.473 210.537 71.612 220.642C71.4099 220.44 71.0057 220.238 70.6015 220.036ZM87.5781 227.918C87.7802 224.482 86.3655 221.855 83.9403 220.844C81.5151 220.036 78.2814 220.238 76.2604 223.27C75.8562 223.067 75.6541 222.865 75.2499 222.663C80.7066 213.367 86.9718 203.261 94.2475 192.752C95.0559 191.539 95.6622 190.529 96.2685 189.721C96.0664 190.731 95.8643 192.146 95.4601 193.56C93.8433 204.878 91.4181 216.802 88.5886 228.322C88.3865 228.12 87.9823 228.12 87.5781 227.918ZM105.969 230.949C105.363 227.716 103.342 225.291 100.715 225.088C98.0874 224.886 95.0559 225.897 94.0454 229.333C93.6412 229.333 93.237 229.13 92.8328 229.13C95.6622 218.621 99.3001 207.303 103.544 195.379C103.948 194.167 104.353 192.954 104.555 191.944C104.555 193.156 104.757 194.369 104.757 195.784C106.172 207.101 106.98 219.43 107.182 231.151C106.778 231.151 106.374 231.151 105.969 230.949ZM178.928 144.45C176.301 145.864 174.482 147.885 174.482 150.311C174.482 150.513 174.482 150.917 174.482 151.119C174.886 153.746 176.705 156.374 180.343 156.576C180.343 156.98 180.343 157.384 180.343 157.788C169.632 157.788 157.708 156.98 144.975 155.767C143.56 155.565 142.348 155.565 141.337 155.565C142.348 155.161 143.56 154.757 144.975 154.353C155.687 150.108 167.206 146.269 178.524 143.237C178.726 143.641 178.726 144.045 178.928 144.45ZM172.663 126.867C172.663 126.867 172.663 127.069 172.663 126.867C170.844 128.484 169.834 130.302 169.834 132.323C169.834 133.132 170.036 133.738 170.238 134.344C171.248 136.77 173.674 138.791 177.312 138.184C177.514 138.589 177.514 138.993 177.716 139.397C167.206 142.024 155.485 144.45 142.954 146.673C141.539 146.875 140.529 147.077 139.316 147.481C140.327 146.875 141.337 146.269 142.55 145.46C151.847 138.387 161.952 131.717 172.057 125.856C172.259 126.26 172.461 126.463 172.663 126.867ZM162.154 111.709C161.143 113.326 160.537 114.943 160.537 116.357C160.537 117.57 160.941 118.783 161.75 119.591C163.366 121.612 166.196 123.027 169.43 121.41C169.632 121.814 169.834 122.016 170.036 122.42C160.537 127.675 150.028 133.132 138.306 138.184C137.093 138.791 136.083 139.195 135.072 139.801C135.881 138.993 136.689 137.982 137.7 136.972C144.975 128.079 153.059 118.985 161.345 110.699C161.548 111.103 161.952 111.305 162.154 111.709ZM147.603 99.1787C147.603 99.1787 147.805 99.3808 147.603 99.1787C147.4 100.391 146.996 101.402 146.996 102.412C146.996 104.231 147.805 105.848 149.219 106.859C151.24 108.273 154.474 109.082 157.101 106.656C157.303 106.859 157.708 107.263 157.91 107.465C150.23 115.145 141.337 123.027 131.434 131.111C130.424 131.919 129.413 132.728 128.807 133.536C129.413 132.526 129.818 131.515 130.424 130.1C135.072 119.591 140.529 108.678 146.39 98.5724C146.996 98.7745 147.198 98.9766 147.603 99.1787ZM130.626 91.2967C130.828 91.2967 130.828 91.2967 130.626 91.2967C130.424 94.7324 131.839 97.3598 134.264 98.3703C136.689 99.3808 139.923 99.1787 141.944 95.9451C142.348 96.1472 142.55 96.3493 142.954 96.5514C137.497 105.848 131.03 115.751 123.552 126.26C122.744 127.271 122.138 128.281 121.531 129.292C121.733 128.281 122.138 126.867 122.34 125.452C124.159 114.134 126.584 102.21 129.413 90.8925C130.02 90.8925 130.222 91.0946 130.626 91.2967ZM112.437 87.861C112.437 87.861 112.639 87.861 112.437 87.861C113.043 91.0946 115.064 93.5198 117.691 93.7219C120.319 93.924 123.35 92.9135 124.563 89.4778C124.967 89.4778 125.371 89.6799 125.775 89.6799C122.946 100.189 119.106 111.507 114.66 123.229C114.256 124.441 113.851 125.654 113.447 126.665C113.447 125.452 113.245 124.239 113.245 122.825C112.033 111.507 111.224 99.1787 111.224 87.4568C111.628 87.861 112.033 87.861 112.437 87.861ZM124.361 229.333C122.744 226.301 120.319 224.684 117.691 225.088C115.064 225.493 112.437 227.312 112.235 230.949C111.83 230.949 111.426 230.949 111.022 230.949C111.022 220.036 111.628 208.314 112.841 195.581C113.043 194.369 113.043 193.358 113.043 192.348C113.043 192.146 113.043 192.146 113.043 191.944C113.447 192.954 113.851 194.167 114.256 195.581C118.5 206.293 122.34 217.813 125.573 229.13C125.169 229.333 124.765 229.333 124.361 229.333ZM141.742 223.067C141.742 223.067 141.539 223.067 141.742 223.067C139.518 220.44 136.689 219.43 134.264 220.642C131.434 221.855 129.818 224.684 130.626 227.716C130.222 227.918 129.818 227.918 129.413 228.12C126.584 217.611 124.159 206.091 122.138 193.56C121.936 192.146 121.733 191.135 121.329 189.923C121.936 190.933 122.542 191.944 123.552 193.156C130.424 202.453 137.093 212.558 142.954 222.663C142.348 222.865 142.146 222.865 141.742 223.067ZM157.303 212.154C157.303 212.356 157.303 212.356 157.303 212.154C154.474 210.335 151.442 210.133 149.421 211.75C147.805 212.962 146.996 214.781 146.996 216.6C146.996 217.611 147.198 218.621 147.805 219.43C147.4 219.632 147.198 219.834 146.794 220.036C141.337 210.739 135.881 200.028 130.626 188.508C130.02 187.295 129.413 186.285 129.009 185.274C129.818 186.083 130.828 186.891 131.839 187.699C140.933 194.773 150.028 202.857 158.314 211.143C157.91 211.75 157.708 211.952 157.303 212.154ZM169.227 198.007C169.227 198.007 169.227 198.209 169.227 198.007C165.994 196.996 162.962 197.4 161.548 199.624C161.143 200.23 160.133 201.847 160.133 203.463C160.133 204.474 160.537 206.091 161.75 207.506C161.548 207.708 161.143 208.112 160.941 208.314C153.261 200.634 145.379 191.742 137.295 182.041C136.487 181.03 135.678 180.02 134.87 179.413C135.881 180.02 137.093 180.424 138.306 181.03C148.815 185.678 159.729 191.135 170.036 196.794C169.632 197.4 169.43 197.603 169.227 198.007ZM177.109 181.03C177.109 181.232 177.109 181.232 177.109 181.03C173.674 180.828 171.046 182.041 170.036 184.668C169.834 185.274 169.632 186.083 169.632 187.295C169.632 188.508 170.036 190.731 172.461 192.348C172.259 192.752 172.057 192.954 171.855 193.358C162.558 187.902 152.453 181.434 142.146 174.159C141.135 173.35 139.923 172.744 139.114 172.138C140.125 172.34 141.539 172.744 142.954 172.946C154.272 174.563 166.196 176.988 177.514 180.02C177.312 180.424 177.312 180.828 177.109 181.03ZM180.343 162.841C177.109 163.447 174.684 165.266 174.482 167.893C174.482 168.096 174.482 168.298 174.482 168.702C174.482 171.127 175.695 173.754 178.726 174.765C178.726 175.169 178.524 175.573 178.524 175.978C168.015 173.148 156.697 169.51 144.773 165.064C143.56 164.66 142.348 164.256 141.337 164.054C142.55 164.054 143.763 163.851 145.177 163.851C156.495 162.639 168.823 161.83 180.545 161.83C180.545 162.033 180.343 162.437 180.343 162.841Z" fill="#D1D4D8"/>
<circle cx="109" cy="159" r="77" stroke="url(#paint2_linear)" stroke-width="2"/>
<circle cx="109" cy="159" r="101" stroke="url(#paint3_linear)" stroke-width="2"/>
<g filter="url(#filter1_i)">
<circle cx="109" cy="159" r="50" fill="#6F7A7D"/>
</g>
<path fill-rule="evenodd" clip-rule="evenodd" d="M83.168 135.786V134H112.692V162.571H83.168V135.786ZM97.161 152.75L93.2143 148.931L87.2685 157.214H92.3942H93.8718H101.988H103.466H110.026L102.645 142.829L97.161 152.75ZM131.144 159H116.382V155.429H134.835V184H105.311V166.143H109.001V180.429H131.144V159ZM127.96 164.525V161.731H120.929V164.525H122.626V169.84H119.165C118.739 169.458 118.218 169.216 117.601 169.117C118.335 168.884 118.901 168.46 119.298 167.844C119.694 167.229 119.893 166.488 119.893 165.623C119.893 164.359 119.511 163.369 118.747 162.654C117.983 161.922 116.895 161.556 115.485 161.556C114.5 161.556 113.648 161.714 112.928 162.03V165.199C113.721 164.783 114.493 164.575 115.242 164.575C116.271 164.575 116.785 165.074 116.785 166.072C116.785 167.104 116.175 167.619 114.956 167.619H114.272V170.564H115.176C115.97 170.564 116.513 170.722 116.807 171.038C117.116 171.354 117.27 171.778 117.27 172.31C117.27 173.708 116.623 174.406 115.33 174.406C114.375 174.406 113.427 174.124 112.487 173.558V176.802C113.413 177.168 114.412 177.351 115.485 177.351C117.072 177.351 118.262 176.935 119.055 176.103C119.863 175.271 120.267 174.19 120.267 172.859V172.685H122.626V178.474H125.756V164.525H127.96Z" fill="white"/>
<path d="M54.6976 93.8997L49.0977 86.7996L51.3976 84.9996C52.1976 84.3996 52.8976 84.0996 53.4976 84.0996C54.0976 84.0996 54.6976 84.3996 55.1976 85.0996C55.4976 85.3996 55.5977 85.7996 55.5977 86.1996C55.5977 86.5996 55.4976 86.9997 55.2976 87.3997C55.7976 87.1997 56.1976 87.1996 56.6976 87.2996C57.1976 87.3996 57.5976 87.6996 57.8976 88.0996C58.3976 88.6996 58.5976 89.3996 58.4976 90.0996C58.3976 90.7996 57.8976 91.3996 57.1976 91.9996L54.6976 93.8997ZM52.3976 89.0996L53.7976 87.9996C54.1976 87.6996 54.4976 87.2997 54.4976 86.8997C54.5976 86.4997 54.4976 86.0996 54.1976 85.7996C53.8976 85.3996 53.5976 85.1996 53.1976 85.1996C52.7976 85.1996 52.3976 85.3996 51.8976 85.7996L50.4976 86.8997L52.3976 89.0996ZM52.9976 89.7996L54.9976 92.3997L56.5977 91.1996C56.9977 90.8996 57.2976 90.4996 57.3976 89.9996C57.4976 89.5996 57.3976 89.1996 56.9976 88.7996C56.2976 87.8996 55.4977 87.8996 54.5977 88.5996L52.9976 89.7996Z" fill="white"/>
<path d="M58.2969 83.8002C58.3969 83.0002 58.7969 82.4002 59.4969 81.9002C60.6969 81.1002 61.6969 81.4002 62.5969 82.7002L64.9969 86.4002L63.9969 87.0002L61.5969 83.3002C61.2969 82.9002 60.9969 82.7002 60.6969 82.6002C60.3969 82.5002 59.9969 82.6002 59.6969 82.9002C59.3969 83.1002 59.1969 83.4002 58.9969 83.7002C58.8969 84.0002 58.7969 84.4002 58.8969 84.7002L61.4969 88.7002L60.4969 89.3002L55.2969 81.3002L56.2969 80.7002L58.2969 83.8002Z" fill="white"/>
<path d="M69.7961 83.7993C69.6961 83.6993 69.4961 83.4993 69.2961 83.2993C69.0961 83.9993 68.6961 84.5993 67.9961 84.9993C67.3961 85.2993 66.7961 85.3993 66.2961 85.2993C65.6961 85.1993 65.2961 84.8994 65.0961 84.3994C64.7961 83.7994 64.6961 83.1993 64.9961 82.5993C65.2961 81.9993 65.7961 81.4993 66.6961 80.9993L67.6961 80.4993L67.3961 79.9993C67.1961 79.5993 66.8961 79.3993 66.5961 79.2993C66.2961 79.1993 65.8961 79.2993 65.4961 79.4993C65.0961 79.6993 64.8961 79.9993 64.6961 80.2993C64.5961 80.5993 64.5961 80.8993 64.6961 81.1993L63.6961 81.7993C63.4961 81.4993 63.4961 81.1993 63.4961 80.7993C63.4961 80.3993 63.6961 79.9993 63.9961 79.6993C64.2961 79.2993 64.5961 78.9993 64.9961 78.7993C65.6961 78.3993 66.2961 78.2994 66.8961 78.3994C67.4961 78.4994 67.8961 78.8993 68.2961 79.4993L69.7961 82.1993C70.0961 82.6993 70.3961 83.0994 70.6961 83.3994V83.4993L69.7961 83.7993ZM67.6961 83.9993C67.9961 83.7993 68.2961 83.5993 68.4961 83.2993C68.6961 82.9993 68.7961 82.6993 68.7961 82.2993L68.0961 81.0993L67.2961 81.4993C66.0961 82.1993 65.5961 82.8993 65.9961 83.5993C66.1961 83.8993 66.3961 84.0993 66.6961 84.1993C67.0961 84.1993 67.3961 84.0993 67.6961 83.9993Z" fill="white"/>
<path d="M74.7972 79.4002C74.6972 79.1002 74.4972 78.9002 74.1972 78.9002C73.8972 78.8002 73.4972 78.9002 72.8972 79.0002C72.2972 79.1002 71.7972 79.2002 71.3972 79.2002C70.9972 79.2002 70.6972 79.1002 70.4972 78.9002C70.2972 78.7002 70.0972 78.5002 69.8972 78.2002C69.6972 77.7002 69.6972 77.2001 69.9972 76.6001C70.2972 76.0001 70.6972 75.6002 71.3972 75.3002C72.0972 75.0002 72.6972 74.9001 73.2972 75.1001C73.8972 75.3001 74.2972 75.6002 74.5972 76.2002L73.4972 76.7002C73.3972 76.4002 73.0972 76.2001 72.7972 76.1001C72.4972 76.0001 72.0972 76.0002 71.6972 76.2002C71.2972 76.4002 71.0972 76.6002 70.8972 76.9002C70.7972 77.2002 70.7972 77.4002 70.8972 77.7002C70.9972 78.0002 71.1972 78.1001 71.4972 78.1001C71.7972 78.1001 72.1972 78.1002 72.7972 78.0002C73.3972 77.9002 73.8972 77.8002 74.2972 77.8002C74.6972 77.8002 74.9972 77.9001 75.2972 78.1001C75.5972 78.3001 75.7972 78.5002 75.8972 78.8002C76.0972 79.3002 76.0972 79.9002 75.7972 80.4002C75.4972 80.9002 74.9972 81.4002 74.2972 81.7002C73.7972 81.9002 73.2972 82.0002 72.8972 82.0002C72.3972 82.0002 71.9972 81.9002 71.6972 81.7002C71.2972 81.5002 71.0972 81.2002 70.8972 80.8002L71.8972 80.3002C72.0972 80.6002 72.2972 80.9002 72.6972 80.9002C73.0972 81.0002 73.4972 80.9002 73.8972 80.7002C74.2972 80.5002 74.5972 80.3002 74.6972 80.0002C74.7972 79.7002 74.8972 79.7002 74.7972 79.4002Z" fill="white"/>
<path d="M76.6992 74.2002C76.9992 73.4002 77.4992 72.9002 78.2992 72.6002C79.5992 72.1002 80.5992 72.6002 81.0992 74.1002L82.5992 78.3002L81.4992 78.7002L79.9992 74.5002C79.7992 74.0002 79.5992 73.7002 79.2992 73.6002C78.9992 73.5002 78.6992 73.5002 78.1992 73.6002C77.7992 73.7002 77.5992 73.9002 77.3992 74.2002C77.1992 74.5002 77.0992 74.8002 76.9992 75.2002L78.5992 79.7002L77.4992 80.1002L74.1992 71.1002L75.2992 70.7002L76.6992 74.2002Z" fill="white"/>
<path d="M81.5991 69.7995C81.4991 69.5995 81.5991 69.4995 81.5991 69.2995C81.5991 69.0995 81.7991 68.9995 81.9991 68.9995C82.1991 68.9995 82.3991 68.8995 82.4991 68.9995C82.5991 69.0995 82.6991 69.1995 82.7991 69.3995C82.8991 69.5995 82.7991 69.6995 82.7991 69.8995C82.6991 70.0995 82.5991 70.1995 82.3991 70.1995C82.1991 70.1995 81.9991 70.2995 81.8991 70.1995C81.7991 70.0995 81.6991 69.8995 81.5991 69.7995ZM85.2991 77.5995L84.1991 77.8995L82.1991 71.4995L83.2991 71.1995L85.2991 77.5995Z" fill="white"/>
<path d="M86.2992 70.3L86.4992 71.1C86.8992 70.4 87.3992 69.9 88.1992 69.7C89.5992 69.4 90.4992 70 90.8992 71.5L91.8992 75.8L90.7992 76.1L89.7992 71.8C89.6992 71.3 89.4992 71 89.1992 70.8C88.8992 70.6 88.5992 70.6 88.0992 70.7C87.6992 70.8 87.3992 71 87.1992 71.2C86.9992 71.4 86.7992 71.8 86.6992 72.1L87.7992 76.8L86.6992 77.1L85.1992 70.5L86.2992 70.3Z" fill="white"/>
<path d="M91.8984 67.2004C91.8984 67.0004 91.8984 66.9004 91.9984 66.7004C92.0984 66.5004 92.1984 66.5004 92.4984 66.4004C92.6984 66.4004 92.8984 66.4004 92.9984 66.5004C93.0984 66.6004 93.1984 66.8004 93.2984 66.9004C93.2984 67.1004 93.2984 67.2004 93.1984 67.4004C93.0984 67.5004 92.9984 67.6004 92.6984 67.7004C92.4984 67.7004 92.2984 67.7003 92.1984 67.6003C91.9984 67.6003 91.8984 67.4004 91.8984 67.2004ZM94.5984 75.4004L93.4984 75.6003L92.2984 69.0004L93.3984 68.8004L94.5984 75.4004Z" fill="white"/>
<path d="M98.7969 69.8997C98.7969 69.4997 98.7969 69.1996 99.0969 68.9996C99.2969 68.6996 99.5969 68.5996 99.9969 68.5996C100.397 68.5996 100.697 68.5996 100.997 68.7996C101.297 68.9996 101.397 69.2996 101.397 69.6996V69.8997C101.397 70.2997 101.397 70.5996 101.097 70.7996C100.797 70.9996 100.597 71.1996 100.197 71.1996C99.7969 71.1996 99.4969 71.1997 99.1969 70.8997C98.8969 70.6997 98.7969 70.3996 98.7969 69.9996V69.8997Z" fill="white"/>
<path d="M106.297 74.1L106.397 65H108.997C109.797 65 110.497 65.2 111.097 65.6C111.697 66 112.197 66.5 112.497 67.1C112.797 67.7 112.997 68.5 112.997 69.3V69.9C112.997 70.8 112.797 71.5 112.497 72.1C112.197 72.7 111.697 73.2 111.097 73.6C110.497 73.9 109.797 74.1 108.997 74.1H106.297ZM107.597 66L107.497 73.1H108.797C109.697 73.1 110.397 72.8 110.997 72.3C111.497 71.7 111.797 70.9 111.797 69.9V69.4C111.797 68.4 111.597 67.6 111.097 67C110.597 66.4 109.897 66.1 109.097 66.1L107.597 66Z" fill="white"/>
<path d="M116.998 74.7004C116.098 74.6004 115.398 74.3004 114.898 73.6004C114.398 73.0004 114.198 72.1004 114.298 71.1004V70.9004C114.398 70.2004 114.498 69.7004 114.798 69.1004C115.098 68.6004 115.498 68.2004 115.998 68.0004C116.498 67.8004 116.998 67.6004 117.498 67.7004C118.398 67.8004 118.998 68.1004 119.498 68.7004C119.898 69.3004 120.098 70.2004 119.998 71.2004V71.7004L115.498 71.3004C115.498 72.0004 115.598 72.5004 115.898 73.0004C116.198 73.4004 116.698 73.7004 117.298 73.7004C117.698 73.7004 118.098 73.7004 118.398 73.5004C118.698 73.3004 118.998 73.2004 119.198 72.9004L119.898 73.5004C118.998 74.4004 118.098 74.8004 116.998 74.7004ZM117.298 68.6004C116.798 68.6004 116.398 68.7004 116.098 69.0004C115.798 69.3004 115.498 69.8004 115.398 70.4004L118.798 70.7004V70.6004C118.798 70.0004 118.698 69.5004 118.398 69.2004C118.098 68.9004 117.798 68.7004 117.298 68.6004Z" fill="white"/>
<path d="M122.898 72.1003L122.098 72.7004L121.698 75.0004L120.598 74.8004L122.098 65.4004L123.198 65.6003L122.298 71.3004L122.998 70.7004L125.398 68.9004L126.798 69.1003L123.798 71.5004L126.098 75.8004L124.798 75.6003L122.898 72.1003Z" fill="white"/>
<path d="M129.099 70.4998C129.699 69.9998 130.499 69.8998 131.299 70.0998C132.699 70.3998 133.199 71.3998 132.799 72.9998L131.699 77.2998L130.599 76.9998L131.699 72.6998C131.799 72.1998 131.799 71.8998 131.599 71.5998C131.399 71.2998 131.099 71.0998 130.699 70.9998C130.299 70.8998 129.999 70.8998 129.699 71.0998C129.399 71.2998 129.099 71.3998 128.899 71.6998L127.799 76.3998L126.699 76.0998L128.999 66.7998L130.099 67.0998L129.099 70.4998Z" fill="white"/>
<path d="M133.797 74.2001C133.997 73.6001 134.297 73 134.697 72.6C135.097 72.2 135.597 71.9 136.097 71.8C136.597 71.7 137.197 71.7001 137.697 71.9001C138.597 72.2001 139.197 72.7001 139.497 73.5001C139.797 74.3001 139.797 75.2001 139.497 76.2001V76.3C139.297 76.9 138.997 77.4001 138.597 77.9001C138.197 78.3001 137.697 78.6001 137.197 78.7001C136.697 78.8001 136.097 78.8 135.497 78.6C134.597 78.3 133.997 77.8001 133.697 77.0001C133.397 76.2001 133.497 75.3001 133.797 74.2001ZM134.897 74.7001C134.697 75.4001 134.597 76 134.797 76.6C134.997 77.1 135.397 77.5001 135.897 77.7001C136.497 77.9001 136.997 77.8001 137.397 77.5001C137.897 77.2001 138.197 76.6 138.497 75.8C138.697 75.1 138.797 74.5001 138.597 73.9001C138.397 73.4001 137.997 73 137.497 72.8C136.997 72.6 136.497 72.7001 135.997 73.0001C135.497 73.3001 135.197 73.9001 134.897 74.7001Z" fill="white"/>
<path d="M143.799 81.5998L142.699 81.0998L146.399 72.7998L147.499 73.2998L143.799 81.5998Z" fill="white"/>
<path d="M149.398 76.8004L148.998 77.6003C149.798 77.3003 150.498 77.3004 151.198 77.7004C152.498 78.4004 152.698 79.4004 151.998 80.8004L149.998 84.8004L148.998 84.3004L150.998 80.3004C151.198 79.9004 151.298 79.5004 151.198 79.2004C151.098 78.9004 150.898 78.6004 150.498 78.4004C150.198 78.2004 149.798 78.2004 149.498 78.2004C149.198 78.2004 148.798 78.4003 148.598 78.6003L146.398 82.9004L145.398 82.4004L148.498 76.4004L149.398 76.8004Z" fill="white"/>
<path d="M152.897 82.3C153.397 81.4 154.097 80.8 154.797 80.6C155.497 80.3 156.297 80.4 156.897 80.8C157.597 81.2 157.997 81.8 158.097 82.5L159.897 79.5L160.897 80.1L155.897 88.2L154.997 87.6L155.297 87C154.597 87.2 153.897 87.1 153.197 86.7C152.497 86.3 152.197 85.7 152.097 84.9C151.997 84.1 152.297 83.2 152.897 82.3ZM153.797 83C153.397 83.7 153.197 84.2 153.297 84.8C153.297 85.3 153.597 85.7 154.097 86C154.697 86.4 155.297 86.4 155.997 86L157.597 83.4C157.597 82.7 157.397 82.1 156.797 81.8C156.297 81.5 155.797 81.5 155.297 81.7C154.697 81.8 154.197 82.3 153.797 83Z" fill="white"/>
<path d="M158.197 89.8002L157.297 89.1002L161.197 83.6002L162.097 84.3002L158.197 89.8002ZM161.997 82.1002C162.097 81.9002 162.197 81.9002 162.397 81.8002C162.597 81.7002 162.697 81.8002 162.897 81.9002C163.097 82.0002 163.197 82.2002 163.197 82.4002C163.197 82.6002 163.197 82.7002 163.097 82.9002C162.997 83.1002 162.897 83.1002 162.697 83.2002C162.497 83.2002 162.397 83.2002 162.197 83.1002C161.997 83.0002 161.897 82.8002 161.897 82.7002C161.897 82.4002 161.897 82.3002 161.997 82.1002Z" fill="white"/>
<path d="M162.699 93.2996C162.699 93.1996 162.799 92.8996 162.999 92.5996C162.199 92.6996 161.599 92.4996 160.999 92.0996C160.499 91.6996 160.199 91.1996 160.099 90.5996C159.999 89.9996 160.099 89.4996 160.499 89.0996C160.899 88.4996 161.499 88.2996 162.099 88.2996C162.799 88.2996 163.499 88.5996 164.199 89.1996L165.099 89.8996L165.399 89.4996C165.599 89.1996 165.799 88.8996 165.699 88.4996C165.699 88.1996 165.499 87.7996 165.099 87.5996C164.799 87.2996 164.399 87.1996 164.099 87.1996C163.799 87.1996 163.499 87.2996 163.299 87.4996L162.399 86.7996C162.599 86.4996 162.899 86.3996 163.299 86.2996C163.699 86.1996 164.099 86.1996 164.499 86.2996C164.899 86.3996 165.299 86.5996 165.699 86.8996C166.299 87.3996 166.699 87.8996 166.799 88.4996C166.899 89.0996 166.799 89.5996 166.299 90.1996L164.399 92.5996C163.999 93.0996 163.799 93.4996 163.699 93.8996L163.599 93.9996L162.699 93.2996ZM161.799 91.3996C162.099 91.5996 162.399 91.7996 162.799 91.7996C163.199 91.7996 163.499 91.7996 163.799 91.6996L164.699 90.5996L163.999 89.9996C162.899 89.0996 162.099 88.9996 161.599 89.6996C161.399 89.9996 161.299 90.2996 161.399 90.5996C161.299 90.8996 161.499 91.1996 161.799 91.3996Z" fill="white"/>
<path d="M18 181.1L26.7 178.7L27.5 181.6C27.8 182.5 27.8 183.3 27.5 183.9C27.2 184.5 26.7 184.9 26 185.1C25.6 185.2 25.2 185.2 24.8 185.1C24.4 185 24.1 184.7 23.8 184.4C23.8 184.9 23.7 185.4 23.4 185.7C23.1 186 22.7 186.3 22.2 186.5C21.4 186.7 20.7 186.6 20.1 186.3C19.5 185.9 19.1 185.3 18.8 184.3L18 181.1ZM22.4 181.2L19.3 182.1L19.8 184C19.9 184.5 20.2 184.9 20.6 185.2C21 185.4 21.4 185.5 21.9 185.3C23 185 23.3 184.3 23 183.1L22.4 181.2ZM23.3 180.9L23.8 182.6C23.9 183.1 24.2 183.5 24.5 183.7C24.8 183.9 25.2 184 25.7 183.9C26.2 183.8 26.5 183.5 26.6 183.2C26.7 182.9 26.7 182.4 26.6 181.8L26.1 180.1L23.3 180.9Z" fill="white"/>
<path d="M26.2008 188C27.0008 188.3 27.5008 188.8 27.8008 189.5C28.3008 190.8 27.8008 191.8 26.3008 192.4L22.1008 193.9L21.7008 192.8L25.9008 191.2C26.4008 191 26.7008 190.8 26.8008 190.5C26.9008 190.2 26.9008 189.9 26.8008 189.4C26.7008 189 26.5008 188.8 26.2008 188.6C25.9008 188.4 25.6008 188.3 25.2008 188.3L20.7008 190L20.3008 188.9L29.3008 185.6L29.7008 186.7L26.2008 188Z" fill="white"/>
<path d="M24.7012 199.6C24.8012 199.5 25.0012 199.3 25.3012 199.2C24.6012 198.9 24.0012 198.5 23.7012 197.8C23.4012 197.2 23.4012 196.6 23.5012 196.1C23.7012 195.6 24.0012 195.2 24.5012 194.9C25.1012 194.6 25.7012 194.6 26.3012 194.9C26.9012 195.2 27.4012 195.8 27.8012 196.7L28.3012 197.7L28.8012 197.5C29.2012 197.3 29.4012 197.1 29.5012 196.8C29.6012 196.5 29.6012 196.1 29.4012 195.7C29.2012 195.3 29.0012 195.1 28.7012 194.9C28.4012 194.7 28.1012 194.7 27.8012 194.8L27.3012 193.7C27.6012 193.6 27.9012 193.5 28.3012 193.6C28.7012 193.7 29.0012 193.9 29.4012 194.2C29.7012 194.5 30.0012 194.9 30.2012 195.3C30.5012 196 30.6012 196.6 30.4012 197.2C30.2012 197.8 29.8012 198.2 29.2012 198.5L26.4012 199.8C25.8012 200.1 25.4012 200.3 25.2012 200.6H25.1012L24.7012 199.6ZM24.7012 197.5C24.9012 197.8 25.1012 198.1 25.4012 198.3C25.7012 198.5 26.0012 198.6 26.4012 198.6L27.7012 198L27.3012 197.2C26.7012 195.9 26.0012 195.5 25.3012 195.8C25.0012 196 24.8012 196.2 24.7012 196.5C24.6012 196.8 24.5012 197.2 24.7012 197.5Z" fill="white"/>
<path d="M29.4992 205C29.7992 204.8 29.8992 204.6 29.9992 204.3C30.0992 204 29.9992 203.6 29.7992 203C29.5992 202.4 29.4992 202 29.4992 201.6C29.4992 201.2 29.4992 200.9 29.6992 200.6C29.7992 200.3 29.9992 200.1 30.2992 200C30.7992 199.7 31.2992 199.7 31.8992 199.9C32.4992 200.1 32.8992 200.5 33.2992 201.2C33.6992 201.9 33.7992 202.5 33.6992 203.1C33.5992 203.7 33.2992 204.2 32.6992 204.5L32.0992 203.5C32.3992 203.3 32.4992 203.1 32.5992 202.7C32.6992 202.3 32.5992 202 32.3992 201.6C32.1992 201.2 31.9992 201 31.6992 200.9C31.3992 200.8 31.1992 200.8 30.8992 200.9C30.6992 201 30.4992 201.2 30.4992 201.5C30.4992 201.8 30.5992 202.2 30.6992 202.7C30.7992 203.2 30.9992 203.7 30.9992 204.1C30.9992 204.5 30.9992 204.8 30.7992 205.1C30.6992 205.4 30.3992 205.6 30.0992 205.8C29.5992 206.1 28.9992 206.1 28.4992 205.9C27.8992 205.7 27.4992 205.2 27.0992 204.5C26.7992 204 26.6992 203.6 26.6992 203.1C26.6992 202.6 26.6992 202.2 26.8992 201.9C27.0992 201.6 27.3992 201.2 27.6992 201.1L28.2992 202.1C27.9992 202.3 27.7992 202.6 27.6992 203C27.5992 203.4 27.6992 203.8 27.9992 204.2C28.1992 204.6 28.4992 204.8 28.6992 205C28.9992 205.1 29.2992 205.1 29.4992 205Z" fill="white"/>
<path d="M35.1016 206.1C35.9016 206.2 36.5015 206.6 37.0015 207.2C37.8015 208.4 37.5015 209.4 36.2015 210.3L32.5015 212.8L31.9016 211.8L35.6016 209.3C36.0016 209 36.2015 208.7 36.3015 208.4C36.4015 208.1 36.3015 207.7 36.0015 207.4C35.8015 207.1 35.5015 206.9 35.2015 206.7C34.9015 206.5 34.5015 206.5 34.2015 206.6L30.2015 209.3L29.6016 208.3L37.6016 203L38.2015 204L35.1016 206.1Z" fill="white"/>
<path d="M36.2008 217.8C36.3008 217.7 36.4008 217.5 36.7008 217.2C35.9008 217.1 35.3008 216.8 34.9008 216.2C34.5008 215.7 34.3008 215.1 34.3008 214.6C34.3008 214 34.6008 213.6 35.0008 213.2C35.6008 212.8 36.1008 212.6 36.8008 212.8C37.4008 213 38.0008 213.5 38.6008 214.2L39.3008 215.1L39.7008 214.8C40.0008 214.6 40.2008 214.3 40.2008 213.9C40.2008 213.6 40.1008 213.2 39.8008 212.8C39.5008 212.5 39.3008 212.3 38.9008 212.2C38.6008 212.1 38.3008 212.2 38.0008 212.3L37.3008 211.4C37.6008 211.2 37.9008 211.1 38.3008 211.1C38.7008 211.1 39.1008 211.2 39.5008 211.4C39.9008 211.6 40.2008 211.9 40.5008 212.3C41.0008 212.9 41.2008 213.5 41.2008 214.1C41.2008 214.7 40.9008 215.2 40.4008 215.6L38.0008 217.5C37.5008 217.9 37.2008 218.2 37.0008 218.6L36.9008 218.7L36.2008 217.8ZM35.7008 215.8C35.9008 216.1 36.2008 216.3 36.6008 216.4C36.9008 216.5 37.3008 216.6 37.6008 216.5L38.7008 215.6L38.1008 214.9C37.2008 213.8 36.5008 213.5 35.8008 214C35.5008 214.2 35.4008 214.5 35.4008 214.8C35.4008 215.2 35.5008 215.5 35.7008 215.8Z" fill="white"/>
<path d="M45.2986 221.899C44.7986 220.999 44.4986 220.199 44.4986 219.499C44.4986 218.899 44.6986 218.299 45.0986 217.899C45.5986 217.399 46.1986 217.199 46.9986 217.299C47.6986 217.399 48.3986 217.699 49.0986 218.399C49.4986 218.799 49.7986 219.299 49.9986 219.799C50.1986 220.299 50.1986 220.799 50.0986 221.299C49.9986 221.799 49.7986 222.199 49.3986 222.599L48.5986 221.699C48.9986 221.299 49.1986 220.899 49.1986 220.399C49.1986 219.899 48.8986 219.499 48.4986 218.999C48.0986 218.599 47.6986 218.299 47.2986 218.299C46.8986 218.199 46.4986 218.399 46.1986 218.699C45.8986 218.999 45.7986 219.299 45.8986 219.699C45.8986 220.099 46.0986 220.599 46.4986 221.299C46.8986 221.999 47.0986 222.599 47.1986 223.099C47.2986 223.599 47.2986 223.999 47.1986 224.399C47.0986 224.799 46.8986 225.099 46.5986 225.499C46.0986 225.999 45.4986 226.199 44.6986 226.099C43.9986 225.999 43.2986 225.599 42.5986 224.899C42.1986 224.499 41.7986 223.999 41.5986 223.399C41.3986 222.799 41.2986 222.299 41.3986 221.799C41.4986 221.299 41.6986 220.899 42.0986 220.499L42.8986 221.399C42.4986 221.799 42.2986 222.199 42.3986 222.699C42.4986 223.199 42.6986 223.699 43.1986 224.199C43.5986 224.599 44.0986 224.899 44.4986 224.999C44.8986 225.099 45.2986 224.899 45.5986 224.599C45.8986 224.299 46.0986 223.899 45.9986 223.499C45.8986 223.199 45.6986 222.699 45.2986 221.899Z" fill="white"/>
<path d="M49.2002 231C49.2002 230.9 49.3002 230.6 49.5002 230.4C48.7002 230.5 48.1002 230.3 47.5002 229.8C47.0002 229.4 46.7002 228.9 46.6002 228.3C46.5002 227.7 46.7002 227.2 47.0002 226.8C47.5002 226.3 48.0002 226 48.7002 226.1C49.4002 226.2 50.1002 226.5 50.8002 227.1L51.7002 227.8L52.0002 227.4C52.3002 227.1 52.4002 226.8 52.4002 226.4C52.4002 226 52.2002 225.7 51.8002 225.4C51.5002 225.1 51.2002 225 50.8002 225C50.5002 225 50.2002 225.1 50.0002 225.3L49.1002 224.5C49.3002 224.2 49.6002 224.1 50.0002 224C50.4002 223.9 50.8002 223.9 51.2002 224.1C51.6002 224.2 52.0002 224.5 52.4002 224.8C53.0002 225.3 53.3002 225.9 53.4002 226.4C53.5002 227 53.3002 227.5 52.9002 228.1L50.9002 230.5C50.5002 231 50.2002 231.4 50.1002 231.8L50.0002 231.9L49.2002 231ZM48.4002 229.1C48.7002 229.3 49.0002 229.5 49.4002 229.6C49.8002 229.7 50.1002 229.6 50.4002 229.5L51.3002 228.5L50.6002 227.9C49.5002 227 48.7002 226.8 48.2002 227.5C48.0002 227.8 47.9002 228.1 47.9002 228.4C47.9002 228.6 48.1002 228.8 48.4002 229.1Z" fill="white"/>
<path d="M56.4016 228.2L56.0015 228.8C56.7015 228.6 57.5016 228.7 58.1016 229.2C58.9016 229.7 59.2016 230.4 59.1016 231.2C59.5016 231.1 59.9015 231 60.3015 231.1C60.7015 231.1 61.1015 231.3 61.5015 231.6C62.7015 232.4 62.9015 233.5 62.0015 234.8L59.4016 238.5L58.5015 237.8L61.0015 234.2C61.3015 233.8 61.4015 233.4 61.3015 233.1C61.3015 232.8 61.0016 232.5 60.6016 232.2C60.2016 232 59.9015 231.9 59.5015 231.9C59.1015 231.9 58.8015 232.1 58.5015 232.5L55.9016 236.2L54.9016 235.5L57.4016 231.9C58.0016 231.1 57.8016 230.4 57.1016 229.9C56.5016 229.5 55.9015 229.4 55.3015 229.8L52.5015 233.8L51.6016 233.1L55.5015 227.6L56.4016 228.2Z" fill="white"/>
<path d="M64.9981 241.599C64.9981 241.499 65.0981 241.199 65.1981 240.899C64.4981 241.099 63.7981 241.099 63.0981 240.699C62.4981 240.399 62.0981 239.899 61.8981 239.399C61.6981 238.899 61.7981 238.299 61.9981 237.799C62.2981 237.199 62.7981 236.799 63.4981 236.799C64.1981 236.699 64.8981 236.899 65.7981 237.399L66.7981 237.899L67.0981 237.399C67.2981 236.999 67.2981 236.699 67.2981 236.399C67.2981 236.099 66.9981 235.799 66.4981 235.599C66.0981 235.399 65.7981 235.299 65.3981 235.399C65.0981 235.399 64.7981 235.599 64.6981 235.899L63.6981 235.299C63.8981 234.999 64.0981 234.799 64.4981 234.599C64.8981 234.399 65.2981 234.399 65.6981 234.399C66.0981 234.399 66.5981 234.599 66.9981 234.799C67.6981 235.199 68.0981 235.599 68.2981 236.199C68.4981 236.799 68.3981 237.299 68.0981 237.899L66.5981 240.599C66.2981 241.099 66.0981 241.599 66.0981 241.999V242.099L64.9981 241.599ZM63.7981 239.899C64.0981 240.099 64.4981 240.199 64.7981 240.199C65.0981 240.199 65.4981 240.099 65.7981 239.899L66.4981 238.699L65.6981 238.299C64.4981 237.599 63.5981 237.599 63.1981 238.399C62.9981 238.699 62.9981 238.999 63.0981 239.299C63.1981 239.499 63.3981 239.699 63.7981 239.899Z" fill="white"/>
<path d="M73.0992 239.2C72.9992 239.1 72.7992 239 72.5992 238.9C71.8992 238.6 71.2992 238.6 70.7992 239.1L68.6992 243.4L67.6992 242.9L70.5992 236.8L71.5992 237.3L71.2992 238C71.8992 237.6 72.4992 237.6 73.0992 237.9C73.2992 238 73.3992 238.1 73.4992 238.2L73.0992 239.2Z" fill="white"/>
<path d="M76.7993 237.899L76.1993 239.399L77.3993 239.899L77.0993 240.699L75.8993 240.199L74.2993 244.099C74.1993 244.299 74.1993 244.599 74.1993 244.699C74.2993 244.899 74.3993 244.999 74.6993 245.099C74.7993 245.199 74.9993 245.199 75.1993 245.199L74.7993 246.099C74.4993 246.099 74.1993 245.999 73.8993 245.899C73.3993 245.699 73.0993 245.399 72.9993 244.999C72.8993 244.599 72.8993 244.199 73.0993 243.599L74.6993 239.699L73.5993 239.199L73.8993 238.399L74.9993 238.899L75.5993 237.399L76.7993 237.899Z" fill="white"/>
<path d="M79.2992 241.5C79.9992 241.1 80.6992 241 81.4992 241.3C82.7992 241.8 83.2992 242.8 82.7992 244.3L81.3992 248.5L80.2992 248.1L81.6992 243.9C81.8992 243.4 81.8992 243.1 81.6992 242.8C81.5992 242.5 81.2992 242.3 80.7992 242.1C80.3992 242 80.0992 242 79.7992 242.1C79.4992 242.2 79.1992 242.4 78.8992 242.6L77.2992 247.1L76.1992 246.7L79.2992 237.6L80.3992 238L79.2992 241.5Z" fill="white"/>
<path d="M87.2984 250.1C87.2984 250 87.2984 249.7 87.2984 249.4C86.5984 249.8 85.9985 249.9 85.1985 249.7C84.5985 249.5 84.0984 249.2 83.7984 248.7C83.4984 248.2 83.3984 247.7 83.4984 247.2C83.6984 246.5 84.0985 246.1 84.6985 245.8C85.2985 245.6 86.0984 245.6 86.9984 245.8L88.0985 246.1L88.1985 245.6C88.2985 245.2 88.2985 244.9 88.0985 244.6C87.8985 244.3 87.5985 244.1 87.1985 244C86.7985 243.9 86.3985 243.9 86.0985 244C85.7985 244.1 85.5984 244.3 85.4984 244.6L84.3985 244.3C84.4985 244 84.6984 243.7 84.9984 243.4C85.2984 243.2 85.6985 243 86.0985 242.9C86.4985 242.8 86.9984 242.8 87.4984 243C88.2984 243.2 88.7985 243.5 89.0985 244C89.3985 244.5 89.4985 245.1 89.3985 245.7L88.5985 248.7C88.3985 249.3 88.3984 249.8 88.4984 250.2V250.3L87.2984 250.1ZM85.6985 248.7C86.0985 248.8 86.3984 248.8 86.7984 248.7C87.1984 248.6 87.3985 248.4 87.6985 248.2L87.9984 246.9L87.0985 246.7C85.6985 246.4 84.8985 246.6 84.6985 247.4C84.5985 247.7 84.6984 248.1 84.7984 248.3C84.9984 248.5 85.2985 248.6 85.6985 248.7Z" fill="white"/>
<path d="M92.8 248L92 248.6L91.6 250.9L90.5 250.7L92.2 241.3L93.3 241.5L92.3 247.2L93 246.6L95.5 244.8L96.9 245L93.8 247.3L96 251.7L94.7 251.5L92.8 248Z" fill="white"/>
<path d="M100.702 247.4C100.702 247 100.902 246.8 101.102 246.5C101.302 246.3 101.702 246.2 102.002 246.2C102.402 246.2 102.702 246.4 102.902 246.6C103.102 246.8 103.202 247.2 103.202 247.5V247.7C103.202 248.1 103.002 248.3 102.802 248.6C102.602 248.9 102.202 248.9 101.802 248.9C101.402 248.9 101.102 248.7 100.902 248.5C100.702 248.3 100.602 247.9 100.602 247.6L100.702 247.4Z" fill="white"/>
<path d="M109.499 249.099L109.599 252.599H108.399L108.199 243.499L111.499 243.399C112.499 243.399 113.299 243.599 113.799 244.099C114.399 244.599 114.699 245.299 114.699 246.099C114.699 246.999 114.499 247.699 113.899 248.199C113.299 248.699 112.599 248.899 111.599 248.999L109.499 249.099ZM109.499 248.099L111.599 247.999C112.199 247.999 112.699 247.799 113.099 247.499C113.399 247.199 113.599 246.699 113.599 246.199C113.599 245.699 113.399 245.199 113.099 244.899C112.799 244.599 112.299 244.399 111.699 244.399L109.499 244.499V248.099Z" fill="white"/>
<path d="M117.798 252.2L116.698 252.3L115.898 242.8L116.998 242.7L117.798 252.2Z" fill="white"/>
<path d="M124.002 251.4C123.902 251.3 123.802 251.1 123.702 250.7C123.202 251.3 122.702 251.7 121.902 251.8C121.202 251.9 120.702 251.8 120.202 251.5C119.702 251.2 119.402 250.7 119.402 250.2C119.302 249.5 119.502 248.9 120.002 248.5C120.502 248.1 121.202 247.7 122.102 247.6L123.202 247.4L123.102 246.9C123.002 246.5 122.902 246.2 122.602 246C122.302 245.8 122.002 245.7 121.502 245.8C121.102 245.9 120.802 246 120.502 246.3C120.202 246.6 120.202 246.8 120.202 247.1L119.102 247.3C119.102 247 119.102 246.6 119.302 246.3C119.502 246 119.802 245.7 120.202 245.4C120.602 245.2 121.002 245 121.502 244.9C122.302 244.8 122.902 244.9 123.402 245.2C123.902 245.5 124.202 246 124.302 246.7L124.702 249.8C124.802 250.4 124.902 250.9 125.102 251.2V251.3L124.002 251.4ZM122.002 250.8C122.402 250.7 122.702 250.6 123.002 250.4C123.302 250.2 123.502 249.9 123.602 249.6L123.402 248.2L122.502 248.3C121.102 248.5 120.502 249 120.602 249.8C120.702 250.2 120.802 250.4 121.102 250.6C121.302 250.8 121.602 250.9 122.002 250.8Z" fill="white"/>
<path d="M126.898 242.399L127.198 243.999L128.398 243.699L128.598 244.599L127.398 244.899L128.198 248.999C128.298 249.299 128.398 249.499 128.498 249.599C128.598 249.699 128.798 249.699 129.098 249.699C129.198 249.699 129.398 249.599 129.598 249.499L129.798 250.399C129.498 250.499 129.198 250.599 128.998 250.699C128.498 250.799 128.098 250.699 127.798 250.499C127.498 250.299 127.298 249.799 127.098 249.299L126.298 245.199L125.098 245.399L124.898 244.499L126.098 244.299L125.798 242.699L126.898 242.399Z" fill="white"/>
<path d="M129.199 241.7C129.199 241.5 129.199 241.4 129.299 241.2C129.399 241 129.499 240.9 129.699 240.9C129.899 240.8 130.099 240.9 130.199 241C130.299 241.1 130.399 241.2 130.499 241.4C130.499 241.6 130.499 241.7 130.399 241.9C130.299 242 130.199 242.1 129.899 242.2C129.699 242.3 129.499 242.2 129.399 242.1C129.299 242 129.299 241.9 129.199 241.7ZM132.499 249.7L131.399 250L129.799 243.5L130.899 243.2L132.499 249.7Z" fill="white"/>
<path d="M133.498 242.499L133.798 243.199C134.098 242.499 134.598 241.999 135.398 241.699C136.298 241.399 136.998 241.499 137.598 242.099C137.698 241.699 137.898 241.399 138.198 241.099C138.498 240.799 138.798 240.599 139.298 240.399C140.698 239.899 141.698 240.399 142.198 241.899L143.598 246.199L142.498 246.599L141.098 242.399C140.898 241.899 140.698 241.599 140.398 241.499C140.098 241.399 139.698 241.299 139.198 241.499C138.798 241.599 138.498 241.899 138.298 242.199C138.098 242.499 138.098 242.899 138.198 243.299L139.598 247.499L138.498 247.899L137.098 243.699C136.798 242.799 136.198 242.499 135.298 242.799C134.598 242.999 134.198 243.499 134.098 244.199L135.698 248.899L134.598 249.299L132.398 242.899L133.498 242.499Z" fill="white"/>
<path d="M149.099 242.899C148.899 243.599 148.399 244.099 147.599 244.399C146.899 244.699 146.399 244.699 145.799 244.499C145.299 244.299 144.899 243.799 144.499 243.099L142.699 239.099L143.699 238.599L145.499 242.599C145.899 243.499 146.499 243.799 147.299 243.499C148.099 243.099 148.499 242.599 148.499 241.899L146.499 237.399L147.499 236.899L150.299 242.999L149.299 243.499L149.099 242.899Z" fill="white"/>
<path d="M149.999 235.799L150.399 236.399C150.499 235.599 150.999 235.099 151.699 234.599C152.499 234.099 153.199 234.099 153.899 234.599C153.899 234.199 153.999 233.799 154.299 233.499C154.499 233.099 154.799 232.799 155.199 232.599C156.499 231.799 157.499 232.099 158.299 233.499L160.599 237.399L159.599 237.999L157.299 234.199C157.099 233.799 156.799 233.499 156.499 233.399C156.199 233.299 155.799 233.399 155.399 233.699C154.999 233.899 154.799 234.199 154.699 234.599C154.599 234.999 154.599 235.299 154.799 235.699L157.099 239.599L156.099 240.199L153.899 236.399C153.399 235.599 152.699 235.399 151.899 235.899C151.199 236.299 150.999 236.799 151.099 237.499L153.599 241.699L152.599 242.299L149.199 236.499L149.999 235.799Z" fill="white"/>
<path d="M168.598 227.599C169.098 228.399 169.298 229.199 169.198 229.999C169.098 230.799 168.598 231.499 167.798 232.099C166.998 232.799 166.098 232.999 165.098 232.799C164.098 232.599 163.198 231.999 162.398 230.999L161.898 230.299C161.398 229.599 160.998 228.999 160.898 228.299C160.698 227.599 160.798 226.999 160.998 226.399C161.198 225.799 161.598 225.299 162.198 224.799C162.998 224.199 163.698 223.899 164.498 223.999C165.298 224.099 165.998 224.399 166.698 225.099L165.798 225.899C165.298 225.399 164.798 225.099 164.298 225.099C163.798 225.099 163.298 225.199 162.898 225.599C162.298 226.099 161.998 226.699 161.998 227.399C161.998 228.099 162.298 228.899 162.998 229.699L163.498 230.399C164.098 231.199 164.798 231.699 165.498 231.799C166.198 231.899 166.798 231.899 167.398 231.399C167.898 230.999 168.198 230.499 168.298 230.099C168.398 229.599 168.198 229.099 167.898 228.399L168.598 227.599Z" fill="white"/>
<path d="M169.199 226.3C168.699 225.8 168.398 225.3 168.298 224.7C168.098 224.1 168.099 223.6 168.199 223.1C168.299 222.6 168.599 222.1 169.099 221.7C169.799 221.1 170.499 220.8 171.399 220.9C172.299 221 172.998 221.4 173.798 222.1L173.899 222.2C174.399 222.7 174.698 223.2 174.798 223.7C174.998 224.3 174.999 224.8 174.899 225.3C174.799 225.8 174.498 226.3 173.998 226.7C173.298 227.3 172.599 227.6 171.699 227.5C170.799 227.4 169.999 227.1 169.199 226.3ZM170.199 225.6C170.699 226.1 171.298 226.5 171.798 226.5C172.398 226.6 172.898 226.4 173.298 226C173.698 225.6 173.898 225.1 173.798 224.5C173.698 223.9 173.398 223.3 172.798 222.7C172.298 222.2 171.699 221.9 171.199 221.8C170.599 221.7 170.099 221.9 169.699 222.3C169.299 222.7 169.099 223.2 169.199 223.7C169.299 224.4 169.599 225 170.199 225.6Z" fill="white"/>
<path d="M173.001 218L173.701 218.5C173.601 217.7 173.801 217 174.301 216.3C175.201 215.2 176.301 215.2 177.501 216.3L180.801 219.3L180.001 220.2L176.701 217.2C176.301 216.9 176.001 216.7 175.701 216.7C175.401 216.7 175.101 216.9 174.801 217.2C174.601 217.5 174.401 217.8 174.401 218.1C174.401 218.4 174.401 218.8 174.501 219.1L178.101 222.3L177.301 223.2L172.301 218.7L173.001 218Z" fill="white"/>
<path d="M176.499 211.3L177.799 212.3L178.599 211.3L179.299 211.9L178.499 212.9L181.799 215.5C181.999 215.7 182.199 215.7 182.399 215.7C182.599 215.7 182.699 215.6 182.899 215.4C182.999 215.3 183.099 215.1 183.199 214.9L183.899 215.5C183.799 215.8 183.599 216 183.399 216.3C183.099 216.7 182.699 216.9 182.299 216.9C181.899 216.9 181.499 216.7 180.999 216.4L177.699 213.8L176.899 214.8L176.199 214.2L176.999 213.2L175.699 212.2L176.499 211.3Z" fill="white"/>
<path d="M181.999 208.3C181.899 208.4 181.799 208.6 181.599 208.7C181.199 209.3 181.099 209.9 181.499 210.5L185.399 213.3L184.699 214.2L179.199 210.3L179.899 209.4L180.499 209.8C180.199 209.1 180.299 208.5 180.699 208C180.799 207.8 180.999 207.7 181.099 207.6L181.999 208.3Z" fill="white"/>
<path d="M180.198 205.9C179.998 205.8 179.898 205.7 179.898 205.5C179.898 205.3 179.898 205.2 179.998 205C180.098 204.8 180.298 204.7 180.398 204.7C180.598 204.7 180.698 204.7 180.898 204.8C181.098 204.9 181.198 205 181.198 205.2C181.198 205.4 181.198 205.5 181.098 205.7C180.998 205.9 180.798 206 180.698 206C180.498 206 180.298 206 180.198 205.9ZM187.998 209.5L187.398 210.5L181.798 206.8L182.398 205.8L187.998 209.5Z" fill="white"/>
<path d="M189.101 201.2C190.001 201.7 190.601 202.3 190.901 203C191.201 203.7 191.201 204.4 190.801 205.1C190.401 205.8 189.801 206.3 189.001 206.4L189.601 206.8L189.101 207.7L180.801 202.9L181.401 201.9L184.501 203.7C184.201 203 184.301 202.3 184.701 201.6C185.101 200.9 185.701 200.5 186.501 200.4C187.301 200.3 188.101 200.6 189.101 201.2ZM188.501 202.1C187.801 201.7 187.201 201.5 186.701 201.6C186.201 201.6 185.801 201.9 185.501 202.4C185.101 203.1 185.201 203.7 185.601 204.3L188.101 205.7C188.901 205.7 189.501 205.4 189.801 204.8C190.101 204.3 190.101 203.8 189.901 203.4C189.701 203 189.201 202.5 188.501 202.1Z" fill="white"/>
<path d="M193.999 197.1C194.299 197.7 194.199 198.4 193.899 199.2C193.599 199.9 193.199 200.3 192.599 200.4C192.099 200.6 191.399 200.5 190.699 200.1L186.699 198.2L187.199 197.2L191.099 199.1C191.999 199.5 192.699 199.4 192.999 198.6C193.399 197.8 193.299 197.1 192.899 196.6L188.499 194.5L188.999 193.5L195.099 196.4L194.599 197.4L193.999 197.1Z" fill="white"/>
<path d="M188.602 189.999L190.102 190.599L190.602 189.399L191.402 189.699L190.902 190.899L194.802 192.399C195.102 192.499 195.302 192.499 195.402 192.499C195.602 192.399 195.702 192.299 195.802 191.999C195.802 191.899 195.902 191.699 195.902 191.499L196.802 191.799C196.802 192.099 196.702 192.399 196.602 192.699C196.402 193.199 196.102 193.499 195.702 193.599C195.302 193.699 194.902 193.699 194.302 193.499L190.402 191.999L189.902 193.099L189.102 192.799L189.602 191.699L188.102 191.099L188.602 189.999Z" fill="white"/>
<path d="M194.099 189.699C193.499 189.499 192.898 189.199 192.498 188.799C192.098 188.399 191.799 187.899 191.699 187.399C191.599 186.899 191.598 186.299 191.798 185.799C192.098 184.899 192.599 184.299 193.399 183.999C194.199 183.699 195.099 183.699 196.099 183.999H196.199C196.799 184.199 197.298 184.499 197.798 184.899C198.198 185.299 198.499 185.799 198.599 186.299C198.699 186.799 198.698 187.399 198.498 187.999C198.198 188.899 197.699 189.499 196.899 189.799C195.999 190.099 195.099 190.099 194.099 189.699ZM194.599 188.699C195.299 188.899 195.898 188.899 196.498 188.799C196.998 188.599 197.399 188.199 197.599 187.699C197.799 187.099 197.699 186.599 197.399 186.199C197.099 185.699 196.499 185.399 195.699 185.099C194.999 184.899 194.398 184.899 193.798 184.999C193.298 185.199 192.899 185.599 192.699 186.099C192.499 186.599 192.599 187.099 192.899 187.599C193.199 187.999 193.799 188.399 194.599 188.699Z" fill="white"/>
<path d="M194.902 178.7C194.802 178.9 194.802 179 194.702 179.2C194.502 179.9 194.702 180.5 195.302 180.9L199.902 182.1L199.602 183.2L193.102 181.5L193.402 180.4L194.202 180.6C193.702 180.1 193.502 179.5 193.702 178.8C193.802 178.6 193.802 178.4 193.902 178.3L194.902 178.7Z" fill="white"/>
<defs>
<filter id="filter0_ii" x="0" y="50" width="218" height="218" filterUnits="userSpaceOnUse" color-interpolation-filters="sRGB">
<feFlood flood-opacity="0" result="BackgroundImageFix"/>
<feBlend mode="normal" in="SourceGraphic" in2="BackgroundImageFix" result="shape"/>
<feColorMatrix in="SourceAlpha" type="matrix" values="0 0 0 0 0 0 0 0 0 0 0 0 0 0 0 0 0 0 127 0" result="hardAlpha"/>
<feOffset/>
<feGaussianBlur stdDeviation="4"/>
<feComposite in2="hardAlpha" operator="arithmetic" k2="-1" k3="1"/>
<feColorMatrix type="matrix" values="0 0 0 0 0.9875 0 0 0 0 0.722843 0 0 0 0 0.386771 0 0 0 1 0"/>
<feBlend mode="normal" in2="shape" result="effect1_innerShadow"/>
<feColorMatrix in="SourceAlpha" type="matrix" values="0 0 0 0 0 0 0 0 0 0 0 0 0 0 0 0 0 0 127 0" result="hardAlpha"/>
<feOffset/>
<feGaussianBlur stdDeviation="6"/>
<feComposite in2="hardAlpha" operator="arithmetic" k2="-1" k3="1"/>
<feColorMatrix type="matrix" values="0 0 0 0 0 0 0 0 0 0 0 0 0 0 0 0 0 0 0.2 0"/>
<feBlend mode="normal" in2="effect1_innerShadow" result="effect2_innerShadow"/>
</filter>
<filter id="filter1_i" x="59" y="109" width="100" height="100" filterUnits="userSpaceOnUse" color-interpolation-filters="sRGB">
<feFlood flood-opacity="0" result="BackgroundImageFix"/>
<feBlend mode="normal" in="SourceGraphic" in2="BackgroundImageFix" result="shape"/>
<feColorMatrix in="SourceAlpha" type="matrix" values="0 0 0 0 0 0 0 0 0 0 0 0 0 0 0 0 0 0 127 0" result="hardAlpha"/>
<feOffset/>
<feGaussianBlur stdDeviation="6"/>
<feComposite in2="hardAlpha" operator="arithmetic" k2="-1" k3="1"/>
<feColorMatrix type="matrix" values="0 0 0 0 0 0 0 0 0 0 0 0 0 0 0 0 0 0 0.4 0"/>
<feBlend mode="normal" in2="shape" result="effect1_innerShadow"/>
</filter>
<linearGradient id="paint0_linear" x1="51.775" y1="57.4938" x2="322.848" y2="328.729" gradientUnits="userSpaceOnUse">
<stop stop-color="#F2F2F2"/>
<stop offset="1" stop-color="#3D485C"/>
</linearGradient>
<linearGradient id="paint1_linear" x1="-158.31" y1="-176.824" x2="234.09" y2="291.357" gradientUnits="userSpaceOnUse">
<stop stop-color="white"/>
<stop offset="1" stop-color="white" stop-opacity="0"/>
</linearGradient>
<linearGradient id="paint2_linear" x1="174.52" y1="213.6" x2="38.8" y2="107.52" gradientUnits="userSpaceOnUse">
<stop stop-color="white"/>
<stop offset="1" stop-color="#203A41" stop-opacity="0.4"/>
</linearGradient>
<linearGradient id="paint3_linear" x1="194.68" y1="230.4" x2="17.2" y2="91.68" gradientUnits="userSpaceOnUse">
<stop stop-color="white"/>
<stop offset="1" stop-color="#203A41" stop-opacity="0.24"/>
</linearGradient>
</defs>
</svg>
