<svg width="218" height="268" viewBox="0 0 218 268" fill="none" xmlns="http://www.w3.org/2000/svg">
<path d="M87.0059 29.7979C85.9045 29.7979 85.0234 30.6685 85.0234 31.7568V50.0407C85.0234 51.129 85.9045 51.9997 87.0059 51.9997H132.381C133.483 51.9997 134.364 51.129 134.364 50.0407V31.7568C134.364 30.6685 133.483 29.7979 132.381 29.7979H87.0059ZM130.399 44.1637C130.399 45.2521 129.518 46.1227 128.416 46.1227H91.191C90.0896 46.1227 89.2086 45.2521 89.2086 44.1637V35.8925C89.2086 34.8041 90.0896 33.9335 91.191 33.9335H128.416C129.518 33.9335 130.399 34.8041 130.399 35.8925V44.1637Z" fill="#BABABA"/>
<path d="M141.045 0L115.918 37.8775H128.37L156.388 0H141.045Z" fill="#0FA711"/>
<path d="M128.377 0L103.473 37.8775H115.925L141.052 0H128.377Z" fill="white"/>
<path d="M115.924 0L91.0195 37.8775H103.472L128.376 0H115.924Z" fill="#FF7600"/>
<path d="M91.0177 37.8775H103.47L78.343 0H63L91.0177 37.8775Z" fill="#FF7600"/>
<path d="M103.471 37.8775H115.923L91.0184 0H78.3438L103.471 37.8775Z" fill="white"/>
<path opacity="0.5" d="M111.695 6.28027L105.469 15.6936L120.145 37.8823H128.372L130.596 34.7445L111.695 6.28027Z" fill="#3E4347"/>
<path d="M115.924 37.8775H128.376L103.472 0H91.0195L115.924 37.8775Z" fill="#0FA711"/>
<g filter="url(#filter0_ii)">
<path d="M218 159C218 219.199 169.199 268 109 268C48.801 268 0 219.199 0 159C0 98.801 48.801 50 109 50C169.199 50 218 98.801 218 159Z" fill="#D5D5D5" fill-opacity="0.8"/>
</g>
<path d="M214.5 159C214.5 217.266 167.266 264.5 109 264.5C50.734 264.5 3.5 217.266 3.5 159C3.5 100.734 50.734 53.5 109 53.5C167.266 53.5 214.5 100.734 214.5 159Z" stroke="#DFDFDF" stroke-width="7"/>
<path d="M214.5 159C214.5 217.266 167.266 264.5 109 264.5C50.734 264.5 3.5 217.266 3.5 159C3.5 100.734 50.734 53.5 109 53.5C167.266 53.5 214.5 100.734 214.5 159Z" stroke="url(#paint0_linear)" stroke-width="7"/>
<path d="M196 159C196 207.049 157.049 246 109 246C60.9512 246 22 207.049 22 159C22 110.951 60.9512 72 109 72C157.049 72 196 110.951 196 159Z" fill="#A0A0A0"/>
<path fill-rule="evenodd" clip-rule="evenodd" d="M109 87C69.2355 87 37 119.235 37 159C37 198.764 69.2355 231 109 231C148.764 231 181 198.764 181 159C181 119.235 148.764 87 109 87ZM7 159C7 102.667 52.667 57 109 57C165.333 57 211 102.667 211 159C211 215.333 165.333 261 109 261C52.667 261 7 215.333 7 159Z" fill="#BABABA"/>
<path d="M109.001 82C66.5595 82 32 116.357 32 159.001C32 201.645 66.3574 236.002 109.001 236.002C151.645 236.002 186.002 201.645 186.002 159.001C186.002 116.357 151.442 82 109.001 82ZM93.6412 89.4778C93.8433 89.4778 93.8433 89.4778 93.6412 89.4778C95.0559 92.5093 97.6833 94.3282 100.311 93.7219C102.938 93.3177 105.565 91.4988 105.767 87.861C106.172 87.861 106.576 87.861 106.98 87.861C106.98 98.7745 106.172 110.496 104.959 123.229C104.757 124.441 104.757 125.654 104.757 126.867C104.353 125.856 103.948 124.644 103.544 123.229C99.3001 112.517 95.4601 100.998 92.4286 89.6799C93.0349 89.6799 93.237 89.4778 93.6412 89.4778ZM76.0583 95.743C78.2814 98.3703 81.1109 99.3808 83.5361 98.1682C86.3655 96.9556 87.9823 94.1261 87.376 91.0946C87.7802 90.8925 88.1844 90.8925 88.5886 90.6904C91.216 101.2 93.8433 112.72 95.8643 125.452C96.0664 126.867 96.2685 127.877 96.6727 129.09C96.0664 128.079 95.4601 127.069 94.4496 125.856C87.5781 116.559 80.9088 106.454 75.0478 96.3493C75.2499 96.1472 75.6541 95.9451 76.0583 95.743ZM60.4964 106.656C63.3259 108.475 66.3574 108.678 68.3784 107.061C69.9952 105.848 70.8036 104.029 70.8036 102.21C70.8036 101.2 70.6015 100.189 69.9952 99.3808C70.3994 99.1787 70.6015 98.9766 71.0057 98.7745C76.4625 108.071 81.7172 118.783 87.1739 130.302C87.7802 131.515 88.3865 132.526 88.7907 133.536C87.9823 132.728 86.9718 131.919 85.9613 131.111C77.0688 123.633 67.9742 115.549 59.688 107.465C59.8901 107.061 60.2943 106.859 60.4964 106.656ZM48.3703 121.006C48.5724 121.006 48.5724 121.006 48.3703 121.006C51.6039 122.016 54.6355 121.612 56.0502 119.389C56.4544 118.783 57.4649 117.166 57.4649 115.549C57.4649 114.538 57.0607 112.922 55.8481 111.507C56.0502 111.305 56.4544 110.901 56.6565 110.699C64.3364 118.378 72.2184 127.271 80.5046 136.972C81.313 137.982 82.1214 138.791 82.9298 139.599C81.9193 138.993 80.7067 138.589 79.494 137.982C68.9847 133.132 58.0712 127.675 47.764 122.016C47.9661 121.612 48.1682 121.41 48.3703 121.006ZM40.4883 137.982C40.4883 137.982 40.4883 137.78 40.4883 137.982C43.924 138.184 46.5514 136.972 47.5619 134.344C47.764 133.738 47.9661 132.93 47.9661 131.717C47.9661 130.505 47.5619 128.281 45.1367 126.665C45.3388 126.26 45.5409 126.058 45.743 125.654C55.0397 131.111 65.1448 137.578 75.452 144.854C76.4625 145.662 77.6751 146.269 78.4835 146.875C77.473 146.673 76.0583 146.471 74.6436 146.066C63.3259 144.45 51.4018 142.024 39.882 138.993C40.2862 138.791 40.4883 138.387 40.4883 137.982ZM37.2547 156.374C37.2547 156.374 37.2547 156.172 37.2547 156.374C40.4883 155.767 42.9135 153.746 43.1156 151.119C43.1156 150.917 43.1156 150.715 43.1156 150.311C43.1156 147.885 41.903 145.258 38.8715 144.248C38.8715 143.843 39.0736 143.439 39.0736 143.035C49.5829 145.864 60.9006 149.704 72.8247 153.948C74.0373 154.353 75.2499 154.757 76.2604 154.959C75.0478 154.959 73.8352 155.161 72.4205 155.161C61.1027 156.576 48.7745 157.182 37.0526 157.384C37.2547 157.182 37.2547 156.778 37.2547 156.374ZM38.8715 175.169C38.8715 174.967 38.8715 174.967 38.8715 175.169C41.4988 173.754 43.1156 171.733 43.1156 169.308C43.1156 169.106 43.1156 168.702 43.1156 168.5C42.7114 165.872 40.8925 163.245 37.2547 163.043C37.2547 162.639 37.2547 162.235 37.2547 161.83C48.1682 161.83 59.8901 162.437 72.6226 163.447C74.0373 163.649 75.2499 163.649 76.2604 163.649C75.2499 164.054 74.0373 164.458 72.6226 164.862C61.9111 169.106 50.3913 172.946 39.0736 176.18C39.0736 175.978 39.0736 175.573 38.8715 175.169ZM45.3387 192.752C45.3387 192.752 45.3387 192.55 45.3387 192.752C47.1577 191.135 48.1682 189.316 48.1682 187.295C48.1682 186.487 47.9661 185.881 47.764 185.274C46.7535 182.849 44.3282 180.828 40.6904 181.636C40.4883 181.232 40.4883 180.828 40.2862 180.424C50.7955 177.594 62.3153 175.169 74.8457 172.946C76.2604 172.744 77.2709 172.34 78.4835 172.138C77.473 172.744 76.4625 173.35 75.2499 174.361C65.9532 181.232 55.8481 187.902 45.743 193.965C45.743 193.358 45.5409 193.156 45.3387 192.752ZM56.2523 208.112C57.2628 206.495 57.667 205.08 57.667 203.463C57.667 202.251 57.2628 201.038 56.4544 200.23C54.8376 198.209 51.806 196.794 48.5724 198.411C48.3703 198.007 48.1682 197.805 47.9661 197.4C57.2628 191.944 67.9742 186.487 79.494 181.03C80.7067 180.424 81.7172 179.818 82.7277 179.413C81.9193 180.222 81.1109 181.232 80.3024 182.243C73.2289 191.337 65.1448 200.432 57.0607 208.92C56.8586 208.718 56.4544 208.516 56.2523 208.112ZM70.6015 220.036C70.8036 218.823 71.0057 217.813 71.0057 216.802C71.0057 214.781 70.1973 213.164 68.7826 212.356C66.7616 210.941 63.528 210.133 60.9006 212.76C60.4964 212.558 60.2943 212.154 60.0922 211.952C67.7721 204.272 76.4625 196.188 86.1634 188.104C87.1739 187.295 87.9823 186.487 88.7907 185.678C88.1844 186.689 87.7802 187.902 87.1739 189.114C82.7277 199.624 77.473 210.537 71.612 220.642C71.4099 220.44 71.0057 220.238 70.6015 220.036ZM87.5781 227.918C87.7802 224.482 86.3655 221.855 83.9403 220.844C81.5151 220.036 78.2814 220.238 76.2604 223.27C75.8562 223.067 75.6541 222.865 75.2499 222.663C80.7066 213.367 86.9718 203.261 94.2475 192.752C95.0559 191.539 95.6622 190.529 96.2685 189.721C96.0664 190.731 95.8643 192.146 95.4601 193.56C93.8433 204.878 91.4181 216.802 88.5886 228.322C88.3865 228.12 87.9823 228.12 87.5781 227.918ZM105.969 230.949C105.363 227.716 103.342 225.291 100.715 225.088C98.0874 224.886 95.0559 225.897 94.0454 229.333C93.6412 229.333 93.237 229.13 92.8328 229.13C95.6622 218.621 99.3001 207.303 103.544 195.379C103.948 194.167 104.353 192.954 104.555 191.944C104.555 193.156 104.757 194.369 104.757 195.784C106.172 207.101 106.98 219.43 107.182 231.151C106.778 231.151 106.374 231.151 105.969 230.949ZM178.928 144.45C176.301 145.864 174.482 147.885 174.482 150.311C174.482 150.513 174.482 150.917 174.482 151.119C174.886 153.746 176.705 156.374 180.343 156.576C180.343 156.98 180.343 157.384 180.343 157.788C169.632 157.788 157.708 156.98 144.975 155.767C143.56 155.565 142.348 155.565 141.337 155.565C142.348 155.161 143.56 154.757 144.975 154.353C155.687 150.108 167.206 146.269 178.524 143.237C178.726 143.641 178.726 144.045 178.928 144.45ZM172.663 126.867C172.663 126.867 172.663 127.069 172.663 126.867C170.844 128.484 169.834 130.302 169.834 132.323C169.834 133.132 170.036 133.738 170.238 134.344C171.248 136.77 173.674 138.791 177.312 138.184C177.514 138.589 177.514 138.993 177.716 139.397C167.206 142.024 155.485 144.45 142.954 146.673C141.539 146.875 140.529 147.077 139.316 147.481C140.327 146.875 141.337 146.269 142.55 145.46C151.847 138.387 161.952 131.717 172.057 125.856C172.259 126.26 172.461 126.463 172.663 126.867ZM162.154 111.709C161.143 113.326 160.537 114.943 160.537 116.357C160.537 117.57 160.941 118.783 161.75 119.591C163.366 121.612 166.196 123.027 169.43 121.41C169.632 121.814 169.834 122.016 170.036 122.42C160.537 127.675 150.028 133.132 138.306 138.184C137.093 138.791 136.083 139.195 135.072 139.801C135.881 138.993 136.689 137.982 137.7 136.972C144.975 128.079 153.059 118.985 161.345 110.699C161.548 111.103 161.952 111.305 162.154 111.709ZM147.603 99.1787C147.603 99.1787 147.805 99.3808 147.603 99.1787C147.4 100.391 146.996 101.402 146.996 102.412C146.996 104.231 147.805 105.848 149.219 106.859C151.24 108.273 154.474 109.082 157.101 106.656C157.303 106.859 157.708 107.263 157.91 107.465C150.23 115.145 141.337 123.027 131.434 131.111C130.424 131.919 129.413 132.728 128.807 133.536C129.413 132.526 129.818 131.515 130.424 130.1C135.072 119.591 140.529 108.678 146.39 98.5724C146.996 98.7745 147.198 98.9766 147.603 99.1787ZM130.626 91.2967C130.828 91.2967 130.828 91.2967 130.626 91.2967C130.424 94.7324 131.839 97.3598 134.264 98.3703C136.689 99.3808 139.923 99.1787 141.944 95.9451C142.348 96.1472 142.55 96.3493 142.954 96.5514C137.497 105.848 131.03 115.751 123.552 126.26C122.744 127.271 122.138 128.281 121.531 129.292C121.733 128.281 122.138 126.867 122.34 125.452C124.159 114.134 126.584 102.21 129.413 90.8925C130.02 90.8925 130.222 91.0946 130.626 91.2967ZM112.437 87.861C112.437 87.861 112.639 87.861 112.437 87.861C113.043 91.0946 115.064 93.5198 117.691 93.7219C120.319 93.924 123.35 92.9135 124.563 89.4778C124.967 89.4778 125.371 89.6799 125.775 89.6799C122.946 100.189 119.106 111.507 114.66 123.229C114.256 124.441 113.851 125.654 113.447 126.665C113.447 125.452 113.245 124.239 113.245 122.825C112.033 111.507 111.224 99.1787 111.224 87.4568C111.628 87.861 112.033 87.861 112.437 87.861ZM124.361 229.333C122.744 226.301 120.319 224.684 117.691 225.088C115.064 225.493 112.437 227.312 112.235 230.949C111.83 230.949 111.426 230.949 111.022 230.949C111.022 220.036 111.628 208.314 112.841 195.581C113.043 194.369 113.043 193.358 113.043 192.348C113.043 192.146 113.043 192.146 113.043 191.944C113.447 192.954 113.851 194.167 114.256 195.581C118.5 206.293 122.34 217.813 125.573 229.13C125.169 229.333 124.765 229.333 124.361 229.333ZM141.742 223.067C141.742 223.067 141.539 223.067 141.742 223.067C139.518 220.44 136.689 219.43 134.264 220.642C131.434 221.855 129.818 224.684 130.626 227.716C130.222 227.918 129.818 227.918 129.413 228.12C126.584 217.611 124.159 206.091 122.138 193.56C121.936 192.146 121.733 191.135 121.329 189.923C121.936 190.933 122.542 191.944 123.552 193.156C130.424 202.453 137.093 212.558 142.954 222.663C142.348 222.865 142.146 222.865 141.742 223.067ZM157.303 212.154C157.303 212.356 157.303 212.356 157.303 212.154C154.474 210.335 151.442 210.133 149.421 211.75C147.805 212.962 146.996 214.781 146.996 216.6C146.996 217.611 147.198 218.621 147.805 219.43C147.4 219.632 147.198 219.834 146.794 220.036C141.337 210.739 135.881 200.028 130.626 188.508C130.02 187.295 129.413 186.285 129.009 185.274C129.818 186.083 130.828 186.891 131.839 187.699C140.933 194.773 150.028 202.857 158.314 211.143C157.91 211.75 157.708 211.952 157.303 212.154ZM169.227 198.007C169.227 198.007 169.227 198.209 169.227 198.007C165.994 196.996 162.962 197.4 161.548 199.624C161.143 200.23 160.133 201.847 160.133 203.463C160.133 204.474 160.537 206.091 161.75 207.506C161.548 207.708 161.143 208.112 160.941 208.314C153.261 200.634 145.379 191.742 137.295 182.041C136.487 181.03 135.678 180.02 134.87 179.413C135.881 180.02 137.093 180.424 138.306 181.03C148.815 185.678 159.729 191.135 170.036 196.794C169.632 197.4 169.43 197.603 169.227 198.007ZM177.109 181.03C177.109 181.232 177.109 181.232 177.109 181.03C173.674 180.828 171.046 182.041 170.036 184.668C169.834 185.274 169.632 186.083 169.632 187.295C169.632 188.508 170.036 190.731 172.461 192.348C172.259 192.752 172.057 192.954 171.855 193.358C162.558 187.902 152.453 181.434 142.146 174.159C141.135 173.35 139.923 172.744 139.114 172.138C140.125 172.34 141.539 172.744 142.954 172.946C154.272 174.563 166.196 176.988 177.514 180.02C177.312 180.424 177.312 180.828 177.109 181.03ZM180.343 162.841C177.109 163.447 174.684 165.266 174.482 167.893C174.482 168.096 174.482 168.298 174.482 168.702C174.482 171.127 175.695 173.754 178.726 174.765C178.726 175.169 178.524 175.573 178.524 175.978C168.015 173.148 156.697 169.51 144.773 165.064C143.56 164.66 142.348 164.256 141.337 164.054C142.55 164.054 143.763 163.851 145.177 163.851C156.495 162.639 168.823 161.83 180.545 161.83C180.545 162.033 180.343 162.437 180.343 162.841Z" fill="#D1D1D1"/>
<circle cx="109" cy="159" r="77" stroke="url(#paint1_linear)" stroke-width="2"/>
<circle cx="109" cy="159" r="101" stroke="url(#paint2_linear)" stroke-width="2"/>
<g filter="url(#filter1_i)">
<circle cx="109" cy="159" r="50" fill="#AEAEAE"/>
</g>
<path fill-rule="evenodd" clip-rule="evenodd" d="M83.168 135.786V134H112.692V162.571H83.168V135.786ZM97.161 152.75L93.2143 148.931L87.2685 157.214H92.3942H93.8718H101.988H103.466H110.026L102.645 142.829L97.161 152.75ZM131.144 159H116.382V155.429H134.835V184H105.311V166.143H109.001V180.429H131.144V159ZM127.96 164.525V161.731H120.929V164.525H122.626V169.84H119.165C118.739 169.458 118.218 169.216 117.601 169.117C118.335 168.884 118.901 168.46 119.298 167.844C119.694 167.229 119.893 166.488 119.893 165.623C119.893 164.359 119.511 163.369 118.747 162.654C117.983 161.922 116.895 161.556 115.485 161.556C114.5 161.556 113.648 161.714 112.928 162.03V165.199C113.721 164.783 114.493 164.575 115.242 164.575C116.271 164.575 116.785 165.074 116.785 166.072C116.785 167.104 116.175 167.619 114.956 167.619H114.272V170.564H115.176C115.97 170.564 116.513 170.722 116.807 171.038C117.116 171.354 117.27 171.778 117.27 172.31C117.27 173.708 116.623 174.406 115.33 174.406C114.375 174.406 113.427 174.124 112.487 173.558V176.802C113.413 177.168 114.412 177.351 115.485 177.351C117.072 177.351 118.262 176.935 119.055 176.103C119.863 175.271 120.267 174.19 120.267 172.859V172.685H122.626V178.474H125.756V164.525H127.96Z" fill="white"/>
<path d="M55.6 93.8996L50 86.7996L52.3 84.9996C53.1 84.3996 53.8 84.0996 54.4 84.0996C55 84.0996 55.6 84.3996 56.1 85.0996C56.4 85.3996 56.5 85.7996 56.5 86.1996C56.5 86.5996 56.4 86.9996 56.2 87.3996C56.7 87.1996 57.1 87.1996 57.6 87.2996C58.1 87.3996 58.5 87.6996 58.8 88.0996C59.3 88.6996 59.5 89.3996 59.4 90.0996C59.3 90.7996 58.8 91.3996 58.1 91.9996L55.6 93.8996ZM53.3 89.0996L54.7 87.9996C55.1 87.6996 55.4 87.2996 55.4 86.8996C55.5 86.4996 55.4 86.0996 55.1 85.7996C54.8 85.3996 54.5 85.1996 54.1 85.1996C53.7 85.1996 53.3 85.3996 52.8 85.7996L51.4 86.8996L53.3 89.0996ZM53.9 89.7996L55.9 92.3996L57.5 91.1996C57.9 90.8996 58.2 90.4996 58.3 89.9996C58.4 89.5996 58.3 89.1996 57.9 88.7996C57.2 87.8996 56.4 87.8996 55.5 88.5996L53.9 89.7996Z" fill="white"/>
<path d="M59.1992 83.8002C59.2992 83.0002 59.6992 82.4001 60.3992 81.9001C61.5992 81.1001 62.5992 81.4002 63.4992 82.7002L65.8992 86.4001L64.8992 87.0002L62.4992 83.3002C62.1992 82.9002 61.8992 82.7002 61.5992 82.6002C61.2992 82.5002 60.8992 82.6001 60.5992 82.9001C60.2992 83.1001 60.0992 83.4002 59.8992 83.7002C59.7992 84.0002 59.6992 84.4002 59.7992 84.7002L62.3992 88.7002L61.3992 89.3002L56.1992 81.3002L57.1992 80.7002L59.1992 83.8002Z" fill="white"/>
<path d="M70.6984 83.7994C70.5984 83.6994 70.3984 83.4994 70.1984 83.2994C69.9984 83.9994 69.5984 84.5994 68.8984 84.9994C68.2984 85.2994 67.6984 85.3994 67.1984 85.2994C66.5984 85.1994 66.1984 84.8993 65.9984 84.3993C65.6984 83.7993 65.5984 83.1994 65.8984 82.5994C66.1984 81.9994 66.6984 81.4994 67.5984 80.9994L68.5984 80.4994L68.2984 79.9994C68.0984 79.5994 67.7984 79.3994 67.4984 79.2994C67.1984 79.1994 66.7984 79.2994 66.3984 79.4994C65.9984 79.6994 65.7984 79.9994 65.5984 80.2994C65.3984 80.5994 65.4984 80.8994 65.5984 81.1994L64.5984 81.7994C64.3984 81.4994 64.3984 81.1994 64.3984 80.7994C64.4984 80.3994 64.5984 79.9994 64.8984 79.6994C65.1984 79.2994 65.4984 78.9994 65.9984 78.7994C66.6984 78.3994 67.2984 78.2993 67.8984 78.3993C68.4984 78.4993 68.8984 78.8994 69.2984 79.4994L70.7984 82.1994C71.0984 82.6994 71.3984 83.0993 71.6984 83.3993V83.4994L70.6984 83.7994ZM68.5984 83.9994C68.8984 83.7994 69.1984 83.5994 69.3984 83.2994C69.5984 82.9994 69.6984 82.6994 69.6984 82.2994L68.9984 81.0994L68.1984 81.4994C66.9984 82.1994 66.4984 82.8994 66.8984 83.5994C67.0984 83.8994 67.2984 84.0994 67.5984 84.1994C67.8984 84.2994 68.2984 84.0994 68.5984 83.9994Z" fill="white"/>
<path d="M75.6995 79.4998C75.5995 79.1998 75.3995 78.9998 75.0995 78.9998C74.7995 78.8998 74.3995 78.9997 73.7995 79.0997C73.1995 79.1997 72.6995 79.2997 72.2995 79.2997C71.8995 79.2997 71.5995 79.1998 71.3995 78.9998C71.1995 78.7998 70.9995 78.5997 70.7995 78.2997C70.5995 77.7997 70.5995 77.2998 70.8995 76.6998C71.1995 76.0998 71.5995 75.6997 72.2995 75.3997C72.9995 75.0997 73.5995 74.9998 74.1995 75.1998C74.7995 75.3998 75.1995 75.6997 75.4995 76.2997L74.3995 76.7997C74.2995 76.4997 73.9995 76.2998 73.6995 76.1998C73.3995 76.0998 72.9995 76.0997 72.5995 76.2997C72.1995 76.4997 71.9995 76.6998 71.7995 76.9998C71.5995 77.2998 71.6995 77.4997 71.7995 77.7997C71.8995 78.0997 72.0995 78.1998 72.3995 78.1998C72.6995 78.1998 73.0995 78.1997 73.6995 78.0997C74.2995 77.9997 74.7995 77.8997 75.1995 77.8997C75.5995 77.8997 75.8995 77.9998 76.1995 78.1998C76.4995 78.3998 76.6995 78.5997 76.7995 78.8997C76.9995 79.3997 76.9995 79.9998 76.6995 80.4998C76.3995 80.9998 75.8995 81.4997 75.1995 81.7997C74.6995 81.9997 74.1995 82.0997 73.7995 82.0997C73.2995 82.0997 72.8995 81.9997 72.5995 81.7997C72.2995 81.5997 71.9995 81.2997 71.7995 80.8997L72.7995 80.3997C72.9995 80.6997 73.1995 80.9998 73.5995 80.9998C73.9995 81.0998 74.3995 80.9997 74.7995 80.7997C75.1995 80.5997 75.4995 80.3997 75.5995 80.0997C75.7995 79.9997 75.7995 79.6998 75.6995 79.4998Z" fill="white"/>
<path d="M77.6016 74.2002C77.9016 73.4002 78.4016 72.9002 79.2016 72.6002C80.5016 72.1002 81.5016 72.6002 82.0016 74.1002L83.5016 78.3002L82.4016 78.7002L80.9016 74.5002C80.7016 74.0002 80.5016 73.7002 80.2016 73.6002C79.9016 73.5002 79.6016 73.5002 79.1016 73.6002C78.7016 73.7002 78.5016 73.9002 78.3016 74.2002C78.1016 74.5002 78.0016 74.8002 77.9016 75.2002L79.5016 79.7002L78.4016 80.1002L75.1016 71.1002L76.2016 70.7002L77.6016 74.2002Z" fill="white"/>
<path d="M82.5015 69.7995C82.4015 69.5995 82.5015 69.4995 82.5015 69.2995C82.5015 69.0995 82.7015 68.9995 82.9015 68.9995C83.1015 68.9995 83.3015 68.8995 83.4015 68.9995C83.5015 69.0995 83.6015 69.1995 83.7015 69.3995C83.8015 69.5995 83.7015 69.6995 83.7015 69.8995C83.6015 70.0995 83.5015 70.1995 83.3015 70.1995C83.1015 70.1995 82.9015 70.2995 82.8015 70.1995C82.7015 70.0995 82.6015 69.9995 82.5015 69.7995ZM86.2015 77.5995L85.1015 77.8995L83.2015 71.3995L84.3015 71.0995L86.2015 77.5995Z" fill="white"/>
<path d="M87.2 70.3L87.4 71.1C87.8 70.4 88.3 69.9 89.1 69.7C90.5 69.4 91.4 70 91.8 71.5L92.8 75.8L91.7 76.1L90.7 71.8C90.6 71.3 90.4 71 90.1 70.8C89.8 70.6 89.5 70.6 89 70.7C88.6 70.8 88.3 71 88.1 71.2C87.9 71.5 87.7 71.8 87.6 72.1L88.7 76.8L87.6 77.1L86 70.5L87.2 70.3Z" fill="white"/>
<path d="M92.8008 67.2004C92.8008 67.0004 92.8008 66.9004 92.9008 66.7004C93.0008 66.5004 93.1008 66.5004 93.4008 66.4004C93.6008 66.4004 93.8008 66.4004 93.9008 66.5004C94.0008 66.6004 94.1008 66.8004 94.2008 66.9004C94.2008 67.1004 94.2008 67.2004 94.1008 67.4004C94.0008 67.5004 93.9008 67.6004 93.6008 67.7004C93.4008 67.7004 93.2008 67.7004 93.1008 67.6004C93.0008 67.5004 92.8008 67.4004 92.8008 67.2004ZM95.5008 75.4004L94.4008 75.6004L93.2008 69.0004L94.3008 68.8004L95.5008 75.4004Z" fill="white"/>
<path d="M99.6992 70.0002C99.6992 69.6002 99.6992 69.3002 99.9992 69.1002C100.199 68.8002 100.499 68.7002 100.899 68.7002C101.299 68.7002 101.599 68.7001 101.899 68.9001C102.199 69.1001 102.299 69.4002 102.299 69.8002V70.0002C102.299 70.4002 102.299 70.7001 101.999 70.9001C101.799 71.1001 101.499 71.3002 101.099 71.3002C100.699 71.3002 100.399 71.3002 100.099 71.0002C99.7992 70.8002 99.6992 70.5002 99.6992 70.1002V70.0002Z" fill="white"/>
<path d="M107.199 74.1L107.299 65H109.899C110.699 65 111.399 65.2 111.999 65.6C112.599 66 113.099 66.5 113.399 67.1C113.699 67.7 113.899 68.5 113.899 69.3V69.9C113.899 70.8 113.699 71.5 113.399 72.1C113.099 72.7 112.599 73.2 111.999 73.6C111.399 73.9 110.699 74.1 109.899 74.1H107.199ZM108.499 66.1L108.399 73.2H109.699C110.599 73.2 111.299 72.9 111.899 72.4C112.399 71.8 112.699 71 112.699 70V69.5C112.699 68.5 112.499 67.7 111.999 67.1C111.499 66.5 110.799 66.2 109.999 66.2L108.499 66.1Z" fill="white"/>
<path d="M117.901 74.7004C117.001 74.6004 116.301 74.3004 115.801 73.6004C115.301 73.0004 115.101 72.1004 115.201 71.1004V70.9004C115.301 70.2004 115.401 69.7004 115.701 69.1004C116.001 68.6004 116.401 68.2004 116.901 68.0004C117.401 67.8004 117.901 67.6004 118.401 67.7004C119.301 67.8004 119.901 68.1004 120.401 68.7004C120.801 69.3004 121.001 70.2004 120.901 71.2004V71.7004L116.201 71.3004C116.201 72.0004 116.301 72.5004 116.601 73.0004C116.901 73.4004 117.401 73.7004 118.001 73.7004C118.401 73.7004 118.801 73.7004 119.101 73.5004C119.401 73.3004 119.701 73.2004 119.901 72.9004L120.601 73.5004C119.901 74.4004 119.001 74.8004 117.901 74.7004ZM118.201 68.6004C117.701 68.6004 117.301 68.7004 117.001 69.0004C116.701 69.3004 116.401 69.8004 116.301 70.4004L119.701 70.7004V70.6004C119.701 70.0004 119.601 69.5004 119.301 69.2004C119.001 68.9004 118.701 68.7004 118.201 68.6004Z" fill="white"/>
<path d="M123.8 72.1004L123 72.7004L122.6 75.0004L121.5 74.8004L123 65.4004L124.1 65.6004L123.2 71.3004L123.9 70.7004L126.3 68.9004L127.7 69.1004L124.7 71.5004L127 75.8004L125.7 75.6004L123.8 72.1004Z" fill="white"/>
<path d="M130.002 70.4998C130.602 69.9998 131.402 69.8998 132.202 70.0998C133.602 70.3998 134.102 71.3998 133.702 72.9998L132.602 77.2998L131.502 76.9998L132.602 72.6998C132.702 72.1998 132.702 71.8998 132.502 71.5998C132.302 71.2998 132.002 71.0998 131.602 70.9998C131.202 70.8998 130.902 70.8998 130.602 71.0998C130.302 71.2998 130.002 71.3998 129.802 71.6998L128.702 76.3998L127.602 76.0998L129.902 66.7998L131.002 67.0998L130.002 70.4998Z" fill="white"/>
<path d="M134.798 74.2001C134.998 73.6001 135.298 73.0001 135.698 72.6001C136.098 72.2001 136.598 71.9001 137.098 71.8001C137.598 71.7001 138.198 71.7 138.698 71.9C139.598 72.2 140.198 72.7001 140.498 73.5001C140.798 74.3001 140.798 75.2001 140.498 76.2001V76.3001C140.298 76.9001 139.998 77.4 139.598 77.9C139.198 78.3 138.698 78.6001 138.198 78.7001C137.698 78.8001 137.098 78.8001 136.498 78.6001C135.598 78.3001 134.998 77.8001 134.698 77.0001C134.398 76.2001 134.398 75.3001 134.798 74.2001ZM135.798 74.7001C135.598 75.4001 135.498 76.0001 135.698 76.6001C135.898 77.1001 136.298 77.5001 136.798 77.7001C137.398 77.9001 137.898 77.8001 138.298 77.5001C138.798 77.2001 139.098 76.6001 139.398 75.8001C139.598 75.1001 139.698 74.5 139.498 73.9C139.298 73.4 138.898 73.0001 138.398 72.8001C137.898 72.6001 137.398 72.7001 136.898 73.0001C136.398 73.3001 136.098 73.9001 135.798 74.7001Z" fill="white"/>
<path d="M144.702 81.5998L143.602 81.0998L147.302 72.7998L148.402 73.2998L144.702 81.5998Z" fill="white"/>
<path d="M150.301 76.8004L149.901 77.6004C150.701 77.3004 151.401 77.3004 152.101 77.7004C153.401 78.4004 153.601 79.4004 152.901 80.8004L150.901 84.8004L149.901 84.3004L151.901 80.3004C152.101 79.9004 152.201 79.5004 152.101 79.2004C152.001 78.9004 151.801 78.6004 151.401 78.4004C151.101 78.2004 150.701 78.2004 150.401 78.2004C150.101 78.2004 149.701 78.4004 149.501 78.6004L147.301 82.9004L146.301 82.4004L149.401 76.4004L150.301 76.8004Z" fill="white"/>
<path d="M153.8 82.3C154.3 81.4 155 80.8 155.7 80.6C156.4 80.3 157.2 80.4 157.8 80.8C158.5 81.2 158.9 81.8 159 82.5L160.8 79.5L161.8 80.1L156.8 88.2L155.9 87.6L156.2 87C155.5 87.2 154.8 87.1 154.1 86.7C153.4 86.3 153.1 85.7 153 84.9C153 84.1 153.2 83.3 153.8 82.3ZM154.7 83C154.3 83.7 154.1 84.2 154.2 84.8C154.2 85.3 154.5 85.7 155 86C155.6 86.4 156.2 86.4 156.9 86L158.5 83.4C158.5 82.7 158.3 82.1 157.7 81.8C157.2 81.5 156.7 81.5 156.2 81.7C155.6 81.8 155.1 82.3 154.7 83Z" fill="white"/>
<path d="M159.099 89.8002L158.199 89.1002L162.099 83.6002L162.999 84.3002L159.099 89.8002ZM162.899 82.1002C162.999 81.9002 163.099 81.9002 163.299 81.8002C163.499 81.7002 163.599 81.8002 163.799 81.9002C163.999 82.0002 164.099 82.2002 164.099 82.4002C164.099 82.6002 164.099 82.7002 163.999 82.9002C163.899 83.1002 163.799 83.1002 163.599 83.2002C163.399 83.2002 163.299 83.2002 163.099 83.1002C162.899 83.0002 162.799 82.8002 162.799 82.7002C162.799 82.4002 162.799 82.3002 162.899 82.1002Z" fill="white"/>
<path d="M163.699 93.2996C163.699 93.1996 163.799 92.8996 163.999 92.5996C163.199 92.6996 162.599 92.4996 161.999 92.0996C161.499 91.6996 161.199 91.1996 161.099 90.5996C160.999 89.9996 161.099 89.4996 161.499 89.0996C161.899 88.4996 162.499 88.2996 163.099 88.2996C163.799 88.2996 164.499 88.5996 165.199 89.1996L166.099 89.8996L166.399 89.4996C166.599 89.1996 166.799 88.8996 166.699 88.4996C166.699 88.1996 166.499 87.7996 166.099 87.5996C165.799 87.2996 165.399 87.1996 165.099 87.1996C164.799 87.1996 164.499 87.2996 164.299 87.4996L163.399 86.7996C163.599 86.4996 163.899 86.3996 164.299 86.2996C164.699 86.1996 165.099 86.1996 165.499 86.2996C165.899 86.3996 166.299 86.5996 166.699 86.8996C167.299 87.3996 167.699 87.8996 167.799 88.4996C167.899 89.0996 167.799 89.5996 167.299 90.1996L165.399 92.5996C164.999 93.0996 164.799 93.4996 164.699 93.8996L164.599 93.9996L163.699 93.2996ZM162.699 91.3996C162.999 91.5996 163.299 91.7996 163.699 91.7996C164.099 91.7996 164.399 91.7996 164.699 91.6996L165.599 90.5996L164.899 89.9996C163.799 89.0996 162.999 88.9996 162.499 89.6996C162.299 89.9996 162.199 90.2996 162.299 90.5996C162.199 90.8996 162.399 91.1996 162.699 91.3996Z" fill="white"/>
<path d="M22 193.1L30.3 189.5L31.5 192.2C31.9 193.1 32 193.9 31.8 194.5C31.6 195.1 31.2 195.6 30.4 195.9C30 196.1 29.6 196.1 29.2 196C28.8 195.9 28.4 195.7 28.1 195.4C28.2 195.9 28.1 196.4 27.8 196.8C27.5 197.2 27.2 197.5 26.7 197.7C26 198 25.3 198 24.6 197.7C24 197.4 23.5 196.8 23.1 195.9L22 193.1ZM26.3 192.5L23.3 193.8L24.1 195.6C24.3 196.1 24.6 196.5 25 196.6C25.4 196.7 25.8 196.8 26.3 196.6C27.3 196.2 27.6 195.4 27.1 194.3L26.3 192.5ZM27.2 192.1L27.9 193.8C28.1 194.3 28.4 194.6 28.8 194.8C29.2 195 29.6 195 30 194.8C30.5 194.6 30.7 194.3 30.8 194C30.9 193.6 30.8 193.2 30.6 192.6L29.9 191L27.2 192.1Z" fill="white"/>
<path d="M31.1 198.8C31.9 199 32.5 199.4 32.9 200.1C33.6 201.4 33.2 202.4 31.8 203.1L27.9 205.2L27.4 204.2L31.3 202.1C31.7 201.9 32 201.6 32.1 201.3C32.2 201 32.1 200.6 31.9 200.2C31.7 199.9 31.5 199.6 31.2 199.5C30.9 199.4 30.6 199.3 30.2 199.3L26 201.6L25.5 200.6L33.9 196.1L34.4 197.1L31.1 198.8Z" fill="white"/>
<path d="M31.1009 210.5C31.2009 210.4 31.3009 210.2 31.6009 210C30.8009 209.8 30.3009 209.5 29.9009 208.8C29.5009 208.2 29.4009 207.7 29.5009 207.1C29.6009 206.5 29.9009 206.1 30.4009 205.8C31.0009 205.4 31.6009 205.4 32.2009 205.6C32.8009 205.8 33.4009 206.4 33.9009 207.2L34.5009 208.1L34.9009 207.8C35.2009 207.6 35.4009 207.3 35.5009 207C35.6009 206.7 35.5009 206.3 35.2009 205.9C35.0009 205.6 34.7009 205.3 34.4009 205.2C34.1009 205.1 33.8009 205.1 33.5009 205.3L32.9009 204.3C33.2009 204.1 33.5009 204 33.9009 204.1C34.3009 204.1 34.7009 204.3 35.0009 204.5C35.3009 204.7 35.7009 205.1 36.0009 205.5C36.4009 206.2 36.6009 206.8 36.5009 207.4C36.4009 208 36.1009 208.5 35.5009 208.8L32.9009 210.5C32.4009 210.8 32.0009 211.2 31.8009 211.5L31.7009 211.6L31.1009 210.5ZM30.8009 208.4C31.0009 208.7 31.3009 208.9 31.6009 209.1C31.9009 209.3 32.3009 209.3 32.6009 209.3L33.8009 208.6L33.3009 207.8C32.5009 206.6 31.8009 206.2 31.1009 206.7C30.8009 206.9 30.6009 207.1 30.6009 207.5C30.5009 207.8 30.6009 208.1 30.8009 208.4Z" fill="white"/>
<path d="M36.6016 215.2C36.8016 215 37.0016 214.8 37.0016 214.5C37.0016 214.2 36.9016 213.8 36.6016 213.3C36.4016 212.8 36.2016 212.3 36.1016 211.9C36.0016 211.5 36.0016 211.2 36.1016 210.9C36.2016 210.6 36.4016 210.4 36.6016 210.2C37.0016 209.9 37.6016 209.8 38.1016 209.9C38.6016 210 39.2016 210.4 39.6016 211C40.1016 211.6 40.3016 212.2 40.2016 212.8C40.2016 213.4 39.9016 213.9 39.4016 214.3L38.7016 213.4C39.0016 213.2 39.1016 212.9 39.1016 212.6C39.1016 212.2 39.0016 211.9 38.8016 211.6C38.5016 211.3 38.3016 211.1 38.0016 211C37.7016 210.9 37.4016 211 37.2016 211.1C37.0016 211.3 36.9016 211.5 36.9016 211.7C36.9016 212 37.0016 212.4 37.3016 212.9C37.5016 213.4 37.7016 213.9 37.8016 214.3C37.9016 214.7 37.9016 215 37.8016 215.3C37.7016 215.6 37.5016 215.8 37.2016 216.1C36.7016 216.5 36.2016 216.6 35.6016 216.4C35.0016 216.2 34.5016 215.8 34.0016 215.2C33.7016 214.8 33.5016 214.3 33.4016 213.9C33.3016 213.5 33.3016 213 33.5016 212.6C33.7016 212.2 33.9016 211.9 34.2016 211.7L34.9016 212.6C34.6016 212.8 34.5016 213.2 34.4016 213.5C34.4016 213.9 34.5016 214.2 34.8016 214.6C35.1016 214.9 35.3016 215.2 35.6016 215.3C36.1016 215.4 36.4016 215.3 36.6016 215.2Z" fill="white"/>
<path d="M42.1985 215.6C42.9985 215.6 43.6985 215.9 44.1985 216.5C45.0985 217.6 44.9984 218.6 43.7984 219.7L40.3984 222.6L39.5984 221.7L42.9984 218.8C43.3984 218.5 43.5984 218.2 43.5984 217.8C43.5984 217.5 43.4985 217.2 43.1985 216.8C42.9985 216.5 42.6984 216.3 42.2984 216.3C41.9984 216.2 41.5984 216.2 41.2984 216.3L37.6985 219.5L36.8984 218.6L44.0984 212.3L44.8984 213.2L42.1985 215.6Z" fill="white"/>
<path d="M44.9 227C44.9 226.9 45.1 226.7 45.3 226.4C44.5 226.4 43.9 226.2 43.3 225.7C42.8 225.2 42.6 224.7 42.5 224.2C42.5 223.6 42.6 223.1 43 222.7C43.5 222.2 44.1 222 44.7 222.1C45.4 222.2 46 222.6 46.7 223.3L47.5 224.1L47.9 223.7C48.2 223.4 48.3 223.1 48.3 222.8C48.3 222.5 48.1 222.1 47.8 221.8C47.5 221.5 47.2 221.3 46.8 221.3C46.5 221.3 46.2 221.3 46 221.5L45.2 220.7C45.4 220.5 45.7 220.3 46.1 220.3C46.5 220.2 46.9 220.3 47.3 220.4C47.7 220.6 48.1 220.8 48.5 221.1C49.1 221.6 49.4 222.2 49.4 222.8C49.4 223.4 49.2 223.9 48.8 224.4L46.6 226.6C46.2 227 45.9 227.4 45.7 227.8L45.6 227.9L44.9 227ZM44.1 225C44.4 225.3 44.7 225.4 45 225.5C45.4 225.6 45.7 225.6 46 225.5L47 224.5L46.4 223.9C45.4 222.9 44.6 222.7 44 223.3C43.7 223.6 43.6 223.8 43.7 224.2C43.7 224.5 43.9 224.8 44.1 225Z" fill="white"/>
<path d="M54.5 229.8C53.9 228.9 53.5 228.2 53.4 227.6C53.3 227 53.4 226.4 53.8 225.9C54.2 225.3 54.8 225 55.6 225C56.3 225 57.1 225.2 57.8 225.8C58.3 226.2 58.7 226.6 58.9 227.1C59.1 227.6 59.2 228.1 59.2 228.6C59.2 229.1 59 229.5 58.7 229.9L57.7 229.2C58 228.8 58.2 228.3 58.1 227.9C58 227.4 57.7 227 57.2 226.6C56.7 226.2 56.3 226.1 55.9 226.1C55.5 226.1 55.1 226.3 54.8 226.7C54.6 227 54.5 227.3 54.6 227.7C54.7 228.1 55 228.6 55.4 229.2C55.9 229.8 56.2 230.4 56.4 230.8C56.6 231.3 56.6 231.7 56.6 232.1C56.6 232.5 56.4 232.9 56.1 233.2C55.7 233.8 55.1 234.1 54.3 234.1C53.6 234.1 52.8 233.8 52.1 233.2C51.6 232.8 51.2 232.4 50.9 231.9C50.6 231.4 50.5 230.9 50.5 230.4C50.5 229.9 50.7 229.4 51 229L52 229.7C51.7 230.1 51.6 230.6 51.7 231.1C51.8 231.6 52.2 232.1 52.7 232.5C53.2 232.9 53.7 233.1 54.1 233.1C54.5 233.1 54.9 232.9 55.1 232.6C55.4 232.2 55.5 231.9 55.4 231.5C55.3 231.1 55 230.5 54.5 229.8Z" fill="white"/>
<path d="M59.6017 238.3C59.6017 238.2 59.7017 237.9 59.9017 237.6C59.1017 237.8 58.5017 237.7 57.8017 237.3C57.2017 236.9 56.9017 236.5 56.7017 235.9C56.5017 235.3 56.6017 234.8 56.9017 234.4C57.3017 233.8 57.8017 233.5 58.5017 233.5C59.2017 233.5 59.9017 233.7 60.7017 234.2L61.6017 234.8L61.9017 234.4C62.1017 234.1 62.2017 233.7 62.1017 233.4C62.0017 233.1 61.8017 232.8 61.4017 232.5C61.1017 232.3 60.7017 232.2 60.4017 232.2C60.1017 232.2 59.8017 232.4 59.6017 232.6L58.6017 232C58.8017 231.7 59.1017 231.5 59.4017 231.4C59.8017 231.3 60.2017 231.2 60.6017 231.3C61.0017 231.4 61.5017 231.5 61.9017 231.8C62.6017 232.2 63.0017 232.7 63.1017 233.3C63.3017 233.9 63.2017 234.4 62.8017 235L61.1017 237.6C60.8017 238.1 60.6017 238.6 60.5017 239L60.4017 239.1L59.6017 238.3ZM58.4017 236.6C58.7017 236.8 59.0017 236.9 59.4017 236.9C59.8017 236.9 60.1017 236.8 60.4017 236.7L61.2017 235.5L60.4017 235C59.2017 234.2 58.4017 234.2 57.9017 234.9C57.7017 235.2 57.6017 235.5 57.7017 235.8C57.9017 236.1 58.1017 236.4 58.4017 236.6Z" fill="white"/>
<path d="M66.3008 234.6L66.0008 235.3C66.7008 235 67.4008 235.1 68.2008 235.4C69.0008 235.8 69.4008 236.4 69.4008 237.2C69.7008 237 70.1008 236.9 70.5008 236.9C70.9008 236.9 71.3008 237 71.8008 237.2C73.1008 237.9 73.4008 238.9 72.7008 240.3L70.6008 244.3L69.6008 243.8L71.6008 239.8C71.8008 239.4 71.9008 239 71.8008 238.7C71.7008 238.4 71.4008 238.1 71.0008 237.9C70.6008 237.7 70.2008 237.7 69.9008 237.8C69.5008 237.9 69.2008 238.1 69.0008 238.5L67.0008 242.5L66.0008 242L68.0008 238.1C68.4008 237.2 68.2008 236.6 67.4008 236.1C66.7008 235.8 66.1008 235.8 65.6008 236.2L63.3008 240.6L62.3008 240.1L65.4008 234.1L66.3008 234.6Z" fill="white"/>
<path d="M76.6019 246.8C76.6019 246.7 76.6019 246.4 76.7019 246.1C76.0019 246.4 75.3019 246.4 74.6019 246.2C74.0019 246 73.5019 245.6 73.3019 245.1C73.0019 244.6 73.0019 244.1 73.2019 243.5C73.5019 242.8 73.9019 242.4 74.5019 242.3C75.1019 242.1 75.9019 242.2 76.8019 242.6L77.8019 243L78.0019 242.5C78.1019 242.1 78.2019 241.8 78.0019 241.5C77.8019 241.2 77.6019 240.9 77.1019 240.8C76.7019 240.7 76.4019 240.6 76.0019 240.7C75.7019 240.8 75.4019 241 75.3019 241.2L74.2019 240.8C74.3019 240.5 74.6019 240.2 74.9019 240C75.2019 239.8 75.6019 239.7 76.1019 239.7C76.5019 239.7 77.0019 239.8 77.5019 239.9C78.2019 240.2 78.7019 240.6 79.0019 241.1C79.3019 241.6 79.3019 242.2 79.1019 242.8L78.0019 245.7C77.8019 246.3 77.7019 246.8 77.7019 247.2V247.3L76.6019 246.8ZM75.1019 245.2C75.4019 245.3 75.8019 245.4 76.2019 245.3C76.6019 245.2 76.9019 245.1 77.1019 244.9L77.6019 243.6L76.8019 243.3C75.5019 242.8 74.7019 242.9 74.4019 243.7C74.3019 244 74.3019 244.3 74.4019 244.6C74.5019 244.9 74.8019 245.1 75.1019 245.2Z" fill="white"/>
<path d="M84.2984 243.3C84.0984 243.2 83.9984 243.1 83.7984 243.1C83.0984 242.9 82.4984 243 81.9984 243.6L80.4984 248.2L79.3984 247.8L81.4984 241.4L82.5984 241.7L82.3984 242.4C82.8984 241.9 83.4985 241.8 84.1985 242C84.3985 242.1 84.5985 242.1 84.6985 242.2L84.2984 243.3Z" fill="white"/>
<path d="M87.8016 241.5L87.4016 243.1L88.6016 243.4L88.4016 244.3L87.2016 244L86.1016 248C86.0016 248.3 86.0016 248.5 86.1016 248.6C86.2016 248.8 86.3016 248.9 86.6016 248.9C86.7016 248.9 86.9016 249 87.1016 249L86.9016 249.9C86.6016 249.9 86.3016 249.9 86.0016 249.8C85.5016 249.7 85.2016 249.4 85.0016 249C84.8016 248.6 84.8016 248.2 85.0016 247.6L86.1016 243.6L84.9016 243.3L85.1016 242.4L86.3016 242.7L86.7016 241.1L87.8016 241.5Z" fill="white"/>
<path d="M90.7 244.7C91.3 244.2 92 244 92.8 244.2C94.2 244.5 94.7 245.4 94.4 247L93.5 251.4L92.4 251.2L93.3 246.8C93.4 246.3 93.4 245.9 93.2 245.7C93 245.4 92.7 245.2 92.3 245.2C91.9 245.1 91.6 245.2 91.3 245.3C91 245.4 90.7 245.7 90.5 245.9L89.6 250.6L88.5 250.3L90.4 240.9L91.5 241.1L90.7 244.7Z" fill="white"/>
<path d="M99.8992 252.2C99.7992 252.1 99.7992 251.8 99.7992 251.5C99.1992 252 98.4992 252.2 97.7992 252.1C97.0992 252 96.5992 251.8 96.1992 251.3C95.7992 250.9 95.6992 250.4 95.6992 249.8C95.7992 249.1 96.0992 248.6 96.6992 248.3C97.2992 248 97.9992 247.9 98.9992 248L100.099 248.1L100.199 247.6C100.199 247.2 100.199 246.9 99.9992 246.6C99.7992 246.3 99.3992 246.2 98.9992 246.1C98.5992 246.1 98.1992 246.1 97.8992 246.3C97.5992 246.5 97.3992 246.7 97.3992 247L96.1992 246.9C96.1992 246.6 96.3992 246.3 96.6992 246C96.9992 245.7 97.2992 245.5 97.7992 245.4C98.1992 245.3 98.6992 245.2 99.1992 245.3C99.9992 245.4 100.599 245.7 100.899 246.1C101.299 246.5 101.499 247.1 101.399 247.8L100.999 250.9C100.899 251.5 100.899 252 101.099 252.4V252.5L99.8992 252.2ZM98.0992 251.1C98.4992 251.1 98.7992 251.1 99.1992 250.9C99.4992 250.8 99.7992 250.5 99.9992 250.3L100.199 248.9L99.2992 248.8C97.8992 248.6 97.0992 249 97.0992 249.8C97.0992 250.2 97.0992 250.5 97.3992 250.7C97.3992 250.9 97.6992 251 98.0992 251.1Z" fill="white"/>
<path d="M104.998 249.4L104.198 250.1L104.098 252.5H102.898L103.298 242.9H104.498L104.298 248.7L104.898 248L107.098 245.9L108.498 246L105.798 248.7L108.598 252.7L107.198 252.6L104.998 249.4Z" fill="white"/>
<path d="M112.801 247.7C112.801 247.3 112.901 247 113.101 246.8C113.301 246.6 113.601 246.4 114.001 246.4C114.401 246.4 114.701 246.5 114.901 246.7C115.101 246.9 115.301 247.2 115.301 247.6V247.8C115.301 248.2 115.201 248.5 115.001 248.7C114.801 248.9 114.501 249.1 114.101 249.1C113.701 249.1 113.401 249 113.201 248.8C113.001 248.6 112.801 248.3 112.801 247.9V247.7Z" fill="white"/>
<path d="M123.098 247.5C121.998 247.4 121.198 247.1 120.698 246.8C120.198 246.5 119.898 246 119.798 245.3C119.698 244.6 119.898 244 120.398 243.4C120.898 242.9 121.598 242.5 122.498 242.4C123.098 242.3 123.698 242.3 124.198 242.5C124.698 242.7 125.098 242.9 125.498 243.3C125.798 243.7 125.998 244.1 126.098 244.6L124.898 244.8C124.798 244.3 124.598 243.9 124.198 243.6C123.798 243.3 123.298 243.3 122.698 243.4C122.098 243.5 121.698 243.7 121.398 244C121.098 244.3 120.998 244.7 121.098 245.1C121.198 245.5 121.398 245.8 121.698 246C121.998 246.2 122.598 246.4 123.398 246.4C124.198 246.5 124.798 246.6 125.298 246.8C125.798 247 126.098 247.2 126.398 247.5C126.698 247.8 126.798 248.2 126.898 248.6C126.998 249.3 126.798 250 126.298 250.5C125.798 251 125.098 251.4 124.098 251.5C123.498 251.6 122.898 251.6 122.298 251.4C121.698 251.2 121.298 251 120.898 250.6C120.498 250.2 120.298 249.8 120.198 249.3L121.398 249.1C121.498 249.6 121.798 250 122.198 250.3C122.598 250.6 123.198 250.6 123.898 250.5C124.498 250.4 124.998 250.2 125.298 249.9C125.598 249.6 125.698 249.2 125.598 248.8C125.498 248.4 125.298 248 124.998 247.9C124.498 247.8 123.898 247.6 123.098 247.5Z" fill="white"/>
<path d="M126.801 242.3C126.801 242.1 126.801 242 126.901 241.8C127.001 241.6 127.101 241.6 127.401 241.5C127.701 241.4 127.801 241.5 127.901 241.6C128.001 241.7 128.101 241.8 128.201 242C128.201 242.2 128.201 242.3 128.101 242.5C128.001 242.7 127.901 242.7 127.601 242.8C127.401 242.8 127.201 242.8 127.101 242.7C127.001 242.6 126.901 242.5 126.801 242.3ZM129.801 250.4L128.701 250.6L127.301 244L128.401 243.8L129.801 250.4Z" fill="white"/>
<path d="M133 249.6L131.9 249.9L129.5 240.6L130.6 240.3L133 249.6Z" fill="white"/>
<path d="M136.7 246.9L136.8 241.5L137.9 241.2L137.6 248.4L136.8 248.7L132.5 243L133.6 242.7L136.7 246.9Z" fill="white"/>
<path d="M143.801 246.2C142.901 246.5 142.101 246.5 141.401 246.2C140.601 245.9 140.101 245.2 139.701 244.3L139.601 244.1C139.401 243.5 139.301 242.9 139.301 242.3C139.301 241.7 139.501 241.2 139.801 240.8C140.101 240.4 140.501 240 141.001 239.8C141.801 239.5 142.601 239.5 143.201 239.9C143.901 240.3 144.401 240.9 144.801 241.9L145.001 242.3L140.701 244C141.001 244.6 141.301 245 141.801 245.3C142.301 245.5 142.801 245.6 143.301 245.4C143.701 245.3 144.001 245.1 144.201 244.8C144.401 244.5 144.601 244.2 144.601 243.9L145.501 244.2C145.501 245.1 144.801 245.8 143.801 246.2ZM141.501 240.6C141.101 240.8 140.801 241.1 140.601 241.5C140.401 241.9 140.401 242.4 140.601 243L143.701 241.8V241.7C143.501 241.2 143.101 240.8 142.801 240.6C142.501 240.4 141.901 240.5 141.501 240.6Z" fill="white"/>
<path d="M148.198 237.9C147.998 237.9 147.898 238 147.698 238.1C146.998 238.4 146.698 238.9 146.698 239.6L148.698 243.9L147.698 244.4L144.898 238.3L145.898 237.8L146.198 238.5C146.298 237.8 146.598 237.3 147.298 237C147.498 236.9 147.698 236.9 147.798 236.9L148.198 237.9Z" fill="white"/>
<path d="M159.201 234.9C159.601 235.8 159.701 236.6 159.401 237.3C159.201 238.1 158.601 238.7 157.801 239.2C156.901 239.8 155.901 239.9 155.001 239.5C154.101 239.2 153.201 238.5 152.601 237.4L152.201 236.7C151.801 236 151.501 235.3 151.401 234.6C151.301 233.9 151.401 233.3 151.701 232.7C152.001 232.1 152.501 231.6 153.101 231.3C153.901 230.8 154.701 230.6 155.501 230.8C156.301 231 156.901 231.4 157.501 232.2L156.501 232.8C156.001 232.2 155.601 231.9 155.101 231.8C154.601 231.7 154.101 231.8 153.601 232.1C152.901 232.5 152.601 233 152.501 233.8C152.401 234.5 152.601 235.3 153.201 236.2L153.701 237C154.201 237.8 154.801 238.4 155.401 238.7C156.101 239 156.701 238.9 157.301 238.6C157.901 238.3 158.201 237.9 158.401 237.4C158.501 237 158.501 236.4 158.201 235.7L159.201 234.9Z" fill="white"/>
<path d="M159.899 233.7C159.499 233.2 159.299 232.6 159.199 232C159.099 231.4 159.199 230.9 159.399 230.4C159.599 229.9 159.899 229.5 160.399 229.1C161.099 228.6 161.899 228.4 162.799 228.6C163.599 228.8 164.399 229.3 164.999 230.1V230.2C165.399 230.7 165.599 231.3 165.699 231.8C165.799 232.4 165.799 232.9 165.499 233.4C165.299 233.9 164.899 234.3 164.499 234.7C163.799 235.2 162.999 235.4 162.099 235.2C161.199 235 160.599 234.7 159.899 233.7ZM160.899 233.2C161.299 233.8 161.799 234.2 162.399 234.3C162.899 234.5 163.499 234.4 163.899 234C164.399 233.7 164.599 233.2 164.599 232.6C164.599 232 164.399 231.4 163.899 230.7C163.499 230.1 162.999 229.7 162.399 229.6C161.799 229.4 161.299 229.5 160.899 229.9C160.399 230.2 160.199 230.7 160.199 231.3C160.199 231.9 160.399 232.5 160.899 233.2Z" fill="white"/>
<path d="M164.801 225.899L165.401 226.499C165.401 225.699 165.701 224.999 166.301 224.399C167.401 223.499 168.401 223.599 169.501 224.799L172.401 228.2L171.501 228.999L168.601 225.599C168.301 225.199 168.001 224.999 167.601 224.999C167.301 224.999 167.001 225.099 166.601 225.399C166.301 225.599 166.101 225.899 166.001 226.299C165.901 226.599 165.901 226.999 166.001 227.299L169.101 230.899L168.201 231.7L163.801 226.599L164.801 225.899Z" fill="white"/>
<path d="M169.099 219.8L170.199 221L171.099 220.1L171.699 220.7L170.799 221.6L173.699 224.6C173.899 224.8 174.099 224.9 174.199 224.9C174.399 224.9 174.599 224.8 174.799 224.6C174.899 224.5 174.999 224.4 175.099 224.2L175.699 224.9C175.499 225.2 175.399 225.4 175.199 225.6C174.799 226 174.399 226.1 173.999 226.1C173.599 226.1 173.199 225.8 172.799 225.4L169.899 222.4L168.999 223.3L168.399 222.7L169.299 221.8L168.199 220.6L169.099 219.8Z" fill="white"/>
<path d="M175.002 217.6C174.902 217.7 174.702 217.8 174.602 218C174.102 218.6 174.002 219.1 174.302 219.8L177.802 223.1L177.002 223.9L172.102 219.3L172.902 218.5L173.502 219C173.302 218.3 173.502 217.7 173.902 217.2C174.102 217 174.202 216.9 174.302 216.9L175.002 217.6Z" fill="white"/>
<path d="M173.501 214.9C173.401 214.8 173.301 214.6 173.301 214.5C173.301 214.3 173.301 214.2 173.501 214C173.601 213.8 173.801 213.7 174.001 213.7C174.201 213.7 174.301 213.8 174.501 213.9C174.701 214 174.701 214.2 174.701 214.3C174.701 214.5 174.701 214.6 174.501 214.8C174.301 215 174.201 215.1 174.001 215.1C173.801 215.1 173.601 215.1 173.501 214.9ZM180.801 219.6L180.001 220.5L174.901 216.1L175.701 215.2L180.801 219.6Z" fill="white"/>
<path d="M183.002 211.4C183.802 212 184.302 212.7 184.502 213.5C184.702 214.3 184.602 214.9 184.102 215.6C183.602 216.3 182.902 216.6 182.202 216.6L182.802 217.1L182.202 217.9L174.602 212.1L175.302 211.2L178.102 213.4C177.902 212.7 178.102 212 178.602 211.3C179.102 210.7 179.702 210.3 180.502 210.3C181.302 210.3 182.102 210.7 183.002 211.4ZM182.202 212.3C181.602 211.8 181.002 211.6 180.502 211.6C180.002 211.6 179.502 211.8 179.202 212.2C178.702 212.8 178.702 213.5 179.002 214.1L181.302 215.9C182.102 216 182.702 215.8 183.102 215.2C183.402 214.8 183.502 214.3 183.402 213.8C183.302 213.3 182.902 212.8 182.202 212.3Z" fill="white"/>
<path d="M188.4 208.1C188.6 208.8 188.5 209.5 188 210.2C187.6 210.8 187.1 211.1 186.6 211.2C186 211.3 185.4 211.1 184.7 210.7L181 208.3L181.6 207.3L185.3 209.7C186.2 210.3 186.8 210.2 187.3 209.5C187.8 208.8 187.8 208.1 187.4 207.5L183.3 204.8L183.9 203.8L189.6 207.5L189 208.4L188.4 208.1Z" fill="white"/>
<path d="M184 200.3L185.4 201.1L186 200L186.8 200.4L186.2 201.5L189.8 203.5C190 203.6 190.2 203.7 190.4 203.7C190.6 203.7 190.7 203.5 190.9 203.3C191 203.2 191 203 191.1 202.8L191.9 203.3C191.8 203.6 191.7 203.9 191.6 204.1C191.3 204.5 191 204.8 190.6 204.9C190.2 205 189.8 204.9 189.3 204.6L185.7 202.6L185.1 203.7L184.3 203.3L184.9 202.2L183.5 201.4L184 200.3Z" fill="white"/>
<path d="M189.401 200.8C188.801 200.5 188.301 200.1 188.001 199.7C187.601 199.2 187.401 198.7 187.401 198.2C187.301 197.7 187.401 197.1 187.701 196.6C188.101 195.8 188.701 195.2 189.501 195C190.301 194.8 191.201 194.9 192.201 195.3H192.301C192.901 195.6 193.401 196 193.701 196.4C194.101 196.9 194.301 197.4 194.301 197.9C194.401 198.4 194.301 199 194.001 199.5C193.601 200.3 193.001 200.9 192.201 201.1C191.301 201.4 190.401 201.2 189.401 200.8ZM190.001 199.8C190.701 200.1 191.301 200.2 191.801 200.1C192.401 200 192.801 199.7 193.001 199.1C193.301 198.6 193.201 198.1 193.001 197.5C192.701 197 192.201 196.6 191.501 196.2C190.801 195.9 190.201 195.8 189.701 195.9C189.101 196 188.701 196.3 188.501 196.9C188.301 197.4 188.301 197.9 188.501 198.4C188.801 199 189.301 199.4 190.001 199.8Z" fill="white"/>
<path d="M191.698 189.9C191.598 190.1 191.498 190.2 191.398 190.4C191.098 191.1 191.198 191.7 191.698 192.2L196.098 194L195.698 195.1L189.398 192.6L189.798 191.6L190.498 191.9C190.098 191.3 189.998 190.7 190.298 190.1C190.398 189.9 190.498 189.7 190.598 189.7L191.698 189.9Z" fill="white"/>
<defs>
<filter id="filter0_ii" x="0" y="50" width="218" height="218" filterUnits="userSpaceOnUse" color-interpolation-filters="sRGB">
<feFlood flood-opacity="0" result="BackgroundImageFix"/>
<feBlend mode="normal" in="SourceGraphic" in2="BackgroundImageFix" result="shape"/>
<feColorMatrix in="SourceAlpha" type="matrix" values="0 0 0 0 0 0 0 0 0 0 0 0 0 0 0 0 0 0 127 0" result="hardAlpha"/>
<feOffset/>
<feGaussianBlur stdDeviation="4"/>
<feComposite in2="hardAlpha" operator="arithmetic" k2="-1" k3="1"/>
<feColorMatrix type="matrix" values="0 0 0 0 0.9875 0 0 0 0 0.722843 0 0 0 0 0.386771 0 0 0 1 0"/>
<feBlend mode="normal" in2="shape" result="effect1_innerShadow"/>
<feColorMatrix in="SourceAlpha" type="matrix" values="0 0 0 0 0 0 0 0 0 0 0 0 0 0 0 0 0 0 127 0" result="hardAlpha"/>
<feOffset/>
<feGaussianBlur stdDeviation="6"/>
<feComposite in2="hardAlpha" operator="arithmetic" k2="-1" k3="1"/>
<feColorMatrix type="matrix" values="0 0 0 0 0 0 0 0 0 0 0 0 0 0 0 0 0 0 0.2 0"/>
<feBlend mode="normal" in2="effect1_innerShadow" result="effect2_innerShadow"/>
</filter>
<filter id="filter1_i" x="59" y="109" width="100" height="100" filterUnits="userSpaceOnUse" color-interpolation-filters="sRGB">
<feFlood flood-opacity="0" result="BackgroundImageFix"/>
<feBlend mode="normal" in="SourceGraphic" in2="BackgroundImageFix" result="shape"/>
<feColorMatrix in="SourceAlpha" type="matrix" values="0 0 0 0 0 0 0 0 0 0 0 0 0 0 0 0 0 0 127 0" result="hardAlpha"/>
<feOffset/>
<feGaussianBlur stdDeviation="6"/>
<feComposite in2="hardAlpha" operator="arithmetic" k2="-1" k3="1"/>
<feColorMatrix type="matrix" values="0 0 0 0 0.34902 0 0 0 0 0.360784 0 0 0 0 0.364706 0 0 0 1 0"/>
<feBlend mode="normal" in2="shape" result="effect1_innerShadow"/>
</filter>
<linearGradient id="paint0_linear" x1="51.775" y1="57.4938" x2="322.848" y2="328.729" gradientUnits="userSpaceOnUse">
<stop stop-color="white"/>
<stop offset="1" stop-color="#969696" stop-opacity="0"/>
</linearGradient>
<linearGradient id="paint1_linear" x1="174.52" y1="213.6" x2="38.8" y2="107.52" gradientUnits="userSpaceOnUse">
<stop stop-color="white"/>
<stop offset="1" stop-color="#383838" stop-opacity="0"/>
</linearGradient>
<linearGradient id="paint2_linear" x1="194.68" y1="230.4" x2="17.2" y2="91.68" gradientUnits="userSpaceOnUse">
<stop stop-color="white"/>
<stop offset="1" stop-color="#383838" stop-opacity="0"/>
</linearGradient>
</defs>
</svg>
