<svg width="218" height="268" viewBox="0 0 218 268" fill="none" xmlns="http://www.w3.org/2000/svg">
<path d="M86.0098 29.7979C84.9084 29.7979 84.0273 30.6685 84.0273 31.7568V50.0407C84.0273 51.129 84.9084 51.9997 86.0098 51.9997H131.385C132.487 51.9997 133.368 51.129 133.368 50.0407V31.7568C133.368 30.6685 132.487 29.7979 131.385 29.7979H86.0098ZM129.403 44.1637C129.403 45.2521 128.522 46.1227 127.42 46.1227H90.1949C89.0935 46.1227 88.2125 45.2521 88.2125 44.1637V35.8925C88.2125 34.8041 89.0935 33.9335 90.1949 33.9335H127.42C128.522 33.9335 129.403 34.8041 129.403 35.8925V44.1637Z" fill="#FFE287"/>
<path d="M140.045 0L114.918 37.8775H127.37L155.388 0H140.045Z" fill="#0FA711"/>
<path d="M127.377 0L102.473 37.8775H114.925L140.052 0H127.377Z" fill="white"/>
<path d="M114.924 0L90.0195 37.8775H102.472L127.376 0H114.924Z" fill="#FF7600"/>
<path d="M90.0177 37.8775H102.47L77.343 0H62L90.0177 37.8775Z" fill="#FF7600"/>
<path d="M102.471 37.8775H114.923L90.0184 0H77.3438L102.471 37.8775Z" fill="white"/>
<path opacity="0.5" d="M110.695 6.28027L104.469 15.6936L119.145 37.8823H127.372L129.596 34.7445L110.695 6.28027Z" fill="#3E4347"/>
<path d="M114.924 37.8775H127.376L102.472 0H90.0195L114.924 37.8775Z" fill="#0FA711"/>
<g filter="url(#filter0_ii)">
<path d="M218 159C218 219.199 169.199 268 109 268C48.801 268 0 219.199 0 159C0 98.801 48.801 50 109 50C169.199 50 218 98.801 218 159Z" fill="#FDD24F" fill-opacity="0.8"/>
</g>
<path d="M214.5 159C214.5 217.266 167.266 264.5 109 264.5C50.734 264.5 3.5 217.266 3.5 159C3.5 100.734 50.734 53.5 109 53.5C167.266 53.5 214.5 100.734 214.5 159Z" stroke="#DFDFDF" stroke-width="7"/>
<path d="M214.5 159C214.5 217.266 167.266 264.5 109 264.5C50.734 264.5 3.5 217.266 3.5 159C3.5 100.734 50.734 53.5 109 53.5C167.266 53.5 214.5 100.734 214.5 159Z" stroke="url(#paint0_linear)" stroke-width="7"/>
<path d="M196 159C196 207.049 157.049 246 109 246C60.9512 246 22 207.049 22 159C22 110.951 60.9512 72 109 72C157.049 72 196 110.951 196 159Z" fill="#EEB42F"/>
<path fill-rule="evenodd" clip-rule="evenodd" d="M109 87C69.2355 87 37 119.235 37 159C37 198.764 69.2355 231 109 231C148.764 231 181 198.764 181 159C181 119.235 148.764 87 109 87ZM7 159C7 102.667 52.667 57 109 57C165.333 57 211 102.667 211 159C211 215.333 165.333 261 109 261C52.667 261 7 215.333 7 159Z" fill="#F9C54C"/>
<path d="M109 82C66.5591 82 32 116.357 32 159C32 201.643 66.357 236 109 236C151.643 236 186 201.643 186 159C186 116.357 151.441 82 109 82ZM93.6404 89.4777C93.8425 89.4777 93.8425 89.4777 93.6404 89.4777C95.0551 92.5092 97.6824 94.3281 100.31 93.7218C102.937 93.3176 105.564 91.4987 105.766 87.8609C106.171 87.8609 106.575 87.8609 106.979 87.8609C106.979 98.7743 106.171 110.496 104.958 123.228C104.756 124.441 104.756 125.654 104.756 126.866C104.352 125.856 103.948 124.643 103.543 123.228C99.2992 112.517 95.4593 100.997 92.4278 89.6798C93.0341 89.6798 93.2362 89.4777 93.6404 89.4777ZM76.0577 95.7428C78.2808 98.3701 81.1102 99.3806 83.5354 98.168C86.3648 96.9554 87.9816 94.126 87.3753 91.0945C87.7795 90.8924 88.1837 90.8924 88.5879 90.6903C91.2152 101.199 93.8425 112.719 95.8635 125.451C96.0656 126.866 96.2677 127.877 96.6719 129.089C96.0656 128.079 95.4593 127.068 94.4488 125.856C87.5774 116.559 80.9081 106.454 75.0472 96.3491C75.2493 96.147 75.6535 95.9449 76.0577 95.7428ZM60.4961 106.656C63.3255 108.475 66.357 108.677 68.378 107.06C69.9948 105.848 70.8032 104.029 70.8032 102.21C70.8032 101.199 70.6011 100.189 69.9948 99.3806C70.399 99.1785 70.6011 98.9764 71.0052 98.7743C76.4619 108.071 81.7165 118.782 87.1732 130.302C87.7795 131.514 88.3858 132.525 88.79 133.535C87.9816 132.727 86.9711 131.919 85.9606 131.11C77.0682 123.633 67.9738 115.549 59.6877 107.465C59.8898 107.06 60.294 106.858 60.4961 106.656ZM48.3701 121.005C48.5722 121.005 48.5722 121.005 48.3701 121.005C51.6037 122.016 54.6352 121.612 56.0499 119.388C56.4541 118.782 57.4646 117.165 57.4646 115.549C57.4646 114.538 57.0604 112.921 55.8478 111.507C56.0499 111.304 56.4541 110.9 56.6562 110.698C64.336 118.378 72.2178 127.27 80.5039 136.971C81.3123 137.982 82.1207 138.79 82.9291 139.598C81.9186 138.992 80.706 138.588 79.4934 137.982C68.9843 133.131 58.0709 127.675 47.7638 122.016C47.9659 121.612 48.168 121.409 48.3701 121.005ZM40.4882 137.982C40.4882 137.982 40.4882 137.78 40.4882 137.982C43.9239 138.184 46.5512 136.971 47.5617 134.344C47.7638 133.738 47.9659 132.929 47.9659 131.717C47.9659 130.504 47.5617 128.281 45.1365 126.664C45.3386 126.26 45.5407 126.058 45.7428 125.654C55.0394 131.11 65.1444 137.577 75.4514 144.853C76.4619 145.661 77.6745 146.268 78.4829 146.874C77.4724 146.672 76.0577 146.47 74.643 146.066C63.3255 144.449 51.4016 142.024 39.8819 138.992C40.2861 138.79 40.4882 138.386 40.4882 137.982ZM37.2546 156.373C37.2546 156.373 37.2546 156.171 37.2546 156.373C40.4882 155.766 42.9134 153.745 43.1155 151.118C43.1155 150.916 43.1155 150.714 43.1155 150.31C43.1155 147.885 41.9029 145.257 38.8714 144.247C38.8714 143.843 39.0735 143.438 39.0735 143.034C49.5827 145.864 60.9003 149.703 72.8242 153.948C74.0368 154.352 75.2493 154.756 76.2598 154.958C75.0472 154.958 73.8346 155.16 72.42 155.16C61.1024 156.575 48.7743 157.181 37.0525 157.383C37.2546 157.181 37.2546 156.777 37.2546 156.373ZM38.8714 175.168C38.8714 174.966 38.8714 174.966 38.8714 175.168C41.4987 173.753 43.1155 171.732 43.1155 169.307C43.1155 169.105 43.1155 168.701 43.1155 168.499C42.7113 165.871 40.8924 163.244 37.2546 163.042C37.2546 162.638 37.2546 162.234 37.2546 161.829C48.168 161.829 59.8898 162.436 72.622 163.446C74.0367 163.648 75.2493 163.648 76.2598 163.648C75.2493 164.053 74.0367 164.457 72.622 164.861C61.9108 169.105 50.3911 172.945 39.0735 176.178C39.0735 175.976 39.0735 175.572 38.8714 175.168ZM45.3386 192.751C45.3386 192.751 45.3386 192.549 45.3386 192.751C47.1575 191.134 48.168 189.315 48.168 187.294C48.168 186.486 47.9659 185.879 47.7638 185.273C46.7533 182.848 44.3281 180.827 40.6903 181.635C40.4882 181.231 40.4882 180.827 40.2861 180.423C50.7953 177.593 62.315 175.168 74.8451 172.945C76.2598 172.743 77.2703 172.339 78.4829 172.136C77.4724 172.743 76.4619 173.349 75.2493 174.36C65.9528 181.231 55.8478 187.9 45.7428 193.963C45.7428 193.357 45.5407 193.155 45.3386 192.751ZM56.252 208.11C57.2625 206.493 57.6667 205.079 57.6667 203.462C57.6667 202.249 57.2625 201.037 56.4541 200.228C54.8373 198.207 51.8058 196.793 48.5722 198.409C48.3701 198.005 48.168 197.803 47.9659 197.399C57.2625 191.942 67.9738 186.486 79.4934 181.029C80.706 180.423 81.7165 179.816 82.727 179.412C81.9186 180.22 81.1102 181.231 80.3018 182.241C73.2283 191.336 65.1444 200.43 57.0604 208.919C56.8583 208.717 56.4541 208.514 56.252 208.11ZM70.6011 220.034C70.8032 218.822 71.0052 217.811 71.0052 216.801C71.0052 214.78 70.1969 213.163 68.7822 212.354C66.7612 210.94 63.5276 210.131 60.9003 212.759C60.4961 212.556 60.294 212.152 60.0919 211.95C67.7717 204.27 76.4619 196.186 86.1627 188.102C87.1732 187.294 87.9816 186.486 88.79 185.677C88.1837 186.688 87.7795 187.9 87.1732 189.113C82.727 199.622 77.4724 210.535 71.6115 220.64C71.4095 220.438 71.0052 220.236 70.6011 220.034ZM87.5774 227.916C87.7795 224.48 86.3648 221.853 83.9396 220.843C81.5144 220.034 78.2808 220.236 76.2598 223.268C75.8556 223.066 75.6535 222.864 75.2493 222.661C80.706 213.365 86.9711 203.26 94.2467 192.751C95.0551 191.538 95.6614 190.528 96.2677 189.719C96.0656 190.73 95.8635 192.144 95.4593 193.559C93.8425 204.877 91.4173 216.801 88.5879 228.32C88.3858 228.118 87.9816 228.118 87.5774 227.916ZM105.969 230.948C105.362 227.714 103.341 225.289 100.714 225.087C98.0866 224.885 95.0551 225.895 94.0446 229.331C93.6404 229.331 93.2362 229.129 92.832 229.129C95.6614 218.619 99.2992 207.302 103.543 195.378C103.948 194.165 104.352 192.953 104.554 191.942C104.554 193.155 104.756 194.367 104.756 195.782C106.171 207.1 106.979 219.428 107.181 231.15C106.777 231.15 106.373 231.15 105.969 230.948ZM178.927 144.449C176.299 145.864 174.48 147.885 174.48 150.31C174.48 150.512 174.48 150.916 174.48 151.118C174.885 153.745 176.703 156.373 180.341 156.575C180.341 156.979 180.341 157.383 180.341 157.787C169.63 157.787 157.706 156.979 144.974 155.766C143.559 155.564 142.346 155.564 141.336 155.564C142.346 155.16 143.559 154.756 144.974 154.352C155.685 150.108 167.205 146.268 178.522 143.236C178.724 143.64 178.724 144.045 178.927 144.449ZM172.661 126.866C172.661 126.866 172.661 127.068 172.661 126.866C170.843 128.483 169.832 130.302 169.832 132.323C169.832 133.131 170.034 133.738 170.236 134.344C171.247 136.769 173.672 138.79 177.31 138.184C177.512 138.588 177.512 138.992 177.714 139.396C167.205 142.024 155.483 144.449 142.953 146.672C141.538 146.874 140.528 147.076 139.315 147.48C140.325 146.874 141.336 146.268 142.549 145.459C151.845 138.386 161.95 131.717 172.055 125.856C172.257 126.26 172.459 126.462 172.661 126.866ZM162.152 111.709C161.142 113.325 160.535 114.942 160.535 116.357C160.535 117.57 160.94 118.782 161.748 119.591C163.365 121.612 166.194 123.026 169.428 121.409C169.63 121.814 169.832 122.016 170.034 122.42C160.535 127.675 150.026 133.131 138.304 138.184C137.092 138.79 136.081 139.194 135.071 139.801C135.879 138.992 136.688 137.982 137.698 136.971C144.974 128.079 153.058 118.984 161.344 110.698C161.546 111.102 161.95 111.304 162.152 111.709ZM147.601 99.1785C147.601 99.1785 147.803 99.3806 147.601 99.1785C147.399 100.391 146.995 101.402 146.995 102.412C146.995 104.231 147.803 105.848 149.218 106.858C151.239 108.273 154.472 109.081 157.1 106.656C157.302 106.858 157.706 107.262 157.908 107.465C150.228 115.144 141.336 123.026 131.433 131.11C130.423 131.919 129.412 132.727 128.806 133.535C129.412 132.525 129.816 131.514 130.423 130.1C135.071 119.591 140.528 108.677 146.388 98.5722C146.995 98.7743 147.197 98.9764 147.601 99.1785ZM130.625 91.2966C130.827 91.2966 130.827 91.2966 130.625 91.2966C130.423 94.7323 131.837 97.3596 134.262 98.3701C136.688 99.3806 139.921 99.1785 141.942 95.9449C142.346 96.147 142.549 96.3491 142.953 96.5512C137.496 105.848 131.029 115.751 123.551 126.26C122.743 127.27 122.136 128.281 121.53 129.291C121.732 128.281 122.136 126.866 122.339 125.451C124.157 114.134 126.583 102.21 129.412 90.8924C130.018 90.8924 130.22 91.0945 130.625 91.2966ZM112.436 87.8609C112.436 87.8609 112.638 87.8609 112.436 87.8609C113.042 91.0945 115.063 93.5197 117.69 93.7218C120.318 93.9239 123.349 92.9134 124.562 89.4777C124.966 89.4777 125.37 89.6798 125.774 89.6798C122.945 100.189 119.105 111.507 114.659 123.228C114.255 124.441 113.85 125.654 113.446 126.664C113.446 125.451 113.244 124.239 113.244 122.824C112.032 111.507 111.223 99.1785 111.223 87.4567C111.627 87.8609 112.032 87.8609 112.436 87.8609ZM124.36 229.331C122.743 226.299 120.318 224.682 117.69 225.087C115.063 225.491 112.436 227.31 112.234 230.948C111.829 230.948 111.425 230.948 111.021 230.948C111.021 220.034 111.627 208.312 112.84 195.58C113.042 194.367 113.042 193.357 113.042 192.346C113.042 192.144 113.042 192.144 113.042 191.942C113.446 192.953 113.85 194.165 114.255 195.58C118.499 206.291 122.339 217.811 125.572 229.129C125.168 229.331 124.764 229.331 124.36 229.331ZM141.74 223.066C141.74 223.066 141.538 223.066 141.74 223.066C139.517 220.438 136.688 219.428 134.262 220.64C131.433 221.853 129.816 224.682 130.625 227.714C130.22 227.916 129.816 227.916 129.412 228.118C126.583 217.609 124.157 206.089 122.136 193.559C121.934 192.144 121.732 191.134 121.328 189.921C121.934 190.932 122.541 191.942 123.551 193.155C130.423 202.451 137.092 212.556 142.953 222.661C142.346 222.864 142.144 222.864 141.74 223.066ZM157.302 212.152C157.302 212.354 157.302 212.354 157.302 212.152C154.472 210.333 151.441 210.131 149.42 211.748C147.803 212.961 146.995 214.78 146.995 216.598C146.995 217.609 147.197 218.619 147.803 219.428C147.399 219.63 147.197 219.832 146.793 220.034C141.336 210.738 135.879 200.026 130.625 188.507C130.018 187.294 129.412 186.283 129.008 185.273C129.816 186.081 130.827 186.89 131.837 187.698C140.932 194.772 150.026 202.856 158.312 211.142C157.908 211.748 157.706 211.95 157.302 212.152ZM169.226 198.005C169.226 198.005 169.226 198.207 169.226 198.005C165.992 196.995 162.961 197.399 161.546 199.622C161.142 200.228 160.131 201.845 160.131 203.462C160.131 204.472 160.535 206.089 161.748 207.504C161.546 207.706 161.142 208.11 160.94 208.312C153.26 200.633 145.378 191.74 137.294 182.039C136.486 181.029 135.677 180.018 134.869 179.412C135.879 180.018 137.092 180.423 138.304 181.029C148.814 185.677 159.727 191.134 170.034 196.793C169.63 197.399 169.428 197.601 169.226 198.005ZM177.108 181.029C177.108 181.231 177.108 181.231 177.108 181.029C173.672 180.827 171.045 182.039 170.034 184.667C169.832 185.273 169.63 186.081 169.63 187.294C169.63 188.507 170.034 190.73 172.459 192.346C172.257 192.751 172.055 192.953 171.853 193.357C162.556 187.9 152.451 181.433 142.144 174.157C141.134 173.349 139.921 172.743 139.113 172.136C140.123 172.339 141.538 172.743 142.953 172.945C154.27 174.562 166.194 176.987 177.512 180.018C177.31 180.423 177.31 180.827 177.108 181.029ZM180.341 162.84C177.108 163.446 174.682 165.265 174.48 167.892C174.48 168.094 174.48 168.297 174.48 168.701C174.48 171.126 175.693 173.753 178.724 174.764C178.724 175.168 178.522 175.572 178.522 175.976C168.013 173.147 156.696 169.509 144.772 165.063C143.559 164.659 142.346 164.255 141.336 164.052C142.549 164.052 143.761 163.85 145.176 163.85C156.493 162.638 168.822 161.829 180.543 161.829C180.543 162.032 180.341 162.436 180.341 162.84Z" fill="#FFE287"/>
<circle cx="109" cy="159" r="77" stroke="url(#paint1_linear)" stroke-width="2"/>
<circle cx="109" cy="159" r="101" stroke="url(#paint2_linear)" stroke-width="2"/>
<g filter="url(#filter1_i)">
<circle cx="109" cy="159" r="50" fill="#FDD24F"/>
</g>
<path fill-rule="evenodd" clip-rule="evenodd" d="M83.168 135.786V134H112.692V162.571H83.168V135.786ZM97.161 152.75L93.2143 148.931L87.2685 157.214H92.3942H93.8718H101.988H103.466H110.026L102.645 142.829L97.161 152.75ZM131.144 159H116.382V155.429H134.835V184H105.311V166.143H109.001V180.429H131.144V159ZM127.96 164.525V161.731H120.929V164.525H122.626V169.84H119.165C118.739 169.458 118.218 169.216 117.601 169.117C118.335 168.884 118.901 168.46 119.298 167.844C119.694 167.229 119.893 166.488 119.893 165.623C119.893 164.359 119.511 163.369 118.747 162.654C117.983 161.922 116.895 161.556 115.485 161.556C114.5 161.556 113.648 161.714 112.928 162.03V165.199C113.721 164.783 114.493 164.575 115.242 164.575C116.271 164.575 116.785 165.074 116.785 166.072C116.785 167.104 116.175 167.619 114.956 167.619H114.272V170.564H115.176C115.97 170.564 116.513 170.722 116.807 171.038C117.116 171.354 117.27 171.778 117.27 172.31C117.27 173.708 116.623 174.406 115.33 174.406C114.375 174.406 113.427 174.124 112.487 173.558V176.802C113.413 177.168 114.412 177.351 115.485 177.351C117.072 177.351 118.262 176.935 119.055 176.103C119.863 175.271 120.267 174.19 120.267 172.859V172.685H122.626V178.474H125.756V164.525H127.96Z" fill="white"/>
<path d="M54.9984 93.8996L49.3984 86.7996L51.6984 84.9996C52.4984 84.3996 53.1984 84.0996 53.7984 84.0996C54.3984 84.0996 54.9984 84.3996 55.4984 85.0996C55.7984 85.3996 55.8984 85.7996 55.8984 86.1996C55.8984 86.5996 55.7984 86.9996 55.5984 87.3996C56.0984 87.1996 56.4984 87.1996 56.9984 87.2996C57.4984 87.3996 57.8984 87.6996 58.1984 88.0996C58.6984 88.6996 58.8984 89.3996 58.7984 90.0996C58.6984 90.7996 58.1984 91.3996 57.4984 91.9996L54.9984 93.8996ZM52.6984 88.9996L54.0984 87.8996C54.4984 87.5996 54.7984 87.1996 54.7984 86.7996C54.8984 86.3996 54.7984 85.9996 54.4984 85.6996C54.1984 85.2996 53.8984 85.0996 53.4984 85.0996C53.0984 85.0996 52.6984 85.2996 52.1984 85.5996L50.7984 86.6996L52.6984 88.9996ZM53.2984 89.7996L55.2984 92.3996L56.8984 91.1996C57.2984 90.8996 57.5984 90.4996 57.6984 89.9996C57.7984 89.5996 57.6984 89.1996 57.2984 88.7996C56.5984 87.8996 55.7984 87.8996 54.8984 88.5996L53.2984 89.7996Z" fill="white"/>
<path d="M58.5977 83.8002C58.6977 83.0002 59.0976 82.4001 59.7976 81.9001C60.9976 81.1001 61.9976 81.4002 62.8976 82.7002L65.2976 86.4001L64.2976 87.0002L61.8976 83.3002C61.5976 82.9002 61.2977 82.7002 60.9977 82.6002C60.6976 82.5002 60.2977 82.6001 59.9977 82.9001C59.6976 83.1001 59.4976 83.4002 59.2976 83.7002C59.1976 84.0002 59.0976 84.4002 59.1976 84.7002L61.7976 88.7002L60.7976 89.3002L55.5977 81.3002L56.5977 80.7002L58.5977 83.8002Z" fill="white"/>
<path d="M70.0969 83.7994C69.9969 83.6994 69.7969 83.4994 69.5969 83.2994C69.3969 83.9994 68.9969 84.5994 68.2969 84.9994C67.6969 85.2994 67.0969 85.3994 66.5969 85.2994C65.9969 85.1994 65.5969 84.8993 65.3969 84.3993C65.0969 83.7993 64.9969 83.1994 65.2969 82.5994C65.5969 81.9994 66.0969 81.4994 66.9969 80.9994L67.9969 80.4994L67.6969 79.9994C67.4969 79.5994 67.1969 79.3994 66.8969 79.2994C66.5969 79.1994 66.1969 79.2994 65.7969 79.4994C65.3969 79.6994 65.1969 79.9994 64.9969 80.2994C64.8969 80.5994 64.8969 80.8994 64.9969 81.1994L63.9969 81.7994C63.7969 81.4994 63.7969 81.1994 63.7969 80.7994C63.8969 80.3994 63.9969 79.9994 64.2969 79.6994C64.5969 79.3994 64.8969 78.9994 65.3969 78.7994C66.0969 78.3994 66.6969 78.2993 67.2969 78.3993C67.8969 78.4993 68.2969 78.8994 68.6969 79.4994L70.1969 82.1994C70.4969 82.6994 70.7969 83.0993 71.0969 83.3993V83.4994L70.0969 83.7994ZM67.9969 83.8993C68.2969 83.6993 68.5969 83.4994 68.7969 83.1994C68.9969 82.8994 69.0969 82.5994 69.0969 82.1994L68.3969 80.9994L67.5969 81.3993C66.3969 82.0993 65.8969 82.7994 66.2969 83.4994C66.4969 83.7994 66.6969 83.9994 66.9969 84.0994C67.3969 84.0994 67.6969 84.0993 67.9969 83.8993Z" fill="white"/>
<path d="M75.098 79.4001C74.998 79.1001 74.798 78.9001 74.498 78.9001C74.198 78.8001 73.798 78.9002 73.198 79.0002C72.598 79.1002 72.098 79.2002 71.698 79.2002C71.298 79.2002 70.998 79.1001 70.798 78.9001C70.598 78.7001 70.398 78.5002 70.198 78.2002C69.998 77.7002 69.998 77.2001 70.298 76.6001C70.598 76.0001 70.998 75.6002 71.698 75.3002C72.398 75.0002 72.998 74.9001 73.598 75.1001C74.198 75.3001 74.598 75.6002 74.898 76.2002L73.798 76.7002C73.698 76.4002 73.398 76.2001 73.098 76.1001C72.798 76.0001 72.398 76.0002 71.998 76.2002C71.598 76.4002 71.398 76.6001 71.198 76.9001C71.098 77.2001 71.098 77.4002 71.198 77.7002C71.298 78.0002 71.498 78.1001 71.798 78.1001C72.098 78.1001 72.498 78.1002 73.098 78.0002C73.698 77.9002 74.198 77.8002 74.598 77.8002C74.998 77.8002 75.298 77.9001 75.598 78.1001C75.898 78.3001 76.098 78.5002 76.198 78.8002C76.398 79.3002 76.398 79.9001 76.098 80.4001C75.798 80.9001 75.298 81.4002 74.598 81.7002C74.098 81.9002 73.598 82.0002 73.198 82.0002C72.798 82.0002 72.298 81.9002 71.998 81.7002C71.598 81.5002 71.398 81.2002 71.198 80.8002L72.198 80.3002C72.398 80.6002 72.598 80.9001 72.998 80.9001C73.398 80.9001 73.798 80.9002 74.198 80.7002C74.598 80.5002 74.898 80.3002 74.998 80.0002C75.198 79.9002 75.198 79.7001 75.098 79.4001Z" fill="white"/>
<path d="M77 74.0996C77.3 73.2996 77.8 72.7996 78.6 72.4996C79.9 71.9996 80.9 72.4996 81.4 73.9996L82.9 78.1996L81.8 78.5996L80.3 74.3996C80.1 73.8996 79.9 73.5996 79.6 73.4996C79.3 73.3996 79 73.3996 78.5 73.4996C78.1 73.5996 77.9 73.7996 77.7 74.0996C77.5 74.3996 77.4 74.6996 77.3 75.0996L78.9 79.5996L77.8 79.9996L74.5 70.9996L75.6 70.5996L77 74.0996Z" fill="white"/>
<path d="M81.8999 69.7C81.7999 69.5 81.8999 69.4 81.8999 69.2C81.8999 69 82.0999 68.8999 82.2999 68.8999C82.4999 68.8999 82.6999 68.7999 82.7999 68.8999C82.8999 68.9999 82.9999 69.0999 83.0999 69.2999C83.1999 69.4999 83.0999 69.5999 83.0999 69.7999C83.0999 69.9999 82.8999 70.0999 82.6999 70.0999C82.4999 70.0999 82.2999 70.1999 82.1999 70.0999C82.0999 69.9999 81.9999 69.9 81.8999 69.7ZM85.5999 77.4999L84.4999 77.7999L82.5999 71.2999L83.6999 70.9999L85.5999 77.4999Z" fill="white"/>
<path d="M86.5984 70.2004L86.7985 71.0004C87.0985 70.2004 87.6984 69.8004 88.4984 69.6004C89.8984 69.3004 90.7984 69.9004 91.1984 71.4004L92.1984 75.7004L91.0984 76.0004L90.0984 71.7004C89.9984 71.2004 89.7984 70.9004 89.4984 70.7004C89.1984 70.5004 88.8984 70.5004 88.3984 70.6004C87.9984 70.7004 87.6984 70.9004 87.4984 71.1004C87.2984 71.4004 87.0984 71.7004 86.9984 72.0004L88.0984 76.7004L86.9984 77.0004L85.3984 70.4004L86.5984 70.2004Z" fill="white"/>
<path d="M92.1992 67.1999C92.1992 66.9999 92.1993 66.8999 92.2993 66.6999C92.3993 66.5999 92.4993 66.4998 92.7993 66.3998C93.0993 66.2998 93.1993 66.3998 93.2993 66.4998C93.3993 66.5998 93.4992 66.7998 93.5992 66.8998C93.5992 67.0998 93.5992 67.1998 93.4992 67.3998C93.3992 67.4998 93.2992 67.5999 92.9992 67.6999C92.6992 67.7999 92.5992 67.6998 92.4992 67.5998C92.2992 67.4998 92.1992 67.3999 92.1992 67.1999ZM94.8992 75.3998L93.7993 75.5998L92.5992 68.9998L93.6992 68.7998L94.8992 75.3998Z" fill="white"/>
<path d="M99.0977 69.8996C99.0977 69.4996 99.0976 69.1996 99.3976 68.9996C99.6976 68.7996 99.8977 68.5996 100.298 68.5996C100.698 68.5996 100.998 68.5996 101.298 68.7996C101.598 68.9996 101.698 69.2996 101.698 69.6996V69.8996C101.698 70.2996 101.698 70.5996 101.398 70.7996C101.198 70.9996 100.898 71.1996 100.498 71.1996C100.098 71.1996 99.7976 71.1996 99.4976 70.8996C99.1976 70.6996 99.0977 70.3996 99.0977 69.9996V69.8996Z" fill="white"/>
<path d="M106.598 74.1L106.698 65H109.298C110.098 65 110.798 65.2 111.398 65.6C111.998 66 112.498 66.5 112.798 67.1C113.098 67.7 113.298 68.5 113.298 69.3V69.9C113.298 70.8 113.098 71.5 112.798 72.1C112.498 72.7 111.998 73.2 111.398 73.6C110.798 73.9 110.098 74.1 109.298 74.1H106.598ZM107.898 66L107.798 73.1H109.098C109.998 73.1 110.698 72.8 111.298 72.3C111.798 71.7 112.098 70.9 112.098 69.9V69.4C112.098 68.4 111.898 67.6 111.398 67C110.898 66.4 110.198 66.1 109.398 66.1L107.898 66Z" fill="white"/>
<path d="M117.299 74.6C116.399 74.5 115.699 74.2 115.199 73.5C114.699 72.9 114.499 72 114.599 71V70.8C114.699 70.1 114.799 69.6 115.099 69C115.399 68.4 115.799 68.1 116.299 67.9C116.799 67.6 117.299 67.5 117.799 67.6C118.699 67.7 119.299 68 119.799 68.6C120.199 69.2 120.399 70.1 120.299 71.1V71.6L115.799 71.2C115.799 71.9 115.899 72.4 116.199 72.9C116.499 73.3 116.999 73.6 117.599 73.6C117.999 73.6 118.399 73.6 118.699 73.4C118.999 73.2 119.299 73.1 119.499 72.8L120.199 73.4C119.299 74.3 118.399 74.7 117.299 74.6ZM117.599 68.6C117.099 68.6 116.699 68.7 116.399 69C116.099 69.3 115.799 69.8 115.699 70.4L119.099 70.7V70.6C119.099 70 118.999 69.5 118.699 69.2C118.499 68.8 118.099 68.6 117.599 68.6Z" fill="white"/>
<path d="M123.198 72.1004L122.398 72.7004L121.998 75.0004L120.898 74.8004L122.398 65.4004L123.498 65.6004L122.598 71.3004L123.298 70.7004L125.698 68.9004L127.098 69.1004L124.098 71.5004L126.398 75.8004L125.098 75.6004L123.198 72.1004Z" fill="white"/>
<path d="M129.4 70.4001C130 69.9001 130.8 69.8002 131.6 70.0002C133 70.3002 133.5 71.3001 133.1 72.9001L132 77.2002L130.9 76.9001L132 72.6002C132.1 72.1002 132.1 71.8002 131.9 71.5002C131.7 71.2002 131.4 71.0001 131 70.9001C130.6 70.8001 130.3 70.8002 130 71.0002C129.7 71.1002 129.4 71.3002 129.2 71.6002L128.1 76.3002L127 76.0002L129.3 66.7002L130.4 67.0002L129.4 70.4001Z" fill="white"/>
<path d="M134.197 74.2001C134.397 73.6001 134.697 73.0001 135.097 72.6001C135.497 72.2001 135.997 71.9001 136.497 71.8001C136.997 71.7001 137.597 71.7 138.097 71.9C138.997 72.2 139.597 72.7001 139.897 73.5001C140.197 74.3001 140.197 75.2001 139.897 76.2001V76.3001C139.697 76.9001 139.397 77.4 138.997 77.9C138.597 78.3 138.097 78.6001 137.597 78.7001C137.097 78.8001 136.497 78.8001 135.897 78.6001C134.997 78.3001 134.397 77.8001 134.097 77.0001C133.797 76.2001 133.797 75.2001 134.197 74.2001ZM135.197 74.6001C134.997 75.3001 134.897 75.9001 135.097 76.5001C135.297 77.0001 135.697 77.4001 136.197 77.6001C136.797 77.8001 137.297 77.7 137.697 77.4C138.197 77.1 138.497 76.5001 138.797 75.7001C138.997 75.0001 139.097 74.4001 138.897 73.8001C138.697 73.3001 138.297 72.9001 137.797 72.7001C137.297 72.5001 136.797 72.6 136.297 72.9C135.797 73.3 135.497 73.8001 135.197 74.6001Z" fill="white"/>
<path d="M144.1 81.5002L143 81.0002L146.7 72.7002L147.8 73.2002L144.1 81.5002Z" fill="white"/>
<path d="M149.699 76.6998L149.299 77.4998C150.099 77.1998 150.799 77.1998 151.499 77.5998C152.799 78.2998 152.999 79.2998 152.299 80.6998L150.299 84.6998L149.299 84.1998L151.299 80.1998C151.499 79.7998 151.599 79.3998 151.499 79.0998C151.399 78.7998 151.199 78.4998 150.799 78.2998C150.499 78.0998 150.099 78.0998 149.799 78.0998C149.499 78.0998 149.099 78.2998 148.899 78.4998L146.699 82.7998L145.699 82.2998L148.799 76.2998L149.699 76.6998Z" fill="white"/>
<path d="M153.198 82.2004C153.698 81.3004 154.398 80.7004 155.098 80.5004C155.798 80.3004 156.598 80.3004 157.198 80.7004C157.898 81.1004 158.298 81.7004 158.398 82.4004L160.198 79.4004L161.198 80.0004L156.198 88.1004L155.298 87.5004L155.598 86.9004C154.898 87.1004 154.198 87.0004 153.498 86.6004C152.798 86.2004 152.498 85.6004 152.398 84.8004C152.398 84.0004 152.598 83.2004 153.198 82.2004ZM154.098 83.0004C153.698 83.7004 153.498 84.2004 153.598 84.8004C153.698 85.4004 153.898 85.7004 154.398 86.0004C154.998 86.4004 155.598 86.4004 156.298 86.0004L157.898 83.4004C157.898 82.7004 157.698 82.1004 157.098 81.8004C156.598 81.5004 156.098 81.5004 155.598 81.7004C154.998 81.8004 154.498 82.2004 154.098 83.0004Z" fill="white"/>
<path d="M158.498 89.7998L157.598 89.0998L161.498 83.5998L162.398 84.2998L158.498 89.7998ZM162.298 82.0998C162.398 81.8998 162.498 81.8998 162.698 81.7998C162.898 81.7998 162.998 81.7998 163.198 81.8998C163.398 81.9998 163.498 82.1998 163.498 82.3998C163.498 82.5998 163.498 82.6998 163.398 82.8998C163.298 83.0998 163.198 83.0998 162.998 83.1998C162.798 83.1998 162.698 83.1998 162.498 83.0998C162.298 82.9998 162.198 82.7998 162.198 82.6998C162.198 82.3998 162.198 82.1998 162.298 82.0998Z" fill="white"/>
<path d="M163.097 93.2C163.097 93.1 163.197 92.8 163.397 92.5C162.597 92.6 161.997 92.4 161.397 92C160.897 91.6 160.597 91.1 160.497 90.5C160.397 89.9 160.497 89.4 160.897 89C161.297 88.4 161.897 88.2 162.497 88.2C163.197 88.2 163.897 88.5 164.597 89.1L165.497 89.8L165.797 89.4C165.997 89.1 166.197 88.8 166.097 88.4C165.997 88 165.897 87.7 165.497 87.5C165.197 87.2 164.797 87.1 164.497 87.1C164.197 87.1 163.897 87.2 163.697 87.4L162.797 86.7C162.997 86.4 163.297 86.3 163.697 86.2C164.097 86.1 164.497 86.1 164.897 86.2C165.297 86.3 165.697 86.5 166.097 86.8C166.697 87.3 167.097 87.8 167.197 88.4C167.297 89 167.197 89.5 166.697 90.1L164.797 92.5C164.397 93 164.197 93.4 164.097 93.8L163.997 93.9L163.097 93.2ZM162.097 91.4C162.397 91.6 162.697 91.8 163.097 91.8C163.497 91.9 163.797 91.8 164.097 91.7L164.997 90.6L164.297 90C163.197 89.1 162.397 89 161.897 89.7C161.697 90 161.597 90.3 161.697 90.6C161.597 90.9 161.797 91.1 162.097 91.4Z" fill="white"/>
<path d="M23 195.3L31.2 191.5L32.4 194.2C32.8 195.1 32.9 195.9 32.8 196.5C32.6 197.1 32.2 197.6 31.5 197.9C31.1 198.1 30.7 198.1 30.3 198C29.9 197.9 29.5 197.7 29.2 197.4C29.3 197.9 29.2 198.4 29 198.8C28.8 199.2 28.4 199.5 27.9 199.8C27.2 200.1 26.5 200.2 25.8 199.9C25.2 199.6 24.6 199 24.2 198.2L23 195.3ZM27.3 194.6L24.3 196L25.1 197.8C25.3 198.3 25.6 198.6 26 198.8C26.4 199 26.8 199 27.3 198.7C28.3 198.2 28.5 197.5 28 196.4L27.3 194.6ZM28.2 194.2L29 195.8C29.2 196.3 29.5 196.6 29.9 196.8C30.3 197 30.7 197 31.1 196.8C31.6 196.6 31.8 196.3 31.9 195.9C32 195.5 31.9 195.1 31.7 194.6L31 193L28.2 194.2Z" fill="white"/>
<path d="M32.2 200.7C33 200.8 33.6 201.3 34 202C34.7 203.2 34.4 204.3 33 205.1L29.1 207.3L28.5 206.3L32.4 204.1C32.8 203.9 33.1 203.6 33.2 203.3C33.3 203 33.2 202.6 33 202.2C32.8 201.9 32.6 201.6 32.3 201.5C32 201.4 31.7 201.3 31.3 201.3L27.1 203.7L26.5 202.7L34.8 198L35.4 199L32.2 200.7Z" fill="white"/>
<path d="M32.5017 212.5C32.6017 212.4 32.7017 212.2 33.0017 212C32.2017 211.9 31.7017 211.5 31.2017 210.9C30.8017 210.3 30.7017 209.8 30.8017 209.2C30.9017 208.6 31.1017 208.2 31.6017 207.9C32.2017 207.5 32.8017 207.4 33.4017 207.6C34.0017 207.8 34.6017 208.3 35.1017 209.1L35.7017 210L36.1017 209.7C36.4017 209.5 36.6017 209.2 36.7017 208.9C36.8017 208.6 36.7017 208.2 36.4017 207.8C36.2017 207.5 35.9017 207.2 35.6017 207.1C35.3017 207 35.0017 207 34.7017 207.2L34.1017 206.2C34.4017 206 34.7017 205.9 35.1017 206C35.5017 206.1 35.9017 206.2 36.3017 206.4C36.7017 206.6 37.0017 207 37.3017 207.4C37.7017 208 37.9017 208.7 37.8017 209.2C37.7017 209.8 37.4017 210.3 36.9017 210.7L34.3017 212.4C33.8017 212.7 33.4017 213.1 33.2017 213.4L33.1017 213.5L32.5017 212.5ZM32.2017 210.4C32.4017 210.7 32.7017 210.9 33.0017 211.1C33.3017 211.3 33.7017 211.3 34.0017 211.3L35.1017 210.5L34.6017 209.8C33.8017 208.6 33.1017 208.3 32.4017 208.7C32.1017 208.9 31.9017 209.2 31.9017 209.5C31.9017 209.8 32.0017 210.1 32.2017 210.4Z" fill="white"/>
<path d="M38.1984 217C38.3984 216.8 38.5984 216.6 38.5984 216.3C38.5984 216 38.4984 215.6 38.1984 215.1C37.8984 214.6 37.7984 214.1 37.6984 213.7C37.5984 213.3 37.5984 213 37.6984 212.7C37.7984 212.4 37.9984 212.2 38.1984 212C38.5984 211.7 39.0984 211.6 39.6984 211.7C40.2984 211.8 40.7984 212.2 41.2984 212.7C41.7984 213.3 41.9984 213.9 41.9984 214.5C41.9984 215.1 41.6984 215.6 41.2984 216L40.5984 215.1C40.7984 214.9 40.9984 214.6 40.9984 214.3C40.9984 214 40.8984 213.6 40.5984 213.3C40.2984 213 40.0984 212.8 39.7984 212.7C39.4984 212.6 39.1984 212.7 38.9984 212.9C38.7984 213.1 38.6984 213.3 38.6984 213.5C38.6984 213.8 38.8984 214.2 39.0984 214.7C39.3984 215.2 39.4984 215.7 39.5984 216.1C39.6984 216.5 39.6984 216.8 39.5984 217.1C39.4984 217.4 39.2984 217.6 38.9984 217.9C38.4984 218.3 37.9984 218.4 37.3984 218.2C36.7984 218 36.2984 217.7 35.7984 217.1C35.4984 216.7 35.1984 216.2 35.0984 215.8C34.9984 215.4 34.9984 214.9 35.0984 214.5C35.1984 214.1 35.3984 213.8 35.7984 213.5L36.4984 214.4C36.1984 214.7 36.0984 215 36.0984 215.3C36.0984 215.7 36.1984 216 36.4984 216.4C36.7984 216.7 37.0984 217 37.3984 217.1C37.6984 217.2 37.9984 217.2 38.1984 217Z" fill="white"/>
<path d="M43.7992 217.2C44.5992 217.2 45.2992 217.4 45.7992 218C46.7992 219 46.6992 220.1 45.4992 221.2L42.1992 224.2L41.3992 223.4L44.6992 220.4C45.0992 220.1 45.1992 219.7 45.2992 219.4C45.2992 219.1 45.1992 218.8 44.8992 218.4C44.5992 218.1 44.3992 218 43.9992 217.9C43.5992 217.8 43.2992 217.8 42.9992 217.9L39.4992 221.2L38.6992 220.4L45.6992 213.9L46.4992 214.7L43.7992 217.2Z" fill="white"/>
<path d="M46.8005 228.6C46.8005 228.5 47.0005 228.2 47.2005 228C46.4005 228 45.8005 227.8 45.2005 227.3C44.7005 226.8 44.4005 226.3 44.4005 225.8C44.3005 225.2 44.5005 224.7 44.9005 224.3C45.4005 223.8 45.9005 223.6 46.6005 223.6C47.3005 223.6 47.9005 224 48.6005 224.7L49.4005 225.5L49.8005 225.1C50.1005 224.8 50.2005 224.5 50.2005 224.1C50.2005 223.8 50.0005 223.4 49.7005 223.1C49.4005 222.8 49.1005 222.7 48.7005 222.6C48.4005 222.6 48.1005 222.7 47.9005 222.9L47.1005 222.1C47.3005 221.9 47.6005 221.7 48.0005 221.6C48.4005 221.5 48.8005 221.6 49.2005 221.7C49.6005 221.8 50.0005 222.1 50.4005 222.4C51.0005 222.9 51.3005 223.5 51.3005 224.1C51.4005 224.7 51.2005 225.2 50.7005 225.7L48.6005 228C48.2005 228.5 47.9005 228.9 47.8005 229.2L47.7005 229.3L46.8005 228.6ZM46.0005 226.6C46.3005 226.8 46.6005 227 46.9005 227.1C47.3005 227.2 47.6005 227.2 47.9005 227L48.8005 226L48.1005 225.4C47.1005 224.4 46.3005 224.3 45.7005 224.9C45.5005 225.2 45.4005 225.5 45.4005 225.8C45.6005 226.1 45.7005 226.4 46.0005 226.6Z" fill="white"/>
<path d="M56.3984 231.2C55.6984 230.4 55.3984 229.6 55.1984 229C55.0984 228.4 55.1984 227.8 55.5984 227.3C55.9984 226.7 56.5984 226.4 57.2984 226.4C57.9984 226.4 58.7984 226.6 59.4984 227.2C59.9984 227.6 60.3984 228 60.5984 228.5C60.8984 229 60.9984 229.5 60.8984 230C60.7984 230.5 60.6984 231 60.3984 231.4L59.3984 230.7C59.6984 230.3 59.7984 229.8 59.6984 229.3C59.5984 228.8 59.2984 228.4 58.7984 228C58.2984 227.7 57.8984 227.5 57.4984 227.5C57.0984 227.5 56.6984 227.7 56.4984 228.1C56.2984 228.4 56.1984 228.7 56.2984 229.1C56.3984 229.5 56.6984 230 57.1984 230.6C57.6984 231.2 57.9984 231.8 58.1984 232.2C58.3984 232.7 58.4984 233.1 58.3984 233.5C58.3984 233.9 58.1984 234.3 57.8984 234.7C57.4984 235.3 56.8984 235.6 56.1984 235.6C55.4984 235.6 54.6984 235.3 53.9984 234.8C53.4984 234.4 53.0984 234 52.7984 233.5C52.4984 233 52.3984 232.5 52.3984 232C52.3984 231.5 52.5984 231 52.8984 230.6L53.8984 231.3C53.5984 231.7 53.4984 232.2 53.5984 232.7C53.6984 233.2 54.0984 233.6 54.5984 234C55.0984 234.4 55.5984 234.6 55.9984 234.5C56.3984 234.5 56.7984 234.3 56.9984 233.9C57.2984 233.5 57.2984 233.2 57.1984 232.8C57.2984 232.4 56.9984 231.9 56.3984 231.2Z" fill="white"/>
<path d="M61.7017 239.5C61.7017 239.4 61.8017 239.1 61.9017 238.8C61.2017 239 60.5017 238.9 59.8017 238.5C59.2017 238.2 58.9017 237.7 58.7017 237.2C58.5017 236.7 58.6017 236.1 58.9017 235.6C59.3017 235 59.8017 234.7 60.4017 234.6C61.1017 234.5 61.8017 234.8 62.6017 235.3L63.6017 235.9L63.9017 235.4C64.1017 235.1 64.2017 234.7 64.1017 234.4C64.0017 234.1 63.8017 233.8 63.4017 233.5C63.0017 233.3 62.7017 233.2 62.4017 233.2C62.1017 233.2 61.8017 233.4 61.6017 233.6L60.6017 233C60.8017 232.7 61.0017 232.5 61.4017 232.4C61.8017 232.3 62.2017 232.2 62.6017 232.3C63.0017 232.4 63.5017 232.5 63.9017 232.8C64.6017 233.2 65.0017 233.7 65.1017 234.3C65.3017 234.9 65.2017 235.4 64.8017 236L63.2017 238.6C62.9017 239.1 62.7017 239.6 62.6017 240L62.5017 240.1L61.7017 239.5ZM60.6017 237.8C60.9017 238 61.2017 238.1 61.6017 238.1C62.0017 238.1 62.3017 238 62.6017 237.8L63.3017 236.6L62.5017 236.1C61.3017 235.4 60.5017 235.3 60.0017 236C59.8017 236.3 59.8017 236.6 59.9017 236.9C60.0017 237.4 60.3017 237.6 60.6017 237.8Z" fill="white"/>
<path d="M68.3992 235.6L68.0992 236.3C68.7992 236 69.4992 236 70.2992 236.4C71.0992 236.8 71.5992 237.4 71.5992 238.2C71.8992 238 72.2992 237.9 72.6992 237.9C73.0992 237.9 73.4992 238 73.9992 238.2C75.2992 238.8 75.6992 239.9 74.9992 241.3L72.9992 245.4L71.9992 244.9L73.8992 240.9C74.0992 240.5 74.1992 240.1 74.0992 239.8C73.9992 239.5 73.6992 239.2 73.2992 239C72.8992 238.8 72.4992 238.8 72.1992 238.9C71.8992 239 71.4992 239.2 71.2992 239.6L69.3992 243.6L68.3992 243.1L70.2992 239.1C70.6992 238.2 70.4992 237.6 69.5992 237.2C68.8992 236.9 68.2992 236.9 67.7992 237.4L65.6992 241.8L64.6992 241.3L67.5992 235.2L68.3992 235.6Z" fill="white"/>
<path d="M79.0012 247.5C79.0012 247.4 79.0012 247.1 79.1012 246.8C78.4012 247.1 77.7012 247.2 77.0012 246.9C76.4012 246.7 75.9012 246.3 75.7012 245.8C75.5012 245.3 75.4012 244.8 75.6012 244.2C75.8012 243.5 76.3012 243.1 76.9012 242.9C77.5012 242.7 78.3012 242.8 79.2012 243.1L80.3012 243.5L80.5012 243C80.6012 242.6 80.6012 242.3 80.5012 242C80.4012 241.7 80.1012 241.5 79.6012 241.3C79.2012 241.2 78.9012 241.1 78.5012 241.2C78.2012 241.3 78.0012 241.5 77.9012 241.8L76.8012 241.4C76.9012 241.1 77.1012 240.8 77.5012 240.6C77.9012 240.4 78.2012 240.3 78.7012 240.2C79.1012 240.2 79.6012 240.2 80.1012 240.4C80.8012 240.7 81.3012 241.1 81.6012 241.6C81.9012 242.1 81.9012 242.7 81.7012 243.3L80.6012 246.2C80.4012 246.8 80.3012 247.3 80.3012 247.7V247.8L79.0012 247.5ZM77.5012 246C77.8012 246.1 78.2012 246.2 78.6012 246.1C79.0012 246 79.3012 245.9 79.5012 245.7L80.0012 244.4L79.2012 244.1C77.9012 243.6 77.1012 243.8 76.8012 244.5C76.7012 244.8 76.7012 245.1 76.9012 245.4C76.9012 245.7 77.2012 245.9 77.5012 246Z" fill="white"/>
<path d="M86.7015 243.9C86.5015 243.8 86.4015 243.8 86.2015 243.7C85.5015 243.5 84.9015 243.7 84.5015 244.2L83.2015 248.8L82.1016 248.5L84.0015 242L85.1016 242.3L84.9016 243.1C85.4016 242.6 86.0015 242.5 86.7015 242.7C86.9015 242.8 87.1015 242.8 87.2015 242.9L86.7015 243.9Z" fill="white"/>
<path d="M90.0992 242L89.6992 243.6L90.8992 243.9L90.6992 244.8L89.4992 244.5L88.4992 248.6C88.3992 248.9 88.3992 249.1 88.4992 249.2C88.5992 249.4 88.6992 249.5 88.9992 249.5C89.0992 249.5 89.2992 249.5 89.5992 249.6L89.3992 250.5C89.0992 250.5 88.7992 250.5 88.4992 250.4C87.9992 250.3 87.6992 250 87.4992 249.7C87.2992 249.3 87.2992 248.9 87.3992 248.3L88.3992 244.2L87.1992 243.9L87.3992 243L88.5992 243.3L88.9992 241.7L90.0992 242Z" fill="white"/>
<path d="M93.1016 245.1C93.7016 244.6 94.4015 244.4 95.2015 244.5C96.6015 244.7 97.2016 245.7 96.9016 247.2L96.2015 251.6L95.1016 251.4L95.8016 247C95.9016 246.5 95.8015 246.1 95.7015 245.9C95.6015 245.7 95.2016 245.5 94.8016 245.4C94.4016 245.3 94.1016 245.4 93.8016 245.5C93.5016 245.6 93.2015 245.9 93.0015 246.2L92.2015 250.9L91.1016 250.7L92.7015 241.3L93.8016 241.5L93.1016 245.1Z" fill="white"/>
<path d="M102.401 252.3C102.301 252.2 102.301 251.9 102.301 251.6C101.701 252.1 101.101 252.3 100.301 252.3C99.6013 252.2 99.1013 252 98.7013 251.6C98.3013 251.2 98.1013 250.7 98.2013 250.1C98.3013 249.4 98.6013 248.9 99.1013 248.5C99.6013 248.1 100.401 248 101.401 248.1L102.501 248.2V247.7C102.501 247.3 102.401 247 102.201 246.7C102.001 246.4 101.601 246.3 101.201 246.2C100.801 246.2 100.401 246.2 100.101 246.4C99.8013 246.6 99.6013 246.8 99.6013 247.1L98.4013 247C98.4013 246.7 98.6013 246.4 98.8013 246.1C99.1013 245.8 99.4013 245.6 99.8013 245.4C100.201 245.3 100.701 245.2 101.201 245.2C102.001 245.3 102.601 245.5 103.001 245.9C103.401 246.3 103.601 246.9 103.501 247.6L103.201 250.7C103.101 251.3 103.201 251.8 103.301 252.2V252.3H102.401ZM100.601 251.3C101.001 251.3 101.301 251.3 101.601 251.1C101.901 250.9 102.201 250.7 102.401 250.4L102.501 249L101.601 248.9C100.201 248.8 99.5013 249.1 99.4013 249.9C99.4013 250.3 99.5013 250.6 99.7013 250.8C99.9013 251 100.201 251.2 100.601 251.3Z" fill="white"/>
<path d="M107.4 249.4L106.7 250.1V252.5H105.5L105.7 242.9H106.9L106.8 248.7L107.4 248L109.5 245.8H110.9L108.2 248.6L111.1 252.6H109.7L107.4 249.4Z" fill="white"/>
<path d="M115.199 247.6C115.199 247.2 115.299 246.9 115.499 246.7C115.699 246.5 115.999 246.3 116.399 246.3C116.799 246.3 117.099 246.4 117.299 246.6C117.599 246.8 117.699 247.1 117.699 247.5V247.7C117.699 248.1 117.599 248.4 117.399 248.6C117.199 248.8 116.899 249 116.499 249C116.099 249 115.799 248.9 115.599 248.7C115.399 248.5 115.199 248.2 115.199 247.8V247.6Z" fill="white"/>
<path d="M130 249.1C129.8 249.6 129.4 250 128.9 250.3C128.4 250.6 127.8 250.8 127.1 251C126.4 251.1 125.7 251.1 125.1 250.9C124.5 250.7 123.9 250.3 123.5 249.7C123.1 249.1 122.8 248.4 122.6 247.6L122.5 246.8C122.2 245.5 122.4 244.4 122.9 243.5C123.4 242.6 124.2 242.1 125.3 241.9C126.2 241.7 127 241.8 127.7 242.2C128.4 242.6 128.8 243.2 129.1 244L127.9 244.2C127.5 243.1 126.6 242.6 125.5 242.8C124.7 242.9 124.2 243.3 123.9 244C123.6 244.7 123.5 245.5 123.7 246.5L123.8 247.2C124 248.2 124.4 249 124.9 249.5C125.4 250 126.1 250.2 126.9 250C127.3 249.9 127.7 249.8 128 249.6C128.3 249.4 128.6 249.2 128.7 249L128.3 247L126.2 247.4L126 246.4L129.2 245.8L130 249.1Z" fill="white"/>
<path d="M131.201 246.5C131.001 245.9 131.001 245.3 131.101 244.7C131.201 244.1 131.401 243.6 131.801 243.2C132.201 242.8 132.601 242.5 133.201 242.4C134.101 242.2 134.901 242.3 135.601 242.7C136.301 243.2 136.801 243.9 137.101 244.9V245C137.301 245.6 137.301 246.2 137.201 246.8C137.101 247.4 136.901 247.9 136.501 248.3C136.101 248.7 135.701 249 135.101 249.2C134.201 249.4 133.401 249.3 132.701 248.9C132.001 248.3 131.501 247.6 131.201 246.5ZM132.301 246.3C132.501 247 132.801 247.5 133.301 247.9C133.801 248.2 134.301 248.3 134.801 248.2C135.401 248 135.701 247.7 136.001 247.2C136.201 246.7 136.201 246 136.001 245.2C135.801 244.5 135.501 244 135.001 243.6C134.501 243.2 134.001 243.2 133.501 243.3C133.001 243.5 132.601 243.8 132.401 244.3C132.101 244.9 132.101 245.5 132.301 246.3Z" fill="white"/>
<path d="M140.802 247.2L139.702 247.6L136.602 238.6L137.702 238.2L140.802 247.2Z" fill="white"/>
<path d="M141.201 243.4C140.801 242.4 140.701 241.6 140.901 240.8C141.101 240 141.601 239.5 142.301 239.2C143.001 238.9 143.701 238.9 144.301 239.2L143.001 236L144.101 235.6L147.801 244.4L146.801 244.8L146.501 244.2C146.301 244.9 145.801 245.4 145.001 245.7C144.301 246 143.601 245.9 142.901 245.5C142.201 245.1 141.601 244.5 141.201 243.4ZM142.301 243.1C142.601 243.8 143.001 244.3 143.401 244.6C143.801 244.9 144.301 244.9 144.901 244.7C145.601 244.4 145.901 243.9 146.001 243.2L144.801 240.3C144.201 239.8 143.601 239.8 143.001 240C142.501 240.2 142.201 240.6 142.001 241.1C141.901 241.7 142.001 242.3 142.301 243.1Z" fill="white"/>
<path d="M157.299 236.1C157.699 237 157.699 237.8 157.499 238.6C157.199 239.3 156.699 240 155.799 240.5C154.899 241 153.899 241.1 152.999 240.8C152.099 240.5 151.299 239.7 150.599 238.6L150.199 237.8C149.799 237.1 149.499 236.3 149.499 235.6C149.399 234.9 149.599 234.3 149.899 233.7C150.199 233.1 150.699 232.7 151.299 232.3C152.099 231.8 152.899 231.7 153.699 231.9C154.499 232.1 155.099 232.6 155.699 233.3L154.699 233.9C154.299 233.3 153.799 233 153.299 232.9C152.799 232.8 152.299 232.9 151.799 233.2C151.099 233.6 150.799 234.1 150.699 234.8C150.599 235.5 150.799 236.3 151.299 237.2L151.699 238C152.199 238.9 152.799 239.4 153.399 239.7C153.999 240 154.699 240 155.299 239.6C155.899 239.3 156.199 238.9 156.399 238.5C156.599 238.1 156.499 237.5 156.199 236.8L157.299 236.1Z" fill="white"/>
<path d="M158.001 235C157.601 234.5 157.401 233.9 157.301 233.3C157.201 232.7 157.301 232.2 157.501 231.7C157.701 231.2 158.101 230.8 158.601 230.4C159.401 229.9 160.101 229.7 161.001 229.9C161.801 230.1 162.501 230.6 163.101 231.5V231.6C163.501 232.1 163.701 232.7 163.801 233.3C163.901 233.9 163.801 234.4 163.601 234.9C163.401 235.4 163.001 235.8 162.501 236.2C161.701 236.7 161.001 236.9 160.101 236.7C159.401 236.4 158.701 235.9 158.001 235ZM159.101 234.4C159.501 235 160.001 235.4 160.501 235.6C161.001 235.8 161.601 235.7 162.001 235.4C162.501 235.1 162.701 234.6 162.801 234C162.801 233.4 162.601 232.8 162.101 232.1C161.701 231.5 161.201 231.1 160.601 230.9C160.101 230.7 159.501 230.8 159.101 231.1C158.601 231.4 158.401 231.9 158.401 232.4C158.401 233.1 158.601 233.7 159.101 234.4Z" fill="white"/>
<path d="M163.101 227.3L163.701 227.9C163.701 227.1 164.001 226.4 164.701 225.9C165.801 225 166.901 225.2 167.901 226.4L170.701 229.9L169.801 230.6L167.001 227.1C166.701 226.7 166.401 226.5 166.101 226.5C165.801 226.5 165.401 226.6 165.101 226.9C164.801 227.1 164.601 227.4 164.501 227.8C164.401 228.1 164.401 228.5 164.501 228.8L167.501 232.5L166.601 233.2L162.301 228L163.101 227.3Z" fill="white"/>
<path d="M167.599 221.3L168.699 222.5L169.599 221.6L170.199 222.3L169.299 223.2L172.099 226.3C172.299 226.5 172.499 226.6 172.599 226.6C172.699 226.6 172.999 226.5 173.199 226.4C173.299 226.3 173.399 226.2 173.599 226L174.199 226.7C173.999 227 173.799 227.2 173.599 227.4C173.199 227.7 172.799 227.9 172.399 227.8C171.999 227.7 171.599 227.5 171.199 227.1L168.399 224L167.499 224.8L166.899 224.1L167.799 223.3L166.699 222.1L167.599 221.3Z" fill="white"/>
<path d="M173.5 219.2C173.4 219.3 173.2 219.4 173.1 219.6C172.6 220.1 172.4 220.7 172.7 221.4L176.1 224.8L175.3 225.6L170.5 220.9L171.3 220.1L171.9 220.6C171.7 219.9 171.9 219.3 172.4 218.8C172.6 218.6 172.7 218.5 172.8 218.5L173.5 219.2Z" fill="white"/>
<path d="M172.098 216.5C171.998 216.4 171.898 216.2 171.898 216.1C171.898 216 171.898 215.8 172.098 215.6C172.298 215.4 172.398 215.4 172.598 215.4C172.798 215.4 172.898 215.5 173.098 215.6C173.198 215.7 173.298 215.9 173.298 216C173.298 216.2 173.198 216.3 173.098 216.5C172.898 216.7 172.798 216.7 172.598 216.7C172.398 216.7 172.198 216.7 172.098 216.5ZM179.198 221.4L178.398 222.3L173.398 217.8L174.198 216.9L179.198 221.4Z" fill="white"/>
<path d="M181.701 213.3C182.501 213.9 183.001 214.7 183.201 215.4C183.401 216.2 183.201 216.9 182.701 217.5C182.201 218.2 181.501 218.5 180.801 218.5L181.401 219L180.701 219.8L173.301 213.8L174.001 212.9L176.801 215.1C176.601 214.4 176.801 213.7 177.301 213.1C177.801 212.5 178.501 212.2 179.201 212.2C180.001 212.2 180.801 212.6 181.701 213.3ZM180.901 214.1C180.301 213.6 179.701 213.3 179.201 213.3C178.701 213.3 178.201 213.5 177.901 213.9C177.401 214.5 177.401 215.1 177.701 215.8L180.001 217.6C180.801 217.8 181.401 217.6 181.901 217C182.201 216.6 182.401 216.1 182.201 215.6C181.901 215.2 181.501 214.6 180.901 214.1Z" fill="white"/>
<path d="M187.099 210.1C187.299 210.8 187.099 211.5 186.599 212.2C186.199 212.8 185.699 213.1 185.199 213.2C184.699 213.3 183.999 213.1 183.299 212.6L179.699 210.1L180.399 209.1L183.999 211.6C184.799 212.2 185.499 212.1 185.999 211.4C186.499 210.7 186.599 210 186.199 209.4L182.199 206.6L182.899 205.6L188.499 209.4L187.899 210.3L187.099 210.1Z" fill="white"/>
<path d="M183 202.2L184.4 203L185 201.9L185.8 202.4L185.2 203.5L188.8 205.6C189 205.7 189.2 205.8 189.4 205.8C189.6 205.8 189.7 205.6 189.9 205.4C190 205.3 190 205.1 190.1 204.9L190.9 205.4C190.8 205.7 190.7 206 190.6 206.2C190.3 206.6 190 206.9 189.6 207C189.2 207.1 188.8 207 188.3 206.7L184.7 204.6L184.1 205.7L183.3 205.2L183.9 204.1L182.5 203.3L183 202.2Z" fill="white"/>
<path d="M188.398 202.8C187.798 202.5 187.298 202.1 186.998 201.6C186.598 201.1 186.498 200.6 186.398 200.1C186.398 199.6 186.498 199 186.698 198.5C187.098 197.7 187.698 197.2 188.598 197C189.498 196.8 190.298 196.9 191.198 197.4H191.298C191.898 197.7 192.298 198.1 192.698 198.5C193.098 198.9 193.198 199.5 193.298 200C193.298 200.5 193.198 201.1 192.998 201.6C192.598 202.4 191.998 202.9 191.098 203.1C190.298 203.4 189.398 203.3 188.398 202.8ZM188.998 201.8C189.698 202.1 190.298 202.3 190.798 202.2C191.398 202.1 191.798 201.8 191.998 201.3C192.298 200.8 192.298 200.3 191.998 199.7C191.698 199.2 191.298 198.7 190.498 198.4C189.798 198.1 189.198 197.9 188.698 198C188.198 198.1 187.698 198.4 187.398 198.9C187.098 199.4 187.098 199.9 187.398 200.4C187.798 201 188.298 201.4 188.998 201.8Z" fill="white"/>
<path d="M190.999 192C190.899 192.1 190.799 192.3 190.699 192.5C190.399 193.2 190.499 193.8 190.999 194.3L195.399 196.2L194.899 197.3L188.699 194.6L189.099 193.6L189.799 193.9C189.399 193.3 189.299 192.7 189.599 192.1C189.699 191.9 189.799 191.7 189.899 191.7L190.999 192Z" fill="white"/>
<defs>
<filter id="filter0_ii" x="0" y="50" width="218" height="218" filterUnits="userSpaceOnUse" color-interpolation-filters="sRGB">
<feFlood flood-opacity="0" result="BackgroundImageFix"/>
<feBlend mode="normal" in="SourceGraphic" in2="BackgroundImageFix" result="shape"/>
<feColorMatrix in="SourceAlpha" type="matrix" values="0 0 0 0 0 0 0 0 0 0 0 0 0 0 0 0 0 0 127 0" result="hardAlpha"/>
<feOffset/>
<feGaussianBlur stdDeviation="4"/>
<feComposite in2="hardAlpha" operator="arithmetic" k2="-1" k3="1"/>
<feColorMatrix type="matrix" values="0 0 0 0 0.9875 0 0 0 0 0.722843 0 0 0 0 0.386771 0 0 0 1 0"/>
<feBlend mode="normal" in2="shape" result="effect1_innerShadow"/>
<feColorMatrix in="SourceAlpha" type="matrix" values="0 0 0 0 0 0 0 0 0 0 0 0 0 0 0 0 0 0 127 0" result="hardAlpha"/>
<feOffset/>
<feGaussianBlur stdDeviation="6"/>
<feComposite in2="hardAlpha" operator="arithmetic" k2="-1" k3="1"/>
<feColorMatrix type="matrix" values="0 0 0 0 0 0 0 0 0 0 0 0 0 0 0 0 0 0 0.2 0"/>
<feBlend mode="normal" in2="effect1_innerShadow" result="effect2_innerShadow"/>
</filter>
<filter id="filter1_i" x="59" y="109" width="100" height="100" filterUnits="userSpaceOnUse" color-interpolation-filters="sRGB">
<feFlood flood-opacity="0" result="BackgroundImageFix"/>
<feBlend mode="normal" in="SourceGraphic" in2="BackgroundImageFix" result="shape"/>
<feColorMatrix in="SourceAlpha" type="matrix" values="0 0 0 0 0 0 0 0 0 0 0 0 0 0 0 0 0 0 127 0" result="hardAlpha"/>
<feOffset/>
<feGaussianBlur stdDeviation="6"/>
<feComposite in2="hardAlpha" operator="arithmetic" k2="-1" k3="1"/>
<feColorMatrix type="matrix" values="0 0 0 0 0.75 0 0 0 0 0.525098 0 0 0 0 0.00937498 0 0 0 1 0"/>
<feBlend mode="normal" in2="shape" result="effect1_innerShadow"/>
</filter>
<linearGradient id="paint0_linear" x1="51.775" y1="57.4937" x2="233.571" y2="236.338" gradientUnits="userSpaceOnUse">
<stop stop-color="white"/>
<stop offset="1" stop-color="#E3BC43"/>
</linearGradient>
<linearGradient id="paint1_linear" x1="174.52" y1="213.6" x2="38.8" y2="107.52" gradientUnits="userSpaceOnUse">
<stop stop-color="#FFFEFB"/>
<stop offset="1" stop-color="#8C6A00" stop-opacity="0"/>
</linearGradient>
<linearGradient id="paint2_linear" x1="194.68" y1="230.4" x2="17.2" y2="91.68" gradientUnits="userSpaceOnUse">
<stop stop-color="#FFFEFC"/>
<stop offset="1" stop-color="#8C6A00" stop-opacity="0"/>
</linearGradient>
</defs>
</svg>
