<svg width="109" height="103" viewBox="0 0 109 103" fill="none" xmlns="http://www.w3.org/2000/svg">
<path fill-rule="evenodd" clip-rule="evenodd" d="M24.3466 22.5693C24.7416 23.5742 26.3656 33.5787 25.8828 34.4962C25.005 36.2874 25.5756 37.7291 26.7606 39.0834C27.4629 39.8261 28.2529 40.5251 28.9991 41.3115C29.438 41.792 29.9647 42.2726 30.3597 42.7969C31.7204 44.5444 31.3692 45.8113 29.3063 46.6414C29.0869 46.7288 28.8674 46.8162 28.648 46.9035C28.2091 47.122 28.0335 47.5589 28.2091 47.9957C28.3407 48.3015 28.5163 48.5637 28.648 48.8695C29.043 49.7433 28.8674 50.4859 28.0335 51.0102C27.6385 51.2286 27.1557 51.4034 26.7606 51.5781C26.3656 51.7529 26.0145 51.884 25.6634 52.1898C26.0145 52.2772 26.3656 52.3208 26.7168 52.4082C27.2434 52.5393 27.814 52.583 28.2968 52.8014C29.1308 53.1072 29.3502 53.8062 28.9991 54.5489C28.9552 54.7237 28.8674 54.8547 28.7796 54.9858C27.8579 56.1217 27.8579 57.3886 28.2968 58.6993C28.6919 59.9225 28.3407 60.7526 27.1557 61.3206C25.6195 62.0196 23.9516 62.1069 22.3276 62.1943C21.8448 62.238 21.3181 62.1943 20.8353 62.1943C19.8258 62.238 19.3869 63.0244 19.1236 63.7671C18.7724 64.8593 18.5091 65.9952 18.2457 67.1311C18.1141 67.5243 18.0702 67.9174 17.4996 67.8738C17.0168 67.7864 16.7973 67.4369 16.929 66.8689C17.1923 65.7767 17.4557 64.6845 17.7629 63.5923C17.8946 63.1118 18.2018 62.6749 18.4652 62.238C19.0797 61.1458 20.0892 60.8837 21.2742 60.84C22.7226 60.7963 24.1711 60.6216 25.6195 60.4468C25.8389 60.4031 26.0584 60.3157 26.2778 60.2721C27.1118 59.9225 27.1996 59.7478 26.9362 58.874C26.4973 57.3013 26.4973 55.7285 27.5946 54.3305C27.6385 54.2868 27.6824 54.1994 27.7263 54.112C27.7263 54.112 27.7263 54.0684 27.7263 53.9373C27.2434 53.8499 26.7606 53.8499 26.3217 53.6752C25.6195 53.4567 24.9172 53.1946 24.3466 52.8451C23.7321 52.4519 23.7321 51.7966 24.3027 51.316C24.6978 51.0102 25.2244 50.7918 25.6634 50.5733C26.1462 50.3549 26.629 50.1801 27.1118 50.0054C27.4629 49.8743 27.5946 49.6559 27.3751 49.3064C27.2434 49.0879 27.1557 48.8695 27.0679 48.6947C26.4973 47.6462 26.9362 46.0735 28.2968 45.5929C28.5163 45.5055 28.7796 45.4181 28.9991 45.3308C29.9208 44.9376 30.0525 44.5881 29.3941 43.8017C28.648 42.8842 27.7701 42.0105 26.8923 41.1367C25.6634 39.9571 24.5222 38.7339 24.1711 36.9864C24.0833 36.4621 24.1272 35.8942 24.2149 35.3699C24.3027 34.8893 24.5222 34.4525 24.6539 34.0156C24.9172 33.3166 23.381 23.7052 23.0299 23.0062L24.3466 22.5693Z" fill="#F58B71" stroke="#F58B71" stroke-width="0.0135276"/>
<path fill-rule="evenodd" clip-rule="evenodd" d="M50.3452 52.2599C50.2574 56.7597 48.7651 60.6917 45.7366 64.0119C45.561 64.1867 45.4294 64.3615 45.2099 64.5362C44.8149 64.8857 44.376 64.8857 43.9809 64.5362C43.5859 64.143 43.5859 63.6624 43.9371 63.2693C44.2882 62.8324 44.7271 62.4392 45.0782 62.0023C48.7212 57.2403 49.5112 51.9978 47.4045 46.4057C46.6583 44.5271 45.561 42.9107 44.2004 41.4253C43.9371 41.1631 43.7176 40.6826 43.7615 40.3768C43.8493 39.6341 44.7271 39.503 45.3416 40.0709C46.8778 41.6 48.0189 43.3475 48.8968 45.2698C49.8624 47.4979 50.3452 49.857 50.3452 52.2599Z" fill="#F58B71"/>
<path fill-rule="evenodd" clip-rule="evenodd" d="M50.3452 52.2599C50.2574 56.7597 48.7651 60.6917 45.7366 64.0119C45.561 64.1867 45.4294 64.3615 45.2099 64.5362C44.8149 64.8857 44.376 64.8857 43.9809 64.5362C43.5859 64.143 43.5859 63.6624 43.9371 63.2693C44.2882 62.8324 44.7271 62.4392 45.0782 62.0023C48.7212 57.2403 49.5112 51.9978 47.4045 46.4057C46.6583 44.5271 45.561 42.9107 44.2004 41.4253C43.9371 41.1631 43.7176 40.6826 43.7615 40.3768C43.8493 39.6341 44.7271 39.503 45.3416 40.0709C46.8778 41.6 48.0189 43.3475 48.8968 45.2698C49.8624 47.4979 50.3452 49.857 50.3452 52.2599Z" stroke="#F58B71" stroke-width="0.0135276"/>
<path fill-rule="evenodd" clip-rule="evenodd" d="M44.3932 53.531C44.3493 55.7591 43.1642 58.8609 40.7941 61.4822C40.7063 61.6133 40.6185 61.7007 40.4868 61.8317C40.0479 62.2686 39.5651 62.3997 39.0823 61.9191C38.5995 61.4822 38.7751 61.0017 39.1701 60.5648C40.3991 59.3415 41.3647 57.8998 41.8914 56.196C43.3398 51.7835 42.5497 47.7642 39.4335 44.1818C39.3018 44.0507 39.1262 43.9197 39.0384 43.7449C38.7312 43.3517 38.6873 42.9148 39.0823 42.5653C39.4335 42.2595 39.9163 42.1285 40.3552 42.5216C40.7502 42.9148 41.1452 43.3517 41.4963 43.7886C43.3837 46.2788 44.3932 49.1185 44.3932 53.531Z" fill="#F58B71"/>
<path fill-rule="evenodd" clip-rule="evenodd" d="M44.3932 53.531C44.3493 55.7591 43.1642 58.8609 40.7941 61.4822C40.7063 61.6133 40.6185 61.7007 40.4868 61.8317C40.0479 62.2686 39.5651 62.3997 39.0823 61.9191C38.5995 61.4822 38.7751 61.0017 39.1701 60.5648C40.3991 59.3415 41.3647 57.8998 41.8914 56.196C43.3398 51.7835 42.5497 47.7642 39.4335 44.1818C39.3018 44.0507 39.1262 43.9197 39.0384 43.7449C38.7312 43.3517 38.6873 42.9148 39.0823 42.5653C39.4335 42.2595 39.9163 42.1285 40.3552 42.5216C40.7502 42.9148 41.1452 43.3517 41.4963 43.7886C43.3837 46.2788 44.3932 49.1185 44.3932 53.531Z" stroke="#F58B71" stroke-width="0.0135276"/>
<path fill-rule="evenodd" clip-rule="evenodd" d="M36.5916 52.0696C36.5477 49.9726 35.7576 48.094 34.2653 46.4776C33.6508 45.8223 33.7386 45.1233 34.5287 44.9048C34.8359 44.8174 35.3187 44.9922 35.5382 45.2106C37.6011 47.3513 38.5228 49.9289 38.3472 52.856C38.2155 55.2589 37.2938 57.3559 35.6698 59.1471C35.2309 59.584 34.792 59.8898 34.1775 59.4092C33.7386 59.0597 33.7825 58.4918 34.3531 57.8801C35.8015 56.2637 36.5477 54.3851 36.5916 52.0696Z" fill="#F58B71"/>
<path fill-rule="evenodd" clip-rule="evenodd" d="M36.5916 52.0696C36.5477 49.9726 35.7576 48.094 34.2653 46.4776C33.6508 45.8223 33.7386 45.1233 34.5287 44.9048C34.8359 44.8174 35.3187 44.9922 35.5382 45.2106C37.6011 47.3513 38.5228 49.9289 38.3472 52.856C38.2155 55.2589 37.2938 57.3559 35.6698 59.1471C35.2309 59.584 34.792 59.8898 34.1775 59.4092C33.7386 59.0597 33.7825 58.4918 34.3531 57.8801C35.8015 56.2637 36.5477 54.3851 36.5916 52.0696Z" stroke="#F58B71" stroke-width="0.0135276"/>
<path fill-rule="evenodd" clip-rule="evenodd" d="M38.3175 90.8354C44.1002 93.0272 50.4265 94.235 57.0587 94.235C65.2663 94.235 73.0351 92.3564 79.8821 89.0798C71.4989 95.3708 61.0967 99.128 49.8166 99.128C43.3981 99.128 37.2637 97.9208 31.6301 95.7224L38.3175 90.8354ZM24.2715 82.7492C13.8562 74.2413 7.28595 61.7492 7.28595 47.8383C7.28595 22.2372 29.5388 1.4417 57.0587 1.4417C59.0777 1.4417 61.0967 1.57277 63.0718 1.79121C58.8582 0.611632 54.3813 0 49.8166 0C22.2968 0 0 22.1935 0 49.5858C0 67.0372 9.07878 82.3895 22.8002 91.2157L24.2715 82.7492Z" fill="#F47D5C"/>
<path d="M28.2757 79.6514L21.3848 102.107L39.7313 85.1561L28.2757 79.6514Z" fill="#377044"/>
<path fill-rule="evenodd" clip-rule="evenodd" d="M15.6577 48.6537C15.6577 69.755 32.8192 86.837 54.0186 86.837C68.0663 86.837 80.3528 79.3053 87.0233 68.0663H91.8359C84.7683 81.7095 70.4832 91.031 54.0186 91.031C30.4929 91.031 11.4441 72.0705 11.4441 48.6537C11.4441 25.2369 30.4929 6.27637 54.0186 6.27637C69.6741 6.27637 83.3591 14.7043 90.7423 27.2617H85.7646C78.8742 17.1266 67.2246 10.4704 54.0186 10.4704C32.8192 10.4704 15.6577 27.5524 15.6577 48.6537Z" fill="#377044"/>
<path d="M69.6069 53.0732H71.3626V63.1215H69.6069V53.0732Z" fill="#373435"/>
<path d="M73.5962 55.5546H75.0446L75.1763 56.6031H75.2202C75.9224 55.9478 76.6686 55.3799 77.722 55.3799C79.346 55.3799 80.0482 56.4721 80.0482 58.3944V63.1127H78.2926V58.6128C78.2926 57.3895 77.9414 56.909 77.1075 56.909C76.4052 56.909 76.0102 57.2148 75.3518 57.8701V63.1127H73.5962V55.5546Z" fill="#373435"/>
<path d="M85.1641 61.8733C85.7347 61.8733 86.2175 61.6112 86.7442 61.0433V57.5045C86.2175 57.0676 85.6908 56.8929 85.208 56.8929C84.1985 56.8929 83.4084 57.7667 83.4084 59.3831C83.4084 60.9996 84.0668 61.8733 85.1641 61.8733ZM84.8129 55.4075C85.6908 55.4075 86.2175 55.757 86.7881 56.2376L86.7442 55.0143V52.3057H88.4998V63.1403H87.0514L86.9197 62.3539H86.8758C86.3053 62.8781 85.5152 63.315 84.7252 63.315C82.794 63.315 81.6089 61.8733 81.6089 59.3831C81.6089 56.9366 83.1451 55.4075 84.8129 55.4075Z" fill="#373435"/>
<path d="M90.5342 55.581H92.3337V63.1391H90.5342V55.581ZM90.3147 53.2656C90.3147 52.6976 90.7975 52.2607 91.412 52.2607C92.0703 52.2607 92.5093 52.6976 92.5093 53.2656C92.5093 53.8772 92.0703 54.2704 91.412 54.2704C90.7975 54.2704 90.3147 53.8772 90.3147 53.2656Z" fill="#373435"/>
<path d="M96.851 61.9331C97.4655 61.9331 97.9483 61.6273 98.5189 61.103V59.3992C96.456 59.6613 95.7976 60.1856 95.7976 60.972C95.7976 61.6273 96.2366 61.9331 96.851 61.9331ZM98.5189 58.307C98.5189 57.4769 98.1678 56.8216 97.1583 56.8216C96.3682 56.8216 95.666 57.1711 95.0076 57.5643L94.3492 56.3847C95.1832 55.8605 96.2804 55.3799 97.4655 55.3799C99.3528 55.3799 100.318 56.5595 100.318 58.6565V63.1127H98.8261L98.6945 62.2826H98.6506C97.9922 62.8505 97.2022 63.2874 96.3243 63.2874C94.9637 63.2874 94.042 62.4137 94.042 61.103C94.042 59.4866 95.4026 58.6128 98.5189 58.307Z" fill="#373435"/>
<path d="M59.6957 45.5737H61.6708C62.7242 45.5737 63.2948 45.0495 63.2948 43.9573C63.2948 42.9088 62.5925 42.3408 61.2319 42.3408H59.6957V45.5737ZM59.6957 39.7195H60.8369C61.8025 39.7195 62.5486 39.1516 62.5486 38.2341C62.5486 37.3604 62.022 36.9235 61.0125 36.9235H59.6957V39.7195ZM64.3482 40.8117C65.7527 41.2923 66.6305 42.6029 66.6305 44.001C66.6305 46.7096 64.8749 48.3698 61.4514 48.3698H57.9839C56.8428 48.3698 56.4478 48.0202 56.4478 47.0154V35.5692C56.4478 34.6954 56.8428 34.2148 57.9839 34.2148H60.9247C64.2165 34.2148 65.5771 35.7002 65.5771 37.9283C65.5771 39.37 64.9627 40.3312 64.3482 40.8117Z" fill="#377044"/>
<path d="M75.5273 45.4953C76.7124 45.4953 77.678 45.1021 78.3802 44.3594C79.1264 43.573 79.4775 42.5682 79.4775 41.3012C79.4775 40.0343 79.1264 39.0295 78.3802 38.2431C77.678 37.4567 76.7124 37.0635 75.5273 37.0635C74.3422 37.0635 73.4205 37.4567 72.6744 38.2431C71.9721 39.0295 71.5771 40.0343 71.5771 41.3012C71.5771 42.5682 71.9721 43.573 72.6744 44.3594C73.4205 45.1021 74.3422 45.4953 75.5273 45.4953ZM75.5273 48.7282C73.4205 48.7282 71.6649 48.0292 70.2603 46.6749C68.8558 45.2768 68.1536 43.4856 68.1536 41.3012C68.1536 39.1168 68.8558 37.3256 70.3042 35.9713C71.7088 34.617 73.4644 33.918 75.5273 33.918C77.6341 33.918 79.3897 34.617 80.7943 36.015C82.1988 37.3693 82.9449 39.1168 82.9449 41.3012C82.9449 43.4856 82.1988 45.2768 80.7943 46.6749C79.3897 48.0292 77.6341 48.7282 75.5273 48.7282Z" fill="#377044"/>
<path d="M88.12 45.399H91.6313C92.6408 45.399 93.2114 45.9232 93.2114 46.8844C93.2114 47.8455 92.6408 48.3698 91.6313 48.3698H86.4522C85.1793 48.3698 84.8721 48.1513 84.8721 47.0154V36.1808C84.8721 34.7828 85.5304 34.2148 86.4961 34.2148C87.4178 34.2148 88.12 34.7828 88.12 36.1808V45.399Z" fill="#377044"/>
<path d="M100.812 45.4953C101.954 45.4953 102.919 45.1021 103.665 44.3594C104.368 43.573 104.763 42.5682 104.763 41.3012C104.763 40.0343 104.368 39.0295 103.665 38.2431C102.919 37.4567 101.954 37.0635 100.812 37.0635C99.6274 37.0635 98.6618 37.4567 97.9595 38.2431C97.2573 39.0295 96.8622 40.0343 96.8622 41.3012C96.8622 42.5682 97.2573 43.573 97.9595 44.3594C98.6618 45.1021 99.6274 45.4953 100.812 45.4953ZM100.812 48.7282C98.7057 48.7282 96.95 48.0292 95.5455 46.6749C94.141 45.2768 93.4387 43.4856 93.4387 41.3012C93.4387 39.1168 94.141 37.3256 95.5455 35.9713C96.95 34.617 98.7496 33.918 100.812 33.918C102.875 33.918 104.675 34.617 106.079 36.015C107.484 37.3693 108.186 39.1168 108.186 41.3012C108.186 43.4856 107.484 45.2768 106.079 46.6749C104.675 48.0292 102.919 48.7282 100.812 48.7282Z" fill="#377044"/>
</svg>
