<svg width="118" height="103" viewBox="0 0 118 103" fill="none" xmlns="http://www.w3.org/2000/svg">
<path fill-rule="evenodd" clip-rule="evenodd" d="M31.1215 30.2196C36.3446 30.2633 40.8215 33.3652 42.7088 38.2145C44.5523 42.9765 43.4111 48.1317 39.417 51.5394C36.7396 53.8111 35.5984 56.6509 35.2473 60.0148C34.8523 63.4225 31.9555 66.0875 28.6636 66.1312C25.1962 66.1748 22.2555 63.7283 21.6849 60.2333C21.641 59.9275 21.5093 59.5343 21.641 59.2721C21.8166 58.9226 22.2116 58.3984 22.4749 58.3984C22.87 58.3984 23.3528 58.7479 23.5722 59.0974C23.7917 59.4032 23.7039 59.8838 23.7917 60.277C24.2745 62.5487 26.3813 64.2089 28.6197 64.0778C31.0337 63.9904 32.965 62.1556 33.2722 59.7964C33.36 58.7916 33.5356 57.8304 33.755 56.8256C34.2817 54.248 35.6862 52.151 37.7052 50.4472C39.7681 48.787 40.9093 46.6463 41.3482 44.025C42.2699 38.6951 38.2319 33.1467 32.8333 32.404C29.1903 31.9235 26.074 32.8846 23.5283 35.6369C23.0894 36.1175 22.6505 36.5107 22.036 35.8991C21.4654 35.3748 21.5532 34.8069 22.036 34.2389C23.9672 31.7487 27.5224 30.1759 31.1215 30.2196Z" fill="#F58B71"/>
<path fill-rule="evenodd" clip-rule="evenodd" d="M31.1215 30.2196C36.3446 30.2633 40.8215 33.3652 42.7088 38.2145C44.5523 42.9765 43.4111 48.1317 39.417 51.5394C36.7396 53.8111 35.5984 56.6509 35.2473 60.0148C34.8523 63.4225 31.9555 66.0875 28.6636 66.1312C25.1962 66.1748 22.2555 63.7283 21.6849 60.2333C21.641 59.9275 21.5093 59.5343 21.641 59.2721C21.8166 58.9226 22.2116 58.3984 22.4749 58.3984C22.87 58.3984 23.3528 58.7479 23.5722 59.0974C23.7917 59.4032 23.7039 59.8838 23.7917 60.277C24.2745 62.5487 26.3813 64.2089 28.6197 64.0778C31.0337 63.9904 32.965 62.1556 33.2722 59.7964C33.36 58.7916 33.5356 57.8304 33.755 56.8256C34.2817 54.248 35.6862 52.151 37.7052 50.4472C39.7681 48.787 40.9093 46.6463 41.3482 44.025C42.2699 38.6951 38.2319 33.1467 32.8333 32.404C29.1903 31.9235 26.074 32.8846 23.5283 35.6369C23.0894 36.1175 22.6505 36.5107 22.036 35.8991C21.4654 35.3748 21.5532 34.8069 22.036 34.2389C23.9672 31.7487 27.5224 30.1759 31.1215 30.2196Z" stroke="#F58B71" stroke-width="0.0135276"/>
<path fill-rule="evenodd" clip-rule="evenodd" d="M31.0222 49.8961C31.0222 48.4981 31.2856 47.9739 32.0317 48.0175C33.3046 48.1049 32.9973 49.1097 33.0851 49.8524C33.3484 52.9543 31.3294 55.794 28.5643 56.4056C27.072 56.6678 25.7991 56.3619 24.8335 55.2697C23.824 54.0465 23.5607 52.6485 24.219 51.2505C24.6141 50.3767 25.2285 49.5903 25.8869 48.935C26.9842 47.7991 27.072 47.537 26.1503 46.2263C25.9747 45.9205 25.7552 45.6147 25.5358 45.3526C23.6046 43.1245 24.1752 40.7217 25.5358 38.7557C27.7742 35.4354 32.6023 34.8238 35.6747 37.4014C38.6593 39.9353 38.8788 44.7409 36.0258 47.537C35.7625 47.7991 35.4113 48.1049 35.0602 48.1049C34.753 48.1486 34.1824 47.8428 34.1385 47.537C34.0068 47.1875 34.1385 46.6195 34.4018 46.3574C35.4113 45.2652 36.0697 44.0419 36.0697 42.5129C36.0258 40.1974 34.1824 38.1441 31.8122 37.8382C29.7055 37.5761 27.1598 39.1926 26.5453 41.1585C26.238 42.1197 26.4136 42.9497 26.9842 43.7361C27.467 44.4788 27.9937 45.1778 28.4326 45.9642C29.1349 47.2312 29.0032 48.4544 28.0376 49.5466C27.5548 50.0709 27.072 50.5514 26.5892 51.1194C25.843 51.9495 25.7552 53.129 26.3258 53.828C26.8964 54.5271 28.0376 54.6144 29.091 54.0028C30.3199 53.3038 31.0661 51.7747 31.0222 49.8961Z" fill="#F58B71"/>
<path fill-rule="evenodd" clip-rule="evenodd" d="M31.0222 49.8961C31.0222 48.4981 31.2856 47.9739 32.0317 48.0175C33.3046 48.1049 32.9973 49.1097 33.0851 49.8524C33.3484 52.9543 31.3294 55.794 28.5643 56.4056C27.072 56.6678 25.7991 56.3619 24.8335 55.2697C23.824 54.0465 23.5607 52.6485 24.219 51.2505C24.6141 50.3767 25.2285 49.5903 25.8869 48.935C26.9842 47.7991 27.072 47.537 26.1503 46.2263C25.9747 45.9205 25.7552 45.6147 25.5358 45.3526C23.6046 43.1245 24.1752 40.7217 25.5358 38.7557C27.7742 35.4354 32.6023 34.8238 35.6747 37.4014C38.6593 39.9353 38.8788 44.7409 36.0258 47.537C35.7625 47.7991 35.4113 48.1049 35.0602 48.1049C34.753 48.1486 34.1824 47.8428 34.1385 47.537C34.0068 47.1875 34.1385 46.6195 34.4018 46.3574C35.4113 45.2652 36.0697 44.0419 36.0697 42.5129C36.0258 40.1974 34.1824 38.1441 31.8122 37.8382C29.7055 37.5761 27.1598 39.1926 26.5453 41.1585C26.238 42.1197 26.4136 42.9497 26.9842 43.7361C27.467 44.4788 27.9937 45.1778 28.4326 45.9642C29.1349 47.2312 29.0032 48.4544 28.0376 49.5466C27.5548 50.0709 27.072 50.5514 26.5892 51.1194C25.843 51.9495 25.7552 53.129 26.3258 53.828C26.8964 54.5271 28.0376 54.6144 29.091 54.0028C30.3199 53.3038 31.0661 51.7747 31.0222 49.8961Z" stroke="#F58B71" stroke-width="0.0135276"/>
<path fill-rule="evenodd" clip-rule="evenodd" d="M53.4576 53.5061C53.4576 59.2729 49.5513 64.2097 43.8893 65.3892C42.9236 65.6077 41.8703 65.6077 40.8607 65.4766C40.5096 65.4329 40.0268 64.8213 39.939 64.4281C39.8512 63.8165 40.3341 63.5543 40.9924 63.5543C48.7173 63.3359 53.1942 56.9138 50.7802 49.4868C50.5608 48.7441 50.2096 48.0451 49.9024 47.3461C49.639 46.6908 49.7268 46.1665 50.3852 45.817C51.0875 45.5112 51.5264 45.8607 51.7897 46.516C52.8431 48.7004 53.5015 51.0159 53.4576 53.5061Z" fill="#F58B71"/>
<path fill-rule="evenodd" clip-rule="evenodd" d="M53.4576 53.5061C53.4576 59.2729 49.5513 64.2097 43.8893 65.3892C42.9236 65.6077 41.8703 65.6077 40.8607 65.4766C40.5096 65.4329 40.0268 64.8213 39.939 64.4281C39.8512 63.8165 40.3341 63.5543 40.9924 63.5543C48.7173 63.3359 53.1942 56.9138 50.7802 49.4868C50.5608 48.7441 50.2096 48.0451 49.9024 47.3461C49.639 46.6908 49.7268 46.1665 50.3852 45.817C51.0875 45.5112 51.5264 45.8607 51.7897 46.516C52.8431 48.7004 53.5015 51.0159 53.4576 53.5061Z" stroke="#F58B71" stroke-width="0.0135276"/>
<path fill-rule="evenodd" clip-rule="evenodd" d="M49.3301 53.0145C49.2424 57.7765 45.2483 61.5337 40.5958 61.1405C39.8936 61.0968 39.4985 60.7036 39.4985 60.092C39.4985 59.4804 39.8936 59.1309 40.5519 59.1309C41.2542 59.0872 42.0003 59.0435 42.7026 58.825C46.17 57.9513 47.8378 54.6747 46.7845 50.9612C46.6528 50.5243 46.4772 50.1311 46.3017 49.6942C46.0822 48.9952 46.2139 48.4273 46.96 48.1215C47.7062 47.8594 48.0573 48.3836 48.2329 48.9079C48.6279 50.2622 48.9351 51.6602 49.3301 53.0145Z" fill="#F58B71"/>
<path fill-rule="evenodd" clip-rule="evenodd" d="M49.3301 53.0145C49.2424 57.7765 45.2483 61.5337 40.5958 61.1405C39.8936 61.0968 39.4985 60.7036 39.4985 60.092C39.4985 59.4804 39.8936 59.1309 40.5519 59.1309C41.2542 59.0872 42.0003 59.0435 42.7026 58.825C46.17 57.9513 47.8378 54.6747 46.7845 50.9612C46.6528 50.5243 46.4772 50.1311 46.3017 49.6942C46.0822 48.9952 46.2139 48.4273 46.96 48.1215C47.7062 47.8594 48.0573 48.3836 48.2329 48.9079C48.6279 50.2622 48.9351 51.6602 49.3301 53.0145Z" stroke="#F58B71" stroke-width="0.0135276"/>
<path fill-rule="evenodd" clip-rule="evenodd" d="M44.6338 53.1786C44.5022 55.3193 42.7904 56.9795 40.7714 56.9795C40.0252 56.9795 39.5424 56.63 39.4985 55.8873C39.4985 55.1883 39.9813 54.9698 40.6397 54.9262C42.3515 54.7514 42.9221 53.7903 42.132 52.2612C41.8248 51.6059 41.8248 51.1253 42.5271 50.7758C43.1854 50.3826 43.7121 50.7321 43.9755 51.3437C44.2827 51.9117 44.4144 52.567 44.6338 53.1786Z" fill="#F58B71"/>
<path fill-rule="evenodd" clip-rule="evenodd" d="M44.6338 53.1786C44.5022 55.3193 42.7904 56.9795 40.7714 56.9795C40.0252 56.9795 39.5424 56.63 39.4985 55.8873C39.4985 55.1883 39.9813 54.9698 40.6397 54.9262C42.3515 54.7514 42.9221 53.7903 42.132 52.2612C41.8248 51.6059 41.8248 51.1253 42.5271 50.7758C43.1854 50.3826 43.7121 50.7321 43.9755 51.3437C44.2827 51.9117 44.4144 52.567 44.6338 53.1786Z" stroke="#F58B71" stroke-width="0.0135276"/>
<path fill-rule="evenodd" clip-rule="evenodd" d="M39.2142 90.915C45.0061 93.1169 51.3417 94.3307 57.9795 94.3307C66.1872 94.3307 73.956 92.4521 80.803 89.1755C72.4198 95.4665 62.0175 99.2237 50.7375 99.2237C44.3075 99.2237 38.1627 98.0121 32.5208 95.8063L39.2142 90.915ZM25.1898 82.8283C14.7815 74.3207 8.20685 61.8359 8.20685 47.934C8.20685 22.3329 30.5036 1.53741 57.9795 1.53741C59.9985 1.53741 62.0175 1.66847 63.9927 1.88691C59.7791 0.707335 55.3022 0.0957031 50.7375 0.0957031C23.2177 0.0957031 0.920898 22.2892 0.920898 49.6816C0.920898 67.1308 9.99752 82.4815 23.7162 91.3083L25.1898 82.8283Z" fill="#F47D5C"/>
<path d="M29.2453 79.708L22.3105 102.164L40.657 85.2127L29.2453 79.708Z" fill="#377044"/>
<path fill-rule="evenodd" clip-rule="evenodd" d="M16.5832 48.7445C16.5832 69.8458 33.7447 86.9278 54.9442 86.9278C69.5304 86.9278 82.2388 78.8075 88.7249 66.8483H93.4466C86.6193 81.2007 71.9301 91.1219 54.9442 91.1219C31.4184 91.1219 12.3696 72.1613 12.3696 48.7445C12.3696 25.3278 31.4184 6.36719 54.9442 6.36719C70.0307 6.36719 83.3055 14.1936 90.8692 26H85.7553C78.7592 16.6294 67.5533 10.5612 54.9442 10.5612C33.7447 10.5612 16.5832 27.6432 16.5832 48.7445Z" fill="#377044"/>
<path d="M71.735 48.0506C71.6034 48.0943 71.4278 48.138 71.2084 48.1817C71.0328 48.2254 70.7694 48.2254 70.4183 48.2254C69.9355 48.2254 69.5405 48.138 69.2332 47.9633C68.926 47.7885 68.7943 47.439 68.7943 46.9147V42.8081C68.5749 42.8518 68.3993 42.8954 68.136 42.8954C67.9165 42.8954 67.697 42.8954 67.3898 42.8954C66.9948 42.8954 66.5998 42.8954 66.2047 42.8081C65.8097 42.7207 65.5025 42.6333 65.1952 42.5023C64.888 42.8081 64.5369 43.0265 64.1418 43.2013C63.7029 43.376 63.264 43.5071 62.7812 43.5945C63.1323 44.1624 63.5713 44.6867 64.1418 45.1235C64.7124 45.6041 65.4147 45.9099 66.2486 46.041C66.3364 46.3031 66.3803 46.5216 66.3803 46.7837C66.3803 47.2206 66.2486 47.6138 65.9414 47.9196C65.678 48.2254 65.2391 48.3564 64.6685 48.3564C64.1857 48.3564 63.7029 48.2254 63.264 48.0069C62.8251 47.7885 62.3862 47.439 62.0351 47.0458C61.6839 46.6089 61.3328 46.1284 61.0695 45.5604C60.7622 44.9925 60.5428 44.3808 60.3672 43.7255H60.06C59.7088 43.7255 59.4455 43.6381 59.1821 43.4634C58.9188 43.245 58.7871 42.9391 58.7871 42.5023C58.7871 42.2401 58.7871 42.0217 58.831 41.8469C58.9188 41.6285 58.9627 41.4974 59.0505 41.3664H61.2889C61.9034 41.3664 62.3862 41.1916 62.7373 40.8858C63.1323 40.58 63.3079 40.1431 63.3079 39.5315C63.3079 39.0072 63.1323 38.614 62.869 38.2645C62.6057 37.9587 62.1667 37.784 61.5962 37.784C61.2889 37.784 60.9817 37.8276 60.7183 37.9587C60.455 38.0461 60.1916 38.1771 60.0161 38.2645C59.7966 38.1335 59.621 37.9587 59.4894 37.7403C59.3577 37.5218 59.2699 37.3034 59.2699 37.0849C59.2699 36.7791 59.3577 36.517 59.4894 36.2986C59.621 36.1238 59.8405 35.9491 60.06 35.7743C60.3233 35.6432 60.5867 35.5559 60.8939 35.5122C61.245 35.4248 61.5962 35.4248 61.9473 35.4248C62.6057 35.4248 63.2201 35.5122 63.7468 35.6869C64.3174 35.9054 64.7563 36.1675 65.1513 36.517C65.5464 36.8665 65.8536 37.3034 66.0292 37.8276C66.2486 38.3519 66.3364 38.9635 66.3364 39.6189C66.3364 39.9247 66.3364 40.1868 66.2925 40.4489C66.4681 40.4926 66.6437 40.4926 66.8192 40.5363C67.0387 40.5363 67.2142 40.5363 67.4337 40.5363C67.697 40.5363 67.9604 40.5363 68.1798 40.4926C68.3993 40.4926 68.5749 40.4489 68.7943 40.3615V35.7743C68.926 35.7306 69.1455 35.6869 69.3649 35.6432C69.6283 35.5996 69.8916 35.5996 70.155 35.5996C70.6817 35.5996 71.0767 35.6869 71.34 35.8617C71.6034 36.0801 71.735 36.3859 71.735 36.8665V48.0506Z" fill="#377044"/>
<path d="M77.5526 48.0357C77.377 48.1231 77.2015 48.1668 76.9381 48.1668C76.6748 48.2105 76.4114 48.2105 76.192 48.2105C75.6653 48.2105 75.2703 48.1231 75.0069 47.9484C74.6997 47.7736 74.568 47.4241 74.568 46.9435V35.7594C74.7436 35.672 74.9192 35.6284 75.1825 35.6284C75.4019 35.5847 75.6653 35.5847 75.9286 35.5847C76.4553 35.5847 76.8503 35.672 77.1137 35.8468C77.4209 36.0652 77.5526 36.371 77.5526 36.8516V48.0357ZM74.3047 32.3081C74.3047 31.8275 74.4364 31.4343 74.7875 31.0848C75.0947 30.7353 75.5336 30.5605 76.0603 30.5605C76.3236 30.5605 76.5431 30.6042 76.7625 30.7353C76.982 30.8227 77.1576 30.9537 77.3331 31.1285C77.4648 31.3032 77.5965 31.478 77.6842 31.6964C77.772 31.8712 77.8159 32.0896 77.8159 32.3081C77.8159 32.7886 77.6404 33.1818 77.2892 33.5313C76.982 33.8371 76.587 34.0119 76.0603 34.0119C75.5336 34.0119 75.0947 33.8371 74.7875 33.5313C74.4364 33.1818 74.3047 32.7886 74.3047 32.3081Z" fill="#377044"/>
<path d="M92.5167 40.8421V35.7743C92.6923 35.7306 92.8679 35.6869 93.1312 35.6432C93.3507 35.5996 93.614 35.5996 93.8774 35.5996C94.4041 35.5996 94.7991 35.6869 95.0624 35.9054C95.3697 36.0801 95.5013 36.4296 95.5013 36.8665V48.0506C95.3258 48.0943 95.1502 48.138 94.9746 48.1817C94.7552 48.2254 94.4918 48.2254 94.1846 48.2254C93.6579 48.2254 93.2629 48.138 92.9556 47.9633C92.6484 47.7885 92.5167 47.439 92.5167 46.9147V43.2013H89.6638C89.576 43.8129 89.3126 44.2935 88.8737 44.643C88.4787 44.9488 87.9081 45.1235 87.2497 45.1235C86.5475 45.1235 85.9769 44.9488 85.6258 44.5556C85.2307 44.2061 85.0552 43.7692 85.0552 43.245C85.0552 42.9828 85.0552 42.7644 85.143 42.5896C85.1868 42.3712 85.2307 42.1964 85.3185 42.0217H85.8891C86.5036 42.0217 86.8108 41.6722 86.8108 41.0169V39.5315C86.8108 39.0072 86.6792 38.5703 86.4158 38.2645C86.1525 37.9587 85.8013 37.8276 85.3185 37.8276C85.0113 37.8276 84.704 37.8713 84.4407 38.0461C84.1334 38.1771 83.914 38.4393 83.6945 38.7451C83.4751 39.0509 83.2995 39.4441 83.1678 39.9247C83.0362 40.4489 82.9923 41.0169 82.9923 41.7159C82.9923 42.3712 83.0362 42.9828 83.1678 43.5071C83.2995 44.0313 83.519 44.5119 83.7384 44.9051C83.9579 45.342 84.2651 45.6915 84.5285 45.9973C84.8357 46.3031 85.1868 46.5652 85.4941 46.7837C85.4941 47.2642 85.3185 47.6138 85.0552 47.9196C84.7918 48.1817 84.3968 48.3564 83.914 48.3564C83.4312 48.3564 82.9484 48.1817 82.4656 47.8322C81.9828 47.4827 81.5439 47.0458 81.1927 46.4342C80.7977 45.8225 80.4905 45.1235 80.271 44.3372C80.0077 43.5071 79.876 42.6333 79.876 41.7159C79.876 40.6674 80.0077 39.7499 80.271 38.9635C80.5343 38.1771 80.9294 37.5218 81.3683 36.9976C81.8511 36.4733 82.4217 36.0801 83.1239 35.818C83.7823 35.5559 84.5285 35.4248 85.3185 35.4248C86.7669 35.4248 87.8642 35.7743 88.6104 36.517C89.4004 37.2597 89.7516 38.2645 89.7516 39.4878V40.8421H92.5167Z" fill="#377044"/>
<path d="M108.983 39.5315C108.983 38.9198 108.851 38.5267 108.632 38.3082C108.412 38.0898 108.149 38.0024 107.842 38.0024C107.534 38.0024 107.271 38.1335 107.052 38.3519C106.832 38.614 106.744 39.0072 106.744 39.5315C106.744 40.012 106.744 40.5363 106.788 41.0606C106.832 41.5848 106.832 42.1091 106.832 42.5896C106.832 43.245 106.744 43.8129 106.525 44.2935C106.305 44.774 105.998 45.1672 105.603 45.473C105.208 45.7789 104.769 45.9973 104.243 46.1284C103.716 46.2594 103.189 46.3468 102.575 46.3468C101.96 46.3468 101.346 46.2594 100.775 46.041C100.205 45.8662 99.6779 45.5604 99.239 45.1235C98.8001 44.6867 98.449 44.1187 98.1856 43.4197C97.9661 42.7644 97.8345 41.8906 97.8345 40.9295C97.8345 40.2742 97.8784 39.6625 98.01 39.1383C98.1417 38.5703 98.2734 38.0898 98.4928 37.6529C98.7123 37.1723 98.9318 36.8228 99.1951 36.4733C99.4585 36.1675 99.7218 35.9054 99.9851 35.7306C100.205 35.5996 100.38 35.5122 100.556 35.4685C100.775 35.4248 100.951 35.4248 101.126 35.4248C101.609 35.4248 101.96 35.5559 102.224 35.818C102.487 36.0801 102.663 36.3859 102.706 36.7791C102.224 37.1723 101.785 37.6966 101.434 38.4393C101.082 39.182 100.907 40.0557 100.907 41.0606C100.907 42.0654 101.039 42.7644 101.39 43.245C101.697 43.6818 102.092 43.9003 102.619 43.9003C102.97 43.9003 103.277 43.7692 103.496 43.5508C103.716 43.3323 103.848 42.9828 103.848 42.5023C103.848 42.0654 103.848 41.5848 103.804 41.0606C103.76 40.5363 103.76 40.012 103.76 39.4878C103.76 38.8325 103.848 38.3082 104.067 37.8276C104.243 37.3471 104.506 36.9102 104.901 36.6044C105.252 36.2549 105.647 36.0364 106.174 35.8617C106.657 35.6869 107.183 35.5996 107.798 35.5996C108.412 35.5996 108.939 35.6869 109.466 35.818C109.948 35.9927 110.387 36.2112 110.782 36.5607C111.134 36.9102 111.441 37.3034 111.66 37.784C111.836 38.2645 111.967 38.8325 111.967 39.4878V48.0506C111.792 48.138 111.572 48.1817 111.309 48.1817C111.09 48.2254 110.826 48.2254 110.607 48.2254C110.08 48.2254 109.685 48.138 109.378 47.9633C109.115 47.7885 108.983 47.439 108.983 46.9584V39.5315Z" fill="#377044"/>
<path d="M117.769 48.061C117.638 48.1484 117.418 48.1921 117.155 48.1921C116.891 48.2358 116.628 48.2358 116.409 48.2358C115.882 48.2358 115.487 48.1484 115.224 47.9737C114.96 47.7989 114.785 47.4494 114.785 46.9688V35.7847C114.96 35.6973 115.136 35.6536 115.399 35.6536C115.619 35.6099 115.882 35.6099 116.145 35.6099C116.672 35.6099 117.067 35.6973 117.374 35.8721C117.638 36.0905 117.769 36.3963 117.769 36.8769V48.061ZM112.151 29.4062C112.371 29.4062 112.546 29.4499 112.722 29.4936C112.897 29.4936 113.073 29.581 113.292 29.6684C113.468 29.7994 113.687 29.9305 113.951 30.1489C114.17 30.3237 114.477 30.5858 114.785 30.848L117.462 33.3819C117.418 33.7751 117.286 34.1246 117.067 34.3867C116.848 34.6925 116.54 34.8236 116.101 34.8236C116.014 34.8236 115.882 34.7799 115.75 34.7799C115.619 34.7362 115.443 34.6488 115.267 34.5614C115.092 34.4741 114.872 34.343 114.565 34.1682C114.302 33.9935 113.951 33.7751 113.556 33.5129L110.396 31.3285C110.483 30.7169 110.659 30.28 110.966 29.9305C111.229 29.581 111.668 29.4062 112.151 29.4062Z" fill="#377044"/>
<path d="M74.4541 59.5327C74.3225 59.5327 74.1469 59.5327 74.0591 59.5764C73.9274 59.6201 73.7958 59.7074 73.708 59.7948C73.5763 59.8822 73.4885 59.9696 73.4446 60.1443C73.3568 60.2754 73.3568 60.4064 73.3568 60.5812C73.3568 61.0181 73.4885 61.3239 73.8396 61.5423C74.1469 61.7608 74.5858 61.8918 75.1125 61.8918C75.6831 61.8918 76.2098 61.7171 76.5609 61.3239C76.9121 60.9744 77.1315 60.4064 77.1315 59.6201C77.1315 59.1395 77.0876 58.6589 76.9559 58.1784C76.8682 57.7415 76.7804 57.2609 76.6487 56.824C76.5609 56.3871 76.4292 55.9503 76.3415 55.5134C76.2537 55.0765 76.2098 54.6396 76.2098 54.2027C76.2098 53.8532 76.2537 53.5474 76.3415 53.2853C76.4292 53.0669 76.6048 52.8484 76.7365 52.6737C76.9121 52.4989 77.1315 52.3679 77.351 52.2805C77.5704 52.1931 77.8338 52.1494 78.0532 52.1494C78.3605 52.1494 78.6238 52.2368 78.7994 52.3679C78.975 52.5426 79.1066 52.7174 79.1066 52.9795C79.1066 53.1105 79.0627 53.1979 79.0627 53.2853C79.0188 53.3727 78.975 53.4601 78.9311 53.5474C78.8872 53.5037 78.8433 53.5037 78.7994 53.5037C78.7116 53.4601 78.6238 53.4601 78.536 53.4601C78.0532 53.4601 77.8338 53.7659 77.8338 54.3338C77.8338 54.6833 77.8777 55.0765 77.9654 55.4697C78.0532 55.9066 78.1849 56.3435 78.2727 56.7803C78.4044 57.2609 78.536 57.7415 78.6238 58.222C78.7116 58.7026 78.7994 59.1832 78.7994 59.6637C78.7994 60.2317 78.7116 60.7123 78.536 61.1491C78.3605 61.586 78.141 61.9355 77.8338 62.2413C77.4826 62.5471 77.1315 62.8093 76.6487 62.9403C76.1659 63.1151 75.6392 63.2025 75.0686 63.2025C74.5419 63.2025 74.103 63.1588 73.6641 63.0277C73.2691 62.9403 72.9179 62.7656 72.6107 62.5471C72.3473 62.3287 72.084 62.0666 71.9523 61.7608C71.7767 61.4113 71.689 61.0618 71.689 60.6686C71.689 60.2754 71.7767 59.9259 71.9523 59.6201C72.1279 59.2706 72.4351 59.0084 72.874 58.8337C72.5229 58.6589 72.2596 58.4405 72.0401 58.1784C71.8206 57.8725 71.7329 57.4793 71.7329 57.0862C71.7329 56.7803 71.7767 56.4745 71.9084 56.2124C71.9962 55.9503 72.1718 55.7318 72.3912 55.5134C72.5668 55.3386 72.8301 55.1639 73.1374 55.0765C73.4446 54.9454 73.7958 54.9018 74.1469 54.9018C74.6297 54.9018 74.9808 54.9454 75.2003 55.1202C75.4197 55.2513 75.5514 55.4697 75.5514 55.7318C75.5514 55.8629 75.5075 55.9503 75.4636 56.0813C75.4197 56.1687 75.3759 56.2561 75.332 56.2998C75.2442 56.2998 75.1564 56.2561 75.0247 56.2561C74.893 56.2124 74.7614 56.2124 74.5858 56.2124C74.2347 56.2124 73.9713 56.2998 73.7519 56.4308C73.4885 56.6056 73.3568 56.8677 73.3568 57.2172C73.3568 57.5667 73.4885 57.8288 73.6641 58.0036C73.8835 58.1784 74.103 58.2657 74.4102 58.2657H75.4197C75.4636 58.3094 75.5075 58.3968 75.5514 58.5279C75.5514 58.6152 75.5953 58.7463 75.5953 58.8774C75.5953 59.0521 75.5514 59.1832 75.5514 59.2706C75.5075 59.3579 75.4636 59.4453 75.4197 59.5327H74.4541Z" fill="#373435"/>
<path d="M82.0147 63.0853C81.9269 63.0853 81.8391 63.129 81.7074 63.129C81.5757 63.1727 81.4441 63.1727 81.3124 63.1727C81.049 63.1727 80.8296 63.129 80.654 62.998C80.5224 62.9106 80.4346 62.7358 80.4346 62.4737V55.1778C80.4346 53.9545 80.8296 53.0371 81.5757 52.3818C82.3658 51.7265 83.507 51.377 85.0432 51.377C85.7454 51.377 86.4477 51.4643 87.1061 51.5517C87.7644 51.6828 88.335 51.8138 88.8617 51.9886C89.4323 52.1196 89.8712 52.2944 90.2662 52.5128C90.6613 52.6876 90.9685 52.8623 91.188 53.0371C91.4074 53.1245 91.5391 53.2555 91.6269 53.3866C91.7147 53.474 91.7585 53.605 91.7585 53.7798C91.7585 53.9109 91.6708 54.0856 91.5391 54.2167C91.4074 54.3477 91.2757 54.4351 91.0563 54.5225C90.7052 54.304 90.3101 54.0856 89.8712 53.8672C89.4323 53.6487 88.9934 53.4303 88.4667 53.2555C87.94 53.1245 87.4133 52.9497 86.8427 52.8623C86.2721 52.775 85.6576 52.6876 85.0432 52.6876C84.0776 52.6876 83.3314 52.9497 82.8047 53.3866C82.278 53.8672 82.0147 54.5662 82.0147 55.4836V63.0853Z" fill="#373435"/>
<path d="M88.4788 57.3516C88.6543 57.3516 88.8299 57.4389 88.9616 57.5263C89.0932 57.6574 89.181 57.8321 89.181 58.0943C89.181 58.2253 89.181 58.3564 89.1371 58.4438C89.0932 58.5311 89.0932 58.6185 89.0494 58.7059H85.977C85.8014 58.7059 85.6258 58.7496 85.538 58.8806C85.4503 59.0117 85.4064 59.1865 85.4064 59.4486V60.1476C85.3625 60.235 85.2308 60.2787 85.143 60.2787C85.0113 60.3223 84.8797 60.366 84.7041 60.366C84.3969 60.366 84.1335 60.235 83.8702 60.0165C83.6507 59.7981 83.519 59.4923 83.519 59.0117C83.519 57.9195 84.1335 57.3516 85.4064 57.3516H88.4788Z" fill="#373435"/>
<path d="M89.2146 60.4693C89.2585 60.9061 89.434 61.2557 89.7413 61.5178C90.0046 61.7799 90.3997 61.911 90.8386 61.911C91.2336 61.911 91.5408 61.7799 91.8042 61.6052C92.0236 61.3867 92.1553 61.1246 92.1553 60.7751C92.1553 60.4693 92.0675 60.2071 91.8481 59.9887C91.6725 59.7703 91.3214 59.5955 90.7947 59.4644L90.268 59.2897C89.6096 59.1149 89.039 58.8528 88.6879 58.5033C88.2929 58.1538 88.1173 57.7169 88.1173 57.1053C88.1173 56.45 88.3368 55.9257 88.8635 55.4888C89.3901 55.0957 90.0924 54.9209 91.0141 54.9209C91.6286 54.9209 92.1553 55.0083 92.5942 55.183C92.9892 55.4015 93.2087 55.6199 93.2087 55.9694C93.2087 56.2315 93.077 56.45 92.8576 56.6247C92.6381 56.5374 92.3748 56.45 92.0675 56.3626C91.7603 56.2752 91.453 56.2315 91.1458 56.2315C90.7508 56.2315 90.4435 56.3189 90.1802 56.45C89.9168 56.581 89.7413 56.7995 89.7413 57.1053C89.7413 57.3674 89.873 57.5422 90.0485 57.6732C90.2241 57.8043 90.5313 57.8917 90.9263 58.0227L91.2336 58.1101C91.6725 58.2412 92.0675 58.3722 92.4187 58.547C92.7259 58.6781 92.9892 58.8528 93.2087 59.0713C93.4282 59.2897 93.5598 59.5518 93.6915 59.814C93.7793 60.0761 93.8232 60.3819 93.8232 60.7751C93.8232 61.1683 93.7354 61.5178 93.6037 61.8236C93.4282 62.1294 93.2526 62.3915 92.9454 62.61C92.682 62.7847 92.3748 62.9595 92.0236 63.0469C91.6286 63.1779 91.2336 63.2216 90.8386 63.2216C90.3558 63.2216 89.9607 63.1779 89.5657 63.0469C89.2146 62.9595 88.9073 62.7847 88.644 62.61C88.3806 62.4352 88.1612 62.2168 88.0295 61.9547C87.8978 61.6925 87.8101 61.4304 87.8101 61.1683C87.8101 60.9061 87.8978 60.6877 88.0734 60.5566C88.249 60.4256 88.4684 60.3819 88.7318 60.3819C88.8196 60.3819 88.9073 60.3819 88.9951 60.3819C89.0829 60.4256 89.1707 60.4256 89.2146 60.4693Z" fill="#373435"/>
<path d="M101.946 63.0469C101.902 63.0905 101.77 63.0905 101.683 63.1342C101.595 63.1779 101.463 63.1779 101.288 63.1779C100.98 63.1779 100.761 63.1342 100.585 63.0032C100.454 62.9158 100.366 62.741 100.366 62.4352V61.1683C100.146 61.343 99.883 61.4304 99.5758 61.5178C99.2686 61.6052 98.8735 61.6488 98.4346 61.6488C97.7763 61.6488 97.1179 61.5178 96.5912 61.212C96.0206 60.9062 95.5817 60.4693 95.2745 59.945C95.1867 59.7703 95.0989 59.5518 95.0111 59.3771C94.9672 59.1586 94.9233 58.9839 94.9233 58.7654C94.9233 58.6344 94.9672 58.5033 95.055 58.4159C95.1428 58.3286 95.2745 58.2849 95.45 58.2412L95.9767 58.1101C96.3717 58.0227 96.679 57.8917 96.8984 57.7169C97.1179 57.5859 97.2057 57.3674 97.2057 57.0616C97.2057 56.7995 97.1179 56.6247 96.9862 56.45C96.8107 56.3189 96.5912 56.2315 96.3279 56.2315C96.1084 56.2315 95.9328 56.2752 95.7573 56.3189C95.6256 56.3626 95.45 56.45 95.3184 56.5374C95.055 56.3189 94.9233 56.1005 94.9233 55.8383C94.9233 55.5762 95.055 55.3578 95.3623 55.183C95.6256 55.0083 95.9767 54.9209 96.5034 54.9209C97.2057 54.9209 97.7763 55.0957 98.2152 55.4888C98.6541 55.882 98.8735 56.4063 98.8735 57.0616C98.8735 57.3674 98.8297 57.6296 98.698 57.8917C98.6102 58.1101 98.4346 58.3286 98.2152 58.5033C98.0396 58.6781 97.7763 58.8528 97.5129 58.9402C97.2496 59.0713 96.9423 59.1586 96.6351 59.2023C96.7668 59.4644 96.9862 59.7266 97.2935 59.9887C97.6446 60.2071 98.0835 60.2945 98.5663 60.2945C99.0491 60.2945 99.4441 60.2508 99.7075 60.0761C100.015 59.945 100.234 59.814 100.366 59.6392V55.1393C100.454 55.0957 100.541 55.052 100.673 55.052C100.805 55.052 100.936 55.0083 101.068 55.0083C101.375 55.0083 101.595 55.0957 101.77 55.183C101.902 55.2704 101.946 55.4452 101.946 55.7073V63.0469Z" fill="#373435"/>
<path d="M105.634 63.0872C105.546 63.0872 105.458 63.1308 105.327 63.1308C105.195 63.1745 105.063 63.1745 104.932 63.1745C104.668 63.1745 104.449 63.1308 104.273 62.9998C104.141 62.9124 104.054 62.7377 104.054 62.4755V55.0923C104.141 55.0923 104.229 55.0486 104.361 55.0486C104.493 55.0486 104.624 55.0049 104.756 55.0049C105.063 55.0049 105.283 55.0923 105.414 55.1796C105.59 55.267 105.634 55.4418 105.634 55.7039V63.0872Z" fill="#373435"/>
</svg>
