<svg width="106" height="103" viewBox="0 0 106 103" fill="none" xmlns="http://www.w3.org/2000/svg">
<path fill-rule="evenodd" clip-rule="evenodd" d="M24.655 22.666C25.05 23.6708 26.674 33.6754 26.1912 34.5928C25.3133 36.384 25.8839 37.8257 27.069 39.1801C27.7713 39.9228 28.5613 40.6218 29.3074 41.4082C29.7464 41.8887 30.2731 42.3693 30.6681 42.8935C32.0287 44.6411 31.6776 45.908 29.6147 46.7381C29.3952 46.8255 29.1758 46.9128 28.9563 47.0002C28.5174 47.2187 28.3418 47.6555 28.5174 48.0924C28.6491 48.3982 28.8246 48.6604 28.9563 48.9662C29.3513 49.8399 29.1758 50.5826 28.3418 51.1069C27.9468 51.3253 27.464 51.5001 27.069 51.6748C26.674 51.8496 26.3228 51.9806 25.9717 52.2865C26.3228 52.3738 26.674 52.4175 27.0251 52.5049C27.5518 52.636 28.1224 52.6797 28.6052 52.8981C29.4391 53.2039 29.6586 53.9029 29.3074 54.6456C29.2636 54.8204 29.1758 54.9514 29.088 55.0825C28.1663 56.2184 28.1663 57.4853 28.6052 58.796C29.0002 60.0192 28.6491 60.8493 27.464 61.4172C25.9278 62.1163 24.2599 62.2036 22.636 62.291C22.1532 62.3347 21.6265 62.291 21.1437 62.291C20.1342 62.3347 19.6953 63.1211 19.4319 63.8638C19.0808 64.956 18.8174 66.0919 18.5541 67.2277C18.4224 67.6209 18.3785 68.0141 17.8079 67.9704C17.3251 67.8831 17.1057 67.5336 17.2373 66.9656C17.5007 65.8734 17.764 64.7812 18.0713 63.689C18.2029 63.2085 18.5102 62.7716 18.7735 62.3347C19.388 61.2425 20.3975 60.9804 21.5826 60.9367C23.031 60.893 24.4794 60.7182 25.9278 60.5435C26.1473 60.4998 26.3667 60.4124 26.5862 60.3687C27.4201 60.0192 27.5079 59.8445 27.2446 58.9707C26.8056 57.398 26.8056 55.8252 27.9029 54.4272C27.9468 54.3835 27.9907 54.2961 28.0346 54.2087C28.0346 54.2087 28.0346 54.165 28.0346 54.034C27.5518 53.9466 27.069 53.9466 26.6301 53.7718C25.9278 53.5534 25.2256 53.2913 24.655 52.9418C24.0405 52.5486 24.0405 51.8933 24.6111 51.4127C25.0061 51.1069 25.5328 50.8884 25.9717 50.67C26.4545 50.4516 26.9373 50.2768 27.4201 50.1021C27.7713 49.971 27.9029 49.7526 27.6835 49.4031C27.5518 49.1846 27.464 48.9662 27.3762 48.7914C26.8056 47.7429 27.2446 46.1701 28.6052 45.6896C28.8246 45.6022 29.088 45.5148 29.3074 45.4274C30.2292 45.0343 30.3608 44.6848 29.7025 43.8984C28.9563 42.9809 28.0785 42.1072 27.2007 41.2334C25.9717 40.0538 24.8305 38.8306 24.4794 37.083C24.3916 36.5588 24.4355 35.9908 24.5233 35.4666C24.6111 34.986 24.8305 34.5491 24.9622 34.1123C25.2256 33.4133 23.6894 23.8019 23.3382 23.1029L24.655 22.666Z" fill="#F58B71" stroke="#F58B71" stroke-width="0.0135276"/>
<path fill-rule="evenodd" clip-rule="evenodd" d="M50.6535 52.3175C50.5657 56.8174 49.0734 60.7493 46.0449 64.0696C45.8694 64.2443 45.7377 64.4191 45.5183 64.5938C45.1232 64.9433 44.6843 64.9433 44.2893 64.5938C43.8943 64.2006 43.8943 63.7201 44.2454 63.3269C44.5965 62.89 45.0354 62.4968 45.3866 62.0599C49.0296 57.2979 49.8196 52.0554 47.7128 46.4633C46.9667 44.5847 45.8694 42.9683 44.5088 41.4829C44.2454 41.2208 44.026 40.7402 44.0698 40.4344C44.1576 39.6917 45.0354 39.5606 45.6499 40.1286C47.1861 41.6576 48.3273 43.4051 49.2051 45.3274C50.1707 47.5555 50.6535 49.9147 50.6535 52.3175Z" fill="#F58B71"/>
<path fill-rule="evenodd" clip-rule="evenodd" d="M50.6535 52.3175C50.5657 56.8174 49.0734 60.7493 46.0449 64.0696C45.8694 64.2443 45.7377 64.4191 45.5183 64.5938C45.1232 64.9433 44.6843 64.9433 44.2893 64.5938C43.8943 64.2006 43.8943 63.7201 44.2454 63.3269C44.5965 62.89 45.0354 62.4968 45.3866 62.0599C49.0296 57.2979 49.8196 52.0554 47.7128 46.4633C46.9667 44.5847 45.8694 42.9683 44.5088 41.4829C44.2454 41.2208 44.026 40.7402 44.0698 40.4344C44.1576 39.6917 45.0354 39.5606 45.6499 40.1286C47.1861 41.6576 48.3273 43.4051 49.2051 45.3274C50.1707 47.5555 50.6535 49.9147 50.6535 52.3175Z" stroke="#F58B71" stroke-width="0.0135276"/>
<path fill-rule="evenodd" clip-rule="evenodd" d="M44.7015 53.5886C44.6576 55.8167 43.4726 58.9186 41.1024 61.5398C41.0146 61.6709 40.9269 61.7583 40.7952 61.8893C40.3563 62.3262 39.8735 62.4573 39.3907 61.9767C38.9079 61.5398 39.0834 61.0593 39.4785 60.6224C40.7074 59.3991 41.673 57.9574 42.1997 56.2536C43.6481 51.8411 42.8581 47.8218 39.7418 44.2394C39.6101 44.1083 39.4346 43.9773 39.3468 43.8025C39.0395 43.4093 38.9956 42.9725 39.3907 42.6229C39.7418 42.3171 40.2246 42.1861 40.6635 42.5793C41.0585 42.9725 41.4536 43.4093 41.8047 43.8462C43.692 46.3364 44.7015 49.1761 44.7015 53.5886Z" fill="#F58B71"/>
<path fill-rule="evenodd" clip-rule="evenodd" d="M44.7015 53.5886C44.6576 55.8167 43.4726 58.9186 41.1024 61.5398C41.0146 61.6709 40.9269 61.7583 40.7952 61.8893C40.3563 62.3262 39.8735 62.4573 39.3907 61.9767C38.9079 61.5398 39.0834 61.0593 39.4785 60.6224C40.7074 59.3991 41.673 57.9574 42.1997 56.2536C43.6481 51.8411 42.8581 47.8218 39.7418 44.2394C39.6101 44.1083 39.4346 43.9773 39.3468 43.8025C39.0395 43.4093 38.9956 42.9725 39.3907 42.6229C39.7418 42.3171 40.2246 42.1861 40.6635 42.5793C41.0585 42.9725 41.4536 43.4093 41.8047 43.8462C43.692 46.3364 44.7015 49.1761 44.7015 53.5886Z" stroke="#F58B71" stroke-width="0.0135276"/>
<path fill-rule="evenodd" clip-rule="evenodd" d="M36.9043 52.1653C36.8604 50.0683 36.0704 48.1897 34.5781 46.5733C33.9636 45.918 34.0514 45.219 34.8414 45.0005C35.1486 44.9131 35.6314 45.0879 35.8509 45.3063C37.9138 47.447 38.8355 50.0246 38.66 52.9517C38.5283 55.3546 37.6066 57.4516 35.9826 59.2428C35.5437 59.6797 35.1048 59.9855 34.4903 59.5049C34.0514 59.1554 34.0953 58.5875 34.6658 57.9758C36.1143 56.3594 36.8604 54.4808 36.9043 52.1653Z" fill="#F58B71"/>
<path fill-rule="evenodd" clip-rule="evenodd" d="M36.9043 52.1653C36.8604 50.0683 36.0704 48.1897 34.5781 46.5733C33.9636 45.918 34.0514 45.219 34.8414 45.0005C35.1486 44.9131 35.6314 45.0879 35.8509 45.3063C37.9138 47.447 38.8355 50.0246 38.66 52.9517C38.5283 55.3546 37.6066 57.4516 35.9826 59.2428C35.5437 59.6797 35.1048 59.9855 34.4903 59.5049C34.0514 59.1554 34.0953 58.5875 34.6658 57.9758C36.1143 56.3594 36.8604 54.4808 36.9043 52.1653Z" stroke="#F58B71" stroke-width="0.0135276"/>
<path fill-rule="evenodd" clip-rule="evenodd" d="M38.5997 90.9194C44.3907 93.1186 50.7277 94.3307 57.3717 94.3307C65.5793 94.3307 73.3481 92.4521 80.1951 89.1755C71.8119 95.4665 61.4097 99.2237 50.1296 99.2237C43.6995 99.2237 37.5546 98.0121 31.9126 95.8062L38.5997 90.9194ZM24.5793 82.8406C14.167 74.3328 7.59894 61.8426 7.59894 47.934C7.59894 22.3329 29.8518 1.53741 57.3717 1.53741C59.3907 1.53741 61.4097 1.66847 63.3848 1.88691C59.1712 0.707335 54.6943 0.0957031 50.1296 0.0957031C22.6098 0.0957031 0.312988 22.2892 0.312988 49.6816C0.312988 67.1306 9.38941 82.4812 23.1078 91.308L24.5793 82.8406Z" fill="#F47D5C"/>
<path d="M28.5882 79.708L21.6973 102.164L40.0438 85.2127L28.5882 79.708Z" fill="#377044"/>
<path fill-rule="evenodd" clip-rule="evenodd" d="M15.9704 48.7445C15.9704 69.8458 33.1319 86.9278 54.3314 86.9278C68.937 86.9278 81.6389 78.7858 88.1041 66.8004H92.8208C86.0161 81.1786 71.3361 91.1219 54.3314 91.1219C30.8057 91.1219 11.7568 72.1613 11.7568 48.7445C11.7568 25.3278 30.8057 6.36719 54.3314 6.36719C69.3975 6.36719 82.6387 14.1725 90.1947 25.9521H85.0786C78.0927 16.6087 66.919 10.5612 54.3314 10.5612C33.1319 10.5612 15.9704 27.6432 15.9704 48.7445Z" fill="#377044"/>
<path d="M72.1729 48.0943C72.0413 48.138 71.8218 48.1817 71.5584 48.2254C71.339 48.2254 71.0756 48.2691 70.8123 48.2691C70.2856 48.2691 69.8906 48.1817 69.6272 47.9632C69.3639 47.7885 69.2322 47.439 69.2322 46.9584V43.2013C69.0128 43.2449 68.7055 43.2886 68.2666 43.2886C68.0471 43.2886 67.8277 43.2886 67.6521 43.2449C67.4327 43.2013 67.2571 43.1576 67.1254 43.1576C66.9938 44.1187 66.5987 44.9051 65.9404 45.3857C65.2381 45.9099 64.3164 46.172 63.1313 46.172C62.473 46.172 61.8585 46.0847 61.2879 45.9099C60.7173 45.6915 60.1906 45.3857 59.7956 44.9925C59.3567 44.5556 59.0055 43.9876 58.7422 43.2886C58.4788 42.5896 58.3472 41.7596 58.3472 40.7547C58.3472 40.1868 58.3911 39.6188 58.5227 39.0946C58.6544 38.5266 58.83 38.0461 59.0055 37.6092C59.225 37.1723 59.4445 36.8228 59.7078 36.4733C59.9711 36.1675 60.2345 35.9054 60.5417 35.7306C60.8929 35.5122 61.244 35.4248 61.639 35.4248C62.0779 35.4248 62.473 35.5559 62.6924 35.9054C62.9558 36.2112 63.0874 36.517 63.0874 36.8665C62.9119 37.0413 62.6924 37.216 62.5168 37.4781C62.2974 37.6966 62.1218 38.0024 61.9463 38.3519C61.8146 38.7014 61.639 39.0946 61.5512 39.5315C61.4635 39.9684 61.4196 40.4489 61.4196 40.9295C61.4196 41.8906 61.5512 42.5896 61.9024 43.0702C62.2096 43.5508 62.6485 43.7692 63.1313 43.7692C63.4825 43.7692 63.7897 43.6818 64.0091 43.4197C64.1847 43.2013 64.3164 42.8954 64.3164 42.4586V38.1771C64.6236 38.0898 65.0625 38.0024 65.5453 38.0024C66.072 38.0024 66.5109 38.1335 66.7743 38.3082C67.0376 38.5266 67.1693 38.8325 67.1693 39.313V40.7547C67.4327 40.8421 67.7838 40.8858 68.1788 40.8858C68.6616 40.8858 68.9689 40.8421 69.2322 40.7547V35.7743C69.4078 35.7306 69.5833 35.6869 69.8467 35.6432C70.0661 35.5996 70.3295 35.5996 70.5928 35.5996C71.0756 35.5996 71.4707 35.6869 71.7779 35.9054C72.0413 36.0801 72.1729 36.4296 72.1729 36.8665V48.0943Z" fill="#377044"/>
<path d="M77.9812 48.1011C77.8056 48.1447 77.63 48.1884 77.3667 48.2321C77.1033 48.2321 76.84 48.2758 76.6205 48.2758C76.0938 48.2758 75.6988 48.1884 75.4355 47.97C75.1282 47.7952 74.9965 47.4457 74.9965 46.9652V35.781C75.1721 35.7374 75.3477 35.6937 75.611 35.65C75.8305 35.6063 76.0938 35.6063 76.3572 35.6063C76.8839 35.6063 77.2789 35.6937 77.5422 35.9121C77.8495 36.0869 77.9812 36.4364 77.9812 36.8732V48.1011ZM72.3631 29.4463C72.5386 29.4463 72.7581 29.4463 72.9337 29.49C73.1092 29.5337 73.2848 29.621 73.5042 29.7084C73.6798 29.7958 73.8993 29.9705 74.1626 30.1453C74.3821 30.32 74.6893 30.5822 74.9965 30.888L77.6739 33.3782C77.63 33.7714 77.4984 34.1209 77.2789 34.4267C77.0594 34.6888 76.7083 34.8199 76.3133 34.8199C76.2255 34.8199 76.0938 34.8199 75.9622 34.7762C75.8305 34.7325 75.6549 34.6888 75.4794 34.6015C75.3038 34.4704 75.0404 34.3393 74.7771 34.1646C74.5137 33.9898 74.1626 33.7714 73.7676 33.5093L70.6074 31.3249C70.6952 30.7569 70.8708 30.2764 71.1341 29.9269C71.4414 29.5774 71.8364 29.4463 72.3631 29.4463Z" fill="#377044"/>
<path d="M80.335 41.7538C80.335 40.7052 80.5105 39.8315 80.8617 39.0451C81.1689 38.2587 81.6078 37.6471 82.1784 37.1228C82.7051 36.6423 83.3196 36.2491 84.0218 35.9869C84.7241 35.7685 85.4264 35.6374 86.1286 35.6374C87.7526 35.6374 88.5426 36.118 88.5426 37.1665C88.5426 37.3413 88.4987 37.5597 88.4549 37.7345C88.3671 37.9092 88.3232 38.084 88.2354 38.1713C88.0598 38.1277 87.8404 38.084 87.6209 38.084C87.4015 38.0403 87.1381 38.0403 86.8748 38.0403C86.392 38.0403 85.953 38.1277 85.5141 38.3024C85.0752 38.4335 84.7241 38.6956 84.4169 39.0014C84.1096 39.3072 83.8463 39.7004 83.6707 40.1373C83.4951 40.5742 83.4074 41.0984 83.4074 41.6664C83.4074 42.278 83.4951 42.846 83.7146 43.3265C83.8902 43.7634 84.1535 44.1566 84.5046 44.5061C84.8119 44.8119 85.2069 45.0304 85.6458 45.2051C86.1286 45.3799 86.6114 45.4672 87.1381 45.4672C87.5331 45.4672 87.8404 45.4235 88.0159 45.3799C88.1915 45.3362 88.411 45.2925 88.5865 45.2488C88.7182 45.3799 88.806 45.5546 88.8938 45.7294C88.9377 45.9478 88.9815 46.1226 88.9815 46.2973C88.9815 46.8216 88.7621 47.2148 88.3671 47.4769C88.0159 47.7827 87.3576 47.9575 86.4797 47.9575C85.7775 47.9575 85.0752 47.8264 84.3291 47.6079C83.5829 47.3458 82.9245 46.9963 82.354 46.4721C81.7395 45.9915 81.2567 45.3362 80.9055 44.5498C80.5105 43.7634 80.335 42.846 80.335 41.7538ZM93.5023 48.0885C93.3268 48.1322 93.1073 48.1759 92.844 48.2196C92.6245 48.2196 92.3612 48.2633 92.0978 48.2633C91.615 48.2633 91.22 48.1759 90.9128 47.9575C90.6494 47.7827 90.5177 47.4332 90.5177 46.9526V42.8896H86.8748C86.4359 42.8896 86.1286 42.8023 85.9092 42.5401C85.6897 42.3217 85.558 41.9722 85.558 41.579C85.558 41.3169 85.6019 41.0547 85.6897 40.88C85.7775 40.6616 85.8214 40.5305 85.9092 40.3994H90.5177V35.7685C90.8689 35.6374 91.3078 35.5938 91.8784 35.5938C92.4051 35.5938 92.8001 35.6811 93.0634 35.8996C93.3268 36.0743 93.5023 36.4238 93.5023 36.8607V48.0885Z" fill="#377044"/>
<path d="M99.2815 48.1011C99.1059 48.1447 98.9303 48.1884 98.667 48.2321C98.4036 48.2321 98.1403 48.2758 97.9208 48.2758C97.3941 48.2758 96.9991 48.1884 96.6919 47.97C96.4285 47.7952 96.2969 47.4457 96.2969 46.9652V35.781C96.4724 35.7374 96.648 35.6937 96.9113 35.65C97.1308 35.6063 97.3941 35.6063 97.6575 35.6063C98.1842 35.6063 98.5792 35.6937 98.8426 35.9121C99.1498 36.0869 99.2815 36.4364 99.2815 36.8732V48.1011ZM93.6634 29.4463C93.8389 29.4463 94.0145 29.4463 94.234 29.49C94.4095 29.5337 94.5851 29.621 94.8045 29.7084C94.9801 29.7958 95.1996 29.9705 95.4629 30.1453C95.6824 30.32 95.9896 30.5822 96.2969 30.888L98.9742 33.3782C98.9303 33.7714 98.7987 34.1209 98.5792 34.4267C98.3597 34.6888 98.0086 34.8199 97.6136 34.8199C97.5258 34.8199 97.3941 34.8199 97.2625 34.7762C97.1308 34.7325 96.9552 34.6888 96.7797 34.6015C96.6041 34.4704 96.3407 34.3393 96.0774 34.1646C95.814 33.9898 95.4629 33.7714 95.0679 33.5093L91.9077 31.3249C91.9955 30.7569 92.1711 30.2764 92.4344 29.9269C92.7417 29.5774 93.1367 29.4463 93.6634 29.4463Z" fill="#377044"/>
<path d="M73.8419 59.7859C73.7102 59.7859 73.5785 59.8296 73.4468 59.8732C73.3152 59.9169 73.2274 59.9606 73.0957 60.048C73.0079 60.1354 72.9201 60.2664 72.8324 60.3975C72.7885 60.5286 72.7446 60.7033 72.7446 60.8781C72.7446 61.2713 72.9201 61.6208 73.2274 61.8392C73.5785 62.0576 74.0174 62.145 74.5002 62.145C75.1147 62.145 75.5975 61.9703 75.9925 61.6208C76.3437 61.2713 76.5192 60.7033 76.5192 59.9169C76.5192 59.3927 76.4753 58.9121 76.3875 58.4752C76.2998 57.9947 76.1681 57.5578 76.0803 57.1209C75.9486 56.684 75.8609 56.2471 75.7731 55.8103C75.6414 55.3734 75.5975 54.9365 75.5975 54.4996C75.5975 54.1501 75.6414 53.8443 75.7731 53.5822C75.8609 53.32 75.9925 53.1016 76.1681 52.9269C76.3437 52.7958 76.5192 52.6647 76.7826 52.5774C77.002 52.49 77.2215 52.4463 77.4848 52.4463C77.7921 52.4463 78.0554 52.5337 78.231 52.6647C78.4065 52.7958 78.4943 53.0142 78.4943 53.2764C78.4943 53.3637 78.4943 53.4511 78.4504 53.5822C78.4504 53.6696 78.4065 53.7569 78.3627 53.8006C78.3188 53.8006 78.2749 53.7569 78.1871 53.7569C78.1432 53.7569 78.0554 53.7569 77.9676 53.7569C77.4848 53.7569 77.2215 54.0191 77.2215 54.587C77.2215 54.9365 77.2654 55.3297 77.397 55.7666C77.4848 56.2035 77.5726 56.6403 77.7043 57.0772C77.836 57.5141 77.9237 57.9947 78.0554 58.4752C78.1432 58.9558 78.1871 59.4364 78.1871 59.9606C78.1871 60.4849 78.0993 60.9654 77.9676 61.4023C77.7921 61.8392 77.5287 62.2324 77.2215 62.5382C76.9142 62.844 76.5192 63.0625 76.0803 63.2372C75.5975 63.412 75.0708 63.4994 74.4563 63.4994C73.9735 63.4994 73.4907 63.412 73.0957 63.3246C72.7007 63.1935 72.3496 63.0188 72.0423 62.8003C71.7351 62.5819 71.5156 62.3198 71.3401 62.014C71.1645 61.7081 71.1206 61.3586 71.1206 60.9218C71.1206 60.5723 71.2084 60.2228 71.384 59.8732C71.5595 59.5674 71.8668 59.3053 72.3057 59.1306C71.9545 58.9558 71.6473 58.7374 71.4717 58.4315C71.2523 58.1257 71.1206 57.7762 71.1206 57.3393C71.1206 57.0335 71.2084 56.7714 71.2962 56.4656C71.4278 56.2035 71.6034 55.985 71.779 55.8103C71.9984 55.5918 72.2618 55.4608 72.569 55.3297C72.8763 55.1986 73.1835 55.1549 73.5785 55.1549C74.0613 55.1549 74.4124 55.2423 74.6319 55.3734C74.8514 55.5481 74.9391 55.7666 74.9391 55.985C74.9391 56.1161 74.9391 56.2471 74.8952 56.3345C74.8514 56.4656 74.8075 56.5093 74.7636 56.5966C74.6758 56.553 74.5441 56.553 74.4124 56.5093C74.2808 56.4656 74.1491 56.4656 74.0174 56.4656C73.6663 56.4656 73.4029 56.553 73.1396 56.7277C72.9201 56.9025 72.7885 57.1646 72.7885 57.5141C72.7885 57.8199 72.8763 58.082 73.0957 58.2568C73.2713 58.4315 73.5346 58.5189 73.8419 58.5189H74.8514C74.8952 58.6063 74.8952 58.6937 74.9391 58.781C74.983 58.9121 74.983 58.9995 74.983 59.1742C74.983 59.3053 74.983 59.4364 74.9391 59.5674C74.8952 59.6548 74.8952 59.7422 74.8514 59.7859H73.8419Z" fill="#373435"/>
<path d="M81.4458 63.3434C81.358 63.3871 81.2702 63.3871 81.1385 63.4308C81.0068 63.4308 80.8752 63.4308 80.7435 63.4308C80.4363 63.4308 80.2168 63.3871 80.0851 63.2997C79.9096 63.1686 79.8218 62.9939 79.8218 62.7318V55.4359C79.8218 54.2563 80.2168 53.2952 81.0068 52.6398C81.753 51.9845 82.8942 51.6787 84.4743 51.6787C85.1765 51.6787 85.8788 51.7224 86.5371 51.8535C87.1516 51.9408 87.7661 52.0719 88.2928 52.2467C88.8195 52.4214 89.3023 52.5962 89.6973 52.7709C90.0923 52.9457 90.3996 53.1204 90.619 53.2952C90.7946 53.4262 90.9263 53.5573 91.0141 53.6447C91.1018 53.7757 91.1457 53.9068 91.1457 54.0379C91.1457 54.2126 91.1018 54.3437 90.9702 54.4747C90.8385 54.6495 90.6629 54.7369 90.4874 54.7806C90.1362 54.5621 89.7412 54.3437 89.3023 54.1252C88.8634 53.9068 88.3806 53.732 87.8978 53.5573C87.3711 53.3825 86.8444 53.2515 86.2738 53.1204C85.6593 53.033 85.0887 52.9893 84.4743 52.9893C83.5086 52.9893 82.7625 53.2078 82.2358 53.6884C81.7091 54.1252 81.4458 54.8242 81.4458 55.7854V63.3434Z" fill="#373435"/>
<path d="M87.8665 57.6533C88.086 57.6533 88.2615 57.697 88.3932 57.8281C88.5249 57.9591 88.6127 58.1339 88.6127 58.3523C88.6127 58.4834 88.5688 58.6145 88.5688 58.7455C88.5249 58.8329 88.481 58.9203 88.481 59.0076H85.4086C85.1891 59.0076 85.0575 59.0513 84.9697 59.1824C84.8819 59.2698 84.838 59.4882 84.838 59.7067V60.4494C84.7502 60.493 84.6624 60.5367 84.5308 60.5804C84.443 60.6241 84.3113 60.6241 84.1358 60.6241C83.7846 60.6241 83.5213 60.5367 83.3018 60.3183C83.0385 60.0999 82.9507 59.7503 82.9507 59.2698C82.9507 58.1776 83.5652 57.6533 84.7941 57.6533H87.8665Z" fill="#373435"/>
<path d="M88.636 60.7222C88.7238 61.1591 88.8994 61.5086 89.1627 61.7707C89.47 62.0328 89.8211 62.1639 90.3039 62.1639C90.6989 62.1639 91.0062 62.0765 91.2256 61.8581C91.489 61.6833 91.6206 61.3775 91.6206 61.028C91.6206 60.7222 91.5328 60.4601 91.3134 60.2416C91.1378 60.0232 90.7428 59.8484 90.26 59.7174L89.7333 59.5863C89.031 59.3679 88.5043 59.1057 88.1093 58.7999C87.7582 58.4504 87.5387 57.9699 87.5387 57.4019C87.5387 56.7029 87.8021 56.1787 88.3288 55.7855C88.8555 55.3923 89.5577 55.1738 90.4356 55.1738C91.0939 55.1738 91.6206 55.2612 92.0157 55.4796C92.4546 55.6544 92.6301 55.9165 92.6301 56.2223C92.6301 56.5282 92.5423 56.7466 92.3229 56.9213C92.1034 56.7903 91.8401 56.7029 91.5328 56.6155C91.2256 56.5282 90.9184 56.4845 90.6111 56.4845C90.2161 56.4845 89.9089 56.5718 89.6016 56.7029C89.3383 56.834 89.2066 57.0524 89.2066 57.4019C89.2066 57.6204 89.2944 57.7951 89.47 57.9262C89.6894 58.0572 89.9528 58.1883 90.3917 58.2757L90.6989 58.3631C91.1378 58.4941 91.5328 58.6252 91.8401 58.7999C92.1912 58.9747 92.4546 59.1494 92.674 59.3679C92.8935 59.5863 93.0252 59.8048 93.1129 60.0669C93.2446 60.3727 93.2885 60.6785 93.2885 61.028C93.2885 61.4212 93.2007 61.7707 93.0252 62.0765C92.8935 62.3823 92.674 62.6445 92.4107 62.8629C92.1473 63.0814 91.8401 63.2124 91.4451 63.3435C91.0939 63.4309 90.6989 63.5182 90.26 63.5182C89.8211 63.5182 89.3822 63.4309 89.031 63.3435C88.6799 63.2124 88.3727 63.0814 88.1093 62.9066C87.846 62.6882 87.6265 62.4697 87.4948 62.2513C87.3632 61.9892 87.2754 61.727 87.2754 61.4212C87.2754 61.1591 87.3632 60.9843 87.5387 60.8533C87.6704 60.7222 87.8899 60.6348 88.1532 60.6348C88.2849 60.6348 88.3727 60.6348 88.4605 60.6785C88.5482 60.6785 88.5921 60.7222 88.636 60.7222Z" fill="#373435"/>
<path d="M101.377 63.3435C101.289 63.3435 101.201 63.3872 101.114 63.3872C100.982 63.4309 100.85 63.4309 100.719 63.4309C100.411 63.4309 100.192 63.3872 100.016 63.2998C99.8847 63.1687 99.797 62.994 99.797 62.7318V61.4649C99.5336 61.596 99.2703 61.727 98.963 61.8144C98.6558 61.9018 98.3047 61.9455 97.8657 61.9455C97.1635 61.9455 96.549 61.7707 95.9784 61.4649C95.4517 61.2028 95.0128 60.7659 94.7056 60.2416C94.5739 60.0232 94.4861 59.8484 94.4422 59.63C94.3544 59.4552 94.3105 59.2368 94.3105 59.0621C94.3105 58.8873 94.3544 58.7562 94.4422 58.7126C94.53 58.6252 94.6617 58.5378 94.8372 58.5378L95.4078 58.4067C95.8029 58.3194 96.1101 58.1883 96.3295 58.0135C96.5051 57.8388 96.6368 57.6204 96.6368 57.3582C96.6368 57.0961 96.549 56.8777 96.3734 56.7466C96.2418 56.5718 96.0223 56.4845 95.7151 56.4845C95.5395 56.4845 95.3639 56.5282 95.1884 56.5718C95.0128 56.6592 94.8811 56.7029 94.7495 56.7903C94.4861 56.6155 94.3544 56.3971 94.3544 56.135C94.3544 55.8291 94.4861 55.6107 94.7495 55.436C95.0128 55.2612 95.4078 55.1738 95.9345 55.1738C96.6368 55.1738 97.2074 55.3923 97.6463 55.7418C98.0852 56.135 98.3047 56.6592 98.3047 57.3145C98.3047 57.664 98.2608 57.9262 98.1291 58.1446C97.9974 58.4067 97.8657 58.6252 97.6463 58.7999C97.4268 58.9747 97.2074 59.1057 96.944 59.2368C96.6807 59.3242 96.3734 59.4116 96.0223 59.4989C96.154 59.7611 96.4173 60.0232 96.7246 60.2416C97.0757 60.4601 97.4707 60.5911 97.9974 60.5911C98.4802 60.5911 98.8313 60.5038 99.1386 60.3727C99.4458 60.2416 99.6214 60.0669 99.797 59.8921V55.3923C99.8847 55.3486 99.9725 55.3486 100.104 55.3486C100.236 55.3049 100.368 55.3049 100.499 55.3049C100.806 55.3049 101.026 55.3486 101.158 55.436C101.289 55.567 101.377 55.7418 101.377 56.0039V63.3435Z" fill="#373435"/>
<path d="M105.064 63.3404C104.977 63.384 104.889 63.384 104.757 63.4277C104.625 63.4277 104.494 63.4277 104.362 63.4277C104.055 63.4277 103.835 63.384 103.704 63.2967C103.528 63.1656 103.44 62.9909 103.44 62.7287V55.3891C103.572 55.3454 103.66 55.3454 103.792 55.3018C103.923 55.3018 104.055 55.3018 104.187 55.3018C104.45 55.3018 104.669 55.3454 104.845 55.4328C104.977 55.5639 105.064 55.7386 105.064 56.0008V63.3404Z" fill="#373435"/>
</svg>
