<?xml version="1.0" encoding="UTF-8"?>
<!DOCTYPE svg PUBLIC "-//W3C//DTD SVG 1.1//EN" "http://www.w3.org/Graphics/SVG/1.1/DTD/svg11.dtd">
<!-- Creator: CorelDRAW X7 -->
<svg xmlns="http://www.w3.org/2000/svg" xml:space="preserve" width="484px" height="611px" version="1.1" style="shape-rendering:geometricPrecision; text-rendering:geometricPrecision; image-rendering:optimizeQuality; fill-rule:evenodd; clip-rule:evenodd"
viewBox="0 0 17330 21869"
 xmlns:xlink="http://www.w3.org/1999/xlink">
 <defs>
  <style type="text/css">
   <![CDATA[
    .fil3 {fill:none}
    .fil15 {fill:#4D4D4D}
    .fil5 {fill:#666666}
    .fil13 {fill:#A6A6A6}
    .fil17 {fill:white}
    .fil18 {fill:#4D4D4D;fill-rule:nonzero}
    .fil21 {fill:#4D4D4D;fill-rule:nonzero}
    .fil20 {fill:#828282;fill-rule:nonzero}
    .fil6 {fill:#FAFAFA;fill-rule:nonzero}
    .fil10 {fill:white;fill-rule:nonzero}
    .fil1 {fill:#FFF0D4;fill-rule:nonzero;fill-opacity:0.501961}
    .fil11 {fill:url(#id0)}
    .fil4 {fill:url(#id1)}
    .fil16 {fill:url(#id2)}
    .fil14 {fill:url(#id3)}
    .fil8 {fill:url(#id4)}
    .fil2 {fill:url(#id5)}
    .fil0 {fill:url(#id6)}
    .fil9 {fill:url(#id7)}
    .fil12 {fill:url(#id8)}
    .fil7 {fill:url(#id9)}
    .fil19 {fill:url(#id10);fill-rule:nonzero}
    .fil22 {fill:url(#id11);fill-rule:nonzero}
   ]]>
  </style>
  <linearGradient id="id0" gradientUnits="userSpaceOnUse" x1="8665.17" y1="8598.26" x2="8665.17" y2="13532.8">
   <stop offset="0" style="stop-opacity:1; stop-color:#A6A6A6"/>
   <stop offset="1" style="stop-opacity:1; stop-color:#E8EEF7"/>
  </linearGradient>
  <linearGradient id="id1" gradientUnits="userSpaceOnUse" x1="8697.59" y1="767.776" x2="8697.59" y2="17291.8">
   <stop offset="0" style="stop-opacity:1; stop-color:#D0D5E0"/>
   <stop offset="0.0901961" style="stop-opacity:1; stop-color:#BECAD5"/>
   <stop offset="0.180392" style="stop-opacity:1; stop-color:#AEB1C4"/>
   <stop offset="0.611765" style="stop-opacity:1; stop-color:#6D7D85"/>
   <stop offset="1" style="stop-opacity:1; stop-color:#ABBEC9"/>
  </linearGradient>
  <linearGradient id="id2" gradientUnits="userSpaceOnUse" x1="8254.57" y1="11693.3" x2="8254.78" y2="5388.81">
   <stop offset="0" style="stop-opacity:1; stop-color:#AFB1B1"/>
   <stop offset="0.709804" style="stop-opacity:1; stop-color:#D0D2D3"/>
   <stop offset="1" style="stop-opacity:1; stop-color:#F2F4F5"/>
  </linearGradient>
  <linearGradient id="id3" gradientUnits="userSpaceOnUse" x1="8665.17" y1="3797.58" x2="8566.43" y2="11679.7">
   <stop offset="0" style="stop-opacity:1; stop-color:#F0F5FF"/>
   <stop offset="1" style="stop-opacity:1; stop-color:#A9BCC7"/>
  </linearGradient>
  <linearGradient id="id4" gradientUnits="userSpaceOnUse" x1="16151.7" y1="7256.47" x2="16160.2" y2="9725.07">
   <stop offset="0" style="stop-opacity:1; stop-color:#F7F7F7"/>
   <stop offset="1" style="stop-opacity:1; stop-color:#BDBDBD"/>
  </linearGradient>
  <linearGradient id="id5" gradientUnits="userSpaceOnUse" x1="4354.4" y1="17317.3" x2="7873.76" y2="15074.4">
   <stop offset="0" style="stop-opacity:1; stop-color:#B00205"/>
   <stop offset="1" style="stop-opacity:1; stop-color:red"/>
  </linearGradient>
  <linearGradient id="id6" gradientUnits="userSpaceOnUse" x1="13096.5" y1="15877.5" x2="8729.04" y2="16509.9">
   <stop offset="0" style="stop-opacity:1; stop-color:red"/>
   <stop offset="1" style="stop-opacity:1; stop-color:#B00205"/>
  </linearGradient>
  <linearGradient id="id7" gradientUnits="userSpaceOnUse" x1="8688.76" y1="2915.98" x2="8688.76" y2="14945.2">
   <stop offset="0" style="stop-opacity:1; stop-color:#EDEDED"/>
   <stop offset="0.411765" style="stop-opacity:1; stop-color:#B8B8B8"/>
   <stop offset="1" style="stop-opacity:1; stop-color:#CCCCCC"/>
  </linearGradient>
  <linearGradient id="id8" gradientUnits="userSpaceOnUse" x1="8683.39" y1="4228.86" x2="8683.39" y2="13511.2">
   <stop offset="0" style="stop-opacity:1; stop-color:#D0D5E0"/>
   <stop offset="0.180392" style="stop-opacity:1; stop-color:#BECAD5"/>
   <stop offset="0.490196" style="stop-opacity:1; stop-color:#6D7D85"/>
   <stop offset="1" style="stop-opacity:1; stop-color:#ABBEC9"/>
  </linearGradient>
  <linearGradient id="id9" gradientUnits="userSpaceOnUse" xlink:href="#id4" x1="1443.7" y1="7256.47" x2="1452.24" y2="9725.07">
  </linearGradient>
  <linearGradient id="id10" gradientUnits="userSpaceOnUse" x1="8117.49" y1="2225.93" x2="8117.49" y2="894.499">
   <stop offset="0" style="stop-opacity:1; stop-color:#C8CCD9"/>
   <stop offset="0.560784" style="stop-opacity:1; stop-color:#E3E5EC"/>
   <stop offset="1" style="stop-opacity:1; stop-color:white"/>
  </linearGradient>
  <radialGradient id="id11" gradientUnits="userSpaceOnUse" gradientTransform="matrix(-0.0205862 1.08376 -1.08376 -0.0205862 22625 3370)" cx="8771.31" cy="12616.1" r="4779.67" fx="8771.31" fy="12616.1">
   <stop offset="0" style="stop-opacity:1; stop-color:#FEFEFE"/>
   <stop offset="0.941176" style="stop-opacity:1; stop-color:#E5E5E5"/>
   <stop offset="1" style="stop-opacity:1; stop-color:#CCCDCD"/>
  </radialGradient>
 </defs>
 <g id="Layer_x0020_1">
  <metadata id="CorelCorpID_0Corel-Layer"/>
  <g id="_874639888">
   <g>
    <path class="fil0" d="M8557 16799l-825 169 -228 47 -154 31 -138 28 -66 14 -19 4 65 114 1371 2380 1255 2180c71,110 153,136 252,47l1696 -2069c45,-86 113,-148 233,-159l2628 -438c172,-11 213,-97 121,-261l-1592 -2809 -54 -94 -8 -14 -29 -51 -21 -38 -28 6 -227 46 -122 25 -77 16 -4033 826z"/>
    <path class="fil1" d="M12657 16089l65 -37 -75 -129 -64 37 74 129zm-5164 942l-65 37 75 129 64 -37 -74 -129zm149 259l-65 37 74 129 65 -37 -74 -129zm148 258l-64 37 74 130 65 -38 -75 -129zm149 259l-65 37 75 129 64 -37 -74 -129zm149 258l-65 38 74 129 65 -37 -74 -130zm148 259l-64 37 74 129 64 -37 -74 -129zm149 259l-65 37 74 129 65 -37 -74 -129zm148 258l-64 37 74 130 65 -37 -75 -130zm149 259l-65 37 75 129 64 -37 -74 -129zm149 258l-65 38 74 129 65 -37 -74 -130zm148 259l-64 37 74 129 65 -37 -75 -129zm149 259l-65 37 75 129 64 -37 -74 -129zm149 258l-65 37 74 130 65 -37 -74 -130zm148 259l-65 37 75 129 64 -37 -74 -129zm149 258l-65 38 74 129 65 -37 -74 -130zm148 259l-64 37 74 129 65 -37 -75 -129zm149 258l-65 38 74 129 65 -37 -74 -130zm91 217l57 48 95 -115 -57 -48 -95 115zm191 -229l57 48 96 -115 -58 -48 -95 115zm191 -229l57 48 96 -115 -57 -48 -96 115zm191 -229l57 48 96 -115 -57 -47 -96 114zm191 -229l57 48 96 -115 -57 -47 -96 114zm191 -229l58 48 95 -115 -57 -47 -96 114zm192 -229l57 48 95 -114 -57 -48 -95 114zm191 -229l57 48 95 -114 -57 -48 -95 114zm191 -229l57 48 96 -114 -58 -48 -95 114zm191 -229l11 10 27 47 142 -23 -12 -73 -156 25 -12 14zm315 -63l12 74 147 -24 -11 -74 -148 24zm295 -47l12 73 147 -23 -12 -74 -147 24zm294 -47l12 73 147 -23 -11 -74 -148 24zm295 -47l12 73 147 -23 -12 -74 -147 24zm294 -48l12 74 148 -24 -12 -73 -148 23zm295 -47l12 74 147 -24 -12 -73 -147 23zm294 -47l12 74 147 -24 -11 -74 -148 24zm295 -47l12 74 147 -24 -12 -74 -147 24zm243 -3l65 -38 -75 -129 -64 38 74 129zm-149 -258l64 -38 -75 -129 -64 38 75 129zm-150 -259l65 -37 -75 -129 -65 37 75 129zm-149 -258l64 -37 -75 -129 -64 37 75 129zm-150 -258l65 -37 -75 -129 -65 37 75 129zm-149 -258l64 -37 -75 -129 -64 37 75 129zm-150 -258l65 -37 -75 -129 -65 37 75 129zm-150 -258l65 -37 -75 -129 -64 37 74 129zm-149 -258l64 -37 -74 -129 -65 37 75 129zm-150 -258l65 -37 -75 -129 -64 37 74 129zm-149 -258l64 -37 -74 -129 -65 37 75 129z"/>
    <path class="fil2" d="M4080 15882c-568,1002 -1136,2004 -1704,3007 -92,163 -51,250 121,261 876,146 1752,292 2628,438 120,11 188,73 233,158 566,690 1131,1379 1696,2069 99,89 181,63 252,-47 897,-1558 1794,-3116 2691,-4674 -1972,-404 -3944,-808 -5917,-1212z"/>
    <path class="fil1" d="M4447 16051l-65 -37 75 -129 65 37 -75 129zm5164 942l65 37 -75 129 -64 -37 74 -129zm-149 258l65 37 -74 130 -65 -37 74 -130zm-148 259l64 37 -74 129 -65 -37 75 -129zm-149 259l65 37 -75 129 -64 -37 74 -129zm-149 258l65 37 -74 130 -65 -38 74 -129zm-148 259l65 37 -75 129 -64 -37 74 -129zm-149 258l65 37 -74 130 -65 -37 74 -130zm-148 259l64 37 -74 129 -65 -37 75 -129zm-149 259l65 37 -75 129 -64 -37 74 -129zm-149 258l65 37 -74 130 -65 -38 74 -129zm-148 259l64 37 -74 129 -65 -37 75 -129zm-149 258l65 37 -74 130 -65 -37 74 -130zm-148 259l64 37 -74 129 -65 -37 75 -129zm-149 259l65 37 -75 129 -64 -37 74 -129zm-149 258l65 37 -74 130 -65 -38 74 -129zm-148 259l64 37 -74 129 -65 -37 75 -129zm-149 258l65 37 -74 130 -65 -38 74 -129zm-91 217l-57 47 -95 -114 57 -48 95 115zm-191 -229l-57 47 -96 -114 58 -48 95 115zm-191 -229l-57 47 -96 -114 57 -48 96 115zm-191 -229l-57 48 -96 -115 57 -48 96 115zm-191 -229l-57 48 -96 -115 57 -48 96 115zm-191 -229l-58 48 -95 -115 57 -48 96 115zm-192 -229l-57 48 -95 -115 57 -48 95 115zm-191 -229l-57 48 -95 -115 57 -47 95 114zm-191 -229l-57 48 -96 -115 58 -47 95 114zm-191 -229l-11 9 -27 48 -142 -23 12 -74 156 25 12 15zm-315 -63l-12 73 -147 -23 11 -74 148 24zm-295 -47l-12 73 -147 -23 12 -74 147 24zm-294 -48l-12 74 -147 -24 11 -73 148 23zm-295 -47l-12 74 -147 -24 12 -73 147 23zm-294 -47l-12 74 -147 -24 11 -74 148 24zm-295 -47l-12 74 -147 -24 12 -74 147 24zm-294 -47l-12 73 -147 -23 11 -74 148 24zm-295 -47l-12 73 -147 -23 12 -74 147 24zm-243 -4l-65 -37 75 -129 64 37 -74 129zm149 -258l-64 -37 75 -129 64 37 -75 129zm150 -258l-65 -37 75 -129 65 37 -75 129zm149 -258l-64 -37 75 -129 64 37 -75 129zm150 -258l-65 -37 75 -129 65 37 -75 129zm149 -258l-64 -37 75 -129 64 37 -75 129zm150 -258l-64 -37 74 -129 65 37 -75 129zm150 -258l-65 -37 75 -129 64 37 -74 129zm149 -258l-64 -37 74 -129 65 37 -75 129zm150 -258l-65 -37 75 -129 64 37 -74 129zm149 -258l-64 -37 74 -129 65 37 -75 129z"/>
   </g>
   <circle class="fil3" cx="8665" cy="8598" r="8598"/>
   <path class="fil4" d="M8665 0c4786,0 8665,3880 8665,8665 0,4786 -3879,8665 -8665,8665 -4785,0 -8665,-3879 -8665,-8665 0,-4785 3880,-8665 8665,-8665zm0 2363c3481,0 6302,2822 6302,6302 0,3481 -2821,6302 -6302,6302 -3480,0 -6302,-2821 -6302,-6302 0,-3480 2822,-6302 6302,-6302z"/>
   <path class="fil5" d="M1499 10114c-47,-238 -83,-477 -107,-718 -23,-241 -35,-484 -35,-726 0,-243 12,-485 35,-727 24,-241 60,-480 107,-717 8,-39 -17,-77 -56,-85 -39,-7 -77,18 -84,57 -48,241 -85,486 -109,731 -24,246 -36,493 -36,741 0,247 12,494 36,740 24,245 61,490 109,732 7,39 45,64 84,56 39,-8 64,-46 56,-84z"/>
   <path class="fil6" d="M8665 108c2363,0 4502,958 6051,2506 1548,1549 2506,3688 2506,6051 0,2363 -958,4502 -2506,6051 -1549,1548 -3688,2506 -6051,2506 -2363,0 -4502,-958 -6051,-2506 -1548,-1549 -2506,-3688 -2506,-6051 0,-2363 958,-4502 2506,-6051 1549,-1548 3688,-2506 6051,-2506zm5998 2559c-1535,-1535 -3656,-2484 -5998,-2484 -2342,0 -4463,949 -5998,2484 -1535,1535 -2484,3656 -2484,5998 0,2342 949,4463 2484,5998 1535,1535 3656,2485 5998,2485 2342,0 4463,-950 5998,-2485 1535,-1535 2485,-3656 2485,-5998 0,-2342 -950,-4463 -2485,-5998z"/>
   <path class="fil6" d="M8665 236c2328,0 4435,944 5960,2469 1526,1525 2469,3633 2469,5960 0,2328 -943,4435 -2469,5960 -1525,1526 -3632,2469 -5960,2469 -2327,0 -4435,-943 -5960,-2469 -1525,-1525 -2469,-3632 -2469,-5960 0,-2327 944,-4435 2469,-5960 1525,-1525 3633,-2469 5960,-2469zm5907 2522c-1511,-1512 -3600,-2447 -5907,-2447 -2307,0 -4395,935 -5907,2447 -1512,1512 -2447,3600 -2447,5907 0,2307 935,4396 2447,5907 1512,1512 3600,2447 5907,2447 2307,0 4396,-935 5907,-2447 1512,-1511 2447,-3600 2447,-5907 0,-2307 -935,-4395 -2447,-5907z"/>
   <path class="fil5" d="M15932 7226c48,237 84,477 107,717 24,242 36,484 36,727 0,242 -12,485 -36,726 -23,241 -59,480 -107,718 -7,39 18,76 57,84 39,8 76,-17 84,-56 48,-242 84,-487 108,-732 25,-246 37,-493 37,-740 0,-247 -12,-495 -37,-741 -24,-245 -60,-489 -108,-731 -8,-39 -45,-64 -84,-57 -39,8 -64,46 -57,85z"/>
   <path class="fil7" d="M1453 10109c-47,-237 -83,-477 -107,-718 -23,-241 -35,-483 -35,-726 0,-242 12,-485 35,-726 24,-241 60,-481 107,-718 8,-39 -17,-77 -56,-84 -39,-8 -77,17 -84,56 -49,242 -84,486 -109,732 -24,246 -36,493 -36,740 0,247 12,494 36,740 25,246 60,490 109,732 7,39 45,64 84,57 39,-8 64,-46 56,-85z"/>
   <path class="fil8" d="M15877 7221c47,237 83,477 107,718 24,241 35,484 35,726 0,243 -11,485 -35,726 -24,241 -60,481 -107,718 -8,39 18,77 56,85 39,7 77,-18 85,-57 48,-242 84,-486 108,-732 24,-246 37,-493 37,-740 0,-247 -13,-494 -37,-740 -24,-246 -60,-490 -108,-732 -8,-39 -46,-64 -85,-56 -38,7 -64,45 -56,84z"/>
   <circle class="fil9" cx="8665" cy="8665" r="6308"/>
   <path class="fil10" d="M13871 6630c-27,-70 -133,-53 -133,26 0,9 1,16 4,24 17,42 33,85 48,127 31,81 151,46 132,-40l-2 -7c-16,-44 -32,-87 -49,-130zm-10266 7c11,-30 2,-63 -25,-81 -38,-26 -85,-11 -103,30 -18,44 -34,87 -51,131 -27,70 67,129 120,66 4,-6 7,-12 10,-19 15,-42 32,-84 49,-127zm-214 646c20,-73 -82,-123 -126,-52 -4,6 -6,11 -8,18 -11,45 -23,90 -33,135 -19,84 104,122 133,35 12,-45 22,-91 34,-136zm-132 668c11,-83 -112,-112 -135,-25l-1 7c-7,46 -12,92 -17,138 -2,26 8,50 29,64 42,31 104,2 108,-49 5,-45 10,-90 16,-135zm-47 678c0,-73 -99,-97 -132,-28 -3,10 -5,18 -5,28 -1,46 0,93 0,139 4,88 130,91 138,3 1,-46 -1,-95 -1,-142zm39 679c-11,-84 -137,-79 -137,11 3,47 12,98 18,144 2,15 11,31 22,41 49,43 123,4 115,-61 -7,-45 -13,-90 -18,-135zm123 669c-24,-85 -151,-57 -135,31 11,46 24,93 36,138 21,77 139,62 136,-23 -1,-5 -1,-9 -3,-14 -12,-44 -23,-88 -34,-132zm205 649c-26,-68 -130,-53 -134,23 0,10 2,18 5,27 17,44 34,87 52,130 14,32 49,49 82,39 40,-10 61,-55 45,-92 -17,-42 -34,-85 -50,-127zm283 619c-40,-74 -152,-25 -126,55 2,3 3,7 5,10 22,41 45,82 67,122 35,64 140,34 128,-46 -1,-8 -4,-15 -8,-22 -22,-33 -47,-83 -66,-119zm358 578c-41,-60 -141,-19 -123,57 3,9 6,15 11,23 27,38 54,76 82,113 51,65 152,4 118,-71 -2,-4 -4,-8 -7,-12 -28,-36 -54,-73 -81,-110zm428 529c-55,-57 -148,6 -112,79 3,6 6,10 10,15 32,34 64,68 96,101 58,58 153,-13 106,-87 -2,-3 -4,-6 -7,-9 -32,-32 -63,-66 -93,-99zm490 472c-45,-40 -119,-3 -113,58 1,18 11,35 24,47 36,30 72,60 108,89 33,26 79,18 102,-17 18,-29 11,-70 -16,-91 -35,-28 -70,-57 -105,-86zm546 406c-30,-19 -67,-13 -90,13 -27,31 -20,81 15,103 39,25 78,50 118,74 63,40 140,-40 87,-104 -4,-5 -9,-9 -15,-13 -39,-24 -77,-48 -115,-73zm592 335c-73,-35 -137,63 -73,116 4,3 8,6 13,8 42,21 84,40 126,60 77,33 135,-71 68,-120 -4,-2 -7,-4 -11,-6 -42,-19 -83,-38 -123,-58zm629 260c-80,-25 -129,83 -56,126 4,1 7,3 11,4 44,15 88,30 133,44 76,24 127,-84 54,-126 -4,-2 -9,-4 -13,-6 -43,-13 -86,-27 -129,-42zm656 180c-71,-16 -118,81 -51,126 8,5 14,7 23,9 45,9 91,18 137,26 80,15 116,-100 36,-132 -4,-1 -8,-2 -12,-3 -44,-8 -89,-17 -133,-26zm673 96c-79,-7 -106,108 -25,135 5,1 9,2 14,3 47,3 93,6 140,9 77,3 102,-104 27,-134 -7,-2 -13,-4 -21,-4 -45,-2 -90,-6 -135,-9zm680 11c-77,3 -91,114 -15,135 8,2 14,3 22,3 46,-2 93,-5 139,-8 84,-8 86,-130 -1,-138 -3,0 -6,0 -9,0 -45,3 -91,6 -136,8zm676 -74c-79,15 -74,133 11,137 5,0 9,0 13,-1 46,-8 92,-16 137,-26 88,-19 65,-147 -24,-135 -46,8 -91,17 -137,25zm662 -157c-82,26 -53,149 34,133 46,-12 95,-29 140,-44 69,-22 60,-130 -21,-134 -9,0 -15,1 -23,3 -43,15 -87,29 -130,42zm637 -239c-69,30 -45,139 37,132 7,-1 13,-3 20,-6 42,-19 84,-38 126,-58 16,-8 28,-20 35,-36 23,-59 -37,-116 -94,-89 -41,20 -82,39 -124,57zm603 -315c-70,44 -19,150 59,124 5,-2 8,-4 13,-6 40,-24 79,-49 118,-74 62,-39 27,-137 -48,-126 -10,2 -17,4 -26,10 -39,24 -77,49 -116,72zm559 -388c-59,46 -9,145 67,119 7,-3 13,-6 19,-11 36,-29 73,-58 108,-88 21,-18 30,-45 22,-71 -13,-49 -72,-67 -110,-35 -35,30 -71,58 -106,86zm506 -454c-55,55 13,148 85,107 5,-3 9,-7 14,-11 32,-33 64,-67 96,-101 56,-63 -24,-151 -92,-102 -3,3 -6,5 -9,8 -31,33 -62,66 -94,99zm445 -515c-45,58 24,141 93,100 7,-5 12,-10 17,-17 28,-37 56,-74 83,-112 48,-69 -43,-146 -104,-90 -3,3 -6,7 -8,10 -27,37 -54,73 -81,109zm377 -566c-42,77 65,145 117,74 25,-40 48,-85 71,-127 39,-70 -57,-141 -113,-77 -3,4 -6,7 -8,11 -22,40 -44,79 -67,119zm304 -609c-30,72 65,134 118,70 4,-6 7,-10 9,-16 18,-43 35,-86 53,-129 29,-76 -73,-131 -120,-65 -3,5 -6,9 -8,14 -18,40 -34,85 -52,126zm227 -641c-9,30 3,61 30,77 38,24 90,4 102,-40 13,-45 25,-90 37,-135 18,-67 -70,-118 -121,-60 -6,9 -10,16 -13,27 -11,43 -23,87 -35,131zm144 -665c-10,74 85,109 126,48 5,-9 9,-17 10,-27 7,-46 14,-92 20,-139 10,-76 -99,-110 -132,-35 -3,6 -4,12 -5,18 -6,45 -12,90 -19,135zm61 -677c-3,72 99,99 131,31 4,-10 6,-17 7,-28 1,-47 1,-93 2,-140 0,-71 -96,-96 -131,-30 -5,10 -7,19 -7,30 0,46 -1,91 -2,137zm-25 -680c7,77 122,86 137,3 1,-6 1,-11 1,-17 -4,-46 -10,-93 -16,-139 -10,-82 -133,-79 -137,8 0,3 0,6 0,9 6,45 11,91 15,136zm-108 -672c18,81 143,66 135,-24l-1 -7c-10,-45 -21,-90 -32,-135 -24,-86 -151,-57 -135,30 11,46 23,91 33,136z"/>
   <path class="fil11" d="M8665 2339c1747,0 3329,708 4474,1853 1145,1144 1853,2726 1853,4473 0,1747 -708,3329 -1853,4474 -1145,1145 -2727,1853 -4474,1853 -1747,0 -3329,-708 -4473,-1853 -1145,-1145 -1853,-2727 -1853,-4474 0,-1747 708,-3329 1853,-4473 1144,-1145 2726,-1853 4473,-1853zm0 74c3453,0 6252,2799 6252,6252 0,3453 -2799,6252 -6252,6252 -3453,0 -6252,-2799 -6252,-6252 0,-3453 2799,-6252 6252,-6252z"/>
   <circle class="fil12" cx="8665" cy="8665" r="4868"/>
   <path class="fil13" d="M8665 2337c3490,0 6319,2825 6319,6308 0,27 0,53 -1,79 -42,-3448 -2854,-6230 -6318,-6230 -3464,0 -6276,2782 -6318,6230 0,-26 -1,-52 -1,-79 0,-3483 2829,-6308 6319,-6308z"/>
   <path class="fil3" d="M8682 3389c2914,0 5276,2362 5276,5276 0,2914 -2362,5276 -5276,5276 -2914,0 -5276,-2362 -5276,-5276 0,-2914 2362,-5276 5276,-5276z"/>
   <path class="fil14" d="M8665 3803c1343,0 2558,544 3438,1424 880,880 1424,2096 1424,3438 0,1343 -544,2558 -1424,3438 -880,880 -2095,1424 -3438,1424 -1342,0 -2558,-544 -3438,-1424 -880,-880 -1424,-2095 -1424,-3438 0,-1342 544,-2558 1424,-3438 880,-880 2096,-1424 3438,-1424zm0 75c2644,0 4788,2143 4788,4787 0,2644 -2144,4788 -4788,4788 -2644,0 -4787,-2144 -4787,-4788 0,-2644 2143,-4787 4787,-4787z"/>
  </g>
  <path class="fil15" d="M11932 9056l0 476c-5,1 -12,3 -19,4 -7,2 -16,2 -26,2 -22,0 -37,-3 -46,-11 -9,-7 -13,-19 -13,-36l0 -435 -50 0 -17 0 -1 0 -73 0 0 476c-4,1 -10,3 -18,4 -7,2 -16,2 -25,2 -23,0 -38,-3 -47,-11 -8,-7 -13,-19 -13,-36l0 -92c-16,13 -34,23 -55,29 -21,7 -45,10 -73,10 -44,0 -83,-9 -116,-27 -34,-18 -60,-42 -79,-72 -11,-17 -20,-35 -26,-54 -6,-19 -9,-36 -9,-49 0,-8 2,-15 5,-20 3,-5 8,-9 17,-10 37,-3 65,-11 82,-24 17,-14 25,-32 25,-55 0,-16 -4,-31 -12,-43 -9,-12 -20,-21 -34,-28l-94 0 -20 0 -78 0 0 104c0,26 -15,39 -44,39l-157 0c-21,0 -36,4 -45,12 -9,8 -13,19 -13,32 0,11 3,20 9,28 5,7 12,13 20,18 15,-5 31,-8 48,-11 17,-3 35,-5 54,-5 54,0 95,12 123,36 28,24 43,55 43,92 0,48 -19,83 -55,107 -37,24 -86,36 -147,36 -27,0 -54,-2 -79,-7 -26,-4 -48,-11 -67,-19 -20,-8 -35,-17 -47,-28 -12,-11 -17,-24 -17,-38 0,-13 3,-24 11,-33 8,-9 17,-15 28,-19 18,16 42,31 71,44 28,12 62,18 99,18 32,0 55,-5 71,-16 16,-11 24,-25 24,-42 0,-35 -29,-53 -86,-53 -16,0 -32,2 -49,5 -17,3 -32,7 -47,12 -12,-4 -25,-10 -39,-17 -13,-8 -25,-17 -36,-27 -12,-11 -21,-24 -28,-38 -8,-14 -11,-31 -11,-49 0,-34 12,-61 35,-82 24,-22 60,-32 107,-32l120 0 0 -67 -288 0 -19 0 -71 0 0 476c-5,1 -12,3 -19,4 -7,2 -16,2 -26,2 -22,0 -37,-3 -46,-11 -9,-7 -13,-19 -13,-36l0 -435 -46 0 -21 0 -1 0 -76 0 0 104c0,26 -15,39 -44,39l-157 0c-21,0 -36,4 -45,12 -9,8 -13,19 -13,32 0,11 3,20 9,28 5,7 12,13 20,18 15,-5 31,-8 48,-11 17,-3 35,-5 54,-5 54,0 95,12 123,36 29,24 43,55 43,92 0,24 -5,44 -15,62 -10,17 -24,32 -42,44 -18,11 -39,20 -64,26 -25,5 -52,8 -81,8 -3,0 -5,0 -8,0 -2,0 -4,0 -7,-1 15,14 32,27 49,40 17,13 35,25 56,37 -2,19 -8,34 -19,46 -11,13 -26,19 -47,19 -21,0 -40,-7 -57,-22 -17,-14 -34,-36 -51,-67l-36 -63c-27,-7 -49,-17 -66,-31 -16,-13 -24,-28 -24,-46 0,-13 3,-25 11,-34 8,-9 17,-15 28,-19 19,17 43,32 71,44 29,12 62,18 99,18 32,0 56,-5 71,-16 16,-11 24,-25 24,-42 0,-35 -29,-53 -86,-53 -16,0 -32,2 -49,5 -17,3 -32,7 -47,12 -12,-4 -25,-10 -39,-17 -13,-8 -25,-17 -36,-27 -11,-11 -21,-24 -28,-38 -8,-14 -11,-31 -11,-49 0,-34 12,-61 35,-82 24,-22 60,-32 107,-32l120 0 0 -67 -307 0c-22,0 -32,-14 -32,-41 0,-5 0,-11 1,-19 2,-7 3,-13 6,-18l487 0 21 0 66 0c-5,-9 -9,-19 -12,-32 -3,-13 -4,-26 -4,-40 0,-52 21,-94 62,-124 42,-31 100,-46 174,-46 49,0 94,6 135,17 40,11 75,25 104,41 29,16 51,33 67,50 16,18 24,32 24,44 0,13 -6,23 -17,31 -12,8 -27,12 -46,12 -31,-34 -68,-61 -110,-81 -42,-20 -92,-30 -148,-30 -44,0 -78,9 -102,26 -24,17 -36,42 -36,74 0,11 1,22 3,32 2,10 6,19 10,26l52 0 19 0 470 0 20 0 545 0 17 0 244 0c22,0 33,13 33,39 0,6 -1,12 -3,20 -1,8 -3,14 -4,19l-90 0zm-4273 273c-159,0 -313,4 -467,-1 -110,-4 -184,-87 -184,-198 -1,-474 -1,-948 0,-1422 0,-112 83,-192 194,-193 380,0 761,0 1141,0 103,1 190,74 191,173 4,253 1,506 1,758 -60,-29 -119,-56 -175,-88 -11,-6 -13,-33 -14,-50 0,-182 0,-364 0,-545l0 -58 -1143 0 0 1431c107,0 211,2 316,0 31,-1 48,7 60,38 22,51 51,99 80,155zm784 -381c-2,-158 -132,-289 -289,-289 -154,-1 -288,131 -288,284 -1,160 133,294 290,292 156,-3 288,-135 287,-287zm110 266c91,86 180,172 266,254 -48,48 -90,91 -138,138 -58,-57 -126,-118 -187,-186 -47,-53 -83,-68 -159,-35 -177,77 -350,48 -496,-83 -146,-130 -195,-296 -142,-484 53,-190 184,-308 378,-340 186,-32 346,30 460,185 113,153 124,320 49,494 -8,17 -18,33 -31,57zm355 1916c-1414,0 -2561,-1147 -2561,-2562 0,-1415 1147,-2562 2561,-2562 883,0 1660,446 2121,1125l333 0c-494,-841 -1408,-1406 -2454,-1406 -1570,0 -2842,1273 -2842,2843 0,903 421,1709 1079,2229l-416 1357 1051 -976c346,150 728,233 1128,233 1102,0 2057,-626 2529,-1542l-322 0c-445,754 -1267,1261 -2207,1261zm204 494c-442,0 -863,-81 -1249,-228l-448 329c375,147 784,228 1212,228 755,0 1450,-251 2008,-675 -456,221 -974,346 -1523,346zm-2190 -771c-696,-570 -1135,-1407 -1135,-2341 0,-1719 1489,-3112 3325,-3112 136,0 270,8 401,23 -282,-78 -579,-120 -886,-120 -1836,0 -3325,1489 -3325,3325 0,1172 606,2202 1522,2794l98 -569zm2842 -3037l0 185c0,44 -24,66 -71,66l-159 0c-50,0 -90,11 -120,34 -31,23 -46,58 -46,105 0,47 15,84 44,109 29,25 65,38 108,38 57,0 85,-21 85,-64 0,-10 -1,-21 -4,-32 -2,-12 -4,-23 -7,-33 10,-12 24,-21 42,-28 18,-7 38,-10 59,-10 35,0 65,11 90,34 26,23 39,56 39,97 0,26 -6,49 -17,71 -11,21 -26,39 -44,55 21,37 42,69 62,95 20,26 40,49 58,67 -5,29 -18,53 -39,69 -22,17 -48,25 -79,25 -32,0 -58,-10 -79,-31 -21,-21 -35,-50 -44,-87l-19 -84 -18 4c-11,2 -23,4 -36,6 -13,3 -29,4 -47,4 -50,0 -96,-7 -139,-20 -43,-12 -81,-32 -112,-57 -32,-25 -57,-57 -76,-95 -18,-39 -28,-83 -28,-134 0,-42 7,-80 21,-116 14,-35 35,-66 63,-92 28,-27 63,-47 105,-63 41,-15 90,-22 145,-22l68 0 0 -96 -447 0c-21,0 -36,-6 -45,-19 -8,-12 -12,-31 -12,-56 0,-10 1,-22 3,-36 3,-14 6,-25 9,-33l491 0c-13,-22 -29,-43 -48,-63 -24,-26 -52,-50 -81,-71 -29,-20 -58,-38 -88,-53 -30,-15 -58,-25 -83,-32 0,-4 -1,-9 -1,-13 0,-4 0,-8 0,-13 0,-32 9,-61 26,-85 18,-25 46,-37 83,-37 36,0 73,12 110,34 37,23 72,53 105,89 33,37 63,79 90,125 23,39 41,79 56,119l114 0 22 0 1162 0 23 0 114 0c-16,-28 -36,-53 -61,-77 -24,-23 -50,-45 -77,-63 -27,-19 -55,-36 -83,-49 -28,-13 -54,-23 -78,-30 -1,-4 -2,-9 -2,-13 0,-4 0,-8 0,-13 0,-32 9,-61 27,-85 18,-25 46,-37 84,-37 34,0 69,11 104,31 35,21 69,49 101,83 32,35 62,74 89,118 27,44 49,89 66,135l112 0c38,0 57,24 57,72 0,10 -2,23 -4,37 -3,15 -7,27 -11,35l-131 0 0 714c-10,3 -22,6 -36,9 -13,2 -29,4 -48,4 -43,0 -73,-7 -89,-21 -15,-14 -23,-37 -23,-68l0 -638 -69 0 -21 0 -1 0 -108 0 0 714c-11,3 -23,6 -36,9 -14,2 -30,4 -49,4 -43,0 -73,-7 -88,-21 -16,-14 -24,-37 -24,-68l0 -140c-34,16 -77,24 -130,24 -32,0 -64,-5 -93,-15 -30,-11 -57,-25 -81,-45 -23,-19 -42,-43 -56,-72 -14,-28 -21,-61 -21,-98 0,-36 6,-67 18,-94 11,-27 27,-49 47,-67 21,-18 44,-32 70,-41 27,-9 55,-14 84,-14 40,0 70,8 89,24 20,15 30,36 30,61 0,26 -8,48 -25,65 -13,-5 -28,-7 -47,-7 -24,0 -44,7 -61,20 -16,14 -25,35 -25,61 0,25 10,45 29,60 20,15 44,22 74,22 20,0 39,-3 55,-8 17,-6 31,-13 43,-22l0 -352 -480 0c17,20 31,44 41,70 9,26 14,54 14,82 0,63 -16,114 -49,155 -33,40 -76,68 -131,83 29,53 71,94 128,125 56,30 119,48 191,52 4,16 6,32 6,49 0,34 -10,61 -30,80 -20,20 -50,29 -89,29 -44,0 -85,-8 -124,-24 -39,-16 -74,-38 -106,-66 -32,-27 -60,-60 -84,-98 -25,-38 -45,-78 -59,-122 -26,-2 -47,-9 -63,-23 -16,-13 -24,-35 -24,-65 0,-18 3,-34 9,-48 6,-14 13,-26 21,-35 10,1 21,3 34,5 12,2 26,3 41,3 42,0 74,-12 96,-35 22,-24 32,-53 32,-88 0,-26 -5,-50 -16,-73 -10,-23 -24,-41 -42,-56l-173 0 -21 0 0 0 -131 0zm505 1024c0,-18 6,-33 18,-45 12,-13 28,-19 48,-19 20,0 36,6 48,19 12,12 18,27 18,45 0,17 -6,32 -18,45 -12,12 -28,18 -48,18 -20,0 -36,-6 -48,-18 -12,-13 -18,-28 -18,-45zm1198 512c27,0 50,-5 70,-15 20,-9 35,-21 47,-34l0 -247 -163 0c11,9 21,21 29,36 8,14 13,30 13,48 0,18 -4,35 -10,49 -7,14 -16,26 -28,36 -11,11 -25,19 -41,26 -16,6 -33,10 -51,13 8,25 23,46 45,63 23,17 52,25 89,25z"/>
  <path class="fil16" d="M11932 8992l0 477c-5,1 -12,2 -19,4 -7,1 -16,2 -26,2 -22,0 -37,-4 -46,-11 -9,-8 -13,-20 -13,-36l0 -436 -50 0 -17 0 -1 0 -73 0 0 477c-4,1 -10,2 -18,4 -7,1 -16,2 -25,2 -23,0 -38,-4 -47,-11 -8,-8 -13,-20 -13,-36l0 -93c-16,13 -34,23 -55,30 -21,6 -45,10 -73,10 -44,0 -83,-9 -116,-28 -34,-18 -60,-42 -79,-72 -11,-16 -20,-34 -26,-53 -6,-20 -9,-36 -9,-50 0,-7 2,-14 5,-19 3,-6 8,-9 17,-10 37,-3 65,-11 82,-25 17,-13 25,-31 25,-54 0,-17 -4,-31 -12,-43 -9,-12 -20,-22 -34,-29l-94 0 -20 0 -78 0 0 104c0,26 -15,40 -44,40l-157 0c-21,0 -36,4 -45,12 -9,8 -13,18 -13,31 0,12 3,21 9,28 5,7 12,13 20,18 15,-4 31,-8 48,-11 17,-3 35,-4 54,-4 54,0 95,12 123,36 28,24 43,54 43,92 0,47 -19,83 -55,107 -37,23 -86,35 -147,35 -27,0 -54,-2 -79,-6 -26,-5 -48,-11 -67,-19 -20,-8 -35,-18 -47,-29 -12,-11 -17,-23 -17,-37 0,-14 3,-25 11,-34 8,-8 17,-15 28,-19 18,17 42,32 71,44 28,13 62,19 99,19 32,0 55,-5 71,-16 16,-11 24,-25 24,-42 0,-36 -29,-53 -86,-53 -16,0 -32,1 -49,5 -17,3 -32,7 -47,12 -12,-4 -25,-10 -39,-18 -13,-7 -25,-16 -36,-27 -12,-11 -21,-23 -28,-38 -8,-14 -11,-30 -11,-48 0,-34 12,-62 35,-83 24,-21 60,-32 107,-32l120 0 0 -67 -288 0 -19 0 -71 0 0 477c-5,1 -12,2 -19,4 -7,1 -16,2 -26,2 -22,0 -37,-4 -46,-11 -9,-8 -13,-20 -13,-36l0 -436 -46 0 -21 0 -1 0 -76 0 0 104c0,26 -15,40 -44,40l-157 0c-21,0 -36,4 -45,12 -9,8 -13,18 -13,31 0,12 3,21 9,28 5,7 12,13 20,18 15,-4 31,-8 48,-11 17,-3 35,-4 54,-4 54,0 95,12 123,36 29,24 43,54 43,92 0,23 -5,44 -15,61 -10,18 -24,33 -42,44 -18,12 -39,21 -64,26 -25,6 -52,9 -81,9 -3,0 -5,0 -8,0 -2,0 -4,-1 -7,-1 15,14 32,27 49,40 17,13 35,25 56,37 -2,18 -8,34 -19,46 -11,12 -26,18 -47,18 -21,0 -40,-7 -57,-21 -17,-14 -34,-37 -51,-67l-36 -63c-27,-7 -49,-17 -66,-31 -16,-13 -24,-29 -24,-46 0,-14 3,-25 11,-34 8,-9 17,-16 28,-20 19,18 43,32 71,45 29,12 62,18 99,18 32,0 56,-5 71,-16 16,-11 24,-25 24,-42 0,-36 -29,-53 -86,-53 -16,0 -32,1 -49,5 -17,3 -32,7 -47,12 -12,-4 -25,-10 -39,-18 -13,-7 -25,-16 -36,-27 -11,-11 -21,-23 -28,-38 -8,-14 -11,-30 -11,-48 0,-34 12,-62 35,-83 24,-21 60,-32 107,-32l120 0 0 -67 -307 0c-22,0 -32,-13 -32,-40 0,-5 0,-12 1,-19 2,-8 3,-14 6,-19l487 0 21 0 66 0c-5,-8 -9,-19 -12,-31 -3,-13 -4,-27 -4,-40 0,-53 21,-94 62,-125 42,-30 100,-45 174,-45 49,0 94,5 135,17 40,11 75,25 104,41 29,16 51,33 67,50 16,17 24,32 24,44 0,12 -6,23 -17,31 -12,8 -27,12 -46,12 -31,-34 -68,-61 -110,-81 -42,-20 -92,-30 -148,-30 -44,0 -78,8 -102,26 -24,17 -36,42 -36,74 0,11 1,21 3,31 2,11 6,19 10,26l52 0 19 0 470 0 20 0 545 0 17 0 244 0c22,0 33,14 33,40 0,5 -1,12 -3,19 -1,8 -3,15 -4,19l-90 0zm-4273 273c-159,0 -313,4 -467,-1 -110,-3 -184,-87 -184,-198 -1,-473 -1,-947 0,-1421 0,-112 83,-193 194,-193 380,0 761,0 1141,0 103,0 190,74 191,173 4,253 1,505 1,758 -60,-30 -119,-57 -175,-89 -11,-6 -13,-32 -14,-50 0,-181 0,-363 0,-545l0 -57 -1143 0 0 1431c107,0 211,1 316,-1 31,0 48,8 60,38 22,51 51,99 80,155zm784 -380c-2,-158 -132,-290 -289,-290 -154,0 -288,132 -288,284 -1,161 133,295 290,292 156,-2 288,-134 287,-286zm110 265c91,87 180,173 266,255 -48,48 -90,90 -138,138 -58,-58 -126,-119 -187,-186 -47,-53 -83,-68 -159,-36 -177,77 -350,48 -496,-82 -146,-131 -195,-297 -142,-484 53,-190 184,-308 378,-341 186,-31 346,31 460,185 113,154 124,321 49,495 -8,17 -18,32 -31,56zm355 1916c-1414,0 -2561,-1147 -2561,-2562 0,-1414 1147,-2561 2561,-2561 883,0 1660,446 2121,1124l333 0c-494,-841 -1408,-1406 -2454,-1406 -1570,0 -2842,1273 -2842,2843 0,904 421,1709 1079,2230l-416 1357 1051 -976c346,149 728,232 1128,232 1102,0 2057,-626 2529,-1542l-322 0c-445,755 -1267,1261 -2207,1261zm204 494c-442,0 -863,-81 -1249,-227l-448 329c375,147 784,228 1212,228 755,0 1450,-252 2008,-675 -456,221 -974,345 -1523,345zm-2190 -770c-696,-570 -1135,-1408 -1135,-2342 0,-1718 1489,-3111 3325,-3111 136,0 270,7 401,22 -282,-78 -579,-119 -886,-119 -1836,0 -3325,1488 -3325,3325 0,1171 606,2201 1522,2794l98 -569zm2842 -3037l0 185c0,43 -24,65 -71,65l-159 0c-50,0 -90,12 -120,35 -31,23 -46,58 -46,105 0,47 15,83 44,109 29,25 65,38 108,38 57,0 85,-22 85,-64 0,-10 -1,-21 -4,-33 -2,-11 -4,-22 -7,-32 10,-12 24,-22 42,-28 18,-7 38,-11 59,-11 35,0 65,12 90,35 26,23 39,55 39,97 0,25 -6,49 -17,70 -11,21 -26,40 -44,56 21,36 42,68 62,94 20,27 40,49 58,68 -5,29 -18,52 -39,69 -22,16 -48,25 -79,25 -32,0 -58,-11 -79,-31 -21,-21 -35,-50 -44,-87l-19 -84 -18 4c-11,2 -23,4 -36,6 -13,2 -29,3 -47,3 -50,0 -96,-6 -139,-19 -43,-13 -81,-32 -112,-57 -32,-26 -57,-58 -76,-96 -18,-38 -28,-83 -28,-133 0,-42 7,-81 21,-116 14,-36 35,-66 63,-93 28,-26 63,-47 105,-62 41,-15 90,-23 145,-23l68 0 0 -95 -447 0c-21,0 -36,-7 -45,-19 -8,-13 -12,-31 -12,-56 0,-10 1,-22 3,-36 3,-14 6,-25 9,-33l491 0c-13,-23 -29,-44 -48,-63 -24,-27 -52,-50 -81,-71 -29,-21 -58,-38 -88,-53 -30,-15 -58,-26 -83,-32 0,-5 -1,-9 -1,-13 0,-4 0,-9 0,-13 0,-33 9,-61 26,-85 18,-25 46,-37 83,-37 36,0 73,11 110,34 37,22 72,52 105,89 33,37 63,78 90,125 23,39 41,78 56,119l114 0 22 0 1162 0 23 0 114 0c-16,-28 -36,-54 -61,-77 -24,-24 -50,-45 -77,-64 -27,-19 -55,-35 -83,-48 -28,-14 -54,-24 -78,-30 -1,-5 -2,-9 -2,-13 0,-4 0,-9 0,-13 0,-33 9,-61 27,-85 18,-25 46,-37 84,-37 34,0 69,10 104,31 35,21 69,48 101,83 32,35 62,74 89,118 27,44 49,88 66,135l112 0c38,0 57,24 57,72 0,10 -2,22 -4,37 -3,15 -7,26 -11,35l-131 0 0 714c-10,3 -22,5 -36,8 -13,3 -29,4 -48,4 -43,0 -73,-7 -89,-20 -15,-14 -23,-37 -23,-68l0 -638 -69 0 -21 0 -1 0 -108 0 0 714c-11,3 -23,5 -36,8 -14,3 -30,4 -49,4 -43,0 -73,-7 -88,-20 -16,-14 -24,-37 -24,-68l0 -140c-34,16 -77,23 -130,23 -32,0 -64,-5 -93,-15 -30,-10 -57,-25 -81,-44 -23,-19 -42,-43 -56,-72 -14,-29 -21,-61 -21,-98 0,-36 6,-68 18,-94 11,-27 27,-50 47,-68 21,-18 44,-31 70,-40 27,-10 55,-14 84,-14 40,0 70,8 89,23 20,16 30,36 30,61 0,27 -8,49 -25,65 -13,-4 -28,-7 -47,-7 -24,0 -44,7 -61,21 -16,14 -25,34 -25,61 0,25 10,45 29,59 20,15 44,23 74,23 20,0 39,-3 55,-9 17,-5 31,-13 43,-22l0 -351 -480 0c17,20 31,43 41,69 9,27 14,54 14,83 0,63 -16,114 -49,154 -33,40 -76,68 -131,84 29,53 71,94 128,125 56,30 119,47 191,52 4,16 6,32 6,49 0,34 -10,60 -30,80 -20,19 -50,29 -89,29 -44,0 -85,-8 -124,-24 -39,-16 -74,-38 -106,-66 -32,-28 -60,-61 -84,-98 -25,-38 -45,-79 -59,-122 -26,-2 -47,-10 -63,-23 -16,-13 -24,-35 -24,-66 0,-17 3,-33 9,-48 6,-14 13,-26 21,-35 10,2 21,4 34,6 12,2 26,3 41,3 42,0 74,-12 96,-36 22,-23 32,-53 32,-88 0,-26 -5,-50 -16,-72 -10,-23 -24,-42 -42,-56l-173 0 -21 0 0 0 -131 0zm505 1023c0,-17 6,-33 18,-45 12,-12 28,-18 48,-18 20,0 36,6 48,18 12,12 18,28 18,45 0,18 -6,33 -18,45 -12,13 -28,19 -48,19 -20,0 -36,-6 -48,-19 -12,-12 -18,-27 -18,-45zm1198 513c27,0 50,-5 70,-15 20,-10 35,-21 47,-35l0 -247 -163 0c11,10 21,22 29,36 8,14 13,31 13,48 0,19 -4,35 -10,49 -7,14 -16,27 -28,37 -11,10 -25,19 -41,25 -16,6 -33,11 -51,14 8,24 23,45 45,62 23,17 52,26 89,26z"/>
  <path class="fil17" d="M11230 9204c-2,-12 -4,-22 -4,-32 0,-7 2,-14 5,-19 3,-6 8,-9 17,-10 37,-3 65,-11 82,-25 10,-8 17,-18 21,-29 3,8 4,16 4,26 0,22 -8,40 -25,54 -17,13 -45,21 -82,24 -9,2 -14,5 -17,10l-1 1zm-365 1l2 2c5,7 12,13 20,18 15,-4 31,-8 48,-11 17,-3 35,-4 54,-4 54,0 95,12 123,36 28,24 43,54 43,92 0,9 -1,18 -3,27 -4,-27 -18,-50 -40,-69 -28,-23 -69,-35 -123,-35 -19,0 -37,1 -54,4 -17,3 -33,7 -48,11 -8,-5 -15,-11 -20,-18 -6,-7 -9,-16 -9,-28 0,-9 2,-18 7,-25zm-116 208c-4,-7 -6,-15 -6,-24 0,-14 3,-25 11,-34 8,-8 17,-15 28,-19 18,17 42,32 71,44 28,13 62,19 99,19 32,0 55,-5 71,-16 8,-5 13,-11 17,-17 5,7 7,16 7,25 0,18 -8,32 -24,43 -16,10 -39,16 -71,16 -37,0 -71,-7 -99,-19 -29,-13 -53,-27 -71,-44 -11,4 -20,11 -28,19 -2,2 -3,5 -5,7zm4 -214c-2,-8 -2,-16 -2,-25 0,-34 12,-62 35,-83 24,-21 60,-32 107,-32l120 0 0 51 -120 0c-47,0 -83,11 -107,32 -17,15 -28,34 -33,57zm-618 6l2 2c5,7 12,13 20,18 15,-4 31,-8 48,-11 17,-3 35,-4 54,-4 54,0 95,12 123,36 29,24 43,54 43,92 0,9 -1,18 -3,26 -5,-27 -18,-49 -40,-68 -28,-23 -69,-35 -123,-35 -19,0 -37,1 -54,4 -17,3 -33,7 -48,11 -8,-5 -15,-11 -20,-18 -6,-7 -9,-16 -9,-28 0,-9 3,-18 7,-25zm134 321c14,9 28,19 44,28 -1,16 -6,30 -15,42 -15,-9 -29,-19 -41,-29 -17,-12 -34,-26 -49,-39 3,0 5,0 7,0 3,0 5,0 8,0 16,0 32,0 46,-2zm-250 -111c-4,-8 -6,-16 -6,-25 0,-14 3,-25 11,-34 8,-9 17,-16 28,-20 19,18 43,32 71,45 29,12 62,18 99,18 32,0 56,-5 71,-16 8,-5 13,-11 17,-17 5,7 7,15 7,25 0,18 -8,32 -24,43 -15,10 -39,16 -71,16 -37,0 -70,-6 -99,-19 -28,-12 -52,-27 -71,-44 -11,4 -20,11 -28,20 -2,2 -4,5 -5,8zm4 -216c-2,-8 -2,-16 -2,-25 0,-34 12,-62 35,-83 24,-21 60,-32 107,-32l120 0 0 51 -120 0c-47,0 -83,11 -107,32 -17,15 -28,34 -33,57zm-76 -224c-2,-6 -3,-14 -3,-23 0,-5 0,-12 1,-19 2,-8 3,-14 6,-19l487 0 21 0 51 0c1,7 2,13 3,19 3,13 7,24 12,32l-66 0 -21 0 -487 0c-2,3 -3,6 -4,10zm564 -107c-2,-8 -2,-17 -2,-25 0,-53 21,-94 62,-125 42,-30 100,-45 174,-45 49,0 94,5 135,17 40,11 75,25 104,41 29,16 51,33 67,50 16,17 24,32 24,44 0,9 -3,17 -10,24 -4,-5 -8,-11 -14,-17 -16,-18 -38,-34 -67,-51 -29,-16 -64,-29 -104,-41 -41,-11 -86,-17 -135,-17 -74,0 -132,16 -174,46 -35,25 -55,58 -60,99zm108 17l0 3c2,11 6,19 10,26l52 0 19 0 308 0 4 5c11,0 21,-2 30,-5l128 0 20 0 545 0 17 0 244 0c22,0 33,14 33,40 0,5 -1,12 -3,19l-1 9c-5,-11 -15,-17 -29,-17l-244 0 -17 0 -545 0 -20 0 -470 0 -19 0 -52 0c-4,-7 -8,-16 -10,-26 -2,-10 -3,-20 -3,-31 0,-8 1,-16 3,-23zm-2960 380l-27 0c-20,-35 -38,-69 -53,-104 -12,-30 -29,-39 -60,-38 -105,2 -209,1 -316,1l0 -51c107,0 211,1 316,-1 31,0 48,8 60,38 22,51 51,99 80,155zm-652 -1109c0,-171 0,-341 1,-511 0,-112 83,-193 194,-193 380,0 761,0 1141,0 103,0 190,74 191,173 2,114 2,229 2,343 0,-97 -1,-195 -2,-292 -1,-100 -88,-173 -191,-173 -380,-1 -761,-1 -1141,0 -111,0 -194,81 -194,193 -1,153 -1,306 -1,460zm860 750c13,148 141,268 289,265 147,-2 272,-119 286,-259 0,8 1,16 1,24 1,152 -131,284 -287,286 -157,3 -291,-132 -290,-292 0,-8 0,-16 1,-24zm704 262l248 237 -26 26 -240 -230c7,-13 13,-23 18,-33zm-894 -247c-3,-53 3,-109 20,-166 53,-190 184,-308 378,-341 186,-31 346,31 460,185 71,97 102,199 96,305 -5,-88 -36,-173 -96,-254 -114,-154 -274,-217 -460,-185 -194,33 -325,151 -378,340 -12,40 -18,79 -20,116zm1231 2145c-1406,0 -2547,-1133 -2561,-2536l0 25c0,1415 1147,2562 2561,2562 940,0 1762,-506 2207,-1261l295 0c9,-17 18,-34 27,-51l-322 0c-445,755 -1267,1261 -2207,1261zm2423 -3999l31 0c-494,-841 -1408,-1406 -2454,-1406 -1570,0 -2842,1273 -2842,2843l0 33c10,-1562 1278,-2825 2842,-2825 1025,0 1923,542 2423,1355zm-4199 3708l-403 1316 21 -21 395 -1285 -13 -10zm1980 785c-442,0 -863,-81 -1249,-227l-448 329c15,6 30,11 45,17l403 -295c386,146 807,227 1249,227 472,0 920,-92 1327,-258 67,-44 132,-90 196,-138 -456,221 -974,345 -1523,345zm-2190 -770c-688,-564 -1125,-1389 -1135,-2309l0 18c0,930 436,1765 1128,2335l7 -44zm2264 -5453c111,3 220,10 327,22 -282,-78 -579,-119 -886,-119 -1836,0 -3325,1488 -3325,3325l0 31c11,-1827 1495,-3306 3325,-3306 191,0 378,17 559,47zm184 2832c4,34 18,62 42,83 29,25 65,38 108,38 46,0 74,-14 82,-43 2,11 3,20 3,30 0,42 -28,63 -85,63 -43,0 -79,-12 -108,-38 -29,-25 -44,-61 -44,-108 0,-9 1,-17 2,-25zm233 33l-2 -9c-2,-11 -4,-22 -7,-32 10,-12 24,-22 42,-28 18,-7 38,-11 59,-11 35,0 65,12 90,35 26,23 39,55 39,97 0,8 -1,17 -2,25 -5,-30 -17,-53 -37,-72 -25,-23 -55,-34 -90,-34 -21,0 -41,3 -59,10 -13,5 -24,12 -33,19zm179 210c14,23 29,44 43,62 20,27 40,49 58,68 -2,14 -6,26 -12,37 -15,-15 -30,-33 -46,-54 -20,-26 -41,-58 -62,-95 7,-6 13,-12 19,-18zm-614 -244c0,-9 -1,-18 -1,-26 0,-42 7,-81 21,-116 14,-36 35,-66 63,-93 28,-26 63,-47 105,-62 41,-15 90,-23 145,-23l68 0 0 51 -68 0c-55,0 -104,7 -145,23 -42,15 -77,36 -105,62 -28,26 -49,57 -63,93 -11,28 -17,58 -20,91zm-101 -464c-1,-8 -2,-17 -2,-26 0,-10 1,-22 3,-36 3,-14 6,-25 9,-33l455 0c14,16 26,33 36,50l-491 0c-3,9 -6,20 -9,34l-1 11zm202 -314l-1 0c0,-5 -1,-9 -1,-13 0,-4 0,-9 0,-13 0,-33 9,-61 26,-85 18,-25 46,-37 83,-37 36,0 73,11 110,34 37,22 72,52 105,89 33,37 63,78 90,125 23,39 41,78 56,119l114 0 22 0 1162 0 23 0 78 0c14,16 26,33 36,50l-114 0 -23 0 -1162 0 -22 0 -114 0c-15,-40 -33,-80 -56,-119 -27,-46 -57,-87 -90,-124 -33,-37 -68,-67 -105,-90 -37,-22 -74,-33 -110,-33 -37,0 -65,12 -83,36 -13,18 -21,39 -24,61zm1604 0l0 0c-1,-5 -2,-9 -2,-13 0,-4 0,-9 0,-13 0,-33 9,-61 27,-85 18,-25 46,-37 84,-37 34,0 69,10 104,31 35,21 69,48 101,83 32,35 62,74 89,118 27,44 49,88 66,135l112 0c38,0 57,24 57,72 0,7 -1,15 -2,25 -6,-31 -25,-47 -55,-47l-112 0c-17,-46 -39,-91 -66,-135 -27,-43 -57,-83 -89,-117 -32,-35 -66,-63 -101,-83 -35,-21 -70,-31 -104,-31 -38,0 -66,12 -84,36 -13,18 -21,39 -25,61zm-479 679c-1,-8 -2,-16 -2,-24 0,-36 6,-68 18,-94 11,-27 27,-50 47,-68 21,-18 44,-31 70,-40 27,-10 55,-14 84,-14 40,0 70,8 89,23 20,16 30,36 30,61 0,10 -1,19 -3,27 -5,-14 -13,-27 -27,-37 -19,-16 -49,-24 -89,-24 -29,0 -57,5 -84,14 -26,10 -49,23 -70,41 -20,18 -36,40 -47,67 -9,20 -14,43 -16,68zm182 8c4,14 13,26 25,35 20,15 44,23 74,23 20,0 39,-3 55,-9 17,-5 31,-13 43,-22l0 51c-12,9 -26,17 -43,22 -16,6 -35,8 -55,8 -30,0 -54,-7 -74,-22 -19,-15 -29,-34 -29,-59 0,-10 1,-19 4,-27zm-250 -274c3,7 5,13 8,19 9,27 14,54 14,83 0,9 0,18 -1,27 -2,-20 -6,-40 -13,-59 -10,-26 -24,-49 -41,-70l33 0zm-131 381c27,34 60,62 101,84 56,30 119,47 191,52 4,16 6,32 6,49 0,8 0,16 -1,24 -2,-7 -3,-15 -5,-22 -72,-5 -135,-22 -191,-53 -57,-30 -99,-72 -128,-124 10,-3 19,-6 27,-10zm-279 -79c-2,-8 -2,-16 -2,-26 0,-17 3,-33 9,-48 6,-14 13,-26 21,-35 10,2 21,4 34,6 12,2 26,3 41,3 42,0 74,-12 96,-36 16,-18 27,-39 31,-63 1,8 1,17 1,26 0,35 -10,64 -32,88 -22,23 -54,35 -96,35 -15,0 -29,-1 -41,-3 -13,-1 -24,-3 -34,-5 -8,9 -15,21 -21,35 -3,7 -6,15 -7,23zm353 671c0,-17 6,-33 18,-45 12,-12 28,-18 48,-18 20,0 36,6 48,18 12,12 18,28 18,45 0,9 -1,18 -5,26 -2,-8 -7,-14 -13,-20 -12,-12 -28,-18 -48,-18 -20,0 -36,6 -48,18 -6,6 -10,12 -13,20 -4,-8 -5,-17 -5,-26zm1198 513c27,0 50,-5 70,-15 20,-10 35,-21 47,-35l0 51c-12,13 -27,25 -47,35 -20,10 -43,14 -70,14 -37,0 -66,-8 -89,-25 -22,-17 -37,-38 -45,-62 9,-2 18,-4 27,-6 5,6 11,12 18,17 23,17 52,26 89,26zm-10 -246c4,10 6,22 6,33 0,10 -1,19 -3,28 -2,-9 -5,-17 -10,-25 -8,-14 -18,-26 -29,-36l36 0z"/>
  <g id="_874644544">
   <g>
    <path class="fil18" d="M7373 1295c51,277 102,555 152,833 -13,6 -26,12 -39,17 -17,7 -36,12 -54,16 -30,6 -78,12 -106,-4 -26,-15 -38,-45 -44,-72 -54,-247 -108,-493 -162,-739 -29,6 -59,13 -88,20l-2 0 -1 0 -1 0 -1 1 -1 0 -1 0 -1 0 -1 1 -2 0 0 0 -2 0 -1 1 0 0 -2 0 -2 1 -1 0 -1 0 -1 0 -1 1 -1 0 -1 0 -1 0 -2 1 0 0 -1 0 -1 0c-46,11 -93,23 -139,35 70,273 141,546 211,820 -12,7 -24,13 -36,19 -17,9 -35,15 -53,20 -30,8 -76,18 -105,4 -27,-13 -41,-42 -49,-70 -21,-68 -41,-136 -61,-204 -23,23 -49,43 -78,60 -31,19 -65,34 -99,45 -91,30 -185,39 -274,1 -92,-39 -149,-121 -184,-212 -29,-74 -57,-148 -86,-222l-44 18 0 0 -1 0 -1 1 -1 0 -1 0 -2 1 -1 1 -1 0 -1 0 -1 1 0 0 -2 0 0 1 -1 0 -1 0 -1 1 0 0 -2 0 0 0 -1 1 -1 0 -1 1 -1 0 -1 0 0 0 -2 1 -1 0 -1 1 -1 0 0 0 -1 1 -2 0 0 0 -1 1 -1 0 0 0 -2 1 -2 1 -1 0 0 1 -2 0 -1 0 0 0c-39,16 -79,33 -118,49 110,260 220,520 330,780 -11,9 -23,17 -34,26 -16,10 -33,19 -50,27 -28,12 -73,29 -104,19 -28,-8 -46,-35 -58,-61 -107,-229 -213,-457 -320,-686 -27,13 -54,25 -81,38l0 0 -1 1 -1 1 0 0 -2 1 0 0 -2 0 -1 1 0 0 -2 1 0 0 -2 1 -1 0 0 1 -2 0 0 0 -2 1 -1 1 0 0 -2 1 0 0 -2 1 0 0 -1 0 -2 1 0 0 -2 1 0 0 -1 0 -1 1 0 0 -1 0 0 1c-42,20 -84,41 -126,62 129,252 257,503 386,754 -11,10 -22,19 -33,28 -15,12 -31,22 -48,31 -27,14 -70,34 -102,27 -29,-7 -49,-32 -63,-57 -44,-79 -88,-158 -132,-237 -77,43 -153,88 -228,133 12,41 12,81 -3,121 -16,43 -49,74 -87,99 -40,26 -90,49 -140,41 -40,-7 -73,-26 -97,-60 -20,-30 -28,-65 -31,-101 12,-8 24,-16 36,-24 18,-12 32,-28 37,-49 5,-22 -4,-43 -16,-61 -43,-67 -87,-133 -130,-199 -9,-14 -21,-25 -38,-26 -16,-1 -30,4 -43,12 -12,9 -23,19 -28,33 -5,13 -3,26 2,38 -8,9 -17,18 -27,25 -26,17 -56,31 -88,28 -30,-2 -52,-18 -70,-42 -13,-19 -21,-40 -23,-63 -1,-24 4,-47 13,-68 11,-25 27,-48 45,-67 21,-24 46,-44 73,-61 65,-44 147,-83 227,-78 71,5 122,44 158,103 48,79 96,159 144,238 75,-45 150,-88 226,-131 -49,-88 -99,-177 -148,-265 -31,17 -61,35 -92,52 -18,11 -41,19 -62,10 -21,-8 -37,-29 -48,-48 -7,-13 -13,-26 -17,-40 -5,-12 -9,-26 -10,-40 150,-87 303,-170 458,-247l0 0 5 -3 2 -1 6 -3 2 0 6 -3 1 -1 7 -3 0 0c145,-72 293,-138 442,-200l3 -1 8 -3 6 -2 2 -1 8 -4 6 -2 2 -1 9 -3 2 -1c335,-136 680,-246 1031,-332l9 -2 3 0 2 -1 1 0c172,-41 346,-77 520,-105 55,-9 81,20 89,72 2,14 2,30 1,44 0,14 -2,30 -8,43 -56,9 -112,19 -169,29zm4902 844c-26,46 -53,92 -79,138 32,0 65,5 96,14 39,12 75,30 109,51 39,24 73,53 101,88 26,33 46,70 57,110 10,41 12,81 5,122 -8,46 -28,88 -54,126 -25,37 -56,70 -94,94 -33,21 -69,37 -107,44 -37,7 -73,6 -109,-2 -37,-7 -71,-21 -102,-41 -65,-40 -112,-95 -67,-170 7,-13 16,-24 27,-34 10,-8 21,-16 33,-22 12,11 26,21 40,29 28,17 58,24 90,19 36,-5 62,-30 81,-60 19,-30 26,-63 15,-98 -12,-37 -40,-64 -73,-83 -22,-14 -47,-24 -73,-27 -23,-3 -47,-2 -69,4 -83,144 -166,288 -248,432 -14,-3 -28,-7 -41,-11 -18,-6 -36,-15 -52,-24 -27,-15 -67,-40 -78,-70 -11,-29 -1,-59 12,-85 13,-24 26,-49 39,-74 -31,3 -62,0 -92,-6 -37,-7 -72,-21 -105,-37 -37,-18 -70,-41 -99,-70 -28,-28 -50,-61 -66,-97 -16,-38 -24,-78 -25,-120 -1,-47 11,-94 30,-137 18,-41 42,-79 76,-109 30,-27 63,-47 102,-59 37,-11 76,-14 115,-10 41,4 80,16 117,34 37,18 83,46 101,85 16,31 15,62 -1,93 -14,26 -33,47 -60,60 -7,-6 -13,-12 -20,-18 -9,-8 -21,-14 -32,-19 -31,-16 -64,-22 -98,-14 -36,8 -59,34 -74,66 -16,33 -19,66 -5,100 15,36 44,60 78,77 24,12 51,21 79,23 23,1 46,-2 67,-9 76,-142 151,-285 226,-428 -173,-91 -350,-176 -530,-253l-3 -1 -2 -1 0 0 -3 -1 -2 -1 -3 -1 -1 -1 -9 -3 -2 -1 -3 -1 -2 -1 -2 -1 -1 -1 0 0 -1 0 -1 0 0 -1c-42,-17 -83,-34 -125,-51 -105,262 -210,524 -314,786 -14,-1 -28,-3 -42,-5 -19,-4 -37,-10 -55,-16 -29,-11 -71,-31 -87,-59 -14,-26 -8,-58 1,-85 13,-36 26,-72 39,-108 -39,6 -78,6 -117,3 -47,-4 -93,-15 -137,-29 -82,-25 -158,-64 -220,-123 -56,-53 -96,-112 -119,-186 -9,-31 -16,-61 -19,-94 -3,-28 -3,-58 3,-85 4,-14 10,-26 21,-34 14,-10 35,-9 50,-6 45,6 92,10 137,11 38,0 76,-2 113,-10 30,-6 59,-17 83,-35 23,-17 38,-40 47,-68 7,-22 8,-47 -4,-68 -11,-20 -28,-32 -50,-38 -21,-6 -42,-6 -61,4 -20,10 -31,29 -37,50 -3,12 -6,26 -5,39 1,9 2,20 5,29 -16,10 -36,14 -54,15 -25,1 -50,-2 -73,-9 -18,-4 -35,-11 -51,-21 -15,-10 -28,-22 -39,-36 -11,-15 -17,-33 -20,-51 -4,-23 -1,-45 4,-67 7,-29 21,-55 41,-78 22,-24 49,-42 80,-54 37,-14 77,-19 116,-20 49,-1 99,7 146,21 48,14 95,34 137,63 33,24 64,54 85,89 19,33 31,68 33,106 3,39 -3,77 -15,113 -14,40 -35,76 -66,104 -31,28 -65,49 -103,64 -42,16 -86,25 -130,29 -49,4 -98,3 -146,-2 7,40 31,75 60,103 37,38 86,62 136,78 42,13 85,21 130,19 37,-2 75,-9 110,-24 61,-169 121,-338 182,-507 6,-16 16,-29 33,-37 4,-2 8,-3 12,-4l-20 -7c-24,-39 -39,-82 -44,-127 -5,-44 -2,-88 12,-130 12,-33 29,-63 54,-89 25,-24 55,-42 88,-52 37,-12 75,-15 114,-13 45,3 90,14 132,31 44,17 115,49 140,93 17,30 22,62 8,94 -11,27 -28,49 -56,59 -11,-10 -23,-18 -35,-25 -14,-9 -29,-16 -44,-22 -35,-14 -71,-17 -107,-6 -38,12 -60,39 -74,75 -12,31 -15,63 -10,96 5,28 12,55 22,81 40,15 80,31 119,48l3 1 4 1 14 6 2 1 2 1 5 2 5 2 2 1c475,199 929,447 1352,740 45,31 42,71 12,113 -8,12 -19,23 -29,33 -10,10 -22,20 -35,26 -181,-127 -367,-246 -559,-356zm-3230 -951c-14,281 -29,563 -44,845 -13,4 -27,6 -41,8 -19,3 -39,3 -58,3 -31,-2 -77,-6 -101,-28 -22,-20 -27,-52 -26,-81 1,-94 3,-188 4,-282 -19,3 -37,5 -56,7 -7,1 -49,5 -53,4 0,-1 -7,0 -7,0 -45,0 -89,-6 -133,-15 -45,-8 -88,-23 -128,-46 -21,13 -43,24 -66,33 -25,10 -50,17 -76,22 39,56 87,103 143,141 51,36 106,67 164,90 0,40 -11,77 -35,108 -27,35 -67,47 -110,49 -34,1 -67,-7 -99,-20 -36,-16 -69,-41 -98,-68 -36,-34 -67,-74 -93,-115 -33,-50 -59,-104 -79,-159 -28,-1 -60,-7 -80,-28 -19,-19 -27,-43 -30,-69 -2,-18 -1,-36 5,-54 5,-17 12,-32 23,-46 19,2 39,2 58,2 23,-1 46,-2 69,-4 48,-4 104,-16 140,-51 30,-30 43,-67 41,-109 -1,-25 -7,-48 -17,-71 -9,-22 -22,-43 -36,-63 -119,8 -238,18 -357,31 -21,3 -45,1 -60,-15 -16,-17 -22,-42 -25,-64 -2,-14 -1,-29 0,-43 0,-13 2,-28 7,-41 299,-34 578,-51 879,-52 27,-8 360,9 474,15l0 0 14 1 5 1 0 0 4 0 3 0 4 0c389,27 777,84 1157,172 54,12 67,50 54,100 -3,14 -9,29 -14,42 -6,13 -13,27 -23,37 -56,-13 -111,-26 -167,-38 -59,276 -118,552 -177,828 -14,1 -28,1 -43,1 -18,0 -37,-2 -55,-6 -31,-6 -77,-18 -97,-43 -18,-24 -18,-56 -13,-84 16,-89 32,-178 47,-267 -94,-16 -188,-31 -282,-43 -36,93 -107,126 -204,116 -48,-5 -101,-19 -134,-56 -27,-31 -40,-67 -37,-108 3,-36 16,-69 39,-97 13,1 27,2 41,3 21,2 42,-2 59,-16 17,-14 24,-35 26,-57 10,-98 20,-197 30,-295 -55,-6 -110,-10 -165,-15l-1 0 -2 0 -8 0 -2 -1 -1 0 -5 0 0 0 -3 0 0 0 -3 0 -1 0 -1 -1 0 0 -1 0 -1 0 -1 0 0 0c-47,-3 -94,-6 -141,-8zm-423 289c6,0 45,-1 48,-3 42,-5 73,-12 113,-28 1,-89 2,-178 4,-267 -14,0 -113,0 -117,-1 -8,-3 -161,2 -182,2 14,26 26,52 36,80 11,30 16,61 16,93 1,40 -7,78 -22,115 34,6 69,9 104,9zm975 67c93,12 186,27 278,43 17,-100 35,-200 53,-299 -97,-17 -193,-32 -290,-45 -14,100 -27,200 -41,301zm-3009 364c27,-9 53,-21 76,-38 19,-15 37,-32 49,-52 -126,-46 -253,-88 -381,-126 11,34 23,68 35,101 15,44 41,97 86,117 42,19 92,12 135,-2zm93 -217c-21,-72 -43,-144 -64,-216 -103,30 -206,63 -308,98 125,36 249,75 372,118z"/>
    <path class="fil19" d="M7373 1248c51,278 102,556 152,833 -13,7 -26,12 -39,18 -17,7 -36,12 -54,15 -30,6 -78,13 -106,-3 -26,-15 -38,-45 -44,-73 -54,-246 -108,-493 -162,-739 -29,7 -59,13 -88,20l-2 0 -1 1 -1 0 -1 0 -1 0 -1 1 -1 0 -1 0 -2 1 0 0 -2 0 -1 0 0 0 -2 1 -2 0 -1 0 -1 1 -1 0 -1 0 -1 0 -1 1 -1 0 -2 0 0 0 -1 1 -1 0c-46,11 -93,22 -139,34 70,273 141,547 211,820 -12,7 -24,14 -36,20 -17,8 -35,14 -53,19 -30,8 -76,18 -105,4 -27,-13 -41,-42 -49,-69 -21,-68 -41,-136 -61,-205 -23,24 -49,44 -78,61 -31,19 -65,33 -99,45 -91,29 -185,39 -274,1 -92,-39 -149,-122 -184,-212 -29,-74 -57,-148 -86,-222l-44 17 0 0 -1 1 -1 0 -1 0 -1 1 -2 1 -1 0 -1 0 -1 1 -1 0 0 0 -2 1 0 0 -1 0 -1 1 -1 0 0 0 -2 1 0 0 -1 0 -1 1 -1 0 -1 0 -1 1 0 0 -2 1 -1 0 -1 0 -1 1 0 0 -1 0 -2 1 0 0 -1 0 -1 1 0 0 -2 1 -2 1 -1 0 0 0 -2 1 -1 0 0 0c-39,16 -79,32 -118,49 110,260 220,520 330,780 -11,9 -23,17 -34,25 -16,11 -33,19 -50,27 -28,12 -73,29 -104,20 -28,-9 -46,-36 -58,-62 -107,-228 -213,-457 -320,-685 -27,12 -54,25 -81,38l0 0 -1 0 -1 1 0 0 -2 1 0 0 -2 1 -1 0 0 1 -2 0 0 1 -2 0 -1 1 0 0 -2 1 0 0 -2 1 -1 0 0 1 -2 0 0 0 -2 1 0 0 -1 1 -2 1 0 0 -2 1 0 0 -1 0 -1 0 0 1 -1 0 0 0c-42,20 -84,42 -126,63 129,251 257,502 386,754 -11,9 -22,19 -33,28 -15,11 -31,21 -48,30 -27,15 -70,35 -102,27 -29,-6 -49,-32 -63,-57 -44,-78 -88,-157 -132,-236 -77,43 -153,87 -228,133 12,40 12,81 -3,120 -16,43 -49,75 -87,99 -40,26 -90,49 -140,41 -40,-7 -73,-26 -97,-60 -20,-29 -28,-65 -31,-100 12,-8 24,-16 36,-24 18,-12 32,-28 37,-49 5,-22 -4,-44 -16,-62 -43,-66 -87,-133 -130,-199 -9,-13 -21,-25 -38,-26 -16,-1 -30,4 -43,13 -12,8 -23,19 -28,33 -5,12 -3,25 2,37 -8,10 -17,18 -27,25 -26,18 -56,31 -88,29 -30,-3 -52,-19 -70,-43 -13,-18 -21,-39 -23,-63 -1,-23 4,-46 13,-68 11,-25 27,-47 45,-67 21,-23 46,-43 73,-61 65,-43 147,-83 227,-77 71,4 122,43 158,102 48,80 96,159 144,239 75,-45 150,-89 226,-131 -49,-89 -99,-177 -148,-265 -31,17 -61,34 -92,52 -18,10 -41,19 -62,10 -21,-9 -37,-30 -48,-49 -7,-12 -13,-26 -17,-39 -5,-12 -9,-27 -10,-40 150,-88 303,-171 458,-248l0 0 5 -2 2 -1 6 -3 2 -1 6 -3 1 0 7 -4 0 0c145,-71 293,-138 442,-199l3 -1 8 -4 6 -2 2 -1 8 -3 6 -3 2 -1 9 -3 2 -1c335,-135 680,-246 1031,-331l9 -2 3 -1 2 0 1 -1c172,-41 346,-76 520,-105 55,-9 81,21 89,72 2,15 2,30 1,45 0,14 -2,30 -8,43 -56,9 -112,18 -169,28zm4902 845c-26,46 -53,92 -79,138 32,-1 65,5 96,14 39,11 75,30 109,50 39,24 73,53 101,89 26,33 46,69 57,110 10,40 12,81 5,122 -8,45 -28,87 -54,125 -25,37 -56,70 -94,95 -33,21 -69,36 -107,43 -37,7 -73,7 -109,-1 -37,-8 -71,-22 -102,-41 -65,-40 -112,-95 -67,-171 7,-12 16,-24 27,-33 10,-9 21,-17 33,-23 12,11 26,21 40,30 28,17 58,24 90,19 36,-6 62,-30 81,-60 19,-31 26,-63 15,-98 -12,-37 -40,-64 -73,-84 -22,-13 -47,-24 -73,-27 -23,-2 -47,-1 -69,4 -83,145 -166,289 -248,433 -14,-3 -28,-8 -41,-12 -18,-6 -36,-14 -52,-23 -27,-16 -67,-40 -78,-71 -11,-28 -1,-59 12,-84 13,-25 26,-50 39,-74 -31,2 -62,-1 -92,-7 -37,-7 -72,-20 -105,-37 -37,-18 -70,-41 -99,-70 -28,-28 -50,-60 -66,-97 -16,-38 -24,-78 -25,-119 -1,-48 11,-94 30,-138 18,-41 42,-79 76,-109 30,-26 63,-46 102,-58 37,-11 76,-15 115,-11 41,5 80,16 117,34 37,18 83,47 101,85 16,32 15,63 -1,94 -14,26 -33,47 -60,59 -7,-6 -13,-11 -20,-17 -9,-8 -21,-15 -32,-20 -31,-16 -64,-22 -98,-14 -36,9 -59,35 -74,67 -16,33 -19,66 -5,100 15,35 44,59 78,76 24,12 51,22 79,23 23,1 46,-1 67,-8 76,-143 151,-286 226,-428 -173,-92 -350,-176 -530,-253l-3 -1 -2 -1 0 0 -3 -1 -2 -2 -3 -1 -1 0 -9 -4 -2 -1 -3 -1 -2 -1 -2 -1 -1 0 0 0 -1 -1 -1 0 0 0c-42,-18 -83,-35 -125,-51 -105,262 -210,524 -314,786 -14,-1 -28,-4 -42,-6 -19,-3 -37,-9 -55,-16 -29,-11 -71,-30 -87,-59 -14,-26 -8,-58 1,-85 13,-36 26,-72 39,-108 -39,6 -78,7 -117,3 -47,-3 -93,-14 -137,-28 -82,-26 -158,-65 -220,-124 -56,-52 -96,-112 -119,-185 -9,-31 -16,-62 -19,-95 -3,-28 -3,-57 3,-85 4,-13 10,-25 21,-34 14,-10 35,-8 50,-6 45,7 92,11 137,11 38,1 76,-1 113,-9 30,-6 59,-17 83,-36 23,-17 38,-40 47,-67 7,-23 8,-48 -4,-69 -11,-19 -28,-31 -50,-38 -21,-6 -42,-6 -61,4 -20,11 -31,29 -37,51 -3,12 -6,25 -5,38 1,10 2,20 5,30 -16,10 -36,13 -54,14 -25,2 -50,-2 -73,-8 -18,-5 -35,-12 -51,-22 -15,-9 -28,-21 -39,-35 -11,-16 -17,-33 -20,-52 -4,-22 -1,-45 4,-67 7,-29 21,-55 41,-77 22,-25 49,-42 80,-54 37,-14 77,-20 116,-21 49,-1 99,8 146,21 48,14 95,35 137,64 33,24 64,53 85,89 19,32 31,68 33,105 3,39 -3,77 -15,114 -14,40 -35,75 -66,104 -31,27 -65,48 -103,63 -42,17 -86,26 -130,29 -49,4 -98,3 -146,-2 7,41 31,75 60,104 37,37 86,61 136,77 42,14 85,21 130,19 37,-1 75,-8 110,-24 61,-168 121,-337 182,-506 6,-17 16,-30 33,-37 4,-2 8,-3 12,-4l-20 -8c-24,-39 -39,-81 -44,-127 -5,-43 -2,-87 12,-129 12,-33 29,-64 54,-89 25,-25 55,-42 88,-53 37,-11 75,-15 114,-13 45,3 90,15 132,31 44,18 115,50 140,94 17,30 22,61 8,94 -11,26 -28,48 -56,58 -11,-9 -23,-17 -35,-25 -14,-8 -29,-15 -44,-21 -35,-14 -71,-18 -107,-6 -38,11 -60,38 -74,74 -12,31 -15,64 -10,97 5,27 12,54 22,80 40,16 80,32 119,48l3 1 4 2 14 6 2 1 2 1 5 1 5 2 2 2c475,199 929,447 1352,740 45,31 42,71 12,112 -8,12 -19,24 -29,34 -10,10 -22,20 -35,25 -181,-127 -367,-245 -559,-355zm-3230 -952c-14,282 -29,564 -44,846 -13,3 -27,5 -41,7 -19,3 -39,4 -58,3 -31,-1 -77,-5 -101,-27 -22,-21 -27,-53 -26,-81 1,-94 3,-189 4,-283 -19,3 -37,6 -56,8 -7,1 -49,4 -53,3 0,0 -7,0 -7,0 -45,0 -89,-6 -133,-14 -45,-9 -88,-23 -128,-46 -21,13 -43,24 -66,33 -25,10 -50,17 -76,21 39,56 87,103 143,142 51,35 106,67 164,90 0,40 -11,76 -35,108 -27,34 -67,47 -110,48 -34,2 -67,-6 -99,-20 -36,-16 -69,-40 -98,-68 -36,-34 -67,-73 -93,-114 -33,-50 -59,-104 -79,-160 -28,-1 -60,-6 -80,-28 -19,-19 -27,-42 -30,-68 -2,-19 -1,-37 5,-54 5,-17 12,-33 23,-46 19,2 39,2 58,1 23,0 46,-1 69,-3 48,-4 104,-16 140,-52 30,-30 43,-66 41,-109 -1,-24 -7,-48 -17,-70 -9,-23 -22,-43 -36,-63 -119,7 -238,17 -357,31 -21,2 -45,1 -60,-16 -16,-16 -22,-42 -25,-64 -2,-14 -1,-28 0,-42 0,-14 2,-29 7,-41 299,-34 578,-51 879,-52 27,-9 360,8 474,15l0 0 14 1 5 0 0 0 4 0 3 1 4 0c389,26 777,84 1157,171 54,13 67,50 54,101 -3,14 -9,28 -14,42 -6,12 -13,26 -23,36 -56,-13 -111,-25 -167,-37 -59,276 -118,552 -177,828 -14,1 -28,1 -43,1 -18,0 -37,-3 -55,-6 -31,-6 -77,-18 -97,-44 -18,-23 -18,-56 -13,-84 16,-89 32,-177 47,-266 -94,-17 -188,-31 -282,-44 -36,93 -107,126 -204,116 -48,-5 -101,-18 -134,-56 -27,-31 -40,-66 -37,-107 3,-37 16,-69 39,-98 13,1 27,2 41,4 21,1 42,-2 59,-16 17,-15 24,-36 26,-57 10,-99 20,-197 30,-296 -55,-5 -110,-10 -165,-14l-1 0 -2 0 -8 -1 -2 0 -1 0 -5 0 0 -1 -3 0 0 0 -3 0 -1 0 -1 0 0 0 -1 0 -1 0 -1 0 0 0c-47,-4 -94,-6 -141,-9zm-423 289c6,0 45,-1 48,-2 42,-5 73,-12 113,-28 1,-89 2,-179 4,-268 -14,0 -113,1 -117,-1 -8,-2 -161,2 -182,3 14,25 26,52 36,79 11,30 16,62 16,93 1,40 -7,79 -22,116 34,6 69,8 104,8zm975 67c93,13 186,27 278,43 17,-99 35,-199 53,-299 -97,-17 -193,-32 -290,-45 -14,101 -27,201 -41,301zm-3009 364c27,-8 53,-21 76,-38 19,-14 37,-31 49,-52 -126,-45 -253,-87 -381,-125 11,34 23,67 35,101 15,44 41,97 86,117 42,19 92,11 135,-3zm93 -217c-21,-72 -43,-144 -64,-216 -103,31 -206,64 -308,99 125,35 249,74 372,117z"/>
    <path class="fil10" d="M7382 1293l143 788 -8 4 -144 -790 9 -2zm-507 111l200 776 -10 6 -201 -779 11 -3zm-1010 339l313 741 -15 11 -315 -745 17 -7zm-470 218l367 717c-6,5 -11,9 -17,14l-369 -722 19 -9zm-231 684c1,12 1,25 -1,38 -1,-11 -4,-22 -7,-34l8 -4zm-359 100c-4,-14 -6,-28 -7,-42 12,-8 24,-16 36,-24 15,-10 28,-23 34,-40 4,12 6,24 3,37 -5,21 -19,37 -37,49l-29 20zm-393 -356c-1,-5 -1,-10 -2,-15 -1,-23 4,-46 13,-68 11,-25 27,-47 45,-67 21,-23 46,-43 73,-61 65,-43 147,-83 227,-77 71,4 122,43 158,102 48,80 96,159 144,239 68,-41 137,-81 206,-120l20 35c-76,43 -151,86 -226,131 -48,-79 -96,-159 -144,-238 -36,-59 -87,-98 -158,-103 -80,-5 -162,34 -227,78 -27,17 -52,37 -73,61 -18,19 -34,42 -45,67 -5,11 -9,23 -11,36zm517 -368l0 -1c-5,-12 -9,-27 -10,-40 150,-88 303,-171 458,-248l0 0 5 -2 2 -1 6 -3 2 -1 6 -3 1 0 7 -4 0 0c145,-71 293,-138 442,-199l3 -1 8 -4 6 -2 2 -1 8 -3 6 -3 2 -1 9 -3 2 -1c335,-135 680,-246 1031,-331l9 -2 3 -1 2 0 1 -1c172,-41 346,-76 520,-105 55,-9 81,21 89,72 2,15 2,30 1,45l0 8 -1 -6c-8,-52 -34,-81 -89,-72 -174,28 -348,64 -520,105l-1 0 -2 1 -3 0 -9 2c-351,86 -696,196 -1031,332l-2 1 -9 3 -2 1 -6 2 -8 4 -2 1 -6 2 -8 3 -3 1c-149,62 -297,128 -442,200l0 0 -7 3 -1 1 -6 3 -2 0 -6 3 -2 1 -5 3 0 0c-152,75 -302,156 -448,242zm7293 211c24,2 47,6 70,13 39,11 75,30 109,50 39,24 73,53 101,89 26,33 46,69 57,110 8,31 11,63 8,94 -1,-16 -4,-32 -8,-48 -11,-40 -31,-77 -57,-110 -28,-35 -62,-64 -101,-88 -34,-21 -70,-39 -109,-51 -31,-9 -64,-14 -96,-14l26 -45zm-206 515c-6,-24 -3,-51 15,-81 7,-12 16,-24 27,-33 10,-9 21,-17 33,-23 12,11 26,21 40,30 28,17 58,24 90,19 36,-6 62,-30 81,-60 9,-14 15,-28 18,-42 7,31 -1,61 -18,88 -19,30 -45,55 -81,60 -32,5 -62,-2 -90,-19 -14,-8 -28,-18 -40,-29 -12,6 -23,14 -33,22 -11,10 -20,21 -27,34 -7,11 -12,23 -15,34zm-335 -29c-8,-28 1,-57 14,-81l14 -27c9,0 17,0 25,-1 -13,25 -26,50 -39,74 -5,11 -10,23 -14,35zm-333 -465c0,-7 -1,-14 -1,-20 -1,-48 11,-94 30,-138 18,-41 42,-79 76,-109 30,-26 63,-46 102,-58 37,-11 76,-15 115,-11 41,5 80,16 117,34 37,18 83,47 101,85 12,23 14,46 8,68 -1,-7 -4,-14 -8,-21 -18,-39 -64,-67 -101,-85 -37,-18 -76,-30 -117,-34 -39,-4 -78,-1 -115,10 -39,12 -72,32 -102,59 -34,30 -58,68 -76,109 -15,35 -26,73 -29,111zm244 31c1,7 3,14 6,21 15,35 44,59 78,76 24,12 51,22 79,23 23,1 46,-1 67,-8l207 -392 19 10c-75,143 -150,286 -226,428 -21,7 -44,10 -67,9 -28,-2 -55,-11 -79,-23 -34,-17 -63,-41 -78,-77 -9,-23 -11,-45 -6,-67zm-738 55c-6,-23 -1,-48 7,-70l21 -59c6,-1 12,-1 18,-2 -13,36 -26,72 -39,108 -3,7 -5,15 -7,23zm-567 -616c-2,-25 -1,-51 4,-76 4,-13 10,-25 21,-34 14,-10 35,-8 50,-6 45,7 92,11 137,11 38,1 76,-1 113,-9 30,-6 59,-17 83,-36 23,-17 38,-40 47,-67l2 -8c5,17 3,36 -2,54 -9,28 -24,51 -47,68 -24,18 -53,29 -83,35 -37,8 -75,10 -113,10 -45,-1 -92,-5 -137,-11 -15,-3 -36,-4 -50,6 -11,8 -17,20 -21,34 -2,9 -3,19 -4,29zm300 -211c1,3 2,6 3,10l-5 2c1,-4 2,-8 2,-12zm-234 -92l0 -1c-3,-17 -2,-34 1,-51 7,-9 12,-20 17,-30 5,-13 11,-28 14,-42l2 -8c4,-4 7,-9 11,-13 22,-25 49,-42 80,-54 37,-14 77,-20 116,-21 49,-1 99,8 146,21 48,14 95,35 137,64 33,24 64,53 85,89 19,32 31,68 33,105 2,15 1,29 0,43 -3,-36 -14,-70 -33,-102 -21,-35 -52,-65 -85,-89 -42,-29 -89,-49 -137,-63 -47,-14 -97,-22 -146,-21 -39,1 -79,6 -116,20 -31,12 -58,30 -80,54 -20,23 -34,49 -41,78 -2,7 -3,14 -4,21zm199 415c11,21 26,39 43,56 37,37 86,61 136,77 42,14 85,21 130,19 37,-1 75,-8 110,-24 61,-168 121,-337 182,-506 3,-9 7,-17 13,-23 4,7 8,14 12,21l20 7c-4,1 -8,2 -12,4 -17,8 -27,21 -33,37 -61,169 -121,338 -182,507 -35,15 -73,22 -110,24 -45,2 -88,-6 -130,-19 -50,-16 -99,-40 -136,-78 -29,-28 -53,-63 -60,-103l17 1zm581 -568c-3,-39 1,-78 13,-115 12,-33 29,-64 54,-89 25,-25 55,-42 88,-53 37,-11 75,-15 114,-13 45,3 90,15 132,31 44,18 115,50 140,94 14,25 20,52 13,79 -3,-11 -7,-22 -13,-33 -25,-44 -96,-76 -140,-93 -42,-17 -87,-28 -132,-31 -39,-2 -77,1 -114,13 -33,10 -63,28 -88,52 -25,26 -42,56 -54,89 -7,23 -12,46 -13,69zm222 118l1 8c5,27 12,54 22,80 40,16 80,32 119,48l3 1 4 2 14 6 2 1 2 1 5 1 5 2 2 2c475,199 929,447 1352,740 33,23 40,50 30,80 -5,-12 -15,-23 -30,-34 -423,-293 -877,-541 -1352,-740l-2 -1 -5 -2 -5 -2 -2 -1 -2 -1 -14 -6 -4 -1 -3 -1c-39,-17 -79,-33 -119,-48 -10,-26 -17,-53 -22,-81 -3,-18 -3,-36 -1,-54zm-2580 521c0,-6 0,-12 0,-17l3 -236 1 0 -4 253zm-485 -255c33,39 70,73 113,102 51,35 106,67 164,90 0,15 -2,30 -5,44 -56,-22 -109,-53 -159,-88 -56,-38 -104,-85 -143,-141 10,-2 20,-4 30,-7zm-346 -102l-1 -8c-2,-19 -1,-37 5,-54 5,-17 12,-33 23,-46 19,2 39,2 58,1 23,0 46,-1 69,-3 48,-4 104,-16 140,-52 23,-22 36,-48 40,-77 0,5 1,10 1,15 2,42 -11,79 -41,109 -36,35 -92,47 -140,51 -23,2 -46,3 -69,4 -19,0 -39,0 -58,-2 -11,14 -18,29 -23,46 -2,5 -3,11 -4,16zm-160 -454c-2,-14 -1,-28 0,-41 0,-14 2,-29 7,-41 299,-34 578,-51 879,-52 27,-9 360,8 474,15l0 0 14 1 5 0 0 0 4 0 3 1 4 0c389,26 777,84 1157,171 51,12 65,47 56,93 -6,-22 -24,-39 -56,-46 -380,-88 -768,-145 -1157,-172l-4 0 -3 0 -4 0 0 0 -5 -1 -14 -1 0 0c-114,-6 -447,-23 -474,-15 -301,1 -580,18 -879,52 -4,11 -6,24 -7,36zm2011 944c-3,-18 -2,-36 1,-53l39 -221 8 1c-15,89 -31,178 -47,267l-1 6zm-608 -376c-2,-11 -2,-23 -1,-34 3,-37 16,-69 39,-98 13,1 27,2 41,4 21,1 42,-2 59,-16 17,-15 24,-36 26,-57l25 -250 5 1c-10,98 -20,197 -30,295 -2,22 -9,43 -26,57 -17,14 -38,18 -59,16 -14,-1 -28,-2 -41,-3 -20,25 -33,53 -38,85zm-565 -233c6,0 45,-1 48,-2 42,-5 73,-12 113,-28l3 -221 1 0c-2,89 -3,178 -4,267 -40,16 -71,23 -113,28 -3,2 -42,3 -48,3 -35,0 -70,-3 -104,-9 6,-14 11,-29 14,-44 30,4 60,6 90,6zm-111 -251c4,12 9,23 13,34 11,30 16,62 16,93 1,10 0,19 -1,28 -1,-25 -6,-50 -15,-74 -10,-28 -22,-54 -36,-80l23 -1zm1092 319c91,12 182,26 272,42l45 -254 8 2c-18,99 -36,199 -53,299 -92,-16 -185,-31 -278,-43l6 -46zm-3015 363c27,-8 53,-21 76,-38 7,-5 13,-10 19,-16l30 11c-12,20 -30,37 -49,52 -23,17 -49,29 -76,38 -43,14 -93,21 -135,2 -45,-20 -71,-73 -86,-117 -12,-33 -24,-67 -35,-101l18 6 17 49c15,44 41,97 86,117 42,19 92,11 135,-3zm-205 -313c95,28 189,58 283,91l15 52c-123,-43 -247,-82 -372,-118 25,-8 50,-16 74,-25z"/>
   </g>
   <path class="fil20" d="M7690 3107c31,176 63,353 94,530 -6,2 -13,5 -20,8 -9,3 -19,6 -29,8 -16,3 -40,6 -55,-2 -14,-8 -20,-23 -23,-37 -13,-62 -25,-123 -37,-184 -64,13 -127,27 -190,42 1,25 -5,49 -21,69 -16,21 -40,33 -65,40 -27,7 -58,11 -83,-2 -20,-10 -34,-26 -41,-48 -5,-18 -4,-38 2,-56 10,-3 20,-6 30,-9 12,-3 24,-9 31,-20 6,-11 6,-24 3,-36 -15,-56 -30,-112 -45,-168 -3,-11 -9,-21 -20,-25 -11,-4 -21,-4 -32,-1 -21,6 -38,18 -34,42 -6,4 -14,7 -21,9 -16,5 -34,7 -50,1 -15,-5 -24,-17 -28,-32 -9,-28 -1,-52 20,-73 24,-24 56,-39 89,-48 42,-12 90,-17 132,-3 39,14 60,43 70,82 15,62 30,124 45,186 62,-15 125,-29 189,-42 -14,-69 -28,-138 -42,-206 -30,6 -60,12 -90,19 -29,6 -44,-8 -51,-36 -1,-7 -2,-14 -2,-21 0,-8 0,-15 2,-22 113,-26 227,-48 341,-66 29,-5 44,9 49,37 1,7 1,15 0,22 0,8 -1,15 -3,22 -38,6 -77,13 -115,20zm312 -47c22,178 43,356 65,534 -7,3 -15,5 -22,8 -9,3 -19,5 -29,6 -17,2 -41,4 -55,-5 -14,-9 -19,-24 -21,-39 -24,-162 -47,-324 -71,-486 -28,4 -57,8 -86,13 -11,2 -24,2 -33,-6 -10,-8 -13,-21 -15,-32 -2,-7 -2,-15 -2,-22 0,-7 1,-15 3,-22 113,-18 226,-34 340,-46 29,-3 44,12 47,40 0,8 0,15 -1,23 -1,7 -2,15 -4,21 -39,4 -77,8 -116,13zm315 -29c12,179 23,358 34,538 -7,2 -14,4 -22,6 -9,2 -20,3 -30,4 -16,1 -40,2 -54,-8 -13,-9 -18,-25 -19,-40 -14,-163 -28,-326 -43,-490 -28,3 -57,6 -86,9 -11,1 -25,0 -34,-8 -8,-8 -11,-22 -13,-33 0,-7 0,-15 0,-22 1,-7 2,-15 4,-21 39,-5 79,-9 118,-12 -8,-10 -13,-22 -18,-35 -5,-14 -8,-29 -9,-44 -3,-27 2,-53 13,-78 13,-27 33,-49 57,-66 29,-22 65,-37 100,-47 46,-14 95,-19 143,-21 65,-2 131,2 195,17 2,0 7,2 9,2 30,2 114,34 144,48 34,15 70,35 99,60 12,10 35,31 34,48 -1,17 -10,28 -24,36 -18,10 -38,12 -58,11 -22,-21 -47,-38 -73,-54 -30,-17 -61,-31 -93,-41 -8,-3 -23,-7 -29,-9 -14,-7 -61,-14 -78,-17 -38,-6 -76,-8 -114,-6 -46,1 -102,9 -140,37 -29,21 -45,49 -42,85 0,12 3,24 6,35 3,10 8,20 14,29 30,-2 59,-4 89,-5 29,-2 43,14 44,42 0,8 -1,16 -2,23 -2,7 -3,15 -6,21 -38,2 -77,4 -116,6zm669 -1c-10,179 -21,358 -31,538 -7,1 -15,2 -22,3 -10,1 -20,1 -30,1 -16,-1 -40,-4 -54,-15 -12,-11 -14,-26 -14,-42 2,-50 4,-101 5,-151 -19,10 -41,17 -62,22 -25,6 -51,8 -76,8 -9,0 -33,0 -40,-2 -48,-7 -83,-19 -121,-49 -47,-39 -64,-96 -66,-155 -2,-55 -4,-109 -6,-164 -21,1 -42,2 -62,3 -12,0 -25,-1 -33,-10 -9,-9 -11,-22 -12,-34 0,-7 1,-15 2,-22 0,-7 2,-14 4,-21 99,-5 195,-7 294,-7 139,0 275,5 414,15 30,2 41,19 39,48 -1,7 -2,14 -4,22 -2,7 -5,14 -9,20 -38,-3 -77,-6 -116,-8zm-255 268c22,1 43,-2 63,-9 17,-5 35,-12 49,-23 -60,-46 -120,-91 -181,-134 -11,-10 -45,-31 -59,-40 1,29 1,58 1,87 1,32 6,72 33,93 5,4 19,13 25,14 23,10 44,12 69,12zm115 -109c2,-55 4,-110 6,-165 -64,-2 -127,-3 -190,-3 -11,-2 -40,0 -52,0 13,9 39,29 52,35 62,43 124,87 184,133zm1008 -38c-38,175 -77,350 -116,525 -7,1 -14,0 -22,0 -10,0 -20,-1 -29,-3 -17,-4 -40,-10 -51,-24 -10,-12 -11,-28 -8,-43 32,-161 63,-322 95,-483 -47,-9 -94,-17 -141,-25 -2,34 -5,69 -9,103 -4,33 -9,66 -14,99 -5,28 -15,56 -31,79 -14,21 -32,38 -53,51 -23,13 -47,20 -72,24 -29,4 -58,4 -87,0 -28,-4 -57,-10 -83,-21 -24,-10 -45,-23 -64,-41 -18,-18 -31,-39 -39,-63 -10,-27 -12,-56 -10,-85 3,-33 7,-66 11,-99 4,-35 9,-69 15,-103 -23,-2 -47,-4 -70,-6 -12,-1 -25,-4 -32,-13 -7,-10 -8,-24 -7,-35 0,-7 2,-15 4,-22 2,-7 4,-14 7,-20 306,21 610,67 908,138 28,7 37,25 31,53 -2,7 -5,14 -8,21 -3,7 -7,14 -12,19 -37,-9 -75,-18 -113,-26zm-526 207c23,3 46,0 65,-13 19,-14 28,-37 31,-60 10,-69 20,-138 30,-207 -59,-9 -118,-16 -178,-23 -7,69 -15,139 -23,208 -3,23 0,48 16,66 15,18 37,26 59,29zm833 -130c-48,173 -97,345 -146,518 -7,0 -15,-1 -22,-2 -10,0 -20,-2 -30,-5 -16,-4 -39,-12 -49,-26 -9,-13 -8,-29 -5,-44 41,-158 82,-317 122,-476 -28,-7 -56,-14 -84,-21 -11,-3 -24,-7 -29,-18 -6,-11 -4,-25 -2,-36 2,-7 5,-14 8,-20 2,-7 6,-14 10,-19 40,9 80,19 119,29 3,-10 5,-20 8,-30 9,-35 16,-82 1,-116 -13,-29 -37,-46 -67,-53 -23,-5 -46,-4 -67,6 -23,11 -34,32 -39,56 -2,9 -4,18 -6,28 -6,1 -12,1 -19,1 -14,0 -26,-1 -40,-4 -20,-4 -39,-11 -55,-24 -16,-14 -18,-33 -14,-53 4,-21 14,-41 28,-58 15,-17 35,-30 56,-39 25,-11 52,-16 79,-17 32,-2 65,2 96,10 65,15 126,46 163,102 39,59 34,131 15,196 -2,10 -5,20 -8,30 28,8 55,16 83,24 28,8 36,27 27,55 -2,7 -5,14 -9,20 -4,6 -8,13 -12,19 -37,-12 -75,-23 -112,-33z"/>
  </g>
  <g id="_874645648">
   <path class="fil21" d="M13187 14292c153,182 307,363 460,544 -6,8 -11,15 -17,23 -8,10 -18,19 -28,27 -16,14 -41,32 -64,31 -20,0 -37,-15 -49,-30 -137,-168 -273,-337 -410,-505l-53 42 0 1 -1 0 0 1 -1 0 -1 1 0 0 -1 1 -1 0 -1 1 0 0 -1 1 0 0 -1 1 -1 0 0 1 -1 1 0 0 -1 0 -1 1 0 0 -1 1 0 0 -2 1 0 0 -1 1 0 0 -1 1 -1 0 0 1 0 0 -1 0 0 1 0 0 -1 0c-25,20 -50,39 -75,59 145,188 289,376 434,565 -6,7 -13,15 -19,22 -9,10 -18,18 -28,26 -17,12 -43,29 -65,27 -21,-1 -36,-16 -48,-32 -72,-98 -144,-196 -216,-293 -18,7 -36,16 -53,24 -18,9 -35,20 -52,32 -37,26 -68,61 -82,105 -15,48 3,94 29,133 26,38 58,69 99,88 37,18 77,31 118,38 5,18 5,36 0,54 -6,20 -20,35 -37,46 -20,14 -44,18 -68,16 -29,-1 -58,-10 -85,-22 -31,-15 -60,-35 -86,-57 -28,-25 -52,-53 -73,-85 -23,-35 -41,-75 -50,-116 -7,-36 -7,-73 2,-108 8,-36 25,-68 47,-97 25,-33 55,-60 89,-84 20,-14 42,-28 64,-40 20,-11 41,-21 62,-31 -31,-42 -63,-85 -94,-127 -126,93 -255,181 -388,266l0 0 -2 1 -3 2 -4 2 0 1 -1 0 0 0c-119,75 -240,147 -363,215 26,46 51,92 77,138 9,-22 22,-42 38,-60 19,-21 42,-39 66,-53 27,-15 56,-26 87,-30 29,-4 58,-3 87,5 30,8 57,22 82,41 28,21 51,48 69,78 19,30 34,63 40,98 5,31 5,61 -2,91 -7,29 -20,55 -38,78 -19,23 -41,43 -66,57 -46,27 -97,39 -127,-15 -5,-9 -9,-18 -11,-28 -2,-8 -4,-17 -3,-25 7,-2 13,-5 20,-8 6,-3 13,-6 19,-10 27,-15 46,-37 55,-67 11,-33 0,-66 -17,-95 -17,-28 -40,-49 -72,-58 -32,-9 -63,-1 -92,16 -19,11 -35,26 -47,45 -11,18 -19,37 -24,58 68,122 136,245 204,368 -7,6 -15,12 -22,18 -9,8 -20,15 -31,21 -18,10 -47,23 -69,18 -20,-5 -33,-22 -42,-39 -15,-30 -31,-59 -47,-89 -10,23 -26,43 -44,61 -21,22 -48,40 -76,53 -28,14 -59,23 -90,27 -31,3 -62,0 -91,-9 -31,-10 -58,-27 -82,-49 -28,-25 -49,-57 -64,-91 -15,-32 -25,-65 -27,-100 -1,-30 2,-59 13,-88 9,-26 23,-50 42,-71 19,-21 41,-38 66,-50 25,-12 58,-25 85,-19 23,6 39,19 50,39 9,18 14,38 10,58 -8,1 -16,3 -24,5 -9,2 -18,6 -26,10 -28,14 -49,34 -60,64 -12,31 -5,63 9,93 15,30 36,53 69,64 33,11 65,4 96,-11 23,-12 44,-28 58,-50 11,-17 20,-37 23,-57 -64,-122 -129,-244 -193,-366 -117,61 -236,120 -356,174l0 0 -9 4 -1 1 -1 0c-33,15 -66,30 -99,44 94,218 189,436 283,654 -7,6 -15,11 -22,16 -10,7 -22,13 -33,18 -20,8 -49,18 -69,11 -20,-7 -31,-25 -39,-43 -39,-95 -77,-189 -116,-284 -64,26 -127,51 -191,76 -13,4 -25,12 -31,25 -6,13 -2,31 3,45 7,19 14,39 21,58 -7,8 -15,16 -24,23 -9,7 -19,13 -30,17 -28,10 -56,7 -83,-6 -33,-15 -52,-49 -64,-82 -11,-34 -14,-71 3,-104 18,-33 49,-53 84,-66 88,-32 177,-66 264,-102 -28,-67 -55,-135 -83,-202 -131,54 -264,104 -398,149l0 0 -2 1 0 0 -2 1 -10 3 -1 0 -1 1 -2 0 -2 1 -1 1 -1 0c-30,10 -61,20 -91,30 72,226 145,452 218,678 -8,5 -17,10 -25,14 -11,7 -23,11 -35,15 -20,6 -50,13 -70,4 -19,-9 -28,-28 -34,-47 -62,-207 -125,-415 -187,-623 -20,6 -40,12 -59,18l-1 0 -2 0 0 0 -1 1 -1 0 0 0 -2 0 -1 1 -1 0 0 0 -2 1 0 0 -1 0 -1 0 0 0 -2 1 0 0 -1 0 -3 1 0 0 -1 0 -1 1 0 0 -2 0 0 0 -1 0 -1 1 -1 0c-35,10 -71,20 -107,30 16,58 31,116 47,174 4,15 6,33 -1,47 -8,14 -26,21 -41,25 -47,12 -94,24 -141,35 -42,10 -80,30 -107,64 -28,36 -31,79 -21,122 5,23 13,44 26,63 12,17 27,32 45,43 18,10 37,17 57,19 22,3 43,1 64,-4 22,-5 49,-14 64,-32 14,-16 13,-38 8,-58 -3,-11 -6,-22 -11,-32 -5,-10 -9,-20 -15,-30 6,-12 15,-22 26,-30 13,-10 27,-16 42,-20 14,-4 27,-4 41,-3 14,1 27,5 39,12 13,7 24,17 33,29 11,13 18,30 22,47 7,23 8,47 2,70 -5,21 -13,41 -26,58 25,27 52,51 80,73 25,19 49,36 75,52 3,23 -2,44 -14,63 -14,20 -33,31 -56,37 -25,7 -50,6 -73,-8 -25,-16 -45,-41 -59,-66 -16,-26 -31,-53 -46,-80 -13,9 -27,16 -41,23 -18,9 -40,15 -60,20 -41,10 -83,13 -125,9 -39,-3 -77,-14 -112,-32 -35,-18 -63,-44 -86,-76 -25,-35 -40,-77 -49,-120 -7,-36 -8,-74 -3,-111 6,-35 18,-67 37,-97 20,-30 46,-55 75,-75 36,-24 76,-39 118,-48 26,-7 52,-13 79,-20 -9,-36 -18,-72 -27,-109 -126,31 -253,59 -381,83l-1 0 -2 1 0 0 -2 0 -2 0 -2 1 0 0 -2 0 -1 0 -2 1 -2 0 0 0 -2 0 -2 1 -1 0 -1 0c-31,6 -63,12 -94,17 40,234 80,468 120,702 -9,4 -18,8 -26,11 -12,4 -25,7 -37,9 -21,4 -51,6 -71,-6 -17,-10 -24,-31 -27,-50 -32,-215 -65,-429 -97,-644 -69,10 -137,20 -206,28 23,31 42,65 57,100 17,41 28,84 34,127 5,39 6,80 -1,118 -6,32 -17,63 -35,90 -16,25 -37,45 -62,59 -26,15 -54,23 -83,26 -27,3 -56,1 -79,-14 -20,-14 -30,-34 -32,-59 -2,-21 0,-41 7,-61 11,1 23,2 35,1 34,-3 62,-19 81,-48 23,-37 22,-91 18,-133 -4,-37 -13,-73 -29,-107 -13,-30 -30,-58 -50,-84 -36,4 -73,7 -109,10l0 0 -2 0 0 0 -2 0 0 0 -2 1 -1 0 -1 0 -1 0 -1 0 -1 0 0 0 -2 0 0 0 -2 0 0 0 -2 0 0 0 -2 1 0 0 -2 0 0 0 -2 0 0 0 -2 0 0 0c-32,3 -64,5 -96,7 16,237 32,474 47,711 -9,3 -18,5 -27,8 -13,3 -26,5 -39,5 -21,2 -52,1 -69,-13 -16,-12 -21,-34 -22,-53 -10,-217 -20,-433 -30,-650 -22,1 -45,2 -67,3l-1 0 -1 0 0 0 -1 0 -1 0 -1 0 -1 0 0 0 -2 0 0 0 -1 0 -1 0 0 0 -2 0 0 0 -1 0 -1 0 -1 0 0 0 -1 0 -1 0 -1 0 -1 0 0 0 -1 0 -1 0 -1 0 -1 0 0 0 -1 0 0 0 -1 0c-33,1 -65,2 -98,3 5,237 9,475 13,712 -9,3 -18,5 -27,7 -2,0 -17,2 -17,2 -1,1 -19,2 -21,2 -21,0 -52,-2 -69,-17 -16,-13 -19,-35 -19,-54 0,-46 0,-92 0,-138 -24,20 -52,34 -81,44 -34,10 -71,13 -107,12 -59,-1 -117,-15 -167,-47 -47,-30 -81,-66 -108,-114 -14,-27 -24,-53 -31,-83 -5,-24 -9,-50 -7,-74 0,-10 3,-21 8,-29 5,-9 15,-13 25,-13 39,-2 83,-5 115,-30 26,-20 38,-47 39,-79 1,-23 -2,-46 -14,-66 -10,-18 -25,-33 -43,-45 -51,-3 -102,-6 -153,-10 -35,-3 -41,-34 -38,-63 1,-10 2,-20 5,-29 2,-9 5,-19 9,-27 218,18 428,25 647,23 2,1 67,-1 102,-2l1 0 1 0 1 0 1 0 1 0 1 0 1 0 1 0 1 0 1 0 1 0 1 0 1 0 3 0 0 0 1 0 1 0 0 -1 2 0 0 0 1 0 1 0 0 0 0 0 1 0 1 0 0 0 0 0 1 0 1 0 0 0 0 0c34,-1 67,-2 101,-4 -15,-28 -34,-55 -55,-79 -21,-24 -44,-46 -69,-65 -23,-19 -48,-36 -73,-50 -4,-2 -32,-17 -35,-17 0,0 -29,-11 -33,-12 -1,-3 -1,-7 -1,-11 -1,-4 -1,-8 -1,-12 0,-24 5,-47 18,-67 2,-3 12,-16 16,-17 13,-9 24,-11 39,-12 29,0 57,12 81,27 33,20 61,46 87,74 30,33 57,69 81,107 25,40 47,83 64,128 26,-2 53,-4 79,-6l0 0 2 0 1 0 2 0 1 0 2 0 1 0 2 0 0 0 2 -1 1 0 2 0 1 0 3 0 1 0 1 0 2 0c226,-18 450,-47 673,-87l0 0c213,-39 424,-87 632,-146l5 -1 2 0 3 -1 5 -2 2 0 3 -1 4 -1 3 -1c94,-27 187,-56 280,-86l1 -1 5 -1 4 -2 1 0 5 -2 4 -1 1 0 2 -1 0 0c204,-69 405,-147 602,-234l2 -1 10 -5 2 -1 8 -3 1 -1c286,-128 563,-276 828,-443l0 0c199,-125 392,-260 578,-405l1 -1 0 -1 2 -1 1 -1 2 -1 1 -1 2 -2 1 0 1 -1 1 -1 2 -1 1 -1 2 -2 1 -1 1 0 1 -1c26,-20 52,-41 77,-62 -30,-5 -59,-16 -86,-31 -30,-17 -55,-40 -76,-67 -32,-40 -52,-85 -49,-137 2,-50 26,-89 63,-121 20,-17 50,-38 78,-35 23,2 41,12 56,29 12,14 21,30 22,49 -8,3 -16,6 -23,10 -8,4 -16,10 -24,17 -18,15 -27,35 -29,59 -2,29 12,55 30,76 17,20 36,36 59,49 23,12 47,20 72,25 26,-22 52,-44 78,-66 26,-23 52,-7 71,16 6,7 12,15 17,24 5,8 10,16 14,25 -31,27 -61,53 -92,79zm-8529 917c-22,-5 -44,-15 -63,-28 -41,-27 -50,-62 -22,-103 24,-35 54,-67 90,-90 -5,-13 -13,-24 -21,-35 -10,-12 -21,-22 -34,-31 -32,-23 -67,-32 -106,-22 -39,10 -69,34 -92,67 -17,22 -30,48 -34,76 -4,25 -3,50 3,74 6,25 16,47 31,68 14,21 31,40 51,56 -2,4 -4,8 -6,11 -3,4 -5,7 -8,11 -12,19 -29,32 -51,38 -26,7 -52,-5 -72,-19 -24,-17 -44,-38 -60,-62 -18,-27 -30,-55 -38,-86 -8,-33 -10,-67 -6,-101 4,-38 16,-73 34,-106 -22,-11 -43,-24 -62,-39 -55,-42 -95,-98 -103,-169 -8,-76 32,-147 79,-204 44,-54 89,-108 133,-163 -17,-13 -33,-27 -50,-41 -10,-9 -18,-20 -17,-34 2,-14 13,-30 22,-40 7,-8 14,-14 21,-21 7,-6 14,-12 22,-17 308,261 639,494 988,697l1 1 0 0 2 1 1 0 2 1 1 1 2 1 1 1 2 1 1 1 2 1 2 1 1 0 0 0c27,16 54,31 81,46 1,-16 5,-33 10,-49 6,-19 14,-37 24,-54 36,-64 87,-109 160,-125 77,-17 155,6 224,41 51,26 98,57 140,96 34,33 67,70 93,111 20,31 38,66 47,103 6,21 11,51 2,72 -7,17 -20,29 -38,34 -21,6 -42,1 -62,-7 -15,-61 -41,-118 -79,-169 -39,-54 -90,-93 -149,-122 -41,-21 -88,-35 -134,-25 -43,9 -72,38 -92,76 -8,14 -14,29 -19,44 -4,12 -7,26 -7,40 20,10 40,21 60,31l0 0 1 1 2 1 1 0 1 1 2 1 1 0 1 1 0 0 1 1 2 0 1 1 1 1 2 0 1 1 0 0 1 1 2 0 1 1 1 1 2 0c171,88 345,169 523,242l9 4 1 0 8 4 1 0 9 4 1 0 8 3 0 1 1 0 1 0 0 0 0 0c195,79 393,149 595,209l10 3 1 1 9 2 2 1c229,68 463,124 699,168 34,6 36,37 31,65 -2,10 -5,20 -8,29 -2,9 -6,19 -12,26 -39,-7 -78,-14 -117,-22 -46,233 -92,466 -139,699 -9,0 -18,1 -27,1 -13,0 -26,-2 -38,-5 -21,-4 -50,-12 -64,-30 -12,-17 -12,-38 -7,-57 17,-81 35,-162 53,-242 -79,-18 -157,-36 -234,-56 -14,29 -32,55 -60,70 -29,15 -62,14 -92,5 -32,-8 -65,-24 -81,-54 -14,-26 -16,-53 -8,-81 3,-12 9,-23 15,-34 7,-11 14,-21 23,-30 11,3 23,7 34,10 14,4 29,4 41,-5 14,-8 21,-23 25,-38 24,-89 49,-178 73,-267 -37,-10 -73,-21 -110,-31l-1 -1 -1 0 -1 -1 -1 0 -1 0 0 0 -2 -1 -2 0 0 0 -2 -1 0 0 -2 0 -1 0 -1 -1 -1 0 0 0 -2 -1 0 0 -2 0 0 0 0 0 -1 -1 0 0 -1 0c-31,-9 -62,-19 -94,-28 -70,226 -141,453 -211,680 -9,0 -18,-1 -28,-2 -12,-2 -24,-5 -36,-8 -20,-7 -49,-18 -60,-37 -10,-18 -7,-39 -1,-58 32,-97 65,-194 97,-291 -65,-21 -130,-44 -194,-67 -13,-5 -27,-7 -39,-1 -14,6 -23,22 -28,36 -7,19 -14,38 -21,58 -11,1 -23,2 -34,1 -12,0 -23,-3 -34,-7 -28,-10 -47,-31 -59,-58 -15,-33 -7,-71 6,-104 13,-33 35,-62 70,-76 35,-14 71,-9 106,4 88,33 177,65 267,95 23,-69 46,-138 69,-207 -129,-43 -256,-90 -382,-140l-1 0 -2 -1 -2 -1 -1 0 0 0 -2 -1 -2 -1 -1 0 -2 -1 0 0 -2 -1 -1 0 -2 -1 -1 -1 -1 0 -1 0 -2 -1 -2 -1 -1 0 0 0 -2 -1 -2 -1 -1 0 -7 -3 0 0c-23,-10 -46,-19 -68,-28 -27,64 -53,128 -80,191 -6,15 -15,30 -30,36 -16,6 -34,1 -49,-5 -43,-19 -87,-38 -130,-57 -40,-18 -84,-28 -127,-15 -43,13 -72,47 -91,86 -11,23 -18,48 -18,73 1,23 6,44 17,64 11,21 26,39 44,54 19,16 41,30 64,40 32,14 66,24 102,25 31,1 62,-3 91,-14 12,13 19,27 23,44 4,17 2,33 -4,49 -7,16 -18,28 -33,36 -18,10 -39,14 -60,16 -27,1 -55,-2 -82,-7 -33,-6 -65,-18 -96,-31 -43,-20 -84,-44 -119,-76 -31,-27 -58,-60 -76,-98 -18,-36 -26,-75 -25,-115 2,-45 16,-88 36,-127 17,-35 40,-66 69,-93 27,-24 57,-43 92,-54 35,-12 71,-16 108,-14 41,3 81,15 119,33 24,10 48,21 71,32 19,-43 38,-85 57,-128 -115,-51 -228,-105 -340,-161l0 0 -2 -1 -2 -1 -1 -1 -1 0 -1 -1 -2 -1 -1 0 -2 -1 0 0 -2 -1 -1 -1 -2 -1 0 0 -2 -1 -1 -1 -2 0 -1 -1 -1 0 0 -1c-28,-14 -55,-28 -83,-43 -111,210 -222,420 -333,630 -10,-3 -19,-5 -28,-8 -12,-3 -24,-9 -35,-15 -19,-10 -44,-27 -52,-48 -7,-19 1,-39 10,-56 105,-190 211,-379 316,-569 -20,-11 -40,-23 -60,-34l-1 0 -1 -1 0 0 -1 -1 0 0 -1 0 -1 -1 -1 0 -1 -1 0 0 -1 -1 0 0 -1 0 -1 -1 -1 0 -1 -1 0 0 -1 0 0 -1 -1 0 -1 0 0 -1 -3 -1 0 0 0 0 -1 -1 0 0 -1 0 0 0 0 -1c-29,-16 -57,-32 -85,-49 -121,204 -242,409 -363,613 -9,-3 -18,-6 -27,-9 -12,-4 -23,-10 -34,-16 -18,-11 -43,-29 -49,-50 -6,-20 2,-40 12,-56 66,-107 133,-214 199,-321 -7,-8 -15,-14 -23,-20 -35,-21 -72,-27 -110,-12 -48,20 -90,75 -118,117zm-248 -769c-42,53 -84,106 -126,159 -24,30 -55,77 -49,118 5,38 31,68 61,90 5,4 10,8 16,12 5,3 10,6 16,9 25,-22 52,-41 83,-54 27,-12 56,-19 86,-20 28,-1 56,2 83,10 27,7 52,19 76,36 27,19 52,42 69,70 16,24 29,50 37,78 28,-4 57,-4 86,1 29,5 57,17 83,33 16,10 30,22 44,36 26,-42 52,-84 78,-126 -223,-139 -438,-290 -643,-452zm886 181c25,15 52,25 81,25 25,-1 48,-7 70,-20 12,12 20,26 24,43 4,18 0,36 -10,52 -19,35 -50,50 -89,53 -50,3 -100,-19 -142,-44 -42,-26 -84,-60 -104,-106 -16,-35 -17,-70 4,-104 11,-15 24,-27 42,-32 16,-5 33,-5 49,1 -1,25 5,49 16,71 13,26 34,46 59,61zm1646 1371c75,19 149,36 224,53 20,-91 40,-182 60,-272 -72,-16 -144,-33 -216,-51 -22,90 -45,180 -68,270zm1582 382c35,1 70,-4 101,-20 25,-13 49,-30 68,-51 0,-124 1,-247 1,-370 -73,0 -147,-1 -220,-4 15,16 27,35 37,55 11,23 16,47 15,73 -1,24 -5,49 -15,72 -10,21 -23,39 -40,54 -18,15 -38,27 -59,35 -24,9 -49,15 -74,18 11,38 31,70 61,96 34,30 80,41 125,42z"/>
   <path class="fil22" d="M13186 14249c154,181 307,362 461,544 -6,7 -12,15 -18,22 -8,10 -18,19 -28,28 -16,13 -41,31 -63,30 -21,0 -37,-14 -49,-30 -137,-168 -274,-336 -411,-505l-52 43 -1 0 -1 1 0 0 -1 1 0 0 -1 0 -1 1 0 0 -1 1 0 0 -1 1 -1 0 0 1 -1 1 -1 0 -1 1 0 0 -1 1 0 0 -1 0 -1 1 0 0 -1 1 0 0 -1 1 -1 1 0 0 -1 1 0 0 -1 0 0 1 -1 0 0 0 0 0c-25,20 -50,40 -76,59 145,188 290,377 434,565 -6,8 -12,15 -19,22 -8,10 -18,18 -28,26 -17,13 -43,29 -65,27 -20,-1 -36,-16 -47,-32 -72,-98 -144,-195 -216,-293 -18,8 -36,16 -54,25 -18,9 -35,19 -51,31 -38,27 -68,61 -82,105 -15,48 2,94 29,134 25,37 57,68 98,87 38,18 78,31 119,38 5,18 5,36 -1,54 -6,20 -20,35 -36,47 -21,13 -45,17 -69,16 -29,-2 -58,-11 -84,-23 -31,-14 -60,-34 -86,-57 -29,-24 -53,-53 -73,-85 -23,-35 -42,-74 -50,-116 -7,-36 -7,-72 1,-108 9,-36 25,-68 47,-97 25,-33 56,-60 89,-84 21,-14 42,-28 64,-40 21,-11 41,-21 62,-31 -31,-42 -62,-85 -93,-127 -127,93 -256,182 -388,266l0 0 -3 1 -3 2 -3 3 -1 0 0 0 -1 0c-118,76 -239,147 -362,215 25,46 51,92 76,139 9,-23 23,-43 39,-61 18,-21 41,-38 66,-52 27,-16 55,-27 86,-31 30,-4 59,-3 88,5 30,8 57,22 81,41 29,21 51,48 70,78 19,30 33,63 39,99 5,30 5,61 -2,91 -7,28 -20,54 -38,77 -18,23 -40,43 -66,58 -45,26 -96,38 -126,-16 -5,-9 -9,-18 -12,-28 -2,-8 -3,-17 -2,-25 6,-2 13,-4 19,-8 6,-3 13,-6 19,-10 27,-15 47,-37 56,-67 10,-33 -1,-66 -18,-94 -16,-28 -39,-50 -71,-58 -33,-9 -64,-1 -93,15 -19,11 -35,26 -47,45 -10,18 -19,37 -23,58 68,122 135,245 203,368 -7,6 -14,12 -21,19 -10,8 -20,14 -31,20 -19,10 -48,23 -69,18 -20,-5 -33,-22 -42,-39 -16,-30 -32,-59 -47,-89 -11,23 -26,43 -44,61 -22,22 -49,40 -76,53 -29,15 -59,24 -91,27 -31,3 -61,0 -91,-9 -31,-10 -58,-27 -82,-49 -28,-24 -48,-57 -64,-91 -14,-31 -25,-65 -26,-100 -2,-30 2,-59 12,-87 9,-27 24,-51 42,-72 19,-21 41,-38 66,-50 25,-12 58,-25 86,-18 22,5 39,18 49,38 10,18 14,38 11,58 -8,2 -16,3 -24,5 -9,2 -19,6 -27,10 -27,14 -49,35 -60,64 -12,31 -5,64 10,93 14,30 36,53 68,64 33,11 66,4 96,-11 23,-12 45,-28 59,-50 11,-17 19,-36 22,-57 -64,-122 -128,-244 -192,-366 -117,62 -236,120 -357,175l0 0 -8 4 -2 0 0 0c-33,15 -67,30 -100,45 95,217 189,435 284,653 -8,6 -15,11 -23,16 -10,8 -21,13 -33,18 -19,8 -48,18 -69,11 -19,-7 -31,-25 -38,-43 -39,-94 -78,-189 -117,-284 -63,27 -127,52 -191,76 -13,5 -24,12 -30,25 -7,14 -3,32 3,45 7,19 14,39 21,58 -8,8 -16,16 -25,23 -9,8 -19,13 -30,17 -28,10 -56,7 -83,-5 -33,-16 -52,-49 -63,-83 -12,-34 -14,-70 3,-104 17,-33 49,-53 83,-66 89,-32 177,-66 264,-102 -27,-67 -55,-135 -83,-202 -131,54 -263,104 -398,149l0 1 -1 0 0 0 -2 1 -11 3 -1 1 0 0 -2 1 -2 0 -2 1 0 0c-31,10 -61,20 -92,30 73,226 145,452 218,678 -8,5 -16,10 -24,14 -11,7 -24,11 -36,15 -20,6 -49,13 -70,4 -18,-8 -28,-28 -33,-46 -63,-208 -125,-416 -187,-624 -20,6 -40,12 -60,18l-1 0 -1 0 0 0 -1 1 -1 0 -1 0 -1 1 -2 0 0 0 -1 0 -1 1 0 0 -2 0 0 0 -1 1 -1 0 0 0 -2 0 -2 1 -1 0 -1 0 -1 1 0 0 -1 0 -1 0 -1 1 -1 0 0 0c-36,10 -71,20 -107,30 15,58 31,116 46,174 4,15 7,33 -1,47 -8,14 -26,22 -41,25 -46,13 -93,24 -140,36 -42,9 -80,29 -107,63 -28,36 -31,79 -22,122 5,23 13,44 27,64 12,17 26,31 44,42 18,10 37,17 58,19 21,3 43,1 64,-4 21,-5 48,-14 63,-31 14,-17 14,-39 9,-59 -3,-11 -7,-22 -12,-32 -4,-10 -9,-20 -14,-29 5,-13 15,-23 25,-31 13,-10 28,-16 43,-20 13,-3 27,-4 40,-3 14,2 27,6 40,12 13,8 23,17 32,29 11,14 18,30 23,47 6,23 8,47 2,71 -6,20 -14,40 -26,57 24,27 51,52 80,74 24,18 49,36 74,52 3,22 -1,43 -14,62 -13,20 -33,31 -55,38 -26,7 -51,5 -74,-9 -25,-16 -44,-41 -59,-66 -15,-26 -31,-53 -46,-79 -13,8 -26,15 -40,22 -19,9 -40,15 -60,20 -42,10 -83,14 -126,10 -39,-4 -77,-14 -111,-33 -35,-18 -64,-44 -86,-75 -26,-36 -41,-78 -49,-120 -7,-37 -9,-75 -3,-112 5,-35 17,-67 36,-96 20,-31 46,-56 76,-76 35,-24 76,-39 117,-48 26,-6 53,-13 79,-19 -9,-37 -18,-73 -27,-110 -126,32 -253,59 -380,83l-2 1 -2 0 0 0 -2 0 -1 1 -2 0 -1 0 -1 0 -2 1 -2 0 -1 0 -1 0 -1 1 -2 0 -2 0 0 0c-32,6 -63,12 -95,17 40,234 80,468 120,703 -8,3 -17,7 -26,10 -12,5 -24,7 -37,9 -21,4 -51,6 -70,-5 -18,-11 -25,-32 -28,-51 -32,-215 -64,-429 -97,-644 -68,11 -137,20 -206,28 24,31 42,65 57,100 18,41 29,84 35,128 5,38 5,79 -2,117 -6,32 -17,63 -34,90 -16,25 -37,45 -63,59 -25,15 -53,24 -83,27 -26,2 -55,0 -78,-15 -21,-14 -31,-34 -33,-59 -2,-20 1,-41 8,-61 11,2 23,2 34,1 35,-3 62,-19 81,-48 24,-37 23,-91 18,-133 -4,-37 -13,-73 -28,-107 -14,-29 -30,-58 -50,-84 -37,4 -73,7 -110,10l0 0 -2 0 0 0 -1 1 -1 0 -1 0 -1 0 -1 0 -1 0 -1 0 -1 0 -1 0 -1 0 -1 0 -1 0 -1 1 -1 0 -1 0 -1 0 0 0 -2 0 0 0 -2 0 -1 0 -1 0 0 0c-32,3 -64,5 -96,7 15,237 31,474 47,711 -9,3 -19,5 -28,8 -12,3 -25,5 -38,6 -21,1 -52,0 -70,-13 -16,-13 -21,-34 -21,-54 -10,-217 -20,-433 -30,-650 -23,1 -45,2 -68,3l0 0 -2 0 0 0 -1 0 -1 0 0 0 -1 0 -1 0 -1 0 0 0 -2 0 0 0 -1 0 -1 0 0 0 -2 0 0 0 -1 0 -1 0 -1 0 -1 0 0 0 -2 0 0 0 -1 0 -1 0 0 0 -2 1 0 0 0 0 -1 0 -1 0c-32,1 -65,1 -97,2 4,238 9,475 13,712 -9,3 -18,5 -28,7 -2,0 -16,3 -16,3 -1,0 -19,1 -22,1 -21,0 -52,-2 -69,-17 -15,-13 -19,-34 -19,-54 0,-46 0,-92 0,-138 -24,20 -51,35 -81,44 -34,10 -71,13 -106,12 -60,-1 -117,-15 -168,-47 -47,-29 -81,-65 -107,-114 -15,-27 -25,-53 -31,-83 -6,-24 -10,-50 -8,-74 1,-10 3,-20 8,-29 6,-8 16,-13 25,-13 40,-2 83,-5 116,-30 26,-20 37,-47 39,-79 1,-23 -3,-45 -14,-65 -11,-19 -26,-34 -44,-46 -51,-2 -102,-6 -153,-10 -35,-2 -40,-34 -38,-63 1,-10 3,-19 5,-29 2,-9 5,-18 9,-26 219,17 428,24 647,22 3,1 67,-1 103,-2l0 0 2 0 0 0 2 0 0 0 2 0 0 0 2 0 0 0 2 0 0 0 2 0 0 0 3 0 1 0 1 0 1 0 0 0 1 0 1 0 0 0 1 0 1 0 0 0 1 0 0 0 1 0 0 0 0 0 1 -1 1 0 0 0c33,-1 67,-2 100,-3 -15,-29 -33,-56 -55,-80 -21,-24 -44,-45 -69,-65 -23,-19 -47,-35 -73,-49 -4,-3 -32,-17 -34,-17 0,0 -29,-12 -34,-13 -1,-3 -1,-7 -1,-11 0,-4 0,-8 0,-12 0,-23 5,-46 18,-67 2,-3 12,-16 15,-17 13,-8 24,-11 40,-12 29,0 57,12 81,27 32,20 61,46 86,74 30,33 57,70 81,107 26,41 48,83 65,128 26,-2 52,-3 78,-5l1 0 1 -1 2 0 1 0 2 0 1 0 2 0 1 0 1 0 1 0 2 -1 1 0 2 0 3 0 1 0 0 0 2 0c226,-18 451,-47 674,-87l0 0c213,-38 424,-87 632,-145l5 -2 2 0 2 -1 5 -1 3 -1 2 -1 5 -1 3 -1c94,-27 187,-55 279,-86l1 0 5 -2 4 -1 1 -1 6 -2 3 -1 2 0 1 -1 0 0c205,-68 406,-147 603,-234l1 -1 10 -4 2 -1 8 -4 1 0c286,-129 563,-277 828,-444l0 0c200,-125 393,-260 578,-405l1 -1 1 0 1 -2 2 -1 1 -1 2 -1 1 -1 1 -1 1 -1 2 -1 1 -1 2 -1 1 -1 2 -2 0 0 1 -1c26,-20 52,-41 78,-62 -31,-4 -60,-16 -87,-31 -29,-17 -55,-40 -76,-67 -32,-39 -51,-85 -49,-136 3,-50 26,-90 64,-121 20,-17 50,-39 78,-36 22,2 40,12 55,29 12,14 21,31 23,49 -8,3 -16,6 -24,10 -8,5 -16,11 -23,17 -18,15 -27,35 -29,59 -2,29 12,55 30,76 16,20 36,37 59,49 22,12 46,21 71,25 27,-22 53,-44 78,-66 27,-23 52,-6 72,16 6,7 12,16 17,24 5,8 10,17 13,25 -30,27 -61,54 -92,80zm-8528 916c-23,-5 -44,-15 -64,-28 -41,-27 -50,-61 -21,-103 24,-35 53,-66 89,-89 -5,-13 -12,-25 -21,-36 -9,-12 -21,-22 -33,-31 -33,-22 -68,-32 -107,-22 -39,11 -69,34 -92,67 -16,23 -29,48 -34,76 -4,25 -3,50 3,75 6,24 17,47 31,67 15,21 32,40 51,56 -1,4 -3,8 -6,12 -2,3 -5,7 -7,10 -13,19 -30,33 -52,38 -25,7 -51,-5 -72,-19 -24,-17 -43,-38 -60,-62 -17,-26 -30,-55 -37,-86 -9,-33 -10,-67 -7,-101 4,-38 17,-73 34,-106 -21,-11 -42,-24 -61,-39 -56,-42 -96,-97 -104,-168 -8,-77 32,-148 79,-205 45,-54 89,-108 134,-162 -17,-14 -34,-28 -51,-42 -10,-9 -18,-20 -16,-33 2,-15 13,-30 22,-41 6,-8 13,-14 20,-21 7,-6 15,-12 23,-17 307,261 638,494 987,697l1 1 1 0 1 1 2 1 1 1 2 0 1 1 2 1 1 1 2 1 1 1 2 1 1 1 0 0c27,15 54,30 81,45 1,-16 5,-33 10,-48 6,-20 14,-38 24,-55 36,-64 88,-109 160,-125 78,-17 155,6 225,41 50,26 98,57 139,96 35,34 67,70 93,111 20,31 38,67 48,103 5,21 11,51 2,72 -8,17 -20,29 -39,34 -20,6 -42,1 -61,-7 -16,-61 -42,-118 -79,-169 -39,-54 -91,-93 -150,-122 -40,-21 -87,-35 -133,-25 -43,10 -73,39 -93,77 -7,13 -13,28 -18,43 -5,13 -8,26 -8,40 20,11 40,21 61,32l0 0 1 0 1 1 2 1 1 0 1 1 1 1 1 0 1 0 1 1 1 1 2 0 1 1 1 1 1 0 0 0 2 1 1 1 1 0 2 1 1 1c171,88 345,168 523,241l9 4 1 0 9 4 1 0 8 4 2 0 7 4 1 0 0 0 1 0 0 0 1 1c194,78 393,148 594,209l10 2 1 1 9 3 2 0c230,68 463,124 699,168 34,6 37,37 31,66 -1,9 -4,19 -7,28 -3,9 -7,19 -12,27 -39,-8 -79,-15 -118,-23 -46,233 -92,466 -138,699 -9,1 -19,1 -28,1 -12,0 -25,-2 -37,-5 -21,-4 -50,-12 -64,-30 -13,-16 -12,-38 -8,-57 18,-81 35,-162 53,-242 -78,-17 -156,-36 -234,-55 -13,28 -32,54 -60,69 -28,16 -61,14 -91,6 -32,-9 -65,-25 -82,-55 -14,-26 -16,-52 -8,-80 4,-12 9,-24 16,-35 6,-11 14,-21 22,-30 12,4 23,7 34,10 15,4 29,4 42,-4 13,-9 20,-24 25,-39 24,-89 48,-178 73,-267 -37,-10 -74,-21 -111,-31l-1 -1 0 0 -2 0 0 0 -2 -1 0 0 -2 0 -2 -1 0 0 -1 0 -1 -1 -1 0 -1 0 -1 -1 -1 0 -1 0 -1 0 -1 -1 -1 0 0 0 -1 0 0 0 -1 -1 0 0c-32,-9 -63,-18 -94,-28 -71,227 -141,453 -212,680 -9,0 -18,-1 -27,-2 -13,-1 -25,-4 -37,-8 -20,-7 -48,-18 -59,-37 -11,-18 -7,-39 -1,-58 32,-97 64,-194 96,-291 -65,-21 -129,-44 -194,-67 -12,-5 -26,-7 -39,-1 -14,6 -22,23 -27,36 -7,19 -15,39 -22,58 -11,1 -22,2 -34,1 -11,0 -23,-2 -33,-7 -28,-10 -48,-31 -60,-58 -14,-33 -7,-71 6,-103 14,-34 35,-63 70,-77 35,-14 72,-9 106,4 89,34 178,65 267,95 23,-69 46,-138 69,-207 -128,-43 -256,-89 -381,-140l-2 0 -2 -1 -1 -1 -2 0 0 0 -2 -1 -1 -1 -2 0 -1 -1 -1 0 -1 -1 -2 0 -2 -1 -1 0 0 -1 -2 0 -2 -1 -1 -1 -1 0 -1 0 -2 -1 -1 -1 -2 0 -6 -3 -1 0c-23,-9 -45,-19 -67,-28 -27,64 -54,128 -80,192 -6,14 -16,29 -31,35 -15,7 -34,1 -48,-5 -44,-18 -87,-38 -131,-57 -40,-18 -84,-28 -127,-15 -43,13 -71,47 -90,86 -11,23 -19,48 -18,73 0,23 5,45 16,65 11,20 27,38 44,53 20,17 41,30 64,40 32,15 67,24 102,25 31,1 62,-3 92,-14 11,13 19,27 23,44 4,17 2,33 -5,49 -6,16 -18,28 -33,36 -18,10 -39,14 -59,16 -28,2 -56,-2 -82,-7 -33,-6 -66,-17 -96,-31 -43,-20 -84,-44 -119,-76 -32,-27 -59,-60 -77,-98 -17,-36 -25,-75 -24,-115 1,-45 15,-87 35,-127 18,-35 40,-66 69,-93 27,-24 58,-43 92,-54 35,-12 71,-16 108,-13 42,2 82,15 120,32 23,11 47,21 71,32 19,-43 38,-85 56,-128 -115,-50 -228,-104 -340,-161l0 0 -2 -1 -1 -1 -2 -1 0 0 -1 -1 -2 0 -2 -1 -1 -1 0 0 -2 -1 -2 -1 -2 -1 0 0 -1 -1 -2 0 -2 -1 0 -1 -1 0 -1 0c-27,-15 -55,-29 -82,-43 -111,209 -223,419 -334,629 -9,-2 -18,-5 -27,-8 -12,-3 -24,-9 -36,-15 -18,-10 -44,-26 -51,-47 -7,-19 0,-40 9,-57 106,-190 211,-379 317,-569 -20,-11 -41,-22 -61,-34l0 0 -1 -1 -1 0 -1 -1 0 0 -1 0 -1 -1 0 0 -1 -1 0 0 -2 0 0 -1 -1 0 -1 0 0 -1 -1 0 0 0 -1 -1 -1 0 -1 -1 0 0 -1 0 -2 -2 -1 0 0 0 0 -1 -1 0 0 0 0 0 -1 0c-28,-17 -56,-33 -84,-50 -122,205 -243,409 -364,613 -9,-2 -17,-5 -26,-9 -12,-4 -23,-10 -34,-16 -18,-11 -43,-29 -50,-50 -6,-19 2,-40 13,-56 66,-107 132,-214 199,-321 -7,-8 -15,-14 -24,-19 -35,-22 -71,-28 -110,-12 -48,19 -90,74 -117,116zm-249 -769c-42,53 -84,106 -125,159 -25,31 -55,77 -50,118 5,38 32,68 61,91 5,4 11,7 16,11 6,3 11,7 16,9 25,-22 53,-41 83,-54 28,-11 57,-19 87,-20 28,-1 56,2 83,10 27,7 52,20 75,36 27,19 52,42 70,70 15,24 28,50 36,78 29,-4 58,-4 86,1 30,6 57,17 83,33 16,11 31,23 44,36 26,-42 52,-84 79,-126 -223,-138 -438,-289 -644,-452zm886 181c25,15 53,25 82,25 24,-1 48,-7 69,-19 13,11 21,25 24,42 4,19 0,36 -9,52 -20,35 -51,50 -89,53 -50,3 -101,-19 -143,-44 -41,-25 -83,-60 -104,-106 -15,-35 -17,-70 5,-103 10,-16 23,-28 41,-33 17,-5 33,-5 49,1 -1,25 5,49 17,72 13,26 34,45 58,60zm1647 1371c74,19 149,37 224,53 19,-91 39,-181 59,-272 -72,-16 -144,-33 -215,-51 -23,90 -46,180 -68,270zm1582 382c34,1 69,-4 101,-20 25,-13 49,-30 68,-51 0,-123 0,-247 0,-370 -73,0 -146,-1 -220,-4 15,16 28,35 37,55 12,23 16,47 16,73 -1,25 -5,50 -16,72 -10,21 -23,39 -40,54 -17,16 -37,27 -59,35 -23,9 -48,15 -73,18 10,38 31,70 60,96 35,30 81,41 126,42z"/>
   <path class="fil10" d="M13208 14274l439 519 -18 22 -442 -523 21 -18zm-256 209l412 537c-5,7 -11,14 -17,20l-416 -541 21 -16zm-154 508c5,26 18,51 33,74 25,37 57,68 98,87 38,18 78,31 119,38 4,16 5,32 1,48l-1 -4c-41,-7 -81,-20 -118,-38 -41,-19 -73,-50 -99,-88 -23,-35 -40,-75 -33,-117zm-153 8c-3,-27 -1,-54 5,-81 9,-36 25,-68 47,-97 25,-33 56,-60 89,-84 21,-14 42,-28 64,-40 13,-7 26,-13 39,-20l24 33c-21,10 -42,20 -62,31 -22,12 -44,26 -64,40 -34,24 -64,51 -89,84 -22,29 -39,61 -47,97 -3,12 -5,24 -6,37zm-569 61l58 105c9,-23 23,-43 39,-61 18,-21 41,-38 66,-52 27,-16 55,-27 86,-31 30,-4 59,-3 88,5 30,8 57,22 81,41 29,21 51,48 70,78 19,30 33,63 39,99 4,20 5,40 3,60 0,-5 -1,-11 -2,-17 -6,-35 -21,-68 -40,-98 -18,-30 -41,-57 -69,-78 -25,-19 -52,-33 -82,-41 -29,-8 -58,-9 -87,-5 -31,4 -60,15 -87,30 -24,14 -47,32 -66,53 -16,18 -29,38 -38,60 -26,-46 -51,-92 -77,-138l18 -10zm289 382c-3,-5 -4,-10 -6,-16 -2,-8 -3,-17 -2,-25 6,-2 13,-4 19,-8 6,-3 13,-6 19,-10 27,-15 47,-37 56,-67l2 -6c3,16 4,33 -2,50 -9,30 -28,52 -55,67 -6,4 -13,7 -19,10 -4,2 -8,4 -12,5zm-157 -144l194 352 -16 14 -187 -338c2,-10 5,-19 9,-28zm-489 186c-1,-4 -1,-9 -1,-13 -2,-30 2,-59 12,-87 9,-27 24,-51 42,-72 19,-21 41,-38 66,-50 25,-12 58,-25 86,-18 22,5 39,18 49,38 10,18 14,38 11,58l-4 1c-2,-5 -4,-10 -6,-15 -11,-20 -27,-33 -50,-39 -27,-6 -60,7 -85,19 -25,12 -47,29 -66,50 -19,21 -33,45 -42,71 -7,19 -11,37 -12,57zm151 -8c3,12 7,24 13,36 14,30 36,53 68,64 33,11 66,4 96,-11 23,-12 45,-28 59,-50 6,-9 11,-19 15,-29l8 16c-3,20 -12,40 -23,57 -14,22 -35,38 -58,50 -31,15 -63,22 -96,11 -33,-11 -54,-34 -69,-64 -12,-25 -19,-53 -13,-80zm-385 -123l268 616c-5,4 -10,7 -14,11l-269 -621 15 -6zm-232 477l2 3c7,19 14,39 21,58 -4,4 -8,8 -11,12l-10 -26c-5,-14 -9,-32 -3,-45l1 -2zm-185 -15c-5,-25 -3,-51 10,-76 17,-33 49,-53 83,-66 84,-30 167,-62 249,-96l16 38c-87,36 -176,70 -264,102 -35,13 -66,33 -84,66 -5,11 -8,21 -10,32zm-224 -219l205 638 -11 7 -206 -641 12 -4zm-326 97l35 133c4,14 6,30 1,43l-47 -173 11 -3zm-279 409c1,6 2,11 3,17 5,23 13,44 27,64 12,17 26,31 44,42 18,10 37,17 58,19 21,3 43,1 64,-4 21,-5 48,-14 63,-31 4,-5 7,-11 9,-16l0 1c5,20 6,42 -8,58 -15,18 -42,27 -64,32 -21,5 -42,7 -64,4 -20,-2 -39,-9 -57,-19 -18,-11 -33,-26 -45,-43 -13,-19 -21,-40 -26,-63 -5,-21 -6,-41 -4,-61zm255 12c-4,-9 -9,-17 -13,-25 5,-13 15,-23 25,-31 13,-10 28,-16 43,-20 13,-3 27,-4 40,-3 14,2 27,6 40,12 13,8 23,17 32,29 11,14 18,30 23,47 5,20 7,40 4,60 -1,-6 -2,-11 -4,-16 -4,-17 -11,-34 -22,-47 -9,-12 -20,-22 -33,-29 -12,-7 -25,-11 -39,-12 -14,-1 -27,-1 -41,3 -15,4 -29,10 -42,20 -5,3 -9,8 -13,12zm182 154c20,20 41,39 64,57 24,18 49,36 74,52 2,14 1,28 -3,41 -24,-16 -48,-32 -71,-50 -28,-22 -55,-46 -80,-73 6,-8 12,-17 16,-27zm-587 -161c-2,-24 -2,-48 2,-72 5,-35 17,-67 36,-96 20,-31 46,-56 76,-76 35,-24 76,-39 117,-48 23,-6 46,-11 69,-17l11 41c-27,7 -53,13 -79,20 -42,9 -82,24 -118,48 -29,20 -55,45 -75,75 -19,30 -31,62 -37,97 -1,9 -2,19 -2,28zm-207 -274l113 660 -7 2 -112 -661 6 -1zm-324 48c12,19 21,39 30,59 18,41 29,84 35,128 3,24 4,49 3,74 -1,-10 -2,-21 -3,-31 -6,-43 -17,-86 -34,-127 -15,-35 -34,-69 -57,-100l26 -3zm-227 417c0,-4 -1,-7 -1,-11 -2,-20 1,-41 8,-61 11,2 23,2 34,1 35,-3 62,-19 81,-48 13,-20 19,-46 20,-72 3,38 1,84 -19,116 -19,29 -47,45 -81,48 -12,1 -24,0 -35,-1 -3,9 -5,18 -7,28zm-165 -380l44 667 -3 1 -44 -668 3 0zm-332 14l12 668 0 1 -13 -669 1 0zm-141 621c-1,-4 -1,-9 -1,-13l0 -94 1 0 0 107zm-501 -375c-1,-13 -2,-26 -1,-38 1,-10 3,-20 8,-29 6,-8 16,-13 25,-13 40,-2 83,-5 116,-30 22,-17 34,-40 38,-66 1,10 2,20 1,31 -1,32 -13,59 -39,79 -32,25 -76,28 -115,30 -10,0 -20,4 -25,13 -4,7 -7,15 -8,23zm-60 -340c-3,-10 -3,-22 -2,-33 1,-10 3,-19 5,-29 2,-9 5,-18 9,-26 219,17 428,24 647,22 3,1 67,-1 103,-2l0 0 2 0 0 0 2 0 0 0 2 0 0 0 2 0 0 0 2 0 0 0 2 0 0 0 3 0 1 0 1 0 1 0 0 0 1 0 1 0 0 0 1 0 1 0 0 0 1 0 0 0 1 0 0 0 0 0 1 -1 1 0 0 0c25,0 50,-1 75,-2 9,13 18,28 26,42 -34,2 -67,3 -101,4l0 0 0 0 -1 0 -1 0 0 0 0 0 -1 0 -1 0 0 0 0 0 -1 0 -1 0 0 0 -2 0 0 1 -1 0 -1 0 0 0 -3 0 -1 0 -1 0 -1 0 -1 0 -1 0 -1 0 -1 0 -1 0 -1 0 -1 0 -1 0 -1 0 -1 0c-35,1 -100,3 -102,2 -219,2 -429,-5 -647,-23 -4,8 -7,18 -9,27 -2,6 -3,12 -4,18zm624 -296l-1 0c-1,-3 -1,-7 -1,-11 0,-4 0,-8 0,-12 0,-23 5,-46 18,-67 2,-3 12,-16 15,-17 13,-8 24,-11 40,-12 29,0 57,12 81,27 32,20 61,46 86,74 30,33 57,70 81,107 26,41 48,83 65,128 26,-2 52,-3 78,-5l1 0 1 -1 2 0 1 0 2 0 1 0 2 0 1 0 1 0 1 0 2 -1 1 0 2 0 3 0 1 0 0 0 2 0c226,-18 451,-47 674,-87l0 0c213,-38 424,-87 632,-145l5 -2 2 0 2 -1 5 -1 3 -1 2 -1 5 -1 3 -1c94,-27 187,-55 279,-86l1 0 5 -2 4 -1 1 -1 6 -2 3 -1 2 0 1 -1 0 0c205,-68 406,-147 603,-234l1 -1 10 -4 2 -1 8 -4 1 0c286,-129 563,-277 828,-444l0 0c200,-125 393,-260 578,-405l1 -1 1 0 1 -2 2 -1 1 -1 2 -1 1 -1 1 -1 1 -1 2 -1 1 -1 2 -1 1 -1 2 -2 0 0 1 -1c12,-9 24,-19 36,-29 14,5 28,9 42,11 -25,21 -51,42 -77,62l-1 1 -1 0 -1 1 -2 2 -1 1 -2 1 -1 1 -1 1 -1 0 -2 2 -1 1 -2 1 -1 1 -2 1 0 1 -1 1c-186,145 -379,280 -578,405l0 0c-265,167 -542,315 -828,443l-1 1 -8 3 -2 1 -10 5 -2 1c-197,87 -398,165 -602,234l0 0 -2 1 -1 0 -4 1 -5 2 -1 0 -4 2 -5 1 -1 1c-93,30 -186,59 -280,86l-3 1 -4 1 -3 1 -2 0 -5 2 -3 1 -2 0 -5 1c-208,59 -419,107 -632,146l0 0c-223,40 -447,69 -673,87l-2 0 -1 0 -1 0 -3 0 -1 0 -2 0 -1 0 -2 1 0 0 -2 0 -1 0 -2 0 -1 0 -2 0 -1 0 -2 0 0 0c-26,2 -53,4 -79,6 -17,-45 -39,-88 -64,-128 -24,-38 -51,-74 -81,-107 -26,-28 -54,-54 -87,-74 -24,-15 -52,-27 -81,-27 -15,1 -26,3 -39,12 -4,1 -14,14 -16,17 -9,14 -14,30 -16,46zm4040 -1497c-2,-10 -2,-21 -2,-32 3,-50 26,-90 64,-121 20,-17 50,-39 78,-36 22,2 40,12 55,29 12,14 21,31 23,49 -5,2 -10,3 -14,6 -3,-4 -6,-8 -8,-11 -15,-17 -33,-27 -56,-29 -28,-3 -58,18 -78,35 -35,30 -57,66 -62,110zm145 3c5,18 15,34 27,48 16,20 36,37 59,49 22,12 46,21 71,25 27,-22 53,-44 78,-66 27,-23 52,-6 72,16 6,7 12,16 17,24 5,8 10,17 13,25l-16 14c-4,-6 -9,-13 -14,-19 -19,-23 -45,-39 -71,-16 -26,22 -52,44 -78,66 -25,-5 -49,-13 -72,-25 -23,-13 -42,-29 -59,-49 -18,-21 -32,-47 -30,-76 1,-6 2,-11 3,-16zm-8380 1053c-9,-19 -5,-42 12,-67 20,-29 44,-56 72,-77 7,10 13,20 18,31 -36,23 -66,55 -90,90 -5,8 -9,16 -12,23zm-186 -47c0,7 2,13 3,20 6,24 17,47 31,67 15,21 32,40 51,56 -1,4 -3,8 -6,12 -2,3 -5,7 -7,10l-4 6c-12,-13 -23,-26 -33,-40 -15,-21 -25,-43 -31,-68 -5,-20 -7,-42 -4,-63zm-156 -6c-2,-20 -2,-39 0,-59 3,-25 9,-48 18,-71 6,3 11,6 17,9 -18,33 -30,68 -34,106l-1 15zm-130 -369l-1 -3c-8,-77 32,-148 79,-205l112 -137 22 18c-44,55 -89,109 -133,163 -39,47 -73,103 -79,164zm152 -421c-5,-7 -8,-15 -7,-24 2,-15 13,-30 22,-41 6,-8 13,-14 20,-21 7,-6 15,-12 23,-17 307,261 638,494 987,697l1 1 1 0 1 1 2 1 1 1 2 0 1 1 2 1 1 1 2 1 1 1 2 1 1 1 0 0c27,15 54,30 81,45 1,-16 5,-33 10,-48 6,-20 14,-38 24,-55 36,-64 88,-109 160,-125 78,-17 155,6 225,41 50,26 98,57 139,96 35,34 67,70 93,111 20,31 38,67 48,103 5,18 9,43 5,63 -2,-7 -3,-13 -5,-19 -9,-37 -27,-72 -47,-103 -26,-41 -59,-78 -93,-111 -42,-39 -89,-70 -140,-96 -69,-35 -147,-58 -224,-41 -73,16 -124,61 -160,125 -10,17 -18,35 -24,54 -5,16 -9,33 -10,49 -27,-15 -54,-30 -81,-46l0 0 -1 0 -2 -1 -2 -1 -1 -1 -2 -1 -1 -1 -2 -1 -1 -1 -2 -1 -1 0 -2 -1 0 0 -1 -1c-349,-203 -680,-436 -988,-697 -8,5 -15,11 -22,17 -7,7 -14,13 -21,21 -5,6 -10,13 -15,21zm1272 720l53 28 0 0 1 0 1 1 2 1 1 0 1 1 1 1 1 0 1 0 1 1 1 1 2 0 1 1 1 1 1 0 0 0 2 1 1 1 1 0 2 1 1 1c171,88 345,168 523,241l9 4 1 0 9 4 1 0 8 4 2 0 7 4 1 0 0 0 1 0 0 0 1 1c194,78 393,148 594,209l10 2 1 1 9 3 2 0c230,68 463,124 699,168 34,6 37,37 31,66l0 2c-4,-12 -13,-21 -30,-24 -236,-44 -470,-100 -699,-168l-2 -1 -9 -2 -1 -1 -10 -3c-202,-60 -400,-130 -595,-209l0 0 0 0 -1 0 -1 0 0 -1 -8 -3 -1 0 -9 -4 -1 0 -8 -4 -1 0 -9 -4c-178,-73 -352,-154 -523,-242l-2 0 -1 -1 -1 -1 -2 0 -1 -1 0 0 -1 -1 -2 0 -1 -1 -1 -1 -2 0 -1 -1 0 0 -1 -1 -1 0 -2 -1 -1 -1 -1 0 -2 -1 -1 -1 0 0c-20,-10 -40,-21 -60,-31 0,-14 3,-27 7,-40zm1574 1430c-5,-13 -4,-29 -1,-43l44 -201 10 3 -53 241zm-425 -346c-4,-18 -3,-36 2,-54 4,-12 9,-24 16,-35 6,-11 14,-21 22,-30 12,4 23,7 34,10 15,4 29,4 42,-4 13,-9 20,-24 25,-39l62 -226 11 3c-24,89 -49,178 -73,267 -4,15 -11,30 -25,38 -12,9 -27,9 -41,5 -11,-3 -23,-7 -34,-10 -9,9 -16,19 -23,30 -6,11 -12,22 -15,34 -1,4 -2,7 -3,11zm-350 142c-7,-16 -4,-35 2,-52l83 -251 14 4c-32,97 -65,194 -97,291l-2 8zm-316 -399c-7,-28 0,-58 11,-85 14,-34 35,-63 70,-77 35,-14 72,-9 106,4 89,34 178,65 267,95l56 -168 14 5c-23,69 -46,138 -69,207 -90,-30 -179,-62 -267,-95 -35,-13 -71,-18 -106,-4 -35,14 -57,43 -70,76 -6,14 -10,28 -12,42zm-487 -122c2,15 7,29 14,43 11,20 27,38 44,53 20,17 41,30 64,40 32,15 67,24 102,25 31,1 62,-3 92,-14 11,13 19,27 23,44 3,13 2,26 -1,39 -4,-15 -11,-28 -22,-39 -29,11 -60,15 -91,14 -36,-1 -70,-11 -102,-25 -23,-10 -45,-24 -64,-40 -18,-15 -33,-33 -44,-54 -11,-20 -16,-41 -17,-64 0,-7 1,-14 2,-22zm-155 -2c-1,-11 -1,-22 -1,-33 1,-45 15,-87 35,-127 18,-35 40,-66 69,-93 27,-24 58,-43 92,-54 35,-12 71,-16 108,-13 42,2 82,15 120,32 23,11 47,21 71,32l40 -91 17 7c-19,43 -38,85 -57,128 -23,-11 -47,-22 -71,-32 -38,-18 -78,-30 -119,-33 -37,-2 -73,2 -108,14 -35,11 -65,30 -92,54 -29,27 -52,58 -69,93 -19,36 -32,75 -35,116zm-342 -37c-1,-1 -2,-3 -2,-4 -7,-19 0,-40 9,-57l298 -536 19 11c-105,190 -211,379 -316,569 -3,5 -6,11 -8,17zm-312 -180c-1,-2 -2,-4 -3,-7 -6,-19 2,-40 13,-56l181 -293c7,5 13,10 18,16 -66,107 -133,214 -199,321 -4,6 -7,12 -10,19zm-463 -778c8,32 32,58 58,78 5,4 11,7 16,11 6,3 11,7 16,9 25,-22 53,-41 83,-54 28,-11 57,-19 87,-20 28,-1 56,2 83,10 27,7 52,20 75,36 27,19 52,42 70,70 15,24 28,50 36,78 29,-4 58,-4 86,1 30,6 57,17 83,33 16,11 31,23 44,36l59 -95 20 13c-26,42 -52,84 -78,126 -14,-14 -28,-26 -44,-36 -26,-16 -54,-28 -83,-33 -29,-5 -58,-5 -86,-1 -8,-28 -21,-54 -37,-78 -17,-28 -42,-51 -69,-70 -24,-17 -49,-29 -76,-36 -27,-8 -55,-11 -83,-10 -30,1 -59,8 -86,20 -31,13 -58,32 -83,54 -6,-3 -11,-6 -16,-9 -6,-4 -11,-8 -16,-12 -30,-22 -56,-52 -61,-90 -2,-10 -1,-21 2,-31zm1058 -109c25,15 53,25 82,25 24,-1 48,-7 69,-19 13,11 21,25 24,42 3,12 2,24 -1,35 -5,-13 -12,-24 -22,-34 -22,13 -45,19 -70,20 -29,0 -56,-10 -81,-25 -25,-15 -46,-35 -59,-61 -11,-22 -17,-46 -16,-71 -16,-6 -33,-6 -49,-1 -18,5 -31,17 -42,32 -7,11 -11,22 -14,34 -5,-27 -2,-53 14,-77 10,-16 23,-28 41,-33 17,-5 33,-5 49,1 -1,25 5,49 17,72 13,26 34,45 58,60zm1658 1374c70,18 141,34 213,50l50 -230 10 2c-20,90 -40,181 -60,272 -75,-17 -149,-34 -224,-53l11 -41zm1571 379c34,1 69,-4 101,-20 25,-13 49,-30 68,-51l0 -326 1 0c0,123 -1,246 -1,370 -19,21 -43,38 -68,51 -31,16 -66,21 -101,20 -45,-1 -91,-12 -125,-42 -30,-26 -50,-58 -61,-96 6,-1 11,-2 16,-3 11,21 26,39 44,55 35,30 81,41 126,42zm-19 -400l5 10c12,23 16,47 16,73 -1,5 -1,11 -1,16 -3,-16 -7,-31 -14,-45 -10,-20 -22,-39 -37,-55l31 1z"/>
  </g>
 </g>
</svg>
