<svg xmlns="http://www.w3.org/2000/svg" xmlns:xlink="http://www.w3.org/1999/xlink" width="614.8" height="759.548"
     viewBox="0 0 614.8 759.548">
    <defs>
        <style>
            .a{fill:none;}.b{fill:#3f80ff;}.c{opacity:0.5;}.af,.an,.by,.c{mix-blend-mode:overlay;}.af,.an,.ar,.by,.c{isolation:isolate;}.d,.e,.f,.g,.h,.i,.j{fill:#fcfdfd;}.af,.d,.n{opacity:0.8;}.e{opacity:0.667;}.f{opacity:0.533;}.am,.g{opacity:0.4;}.ak,.h{opacity:0.267;}.ai,.i{opacity:0.133;}.ag,.j{opacity:0;}.aj,.ao,.k{opacity:0.2;}.l{fill:#8fedff;}.m{fill:#c5f9ff;}.ag,.ah,.ai,.aj,.ak,.al,.am,.o{fill:#fff;}.o{opacity:0.3;}.p{fill:#efb185;}.q{fill:#471bce;}.r{opacity:0.1;}.s{fill:#111114;}.t{fill:#5fb9e6;}.u{fill:#77d2ff;}.v{fill:#632bee;}.w{fill:#dd9569;}.x{fill:#e6a376;}.y{fill:#221101;}.z{fill:#341c09;}.aa{fill:#def0f9;}.ab{fill:#70d8e5;}.ac{fill:#ff61cb;}.ad{fill:#231202;}.ae{fill:#d66767;}.ah{opacity:0.067;}.al{opacity:0.333;}.an{opacity:0.14;}.ap{fill:#778489;}.aq{fill:#abbec5;}.as{clip-path:url(#a);}.at{fill:#738085;}.au{fill:#78858a;}.av{fill:#7c8a8f;}.aw{fill:#818f94;}.ax{fill:#859499;}.ay{fill:#8a999e;}.az{fill:#8e9da3;}.ba{fill:#93a2a8;}.bb{fill:#97a7ad;}.bc{fill:#9bacb3;}.bd{fill:#a0b1b8;}.be{clip-path:url(#b);}.bf{fill:#376a80;}.bg{fill:#396e85;}.bh{fill:#3b7189;}.bi{fill:#3d758d;}.bj{fill:#3f7992;}.bk{fill:#417c96;}.bl{fill:#43809b;}.bm{fill:#44849f;}.bn{fill:#35667c;}.bo{fill:#336377;}.bp{fill:#315f73;}.bq{fill:#336277;}.br{fill:#68daea;}.bs{fill:#498dab;}.bt{fill:url(#c);}.bu{fill:#def6ff;}.bv{fill:#d4fafc;}.bw{fill:#dd3eb0;}.bx{fill:#4bbbe8;}.by{opacity:0.265;}
        </style>
        <clipPath id="a">
            <path class="a"
                  d="M720.29,898.627a3.878,3.878,0,0,1,2.257,3.188l.012-7.743A3.889,3.889,0,0,0,720.3,890.9q-.008,3.861-.01,7.732,0-3.873.01-7.732a12.184,12.184,0,0,0-11.07-.042c0,2.568,0,5.15-.01,7.727.01-2.577,0-5.159.01-7.727a3.9,3.9,0,0,0-2.322,3.209l-.021,7.738c0-1.173.784-2.338,2.333-3.22A12.23,12.23,0,0,1,720.29,898.627Z"/>
        </clipPath>
        <clipPath id="b">
            <path class="a"
                  d="M706.908,894.062l-.021,7.724a3.9,3.9,0,0,0,2.262,3.2,12.168,12.168,0,0,0,11.065.052c1.543-.892,2.333-2.057,2.333-3.225q0-3.864.012-7.743a3.946,3.946,0,0,1-2.34,3.235,12.191,12.191,0,0,1-11.06-.047A3.916,3.916,0,0,1,706.908,894.062Z"/>
        </clipPath>
        <linearGradient id="c" y1="0.5" x2="1" y2="0.5" gradientUnits="objectBoundingBox">
            <stop offset="0" stop-color="#2f95e4"/>
            <stop offset="1" stop-color="#7133de"/>
        </linearGradient>
    </defs>
    <g transform="translate(424 674.699)">
        <path class="b"
              d="M640.862-1415.5s18.663-37.884-26.782,54.426-112.044,123.162-240.647,173.119-305.732-6.851-285.8,163.789,258.849,49.038,216.239,194.092S640.862-663.65,640.862-663.65Z"
              transform="translate(-453.857 748.5)"/>
        <g transform="translate(-787.14 -1035)">
            <g class="c">
                <path class="d"
                      d="M835.824,724.16c14.8,8.544,38.724,8.544,53.441,0s14.627-22.41-.169-30.955c-14.817-8.542-38.733-8.542-53.453,0s-14.618,22.4.181,30.957"/>
                <path class="e"
                      d="M831.146,710.746c17.406,9.625,45.529,9.625,62.827,0s17.2-25.246-.2-34.872c-17.415-9.624-45.535-9.624-62.836,0s-17.189,25.238.21,34.874"/>
                <path class="f"
                      d="M826.468,697.333c20.008,10.706,52.333,10.706,72.212,0s19.767-28.082-.231-38.789c-20.014-10.707-52.337-10.707-72.219,0s-19.761,28.073.238,38.791"/>
                <path class="g"
                      d="M821.79,683.919c22.611,11.788,59.138,11.788,81.6,0s22.338-30.919-.262-42.707-59.138-11.788-81.6,0-22.331,30.908.267,42.708"/>
                <path class="h"
                      d="M817.112,670.505c25.214,12.869,65.943,12.869,90.983,0S933,636.749,907.8,623.881s-65.941-12.871-90.986,0-24.9,33.743.3,46.624"/>
                <path class="i"
                      d="M812.434,657.092c27.817,13.95,72.748,13.95,100.368,0s27.477-36.592-.324-50.54-72.742-13.954-100.368,0-27.474,36.578.324,50.541"/>
                <path class="j"
                      d="M807.756,643.678c30.419,15.032,79.553,15.032,109.754,0s30.047-39.429-.355-54.458-79.544-15.036-109.752,0-30.045,39.413.353,54.458"/>
            </g>
            <g class="k">
                <path d="M711.443,648.077c-12.522,7.226-12.608,18.955-.152,26.19l41.1,23.883c12.459,7.238,32.706,7.229,45.223,0L850.9,667.384c12.533-7.231,12.6-18.96.151-26.188l-41.1-23.885c-12.452-7.238-32.686-7.238-45.219,0Z"/>
            </g>
            <path class="l"
                  d="M819.62,516.451a8.112,8.112,0,0,1,1.6-.346,1.182,1.182,0,0,1,.124-.009,5.584,5.584,0,0,1,1.577.077.236.236,0,0,1,.052.016,4.721,4.721,0,0,1,1.417.533c-.023-.012-.041-.025-.061-.036l-2.049-1.189-2.908-1.689a.166.166,0,0,0-.052-.032,4.865,4.865,0,0,0-.485-.242c-.167-.063-.339-.119-.511-.178-.113-.03-.23-.054-.35-.077l-.074-.018c-.043-.011-.082-.023-.12-.029a5.2,5.2,0,0,0-.588-.068c-.207-.012-.415-.016-.634-.007-.075,0-.154.018-.231.025-.038,0-.077.011-.117.013-.124.014-.244.018-.375.037a7.61,7.61,0,0,0-.85.183c-.126.031-.259.088-.379.128s-.217.073-.326.116a4.567,4.567,0,0,0-.44.149,9.842,9.842,0,0,0-1.351.675l-55.651,32.125a15.876,15.876,0,0,0-1.814,1.259c-.2.153-.379.334-.567.5-.289.251-.58.474-.853.748-.125.124-.247.264-.371.395-.1.108-.208.217-.309.332-.127.136-.256.26-.38.4-.267.307-.529.628-.784.958-.086.106-.169.221-.253.339-.043.063-.092.129-.14.187-.081.113-.169.231-.253.346-.19.269-.375.551-.556.836q-.257.4-.5.815a.336.336,0,0,0-.038.07.245.245,0,0,0-.034.064c-.133.223-.26.447-.386.675q-.211.42-.409.827c-.12.246-.235.495-.341.741a.27.27,0,0,0-.03.065.248.248,0,0,0-.018.034c-.122.289-.244.581-.352.87-.12.3-.231.6-.33.908-.05.156-.09.3-.136.463a1.511,1.511,0,0,0-.063.2c-.038.113-.07.219-.1.328-.1.37-.19.738-.271,1.113-.043.219-.077.448-.117.674-.016.115-.039.223-.055.338s-.045.217-.058.328a14.93,14.93,0,0,0-.122,1.9l.036,13.4c0,.007,0,.12.018.328a10.629,10.629,0,0,0,.233,1.99c.562,3.373,2.381,9.608,8.274,13.03l5.013,2.917c-5.9-3.425-7.712-9.662-8.273-13.037a10.428,10.428,0,0,1-.237-1.981c-.015-.208-.015-.328-.015-.335L752.2,566.23a15.429,15.429,0,0,1,.181-2.211c.018-.127.04-.24.061-.36a19.42,19.42,0,0,1,.492-2.116c.014-.057.032-.12.052-.179a22.3,22.3,0,0,1,2.026-4.619.041.041,0,0,1,.009-.025,23.6,23.6,0,0,1,1.363-2.083c.04-.061.085-.115.128-.176.45-.6.926-1.173,1.426-1.722.1-.1.2-.205.3-.314a16.294,16.294,0,0,1,1.248-1.17c.183-.158.354-.318.542-.467a14.708,14.708,0,0,1,1.818-1.27L817.5,517.393a11.246,11.246,0,0,1,1.78-.823C819.394,516.534,819.509,516.494,819.62,516.451Z"/>
            <path class="m"
                  d="M817.5,517.393c5.338-3.082,9.689-.61,9.7,5.537l.041,13.4c.018,6.147-4.3,13.622-9.651,16.7L767.17,582.152a27.356,27.356,0,0,0,2.571,15.228c-13.249-.491-16.468-10.726-17.246-15.427a10.428,10.428,0,0,1-.237-1.981c-.015-.208-.015-.328-.015-.335L752.2,566.23c-.011-6.144,4.3-13.624,9.648-16.712Z"/>
            <path class="l"
                  d="M837.624,635.1c.02-.185.036-.4.054-.605.01-.132.028-.267.032-.4.02-.257.041-.519.052-.8a2.112,2.112,0,0,0,.018-.25c.014-.3.023-.59.036-.9v-.32c.007-.3.014-.6.014-.908,0-.077-.007-.15-.007-.231-.007-.352-.02-.7-.038-1.053,0-.074,0-.142-.009-.205-.025-.341-.048-.685-.084-1.03-.007-.084-.016-.183-.027-.265a18.371,18.371,0,0,0-.4-2.392c-.022-.081-.036-.156-.061-.239-.09-.328-.183-.649-.289-.956-.02-.056-.036-.108-.054-.165a10.3,10.3,0,0,0-.431-1.019c-.046-.09-.095-.174-.145-.257a6.284,6.284,0,0,0-.386-.64,6.871,6.871,0,0,0-.506-.637c-.1-.1-.179-.221-.285-.32a4.46,4.46,0,0,0-.962-.741l4.292,2.494a4.491,4.491,0,0,1,.971.743c.1.09.167.2.256.3a5.841,5.841,0,0,1,.53.662c.028.049.071.081.1.124.09.142.16.305.251.452.058.122.122.232.192.352a.7.7,0,0,1,.033.068c.127.264.244.54.346.818a.292.292,0,0,0,.025.061c.038.1.065.21.1.3.052.154.109.31.152.466.034.108.056.23.09.352.027.1.057.208.088.317a.932.932,0,0,0,.043.171c.063.3.124.594.176.9l0,.011c.023.129.034.247.05.38.034.183.057.364.086.551.005.063.014.138.023.2.02.2.04.395.063.589,0,.07.009.14.009.208.02.115.02.23.029.348.014.208.023.411.046.617v.126c0,.174,0,.352.009.526s.02.364.02.549v.088c0,.2,0,.384-.009.581s0,.368-.011.547v.113c-.005.146-.009.273-.009.42-.023.251-.028.5-.046.732v.144c-.009.086-.018.147-.029.228-.018.364-.052.692-.072,1,0,.02-.007.05-.007.072a.077.077,0,0,1-.011.043c-.043.434-.079.807-.116,1.1v.007c-.015.09-.015.149-.027.216a.717.717,0,0,0-.02.158c-.018.123-.034.211-.041.258l-4.29-2.494c.016-.111.068-.488.136-1.023C837.586,635.467,837.6,635.306,837.624,635.1Z"/>
            <path class="l"
                  d="M754.533,639.278c.012-.332.03-.662.05-1,.009-.149.025-.312.034-.467a.9.9,0,0,1,.009-.156c.013-.125.018-.249.031-.373.034-.33.077-.669.116-1.008s.088-.684.144-1.03a.172.172,0,0,1,.007-.031v-.027c.059-.323.113-.651.174-.976.066-.357.142-.719.215-1.073.034-.131.063-.262.09-.4a1.7,1.7,0,0,0,.047-.187c.032-.161.073-.332.122-.493.082-.368.181-.725.28-1.089.073-.264.154-.528.231-.79.018-.05.029-.1.05-.154s.022-.09.036-.14c.108-.35.221-.707.341-1.062s.235-.7.361-1.046a1.3,1.3,0,0,0,.055-.149c.038-.083.072-.169.106-.259.07-.2.147-.4.219-.595.135-.332.266-.664.406-.991.093-.249.2-.479.3-.714.018-.041.029-.084.047-.12s.043-.1.073-.158c.142-.33.3-.659.449-.989.167-.366.344-.716.515-1.08.034-.059.068-.118.1-.174a1.542,1.542,0,0,1,.079-.165c.151-.3.3-.592.461-.886.178-.336.368-.659.546-.984.125-.222.254-.439.375-.653.027-.057.059-.115.091-.168.147-.253.316-.5.474-.749.3-.5.6-1,.917-1.471.043-.07.084-.138.134-.206.413-.628.851-1.242,1.292-1.854.3-.4.6-.8.915-1.188.264-.339.528-.656.788-.99.264-.31.531-.614.791-.919s.528-.595.8-.884c.043-.052.083-.09.128-.137s.107-.107.154-.156c.183-.2.373-.4.554-.59.284-.289.576-.572.871-.854.084-.084.177-.163.263-.248.07-.064.137-.127.205-.2.142-.122.282-.264.434-.4.3-.265.6-.534.91-.8.14-.113.274-.221.423-.334.061-.054.126-.113.192-.165.1-.079.2-.161.3-.244.291-.235.591-.466.894-.687.233-.167.468-.332.707-.5a.318.318,0,0,1,.054-.043c.048-.034.093-.061.136-.092.287-.2.578-.394.868-.581s.573-.357.872-.526c.069-.046.137-.084.2-.118l57.051-32.945c.221-.122.438-.242.648-.368.287-.147.565-.292.845-.432.179-.086.359-.167.533-.251.052-.02.093-.045.143-.065s.1-.05.153-.077c.278-.122.547-.237.818-.343s.558-.215.829-.31a1.443,1.443,0,0,1,.156-.052.545.545,0,0,0,.088-.034c.19-.061.386-.126.576-.183.285-.09.567-.162.847-.237.136-.031.271-.059.405-.093l.173-.031c.089-.018.179-.041.265-.056.3-.062.6-.114.9-.15.19-.029.362-.04.547-.056a1.684,1.684,0,0,1,.172-.02c.065-.005.131-.014.19-.019.334-.022.65-.036.969-.034.144,0,.275.012.411.021.113,0,.221.009.323.018s.224,0,.33.016a11.258,11.258,0,0,1,1.181.167.254.254,0,0,0,.027.007,1.5,1.5,0,0,0,.195.052,11.177,11.177,0,0,1,1.213.341c.031.011.059.029.092.041a10.55,10.55,0,0,1,1.568.722l4.288,2.5a9.485,9.485,0,0,0-1.575-.73,10.756,10.756,0,0,0-1.245-.362c-.083-.018-.167-.052-.246-.065a10.9,10.9,0,0,0-1.547-.194c-.1,0-.2-.012-.3-.016a14.794,14.794,0,0,0-1.57.025c-.056.011-.117.018-.183.029a15.784,15.784,0,0,0-1.706.255c-.051.012-.11.03-.171.039-.6.14-1.191.3-1.807.508-.039.011-.077.029-.127.041q-.956.332-1.954.788c-.041.014-.07.025-.106.041q-1.012.474-2.051,1.07l-57.052,32.935c-.686.4-1.371.833-2.046,1.3-.05.025-.1.066-.145.1-.628.443-1.249.911-1.855,1.408a2.3,2.3,0,0,0-.185.144c-.6.49-1.184,1-1.764,1.541-.063.056-.129.122-.194.176-.588.551-1.166,1.136-1.731,1.733-.029.038-.065.072-.092.1-.6.628-1.168,1.278-1.731,1.956l-.013.016c-.025.027-.048.056-.07.081a49.757,49.757,0,0,0-3.066,4.152c-.28.42-.54.852-.8,1.283-.237.391-.49.768-.714,1.164-.1.158-.176.314-.264.472-.38.666-.746,1.333-1.1,2.015-.018.043-.043.083-.065.131-.4.795-.782,1.606-1.139,2.419-.009.023-.027.055-.036.084-.339.775-.653,1.552-.944,2.342-.025.077-.059.156-.088.233-.292.795-.563,1.6-.8,2.4-.023.065-.041.131-.059.2-.235.775-.445,1.554-.621,2.322-.018.074-.032.145-.048.224-.189.788-.341,1.59-.467,2.372-.007.031-.009.072-.016.1-.122.8-.224,1.586-.289,2.37a2.493,2.493,0,0,0-.018.256c-.064.79-.093,1.567-.093,2.34s.036,1.531.1,2.257c.013.088.022.165.029.237.07.666.165,1.319.287,1.938.009.081.034.163.05.246.122.6.278,1.188.449,1.749.036.108.07.217.113.334.165.5.355.983.558,1.437.041.072.054.158.1.23a12.356,12.356,0,0,0,.845,1.548,11.594,11.594,0,0,0,1.441,1.786c.133.143.269.269.411.4a10.272,10.272,0,0,0,1.746,1.33l-4.292-2.5a9.569,9.569,0,0,1-1.748-1.338c-.138-.121-.269-.252-.4-.386a11.369,11.369,0,0,1-1.453-1.8h0a13.842,13.842,0,0,1-.8-1.443.578.578,0,0,1-.043-.1c-.027-.066-.059-.14-.093-.217-.126-.3-.269-.6-.386-.922-.068-.18-.118-.361-.183-.542-.038-.111-.066-.217-.1-.314s-.063-.185-.088-.282c-.111-.35-.194-.714-.285-1.087-.025-.113-.043-.239-.07-.359-.024-.095-.038-.19-.056-.287-.027-.126-.059-.246-.079-.375-.054-.33-.109-.666-.154-1.014-.025-.181-.034-.368-.054-.554a1.366,1.366,0,0,1-.018-.192,2.365,2.365,0,0,1-.027-.25c-.03-.321-.045-.649-.063-.981s-.021-.648-.021-1V640.2C754.524,639.894,754.524,639.585,754.533,639.278Z"/>
            <path class="m"
                  d="M779.269,607.261c-11.34,6.546-20.491,22.407-20.455,35.437.029,12.625,8.724,18.6,19.592,12.323.33-.188.665-.393,1-.606,8.756-5.595,23.442-16.061,36.3-23.473,7.269-4.2,13.963-7.434,18.646-8.243,10.1-1.767,7.509,15.539,7.375,16.452a201.06,201.06,0,0,0,14.594-47.216c.119-.607.207-1.179.286-1.773.073-.526.111-.815.111-.831.1-1.087.19-2.191.19-3.264-.039-13.03-9.258-18.285-20.584-11.741Z"/>
            <path class="l"
                  d="M890.826,538.146c.011-.122.025-.266.036-.413.009-.086.016-.181.018-.269.014-.172.027-.353.041-.547.005-.061.005-.117.005-.174.013-.2.018-.4.027-.612,0-.065,0-.142,0-.215,0-.205,0-.408,0-.621,0-.052,0-.106,0-.156,0-.239-.013-.476-.022-.716,0-.049-.009-.1-.009-.14-.019-.235-.037-.465-.055-.7-.007-.055-.011-.122-.02-.181a13.53,13.53,0,0,0-.276-1.624c-.013-.054-.029-.113-.042-.167-.057-.222-.125-.441-.2-.651a.677.677,0,0,1-.034-.111q-.135-.359-.3-.693c-.029-.061-.07-.113-.1-.179a3.637,3.637,0,0,0-.265-.433,4.352,4.352,0,0,0-.341-.432,2.861,2.861,0,0,0-.194-.212,3.02,3.02,0,0,0-.657-.515l2.925,1.7a3.556,3.556,0,0,1,.66.515c.061.059.113.129.174.2a4.327,4.327,0,0,1,.363.445.382.382,0,0,0,.066.084c.061.1.111.21.169.312.045.081.086.153.131.235a.474.474,0,0,1,.021.052,5.319,5.319,0,0,1,.239.558.141.141,0,0,0,.016.038c.025.07.045.142.063.208a2.571,2.571,0,0,1,.106.314c.027.074.041.158.066.235a1.5,1.5,0,0,0,.059.217c0,.045.016.083.02.122a5.96,5.96,0,0,1,.126.61l0,.006c.015.084.022.172.036.258.02.124.041.251.056.379l.014.136c.018.135.027.269.038.4a1.389,1.389,0,0,1,.014.142,2.307,2.307,0,0,1,.018.233c.011.143.013.285.029.421,0,.031,0,.054,0,.085.005.122.005.244.01.36s.013.25.013.375v.06c0,.132,0,.258-.009.4s0,.248,0,.368v.077c-.005.1-.01.187-.012.289-.016.172-.018.339-.029.5v.1c-.005.056-.009.1-.018.156-.014.248-.034.474-.052.686v.048a.064.064,0,0,1-.009.025c-.029.3-.054.551-.079.75v0c-.012.063-.012.1-.021.149s-.011.079-.015.106a1.4,1.4,0,0,1-.028.172l-2.92-1.7c.013-.074.054-.332.092-.693C890.795,538.4,890.808,538.288,890.826,538.146Z"/>
            <path class="l"
                  d="M834.263,540.988c.009-.224.018-.452.036-.673,0-.109.018-.215.018-.323,0-.036.009-.073.009-.106.009-.082.014-.165.023-.256.022-.221.052-.454.076-.686s.064-.468.1-.7c0-.007,0-.018,0-.021v-.02c.039-.221.079-.443.12-.664.048-.242.1-.49.142-.734a1.653,1.653,0,0,0,.064-.267c.011-.041.02-.084.031-.126.027-.113.052-.229.084-.335.059-.246.124-.495.19-.741.052-.181.106-.364.158-.546.009-.032.018-.064.031-.1a.3.3,0,0,0,.023-.092c.081-.244.158-.484.237-.721s.161-.481.249-.716c.011-.032.02-.065.036-.1a1.773,1.773,0,0,0,.068-.18c.049-.134.1-.265.156-.4.087-.226.176-.452.27-.678.066-.167.136-.323.206-.488a.468.468,0,0,1,.036-.079.507.507,0,0,1,.045-.1c.1-.23.2-.456.308-.677.113-.244.232-.495.352-.737a1.156,1.156,0,0,1,.065-.119.881.881,0,0,1,.055-.111c.106-.2.2-.4.311-.6.125-.222.253-.441.376-.669.085-.147.169-.3.257-.445a.923.923,0,0,1,.061-.115c.1-.172.212-.339.323-.509.2-.339.4-.673.623-1,.03-.046.059-.093.093-.138.278-.429.576-.85.877-1.261.205-.275.411-.549.623-.815l.538-.667c.176-.214.357-.422.538-.628s.359-.4.546-.6a1.013,1.013,0,0,1,.084-.094c.036-.034.072-.075.106-.111.129-.134.253-.273.379-.393.19-.2.389-.4.592-.588.059-.058.12-.11.181-.165s.09-.09.14-.133c.1-.088.194-.185.291-.269.208-.185.412-.368.62-.546.094-.077.185-.151.289-.231a1.49,1.49,0,0,1,.133-.106,2.294,2.294,0,0,1,.2-.169c.2-.158.407-.317.61-.472.163-.116.321-.224.483-.335a.1.1,0,0,1,.037-.029.45.45,0,0,0,.088-.068c.2-.131.393-.264.6-.389s.393-.246.588-.361c.051-.029.1-.054.142-.083l38.832-22.421c.152-.084.3-.17.443-.253.2-.1.386-.2.574-.292.117-.06.244-.112.361-.169l.1-.047c.036-.018.07-.037.1-.052.185-.082.37-.154.56-.226a5.594,5.594,0,0,1,.56-.215.331.331,0,0,1,.108-.034c.018-.009.037-.018.055-.025.135-.043.264-.088.4-.124.194-.065.386-.117.576-.162.091-.021.181-.046.276-.064.038,0,.077-.016.115-.022.061-.016.122-.032.179-.041.207-.043.415-.072.612-.1.131-.021.25-.025.375-.041a.926.926,0,0,1,.117-.011c.045-.005.091-.007.127-.014.226-.016.443-.025.664-.025.1,0,.185.014.273.018s.154.007.224.014.156,0,.221.007a7.923,7.923,0,0,1,.807.115l.018,0c.041.009.088.032.133.038a8.364,8.364,0,0,1,.829.229c.023.006.036.022.061.029a6.077,6.077,0,0,1,1.06.5l2.925,1.7a6.815,6.815,0,0,0-1.069-.5,8.146,8.146,0,0,0-.847-.239c-.065-.016-.117-.041-.176-.052a7.677,7.677,0,0,0-1.048-.129c-.068,0-.136-.011-.2-.011a10.223,10.223,0,0,0-1.075.022c-.041,0-.079.009-.127.009a10.068,10.068,0,0,0-1.156.183.649.649,0,0,0-.118.023,11.9,11.9,0,0,0-1.229.346.819.819,0,0,0-.088.027c-.434.149-.881.33-1.335.535a.232.232,0,0,0-.068.03q-.687.324-1.4.729L851.1,519.193c-.469.276-.935.572-1.4.9a.454.454,0,0,0-.094.063c-.427.3-.852.621-1.266.958-.045.034-.081.063-.124.1-.406.334-.806.68-1.2,1.046l-.134.12c-.4.379-.8.77-1.179,1.181-.02.025-.043.045-.065.072-.4.425-.791.868-1.177,1.327a.015.015,0,0,1-.009.013.347.347,0,0,1-.045.054,33.627,33.627,0,0,0-2.088,2.829c-.19.289-.368.585-.547.872-.16.262-.334.524-.49.79-.058.106-.12.217-.176.323-.26.454-.506.906-.745,1.374-.012.027-.032.054-.046.083-.273.545-.533,1.1-.774,1.645a.551.551,0,0,1-.025.061c-.233.528-.443,1.064-.642,1.6-.018.05-.04.108-.059.158-.2.542-.388,1.087-.546,1.631-.014.045-.03.1-.041.136-.158.531-.3,1.061-.422,1.579-.009.052-.027.1-.032.158-.126.533-.237,1.077-.321,1.613,0,.02-.009.049-.009.065-.088.545-.153,1.08-.2,1.613a1.248,1.248,0,0,0-.016.179c-.039.533-.057,1.066-.057,1.59s.021,1.044.066,1.536c.007.059.013.113.023.165a12.211,12.211,0,0,0,.194,1.322c.007.054.016.108.025.162.088.409.2.807.314,1.186.022.079.047.149.074.231.115.339.244.666.384.982a.736.736,0,0,0,.068.154,8.938,8.938,0,0,0,.572,1.057,7.854,7.854,0,0,0,.985,1.213c.09.095.185.183.28.276a6.565,6.565,0,0,0,1.186.9l-2.924-1.692a7.06,7.06,0,0,1-1.19-.91c-.093-.086-.181-.174-.269-.267a7.276,7.276,0,0,1-.989-1.227h0a8.247,8.247,0,0,1-.554-.982.461.461,0,0,0-.025-.066c-.02-.047-.04-.1-.061-.147-.088-.2-.185-.413-.266-.628-.045-.122-.079-.25-.127-.37a1.816,1.816,0,0,0-.07-.215c-.02-.063-.038-.126-.054-.19-.074-.241-.136-.487-.192-.738-.018-.082-.034-.165-.052-.246a1.422,1.422,0,0,1-.036-.2,2.187,2.187,0,0,1-.054-.253c-.043-.224-.075-.45-.109-.685-.016-.124-.02-.255-.031-.379-.009-.045-.014-.093-.018-.133-.005-.057-.014-.111-.014-.17-.023-.214-.036-.443-.045-.664s-.016-.447-.016-.678v-.045C834.256,541.41,834.256,541.2,834.263,540.988Z"/>
            <path class="m"
                  d="M851.1,519.193c-7.721,4.459-13.947,15.253-13.92,24.124.018,8.591,5.939,12.657,13.335,8.39.224-.129.45-.271.674-.413,5.966-3.811,15.959-10.929,24.706-15.978,4.957-2.862,9.506-5.061,12.7-5.616,6.874-1.2,5.114,10.581,5.019,11.2a136.711,136.711,0,0,0,9.936-32.139c.086-.407.144-.8.192-1.2.054-.357.079-.556.079-.563a21.869,21.869,0,0,0,.128-2.225c-.027-8.869-6.3-12.44-14.012-7.99Z"/>
            <g class="n">
                <path class="o" d="M846.4,580.026a2.227,2.227,0,1,1-2.223-2.225A2.223,2.223,0,0,1,846.4,580.026Z"/>
            </g>
            <path class="b" d="M848.795,533.917l.014,4.3-1,.581-.011-4.3Z"/>
            <path class="b" d="M844.806,536.219l.014,4.308-1,.572-.013-4.306Z"/>
            <path class="b" d="M854.115,530.845l.016,4.306-1,.576-.016-4.3Z"/>
            <path class="b" d="M852.109,529.323l.025,9.549-.987.576-.027-9.549Z"/>
            <path class="b" d="M846.8,532.395l.027,9.549-1,.576-.029-9.546Z"/>
            <path class="b" d="M850.444,528.177l.045,14.135-.994.578-.036-14.139Z"/>
            <path class="b" d="M886.351,512.041l.018,4.312-1,.572-.014-4.3Z"/>
            <path class="b" d="M882.364,514.345l.011,4.308-1,.58-.009-4.312Z"/>
            <path class="b" d="M891.675,508.971l.011,4.31-1,.574-.009-4.308Z"/>
            <path class="b" d="M889.669,507.453l.025,9.549-.994.572-.027-9.551Z"/>
            <path class="b" d="M884.347,510.521l.025,9.549-.989.571-.027-9.549Z"/>
            <path class="b" d="M888,506.315l.036,14.125-.985.567-.043-14.125Z"/>
            <path class="b" d="M893.668,508.011l.016,6.687-1,.572-.018-6.682Z"/>
            <path class="b" d="M898.981,504.943l.018,4.3-1,.581-.018-4.308Z"/>
            <path class="b" d="M896.98,503.421l.025,9.546-1,.574-.023-9.547Z"/>
            <path class="b" d="M895.31,502.275l.045,14.135-1,.574-.036-14.135Z"/>
            <path class="b" d="M858.089,524.725l.02,8.123-.989.576-.027-8.128Z"/>
            <path class="b" d="M863.42,525.473l.02,8.214-.994.572-.023-8.209Z"/>
            <path class="b" d="M861.418,523.951l.027,9.546-1,.578-.032-9.546Z"/>
            <path class="b" d="M867.4,518.4l.023,9.081-1,.574-.023-9.084Z"/>
            <path class="b" d="M865.41,521.646l.029,9.544-1,.581-.029-9.544Z"/>
            <path class="b" d="M856.1,527.02l.031,9.551-1,.571L855.1,527.6Z"/>
            <path class="b" d="M859.749,522.81l.038,14.132-.983.569-.045-14.132Z"/>
            <path class="b" d="M871.4,520.869l.009,4.3-1,.578-.016-4.3Z"/>
            <path class="b" d="M876.719,517.8l.018,8.207-1,.576-.018-8.207Z"/>
            <path class="b" d="M874.713,516.274l.027,9.553-.992.572-.031-9.549Z"/>
            <path class="b" d="M880.7,515.495l.016,4.308-.994.572-.016-4.306Z"/>
            <path class="b" d="M878.718,518.741l.011,4.78-1,.576-.014-4.778Z"/>
            <path class="b" d="M869.39,519.344l.032,9.553-1,.571-.027-9.551Z"/>
            <path class="b" d="M873.039,515.136l.045,14.128-.989.574-.041-14.135Z"/>
            <path class="b" d="M764.534,564.644l.016,4.685-1.089.63-.011-4.687Z"/>
            <path class="b" d="M760.187,567.152l.014,4.694-1.082.623-.016-4.692Z"/>
            <path class="b" d="M770.335,561.3l.018,4.69-1.091.628-.018-4.69Z"/>
            <path class="b" d="M768.146,559.636l.029,10.4-1.078.63-.027-10.407Z"/>
            <path class="b" d="M762.358,562.984l.029,10.405-1.089.628-.032-10.405Z"/>
            <path class="b" d="M766.332,558.389l.05,15.4-1.082.63-.041-15.409Z"/>
            <path class="b" d="M805.467,540.8l.018,4.7-1.089.623-.016-4.692Z"/>
            <path class="b" d="M801.119,543.31l.016,4.7-1.089.632-.009-4.7Z"/>
            <path class="b" d="M811.27,537.455l.011,4.7-1.1.626-.009-4.7Z"/>
            <path class="b" d="M809.084,535.8l.027,10.407-1.084.621-.032-10.41Z"/>
            <path class="b" d="M803.28,539.145l.029,10.407-1.08.623-.027-10.407Z"/>
            <path class="b" d="M807.263,534.559l.041,15.4-1.075.617-.045-15.4Z"/>
            <path class="b" d="M813.441,536.409l.016,7.288-1.087.624-.022-7.283Z"/>
            <path class="b" d="M819.231,533.068l.018,4.685-1.089.63-.02-4.692Z"/>
            <path class="b" d="M817.051,531.407l.025,10.4-1.086.626-.025-10.4Z"/>
            <path class="b" d="M815.231,530.158l.047,15.4-1.084.626-.041-15.4Z"/>
            <path class="b" d="M774.665,554.626l.023,8.853-1.082.628-.027-8.858Z"/>
            <path class="b" d="M780.476,555.441l.02,8.95-1.082.626-.027-8.95Z"/>
            <path class="b" d="M778.294,553.781l.027,10.405-1.082.63-.036-10.4Z"/>
            <path class="b" d="M784.809,547.727l.025,9.9-1.091.626-.027-9.9Z"/>
            <path class="b" d="M782.644,551.271l.029,10.4-1.089.63-.034-10.4Z"/>
            <path class="b" d="M772.5,557.126l.034,10.41-1.091.623-.032-10.4Z"/>
            <path class="b" d="M776.473,552.538l.045,15.4-1.073.619-.05-15.4Z"/>
            <path class="b" d="M789.173,550.422l.009,4.685-1.086.633-.018-4.69Z"/>
            <path class="b" d="M794.967,547.074l.02,8.946-1.089.628-.018-8.943Z"/>
            <path class="b" d="M792.783,545.416l.029,10.412-1.082.621-.034-10.4Z"/>
            <path class="b" d="M799.309,544.564l.016,4.7-1.08.623-.02-4.694Z"/>
            <path class="b" d="M797.147,548.106l.011,5.2-1.084.63-.016-5.207Z"/>
            <path class="b" d="M786.982,548.761l.032,10.409-1.082.623-.029-10.409Z"/>
            <path class="b" d="M790.96,544.176,791,559.571l-1.075.626-.047-15.4Z"/>
            <path class="b" d="M777.013,628.766l.02,6.307-1.466.849-.014-6.31Z"/>
            <path class="b" d="M771.164,632.141l.018,6.318-1.459.84-.02-6.314Z"/>
            <path class="b" d="M784.82,624.262l.022,6.314-1.466.843-.025-6.309Z"/>
            <path class="b" d="M781.874,622.028l.038,14-1.448.847-.041-14.006Z"/>
            <path class="b" d="M774.085,626.535l.039,14-1.466.849-.041-14Z"/>
            <path class="b" d="M779.434,620.349l.063,20.729-1.455.849-.056-20.74Z"/>
            <path class="b" d="M832.1,596.682l.025,6.323-1.466.84-.023-6.316Z"/>
            <path class="b" d="M826.25,600.057l.023,6.321-1.466.852-.014-6.328Z"/>
            <path class="b" d="M839.915,592.175l.013,6.321-1.473.842-.011-6.321Z"/>
            <path class="b" d="M836.971,589.948l.034,14.008-1.457.836-.043-14.008Z"/>
            <path class="b" d="M829.162,594.45l.038,14.006-1.452.838-.038-14.008Z"/>
            <path class="b" d="M834.523,588.276,834.575,609l-1.446.829-.063-20.718Z"/>
            <path class="b" d="M842.836,590.768l.02,9.806-1.461.838-.029-9.8Z"/>
            <path class="b" d="M850.627,586.27l.027,6.307-1.466.847-.027-6.314Z"/>
            <path class="b" d="M847.693,584.036l.036,14-1.464.843-.032-14Z"/>
            <path class="b" d="M845.244,582.355l.065,20.733-1.461.84L843.8,583.2Z"/>
            <path class="b" d="M790.648,615.282l.032,11.916-1.457.847-.038-11.923Z"/>
            <path class="b" d="M798.466,616.38l.029,12.05-1.457.84L797,617.225Z"/>
            <path class="b" d="M795.53,614.148l.038,14-1.457.847-.047-14Z"/>
            <path class="b" d="M804.3,606l.031,13.319-1.466.845-.036-13.324Z"/>
            <path class="b" d="M801.385,610.769l.043,14-1.468.847-.043-14Z"/>
            <path class="b" d="M787.729,618.651l.043,14.01-1.464.838-.047-14Z"/>
            <path class="b" d="M793.079,612.472l.061,20.731-1.444.833-.063-20.729Z"/>
            <path class="b" d="M810.171,609.628l.016,6.3-1.461.849-.025-6.31Z"/>
            <path class="b" d="M817.973,605.121,818,617.16l-1.468.847-.023-12.041Z"/>
            <path class="b" d="M815.034,602.889l.038,14.013-1.459.836-.045-14Z"/>
            <path class="b" d="M823.817,601.742l.02,6.323-1.455.836-.027-6.316Z"/>
            <path class="b" d="M820.908,606.508l.013,7.007-1.461.845-.02-7.005Z"/>
            <path class="b" d="M807.225,607.389l.043,14.013-1.457.838-.038-14.01Z"/>
            <path class="b" d="M812.579,601.22l.061,20.72-1.448.84-.063-20.729Z"/>
            <path class="p"
                  d="M883.17,606.816c-2.97-.1-4.992,9.524-7.895,17.155l-14.114-6.2a20.37,20.37,0,0,1-2.322-3.267c-.615-1.314-1.261-1.427-1.55-1.391s.065.9.138,1.489c.047.607,1.014,1.737.253,1.588s-4.27-2.178-5.171-1.5c-.411.318-1.139.083,1.08,2.568a14.329,14.329,0,0,0,5.652,3.4c6.734,6.5,16.276,10.4,16.276,10.4v-.006a4.117,4.117,0,0,0,2.232-.116c4.726-3.752,7.222-11.433,8.168-18.6C886.591,607.218,883.17,606.816,883.17,606.816Z"/>
            <path class="q"
                  d="M882.032,606.31c1.534-.464,4.455-.1,4.455,4.59s-.154,6.307-1.751,10.127c-.78,1.891-6.431,1.028-7.92-2.049C875.955,617.182,878.973,607.238,882.032,606.31Z"/>
            <path class="r"
                  d="M847.51,699.907c-11.248,6.493-11.323,17.038-.129,23.532,11.175,6.5,29.36,6.5,40.615,0s11.306-17.039.131-23.516C876.933,693.41,858.755,693.41,847.51,699.907Z"/>
            <path class="s"
                  d="M871.943,700.3s-2.781.411-2.1,2.006c.666,1.61,3.863,4.039,4.272,5.051.431,1.005,3.036,4.626,3.869,4.3.856-.346,3.036.165,2.774-3.96S875.646,700.12,871.943,700.3Z"/>
            <path class="s"
                  d="M866.641,715.433s1.347,3.951-2.015,4.878-2.36-1.175-9.675.68-8.16-1.943-8-2.779,5.056-2.363,6.662-2.779c1.588-.417,4.617-1.176,4.617-1.176h8.679Z"/>
            <path class="t"
                  d="M880.462,646.025s.041,23.878.041,26.569,3.008,23.87,1.208,33.13c0,0-5.214,5.216-9.811,0,0,0-1.479-26.532-2.808-32.514s-.89-24.3-.89-24.3Z"/>
            <path class="t"
                  d="M871.336,649.412s-1.186,15.426-2.411,30.706c0,0-.786,30.35-1.491,34.724,0,0-9.786,2.435-10.769-2.183,0,0,.258-26.712,0-32.294-.235-5.578-.815-21.145,1.394-30.133S871.336,649.412,871.336,649.412Z"/>
            <path class="u"
                  d="M867.434,714.842c.7-4.374,1.491-34.724,1.491-34.724.822-10.287,1.627-20.631,2.06-26.3L864.94,655.3s-4.353,11.442-3.686,28.6c.517,13.281.729,26.336.795,31.576A24.759,24.759,0,0,0,867.434,714.842Z"/>
            <path class="u"
                  d="M881.711,705.724c1.8-9.26-1.208-30.449-1.208-33.13,0-2.569-.037-24.341-.041-26.4l-5.255,4.042s-1.653,17.071,0,26.794c1.523,8.86.552,26.08,1.286,31.023A8.341,8.341,0,0,0,881.711,705.724Z"/>
            <path class="v"
                  d="M883.019,605.487s4.489,2.356,1.762,10.021S880.15,628.12,880.236,631s.96,12.578,1.531,14.553c0,0,.635,6.368-13.951,9.86,0,0-11.973.965-9.847-6.856s3.126-20.5,2.878-23.534c-.233-3.036-1.934-9.118,5.713-13.051S878.2,605.092,883.019,605.487Z"/>
            <path class="q"
                  d="M860.847,625.019c.248,3.031-.759,15.711-2.878,23.534-1.471,5.433,3.822,6.626,7.224,6.841,1.15-3.484-.555-9.78,2.117-17.39,3.285-9.405,2.975-15.671,1.4-20.756-1.008-3.283-2.98-3.414-4.365-3.9C859.281,617.212,860.635,622.317,860.847,625.019Z"/>
            <path class="v"
                  d="M881.767,645.549c-.571-1.975-1.432-11.679-1.531-14.553s1.888-7.812,4.545-15.488c2.521-7.269-.217-9.235-1.762-10.021-.868,3.773-14,5.1-13.748,7.64.309,2.822,3.756,5.524,3.856,10.568a74.049,74.049,0,0,1-1.658,16.2c-.823,3.233-.592,11.076.072,14.454C882.289,650.783,881.767,645.549,881.767,645.549Z"/>
            <path class="p"
                  d="M877.724,601.573s-.565,4.02.77,6.569c1.218,2.318-8.315,4.217-8.5,2.087a9.133,9.133,0,0,0-.341-7.814C868.5,600.237,877.724,601.573,877.724,601.573Z"/>
            <path class="w"
                  d="M878.449,608.28a11.883,11.883,0,0,1-.836-5.86l-7,3.3v.02c.262.061,4.907,1.342,5.851,4.737C877.909,609.915,878.883,609.129,878.449,608.28Z"/>
            <path class="p"
                  d="M867.945,590.671a17.378,17.378,0,0,0-1.32,6.783c.251,3.4-.278,4.078-.092,5.589a3.684,3.684,0,0,0,.732,2.234c1.034,1.033,3.187,1.442,6.124.441,3.544-1.229,7.371-6.009,5.955-10.41S873.332,587.214,867.945,590.671Z"/>
            <path class="x"
                  d="M879.084,600.027c-1.335-3.96-4.753-8.747-4.712-9a12.185,12.185,0,0,0-2.445-1.71,8,8,0,0,0-3.982,1.358,19.482,19.482,0,0,0-.786,2.347c.829.953,2.523,2.06,2.774,2.859a10.266,10.266,0,0,1-.427,6c-.581,1.247,1.64,3.136,1.156,4.252a.173.173,0,0,0-.025.144,10.1,10.1,0,0,0,2.752-.555A10.278,10.278,0,0,0,879.084,600.027Z"/>
            <path class="y"
                  d="M864.319,589.313a29.588,29.588,0,0,0,5.1,4.536c1.762,1.073,1.608,3.933,1.506,4.489s-.693,3.076-.472,3.395c.425.626,1.909-1.279,2.6-1.134,1.753.373,1.024,2-.609,3.687-1.731,1.795,2.724,2.625,4.82,1.165,1.118-.777,1.523-1.249,3.032-4.093,2.178-4.145,2.383-9.163-2.51-11.948S866.189,588.271,864.319,589.313Z"/>
            <path class="z"
                  d="M877.265,605.451a7.936,7.936,0,0,0,3.459-3.908c2.182-4.141,2.706-11.137-2.9-13.025-5.338-1.8-12.337-.2-13.509.795,0,0,3.305.987,3.411,1.71,1.556.289,5.026.6,6.1,2.471,1.321,2.291,2.846,1.6,2.672,4.407-.165,2.716.468,6.292-4.125,7.74C874.053,606.883,876.454,606.016,877.265,605.451Z"/>
            <path class="aa"
                  d="M870.552,608.98l-3.14,2.546s9.569,2.95,12.481-1.715a2.75,2.75,0,0,0-1.7-3.352S877.787,610.29,870.552,608.98Z"/>
            <path class="p"
                  d="M864.929,613.848c-2.975-.088-5,9.526-7.9,17.164L842.913,624.8a19.881,19.881,0,0,1-2.316-3.259c-.621-1.3-1.269-1.424-1.559-1.383s.088.895.131,1.489,1.024,1.73.26,1.572-4.267-2.166-5.171-1.484c-.413.309-1.12.081,1.067,2.568A14.715,14.715,0,0,0,841,627.694c6.723,6.5,16.272,10.4,16.272,10.4v-.005a4.144,4.144,0,0,0,2.234-.126c4.715-3.75,7.211-11.428,8.155-18.589C868.335,614.255,864.929,613.848,864.929,613.848Z"/>
            <path class="v"
                  d="M863.786,613.344c1.534-.461,4.457-.108,4.457,4.588s-.154,6.3-1.749,10.132c-.777,1.895-6.438,1.019-7.929-2.058C857.714,624.217,860.734,614.268,863.786,613.344Z"/>
            <g class="k">
                <path d="M363.14,660.205,431.6,698.263c4.332,2.394,13.025,2.038,17.4-.375C479.258,681.164,568.426,631.4,568.426,631.4c4.379-2.438,4.4-6.33.07-8.73l-69.2-38.474Z"/>
            </g>
            <path class="l"
                  d="M437.34,701.5,437,582.405l-4.569-2.659.338,119.1a3.1,3.1,0,0,0,1.294,2.83q2.285,1.329,4.57,2.654A3.1,3.1,0,0,1,437.34,701.5Z"/>
            <path class="l" d="M437,582.405l-4.569-2.659-.047-16.111,4.576,2.665Z"/>
            <path class="m"
                  d="M611.1,481.906,437,582.405,437.34,701.5c.015,2.816,1.995,3.936,4.43,2.532L607.034,608.6a9.667,9.667,0,0,0,4.4-7.6Z"/>
            <path class="ab"
                  d="M606.62,463.277c2.432-1.41,4.419-.282,4.422,2.518l.054,16.111L437,582.405l-.04-16.105a9.714,9.714,0,0,1,4.4-7.613Z"/>
            <path class="l"
                  d="M607.591,462.838a3.223,3.223,0,0,1,.719-.149.164.164,0,0,1,.06-.014,2.486,2.486,0,0,1,.724.042h.018a2.089,2.089,0,0,1,.653.253c-.008-.011-.025-.011-.032-.024L605.16,460.3a1.478,1.478,0,0,0-.229-.113c-.076-.028-.146-.061-.225-.086a.759.759,0,0,1-.152-.03.061.061,0,0,1-.044-.011c-.019,0-.029-.011-.052-.011a1.242,1.242,0,0,0-.262-.025,1.66,1.66,0,0,0-.3-.019.155.155,0,0,1-.088.019h-.083c-.048.014-.093.014-.146.025-.134.022-.259.047-.395.077-.055.02-.113.047-.161.061a1.257,1.257,0,0,0-.161.061,1.3,1.3,0,0,0-.192.058c-.194.093-.416.19-.621.306l-165.27,95.416a7.947,7.947,0,0,0-.819.573c-.091.078-.187.169-.28.246-.124.107-.248.207-.36.32a2.062,2.062,0,0,0-.165.176c-.054.053-.108.114-.164.166s-.1.116-.149.171c-.127.149-.254.289-.366.439-.048.052-.081.107-.128.165a.237.237,0,0,1-.059.077c-.035.053-.075.1-.108.16-.1.127-.164.251-.263.375-.068.124-.141.246-.221.384,0,.005-.012.019-.021.03a.074.074,0,0,1-.026.019,3.37,3.37,0,0,1-.158.312c-.061.135-.142.256-.2.378s-.1.229-.139.345c-.014,0-.014.016-.014.019s-.014.011-.014.022c-.053.13-.11.262-.154.392a3.033,3.033,0,0,0-.16.419,1.408,1.408,0,0,0-.054.2c-.007.038-.032.074-.038.1-.017.044-.023.1-.047.151-.042.169-.089.337-.116.505-.026.1-.033.2-.061.3a1,1,0,0,1-.026.155c0,.05-.018.1-.021.154a6.649,6.649,0,0,0-.06.855l4.575,2.665a6.6,6.6,0,0,1,.093-1.015c0-.052.012-.1.019-.155.061-.317.134-.639.229-.962.01-.03.01-.063.028-.083a8.286,8.286,0,0,1,.384-1.034.051.051,0,0,1,.016-.047,9.733,9.733,0,0,1,.507-1c.007-.017.021-.03.023-.041a10.525,10.525,0,0,1,.613-.941c.016-.031.048-.055.054-.088.214-.268.43-.53.642-.773.054-.047.1-.1.148-.151.189-.185.375-.356.576-.522.075-.077.157-.146.24-.223a8.6,8.6,0,0,1,.832-.574l165.26-95.41a4.337,4.337,0,0,1,.808-.373C607.49,462.877,607.537,462.857,607.591,462.838Z"/>
            <path class="m"
                  d="M447.915,569.985a8.856,8.856,0,0,0,4.021-6.965c0-2.567-1.816-3.585-4.05-2.3a8.833,8.833,0,0,0-4.024,6.945c.005,2.576,1.831,3.594,4.053,2.317Z"/>
            <path class="m"
                  d="M460.134,562.907a8.868,8.868,0,0,0,4.03-6.961c-.01-2.563-1.822-3.589-4.06-2.3a8.88,8.88,0,0,0-4.027,6.953c.018,2.56,1.843,3.592,4.057,2.306Z"/>
            <path class="m"
                  d="M472.051,556a8.9,8.9,0,0,0,4.034-6.973c-.013-2.552-1.829-3.58-4.066-2.29A8.862,8.862,0,0,0,468,553.692c0,2.56,1.83,3.586,4.051,2.309Z"/>
            <path class="b" d="M427.25,634.142l.06,19.639-4.565,2.634-.059-19.639Z"/>
            <path class="b" d="M409.046,644.664l.047,19.639-4.529,2.623-.047-19.647Z"/>
            <path class="b" d="M451.526,620.141l.059,19.63-4.563,2.629-.054-19.639Z"/>
            <path class="b" d="M442.374,613.2l.125,43.572-4.544,2.618-.125-43.575Z"/>
            <path class="b" d="M418.129,627.2l.113,43.572-4.555,2.631-.116-43.583Z"/>
            <path class="b" d="M434.782,607.972l.178,64.479-4.528,2.626-.186-64.5Z"/>
            <path class="b" d="M598.656,534.3l.074,19.675-4.577,2.629-.059-19.672Z"/>
            <path class="b" d="M580.452,544.816l.061,19.674-4.573,2.634-.045-19.669Z"/>
            <path class="b" d="M622.926,520.292l.06,19.672-4.562,2.628-.054-19.664Z"/>
            <path class="b" d="M613.781,513.353l.11,43.572-4.514,2.62-.139-43.569Z"/>
            <path class="b" d="M589.5,527.364l.132,43.578-4.545,2.623-.126-43.583Z"/>
            <path class="b" d="M606.154,508.164l.188,64.471-4.5,2.6-.187-64.469Z"/>
            <path class="b" d="M632.024,515.921l.084,30.492-4.556,2.637-.091-30.492Z"/>
            <path class="b" d="M656.294,501.909l.051,19.63-4.555,2.632-.051-19.625Z"/>
            <path class="b" d="M647.148,494.969l.109,43.569-4.529,2.623-.117-43.577Z"/>
            <path class="b" d="M639.545,489.737l.189,64.5-4.529,2.62-.177-64.5Z"/>
            <path class="b" d="M469.657,592.192l.1,37.087-4.529,2.612-.094-37.082Z"/>
            <path class="b" d="M493.987,595.623l.1,37.454-4.533,2.62-.113-37.463Z"/>
            <path class="b" d="M484.855,588.664l.121,43.58-4.554,2.634-.131-43.586Z"/>
            <path class="b" d="M512.13,563.3l.1,41.445-4.545,2.634-.123-41.454Z"/>
            <path class="b" d="M503.067,578.152l.131,43.569-4.576,2.642-.117-43.578Z"/>
            <path class="b" d="M460.58,602.684l.125,43.569L456.15,648.9l-.135-43.586Z"/>
            <path class="b" d="M477.241,583.456l.185,64.488-4.519,2.615-.174-64.51Z"/>
            <path class="b" d="M530.409,574.586l.045,19.639-4.547,2.643-.063-19.636Z"/>
            <path class="b" d="M554.667,560.579l.124,37.457-4.568,2.634-.114-37.46Z"/>
            <path class="b" d="M545.515,553.643l.131,43.577-4.53,2.615-.123-43.575Z"/>
            <path class="b" d="M572.861,550.087l.052,19.639-4.532,2.606-.063-19.644Z"/>
            <path class="b" d="M563.794,564.9l.052,21.8-4.551,2.634-.06-21.8Z"/>
            <path class="b" d="M521.247,567.66l.126,43.572-4.528,2.609-.138-43.58Z"/>
            <path class="b" d="M537.9,548.413l.192,64.507-4.519,2.609-.167-64.5Z"/>
            <g class="c">
                <path class="d"
                      d="M551.3,700.944c18.083,10.437,47.3,10.437,65.271-.006s17.867-27.367-.208-37.8c-18.094-10.442-47.3-10.442-65.282,0-17.956,10.432-17.86,27.359.219,37.8"/>
                <path class="e"
                      d="M545.584,684.561c21.261,11.758,55.609,11.758,76.736,0s21.005-30.832-.246-42.584c-21.269-11.764-55.614-11.764-76.745,0-21.113,11.752-21,30.823.255,42.589"/>
                <path class="f"
                      d="M539.871,668.178c24.438,13.079,63.919,13.079,88.2,0s24.144-34.3-.284-47.369c-24.443-13.085-63.922-13.085-88.206,0s-24.138,34.286.291,47.373"/>
                <path class="g"
                      d="M534.157,651.795c27.615,14.4,72.23,14.4,99.664,0s27.282-37.761-.322-52.155-72.231-14.406-99.669,0-27.277,37.75.327,52.158"/>
                <path class="h"
                      d="M528.443,635.412c30.793,15.721,80.541,15.721,111.128,0s30.421-41.225-.36-56.94-80.538-15.727-111.13,0-30.416,41.213.362,56.942"/>
                <path class="i"
                      d="M522.73,619.029c33.97,17.043,88.851,17.043,122.592,0s33.558-44.69-.4-61.725-88.847-17.049-122.593,0-33.555,44.676.4,61.726"/>
                <path class="j"
                      d="M517.016,602.645c37.148,18.365,97.162,18.365,134.056,0s36.7-48.153-.436-66.509-97.155-18.37-134.054,0-36.695,48.14.434,66.509"/>
            </g>
            <g class="k">
                <path d="M609.1,668.934c12.75,7.354,12.82,19.289.162,26.648s-33.269,7.353-46.013,0-12.818-19.294-.15-26.65S596.353,661.581,609.1,668.934Z"/>
            </g>
            <path class="p"
                  d="M576.914,549.753s-1.094-4.548-1.7-5.356c-.589-.808-3.05-4.295-6.517-4.444-1.863-.091-.59,1.7,1.38,3.658.9.871,1.748,1.326,1.77,3.447a14.316,14.316,0,0,0,1.2,4.825C573.53,552.914,576.914,549.753,576.914,549.753Z"/>
            <path class="x"
                  d="M572.91,551.7c-.484-1.018-.941-3.263-2-4.38-1.245-1.355.059-2.836-.838-3.707-1.533-1.52-2.632-3-2.168-3.5,1.077,1.236,3.205.527,4.875,4.449a26.331,26.331,0,0,1,1.355,6.918C573.323,551.88,573.1,552.106,572.91,551.7Z"/>
            <path class="q"
                  d="M608.373,566.73s.35,5.826-7.211,4.747-21.393-4.752-23.516-8.051-5.047-12.545-5.047-12.545,3.69.726,4.657-2.341l7.279,10.991S608.224,562.648,608.373,566.73Z"/>
            <path class="p"
                  d="M574.295,551.336s-3.722-3.718-4.692-5.017-1.105-2.593-.7-2.521c.387.061,3.436,3.721,4.4,2.312C573.818,545.368,573.875,550.68,574.295,551.336Z"/>
            <path class="s"
                  d="M588.133,681.661s2.506,4.008-.975,4.967-2.427-1.219-9.992.69-6.68-2.342-6.508-3.224c.17-.861,3.462-2.077,5.114-2.516s8.258-1.955,8.258-1.955l4.044.744Z"/>
            <path class="s"
                  d="M592.716,670.551s-2.888.435-2.187,2.1,4.035,4.207,4.462,5.274c.443,1.051,3.108,4.311,4.039,4.471,1.568.271,3.169.182,2.9-4.129S596.579,670.36,592.716,670.551Z"/>
            <path class="p"
                  d="M605.172,597.088s5.62,8.343,1.961,22.424c0,0-6.3,21.252-5.166,25.431,1.115,4.168,5.489,9.359,2.432,22.8,0,0-2.352,7.925-2.541,10.134-.2,2.262-3.94,2.474-4.49-.063-1.174-5.379-.288-13.389-1.108-17.366-2.66-13.027-4.047-19.827-3.2-28.689s-.184-28.942-.184-28.942S602.92,603.865,605.172,597.088Z"/>
            <path class="p"
                  d="M598.874,602.149s4.832,8.84-.119,22.513c0,0-8.251,20.576-7.515,24.838s4.223,7.031.295,22.937c0,0-3.208,7.657-3.45,9.856-.407,3.5-3.936,3.935-4.31,1.368-.763-5.23.784-15.2.348-19.247-1.433-13.215-2.2-20.114-.528-28.857s2.508-28.84,2.508-28.84S596,608.7,598.874,602.149Z"/>
            <path class="v"
                  d="M584.92,573.074s15.77-15.487,21.12-10.98c0,0,4.787,3.66,2.823,16.323s-5.073,14.928-1.978,22.526c0,0-6.2,12.4-21.965,6.764,0,0,2.424-12.558.565-16.277-4.641-9.276-4.932-14.028-1.19-17.622Z"/>
            <path class="ac"
                  d="M606.885,600.943s6.627,5.622,3.565,25.2c-2.077,13.258-.059,39.553-.059,39.553s-16.668,10.335-30.174,4.134c0,0-.556-25.6.947-41.93s3.756-20.2,3.756-20.2S597.125,613.03,606.885,600.943Z"/>
            <path class="s"
                  d="M582.646,680.765s2.031,4.338,5.528.965c0,0,.555,4.634-2.761,4.027S580.766,681.721,582.646,680.765Z"/>
            <path class="p"
                  d="M556.233,584.739s-3.793-.086-5.132-1.691-3.163-3.274-3.6-4.774-.14-2.036,1.055-1.741a21.248,21.248,0,0,1,6.059,3.771A4.667,4.667,0,0,0,557.2,581.8C557.766,582.008,558.213,583.928,556.233,584.739Z"/>
            <path class="p"
                  d="M557.2,581.8a4.667,4.667,0,0,1-2.584-1.495,21.248,21.248,0,0,0-6.059-3.771,1.748,1.748,0,0,0-.447-.074c.96.981,2.581,2.656,4.036,4.085a11.533,11.533,0,0,0,5.5,2.612C557.755,582.505,557.5,581.909,557.2,581.8Z"/>
            <path class="q"
                  d="M589.472,575.339c-1.066-1.473-3.806-2.952-7.313.394s-13.19,12.768-13.19,12.768-11.174-6.752-12.578-7.334a2.623,2.623,0,0,1-1.19,3.588s9.211,11.251,13.544,10.846C573.057,595.182,593.852,581.41,589.472,575.339Z"/>
            <path class="p"
                  d="M556.729,582.052s-2.2-3.417-3.034-4.349c-.814-.93-1.775-1.25-1.792-.935s2.264,3.205,1.043,3.7C552.3,580.731,556.3,581.628,556.729,582.052Z"/>
            <path class="p"
                  d="M589.683,563.572l-.6,7.207s6.616,3.616,11.315-2.093l-.777-7.765A16.754,16.754,0,0,1,589.683,563.572Z"/>
            <path class="ad"
                  d="M592.317,541.741c-2.2.2-4.773.543-7.823,4.164-3.394,4.025-3.644,8.3-.679,14.029,3.156,6.09-.594,14.481-1.939,15.7s16.54.836,23.468-9.5C605.344,566.132,608.62,540.226,592.317,541.741Z"/>
            <path class="s"
                  d="M580.755,680.765s1.891-.607,2.193-3.986c0,0,2.3,1.644,6.606.692,0,0,.178,6.339-.809,8.038C588.745,685.509,579.769,684.182,580.755,680.765Z"/>
            <path class="s"
                  d="M596.892,674.456s2.688,3.525,5.188,2.058c0,0-.092,3.053-.165,3.561s-2.782,1.332-3.838.179A8.057,8.057,0,0,1,596.892,674.456Z"/>
            <path class="l"
                  d="M694.468,770.329l-3.393-1.971c.181-.532,3.553-10.742,1.221-16.2l3.39,1.973C698.018,759.587,694.647,769.8,694.468,770.329Z"/>
            <path class="l"
                  d="M703.334,706.473c.168.1.339.2.506.294q1.441.838,2.887,1.68c-1.034-.6-2.464-.515-4.041.393l-3.395-1.973C700.873,705.956,702.3,705.873,703.334,706.473Z"/>
            <path class="l"
                  d="M660.315,772.609l-3.4-1.973a3.984,3.984,0,0,1-1.653-3.64l3.393,1.971A3.977,3.977,0,0,0,660.315,772.609Z"/>
            <path class="l" d="M658.66,768.967,655.267,767l-.076-28.11,3.387,1.971Z"/>
            <path class="l" d="M664.254,731.028l-3.393-1.971,38.43-22.19,3.4,1.973Z"/>
            <path class="l"
                  d="M658.578,740.857l-3.387-1.97a12.48,12.48,0,0,1,5.67-9.83l3.393,1.971A12.5,12.5,0,0,0,658.578,740.857Z"/>
            <path class="m"
                  d="M702.686,708.84c3.144-1.815,5.689-.351,5.7,3.262l.076,28.107c-.026.9-.551,18-14,30.12.179-.533,3.55-10.742,1.218-16.2l-31.314,18.074c-3.144,1.818-5.705.375-5.712-3.241l-.082-28.11a12.5,12.5,0,0,1,5.676-9.829Z"/>
            <path class="ae"
                  d="M696.811,721c1.126-.649,2.052-.142,2.055,1.17a4.525,4.525,0,0,1-2.044,3.539l-26.586,15.348c-1.133.655-2.052.128-2.06-1.168a4.5,4.5,0,0,1,2.044-3.535Z"/>
            <path class="ae"
                  d="M696.811,730.621c1.126-.651,2.052-.134,2.055,1.176a4.516,4.516,0,0,1-2.044,3.534l-26.586,15.348c-1.133.655-2.052.128-2.06-1.168a4.5,4.5,0,0,1,2.044-3.535Z"/>
            <path class="ae"
                  d="M696.811,740.248c1.126-.656,2.052-.139,2.055,1.171a4.509,4.509,0,0,1-2.044,3.534l-26.586,15.355c-1.133.648-2.052.118-2.06-1.17a4.5,4.5,0,0,1,2.044-3.54Z"/>
            <g class="af">
                <path class="ag"
                      d="M558.815,842.515a40.163,40.163,0,1,1-40.162-40.164A40.163,40.163,0,0,1,558.815,842.515Z"/>
                <path class="ah"
                      d="M552.783,842.647a34.09,34.09,0,1,1-34.089-34.091A34.089,34.089,0,0,1,552.783,842.647Z"/>
                <path class="ai"
                      d="M546.752,842.778a28.017,28.017,0,1,1-28.017-28.017A28.017,28.017,0,0,1,546.752,842.778Z"/>
                <path class="aj"
                      d="M540.72,842.91a21.943,21.943,0,1,1-21.943-21.944A21.944,21.944,0,0,1,540.72,842.91Z"/>
                <path class="ak"
                      d="M534.689,843.042a15.87,15.87,0,1,1-15.871-15.871A15.871,15.871,0,0,1,534.689,843.042Z"/>
                <path class="al" d="M528.657,843.173a9.8,9.8,0,1,1-9.8-9.8A9.8,9.8,0,0,1,528.657,843.173Z"/>
                <path class="am" d="M522.626,843.3a3.723,3.723,0,1,1-3.726-3.724A3.725,3.725,0,0,1,522.626,843.3Z"/>
            </g>
            <g class="an">
                <path class="ag"
                      d="M589.134,914.41a40.165,40.165,0,1,1-40.164-40.161A40.163,40.163,0,0,1,589.134,914.41Z"/>
                <path class="ah" d="M583.1,914.542a34.092,34.092,0,1,1-34.091-34.089A34.09,34.09,0,0,1,583.1,914.542Z"/>
                <path class="ai"
                      d="M577.071,914.674a28.02,28.02,0,1,1-28.018-28.016A28.017,28.017,0,0,1,577.071,914.674Z"/>
                <path class="aj"
                      d="M571.039,914.806a21.946,21.946,0,1,1-21.944-21.943A21.944,21.944,0,0,1,571.039,914.806Z"/>
                <path class="ak"
                      d="M565.008,914.938a15.874,15.874,0,1,1-15.872-15.871A15.871,15.871,0,0,1,565.008,914.938Z"/>
                <path class="al" d="M558.977,915.071a9.8,9.8,0,1,1-9.8-9.8A9.8,9.8,0,0,1,558.977,915.071Z"/>
                <path class="am" d="M552.945,915.2a3.727,3.727,0,1,1-3.726-3.726A3.725,3.725,0,0,1,552.945,915.2Z"/>
            </g>
            <path class="ao"
                  d="M505.033,862.953l112.694-64.38a11.839,11.839,0,0,1,10.745.055l150.7,88.5c2.958,1.745,2.926,4.524-.068,6.232L666.429,957.728a11.808,11.808,0,0,1-10.748-.044l-150.7-88.51C502.02,867.442,502.049,864.653,505.033,862.953Z"/>
            <path class="ap" d="M518.661,844.407l-.01,7.741,107.307-61.3.016-7.727Z"/>
            <path class="aq" d="M625.974,783.115l-.016,7.727L754,866.041l.005-7.727Z"/>
            <g class="ar">
                <g class="as">
                    <g class="ar">
                        <path class="at"
                              d="M706.908,894.062l-.021,7.724c0-1.159.784-2.324,2.333-3.206a7.872,7.872,0,0,1,1.133-.533l0-7.738a8.374,8.374,0,0,0-1.128.544,3.9,3.9,0,0,0-2.322,3.209Z"/>
                        <path class="au"
                              d="M710.358,890.309l0,7.738c.307-.12.625-.23.947-.32l.011-7.73a8.6,8.6,0,0,0-.953.312Z"/>
                        <path class="av"
                              d="M711.311,890l-.011,7.73c.268-.071.544-.144.816-.2l.019-7.725a7.878,7.878,0,0,0-.824.194Z"/>
                        <path class="aw"
                              d="M712.135,889.8l-.019,7.725c.266-.047.523-.1.788-.131l.015-7.733a7.832,7.832,0,0,0-.784.139Z"/>
                        <path class="ax"
                              d="M712.919,889.664,712.9,897.4c.251-.029.508-.061.768-.081l.006-7.728c-.25.018-.512.045-.759.076Z"/>
                        <path class="ay"
                              d="M713.678,889.588l-.006,7.728c.247-.019.509-.032.769-.035l.011-7.74c-.255.01-.512.021-.774.047Z"/>
                        <path class="az"
                              d="M714.452,889.541l-.011,7.74c.273-.005.525-.005.8,0l.016-7.733c-.273-.01-.538-.01-.8-.01Z"/>
                        <path class="ba"
                              d="M715.257,889.551l-.016,7.733c.292.013.586.037.866.065l.021-7.735c-.286-.026-.579-.047-.871-.063Z"/>
                        <path class="bb"
                              d="M716.128,889.614l-.021,7.735c.349.029.667.084,1,.132l.016-7.722c-.339-.063-.661-.116-.995-.145Z"/>
                        <path class="bc"
                              d="M717.123,889.759l-.016,7.722a12.186,12.186,0,0,1,1.472.388l.016-7.733a10.073,10.073,0,0,0-1.472-.377Z"/>
                        <path class="bd"
                              d="M718.595,890.136l-.016,7.733a8.471,8.471,0,0,1,1.711.758c.026.016.063.032.092.053l.01-7.738a.71.71,0,0,0-.092-.047,8.025,8.025,0,0,0-1.705-.759Z"/>
                        <path class="bc"
                              d="M720.392,890.942l-.01,7.738a6.83,6.83,0,0,1,.989.734l.011-7.722a5.281,5.281,0,0,0-.99-.75Z"/>
                        <path class="bb"
                              d="M721.382,891.692l-.011,7.722a6.168,6.168,0,0,1,.477.52l.011-7.73a3.412,3.412,0,0,0-.477-.512Z"/>
                        <path class="ba"
                              d="M721.859,892.2l-.011,7.73c.124.17.221.32.313.472l.01-7.727a2.525,2.525,0,0,0-.312-.475Z"/>
                        <path class="az"
                              d="M722.171,892.679l-.01,7.727a4.456,4.456,0,0,1,.21.447l.01-7.728a2.084,2.084,0,0,0-.21-.446Z"/>
                        <path class="ay"
                              d="M722.381,893.125l-.01,7.728a1.819,1.819,0,0,1,.112.435l.021-7.727a2.387,2.387,0,0,0-.123-.436Z"/>
                        <path class="ax"
                              d="M722.5,893.561l-.021,7.727a1.78,1.78,0,0,1,.064.464l.012-7.743c-.012-.147-.028-.3-.055-.448Z"/>
                        <path class="aw" d="M722.559,894.009l-.012,7.743v.063l.012-7.743v-.063Z"/>
                    </g>
                </g>
            </g>
            <g class="ar">
                <g class="be">
                    <g class="ar">
                        <path class="bf" d="M706.908,894.062l-.021,7.724a.2.2,0,0,0,.01.077l.011-7.733v-.068Z"/>
                        <path class="bg"
                              d="M706.908,894.13l-.011,7.733a2.792,2.792,0,0,0,.043.456l.015-7.746a2.039,2.039,0,0,1-.047-.443Z"/>
                        <path class="bh"
                              d="M706.955,894.573l-.015,7.746a4.122,4.122,0,0,0,.128.436l.013-7.738a3.065,3.065,0,0,1-.126-.444Z"/>
                        <path class="bi"
                              d="M707.081,895.017l-.013,7.738a2.711,2.711,0,0,0,.205.446l.021-7.733a2.132,2.132,0,0,1-.213-.451Z"/>
                        <path class="bj"
                              d="M707.294,895.468l-.021,7.733a3.275,3.275,0,0,0,.307.472l.021-7.738a2.652,2.652,0,0,1-.307-.467Z"/>
                        <path class="bk"
                              d="M707.6,895.935l-.021,7.738a5.139,5.139,0,0,0,.49.528l.011-7.736a5.226,5.226,0,0,1-.48-.53Z"/>
                        <path class="bl"
                              d="M708.081,896.465l-.011,7.736a6.385,6.385,0,0,0,.984.726l.016-7.727a6.375,6.375,0,0,1-.989-.735Z"/>
                        <path class="bm"
                              d="M709.07,897.2l-.016,7.727a.355.355,0,0,0,.095.061,9.664,9.664,0,0,0,1.705.766l.021-7.738a10.594,10.594,0,0,1-1.716-.756c-.031-.023-.063-.042-.089-.06Z"/>
                        <path class="bl"
                              d="M710.875,898.016l-.021,7.738a10.407,10.407,0,0,0,1.493.362l0-7.733a9.112,9.112,0,0,1-1.475-.367Z"/>
                        <path class="bk"
                              d="M712.35,898.383l0,7.733a7.6,7.6,0,0,0,.992.149l.011-7.735a10.049,10.049,0,0,1-1-.147Z"/>
                        <path class="bj"
                              d="M713.35,898.53l-.011,7.735c.294.021.575.056.869.066l.008-7.733c-.3-.01-.583-.031-.866-.068Z"/>
                        <path class="bi"
                              d="M714.216,898.6l-.008,7.733c.265.011.532.011.792.011l.021-7.738c-.265,0-.533,0-.8-.006Z"/>
                        <path class="bh"
                              d="M715.021,898.6,715,906.342c.257-.011.514-.029.764-.04l.021-7.738c-.247.024-.512.04-.764.04Z"/>
                        <path class="bg"
                              d="M715.785,898.564l-.021,7.738c.262-.026.519-.052.768-.092l.011-7.724c-.242.036-.5.055-.758.078Z"/>
                        <path class="bf"
                              d="M716.543,898.486l-.011,7.724c.263-.031.525-.078.785-.118l.005-7.735c-.252.047-.506.092-.779.129Z"/>
                        <path class="bn"
                              d="M717.322,898.357l-.005,7.735c.268-.068.543-.123.811-.2l.016-7.736c-.273.074-.544.142-.822.2Z"/>
                        <path class="bo"
                              d="M718.144,898.16l-.016,7.736c.322-.1.645-.2.952-.318l.021-7.738a9.183,9.183,0,0,1-.957.32Z"/>
                        <path class="bp"
                              d="M719.1,897.84l-.021,7.738a8.873,8.873,0,0,0,1.134-.538c1.543-.892,2.333-2.057,2.333-3.225l.012-7.743a3.946,3.946,0,0,1-2.34,3.235,8.837,8.837,0,0,1-1.118.533Z"/>
                    </g>
                </g>
            </g>
            <path class="bq" d="M646.716,919.606l-.018,7.735L754,866.041l.005-7.727Z"/>
            <path class="br"
                  d="M709.235,890.853c-3.08,1.755-3.111,4.615-.076,6.407a12.191,12.191,0,0,0,11.06.047c3.075-1.752,3.12-4.638.081-6.412A12.174,12.174,0,0,0,709.235,890.853Z"/>
            <path class="bs" d="M518.661,844.407l-.01,7.741L646.7,927.341l.018-7.735Z"/>
            <path class="bt" d="M518.661,844.407l128.055,75.2L754.01,858.314l-128.036-75.2Z"/>
            <path class="bu" d="M548.967,843.2l94.988,55.776,79.586-45.464-94.972-55.779Z"/>
            <path class="l" d="M609.393,823.932l26.961,15.83,22.571-12.9-26.937-15.825Z"/>
            <path class="l"
                  d="M503.828,844.761c.011.021.011.055.021.068a2.613,2.613,0,0,0,.365.717c.024.042.05.073.071.118a4.119,4.119,0,0,0,.6.671c.166.142.37.287.559.428.15.1.283.213.441.31l150.72,88.515-.021,7.722L505.883,854.8c-.034-.018-.061-.037-.1-.058h0a2.744,2.744,0,0,1-.349-.257,4.565,4.565,0,0,1-.558-.42c-.013-.013-.04-.026-.045-.034a5.06,5.06,0,0,1-.472-.506.712.712,0,0,1-.076-.129.491.491,0,0,1-.092-.121c-.047-.076-.1-.147-.139-.207a3.775,3.775,0,0,1-.2-.436.3.3,0,0,0-.015-.068.424.424,0,0,1-.026-.081,1.7,1.7,0,0,1-.077-.281,3.109,3.109,0,0,1-.047-.435l.005-7.725v-.079A2.71,2.71,0,0,0,503.828,844.761Z"/>
            <path class="bv"
                  d="M618.65,776.477a11.832,11.832,0,0,1,10.742.047l150.715,88.509c2.952,1.732,2.913,4.521-.076,6.217L667.355,935.632a11.877,11.877,0,0,1-10.747-.044l-150.72-88.515c-2.947-1.737-2.926-4.521.068-6.227Zm28.066,143.129L754.01,858.314l-128.036-75.2L518.661,844.407l128.055,75.2Zm73.5-22.3c3.075-1.752,3.12-4.638.081-6.412a12.184,12.184,0,0,0-11.07-.042c-3.075,1.755-3.106,4.615-.071,6.407a12.191,12.191,0,0,0,11.06.047Z"/>
            <path class="l"
                  d="M656.608,935.588a7.609,7.609,0,0,0,1.493.65,6.007,6.007,0,0,0,.572.184,7.676,7.676,0,0,0,.755.192c.3.07.614.115.921.162a2.154,2.154,0,0,0,.231.032c.42.05.84.073,1.262.081h.226a11.769,11.769,0,0,0,1.254-.068,1.8,1.8,0,0,0,.189-.013c.4-.047.806-.118,1.21-.2.084-.026.165-.041.241-.063a8.145,8.145,0,0,0,1.016-.307c.07-.029.144-.041.22-.065a9.254,9.254,0,0,0,1.157-.541L780.031,871.25a3.765,3.765,0,0,0,2.264-3.112c-.005,2.574-.01,5.161-.01,7.729a3.787,3.787,0,0,1-2.259,3.126L667.337,943.357a8.856,8.856,0,0,1-1.1.533c-.016,0-.037.01-.058.01-.066.026-.129.042-.2.071-.221.079-.431.16-.661.22-.129.037-.252.061-.376.09a1.067,1.067,0,0,1-.231.044,1.153,1.153,0,0,1-.194.058,7.527,7.527,0,0,1-.748.123c-.086.013-.194.024-.275.034a1.2,1.2,0,0,0-.187.021c-.091.011-.188.024-.275.027-.252.021-.5.039-.753.042a1.175,1.175,0,0,1-.236-.011,1.119,1.119,0,0,1-.192,0c-.113,0-.233.011-.346,0-.289-.021-.559-.031-.848-.058-.029,0-.065-.01-.1-.01a1.915,1.915,0,0,0-.21-.034c-.215-.021-.435-.06-.661-.1-.1-.018-.168-.05-.265-.071-.257-.055-.509-.126-.758-.191a4.025,4.025,0,0,1-.407-.1c-.065-.026-.113-.053-.178-.084a8.022,8.022,0,0,1-1.493-.661Z"/>
            <path class="l" d="M569.775,848.2l4.085,2.393,36.42-20.642-4.217-2.477Z"/>
            <path class="l" d="M580.947,854.6l4.085,2.4,36.417-20.645-4.219-2.477Z"/>
            <path class="l" d="M590.918,861.31l4.078,2.4,36.417-20.645-4.214-2.477Z"/>
            <path class="l"
                  d="M709.235,891.645c-3.08,1.758-3.111,4.621-.076,6.408a12.176,12.176,0,0,0,11.06.047c3.075-1.758,3.12-4.639.081-6.408A12.186,12.186,0,0,0,709.235,891.645Z"/>
            <path class="b"
                  d="M584.639,814.547c-13.943,8.047,36.617,22.424,26.043,33.153a26.065,26.065,0,0,1-5.574,4.392c-11.8,6.815-22.337-1.965-31.027,3.055-9.7,5.6,9.427,18.249,1.222,22.99a8.451,8.451,0,0,1-.942.457c-9.356,3.849-24.7.564-32.093,4.83-8.425,4.865,8.958,13.954,1,18.551-1.642.948-4.355,1.706-8.587,2.194a22.459,22.459,0,0,0-8.762,2.692c-7.056,4.072-7.245,10.622-7.255,10.968.415-.22,8.3-4.44,17.431-9.711,6.966-4.02,18.367-3.878,25.984-3.55,5.445.236,8.777-.394,10.847-1.587,3.383-1.95,3.388-5.419,3.724-9.071s1.015-7.513,5.751-10.247a25.691,25.691,0,0,1,8.4-2.752c10.028-1.771,22.51,7.8,35.228.462,8.4-4.849,5.978-11.155,4.005-19.068-1.089-4.33-.441-7.72,2.287-9.3,2.43-1.4,6.513-1.354,12.485.769,10.824,3.852,23.245,11.419,29.026,8.079a5.581,5.581,0,0,0,2.319-2.692c4.065-9.139-14.345-17.84-4.489-24,.212-.134.42-.257.63-.38,13.337-7.7,29.435,2.931,42.719-1.517a23.906,23.906,0,0,0,4.264-1.821c5.429-3.141,3.005-6.864-1.724-12.39-4.626-5.379-6.6-11.417.6-15.578a27.426,27.426,0,0,1,6.612-2.566A26.677,26.677,0,0,0,731.3,798.3c3.542-2.047,5.641-4.594,7.754-7.15a27.874,27.874,0,0,1,7.845-7.208,24.8,24.8,0,0,1,2.745-1.351c1.766-.745,2.629-1.113,2.791-1.21.945-.543-20.946,8.006-26.564,8.785-5.478.758-15.224-.226-21.448,3.366a10.888,10.888,0,0,0-4.348,4.45c-3.348,6.45-2.479,10.465-6.509,12.789a18.582,18.582,0,0,1-6.662,1.9c-11.876,1.661-33.888-9.242-45.376-3.073-10.981,6.329,4.34,11.677-1.317,16.342C633.352,829.928,598.1,806.772,584.639,814.547Z"/>
            <path class="s"
                  d="M728.114,926.173s-3.314,1.055-2.125,2.75,5.675,3.834,6.423,4.9,4.771,4.691,5.728,4.127,3.753-.449,2.511-5.127S732.617,925.2,728.114,926.173Z"/>
            <path class="ac"
                  d="M740.6,858.81s4.919,8.078,2.185,20.219-1.915,29.189-1.915,29.189,2.151,21.8.317,25.751A9.835,9.835,0,0,1,730.484,933l-3.637-40.4-1.4-29.671S737.474,861.5,740.6,858.81Z"/>
            <path class="bw"
                  d="M726.847,892.6l-1.1-23.274,4.663-.986s2.563,20.918,1.076,25.853c-1.163,3.878,2.4,28.317,2.207,40.511A9.758,9.758,0,0,1,730.484,933Z"/>
            <path class="s"
                  d="M701.311,923.659s-1.65,3.469-4.668,2-.9-2.249-7.368-5.568-4.439-6.24-3.883-6.817c1.3-1.326,5.174,1.569,6.6,2.282a38.171,38.171,0,0,0,4.763,1.638l5.536,5.843Z"/>
            <path class="ac"
                  d="M733.179,862.137s3.678,10.33-2.638,14.518-13.319,11.92-15.035,15.378-11.246,31.283-11.246,31.283-6.761,2.652-11.681-2.259c0,0,7.659-32.624,10.341-36.971s14.686-24.951,14.686-24.951A39.663,39.663,0,0,0,733.179,862.137Z"/>
            <path class="bw"
                  d="M692.579,921.057s7.659-32.624,10.341-36.971c2.5-4.062,13.114-22.246,14.523-24.678l4.508,8.365s-8.266,9.525-9.879,12.406c-1.517,2.7-12.191,28.382-14.495,43.6A9.853,9.853,0,0,1,692.579,921.057Z"/>
            <path class="x"
                  d="M740.087,814.935s-5.36-.64-3.206,7.675a82.786,82.786,0,0,0,6.916,16.8s4.4,16.612,4.327,19.663a5.515,5.515,0,0,1-.787,2.724,4.452,4.452,0,0,0-.359,3.188,4.373,4.373,0,0,1-.362,2.564.653.653,0,0,0,.758,1.015,3.628,3.628,0,0,0,1.3-3.172s.588.811.779,4.857c.079,1.71,1.53,2.246,3.2-.207a11.91,11.91,0,0,0,.155-7.187,17.382,17.382,0,0,1-.819-5.713c-.1-2.212.31-14.006-2.351-23.565C748.261,828.606,744.558,814.557,740.087,814.935Z"/>
            <path class="bx"
                  d="M738.912,814.494c7.281-1.645,13.211,22.684,13.411,29.063,0,0-2.27,1.322-7.759-.076C744.564,843.481,730.523,816.373,738.912,814.494Z"/>
            <path class="bx" d="M752.323,843.557l.487,15.851s-2.495,1.629-6.137-.105l-2.254-16.675Z"/>
            <path class="u"
                  d="M740.266,814.069s5.056.486,2.547,9.722-3.778,19.283-3.439,22.652a109.125,109.125,0,0,0,2.967,14.526s.735,7.029-15.793,12.372c0,0-13.741.942-11.936-8.431s1.923-24.378,1.4-27.915-2.981-10.554,5.5-15.818S734.666,814.006,740.266,814.069Z"/>
            <path class="bx"
                  d="M716.013,836.995c.522,3.537.4,18.54-1.4,27.915-1.255,6.5,4.941,8.392,8.861,8.368,1.057-4.2.181-12.577,2.634-21.755,3.036-11.327.556-18.485-1.669-24.318-1.438-3.787-3.707-3.771-5.35-4.23C713.559,827.95,715.546,833.84,716.013,836.995Z"/>
            <path class="p"
                  d="M735.7,809.727s-.858,4.568.472,7.562c1.226,2.708-9.566,4.324-9.648,1.884a10.589,10.589,0,0,0,.082-8.953C725.438,807.664,735.7,809.727,735.7,809.727Z"/>
            <path class="w"
                  d="M736.117,817.441c-1.005-2.228-.782-5.313-.6-6.751l-8.03,3.361v.024c.279.086,5.419,1.821,6.277,5.741C735.409,819.27,736.555,818.425,736.117,817.441Z"/>
            <path class="p"
                  d="M725.378,796.7a20.182,20.182,0,0,0-1.874,7.681c.079,3.9-.535,4.641-.422,6.37a4.184,4.184,0,0,0,.679,2.606c1.1,1.239,3.474,1.837,6.835.855,4.057-1.191,8.618-6.441,7.282-11.553C736.524,797.544,731.617,793.062,725.378,796.7Z"/>
            <path class="x"
                  d="M737.311,808.05c-1.262-4.61-4.825-10.28-4.762-10.566a13.147,13.147,0,0,0-2.643-2.1,8.845,8.845,0,0,0-4.528,1.317,22.9,22.9,0,0,0-1.018,2.64c.871,1.141,2.7,2.5,2.933,3.437a11.971,11.971,0,0,1-.824,6.828c-.724,1.388,1.669,3.679,1.042,4.917a.371.371,0,0,0-.032.173,10.869,10.869,0,0,0,3.117-.483A11.572,11.572,0,0,0,737.311,808.05Z"/>
            <path class="ad"
                  d="M724.328,794.9a5.216,5.216,0,0,0,2.506,5.516c2,1.188,1.579,4.586,1.433,5.221-.14.62-.961,3.451-.73,3.839.436.751,2.22-1.346,2.986-1.139,1.931.536,1.034,2.349-.892,4.183-2.049,1.942,2.894,3.159,5.327,1.608,1.3-.821,1.786-1.338,3.628-4.5,2.692-4.6,3.215-10.333-2.1-13.786S727.663,796.536,724.328,794.9Z"/>
            <path class="ad"
                  d="M734.958,814.132c1.3-.821,1.786-1.338,3.628-4.5,2.692-4.6,3.215-10.333-2.1-13.786s-8.822.692-12.157-.94a5.134,5.134,0,0,0-.076,1.436c1.734.422,6.457,1.734,7.549,3.93,1.346,2.7,3.091,1.989,2.731,5.193-.335,3.1.163,7.216-5.069,8.6C731.263,815.591,734.015,814.736,734.958,814.132Z"/>
            <path class="aa"
                  d="M726.936,817.472l-4.143,2.719s11.023,3.933,14.555-1.225a3.168,3.168,0,0,0-1.7-3.942S734.971,819.385,726.936,817.472Z"/>
            <path class="x"
                  d="M698.037,870.245c.343,2.854.679,3.014,1.351,2.825,3.251-.913,6.058-6.36,6.037-6.958a5.482,5.482,0,0,1,.5-2.69c.047-.1.112-.218.178-.343l-3.393-1.486a13.65,13.65,0,0,1-2.293,3.107A8.378,8.378,0,0,0,698.037,870.245Z"/>
            <path class="u"
                  d="M721.255,822.733c6.416,2.732-3.311,24.476-6.767,29.567l-8.126,13.153s-2.8-.091-4.565-3.453l7.365-13.613C709.458,846.624,714.113,819.7,721.255,822.733Z"/>
            <g class="by" transform="translate(-9 19)">
                <path class="d"
                      d="M704.762,945.089c17.194,9.926,44.984,9.926,62.071,0s16.995-26.029-.194-35.953c-17.211-9.923-44.99-9.923-62.085,0s-16.984,26.022.208,35.956"/>
                <path class="e"
                      d="M699.329,929.509c20.216,11.182,52.886,11.182,72.972,0s19.979-29.324-.231-40.5c-20.228-11.181-52.89-11.181-72.983,0s-19.971,29.314.242,40.5"/>
                <path class="f"
                      d="M693.9,913.929c23.239,12.437,60.789,12.437,83.874,0s22.963-32.618-.268-45.053c-23.246-12.438-60.79-12.438-83.883,0s-22.956,32.607.277,45.055"/>
                <path class="g"
                      d="M688.463,898.349c26.262,13.693,68.691,13.693,94.776,0s25.946-35.914-.3-49.6-68.691-13.7-94.783,0-25.941,35.9.312,49.6"/>
                <path class="h"
                      d="M683.03,882.769c29.284,14.949,76.594,14.949,105.677,0s28.931-39.208-.341-54.154-76.592-14.952-105.683,0-28.927,39.194.347,54.155"/>
                <path class="i"
                      d="M677.6,867.189c32.306,16.2,84.5,16.2,116.578,0s31.914-42.5-.378-58.7-84.492-16.21-116.583,0-31.912,42.486.383,58.7"/>
            </g>
        </g>
    </g>
</svg>