<svg width="130" height="103" viewBox="0 0 130 103" fill="none" xmlns="http://www.w3.org/2000/svg">
<path fill-rule="evenodd" clip-rule="evenodd" d="M40.0581 55.6056C40.0581 58.1395 40.0142 60.7171 40.0581 63.251C40.0581 64.2995 39.8825 65.1733 38.7852 65.5664C37.6879 65.9596 36.9418 65.4354 36.2395 64.6927C35.3617 63.6879 34.5278 62.6393 33.5183 61.7656C33.0794 61.4161 32.2015 61.1976 31.6748 61.3724C31.2359 61.5035 30.797 62.2898 30.7531 62.8141C30.7092 63.2947 31.192 63.8626 31.5432 64.2995C34.0889 67.1829 36.5907 70.0663 38.083 73.6924C38.7413 75.3525 40.102 76.3574 41.9015 76.5758C42.9988 76.7506 44.1838 76.8379 45.325 76.8379C49.1435 76.7942 52.0843 74.6972 52.4354 70.9401C52.8743 66.615 52.6987 62.2462 52.6987 57.8774C52.6987 57.0036 51.9526 56.4793 51.0748 56.4793C50.2408 56.4793 49.6263 57.0473 49.4947 57.921C49.4069 58.5764 49.5386 59.3191 49.4069 60.0181C49.363 60.3676 49.0558 60.9792 48.7924 61.0229C48.0463 61.1103 48.0463 60.455 48.0463 59.9307C48.0463 58.3579 48.0902 56.7852 48.0463 55.2124C48.0024 53.9018 47.0368 53.1154 45.9395 53.4212C45.0617 53.727 44.7544 54.3823 44.7544 55.2124C44.7544 56.8725 44.7544 58.489 44.7105 60.1054C44.7105 60.4113 44.4911 60.7608 44.2716 61.0229C44.2277 61.1103 43.7449 61.0229 43.701 60.9355C43.5255 60.586 43.3938 60.1928 43.3938 59.8433C43.3499 56.3483 43.3499 52.8969 43.3499 49.4456C43.3499 48.6592 43.5255 47.8291 43.306 47.1301C43.1304 46.5622 42.5599 45.8632 42.0332 45.6884C41.5943 45.5137 40.8042 45.9069 40.4531 46.3C40.1458 46.6496 40.0581 47.3486 40.0581 47.8728C40.0142 50.4504 40.0581 53.028 40.0581 55.6056ZM44.7544 52.2416C47.6512 51.5426 49.0119 52.4164 49.5825 55.3435C49.8458 55.2998 50.0653 55.2124 50.2847 55.1687C52.3037 54.6881 54.1471 55.9988 54.1471 58.1395C54.191 62.2462 54.2349 66.3528 54.0155 70.4158C53.796 74.6972 50.7675 77.5806 46.554 78.1486C44.4911 78.4107 42.4721 78.3233 40.497 77.7117C38.9608 77.2311 37.644 76.27 37.0296 74.7846C35.4495 71.0274 32.9038 67.9256 30.1825 64.9548C28.9536 63.5568 28.9975 61.6345 30.2703 60.4986C31.6309 59.3191 33.5183 59.4938 34.7911 60.9355C35.625 61.853 36.459 62.7704 37.3368 63.6879C37.6002 63.9063 37.9513 64.0374 38.2585 64.2121C38.3902 63.8626 38.6535 63.5131 38.6535 63.1636C38.6974 58.9696 38.6974 54.7318 38.6974 50.5378C38.6974 49.3582 38.6535 48.1786 38.6974 46.9991C38.7413 45.3826 40.0142 44.203 41.6381 44.1593C43.2621 44.1156 44.6227 45.3389 44.7105 46.9991C44.7544 47.8728 44.7544 48.7466 44.7544 49.6203C44.7544 50.4941 44.7544 51.3242 44.7544 52.2416Z" fill="#F58B71"/>
<path fill-rule="evenodd" clip-rule="evenodd" d="M40.0581 55.6056C40.0581 58.1395 40.0142 60.7171 40.0581 63.251C40.0581 64.2995 39.8825 65.1733 38.7852 65.5664C37.6879 65.9596 36.9418 65.4354 36.2395 64.6927C35.3617 63.6879 34.5278 62.6393 33.5183 61.7656C33.0794 61.4161 32.2015 61.1976 31.6748 61.3724C31.2359 61.5035 30.797 62.2898 30.7531 62.8141C30.7092 63.2947 31.192 63.8626 31.5432 64.2995C34.0889 67.1829 36.5907 70.0663 38.083 73.6924C38.7413 75.3525 40.102 76.3574 41.9015 76.5758C42.9988 76.7506 44.1838 76.8379 45.325 76.8379C49.1435 76.7942 52.0843 74.6972 52.4354 70.9401C52.8743 66.615 52.6987 62.2462 52.6987 57.8774C52.6987 57.0036 51.9526 56.4793 51.0748 56.4793C50.2408 56.4793 49.6263 57.0473 49.4947 57.921C49.4069 58.5764 49.5386 59.3191 49.4069 60.0181C49.363 60.3676 49.0558 60.9792 48.7924 61.0229C48.0463 61.1103 48.0463 60.455 48.0463 59.9307C48.0463 58.3579 48.0902 56.7852 48.0463 55.2124C48.0024 53.9018 47.0368 53.1154 45.9395 53.4212C45.0617 53.727 44.7544 54.3823 44.7544 55.2124C44.7544 56.8725 44.7544 58.489 44.7105 60.1054C44.7105 60.4113 44.4911 60.7608 44.2716 61.0229C44.2277 61.1103 43.7449 61.0229 43.701 60.9355C43.5255 60.586 43.3938 60.1928 43.3938 59.8433C43.3499 56.3483 43.3499 52.8969 43.3499 49.4456C43.3499 48.6592 43.5255 47.8291 43.306 47.1301C43.1304 46.5622 42.5599 45.8632 42.0332 45.6884C41.5943 45.5137 40.8042 45.9069 40.4531 46.3C40.1458 46.6496 40.0581 47.3486 40.0581 47.8728C40.0142 50.4504 40.0581 53.028 40.0581 55.6056ZM44.7544 52.2416C47.6512 51.5426 49.0119 52.4164 49.5825 55.3435C49.8458 55.2998 50.0653 55.2124 50.2847 55.1687C52.3037 54.6881 54.1471 55.9988 54.1471 58.1395C54.191 62.2462 54.2349 66.3528 54.0155 70.4158C53.796 74.6972 50.7675 77.5806 46.554 78.1486C44.4911 78.4107 42.4721 78.3233 40.497 77.7117C38.9608 77.2311 37.644 76.27 37.0296 74.7846C35.4495 71.0274 32.9038 67.9256 30.1825 64.9548C28.9536 63.5568 28.9975 61.6345 30.2703 60.4986C31.6309 59.3191 33.5183 59.4938 34.7911 60.9355C35.625 61.853 36.459 62.7704 37.3368 63.6879C37.6002 63.9063 37.9513 64.0374 38.2585 64.2121C38.3902 63.8626 38.6535 63.5131 38.6535 63.1636C38.6974 58.9696 38.6974 54.7318 38.6974 50.5378C38.6974 49.3582 38.6535 48.1786 38.6974 46.9991C38.7413 45.3826 40.0142 44.203 41.6381 44.1593C43.2621 44.1156 44.6227 45.3389 44.7105 46.9991C44.7544 47.8728 44.7544 48.7466 44.7544 49.6203C44.7544 50.4941 44.7544 51.3242 44.7544 52.2416Z" stroke="#F58B71" stroke-width="0.0135276"/>
<path fill-rule="evenodd" clip-rule="evenodd" d="M23.0304 36.32C26.1467 36.2763 26.015 36.2326 25.9711 39.2471C25.9711 40.6888 25.7956 40.8636 24.3033 40.9072C23.3377 40.9072 22.3282 40.9072 21.3187 40.8636C21.0992 40.8636 20.8358 40.9509 20.6603 40.8199C19.2119 40.0335 20.0019 38.6355 19.8702 37.4559C19.7825 36.6695 20.3969 36.32 21.1431 36.32C21.8015 36.32 22.4159 36.32 23.0304 36.32Z" fill="#F58B71"/>
<path fill-rule="evenodd" clip-rule="evenodd" d="M23.0304 36.32C26.1467 36.2763 26.015 36.2326 25.9711 39.2471C25.9711 40.6888 25.7956 40.8636 24.3033 40.9072C23.3377 40.9072 22.3282 40.9072 21.3187 40.8636C21.0992 40.8636 20.8358 40.9509 20.6603 40.8199C19.2119 40.0335 20.0019 38.6355 19.8702 37.4559C19.7825 36.6695 20.3969 36.32 21.1431 36.32C21.8015 36.32 22.4159 36.32 23.0304 36.32Z" stroke="#F58B71" stroke-width="0.0135276"/>
<path fill-rule="evenodd" clip-rule="evenodd" d="M32.2391 40.9162C28.9473 40.9162 29.2985 41.091 29.2985 37.9018C29.2985 36.5911 29.5179 36.329 30.8346 36.329C31.888 36.2853 32.9853 36.329 34.0387 36.329C34.9604 36.329 35.3993 36.7222 35.3554 37.6833C35.3115 38.2513 35.3554 38.8629 35.3554 39.4308C35.3115 40.6541 35.0921 40.8725 33.8192 40.9162C33.2925 40.9162 32.7658 40.9162 32.2391 40.9162Z" fill="#F58B71"/>
<path fill-rule="evenodd" clip-rule="evenodd" d="M32.2391 40.9162C28.9473 40.9162 29.2985 41.091 29.2985 37.9018C29.2985 36.5911 29.5179 36.329 30.8346 36.329C31.888 36.2853 32.9853 36.329 34.0387 36.329C34.9604 36.329 35.3993 36.7222 35.3554 37.6833C35.3115 38.2513 35.3554 38.8629 35.3554 39.4308C35.3115 40.6541 35.0921 40.8725 33.8192 40.9162C33.2925 40.9162 32.7658 40.9162 32.2391 40.9162Z" stroke="#F58B71" stroke-width="0.0135276"/>
<path fill-rule="evenodd" clip-rule="evenodd" d="M41.58 40.9017C38.376 40.9017 38.6832 41.0764 38.6832 37.9309C38.6832 36.5329 38.9027 36.3145 40.3511 36.3145C41.4045 36.3145 42.414 36.3145 43.4673 36.3145C44.2574 36.3145 44.7402 36.664 44.6963 37.494C44.6963 38.193 44.7402 38.892 44.7402 39.5911C44.7402 40.5085 44.2574 40.9454 43.3357 40.9017C42.7651 40.858 42.1506 40.9017 41.58 40.9017Z" fill="#F58B71"/>
<path fill-rule="evenodd" clip-rule="evenodd" d="M41.58 40.9017C38.376 40.9017 38.6832 41.0764 38.6832 37.9309C38.6832 36.5329 38.9027 36.3145 40.3511 36.3145C41.4045 36.3145 42.414 36.3145 43.4673 36.3145C44.2574 36.3145 44.7402 36.664 44.6963 37.494C44.6963 38.193 44.7402 38.892 44.7402 39.5911C44.7402 40.5085 44.2574 40.9454 43.3357 40.9017C42.7651 40.858 42.1506 40.9017 41.58 40.9017Z" stroke="#F58B71" stroke-width="0.0135276"/>
<path fill-rule="evenodd" clip-rule="evenodd" d="M22.9075 48.6384H22.7758C19.5718 48.6821 19.8351 48.9005 19.879 45.2744C19.879 44.5754 20.274 44.1386 21.0641 44.1386C22.293 44.1386 23.5659 44.0949 24.7948 44.1386C25.8921 44.1386 26.0237 44.5317 26.0237 47.153C25.9799 47.9831 25.8921 48.6821 24.7948 48.6384C24.1364 48.6384 23.522 48.6384 22.9075 48.6384Z" fill="#F58B71"/>
<path fill-rule="evenodd" clip-rule="evenodd" d="M22.9075 48.6384H22.7758C19.5718 48.6821 19.8351 48.9005 19.879 45.2744C19.879 44.5754 20.274 44.1386 21.0641 44.1386C22.293 44.1386 23.5659 44.0949 24.7948 44.1386C25.8921 44.1386 26.0237 44.5317 26.0237 47.153C25.9799 47.9831 25.8921 48.6821 24.7948 48.6384C24.1364 48.6384 23.522 48.6384 22.9075 48.6384Z" stroke="#F58B71" stroke-width="0.0135276"/>
<path fill-rule="evenodd" clip-rule="evenodd" d="M22.7993 56.427C22.2726 56.427 21.702 56.3833 21.1314 56.427C20.1658 56.5143 19.8147 55.9901 19.8147 55.1163C19.8147 51.665 19.5953 51.9708 22.7993 51.9708C23.4577 51.9708 24.116 51.9708 24.7744 51.9708C25.6522 51.9708 26.0033 52.364 25.9594 53.1941C25.9594 56.7328 26.3984 56.4707 22.7993 56.427Z" fill="#F58B71"/>
<path fill-rule="evenodd" clip-rule="evenodd" d="M22.7993 56.427C22.2726 56.427 21.702 56.3833 21.1314 56.427C20.1658 56.5143 19.8147 55.9901 19.8147 55.1163C19.8147 51.665 19.5953 51.9708 22.7993 51.9708C23.4577 51.9708 24.116 51.9708 24.7744 51.9708C25.6522 51.9708 26.0033 52.364 25.9594 53.1941C25.9594 56.7328 26.3984 56.4707 22.7993 56.427Z" stroke="#F58B71" stroke-width="0.0135276"/>
<path fill-rule="evenodd" clip-rule="evenodd" d="M32.2428 48.6578C29.1265 48.6578 29.2582 49.051 29.3021 45.7744C29.3021 44.4201 29.5215 44.1579 30.8822 44.1143C31.9355 44.1143 32.9889 44.1143 34.0862 44.1579C34.9202 44.1579 35.403 44.5074 35.3591 45.4249C35.3152 46.0365 35.3152 46.6482 35.3591 47.3035C35.4469 48.352 34.9202 48.7452 33.9107 48.7015C33.3401 48.6578 32.7695 48.6578 32.2428 48.6578Z" fill="#F58B71"/>
<path fill-rule="evenodd" clip-rule="evenodd" d="M32.2428 48.6578C29.1265 48.6578 29.2582 49.051 29.3021 45.7744C29.3021 44.4201 29.5215 44.1579 30.8822 44.1143C31.9355 44.1143 32.9889 44.1143 34.0862 44.1579C34.9202 44.1579 35.403 44.5074 35.3591 45.4249C35.3152 46.0365 35.3152 46.6482 35.3591 47.3035C35.4469 48.352 34.9202 48.7452 33.9107 48.7015C33.3401 48.6578 32.7695 48.6578 32.2428 48.6578Z" stroke="#F58B71" stroke-width="0.0135276"/>
<path fill-rule="evenodd" clip-rule="evenodd" d="M32.2391 56.431C28.9473 56.4746 29.2985 56.6494 29.2985 53.5476C29.2985 52.1059 29.4301 51.9748 30.9224 51.9748C31.888 51.9748 32.8975 51.9748 33.907 51.9748C34.1264 51.9748 34.3898 51.9311 34.5654 52.0185C36.1454 52.8049 35.092 54.2466 35.3115 55.3824C35.4871 56.0815 34.9165 56.431 34.2142 56.431C33.5559 56.431 32.8975 56.431 32.2391 56.431Z" fill="#F58B71"/>
<path fill-rule="evenodd" clip-rule="evenodd" d="M32.2391 56.431C28.9473 56.4746 29.2985 56.6494 29.2985 53.5476C29.2985 52.1059 29.4301 51.9748 30.9224 51.9748C31.888 51.9748 32.8975 51.9748 33.907 51.9748C34.1264 51.9748 34.3898 51.9311 34.5654 52.0185C36.1454 52.8049 35.092 54.2466 35.3115 55.3824C35.4871 56.0815 34.9165 56.431 34.2142 56.431C33.5559 56.431 32.8975 56.431 32.2391 56.431Z" stroke="#F58B71" stroke-width="0.0135276"/>
<path fill-rule="evenodd" clip-rule="evenodd" d="M38.4888 90.832C44.2777 93.0259 50.6097 94.235 57.2452 94.235C65.4529 94.235 73.1778 92.3564 80.0248 89.0798C71.6855 95.3709 61.2832 99.128 49.9593 99.128C43.5475 99.128 37.4178 97.9194 31.7876 95.7188L38.4888 90.832ZM24.4415 82.7512C14.0128 74.2433 7.42859 61.7504 7.42859 47.8383C7.42859 22.2372 29.7254 1.4417 57.2452 1.4417C59.2642 1.4417 61.2832 1.57277 63.2145 1.79121C59.0009 0.611632 54.5679 0 49.9593 0C22.4833 0 0.186523 22.1935 0.186523 49.5859C0.186523 67.0354 9.2634 82.3862 22.971 91.2129L24.4415 82.7512Z" fill="#F47D5C"/>
<path d="M28.4617 79.6162L21.5269 102.072L39.9173 85.1209L28.4617 79.6162Z" fill="#377044"/>
<path fill-rule="evenodd" clip-rule="evenodd" d="M15.8386 48.6527C15.8386 69.754 33.0439 86.836 54.1995 86.836C68.2763 86.836 80.5726 79.3043 87.2463 68.0653H92.0595C84.9892 81.7085 70.6948 91.0301 54.1995 91.0301C30.6738 91.0301 11.625 72.0695 11.625 48.6527C11.625 25.236 30.6738 6.27539 54.1995 6.27539C69.8842 6.27539 83.579 14.7033 90.9654 27.2607H85.9871C79.0928 17.1257 67.4329 10.4694 54.1995 10.4694C33.0439 10.4694 15.8386 27.5514 15.8386 48.6527Z" fill="#377044"/>
<path d="M68.7135 48.4012C68.0112 48.4012 67.3528 48.3138 66.8261 48.0517C66.2555 47.8333 65.8166 47.4838 65.4655 47.0032C65.1583 47.4401 64.7193 47.7896 64.1926 48.0517C63.6221 48.3138 62.9637 48.4012 62.2175 48.4012C61.6469 48.4012 61.0764 48.3575 60.5497 48.1828C60.0669 48.008 59.6279 47.7896 59.2329 47.4838C58.8818 47.178 58.5745 46.8285 58.399 46.3916C58.1795 45.9547 58.0479 45.4741 58.0479 44.9499C58.0479 44.2509 58.2673 43.6392 58.6184 43.115C59.0135 42.5907 59.5402 42.1538 60.2424 41.7607L61.5153 41.1053C61.9981 40.8869 62.3053 40.6685 62.5248 40.4063C62.7003 40.1442 62.7881 39.8821 62.7881 39.5763C62.7881 39.2704 62.7003 39.052 62.5248 38.8772C62.3053 38.7025 62.042 38.6151 61.7347 38.6151C61.3397 38.6151 61.0764 38.7025 60.8569 38.9209C60.6813 39.0957 60.5936 39.3578 60.5936 39.6636C60.5936 39.8821 60.6374 40.0131 60.6374 40.1442C60.6813 40.2753 60.7252 40.3626 60.813 40.4937C60.6813 40.6248 60.5058 40.7121 60.2863 40.8432C60.023 40.9306 59.8035 41.018 59.5402 41.018C59.1012 41.018 58.7501 40.8432 58.4429 40.5811C58.1795 40.2753 58.0479 39.8821 58.0479 39.3578C58.0479 38.9209 58.1356 38.5277 58.3551 38.1782C58.5745 37.8287 58.8379 37.5666 59.1451 37.3045C59.4963 37.086 59.8474 36.9113 60.2863 36.7802C60.7252 36.6928 61.208 36.6055 61.6469 36.6055C62.1736 36.6055 62.6126 36.6928 63.0515 36.7802C63.5343 36.9113 63.9293 37.1297 64.2365 37.3482C64.5877 37.6103 64.851 37.9161 65.0705 38.3093C65.246 38.7025 65.3777 39.1394 65.3777 39.6636C65.3777 40.3189 65.2021 40.9306 64.8071 41.4111C64.456 41.9354 63.9732 42.3286 63.3148 42.6781L62.042 43.3334C61.6469 43.5519 61.3397 43.7703 61.1202 44.0324C60.9008 44.2509 60.813 44.5567 60.813 44.9062C60.813 45.3431 60.9447 45.6489 61.2519 45.8673C61.5592 46.0858 61.9981 46.2168 62.4809 46.2168C62.9637 46.2168 63.4026 46.0858 63.7098 45.7799C64.0171 45.5178 64.1926 45.1683 64.1926 44.6441V43.814C64.3243 43.7266 64.4999 43.6392 64.7193 43.5519C64.9827 43.5082 65.2021 43.4645 65.4655 43.4645C65.7727 43.4645 65.9922 43.5082 66.2116 43.5519C66.4311 43.6392 66.6067 43.7266 66.7822 43.814V44.6441C66.7822 45.1246 66.9139 45.5178 67.2211 45.7799C67.5284 46.0421 67.9673 46.1731 68.4501 46.1731C69.1085 46.1731 69.5913 45.9547 69.8985 45.4741C70.2497 44.9936 70.4252 44.2072 70.4252 43.1587C70.4252 42.4597 70.3374 41.8917 70.1619 41.3675C70.0302 40.8432 69.8107 40.3626 69.5035 39.9258C69.2402 39.5326 68.889 39.1831 68.5379 38.9209C68.1429 38.6151 67.7917 38.3967 67.3528 38.2219C67.3528 37.785 67.4845 37.3919 67.704 37.086C67.9234 36.7802 68.2745 36.6055 68.7573 36.6055C69.3718 36.6055 69.9424 36.8239 70.4691 37.2171C70.9958 37.6103 71.4786 38.0909 71.8736 38.7462C72.2687 39.3578 72.5759 40.0568 72.7954 40.8432C73.0587 41.5859 73.1465 42.3723 73.1465 43.1587C73.1465 44.8625 72.7515 46.1731 71.9614 47.0469C71.1714 47.9643 70.0741 48.4012 68.7135 48.4012Z" fill="#377044"/>
<path d="M74.9433 42.8073C74.9433 42.1083 75.075 41.4093 75.2944 40.754C75.5578 40.0987 75.9089 39.5307 76.4356 39.0939H74.7677C74.68 38.9191 74.6361 38.788 74.5483 38.6133C74.5044 38.4385 74.5044 38.2638 74.5044 38.0453C74.5044 37.6958 74.5922 37.39 74.7677 37.259C74.9433 37.0842 75.1628 36.9968 75.4261 36.9968H83.941C84.3799 36.9968 84.731 36.9095 84.9505 36.691C85.2139 36.4726 85.3016 36.1668 85.3016 35.8173C85.3016 35.5114 85.2577 35.293 85.0822 35.1182C84.9505 34.9435 84.7749 34.8998 84.5116 34.8998C84.2921 34.8998 84.1166 34.9435 83.941 35.0746C83.8093 35.2056 83.7216 35.4241 83.7216 35.6425C83.7216 35.7736 83.7216 35.8609 83.7654 35.992C83.6777 36.0357 83.546 36.0794 83.3704 36.1231C83.2387 36.1668 83.0632 36.1668 82.8876 36.1668C82.4926 36.1668 82.1854 36.0794 82.0098 35.8609C81.7903 35.6862 81.6587 35.3804 81.6587 35.0309C81.6587 34.4192 81.922 33.9387 82.4048 33.5455C82.9315 33.196 83.6338 32.9775 84.5116 32.9775C84.9505 32.9775 85.3455 33.0649 85.6967 33.1523C86.0917 33.2834 86.3989 33.4581 86.7062 33.7202C86.9695 33.9824 87.189 34.2882 87.3645 34.6377C87.5401 34.9872 87.6279 35.4241 87.6279 35.8609C87.6279 36.6473 87.4084 37.3026 86.9695 37.8269C86.5306 38.3948 85.9161 38.7444 85.17 38.9628C85.4333 39.1812 85.6967 39.4434 85.9161 39.7492C86.1356 40.055 86.3111 40.3608 86.4428 40.7103C86.5745 41.0598 86.7062 41.4093 86.7939 41.7588C86.8378 42.1083 86.8817 42.4578 86.8817 42.8073C86.8817 43.6374 86.75 44.4238 86.4867 45.0791C86.1795 45.7781 85.7844 46.3897 85.3016 46.8703C84.7749 47.3509 84.1605 47.7441 83.4143 48.0062C82.7121 48.2683 81.8781 48.3994 81.0003 48.3994C80.0786 48.3994 79.2446 48.2683 78.4985 48.0062C77.7523 47.7441 77.094 47.3509 76.5673 46.8266C76.0406 46.3461 75.6456 45.7781 75.3822 45.0791C75.075 44.3801 74.9433 43.6374 74.9433 42.8073ZM80.9564 39.0065C80.4736 39.0065 80.0347 39.0939 79.6397 39.2686C79.2008 39.4434 78.8935 39.7055 78.5863 40.0113C78.3229 40.3608 78.0596 40.7103 77.9279 41.1909C77.7523 41.6278 77.6646 42.1083 77.6646 42.6763C77.6646 43.7685 77.9718 44.5985 78.5863 45.2539C79.2008 45.8655 79.9908 46.1713 81.0003 46.1713C81.922 46.1713 82.7121 45.8655 83.2826 45.2539C83.8532 44.6422 84.1605 43.7685 84.1605 42.6763C84.1605 42.1083 84.0727 41.6278 83.941 41.1909C83.7654 40.7103 83.546 40.3608 83.2826 40.0113C83.0193 39.7055 82.6682 39.4434 82.2731 39.2686C81.8781 39.0939 81.4392 39.0065 80.9564 39.0065Z" fill="#377044"/>
<path d="M115.293 42.7431C115.293 43.6169 115.205 44.4033 114.942 45.1023C114.678 45.8013 114.327 46.4129 113.888 46.8935C113.449 47.3741 112.879 47.7673 112.22 48.0294C111.606 48.2915 110.86 48.3789 110.07 48.3789C109.148 48.3789 108.402 48.2478 107.743 47.9857C107.085 47.7236 106.515 47.3304 106.076 46.8935C105.637 47.3741 105.154 47.7236 104.539 47.9857C103.925 48.2478 103.223 48.3789 102.433 48.3789C101.555 48.3789 100.809 48.2478 100.106 47.9857C99.448 47.7236 98.8774 47.3304 98.4385 46.8935C97.9118 47.3741 97.2974 47.7673 96.639 48.0294C95.9367 48.2915 95.1906 48.3789 94.3566 48.3789C93.4788 48.3789 92.6888 48.2478 91.9426 47.9857C91.2404 47.6799 90.6259 47.2867 90.1431 46.7624C89.6164 46.2382 89.2214 45.6265 88.958 44.8838C88.6947 44.1848 88.563 43.3985 88.563 42.481C88.563 41.6509 88.6947 40.8645 88.958 40.1219C89.2214 39.4228 89.6164 38.7675 90.1431 38.2433C90.6259 37.719 91.2404 37.3258 91.9426 37.02C92.6888 36.7579 93.4788 36.5831 94.3566 36.5831C95.1906 36.5831 95.9806 36.7579 96.6829 37.02C97.3851 37.3258 97.9996 37.719 98.5263 38.2433C99.0091 38.7675 99.4041 39.4228 99.7114 40.1219C99.9747 40.8645 100.106 41.6509 100.106 42.481C100.106 43.3985 99.9747 44.1848 99.6675 44.9275C99.8869 45.277 100.238 45.5829 100.633 45.8013C101.072 46.0634 101.555 46.1508 102.125 46.1508C102.652 46.1508 103.091 46.0634 103.486 45.8013C103.837 45.5829 104.144 45.2333 104.364 44.8402C104.583 44.4033 104.759 43.9227 104.847 43.3548C104.934 42.8305 104.978 42.2189 104.978 41.5636C104.978 41.083 104.978 40.6461 104.891 40.1655C104.847 39.685 104.759 39.2044 104.671 38.7675C104.539 38.3306 104.408 37.8938 104.232 37.5006C104.101 37.1074 103.881 36.7579 103.705 36.4521C103.486 36.8453 103.135 37.1948 102.74 37.4132C102.301 37.6316 101.818 37.719 101.248 37.719C100.809 37.719 100.414 37.6316 100.063 37.5006C99.6675 37.3695 99.3602 37.1948 99.0969 36.9326C98.7897 36.7142 98.6141 36.4084 98.4385 36.0589C98.3069 35.7094 98.2191 35.3599 98.2191 34.923C98.2191 34.0929 98.5263 33.3939 99.0969 32.8696C99.6675 32.3891 100.458 32.127 101.467 32.127C102.433 32.127 103.31 32.3891 104.057 32.9133C104.847 33.4813 105.505 34.1803 106.032 35.0977C106.558 35.9715 106.997 36.9763 107.305 38.1122C107.568 39.2481 107.743 40.4277 107.743 41.5636C107.743 42.7868 107.568 43.879 107.217 44.8402C107.436 45.1897 107.743 45.4955 108.182 45.7576C108.665 46.0197 109.192 46.1508 109.762 46.1508C110.596 46.1508 111.255 45.8887 111.781 45.277C112.308 44.7091 112.572 43.8353 112.572 42.7431C112.572 42.1315 112.528 41.6072 112.352 41.1267C112.22 40.6461 112.045 40.2529 111.781 39.8597C111.518 39.4665 111.211 39.1607 110.86 38.8986C110.553 38.5928 110.158 38.3743 109.762 38.1996C109.806 37.719 109.938 37.3258 110.158 37.02C110.377 36.7579 110.728 36.5831 111.211 36.5831C111.781 36.5831 112.44 36.8453 113.054 37.3695C113.713 37.8938 114.283 38.5928 114.678 39.5102C115.117 40.4277 115.293 41.5199 115.293 42.7431ZM94.3566 46.1508C94.7956 46.1508 95.2345 46.0634 95.6295 45.8887C95.9806 45.7139 96.3317 45.4518 96.5951 45.146C96.8584 44.7965 97.034 44.447 97.1657 43.9664C97.2974 43.5295 97.3851 43.0489 97.3851 42.481C97.3851 41.9567 97.2974 41.4762 97.1657 40.9956C97.034 40.5587 96.8584 40.1655 96.5951 39.816C96.3317 39.5102 95.9806 39.2481 95.6295 39.0733C95.2345 38.8986 94.7956 38.8112 94.3566 38.8112C93.8738 38.8112 93.4349 38.8986 93.0838 39.0733C92.6888 39.2481 92.3815 39.5102 92.1182 39.8597C91.8548 40.1655 91.6354 40.5587 91.5037 40.9956C91.372 41.4762 91.2842 41.9567 91.2842 42.481C91.2842 43.0489 91.372 43.5295 91.5037 44.0101C91.6354 44.447 91.8548 44.8402 92.1182 45.146C92.3815 45.4518 92.6888 45.7139 93.0838 45.8887C93.4349 46.0634 93.8738 46.1508 94.3566 46.1508ZM100.545 34.923C100.545 35.2288 100.633 35.4909 100.809 35.6657C101.028 35.8404 101.248 35.9715 101.555 35.9715C101.862 35.9715 102.082 35.8404 102.301 35.6657C102.477 35.4909 102.564 35.2288 102.564 34.923C102.564 34.6609 102.477 34.3987 102.301 34.224C102.082 34.0492 101.862 33.9182 101.555 33.9182C101.248 33.9182 101.028 34.0492 100.809 34.224C100.633 34.3987 100.545 34.6609 100.545 34.923Z" fill="#377044"/>
<path d="M129.094 42.1551C129.094 43.1163 128.962 43.99 128.699 44.7764C128.435 45.5191 128.084 46.1744 127.557 46.7424C127.075 47.2666 126.46 47.7035 125.714 47.9656C124.968 48.2715 124.09 48.4025 123.124 48.4025C122.203 48.4025 121.369 48.2715 120.623 48.0093C119.92 47.7472 119.262 47.354 118.779 46.8298C118.253 46.3492 117.858 45.7812 117.55 45.0822C117.287 44.3832 117.155 43.6405 117.155 42.8105C117.155 41.9804 117.243 41.2377 117.506 40.5824C117.726 39.9271 118.077 39.3154 118.516 38.7912C118.165 38.5727 117.901 38.2669 117.638 37.8737C117.375 37.4805 117.243 37 117.243 36.3883C117.243 35.9078 117.375 35.4272 117.55 34.9466C117.77 34.5098 118.033 34.1602 118.428 33.8544C118.823 33.5486 119.262 33.2865 119.789 33.1117C120.315 32.937 120.93 32.8496 121.588 32.8496C122.729 32.8496 123.739 33.068 124.661 33.5486C125.582 33.9855 126.372 34.5971 127.031 35.4272C127.689 36.2573 128.216 37.2184 128.567 38.3543C128.918 39.5339 129.094 40.8008 129.094 42.1551ZM121.808 34.9903C121.149 34.9903 120.71 35.1214 120.403 35.3835C120.096 35.6456 119.92 35.9951 119.92 36.3883C119.92 36.6068 119.964 36.7815 120.052 36.9563C120.096 37.131 120.228 37.2621 120.359 37.3932C121.062 37 121.896 36.8252 122.773 36.8252C123.388 36.8252 123.958 36.9126 124.529 37.0873C125.056 37.2621 125.582 37.5679 126.021 37.9611C125.802 37.5679 125.582 37.1747 125.275 36.7815C125.012 36.432 124.661 36.1262 124.31 35.8641C123.958 35.602 123.563 35.3835 123.168 35.2088C122.729 35.0777 122.291 34.9903 121.808 34.9903ZM126.372 42.6357C126.372 42.0678 126.285 41.5435 126.109 41.1066C125.934 40.6261 125.714 40.2766 125.407 39.9707C125.1 39.6649 124.748 39.4028 124.353 39.2281C123.958 39.097 123.52 39.0096 123.037 39.0096C122.598 39.0096 122.159 39.097 121.764 39.2717C121.413 39.4465 121.062 39.6649 120.798 39.9707C120.491 40.3203 120.272 40.6698 120.096 41.1503C119.964 41.5872 119.877 42.1115 119.877 42.6794C119.877 43.2037 119.964 43.6842 120.096 44.1211C120.272 44.558 120.491 44.9075 120.798 45.2133C121.062 45.5191 121.413 45.7812 121.808 45.956C122.247 46.0871 122.642 46.1744 123.124 46.1744C124.09 46.1744 124.88 45.8686 125.451 45.257C126.065 44.6454 126.372 43.7716 126.372 42.6357Z" fill="#377044"/>
<path d="M72.8458 55.7207C73.2847 55.7207 73.6797 55.8081 73.9869 55.9828C74.3381 56.1576 74.6014 56.4197 74.8209 56.7255C74.9965 56.4197 75.2598 56.1576 75.567 55.9828C75.8743 55.8081 76.2693 55.7207 76.7082 55.7207C77.1032 55.7207 77.4544 55.7644 77.7616 55.9391C78.0688 56.0702 78.3322 56.245 78.5517 56.4634C78.7711 56.7255 78.9467 56.9877 79.0345 57.3372C79.1661 57.643 79.21 57.9925 79.21 58.3857C79.21 58.9536 79.1222 59.5216 78.8589 60.0895C78.6394 60.6138 78.3322 61.0943 77.9372 61.5312C78.0688 61.7933 78.2005 62.0118 78.2883 62.2739C78.3761 62.536 78.42 62.7545 78.42 62.9292C78.42 63.4098 78.2005 63.6719 77.7616 63.6719C77.6738 63.6719 77.586 63.6719 77.4544 63.6282C77.3666 63.6282 77.2788 63.5845 77.2349 63.5845C77.2349 63.4098 77.191 63.1913 77.1471 62.9729C77.1471 62.7545 77.0593 62.536 77.0155 62.3176C76.6643 62.5797 76.3132 62.7545 75.9621 62.8418C75.567 62.9729 75.172 63.0166 74.6892 63.0166C74.3381 63.0166 73.9869 62.9729 73.7236 62.8855C73.4164 62.7981 73.153 62.6671 72.9336 62.536C72.758 62.3613 72.5824 62.1865 72.4508 61.9681C72.363 61.7059 72.2752 61.4875 72.2752 61.1817C72.2752 60.9196 72.363 60.7011 72.4508 60.4827C72.5824 60.2642 72.7141 60.0458 72.9336 59.9147C73.1091 59.74 73.3725 59.6089 73.6358 59.5216C73.8992 59.4342 74.2064 59.3905 74.5575 59.3905C75.0842 59.3905 75.567 59.5216 76.006 59.6963C76.4449 59.8711 76.8399 60.1769 77.1471 60.5264C77.3666 60.2642 77.5421 59.9147 77.6738 59.5652C77.7616 59.172 77.8494 58.7789 77.8494 58.3857C77.8494 57.9488 77.7177 57.5556 77.4983 57.2935C77.2788 57.0313 76.9716 56.9003 76.5765 56.9003C76.2693 56.9003 75.9621 56.9877 75.7865 57.2061C75.567 57.4245 75.4793 57.6867 75.4793 58.0362V58.4294C75.3037 58.5167 75.0842 58.6041 74.8209 58.6041C74.6892 58.6041 74.5575 58.5604 74.4698 58.5604C74.3381 58.5167 74.2503 58.473 74.1625 58.4294V58.0362C74.1625 57.8614 74.1625 57.7303 74.0747 57.5556C74.0308 57.4245 73.9431 57.2935 73.8114 57.2061C73.7236 57.1187 73.5919 57.0313 73.4603 56.9877C73.3286 56.9003 73.153 56.9003 73.0213 56.9003C72.6702 56.9003 72.4069 56.9877 72.1874 57.2061C72.0118 57.3808 71.8802 57.643 71.8802 57.9925C71.8802 58.2983 71.9679 58.5604 72.1435 58.7789C72.0557 58.9099 71.9679 58.9973 71.8802 59.041C71.7485 59.1284 71.6168 59.172 71.4851 59.172C71.1779 59.172 70.9584 59.041 70.7829 58.8225C70.6073 58.6041 70.5195 58.2546 70.5195 57.8177C70.5195 57.5119 70.5634 57.2498 70.6951 56.9877C70.8268 56.7255 70.9584 56.5071 71.1779 56.3323C71.3535 56.1139 71.6168 55.9828 71.8802 55.8955C72.1874 55.7644 72.4946 55.7207 72.8458 55.7207ZM74.777 61.9244C75.0842 61.9244 75.3476 61.8807 75.6548 61.7496C75.9621 61.6623 76.2254 61.5312 76.4449 61.3128C76.2254 61.0943 75.9621 60.8759 75.6548 60.7448C75.3476 60.5701 74.9965 60.4827 74.6453 60.4827C74.3381 60.4827 74.0747 60.5701 73.8992 60.7011C73.7236 60.7885 73.6358 60.9633 73.6358 61.1817C73.6358 61.4001 73.7236 61.5749 73.9431 61.7059C74.1186 61.837 74.382 61.9244 74.777 61.9244Z" fill="#373435"/>
<path d="M83.6726 63.056C83.1898 63.056 82.707 62.9686 82.312 62.7938C81.8731 62.6191 81.5219 62.3569 81.2147 62.0511C80.9074 61.7453 80.688 61.3958 80.5124 60.9589C80.3808 60.5221 80.293 60.0415 80.293 59.5172C80.293 58.993 80.3808 58.5124 80.5124 58.0755C80.688 57.6387 80.9074 57.2892 81.2147 56.9833C81.5219 56.6775 81.8731 56.4154 82.312 56.2406C82.707 56.0659 83.1898 55.9785 83.6726 55.9785C84.1993 55.9785 84.6821 56.0659 85.0771 56.2406C85.516 56.4154 85.8672 56.6775 86.1744 56.9833C86.4378 57.2892 86.7011 57.6387 86.8328 58.0755C87.0083 58.5124 87.0961 58.993 87.0961 59.5172C87.0961 60.0415 87.0083 60.5221 86.8328 60.9589C86.7011 61.3958 86.4378 61.7453 86.1744 62.0511C85.8672 62.3569 85.516 62.6191 85.0771 62.7938C84.6821 62.9686 84.1993 63.056 83.6726 63.056ZM83.6726 61.8764C83.9798 61.8764 84.2432 61.8327 84.5065 61.7016C84.7699 61.6143 84.9893 61.4395 85.1649 61.2211C85.3405 61.0026 85.4722 60.7842 85.5599 60.4784C85.6477 60.1726 85.6916 59.8667 85.6916 59.5172C85.6916 59.1677 85.6477 58.8619 85.5599 58.5561C85.4722 58.2503 85.3405 58.0318 85.1649 57.8134C84.9893 57.595 84.7699 57.4202 84.5065 57.3328C84.2432 57.2018 83.9798 57.1581 83.6726 57.1581C83.3654 57.1581 83.102 57.2018 82.8387 57.3328C82.6192 57.4202 82.3998 57.595 82.2242 57.8134C82.0486 58.0318 81.9169 58.2503 81.8292 58.5561C81.7414 58.8619 81.6975 59.1677 81.6975 59.5172C81.6975 59.8667 81.7414 60.1726 81.8292 60.4784C81.9169 60.7842 82.0486 61.0026 82.2242 61.2211C82.3998 61.4395 82.6192 61.6143 82.8387 61.7016C83.102 61.8327 83.3654 61.8764 83.6726 61.8764Z" fill="#373435"/>
<path d="M94.7132 63.0706C94.2304 63.0706 93.8354 62.9832 93.5282 62.8085C93.177 62.6337 92.9137 62.3716 92.7381 62.0658C92.5626 62.3716 92.3431 62.6337 92.0359 62.8085C91.7286 62.9832 91.3336 63.0706 90.8508 63.0706C90.4997 63.0706 90.1486 62.9832 89.8413 62.8958C89.4902 62.7648 89.2268 62.59 89.0074 62.3279C88.744 62.1095 88.5685 61.8036 88.4368 61.4541C88.3051 61.1046 88.2612 60.7114 88.2612 60.2309C88.2612 59.6629 88.349 59.1824 88.5246 58.7018C88.7001 58.2212 88.9635 57.7844 89.2707 57.4348C89.0952 57.3038 88.9196 57.0853 88.7879 56.8232C88.6563 56.5611 88.6124 56.2553 88.6124 55.9058C88.6124 55.5563 88.7001 55.2068 88.8318 54.9446C89.0074 54.6388 89.1829 54.3767 89.4902 54.1582C89.7535 53.9398 90.1047 53.7651 90.4997 53.6777C90.8947 53.5466 91.3336 53.5029 91.8164 53.5029C92.4748 53.5029 93.0893 53.5903 93.616 53.8087C94.1865 54.0709 94.6255 54.3767 95.0205 54.7699C95.4155 55.1631 95.7227 55.6 95.9422 56.1242C96.1178 56.6048 96.2494 57.1727 96.2494 57.697C96.2494 57.9591 96.2055 58.2212 96.1178 58.396C96.0739 58.6144 95.9861 58.7892 95.8544 58.8765C96.2933 59.095 96.6006 59.3571 96.82 59.7066C97.0395 60.0561 97.1711 60.4056 97.1711 60.8425C97.1711 61.5415 96.9517 62.0658 96.5128 62.459C96.0739 62.8522 95.4594 63.0706 94.7132 63.0706ZM90.9825 61.891C91.2897 61.891 91.5531 61.8036 91.7725 61.6289C91.9481 61.4541 92.0798 61.192 92.0798 60.7988V60.3619C92.2553 60.2309 92.4748 60.1872 92.7381 60.1872C93.0015 60.1872 93.2209 60.2309 93.3965 60.3619V60.7988C93.3965 61.1483 93.4843 61.4105 93.7476 61.6289C93.9671 61.8036 94.2743 61.891 94.6255 61.891C94.9766 61.891 95.2838 61.8036 95.4594 61.5852C95.6788 61.3668 95.8105 61.1046 95.8105 60.7551C95.8105 60.493 95.7227 60.2746 95.5472 60.0561C95.4155 59.8377 95.196 59.6629 94.9327 59.5319C94.7571 59.6192 94.5816 59.6629 94.3621 59.6629C94.0988 59.6629 93.8793 59.6192 93.7037 59.4882C93.5721 59.3571 93.4843 59.2261 93.4843 58.9639C93.4843 58.7892 93.5282 58.6144 93.6598 58.4397H94.1427C94.3621 58.4397 94.5816 58.396 94.7132 58.3086C94.8449 58.1775 94.9327 58.0465 94.9327 57.828C94.9327 57.7407 94.8888 57.6096 94.8449 57.5222C94.7571 57.3912 94.6693 57.3038 94.4938 57.2164C94.3621 57.1727 94.1865 57.0853 93.9671 57.0417C93.7037 56.998 93.4404 56.9543 93.1332 56.9543C92.6503 56.9543 92.2114 57.0417 91.7725 57.2164C91.3775 57.3475 90.9825 57.5659 90.6752 57.8717C90.368 58.1339 90.1047 58.4834 89.9291 58.8765C89.7535 59.2697 89.6657 59.6629 89.6657 60.1435C89.6657 60.7551 89.7974 61.192 90.0169 61.4978C90.2802 61.76 90.5875 61.891 90.9825 61.891ZM91.8603 54.5951C91.2458 54.5951 90.8069 54.7262 90.4997 54.9883C90.1486 55.2068 89.973 55.5126 89.973 55.9058C89.973 56.2116 90.0608 56.43 90.2363 56.6048C90.5875 56.3863 91.0264 56.1679 91.4653 56.0368C91.8603 55.9058 92.3431 55.8184 92.782 55.8184C93.2648 55.8184 93.6598 55.8621 93.9671 55.9495C94.2743 56.0368 94.5377 56.1679 94.7571 56.299C94.6255 56.0368 94.4499 55.8184 94.2304 55.6C94.0549 55.4252 93.8354 55.2504 93.5721 55.0757C93.3087 54.9446 93.0454 54.8136 92.7381 54.7262C92.4748 54.6388 92.1675 54.5951 91.8603 54.5951Z" fill="#373435"/>
<path d="M116.645 60.9C116.645 61.2058 116.777 61.4679 116.996 61.6427C117.216 61.8174 117.523 61.9485 117.83 61.9485C118.357 61.9485 118.708 61.7301 119.015 61.3806C119.279 61.031 119.454 60.5068 119.454 59.8515C119.454 58.934 119.147 58.2787 118.62 57.7981C118.094 57.3176 117.347 57.0991 116.426 57.0991H113.178C113.529 57.4049 113.792 57.7981 114.012 58.2787C114.231 58.7593 114.319 59.2835 114.319 59.8515C114.319 60.332 114.231 60.8126 114.1 61.2058C113.968 61.599 113.748 61.9485 113.485 62.2106C113.222 62.5164 112.871 62.6912 112.519 62.8659C112.124 62.997 111.729 63.0844 111.247 63.0844C110.72 63.0844 110.237 62.997 109.842 62.8223C109.447 62.6475 109.14 62.4291 108.876 62.1669C108.613 62.4727 108.262 62.6912 107.911 62.8223C107.516 62.997 107.077 63.0844 106.594 63.0844C106.023 63.0844 105.497 62.9533 105.102 62.7786C104.663 62.5601 104.356 62.3417 104.136 62.1232C103.829 62.4291 103.478 62.6475 103.039 62.8223C102.6 62.997 102.161 63.0844 101.634 63.0844C101.108 63.0844 100.625 62.997 100.186 62.8223C99.7909 62.6475 99.3959 62.3854 99.0887 62.0796C98.7814 61.7301 98.562 61.3806 98.3864 60.9C98.2108 60.4631 98.123 59.9825 98.123 59.4146C98.123 58.8903 98.2108 58.3661 98.3864 57.9292C98.562 57.4923 98.7814 57.0991 99.0887 56.7933C99.3959 56.4438 99.7909 56.2254 100.23 56.0069C100.669 55.8322 101.108 55.7448 101.634 55.7448C102.161 55.7448 102.644 55.8322 103.039 56.0069C103.478 56.2254 103.829 56.4438 104.136 56.7933C104.443 57.0991 104.707 57.4923 104.882 57.9292C105.058 58.3661 105.146 58.8903 105.146 59.4146C105.146 59.7204 105.102 60.0262 105.058 60.332C105.014 60.5942 104.926 60.8563 104.795 61.1184C104.97 61.3369 105.19 61.5553 105.497 61.6864C105.804 61.8174 106.111 61.9048 106.462 61.9048C107.033 61.9048 107.472 61.7301 107.823 61.3369C108.13 60.9874 108.306 60.4194 108.306 59.7204C108.306 59.3709 108.262 59.1088 108.174 58.803C108.13 58.5408 107.999 58.3224 107.911 58.104C107.779 57.8855 107.604 57.6671 107.428 57.536C107.296 57.3613 107.077 57.1865 106.901 57.0554H105.76C105.716 57.0118 105.672 56.9244 105.672 56.837C105.628 56.7496 105.628 56.6622 105.628 56.5312C105.628 56.3564 105.672 56.1817 105.76 56.138C105.848 56.0506 105.98 56.0069 106.155 56.0069H107.867C108.306 56.0069 108.481 55.7885 108.481 55.439C108.481 55.2642 108.481 55.0895 108.394 54.9584C108.438 54.871 108.525 54.8274 108.657 54.7837C108.745 54.74 108.876 54.6963 109.008 54.6963C109.228 54.6963 109.403 54.7837 109.579 54.9147C109.71 55.0895 109.798 55.3079 109.798 55.6574C109.798 56.0506 109.666 56.3564 109.447 56.6186C109.271 56.837 108.964 56.9681 108.569 57.0554C108.876 57.3613 109.14 57.7108 109.359 58.1913C109.579 58.6282 109.71 59.1525 109.71 59.7641C109.71 60.2884 109.623 60.7252 109.491 61.1621C109.666 61.3806 109.886 61.5553 110.149 61.6864C110.457 61.8174 110.764 61.9048 111.115 61.9048C111.642 61.9048 112.081 61.7301 112.432 61.3806C112.739 60.9874 112.914 60.5068 112.914 59.8078C112.914 59.1962 112.783 58.6282 112.519 58.1913C112.256 57.7544 111.905 57.3613 111.466 57.0991H110.676C110.632 57.0118 110.588 56.9681 110.588 56.837C110.544 56.7496 110.544 56.6622 110.544 56.5749C110.544 56.3564 110.588 56.2254 110.676 56.138C110.764 56.0506 110.895 56.0069 111.071 56.0069H116.733C117.347 56.0069 117.918 56.0943 118.401 56.2691C118.884 56.4438 119.323 56.7059 119.674 57.0554C120.025 57.4049 120.288 57.7981 120.508 58.2787C120.683 58.7593 120.771 59.2835 120.771 59.8515C120.771 60.3757 120.727 60.8126 120.552 61.2058C120.42 61.6427 120.244 61.9485 119.981 62.2543C119.718 62.5164 119.41 62.7349 119.059 62.8659C118.664 62.997 118.269 63.0844 117.83 63.0844C117.479 63.0844 117.172 63.0407 116.865 62.9096C116.557 62.8223 116.294 62.6912 116.031 62.4727C115.811 62.298 115.636 62.0796 115.504 61.7737C115.372 61.5116 115.285 61.2058 115.285 60.8563C115.285 60.5068 115.372 60.2447 115.46 59.9825C115.548 59.7641 115.723 59.5457 115.899 59.3709C116.075 59.1962 116.25 59.0651 116.514 59.0214C116.733 58.934 116.952 58.8903 117.172 58.8903C117.479 58.8903 117.742 58.934 117.918 59.0651C118.05 59.1962 118.138 59.3272 118.138 59.5457C118.138 59.7204 118.094 59.8952 117.962 60.0262C117.874 60.0262 117.742 59.9825 117.611 59.9825C117.347 59.9825 117.128 60.0699 116.952 60.201C116.733 60.3757 116.645 60.5942 116.645 60.9ZM101.634 61.9048C101.942 61.9048 102.249 61.8611 102.512 61.7301C102.776 61.599 102.995 61.4242 103.171 61.2058C103.346 60.9874 103.478 60.7252 103.609 60.4194C103.697 60.1136 103.741 59.7641 103.741 59.4146C103.741 59.0214 103.697 58.7156 103.609 58.3661C103.478 58.0603 103.346 57.7981 103.171 57.5797C102.995 57.3613 102.776 57.1865 102.512 57.0554C102.249 56.9681 101.942 56.8807 101.634 56.8807C101.327 56.8807 101.02 56.9681 100.8 57.0991C100.537 57.1865 100.318 57.3613 100.098 57.6234C99.9226 57.8418 99.7909 58.104 99.7031 58.4098C99.5715 58.7156 99.5276 59.0651 99.5276 59.4146C99.5276 59.8078 99.5715 60.1136 99.7031 60.4194C99.7909 60.7252 99.9226 60.9874 100.098 61.2058C100.318 61.4242 100.537 61.599 100.8 61.7301C101.02 61.8611 101.327 61.9048 101.634 61.9048Z" fill="#373435"/>
</svg>
