<svg width="44" height="44" viewBox="0 0 44 44" fill="none" xmlns="http://www.w3.org/2000/svg">
<path d="M21.6667 43.3333C33.6328 43.3333 43.3333 33.6328 43.3333 21.6667C43.3333 9.7005 33.6328 0 21.6667 0C9.7005 0 0 9.7005 0 21.6667C0 33.6328 9.7005 43.3333 21.6667 43.3333Z" fill="#2A8908" fill-opacity="0.15"/>
<path d="M13 15.2753V15.0586" stroke="#2A8908" stroke-width="2" stroke-linecap="round"/>
<path d="M30.334 15.2753V15.0586" stroke="#2A8908" stroke-width="2" stroke-linecap="round"/>
<path d="M21.6667 34.6667C23.9652 34.6667 26.1696 33.7536 27.7949 32.1283C29.4202 30.5029 30.3333 28.2985 30.3333 26H13C13 28.2985 13.9131 30.5029 15.5384 32.1283C17.1637 33.7536 19.3681 34.6667 21.6667 34.6667Z" stroke="#2A8908" stroke-linecap="round" stroke-linejoin="round"/>
</svg>
