<svg width="218" height="268" viewBox="0 0 218 268" fill="none" xmlns="http://www.w3.org/2000/svg">
<path d="M86.0098 29.7983C84.9084 29.7983 84.0273 30.669 84.0273 31.7573V50.0412C84.0273 51.1295 84.9084 52.0002 86.0098 52.0002H131.385C132.487 52.0002 133.368 51.1295 133.368 50.0412V31.7573C133.368 30.669 132.487 29.7983 131.385 29.7983H86.0098ZM129.403 44.1642C129.403 45.2526 128.522 46.1232 127.42 46.1232H90.1949C89.0935 46.1232 88.2125 45.2526 88.2125 44.1642V35.893C88.2125 34.8046 89.0935 33.934 90.1949 33.934H127.42C128.522 33.934 129.403 34.8046 129.403 35.893V44.1642Z" fill="#D9B68B"/>
<path d="M140.045 0L114.918 37.8775H127.37L155.388 0H140.045Z" fill="#0FA711"/>
<path d="M127.377 0L102.473 37.8775H114.925L140.052 0H127.377Z" fill="white"/>
<path d="M114.924 0L90.0195 37.8775H102.472L127.376 0H114.924Z" fill="#FF7600"/>
<path d="M90.0177 37.8775H102.47L77.343 0H62L90.0177 37.8775Z" fill="#FF7600"/>
<path d="M102.471 37.8775H114.923L90.0184 0H77.3438L102.471 37.8775Z" fill="white"/>
<path opacity="0.5" d="M110.695 6.27979L104.469 15.6931L119.145 37.8818H127.372L129.596 34.744L110.695 6.27979Z" fill="#3E4347"/>
<path d="M114.924 37.8775H127.376L102.472 0H90.0195L114.924 37.8775Z" fill="#0FA711"/>
<g filter="url(#filter0_ii)">
<path d="M218 159C218 219.199 169.199 268 109 268C48.801 268 0 219.199 0 159C0 98.801 48.801 50 109 50C169.199 50 218 98.801 218 159Z" fill="#C18A43" fill-opacity="0.7"/>
</g>
<path d="M214.5 159C214.5 217.266 167.266 264.5 109 264.5C50.734 264.5 3.5 217.266 3.5 159C3.5 100.734 50.734 53.5 109 53.5C167.266 53.5 214.5 100.734 214.5 159Z" stroke="#E29435" stroke-width="7"/>
<path d="M214.5 159C214.5 217.266 167.266 264.5 109 264.5C50.734 264.5 3.5 217.266 3.5 159C3.5 100.734 50.734 53.5 109 53.5C167.266 53.5 214.5 100.734 214.5 159Z" stroke="url(#paint0_linear)" stroke-width="7"/>
<path d="M196 159C196 207.049 157.049 246 109 246C60.9512 246 22 207.049 22 159C22 110.951 60.9512 72 109 72C157.049 72 196 110.951 196 159Z" fill="#764B16"/>
<path fill-rule="evenodd" clip-rule="evenodd" d="M109 87C69.2355 87 37 119.235 37 159C37 198.764 69.2355 231 109 231C148.764 231 181 198.764 181 159C181 119.235 148.764 87 109 87ZM7 159C7 102.667 52.667 57 109 57C165.333 57 211 102.667 211 159C211 215.333 165.333 261 109 261C52.667 261 7 215.333 7 159Z" fill="#805726"/>
<path d="M109.001 82C66.5595 82 32 116.357 32 159.001C32 201.645 66.3574 236.002 109.001 236.002C151.645 236.002 186.002 201.645 186.002 159.001C186.002 116.357 151.442 82 109.001 82ZM93.6412 89.4778C93.8433 89.4778 93.8433 89.4778 93.6412 89.4778C95.0559 92.5093 97.6833 94.3282 100.311 93.7219C102.938 93.3177 105.565 91.4988 105.767 87.861C106.172 87.861 106.576 87.861 106.98 87.861C106.98 98.7745 106.172 110.496 104.959 123.229C104.757 124.441 104.757 125.654 104.757 126.867C104.353 125.856 103.948 124.644 103.544 123.229C99.3001 112.517 95.4601 100.998 92.4286 89.6799C93.0349 89.6799 93.237 89.4778 93.6412 89.4778ZM76.0583 95.743C78.2814 98.3703 81.1109 99.3808 83.5361 98.1682C86.3655 96.9556 87.9823 94.1261 87.376 91.0946C87.7802 90.8925 88.1844 90.8925 88.5886 90.6904C91.216 101.2 93.8433 112.72 95.8643 125.452C96.0664 126.867 96.2685 127.877 96.6727 129.09C96.0664 128.079 95.4601 127.069 94.4496 125.856C87.5781 116.559 80.9088 106.454 75.0478 96.3493C75.2499 96.1472 75.6541 95.9451 76.0583 95.743ZM60.4964 106.656C63.3259 108.475 66.3574 108.678 68.3784 107.061C69.9952 105.848 70.8036 104.029 70.8036 102.21C70.8036 101.2 70.6015 100.189 69.9952 99.3808C70.3994 99.1787 70.6015 98.9766 71.0057 98.7745C76.4625 108.071 81.7172 118.783 87.1739 130.302C87.7802 131.515 88.3865 132.526 88.7907 133.536C87.9823 132.728 86.9718 131.919 85.9613 131.111C77.0688 123.633 67.9742 115.549 59.688 107.465C59.8901 107.061 60.2943 106.859 60.4964 106.656ZM48.3703 121.006C48.5724 121.006 48.5724 121.006 48.3703 121.006C51.6039 122.016 54.6355 121.612 56.0502 119.389C56.4544 118.783 57.4649 117.166 57.4649 115.549C57.4649 114.538 57.0607 112.922 55.8481 111.507C56.0502 111.305 56.4544 110.901 56.6565 110.699C64.3364 118.378 72.2184 127.271 80.5046 136.972C81.313 137.982 82.1214 138.791 82.9298 139.599C81.9193 138.993 80.7067 138.589 79.494 137.982C68.9847 133.132 58.0712 127.675 47.764 122.016C47.9661 121.612 48.1682 121.41 48.3703 121.006ZM40.4883 137.982C40.4883 137.982 40.4883 137.78 40.4883 137.982C43.924 138.184 46.5514 136.972 47.5619 134.344C47.764 133.738 47.9661 132.93 47.9661 131.717C47.9661 130.505 47.5619 128.281 45.1367 126.665C45.3388 126.26 45.5409 126.058 45.743 125.654C55.0397 131.111 65.1448 137.578 75.452 144.854C76.4625 145.662 77.6751 146.269 78.4835 146.875C77.473 146.673 76.0583 146.471 74.6436 146.066C63.3259 144.45 51.4018 142.024 39.882 138.993C40.2862 138.791 40.4883 138.387 40.4883 137.982ZM37.2547 156.374C37.2547 156.374 37.2547 156.172 37.2547 156.374C40.4883 155.767 42.9135 153.746 43.1156 151.119C43.1156 150.917 43.1156 150.715 43.1156 150.311C43.1156 147.885 41.903 145.258 38.8715 144.248C38.8715 143.843 39.0736 143.439 39.0736 143.035C49.5829 145.864 60.9006 149.704 72.8247 153.948C74.0373 154.353 75.2499 154.757 76.2604 154.959C75.0478 154.959 73.8352 155.161 72.4205 155.161C61.1027 156.576 48.7745 157.182 37.0526 157.384C37.2547 157.182 37.2547 156.778 37.2547 156.374ZM38.8715 175.169C38.8715 174.967 38.8715 174.967 38.8715 175.169C41.4988 173.754 43.1156 171.733 43.1156 169.308C43.1156 169.106 43.1156 168.702 43.1156 168.5C42.7114 165.872 40.8925 163.245 37.2547 163.043C37.2547 162.639 37.2547 162.235 37.2547 161.83C48.1682 161.83 59.8901 162.437 72.6226 163.447C74.0373 163.649 75.2499 163.649 76.2604 163.649C75.2499 164.054 74.0373 164.458 72.6226 164.862C61.9111 169.106 50.3913 172.946 39.0736 176.18C39.0736 175.978 39.0736 175.573 38.8715 175.169ZM45.3387 192.752C45.3387 192.752 45.3387 192.55 45.3387 192.752C47.1577 191.135 48.1682 189.316 48.1682 187.295C48.1682 186.487 47.9661 185.881 47.764 185.274C46.7535 182.849 44.3282 180.828 40.6904 181.636C40.4883 181.232 40.4883 180.828 40.2862 180.424C50.7955 177.594 62.3153 175.169 74.8457 172.946C76.2604 172.744 77.2709 172.34 78.4835 172.138C77.473 172.744 76.4625 173.35 75.2499 174.361C65.9532 181.232 55.8481 187.902 45.743 193.965C45.743 193.358 45.5409 193.156 45.3387 192.752ZM56.2523 208.112C57.2628 206.495 57.667 205.08 57.667 203.463C57.667 202.251 57.2628 201.038 56.4544 200.23C54.8376 198.209 51.806 196.794 48.5724 198.411C48.3703 198.007 48.1682 197.805 47.9661 197.4C57.2628 191.944 67.9742 186.487 79.494 181.03C80.7067 180.424 81.7172 179.818 82.7277 179.413C81.9193 180.222 81.1109 181.232 80.3024 182.243C73.2289 191.337 65.1448 200.432 57.0607 208.92C56.8586 208.718 56.4544 208.516 56.2523 208.112ZM70.6015 220.036C70.8036 218.823 71.0057 217.813 71.0057 216.802C71.0057 214.781 70.1973 213.164 68.7826 212.356C66.7616 210.941 63.528 210.133 60.9006 212.76C60.4964 212.558 60.2943 212.154 60.0922 211.952C67.7721 204.272 76.4625 196.188 86.1634 188.104C87.1739 187.295 87.9823 186.487 88.7907 185.678C88.1844 186.689 87.7802 187.902 87.1739 189.114C82.7277 199.624 77.473 210.537 71.612 220.642C71.4099 220.44 71.0057 220.238 70.6015 220.036ZM87.5781 227.918C87.7802 224.482 86.3655 221.855 83.9403 220.844C81.5151 220.036 78.2814 220.238 76.2604 223.27C75.8562 223.067 75.6541 222.865 75.2499 222.663C80.7066 213.367 86.9718 203.261 94.2475 192.752C95.0559 191.539 95.6622 190.529 96.2685 189.721C96.0664 190.731 95.8643 192.146 95.4601 193.56C93.8433 204.878 91.4181 216.802 88.5886 228.322C88.3865 228.12 87.9823 228.12 87.5781 227.918ZM105.969 230.949C105.363 227.716 103.342 225.291 100.715 225.088C98.0874 224.886 95.0559 225.897 94.0454 229.333C93.6412 229.333 93.237 229.13 92.8328 229.13C95.6622 218.621 99.3001 207.303 103.544 195.379C103.948 194.167 104.353 192.954 104.555 191.944C104.555 193.156 104.757 194.369 104.757 195.784C106.172 207.101 106.98 219.43 107.182 231.151C106.778 231.151 106.374 231.151 105.969 230.949ZM178.928 144.45C176.301 145.864 174.482 147.885 174.482 150.311C174.482 150.513 174.482 150.917 174.482 151.119C174.886 153.746 176.705 156.374 180.343 156.576C180.343 156.98 180.343 157.384 180.343 157.788C169.632 157.788 157.708 156.98 144.975 155.767C143.56 155.565 142.348 155.565 141.337 155.565C142.348 155.161 143.56 154.757 144.975 154.353C155.687 150.108 167.206 146.269 178.524 143.237C178.726 143.641 178.726 144.045 178.928 144.45ZM172.663 126.867C172.663 126.867 172.663 127.069 172.663 126.867C170.844 128.484 169.834 130.302 169.834 132.323C169.834 133.132 170.036 133.738 170.238 134.344C171.248 136.77 173.674 138.791 177.312 138.184C177.514 138.589 177.514 138.993 177.716 139.397C167.206 142.024 155.485 144.45 142.954 146.673C141.539 146.875 140.529 147.077 139.316 147.481C140.327 146.875 141.337 146.269 142.55 145.46C151.847 138.387 161.952 131.717 172.057 125.856C172.259 126.26 172.461 126.463 172.663 126.867ZM162.154 111.709C161.143 113.326 160.537 114.943 160.537 116.357C160.537 117.57 160.941 118.783 161.75 119.591C163.366 121.612 166.196 123.027 169.43 121.41C169.632 121.814 169.834 122.016 170.036 122.42C160.537 127.675 150.028 133.132 138.306 138.184C137.093 138.791 136.083 139.195 135.072 139.801C135.881 138.993 136.689 137.982 137.7 136.972C144.975 128.079 153.059 118.985 161.345 110.699C161.548 111.103 161.952 111.305 162.154 111.709ZM147.603 99.1787C147.603 99.1787 147.805 99.3808 147.603 99.1787C147.4 100.391 146.996 101.402 146.996 102.412C146.996 104.231 147.805 105.848 149.219 106.859C151.24 108.273 154.474 109.082 157.101 106.656C157.303 106.859 157.708 107.263 157.91 107.465C150.23 115.145 141.337 123.027 131.434 131.111C130.424 131.919 129.413 132.728 128.807 133.536C129.413 132.526 129.818 131.515 130.424 130.1C135.072 119.591 140.529 108.678 146.39 98.5724C146.996 98.7745 147.198 98.9766 147.603 99.1787ZM130.626 91.2967C130.828 91.2967 130.828 91.2967 130.626 91.2967C130.424 94.7324 131.839 97.3598 134.264 98.3703C136.689 99.3808 139.923 99.1787 141.944 95.9451C142.348 96.1472 142.55 96.3493 142.954 96.5514C137.497 105.848 131.03 115.751 123.552 126.26C122.744 127.271 122.138 128.281 121.531 129.292C121.733 128.281 122.138 126.867 122.34 125.452C124.159 114.134 126.584 102.21 129.413 90.8925C130.02 90.8925 130.222 91.0946 130.626 91.2967ZM112.437 87.861C112.437 87.861 112.639 87.861 112.437 87.861C113.043 91.0946 115.064 93.5198 117.691 93.7219C120.319 93.924 123.35 92.9135 124.563 89.4778C124.967 89.4778 125.371 89.6799 125.775 89.6799C122.946 100.189 119.106 111.507 114.66 123.229C114.256 124.441 113.851 125.654 113.447 126.665C113.447 125.452 113.245 124.239 113.245 122.825C112.033 111.507 111.224 99.1787 111.224 87.4568C111.628 87.861 112.033 87.861 112.437 87.861ZM124.361 229.333C122.744 226.301 120.319 224.684 117.691 225.088C115.064 225.493 112.437 227.312 112.235 230.949C111.83 230.949 111.426 230.949 111.022 230.949C111.022 220.036 111.628 208.314 112.841 195.581C113.043 194.369 113.043 193.358 113.043 192.348C113.043 192.146 113.043 192.146 113.043 191.944C113.447 192.954 113.851 194.167 114.256 195.581C118.5 206.293 122.34 217.813 125.573 229.13C125.169 229.333 124.765 229.333 124.361 229.333ZM141.742 223.067C141.742 223.067 141.539 223.067 141.742 223.067C139.518 220.44 136.689 219.43 134.264 220.642C131.434 221.855 129.818 224.684 130.626 227.716C130.222 227.918 129.818 227.918 129.413 228.12C126.584 217.611 124.159 206.091 122.138 193.56C121.936 192.146 121.733 191.135 121.329 189.923C121.936 190.933 122.542 191.944 123.552 193.156C130.424 202.453 137.093 212.558 142.954 222.663C142.348 222.865 142.146 222.865 141.742 223.067ZM157.303 212.154C157.303 212.356 157.303 212.356 157.303 212.154C154.474 210.335 151.442 210.133 149.421 211.75C147.805 212.962 146.996 214.781 146.996 216.6C146.996 217.611 147.198 218.621 147.805 219.43C147.4 219.632 147.198 219.834 146.794 220.036C141.337 210.739 135.881 200.028 130.626 188.508C130.02 187.295 129.413 186.285 129.009 185.274C129.818 186.083 130.828 186.891 131.839 187.699C140.933 194.773 150.028 202.857 158.314 211.143C157.91 211.75 157.708 211.952 157.303 212.154ZM169.227 198.007C169.227 198.007 169.227 198.209 169.227 198.007C165.994 196.996 162.962 197.4 161.548 199.624C161.143 200.23 160.133 201.847 160.133 203.463C160.133 204.474 160.537 206.091 161.75 207.506C161.548 207.708 161.143 208.112 160.941 208.314C153.261 200.634 145.379 191.742 137.295 182.041C136.487 181.03 135.678 180.02 134.87 179.413C135.881 180.02 137.093 180.424 138.306 181.03C148.815 185.678 159.729 191.135 170.036 196.794C169.632 197.4 169.43 197.603 169.227 198.007ZM177.109 181.03C177.109 181.232 177.109 181.232 177.109 181.03C173.674 180.828 171.046 182.041 170.036 184.668C169.834 185.274 169.632 186.083 169.632 187.295C169.632 188.508 170.036 190.731 172.461 192.348C172.259 192.752 172.057 192.954 171.855 193.358C162.558 187.902 152.453 181.434 142.146 174.159C141.135 173.35 139.923 172.744 139.114 172.138C140.125 172.34 141.539 172.744 142.954 172.946C154.272 174.563 166.196 176.988 177.514 180.02C177.312 180.424 177.312 180.828 177.109 181.03ZM180.343 162.841C177.109 163.447 174.684 165.266 174.482 167.893C174.482 168.096 174.482 168.298 174.482 168.702C174.482 171.127 175.695 173.754 178.726 174.765C178.726 175.169 178.524 175.573 178.524 175.978C168.015 173.148 156.697 169.51 144.773 165.064C143.56 164.66 142.348 164.256 141.337 164.054C142.55 164.054 143.763 163.851 145.177 163.851C156.495 162.639 168.823 161.83 180.545 161.83C180.545 162.033 180.343 162.437 180.343 162.841Z" fill="#D9B68B"/>
<circle cx="109" cy="159" r="77" stroke="url(#paint1_linear)" stroke-width="2"/>
<circle cx="109" cy="159" r="101" stroke="url(#paint2_linear)" stroke-width="2"/>
<g filter="url(#filter1_i)">
<circle cx="109" cy="159" r="50" fill="#805726"/>
</g>
<g filter="url(#filter2_d)">
<path fill-rule="evenodd" clip-rule="evenodd" d="M83.168 135.786V134H112.692V162.571H83.168V135.786ZM99.7751 139.357H96.0846L88.7037 157.214H92.3942L93.8718 153.643H101.988L103.466 157.214H107.156L99.7751 139.357ZM95.3458 150.071L97.9299 143.821L100.514 150.071H95.3458ZM131.144 159H116.382V155.429H134.835V184H105.311V166.143H109.001V180.429H131.144V159ZM127.96 165.47V162.676H120.929V165.47H122.626V170.785H119.165C118.739 170.402 118.218 170.161 117.601 170.061C118.335 169.829 118.901 169.404 119.298 168.789C119.694 168.173 119.893 167.433 119.893 166.568C119.893 165.304 119.511 164.314 118.747 163.599C117.983 162.867 116.895 162.501 115.485 162.501C114.5 162.501 113.648 162.659 112.928 162.975V166.144C113.721 165.728 114.493 165.52 115.242 165.52C116.271 165.52 116.785 166.019 116.785 167.017C116.785 168.049 116.175 168.564 114.956 168.564H114.272V171.509H115.176C115.97 171.509 116.513 171.667 116.807 171.983C117.116 172.299 117.27 172.723 117.27 173.255C117.27 174.653 116.623 175.351 115.33 175.351C114.375 175.351 113.427 175.068 112.487 174.503V177.747C113.413 178.113 114.412 178.296 115.485 178.296C117.072 178.296 118.262 177.88 119.055 177.048C119.863 176.216 120.267 175.135 120.267 173.804V173.63H122.626V179.418H125.756V165.47H127.96Z" fill="#FFE4C1"/>
</g>
<path d="M57.4 92.2998L52 84.9998L54.4 83.1998C55.2 82.5998 55.9 82.2998 56.5 82.3998C57.1 82.3998 57.7 82.7998 58.2 83.3998C58.5 83.6998 58.6 84.0998 58.6 84.4998C58.6 84.8998 58.5 85.2998 58.3 85.6998C58.8 85.4998 59.2 85.4998 59.7 85.5998C60.2 85.6998 60.5 85.9998 60.9 86.4998C61.4 87.1998 61.5 87.7998 61.4 88.4998C61.3 89.1998 60.8 89.7998 60 90.3998L57.4 92.2998ZM55.3 87.3998L56.8 86.2998C57.2 85.9998 57.5 85.5998 57.6 85.1998C57.7 84.7998 57.6 84.3998 57.3 84.0998C57 83.6998 56.7 83.4998 56.3 83.4998C55.9 83.4998 55.5 83.6998 55 83.9998L53.6 84.9998L55.3 87.3998ZM55.8 88.1998L57.7 90.7998L59.3 89.5998C59.7 89.2998 60 88.8998 60.1 88.4998C60.2 88.0998 60.1 87.6998 59.8 87.2998C59.2 86.3998 58.4 86.2998 57.4 86.9998L55.8 88.1998Z" fill="white"/>
<path d="M61.3008 82.3002C61.4008 81.5002 61.8008 80.9002 62.5008 80.5002C63.7008 79.8002 64.7008 80.1002 65.6008 81.4002L67.9008 85.2002L66.9008 85.8002L64.6008 82.0002C64.3008 81.6002 64.1008 81.3002 63.8008 81.3002C63.5008 81.2002 63.1008 81.3002 62.7008 81.5002C62.4008 81.7002 62.2008 82.0002 62.0008 82.3002C61.9008 82.6002 61.8008 83.0002 61.8008 83.3002L64.3008 87.4002L63.3008 88.0002L58.3008 79.8002L59.3008 79.2002L61.3008 82.3002Z" fill="white"/>
<path d="M72.8001 82.6002C72.7001 82.5002 72.5001 82.3001 72.3001 82.0001C72.1001 82.7001 71.6001 83.3002 71.0001 83.6002C70.4001 83.9002 69.8001 84.0002 69.3001 83.8002C68.7001 83.7002 68.3001 83.3002 68.1001 82.8002C67.8001 82.2002 67.8001 81.6001 68.1001 81.0001C68.4001 80.4001 69.0001 79.9001 69.8001 79.5001L70.8001 79.0001L70.6001 78.5001C70.4001 78.1001 70.2001 77.9002 69.8001 77.8002C69.5001 77.7002 69.1001 77.8001 68.7001 78.0001C68.3001 78.2001 68.1001 78.4002 67.9001 78.7002C67.7001 79.0002 67.7001 79.3002 67.9001 79.6002L66.9001 80.1002C66.7001 79.8002 66.7001 79.5002 66.8001 79.1002C66.9001 78.7002 67.0001 78.3001 67.3001 78.0001C67.6001 77.7001 67.9001 77.4002 68.4001 77.1002C69.1001 76.7002 69.7001 76.6002 70.3001 76.8002C70.9001 76.9002 71.3001 77.3002 71.6001 77.9002L73.0001 80.7002C73.3001 81.3002 73.6001 81.7002 73.9001 81.9002V82.0001L72.8001 82.6002ZM70.7001 82.7002C71.0001 82.5002 71.3001 82.3001 71.5001 82.0001C71.7001 81.7001 71.8001 81.4001 71.8001 81.0001L71.2001 79.8002L70.4001 80.2002C69.1001 80.8002 68.7001 81.5002 69.1001 82.3002C69.3001 82.6002 69.5001 82.8002 69.8001 82.9002C70.1001 83.0002 70.4001 82.9002 70.7001 82.7002Z" fill="white"/>
<path d="M77.8988 78.4001C77.7988 78.1001 77.5988 77.9001 77.2988 77.9001C76.9988 77.8001 76.5988 77.9001 75.9988 78.0001C75.3988 78.1001 74.8988 78.2001 74.4988 78.1001C74.0988 78.1001 73.7988 78.0002 73.5988 77.8002C73.3988 77.6002 73.1988 77.4001 72.9988 77.1001C72.7988 76.6001 72.7988 76.1001 73.0988 75.5001C73.3988 75.0001 73.8988 74.6002 74.4988 74.3002C75.1988 74.0002 75.8988 73.9001 76.3988 74.1001C76.9988 74.3001 77.3988 74.7001 77.5988 75.2001L76.4988 75.6001C76.3988 75.3001 76.0988 75.1001 75.7988 75.0001C75.4988 74.9001 75.0988 74.9001 74.6988 75.1001C74.2988 75.3001 73.9988 75.5001 73.8988 75.7001C73.7988 76.0001 73.6988 76.2001 73.7988 76.5001C73.8988 76.8001 74.0988 76.9001 74.2988 77.0001C74.5988 77.0001 74.9988 77.0001 75.5988 76.9001C76.1988 76.8001 76.6988 76.8002 77.0988 76.8002C77.4988 76.8002 77.7988 76.9001 78.0988 77.1001C78.3988 77.3001 78.5988 77.5002 78.6988 77.8002C78.8988 78.4002 78.8988 78.9001 78.5988 79.4001C78.2988 79.9001 77.7988 80.3001 77.0988 80.6001C76.5988 80.8001 76.0988 80.9001 75.6988 80.9001C75.1988 80.9001 74.7988 80.8001 74.4988 80.5001C74.1988 80.3001 73.8988 80.0001 73.6988 79.6001L74.7988 79.2001C74.9988 79.5001 75.1988 79.8001 75.5988 79.9001C75.9988 80.0001 76.2988 80.0002 76.7988 79.8002C77.1988 79.6002 77.4988 79.4001 77.6988 79.2001C77.9988 79.0001 77.9988 78.7001 77.8988 78.4001Z" fill="white"/>
<path d="M79.9992 73.1999C80.2992 72.3999 80.7992 71.8999 81.5992 71.6999C82.9992 71.2999 83.8992 71.7999 84.3992 73.2999L85.7992 77.4999L84.6992 77.8999L83.2992 73.6999C83.0992 73.1999 82.8992 72.8999 82.5992 72.7999C82.2992 72.5999 81.9992 72.5999 81.4992 72.7999C81.0992 72.8999 80.8992 73.0999 80.6992 73.3999C80.4992 73.6999 80.3992 73.9999 80.2992 74.3999L81.7992 78.9999L80.6992 79.3999L77.6992 70.2999L78.7992 69.8999L79.9992 73.1999Z" fill="white"/>
<path d="M85 69.0001C85 68.8001 85 68.7001 85 68.5001C85.1 68.3001 85.2 68.2001 85.4 68.2001C85.6 68.1001 85.8 68.2001 85.9 68.3001C86 68.4001 86.1 68.5001 86.2 68.7001C86.2 68.9001 86.2 69.0001 86.2 69.2001C86.1 69.4001 86 69.5001 85.8 69.5001C85.6 69.6001 85.4 69.5001 85.3 69.5001C85.2 69.3001 85.1 69.1001 85 69.0001ZM88.4 76.9001L87.3 77.2001L85.5 70.7001L86.6 70.4001L88.4 76.9001Z" fill="white"/>
<path d="M89.6992 69.5999L89.8992 70.3999C90.2992 69.6999 90.8992 69.1998 91.6992 68.9998C93.0992 68.6998 93.9992 69.2999 94.2992 70.8999L95.1992 75.2999L94.0992 75.4998L93.1992 71.0999C93.0992 70.5999 92.8992 70.2999 92.6992 70.0999C92.3992 69.8999 92.0992 69.8998 91.5992 69.9998C91.1992 70.0998 90.8992 70.1998 90.6992 70.4998C90.4992 70.7998 90.2992 71.0999 90.1992 71.3999L91.1992 76.0999L90.0992 76.2999L88.6992 69.6998L89.6992 69.5999Z" fill="white"/>
<path d="M95.3984 66.6999C95.3984 66.4999 95.3984 66.3999 95.4984 66.1999C95.5984 66.0999 95.7984 65.9999 95.9984 65.8999C96.1984 65.8999 96.3984 65.8999 96.4984 65.9999C96.5984 66.0999 96.6984 66.2999 96.6984 66.3999C96.6984 66.5999 96.6984 66.6999 96.5984 66.8999C96.4984 66.9999 96.2984 67.0999 96.0984 67.1999C95.8984 67.2999 95.6984 67.1999 95.5984 67.0999C95.4984 67.0999 95.3984 66.8999 95.3984 66.6999ZM97.8984 74.9999L96.7984 75.1999L95.7984 68.4999L96.8984 68.2999L97.8984 74.9999Z" fill="white"/>
<path d="M102.102 69.5998C102.102 69.1998 102.202 68.8998 102.402 68.6998C102.602 68.4998 102.902 68.2998 103.302 68.2998C103.702 68.2998 104.002 68.3998 104.202 68.5998C104.502 68.7998 104.602 69.0998 104.602 69.4998V69.6998C104.602 70.0998 104.502 70.3998 104.302 70.5998C104.102 70.7998 103.802 70.9998 103.402 70.9998C103.002 70.9998 102.702 70.8998 102.502 70.6998C102.302 70.4998 102.102 70.1998 102.102 69.7998V69.5998Z" fill="white"/>
<path d="M110.899 73.1L115.199 73.2V74.2L109.699 74.1L109.899 65H111.099L110.899 73.1Z" fill="white"/>
<path d="M117.401 74.4001L116.301 74.3001L116.801 67.6001L117.901 67.7001L117.401 74.4001ZM116.801 65.8001C116.801 65.6001 116.901 65.5001 117.001 65.3001C117.101 65.1001 117.301 65.1001 117.501 65.1001C117.701 65.1001 117.901 65.2001 118.001 65.3001C118.101 65.4001 118.201 65.6001 118.101 65.8001C118.101 66.0001 118.001 66.1001 117.901 66.3001C117.801 66.4001 117.601 66.5001 117.401 66.4001C117.201 66.4001 117.001 66.3001 116.901 66.2001C116.801 66.2001 116.801 66.0001 116.801 65.8001Z" fill="white"/>
<path d="M121.2 71.7L120.4 72.4L120.1 74.7L119 74.5L120.3 65L121.4 65.2L120.6 70.9L121.3 70.2L123.7 68.3L125.1 68.5L122.1 70.9L124.5 75.2L123.2 75L121.2 71.7Z" fill="white"/>
<path d="M127.402 69.9001C128.002 69.4001 128.702 69.2001 129.502 69.4001C130.902 69.7001 131.402 70.6001 131.102 72.2001L130.202 76.6001L129.102 76.4001L130.002 72.0001C130.102 71.5001 130.102 71.1001 129.902 70.9001C129.702 70.6001 129.402 70.4001 129.002 70.3001C128.602 70.2001 128.302 70.3001 128.002 70.4001C127.702 70.5001 127.402 70.7001 127.202 71.0001L126.202 75.7001L125.102 75.5001L127.102 66.1001L128.202 66.3001L127.402 69.9001Z" fill="white"/>
<path d="M132.202 73.4998C132.402 72.8998 132.702 72.2998 133.102 71.8998C133.502 71.4998 134.002 71.1998 134.502 70.9998C135.002 70.8998 135.602 70.8998 136.102 70.9998C137.002 71.2998 137.602 71.7998 138.002 72.4998C138.402 73.2998 138.402 74.1998 138.102 75.1998V75.2999C137.902 75.8999 137.602 76.4998 137.202 76.8998C136.802 77.2998 136.402 77.5999 135.802 77.7999C135.302 77.8999 134.702 77.8999 134.102 77.7999C133.202 77.4999 132.602 76.9999 132.202 76.2999C131.902 75.3999 131.902 74.5998 132.202 73.4998ZM133.302 73.8998C133.102 74.5998 133.102 75.1999 133.302 75.7999C133.502 76.2999 133.902 76.6999 134.402 76.7999C135.002 76.9999 135.502 76.8998 135.902 76.4998C136.402 76.1998 136.702 75.5999 136.902 74.7999C137.102 74.0999 137.102 73.4998 136.902 72.8998C136.702 72.2998 136.302 71.9999 135.802 71.7999C135.302 71.5999 134.802 71.6998 134.302 72.0998C133.802 72.4998 133.502 73.0998 133.302 73.8998Z" fill="white"/>
<path d="M142.401 80.6002L141.301 80.1002L144.701 71.7002L145.801 72.2002L142.401 80.6002Z" fill="white"/>
<path d="M147.9 75.6L147.5 76.4C148.2 76 149 76 149.7 76.4C151 77 151.3 78 150.6 79.5L148.7 83.5L147.7 83L149.6 79C149.8 78.6 149.9 78.2 149.8 77.9C149.7 77.6 149.4 77.3 149 77.1C148.7 76.9 148.3 76.9 148 76.9C147.7 77 147.3 77.1 147.1 77.3L145 81.6L144 81.1L146.9 75L147.9 75.6Z" fill="white"/>
<path d="M151.399 80.9999C151.899 80.0999 152.499 79.4999 153.299 79.1999C154.099 78.8999 154.799 78.9999 155.399 79.2999C156.099 79.6999 156.499 80.1999 156.599 80.8999L158.399 77.8999L159.399 78.4999L154.599 86.7999L153.699 86.2999L153.999 85.5999C153.299 85.8999 152.599 85.7999 151.899 85.3999C151.199 84.9999 150.799 84.3999 150.699 83.5999C150.699 82.7999 150.899 81.9999 151.399 80.9999ZM152.399 81.6999C151.999 82.3999 151.899 82.9999 151.899 83.4999C151.899 83.9999 152.199 84.3999 152.699 84.6999C153.299 85.0999 153.999 85.0999 154.599 84.6999L156.199 81.9999C156.199 81.2999 155.899 80.6999 155.299 80.3999C154.799 80.0999 154.299 80.0999 153.799 80.2999C153.299 80.4999 152.799 80.9999 152.399 81.6999Z" fill="white"/>
<path d="M156.898 88.3998L155.898 87.7998L159.598 82.1998L160.598 82.7998L156.898 88.3998ZM160.598 80.5998C160.698 80.3998 160.798 80.2998 160.998 80.2998C161.198 80.2998 161.298 80.2998 161.498 80.3998C161.698 80.4998 161.798 80.6998 161.798 80.7998C161.798 80.9998 161.798 81.0998 161.698 81.2998C161.598 81.4998 161.498 81.5998 161.298 81.5998C161.098 81.5998 160.998 81.5998 160.798 81.4998C160.598 81.3998 160.498 81.1998 160.498 81.0998C160.498 80.8998 160.498 80.6998 160.598 80.5998Z" fill="white"/>
<path d="M161.601 91.7001C161.601 91.6001 161.701 91.3 161.901 91C161.101 91.1 160.501 91 159.901 90.5C159.401 90.1 159.001 89.6001 158.901 89.1001C158.801 88.5001 158.901 88.0001 159.201 87.6001C159.601 87.0001 160.201 86.8001 160.801 86.8001C161.401 86.8001 162.201 87.1001 163.001 87.7001L163.901 88.4001L164.201 88C164.401 87.7 164.501 87.3 164.501 87C164.401 86.7 164.201 86.4001 163.901 86.1001C163.601 85.9001 163.201 85.7001 162.901 85.7001C162.601 85.7001 162.301 85.8001 162.101 86.1001L161.201 85.4001C161.401 85.1001 161.701 84.9001 162.101 84.8001C162.501 84.7001 162.901 84.7001 163.301 84.8001C163.701 84.9001 164.201 85.1001 164.501 85.4001C165.101 85.9001 165.501 86.4 165.601 87C165.701 87.6 165.601 88.1001 165.201 88.7001L163.401 91.2001C163.001 91.7001 162.801 92.1 162.701 92.5L162.601 92.6001L161.601 91.7001ZM160.601 89.9001C160.901 90.1001 161.201 90.2001 161.601 90.3001C162.001 90.3001 162.301 90.3001 162.601 90.1001L163.401 89L162.701 88.5C161.601 87.7 160.801 87.6001 160.301 88.2001C160.101 88.5001 160.001 88.8001 160.101 89.1001C160.101 89.4001 160.301 89.7001 160.601 89.9001Z" fill="white"/>
<path d="M20 188.8L28.5 185.6L29.5 188.4C29.8 189.3 29.9 190.1 29.7 190.7C29.5 191.3 29 191.8 28.3 192C27.9 192.1 27.5 192.2 27.1 192.1C26.7 192 26.4 191.8 26 191.4C26 191.9 25.9 192.4 25.7 192.8C25.4 193.2 25.1 193.5 24.6 193.7C23.8 194 23.1 194 22.5 193.6C21.9 193.3 21.4 192.7 21.1 191.7L20 188.8ZM24.4 188.5L21.3 189.6L22 191.5C22.2 192 22.5 192.4 22.9 192.6C23.3 192.8 23.7 192.8 24.2 192.6C25.2 192.2 25.5 191.5 25.1 190.4L24.4 188.5ZM25.3 188.1L25.9 189.8C26.1 190.3 26.4 190.6 26.7 190.8C27.1 191 27.4 191 27.9 190.9C28.4 190.7 28.7 190.5 28.8 190.1C28.9 189.7 28.9 189.3 28.7 188.7L28.1 187L25.3 188.1Z" fill="white"/>
<path d="M28.8 194.9C29.6 195.1 30.2 195.6 30.5 196.3C31.1 197.6 30.7 198.6 29.2 199.3L25.2 201.2L24.7 200.2L28.7 198.3C29.1 198.1 29.4 197.8 29.5 197.5C29.6 197.2 29.6 196.8 29.4 196.4C29.2 196.1 29 195.8 28.7 195.6C28.4 195.4 28.1 195.3 27.7 195.3L23.5 197.5L23 196.5L31.7 192.4L32.2 193.4L28.8 194.9Z" fill="white"/>
<path d="M28.2992 206.7C28.3992 206.6 28.5992 206.4 28.7992 206.2C28.0992 206 27.4992 205.6 27.0992 205C26.7992 204.4 26.6992 203.9 26.7992 203.3C26.8992 202.7 27.1992 202.3 27.6992 202C28.2992 201.7 28.8992 201.6 29.4992 201.9C30.0992 202.2 30.5992 202.7 31.0992 203.6L31.6992 204.6L32.1992 204.3C32.4992 204.1 32.7992 203.8 32.8992 203.5C32.9992 203.2 32.8992 202.8 32.6992 202.4C32.4992 202 32.1992 201.8 31.8992 201.7C31.5992 201.6 31.2992 201.6 30.9992 201.7L30.3992 200.7C30.6992 200.5 30.9992 200.5 31.3992 200.5C31.7992 200.6 32.1992 200.7 32.4992 201C32.8992 201.3 33.1992 201.6 33.3992 202C33.7992 202.7 33.8992 203.3 33.7992 203.9C33.6992 204.5 33.2992 204.9 32.6992 205.3L29.9992 206.8C29.4992 207.1 29.0992 207.4 28.7992 207.7H28.6992L28.2992 206.7ZM28.0992 204.6C28.2992 204.9 28.4992 205.2 28.8992 205.4C29.2992 205.6 29.5992 205.7 29.8992 205.6L31.0992 204.9L30.6992 204.1C29.9992 202.9 29.2992 202.5 28.5992 202.9C28.2992 203.1 28.0992 203.3 27.9992 203.6C27.7992 203.9 27.8992 204.2 28.0992 204.6Z" fill="white"/>
<path d="M33.6016 211.6C33.9016 211.4 34.0016 211.2 34.0016 210.9C34.0016 210.6 33.9016 210.2 33.7016 209.6C33.5016 209 33.3016 208.6 33.3016 208.2C33.3016 207.8 33.3016 207.5 33.4016 207.2C33.5016 206.9 33.7016 206.7 34.0016 206.5C34.5016 206.2 35.0016 206.1 35.6016 206.3C36.2016 206.5 36.7016 206.9 37.1016 207.5C37.5016 208.1 37.7016 208.8 37.7016 209.4C37.6016 210 37.4016 210.5 36.8016 210.8L36.2016 209.8C36.5016 209.6 36.6016 209.4 36.6016 209C36.6016 208.7 36.5016 208.3 36.3016 208C36.1016 207.7 35.8016 207.4 35.5016 207.3C35.2016 207.2 35.0016 207.2 34.7016 207.4C34.5016 207.6 34.4016 207.8 34.4016 208C34.4016 208.3 34.5016 208.7 34.7016 209.2C34.9016 209.7 35.1016 210.2 35.1016 210.6C35.2016 211 35.1016 211.3 35.0016 211.6C34.9016 211.9 34.7016 212.1 34.4016 212.3C33.9016 212.6 33.4016 212.7 32.8016 212.5C32.2016 212.3 31.7016 211.9 31.3016 211.3C31.0016 210.9 30.8016 210.4 30.7016 210C30.6016 209.5 30.7016 209.1 30.8016 208.7C31.0016 208.3 31.2016 208 31.5016 207.8L32.1016 208.8C31.8016 209 31.6016 209.3 31.6016 209.7C31.6016 210.1 31.7016 210.4 32.0016 210.8C32.2016 211.2 32.5016 211.4 32.8016 211.5C33.1016 211.8 33.3016 211.7 33.6016 211.6Z" fill="white"/>
<path d="M39.1984 212.2C39.9984 212.2 40.6984 212.5 41.1984 213.2C42.0984 214.3 41.8984 215.4 40.6984 216.4L37.1984 219.2L36.4984 218.3L39.9984 215.5C40.3984 215.2 40.5984 214.9 40.5984 214.6C40.5984 214.3 40.4984 213.9 40.1984 213.6C39.9984 213.3 39.6984 213.1 39.3984 213C39.0984 212.9 38.6984 212.9 38.3984 213L34.5984 216L33.8984 215.1L41.3984 209.1L42.0984 210L39.1984 212.2Z" fill="white"/>
<path d="M41.3016 223.8C41.4016 223.7 41.5016 223.5 41.7016 223.2C40.9016 223.2 40.3016 222.9 39.8016 222.4C39.3016 221.9 39.1016 221.4 39.1016 220.8C39.1016 220.2 39.3016 219.8 39.7016 219.4C40.2016 218.9 40.8016 218.7 41.4016 218.9C42.0016 219 42.7016 219.4 43.4016 220.2L44.2016 221L44.6016 220.6C44.9016 220.3 45.0016 220 45.1016 219.7C45.2016 219.4 45.0016 219 44.6016 218.7C44.3016 218.4 44.0016 218.2 43.7016 218.2C43.4016 218.1 43.1016 218.2 42.9016 218.4L42.1016 217.6C42.3016 217.4 42.7016 217.2 43.1016 217.2C43.5016 217.2 43.9016 217.2 44.3016 217.4C44.7016 217.6 45.1016 217.8 45.4016 218.2C45.9016 218.8 46.2016 219.3 46.2016 219.9C46.2016 220.5 46.0016 221 45.5016 221.5L43.2016 223.6C42.7016 224 42.4016 224.4 42.3016 224.8L42.2016 224.9L41.3016 223.8ZM40.7016 221.8C40.9016 222.1 41.2016 222.3 41.6016 222.4C42.0016 222.5 42.3016 222.5 42.6016 222.4L43.6016 221.5L43.0016 220.8C42.0016 219.8 41.3016 219.5 40.6016 220.1C40.3016 220.3 40.2016 220.6 40.2016 220.9C40.3016 221.2 40.4016 221.5 40.7016 221.8Z" fill="white"/>
<path d="M50.8016 227.1C50.2016 226.2 49.9016 225.5 49.8016 224.8C49.7016 224.2 49.9016 223.6 50.3016 223.1C50.8016 222.6 51.4016 222.3 52.1016 222.3C52.8016 222.3 53.6016 222.6 54.2016 223.2C54.7016 223.6 55.0016 224.1 55.2016 224.6C55.4016 225.1 55.5016 225.6 55.4016 226.1C55.3016 226.6 55.1016 227 54.8016 227.4L53.9016 226.6C54.3016 226.2 54.4016 225.7 54.3016 225.3C54.2016 224.8 54.0016 224.4 53.5016 224C53.1016 223.6 52.6016 223.4 52.2016 223.4C51.8016 223.4 51.4016 223.6 51.1016 223.9C50.9016 224.2 50.8016 224.5 50.8016 224.9C50.9016 225.3 51.1016 225.8 51.6016 226.5C52.0016 227.1 52.3016 227.7 52.5016 228.2C52.7016 228.7 52.7016 229.1 52.6016 229.5C52.5016 229.9 52.4016 230.3 52.1016 230.6C51.6016 231.2 51.0016 231.4 50.3016 231.4C49.6016 231.4 48.9016 231 48.1016 230.4C47.6016 230 47.3016 229.5 47.0016 229C46.7016 228.5 46.6016 227.9 46.7016 227.4C46.7016 226.9 46.9016 226.4 47.3016 226L48.2016 226.8C47.8016 227.2 47.7016 227.7 47.8016 228.2C47.9016 228.7 48.2016 229.2 48.7016 229.6C49.2016 230 49.6016 230.2 50.1016 230.2C50.5016 230.2 50.9016 230.1 51.2016 229.7C51.5016 229.3 51.6016 229 51.5016 228.6C51.4016 228.2 51.2016 227.8 50.8016 227.1Z" fill="white"/>
<path d="M55.4016 235.8C55.4016 235.7 55.5016 235.4 55.7016 235.1C54.9016 235.2 54.3016 235.1 53.7016 234.7C53.2016 234.3 52.8016 233.8 52.7016 233.3C52.6016 232.7 52.7016 232.2 53.0016 231.8C53.4016 231.2 53.9016 230.9 54.6016 230.9C55.3016 230.9 56.0016 231.2 56.8016 231.7L57.7016 232.4L58.0016 232C58.2016 231.7 58.3016 231.3 58.3016 231C58.2016 230.7 58.0016 230.4 57.6016 230.1C57.3016 229.9 56.9016 229.7 56.6016 229.7C56.3016 229.7 56.0016 229.8 55.8016 230.1L54.9016 229.4C55.1016 229.1 55.4016 228.9 55.8016 228.8C56.2016 228.7 56.6016 228.7 57.0016 228.8C57.4016 228.9 57.9016 229.1 58.3016 229.4C58.9016 229.9 59.3016 230.4 59.4016 230.9C59.5016 231.5 59.4016 232 59.0016 232.6L57.2016 235.1C56.8016 235.6 56.6016 236 56.5016 236.4L56.4016 236.5L55.4016 235.8ZM54.4016 234C54.7016 234.2 55.0016 234.3 55.4016 234.4C55.8016 234.4 56.1016 234.4 56.4016 234.2L57.2016 233.1L56.5016 232.6C55.4016 231.8 54.5016 231.7 54.1016 232.4C53.9016 232.7 53.8016 233 53.9016 233.3C53.9016 233.5 54.1016 233.8 54.4016 234Z" fill="white"/>
<path d="M62.4008 232.4L62.1008 233.1C62.8008 232.8 63.5008 232.9 64.3008 233.3C65.1008 233.8 65.5008 234.4 65.4008 235.2C65.8008 235 66.1008 235 66.6008 235C67.1008 235 67.4008 235.1 67.9008 235.4C69.2008 236.1 69.4008 237.2 68.7008 238.6L66.4008 242.5L65.4008 241.9L67.6008 238C67.8008 237.6 67.9008 237.2 67.9008 236.9C67.8008 236.6 67.6008 236.3 67.1008 236C66.7008 235.8 66.4008 235.7 66.0008 235.8C65.6008 235.9 65.3008 236.1 65.1008 236.4L62.9008 240.3L61.9008 239.7L64.1008 235.9C64.6008 235.1 64.4008 234.4 63.6008 233.9C62.9008 233.5 62.3008 233.5 61.8008 234L59.3008 238.3L58.3008 237.7L61.7008 231.9L62.4008 232.4Z" fill="white"/>
<path d="M72.0984 245C72.0984 244.9 72.0984 244.6 72.1984 244.3C71.4984 244.6 70.7984 244.6 70.0984 244.3C69.4984 244 69.0984 243.6 68.7984 243.1C68.5984 242.6 68.5984 242.1 68.7984 241.5C69.0984 240.9 69.5984 240.5 70.1984 240.3C70.7984 240.2 71.5984 240.3 72.4984 240.7L73.4984 241.2L73.6984 240.7C73.8984 240.3 73.8984 240 73.7984 239.7C73.6984 239.4 73.3984 239.1 72.9984 238.9C72.5984 238.7 72.2984 238.7 71.8984 238.8C71.5984 238.9 71.2984 239 71.1984 239.3L70.0984 238.8C70.1984 238.5 70.4984 238.2 70.7984 238.1C71.0984 238 71.4984 237.8 71.9984 237.8C72.3984 237.8 72.8984 237.9 73.2984 238.1C73.9984 238.4 74.4984 238.8 74.6984 239.4C74.8984 239.9 74.8984 240.5 74.6984 241.1L73.3984 243.9C73.0984 244.5 72.9984 244.9 72.9984 245.3V245.4L72.0984 245ZM70.6984 243.5C70.9984 243.6 71.3984 243.7 71.7984 243.7C72.1984 243.7 72.4984 243.5 72.6984 243.3L73.2984 242L72.4984 241.6C71.1984 241 70.3984 241.1 70.0984 241.9C69.9984 242.2 69.8984 242.5 70.0984 242.8C70.0984 243.1 70.2984 243.3 70.6984 243.5Z" fill="white"/>
<path d="M79.9984 242C79.7984 241.9 79.6984 241.8 79.4984 241.8C78.7984 241.5 78.1984 241.7 77.6984 242.2L75.9984 246.7L74.8984 246.3L77.2984 240L78.3984 240.4L78.0984 241.1C78.6984 240.7 79.2984 240.6 79.8984 240.8C80.0984 240.9 80.2984 241 80.2984 241.1L79.9984 242Z" fill="white"/>
<path d="M83.5014 240.3L83.0014 241.9L84.2014 242.3L83.9014 243.1L82.7014 242.7L81.4014 246.7C81.3014 247 81.3014 247.2 81.4014 247.3C81.5014 247.5 81.6014 247.6 81.9014 247.7C82.0014 247.7 82.2014 247.8 82.4014 247.8L82.1014 248.7C81.8014 248.7 81.5014 248.6 81.2014 248.6C80.7014 248.4 80.4014 248.2 80.2014 247.8C80.0014 247.4 80.1014 247 80.2014 246.4L81.5014 242.4L80.3014 242L80.6014 241.2L81.8014 241.6L82.3014 240L83.5014 240.3Z" fill="white"/>
<path d="M86.3008 243.7C86.9008 243.2 87.7008 243.1 88.5008 243.3C89.9008 243.6 90.4008 244.6 90.0008 246.2L88.9008 250.5L87.8008 250.2L88.9008 245.9C89.0008 245.4 89.0008 245.1 88.8008 244.8C88.6008 244.5 88.3008 244.3 87.9008 244.2C87.5008 244.1 87.2008 244.1 86.9008 244.3C86.6008 244.4 86.3008 244.6 86.1008 244.9L84.9008 249.6L83.8008 249.3L86.1008 240L87.2008 240.3L86.3008 243.7Z" fill="white"/>
<path d="M94.9986 251.5C94.9986 251.4 94.8986 251.1 94.9986 250.8C94.3986 251.3 93.6986 251.4 92.9986 251.3C92.2986 251.2 91.7986 250.9 91.4986 250.5C91.0986 250.1 90.9986 249.6 91.0986 249C91.1986 248.3 91.5986 247.8 92.1986 247.5C92.7986 247.2 93.5986 247.1 94.4986 247.3L95.5986 247.5L95.6986 247C95.7986 246.6 95.6986 246.3 95.4986 246C95.2986 245.7 94.9986 245.5 94.4986 245.5C94.0986 245.4 93.6986 245.5 93.3986 245.6C93.0986 245.8 92.8986 246 92.8986 246.3L91.7986 246.1C91.8986 245.8 91.9986 245.5 92.2986 245.2C92.5986 244.9 92.8986 244.7 93.3986 244.6C93.7986 244.5 94.2986 244.5 94.7986 244.6C95.5986 244.7 96.0986 245 96.4986 245.5C96.8986 246 96.9986 246.5 96.8986 247.2L96.3986 250.3C96.2986 250.9 96.2986 251.4 96.3986 251.8V251.9L94.9986 251.5ZM93.2986 250.4C93.6986 250.5 93.9986 250.4 94.3986 250.3C94.7986 250.2 94.9986 250 95.1986 249.7L95.3986 248.3L94.4986 248.2C93.0986 248 92.2986 248.3 92.1986 249.1C92.0986 249.5 92.1986 249.8 92.3986 250C92.5986 250.1 92.8986 250.3 93.2986 250.4Z" fill="white"/>
<path d="M100.299 249L99.4992 249.7L99.2992 252.1L98.1992 252L99.0992 242.5L100.199 242.6L99.6992 248.4L100.399 247.7L102.699 245.7L104.099 245.8L101.199 248.4L103.799 252.6L102.499 252.5L100.299 249Z" fill="white"/>
<path d="M108.102 247.8C108.102 247.4 108.202 247.1 108.402 246.9C108.602 246.7 108.902 246.5 109.302 246.5C109.702 246.5 110.002 246.6 110.202 246.8C110.402 247 110.602 247.3 110.602 247.7V247.9C110.602 248.3 110.502 248.6 110.302 248.8C110.102 249 109.802 249.2 109.402 249.2C109.002 249.2 108.702 249.1 108.502 248.9C108.302 248.7 108.102 248.4 108.102 248V247.8Z" fill="white"/>
<path d="M116.199 252.3L115.199 243.3L118.099 243C119.099 242.9 119.799 243 120.399 243.4C120.899 243.8 121.199 244.3 121.299 245.1C121.299 245.5 121.299 245.9 121.099 246.3C120.899 246.6 120.599 246.9 120.199 247.2C120.699 247.3 121.099 247.5 121.399 247.9C121.699 248.3 121.899 248.7 121.999 249.2C122.099 250 121.899 250.7 121.399 251.2C120.899 251.7 120.199 252 119.299 252.1L116.199 252.3ZM116.899 247L118.699 246.8C119.199 246.7 119.599 246.6 119.899 246.3C120.199 246 120.299 245.6 120.299 245.2C120.199 244.7 120.099 244.4 119.699 244.2C119.299 244 118.899 243.9 118.299 244L116.499 244.2L116.899 247ZM116.999 248L117.399 251.2L119.399 251C119.999 250.9 120.399 250.7 120.699 250.4C120.999 250.1 121.099 249.7 121.099 249.2C120.999 248.1 120.299 247.6 119.199 247.8L116.999 248Z" fill="white"/>
<path d="M126.4 245.1C126.2 245.1 126 245.1 125.8 245.2C125.1 245.3 124.6 245.7 124.5 246.4L125.3 251.1L124.2 251.3L123 244.7L124.1 244.5L124.3 245.3C124.6 244.6 125 244.3 125.7 244.1C125.9 244.1 126.1 244.1 126.2 244.1L126.4 245.1Z" fill="white"/>
<path d="M127.599 247.2C127.399 246.6 127.399 246 127.599 245.4C127.799 244.8 127.999 244.3 128.399 244C128.799 243.6 129.299 243.3 129.799 243.2C130.699 243 131.499 243.1 132.199 243.6C132.899 244.1 133.399 244.8 133.599 245.9V246C133.799 246.6 133.799 247.2 133.699 247.8C133.599 248.4 133.299 248.8 132.899 249.2C132.499 249.6 131.999 249.9 131.399 250C130.499 250.2 129.699 250.1 128.999 249.6C128.299 249.1 127.799 248.3 127.599 247.2ZM128.699 247.1C128.899 247.8 129.199 248.4 129.599 248.7C129.999 249.1 130.499 249.2 131.099 249C131.699 248.9 132.099 248.5 132.299 248C132.499 247.5 132.499 246.8 132.299 246C132.099 245.3 131.799 244.7 131.399 244.4C130.899 244 130.399 243.9 129.899 244.1C129.299 244.2 128.999 244.6 128.699 245.1C128.499 245.6 128.499 246.3 128.699 247.1Z" fill="white"/>
<path d="M134.998 241.901L135.298 242.701C135.598 241.901 136.098 241.401 136.898 241.101C138.298 240.601 139.198 241.201 139.698 242.701L141.098 246.901L139.998 247.301L138.598 243.101C138.398 242.601 138.198 242.301 137.898 242.201C137.598 242.001 137.298 242.001 136.798 242.201C136.398 242.301 136.198 242.501 135.998 242.801C135.798 243.101 135.698 243.401 135.598 243.801L137.098 248.401L135.998 248.801L133.898 242.401L134.998 241.901Z" fill="white"/>
<path d="M143.699 244.9L147.299 243.4L147.699 244.3L142.799 246.4L142.499 245.6L143.999 239.6L140.599 241L140.199 240.1L144.899 238.1L145.199 238.9L143.699 244.9Z" fill="white"/>
<path d="M151.599 242.4C150.799 242.8 149.999 242.9 149.199 242.6C148.399 242.3 147.799 241.7 147.299 240.8L147.199 240.6C146.899 240 146.699 239.4 146.699 238.8C146.699 238.2 146.799 237.7 147.099 237.2C147.399 236.7 147.799 236.4 148.199 236.1C148.999 235.7 149.699 235.7 150.399 235.9C151.099 236.1 151.699 236.8 152.199 237.8L152.399 238.2L148.299 240.3C148.599 240.9 148.999 241.3 149.499 241.5C149.999 241.7 150.499 241.7 150.999 241.4C151.399 241.2 151.599 241 151.799 240.7C151.999 240.4 152.099 240.1 152.199 239.8L153.099 240C153.199 241.1 152.599 241.9 151.599 242.4ZM148.699 237.1C148.299 237.3 147.999 237.6 147.899 238.1C147.799 238.5 147.799 239.1 147.999 239.6L150.999 238.1V238C150.699 237.5 150.399 237.2 149.999 237C149.599 236.8 149.199 236.9 148.699 237.1Z" fill="white"/>
<path d="M162.402 232.4C162.802 233.3 163.002 234.1 162.802 234.8C162.602 235.6 162.102 236.2 161.302 236.8C160.402 237.4 159.502 237.6 158.502 237.3C157.502 237 156.702 236.3 156.002 235.3L155.502 234.6C155.002 233.9 154.702 233.2 154.602 232.5C154.502 231.8 154.602 231.2 154.802 230.6C155.002 230 155.502 229.5 156.102 229.1C156.902 228.6 157.702 228.4 158.502 228.5C159.302 228.6 160.002 229.1 160.602 229.8L159.602 230.5C159.102 230 158.602 229.6 158.202 229.6C157.802 229.6 157.202 229.7 156.702 230C156.102 230.4 155.702 231 155.702 231.7C155.702 232.4 155.902 233.2 156.502 234.1L157.002 234.8C157.502 235.6 158.202 236.2 158.802 236.4C159.402 236.6 160.102 236.6 160.702 236.2C161.302 235.8 161.602 235.4 161.702 235C161.802 234.6 161.702 234 161.402 233.3L162.402 232.4Z" fill="white"/>
<path d="M162.998 231.2C162.598 230.7 162.298 230.1 162.198 229.6C162.098 229 162.099 228.5 162.299 228C162.499 227.5 162.799 227 163.299 226.7C163.999 226.1 164.799 225.9 165.599 226C166.399 226.1 167.199 226.6 167.799 227.4L167.898 227.5C168.298 228 168.598 228.5 168.698 229.1C168.798 229.7 168.799 230.2 168.599 230.7C168.399 231.2 168.099 231.7 167.599 232C166.899 232.6 166.099 232.8 165.299 232.6C164.499 232.4 163.698 232.1 162.998 231.2ZM163.998 230.6C164.498 231.2 164.998 231.5 165.498 231.7C165.998 231.9 166.598 231.7 166.998 231.4C167.498 231 167.698 230.6 167.698 230C167.698 229.4 167.398 228.8 166.898 228.2C166.398 227.6 165.898 227.3 165.398 227.1C164.798 227 164.298 227.1 163.898 227.4C163.498 227.8 163.199 228.2 163.299 228.8C163.399 229.4 163.498 229.9 163.998 230.6Z" fill="white"/>
<path d="M167.501 223.2L168.101 223.8C168.001 223 168.301 222.3 168.901 221.7C169.901 220.7 171.001 220.8 172.101 222L175.201 225.2L174.401 226L171.301 222.8C171.001 222.4 170.601 222.3 170.301 222.2C170.001 222.1 169.701 222.3 169.301 222.6C169.001 222.9 168.901 223.2 168.801 223.5C168.701 223.8 168.801 224.2 168.901 224.5L172.201 228L171.401 228.8L166.801 223.9L167.501 223.2Z" fill="white"/>
<path d="M171.501 216.9L172.701 218L173.601 217.1L174.301 217.7L173.401 218.6L176.501 221.5C176.701 221.7 176.901 221.8 177.101 221.8C177.301 221.8 177.501 221.7 177.601 221.5C177.701 221.4 177.801 221.3 177.901 221L178.601 221.6C178.501 221.9 178.301 222.1 178.101 222.3C177.701 222.7 177.401 222.9 177.001 222.8C176.601 222.8 176.201 222.6 175.801 222.2L172.701 219.3L171.901 220.2L171.201 219.6L172.001 218.7L170.801 217.6L171.501 216.9Z" fill="white"/>
<path d="M177.298 214.3C177.198 214.4 176.998 214.5 176.898 214.7C176.398 215.3 176.298 215.9 176.598 216.5L180.198 219.6L179.498 220.5L174.398 216.1L175.098 215.2L175.698 215.7C175.498 215 175.598 214.4 176.098 213.9C176.198 213.7 176.398 213.6 176.498 213.6L177.298 214.3Z" fill="white"/>
<path d="M175.698 211.8C175.598 211.7 175.498 211.5 175.398 211.4C175.398 211.2 175.398 211.1 175.598 210.9C175.698 210.7 175.898 210.6 176.098 210.6C176.298 210.6 176.398 210.6 176.598 210.8C176.698 210.9 176.798 211.1 176.898 211.2C176.898 211.4 176.898 211.5 176.698 211.7C176.598 211.9 176.398 212 176.198 212C175.998 211.9 175.798 211.9 175.698 211.8ZM183.198 216L182.498 216.9L177.198 212.7L177.898 211.8L183.198 216Z" fill="white"/>
<path d="M185.002 207.8C185.802 208.4 186.402 209.1 186.602 209.8C186.802 210.5 186.702 211.2 186.302 211.9C185.802 212.6 185.202 213 184.402 213L185.002 213.5L184.502 214.4L176.602 208.9L177.302 208L180.202 210C180.002 209.3 180.102 208.6 180.602 207.9C181.102 207.2 181.702 206.9 182.502 206.8C183.202 206.8 184.102 207.1 185.002 207.8ZM184.302 208.7C183.702 208.3 183.102 208 182.502 208C182.002 208 181.602 208.2 181.202 208.7C180.802 209.3 180.702 210 181.102 210.6L183.502 212.3C184.302 212.4 184.902 212.2 185.302 211.5C185.602 211 185.702 210.6 185.502 210.1C185.302 209.6 185.002 209.2 184.302 208.7Z" fill="white"/>
<path d="M190.201 204.2C190.401 204.9 190.301 205.6 189.901 206.3C189.501 206.9 189.101 207.3 188.501 207.4C188.001 207.5 187.301 207.4 186.601 207L182.801 204.8L183.401 203.8L187.201 206C188.101 206.5 188.701 206.4 189.201 205.7C189.601 204.9 189.701 204.3 189.201 203.7L185.001 201.2L185.601 200.2L191.401 203.6L190.801 204.5L190.201 204.2Z" fill="white"/>
<path d="M185.498 196.6L186.998 197.3L187.598 196.2L188.398 196.6L187.798 197.7L191.498 199.6C191.698 199.7 191.898 199.8 192.098 199.7C192.298 199.6 192.398 199.5 192.498 199.3C192.598 199.2 192.598 199 192.698 198.8L193.498 199.2C193.398 199.5 193.298 199.8 193.198 200C192.998 200.5 192.698 200.7 192.298 200.8C191.898 200.9 191.498 200.8 190.898 200.6L187.198 198.7L186.698 199.8L185.898 199.4L186.398 198.3L184.898 197.6L185.498 196.6Z" fill="white"/>
<path d="M190.899 196.8C190.299 196.5 189.799 196.2 189.399 195.7C188.999 195.3 188.799 194.8 188.699 194.2C188.599 193.6 188.699 193.1 188.899 192.6C189.299 191.8 189.799 191.2 190.599 190.9C191.399 190.6 192.299 190.7 193.299 191.1H193.399C193.999 191.4 194.499 191.7 194.899 192.1C195.299 192.5 195.499 193 195.599 193.6C195.699 194.1 195.599 194.7 195.399 195.3C194.999 196.1 194.499 196.7 193.699 197C192.799 197.4 191.999 197.3 190.899 196.8ZM191.499 195.8C192.199 196.1 192.799 196.2 193.399 196C193.999 195.8 194.299 195.5 194.599 195C194.799 194.5 194.799 193.9 194.499 193.4C194.199 192.9 193.699 192.5 192.899 192.2C192.199 191.9 191.599 191.8 190.999 192C190.399 192.1 189.999 192.5 189.799 193C189.599 193.5 189.599 194 189.899 194.5C190.199 195.1 190.699 195.5 191.499 195.8Z" fill="white"/>
<path d="M192.702 185.9C192.602 186.1 192.502 186.2 192.502 186.4C192.302 187.1 192.402 187.7 192.902 188.2L197.402 189.8L197.002 190.9L190.602 188.7L191.002 187.6L191.702 187.8C191.302 187.2 191.102 186.6 191.402 186C191.502 185.8 191.602 185.6 191.702 185.5L192.702 185.9Z" fill="white"/>
<defs>
<filter id="filter0_ii" x="0" y="50" width="218" height="218" filterUnits="userSpaceOnUse" color-interpolation-filters="sRGB">
<feFlood flood-opacity="0" result="BackgroundImageFix"/>
<feBlend mode="normal" in="SourceGraphic" in2="BackgroundImageFix" result="shape"/>
<feColorMatrix in="SourceAlpha" type="matrix" values="0 0 0 0 0 0 0 0 0 0 0 0 0 0 0 0 0 0 127 0" result="hardAlpha"/>
<feOffset/>
<feGaussianBlur stdDeviation="4"/>
<feComposite in2="hardAlpha" operator="arithmetic" k2="-1" k3="1"/>
<feColorMatrix type="matrix" values="0 0 0 0 0.9875 0 0 0 0 0.722843 0 0 0 0 0.386771 0 0 0 1 0"/>
<feBlend mode="normal" in2="shape" result="effect1_innerShadow"/>
<feColorMatrix in="SourceAlpha" type="matrix" values="0 0 0 0 0 0 0 0 0 0 0 0 0 0 0 0 0 0 127 0" result="hardAlpha"/>
<feOffset/>
<feGaussianBlur stdDeviation="6"/>
<feComposite in2="hardAlpha" operator="arithmetic" k2="-1" k3="1"/>
<feColorMatrix type="matrix" values="0 0 0 0 0 0 0 0 0 0 0 0 0 0 0 0 0 0 0.2 0"/>
<feBlend mode="normal" in2="effect1_innerShadow" result="effect2_innerShadow"/>
</filter>
<filter id="filter1_i" x="59" y="109" width="100" height="100" filterUnits="userSpaceOnUse" color-interpolation-filters="sRGB">
<feFlood flood-opacity="0" result="BackgroundImageFix"/>
<feBlend mode="normal" in="SourceGraphic" in2="BackgroundImageFix" result="shape"/>
<feColorMatrix in="SourceAlpha" type="matrix" values="0 0 0 0 0 0 0 0 0 0 0 0 0 0 0 0 0 0 127 0" result="hardAlpha"/>
<feOffset/>
<feGaussianBlur stdDeviation="6"/>
<feComposite in2="hardAlpha" operator="arithmetic" k2="-1" k3="1"/>
<feColorMatrix type="matrix" values="0 0 0 0 0 0 0 0 0 0 0 0 0 0 0 0 0 0 0.4 0"/>
<feBlend mode="normal" in2="shape" result="effect1_innerShadow"/>
</filter>
<filter id="filter2_d" x="82.168" y="133" width="53.6667" height="52" filterUnits="userSpaceOnUse" color-interpolation-filters="sRGB">
<feFlood flood-opacity="0" result="BackgroundImageFix"/>
<feColorMatrix in="SourceAlpha" type="matrix" values="0 0 0 0 0 0 0 0 0 0 0 0 0 0 0 0 0 0 127 0"/>
<feOffset/>
<feGaussianBlur stdDeviation="0.5"/>
<feColorMatrix type="matrix" values="0 0 0 0 0.320833 0 0 0 0 0.320833 0 0 0 0 0.320833 0 0 0 0.25 0"/>
<feBlend mode="normal" in2="BackgroundImageFix" result="effect1_dropShadow"/>
<feBlend mode="normal" in="SourceGraphic" in2="effect1_dropShadow" result="shape"/>
</filter>
<linearGradient id="paint0_linear" x1="51.775" y1="57.4938" x2="218" y2="246.2" gradientUnits="userSpaceOnUse">
<stop stop-color="white"/>
<stop offset="1" stop-color="#705F5F" stop-opacity="0"/>
</linearGradient>
<linearGradient id="paint1_linear" x1="174.52" y1="213.6" x2="38.8" y2="107.52" gradientUnits="userSpaceOnUse">
<stop stop-color="#FFE4C1"/>
<stop offset="1" stop-color="#383838" stop-opacity="0"/>
</linearGradient>
<linearGradient id="paint2_linear" x1="194.68" y1="230.4" x2="17.2" y2="91.68" gradientUnits="userSpaceOnUse">
<stop stop-color="#FFE4C1"/>
<stop offset="1" stop-color="#383838" stop-opacity="0"/>
</linearGradient>
</defs>
</svg>
