<svg width="21" height="20" viewBox="0 0 21 20" fill="none" xmlns="http://www.w3.org/2000/svg">
<path d="M19.8627 0H1.54449C1.10396 0 0.748047 0.357464 0.748047 0.79992V19.1981C0.748047 19.6405 1.10396 19.998 1.54449 19.998H19.8627C20.3032 19.998 20.6591 19.6405 20.6591 19.1981V0.79992C20.6591 0.357464 20.3032 0 19.8627 0ZM6.65416 17.0408H3.69986V7.49675H6.65416V17.0408ZM5.17825 6.19188C4.83958 6.19188 4.50852 6.09101 4.22692 5.90204C3.94533 5.71306 3.72585 5.44446 3.59625 5.1302C3.46665 4.81594 3.43274 4.47014 3.49881 4.13653C3.56488 3.80292 3.72796 3.49647 3.96744 3.25595C4.20692 3.01543 4.51203 2.85163 4.84419 2.78527C5.17636 2.71891 5.52065 2.75297 5.83354 2.88314C6.14643 3.01331 6.41387 3.23374 6.60202 3.51657C6.79018 3.79939 6.8906 4.1319 6.8906 4.47205C6.88812 5.42196 6.12154 6.19188 5.17825 6.19188ZM17.7147 17.0408H14.7629V12.3988C14.7629 11.2914 14.743 9.86901 13.2273 9.86901C11.6917 9.86901 11.4552 11.0739 11.4552 12.3188V17.0408H8.50589V7.49675H11.3382V8.80162H11.3781C11.7713 8.05169 12.7345 7.25927 14.1731 7.25927C17.1647 7.25927 17.7147 9.23657 17.7147 11.8063V17.0408Z" fill="#142745"/>
</svg>
