<svg width="159" height="103" viewBox="0 0 159 103" fill="none" xmlns="http://www.w3.org/2000/svg">
<path fill-rule="evenodd" clip-rule="evenodd" d="M30.5939 30.1239C35.8109 30.1676 40.2826 33.2695 42.1678 38.1188C44.0091 42.8808 42.8692 48.036 38.8797 51.4437C36.2055 53.7154 35.0656 56.5552 34.7149 59.9191C34.3203 63.3268 31.4268 65.9918 28.1388 66.0355C24.6754 66.0791 21.7381 63.6326 21.1682 60.1376C21.1243 59.8318 20.9928 59.4386 21.1243 59.1764C21.2997 58.8269 21.6943 58.3027 21.9573 58.3027C22.3519 58.3027 22.8341 58.6522 23.0533 59.0017C23.2725 59.3075 23.1848 59.7881 23.2725 60.1813C23.7548 62.453 25.8591 64.1132 28.095 63.9821C30.5062 63.8947 32.4352 62.0599 32.7421 59.7007C32.8297 58.6959 33.0051 57.7347 33.2243 56.7299C33.7504 54.1523 35.1533 52.0553 37.1699 50.3515C39.2304 48.6913 40.3703 46.5506 40.8087 43.9293C41.7294 38.5994 37.696 33.051 32.3037 32.3083C28.6649 31.8278 25.5522 32.7889 23.0095 35.5412C22.5711 36.0218 22.1327 36.415 21.5189 35.8034C20.949 35.2791 21.0367 34.7112 21.5189 34.1432C23.4479 31.653 26.999 30.0802 30.5939 30.1239Z" fill="#F58B71"/>
<path fill-rule="evenodd" clip-rule="evenodd" d="M30.5939 30.1239C35.8109 30.1676 40.2826 33.2695 42.1678 38.1188C44.0091 42.8808 42.8692 48.036 38.8797 51.4437C36.2055 53.7154 35.0656 56.5552 34.7149 59.9191C34.3203 63.3268 31.4268 65.9918 28.1388 66.0355C24.6754 66.0791 21.7381 63.6326 21.1682 60.1376C21.1243 59.8318 20.9928 59.4386 21.1243 59.1764C21.2997 58.8269 21.6943 58.3027 21.9573 58.3027C22.3519 58.3027 22.8341 58.6522 23.0533 59.0017C23.2725 59.3075 23.1848 59.7881 23.2725 60.1813C23.7548 62.453 25.8591 64.1132 28.095 63.9821C30.5062 63.8947 32.4352 62.0599 32.7421 59.7007C32.8297 58.6959 33.0051 57.7347 33.2243 56.7299C33.7504 54.1523 35.1533 52.0553 37.1699 50.3515C39.2304 48.6913 40.3703 46.5506 40.8087 43.9293C41.7294 38.5994 37.696 33.051 32.3037 32.3083C28.6649 31.8278 25.5522 32.7889 23.0095 35.5412C22.5711 36.0218 22.1327 36.415 21.5189 35.8034C20.949 35.2791 21.0367 34.7112 21.5189 34.1432C23.4479 31.653 26.999 30.0802 30.5939 30.1239Z" stroke="#F58B71" stroke-width="0.0135276"/>
<path fill-rule="evenodd" clip-rule="evenodd" d="M30.4949 49.8004C30.4949 48.4024 30.7579 47.8782 31.5032 47.9218C32.7746 48.0092 32.4677 49.014 32.5554 49.7567C32.8184 52.8586 30.8018 55.6983 28.0398 56.3099C26.5492 56.5721 25.2778 56.2662 24.3134 55.174C23.305 53.9508 23.042 52.5528 23.6996 51.1548C24.0942 50.281 24.7079 49.4946 25.3655 48.8393C26.4615 47.7034 26.5492 47.4413 25.6286 46.1306C25.4532 45.8248 25.234 45.519 25.0148 45.2569C23.0858 43.0288 23.6557 40.6259 25.0148 38.66C27.2507 35.3397 32.0731 34.7281 35.142 37.3057C38.1232 39.8396 38.3424 44.6452 35.4927 47.4413C35.2297 47.7034 34.8789 48.0092 34.5282 48.0092C34.2213 48.0529 33.6514 47.7471 33.6076 47.4413C33.476 47.0918 33.6076 46.5238 33.8706 46.2617C34.8789 45.1695 35.5366 43.9462 35.5366 42.4172C35.4927 40.1017 33.6514 38.0484 31.284 37.7425C29.1797 37.4804 26.6369 39.0969 26.0231 41.0628C25.7163 42.024 25.8916 42.854 26.4615 43.6404C26.9438 44.3831 27.4699 45.0821 27.9083 45.8685C28.6097 47.1355 28.4782 48.3587 27.5137 49.4509C27.0315 49.9752 26.5492 50.4557 26.067 51.0237C25.3217 51.8538 25.234 53.0333 25.8039 53.7323C26.3739 54.4313 27.5137 54.5187 28.5659 53.9071C29.7934 53.2081 30.5387 51.679 30.4949 49.8004Z" fill="#F58B71"/>
<path fill-rule="evenodd" clip-rule="evenodd" d="M30.4949 49.8004C30.4949 48.4024 30.7579 47.8782 31.5032 47.9218C32.7746 48.0092 32.4677 49.014 32.5554 49.7567C32.8184 52.8586 30.8018 55.6983 28.0398 56.3099C26.5492 56.5721 25.2778 56.2662 24.3134 55.174C23.305 53.9508 23.042 52.5528 23.6996 51.1548C24.0942 50.281 24.7079 49.4946 25.3655 48.8393C26.4615 47.7034 26.5492 47.4413 25.6286 46.1306C25.4532 45.8248 25.234 45.519 25.0148 45.2569C23.0858 43.0288 23.6557 40.6259 25.0148 38.66C27.2507 35.3397 32.0731 34.7281 35.142 37.3057C38.1232 39.8396 38.3424 44.6452 35.4927 47.4413C35.2297 47.7034 34.8789 48.0092 34.5282 48.0092C34.2213 48.0529 33.6514 47.7471 33.6076 47.4413C33.476 47.0918 33.6076 46.5238 33.8706 46.2617C34.8789 45.1695 35.5366 43.9462 35.5366 42.4172C35.4927 40.1017 33.6514 38.0484 31.284 37.7425C29.1797 37.4804 26.6369 39.0969 26.0231 41.0628C25.7163 42.024 25.8916 42.854 26.4615 43.6404C26.9438 44.3831 27.4699 45.0821 27.9083 45.8685C28.6097 47.1355 28.4782 48.3587 27.5137 49.4509C27.0315 49.9752 26.5492 50.4557 26.067 51.0237C25.3217 51.8538 25.234 53.0333 25.8039 53.7323C26.3739 54.4313 27.5137 54.5187 28.5659 53.9071C29.7934 53.2081 30.5387 51.679 30.4949 49.8004Z" stroke="#F58B71" stroke-width="0.0135276"/>
<path fill-rule="evenodd" clip-rule="evenodd" d="M52.9039 53.4104C52.9039 59.1772 49.0021 64.114 43.3466 65.2935C42.3821 65.512 41.3299 65.512 40.3216 65.3809C39.9709 65.3372 39.4886 64.7256 39.4009 64.3324C39.3132 63.7208 39.7955 63.4586 40.4531 63.4586C48.1691 63.2402 52.6408 56.8181 50.2296 49.3911C50.0104 48.6484 49.6597 47.9494 49.3528 47.2504C49.0897 46.5951 49.1774 46.0708 49.835 45.7213C50.5365 45.4155 50.9749 45.765 51.2379 46.4203C52.2901 48.6047 52.9477 50.9202 52.9039 53.4104Z" fill="#F58B71"/>
<path fill-rule="evenodd" clip-rule="evenodd" d="M52.9039 53.4104C52.9039 59.1772 49.0021 64.114 43.3466 65.2935C42.3821 65.512 41.3299 65.512 40.3216 65.3809C39.9709 65.3372 39.4886 64.7256 39.4009 64.3324C39.3132 63.7208 39.7955 63.4586 40.4531 63.4586C48.1691 63.2402 52.6408 56.8181 50.2296 49.3911C50.0104 48.6484 49.6597 47.9494 49.3528 47.2504C49.0897 46.5951 49.1774 46.0708 49.835 45.7213C50.5365 45.4155 50.9749 45.765 51.2379 46.4203C52.2901 48.6047 52.9477 50.9202 52.9039 53.4104Z" stroke="#F58B71" stroke-width="0.0135276"/>
<path fill-rule="evenodd" clip-rule="evenodd" d="M48.7817 52.9579C48.694 57.7199 44.7045 61.477 40.0574 61.0839C39.356 61.0402 38.9614 60.647 38.9614 60.0353C38.9614 59.4237 39.356 59.0742 40.0136 59.0742C40.715 59.0305 41.4603 58.9868 42.1618 58.7684C45.6252 57.8946 47.2911 54.618 46.2389 50.9046C46.1074 50.4677 45.9321 50.0745 45.7567 49.6376C45.5375 48.9386 45.669 48.3707 46.4143 48.0648C47.1596 47.8027 47.5103 48.327 47.6857 48.8512C48.0802 50.2056 48.3871 51.6036 48.7817 52.9579Z" fill="#F58B71"/>
<path fill-rule="evenodd" clip-rule="evenodd" d="M48.7817 52.9579C48.694 57.7199 44.7045 61.477 40.0574 61.0839C39.356 61.0402 38.9614 60.647 38.9614 60.0353C38.9614 59.4237 39.356 59.0742 40.0136 59.0742C40.715 59.0305 41.4603 58.9868 42.1618 58.7684C45.6252 57.8946 47.2911 54.618 46.2389 50.9046C46.1074 50.4677 45.9321 50.0745 45.7567 49.6376C45.5375 48.9386 45.669 48.3707 46.4143 48.0648C47.1596 47.8027 47.5103 48.327 47.6857 48.8512C48.0802 50.2056 48.3871 51.6036 48.7817 52.9579Z" stroke="#F58B71" stroke-width="0.0135276"/>
<path fill-rule="evenodd" clip-rule="evenodd" d="M44.0908 53.0829C43.9593 55.2236 42.2495 56.8838 40.2328 56.8838C39.4875 56.8838 39.0053 56.5343 38.9614 55.7916C38.9614 55.0926 39.4437 54.8741 40.1013 54.8304C41.8111 54.6557 42.381 53.6946 41.5919 52.1655C41.285 51.5102 41.285 51.0296 41.9865 50.6801C42.6441 50.2869 43.1702 50.6364 43.4332 51.248C43.7401 51.816 43.8716 52.4713 44.0908 53.0829Z" fill="#F58B71"/>
<path fill-rule="evenodd" clip-rule="evenodd" d="M44.0908 53.0829C43.9593 55.2236 42.2495 56.8838 40.2328 56.8838C39.4875 56.8838 39.0053 56.5343 38.9614 55.7916C38.9614 55.0926 39.4437 54.8741 40.1013 54.8304C41.8111 54.6557 42.381 53.6946 41.5919 52.1655C41.285 51.5102 41.285 51.0296 41.9865 50.6801C42.6441 50.2869 43.1702 50.6364 43.4332 51.248C43.7401 51.816 43.8716 52.4713 44.0908 53.0829Z" stroke="#F58B71" stroke-width="0.0135276"/>
<path fill-rule="evenodd" clip-rule="evenodd" d="M38.6724 90.8175C44.459 93.0206 50.7888 94.235 57.4208 94.235C65.619 94.235 73.3788 92.3564 80.2179 89.0798C71.8443 95.3709 61.4541 99.128 50.1871 99.128C43.7629 99.128 37.6235 97.9158 31.9869 95.7088L38.6724 90.8175ZM24.6678 82.7316C14.2722 74.2241 7.70574 61.7397 7.70574 47.8383C7.70574 22.2372 29.9767 1.4417 57.4208 1.4417C59.4375 1.4417 61.4541 1.57277 63.427 1.79121C59.2183 0.611632 54.7466 0 50.1871 0C22.6992 0 0.428223 22.1935 0.428223 49.5859C0.428223 67.0346 9.49378 82.3849 23.1959 91.2117L24.6678 82.7316Z" fill="#F47D5C"/>
<path d="M28.7197 79.6123L21.793 102.068L40.1182 85.117L28.7197 79.6123Z" fill="#377044"/>
<path fill-rule="evenodd" clip-rule="evenodd" d="M16.0725 48.6488C16.0725 69.7501 33.2141 86.8321 54.3891 86.8321C68.0042 86.8321 79.9814 79.7406 86.779 69.0516H91.6668C84.4265 82.1537 70.4335 91.0262 54.3891 91.0262C30.8905 91.0262 11.8638 72.0656 11.8638 48.6488C11.8638 25.2321 30.8905 6.27148 54.3891 6.27148C70.434 6.27148 84.4273 15.1444 91.6674 28.2471H86.7797C79.9822 17.5575 68.0047 10.4655 54.3891 10.4655C33.2141 10.4655 16.0725 27.5475 16.0725 48.6488Z" fill="#377044"/>
<path d="M64.4486 39.4003C64.4486 39.6624 64.4924 39.8809 64.6678 40.0119C64.7993 40.143 65.0185 40.2304 65.2377 40.2304C65.4569 40.2304 65.6761 40.143 65.8076 40.0119C65.9391 39.8809 66.0268 39.6624 66.0268 39.4003C66.0268 39.1819 65.9391 38.9634 65.8076 38.8324C65.6323 38.6576 65.4569 38.6139 65.2377 38.6139C65.0185 38.6139 64.7993 38.6576 64.6678 38.8324C64.4924 38.9634 64.4486 39.1819 64.4486 39.4003ZM58.2671 42.5022C58.2671 41.6284 58.4425 40.842 58.7493 40.0993C59.0124 39.4003 59.4508 38.7887 59.9769 38.3081C60.5468 37.7839 61.2044 37.4344 61.9497 37.1285C62.695 36.8664 63.5718 36.7354 64.4924 36.7354C65.0623 36.7354 65.5884 36.8227 66.0268 36.9101C66.5091 37.0412 66.9036 37.2159 67.2544 37.478C67.6051 37.7402 67.8681 38.0023 68.0435 38.3518C68.2188 38.7013 68.3065 39.0945 68.3065 39.5751C68.3065 39.9683 68.2188 40.3178 68.0435 40.6673C67.912 40.9731 67.6489 41.2352 67.3859 41.4537C67.079 41.6721 66.7721 41.8032 66.4214 41.9342C66.0707 42.0216 65.6761 42.0653 65.2815 42.0653C64.887 42.0653 64.5363 42.0216 64.2294 41.9342C63.8786 41.8032 63.6156 41.6721 63.3526 41.4973C63.1334 41.2789 62.9142 41.0605 62.7826 40.7983C62.6511 40.4925 62.6073 40.1867 62.6073 39.8372C62.6073 39.6624 62.6073 39.4877 62.6511 39.3129C62.695 39.1819 62.7826 39.0071 62.8703 38.8761L62.7826 38.8324C62.2127 39.1819 61.7743 39.6624 61.4236 40.2741C61.1167 40.842 60.9413 41.6284 60.9413 42.5022C60.9413 43.3759 61.1167 44.1186 61.4236 44.7303C61.7743 45.3419 62.2127 45.8224 62.7826 46.1283L62.8265 45.9972C62.7388 45.8661 62.695 45.7351 62.6511 45.604C62.6073 45.4729 62.6073 45.2982 62.6073 45.1234C62.6073 44.7739 62.6511 44.4681 62.7826 44.206C62.9142 43.9439 63.1334 43.6817 63.3526 43.507C63.6156 43.2885 63.8786 43.1575 64.2294 43.0701C64.5363 42.939 64.887 42.8954 65.2815 42.8954C65.6761 42.8954 66.0707 42.939 66.4214 43.0701C66.7721 43.1575 67.079 43.3322 67.3859 43.507C67.6489 43.7254 67.912 43.9876 68.0435 44.3371C68.2188 44.6429 68.3065 44.9924 68.3065 45.4293C68.3065 45.8661 68.2188 46.2593 68.0435 46.6088C67.8243 46.9583 67.6051 47.2642 67.2544 47.4826C66.9036 47.7447 66.5091 47.9195 66.0268 48.0505C65.5884 48.1816 65.0623 48.2253 64.4924 48.2253C63.5718 48.2253 62.695 48.0942 61.9497 47.8321C61.2044 47.57 60.5468 47.1768 59.9769 46.6525C59.4508 46.172 59.0124 45.5603 58.7493 44.8613C58.4425 44.1623 58.2671 43.3759 58.2671 42.5022ZM64.4486 45.5166C64.4486 45.7788 64.4924 45.9972 64.6678 46.1283C64.7993 46.303 65.0185 46.3904 65.2377 46.3904C65.4569 46.3904 65.6323 46.303 65.8076 46.1283C65.9391 45.9972 66.0268 45.7788 66.0268 45.5166C66.0268 45.2982 65.9391 45.0798 65.8076 44.9487C65.6761 44.8176 65.4569 44.7303 65.2377 44.7303C65.0185 44.7303 64.7993 44.8176 64.6678 44.9487C64.4924 45.0798 64.4486 45.2982 64.4486 45.5166Z" fill="#377044"/>
<path d="M83.0728 43.0701C83.0728 43.9439 82.9851 44.6866 82.7659 45.2982C82.5467 45.9535 82.2398 46.4778 81.8453 46.871C81.4945 47.3078 81.0123 47.6136 80.4862 47.8321C79.9601 48.0505 79.3902 48.1379 78.7326 48.1379C78.2065 48.1379 77.6804 48.0942 77.242 47.9195C76.7598 47.7884 76.3652 47.5263 75.9706 47.2205C75.7076 47.4826 75.3569 47.701 74.9185 47.8758C74.4801 48.0505 73.9101 48.1379 73.2964 48.1379C72.858 48.1379 72.4196 48.0942 71.9812 47.9631C71.5427 47.8321 71.1482 47.6136 70.7975 47.3515C70.4467 47.0457 70.1399 46.6962 69.9207 46.2593C69.7015 45.7788 69.6138 45.2545 69.6138 44.6429C69.6138 44.0749 69.7015 43.5507 69.8768 43.1138C70.096 42.6769 70.3591 42.2837 70.7098 41.9779C71.0605 41.6721 71.4989 41.4536 71.9812 41.3226C72.4634 41.1478 72.9895 41.0605 73.6033 41.0605H74.4362C74.4362 40.4051 74.5239 39.7935 74.7869 39.2256C75.0061 38.7013 75.313 38.2644 75.7076 37.8712C76.1022 37.5217 76.5844 37.2159 77.1105 37.0412C77.5927 36.8227 78.1627 36.7354 78.7326 36.7354C79.3463 36.7354 79.8724 36.8227 80.3985 37.0412C80.9246 37.2159 81.363 37.5217 81.7576 37.8712C82.1521 38.2644 82.459 38.7013 82.7221 39.2256C82.9413 39.7935 83.0728 40.4051 83.0728 41.0605H83.8181C84.388 41.0605 84.9141 41.1478 85.3963 41.3226C85.9224 41.4536 86.317 41.6721 86.7115 41.9779C87.0623 42.2837 87.3253 42.6769 87.5007 43.1138C87.7199 43.5944 87.8076 44.1186 87.8076 44.6866C87.8076 45.2108 87.7199 45.6914 87.5884 46.1283C87.413 46.5651 87.1938 46.9146 86.9746 47.2205C86.7115 47.4826 86.4047 47.7447 86.0539 47.8758C85.7032 48.0505 85.3525 48.1379 84.9579 48.1379C83.9058 48.1379 83.3797 47.701 83.3797 46.7836C83.3797 46.5651 83.4235 46.3904 83.4674 46.1719C84.0811 46.1719 84.5195 46.0409 84.7826 45.7788C85.0456 45.5166 85.1771 45.1234 85.1771 44.6429C85.1771 44.1186 85.0456 43.7691 84.7826 43.4633C84.4757 43.2012 84.125 43.0701 83.6427 43.0701H83.0728ZM78.7326 45.9535C79.2587 45.9535 79.6971 45.7351 80.004 45.2982C80.3108 44.8613 80.4862 44.1186 80.4862 43.0701H77.0228C77.0228 44.1186 77.1543 44.8613 77.5051 45.2982C77.8119 45.7351 78.2065 45.9535 78.7326 45.9535ZM74.8746 45.6477C74.7431 45.2982 74.6116 44.9487 74.5239 44.5118C74.4801 44.0749 74.4362 43.638 74.4362 43.0701H73.7348C73.2964 43.0701 72.9018 43.2012 72.6388 43.4633C72.3319 43.7254 72.2004 44.1186 72.2004 44.5992C72.2004 45.0797 72.3319 45.4729 72.5949 45.6914C72.9018 45.9535 73.2525 46.0846 73.6471 46.0846C73.9101 46.0846 74.1293 46.0409 74.3485 45.9972C74.5239 45.9098 74.6993 45.7788 74.8746 45.6477ZM78.7326 38.9197C78.2503 38.9197 77.8558 39.0945 77.5051 39.444C77.1982 39.8372 77.0228 40.3614 77.0228 41.1041H80.4862C80.4424 40.3614 80.267 39.8372 79.9601 39.444C79.6094 39.0945 79.2148 38.9197 78.7326 38.9197Z" fill="#377044"/>
<path d="M101.583 39.0936C100.662 39.0936 99.961 39.3994 99.4349 39.9674C98.9089 40.579 98.6458 41.3654 98.6458 42.3702V43.9867C98.6458 44.642 98.5581 45.2536 98.3389 45.7779C98.1197 46.3021 97.8128 46.739 97.4183 47.0885C97.0237 47.438 96.5415 47.7001 96.0154 47.8749C95.4455 48.0496 94.8755 48.137 94.1741 48.137C93.4726 48.137 92.7712 48.0496 92.1574 47.7875C91.5437 47.5691 91.0176 47.2196 90.5792 46.739C90.1408 46.2584 89.79 45.6905 89.527 44.9915C89.3078 44.2488 89.1763 43.4187 89.1763 42.4576C89.1763 41.4964 89.3516 40.579 89.7024 39.7926C90.0092 38.9625 90.4915 38.3072 91.0176 37.783C91.2806 37.4771 91.5875 37.2587 91.8944 37.1276C92.2451 36.9529 92.552 36.8655 92.9466 36.8655C93.3411 36.8655 93.6918 36.9966 93.9987 37.3024C94.2618 37.5645 94.3933 37.8703 94.481 38.2198C93.6918 38.7004 93.1219 39.312 92.6835 40.011C92.2889 40.7537 92.0697 41.5838 92.0697 42.545C92.0697 43.5935 92.2451 44.4235 92.6397 44.9915C93.0342 45.5594 93.5165 45.8652 94.1741 45.8652C94.6563 45.8652 95.0947 45.6905 95.3578 45.341C95.6647 44.9915 95.7962 44.5109 95.7962 43.8993V42.2828C95.7962 41.4091 95.9277 40.6664 96.2346 39.9674C96.4976 39.312 96.8922 38.7004 97.4183 38.2635C97.9005 37.783 98.4705 37.4335 99.1719 37.1713C99.8734 36.9092 100.619 36.7781 101.452 36.7781C102.153 36.7781 102.811 36.9092 103.468 37.1276C103.512 36.9966 103.556 36.8218 103.6 36.6908C103.644 36.516 103.644 36.3413 103.644 36.1665C103.644 35.7733 103.512 35.5112 103.293 35.2927C103.074 35.0743 102.767 34.9869 102.416 34.9869C102.285 34.9869 102.109 35.0306 101.978 35.0743C101.802 35.118 101.671 35.1617 101.583 35.2054C101.452 35.118 101.408 34.9432 101.32 34.7685C101.276 34.5937 101.232 34.419 101.232 34.2442C101.232 33.8074 101.408 33.5015 101.758 33.2831C102.065 33.021 102.548 32.9336 103.161 32.9336C104.082 32.9336 104.783 33.1957 105.31 33.72C105.836 34.2442 106.099 34.9432 106.099 35.817C106.099 36.6908 105.836 37.5208 105.353 38.2635C105.792 38.6567 106.143 39.0499 106.449 39.4868C106.756 39.9674 106.976 40.4042 107.151 40.8848C107.326 41.3217 107.458 41.7586 107.545 42.1954C107.589 42.676 107.633 43.0692 107.633 43.4187C107.633 44.2488 107.545 44.9478 107.326 45.5594C107.151 46.1274 106.844 46.6516 106.493 47.0448C106.143 47.438 105.748 47.7438 105.266 47.9186C104.783 48.0933 104.257 48.1807 103.731 48.1807C103.161 48.1807 102.679 48.137 102.241 47.9623C101.758 47.7875 101.364 47.5691 101.057 47.2633C100.706 46.9574 100.443 46.5206 100.268 46.04C100.093 45.5594 100.005 45.0352 100.005 44.3798C100.005 43.3313 100.18 42.3702 100.575 41.5401C100.969 40.6664 101.495 39.88 102.197 39.1373C101.978 39.0936 101.802 39.0936 101.583 39.0936ZM104.915 43.4624C104.915 42.8508 104.827 42.2391 104.696 41.6712C104.52 41.0596 104.301 40.579 104.038 40.1858C103.644 40.7974 103.337 41.4528 103.074 42.1518C102.811 42.8945 102.679 43.6372 102.679 44.3798C102.679 45.472 103.03 46.04 103.731 46.04C104.17 46.04 104.433 45.7779 104.652 45.2973C104.827 44.8167 104.915 44.2051 104.915 43.4624Z" fill="#377044"/>
<path d="M118.203 48.1379C117.677 48.1379 117.151 48.0942 116.713 47.9195C116.23 47.7884 115.836 47.5263 115.441 47.2205C115.178 47.4826 114.784 47.701 114.345 47.8758C113.907 48.0505 113.381 48.1379 112.767 48.1379C112.329 48.1379 111.89 48.0942 111.452 47.9631C111.013 47.8321 110.619 47.6136 110.268 47.3515C109.917 47.0457 109.611 46.6962 109.391 46.2593C109.172 45.7788 109.084 45.2545 109.084 44.6429C109.084 44.0749 109.172 43.5507 109.348 43.1138C109.567 42.6769 109.83 42.2837 110.18 41.9779C110.531 41.6721 110.97 41.4536 111.452 41.3226C111.934 41.1478 112.46 41.0605 113.074 41.0605H113.907C113.907 40.4051 113.995 39.7935 114.258 39.2256C114.477 38.7013 114.784 38.2644 115.134 37.8712C115.529 37.5217 115.967 37.2159 116.45 37.0412C116.976 36.8227 117.502 36.7354 118.072 36.7354C118.905 36.7354 119.606 36.9101 120.22 37.2159C120.834 37.5654 121.316 38.0023 121.667 38.6576C122.149 38.0023 122.807 37.5217 123.552 37.2159C124.297 36.9538 125.086 36.779 125.919 36.779C126.84 36.779 127.717 36.9538 128.462 37.2159C129.251 37.5217 129.909 37.9149 130.479 38.4829C131.005 39.0071 131.443 39.6624 131.75 40.4488C132.057 41.2789 132.232 42.1527 132.232 43.1575C132.232 44.0312 132.101 44.8613 131.838 45.604C131.575 46.3904 131.268 47.002 130.829 47.4389C130.61 47.6573 130.391 47.8321 130.172 47.9631C129.909 48.0942 129.646 48.1379 129.339 48.1379C128.988 48.1379 128.681 48.0505 128.418 47.8321C128.155 47.6136 127.98 47.3515 127.892 47.0457C128.33 46.6088 128.681 46.0846 128.944 45.4292C129.207 44.8176 129.339 44.0749 129.339 43.2012C129.339 42.5022 129.251 41.8905 129.076 41.3663C128.857 40.842 128.637 40.4488 128.287 40.0993C127.98 39.7498 127.629 39.4877 127.191 39.3129C126.752 39.1819 126.27 39.0945 125.788 39.0945C125.042 39.0945 124.341 39.2693 123.815 39.6188C123.245 39.9683 122.807 40.4488 122.587 41.0605H123.376C123.99 41.0605 124.516 41.1478 124.999 41.3226C125.481 41.4536 125.919 41.6721 126.27 41.9779C126.621 42.2837 126.884 42.6769 127.103 43.1138C127.278 43.5507 127.366 44.0749 127.366 44.6429C127.366 45.2545 127.278 45.7788 127.059 46.2593C126.796 46.6962 126.533 47.0457 126.182 47.3515C125.788 47.6136 125.393 47.8321 124.955 47.9631C124.516 48.0942 124.122 48.1379 123.683 48.1379C123.026 48.1379 122.5 48.0505 122.061 47.8758C121.623 47.701 121.272 47.4826 120.965 47.2205C120.264 47.8321 119.343 48.1379 118.203 48.1379ZM118.203 45.9535C118.729 45.9535 119.168 45.7351 119.475 45.2982C119.782 44.8613 119.957 44.1186 119.957 43.0701H116.494C116.494 44.1186 116.625 44.8613 116.932 45.2982C117.239 45.7351 117.677 45.9535 118.203 45.9535ZM122.543 43.0701C122.543 43.5944 122.5 44.0749 122.412 44.4681C122.324 44.905 122.237 45.2982 122.061 45.6477C122.412 45.9535 122.807 46.0846 123.289 46.0846C123.727 46.0846 124.078 45.9535 124.385 45.6914C124.648 45.4729 124.779 45.0797 124.779 44.5992C124.779 44.1186 124.648 43.7254 124.341 43.4633C124.078 43.2012 123.683 43.0701 123.245 43.0701H122.543ZM114.345 45.6477C114.038 44.9487 113.907 44.1186 113.907 43.0701H113.205C112.767 43.0701 112.373 43.2012 112.109 43.4633C111.803 43.7254 111.671 44.1186 111.671 44.5992C111.671 45.0797 111.803 45.4729 112.066 45.6914C112.373 45.9535 112.723 46.0846 113.118 46.0846C113.381 46.0846 113.6 46.0409 113.819 45.9972C114.038 45.9098 114.214 45.7788 114.345 45.6477ZM118.203 38.9197C117.721 38.9197 117.326 39.0945 116.976 39.444C116.669 39.8372 116.494 40.3614 116.494 41.1041H119.957C119.913 40.3614 119.738 39.8372 119.431 39.444C119.08 39.0945 118.686 38.9197 118.203 38.9197Z" fill="#377044"/>
<path d="M132.465 48.7461C132.465 47.9598 132.684 47.3044 133.122 46.7365C133.517 46.2122 134.131 45.8191 134.832 45.6006C135.008 45.3385 135.139 45.0327 135.271 44.6832C135.446 44.3337 135.534 43.9405 135.665 43.5473C135.753 43.1541 135.841 42.7609 135.928 42.324C135.972 41.9308 136.016 41.4939 136.016 41.1444C136.016 40.4017 135.884 39.8338 135.621 39.528C135.358 39.1785 135.008 39.0037 134.569 39.0037C134.394 39.0037 134.218 39.0474 134.043 39.0474C133.912 39.0911 133.78 39.1785 133.605 39.2222C133.517 39.0911 133.429 38.9164 133.342 38.7416C133.298 38.5669 133.254 38.3921 133.254 38.1737C133.254 37.9115 133.298 37.7368 133.429 37.562C133.517 37.3873 133.692 37.2562 133.868 37.1252C134.043 37.0378 134.262 36.9504 134.482 36.9067C134.745 36.8193 134.964 36.8193 135.183 36.8193C135.665 36.8193 136.104 36.9067 136.498 37.0378C136.937 37.2125 137.287 37.431 137.594 37.7805C137.901 38.0863 138.164 38.5232 138.339 39.0474C138.515 39.528 138.603 40.1396 138.603 40.8386C138.603 41.6687 138.515 42.5425 138.296 43.3725C138.076 44.2026 137.813 44.9453 137.419 45.6006C138.164 45.8191 138.734 46.2122 139.172 46.7365C139.567 47.3044 139.786 47.9598 139.786 48.7461C139.786 49.2267 139.699 49.7073 139.523 50.1005C139.348 50.4937 139.129 50.8869 138.778 51.149C138.471 51.4548 138.076 51.6732 137.638 51.848C137.2 52.0227 136.674 52.1101 136.147 52.1101C135.578 52.1101 135.095 52.0227 134.657 51.848C134.175 51.6732 133.78 51.4548 133.473 51.149C133.166 50.8869 132.903 50.4937 132.728 50.1005C132.553 49.7073 132.465 49.2267 132.465 48.7461ZM134.92 48.7461C134.92 49.1393 135.051 49.4888 135.271 49.7073C135.534 49.9694 135.797 50.0568 136.147 50.0568C136.498 50.0568 136.761 49.9694 136.98 49.7073C137.2 49.4888 137.331 49.1393 137.331 48.7461C137.331 48.3093 137.2 48.0035 136.98 47.7413C136.761 47.4792 136.498 47.3918 136.147 47.3918C135.797 47.3918 135.534 47.4792 135.271 47.7413C135.051 48.0035 134.92 48.3093 134.92 48.7461Z" fill="#377044"/>
<path d="M153.798 43.0701C153.798 43.9439 153.711 44.6866 153.491 45.2982C153.272 45.9535 152.965 46.4778 152.571 46.871C152.176 47.3078 151.738 47.6136 151.212 47.8321C150.686 48.0505 150.116 48.1379 149.458 48.1379C148.932 48.1379 148.406 48.0942 147.967 47.9195C147.485 47.7884 147.047 47.5263 146.696 47.2205C146.433 47.4826 146.039 47.701 145.644 47.8758C145.206 48.0505 144.636 48.1379 144.022 48.1379C143.583 48.1379 143.145 48.0942 142.707 47.9631C142.268 47.8321 141.874 47.6136 141.523 47.3515C141.172 47.0457 140.865 46.6962 140.646 46.2593C140.427 45.7788 140.295 45.2545 140.295 44.6429C140.295 44.0749 140.427 43.5507 140.602 43.1138C140.821 42.6769 141.085 42.2837 141.435 41.9779C141.786 41.6721 142.224 41.4536 142.707 41.3226C143.189 41.1478 143.715 41.0605 144.329 41.0605H145.162C145.162 40.4051 145.249 39.7935 145.512 39.2256C145.732 38.7013 146.039 38.2644 146.433 37.8712C146.828 37.5217 147.31 37.2159 147.836 37.0412C148.318 36.8227 148.888 36.7354 149.458 36.7354C150.072 36.7354 150.598 36.8227 151.124 37.0412C151.65 37.2159 152.088 37.5217 152.483 37.8712C152.878 38.2644 153.184 38.7013 153.448 39.2256C153.667 39.7935 153.798 40.4051 153.798 41.0605H154.5C155.113 41.0605 155.64 41.1478 156.122 41.3226C156.648 41.4536 157.042 41.6721 157.393 41.9779C157.788 42.2837 158.051 42.6769 158.226 43.1138C158.445 43.5944 158.533 44.1186 158.533 44.6866C158.533 45.2108 158.445 45.6914 158.314 46.1283C158.138 46.5651 157.919 46.9146 157.656 47.2205C157.393 47.4826 157.13 47.7447 156.779 47.8758C156.429 48.0505 156.078 48.1379 155.683 48.1379C154.631 48.1379 154.105 47.701 154.105 46.7836C154.105 46.5651 154.149 46.3904 154.193 46.1719C154.807 46.1719 155.201 46.0409 155.508 45.7788C155.771 45.5166 155.903 45.1234 155.903 44.6429C155.903 44.1186 155.771 43.7691 155.464 43.4633C155.201 43.2012 154.85 43.0701 154.368 43.0701H153.798ZM149.458 45.9535C149.984 45.9535 150.423 45.7351 150.729 45.2982C151.036 44.8613 151.168 44.1186 151.168 43.0701H147.748C147.748 44.1186 147.88 44.8613 148.187 45.2982C148.537 45.7351 148.932 45.9535 149.458 45.9535ZM145.6 45.6477C145.469 45.2982 145.337 44.9487 145.249 44.5118C145.206 44.0749 145.162 43.638 145.162 43.0701H144.46C143.978 43.0701 143.627 43.2012 143.364 43.4633C143.057 43.7254 142.926 44.1186 142.926 44.5992C142.926 45.0797 143.057 45.4729 143.32 45.6914C143.627 45.9535 143.978 46.0846 144.373 46.0846C144.636 46.0846 144.855 46.0409 145.03 45.9972C145.249 45.9098 145.425 45.7788 145.6 45.6477ZM149.458 38.9197C148.976 38.9197 148.581 39.0945 148.231 39.444C147.924 39.8372 147.748 40.3614 147.748 41.1041H151.168C151.168 40.3614 150.992 39.8372 150.686 39.444C150.335 39.0945 149.94 38.9197 149.458 38.9197Z" fill="#377044"/>
<path d="M76.4658 58.5679C76.4658 57.9126 76.2905 57.432 75.8959 57.0388C75.4575 56.6893 74.9752 56.5145 74.3615 56.5145C73.8354 56.5145 73.397 56.6456 73.0462 56.9077C72.6955 57.1262 72.4763 57.432 72.3448 57.7815V57.8252C72.4763 57.7378 72.6517 57.6067 72.827 57.5194C73.0462 57.432 73.2655 57.3883 73.5285 57.3883C73.7915 57.3883 74.0107 57.432 74.2299 57.5194C74.493 57.6067 74.6684 57.7378 74.8437 57.9126C74.9752 58.0436 75.1068 58.2621 75.1944 58.4805C75.2821 58.6989 75.326 58.9174 75.326 59.1795C75.326 59.4853 75.2821 59.7474 75.1944 59.9659C75.0629 60.228 74.9314 60.4028 74.7122 60.5775C74.5368 60.7523 74.3176 60.8833 74.0546 60.9707C73.7477 61.0581 73.4847 61.1018 73.1339 61.1018C72.4763 61.1018 71.9502 60.8833 71.5557 60.4901C71.1173 60.0533 70.9419 59.4416 70.9419 58.6116C70.9419 58.131 70.9857 57.6941 71.1611 57.3009C71.3365 56.9077 71.5557 56.5582 71.8625 56.2524C72.1694 55.9903 72.5202 55.7282 72.9586 55.5971C73.397 55.4223 73.8354 55.335 74.3615 55.335C74.9752 55.335 75.5452 55.466 76.0274 55.6845C76.4658 55.9029 76.8604 56.2087 77.1234 56.6456C77.255 56.4272 77.3865 56.2524 77.518 56.0777C77.6934 55.9029 77.8687 55.7718 78.0879 55.6408C78.2633 55.5534 78.4825 55.466 78.7017 55.4223C78.9647 55.3786 79.1839 55.335 79.4032 55.335C79.8416 55.335 80.2361 55.4223 80.6307 55.5534C80.9814 55.7282 81.2883 55.9466 81.5513 56.2524C81.8144 56.5145 82.0336 56.9077 82.1651 57.3446C82.3405 57.7378 82.4282 58.2621 82.4282 58.83C82.4282 59.4416 82.2966 60.0096 82.1213 60.5338C81.9021 61.0144 81.639 61.4513 81.2883 61.8445C80.8937 62.194 80.4553 62.4561 79.9292 62.6745C79.4032 62.8493 78.7894 62.9367 78.1318 62.9367H73.1339C72.9147 62.9367 72.7832 63.0241 72.6517 63.1114C72.564 63.1988 72.5202 63.3299 72.5202 63.4609C72.5202 63.6357 72.564 63.7667 72.6517 63.8541C72.7832 63.9415 72.9147 64.0289 73.1339 64.0289H81.376C81.5952 64.0289 81.7706 64.0726 81.9021 64.1599C82.0336 64.2473 82.0774 64.4221 82.0774 64.6842C82.0774 64.7716 82.0774 64.9026 82.0336 64.99C81.9898 65.0774 81.9459 65.1648 81.9021 65.2085H73.0024C72.3886 65.2085 71.8625 65.0774 71.5118 64.7716C71.1173 64.4658 70.9419 64.0289 70.9419 63.5046C70.9419 62.9367 71.1173 62.5435 71.5118 62.2377C71.8625 61.9318 72.3886 61.8008 73.0024 61.8008H77.8687C78.8332 61.8008 79.5347 61.495 80.0608 60.9707C80.543 60.4465 80.8061 59.7474 80.8061 58.7863C80.8061 58.0873 80.6745 57.563 80.3676 57.1699C80.1046 56.8204 79.71 56.6456 79.2716 56.6456C78.9209 56.6456 78.614 56.7767 78.3948 57.0388C78.1318 57.2572 78.0441 57.6504 78.0441 58.131V60.6649C77.8249 60.796 77.5618 60.8833 77.255 60.8833C76.9042 60.8833 76.6412 60.796 76.4658 60.6649V58.5679ZM72.3448 59.1795C72.3448 59.4416 72.4325 59.6164 72.564 59.7911C72.6955 59.9222 72.9147 60.0096 73.1339 60.0096C73.397 60.0096 73.5723 59.9222 73.7039 59.7911C73.8792 59.6164 73.9231 59.4416 73.9231 59.1795C73.9231 58.9174 73.8792 58.7426 73.7039 58.6116C73.5723 58.4368 73.397 58.3931 73.1339 58.3931C72.9147 58.3931 72.6955 58.4368 72.564 58.6116C72.4325 58.7426 72.3448 58.9174 72.3448 59.1795Z" fill="#373435"/>
<path d="M86.9876 55.335C87.5137 55.335 87.996 55.4223 88.4344 55.6845C88.8728 55.9029 89.1797 56.2524 89.3989 56.6893C89.7057 56.2524 90.0565 55.9029 90.5387 55.6845C91.0209 55.466 91.5032 55.335 92.0731 55.335C92.7746 55.335 93.3883 55.5097 94.0021 55.8155C94.2651 55.6845 94.572 55.5534 94.8789 55.466C95.2296 55.3786 95.5803 55.335 95.9311 55.335C96.5448 55.335 97.0709 55.4223 97.5532 55.6408C98.0354 55.8155 98.4738 56.1213 98.8245 56.4708C99.1314 56.8204 99.4383 57.2572 99.6137 57.7815C99.789 58.3057 99.8767 58.9174 99.8767 59.5727C99.8767 60.1843 99.789 60.7086 99.6575 61.2328C99.4821 61.7571 99.2629 62.1503 98.9999 62.4561C98.8684 62.6309 98.693 62.8056 98.5177 62.893C98.3423 62.9804 98.1669 63.0241 97.9916 63.0241C97.7724 63.0241 97.597 62.9804 97.4216 62.8493C97.2901 62.7182 97.2024 62.5872 97.1586 62.3687C97.4216 62.1066 97.6847 61.7571 97.9039 61.2765C98.1669 60.8397 98.2546 60.2717 98.2546 59.6164C98.2546 59.1358 98.2108 58.6989 98.0793 58.3494C97.9916 57.9562 97.8162 57.6504 97.597 57.3883C97.3778 57.1262 97.1148 56.9077 96.8079 56.7767C96.501 56.6019 96.1503 56.5582 95.7557 56.5582C95.6242 56.5582 95.4927 56.5582 95.405 56.5582C95.2735 56.5582 95.1419 56.6019 95.0543 56.6019C95.4927 56.9951 95.8872 57.4757 96.1503 58.0436C96.4133 58.6553 96.5448 59.3106 96.5448 60.0533C96.5448 61.0144 96.3256 61.7571 95.8872 62.2814C95.4488 62.8056 94.7912 63.0677 93.9583 63.0677C93.1253 63.0677 92.4677 62.8056 92.0731 62.2814C91.6347 61.7571 91.4155 61.0144 91.4155 60.0096C91.4155 59.3106 91.547 58.6553 91.8101 58.0436C92.0731 57.4757 92.4238 56.9951 92.9061 56.6019C92.7746 56.6019 92.6869 56.5582 92.5554 56.5582C92.4238 56.5582 92.3362 56.5582 92.2046 56.5582C91.9416 56.5582 91.6347 56.6019 91.4155 56.6893C91.1525 56.8204 90.8894 56.9514 90.7141 57.1262C90.4949 57.3446 90.3633 57.5631 90.2318 57.8689C90.1441 58.131 90.0565 58.4805 90.0565 58.83V62.893C90.0126 62.9367 89.8811 62.9367 89.7496 62.9804C89.6181 63.0241 89.4865 63.0241 89.3112 63.0241C89.0481 63.0241 88.8289 62.9804 88.6974 62.8493C88.5659 62.7619 88.4782 62.5435 88.4782 62.2377V58.131C88.4782 57.6941 88.3467 57.3446 88.1275 57.0388C87.8644 56.7767 87.5576 56.6456 87.1192 56.6456C86.5931 56.6456 86.1547 56.864 85.8039 57.3009C85.4532 57.7378 85.3217 58.3931 85.3217 59.1795C85.3217 59.8785 85.4532 60.4901 85.7601 61.0144C86.0231 61.495 86.4615 61.9319 86.9438 62.2814C86.9438 62.4561 86.8561 62.6309 86.6807 62.8056C86.5492 62.9367 86.3739 63.0241 86.1108 63.0241C85.8916 63.0241 85.6724 62.9804 85.4971 62.893C85.3217 62.8056 85.1463 62.6745 84.971 62.4998C84.5764 62.1503 84.2695 61.6697 84.0065 61.1018C83.7873 60.5338 83.6558 59.8785 83.6558 59.1795C83.6558 58.5679 83.7434 58.0436 83.9188 57.5631C84.0942 57.0825 84.3134 56.6456 84.6203 56.3398C84.9271 55.9903 85.2779 55.7718 85.6724 55.5971C86.067 55.4223 86.5054 55.335 86.9876 55.335ZM95.0104 60.0533C95.0104 59.3979 94.9227 58.83 94.7035 58.3494C94.5282 57.8689 94.2651 57.4757 93.9583 57.1699C93.6514 57.4757 93.4322 57.8689 93.2568 58.3494C93.0376 58.83 92.9499 59.3979 92.9499 60.0533C92.9499 60.5775 93.0376 61.0144 93.213 61.3639C93.3883 61.6697 93.6514 61.8445 93.9583 61.8445C94.309 61.8445 94.572 61.6697 94.7474 61.3639C94.9227 61.0144 95.0104 60.5775 95.0104 60.0533Z" fill="#373435"/>
<path d="M103.634 55.7282C103.458 56.034 103.283 56.4272 103.151 56.9077C103.02 57.3883 102.932 57.9562 102.932 58.6116C102.932 59.1358 102.976 59.6164 103.064 60.0969C103.151 60.5338 103.283 60.9707 103.371 61.4076C103.458 61.8008 103.59 62.2377 103.678 62.6308C103.765 63.024 103.809 63.4609 103.809 63.8978C103.809 64.291 103.765 64.6405 103.634 64.9463C103.502 65.2521 103.327 65.4706 103.108 65.689C102.888 65.8638 102.625 66.0385 102.318 66.1259C102.012 66.2133 101.661 66.257 101.31 66.257C100.959 66.257 100.609 66.2133 100.346 66.1259C100.039 66.0385 99.7757 65.9511 99.5565 65.7764C99.3373 65.6016 99.2058 65.4269 99.0743 65.2084C98.9428 64.9463 98.8989 64.7279 98.8989 64.4657C98.8989 64.2036 98.9866 63.9852 99.1181 63.8104C99.2497 63.6794 99.4689 63.592 99.7319 63.592C99.8634 63.592 99.9511 63.592 100.083 63.6357C100.17 63.6794 100.214 63.6794 100.302 63.723V63.9852C100.302 64.3347 100.39 64.5968 100.565 64.7716C100.74 64.9463 101.003 65.0337 101.266 65.0337C101.529 65.0337 101.792 64.9463 101.968 64.7716C102.187 64.5968 102.275 64.291 102.275 63.8978C102.275 63.5483 102.231 63.1988 102.143 62.8056C102.055 62.4124 101.924 62.0192 101.836 61.5823C101.705 61.1455 101.617 60.7086 101.529 60.1843C101.442 59.7038 101.354 59.1358 101.354 58.5242C101.354 58.0873 101.398 57.6504 101.486 57.2135C101.573 56.7767 101.705 56.3835 101.924 55.9903C102.055 55.7718 102.187 55.5971 102.318 55.5097C102.45 55.3786 102.625 55.335 102.845 55.335C103.02 55.335 103.195 55.3786 103.327 55.466C103.458 55.5097 103.546 55.6408 103.634 55.7282Z" fill="#373435"/>
</svg>
