<svg width="148" height="103" viewBox="0 0 148 103" fill="none" xmlns="http://www.w3.org/2000/svg">
<path fill-rule="evenodd" clip-rule="evenodd" d="M40.2722 55.6066C40.2722 58.1405 40.2283 60.7181 40.2722 63.252C40.2722 64.3005 40.0968 65.1742 39.0008 65.5674C37.9048 65.9606 37.1595 65.4364 36.458 64.6937C35.5812 63.6888 34.7483 62.6403 33.7399 61.7666C33.3015 61.4171 32.4247 61.1986 31.8986 61.3734C31.4602 61.5044 31.0218 62.2908 30.978 62.8151C30.9341 63.2956 31.4164 63.8636 31.7671 64.3005C34.3099 67.1839 36.8088 70.0673 38.2993 73.6934C38.9569 75.3535 40.316 76.3583 42.1135 76.5768C43.2095 76.7515 44.3932 76.8389 45.533 76.8389C49.3471 76.7952 52.2844 74.6982 52.6352 70.941C53.0736 66.6159 52.8982 62.2471 52.8982 57.8783C52.8982 57.0046 52.1529 56.4803 51.2761 56.4803C50.4431 56.4803 49.8294 57.0483 49.6979 57.922C49.6102 58.5773 49.7417 59.32 49.6102 60.019C49.5663 60.3686 49.2594 60.9802 48.9964 61.0239C48.2511 61.1112 48.2511 60.4559 48.2511 59.9317C48.2511 58.3589 48.295 56.7861 48.2511 55.2134C48.2073 53.9027 47.2428 53.1163 46.1468 53.4222C45.27 53.728 44.9631 54.3833 44.9631 55.2134C44.9631 56.8735 44.9631 58.49 44.9192 60.1064C44.9192 60.4122 44.7 60.7617 44.4808 61.0239C44.437 61.1112 43.9548 61.0239 43.9109 60.9365C43.7356 60.587 43.604 60.1938 43.604 59.8443C43.5602 56.3493 43.5602 52.8979 43.5602 49.4466C43.5602 48.6602 43.7356 47.8301 43.5164 47.1311C43.341 46.5632 42.7711 45.8641 42.245 45.6894C41.8066 45.5146 41.0174 45.9078 40.6667 46.301C40.3598 46.6505 40.2722 47.3495 40.2722 47.8738C40.2283 50.4514 40.2722 53.029 40.2722 55.6066ZM44.9631 52.2426C47.8566 51.5436 49.2156 52.4173 49.7855 55.3444C50.0486 55.3007 50.2678 55.2134 50.487 55.1697C52.5036 54.6891 54.3449 55.9998 54.3449 58.1405C54.3888 62.2471 54.4326 66.3538 54.2134 70.4168C53.9942 74.6982 50.9692 77.5816 46.7605 78.1496C44.7 78.4117 42.6834 78.3243 40.7106 77.7127C39.1761 77.2321 37.8609 76.271 37.2472 74.7856C35.6689 71.0284 33.1262 67.9266 30.4081 64.9558C29.1805 63.5578 29.2244 61.6355 30.4957 60.4996C31.8548 59.32 33.7399 59.4948 35.0113 60.9365C35.8443 61.8539 36.6772 62.7714 37.5541 63.6888C37.8171 63.9073 38.1678 64.0383 38.4747 64.2131C38.6062 63.8636 38.8693 63.5141 38.8693 63.1646C38.9131 58.9705 38.9131 54.7328 38.9131 50.5388C38.9131 49.3592 38.8693 48.1796 38.9131 47C38.9569 45.3836 40.2283 44.204 41.8504 44.1603C43.4725 44.1166 44.8316 45.3399 44.9192 47C44.9631 47.8738 44.9631 48.7476 44.9631 49.6213C44.9631 50.4951 44.9631 51.3251 44.9631 52.2426Z" fill="#F58B71"/>
<path fill-rule="evenodd" clip-rule="evenodd" d="M40.2722 55.6066C40.2722 58.1405 40.2283 60.7181 40.2722 63.252C40.2722 64.3005 40.0968 65.1742 39.0008 65.5674C37.9048 65.9606 37.1595 65.4364 36.458 64.6937C35.5812 63.6888 34.7483 62.6403 33.7399 61.7666C33.3015 61.4171 32.4247 61.1986 31.8986 61.3734C31.4602 61.5044 31.0218 62.2908 30.978 62.8151C30.9341 63.2956 31.4164 63.8636 31.7671 64.3005C34.3099 67.1839 36.8088 70.0673 38.2993 73.6934C38.9569 75.3535 40.316 76.3583 42.1135 76.5768C43.2095 76.7515 44.3932 76.8389 45.533 76.8389C49.3471 76.7952 52.2844 74.6982 52.6352 70.941C53.0736 66.6159 52.8982 62.2471 52.8982 57.8783C52.8982 57.0046 52.1529 56.4803 51.2761 56.4803C50.4431 56.4803 49.8294 57.0483 49.6979 57.922C49.6102 58.5773 49.7417 59.32 49.6102 60.019C49.5663 60.3686 49.2594 60.9802 48.9964 61.0239C48.2511 61.1112 48.2511 60.4559 48.2511 59.9317C48.2511 58.3589 48.295 56.7861 48.2511 55.2134C48.2073 53.9027 47.2428 53.1163 46.1468 53.4222C45.27 53.728 44.9631 54.3833 44.9631 55.2134C44.9631 56.8735 44.9631 58.49 44.9192 60.1064C44.9192 60.4122 44.7 60.7617 44.4808 61.0239C44.437 61.1112 43.9548 61.0239 43.9109 60.9365C43.7356 60.587 43.604 60.1938 43.604 59.8443C43.5602 56.3493 43.5602 52.8979 43.5602 49.4466C43.5602 48.6602 43.7356 47.8301 43.5164 47.1311C43.341 46.5632 42.7711 45.8641 42.245 45.6894C41.8066 45.5146 41.0174 45.9078 40.6667 46.301C40.3598 46.6505 40.2722 47.3495 40.2722 47.8738C40.2283 50.4514 40.2722 53.029 40.2722 55.6066ZM44.9631 52.2426C47.8566 51.5436 49.2156 52.4173 49.7855 55.3444C50.0486 55.3007 50.2678 55.2134 50.487 55.1697C52.5036 54.6891 54.3449 55.9998 54.3449 58.1405C54.3888 62.2471 54.4326 66.3538 54.2134 70.4168C53.9942 74.6982 50.9692 77.5816 46.7605 78.1496C44.7 78.4117 42.6834 78.3243 40.7106 77.7127C39.1761 77.2321 37.8609 76.271 37.2472 74.7856C35.6689 71.0284 33.1262 67.9266 30.4081 64.9558C29.1805 63.5578 29.2244 61.6355 30.4957 60.4996C31.8548 59.32 33.7399 59.4948 35.0113 60.9365C35.8443 61.8539 36.6772 62.7714 37.5541 63.6888C37.8171 63.9073 38.1678 64.0383 38.4747 64.2131C38.6062 63.8636 38.8693 63.5141 38.8693 63.1646C38.9131 58.9705 38.9131 54.7328 38.9131 50.5388C38.9131 49.3592 38.8693 48.1796 38.9131 47C38.9569 45.3836 40.2283 44.204 41.8504 44.1603C43.4725 44.1166 44.8316 45.3399 44.9192 47C44.9631 47.8738 44.9631 48.7476 44.9631 49.6213C44.9631 50.4951 44.9631 51.3251 44.9631 52.2426Z" stroke="#F58B71" stroke-width="0.0135276"/>
<path fill-rule="evenodd" clip-rule="evenodd" d="M23.2645 36.32C26.3772 36.2763 26.2456 36.2326 26.2018 39.2471C26.2018 40.6888 26.0264 40.8636 24.5358 40.9072C23.5713 40.9072 22.563 40.9072 21.5547 40.8636C21.3355 40.8636 21.0724 40.9509 20.8971 40.8199C19.4503 40.0335 20.2394 38.6355 20.1079 37.4559C20.0202 36.6695 20.634 36.32 21.3793 36.32C22.0369 36.32 22.6507 36.32 23.2645 36.32Z" fill="#F58B71"/>
<path fill-rule="evenodd" clip-rule="evenodd" d="M23.2645 36.32C26.3772 36.2763 26.2456 36.2326 26.2018 39.2471C26.2018 40.6888 26.0264 40.8636 24.5358 40.9072C23.5713 40.9072 22.563 40.9072 21.5547 40.8636C21.3355 40.8636 21.0724 40.9509 20.8971 40.8199C19.4503 40.0335 20.2394 38.6355 20.1079 37.4559C20.0202 36.6695 20.634 36.32 21.3793 36.32C22.0369 36.32 22.6507 36.32 23.2645 36.32Z" stroke="#F58B71" stroke-width="0.0135276"/>
<path fill-rule="evenodd" clip-rule="evenodd" d="M32.4623 40.9162C29.1743 40.9162 29.525 41.091 29.525 37.9018C29.525 36.5911 29.7442 36.329 31.0594 36.329C32.1116 36.2853 33.2076 36.329 34.2597 36.329C35.1804 36.329 35.6188 36.7222 35.575 37.6833C35.5311 38.2513 35.575 38.8629 35.575 39.4308C35.5311 40.6541 35.3119 40.8725 34.0405 40.9162C33.5145 40.9162 32.9884 40.9162 32.4623 40.9162Z" fill="#F58B71"/>
<path fill-rule="evenodd" clip-rule="evenodd" d="M32.4623 40.9162C29.1743 40.9162 29.525 41.091 29.525 37.9018C29.525 36.5911 29.7442 36.329 31.0594 36.329C32.1116 36.2853 33.2076 36.329 34.2597 36.329C35.1804 36.329 35.6188 36.7222 35.575 37.6833C35.5311 38.2513 35.575 38.8629 35.575 39.4308C35.5311 40.6541 35.3119 40.8725 34.0405 40.9162C33.5145 40.9162 32.9884 40.9162 32.4623 40.9162Z" stroke="#F58B71" stroke-width="0.0135276"/>
<path fill-rule="evenodd" clip-rule="evenodd" d="M41.792 40.9359C38.5917 40.9359 38.8986 41.1106 38.8986 37.9651C38.8986 36.5671 39.1178 36.3486 40.5645 36.3486C41.6166 36.3486 42.625 36.3486 43.6771 36.3486C44.4662 36.3486 44.9485 36.6981 44.9046 37.5282C44.9046 38.2272 44.9485 38.9262 44.9485 39.6252C44.9485 40.5427 44.4662 40.9796 43.5456 40.9359C42.9757 40.8922 42.3619 40.9359 41.792 40.9359Z" fill="#F58B71"/>
<path fill-rule="evenodd" clip-rule="evenodd" d="M41.792 40.9359C38.5917 40.9359 38.8986 41.1106 38.8986 37.9651C38.8986 36.5671 39.1178 36.3486 40.5645 36.3486C41.6166 36.3486 42.625 36.3486 43.6771 36.3486C44.4662 36.3486 44.9485 36.6981 44.9046 37.5282C44.9046 38.2272 44.9485 38.9262 44.9485 39.6252C44.9485 40.5427 44.4662 40.9796 43.5456 40.9359C42.9757 40.8922 42.3619 40.9359 41.792 40.9359Z" stroke="#F58B71" stroke-width="0.0135276"/>
<path fill-rule="evenodd" clip-rule="evenodd" d="M23.1413 48.6736H23.0098C19.8094 48.7173 20.0725 48.9357 20.1163 45.3096C20.1163 44.6106 20.5109 44.1737 21.3 44.1737C22.5275 44.1737 23.7989 44.13 25.0264 44.1737C26.1224 44.1737 26.254 44.5669 26.254 47.1882C26.2101 48.0183 26.1224 48.7173 25.0264 48.6736C24.3688 48.6736 23.7551 48.6736 23.1413 48.6736Z" fill="#F58B71"/>
<path fill-rule="evenodd" clip-rule="evenodd" d="M23.1413 48.6736H23.0098C19.8094 48.7173 20.0725 48.9357 20.1163 45.3096C20.1163 44.6106 20.5109 44.1737 21.3 44.1737C22.5275 44.1737 23.7989 44.13 25.0264 44.1737C26.1224 44.1737 26.254 44.5669 26.254 47.1882C26.2101 48.0183 26.1224 48.7173 25.0264 48.6736C24.3688 48.6736 23.7551 48.6736 23.1413 48.6736Z" stroke="#F58B71" stroke-width="0.0135276"/>
<path fill-rule="evenodd" clip-rule="evenodd" d="M23.0381 56.4279C22.512 56.4279 21.942 56.3843 21.3721 56.4279C20.4076 56.5153 20.0569 55.9911 20.0569 55.1173C20.0569 51.666 19.8377 51.9718 23.0381 51.9718C23.6957 51.9718 24.3533 51.9718 25.0109 51.9718C25.8877 51.9718 26.2384 52.365 26.1946 53.195C26.1946 56.7338 26.633 56.4716 23.0381 56.4279Z" fill="#F58B71"/>
<path fill-rule="evenodd" clip-rule="evenodd" d="M23.0381 56.4279C22.512 56.4279 21.942 56.3843 21.3721 56.4279C20.4076 56.5153 20.0569 55.9911 20.0569 55.1173C20.0569 51.666 19.8377 51.9718 23.0381 51.9718C23.6957 51.9718 24.3533 51.9718 25.0109 51.9718C25.8877 51.9718 26.2384 52.365 26.1946 53.195C26.1946 56.7338 26.633 56.4716 23.0381 56.4279Z" stroke="#F58B71" stroke-width="0.0135276"/>
<path fill-rule="evenodd" clip-rule="evenodd" d="M32.4659 48.6578C29.3532 48.6578 29.4848 49.051 29.5286 45.7744C29.5286 44.4201 29.7478 44.1579 31.1069 44.1143C32.1591 44.1143 33.2112 44.1143 34.3072 44.1579C35.1402 44.1579 35.6225 44.5074 35.5786 45.4249C35.5348 46.0365 35.5348 46.6482 35.5786 47.3035C35.6663 48.352 35.1402 48.7452 34.1319 48.7015C33.562 48.6578 32.992 48.6578 32.4659 48.6578Z" fill="#F58B71"/>
<path fill-rule="evenodd" clip-rule="evenodd" d="M32.4659 48.6578C29.3532 48.6578 29.4848 49.051 29.5286 45.7744C29.5286 44.4201 29.7478 44.1579 31.1069 44.1143C32.1591 44.1143 33.2112 44.1143 34.3072 44.1579C35.1402 44.1579 35.6225 44.5074 35.5786 45.4249C35.5348 46.0365 35.5348 46.6482 35.5786 47.3035C35.6663 48.352 35.1402 48.7452 34.1319 48.7015C33.562 48.6578 32.992 48.6578 32.4659 48.6578Z" stroke="#F58B71" stroke-width="0.0135276"/>
<path fill-rule="evenodd" clip-rule="evenodd" d="M32.4623 56.4319C29.1743 56.4756 29.525 56.6504 29.525 53.5485C29.525 52.1068 29.6565 51.9758 31.1471 51.9758C32.1116 51.9758 33.1199 51.9758 34.1283 51.9758C34.3475 51.9758 34.6105 51.9321 34.7859 52.0195C36.3641 52.8058 35.3119 54.2475 35.5311 55.3834C35.7065 56.0824 35.1366 56.4319 34.4351 56.4319C33.7775 56.4319 33.1199 56.4319 32.4623 56.4319Z" fill="#F58B71"/>
<path fill-rule="evenodd" clip-rule="evenodd" d="M32.4623 56.4319C29.1743 56.4756 29.525 56.6504 29.525 53.5485C29.525 52.1068 29.6565 51.9758 31.1471 51.9758C32.1116 51.9758 33.1199 51.9758 34.1283 51.9758C34.3475 51.9758 34.6105 51.9321 34.7859 52.0195C36.3641 52.8058 35.3119 54.2475 35.5311 55.3834C35.7065 56.0824 35.1366 56.4319 34.4351 56.4319C33.7775 56.4319 33.1199 56.4319 32.4623 56.4319Z" stroke="#F58B71" stroke-width="0.0135276"/>
<path fill-rule="evenodd" clip-rule="evenodd" d="M38.7035 90.8316C44.486 93.0258 50.8111 94.235 57.4395 94.235C65.6376 94.235 73.3536 92.3564 80.1927 89.0798C71.863 95.3709 61.4728 99.128 50.1619 99.128C43.7571 99.128 37.634 97.9193 32.0101 95.7183L38.7035 90.8316ZM24.6771 82.7541C14.2585 74.2461 7.68046 61.7519 7.68046 47.8383C7.68046 22.2372 29.9515 1.4417 57.4395 1.4417C59.4561 1.4417 61.4728 1.57277 63.4018 1.79121C59.1931 0.611632 54.7652 0 50.1619 0C22.7178 0 0.446777 22.1935 0.446777 49.5859C0.446777 67.0369 9.51472 82.3889 23.2084 91.2152L24.6771 82.7541Z" fill="#F47D5C"/>
<path d="M28.689 79.6123L21.7622 102.068L40.1313 85.117L28.689 79.6123Z" fill="#377044"/>
<path fill-rule="evenodd" clip-rule="evenodd" d="M16.0803 48.6488C16.0803 69.7501 33.2657 86.8321 54.3968 86.8321C68.0402 86.8321 80.0092 79.7406 86.7975 69.0516H91.6835C84.4532 82.1537 70.4713 91.0262 54.3968 91.0262C30.8983 91.0262 11.8716 72.0656 11.8716 48.6488C11.8716 25.2321 30.8983 6.27148 54.3968 6.27148C70.4717 6.27148 84.454 15.1444 91.6841 28.2471H86.7982C80.01 17.5575 68.0407 10.4655 54.3968 10.4655C33.2657 10.4655 16.0803 27.5475 16.0803 48.6488Z" fill="#377044"/>
<path d="M82.1374 45.164C82.1374 45.7756 82.0935 46.3873 82.0497 46.9989C81.962 47.6105 81.8743 48.1348 81.7428 48.659C81.6551 49.1833 81.5236 49.6639 81.3483 50.1007C81.1729 50.4939 80.9975 50.8871 80.7783 51.1493C80.5591 51.4551 80.3399 51.6735 80.1207 51.8046C79.8577 51.9356 79.5946 52.023 79.2878 52.023C78.9809 52.023 78.674 51.9356 78.4548 51.7172C78.1917 51.5424 78.0164 51.2803 77.8849 51.0182C78.2794 50.4066 78.6301 49.6202 78.937 48.5717C79.2001 47.5668 79.3316 46.431 79.3316 45.164C79.3316 43.1544 79.0247 41.6253 78.3233 40.6204C77.6218 39.6156 76.7012 39.0914 75.5175 39.0914C74.3338 39.0914 73.4131 39.6156 72.7117 40.5768C72.0102 41.5816 71.6595 43.067 71.6595 45.0329V46.0814H74.1584V40.8389C74.2461 40.7952 74.4653 40.7515 74.6845 40.7078C74.9475 40.7078 75.2106 40.6641 75.4298 40.6641C75.912 40.6641 76.2628 40.7515 76.482 40.9263C76.745 41.101 76.8765 41.4505 76.8765 41.9748V48.7464C76.8765 49.8386 76.5696 50.7124 75.9997 51.324C75.386 51.9793 74.5091 52.2851 73.2816 52.2851C72.0979 52.2851 71.1334 51.9356 70.432 51.1929C69.6867 50.4939 69.2921 49.4454 69.1168 48.0911H64.9081C64.5135 48.0911 64.1628 47.96 63.8997 47.6979C63.6367 47.4795 63.5052 47.0863 63.5052 46.562C63.7682 46.3436 63.9436 46.0814 64.0313 45.7756C64.1628 45.5135 64.2505 45.164 64.2505 44.7708C64.2505 44.2466 64.1189 43.766 63.8121 43.4602C63.549 43.1107 63.1106 42.9359 62.6284 42.9359C62.1023 42.9359 61.6639 43.1107 61.4008 43.4602C61.0939 43.8097 60.9624 44.2902 60.9624 44.8582C60.9624 45.3824 61.0501 45.8193 61.2255 46.1688C61.4008 46.5183 61.62 46.8241 61.8392 47.0863C61.7954 47.4358 61.62 47.7416 61.357 47.96C61.0939 48.1348 60.7871 48.2658 60.3925 48.2658C60.0856 48.2658 59.8226 48.1785 59.5157 48.0037C59.2526 47.829 58.9896 47.6105 58.7704 47.3047C58.595 46.9989 58.4197 46.6494 58.2882 46.2125C58.2005 45.8193 58.1128 45.3388 58.1128 44.8582C58.1128 44.2029 58.2443 43.6349 58.4197 43.1107C58.6389 42.5864 58.9458 42.1495 59.3403 41.8C59.7349 41.4505 60.2171 41.1447 60.7432 40.97C61.3131 40.7515 61.9269 40.6641 62.6284 40.6641C63.286 40.6641 63.8997 40.7515 64.4258 40.97C64.9519 41.1447 65.4342 41.4068 65.7849 41.7126C66.1794 42.0622 66.4863 42.4553 66.6617 42.8922C66.8809 43.3291 67.0124 43.8097 67.0124 44.3776C67.0124 44.9892 66.8371 45.5572 66.574 46.0814H68.9414C68.9414 45.9067 68.9414 45.7319 68.9414 45.6009C68.9414 45.4261 68.9414 45.2077 68.9414 45.0329C68.9414 43.6786 69.1168 42.499 69.4236 41.4942C69.7744 40.4894 70.2128 39.6156 70.7827 38.9603C71.3965 38.2613 72.0541 37.737 72.887 37.3875C73.6762 37.038 74.553 36.8633 75.5175 36.8633C76.482 36.8633 77.3588 37.038 78.1917 37.3875C78.9809 37.737 79.6823 38.2613 80.2522 38.9603C80.866 39.6593 81.3044 40.5331 81.6551 41.5816C81.962 42.5864 82.1374 43.8097 82.1374 45.164ZM73.2378 50.1881C73.8954 50.1881 74.2023 49.7512 74.2023 48.7901V48.0474H71.7472C71.9226 49.4891 72.4486 50.1881 73.2378 50.1881Z" fill="#377044"/>
<path d="M86.9236 37.8645C86.6605 38.1266 86.4413 38.4761 86.3098 38.8256C86.1344 39.2188 86.0906 39.612 86.0906 40.0052C86.0906 40.442 86.1344 40.7915 86.3098 41.1411C86.4413 41.4469 86.6167 41.7527 86.8797 41.9711C87.1428 42.2333 87.4058 42.408 87.7565 42.5391C88.0634 42.7138 88.4141 42.8012 88.7649 42.8449C88.458 42.3643 88.2826 41.9274 88.1511 41.4906C88.0634 41.0974 87.9757 40.7479 87.9757 40.3547C87.9757 39.8304 88.0634 39.3062 88.2826 38.913C88.458 38.4761 88.721 38.1266 89.0718 37.8208C89.4225 37.515 89.817 37.2965 90.2993 37.1654C90.7377 36.9907 91.2638 36.9033 91.8337 36.9033C92.4037 36.9033 92.8859 36.9907 93.3682 37.1654C93.8504 37.3402 94.245 37.5586 94.5957 37.8645C94.9464 38.1703 95.2095 38.5198 95.3848 38.9567C95.604 39.3935 95.6917 39.8741 95.6917 40.3984C95.6917 40.9663 95.604 41.4906 95.3848 41.9711C95.2095 42.4517 94.9464 42.8449 94.5957 43.1944C94.245 43.5876 93.8504 43.8934 93.3682 44.1555C92.9297 44.4177 92.4037 44.5924 91.8776 44.7235C91.9652 44.9419 92.0091 45.1603 92.0091 45.3788C92.0529 45.5535 92.0968 45.772 92.0968 45.9467C92.0968 46.7768 91.7899 47.4321 91.22 47.869C90.65 48.3496 89.817 48.568 88.721 48.568C87.9319 48.568 87.3181 48.4369 86.8797 48.1311C86.3975 47.869 86.1783 47.4758 86.1783 46.9952C86.1783 46.602 86.3098 46.2525 86.5728 45.9467C86.792 46.0341 87.0551 46.1215 87.362 46.2089C87.625 46.2962 87.9319 46.2962 88.2826 46.2962C88.6772 46.2962 88.9841 46.2525 89.2033 46.0778C89.4663 45.9467 89.5978 45.6846 89.5978 45.3788C89.5978 45.2914 89.5978 45.204 89.554 45.1603C89.554 45.073 89.554 44.9856 89.554 44.8982H89.4663C88.5457 44.8982 87.7127 44.8108 86.9674 44.5924C86.2221 44.374 85.5645 44.0681 85.0384 43.6313C84.5123 43.2381 84.0739 42.7138 83.767 42.1022C83.4601 41.4906 83.3286 40.7915 83.3286 40.0052C83.3286 39.5246 83.3725 39.0877 83.504 38.6945C83.6355 38.345 83.8109 37.9955 83.9862 37.7334C84.2054 37.4713 84.4246 37.2965 84.6877 37.1218C84.9507 36.9907 85.2138 36.947 85.4768 36.947C85.8714 36.947 86.1783 37.0344 86.3975 37.2091C86.6167 37.3839 86.792 37.6023 86.9236 37.8645ZM90.5623 40.5294C90.5623 40.8352 90.6062 41.1411 90.6939 41.4906C90.7377 41.8401 90.9131 42.2333 91.1323 42.7138C91.7022 42.5391 92.1406 42.2333 92.4475 41.7964C92.7982 41.4032 92.9736 40.8789 92.9736 40.3547C92.9736 39.9615 92.8421 39.612 92.6229 39.3935C92.4037 39.1751 92.0968 39.044 91.746 39.044C91.3953 39.044 91.1323 39.1751 90.8692 39.4372C90.65 39.6557 90.5623 40.0489 90.5623 40.5294Z" fill="#377044"/>
<path d="M95.8701 48.8751C95.8701 48.0887 96.0893 47.4334 96.5277 46.8654C96.9223 46.3412 97.5361 45.948 98.2375 45.7295C98.4129 45.4674 98.5444 45.1616 98.676 44.8121C98.8513 44.4626 98.939 44.0694 99.0705 43.6762C99.1582 43.283 99.2459 42.8898 99.3336 42.4529C99.3774 42.0597 99.4213 41.6229 99.4213 41.2297C99.4213 40.5307 99.2897 39.9627 99.0267 39.6569C98.7636 39.3074 98.4129 39.1326 97.9745 39.1326C97.7991 39.1326 97.6238 39.1326 97.4484 39.1763C97.3169 39.22 97.1854 39.2637 97.01 39.3511C96.9223 39.22 96.8346 39.0453 96.7469 38.8705C96.7031 38.6958 96.6593 38.521 96.6593 38.2589C96.6593 38.0404 96.7031 37.8657 96.8346 37.6909C96.9223 37.5162 97.0977 37.3851 97.273 37.2541C97.4484 37.1667 97.6676 37.0793 97.8868 37.0356C98.1499 36.9482 98.3691 36.9482 98.5883 36.9482C99.0705 36.9482 99.5089 37.0356 99.9035 37.1667C100.342 37.3414 100.693 37.5599 101 37.9094C101.306 38.2152 101.569 38.6521 101.745 39.1326C101.92 39.6569 102.008 40.2685 102.008 40.9675C102.008 41.7976 101.92 42.6714 101.701 43.5014C101.482 44.3315 101.219 45.0742 100.824 45.7295C101.569 45.948 102.139 46.3412 102.578 46.8654C103.016 47.4334 103.192 48.0887 103.192 48.8751C103.192 49.3556 103.104 49.8362 102.929 50.2294C102.753 50.6226 102.534 50.9721 102.183 51.2779C101.876 51.5837 101.482 51.8021 101.043 51.9769C100.605 52.1517 100.079 52.239 99.5528 52.239C98.9828 52.239 98.5006 52.1517 98.0622 51.9769C97.5799 51.8021 97.1854 51.5837 96.8785 51.2779C96.5716 50.9721 96.3085 50.6226 96.1332 50.2294C95.9578 49.8362 95.8701 49.3556 95.8701 48.8751ZM98.3252 48.8751C98.3252 49.2682 98.4567 49.6178 98.676 49.8362C98.939 50.0983 99.202 50.1857 99.5528 50.1857C99.9035 50.1857 100.167 50.0983 100.386 49.8362C100.605 49.6178 100.736 49.2682 100.736 48.8751C100.736 48.4382 100.605 48.1324 100.386 47.8702C100.167 47.6081 99.9035 47.5207 99.5528 47.5207C99.202 47.5207 98.939 47.6081 98.676 47.8702C98.4567 48.1324 98.3252 48.4382 98.3252 48.8751Z" fill="#377044"/>
<path d="M109.797 36.9482C110.806 36.9482 111.77 37.1667 112.691 37.6472C113.568 37.1667 114.532 36.9482 115.584 36.9482C116.505 36.9482 117.338 37.0793 118.039 37.3851C118.785 37.6909 119.398 38.1278 119.924 38.6521C120.45 39.22 120.845 39.8753 121.108 40.6617C121.371 41.4044 121.547 42.2782 121.547 43.283C121.547 44.1131 121.415 44.8995 121.196 45.6421C120.977 46.3412 120.67 46.9528 120.319 47.3897C120.1 47.6518 119.837 47.8702 119.574 48.045C119.267 48.176 119.004 48.2634 118.653 48.2634C118.346 48.2634 118.039 48.1324 117.776 47.9576C117.513 47.7392 117.294 47.477 117.206 47.1712C117.645 46.7343 117.995 46.2101 118.258 45.5548C118.565 44.9431 118.697 44.1568 118.697 43.283C118.697 42.016 118.39 40.9675 117.776 40.1812C117.162 39.4385 116.329 39.0453 115.233 39.0453C115.102 39.0453 115.014 39.0453 114.883 39.0453C114.795 39.0453 114.664 39.0453 114.532 39.089C115.19 39.6132 115.672 40.3122 116.066 41.0986C116.417 41.9287 116.636 42.8461 116.636 43.8509C116.636 45.249 116.286 46.3412 115.628 47.1275C114.97 47.9139 113.962 48.3071 112.691 48.3071C111.376 48.3071 110.411 47.9139 109.753 47.1275C109.096 46.3412 108.745 45.249 108.745 43.8509C108.745 42.8024 108.92 41.9287 109.271 41.0986C109.622 40.3122 110.148 39.6132 110.762 39.089C110.674 39.0453 110.543 39.0453 110.455 39.0453C110.323 39.0453 110.236 39.0453 110.148 39.0453C109.008 39.0453 108.175 39.4385 107.561 40.1812C106.991 40.9675 106.685 42.016 106.685 43.283C106.685 44.2004 106.816 44.9431 107.079 45.5548C107.342 46.2101 107.693 46.7343 108.131 47.1712C108.044 47.477 107.868 47.7392 107.605 47.9576C107.342 48.1324 107.035 48.2634 106.685 48.2634C106.378 48.2634 106.071 48.176 105.764 48.045C105.501 47.8702 105.282 47.6518 105.062 47.3897C104.668 46.9528 104.361 46.3412 104.142 45.6421C103.923 44.8995 103.835 44.1131 103.835 43.283C103.835 42.2782 103.966 41.4044 104.23 40.618C104.536 39.8753 104.931 39.1763 105.413 38.6521C105.939 38.0841 106.553 37.6909 107.298 37.3851C108.044 37.0793 108.877 36.9482 109.797 36.9482ZM113.918 43.8509C113.918 43.0646 113.787 42.3219 113.568 41.6665C113.348 41.0112 113.041 40.487 112.647 40.0064C112.296 40.487 111.989 41.0112 111.77 41.6665C111.551 42.3219 111.463 43.0646 111.463 43.8509C111.463 44.5936 111.551 45.1616 111.77 45.5548C111.989 45.948 112.296 46.1664 112.691 46.1664C113.085 46.1664 113.392 45.948 113.611 45.5548C113.787 45.1616 113.918 44.5936 113.918 43.8509Z" fill="#377044"/>
<path d="M121.862 48.8751C121.862 48.0887 122.081 47.4334 122.476 46.8654C122.914 46.3412 123.484 45.948 124.229 45.7295C124.361 45.4674 124.536 45.1616 124.668 44.8121C124.799 44.4626 124.931 44.0694 125.018 43.6762C125.15 43.283 125.238 42.8898 125.281 42.4529C125.369 42.0597 125.413 41.6229 125.413 41.2297C125.413 40.5307 125.238 39.9627 124.975 39.6569C124.711 39.3074 124.361 39.1326 123.922 39.1326C123.747 39.1326 123.572 39.1326 123.44 39.1763C123.309 39.22 123.133 39.2637 123.002 39.3511C122.87 39.22 122.782 39.0453 122.739 38.8705C122.651 38.6958 122.607 38.521 122.607 38.2589C122.607 38.0404 122.695 37.8657 122.782 37.6909C122.914 37.5162 123.046 37.3851 123.221 37.2541C123.44 37.1667 123.659 37.0793 123.878 37.0356C124.098 36.9482 124.361 36.9482 124.58 36.9482C125.018 36.9482 125.457 37.0356 125.895 37.1667C126.29 37.3414 126.64 37.5599 126.991 37.9094C127.298 38.2152 127.517 38.6521 127.693 39.1326C127.912 39.6569 128 40.2685 128 40.9675C128 41.7976 127.868 42.6714 127.693 43.5014C127.473 44.3315 127.167 45.0742 126.816 45.7295C127.517 45.948 128.131 46.3412 128.526 46.8654C128.964 47.4334 129.183 48.0887 129.183 48.8751C129.183 49.3556 129.096 49.8362 128.92 50.2294C128.745 50.6226 128.482 50.9721 128.175 51.2779C127.824 51.5837 127.43 51.8021 126.991 51.9769C126.553 52.1517 126.071 52.239 125.501 52.239C124.975 52.239 124.448 52.1517 124.01 51.9769C123.572 51.8021 123.177 51.5837 122.87 51.2779C122.519 50.9721 122.3 50.6226 122.125 50.2294C121.949 49.8362 121.862 49.3556 121.862 48.8751ZM124.317 48.8751C124.317 49.2682 124.405 49.6178 124.668 49.8362C124.887 50.0983 125.194 50.1857 125.501 50.1857C125.851 50.1857 126.158 50.0983 126.377 49.8362C126.597 49.6178 126.684 49.2682 126.684 48.8751C126.684 48.4382 126.597 48.1324 126.377 47.8702C126.158 47.6081 125.851 47.5207 125.501 47.5207C125.194 47.5207 124.887 47.6081 124.668 47.8702C124.405 48.1324 124.317 48.4382 124.317 48.8751Z" fill="#377044"/>
<path d="M143.113 43.198C143.113 44.0281 143.025 44.8145 142.806 45.4261C142.587 46.0814 142.28 46.6057 141.929 46.9989C141.535 47.4358 141.096 47.7416 140.526 47.96C140 48.1785 139.43 48.2658 138.816 48.2658C138.247 48.2658 137.764 48.2222 137.282 48.0474C136.8 47.8727 136.405 47.6542 136.055 47.3484C135.748 47.6105 135.397 47.829 134.959 48.0037C134.52 48.1785 133.994 48.2658 133.336 48.2658C132.942 48.2658 132.503 48.2222 132.065 48.0911C131.627 47.96 131.232 47.7416 130.881 47.4795C130.531 47.1736 130.224 46.8241 130.005 46.3873C129.785 45.9067 129.654 45.3824 129.654 44.7271C129.654 44.1592 129.741 43.6786 129.961 43.2417C130.136 42.8048 130.399 42.4117 130.75 42.1058C131.144 41.8 131.539 41.5816 132.021 41.4068C132.503 41.2758 133.073 41.1884 133.643 41.1884H134.476C134.476 40.4894 134.608 39.8778 134.827 39.3535C135.046 38.8292 135.397 38.3487 135.791 37.9992C136.186 37.6497 136.624 37.3438 137.151 37.1691C137.677 36.9507 138.203 36.8633 138.816 36.8633C139.386 36.8633 139.956 36.9507 140.482 37.1691C140.965 37.3438 141.447 37.6497 141.841 37.9992C142.236 38.3487 142.543 38.8292 142.762 39.3535C142.981 39.8778 143.113 40.4894 143.113 41.1884H143.858C144.428 41.1884 144.998 41.2758 145.48 41.4068C145.962 41.5816 146.401 41.8 146.752 42.1058C147.102 42.4117 147.365 42.8048 147.585 43.2417C147.76 43.7223 147.848 44.2466 147.848 44.8145C147.848 45.3388 147.804 45.8193 147.628 46.2562C147.497 46.6931 147.278 47.0426 147.015 47.3484C146.752 47.6105 146.445 47.8727 146.094 48.0037C145.743 48.1785 145.393 48.2658 144.998 48.2658C143.946 48.2658 143.464 47.829 143.464 46.9115C143.464 46.6931 143.464 46.4746 143.551 46.2999C144.121 46.2999 144.56 46.1688 144.823 45.9067C145.086 45.6009 145.217 45.2514 145.217 44.7271C145.217 44.2466 145.086 43.8534 144.823 43.5912C144.56 43.3291 144.165 43.198 143.683 43.198H143.113ZM138.816 46.0814C139.343 46.0814 139.737 45.863 140.044 45.4261C140.351 44.9892 140.526 44.2466 140.526 43.198H137.063C137.063 44.2466 137.238 44.9892 137.545 45.4261C137.852 45.863 138.29 46.0814 138.816 46.0814ZM134.915 45.7756C134.783 45.4261 134.695 45.0766 134.608 44.6397C134.52 44.2029 134.476 43.766 134.476 43.198H133.819C133.336 43.198 132.942 43.3291 132.679 43.5912C132.416 43.8534 132.24 44.2466 132.24 44.7271C132.24 45.2077 132.416 45.5572 132.679 45.8193C132.942 46.0814 133.293 46.2125 133.731 46.2125C133.95 46.2125 134.169 46.1688 134.389 46.1251C134.608 46.0378 134.783 45.9067 134.915 45.7756ZM138.816 39.0477C138.334 39.0477 137.896 39.2224 137.589 39.5719C137.238 39.9651 137.063 40.4894 137.063 41.2321H140.526C140.526 40.4894 140.351 39.9651 140 39.5719C139.693 39.2224 139.255 39.0477 138.816 39.0477Z" fill="#377044"/>
<path d="M76.4789 58.5278C76.4789 57.8725 76.2597 57.3483 75.8651 56.9988C75.4705 56.6492 74.9445 56.4745 74.3307 56.4745C73.8046 56.4745 73.3662 56.6056 73.0593 56.824C72.7086 57.0861 72.4894 57.3919 72.314 57.7414L72.3579 57.7851C72.4894 57.6541 72.6209 57.5667 72.8401 57.4793C73.0155 57.3919 73.2785 57.3483 73.4977 57.3483C73.7608 57.3483 74.0238 57.3919 74.243 57.4793C74.4622 57.5667 74.6376 57.6978 74.8129 57.8288C74.9883 58.0036 75.1198 58.1783 75.2075 58.3968C75.2952 58.6589 75.339 58.8773 75.339 59.1395C75.339 59.4453 75.2513 59.7074 75.1637 59.9258C75.076 60.1443 74.9006 60.3627 74.7253 60.5375C74.5061 60.7122 74.2868 60.8433 74.0238 60.9307C73.7608 61.018 73.4539 61.0617 73.147 61.0617C72.4894 61.0617 71.9633 60.8433 71.5249 60.4501C71.1303 60.0132 70.9111 59.4016 70.9111 58.5715C70.9111 58.091 70.9988 57.6541 71.1742 57.2609C71.3057 56.824 71.5687 56.4745 71.8318 56.2124C72.1387 55.9066 72.5332 55.6881 72.9278 55.5134C73.3662 55.3386 73.8484 55.2949 74.3745 55.2949C74.9883 55.2949 75.5144 55.3823 75.9966 55.6007C76.4789 55.8629 76.8734 56.1687 77.1365 56.6056C77.2242 56.3871 77.3557 56.2124 77.531 56.0376C77.6626 55.8629 77.8818 55.7318 78.0571 55.6007C78.2763 55.5134 78.4955 55.426 78.7147 55.3386C78.9339 55.2949 79.1531 55.2949 79.4162 55.2949C79.8546 55.2949 80.2492 55.3386 80.5999 55.5134C80.9506 55.6444 81.3013 55.8629 81.5644 56.1687C81.8274 56.4745 82.0466 56.824 82.1781 57.2609C82.3097 57.6978 82.3973 58.222 82.3973 58.7463C82.3973 59.4016 82.3097 59.9695 82.0905 60.4501C81.9151 60.9744 81.6082 61.4112 81.2575 61.7607C80.9068 62.1539 80.4684 62.4161 79.8984 62.5908C79.3723 62.8093 78.8024 62.8966 78.1448 62.8966H73.1032C72.9278 62.8966 72.7524 62.9403 72.6648 63.0277C72.5332 63.1588 72.4894 63.2898 72.4894 63.4209C72.4894 63.5956 72.5332 63.7267 72.6648 63.8141C72.7524 63.9015 72.9278 63.9451 73.1032 63.9451H81.3452C81.6082 63.9451 81.7836 63.9888 81.8713 64.1199C82.0028 64.2073 82.0905 64.382 82.0905 64.6005C82.0905 64.7315 82.0466 64.8626 82.0028 64.95C82.0028 65.0373 81.9589 65.1247 81.9151 65.1684H73.0155C72.3579 65.1684 71.8756 65.0373 71.4811 64.7315C71.1303 64.4257 70.955 63.9888 70.955 63.4209C70.955 62.8966 71.1303 62.4597 71.4811 62.1539C71.8756 61.8918 72.3579 61.7171 73.0155 61.7171H77.8818C78.8024 61.7171 79.5477 61.4549 80.03 60.9307C80.556 60.4064 80.7752 59.6637 80.7752 58.7463C80.7752 58.0473 80.6437 57.4793 80.3807 57.1298C80.0738 56.7803 79.7231 56.6056 79.2847 56.6056C78.8901 56.6056 78.5832 56.6929 78.364 56.9551C78.1448 57.2172 78.0133 57.5667 78.0133 58.0473V60.5812C77.7941 60.7559 77.531 60.8433 77.2242 60.8433C76.9173 60.8433 76.6542 60.7559 76.4789 60.5812V58.5278ZM72.3579 59.1395C72.3579 59.3579 72.4017 59.5763 72.5771 59.7074C72.7086 59.8822 72.884 59.9258 73.147 59.9258C73.3662 59.9258 73.5854 59.8822 73.7169 59.7074C73.8484 59.5763 73.9361 59.3579 73.9361 59.1395C73.9361 58.8773 73.8484 58.7026 73.7169 58.5278C73.5854 58.3968 73.3662 58.3094 73.147 58.3094C72.884 58.3094 72.7086 58.3968 72.5771 58.5278C72.4017 58.7026 72.3579 58.8773 72.3579 59.1395Z" fill="#373435"/>
<path d="M87.0018 55.251C87.484 55.251 87.9663 55.382 88.4047 55.6005C88.8431 55.8626 89.1938 56.1684 89.413 56.649C89.676 56.2121 90.0706 55.8626 90.509 55.6442C90.9912 55.382 91.5173 55.2947 92.0872 55.2947C92.7449 55.2947 93.4025 55.4257 93.9724 55.7752C94.2793 55.6005 94.5423 55.5131 94.893 55.4257C95.1999 55.3384 95.5506 55.2947 95.9452 55.2947C96.5151 55.2947 97.085 55.382 97.5673 55.5568C98.0495 55.7752 98.4441 56.0374 98.7948 56.4306C99.1455 56.7801 99.4086 57.2169 99.5839 57.7412C99.8031 58.2655 99.8908 58.8771 99.8908 59.5324C99.8908 60.144 99.8031 60.6683 99.6278 61.1926C99.4962 61.7168 99.277 62.11 99.014 62.4158C98.8386 62.5906 98.7071 62.7216 98.5318 62.8527C98.3564 62.9401 98.181 62.9838 97.9618 62.9838C97.7426 62.9838 97.5673 62.9401 97.4358 62.809C97.3042 62.6779 97.1727 62.5032 97.1289 62.3284C97.4358 62.0663 97.6988 61.7168 97.918 61.2362C98.1372 60.7994 98.2687 60.2314 98.2687 59.5324C98.2687 59.0955 98.181 58.6586 98.0934 58.2655C97.9618 57.9159 97.7865 57.5664 97.5673 57.3043C97.3481 57.0422 97.085 56.8674 96.7782 56.6927C96.4713 56.5616 96.1205 56.4742 95.726 56.4742C95.6383 56.4742 95.5068 56.5179 95.3753 56.5179C95.2876 56.5179 95.1561 56.5179 95.0245 56.5616C95.5068 56.9548 95.8575 57.4354 96.1205 58.0033C96.4274 58.5713 96.559 59.2703 96.559 59.9693C96.559 60.9304 96.3397 61.7168 95.9013 62.2411C95.4191 62.7653 94.8053 63.0275 93.9724 63.0275C93.1394 63.0275 92.4818 62.7653 92.0434 62.2411C91.605 61.7168 91.3858 60.9304 91.3858 59.9693C91.3858 59.2266 91.5173 58.5713 91.7804 58.0033C92.0872 57.4354 92.438 56.9548 92.9202 56.5616C92.7887 56.5179 92.6572 56.5179 92.5695 56.5179C92.438 56.5179 92.3064 56.4742 92.2188 56.4742C91.9119 56.4742 91.6488 56.5616 91.3858 56.649C91.1228 56.7364 90.9036 56.9111 90.6844 57.0859C90.509 57.3043 90.3336 57.5228 90.246 57.8286C90.1144 58.0907 90.0706 58.4402 90.0706 58.7897V62.8527C89.9829 62.8964 89.8952 62.8964 89.7199 62.9401C89.5884 62.9401 89.4568 62.9838 89.3253 62.9838C89.0184 62.9838 88.8431 62.8964 88.6677 62.809C88.5362 62.6779 88.4485 62.4595 88.4485 62.1537V58.0907C88.4485 57.6538 88.3608 57.2606 88.0978 56.9985C87.8786 56.7364 87.5279 56.6053 87.0895 56.6053C86.5634 56.6053 86.125 56.8237 85.8181 57.2606C85.4674 57.6975 85.292 58.3091 85.292 59.1392C85.292 59.8382 85.4235 60.4499 85.7304 60.9304C86.0373 61.4547 86.4319 61.8916 86.9579 62.1974C86.9141 62.4158 86.8264 62.5906 86.6949 62.7653C86.5634 62.8964 86.3442 62.9838 86.0811 62.9838C85.8619 62.9838 85.6866 62.9401 85.4674 62.8527C85.292 62.7653 85.1166 62.6343 84.9413 62.4595C84.5906 62.0663 84.2398 61.6294 84.0206 61.0615C83.7576 60.4935 83.6699 59.8382 83.6699 59.1392C83.6699 58.5276 83.7576 57.9596 83.8891 57.4791C84.0645 56.9985 84.2837 56.6053 84.5906 56.2995C84.8974 55.95 85.2482 55.6879 85.6427 55.5131C86.0811 55.3384 86.5195 55.251 87.0018 55.251ZM94.9807 59.9693C94.9807 59.3577 94.893 58.7897 94.7177 58.3091C94.4985 57.8286 94.2793 57.4354 93.9724 57.1296C93.6655 57.4354 93.4025 57.8286 93.2271 58.3091C93.0517 58.7897 92.9202 59.3577 92.9202 59.9693C92.9202 60.5372 93.0079 60.9741 93.1833 61.2799C93.3586 61.6294 93.6217 61.7605 93.9724 61.7605C94.2793 61.7605 94.5423 61.6294 94.7177 61.2799C94.893 60.9741 94.9807 60.5372 94.9807 59.9693Z" fill="#373435"/>
<path d="M103.651 55.6881C103.432 55.9939 103.3 56.3871 103.125 56.8677C102.994 57.3046 102.906 57.9162 102.906 58.5715C102.906 59.0958 102.994 59.5763 103.081 60.0132C103.169 60.4938 103.257 60.9307 103.388 61.3239C103.476 61.7607 103.563 62.1539 103.651 62.5908C103.783 62.984 103.827 63.4209 103.827 63.8578C103.827 64.251 103.739 64.6005 103.607 64.9063C103.476 65.1684 103.344 65.4305 103.081 65.649C102.862 65.8237 102.599 65.9985 102.292 66.0859C101.985 66.1732 101.678 66.2169 101.284 66.2169C100.933 66.2169 100.626 66.1732 100.319 66.0859C100.012 65.9985 99.7932 65.8674 99.574 65.7364C99.3548 65.5616 99.1794 65.3432 99.0479 65.1247C98.9602 64.9063 98.8726 64.6442 98.8726 64.382C98.8726 64.1199 98.9602 63.9451 99.0918 63.7704C99.2671 63.5956 99.4425 63.5083 99.7494 63.5083C99.8809 63.5083 99.9686 63.552 100.056 63.5956C100.144 63.5956 100.232 63.6393 100.319 63.683V63.9451C100.319 64.251 100.407 64.5131 100.582 64.6878C100.758 64.9063 100.977 64.9937 101.284 64.9937C101.547 64.9937 101.766 64.9063 101.985 64.7315C102.161 64.5568 102.248 64.251 102.248 63.8578C102.248 63.5083 102.204 63.1151 102.117 62.7656C102.029 62.3724 101.941 61.9792 101.81 61.5423C101.722 61.1054 101.591 60.6249 101.503 60.1443C101.415 59.62 101.371 59.0958 101.371 58.4841C101.371 58.0473 101.415 57.6104 101.503 57.1735C101.591 56.6929 101.722 56.2997 101.941 55.9502C102.029 55.7318 102.161 55.557 102.336 55.426C102.467 55.3386 102.643 55.2949 102.862 55.2949C103.037 55.2949 103.169 55.2949 103.3 55.3823C103.432 55.4697 103.563 55.557 103.651 55.6881Z" fill="#373435"/>
</svg>
