<svg width="142" height="103" viewBox="0 0 142 103" fill="none" xmlns="http://www.w3.org/2000/svg">
<path fill-rule="evenodd" clip-rule="evenodd" d="M24.3529 22.5703C24.7474 23.5751 26.3695 33.5797 25.8873 34.4971C25.0105 36.2883 25.5804 37.73 26.7641 39.0844C27.4656 39.8271 28.2547 40.5261 29 41.3125C29.4384 41.793 29.9645 42.2736 30.359 42.7978C31.7181 44.5454 31.3674 45.8123 29.3069 46.6424C29.0877 46.7298 28.8685 46.8171 28.6492 46.9045C28.2108 47.123 28.0355 47.5598 28.2108 47.9967C28.3424 48.3025 28.5177 48.5647 28.6492 48.8705C29.0438 49.7442 28.8685 50.4869 28.0355 51.0112C27.6409 51.2296 27.1587 51.4044 26.7641 51.5791C26.3695 51.7539 26.0188 51.8849 25.6681 52.1908C26.0188 52.2781 26.3695 52.3218 26.7203 52.4092C27.2464 52.5403 27.8163 52.584 28.2985 52.8024C29.1315 53.1082 29.3507 53.8072 29 54.5499C28.9561 54.7247 28.8685 54.8557 28.7808 54.9868C27.8601 56.1227 27.8601 57.3896 28.2985 58.7003C28.6931 59.9235 28.3424 60.7536 27.1587 61.3215C25.6243 62.0206 23.9583 62.1079 22.3362 62.1953C21.854 62.239 21.3279 62.1953 20.8456 62.1953C19.8373 62.239 19.3989 63.0254 19.1359 63.7681C18.7851 64.8603 18.5221 65.9962 18.2591 67.132C18.1275 67.5252 18.0837 67.9184 17.5138 67.8747C17.0315 67.7874 16.8123 67.4379 16.9438 66.8699C17.2069 65.7777 17.4699 64.6855 17.7768 63.5933C17.9083 63.1128 18.2152 62.6759 18.4783 62.239C19.092 61.1468 20.1004 60.8847 21.284 60.841C22.7308 60.7973 24.1775 60.6225 25.6243 60.4478C25.8435 60.4041 26.0627 60.3167 26.2819 60.273C27.1148 59.9235 27.2025 59.7488 26.9395 58.875C26.5011 57.3023 26.5011 55.7295 27.5971 54.3315C27.6409 54.2878 27.6848 54.2004 27.7286 54.113C27.7286 54.113 27.7286 54.0693 27.7286 53.9383C27.2464 53.8509 26.7641 53.8509 26.3257 53.6762C25.6243 53.4577 24.9228 53.1956 24.3529 52.8461C23.7391 52.4529 23.7391 51.7976 24.309 51.317C24.7036 51.0112 25.2297 50.7927 25.6681 50.5743C26.1503 50.3559 26.6326 50.1811 27.1148 50.0064C27.4656 49.8753 27.5971 49.6569 27.3779 49.3074C27.2464 49.0889 27.1587 48.8705 27.071 48.6957C26.5011 47.6472 26.9395 46.0744 28.2985 45.5939C28.5177 45.5065 28.7808 45.4191 29 45.3317C29.9206 44.9386 30.0521 44.5891 29.3945 43.8027C28.6492 42.8852 27.7724 42.0115 26.8956 41.1377C25.6681 39.9581 24.5282 38.7349 24.1775 36.9873C24.0898 36.4631 24.1337 35.8951 24.2214 35.3709C24.309 34.8903 24.5282 34.4534 24.6598 34.0166C24.9228 33.3176 23.3884 23.7062 23.0377 23.0072L24.3529 22.5703Z" fill="#F58B71" stroke="#F58B71" stroke-width="0.0135276"/>
<path fill-rule="evenodd" clip-rule="evenodd" d="M50.2825 52.2218C50.1949 56.7217 48.7043 60.6536 45.6793 63.9739C45.5039 64.1486 45.3724 64.3234 45.1532 64.4981C44.7586 64.8476 44.3202 64.8476 43.9257 64.4981C43.5311 64.1049 43.5311 63.6244 43.8818 63.2312C44.2326 62.7943 44.671 62.4011 45.0217 61.9642C48.6604 57.2022 49.4496 51.9597 47.3452 46.3676C46.5999 44.489 45.5039 42.8726 44.1449 41.3872C43.8818 41.125 43.6626 40.6445 43.7065 40.3387C43.7941 39.596 44.671 39.4649 45.2847 40.0328C46.8191 41.5619 47.959 43.3094 48.8358 45.2317C49.8003 47.4598 50.2825 49.819 50.2825 52.2218Z" fill="#F58B71"/>
<path fill-rule="evenodd" clip-rule="evenodd" d="M50.2825 52.2218C50.1949 56.7217 48.7043 60.6536 45.6793 63.9739C45.5039 64.1486 45.3724 64.3234 45.1532 64.4981C44.7586 64.8476 44.3202 64.8476 43.9257 64.4981C43.5311 64.1049 43.5311 63.6244 43.8818 63.2312C44.2326 62.7943 44.671 62.4011 45.0217 61.9642C48.6604 57.2022 49.4496 51.9597 47.3452 46.3676C46.5999 44.489 45.5039 42.8726 44.1449 41.3872C43.8818 41.125 43.6626 40.6445 43.7065 40.3387C43.7941 39.596 44.671 39.4649 45.2847 40.0328C46.8191 41.5619 47.959 43.3094 48.8358 45.2317C49.8003 47.4598 50.2825 49.819 50.2825 52.2218Z" stroke="#F58B71" stroke-width="0.0135276"/>
<path fill-rule="evenodd" clip-rule="evenodd" d="M44.3371 53.4929C44.2933 55.721 43.1096 58.8228 40.7422 61.4441C40.6545 61.5752 40.5668 61.6626 40.4353 61.7936C39.9969 62.2305 39.5147 62.3616 39.0324 61.881C38.5502 61.4441 38.7255 60.9636 39.1201 60.5267C40.3476 59.3034 41.3121 57.8617 41.8382 56.1579C43.2849 51.7454 42.4958 47.7261 39.3831 44.1437C39.2516 44.0126 39.0763 43.8816 38.9886 43.7068C38.6817 43.3136 38.6379 42.8767 39.0324 42.5272C39.3831 42.2214 39.8654 42.0904 40.3038 42.4836C40.6984 42.8767 41.0929 43.3136 41.4436 43.7505C43.3288 46.2407 44.3371 49.0804 44.3371 53.4929Z" fill="#F58B71"/>
<path fill-rule="evenodd" clip-rule="evenodd" d="M44.3371 53.4929C44.2933 55.721 43.1096 58.8228 40.7422 61.4441C40.6545 61.5752 40.5668 61.6626 40.4353 61.7936C39.9969 62.2305 39.5147 62.3616 39.0324 61.881C38.5502 61.4441 38.7255 60.9636 39.1201 60.5267C40.3476 59.3034 41.3121 57.8617 41.8382 56.1579C43.2849 51.7454 42.4958 47.7261 39.3831 44.1437C39.2516 44.0126 39.0763 43.8816 38.9886 43.7068C38.6817 43.3136 38.6379 42.8767 39.0324 42.5272C39.3831 42.2214 39.8654 42.0904 40.3038 42.4836C40.6984 42.8767 41.0929 43.3136 41.4436 43.7505C43.3288 46.2407 44.3371 49.0804 44.3371 53.4929Z" stroke="#F58B71" stroke-width="0.0135276"/>
<path fill-rule="evenodd" clip-rule="evenodd" d="M36.5833 52.0696C36.5394 49.9726 35.7503 48.094 34.2597 46.4776C33.646 45.8223 33.7336 45.1233 34.5228 44.9048C34.8296 44.8174 35.3119 44.9922 35.5311 45.2106C37.5916 47.3513 38.5123 49.9289 38.3369 52.856C38.2054 55.2589 37.2847 57.3559 35.6626 59.1471C35.2242 59.584 34.7858 59.8898 34.172 59.4092C33.7336 59.0597 33.7775 58.4918 34.3474 57.8801C35.7941 56.2637 36.5394 54.3851 36.5833 52.0696Z" fill="#F58B71"/>
<path fill-rule="evenodd" clip-rule="evenodd" d="M36.5833 52.0696C36.5394 49.9726 35.7503 48.094 34.2597 46.4776C33.646 45.8223 33.7336 45.1233 34.5228 44.9048C34.8296 44.8174 35.3119 44.9922 35.5311 45.2106C37.5916 47.3513 38.5123 49.9289 38.3369 52.856C38.2054 55.2589 37.2847 57.3559 35.6626 59.1471C35.2242 59.584 34.7858 59.8898 34.172 59.4092C33.7336 59.0597 33.7775 58.4918 34.3474 57.8801C35.7941 56.2637 36.5394 54.3851 36.5833 52.0696Z" stroke="#F58B71" stroke-width="0.0135276"/>
<path fill-rule="evenodd" clip-rule="evenodd" d="M38.2351 90.8209C44.0213 93.0219 50.3535 94.235 56.9926 94.235C65.1908 94.235 72.9506 92.3564 79.7897 89.0798C71.4161 95.3709 61.0259 99.128 49.7589 99.128C43.3336 99.128 37.1932 97.9154 31.5558 95.7077L38.2351 90.8209ZM24.2336 82.7411C13.836 74.2334 7.27752 61.7449 7.27752 47.8383C7.27752 22.2372 29.5046 1.4417 56.9926 1.4417C59.0093 1.4417 61.0259 1.57277 62.9988 1.79121C58.7901 0.611632 54.3184 0 49.7589 0C22.271 0 0 22.1935 0 49.5859C0 67.0329 9.06381 82.3819 22.7637 91.2092L24.2336 82.7411Z" fill="#F47D5C"/>
<path d="M28.2428 79.6123L21.3599 102.068L39.6852 85.117L28.2428 79.6123Z" fill="#377044"/>
<path fill-rule="evenodd" clip-rule="evenodd" d="M15.6394 48.6488C15.6394 69.7501 32.781 86.8321 53.9559 86.8321C67.5711 86.8321 79.53 79.7406 86.3147 69.0516H91.2002C83.9729 82.1537 70.0004 91.0262 53.9559 91.0262C30.4574 91.0262 11.4307 72.0656 11.4307 48.6488C11.4307 25.2321 30.4574 6.27148 53.9559 6.27148C70.0009 6.27148 83.9737 15.1444 91.2008 28.2471H86.3154C79.5308 17.5575 67.5716 10.4655 53.9559 10.4655C32.781 10.4655 15.6394 27.5475 15.6394 48.6488Z" fill="#377044"/>
<path d="M73.7481 43.9405C73.7481 44.5084 73.9235 44.989 74.1865 45.3385C74.4934 45.688 74.888 45.8627 75.414 45.8627C76.0278 45.8627 76.5539 45.5569 76.9046 44.989C77.2992 44.421 77.5184 43.6347 77.5184 42.5861C77.5184 41.625 77.2992 40.7513 76.8608 40.0522C76.4662 39.3095 75.8963 38.6979 75.1072 38.261C75.1948 37.8678 75.3264 37.562 75.5894 37.2999C75.8963 37.0378 76.247 36.9067 76.6416 36.9067C77.0361 36.9067 77.343 36.9941 77.6499 37.1252C77.9568 37.2999 78.2637 37.5183 78.5706 37.7805C79.0966 38.3484 79.535 39.0037 79.8858 39.7901C80.2365 40.6202 80.4119 41.4939 80.4119 42.4551C80.4119 43.4162 80.2803 44.29 80.0173 44.989C79.7981 45.688 79.4474 46.2996 79.009 46.7802C78.5706 47.2171 78.0445 47.6103 77.4307 47.8287C76.8169 48.0471 76.1155 48.1782 75.414 48.1782C74.7126 48.1782 74.1427 48.0908 73.5727 47.9161C73.0466 47.7413 72.5644 47.4355 72.1698 47.086C71.7753 46.7365 71.4684 46.2996 71.2492 45.7754C71.03 45.2511 70.9423 44.6832 70.9423 43.9842V40.9697C70.9423 40.4454 70.8108 40.0086 70.5039 39.6591C70.2409 39.3095 69.8463 39.1348 69.3202 39.1348C68.7941 39.1348 68.3996 39.3095 68.0927 39.6591C67.8296 40.0086 67.6981 40.4454 67.6981 40.9697V47.9598C67.5666 48.0035 67.3912 48.0035 67.1282 48.0471C66.8651 48.0908 66.6021 48.1345 66.3829 48.1345C65.9006 48.1345 65.5061 48.0471 65.243 47.8724C64.98 47.6976 64.8485 47.3044 64.8485 46.7365V41.0134C64.8485 40.4891 64.7169 40.0086 64.4101 39.6591C64.1032 39.3095 63.6648 39.1348 63.0948 39.1348C62.3934 39.1348 61.8235 39.4406 61.3851 40.0522C60.9467 40.6639 60.7275 41.4939 60.7275 42.5861C60.7275 43.5036 60.9467 44.3337 61.3412 45.0327C61.7358 45.7317 62.3057 46.3433 63.0072 46.7802C62.9195 47.1734 62.788 47.4792 62.5249 47.7413C62.2619 48.0035 61.9112 48.1345 61.4727 48.1345C61.0782 48.1345 60.7275 48.0908 60.4206 47.9161C60.1137 47.7413 59.8506 47.5229 59.5876 47.2608C59.0615 46.6928 58.6231 46.0375 58.3162 45.2074C58.0093 44.3774 57.834 43.5036 57.834 42.5861C57.834 41.6687 57.9655 40.8386 58.2285 40.1396C58.4478 39.4406 58.7985 38.829 59.2369 38.3484C59.7191 37.8242 60.2452 37.4747 60.859 37.2125C61.4727 36.9504 62.1304 36.8193 62.8756 36.8193C63.5771 36.8193 64.1909 36.9504 64.8046 37.2125C65.4184 37.4747 65.9006 37.8678 66.2514 38.3921C66.6021 37.8678 67.0843 37.4747 67.6543 37.2125C68.2242 36.9504 68.8818 36.8193 69.5394 36.8193C70.1532 36.8193 70.7231 36.9067 71.2492 37.0815C71.7314 37.2999 72.2137 37.562 72.5644 37.9115C72.959 38.261 73.222 38.6979 73.4412 39.2222C73.6604 39.7464 73.7481 40.3144 73.7481 40.9697V43.9405Z" fill="#377044"/>
<path d="M90.5359 43.9528C90.5359 44.6082 90.4482 45.2198 90.229 45.744C90.0098 46.2683 89.7029 46.7052 89.3522 47.0547C88.9576 47.4479 88.4754 47.71 87.9493 47.9284C87.4232 48.1032 86.8533 48.2343 86.1957 48.2343C85.5381 48.2343 84.9682 48.1032 84.4421 47.9284C83.916 47.71 83.4337 47.4479 83.083 47.0547C82.6884 46.7052 82.3816 46.2683 82.2062 45.744C81.987 45.2198 81.8555 44.6082 81.8555 43.9528C81.8555 43.3412 81.987 42.7296 82.2062 42.2053C82.3816 41.6811 82.6884 41.2442 83.083 40.8947C83.4337 40.5015 83.916 40.2394 84.4421 40.0209C84.9682 39.8462 85.5381 39.7588 86.1957 39.7588C86.8533 39.7588 87.4232 39.8462 87.9493 40.0209C88.4754 40.2394 88.9576 40.5015 89.3522 40.8947C89.7029 41.2442 90.0098 41.6811 90.229 42.2053C90.4482 42.7296 90.5359 43.3412 90.5359 43.9528ZM84.5736 43.9528C84.5736 44.6082 84.7051 45.1324 85.012 45.4819C85.3189 45.8751 85.7134 46.0499 86.1957 46.0499C86.7218 46.0499 87.1163 45.8751 87.3794 45.4819C87.6863 45.1324 87.8178 44.6082 87.8178 43.9528C87.8178 43.3412 87.6863 42.8169 87.3794 42.4674C87.1163 42.1179 86.7218 41.8995 86.1957 41.8995C85.7134 41.8995 85.3189 42.1179 85.012 42.4674C84.7051 42.8169 84.5736 43.3412 84.5736 43.9528Z" fill="#377044"/>
<path d="M105.719 37.0802C105.851 37.0802 106.026 37.0365 106.289 36.9929C106.552 36.9492 106.815 36.9055 107.034 36.9055C107.517 36.9055 107.911 36.9929 108.174 37.1676C108.437 37.3424 108.569 37.7355 108.569 38.3035V46.3421C108.569 46.8663 108.393 47.2595 108.13 47.5653C107.823 47.8275 107.385 48.0022 106.859 48.0022H100.151C99.713 48.0022 99.3623 47.8712 99.1431 47.609C98.88 47.3469 98.7485 46.9537 98.7485 46.4731C99.2307 46.1236 99.6253 45.5994 99.976 44.9441C100.283 44.2887 100.458 43.5461 100.458 42.716C100.458 42.1917 100.414 41.6675 100.283 41.2306C100.108 40.7937 99.9322 40.4005 99.6692 40.0947C99.45 39.7889 99.1431 39.5268 98.7923 39.352C98.4416 39.1773 98.0909 39.0899 97.6963 39.0899C97.2579 39.0899 96.9072 39.1773 96.5565 39.352C96.2058 39.5268 95.8989 39.7889 95.6797 40.0947C95.4166 40.4005 95.2413 40.7937 95.1097 41.2306C94.9782 41.6675 94.8905 42.1917 94.8905 42.716C94.8905 44.5509 95.5043 45.9052 96.7757 46.8227C96.688 47.2595 96.5126 47.5653 96.2496 47.8275C95.9866 48.0459 95.6358 48.1333 95.2413 48.1333C94.9344 48.1333 94.6275 48.0896 94.3645 47.9149C94.0576 47.7838 93.8384 47.5653 93.6192 47.3469C93.1369 46.8663 92.7862 46.211 92.4793 45.4683C92.1724 44.7256 91.9971 43.8082 91.9971 42.716C91.9971 41.8422 92.1286 41.0121 92.3916 40.2695C92.6547 39.5268 93.0492 38.9151 93.5315 38.4346C94.0576 37.9103 94.6275 37.5171 95.3289 37.2113C96.0304 36.9492 96.8195 36.7744 97.6963 36.7744C98.5293 36.7744 99.3184 36.9492 100.02 37.2113C100.721 37.4734 101.335 37.8666 101.817 38.3909C102.3 38.8714 102.694 39.4831 102.957 40.1821C103.22 40.9248 103.352 41.6675 103.352 42.5412C103.352 43.1965 103.264 43.8082 103.089 44.3324C102.87 44.9004 102.65 45.3809 102.343 45.7741H105.719V37.0802Z" fill="#377044"/>
<path d="M112.693 45.8627C113.438 45.8627 114.008 45.6006 114.446 45.0327C114.841 44.4647 115.06 43.6347 115.06 42.4988C115.06 41.4066 114.841 40.5328 114.446 39.9649C114.008 39.3969 113.394 39.1348 112.649 39.1348C112.298 39.1348 111.991 39.1785 111.728 39.3095C111.465 39.4406 111.202 39.5717 110.983 39.7464C110.807 39.6154 110.632 39.4406 110.544 39.2659C110.413 39.0474 110.325 38.829 110.325 38.5669C110.325 38.1737 110.457 37.8242 110.764 37.562C111.027 37.3436 111.334 37.1688 111.728 37.0378C112.166 36.863 112.649 36.8193 113.175 36.8193C113.876 36.8193 114.534 36.9504 115.104 37.2125C115.674 37.431 116.2 37.8242 116.638 38.3047C117.033 38.7853 117.384 39.3969 117.603 40.0959C117.866 40.7949 117.953 41.5813 117.953 42.4988C117.953 43.4162 117.866 44.2463 117.647 44.9453C117.384 45.6443 117.077 46.2559 116.638 46.7365C116.244 47.2171 115.718 47.5666 115.148 47.8287C114.578 48.0471 113.92 48.1782 113.175 48.1782C112.693 48.1782 112.254 48.1345 111.903 48.0471C111.509 47.9598 111.202 47.8287 110.939 47.6103C110.544 47.3481 110.325 46.9549 110.325 46.4307C110.325 46.2122 110.369 45.9938 110.501 45.7754C110.632 45.5132 110.764 45.3385 110.939 45.2511C111.158 45.3822 111.421 45.5569 111.728 45.688C112.035 45.8191 112.342 45.8627 112.693 45.8627Z" fill="#377044"/>
<path d="M125.001 43.6347C124.913 43.5036 124.825 43.3725 124.781 43.1541C124.694 42.9793 124.694 42.7609 124.694 42.4988C124.694 42.2366 124.694 42.0182 124.781 41.8435C124.825 41.6687 124.913 41.494 125.001 41.4066H126.491C126.886 41.4066 127.193 41.3192 127.412 41.1881C127.631 41.0571 127.763 40.7949 127.763 40.4454C127.763 40.0522 127.587 39.7464 127.193 39.4843C126.798 39.2222 126.272 39.0911 125.614 39.0911C124.738 39.0911 124.036 39.3532 123.554 39.8775C123.028 40.3581 122.765 41.0571 122.765 41.9745V47.9598C122.677 48.0035 122.502 48.0035 122.239 48.0471C121.976 48.0908 121.713 48.1345 121.45 48.1345C120.967 48.1345 120.573 48.0471 120.354 47.8724C120.091 47.6976 119.959 47.3045 119.959 46.7365V41.8435C119.959 41.1008 120.091 40.4018 120.354 39.7464C120.617 39.1348 121.011 38.6105 121.493 38.1737C121.976 37.7368 122.589 37.3873 123.291 37.1688C123.992 36.9504 124.781 36.8193 125.614 36.8193C126.404 36.8193 127.061 36.9067 127.675 37.0378C128.289 37.2125 128.815 37.431 129.253 37.7368C129.692 38.0426 130.042 38.3921 130.262 38.829C130.525 39.2222 130.612 39.7027 130.612 40.1833C130.612 40.4891 130.568 40.7513 130.481 41.0134C130.393 41.2755 130.262 41.4503 130.13 41.6687C129.955 41.8435 129.779 42.0182 129.604 42.1056C129.385 42.2366 129.209 42.324 128.99 42.3677C129.56 42.5425 130.042 42.892 130.393 43.3288C130.744 43.7657 130.919 44.3337 130.919 45.0327C130.919 45.4696 130.831 45.9064 130.7 46.2996C130.525 46.6928 130.262 46.9986 129.911 47.3045C129.56 47.5666 129.165 47.8287 128.639 47.9598C128.157 48.1345 127.543 48.2219 126.886 48.2219C126.097 48.2219 125.527 48.0908 125.088 47.8724C124.606 47.6103 124.387 47.2608 124.387 46.7365C124.387 46.3433 124.518 45.9938 124.781 45.688C125.044 45.7754 125.308 45.8627 125.614 45.8627C125.877 45.9064 126.14 45.9501 126.404 45.9501C126.973 45.9501 127.412 45.8191 127.675 45.6006C127.938 45.3822 128.069 45.0764 128.069 44.7269C128.069 44.3337 127.938 44.0715 127.719 43.8968C127.5 43.722 127.193 43.6347 126.754 43.6347H125.001Z" fill="#377044"/>
<path d="M141.008 43.9528C141.008 44.6082 140.877 45.2198 140.701 45.744C140.482 46.2683 140.175 46.7052 139.781 47.0547C139.43 47.4479 138.948 47.71 138.421 47.9284C137.895 48.1032 137.282 48.2343 136.668 48.2343C136.01 48.2343 135.44 48.1032 134.914 47.9284C134.344 47.71 133.906 47.4479 133.511 47.0547C133.161 46.7052 132.854 46.2683 132.635 45.744C132.415 45.2198 132.328 44.6082 132.328 43.9528C132.328 43.3412 132.415 42.7296 132.635 42.2053C132.854 41.6811 133.161 41.2442 133.511 40.8947C133.906 40.5015 134.344 40.2394 134.914 40.0209C135.44 39.8462 136.01 39.7588 136.668 39.7588C137.282 39.7588 137.895 39.8462 138.421 40.0209C138.948 40.2394 139.43 40.5015 139.781 40.8947C140.175 41.2442 140.482 41.6811 140.701 42.2053C140.877 42.7296 141.008 43.3412 141.008 43.9528ZM135.002 43.9528C135.002 44.6082 135.177 45.1324 135.484 45.4819C135.791 45.8751 136.186 46.0499 136.668 46.0499C137.15 46.0499 137.545 45.8751 137.852 45.4819C138.158 45.1324 138.29 44.6082 138.29 43.9528C138.29 43.3412 138.158 42.8169 137.852 42.4674C137.545 42.1179 137.15 41.8995 136.668 41.8995C136.186 41.8995 135.791 42.1179 135.484 42.4674C135.177 42.8169 135.002 43.3412 135.002 43.9528Z" fill="#377044"/>
<path d="M76.0765 58.8694C76.0765 58.2141 75.8573 57.6898 75.4628 57.3403C75.0682 56.9908 74.5421 56.816 73.9283 56.816C73.4023 56.816 73.0077 56.9034 72.657 57.1655C72.3062 57.4277 72.087 57.7335 71.9117 58.083L71.9555 58.1267C72.087 57.9956 72.2186 57.9082 72.4378 57.8209C72.6131 57.7335 72.8762 57.6461 73.1392 57.6461C73.3584 57.6461 73.6215 57.7335 73.8407 57.8209C74.0599 57.9082 74.2791 57.9956 74.4106 58.1704C74.586 58.3451 74.7175 58.5199 74.8052 58.7383C74.8928 58.9567 74.9367 59.2189 74.9367 59.481C74.9367 59.7431 74.8928 60.0489 74.7613 60.2674C74.6736 60.4858 74.4983 60.7043 74.3229 60.879C74.1475 61.0101 73.8845 61.1411 73.6215 61.2722C73.3584 61.3596 73.0515 61.4033 72.7447 61.4033C72.087 61.4033 71.561 61.1848 71.1226 60.748C70.728 60.3548 70.5088 59.7431 70.5088 58.9131C70.5088 58.4325 70.5965 57.9956 70.7718 57.5587C70.9034 57.1655 71.1664 56.816 71.4733 56.5539C71.7363 56.2481 72.1309 56.0297 72.5254 55.8549C72.9639 55.6801 73.4461 55.5928 73.9722 55.5928C74.586 55.5928 75.112 55.7238 75.5943 55.9423C76.0765 56.1607 76.4711 56.5102 76.7341 56.9471C76.8218 56.7287 76.9533 56.5102 77.1287 56.3792C77.3041 56.2044 77.4794 56.0297 77.6548 55.9423C77.874 55.8112 78.0932 55.7238 78.3124 55.6801C78.5316 55.6365 78.7508 55.5928 79.0138 55.5928C79.4522 55.5928 79.8468 55.6801 80.1975 55.8549C80.5921 55.986 80.899 56.2044 81.162 56.5102C81.4251 56.816 81.6443 57.1655 81.7758 57.6024C81.9073 58.0393 81.995 58.5199 81.995 59.0878C81.995 59.7431 81.9073 60.3111 81.6881 60.7916C81.5127 61.3159 81.2497 61.7528 80.8551 62.1023C80.5044 62.4518 80.066 62.7576 79.5399 62.9324C79.0138 63.1508 78.4001 63.2382 77.7425 63.2382H72.7008C72.5254 63.2382 72.3501 63.2819 72.2624 63.3692C72.1747 63.5003 72.087 63.5877 72.087 63.7624C72.087 63.8935 72.1747 64.0246 72.2624 64.1556C72.3501 64.243 72.5254 64.2867 72.7008 64.2867H80.9867C81.2059 64.2867 81.3812 64.3304 81.5127 64.4614C81.6004 64.5488 81.6881 64.7236 81.6881 64.942C81.6881 65.0731 81.6443 65.1604 81.6443 65.2478C81.6004 65.3789 81.5566 65.4226 81.5127 65.5099H72.6131C71.9555 65.5099 71.4733 65.3352 71.0787 65.0731C70.728 64.7672 70.5526 64.3304 70.5526 63.7624C70.5526 63.2382 70.728 62.8013 71.0787 62.4955C71.4733 62.1897 71.9555 62.0586 72.6131 62.0586H77.4794C78.4001 62.0586 79.1454 61.7965 79.6276 61.2722C80.1537 60.748 80.3729 60.0053 80.3729 59.0878C80.3729 58.3888 80.2414 57.8209 79.9783 57.4714C79.6714 57.1219 79.3207 56.9034 78.8823 56.9034C78.4878 56.9034 78.1809 57.0345 77.9617 57.2966C77.7425 57.5587 77.6109 57.9082 77.6109 58.3888V60.9227C77.4356 61.0975 77.1725 61.1848 76.8218 61.1848C76.5149 61.1848 76.2519 61.0975 76.0765 60.9227V58.8694ZM71.9555 59.4373C71.9555 59.6994 71.9994 59.9179 72.1747 60.0489C72.3062 60.18 72.4816 60.2674 72.7447 60.2674C72.9639 60.2674 73.1831 60.18 73.3146 60.0489C73.4461 59.9179 73.5338 59.6994 73.5338 59.4373C73.5338 59.2189 73.4461 59.0004 73.3146 58.8694C73.1831 58.7383 72.9639 58.6509 72.7447 58.6509C72.4816 58.6509 72.3062 58.7383 72.1747 58.8694C71.9994 59.0004 71.9555 59.2189 71.9555 59.4373Z" fill="#373435"/>
<path d="M86.5995 55.5928C87.1255 55.5928 87.5639 55.7238 88.0023 55.9423C88.4408 56.1607 88.7915 56.5102 89.0107 56.9908C89.2737 56.5539 89.6683 56.2044 90.1067 55.9423C90.5889 55.7238 91.115 55.5928 91.685 55.5928C92.3426 55.5928 93.0002 55.7675 93.5701 56.117C93.877 55.9423 94.1839 55.8549 94.4907 55.7238C94.7976 55.6365 95.1483 55.5928 95.5429 55.5928C96.1128 55.5928 96.6828 55.7238 97.165 55.8986C97.6473 56.117 98.0418 56.3792 98.3925 56.7287C98.7433 57.1219 99.0063 57.5587 99.1817 58.083C99.4009 58.6072 99.4886 59.2189 99.4886 59.8742C99.4886 60.4421 99.4009 61.0101 99.2255 61.5343C99.094 62.0149 98.8748 62.4518 98.6117 62.7576C98.4364 62.9324 98.3049 63.0634 98.1295 63.1508C97.9541 63.2819 97.7788 63.3256 97.5596 63.3256C97.3842 63.3256 97.165 63.2382 97.0335 63.1508C96.902 63.0197 96.8143 62.845 96.7704 62.6702C97.0335 62.4081 97.2965 62.0149 97.5157 61.578C97.7349 61.0975 97.8665 60.5295 97.8665 59.8742C97.8665 59.3936 97.8226 59.0004 97.6911 58.6072C97.5596 58.2141 97.3842 57.9082 97.165 57.6461C96.9458 57.384 96.6828 57.1655 96.3759 57.0345C96.069 56.9034 95.7183 56.816 95.3237 56.816C95.236 56.816 95.1045 56.816 94.973 56.8597C94.8853 56.8597 94.7538 56.8597 94.6223 56.9034C95.1045 57.2966 95.4552 57.7772 95.7183 58.3451C96.0252 58.9131 96.1567 59.5684 96.1567 60.3111C96.1567 61.2722 95.9375 62.0149 95.4991 62.5829C95.0607 63.1071 94.4031 63.3692 93.5701 63.3692C92.7371 63.3692 92.0795 63.1071 91.6411 62.5829C91.2027 62.0149 90.9835 61.2722 90.9835 60.3111C90.9835 59.5684 91.115 58.9131 91.3781 58.3451C91.685 57.7772 92.0357 57.2966 92.5179 56.9034C92.3864 56.8597 92.2549 56.8597 92.1672 56.8597C92.0357 56.816 91.948 56.816 91.8165 56.816C91.5096 56.816 91.2465 56.8597 90.9835 56.9908C90.7205 57.0782 90.5013 57.2529 90.3259 57.4277C90.1067 57.6024 89.9752 57.8646 89.8436 58.1267C89.7121 58.4325 89.6683 58.7383 89.6683 59.0878V63.1945C89.5806 63.1945 89.4929 63.2382 89.3614 63.2819C89.186 63.2819 89.0545 63.2819 88.923 63.2819C88.66 63.2819 88.4408 63.2382 88.2654 63.1508C88.1339 63.0197 88.09 62.8013 88.09 62.4955V58.4325C88.09 57.9956 87.9585 57.6024 87.6955 57.3403C87.4763 57.0782 87.1255 56.9034 86.6871 56.9034C86.161 56.9034 85.7226 57.1219 85.4158 57.6024C85.065 58.0393 84.8897 58.6509 84.8897 59.481C84.8897 60.18 85.065 60.748 85.3281 61.2722C85.635 61.7965 86.0295 62.1897 86.5556 62.5392C86.5118 62.7576 86.4241 62.9324 86.2926 63.0634C86.161 63.2382 85.9418 63.3256 85.6788 63.3256C85.4596 63.3256 85.2842 63.2819 85.1089 63.1945C84.8897 63.1071 84.7143 62.976 84.539 62.8013C84.1882 62.4081 83.8813 61.9275 83.6183 61.3596C83.3991 60.7916 83.2676 60.18 83.2676 59.481C83.2676 58.8694 83.3553 58.3014 83.5306 57.8209C83.6621 57.3403 83.9252 56.9471 84.1882 56.5976C84.4951 56.2918 84.8458 56.0297 85.2842 55.8549C85.6788 55.6801 86.1172 55.5928 86.5995 55.5928ZM94.5784 60.3111C94.5784 59.6994 94.4907 59.1315 94.3154 58.6509C94.0962 58.1704 93.877 57.7772 93.5701 57.4714C93.2632 57.7772 93.044 58.1704 92.8248 58.6509C92.6494 59.1315 92.5618 59.6994 92.5618 60.3111C92.5618 60.879 92.6494 61.3159 92.8248 61.6217C93.0002 61.9712 93.2194 62.1023 93.5701 62.1023C93.9208 62.1023 94.14 61.9712 94.3154 61.6217C94.4907 61.3159 94.5784 60.879 94.5784 60.3111Z" fill="#373435"/>
<path d="M103.245 56.0297C103.07 56.3355 102.894 56.685 102.719 57.1655C102.587 57.6461 102.544 58.2141 102.544 58.9131C102.544 59.4373 102.587 59.9179 102.675 60.3548C102.763 60.8353 102.85 61.2722 102.982 61.6654C103.07 62.1023 103.157 62.4955 103.289 62.9324C103.377 63.3255 103.42 63.7624 103.42 64.1993C103.42 64.5925 103.333 64.942 103.201 65.2041C103.113 65.5099 102.938 65.7721 102.719 65.9468C102.456 66.1653 102.193 66.2963 101.886 66.4274C101.579 66.5148 101.272 66.5585 100.878 66.5585C100.527 66.5585 100.22 66.5148 99.9131 66.4274C99.6501 66.34 99.3871 66.209 99.1679 66.0342C98.9487 65.9031 98.7733 65.6847 98.6856 65.4663C98.5541 65.2478 98.5103 64.9857 98.5103 64.7236C98.5103 64.4614 98.5541 64.243 98.6856 64.1119C98.861 63.9372 99.0802 63.8498 99.3432 63.8498C99.4747 63.8498 99.5624 63.8935 99.6501 63.8935C99.7378 63.9372 99.8255 63.9809 99.9131 64.0246V64.2867C99.9131 64.5925 100.001 64.8546 100.176 65.0294C100.352 65.2041 100.571 65.3352 100.878 65.3352C101.141 65.3352 101.36 65.2478 101.579 65.0294C101.754 64.8546 101.886 64.5925 101.886 64.1993C101.886 63.8061 101.842 63.4566 101.711 63.0634C101.623 62.7139 101.535 62.277 101.404 61.8838C101.316 61.447 101.185 60.9664 101.097 60.4858C101.009 59.9616 100.965 59.4373 100.965 58.8257C100.965 58.3888 101.009 57.9082 101.097 57.4714C101.185 57.0345 101.316 56.6413 101.535 56.2918C101.623 56.0733 101.798 55.8986 101.93 55.7675C102.061 55.6801 102.237 55.5928 102.456 55.5928C102.631 55.5928 102.763 55.6365 102.894 55.7238C103.026 55.8112 103.157 55.8986 103.245 56.0297Z" fill="#373435"/>
</svg>
