<svg width="102" height="103" viewBox="0 0 102 103" fill="none" xmlns="http://www.w3.org/2000/svg">
<path fill-rule="evenodd" clip-rule="evenodd" d="M30.7279 30.1855C35.9812 30.2291 40.484 33.331 42.3823 38.1804C44.2364 42.9423 43.0886 48.0975 39.0714 51.5052C36.3785 53.777 35.2307 56.6167 34.8776 59.9807C34.4803 63.3883 31.5667 66.0533 28.2558 66.097C24.7683 66.1407 21.8106 63.6941 21.2367 60.1991C21.1925 59.8933 21.0601 59.5001 21.1925 59.238C21.3691 58.8885 21.7664 58.3642 22.0313 58.3642C22.4286 58.3642 22.9142 58.7137 23.1349 59.0632C23.3557 59.369 23.2674 59.8496 23.3557 60.2428C23.8413 62.5146 25.9602 64.1747 28.2116 64.0436C30.6396 63.9563 32.582 62.1214 32.891 59.7622C32.9793 58.7574 33.1559 57.7963 33.3766 56.7914C33.9064 54.2138 35.319 52.1168 37.3497 50.413C39.4246 48.7528 40.5723 46.6121 41.0138 43.9909C41.9408 38.6609 37.8795 33.1126 32.4496 32.3699C28.7855 31.8893 25.6512 32.8504 23.0908 35.6028C22.6493 36.0833 22.2079 36.4765 21.5898 35.8649C21.016 35.3406 21.1042 34.7727 21.5898 34.2048C23.5322 31.7145 27.108 30.1418 30.7279 30.1855Z" fill="#F58B71"/>
<path fill-rule="evenodd" clip-rule="evenodd" d="M30.7279 30.1855C35.9812 30.2291 40.484 33.331 42.3823 38.1804C44.2364 42.9423 43.0886 48.0975 39.0714 51.5052C36.3785 53.777 35.2307 56.6167 34.8776 59.9807C34.4803 63.3883 31.5667 66.0533 28.2558 66.097C24.7683 66.1407 21.8106 63.6941 21.2367 60.1991C21.1925 59.8933 21.0601 59.5001 21.1925 59.238C21.3691 58.8885 21.7664 58.3642 22.0313 58.3642C22.4286 58.3642 22.9142 58.7137 23.1349 59.0632C23.3557 59.369 23.2674 59.8496 23.3557 60.2428C23.8413 62.5146 25.9602 64.1747 28.2116 64.0436C30.6396 63.9563 32.582 62.1214 32.891 59.7622C32.9793 58.7574 33.1559 57.7963 33.3766 56.7914C33.9064 54.2138 35.319 52.1168 37.3497 50.413C39.4246 48.7528 40.5723 46.6121 41.0138 43.9909C41.9408 38.6609 37.8795 33.1126 32.4496 32.3699C28.7855 31.8893 25.6512 32.8504 23.0908 35.6028C22.6493 36.0833 22.2079 36.4765 21.5898 35.8649C21.016 35.3406 21.1042 34.7727 21.5898 34.2048C23.5322 31.7145 27.108 30.1418 30.7279 30.1855Z" stroke="#F58B71" stroke-width="0.0135276"/>
<path fill-rule="evenodd" clip-rule="evenodd" d="M30.6273 49.8229C30.6273 48.4249 30.8922 47.9006 31.6427 47.9443C32.9229 48.0317 32.6139 49.0365 32.7022 49.7792C32.967 52.881 30.9363 55.7208 28.1552 56.3324C26.6542 56.5945 25.374 56.2887 24.4028 55.1965C23.3875 53.9732 23.1226 52.5752 23.7848 51.1772C24.1821 50.3035 24.8001 49.5171 25.4623 48.8617C26.5659 47.7259 26.6542 47.4637 25.7272 46.1531C25.5506 45.8473 25.3299 45.5415 25.1092 45.2793C23.1668 43.0512 23.7406 40.6484 25.1092 38.6824C27.3606 35.3622 32.2166 34.7505 35.3067 37.3281C38.3086 39.862 38.5293 44.6677 35.6599 47.4637C35.395 47.7259 35.0419 48.0317 34.6887 48.0317C34.3797 48.0754 33.8058 47.7695 33.7616 47.4637C33.6292 47.1142 33.7616 46.5463 34.0265 46.2842C35.0419 45.192 35.704 43.9687 35.704 42.4396C35.6599 40.1242 33.8058 38.0708 31.4219 37.765C29.303 37.5029 26.7425 39.1193 26.1245 41.0853C25.8155 42.0464 25.9921 42.8765 26.5659 43.6629C27.0515 44.4056 27.5813 45.1046 28.0227 45.891C28.7291 47.1579 28.5966 48.3812 27.6254 49.4734C27.1398 49.9976 26.6542 50.4782 26.1686 51.0461C25.4182 51.8762 25.3299 53.0558 25.9038 53.7548C26.4777 54.4538 27.6254 54.5412 28.6849 53.9296C29.921 53.2305 30.6715 51.7015 30.6273 49.8229Z" fill="#F58B71"/>
<path fill-rule="evenodd" clip-rule="evenodd" d="M30.6273 49.8229C30.6273 48.4249 30.8922 47.9006 31.6427 47.9443C32.9229 48.0317 32.6139 49.0365 32.7022 49.7792C32.967 52.881 30.9363 55.7208 28.1552 56.3324C26.6542 56.5945 25.374 56.2887 24.4028 55.1965C23.3875 53.9732 23.1226 52.5752 23.7848 51.1772C24.1821 50.3035 24.8001 49.5171 25.4623 48.8617C26.5659 47.7259 26.6542 47.4637 25.7272 46.1531C25.5506 45.8473 25.3299 45.5415 25.1092 45.2793C23.1668 43.0512 23.7406 40.6484 25.1092 38.6824C27.3606 35.3622 32.2166 34.7505 35.3067 37.3281C38.3086 39.862 38.5293 44.6677 35.6599 47.4637C35.395 47.7259 35.0419 48.0317 34.6887 48.0317C34.3797 48.0754 33.8058 47.7695 33.7616 47.4637C33.6292 47.1142 33.7616 46.5463 34.0265 46.2842C35.0419 45.192 35.704 43.9687 35.704 42.4396C35.6599 40.1242 33.8058 38.0708 31.4219 37.765C29.303 37.5029 26.7425 39.1193 26.1245 41.0853C25.8155 42.0464 25.9921 42.8765 26.5659 43.6629C27.0515 44.4056 27.5813 45.1046 28.0227 45.891C28.7291 47.1579 28.5966 48.3812 27.6254 49.4734C27.1398 49.9976 26.6542 50.4782 26.1686 51.0461C25.4182 51.8762 25.3299 53.0558 25.9038 53.7548C26.4777 54.4538 27.6254 54.5412 28.6849 53.9296C29.921 53.2305 30.6715 51.7015 30.6273 49.8229Z" stroke="#F58B71" stroke-width="0.0135276"/>
<path fill-rule="evenodd" clip-rule="evenodd" d="M53.1945 53.4719C53.1945 59.2388 49.2655 64.1755 43.5708 65.3551C42.5996 65.5735 41.5401 65.5735 40.5248 65.4424C40.1716 65.3988 39.686 64.7871 39.5977 64.3939C39.5094 63.7823 39.995 63.5202 40.6572 63.5202C48.4268 63.3017 52.9296 56.8796 50.5016 49.4526C50.2809 48.7099 49.9277 48.0109 49.6187 47.3119C49.3538 46.6566 49.4421 46.1324 50.1043 45.7828C50.8106 45.477 51.2521 45.8265 51.5169 46.4819C52.5764 48.6663 53.2386 50.9817 53.1945 53.4719Z" fill="#F58B71"/>
<path fill-rule="evenodd" clip-rule="evenodd" d="M53.1945 53.4719C53.1945 59.2388 49.2655 64.1755 43.5708 65.3551C42.5996 65.5735 41.5401 65.5735 40.5248 65.4424C40.1716 65.3988 39.686 64.7871 39.5977 64.3939C39.5094 63.7823 39.995 63.5202 40.6572 63.5202C48.4268 63.3017 52.9296 56.8796 50.5016 49.4526C50.2809 48.7099 49.9277 48.0109 49.6187 47.3119C49.3538 46.6566 49.4421 46.1324 50.1043 45.7828C50.8106 45.477 51.2521 45.8265 51.5169 46.4819C52.5764 48.6663 53.2386 50.9817 53.1945 53.4719Z" stroke="#F58B71" stroke-width="0.0135276"/>
<path fill-rule="evenodd" clip-rule="evenodd" d="M49.0435 52.9804C48.9552 57.7423 44.938 61.4995 40.2586 61.1063C39.5523 61.0626 39.155 60.6694 39.155 60.0578C39.155 59.4462 39.5523 59.0967 40.2145 59.0967C40.9208 59.053 41.6713 59.0093 42.3776 58.7908C45.8651 57.9171 47.5426 54.6405 46.4831 50.927C46.3507 50.4901 46.1741 50.0969 45.9975 49.6601C45.7768 48.9611 45.9092 48.3931 46.6597 48.0873C47.4101 47.8252 47.7633 48.3494 47.9399 48.8737C48.3372 50.228 48.6462 51.626 49.0435 52.9804Z" fill="#F58B71"/>
<path fill-rule="evenodd" clip-rule="evenodd" d="M49.0435 52.9804C48.9552 57.7423 44.938 61.4995 40.2586 61.1063C39.5523 61.0626 39.155 60.6694 39.155 60.0578C39.155 59.4462 39.5523 59.0967 40.2145 59.0967C40.9208 59.053 41.6713 59.0093 42.3776 58.7908C45.8651 57.9171 47.5426 54.6405 46.4831 50.927C46.3507 50.4901 46.1741 50.0969 45.9975 49.6601C45.7768 48.9611 45.9092 48.3931 46.6597 48.0873C47.4101 47.8252 47.7633 48.3494 47.9399 48.8737C48.3372 50.228 48.6462 51.626 49.0435 52.9804Z" stroke="#F58B71" stroke-width="0.0135276"/>
<path fill-rule="evenodd" clip-rule="evenodd" d="M44.32 53.1054C44.1876 55.2461 42.4659 56.9063 40.4352 56.9063C39.6847 56.9063 39.1991 56.5568 39.155 55.8141C39.155 55.115 39.6406 54.8966 40.3028 54.8529C42.0244 54.6782 42.5983 53.717 41.8037 52.188C41.4947 51.5326 41.4947 51.0521 42.201 50.7026C42.8632 50.3094 43.3929 50.6589 43.6578 51.2705C43.9668 51.8384 44.0993 52.4938 44.32 53.1054Z" fill="#F58B71"/>
<path fill-rule="evenodd" clip-rule="evenodd" d="M44.32 53.1054C44.1876 55.2461 42.4659 56.9063 40.4352 56.9063C39.6847 56.9063 39.1991 56.5568 39.155 55.8141C39.155 55.115 39.6406 54.8966 40.3028 54.8529C42.0244 54.6782 42.5983 53.717 41.8037 52.188C41.4947 51.5326 41.4947 51.0521 42.201 50.7026C42.8632 50.3094 43.3929 50.6589 43.6578 51.2705C43.9668 51.8384 44.0993 52.4938 44.32 53.1054Z" stroke="#F58B71" stroke-width="0.0135276"/>
<path fill-rule="evenodd" clip-rule="evenodd" d="M38.9009 90.8534C44.718 93.048 51.0795 94.2574 57.744 94.2574C65.9992 94.2574 73.8129 92.3788 80.6996 89.1022C72.2678 95.3933 61.8054 99.1505 50.46 99.1505C44.0045 99.1505 37.8346 97.9432 32.1685 95.7449L38.9009 90.8534ZM24.7695 82.7591C14.298 74.2515 7.68322 61.7649 7.68322 47.8608C7.68322 22.2596 30.109 1.46416 57.744 1.46416C59.7747 1.46416 61.8054 1.59523 63.7919 1.81367C59.554 0.634093 55.0511 0.0224609 50.46 0.0224609C22.7809 0.0224609 0.355103 22.216 0.355103 49.6083C0.355103 67.0598 9.48655 82.4121 23.2875 91.2383L24.7695 82.7591Z" fill="#F47D5C"/>
<path d="M28.8027 79.6738L21.8278 102.129L40.2805 85.1785L28.8027 79.6738Z" fill="#377044"/>
<path fill-rule="evenodd" clip-rule="evenodd" d="M16.1053 48.7104C16.1053 69.8116 33.3661 86.8936 54.6883 86.8936C68.8315 86.8936 81.2194 79.3467 87.9369 68.0888H92.7769C85.6617 81.7506 71.2619 91.0877 54.6883 91.0877C31.0264 91.0877 11.8673 72.1271 11.8673 48.7104C11.8673 25.2936 31.0264 6.33301 54.6883 6.33301C70.4201 6.33301 84.1932 14.7456 91.6369 27.2842H86.6247C79.6785 17.1683 67.9557 10.5271 54.6883 10.5271C33.3661 10.5271 16.1053 27.6091 16.1053 48.7104Z" fill="#377044"/>
<path d="M67.9514 37.4091C68.1721 37.7586 68.3045 38.1955 68.437 38.676C68.6136 39.1566 68.6577 39.7245 68.6577 40.4235C68.6577 41.6031 68.4811 42.4769 68.0838 43.0011C67.6865 43.5254 67.2009 43.8312 66.627 43.8312C66.2739 43.8312 65.9648 43.7438 65.7 43.6128C65.4351 43.4817 65.2144 43.307 65.0378 43.1322C65.2144 42.6516 65.391 42.0837 65.4792 41.4721C65.5675 40.9041 65.6117 40.2925 65.6117 39.7245C65.6117 39.244 65.5675 38.8508 65.4792 38.4576C65.391 38.0644 65.3027 37.7149 65.2144 37.4091H62.1242V43.6128C62.4774 43.7875 62.8747 43.9623 63.272 44.1807C63.7134 44.3555 64.199 44.5739 64.6405 44.836C65.1261 45.0545 65.5675 45.3166 66.009 45.535C66.4504 45.7972 66.8477 46.0156 67.2009 46.1904C67.6424 46.4525 67.9514 46.7146 68.1721 46.9767C68.3928 47.2389 68.4811 47.5884 68.4811 47.9379C68.4811 48.3748 68.3487 48.7243 68.0397 49.0301C67.7307 49.2922 67.3333 49.467 66.8036 49.467C66.4063 49.1611 65.9207 48.8116 65.391 48.4621C64.8612 48.1126 64.3315 47.7194 63.7134 47.3699C63.1396 46.9767 62.5215 46.6272 61.9035 46.234C61.2855 45.8409 60.6674 45.4914 60.0935 45.1855C59.7845 45.0108 59.5638 44.836 59.4314 44.6176C59.2548 44.4428 59.1665 44.137 59.1665 43.7875V37.4091H57.8421C57.489 37.4091 57.2682 37.3217 57.1358 37.1033C57.0475 36.9285 56.9592 36.6664 56.9592 36.2732C56.9592 36.1421 57.0034 35.9674 57.0034 35.7489C57.0475 35.5305 57.0917 35.3557 57.1358 35.2684H64.9054C64.6405 34.8315 64.3315 34.4383 63.9783 34.0888C63.581 33.7393 63.1837 33.4335 62.7864 33.1713C62.3891 32.8655 61.9476 32.6471 61.5503 32.4286C61.1089 32.2539 60.7116 32.0791 60.4026 31.9918C60.3584 31.9044 60.3584 31.8607 60.3584 31.817C60.3584 31.7296 60.3584 31.6859 60.3584 31.5986C60.3584 31.118 60.4908 30.6811 60.7557 30.3316C61.0206 29.9821 61.462 29.7637 61.9918 29.7637C62.5215 29.7637 63.0513 29.9384 63.581 30.2442C64.1107 30.5501 64.6405 30.9869 65.1261 31.4675C65.6117 31.9918 66.0531 32.6034 66.4504 33.2587C66.8477 33.914 67.2009 34.5694 67.4216 35.2684H69.5847C70.1586 35.2684 70.4677 35.6179 70.4677 36.3169C70.4677 36.4916 70.4235 36.6664 70.3794 36.8848C70.3352 37.1033 70.2911 37.278 70.2469 37.4091H67.9514Z" fill="#377044"/>
<path d="M79.8943 37.4425V39.4521C80.2033 39.2337 80.5565 39.1026 80.9538 38.9715C81.3511 38.8842 81.7925 38.7968 82.3223 38.7968C82.8961 38.7968 83.3817 38.8842 83.8673 39.1026C84.3529 39.2774 84.7502 39.5395 85.1034 39.8453C85.4566 40.1948 85.7656 40.588 85.9422 41.1123C86.1629 41.5928 86.2953 42.1608 86.2953 42.7724C86.2953 43.384 86.1629 43.952 85.9863 44.4325C85.7656 44.9131 85.5007 45.3063 85.1917 45.6121C84.8385 45.9616 84.4412 46.1801 83.9998 46.3548C83.5583 46.5296 83.1169 46.6169 82.6313 46.6169C81.4394 46.6169 80.8213 46.1364 80.8213 45.2189C80.8213 45.0005 80.8213 44.8257 80.9096 44.651C80.9538 44.5199 81.0421 44.3452 81.0862 44.2141C81.3069 44.2578 81.4835 44.3015 81.7042 44.3015C82.1457 44.3015 82.4988 44.1704 82.7637 43.9083C83.0727 43.6462 83.2493 43.253 83.2493 42.7287C83.2493 42.2481 83.0727 41.855 82.7637 41.5491C82.4547 41.287 82.0132 41.1559 81.4835 41.1559C81.1745 41.1559 80.8655 41.1996 80.6006 41.3307C80.3357 41.4618 80.0709 41.5928 79.8943 41.8113V48.0587C79.7618 48.1023 79.5853 48.146 79.3645 48.1897C79.1438 48.2334 78.9231 48.2771 78.6141 48.2771C77.996 48.2771 77.5546 48.146 77.2897 47.9713C77.069 47.7528 76.9366 47.4033 76.9366 46.9228V45.8743C76.6275 46.0927 76.2744 46.2238 75.8771 46.3548C75.4356 46.4859 74.9942 46.5296 74.4644 46.5296C73.9347 46.5296 73.4049 46.4422 72.9635 46.2674C72.4779 46.0927 72.0364 45.8306 71.6833 45.5247C71.286 45.1752 71.0211 44.7384 70.8004 44.2578C70.5797 43.7772 70.4472 43.1656 70.4472 42.5103C70.4472 41.8986 70.5797 41.3744 70.7562 40.8938C70.977 40.4133 71.2418 40.0201 71.595 39.7142C71.9482 39.3647 72.3455 39.1463 72.7869 38.9715C73.2284 38.7968 73.6698 38.7094 74.1554 38.7094C74.8617 38.7094 75.3473 38.8405 75.6563 39.1026C75.9654 39.3647 76.1419 39.7142 76.1419 40.1948C76.1419 40.588 76.0537 40.8938 75.8329 41.1996C75.7446 41.1559 75.6563 41.1123 75.5239 41.1123C75.4356 41.0686 75.259 41.0686 75.0825 41.0686C74.641 41.0686 74.2437 41.1996 73.9347 41.4618C73.6698 41.7239 73.4932 42.1171 73.4932 42.5977C73.4932 43.0782 73.6698 43.4714 73.9788 43.7772C74.2878 44.0394 74.7293 44.2141 75.259 44.2141C75.6563 44.2141 75.9654 44.1267 76.2302 43.9957C76.5392 43.8646 76.76 43.6899 76.9366 43.5151V37.4425H69.8292C69.476 37.4425 69.2553 37.3551 69.1229 37.1367C69.0346 36.9619 68.9463 36.6998 68.9463 36.3066C68.9463 36.1755 68.9904 36.0008 68.9904 35.7823C69.0346 35.5639 69.0787 35.3891 69.1229 35.3018H86.8251C87.3548 35.3018 87.6638 35.6513 87.6638 36.3503C87.6638 36.525 87.6197 36.6998 87.6197 36.9182C87.5755 37.1367 87.5314 37.3114 87.4431 37.4425H79.8943Z" fill="#377044"/>
<path d="M91.3575 37.4425V48.0587C91.1809 48.1023 91.0044 48.146 90.8278 48.1897C90.6071 48.2334 90.3422 48.2771 90.0773 48.2771C89.4151 48.2771 88.9736 48.146 88.7529 47.9713C88.488 47.7528 88.3997 47.4033 88.3997 46.9228V37.4425H87.0312C86.7222 37.4425 86.5015 37.3551 86.369 37.1367C86.2366 36.9619 86.1924 36.6998 86.1924 36.3066C86.1924 36.1755 86.1924 36.0008 86.2366 35.7823C86.2807 35.5639 86.3249 35.3891 86.369 35.3018H92.6819C93.2558 35.3018 93.5207 35.6513 93.5207 36.3503C93.5207 36.525 93.5207 36.6998 93.4765 36.9182C93.4324 37.1367 93.3883 37.3114 93.3 37.4425H91.3575Z" fill="#377044"/>
<path d="M73.5033 59.4383C73.724 59.3509 73.9447 59.3072 74.2096 59.2635C74.4745 59.2198 74.7394 59.1762 75.0042 59.1762C75.843 59.1762 76.461 59.3509 76.9025 59.7441C77.2998 60.0936 77.5205 60.5305 77.5205 61.0984C77.5205 61.4479 77.4322 61.7537 77.2998 62.0159C77.1232 62.278 76.9466 62.4964 76.6818 62.6712C76.4169 62.8459 76.0637 62.977 75.7106 63.0644C75.3133 63.1517 74.9159 63.1954 74.4745 63.1954C74.4303 63.1954 74.3862 63.1954 74.3862 63.1954C74.342 63.1954 74.2979 63.1954 74.2538 63.1517C74.4745 63.3702 74.7394 63.5886 75.0042 63.7634C75.225 63.9381 75.534 64.1566 75.843 64.3313C75.7989 64.5935 75.7106 64.8119 75.534 64.9866C75.4015 65.2051 75.1367 65.2925 74.8276 65.2925C74.5186 65.2925 74.2538 65.1614 73.9889 64.943C73.724 64.7245 73.4591 64.4187 73.1943 63.9381L72.6645 63.0207C72.2672 62.9333 71.914 62.7586 71.6933 62.5401C71.4284 62.3654 71.296 62.1469 71.296 61.8848C71.296 61.6664 71.3843 61.4916 71.4726 61.3605C71.605 61.2295 71.7374 61.1421 71.914 61.0547C72.1789 61.3169 72.5321 61.5353 72.9735 61.7537C73.415 61.9285 73.9006 62.0159 74.4745 62.0159C74.9601 62.0159 75.3133 61.9285 75.534 61.7537C75.7989 61.6227 75.8871 61.4042 75.8871 61.1421C75.8871 60.6179 75.4457 60.3557 74.6069 60.3557C74.342 60.3557 74.1213 60.3557 73.8564 60.4431C73.5916 60.4868 73.3708 60.5305 73.1501 60.6179C72.9735 60.5305 72.7528 60.4431 72.5762 60.3557C72.3555 60.2247 72.1789 60.0936 72.0023 59.9188C71.8699 59.7878 71.6933 59.5693 71.605 59.3946C71.4726 59.1762 71.4284 58.914 71.4284 58.6519C71.4284 58.1276 71.605 57.7344 71.9582 57.4286C72.3113 57.1228 72.8852 56.9481 73.5916 56.9481H75.4015V55.9432H70.7662C70.4131 55.9432 70.2806 55.7248 70.2806 55.3316C70.2806 55.2442 70.2806 55.1569 70.2806 55.0695C70.3248 54.9384 70.3248 54.851 70.3689 54.7637H78.0503C78.3593 54.7637 78.5359 54.9821 78.5359 55.3753C78.5359 55.4627 78.5359 55.5501 78.4917 55.6811C78.4917 55.7685 78.4476 55.8559 78.4035 55.9432H76.9466V57.516C76.9466 57.8655 76.7259 58.084 76.2845 58.084H73.9447C73.5916 58.084 73.3708 58.1276 73.2384 58.2587C73.106 58.3898 73.0618 58.5208 73.0618 58.7393C73.0618 58.914 73.106 59.0451 73.1943 59.1325C73.2825 59.2635 73.3708 59.3509 73.5033 59.4383Z" fill="#373435"/>
<path d="M75.155 52.7309C75.155 52.4688 75.2433 52.2504 75.4198 52.0756C75.5964 51.9009 75.8172 51.8135 76.1262 51.8135C76.4352 51.8135 76.7001 51.9009 76.8767 52.0756C77.0532 52.2504 77.1415 52.4688 77.1415 52.7309C77.1415 52.9931 77.0532 53.2115 76.8767 53.4299C76.7001 53.6047 76.4352 53.6921 76.1262 53.6921C75.8172 53.6921 75.5964 53.6047 75.4198 53.4299C75.2433 53.2115 75.155 52.9931 75.155 52.7309Z" fill="#373435"/>
<path d="M80.6988 55.9368V63.0579C80.6105 63.0579 80.5223 63.0579 80.3898 63.1016C80.3015 63.1016 80.1691 63.1453 79.9925 63.1453C79.6835 63.1453 79.4628 63.0579 79.3304 62.9706C79.1979 62.8395 79.1096 62.6647 79.1096 62.4463V55.9368H78.0943C77.9177 55.9368 77.7853 55.8931 77.7411 55.8057C77.6528 55.6747 77.6087 55.5436 77.6087 55.3252C77.6087 55.2378 77.6528 55.1504 77.6528 55.063C77.6528 54.932 77.697 54.8446 77.697 54.7572H79.0213C78.933 54.6698 78.8889 54.4951 78.8448 54.3203C78.8006 54.1019 78.8006 53.9271 78.8006 53.7087C78.8006 52.9223 79.1096 52.3107 79.7277 51.8738C80.3457 51.3932 81.2286 51.1748 82.3322 51.1748C83.0827 51.1748 83.7448 51.2622 84.3629 51.4369C84.9809 51.6117 85.5106 51.7864 85.9521 52.0486C86.3935 52.267 86.7025 52.5291 86.9674 52.7913C87.1881 53.0534 87.3206 53.2718 87.3206 53.4466C87.3206 53.6213 87.2323 53.7961 87.0557 53.8835C86.8791 54.0145 86.6584 54.1019 86.3494 54.1019C85.9079 53.5776 85.334 53.1845 84.716 52.8786C84.0538 52.5728 83.3034 52.4418 82.4646 52.4418C81.8025 52.4418 81.3169 52.5728 80.9196 52.8349C80.5664 53.0534 80.3898 53.4466 80.3898 53.9271C80.3898 54.1019 80.434 54.233 80.434 54.4077C80.4781 54.5388 80.5223 54.6698 80.6105 54.7572H81.67C81.979 54.7572 82.1556 54.9757 82.1556 55.3689C82.1556 55.4562 82.1115 55.5436 82.1115 55.6747C82.0673 55.762 82.0673 55.8494 82.0232 55.9368H80.6988Z" fill="#373435"/>
<path d="M84.4964 59.4383C84.7171 59.3509 84.9379 59.3072 85.2027 59.2635C85.4676 59.2198 85.7325 59.1762 85.9974 59.1762C86.8361 59.1762 87.4542 59.3509 87.8956 59.7441C88.2929 60.0936 88.5136 60.5305 88.5136 61.0984C88.5136 61.7974 88.2488 62.3217 87.6749 62.6712C87.1451 63.0644 86.3947 63.2391 85.4676 63.2391C85.0703 63.2391 84.673 63.1954 84.2757 63.1081C83.8784 63.0644 83.5694 62.977 83.2603 62.8459C82.9955 62.7149 82.7306 62.5838 82.554 62.4091C82.3774 62.2343 82.2891 62.0596 82.2891 61.8411C82.2891 61.6664 82.3774 61.4916 82.4657 61.3605C82.5982 61.2295 82.7306 61.1421 82.9072 61.0547C83.1721 61.3169 83.5252 61.5353 83.9667 61.7101C84.4081 61.9285 84.8937 62.0159 85.4676 62.0159C85.9532 62.0159 86.3064 61.9285 86.5271 61.7537C86.792 61.6227 86.8803 61.4042 86.8803 61.1421C86.8803 60.6179 86.4388 60.3557 85.6001 60.3557C85.3352 60.3557 85.1145 60.3557 84.8496 60.4431C84.5847 60.4868 84.364 60.5305 84.1433 60.6179C83.9667 60.5305 83.7901 60.4431 83.5694 60.3557C83.3486 60.2247 83.1721 60.0936 82.9955 59.9188C82.863 59.7878 82.6865 59.5693 82.5982 59.3946C82.4657 59.1762 82.4216 58.914 82.4216 58.6519C82.4216 58.1276 82.5982 57.7345 82.9513 57.4286C83.3045 57.1228 83.8784 56.9481 84.5847 56.9481H86.3947V55.9432H81.7594C81.4504 55.9432 81.2738 55.7248 81.2738 55.3316C81.2738 55.2442 81.2738 55.1569 81.2738 55.0695C81.3179 54.9384 81.3179 54.851 81.3621 54.7637H89.0434C89.3524 54.7637 89.529 54.9821 89.529 55.3753C89.529 55.4627 89.529 55.5501 89.529 55.6811C89.4848 55.7685 89.4848 55.8559 89.4407 55.9432H87.9398V57.516C87.9398 57.8655 87.719 58.084 87.2776 58.084H84.9379C84.5847 58.084 84.364 58.1276 84.2315 58.2587C84.0991 58.3898 84.055 58.5208 84.055 58.7393C84.055 58.914 84.0991 59.0451 84.1874 59.1325C84.2757 59.2635 84.364 59.3509 84.4964 59.4383Z" fill="#373435"/>
<path d="M96.5482 55.9432V63.0644C96.4599 63.0644 96.3716 63.0644 96.2392 63.1081C96.1509 63.1081 96.0185 63.1518 95.886 63.1518C95.5329 63.1518 95.3122 63.0644 95.1797 62.977C95.0473 62.8459 95.0031 62.6712 95.0031 62.4527V61.0547C94.7383 61.2732 94.4734 61.4042 94.1644 61.4916C93.8554 61.579 93.4581 61.6664 93.0608 61.6664C92.3986 61.6664 91.8247 61.4916 91.2949 61.2295C90.8094 60.9674 90.412 60.6179 90.103 60.181C89.9264 59.9188 89.794 59.6567 89.7057 59.3509C89.6174 59.0888 89.5733 58.8267 89.5733 58.6082C89.5733 58.5208 89.6174 58.4335 89.6616 58.3461C89.7057 58.2587 89.794 58.215 89.9264 58.1713C90.5003 58.1276 90.8976 58.0403 91.1625 57.8218C91.3832 57.6034 91.5157 57.3413 91.5157 57.0354C91.5157 56.7733 91.4715 56.5549 91.3391 56.3801C91.2067 56.2054 91.0301 56.0743 90.8094 55.9432H89.1318C88.7787 55.9432 88.6462 55.7248 88.6462 55.3316C88.6462 55.2442 88.6462 55.1569 88.6462 55.0695C88.6904 54.9384 88.6904 54.851 88.7345 54.7637H97.5194C97.696 54.7637 97.8284 54.851 97.8726 54.9384C97.9609 55.0258 98.005 55.1569 98.005 55.3753C98.005 55.4627 98.005 55.5501 97.9609 55.6811C97.9609 55.7685 97.9167 55.8559 97.9167 55.9432H96.5482ZM93.2373 60.3557C93.6346 60.3557 93.9878 60.312 94.2527 60.1373C94.5617 60.0062 94.8266 59.8315 95.0031 59.613V55.9432H92.531C92.7076 56.0743 92.84 56.2491 92.9725 56.4675C93.1049 56.6859 93.149 56.9481 93.149 57.2102C93.149 57.4723 93.1049 57.7345 93.0166 57.9092C92.8842 58.1276 92.7517 58.3024 92.5752 58.4771C92.3986 58.6519 92.222 58.7393 91.9571 58.8703C91.7364 58.9577 91.4715 59.0014 91.2067 59.0451C91.3391 59.4383 91.5598 59.7441 91.8688 59.9625C92.222 60.2247 92.6634 60.3557 93.2373 60.3557Z" fill="#373435"/>
<path d="M100.187 55.9432V63.0644C100.099 63.0644 100.011 63.0644 99.9224 63.1081C99.7899 63.1081 99.6575 63.1518 99.525 63.1518C99.1719 63.1518 98.9512 63.0644 98.8187 62.977C98.6863 62.8459 98.6421 62.6712 98.6421 62.4527V55.9432H97.6268C97.4502 55.9432 97.3178 55.8996 97.2295 55.8122C97.1853 55.6811 97.1412 55.5501 97.1412 55.3316C97.1412 55.2442 97.1412 55.1569 97.1412 55.0695C97.1853 54.9384 97.1853 54.851 97.2295 54.7637H101.158C101.467 54.7637 101.644 54.9821 101.644 55.3753C101.644 55.4627 101.644 55.5501 101.6 55.6811C101.6 55.7685 101.556 55.8559 101.556 55.9432H100.187Z" fill="#373435"/>
</svg>
