<svg width="103" height="103" viewBox="0 0 103 103" fill="none" xmlns="http://www.w3.org/2000/svg">
<path fill-rule="evenodd" clip-rule="evenodd" d="M39.5367 90.8534C45.3538 93.048 51.7154 94.2574 58.3799 94.2574C66.635 94.2574 74.4488 92.3788 81.3354 89.1022C72.9037 95.3933 62.4412 99.1505 51.0959 99.1505C44.6403 99.1505 38.4705 97.9432 32.8043 95.7449L39.5367 90.8534ZM25.4054 82.7591C14.9339 74.2515 8.31909 61.7649 8.31909 47.8608C8.31909 22.2596 30.7449 1.46416 58.3799 1.46416C60.4105 1.46416 62.4412 1.59523 64.4278 1.81367C60.1898 0.634093 55.687 0.0224609 51.0959 0.0224609C23.4168 0.0224609 0.990967 22.216 0.990967 49.6083C0.990967 67.0598 10.1224 82.4121 23.9234 91.2383L25.4054 82.7591Z" fill="#F47D5C"/>
<path d="M29.4774 79.6738L22.5024 102.129L40.9552 85.1785L29.4774 79.6738Z" fill="#377044"/>
<path fill-rule="evenodd" clip-rule="evenodd" d="M16.7411 48.7104C16.7411 69.8116 34.0019 86.8936 55.3241 86.8936C69.4674 86.8936 81.8552 79.3467 88.5727 68.0888H93.378C86.2758 81.7506 71.8978 91.0877 55.3241 91.0877C31.6622 91.0877 12.5032 72.1271 12.5032 48.7104C12.5032 25.2936 31.6622 6.33301 55.3241 6.33301C71.0559 6.33301 84.8094 14.7456 92.2401 27.2842H87.2605C80.3143 17.1683 68.5916 10.5271 55.3241 10.5271C34.0019 10.5271 16.7411 27.6091 16.7411 48.7104Z" fill="#377044"/>
<path fill-rule="evenodd" clip-rule="evenodd" d="M36.4847 60.0438C34.1008 60.0438 31.8053 60.0875 29.4656 60.0002C27.8322 59.9565 26.6844 58.7332 26.6844 57.0731C26.6844 49.9956 26.6844 42.9181 26.6844 35.8844C26.6844 34.2242 27.9647 33.001 29.598 33.001C35.3369 33.001 41.0758 33.001 46.8146 33.001C48.3597 33.001 49.6399 34.0932 49.6841 35.5786C49.7282 39.3357 49.6841 43.0929 49.6841 46.8938C48.8012 46.4132 47.9183 46.02 47.0354 45.5394C46.9029 45.4521 46.8588 45.0589 46.8588 44.7967C46.8588 42.0881 46.8588 39.3794 46.8588 36.6708V35.8407H29.6422V57.1604C31.2314 57.1604 32.8206 57.1604 34.4099 57.1604C34.8513 57.1604 35.1162 57.2478 35.2928 57.7284C35.6459 58.4711 36.0432 59.1701 36.4847 60.0438Z" fill="#F58B71"/>
<path fill-rule="evenodd" clip-rule="evenodd" d="M36.4847 60.0438C34.1008 60.0438 31.8053 60.0875 29.4656 60.0002C27.8322 59.9565 26.6844 58.7332 26.6844 57.0731C26.6844 49.9956 26.6844 42.9181 26.6844 35.8844C26.6844 34.2242 27.9647 33.001 29.598 33.001C35.3369 33.001 41.0758 33.001 46.8146 33.001C48.3597 33.001 49.6399 34.0932 49.6841 35.5786C49.7282 39.3357 49.6841 43.0929 49.6841 46.8938C48.8012 46.4132 47.9183 46.02 47.0354 45.5394C46.9029 45.4521 46.8588 45.0589 46.8588 44.7967C46.8588 42.0881 46.8588 39.3794 46.8588 36.6708V35.8407H29.6422V57.1604C31.2314 57.1604 32.8206 57.1604 34.4099 57.1604C34.8513 57.1604 35.1162 57.2478 35.2928 57.7284C35.6459 58.4711 36.0432 59.1701 36.4847 60.0438Z" stroke="#F58B71" stroke-width="0.0116378"/>
<path fill-rule="evenodd" clip-rule="evenodd" d="M48.2965 54.3655C48.2524 52.0063 46.31 50.0403 43.9261 50.0403C41.6306 50.0403 39.5999 52.0063 39.5999 54.2781C39.5999 56.6809 41.5864 58.6469 43.9703 58.6469C46.31 58.6032 48.2965 56.6372 48.2965 54.3655ZM49.9299 58.2974C51.2984 59.608 52.6669 60.875 53.9471 62.0982C53.2408 62.7972 52.5786 63.4526 51.8723 64.1516C50.9894 63.3215 49.9741 62.404 49.047 61.3992C48.3407 60.6128 47.8109 60.3944 46.6632 60.875C44.0144 62.0109 41.4099 61.574 39.2026 59.6517C36.9953 57.6857 36.2448 55.1955 37.0395 52.3995C37.8341 49.6035 39.8206 47.8123 42.7342 47.3317C45.5595 46.8511 47.9434 47.8123 49.665 50.084C51.3867 52.3995 51.5633 54.8897 50.4155 57.4673C50.2831 57.7294 50.1506 57.9479 49.9299 58.2974Z" fill="#F58B71"/>
<path fill-rule="evenodd" clip-rule="evenodd" d="M48.2965 54.3655C48.2524 52.0063 46.31 50.0403 43.9261 50.0403C41.6306 50.0403 39.5999 52.0063 39.5999 54.2781C39.5999 56.6809 41.5864 58.6469 43.9703 58.6469C46.31 58.6032 48.2965 56.6372 48.2965 54.3655ZM49.9299 58.2974C51.2984 59.608 52.6669 60.875 53.9471 62.0982C53.2408 62.7972 52.5786 63.4526 51.8723 64.1516C50.9894 63.3215 49.9741 62.404 49.047 61.3992C48.3407 60.6128 47.8109 60.3944 46.6632 60.875C44.0144 62.0109 41.4099 61.574 39.2026 59.6517C36.9953 57.6857 36.2448 55.1955 37.0395 52.3995C37.8341 49.6035 39.8206 47.8123 42.7342 47.3317C45.5595 46.8511 47.9434 47.8123 49.665 50.084C51.3867 52.3995 51.5633 54.8897 50.4155 57.4673C50.2831 57.7294 50.1506 57.9479 49.9299 58.2974Z" stroke="#F58B71" stroke-width="0.0116378"/>
<path d="M69.0729 37.5311V48.1473C68.9404 48.191 68.7639 48.2346 68.5431 48.2783C68.3224 48.322 68.1017 48.322 67.8368 48.322C67.1746 48.322 66.7332 48.2346 66.4683 48.0162C66.2476 47.8414 66.1151 47.4919 66.1151 47.0114V44.3901C65.8061 44.5648 65.453 44.6522 65.0998 44.7396C64.7025 44.8707 64.3052 44.9144 63.8637 44.9144C62.4952 44.9144 61.4357 44.5212 60.6411 43.7785C59.8465 43.0358 59.4933 41.8999 59.4933 40.4582V37.5311H58.4339C58.1248 37.5311 57.9041 37.4 57.7717 37.2253C57.6834 37.0505 57.5951 36.7884 57.5951 36.3952C57.5951 36.2641 57.6392 36.0457 57.6392 35.8709C57.6834 35.6525 57.7275 35.4777 57.7717 35.3467H70.4414C70.9711 35.3467 71.2802 35.7399 71.2802 36.4389C71.2802 36.5699 71.236 36.7884 71.1919 37.0068C71.1919 37.2253 71.1036 37.4 71.0594 37.5311H69.0729ZM64.5259 42.5552C64.8349 42.5552 65.1439 42.5115 65.4088 42.4241C65.7178 42.3368 65.9386 42.2057 66.1151 42.0746V37.5311H62.4511V40.2834C62.4511 41.1135 62.6277 41.7251 62.9367 42.0309C63.2898 42.3804 63.8196 42.5552 64.5259 42.5552Z" fill="#377044"/>
<path d="M80.1734 37.5311V39.8465C80.1734 40.5019 79.8203 40.8077 79.1139 40.8077H75.7147C75.2733 40.8077 74.9643 40.8951 74.7877 41.0261C74.6111 41.2009 74.5228 41.4193 74.5228 41.6814C74.5228 41.8562 74.567 41.9873 74.6111 42.1183C74.6994 42.2494 74.7877 42.3368 74.9201 42.4678C75.3174 42.3804 75.803 42.3368 76.3328 42.3368C77.0833 42.3368 77.7454 42.3804 78.3193 42.5552C78.8932 42.7299 79.3788 42.9047 79.7761 43.2105C80.1734 43.4726 80.4824 43.7785 80.7032 44.128C80.9239 44.5212 81.0122 44.9143 81.0122 45.3075C81.0122 45.8755 80.8356 46.2687 80.5266 46.4871C80.2176 46.7056 79.8203 46.7929 79.3788 46.7929C78.9374 46.7929 78.4959 46.7056 78.0986 46.4871C78.1427 46.3997 78.1427 46.356 78.1427 46.3124C78.1427 46.2687 78.1427 46.1813 78.1427 46.1376C78.1427 45.657 77.9662 45.2639 77.7013 44.958C77.3923 44.6522 76.9067 44.5212 76.2886 44.5212C75.7147 44.5212 75.2733 44.6522 74.9201 44.958C74.6111 45.2639 74.4345 45.657 74.4345 46.1376C74.4345 46.7492 74.6994 47.2298 75.185 47.5356C75.6706 47.8851 76.4211 48.0599 77.3923 48.0599C77.6571 48.0599 77.922 48.0599 78.231 48.0162C78.4959 48.0162 78.7608 47.9725 78.9815 47.9288C79.0698 48.0162 79.1139 48.1909 79.2022 48.4094C79.2464 48.5841 79.2464 48.7589 79.2464 48.9773C79.2464 49.4142 79.0698 49.7637 78.7166 50.0258C78.4076 50.2443 77.8337 50.3753 77.0833 50.3753C76.2445 50.3753 75.4499 50.288 74.7877 50.1132C74.0814 49.8948 73.4633 49.6326 72.9777 49.2831C72.4921 48.89 72.0948 48.4531 71.83 47.9288C71.5651 47.4046 71.4326 46.7929 71.4326 46.0939C71.4326 45.5697 71.5209 45.0454 71.7417 44.6085C71.9182 44.1717 72.2273 43.8221 72.6246 43.4726C72.2714 43.2542 72.0065 42.9484 71.83 42.5989C71.6092 42.2057 71.5209 41.8125 71.5209 41.3319C71.5209 40.5019 71.7858 39.8902 72.3597 39.4533C72.8894 39.0165 73.6841 38.798 74.6111 38.798H77.2157V37.5311H70.638C70.329 37.5311 70.0641 37.4 69.9759 37.2253C69.8434 37.0505 69.7551 36.7884 69.7551 36.3952C69.7551 36.2641 69.7993 36.0457 69.8434 35.8709C69.8434 35.6525 69.8876 35.4777 69.9759 35.3467H81.5861C82.16 35.3467 82.4248 35.7399 82.4248 36.4389C82.4248 36.5699 82.4248 36.7884 82.3807 37.0068C82.3365 37.2253 82.2924 37.4 82.2483 37.5311H80.1734Z" fill="#377044"/>
<path d="M86.0864 37.5311V48.1473C85.9098 48.191 85.7332 48.2346 85.5125 48.2783C85.3359 48.322 85.071 48.322 84.8062 48.322C84.144 48.322 83.7025 48.2346 83.4818 48.0162C83.2169 47.8414 83.1287 47.4919 83.1287 47.0114V37.5311H81.7601C81.4511 37.5311 81.2304 37.4 81.098 37.2253C80.9655 37.0505 80.9214 36.7884 80.9214 36.3952C80.9214 36.2641 80.9214 36.0457 80.9655 35.8709C81.0097 35.6525 81.0538 35.4777 81.098 35.3467H87.4108C87.9846 35.3467 88.2495 35.7399 88.2495 36.4389C88.2495 36.5699 88.2495 36.7884 88.2054 37.0068C88.1612 37.2253 88.1171 37.4 88.0288 37.5311H86.0864Z" fill="#377044"/>
<path d="M74.1391 59.4337C74.3598 59.3463 74.5806 59.3026 74.8454 59.2589C75.1103 59.2152 75.3752 59.2152 75.6401 59.2152C76.4788 59.2152 77.0969 59.39 77.5383 59.7395C77.9356 60.089 78.1563 60.5696 78.1563 61.0938C78.1563 61.4433 78.0681 61.7491 77.9356 62.0113C77.759 62.2734 77.5825 62.4918 77.3176 62.6666C77.0527 62.8413 76.6996 62.9724 76.3464 63.0598C75.9491 63.1471 75.5518 63.1908 75.1103 63.1908C75.0662 63.1908 75.022 63.1908 75.022 63.1908C74.9779 63.1908 74.9337 63.1908 74.8896 63.1908C75.1103 63.3656 75.3752 63.584 75.6401 63.7588C75.8608 63.9772 76.1698 64.152 76.4788 64.3267C76.4347 64.5888 76.3464 64.851 76.1698 65.0257C76.0374 65.2005 75.7725 65.2879 75.4635 65.2879C75.1545 65.2879 74.8896 65.2005 74.6247 64.982C74.3598 64.7636 74.095 64.4141 73.8301 63.9772L73.3004 63.0161C72.903 62.9287 72.5499 62.754 72.3292 62.5792C72.0643 62.3608 71.9318 62.1423 71.9318 61.8802C71.9318 61.6618 72.0201 61.5307 72.1084 61.3996C72.2409 61.2249 72.3733 61.1375 72.5499 61.0938C72.8148 61.3559 73.1679 61.5744 73.6094 61.7491C74.0508 61.9239 74.5364 62.0113 75.1103 62.0113C75.5959 62.0113 75.9491 61.9239 76.1698 61.7928C76.3905 61.6181 76.523 61.3996 76.523 61.1375C76.523 60.6132 76.0815 60.3511 75.2428 60.3511C74.9779 60.3511 74.7572 60.3948 74.4923 60.4385C74.2274 60.4822 74.0067 60.5259 73.786 60.6132C73.6094 60.5696 73.3886 60.4822 73.2121 60.3511C72.9913 60.2637 72.8148 60.089 72.6382 59.9579C72.5057 59.7832 72.3292 59.6084 72.2409 59.39C72.1084 59.1715 72.0643 58.9531 72.0643 58.6473C72.0643 58.1667 72.2409 57.7298 72.594 57.424C72.9472 57.1182 73.5211 56.9434 74.2274 56.9434H76.0374V55.9386H71.4021C71.0489 55.9386 70.9165 55.7639 70.9165 55.3707C70.9165 55.2833 70.9165 55.1959 70.9165 55.0649C70.9606 54.9775 70.9606 54.8464 71.0048 54.8027H78.6861C78.9951 54.8027 79.1717 54.9775 79.1717 55.3707C79.1717 55.4581 79.1717 55.5454 79.1275 55.6765C79.1275 55.8076 79.0834 55.8949 79.0393 55.9386H77.5825V57.5114C77.5825 57.9046 77.3617 58.0793 76.9203 58.0793H74.5806C74.2274 58.0793 74.0067 58.1667 73.8742 58.2541C73.7418 58.3852 73.6977 58.5599 73.6977 58.7347C73.6977 58.9094 73.7418 59.0405 73.8301 59.1715C73.9184 59.2589 74.0067 59.3463 74.1391 59.4337Z" fill="#373435"/>
<path d="M75.8297 52.7746C75.8297 52.5125 75.9179 52.294 76.0945 52.0756C76.2711 51.9009 76.4918 51.8135 76.8008 51.8135C77.1098 51.8135 77.3747 51.9009 77.5513 52.0756C77.7279 52.294 77.8162 52.5125 77.8162 52.7746C77.8162 53.0367 77.7279 53.2552 77.5513 53.4299C77.3747 53.6047 77.1098 53.7357 76.8008 53.7357C76.4918 53.7357 76.2711 53.6047 76.0945 53.4299C75.9179 53.2552 75.8297 53.0367 75.8297 52.7746Z" fill="#373435"/>
<path d="M81.3347 55.9368V63.0579C81.2464 63.0579 81.1582 63.1016 81.0257 63.1016C80.9374 63.1453 80.805 63.1453 80.6284 63.1453C80.3194 63.1453 80.0987 63.1016 79.9662 62.9706C79.8338 62.8832 79.7455 62.7084 79.7455 62.4463V55.9368H78.7302C78.5536 55.9368 78.4211 55.8931 78.377 55.8057C78.2887 55.7184 78.2446 55.5436 78.2446 55.3689C78.2446 55.2815 78.2887 55.1941 78.2887 55.063C78.2887 54.9757 78.3329 54.8446 78.3329 54.8009H79.6572C79.5689 54.6698 79.5248 54.4951 79.4806 54.3203C79.4365 54.1456 79.4365 53.9271 79.4365 53.7087C79.4365 52.9223 79.7455 52.3107 80.3635 51.8738C80.9816 51.4369 81.8645 51.1748 82.9681 51.1748C83.7186 51.1748 84.3808 51.2622 84.9988 51.4369C85.6168 51.6117 86.1466 51.8301 86.588 52.0486C87.0295 52.3107 87.3385 52.5291 87.6034 52.7913C87.8241 53.0534 87.9565 53.2718 87.9565 53.4466C87.9565 53.665 87.8682 53.7961 87.6916 53.9271C87.5151 54.0582 87.2943 54.1019 86.9853 54.1019C86.5439 53.5776 85.97 53.1845 85.3519 52.8786C84.6898 52.6165 83.9393 52.4418 83.1005 52.4418C82.4384 52.4418 81.9528 52.5728 81.5555 52.8349C81.2023 53.0971 81.0257 53.4466 81.0257 53.9271C81.0257 54.1019 81.0699 54.2767 81.0699 54.4077C81.114 54.5388 81.1582 54.6698 81.2464 54.8009H82.3059C82.6149 54.8009 82.7915 54.9757 82.7915 55.3689C82.7915 55.4562 82.7474 55.5436 82.7474 55.6747C82.7032 55.8057 82.7032 55.8931 82.6591 55.9368H81.3347Z" fill="#373435"/>
<path d="M85.1323 59.4337C85.3531 59.3463 85.5738 59.3026 85.8387 59.2589C86.1035 59.2152 86.3684 59.2152 86.6333 59.2152C87.472 59.2152 88.0901 59.39 88.5315 59.7395C88.9288 60.089 89.1495 60.5696 89.1495 61.0938C89.1495 61.7928 88.8847 62.3608 88.3108 62.7103C87.781 63.0598 87.0306 63.2345 86.1035 63.2345C85.7062 63.2345 85.3089 63.1908 84.9116 63.1471C84.5143 63.0598 84.2053 62.9724 83.8963 62.8413C83.6314 62.754 83.3665 62.5792 83.1899 62.4044C83.0134 62.2734 82.9251 62.0549 82.9251 61.8802C82.9251 61.6618 83.0134 61.487 83.1017 61.3559C83.2341 61.2249 83.3665 61.1375 83.5431 61.0938C83.808 61.3122 84.1611 61.5307 84.6026 61.7491C85.044 61.9239 85.5296 62.0113 86.1035 62.0113C86.5891 62.0113 86.9423 61.9239 87.163 61.7928C87.4279 61.6181 87.5162 61.3996 87.5162 61.1375C87.5162 60.6132 87.0747 60.3511 86.236 60.3511C85.9711 60.3511 85.7504 60.3948 85.4855 60.4385C85.2206 60.4822 84.9999 60.5259 84.7792 60.6132C84.6026 60.5696 84.3819 60.4822 84.2053 60.3511C83.9846 60.2637 83.808 60.089 83.6314 59.9579C83.499 59.7832 83.3224 59.6084 83.2341 59.39C83.1017 59.1715 83.0575 58.9531 83.0575 58.6473C83.0575 58.1667 83.2341 57.7298 83.5872 57.424C83.9404 57.1182 84.5143 56.9434 85.2206 56.9434H87.0306V55.9386H82.3953C82.0422 55.9386 81.9097 55.7639 81.9097 55.3707C81.9097 55.2833 81.9097 55.1959 81.9097 55.0649C81.9539 54.9775 81.9539 54.8464 81.998 54.8027H89.6793C89.9883 54.8027 90.1649 54.9775 90.1649 55.3707C90.1649 55.4581 90.1649 55.5454 90.1649 55.6765C90.1207 55.8076 90.0766 55.8949 90.0766 55.9386H88.5757V57.5114C88.5757 57.9046 88.3549 58.0793 87.9135 58.0793H85.5738C85.2206 58.0793 84.9999 58.1667 84.8675 58.2541C84.735 58.3852 84.6909 58.5599 84.6909 58.7347C84.6909 58.9094 84.735 59.0405 84.8233 59.1715C84.9116 59.2589 84.9999 59.3463 85.1323 59.4337Z" fill="#373435"/>
<path d="M97.1841 55.9386V63.0598C97.0958 63.0598 97.0075 63.1034 96.8751 63.1034C96.7868 63.1471 96.6543 63.1471 96.5219 63.1471C96.1687 63.1471 95.948 63.1034 95.8156 62.9724C95.6831 62.885 95.639 62.7103 95.639 62.4481V61.0501C95.3741 61.2686 95.1093 61.3996 94.8002 61.5307C94.4471 61.6181 94.0939 61.6617 93.6966 61.6617C93.0344 61.6617 92.4606 61.5307 91.9308 61.2686C91.4452 60.9627 91.0479 60.6132 90.7389 60.1764C90.5623 59.9142 90.4299 59.6521 90.3416 59.39C90.2533 59.0842 90.2092 58.8657 90.2092 58.6473C90.2092 58.5162 90.2533 58.4288 90.2974 58.3415C90.3416 58.2541 90.4299 58.2104 90.5623 58.2104C91.1362 58.1667 91.5335 58.0356 91.7984 57.8172C92.0191 57.6425 92.1515 57.3803 92.1515 57.0308C92.1515 56.7687 92.1074 56.5503 91.975 56.3755C91.8425 56.2007 91.6659 56.0697 91.4452 55.9386H89.7677C89.4145 55.9386 89.2821 55.7639 89.2821 55.3707C89.2821 55.2833 89.2821 55.1959 89.2821 55.0649C89.3262 54.9775 89.3262 54.8464 89.3704 54.8027H98.1553C98.3319 54.8027 98.4643 54.8464 98.5084 54.9338C98.5967 55.0212 98.6409 55.1959 98.6409 55.3707C98.6409 55.4581 98.5967 55.5454 98.5967 55.6765C98.5967 55.8076 98.5526 55.8949 98.5526 55.9386H97.1841ZM93.8732 60.3948C94.2705 60.3948 94.6237 60.3074 94.8885 60.1764C95.1975 60.0016 95.4183 59.8268 95.639 59.6521V55.9386H93.1669C93.3435 56.1134 93.4759 56.2881 93.6083 56.5066C93.7408 56.725 93.7849 56.9434 93.7849 57.2056C93.7849 57.4677 93.7408 57.7298 93.6525 57.9483C93.52 58.1667 93.3876 58.3415 93.211 58.4725C93.0344 58.6473 92.8579 58.7783 92.593 58.8657C92.3723 58.9531 92.1074 59.0405 91.8425 59.0842C91.975 59.4337 92.1957 59.7395 92.5047 60.0016C92.8579 60.2637 93.2993 60.3948 93.8732 60.3948Z" fill="#373435"/>
<path d="M100.862 55.9386V63.0598C100.774 63.0598 100.685 63.1034 100.597 63.1034C100.465 63.1471 100.332 63.1471 100.2 63.1471C99.8466 63.1471 99.6259 63.1034 99.4934 62.9724C99.361 62.885 99.3169 62.7103 99.3169 62.4481V55.9386H98.3015C98.1249 55.9386 97.9925 55.8949 97.9042 55.8076C97.8601 55.7202 97.8159 55.5454 97.8159 55.3707C97.8159 55.2833 97.8159 55.1959 97.8159 55.0649C97.8601 54.9775 97.8601 54.8464 97.9042 54.8027H101.833C102.142 54.8027 102.319 54.9775 102.319 55.3707C102.319 55.4581 102.319 55.5454 102.275 55.6765C102.275 55.8076 102.23 55.8949 102.23 55.9386H100.862Z" fill="#373435"/>
</svg>
