<svg width="103" height="103" viewBox="0 0 103 103" fill="none" xmlns="http://www.w3.org/2000/svg">
<path fill-rule="evenodd" clip-rule="evenodd" d="M40.9265 55.629C40.9265 58.1629 40.8823 60.7405 40.9265 63.2744C40.9265 64.3229 40.7499 65.1967 39.6462 65.5899C38.5426 65.9831 37.7921 65.4588 37.0858 64.7161C36.2029 63.7113 35.3641 62.6628 34.3488 61.789C33.9073 61.4395 33.0244 61.2211 32.4947 61.3958C32.0532 61.5269 31.6118 62.3133 31.5676 62.8375C31.5235 63.3181 32.0091 63.886 32.3623 64.3229C34.9227 67.2063 37.439 70.0897 38.9399 73.7158C39.6021 75.376 40.9706 76.3808 42.7806 76.5992C43.8842 76.774 45.0761 76.8614 46.2239 76.8614C50.0646 76.8177 53.0223 74.7207 53.3755 70.9635C53.8169 66.6384 53.6403 62.2696 53.6403 57.9008C53.6403 57.027 52.8899 56.5028 52.007 56.5028C51.1682 56.5028 50.5502 57.0707 50.4177 57.9445C50.3294 58.5998 50.4619 59.3425 50.3294 60.0415C50.2853 60.391 49.9763 61.0026 49.7114 61.0463C48.9609 61.1337 48.9609 60.4784 48.9609 59.9541C48.9609 58.3814 49.0051 56.8086 48.9609 55.2358C48.9168 53.9252 47.9456 53.1388 46.8419 53.4446C45.959 53.7504 45.65 54.4058 45.65 55.2358C45.65 56.896 45.65 58.5124 45.6059 60.1289C45.6059 60.4347 45.3851 60.7842 45.1644 61.0463C45.1203 61.1337 44.6347 61.0463 44.5905 60.959C44.4139 60.6094 44.2815 60.2163 44.2815 59.8668C44.2374 56.3717 44.2374 52.9204 44.2374 49.469C44.2374 48.6826 44.4139 47.8526 44.1932 47.1536C44.0166 46.5856 43.4427 45.8866 42.913 45.7119C42.4715 45.5371 41.6769 45.9303 41.3238 46.3235C41.0148 46.673 40.9265 47.372 40.9265 47.8963C40.8823 50.4738 40.9265 53.0514 40.9265 55.629ZM45.65 52.265C48.5636 51.566 49.9321 52.4398 50.506 55.3669C50.7709 55.3232 50.9916 55.2358 51.2123 55.1921C53.243 54.7116 55.0971 56.0222 55.0971 58.1629C55.1413 62.2696 55.1854 66.3763 54.9647 70.4392C54.744 74.7207 51.6979 77.6041 47.46 78.172C45.3851 78.4341 43.3545 78.3468 41.3679 77.7351C39.8228 77.2546 38.4985 76.2934 37.8804 74.808C36.2912 71.0509 33.7308 67.949 30.9937 64.9782C29.7577 63.5802 29.8018 61.658 31.082 60.5221C32.4505 59.3425 34.3488 59.5172 35.629 60.959C36.4678 61.8764 37.3065 62.7938 38.1894 63.7113C38.4543 63.9297 38.8075 64.0608 39.1165 64.2355C39.2489 63.886 39.5138 63.5365 39.5138 63.187C39.558 58.993 39.558 54.7553 39.558 50.5612C39.558 49.3816 39.5138 48.2021 39.558 47.0225C39.6021 45.406 40.8823 44.2265 42.5157 44.1828C44.1491 44.1391 45.5176 45.3623 45.6059 47.0225C45.65 47.8963 45.65 48.77 45.65 49.6438C45.65 50.5175 45.65 51.3476 45.65 52.265Z" fill="#F58B71"/>
<path fill-rule="evenodd" clip-rule="evenodd" d="M40.9265 55.629C40.9265 58.1629 40.8823 60.7405 40.9265 63.2744C40.9265 64.3229 40.7499 65.1967 39.6462 65.5899C38.5426 65.9831 37.7921 65.4588 37.0858 64.7161C36.2029 63.7113 35.3641 62.6628 34.3488 61.789C33.9073 61.4395 33.0244 61.2211 32.4947 61.3958C32.0532 61.5269 31.6118 62.3133 31.5676 62.8375C31.5235 63.3181 32.0091 63.886 32.3623 64.3229C34.9227 67.2063 37.439 70.0897 38.9399 73.7158C39.6021 75.376 40.9706 76.3808 42.7806 76.5992C43.8842 76.774 45.0761 76.8614 46.2239 76.8614C50.0646 76.8177 53.0223 74.7207 53.3755 70.9635C53.8169 66.6384 53.6403 62.2696 53.6403 57.9008C53.6403 57.027 52.8899 56.5028 52.007 56.5028C51.1682 56.5028 50.5502 57.0707 50.4177 57.9445C50.3294 58.5998 50.4619 59.3425 50.3294 60.0415C50.2853 60.391 49.9763 61.0026 49.7114 61.0463C48.9609 61.1337 48.9609 60.4784 48.9609 59.9541C48.9609 58.3814 49.0051 56.8086 48.9609 55.2358C48.9168 53.9252 47.9456 53.1388 46.8419 53.4446C45.959 53.7504 45.65 54.4058 45.65 55.2358C45.65 56.896 45.65 58.5124 45.6059 60.1289C45.6059 60.4347 45.3851 60.7842 45.1644 61.0463C45.1203 61.1337 44.6347 61.0463 44.5905 60.959C44.4139 60.6094 44.2815 60.2163 44.2815 59.8668C44.2374 56.3717 44.2374 52.9204 44.2374 49.469C44.2374 48.6826 44.4139 47.8526 44.1932 47.1536C44.0166 46.5856 43.4427 45.8866 42.913 45.7119C42.4715 45.5371 41.6769 45.9303 41.3238 46.3235C41.0148 46.673 40.9265 47.372 40.9265 47.8963C40.8823 50.4738 40.9265 53.0514 40.9265 55.629ZM45.65 52.265C48.5636 51.566 49.9321 52.4398 50.506 55.3669C50.7709 55.3232 50.9916 55.2358 51.2123 55.1921C53.243 54.7116 55.0971 56.0222 55.0971 58.1629C55.1413 62.2696 55.1854 66.3763 54.9647 70.4392C54.744 74.7207 51.6979 77.6041 47.46 78.172C45.3851 78.4341 43.3545 78.3468 41.3679 77.7351C39.8228 77.2546 38.4985 76.2934 37.8804 74.808C36.2912 71.0509 33.7308 67.949 30.9937 64.9782C29.7577 63.5802 29.8018 61.658 31.082 60.5221C32.4505 59.3425 34.3488 59.5172 35.629 60.959C36.4678 61.8764 37.3065 62.7938 38.1894 63.7113C38.4543 63.9297 38.8075 64.0608 39.1165 64.2355C39.2489 63.886 39.5138 63.5365 39.5138 63.187C39.558 58.993 39.558 54.7553 39.558 50.5612C39.558 49.3816 39.5138 48.2021 39.558 47.0225C39.6021 45.406 40.8823 44.2265 42.5157 44.1828C44.1491 44.1391 45.5176 45.3623 45.6059 47.0225C45.65 47.8963 45.65 48.77 45.65 49.6438C45.65 50.5175 45.65 51.3476 45.65 52.265Z" stroke="#F58B71" stroke-width="0.0135276"/>
<path fill-rule="evenodd" clip-rule="evenodd" d="M23.7994 36.3815C26.9337 36.3378 26.8013 36.2942 26.7571 39.3086C26.7571 40.7503 26.5805 40.9251 25.0796 40.9688C24.1084 40.9688 23.0931 40.9688 22.0778 40.9251C21.857 40.9251 21.5922 41.0125 21.4156 40.8814C19.9588 40.095 20.7534 38.697 20.621 37.5174C20.5327 36.731 21.1507 36.3815 21.9012 36.3815C22.5634 36.3815 23.1814 36.3815 23.7994 36.3815Z" fill="#F58B71"/>
<path fill-rule="evenodd" clip-rule="evenodd" d="M23.7994 36.3815C26.9337 36.3378 26.8013 36.2942 26.7571 39.3086C26.7571 40.7503 26.5805 40.9251 25.0796 40.9688C24.1084 40.9688 23.0931 40.9688 22.0778 40.9251C21.857 40.9251 21.5922 41.0125 21.4156 40.8814C19.9588 40.095 20.7534 38.697 20.621 37.5174C20.5327 36.731 21.1507 36.3815 21.9012 36.3815C22.5634 36.3815 23.1814 36.3815 23.7994 36.3815Z" stroke="#F58B71" stroke-width="0.0135276"/>
<path fill-rule="evenodd" clip-rule="evenodd" d="M33.0625 40.9778C29.7516 40.9778 30.1047 41.1525 30.1047 37.9633C30.1047 36.6526 30.3255 36.3905 31.6498 36.3905C32.7093 36.3468 33.813 36.3905 34.8725 36.3905C35.7995 36.3905 36.241 36.7837 36.1968 37.7448C36.1527 38.3128 36.1968 38.9244 36.1968 39.4924C36.1527 40.7156 35.9319 40.9341 34.6517 40.9778C34.122 40.9778 33.5922 40.9778 33.0625 40.9778Z" fill="#F58B71"/>
<path fill-rule="evenodd" clip-rule="evenodd" d="M33.0625 40.9778C29.7516 40.9778 30.1047 41.1525 30.1047 37.9633C30.1047 36.6526 30.3255 36.3905 31.6498 36.3905C32.7093 36.3468 33.813 36.3905 34.8725 36.3905C35.7995 36.3905 36.241 36.7837 36.1968 37.7448C36.1527 38.3128 36.1968 38.9244 36.1968 39.4924C36.1527 40.7156 35.9319 40.9341 34.6517 40.9778C34.122 40.9778 33.5922 40.9778 33.0625 40.9778Z" stroke="#F58B71" stroke-width="0.0135276"/>
<path fill-rule="evenodd" clip-rule="evenodd" d="M42.459 40.9583C39.2364 40.9583 39.5454 41.1331 39.5454 37.9876C39.5454 36.5895 39.7661 36.3711 41.2229 36.3711C42.2824 36.3711 43.2977 36.3711 44.3572 36.3711C45.1518 36.3711 45.6374 36.7206 45.5932 37.5507C45.5932 38.2497 45.6374 38.9487 45.6374 39.6477C45.6374 40.5651 45.1518 41.002 44.2248 40.9583C43.6509 40.9147 43.0329 40.9583 42.459 40.9583Z" fill="#F58B71"/>
<path fill-rule="evenodd" clip-rule="evenodd" d="M42.459 40.9583C39.2364 40.9583 39.5454 41.1331 39.5454 37.9876C39.5454 36.5895 39.7661 36.3711 41.2229 36.3711C42.2824 36.3711 43.2977 36.3711 44.3572 36.3711C45.1518 36.3711 45.6374 36.7206 45.5932 37.5507C45.5932 38.2497 45.6374 38.9487 45.6374 39.6477C45.6374 40.5651 45.1518 41.002 44.2248 40.9583C43.6509 40.9147 43.0329 40.9583 42.459 40.9583Z" stroke="#F58B71" stroke-width="0.0135276"/>
<path fill-rule="evenodd" clip-rule="evenodd" d="M23.6388 48.7009H23.5064C20.2838 48.7446 20.5486 48.963 20.5928 45.3369C20.5928 44.6379 20.9901 44.2011 21.7847 44.2011C23.0208 44.2011 24.301 44.1574 25.5371 44.2011C26.6407 44.2011 26.7731 44.5942 26.7731 47.2155C26.729 48.0456 26.6407 48.7446 25.5371 48.7009C24.8749 48.7009 24.2568 48.7009 23.6388 48.7009Z" fill="#F58B71"/>
<path fill-rule="evenodd" clip-rule="evenodd" d="M23.6388 48.7009H23.5064C20.2838 48.7446 20.5486 48.963 20.5928 45.3369C20.5928 44.6379 20.9901 44.2011 21.7847 44.2011C23.0208 44.2011 24.301 44.1574 25.5371 44.2011C26.6407 44.2011 26.7731 44.5942 26.7731 47.2155C26.729 48.0456 26.6407 48.7446 25.5371 48.7009C24.8749 48.7009 24.2568 48.7009 23.6388 48.7009Z" stroke="#F58B71" stroke-width="0.0135276"/>
<path fill-rule="evenodd" clip-rule="evenodd" d="M23.5713 56.4895C23.0416 56.4895 22.4677 56.4458 21.8938 56.4895C20.9226 56.5769 20.5694 56.0526 20.5694 55.1788C20.5694 51.7275 20.3487 52.0333 23.5713 52.0333C24.2335 52.0333 24.8957 52.0333 25.5579 52.0333C26.4408 52.0333 26.794 52.4265 26.7498 53.2566C26.7498 56.7953 27.1913 56.5332 23.5713 56.4895Z" fill="#F58B71"/>
<path fill-rule="evenodd" clip-rule="evenodd" d="M23.5713 56.4895C23.0416 56.4895 22.4677 56.4458 21.8938 56.4895C20.9226 56.5769 20.5694 56.0526 20.5694 55.1788C20.5694 51.7275 20.3487 52.0333 23.5713 52.0333C24.2335 52.0333 24.8957 52.0333 25.5579 52.0333C26.4408 52.0333 26.794 52.4265 26.7498 53.2566C26.7498 56.7953 27.1913 56.5332 23.5713 56.4895Z" stroke="#F58B71" stroke-width="0.0135276"/>
<path fill-rule="evenodd" clip-rule="evenodd" d="M33.066 48.6803C29.9317 48.6803 30.0641 49.0735 30.1082 45.7969C30.1082 44.4425 30.329 44.1804 31.6975 44.1367C32.757 44.1367 33.8165 44.1367 34.9202 44.1804C35.7589 44.1804 36.2445 44.5299 36.2004 45.4474C36.1562 46.059 36.1562 46.6706 36.2004 47.3259C36.2887 48.3744 35.7589 48.7676 34.7436 48.724C34.1697 48.6803 33.5958 48.6803 33.066 48.6803Z" fill="#F58B71"/>
<path fill-rule="evenodd" clip-rule="evenodd" d="M33.066 48.6803C29.9317 48.6803 30.0641 49.0735 30.1082 45.7969C30.1082 44.4425 30.329 44.1804 31.6975 44.1367C32.757 44.1367 33.8165 44.1367 34.9202 44.1804C35.7589 44.1804 36.2445 44.5299 36.2004 45.4474C36.1562 46.059 36.1562 46.6706 36.2004 47.3259C36.2887 48.3744 35.7589 48.7676 34.7436 48.724C34.1697 48.6803 33.5958 48.6803 33.066 48.6803Z" stroke="#F58B71" stroke-width="0.0135276"/>
<path fill-rule="evenodd" clip-rule="evenodd" d="M33.0625 56.4544C29.7516 56.4981 30.1047 56.6728 30.1047 53.571C30.1047 52.1293 30.2372 51.9982 31.7381 51.9982C32.7093 51.9982 33.7247 51.9982 34.74 51.9982C34.9607 51.9982 35.2256 51.9545 35.4022 52.0419C36.9914 52.8283 35.9319 54.27 36.1526 55.4059C36.3292 56.1049 35.7553 56.4544 35.049 56.4544C34.3868 56.4544 33.7247 56.4544 33.0625 56.4544Z" fill="#F58B71"/>
<path fill-rule="evenodd" clip-rule="evenodd" d="M33.0625 56.4544C29.7516 56.4981 30.1047 56.6728 30.1047 53.571C30.1047 52.1293 30.2372 51.9982 31.7381 51.9982C32.7093 51.9982 33.7247 51.9982 34.74 51.9982C34.9607 51.9982 35.2256 51.9545 35.4022 52.0419C36.9914 52.8283 35.9319 54.27 36.1526 55.4059C36.3292 56.1049 35.7553 56.4544 35.049 56.4544C34.3868 56.4544 33.7247 56.4544 33.0625 56.4544Z" stroke="#F58B71" stroke-width="0.0135276"/>
<path fill-rule="evenodd" clip-rule="evenodd" d="M39.357 90.8578C45.177 93.0496 51.5425 94.2574 58.2132 94.2574C66.4683 94.2574 74.2379 92.3788 81.1246 89.1022C72.737 95.3933 62.2745 99.1505 50.885 99.1505C44.4395 99.1505 38.2773 97.9431 32.617 95.7446L39.357 90.8578ZM25.1952 82.7539C14.7203 74.2464 8.10825 61.7621 8.10825 47.8608C8.10825 22.2596 30.5341 1.46416 58.2132 1.46416C60.2439 1.46416 62.2745 1.59523 64.2169 1.81367C59.979 0.634093 55.5203 0.0224609 50.885 0.0224609C23.2501 0.0224609 0.82428 22.216 0.82428 49.6083C0.82428 67.0473 9.94266 82.3902 23.7156 91.2194L25.1952 82.7539Z" fill="#F47D5C"/>
<path d="M29.2663 79.6738L22.2913 102.129L40.7883 85.1785L29.2663 79.6738Z" fill="#377044"/>
<path fill-rule="evenodd" clip-rule="evenodd" d="M16.5301 48.7104C16.5301 69.8116 33.835 86.8936 55.113 86.8936C69.2856 86.8936 81.6638 79.3467 88.3715 68.0888H93.2099C86.1049 81.7506 71.7177 91.0877 55.113 91.0877C31.4512 91.0877 12.2921 72.1271 12.2921 48.7104C12.2921 25.2936 31.4512 6.33301 55.113 6.33301C70.8742 6.33301 84.6375 14.7456 92.0715 27.2842H87.0611C80.124 17.1683 68.408 10.5271 55.113 10.5271C33.835 10.5271 16.5301 27.6091 16.5301 48.7104Z" fill="#377044"/>
<path d="M62.6776 37.5386V48.1548C62.501 48.1985 62.3244 48.2422 62.1478 48.2859C61.9271 48.3296 61.6622 48.3733 61.3974 48.3733C60.7352 48.3733 60.2937 48.2422 60.073 48.0238C59.8523 47.849 59.7198 47.4995 59.7198 47.0189V37.5386H58.3513C58.0423 37.5386 57.8216 37.4513 57.6892 37.2328C57.5567 37.0581 57.5126 36.7959 57.5126 36.4028C57.5126 36.2717 57.5126 36.0969 57.5567 35.8785C57.6009 35.6601 57.645 35.4853 57.6892 35.3979H59.5433C59.4108 35.1795 59.3667 34.9611 59.2784 34.7426C59.2342 34.4805 59.2342 34.2184 59.2342 33.9125C59.2342 33.3009 59.3667 32.733 59.6757 32.2087C60.0289 31.6845 60.4703 31.2476 61.0883 30.8544C61.7505 30.4612 62.501 30.1991 63.4281 29.9806C64.3551 29.7622 65.4587 29.6748 66.6507 29.6748C67.7543 29.6748 68.8579 29.7185 69.8733 29.8496C70.9328 30.0243 71.904 30.1991 72.7869 30.4175C73.7139 30.6359 74.5085 30.8981 75.2149 31.2039C75.9653 31.5097 76.5392 31.8155 76.9807 32.0776C77.3338 32.2961 77.5987 32.5145 77.7753 32.733C77.9519 32.9077 78.0402 33.1262 78.0402 33.3446C78.0402 33.6504 77.9519 33.9125 77.7311 34.0873C77.5104 34.3057 77.2014 34.4368 76.8041 34.4805C76.1861 34.1747 75.5239 33.8252 74.7734 33.563C74.0671 33.2572 73.2725 32.9951 72.4337 32.733C71.5949 32.5145 70.712 32.3398 69.785 32.2087C68.8579 32.0776 67.8867 31.9903 66.9155 31.9903C65.3704 31.9903 64.1785 32.2087 63.3839 32.6456C62.6334 33.0388 62.2361 33.6067 62.2361 34.3057C62.2361 34.4805 62.2803 34.6989 62.3244 34.8737C62.3686 35.0484 62.4569 35.2232 62.5451 35.3979H64.0019C64.5758 35.3979 64.8407 35.7474 64.8407 36.4464C64.8407 36.6212 64.8407 36.7959 64.7966 37.0144C64.7524 37.2328 64.7083 37.4076 64.62 37.5386H62.6776Z" fill="#377044"/>
<path d="M73.4409 44.6925C73.0436 44.8236 72.558 44.8673 72.0724 44.8673C71.5868 44.8673 71.2337 44.7799 71.0129 44.5178C70.7481 44.2993 70.6598 43.9498 70.6598 43.5129C70.6598 42.945 70.7481 42.4207 70.9246 41.9402C70.6156 41.8091 70.3066 41.7217 69.9534 41.7217C69.2913 41.7217 68.8057 41.9402 68.4966 42.3334C68.1435 42.7266 67.9669 43.2071 67.9669 43.7751C67.9669 44.2556 68.0552 44.6488 68.2318 44.9546C68.4083 45.3042 68.6291 45.5663 68.9381 45.7847C69.203 46.0032 69.512 46.1342 69.8651 46.2653C70.1742 46.3964 70.5273 46.4837 70.8805 46.5274C70.8805 46.5711 70.8805 46.6585 70.8805 46.7459C70.8805 46.7895 70.8805 46.8769 70.8805 46.9643C70.8805 47.4012 70.7922 47.7507 70.5273 48.0565C70.2625 48.3623 69.821 48.5371 69.1588 48.5371C68.6732 48.5371 68.1435 48.406 67.6579 48.1876C67.1281 47.9691 66.6867 47.6633 66.2894 47.2701C65.8921 46.8332 65.583 46.3527 65.3182 45.741C65.0533 45.1731 64.9209 44.4741 64.9209 43.7314C64.9209 43.0324 65.0533 42.4207 65.274 41.8528C65.5389 41.3285 65.8479 40.848 66.2452 40.4985C66.6425 40.149 67.1281 39.8432 67.6137 39.6684C68.1435 39.4936 68.6732 39.4063 69.2471 39.4063C69.8651 39.4063 70.439 39.4936 70.8805 39.6684C71.3219 39.8432 71.7193 40.0179 72.0724 40.28C72.4256 40.0179 72.8229 39.7995 73.2644 39.6247C73.7058 39.45 74.2356 39.4063 74.7653 39.4063C74.9419 39.4063 75.1185 39.4063 75.2509 39.4063C75.3833 39.4063 75.5599 39.45 75.6924 39.4936V37.5714H64.3028C63.9938 37.5714 63.7731 37.484 63.6406 37.2656C63.5082 37.0908 63.4641 36.8287 63.4641 36.4355C63.4641 36.3044 63.4641 36.1297 63.5082 35.9112C63.5523 35.6928 63.5965 35.518 63.6406 35.4307H79.9745C80.5484 35.4307 80.8132 35.7802 80.8132 36.4792C80.8132 36.6539 80.8132 36.8287 80.7691 37.0471C80.7249 37.2656 80.6808 37.4403 80.5925 37.5714H78.6501V48.1876C78.4735 48.2312 78.3411 48.2749 78.1204 48.3186C77.8996 48.3623 77.6789 48.406 77.3699 48.406C76.7077 48.406 76.2662 48.2749 76.0455 48.0565C75.8248 47.8817 75.6924 47.5322 75.6924 47.0517V41.7654C75.6482 41.7654 75.6041 41.7217 75.5599 41.7217C75.5158 41.7217 75.4716 41.7217 75.3833 41.7217C74.7212 41.7217 74.2356 41.9402 73.9265 42.4207C73.6175 42.8576 73.4409 43.6003 73.4409 44.6925Z" fill="#377044"/>
<path d="M89.7885 37.5714V39.8868C89.7885 40.5422 89.4353 40.848 88.729 40.848H85.3298C84.8884 40.848 84.5793 40.9354 84.4028 41.1101C84.2262 41.2412 84.1379 41.4596 84.1379 41.7654C84.1379 41.8965 84.182 42.0712 84.2262 42.1586C84.3145 42.2897 84.4028 42.3771 84.491 42.5081C84.9325 42.4207 85.4181 42.3771 85.9478 42.3771C86.6983 42.3771 87.3605 42.4207 87.9344 42.5955C88.5083 42.7702 88.9939 42.9887 89.3912 43.2508C89.7885 43.5129 90.0975 43.8188 90.3182 44.1683C90.4948 44.5615 90.6273 44.9546 90.6273 45.3478C90.6273 45.9158 90.4507 46.309 90.1417 46.5274C89.8326 46.7459 89.4353 46.8332 88.9497 46.8332C88.5083 46.8332 88.111 46.7459 87.7137 46.5274C87.7137 46.44 87.7578 46.3964 87.7578 46.3527C87.7578 46.309 87.7578 46.2653 87.7578 46.1779C87.7578 45.6973 87.5812 45.3042 87.2722 44.9983C87.0073 44.6925 86.5217 44.5615 85.9037 44.5615C85.3298 44.5615 84.8442 44.6925 84.5352 44.9983C84.2262 45.3042 84.0496 45.6973 84.0496 46.1779C84.0496 46.7895 84.3145 47.2701 84.8001 47.6196C85.2857 47.9254 85.992 48.1002 87.0073 48.1002C87.2281 48.1002 87.5371 48.1002 87.802 48.0565C88.111 48.0565 88.3758 48.0128 88.5966 47.9691C88.6849 48.1002 88.729 48.2312 88.7732 48.4497C88.8173 48.6244 88.8614 48.8429 88.8614 49.0176C88.8614 49.4545 88.6849 49.804 88.3317 50.0661C87.9785 50.2846 87.4488 50.4156 86.6542 50.4156C85.8596 50.4156 85.0649 50.3283 84.3586 50.1535C83.6964 49.9351 83.0784 49.673 82.5928 49.3234C82.1072 48.9739 81.7099 48.4934 81.445 47.9691C81.1801 47.4449 81.0036 46.8332 81.0036 46.1779C81.0036 45.61 81.136 45.1294 81.3567 44.6925C81.5333 44.212 81.8423 43.8624 82.1955 43.5566C81.8865 43.2945 81.6216 42.9887 81.4009 42.6392C81.2243 42.246 81.0919 41.8528 81.0919 41.3722C81.0919 40.5858 81.4009 39.9305 81.9306 39.4936C82.5045 39.0568 83.255 38.8383 84.2262 38.8383H86.8308V37.5714H80.2531C79.8999 37.5714 79.6792 37.484 79.5468 37.2656C79.4585 37.0908 79.3702 36.8287 79.3702 36.4355C79.3702 36.3044 79.4143 36.1297 79.4143 35.9112C79.4585 35.6928 79.5026 35.518 79.5468 35.4307H91.2012C91.775 35.4307 92.0399 35.7802 92.0399 36.4792C92.0399 36.6539 92.0399 36.8287 91.9958 37.0471C91.9516 37.2656 91.9075 37.4403 91.8633 37.5714H89.7885Z" fill="#377044"/>
<path d="M95.6569 37.5714V48.1876C95.5245 48.2312 95.3479 48.2749 95.1272 48.3186C94.9065 48.3623 94.6857 48.406 94.4209 48.406C93.7587 48.406 93.3172 48.2749 93.0524 48.0565C92.8316 47.8817 92.6992 47.5322 92.6992 47.0517V37.5714H91.3748C91.0217 37.5714 90.801 37.484 90.7127 37.2656C90.5802 37.0908 90.4919 36.8287 90.4919 36.4355C90.4919 36.3044 90.5361 36.1297 90.5802 35.9112C90.5802 35.6928 90.6244 35.518 90.7127 35.4307H97.0254C97.5993 35.4307 97.8642 35.7802 97.8642 36.4792C97.8642 36.6539 97.8642 36.8287 97.8201 37.0471C97.7759 37.2656 97.6876 37.4403 97.6435 37.5714H95.6569Z" fill="#377044"/>
<path d="M73.928 59.3497C74.1488 59.306 74.4136 59.2623 74.6785 59.2186C74.8992 59.1749 75.1641 59.1312 75.4731 59.1312C76.2677 59.1312 76.8858 59.306 77.3272 59.6555C77.7687 60.005 77.9452 60.4856 77.9452 61.0535C77.9452 61.403 77.9011 61.7088 77.7245 61.9709C77.5921 62.2331 77.3713 62.4515 77.1065 62.6263C76.8416 62.801 76.5326 62.9321 76.1353 62.9758C75.7821 63.0631 75.3848 63.1068 74.9434 63.1068C74.8992 63.1068 74.8551 63.1068 74.8109 63.1068C74.7668 63.1068 74.7226 63.1068 74.6785 63.1068C74.9434 63.3253 75.1641 63.5 75.429 63.7185C75.6938 63.8932 75.9587 64.068 76.2677 64.2427C76.2677 64.5485 76.1794 64.767 76.0029 64.9417C75.8263 65.1165 75.6055 65.2039 75.2965 65.2039C74.9875 65.2039 74.6785 65.1165 74.4578 64.898C74.1929 64.6796 73.928 64.3301 73.6632 63.8932L73.1334 62.9758C72.692 62.8447 72.383 62.7136 72.1181 62.4952C71.8974 62.3205 71.7649 62.0583 71.7649 61.7962C71.7649 61.6214 71.8091 61.4467 71.9415 61.3156C72.0298 61.1846 72.2064 61.0972 72.3388 61.0098C72.6478 61.2719 73.001 61.4904 73.4424 61.6651C73.8397 61.8399 74.3695 61.9273 74.8992 61.9273C75.3848 61.9273 75.738 61.8836 76.0029 61.7088C76.2236 61.5341 76.356 61.3593 76.356 61.0972C76.356 60.5729 75.9146 60.3108 75.0317 60.3108C74.8109 60.3108 74.5461 60.3108 74.3253 60.3545C74.0605 60.3982 73.8397 60.4856 73.619 60.5292C73.3983 60.4856 73.2217 60.3982 73.001 60.2671C72.8244 60.1797 72.6478 60.0487 72.4712 59.8739C72.2947 59.6992 72.1622 59.5244 72.0298 59.306C71.9415 59.0875 71.8974 58.8691 71.8974 58.607C71.8974 58.0827 72.0739 57.6895 72.4271 57.3837C72.7803 57.0342 73.31 56.9031 74.0163 56.9031H75.8263V55.8983H71.191C70.882 55.8983 70.7054 55.6799 70.7054 55.2867C70.7054 55.1993 70.7496 55.1119 70.7496 54.9809C70.7496 54.8935 70.7937 54.8061 70.8379 54.7188H78.475C78.8281 54.7188 78.9606 54.9372 78.9606 55.3304C78.9606 55.3741 78.9606 55.5051 78.9606 55.5925C78.9164 55.7236 78.9164 55.8109 78.8723 55.8983H77.4155V57.4274C77.4155 57.8206 77.1948 58.039 76.7533 58.039H74.3695C74.0605 58.039 73.8397 58.0827 73.7073 58.2138C73.5749 58.3448 73.4866 58.4759 73.4866 58.6944C73.4866 58.8254 73.5307 59.0002 73.619 59.0875C73.7073 59.2186 73.7956 59.306 73.928 59.3497Z" fill="#373435"/>
<path d="M75.6185 52.6897C75.6185 52.4275 75.7068 52.2091 75.8834 52.0343C76.06 51.8596 76.3248 51.7285 76.6339 51.7285C76.9429 51.7285 77.1636 51.8596 77.3402 52.0343C77.5168 52.2091 77.605 52.4275 77.605 52.6897C77.605 52.9518 77.5168 53.1702 77.3402 53.345C77.1636 53.5634 76.9429 53.6508 76.6339 53.6508C76.3248 53.6508 76.06 53.5634 75.8834 53.345C75.7068 53.1702 75.6185 52.9518 75.6185 52.6897Z" fill="#373435"/>
<path d="M81.1239 55.8977V62.9752C81.0356 63.0189 80.9473 63.0189 80.859 63.0625C80.7266 63.0625 80.5942 63.0625 80.4617 63.0625C80.1086 63.0625 79.8878 63.0189 79.7554 62.9315C79.623 62.8004 79.5788 62.6257 79.5788 62.3635V55.8977H78.5635C78.3869 55.8977 78.2545 55.854 78.1662 55.723C78.122 55.6356 78.0779 55.5045 78.0779 55.2861C78.0779 55.1987 78.0779 55.1113 78.0779 54.9803C78.122 54.8929 78.122 54.8055 78.1662 54.7182H79.4905C79.4022 54.5871 79.3581 54.456 79.3139 54.2376C79.2698 54.0628 79.2257 53.8444 79.2257 53.6696C79.2257 52.8833 79.5347 52.2716 80.1527 51.7911C80.8149 51.3542 81.6536 51.1357 82.8014 51.1357C83.5519 51.1357 84.2141 51.2231 84.8321 51.3542C85.406 51.5289 85.9357 51.7474 86.3772 52.0095C86.8186 52.2279 87.1718 52.4901 87.3925 52.7522C87.6574 53.0143 87.7457 53.2328 87.7457 53.4075C87.7457 53.5823 87.6574 53.7133 87.4808 53.8444C87.3484 53.9755 87.0835 54.0191 86.8186 54.0191C86.333 53.5386 85.8033 53.1017 85.1411 52.8396C84.5231 52.5338 83.7726 52.359 82.9338 52.359C82.2717 52.359 81.7419 52.4901 81.3888 52.7522C81.0356 53.0143 80.859 53.4075 80.859 53.8881C80.859 54.0191 80.859 54.1939 80.9032 54.325C80.9473 54.4997 80.9915 54.6308 81.0356 54.7182H82.0951C82.4482 54.7182 82.5807 54.9366 82.5807 55.3298C82.5807 55.3735 82.5807 55.5045 82.5365 55.5919C82.5365 55.723 82.4924 55.8104 82.4924 55.8977H81.1239Z" fill="#373435"/>
<path d="M84.9212 59.3497C85.1419 59.306 85.4068 59.2623 85.6717 59.2186C85.8924 59.1749 86.1573 59.1312 86.4663 59.1312C87.2609 59.1312 87.9231 59.306 88.3204 59.6555C88.7618 60.005 88.9384 60.4856 88.9384 61.0535C88.9384 61.7525 88.6735 62.2768 88.1438 62.6263C87.5699 62.9758 86.8636 63.1505 85.9365 63.1505C85.4951 63.1505 85.0978 63.1505 84.7446 63.0632C84.3473 62.9758 83.9941 62.8884 83.7293 62.801C83.4203 62.67 83.1995 62.5389 83.023 62.3641C82.8464 62.1894 82.7581 62.0146 82.7581 61.7962C82.7581 61.5778 82.8022 61.4467 82.9347 61.3156C83.0671 61.1846 83.1995 61.0972 83.332 61.0098C83.641 61.2719 83.9941 61.4904 84.3915 61.6651C84.8329 61.8399 85.3626 61.9273 85.8924 61.9273C86.378 61.9273 86.7311 61.8836 86.996 61.7088C87.2167 61.5341 87.3492 61.3593 87.3492 61.0972C87.3492 60.5729 86.9077 60.3108 86.0248 60.3108C85.8041 60.3108 85.5392 60.3108 85.3185 60.3545C85.0536 60.3982 84.8329 60.4856 84.6122 60.5292C84.3915 60.4856 84.2149 60.3982 83.9941 60.2671C83.8176 60.1797 83.641 60.0487 83.4644 59.8739C83.2878 59.6992 83.1554 59.5244 83.023 59.306C82.9347 59.0875 82.8905 58.8691 82.8905 58.607C82.8905 58.0827 83.0671 57.6895 83.4203 57.3837C83.7734 57.0342 84.3032 56.9031 85.0095 56.9031H86.8194V55.8983H82.1842C81.8752 55.8983 81.6986 55.6799 81.6986 55.2867C81.6986 55.1993 81.7428 55.1119 81.7428 54.9809C81.7428 54.8935 81.7869 54.8061 81.831 54.7188H89.5123C89.8213 54.7188 89.9979 54.9372 89.9979 55.3304C89.9979 55.3741 89.9537 55.5051 89.9537 55.5925C89.9537 55.7236 89.9096 55.8109 89.8654 55.8983H88.4086V57.4274C88.4086 57.8206 88.1879 58.039 87.7465 58.039H85.3626C85.0536 58.039 84.8329 58.0827 84.7005 58.2138C84.568 58.3449 84.4797 58.4759 84.4797 58.6944C84.4797 58.8254 84.5239 59.0002 84.6122 59.0875C84.7005 59.2186 84.7888 59.306 84.9212 59.3497Z" fill="#373435"/>
<path d="M96.973 55.8983V62.9758C96.9289 63.0195 96.8406 63.0195 96.7081 63.0631C96.5757 63.0631 96.4874 63.0631 96.3108 63.0631C96.0018 63.0631 95.737 63.0195 95.6487 62.9321C95.5162 62.801 95.4279 62.6263 95.4279 62.3641V61.0098C95.2072 61.1846 94.8982 61.3593 94.5892 61.4467C94.2802 61.5341 93.927 61.5778 93.4856 61.5778C92.8234 61.5778 92.2495 61.4467 91.7639 61.1846C91.2342 60.9224 90.8368 60.5292 90.572 60.0924C90.3954 59.8739 90.263 59.5681 90.1747 59.306C90.0864 59.0002 90.0422 58.7817 90.0422 58.5633C90.0422 58.4759 90.0422 58.3448 90.0864 58.2575C90.1305 58.2138 90.2188 58.1264 90.3513 58.1264C90.9251 58.0827 91.3224 57.9517 91.5873 57.7769C91.8522 57.5585 91.9846 57.2963 91.9846 56.9468C91.9846 56.6847 91.8963 56.51 91.808 56.3352C91.6756 56.1168 91.499 55.9857 91.2783 55.8983H89.5566C89.2476 55.8983 89.071 55.6799 89.071 55.2867C89.071 55.1993 89.071 55.1119 89.1152 54.9809C89.1152 54.8935 89.1593 54.8061 89.2035 54.7188H97.9442C98.1208 54.7188 98.2532 54.7624 98.3415 54.8935C98.3857 54.9809 98.4298 55.1119 98.4298 55.3304C98.4298 55.3741 98.4298 55.5051 98.4298 55.5925C98.3857 55.7236 98.3857 55.8109 98.3415 55.8983H96.973ZM93.6621 60.3108C94.0594 60.3108 94.4126 60.2234 94.7216 60.0924C95.0306 59.9176 95.2514 59.7866 95.4279 59.5681V55.8983H92.9558C93.1324 56.0294 93.2648 56.2041 93.3973 56.4226C93.5297 56.641 93.618 56.8595 93.618 57.1216C93.618 57.4274 93.5297 57.6458 93.4414 57.8643C93.3531 58.0827 93.2207 58.2575 93.0441 58.4322C92.8675 58.5633 92.6468 58.6944 92.4261 58.7817C92.1612 58.8691 91.9405 58.9565 91.6315 59.0002C91.7639 59.3497 91.9846 59.6555 92.3378 59.9176C92.6468 60.1797 93.0883 60.3108 93.6621 60.3108Z" fill="#373435"/>
<path d="M100.695 55.8983V62.9758C100.607 63.0195 100.518 63.0195 100.386 63.0631C100.298 63.0631 100.165 63.0631 99.9886 63.0631C99.6796 63.0631 99.4589 63.0195 99.3265 62.9321C99.194 62.801 99.1057 62.6263 99.1057 62.3641V55.8983H98.0904C97.9138 55.8983 97.7814 55.8546 97.7372 55.7236C97.6489 55.6362 97.6048 55.5051 97.6048 55.2867C97.6048 55.1993 97.6489 55.1119 97.6489 54.9809C97.6489 54.8935 97.6931 54.8061 97.6931 54.7188H101.666C101.975 54.7188 102.152 54.9372 102.152 55.3304C102.152 55.3741 102.108 55.5051 102.108 55.5925C102.063 55.7236 102.063 55.8109 102.019 55.8983H100.695Z" fill="#373435"/>
</svg>
