<?xml version="1.0" encoding="UTF-8"?>
<!DOCTYPE svg PUBLIC "-//W3C//DTD SVG 1.1//EN" "http://www.w3.org/Graphics/SVG/1.1/DTD/svg11.dtd">
<!-- Creator: CorelDRAW X7 -->
<svg xmlns="http://www.w3.org/2000/svg" xml:space="preserve" width="484px" height="611px" version="1.1" style="shape-rendering:geometricPrecision; text-rendering:geometricPrecision; image-rendering:optimizeQuality; fill-rule:evenodd; clip-rule:evenodd"
viewBox="0 0 19851 25049"
 xmlns:xlink="http://www.w3.org/1999/xlink">
 <defs>
  <style type="text/css">
   <![CDATA[
    .fil3 {fill:none}
    .fil5 {fill:#70342D}
    .fil16 {fill:#70352E}
    .fil15 {fill:#BD8617}
    .fil18 {fill:white}
    .fil19 {fill:#70342D;fill-rule:nonzero}
    .fil11 {fill:#F0E673;fill-rule:nonzero}
    .fil6 {fill:#FFEEC2;fill-rule:nonzero}
    .fil7 {fill:#FFF7EB;fill-rule:nonzero}
    .fil23 {fill:#FFFBC2;fill-rule:nonzero}
    .fil22 {fill:white;fill-rule:nonzero}
    .fil1 {fill:#FFF0D4;fill-rule:nonzero;fill-opacity:0.501961}
    .fil13 {fill:url(#id0)}
    .fil10 {fill:url(#id1)}
    .fil12 {fill:url(#id2)}
    .fil8 {fill:url(#id3)}
    .fil2 {fill:url(#id4)}
    .fil4 {fill:url(#id5)}
    .fil9 {fill:url(#id6)}
    .fil14 {fill:url(#id7)}
    .fil0 {fill:url(#id8)}
    .fil20 {fill:url(#id9)}
    .fil21 {fill:url(#id10);fill-rule:nonzero}
    .fil17 {fill:url(#id11);fill-rule:nonzero}
   ]]>
  </style>
  <linearGradient id="id0" gradientUnits="userSpaceOnUse" x1="9925.61" y1="5260.23" x2="9925.61" y2="16070">
   <stop offset="0" style="stop-opacity:1; stop-color:#F0E673"/>
   <stop offset="0.278431" style="stop-opacity:1; stop-color:#AF813C"/>
   <stop offset="0.501961" style="stop-opacity:1; stop-color:#7E3D30"/>
   <stop offset="1" style="stop-opacity:1; stop-color:#CC983B"/>
  </linearGradient>
  <linearGradient id="id1" gradientUnits="userSpaceOnUse" x1="9925.61" y1="2762.7" x2="9925.8" y2="17759.6">
   <stop offset="0" style="stop-opacity:1; stop-color:#F5E534"/>
   <stop offset="0.521569" style="stop-opacity:1; stop-color:#80210E"/>
   <stop offset="1" style="stop-opacity:1; stop-color:#DDB343"/>
  </linearGradient>
  <linearGradient id="id2" gradientUnits="userSpaceOnUse" x1="9930.64" y1="10002.9" x2="9930.64" y2="17146.7">
   <stop offset="0" style="stop-opacity:1; stop-color:#BD8617"/>
   <stop offset="0.568627" style="stop-opacity:1; stop-color:#DEBF61"/>
   <stop offset="1" style="stop-opacity:1; stop-color:#FFF9AB"/>
  </linearGradient>
  <linearGradient id="id3" gradientUnits="userSpaceOnUse" x1="1653.67" y1="8311.78" x2="1663.45" y2="11139.5">
   <stop offset="0" style="stop-opacity:1; stop-color:#ECDF56"/>
   <stop offset="1" style="stop-opacity:1; stop-color:#CC983B"/>
  </linearGradient>
  <linearGradient id="id4" gradientUnits="userSpaceOnUse" x1="4987.74" y1="19835.9" x2="9018.96" y2="17266.8">
   <stop offset="0" style="stop-opacity:1; stop-color:#B00205"/>
   <stop offset="1" style="stop-opacity:1; stop-color:red"/>
  </linearGradient>
  <linearGradient id="id5" gradientUnits="userSpaceOnUse" x1="9962.55" y1="879.44" x2="9962.55" y2="19806.7">
   <stop offset="0" style="stop-opacity:1; stop-color:#FFF9AB"/>
   <stop offset="0.211765" style="stop-opacity:1; stop-color:#E8DA3A"/>
   <stop offset="0.639216" style="stop-opacity:1; stop-color:#782211"/>
   <stop offset="1" style="stop-opacity:1; stop-color:#CF8D1B"/>
  </linearGradient>
  <linearGradient id="id6" gradientUnits="userSpaceOnUse" xlink:href="#id3" x1="18500.8" y1="8311.78" x2="18510.6" y2="11139.5">
  </linearGradient>
  <linearGradient id="id7" gradientUnits="userSpaceOnUse" x1="10509.9" y1="4393.13" x2="10510.1" y2="15589.3">
   <stop offset="0" style="stop-opacity:1; stop-color:#FFF9AB"/>
   <stop offset="1" style="stop-opacity:1; stop-color:#C18A3A"/>
  </linearGradient>
  <linearGradient id="id8" gradientUnits="userSpaceOnUse" x1="15001.3" y1="18186.7" x2="9998.62" y2="18911">
   <stop offset="0" style="stop-opacity:1; stop-color:red"/>
   <stop offset="1" style="stop-opacity:1; stop-color:#B00205"/>
  </linearGradient>
  <radialGradient id="id9" gradientUnits="userSpaceOnUse" gradientTransform="matrix(4.41435E-005 0.597907 -1.14035 4.5476E-005 28091 10237)" cx="9761.91" cy="16074" r="4534.9" fx="9761.91" fy="16074">
   <stop offset="0" style="stop-opacity:1; stop-color:#FEFEFE"/>
   <stop offset="0.921569" style="stop-opacity:1; stop-color:#EDD8A0"/>
   <stop offset="1" style="stop-opacity:1; stop-color:#DDB343"/>
  </radialGradient>
  <linearGradient id="id10" gradientUnits="userSpaceOnUse" x1="9460.57" y1="2310.93" x2="9460.57" y2="987.845">
   <stop offset="0" style="stop-opacity:1; stop-color:#ECDF56"/>
   <stop offset="0.560784" style="stop-opacity:1; stop-color:#F3E971"/>
   <stop offset="1" style="stop-opacity:1; stop-color:#FBF38C"/>
  </linearGradient>
  <linearGradient id="id11" gradientUnits="userSpaceOnUse" x1="9164.45" y1="12218.8" x2="9164.5" y2="6843.26">
   <stop offset="0" style="stop-opacity:1; stop-color:#DDB343"/>
   <stop offset="1" style="stop-opacity:1; stop-color:#ECDF56"/>
  </linearGradient>
 </defs>
 <g id="Layer_x0020_1">
  <metadata id="CorelCorpID_0Corel-Layer"/>
  <g id="_955556856">
   <g>
    <path class="fil0" d="M9801 19242l-945 194 -261 53 -176 36 -158 32 -75 16 -23 5 76 130 1569 2726 1438 2498c81,126 175,155 288,53l1943 -2370c52,-98 130,-169 267,-181l3010 -502c198,-12 244,-112 139,-299l-1824 -3217 -61 -108 -9 -16 -33 -59 -25 -43 -32 6 -260 53 -140 29 -88 18 -4620 946z"/>
    <path class="fil1" d="M14498 18429l74 -43 -86 -147 -73 42 85 148zm-5915 1079l-74 42 85 149 74 -43 -85 -148zm170 296l-74 43 85 148 74 -43 -85 -148zm170 296l-74 43 85 148 74 -43 -85 -148zm171 297l-74 42 85 148 74 -42 -85 -148zm170 296l-74 42 85 148 74 -42 -85 -148zm170 296l-74 43 85 148 74 -43 -85 -148zm170 296l-74 43 85 148 74 -43 -85 -148zm171 296l-75 43 86 148 74 -42 -85 -149zm170 297l-74 42 85 148 74 -42 -85 -148zm170 296l-74 42 85 148 74 -42 -85 -148zm170 296l-74 43 85 148 74 -43 -85 -148zm170 296l-74 43 86 148 74 -43 -86 -148zm171 296l-74 43 85 148 74 -42 -85 -149zm170 297l-74 42 85 148 74 -42 -85 -148zm170 296l-74 42 85 148 74 -42 -85 -148zm170 296l-74 43 85 148 74 -43 -85 -148zm170 296l-74 43 85 148 75 -43 -86 -148zm105 248l65 55 110 -131 -66 -55 -109 131zm218 -262l66 55 110 -132 -66 -54 -110 131zm219 -262l66 54 109 -131 -65 -55 -110 132zm219 -263l66 55 109 -131 -65 -55 -110 131zm219 -262l66 55 109 -131 -65 -55 -110 131zm219 -262l66 55 109 -132 -65 -54 -110 131zm219 -262l66 54 109 -131 -65 -55 -110 132zm219 -263l66 55 109 -131 -65 -55 -110 131zm219 -262l66 55 109 -131 -65 -55 -110 131zm219 -262l13 11 30 54 163 -26 -13 -85 -179 29 -14 17zm361 -73l14 85 168 -27 -13 -85 -169 27zm338 -54l13 85 169 -27 -14 -85 -168 27zm337 -54l13 85 169 -27 -13 -85 -169 27zm337 -54l14 85 169 -27 -14 -85 -169 27zm338 -54l13 85 169 -27 -14 -85 -168 27zm337 -54l14 84 168 -27 -13 -84 -169 27zm337 -54l14 85 168 -27 -13 -85 -169 27zm338 -54l13 85 169 -27 -14 -85 -168 27zm279 -4l73 -42 -85 -148 -74 43 86 147zm-172 -295l74 -43 -86 -148 -73 43 85 148zm-171 -296l74 -43 -86 -147 -74 42 86 148zm-171 -295l73 -43 -85 -148 -74 43 86 148zm-172 -296l74 -43 -86 -148 -73 43 85 148zm-171 -296l74 -42 -86 -148 -74 43 86 147zm-171 -295l74 -43 -86 -148 -74 43 86 148zm-172 -296l74 -42 -85 -148 -74 43 85 147zm-171 -295l74 -43 -86 -148 -74 43 86 148zm-171 -296l74 -43 -86 -147 -74 42 86 148zm-172 -295l74 -43 -85 -148 -74 43 85 148z"/>
    <path class="fil2" d="M4674 18192c-651,1148 -1302,2296 -1952,3444 -106,187 -59,286 138,299 1004,167 2007,334 3011,501 137,13 215,84 267,182 647,790 1295,1580 1942,2370 113,102 208,72 289,-54 1027,-1784 2055,-3569 3082,-5354 -2259,-463 -4518,-925 -6777,-1388z"/>
    <path class="fil1" d="M5094 18385l-74 -42 85 -148 74 43 -85 147zm5915 1079l74 43 -85 148 -74 -43 85 -148zm-170 296l74 43 -85 148 -75 -43 86 -148zm-171 297l74 42 -85 148 -74 -42 85 -148zm-170 296l74 42 -85 148 -74 -42 85 -148zm-170 296l74 42 -85 149 -74 -43 85 -148zm-170 296l74 43 -85 148 -74 -43 85 -148zm-171 296l74 43 -85 148 -74 -42 85 -149zm-170 297l74 42 -85 148 -74 -42 85 -148zm-170 296l74 42 -85 148 -74 -42 85 -148zm-170 296l74 43 -85 148 -74 -43 85 -148zm-171 296l75 43 -86 148 -74 -43 85 -148zm-170 296l74 43 -85 148 -74 -42 85 -149zm-170 297l74 42 -85 148 -74 -42 85 -148zm-170 296l74 42 -85 149 -74 -43 85 -148zm-170 296l74 43 -86 148 -74 -43 86 -148zm-171 296l74 43 -85 148 -74 -43 85 -148zm-170 296l74 43 -85 148 -74 -43 85 -148zm-104 248l-65 55 -110 -131 66 -55 109 131zm-219 -262l-65 55 -110 -131 66 -55 109 131zm-219 -262l-65 54 -110 -131 66 -54 109 131zm-219 -263l-65 55 -110 -131 66 -55 109 131zm-219 -262l-65 55 -110 -131 66 -55 109 131zm-219 -262l-65 55 -110 -131 66 -55 109 131zm-218 -262l-66 55 -110 -132 66 -54 110 131zm-219 -262l-66 54 -109 -131 65 -55 110 132zm-219 -263l-66 55 -109 -131 65 -55 110 131zm-219 -262l-13 11 -31 54 -162 -26 13 -84 178 28 15 17zm-362 -73l-13 85 -169 -27 14 -85 168 27zm-337 -54l-13 85 -169 -27 13 -85 169 27zm-337 -54l-14 85 -168 -27 13 -85 169 27zm-338 -54l-13 85 -169 -27 14 -85 168 27zm-337 -54l-14 85 -168 -27 13 -85 169 27zm-337 -54l-14 85 -168 -27 13 -85 169 27zm-338 -54l-13 85 -169 -27 14 -85 168 27zm-337 -54l-13 85 -169 -27 13 -85 169 27zm-279 -3l-74 -43 86 -148 74 43 -86 148zm172 -296l-74 -43 85 -148 74 43 -85 148zm171 -296l-74 -42 86 -148 73 43 -85 147zm171 -295l-74 -43 86 -148 74 43 -86 148zm171 -296l-73 -43 85 -147 74 42 -86 148zm172 -295l-74 -43 86 -148 73 43 -85 148zm171 -296l-74 -43 86 -148 74 43 -86 148zm171 -296l-74 -42 86 -148 74 43 -86 147zm172 -295l-74 -43 85 -148 74 43 -85 148zm171 -296l-74 -42 86 -148 74 43 -86 147zm171 -295l-74 -43 86 -148 74 43 -86 148z"/>
   </g>
   <circle class="fil3" cx="9925" cy="9849" r="9849"/>
   <path class="fil4" d="M9925 0c5482,0 9926,4444 9926,9925 0,5482 -4444,9926 -9926,9926 -5481,0 -9925,-4444 -9925,-9926 0,-5481 4444,-9925 9925,-9925zm0 2707c3987,0 7219,3232 7219,7218 0,3987 -3232,7219 -7219,7219 -3986,0 -7218,-3232 -7218,-7219 0,-3986 3232,-7218 7218,-7218z"/>
   <path class="fil5" d="M1717 11585c-54,-272 -95,-547 -122,-823 -27,-276 -40,-554 -40,-831 0,-278 13,-556 40,-832 27,-276 68,-551 122,-823 9,-44 -20,-87 -64,-96 -45,-9 -88,20 -97,64 -55,277 -96,557 -124,839 -28,281 -42,564 -42,848 0,283 14,566 42,847 28,282 69,562 124,839 9,44 52,73 97,64 44,-9 73,-52 64,-96z"/>
   <path class="fil6" d="M9925 124c2707,0 5157,1097 6931,2871 1774,1773 2871,4224 2871,6930 0,2707 -1097,5157 -2871,6931 -1774,1774 -4224,2871 -6931,2871 -2706,0 -5157,-1097 -6930,-2871 -1774,-1774 -2871,-4224 -2871,-6931 0,-2706 1097,-5157 2871,-6930 1773,-1774 4224,-2871 6930,-2871zm6871 2931c-1759,-1758 -4188,-2846 -6871,-2846 -2683,0 -5112,1088 -6870,2846 -1758,1758 -2846,4187 -2846,6870 0,2683 1088,5112 2846,6871 1758,1758 4187,2845 6870,2845 2683,0 5112,-1087 6871,-2845 1758,-1759 2845,-4188 2845,-6871 0,-2683 -1087,-5112 -2845,-6870z"/>
   <path class="fil7" d="M9925 271c2666,0 5080,1080 6827,2827 1747,1748 2828,4161 2828,6827 0,2667 -1081,5080 -2828,6827 -1747,1747 -4160,2828 -6827,2828 -2666,0 -5079,-1081 -6827,-2828 -1747,-1747 -2827,-4161 -2827,-6827 0,-2666 1080,-5079 2827,-6827 1748,-1747 4161,-2827 6827,-2827zm6767 2888c-1732,-1732 -4124,-2803 -6767,-2803 -2642,0 -5034,1071 -6766,2803 -1732,1732 -2803,4124 -2803,6766 0,2643 1071,5035 2803,6767 1732,1732 4124,2803 6766,2803 2643,0 5035,-1071 6767,-2803 1732,-1732 2803,-4124 2803,-6767 0,-2642 -1071,-5034 -2803,-6766z"/>
   <path class="fil5" d="M18250 8276c54,272 95,547 122,823 27,276 40,554 40,832 0,277 -13,555 -40,831 -27,276 -68,551 -122,823 -9,44 20,87 64,96 45,9 88,-20 97,-64 55,-277 96,-557 124,-838 28,-282 42,-565 42,-848 0,-284 -14,-567 -42,-848 -28,-282 -69,-561 -124,-839 -9,-44 -52,-73 -97,-64 -44,9 -73,52 -64,96z"/>
   <path class="fil8" d="M1665 11580c-55,-272 -96,-547 -123,-823 -27,-276 -40,-554 -40,-832 0,-277 13,-555 40,-831 27,-276 68,-551 123,-823 8,-44 -20,-87 -65,-96 -44,-9 -88,20 -96,64 -56,277 -97,557 -125,838 -27,282 -41,565 -41,848 0,284 14,567 41,848 28,282 69,561 125,839 8,44 52,73 96,64 44,-9 73,-52 65,-96z"/>
   <path class="fil9" d="M18186 8271c54,272 95,547 123,823 27,276 40,554 40,831 0,278 -13,556 -40,832 -28,276 -69,551 -123,823 -9,44 20,87 65,96 44,9 87,-20 96,-64 55,-278 97,-557 124,-839 28,-281 42,-564 42,-848 0,-283 -14,-566 -42,-848 -27,-281 -69,-561 -124,-838 -9,-44 -52,-73 -96,-64 -45,9 -74,52 -65,96z"/>
   <circle class="fil10" cx="9925" cy="9925" r="7226"/>
   <path class="fil11" d="M15888 7594c-30,-80 -152,-60 -152,30 0,10 1,18 5,27 19,49 37,98 55,147 35,91 173,51 151,-47l-3 -8c-18,-50 -37,-100 -56,-149zm-11759 9c13,-35 2,-72 -28,-94 -44,-29 -98,-13 -119,35 -20,50 -39,99 -57,149 -31,81 76,149 136,76 5,-6 9,-13 12,-21 18,-48 37,-97 56,-145zm-245 739c23,-83 -94,-140 -145,-59 -3,7 -6,12 -8,20 -13,51 -26,103 -39,155 -21,96 120,140 153,40 13,-52 26,-104 39,-156zm-151 765c13,-95 -128,-128 -155,-28l-1 8c-7,53 -14,105 -19,158 -3,30 9,57 33,73 48,35 119,2 124,-56 5,-52 11,-104 18,-155zm-53 777c0,-83 -114,-111 -152,-32 -4,11 -6,20 -6,32 -1,53 0,106 1,159 4,101 148,104 157,4 2,-54 -1,-109 0,-163zm44 778c-13,-97 -158,-90 -158,12 5,54 14,112 22,166 2,17 12,35 25,47 56,49 141,4 131,-70 -7,-52 -14,-103 -20,-155zm140 766c-26,-98 -172,-65 -153,36 12,52 26,106 41,158 24,88 159,71 155,-27 -1,-6 -2,-10 -3,-16 -14,-50 -27,-100 -40,-151zm235 743c-30,-77 -148,-61 -152,27 0,12 1,20 5,31 19,50 39,99 59,148 16,37 56,57 95,46 45,-13 69,-64 51,-107 -20,-48 -39,-96 -58,-145zm325 709c-46,-84 -175,-28 -144,63 1,4 3,8 5,12 25,47 51,93 77,140 40,73 160,39 147,-53 -2,-10 -5,-17 -10,-26 -25,-37 -53,-95 -75,-136zm410 663c-47,-69 -162,-23 -141,65 3,10 6,17 13,26 30,44 62,87 94,129 58,75 173,5 134,-80 -2,-5 -5,-10 -8,-14 -31,-42 -62,-84 -92,-126zm490 606c-63,-66 -170,6 -128,90 4,7 7,11 12,17 36,39 72,78 109,116 66,67 175,-15 122,-100 -3,-3 -6,-7 -9,-10 -36,-37 -71,-75 -106,-113zm561 540c-51,-46 -136,-3 -129,66 1,21 12,41 28,54 40,35 81,69 123,102 38,30 91,21 116,-20 21,-33 13,-79 -17,-103 -41,-33 -81,-66 -121,-99zm625 465c-34,-21 -76,-15 -102,15 -32,35 -24,92 16,118 45,29 90,57 135,85 73,46 161,-46 101,-119 -5,-6 -11,-11 -18,-15 -44,-28 -88,-55 -132,-84zm678 384c-83,-40 -156,72 -83,133 5,4 9,7 15,9 48,24 96,46 144,68 88,38 155,-81 78,-136 -4,-3 -8,-6 -13,-8 -47,-21 -94,-43 -141,-66zm721 298c-92,-30 -147,95 -64,144 5,2 8,4 13,5 50,17 101,34 152,50 88,28 145,-96 62,-144 -5,-3 -10,-5 -15,-7 -50,-15 -99,-32 -148,-48zm751 206c-81,-19 -135,93 -57,144 9,5 15,8 25,10 52,11 105,21 157,31 92,16 133,-115 42,-152 -5,-2 -9,-3 -14,-4 -51,-9 -102,-19 -153,-29zm772 110c-91,-8 -122,123 -30,154 6,2 11,3 17,3 54,4 107,8 160,11 88,4 117,-119 31,-153 -7,-3 -15,-4 -23,-5 -52,-3 -104,-6 -155,-10zm778 13c-87,3 -104,130 -17,155 9,2 16,3 25,2 53,-2 107,-5 160,-9 95,-8 99,-149 -2,-158 -3,0 -7,0 -10,0 -52,4 -104,7 -156,10zm775 -85c-91,16 -85,152 13,157 5,0 10,-1 15,-2 52,-9 104,-18 157,-29 99,-23 73,-169 -29,-155 -52,10 -104,20 -156,29zm758 -181c-94,30 -60,171 39,153 52,-13 109,-33 160,-50 80,-26 69,-150 -24,-154 -10,0 -17,1 -26,4 -49,17 -99,33 -149,47zm730 -273c-79,34 -52,160 42,151 8,-1 15,-3 23,-6 48,-22 97,-45 145,-67 18,-9 31,-23 39,-42 27,-67 -42,-132 -107,-101 -47,22 -94,44 -142,65zm691 -361c-80,51 -23,172 67,142 5,-2 9,-4 15,-7 45,-27 90,-56 135,-84 71,-45 31,-157 -54,-145 -12,2 -21,5 -31,12 -44,28 -88,55 -132,82zm640 -444c-68,53 -11,166 77,136 8,-4 14,-7 21,-12 42,-34 83,-67 124,-101 24,-21 34,-51 25,-82 -15,-55 -82,-76 -126,-39 -40,33 -81,66 -121,98zm579 -521c-63,63 15,171 98,123 6,-3 10,-7 15,-12 38,-38 74,-77 111,-116 64,-72 -28,-173 -106,-116 -3,3 -6,5 -10,9 -35,38 -71,75 -108,112zm510 -589c-52,66 28,162 106,114 8,-5 14,-11 20,-19 32,-42 64,-85 95,-128 55,-80 -49,-168 -119,-103 -3,3 -7,7 -9,11 -31,42 -62,84 -93,125zm432 -648c-48,88 74,166 134,84 28,-46 55,-97 81,-145 45,-81 -66,-161 -130,-88 -3,4 -6,8 -8,13 -25,45 -51,90 -77,136zm348 -697c-35,81 75,152 135,79 5,-6 8,-11 11,-18 21,-49 40,-99 60,-148 33,-87 -83,-150 -138,-74 -3,5 -6,10 -9,16 -20,46 -39,98 -59,145zm260 -735c-10,34 4,69 34,88 44,27 104,5 117,-45 15,-52 28,-103 42,-155 21,-77 -79,-136 -137,-69 -8,10 -12,18 -16,30 -13,50 -26,101 -40,151zm165 -762c-11,85 98,125 144,55 6,-10 11,-20 12,-31 8,-53 16,-106 22,-159 12,-87 -112,-126 -151,-40 -2,7 -4,13 -5,21 -7,51 -14,103 -22,154zm70 -776c-4,83 113,114 150,36 5,-11 7,-20 7,-32 2,-53 3,-106 3,-160 0,-81 -110,-111 -150,-35 -5,12 -8,22 -8,35 0,52 -1,104 -2,156zm-28 -779c7,89 139,99 156,5 1,-7 2,-13 1,-20 -5,-53 -11,-106 -18,-159 -12,-95 -152,-92 -157,8 0,4 0,8 1,11 6,52 12,104 17,155zm-125 -769c22,93 165,76 156,-27l-2 -8c-12,-52 -24,-104 -37,-156 -27,-98 -172,-65 -154,36 12,52 25,103 37,155z"/>
   <path class="fil12" d="M9925 2677c2002,0 3814,812 5126,2123 1311,1312 2123,3124 2123,5125 0,2002 -812,3814 -2123,5126 -1312,1311 -3124,2123 -5126,2123 -2001,0 -3813,-812 -5125,-2123 -1311,-1312 -2123,-3124 -2123,-5126 0,-2001 812,-3813 2123,-5125 1312,-1311 3124,-2123 5125,-2123zm0 86c3956,0 7163,3207 7163,7162 0,3956 -3207,7163 -7163,7163 -3955,0 -7162,-3207 -7162,-7163 0,-3955 3207,-7162 7162,-7162z"/>
   <circle class="fil13" cx="9925" cy="9925" r="5576"/>
   <path class="fil14" d="M9925 4356c1538,0 2931,623 3939,1631 1007,1008 1631,2401 1631,3938 0,1538 -624,2931 -1631,3938 -1008,1008 -2401,1632 -3939,1632 -1537,0 -2930,-624 -3938,-1632 -1007,-1007 -1631,-2400 -1631,-3938 0,-1537 624,-2930 1631,-3938 1008,-1007 2401,-1631 3938,-1631zm0 85c3029,0 5484,2456 5484,5484 0,3029 -2455,5484 -5484,5484 -3028,0 -5483,-2455 -5483,-5484 0,-3028 2455,-5484 5483,-5484z"/>
   <path class="fil15" d="M9925 2677c4001,0 7244,3235 7244,7226 0,30 -1,60 -1,90 -49,-3950 -3272,-7136 -7243,-7136 -3970,0 -7194,3186 -7242,7136 0,-30 -1,-60 -1,-90 0,-3991 3243,-7226 7243,-7226z"/>
   <path class="fil3" d="M9925 3882c3338,0 6044,2706 6044,6043 0,3338 -2706,6044 -6044,6044 -3337,0 -6043,-2706 -6043,-6044 0,-3337 2706,-6043 6043,-6043z"/>
   <path class="fil3" d="M17784 9993c0,4327 -3507,7834 -7834,7834 -4326,0 -7834,-3507 -7834,-7834"/>
   <path class="fil3" d="M17784 9925c0,4327 -3507,7835 -7834,7835 -4326,0 -7834,-3508 -7834,-7835"/>
   <path class="fil3" d="M17784 9988c0,4327 -3507,7835 -7834,7835 -4326,0 -7834,-3508 -7834,-7835"/>
  </g>
  <g id="_955560792">
   <path class="fil16" d="M13725 10403l0 529c-8,2 -17,4 -27,6 -10,2 -22,3 -36,3 -32,0 -54,-5 -65,-15 -12,-10 -18,-27 -18,-50l0 -473 -50 0 -17 0 0 0 -81 0 0 529c-6,2 -15,4 -26,6 -10,2 -22,3 -36,3 -32,0 -53,-5 -65,-15 -12,-10 -18,-27 -18,-50l0 -81c-18,12 -38,21 -60,28 -23,6 -48,10 -77,10 -48,0 -91,-10 -130,-29 -39,-19 -70,-46 -93,-79 -16,-22 -28,-45 -35,-68 -8,-24 -12,-44 -12,-60 0,-9 2,-17 6,-24 3,-8 10,-12 21,-13 40,-4 69,-13 86,-27 18,-14 27,-32 27,-56 0,-17 -4,-31 -12,-44 -9,-13 -19,-23 -33,-30l-100 0 -23 0 -1 0 -84 0 0 113c0,32 -18,48 -54,48l-176 0c-22,0 -37,4 -46,12 -8,8 -13,19 -13,32 0,10 3,18 7,25 5,6 11,12 19,16 18,-5 36,-9 53,-11 18,-3 37,-4 57,-4 65,0 115,13 147,41 33,27 50,63 50,106 0,29 -6,54 -18,75 -11,21 -28,39 -49,53 -21,14 -47,25 -77,32 -30,7 -64,11 -101,11 -33,0 -65,-3 -95,-8 -30,-5 -56,-13 -79,-22 -23,-10 -42,-21 -55,-35 -14,-14 -21,-29 -21,-47 0,-19 6,-33 17,-45 11,-11 23,-19 37,-25 10,9 21,18 34,27 13,9 28,16 45,23 16,7 34,13 53,17 20,4 41,6 62,6 33,0 58,-5 74,-15 16,-10 24,-24 24,-42 0,-32 -30,-49 -90,-49 -18,0 -36,2 -53,5 -17,4 -33,8 -49,13 -15,-5 -31,-12 -48,-20 -16,-8 -32,-19 -45,-32 -14,-13 -25,-28 -35,-45 -9,-17 -13,-37 -13,-59 0,-41 14,-74 44,-97 29,-24 69,-36 121,-36l128 0 0 -63 -317 0 -20 0 0 0 -77 0 0 529c-7,2 -16,4 -26,6 -10,2 -22,3 -36,3 -32,0 -54,-5 -66,-15 -11,-10 -17,-27 -17,-50l0 -473 -43 0 -24 0 -1 0 -83 0 0 113c0,32 -18,48 -53,48l-177 0c-22,0 -37,4 -45,12 -9,8 -13,19 -13,32 0,10 2,18 7,25 5,6 11,12 18,16 18,-5 36,-9 54,-11 18,-3 36,-4 56,-4 66,0 115,13 148,41 33,27 49,63 49,106 0,28 -6,53 -18,74 -12,21 -29,38 -50,51 -22,13 -47,23 -77,30 -29,7 -61,11 -96,11 18,15 36,30 55,43 19,13 38,25 58,37 -1,25 -10,46 -25,62 -15,17 -36,25 -64,25 -24,0 -46,-8 -66,-23 -19,-15 -38,-40 -56,-75l-43 -80c-35,-8 -63,-20 -83,-37 -19,-16 -29,-36 -29,-58 0,-19 5,-34 16,-45 11,-12 23,-20 37,-26 21,18 47,34 80,50 32,15 70,23 115,23 33,0 57,-5 73,-15 16,-10 24,-24 24,-42 0,-32 -30,-49 -90,-49 -18,0 -35,2 -52,5 -17,4 -34,8 -49,13 -15,-5 -31,-12 -48,-20 -17,-8 -32,-19 -46,-32 -13,-13 -25,-28 -34,-45 -9,-17 -14,-37 -14,-59 0,-41 15,-74 44,-97 30,-24 70,-36 121,-36l128 0 0 -63 -336 0c-16,0 -27,-5 -33,-14 -6,-9 -9,-23 -9,-42 0,-7 1,-16 2,-26 2,-11 4,-19 7,-25l565 0 25 0 67 0c-5,-10 -9,-23 -12,-37 -3,-15 -5,-30 -5,-45 0,-31 7,-60 19,-85 13,-25 31,-46 55,-63 24,-18 53,-31 88,-40 34,-9 73,-14 116,-14 60,0 114,6 163,19 49,13 91,28 125,46 35,18 63,38 82,58 20,21 29,39 29,54 0,18 -8,33 -24,44 -16,10 -38,16 -67,16 -37,-39 -79,-69 -127,-90 -47,-21 -103,-31 -167,-31 -47,0 -82,9 -107,27 -24,18 -36,44 -36,78 0,25 5,46 14,63l52 0 21 0 545 0 25 0 637 0 17 0 293 0c29,0 43,18 43,53 0,8 -2,17 -4,28 -2,11 -4,20 -8,26l-96 0zm-5765 -2486c48,235 123,747 93,806 -67,135 -25,247 66,349 53,60 114,114 170,171 36,38 74,76 106,118 102,133 75,230 -79,293 -18,8 -37,13 -54,21 -33,17 -46,49 -31,84 10,23 23,44 34,67 29,66 14,125 -48,164 -31,19 -66,31 -99,45 -28,12 -56,24 -83,46 26,5 53,11 80,17 41,9 84,14 123,29 61,24 79,77 52,137 -4,11 -10,21 -17,30 -71,89 -69,185 -38,286 31,94 4,160 -86,203 -117,55 -244,60 -369,67 -38,2 -77,0 -115,0 -77,2 -108,62 -129,120 -4,12 -8,25 -12,37 458,1024 1485,1736 2679,1736 1076,0 2017,-579 2527,-1444l369 0c-541,1049 -1635,1767 -2896,1767 -460,0 -897,-96 -1293,-267l-1204 1118 476 -1554c-753,-597 -1236,-1519 -1236,-2554 0,-1798 1458,-3256 3257,-3256 1197,0 2244,647 2810,1610l-381 0c-528,-777 -1419,-1288 -2429,-1288 -900,0 -1704,404 -2243,1042zm-491 2961c5,-8 10,-17 15,-25 48,-83 124,-104 216,-106 111,-3 221,-20 332,-31 17,-2 34,-9 50,-15 64,-25 69,-41 52,-106 -34,-123 -36,-243 49,-350 4,-4 6,-9 9,-15 1,-2 1,-5 2,-15 -37,-6 -75,-7 -110,-19 -52,-17 -105,-36 -150,-66 -45,-29 -45,-81 -3,-115 31,-25 69,-43 106,-59 36,-17 74,-28 111,-43 26,-11 36,-28 18,-55 -10,-15 -16,-31 -24,-47 -44,-81 -8,-199 94,-237 18,-7 37,-13 54,-21 72,-30 82,-56 32,-117 -60,-72 -127,-138 -194,-203 -93,-92 -179,-187 -205,-320 -8,-40 -4,-84 2,-125 5,-36 23,-70 35,-104 13,-38 -44,-422 -86,-660 -380,494 -605,1113 -605,1785 0,377 71,738 200,1069zm1401 -806c-2,-161 -61,-307 -177,-431 -46,-50 -39,-105 20,-121 22,-6 60,7 76,24 158,164 231,362 218,589 -11,183 -81,344 -207,480 -32,36 -67,59 -112,23 -36,-28 -31,-70 12,-118 112,-124 169,-269 170,-446zm595 111c-2,171 -92,408 -273,610 -8,9 -16,17 -25,26 -33,34 -71,45 -108,9 -36,-35 -24,-72 8,-105 93,-96 166,-207 208,-335 110,-342 48,-651 -188,-924 -10,-12 -23,-22 -32,-35 -24,-31 -26,-64 4,-90 28,-25 65,-33 97,-2 30,30 60,62 87,97 146,192 223,407 222,749zm456 -97c-4,345 -120,646 -352,902 -13,13 -24,27 -38,38 -31,27 -65,30 -95,0 -31,-30 -29,-64 -3,-96 27,-34 60,-63 86,-98 280,-366 339,-767 177,-1198 -54,-145 -141,-269 -245,-382 -19,-20 -35,-56 -32,-82 8,-56 74,-67 121,-22 116,116 205,251 271,401 74,171 112,350 110,537zm515 3223c-506,0 -989,-92 -1431,-260l-514 377c431,168 899,261 1389,261 864,0 1661,-288 2300,-773 -523,253 -1116,395 -1744,395zm-2508 -882c-798,-653 -1301,-1613 -1301,-2682 0,-1969 1705,-3564 3809,-3564 155,0 308,8 459,25 -323,-89 -663,-136 -1015,-136 -2103,0 -3808,1705 -3808,3808 0,1342 694,2522 1743,3200l113 -651zm3359 -3484l0 818c-11,4 -25,7 -41,10 -16,3 -34,5 -56,5 -49,0 -83,-8 -101,-24 -18,-16 -27,-42 -27,-78l0 -71c-27,17 -59,30 -96,40 -36,9 -78,14 -126,14 -47,0 -92,-7 -134,-22 -42,-14 -78,-35 -109,-62 -31,-28 -56,-61 -73,-101 -18,-40 -26,-84 -26,-134 0,-46 8,-88 24,-126 17,-37 40,-70 69,-97 30,-27 65,-47 105,-62 40,-15 84,-22 131,-22 54,0 94,10 121,30 26,21 40,49 40,84 0,13 -3,27 -7,40 -4,13 -9,25 -16,34 -8,-2 -19,-4 -33,-6 -14,-2 -30,-3 -48,-3 -25,0 -47,3 -66,9l244 184 0 -460 -615 0c-24,0 -41,-7 -51,-21 -9,-14 -14,-36 -14,-64 0,-12 1,-26 4,-42 2,-15 6,-28 10,-38l966 0 27 0 130 0c-18,-31 -41,-61 -69,-88 -28,-27 -58,-51 -89,-72 -31,-22 -63,-41 -95,-56 -32,-15 -62,-27 -90,-34 -1,-5 -1,-10 -1,-15 0,-5 0,-10 0,-15 0,-37 10,-70 31,-98 20,-28 52,-42 95,-42 40,0 79,12 119,36 41,24 79,55 116,95 37,40 71,85 102,135 32,50 57,102 76,154l101 0 27 0 1189 0 26 0 455 0c43,0 65,28 65,83 0,11 -2,26 -5,43 -3,17 -8,30 -13,39l-149 0 0 818c-12,4 -25,7 -41,10 -16,3 -34,5 -56,5 -49,0 -83,-8 -101,-24 -18,-16 -27,-42 -27,-78l0 -731 -79 0 -24 0 -1 0 -126 0 0 818c-11,4 -24,7 -40,10 -15,3 -34,5 -55,5 -50,0 -84,-8 -102,-24 -17,-16 -26,-42 -26,-78l0 -409c-5,0 -8,0 -12,-1 -3,0 -6,0 -11,0 -50,0 -88,17 -112,52 -25,35 -37,93 -37,174 -31,11 -66,16 -104,16 -37,0 -65,-9 -82,-28 -17,-18 -26,-44 -26,-76 0,-45 7,-86 20,-123 -23,-10 -47,-15 -72,-15 -50,0 -88,15 -113,46 -25,30 -38,68 -38,112 0,35 7,65 20,91 13,25 30,46 51,62 21,17 45,29 71,38 26,9 52,15 78,18 1,6 2,11 2,17 0,6 0,11 0,17 0,34 -10,62 -29,86 -20,24 -54,36 -103,36 -39,0 -77,-9 -115,-26 -38,-16 -73,-41 -104,-72 -30,-32 -55,-71 -74,-116 -19,-46 -29,-97 -29,-154 0,-55 9,-103 27,-145 18,-42 43,-77 73,-105 31,-28 66,-49 105,-63 39,-14 80,-22 124,-22 47,0 88,7 123,20 35,13 66,30 92,50 27,-22 57,-39 91,-51 33,-12 71,-19 114,-19 12,0 24,1 35,2 12,1 23,3 35,5l0 -148 -842 0 -24 0 -1 0 -124 0 0 818c-12,4 -26,7 -42,10 -15,3 -34,5 -55,5 -50,0 -84,-8 -102,-24 -18,-16 -27,-42 -27,-78l0 -731 -79 0 -24 0 -1 0 -124 0zm-404 535c38,0 72,-6 101,-18l-241 -185c-12,21 -19,45 -19,71 0,41 15,74 46,97 30,23 67,35 113,35zm870 659c0,-22 8,-42 23,-57 15,-16 36,-24 62,-24 26,0 47,8 62,24 16,15 23,35 23,57 0,23 -7,42 -23,58 -15,16 -36,24 -62,24 -26,0 -47,-8 -62,-24 -15,-16 -23,-35 -23,-58zm1412 579c28,0 52,-5 71,-15 20,-9 37,-21 50,-35l0 -263 -161 0c11,11 21,24 30,40 8,16 13,33 13,51 0,40 -13,72 -39,94 -25,22 -58,37 -99,45 8,22 24,42 46,58 23,16 52,25 89,25z"/>
   <path class="fil17" d="M13725 10335l0 529c-8,2 -17,4 -27,7 -10,2 -22,3 -36,3 -32,0 -54,-6 -65,-16 -12,-10 -18,-27 -18,-50l0 -473 -50 0 -17 0 0 0 -81 0 0 529c-6,2 -15,4 -26,7 -10,2 -22,3 -36,3 -32,0 -53,-6 -65,-16 -12,-10 -18,-27 -18,-50l0 -81c-18,12 -38,22 -60,28 -23,7 -48,10 -77,10 -48,0 -91,-10 -130,-29 -39,-19 -70,-45 -93,-79 -16,-22 -28,-45 -35,-68 -8,-24 -12,-44 -12,-60 0,-9 2,-17 6,-24 3,-7 10,-12 21,-13 40,-4 69,-13 86,-27 18,-13 27,-32 27,-56 0,-17 -4,-31 -12,-44 -9,-12 -19,-22 -33,-30l-100 0 -23 0 -1 0 -84 0 0 113c0,32 -18,48 -54,48l-176 0c-22,0 -37,4 -46,12 -8,9 -13,19 -13,32 0,10 3,18 7,25 5,7 11,12 19,16 18,-5 36,-8 53,-11 18,-3 37,-4 57,-4 65,0 115,14 147,41 33,27 50,63 50,107 0,28 -6,53 -18,74 -11,22 -28,39 -49,53 -21,14 -47,25 -77,32 -30,7 -64,11 -101,11 -33,0 -65,-3 -95,-8 -30,-5 -56,-12 -79,-22 -23,-9 -42,-21 -55,-35 -14,-13 -21,-29 -21,-47 0,-18 6,-33 17,-45 11,-11 23,-19 37,-25 10,9 21,18 34,27 13,9 28,17 45,24 16,6 34,12 53,16 20,4 41,6 62,6 33,0 58,-5 74,-15 16,-10 24,-24 24,-41 0,-33 -30,-50 -90,-50 -18,0 -36,2 -53,6 -17,3 -33,7 -49,12 -15,-5 -31,-11 -48,-20 -16,-8 -32,-18 -45,-31 -14,-13 -25,-28 -35,-46 -9,-17 -13,-36 -13,-59 0,-41 14,-73 44,-97 29,-24 69,-35 121,-35l128 0 0 -64 -317 0 -20 0 0 0 -77 0 0 529c-7,2 -16,4 -26,7 -10,2 -22,3 -36,3 -32,0 -54,-6 -66,-16 -11,-10 -17,-27 -17,-50l0 -473 -43 0 -24 0 -1 0 -83 0 0 113c0,32 -18,48 -53,48l-177 0c-22,0 -37,4 -45,12 -9,9 -13,19 -13,32 0,10 2,18 7,25 5,7 11,12 18,16 18,-5 36,-8 54,-11 18,-3 36,-4 56,-4 66,0 115,14 148,41 33,27 49,63 49,107 0,28 -6,52 -18,73 -12,21 -29,38 -50,51 -22,14 -47,24 -77,30 -29,7 -61,11 -96,11 18,15 36,30 55,43 19,13 38,25 58,37 -1,25 -10,46 -25,62 -15,17 -36,25 -64,25 -24,0 -46,-8 -66,-23 -19,-15 -38,-40 -56,-74l-43 -81c-35,-8 -63,-20 -83,-36 -19,-17 -29,-36 -29,-59 0,-18 5,-33 16,-45 11,-12 23,-20 37,-26 21,18 47,35 80,50 32,15 70,23 115,23 33,0 57,-5 73,-15 16,-10 24,-24 24,-41 0,-33 -30,-50 -90,-50 -18,0 -35,2 -52,6 -17,3 -34,7 -49,12 -15,-5 -31,-11 -48,-20 -17,-8 -32,-18 -46,-31 -13,-13 -25,-28 -34,-46 -9,-17 -14,-36 -14,-59 0,-41 15,-73 44,-97 30,-24 70,-35 121,-35l128 0 0 -64 -336 0c-16,0 -27,-5 -33,-14 -6,-9 -9,-23 -9,-41 0,-8 1,-17 2,-27 2,-10 4,-19 7,-25l565 0 25 0 67 0c-5,-10 -9,-22 -12,-37 -3,-15 -5,-30 -5,-45 0,-31 7,-59 19,-84 13,-25 31,-47 55,-64 24,-17 53,-31 88,-40 34,-9 73,-14 116,-14 60,0 114,6 163,19 49,13 91,28 125,46 35,18 63,38 82,58 20,21 29,39 29,55 0,17 -8,32 -24,43 -16,11 -38,16 -67,16 -37,-39 -79,-69 -127,-90 -47,-20 -103,-31 -167,-31 -47,0 -82,9 -107,27 -24,18 -36,44 -36,78 0,25 5,46 14,63l52 0 21 0 545 0 25 0 637 0 17 0 293 0c29,0 43,18 43,54 0,7 -2,16 -4,27 -2,11 -4,20 -8,26l-96 0zm-5765 -2486c48,235 123,747 93,806 -67,136 -25,247 66,349 53,61 114,114 170,172 36,37 74,75 106,117 102,133 75,230 -79,294 -18,7 -37,12 -54,21 -33,16 -46,49 -31,84 10,22 23,43 34,66 29,67 14,125 -48,164 -31,19 -66,31 -99,46 -28,12 -56,23 -83,45 26,5 53,11 80,17 41,9 84,14 123,29 61,24 79,78 52,137 -4,11 -10,22 -17,31 -71,88 -69,185 -38,286 31,93 4,159 -86,202 -117,55 -244,61 -369,67 -38,2 -77,0 -115,1 -77,1 -108,61 -129,119 -4,13 -8,25 -12,38 458,1023 1485,1736 2679,1736 1076,0 2017,-580 2527,-1445l369 0c-541,1049 -1635,1767 -2896,1767 -460,0 -897,-95 -1293,-267l-1204 1118 476 -1554c-753,-596 -1236,-1519 -1236,-2554 0,-1798 1458,-3256 3257,-3256 1197,0 2244,647 2810,1610l-381 0c-528,-777 -1419,-1288 -2429,-1288 -900,0 -1704,405 -2243,1042zm-491 2961c5,-8 10,-16 15,-25 48,-83 124,-104 216,-106 111,-3 221,-19 332,-31 17,-2 34,-9 50,-15 64,-25 69,-40 52,-106 -34,-123 -36,-243 49,-350 4,-4 6,-9 9,-14 1,-3 1,-6 2,-15 -37,-6 -75,-8 -110,-20 -52,-17 -105,-36 -150,-65 -45,-29 -45,-81 -3,-116 31,-25 69,-42 106,-59 36,-17 74,-28 111,-43 26,-11 36,-28 18,-55 -10,-14 -16,-31 -24,-46 -44,-81 -8,-199 94,-238 18,-7 37,-13 54,-20 72,-31 82,-57 32,-118 -60,-71 -127,-137 -194,-203 -93,-92 -179,-187 -205,-320 -8,-40 -4,-84 2,-125 5,-36 23,-69 35,-104 13,-37 -44,-422 -86,-660 -380,494 -605,1113 -605,1785 0,377 71,738 200,1069zm1401 -806c-2,-160 -61,-307 -177,-431 -46,-50 -39,-104 20,-120 22,-6 60,6 76,24 158,163 231,361 218,588 -11,184 -81,345 -207,481 -32,35 -67,58 -112,22 -36,-28 -31,-70 12,-117 112,-125 169,-270 170,-447zm595 111c-2,172 -92,408 -273,610 -8,9 -16,17 -25,26 -33,34 -71,45 -108,9 -36,-35 -24,-72 8,-104 93,-97 166,-207 208,-336 110,-342 48,-651 -188,-923 -10,-12 -23,-23 -32,-35 -24,-31 -26,-65 4,-91 28,-25 65,-32 97,-2 30,31 60,62 87,97 146,192 223,408 222,749zm456 -97c-4,345 -120,647 -352,902 -13,13 -24,27 -38,39 -31,27 -65,29 -95,0 -31,-30 -29,-65 -3,-97 27,-34 60,-63 86,-98 280,-366 339,-766 177,-1198 -54,-144 -141,-268 -245,-381 -19,-21 -35,-57 -32,-83 8,-56 74,-67 121,-22 116,116 205,251 271,401 74,171 112,350 110,537zm515 3223c-506,0 -989,-92 -1431,-260l-514 377c431,168 899,261 1389,261 864,0 1661,-288 2300,-773 -523,253 -1116,395 -1744,395zm-2508 -882c-798,-653 -1301,-1612 -1301,-2682 0,-1968 1705,-3564 3809,-3564 155,0 308,9 459,26 -323,-89 -663,-137 -1015,-137 -2103,0 -3808,1705 -3808,3808 0,1342 694,2522 1743,3201l113 -652zm3359 -3483l0 818c-11,3 -25,6 -41,9 -16,3 -34,5 -56,5 -49,0 -83,-8 -101,-24 -18,-16 -27,-42 -27,-78l0 -71c-27,17 -59,30 -96,40 -36,9 -78,14 -126,14 -47,0 -92,-7 -134,-21 -42,-15 -78,-36 -109,-63 -31,-27 -56,-61 -73,-101 -18,-39 -26,-84 -26,-134 0,-46 8,-88 24,-126 17,-37 40,-69 69,-96 30,-27 65,-48 105,-63 40,-15 84,-22 131,-22 54,0 94,10 121,31 26,20 40,48 40,83 0,14 -3,27 -7,40 -4,14 -9,25 -16,34 -8,-2 -19,-4 -33,-6 -14,-2 -30,-3 -48,-3 -25,0 -47,3 -66,9l244 184 0 -459 -615 0c-24,0 -41,-8 -51,-22 -9,-14 -14,-36 -14,-64 0,-12 1,-25 4,-41 2,-16 6,-29 10,-38l966 0 27 0 130 0c-18,-32 -41,-61 -69,-88 -28,-27 -58,-52 -89,-73 -31,-22 -63,-40 -95,-56 -32,-15 -62,-26 -90,-34 -1,-5 -1,-10 -1,-15 0,-5 0,-10 0,-15 0,-37 10,-69 31,-97 20,-28 52,-42 95,-42 40,0 79,11 119,35 41,24 79,56 116,95 37,40 71,85 102,135 32,50 57,102 76,155l101 0 27 0 1189 0 26 0 455 0c43,0 65,27 65,82 0,12 -2,26 -5,43 -3,17 -8,30 -13,40l-149 0 0 818c-12,3 -25,6 -41,9 -16,3 -34,5 -56,5 -49,0 -83,-8 -101,-24 -18,-16 -27,-42 -27,-78l0 -730 -79 0 -24 0 -1 0 -126 0 0 818c-11,3 -24,6 -40,9 -15,3 -34,5 -55,5 -50,0 -84,-8 -102,-24 -17,-16 -26,-42 -26,-78l0 -409c-5,0 -8,0 -12,0 -3,-1 -6,-1 -11,-1 -50,0 -88,17 -112,52 -25,35 -37,93 -37,175 -31,10 -66,15 -104,15 -37,0 -65,-9 -82,-27 -17,-19 -26,-45 -26,-77 0,-45 7,-85 20,-122 -23,-11 -47,-16 -72,-16 -50,0 -88,15 -113,46 -25,30 -38,68 -38,112 0,35 7,65 20,91 13,25 30,46 51,62 21,17 45,29 71,38 26,9 52,15 78,19 1,5 2,10 2,16 0,6 0,12 0,17 0,34 -10,63 -29,86 -20,24 -54,36 -103,36 -39,0 -77,-8 -115,-25 -38,-17 -73,-42 -104,-73 -30,-32 -55,-71 -74,-116 -19,-45 -29,-97 -29,-154 0,-55 9,-103 27,-145 18,-42 43,-77 73,-105 31,-28 66,-49 105,-63 39,-14 80,-21 124,-21 47,0 88,6 123,19 35,14 66,30 92,50 27,-22 57,-39 91,-51 33,-12 71,-18 114,-18 12,0 24,0 35,1 12,1 23,3 35,5l0 -147 -842 0 -24 0 -1 0 -124 0 0 818c-12,3 -26,6 -42,9 -15,3 -34,5 -55,5 -50,0 -84,-8 -102,-24 -18,-16 -27,-42 -27,-78l0 -730 -79 0 -24 0 -1 0 -124 0zm-404 534c38,0 72,-6 101,-18l-241 -185c-12,21 -19,45 -19,71 0,41 15,74 46,97 30,23 67,35 113,35zm870 659c0,-22 8,-41 23,-57 15,-16 36,-24 62,-24 26,0 47,8 62,24 16,16 23,35 23,57 0,23 -7,42 -23,58 -15,16 -36,24 -62,24 -26,0 -47,-8 -62,-24 -15,-16 -23,-35 -23,-58zm1412 579c28,0 52,-5 71,-14 20,-10 37,-22 50,-35l0 -264 -161 0c11,11 21,24 30,40 8,16 13,33 13,51 0,41 -13,72 -39,94 -25,22 -58,37 -99,45 8,22 24,42 46,58 23,17 52,25 89,25z"/>
   <path class="fil18" d="M12884 10564c-3,-13 -5,-25 -5,-35 0,-9 2,-17 6,-24 3,-7 10,-12 21,-13 40,-4 69,-13 86,-27 10,-7 17,-17 22,-28 3,9 5,19 5,30 0,24 -9,43 -27,56 -17,14 -46,23 -86,27 -11,1 -18,6 -21,13l-1 1zm-396 5c4,5 9,9 15,12 18,-5 36,-8 53,-11 18,-3 37,-4 57,-4 65,0 115,14 147,41 33,27 50,63 50,107 0,10 -1,20 -3,30 -5,-31 -21,-58 -47,-79 -32,-27 -82,-41 -147,-41 -20,0 -39,1 -57,4 -17,3 -35,7 -53,11 -8,-4 -14,-9 -19,-16 -4,-7 -7,-15 -7,-25 0,-11 4,-21 11,-29zm-166 231c-5,-9 -7,-18 -7,-28 0,-18 6,-33 17,-45 11,-11 23,-19 37,-25 10,9 21,18 34,27 13,9 28,17 45,24 16,6 34,12 53,16 20,4 41,6 62,6 33,0 58,-5 74,-15 5,-3 10,-7 13,-11 7,7 11,17 11,28 0,18 -8,31 -24,41 -16,10 -41,15 -74,15 -21,0 -42,-2 -62,-6 -19,-4 -37,-10 -53,-16 -17,-7 -32,-15 -45,-24 -13,-9 -24,-18 -34,-27 -14,6 -26,14 -37,25 -4,5 -8,10 -10,15zm8 -240c-2,-9 -2,-19 -2,-29 0,-41 14,-73 44,-97 29,-24 69,-35 121,-35l128 0 0 58 -128 0c-52,0 -92,12 -121,35 -22,18 -36,40 -42,68zm-697 9c4,5 9,9 15,12 18,-5 36,-8 54,-11 18,-3 36,-4 56,-4 66,0 115,14 148,41 33,27 49,63 49,107 0,10 -1,20 -2,29 -6,-31 -22,-57 -47,-78 -33,-27 -82,-41 -148,-41 -20,0 -38,1 -56,4 -18,3 -36,7 -54,11 -7,-4 -13,-9 -18,-16 -5,-7 -7,-15 -7,-25 0,-11 3,-21 10,-29zm151 363c14,9 28,18 43,27 -1,19 -6,35 -15,49 -14,-9 -29,-18 -43,-28 -19,-13 -37,-27 -55,-43 25,0 48,-2 70,-5zm-317 -130c-4,-9 -6,-19 -6,-29 0,-18 5,-33 16,-45 11,-12 23,-20 37,-26 21,18 47,35 80,50 32,15 70,23 115,23 33,0 57,-5 73,-15 6,-3 10,-7 14,-11 7,7 10,17 10,28 0,18 -8,31 -24,41 -16,10 -40,15 -73,15 -45,0 -83,-7 -115,-23 -33,-15 -59,-32 -80,-50 -14,6 -26,14 -37,26 -4,5 -8,10 -10,16zm9 -242c-2,-9 -3,-19 -3,-29 0,-41 15,-73 44,-97 30,-24 70,-35 121,-35l128 0 0 58 -128 0c-51,0 -91,12 -121,35 -22,18 -36,40 -41,68zm-85 -253c-2,-7 -3,-17 -3,-27 0,-8 1,-17 2,-27 2,-10 4,-19 7,-25l565 0 25 0 52 0c0,7 1,14 3,21 3,15 7,27 12,37l-67 0 -25 0 -565 0c-2,6 -4,13 -6,21zm648 -132c-1,-9 -2,-19 -2,-29 0,-31 7,-59 19,-84 13,-25 31,-47 55,-64 24,-17 53,-31 88,-40 34,-9 73,-14 116,-14 60,0 114,6 163,19 49,13 91,28 125,46 35,18 63,38 82,58 20,21 29,39 29,55 0,11 -3,20 -9,29 -5,-8 -11,-17 -20,-26 -19,-20 -47,-39 -82,-58 -34,-18 -76,-33 -125,-46 -49,-12 -103,-19 -163,-19 -43,0 -82,5 -116,14 -35,9 -64,23 -88,40 -24,18 -42,39 -55,64 -8,17 -14,35 -17,55zm150 21c2,12 6,23 11,32l52 0 21 0 339 0 11 11c23,0 43,-3 58,-11l137 0 25 0 637 0 17 0 293 0c29,0 43,18 43,54 0,7 -2,16 -4,27l0 4c-6,-18 -19,-27 -39,-27l-293 0 -17 0 -637 0 -25 0 -545 0 -21 0 -52 0c-9,-17 -14,-38 -14,-63 0,-10 1,-19 3,-27zm-4219 -2300c42,223 97,607 89,727 -7,-171 -61,-530 -99,-716l10 -11zm52 919c8,68 44,130 97,189 53,61 114,114 170,172 36,37 74,75 106,117 50,65 69,121 57,169 -7,-33 -26,-70 -57,-111 -32,-42 -70,-80 -106,-117 -56,-58 -117,-111 -170,-172 -67,-75 -108,-156 -97,-247zm210 878c9,22 23,43 33,65 14,32 18,63 11,90 -3,-10 -6,-21 -11,-32 -11,-22 -24,-44 -34,-66 -9,-21 -8,-41 1,-57zm-122 336l5 1c41,9 84,14 123,29 54,21 74,65 60,116 -8,-25 -28,-45 -60,-58 -39,-15 -82,-20 -123,-29 -27,-6 -54,-11 -80,-17 25,-20 50,-31 75,-42zm106 392c3,30 10,61 19,92 12,36 15,67 10,95 -2,-12 -5,-24 -10,-37 -16,-51 -24,-101 -19,-150zm-681 543c463,1010 1484,1712 2668,1712 1076,0 2017,-580 2527,-1445l369 0c-10,20 -21,39 -31,58l-338 0c-510,865 -1451,1445 -2527,1445 -1194,0 -2221,-713 -2679,-1736 3,-12 7,-23 11,-34zm196 2862l-25 23 462 -1507 14 11 -451 1473zm-784 -4048l-1 -37c0,-1798 1458,-3256 3257,-3256 1197,0 2244,647 2810,1610l-36 0c-573,-931 -1601,-1552 -2774,-1552 -1792,0 -3245,1447 -3256,3235zm522 1032c5,-8 10,-16 15,-25 48,-83 124,-104 216,-106 111,-3 221,-19 332,-31 17,-2 34,-9 50,-15 30,-12 47,-21 55,-35 14,55 5,70 -55,93 -16,6 -33,13 -50,15 -111,12 -221,28 -332,31 -92,2 -168,24 -216,107 -5,8 -10,16 -15,24 -129,-331 -200,-692 -200,-1069l0 -30c3,367 74,718 200,1041zm644 -397c-5,-73 8,-145 52,-211 10,1 19,2 29,4 -1,9 -1,12 -2,15 -3,5 -5,10 -9,15 -44,56 -65,115 -70,177zm-206 -379c-15,-28 -7,-62 24,-87 31,-25 69,-42 106,-59 36,-17 74,-28 111,-43 4,-2 8,-4 12,-6 2,3 4,6 6,9 18,27 8,44 -18,55 -37,15 -75,26 -111,43 -37,17 -75,34 -106,60 -11,8 -19,18 -24,28zm219 -336c-13,-75 26,-160 110,-192 18,-7 37,-13 54,-20 24,-11 42,-21 52,-32 25,42 8,64 -52,90 -17,7 -36,13 -54,20 -63,24 -100,77 -110,134zm-206 -875c-4,-34 0,-70 5,-103 5,-36 23,-69 35,-104l0 -1c2,31 2,52 0,59 -12,35 -30,68 -35,104 -2,15 -4,30 -5,45zm750 717c-18,-39 -3,-75 43,-87 22,-6 60,6 76,24 153,158 226,348 219,566 -7,-194 -80,-364 -219,-508 -16,-18 -54,-30 -76,-24 -21,5 -35,16 -43,29zm2 1010c-16,-27 -6,-61 28,-99 105,-117 162,-252 169,-414 1,8 1,16 1,25 -1,177 -58,322 -170,447 -13,14 -22,28 -28,41zm793 -435l-1 13c-5,-316 -82,-521 -221,-704 -27,-35 -57,-66 -87,-97 -32,-30 -69,-22 -97,2 -6,5 -11,11 -14,17 -14,-27 -11,-54 14,-75 28,-25 65,-32 97,-2 30,31 60,62 87,97 146,192 223,408 222,749zm-420 628c-17,-30 -4,-60 22,-87 93,-97 166,-207 208,-336 32,-99 49,-195 52,-289 4,112 -14,228 -52,347 -42,129 -115,239 -208,336 -9,9 -17,19 -22,29zm876 -725l0 17c-4,-172 -42,-337 -110,-496 -66,-150 -155,-285 -271,-400 -41,-40 -96,-37 -115,2 -5,-14 -8,-27 -6,-39 8,-56 74,-67 121,-22 116,116 205,251 271,401 74,171 112,350 110,537zm-500 921c-14,-25 -9,-52 12,-77 27,-34 60,-63 86,-98 171,-223 259,-459 266,-707 6,269 -82,525 -266,766 -26,34 -59,63 -86,97 -5,7 -9,13 -12,19zm1015 2302c-506,0 -989,-92 -1431,-260l-514 377c18,6 35,13 53,20l461 -339c442,168 925,261 1431,261 540,0 1054,-106 1519,-296 77,-50 152,-103 225,-158 -523,253 -1116,395 -1744,395zm-2508 -882c-788,-645 -1289,-1590 -1301,-2645l0 21c0,1066 500,2022 1292,2675l9 -51zm2593 -6245c126,2 251,11 374,25 -323,-89 -663,-137 -1015,-137 -2103,0 -3808,1705 -3808,3808l0 37c12,-2094 1712,-3787 3808,-3787 219,0 433,18 641,54zm-22 3186c-1,-10 -1,-20 -1,-30 0,-46 8,-88 24,-126 17,-37 40,-69 69,-96 30,-27 65,-48 105,-63 40,-15 84,-22 131,-22 54,0 94,10 121,31 26,20 40,48 40,83 0,10 -2,20 -4,29 -5,-21 -17,-40 -36,-54 -27,-21 -67,-31 -121,-31 -47,0 -91,7 -131,22 -40,15 -75,36 -105,63 -29,27 -52,59 -69,96 -13,30 -21,63 -23,98zm383 -100l180 135 0 58 -244 -183c18,-7 40,-10 64,-10zm-498 -381c-1,-8 -2,-18 -2,-29 0,-12 1,-25 4,-41 2,-16 6,-29 10,-38l966 0 27 0 89 0c16,18 29,37 41,58l-130 0 -27 0 -966 0c-4,9 -8,22 -10,38l-2 12zm793 -359l-1 0c-1,-5 -1,-10 -1,-15 0,-5 0,-10 0,-15 0,-37 10,-69 31,-97 20,-28 52,-42 95,-42 40,0 79,11 119,35 41,24 79,56 116,95 37,40 71,85 102,135 32,50 57,102 76,155l101 0 27 0 1189 0 26 0 455 0c43,0 65,27 65,82 0,8 -1,18 -3,29 -7,-35 -28,-53 -62,-53l-455 0 -26 0 -1189 0 -27 0 -101 0c-19,-53 -44,-105 -76,-155 -31,-50 -65,-95 -102,-135 -37,-39 -75,-71 -116,-95 -40,-24 -79,-35 -119,-35 -43,0 -75,14 -95,42 -16,20 -25,44 -29,69zm1172 896c-1,-7 -1,-14 -1,-22 0,-25 2,-48 6,-70 5,2 10,4 14,6 -10,27 -16,55 -19,86zm-202 28c2,23 8,43 18,61 13,25 30,46 51,62 21,17 45,29 71,38 26,9 52,15 78,19 1,5 2,10 2,16 0,6 0,12 0,17 0,8 -1,17 -2,25 -26,-3 -52,-10 -78,-19 -26,-8 -50,-21 -71,-38 -21,-16 -38,-37 -51,-62 -13,-26 -20,-56 -20,-91 0,-9 1,-19 2,-28zm-233 -3c0,-10 -1,-20 -1,-30 0,-55 9,-103 27,-145 18,-42 43,-77 73,-105 31,-28 66,-49 105,-63 39,-14 80,-21 124,-21 47,0 88,6 123,19 35,14 66,30 92,50 27,-22 57,-39 91,-51 33,-12 71,-18 114,-18 12,0 24,0 35,1 12,1 23,3 35,5l0 58c-12,-2 -23,-4 -35,-5 -11,-1 -23,-1 -35,-1 -43,0 -81,6 -114,18 -34,12 -64,29 -91,52 -26,-21 -57,-37 -92,-50 -35,-14 -76,-20 -123,-20 -44,0 -85,7 -124,21 -39,14 -74,36 -105,64 -30,28 -55,62 -73,104 -14,35 -23,73 -26,117zm-1031 29c15,0 30,-1 45,-3l56 43c-29,12 -63,18 -101,18 -46,0 -83,-12 -113,-35 -31,-23 -46,-55 -46,-97 0,-10 1,-19 3,-29 6,28 20,50 43,68 30,23 67,35 113,35zm870 659c0,-22 8,-41 23,-57 15,-16 36,-24 62,-24 26,0 47,8 62,24 16,16 23,35 23,57 0,11 -1,20 -5,29 -3,-10 -9,-20 -18,-28 -15,-16 -36,-24 -62,-24 -26,0 -47,8 -62,24 -8,8 -14,18 -18,28 -3,-9 -5,-18 -5,-29zm1412 579c28,0 52,-5 71,-14 20,-10 37,-22 50,-35l0 58c-13,13 -30,25 -50,35 -19,9 -43,14 -71,14 -37,0 -66,-8 -89,-25 -22,-16 -38,-36 -46,-58 12,-2 24,-5 35,-9 3,3 7,6 11,9 23,17 52,25 89,25zm-2 -255c3,11 5,22 5,33 0,12 -1,22 -3,32 -2,-8 -6,-17 -10,-25 -9,-16 -19,-29 -30,-40l38 0z"/>
  </g>
  <g id="_955561656">
   <path class="fil19" d="M7106 17664c-14,-32 -21,-66 -23,-100 -3,-43 3,-85 18,-126 20,-57 54,-105 108,-135 52,-29 107,-29 163,-11 29,10 70,27 85,56 12,24 13,49 6,74 -7,22 -18,41 -36,54 -7,-6 -16,-12 -24,-17 -11,-6 -21,-10 -32,-14 -28,-8 -54,-5 -79,8 -30,16 -48,46 -58,78 -11,31 -15,64 -11,97 3,28 9,55 19,81 42,14 84,27 126,40 40,12 39,48 29,82 -3,11 -8,22 -13,33 -5,10 -11,21 -18,29 -46,-14 -92,-28 -138,-43 -86,268 -173,536 -259,805 -11,-1 -22,-2 -33,-4 -15,-1 -30,-5 -45,-10 -24,-8 -58,-22 -72,-45 -13,-21 -9,-47 -2,-69 84,-243 168,-487 251,-730 -56,-19 -112,-39 -168,-60 -14,53 -29,105 -46,157 -16,49 -33,99 -51,147 -15,42 -36,82 -67,115 -25,28 -55,50 -91,64 -35,14 -72,19 -110,17 -42,-3 -83,-14 -122,-29 -38,-16 -75,-37 -106,-64 -29,-24 -52,-53 -69,-87 -16,-34 -22,-72 -21,-110 2,-45 15,-89 33,-130 22,-48 44,-95 66,-142 24,-49 49,-97 74,-146l-49 -22 0 0 -1 0 -1 -1 0 0 -2 0 -2 -1 0 0 -2 -1 0 0 -1 -1 -1 0 0 0 -1 -1 -1 0 -1 0 -1 -1 0 0 -2 -1 0 0 -2 -1 0 0 -1 0 -1 -1 -1 0 0 0 -2 -1 -1 -1 -1 0 0 0 -1 -1 -1 0 -1 0 -1 -1 0 0 -1 0 -1 -1 0 0 -1 0 -1 -1 0 0 0 0 -1 0c-33,-15 -66,-31 -99,-46 -120,254 -241,508 -362,761 -26,-2 -53,-12 -76,-24 -23,-11 -55,-29 -65,-54 -10,-22 -2,-47 8,-68 18,-36 36,-72 54,-108 -33,7 -67,7 -101,3 -40,-6 -80,-22 -116,-42 -36,-18 -69,-42 -98,-70 -26,-26 -48,-56 -64,-90 -16,-32 -24,-66 -26,-102 -2,-38 6,-75 20,-111 -8,-2 -17,-5 -24,-10 -8,-5 -16,-9 -24,-14 -37,-21 -70,-48 -101,-77 -31,-29 -56,-63 -75,-102 -52,2 -101,-11 -148,-34 -4,35 -5,70 -3,105 3,34 8,68 17,102 9,32 20,64 34,95 13,29 28,57 46,83 -16,26 -38,47 -68,57 -32,12 -65,2 -93,-16 -29,-18 -50,-45 -67,-75 -19,-37 -31,-77 -37,-118 -7,-49 -6,-99 -1,-148 6,-56 20,-111 38,-165 -18,-15 -35,-35 -38,-59 -3,-22 5,-42 17,-61 9,-12 19,-22 31,-31 11,-8 24,-14 37,-18 10,11 22,22 34,32 15,13 30,25 46,35 41,27 90,49 140,39 45,-8 77,-37 101,-75 15,-23 26,-49 33,-76 6,-26 10,-52 10,-78 -85,-54 -168,-110 -250,-168 -35,-24 -23,-59 -2,-88 6,-10 14,-18 22,-27 7,-8 16,-16 26,-21 393,277 811,519 1247,722l0 0 10 5 2 1 12 5 7 3 0 1 1 0c243,112 491,212 744,299zm7305 -872c160,232 320,464 480,696 -8,8 -16,17 -24,25 -11,11 -24,21 -37,30 -21,14 -53,33 -80,29 -24,-3 -42,-21 -54,-41 -142,-214 -284,-429 -425,-644 -23,15 -46,30 -69,44l0 0 0 1 -2 0 0 1 -1 0 -1 1 -1 0 -1 1 0 0 -1 1 -1 0 -1 1 -1 1 0 0 -1 1 -1 0 -3 2 0 0 -1 1 -1 0 -1 1 -2 1 -1 1 -1 0 -1 1 0 0 -2 1 0 0 0 1c-33,20 -65,41 -98,61 148,240 297,479 445,719 -8,8 -17,16 -26,24 -11,10 -24,19 -37,27 -22,14 -55,31 -81,26 -24,-4 -41,-23 -53,-43 -73,-124 -146,-248 -220,-372 -22,7 -45,15 -67,23 -23,9 -44,20 -66,32 -48,27 -89,64 -112,116 -24,54 -9,111 18,161 25,47 60,88 106,115 43,26 89,45 137,58 4,22 1,44 -8,64 -9,23 -28,40 -50,51 -26,14 -55,16 -84,12 -34,-6 -67,-19 -98,-37 -35,-20 -67,-47 -95,-76 -31,-33 -57,-69 -77,-109 -23,-45 -40,-94 -44,-144 -4,-43 1,-87 16,-128 15,-41 39,-78 69,-110 34,-36 74,-65 117,-89 27,-15 54,-28 82,-40 26,-11 52,-22 78,-31 -31,-53 -63,-107 -95,-161 -162,96 -328,187 -497,271l0 0 -6 3 -1 1 -7 3 0 1 -1 0 0 0c-152,76 -305,147 -461,213 24,58 49,115 73,173 14,-26 33,-48 54,-68 25,-23 55,-40 86,-54 35,-16 71,-25 108,-27 36,-2 71,3 105,16 34,12 65,32 92,57 31,29 55,63 73,101 19,38 32,79 34,121 2,37 -2,73 -14,108 -13,33 -31,62 -56,87 -25,26 -54,46 -87,61 -56,26 -120,35 -150,-32 -4,-11 -8,-23 -10,-35 -1,-10 -1,-20 1,-30 8,-1 16,-4 24,-7 8,-3 16,-6 24,-10 34,-15 61,-39 76,-73 16,-38 8,-78 -9,-114 -16,-35 -41,-63 -78,-77 -38,-14 -76,-8 -112,8 -25,11 -46,27 -63,48 -15,20 -28,42 -36,66 65,153 130,306 195,459 -9,7 -18,13 -28,20 -12,8 -26,15 -40,21 -23,9 -59,22 -85,13 -23,-8 -37,-30 -45,-51 -15,-37 -30,-74 -45,-111 -16,26 -37,49 -61,68 -29,24 -64,41 -98,54 -36,14 -74,21 -112,21 -38,0 -74,-6 -109,-21 -35,-16 -65,-39 -92,-67 -30,-33 -50,-73 -65,-115 -13,-39 -20,-81 -18,-122 3,-35 11,-70 26,-102 15,-31 36,-57 61,-80 25,-22 54,-40 86,-52 31,-11 72,-22 105,-11 26,8 44,25 54,51 9,22 12,46 5,70 -10,0 -20,1 -29,3 -12,1 -23,5 -34,9 -34,13 -63,35 -80,68 -18,36 -15,75 -1,111 13,38 36,68 73,84 39,17 79,12 118,-2 29,-11 57,-28 76,-52 16,-19 29,-41 35,-65 -61,-152 -122,-304 -183,-456 -148,60 -297,114 -448,165l0 0 -5 2 -2 0 -1 1 -1 0 -2 1 -2 1 -5 1 -2 1 -2 0 -4 2 -3 1 -2 0 0 0 -1 1 -1 0 0 0c-35,12 -71,23 -106,34 84,269 169,538 254,807 -10,5 -20,11 -30,16 -13,7 -27,13 -42,17 -24,8 -60,16 -84,5 -23,-10 -34,-33 -41,-55 -34,-116 -68,-233 -102,-349 -80,23 -160,45 -240,66 -16,5 -31,12 -40,26 -10,16 -7,38 -3,54 6,24 12,48 18,71 -10,9 -21,17 -33,25 -11,7 -24,12 -38,16 -35,8 -68,2 -99,-16 -38,-23 -56,-64 -65,-105 -10,-43 -8,-86 17,-122 26,-38 66,-58 109,-69 111,-27 222,-57 332,-90 -24,-82 -49,-165 -73,-248 -164,48 -330,91 -496,129l-3 0 -2 1 0 0 -2 0 -2 1 -2 0 -2 1 -1 0 -2 0 -2 1 -2 0 -2 1 0 0 -3 0 -2 1 -2 0 -1 0 -1 1 -1 0c-36,8 -74,16 -110,24 57,275 115,551 172,827 -10,5 -21,9 -31,14 -14,6 -30,10 -45,13 -25,5 -62,9 -85,-4 -21,-12 -30,-36 -34,-59 -48,-253 -95,-506 -142,-759l-74 14 0 0 -5 0 -1 1 0 0 -4 0 -1 1 0 0 -2 0 0 0 -10 2 0 0 -5 1 -1 0 -1 0 -4 1 0 0c-44,7 -87,14 -131,21 11,71 22,142 33,212 3,18 3,40 -8,55 -12,16 -34,22 -53,25 -58,9 -116,17 -174,24 -52,7 -100,25 -138,62 -38,38 -48,89 -42,141 3,27 10,54 23,78 13,22 29,41 49,56 20,15 42,24 66,30 26,6 52,6 78,3 27,-3 60,-11 81,-30 19,-17 21,-43 18,-68 -2,-13 -5,-26 -9,-39 -4,-12 -9,-24 -14,-36 9,-14 21,-25 35,-33 17,-10 35,-16 54,-18 17,-3 33,-2 49,1 17,3 32,10 46,19 15,10 26,23 36,38 11,18 17,38 20,58 5,28 3,57 -7,84 -9,24 -21,46 -39,65 26,34 55,67 87,96 27,25 54,49 83,71 0,27 -8,51 -26,72 -18,21 -43,33 -71,37 -32,5 -62,1 -88,-19 -28,-21 -48,-53 -63,-85 -15,-33 -30,-66 -44,-99 -17,8 -35,15 -52,21 -24,9 -50,13 -75,16 -51,7 -102,6 -153,-4 -46,-9 -91,-26 -131,-52 -39,-26 -70,-60 -93,-100 -26,-46 -39,-97 -43,-148 -4,-45 0,-89 11,-132 11,-41 30,-77 57,-110 28,-33 63,-59 102,-79 46,-24 97,-36 148,-42 33,-4 65,-9 98,-13 -6,-44 -12,-88 -18,-132 -155,21 -311,37 -468,49l-2 1 -2 0 -2 0 -1 0 -2 0 -2 0 -2 0 -2 1 0 0 -3 0 -2 0 -2 0 0 0 -2 0 -3 0 -2 1 -1 0 -1 0 -1 0c-37,3 -74,5 -112,7 17,282 34,563 51,844 -11,3 -22,6 -32,9 -15,4 -31,6 -46,7 -26,1 -63,0 -85,-16 -20,-15 -26,-40 -26,-64 -11,-257 -21,-514 -31,-771 -84,3 -169,5 -253,6 24,39 42,82 55,125 16,51 24,103 25,155 1,46 -4,94 -18,139 -11,36 -28,72 -54,101 -24,28 -46,44 -79,60 0,0 -3,2 -4,2 -33,14 -68,20 -104,20 -32,-1 -67,-7 -93,-28 -23,-19 -32,-44 -31,-73 0,-25 6,-49 17,-71 13,3 28,5 41,5 42,1 78,-13 105,-46 33,-40 39,-104 40,-154 0,-44 -7,-88 -21,-130 -12,-37 -28,-73 -49,-105 -43,-1 -87,-2 -130,-3l-1 0 -1 0 -1 0 -2 0 -1 0 -1 0 -1 0 -1 0 -2 0 -1 0 -1 0 -1 0 -2 0 0 -1 -2 0 0 0 -1 0 -4 0 0 0 -2 0 -1 0 -2 0 0 0 -2 0 -1 0 -1 0 -1 0c-38,-1 -76,-3 -113,-4 -13,281 -26,562 -39,844 -11,2 -22,4 -34,6 -15,2 -31,2 -47,1 -25,-1 -62,-6 -81,-25 -18,-17 -21,-42 -19,-65 17,-257 34,-514 51,-771 -28,-2 -55,-4 -82,-6l0 0 -2 0 0 0 -2 0 0 0 -1 0 -2 0 0 0 -2 0 0 0 -1 -1 -1 0 -1 0 -2 0 0 0 -2 0 0 0 -1 0 -1 0 -1 0 -1 0 -1 0 -5 -1 -1 0 0 0 -1 0 -1 0 -1 0c-39,-3 -78,-7 -116,-10 -27,280 -53,561 -80,841 -11,2 -22,3 -33,4 -16,2 -31,1 -46,0 -26,-3 -62,-9 -80,-29 -17,-18 -19,-43 -16,-66 6,-55 12,-109 19,-163 -32,20 -67,34 -103,40 -42,8 -87,7 -129,1 -70,-10 -138,-34 -194,-79 -52,-41 -88,-88 -113,-149 -14,-34 -23,-65 -26,-102 -4,-28 -5,-60 1,-88 2,-12 6,-24 13,-33 8,-10 20,-13 32,-12 47,3 99,5 142,-20 33,-20 51,-50 57,-88 4,-27 3,-53 -8,-78 -10,-24 -26,-44 -46,-60 -61,-10 -121,-21 -182,-33 -41,-8 -44,-45 -37,-80 2,-11 6,-22 10,-33 3,-10 8,-21 15,-30 294,58 593,101 892,126l2 0 3 0 2 1 3 0 2 0 1 0 1 0 3 0 2 1 2 0 3 0 2 0 1 0 1 0 0 0 1 0 0 0c41,4 82,7 123,9 -14,-36 -33,-69 -55,-101 -23,-30 -47,-59 -74,-86 -25,-25 -52,-48 -81,-68 -24,-16 -50,-32 -77,-43 -1,-5 -1,-9 0,-13 0,-5 1,-10 1,-14 3,-29 12,-55 30,-77 18,-22 42,-29 70,-27 34,3 66,22 93,43 36,28 67,62 94,98 31,43 59,90 83,138 25,50 46,104 60,159 31,1 62,2 92,4l2 0 0 0 2 0 0 0 2 0 1 0c51,1 281,2 289,5 34,11 456,-13 569,-20l0 0 5 0c256,-19 512,-49 765,-92l6 -1 3 0 3 -1 6 -1 3 0 3 -1 6 -1 4 0 2 -1 0 0c115,-20 230,-42 344,-67l4 -1 6 -1 2 -1 4 0 7 -2 2 0 4 -1 2 -1c253,-56 504,-124 751,-204l5 -2 12 -4 1 0 12 -4 2 -1c364,-120 719,-266 1063,-436l2 -2c250,-124 493,-260 728,-409l1 -1 4 -2 2 -2 2 -1 2 -1 1 -1 1 0 2 -2 2 -1 2 -1 2 -2 2 -1 0 0 2 -1 0 0 0 0c34,-22 68,-43 101,-65 -36,-9 -69,-25 -100,-47 -33,-23 -60,-53 -82,-87 -33,-51 -50,-107 -41,-168 9,-59 43,-103 92,-137 26,-18 65,-40 97,-34 27,5 47,19 63,41 13,18 21,38 21,61 -10,2 -20,5 -29,9 -11,4 -21,10 -31,17 -23,16 -37,39 -42,68 -6,33 7,66 26,93 17,26 38,47 64,64 25,17 53,30 82,39 34,-24 68,-47 102,-71 34,-24 62,-3 83,26 7,10 12,20 17,31 5,10 10,21 13,32 -40,28 -79,56 -120,84zm-5867 1895c41,6 83,5 123,-10 32,-12 63,-28 88,-51 17,-145 33,-290 50,-436 -88,-10 -175,-21 -262,-34 16,21 28,45 37,70 10,28 12,58 8,87 -4,30 -12,59 -28,84 -14,23 -33,42 -55,58 -23,16 -48,27 -75,33 -29,8 -60,11 -90,11 7,47 28,87 59,121 38,41 91,60 145,67zm-3161 -1316c27,16 57,30 88,38 45,-40 98,-65 158,-70 64,-6 123,10 179,40 32,17 70,42 86,76 13,27 14,54 1,80 -6,11 -13,21 -22,29 -8,8 -17,16 -26,22 -9,-10 -20,-20 -30,-28 -13,-10 -26,-19 -40,-27 -38,-20 -83,-34 -126,-21 -39,13 -67,39 -87,74 -20,37 -28,77 -12,117 17,42 53,72 92,92 35,19 72,30 112,27 31,-2 63,-9 90,-24 71,-141 142,-283 212,-424 -213,-107 -422,-223 -625,-348 -2,29 -6,58 -13,86 -8,33 -21,63 -39,91 -23,39 -54,72 -92,97 28,28 60,52 94,73zm1088 695c30,13 62,16 92,2 33,-16 53,-50 66,-82 40,-102 80,-204 120,-307 -70,-27 -139,-55 -208,-84 -43,101 -86,202 -128,303 -14,32 -23,70 -10,104 12,32 37,52 68,64z"/>
   <path class="fil20" d="M7106 17612c-14,-32 -21,-66 -23,-100 -3,-43 3,-85 18,-126 20,-57 54,-105 108,-135 52,-29 107,-29 163,-11 29,10 70,27 85,56 12,24 13,49 6,74 -7,22 -18,41 -36,54 -7,-6 -16,-12 -24,-17 -11,-6 -21,-10 -32,-14 -28,-8 -54,-5 -79,8 -30,16 -48,46 -58,78 -11,31 -15,64 -11,97 3,28 9,55 19,81 42,14 84,27 126,40 40,12 39,48 29,82 -3,11 -8,22 -13,33 -5,10 -11,21 -18,29 -46,-14 -92,-28 -138,-43 -86,268 -173,536 -259,805 -11,-1 -22,-2 -33,-4 -15,-1 -30,-5 -45,-10 -24,-8 -58,-22 -72,-45 -13,-21 -9,-47 -2,-69 84,-243 168,-487 251,-730 -56,-19 -112,-39 -168,-60 -14,53 -29,105 -46,157 -16,49 -33,99 -51,147 -15,42 -36,82 -67,115 -25,28 -55,50 -91,64 -35,14 -72,19 -110,17 -42,-3 -83,-13 -122,-29 -38,-16 -75,-37 -106,-64 -29,-24 -52,-53 -69,-87 -16,-34 -22,-72 -21,-110 2,-45 15,-89 33,-130 22,-48 44,-95 66,-142 24,-49 49,-97 74,-145l-49 -23 0 0 -1 0 -1 0 0 -1 -2 0 -2 -1 0 0 -2 -1 0 0 -1 -1 -1 0 0 0 -1 -1 -1 0 -1 0 -1 -1 0 0 -2 -1 0 0 -2 -1 0 0 -1 0 -1 -1 -1 0 0 0 -2 -1 -1 -1 -1 0 0 0 -1 -1 -1 0 -1 0 -1 -1 0 0 -1 0 -1 -1 0 0 -1 0 -1 -1 0 0 0 0 -1 0c-33,-15 -66,-31 -99,-46 -120,254 -241,508 -362,761 -26,-2 -53,-12 -76,-24 -23,-11 -55,-29 -65,-54 -10,-22 -2,-47 8,-68 18,-36 36,-72 54,-108 -33,7 -67,8 -101,3 -40,-6 -80,-22 -116,-42 -36,-18 -69,-42 -98,-70 -26,-26 -48,-56 -64,-90 -16,-32 -24,-66 -26,-102 -2,-38 6,-75 20,-111 -8,-2 -17,-5 -24,-10 -8,-5 -16,-9 -24,-14 -37,-21 -70,-47 -101,-77 -31,-29 -56,-63 -75,-102 -52,2 -101,-11 -148,-34 -4,35 -5,70 -3,105 3,34 8,69 17,102 9,32 20,64 34,95 13,29 28,57 46,83 -16,27 -38,47 -68,57 -32,12 -65,2 -93,-16 -29,-18 -50,-45 -67,-75 -19,-37 -31,-77 -37,-118 -7,-49 -6,-99 -1,-148 6,-56 20,-111 38,-165 -18,-15 -35,-35 -38,-59 -3,-22 5,-42 17,-60 9,-13 19,-23 31,-32 11,-8 24,-14 37,-18 10,11 22,22 34,32 15,13 30,25 46,36 41,26 90,48 140,38 45,-8 77,-37 101,-75 15,-23 26,-49 33,-76 6,-26 10,-52 10,-78 -85,-54 -168,-110 -250,-168 -35,-24 -23,-59 -2,-88 6,-10 14,-18 22,-27 7,-8 16,-16 26,-21 393,277 811,519 1247,722l0 0 10 5 2 1 12 5 7 3 0 1 1 0c243,112 491,212 744,299zm7305 -872c160,232 320,464 480,696 -8,8 -16,17 -24,25 -11,11 -24,21 -37,30 -21,14 -53,33 -80,29 -24,-3 -42,-21 -54,-41 -142,-214 -284,-429 -425,-644 -23,15 -46,30 -69,44l0 0 0 1 -2 1 0 0 -1 0 -1 1 -1 0 -1 1 0 0 -1 1 -1 0 -1 1 -1 1 0 0 -1 1 -1 0 -3 2 0 0 -1 1 -1 1 -1 0 -2 2 -1 0 -1 0 -1 1 0 0 -2 1 0 0 0 1c-33,20 -65,41 -98,61 148,240 297,479 445,719 -8,8 -17,16 -26,24 -11,10 -24,19 -37,27 -22,14 -55,31 -81,26 -24,-4 -41,-23 -53,-43 -73,-124 -146,-248 -220,-372 -22,7 -45,15 -67,23 -23,9 -44,20 -66,32 -48,27 -89,64 -112,116 -24,54 -9,111 18,161 25,48 60,88 106,115 43,26 89,45 137,58 4,22 1,44 -8,64 -9,23 -28,40 -50,51 -26,14 -55,16 -84,12 -34,-6 -67,-19 -98,-37 -35,-20 -67,-47 -95,-76 -31,-33 -57,-69 -77,-109 -23,-45 -40,-93 -44,-144 -4,-43 1,-87 16,-128 15,-41 39,-78 69,-110 34,-36 74,-65 117,-89 27,-15 54,-28 82,-40 26,-11 52,-22 78,-31 -31,-53 -63,-107 -95,-161 -162,96 -328,187 -497,271l0 0 -6 3 -1 1 -7 4 0 0 -1 0 0 0c-152,76 -305,147 -461,213 24,58 49,115 73,173 14,-26 33,-48 54,-68 25,-23 55,-40 86,-54 35,-16 71,-25 108,-27 36,-2 71,3 105,16 34,12 65,32 92,57 31,29 55,63 73,101 19,38 32,79 34,121 2,37 -2,73 -14,108 -13,33 -31,62 -56,87 -25,26 -54,46 -87,61 -56,26 -120,35 -150,-32 -4,-11 -8,-23 -10,-35 -1,-10 -1,-20 1,-30 8,-1 16,-4 24,-7 8,-3 16,-6 24,-10 34,-15 61,-38 76,-73 16,-38 8,-78 -9,-114 -16,-35 -41,-63 -78,-77 -38,-14 -76,-8 -112,8 -25,11 -46,27 -63,48 -15,20 -28,42 -36,66 65,153 130,306 195,459 -9,7 -18,13 -28,20 -12,8 -26,15 -40,21 -23,9 -59,22 -85,13 -23,-8 -37,-29 -45,-51 -15,-37 -30,-74 -45,-111 -16,26 -37,49 -61,68 -29,24 -64,41 -98,54 -36,14 -74,21 -112,21 -38,0 -74,-6 -109,-21 -35,-16 -65,-39 -92,-67 -30,-33 -50,-73 -65,-115 -13,-39 -20,-80 -18,-122 3,-35 11,-70 26,-102 15,-30 36,-57 61,-80 25,-22 54,-40 86,-52 31,-11 72,-22 105,-11 26,8 44,25 54,51 9,23 12,46 5,70 -10,0 -20,1 -29,3 -12,1 -23,5 -34,9 -34,13 -63,35 -80,68 -18,36 -15,75 -1,111 13,38 36,68 73,84 39,17 79,12 118,-2 29,-11 57,-27 76,-52 16,-19 29,-41 35,-65 -61,-152 -122,-304 -183,-456 -148,60 -297,115 -448,165l0 0 -5 2 -2 0 -1 1 -1 0 -2 1 -2 1 -5 1 -2 1 -2 0 -4 2 -3 1 -2 0 0 0 -1 1 -1 0 0 0c-35,12 -71,23 -106,34 84,269 169,538 254,807 -10,5 -20,11 -30,16 -13,8 -27,13 -42,17 -24,8 -60,16 -84,5 -23,-10 -34,-33 -41,-55 -34,-116 -68,-233 -102,-349 -80,23 -160,45 -240,67 -16,4 -31,11 -40,25 -10,16 -7,38 -3,54 6,24 12,48 18,71 -10,9 -21,17 -33,25 -11,7 -24,13 -38,16 -35,8 -68,2 -99,-16 -38,-23 -56,-64 -65,-105 -10,-43 -8,-86 17,-122 26,-38 66,-58 109,-69 111,-27 222,-57 332,-90 -24,-82 -49,-165 -73,-248 -164,48 -330,91 -496,129l-3 0 -2 1 0 0 -2 0 -2 1 -2 0 -2 1 -1 0 -2 0 -2 1 -2 0 -2 1 0 0 -3 0 -2 1 -2 0 -1 0 -1 1 -1 0c-36,8 -74,16 -110,24 57,275 115,551 172,827 -10,5 -21,9 -31,14 -14,6 -30,10 -45,13 -25,5 -62,10 -85,-4 -21,-12 -30,-36 -34,-59 -48,-253 -95,-506 -142,-759l-74 14 0 0 -5 1 -1 0 0 0 -4 0 -1 1 0 0 -2 0 0 0 -10 2 0 0 -5 1 -1 0 -1 0 -4 1 0 0c-44,7 -87,14 -131,21 11,71 22,142 33,212 3,18 3,40 -8,55 -12,16 -34,22 -53,25 -58,9 -116,17 -174,24 -52,7 -100,25 -138,62 -38,38 -48,89 -42,141 3,27 10,54 23,78 13,22 29,41 49,56 20,15 42,24 66,30 26,6 52,7 78,3 27,-3 60,-11 81,-29 19,-18 21,-44 18,-69 -2,-13 -5,-26 -9,-39 -4,-12 -9,-24 -14,-36 9,-14 21,-25 35,-33 17,-10 35,-16 54,-18 17,-3 33,-2 49,1 17,3 32,10 46,19 15,10 26,23 36,38 11,18 17,38 20,58 5,28 3,57 -7,84 -9,24 -21,46 -39,65 26,34 55,67 87,96 27,25 54,49 83,71 0,27 -8,51 -26,72 -18,21 -43,33 -71,37 -32,5 -62,1 -88,-19 -28,-21 -48,-53 -63,-85 -15,-33 -30,-66 -44,-99 -17,8 -35,15 -52,21 -24,9 -50,13 -75,16 -51,7 -102,6 -153,-4 -46,-9 -91,-26 -131,-52 -39,-26 -70,-60 -93,-100 -26,-46 -39,-97 -43,-148 -4,-45 0,-89 11,-132 11,-41 30,-77 57,-109 28,-34 63,-60 102,-80 46,-24 97,-36 148,-42 33,-4 65,-9 98,-13 -6,-44 -12,-88 -18,-132 -155,21 -311,37 -468,49l-2 1 -2 0 -2 0 -1 0 -2 0 -2 0 -2 0 -2 1 0 0 -3 0 -2 0 -2 0 0 0 -2 0 -3 0 -2 1 -1 0 -1 0 -1 0c-37,3 -74,5 -112,7 17,282 34,563 51,844 -11,3 -22,6 -32,9 -15,4 -31,6 -46,7 -26,1 -63,0 -85,-16 -20,-15 -26,-40 -26,-64 -11,-257 -21,-514 -31,-771 -84,3 -169,5 -253,6 24,39 42,82 55,126 16,50 24,102 25,154 1,47 -4,94 -18,139 -11,36 -28,72 -54,101 -24,28 -46,44 -79,60 0,0 -3,2 -4,2 -33,14 -68,20 -104,20 -32,-1 -67,-7 -93,-28 -23,-19 -32,-44 -31,-73 0,-25 6,-49 17,-71 13,3 28,5 41,5 42,1 78,-13 105,-46 33,-40 39,-104 40,-154 0,-44 -7,-88 -21,-130 -12,-37 -28,-73 -49,-105 -43,-1 -87,-2 -130,-3l-1 0 -1 0 -1 0 -2 0 -1 0 -1 0 -1 0 -1 0 -2 0 -1 0 -1 0 -1 0 -2 0 0 -1 -2 0 0 0 -1 0 -4 0 0 0 -2 0 -1 0 -2 0 0 0 -2 0 -1 0 -1 0 -1 0c-38,-1 -76,-3 -113,-4 -13,281 -26,563 -39,844 -11,2 -22,4 -34,6 -15,2 -31,2 -47,1 -25,-1 -62,-6 -81,-25 -18,-17 -21,-42 -19,-65 17,-257 34,-514 51,-771 -28,-2 -55,-4 -82,-6l0 0 -2 0 0 0 -2 0 0 0 -1 0 -2 0 0 0 -2 0 0 0 -1 0 -1 -1 -1 0 -2 0 0 0 -2 0 0 0 -1 0 -1 0 -1 0 -1 0 -1 0 -5 -1 -1 0 0 0 -1 0 -1 0 -1 0c-39,-3 -78,-7 -116,-10 -27,280 -53,561 -80,841 -11,2 -22,3 -33,4 -16,2 -31,1 -46,0 -26,-3 -62,-9 -80,-29 -17,-18 -19,-43 -16,-66 6,-55 12,-109 19,-163 -32,20 -67,34 -103,40 -42,8 -87,7 -129,1 -70,-10 -138,-34 -194,-79 -52,-41 -88,-88 -113,-149 -14,-34 -23,-65 -26,-102 -4,-28 -5,-60 1,-88 2,-12 6,-24 13,-33 8,-10 20,-13 32,-12 47,3 99,5 142,-20 33,-20 51,-50 57,-88 4,-27 3,-53 -8,-78 -10,-24 -26,-44 -46,-60 -61,-10 -121,-21 -182,-33 -41,-8 -44,-45 -37,-80 2,-11 6,-22 10,-33 3,-10 8,-21 15,-30 294,58 593,101 892,126l2 0 3 0 2 1 3 0 2 0 1 0 1 0 3 0 2 1 2 0 3 0 2 0 1 0 1 0 0 0 1 0 0 1c41,3 82,6 123,8 -14,-36 -33,-69 -55,-101 -23,-30 -47,-59 -74,-86 -25,-25 -52,-48 -81,-68 -24,-16 -50,-32 -77,-43 -1,-5 -1,-9 0,-13 0,-5 1,-10 1,-14 3,-29 12,-55 30,-77 18,-22 42,-29 70,-27 34,3 66,22 93,43 36,28 67,62 94,98 31,43 59,90 83,138 25,50 46,104 60,159 31,1 62,3 92,4l2 0 0 0 2 0 0 0 2 0 1 0c51,1 281,3 289,5 34,11 456,-13 569,-20l0 0 5 0c256,-19 512,-49 765,-92l6 -1 3 0 3 -1 6 -1 3 0 3 -1 6 -1 4 0 2 -1 0 0c115,-20 230,-42 344,-67l4 -1 6 -1 2 -1 4 0 7 -2 2 0 4 -1 2 -1c253,-56 504,-124 751,-204l5 -2 12 -4 1 0 12 -4 2 -1c364,-120 719,-266 1063,-436l2 -2c250,-123 493,-260 728,-409l1 -1 4 -2 2 -2 2 -1 2 -1 1 -1 1 0 2 -2 2 -1 2 -1 2 -2 2 -1 0 0 2 -1 0 0 0 0c34,-22 68,-43 101,-65 -36,-9 -69,-25 -100,-47 -33,-23 -60,-53 -82,-87 -33,-51 -50,-107 -41,-168 9,-59 43,-103 92,-137 26,-18 65,-40 97,-34 27,5 47,19 63,41 13,18 21,38 21,61 -10,2 -20,5 -29,9 -11,4 -21,10 -31,17 -23,16 -37,39 -42,68 -6,33 7,66 26,93 17,26 38,47 64,64 25,17 53,30 82,39 34,-24 68,-47 102,-71 34,-24 62,-3 83,26 7,10 12,20 17,31 5,10 10,21 13,32 -40,28 -79,56 -120,84zm-5867 1895c41,6 83,5 123,-10 32,-12 63,-28 88,-51 17,-145 33,-290 50,-436 -88,-10 -175,-21 -262,-34 16,21 28,45 37,70 10,28 12,58 8,87 -4,30 -12,59 -28,84 -14,23 -33,42 -55,58 -23,16 -48,27 -75,33 -29,8 -60,11 -90,11 7,47 28,87 59,121 38,41 91,60 145,67zm-3161 -1316c27,16 57,30 88,38 45,-40 98,-65 158,-70 64,-6 123,10 179,40 32,17 70,42 86,77 13,26 14,53 1,79 -6,11 -13,21 -22,29 -8,8 -17,16 -26,22 -9,-10 -20,-20 -30,-28 -13,-10 -26,-19 -40,-27 -38,-20 -83,-34 -126,-21 -39,13 -67,39 -87,74 -20,37 -28,77 -12,117 17,42 53,72 92,93 35,18 72,29 112,26 31,-2 63,-9 90,-24 71,-141 142,-283 212,-424 -213,-107 -422,-223 -625,-348 -2,29 -6,58 -13,86 -8,33 -21,63 -39,91 -23,39 -54,72 -92,97 28,28 60,53 94,73zm1088 695c30,13 62,16 92,2 33,-16 53,-50 66,-82 40,-102 80,-204 120,-306 -70,-28 -139,-56 -208,-85 -43,101 -86,202 -128,303 -14,32 -23,70 -10,104 12,32 37,52 68,64z"/>
   <path class="fil18" d="M7083 17517l0 -5c-3,-43 3,-85 18,-126 20,-57 54,-105 108,-135 52,-29 107,-29 163,-11 29,10 70,27 85,56 11,23 13,46 7,70 -2,-6 -4,-12 -7,-18 -15,-29 -56,-46 -85,-56 -56,-18 -111,-18 -163,11 -54,30 -88,78 -108,135 -9,26 -15,52 -18,79zm140 60c3,28 10,55 19,80 42,14 84,27 126,40 38,12 39,45 30,77 -5,-11 -14,-20 -30,-25 -42,-13 -84,-26 -126,-40 -10,-26 -16,-53 -19,-81 -2,-17 -2,-34 0,-51zm-408 958c-8,-19 -4,-41 2,-60l235 -684 16 6c-83,243 -167,487 -251,730l-2 8zm-597 -604c-1,-12 -1,-24 -1,-36 2,-45 15,-89 33,-130 22,-48 44,-95 66,-142 17,-35 35,-69 52,-103l22 9c-25,49 -50,97 -74,146 -22,47 -44,94 -66,142 -16,36 -28,74 -32,114zm-512 148l-1 -2c-10,-22 -2,-47 8,-68l26 -51c9,-1 19,-3 28,-5 -18,36 -36,72 -54,108 -3,6 -5,12 -7,18zm-343 -463c0,-6 -1,-11 -1,-16 -1,-22 1,-43 6,-64 4,2 9,4 14,5 -9,24 -16,49 -19,75zm-356 -269l0 10c3,34 8,69 17,102 9,32 20,64 34,95 13,29 28,57 46,83 -5,9 -11,17 -18,24 -10,-18 -20,-36 -28,-55 -14,-31 -25,-63 -34,-95 -9,-34 -14,-68 -17,-102 -1,-21 -1,-42 0,-62zm-172 88c-2,-33 0,-66 3,-98 5,-42 14,-84 25,-124 4,4 9,8 13,11 -18,54 -32,109 -38,165 -1,15 -3,30 -3,46zm7 -306c-2,-5 -3,-10 -4,-16 -3,-22 5,-42 17,-60 9,-13 19,-23 31,-32 11,-8 24,-14 37,-18 10,11 22,22 34,32 15,13 30,25 46,36 41,26 90,48 140,38 45,-8 77,-37 101,-75 15,-23 26,-49 33,-76 2,-9 4,-19 6,-28l4 2c0,26 -4,52 -10,78 -7,27 -18,53 -33,76 -24,38 -56,67 -101,75 -50,10 -99,-12 -140,-39 -16,-10 -31,-22 -46,-35 -12,-10 -24,-21 -34,-32 -13,4 -26,10 -37,18 -12,9 -22,19 -31,31 -5,8 -10,17 -13,25zm180 -431c-16,-23 -4,-50 13,-74 6,-10 14,-18 22,-27 7,-8 16,-16 26,-21 393,277 811,519 1247,722l0 0 10 5 2 1 12 5 7 3 0 1 1 0c237,109 480,207 726,293 4,20 10,39 18,58 -253,-87 -501,-187 -744,-299l-1 0 0 -1 -7 -3 -12 -5 -2 -1 -10 -5 0 0c-436,-203 -854,-445 -1247,-722 -10,5 -19,13 -26,21 -8,9 -16,17 -22,27 -5,7 -10,14 -13,22zm9414 77l455 661 -21 22 -459 -666 25 -17zm-334 220l422 681 -20 19 -425 -686 23 -14zm-250 599c5,26 15,52 28,76 25,48 60,88 106,115 43,26 89,45 137,58 3,18 2,35 -3,52 -47,-13 -92,-33 -134,-58 -46,-27 -81,-68 -106,-115 -22,-40 -35,-84 -28,-128zm-185 7c-4,-42 1,-84 16,-125 15,-41 39,-78 69,-110 34,-36 74,-65 117,-89 27,-15 54,-28 82,-40 18,-8 35,-15 53,-22l25 43c-26,9 -52,20 -78,31 -28,12 -55,25 -82,40 -43,24 -83,53 -117,89 -30,32 -54,69 -69,110 -9,24 -14,49 -16,73zm-688 -20l55 129c14,-26 33,-48 54,-68 25,-23 55,-40 86,-54 35,-16 71,-25 108,-27 36,-2 71,3 105,16 34,12 65,32 92,57 31,29 55,63 73,101 19,38 32,79 34,121 1,15 1,30 0,44 -4,-39 -17,-77 -34,-113 -18,-38 -42,-72 -73,-101 -27,-25 -58,-45 -92,-57 -34,-13 -69,-18 -105,-16 -37,2 -73,11 -108,27 -31,14 -61,31 -86,54 -21,20 -40,42 -54,68 -24,-58 -49,-115 -73,-173l18 -8zm295 485c-2,-7 -4,-14 -5,-21 -1,-10 -1,-20 1,-30 8,-1 16,-4 24,-7 8,-3 16,-6 24,-10 34,-15 61,-38 76,-73 3,-6 5,-12 6,-18 5,23 4,47 -6,70 -15,34 -42,58 -76,73 -8,4 -16,7 -24,10 -6,3 -13,5 -20,6zm-167 -184l184 433 -17 12 -178 -419c3,-9 7,-18 11,-26zm-613 186c-1,-14 -2,-28 -1,-43 3,-35 11,-70 26,-102 15,-30 36,-57 61,-80 25,-22 54,-40 86,-52 31,-11 72,-22 105,-11 26,8 44,25 54,51 9,22 12,45 6,68 -2,-5 -4,-11 -6,-16 -10,-26 -28,-43 -54,-51 -33,-11 -74,0 -105,11 -32,12 -61,30 -86,52 -25,23 -46,49 -61,80 -14,29 -22,61 -25,93zm183 -7c2,11 5,21 9,31 13,38 36,68 73,84 39,17 79,12 118,-2 29,-11 57,-27 76,-52 10,-12 18,-24 25,-38l10 25c-6,24 -19,46 -35,65 -19,24 -47,41 -76,52 -39,14 -79,19 -118,2 -37,-16 -60,-46 -73,-84 -10,-27 -15,-55 -9,-83zm-445 -202l240 759 -14 8 -240 -763 14 -4zm-341 541l17 69 -11 9 -7 -28c-4,-15 -6,-35 1,-50zm-222 -29c-5,-37 -1,-73 21,-104 26,-38 66,-58 109,-69 107,-26 213,-55 318,-85l14 47c-110,33 -221,63 -332,90 -43,11 -83,31 -109,69 -11,16 -18,34 -21,52zm-239 -302l162 778 -10 5 -162 -780 10 -3zm-406 75l25 161c2,14 3,29 -1,42l-32 -202 8 -1zm-390 469c3,27 10,53 23,77 13,22 29,41 49,56 20,15 42,24 66,30 26,6 52,7 78,3 27,-3 60,-11 81,-29 8,-8 13,-17 16,-27l2 10c3,25 1,51 -18,68 -21,19 -54,27 -81,30 -26,3 -52,3 -78,-3 -24,-6 -46,-15 -66,-30 -20,-15 -36,-34 -49,-56 -13,-24 -20,-51 -23,-78 -2,-17 -2,-34 0,-51zm305 28c-4,-12 -8,-24 -13,-35 9,-14 21,-25 35,-33 17,-10 35,-16 54,-18 17,-3 33,-2 49,1 17,3 32,10 46,19 15,10 26,23 36,38 11,18 17,38 20,58 3,19 4,37 1,56l-1 -4c-3,-20 -9,-40 -20,-58 -10,-15 -21,-28 -36,-38 -14,-9 -29,-16 -46,-19 -16,-3 -32,-4 -49,-1 -19,2 -37,8 -54,18 -8,4 -15,10 -22,16zm201 204c21,25 43,49 67,71 27,25 54,49 83,71 0,16 -3,31 -9,45 -25,-20 -50,-42 -74,-64 -32,-29 -61,-62 -87,-96 8,-8 14,-17 20,-27zm-690 -227c-2,-42 1,-84 12,-124 11,-41 30,-77 57,-109 28,-34 63,-60 102,-80 46,-24 97,-36 148,-42 30,-4 61,-8 91,-12l7 51c-33,4 -65,9 -98,13 -51,6 -102,18 -148,42 -39,20 -74,46 -102,79 -27,33 -46,69 -57,110 -6,24 -10,48 -12,72zm-209 -389l47 792 -3 1 -48 -793 4 0zm-399 15c11,24 21,48 28,74 16,50 24,102 25,154 0,12 0,24 -1,37 -2,-48 -9,-94 -24,-140 -13,-43 -31,-86 -55,-125l27 0zm-328 475c-2,-8 -3,-17 -2,-26 0,-25 6,-49 17,-71 13,3 28,5 41,5 42,1 78,-13 105,-46 28,-33 37,-84 39,-128 0,9 1,17 1,26 -1,50 -7,114 -40,154 -27,33 -63,47 -105,46 -13,0 -28,-2 -41,-5 -7,14 -12,30 -15,45zm-364 256c-2,-10 -2,-20 -1,-30l47 -719 4 0 -50 749zm-432 -30c-3,-13 -3,-27 -1,-39l12 -107 7 -4 -18 150zm-549 -508c-2,-24 -2,-48 3,-71 2,-12 6,-24 13,-33 8,-10 20,-13 32,-12 47,3 99,5 142,-20 33,-20 51,-50 57,-88 3,17 3,35 0,52 -6,38 -24,68 -57,88 -43,25 -95,23 -142,20 -12,-1 -24,2 -32,12 -7,9 -11,21 -13,33 -2,6 -3,12 -3,19zm-25 -425c-5,-14 -4,-32 -1,-50 2,-11 6,-22 10,-33 3,-10 8,-21 15,-30 294,58 593,101 892,126l2 0 3 0 2 1 3 0 2 0 1 0 1 0 3 0 2 1 2 0 3 0 2 0 1 0 1 0 0 0 1 0 0 1c33,2 65,4 98,7 9,17 17,35 25,53 -41,-2 -82,-5 -123,-9l0 0 -1 0 0 0 -1 0 -1 0 -2 0 -3 0 -2 0 -2 -1 -3 0 -1 0 -1 0 -2 0 -3 0 -2 -1 -3 0 -2 0c-299,-25 -598,-68 -892,-126 -7,9 -12,20 -15,30 -4,10 -7,21 -9,31zm786 -272l-5 -2c-1,-5 -1,-9 0,-13 0,-5 1,-10 1,-14 3,-29 12,-55 30,-77 18,-22 42,-29 70,-27 34,3 66,22 93,43 36,28 67,62 94,98 31,43 59,90 83,138 25,50 46,104 60,159 31,1 62,3 92,4l2 0 0 0 2 0 0 0 2 0 1 0c51,1 281,3 289,5 34,11 456,-13 569,-20l0 0 5 0c256,-19 512,-49 765,-92l6 -1 3 0 3 -1 6 -1 3 0 3 -1 6 -1 4 0 2 -1 0 0c115,-20 230,-42 344,-67l4 -1 6 -1 2 -1 4 0 7 -2 2 0 4 -1 2 -1c253,-56 504,-124 751,-204l5 -2 12 -4 1 0 12 -4 2 -1c364,-120 719,-266 1063,-436l2 -2c250,-123 493,-260 728,-409l1 -1 4 -2 2 -2 2 -1 2 -1 1 -1 1 0 2 -2 2 -1 2 -1 2 -2 2 -1 0 0 2 -1 0 0 0 0 49 -32c17,8 34,14 52,19 -33,22 -67,43 -101,65l0 0 0 0 -2 1 0 0 -2 1 -2 2 -2 1 -2 1 -2 2 -1 0 -1 1 -2 1 -2 1 -2 2 -4 2 -1 1c-235,149 -478,285 -728,409l-2 2c-344,170 -699,316 -1063,436l-2 1 -12 4 -1 0 -12 4 -5 2c-247,80 -498,148 -751,204l-2 1 -4 1 -2 0 -7 2 -4 0 -2 1 -6 1 -4 1c-114,25 -229,47 -344,67l0 0 -2 1 -4 0 -6 1 -3 1 -3 0 -6 1 -3 1 -3 0 -6 1c-253,43 -509,73 -765,92l-5 0 0 0c-113,7 -535,31 -569,20 -8,-3 -238,-4 -289,-5l-1 0 -2 0 0 0 -2 0 0 0 -2 0c-30,-2 -61,-3 -92,-4 -14,-55 -35,-109 -60,-159 -24,-48 -52,-95 -83,-138 -27,-36 -58,-70 -94,-98 -27,-21 -59,-40 -93,-43 -28,-2 -52,5 -70,27 -13,16 -21,34 -26,54zm5042 -1264c-2,-19 -2,-39 1,-59 9,-59 43,-103 92,-137 26,-18 65,-40 97,-34 27,5 47,19 63,41 13,18 21,38 21,61 -5,1 -9,2 -13,3 -3,-4 -5,-8 -8,-12 -16,-22 -36,-36 -63,-41 -32,-6 -71,16 -97,34 -49,34 -83,78 -92,137l-1 7zm174 9c4,18 13,35 24,50 17,26 38,47 64,64 25,17 53,30 82,39 34,-24 68,-47 102,-71 34,-24 62,-3 83,26 7,10 12,20 17,31 5,10 10,21 13,32l-17 12c-4,-8 -8,-16 -13,-23 -21,-29 -49,-50 -83,-26 -34,24 -68,47 -102,71 -29,-9 -57,-22 -82,-39 -26,-17 -47,-38 -64,-64 -19,-27 -32,-60 -26,-93l2 -9zm-5602 2150c41,6 83,5 123,-10 32,-12 63,-28 88,-51l44 -384 6 0c-17,146 -33,291 -50,436 -25,23 -56,39 -88,51 -40,15 -82,16 -123,10 -54,-7 -107,-26 -145,-67 -31,-34 -52,-74 -59,-121l14 0c11,25 26,48 45,69 38,41 91,60 145,67zm31 -474l5 13c10,28 12,57 8,86 -1,-12 -4,-23 -8,-34 -9,-25 -21,-49 -37,-70l32 5zm-3192 -842c27,16 57,30 88,38 45,-40 98,-65 158,-70 64,-6 123,10 179,40 32,17 70,42 86,77 11,22 14,44 6,67 -1,-5 -3,-10 -6,-16 -16,-34 -54,-59 -86,-76 -56,-30 -115,-46 -179,-40 -60,5 -113,30 -158,70 -31,-8 -61,-22 -88,-38 -34,-21 -66,-45 -94,-73 11,-8 21,-15 31,-24 20,17 41,32 63,45zm163 311c2,7 4,13 6,19 17,42 53,72 92,93 35,18 72,29 112,26 31,-2 63,-9 90,-24l192 -382 20 10c-70,141 -141,283 -212,424 -27,15 -59,22 -90,24 -40,3 -77,-8 -112,-27 -39,-20 -75,-50 -92,-92 -9,-24 -11,-48 -6,-71zm925 384c30,13 62,16 92,2 33,-16 53,-50 66,-82l102 -261 18 6c-40,103 -80,205 -120,307 -13,32 -33,66 -66,82 -30,14 -62,11 -92,-2 -31,-12 -56,-32 -68,-64 -8,-20 -8,-42 -4,-63 1,4 3,8 4,11 12,32 37,52 68,64z"/>
  </g>
  <g id="_955562616">
   <g>
    <path class="fil16" d="M8440 1483c57,318 115,636 173,954 -15,8 -30,14 -45,20 -20,8 -41,14 -62,18 -34,7 -89,15 -121,-4 -29,-17 -43,-52 -50,-83 -62,-282 -124,-565 -186,-847 -33,8 -67,15 -101,23l-2 1 -1 0 -1 0 -2 1 0 0 -2 0 -1 0 -1 0 -2 1 0 0 -2 0 -1 1 -1 0 -2 0 -2 1 -1 0 -1 0 -2 1 0 0 -2 0 -1 1 -1 0 -2 0 0 0 -2 1 -1 0c-53,12 -106,26 -159,39 81,313 161,626 242,939 -14,9 -28,16 -42,23 -19,9 -40,16 -60,22 -34,9 -88,21 -121,5 -31,-15 -47,-48 -56,-80 -23,-78 -46,-156 -69,-234 -27,27 -57,50 -90,69 -36,22 -74,39 -114,52 -103,34 -211,44 -313,1 -106,-45 -171,-139 -211,-243 -33,-85 -65,-169 -98,-254l-51 20 0 0 -1 0 -2 1 0 0 -1 1 -3 1 -1 0 -1 0 -1 1 -1 0 -1 1 -1 0 -1 0 -1 1 -1 0 -1 1 -1 0 -1 0 -1 1 0 0 -2 1 0 0 -1 0 -2 1 0 0 -3 1 0 0 -1 1 -2 0 0 0 -1 1 -2 0 0 0 -1 1 -2 0 0 1 -1 0 -3 1 -1 1 -1 0 -1 0 -1 1 0 0c-46,18 -91,37 -136,56 126,298 252,595 378,893 -13,10 -26,20 -39,29 -18,12 -37,22 -57,31 -32,14 -83,34 -119,23 -32,-10 -53,-41 -67,-71 -122,-261 -244,-523 -366,-785 -31,14 -62,29 -92,44l0 0 -2 0 -1 1 -1 0 -2 1 0 0 -2 1 -1 1 0 0 -2 1 -1 0 -1 1 -1 0 -1 1 -2 1 0 0 -2 1 -1 0 -1 1 -2 0 0 1 -2 0 0 1 -2 0 -1 1 -1 0 -1 1 -1 1 0 0 -1 0 -2 1 0 0 -1 0c-48,23 -95,48 -143,72 147,288 294,576 441,864 -12,11 -24,21 -37,31 -17,14 -36,25 -55,35 -31,17 -81,40 -117,32 -33,-8 -56,-37 -72,-66 -50,-90 -101,-180 -151,-271 -88,49 -175,100 -261,153 13,46 13,92 -4,138 -19,49 -56,85 -99,113 -47,30 -104,56 -161,47 -46,-8 -84,-30 -110,-69 -24,-34 -34,-74 -36,-115 14,-9 27,-18 41,-28 20,-13 37,-31 42,-56 5,-25 -4,-49 -18,-70 -50,-76 -100,-152 -150,-228 -10,-15 -24,-29 -43,-30 -18,-1 -35,5 -49,15 -14,9 -26,21 -32,37 -5,15 -4,30 3,44 -10,10 -20,20 -31,28 -30,20 -65,36 -101,33 -35,-3 -60,-21 -80,-49 -16,-21 -25,-46 -27,-72 -1,-27 4,-53 15,-78 12,-29 30,-54 51,-77 25,-27 53,-50 84,-70 74,-50 168,-95 260,-88 82,5 139,49 181,117 55,91 110,182 165,273 86,-51 172,-101 259,-150 -57,-101 -113,-202 -170,-304 -35,20 -70,40 -105,60 -21,12 -47,22 -71,12 -24,-10 -42,-34 -55,-56 -8,-14 -15,-30 -20,-45 -5,-14 -10,-31 -11,-46 172,-101 347,-195 525,-283l0 0 6 -3 2 -2 7 -3 1 -1 8 -3 1 -1 7 -4 1 0c166,-81 335,-158 507,-228l2 -1 10 -4 7 -3 2 -1 9 -4 7 -2 3 -1 9 -4 3 -1c384,-155 779,-282 1181,-380l10 -2 3 -1 3 -1 1 0c197,-47 396,-87 596,-121 63,-10 92,24 101,83 3,17 3,35 2,51 -1,16 -3,34 -9,49 -65,10 -129,21 -193,33zm5614 967c-30,53 -60,106 -91,158 38,0 75,6 111,17 44,12 86,34 125,58 44,27 83,60 115,101 30,37 52,79 65,126 12,46 14,93 6,139 -9,53 -32,101 -62,144 -29,43 -64,80 -108,108 -37,25 -78,42 -122,51 -42,7 -84,7 -125,-2 -42,-9 -81,-25 -117,-47 -74,-46 -128,-109 -77,-196 8,-14 19,-27 31,-38 12,-10 25,-19 38,-26 14,13 29,24 46,34 32,19 66,27 103,22 42,-7 71,-35 93,-69 22,-35 30,-72 17,-112 -13,-43 -46,-74 -83,-96 -26,-16 -55,-27 -85,-31 -26,-3 -53,-1 -78,5 -95,165 -190,330 -285,495 -15,-3 -31,-8 -46,-13 -21,-7 -41,-17 -60,-27 -31,-17 -76,-46 -90,-81 -12,-32 0,-67 15,-97 15,-28 30,-56 45,-84 -36,2 -71,-1 -106,-8 -42,-8 -83,-23 -121,-42 -42,-21 -80,-47 -113,-80 -32,-32 -57,-69 -76,-111 -18,-44 -27,-90 -28,-137 -1,-54 13,-108 34,-157 21,-48 49,-91 87,-126 34,-30 73,-53 117,-66 43,-13 87,-17 132,-12 47,4 91,18 134,38 43,21 95,53 116,98 18,36 16,71 -2,107 -15,30 -38,54 -69,68 -7,-7 -15,-14 -22,-20 -11,-9 -25,-17 -37,-23 -35,-18 -73,-25 -112,-15 -41,9 -68,39 -85,76 -18,37 -21,76 -5,114 17,41 50,68 88,88 28,14 59,25 91,26 26,1 53,-1 77,-9 87,-164 173,-327 259,-491 -198,-105 -401,-201 -608,-290l-3 -1 -2 -1 0 0 -3 -1 -3 -2 -3 -1 -2 0 -10 -5 -2 -1 -3 -1 -3 -1 -2 -1 -1 0 0 -1 -1 0 -1 0 -1 -1c-47,-20 -95,-39 -142,-58 -120,300 -240,600 -360,900 -16,-1 -32,-4 -48,-6 -22,-4 -43,-11 -63,-19 -33,-12 -81,-34 -99,-67 -17,-30 -11,-67 0,-97 15,-42 30,-83 45,-124 -44,7 -90,7 -134,3 -54,-4 -106,-16 -157,-32 -93,-30 -181,-74 -253,-142 -63,-60 -109,-128 -135,-212 -11,-36 -19,-71 -23,-108 -3,-32 -3,-66 5,-98 3,-15 11,-29 24,-39 15,-11 39,-9 57,-7 51,8 105,12 156,13 44,1 88,-2 130,-11 34,-7 67,-19 95,-40 27,-20 44,-46 54,-78 7,-26 9,-54 -5,-79 -13,-22 -32,-36 -57,-43 -23,-7 -48,-7 -70,5 -23,11 -35,33 -42,57 -4,14 -7,30 -6,44 1,12 2,23 6,34 -19,12 -41,16 -62,17 -28,2 -57,-2 -84,-10 -20,-5 -40,-13 -58,-24 -17,-11 -32,-25 -44,-41 -13,-18 -20,-38 -24,-59 -4,-26 -1,-52 5,-77 8,-33 24,-63 47,-89 25,-28 57,-48 92,-61 41,-17 87,-23 132,-24 57,-1 113,9 167,24 56,16 110,39 157,73 39,27 73,61 98,102 22,37 35,78 38,121 4,44 -3,88 -17,130 -16,45 -41,86 -76,119 -35,32 -75,56 -119,73 -47,19 -98,29 -148,33 -56,4 -112,3 -167,-2 8,46 35,85 68,118 43,43 99,70 156,89 48,15 98,24 149,22 43,-2 87,-10 126,-28 70,-193 139,-387 209,-580 6,-19 19,-34 37,-42 5,-3 10,-4 15,-5l-23 -8c-28,-45 -45,-94 -51,-146 -6,-50 -2,-100 14,-148 13,-39 33,-73 62,-102 28,-28 63,-48 101,-60 41,-14 86,-18 130,-15 51,3 103,16 151,35 51,20 132,57 160,107 20,35 25,71 10,108 -13,30 -33,56 -64,67 -13,-11 -27,-20 -41,-29 -16,-10 -33,-18 -50,-24 -40,-17 -81,-21 -123,-8 -43,14 -69,45 -84,86 -14,36 -18,72 -11,110 5,32 13,63 25,93 45,18 91,36 136,55l3 1 5 2 16 6 2 1 3 2 5 2 5 2 4 1c544,228 1063,513 1548,848 52,36 48,81 14,129 -10,14 -22,27 -34,39 -11,11 -25,23 -40,29 -207,-146 -420,-282 -640,-408zm-3700 -1090c-16,323 -33,646 -50,969 -16,4 -32,6 -48,9 -21,3 -44,4 -65,3 -36,-2 -89,-7 -116,-32 -25,-23 -31,-60 -31,-92 2,-108 4,-216 6,-324 -22,4 -43,7 -65,9 -8,1 -56,5 -60,3 -1,0 -8,0 -9,0 -51,1 -102,-6 -151,-16 -52,-10 -102,-27 -148,-53 -24,15 -49,28 -75,38 -28,12 -58,20 -87,25 44,64 99,118 163,162 59,41 122,77 188,103 1,46 -12,88 -40,124 -30,39 -77,53 -125,55 -40,2 -78,-7 -113,-23 -43,-18 -80,-46 -114,-77 -40,-39 -75,-85 -106,-132 -37,-57 -67,-119 -91,-183 -32,0 -68,-7 -91,-31 -21,-22 -31,-49 -34,-79 -2,-21 -1,-42 5,-62 6,-19 15,-37 27,-53 22,3 44,3 66,2 26,0 53,-2 79,-4 56,-4 120,-18 161,-58 35,-35 49,-77 47,-126 -2,-28 -8,-55 -19,-80 -12,-26 -26,-50 -42,-72 -137,8 -273,20 -409,35 -24,3 -52,1 -69,-18 -18,-18 -25,-48 -28,-73 -2,-16 -2,-33 -1,-49 1,-15 3,-32 9,-46 342,-40 662,-59 1007,-60 30,-10 412,9 542,17l0 0 17 1 5 0 0 0 5 1 4 0 3 0c447,31 890,96 1326,197 62,14 76,57 62,115 -3,16 -10,32 -17,48 -6,14 -14,30 -26,42 -63,-15 -127,-30 -191,-43 -67,316 -134,632 -202,948 -16,1 -33,1 -49,1 -22,0 -43,-3 -64,-7 -35,-7 -88,-20 -111,-49 -20,-27 -20,-65 -14,-97 18,-101 35,-203 53,-305 -107,-19 -215,-35 -323,-50 -41,107 -122,145 -233,133 -55,-6 -116,-21 -154,-64 -31,-35 -46,-76 -43,-123 4,-42 19,-79 45,-112 16,1 31,3 47,4 25,2 49,-2 68,-18 19,-17 28,-41 30,-65 11,-113 22,-226 34,-339 -63,-6 -126,-12 -189,-16l-1 0 -2 -1 -10 0 -2 0 -1 -1 -6 0 0 0 -3 0 0 0 -3 0 -1 0 -2 -1 0 0 -1 0 -1 0 -1 0 0 0c-54,-4 -108,-7 -162,-10zm-485 331c7,0 52,-1 56,-3 48,-5 84,-13 129,-31 1,-103 3,-205 4,-307 -15,0 -129,0 -133,-1 -10,-3 -185,2 -209,3 16,29 30,59 41,91 13,34 18,70 19,107 1,45 -8,90 -26,132 40,7 80,10 119,9zm1118 77c106,14 212,31 318,50 20,-115 40,-229 60,-343 -110,-19 -221,-37 -332,-52 -15,115 -31,230 -46,345zm-3447 417c31,-10 60,-24 87,-44 21,-16 43,-35 56,-59 -144,-52 -290,-100 -437,-143 13,38 27,77 40,115 18,51 47,111 99,134 49,22 105,13 155,-3zm106 -249c-24,-82 -48,-164 -73,-247 -118,35 -236,73 -352,113 143,41 285,85 425,134z"/>
    <path class="fil21" d="M8440 1430c57,318 115,636 173,954 -15,7 -30,14 -45,20 -20,8 -41,13 -62,18 -34,6 -89,14 -121,-4 -29,-17 -43,-52 -50,-84 -62,-282 -124,-564 -186,-846 -33,7 -67,15 -101,23l-2 0 -1 1 -1 0 -2 0 0 0 -2 1 -1 0 -1 0 -2 1 0 0 -2 0 -1 0 -1 1 -2 0 -2 1 -1 0 -1 0 -2 1 0 0 -2 0 -1 0 -1 1 -2 0 0 0 -2 0 -1 1c-53,12 -106,25 -159,39 81,313 161,626 242,939 -14,8 -28,16 -42,23 -19,9 -40,16 -60,22 -34,9 -88,21 -121,5 -31,-15 -47,-49 -56,-80 -23,-78 -46,-156 -69,-234 -27,27 -57,50 -90,69 -36,22 -74,38 -114,51 -103,34 -211,45 -313,2 -106,-45 -171,-139 -211,-243 -33,-85 -65,-170 -98,-254l-51 20 0 0 -1 0 -2 1 0 0 -1 0 -3 1 -1 1 -1 0 -1 1 -1 0 -1 0 -1 1 -1 0 -1 0 -1 1 -1 0 -1 1 -1 0 -1 0 0 1 -2 0 0 1 -1 0 -2 1 0 0 -3 1 0 0 -1 0 -2 1 0 0 -1 0 -2 1 0 0 -1 1 -2 0 0 0 -1 1 -3 1 -1 0 -1 1 -1 0 -1 1 0 0c-46,18 -91,36 -136,56 126,297 252,595 378,893 -13,10 -26,20 -39,29 -18,12 -37,22 -57,31 -32,14 -83,34 -119,23 -32,-11 -53,-41 -67,-71 -122,-262 -244,-523 -366,-785 -31,14 -62,29 -92,43l0 0 -2 1 -1 1 -1 0 -2 1 0 0 -2 1 -1 0 0 1 -2 1 -1 0 -1 1 -1 0 -1 1 -2 1 0 0 -2 0 -1 1 -1 0 -2 1 0 0 -2 1 0 1 -2 0 -1 1 -1 0 -1 1 -1 0 0 0 -1 1 -2 0 0 1 -1 0c-48,23 -95,47 -143,71 147,288 294,576 441,864 -12,11 -24,22 -37,32 -17,14 -36,25 -55,35 -31,17 -81,40 -117,31 -33,-7 -56,-36 -72,-65 -50,-90 -101,-180 -151,-271 -88,49 -175,100 -261,152 13,47 13,93 -4,139 -19,48 -56,85 -99,113 -47,30 -104,56 -161,47 -46,-8 -84,-30 -110,-69 -24,-34 -34,-75 -36,-115 14,-9 27,-19 41,-28 20,-14 37,-32 42,-56 5,-25 -4,-50 -18,-70 -50,-76 -100,-152 -150,-228 -10,-16 -24,-29 -43,-30 -18,-1 -35,5 -49,15 -14,9 -26,21 -32,37 -5,15 -4,29 3,43 -10,11 -20,21 -31,29 -30,20 -65,35 -101,32 -35,-3 -60,-21 -80,-48 -16,-22 -25,-46 -27,-72 -1,-27 4,-54 15,-78 12,-29 30,-55 51,-77 25,-27 53,-50 84,-70 74,-50 168,-95 260,-89 82,6 139,50 181,118 55,91 110,182 165,273 86,-52 172,-102 259,-150 -57,-101 -113,-203 -170,-304 -35,20 -70,40 -105,60 -21,12 -47,22 -71,12 -24,-11 -42,-35 -55,-56 -8,-14 -15,-30 -20,-45 -5,-14 -10,-31 -11,-46 172,-101 347,-195 525,-284l0 0 6 -3 2 -1 7 -3 1 -1 8 -3 1 -1 7 -4 1 0c166,-82 335,-158 507,-228l2 -1 10 -4 7 -3 2 -1 9 -4 7 -3 3 -1 9 -4 3 -1c384,-155 779,-281 1181,-379l10 -2 3 -1 3 -1 1 0c197,-47 396,-88 596,-121 63,-10 92,24 101,83 3,17 3,34 2,51 -1,16 -3,34 -9,49 -65,10 -129,21 -193,33zm5614 967c-30,53 -60,105 -91,158 38,0 75,6 111,16 44,13 86,34 125,58 44,27 83,61 115,102 30,37 52,79 65,126 12,46 14,92 6,139 -9,52 -32,100 -62,144 -29,42 -64,80 -108,108 -37,24 -78,42 -122,50 -42,8 -84,7 -125,-2 -42,-8 -81,-24 -117,-46 -74,-46 -128,-109 -77,-196 8,-14 19,-28 31,-38 12,-10 25,-19 38,-26 14,13 29,24 46,34 32,19 66,27 103,21 42,-6 71,-34 93,-68 22,-35 30,-72 17,-112 -13,-43 -46,-74 -83,-96 -26,-16 -55,-28 -85,-31 -26,-3 -53,-2 -78,5 -95,165 -190,330 -285,495 -15,-4 -31,-8 -46,-13 -21,-7 -41,-17 -60,-27 -31,-18 -76,-46 -90,-81 -12,-32 0,-68 15,-97 15,-28 30,-56 45,-85 -36,3 -71,0 -106,-7 -42,-8 -83,-24 -121,-42 -42,-21 -80,-47 -113,-80 -32,-33 -57,-70 -76,-112 -18,-43 -27,-89 -28,-136 -1,-55 13,-108 34,-158 21,-47 49,-91 87,-125 34,-30 73,-53 117,-67 43,-13 87,-16 132,-12 47,5 91,18 134,39 43,21 95,53 116,98 18,35 16,71 -2,106 -15,30 -38,54 -69,68 -7,-6 -15,-13 -22,-19 -11,-9 -25,-17 -37,-23 -35,-18 -73,-25 -112,-16 -41,10 -68,40 -85,77 -18,37 -21,75 -5,114 17,41 50,68 88,88 28,14 59,24 91,26 26,1 53,-2 77,-10 87,-163 173,-327 259,-490 -198,-105 -401,-202 -608,-290l-3 -1 -2 -1 0 0 -3 -2 -3 -1 -3 -1 -2 -1 -10 -4 -2 -1 -3 -1 -3 -1 -2 -1 -1 -1 0 0 -1 0 -1 -1 -1 0c-47,-20 -95,-39 -142,-59 -120,301 -240,601 -360,901 -16,-1 -32,-4 -48,-7 -22,-4 -43,-10 -63,-18 -33,-13 -81,-34 -99,-67 -17,-30 -11,-67 0,-98 15,-41 30,-82 45,-124 -44,7 -90,8 -134,4 -54,-4 -106,-16 -157,-32 -93,-30 -181,-74 -253,-142 -63,-60 -109,-128 -135,-212 -11,-36 -19,-71 -23,-109 -3,-32 -3,-66 5,-97 3,-16 11,-29 24,-39 15,-11 39,-10 57,-7 51,7 105,12 156,13 44,0 88,-2 130,-11 34,-7 67,-20 95,-41 27,-19 44,-46 54,-77 7,-26 9,-54 -5,-79 -13,-22 -32,-36 -57,-43 -23,-7 -48,-7 -70,4 -23,12 -35,34 -42,58 -4,14 -7,30 -6,44 1,11 2,23 6,34 -19,11 -41,16 -62,17 -28,1 -57,-3 -84,-10 -20,-5 -40,-13 -58,-24 -17,-11 -32,-25 -44,-42 -13,-17 -20,-37 -24,-59 -4,-25 -1,-51 5,-76 8,-34 24,-63 47,-89 25,-28 57,-48 92,-61 41,-17 87,-23 132,-24 57,-2 113,8 167,24 56,16 110,39 157,73 39,27 73,61 98,102 22,37 35,77 38,121 4,44 -3,87 -17,129 -16,46 -41,87 -76,120 -35,31 -75,55 -119,73 -47,18 -98,28 -148,32 -56,5 -112,4 -167,-2 8,47 35,86 68,119 43,43 99,70 156,89 48,15 98,24 149,21 43,-2 87,-9 126,-27 70,-193 139,-387 209,-580 6,-19 19,-34 37,-43 5,-2 10,-3 15,-4l-23 -9c-28,-44 -45,-93 -51,-145 -6,-51 -2,-100 14,-148 13,-39 33,-74 62,-102 28,-29 63,-49 101,-61 41,-13 86,-17 130,-15 51,3 103,17 151,36 51,20 132,57 160,107 20,34 25,71 10,108 -13,30 -33,55 -64,67 -13,-11 -27,-21 -41,-29 -16,-10 -33,-18 -50,-25 -40,-16 -81,-20 -123,-7 -43,13 -69,45 -84,86 -14,35 -18,72 -11,110 5,32 13,63 25,92 45,18 91,37 136,55l3 1 5 3 16 6 2 1 3 1 5 2 5 3 4 1c544,228 1063,512 1548,848 52,36 48,81 14,129 -10,14 -22,26 -34,38 -11,12 -25,23 -40,30 -207,-146 -420,-282 -640,-408zm-3700 -1090c-16,323 -33,646 -50,969 -16,3 -32,6 -48,8 -21,4 -44,4 -65,3 -36,-1 -89,-6 -116,-31 -25,-23 -31,-60 -31,-93 2,-107 4,-215 6,-323 -22,4 -43,6 -65,9 -8,1 -56,4 -60,3 -1,0 -8,0 -9,0 -51,0 -102,-6 -151,-16 -52,-10 -102,-27 -148,-53 -24,15 -49,28 -75,38 -28,11 -58,19 -87,25 44,64 99,118 163,162 59,40 122,76 188,103 1,45 -12,87 -40,124 -30,39 -77,53 -125,55 -40,2 -78,-7 -113,-23 -43,-18 -80,-46 -114,-78 -40,-39 -75,-84 -106,-131 -37,-57 -67,-119 -91,-183 -32,-1 -68,-7 -91,-32 -21,-21 -31,-49 -34,-78 -2,-21 -1,-42 5,-62 6,-19 15,-37 27,-53 22,2 44,3 66,2 26,0 53,-2 79,-4 56,-5 120,-18 161,-59 35,-34 49,-76 47,-125 -2,-28 -8,-55 -19,-81 -12,-25 -26,-49 -42,-72 -137,9 -273,21 -409,36 -24,2 -52,1 -69,-18 -18,-19 -25,-48 -28,-73 -2,-16 -2,-33 -1,-49 1,-15 3,-32 9,-47 342,-39 662,-58 1007,-60 30,-9 412,10 542,18l0 0 17 1 5 0 0 0 5 0 4 1 3 0c447,30 890,96 1326,196 62,15 76,58 62,115 -3,17 -10,33 -17,48 -6,15 -14,31 -26,43 -63,-16 -127,-30 -191,-44 -67,317 -134,633 -202,949 -16,1 -33,1 -49,1 -22,0 -43,-3 -64,-7 -35,-7 -88,-20 -111,-50 -20,-26 -20,-64 -14,-96 18,-102 35,-203 53,-305 -107,-19 -215,-36 -323,-50 -41,107 -122,145 -233,133 -55,-6 -116,-21 -154,-64 -31,-36 -46,-77 -43,-124 4,-41 19,-78 45,-111 16,1 31,2 47,4 25,2 49,-2 68,-19 19,-16 28,-40 30,-65 11,-112 22,-225 34,-338 -63,-6 -126,-12 -189,-17l-1 0 -2 0 -10 -1 -2 0 -1 0 -6 0 0 0 -3 0 0 0 -3 -1 -1 0 -2 0 0 0 -1 0 -1 0 -1 0 0 0c-54,-4 -108,-7 -162,-10zm-485 331c7,0 52,-1 56,-3 48,-5 84,-14 129,-32 1,-102 3,-204 4,-306 -15,0 -129,0 -133,-1 -10,-3 -185,2 -209,2 16,30 30,60 41,92 13,34 18,70 19,106 1,46 -8,90 -26,133 40,7 80,9 119,9zm1118 77c106,14 212,31 318,49 20,-114 40,-228 60,-342 -110,-20 -221,-37 -332,-52 -15,115 -31,230 -46,345zm-3447 417c31,-10 60,-24 87,-44 21,-16 43,-35 56,-59 -144,-52 -290,-100 -437,-144 13,39 27,77 40,116 18,50 47,111 99,134 49,22 105,13 155,-3zm106 -249c-24,-82 -48,-165 -73,-247 -118,35 -236,73 -352,113 143,40 285,85 425,134z"/>
    <path class="fil22" d="M8449 1481l164 903 -9 4 -164 -905 9 -2zm-580 127l229 889 -12 7 -230 -893 13 -3zm-1158 389l359 848 -17 13 -361 -853 19 -8zm-537 249l419 821c-6,6 -12,11 -19,17l-422 -827 22 -11zm-265 783c1,15 1,29 -1,44 -2,-13 -5,-26 -8,-38l9 -6zm-412 116c-4,-16 -6,-33 -7,-49 14,-9 27,-19 41,-28 17,-11 31,-26 39,-45 4,14 6,28 3,42 -5,25 -22,43 -42,56l-34 24zm-450 -409c-1,-5 -1,-11 -2,-16 -1,-27 4,-54 15,-78 12,-29 30,-55 51,-77 25,-27 53,-50 84,-70 74,-50 168,-95 260,-89 82,6 139,50 181,118 55,91 110,182 165,273 78,-47 157,-93 236,-137l23 40c-87,49 -173,99 -259,150 -55,-91 -110,-182 -165,-273 -42,-68 -99,-112 -181,-117 -92,-7 -186,38 -260,88 -31,20 -59,43 -84,70 -21,23 -39,48 -51,77 -6,13 -10,27 -13,41zm592 -421l0 -1c-5,-14 -10,-31 -11,-46 172,-101 347,-195 525,-284l0 0 6 -3 2 -1 7 -3 1 -1 8 -3 1 -1 7 -4 1 0c166,-82 335,-158 507,-228l2 -1 10 -4 7 -3 2 -1 9 -4 7 -3 3 -1 9 -4 3 -1c384,-155 779,-281 1181,-379l10 -2 3 -1 3 -1 1 0c197,-47 396,-88 596,-121 63,-10 92,24 101,83 3,17 3,34 2,51l-1 9 -1 -7c-9,-59 -38,-93 -101,-83 -200,34 -399,74 -596,121l-1 0 -3 1 -3 1 -10 2c-402,98 -797,225 -1181,380l-3 1 -9 4 -3 1 -7 2 -9 4 -2 1 -7 3 -10 4 -2 1c-172,70 -341,147 -507,228l-1 0 -7 4 -1 1 -8 3 -1 1 -7 3 -2 2 -6 3 0 0c-174,86 -346,178 -514,277zm8354 241c27,2 54,8 81,15 44,13 86,34 125,58 44,27 83,61 115,102 30,37 52,79 65,126 9,35 12,72 9,108 -1,-19 -4,-37 -9,-55 -13,-47 -35,-89 -65,-126 -32,-41 -71,-74 -115,-101 -39,-24 -81,-46 -125,-58 -36,-11 -73,-17 -111,-17l30 -52zm-236 590c-7,-27 -3,-58 17,-92 8,-14 19,-28 31,-38 12,-10 25,-19 38,-26 14,13 29,24 46,34 32,19 66,27 103,21 42,-6 71,-34 93,-68 10,-16 17,-32 20,-48 8,36 0,70 -20,101 -22,34 -51,62 -93,69 -37,5 -71,-3 -103,-22 -17,-10 -32,-21 -46,-34 -13,7 -26,16 -38,26 -12,11 -23,24 -31,38 -8,14 -13,27 -17,39zm-383 -33c-10,-31 1,-65 16,-93l16 -30c10,0 19,-1 29,-1 -15,28 -30,56 -45,84 -7,13 -12,26 -16,40zm-382 -533c0,-7 -1,-15 -1,-22 -1,-55 13,-108 34,-158 21,-47 49,-91 87,-125 34,-30 73,-53 117,-67 43,-13 87,-16 132,-12 47,5 91,18 134,39 43,21 95,53 116,98 13,26 16,52 9,78 -2,-9 -5,-17 -9,-25 -21,-45 -73,-77 -116,-98 -43,-20 -87,-34 -134,-38 -45,-5 -89,-1 -132,12 -44,13 -83,36 -117,66 -38,35 -66,78 -87,126 -17,40 -29,83 -33,126zm279 36c2,8 4,16 8,24 17,41 50,68 88,88 28,14 59,24 91,26 26,1 53,-2 77,-10l237 -448 22 11c-86,164 -172,327 -259,491 -24,8 -51,10 -77,9 -32,-1 -63,-12 -91,-26 -38,-20 -71,-47 -88,-88 -11,-26 -13,-52 -8,-77zm-844 64c-7,-27 -2,-56 7,-81l25 -68c7,0 13,-1 20,-2 -15,41 -30,82 -45,124 -3,8 -5,17 -7,27zm-651 -707c-2,-28 -1,-58 6,-86 3,-16 11,-29 24,-39 15,-11 39,-10 57,-7 51,7 105,12 156,13 44,0 88,-2 130,-11 34,-7 67,-20 95,-41 27,-19 44,-46 54,-77l2 -10c6,21 4,43 -2,63 -10,32 -27,58 -54,78 -28,21 -61,33 -95,40 -42,9 -86,12 -130,11 -51,-1 -105,-5 -156,-13 -18,-2 -42,-4 -57,7 -13,10 -21,24 -24,39 -3,11 -5,22 -6,33zm345 -242c1,4 1,8 3,12l-5 3c0,-5 1,-10 2,-15zm-269 -105l0 -1c-3,-19 -2,-39 1,-58 8,-10 15,-23 19,-34 7,-16 14,-32 17,-48l2 -9c4,-6 9,-11 13,-16 25,-28 57,-48 92,-61 41,-17 87,-23 132,-24 57,-2 113,8 167,24 56,16 110,39 157,73 39,27 73,61 98,102 22,37 35,77 38,121 2,16 1,32 0,49 -4,-42 -17,-81 -38,-117 -25,-41 -59,-75 -98,-102 -47,-34 -101,-57 -157,-73 -54,-15 -110,-25 -167,-24 -45,1 -91,7 -132,24 -35,13 -67,33 -92,61 -23,26 -39,56 -47,89 -2,8 -4,16 -5,24zm228 476c13,24 30,45 49,64 43,43 99,70 156,89 48,15 98,24 149,21 43,-2 87,-9 126,-27 70,-193 139,-387 209,-580 3,-10 8,-19 15,-26 4,8 9,16 14,24l23 8c-5,1 -10,2 -15,5 -18,8 -31,23 -37,42 -70,193 -139,387 -209,580 -39,18 -83,26 -126,28 -51,2 -101,-7 -149,-22 -57,-19 -113,-46 -156,-89 -33,-33 -60,-72 -68,-118l19 1zm665 -651c-3,-45 2,-89 16,-131 13,-39 33,-74 62,-102 28,-29 63,-49 101,-61 41,-13 86,-17 130,-15 51,3 103,17 151,36 51,20 132,57 160,107 17,29 23,60 16,91 -4,-13 -9,-26 -16,-38 -28,-50 -109,-87 -160,-107 -48,-19 -100,-32 -151,-35 -44,-3 -89,1 -130,15 -38,12 -73,32 -101,60 -29,29 -49,63 -62,102 -9,25 -14,52 -16,78zm255 135l2 9c5,32 13,63 25,92 45,18 91,37 136,55l3 1 5 3 16 6 2 1 3 1 5 2 5 3 4 1c544,228 1063,512 1548,848 38,26 46,58 34,92 -6,-14 -17,-27 -34,-39 -485,-335 -1004,-620 -1548,-848l-4 -1 -5 -2 -5 -2 -3 -2 -2 -1 -16 -6 -5 -2 -3 -1c-45,-19 -91,-37 -136,-55 -12,-30 -20,-61 -25,-93 -4,-21 -4,-41 -2,-62zm-2955 597c0,-7 -1,-13 -1,-20l5 -270 1 0 -5 290zm-555 -292c37,45 80,84 128,117 59,40 122,76 188,103 1,17 -1,34 -5,51 -64,-26 -126,-61 -183,-101 -64,-44 -119,-98 -163,-162 11,-2 23,-5 35,-8zm-397 -117l-1 -9c-2,-21 -1,-42 5,-62 6,-19 15,-37 27,-53 22,2 44,3 66,2 26,0 53,-2 79,-4 56,-5 120,-18 161,-59 26,-25 40,-55 45,-88 1,5 2,11 2,16 2,49 -12,91 -47,126 -41,40 -105,54 -161,58 -26,2 -53,4 -79,4 -22,1 -44,1 -66,-2 -12,16 -21,34 -27,53 -2,6 -3,12 -4,18zm-183 -520c-2,-16 -2,-32 -1,-47 1,-15 3,-32 9,-47 342,-39 662,-58 1007,-60 30,-9 412,10 542,18l0 0 17 1 5 0 0 0 5 0 4 1 3 0c447,30 890,96 1326,196 59,14 75,54 64,107 -7,-26 -27,-45 -64,-53 -436,-101 -879,-166 -1326,-197l-3 0 -4 0 -5 -1 0 0 -5 0 -17 -1 0 0c-130,-8 -512,-27 -542,-17 -345,1 -665,20 -1007,60 -5,12 -7,26 -8,40zm2304 1081c-4,-20 -3,-41 1,-60l44 -254 9 2c-18,102 -35,204 -53,305l-1 7zm-697 -430c-2,-13 -3,-26 -2,-40 4,-41 19,-78 45,-111 16,1 31,2 47,4 25,2 49,-2 68,-19 19,-16 28,-40 30,-65l28 -285 6 0c-12,113 -23,226 -34,339 -2,24 -11,48 -30,65 -19,16 -43,20 -68,18 -16,-1 -31,-3 -47,-4 -23,29 -38,62 -43,98zm-648 -267c7,0 52,-1 56,-3 48,-5 84,-14 129,-32l4 -253 0 0c-1,102 -3,204 -4,307 -45,18 -81,26 -129,31 -4,2 -49,3 -56,3 -39,1 -79,-2 -119,-9 7,-17 13,-34 17,-51 34,5 68,7 102,7zm-127 -287c6,13 11,26 15,39 13,34 18,70 19,106 0,11 0,22 -1,32 -2,-29 -8,-58 -18,-85 -11,-32 -25,-62 -41,-91l26 -1zm1252 365c104,14 207,30 311,48l51 -290 9 1c-20,114 -40,228 -60,343 -106,-19 -212,-36 -318,-50l7 -52zm-3454 416c31,-10 60,-24 87,-44 7,-6 15,-12 22,-18l34 12c-13,24 -35,43 -56,59 -27,20 -56,34 -87,44 -50,16 -106,25 -155,3 -52,-23 -81,-83 -99,-134 -13,-38 -27,-77 -40,-115l21 6 19 56c18,50 47,111 99,134 49,22 105,13 155,-3zm-235 -358c109,32 217,66 324,103l17 59c-140,-49 -282,-93 -425,-134 28,-9 56,-19 84,-28z"/>
   </g>
   <path class="fil23" d="M8802 3559c36,202 72,404 108,606 -7,4 -15,7 -23,10 -11,4 -22,7 -33,9 -19,4 -46,7 -63,-2 -16,-9 -23,-26 -27,-43 -14,-70 -28,-140 -43,-210 -72,15 -144,31 -216,48 0,29 -7,56 -25,79 -18,24 -46,38 -75,46 -30,8 -66,12 -95,-2 -23,-12 -39,-30 -46,-55 -6,-22 -4,-44 1,-65 12,-3 24,-6 36,-10 14,-3 27,-10 34,-23 8,-12 8,-27 4,-41 -17,-64 -35,-128 -52,-193 -3,-12 -10,-24 -23,-28 -11,-5 -24,-5 -36,-1 -24,7 -43,20 -38,48 -8,4 -16,8 -25,11 -18,5 -39,7 -57,1 -17,-7 -27,-20 -33,-38 -9,-32 0,-59 23,-83 28,-28 65,-45 103,-55 48,-14 103,-20 151,-3 45,15 69,49 80,94 17,71 34,142 51,213 72,-18 144,-34 217,-49 -16,-78 -32,-157 -48,-236 -34,7 -69,14 -103,22 -33,7 -51,-9 -58,-40 -2,-9 -2,-17 -3,-25 0,-9 0,-17 3,-25 129,-30 259,-55 390,-76 33,-6 51,10 56,43 1,8 1,17 0,25 0,9 -1,17 -3,25 -44,7 -88,15 -132,23zm358 -54c24,204 49,408 73,612 -8,3 -16,6 -24,8 -11,4 -23,6 -34,8 -19,2 -46,4 -63,-6 -15,-10 -21,-27 -24,-44 -27,-186 -54,-372 -81,-558 -32,5 -65,10 -98,15 -13,2 -28,3 -39,-6 -10,-9 -15,-24 -17,-37 -1,-8 -1,-17 -1,-25 0,-8 1,-17 2,-25 130,-22 260,-39 390,-53 34,-3 50,14 54,46 0,8 0,17 -1,26 -1,8 -3,17 -5,25 -44,4 -88,9 -132,14zm361 -33c13,205 25,410 38,616 -8,2 -16,4 -25,6 -11,3 -23,5 -34,6 -19,1 -47,1 -63,-10 -14,-10 -20,-28 -21,-45 -16,-187 -33,-374 -49,-561 -33,3 -66,6 -99,9 -13,1 -28,1 -38,-9 -10,-9 -14,-25 -15,-38 -1,-8 -1,-17 0,-25 0,-8 1,-16 4,-24 45,-5 90,-9 135,-13 -9,-12 -15,-26 -20,-40 -6,-16 -9,-33 -11,-51 -3,-31 2,-61 16,-90 14,-30 37,-55 64,-75 34,-25 75,-42 115,-54 53,-15 109,-22 164,-24 74,-2 150,3 223,19 2,1 8,3 10,3 35,3 131,39 165,55 40,18 81,40 114,68 13,12 40,36 39,56 -1,19 -12,32 -28,41 -20,11 -44,14 -66,13 -26,-24 -54,-44 -84,-62 -34,-20 -70,-35 -106,-48 -10,-3 -27,-7 -34,-10 -16,-7 -70,-16 -89,-19 -43,-6 -87,-9 -131,-7 -52,2 -116,11 -160,42 -33,25 -51,57 -48,98 1,14 3,27 7,40 4,12 9,23 16,33 34,-2 68,-4 101,-6 34,-1 50,16 51,49 0,9 -1,17 -2,26 -2,8 -4,17 -7,24 -44,2 -88,4 -132,7zm766 -1c-12,205 -24,410 -36,615 -8,2 -17,3 -25,4 -11,2 -23,2 -34,1 -19,-1 -47,-4 -62,-17 -14,-12 -17,-30 -16,-47 2,-58 4,-116 6,-174 -23,12 -47,20 -72,26 -28,6 -58,9 -87,9 -10,0 -38,-1 -46,-3 -55,-8 -94,-21 -138,-56 -54,-44 -74,-110 -76,-178 -2,-62 -4,-125 -7,-187 -23,1 -47,2 -71,3 -13,0 -29,-1 -38,-11 -9,-10 -12,-26 -13,-39 0,-8 1,-17 2,-25 1,-8 2,-17 5,-24 113,-6 223,-9 336,-9 160,1 315,6 475,18 34,2 47,22 44,54 -1,9 -2,17 -5,25 -2,9 -5,17 -9,24 -45,-3 -89,-6 -133,-9zm-292 307c24,0 49,-3 72,-10 19,-6 39,-15 55,-28 -68,-52 -137,-103 -207,-152 -12,-12 -51,-36 -67,-47 1,34 1,67 1,100 1,37 7,82 38,107 6,4 21,14 28,16 27,11 51,13 80,14zm132 -125c2,-63 4,-126 6,-189 -73,-3 -145,-4 -218,-4 -12,-2 -46,0 -60,0 15,10 46,34 60,40 72,50 142,100 212,153zm1154 -44c-44,201 -89,401 -133,602 -8,0 -17,0 -25,0 -11,0 -23,-2 -34,-4 -19,-4 -45,-12 -58,-27 -12,-14 -12,-33 -9,-50 36,-184 72,-368 108,-552 -53,-11 -107,-20 -160,-30 -3,40 -6,80 -11,119 -5,38 -10,76 -17,113 -5,32 -16,64 -34,91 -17,23 -37,43 -62,58 -25,15 -53,23 -82,27 -33,5 -66,5 -99,0 -33,-4 -65,-11 -96,-24 -27,-11 -51,-26 -73,-47 -21,-20 -35,-44 -45,-71 -11,-32 -13,-65 -11,-98 4,-38 8,-76 12,-114 5,-39 11,-79 18,-118 -27,-2 -54,-4 -81,-6 -13,-1 -28,-5 -36,-16 -8,-11 -9,-27 -8,-40 0,-8 2,-16 4,-24 2,-8 5,-16 9,-24 350,25 698,77 1039,158 33,8 43,29 36,61 -2,8 -6,17 -9,24 -3,8 -8,16 -14,22 -43,-10 -86,-20 -129,-30zm-602 237c26,3 52,1 74,-15 22,-16 32,-42 36,-68 11,-79 23,-158 34,-238 -68,-9 -136,-18 -204,-26 -9,80 -18,159 -27,239 -3,26 0,54 19,75 17,20 42,30 68,33zm954 -149c-56,198 -112,396 -168,594 -8,-1 -17,-1 -25,-2 -12,-1 -23,-3 -34,-6 -19,-5 -45,-14 -56,-30 -11,-15 -10,-33 -6,-50 47,-182 93,-364 140,-546 -32,-8 -65,-16 -97,-24 -12,-3 -27,-8 -33,-20 -6,-13 -5,-29 -2,-41 2,-8 5,-16 9,-24 3,-7 7,-15 12,-22 45,11 91,22 136,34 3,-12 6,-23 8,-34 11,-40 19,-94 2,-134 -15,-33 -42,-52 -77,-60 -26,-6 -52,-5 -76,7 -26,12 -39,37 -45,64 -2,11 -5,21 -7,32 -7,1 -14,1 -21,1 -17,1 -30,-1 -47,-4 -22,-5 -44,-13 -62,-28 -18,-15 -21,-38 -16,-60 4,-25 15,-47 32,-66 17,-21 39,-35 64,-46 28,-12 59,-18 90,-19 37,-2 75,3 111,11 74,18 143,53 186,118 45,67 38,149 17,223 -3,12 -6,23 -9,35 31,9 63,18 94,27 33,10 42,32 32,63 -2,8 -6,16 -11,24 -4,7 -8,14 -14,21 -42,-13 -85,-26 -127,-38z"/>
  </g>
 </g>
</svg>
