<svg width="107" height="103" viewBox="0 0 107 103" fill="none" xmlns="http://www.w3.org/2000/svg">
<path fill-rule="evenodd" clip-rule="evenodd" d="M31.1241 30.1239C36.3472 30.1676 40.8241 33.2695 42.7114 38.1188C44.5549 42.8808 43.4137 48.036 39.4196 51.4437C36.7422 53.7155 35.601 56.5552 35.2499 59.9191C34.8549 63.3268 31.958 65.9918 28.6662 66.0355C25.1988 66.0792 22.258 63.6326 21.6875 60.1376C21.6436 59.8318 21.5119 59.4386 21.6436 59.1764C21.8191 58.8269 22.2142 58.3027 22.4775 58.3027C22.8725 58.3027 23.3553 58.6522 23.5748 59.0017C23.7942 59.3075 23.7065 59.7881 23.7942 60.1813C24.277 62.453 26.3838 64.1132 28.6223 63.9821C31.0363 63.8948 32.9675 62.0599 33.2748 59.7007C33.3626 58.6959 33.5381 57.7347 33.7576 56.7299C34.2843 54.1523 35.6888 52.0553 37.7078 50.3515C39.7707 48.6913 40.9119 46.5506 41.3508 43.9293C42.2725 38.5994 38.2345 33.051 32.8359 32.3083C29.1929 31.8278 26.0766 32.7889 23.5309 35.5412C23.092 36.0218 22.6531 36.415 22.0386 35.8034C21.468 35.2791 21.5558 34.7112 22.0386 34.1432C23.9698 31.653 27.525 30.0802 31.1241 30.1239Z" fill="#F58B71"/>
<path fill-rule="evenodd" clip-rule="evenodd" d="M31.1241 30.1239C36.3472 30.1676 40.8241 33.2695 42.7114 38.1188C44.5549 42.8808 43.4137 48.036 39.4196 51.4437C36.7422 53.7155 35.601 56.5552 35.2499 59.9191C34.8549 63.3268 31.958 65.9918 28.6662 66.0355C25.1988 66.0792 22.258 63.6326 21.6875 60.1376C21.6436 59.8318 21.5119 59.4386 21.6436 59.1764C21.8191 58.8269 22.2142 58.3027 22.4775 58.3027C22.8725 58.3027 23.3553 58.6522 23.5748 59.0017C23.7942 59.3075 23.7065 59.7881 23.7942 60.1813C24.277 62.453 26.3838 64.1132 28.6223 63.9821C31.0363 63.8948 32.9675 62.0599 33.2748 59.7007C33.3626 58.6959 33.5381 57.7347 33.7576 56.7299C34.2843 54.1523 35.6888 52.0553 37.7078 50.3515C39.7707 48.6913 40.9119 46.5506 41.3508 43.9293C42.2725 38.5994 38.2345 33.051 32.8359 32.3083C29.1929 31.8278 26.0766 32.7889 23.5309 35.5412C23.092 36.0218 22.6531 36.415 22.0386 35.8034C21.468 35.2791 21.5558 34.7112 22.0386 34.1432C23.9698 31.653 27.525 30.0802 31.1241 30.1239Z" stroke="#F58B71" stroke-width="0.0135276"/>
<path fill-rule="evenodd" clip-rule="evenodd" d="M31.0249 49.8014C31.0249 48.4034 31.2882 47.8791 32.0344 47.9228C33.3072 48.0102 33 49.015 33.0878 49.7577C33.3511 52.8596 31.3321 55.6993 28.567 56.3109C27.0747 56.573 25.8018 56.2672 24.8362 55.175C23.8267 53.9518 23.5634 52.5537 24.2217 51.1557C24.6168 50.282 25.2312 49.4956 25.8896 48.8403C26.9869 47.7044 27.0747 47.4422 26.1529 46.1316C25.9774 45.8258 25.7579 45.52 25.5385 45.2578C23.6073 43.0298 24.1778 40.6269 25.5385 38.661C27.7769 35.3407 32.605 34.729 35.6773 37.3066C38.662 39.8405 38.8814 44.6462 36.0285 47.4422C35.7651 47.7044 35.414 48.0102 35.0629 48.0102C34.7556 48.0539 34.185 47.7481 34.1412 47.4422C34.0095 47.0927 34.1412 46.5248 34.4045 46.2627C35.414 45.1705 36.0724 43.9472 36.0724 42.4181C36.0285 40.1027 34.185 38.0493 31.8149 37.7435C29.7081 37.4814 27.1624 39.0978 26.548 41.0638C26.2407 42.0249 26.4163 42.855 26.9869 43.6414C27.4697 44.3841 27.9964 45.0831 28.4353 45.8695C29.1375 47.1364 29.0059 48.3597 28.0403 49.4519C27.5575 49.9762 27.0747 50.4567 26.5919 51.0247C25.8457 51.8547 25.7579 53.0343 26.3285 53.7333C26.8991 54.4323 28.0403 54.5197 29.0937 53.9081C30.3226 53.2091 31.0688 51.68 31.0249 49.8014Z" fill="#F58B71"/>
<path fill-rule="evenodd" clip-rule="evenodd" d="M31.0249 49.8014C31.0249 48.4034 31.2882 47.8791 32.0344 47.9228C33.3072 48.0102 33 49.015 33.0878 49.7577C33.3511 52.8596 31.3321 55.6993 28.567 56.3109C27.0747 56.573 25.8018 56.2672 24.8362 55.175C23.8267 53.9518 23.5634 52.5537 24.2217 51.1557C24.6168 50.282 25.2312 49.4956 25.8896 48.8403C26.9869 47.7044 27.0747 47.4422 26.1529 46.1316C25.9774 45.8258 25.7579 45.52 25.5385 45.2578C23.6073 43.0298 24.1778 40.6269 25.5385 38.661C27.7769 35.3407 32.605 34.729 35.6773 37.3066C38.662 39.8405 38.8814 44.6462 36.0285 47.4422C35.7651 47.7044 35.414 48.0102 35.0629 48.0102C34.7556 48.0539 34.185 47.7481 34.1412 47.4422C34.0095 47.0927 34.1412 46.5248 34.4045 46.2627C35.414 45.1705 36.0724 43.9472 36.0724 42.4181C36.0285 40.1027 34.185 38.0493 31.8149 37.7435C29.7081 37.4814 27.1624 39.0978 26.548 41.0638C26.2407 42.0249 26.4163 42.855 26.9869 43.6414C27.4697 44.3841 27.9964 45.0831 28.4353 45.8695C29.1375 47.1364 29.0059 48.3597 28.0403 49.4519C27.5575 49.9762 27.0747 50.4567 26.5919 51.0247C25.8457 51.8547 25.7579 53.0343 26.3285 53.7333C26.8991 54.4323 28.0403 54.5197 29.0937 53.9081C30.3226 53.2091 31.0688 51.68 31.0249 49.8014Z" stroke="#F58B71" stroke-width="0.0135276"/>
<path fill-rule="evenodd" clip-rule="evenodd" d="M53.4625 53.4153C53.4625 59.1821 49.5561 64.1188 43.8941 65.2984C42.9285 65.5169 41.8751 65.5169 40.8656 65.3858C40.5145 65.3421 40.0317 64.7305 39.9439 64.3373C39.8561 63.7257 40.3389 63.4635 40.9973 63.4635C48.7222 63.2451 53.1991 56.823 50.7851 49.396C50.5656 48.6533 50.2145 47.9543 49.9073 47.2553C49.6439 46.6 49.7317 46.0757 50.3901 45.7262C51.0923 45.4204 51.5312 45.7699 51.7946 46.4252C52.848 48.6096 53.5064 50.9251 53.4625 53.4153Z" fill="#F58B71"/>
<path fill-rule="evenodd" clip-rule="evenodd" d="M53.4625 53.4153C53.4625 59.1821 49.5561 64.1188 43.8941 65.2984C42.9285 65.5169 41.8751 65.5169 40.8656 65.3858C40.5145 65.3421 40.0317 64.7305 39.9439 64.3373C39.8561 63.7257 40.3389 63.4635 40.9973 63.4635C48.7222 63.2451 53.1991 56.823 50.7851 49.396C50.5656 48.6533 50.2145 47.9543 49.9073 47.2553C49.6439 46.6 49.7317 46.0757 50.3901 45.7262C51.0923 45.4204 51.5312 45.7699 51.7946 46.4252C52.848 48.6096 53.5064 50.9251 53.4625 53.4153Z" stroke="#F58B71" stroke-width="0.0135276"/>
<path fill-rule="evenodd" clip-rule="evenodd" d="M49.3353 52.9237C49.2475 57.6857 45.2534 61.4429 40.6009 61.0497C39.8987 61.006 39.5037 60.6128 39.5037 60.0012C39.5037 59.3895 39.8987 59.04 40.557 59.04C41.2593 58.9963 42.0055 58.9527 42.7077 58.7342C46.1751 57.8605 47.843 54.5839 46.7896 50.8704C46.6579 50.4335 46.4823 50.0403 46.3068 49.6034C46.0873 48.9044 46.219 48.3365 46.9651 48.0307C47.7113 47.7685 48.0624 48.2928 48.238 48.817C48.633 50.1714 48.9402 51.5694 49.3353 52.9237Z" fill="#F58B71"/>
<path fill-rule="evenodd" clip-rule="evenodd" d="M49.3353 52.9237C49.2475 57.6857 45.2534 61.4429 40.6009 61.0497C39.8987 61.006 39.5037 60.6128 39.5037 60.0012C39.5037 59.3895 39.8987 59.04 40.557 59.04C41.2593 58.9963 42.0055 58.9527 42.7077 58.7342C46.1751 57.8605 47.843 54.5839 46.7896 50.8704C46.6579 50.4335 46.4823 50.0403 46.3068 49.6034C46.0873 48.9044 46.219 48.3365 46.9651 48.0307C47.7113 47.7685 48.0624 48.2928 48.238 48.817C48.633 50.1714 48.9402 51.5694 49.3353 52.9237Z" stroke="#F58B71" stroke-width="0.0135276"/>
<path fill-rule="evenodd" clip-rule="evenodd" d="M44.639 53.0839C44.5073 55.2246 42.7955 56.8848 40.7765 56.8848C40.0304 56.8848 39.5476 56.5353 39.5037 55.7926C39.5037 55.0936 39.9865 54.8751 40.6448 54.8314C42.3566 54.6567 42.9272 53.6955 42.1372 52.1665C41.8299 51.5111 41.8299 51.0306 42.5322 50.6811C43.1906 50.2879 43.7173 50.6374 43.9806 51.249C44.2878 51.817 44.4195 52.4723 44.639 53.0839Z" fill="#F58B71"/>
<path fill-rule="evenodd" clip-rule="evenodd" d="M44.639 53.0839C44.5073 55.2246 42.7955 56.8848 40.7765 56.8848C40.0304 56.8848 39.5476 56.5353 39.5037 55.7926C39.5037 55.0936 39.9865 54.8751 40.6448 54.8314C42.3566 54.6567 42.9272 53.6955 42.1372 52.1665C41.8299 51.5111 41.8299 51.0306 42.5322 50.6811C43.1906 50.2879 43.7173 50.6374 43.9806 51.249C44.2878 51.817 44.4195 52.4723 44.639 53.0839Z" stroke="#F58B71" stroke-width="0.0135276"/>
<path fill-rule="evenodd" clip-rule="evenodd" d="M39.219 90.8191C45.011 93.0212 51.3467 94.235 57.9847 94.235C66.1923 94.235 73.9611 92.3564 80.8081 89.0798C72.4249 95.3708 62.0227 99.128 50.7426 99.128C44.3125 99.128 38.1676 97.9164 32.5256 95.7105L39.219 90.8191ZM25.1945 82.7322C14.7864 74.2247 8.21198 61.74 8.21198 47.8383C8.21198 22.2372 30.5087 1.4417 57.9847 1.4417C60.0037 1.4417 62.0227 1.57277 63.9978 1.79121C59.7842 0.611632 55.3073 0 50.7426 0C23.2228 0 0.926025 22.1935 0.926025 49.5858C0.926025 67.0349 10.0024 82.3855 23.7209 91.2123L25.1945 82.7322Z" fill="#F47D5C"/>
<path d="M29.2478 79.6172L22.313 102.073L40.6595 85.1219L29.2478 79.6172Z" fill="#377044"/>
<path fill-rule="evenodd" clip-rule="evenodd" d="M16.5859 48.6537C16.5859 69.755 33.7474 86.837 54.9468 86.837C68.3044 86.837 80.0872 80.027 86.9587 69.6952H91.9072C84.5609 82.4461 70.7475 91.031 54.9468 91.031C31.4211 91.031 12.3723 72.0705 12.3723 48.6537C12.3723 25.2369 31.4211 6.27637 54.9468 6.27637C71.27 6.27637 85.4722 15.4385 92.6146 28.8906H87.7728C81.0434 17.8458 68.8479 10.4704 54.9468 10.4704C33.7474 10.4704 16.5859 27.5524 16.5859 48.6537Z" fill="#377044"/>
<path d="M68.9317 34.5342C68.7561 34.4031 68.5367 34.3594 68.2733 34.272C68.01 34.2283 67.7027 34.1847 67.3955 34.1847C66.781 34.1847 66.2982 34.3157 65.9032 34.5778C65.5521 34.7963 65.3326 35.1458 65.3326 35.5827C65.6399 35.7137 65.9471 35.8885 66.1665 36.1069C66.386 36.3254 66.5177 36.5875 66.5177 36.8496C66.5177 37.1554 66.4299 37.3739 66.2982 37.5923C66.1665 37.8108 65.991 37.9855 65.7715 38.1166C65.5082 37.9418 65.157 37.8108 64.8059 37.6797C64.4109 37.5486 64.0159 37.4613 63.5331 37.4613C62.8308 37.4613 62.2602 37.636 61.8213 37.9418C61.4263 38.2476 61.2068 38.6845 61.2068 39.2088C61.2068 39.4272 61.2068 39.602 61.2946 39.733C61.3824 39.9078 61.4702 40.0388 61.558 40.1262C61.7774 39.9078 62.0847 39.6893 62.4797 39.5146C62.8308 39.3398 63.3136 39.2525 63.8842 39.2525C64.3231 39.2525 64.8059 39.3398 65.2448 39.4709C65.6837 39.6457 66.0349 39.8204 66.386 40.1262C66.6932 40.3883 66.9566 40.7378 67.1322 41.1747C67.3516 41.5679 67.4394 42.0485 67.4394 42.5727C67.4394 43.1407 67.3516 43.6213 67.176 44.0144C66.9566 44.4513 66.7371 44.8008 66.386 45.063C66.0788 45.3251 65.6837 45.5435 65.2448 45.7183C64.8059 45.8493 64.3231 45.893 63.7964 45.893C63.3136 45.893 62.8308 45.8493 62.3919 45.7183C61.953 45.5435 61.6019 45.3251 61.2507 45.063C60.9435 44.8008 60.6801 44.4513 60.5046 44.0581C60.2851 43.6213 60.1973 43.1407 60.1973 42.6164C60.1973 42.5291 60.1973 42.398 60.1973 42.3106C60.1973 42.2232 60.2412 42.0922 60.2412 42.0048C59.8023 41.7427 59.4512 41.3932 59.1439 40.9126C58.8367 40.4757 58.6611 39.8641 58.6611 39.1651C58.6611 38.6408 58.7928 38.1603 58.9684 37.7234C59.1439 37.2865 59.4512 36.8933 59.8023 36.5875C60.1534 36.238 60.5924 35.9759 61.0752 35.8011C61.558 35.5827 62.1285 35.4516 62.743 35.4079C62.743 34.9274 62.8308 34.4905 63.0942 34.0536C63.3136 33.6604 63.6209 33.3109 64.0159 33.0051C64.4109 32.6993 64.8937 32.4808 65.4204 32.3061C65.991 32.1313 66.6055 32.0439 67.2199 32.0439C68.1417 32.0439 68.8878 32.1313 69.5023 32.3498C70.1607 32.5682 70.6435 32.7866 71.0385 33.0925C71.2579 33.2672 71.3896 33.442 71.4774 33.6604C71.5652 33.8352 71.6091 34.0973 71.6091 34.3594V45.5872C71.4774 45.6309 71.3018 45.6746 71.0824 45.6746C70.9068 45.7183 70.6874 45.7183 70.4679 45.7183C70.029 45.7183 69.634 45.6309 69.3267 45.4998C69.0634 45.3251 68.9317 45.0193 68.9317 44.495V34.5342ZM62.5675 42.5727C62.5675 43.0096 62.6991 43.3591 62.9186 43.5776C63.1819 43.796 63.4453 43.9271 63.8403 43.9271C64.1914 43.9271 64.4987 43.796 64.7181 43.5776C64.9376 43.3154 65.0693 43.0096 65.0693 42.5727C65.0693 42.1796 64.9376 41.83 64.6742 41.6116C64.4548 41.3932 64.1475 41.2621 63.8403 41.2621C63.4892 41.2621 63.1819 41.3495 62.9625 41.6116C62.6991 41.83 62.5675 42.1359 62.5675 42.5727Z" fill="#377044"/>
<path d="M71.587 46.4783C71.587 47.0899 71.5431 47.5705 71.4992 47.9637C71.4553 48.3569 71.4114 48.7064 71.3236 49.0559C71.7187 49.2743 72.2015 49.4491 72.6843 49.5801C73.211 49.7112 73.6938 49.7986 74.2205 49.7986C74.396 49.7986 74.5716 49.7986 74.7033 49.7549C74.8349 49.7549 74.9666 49.7112 75.0983 49.7112C75.1861 49.7986 75.23 49.9296 75.2739 50.1481C75.3177 50.3228 75.3616 50.5413 75.3616 50.7597C75.3616 51.1092 75.23 51.415 74.9666 51.6772C74.7033 51.8956 74.2644 52.0267 73.6938 52.0267C72.9915 52.0267 72.3331 51.8956 71.7626 51.6335C71.192 51.415 70.6653 51.1092 70.1825 50.716C69.8752 51.1529 69.3924 51.5024 68.778 51.8082C68.2074 52.114 67.5051 52.2451 66.7151 52.2451C66.2323 52.2451 65.7934 52.2014 65.3544 52.0704C64.9594 51.9393 64.6083 51.7645 64.3011 51.5461C63.9938 51.3277 63.7744 51.0218 63.5988 50.6723C63.4232 50.3228 63.3354 49.9296 63.3354 49.5365C63.3354 48.7064 63.5988 48.0511 64.1694 47.5705C64.6961 47.0899 65.4861 46.8715 66.4078 46.8715C67.2418 46.8715 68.0757 47.0899 68.9096 47.5705V44.1191H71.587V46.4783ZM66.8467 50.2791C67.154 50.2791 67.4612 50.2355 67.7246 50.1044C68.0318 49.9733 68.2513 49.7549 68.4268 49.4054C68.1635 49.1869 67.9001 49.0122 67.6368 48.9248C67.3734 48.8374 67.0662 48.7501 66.8029 48.7501C66.4956 48.7501 66.2762 48.8374 66.1006 48.9685C65.9689 49.0996 65.8811 49.318 65.8811 49.5365C65.8811 49.7549 65.9689 49.9296 66.1445 50.0607C66.32 50.1918 66.5834 50.2791 66.8467 50.2791Z" fill="#377044"/>
<path d="M80.599 35.9358C80.994 36.0669 81.3012 36.2416 81.5207 36.4601C81.6963 36.6785 81.8279 36.9406 81.8279 37.1591C81.8279 37.4649 81.7402 37.727 81.6085 37.9018C81.4768 38.1202 81.3012 38.2513 81.1257 38.3824C80.8623 38.2513 80.5551 38.1639 80.204 38.0328C79.8528 37.9018 79.5017 37.8581 79.0628 37.8581C78.8433 37.8581 78.58 37.8581 78.3605 37.9018C78.0972 37.9455 77.8777 38.0328 77.6144 38.1639C77.3949 38.2513 77.1755 38.426 76.956 38.6008C76.7805 38.7755 76.6049 38.994 76.4732 39.2561C76.6488 39.2561 76.8243 39.2124 76.9999 39.2124C77.1755 39.2124 77.351 39.2124 77.5266 39.2124C78.2728 39.2124 78.975 39.2998 79.5456 39.4746C80.1162 39.6493 80.599 39.8677 81.0379 40.2172C81.4329 40.5231 81.7402 40.8726 81.9596 41.3094C82.1352 41.7463 82.2669 42.2269 82.2669 42.7511C82.2669 43.188 82.1791 43.5812 82.0035 43.9744C81.8279 44.3676 81.6085 44.7171 81.3012 44.9792C80.9501 45.2851 80.5551 45.5035 80.1162 45.6346C79.6334 45.8093 79.1067 45.8967 78.4922 45.8967C77.8338 45.8967 77.1755 45.8093 76.6049 45.5909C75.9904 45.3724 75.5076 45.0666 75.0687 44.6297C74.6298 44.1929 74.2787 43.6686 74.0153 43.057C73.7959 42.4453 73.6642 41.7026 73.6642 40.8726C73.6642 40.0862 73.7959 39.3435 74.0153 38.7319C74.2787 38.1202 74.6298 37.596 75.0248 37.1591C75.4198 36.7659 75.9026 36.4164 76.4293 36.198C76.956 35.9358 77.4827 35.8048 78.0094 35.7611V35.5426C78.0094 35.0184 78.0972 34.4941 78.3605 34.1009C78.58 33.664 78.9311 33.2709 79.3261 32.965C79.7651 32.6592 80.204 32.4408 80.7746 32.266C81.3012 32.0913 81.9157 32.0039 82.5302 32.0039C83.3641 32.0039 84.0225 32.0913 84.5931 32.266C85.1637 32.4408 85.6465 32.6592 85.9976 32.9214C86.2171 33.0961 86.3487 33.2709 86.4365 33.4456C86.5243 33.664 86.5243 33.8825 86.5243 34.1446V45.5909C86.3926 45.6346 86.2171 45.6782 86.0415 45.6782C85.822 45.7219 85.6026 45.7219 85.427 45.7219C85.1637 45.7219 84.9442 45.7219 84.7686 45.6782C84.5931 45.6346 84.4175 45.5909 84.2858 45.5035C84.1542 45.4161 84.0225 45.2851 83.9786 45.1103C83.8908 44.9355 83.8469 44.7171 83.8469 44.4987V34.4067C83.7153 34.3631 83.4958 34.2757 83.2763 34.232C83.1008 34.1883 82.8374 34.1446 82.5741 34.1446C82.0035 34.1446 81.5646 34.3194 81.1696 34.6252C80.7746 34.931 80.599 35.3242 80.599 35.8484V35.9358ZM77.2194 41.2658C77.0877 41.2658 76.956 41.2658 76.7805 41.2658C76.6049 41.3094 76.3854 41.3531 76.166 41.3531C76.2538 42.1832 76.4732 42.7948 76.956 43.188C77.3949 43.5812 77.8777 43.756 78.4483 43.756C78.8433 43.756 79.1506 43.6686 79.37 43.4938C79.5895 43.3191 79.7212 43.057 79.7212 42.7511C79.7212 42.5327 79.6773 42.358 79.5895 42.1832C79.5017 42.0085 79.3261 41.8337 79.1506 41.7026C78.975 41.5716 78.7117 41.4842 78.4044 41.3968C78.0972 41.3094 77.7022 41.2658 77.2194 41.2658Z" fill="#377044"/>
<path d="M72.2246 60.6217C72.2246 60.4906 72.2246 60.3595 72.2685 60.1848C72.2685 60.0537 72.2685 59.9226 72.3124 59.7916C72.0929 59.6168 71.8735 59.3547 71.6979 59.0052C71.5224 58.6557 71.4346 58.1751 71.4346 57.6509C71.4346 57.0392 71.5662 56.4713 71.8296 55.947C72.049 55.4665 72.4002 55.0296 72.883 54.6801C73.3219 54.3306 73.8925 54.0685 74.507 53.85C75.1214 53.6753 75.8237 53.5879 76.5699 53.5879C77.4038 53.5879 78.1499 53.719 78.8522 53.9374C79.5983 54.1995 80.2128 54.549 80.7395 54.9859C81.2662 55.4228 81.6612 55.9907 81.9685 56.646C82.2757 57.2577 82.4074 58.0004 82.4074 58.8304C82.4074 59.311 82.3635 59.8353 82.2318 60.3158C82.1002 60.8401 81.9685 61.277 81.749 61.6265L83.2852 62.9808C83.2852 63.2429 83.1974 63.4614 83.0658 63.6361C82.9341 63.7672 82.7146 63.8546 82.4513 63.8546C82.3196 63.8546 82.1879 63.8546 82.0563 63.7672C81.9246 63.7235 81.7929 63.6361 81.6173 63.5051C81.4857 63.374 81.3101 63.1992 81.1345 62.9371C80.959 62.7187 80.7395 62.4129 80.4762 62.0634C80.3884 61.8886 80.3445 61.8012 80.3445 61.6702C80.3445 61.5828 80.3884 61.408 80.4323 61.277C80.564 60.9275 80.6517 60.578 80.7395 60.1848C80.8273 59.7916 80.8712 59.3984 80.8712 59.0052C80.8712 58.3499 80.7395 57.7819 80.5201 57.3014C80.3006 56.7771 79.9934 56.3402 79.6422 55.9907C79.2472 55.6412 78.7644 55.3791 78.2816 55.2043C77.7549 55.0296 77.1843 54.8985 76.6137 54.8985C76.0432 54.8985 75.5165 54.9859 75.0337 55.117C74.5947 55.2917 74.2436 55.4665 73.9364 55.7286C73.6291 55.9907 73.3658 56.2965 73.2341 56.6024C73.0585 56.9519 73.0147 57.3451 73.0147 57.7382C73.0147 57.913 73.0147 58.0441 73.0585 58.2188C73.1024 58.3499 73.1463 58.4809 73.2341 58.612C73.3658 58.4373 73.5414 58.3499 73.7608 58.2625C73.9803 58.1751 74.1997 58.1314 74.4631 58.1314C74.8142 58.1314 75.1653 58.2188 75.3848 58.3499C75.6481 58.5246 75.8676 58.7431 75.9993 58.9615C76.1748 58.7431 76.3943 58.5246 76.6576 58.3936C76.921 58.2188 77.2721 58.1314 77.6232 58.1314C78.2377 58.1314 78.7205 58.3499 79.1155 58.7868C79.5106 59.1799 79.6861 59.7916 79.6861 60.578C79.6861 61.0148 79.6422 61.408 79.5106 61.7139C79.4228 62.0634 79.2472 62.3255 79.0717 62.5002C78.8961 62.7187 78.6766 62.8497 78.4133 62.9371C78.1499 63.0245 77.8866 63.0682 77.5794 63.0682C77.1843 63.0682 76.8332 63.0245 76.5699 62.8497C76.3065 62.675 76.1309 62.5002 75.9993 62.2818C75.9115 62.4565 75.692 62.6313 75.4287 62.806C75.1653 62.9808 74.8142 63.0682 74.3314 63.0682C74.0242 63.0682 73.7608 63.0245 73.4975 62.9371C73.2341 62.8497 73.0147 62.675 72.8391 62.5002C72.6635 62.2818 72.488 62.0197 72.4002 61.7139C72.2685 61.408 72.2246 61.0585 72.2246 60.6217ZM76.5699 60.9712C76.6137 61.2333 76.7015 61.4954 76.8771 61.6265C77.0088 61.8012 77.1843 61.8886 77.4477 61.8886C77.6671 61.8886 77.8866 61.8012 78.0622 61.5828C78.1938 61.3643 78.2816 61.0585 78.2816 60.578C78.2816 60.1411 78.1938 59.8353 78.0622 59.6168C77.8866 59.4421 77.711 59.3547 77.4477 59.3547C77.2282 59.3547 77.0527 59.4421 76.8771 59.6168C76.7454 59.7916 76.6576 60.0974 76.6137 60.578L76.5699 60.9712ZM75.297 60.2285C75.2531 59.9226 75.1653 59.7042 74.9898 59.5731C74.8581 59.3984 74.6825 59.3547 74.4631 59.3547C74.2436 59.3547 74.0242 59.4421 73.8486 59.6168C73.673 59.8353 73.5852 60.1411 73.5852 60.6217C73.5852 61.1022 73.673 61.408 73.8486 61.6265C74.0242 61.8012 74.2436 61.8886 74.4631 61.8886C74.6825 61.8886 74.8581 61.8012 75.0337 61.6265C75.1653 61.4517 75.2531 61.1459 75.297 60.709V60.2285Z" fill="#373435"/>
<path d="M87.78 63.8997C87.8239 64.1619 87.9117 64.424 87.9995 64.6424C88.1312 64.9046 88.2629 65.0793 88.4823 65.2978C88.6579 65.4725 88.8773 65.6036 89.1407 65.6909C89.404 65.822 89.7113 65.8657 90.0185 65.8657C89.843 65.7346 89.6674 65.5162 89.5357 65.2978C89.3601 65.0356 89.3163 64.7298 89.3163 64.3803C89.3163 63.8997 89.404 63.5502 89.6674 63.2881C89.8868 63.026 90.1941 62.8075 90.5452 62.7202V55.1621C90.4135 55.0748 90.2819 55.0311 90.1063 54.9874C89.9307 54.9437 89.7552 54.9437 89.5357 54.9437C89.3601 54.9437 89.1407 54.9437 88.9651 55.0311C88.7896 55.0748 88.614 55.1621 88.4823 55.2932C88.3067 55.4243 88.219 55.599 88.1312 55.7738C87.9995 55.9485 87.9556 56.167 87.9556 56.3854C88.2629 56.4291 88.4823 56.5602 88.6579 56.6912C88.8334 56.866 88.9212 56.997 88.9212 57.1718C88.9212 57.3029 88.8773 57.4339 88.8334 57.565C88.7457 57.696 88.6579 57.7834 88.5262 57.8708C88.3506 57.7834 88.1312 57.696 87.9117 57.6087C87.6923 57.565 87.4289 57.5213 87.1217 57.5213C86.9461 57.5213 86.7705 57.565 86.595 57.6087C86.3755 57.6524 86.2 57.696 86.0244 57.7834C85.8488 57.9145 85.6733 58.0456 85.5416 58.1766C85.4099 58.3514 85.2782 58.5261 85.2343 58.7446C85.366 58.7446 85.4977 58.7009 85.6733 58.7009C85.8049 58.7009 85.9805 58.6572 86.1122 58.6572C86.6389 58.6572 87.0778 58.7446 87.4728 58.8319C87.8678 58.963 88.1751 59.1378 88.4384 59.3562C88.7457 59.5746 88.9212 59.7931 89.0529 60.0989C89.2285 60.361 89.2724 60.7105 89.2724 61.06C89.2724 61.3658 89.2285 61.628 89.0968 61.8901C89.009 62.1522 88.8334 62.3707 88.6579 62.5454C88.4384 62.7639 88.1751 62.8949 87.8678 62.9823C87.5606 63.0697 87.2095 63.157 86.8144 63.157C86.3755 63.157 85.9805 63.0697 85.5855 62.9386C85.1904 62.8075 84.8393 62.5891 84.576 62.2833C84.2687 62.0212 84.0493 61.6717 83.8737 61.2348C83.6981 60.7979 83.6104 60.3173 83.6104 59.7494C83.6104 59.2251 83.6981 58.7009 83.8737 58.3077C84.0493 57.8708 84.2687 57.5213 84.5321 57.2592C84.7954 56.9534 85.1027 56.7349 85.4538 56.6039C85.8049 56.4291 86.1561 56.3417 86.5072 56.298V56.167C86.5072 55.7738 86.595 55.4243 86.7267 55.1185C86.9022 54.8126 87.1217 54.5505 87.385 54.3321C87.6923 54.1136 87.9995 53.9826 88.3506 53.8515C88.7457 53.7641 89.1407 53.6768 89.5357 53.6768C90.0624 53.6768 90.5013 53.7641 90.8525 53.8515C91.2475 53.9826 91.5108 54.1136 91.7303 54.2447C91.862 54.3321 91.9497 54.4631 91.9936 54.5942C92.0375 54.7253 92.0814 54.9 92.0814 55.0311V62.7639C92.3887 62.8949 92.652 63.1134 92.8715 63.3755C93.0909 63.6813 93.1787 64.0308 93.1787 64.4677C93.1787 64.8172 93.0909 65.1667 92.9593 65.4288C92.8276 65.7346 92.6081 65.9968 92.3448 66.2152C92.0814 66.4336 91.7742 66.6084 91.3792 66.7395C90.9841 66.8268 90.5452 66.9142 90.0624 66.9142C89.4918 66.9142 88.9651 66.8268 88.5701 66.6958C88.1312 66.521 87.78 66.3463 87.4728 66.1278C87.2095 65.8657 86.99 65.6036 86.8583 65.3414C86.7267 65.0356 86.6389 64.7735 86.6389 64.5114C86.6389 64.2492 86.7267 64.0745 86.8583 63.9871C86.99 63.8561 87.1656 63.8124 87.3411 63.8124C87.4289 63.8124 87.5167 63.8124 87.6045 63.8561C87.6923 63.8561 87.7362 63.8997 87.78 63.8997ZM85.9366 59.8804C85.6733 59.8804 85.4099 59.9241 85.0588 60.0115C85.0588 60.3173 85.1027 60.5795 85.2343 60.8416C85.3221 61.06 85.4538 61.2785 85.5855 61.4095C85.761 61.5843 85.9366 61.7153 86.1561 61.759C86.3755 61.8464 86.5511 61.8901 86.7705 61.8901C87.1217 61.8901 87.385 61.8027 87.5606 61.6717C87.7362 61.4969 87.8239 61.3221 87.8239 61.0163C87.8239 60.8853 87.78 60.7542 87.7362 60.6231C87.6484 60.4921 87.5606 60.361 87.385 60.23C87.2534 60.1426 87.0339 60.0552 86.8144 59.9678C86.595 59.9241 86.2877 59.8804 85.9366 59.8804ZM90.5452 64.424C90.5452 64.6861 90.5891 64.9046 90.7208 65.123C90.8525 65.2978 91.028 65.4288 91.2036 65.5599C91.3792 65.4725 91.5547 65.3414 91.6864 65.1667C91.8181 64.9482 91.9059 64.7298 91.9059 64.424C91.9059 64.2056 91.862 64.0308 91.7303 63.8561C91.6425 63.725 91.4669 63.6376 91.2036 63.6376C91.028 63.6376 90.8525 63.725 90.7208 63.8561C90.5891 63.9871 90.5452 64.2056 90.5452 64.424Z" fill="#373435"/>
<path d="M88.2554 50.9004C88.6504 50.9004 89.0455 50.9441 89.4405 51.0315C89.7916 51.0751 90.1427 51.1625 90.45 51.2499C90.8011 51.3373 91.1083 51.4683 91.3717 51.5994C91.635 51.7305 91.8545 51.8615 92.0301 51.9926C92.2056 52.08 92.3812 52.211 92.469 52.3421C92.5568 52.4295 92.6006 52.5605 92.6006 52.6916C92.6006 52.8664 92.5568 52.9974 92.469 53.1285C92.3373 53.2595 92.2056 53.3469 92.0301 53.4343C91.5473 53.0411 90.9767 52.7353 90.3622 52.5168C89.7477 52.2984 89.0455 52.211 88.2993 52.211C87.5093 52.211 86.7631 52.2984 86.1487 52.5168C85.5342 52.7353 84.9636 53.0411 84.5247 53.4343C84.3491 53.3469 84.2174 53.2595 84.1297 53.1722C83.998 53.0411 83.9541 52.8664 83.9541 52.6916C83.9541 52.5605 83.998 52.4295 84.0419 52.3421C84.1297 52.211 84.2174 52.1237 84.3491 52.0363C84.7441 51.6868 85.2708 51.4246 85.9292 51.2499C86.5876 51.0315 87.3337 50.9004 88.2554 50.9004Z" fill="#373435"/>
<path d="M106.189 62.9787C106.101 62.9787 106.014 63.0223 105.882 63.0223C105.75 63.0223 105.619 63.066 105.531 63.066C105.224 63.066 105.004 62.9787 104.873 62.8913C104.741 62.8039 104.653 62.6292 104.653 62.3233V53.9352C104.741 53.8915 104.829 53.8915 104.96 53.8479C105.048 53.8479 105.18 53.8479 105.311 53.8479C105.575 53.8479 105.794 53.8915 105.97 53.9789C106.101 54.0663 106.189 54.2411 106.189 54.5032V62.9787ZM93.768 55.6391C93.768 55.2896 93.8119 55.0274 93.8997 54.7653C94.0314 54.5469 94.163 54.3284 94.3386 54.1537C94.5142 54.0226 94.6897 53.8915 94.9092 53.8479C95.1286 53.7605 95.3481 53.7168 95.5676 53.7168C95.9187 53.7168 96.2259 53.8042 96.4454 53.9789C96.7087 54.1537 96.8843 54.3284 96.9721 54.5469C97.1038 54.2847 97.2793 54.11 97.4988 53.9352C97.7182 53.8042 98.0255 53.7168 98.3766 53.7168C98.5961 53.7168 98.8155 53.7605 99.035 53.8479C99.2544 53.9352 99.4739 54.0663 99.6056 54.2411C99.7811 54.4158 99.9128 54.6342 100.044 54.9401C100.132 55.2022 100.22 55.5517 100.22 55.9449C100.22 56.4255 100.132 56.8186 100.001 57.1681C99.8689 57.5177 99.6933 57.8235 99.43 58.0419C99.1667 58.304 98.8594 58.4788 98.5083 58.6099C98.1133 58.7846 97.7182 58.872 97.2354 58.9157L96.9282 58.9594C96.3576 59.0467 95.9626 59.1778 95.7431 59.3962C95.4798 59.571 95.3481 59.8768 95.3481 60.3137C95.3481 60.7069 95.5237 61.0564 95.9187 61.3622C96.3137 61.6243 96.9282 61.7554 97.7621 61.7554C98.1571 61.7554 98.5522 61.7117 98.8594 61.668C99.2105 61.5806 99.5178 61.4933 99.7811 61.3622C100.088 61.2311 100.308 61.1001 100.527 60.9253C100.703 60.7943 100.878 60.6195 101.01 60.4447V53.9352C101.098 53.8915 101.186 53.8915 101.317 53.8479C101.405 53.8479 101.537 53.8479 101.668 53.8479C101.932 53.8479 102.151 53.8915 102.327 53.9789C102.502 54.0663 102.546 54.2411 102.546 54.5469V62.9787C102.502 62.9787 102.371 63.0223 102.283 63.0223C102.151 63.0223 102.02 63.066 101.888 63.066C101.625 63.066 101.405 63.0223 101.23 62.935C101.098 62.8476 101.01 62.6728 101.01 62.367V62.1486C100.878 62.236 100.659 62.367 100.44 62.4981C100.22 62.5855 100.001 62.6728 99.6933 62.8039C99.3861 62.8913 99.0789 62.935 98.7277 63.0223C98.3766 63.066 97.9816 63.1097 97.5427 63.1097C96.3137 63.1097 95.392 62.8476 94.7336 62.367C94.0314 61.8865 93.7241 61.1874 93.7241 60.3137C93.7241 59.4836 93.9875 58.8283 94.5142 58.4351C95.0409 58.0419 95.787 57.7798 96.7965 57.6924L97.016 57.6487C97.6305 57.5613 98.0694 57.3866 98.3766 57.1245C98.64 56.8623 98.8155 56.4255 98.8155 55.8575C98.8155 55.4643 98.7277 55.2022 98.5961 55.0711C98.4644 54.9401 98.3327 54.8527 98.1571 54.8527C98.0255 54.8527 97.8499 54.9401 97.7621 55.0274C97.6305 55.1585 97.5866 55.3333 97.5866 55.5954V56.6002C97.4988 56.6439 97.411 56.6876 97.2793 56.7313C97.1915 56.7313 97.0599 56.775 96.9721 56.775C96.8404 56.775 96.7526 56.7313 96.621 56.7313C96.5332 56.6876 96.4454 56.6439 96.3576 56.6002V55.5954C96.3576 55.3333 96.3137 55.1585 96.182 55.0274C96.0943 54.8964 95.9187 54.8527 95.787 54.8527C95.6115 54.8527 95.4798 54.9401 95.3481 55.0711C95.2164 55.2022 95.1725 55.3769 95.1725 55.6828C95.1725 55.9449 95.1725 56.1196 95.2603 56.2944C95.3042 56.4255 95.392 56.5565 95.4798 56.6439C95.4359 56.775 95.3481 56.8623 95.2603 56.9497C95.1286 57.0371 94.997 57.0808 94.7775 57.0808C94.6897 57.0808 94.5581 57.0371 94.4264 56.9934C94.2947 56.9497 94.163 56.8623 94.0753 56.7313C93.9875 56.6002 93.8997 56.4691 93.8558 56.2944C93.768 56.1196 93.768 55.9012 93.768 55.6391Z" fill="#373435"/>
</svg>
