<svg width="107" height="103" viewBox="0 0 107 103" fill="none" xmlns="http://www.w3.org/2000/svg">
<path fill-rule="evenodd" clip-rule="evenodd" d="M39.1351 90.8186C44.9275 93.021 51.2637 94.235 57.9022 94.235C66.1098 94.235 73.8786 92.3564 80.7256 89.0798C72.3424 95.3708 61.9402 99.128 50.6601 99.128C44.2295 99.128 38.0841 97.9162 32.4417 95.7099L39.1351 90.8186ZM25.1101 82.7306C14.7031 74.2232 8.12946 61.7392 8.12946 47.8383C8.12946 22.2372 30.4262 1.4417 57.9022 1.4417C59.9212 1.4417 61.9402 1.57277 63.9153 1.79121C59.7017 0.611632 55.2248 0 50.6601 0C23.1403 0 0.843506 22.1935 0.843506 49.5858C0.843506 67.0341 9.91906 82.384 23.6364 91.211L25.1101 82.7306Z" fill="#F47D5C"/>
<path d="M29.1631 79.6172L22.2283 102.073L40.5748 85.1219L29.1631 79.6172Z" fill="#377044"/>
<path fill-rule="evenodd" clip-rule="evenodd" d="M16.5012 48.6537C16.5012 69.755 33.6627 86.837 54.8621 86.837C68.2197 86.837 80.0025 80.027 86.874 69.6952H91.7896C84.4563 82.4461 70.6628 91.031 54.8621 91.031C31.3364 91.031 12.2876 72.0705 12.2876 48.6537C12.2876 25.2369 31.3364 6.27637 54.8621 6.27637C71.1853 6.27637 85.3663 15.4385 92.4957 28.8906H87.6881C80.9587 17.8458 68.7632 10.4704 54.8621 10.4704C33.6627 10.4704 16.5012 27.5524 16.5012 48.6537Z" fill="#377044"/>
<path fill-rule="evenodd" clip-rule="evenodd" d="M36.132 60.0263C33.7619 60.0263 31.4796 60.07 29.1533 59.9826C27.5294 59.9389 26.3882 58.7156 26.3882 57.0555C26.3882 49.978 26.3882 42.9006 26.3882 35.8668C26.3882 34.2067 27.661 32.9834 29.285 32.9834C34.9909 32.9834 40.6967 32.9834 46.4026 32.9834C47.9388 32.9834 49.2116 34.0756 49.2555 35.561C49.2994 39.3182 49.2555 43.0753 49.2555 46.8762C48.3777 46.3956 47.4999 46.0024 46.622 45.5219C46.4904 45.4345 46.4465 45.0413 46.4465 44.7792C46.4465 42.0705 46.4465 39.3618 46.4465 36.6532V35.8231H29.3289V57.1429C30.909 57.1429 32.4891 57.1429 34.0691 57.1429C34.5081 57.1429 34.7714 57.2302 34.947 57.7108C35.2981 58.4535 35.6931 59.1525 36.132 60.0263Z" fill="#F58B71"/>
<path fill-rule="evenodd" clip-rule="evenodd" d="M36.132 60.0263C33.7619 60.0263 31.4796 60.07 29.1533 59.9826C27.5294 59.9389 26.3882 58.7156 26.3882 57.0555C26.3882 49.978 26.3882 42.9006 26.3882 35.8668C26.3882 34.2067 27.661 32.9834 29.285 32.9834C34.9909 32.9834 40.6967 32.9834 46.4026 32.9834C47.9388 32.9834 49.2116 34.0756 49.2555 35.561C49.2994 39.3182 49.2555 43.0753 49.2555 46.8762C48.3777 46.3956 47.4999 46.0024 46.622 45.5219C46.4904 45.4345 46.4465 45.0413 46.4465 44.7792C46.4465 42.0705 46.4465 39.3618 46.4465 36.6532V35.8231H29.3289V57.1429C30.909 57.1429 32.4891 57.1429 34.0691 57.1429C34.5081 57.1429 34.7714 57.2302 34.947 57.7108C35.2981 58.4535 35.6931 59.1525 36.132 60.0263Z" stroke="#F58B71" stroke-width="0.0116378"/>
<path fill-rule="evenodd" clip-rule="evenodd" d="M47.9138 54.343C47.8699 51.9838 45.9387 50.0179 43.5686 50.0179C41.2862 50.0179 39.2672 51.9838 39.2672 54.2556C39.2672 56.6585 41.2423 58.6244 43.6125 58.6244C45.9387 58.5807 47.9138 56.6148 47.9138 54.343ZM49.5378 58.2749C50.8984 59.5856 52.259 60.8525 53.5319 62.0758C52.8296 62.7748 52.1713 63.4301 51.469 64.1291C50.5912 63.299 49.5817 62.3816 48.66 61.3768C47.9577 60.5904 47.431 60.3719 46.2898 60.8525C43.6563 61.9884 41.0668 61.5515 38.8722 59.6292C36.6776 57.6633 35.9315 55.1731 36.7215 52.377C37.5116 49.581 39.4867 47.7898 42.3835 47.3092C45.1925 46.8287 47.5627 47.7898 49.2744 50.0616C50.9862 52.377 51.1618 54.8673 50.0206 57.4448C49.8889 57.707 49.7572 57.9254 49.5378 58.2749Z" fill="#F58B71"/>
<path fill-rule="evenodd" clip-rule="evenodd" d="M47.9138 54.343C47.8699 51.9838 45.9387 50.0179 43.5686 50.0179C41.2862 50.0179 39.2672 51.9838 39.2672 54.2556C39.2672 56.6585 41.2423 58.6244 43.6125 58.6244C45.9387 58.5807 47.9138 56.6148 47.9138 54.343ZM49.5378 58.2749C50.8984 59.5856 52.259 60.8525 53.5319 62.0758C52.8296 62.7748 52.1713 63.4301 51.469 64.1291C50.5912 63.299 49.5817 62.3816 48.66 61.3768C47.9577 60.5904 47.431 60.3719 46.2898 60.8525C43.6563 61.9884 41.0668 61.5515 38.8722 59.6292C36.6776 57.6633 35.9315 55.1731 36.7215 52.377C37.5116 49.581 39.4867 47.7898 42.3835 47.3092C45.1925 46.8287 47.5627 47.7898 49.2744 50.0616C50.9862 52.377 51.1618 54.8673 50.0206 57.4448C49.8889 57.707 49.7572 57.9254 49.5378 58.2749Z" stroke="#F58B71" stroke-width="0.0116378"/>
<path d="M64.8905 34.2308C64.5394 34.2308 64.1443 34.2744 63.8371 34.4055C63.486 34.5366 63.1787 34.7113 62.8715 34.9735C62.6082 35.2356 62.3448 35.5851 62.1253 35.9783C61.9059 36.3715 61.7303 36.852 61.6425 37.42H61.9937C62.8276 37.42 63.5738 37.551 64.276 37.7695C64.9783 37.9442 65.5489 38.2501 66.0756 38.6869C66.6023 39.0801 66.9973 39.5607 67.3045 40.1723C67.5679 40.7403 67.7434 41.3956 67.7434 42.182C67.7434 42.7499 67.6557 43.2742 67.4362 43.7547C67.2606 44.1916 66.9973 44.5848 66.6462 44.9343C66.295 45.2401 65.8561 45.4586 65.3733 45.6333C64.8905 45.8081 64.3638 45.8954 63.7932 45.8954C63.091 45.8954 62.4326 45.7644 61.862 45.5023C61.2475 45.2401 60.7208 44.8906 60.2819 44.3664C59.7991 43.8421 59.448 43.1431 59.1846 42.3567C58.9652 41.5266 58.8335 40.5218 58.8335 39.3859C58.8335 38.0316 58.9652 36.8957 59.3163 35.9346C59.6674 34.9735 60.1063 34.2308 60.633 33.6191C61.2036 33.0512 61.8181 32.6143 62.5204 32.3522C63.1787 32.09 63.881 31.959 64.5833 31.959C65.0661 31.959 65.4611 32.0027 65.8122 32.09C66.1195 32.1774 66.3828 32.3085 66.5584 32.4396C66.7778 32.5706 66.9095 32.7454 66.9534 32.9201C67.0412 33.1386 67.0851 33.3133 67.0851 33.5318C67.0851 33.7502 67.0412 33.9686 66.9095 34.1434C66.8217 34.3618 66.69 34.4929 66.5584 34.5803C66.3389 34.4929 66.0756 34.4055 65.8122 34.3181C65.5489 34.2744 65.2416 34.2308 64.8905 34.2308ZM61.9937 39.7354C61.862 39.7354 61.7742 39.7354 61.6864 39.7354C61.5987 39.7354 61.5548 39.7354 61.467 39.7791V39.9102C61.467 40.5218 61.5109 41.0461 61.6425 41.5266C61.7742 41.9635 61.9498 42.3567 62.1692 42.6625C62.3448 42.9684 62.6082 43.1868 62.8715 43.3179C63.1348 43.4926 63.4421 43.5363 63.7054 43.5363C64.1443 43.5363 64.4955 43.4052 64.7149 43.1431C64.9783 42.881 65.11 42.5315 65.11 42.0509C65.11 41.7451 65.0222 41.4393 64.8905 41.1771C64.7588 40.8713 64.5394 40.6092 64.276 40.3908C64.0127 40.216 63.7054 40.0413 63.3104 39.9102C62.9154 39.7791 62.4765 39.7354 61.9937 39.7354Z" fill="#377044"/>
<path d="M75.8159 43.9732C75.6404 44.1042 75.4209 44.1479 75.1575 44.2353C74.8942 44.279 74.6309 44.3227 74.2797 44.3227C73.8408 44.3227 73.4019 44.2353 72.963 44.1479C72.5241 44.0169 72.1729 43.8421 71.8218 43.6237C71.4707 43.3615 71.2073 43.0557 70.944 42.6625C70.7245 42.313 70.549 41.8325 70.4612 41.3082C69.8467 41.0898 69.32 40.6966 68.8372 40.0849C68.3983 39.4733 68.1788 38.6869 68.1788 37.7258C68.1788 36.9394 68.3544 36.153 68.6616 35.454C68.9689 34.755 69.4517 34.1434 70.0223 33.6191C70.6367 33.0949 71.339 32.7017 72.1729 32.3959C73.0069 32.09 73.9286 31.959 74.982 31.959C76.2109 31.959 77.2643 32.1337 78.186 32.5269C79.1517 32.8764 79.9417 33.357 80.5562 33.9686C81.2145 34.5803 81.6973 35.323 82.0485 36.1093C82.3557 36.9394 82.5313 37.7695 82.5313 38.6432C82.5313 38.9927 82.4874 39.3423 82.4435 39.6481C82.3996 39.9539 82.3118 40.1723 82.2679 40.3908C82.0924 40.8276 81.8729 41.1335 81.6096 41.3082C81.3462 41.483 80.9951 41.5703 80.6001 41.5703C80.3367 41.5703 80.0734 41.5267 79.8539 41.3956C79.6345 41.2645 79.5028 41.1335 79.3711 41.0024C79.5028 40.7403 79.5906 40.3908 79.6783 40.0413C79.7661 39.6481 79.81 39.2112 79.81 38.7306C79.81 38.119 79.7222 37.5074 79.5028 36.9831C79.2833 36.4588 78.9322 35.9783 78.5372 35.5851C78.1422 35.1482 77.6155 34.8424 77.0449 34.624C76.4304 34.3618 75.772 34.2744 75.0259 34.2744C74.3675 34.2744 73.7969 34.3618 73.2702 34.5366C72.7435 34.7113 72.3046 34.9298 71.9535 35.2356C71.6024 35.5851 71.339 35.9346 71.1195 36.3278C70.944 36.7647 70.8562 37.2015 70.8562 37.6821C70.8562 37.9442 70.8562 38.1627 70.944 38.3811C70.9879 38.5996 71.0757 38.7743 71.1634 38.9054C71.3829 38.4685 71.6462 38.1627 71.9096 37.9442C72.1729 37.7695 72.4363 37.6821 72.7435 37.6821C73.0947 37.6821 73.358 37.7695 73.5775 37.9879C73.753 38.2064 73.9286 38.4685 74.1042 38.7743C73.7969 39.0364 73.5775 39.2986 73.358 39.6044C73.1385 39.9102 73.0508 40.2597 73.0508 40.6966C73.0508 41.1771 73.1824 41.5267 73.4897 41.7888C73.753 42.0509 74.1042 42.182 74.587 42.182C74.8503 42.182 75.0698 42.1383 75.2892 42.0509C75.4648 42.0072 75.6404 41.8762 75.772 41.7888V38.1627C75.9476 38.1627 76.0793 38.119 76.2548 38.0753C76.4743 38.0753 76.6498 38.0316 76.8254 38.0316C77.3082 38.0316 77.6593 38.119 77.8788 38.2937C78.1422 38.4248 78.2738 38.7306 78.2738 39.2549V45.677C78.0983 45.7207 77.9666 45.7207 77.7471 45.7644C77.5277 45.7644 77.3521 45.8081 77.1327 45.8081C76.6937 45.8081 76.3426 45.7207 76.1232 45.5896C75.9037 45.4149 75.8159 45.1091 75.8159 44.6285V43.9732Z" fill="#377044"/>
<path d="M97.6134 45.6782C97.5256 45.7219 97.3501 45.7219 97.1306 45.7656C96.9111 45.7656 96.6478 45.8093 96.4283 45.8093C95.9894 45.8093 95.5944 45.7219 95.3311 45.5909C95.0677 45.4161 94.936 45.1103 94.936 44.586V37.8581C94.6727 37.9455 94.3216 37.9892 93.8826 37.9892C93.4437 37.9892 93.0487 37.9455 92.6098 37.8144C92.2148 37.6833 91.8636 37.5086 91.5564 37.2465C91.293 37.028 91.0297 36.6785 90.8541 36.329C90.6786 35.9358 90.5908 35.4989 90.5908 34.9747C90.5908 34.7126 90.5908 34.4941 90.6347 34.3194C90.503 34.2757 90.3713 34.232 90.1958 34.1883C90.0202 34.1883 89.8446 34.1883 89.6252 34.1883C88.6596 34.1883 87.8695 34.4067 87.2989 34.931C86.6845 35.4116 86.3772 36.1106 86.3772 36.9406C86.3772 37.2902 86.465 37.6397 86.5528 37.9892C86.6406 38.3387 86.86 38.6882 87.1234 38.9503C87.3867 38.7755 87.694 38.6445 88.089 38.5134C88.4401 38.3824 88.8351 38.3387 89.274 38.3387C89.8446 38.3387 90.3274 38.426 90.8102 38.6008C91.293 38.7755 91.6881 38.994 92.0392 39.3435C92.3903 39.6493 92.6976 40.0425 92.8731 40.5231C93.0487 41.0036 93.1804 41.5279 93.1804 42.1395C93.1804 42.7512 93.0487 43.2754 92.8731 43.756C92.6537 44.2365 92.3903 44.6297 92.0392 44.9355C91.6881 45.2414 91.2492 45.4598 90.7664 45.6346C90.2835 45.7656 89.7569 45.853 89.1863 45.853C88.6596 45.853 88.1768 45.7656 87.694 45.6346C87.255 45.4598 86.8161 45.1977 86.465 44.8919C86.1139 44.586 85.8505 44.1929 85.6311 43.7123C85.4116 43.2754 85.3238 42.7075 85.3238 42.0958C85.3238 41.8337 85.3677 41.5716 85.4116 41.3531C85.4555 41.1347 85.4994 40.9163 85.5872 40.7415C84.9727 40.392 84.4899 39.8677 84.1388 39.2124C83.7876 38.6008 83.6121 37.8581 83.6121 37.028C83.6121 36.2416 83.7876 35.4989 84.0949 34.8873C84.4021 34.232 84.7971 33.7077 85.3238 33.3145C85.8505 32.8777 86.465 32.5282 87.1673 32.3097C87.8695 32.0913 88.6157 32.0039 89.3618 32.0039C90.108 32.0039 90.7664 32.0476 91.293 32.135C91.8197 32.2223 92.3025 32.3534 92.7415 32.5719C92.9609 32.6592 93.0487 32.7903 93.0487 32.9214C93.0487 33.0087 93.0487 33.2272 92.9609 33.4893C92.8731 33.7514 92.8292 34.1009 92.8292 34.4504C92.8292 34.9747 92.9609 35.3242 93.1804 35.5863C93.3998 35.8048 93.7071 35.9358 94.1021 35.9358C94.4532 35.9358 94.7166 35.8484 94.936 35.6737V32.4408C95.0677 32.3971 95.1994 32.3971 95.4627 32.3534C95.6822 32.3097 95.9016 32.3097 96.1211 32.3097C96.6039 32.3097 96.955 32.3971 97.2184 32.5282C97.4817 32.6592 97.6134 33.0087 97.6134 33.533V45.6782ZM87.8256 42.1395C87.8256 42.6201 87.9573 43.0133 88.2207 43.2754C88.5279 43.5812 88.879 43.7123 89.274 43.7123C89.713 43.7123 90.0202 43.5812 90.2835 43.2754C90.5469 43.0133 90.6786 42.6201 90.6786 42.1395C90.6786 41.6153 90.5469 41.1784 90.2835 40.9163C90.0202 40.6104 89.6691 40.4794 89.274 40.4794C88.879 40.4794 88.5279 40.6104 88.2207 40.9163C87.9573 41.2221 87.8256 41.6153 87.8256 42.1395Z" fill="#377044"/>
<path d="M72.1398 60.6217C72.1398 60.4906 72.1398 60.3595 72.1837 60.2285C72.1837 60.0974 72.1837 59.9226 72.2276 59.7916C72.0081 59.6168 71.7886 59.3547 71.6131 59.0052C71.4375 58.6557 71.3497 58.2188 71.3497 57.6509C71.3497 57.0392 71.4814 56.4713 71.7009 55.9907C71.9642 55.4665 72.3153 55.0733 72.7981 54.6801C73.2371 54.3306 73.8076 54.0685 74.4221 53.8937C75.0366 53.6753 75.7388 53.5879 76.485 53.5879C77.3189 53.5879 78.0651 53.719 78.7673 53.9811C79.5135 54.1995 80.128 54.549 80.6547 54.9859C81.1814 55.4665 81.5764 55.9907 81.8836 56.646C82.1909 57.3014 82.3225 58.0441 82.3225 58.8304C82.3225 59.3547 82.2786 59.8353 82.147 60.3595C82.0153 60.8401 81.8836 61.277 81.6642 61.6702L83.2003 62.9808C83.2003 63.2866 83.1126 63.4614 82.9809 63.6361C82.8492 63.8109 82.6298 63.8983 82.3664 63.8983C82.2347 63.8983 82.1031 63.8546 81.9714 63.8109C81.8397 63.7672 81.708 63.6361 81.5325 63.5051C81.4008 63.374 81.2252 63.1992 81.0497 62.9808C80.8741 62.7187 80.6547 62.4129 80.3913 62.0634C80.3035 61.9323 80.2596 61.8012 80.2596 61.6702C80.2596 61.5828 80.3035 61.4517 80.3474 61.277C80.4791 60.9275 80.5669 60.578 80.6547 60.1848C80.7424 59.7916 80.7863 59.3984 80.7863 59.0052C80.7863 58.3936 80.6547 57.8256 80.4352 57.3014C80.2157 56.7771 79.9085 56.3839 79.5135 56.0344C79.1624 55.6849 78.6796 55.4228 78.1968 55.2043C77.6701 55.0296 77.0995 54.9422 76.5289 54.9422C75.9144 54.9422 75.4316 54.9859 74.9488 55.1607C74.5099 55.2917 74.1588 55.5102 73.8515 55.7286C73.5443 55.9907 73.2809 56.2965 73.1493 56.646C72.9737 56.9956 72.9298 57.3451 72.9298 57.7382C72.9298 57.913 72.9298 58.0878 72.9737 58.2188C73.0176 58.3499 73.0615 58.5246 73.1493 58.612C73.2809 58.4809 73.4565 58.3499 73.676 58.2625C73.8954 58.1751 74.1149 58.1314 74.3782 58.1314C74.7294 58.1314 75.0805 58.2188 75.2999 58.3936C75.5633 58.5246 75.7827 58.7431 75.9144 59.0052C76.09 58.7431 76.3094 58.5683 76.5728 58.3936C76.8361 58.2625 77.1434 58.1751 77.5384 58.1751C78.1529 58.1751 78.6357 58.3936 79.0307 58.7868C79.4257 59.2236 79.6013 59.7916 79.6013 60.578C79.6013 61.0585 79.5574 61.4517 79.4257 61.7575C79.3379 62.0634 79.1624 62.3255 78.9868 62.5439C78.8112 62.7187 78.5918 62.8497 78.3284 62.9808C78.0651 63.0682 77.8017 63.1119 77.4945 63.1119C77.0995 63.1119 76.7483 63.0245 76.485 62.8497C76.2217 62.7187 76.0461 62.5002 75.9144 62.2818C75.8266 62.4566 75.6072 62.675 75.3438 62.8497C75.0805 63.0245 74.7294 63.1119 74.2465 63.1119C73.9393 63.1119 73.676 63.0682 73.4126 62.9371C73.1493 62.8497 72.9298 62.7187 72.7542 62.5002C72.5787 62.3255 72.4031 62.0634 72.3153 61.7575C72.1837 61.4517 72.1398 61.0585 72.1398 60.6217ZM76.485 61.0148C76.5289 61.277 76.6167 61.4954 76.7922 61.6702C76.9239 61.8012 77.0995 61.8886 77.3628 61.8886C77.5823 61.8886 77.8017 61.8012 77.9773 61.5828C78.109 61.408 78.1968 61.0585 78.1968 60.578C78.1968 60.1411 78.109 59.8353 77.9773 59.6605C77.8017 59.4421 77.6262 59.3547 77.3628 59.3547C77.1434 59.3547 76.9678 59.4421 76.7922 59.6168C76.6606 59.7916 76.5728 60.1411 76.5289 60.578L76.485 61.0148ZM75.2122 60.2285C75.1683 59.9663 75.0805 59.7042 74.9049 59.5731C74.7732 59.4421 74.5977 59.3547 74.3782 59.3547C74.1588 59.3547 73.9393 59.4421 73.7637 59.6605C73.5882 59.8353 73.5004 60.1848 73.5004 60.6217C73.5004 61.1022 73.5882 61.4517 73.7637 61.6265C73.9393 61.8012 74.1588 61.8886 74.3782 61.8886C74.5977 61.8886 74.7732 61.8012 74.9488 61.6702C75.0805 61.4954 75.1683 61.1896 75.1683 60.709L75.2122 60.2285Z" fill="#373435"/>
<path d="M87.6953 63.8961C87.7392 64.2019 87.827 64.4203 87.9148 64.6825C88.0464 64.9009 88.1781 65.1194 88.3976 65.2941C88.5731 65.4689 88.7926 65.5999 89.0559 65.731C89.3193 65.8184 89.6265 65.862 89.9338 65.862C89.7582 65.731 89.5826 65.5562 89.451 65.2941C89.2754 65.032 89.2315 64.7262 89.2315 64.3767C89.2315 63.9398 89.3193 63.5466 89.5826 63.2845C89.8021 63.0223 90.1093 62.8476 90.4605 62.7165V55.1585C90.3288 55.1148 90.1971 55.0711 90.0215 55.0274C89.846 54.9837 89.6704 54.9401 89.451 54.9401C89.2754 54.9401 89.0559 54.9837 88.8804 55.0274C88.7048 55.1148 88.5292 55.2022 88.3976 55.3333C88.222 55.4643 88.1342 55.5954 88.0464 55.7701C87.9148 55.9449 87.8709 56.1633 87.8709 56.3818C88.1781 56.4691 88.3976 56.5565 88.5731 56.7313C88.7487 56.8623 88.8365 57.0371 88.8365 57.1681C88.8365 57.3429 88.7926 57.474 88.7487 57.605C88.6609 57.6924 88.5731 57.8235 88.4415 57.9108C88.2659 57.7798 88.0464 57.6924 87.827 57.6487C87.6075 57.5613 87.3442 57.5176 87.0369 57.5176C86.8614 57.5176 86.6858 57.5613 86.5102 57.605C86.2908 57.6487 86.1152 57.7361 85.9397 57.8235C85.7641 57.9108 85.5885 58.0419 85.4569 58.2167C85.3252 58.3477 85.1935 58.5662 85.1496 58.7846C85.2813 58.7409 85.413 58.7409 85.5885 58.6972C85.7202 58.6972 85.8958 58.6972 86.0274 58.6972C86.5541 58.6972 86.993 58.7409 87.3881 58.872C87.7831 59.003 88.0903 59.1341 88.3537 59.3525C88.6609 59.571 88.8365 59.8331 88.9682 60.0952C89.1437 60.4011 89.1876 60.7069 89.1876 61.0564C89.1876 61.3622 89.1437 61.6243 89.012 61.8864C88.9243 62.1486 88.7487 62.367 88.5731 62.5855C88.3537 62.7602 88.0903 62.8913 87.7831 63.0223C87.4758 63.1097 87.1247 63.1534 86.7297 63.1534C86.2908 63.1534 85.8958 63.066 85.5007 62.935C85.1057 62.8039 84.7546 62.5855 84.4912 62.3233C84.184 62.0175 83.9645 61.668 83.789 61.2748C83.6134 60.8379 83.5256 60.3574 83.5256 59.7894C83.5256 59.2215 83.6134 58.7409 83.789 58.304C83.9645 57.9108 84.184 57.5613 84.4474 57.2555C84.7107 56.9934 85.0179 56.775 85.3691 56.6002C85.7202 56.4691 86.0713 56.3381 86.4225 56.3381V56.1633C86.4225 55.7701 86.5102 55.4206 86.6419 55.1148C86.8175 54.809 87.0369 54.5906 87.3003 54.3721C87.6075 54.1537 87.9148 53.9789 88.2659 53.8915C88.6609 53.7605 89.0559 53.7168 89.451 53.7168C89.9777 53.7168 90.4166 53.7605 90.7677 53.8915C91.1627 53.9789 91.4261 54.11 91.6455 54.2411C91.7772 54.3721 91.865 54.4595 91.9089 54.6342C91.9528 54.7653 91.9967 54.8964 91.9967 55.0711V62.8039C92.3039 62.935 92.5672 63.1097 92.7867 63.4155C93.0062 63.6777 93.0939 64.0272 93.0939 64.5077C93.0939 64.8572 93.0062 65.163 92.8745 65.4689C92.7428 65.7747 92.5233 66.0368 92.26 66.2116C91.9967 66.43 91.6894 66.6047 91.2944 66.7358C90.8994 66.8669 90.4605 66.9106 89.9777 66.9106C89.4071 66.9106 88.8804 66.8232 88.4853 66.6921C88.0464 66.5611 87.6953 66.3426 87.3881 66.1242C87.1247 65.9057 86.9053 65.6436 86.7736 65.3378C86.6419 65.032 86.5541 64.7699 86.5541 64.5077C86.5541 64.2893 86.6419 64.1145 86.7736 63.9835C86.9053 63.8961 87.0808 63.8087 87.2564 63.8087C87.3442 63.8087 87.432 63.8524 87.5197 63.8524C87.6075 63.8961 87.6514 63.8961 87.6953 63.8961ZM85.8519 59.9205C85.5885 59.9205 85.3252 59.9205 84.974 60.0079C84.974 60.3137 85.0179 60.6195 85.1496 60.8379C85.2374 61.0564 85.3691 61.2748 85.5007 61.4496C85.6763 61.5806 85.8519 61.7117 86.0713 61.7991C86.2908 61.8428 86.4664 61.8864 86.6858 61.8864C87.0369 61.8864 87.3003 61.8428 87.4758 61.668C87.6514 61.5369 87.7392 61.3185 87.7392 61.0564C87.7392 60.9253 87.6953 60.7506 87.6075 60.6195C87.5636 60.4884 87.4758 60.3574 87.3003 60.27C87.1686 60.1389 86.9492 60.0516 86.7297 60.0079C86.5102 59.9205 86.203 59.9205 85.8519 59.9205ZM90.4605 64.464C90.4605 64.6825 90.5043 64.9009 90.636 65.1194C90.7677 65.2941 90.9433 65.4689 91.1188 65.5562C91.2944 65.4689 91.47 65.3378 91.6016 65.163C91.7333 64.9883 91.8211 64.7262 91.8211 64.464C91.8211 64.2019 91.7772 64.0272 91.6455 63.8961C91.5577 63.7213 91.3822 63.634 91.1188 63.634C90.9433 63.634 90.7677 63.7213 90.636 63.8524C90.5043 64.0272 90.4605 64.2019 90.4605 64.464Z" fill="#373435"/>
<path d="M88.2071 50.9404C88.6021 50.9404 88.9971 50.9841 89.3922 51.0278C89.7433 51.0715 90.0944 51.1589 90.4017 51.2899C90.7528 51.3773 91.06 51.4647 91.3234 51.5957C91.5867 51.7268 91.8062 51.8579 91.9818 51.9889C92.1573 52.12 92.3329 52.2511 92.4207 52.3384C92.5084 52.4258 92.5523 52.5569 92.5523 52.7316C92.5523 52.8627 92.5084 53.0374 92.4207 53.1248C92.289 53.2559 92.1573 53.3433 91.9818 53.4306C91.4989 53.0374 90.9284 52.7316 90.3139 52.5569C89.6994 52.3384 88.9971 52.2074 88.2071 52.2074C87.461 52.2074 86.7148 52.3384 86.1003 52.5569C85.4858 52.7753 84.9153 53.0811 84.4763 53.4306C84.3008 53.387 84.1691 53.2996 84.0813 53.1685C83.9497 53.0374 83.9058 52.9064 83.9058 52.7316C83.9058 52.6006 83.9497 52.4695 83.9935 52.3384C84.0813 52.2511 84.1691 52.12 84.3008 52.0326C84.6958 51.7268 85.2225 51.4647 85.8809 51.2462C86.5392 51.0278 87.2854 50.9404 88.2071 50.9404Z" fill="#373435"/>
<path d="M106.104 62.9799C106.017 62.9799 105.929 63.0236 105.797 63.0236C105.665 63.0673 105.534 63.0673 105.446 63.0673C105.139 63.0673 104.919 63.0236 104.788 62.9362C104.656 62.8488 104.568 62.6304 104.568 62.3683V53.9365C104.656 53.9365 104.744 53.8928 104.875 53.8928C104.963 53.8491 105.095 53.8491 105.227 53.8491C105.49 53.8491 105.709 53.8928 105.885 53.9802C106.017 54.0675 106.104 54.2423 106.104 54.5481V62.9799ZM93.6832 55.6403C93.6832 55.3345 93.7271 55.0287 93.8148 54.7665C93.9465 54.5481 94.0782 54.3297 94.2538 54.1986C94.4293 54.0238 94.6049 53.9365 94.8243 53.8491C95.0438 53.7617 95.2633 53.7617 95.4388 53.7617C95.8338 53.7617 96.1411 53.8491 96.3605 53.9802C96.6239 54.1549 96.7994 54.3297 96.8872 54.5481C97.0189 54.286 97.1945 54.1112 97.4139 53.9802C97.6334 53.8054 97.9406 53.7617 98.2917 53.7617C98.5112 53.7617 98.7307 53.8054 98.9501 53.8491C99.1696 53.9365 99.3451 54.0675 99.5207 54.2423C99.6963 54.4607 99.8279 54.6792 99.9596 54.9413C100.047 55.2471 100.135 55.5966 100.135 55.9898C100.135 56.4267 100.047 56.8636 99.9157 57.2131C99.784 57.5189 99.6085 57.8247 99.3451 58.0868C99.0818 58.3053 98.7745 58.5237 98.4234 58.6548C98.0284 58.7858 97.6334 58.8732 97.1506 58.9606L96.8433 59.0043C96.2728 59.048 95.8777 59.2227 95.6583 59.3975C95.3949 59.6159 95.2633 59.9217 95.2633 60.3149C95.2633 60.7518 95.4388 61.1013 95.8338 61.3634C96.2289 61.6256 96.8433 61.8003 97.6773 61.8003C98.0723 61.8003 98.4673 61.7566 98.7745 61.6692C99.1257 61.5819 99.4329 61.4945 99.6963 61.3634C100.003 61.2324 100.223 61.1013 100.442 60.9265C100.618 60.7955 100.794 60.6207 100.925 60.4897V53.9365C101.013 53.9365 101.101 53.8928 101.232 53.8928C101.32 53.8491 101.452 53.8491 101.584 53.8491C101.847 53.8491 102.066 53.8928 102.242 53.9802C102.374 54.0675 102.461 54.2423 102.461 54.5481V62.9799C102.418 62.9799 102.286 63.0236 102.198 63.0236C102.066 63.0673 101.935 63.0673 101.803 63.0673C101.496 63.0673 101.32 63.0236 101.145 62.9362C101.013 62.8488 100.925 62.6741 100.925 62.4119V62.1498C100.794 62.2809 100.574 62.3683 100.355 62.4993C100.135 62.5867 99.9157 62.7178 99.6085 62.8051C99.3012 62.8925 98.994 62.9799 98.6429 63.0236C98.2917 63.0673 97.8967 63.1109 97.4578 63.1109C96.2289 63.1109 95.3071 62.8925 94.6488 62.4119C93.9465 61.9314 93.6393 61.2324 93.6393 60.3149C93.6393 59.4848 93.9026 58.8732 94.4293 58.48C94.956 58.0431 95.7022 57.781 96.7117 57.6936L96.8872 57.6499C97.5456 57.6063 97.9845 57.4315 98.2917 57.1257C98.5551 56.8636 98.7307 56.4267 98.7307 55.8587C98.7307 55.4655 98.6429 55.2471 98.5112 55.0724C98.3795 54.9413 98.2479 54.8976 98.0723 54.8976C97.8967 54.8976 97.7651 54.9413 97.6773 55.0724C97.5456 55.1597 97.5017 55.3782 97.5017 55.5966V56.6451C97.4139 56.6888 97.3261 56.7325 97.1945 56.7325C97.1067 56.7762 96.975 56.7762 96.8872 56.7762C96.7556 56.7762 96.6678 56.7762 96.5361 56.7325C96.4483 56.6888 96.3605 56.6888 96.2728 56.6451V55.5966C96.2728 55.3345 96.2289 55.1597 96.0972 55.0287C95.9655 54.9413 95.8338 54.8976 95.7022 54.8976C95.5266 54.8976 95.3949 54.9413 95.2633 55.0724C95.1316 55.2034 95.0877 55.4219 95.0877 55.7277C95.0877 55.9461 95.0877 56.1646 95.1755 56.2956C95.2194 56.4267 95.3071 56.5577 95.3949 56.6888C95.351 56.7762 95.2633 56.8636 95.1755 56.9509C95.0438 57.0383 94.9121 57.082 94.6927 57.082C94.6049 57.082 94.4732 57.082 94.3415 57.0383C94.2099 56.9509 94.0782 56.8636 93.9904 56.7762C93.9026 56.6451 93.8148 56.4704 93.771 56.2956C93.6832 56.1209 93.6832 55.9024 93.6832 55.6403Z" fill="#373435"/>
</svg>
