<svg width="106" height="103" viewBox="0 0 106 103" fill="none" xmlns="http://www.w3.org/2000/svg">
<path fill-rule="evenodd" clip-rule="evenodd" d="M40.0556 55.6066C40.0556 58.1405 40.0118 60.7181 40.0556 63.252C40.0556 64.3005 39.8801 65.1742 38.7828 65.5674C37.6855 65.9606 36.9394 65.4364 36.2371 64.6937C35.3593 63.6888 34.5253 62.6403 33.5158 61.7666C33.0769 61.4171 32.1991 61.1986 31.6724 61.3734C31.2335 61.5044 30.7946 62.2908 30.7507 62.8151C30.7068 63.2956 31.1896 63.8636 31.5407 64.3005C34.0864 67.1839 36.5882 70.0673 38.0805 73.6934C38.7389 75.3535 40.0995 76.3583 41.8991 76.5768C42.9964 76.7515 44.1814 76.8389 45.3226 76.8389C49.1412 76.7952 52.0819 74.6982 52.433 70.941C52.8719 66.6159 52.6964 62.2471 52.6964 57.8783C52.6964 57.0046 51.9502 56.4803 51.0724 56.4803C50.2384 56.4803 49.624 57.0483 49.4923 57.922C49.4045 58.5773 49.5362 59.32 49.4045 60.019C49.3606 60.3686 49.0534 60.9802 48.79 61.0239C48.0439 61.1112 48.0439 60.4559 48.0439 59.9317C48.0439 58.3589 48.0878 56.7861 48.0439 55.2134C48 53.9027 47.0344 53.1163 45.9371 53.4222C45.0593 53.728 44.752 54.3833 44.752 55.2134C44.752 56.8735 44.752 58.49 44.7081 60.1064C44.7081 60.4122 44.4887 60.7617 44.2692 61.0239C44.2253 61.1112 43.7425 61.0239 43.6986 60.9365C43.5231 60.587 43.3914 60.1938 43.3914 59.8443C43.3475 56.3493 43.3475 52.8979 43.3475 49.4466C43.3475 48.6602 43.5231 47.8301 43.3036 47.1311C43.128 46.5632 42.5575 45.8641 42.0308 45.6894C41.5918 45.5146 40.8018 45.9078 40.4507 46.301C40.1434 46.6505 40.0556 47.3495 40.0556 47.8738C40.0118 50.4514 40.0556 53.029 40.0556 55.6066ZM44.752 52.2426C47.6488 51.5436 49.0095 52.4173 49.5801 55.3444C49.8434 55.3007 50.0629 55.2134 50.2823 55.1697C52.3013 54.6891 54.1448 55.9998 54.1448 58.1405C54.1887 62.2471 54.2325 66.3538 54.0131 70.4168C53.7936 74.6982 50.7651 77.5816 46.5516 78.1496C44.4887 78.4117 42.4697 78.3243 40.4946 77.7127C38.9584 77.2321 37.6416 76.271 37.0271 74.7856C35.4471 71.0284 32.9014 67.9266 30.1801 64.9558C28.9511 63.5578 28.995 61.6355 30.2679 60.4996C31.6285 59.32 33.5158 59.4948 34.7887 60.9365C35.6226 61.8539 36.4566 62.7714 37.3344 63.6888C37.5977 63.9073 37.9489 64.0383 38.2561 64.2131C38.3878 63.8636 38.6511 63.5141 38.6511 63.1646C38.695 58.9705 38.695 54.7328 38.695 50.5388C38.695 49.3592 38.6511 48.1796 38.695 47C38.7389 45.3836 40.0118 44.204 41.6357 44.1603C43.2597 44.1166 44.6203 45.3399 44.7081 47C44.752 47.8738 44.752 48.7476 44.752 49.6213C44.752 50.4951 44.752 51.3251 44.752 52.2426Z" fill="#F58B71"/>
<path fill-rule="evenodd" clip-rule="evenodd" d="M40.0556 55.6066C40.0556 58.1405 40.0118 60.7181 40.0556 63.252C40.0556 64.3005 39.8801 65.1742 38.7828 65.5674C37.6855 65.9606 36.9394 65.4364 36.2371 64.6937C35.3593 63.6888 34.5253 62.6403 33.5158 61.7666C33.0769 61.4171 32.1991 61.1986 31.6724 61.3734C31.2335 61.5044 30.7946 62.2908 30.7507 62.8151C30.7068 63.2956 31.1896 63.8636 31.5407 64.3005C34.0864 67.1839 36.5882 70.0673 38.0805 73.6934C38.7389 75.3535 40.0995 76.3583 41.8991 76.5768C42.9964 76.7515 44.1814 76.8389 45.3226 76.8389C49.1412 76.7952 52.0819 74.6982 52.433 70.941C52.8719 66.6159 52.6964 62.2471 52.6964 57.8783C52.6964 57.0046 51.9502 56.4803 51.0724 56.4803C50.2384 56.4803 49.624 57.0483 49.4923 57.922C49.4045 58.5773 49.5362 59.32 49.4045 60.019C49.3606 60.3686 49.0534 60.9802 48.79 61.0239C48.0439 61.1112 48.0439 60.4559 48.0439 59.9317C48.0439 58.3589 48.0878 56.7861 48.0439 55.2134C48 53.9027 47.0344 53.1163 45.9371 53.4222C45.0593 53.728 44.752 54.3833 44.752 55.2134C44.752 56.8735 44.752 58.49 44.7081 60.1064C44.7081 60.4122 44.4887 60.7617 44.2692 61.0239C44.2253 61.1112 43.7425 61.0239 43.6986 60.9365C43.5231 60.587 43.3914 60.1938 43.3914 59.8443C43.3475 56.3493 43.3475 52.8979 43.3475 49.4466C43.3475 48.6602 43.5231 47.8301 43.3036 47.1311C43.128 46.5632 42.5575 45.8641 42.0308 45.6894C41.5918 45.5146 40.8018 45.9078 40.4507 46.301C40.1434 46.6505 40.0556 47.3495 40.0556 47.8738C40.0118 50.4514 40.0556 53.029 40.0556 55.6066ZM44.752 52.2426C47.6488 51.5436 49.0095 52.4173 49.5801 55.3444C49.8434 55.3007 50.0629 55.2134 50.2823 55.1697C52.3013 54.6891 54.1448 55.9998 54.1448 58.1405C54.1887 62.2471 54.2325 66.3538 54.0131 70.4168C53.7936 74.6982 50.7651 77.5816 46.5516 78.1496C44.4887 78.4117 42.4697 78.3243 40.4946 77.7127C38.9584 77.2321 37.6416 76.271 37.0271 74.7856C35.4471 71.0284 32.9014 67.9266 30.1801 64.9558C28.9511 63.5578 28.995 61.6355 30.2679 60.4996C31.6285 59.32 33.5158 59.4948 34.7887 60.9365C35.6226 61.8539 36.4566 62.7714 37.3344 63.6888C37.5977 63.9073 37.9489 64.0383 38.2561 64.2131C38.3878 63.8636 38.6511 63.5141 38.6511 63.1646C38.695 58.9705 38.695 54.7328 38.695 50.5388C38.695 49.3592 38.6511 48.1796 38.695 47C38.7389 45.3836 40.0118 44.204 41.6357 44.1603C43.2597 44.1166 44.6203 45.3399 44.7081 47C44.752 47.8738 44.752 48.7476 44.752 49.6213C44.752 50.4951 44.752 51.3251 44.752 52.2426Z" stroke="#F58B71" stroke-width="0.0135276"/>
<path fill-rule="evenodd" clip-rule="evenodd" d="M23.0282 36.3249C26.1445 36.2812 26.0128 36.2375 25.9689 39.252C25.9689 40.6937 25.7934 40.8684 24.3011 40.9121C23.3355 40.9121 22.326 40.9121 21.3165 40.8684C21.097 40.8684 20.8337 40.9558 20.6581 40.8248C19.2097 40.0384 19.9997 38.6404 19.868 37.4608C19.7803 36.6744 20.3947 36.3249 21.1409 36.3249C21.7993 36.3249 22.4137 36.3249 23.0282 36.3249Z" fill="#F58B71"/>
<path fill-rule="evenodd" clip-rule="evenodd" d="M23.0282 36.3249C26.1445 36.2812 26.0128 36.2375 25.9689 39.252C25.9689 40.6937 25.7934 40.8684 24.3011 40.9121C23.3355 40.9121 22.326 40.9121 21.3165 40.8684C21.097 40.8684 20.8337 40.9558 20.6581 40.8248C19.2097 40.0384 19.9997 38.6404 19.868 37.4608C19.7803 36.6744 20.3947 36.3249 21.1409 36.3249C21.7993 36.3249 22.4137 36.3249 23.0282 36.3249Z" stroke="#F58B71" stroke-width="0.0135276"/>
<path fill-rule="evenodd" clip-rule="evenodd" d="M32.237 40.9162C28.9451 40.9162 29.2963 41.091 29.2963 37.9018C29.2963 36.5911 29.5157 36.329 30.8325 36.329C31.8858 36.2853 32.9831 36.329 34.0365 36.329C34.9582 36.329 35.3972 36.7222 35.3533 37.6833C35.3094 38.2513 35.3533 38.8629 35.3533 39.4308C35.3094 40.6541 35.0899 40.8725 33.8171 40.9162C33.2904 40.9162 32.7637 40.9162 32.237 40.9162Z" fill="#F58B71"/>
<path fill-rule="evenodd" clip-rule="evenodd" d="M32.237 40.9162C28.9451 40.9162 29.2963 41.091 29.2963 37.9018C29.2963 36.5911 29.5157 36.329 30.8325 36.329C31.8858 36.2853 32.9831 36.329 34.0365 36.329C34.9582 36.329 35.3972 36.7222 35.3533 37.6833C35.3094 38.2513 35.3533 38.8629 35.3533 39.4308C35.3094 40.6541 35.0899 40.8725 33.8171 40.9162C33.2904 40.9162 32.7637 40.9162 32.237 40.9162Z" stroke="#F58B71" stroke-width="0.0135276"/>
<path fill-rule="evenodd" clip-rule="evenodd" d="M41.5799 40.9359C38.3759 40.9359 38.6831 41.1106 38.6831 37.9651C38.6831 36.5671 38.9026 36.3486 40.351 36.3486C41.4044 36.3486 42.4138 36.3486 43.4672 36.3486C44.2573 36.3486 44.7401 36.6981 44.6962 37.5282C44.6962 38.2272 44.7401 38.9262 44.7401 39.6252C44.7401 40.5427 44.2573 40.9796 43.3355 40.9359C42.765 40.8922 42.1505 40.9359 41.5799 40.9359Z" fill="#F58B71"/>
<path fill-rule="evenodd" clip-rule="evenodd" d="M41.5799 40.9359C38.3759 40.9359 38.6831 41.1106 38.6831 37.9651C38.6831 36.5671 38.9026 36.3486 40.351 36.3486C41.4044 36.3486 42.4138 36.3486 43.4672 36.3486C44.2573 36.3486 44.7401 36.6981 44.6962 37.5282C44.6962 38.2272 44.7401 38.9262 44.7401 39.6252C44.7401 40.5427 44.2573 40.9796 43.3355 40.9359C42.765 40.8922 42.1505 40.9359 41.5799 40.9359Z" stroke="#F58B71" stroke-width="0.0135276"/>
<path fill-rule="evenodd" clip-rule="evenodd" d="M22.9053 48.6394H22.7736C19.5696 48.6831 19.8329 48.9015 19.8768 45.2754C19.8768 44.5764 20.2718 44.1395 21.0619 44.1395C22.2908 44.1395 23.5637 44.0958 24.7926 44.1395C25.8899 44.1395 26.0216 44.5327 26.0216 47.154C25.9777 47.9841 25.8899 48.6831 24.7926 48.6394C24.1343 48.6394 23.5198 48.6394 22.9053 48.6394Z" fill="#F58B71"/>
<path fill-rule="evenodd" clip-rule="evenodd" d="M22.9053 48.6394H22.7736C19.5696 48.6831 19.8329 48.9015 19.8768 45.2754C19.8768 44.5764 20.2718 44.1395 21.0619 44.1395C22.2908 44.1395 23.5637 44.0958 24.7926 44.1395C25.8899 44.1395 26.0216 44.5327 26.0216 47.154C25.9777 47.9841 25.8899 48.6831 24.7926 48.6394C24.1343 48.6394 23.5198 48.6394 22.9053 48.6394Z" stroke="#F58B71" stroke-width="0.0135276"/>
<path fill-rule="evenodd" clip-rule="evenodd" d="M22.8016 56.4328C22.2749 56.4328 21.7044 56.3891 21.1338 56.4328C20.1682 56.5202 19.817 55.9959 19.817 55.1222C19.817 51.6708 19.5976 51.9767 22.8016 51.9767C23.46 51.9767 24.1184 51.9767 24.7768 51.9767C25.6546 51.9767 26.0057 52.3698 25.9618 53.1999C25.9618 56.7386 26.4007 56.4765 22.8016 56.4328Z" fill="#F58B71"/>
<path fill-rule="evenodd" clip-rule="evenodd" d="M22.8016 56.4328C22.2749 56.4328 21.7044 56.3891 21.1338 56.4328C20.1682 56.5202 19.817 55.9959 19.817 55.1222C19.817 51.6708 19.5976 51.9767 22.8016 51.9767C23.46 51.9767 24.1184 51.9767 24.7768 51.9767C25.6546 51.9767 26.0057 52.3698 25.9618 53.1999C25.9618 56.7386 26.4007 56.4765 22.8016 56.4328Z" stroke="#F58B71" stroke-width="0.0135276"/>
<path fill-rule="evenodd" clip-rule="evenodd" d="M32.2404 48.6627C29.1242 48.6627 29.2558 49.0559 29.2997 45.7793C29.2997 44.425 29.5192 44.1628 30.8798 44.1191C31.9332 44.1191 32.9866 44.1191 34.0839 44.1628C34.9178 44.1628 35.4006 44.5123 35.3567 45.4298C35.3128 46.0414 35.3128 46.653 35.3567 47.3084C35.4445 48.3569 34.9178 48.7501 33.9083 48.7064C33.3377 48.6627 32.7671 48.6627 32.2404 48.6627Z" fill="#F58B71"/>
<path fill-rule="evenodd" clip-rule="evenodd" d="M32.2404 48.6627C29.1242 48.6627 29.2558 49.0559 29.2997 45.7793C29.2997 44.425 29.5192 44.1628 30.8798 44.1191C31.9332 44.1191 32.9866 44.1191 34.0839 44.1628C34.9178 44.1628 35.4006 44.5123 35.3567 45.4298C35.3128 46.0414 35.3128 46.653 35.3567 47.3084C35.4445 48.3569 34.9178 48.7501 33.9083 48.7064C33.3377 48.6627 32.7671 48.6627 32.2404 48.6627Z" stroke="#F58B71" stroke-width="0.0135276"/>
<path fill-rule="evenodd" clip-rule="evenodd" d="M32.237 56.4368C28.9451 56.4805 29.2963 56.6553 29.2963 53.5534C29.2963 52.1117 29.4279 51.9806 30.9202 51.9806C31.8858 51.9806 32.8953 51.9806 33.9048 51.9806C34.1243 51.9806 34.3876 51.937 34.5632 52.0243C36.1433 52.8107 35.0899 54.2524 35.3094 55.3883C35.4849 56.0873 34.9143 56.4368 34.2121 56.4368C33.5537 56.4368 32.8953 56.4368 32.237 56.4368Z" fill="#F58B71"/>
<path fill-rule="evenodd" clip-rule="evenodd" d="M32.237 56.4368C28.9451 56.4805 29.2963 56.6553 29.2963 53.5534C29.2963 52.1117 29.4279 51.9806 30.9202 51.9806C31.8858 51.9806 32.8953 51.9806 33.9048 51.9806C34.1243 51.9806 34.3876 51.937 34.5632 52.0243C36.1433 52.8107 35.0899 54.2524 35.3094 55.3883C35.4849 56.0873 34.9143 56.4368 34.2121 56.4368C33.5537 56.4368 32.8953 56.4368 32.237 56.4368Z" stroke="#F58B71" stroke-width="0.0135276"/>
<path fill-rule="evenodd" clip-rule="evenodd" d="M38.4896 90.8332C44.2777 93.0264 50.6086 94.235 57.243 94.235C65.4507 94.235 73.1755 92.3564 80.0226 89.0798C71.6832 95.3708 61.281 99.128 49.957 99.128C43.5464 99.128 37.4178 97.9199 31.7884 95.72L38.4896 90.8332ZM24.4433 82.7545C14.0123 74.2465 7.42639 61.7522 7.42639 47.8383C7.42639 22.2372 29.7232 1.4417 57.243 1.4417C59.262 1.4417 61.281 1.57277 63.2122 1.79121C58.9987 0.611632 54.5656 0 49.957 0C22.4811 0 0.184326 22.1935 0.184326 49.5858C0.184326 67.0371 9.26304 82.3894 22.973 91.2156L24.4433 82.7545Z" fill="#F47D5C"/>
<path d="M28.464 79.6172L21.5292 102.073L39.9196 85.1219L28.464 79.6172Z" fill="#377044"/>
<path fill-rule="evenodd" clip-rule="evenodd" d="M15.8386 48.6537C15.8386 69.755 33.0439 86.837 54.1995 86.837C67.5848 86.837 79.3603 80.027 86.2227 69.6952H91.1693C83.8329 82.4461 70.0297 91.031 54.1995 91.031C30.6738 91.031 11.625 72.0705 11.625 48.6537C11.625 25.2369 30.6738 6.27637 54.1995 6.27637C70.5532 6.27637 84.7435 15.4385 91.8757 28.8906H87.0357C80.3159 17.8458 68.1294 10.4704 54.1995 10.4704C33.0439 10.4704 15.8386 27.5524 15.8386 48.6537Z" fill="#377044"/>
<path d="M64.1488 34.2757C63.7976 34.2757 63.4026 34.3194 63.0515 34.4504C62.7442 34.5815 62.3931 34.7562 62.1298 35.0184C61.8225 35.2805 61.6031 35.63 61.3836 36.0232C61.1641 36.4164 60.9886 36.897 60.9008 37.4649H61.2519C62.0859 37.4649 62.832 37.596 63.5343 37.8144C64.2365 38.0328 64.8071 38.3387 65.3338 38.7319C65.8605 39.125 66.2556 39.6056 66.5628 40.2172C66.8261 40.7852 67.0017 41.4842 67.0017 42.2269C67.0017 42.7948 66.87 43.3628 66.6945 43.7997C66.5189 44.2802 66.2556 44.6297 65.9044 44.9792C65.5533 45.2851 65.1144 45.5035 64.6316 45.6782C64.1488 45.853 63.6221 45.9404 63.0515 45.9404C62.3492 45.9404 61.6908 45.8093 61.1203 45.5472C60.5058 45.3287 59.9791 44.9356 59.5402 44.4113C59.0574 43.887 58.7062 43.188 58.4429 42.4016C58.1795 41.5716 58.0479 40.6104 58.0479 39.4309C58.0479 38.0765 58.2234 36.9406 58.5745 35.9795C58.9257 35.0621 59.3646 34.2757 59.8913 33.6641C60.4619 33.0961 61.0764 32.6592 61.7347 32.3971C62.437 32.135 63.1393 32.0039 63.8415 32.0039C64.3243 32.0039 64.7194 32.0476 65.0705 32.135C65.3777 32.2223 65.6411 32.3534 65.8166 32.4845C65.9922 32.6155 66.1239 32.7903 66.2117 32.965C66.2994 33.1835 66.3433 33.3582 66.3433 33.5767C66.3433 33.7951 66.2994 34.0136 66.1678 34.1883C66.08 34.4067 65.9483 34.5378 65.7727 34.6252C65.5972 34.5378 65.3338 34.4504 65.0705 34.3631C64.8071 34.3194 64.4999 34.2757 64.1488 34.2757ZM61.208 39.7804C61.1203 39.7804 61.0325 39.7804 60.9447 39.7804C60.8569 39.7804 60.7691 39.7804 60.7252 39.8241V39.9551C60.7252 40.5668 60.7691 41.091 60.9008 41.5716C61.0325 42.0085 61.208 42.4016 61.3836 42.7075C61.6031 43.0133 61.8664 43.2317 62.1298 43.3628C62.3931 43.5375 62.7003 43.5812 62.9637 43.5812C63.4026 43.5812 63.7537 43.4502 63.9732 43.188C64.2365 42.9696 64.3682 42.5764 64.3682 42.1395C64.3682 41.79 64.2804 41.4842 64.1488 41.2221C64.0171 40.9163 63.7976 40.6541 63.5343 40.4794C63.2709 40.2609 62.9637 40.0862 62.5687 39.9551C62.1736 39.8241 61.7347 39.7804 61.208 39.7804Z" fill="#377044"/>
<path d="M79.9407 45.7219C79.8091 45.7219 79.6774 45.7656 79.4579 45.8093C79.2824 45.853 79.0629 45.853 78.8434 45.853C78.4045 45.853 78.0534 45.7656 77.8339 45.6346C77.5706 45.4598 77.4828 45.154 77.4828 44.6734V41.4405C77.4828 41.1347 77.395 40.9163 77.2634 40.7852C77.0878 40.6104 76.9122 40.5668 76.6489 40.5668C76.3855 40.5668 76.1661 40.6104 76.0344 40.7852C75.8588 40.9163 75.7711 41.1347 75.7711 41.4405V45.7219C75.6833 45.7219 75.5077 45.7656 75.3322 45.8093C75.1127 45.853 74.8932 45.853 74.6738 45.853C74.2349 45.853 73.8837 45.7656 73.7082 45.6346C73.4887 45.4598 73.4009 45.154 73.4009 44.6734V41.4842C73.4009 41.2221 73.3132 40.9599 73.1815 40.7852C73.0059 40.6541 72.8304 40.5668 72.567 40.5668C71.9964 40.5668 71.6892 40.8726 71.6892 41.5279V45.7219C71.6014 45.7219 71.4258 45.7656 71.2503 45.8093C71.0308 45.853 70.8553 45.853 70.6358 45.853C70.153 45.853 69.8019 45.7656 69.5824 45.6346C69.363 45.4598 69.2313 45.154 69.2313 44.6734V41.3531C68.7485 41.0473 68.3096 40.6104 68.0023 40.0425C67.6512 39.5182 67.5195 38.8192 67.5195 37.9892C67.5195 37.1154 67.6951 36.2853 68.0462 35.5426C68.4412 34.7999 68.9679 34.1883 69.6702 33.6641C70.3286 33.1398 71.1625 32.7466 72.1281 32.4408C73.0498 32.135 74.1471 32.0039 75.2883 32.0039C76.5172 32.0039 77.6584 32.1787 78.7557 32.5282C79.8091 32.8777 80.7747 33.4019 81.5647 34.1009C82.3547 34.7562 83.0131 35.5863 83.452 36.5475C83.9348 37.5523 84.1543 38.6445 84.1543 39.8677C84.1543 40.2172 84.1104 40.6104 84.0665 40.9599C84.0226 41.3531 83.9348 41.7026 83.847 42.0085C83.7593 42.358 83.6715 42.6638 83.5837 42.9696C83.452 43.2754 83.3203 43.5375 83.2326 43.756L85.471 45.6346C85.471 46.1151 85.3393 46.4646 85.1199 46.7704C84.8565 47.0326 84.5054 47.2073 84.0665 47.2073C83.847 47.2073 83.6715 47.1636 83.452 47.0763C83.2326 46.9889 83.0131 46.8141 82.7498 46.5957C82.5303 46.4209 82.2231 46.1151 81.9597 45.7656C81.6525 45.3724 81.3452 44.9356 80.9941 44.3676C80.8624 44.1492 80.7747 43.9744 80.7747 43.7997C80.7747 43.7123 80.8185 43.6249 80.8185 43.4938C80.8624 43.3628 80.8624 43.2754 80.9063 43.1007C81.0819 42.6638 81.1697 42.1832 81.2575 41.659C81.3452 41.1347 81.3891 40.6541 81.3891 40.1736C81.3891 39.2561 81.2575 38.426 80.9502 37.6833C80.5991 36.9843 80.1602 36.3727 79.6335 35.8484C79.1068 35.3679 78.4484 34.9747 77.7023 34.7126C77 34.4504 76.21 34.3194 75.376 34.3194C74.5421 34.3194 73.796 34.4067 73.1376 34.6252C72.5231 34.7999 71.9964 35.0621 71.5575 35.4116C71.1186 35.7611 70.8114 36.1543 70.5919 36.5911C70.3725 37.028 70.2408 37.5086 70.2408 38.0328C70.2408 38.4697 70.3286 38.8629 70.5041 39.1687C70.7236 38.9066 71.0308 38.7319 71.3381 38.6008C71.6892 38.426 72.0403 38.3824 72.4792 38.3824C73.0059 38.3824 73.4887 38.4697 73.8399 38.6882C74.2349 38.9066 74.5421 39.1687 74.7177 39.4746C74.8932 39.2561 75.1566 38.994 75.5516 38.7319C75.9027 38.5134 76.3855 38.3824 76.9561 38.3824C77.7901 38.3824 78.4923 38.6445 79.0629 39.125C79.6335 39.6493 79.9407 40.392 79.9407 41.3968V45.7219Z" fill="#377044"/>
<path d="M99.3932 45.7183C99.3055 45.762 99.1299 45.762 98.8666 45.8057C98.6471 45.8493 98.4276 45.8493 98.2082 45.8493C97.7254 45.8493 97.3742 45.762 97.1109 45.6309C96.8475 45.4561 96.7159 45.1503 96.7159 44.6261V37.8981C96.4086 37.9855 96.0575 38.0292 95.6625 38.0292C95.2236 38.0292 94.7846 37.9855 94.3896 37.8544C93.9946 37.7671 93.6435 37.5486 93.3362 37.3302C93.029 37.0681 92.8095 36.7622 92.634 36.3691C92.4145 35.9759 92.3267 35.539 92.3267 35.0147C92.3267 34.7526 92.3706 34.5342 92.4145 34.3594C92.2828 34.3157 92.1511 34.272 91.9756 34.272C91.8 34.2283 91.6244 34.2283 91.405 34.2283C90.4394 34.2283 89.6493 34.4468 89.0348 34.971C88.4643 35.4516 88.157 36.1506 88.157 36.9807C88.157 37.3302 88.2009 37.6797 88.3326 38.0292C88.4204 38.3787 88.6398 38.7282 88.9032 38.9903C89.1665 38.8156 89.4738 38.6845 89.8249 38.5535C90.2199 38.4224 90.6149 38.3787 91.0539 38.3787C91.5806 38.3787 92.1073 38.4661 92.5901 38.6408C93.0729 38.8156 93.4679 39.0777 93.819 39.3835C94.1702 39.6893 94.4335 40.0825 94.653 40.5631C94.8285 41.0437 94.9163 41.5679 94.9163 42.1796C94.9163 42.7912 94.8285 43.3591 94.653 43.796C94.4335 44.2766 94.1702 44.6698 93.819 44.9756C93.4679 45.2814 93.029 45.4998 92.5462 45.6746C92.0634 45.8057 91.5367 45.893 90.9661 45.893C90.4394 45.893 89.9566 45.8057 89.4738 45.6746C88.991 45.4998 88.5959 45.2814 88.2448 44.9319C87.8937 44.6261 87.6303 44.2329 87.4109 43.7523C87.1914 43.3154 87.1036 42.7475 87.1036 42.1359C87.1036 41.8737 87.1036 41.6116 87.1914 41.3932C87.2353 41.1747 87.2792 41 87.367 40.7815C86.7525 40.432 86.2697 39.9078 85.9185 39.2525C85.5674 38.6408 85.3918 37.8981 85.3918 37.0681C85.3918 36.2817 85.5674 35.539 85.8747 34.9274C86.1819 34.3157 86.5769 33.7478 87.1036 33.3546C87.6303 32.9177 88.2448 32.6119 88.9471 32.3498C89.6493 32.1313 90.3516 32.0439 91.1416 32.0439C91.8878 32.0439 92.5023 32.0876 93.0729 32.175C93.5996 32.2624 94.0824 32.4371 94.5213 32.6119C94.7407 32.6993 94.8285 32.8303 94.8285 32.9614C94.8285 33.0925 94.7846 33.2672 94.7407 33.5293C94.653 33.7915 94.6091 34.141 94.6091 34.4905C94.6091 35.0147 94.6969 35.3642 94.9163 35.6264C95.1797 35.8448 95.4869 35.9759 95.8819 35.9759C96.2331 35.9759 96.4964 35.8885 96.7159 35.7137V32.4808C96.8036 32.4808 96.9792 32.4371 97.1987 32.3934C97.462 32.3498 97.6815 32.3498 97.9009 32.3498C98.3837 32.3498 98.7349 32.4371 98.9982 32.5682C99.2616 32.743 99.3932 33.0488 99.3932 33.573V45.7183ZM89.6054 42.1796C89.6054 42.6601 89.7371 43.0533 90.0005 43.3591C90.3077 43.6213 90.6149 43.7523 91.0539 43.7523C91.4489 43.7523 91.8 43.6213 92.0634 43.3591C92.3267 43.0533 92.4584 42.6601 92.4584 42.1796C92.4584 41.6553 92.3267 41.2184 92.0634 40.9563C91.8 40.6505 91.4489 40.5194 91.0539 40.5194C90.6149 40.5194 90.3077 40.6942 90.0005 40.9563C89.7371 41.2621 89.6054 41.6553 89.6054 42.1796Z" fill="#377044"/>
<path d="M71.4824 60.5826C71.4824 60.4515 71.4824 60.2768 71.4824 60.1457C71.4824 60.0147 71.5263 59.8836 71.5701 59.7525C71.3507 59.5778 71.1312 59.3156 70.9557 58.9225C70.7362 58.5729 70.6484 58.1361 70.6484 57.5681C70.6484 56.9565 70.7801 56.4322 71.0435 55.908C71.3068 55.4274 71.6579 54.9905 72.0968 54.641C72.5796 54.2915 73.1063 54.0294 73.7208 53.811C74.3792 53.6362 75.0814 53.5488 75.8276 53.5488C76.6176 53.5488 77.4077 53.6362 78.1099 53.8983C78.8122 54.1168 79.4266 54.4663 79.9533 54.9468C80.48 55.3837 80.9189 55.9517 81.1823 56.5633C81.4895 57.2186 81.6651 57.9613 81.6651 58.7477C81.6651 59.272 81.5773 59.7525 81.4895 60.2768C81.3579 60.7573 81.1823 61.1942 81.0067 61.5874L82.499 62.9417C82.499 63.2039 82.4551 63.4223 82.2796 63.5534C82.1479 63.7281 81.9723 63.8155 81.6651 63.8155C81.5773 63.8155 81.4456 63.7718 81.314 63.7281C81.1823 63.6844 81.0506 63.5971 80.8751 63.466C80.6995 63.3349 80.5678 63.1165 80.3484 62.8981C80.1728 62.6796 79.9533 62.3738 79.7339 61.9806C79.6461 61.8495 79.6022 61.7185 79.6022 61.6311C79.6022 61.5 79.6461 61.369 79.69 61.1942C79.8217 60.8884 79.9095 60.4952 79.9972 60.102C80.0411 59.7088 80.085 59.3156 80.085 58.9661C80.085 58.3108 79.9972 57.7429 79.7778 57.2186C79.5583 56.7381 79.2511 56.3012 78.8561 55.9517C78.461 55.6022 78.0221 55.34 77.4954 55.1653C76.9687 54.9468 76.4421 54.8595 75.8276 54.8595C75.257 54.8595 74.7303 54.9468 74.2914 55.0779C73.8525 55.209 73.4575 55.4274 73.1502 55.6895C72.843 55.908 72.6235 56.2138 72.448 56.5633C72.3163 56.9128 72.2285 57.2623 72.2285 57.6992C72.2285 57.8303 72.2285 58.005 72.2724 58.1361C72.3163 58.3108 72.3602 58.4419 72.448 58.5293C72.6235 58.3982 72.7991 58.2671 73.0186 58.2234C73.1941 58.1361 73.4575 58.0924 73.6769 58.0924C74.0719 58.0924 74.3792 58.1798 74.6425 58.3108C74.9059 58.4856 75.0814 58.6603 75.257 58.9225C75.3887 58.704 75.6081 58.4856 75.8715 58.3108C76.1787 58.1798 76.4859 58.0924 76.8371 58.0924C77.4516 58.0924 77.9782 58.3108 78.3294 58.704C78.7244 59.1409 78.9438 59.7525 78.9438 60.5389C78.9438 60.9758 78.8561 61.369 78.7683 61.6748C78.6366 61.9806 78.5049 62.2427 78.2855 62.4612C78.1099 62.6359 77.8905 62.8107 77.6271 62.8981C77.4077 62.9854 77.1004 63.0291 76.8371 63.0291C76.3982 63.0291 76.0909 62.9417 75.8276 62.8107C75.5642 62.6359 75.3448 62.4175 75.257 62.1991C75.1253 62.4175 74.9498 62.5922 74.6864 62.767C74.4231 62.9417 74.028 63.0291 73.5891 63.0291C73.2819 63.0291 73.0186 62.9854 72.7552 62.8981C72.4919 62.8107 72.2724 62.6359 72.053 62.4612C71.8774 62.2427 71.7457 61.9806 71.614 61.6748C71.5263 61.369 71.4824 60.9758 71.4824 60.5826ZM75.8276 60.9321C75.8715 61.1942 75.9593 61.4127 76.0909 61.5874C76.2665 61.7622 76.4421 61.8495 76.6615 61.8495C76.9249 61.8495 77.1004 61.7185 77.276 61.5437C77.4516 61.3253 77.5393 60.9758 77.5393 60.4952C77.5393 60.0583 77.4516 59.7525 77.276 59.5778C77.1443 59.3593 76.9249 59.272 76.7054 59.272C76.4859 59.272 76.2665 59.3593 76.1348 59.5341C75.9593 59.7088 75.8715 60.0583 75.8715 60.5389L75.8276 60.9321ZM74.5547 60.1894C74.467 59.8836 74.3792 59.6651 74.2475 59.4904C74.0719 59.3593 73.8964 59.272 73.6769 59.272C73.4575 59.272 73.2819 59.403 73.1063 59.5778C72.9308 59.7525 72.843 60.102 72.843 60.5826C72.843 61.0195 72.9308 61.369 73.1063 61.5437C73.2819 61.7622 73.4575 61.8495 73.6769 61.8495C73.9403 61.8495 74.1158 61.7622 74.2475 61.5874C74.3792 61.4127 74.467 61.1069 74.5109 60.67L74.5547 60.1894Z" fill="#373435"/>
<path d="M87.0766 63.8558C87.1205 64.1179 87.1644 64.3801 87.296 64.5985C87.4277 64.8169 87.5594 65.0354 87.7349 65.2101C87.9544 65.3849 88.1738 65.5596 88.4372 65.647C88.7005 65.7344 88.9639 65.8218 89.315 65.8218C89.0956 65.647 88.92 65.4723 88.7883 65.2101C88.6566 64.9917 88.5689 64.6859 88.5689 64.2927C88.5689 63.8558 88.7005 63.5063 88.92 63.2442C89.1833 62.9384 89.4906 62.7636 89.7978 62.6762V55.0745C89.71 55.0308 89.5784 54.9871 89.4028 54.9435C89.2272 54.8998 89.0517 54.8561 88.8322 54.8561C88.6128 54.8561 88.4372 54.8998 88.2616 54.9871C88.0422 55.0308 87.9105 55.1182 87.7349 55.2493C87.6033 55.3803 87.4716 55.5114 87.3838 55.6861C87.296 55.8609 87.2521 56.0793 87.2521 56.3415C87.5594 56.3852 87.7788 56.5162 87.9544 56.6473C88.13 56.822 88.2177 56.9531 88.2177 57.0842C88.2177 57.2589 88.1738 57.39 88.0861 57.521C88.0422 57.6521 87.9105 57.7395 87.8227 57.8269C87.6033 57.7395 87.4277 57.6521 87.1644 57.5647C86.9449 57.521 86.6816 57.4774 86.4182 57.4774C86.2426 57.4774 86.0232 57.4774 85.8476 57.521C85.6721 57.5647 85.4965 57.6521 85.3209 57.7395C85.1454 57.8269 84.9698 57.9579 84.8381 58.1327C84.6626 58.2637 84.5748 58.4822 84.487 58.7006C84.6187 58.7006 84.7942 58.6569 84.9259 58.6569C85.1015 58.6132 85.2331 58.6132 85.4087 58.6132C85.8915 58.6132 86.3304 58.6569 86.7254 58.788C87.1205 58.9191 87.4716 59.0938 87.7349 59.2686C87.9983 59.487 88.2177 59.7491 88.3494 60.0549C88.4811 60.3171 88.5689 60.6229 88.5689 60.9724C88.5689 61.2782 88.4811 61.584 88.3933 61.8462C88.3055 62.1083 88.13 62.3267 87.9105 62.5015C87.691 62.6762 87.4277 62.851 87.1205 62.9384C86.8132 63.0257 86.4621 63.0694 86.0671 63.0694C85.6282 63.0694 85.2331 63.0257 84.8381 62.851C84.487 62.7199 84.1359 62.5015 83.8286 62.2393C83.5214 61.9772 83.3019 61.584 83.1264 61.1908C82.9508 60.754 82.863 60.2734 82.863 59.7054C82.863 59.1375 82.9508 58.6569 83.1264 58.2637C83.3019 57.8269 83.5214 57.4774 83.8286 57.2152C84.092 56.9094 84.3992 56.691 84.7503 56.5162C85.1015 56.3852 85.4087 56.2978 85.7598 56.2541V56.0793C85.7598 55.6861 85.8476 55.3803 86.0232 55.0745C86.1988 54.7687 86.4182 54.5066 86.6816 54.2881C86.9449 54.0697 87.296 53.8949 87.6472 53.8076C87.9983 53.6765 88.3933 53.6328 88.7883 53.6328C89.315 53.6328 89.7978 53.6765 90.1489 53.8076C90.5001 53.8949 90.8073 54.026 90.9829 54.2008C91.1584 54.2881 91.2462 54.4192 91.2901 54.5503C91.334 54.6813 91.334 54.8124 91.334 54.9871V62.7199C91.6851 62.851 91.9485 63.0694 92.124 63.3315C92.3435 63.5937 92.4752 63.9869 92.4752 64.4237C92.4752 64.7733 92.3874 65.0791 92.2557 65.3849C92.0801 65.6907 91.9046 65.9528 91.6412 66.1713C91.334 66.3897 91.0268 66.5645 90.6317 66.6518C90.2806 66.7829 89.8417 66.8703 89.315 66.8703C88.7444 66.8703 88.2616 66.7829 87.8227 66.6081C87.3838 66.4771 87.0327 66.2586 86.7693 66.0402C86.4621 65.8218 86.2865 65.5596 86.111 65.2538C85.9793 64.9917 85.9354 64.6859 85.9354 64.4237C85.9354 64.2053 85.9793 64.0306 86.111 63.8995C86.2426 63.8121 86.4182 63.7684 86.6377 63.7684C86.7254 63.7684 86.8132 63.7684 86.8571 63.7684C86.9449 63.8121 86.9888 63.8121 87.0766 63.8558ZM85.2331 59.8365C84.9698 59.8365 84.6626 59.8802 84.3114 59.9239C84.3553 60.2734 84.3992 60.5355 84.487 60.754C84.5748 61.0161 84.7065 61.1908 84.882 61.3656C85.0576 61.5403 85.2331 61.6277 85.4087 61.7151C85.6282 61.8025 85.8476 61.8462 86.0671 61.8462C86.3743 61.8462 86.6377 61.7588 86.8132 61.584C86.9888 61.453 87.0766 61.2345 87.0766 60.9724C87.0766 60.8413 87.0766 60.7103 86.9888 60.5355C86.9449 60.4045 86.8132 60.3171 86.6816 60.186C86.506 60.0986 86.3304 60.0113 86.111 59.9239C85.8476 59.8802 85.5404 59.8365 85.2331 59.8365ZM89.7978 64.3801C89.7978 64.6422 89.8856 64.8606 90.0173 65.0354C90.1489 65.2538 90.2806 65.3849 90.5001 65.4723C90.6756 65.4286 90.8073 65.2538 90.9829 65.0791C91.1145 64.9043 91.2023 64.6859 91.2023 64.3801C91.2023 64.1616 91.1145 63.9432 91.0268 63.8121C90.8951 63.6374 90.7195 63.5937 90.5001 63.5937C90.2806 63.5937 90.105 63.6374 90.0173 63.8121C89.8856 63.9432 89.7978 64.1616 89.7978 64.3801Z" fill="#373435"/>
<path d="M87.5521 50.8555C87.9471 50.8555 88.3421 50.8992 88.6932 50.9428C89.0883 51.0302 89.4394 51.1176 89.7466 51.205C90.0539 51.2923 90.3611 51.4234 90.6245 51.5108C90.8878 51.6419 91.1512 51.7729 91.3267 51.904C91.5023 52.035 91.634 52.1661 91.7218 52.2535C91.8534 52.3845 91.8973 52.5156 91.8973 52.6467C91.8973 52.8214 91.8534 52.9525 91.7218 53.0836C91.634 53.1709 91.5023 53.302 91.3267 53.3894C90.8 52.9962 90.2733 52.6904 89.6589 52.4719C89.0005 52.2535 88.3421 52.1661 87.5521 52.1661C86.762 52.1661 86.0597 52.2535 85.4453 52.4719C84.7869 52.6904 84.2602 52.9962 83.7774 53.3894C83.6457 53.302 83.514 53.2146 83.3824 53.0836C83.2946 52.9962 83.2068 52.8214 83.2068 52.6467C83.2068 52.5156 83.2507 52.3845 83.3385 52.2972C83.3824 52.1661 83.4701 52.0787 83.6018 51.9477C84.0407 51.6419 84.5674 51.3797 85.1819 51.1613C85.8403 50.9865 86.6303 50.8555 87.5521 50.8555Z" fill="#373435"/>
<path d="M105.403 62.8949C105.359 62.9386 105.228 62.9386 105.14 62.9823C105.008 62.9823 104.876 62.9823 104.745 62.9823C104.481 62.9823 104.262 62.9386 104.13 62.8512C103.955 62.7639 103.911 62.5891 103.911 62.2833V53.8515C103.955 53.8515 104.043 53.8078 104.174 53.8078C104.306 53.8078 104.438 53.7641 104.525 53.7641C104.833 53.7641 105.052 53.8078 105.184 53.8952C105.359 53.9826 105.403 54.1573 105.403 54.4631V62.8949ZM92.9819 55.599C92.9819 55.2495 93.0258 54.9437 93.1574 54.7253C93.2452 54.4631 93.3769 54.2884 93.5525 54.1136C93.728 53.9826 93.9036 53.8515 94.1231 53.7641C94.3425 53.7204 94.562 53.6768 94.7814 53.6768C95.1764 53.6768 95.4837 53.7641 95.7031 53.9389C95.9226 54.0699 96.0982 54.2884 96.1859 54.4631C96.3176 54.2447 96.4932 54.0263 96.7126 53.8952C96.976 53.7641 97.2393 53.6768 97.5905 53.6768C97.8099 53.6768 98.0294 53.7204 98.2488 53.8078C98.5122 53.8952 98.6878 54.0263 98.8633 54.201C99.0389 54.3758 99.1706 54.5942 99.2583 54.9C99.39 55.1621 99.4339 55.5117 99.4339 55.9048C99.4339 56.3854 99.39 56.7786 99.2583 57.1281C99.1267 57.4776 98.9072 57.7397 98.6439 58.0019C98.4244 58.2203 98.1172 58.4387 97.7221 58.5698C97.371 58.7009 96.9321 58.8319 96.4932 58.8756L96.1421 58.9193C95.6154 59.0067 95.2203 59.1378 94.957 59.3562C94.6936 59.5309 94.562 59.8368 94.562 60.23C94.562 60.6668 94.7814 61.0163 95.1764 61.2785C95.5276 61.5843 96.1421 61.7153 97.0199 61.7153C97.4149 61.7153 97.766 61.6717 98.1172 61.5843C98.4683 61.5406 98.7755 61.4095 99.0389 61.2785C99.3022 61.1911 99.5656 61.0163 99.7412 60.8853C99.9606 60.7105 100.136 60.5795 100.268 60.4047V53.8515C100.312 53.8515 100.443 53.8078 100.531 53.8078C100.663 53.8078 100.795 53.7641 100.926 53.7641C101.19 53.7641 101.409 53.8078 101.541 53.8952C101.716 53.9826 101.804 54.201 101.804 54.4631V62.8949C101.716 62.9386 101.628 62.9386 101.497 62.9823C101.365 62.9823 101.233 62.9823 101.146 62.9823C100.838 62.9823 100.619 62.9386 100.487 62.8512C100.356 62.7639 100.268 62.5891 100.268 62.327V62.0649C100.092 62.1959 99.9167 62.327 99.6973 62.4144C99.4778 62.5454 99.2145 62.6328 98.9511 62.7202C98.6439 62.8075 98.3366 62.8949 97.9416 62.9386C97.5905 63.026 97.1955 63.026 96.8004 63.026C95.5715 63.026 94.6059 62.8075 93.9475 62.327C93.2891 61.8464 92.938 61.1474 92.938 60.23C92.938 59.3999 93.2013 58.7883 93.728 58.3951C94.2547 57.9582 95.0448 57.7397 96.0104 57.6087H96.2298C96.8443 57.5213 97.2832 57.3465 97.5905 57.0844C97.8977 56.7786 98.0294 56.3417 98.0294 55.7738C98.0294 55.4243 97.9855 55.1621 97.8538 55.0311C97.7221 54.8563 97.5905 54.8126 97.4149 54.8126C97.2393 54.8126 97.1077 54.8563 96.976 54.9874C96.8443 55.1185 96.8004 55.2932 96.8004 55.5553V56.5602C96.7565 56.6039 96.6249 56.6475 96.5371 56.6912C96.4054 56.6912 96.3176 56.6912 96.1859 56.6912C96.0982 56.6912 95.9665 56.6912 95.8787 56.6475C95.747 56.6475 95.6593 56.6039 95.6154 56.5602V55.5117C95.6154 55.2932 95.5276 55.0748 95.4398 54.9874C95.3081 54.8563 95.1764 54.8126 95.0448 54.8126C94.8692 54.8126 94.7375 54.8563 94.6059 54.9874C94.4742 55.1185 94.3864 55.3369 94.3864 55.6427C94.3864 55.8612 94.4303 56.0796 94.4742 56.2107C94.562 56.3854 94.6498 56.5165 94.6936 56.6039C94.6498 56.6912 94.6059 56.8223 94.4742 56.9097C94.3864 56.997 94.2108 57.0407 94.0353 57.0407C93.9036 57.0407 93.7719 56.997 93.6403 56.9534C93.5525 56.9097 93.4208 56.8223 93.333 56.6912C93.2013 56.5602 93.1574 56.4291 93.0697 56.2543C93.0258 56.0796 92.9819 55.8612 92.9819 55.599Z" fill="#373435"/>
</svg>
