<svg width="108" height="103" viewBox="0 0 108 103" fill="none" xmlns="http://www.w3.org/2000/svg">
<path fill-rule="evenodd" clip-rule="evenodd" d="M39.1342 90.8191C44.9262 93.0212 51.2618 94.235 57.8998 94.235C66.1075 94.235 73.8762 92.3564 80.7233 89.0798C72.34 95.3708 61.9378 99.128 50.6577 99.128C44.2277 99.128 38.0828 97.9164 32.4408 95.7105L39.1342 90.8191ZM25.1097 82.7323C14.7015 74.2247 8.12708 61.74 8.12708 47.8383C8.12708 22.2372 30.4239 1.4417 57.8998 1.4417C59.9188 1.4417 61.9378 1.57277 63.9129 1.79121C59.6993 0.611632 55.2224 0 50.6577 0C23.1379 0 0.841125 22.1935 0.841125 49.5858C0.841125 67.035 9.91757 82.3855 23.636 91.2123L25.1097 82.7323Z" fill="#F47D5C"/>
<path d="M29.163 79.6162L22.2281 102.072L40.5747 85.1209L29.163 79.6162Z" fill="#377044"/>
<path fill-rule="evenodd" clip-rule="evenodd" d="M16.4988 48.6527C16.4988 69.754 33.6602 86.836 54.8597 86.836C68.907 86.836 81.2126 79.3047 87.8961 68.0663H92.6765C85.6087 81.709 71.3239 91.0301 54.8597 91.0301C31.334 91.0301 12.2852 72.0695 12.2852 48.6527C12.2852 25.236 31.334 6.27539 54.8597 6.27539C70.5156 6.27539 84.2009 14.7037 91.584 27.2617H86.6364C79.7332 17.1261 68.0661 10.4694 54.8597 10.4694C33.6602 10.4694 16.4988 27.5514 16.4988 48.6527Z" fill="#377044"/>
<path fill-rule="evenodd" clip-rule="evenodd" d="M36.1296 60.0253C33.7595 60.0253 31.4772 60.069 29.1509 59.9816C27.5269 59.9379 26.3858 58.7146 26.3858 57.0545C26.3858 49.977 26.3858 42.8996 26.3858 35.8658C26.3858 34.2057 27.6586 32.9824 29.2826 32.9824C34.9885 32.9824 40.6943 32.9824 46.4002 32.9824C47.9364 32.9824 49.2092 34.0746 49.2531 35.56C49.297 39.3172 49.2531 43.0743 49.2531 46.8752C48.3753 46.3946 47.4975 46.0014 46.6197 45.5209C46.488 45.4335 46.4441 45.0403 46.4441 44.7782C46.4441 42.0695 46.4441 39.3609 46.4441 36.6522V35.8221H29.3265V57.1419C30.9066 57.1419 32.4867 57.1419 34.0667 57.1419C34.5057 57.1419 34.769 57.2293 34.9446 57.7098C35.2957 58.4525 35.6907 59.1515 36.1296 60.0253Z" fill="#F58B71"/>
<path fill-rule="evenodd" clip-rule="evenodd" d="M36.1296 60.0253C33.7595 60.0253 31.4772 60.069 29.1509 59.9816C27.5269 59.9379 26.3858 58.7146 26.3858 57.0545C26.3858 49.977 26.3858 42.8996 26.3858 35.8658C26.3858 34.2057 27.6586 32.9824 29.2826 32.9824C34.9885 32.9824 40.6943 32.9824 46.4002 32.9824C47.9364 32.9824 49.2092 34.0746 49.2531 35.56C49.297 39.3172 49.2531 43.0743 49.2531 46.8752C48.3753 46.3946 47.4975 46.0014 46.6197 45.5209C46.488 45.4335 46.4441 45.0403 46.4441 44.7782C46.4441 42.0695 46.4441 39.3609 46.4441 36.6522V35.8221H29.3265V57.1419C30.9066 57.1419 32.4867 57.1419 34.0667 57.1419C34.5057 57.1419 34.769 57.2293 34.9446 57.7098C35.2957 58.4525 35.6907 59.1515 36.1296 60.0253Z" stroke="#F58B71" stroke-width="0.0116378"/>
<path fill-rule="evenodd" clip-rule="evenodd" d="M47.9115 54.342C47.8676 51.9829 45.9364 50.0169 43.5662 50.0169C41.2839 50.0169 39.2649 51.9829 39.2649 54.2546C39.2649 56.6575 41.24 58.6234 43.6101 58.6234C45.9364 58.5798 47.9115 56.6138 47.9115 54.342ZM49.5355 58.2739C50.8961 59.5846 52.2567 60.8515 53.5296 62.0748C52.8273 62.7738 52.1689 63.4291 51.4667 64.1281C50.5889 63.2981 49.5794 62.3806 48.6576 61.3758C47.9554 60.5894 47.4287 60.371 46.2875 60.8515C43.654 61.9874 41.0644 61.5505 38.8699 59.6283C36.6753 57.6623 35.9292 55.1721 36.7192 52.3761C37.5092 49.58 39.4844 47.7888 42.3812 47.3083C45.1902 46.8277 47.5604 47.7888 49.2721 50.0606C50.9839 52.3761 51.1594 54.8663 50.0183 57.4439C49.8866 57.706 49.7549 57.9244 49.5355 58.2739Z" fill="#F58B71"/>
<path fill-rule="evenodd" clip-rule="evenodd" d="M47.9115 54.342C47.8676 51.9829 45.9364 50.0169 43.5662 50.0169C41.2839 50.0169 39.2649 51.9829 39.2649 54.2546C39.2649 56.6575 41.24 58.6234 43.6101 58.6234C45.9364 58.5798 47.9115 56.6138 47.9115 54.342ZM49.5355 58.2739C50.8961 59.5846 52.2567 60.8515 53.5296 62.0748C52.8273 62.7738 52.1689 63.4291 51.4667 64.1281C50.5889 63.2981 49.5794 62.3806 48.6576 61.3758C47.9554 60.5894 47.4287 60.371 46.2875 60.8515C43.654 61.9874 41.0644 61.5505 38.8699 59.6283C36.6753 57.6623 35.9292 55.1721 36.7192 52.3761C37.5092 49.58 39.4844 47.7888 42.3812 47.3083C45.1902 46.8277 47.5604 47.7888 49.2721 50.0606C50.9839 52.3761 51.1594 54.8663 50.0183 57.4439C49.8866 57.706 49.7549 57.9244 49.5355 58.2739Z" stroke="#F58B71" stroke-width="0.0116378"/>
<path d="M70.1082 37.2554V41.3184C70.1082 41.799 70.0204 42.1485 69.801 42.3669C69.6254 42.5417 69.2743 42.6727 68.7476 42.6727H63.0856C63.1295 43.2407 63.2611 43.7649 63.4806 44.1581C63.7001 44.595 63.9634 44.9008 64.3145 45.163C64.6657 45.3814 65.0168 45.5998 65.4557 45.6872C65.8946 45.8183 66.2897 45.862 66.7286 45.862C67.1675 45.862 67.5625 45.8183 67.8697 45.7746C68.177 45.6872 68.4842 45.5998 68.7037 45.5125C68.967 45.3814 69.1426 45.294 69.3182 45.1193C69.4937 44.9882 69.6693 44.8571 69.8449 44.7261C70.1082 44.8135 70.3716 44.9882 70.5471 45.2503C70.7666 45.5125 70.8544 45.8183 70.8544 46.1241C70.8544 46.3862 70.8105 46.6484 70.6788 46.8668C70.5471 47.1289 70.3277 47.3474 70.0643 47.5221C69.7132 47.7842 69.2304 48.0027 68.6598 48.1337C68.0892 48.3085 67.4747 48.3522 66.7286 48.3522C65.9385 48.3522 65.1924 48.2648 64.4462 48.0901C63.7001 47.9153 63.0417 47.6095 62.4711 47.1726C61.8566 46.7794 61.3738 46.2115 60.9349 45.5125C60.5399 44.8135 60.2326 43.9834 60.101 42.9349C59.6621 42.8475 59.267 42.6291 58.9598 42.2796C58.6526 41.9737 58.477 41.5369 58.477 40.9689C58.477 40.2699 58.7403 39.702 59.2231 39.3088C59.7059 38.8719 60.3204 38.6971 61.0666 38.6971C61.4177 38.6971 61.725 38.7408 61.9883 38.8282C62.2516 38.9156 62.4711 39.0466 62.6028 39.134L62.7345 40.2699H67.0358V37.2554H58.0381C57.7308 37.2554 57.4675 37.1681 57.3358 36.9496C57.2041 36.7749 57.1602 36.469 57.1602 36.1195C57.1602 35.9448 57.1602 35.77 57.2041 35.5516C57.248 35.3332 57.2919 35.1584 57.3797 35.0273H71.3811C71.7322 35.0273 71.9516 35.1147 72.0833 35.3332C72.215 35.5079 72.2589 35.8137 72.2589 36.1632C72.2589 36.338 72.2589 36.5564 72.215 36.7749C72.1711 36.9933 72.1272 37.1681 72.0833 37.2554H70.1082Z" fill="#377044"/>
<path d="M67.1156 36.1261C66.984 35.4708 66.7645 34.8592 66.3695 34.3786C65.9745 33.8544 65.5355 33.4175 65.0089 33.068C64.4822 32.7185 63.9116 32.4563 63.2971 32.2379C62.6826 32.0631 62.0681 31.9758 61.4536 31.9321C61.4098 31.8447 61.3659 31.7136 61.322 31.5389C61.322 31.4078 61.2781 31.2768 61.2781 31.102C61.2781 30.6214 61.4536 30.2283 61.8048 29.8787C62.1559 29.5292 62.6387 29.3545 63.341 29.3545C64.131 29.3545 64.9211 29.5292 65.6233 29.8787C66.3256 30.2719 66.9401 30.7525 67.5107 31.3641C68.0813 31.9758 68.5641 32.7185 68.9152 33.5049C69.3102 34.3349 69.5297 35.2087 69.6613 36.1261H67.1156Z" fill="#377044"/>
<path d="M82.4254 48.2211C81.8987 48.2211 81.5036 48.1337 81.1964 47.959C80.8892 47.7405 80.7136 47.391 80.7136 46.7794V45.6435C80.4502 45.7746 80.0991 45.862 79.6163 45.9493C79.1774 46.0367 78.6946 46.0804 78.2118 46.0804C76.6317 46.0804 75.3589 45.7309 74.3055 45.0756C73.296 44.4203 72.5937 43.5465 72.1987 42.4543C72.5498 41.9737 72.8571 41.3621 73.0765 40.7505C73.296 40.0951 73.3837 39.4398 73.3837 38.7408C73.3837 38.4787 73.3837 38.2166 73.3399 37.9108C73.3399 37.6486 73.296 37.4302 73.2082 37.2554H71.7159C71.3647 37.2554 71.1453 37.1681 71.0136 36.9496C70.8819 36.7749 70.7942 36.469 70.7942 36.1195C70.7942 35.9448 70.8381 35.77 70.8819 35.5516C70.9258 35.3332 70.9697 35.1584 71.0136 35.0273H75.6661C75.9294 35.4205 76.105 35.9448 76.2806 36.6001C76.4561 37.2554 76.5439 37.9544 76.5439 38.6971H80.7136V36.338C80.7136 35.9011 80.8453 35.5516 81.0208 35.3332C81.2403 35.1584 81.5475 35.0273 82.0303 35.0273H85.1466C85.4977 35.0273 85.7172 35.1147 85.8489 35.3332C85.9806 35.5079 86.0244 35.8137 86.0244 36.1632C86.0244 36.338 86.0244 36.5127 85.9806 36.7312C85.9367 36.9933 85.8928 37.1681 85.805 37.2554H83.786V48.0464C83.6543 48.0901 83.4787 48.1337 83.2154 48.1774C82.9521 48.2211 82.6887 48.2211 82.4254 48.2211ZM78.3874 43.5028C78.9141 43.5028 79.353 43.4154 79.748 43.3281C80.143 43.197 80.4941 43.0659 80.7136 42.9349V40.8815H76.2367C76.1489 41.1 76.0611 41.3621 75.9733 41.5805C75.8856 41.8427 75.7539 42.0611 75.6222 42.2359C75.7978 42.5417 76.105 42.8038 76.5878 43.0659C77.0706 43.3717 77.6851 43.5028 78.3874 43.5028Z" fill="#377044"/>
<path d="M80.806 36.0028C80.8499 35.828 80.8499 35.6096 80.8938 35.3474C80.9377 35.129 80.9377 34.9106 80.9377 34.7358C80.9377 34.2989 80.806 33.9494 80.5426 33.731C80.2793 33.4689 79.8843 33.3815 79.4015 33.3815C79.1381 33.3815 78.8748 33.3815 78.5236 33.3815C78.2164 33.4252 77.9091 33.4252 77.6019 33.4252C76.5046 33.4252 75.6707 33.2067 75.1001 32.6825C74.5295 32.2019 74.2223 31.5903 74.2223 30.8476C74.2223 30.1486 74.3978 29.7117 74.749 29.4059C75.1001 29.1438 75.4951 29.0127 75.934 29.0127C76.1535 29.0127 76.3729 29.0564 76.5485 29.1001C76.768 29.1874 76.8996 29.2748 77.0313 29.3622C77.0313 29.4059 76.9874 29.537 76.9874 29.6243C76.9874 29.7554 76.9435 29.8865 76.9435 29.9301C76.9435 30.7165 77.4263 31.066 78.3481 31.066C78.6992 31.066 79.0503 31.066 79.4015 30.9787C79.7965 30.935 80.1037 30.8913 80.411 30.8913C81.3766 30.8913 82.1666 31.1534 82.7811 31.634C83.3956 32.1145 83.7028 32.8135 83.7028 33.731C83.7028 34.0805 83.6589 34.3863 83.5711 34.6484C83.5273 34.9106 83.4395 35.129 83.3517 35.3038L80.806 36.0028Z" fill="#377044"/>
<path d="M78.8776 63.1661C78.3509 63.1661 77.8242 63.0787 77.3853 62.9477C76.9464 62.8166 76.5514 62.6419 76.2441 62.4234C75.893 62.205 75.6296 61.9429 75.4102 61.6807C75.1907 61.3749 75.0591 61.0254 74.9713 60.6759C75.0591 60.2827 75.2785 59.8895 75.5419 59.54C75.8491 59.1468 76.2002 58.8847 76.5952 58.6663C76.288 58.4915 75.9808 58.1857 75.7174 57.7488C75.498 57.3556 75.3224 56.8314 75.2785 56.2197H73.3912V62.9914C73.3034 62.9914 73.2156 63.0351 73.0839 63.0351C72.9523 63.0351 72.8206 63.0787 72.6889 63.0787C72.4256 63.0787 72.2061 62.9914 72.0744 62.904C71.8989 62.8166 71.855 62.6419 71.855 62.336V56.2197H70.9333C70.7577 56.2197 70.626 56.176 70.5383 56.0887C70.4944 55.9576 70.4505 55.8265 70.4505 55.6518C70.4505 55.5644 70.4505 55.4334 70.4944 55.346C70.4944 55.2586 70.5383 55.1275 70.5383 55.0838H71.8111V53.948C71.8111 53.1179 72.0744 52.5063 72.5134 52.0694C72.9962 51.6325 73.6545 51.4141 74.4446 51.4141C74.8835 51.4141 75.2346 51.4578 75.5857 51.5888C75.893 51.6762 76.1563 51.8509 76.4197 52.0257C76.6391 52.2004 76.8147 52.4189 76.9025 52.681C77.0342 52.8995 77.0781 53.1616 77.0781 53.4674C77.0781 53.7732 77.0342 54.0353 76.8586 54.2101C76.7269 54.3412 76.5075 54.4285 76.288 54.4285C76.1124 54.4285 75.9808 54.4285 75.8491 54.3848C75.7174 54.3412 75.6296 54.2975 75.5419 54.2538C75.5419 54.1664 75.5419 54.079 75.5419 53.9917C75.5419 53.9043 75.5419 53.8169 75.5419 53.7295C75.5419 53.4237 75.4541 53.1616 75.2346 52.9868C75.0591 52.7684 74.7957 52.681 74.4446 52.681C74.1373 52.681 73.874 52.7684 73.6545 52.9868C73.479 53.2053 73.3912 53.5111 73.3912 53.948V55.0838H82.2133C82.5206 55.0838 82.6961 55.2586 82.6961 55.6518C82.6961 55.7392 82.6522 55.8265 82.6522 55.9576C82.6522 56.045 82.6084 56.1324 82.5645 56.2197H81.3355V58.6226C81.3355 58.9284 81.2916 59.1031 81.1599 59.2342C81.0722 59.3216 80.8527 59.409 80.5455 59.409H78.702C78.4387 59.409 78.1753 59.409 77.9559 59.4963C77.6925 59.5837 77.517 59.6711 77.3414 59.7585C77.1658 59.8895 76.9903 60.0206 76.8586 60.1953C76.7708 60.3264 76.683 60.5012 76.6391 60.6322C76.7708 61.0254 77.0342 61.2875 77.4731 61.506C77.912 61.7681 78.3948 61.8555 78.9654 61.8555C79.4921 61.8555 79.9749 61.7681 80.326 61.637C80.721 61.4623 80.9844 61.3312 81.2038 61.2002C81.3355 61.2438 81.4672 61.3312 81.555 61.4623C81.6427 61.5497 81.7305 61.7244 81.7305 61.8992C81.7305 62.0302 81.6866 62.205 81.5989 62.2924C81.5111 62.4234 81.3794 62.5108 81.2477 62.6419C81.0283 62.7729 80.721 62.904 80.326 62.9914C79.931 63.1224 79.4482 63.1661 78.8776 63.1661ZM79.8432 58.142V56.2197H76.9025C76.9464 56.6566 77.0781 57.0498 77.2536 57.3993C77.4731 57.7488 77.7364 58.0109 78.0437 58.1857C78.2631 58.142 78.4387 58.142 78.6142 58.142H79.8432Z" fill="#373435"/>
<path d="M79.4664 54.4184C79.247 54.4184 79.0714 54.331 78.9397 54.2C78.7642 54.0689 78.7203 53.8505 78.7203 53.501C78.7203 53.2825 78.7642 53.0204 78.8519 52.8456C78.9397 52.6272 79.0714 52.4525 79.247 52.2777C79.4225 52.1466 79.642 52.0593 79.8614 51.9719C80.0809 51.8845 80.3442 51.8408 80.6076 51.8408C80.8709 51.8408 81.0904 51.8845 81.3099 51.9719C81.5293 52.0593 81.7488 52.1466 81.9243 52.3214C82.056 52.4525 82.1877 52.6272 82.3193 52.8456C82.4071 53.0641 82.451 53.2825 82.451 53.501C82.451 53.8505 82.4071 54.0689 82.2316 54.2C82.0999 54.331 81.9243 54.4184 81.7488 54.4184C81.5293 54.4184 81.3976 54.331 81.266 54.2437C81.266 54.2 81.3099 54.1126 81.3099 54.0252C81.3099 53.9815 81.3099 53.8942 81.3099 53.8068C81.3099 53.5883 81.266 53.3699 81.1343 53.2388C80.9587 53.1078 80.7832 53.0204 80.6076 53.0204C80.3881 53.0204 80.2126 53.1078 80.0809 53.2388C79.9053 53.4136 79.8614 53.5883 79.8614 53.8068C79.8614 53.8942 79.8614 53.9815 79.8614 54.0252C79.9053 54.1126 79.9053 54.2 79.9492 54.2437C79.8176 54.331 79.642 54.4184 79.4664 54.4184Z" fill="#373435"/>
<path d="M89.4004 56.2179C89.3566 56.3927 89.3127 56.6111 89.2688 56.7859C89.181 57.0043 89.0932 57.1791 89.0054 57.3538C88.9176 57.5722 88.8299 57.7033 88.6982 57.8781C88.5665 58.0091 88.4787 58.1402 88.347 58.2276C88.6543 58.4023 88.9176 58.6644 89.181 59.0139C89.4004 59.3635 89.5321 59.8003 89.5321 60.3246C89.5321 60.7615 89.4443 61.1547 89.2688 61.5042C89.0932 61.8537 88.8299 62.1595 88.5226 62.3779C88.1715 62.6401 87.8204 62.8148 87.3814 62.9896C86.8986 63.1206 86.4158 63.1643 85.8891 63.1643C84.8796 63.1643 84.0896 62.9896 83.5629 62.6401C83.0362 62.2469 82.7728 61.81 82.7728 61.242C82.7728 60.7615 82.9484 60.3683 83.2995 60.0625C83.6507 59.8003 84.1335 59.6256 84.748 59.6256C85.0991 59.6256 85.4063 59.6693 85.6697 59.7566C85.9769 59.844 86.2403 59.9751 86.4597 60.1498C86.7231 60.2809 86.8986 60.4557 87.0742 60.6741C87.2498 60.8925 87.4253 61.111 87.557 61.3294C87.6887 61.1983 87.8204 61.0236 87.8642 60.8488C87.952 60.6741 87.9959 60.4557 87.9959 60.2372C87.9959 59.8877 87.9081 59.5819 87.7326 59.3635C87.557 59.1013 87.3814 58.9266 87.162 58.8392C86.8547 58.8829 86.5914 58.9703 86.2842 58.9703C86.0208 59.0139 85.6697 59.0576 85.2747 59.0576C84.6602 59.0576 84.1774 58.9703 83.914 58.8829C83.6068 58.7518 83.4312 58.5334 83.4312 58.1839C83.4312 58.0528 83.4751 57.9217 83.519 57.8344C83.5629 57.7033 83.6068 57.6159 83.6946 57.5722C84.309 57.5722 84.9235 57.6159 85.4941 57.6159C86.0647 57.6159 86.6353 57.6159 87.2059 57.6596C87.2937 57.5286 87.4253 57.3101 87.557 57.048C87.6887 56.7859 87.7765 56.5237 87.8204 56.2179H82.4217C82.2461 56.2179 82.1145 56.1742 82.0267 56.0869C81.9828 55.9558 81.9389 55.8247 81.9389 55.6063C81.9389 55.5626 81.9389 55.4315 81.9389 55.3442C81.9828 55.2568 81.9828 55.1257 82.0267 55.082H90.1466C90.4538 55.082 90.5855 55.2568 90.5855 55.65C90.5855 55.7374 90.5855 55.8247 90.5855 55.9558C90.5416 56.0432 90.5416 56.1305 90.4977 56.2179H89.4004ZM85.7575 61.9847C85.8891 61.9847 86.0208 61.9847 86.1525 61.9847C86.2842 61.9847 86.4158 61.941 86.5475 61.8974C86.3719 61.5479 86.1525 61.2857 85.8891 61.0673C85.5819 60.8925 85.2747 60.7615 84.9235 60.7615C84.748 60.7615 84.6163 60.8052 84.4846 60.8925C84.3529 60.9799 84.309 61.111 84.309 61.2857C84.309 61.4605 84.4407 61.6352 84.6602 61.81C84.8796 61.941 85.2747 61.9847 85.7575 61.9847Z" fill="#373435"/>
<path d="M92.0748 63.0788C91.7676 63.0788 91.592 62.9914 91.4165 62.904C91.2848 62.8166 91.197 62.6419 91.197 62.3361V56.2197H90.2753C90.0997 56.2197 90.012 56.1761 89.9242 56.0887C89.8364 55.9576 89.7925 55.8265 89.7925 55.6518C89.7925 55.5644 89.8364 55.4334 89.8364 55.346C89.8803 55.2586 89.8803 55.1275 89.9242 55.0839H91.2409V53.948C91.2409 53.5111 91.1092 53.2053 90.9337 52.9868C90.7142 52.7684 90.407 52.681 90.0997 52.681C89.7486 52.681 89.4853 52.7684 89.3097 52.9868C89.1341 53.2053 89.0464 53.4237 89.0464 53.7295C89.0464 53.8169 89.0464 53.9043 89.0464 53.9917C89.0464 54.079 89.0464 54.1664 89.0464 54.2538C89.0025 54.2975 88.8708 54.3412 88.7391 54.3848C88.6074 54.4285 88.4758 54.4285 88.3441 54.4285C88.0807 54.4285 87.8613 54.3412 87.7296 54.2101C87.5541 54.0353 87.5102 53.7732 87.5102 53.4674C87.5102 53.1616 87.5541 52.8995 87.6857 52.681C87.7735 52.4189 87.9491 52.2004 88.1685 52.0257C88.388 51.8509 88.6513 51.6762 89.0025 51.5888C89.3097 51.4578 89.6608 51.4141 90.0997 51.4141C90.8898 51.4141 91.5481 51.6325 92.0309 52.0694C92.5137 52.4626 92.7332 53.0742 92.7332 53.9043V55.0839H93.6988C93.8744 55.0839 94.006 55.1275 94.0938 55.2149C94.1377 55.3023 94.1816 55.477 94.1816 55.6518C94.1816 55.7392 94.1816 55.8265 94.1816 55.9576C94.1377 56.045 94.1377 56.1324 94.0938 56.2197H92.7332V62.9914C92.6893 62.9914 92.5576 63.0351 92.426 63.0351C92.3382 63.0351 92.2065 63.0788 92.0748 63.0788Z" fill="#373435"/>
<path d="M106.591 56.2179V60.2372C106.503 60.2372 106.415 60.2372 106.284 60.2809C106.152 60.2809 106.02 60.3246 105.933 60.3246C105.625 60.3246 105.406 60.2809 105.274 60.1498C105.143 60.0625 105.055 59.8877 105.055 59.5819V56.2179H103.124V62.9896C103.08 62.9896 102.948 63.0332 102.86 63.0332C102.729 63.0332 102.597 63.0769 102.465 63.0769C102.202 63.0769 101.982 62.9896 101.807 62.9022C101.675 62.8148 101.587 62.6401 101.587 62.3342V59.9314H100.007C99.9195 60.5867 99.7439 61.111 99.4367 61.4605C99.1733 61.8537 98.8222 62.0284 98.3833 62.0284C98.1199 62.0284 97.9005 61.941 97.7249 61.81C97.5493 61.6352 97.4616 61.4168 97.4177 61.1984C97.7249 60.9362 97.9883 60.5867 98.2077 60.1935C98.3833 59.7566 98.5149 59.3198 98.5149 58.7955C98.5149 58.3586 98.4711 57.9654 98.3394 57.6596C98.1199 57.7907 97.8566 57.9218 97.5493 58.1402C97.1982 58.3586 96.9349 58.6208 96.6276 58.9266C96.5398 59.4508 96.3204 59.8877 96.057 60.1498C95.7937 60.4557 95.4864 60.6304 95.1353 60.6304C94.872 60.6304 94.6525 60.543 94.477 60.3683C94.3014 60.2372 94.2136 60.0188 94.1697 59.8003C94.477 59.5382 94.6964 59.2324 94.9159 58.8392C95.1353 58.4897 95.2231 58.0091 95.2231 57.4849C95.2231 57.2227 95.2231 56.9606 95.1792 56.7859C95.1353 56.5674 95.0475 56.3927 94.9598 56.2179H93.8625C93.5113 56.2179 93.3797 55.9995 93.3797 55.6063C93.3797 55.5189 93.3797 55.4315 93.3797 55.3442C93.4236 55.2131 93.4236 55.1257 93.4675 55.082H96.057C96.1887 55.2568 96.3204 55.5189 96.4082 55.8684C96.5398 56.2179 96.6276 56.6111 96.7154 57.1354C97.1104 56.7859 97.5493 56.5237 97.9883 56.3053C98.4272 56.0869 98.8222 55.9558 99.2172 55.8247C99.4367 56.1305 99.6122 56.5237 99.7878 57.048C99.9634 57.5286 100.051 58.0965 100.051 58.7081H101.587V55.8247C101.587 55.5626 101.631 55.3442 101.763 55.2568C101.851 55.1257 102.07 55.082 102.333 55.082H107.469C107.776 55.082 107.952 55.2568 107.952 55.65C107.952 55.7374 107.952 55.8247 107.908 55.9558C107.908 56.0432 107.864 56.1305 107.864 56.2179H106.591Z" fill="#373435"/>
</svg>
