<?xml version="1.0" encoding="UTF-8"?>
<!DOCTYPE svg PUBLIC "-//W3C//DTD SVG 1.1//EN" "http://www.w3.org/Graphics/SVG/1.1/DTD/svg11.dtd">
<!-- Creator: CorelDRAW X7 -->
<svg xmlns="http://www.w3.org/2000/svg" xml:space="preserve" width="484px" height="611px" version="1.1" style="shape-rendering:geometricPrecision; text-rendering:geometricPrecision; image-rendering:optimizeQuality; fill-rule:evenodd; clip-rule:evenodd"
viewBox="0 0 17330 21869"
 xmlns:xlink="http://www.w3.org/1999/xlink">
 <defs>
  <style type="text/css">
   <![CDATA[
    .fil3 {fill:none}
    .fil15 {fill:#4D4D4E}
    .fil5 {fill:#666666}
    .fil13 {fill:#A6A6A6}
    .fil17 {fill:white}
    .fil18 {fill:#4D4D4D;fill-rule:nonzero}
    .fil21 {fill:#4D4D4D;fill-rule:nonzero}
    .fil20 {fill:#828282;fill-rule:nonzero}
    .fil6 {fill:#FAFAFA;fill-rule:nonzero}
    .fil10 {fill:white;fill-rule:nonzero}
    .fil1 {fill:#FFF0D4;fill-rule:nonzero;fill-opacity:0.501961}
    .fil11 {fill:url(#id0)}
    .fil16 {fill:url(#id1)}
    .fil4 {fill:url(#id2)}
    .fil14 {fill:url(#id3)}
    .fil8 {fill:url(#id4)}
    .fil2 {fill:url(#id5)}
    .fil0 {fill:url(#id6)}
    .fil9 {fill:url(#id7)}
    .fil12 {fill:url(#id8)}
    .fil7 {fill:url(#id9)}
    .fil19 {fill:url(#id10);fill-rule:nonzero}
    .fil22 {fill:url(#id11);fill-rule:nonzero}
   ]]>
  </style>
  <linearGradient id="id0" gradientUnits="userSpaceOnUse" x1="8665.17" y1="8598.26" x2="8665.17" y2="13532.8">
   <stop offset="0" style="stop-opacity:1; stop-color:#A6A6A6"/>
   <stop offset="1" style="stop-opacity:1; stop-color:#E8EEF7"/>
  </linearGradient>
  <linearGradient id="id1" gradientUnits="userSpaceOnUse" x1="8228.44" y1="11693.3" x2="8228.61" y2="5388.81">
   <stop offset="0" style="stop-opacity:1; stop-color:#AFB1B1"/>
   <stop offset="0.709804" style="stop-opacity:1; stop-color:#D0D2D3"/>
   <stop offset="1" style="stop-opacity:1; stop-color:#F2F4F5"/>
  </linearGradient>
  <linearGradient id="id2" gradientUnits="userSpaceOnUse" x1="8697.59" y1="767.776" x2="8697.59" y2="17291.8">
   <stop offset="0" style="stop-opacity:1; stop-color:#D0D5E0"/>
   <stop offset="0.0901961" style="stop-opacity:1; stop-color:#BECAD5"/>
   <stop offset="0.180392" style="stop-opacity:1; stop-color:#AEB1C4"/>
   <stop offset="0.611765" style="stop-opacity:1; stop-color:#6D7D85"/>
   <stop offset="1" style="stop-opacity:1; stop-color:#ABBEC9"/>
  </linearGradient>
  <linearGradient id="id3" gradientUnits="userSpaceOnUse" x1="8665.17" y1="3797.58" x2="8566.43" y2="11679.7">
   <stop offset="0" style="stop-opacity:1; stop-color:#F0F5FF"/>
   <stop offset="1" style="stop-opacity:1; stop-color:#A9BCC7"/>
  </linearGradient>
  <linearGradient id="id4" gradientUnits="userSpaceOnUse" x1="16151.7" y1="7256.47" x2="16160.2" y2="9725.07">
   <stop offset="0" style="stop-opacity:1; stop-color:#F7F7F7"/>
   <stop offset="1" style="stop-opacity:1; stop-color:#BDBDBD"/>
  </linearGradient>
  <linearGradient id="id5" gradientUnits="userSpaceOnUse" x1="4354.4" y1="17317.3" x2="7873.76" y2="15074.4">
   <stop offset="0" style="stop-opacity:1; stop-color:#B00205"/>
   <stop offset="1" style="stop-opacity:1; stop-color:red"/>
  </linearGradient>
  <linearGradient id="id6" gradientUnits="userSpaceOnUse" x1="13096.5" y1="15877.5" x2="8729.04" y2="16509.9">
   <stop offset="0" style="stop-opacity:1; stop-color:red"/>
   <stop offset="1" style="stop-opacity:1; stop-color:#B00205"/>
  </linearGradient>
  <linearGradient id="id7" gradientUnits="userSpaceOnUse" x1="8688.76" y1="2915.98" x2="8688.76" y2="14945.2">
   <stop offset="0" style="stop-opacity:1; stop-color:#EDEDED"/>
   <stop offset="0.411765" style="stop-opacity:1; stop-color:#B8B8B8"/>
   <stop offset="1" style="stop-opacity:1; stop-color:#CCCCCC"/>
  </linearGradient>
  <linearGradient id="id8" gradientUnits="userSpaceOnUse" x1="8683.39" y1="4228.86" x2="8683.39" y2="13511.2">
   <stop offset="0" style="stop-opacity:1; stop-color:#D0D5E0"/>
   <stop offset="0.180392" style="stop-opacity:1; stop-color:#BECAD5"/>
   <stop offset="0.490196" style="stop-opacity:1; stop-color:#6D7D85"/>
   <stop offset="1" style="stop-opacity:1; stop-color:#ABBEC9"/>
  </linearGradient>
  <linearGradient id="id9" gradientUnits="userSpaceOnUse" xlink:href="#id4" x1="1443.7" y1="7256.47" x2="1452.24" y2="9725.07">
  </linearGradient>
  <linearGradient id="id10" gradientUnits="userSpaceOnUse" x1="8107.6" y1="1968.47" x2="8107.6" y2="717.518">
   <stop offset="0" style="stop-opacity:1; stop-color:#C8CCD9"/>
   <stop offset="0.619608" style="stop-opacity:1; stop-color:#E3E5EC"/>
   <stop offset="1" style="stop-opacity:1; stop-color:white"/>
  </linearGradient>
  <radialGradient id="id11" gradientUnits="userSpaceOnUse" gradientTransform="matrix(2.3344E-017 0.381237 -0.91866 -2.57422E-005 22459 11671)" cx="8693.19" cy="14984.4" r="4916.28" fx="8693.19" fy="14984.4">
   <stop offset="0" style="stop-opacity:1; stop-color:#FEFEFE"/>
   <stop offset="0.780392" style="stop-opacity:1; stop-color:#E5E5E5"/>
   <stop offset="1" style="stop-opacity:1; stop-color:#CCCDCD"/>
  </radialGradient>
 </defs>
 <g id="Layer_x0020_1">
  <metadata id="CorelCorpID_0Corel-Layer"/>
  <g id="_887791064">
   <g>
    <path class="fil0" d="M8557 16799l-825 169 -228 47 -154 31 -138 28 -66 14 -19 4 65 114 1371 2380 1255 2180c71,110 153,136 252,47l1696 -2069c45,-86 113,-148 233,-159l2628 -438c172,-11 213,-97 121,-261l-1592 -2809 -54 -94 -8 -14 -29 -51 -21 -38 -28 6 -227 46 -122 25 -77 16 -4033 826z"/>
    <path class="fil1" d="M12657 16089l65 -37 -75 -129 -64 37 74 129zm-5164 942l-65 37 75 129 64 -37 -74 -129zm149 259l-65 37 74 129 65 -37 -74 -129zm148 258l-64 37 74 130 65 -38 -75 -129zm149 259l-65 37 75 129 64 -37 -74 -129zm149 258l-65 38 74 129 65 -37 -74 -130zm148 259l-64 37 74 129 64 -37 -74 -129zm149 259l-65 37 74 129 65 -37 -74 -129zm148 258l-64 37 74 130 65 -37 -75 -130zm149 259l-65 37 75 129 64 -37 -74 -129zm149 258l-65 38 74 129 65 -37 -74 -130zm148 259l-64 37 74 129 65 -37 -75 -129zm149 259l-65 37 75 129 64 -37 -74 -129zm149 258l-65 37 74 130 65 -37 -74 -130zm148 259l-65 37 75 129 64 -37 -74 -129zm149 258l-65 38 74 129 65 -37 -74 -130zm148 259l-64 37 74 129 65 -37 -75 -129zm149 258l-65 38 74 129 65 -37 -74 -130zm91 217l57 48 95 -115 -57 -48 -95 115zm191 -229l57 48 96 -115 -58 -48 -95 115zm191 -229l57 48 96 -115 -57 -48 -96 115zm191 -229l57 48 96 -115 -57 -47 -96 114zm191 -229l57 48 96 -115 -57 -47 -96 114zm191 -229l58 48 95 -115 -57 -47 -96 114zm192 -229l57 48 95 -114 -57 -48 -95 114zm191 -229l57 48 95 -114 -57 -48 -95 114zm191 -229l57 48 96 -114 -58 -48 -95 114zm191 -229l11 10 27 47 142 -23 -12 -73 -156 25 -12 14zm315 -63l12 74 147 -24 -11 -74 -148 24zm295 -47l12 73 147 -23 -12 -74 -147 24zm294 -47l12 73 147 -23 -11 -74 -148 24zm295 -47l12 73 147 -23 -12 -74 -147 24zm294 -48l12 74 148 -24 -12 -73 -148 23zm295 -47l12 74 147 -24 -12 -73 -147 23zm294 -47l12 74 147 -24 -11 -74 -148 24zm295 -47l12 74 147 -24 -12 -74 -147 24zm243 -3l65 -38 -75 -129 -64 38 74 129zm-149 -258l64 -38 -75 -129 -64 38 75 129zm-150 -259l65 -37 -75 -129 -65 37 75 129zm-149 -258l64 -37 -75 -129 -64 37 75 129zm-150 -258l65 -37 -75 -129 -65 37 75 129zm-149 -258l64 -37 -75 -129 -64 37 75 129zm-150 -258l65 -37 -75 -129 -65 37 75 129zm-150 -258l65 -37 -75 -129 -64 37 74 129zm-149 -258l64 -37 -74 -129 -65 37 75 129zm-150 -258l65 -37 -75 -129 -64 37 74 129zm-149 -258l64 -37 -74 -129 -65 37 75 129z"/>
    <path class="fil2" d="M4080 15882c-568,1002 -1136,2004 -1704,3007 -92,163 -51,250 121,261 876,146 1752,292 2628,438 120,11 188,73 233,158 566,690 1131,1379 1696,2069 99,89 181,63 252,-47 897,-1558 1794,-3116 2691,-4674 -1972,-404 -3944,-808 -5917,-1212z"/>
    <path class="fil1" d="M4447 16051l-65 -37 75 -129 65 37 -75 129zm5164 942l65 37 -75 129 -64 -37 74 -129zm-149 258l65 37 -74 130 -65 -37 74 -130zm-148 259l64 37 -74 129 -65 -37 75 -129zm-149 259l65 37 -75 129 -64 -37 74 -129zm-149 258l65 37 -74 130 -65 -38 74 -129zm-148 259l65 37 -75 129 -64 -37 74 -129zm-149 258l65 37 -74 130 -65 -37 74 -130zm-148 259l64 37 -74 129 -65 -37 75 -129zm-149 259l65 37 -75 129 -64 -37 74 -129zm-149 258l65 37 -74 130 -65 -38 74 -129zm-148 259l64 37 -74 129 -65 -37 75 -129zm-149 258l65 37 -74 130 -65 -37 74 -130zm-148 259l64 37 -74 129 -65 -37 75 -129zm-149 259l65 37 -75 129 -64 -37 74 -129zm-149 258l65 37 -74 130 -65 -38 74 -129zm-148 259l64 37 -74 129 -65 -37 75 -129zm-149 258l65 37 -74 130 -65 -38 74 -129zm-91 217l-57 47 -95 -114 57 -48 95 115zm-191 -229l-57 47 -96 -114 58 -48 95 115zm-191 -229l-57 47 -96 -114 57 -48 96 115zm-191 -229l-57 48 -96 -115 57 -48 96 115zm-191 -229l-57 48 -96 -115 57 -48 96 115zm-191 -229l-58 48 -95 -115 57 -48 96 115zm-192 -229l-57 48 -95 -115 57 -48 95 115zm-191 -229l-57 48 -95 -115 57 -47 95 114zm-191 -229l-57 48 -96 -115 58 -47 95 114zm-191 -229l-11 9 -27 48 -142 -23 12 -74 156 25 12 15zm-315 -63l-12 73 -147 -23 11 -74 148 24zm-295 -47l-12 73 -147 -23 12 -74 147 24zm-294 -48l-12 74 -147 -24 11 -73 148 23zm-295 -47l-12 74 -147 -24 12 -73 147 23zm-294 -47l-12 74 -147 -24 11 -74 148 24zm-295 -47l-12 74 -147 -24 12 -74 147 24zm-294 -47l-12 73 -147 -23 11 -74 148 24zm-295 -47l-12 73 -147 -23 12 -74 147 24zm-243 -4l-65 -37 75 -129 64 37 -74 129zm149 -258l-64 -37 75 -129 64 37 -75 129zm150 -258l-65 -37 75 -129 65 37 -75 129zm149 -258l-64 -37 75 -129 64 37 -75 129zm150 -258l-65 -37 75 -129 65 37 -75 129zm149 -258l-64 -37 75 -129 64 37 -75 129zm150 -258l-64 -37 74 -129 65 37 -75 129zm150 -258l-65 -37 75 -129 64 37 -74 129zm149 -258l-64 -37 74 -129 65 37 -75 129zm150 -258l-65 -37 75 -129 64 37 -74 129zm149 -258l-64 -37 74 -129 65 37 -75 129z"/>
   </g>
   <circle class="fil3" cx="8665" cy="8598" r="8598"/>
   <path class="fil4" d="M8665 0c4786,0 8665,3880 8665,8665 0,4786 -3879,8665 -8665,8665 -4785,0 -8665,-3879 -8665,-8665 0,-4785 3880,-8665 8665,-8665zm0 2363c3481,0 6302,2822 6302,6302 0,3481 -2821,6302 -6302,6302 -3480,0 -6302,-2821 -6302,-6302 0,-3480 2822,-6302 6302,-6302z"/>
   <path class="fil5" d="M1499 10114c-47,-238 -83,-477 -107,-718 -23,-241 -35,-484 -35,-726 0,-243 12,-485 35,-727 24,-241 60,-480 107,-717 8,-39 -17,-77 -56,-85 -39,-7 -77,18 -84,57 -48,241 -85,486 -109,731 -24,246 -36,493 -36,741 0,247 12,494 36,740 24,245 61,490 109,732 7,39 45,64 84,56 39,-8 64,-46 56,-84z"/>
   <path class="fil6" d="M8665 108c2363,0 4502,958 6051,2506 1548,1549 2506,3688 2506,6051 0,2363 -958,4502 -2506,6051 -1549,1548 -3688,2506 -6051,2506 -2363,0 -4502,-958 -6051,-2506 -1548,-1549 -2506,-3688 -2506,-6051 0,-2363 958,-4502 2506,-6051 1549,-1548 3688,-2506 6051,-2506zm5998 2559c-1535,-1535 -3656,-2484 -5998,-2484 -2342,0 -4463,949 -5998,2484 -1535,1535 -2484,3656 -2484,5998 0,2342 949,4463 2484,5998 1535,1535 3656,2485 5998,2485 2342,0 4463,-950 5998,-2485 1535,-1535 2485,-3656 2485,-5998 0,-2342 -950,-4463 -2485,-5998z"/>
   <path class="fil6" d="M8665 236c2328,0 4435,944 5960,2469 1526,1525 2469,3633 2469,5960 0,2328 -943,4435 -2469,5960 -1525,1526 -3632,2469 -5960,2469 -2327,0 -4435,-943 -5960,-2469 -1525,-1525 -2469,-3632 -2469,-5960 0,-2327 944,-4435 2469,-5960 1525,-1525 3633,-2469 5960,-2469zm5907 2522c-1511,-1512 -3600,-2447 -5907,-2447 -2307,0 -4395,935 -5907,2447 -1512,1512 -2447,3600 -2447,5907 0,2307 935,4396 2447,5907 1512,1512 3600,2447 5907,2447 2307,0 4396,-935 5907,-2447 1512,-1511 2447,-3600 2447,-5907 0,-2307 -935,-4395 -2447,-5907z"/>
   <path class="fil5" d="M15932 7226c48,237 84,477 107,717 24,242 36,484 36,727 0,242 -12,485 -36,726 -23,241 -59,480 -107,718 -7,39 18,76 57,84 39,8 76,-17 84,-56 48,-242 84,-487 108,-732 25,-246 37,-493 37,-740 0,-247 -12,-495 -37,-741 -24,-245 -60,-489 -108,-731 -8,-39 -45,-64 -84,-57 -39,8 -64,46 -57,85z"/>
   <path class="fil7" d="M1453 10109c-47,-237 -83,-477 -107,-718 -23,-241 -35,-483 -35,-726 0,-242 12,-485 35,-726 24,-241 60,-481 107,-718 8,-39 -17,-77 -56,-84 -39,-8 -77,17 -84,56 -49,242 -84,486 -109,732 -24,246 -36,493 -36,740 0,247 12,494 36,740 25,246 60,490 109,732 7,39 45,64 84,57 39,-8 64,-46 56,-85z"/>
   <path class="fil8" d="M15877 7221c47,237 83,477 107,718 24,241 35,484 35,726 0,243 -11,485 -35,726 -24,241 -60,481 -107,718 -8,39 18,77 56,85 39,7 77,-18 85,-57 48,-242 84,-486 108,-732 24,-246 37,-493 37,-740 0,-247 -13,-494 -37,-740 -24,-246 -60,-490 -108,-732 -8,-39 -46,-64 -85,-56 -38,7 -64,45 -56,84z"/>
   <circle class="fil9" cx="8665" cy="8665" r="6308"/>
   <path class="fil10" d="M13871 6630c-27,-70 -133,-53 -133,26 0,9 1,16 4,24 17,42 33,85 48,127 31,81 151,46 132,-40l-2 -7c-16,-44 -32,-87 -49,-130zm-10266 7c11,-30 2,-63 -25,-81 -38,-26 -85,-11 -103,30 -18,44 -34,87 -51,131 -27,70 67,129 120,66 4,-6 7,-12 10,-19 15,-42 32,-84 49,-127zm-214 646c20,-73 -82,-123 -126,-52 -4,6 -6,11 -8,18 -11,45 -23,90 -33,135 -19,84 104,122 133,35 12,-45 22,-91 34,-136zm-132 668c11,-83 -112,-112 -135,-25l-1 7c-7,46 -12,92 -17,138 -2,26 8,50 29,64 42,31 104,2 108,-49 5,-45 10,-90 16,-135zm-47 678c0,-73 -99,-97 -132,-28 -3,10 -5,18 -5,28 -1,46 0,93 0,139 4,88 130,91 138,3 1,-46 -1,-95 -1,-142zm39 679c-11,-84 -137,-79 -137,11 3,47 12,98 18,144 2,15 11,31 22,41 49,43 123,4 115,-61 -7,-45 -13,-90 -18,-135zm123 669c-24,-85 -151,-57 -135,31 11,46 24,93 36,138 21,77 139,62 136,-23 -1,-5 -1,-9 -3,-14 -12,-44 -23,-88 -34,-132zm205 649c-26,-68 -130,-53 -134,23 0,10 2,18 5,27 17,44 34,87 52,130 14,32 49,49 82,39 40,-10 61,-55 45,-92 -17,-42 -34,-85 -50,-127zm283 619c-40,-74 -152,-25 -126,55 2,3 3,7 5,10 22,41 45,82 67,122 35,64 140,34 128,-46 -1,-8 -4,-15 -8,-22 -22,-33 -47,-83 -66,-119zm358 578c-41,-60 -141,-19 -123,57 3,9 6,15 11,23 27,38 54,76 82,113 51,65 152,4 118,-71 -2,-4 -4,-8 -7,-12 -28,-36 -54,-73 -81,-110zm428 529c-55,-57 -148,6 -112,79 3,6 6,10 10,15 32,34 64,68 96,101 58,58 153,-13 106,-87 -2,-3 -4,-6 -7,-9 -32,-32 -63,-66 -93,-99zm490 472c-45,-40 -119,-3 -113,58 1,18 11,35 24,47 36,30 72,60 108,89 33,26 79,18 102,-17 18,-29 11,-70 -16,-91 -35,-28 -70,-57 -105,-86zm546 406c-30,-19 -67,-13 -90,13 -27,31 -20,81 15,103 39,25 78,50 118,74 63,40 140,-40 87,-104 -4,-5 -9,-9 -15,-13 -39,-24 -77,-48 -115,-73zm592 335c-73,-35 -137,63 -73,116 4,3 8,6 13,8 42,21 84,40 126,60 77,33 135,-71 68,-120 -4,-2 -7,-4 -11,-6 -42,-19 -83,-38 -123,-58zm629 260c-80,-25 -129,83 -56,126 4,1 7,3 11,4 44,15 88,30 133,44 76,24 127,-84 54,-126 -4,-2 -9,-4 -13,-6 -43,-13 -86,-27 -129,-42zm656 180c-71,-16 -118,81 -51,126 8,5 14,7 23,9 45,9 91,18 137,26 80,15 116,-100 36,-132 -4,-1 -8,-2 -12,-3 -44,-8 -89,-17 -133,-26zm673 96c-79,-7 -106,108 -25,135 5,1 9,2 14,3 47,3 93,6 140,9 77,3 102,-104 27,-134 -7,-2 -13,-4 -21,-4 -45,-2 -90,-6 -135,-9zm680 11c-77,3 -91,114 -15,135 8,2 14,3 22,3 46,-2 93,-5 139,-8 84,-8 86,-130 -1,-138 -3,0 -6,0 -9,0 -45,3 -91,6 -136,8zm676 -74c-79,15 -74,133 11,137 5,0 9,0 13,-1 46,-8 92,-16 137,-26 88,-19 65,-147 -24,-135 -46,8 -91,17 -137,25zm662 -157c-82,26 -53,149 34,133 46,-12 95,-29 140,-44 69,-22 60,-130 -21,-134 -9,0 -15,1 -23,3 -43,15 -87,29 -130,42zm637 -239c-69,30 -45,139 37,132 7,-1 13,-3 20,-6 42,-19 84,-38 126,-58 16,-8 28,-20 35,-36 23,-59 -37,-116 -94,-89 -41,20 -82,39 -124,57zm603 -315c-70,44 -19,150 59,124 5,-2 8,-4 13,-6 40,-24 79,-49 118,-74 62,-39 27,-137 -48,-126 -10,2 -17,4 -26,10 -39,24 -77,49 -116,72zm559 -388c-59,46 -9,145 67,119 7,-3 13,-6 19,-11 36,-29 73,-58 108,-88 21,-18 30,-45 22,-71 -13,-49 -72,-67 -110,-35 -35,30 -71,58 -106,86zm506 -454c-55,55 13,148 85,107 5,-3 9,-7 14,-11 32,-33 64,-67 96,-101 56,-63 -24,-151 -92,-102 -3,3 -6,5 -9,8 -31,33 -62,66 -94,99zm445 -515c-45,58 24,141 93,100 7,-5 12,-10 17,-17 28,-37 56,-74 83,-112 48,-69 -43,-146 -104,-90 -3,3 -6,7 -8,10 -27,37 -54,73 -81,109zm377 -566c-42,77 65,145 117,74 25,-40 48,-85 71,-127 39,-70 -57,-141 -113,-77 -3,4 -6,7 -8,11 -22,40 -44,79 -67,119zm304 -609c-30,72 65,134 118,70 4,-6 7,-10 9,-16 18,-43 35,-86 53,-129 29,-76 -73,-131 -120,-65 -3,5 -6,9 -8,14 -18,40 -34,85 -52,126zm227 -641c-9,30 3,61 30,77 38,24 90,4 102,-40 13,-45 25,-90 37,-135 18,-67 -70,-118 -121,-60 -6,9 -10,16 -13,27 -11,43 -23,87 -35,131zm144 -665c-10,74 85,109 126,48 5,-9 9,-17 10,-27 7,-46 14,-92 20,-139 10,-76 -99,-110 -132,-35 -3,6 -4,12 -5,18 -6,45 -12,90 -19,135zm61 -677c-3,72 99,99 131,31 4,-10 6,-17 7,-28 1,-47 1,-93 2,-140 0,-71 -96,-96 -131,-30 -5,10 -7,19 -7,30 0,46 -1,91 -2,137zm-25 -680c7,77 122,86 137,3 1,-6 1,-11 1,-17 -4,-46 -10,-93 -16,-139 -10,-82 -133,-79 -137,8 0,3 0,6 0,9 6,45 11,91 15,136zm-108 -672c18,81 143,66 135,-24l-1 -7c-10,-45 -21,-90 -32,-135 -24,-86 -151,-57 -135,30 11,46 23,91 33,136z"/>
   <path class="fil11" d="M8665 2339c1747,0 3329,708 4474,1853 1145,1144 1853,2726 1853,4473 0,1747 -708,3329 -1853,4474 -1145,1145 -2727,1853 -4474,1853 -1747,0 -3329,-708 -4473,-1853 -1145,-1145 -1853,-2727 -1853,-4474 0,-1747 708,-3329 1853,-4473 1144,-1145 2726,-1853 4473,-1853zm0 74c3453,0 6252,2799 6252,6252 0,3453 -2799,6252 -6252,6252 -3453,0 -6252,-2799 -6252,-6252 0,-3453 2799,-6252 6252,-6252z"/>
   <circle class="fil12" cx="8665" cy="8665" r="4868"/>
   <path class="fil13" d="M8665 2337c3490,0 6319,2825 6319,6308 0,27 0,53 -1,79 -42,-3448 -2854,-6230 -6318,-6230 -3464,0 -6276,2782 -6318,6230 0,-26 -1,-52 -1,-79 0,-3483 2829,-6308 6319,-6308z"/>
   <path class="fil14" d="M8665 3803c1343,0 2558,544 3438,1424 880,880 1424,2096 1424,3438 0,1343 -544,2558 -1424,3438 -880,880 -2095,1424 -3438,1424 -1342,0 -2558,-544 -3438,-1424 -880,-880 -1424,-2095 -1424,-3438 0,-1342 544,-2558 1424,-3438 880,-880 2096,-1424 3438,-1424zm0 75c2644,0 4788,2143 4788,4787 0,2644 -2144,4788 -4788,4788 -2644,0 -4787,-2144 -4787,-4788 0,-2644 2143,-4787 4787,-4787z"/>
  </g>
  <g id="_887795936">
   <path class="fil15" d="M12149 9076l0 268c-4,1 -11,3 -19,4 -9,2 -17,2 -25,2 -19,0 -33,-3 -43,-9 -10,-7 -15,-20 -15,-39l0 -226 -128 0 0 454c-5,1 -11,2 -20,3 -8,1 -16,2 -25,2 -18,0 -32,-3 -43,-10 -10,-6 -15,-19 -15,-37l0 -162 -105 0c-6,44 -19,78 -38,102 -19,25 -43,37 -70,37 -19,0 -33,-5 -45,-15 -11,-10 -18,-24 -19,-41 20,-18 37,-40 51,-67 13,-28 20,-59 20,-95 0,-28 -3,-53 -10,-75 -16,8 -34,19 -55,33 -21,15 -41,32 -60,53 -7,35 -20,63 -38,83 -18,20 -38,30 -62,30 -18,0 -33,-5 -44,-16 -11,-11 -17,-24 -19,-39 18,-18 34,-39 48,-63 14,-25 21,-56 21,-93 0,-18 -2,-33 -4,-46 -3,-14 -7,-27 -12,-38l-57 0 -20 0 -70 0 0 454c-5,1 -12,2 -20,3 -9,1 -18,2 -26,2 -18,0 -33,-3 -42,-10 -10,-6 -15,-19 -15,-37l0 -412 -47 0 -14 0 -1 0 -59 0c-2,13 -5,26 -10,39 -4,14 -9,26 -16,38 -6,12 -13,23 -21,34 -8,10 -15,18 -23,24 21,12 39,30 55,54 15,23 23,52 23,87 0,29 -6,55 -18,78 -12,23 -29,43 -50,60 -21,17 -46,30 -76,39 -30,9 -63,14 -99,14 -68,0 -119,-12 -154,-37 -35,-24 -53,-55 -53,-93 0,-33 12,-60 36,-79 23,-19 55,-28 94,-28 23,0 45,3 64,9 19,6 36,14 52,24 16,10 30,22 42,36 12,13 22,28 30,44 10,-8 17,-19 23,-32 5,-12 8,-26 8,-41 0,-24 -6,-44 -18,-60 -11,-17 -25,-28 -40,-35 -19,5 -38,8 -57,11 -19,2 -42,3 -68,3 -41,0 -72,-4 -92,-12 -20,-8 -30,-23 -30,-46 0,-9 2,-17 5,-24 3,-7 7,-13 11,-16 43,1 83,2 121,3 38,0 75,1 113,2 8,-9 17,-23 25,-40 8,-17 14,-36 17,-56l-350 0 -11 0 0 0 -72 0 0 163c0,17 -4,30 -12,38 -7,8 -21,12 -40,12l-123 0c-19,0 -36,2 -52,7 -15,5 -29,11 -41,19 -12,7 -22,16 -30,27 -8,10 -14,20 -17,31 9,24 27,44 56,59 28,15 62,22 99,22 38,0 69,-5 93,-15 24,-10 43,-20 57,-30 10,4 18,10 25,18 6,7 10,17 10,29 0,11 -3,20 -8,28 -6,8 -13,15 -23,21 -16,11 -37,19 -63,26 -26,7 -58,10 -96,10 -36,0 -69,-4 -98,-13 -30,-8 -56,-20 -78,-35 -22,-14 -40,-32 -54,-52 -15,-20 -24,-42 -30,-65 6,-28 19,-54 38,-78 20,-25 43,-44 71,-58 -22,-13 -41,-33 -58,-61 -17,-28 -27,-62 -30,-103l-127 0 0 454c-5,1 -12,2 -21,3 -8,1 -17,2 -25,2 -19,0 -33,-3 -43,-10 -10,-6 -14,-19 -14,-37l0 -412 -61 0c-12,0 -21,-4 -25,-10 -5,-7 -8,-16 -8,-29 0,-6 1,-13 3,-20 1,-7 3,-13 5,-18l85 0 0 -75c0,-55 15,-98 47,-127 31,-29 74,-44 128,-44 28,0 53,4 75,11 22,8 40,18 55,30 15,13 26,27 34,44 8,16 12,34 12,52 0,23 -5,40 -15,50 -9,11 -23,16 -40,16 -10,0 -19,-1 -28,-4 -9,-2 -16,-5 -21,-9 0,-5 1,-10 1,-16 0,-6 1,-12 1,-18 0,-21 -7,-38 -21,-51 -13,-13 -31,-20 -54,-20 -21,0 -39,7 -52,21 -13,13 -19,35 -19,65l0 75 578 0 12 0 516 0 14 0 74 0 0 -77c0,-28 -8,-50 -22,-63 -14,-14 -33,-21 -55,-21 -24,0 -41,7 -53,21 -12,13 -17,30 -17,50 0,6 0,12 0,18 0,6 1,11 1,16 -5,4 -12,7 -21,9 -8,3 -18,4 -28,4 -17,0 -31,-5 -41,-16 -9,-10 -14,-27 -14,-50 0,-18 4,-36 11,-52 8,-17 19,-31 34,-44 15,-12 33,-22 54,-30 22,-7 46,-11 74,-11 55,0 98,14 130,43 32,29 48,70 48,125l0 78 45 0 19 0 154 0c9,11 17,29 25,52 9,24 15,52 18,86 28,-22 56,-40 86,-54 29,-15 57,-25 82,-33 15,20 28,47 39,81 11,33 17,71 18,112l102 0 0 -194c0,-18 4,-30 11,-38 8,-8 21,-12 39,-12l343 0c21,0 32,13 32,39 0,5 -1,12 -2,19 -1,8 -3,14 -5,19l-85 0zm-3250 2531c-441,0 -863,-81 -1248,-228l-449 329c376,147 785,228 1213,228 754,0 1450,-251 2007,-674 -456,220 -974,345 -1523,345zm817 -3820l0 271c0,33 -7,56 -21,70 -14,14 -37,21 -72,21l-378 0c3,40 12,73 27,101 14,27 33,49 55,66 23,16 48,28 76,36 29,8 58,12 87,12 29,0 54,-2 75,-7 21,-4 40,-10 56,-17 16,-8 30,-16 42,-25 12,-9 23,-18 34,-27 18,6 34,17 48,35 14,18 20,37 20,59 0,17 -4,34 -13,50 -9,16 -22,31 -41,43 -24,18 -55,32 -93,41 -37,10 -81,15 -130,15 -51,0 -102,-6 -151,-18 -50,-12 -94,-33 -134,-61 -39,-28 -73,-66 -101,-112 -27,-47 -46,-104 -55,-172 -30,-6 -56,-21 -77,-44 -21,-23 -31,-52 -31,-88 0,-47 16,-85 48,-112 33,-28 74,-42 125,-42 22,0 42,3 60,9 18,7 31,14 41,22l9 74 288 0 0 -200 -600 0c-23,0 -39,-7 -47,-20 -9,-13 -13,-33 -13,-58 0,-10 1,-22 3,-37 3,-14 6,-26 11,-35l629 0c-8,-16 -17,-31 -28,-45 -25,-35 -55,-64 -90,-88 -35,-24 -73,-42 -114,-55 -41,-12 -82,-19 -124,-20 -3,-8 -6,-16 -8,-26 -2,-9 -3,-19 -3,-30 0,-32 12,-60 34,-83 23,-24 57,-35 104,-35 53,0 103,12 150,36 48,25 90,58 128,99 38,42 69,90 94,144 15,33 27,68 36,103l105 0 25 0 286 0c16,26 29,61 40,105 11,43 17,90 17,141l280 0 0 -158c0,-20 3,-36 8,-49l2 -18c2,-16 3,-30 3,-41 0,-31 -9,-54 -27,-69 -18,-16 -43,-24 -75,-24 -17,0 -36,1 -58,2 -22,2 -43,3 -63,3 -74,0 -130,-17 -167,-50 -38,-33 -57,-75 -57,-125 0,-45 12,-76 35,-94 24,-18 50,-27 79,-27 15,0 29,2 42,6 12,5 23,10 32,16 -2,4 -4,11 -5,19 -1,9 -1,15 -1,20 0,51 31,76 94,76 21,0 44,-2 69,-6 25,-3 48,-5 69,-5 64,0 117,16 157,49 41,32 61,80 61,141 0,23 -3,43 -7,61 -3,10 -6,19 -9,27l114 0c22,0 37,7 45,20 9,13 14,31 14,55 0,12 -2,25 -5,40 -3,15 -6,27 -10,35l-135 0 0 724c-10,1 -23,4 -40,7 -17,3 -35,4 -52,4 -35,0 -63,-6 -83,-19 -20,-12 -30,-38 -30,-77l0 -78c-19,9 -43,16 -74,21 -31,5 -62,8 -95,8 -104,0 -191,-22 -260,-66 -69,-44 -116,-102 -141,-176 23,-34 43,-72 58,-115 15,-42 22,-87 22,-135 0,-17 0,-35 -2,-54 -2,-19 -5,-34 -9,-44l-78 0 -23 0 -1 0 -106 0zm552 417c35,0 66,-3 92,-11 27,-7 48,-16 65,-27l0 -138 -300 0c-5,17 -11,33 -18,49 -7,15 -15,30 -23,44 11,19 33,38 65,56 32,18 71,27 119,27zm-2038 727c-1,-158 -132,-289 -288,-289 -154,0 -288,131 -289,284 0,160 134,295 291,292 156,-3 288,-135 286,-287zm110 266c91,87 181,172 266,254 -47,48 -90,91 -137,138 -59,-57 -127,-118 -187,-186 -48,-52 -84,-68 -159,-35 -177,77 -350,48 -497,-83 -145,-130 -194,-296 -142,-484 53,-190 185,-307 378,-340 186,-32 346,31 460,185 114,153 125,320 49,494 -7,17 -17,33 -31,57zm-894 115c-158,0 -312,4 -466,-1 -110,-4 -184,-87 -185,-198 -1,-474 -1,-948 0,-1422 1,-112 83,-192 194,-192 381,-1 761,-1 1141,0 104,0 190,73 192,172 3,253 1,506 1,759 -60,-30 -120,-57 -176,-89 -10,-6 -13,-33 -13,-50 -1,-182 -1,-364 -1,-545l0 -58 -1143 0 0 1432c107,0 212,1 317,-1 31,-1 47,7 60,38 21,51 50,99 79,155zm-514 1469l-416 1356 1052 -976c346,150 727,233 1128,233 1101,0 2056,-626 2528,-1542l-321 0c-446,754 -1267,1261 -2207,1261 -1415,0 -2562,-1147 -2562,-2562 0,-1415 1147,-2562 2562,-2562 882,0 1660,446 2121,1125l332 0c-494,-841 -1407,-1406 -2453,-1406 -1570,0 -2843,1273 -2843,2843 0,904 422,1709 1079,2230zm-222 56c-696,-571 -1136,-1408 -1136,-2342 0,-1719 1489,-3112 3325,-3112 136,0 270,8 402,23 -282,-78 -579,-120 -886,-120 -1837,0 -3325,1489 -3325,3325 0,1172 606,2202 1521,2794l99 -568zm3653 -1633l0 -128 -195 0c3,29 11,55 24,78 14,24 31,41 54,53 13,-2 25,-3 38,-3l79 0zm-25 -249c-14,0 -26,-5 -35,-13 -10,-8 -15,-24 -15,-47 0,-17 4,-32 10,-46 7,-14 16,-26 27,-35 11,-10 25,-18 40,-23 15,-5 31,-7 49,-7 17,0 33,2 48,8 16,5 29,13 40,22 11,10 20,22 26,36 7,14 10,29 10,45 0,23 -5,39 -14,47 -9,8 -20,13 -33,13 -14,0 -25,-4 -33,-12 1,-3 3,-7 4,-13 0,-5 1,-10 1,-15 0,-16 -5,-29 -14,-38 -10,-9 -22,-14 -35,-14 -15,0 -26,5 -36,15 -9,9 -14,22 -14,37 0,5 1,10 2,15 1,6 3,10 4,13 -9,8 -20,12 -32,12zm424 509c8,0 17,0 26,-1 8,-1 17,-3 25,-5 -11,-25 -25,-43 -44,-56 -19,-14 -40,-20 -64,-20 -12,0 -21,3 -29,8 -8,5 -13,14 -13,26 0,13 8,24 24,34 16,9 41,14 75,14z"/>
   <path class="fil16" d="M12149 9029l0 269c-4,1 -11,2 -19,4 -9,1 -17,2 -25,2 -19,0 -33,-3 -43,-10 -10,-6 -15,-19 -15,-38l0 -227 -128 0 0 454c-5,1 -11,2 -20,4 -8,1 -16,1 -25,1 -18,0 -32,-3 -43,-9 -10,-7 -15,-19 -15,-38l0 -161 -105 0c-6,43 -19,77 -38,102 -19,24 -43,37 -70,37 -19,0 -33,-5 -45,-16 -11,-10 -18,-23 -19,-41 20,-17 37,-40 51,-67 13,-27 20,-59 20,-94 0,-29 -3,-54 -10,-75 -16,8 -34,19 -55,33 -21,14 -41,32 -60,53 -7,35 -20,63 -38,83 -18,20 -38,30 -62,30 -18,0 -33,-6 -44,-17 -11,-10 -17,-23 -19,-39 18,-17 34,-38 48,-63 14,-24 21,-55 21,-93 0,-17 -2,-32 -4,-46 -3,-13 -7,-26 -12,-38l-57 0 -20 0 -70 0 0 454c-5,1 -12,2 -20,4 -9,1 -18,1 -26,1 -18,0 -33,-3 -42,-9 -10,-7 -15,-19 -15,-38l0 -412 -47 0 -14 0 -1 0 -59 0c-2,13 -5,26 -10,40 -4,13 -9,26 -16,38 -6,12 -13,23 -21,33 -8,10 -15,18 -23,24 21,13 39,31 55,54 15,23 23,53 23,88 0,28 -6,54 -18,78 -12,23 -29,43 -50,60 -21,16 -46,29 -76,39 -30,9 -63,14 -99,14 -68,0 -119,-13 -154,-37 -35,-25 -53,-56 -53,-93 0,-34 12,-60 36,-79 23,-19 55,-29 94,-29 23,0 45,3 64,9 19,6 36,14 52,24 16,11 30,22 42,36 12,14 22,29 30,45 10,-9 17,-20 23,-32 5,-13 8,-27 8,-41 0,-24 -6,-45 -18,-61 -11,-16 -25,-28 -40,-34 -19,4 -38,8 -57,10 -19,3 -42,4 -68,4 -41,0 -72,-4 -92,-12 -20,-8 -30,-24 -30,-46 0,-9 2,-17 5,-24 3,-8 7,-13 11,-17 43,2 83,2 121,3 38,1 75,2 113,3 8,-10 17,-23 25,-41 8,-17 14,-36 17,-56l-350 0 -11 0 0 0 -72 0 0 163c0,18 -4,31 -12,39 -7,7 -21,11 -40,11l-123 0c-19,0 -36,3 -52,7 -15,5 -29,11 -41,19 -12,8 -22,17 -30,27 -8,10 -14,21 -17,31 9,25 27,45 56,59 28,15 62,23 99,23 38,0 69,-5 93,-15 24,-10 43,-21 57,-31 10,4 18,10 25,18 6,8 10,18 10,30 0,10 -3,20 -8,28 -6,8 -13,15 -23,21 -16,10 -37,19 -63,25 -26,7 -58,11 -96,11 -36,0 -69,-5 -98,-13 -30,-9 -56,-21 -78,-35 -22,-15 -40,-32 -54,-53 -15,-20 -24,-42 -30,-65 6,-27 19,-53 38,-78 20,-24 43,-43 71,-57 -22,-13 -41,-34 -58,-62 -17,-27 -27,-62 -30,-103l-127 0 0 454c-5,1 -12,2 -21,4 -8,1 -17,1 -25,1 -19,0 -33,-3 -43,-9 -10,-7 -14,-19 -14,-38l0 -412 -61 0c-12,0 -21,-3 -25,-10 -5,-6 -8,-16 -8,-28 0,-6 1,-13 3,-20 1,-7 3,-14 5,-19l85 0 0 -74c0,-56 15,-98 47,-128 31,-29 74,-43 128,-43 28,0 53,3 75,11 22,7 40,17 55,30 15,12 26,27 34,43 8,17 12,34 12,53 0,22 -5,39 -15,50 -9,11 -23,16 -40,16 -10,0 -19,-1 -28,-4 -9,-3 -16,-6 -21,-10 0,-4 1,-10 1,-16 0,-6 1,-12 1,-18 0,-20 -7,-37 -21,-51 -13,-13 -31,-19 -54,-19 -21,0 -39,7 -52,20 -13,14 -19,36 -19,66l0 74 578 0 12 0 516 0 14 0 74 0 0 -76c0,-29 -8,-50 -22,-64 -14,-13 -33,-20 -55,-20 -24,0 -41,7 -53,20 -12,14 -17,31 -17,50 0,6 0,12 0,18 0,6 1,12 1,16 -5,4 -12,7 -21,10 -8,3 -18,4 -28,4 -17,0 -31,-5 -41,-16 -9,-11 -14,-28 -14,-50 0,-19 4,-36 11,-53 8,-16 19,-31 34,-43 15,-13 33,-23 54,-30 22,-8 46,-11 74,-11 55,0 98,14 130,43 32,28 48,70 48,124l0 78 45 0 19 0 154 0c9,12 17,30 25,53 9,23 15,52 18,86 28,-22 56,-40 86,-55 29,-14 57,-25 82,-32 15,20 28,46 39,80 11,34 17,71 18,112l102 0 0 -194c0,-17 4,-30 11,-38 8,-8 21,-12 39,-12l343 0c21,0 32,13 32,39 0,6 -1,12 -2,20 -1,7 -3,13 -5,18l-85 0zm-3250 2531c-441,0 -863,-81 -1248,-227l-449 329c376,147 785,228 1213,228 754,0 1450,-252 2007,-675 -456,221 -974,345 -1523,345zm817 -3820l0 271c0,33 -7,57 -21,71 -14,13 -37,20 -72,20l-378 0c3,40 12,74 27,101 14,28 33,49 55,66 23,17 48,29 76,37 29,8 58,11 87,11 29,0 54,-2 75,-6 21,-5 40,-10 56,-18 16,-7 30,-15 42,-25 12,-9 23,-18 34,-27 18,6 34,18 48,35 14,18 20,38 20,59 0,18 -4,34 -13,51 -9,16 -22,30 -41,43 -24,17 -55,31 -93,41 -37,10 -81,15 -130,15 -51,0 -102,-7 -151,-19 -50,-12 -94,-32 -134,-61 -39,-28 -73,-65 -101,-112 -27,-46 -46,-104 -55,-172 -30,-6 -56,-20 -77,-43 -21,-23 -31,-53 -31,-89 0,-47 16,-84 48,-112 33,-28 74,-42 125,-42 22,0 42,3 60,10 18,6 31,13 41,21l9 75 288 0 0 -201 -600 0c-23,0 -39,-7 -47,-20 -9,-13 -13,-32 -13,-58 0,-9 1,-22 3,-36 3,-15 6,-27 11,-35l629 0c-8,-16 -17,-32 -28,-46 -25,-34 -55,-63 -90,-87 -35,-24 -73,-42 -114,-55 -41,-13 -82,-20 -124,-21 -3,-7 -6,-16 -8,-25 -2,-9 -3,-20 -3,-30 0,-32 12,-60 34,-84 23,-23 57,-35 104,-35 53,0 103,12 150,37 48,24 90,57 128,99 38,41 69,89 94,144 15,33 27,67 36,103l105 0 25 0 286 0c16,26 29,61 40,104 11,44 17,91 17,142l280 0 0 -159c0,-19 3,-35 8,-48l2 -19c2,-16 3,-29 3,-41 0,-30 -9,-53 -27,-69 -18,-15 -43,-23 -75,-23 -17,0 -36,0 -58,2 -22,1 -43,2 -63,2 -74,0 -130,-17 -167,-50 -38,-33 -57,-74 -57,-124 0,-45 12,-77 35,-95 24,-18 50,-27 79,-27 15,0 29,2 42,7 12,4 23,9 32,15 -2,5 -4,12 -5,20 -1,8 -1,15 -1,20 0,50 31,76 94,76 21,0 44,-2 69,-6 25,-4 48,-6 69,-6 64,0 117,16 157,49 41,33 61,80 61,142 0,22 -3,42 -7,60 -3,11 -6,20 -9,28l114 0c22,0 37,6 45,19 9,14 14,32 14,55 0,12 -2,25 -5,41 -3,15 -6,26 -10,34l-135 0 0 724c-10,2 -23,4 -40,7 -17,3 -35,5 -52,5 -35,0 -63,-7 -83,-19 -20,-13 -30,-39 -30,-78l0 -78c-19,9 -43,16 -74,22 -31,5 -62,8 -95,8 -104,0 -191,-22 -260,-66 -69,-44 -116,-103 -141,-176 23,-34 43,-73 58,-115 15,-43 22,-88 22,-136 0,-16 0,-34 -2,-53 -2,-19 -5,-34 -9,-45l-78 0 -23 0 -1 0 -106 0zm552 418c35,0 66,-4 92,-11 27,-8 48,-17 65,-27l0 -138 -300 0c-5,16 -11,33 -18,48 -7,16 -15,31 -23,44 11,20 33,39 65,57 32,18 71,27 119,27zm-2038 727c-1,-158 -132,-290 -288,-290 -154,0 -288,132 -289,284 0,161 134,295 291,292 156,-2 288,-134 286,-286zm110 265c91,87 181,173 266,255 -47,48 -90,90 -137,138 -59,-58 -127,-119 -187,-186 -48,-53 -84,-68 -159,-36 -177,77 -350,48 -497,-82 -145,-131 -194,-297 -142,-484 53,-190 185,-308 378,-341 186,-31 346,31 460,185 114,154 125,321 49,495 -7,17 -17,32 -31,56zm-894 115c-158,0 -312,4 -466,-1 -110,-3 -184,-87 -185,-198 -1,-473 -1,-947 0,-1421 1,-112 83,-193 194,-193 381,0 761,0 1141,0 104,0 190,74 192,173 3,253 1,505 1,758 -60,-30 -120,-57 -176,-89 -10,-6 -13,-32 -13,-50 -1,-181 -1,-363 -1,-545l0 -57 -1143 0 0 1431c107,0 212,1 317,-1 31,0 47,8 60,38 21,51 50,99 79,155zm-514 1469l-416 1357 1052 -976c346,149 727,232 1128,232 1101,0 2056,-626 2528,-1542l-321 0c-446,755 -1267,1261 -2207,1261 -1415,0 -2562,-1147 -2562,-2562 0,-1414 1147,-2561 2562,-2561 882,0 1660,446 2121,1124l332 0c-494,-841 -1407,-1406 -2453,-1406 -1570,0 -2843,1273 -2843,2843 0,904 422,1709 1079,2230zm-222 56c-696,-570 -1136,-1408 -1136,-2342 0,-1718 1489,-3111 3325,-3111 136,0 270,7 402,22 -282,-78 -579,-119 -886,-119 -1837,0 -3325,1488 -3325,3325 0,1171 606,2201 1521,2794l99 -569zm3653 -1632l0 -129 -195 0c3,29 11,56 24,79 14,23 31,41 54,53 13,-2 25,-3 38,-3l79 0zm-25 -250c-14,0 -26,-4 -35,-12 -10,-9 -15,-24 -15,-47 0,-17 4,-33 10,-47 7,-13 16,-25 27,-35 11,-10 25,-17 40,-22 15,-5 31,-8 49,-8 17,0 33,3 48,8 16,5 29,13 40,23 11,10 20,22 26,35 7,14 10,29 10,46 0,23 -5,38 -14,47 -9,8 -20,12 -33,12 -14,0 -25,-4 -33,-12 1,-2 3,-7 4,-12 0,-5 1,-11 1,-15 0,-16 -5,-29 -14,-38 -10,-10 -22,-14 -35,-14 -15,0 -26,5 -36,14 -9,10 -14,22 -14,38 0,4 1,10 2,15 1,5 3,10 4,12 -9,8 -20,12 -32,12zm424 510c8,0 17,-1 26,-2 8,-1 17,-2 25,-5 -11,-24 -25,-43 -44,-56 -19,-13 -40,-20 -64,-20 -12,0 -21,3 -29,8 -8,6 -13,14 -13,26 0,14 8,25 24,34 16,10 41,15 75,15z"/>
   <path class="fil17" d="M11552 9396c-8,-9 -12,-20 -13,-34 20,-17 37,-40 51,-67 10,-22 17,-46 19,-72 1,8 1,16 1,24 0,36 -7,67 -20,95 -11,21 -24,39 -38,54zm-217 -94c-7,-9 -12,-20 -13,-33 18,-17 34,-38 48,-63 11,-19 18,-42 20,-70 0,8 1,15 1,24 0,37 -7,68 -21,93 -10,18 -22,35 -35,49zm-375 -118c10,9 20,21 29,34 15,23 23,53 23,88 0,7 -1,15 -1,22 -3,-24 -11,-46 -22,-63 -16,-24 -34,-42 -55,-54 8,-6 15,-14 23,-24l3 -3zm-395 205c-2,-7 -3,-15 -3,-22 0,-34 12,-60 36,-79 17,-15 40,-24 67,-27 17,3 38,4 63,4l17 0 11 3c19,6 36,14 52,24 16,11 30,22 42,36 12,14 22,29 30,45 10,-9 17,-20 23,-32 2,-6 4,-12 5,-19 2,8 3,16 3,24 0,15 -3,29 -8,41 -6,13 -13,24 -23,32 -8,-16 -18,-31 -30,-44 -12,-14 -26,-26 -42,-36 -16,-10 -33,-18 -52,-24 -19,-6 -41,-9 -64,-9 -39,0 -71,9 -94,28 -18,15 -29,33 -33,55zm46 -205c-3,-7 -5,-14 -5,-23 0,-9 2,-17 5,-24 3,-8 7,-13 11,-17 43,2 83,2 121,3 38,1 75,2 113,3 8,-10 17,-23 25,-41l5 -9 12 0c-3,20 -9,39 -17,56 -8,17 -17,31 -25,40 -38,-1 -75,-2 -113,-2 -38,-1 -78,-2 -121,-3 -4,3 -8,9 -11,16l0 1zm-449 165c10,14 24,26 44,36 28,15 62,23 99,23 38,0 69,-5 93,-15 24,-10 43,-21 57,-31 10,4 18,10 25,18 6,8 10,18 10,30 0,8 -2,16 -6,23 -1,-2 -2,-4 -4,-6 -7,-8 -15,-14 -25,-18 -14,10 -33,20 -57,30 -24,10 -55,15 -93,15 -37,0 -71,-7 -99,-22 -29,-15 -47,-35 -56,-59 3,-8 6,-16 12,-24zm-115 3c-3,-7 -5,-15 -7,-23 6,-27 19,-53 38,-78 12,-14 24,-27 39,-37 10,11 20,19 32,26 -28,14 -51,33 -71,58 -14,17 -24,35 -31,54zm-306 -340c-2,-6 -4,-13 -4,-21 0,-6 1,-13 3,-20 1,-7 3,-14 5,-19l85 0 0 47 -85 0c-2,4 -3,8 -4,13zm89 -90l0 -44c0,-56 15,-98 47,-128 31,-29 74,-43 128,-43 28,0 53,3 75,11 22,7 40,17 55,30 15,12 26,27 34,43 8,17 12,34 12,53 0,8 -1,16 -2,23 -2,-10 -5,-20 -10,-29 -8,-17 -19,-31 -34,-44 -15,-12 -33,-22 -55,-30 -22,-7 -47,-11 -75,-11 -54,0 -97,15 -128,44 -31,29 -47,70 -47,125zm248 -25l-1 -1 0 -3 1 4zm-145 55l164 0 1 0c9,3 18,4 28,4 9,0 17,-1 24,-4l170 0c5,2 11,3 18,3 5,0 11,-1 16,-3l119 0c6,2 11,3 18,3 6,0 11,-1 16,-3l4 0 12 0 385 0c7,3 15,4 24,4 10,0 20,-1 28,-4l2 0 77 0 14 0 74 0 0 47 -74 0 -14 0 -516 0 -12 0 -578 0 0 -47zm1048 -59l0 3 -1 1 1 -4zm-102 -26c-2,-7 -2,-15 -2,-23 0,-19 4,-36 11,-53 8,-16 19,-31 34,-43 15,-13 33,-23 54,-30 22,-8 46,-11 74,-11 55,0 98,14 130,43 32,28 48,70 48,124l0 44c-1,-53 -17,-94 -48,-122 -32,-29 -75,-43 -130,-43 -28,0 -52,4 -74,11 -21,8 -39,18 -54,30 -15,13 -26,27 -34,44 -4,9 -7,19 -9,29zm349 85l45 0 19 0 154 0c9,12 17,30 25,53 9,23 15,52 18,86 28,-22 56,-40 86,-55 29,-14 57,-25 82,-32 15,20 28,46 39,80 11,34 17,71 18,112l102 0 0 47 -102 0c-1,-41 -7,-79 -18,-112 -11,-34 -24,-61 -39,-81 -25,8 -53,18 -82,33 -30,14 -58,32 -86,54 -3,-34 -9,-62 -18,-86 -8,-23 -16,-41 -25,-52l-154 0 -19 0 -45 0 0 -47zm588 95l0 -45c0,-17 4,-30 11,-38 8,-8 21,-12 39,-12l343 0c21,0 32,13 32,39 0,6 -1,12 -2,20l-1 6c-5,-12 -14,-18 -29,-18l-343 0c-18,0 -31,4 -39,12 -7,7 -11,20 -11,36zm-2917 2513c-441,0 -863,-81 -1248,-227l-449 329 42 16 407 -299c385,147 807,228 1248,228 479,0 934,-95 1345,-265 61,-41 120,-83 178,-127 -456,221 -974,345 -1523,345zm353 -3411c4,20 11,38 20,54 14,28 33,49 55,66 23,17 48,29 76,37 29,8 58,11 87,11 29,0 54,-2 75,-6 21,-5 40,-10 56,-18 16,-7 30,-15 42,-25 12,-9 23,-18 34,-27 18,6 34,18 48,35 14,18 20,38 20,59 0,8 0,16 -2,24 -3,-13 -9,-25 -18,-36 -14,-18 -30,-29 -48,-35 -11,9 -22,18 -34,27 -12,9 -26,17 -42,25 -16,7 -35,13 -56,17 -21,5 -46,7 -75,7 -29,0 -58,-4 -87,-12 -28,-8 -53,-20 -76,-36 -22,-17 -41,-39 -55,-66 -15,-28 -24,-61 -27,-101l7 0zm-312 -137c-1,-7 -1,-15 -1,-23 0,-47 16,-84 48,-112 33,-28 74,-42 125,-42 22,0 42,3 60,10 18,6 31,13 41,21l9 75 288 0 0 46 -288 0 -9 -74c-10,-8 -23,-15 -41,-22 -18,-6 -38,-9 -60,-9 -51,0 -92,14 -125,42 -26,23 -42,52 -47,88zm-89 -326c-1,-7 -1,-15 -1,-24 0,-9 1,-22 3,-36 3,-15 6,-27 11,-35l600 0 1 1c11,14 20,29 28,45l-629 0c-5,9 -8,21 -11,35l-2 14zm277 -335c-1,-8 -2,-16 -2,-24 0,-32 12,-60 34,-84 23,-23 57,-35 104,-35 53,0 103,12 150,37 48,24 90,57 128,99 38,41 69,89 94,144 15,33 27,67 36,103l105 0 25 0 286 0c16,26 29,61 40,104 11,44 17,91 17,142l280 0 0 46 -280 0c0,-51 -6,-98 -17,-141 -11,-44 -24,-79 -40,-105l-286 0 -25 0 -105 0c-9,-35 -21,-70 -36,-103 -25,-54 -56,-102 -94,-144 -38,-41 -80,-74 -128,-99 -47,-24 -97,-36 -150,-36 -47,0 -81,11 -104,35 -17,18 -28,38 -32,61zm1297 371l0 -44c0,-19 3,-35 8,-48l2 -19 2 -14c1,6 1,13 1,20 0,11 -1,25 -3,41l-2 18c-5,12 -8,28 -8,46zm-432 -392c-1,-7 -2,-15 -2,-22 0,-45 12,-77 35,-95 24,-18 50,-27 79,-27 15,0 29,2 42,7 12,4 23,9 32,15 -2,5 -4,12 -5,20 -1,8 -1,15 -1,20l0 3c-8,-4 -16,-8 -26,-12 -13,-4 -27,-6 -42,-6 -29,0 -55,9 -79,27 -19,14 -30,38 -33,70zm182 -61c8,37 39,55 92,55 21,0 44,-2 69,-6 25,-4 48,-6 69,-6 64,0 117,16 157,49 41,33 61,80 61,142 0,8 0,16 -1,23 -5,-50 -25,-90 -60,-118 -40,-33 -93,-49 -157,-49 -21,0 -44,2 -69,5 -25,4 -48,6 -69,6 -63,0 -94,-25 -94,-76 0,-5 0,-11 1,-20l1 -5zm445 322l101 0c22,0 37,6 45,19 9,14 14,32 14,55 0,7 -1,15 -2,24 -2,-13 -6,-24 -12,-32 -8,-13 -23,-20 -45,-20l-114 0c3,-8 6,-17 9,-27 1,-6 3,-13 4,-19zm-754 527c-4,-10 -8,-19 -11,-29 23,-34 43,-73 58,-115 12,-36 20,-73 22,-113 0,8 0,16 0,24 0,48 -7,93 -22,135 -13,36 -28,68 -47,98zm402 40c35,0 66,-4 92,-11 27,-8 48,-17 65,-27l0 46c-17,11 -38,20 -65,27 -26,8 -57,11 -92,11 -48,0 -87,-9 -119,-27 -32,-18 -54,-37 -65,-56 5,-9 10,-18 15,-27 12,12 29,25 50,37 32,18 71,27 119,27zm-2614 746c13,149 141,270 290,267 147,-2 273,-120 285,-261 1,7 1,14 1,21 2,152 -130,284 -286,287 -157,3 -291,-132 -291,-292 0,-8 1,-15 1,-22zm703 263l249 238 -23 24 -243 -232c7,-12 12,-22 17,-30zm-893 -248c-2,-52 4,-107 20,-164 53,-190 185,-308 378,-341 186,-31 346,31 460,185 72,96 102,198 97,303 -5,-89 -36,-174 -97,-256 -114,-154 -274,-217 -460,-185 -193,33 -325,150 -378,340 -11,41 -18,80 -20,118zm-18 346l-24 0c-21,-37 -40,-72 -55,-108 -13,-31 -29,-39 -60,-38 -105,2 -210,1 -317,1l0 -47c107,0 212,1 317,-1 31,0 47,8 60,38 21,51 50,99 79,155zm-651 -1041c0,-193 0,-386 0,-579 1,-112 83,-193 194,-193 381,0 761,0 1141,0 104,0 190,74 192,173 1,114 2,228 1,343 0,-99 0,-198 -1,-297 -2,-99 -88,-172 -192,-172 -380,-1 -760,-1 -1141,0 -111,0 -193,80 -194,192 0,178 0,356 0,533zm126 2547l-405 1320 20 -19 396 -1291 -11 -10zm4279 -919c8,-16 16,-31 24,-47l-321 0c-446,755 -1267,1261 -2207,1261 -1407,0 -2549,-1134 -2561,-2539l-1 24c0,1415 1147,2562 2562,2562 940,0 1761,-507 2207,-1261l297 0zm-79 -2785l28 0c-494,-841 -1407,-1406 -2453,-1406 -1570,0 -2843,1273 -2843,2843l0 30c9,-1562 1278,-2826 2843,-2826 1026,0 1925,544 2425,1359zm-4411 3723c-689,-564 -1126,-1390 -1135,-2312l-1 17c0,930 437,1765 1129,2336l7 -41zm2292 -5452c101,3 200,10 299,21 -282,-78 -579,-119 -886,-119 -1837,0 -3325,1488 -3325,3325l0 29c9,-1829 1494,-3308 3325,-3308 200,0 397,18 587,52zm1176 3738c4,11 9,22 14,32 14,23 31,41 54,53 13,-2 25,-3 38,-3l79 0 0 46 -79 0c-13,0 -25,1 -38,3 -23,-12 -40,-29 -54,-53 -13,-23 -21,-49 -24,-78l10 0zm112 -204c-1,-6 -2,-14 -2,-23 0,-17 4,-33 10,-47 7,-13 16,-25 27,-35 11,-10 25,-17 40,-22 15,-5 31,-8 49,-8 17,0 33,3 48,8 16,5 29,13 40,23 11,10 20,22 26,35 7,14 10,29 10,46 0,9 -1,17 -2,24 -2,-8 -4,-16 -8,-23 -6,-14 -15,-26 -26,-36 -11,-9 -24,-17 -40,-22 -15,-6 -31,-8 -48,-8 -18,0 -34,2 -49,7 -15,5 -29,13 -40,23 -11,9 -20,21 -27,35 -3,7 -6,15 -8,23zm171 27l-3 -3c0,-1 1,-2 1,-3 1,2 2,4 2,6zm-93 -6l2 3 -4 3c1,-2 2,-4 2,-6zm394 525c8,0 16,-1 24,-1 11,11 20,25 27,41 -8,2 -17,4 -25,5 -9,1 -18,1 -26,1 -34,0 -59,-5 -75,-14 -16,-10 -24,-21 -24,-34 0,-11 4,-19 10,-24 4,4 8,8 14,11 16,10 41,15 75,15z"/>
  </g>
  <g id="_887797856">
   <g>
    <path class="fil18" d="M12789 2242c-46,66 -99,126 -157,182 -55,52 -116,99 -182,136 -3,60 -14,118 -33,174 -17,50 -39,100 -68,145 -22,34 -57,81 -98,92 -35,10 -67,0 -97,-18 -16,-10 -31,-22 -45,-35 -12,-12 -23,-26 -29,-43 10,-13 20,-27 29,-41 9,-15 19,-30 28,-46 12,-19 24,-39 35,-60 13,-22 24,-45 34,-69 -48,14 -97,17 -146,12 -55,-5 -107,-23 -156,-50 -42,-23 -81,-51 -114,-86 -29,-32 -52,-68 -67,-109 -14,-40 -20,-82 -18,-125 3,-46 16,-90 36,-132 20,-42 47,-81 82,-111 33,-29 70,-49 112,-60 43,-12 88,-13 133,-6 50,8 98,26 142,50 54,29 101,68 137,117 34,46 59,96 72,152 30,-30 56,-63 81,-97 25,-35 49,-71 73,-107 -210,-127 -426,-243 -647,-349 -6,6 -134,-62 -148,-69 -126,279 -251,557 -377,836 -14,-3 -27,-6 -41,-9 -18,-3 -36,-9 -52,-16 -28,-13 -57,-30 -72,-57 -18,-30 -4,-74 8,-103 11,-28 22,-55 34,-83 -32,4 -66,1 -97,-5 -37,-6 -73,-16 -107,-29 -95,-36 -179,-90 -237,-175 -54,-79 -82,-166 -83,-262 41,-37 77,-79 108,-124 34,-50 61,-105 79,-163 6,-19 12,-39 16,-59 5,-20 8,-41 10,-61 -30,-10 -60,-19 -91,-29l-10 -3 -11 -3c-44,-13 -89,-26 -133,-39 -56,198 -112,395 -167,593 -24,85 -67,161 -143,209 -79,51 -176,46 -264,26 -54,-12 -106,-33 -152,-63 -46,-29 -84,-65 -115,-110 -32,-45 -54,-96 -67,-151 -15,-61 -14,-125 -4,-187 14,-88 47,-173 123,-224 75,-52 166,-55 252,-37 86,18 171,37 256,58 14,-59 29,-118 43,-176 -254,-63 -509,-111 -767,-147 -42,302 -84,605 -126,907 -14,2 -29,3 -43,4 -18,1 -37,1 -55,-1 -30,-4 -61,-13 -84,-35 -25,-23 -25,-69 -21,-101 11,-104 21,-208 32,-312 -93,-9 -186,-17 -279,-23 -13,73 -37,162 -81,223 -33,43 -75,71 -131,69 -41,-2 -77,-14 -104,-47 -25,-30 -39,-65 -42,-103 45,-37 76,-91 98,-144 31,-74 43,-159 45,-239 2,-45 0,-90 -2,-135 -3,-44 -9,-89 -23,-131 -10,0 -212,-3 -213,-3 -2,-1 -52,0 -60,0 3,306 5,611 8,917 -14,3 -28,6 -41,9 -19,4 -37,6 -55,7 -31,1 -65,-4 -90,-22 -29,-20 -35,-65 -36,-97 -4,-99 -8,-199 -13,-298 -92,4 -184,9 -276,17 -6,111 -31,289 -171,305 -40,4 -75,-6 -106,-32 -30,-25 -51,-57 -62,-95 40,-43 62,-100 77,-156 19,-78 18,-163 9,-242 -5,-44 -13,-87 -22,-130 -10,-45 -23,-90 -43,-131 -43,5 -87,10 -131,16 -21,3 -44,1 -59,-17 -16,-18 -23,-46 -26,-70 -3,-15 -3,-31 -3,-46 1,-16 2,-32 7,-47 374,-51 716,-75 1093,-77 2,-1 40,0 50,0 117,0 234,4 352,10 14,26 25,54 35,82 12,36 22,74 29,112 8,46 14,92 16,138 4,51 3,103 0,154 90,6 181,14 272,24 12,-123 25,-245 38,-368 3,-28 11,-61 34,-81 23,-20 57,-21 85,-17 82,9 163,20 243,32 350,53 696,130 1034,231 370,117 703,235 1055,398l25 12c355,171 680,349 1009,568 18,12 33,29 32,52 0,25 -13,49 -26,69 -10,13 -20,25 -31,37 -11,11 -22,22 -35,30 -38,-26 -77,-52 -116,-77zm-7470 -419c28,58 50,120 63,184 10,50 17,104 15,156 35,17 67,40 95,67 31,29 56,64 75,103 26,50 42,104 46,161 3,52 -5,103 -24,152 -19,51 -49,95 -86,135 -43,46 -94,84 -148,115 -53,32 -110,58 -171,74 -44,12 -95,22 -142,17 -22,-3 -46,-8 -65,-19 -18,-11 -32,-26 -44,-43 -15,-23 -23,-49 -23,-77 0,-25 6,-50 20,-71 47,7 96,7 144,3 62,-5 120,-30 173,-61 58,-35 113,-81 135,-148 19,-56 16,-110 -12,-162 -5,-8 -10,-16 -15,-24 -5,-7 -10,-13 -16,-19 -8,47 -30,90 -58,128 -34,45 -77,80 -125,109 -36,21 -75,39 -115,50 -36,10 -73,14 -110,10 -35,-4 -69,-15 -99,-33 -33,-20 -60,-48 -81,-80 -41,-64 -57,-132 -35,-206 25,-80 88,-138 158,-180 49,-30 103,-52 159,-61 46,-7 94,-9 139,-1 -6,-28 -15,-55 -26,-82 -11,-30 -24,-59 -38,-88 -214,116 -421,242 -622,378 -19,12 -40,20 -62,11 -22,-10 -41,-32 -54,-51 -9,-13 -16,-27 -23,-41 -6,-14 -12,-29 -14,-45 297,-203 609,-386 931,-546 492,-244 1009,-435 1541,-569 153,-38 307,-72 461,-101 22,-4 44,-2 60,14 16,18 24,45 28,68 3,16 4,33 5,49 0,14 0,31 -4,45 -49,9 -98,18 -147,28 36,179 72,359 108,538 -13,6 -27,12 -41,18 -17,8 -36,13 -54,17 -31,7 -67,10 -97,-2 -32,-13 -47,-57 -55,-89 -33,-143 -67,-286 -101,-430 -74,18 -149,36 -223,56 79,295 158,591 237,886 -12,7 -24,13 -37,19 -16,9 -33,15 -51,20 -29,9 -62,13 -92,2 -32,-12 -49,-55 -58,-85 -29,-96 -58,-191 -87,-286 -96,29 -191,60 -286,93 22,109 44,288 -87,339 -38,14 -74,13 -110,-4 -36,-17 -64,-43 -84,-77 27,-51 34,-113 34,-170 -1,-80 -24,-162 -52,-236 -16,-41 -35,-81 -55,-120 -21,-41 -45,-81 -74,-117 -79,31 -158,64 -236,97 73,168 145,336 218,504 -12,9 -24,18 -37,26 -15,11 -32,21 -49,29 -29,13 -63,23 -95,17 -35,-6 -59,-46 -73,-75 -62,-133 -125,-266 -188,-399 -25,12 -139,67 -164,80zm-249 610c29,-17 53,-38 74,-64 21,-27 35,-57 42,-90 -33,-10 -68,-12 -103,-7 -31,5 -62,14 -90,30 -22,14 -45,32 -52,58 -6,20 -4,40 7,58 11,19 28,32 50,35 25,4 51,-7 72,-20zm1528 -792c-30,-98 -59,-196 -89,-293 -110,33 -220,69 -328,107 14,24 28,47 41,72 13,24 25,49 37,74 11,24 22,47 32,71 8,20 17,40 24,61 93,-33 188,-64 283,-92zm-135 541c-11,-32 -13,-66 0,-98 12,-31 35,-51 66,-62 32,-10 62,-8 90,10 29,19 47,47 57,79 11,33 12,66 0,99 -12,30 -33,50 -64,61 -31,10 -61,7 -89,-11 -29,-18 -49,-45 -60,-78zm1930 -845c-4,-102 -8,-204 -12,-306 -107,5 -213,11 -319,20 8,26 15,53 21,79 6,27 12,54 17,82 5,25 9,51 13,77 3,21 6,43 8,64 90,-7 181,-12 272,-16zm1798 587c32,8 69,9 98,-10 27,-19 42,-48 49,-79 18,-72 36,-145 54,-218 -68,-16 -136,-32 -205,-47 -35,-7 -71,-6 -99,19 -26,23 -40,52 -47,85 -6,31 -7,63 -1,94 6,27 15,52 31,74 14,21 32,39 53,53 20,14 43,24 67,29zm984 103c34,13 69,22 105,24 28,2 58,1 85,-6 19,-45 37,-90 55,-134 -114,-47 -229,-91 -345,-132 -11,14 -22,27 -34,39 -12,12 -25,23 -38,34 8,33 30,66 50,92 31,40 76,65 122,83zm-14 -411c111,40 220,82 329,127 21,-51 41,-101 62,-151 -114,-47 -229,-91 -346,-133 -4,20 -9,40 -14,60 -4,20 -10,39 -16,57 -5,14 -10,27 -15,40zm868 828c36,20 73,28 113,25 38,-3 75,-13 109,-32 1,-41 -10,-80 -32,-116 -20,-34 -47,-63 -83,-82 -33,-19 -70,-30 -108,-22 -33,7 -57,26 -72,55 -16,31 -18,61 -5,93 14,36 45,61 78,79z"/>
    <path class="fil19" d="M12789 2195c-46,66 -99,127 -157,182 -55,53 -116,99 -182,137 -3,59 -14,117 -33,173 -17,51 -39,101 -68,145 -22,34 -57,81 -98,93 -35,9 -67,0 -97,-19 -16,-10 -31,-21 -45,-35 -12,-12 -23,-26 -29,-42 10,-13 20,-27 29,-41 9,-15 19,-31 28,-46 12,-20 24,-40 35,-60 13,-23 24,-46 34,-70 -48,15 -97,18 -146,13 -55,-6 -107,-24 -156,-50 -42,-23 -81,-51 -114,-87 -29,-32 -52,-68 -67,-109 -14,-40 -20,-82 -18,-124 3,-46 16,-91 36,-132 20,-43 47,-81 82,-112 33,-28 70,-49 112,-60 43,-12 88,-13 133,-6 50,9 98,27 142,51 54,29 101,67 137,117 34,45 59,96 72,151 30,-30 56,-62 81,-96 25,-36 49,-71 73,-108 -210,-127 -426,-243 -647,-349 -6,6 -134,-62 -148,-68 -126,278 -251,557 -377,835 -14,-2 -27,-5 -41,-8 -18,-4 -36,-10 -52,-17 -28,-12 -57,-30 -72,-57 -18,-30 -4,-73 8,-103 11,-27 22,-55 34,-82 -32,4 -66,0 -97,-5 -37,-7 -73,-17 -107,-30 -95,-36 -179,-90 -237,-174 -54,-79 -82,-167 -83,-262 41,-37 77,-80 108,-125 34,-50 61,-105 79,-163 6,-19 12,-39 16,-59 5,-20 8,-40 10,-61 -30,-9 -60,-19 -91,-28l-10 -3 -11 -3c-44,-14 -89,-27 -133,-39 -56,197 -112,395 -167,593 -24,84 -67,160 -143,209 -79,51 -176,46 -264,26 -54,-13 -106,-33 -152,-63 -46,-29 -84,-66 -115,-110 -32,-46 -54,-97 -67,-151 -15,-62 -14,-126 -4,-188 14,-87 47,-172 123,-224 75,-51 166,-55 252,-36 86,17 171,37 256,58 14,-59 29,-118 43,-177 -254,-62 -509,-111 -767,-147 -42,303 -84,605 -126,908 -14,1 -29,2 -43,3 -18,2 -37,1 -55,-1 -30,-4 -61,-13 -84,-34 -25,-24 -25,-70 -21,-101 11,-104 21,-208 32,-312 -93,-10 -186,-18 -279,-24 -13,73 -37,163 -81,223 -33,44 -75,71 -131,69 -41,-1 -77,-14 -104,-46 -25,-30 -39,-65 -42,-104 45,-36 76,-90 98,-143 31,-75 43,-159 45,-239 2,-45 0,-90 -2,-135 -3,-44 -9,-89 -23,-132 -10,0 -212,-2 -213,-3 -2,0 -52,1 -60,1 3,305 5,611 8,916 -14,4 -28,7 -41,10 -19,4 -37,6 -55,6 -31,1 -65,-3 -90,-21 -29,-20 -35,-65 -36,-97 -4,-100 -8,-199 -13,-299 -92,4 -184,10 -276,17 -6,112 -31,290 -171,305 -40,5 -75,-6 -106,-31 -30,-26 -51,-57 -62,-96 40,-43 62,-100 77,-155 19,-78 18,-163 9,-242 -5,-44 -13,-88 -22,-130 -10,-45 -23,-90 -43,-132 -43,5 -87,11 -131,17 -21,3 -44,0 -59,-17 -16,-19 -23,-47 -26,-70 -3,-16 -3,-32 -3,-47 1,-15 2,-32 7,-46 374,-52 716,-76 1093,-78 2,-1 40,0 50,0 117,0 234,4 352,11 14,25 25,54 35,81 12,37 22,75 29,113 8,45 14,91 16,137 4,52 3,103 0,155 90,6 181,14 272,23 12,-122 25,-245 38,-367 3,-29 11,-62 34,-81 23,-20 57,-21 85,-18 82,10 163,21 243,33 350,53 696,130 1034,230 370,117 703,235 1055,399l25 11c355,172 680,350 1009,569 18,12 33,29 32,52 0,24 -13,49 -26,68 -10,13 -20,26 -31,38 -11,10 -22,21 -35,30 -38,-26 -77,-52 -116,-78zm-7470 -419c28,59 50,120 63,184 10,51 17,105 15,157 35,17 67,39 95,66 31,30 56,65 75,103 26,51 42,105 46,161 3,53 -5,104 -24,152 -19,51 -49,96 -86,136 -43,46 -94,83 -148,115 -53,32 -110,57 -171,74 -44,12 -95,22 -142,16 -22,-3 -46,-7 -65,-19 -18,-10 -32,-25 -44,-42 -15,-24 -23,-49 -23,-77 0,-26 6,-50 20,-72 47,8 96,7 144,3 62,-4 120,-29 173,-60 58,-35 113,-82 135,-148 19,-56 16,-111 -12,-163 -5,-8 -10,-16 -15,-23 -5,-7 -10,-13 -16,-19 -8,47 -30,90 -58,128 -34,44 -77,80 -125,108 -36,22 -75,39 -115,51 -36,9 -73,13 -110,9 -35,-3 -69,-14 -99,-33 -33,-20 -60,-48 -81,-80 -41,-63 -57,-131 -35,-205 25,-80 88,-139 158,-181 49,-29 103,-52 159,-60 46,-8 94,-10 139,-1 -6,-28 -15,-56 -26,-82 -11,-30 -24,-59 -38,-88 -214,116 -421,241 -622,377 -19,12 -40,21 -62,11 -22,-9 -41,-31 -54,-51 -9,-12 -16,-27 -23,-41 -6,-13 -12,-29 -14,-44 297,-204 609,-386 931,-546 492,-244 1009,-435 1541,-569 153,-39 307,-73 461,-102 22,-4 44,-2 60,15 16,18 24,44 28,67 3,17 4,33 5,50 0,14 0,31 -4,45 -49,8 -98,18 -147,27 36,180 72,359 108,539 -13,6 -27,12 -41,18 -17,7 -36,13 -54,17 -31,7 -67,10 -97,-2 -32,-13 -47,-58 -55,-89 -33,-144 -67,-287 -101,-430 -74,18 -149,36 -223,56 79,295 158,590 237,885 -12,7 -24,13 -37,20 -16,8 -33,15 -51,20 -29,8 -62,12 -92,1 -32,-12 -49,-54 -58,-85 -29,-95 -58,-190 -87,-286 -96,30 -191,61 -286,94 22,109 44,288 -87,338 -38,14 -74,13 -110,-4 -36,-17 -64,-42 -84,-77 27,-51 34,-112 34,-169 -1,-80 -24,-163 -52,-237 -16,-41 -35,-81 -55,-120 -21,-41 -45,-81 -74,-116 -79,31 -158,63 -236,97 73,168 145,336 218,504 -12,9 -24,17 -37,26 -15,11 -32,20 -49,28 -29,13 -63,23 -95,18 -35,-6 -59,-46 -73,-76 -62,-133 -125,-266 -188,-399 -25,12 -139,67 -164,80zm-249 611c29,-17 53,-38 74,-65 21,-26 35,-57 42,-90 -33,-9 -68,-11 -103,-6 -31,4 -62,14 -90,30 -22,13 -45,32 -52,57 -6,21 -4,40 7,59 11,19 28,31 50,35 25,4 51,-8 72,-20zm1528 -793c-30,-98 -59,-195 -89,-293 -110,34 -220,69 -328,108 14,23 28,47 41,71 13,25 25,49 37,74 11,24 22,48 32,72 8,20 17,40 24,60 93,-32 188,-63 283,-92zm-135 542c-11,-33 -13,-66 0,-98 12,-32 35,-52 66,-62 32,-11 62,-8 90,10 29,18 47,46 57,79 11,33 12,66 0,98 -12,31 -33,51 -64,61 -31,11 -61,7 -89,-10 -29,-19 -49,-46 -60,-78zm1930 -846c-4,-101 -8,-203 -12,-305 -107,4 -213,11 -319,19 8,27 15,53 21,80 6,27 12,54 17,81 5,26 9,51 13,77 3,22 6,43 8,65 90,-7 181,-13 272,-17zm1798 588c32,7 69,9 98,-11 27,-18 42,-47 49,-78 18,-73 36,-146 54,-218 -68,-17 -136,-33 -205,-47 -35,-8 -71,-6 -99,19 -26,23 -40,52 -47,85 -6,31 -7,63 -1,93 6,27 15,52 31,75 14,21 32,39 53,53 20,13 43,23 67,29zm984 103c34,12 69,21 105,23 28,2 58,1 85,-6 19,-44 37,-89 55,-134 -114,-47 -229,-91 -345,-132 -11,14 -22,27 -34,39 -12,12 -25,24 -38,35 8,32 30,66 50,92 31,39 76,65 122,83zm-14 -411c111,39 220,82 329,126 21,-50 41,-100 62,-151 -114,-47 -229,-91 -346,-132 -4,20 -9,40 -14,60 -4,19 -10,38 -16,57 -5,13 -10,27 -15,40zm868 828c36,19 73,27 113,25 38,-3 75,-13 109,-32 1,-42 -10,-81 -32,-116 -20,-35 -47,-64 -83,-83 -33,-18 -70,-30 -108,-21 -33,7 -57,25 -72,55 -16,30 -18,61 -5,93 14,36 45,61 78,79z"/>
    <path class="fil10" d="M12095 2855c-7,-8 -12,-17 -15,-26 10,-13 20,-27 29,-41 9,-15 19,-31 28,-46 12,-20 24,-40 35,-60l9 -17c8,-2 17,-4 25,-6 -10,24 -21,47 -34,69 -11,21 -23,41 -35,60 -9,16 -19,31 -28,46 -5,7 -10,14 -14,21zm-389 -559c-1,-13 -1,-27 -1,-41 3,-46 16,-91 36,-132 20,-43 47,-81 82,-112 33,-28 70,-49 112,-60 43,-12 88,-13 133,-6 50,9 98,27 142,51 54,29 101,67 137,117 34,45 59,96 72,151 30,-30 56,-62 81,-96 17,-25 34,-50 51,-75l22 14c-24,36 -48,72 -73,107 -25,34 -51,67 -81,97 -13,-56 -38,-106 -72,-152 -36,-49 -83,-88 -137,-117 -44,-24 -92,-42 -142,-50 -45,-7 -90,-6 -133,6 -42,11 -79,31 -112,60 -35,30 -62,69 -82,111 -19,40 -32,83 -35,127zm-476 87c-8,-29 3,-65 14,-90l14 -34c7,0 13,-1 20,-2 -12,28 -23,55 -34,83 -5,12 -11,27 -14,43zm-473 -599c-2,-14 -3,-29 -3,-44 41,-37 77,-80 108,-125 34,-50 61,-105 79,-163 6,-19 12,-39 16,-59l4 -16 6 2c-2,20 -5,41 -10,61 -4,20 -10,40 -16,59 -18,58 -45,113 -79,163 -31,44 -66,86 -105,122zm-954 -99c-2,-37 1,-74 7,-110 14,-87 47,-172 123,-224 75,-51 166,-55 252,-36 86,17 171,37 256,58l32 -133 11 3c-14,58 -29,117 -43,176 -85,-21 -170,-40 -256,-58 -86,-18 -177,-15 -252,37 -76,51 -109,136 -123,224 -4,20 -6,42 -7,63zm-416 189c-2,-17 -1,-35 1,-50l27 -266 5 0c-11,104 -21,208 -32,312l-1 4zm-597 -204c-4,-13 -6,-26 -7,-40 45,-36 76,-90 98,-143 31,-75 43,-159 45,-239l1 -17c0,21 0,42 -1,63 -2,80 -14,165 -45,239 -21,50 -49,101 -91,137zm-161 -645l7 870 -1 0 -7 -870 1 0zm-831 696c-5,-10 -9,-21 -12,-32 40,-43 62,-100 77,-155 9,-38 14,-78 15,-118 2,56 -2,112 -15,164 -13,50 -33,101 -65,141zm-209 -776c-1,-11 -1,-22 -1,-32 1,-15 2,-32 7,-46 374,-52 716,-76 1093,-78 2,-1 40,0 50,0 117,0 234,4 352,11 14,25 25,54 35,81 12,37 22,75 29,113 8,45 14,91 16,137 2,32 3,63 2,94 0,-16 -1,-31 -2,-47 -2,-46 -8,-92 -16,-138 -7,-38 -17,-76 -29,-112 -10,-28 -21,-56 -35,-82 -118,-6 -235,-10 -352,-10 -10,0 -48,-1 -50,0 -377,2 -719,26 -1093,77 -3,10 -5,21 -6,32zm1583 341c90,6 180,14 270,23 12,-122 25,-245 38,-367 3,-29 11,-62 34,-81 23,-20 57,-21 85,-18 82,10 163,21 243,33 350,53 696,130 1034,230 370,117 703,235 1055,399l25 11c355,172 680,350 1009,569 18,12 33,29 32,52 0,8 -2,17 -4,25 -6,-13 -16,-23 -28,-31 -329,-219 -654,-397 -1009,-568l-25 -12c-352,-163 -685,-281 -1055,-398 -338,-101 -684,-178 -1034,-231 -80,-12 -161,-23 -243,-32 -28,-4 -62,-3 -85,17 -23,20 -31,53 -34,81 -13,123 -26,245 -38,368 -91,-10 -182,-18 -272,-24 1,-15 1,-31 2,-46zm-3836 528c20,47 36,96 46,146 10,51 17,105 15,157 35,17 67,39 95,66 31,30 56,65 75,103 26,51 42,105 46,161 1,16 1,31 0,47 -4,-57 -20,-111 -46,-161 -19,-39 -44,-74 -75,-103 -28,-27 -60,-50 -95,-67 2,-52 -5,-106 -15,-156 -13,-64 -35,-126 -63,-184l17 -9zm-424 1011c-2,-7 -2,-15 -2,-23 0,-26 6,-50 20,-72 47,8 96,7 144,3 62,-4 120,-29 173,-60 58,-35 113,-82 135,-148 5,-16 9,-31 10,-46 4,30 0,61 -10,92 -22,67 -77,113 -135,148 -53,31 -111,56 -173,61 -48,4 -97,4 -144,-3 -10,15 -16,31 -18,48zm-205 -437c-3,-29 0,-59 9,-90 25,-80 88,-139 158,-181 49,-29 103,-52 159,-60 41,-7 84,-9 125,-4 6,16 11,33 14,49 -45,-8 -93,-6 -139,1 -56,9 -110,31 -159,61 -70,42 -133,100 -158,180 -4,15 -7,29 -9,44zm-363 -211c-5,-12 -10,-26 -11,-39 297,-204 609,-386 931,-546 492,-244 1009,-435 1541,-569 153,-39 307,-73 461,-102 22,-4 44,-2 60,15 16,18 24,44 28,67 3,17 4,33 5,50 0,9 0,19 -1,28 -1,-10 -2,-21 -4,-31 -4,-23 -12,-50 -28,-68 -16,-16 -38,-18 -60,-14 -154,29 -308,63 -461,101 -532,134 -1049,325 -1541,569 -318,158 -626,338 -920,539zm2873 -1007l99 494 -8 4 -100 -496 9 -2zm-460 107l225 842 -11 6 -226 -845 12 -3zm-378 649c6,39 10,81 8,122 -2,-42 -9,-84 -16,-119l8 -3zm-277 233c-4,-6 -8,-12 -12,-19 22,-42 31,-91 33,-140l1 17c0,48 -5,98 -22,142zm-378 -525l201 465 -15 11 -203 -469 17 -7zm-654 753c29,-17 53,-38 74,-65 12,-14 21,-30 28,-47 5,1 10,3 14,4 -7,33 -21,63 -42,90 -21,26 -45,47 -74,64 -21,13 -47,24 -72,20 -22,-3 -39,-16 -50,-35 -11,-18 -13,-38 -7,-58l0 -2c2,5 4,9 7,14 11,19 28,31 50,35 25,4 51,-8 72,-20zm1134 -940c6,11 12,22 18,33 13,25 25,49 37,74 11,24 22,48 32,72 8,20 17,40 24,60 89,-31 179,-60 270,-88l13 43c-95,28 -190,59 -283,92 -7,-21 -16,-41 -24,-61 -10,-24 -21,-47 -32,-71 -12,-25 -24,-50 -37,-74 -13,-25 -27,-48 -41,-72l23 -8zm252 661c-4,-24 -3,-47 7,-70 12,-32 35,-52 66,-62 32,-11 62,-8 90,10 29,18 47,46 57,79 8,24 11,48 7,73 -2,-9 -4,-18 -7,-27 -10,-32 -28,-60 -57,-79 -28,-18 -58,-20 -90,-10 -31,11 -54,31 -66,62 -4,8 -6,16 -7,24zm1619 -1058c3,11 5,22 8,34 6,27 12,54 17,81 5,26 9,51 13,77 3,22 6,43 8,65 90,-7 180,-13 270,-16l2 46c-91,4 -182,9 -272,16 -2,-21 -5,-43 -8,-64 -4,-26 -8,-52 -13,-77 -5,-28 -11,-55 -17,-82 -6,-26 -13,-53 -21,-79l13 -1zm2116 828c32,7 69,9 98,-11 27,-18 42,-47 49,-78l43 -174 11 2c-18,73 -36,146 -54,218 -7,31 -22,60 -49,79 -29,19 -66,18 -98,10 -24,-5 -47,-15 -67,-29 -21,-14 -39,-32 -53,-53 -16,-22 -25,-47 -31,-74 -4,-22 -5,-44 -3,-66 1,7 2,13 3,19 6,27 15,52 31,75 14,21 32,39 53,53 20,13 43,23 67,29zm984 103c34,12 69,21 105,23 28,2 58,1 85,-6l39 -94 16 7c-18,44 -36,89 -55,134 -27,7 -57,8 -85,6 -36,-2 -71,-11 -105,-24 -46,-18 -91,-43 -122,-83 -20,-26 -42,-59 -50,-92l13 -11c10,20 24,40 37,57 31,39 76,65 122,83zm1 -406c106,38 210,79 314,121l46 -111 16 7c-21,50 -41,100 -62,151 -109,-45 -218,-87 -329,-127 5,-13 10,-26 15,-40l0 -1zm853 823c36,19 73,27 113,25 37,-3 73,-12 105,-30 3,14 4,29 4,44 -34,19 -71,29 -109,32 -40,3 -77,-5 -113,-25 -33,-18 -64,-43 -78,-79 -9,-22 -11,-43 -6,-64 1,6 3,12 6,18 14,36 45,61 78,79z"/>
   </g>
   <path class="fil20" d="M7748 3106c5,35 7,71 1,107 -4,31 -13,61 -27,89 19,13 35,29 48,48 13,19 22,42 26,65 5,30 3,60 -8,89 -11,29 -29,53 -51,75 -26,25 -56,44 -88,59 -39,19 -81,32 -123,42 -43,10 -87,17 -131,18 -30,1 -65,0 -95,-9 -22,-6 -45,-18 -52,-42 -4,-13 -2,-26 5,-39 7,-12 16,-23 28,-30 29,12 62,18 93,22 43,5 88,-1 129,-11 47,-11 100,-30 134,-66 25,-26 40,-57 33,-94 -3,-15 -8,-28 -17,-39 -20,27 -46,48 -75,65 -34,20 -71,33 -109,42 -29,7 -59,11 -88,12 -25,0 -49,-2 -73,-9 -20,-6 -38,-15 -53,-29 -16,-14 -26,-31 -31,-50 -12,-43 0,-79 29,-111 37,-40 91,-62 143,-74 39,-10 80,-14 121,-11 32,3 65,9 96,22 3,-18 4,-37 4,-55 -1,-21 -3,-41 -6,-62 -171,34 -342,75 -509,124 -12,3 -26,6 -37,-1 -10,-6 -15,-17 -19,-28 -2,-7 -3,-14 -3,-21 -1,-7 -1,-15 1,-22 248,-74 501,-132 756,-171 12,-2 25,-1 34,7 9,8 13,19 15,31 1,7 1,14 0,21 -1,7 -2,14 -4,21 -32,4 -65,10 -97,15zm-295 305c27,-6 52,-16 75,-29 22,-13 41,-29 55,-50 -23,-13 -48,-20 -74,-22 -27,-3 -53,-2 -79,4 -21,5 -46,14 -61,29 -11,11 -17,25 -13,40 4,16 16,25 31,30 21,6 46,3 66,-2zm587 -346c11,99 22,198 33,296 -8,3 -16,5 -25,8 -10,3 -21,5 -32,6 -18,2 -39,3 -56,-4 -17,-6 -23,-23 -25,-39 -12,-83 -23,-166 -35,-249 -27,3 -54,7 -82,12 -28,4 -45,-7 -49,-36 -1,-7 -2,-15 -1,-22 0,-7 1,-14 3,-21 114,-19 228,-33 343,-44 29,-3 45,10 48,39 1,7 0,14 -1,21 0,7 -2,15 -4,21 -39,4 -78,8 -117,12zm323 -26c9,167 18,335 27,503 -8,2 -17,3 -25,5 -11,2 -21,3 -32,4 -17,1 -38,0 -54,-7 -16,-8 -21,-25 -22,-41 -12,-151 -24,-303 -36,-455 -28,2 -56,5 -84,7 -11,1 -26,1 -35,-7 -9,-8 -12,-20 -13,-31 -1,-7 -1,-15 1,-22 1,-7 2,-14 4,-21 40,-5 79,-8 119,-11 -2,-28 -4,-55 -6,-82 -5,-58 11,-109 57,-146 51,-42 121,-56 185,-58 37,-2 75,1 111,9 28,7 56,17 81,33 4,3 10,8 15,10 10,6 28,28 34,38 11,18 17,37 16,58 0,21 -4,42 -20,56 -7,5 -22,14 -30,15 -10,0 -17,3 -28,3 -13,0 -27,-1 -40,-4 -10,-3 -20,-6 -30,-10 1,-6 2,-12 2,-18 0,-7 0,-14 0,-20 0,-24 -11,-43 -30,-56 -22,-17 -51,-21 -79,-20 -27,1 -53,8 -74,26 -21,19 -26,47 -24,74 1,27 3,55 4,82 31,-1 61,-3 92,-4 12,0 27,1 35,10 9,8 11,21 11,32 1,7 0,15 -2,22 -1,7 -2,14 -5,20 -42,2 -83,3 -125,6zm761 12c-15,167 -29,334 -43,502 -8,1 -17,1 -26,1 -10,1 -21,1 -32,0 -17,-1 -38,-5 -52,-15 -14,-9 -17,-26 -16,-42 3,-60 7,-119 10,-179 -80,-5 -160,-8 -240,-9 -7,41 -21,89 -48,120 -4,5 -16,17 -21,20 -26,12 -32,19 -63,19 -21,1 -41,-4 -59,-18 -14,-11 -25,-25 -29,-43 27,-20 47,-48 62,-78 20,-42 25,-94 24,-140 0,-26 -3,-52 -6,-78 -4,-27 -10,-54 -20,-80 -35,1 -70,2 -104,3 -29,1 -44,-13 -46,-42 0,-7 1,-14 2,-21 1,-7 3,-14 5,-21 78,-3 156,-5 234,-5 192,1 374,10 566,29 12,1 25,5 33,15 6,10 7,22 6,33 -1,7 -3,15 -5,22 -2,6 -5,13 -8,19 -41,-5 -83,-9 -124,-12zm-391 166c79,1 159,4 238,9 3,-62 7,-124 11,-186 -91,-5 -182,-8 -272,-9 8,29 14,59 18,89 3,27 6,56 5,83 0,5 0,9 0,14zm15 236c0,-18 7,-33 21,-44 16,-12 34,-17 54,-16 19,1 38,6 52,20 13,12 19,27 18,45 -1,17 -8,32 -22,43 -15,13 -33,17 -52,16 -19,0 -37,-6 -52,-19 -13,-12 -20,-27 -19,-45zm819 -346c20,40 56,70 93,92 49,29 102,48 157,60 9,2 19,4 28,6 1,6 2,11 3,17 1,6 0,13 -2,19 -3,15 -11,26 -25,33 -17,8 -41,6 -58,2 -10,-2 -19,-4 -28,-7 -10,-3 -20,-6 -30,-9 -29,37 -58,75 -86,113 -18,-15 -39,-27 -61,-38 -22,-10 -46,-18 -71,-22 -27,-4 -55,-4 -81,3 -22,6 -41,17 -54,35 15,34 41,58 72,77 37,23 79,37 122,44 38,7 79,11 117,6 27,-4 55,-10 80,-21 11,7 20,16 26,27 6,11 9,22 6,34 -5,22 -21,34 -42,42 -27,11 -55,15 -85,16 -41,1 -84,-4 -125,-11 -42,-7 -82,-18 -121,-34 -33,-14 -64,-31 -92,-53 -25,-20 -47,-42 -65,-68 -16,-24 -29,-50 -36,-78 12,-21 28,-40 47,-55 19,-16 41,-28 64,-38 24,-10 50,-16 76,-19 28,-3 56,-2 84,3 16,2 33,6 49,12 13,4 26,10 38,16 9,-12 18,-25 27,-37 -41,-22 -80,-48 -112,-81 -32,-31 -55,-68 -70,-110 -63,-9 -127,-17 -191,-23 -29,-3 -42,-19 -39,-48 1,-7 2,-14 4,-21 3,-6 5,-13 9,-20 247,24 494,65 736,121 29,7 39,25 33,53 -2,7 -5,14 -8,21 -3,6 -6,12 -11,18 -125,-30 -251,-56 -378,-77zm386 604c-17,-4 -37,-11 -49,-24 -13,-12 -12,-29 -8,-45 37,-148 75,-295 112,-443 -27,-7 -55,-14 -82,-20 -11,-3 -25,-8 -31,-18 -6,-11 -5,-23 -3,-34 2,-7 5,-14 8,-20 3,-7 7,-13 12,-19 40,9 79,19 119,29 7,-28 14,-55 21,-82 7,-27 6,-54 -13,-76 -18,-22 -45,-35 -72,-41 -26,-6 -56,-8 -79,6 -20,11 -32,27 -37,49 -1,6 -2,13 -3,19 -1,6 -2,12 -2,18 -10,3 -21,4 -31,4 -14,1 -27,-1 -40,-3 -20,-5 -40,-13 -53,-29 -14,-17 -15,-39 -11,-59 4,-20 13,-38 28,-54 15,-17 35,-29 57,-38 26,-10 55,-15 84,-16 36,-2 74,3 109,11 64,15 129,42 173,93 38,44 45,95 30,151 -8,28 -16,56 -24,83 29,8 58,17 86,25 12,4 25,10 31,21 5,10 3,23 0,34 -2,7 -5,14 -8,20 -3,6 -7,13 -12,18 -39,-12 -79,-24 -120,-35 -45,161 -90,323 -136,485 -8,-1 -17,-2 -25,-3 -11,-2 -21,-4 -31,-7z"/>
  </g>
  <g id="_887798864">
   <g>
    <path class="fil21" d="M11142 15469c13,37 26,75 39,112 35,-3 69,-2 103,3 34,6 66,16 96,31 31,16 57,37 81,61 26,28 44,60 58,94 12,31 20,63 20,96 0,28 -3,55 -12,81 -9,23 -21,44 -38,62 -15,15 -32,28 -52,35 -21,8 -43,10 -62,-1 -18,-10 -30,-26 -37,-45 0,-3 -1,-6 -2,-8 9,-8 18,-17 25,-26 10,-11 17,-24 22,-38 7,-16 9,-33 10,-49 1,-22 -5,-44 -12,-63 -9,-23 -21,-43 -39,-60 -16,-17 -35,-30 -56,-39 -21,-9 -43,-15 -66,-17 -17,-2 -51,-2 -67,3 -16,6 -43,27 -55,39 -17,16 -30,34 -41,54 -10,21 -16,43 -19,65 -3,24 0,48 7,71 6,19 15,39 29,55 11,14 23,25 38,34 13,8 26,14 41,17 12,2 24,4 36,4 1,3 2,6 3,8 6,19 7,38 2,57 -7,21 -27,33 -47,39 -21,7 -42,8 -64,6 -24,-3 -47,-11 -68,-24 -24,-14 -44,-34 -61,-56 -21,-26 -35,-58 -45,-90 -11,-36 -16,-73 -12,-110 3,-33 12,-66 26,-97 13,-31 32,-58 55,-83 23,-25 49,-47 77,-65 -12,-38 -25,-76 -38,-113 -81,27 -162,53 -245,77l-11 4 -1 0 -4 1 -1 0c-29,9 -59,18 -89,26 34,119 68,239 101,358 -8,5 -16,9 -24,13 -11,5 -21,9 -32,12 -19,5 -41,8 -60,2 -19,-7 -28,-29 -33,-47 -27,-101 -53,-202 -80,-303l-62 16c-33,8 -65,16 -98,24 18,76 36,152 55,228 4,17 7,41 -3,58 -10,16 -32,24 -49,28 -107,24 -213,47 -321,66 8,34 20,70 40,98 17,23 37,43 62,57 24,12 49,20 76,22 28,2 55,0 82,-6 21,-4 41,-11 60,-20 15,-7 30,-15 43,-26 11,-8 21,-18 29,-29 7,-10 15,-20 21,-30 16,2 30,8 42,18 13,10 21,22 25,38 8,30 -6,56 -26,79 -18,21 -41,36 -65,49 -33,18 -69,29 -105,36 -44,10 -88,13 -132,10 -42,-2 -82,-13 -120,-32 -38,-20 -71,-49 -97,-84 -33,-41 -53,-92 -66,-143 -24,1 -45,-6 -64,-20 -21,-15 -32,-38 -36,-64 -5,-33 1,-63 22,-89 21,-26 49,-40 82,-46 14,-3 29,-3 43,-1 11,2 23,5 33,11 6,21 12,42 17,63 89,-17 177,-35 265,-54 -14,-62 -27,-125 -41,-188 -151,34 -303,62 -455,86l-12 2 -2 0 -1 0 -4 1 -2 0 -2 1 -2 0 -1 0 -3 0 -87 13c30,208 59,415 88,623 -9,3 -19,6 -28,9 -11,3 -23,5 -35,7 -20,2 -43,3 -62,-6 -18,-9 -24,-30 -27,-49 -23,-189 -46,-378 -69,-566 -56,7 -113,13 -170,18 15,147 29,293 44,440 5,55 -4,109 -42,152 -42,47 -108,63 -168,67 -40,3 -81,-1 -119,-14 -35,-11 -68,-29 -95,-54 -28,-24 -49,-54 -64,-88 -16,-37 -24,-76 -25,-116 -2,-59 10,-117 50,-162 40,-44 94,-62 152,-65 48,-3 97,-7 145,-10 -3,-46 -7,-92 -11,-138 -123,10 -247,17 -370,21l-2 0 -3 0 -3 0 -11 1 -1 0 -4 0 -2 0c-30,1 -60,1 -90,2 4,209 7,419 10,628 -9,3 -19,4 -29,6 -12,2 -24,3 -36,3 -20,0 -43,-3 -60,-14 0,0 -2,-1 -2,-1 -15,-4 -20,-39 -20,-51 1,-102 1,-203 1,-305 -52,0 -103,-1 -155,-2 -2,88 -4,175 -6,263 -16,7 -34,11 -51,14 -24,3 -49,4 -73,3 -79,-3 -156,-22 -222,-66 -61,-40 -103,-95 -124,-165 25,-30 45,-65 60,-101 17,-41 26,-83 29,-127 2,-17 2,-34 1,-52 0,-18 -2,-36 -5,-54 -33,-2 -66,-5 -99,-8 -33,-3 -38,-30 -36,-58 1,-9 3,-17 5,-26 1,-8 4,-17 8,-25 230,21 449,31 680,32 0,-7 1,-13 1,-20 0,-55 -28,-82 -83,-82 -16,0 -33,0 -50,1 -17,1 -34,1 -52,1 -44,-2 -93,-11 -124,-44 -28,-29 -39,-65 -37,-104 1,-24 7,-53 26,-69 14,-12 31,-19 50,-18 9,0 18,2 26,6 7,3 14,7 20,13 -2,5 -3,11 -4,16 0,6 -1,12 -1,18 -2,50 29,70 75,71 19,0 37,-1 55,-4 18,-2 37,-4 55,-3 7,0 45,2 50,5 27,7 46,16 67,33 33,29 46,67 46,110 1,16 -1,32 -4,48 -2,6 -3,14 -6,22l71 -2 4 0 3 0 4 0 2 0 2 0 3 0 8 -1 0 0c294,-8 587,-33 878,-76l27 -4 2 -1 0 0c221,-33 441,-77 659,-131 93,-23 186,-47 279,-74l0 0c227,-66 450,-142 670,-229l8 -3 -8 3c229,-90 453,-193 672,-306 184,-95 364,-198 539,-308 194,-122 383,-254 558,-388 77,-59 161,-126 243,-194 25,-21 48,-6 66,16 6,6 11,14 15,21 5,8 9,16 12,24 -28,24 -57,48 -86,71 78,96 157,192 235,288 -5,8 -11,15 -17,22 -8,9 -16,17 -25,24 -15,12 -35,24 -55,26 -20,2 -37,-15 -48,-29 -65,-82 -130,-165 -195,-247 -20,16 -41,33 -54,43 -16,12 -38,29 -61,46 25,36 45,75 58,117 11,36 18,75 13,114 29,-1 57,6 83,17 34,13 60,37 81,66 24,31 41,66 47,104 5,36 1,72 -12,106 -13,38 -35,72 -61,102 -31,35 -66,65 -104,91 -38,27 -81,52 -125,67 -30,10 -64,19 -95,19 -17,0 -40,-2 -55,-10 -13,-6 -23,-16 -31,-27 -9,-15 -14,-31 -11,-48 3,-14 8,-28 18,-39 13,2 26,3 40,3 17,1 35,-1 53,-4 22,-3 43,-10 64,-18 25,-10 49,-23 71,-39 25,-17 49,-37 68,-60 14,-18 26,-39 31,-61 5,-19 5,-38 0,-57 -4,-18 -12,-35 -23,-50 -12,-16 -25,-29 -42,-39 -14,-8 -29,-13 -46,-13 -15,23 -33,44 -52,63 -21,22 -45,41 -70,58 -33,23 -84,54 -125,57 -31,2 -55,-10 -72,-35 -7,-11 -12,-23 -15,-36 -2,-10 -3,-21 0,-31 86,-54 172,-110 256,-168 4,-27 -3,-54 -13,-78 -12,-30 -27,-59 -45,-86 -120,87 -242,170 -367,250l-2 1 -2 2 -7 4 -8 6c-26,16 -52,33 -79,49 76,122 152,245 228,368 31,50 44,104 27,162 -19,66 -80,115 -137,148 -38,21 -78,37 -120,45 -39,7 -79,8 -118,-1 -38,-8 -73,-24 -104,-47 -34,-25 -60,-58 -80,-95 -27,-52 -39,-108 -20,-165 19,-58 65,-98 117,-127 56,-32 111,-64 166,-97 -24,-40 -48,-81 -72,-122 -147,87 -295,167 -446,244 24,50 42,102 55,156 12,50 19,102 18,154 34,23 65,51 92,83 24,29 47,61 64,95 11,22 27,59 18,84 -7,22 -26,36 -46,46 -11,6 -23,10 -35,13 -11,3 -22,4 -33,3 -4,-12 -9,-23 -14,-35 -6,-12 -12,-24 -18,-36 -7,-17 -16,-33 -24,-49 -11,-19 -22,-37 -35,-55 -12,37 -34,70 -59,98 -31,35 -70,61 -112,80 -33,14 -67,25 -103,28 -31,3 -61,2 -91,-7 -27,-8 -51,-22 -72,-41 -21,-21 -37,-46 -48,-73 -12,-28 -18,-57 -17,-87 1,-28 8,-54 20,-79 13,-27 32,-49 54,-69 24,-22 53,-39 83,-52 40,-18 83,-29 128,-28 41,0 80,7 119,22 -6,-32 -15,-64 -26,-94 -12,-33 -26,-65 -41,-96 -253,123 -488,221 -751,314zm709 146c33,-14 59,-36 80,-65 17,-26 31,-55 35,-86 -14,-9 -28,-15 -44,-20 -16,-5 -32,-8 -49,-9 -17,-1 -34,-1 -51,2 -16,2 -32,7 -47,14 -27,12 -56,30 -69,59 -12,23 -12,48 -2,72 10,24 28,40 54,47 31,8 65,-1 93,-14zm-7780 -690c-20,-4 -42,-12 -62,-20 -27,-11 -53,-26 -77,-44 -60,-43 -112,-99 -137,-169 -22,-60 -24,-121 -5,-182 35,-11 69,-27 100,-47 34,-21 63,-48 88,-80 10,-13 19,-26 27,-40 7,-11 14,-24 19,-37 -25,-20 -50,-39 -74,-59 -26,-21 -16,-46 2,-68 6,-7 12,-13 18,-19 7,-6 14,-12 21,-17 60,49 120,96 181,142 -6,29 -16,58 -27,85 -14,35 -34,68 -57,98 -25,33 -55,66 -90,89 -25,16 -52,32 -79,44 -3,27 6,56 17,80 15,35 42,64 73,86 23,17 49,33 77,40 19,6 40,10 60,11 72,-102 143,-204 215,-306 10,-15 25,-31 43,-36 17,-5 36,4 50,14 35,24 70,48 105,71l0 0c143,95 288,184 437,269 -4,-9 -8,-17 -12,-26 -14,-25 -30,-50 -48,-72 -19,-24 -39,-47 -62,-67 -21,-20 -43,-38 -68,-54 3,-14 8,-27 15,-39 11,-17 25,-30 44,-35 20,-5 39,1 56,12 23,14 43,32 60,53 18,22 34,46 48,72 13,25 25,52 33,79 7,25 12,51 14,76 2,1 3,2 4,3 9,-33 14,-67 13,-101 0,-31 -5,-62 -14,-92 -9,-29 -22,-56 -38,-81 -15,-25 -33,-47 -54,-67 1,-4 3,-8 5,-12 2,-4 4,-7 7,-11 9,-16 23,-30 42,-34 19,-3 36,1 52,11 25,15 45,37 60,62 20,31 31,66 38,101 8,43 7,86 2,129 -7,52 -26,102 -50,147 -4,7 -8,14 -12,21 47,25 94,50 141,74l5 3 6 3 0 0c188,96 381,184 576,264l1 0 7 3 1 0 4 2 1 0 0 0 1 1c29,11 58,23 87,34 12,-33 25,-65 38,-98 11,-28 19,-63 7,-92 -10,-25 -29,-42 -54,-52 -23,-10 -48,-12 -71,2 -22,12 -37,32 -47,55 -3,8 -6,16 -9,23 -2,7 -5,14 -7,22 -9,2 -20,2 -29,1 -13,-1 -24,-4 -36,-9 -18,-8 -32,-21 -38,-41 -7,-23 1,-50 11,-71 10,-23 24,-43 42,-60 18,-17 39,-30 62,-39 25,-9 51,-13 78,-12 31,1 61,9 90,20 55,23 101,58 126,114 26,58 17,123 -5,182 -12,34 -25,67 -37,101l53 20 2 0 4 2 1 0 5 2 6 2 0 0c222,80 447,148 675,206l2 0c69,18 139,35 209,50 4,19 7,38 10,58 3,25 4,51 4,77 -1,30 -2,60 -5,90 -3,32 -8,65 -14,96 -2,6 -3,11 -4,16 73,16 145,30 218,43 16,-85 31,-170 47,-256 3,-17 10,-38 23,-50 14,-12 35,-11 52,-8 50,9 100,17 150,25 32,4 36,32 32,60 -2,9 -4,17 -6,26 -3,8 -6,16 -10,24 -38,-6 -77,-12 -115,-18 -34,206 -69,413 -103,620 -9,1 -20,1 -29,0 -12,0 -25,-1 -37,-4 -19,-3 -41,-9 -55,-23 -15,-14 -15,-37 -12,-55 14,-76 28,-152 42,-227 -77,-14 -153,-29 -229,-46 -17,48 -43,107 -83,142 -28,24 -61,37 -98,29 -24,-6 -46,-17 -59,-39 -12,-18 -16,-38 -13,-60 35,-17 64,-47 87,-79 34,-45 54,-109 67,-164 3,-15 7,-31 10,-46 3,-17 5,-34 7,-51 2,-17 4,-35 4,-52 1,-15 1,-30 0,-46 -29,-6 -58,-13 -87,-21l0 0 -3 0 0 -1 -4 -1c-101,-25 -202,-52 -301,-82 -12,38 -23,77 -34,115 30,17 57,38 82,62 23,24 44,52 59,82 15,30 25,63 29,97 5,37 2,74 -8,110 -8,32 -20,63 -39,90 -17,22 -36,42 -59,58 -20,14 -42,23 -66,28 -21,3 -42,3 -63,-3 -21,-6 -41,-17 -50,-37 -8,-19 -8,-38 -3,-58 1,-3 2,-5 3,-8 12,-1 24,-3 36,-6 14,-3 27,-10 40,-17 14,-9 26,-22 37,-35 13,-17 21,-38 27,-58 6,-23 8,-47 4,-71 -4,-23 -11,-45 -23,-65 -12,-19 -26,-37 -43,-52 -13,-12 -41,-32 -57,-37 -16,-5 -50,-3 -67,-1 -23,3 -44,10 -65,20 -20,11 -38,25 -54,42 -16,17 -28,38 -35,60 -7,20 -11,42 -10,63 2,17 5,34 12,49 5,14 13,27 23,38 8,9 17,18 27,25 -1,3 -2,5 -3,8 -6,19 -16,35 -32,47 -18,13 -41,11 -61,4 -20,-7 -39,-18 -55,-33 -18,-16 -31,-37 -41,-59 -11,-26 -16,-53 -17,-81 -1,-34 6,-68 17,-100 13,-35 30,-68 55,-95 22,-26 48,-47 78,-64 29,-17 60,-28 93,-35 33,-7 67,-9 101,-7 12,-38 24,-76 36,-114 -91,-28 -181,-58 -270,-90l-1 -1c-28,-10 -56,-20 -83,-30 -73,197 -146,393 -218,590 -10,-1 -20,-3 -29,-5 -11,-3 -23,-6 -34,-11 -19,-7 -40,-17 -51,-34 -12,-16 -8,-38 -1,-56 69,-177 139,-354 208,-531l-57 -23 -2 0 -2 -1 -7 -3 -7 -3c-28,-11 -55,-22 -83,-34 -23,57 -47,113 -70,170 -7,16 -18,36 -35,44 -17,7 -40,-1 -56,-7 -36,-16 -71,-31 -106,-47 -47,-20 -96,-31 -147,-24 -46,7 -86,25 -118,59 -1,43 13,84 36,120 27,42 66,72 111,92 21,9 42,17 65,22 17,4 35,7 53,7 15,0 30,-1 44,-4 13,-3 26,-6 39,-9 11,10 19,22 23,37 4,14 4,28 -2,42 -5,12 -12,24 -23,33 -12,9 -29,14 -44,17 -28,6 -57,5 -86,0 -40,-7 -81,-22 -118,-38 -77,-35 -143,-86 -188,-157 -45,-71 -57,-150 -46,-232 27,-29 58,-54 93,-73 33,-18 68,-30 106,-37 37,-6 75,-7 113,-1 40,5 79,17 116,34 21,9 42,18 64,28 18,-43 37,-85 55,-127 -128,-57 -255,-116 -380,-180l0 0 -9 -4 -1 -1c-55,-28 -110,-56 -164,-86 -16,24 -34,46 -52,68 -19,22 -39,42 -62,60 15,16 26,35 37,55 11,21 19,44 23,68 5,27 5,54 1,81 -4,31 -15,62 -30,90 -16,32 -37,61 -65,82 -24,18 -50,32 -79,40 -26,7 -52,9 -78,6 -22,-3 -44,-8 -64,-19 -18,-10 -33,-25 -38,-46 -5,-18 -3,-36 7,-53 2,-3 4,-6 6,-10 2,-4 5,-7 8,-10 14,5 28,8 43,10 16,2 32,1 48,-3 17,-4 33,-12 47,-23 18,-12 31,-30 41,-49 15,-28 24,-59 19,-91 -4,-25 -12,-50 -27,-71 -32,16 -66,26 -101,32 -28,5 -60,6 -88,-1 -19,-23 -33,-50 -44,-78 -13,-32 -21,-67 -25,-102 -25,-2 -51,3 -74,13 -30,12 -51,34 -68,60 -11,18 -20,39 -23,60 -2,18 -1,36 4,53 5,16 12,30 21,44 9,11 18,23 29,32 0,5 -2,9 -4,12 -2,3 -4,7 -6,10 -9,16 -23,28 -42,33 -21,5 -41,-1 -59,-12 -19,-12 -35,-28 -49,-46 -16,-22 -26,-45 -33,-71 -7,-29 -8,-59 -4,-88 5,-36 20,-69 39,-99 17,-26 38,-50 63,-69 21,-16 44,-30 69,-39 22,-9 46,-14 70,-15 21,0 43,1 65,5 4,-29 11,-58 21,-85 9,-28 19,-54 30,-81 -38,-23 -75,-48 -113,-72l0 0c-33,-22 -66,-44 -98,-66 -118,174 -235,348 -352,521 -9,-3 -18,-7 -27,-12 -11,-5 -21,-11 -31,-18 -17,-11 -34,-26 -42,-45 -8,-19 2,-39 13,-55 19,-28 39,-56 58,-83zm677 186c21,-2 41,-9 59,-18 22,-10 42,-22 60,-37 20,-16 39,-33 57,-53 18,-20 34,-41 49,-64 -66,-37 -131,-75 -196,-114 -12,25 -22,50 -30,77 -8,25 -14,51 -17,78 -3,24 -3,48 0,72 3,21 9,41 18,59zm1386 243l1 1 -1 -1zm2205 763c0,-16 3,-39 16,-51 13,-11 34,-13 50,-12 72,2 144,3 216,3 0,-52 1,-105 1,-157 -138,-1 -276,-5 -413,-13 3,19 5,38 7,57 1,16 2,34 1,51 -3,45 -9,93 -25,137 -12,30 -26,63 -44,90 13,29 38,51 65,67 35,22 77,31 118,33 2,-69 5,-137 8,-205zm863 286c55,-4 81,-33 77,-89 -5,-62 -10,-124 -15,-187 -41,4 -82,7 -123,9 -26,2 -50,11 -67,32 -19,22 -23,52 -21,80 1,23 5,46 15,67 8,19 19,36 34,51 13,13 29,23 46,30 17,6 35,9 54,7zm1283 -735l-9 3 9 -3zm2147 -312c25,-14 52,-35 60,-64 8,-27 1,-52 -12,-75 -29,-49 -58,-97 -87,-145 -50,30 -102,59 -153,88 -25,14 -47,34 -52,63 -5,26 0,51 13,74 11,22 27,41 46,55 19,13 38,22 60,27 22,4 43,4 65,0 21,-4 41,-12 60,-23z"/>
   </g>
   <path class="fil22" d="M11142 15423c13,37 26,74 39,112 35,-4 69,-3 103,3 34,5 66,15 96,31 31,15 57,36 81,61 26,27 44,59 58,94 12,30 20,63 20,96 0,27 -3,55 -12,81 -9,23 -21,44 -38,61 -15,16 -32,28 -52,36 -21,7 -43,10 -62,-2 -18,-10 -30,-25 -37,-45 0,-2 -1,-5 -2,-8 9,-7 18,-16 25,-26 10,-11 17,-24 22,-37 7,-16 9,-33 10,-50 1,-21 -5,-43 -12,-63 -9,-23 -21,-43 -39,-60 -16,-16 -35,-29 -56,-38 -21,-10 -43,-15 -66,-18 -17,-2 -51,-1 -67,4 -16,5 -43,27 -55,38 -17,16 -30,35 -41,55 -10,20 -16,42 -19,65 -3,24 0,47 7,70 6,20 15,40 29,56 11,13 23,25 38,34 13,7 26,13 41,16 12,3 24,5 36,5 1,2 2,5 3,8 6,19 7,37 2,56 -7,22 -27,33 -47,40 -21,6 -42,8 -64,5 -24,-3 -47,-11 -68,-23 -24,-15 -44,-34 -61,-56 -21,-27 -35,-59 -45,-91 -11,-35 -16,-72 -12,-109 3,-34 12,-66 26,-97 13,-31 32,-59 55,-84 23,-25 49,-46 77,-65 -12,-37 -25,-75 -38,-113 -81,28 -162,53 -245,78l-11 3 -1 0 -4 2 -1 0c-29,9 -59,17 -89,26 34,119 68,238 101,358 -8,4 -16,8 -24,12 -11,5 -21,9 -32,12 -19,5 -41,9 -60,2 -19,-7 -28,-28 -33,-46 -27,-101 -53,-203 -80,-304l-62 16c-33,9 -65,17 -98,24 18,76 36,152 55,228 4,18 7,42 -3,58 -10,17 -32,24 -49,28 -107,25 -213,47 -321,67 8,34 20,69 40,98 17,23 37,43 62,56 24,13 49,20 76,22 28,2 55,0 82,-6 21,-4 41,-10 60,-19 15,-7 30,-16 43,-26 11,-9 21,-19 29,-30 7,-9 15,-19 21,-29 16,2 30,8 42,17 13,10 21,23 25,38 8,31 -6,57 -26,79 -18,21 -41,37 -65,50 -33,17 -69,28 -105,36 -44,9 -88,13 -132,10 -42,-3 -82,-13 -120,-33 -38,-20 -71,-49 -97,-83 -33,-42 -53,-93 -66,-143 -24,0 -45,-7 -64,-20 -21,-16 -32,-39 -36,-64 -5,-33 1,-64 22,-90 21,-26 49,-40 82,-46 14,-2 29,-3 43,0 11,1 23,5 33,11 6,21 12,41 17,62 89,-16 177,-34 265,-53 -14,-63 -27,-126 -41,-188 -151,33 -303,62 -455,86l-12 1 -2 1 -1 0 -4 0 -2 1 -2 0 -2 0 -1 0 -3 1 -87 13c30,207 59,415 88,622 -9,4 -19,7 -28,9 -11,3 -23,6 -35,7 -20,3 -43,3 -62,-5 -18,-9 -24,-31 -27,-50 -23,-188 -46,-377 -69,-566 -56,7 -113,13 -170,19 15,146 29,293 44,439 5,56 -4,110 -42,152 -42,47 -108,63 -168,68 -40,2 -81,-1 -119,-14 -35,-12 -68,-29 -95,-54 -28,-25 -49,-55 -64,-88 -16,-37 -24,-77 -25,-117 -2,-58 10,-117 50,-162 40,-44 94,-61 152,-65 48,-3 97,-6 145,-10 -3,-46 -7,-91 -11,-137 -123,10 -247,17 -370,21l-2 0 -3 0 -3 0 -11 0 -1 0 -4 0 -2 0c-30,1 -60,2 -90,2 4,210 7,419 10,629 -9,2 -19,4 -29,5 -12,2 -24,3 -36,3 -20,0 -43,-2 -60,-13 0,0 -2,-2 -2,-2 -15,-4 -20,-38 -20,-50 1,-102 1,-204 1,-305 -52,-1 -103,-1 -155,-2 -2,87 -4,175 -6,262 -16,7 -34,11 -51,14 -24,4 -49,5 -73,4 -79,-3 -156,-22 -222,-66 -61,-40 -103,-95 -124,-165 25,-30 45,-65 60,-102 17,-40 26,-83 29,-126 2,-17 2,-35 1,-52 0,-18 -2,-36 -5,-54 -33,-3 -66,-5 -99,-8 -33,-3 -38,-30 -36,-58 1,-9 3,-18 5,-26 1,-9 4,-18 8,-25 230,20 449,31 680,32 0,-7 1,-14 1,-20 0,-55 -28,-82 -83,-83 -16,0 -33,1 -50,1 -17,1 -34,2 -52,1 -44,-1 -93,-11 -124,-44 -28,-29 -39,-64 -37,-103 1,-24 7,-53 26,-69 14,-13 31,-19 50,-19 9,1 18,3 26,6 7,4 14,8 20,13 -2,5 -3,12 -4,17 0,6 -1,12 -1,18 -2,50 29,69 75,70 19,1 37,-1 55,-3 18,-2 37,-4 55,-4 7,0 45,3 50,6 27,6 46,15 67,33 33,28 46,67 46,109 1,16 -1,32 -4,48 -2,7 -3,15 -6,22l71 -2 4 0 3 0 4 0 2 0 2 0 3 0 8 0 0 0c294,-8 587,-34 878,-77l27 -4 2 0 0 0c221,-34 441,-77 659,-131 93,-23 186,-48 279,-75l0 0c227,-65 450,-142 670,-228l8 -4 -8 4c229,-91 453,-193 672,-306 184,-95 364,-198 539,-309 194,-122 383,-253 558,-387 77,-59 161,-126 243,-194 25,-22 48,-6 66,15 6,7 11,14 15,22 5,7 9,15 12,23 -28,24 -57,48 -86,72 78,96 157,192 235,288 -5,7 -11,14 -17,21 -8,9 -16,17 -25,24 -15,13 -35,25 -55,26 -20,2 -37,-14 -48,-29 -65,-82 -130,-164 -195,-246 -20,16 -41,32 -54,42 -16,12 -38,30 -61,47 25,36 45,74 58,116 11,37 18,76 13,114 29,0 57,7 83,18 34,13 60,37 81,65 24,31 41,66 47,105 5,36 1,72 -12,106 -13,37 -35,71 -61,101 -31,35 -66,65 -104,92 -38,26 -81,51 -125,66 -30,11 -64,20 -95,20 -17,0 -40,-2 -55,-10 -13,-7 -23,-16 -31,-28 -9,-14 -14,-30 -11,-47 3,-15 8,-28 18,-40 13,2 26,3 40,4 17,1 35,-1 53,-4 22,-4 43,-10 64,-18 25,-10 49,-24 71,-39 25,-17 49,-37 68,-61 14,-18 26,-38 31,-60 5,-19 5,-38 0,-57 -4,-19 -12,-35 -23,-51 -12,-15 -25,-29 -42,-38 -14,-8 -29,-14 -46,-13 -15,22 -33,43 -52,63 -21,21 -45,40 -70,58 -33,22 -84,53 -125,56 -31,3 -55,-9 -72,-35 -7,-11 -12,-23 -15,-35 -2,-10 -3,-22 0,-32 86,-54 172,-110 256,-167 4,-27 -3,-54 -13,-79 -12,-30 -27,-58 -45,-86 -120,87 -242,171 -367,251l-2 1 -2 2 -7 4 -8 5c-26,17 -52,33 -79,49 76,123 152,246 228,368 31,51 44,105 27,163 -19,66 -80,114 -137,148 -38,21 -78,37 -120,44 -39,8 -79,8 -118,0 -38,-8 -73,-24 -104,-47 -34,-25 -60,-58 -80,-96 -27,-52 -39,-108 -20,-164 19,-58 65,-99 117,-128 56,-31 111,-63 166,-96 -24,-41 -48,-82 -72,-123 -147,87 -295,167 -446,245 24,50 42,102 55,156 12,50 19,101 18,153 34,24 65,52 92,84 24,29 47,60 64,94 11,23 27,59 18,84 -7,22 -26,37 -46,47 -11,5 -23,10 -35,13 -11,2 -22,4 -33,3 -4,-12 -9,-24 -14,-35 -6,-12 -12,-24 -18,-37 -7,-16 -16,-32 -24,-49 -11,-19 -22,-37 -35,-54 -12,36 -34,69 -59,98 -31,35 -70,61 -112,79 -33,15 -67,25 -103,29 -31,3 -61,1 -91,-8 -27,-8 -51,-22 -72,-41 -21,-20 -37,-45 -48,-72 -12,-28 -18,-57 -17,-87 1,-28 8,-55 20,-80 13,-26 32,-49 54,-68 24,-22 53,-39 83,-53 40,-18 83,-28 128,-28 41,1 80,7 119,22 -6,-32 -15,-63 -26,-94 -12,-32 -26,-64 -41,-95 -253,122 -488,220 -751,314zm709 145c33,-14 59,-36 80,-65 17,-25 31,-54 35,-85 -14,-9 -28,-16 -44,-20 -16,-5 -32,-8 -49,-10 -17,-1 -34,0 -51,2 -16,3 -32,7 -47,14 -27,12 -56,31 -69,59 -12,24 -12,48 -2,72 10,25 28,40 54,47 31,9 65,-1 93,-14zm-7780 -690c-20,-4 -42,-12 -62,-19 -27,-11 -53,-27 -77,-44 -60,-44 -112,-100 -137,-170 -22,-60 -24,-121 -5,-182 35,-11 69,-27 100,-46 34,-22 63,-49 88,-80 10,-13 19,-26 27,-40 7,-12 14,-25 19,-38 -25,-19 -50,-39 -74,-59 -26,-20 -16,-46 2,-68 6,-7 12,-13 18,-19 7,-6 14,-11 21,-16 60,48 120,96 181,142 -6,29 -16,57 -27,85 -14,35 -34,67 -57,97 -25,34 -55,67 -90,90 -25,16 -52,32 -79,44 -3,26 6,55 17,80 15,35 42,63 73,85 23,17 49,33 77,41 19,5 40,10 60,10 72,-102 143,-204 215,-306 10,-15 25,-31 43,-35 17,-5 36,4 50,13 35,24 70,48 105,72l0 0c143,94 288,184 437,268 -4,-8 -8,-17 -12,-25 -14,-26 -30,-50 -48,-73 -19,-24 -39,-46 -62,-67 -21,-20 -43,-38 -68,-54 3,-13 8,-27 15,-39 11,-16 25,-30 44,-35 20,-5 39,2 56,12 23,14 43,33 60,53 18,23 34,47 48,72 13,25 25,52 33,80 7,24 12,50 14,76 2,1 3,1 4,2 9,-33 14,-66 13,-100 0,-32 -5,-63 -14,-93 -9,-28 -22,-56 -38,-81 -15,-24 -33,-47 -54,-66 1,-4 3,-9 5,-12 2,-4 4,-8 7,-12 9,-16 23,-29 42,-33 19,-4 36,1 52,10 25,15 45,38 60,63 20,30 31,65 38,101 8,42 7,86 2,129 -7,52 -26,101 -50,147 -4,7 -8,14 -12,20 47,25 94,50 141,74l5 3 6 3 0 0c188,96 381,185 576,264l1 0 7 3 1 1 4 2 1 0 0 0 1 0c29,12 58,23 87,35 12,-33 25,-66 38,-99 11,-28 19,-62 7,-91 -10,-26 -29,-42 -54,-52 -23,-10 -48,-12 -71,1 -22,13 -37,32 -47,56 -3,7 -6,15 -9,23 -2,7 -5,14 -7,21 -9,2 -20,2 -29,2 -13,-1 -24,-4 -36,-9 -18,-8 -32,-21 -38,-41 -7,-23 1,-50 11,-71 10,-23 24,-44 42,-61 18,-17 39,-30 62,-38 25,-10 51,-13 78,-13 31,1 61,9 90,21 55,22 101,57 126,113 26,59 17,124 -5,182 -12,34 -25,68 -37,102l53 19 2 1 4 1 1 1 5 1 6 3 0 0c222,79 447,148 675,205l2 1c69,18 139,34 209,50 4,18 7,38 10,57 3,26 4,51 4,77 -1,30 -2,60 -5,91 -3,32 -8,64 -14,96 -2,5 -3,10 -4,16 73,15 145,30 218,43 16,-85 31,-171 47,-256 3,-18 10,-38 23,-50 14,-12 35,-12 52,-9 50,9 100,17 150,25 32,5 36,33 32,60 -2,9 -4,18 -6,27 -3,8 -6,16 -10,23 -38,-5 -77,-11 -115,-18 -34,207 -69,414 -103,621 -9,0 -20,0 -29,0 -12,-1 -25,-2 -37,-4 -19,-3 -41,-10 -55,-24 -15,-14 -15,-36 -12,-55 14,-75 28,-151 42,-227 -77,-14 -153,-29 -229,-45 -17,48 -43,107 -83,141 -28,24 -61,38 -98,29 -24,-5 -46,-17 -59,-38 -12,-19 -16,-39 -13,-61 35,-17 64,-47 87,-78 34,-46 54,-109 67,-164 3,-16 7,-31 10,-47 3,-17 5,-34 7,-51 2,-17 4,-34 4,-51 1,-15 1,-31 0,-46 -29,-7 -58,-14 -87,-21l0 0 -3 -1 0 0 -4 -1c-101,-25 -202,-53 -301,-82 -12,38 -23,76 -34,114 30,17 57,39 82,63 23,24 44,51 59,81 15,31 25,63 29,97 5,37 2,74 -8,110 -8,32 -20,63 -39,90 -17,22 -36,43 -59,58 -20,14 -42,24 -66,28 -21,4 -42,4 -63,-2 -21,-6 -41,-17 -50,-38 -8,-18 -8,-38 -3,-57 1,-3 2,-6 3,-9 12,0 24,-2 36,-5 14,-4 27,-10 40,-18 14,-9 26,-21 37,-35 13,-16 21,-37 27,-58 6,-23 8,-47 4,-71 -4,-23 -11,-44 -23,-64 -12,-20 -26,-38 -43,-53 -13,-11 -41,-31 -57,-36 -16,-5 -50,-4 -67,-2 -23,4 -44,11 -65,21 -20,10 -38,24 -54,41 -16,18 -28,38 -35,61 -7,20 -11,41 -10,62 2,17 5,34 12,50 5,14 13,26 23,37 8,9 17,18 27,25 -1,3 -2,6 -3,9 -6,18 -16,34 -32,46 -18,14 -41,11 -61,5 -20,-7 -39,-19 -55,-33 -18,-17 -31,-37 -41,-59 -11,-26 -16,-54 -17,-82 -1,-34 6,-68 17,-99 13,-35 30,-68 55,-96 22,-25 48,-47 78,-64 29,-16 60,-28 93,-35 33,-6 67,-9 101,-7 12,-38 24,-75 36,-113 -91,-29 -181,-59 -270,-91l-1 0c-28,-10 -56,-20 -83,-30 -73,196 -146,393 -218,589 -10,-1 -20,-3 -29,-5 -11,-3 -23,-6 -34,-10 -19,-7 -40,-18 -51,-34 -12,-17 -8,-39 -1,-56 69,-178 139,-355 208,-532l-57 -22 -2 -1 -2 -1 -7 -3 -7 -2c-28,-12 -55,-23 -83,-34 -23,56 -47,113 -70,169 -7,16 -18,37 -35,44 -17,7 -40,0 -56,-7 -36,-15 -71,-30 -106,-46 -47,-21 -96,-32 -147,-24 -46,6 -86,25 -118,59 -1,43 13,83 36,120 27,42 66,71 111,91 21,9 42,17 65,22 17,4 35,7 53,7 15,0 30,-1 44,-4 13,-2 26,-5 39,-8 11,10 19,22 23,36 4,14 4,28 -2,42 -5,13 -12,25 -23,33 -12,10 -29,14 -44,17 -28,7 -57,5 -86,0 -40,-6 -81,-21 -118,-38 -77,-34 -143,-85 -188,-157 -45,-70 -57,-149 -46,-231 27,-29 58,-54 93,-73 33,-18 68,-31 106,-37 37,-7 75,-7 113,-2 40,6 79,17 116,34 21,10 42,19 64,28 18,-42 37,-85 55,-127 -128,-56 -255,-116 -380,-179l0 -1 -9 -4 -1 0c-55,-28 -110,-57 -164,-86 -16,23 -34,46 -52,67 -19,22 -39,42 -62,60 15,17 26,36 37,55 11,22 19,45 23,69 5,26 5,53 1,80 -4,32 -15,63 -30,91 -16,31 -37,60 -65,82 -24,18 -50,32 -79,39 -26,7 -52,10 -78,6 -22,-2 -44,-8 -64,-19 -18,-10 -33,-24 -38,-45 -5,-19 -3,-36 7,-53 2,-4 4,-7 6,-10 2,-4 5,-8 8,-10 14,4 28,7 43,9 16,2 32,1 48,-2 17,-5 33,-13 47,-23 18,-13 31,-31 41,-50 15,-28 24,-59 19,-91 -4,-25 -12,-50 -27,-70 -32,15 -66,26 -101,32 -28,4 -60,6 -88,-1 -19,-23 -33,-51 -44,-78 -13,-33 -21,-67 -25,-102 -25,-3 -51,3 -74,12 -30,12 -51,34 -68,61 -11,18 -20,38 -23,60 -2,18 -1,35 4,53 5,15 12,30 21,43 9,12 18,23 29,33 0,4 -2,8 -4,12 -2,3 -4,6 -6,9 -9,17 -23,28 -42,33 -21,6 -41,-1 -59,-12 -19,-11 -35,-28 -49,-46 -16,-21 -26,-45 -33,-71 -7,-28 -8,-58 -4,-88 5,-35 20,-68 39,-98 17,-26 38,-51 63,-70 21,-16 44,-29 69,-39 22,-8 46,-13 70,-14 21,-1 43,0 65,4 4,-29 11,-57 21,-85 9,-27 19,-54 30,-80 -38,-24 -75,-48 -113,-73l0 0c-33,-21 -66,-43 -98,-65 -118,174 -235,347 -352,521 -9,-3 -18,-8 -27,-12 -11,-5 -21,-12 -31,-18 -17,-12 -34,-27 -42,-46 -8,-19 2,-39 13,-55 19,-27 39,-55 58,-83zm677 187c21,-3 41,-9 59,-18 22,-10 42,-23 60,-37 20,-16 39,-34 57,-53 18,-20 34,-42 49,-64 -66,-37 -131,-75 -196,-114 -12,24 -22,50 -30,76 -8,26 -14,52 -17,79 -3,24 -3,48 0,72 3,20 9,40 18,59zm1386 243l1 0m2204 763c0,-17 3,-40 16,-51 13,-12 34,-13 50,-13 72,2 144,3 216,4 0,-53 1,-105 1,-158 -138,0 -276,-4 -413,-12 3,18 5,37 7,56 1,17 2,34 1,51 -3,46 -9,94 -25,137 -12,31 -26,63 -44,90 13,29 38,51 65,68 35,21 77,30 118,32 2,-68 5,-136 8,-204zm863 286c55,-4 81,-34 77,-89 -5,-63 -10,-125 -15,-187 -41,3 -82,6 -123,9 -26,2 -50,11 -67,31 -19,23 -23,53 -21,81 1,23 5,46 15,67 8,18 19,36 34,50 13,13 29,24 46,30 17,7 35,9 54,8zm1283 -735l-9 2m2156 -314c25,-15 52,-36 60,-65 8,-26 1,-52 -12,-75 -29,-48 -58,-97 -87,-145 -50,30 -102,60 -153,89 -25,14 -47,33 -52,62 -5,27 0,51 13,75 11,21 27,40 46,55 19,13 38,22 60,26 22,4 43,4 65,0 21,-4 41,-11 60,-22z"/>
   <path class="fil10" d="M11156 15464l25 71c35,-4 69,-3 103,3 34,5 66,15 96,31 31,15 57,36 81,61 26,27 44,59 58,94 12,30 20,63 20,96 0,8 0,17 -1,26 -2,-26 -9,-52 -19,-76 -14,-34 -32,-66 -58,-94 -24,-24 -50,-45 -81,-61 -30,-15 -62,-25 -96,-31 -34,-5 -68,-6 -103,-3 -13,-37 -26,-75 -39,-112l14 -5zm-5022 -156l0 0zm5217 667c-5,-7 -9,-15 -13,-24 0,-2 -1,-5 -2,-8 9,-7 18,-16 25,-26 10,-11 17,-24 22,-37 4,-9 7,-19 8,-29 1,9 2,17 2,26 -1,16 -3,33 -10,49 -5,14 -12,27 -22,38 -3,4 -6,8 -10,11zm-313 -120c2,10 4,19 7,28 6,20 15,40 29,56 11,13 23,25 38,34 13,7 26,13 41,16 12,3 24,5 36,5 1,2 2,5 3,8 6,18 7,36 2,54l-2 -8c-1,-2 -2,-5 -3,-8 -12,0 -24,-2 -36,-4 -15,-3 -28,-9 -41,-17 -15,-9 -27,-20 -38,-34 -14,-16 -23,-36 -29,-55 -7,-23 -10,-47 -7,-71l0 -4zm-141 17c-1,-16 -2,-32 0,-48 3,-34 12,-66 26,-97 13,-31 32,-59 55,-84 19,-21 41,-40 64,-56l13 38c-28,18 -54,40 -77,65 -23,25 -42,52 -55,83 -14,31 -23,64 -26,97l0 2zm-219 -255l89 315 -11 6 -90 -318 12 -3zm-289 75l44 184c3,16 6,36 1,51l-1 -4c-19,-76 -37,-152 -55,-228l11 -3zm-316 381c7,19 16,37 27,54 17,23 37,43 62,56 24,13 49,20 76,22 28,2 55,0 82,-6 21,-4 41,-10 60,-19 15,-7 30,-16 43,-26 11,-9 21,-19 29,-30 7,-9 15,-19 21,-29 16,2 30,8 42,17 13,10 21,23 25,38 4,14 3,28 -2,40 -4,-13 -12,-23 -23,-31 -12,-10 -26,-16 -42,-18 -6,10 -14,20 -21,30 -8,11 -18,21 -29,29 -13,11 -28,19 -43,26 -19,9 -39,16 -60,20 -27,6 -54,8 -82,6 -27,-2 -52,-10 -76,-22 -25,-14 -45,-34 -62,-57 -20,-28 -32,-64 -40,-98l13 -2zm-244 -89l0 -2c-5,-33 1,-64 22,-90 21,-26 49,-40 82,-46 14,-2 29,-3 43,0 11,1 23,5 33,11 6,21 12,41 17,62 86,-16 171,-33 255,-51l10 44c-88,19 -176,37 -265,54 -5,-21 -11,-42 -17,-63 -10,-6 -22,-9 -33,-11 -14,-2 -29,-2 -43,1 -33,6 -61,20 -82,46 -12,14 -18,29 -22,45zm-143 -158l81 577 -6 3 -82 -579 7 -1zm-305 37l39 393c1,17 2,34 0,51l0 -4c-15,-147 -29,-293 -44,-440l5 0zm-473 352l-1 -12c-2,-58 10,-117 50,-162 40,-44 94,-61 152,-65 47,-2 94,-6 142,-10l3 47c-48,3 -97,7 -145,10 -58,3 -112,21 -152,65 -32,36 -46,80 -49,127zm-150 -316l9 582 -1 0 -9 -582 1 0zm-138 529l0 -4 1 -259 0 0 -1 263zm-618 -230c-5,-10 -9,-21 -12,-32 25,-30 45,-65 60,-102 17,-40 26,-83 29,-126l1 -11 0 5c1,18 1,35 -1,52 -3,44 -12,86 -29,127 -13,31 -28,60 -48,87zm-60 -401c-2,-9 -3,-20 -2,-31 1,-9 3,-18 5,-26 1,-9 4,-18 8,-25 230,20 448,30 678,32 2,8 3,16 3,26 0,7 -1,13 -1,20 -231,-1 -450,-11 -680,-32 -4,8 -7,17 -8,25l-3 11zm347 -267c-1,-10 -1,-21 -1,-31 1,-24 7,-53 26,-69 14,-13 31,-19 50,-19 9,1 18,3 26,6 7,4 14,8 20,13 -2,5 -3,12 -4,17 0,6 -1,12 -1,18l0 7c-5,-3 -10,-6 -15,-8 -8,-4 -17,-6 -26,-6 -19,-1 -36,6 -50,18 -16,13 -22,34 -25,54zm118 -41c8,32 35,45 73,46 19,1 37,-1 55,-3 18,-2 37,-4 55,-4 7,0 45,3 50,6 27,6 46,15 67,33 33,28 46,67 46,109 1,9 0,18 -1,27 -4,-34 -17,-66 -45,-90 -21,-17 -40,-26 -67,-33 -5,-3 -43,-5 -50,-5 -18,-1 -37,1 -55,3 -18,3 -36,4 -55,4 -46,-1 -77,-21 -75,-71 0,-6 1,-12 1,-18l1 -4zm346 257l61 -2 4 0 3 0 4 0 2 0 2 0 3 0 8 0 0 0c294,-8 587,-34 878,-77l27 -4 2 0 0 0c221,-34 441,-77 659,-131 93,-23 186,-48 279,-75l0 0c227,-65 450,-142 670,-228l8 -4 -8 4c229,-91 453,-193 672,-306 184,-95 364,-198 539,-309 194,-122 383,-253 558,-387 77,-59 161,-126 243,-194 25,-22 48,-6 66,15 6,7 11,14 15,22 5,7 9,15 12,23l-17 15c-3,-5 -7,-9 -10,-13 -18,-22 -41,-37 -66,-16 -82,68 -166,135 -243,194 -175,134 -364,266 -558,388 -175,110 -355,213 -539,308 -219,113 -443,216 -672,306l8 -3 -8 3c-220,87 -443,163 -670,229l0 0c-93,27 -186,51 -279,74 -218,54 -438,98 -659,131l0 0 -2 1 -27 4c-291,43 -584,68 -878,76l0 0 -8 1 -3 0 -2 0 -2 0 -4 0 -3 0 -4 0 -71 2c3,-8 4,-16 6,-22 2,-9 3,-17 4,-25zm4644 -1554l212 261c-5,7 -11,14 -17,21l-2 2 -216 -265 23 -19zm-223 177c16,27 29,55 38,85 11,36 17,73 13,111 -2,-22 -7,-44 -13,-64 -13,-42 -33,-81 -58,-117l20 -15zm52 199c28,0 56,7 82,18 34,13 60,37 81,65 24,31 41,66 47,105 2,18 2,36 1,53l-1 -7c-6,-38 -23,-73 -47,-104 -21,-29 -47,-53 -81,-66 -26,-11 -54,-18 -83,-17 2,-16 2,-31 1,-47zm-280 520c-4,-10 -6,-21 -4,-32 3,-15 8,-28 18,-40 13,2 26,3 40,4 17,1 35,-1 53,-4 22,-4 43,-10 64,-18 25,-10 49,-24 71,-39 25,-17 49,-37 68,-61 14,-18 26,-38 31,-60l1 -7c4,18 3,36 -1,53 -5,22 -17,43 -31,61 -19,23 -43,43 -68,60 -22,16 -46,29 -71,39 -21,8 -42,15 -64,18 -18,3 -36,5 -53,4 -14,0 -27,-1 -40,-3 -7,8 -11,16 -14,25zm-100 -290c-2,-4 -3,-8 -4,-12 -2,-10 -3,-22 0,-32 86,-53 170,-109 254,-166 3,15 4,30 2,45 -83,57 -167,112 -252,165zm-250 -30l207 334c26,42 39,87 33,135 -4,-31 -15,-60 -33,-88 -76,-123 -152,-246 -228,-368l21 -13zm-353 461c-3,-26 -1,-52 8,-79 19,-58 65,-99 117,-128 49,-27 98,-55 146,-84l20 34c-55,33 -110,65 -166,97 -52,29 -98,69 -117,127 -4,11 -6,22 -8,33zm-210 -143c16,38 28,77 38,118 12,50 19,101 18,153 34,24 65,52 92,84 24,29 47,60 64,94 11,23 27,59 18,84l-1 4c-5,-15 -12,-30 -17,-41 -17,-34 -40,-66 -64,-95 -27,-32 -58,-60 -92,-83 1,-52 -6,-104 -18,-154 -13,-54 -31,-106 -55,-156l17 -8zm-476 448c-1,-10 -1,-19 -1,-29 1,-28 8,-55 20,-80 13,-26 32,-49 54,-68 24,-22 53,-39 83,-53 40,-18 83,-28 128,-28 36,1 72,6 107,18 5,17 9,34 12,51 -39,-15 -78,-22 -119,-22 -45,-1 -88,10 -128,28 -30,13 -59,30 -83,52 -22,20 -41,42 -54,69 -10,20 -16,40 -19,62zm294 34c33,-14 59,-36 80,-65 9,-14 18,-29 24,-45 4,2 7,4 11,6 -4,31 -18,60 -35,86 -21,29 -47,51 -80,65 -28,13 -62,22 -93,14 -26,-7 -44,-23 -54,-47 -8,-19 -10,-39 -4,-58 1,4 2,8 4,11 10,25 28,40 54,47 31,9 65,-1 93,-14zm-8073 -998c-3,-35 1,-71 12,-107 35,-11 69,-27 100,-46 34,-22 63,-49 88,-80 10,-13 19,-26 27,-40l3 -4 16 13c-5,13 -12,26 -19,37 -8,14 -17,27 -27,40 -25,32 -54,59 -88,80 -31,20 -65,36 -100,47 -6,20 -10,40 -12,60zm164 -377c-15,-19 -6,-41 10,-61 6,-7 12,-13 18,-19 7,-6 14,-11 21,-16 60,48 120,96 181,142 -3,13 -6,26 -10,39 -58,-44 -115,-89 -171,-135 -7,5 -14,11 -21,17 -6,6 -12,12 -18,19 -4,4 -7,9 -10,14zm-19 406c3,13 8,25 13,36 15,35 42,63 73,85 23,17 49,33 77,41 19,5 40,10 60,10 72,-102 143,-204 215,-306 10,-15 25,-31 43,-35 17,-5 36,4 50,13 35,24 70,48 105,72l0 0c130,86 263,169 399,247 9,13 18,28 26,42 4,9 8,17 12,26 -149,-85 -294,-174 -437,-269l0 0c-35,-23 -70,-47 -105,-71 -14,-10 -33,-19 -50,-14 -18,5 -33,21 -43,36 -72,102 -143,204 -215,306 -20,-1 -41,-5 -60,-11 -28,-7 -54,-23 -77,-40 -31,-22 -58,-51 -73,-86 -11,-24 -20,-53 -17,-80l4 -2zm897 -25l-14 -10c3,-13 8,-27 15,-39 11,-16 25,-30 44,-35 20,-5 39,2 56,12 23,14 43,33 60,53 18,23 34,47 48,72 13,25 25,52 33,80 7,24 12,50 14,76 2,1 3,1 4,2 7,-23 11,-47 13,-71 0,6 0,11 0,17 1,34 -4,68 -13,101 -1,-1 -2,-2 -4,-3 -2,-25 -7,-51 -14,-76 -8,-27 -20,-54 -33,-79 -14,-26 -30,-50 -48,-72 -17,-21 -37,-39 -60,-53 -17,-11 -36,-17 -56,-12 -19,5 -33,18 -44,35l-1 2zm183 -113c-5,-6 -10,-11 -16,-16 1,-4 3,-9 5,-12 2,-4 4,-8 7,-12 9,-16 23,-29 42,-33 19,-4 36,1 52,10 25,15 45,38 60,63 20,30 31,65 38,101 6,30 7,60 5,91 0,-15 -2,-30 -5,-45 -7,-35 -18,-70 -38,-101 -15,-25 -35,-47 -60,-62 -16,-10 -33,-14 -52,-11 -16,4 -28,14 -38,27zm148 408c40,21 80,43 121,63l5 3 6 3 0 0c188,96 381,185 576,264l1 0 7 3 1 1 4 2 1 0 0 0 1 0c29,12 58,23 87,35 12,-33 25,-66 38,-99 4,-11 8,-22 10,-34 7,26 0,56 -10,81 -13,33 -26,65 -38,98 -29,-11 -58,-23 -87,-34l-1 -1 0 0 -1 0 -4 -2 -1 0 -7 -3 -1 0c-195,-80 -388,-168 -576,-264l0 0 -6 -3 -5 -3c-47,-24 -94,-49 -141,-74 4,-7 8,-14 12,-21l8 -15zm565 188l-1 -3c-7,-23 1,-50 11,-71 10,-23 24,-44 42,-61 18,-17 39,-30 62,-38 25,-10 51,-13 78,-13 31,1 61,9 90,21 55,22 101,57 126,113 14,33 18,68 14,102 -2,-19 -6,-37 -14,-55 -25,-56 -71,-91 -126,-114 -29,-11 -59,-19 -90,-20 -27,-1 -53,3 -78,12 -23,9 -44,22 -62,39 -18,17 -32,37 -42,60 -4,9 -8,18 -10,28zm381 237l38 14 2 1 4 1 1 1 5 1 6 3 0 0c222,79 447,148 675,205l2 1c69,18 139,34 209,50 4,18 7,38 10,57 3,26 4,51 4,77l-1 20c0,-17 -1,-34 -3,-50 -3,-20 -6,-39 -10,-58 -70,-15 -140,-32 -209,-50l-2 0c-228,-58 -453,-126 -675,-206l0 0 -6 -2 -5 -2 -1 0 -4 -2 -2 0 -1 -1 1 1 -1 -1 1 1 -53 -20 15 -41zm942 616c70,14 139,28 209,41 16,-85 31,-171 47,-256 3,-18 10,-38 23,-50 14,-12 35,-12 52,-9 50,9 100,17 150,25 32,5 36,33 32,60 -1,3 -1,6 -2,10 -4,-12 -13,-21 -30,-23 -50,-8 -100,-16 -150,-25 -17,-3 -38,-4 -52,8 -13,12 -20,33 -23,50 -16,86 -31,171 -47,256 -73,-13 -145,-27 -218,-43 1,-5 2,-10 4,-16 2,-9 4,-19 5,-28zm148 421c-5,-12 -4,-27 -2,-40l34 -182 8 2 -40 220zm-437 -197c-6,-14 -7,-28 -5,-44 35,-17 64,-47 87,-78 34,-46 54,-109 67,-164 3,-16 7,-31 10,-47 3,-17 5,-34 7,-51 2,-17 4,-34 4,-51l0 0c1,16 1,31 0,46 0,17 -2,35 -4,52 -2,17 -4,34 -7,51 -3,15 -7,31 -10,46 -13,55 -33,119 -67,164 -22,30 -49,59 -82,76zm-247 -465c25,16 48,35 70,56 23,24 44,51 59,81 15,31 25,63 29,97 3,20 3,39 2,58l-2 -11c-4,-34 -14,-67 -29,-97 -15,-30 -36,-58 -59,-82 -25,-24 -52,-45 -82,-62l12 -40zm-130 471c-5,-16 -4,-32 0,-48 1,-3 2,-6 3,-9 12,0 24,-2 36,-5 14,-4 27,-10 40,-18 14,-9 26,-21 37,-35 13,-16 21,-37 27,-58 2,-7 4,-14 5,-21 3,23 1,46 -5,68 -6,20 -14,41 -27,58 -11,13 -23,26 -37,35 -13,7 -26,14 -40,17 -12,3 -24,5 -36,6 -1,3 -2,5 -3,8l0 2zm-205 -199c2,12 5,24 10,35 5,14 13,26 23,37 8,9 17,18 27,25 -1,3 -2,6 -3,9 -3,9 -7,18 -12,25 -4,-4 -8,-8 -12,-12 -10,-11 -18,-24 -23,-38 -7,-15 -10,-32 -12,-49 0,-11 0,-21 2,-32zm-148 -1c0,-5 0,-10 -1,-16 -1,-34 6,-68 17,-99 13,-35 30,-68 55,-96 22,-25 48,-47 78,-64 29,-16 60,-28 93,-35 33,-6 67,-9 101,-7l23 -71 13 4c-12,38 -24,76 -36,114 -34,-2 -68,0 -101,7 -33,7 -64,18 -93,35 -30,17 -56,38 -78,64 -25,27 -42,60 -55,95 -7,22 -13,45 -16,69zm-310 -15c-8,-16 -4,-36 2,-52l192 -492 16 7c-69,177 -139,354 -208,531l-2 6zm-476 -410c6,27 17,53 32,78 27,42 66,71 111,91 21,9 42,17 65,22 17,4 35,7 53,7 15,0 30,-1 44,-4 13,-2 26,-5 39,-8 11,10 19,22 23,36 4,14 4,28 -2,42 -4,-12 -11,-23 -21,-32 -13,3 -26,6 -39,9 -14,3 -29,4 -44,4 -18,0 -36,-3 -53,-7 -23,-5 -44,-13 -65,-22 -45,-20 -84,-50 -111,-92 -23,-36 -37,-77 -36,-120l4 -4zm-143 -35c-2,-25 -1,-51 3,-77 27,-29 58,-54 93,-73 33,-18 68,-31 106,-37 37,-7 75,-7 113,-2 40,6 79,17 116,34 21,10 42,19 64,28l38 -88 17 8c-18,42 -37,84 -55,127 -22,-10 -43,-19 -64,-28 -37,-17 -76,-29 -116,-34 -38,-6 -76,-5 -113,1 -38,7 -73,19 -106,37 -35,19 -66,44 -93,73 -2,11 -3,21 -3,31zm-97 -368c6,8 11,17 16,26 11,22 19,45 23,69 4,22 5,44 3,67 -1,-7 -2,-14 -3,-21 -4,-24 -12,-47 -23,-68 -11,-20 -22,-39 -37,-55 8,-6 15,-12 21,-18zm-313 335l-1 -6c-5,-19 -3,-36 7,-53 2,-4 4,-7 6,-10 2,-4 5,-8 8,-10 14,4 28,7 43,9 16,2 32,1 48,-2 17,-5 33,-13 47,-23 18,-13 31,-31 41,-50 9,-15 15,-32 18,-48l1 4c5,32 -4,63 -19,91 -10,19 -23,37 -41,49 -14,11 -30,19 -47,23 -16,4 -32,5 -48,3 -15,-2 -29,-5 -43,-10 -3,3 -6,6 -8,10 -2,4 -4,7 -6,10 -2,4 -4,8 -6,13zm-231 -282c1,4 2,8 3,13 5,15 12,30 21,43 9,12 18,23 29,33 0,4 -2,8 -4,12 -2,3 -4,6 -6,9 -1,4 -3,6 -6,9 -4,-5 -9,-11 -13,-16 -9,-14 -16,-28 -21,-44 -5,-17 -6,-35 -4,-53l1 -6zm-145 -16c-2,-19 -2,-38 1,-58 5,-35 20,-68 39,-98 17,-26 38,-51 63,-70 21,-16 44,-29 69,-39 22,-8 46,-13 70,-14 21,-1 43,0 65,4 4,-29 11,-57 21,-85 4,-15 10,-29 15,-43l15 9c-11,27 -21,53 -30,81 -10,27 -17,56 -21,85 -22,-4 -44,-5 -65,-5 -24,1 -48,6 -70,15 -25,9 -48,23 -69,39 -25,19 -46,43 -63,69 -19,30 -34,63 -39,99l-1 11zm-301 -126c-2,-2 -3,-4 -4,-7 -8,-19 2,-39 13,-55l30 -43c10,2 19,5 28,7 -19,27 -39,55 -58,83 -4,4 -7,10 -9,15zm744 42c21,-3 41,-9 59,-18 22,-10 42,-23 60,-37 20,-16 39,-34 57,-53 9,-10 17,-20 25,-31l24 13c-15,23 -31,44 -49,64 -18,20 -37,37 -57,53 -18,15 -38,27 -60,37 -18,9 -38,16 -59,18 -9,-18 -15,-38 -18,-59 -2,-19 -3,-40 -1,-60 0,5 1,9 1,14 3,20 9,40 18,59zm3591 1006c0,-17 3,-40 16,-51 13,-12 34,-13 50,-13 72,2 144,3 216,4l1 -111 0 0c0,52 -1,105 -1,157 -72,0 -144,-1 -216,-3 -16,-1 -37,1 -50,12 -13,12 -16,35 -16,51 -3,68 -6,136 -8,205 -41,-2 -83,-11 -118,-33 -27,-16 -52,-38 -65,-67 5,-8 10,-15 14,-23 14,18 32,32 51,44 35,21 77,30 118,32 2,-68 5,-136 8,-204zm-124 -183l1 9c1,17 2,34 1,51l0 7 -1 -11c-2,-19 -4,-38 -7,-57l6 1zm987 469c43,-3 69,-22 76,-58l1 15c4,56 -22,85 -77,89 -19,2 -37,-1 -54,-7 -17,-7 -33,-17 -46,-30 -15,-15 -26,-32 -34,-51 -10,-21 -14,-44 -15,-67 -1,-10 -1,-21 1,-32 2,18 6,36 14,53 8,18 19,36 34,50 13,13 29,24 46,30 17,7 35,9 54,8zm3430 -1047c25,-15 52,-36 60,-65 5,15 5,31 0,47 -8,29 -35,50 -60,64 -19,11 -39,19 -60,23 -22,4 -43,4 -65,0 -22,-5 -41,-14 -60,-27 -19,-14 -35,-33 -46,-55 -13,-23 -18,-48 -13,-74l0 -4c3,11 7,21 13,32 11,21 27,40 46,55 19,13 38,22 60,26 22,4 43,4 65,0 21,-4 41,-11 60,-22z"/>
  </g>
 </g>
</svg>
