<svg width="13" height="16" viewBox="0 0 13 16" fill="none" xmlns="http://www.w3.org/2000/svg">
<path d="M12.778 0.085C12.8462 0.130637 12.9022 0.192369 12.9409 0.264746C12.9796 0.337123 12.9999 0.417918 13 0.5V8C13 8.09985 12.9701 8.19741 12.9141 8.28011C12.8581 8.36281 12.7787 8.42685 12.686 8.464L12.5 8L12.686 8.464L12.683 8.465L12.677 8.468L12.654 8.477C12.5225 8.52925 12.3902 8.57926 12.257 8.627C11.993 8.722 11.626 8.85 11.21 8.977C10.394 9.229 9.331 9.5 8.5 9.5C7.653 9.5 6.952 9.22 6.342 8.975L6.314 8.965C5.68 8.71 5.14 8.5 4.5 8.5C3.8 8.5 2.862 8.73 2.063 8.977C1.70526 9.08849 1.35078 9.21021 1 9.342V15.5C1 15.6326 0.947321 15.7598 0.853553 15.8536C0.759785 15.9473 0.632608 16 0.5 16C0.367392 16 0.240215 15.9473 0.146447 15.8536C0.0526785 15.7598 0 15.6326 0 15.5V0.5C0 0.367392 0.0526785 0.240215 0.146447 0.146447C0.240215 0.0526784 0.367392 0 0.5 0C0.632608 0 0.759785 0.0526784 0.853553 0.146447C0.947321 0.240215 1 0.367392 1 0.5V0.782C1.226 0.703 1.496 0.612 1.79 0.522C2.606 0.272 3.67 0 4.5 0C5.34 0 6.024 0.277 6.621 0.519L6.664 0.537C7.286 0.788 7.828 1 8.5 1C9.2 1 10.138 0.77 10.937 0.523C11.3923 0.380812 11.8423 0.22204 12.286 0.047L12.305 0.04L12.309 0.038H12.31L12.778 0.085ZM12 1.221C11.78 1.299 11.52 1.388 11.234 1.476C10.424 1.728 9.362 1.999 8.5 1.999C7.614 1.999 6.908 1.713 6.297 1.465L6.289 1.462C5.662 1.21 5.139 1 4.5 1C3.831 1 2.894 1.229 2.085 1.478C1.72011 1.59058 1.35831 1.71296 1 1.845V8.278C1.22 8.2 1.48 8.111 1.766 8.023C2.576 7.77 3.638 7.5 4.5 7.5C5.347 7.5 6.048 7.78 6.658 8.025L6.686 8.035C7.32 8.29 7.86 8.5 8.5 8.5C9.168 8.5 10.106 8.271 10.915 8.022C11.2799 7.90941 11.6417 7.78703 12 7.655V1.222V1.221Z" fill="#666666"/>
</svg>
