<svg width="131" height="103" viewBox="0 0 131 103" fill="none" xmlns="http://www.w3.org/2000/svg">
<path fill-rule="evenodd" clip-rule="evenodd" d="M31.1217 30.1239C36.3447 30.1676 40.8216 33.2695 42.709 38.1188C44.5524 42.8808 43.4112 48.036 39.4171 51.4437C36.7398 53.7155 35.5986 56.5552 35.2475 59.9191C34.8524 63.3268 31.9556 65.9918 28.6638 66.0355C25.1964 66.0792 22.2557 63.6326 21.6851 60.1376C21.6412 59.8318 21.5095 59.4386 21.6412 59.1764C21.8167 58.8269 22.2118 58.3027 22.4751 58.3027C22.8701 58.3027 23.3529 58.6522 23.5724 59.0017C23.7919 59.3075 23.7041 59.7881 23.7919 60.1813C24.2747 62.453 26.3814 64.1132 28.6199 63.9821C31.0339 63.8948 32.9651 62.0599 33.2724 59.7007C33.3601 58.6959 33.5357 57.7347 33.7552 56.7299C34.2819 54.1523 35.6864 52.0553 37.7054 50.3515C39.7683 48.6913 40.9094 46.5506 41.3483 43.9293C42.2701 38.5994 38.2321 33.051 32.8334 32.3083C29.1905 31.8278 26.0742 32.7889 23.5285 35.5412C23.0896 36.0218 22.6507 36.415 22.0362 35.8034C21.4656 35.2791 21.5534 34.7112 22.0362 34.1432C23.9674 31.653 27.5226 30.0802 31.1217 30.1239Z" fill="#F58B71"/>
<path fill-rule="evenodd" clip-rule="evenodd" d="M31.1217 30.1239C36.3447 30.1676 40.8216 33.2695 42.709 38.1188C44.5524 42.8808 43.4112 48.036 39.4171 51.4437C36.7398 53.7155 35.5986 56.5552 35.2475 59.9191C34.8524 63.3268 31.9556 65.9918 28.6638 66.0355C25.1964 66.0792 22.2557 63.6326 21.6851 60.1376C21.6412 59.8318 21.5095 59.4386 21.6412 59.1764C21.8167 58.8269 22.2118 58.3027 22.4751 58.3027C22.8701 58.3027 23.3529 58.6522 23.5724 59.0017C23.7919 59.3075 23.7041 59.7881 23.7919 60.1813C24.2747 62.453 26.3814 64.1132 28.6199 63.9821C31.0339 63.8948 32.9651 62.0599 33.2724 59.7007C33.3601 58.6959 33.5357 57.7347 33.7552 56.7299C34.2819 54.1523 35.6864 52.0553 37.7054 50.3515C39.7683 48.6913 40.9094 46.5506 41.3483 43.9293C42.2701 38.5994 38.2321 33.051 32.8334 32.3083C29.1905 31.8278 26.0742 32.7889 23.5285 35.5412C23.0896 36.0218 22.6507 36.415 22.0362 35.8034C21.4656 35.2791 21.5534 34.7112 22.0362 34.1432C23.9674 31.653 27.5226 30.0802 31.1217 30.1239Z" stroke="#F58B71" stroke-width="0.0135276"/>
<path fill-rule="evenodd" clip-rule="evenodd" d="M31.0225 49.8014C31.0225 48.4034 31.2859 47.8791 32.032 47.9228C33.3049 48.0102 32.9976 49.015 33.0854 49.7577C33.3488 52.8596 31.3298 55.6993 28.5646 56.3109C27.0723 56.573 25.7994 56.2672 24.8338 55.175C23.8243 53.9518 23.561 52.5537 24.2194 51.1557C24.6144 50.282 25.2289 49.4956 25.8872 48.8403C26.9845 47.7044 27.0723 47.4422 26.1506 46.1316C25.975 45.8258 25.7556 45.52 25.5361 45.2578C23.6049 43.0298 24.1755 40.6269 25.5361 38.661C27.7746 35.3407 32.6026 34.729 35.675 37.3066C38.6596 39.8405 38.8791 44.6462 36.0261 47.4422C35.7628 47.7044 35.4117 48.0102 35.0605 48.0102C34.7533 48.0539 34.1827 47.7481 34.1388 47.4422C34.0071 47.0927 34.1388 46.5248 34.4022 46.2627C35.4117 45.1705 36.07 43.9472 36.07 42.4181C36.0261 40.1027 34.1827 38.0493 31.8126 37.7435C29.7058 37.4814 27.1601 39.0978 26.5456 41.0638C26.2384 42.0249 26.4139 42.855 26.9845 43.6414C27.4673 44.3841 27.994 45.0831 28.4329 45.8695C29.1352 47.1364 29.0035 48.3597 28.0379 49.4519C27.5551 49.9762 27.0723 50.4567 26.5895 51.0247C25.8433 51.8547 25.7556 53.0343 26.3261 53.7333C26.8967 54.4323 28.0379 54.5197 29.0913 53.9081C30.3203 53.2091 31.0664 51.68 31.0225 49.8014Z" fill="#F58B71"/>
<path fill-rule="evenodd" clip-rule="evenodd" d="M31.0225 49.8014C31.0225 48.4034 31.2859 47.8791 32.032 47.9228C33.3049 48.0102 32.9976 49.015 33.0854 49.7577C33.3488 52.8596 31.3298 55.6993 28.5646 56.3109C27.0723 56.573 25.7994 56.2672 24.8338 55.175C23.8243 53.9518 23.561 52.5537 24.2194 51.1557C24.6144 50.282 25.2289 49.4956 25.8872 48.8403C26.9845 47.7044 27.0723 47.4422 26.1506 46.1316C25.975 45.8258 25.7556 45.52 25.5361 45.2578C23.6049 43.0298 24.1755 40.6269 25.5361 38.661C27.7746 35.3407 32.6026 34.729 35.675 37.3066C38.6596 39.8405 38.8791 44.6462 36.0261 47.4422C35.7628 47.7044 35.4117 48.0102 35.0605 48.0102C34.7533 48.0539 34.1827 47.7481 34.1388 47.4422C34.0071 47.0927 34.1388 46.5248 34.4022 46.2627C35.4117 45.1705 36.07 43.9472 36.07 42.4181C36.0261 40.1027 34.1827 38.0493 31.8126 37.7435C29.7058 37.4814 27.1601 39.0978 26.5456 41.0638C26.2384 42.0249 26.4139 42.855 26.9845 43.6414C27.4673 44.3841 27.994 45.0831 28.4329 45.8695C29.1352 47.1364 29.0035 48.3597 28.0379 49.4519C27.5551 49.9762 27.0723 50.4567 26.5895 51.0247C25.8433 51.8547 25.7556 53.0343 26.3261 53.7333C26.8967 54.4323 28.0379 54.5197 29.0913 53.9081C30.3203 53.2091 31.0664 51.68 31.0225 49.8014Z" stroke="#F58B71" stroke-width="0.0135276"/>
<path fill-rule="evenodd" clip-rule="evenodd" d="M53.4578 53.4104C53.4578 59.1772 49.5514 64.114 43.8894 65.2935C42.9238 65.512 41.8704 65.512 40.8609 65.3809C40.5098 65.3372 40.027 64.7256 39.9392 64.3324C39.8514 63.7208 40.3342 63.4587 40.9926 63.4587C48.7175 63.2402 53.1944 56.8181 50.7804 49.3911C50.5609 48.6484 50.2098 47.9494 49.9026 47.2504C49.6392 46.5951 49.727 46.0708 50.3854 45.7213C51.0876 45.4155 51.5265 45.765 51.7899 46.4203C52.8433 48.6047 53.5017 50.9202 53.4578 53.4104Z" fill="#F58B71"/>
<path fill-rule="evenodd" clip-rule="evenodd" d="M53.4578 53.4104C53.4578 59.1772 49.5514 64.114 43.8894 65.2935C42.9238 65.512 41.8704 65.512 40.8609 65.3809C40.5098 65.3372 40.027 64.7256 39.9392 64.3324C39.8514 63.7208 40.3342 63.4587 40.9926 63.4587C48.7175 63.2402 53.1944 56.8181 50.7804 49.3911C50.5609 48.6484 50.2098 47.9494 49.9026 47.2504C49.6392 46.5951 49.727 46.0708 50.3854 45.7213C51.0876 45.4155 51.5265 45.765 51.7899 46.4203C52.8433 48.6047 53.5017 50.9202 53.4578 53.4104Z" stroke="#F58B71" stroke-width="0.0135276"/>
<path fill-rule="evenodd" clip-rule="evenodd" d="M49.3352 52.9237C49.2474 57.6857 45.2533 61.4429 40.6009 61.0497C39.8986 61.006 39.5036 60.6128 39.5036 60.0012C39.5036 59.3895 39.8986 59.04 40.557 59.04C41.2592 58.9963 42.0054 58.9527 42.7077 58.7342C46.175 57.8605 47.8429 54.5839 46.7895 50.8704C46.6578 50.4335 46.4823 50.0403 46.3067 49.6034C46.0873 48.9044 46.2189 48.3365 46.9651 48.0307C47.7112 47.7685 48.0624 48.2928 48.2379 48.817C48.6329 50.1714 48.9402 51.5694 49.3352 52.9237Z" fill="#F58B71"/>
<path fill-rule="evenodd" clip-rule="evenodd" d="M49.3352 52.9237C49.2474 57.6857 45.2533 61.4429 40.6009 61.0497C39.8986 61.006 39.5036 60.6128 39.5036 60.0012C39.5036 59.3895 39.8986 59.04 40.557 59.04C41.2592 58.9963 42.0054 58.9527 42.7077 58.7342C46.175 57.8605 47.8429 54.5839 46.7895 50.8704C46.6578 50.4335 46.4823 50.0403 46.3067 49.6034C46.0873 48.9044 46.2189 48.3365 46.9651 48.0307C47.7112 47.7685 48.0624 48.2928 48.2379 48.817C48.6329 50.1714 48.9402 51.5694 49.3352 52.9237Z" stroke="#F58B71" stroke-width="0.0135276"/>
<path fill-rule="evenodd" clip-rule="evenodd" d="M44.6389 53.0448C44.5072 55.1856 42.7955 56.8457 40.7765 56.8457C40.0303 56.8457 39.5475 56.4962 39.5036 55.7535C39.5036 55.0545 39.9864 54.8361 40.6448 54.7924C42.3566 54.6176 42.9271 53.6565 42.1371 52.1274C41.8299 51.4721 41.8299 50.9915 42.5321 50.642C43.1905 50.2488 43.7172 50.5983 43.9805 51.21C44.2878 51.7779 44.4195 52.4332 44.6389 53.0448Z" fill="#F58B71"/>
<path fill-rule="evenodd" clip-rule="evenodd" d="M44.6389 53.0448C44.5072 55.1856 42.7955 56.8457 40.7765 56.8457C40.0303 56.8457 39.5475 56.4962 39.5036 55.7535C39.5036 55.0545 39.9864 54.8361 40.6448 54.7924C42.3566 54.6176 42.9271 53.6565 42.1371 52.1274C41.8299 51.4721 41.8299 50.9915 42.5321 50.642C43.1905 50.2488 43.7172 50.5983 43.9805 51.21C44.2878 51.7779 44.4195 52.4332 44.6389 53.0448Z" stroke="#F58B71" stroke-width="0.0135276"/>
<path fill-rule="evenodd" clip-rule="evenodd" d="M39.2189 90.8191C45.011 93.0212 51.3466 94.235 57.9846 94.235C66.1923 94.235 73.961 92.3564 80.8081 89.0798C72.4248 95.3709 62.0226 99.128 50.7426 99.128C44.3125 99.128 38.1675 97.9164 32.5256 95.7105L39.2189 90.8191ZM25.1945 82.7322C14.7863 74.2247 8.21192 61.74 8.21192 47.8383C8.21192 22.2372 30.5087 1.4417 57.9846 1.4417C60.0036 1.4417 62.0226 1.57277 63.9977 1.79121C59.7842 0.611632 55.3072 0 50.7426 0C23.2227 0 0.925964 22.1935 0.925964 49.5859C0.925964 67.0349 10.0024 82.3855 23.7208 91.2123L25.1945 82.7322Z" fill="#F47D5C"/>
<path d="M29.2454 79.6172L22.3106 102.073L40.6571 85.1219L29.2454 79.6172Z" fill="#377044"/>
<path fill-rule="evenodd" clip-rule="evenodd" d="M16.5836 48.6537C16.5836 69.755 33.7451 86.837 54.9446 86.837C68.5776 86.837 80.5702 79.7433 87.3752 69.0516H92.2683C85.0204 82.1564 71.0097 91.031 54.9446 91.031C31.4189 91.031 12.3701 72.0705 12.3701 48.6537C12.3701 25.2369 31.4189 6.27637 54.9446 6.27637C71.0061 6.27637 85.0142 15.1471 92.2635 28.2471H87.3697C80.5637 17.5602 68.5739 10.4704 54.9446 10.4704C33.7451 10.4704 16.5836 27.5524 16.5836 48.6537Z" fill="#377044"/>
<path d="M58.8317 40.6254C58.8317 39.4895 59.0073 38.4847 59.4023 37.5672C59.7534 36.6061 60.2801 35.8197 60.9385 35.1644C61.5969 34.5091 62.4308 33.9848 63.3525 33.6353C64.3182 33.2421 65.3277 33.0674 66.5127 33.0674C67.3028 33.0674 68.0928 33.1548 68.7512 33.3732C69.4096 33.548 70.024 33.8101 70.463 34.1596C70.9458 34.5091 71.3408 34.946 71.6041 35.4265C71.8236 35.9071 71.9553 36.475 71.9553 37.043C71.9553 37.5236 71.8675 38.0041 71.6919 38.3973C71.5163 38.7905 71.2969 39.14 70.9458 39.4458C70.6385 39.708 70.2435 39.9264 69.7607 40.1011C69.3218 40.2759 68.7951 40.3196 68.2684 40.3196C67.7417 40.3196 67.2589 40.2759 66.8639 40.1011C66.4249 39.9701 66.0299 39.7516 65.7227 39.4895C65.4154 39.2274 65.196 38.8779 65.0204 38.5284C64.8449 38.1352 64.7571 37.742 64.7571 37.3051C64.7571 36.8682 64.8449 36.4314 65.0643 36.0382C65.2399 35.645 65.5471 35.3392 65.8544 35.2081C65.3277 35.2081 64.7571 35.3828 64.2743 35.645C63.7915 35.8634 63.3525 36.2129 62.9575 36.6935C62.5625 37.1741 62.2991 37.6983 62.0797 38.3536C61.8602 39.0526 61.7286 39.7953 61.7286 40.6254C61.7286 41.4992 61.8602 42.2419 62.0797 42.9409C62.2991 43.5962 62.6064 44.1641 63.0014 44.6447C63.3964 45.1253 63.8353 45.4748 64.3182 45.7369C64.801 45.9553 65.2838 46.1301 65.7666 46.1301C65.4593 45.9116 65.196 45.6495 64.9765 45.2563C64.7571 44.9068 64.6693 44.4699 64.6693 44.0331C64.6693 43.5962 64.7571 43.203 64.9326 42.8098C65.0643 42.4603 65.3277 42.1545 65.6349 41.8924C65.9421 41.6302 66.3372 41.4118 66.7322 41.237C67.1711 41.106 67.6539 41.0186 68.1806 41.0186C68.7073 41.0186 69.234 41.106 69.7168 41.2807C70.1996 41.4555 70.5946 41.6739 70.9019 41.936C71.2091 42.2419 71.4725 42.5914 71.648 42.9846C71.8236 43.4214 71.9553 43.8583 71.9553 44.3389C71.9553 44.9505 71.8236 45.4748 71.5602 45.9553C71.2969 46.4359 70.9019 46.8728 70.463 47.1786C69.9801 47.5281 69.4096 47.7902 68.7073 47.965C68.0489 48.1834 67.3028 48.2708 66.5127 48.2708C65.3277 48.2708 64.3182 48.0524 63.3525 47.7029C62.4308 47.3534 61.5969 46.8291 60.9385 46.1301C60.2801 45.4748 59.7534 44.6884 59.4023 43.7272C59.0073 42.8098 58.8317 41.7613 58.8317 40.6254ZM68.2684 43.1593C67.8734 43.1593 67.5661 43.2904 67.3467 43.5088C67.1272 43.7709 66.9955 44.0768 66.9955 44.4699C66.9955 44.8631 67.1272 45.169 67.3467 45.3874C67.5661 45.6495 67.8734 45.7806 68.2684 45.7806C68.6195 45.7806 68.9268 45.6495 69.1901 45.3874C69.4096 45.169 69.4973 44.8631 69.4973 44.4699C69.4973 44.0768 69.4096 43.7709 69.1901 43.5088C68.9268 43.2904 68.6195 43.1593 68.2684 43.1593ZM68.3123 35.5576C67.9173 35.5576 67.61 35.6887 67.3906 35.9508C67.1711 36.2129 67.0394 36.5187 67.0394 36.9119C67.0394 37.2614 67.1711 37.5672 67.3906 37.8294C67.61 38.0478 67.9173 38.1789 68.3123 38.1789C68.6634 38.1789 68.9706 38.0478 69.1901 37.8294C69.4096 37.5672 69.5412 37.2614 69.5412 36.9119C69.5412 36.5187 69.4096 36.2129 69.1901 35.9508C68.9706 35.6887 68.6634 35.5576 68.3123 35.5576Z" fill="#377044"/>
<path d="M85.5304 37.0771C85.6182 37.2519 85.706 37.383 85.706 37.5577C85.7498 37.7325 85.7498 37.9072 85.7498 38.082C85.7498 38.4315 85.6621 38.7373 85.4865 38.912C85.267 39.1305 84.9598 39.2179 84.477 39.2179H82.5019V41.2712C83.9942 41.3586 85.1354 41.7081 85.9254 42.3197C86.6716 42.9313 87.0666 43.7614 87.0666 44.8099C87.0666 45.8584 86.7155 46.6885 86.0571 47.3001C85.3987 47.8681 84.5209 48.1739 83.3358 48.1739C82.853 48.1739 82.4141 48.0865 81.9313 47.9554C81.4485 47.7807 81.0096 47.5623 80.6584 47.3001C80.3073 47.5623 79.8684 47.7807 79.3856 47.9554C78.8589 48.0865 78.2883 48.1739 77.586 48.1739C76.9277 48.1739 76.3132 48.0865 75.7865 47.9118C75.2159 47.7807 74.7331 47.5186 74.382 47.2564C73.987 46.9506 73.6797 46.6011 73.5041 46.1642C73.2847 45.7274 73.153 45.2905 73.153 44.7662C73.153 44.0672 73.3286 43.4993 73.6797 42.975C74.0308 42.4945 74.5136 42.1013 75.1281 41.8391V38.781C75.1281 38.213 75.2598 37.8198 75.5232 37.514C75.8304 37.2082 76.2254 37.0771 76.7082 37.0771H85.5304ZM75.8304 44.7225C75.8304 45.1594 76.006 45.4652 76.3132 45.6837C76.6643 45.9021 77.1032 46.0332 77.6738 46.0332C78.3761 46.0332 78.9467 45.8584 79.3417 45.4652C79.7367 45.072 79.9562 44.5041 79.9562 43.8051V43.3245H78.0689C77.3666 43.3245 76.8399 43.4119 76.4449 43.6303C76.0498 43.8488 75.8304 44.1983 75.8304 44.7225ZM82.063 45.8584C82.1946 45.9021 82.3702 45.9895 82.5458 46.0332C82.7213 46.0769 82.8969 46.1206 83.1603 46.1206C83.5114 46.1206 83.8186 45.9895 84.082 45.7711C84.3014 45.5089 84.4331 45.2031 84.4331 44.7662C84.4331 44.2857 84.3014 43.9362 83.9503 43.674C83.6431 43.4119 83.1603 43.2808 82.5019 43.2808H82.4141C82.4141 43.7177 82.4141 44.1546 82.3702 44.5915C82.2824 44.9847 82.1946 45.4215 82.063 45.8584ZM77.7177 41.2712C77.8494 41.2712 77.9811 41.2712 78.1566 41.2712C78.3322 41.2712 78.5078 41.2712 78.6833 41.2712H79.9562V39.2179H77.7177V41.2712Z" fill="#377044"/>
<path d="M94.6367 36.8403C95.1634 36.8403 95.69 36.884 96.129 37.015C96.5679 37.1461 97.0068 37.2772 97.3579 37.4519C97.709 37.6703 97.9724 37.8451 98.2357 38.0635C98.4991 38.282 98.6747 38.5004 98.8063 38.6752C98.8502 38.2383 98.9819 37.8451 99.2891 37.5393C99.5964 37.1898 100.035 37.0587 100.606 37.0587H109.033C109.165 37.4519 109.252 37.8014 109.252 38.1509C109.252 38.5441 109.165 38.8062 108.945 39.0247C108.77 39.1994 108.419 39.2868 107.936 39.2868H106.97V47.8933C106.751 47.937 106.531 47.9807 106.312 48.0244C106.092 48.0244 105.873 48.0681 105.653 48.0681C104.644 48.0681 104.117 47.5875 104.117 46.6264V39.2868H101.308V47.8933C100.869 47.9807 100.43 48.0681 99.9914 48.0681C98.9819 48.0681 98.4991 47.5875 98.4991 46.6264V41.9081C98.2796 41.1217 97.8407 40.4227 97.1823 39.8984C96.524 39.4179 95.69 39.1557 94.6805 39.1557C93.6272 39.1557 92.7932 39.4179 92.1787 39.9421C91.5643 40.5101 91.2131 41.2528 91.1254 42.1702C91.3448 41.8644 91.6521 41.646 92.0032 41.4712C92.3543 41.3401 92.7493 41.2528 93.2321 41.2528C93.7588 41.2528 94.1977 41.3401 94.6367 41.4712C95.0756 41.646 95.4267 41.8644 95.7339 42.1702C96.0412 42.476 96.2606 42.8255 96.4362 43.2187C96.5679 43.6556 96.6557 44.0925 96.6557 44.6167C96.6557 45.141 96.5679 45.6216 96.3923 46.0584C96.1728 46.4953 95.9095 46.8448 95.6023 47.1506C95.2511 47.4565 94.8561 47.7186 94.3733 47.8933C93.8905 48.0681 93.4077 48.1555 92.8371 48.1555C92.1787 48.1555 91.5643 48.0244 91.0376 47.7623C90.5109 47.5438 90.072 47.1943 89.6769 46.7138C89.2819 46.2769 89.0186 45.7089 88.7991 45.0536C88.6236 44.3983 88.4919 43.6993 88.4919 42.8692C88.4919 41.9518 88.6674 41.1217 88.9747 40.379C89.238 39.6363 89.6769 38.981 90.2036 38.4567C90.7303 37.9325 91.3887 37.5393 92.1349 37.2772C92.9249 36.9713 93.7149 36.8403 94.6367 36.8403ZM92.7054 43.2624C92.3104 43.2624 92.0032 43.3935 91.7837 43.6556C91.5204 43.874 91.3887 44.2235 91.3887 44.6167C91.3887 45.0099 91.5204 45.3594 91.7837 45.5779C92.0032 45.84 92.3104 45.9711 92.7054 45.9711C93.1005 45.9711 93.4516 45.84 93.671 45.5779C93.9344 45.3594 94.0661 45.0099 94.0661 44.6167C94.0661 44.2235 93.9344 43.874 93.7149 43.6556C93.4516 43.3935 93.1444 43.2624 92.7054 43.2624ZM98.8502 32.6025C99.333 32.6025 99.728 32.7336 100.035 33.0394C100.343 33.3452 100.474 33.7384 100.474 34.219C100.474 34.6996 100.343 35.0928 100.035 35.3549C99.728 35.6607 99.333 35.8355 98.8502 35.8355C98.3674 35.8355 97.9724 35.6607 97.709 35.3549C97.4018 35.0928 97.2262 34.6996 97.2262 34.219C97.2262 33.7384 97.4018 33.3452 97.709 33.0394C97.9724 32.7336 98.3674 32.6025 98.8502 32.6025Z" fill="#377044"/>
<path d="M77.6142 53.7168C78.5798 53.7168 79.4576 53.8479 80.2038 54.1537C80.9938 54.4158 81.6522 54.809 82.1789 55.2896C82.7056 55.8138 83.1006 56.3818 83.4078 57.0808C83.6712 57.7361 83.8029 58.4788 83.8029 59.2652C83.8029 59.8331 83.759 60.2263 83.5834 60.4884C83.4517 60.7506 83.2323 60.8379 82.8811 60.8379C82.7495 60.8379 82.6178 60.8379 82.4861 60.7943C82.3544 60.7506 82.2228 60.7069 82.1789 60.6632C82.1789 60.4447 82.2228 60.2263 82.2228 60.0516C82.2667 59.8768 82.2667 59.7021 82.2667 59.4836C82.2667 58.7846 82.1789 58.173 81.9594 57.605C81.74 57.0808 81.3888 56.6002 80.9938 56.207C80.5988 55.8138 80.116 55.5517 79.5454 55.3333C78.9748 55.1148 78.3164 55.0274 77.6142 55.0274C76.9558 55.0274 76.3413 55.1148 75.8146 55.3333C75.244 55.5517 74.8051 55.8138 74.4101 56.207C74.0151 56.6002 73.7079 57.0371 73.4884 57.605C73.225 58.1293 73.1373 58.7409 73.1373 59.3962C73.1373 59.6147 73.1812 59.9205 73.225 60.27C73.2689 60.6195 73.3567 60.9253 73.4884 61.2311C73.6201 61.1438 73.7517 61.1001 73.8395 61.0564C73.9712 60.969 74.1029 60.9253 74.1907 60.9253C74.1907 60.7506 74.1468 60.6195 74.1468 60.4447C74.1468 60.27 74.1468 60.0952 74.1468 59.9642C74.1468 59.4399 74.1907 58.9157 74.3662 58.4788C74.5418 58.0419 74.7612 57.6924 75.0685 57.3866C75.3318 57.0808 75.683 56.8186 76.1219 56.6876C76.5608 56.5128 76.9997 56.4255 77.5264 56.4255C78.0531 56.4255 78.5359 56.5128 78.9748 56.6876C79.4137 56.8623 79.7649 57.1245 80.0721 57.4303C80.3793 57.7361 80.6427 58.173 80.8182 58.6099C80.9938 59.0904 81.0816 59.6147 81.0816 60.1826C81.0816 60.3137 81.0377 60.4447 81.0377 60.5321C81.0377 60.6632 81.0377 60.7506 81.0377 60.8816C81.7839 61.1001 82.3544 61.4496 82.7934 61.9738C83.2323 62.4981 83.4517 63.066 83.4517 63.765C83.4517 64.2019 83.4078 64.5951 83.2323 64.9446C83.1006 65.2504 82.8811 65.5562 82.6178 65.7747C82.3544 66.0368 82.0033 66.2116 81.6083 66.3426C81.2572 66.4737 80.8182 66.5174 80.3354 66.5174C79.8965 66.5174 79.4576 66.4737 79.0626 66.3426C78.6676 66.1679 78.3603 66.0368 78.097 65.8621C77.702 66.0805 77.2192 66.2553 76.7802 66.3426C76.2974 66.4737 75.8146 66.5174 75.3318 66.5174C74.1907 66.5174 73.2689 66.2553 72.6545 65.7747C72.04 65.2941 71.7327 64.5951 71.7327 63.7213C71.7327 63.3718 71.7766 63.066 71.9083 62.7602C71.9961 62.4544 72.1717 62.236 72.3472 62.0175C72.1717 61.7117 71.9961 61.3622 71.8644 60.9253C71.6888 60.4447 71.645 59.9205 71.645 59.2652C71.645 58.3477 71.7766 57.5613 72.1278 56.8623C72.435 56.207 72.8739 55.5954 73.4006 55.1585C73.9273 54.6779 74.5857 54.3284 75.3318 54.11C76.0341 53.8479 76.8241 53.7168 77.6142 53.7168ZM73.225 63.6777C73.225 64.1582 73.4006 64.5514 73.7956 64.8135C74.1468 65.1194 74.6735 65.2504 75.3318 65.2504C75.8585 65.2504 76.3413 65.1631 76.8241 65.032C77.263 64.8572 77.6581 64.6388 78.0531 64.3767C78.4042 64.0709 78.7115 63.7213 78.9748 63.2845C79.1943 62.8913 79.4137 62.367 79.5015 61.8428C79.3259 61.7991 79.0626 61.7554 78.7992 61.7554C78.6676 62.2796 78.4481 62.6728 78.0531 62.9787C77.702 63.2408 77.2192 63.4155 76.6047 63.4155C76.1219 63.4155 75.683 63.2845 75.3318 63.066C74.9807 62.8039 74.7174 62.4544 74.5418 62.0612C74.1029 62.1923 73.7956 62.4107 73.5762 62.6728C73.3567 62.9787 73.225 63.2845 73.225 63.6777ZM79.6332 60.1826C79.6332 59.4399 79.4576 58.8283 79.1065 58.3914C78.7554 57.9545 78.2287 57.7361 77.5264 57.7361C76.868 57.7361 76.3413 57.9108 75.9463 58.3477C75.5952 58.7846 75.3757 59.3525 75.3757 60.1389C75.5513 59.8768 75.7269 59.7021 75.9902 59.5273C76.2535 59.3962 76.5608 59.3089 76.868 59.3089C77.3069 59.3089 77.6581 59.4399 78.0092 59.6584C78.3164 59.8768 78.5359 60.1826 78.6676 60.5321C78.8431 60.5321 78.9748 60.5758 79.1504 60.5758C79.3259 60.5758 79.4576 60.6195 79.6332 60.6195C79.6332 60.5758 79.6332 60.4884 79.6332 60.4447C79.6332 60.3574 79.6332 60.27 79.6332 60.1826ZM79.282 64.9883C79.5893 65.1631 79.9404 65.2504 80.2916 65.2504C80.8182 65.2504 81.2133 65.1194 81.5205 64.8572C81.7839 64.5514 81.9594 64.2019 81.9594 63.7213C81.9594 63.3282 81.8277 63.0223 81.6522 62.7602C81.4327 62.4981 81.1694 62.2796 80.8182 62.1486C80.6866 62.7165 80.511 63.1971 80.2477 63.7213C79.9843 64.2019 79.6771 64.6388 79.282 64.9883ZM75.9902 61.3185C75.9902 61.5369 76.0341 61.7117 76.1658 61.7991C76.2974 61.9301 76.473 62.0175 76.6486 62.0175C76.868 62.0175 76.9997 61.9301 77.1314 61.7991C77.263 61.7117 77.3508 61.5369 77.3508 61.3185C77.3508 61.1001 77.263 60.969 77.1314 60.8379C76.9997 60.7069 76.8241 60.6632 76.6486 60.6632C76.473 60.6632 76.2974 60.7069 76.1658 60.8379C76.0341 60.969 75.9902 61.1001 75.9902 61.3185Z" fill="#373435"/>
<path d="M92.3485 58.3337C92.6996 58.3337 93.0507 58.3774 93.358 58.5084C93.6652 58.6395 93.9286 58.8143 94.148 59.0764C94.3675 59.2948 94.543 59.6006 94.6308 59.9501C94.7625 60.256 94.8503 60.6491 94.8503 61.0423C94.8503 61.785 94.6747 62.484 94.4114 63.052C94.148 63.6636 93.7091 64.1442 93.1824 64.5374C92.6996 64.9306 92.0412 65.2801 91.2951 65.4548C90.5489 65.6733 89.6711 65.8043 88.7494 65.8043H85.3698C85.3259 65.717 85.282 65.5859 85.2381 65.4548C85.1942 65.3238 85.1503 65.1927 85.1503 65.1053C85.1503 64.8432 85.2381 64.6684 85.3698 64.5811C85.5015 64.45 85.677 64.3626 85.9404 64.3626C86.3793 64.3626 86.8182 64.3626 87.2571 64.3626C87.696 64.4063 88.1349 64.4063 88.6177 64.4063C90.0661 64.4063 91.1634 64.1005 91.9974 63.5326C92.7874 62.9646 93.1824 62.1782 93.1824 61.1297C93.1824 60.6928 93.0946 60.3433 92.8752 60.0812C92.6996 59.7754 92.3924 59.6443 91.9535 59.6443C91.734 59.6443 91.5146 59.688 91.339 59.8191C91.1195 59.9501 90.944 60.0812 90.8562 60.2996V62.8772C90.7245 62.9209 90.5928 62.9209 90.4612 62.9646C90.3295 62.9646 90.1978 63.0083 90.0223 63.0083C89.4517 63.0083 89.1883 62.7025 89.1883 62.1345V56.8046H87.0377V62.8772C86.906 62.9209 86.8182 62.9209 86.6865 62.9646C86.5548 62.9646 86.4232 63.0083 86.2476 63.0083C85.677 63.0083 85.4137 62.7025 85.4137 62.1345V56.4988C85.4137 56.1493 85.5015 55.8435 85.677 55.7124C85.8526 55.5377 86.072 55.4503 86.3354 55.4503H93.358C93.4897 55.6687 93.5335 55.8872 93.5335 56.1056C93.5335 56.3677 93.4458 56.4988 93.3141 56.6299C93.2263 56.7609 93.0069 56.8046 92.6996 56.8046H90.8123V58.8579C90.944 58.7269 91.1634 58.5958 91.4268 58.4647C91.6901 58.3774 91.9974 58.3337 92.3485 58.3337ZM90.0223 52.4795C90.3295 52.4795 90.5928 52.5669 90.7684 52.7416C90.9879 52.9601 91.0756 53.2222 91.0756 53.528C91.0756 53.8338 90.9879 54.0523 90.7684 54.2707C90.5928 54.4455 90.3295 54.5328 90.0223 54.5328C89.715 54.5328 89.4517 54.4455 89.2761 54.2707C89.1005 54.0523 89.0128 53.8338 89.0128 53.528C89.0128 53.2222 89.1005 52.9601 89.2761 52.7416C89.4517 52.5669 89.715 52.4795 90.0223 52.4795Z" fill="#373435"/>
<path d="M104.338 55.471C104.382 55.602 104.426 55.6894 104.426 55.7768C104.47 55.8642 104.47 55.9515 104.47 56.0826C104.47 56.3011 104.426 56.4758 104.294 56.5632C104.163 56.6942 103.943 56.7379 103.68 56.7379H102.056V58.4418C102.582 58.4855 103.021 58.5728 103.416 58.7476C103.855 58.8786 104.206 59.0971 104.47 59.4029C104.777 59.665 104.996 60.0145 105.172 60.364C105.304 60.7572 105.391 61.1941 105.391 61.6747C105.391 62.33 105.26 62.8979 104.996 63.4222C104.733 63.9465 104.382 64.3833 103.899 64.7328C103.373 65.0823 102.802 65.3445 102.056 65.5192C101.354 65.7377 100.52 65.825 99.5979 65.825H96.0427C95.9988 65.7377 95.9549 65.6066 95.911 65.4755C95.8671 65.3445 95.8671 65.2134 95.8671 65.126C95.8671 64.8639 95.911 64.6891 96.0427 64.6018C96.1744 64.4707 96.3938 64.3833 96.6133 64.3833C97.0961 64.3833 97.5789 64.3833 98.0617 64.3833C98.5006 64.427 99.0273 64.427 99.554 64.427C100.871 64.427 101.88 64.1649 102.626 63.6843C103.373 63.1601 103.724 62.4611 103.724 61.5873C103.724 61.0194 103.548 60.5825 103.285 60.2767C102.977 59.9272 102.582 59.7524 102.056 59.7087V60.233C102.056 61.1067 101.792 61.8057 101.178 62.33C100.607 62.8106 99.8173 63.0727 98.7639 63.0727C98.325 63.0727 97.93 63.029 97.5789 62.8979C97.2278 62.8106 96.9205 62.6358 96.6572 62.4611C96.3938 62.2426 96.2183 61.9805 96.0866 61.7184C95.911 61.4125 95.8671 61.1067 95.8671 60.7572C95.8671 60.2767 95.9988 59.8835 96.2183 59.534C96.4816 59.1408 96.8327 58.8786 97.2716 58.7039V56.5195C97.2716 56.17 97.3594 55.9079 97.535 55.7331C97.6667 55.5584 97.93 55.471 98.2372 55.471H100.388C100.256 55.1652 100.212 54.8157 100.212 54.3788C100.212 53.9419 100.3 53.5924 100.476 53.1992C100.651 52.8497 100.871 52.5876 101.222 52.3254C101.529 52.0633 101.924 51.8886 102.407 51.7575C102.846 51.6264 103.373 51.5391 103.899 51.5391C104.601 51.5391 105.216 51.6264 105.743 51.8449C106.313 52.0633 106.796 52.3254 107.191 52.675C107.586 53.0681 107.893 53.505 108.069 54.0293C108.288 54.5098 108.42 55.1215 108.42 55.7331V62.8979C108.157 62.9853 107.893 63.029 107.63 63.029C107.015 63.029 106.752 62.7232 106.752 62.1552V55.8205C106.752 54.903 106.489 54.204 106.006 53.6798C105.523 53.1555 104.821 52.9371 103.899 52.9371C103.285 52.9371 102.758 53.0681 102.363 53.374C101.968 53.6798 101.792 54.1167 101.792 54.6409C101.792 54.9467 101.836 55.2525 101.968 55.471H104.338ZM97.4472 60.7572C97.4472 61.063 97.535 61.3252 97.7983 61.4999C98.0617 61.7184 98.4128 61.8057 98.8078 61.8057C99.3784 61.8057 99.7734 61.631 100.081 61.3689C100.432 61.063 100.563 60.6699 100.563 60.1019V59.6213H99.2029C98.9395 59.6213 98.6762 59.6213 98.4567 59.665C98.2811 59.7087 98.0617 59.7524 97.93 59.8398C97.7544 59.9272 97.6228 60.0582 97.535 60.1893C97.4911 60.364 97.4472 60.5388 97.4472 60.7572ZM98.7639 58.3981C98.8956 58.3981 99.0273 58.3981 99.159 58.3981C99.2906 58.3981 99.4223 58.3981 99.554 58.3981H100.563V56.7379H98.7639V58.3981Z" fill="#373435"/>
<path d="M114.916 55.4248C115.487 55.4248 115.794 55.6869 115.794 56.2549V61.5848H119.306V55.5122C119.437 55.5122 119.569 55.4685 119.701 55.4685C119.832 55.4248 119.964 55.4248 120.096 55.4248C120.71 55.4248 120.973 55.6869 120.973 56.2549V62.1091C120.973 62.677 120.666 62.9391 120.096 62.9391H115.487C115.224 62.9391 114.96 62.8955 114.829 62.7644C114.653 62.6333 114.565 62.5023 114.477 62.2838C114.302 62.5023 114.082 62.677 113.775 62.8518C113.512 62.9828 113.117 63.0702 112.722 63.0702C111.976 63.0702 111.405 62.8955 111.01 62.5023C110.615 62.1091 110.396 61.5411 110.396 60.8421V55.5122C110.527 55.5122 110.659 55.4685 110.791 55.4685C110.922 55.4248 111.098 55.4248 111.23 55.4248C111.756 55.4248 112.063 55.6869 112.063 56.2549V60.6674C112.063 61.0169 112.151 61.279 112.327 61.4537C112.502 61.6285 112.766 61.7159 113.073 61.7159C113.292 61.7159 113.512 61.6722 113.687 61.5411C113.907 61.3664 114.039 61.1916 114.082 60.9732V55.5122C114.214 55.5122 114.346 55.4685 114.521 55.4685C114.653 55.4248 114.785 55.4248 114.916 55.4248Z" fill="#373435"/>
<path d="M130.019 55.4639C130.151 55.6823 130.195 55.9007 130.195 56.1192C130.195 56.3813 130.107 56.5124 129.975 56.6434C129.888 56.7745 129.668 56.8182 129.361 56.8182H128.615V62.8908C128.351 62.9782 128.088 63.0219 127.825 63.0219C127.254 63.0219 126.947 62.7161 126.947 62.1481V56.8182H124.708V62.8908C124.445 62.9782 124.182 63.0219 123.918 63.0219C123.348 63.0219 123.04 62.7161 123.04 62.1481V56.5124C123.04 56.1629 123.128 55.8571 123.304 55.726C123.479 55.5512 123.699 55.4639 124.006 55.4639H130.019Z" fill="#373435"/>
</svg>
