<svg width="24" height="25" viewBox="0 0 24 25" fill="none" xmlns="http://www.w3.org/2000/svg">
<path d="M12.2 6.1C11.3513 6.1 10.5374 6.43714 9.93726 7.03726C9.33714 7.63737 9 8.45131 9 9.3C9 10.1487 9.33714 10.9626 9.93726 11.5627C10.5374 12.1629 11.3513 12.5 12.2 12.5C13.0487 12.5 13.8626 12.1629 14.4627 11.5627C15.0629 10.9626 15.4 10.1487 15.4 9.3C15.4 8.45131 15.0629 7.63737 14.4627 7.03726C13.8626 6.43714 13.0487 6.1 12.2 6.1ZM7.4 9.3C7.4 8.02696 7.90571 6.80606 8.80589 5.90589C9.70606 5.00571 10.927 4.5 12.2 4.5C13.473 4.5 14.6939 5.00571 15.5941 5.90589C16.4943 6.80606 17 8.02696 17 9.3C17 10.573 16.4943 11.7939 15.5941 12.6941C14.6939 13.5943 13.473 14.1 12.2 14.1C10.927 14.1 9.70606 13.5943 8.80589 12.6941C7.90571 11.7939 7.4 10.573 7.4 9.3ZM9 17.3C8.36348 17.3 7.75303 17.5529 7.30294 18.0029C6.85286 18.453 6.6 19.0635 6.6 19.7C6.6 19.9122 6.51571 20.1157 6.36569 20.2657C6.21566 20.4157 6.01217 20.5 5.8 20.5C5.58783 20.5 5.38434 20.4157 5.23431 20.2657C5.08429 20.1157 5 19.9122 5 19.7C5 18.6391 5.42143 17.6217 6.17157 16.8716C6.92172 16.1214 7.93913 15.7 9 15.7H15.4C16.4609 15.7 17.4783 16.1214 18.2284 16.8716C18.9786 17.6217 19.4 18.6391 19.4 19.7C19.4 19.9122 19.3157 20.1157 19.1657 20.2657C19.0157 20.4157 18.8122 20.5 18.6 20.5C18.3878 20.5 18.1843 20.4157 18.0343 20.2657C17.8843 20.1157 17.8 19.9122 17.8 19.7C17.8 19.0635 17.5471 18.453 17.0971 18.0029C16.647 17.5529 16.0365 17.3 15.4 17.3H9Z" fill="#142745"/>
</svg>
