<svg width="102" height="103" viewBox="0 0 102 103" fill="none" xmlns="http://www.w3.org/2000/svg">
<path fill-rule="evenodd" clip-rule="evenodd" d="M39.1294 90.8191C44.9214 93.0212 51.2571 94.235 57.8951 94.235C66.1028 94.235 73.8715 92.3564 80.7186 89.0798C72.3353 95.3708 61.9331 99.128 50.653 99.128C44.223 99.128 38.078 97.9164 32.436 95.7105L39.1294 90.8191ZM25.1049 82.7322C14.6968 74.2247 8.12238 61.74 8.12238 47.8383C8.12238 22.2372 30.4192 1.4417 57.8951 1.4417C59.9141 1.4417 61.9331 1.57277 63.9082 1.79121C59.6946 0.611632 55.2177 0 50.653 0C23.1332 0 0.836426 22.1935 0.836426 49.5858C0.836426 67.0349 9.91285 82.3855 23.6313 91.2123L25.1049 82.7322Z" fill="#F47D5C"/>
<path d="M29.1604 79.6162L22.2256 102.072L40.5721 85.1209L29.1604 79.6162Z" fill="#377044"/>
<path fill-rule="evenodd" clip-rule="evenodd" d="M16.4987 48.6527C16.4987 69.754 33.6602 86.836 54.8597 86.836C68.9069 86.836 81.2125 79.3047 87.8961 68.0663H92.6765C85.6087 81.709 71.3239 91.0301 54.8597 91.0301C31.334 91.0301 12.2852 72.0695 12.2852 48.6527C12.2852 25.236 31.334 6.27539 54.8597 6.27539C70.5156 6.27539 84.2009 14.7037 91.584 27.2617H86.6363C79.7331 17.1261 68.0661 10.4694 54.8597 10.4694C33.6602 10.4694 16.4987 27.5514 16.4987 48.6527Z" fill="#377044"/>
<path fill-rule="evenodd" clip-rule="evenodd" d="M36.1272 60.0253C33.757 60.0253 31.4747 60.069 29.1484 59.9816C27.5245 59.9379 26.3833 58.7146 26.3833 57.0545C26.3833 49.977 26.3833 42.8996 26.3833 35.8658C26.3833 34.2057 27.6561 32.9824 29.2801 32.9824C34.986 32.9824 40.6918 32.9824 46.3977 32.9824C47.9339 32.9824 49.2067 34.0746 49.2506 35.56C49.2945 39.3172 49.2506 43.0743 49.2506 46.8752C48.3728 46.3946 47.495 46.0014 46.6172 45.5209C46.4855 45.4335 46.4416 45.0403 46.4416 44.7782C46.4416 42.0695 46.4416 39.3609 46.4416 36.6522V35.8221H29.324V57.1419C30.9041 57.1419 32.4842 57.1419 34.0643 57.1419C34.5032 57.1419 34.7665 57.2293 34.9421 57.7098C35.2932 58.4525 35.6882 59.1515 36.1272 60.0253Z" fill="#F58B71"/>
<path fill-rule="evenodd" clip-rule="evenodd" d="M36.1272 60.0253C33.757 60.0253 31.4747 60.069 29.1484 59.9816C27.5245 59.9379 26.3833 58.7146 26.3833 57.0545C26.3833 49.977 26.3833 42.8996 26.3833 35.8658C26.3833 34.2057 27.6561 32.9824 29.2801 32.9824C34.986 32.9824 40.6918 32.9824 46.3977 32.9824C47.9339 32.9824 49.2067 34.0746 49.2506 35.56C49.2945 39.3172 49.2506 43.0743 49.2506 46.8752C48.3728 46.3946 47.495 46.0014 46.6172 45.5209C46.4855 45.4335 46.4416 45.0403 46.4416 44.7782C46.4416 42.0695 46.4416 39.3609 46.4416 36.6522V35.8221H29.324V57.1419C30.9041 57.1419 32.4842 57.1419 34.0643 57.1419C34.5032 57.1419 34.7665 57.2293 34.9421 57.7098C35.2932 58.4525 35.6882 59.1515 36.1272 60.0253Z" stroke="#F58B71" stroke-width="0.0116378"/>
<path fill-rule="evenodd" clip-rule="evenodd" d="M47.9116 54.342C47.8677 51.9829 45.9365 50.0169 43.5664 50.0169C41.284 50.0169 39.265 51.9829 39.265 54.2546C39.265 56.6575 41.2401 58.6234 43.6103 58.6234C45.9365 58.5798 47.9116 56.6138 47.9116 54.342ZM49.5356 58.2739C50.8962 59.5846 52.2568 60.8515 53.5297 62.0748C52.8274 62.7738 52.1691 63.4291 51.4668 64.1281C50.589 63.2981 49.5795 62.3806 48.6578 61.3758C47.9555 60.5894 47.4288 60.371 46.2876 60.8515C43.6542 61.9874 41.0646 61.5505 38.87 59.6283C36.6754 57.6623 35.9293 55.1721 36.7193 52.3761C37.5094 49.58 39.4845 47.7888 42.3813 47.3083C45.1903 46.8277 47.5605 47.7888 49.2722 50.0606C50.984 52.3761 51.1596 54.8663 50.0184 57.4439C49.8867 57.706 49.755 57.9244 49.5356 58.2739Z" fill="#F58B71"/>
<path fill-rule="evenodd" clip-rule="evenodd" d="M47.9116 54.342C47.8677 51.9829 45.9365 50.0169 43.5664 50.0169C41.284 50.0169 39.265 51.9829 39.265 54.2546C39.265 56.6575 41.2401 58.6234 43.6103 58.6234C45.9365 58.5798 47.9116 56.6138 47.9116 54.342ZM49.5356 58.2739C50.8962 59.5846 52.2568 60.8515 53.5297 62.0748C52.8274 62.7738 52.1691 63.4291 51.4668 64.1281C50.589 63.2981 49.5795 62.3806 48.6578 61.3758C47.9555 60.5894 47.4288 60.371 46.2876 60.8515C43.6542 61.9874 41.0646 61.5505 38.87 59.6283C36.6754 57.6623 35.9293 55.1721 36.7193 52.3761C37.5094 49.58 39.4845 47.7888 42.3813 47.3083C45.1903 46.8277 47.5605 47.7888 49.2722 50.0606C50.984 52.3761 51.1596 54.8663 50.0184 57.4439C49.8867 57.706 49.755 57.9244 49.5356 58.2739Z" stroke="#F58B71" stroke-width="0.0116378"/>
<path d="M67.6463 37.4686V40.2209C67.6463 40.8762 67.2952 41.1821 66.5929 41.1821H64.2228C63.4766 41.1821 62.8622 41.3568 62.4232 41.7063C61.9843 42.0558 61.721 42.5801 61.721 43.2791C61.721 43.9781 61.9404 44.5023 62.3794 44.8955C62.8183 45.245 63.3889 45.4635 64.0033 45.4635C64.8812 45.4635 65.2762 45.114 65.2762 44.5023C65.2762 44.3713 65.2762 44.1965 65.2323 44.0218C65.1884 43.847 65.1445 43.6723 65.1006 43.5412C65.2762 43.3665 65.4956 43.1917 65.759 43.1043C66.0223 43.017 66.3296 42.9733 66.6368 42.9733C67.1635 42.9733 67.6024 43.148 67.9974 43.4538C68.3486 43.8033 68.568 44.2839 68.568 44.8955C68.568 45.2887 68.4802 45.6382 68.3047 45.9877C68.1291 46.2935 67.9097 46.5557 67.6463 46.7741C67.9535 47.3421 68.2608 47.8226 68.568 48.2158C68.8753 48.609 69.1825 48.9148 69.4458 49.2206C69.402 49.6575 69.1825 50.007 68.8753 50.2255C68.5241 50.4876 68.1291 50.6187 67.6902 50.6187C67.2074 50.6187 66.8124 50.4439 66.5051 50.1381C66.1979 49.8323 65.9784 49.3954 65.8468 48.8711L65.5395 47.6042L65.2762 47.6479C65.1006 47.6916 64.925 47.7353 64.7495 47.7353C64.5739 47.7789 64.3106 47.8226 64.0472 47.8226C63.3011 47.8226 62.5988 47.6916 61.9404 47.5168C61.326 47.3421 60.7554 47.0362 60.2726 46.6431C59.7898 46.2935 59.4386 45.813 59.1314 45.245C58.8681 44.6771 58.7364 44.0218 58.7364 43.2354C58.7364 42.6238 58.8242 42.0558 59.0436 41.5316C59.2631 41.0073 59.5703 40.5267 60.0092 40.1335C60.4043 39.7404 60.9309 39.4345 61.5454 39.2161C62.1599 38.9977 62.9061 38.8666 63.74 38.8666H64.7495V37.4686H58.0341C57.7269 37.4686 57.5074 37.3375 57.3758 37.1628C57.2441 36.988 57.2002 36.7259 57.2002 36.3327C57.2002 36.2016 57.2002 35.9832 57.2441 35.8084C57.288 35.59 57.3319 35.4152 57.3758 35.2842H69.3142C69.8848 35.2842 70.1481 35.6774 70.1481 36.3764C70.1481 36.5074 70.1481 36.7259 70.1042 36.9443C70.0603 37.1628 70.0164 37.3375 69.9286 37.4686H67.6463Z" fill="#377044"/>
<path d="M64.941 35.6357C64.7215 35.1988 64.4143 34.7619 64.0193 34.3687C63.6681 33.9756 63.2731 33.626 62.8342 33.3202C62.3953 33.0144 61.9564 32.7523 61.5175 32.5338C61.0347 32.3154 60.6396 32.1407 60.2446 32.0533C60.2446 31.9659 60.2446 31.9222 60.2446 31.8348C60.2446 31.7912 60.2446 31.7038 60.2446 31.6601C60.2446 31.1795 60.3763 30.7426 60.6396 30.3931C60.903 29.9999 61.298 29.8252 61.8686 29.8252C62.4392 29.8252 62.9659 29.9999 63.5365 30.3495C64.0631 30.699 64.5898 31.1358 65.0726 31.6601C65.5993 32.228 66.0382 32.8397 66.4333 33.5387C66.8283 34.2377 67.1794 34.9367 67.3989 35.6357H64.941Z" fill="#377044"/>
<path d="M79.7502 41.9248C79.7502 42.2743 79.9257 42.5801 80.1891 42.7985C80.4963 43.017 80.8475 43.148 81.2864 43.148C81.5936 43.148 81.857 43.1043 82.1203 43.017C82.3837 42.9296 82.6031 42.8422 82.7787 42.6674V37.4686H75.5805C75.8439 37.7307 76.0633 38.0802 76.195 38.4734C76.3267 38.8666 76.4144 39.3035 76.4144 39.6967C76.4144 40.6578 76.1511 41.4005 75.6683 42.0121C75.1855 42.6238 74.5271 43.017 73.6932 43.2791C74.1321 44.0655 74.7905 44.6771 75.6244 45.114C76.4583 45.5945 77.4239 45.8567 78.4773 45.9004C78.5651 46.1188 78.5651 46.3809 78.5651 46.6431C78.5651 47.1236 78.4334 47.5168 78.1262 47.8226C77.819 48.1284 77.3801 48.2595 76.8095 48.2595C76.1511 48.2595 75.4927 48.1284 74.9221 47.91C74.3515 47.6479 73.8249 47.3421 73.342 46.9052C72.8592 46.512 72.4642 46.0314 72.0692 45.4635C71.7181 44.8955 71.4108 44.2839 71.1914 43.6286C70.7963 43.6286 70.4891 43.4975 70.2697 43.2791C70.0063 43.1043 69.8746 42.7548 69.8746 42.3179C69.8746 42.0558 69.9624 41.8374 70.0502 41.6189C70.138 41.4005 70.2258 41.2257 70.3574 41.0947C70.4891 41.0947 70.6647 41.1384 70.8402 41.1821C71.0597 41.1821 71.2353 41.1821 71.4547 41.1821C72.1131 41.1821 72.5959 41.0073 72.9031 40.6578C73.2543 40.3083 73.3859 39.8714 73.3859 39.3472C73.3859 38.9977 73.2982 38.6045 73.1665 38.2986C72.9909 37.9491 72.7715 37.687 72.5081 37.4686H69.6113C69.304 37.4686 69.0846 37.3375 68.9529 37.1628C68.8212 36.988 68.7773 36.7259 68.7773 36.3327C68.7773 36.2016 68.7773 35.9832 68.8212 35.8084C68.8651 35.59 68.909 35.4152 68.9529 35.2842H87.0361C87.6067 35.2842 87.8701 35.6774 87.8701 36.3764C87.8701 36.5074 87.8701 36.7259 87.8262 36.9443C87.7823 37.1628 87.7384 37.3375 87.6506 37.4686H85.7194V48.0848C85.5438 48.1284 85.3683 48.1721 85.1927 48.2158C84.9733 48.2595 84.7099 48.2595 84.4466 48.2595C83.7882 48.2595 83.3493 48.1721 83.1298 47.9537C82.8665 47.7789 82.7787 47.4294 82.7787 46.9489V44.8955C82.252 45.114 81.5936 45.245 80.8036 45.245C80.3208 45.245 79.8819 45.1577 79.3991 44.9829C78.9601 44.8518 78.5651 44.6334 78.214 44.3276C77.8629 44.0655 77.5995 43.6723 77.3801 43.2791C77.1606 42.8422 77.0728 42.3616 77.0728 41.7937C77.0728 41.2694 77.1606 40.7889 77.3362 40.3957C77.5117 40.0025 77.7312 39.653 78.0384 39.3908C78.3457 39.1287 78.6968 38.9103 79.0918 38.7792C79.4868 38.6482 79.8819 38.5608 80.3208 38.5608C80.9353 38.5608 81.3742 38.6918 81.6814 38.954C81.9886 39.1724 82.1203 39.4782 82.1203 39.8277C82.1203 40.2209 81.9886 40.5704 81.7692 40.7889C81.5497 40.7452 81.3303 40.7015 81.0669 40.7015C80.6719 40.7015 80.3647 40.7889 80.1452 41.0073C79.8819 41.2257 79.7502 41.5316 79.7502 41.9248Z" fill="#377044"/>
<path d="M91.6622 37.4706V48.0868C91.4867 48.1305 91.3111 48.1741 91.1355 48.2178C90.9161 48.2615 90.6527 48.2615 90.3894 48.2615C89.731 48.2615 89.2921 48.1741 89.0727 47.9557C88.8093 47.781 88.7215 47.4314 88.7215 46.9509V37.4706H87.3609C87.0537 37.4706 86.8342 37.3395 86.7025 37.1648C86.5709 36.99 86.527 36.7279 86.527 36.3347C86.527 36.2036 86.527 35.9852 86.5709 35.8104C86.6148 35.592 86.6586 35.4173 86.7025 35.2862H88.7654C88.5021 34.893 88.2387 34.4998 87.8437 34.1503C87.4926 33.8008 87.0976 33.495 86.7025 33.1892C86.2636 32.927 85.8686 32.7086 85.4297 32.4902C85.0347 32.2717 84.6396 32.1407 84.2885 32.0533C84.2446 31.9659 84.2446 31.9222 84.2446 31.8348C84.2446 31.7912 84.2446 31.7038 84.2446 31.6601C84.2446 31.1795 84.3763 30.7426 84.6396 30.3931C84.9469 29.9999 85.3419 29.8252 85.9125 29.8252C86.4392 29.8252 86.9659 29.9999 87.4487 30.3058C87.9754 30.6116 88.5021 31.0048 88.9849 31.529C89.4677 32.0533 89.9066 32.6212 90.3016 33.2765C90.7405 33.9319 91.0478 34.6309 91.3111 35.2862H92.979C93.5496 35.2862 93.8129 35.6794 93.8129 36.3784C93.8129 36.5095 93.8129 36.7279 93.769 36.9463C93.7251 37.1648 93.6812 37.3395 93.5934 37.4706H91.6622Z" fill="#377044"/>
<path d="M73.5635 59.4112C73.7829 59.3238 74.0024 59.2801 74.2657 59.2365C74.5291 59.1928 74.7924 59.1928 75.0558 59.1928C75.8897 59.1928 76.5042 59.3675 76.9431 59.717C77.3381 60.0665 77.5576 60.5471 77.5576 61.0713C77.5576 61.4209 77.4698 61.7267 77.3381 61.9888C77.1626 62.2509 76.987 62.4694 76.7236 62.6441C76.4603 62.8189 76.1092 62.9499 75.758 63.0373C75.363 63.1247 74.968 63.1684 74.5291 63.1684C74.4852 63.1684 74.4413 63.1684 74.4413 63.1684C74.3974 63.1684 74.3535 63.1684 74.3096 63.1684C74.5291 63.3431 74.7924 63.5616 75.0558 63.7363C75.2752 63.9548 75.5825 64.1295 75.8897 64.3043C75.8458 64.5664 75.758 64.8285 75.5825 65.0033C75.4508 65.178 75.1874 65.2654 74.8802 65.2654C74.573 65.2654 74.3096 65.178 74.0463 64.9596C73.7829 64.7411 73.5196 64.3916 73.2562 63.9548L72.7295 62.9936C72.3345 62.9062 71.9834 62.7315 71.7639 62.5567C71.5006 62.3383 71.3689 62.1199 71.3689 61.8577C71.3689 61.6393 71.4567 61.5082 71.5444 61.3772C71.6761 61.2024 71.8078 61.115 71.9834 61.0713C72.2467 61.3335 72.5978 61.5519 73.0368 61.7267C73.4757 61.9014 73.9585 61.9888 74.5291 61.9888C75.0119 61.9888 75.363 61.9014 75.5825 61.7704C75.8019 61.5956 75.9336 61.3772 75.9336 61.115C75.9336 60.5908 75.4947 60.3287 74.6607 60.3287C74.3974 60.3287 74.1779 60.3723 73.9146 60.416C73.6512 60.4597 73.4318 60.5034 73.2123 60.5908C73.0368 60.5471 72.8173 60.4597 72.6417 60.3287C72.4223 60.2413 72.2467 60.0665 72.0711 59.9355C71.9395 59.7607 71.7639 59.586 71.6761 59.3675C71.5444 59.1491 71.5006 58.9306 71.5006 58.6248C71.5006 58.1443 71.6761 57.7074 72.0273 57.4016C72.3784 57.0957 72.949 56.921 73.6512 56.921H75.4508V55.9162H70.8422C70.491 55.9162 70.3594 55.7414 70.3594 55.3482C70.3594 55.2608 70.3594 55.1735 70.3594 55.0424C70.4033 54.955 70.4033 54.824 70.4472 54.7803H78.0843C78.3915 54.7803 78.5671 54.955 78.5671 55.3482C78.5671 55.4356 78.5671 55.523 78.5232 55.654C78.5232 55.7851 78.4793 55.8725 78.4354 55.9162H76.987V57.4889C76.987 57.8821 76.7675 58.0569 76.3286 58.0569H74.0024C73.6512 58.0569 73.4318 58.1443 73.3001 58.2316C73.1684 58.3627 73.1245 58.5374 73.1245 58.7122C73.1245 58.8869 73.1684 59.018 73.2562 59.1491C73.344 59.2365 73.4318 59.3238 73.5635 59.4112Z" fill="#373435"/>
<path d="M75.2476 52.717C75.2476 52.4549 75.3353 52.2364 75.5109 52.018C75.6865 51.8432 75.9059 51.7559 76.2132 51.7559C76.5204 51.7559 76.7837 51.8432 76.9593 52.018C77.1349 52.2364 77.2227 52.4549 77.2227 52.717C77.2227 52.9791 77.1349 53.1976 76.9593 53.3723C76.7837 53.5471 76.5204 53.6781 76.2132 53.6781C75.9059 53.6781 75.6865 53.5471 75.5109 53.3723C75.3353 53.1976 75.2476 52.9791 75.2476 52.717Z" fill="#373435"/>
<path d="M80.7181 55.9192V63.0403C80.6304 63.0403 80.5426 63.084 80.4109 63.084C80.3231 63.1277 80.1914 63.1277 80.0159 63.1277C79.7086 63.1277 79.4892 63.084 79.3575 62.953C79.2258 62.8656 79.1381 62.6908 79.1381 62.4287V55.9192H78.1286C77.953 55.9192 77.8213 55.8755 77.7774 55.7881C77.6896 55.7008 77.6458 55.526 77.6458 55.3513C77.6458 55.2639 77.6896 55.1765 77.6896 55.0455C77.6896 54.9581 77.7335 54.827 77.7335 54.7833H79.0503C78.9625 54.6523 78.9186 54.4775 78.8747 54.3028C78.8308 54.128 78.8308 53.9096 78.8308 53.6911C78.8308 52.9047 79.1381 52.2931 79.7525 51.8562C80.367 51.4194 81.2448 51.1572 82.3421 51.1572C83.0883 51.1572 83.7466 51.2446 84.3611 51.4194C84.9756 51.5941 85.5023 51.8125 85.9412 52.031C86.3801 52.2931 86.6873 52.5116 86.9507 52.7737C87.1701 53.0358 87.3018 53.2542 87.3018 53.429C87.3018 53.6474 87.214 53.7785 87.0385 53.9096C86.8629 54.0406 86.6435 54.0843 86.3362 54.0843C85.8973 53.5601 85.3267 53.1669 84.7122 52.8611C84.0539 52.5989 83.3077 52.4242 82.4738 52.4242C81.8154 52.4242 81.3326 52.5552 80.9376 52.8174C80.5865 53.0795 80.4109 53.429 80.4109 53.9096C80.4109 54.0843 80.4548 54.2591 80.4548 54.3901C80.4987 54.5212 80.5426 54.6523 80.6304 54.7833H81.6837C81.991 54.7833 82.1665 54.9581 82.1665 55.3513C82.1665 55.4386 82.1227 55.526 82.1227 55.6571C82.0788 55.7881 82.0788 55.8755 82.0349 55.9192H80.7181Z" fill="#373435"/>
<path d="M84.4929 59.4112C84.7123 59.3238 84.9318 59.2801 85.1951 59.2365C85.4585 59.1928 85.7218 59.1928 85.9852 59.1928C86.8191 59.1928 87.4336 59.3675 87.8725 59.717C88.2675 60.0665 88.487 60.5471 88.487 61.0713C88.487 61.7704 88.2236 62.3383 87.653 62.6878C87.1263 63.0373 86.3802 63.2121 85.4585 63.2121C85.0635 63.2121 84.6684 63.1684 84.2734 63.1247C83.8784 63.0373 83.5712 62.9499 83.2639 62.8189C83.0006 62.7315 82.7372 62.5567 82.5617 62.382C82.3861 62.2509 82.2983 62.0325 82.2983 61.8577C82.2983 61.6393 82.3861 61.4645 82.4739 61.3335C82.6056 61.2024 82.7372 61.115 82.9128 61.0713C83.1761 61.2898 83.5273 61.5082 83.9662 61.7267C84.4051 61.9014 84.8879 61.9888 85.4585 61.9888C85.9413 61.9888 86.2924 61.9014 86.5119 61.7704C86.7752 61.5956 86.863 61.3772 86.863 61.115C86.863 60.5908 86.4241 60.3287 85.5901 60.3287C85.3268 60.3287 85.1073 60.3723 84.844 60.416C84.5807 60.4597 84.3612 60.5034 84.1417 60.5908C83.9662 60.5471 83.7467 60.4597 83.5712 60.3287C83.3517 60.2413 83.1761 60.0665 83.0006 59.9355C82.8689 59.7607 82.6933 59.586 82.6056 59.3675C82.4739 59.1491 82.43 58.9306 82.43 58.6248C82.43 58.1442 82.6056 57.7074 82.9567 57.4016C83.3078 57.0957 83.8784 56.921 84.5807 56.921H86.3802V55.9162H81.7716C81.4205 55.9162 81.2888 55.7414 81.2888 55.3482C81.2888 55.2608 81.2888 55.1735 81.2888 55.0424C81.3327 54.955 81.3327 54.824 81.3766 54.7803H89.0137C89.3209 54.7803 89.4965 54.955 89.4965 55.3482C89.4965 55.4356 89.4965 55.523 89.4965 55.654C89.4526 55.7851 89.4087 55.8725 89.4087 55.9162H87.9164V57.4889C87.9164 57.8821 87.6969 58.0569 87.258 58.0569H84.9318C84.5807 58.0569 84.3612 58.1442 84.2295 58.2316C84.0979 58.3627 84.054 58.5374 84.054 58.7122C84.054 58.8869 84.0979 59.018 84.1856 59.1491C84.2734 59.2365 84.3612 59.3238 84.4929 59.4112Z" fill="#373435"/>
<path d="M96.4762 55.9162V63.0373C96.3884 63.0373 96.3006 63.081 96.1689 63.081C96.0811 63.1247 95.9495 63.1247 95.8178 63.1247C95.4667 63.1247 95.2472 63.081 95.1155 62.9499C94.9839 62.8625 94.94 62.6878 94.94 62.4257V61.0277C94.6766 61.2461 94.4133 61.3772 94.106 61.5082C93.7549 61.5956 93.4038 61.6393 93.0087 61.6393C92.3504 61.6393 91.7798 61.5082 91.2531 61.2461C90.7703 60.9403 90.3753 60.5908 90.068 60.1539C89.8925 59.8918 89.7608 59.6296 89.673 59.3675C89.5852 59.0617 89.5413 58.8433 89.5413 58.6248C89.5413 58.4937 89.5852 58.4064 89.6291 58.319C89.673 58.2316 89.7608 58.1879 89.8925 58.1879C90.4631 58.1442 90.8581 58.0132 91.1214 57.7947C91.3409 57.62 91.4726 57.3579 91.4726 57.0084C91.4726 56.7462 91.4287 56.5278 91.297 56.353C91.1653 56.1783 90.9898 56.0472 90.7703 55.9162H89.1024C88.7513 55.9162 88.6196 55.7414 88.6196 55.3482C88.6196 55.2608 88.6196 55.1735 88.6196 55.0424C88.6635 54.955 88.6635 54.824 88.7074 54.7803H97.4418C97.6173 54.7803 97.749 54.824 97.7929 54.9113C97.8807 54.9987 97.9246 55.1735 97.9246 55.3482C97.9246 55.4356 97.8807 55.523 97.8807 55.654C97.8807 55.7851 97.8368 55.8725 97.8368 55.9162H96.4762ZM93.1843 60.3723C93.5793 60.3723 93.9305 60.285 94.1938 60.1539C94.501 59.9791 94.7205 59.8044 94.94 59.6296V55.9162H92.4821C92.6576 56.0909 92.7893 56.2657 92.921 56.4841C93.0526 56.7025 93.0965 56.921 93.0965 57.1831C93.0965 57.4452 93.0526 57.7074 92.9649 57.9258C92.8332 58.1442 92.7015 58.319 92.5259 58.4501C92.3504 58.6248 92.1748 58.7559 91.9115 58.8433C91.692 58.9306 91.4287 59.018 91.1653 59.0617C91.297 59.4112 91.5164 59.717 91.8237 59.9791C92.1748 60.2413 92.6137 60.3723 93.1843 60.3723Z" fill="#373435"/>
<path d="M100.135 55.9162V63.0373C100.048 63.0373 99.9599 63.081 99.8721 63.081C99.7404 63.1247 99.6087 63.1247 99.4771 63.1247C99.1259 63.1247 98.9065 63.081 98.7748 62.9499C98.6431 62.8625 98.5992 62.6878 98.5992 62.4257V55.9162H97.5897C97.4142 55.9162 97.2825 55.8725 97.1947 55.7851C97.1508 55.6977 97.1069 55.523 97.1069 55.3482C97.1069 55.2608 97.1069 55.1735 97.1069 55.0424C97.1508 54.955 97.1508 54.824 97.1947 54.7803H101.101C101.408 54.7803 101.584 54.955 101.584 55.3482C101.584 55.4356 101.584 55.523 101.54 55.654C101.54 55.7851 101.496 55.8725 101.496 55.9162H100.135Z" fill="#373435"/>
</svg>
