<svg width="106" height="103" viewBox="0 0 106 103" fill="none" xmlns="http://www.w3.org/2000/svg">
<path fill-rule="evenodd" clip-rule="evenodd" d="M39.1294 90.9148C44.9214 93.1169 51.2571 94.3307 57.8951 94.3307C66.1028 94.3307 73.8715 92.4521 80.7186 89.1755C72.3353 95.4665 61.9331 99.2237 50.653 99.2237C44.223 99.2237 38.078 98.0121 32.436 95.8062L39.1294 90.9148ZM25.1049 82.8279C14.6968 74.3204 8.12238 61.8357 8.12238 47.934C8.12238 22.3329 30.4192 1.53741 57.8951 1.53741C59.9141 1.53741 61.9331 1.66847 63.9082 1.88691C59.6946 0.707335 55.2177 0.0957031 50.653 0.0957031C23.1332 0.0957031 0.836426 22.2892 0.836426 49.6816C0.836426 67.1306 9.91285 82.4812 23.6313 91.308L25.1049 82.8279Z" fill="#F47D5C"/>
<path d="M29.1604 79.708L22.2256 102.164L40.5721 85.2127L29.1604 79.708Z" fill="#377044"/>
<path fill-rule="evenodd" clip-rule="evenodd" d="M16.4987 48.7445C16.4987 69.8458 33.6602 86.9278 54.8597 86.9278C69.4654 86.9278 82.1882 78.7858 88.6663 66.8004H93.3492C86.5445 81.1786 71.8645 91.1219 54.8597 91.1219C31.334 91.1219 12.2852 72.1613 12.2852 48.7445C12.2852 25.3278 31.334 6.36719 54.8597 6.36719C69.9258 6.36719 83.1671 14.1725 90.723 25.9521H85.635C78.6365 16.6087 67.4474 10.5612 54.8597 10.5612C33.6602 10.5612 16.4987 27.6432 16.4987 48.7445Z" fill="#377044"/>
<path fill-rule="evenodd" clip-rule="evenodd" d="M36.1272 60.1171C33.757 60.1171 31.4747 60.1608 29.1484 60.0734C27.5245 60.0297 26.3833 58.8064 26.3833 57.1463C26.3833 50.0688 26.3833 42.9914 26.3833 35.9576C26.3833 34.2975 27.6561 33.0742 29.2801 33.0742C34.986 33.0742 40.6918 33.0742 46.3977 33.0742C47.9339 33.0742 49.2067 34.1664 49.2506 35.6518C49.2945 39.409 49.2506 43.1661 49.2506 46.967C48.3728 46.4864 47.495 46.0932 46.6172 45.6127C46.4855 45.5253 46.4416 45.1321 46.4416 44.87C46.4416 42.1613 46.4416 39.4527 46.4416 36.744V35.9139H29.324V57.2337C30.9041 57.2337 32.4842 57.2337 34.0643 57.2337C34.5032 57.2337 34.7665 57.3211 34.9421 57.8016C35.2932 58.5443 35.6882 59.2433 36.1272 60.1171Z" fill="#F58B71"/>
<path fill-rule="evenodd" clip-rule="evenodd" d="M36.1272 60.1171C33.757 60.1171 31.4747 60.1608 29.1484 60.0734C27.5245 60.0297 26.3833 58.8064 26.3833 57.1463C26.3833 50.0688 26.3833 42.9914 26.3833 35.9576C26.3833 34.2975 27.6561 33.0742 29.2801 33.0742C34.986 33.0742 40.6918 33.0742 46.3977 33.0742C47.9339 33.0742 49.2067 34.1664 49.2506 35.6518C49.2945 39.409 49.2506 43.1661 49.2506 46.967C48.3728 46.4864 47.495 46.0932 46.6172 45.6127C46.4855 45.5253 46.4416 45.1321 46.4416 44.87C46.4416 42.1613 46.4416 39.4527 46.4416 36.744V35.9139H29.324V57.2337C30.9041 57.2337 32.4842 57.2337 34.0643 57.2337C34.5032 57.2337 34.7665 57.3211 34.9421 57.8016C35.2932 58.5443 35.6882 59.2433 36.1272 60.1171Z" stroke="#F58B71" stroke-width="0.0116378"/>
<path fill-rule="evenodd" clip-rule="evenodd" d="M47.8725 54.4387C47.8287 52.0795 45.8974 50.1136 43.5273 50.1136C41.245 50.1136 39.226 52.0795 39.226 54.3513C39.226 56.7542 41.2011 58.7201 43.5712 58.7201C45.8974 58.6764 47.8725 56.7105 47.8725 54.4387ZM49.4965 58.3706C50.8572 59.6812 52.2178 60.9482 53.4906 62.1715C52.7884 62.8705 52.13 63.5258 51.4277 64.2248C50.5499 63.3947 49.5404 62.4773 48.6187 61.4725C47.9164 60.6861 47.3897 60.4676 46.2486 60.9482C43.6151 62.0841 41.0255 61.6472 38.8309 59.7249C36.6364 57.759 35.8902 55.2688 36.6803 52.4727C37.4703 49.6767 39.4454 47.8855 42.3422 47.4049C45.1513 46.9244 47.5214 47.8855 49.2332 50.1573C50.9449 52.4727 51.1205 54.9629 49.9793 57.5405C49.8477 57.8027 49.716 58.0211 49.4965 58.3706Z" fill="#F58B71"/>
<path fill-rule="evenodd" clip-rule="evenodd" d="M47.8725 54.4387C47.8287 52.0795 45.8974 50.1136 43.5273 50.1136C41.245 50.1136 39.226 52.0795 39.226 54.3513C39.226 56.7542 41.2011 58.7201 43.5712 58.7201C45.8974 58.6764 47.8725 56.7105 47.8725 54.4387ZM49.4965 58.3706C50.8572 59.6812 52.2178 60.9482 53.4906 62.1715C52.7884 62.8705 52.13 63.5258 51.4277 64.2248C50.5499 63.3947 49.5404 62.4773 48.6187 61.4725C47.9164 60.6861 47.3897 60.4676 46.2486 60.9482C43.6151 62.0841 41.0255 61.6472 38.8309 59.7249C36.6364 57.759 35.8902 55.2688 36.6803 52.4727C37.4703 49.6767 39.4454 47.8855 42.3422 47.4049C45.1513 46.9244 47.5214 47.8855 49.2332 50.1573C50.9449 52.4727 51.1205 54.9629 49.9793 57.5405C49.8477 57.8027 49.716 58.0211 49.4965 58.3706Z" stroke="#F58B71" stroke-width="0.0116378"/>
<path d="M62.2681 39.8373C62.5315 39.8373 62.7509 39.7936 62.9704 39.7062C63.146 39.5752 63.2776 39.4878 63.4093 39.4004C63.541 39.5315 63.7166 39.6625 63.8482 39.881C63.9799 40.0557 64.0238 40.3179 64.0238 40.6237C64.0238 41.0169 63.8482 41.3664 63.4971 41.6722C63.1021 41.978 62.5315 42.1528 61.7853 42.1528C61.3464 42.1528 60.9514 42.0654 60.5564 41.978C60.1175 41.8469 59.7663 41.6285 59.4591 41.3664C59.108 41.1042 58.8446 40.7984 58.6691 40.4052C58.4935 40.012 58.3618 39.5315 58.3618 38.9635C58.3618 37.8713 58.7129 37.0413 59.4152 36.4296C60.1175 35.7743 60.9953 35.4685 62.1365 35.4685C62.9704 35.4685 63.6727 35.6869 64.331 36.0364C64.9455 36.4296 65.6039 36.9976 66.2184 37.7403L67.4912 39.2257L70.6075 35.4248C71.222 35.5122 71.7048 35.6869 72.0559 35.9491C72.4509 36.2112 72.6265 36.5607 72.6265 36.9976C72.6265 37.2597 72.5387 37.4781 72.4509 37.6966C72.3193 37.915 72.1876 38.0898 72.012 38.3082L69.4663 40.9732L69.5102 41.0606C69.7736 41.3664 70.0369 41.6722 70.2564 41.978C70.5197 42.2838 70.7392 42.5896 70.9147 42.9391C71.1342 43.245 71.2659 43.5508 71.3975 43.9003C71.4853 44.2498 71.5731 44.5993 71.5731 44.9925C71.5731 45.473 71.4853 45.9099 71.2659 46.3468C71.0903 46.7837 70.827 47.1332 70.4758 47.439C70.1247 47.7448 69.6858 48.0069 69.1591 48.138C68.6763 48.3128 68.0618 48.4001 67.4034 48.4001C66.7889 48.4001 66.2184 48.3128 65.7356 48.138C65.2089 48.0069 64.8138 47.7448 64.4627 47.439C64.1116 47.1332 63.8043 46.7837 63.6288 46.3905C63.4093 45.9973 63.3215 45.5604 63.3215 45.0799C63.3215 44.7303 63.4093 44.3808 63.4971 44.0313C63.6288 43.6818 63.7604 43.376 63.936 43.0702C64.1116 42.8081 64.331 42.5023 64.5066 42.2401C64.7261 41.9343 64.9455 41.7159 65.165 41.4537L65.6478 40.8858L63.6288 38.6577C63.3654 38.3519 63.146 38.1771 62.9265 38.0024C62.7071 37.8713 62.4876 37.8276 62.2243 37.8276C61.917 37.8276 61.6976 37.915 61.4781 38.0898C61.3025 38.2645 61.2148 38.5267 61.2148 38.8325C61.2148 39.0946 61.3025 39.313 61.4781 39.5315C61.6098 39.7499 61.917 39.8373 62.2681 39.8373ZM67.4473 46.041C68.1935 46.041 68.5885 45.6041 68.5885 44.8177C68.5885 44.1624 68.2374 43.376 67.4912 42.5459C67.184 42.8955 66.9206 43.2886 66.7012 43.6818C66.4378 44.075 66.3061 44.4682 66.3061 44.8614C66.3061 45.2109 66.3939 45.473 66.6134 45.6915C66.7889 45.9099 67.0962 46.041 67.4473 46.041Z" fill="#377044"/>
<path d="M67.7004 47.4961C68.3149 47.4961 68.8416 47.5835 69.3244 47.7145C69.8072 47.8893 70.2022 48.1514 70.5534 48.4572C70.9045 48.763 71.1678 49.1125 71.3434 49.5494C71.519 49.9863 71.6068 50.4232 71.6068 50.9474C71.6068 52.0396 71.2556 52.8697 70.5095 53.525C69.7633 54.1367 68.7099 54.4862 67.3054 54.4862C66.6909 54.4862 66.0765 54.3988 65.5059 54.2677C64.8914 54.093 64.3647 53.8745 63.8819 53.6124C63.443 53.3503 63.048 53.0445 62.7846 52.695C62.4774 52.3455 62.3457 51.996 62.3457 51.6028C62.3457 51.2969 62.4774 50.9911 62.6968 50.729C62.9602 50.5106 63.2235 50.3358 63.5308 50.2484C63.7502 50.5106 64.0136 50.729 64.2769 50.9911C64.5403 51.2096 64.8036 51.3843 65.1109 51.5591C65.4181 51.7338 65.7253 51.9086 66.0765 51.996C66.4276 52.127 66.8226 52.1707 67.2176 52.1707C67.7004 52.1707 68.0955 52.0396 68.3588 51.8212C68.6221 51.6028 68.7977 51.2969 68.7977 50.9038C68.7977 50.5543 68.666 50.2921 68.4466 50.0737C68.2271 49.8989 67.9638 49.8116 67.6565 49.8116C67.1298 49.8116 66.7348 50.03 66.4276 50.5106C65.9887 50.4669 65.6375 50.3358 65.3303 50.1174C65.067 49.8989 64.9353 49.5931 64.9353 49.2436C64.9353 48.7194 65.1547 48.2825 65.6814 47.9767C66.1642 47.6272 66.8665 47.4961 67.7004 47.4961Z" fill="#377044"/>
<path d="M75.7213 40.9365C76.4236 40.9365 76.9503 40.8054 77.3014 40.5433C77.6086 40.2375 77.7842 39.8443 77.7842 39.3637C77.7842 38.8832 77.6525 38.5337 77.3453 38.2715C77.0819 38.0094 76.6869 37.8783 76.248 37.8783C75.9408 37.8783 75.6774 37.922 75.458 38.0094C75.2385 38.0968 75.0191 38.1841 74.8874 38.3152C74.4046 38.0094 74.1851 37.5725 74.1851 37.0919C74.1851 36.6114 74.4046 36.2182 74.8435 35.9124C75.2824 35.6502 75.853 35.4755 76.643 35.4755C77.3014 35.4755 77.872 35.5629 78.3548 35.7813C78.8815 35.9561 79.3204 36.2182 79.7154 36.5677C80.0666 36.8735 80.3738 37.3104 80.5494 37.791C80.7688 38.2715 80.8566 38.7958 80.8566 39.4074C80.8566 39.888 80.8127 40.2812 80.6371 40.6744C80.5055 41.0676 80.3299 41.3734 80.0666 41.6792C79.8471 41.9413 79.5838 42.2034 79.2765 42.3782C78.9693 42.5529 78.662 42.7277 78.3109 42.8151C78.5743 43.252 78.8815 43.6015 79.2326 43.8636C79.6276 44.1257 80.0666 44.2568 80.5494 44.2568C81.12 44.2568 81.5589 44.082 81.8661 43.7762C82.1733 43.4704 82.305 43.0772 82.305 42.5529V38.2715C82.4367 38.1841 82.6561 38.1405 82.8756 38.1405C83.139 38.0968 83.4023 38.0968 83.6657 38.0968C84.1485 38.0968 84.5435 38.1841 84.8507 38.3589C85.158 38.5773 85.2896 38.8832 85.2896 39.3637V40.8928C85.553 40.9365 85.8602 40.9802 86.2552 40.9802C86.4747 40.9802 86.6942 40.9802 86.8697 40.9365C87.0453 40.9365 87.2209 40.8928 87.3525 40.8491V35.825C87.4842 35.7813 87.7037 35.7376 87.9231 35.6939C88.1865 35.6939 88.4498 35.6939 88.7132 35.6939C89.196 35.6939 89.591 35.7813 89.8982 35.9561C90.1616 36.1745 90.2932 36.4803 90.2932 36.9609V48.145C90.1616 48.1887 89.9421 48.2324 89.6788 48.2761C89.4593 48.3198 89.196 48.3198 88.9326 48.3198C88.4059 48.3198 88.0109 48.2324 87.7475 48.0576C87.4842 47.8392 87.3525 47.5334 87.3525 47.0528V43.2956C87.0453 43.3393 86.738 43.383 86.343 43.383C86.1236 43.383 85.9041 43.383 85.6847 43.3393C85.4652 43.3393 85.2896 43.2956 85.158 43.252C85.0702 44.3442 84.5874 45.1742 83.7973 45.7859C82.9634 46.3538 81.8661 46.6596 80.5494 46.6596C79.3643 46.6596 78.3109 46.3538 77.477 45.7859C76.643 45.1742 75.9847 44.3878 75.5457 43.3393H75.1068C74.7996 43.3393 74.4924 43.2083 74.229 43.0335C73.9657 42.8151 73.834 42.5093 73.834 42.0287C73.834 41.7666 73.834 41.5918 73.8779 41.4171C73.9657 41.2423 74.0095 41.0676 74.0973 40.9365H75.7213ZM96.1308 48.145C95.9552 48.1887 95.7797 48.2324 95.5163 48.2761C95.253 48.3198 94.9896 48.3198 94.7702 48.3198C94.2435 48.3198 93.8484 48.2324 93.5851 48.0576C93.2779 47.8392 93.1462 47.5334 93.1462 47.0528V35.825C93.3218 35.7813 93.4973 35.7376 93.7607 35.6939C93.9801 35.6939 94.2435 35.6939 94.5068 35.6939C95.0335 35.6939 95.4285 35.7813 95.6919 35.9561C95.9991 36.1745 96.1308 36.4803 96.1308 36.9609V48.145ZM90.5127 29.4902C90.6883 29.4902 90.9077 29.4902 91.0833 29.5339C91.2589 29.5776 91.4344 29.665 91.6539 29.7524C91.8294 29.8834 92.0489 30.0145 92.3122 30.1892C92.5317 30.4077 92.8389 30.6261 93.1462 30.9319L95.8236 33.4658C95.7797 33.859 95.648 34.1649 95.4285 34.4707C95.2091 34.7328 94.9018 34.9075 94.4629 34.9075C94.3751 34.9075 94.2435 34.8639 94.1118 34.8202C93.9801 34.8202 93.8046 34.7328 93.629 34.6454C93.4534 34.558 93.1901 34.427 92.9267 34.2522C92.6634 34.0775 92.3122 33.859 91.9172 33.5532L88.757 31.3688C88.8448 30.8009 89.0204 30.364 89.2837 30.0145C89.591 29.665 89.986 29.4902 90.5127 29.4902Z" fill="#377044"/>
<path d="M74.3696 59.529C74.1941 59.529 74.0624 59.5727 73.9746 59.6164C73.8429 59.6601 73.7113 59.7038 73.6235 59.7912C73.4918 59.8785 73.404 60.0096 73.3601 60.1407C73.2724 60.2717 73.2285 60.4465 73.2285 60.6212C73.2285 61.0144 73.404 61.3202 73.7552 61.5824C74.0624 61.8008 74.5013 61.8882 75.028 61.8882C75.5986 61.8882 76.1253 61.7134 76.4764 61.3639C76.8276 61.0144 77.047 60.4465 77.047 59.6601C77.047 59.1358 77.0031 58.6553 76.8715 58.2184C76.7837 57.7378 76.6959 57.3009 76.5642 56.8641C76.4764 56.3835 76.3448 55.9466 76.257 55.5534C76.1692 55.1165 76.1253 54.6797 76.1253 54.2428C76.1253 53.8933 76.1692 53.5875 76.257 53.3253C76.3448 53.0632 76.5203 52.8448 76.652 52.67C76.8276 52.4953 77.047 52.4079 77.2665 52.3205C77.4859 52.2331 77.7493 52.1895 77.9687 52.1895C78.276 52.1895 78.5393 52.2331 78.7149 52.4079C78.8905 52.539 79.0221 52.7574 79.0221 53.0195C79.0221 53.1069 78.9782 53.1943 78.9782 53.2817C78.9343 53.4127 78.8905 53.4564 78.8466 53.5438C78.8027 53.5438 78.7588 53.5001 78.7149 53.5001C78.6271 53.5001 78.5393 53.5001 78.4515 53.5001C77.9687 53.5001 77.7493 53.7622 77.7493 54.3302C77.7493 54.6797 77.7932 55.0729 77.881 55.5097C77.9687 55.9029 78.1004 56.3398 78.1882 56.8204C78.3199 57.2573 78.4515 57.7378 78.5393 58.2184C78.6271 58.699 78.7149 59.1795 78.7149 59.6601C78.7149 60.228 78.6271 60.7086 78.4515 61.1455C78.276 61.5824 78.0565 61.9756 77.7493 62.2814C77.3981 62.5872 77.047 62.8056 76.5642 62.9804C76.0814 63.1551 75.5547 63.1988 74.9841 63.1988C74.4574 63.1988 74.0185 63.1551 73.5796 63.0678C73.1846 62.9367 72.8334 62.7619 72.5262 62.5435C72.2629 62.3251 71.9995 62.0629 71.8678 61.7571C71.6923 61.4513 71.6045 61.0581 71.6045 60.6649C71.6045 60.3154 71.6923 59.9659 71.8678 59.6164C72.0434 59.3106 72.3506 59.0485 72.7896 58.8737C72.4384 58.699 72.1751 58.4805 71.9556 58.1747C71.7362 57.8689 71.6484 57.5194 71.6484 57.0825C71.6484 56.7767 71.6923 56.4709 71.8239 56.2087C71.9117 55.9466 72.0873 55.7282 72.3068 55.5097C72.4823 55.335 72.7457 55.1602 73.0529 55.0729C73.3601 54.9418 73.7113 54.8981 74.0624 54.8981C74.5452 54.8981 74.8963 54.9855 75.1158 55.1165C75.3353 55.2913 75.4669 55.4661 75.4669 55.7282C75.4669 55.8592 75.423 55.9903 75.3791 56.0777C75.3353 56.1651 75.2914 56.2524 75.2475 56.3398C75.1597 56.2961 75.0719 56.2961 74.9402 56.2524C74.8086 56.2087 74.6769 56.2087 74.5013 56.2087C74.1502 56.2087 73.8868 56.2961 73.6235 56.4709C73.404 56.6019 73.2724 56.8641 73.2724 57.2573C73.2724 57.5631 73.404 57.8252 73.5796 58C73.7991 58.1747 74.0185 58.2621 74.3258 58.2621H75.3353C75.3791 58.3495 75.423 58.4368 75.4669 58.5242C75.4669 58.6116 75.5108 58.7427 75.5108 58.9174C75.5108 59.0485 75.4669 59.1795 75.4669 59.2669C75.423 59.398 75.3791 59.4853 75.3353 59.529H74.3696Z" fill="#373435"/>
<path d="M81.9297 63.0866C81.8419 63.1302 81.7541 63.1302 81.6225 63.1739C81.4908 63.1739 81.3591 63.1739 81.2274 63.1739C80.9641 63.1739 80.7446 63.1302 80.5691 63.0429C80.4374 62.9118 80.3496 62.7371 80.3496 62.4749V55.179C80.3496 53.9558 80.7007 53.0383 81.4908 52.383C82.2808 51.7277 83.422 51.4219 84.9582 51.4219C85.6605 51.4219 86.3627 51.4656 87.0211 51.5966C87.6795 51.684 88.2501 51.8151 88.7768 51.9898C89.3034 52.1646 89.7863 52.3393 90.1813 52.5141C90.5763 52.6888 90.8835 52.8636 91.103 53.0383C91.3225 53.1694 91.4541 53.3005 91.5419 53.3878C91.6297 53.5189 91.6736 53.65 91.6736 53.781C91.6736 53.9558 91.5858 54.0868 91.4541 54.2179C91.3225 54.349 91.1908 54.48 90.9713 54.5237C90.6202 54.3053 90.2252 54.0868 89.7863 53.8684C89.3473 53.65 88.9084 53.4752 88.3817 53.3005C87.855 53.1257 87.3283 52.9946 86.7577 52.8636C86.1872 52.7762 85.5727 52.7325 84.9582 52.7325C83.9926 52.7325 83.2464 52.951 82.7197 53.4315C82.193 53.8684 81.9297 54.5674 81.9297 55.5285V63.0866Z" fill="#373435"/>
<path d="M88.3938 57.3955C88.5693 57.3955 88.7449 57.4392 88.8766 57.5703C89.0083 57.6576 89.096 57.8761 89.096 58.0945C89.096 58.2256 89.096 58.3566 89.0521 58.4877C89.0083 58.5751 89.0083 58.6625 88.9644 58.7061H85.892C85.7164 58.7061 85.5409 58.7935 85.4531 58.9246C85.3653 59.012 85.3214 59.1867 85.3214 59.4488V60.1915C85.2775 60.2352 85.1458 60.2789 85.0581 60.3226C84.9264 60.3663 84.7947 60.3663 84.6191 60.3663C84.3119 60.3663 84.0047 60.2789 83.7852 60.0605C83.5658 59.842 83.4341 59.4925 83.4341 59.012C83.4341 57.9198 84.0486 57.3955 85.3214 57.3955H88.3938Z" fill="#373435"/>
<path d="M89.1638 60.4693C89.2077 60.9061 89.3833 61.2557 89.6905 61.5178C89.9538 61.7799 90.3489 61.911 90.7878 61.911C91.1828 61.911 91.49 61.8236 91.7534 61.6052C91.9729 61.4304 92.1045 61.1246 92.1045 60.7751C92.1045 60.4693 92.0167 60.2071 91.7973 59.9887C91.6217 59.7703 91.2706 59.5955 90.7439 59.4644L90.2172 59.3334C89.5588 59.1149 88.9882 58.8528 88.6371 58.5033C88.2421 58.1975 88.0226 57.7169 88.0226 57.149C88.0226 56.45 88.286 55.9257 88.8127 55.5325C89.3394 55.1393 90.0416 54.9209 90.9633 54.9209C91.5778 54.9209 92.1045 55.0083 92.5434 55.2267C92.9385 55.4015 93.1579 55.6636 93.1579 55.9694C93.1579 56.2315 93.0262 56.4937 92.8068 56.6684C92.5873 56.5374 92.324 56.45 92.0167 56.3626C91.7095 56.2752 91.4023 56.2315 91.095 56.2315C90.7 56.2315 90.3928 56.3189 90.1294 56.45C89.8222 56.581 89.6905 56.7995 89.6905 57.149C89.6905 57.3674 89.8222 57.5422 89.9977 57.6732C90.1733 57.8043 90.4805 57.9354 90.8756 58.0227L91.1828 58.1101C91.6217 58.2412 92.0167 58.3722 92.3679 58.547C92.6751 58.7218 92.9385 58.8965 93.1579 59.1149C93.3774 59.3334 93.5091 59.5518 93.6407 59.814C93.7285 60.1198 93.7724 60.4256 93.7724 60.7751C93.7724 61.1683 93.6846 61.5178 93.5529 61.8236C93.3774 62.1294 93.2018 62.3915 92.8946 62.61C92.6312 62.8284 92.324 62.9595 91.9729 63.0905C91.5778 63.1779 91.1828 63.2216 90.7878 63.2216C90.305 63.2216 89.91 63.1779 89.5149 63.0905C89.1638 62.9595 88.8566 62.8284 88.5932 62.61C88.3299 62.4352 88.1104 62.2168 87.9787 61.9547C87.8471 61.7362 87.7593 61.4741 87.7593 61.1683C87.7593 60.9061 87.8471 60.7314 88.0226 60.6003C88.1982 60.4693 88.4176 60.3819 88.681 60.3819C88.7688 60.3819 88.8566 60.3819 88.9443 60.4256C89.0321 60.4256 89.1199 60.4693 89.1638 60.4693Z" fill="#373435"/>
<path d="M101.861 63.0905C101.817 63.0905 101.685 63.1342 101.598 63.1342C101.51 63.1779 101.378 63.1779 101.203 63.1779C100.895 63.1779 100.676 63.1342 100.5 63.0469C100.369 62.9158 100.281 62.741 100.281 62.4789V61.1683C100.061 61.343 99.7981 61.4741 99.4909 61.5615C99.1836 61.6488 98.7886 61.6925 98.3497 61.6925C97.6474 61.6925 97.0329 61.5178 96.5062 61.212C95.9357 60.9062 95.4967 60.513 95.1895 59.9887C95.1017 59.7703 95.0139 59.5955 94.9262 59.3771C94.8384 59.1586 94.8384 58.9839 94.8384 58.8091C94.8384 58.6344 94.8823 58.5033 94.9701 58.4159C95.0578 58.3722 95.1895 58.2849 95.3651 58.2412L95.8918 58.1538C96.2868 58.0227 96.594 57.9354 96.8135 57.7606C97.0329 57.5859 97.1207 57.3674 97.1207 57.1053C97.1207 56.8432 97.0329 56.6247 96.9013 56.4937C96.7257 56.3189 96.5062 56.2315 96.2429 56.2315C96.0234 56.2315 95.8479 56.2752 95.6723 56.3189C95.5406 56.4063 95.3651 56.45 95.2334 56.5374C94.9701 56.3626 94.8384 56.1442 94.8384 55.8383C94.8384 55.5762 94.9701 55.3578 95.2334 55.183C95.5406 55.0083 95.8918 54.9209 96.4185 54.9209C97.1207 54.9209 97.6913 55.0957 98.1302 55.4888C98.5691 55.882 98.7886 56.4063 98.7886 57.0616C98.7886 57.3674 98.7447 57.6732 98.613 57.8917C98.5253 58.1538 98.3497 58.3722 98.1302 58.547C97.9547 58.7218 97.6913 58.8528 97.428 58.9839C97.1646 59.0713 96.8574 59.1586 96.5501 59.2023C96.6818 59.5081 96.9013 59.7703 97.2085 59.9887C97.5596 60.2071 97.9986 60.3382 98.4814 60.3382C98.9642 60.3382 99.3592 60.2508 99.6225 60.1198C99.9298 59.945 100.149 59.814 100.281 59.6392V55.1393C100.369 55.0957 100.456 55.0957 100.588 55.052C100.72 55.052 100.851 55.052 100.983 55.052C101.29 55.052 101.51 55.0957 101.685 55.183C101.817 55.3141 101.861 55.4888 101.861 55.751V63.0905Z" fill="#373435"/>
<path d="M105.549 63.0884C105.461 63.1321 105.373 63.1321 105.242 63.1758C105.11 63.1758 104.978 63.1758 104.847 63.1758C104.583 63.1758 104.364 63.1321 104.188 63.0447C104.057 62.9137 103.969 62.7389 103.969 62.4768V55.1372C104.057 55.0935 104.144 55.0935 104.276 55.0498C104.408 55.0498 104.539 55.0498 104.671 55.0498C104.978 55.0498 105.198 55.0935 105.329 55.1809C105.505 55.3119 105.549 55.4867 105.549 55.7488V63.0884Z" fill="#373435"/>
</svg>
