<svg width="105" height="103" viewBox="0 0 105 103" fill="none" xmlns="http://www.w3.org/2000/svg">
<path fill-rule="evenodd" clip-rule="evenodd" d="M40.0532 55.7023C40.0532 58.2362 40.0093 60.8138 40.0532 63.3477C40.0532 64.3962 39.8776 65.2699 38.7803 65.6631C37.683 66.0563 36.9369 65.5321 36.2346 64.7894C35.3568 63.7845 34.5229 62.736 33.5134 61.8623C33.0745 61.5128 32.1966 61.2943 31.67 61.4691C31.231 61.6001 30.7921 62.3865 30.7482 62.9108C30.7043 63.3913 31.1871 63.9593 31.5383 64.3962C34.084 67.2796 36.5858 70.163 38.0781 73.7891C38.7364 75.4492 40.0971 76.454 41.8966 76.6725C42.9939 76.8472 44.179 76.9346 45.3201 76.9346C49.1387 76.8909 52.0794 74.7939 52.4305 71.0367C52.8694 66.7116 52.6939 62.3428 52.6939 57.974C52.6939 57.1003 51.9477 56.576 51.0699 56.576C50.2359 56.576 49.6215 57.144 49.4898 58.0177C49.402 58.673 49.5337 59.4157 49.402 60.1148C49.3581 60.4643 49.0509 61.0759 48.7875 61.1196C48.0414 61.2069 48.0414 60.5516 48.0414 60.0274C48.0414 58.4546 48.0853 56.8818 48.0414 55.3091C47.9975 53.9984 47.0319 53.2121 45.9346 53.5179C45.0568 53.8237 44.7495 54.479 44.7495 55.3091C44.7495 56.9692 44.7495 58.5857 44.7056 60.2021C44.7056 60.5079 44.4862 60.8574 44.2667 61.1196C44.2228 61.2069 43.74 61.1196 43.6961 61.0322C43.5206 60.6827 43.3889 60.2895 43.3889 59.94C43.345 56.445 43.345 52.9936 43.345 49.5423C43.345 48.7559 43.5206 47.9258 43.3011 47.2268C43.1256 46.6589 42.555 45.9598 42.0283 45.7851C41.5894 45.6103 40.7993 46.0035 40.4482 46.3967C40.141 46.7462 40.0532 47.4452 40.0532 47.9695C40.0093 50.5471 40.0532 53.1247 40.0532 55.7023ZM44.7495 52.3383C47.6464 51.6393 49.007 52.513 49.5776 55.4401C49.8409 55.3964 50.0604 55.3091 50.2798 55.2654C52.2988 54.7848 54.1423 56.0955 54.1423 58.2362C54.1862 62.3428 54.23 66.4495 54.0106 70.5125C53.7911 74.7939 50.7626 77.6773 46.5491 78.2453C44.4862 78.5074 42.4672 78.42 40.4921 77.8084C38.9559 77.3278 37.6392 76.3667 37.0247 74.8813C35.4446 71.1241 32.8989 68.0223 30.1776 65.0515C28.9487 63.6535 28.9926 61.7312 30.2654 60.5953C31.6261 59.4157 33.5134 59.5905 34.7862 61.0322C35.6202 61.9496 36.4541 62.8671 37.3319 63.7845C37.5953 64.003 37.9464 64.134 38.2536 64.3088C38.3853 63.9593 38.6487 63.6098 38.6487 63.2603C38.6925 59.0662 38.6925 54.8285 38.6925 50.6345C38.6925 49.4549 38.6487 48.2753 38.6925 47.0957C38.7364 45.4793 40.0093 44.2997 41.6333 44.256C43.2572 44.2123 44.6179 45.4356 44.7056 47.0957C44.7495 47.9695 44.7495 48.8433 44.7495 49.717C44.7495 50.5908 44.7495 51.4208 44.7495 52.3383Z" fill="#F58B71"/>
<path fill-rule="evenodd" clip-rule="evenodd" d="M40.0532 55.7023C40.0532 58.2362 40.0093 60.8138 40.0532 63.3477C40.0532 64.3962 39.8776 65.2699 38.7803 65.6631C37.683 66.0563 36.9369 65.5321 36.2346 64.7894C35.3568 63.7845 34.5229 62.736 33.5134 61.8623C33.0745 61.5128 32.1966 61.2943 31.67 61.4691C31.231 61.6001 30.7921 62.3865 30.7482 62.9108C30.7043 63.3913 31.1871 63.9593 31.5383 64.3962C34.084 67.2796 36.5858 70.163 38.0781 73.7891C38.7364 75.4492 40.0971 76.454 41.8966 76.6725C42.9939 76.8472 44.179 76.9346 45.3201 76.9346C49.1387 76.8909 52.0794 74.7939 52.4305 71.0367C52.8694 66.7116 52.6939 62.3428 52.6939 57.974C52.6939 57.1003 51.9477 56.576 51.0699 56.576C50.2359 56.576 49.6215 57.144 49.4898 58.0177C49.402 58.673 49.5337 59.4157 49.402 60.1148C49.3581 60.4643 49.0509 61.0759 48.7875 61.1196C48.0414 61.2069 48.0414 60.5516 48.0414 60.0274C48.0414 58.4546 48.0853 56.8818 48.0414 55.3091C47.9975 53.9984 47.0319 53.2121 45.9346 53.5179C45.0568 53.8237 44.7495 54.479 44.7495 55.3091C44.7495 56.9692 44.7495 58.5857 44.7056 60.2021C44.7056 60.5079 44.4862 60.8574 44.2667 61.1196C44.2228 61.2069 43.74 61.1196 43.6961 61.0322C43.5206 60.6827 43.3889 60.2895 43.3889 59.94C43.345 56.445 43.345 52.9936 43.345 49.5423C43.345 48.7559 43.5206 47.9258 43.3011 47.2268C43.1256 46.6589 42.555 45.9598 42.0283 45.7851C41.5894 45.6103 40.7993 46.0035 40.4482 46.3967C40.141 46.7462 40.0532 47.4452 40.0532 47.9695C40.0093 50.5471 40.0532 53.1247 40.0532 55.7023ZM44.7495 52.3383C47.6464 51.6393 49.007 52.513 49.5776 55.4401C49.8409 55.3964 50.0604 55.3091 50.2798 55.2654C52.2988 54.7848 54.1423 56.0955 54.1423 58.2362C54.1862 62.3428 54.23 66.4495 54.0106 70.5125C53.7911 74.7939 50.7626 77.6773 46.5491 78.2453C44.4862 78.5074 42.4672 78.42 40.4921 77.8084C38.9559 77.3278 37.6392 76.3667 37.0247 74.8813C35.4446 71.1241 32.8989 68.0223 30.1776 65.0515C28.9487 63.6535 28.9926 61.7312 30.2654 60.5953C31.6261 59.4157 33.5134 59.5905 34.7862 61.0322C35.6202 61.9496 36.4541 62.8671 37.3319 63.7845C37.5953 64.003 37.9464 64.134 38.2536 64.3088C38.3853 63.9593 38.6487 63.6098 38.6487 63.2603C38.6925 59.0662 38.6925 54.8285 38.6925 50.6345C38.6925 49.4549 38.6487 48.2753 38.6925 47.0957C38.7364 45.4793 40.0093 44.2997 41.6333 44.256C43.2572 44.2123 44.6179 45.4356 44.7056 47.0957C44.7495 47.9695 44.7495 48.8433 44.7495 49.717C44.7495 50.5908 44.7495 51.4208 44.7495 52.3383Z" stroke="#F58B71" stroke-width="0.0135276"/>
<path fill-rule="evenodd" clip-rule="evenodd" d="M23.0255 36.4157C26.1418 36.372 26.0101 36.3283 25.9663 39.3428C25.9663 40.7845 25.7907 40.9593 24.2984 41.003C23.3328 41.003 22.3233 41.003 21.3138 40.9593C21.0943 40.9593 20.831 41.0466 20.6554 40.9156C19.207 40.1292 19.997 38.7312 19.8654 37.5516C19.7776 36.7652 20.3921 36.4157 21.1382 36.4157C21.7966 36.4157 22.4111 36.4157 23.0255 36.4157Z" fill="#F58B71"/>
<path fill-rule="evenodd" clip-rule="evenodd" d="M23.0255 36.4157C26.1418 36.372 26.0101 36.3283 25.9663 39.3428C25.9663 40.7845 25.7907 40.9593 24.2984 41.003C23.3328 41.003 22.3233 41.003 21.3138 40.9593C21.0943 40.9593 20.831 41.0466 20.6554 40.9156C19.207 40.1292 19.997 38.7312 19.8654 37.5516C19.7776 36.7652 20.3921 36.4157 21.1382 36.4157C21.7966 36.4157 22.4111 36.4157 23.0255 36.4157Z" stroke="#F58B71" stroke-width="0.0135276"/>
<path fill-rule="evenodd" clip-rule="evenodd" d="M32.2343 41.0119C28.9424 41.0119 29.2936 41.1867 29.2936 37.9975C29.2936 36.6868 29.513 36.4247 30.8298 36.4247C31.8831 36.381 32.9804 36.4247 34.0338 36.4247C34.9555 36.4247 35.3944 36.8179 35.3505 37.779C35.3066 38.347 35.3505 38.9586 35.3505 39.5265C35.3066 40.7498 35.0872 40.9682 33.8143 41.0119C33.2876 41.0119 32.761 41.0119 32.2343 41.0119Z" fill="#F58B71"/>
<path fill-rule="evenodd" clip-rule="evenodd" d="M32.2343 41.0119C28.9424 41.0119 29.2936 41.1867 29.2936 37.9975C29.2936 36.6868 29.513 36.4247 30.8298 36.4247C31.8831 36.381 32.9804 36.4247 34.0338 36.4247C34.9555 36.4247 35.3944 36.8179 35.3505 37.779C35.3066 38.347 35.3505 38.9586 35.3505 39.5265C35.3066 40.7498 35.0872 40.9682 33.8143 41.0119C33.2876 41.0119 32.761 41.0119 32.2343 41.0119Z" stroke="#F58B71" stroke-width="0.0135276"/>
<path fill-rule="evenodd" clip-rule="evenodd" d="M41.5752 41.0316C38.3711 41.0316 38.6784 41.2063 38.6784 38.0608C38.6784 36.6628 38.8978 36.4443 40.3462 36.4443C41.3996 36.4443 42.4091 36.4443 43.4625 36.4443C44.2525 36.4443 44.7353 36.7938 44.6914 37.6239C44.6914 38.3229 44.7353 39.0219 44.7353 39.7209C44.7353 40.6384 44.2525 41.0753 43.3308 41.0316C42.7602 40.9879 42.1457 41.0316 41.5752 41.0316Z" fill="#F58B71"/>
<path fill-rule="evenodd" clip-rule="evenodd" d="M41.5752 41.0316C38.3711 41.0316 38.6784 41.2063 38.6784 38.0608C38.6784 36.6628 38.8978 36.4443 40.3462 36.4443C41.3996 36.4443 42.4091 36.4443 43.4625 36.4443C44.2525 36.4443 44.7353 36.7938 44.6914 37.6239C44.6914 38.3229 44.7353 39.0219 44.7353 39.7209C44.7353 40.6384 44.2525 41.0753 43.3308 41.0316C42.7602 40.9879 42.1457 41.0316 41.5752 41.0316Z" stroke="#F58B71" stroke-width="0.0135276"/>
<path fill-rule="evenodd" clip-rule="evenodd" d="M22.9026 48.7351H22.7709C19.5669 48.7788 19.8302 48.9972 19.8741 45.3711C19.8741 44.6721 20.2692 44.2352 21.0592 44.2352C22.2881 44.2352 23.561 44.1915 24.7899 44.2352C25.8872 44.2352 26.0189 44.6284 26.0189 47.2497C25.975 48.0798 25.8872 48.7788 24.7899 48.7351C24.1316 48.7351 23.5171 48.7351 22.9026 48.7351Z" fill="#F58B71"/>
<path fill-rule="evenodd" clip-rule="evenodd" d="M22.9026 48.7351H22.7709C19.5669 48.7788 19.8302 48.9972 19.8741 45.3711C19.8741 44.6721 20.2692 44.2352 21.0592 44.2352C22.2881 44.2352 23.561 44.1915 24.7899 44.2352C25.8872 44.2352 26.0189 44.6284 26.0189 47.2497C25.975 48.0798 25.8872 48.7788 24.7899 48.7351C24.1316 48.7351 23.5171 48.7351 22.9026 48.7351Z" stroke="#F58B71" stroke-width="0.0135276"/>
<path fill-rule="evenodd" clip-rule="evenodd" d="M22.7988 56.5236C22.2721 56.5236 21.7015 56.48 21.1309 56.5236C20.1653 56.611 19.8142 56.0868 19.8142 55.213C19.8142 51.7617 19.5948 52.0675 22.7988 52.0675C23.4572 52.0675 24.1155 52.0675 24.7739 52.0675C25.6517 52.0675 26.0028 52.4607 25.959 53.2907C25.959 56.8295 26.3979 56.5673 22.7988 56.5236Z" fill="#F58B71"/>
<path fill-rule="evenodd" clip-rule="evenodd" d="M22.7988 56.5236C22.2721 56.5236 21.7015 56.48 21.1309 56.5236C20.1653 56.611 19.8142 56.0868 19.8142 55.213C19.8142 51.7617 19.5948 52.0675 22.7988 52.0675C23.4572 52.0675 24.1155 52.0675 24.7739 52.0675C25.6517 52.0675 26.0028 52.4607 25.959 53.2907C25.959 56.8295 26.3979 56.5673 22.7988 56.5236Z" stroke="#F58B71" stroke-width="0.0135276"/>
<path fill-rule="evenodd" clip-rule="evenodd" d="M32.2379 48.7535C29.1216 48.7535 29.2533 49.1467 29.2972 45.8701C29.2972 44.5158 29.5166 44.2536 30.8773 44.21C31.9307 44.21 32.9841 44.21 34.0813 44.2536C34.9153 44.2536 35.3981 44.6032 35.3542 45.5206C35.3103 46.1322 35.3103 46.7439 35.3542 47.3992C35.442 48.4477 34.9153 48.8409 33.9058 48.7972C33.3352 48.7535 32.7646 48.7535 32.2379 48.7535Z" fill="#F58B71"/>
<path fill-rule="evenodd" clip-rule="evenodd" d="M32.2379 48.7535C29.1216 48.7535 29.2533 49.1467 29.2972 45.8701C29.2972 44.5158 29.5166 44.2536 30.8773 44.21C31.9307 44.21 32.9841 44.21 34.0813 44.2536C34.9153 44.2536 35.3981 44.6032 35.3542 45.5206C35.3103 46.1322 35.3103 46.7439 35.3542 47.3992C35.442 48.4477 34.9153 48.8409 33.9058 48.7972C33.3352 48.7535 32.7646 48.7535 32.2379 48.7535Z" stroke="#F58B71" stroke-width="0.0135276"/>
<path fill-rule="evenodd" clip-rule="evenodd" d="M32.2343 56.5276C28.9424 56.5713 29.2936 56.7461 29.2936 53.6442C29.2936 52.2025 29.4252 52.0715 30.9175 52.0715C31.8831 52.0715 32.8926 52.0715 33.9021 52.0715C34.1216 52.0715 34.3849 52.0278 34.5605 52.1152C36.1405 52.9015 35.0872 54.3432 35.3066 55.4791C35.4822 56.1781 34.9116 56.5276 34.2093 56.5276C33.551 56.5276 32.8926 56.5276 32.2343 56.5276Z" fill="#F58B71"/>
<path fill-rule="evenodd" clip-rule="evenodd" d="M32.2343 56.5276C28.9424 56.5713 29.2936 56.7461 29.2936 53.6442C29.2936 52.2025 29.4252 52.0715 30.9175 52.0715C31.8831 52.0715 32.8926 52.0715 33.9021 52.0715C34.1216 52.0715 34.3849 52.0278 34.5605 52.1152C36.1405 52.9015 35.0872 54.3432 35.3066 55.4791C35.4822 56.1781 34.9116 56.5276 34.2093 56.5276C33.551 56.5276 32.8926 56.5276 32.2343 56.5276Z" stroke="#F58B71" stroke-width="0.0135276"/>
<path fill-rule="evenodd" clip-rule="evenodd" d="M38.4871 90.9289C44.2752 93.1221 50.606 94.3307 57.2404 94.3307C65.448 94.3307 73.1729 92.4521 80.02 89.1755C71.6806 95.4665 61.2784 99.2237 49.9544 99.2237C43.5438 99.2237 37.4152 98.0156 31.7859 95.8157L38.4871 90.9289ZM24.4408 82.8504C14.0097 74.3424 7.42371 61.848 7.42371 47.934C7.42371 22.3329 29.7205 1.53741 57.2404 1.53741C59.2594 1.53741 61.2784 1.66847 63.2096 1.88691C58.996 0.707335 54.563 0.0957031 49.9544 0.0957031C22.4784 0.0957031 0.181641 22.2892 0.181641 49.6816C0.181641 67.1329 9.26045 82.4852 22.9705 91.3114L24.4408 82.8504Z" fill="#F47D5C"/>
<path d="M28.4612 79.708L21.5264 102.164L39.9169 85.2127L28.4612 79.708Z" fill="#377044"/>
<path fill-rule="evenodd" clip-rule="evenodd" d="M15.8337 48.7445C15.8337 69.8458 33.0391 86.9278 54.1946 86.9278C68.8306 86.9278 81.5419 78.7858 88.0099 66.8004H92.727C85.9199 81.1786 71.2312 91.1219 54.1946 91.1219C30.6689 91.1219 11.6201 72.1613 11.6201 48.7445C11.6201 25.3278 30.6689 6.36719 54.1946 6.36719C69.2889 6.36719 82.5402 14.1725 90.0998 25.9521H84.9828C77.9926 16.6087 66.8084 10.5612 54.1946 10.5612C33.0391 10.5612 15.8337 27.6432 15.8337 48.7445Z" fill="#377044"/>
<path d="M58.1274 41.839C58.1274 40.8341 58.303 39.9167 58.6102 39.174C58.9614 38.3876 59.4003 37.7323 59.927 37.2517C60.4976 36.7275 61.1121 36.378 61.8143 36.1158C62.4727 35.8537 63.2189 35.7227 63.9211 35.7227C65.5451 35.7227 66.3352 36.2469 66.3352 37.2954C66.3352 37.4702 66.2913 37.6449 66.2474 37.8634C66.1596 38.0381 66.1157 38.1692 66.0279 38.2566C65.8524 38.2566 65.6329 38.2129 65.4134 38.1692C65.194 38.1692 64.9306 38.1255 64.6673 38.1255C64.1845 38.1255 63.7456 38.2129 63.3067 38.3876C62.8677 38.5624 62.5166 38.7808 62.2094 39.0866C61.9021 39.3924 61.6388 39.7856 61.4632 40.2662C61.2876 40.7031 61.1999 41.2273 61.1999 41.7953C61.1999 42.4069 61.2876 42.9312 61.5071 43.4117C61.6827 43.8923 61.946 44.2855 62.2971 44.5913C62.6044 44.8971 62.9994 45.1593 63.4383 45.334C63.9211 45.5088 64.4039 45.5525 64.9306 45.5525C65.3257 45.5525 65.6329 45.5525 65.8085 45.5088C65.984 45.4651 66.2035 45.3777 66.3791 45.334C66.5107 45.5088 66.5985 45.6835 66.6424 45.8583C66.7302 46.033 66.7741 46.2078 66.7741 46.4262C66.7741 46.9068 66.5546 47.3 66.1596 47.6058C65.8085 47.9116 65.1501 48.0427 64.2723 48.0427C63.57 48.0427 62.8677 47.9116 62.1216 47.6932C61.3754 47.4747 60.717 47.0815 60.1465 46.601C59.532 46.0767 59.0492 45.4651 58.698 44.6787C58.303 43.8923 58.1274 42.9312 58.1274 41.839ZM71.2949 48.1737C71.1194 48.2611 70.8999 48.3048 70.6365 48.3048C70.4171 48.3485 70.1537 48.3485 69.8904 48.3485C69.4076 48.3485 69.0126 48.2611 68.7053 48.0864C68.442 47.9116 68.3103 47.5621 68.3103 47.0815V43.0185H64.6673C64.2284 43.0185 63.9211 42.8875 63.7017 42.669C63.4822 42.4069 63.3505 42.1011 63.3505 41.6642C63.3505 41.4021 63.3944 41.1837 63.4822 40.9652C63.5261 40.7905 63.6139 40.6157 63.7017 40.5283H68.3103V35.8537C68.6614 35.7663 69.1003 35.7227 69.6709 35.7227C70.1976 35.7227 70.5927 35.81 70.856 35.9848C71.1194 36.2032 71.2949 36.509 71.2949 36.9896V48.1737Z" fill="#377044"/>
<path d="M80.282 38.3002C80.6331 38.1692 81.1159 38.1255 81.6426 38.1255C82.1254 38.1255 82.5204 38.2129 82.8277 38.3876C83.091 38.6061 83.2227 38.9119 83.2227 39.3924V40.9215C83.3982 40.9652 83.5299 40.9652 83.7055 41.0089C83.8372 41.0089 84.0566 41.0526 84.2761 41.0526C84.715 41.0526 85.0661 41.0089 85.3734 40.9215V35.8537C85.505 35.81 85.7245 35.7663 85.9878 35.7663C86.2073 35.7227 86.4706 35.7227 86.6901 35.7227C87.2168 35.7227 87.6557 35.81 87.9191 35.9848C88.1824 36.1595 88.358 36.509 88.358 36.9896V48.1737C88.1824 48.2611 87.9629 48.3048 87.6996 48.3048C87.4363 48.3485 87.2168 48.3485 86.9534 48.3485C86.4706 48.3485 86.0317 48.2611 85.7684 48.0864C85.505 47.8679 85.3734 47.5621 85.3734 47.0815V43.2807C85.1978 43.2807 85.0661 43.3244 84.8906 43.3244C84.715 43.3681 84.4955 43.3681 84.2761 43.3681C84.0566 43.3681 83.8372 43.3681 83.6616 43.3244C83.4421 43.2807 83.2666 43.2807 83.1349 43.237C83.091 43.6302 83.0032 43.9797 82.8277 44.3729C82.6521 44.7224 82.4326 45.0282 82.0815 45.334C81.7304 45.5961 81.3353 45.8146 80.8525 45.9893C80.3258 46.1641 79.7553 46.2515 79.053 46.2515C77.6924 46.2515 76.6829 45.902 75.9367 45.2466C75.1467 44.5913 74.7955 43.6302 74.7955 42.3195V39.174C74.7955 38.8682 74.7516 38.6498 74.62 38.4313C74.5322 38.2566 74.3127 38.1255 73.9616 38.1255H73.5227C73.391 37.8634 73.3032 37.5576 73.3032 37.2517C73.3032 36.7275 73.4788 36.3343 73.8299 36.0722C74.1811 35.8537 74.62 35.7227 75.1467 35.7227C75.9367 35.7227 76.5951 35.9411 77.034 36.378C77.5168 36.8585 77.7363 37.6012 77.7363 38.5624V42.3632C77.7363 42.8001 77.8679 43.1496 78.0435 43.4117C78.263 43.6739 78.5702 43.8049 79.053 43.8049C79.4919 43.8049 79.843 43.6739 80.0186 43.4117C80.1942 43.1496 80.282 42.8001 80.282 42.3632V38.3002Z" fill="#377044"/>
<path d="M94.1769 48.1899C94.0014 48.2773 93.8258 48.321 93.5625 48.321C93.2991 48.3647 93.0358 48.3647 92.8163 48.3647C92.2896 48.3647 91.8946 48.2773 91.6313 48.1025C91.324 47.9278 91.1923 47.5783 91.1923 47.0977V35.8699C91.3679 35.8262 91.5435 35.7825 91.8068 35.7825C92.0263 35.7389 92.2896 35.7389 92.553 35.7389C93.0797 35.7389 93.4747 35.8262 93.738 36.001C94.0453 36.2194 94.1769 36.5252 94.1769 37.0058V48.1899ZM88.5589 29.5352C88.7344 29.5352 88.9539 29.5352 89.1295 29.5788C89.305 29.6225 89.4806 29.7099 89.7 29.7973C89.8756 29.9283 90.0951 30.0594 90.3584 30.2779C90.5779 30.4526 90.8851 30.671 91.1923 30.9769L93.8697 33.5108C93.8258 33.904 93.6941 34.2535 93.4747 34.5156C93.2552 34.8214 92.948 34.9525 92.5091 34.9525C92.4213 34.9525 92.2896 34.9088 92.1579 34.9088C92.0263 34.8651 91.8507 34.7777 91.6751 34.6903C91.4996 34.603 91.2362 34.4719 90.9729 34.2971C90.7095 34.1224 90.3584 33.904 89.9634 33.6418L86.8032 31.4137C86.891 30.8458 87.0666 30.4089 87.3738 30.0594C87.6372 29.7099 88.0322 29.5352 88.5589 29.5352Z" fill="#377044"/>
<path d="M73.666 59.4441C73.5343 59.4441 73.4027 59.4878 73.271 59.5314C73.1393 59.5751 73.0076 59.6188 72.9199 59.7499C72.8321 59.8373 72.7443 59.9246 72.6565 60.0557C72.6126 60.1868 72.5687 60.3615 72.5687 60.5363C72.5687 60.9731 72.7443 61.279 73.0515 61.4974C73.4027 61.7158 73.7977 61.8469 74.3244 61.8469C74.9388 61.8469 75.4216 61.6285 75.8166 61.279C76.1678 60.9295 76.3433 60.3615 76.3433 59.5751C76.3433 59.0946 76.2994 58.5703 76.2117 58.1334C76.1239 57.6529 75.9922 57.216 75.9044 56.7791C75.7728 56.3422 75.685 55.9053 75.5533 55.4685C75.4655 55.0316 75.4216 54.5947 75.4216 54.1578C75.4216 53.8083 75.4655 53.5025 75.5972 53.2404C75.685 52.9783 75.8166 52.8035 75.9922 52.6287C76.1678 52.454 76.3433 52.3229 76.6067 52.2356C76.8261 52.1482 77.0456 52.1045 77.3089 52.1045C77.6162 52.1045 77.8795 52.1919 78.0551 52.3229C78.2306 52.454 78.3184 52.6724 78.3184 52.9346C78.3184 53.0219 78.3184 53.1093 78.2745 53.2404C78.2745 53.3278 78.2306 53.4151 78.1867 53.4588C78.1429 53.4588 78.099 53.4588 78.0112 53.4151C77.9673 53.4151 77.8795 53.4151 77.7917 53.4151C77.3089 53.4151 77.0456 53.6773 77.0456 54.2452C77.0456 54.6384 77.0895 55.0316 77.1773 55.4248C77.3089 55.8617 77.3967 56.2985 77.5284 56.7354C77.6601 57.1723 77.7478 57.6529 77.8795 58.1334C77.9673 58.614 78.0112 59.1383 78.0112 59.6188C78.0112 60.1431 77.9234 60.6236 77.7478 61.0605C77.6162 61.4974 77.3528 61.8906 77.0456 62.1964C76.7384 62.5022 76.3433 62.7207 75.8605 62.8954C75.4216 63.0702 74.8949 63.1575 74.2805 63.1575C73.7977 63.1575 73.3149 63.0702 72.9199 62.9828C72.5248 62.8517 72.1737 62.7207 71.8665 62.5022C71.5592 62.2838 71.3398 62.0217 71.1642 61.6722C70.9887 61.3663 70.9009 61.0168 70.9009 60.58C70.9009 60.2305 71.0326 59.8809 71.2081 59.5314C71.3837 59.2256 71.6909 58.9635 72.1298 58.7888C71.7348 58.614 71.4715 58.3956 71.252 58.0897C71.0764 57.8276 70.9448 57.4344 70.9448 56.9975C70.9448 56.6917 71.0326 56.4296 71.1203 56.1675C71.252 55.9053 71.3837 55.6432 71.6031 55.4685C71.8226 55.25 72.0859 55.119 72.3932 54.9879C72.6565 54.9005 73.0076 54.8131 73.4027 54.8131C73.8855 54.8131 74.2366 54.9005 74.456 55.0753C74.6755 55.2063 74.7633 55.4248 74.7633 55.6869C74.7633 55.7743 74.7633 55.9053 74.7194 55.9927C74.6755 56.1238 74.6316 56.2112 74.5877 56.2548C74.4999 56.2112 74.3683 56.2112 74.2366 56.1675C74.1049 56.1675 73.9732 56.1238 73.8416 56.1238C73.4904 56.1238 73.1832 56.2112 72.9637 56.3859C72.7443 56.5607 72.6126 56.8228 72.6126 57.1723C72.6126 57.4781 72.7004 57.7402 72.9199 57.915C73.0954 58.0897 73.3588 58.1771 73.666 58.1771H74.6316C74.6755 58.2645 74.7194 58.3519 74.7633 58.4392C74.8072 58.5703 74.8072 58.7014 74.8072 58.8324C74.8072 59.0072 74.8072 59.0946 74.7633 59.2256C74.7194 59.313 74.6755 59.4004 74.6316 59.4441H73.666Z" fill="#373435"/>
<path d="M81.3134 63.0016C81.2256 63.0453 81.094 63.089 80.9623 63.089C80.8745 63.089 80.7428 63.1327 80.6112 63.1327C80.3039 63.1327 80.0845 63.0453 79.9528 62.9579C79.7772 62.8268 79.6895 62.6521 79.6895 62.39V55.0941C79.6895 53.9145 80.0845 52.9534 80.8745 52.298C81.6207 51.6864 82.7618 51.3369 84.298 51.3369C85.0442 51.3369 85.7464 51.3806 86.3609 51.5117C87.0193 51.599 87.6337 51.7738 88.1604 51.9049C88.6871 52.0796 89.1699 52.2544 89.565 52.4291C89.96 52.6476 90.2672 52.8223 90.4867 52.9534C90.6622 53.0844 90.7939 53.2155 90.8817 53.3029C90.9695 53.4339 91.0134 53.565 91.0134 53.6961C91.0134 53.8708 90.9695 54.0019 90.8378 54.1766C90.7061 54.3077 90.5306 54.3951 90.355 54.4388C90.0039 54.2203 89.6089 54.0019 89.1699 53.7834C88.731 53.565 88.2482 53.3902 87.7654 53.2155C87.2387 53.0407 86.712 52.9097 86.0976 52.8223C85.527 52.6912 84.9564 52.6476 84.3419 52.6476C83.3763 52.6476 82.6302 52.866 82.1035 53.3466C81.5768 53.7834 81.3134 54.5261 81.3134 55.4436V63.0016Z" fill="#373435"/>
<path d="M87.6956 57.3115C87.915 57.3115 88.0906 57.3552 88.2223 57.4863C88.3539 57.6173 88.3978 57.7921 88.3978 58.0105C88.3978 58.1853 88.3978 58.2727 88.3978 58.4037C88.3539 58.4911 88.31 58.5785 88.2662 58.6658H85.2377C85.0182 58.6658 84.8866 58.7095 84.7988 58.8406C84.711 58.9717 84.6671 59.1464 84.6671 59.3649V60.1076C84.5793 60.1512 84.4915 60.1949 84.3599 60.2386C84.2721 60.2823 84.1404 60.2823 83.9209 60.2823C83.6137 60.2823 83.3504 60.1949 83.1309 59.9765C82.8676 59.758 82.7798 59.4085 82.7798 58.928C82.7798 57.8358 83.3943 57.3115 84.6232 57.3115H87.6956Z" fill="#373435"/>
<path d="M88.4651 60.4241C88.5529 60.8173 88.7285 61.1668 88.9918 61.4289C89.2991 61.691 89.6502 61.8221 90.133 61.8221C90.4842 61.8221 90.8353 61.7347 91.0548 61.5163C91.3181 61.3415 91.4498 61.0794 91.4498 60.6862C91.4498 60.3804 91.3181 60.1183 91.1425 59.9435C90.9231 59.7251 90.5719 59.5503 90.0891 59.3756L89.5624 59.2445C88.8602 59.0261 88.3335 58.7639 87.9384 58.4581C87.5434 58.1086 87.3678 57.6717 87.3678 57.0601C87.3678 56.4048 87.6312 55.8369 88.1579 55.4437C88.6846 55.0505 89.3869 54.832 90.2647 54.832C90.9231 54.832 91.4498 54.9631 91.8448 55.1378C92.2837 55.3126 92.4593 55.5747 92.4593 55.8805C92.4593 56.1864 92.3715 56.4048 92.1521 56.5795C91.9326 56.4485 91.6254 56.3611 91.362 56.2737C91.0548 56.23 90.7475 56.1864 90.3964 56.1864C90.0452 56.1864 89.6941 56.23 89.4308 56.3611C89.1674 56.5359 89.0357 56.7543 89.0357 57.0601C89.0357 57.2786 89.1235 57.497 89.2991 57.5844C89.5185 57.7154 89.7819 57.8465 90.2208 57.9776L90.5281 58.0213C90.967 58.1523 91.362 58.3271 91.6692 58.4581C92.0204 58.6329 92.2837 58.8076 92.5032 59.0261C92.6788 59.2445 92.8543 59.463 92.9421 59.7688C93.0299 60.0309 93.1177 60.3367 93.1177 60.6862C93.1177 61.0794 93.0299 61.4289 92.8543 61.7784C92.7226 62.0842 92.5032 62.3027 92.2398 62.5211C91.9765 62.7396 91.6692 62.9143 91.2742 63.0017C90.9231 63.1327 90.5281 63.1764 90.0891 63.1764C89.6502 63.1764 89.2113 63.0891 88.8602 63.0017C88.509 62.8706 88.1579 62.7396 87.8945 62.5648C87.6312 62.3464 87.4556 62.1279 87.324 61.9095C87.1923 61.6474 87.1045 61.3852 87.1045 61.0794C87.1045 60.8173 87.1923 60.6425 87.3678 60.5115C87.4995 60.3804 87.719 60.293 87.9823 60.293C88.114 60.293 88.2018 60.3367 88.2896 60.3367C88.3774 60.3804 88.4212 60.3804 88.4651 60.4241Z" fill="#373435"/>
<path d="M101.24 63.0017C101.153 63.0017 101.065 63.0454 100.977 63.089C100.845 63.089 100.714 63.1327 100.582 63.1327C100.275 63.1327 100.055 63.0454 99.8797 62.958C99.7042 62.8706 99.6603 62.6522 99.6603 62.39V61.1231C99.3969 61.2542 99.1336 61.3852 98.8263 61.4726C98.5191 61.56 98.168 61.6037 97.729 61.6037C97.0268 61.6037 96.4123 61.4726 95.8417 61.1668C95.315 60.861 94.8761 60.4241 94.5689 59.8998C94.4372 59.6814 94.3494 59.5066 94.3055 59.2882C94.2177 59.1134 94.1738 58.895 94.1738 58.7203C94.1738 58.5455 94.2177 58.4581 94.3055 58.3708C94.3933 58.2834 94.525 58.2397 94.7005 58.196L95.2272 58.0649C95.6661 57.9776 95.9734 57.8465 96.1489 57.6717C96.3684 57.5407 96.5001 57.2786 96.5001 57.0164C96.5001 56.7543 96.4123 56.5359 96.2367 56.4048C96.1051 56.23 95.8856 56.1864 95.5784 56.1864C95.4028 56.1864 95.1833 56.1864 95.0517 56.2737C94.8761 56.3174 94.7444 56.4048 94.6127 56.4485C94.3494 56.2737 94.2177 56.0553 94.2177 55.7932C94.2177 55.531 94.3494 55.3126 94.6127 55.1378C94.8761 54.9194 95.2711 54.832 95.7978 54.832C96.5001 54.832 97.0707 55.0505 97.5096 55.4437C97.9485 55.7932 98.168 56.3174 98.168 57.0164C98.168 57.3222 98.0802 57.5844 97.9924 57.8465C97.8607 58.0649 97.6851 58.2834 97.5096 58.4581C97.2901 58.6329 97.0707 58.7639 96.8073 58.895C96.5001 59.0261 96.2367 59.1134 95.8856 59.1571C96.0173 59.4193 96.2367 59.6814 96.5879 59.8998C96.939 60.1183 97.334 60.2493 97.8607 60.2493C98.3435 60.2493 98.6947 60.162 99.0019 60.0309C99.2652 59.8998 99.4847 59.7251 99.6603 59.594V55.0505C99.7042 55.0505 99.8358 55.0068 99.9675 55.0068C100.099 54.9631 100.231 54.9631 100.363 54.9631C100.67 54.9631 100.889 55.0068 101.021 55.1378C101.153 55.2252 101.24 55.4 101.24 55.6621V63.0017Z" fill="#373435"/>
<path d="M104.928 62.9995C104.84 63.0432 104.708 63.0869 104.62 63.0869C104.489 63.0869 104.357 63.1306 104.225 63.1306C103.918 63.1306 103.699 63.0432 103.567 62.9558C103.391 62.8248 103.304 62.65 103.304 62.3879V55.0483C103.391 55.0046 103.523 55.0046 103.655 55.0046C103.787 54.9609 103.874 54.9609 104.05 54.9609C104.313 54.9609 104.533 55.0046 104.708 55.1357C104.84 55.2231 104.928 55.3978 104.928 55.6599V62.9995Z" fill="#373435"/>
</svg>
