<svg xmlns="http://www.w3.org/2000/svg" width="298" height="67" fill="none" opacity=".45" xmlns:v="https://vecta.io/nano"><path d="M214.522 55l-2.292-5.856h-7.54L202.425 55H200l7.434-19h2.158L217 55h-2.478zm-5.143-13.7l-.266-.769-.373-1.139-.267-.928-.426 1.617-.4 1.219-2.158 5.724h6.022l-2.132-5.724z" fill="#ff7f11"/><path d="M128.482 28.261v2.288h-4.173v6.075h-9.121c-1.375 0-2.062.392-2.062 1.176 0 .44.236 1.047.709 1.821.483.773.935 1.332 1.353 1.676 1.623-1.063 3.186-1.595 4.689-1.595 1.472 0 2.761.537 3.868 1.611s1.659 2.224 1.659 3.448c0 1.773-.999 3.459-2.997 5.06L120.554 48c2.471-1.654 3.706-3.029 3.706-4.125 0-.634-.252-1.149-.757-1.547-.505-.408-1.166-.612-1.982-.612-1.45 0-2.89.451-4.318 1.353-1.429.892-2.143 2.004-2.143 3.336 0 1.558 1.138 3.174 3.416 4.85 2.288 1.676 5.408 3.094 9.361 4.254l-.209.677-1.176-.387c-3.943-1.3-7.219-2.916-9.829-4.85-2.611-1.923-3.916-3.835-3.916-5.736 0-1.149.618-2.288 1.853-3.416-1.719-1.998-2.578-3.625-2.578-4.882 0-1.719 1.337-2.578 4.012-2.578h5.769v-3.787H110v-2.288h12.649l-2.465-3.206c-1.698-2.213-3.449-3.319-5.253-3.319h-1.789l-1.031-2.739h1.241c1.192 0 2.304.322 3.335.967 1.031.634 2.331 2.014 3.899 4.141l3.078 4.157h4.818z" fill="#98a0a0"/><path d="M256.825 18.951l-.893-.03c-1.231 0-2.22.298-2.967.893-.737.595-1.105 1.428-1.105 2.497 0 2.341 1.529 3.512 4.586 3.512 1.847 0 3.477-.444 4.889-1.332 1.423-.888 2.528-2.099 3.315-3.633.788-1.544 1.181-3.083 1.181-4.617 0-1.594-.242-2.805-.727-3.633-.484-.838-1.19-1.256-2.119-1.256-.686 0-1.231.212-1.634.636-.394.414-.591.918-.591 1.514 0 1.08.364 1.912 1.09 2.497.737.585 1.827 1.019 3.27 1.302l-.772 2.225c-4.027-1.07-6.04-3.032-6.04-5.888 0-1.332.404-2.417 1.211-3.254.817-.848 1.922-1.272 3.315-1.272 1.675 0 3.017.616 4.026 1.847s1.514 2.992 1.514 5.283c0 1.958-.489 3.875-1.468 5.752-.969 1.867-2.357 3.35-4.163 4.45s-3.885 1.65-6.236 1.65c-2.261 0-4.016-.52-5.268-1.559s-1.877-2.437-1.877-4.193c0-1.564.525-2.866 1.575-3.905-.999-.666-1.741-1.403-2.226-2.21-.474-.807-.711-1.721-.711-2.74a4.01 4.01 0 0 1 1.393-3.133c.938-.827 2.194-1.241 3.769-1.241a12.14 12.14 0 0 1 2.891.333l-.424 2.225c-.848-.192-1.579-.288-2.195-.288-.928 0-1.65.207-2.164.621-.515.404-.772.959-.772 1.665 0 .777.211 1.438.635 1.983.434.545 1.08 1.034 1.938 1.468.847-.313 1.791-.469 2.83-.469a18.78 18.78 0 0 1 1.211.06l-.287 2.24zm6.115-11.034c-.525-1.927-1.11-3.345-1.756-4.253-.656-.908-1.519-1.362-2.588-1.362-.565 0-1.1.096-1.605.288l-.726-2.21a8.52 8.52 0 0 1 2.497-.38c1.282 0 2.311.308 3.088.923.767.605 1.413 1.504 1.938 2.694.514 1.191.968 2.624 1.362 4.299h-2.21z" fill="#f3c2a0"/><path d="M152 20.699c0-1.32.28-2.48.841-3.479.561-1.016 1.334-1.803 2.32-2.361 1.003-.576 2.167-.863 3.493-.863 1.342 0 2.507.279 3.492.838 1.003.542 1.785 1.312 2.346 2.311s.841 2.175.841 3.529c0 .626-.068 1.227-.204 1.803.663.846 1.334 1.481 2.014 1.904.68.406 1.419.609 2.218.609.867 0 1.53-.271 1.989-.812.458-.559.688-1.354.688-2.387 0-.982-.204-1.837-.612-2.564a5.77 5.77 0 0 0-1.606-1.904c-.663-.542-1.419-.999-2.269-1.371l.943-1.955a10.36 10.36 0 0 1 2.856 1.777c.849.745 1.529 1.608 2.039 2.59s.765 2.074.765 3.275c0 .355-.017.686-.051.99.646.796 1.3 1.388 1.963 1.777s1.376.584 2.141.584c.867 0 1.53-.271 1.989-.812.459-.559.688-1.354.688-2.387 0-.982-.204-1.837-.612-2.564a5.77 5.77 0 0 0-1.606-1.904c-.663-.542-1.419-.999-2.269-1.371l.943-1.955a10.36 10.36 0 0 1 2.856 1.777 8.83 8.83 0 0 1 2.039 2.59c.51.982.765 2.074.765 3.275 0 1.676-.425 2.988-1.275 3.936s-2.082 1.422-3.696 1.422c-.935 0-1.785-.203-2.55-.609-.747-.406-1.419-.948-2.014-1.625a4.04 4.04 0 0 1-1.682 1.65c-.714.389-1.581.584-2.6.584-1.037 0-1.955-.237-2.754-.711-.799-.491-1.512-1.134-2.141-1.93-.561.829-1.326 1.481-2.295 1.955-.951.457-2.065.686-3.339.686-1.343 0-2.516-.262-3.518-.787-.986-.525-1.759-1.253-2.32-2.184-.544-.948-.816-2.057-.816-3.326zm2.116-.229c0 1.32.382 2.404 1.147 3.25s1.895 1.27 3.391 1.27c1.512 0 2.651-.406 3.416-1.219.765-.829 1.147-1.887 1.147-3.174 0-.846-.17-1.617-.51-2.311-.323-.694-.824-1.244-1.504-1.65-.663-.423-1.512-.635-2.549-.635s-1.895.212-2.575.635a3.79 3.79 0 0 0-1.479 1.625c-.323.677-.484 1.413-.484 2.209z" fill="#ff7f11"/><g fill="#98a0a0"><path d="M160.675 53.616v1.338h-2.504a1.72 1.72 0 0 1 .193.508c.055.178.082.366.082.562 0 .624-.146 1.204-.44 1.739-.293.517-.697.919-1.211 1.204a3.73 3.73 0 0 1 1.404 1.445c.348.607.522 1.285.522 2.034 0 1.249-.651 2.319-1.953 3.211-1.284.892-2.834 1.338-4.65 1.338-1.064 0-1.972-.285-2.724-.856s-1.128-1.267-1.128-2.087c0-.66.321-1.222.963-1.686.642-.482 1.421-.723 2.339-.723.752 0 1.55.25 2.393.749.844.482 1.651 1.168 2.422 2.06.312-.303.55-.624.715-.963.165-.357.248-.705.248-1.044 0-.5-.175-.981-.523-1.445-.349-.482-.816-.892-1.403-1.231-.349.089-.78.161-1.294.214l-1.733.053c-.917 0-1.697-.125-2.339-.375-.642-.268-.963-.589-.963-.963 0-.303.239-.553.716-.749.495-.214 1.082-.321 1.761-.321.513 0 1.054.062 1.623.187.587.107 1.192.268 1.816.482.624-.285 1.119-.633 1.486-1.044.385-.41.578-.821.578-1.231a1.47 1.47 0 0 0-.11-.562c-.074-.178-.175-.348-.303-.508H147v-1.338h13.675zm-11.034 10.57c0 .41.239.758.716 1.044.495.285 1.082.428 1.761.428.55 0 1.11-.062 1.678-.187a9.85 9.85 0 0 0 1.761-.615c-.734-.606-1.449-1.07-2.146-1.391-.679-.321-1.293-.482-1.843-.482-.532 0-.991.116-1.376.348-.367.232-.551.517-.551.856z"/><path d="M156.544 51.743c0-1.035.376-1.918 1.128-2.649s1.66-1.097 2.724-1.097 1.972.366 2.724 1.097 1.128 1.614 1.128 2.649v1.873H167v1.338h-2.752v12.042h-1.375V54.954h-2.752v-1.338h2.752v-1.873c0-.66-.248-1.222-.743-1.686a2.35 2.35 0 0 0-1.734-.723 2.35 2.35 0 0 0-1.733.723c-.495.464-.743 1.026-.743 1.686v1.873h-1.376v-1.873z"/></g><path opacity=".4" d="M73.014 4c1.176 0 2.135.209 2.877.627A4.77 4.77 0 0 1 77.682 6.3c.633-.854 1.321-1.446 2.063-1.777.742-.348 1.647-.523 2.714-.523 1.393 0 2.569.322 3.528.967.977.627 1.719 1.481 2.226 2.561.525 1.08.787 2.291.787 3.632 0 1.725-.362 3.206-1.086 4.443-.706 1.237-1.746 2.369-3.121 3.397l-1.439-1.594a8.09 8.09 0 0 0 2.334-2.456c.615-.993.923-2.256.923-3.789 0-1.01-.172-1.908-.516-2.692-.344-.801-.832-1.429-1.466-1.882-.615-.47-1.348-.706-2.198-.706-.76 0-1.384.131-1.873.392-.47.244-.85.618-1.14 1.124-.235.401-.389.871-.461 1.411s-.109 1.324-.109 2.352v7.631h-2.334v-8.258c0-.906-.072-1.664-.217-2.274-.127-.61-.371-1.098-.733-1.463-.271-.296-.615-.523-1.031-.679s-.932-.235-1.547-.235c-.561 0-1.049.096-1.466.287-.416.174-.769.409-1.058.706-.344.366-.597.836-.76 1.411s-.244 1.402-.244 2.483v8.023h-2.334V11.16l-.109-2.326c-.072-.575-.235-1.054-.489-1.437-.615-1.01-1.574-1.516-2.877-1.516-.832 0-1.574.235-2.226.706-.633.453-1.131 1.08-1.493 1.882-.362.784-.543 1.681-.543 2.692 0 1.585.317 2.866.95 3.841.651.976 1.42 1.76 2.307 2.352L61.071 19c-.778-.61-1.475-1.272-2.09-1.986-.615-.732-1.104-1.568-1.466-2.509-.344-.958-.516-2.073-.516-3.345 0-1.411.271-2.648.814-3.711a6.26 6.26 0 0 1 2.361-2.535C61.189 4.305 62.383 4 63.758 4c1.158 0 2.09.226 2.796.679a5.7 5.7 0 0 1 1.737 1.646C69.431 4.775 71.005 4 73.014 4z" fill="#ff7f11"/><g fill="#4d82f7"><path d="M10.803 45.59v.577l-.281.266c-.364.325-.547.774-.547 1.346.197.296.611.508 1.241.636.532.128.882.286 1.049.474.473.474.704 1.243.694 2.308-.079 2.042-.522 3.833-1.33 5.371-.768 1.529-1.832 2.841-3.191 3.936-1.172.937-2.433 1.406-3.782 1.406-1.31-.039-2.31-.464-2.999-1.273C.505 59.307-.046 57.467.003 55.119c.059-1.776.448-3.832 1.167-6.17l.768-2.294c.177-.128.305-.094.384.104.039.138.02.37-.059.696l-.946 4.779c-.227 1.874.079 3.438.916 4.691.296.444.704.799 1.226 1.065.975.493 2.162.513 3.561.059a7.33 7.33 0 0 0 4.388-3.847c.256-.533.384-.982.384-1.346v-.34c-.276-.266-.719-.473-1.33-.621-1.143-.187-1.803-.794-1.98-1.82-.108-.631-.079-1.43.089-2.397.296-.927.852-1.776 1.67-2.545.029.01.128.089.295.237l.266.222z"/><path d="M13.965 47.395l.089.089-.96 4.143a10.67 10.67 0 0 0-.192 1.938c0 2.081.685 3.497 2.054 4.247.857.464 1.798.696 2.822.696 1.576 0 3.098-.474 4.565-1.42 1.556-.986 2.566-2.21 3.029-3.67.079-.523.118-1.139.118-1.85l-.089-2.575.03-2.545a23.47 23.47 0 0 1 1.152-3.329c.138-.148.271-.158.399-.03.039.365.015 1.342-.074 2.93l-.059 3.581c-.059 1.411-.217 2.55-.473 3.418-.729 2.328-1.832 4.35-3.309 6.067-1.212 1.154-2.541 1.983-3.989 2.486-.827.286-1.675.429-2.541.429-.965 0-1.803-.182-2.512-.547-1.576-1.036-2.364-2.915-2.364-5.638 0-1.539.251-3.245.754-5.12 0-.148.044-.331.133-.547.099-.227.148-.39.148-.488.158-.503.458-1.228.901-2.175.148-.207.271-.237.369-.089z"/></g><path d="M292.935 40.625a1.72 1.72 0 0 0 .484 1.22c.344.321.742.482 1.194.482.473 0 .871-.161 1.193-.482a1.66 1.66 0 0 0 .517-1.22c0-.45-.172-.835-.517-1.156-.322-.321-.72-.482-1.193-.482-.452 0-.85.161-1.194.482-.322.321-.484.706-.484 1.156zm-4.129.835h-.258c-.451.792-1.043 1.413-1.774 1.862a4.2 4.2 0 0 1-2.29.674c-1.506 0-2.796-.61-3.871-1.83-1.075-1.242-1.613-2.729-1.613-4.463 0-2.376.839-4.442 2.516-6.197 1.699-1.755 3.796-2.751 6.29-2.986l-.322-3.821v-1.702h2.484v1.702l-.355 3.95c1.505.128 2.882.417 4.129.867 1.269.45 2.344 1.06 3.226 1.83l-1.452 1.413c-.86-.706-1.871-1.252-3.032-1.638s-2.409-.578-3.742-.578c-1.656 0-3.118.353-4.387 1.06-1.247.685-2.086 1.595-2.516 2.729h15.742v2.119H281.29c-.064.107-.118.268-.161.482a8.03 8.03 0 0 0-.032.771c0 1.156.333 2.141 1 2.954s1.462 1.22 2.387 1.22c.968 0 1.785-.407 2.451-1.22s1-1.798 1-2.954h1.549c0 .899.172 1.68.516 2.344.344.642.806 1.07 1.387 1.284l-.129-.707a3.29 3.29 0 0 1 .968-2.376 3.26 3.26 0 0 1 2.387-.995c.946 0 1.742.332 2.387.995.667.664 1 1.456 1 2.376s-.387 1.713-1.161 2.376c-.753.664-1.667.995-2.742.995-1.205 0-2.28-.225-3.226-.674-.925-.45-1.613-1.07-2.065-1.862zm-32.977 18.492c-1.513 0-2.631-.34-3.357-1.019-.725-.696-1.088-1.586-1.088-2.67 0-1.052.371-1.885 1.111-2.5.757-.631 1.821-.947 3.195-.947 1.188 0 2.237.235 3.148.704a7.28 7.28 0 0 1 2.384 1.99c.309-.534.533-1.117.672-1.748a9.18 9.18 0 0 0 .208-1.966c0-1.359-.232-2.346-.695-2.961s-1.095-.922-1.898-.922a2.07 2.07 0 0 0-1.666.777c-.433.502-.703 1.181-.811 2.039h-1.828c-.108-.922-.394-1.618-.857-2.087-.447-.485-.995-.728-1.643-.728-.618 0-1.073.162-1.366.485-.293.307-.44.72-.44 1.238 0 .307.039.623.116.947.092.307.185.558.278.752l-1.76.582a7.38 7.38 0 0 1-.37-1.044c-.108-.404-.162-.866-.162-1.383 0-.712.162-1.327.486-1.845a3.19 3.19 0 0 1 1.296-1.214 3.7 3.7 0 0 1 1.783-.437c.802 0 1.481.17 2.037.51s1.065.898 1.528 1.675c.493-.906 1.057-1.497 1.689-1.772s1.258-.413 1.875-.413c1.034 0 1.868.283 2.5.849s1.088 1.294 1.366 2.185a8.79 8.79 0 0 1 .44 2.767c0 .841-.131 1.739-.394 2.694-.246.939-.686 1.804-1.319 2.597a11.79 11.79 0 0 1 .741 1.699 13.8 13.8 0 0 1 .486 1.82l-1.921.388c-.186-.971-.44-1.837-.764-2.597-.602.453-1.32.825-2.153 1.117-.818.291-1.767.437-2.847.437zm-2.57-3.714c0 .583.209 1.044.625 1.384.432.34 1.119.51 2.06.51.896 0 1.675-.105 2.338-.316.679-.227 1.258-.534 1.737-.922-.494-.712-1.104-1.27-1.829-1.675-.71-.421-1.543-.631-2.5-.631-.787 0-1.389.146-1.806.437a1.4 1.4 0 0 0-.625 1.214z" fill="#2961ad"/></svg>