<svg width="196" height="44" viewBox="0 0 196 44" fill="none" xmlns="http://www.w3.org/2000/svg">
<g opacity="0.45">
<path d="M140.888 36.1215L139.383 32.2753H134.431L132.943 36.1215H131.351L136.233 23.6432H137.651L142.516 36.1215H140.888ZM137.511 27.1239C137.476 27.0311 137.418 26.8628 137.336 26.6192C137.254 26.3755 137.173 26.1261 137.091 25.8708C137.021 25.604 136.963 25.4009 136.916 25.2617C136.834 25.6214 136.741 25.9753 136.636 26.3233C136.531 26.6598 136.443 26.9267 136.373 27.1239L134.956 30.8831H138.911L137.511 27.1239Z" fill="#FF7F11"/>
<path d="M84.3811 18.5608V20.0635H81.6403V24.0531H75.6506C74.7476 24.0531 74.296 24.3106 74.296 24.8256C74.296 25.1148 74.4513 25.5134 74.7617 26.0214C75.0791 26.5294 75.3755 26.8962 75.6506 27.122C76.7159 26.4235 77.7424 26.0743 78.7301 26.0743C79.6966 26.0743 80.5432 26.4271 81.2699 27.1326C81.9966 27.8381 82.3599 28.5929 82.3599 29.3972C82.3599 30.5613 81.7038 31.6689 80.3915 32.7201L79.1746 31.5243C80.7972 30.4378 81.6085 29.5348 81.6085 28.8152C81.6085 28.3989 81.4427 28.0603 81.1112 27.7993C80.7796 27.5312 80.3457 27.3971 79.8095 27.3971C78.8571 27.3971 77.9117 27.6934 76.9734 28.286C76.0351 28.8716 75.5659 29.6018 75.5659 30.4766C75.5659 31.4996 76.3138 32.5614 77.8094 33.6619C79.3121 34.7625 81.3616 35.6938 83.9578 36.4557L83.8203 36.9002L83.0477 36.6462C80.4586 35.7925 78.3068 34.7308 76.5924 33.4609C74.8781 32.198 74.0209 30.9422 74.0209 29.6935C74.0209 28.9386 74.4266 28.1908 75.2379 27.45C74.1091 26.1378 73.5447 25.069 73.5447 24.2435C73.5447 23.1147 74.423 22.5503 76.1797 22.5503H79.9682V20.0635H72.243V18.5608H80.5503L78.9312 16.4548C77.8165 15.0015 76.6665 14.2749 75.4813 14.2749H74.3066L73.6293 12.4758H74.4442C75.2273 12.4758 75.9575 12.6875 76.6348 13.1108C77.312 13.527 78.1657 14.4336 79.1957 15.8305L81.217 18.5608H84.3811Z" fill="#98A0A0"/>
<path d="M168.671 12.4463C168.479 12.433 168.283 12.4264 168.084 12.4264C167.276 12.4264 166.626 12.6219 166.136 13.0129C165.652 13.4039 165.41 13.9507 165.41 14.6532C165.41 16.1908 166.414 16.9595 168.422 16.9595C169.635 16.9595 170.705 16.6679 171.633 16.0847C172.568 15.5015 173.293 14.7062 173.81 13.6989C174.327 12.6849 174.586 11.6742 174.586 10.6668C174.586 9.61968 174.427 8.82439 174.109 8.28095C173.79 7.73087 173.327 7.45583 172.717 7.45583C172.266 7.45583 171.908 7.59501 171.643 7.87336C171.385 8.14508 171.255 8.47645 171.255 8.86747C171.255 9.5766 171.494 10.1234 171.971 10.5078C172.455 10.8921 173.171 11.1771 174.119 11.3627L173.612 12.824C170.967 12.1215 169.645 10.8325 169.645 8.95694C169.645 8.08212 169.91 7.36968 170.44 6.8196C170.977 6.2629 171.703 5.98455 172.617 5.98455C173.718 5.98455 174.599 6.38882 175.262 7.19736C175.924 8.00591 176.256 9.16239 176.256 10.6668C176.256 11.9525 175.934 13.2117 175.292 14.4444C174.655 15.6705 173.744 16.6447 172.558 17.3671C171.371 18.0895 170.006 18.4507 168.462 18.4507C166.977 18.4507 165.824 18.1094 165.003 17.4268C164.181 16.7441 163.77 15.8263 163.77 14.6731C163.77 13.6458 164.114 12.7909 164.804 12.1083C164.148 11.6709 163.66 11.1871 163.342 10.6569C163.031 10.1267 162.875 9.5269 162.875 8.85753C162.875 8.0291 163.18 7.34317 163.79 6.79972C164.406 6.25627 165.231 5.98455 166.265 5.98455C166.934 5.98455 167.567 6.05745 168.164 6.20325L167.885 7.6646C167.329 7.53868 166.848 7.47572 166.444 7.47572C165.834 7.47572 165.36 7.61158 165.022 7.8833C164.684 8.1484 164.515 8.51291 164.515 8.97682C164.515 9.48713 164.655 9.92123 164.933 10.2791C165.218 10.637 165.642 10.9584 166.205 11.2434C166.762 11.0379 167.382 10.9352 168.064 10.9352C168.23 10.9352 168.495 10.9485 168.86 10.975L168.671 12.4463Z" fill="#F3C2A0"/>
<path d="M172.687 5.1992C172.342 3.93337 171.958 3.00222 171.534 2.40575C171.103 1.80928 170.536 1.51105 169.834 1.51105C169.463 1.51105 169.112 1.57401 168.78 1.69993L168.303 0.248528C168.846 0.0828426 169.393 0 169.943 0C170.785 0 171.461 0.202136 171.971 0.606408C172.475 1.00405 172.899 1.59389 173.244 2.37593C173.582 3.15796 173.88 4.09905 174.138 5.1992H172.687Z" fill="#F3C2A0"/>
<path d="M99.8267 13.5942C99.8267 12.7271 100.011 11.9656 100.379 11.3097C100.748 10.6427 101.255 10.1257 101.903 9.75886C102.561 9.38088 103.326 9.19189 104.197 9.19189C105.078 9.19189 105.843 9.37532 106.49 9.74218C107.149 10.0979 107.662 10.6037 108.031 11.2596C108.399 11.9155 108.583 12.6882 108.583 13.5775C108.583 13.9889 108.539 14.3835 108.449 14.7615C108.885 15.3173 109.325 15.7342 109.772 16.0121C110.218 16.2789 110.704 16.4123 111.229 16.4123C111.798 16.4123 112.233 16.2345 112.535 15.8787C112.836 15.5119 112.987 14.9894 112.987 14.3112C112.987 13.6665 112.853 13.1051 112.585 12.627C112.328 12.1379 111.976 11.721 111.53 11.3764C111.095 11.0206 110.598 10.7205 110.04 10.4759L110.659 9.19189C111.351 9.48093 111.976 9.87003 112.535 10.3592C113.093 10.8483 113.539 11.4153 113.874 12.0601C114.209 12.7048 114.376 13.4219 114.376 14.2112C114.376 14.4446 114.365 14.6614 114.343 14.8615C114.767 15.384 115.197 15.7731 115.632 16.0288C116.067 16.2845 116.536 16.4123 117.038 16.4123C117.608 16.4123 118.043 16.2345 118.344 15.8787C118.646 15.5119 118.796 14.9894 118.796 14.3112C118.796 13.6665 118.662 13.1051 118.395 12.627C118.138 12.1379 117.786 11.721 117.34 11.3764C116.904 11.0206 116.408 10.7205 115.85 10.4759L116.469 9.19189C117.161 9.48093 117.786 9.87003 118.344 10.3592C118.902 10.8483 119.349 11.4153 119.684 12.0601C120.019 12.7048 120.186 13.4219 120.186 14.2112C120.186 15.3118 119.907 16.1733 119.349 16.7959C118.791 17.4184 117.982 17.7297 116.921 17.7297C116.307 17.7297 115.749 17.5963 115.247 17.3295C114.756 17.0627 114.315 16.7069 113.924 16.2623C113.667 16.7292 113.299 17.0905 112.819 17.3462C112.35 17.6019 111.781 17.7297 111.111 17.7297C110.431 17.7297 109.828 17.5741 109.303 17.2628C108.779 16.9404 108.31 16.518 107.897 15.9955C107.528 16.5402 107.026 16.9682 106.39 17.2795C105.765 17.5796 105.034 17.7297 104.197 17.7297C103.315 17.7297 102.545 17.5574 101.886 17.2128C101.239 16.8681 100.731 16.3901 100.362 15.7787C100.005 15.1561 99.8267 14.428 99.8267 13.5942ZM101.216 13.4441C101.216 14.3112 101.467 15.0227 101.97 15.5786C102.472 16.1344 103.214 16.4123 104.197 16.4123C105.19 16.4123 105.938 16.1455 106.44 15.6119C106.942 15.0672 107.194 14.3724 107.194 13.5275C107.194 12.9717 107.082 12.4658 106.859 12.01C106.647 11.5542 106.317 11.1929 105.871 10.9261C105.436 10.6482 104.877 10.5093 104.197 10.5093C103.516 10.5093 102.952 10.6482 102.506 10.9261C102.07 11.1929 101.747 11.5487 101.534 11.9934C101.322 12.438 101.216 12.9216 101.216 13.4441Z" fill="#FF7F11"/>
<path d="M105.524 35.2124V36.0912H103.88C103.94 36.1967 103.982 36.308 104.006 36.4251C104.042 36.5423 104.06 36.6653 104.06 36.7942C104.06 37.2043 103.964 37.5851 103.771 37.9366C103.579 38.2764 103.313 38.54 102.976 38.7275C103.362 38.9501 103.669 39.2664 103.898 39.6765C104.127 40.0749 104.241 40.5201 104.241 41.0122C104.241 41.8324 103.813 42.5354 102.958 43.1213C102.115 43.7071 101.097 44 99.9041 44C99.2054 44 98.6091 43.8125 98.1151 43.4376C97.6212 43.0627 97.3742 42.6057 97.3742 42.0667C97.3742 41.6332 97.585 41.2641 98.0067 40.9595C98.4284 40.6432 98.9404 40.485 99.5427 40.485C100.037 40.485 100.561 40.649 101.115 40.9771C101.669 41.2934 102.199 41.7445 102.705 42.3304C102.91 42.1312 103.067 41.9203 103.175 41.6977C103.283 41.4633 103.338 41.2349 103.338 41.0122C103.338 40.6842 103.223 40.3678 102.994 40.0632C102.765 39.7468 102.458 39.4773 102.073 39.2547C101.844 39.3133 101.561 39.3602 101.223 39.3953C100.898 39.4188 100.519 39.4305 100.085 39.4305C99.4825 39.4305 98.9705 39.3485 98.5488 39.1844C98.1272 39.0087 97.9163 38.7978 97.9163 38.5517C97.9163 38.3525 98.073 38.1885 98.3862 38.0596C98.7115 37.919 99.097 37.8487 99.5427 37.8487C99.88 37.8487 100.235 37.8897 100.609 37.9717C100.994 38.042 101.392 38.1475 101.802 38.2881C102.211 38.1006 102.536 37.8721 102.777 37.6027C103.03 37.3332 103.157 37.0637 103.157 36.7942C103.157 36.6653 103.133 36.5423 103.085 36.4251C103.036 36.308 102.97 36.1967 102.886 36.0912H96.543V35.2124H105.524ZM98.2778 42.1546C98.2778 42.4241 98.4344 42.6526 98.7476 42.84C99.0729 43.0275 99.4584 43.1213 99.9041 43.1213C100.266 43.1213 100.633 43.0802 101.006 42.9982C101.392 42.9045 101.777 42.7697 102.163 42.594C101.681 42.1956 101.211 41.891 100.753 41.6801C100.308 41.4692 99.9041 41.3637 99.5427 41.3637C99.1933 41.3637 98.8922 41.4399 98.6392 41.5922C98.3982 41.7445 98.2778 41.932 98.2778 42.1546Z" fill="#98A0A0"/>
<path d="M102.811 33.9822C102.811 33.3026 103.058 32.7226 103.552 32.2422C104.046 31.7619 104.642 31.5217 105.341 31.5217C106.04 31.5217 106.636 31.7619 107.13 32.2422C107.624 32.7226 107.871 33.3026 107.871 33.9822V35.2124H109.678V36.0912H107.871V44H106.967V36.0912H105.16V35.2124H106.967V33.9822C106.967 33.5487 106.805 33.1796 106.48 32.875C106.166 32.5586 105.787 32.4004 105.341 32.4004C104.895 32.4004 104.516 32.5586 104.203 32.875C103.877 33.1796 103.715 33.5487 103.715 33.9822V35.2124H102.811V33.9822Z" fill="#98A0A0"/>
<path opacity="0.4" d="M47.952 2.62708C48.7245 2.62708 49.3543 2.76438 49.8415 3.03898C50.3288 3.30214 50.7209 3.66827 51.018 4.13738C51.4339 3.57674 51.8855 3.18772 52.3727 2.97033C52.86 2.74149 53.4542 2.62708 54.1553 2.62708C55.0703 2.62708 55.8428 2.83875 56.4726 3.26209C57.1143 3.67399 57.6015 4.23464 57.9343 4.94402C58.2789 5.65341 58.4512 6.44861 58.4512 7.32962C58.4512 8.46235 58.2135 9.4349 57.7382 10.2473C57.2747 11.0596 56.5914 11.8033 55.6883 12.4784L54.7435 11.4315C55.3734 10.9967 55.8844 10.4589 56.2765 9.8182C56.6806 9.16602 56.8826 8.33649 56.8826 7.32962C56.8826 6.666 56.7697 6.07675 56.5439 5.56188C56.3181 5.03556 55.9972 4.62366 55.5813 4.32617C55.1773 4.01724 54.696 3.86278 54.1375 3.86278C53.6384 3.86278 53.2284 3.94859 52.9075 4.12022C52.5985 4.2804 52.349 4.5264 52.1588 4.85821C52.0044 5.12137 51.9033 5.4303 51.8558 5.78499C51.8083 6.13968 51.7845 6.65456 51.7845 7.32962V12.3411H50.2515V6.91772C50.2515 6.32275 50.204 5.82504 50.1089 5.42458C50.0257 5.02412 49.8653 4.70375 49.6276 4.46347C49.4494 4.26896 49.2236 4.12022 48.9503 4.01724C48.6769 3.91427 48.3383 3.86278 47.9342 3.86278C47.5658 3.86278 47.245 3.92571 46.9716 4.05157C46.6983 4.16599 46.4666 4.32045 46.2765 4.51496C46.0507 4.75524 45.8843 5.06416 45.7773 5.44174C45.6704 5.81932 45.6169 6.3628 45.6169 7.07218V12.3411H44.0839V7.32962C44.0839 6.67744 44.0602 6.16829 44.0126 5.80215C43.9651 5.42458 43.8581 5.10993 43.6918 4.85821C43.2877 4.19459 42.6579 3.86278 41.8023 3.86278C41.2556 3.86278 40.7684 4.01724 40.3406 4.32617C39.9247 4.62366 39.5979 5.03556 39.3602 5.56188C39.1225 6.07675 39.0037 6.666 39.0037 7.32962C39.0037 8.37082 39.2117 9.21178 39.6276 9.85252C40.0554 10.4933 40.5604 11.0081 41.1427 11.3972L40.1089 12.4784C39.5979 12.0779 39.1404 11.6431 38.7363 11.174C38.3323 10.6935 38.0114 10.1443 37.7737 9.52643C37.548 8.89714 37.4351 8.16487 37.4351 7.32962C37.4351 6.40284 37.6133 5.59048 37.9698 4.89254C38.3382 4.18315 38.8551 3.62823 39.5206 3.22777C40.1861 2.82731 40.9704 2.62708 41.8736 2.62708C42.6341 2.62708 43.2461 2.77582 43.7096 3.0733C44.1731 3.35935 44.5533 3.71976 44.8504 4.15454C45.5991 3.13623 46.633 2.62708 47.952 2.62708Z" fill="#FF7F11"/>
<path d="M7.09519 29.9415V30.3206L6.91082 30.4955C6.67147 30.7093 6.5518 31.0041 6.5518 31.3798C6.68118 31.5742 6.95287 31.7135 7.36688 31.7977C7.71621 31.8819 7.94586 31.9856 8.05583 32.1087C8.36634 32.4197 8.51836 32.925 8.51189 33.6247C8.46014 34.9658 8.16903 36.1417 7.63858 37.1524C7.134 38.1565 6.43536 39.0182 5.54264 39.7374C4.77284 40.3528 3.94481 40.6606 3.05857 40.6606C2.1982 40.6347 1.5416 40.3561 1.08877 39.8248C0.331905 38.9502 -0.0303563 37.7419 0.00198841 36.2C0.0408021 35.0338 0.296326 33.683 0.768559 32.1475C1.05319 31.1887 1.22139 30.6866 1.27314 30.6412C1.38958 30.557 1.47367 30.5797 1.52543 30.7093C1.5513 30.8 1.53836 30.9522 1.48661 31.166C1.18257 32.4164 0.975565 33.4627 0.865593 34.305C0.716807 35.5359 0.917344 36.5628 1.4672 37.3856C1.66127 37.6771 1.92973 37.9104 2.27259 38.0853C2.91301 38.4092 3.69252 38.4222 4.61111 38.1242C5.91784 37.6836 6.87848 36.8414 7.49303 35.5975C7.66122 35.2476 7.74532 34.9528 7.74532 34.7131V34.4896C7.56419 34.3147 7.27309 34.1786 6.87201 34.0814C6.12161 33.9583 5.68819 33.5599 5.57175 32.8861C5.50059 32.4715 5.52 31.9467 5.62997 31.3118C5.82404 30.7028 6.18954 30.1456 6.72646 29.6403C6.74587 29.6468 6.81056 29.6986 6.92053 29.7958L7.09519 29.9415Z" fill="#4D82F7"/>
<path d="M9.17172 31.1272L9.22994 31.1855C9.06822 31.7815 8.85798 32.6885 8.59922 33.9065C8.51512 34.36 8.47307 34.7844 8.47307 35.1796C8.47307 36.5466 8.92267 37.4763 9.82185 37.9687C10.3846 38.2732 11.0024 38.4254 11.6752 38.4254C12.7102 38.4254 13.7097 38.1144 14.6736 37.4925C15.6957 36.8446 16.3587 36.0413 16.6628 35.0824C16.7145 34.739 16.7404 34.3341 16.7404 33.8676C16.7404 33.7122 16.721 33.1485 16.6822 32.1767C16.6563 31.49 16.6628 30.9328 16.7016 30.5052C16.8892 29.7861 17.1415 29.0572 17.4584 28.3186C17.549 28.2215 17.6363 28.215 17.7204 28.2992C17.7463 28.5389 17.7301 29.1803 17.6719 30.2234C17.659 31.0073 17.646 31.7912 17.6331 32.5751C17.5943 33.5016 17.4908 34.2499 17.3226 34.82C16.8439 36.349 16.1194 37.6771 15.149 38.8044C14.3533 39.5624 13.48 40.1066 12.5291 40.4371C11.9857 40.6249 11.4294 40.7189 10.8601 40.7189C10.2262 40.7189 9.6763 40.599 9.21053 40.3593C8.1755 39.679 7.65799 38.4449 7.65799 36.6567C7.65799 35.6461 7.82295 34.5252 8.15286 33.2943C8.15286 33.1971 8.18197 33.0772 8.24019 32.9347C8.30488 32.7857 8.33723 32.6788 8.33723 32.614C8.44073 32.2836 8.63803 31.8074 8.92914 31.1855C9.02617 31.0494 9.10703 31.03 9.17172 31.1272Z" fill="#4D82F7"/>
<path d="M192.387 26.6805C192.387 26.9898 192.493 27.2569 192.704 27.4818C192.93 27.6927 193.192 27.7982 193.488 27.7982C193.799 27.7982 194.06 27.6927 194.272 27.4818C194.498 27.2569 194.611 26.9898 194.611 26.6805C194.611 26.3852 194.498 26.1322 194.272 25.9213C194.06 25.7104 193.799 25.605 193.488 25.605C193.192 25.605 192.93 25.7104 192.704 25.9213C192.493 26.1322 192.387 26.3852 192.387 26.6805ZM189.675 27.2288H189.505C189.209 27.7489 188.82 28.1567 188.34 28.4519C187.874 28.7471 187.373 28.8948 186.836 28.8948C185.847 28.8948 185 28.4941 184.294 27.6927C183.588 26.8773 183.234 25.9002 183.234 24.7614C183.234 23.2009 183.785 21.8442 184.887 20.6913C186.003 19.5385 187.38 18.8848 189.018 18.7301L188.806 16.2206V15.1029H190.438V16.2206L190.205 18.8145C191.193 18.8988 192.097 19.0886 192.916 19.3839C193.75 19.6791 194.456 20.0798 195.035 20.5859L194.082 21.5138C193.517 21.0498 192.853 20.6913 192.09 20.4383C191.327 20.1852 190.508 20.0587 189.633 20.0587C188.545 20.0587 187.585 20.2907 186.751 20.7546C185.932 21.2045 185.381 21.802 185.099 22.5471H195.437V23.939H184.739C184.696 24.0093 184.661 24.1147 184.633 24.2553C184.619 24.3959 184.612 24.5646 184.612 24.7614C184.612 25.5206 184.83 26.1673 185.268 26.7016C185.706 27.2358 186.229 27.5029 186.836 27.5029C187.472 27.5029 188.008 27.2358 188.446 26.7016C188.884 26.1673 189.103 25.5206 189.103 24.7614H190.12C190.12 25.3519 190.233 25.865 190.459 26.3009C190.685 26.7226 190.988 27.0038 191.37 27.1444L191.285 26.6805C191.285 26.0759 191.497 25.5557 191.921 25.1199C192.358 24.6841 192.881 24.4662 193.488 24.4662C194.11 24.4662 194.632 24.6841 195.056 25.1199C195.494 25.5557 195.713 26.0759 195.713 26.6805C195.713 27.285 195.459 27.8052 194.95 28.241C194.456 28.6768 193.856 28.8948 193.149 28.8948C192.358 28.8948 191.652 28.7471 191.031 28.4519C190.423 28.1567 189.972 27.7489 189.675 27.2288Z" fill="#2961AD"/>
<path d="M168.017 39.3741C167.024 39.3741 166.289 39.151 165.812 38.7046C165.336 38.2477 165.098 37.6632 165.098 36.9511C165.098 36.2604 165.341 35.7131 165.828 35.3093C166.324 34.8948 167.024 34.6876 167.926 34.6876C168.706 34.6876 169.395 34.8417 169.993 35.1499C170.591 35.458 171.113 35.8937 171.559 36.457C171.762 36.1063 171.909 35.7237 172 35.3093C172.091 34.8948 172.137 34.4644 172.137 34.0181C172.137 33.1254 171.985 32.4771 171.681 32.0733C171.377 31.6695 170.961 31.4676 170.434 31.4676C169.988 31.4676 169.623 31.6376 169.339 31.9777C169.056 32.3071 168.878 32.7534 168.807 33.3167H167.606C167.535 32.7109 167.348 32.254 167.044 31.9458C166.75 31.627 166.39 31.4676 165.964 31.4676C165.559 31.4676 165.26 31.5738 165.067 31.7864C164.875 31.9883 164.779 32.2593 164.779 32.5993C164.779 32.8013 164.804 33.0085 164.855 33.221C164.915 33.4229 164.976 33.5877 165.037 33.7152L163.882 34.0978C163.79 33.8959 163.709 33.6674 163.638 33.4123C163.567 33.1466 163.532 32.8438 163.532 32.5037C163.532 32.0361 163.638 31.6323 163.851 31.2922C164.064 30.9415 164.348 30.6758 164.703 30.4952C165.057 30.3039 165.448 30.2083 165.873 30.2083C166.4 30.2083 166.846 30.3198 167.211 30.543C167.576 30.7662 167.91 31.1328 168.214 31.6429C168.539 31.0478 168.909 30.6599 169.324 30.4792C169.74 30.2986 170.15 30.2083 170.556 30.2083C171.235 30.2083 171.782 30.3942 172.197 30.7662C172.613 31.1381 172.912 31.6163 173.094 32.2008C173.287 32.7853 173.383 33.3911 173.383 34.0181C173.383 34.5707 173.297 35.1605 173.125 35.7875C172.963 36.4039 172.674 36.9724 172.258 37.4931C172.451 37.8544 172.613 38.2264 172.745 38.609C172.877 38.9915 172.983 39.3901 173.064 39.8045L171.802 40.0596C171.681 39.4219 171.513 38.8534 171.301 38.3539C170.905 38.6515 170.434 38.8959 169.887 39.0872C169.35 39.2785 168.726 39.3741 168.017 39.3741ZM166.329 36.9352C166.329 37.3178 166.466 37.6207 166.74 37.8438C167.024 38.067 167.475 38.1786 168.093 38.1786C168.681 38.1786 169.192 38.1095 169.628 37.9713C170.074 37.8226 170.454 37.6207 170.768 37.3656C170.444 36.898 170.044 36.5314 169.567 36.2657C169.101 35.9894 168.554 35.8512 167.926 35.8512C167.409 35.8512 167.013 35.9469 166.74 36.1382C166.466 36.3295 166.329 36.5951 166.329 36.9352Z" fill="#2961AD"/>
</g>
</svg>
