<svg width="99" height="103" viewBox="0 0 99 103" fill="none" xmlns="http://www.w3.org/2000/svg">
<path fill-rule="evenodd" clip-rule="evenodd" d="M30.4825 30.578C35.7097 30.622 40.1901 33.7407 42.079 38.6165C43.9238 43.4044 42.7818 48.5876 38.7845 52.0138C36.105 54.298 34.963 57.1532 34.6116 60.5354C34.2162 63.9617 31.3171 66.6411 28.0227 66.6851C24.5526 66.729 21.6095 64.2691 21.0385 60.7551C20.9946 60.4476 20.8628 60.0523 20.9946 59.7887C21.1703 59.4373 21.5656 58.9102 21.8292 58.9102C22.2245 58.9102 22.7077 59.2616 22.9273 59.613C23.1469 59.9205 23.0591 60.4037 23.1469 60.799C23.6301 63.0831 25.7385 64.7523 27.9788 64.6205C30.3947 64.5327 32.3274 62.6878 32.6349 60.3158C32.7228 59.3055 32.8985 58.3392 33.1181 57.3289C33.6452 54.7372 35.0508 52.6288 37.0714 50.9157C39.1359 49.2465 40.278 47.0941 40.7173 44.4586C41.6397 39.0996 37.5985 33.5211 32.1956 32.7743C28.5498 32.2911 25.4311 33.2575 22.8834 36.0248C22.4441 36.508 22.0049 36.9034 21.3899 36.2884C20.8189 35.7613 20.9067 35.1903 21.3899 34.6192C23.3226 32.1154 26.8806 30.5341 30.4825 30.578Z" fill="#F58B71"/>
<path fill-rule="evenodd" clip-rule="evenodd" d="M30.4825 30.578C35.7097 30.622 40.1901 33.7407 42.079 38.6165C43.9238 43.4044 42.7818 48.5876 38.7845 52.0138C36.105 54.298 34.963 57.1532 34.6116 60.5354C34.2162 63.9617 31.3171 66.6411 28.0227 66.6851C24.5526 66.729 21.6095 64.2691 21.0385 60.7551C20.9946 60.4476 20.8628 60.0523 20.9946 59.7887C21.1703 59.4373 21.5656 58.9102 21.8292 58.9102C22.2245 58.9102 22.7077 59.2616 22.9273 59.613C23.1469 59.9205 23.0591 60.4037 23.1469 60.799C23.6301 63.0831 25.7385 64.7523 27.9788 64.6205C30.3947 64.5327 32.3274 62.6878 32.6349 60.3158C32.7228 59.3055 32.8985 58.3392 33.1181 57.3289C33.6452 54.7372 35.0508 52.6288 37.0714 50.9157C39.1359 49.2465 40.278 47.0941 40.7173 44.4586C41.6397 39.0996 37.5985 33.5211 32.1956 32.7743C28.5498 32.2911 25.4311 33.2575 22.8834 36.0248C22.4441 36.508 22.0049 36.9034 21.3899 36.2884C20.8189 35.7613 20.9067 35.1903 21.3899 34.6192C23.3226 32.1154 26.8806 30.5341 30.4825 30.578Z" stroke="#F58B71" stroke-width="0.0135276"/>
<path fill-rule="evenodd" clip-rule="evenodd" d="M30.4209 50.3596C30.4209 48.9539 30.6845 48.4268 31.4312 48.4707C32.705 48.5586 32.3976 49.5689 32.4854 50.3156C32.749 53.4344 30.7284 56.2895 27.9611 56.9045C26.4676 57.1681 25.1937 56.8606 24.2274 55.7624C23.2171 54.5325 22.9535 53.1269 23.6124 51.7213C24.0077 50.8427 24.6227 50.0521 25.2816 49.3932C26.3797 48.2511 26.4676 47.9876 25.5451 46.6698C25.3694 46.3623 25.1498 46.0548 24.9302 45.7913C22.9974 43.5511 23.5685 41.1351 24.9302 39.1585C27.1704 35.8201 32.0022 35.2051 35.077 37.7968C38.064 40.3445 38.2836 45.1763 35.4284 47.9876C35.1649 48.2511 34.8135 48.5586 34.4621 48.5586C34.1546 48.6025 33.5836 48.295 33.5396 47.9876C33.4079 47.6362 33.5396 47.0651 33.8032 46.8016C34.8135 45.7034 35.4724 44.4735 35.4724 42.9361C35.4284 40.608 33.5836 38.5435 31.2116 38.236C29.1031 37.9725 26.5554 39.5977 25.9405 41.5744C25.633 42.5408 25.8087 43.3753 26.3797 44.166C26.8629 44.9128 27.39 45.6156 27.8293 46.4062C28.5321 47.6801 28.4003 48.91 27.4339 50.0081C26.9508 50.5353 26.4676 51.0184 25.9844 51.5895C25.2376 52.4241 25.1498 53.6101 25.7208 54.3129C26.2919 55.0157 27.4339 55.1035 28.4882 54.4886C29.7181 53.7858 30.4648 52.2484 30.4209 50.3596Z" fill="#F58B71"/>
<path fill-rule="evenodd" clip-rule="evenodd" d="M30.4209 50.3596C30.4209 48.9539 30.6845 48.4268 31.4312 48.4707C32.705 48.5586 32.3976 49.5689 32.4854 50.3156C32.749 53.4344 30.7284 56.2895 27.9611 56.9045C26.4676 57.1681 25.1937 56.8606 24.2274 55.7624C23.2171 54.5325 22.9535 53.1269 23.6124 51.7213C24.0077 50.8427 24.6227 50.0521 25.2816 49.3932C26.3797 48.2511 26.4676 47.9876 25.5451 46.6698C25.3694 46.3623 25.1498 46.0548 24.9302 45.7913C22.9974 43.5511 23.5685 41.1351 24.9302 39.1585C27.1704 35.8201 32.0022 35.2051 35.077 37.7968C38.064 40.3445 38.2836 45.1763 35.4284 47.9876C35.1649 48.2511 34.8135 48.5586 34.4621 48.5586C34.1546 48.6025 33.5836 48.295 33.5396 47.9876C33.4079 47.6362 33.5396 47.0651 33.8032 46.8016C34.8135 45.7034 35.4724 44.4735 35.4724 42.9361C35.4284 40.608 33.5836 38.5435 31.2116 38.236C29.1031 37.9725 26.5554 39.5977 25.9405 41.5744C25.633 42.5408 25.8087 43.3753 26.3797 44.166C26.8629 44.9128 27.39 45.6156 27.8293 46.4062C28.5321 47.6801 28.4003 48.91 27.4339 50.0081C26.9508 50.5353 26.4676 51.0184 25.9844 51.5895C25.2376 52.4241 25.1498 53.6101 25.7208 54.3129C26.2919 55.0157 27.4339 55.1035 28.4882 54.4886C29.7181 53.7858 30.4648 52.2484 30.4209 50.3596Z" stroke="#F58B71" stroke-width="0.0135276"/>
<path fill-rule="evenodd" clip-rule="evenodd" d="M52.8363 53.9919C52.8363 59.7901 48.927 64.7538 43.2605 65.9398C42.2942 66.1594 41.2399 66.1594 40.2296 66.0276C39.8782 65.9837 39.3951 65.3687 39.3072 64.9734C39.2193 64.3584 39.7025 64.0949 40.3614 64.0949C48.0924 63.8752 52.5728 57.4182 50.1569 49.9508C49.9372 49.204 49.5858 48.5012 49.2784 47.7984C49.0148 47.1395 49.1027 46.6124 49.7615 46.261C50.4644 45.9535 50.9036 46.3049 51.1672 46.9638C52.2214 49.1601 52.8803 51.4882 52.8363 53.9919Z" fill="#F58B71"/>
<path fill-rule="evenodd" clip-rule="evenodd" d="M52.8363 53.9919C52.8363 59.7901 48.927 64.7538 43.2605 65.9398C42.2942 66.1594 41.2399 66.1594 40.2296 66.0276C39.8782 65.9837 39.3951 65.3687 39.3072 64.9734C39.2193 64.3584 39.7025 64.0949 40.3614 64.0949C48.0924 63.8752 52.5728 57.4182 50.1569 49.9508C49.9372 49.204 49.5858 48.5012 49.2784 47.7984C49.0148 47.1395 49.1027 46.6124 49.7615 46.261C50.4644 45.9535 50.9036 46.3049 51.1672 46.9638C52.2214 49.1601 52.8803 51.4882 52.8363 53.9919Z" stroke="#F58B71" stroke-width="0.0135276"/>
<path fill-rule="evenodd" clip-rule="evenodd" d="M48.7066 53.5416C48.6187 58.3295 44.6215 62.1071 39.9653 61.7118C39.2625 61.6678 38.8672 61.2725 38.8672 60.6575C38.8672 60.0426 39.2625 59.6912 39.9214 59.6912C40.6242 59.6472 41.371 59.6033 42.0738 59.3837C45.5439 58.5052 47.2131 55.2107 46.1589 51.477C46.0271 51.0378 45.8514 50.6424 45.6757 50.2032C45.4561 49.5004 45.5878 48.9293 46.3346 48.6219C47.0813 48.3583 47.4327 48.8854 47.6084 49.4125C48.0038 50.7742 48.3112 52.1799 48.7066 53.5416Z" fill="#F58B71"/>
<path fill-rule="evenodd" clip-rule="evenodd" d="M48.7066 53.5416C48.6187 58.3295 44.6215 62.1071 39.9653 61.7118C39.2625 61.6678 38.8672 61.2725 38.8672 60.6575C38.8672 60.0426 39.2625 59.6912 39.9214 59.6912C40.6242 59.6472 41.371 59.6033 42.0738 59.3837C45.5439 58.5052 47.2131 55.2107 46.1589 51.477C46.0271 51.0378 45.8514 50.6424 45.6757 50.2032C45.4561 49.5004 45.5878 48.9293 46.3346 48.6219C47.0813 48.3583 47.4327 48.8854 47.6084 49.4125C48.0038 50.7742 48.3112 52.1799 48.7066 53.5416Z" stroke="#F58B71" stroke-width="0.0135276"/>
<path fill-rule="evenodd" clip-rule="evenodd" d="M44.0065 53.6604C43.8747 55.8128 42.1616 57.4819 40.141 57.4819C39.3943 57.4819 38.9111 57.1305 38.8672 56.3838C38.8672 55.681 39.3504 55.4614 40.0093 55.4174C41.7224 55.2417 42.2934 54.2754 41.5027 52.738C41.1953 52.0791 41.1953 51.5959 41.8981 51.2445C42.557 50.8491 43.0841 51.2006 43.3476 51.8155C43.6551 52.3866 43.7869 53.0454 44.0065 53.6604Z" fill="#F58B71"/>
<path fill-rule="evenodd" clip-rule="evenodd" d="M44.0065 53.6604C43.8747 55.8128 42.1616 57.4819 40.141 57.4819C39.3943 57.4819 38.9111 57.1305 38.8672 56.3838C38.8672 55.681 39.3504 55.4614 40.0093 55.4174C41.7224 55.2417 42.2934 54.2754 41.5027 52.738C41.1953 52.0791 41.1953 51.5959 41.8981 51.2445C42.557 50.8491 43.0841 51.2006 43.3476 51.8155C43.6551 52.3866 43.7869 53.0454 44.0065 53.6604Z" stroke="#F58B71" stroke-width="0.0135276"/>
<path fill-rule="evenodd" clip-rule="evenodd" d="M38.6449 91.6262C44.4246 93.8253 50.7438 95.037 57.3633 95.037C65.5774 95.037 73.3523 93.1482 80.2047 89.8538C71.8149 96.1791 61.4045 99.9567 50.1156 99.9567C43.7037 99.9567 37.5752 98.7473 31.9456 96.5447L38.6449 91.6262ZM24.5907 83.5072C14.1493 74.9526 7.55145 62.3846 7.55145 48.3878C7.55145 22.6473 29.8658 1.73861 57.3633 1.73861C59.3839 1.73861 61.4045 1.87039 63.3812 2.09002C59.1643 0.904024 54.6838 0.289062 50.1156 0.289062C22.5741 0.289062 0.259766 22.6034 0.259766 50.1449C0.259766 67.7079 9.36297 83.1564 23.1171 92.0266L24.5907 83.5072Z" fill="#F47D5C"/>
<path d="M28.6043 80.376L21.6641 102.954L40.0251 85.9106L28.6043 80.376Z" fill="#377044"/>
<path fill-rule="evenodd" clip-rule="evenodd" d="M15.9298 49.2047C15.9298 70.4209 33.1048 87.5959 54.3209 87.5959C67.9639 87.5959 79.9653 80.4644 86.7759 69.7155H91.673C84.4191 82.8906 70.3979 91.8128 54.3209 91.8128C30.7767 91.8128 11.7129 72.749 11.7129 49.2047C11.7129 25.6605 30.7767 6.59668 54.3209 6.59668C70.3958 6.59668 84.4154 15.5165 91.6702 28.6888H86.7727C79.9615 17.9428 67.9617 10.8136 54.3209 10.8136C33.1048 10.8136 15.9298 27.9886 15.9298 49.2047Z" fill="#377044"/>
<path d="M74.9822 39.1155C74.9822 39.7744 74.8504 40.3894 74.5429 40.8725C74.2354 41.3997 73.8401 41.795 73.4008 42.1464C74.0158 42.8053 74.3233 43.6399 74.3233 44.6062C74.3233 45.3091 74.1476 45.924 73.7962 46.495C73.4887 47.0222 73.0055 47.5053 72.3905 47.8567C71.8195 48.2521 71.1167 48.5156 70.326 48.7353C69.4914 48.9549 68.6129 49.0427 67.6905 49.0427C66.5484 49.0427 65.4503 48.911 64.396 48.6035C63.3857 48.3399 62.4194 47.9007 61.5848 47.3736C60.7502 46.8025 60.0474 46.0997 59.4324 45.3091C58.8175 44.4745 58.3782 43.5081 58.0707 42.4539C57.9829 42.1464 57.895 41.8389 57.8511 41.5314C57.8072 41.2239 57.8072 40.9165 57.8072 40.609C57.8072 40.038 57.9389 39.5987 58.2464 39.3351C58.5539 39.1155 58.9492 38.9837 59.3885 38.9837C59.5642 38.9837 59.7399 38.9837 59.9156 39.0716C60.0913 39.1155 60.2231 39.1594 60.3109 39.2473L60.3549 39.7744C60.4427 40.7847 60.6623 41.7511 61.0577 42.5856C61.453 43.4202 61.9801 44.1231 62.5951 44.738C63.254 45.353 64.0007 45.8362 64.8792 46.1436C65.7138 46.495 66.6802 46.6268 67.7344 46.6268C68.8765 46.6268 69.7989 46.4511 70.4578 46.0119C71.1606 45.6165 71.4681 45.0894 71.4681 44.3866C71.4681 43.9913 71.3363 43.5959 71.0728 43.2885C70.8971 43.3324 70.7214 43.3763 70.5457 43.4202C70.326 43.4642 70.1503 43.4642 69.9746 43.4642C69.6232 43.4642 69.3157 43.3763 69.0522 43.1567C68.7886 42.9371 68.6568 42.4978 68.6568 41.8828C68.6568 41.8389 68.6568 41.7511 68.6568 41.6193C68.7008 41.5314 68.7008 41.4436 68.7008 41.3557L69.3597 41.2679C70.2821 41.18 70.9849 40.9165 71.4242 40.5651C71.9074 40.1697 72.127 39.6426 72.127 39.0277C72.127 38.6763 72.0831 38.3688 71.9074 38.1052C71.7317 37.8417 71.512 37.666 71.1606 37.5781C71.0728 37.7977 70.941 38.1052 70.8971 38.4127C70.8092 38.7202 70.7214 39.0716 70.6335 39.4669C70.5017 39.5108 70.326 39.5548 70.1503 39.5987C69.9746 39.6426 69.7111 39.6426 69.4036 39.6426C69.2279 39.6426 69.0083 39.5987 68.8325 39.5987C68.6568 39.5548 68.5251 39.5108 68.4372 39.4669L68.3054 38.8959C68.2615 38.5445 68.1297 38.237 67.9101 38.0174C67.7344 37.7977 67.4269 37.666 67.1194 37.666C66.768 37.666 66.5484 37.7977 66.3727 38.0174C66.197 38.1931 66.1091 38.4566 66.1091 38.7202C66.1091 39.423 66.4606 39.7744 67.1634 39.8183C67.2073 39.8183 67.2951 39.8183 67.383 39.7744C67.4269 39.7744 67.5148 39.7744 67.5587 39.7744C67.6026 39.9062 67.6466 40.038 67.6905 40.1697C67.6905 40.3015 67.7344 40.4772 67.7344 40.6529C67.7344 41.0482 67.6026 41.3118 67.383 41.5314C67.1634 41.7511 66.812 41.8828 66.3727 41.8828C65.582 41.8828 65.011 41.5754 64.6596 40.9604C64.44 41.2679 64.2203 41.4875 63.8689 41.6632C63.5615 41.795 63.21 41.8828 62.8586 41.8828C62.4194 41.8828 62.068 41.7511 61.8044 41.5314C61.5848 41.2679 61.4969 41.0043 61.4969 40.6529C61.4969 40.4772 61.4969 40.3015 61.5409 40.1258C61.5848 39.994 61.5848 39.8622 61.6287 39.7744C61.7166 39.7744 61.8044 39.7744 61.8483 39.7744C61.9362 39.8183 61.9801 39.8183 62.068 39.8183C62.3755 39.7744 62.639 39.6865 62.8147 39.5548C63.0343 39.3791 63.1222 39.1155 63.1222 38.7641C63.1222 38.4127 62.9904 38.1491 62.7708 37.9734C62.5072 37.7977 62.2437 37.666 61.9362 37.666H57.7632C57.4558 37.666 57.2361 37.622 57.0604 37.4463C56.8847 37.2706 56.7969 36.9631 56.7969 36.5678C56.7969 36.3921 56.8408 36.1725 56.8847 35.9968C56.9287 35.8211 56.9726 35.6893 57.0604 35.5575H62.1998C62.7708 35.5575 63.2979 35.6454 63.6932 35.865C64.0886 36.0846 64.44 36.3482 64.6596 36.6996C64.8792 36.3482 65.2306 36.0407 65.626 35.8211C66.0652 35.6014 66.5484 35.5136 67.0316 35.5136C67.6466 35.5136 68.1737 35.6454 68.569 35.9089C68.9204 36.1725 69.2279 36.48 69.4036 36.8314C69.5354 36.5239 69.6671 36.2164 69.7989 35.9529C69.9307 35.6893 70.1064 35.4697 70.2821 35.3379H70.6774C71.3363 35.3379 71.9074 35.4257 72.4345 35.6014C72.9616 35.8211 73.4008 36.0846 73.7962 36.436C74.1915 36.7874 74.4551 37.1828 74.6747 37.666C74.8943 38.1052 74.9822 38.5884 74.9822 39.1155Z" fill="#377044"/>
<path d="M86.5837 37.6582V48.6836C86.4958 48.7275 86.3201 48.7715 86.1005 48.7715C85.8809 48.8154 85.6612 48.8593 85.3977 48.8593C84.9145 48.8593 84.5192 48.7715 84.2556 48.5958C83.9481 48.4201 83.8164 48.0687 83.8164 47.4976V44.3789C83.4649 43.72 83.0257 43.1929 82.4986 42.7976C81.9715 42.4022 81.4444 42.1826 80.8733 42.1826C80.4341 42.1826 80.0387 42.3144 79.7752 42.5779C79.4677 42.8415 79.3359 43.149 79.3359 43.5443C79.3359 43.7639 79.3798 43.9396 79.4238 44.1153C79.4677 44.2471 79.5556 44.4228 79.6434 44.6424C79.5116 44.8182 79.3359 44.9939 79.1163 45.1256C78.8527 45.2574 78.5892 45.3453 78.2378 45.3453C77.7546 45.3453 77.3153 45.1696 76.9639 44.7742C76.6125 44.4228 76.4368 43.8957 76.4368 43.149C76.4368 42.5779 76.5247 42.0948 76.7443 41.6994C76.92 41.2602 77.2275 40.9088 77.5789 40.6452C77.9303 40.3377 78.3696 40.1181 78.8527 39.9863C79.292 39.8106 79.8191 39.7667 80.3901 39.7667C80.7855 39.7667 81.1369 39.8106 81.4883 39.8985C81.8397 39.9424 82.1472 40.0742 82.4547 40.2059C82.7621 40.3377 83.0257 40.5134 83.2453 40.6452C83.4649 40.8209 83.6407 40.9966 83.8164 41.1284V37.6582H75.8658C75.5583 37.6582 75.3387 37.6143 75.163 37.4386C74.9873 37.2629 74.8994 36.9554 74.8994 36.5601C74.8994 36.3844 74.9433 36.1648 74.9873 35.9891C75.0312 35.8134 75.119 35.6816 75.163 35.5498H88.4286C88.6921 35.5498 88.9117 35.6377 89.0875 35.8134C89.2632 35.9451 89.351 36.2526 89.351 36.604C89.351 36.8237 89.351 37.0433 89.3071 37.219C89.2632 37.3947 89.1753 37.5265 89.1314 37.6582H86.5837Z" fill="#377044"/>
<path d="M87.6597 37.6582C87.3522 37.6582 87.1326 37.6143 86.9569 37.4386C86.7812 37.2629 86.6934 36.9554 86.6934 36.5601C86.6934 36.3844 86.7373 36.1648 86.7812 35.9891C86.8251 35.8134 86.913 35.6816 86.9569 35.5498H89.3728C89.8121 35.5498 90.2074 35.6377 90.6028 35.8134C90.9542 35.9451 91.2616 36.2087 91.4373 36.5601C91.5691 36.2087 91.7888 35.9451 92.0962 35.7694C92.4037 35.6377 92.7112 35.5498 93.1065 35.5498H94.1607C94.4682 35.5498 94.6879 35.6377 94.8636 35.8134C95.0393 35.9451 95.1271 36.2526 95.1271 36.604C95.1271 36.8237 95.0832 37.0433 95.0393 37.219C94.9953 37.3947 94.9514 37.5265 94.8636 37.6582H93.3262C93.0187 37.6582 92.799 37.7461 92.6233 37.8779C92.4037 38.0536 92.3159 38.3171 92.3159 38.7564V48.9472C92.228 48.9911 92.0962 48.9911 91.8766 49.035C91.657 49.079 91.4373 49.079 91.1738 49.079C90.6906 49.079 90.2953 48.9911 89.9878 48.8154C89.7242 48.6397 89.5485 48.2883 89.5485 47.7612V38.3611C89.5485 38.1414 89.5046 38.0097 89.4168 37.8779C89.285 37.7461 89.1532 37.6582 88.9775 37.6582H87.6597Z" fill="#377044"/>
<path d="M73.7643 56.3813C73.6326 56.4692 73.4569 56.6449 73.2812 56.8206C73.1494 57.0402 72.9737 57.3038 72.8419 57.6113C72.6662 57.9187 72.5783 58.2701 72.4905 58.6655C72.3587 59.0169 72.3148 59.4122 72.3148 59.8515C72.3148 60.2907 72.4026 60.6861 72.4905 61.0375C72.5783 61.3889 72.7101 61.6964 72.8858 61.9599C73.0615 62.2235 73.2372 62.4431 73.4569 62.6627C73.6765 62.8384 73.8961 62.9702 74.1157 63.102C74.1157 63.1459 74.1597 63.1898 74.1597 63.2338C74.1597 63.2338 74.1597 63.2777 74.1597 63.3216C74.1597 63.5412 74.0718 63.7169 73.94 63.8487C73.8083 63.9805 73.6326 64.0244 73.4129 64.0244C73.1494 64.0244 72.8858 63.9366 72.5783 63.7609C72.2709 63.5852 72.0073 63.3216 71.7438 62.9702C71.4802 62.6627 71.2606 62.2235 71.1288 61.7403C70.9531 61.2571 70.8652 60.6861 70.8652 60.0711C70.8652 59.3683 70.9531 58.7094 71.1288 58.0944C71.3484 57.5234 71.568 56.9963 71.8755 56.557C72.1391 56.1617 72.4466 55.8103 72.798 55.5907C73.1055 55.371 73.4129 55.2393 73.6765 55.2393H74.555C74.9064 55.2393 75.0821 55.415 75.0821 55.8103C75.0821 55.8981 75.0382 56.0299 75.0382 56.1178C74.9943 56.2056 74.9943 56.2935 74.9503 56.3813H73.7643Z" fill="#373435"/>
<path d="M76.5524 56.3813V57.9187C76.5524 58.0944 76.5085 58.2701 76.5085 58.4458C76.5085 58.6655 76.4646 58.8412 76.4646 59.0608C76.4646 59.2365 76.4207 59.4122 76.4207 59.544C76.3767 59.7197 76.3767 59.8515 76.3328 59.9393C76.5964 59.6758 76.8599 59.4122 77.1674 59.1487C77.5188 58.8851 77.8263 58.6655 78.1777 58.4458C78.5291 58.2262 78.8805 58.0066 79.2758 57.8309C79.6273 57.6991 79.9787 57.5673 80.3301 57.4795C80.5058 57.5673 80.6375 57.6552 80.8132 57.8309C80.945 58.0066 81.0768 58.1823 81.1207 58.358C81.0768 58.5776 80.989 58.7972 80.9011 59.0608C80.8572 59.2804 80.7693 59.544 80.7254 59.8515C80.6815 60.1589 80.6375 60.4664 80.5936 60.8618C80.5497 61.2132 80.5497 61.6524 80.5497 62.0917C80.5497 62.487 80.5497 62.8384 80.5936 63.1459C80.6375 63.4534 80.6815 63.7169 80.7254 64.0244C80.6815 64.1123 80.5936 64.1562 80.4618 64.2001C80.374 64.288 80.2422 64.288 80.1104 64.288C79.9347 64.288 79.803 64.288 79.6712 64.2001C79.5394 64.1123 79.4076 64.0244 79.3198 63.8487C79.2319 63.7169 79.1441 63.4973 79.1001 63.2338C79.0562 62.9702 79.0123 62.6188 79.0123 62.2235C79.0123 61.8721 79.0562 61.5206 79.1001 61.1692C79.1441 60.8618 79.188 60.5543 79.2758 60.2468C79.3637 59.9832 79.4515 59.7197 79.4955 59.5001C79.5833 59.2804 79.6712 59.1047 79.759 58.973C79.4515 59.1047 79.1441 59.2365 78.8366 59.4561C78.5291 59.6318 78.2656 59.8515 77.9581 60.115C77.6945 60.3347 77.387 60.5982 77.1235 60.9057C76.8599 61.1692 76.5964 61.4328 76.4207 61.6964C76.2889 61.7403 76.201 61.7403 76.1132 61.7403C75.8936 61.7403 75.6739 61.6964 75.4982 61.6085C75.3225 61.5206 75.1468 61.3889 75.1029 61.2571V56.3813H74.1804C73.829 56.3813 73.6973 56.2056 73.6973 55.8103C73.6973 55.6785 73.6973 55.5907 73.6973 55.5028C73.7412 55.415 73.7412 55.3271 73.7851 55.2393H81.9114C82.2628 55.2393 82.4385 55.415 82.4385 55.8103C82.4385 55.8981 82.3946 56.0299 82.3946 56.1178C82.3507 56.2056 82.3507 56.2935 82.3067 56.3813H76.5524Z" fill="#373435"/>
<path d="M82.5706 60.0711C82.5706 59.2365 82.7024 58.4898 82.9659 57.8748C83.2295 57.2598 83.493 56.7767 83.8444 56.3813H81.5164C81.165 56.3813 80.9893 56.2056 80.9893 55.8103C80.9893 55.6785 80.9893 55.5907 80.9893 55.5028C81.0332 55.415 81.0771 55.3271 81.0771 55.2393H86.3921C86.7435 55.2393 86.9192 55.415 86.9192 55.8103C86.9192 55.8981 86.9192 56.0299 86.8753 56.1178C86.8753 56.2056 86.8314 56.2935 86.7875 56.3813H85.4258C85.2501 56.4692 85.1183 56.6449 84.9426 56.8645C84.7669 57.0402 84.6351 57.3038 84.5033 57.6113C84.3715 57.9187 84.2398 58.2262 84.1519 58.6215C84.0641 58.973 84.0201 59.3683 84.0201 59.8075C84.0201 60.2468 84.108 60.6861 84.1958 61.0375C84.2837 61.3889 84.4155 61.6964 84.5912 61.9599C84.7669 62.2674 84.9426 62.487 85.1622 62.6627C85.3818 62.8384 85.6015 62.9702 85.8211 63.102C85.865 63.1459 85.865 63.1898 85.865 63.2338C85.865 63.2338 85.865 63.2777 85.865 63.3216C85.865 63.5412 85.7772 63.7169 85.6454 63.8487C85.5136 63.9805 85.3379 64.0244 85.1183 64.0244C84.8547 64.0244 84.5912 63.9366 84.2837 63.7609C83.9762 63.5852 83.7127 63.3216 83.4491 63.0141C83.1855 62.6627 82.9659 62.2235 82.7902 61.7403C82.6584 61.2571 82.5706 60.6861 82.5706 60.0711Z" fill="#373435"/>
<path d="M92.4735 63.8076C92.0343 63.5002 91.595 63.1927 91.1557 62.8852C90.7165 62.6216 90.2772 62.3581 89.838 62.0945C89.3548 61.831 88.9155 61.5674 88.4323 61.3478C87.9052 61.1282 87.4221 60.8646 86.851 60.645C86.8071 60.5571 86.7632 60.4254 86.7192 60.2497C86.6753 60.0739 86.6753 59.8982 86.6753 59.6786C86.6753 59.5908 86.6753 59.5029 86.6753 59.4151C86.6753 59.3272 86.7192 59.2394 86.7192 59.1954L87.6417 58.9758C88.3006 58.844 88.8277 58.6244 89.1791 58.3608C89.5305 58.0973 89.7062 57.7898 89.7062 57.3945C89.7062 57.2188 89.7062 57.087 89.6623 56.9991C89.6183 56.8674 89.5744 56.7795 89.4866 56.7356C89.223 56.9113 88.9595 57.1309 88.608 57.2627C88.2566 57.4384 87.9052 57.5263 87.466 57.5263C86.9389 57.5263 86.4996 57.3945 86.1482 57.1309C85.7968 56.8674 85.6211 56.516 85.6211 56.1206C85.6211 55.8131 85.7089 55.5935 85.8846 55.4178C86.0604 55.286 86.28 55.1982 86.4996 55.1982C86.6314 55.1982 86.7632 55.2421 86.8949 55.286C86.8949 55.6374 86.9828 55.8571 87.1146 56.0328C87.2903 56.1646 87.5099 56.2524 87.7295 56.2524C88.0809 56.2524 88.3884 56.1646 88.6959 55.9449C89.0034 55.7253 89.3548 55.4617 89.794 55.0664C89.9697 55.1982 90.1455 55.33 90.2772 55.5057C90.4529 55.6374 90.6286 55.8131 90.7604 56.0328C90.8922 56.2085 90.98 56.4281 91.0679 56.6477C91.1557 56.9113 91.1997 57.1309 91.1997 57.3945C91.1997 57.7459 91.1118 58.0534 90.98 58.3608C90.8483 58.6244 90.6726 58.888 90.409 59.1076C90.1894 59.2833 89.9258 59.459 89.5744 59.6347C89.223 59.7665 88.8716 59.8543 88.5202 59.9422C88.7838 60.0739 89.0912 60.2057 89.4426 60.3814C89.7501 60.5571 90.1015 60.7328 90.409 60.9525C90.7604 61.1282 91.0679 61.3039 91.3314 61.5235C91.6389 61.6992 91.9025 61.8749 92.166 62.0945C92.1221 61.7871 92.0782 61.4356 92.0782 61.0842C92.0343 60.7328 92.0343 60.4254 92.0343 60.1618V56.2963C92.0343 56.0328 92.1221 55.7692 92.2978 55.5496C92.4735 55.33 92.7371 55.2421 93.0885 55.2421H94.8016C95.1091 55.2421 95.2848 55.4178 95.2848 55.8131C95.2848 55.901 95.2848 56.0328 95.2848 56.1206C95.2408 56.2085 95.2408 56.2963 95.1969 56.3842H93.4838V63.588C93.352 63.7637 93.0446 63.8516 92.6931 63.8516C92.6053 63.8516 92.5614 63.8516 92.4735 63.8076Z" fill="#373435"/>
<path d="M94.3836 56.3813C94.0321 56.3813 93.8564 56.2056 93.8564 55.8103C93.8564 55.6785 93.8564 55.5907 93.9004 55.5028C93.9004 55.415 93.9443 55.3271 93.9882 55.2393H95.4817C95.7453 55.2393 96.0088 55.2832 96.1845 55.415C96.4041 55.5028 96.5798 55.6785 96.6677 55.8542C96.7555 55.6346 96.8434 55.5028 97.0191 55.371C97.1948 55.2832 97.4144 55.2393 97.6341 55.2393H98.4247C98.6004 55.2393 98.7322 55.2832 98.8201 55.371C98.9079 55.4589 98.9518 55.5907 98.9518 55.8103C98.9518 55.8981 98.9518 56.0299 98.9079 56.1178C98.9079 56.2056 98.864 56.2935 98.8201 56.3813H97.7658C97.5901 56.3813 97.4144 56.4253 97.3266 56.5131C97.1948 56.601 97.1509 56.7767 97.1509 57.0402V63.8048C97.063 63.8487 97.0191 63.8487 96.8873 63.8926C96.7995 63.8926 96.6677 63.8926 96.5359 63.8926C96.2724 63.8926 96.0967 63.8487 95.921 63.7609C95.7892 63.673 95.7013 63.4973 95.7013 63.2338V56.8206C95.7013 56.5131 95.5696 56.3813 95.2621 56.3813H94.3836Z" fill="#373435"/>
</svg>
