<svg xmlns="http://www.w3.org/2000/svg" width="130" height="130" fill="none" xmlns:v="https://vecta.io/nano"><circle cx="65" cy="65" r="65" fill="#42b2c6"/><mask id="A" maskUnits="userSpaceOnUse" x="0" y="0" width="130" height="130" mask-type="alpha"><circle cx="65" cy="65" r="65" fill="#69cbdc"/></mask><g mask="url(#A)"><path d="M30.805-2.1l.001.002.325.479.924 1.363 3.312 4.895 10.179 15.135 10.543 15.92 3.772 5.885 1.953 3.342c.101.219.138.463.106.703-.127.956-.654 1.789-1.282 2.483-.638.704-1.469 1.362-2.383 1.97-1.831 1.215-4.166 2.337-6.425 3.285l-6.183 2.309-1.497.487.924 2.41 3.004 6.676c.591 1.098.253 2.174-.335 2.965-.554.745-1.425 1.399-2.374 1.972-1.926 1.162-4.648 2.262-7.354 3.204l-6.979 2.165 2.356.804c3.452 1.19 7.498 2.645 9.638 3.632 2.228 1.028 3.328 2.289 3.407 3.715a2.89 2.89 0 0 1-.359 1.549c-.097.177-.197.319-.277.42a2.61 2.61 0 0 1-.106.126l-.017.019a3.14 3.14 0 0 0-.047.058 6.14 6.14 0 0 0-.208.282 9.05 9.05 0 0 0-.671 1.134c-.495.99-.981 2.387-.981 4.05l.028 1.907c.037 1.844.085 4.253-.029 6.638-.159 3.3-.636 6.95-2.099 9.329-.364.591-.968.949-1.505 1.183-.568.247-1.255.437-2.006.588-1.506.302-3.459.483-5.663.581-4.42.197-10.043.065-15.55-.194-5.515-.26-10.947-.649-14.997-.973l-4.884-.414-1.364-.125-.36-.034-.063-.006h-28.297c-.704 0-1.275-.57-1.275-1.274V-.109c0-.694.555-1.26 1.249-1.274l62.77-1.275c.431-.009.838.201 1.08.558z" fill="#fff"/><path fill-rule="evenodd" d="M71.957 54.962c-.802.802-.757 2.104-.057 2.996 1.674 2.13 2.672 4.816 2.672 7.735a12.47 12.47 0 0 1-2.333 7.283c-.64.895-.652 2.148.126 2.926.784.784 2.068.788 2.748-.089a16.46 16.46 0 0 0 3.459-10.12c0-4.082-1.479-7.818-3.931-10.701-.694-.816-1.927-.788-2.684-.03zm7.306 25.022c-.704.848-.71 2.105.069 2.884s2.059.786 2.778-.056a26.27 26.27 0 0 0 6.309-17.118 26.28 26.28 0 0 0-6.779-17.654c-.727-.806-1.973-.788-2.741-.02-.794.794-.77 2.08-.029 2.924a22.29 22.29 0 0 1 5.549 14.75c0 5.433-1.936 10.414-5.157 14.29zm7.486 7.48c-.73.827-.733 2.087.047 2.867s2.056.784 2.793-.041c5.836-6.531 9.383-15.149 9.383-24.597 0-9.698-3.738-18.523-9.853-25.112-.742-.8-1.995-.787-2.767-.015-.79.79-.774 2.07-.019 2.894 5.365 5.858 8.639 13.663 8.639 22.233a32.8 32.8 0 0 1-8.223 21.77z" fill="#fff"/></g></svg>