<svg width="16" height="17" viewBox="0 0 16 17" fill="none" xmlns="http://www.w3.org/2000/svg">
<path d="M7.10027 0V2.69766H8.01092V0H7.10019H7.10027V0ZM3.38172 0.810688L2.63562 1.33631L4.17315 3.54555L4.91884 3.01991L3.38172 0.810688ZM11.7293 0.810688L10.1922 3.01992L10.938 3.54556L12.4755 1.33631L11.7294 0.810688H11.7293V0.810688ZM7.55541 3.43576C5.32764 3.43576 3.52172 4.79693 3.52172 6.47628L5.81347 13.4597H9.29774L11.5893 6.47628C11.5893 4.79696 9.78348 3.43576 7.55562 3.43576H7.55541V3.43576ZM0.311144 4.24537L0 5.1069L2.51811 6.02935L2.83041 5.16823L0.311087 4.24537H0.311144V4.24537ZM14.7999 4.24537L12.2805 5.1683L12.5918 6.02952L15.1111 5.10691L14.7999 4.24537V4.24537ZM2.70876 8.18381L0.119535 8.8826L0.354467 9.76704L2.94369 9.06926L2.70881 8.18381H2.70876V8.18381ZM12.4022 8.18381L12.1675 9.06925L14.7567 9.76691L14.9915 8.88246L12.4022 8.18379V8.18381V8.18381ZM5.76267 13.9688V15.1827H9.34855V13.969H5.76269L5.76267 13.9688ZM5.76267 15.7861V17H9.34855V15.7863H5.76269L5.76267 15.7861Z" fill="white"/>
</svg>
