<svg width="40" height="40" viewBox="0 0 40 40" fill="none" xmlns="http://www.w3.org/2000/svg">
<path d="M27.65 12.6333L16.6667 23.6166L10.6834 17.65L8.33337 20L16.6667 28.3333L30 15L27.65 12.6333ZM20 3.33331C10.8 3.33331 3.33337 10.8 3.33337 20C3.33337 29.2 10.8 36.6666 20 36.6666C29.2 36.6666 36.6667 29.2 36.6667 20C36.6667 10.8 29.2 3.33331 20 3.33331ZM20 33.3333C12.6334 33.3333 6.66671 27.3666 6.66671 20C6.66671 12.6333 12.6334 6.66665 20 6.66665C27.3667 6.66665 33.3334 12.6333 33.3334 20C33.3334 27.3666 27.3667 33.3333 20 33.3333Z" fill="#0F2749"/>
</svg>
