<svg width="130" height="130" viewBox="0 0 130 130" fill="none" xmlns="http://www.w3.org/2000/svg">
<circle cx="65" cy="65" r="65" fill="#42B2C6"/>
<path fill-rule="evenodd" clip-rule="evenodd" d="M31 34.3212V32H69.381V69.1427H31V34.3212ZM49.191 56.375L44.0602 51.4097L36.3307 62.1785H42.994H44.915H55.466H57.3869H65.916L56.3208 43.478L49.191 56.375ZM93.369 64.5H74.1786V59.8571H98.1667V97H59.7857V73.7856H64.5833V92.3571H93.369V64.5ZM89.2279 71.6862V68.0532H80.0876V71.6862H82.2939V78.5954H77.7953C77.2414 78.098 76.5633 77.7845 75.761 77.6547C76.7161 77.352 77.4515 76.8005 77.9673 76.0004C78.483 75.2003 78.7409 74.238 78.7409 73.1135C78.7409 71.47 78.2442 70.1833 77.2509 69.2534C76.2576 68.3019 74.8441 67.8262 73.0103 67.8262C71.7304 67.8262 70.6225 68.0316 69.6865 68.4425V72.562C70.718 72.0214 71.7209 71.7511 72.6951 71.7511C74.0322 71.7511 74.7008 72.3999 74.7008 73.6974C74.7008 75.0381 73.9081 75.7085 72.3226 75.7085H71.4343V79.5361H72.6091C73.6406 79.5361 74.3474 79.7415 74.7295 80.1524C75.1306 80.5633 75.3312 81.1147 75.3312 81.8067C75.3312 83.6232 74.4907 84.5315 72.8097 84.5315C71.5681 84.5315 70.336 84.1638 69.1134 83.4286V87.6455C70.3169 88.1212 71.6158 88.3591 73.0103 88.3591C75.0733 88.3591 76.6206 87.8185 77.6521 86.7372C78.7027 85.656 79.228 84.2503 79.228 82.5203V82.2933H82.2939V89.8188H86.3626V71.6862H89.2279Z" fill="white"/>
</svg>
