<svg width="101" height="103" viewBox="0 0 101 103" fill="none" xmlns="http://www.w3.org/2000/svg">
<path fill-rule="evenodd" clip-rule="evenodd" d="M24.3806 22.5742C24.7756 23.579 26.3996 33.5836 25.9167 34.501C25.0389 36.2922 25.6095 37.7339 26.7946 39.0883C27.4968 39.831 28.2869 40.53 29.033 41.3164C29.4719 41.7969 29.9986 42.2775 30.3937 42.8018C31.7543 44.5493 31.4032 45.8162 29.3403 46.6463C29.1208 46.7337 28.9014 46.821 28.6819 46.9084C28.243 47.1269 28.0674 47.5637 28.243 48.0006C28.3747 48.3064 28.5502 48.5686 28.6819 48.8744C29.0769 49.7481 28.9014 50.4908 28.0674 51.0151C27.6724 51.2335 27.1896 51.4083 26.7946 51.583C26.3996 51.7578 26.0484 51.8889 25.6973 52.1947C26.0484 52.282 26.3996 52.3257 26.7507 52.4131C27.2774 52.5442 27.848 52.5879 28.3308 52.8063C29.1647 53.1121 29.3842 53.8111 29.033 54.5538C28.9891 54.7286 28.9014 54.8596 28.8136 54.9907C27.8919 56.1266 27.8919 57.3935 28.3308 58.7042C28.7258 59.9274 28.3747 60.7575 27.1896 61.3255C25.6534 62.0245 23.9855 62.1118 22.3616 62.1992C21.8787 62.2429 21.3521 62.1992 20.8693 62.1992C19.8598 62.2429 19.4208 63.0293 19.1575 63.772C18.8064 64.8642 18.543 66.0001 18.2797 67.136C18.148 67.5291 18.1041 67.9223 17.5335 67.8787C17.0507 67.7913 16.8313 67.4418 16.9629 66.8738C17.2263 65.7816 17.4896 64.6894 17.7969 63.5972C17.9285 63.1167 18.2358 62.6798 18.4991 62.2429C19.1136 61.1507 20.1231 60.8886 21.3082 60.8449C22.7566 60.8012 24.205 60.6264 25.6534 60.4517C25.8729 60.408 26.0923 60.3206 26.3118 60.2769C27.1457 59.9274 27.2335 59.7527 26.9701 58.8789C26.5312 57.3062 26.5312 55.7334 27.6285 54.3354C27.6724 54.2917 27.7163 54.2043 27.7602 54.1169C27.7602 54.1169 27.7602 54.0732 27.7602 53.9422C27.2774 53.8548 26.7946 53.8548 26.3557 53.6801C25.6534 53.4616 24.9511 53.1995 24.3806 52.85C23.7661 52.4568 23.7661 51.8015 24.3367 51.3209C24.7317 51.0151 25.2584 50.7967 25.6973 50.5782C26.1801 50.3598 26.6629 50.185 27.1457 50.0103C27.4968 49.8792 27.6285 49.6608 27.4091 49.3113C27.2774 49.0928 27.1896 48.8744 27.1018 48.6996C26.5312 47.6511 26.9701 46.0784 28.3308 45.5978C28.5502 45.5104 28.8136 45.423 29.033 45.3357C29.9547 44.9425 30.0864 44.593 29.4281 43.8066C28.6819 42.8891 27.8041 42.0154 26.9262 41.1416C25.6973 39.962 24.5561 38.7388 24.205 36.9913C24.1172 36.467 24.1611 35.8991 24.2489 35.3748C24.3367 34.8942 24.5561 34.4573 24.6878 34.0205C24.9511 33.3215 23.4149 23.7101 23.0638 23.0111L24.3806 22.5742Z" fill="#F58B71" stroke="#F58B71" stroke-width="0.0135276"/>
<path fill-rule="evenodd" clip-rule="evenodd" d="M50.3405 52.2257C50.2528 56.7256 48.7605 60.6575 45.732 63.9778C45.5564 64.1525 45.4247 64.3273 45.2053 64.502C44.8102 64.8515 44.3713 64.8515 43.9763 64.502C43.5813 64.1088 43.5813 63.6283 43.9324 63.2351C44.2835 62.7982 44.7225 62.405 45.0736 61.9681C48.7166 57.2061 49.5066 51.9636 47.3998 46.3715C46.6537 44.4929 45.5564 42.8765 44.1958 41.3911C43.9324 41.129 43.713 40.6484 43.7569 40.3426C43.8446 39.5999 44.7225 39.4688 45.3369 40.0368C46.8731 41.5658 48.0143 43.3134 48.8921 45.2356C49.8577 47.4637 50.3405 49.8229 50.3405 52.2257Z" fill="#F58B71"/>
<path fill-rule="evenodd" clip-rule="evenodd" d="M50.3405 52.2257C50.2528 56.7256 48.7605 60.6575 45.732 63.9778C45.5564 64.1525 45.4247 64.3273 45.2053 64.502C44.8102 64.8515 44.3713 64.8515 43.9763 64.502C43.5813 64.1088 43.5813 63.6283 43.9324 63.2351C44.2835 62.7982 44.7225 62.405 45.0736 61.9681C48.7166 57.2061 49.5066 51.9636 47.3998 46.3715C46.6537 44.4929 45.5564 42.8765 44.1958 41.3911C43.9324 41.129 43.713 40.6484 43.7569 40.3426C43.8446 39.5999 44.7225 39.4688 45.3369 40.0368C46.8731 41.5658 48.0143 43.3134 48.8921 45.2356C49.8577 47.4637 50.3405 49.8229 50.3405 52.2257Z" stroke="#F58B71" stroke-width="0.0135276"/>
<path fill-rule="evenodd" clip-rule="evenodd" d="M44.3885 53.4968C44.3446 55.7249 43.1596 58.8268 40.7894 61.448C40.7017 61.5791 40.6139 61.6665 40.4822 61.7975C40.0433 62.2344 39.5605 62.3655 39.0777 61.8849C38.5949 61.448 38.7704 60.9675 39.1655 60.5306C40.3944 59.3073 41.36 57.8656 41.8867 56.1618C43.3351 51.7493 42.5451 47.73 39.4288 44.1476C39.2971 44.0165 39.1216 43.8855 39.0338 43.7107C38.7266 43.3175 38.6827 42.8807 39.0777 42.5311C39.4288 42.2253 39.9116 42.0943 40.3505 42.4875C40.7456 42.8807 41.1406 43.3175 41.4917 43.7544C43.379 46.2446 44.3885 49.0843 44.3885 53.4968Z" fill="#F58B71"/>
<path fill-rule="evenodd" clip-rule="evenodd" d="M44.3885 53.4968C44.3446 55.7249 43.1596 58.8268 40.7894 61.448C40.7017 61.5791 40.6139 61.6665 40.4822 61.7975C40.0433 62.2344 39.5605 62.3655 39.0777 61.8849C38.5949 61.448 38.7704 60.9675 39.1655 60.5306C40.3944 59.3073 41.36 57.8656 41.8867 56.1618C43.3351 51.7493 42.5451 47.73 39.4288 44.1476C39.2971 44.0165 39.1216 43.8855 39.0338 43.7107C38.7266 43.3175 38.6827 42.8807 39.0777 42.5311C39.4288 42.2253 39.9116 42.0943 40.3505 42.4875C40.7456 42.8807 41.1406 43.3175 41.4917 43.7544C43.379 46.2446 44.3885 49.0843 44.3885 53.4968Z" stroke="#F58B71" stroke-width="0.0135276"/>
<path fill-rule="evenodd" clip-rule="evenodd" d="M36.6255 52.0735C36.5816 49.9765 35.7916 48.0979 34.2992 46.4815C33.6848 45.8262 33.7726 45.1272 34.5626 44.9087C34.8698 44.8213 35.3526 44.9961 35.5721 45.2145C37.635 47.3552 38.5567 49.9328 38.3811 52.8599C38.2495 55.2628 37.3278 57.3598 35.7038 59.151C35.2649 59.5879 34.8259 59.8937 34.2115 59.4131C33.7726 59.0636 33.8164 58.4957 34.387 57.884C35.8354 56.2676 36.5816 54.389 36.6255 52.0735Z" fill="#F58B71"/>
<path fill-rule="evenodd" clip-rule="evenodd" d="M36.6255 52.0735C36.5816 49.9765 35.7916 48.0979 34.2992 46.4815C33.6848 45.8262 33.7726 45.1272 34.5626 44.9087C34.8698 44.8213 35.3526 44.9961 35.5721 45.2145C37.635 47.3552 38.5567 49.9328 38.3811 52.8599C38.2495 55.2628 37.3278 57.3598 35.7038 59.151C35.2649 59.5879 34.8259 59.8937 34.2115 59.4131C33.7726 59.0636 33.8164 58.4957 34.387 57.884C35.8354 56.2676 36.5816 54.389 36.6255 52.0735Z" stroke="#F58B71" stroke-width="0.0135276"/>
<path fill-rule="evenodd" clip-rule="evenodd" d="M38.2835 90.8225C44.0754 93.0224 50.4135 94.235 57.0587 94.235C65.2663 94.235 73.0351 92.3564 79.8821 89.0798C71.4989 95.3708 61.0967 99.128 49.8166 99.128C43.3853 99.128 37.2393 97.9159 31.5964 95.7093L38.2835 90.8225ZM24.262 82.7414C13.8522 74.2337 7.28595 61.745 7.28595 47.8383C7.28595 22.2372 29.5388 1.4417 57.0587 1.4417C59.0777 1.4417 61.0967 1.57277 63.0718 1.79121C58.8582 0.611632 54.3813 0 49.8166 0C22.2968 0 0 22.1935 0 49.5858C0 67.0331 9.07449 82.3822 22.7905 91.2094L24.262 82.7414Z" fill="#F47D5C"/>
<path d="M28.2757 79.6162L21.3848 102.072L39.7313 85.1209L28.2757 79.6162Z" fill="#377044"/>
<path fill-rule="evenodd" clip-rule="evenodd" d="M15.6574 48.6527C15.6574 69.754 32.8189 86.836 54.0184 86.836C68.0656 86.836 80.3519 79.3047 87.0224 68.0663H91.8352C84.7674 81.709 70.4825 91.0301 54.0184 91.0301C30.4927 91.0301 11.4438 72.0695 11.4438 48.6527C11.4438 25.236 30.4927 6.27539 54.0184 6.27539C69.6743 6.27539 83.3596 14.7037 90.7426 27.2617H85.7651C78.8747 17.1261 67.2248 10.4694 54.0184 10.4694C32.8189 10.4694 15.6574 27.5514 15.6574 48.6527Z" fill="#377044"/>
<path d="M68.2095 37.3858V48.0457C68.034 48.0894 67.8584 48.1331 67.6389 48.1768C67.4634 48.2205 67.2 48.2205 66.9367 48.2205C66.2783 48.2205 65.8394 48.1331 65.6199 47.9146C65.3566 47.6962 65.2249 47.3904 65.2249 46.9098V45.9924C64.8738 46.2108 64.4788 46.3856 63.996 46.4729C63.5132 46.604 62.9865 46.6914 62.3281 46.6914C61.7136 46.6914 61.143 46.604 60.5725 46.3856C60.0458 46.2108 59.563 45.9487 59.1679 45.5992C58.7729 45.206 58.4218 44.7691 58.2023 44.2885C57.9829 43.7643 57.8512 43.1963 57.8512 42.541C57.8512 41.9294 57.9829 41.3614 58.2023 40.8809C58.4218 40.4003 58.6851 39.9634 59.0801 39.6139C59.4752 39.2644 59.9141 39.0023 60.4408 38.8275C60.9675 38.6091 61.5381 38.5217 62.1964 38.5217C62.8987 38.5217 63.4254 38.6528 63.7326 38.9149C64.0838 39.177 64.2593 39.5702 64.2593 40.0071C64.2593 40.1819 64.2593 40.3566 64.1715 40.5314C64.1276 40.7061 64.0838 40.8372 63.996 40.9682C63.8643 40.9682 63.7326 40.9246 63.5571 40.8809C63.3815 40.8809 63.162 40.8372 62.9426 40.8372C62.5914 40.8372 62.2842 40.8809 62.0648 40.9682L65.2249 43.3711V37.3858H57.1928C56.8856 37.3858 56.6661 37.2985 56.5345 37.1237C56.4028 36.9489 56.3589 36.6431 56.3589 36.2936C56.3589 36.1189 56.3589 35.9441 56.4028 35.7257C56.4467 35.5509 56.4906 35.3762 56.5345 35.2451H69.5263C70.053 35.2451 70.3602 35.5946 70.3602 36.3373C70.3602 36.4684 70.3163 36.6431 70.2724 36.8616C70.2724 37.08 70.2285 37.2548 70.1407 37.3858H68.2095ZM62.8987 44.3322C63.3815 44.3322 63.8643 44.2885 64.2154 44.1138L61.0991 41.7109C60.9236 41.9731 60.8358 42.2789 60.8358 42.6284C60.8358 43.1526 61.0114 43.5895 61.4064 43.8953C61.8014 44.2012 62.3281 44.3322 62.8987 44.3322Z" fill="#377044"/>
<path d="M74.1471 37.383V48.0428C73.9716 48.0865 73.796 48.1302 73.5765 48.1739C73.401 48.2176 73.1376 48.2176 72.8743 48.2176C72.2159 48.2176 71.777 48.1302 71.5575 47.9118C71.2942 47.6933 71.2064 47.3875 71.2064 46.9069V37.383H69.8458C69.5385 37.383 69.3191 37.2956 69.1874 37.1208C69.0557 36.9461 68.968 36.6403 68.968 36.2908C68.968 36.116 69.0118 35.9413 69.0557 35.7228C69.0557 35.5481 69.0996 35.3733 69.1874 35.2422H71.2064C70.987 34.8491 70.6797 34.4559 70.3286 34.1064C69.9775 33.7569 69.5824 33.451 69.1874 33.1452C68.7485 32.8831 68.3535 32.621 67.9146 32.4462C67.5195 32.2278 67.1245 32.0967 66.7295 31.9656C66.7295 31.922 66.7295 31.8346 66.7295 31.7909C66.7295 31.7472 66.7295 31.6598 66.7295 31.5725C66.7295 31.0919 66.8612 30.6987 67.1245 30.3055C67.3879 29.956 67.8268 29.7812 68.3974 29.7812C68.8802 29.7812 69.4069 29.9123 69.9336 30.2618C70.4603 30.5676 70.987 30.9608 71.4698 31.4851C71.9526 32.0093 72.3915 32.5773 72.7865 33.2326C73.1815 33.8879 73.5327 34.5432 73.796 35.2422H75.4639C76.0345 35.2422 76.2978 35.5918 76.2978 36.3344C76.2978 36.4655 76.2978 36.6403 76.2539 36.8587C76.21 37.0771 76.1661 37.2519 76.0783 37.383H74.1471Z" fill="#377044"/>
<path d="M84.8403 44.507C84.4014 44.638 83.9625 44.7254 83.4797 44.7254C82.9969 44.7254 82.6019 44.5943 82.3824 44.3759C82.163 44.1138 82.0313 43.7643 82.0313 43.3711C82.0313 42.7595 82.163 42.2352 82.3385 41.7546C82.0313 41.6236 81.6802 41.5799 81.3729 41.5799C80.7146 41.5799 80.2318 41.7546 79.8806 42.1478C79.5734 42.541 79.3978 43.0653 79.3978 43.6332C79.3978 44.0701 79.4856 44.4633 79.6612 44.8128C79.8367 45.1186 80.0562 45.3807 80.3195 45.5992C80.6268 45.8176 80.934 45.9924 81.2413 46.1234C81.5924 46.2108 81.9435 46.2982 82.2946 46.3419C82.2946 46.4292 82.2946 46.4729 82.2946 46.5603C82.2946 46.6477 82.2946 46.6914 82.2946 46.7787C82.2946 47.2156 82.163 47.6088 81.8996 47.9146C81.6802 48.2205 81.1974 48.3515 80.5829 48.3515C80.0562 48.3515 79.5734 48.2641 79.0467 48.0457C78.5639 47.8273 78.125 47.5214 77.7299 47.0846C77.3349 46.6914 76.9838 46.1671 76.7643 45.5992C76.501 44.9875 76.3693 44.3322 76.3693 43.5895C76.3693 42.8468 76.501 42.2352 76.7204 41.7109C76.9399 41.143 77.291 40.7061 77.6861 40.3129C78.0811 39.9634 78.52 39.7013 79.0467 39.5265C79.5734 39.3081 80.1001 39.2207 80.6707 39.2207C81.2851 39.2207 81.8118 39.3081 82.2946 39.4829C82.7336 39.6576 83.1286 39.876 83.4797 40.1382C83.8308 39.8324 84.2259 39.6139 84.6648 39.4829C85.1037 39.3081 85.5865 39.2207 86.1571 39.2207C86.3326 39.2207 86.4643 39.2207 86.6399 39.2644C86.7716 39.2644 86.9032 39.2644 87.0788 39.3081V37.3858H75.7548C75.4476 37.3858 75.2281 37.2985 75.0965 37.1237C74.9648 36.9489 74.9209 36.6431 74.9209 36.2936C74.9209 36.1189 74.9209 35.9441 74.9648 35.7257C75.0087 35.5509 75.0526 35.3762 75.0965 35.2451H91.3363C91.863 35.2451 92.1702 35.5946 92.1702 36.3373C92.1702 36.4684 92.1702 36.6431 92.1263 36.8616C92.0824 37.08 92.0385 37.2548 91.9507 37.3858H89.9756V48.0457C89.844 48.0894 89.6684 48.1331 89.4928 48.1768C89.2734 48.2205 89.01 48.2205 88.7467 48.2205C88.0883 48.2205 87.6494 48.1331 87.4299 47.9146C87.1666 47.6962 87.0788 47.3904 87.0788 46.9098V41.5799C86.991 41.5799 86.9471 41.5799 86.9032 41.5799C86.8593 41.5799 86.8155 41.5799 86.7716 41.5799C86.1132 41.5799 85.6304 41.7983 85.3231 42.2352C84.972 42.7158 84.8403 43.4585 84.8403 44.507Z" fill="#377044"/>
<path d="M95.967 37.383V48.0428C95.7914 48.0865 95.6158 48.1302 95.4403 48.1739C95.2208 48.2176 94.9575 48.2176 94.6941 48.2176C94.0357 48.2176 93.5968 48.1302 93.3774 47.9118C93.114 47.6933 93.0262 47.3875 93.0262 46.9069V37.383H91.6656C91.3584 37.383 91.1389 37.2956 91.0072 37.1208C90.8756 36.9461 90.8317 36.6403 90.8317 36.2908C90.8317 36.116 90.8317 35.9413 90.8756 35.7228C90.9194 35.5481 90.9633 35.3733 91.0072 35.2422H93.0701C92.8068 34.8491 92.5434 34.4559 92.1484 34.1064C91.7973 33.7569 91.4023 33.451 91.0072 33.1452C90.5683 32.8831 90.1733 32.621 89.7344 32.4462C89.3394 32.2278 88.9443 32.0967 88.5932 31.9656C88.5493 31.922 88.5493 31.8346 88.5493 31.7909C88.5493 31.7472 88.5493 31.6598 88.5493 31.5725C88.5493 31.0919 88.681 30.6987 88.9443 30.3055C89.2516 29.956 89.6466 29.7812 90.2172 29.7812C90.7439 29.7812 91.2706 29.9123 91.7534 30.2618C92.2801 30.5676 92.8068 30.9608 93.2896 31.4851C93.7724 32.0093 94.2113 32.5773 94.6063 33.2326C95.0452 33.8879 95.3525 34.5432 95.6158 35.2422H97.2837C97.8543 35.2422 98.1176 35.5918 98.1176 36.3344C98.1176 36.4655 98.1176 36.6403 98.0737 36.8587C98.0298 37.0771 97.986 37.2519 97.8982 37.383H95.967Z" fill="#377044"/>
<path d="M72.727 59.669C72.9465 59.6253 73.2098 59.5379 73.4732 59.4943C73.6926 59.4506 73.956 59.4506 74.2632 59.4506C75.0971 59.4506 75.7116 59.6253 76.1066 59.9748C76.5455 60.3243 76.765 60.8049 76.765 61.3728C76.765 61.6787 76.6772 61.9845 76.5016 62.2466C76.37 62.5087 76.1505 62.7272 75.8872 62.9019C75.6238 63.0767 75.3166 63.2077 74.9216 63.2951C74.5704 63.3825 74.1754 63.4262 73.7365 63.4262C73.6926 63.4262 73.6487 63.4262 73.6048 63.4262C73.5609 63.4262 73.5609 63.4262 73.517 63.4262C73.7365 63.6446 73.956 63.8194 74.2193 63.9941C74.4827 64.2126 74.746 64.3873 75.0532 64.5621C75.0532 64.8242 74.9655 65.0863 74.7899 65.2611C74.6143 65.4358 74.3949 65.5232 74.0876 65.5232C73.7804 65.5232 73.4732 65.4358 73.2537 65.2174C72.9904 64.9989 72.727 64.6494 72.4637 64.2126L71.937 63.2951C71.4981 63.1641 71.1908 63.033 70.9275 62.8145C70.708 62.5961 70.5763 62.3777 70.5763 62.1155C70.5763 61.9408 70.6202 61.766 70.7519 61.635C70.8836 61.5039 71.0152 61.3728 71.1469 61.3292C71.4542 61.5913 71.8053 61.8097 72.2442 61.9845C72.6392 62.1592 73.1659 62.2466 73.6926 62.2466C74.1754 62.2466 74.5265 62.1592 74.7899 62.0282C75.0093 61.8534 75.141 61.635 75.141 61.3728C75.141 60.8486 74.7021 60.5865 73.8682 60.5865C73.6048 60.5865 73.3415 60.6301 73.122 60.6738C72.8587 60.7175 72.6392 60.8049 72.4198 60.8486C72.2442 60.8049 72.0247 60.7175 71.8492 60.5865C71.6297 60.4991 71.4542 60.368 71.2786 60.1933C71.103 60.0185 70.9714 59.8438 70.8836 59.6253C70.7519 59.4069 70.708 59.1884 70.708 58.9263C70.708 58.4021 70.8836 58.0089 71.2347 57.6594C71.5858 57.3535 72.1125 57.1788 72.8148 57.1788H74.6143V56.2177H70.0058C69.6985 56.2177 69.5229 55.9992 69.5229 55.606C69.5229 55.5187 69.5668 55.4313 69.5668 55.3002C69.5668 55.2128 69.6107 55.1255 69.6546 55.0381H77.2478C77.5989 55.0381 77.7306 55.2128 77.7306 55.606C77.7306 55.6934 77.7306 55.8245 77.7306 55.9118C77.6867 56.0429 77.6867 56.1303 77.6428 56.2177H76.1944V57.7467C76.1944 58.1399 75.975 58.3147 75.536 58.3147H73.1659C72.8587 58.3147 72.6392 58.4021 72.5075 58.5331C72.3759 58.6205 72.2881 58.7953 72.2881 58.97C72.2881 59.1448 72.332 59.2758 72.4198 59.4069C72.5075 59.4943 72.6392 59.5816 72.727 59.669Z" fill="#373435"/>
<path d="M74.4067 52.9748C74.4067 52.7127 74.4945 52.4942 74.6701 52.2758C74.8895 52.101 75.109 52.0137 75.4162 52.0137C75.7235 52.0137 75.9429 52.101 76.1185 52.2758C76.338 52.4942 76.4258 52.7127 76.4258 52.9748C76.4258 53.2369 76.338 53.4554 76.1185 53.6301C75.9429 53.8049 75.7235 53.9359 75.4162 53.9359C75.109 53.9359 74.8895 53.8049 74.6701 53.6301C74.4945 53.4554 74.4067 53.2369 74.4067 52.9748Z" fill="#373435"/>
<path d="M79.8776 56.2197V63.2972C79.8337 63.3409 79.7021 63.3409 79.6143 63.3409C79.4826 63.3846 79.3948 63.3846 79.2193 63.3846C78.912 63.3846 78.6487 63.3409 78.517 63.2098C78.3853 63.1224 78.3414 62.9477 78.3414 62.6856V56.2197H77.3319C77.1564 56.2197 77.0247 56.1324 76.9369 56.045C76.893 55.9576 76.8491 55.8266 76.8491 55.6081C76.8491 55.5207 76.8491 55.4334 76.893 55.3023C76.893 55.2149 76.9369 55.1275 76.9369 55.0402H78.2536C78.1659 54.9091 78.122 54.778 78.0781 54.5596C78.0342 54.3848 77.9903 54.1664 77.9903 53.9917C77.9903 53.2053 78.2975 52.55 78.912 52.1131C79.5704 51.6762 80.4043 51.4141 81.5455 51.4141C82.2916 51.4141 82.95 51.5014 83.5645 51.6762C84.179 51.8509 84.6618 52.0694 85.1007 52.2878C85.5396 52.55 85.8907 52.8121 86.1102 53.0305C86.3735 53.2926 86.4613 53.5111 86.4613 53.6858C86.4613 53.9043 86.3735 54.0353 86.2419 54.1664C86.0663 54.2975 85.8029 54.3412 85.5396 54.3412C85.0568 53.8169 84.5301 53.4237 83.8717 53.1179C83.2573 52.8558 82.5111 52.681 81.6772 52.681C81.0188 52.681 80.4921 52.8121 80.141 53.0742C79.7898 53.3363 79.6143 53.6858 79.6143 54.1664C79.6143 54.3412 79.6143 54.5159 79.6582 54.647C79.7021 54.8217 79.7459 54.9528 79.7898 55.0402H80.8432C81.1944 55.0402 81.326 55.2149 81.326 55.6081C81.326 55.6955 81.326 55.8266 81.326 55.9139C81.2821 56.045 81.2821 56.1324 81.2383 56.2197H79.8776Z" fill="#373435"/>
<path d="M83.6567 59.669C83.8762 59.6253 84.1395 59.538 84.4028 59.4943C84.6223 59.4506 84.9295 59.4506 85.1929 59.4506C86.0268 59.4506 86.6413 59.6253 87.0363 59.9748C87.4752 60.3243 87.6947 60.8049 87.6947 61.3728C87.6947 62.0719 87.3875 62.5961 86.8608 62.9456C86.2902 63.2951 85.5879 63.4699 84.6662 63.4699C84.2273 63.4699 83.8323 63.4262 83.4811 63.3825C83.0861 63.2951 82.735 63.2077 82.4716 63.0767C82.1644 62.9893 81.9449 62.8146 81.7694 62.6835C81.5938 62.5087 81.506 62.334 81.506 62.1155C81.506 61.8971 81.5499 61.7224 81.6816 61.5913C81.8133 61.5039 81.9449 61.3728 82.0766 61.3292C82.3839 61.5913 82.735 61.8097 83.1739 61.9845C83.5689 62.1592 84.0956 62.2466 84.6662 62.2466C85.1051 62.2466 85.4562 62.1592 85.7196 62.0282C85.939 61.8534 86.0707 61.635 86.0707 61.3728C86.0707 60.8486 85.6318 60.5865 84.7979 60.5865C84.5345 60.5865 84.2712 60.6302 84.0517 60.6738C83.7884 60.7175 83.5689 60.8049 83.3495 60.8486C83.1739 60.8049 82.9544 60.7175 82.7789 60.5865C82.5594 60.4991 82.3839 60.368 82.2083 60.1933C82.0327 60.0185 81.901 59.8438 81.8133 59.6253C81.6816 59.4069 81.6377 59.1884 81.6377 58.9263C81.6377 58.4021 81.8133 58.0089 82.1644 57.6594C82.5155 57.3536 83.0422 57.1788 83.7445 57.1788H85.544V56.2177H80.9354C80.6282 56.2177 80.4526 55.9992 80.4526 55.606C80.4526 55.5187 80.4965 55.4313 80.4965 55.3002C80.4965 55.2128 80.5404 55.1255 80.5843 55.0381H88.2214C88.5286 55.0381 88.7042 55.2128 88.7042 55.606C88.7042 55.6934 88.7042 55.8245 88.6603 55.9118C88.6603 56.0429 88.6164 56.1303 88.5725 56.2177H87.1241V57.7467C87.1241 58.1399 86.9047 58.3147 86.4657 58.3147H84.0956C83.7884 58.3147 83.5689 58.4021 83.4372 58.5331C83.3056 58.6205 83.2178 58.7953 83.2178 58.97C83.2178 59.1448 83.2617 59.2758 83.3495 59.4069C83.4372 59.4943 83.5689 59.5816 83.6567 59.669Z" fill="#373435"/>
<path d="M95.6353 56.2177V63.2951C95.5915 63.3388 95.5037 63.3388 95.372 63.3388C95.2842 63.3825 95.1525 63.3825 94.977 63.3825C94.6697 63.3825 94.4503 63.3388 94.3186 63.2077C94.1869 63.1204 94.0991 62.9456 94.0991 62.6835V61.3292C93.8797 61.5039 93.5725 61.635 93.2652 61.766C92.958 61.8534 92.6068 61.8971 92.2118 61.8971C91.5096 61.8971 90.939 61.766 90.4562 61.5039C89.9295 61.2418 89.5345 60.8486 89.2711 60.4117C89.0955 60.1496 88.9639 59.8874 88.8761 59.6253C88.7883 59.3195 88.7444 59.1011 88.7444 58.8826C88.7444 58.7516 88.7883 58.6642 88.8322 58.5768C88.8761 58.4894 88.92 58.4457 89.0517 58.4457C89.6222 58.4021 90.0173 58.271 90.2806 58.0526C90.544 57.8778 90.6756 57.6157 90.6756 57.2662C90.6756 57.004 90.6317 56.7856 90.5001 56.6109C90.3684 56.4361 90.1928 56.305 89.9734 56.2177H88.2616C87.9544 56.2177 87.7788 55.9992 87.7788 55.606C87.7788 55.5187 87.8227 55.4313 87.8227 55.3002C87.8227 55.2128 87.8666 55.1255 87.9105 55.0381H96.601C96.7765 55.0381 96.9082 55.0818 96.996 55.1691C97.0838 55.3002 97.0838 55.4313 97.0838 55.606C97.0838 55.6934 97.0838 55.8245 97.0838 55.9118C97.0399 56.0429 97.0399 56.1303 96.996 56.2177H95.6353ZM92.3435 60.6301C92.7385 60.6301 93.0897 60.5428 93.3969 60.4117C93.7041 60.237 93.9236 60.0622 94.0991 59.8874V56.2177H91.6851C91.8168 56.3487 91.9924 56.5235 92.0802 56.7419C92.2118 56.9604 92.2996 57.1788 92.2996 57.4409C92.2996 57.7467 92.2557 57.9652 92.124 58.1836C92.0363 58.4021 91.9046 58.5768 91.729 58.7079C91.5535 58.8826 91.334 59.0137 91.1145 59.1011C90.8951 59.1884 90.6317 59.2758 90.3245 59.3195C90.4562 59.669 90.6756 59.9748 91.0268 60.237C91.334 60.4991 91.8168 60.6301 92.3435 60.6301Z" fill="#373435"/>
<path d="M99.3385 56.2177V63.2951C99.2507 63.3388 99.1629 63.3388 99.0313 63.3388C98.9435 63.3825 98.8118 63.3825 98.6801 63.3825C98.329 63.3825 98.1096 63.3388 97.9779 63.2077C97.8462 63.1204 97.7584 62.9456 97.7584 62.6835V56.2177H96.7489C96.5734 56.2177 96.4417 56.1303 96.3978 56.0429C96.31 55.9555 96.2661 55.8245 96.2661 55.606C96.2661 55.5187 96.31 55.4313 96.31 55.3002C96.31 55.2128 96.3539 55.1255 96.3978 55.0381H100.304C100.611 55.0381 100.787 55.2128 100.787 55.606C100.787 55.6934 100.787 55.8245 100.743 55.9118C100.743 56.0429 100.699 56.1303 100.655 56.2177H99.3385Z" fill="#373435"/>
</svg>
