<svg width="104" height="103" viewBox="0 0 104 103" fill="none" xmlns="http://www.w3.org/2000/svg">
<path fill-rule="evenodd" clip-rule="evenodd" d="M40.0532 55.6066C40.0532 58.1405 40.0093 60.7181 40.0532 63.252C40.0532 64.3005 39.8776 65.1742 38.7803 65.5674C37.6831 65.9606 36.9369 65.4364 36.2346 64.6937C35.3568 63.6888 34.5229 62.6403 33.5134 61.7666C33.0745 61.4171 32.1966 61.1986 31.67 61.3734C31.231 61.5044 30.7921 62.2908 30.7482 62.8151C30.7043 63.2956 31.1871 63.8636 31.5383 64.3005C34.084 67.1839 36.5858 70.0673 38.0781 73.6934C38.7364 75.3535 40.0971 76.3583 41.8966 76.5768C42.9939 76.7515 44.179 76.8389 45.3201 76.8389C49.1387 76.7952 52.0794 74.6982 52.4305 70.941C52.8694 66.6159 52.6939 62.2471 52.6939 57.8783C52.6939 57.0046 51.9477 56.4803 51.0699 56.4803C50.2359 56.4803 49.6215 57.0483 49.4898 57.922C49.402 58.5773 49.5337 59.32 49.402 60.019C49.3581 60.3686 49.0509 60.9802 48.7875 61.0239C48.0414 61.1112 48.0414 60.4559 48.0414 59.9317C48.0414 58.3589 48.0853 56.7861 48.0414 55.2134C47.9975 53.9027 47.0319 53.1163 45.9346 53.4222C45.0568 53.728 44.7495 54.3833 44.7495 55.2134C44.7495 56.8735 44.7495 58.49 44.7056 60.1064C44.7056 60.4122 44.4862 60.7617 44.2667 61.0239C44.2228 61.1112 43.74 61.0239 43.6961 60.9365C43.5206 60.587 43.3889 60.1938 43.3889 59.8443C43.345 56.3493 43.345 52.8979 43.345 49.4466C43.345 48.6602 43.5206 47.8301 43.3011 47.1311C43.1256 46.5632 42.555 45.8641 42.0283 45.6894C41.5894 45.5146 40.7993 45.9078 40.4482 46.301C40.141 46.6505 40.0532 47.3495 40.0532 47.8738C40.0093 50.4514 40.0532 53.029 40.0532 55.6066ZM44.7495 52.2426C47.6464 51.5436 49.007 52.4173 49.5776 55.3444C49.8409 55.3007 50.0604 55.2134 50.2798 55.1697C52.2988 54.6891 54.1423 55.9998 54.1423 58.1405C54.1862 62.2471 54.23 66.3538 54.0106 70.4168C53.7911 74.6982 50.7626 77.5816 46.5491 78.1496C44.4862 78.4117 42.4672 78.3243 40.4921 77.7127C38.9559 77.2321 37.6392 76.271 37.0247 74.7856C35.4446 71.0284 32.8989 67.9266 30.1776 64.9558C28.9487 63.5578 28.9926 61.6355 30.2654 60.4996C31.6261 59.32 33.5134 59.4948 34.7862 60.9365C35.6202 61.8539 36.4541 62.7714 37.3319 63.6888C37.5953 63.9073 37.9464 64.0383 38.2536 64.2131C38.3853 63.8636 38.6487 63.5141 38.6487 63.1646C38.6925 58.9705 38.6925 54.7328 38.6925 50.5388C38.6925 49.3592 38.6487 48.1796 38.6925 47C38.7364 45.3836 40.0093 44.204 41.6333 44.1603C43.2572 44.1166 44.6179 45.3399 44.7056 47C44.7495 47.8738 44.7495 48.7476 44.7495 49.6213C44.7495 50.4951 44.7495 51.3251 44.7495 52.2426Z" fill="#F58B71"/>
<path fill-rule="evenodd" clip-rule="evenodd" d="M40.0532 55.6066C40.0532 58.1405 40.0093 60.7181 40.0532 63.252C40.0532 64.3005 39.8776 65.1742 38.7803 65.5674C37.683 65.9606 36.9369 65.4364 36.2346 64.6937C35.3568 63.6888 34.5229 62.6403 33.5134 61.7666C33.0745 61.4171 32.1966 61.1986 31.67 61.3734C31.231 61.5044 30.7921 62.2908 30.7482 62.8151C30.7043 63.2956 31.1871 63.8636 31.5383 64.3005C34.084 67.1839 36.5858 70.0673 38.0781 73.6934C38.7364 75.3535 40.0971 76.3583 41.8966 76.5768C42.9939 76.7515 44.179 76.8389 45.3201 76.8389C49.1387 76.7952 52.0794 74.6982 52.4305 70.941C52.8694 66.6159 52.6939 62.2471 52.6939 57.8783C52.6939 57.0046 51.9477 56.4803 51.0699 56.4803C50.2359 56.4803 49.6215 57.0483 49.4898 57.922C49.402 58.5773 49.5337 59.32 49.402 60.019C49.3581 60.3686 49.0509 60.9802 48.7875 61.0239C48.0414 61.1112 48.0414 60.4559 48.0414 59.9317C48.0414 58.3589 48.0853 56.7861 48.0414 55.2134C47.9975 53.9027 47.0319 53.1163 45.9346 53.4222C45.0568 53.728 44.7495 54.3833 44.7495 55.2134C44.7495 56.8735 44.7495 58.49 44.7056 60.1064C44.7056 60.4122 44.4862 60.7617 44.2667 61.0239C44.2228 61.1112 43.74 61.0239 43.6961 60.9365C43.5206 60.587 43.3889 60.1938 43.3889 59.8443C43.345 56.3493 43.345 52.8979 43.345 49.4466C43.345 48.6602 43.5206 47.8301 43.3011 47.1311C43.1256 46.5632 42.555 45.8641 42.0283 45.6894C41.5894 45.5146 40.7993 45.9078 40.4482 46.301C40.141 46.6505 40.0532 47.3495 40.0532 47.8738C40.0093 50.4514 40.0532 53.029 40.0532 55.6066ZM44.7495 52.2426C47.6464 51.5436 49.007 52.4173 49.5776 55.3444C49.8409 55.3007 50.0604 55.2134 50.2798 55.1697C52.2988 54.6891 54.1423 55.9998 54.1423 58.1405C54.1862 62.2471 54.23 66.3538 54.0106 70.4168C53.7911 74.6982 50.7626 77.5816 46.5491 78.1496C44.4862 78.4117 42.4672 78.3243 40.4921 77.7127C38.9559 77.2321 37.6392 76.271 37.0247 74.7856C35.4446 71.0284 32.8989 67.9266 30.1776 64.9558C28.9487 63.5578 28.9926 61.6355 30.2654 60.4996C31.6261 59.32 33.5134 59.4948 34.7862 60.9365C35.6202 61.8539 36.4541 62.7714 37.3319 63.6888C37.5953 63.9073 37.9464 64.0383 38.2536 64.2131C38.3853 63.8636 38.6487 63.5141 38.6487 63.1646C38.6925 58.9705 38.6925 54.7328 38.6925 50.5388C38.6925 49.3592 38.6487 48.1796 38.6925 47C38.7364 45.3836 40.0093 44.204 41.6333 44.1603C43.2572 44.1166 44.6179 45.3399 44.7056 47C44.7495 47.8738 44.7495 48.7476 44.7495 49.6213C44.7495 50.4951 44.7495 51.3251 44.7495 52.2426Z" stroke="#F58B71" stroke-width="0.0135276"/>
<path fill-rule="evenodd" clip-rule="evenodd" d="M23.0258 36.3249C26.1421 36.2812 26.0104 36.2375 25.9665 39.252C25.9665 40.6937 25.7909 40.8684 24.2986 40.9121C23.333 40.9121 22.3235 40.9121 21.314 40.8684C21.0946 40.8684 20.8312 40.9558 20.6556 40.8248C19.2072 40.0384 19.9973 38.6404 19.8656 37.4608C19.7778 36.6744 20.3923 36.3249 21.1384 36.3249C21.7968 36.3249 22.4113 36.3249 23.0258 36.3249Z" fill="#F58B71"/>
<path fill-rule="evenodd" clip-rule="evenodd" d="M23.0258 36.3249C26.1421 36.2812 26.0104 36.2375 25.9665 39.252C25.9665 40.6937 25.7909 40.8684 24.2986 40.9121C23.333 40.9121 22.3235 40.9121 21.314 40.8684C21.0946 40.8684 20.8312 40.9558 20.6556 40.8248C19.2072 40.0384 19.9973 38.6404 19.8656 37.4608C19.7778 36.6744 20.3923 36.3249 21.1384 36.3249C21.7968 36.3249 22.4113 36.3249 23.0258 36.3249Z" stroke="#F58B71" stroke-width="0.0135276"/>
<path fill-rule="evenodd" clip-rule="evenodd" d="M32.2343 40.9162C28.9424 40.9162 29.2936 41.091 29.2936 37.9018C29.2936 36.5911 29.513 36.329 30.8298 36.329C31.8831 36.2853 32.9804 36.329 34.0338 36.329C34.9555 36.329 35.3944 36.7222 35.3505 37.6833C35.3066 38.2513 35.3505 38.8629 35.3505 39.4308C35.3066 40.6541 35.0872 40.8725 33.8143 40.9162C33.2876 40.9162 32.761 40.9162 32.2343 40.9162Z" fill="#F58B71"/>
<path fill-rule="evenodd" clip-rule="evenodd" d="M32.2343 40.9162C28.9424 40.9162 29.2936 41.091 29.2936 37.9018C29.2936 36.5911 29.513 36.329 30.8298 36.329C31.8831 36.2853 32.9804 36.329 34.0338 36.329C34.9555 36.329 35.3944 36.7222 35.3505 37.6833C35.3066 38.2513 35.3505 38.8629 35.3505 39.4308C35.3066 40.6541 35.0872 40.8725 33.8143 40.9162C33.2876 40.9162 32.761 40.9162 32.2343 40.9162Z" stroke="#F58B71" stroke-width="0.0135276"/>
<path fill-rule="evenodd" clip-rule="evenodd" d="M41.5752 40.9359C38.3711 40.9359 38.6784 41.1106 38.6784 37.9651C38.6784 36.5671 38.8978 36.3486 40.3462 36.3486C41.3996 36.3486 42.4091 36.3486 43.4625 36.3486C44.2525 36.3486 44.7353 36.6981 44.6914 37.5282C44.6914 38.2272 44.7353 38.9262 44.7353 39.6252C44.7353 40.5427 44.2525 40.9796 43.3308 40.9359C42.7602 40.8922 42.1457 40.9359 41.5752 40.9359Z" fill="#F58B71"/>
<path fill-rule="evenodd" clip-rule="evenodd" d="M41.5752 40.9359C38.3711 40.9359 38.6784 41.1106 38.6784 37.9651C38.6784 36.5671 38.8978 36.3486 40.3462 36.3486C41.3996 36.3486 42.4091 36.3486 43.4625 36.3486C44.2525 36.3486 44.7353 36.6981 44.6914 37.5282C44.6914 38.2272 44.7353 38.9262 44.7353 39.6252C44.7353 40.5427 44.2525 40.9796 43.3308 40.9359C42.7602 40.8922 42.1457 40.9359 41.5752 40.9359Z" stroke="#F58B71" stroke-width="0.0135276"/>
<path fill-rule="evenodd" clip-rule="evenodd" d="M22.9026 48.6384H22.771C19.5669 48.6821 19.8302 48.9005 19.8741 45.2744C19.8741 44.5754 20.2692 44.1386 21.0592 44.1386C22.2882 44.1386 23.561 44.0949 24.79 44.1386C25.8872 44.1386 26.0189 44.5317 26.0189 47.153C25.975 47.9831 25.8872 48.6821 24.79 48.6384C24.1316 48.6384 23.5171 48.6384 22.9026 48.6384Z" fill="#F58B71"/>
<path fill-rule="evenodd" clip-rule="evenodd" d="M22.9026 48.6384H22.771C19.5669 48.6821 19.8302 48.9005 19.8741 45.2744C19.8741 44.5754 20.2692 44.1386 21.0592 44.1386C22.2882 44.1386 23.561 44.0949 24.79 44.1386C25.8872 44.1386 26.0189 44.5317 26.0189 47.153C25.975 47.9831 25.8872 48.6821 24.79 48.6384C24.1316 48.6384 23.5171 48.6384 22.9026 48.6384Z" stroke="#F58B71" stroke-width="0.0135276"/>
<path fill-rule="evenodd" clip-rule="evenodd" d="M22.7991 56.4318C22.2724 56.4318 21.7018 56.3882 21.1312 56.4318C20.1656 56.5192 19.8145 55.995 19.8145 55.1212C19.8145 51.6699 19.595 51.9757 22.7991 51.9757C23.4574 51.9757 24.1158 51.9757 24.7741 51.9757C25.652 51.9757 26.0031 52.3689 25.9592 53.1989C25.9592 56.7377 26.3981 56.4755 22.7991 56.4318Z" fill="#F58B71"/>
<path fill-rule="evenodd" clip-rule="evenodd" d="M22.7991 56.4318C22.2724 56.4318 21.7018 56.3882 21.1312 56.4318C20.1656 56.5192 19.8145 55.995 19.8145 55.1212C19.8145 51.6699 19.595 51.9757 22.7991 51.9757C23.4574 51.9757 24.1158 51.9757 24.7741 51.9757C25.652 51.9757 26.0031 52.3689 25.9592 53.1989C25.9592 56.7377 26.3981 56.4755 22.7991 56.4318Z" stroke="#F58B71" stroke-width="0.0135276"/>
<path fill-rule="evenodd" clip-rule="evenodd" d="M32.2379 48.6578C29.1216 48.6578 29.2533 49.051 29.2972 45.7744C29.2972 44.4201 29.5166 44.1579 30.8773 44.1143C31.9307 44.1143 32.9841 44.1143 34.0813 44.1579C34.9153 44.1579 35.3981 44.5074 35.3542 45.4249C35.3103 46.0365 35.3103 46.6482 35.3542 47.3035C35.442 48.352 34.9153 48.7452 33.9058 48.7015C33.3352 48.6578 32.7646 48.6578 32.2379 48.6578Z" fill="#F58B71"/>
<path fill-rule="evenodd" clip-rule="evenodd" d="M32.2379 48.6578C29.1216 48.6578 29.2533 49.051 29.2972 45.7744C29.2972 44.4201 29.5166 44.1579 30.8773 44.1143C31.9307 44.1143 32.9841 44.1143 34.0813 44.1579C34.9153 44.1579 35.3981 44.5074 35.3542 45.4249C35.3103 46.0365 35.3103 46.6482 35.3542 47.3035C35.442 48.352 34.9153 48.7452 33.9058 48.7015C33.3352 48.6578 32.7646 48.6578 32.2379 48.6578Z" stroke="#F58B71" stroke-width="0.0135276"/>
<path fill-rule="evenodd" clip-rule="evenodd" d="M32.2343 56.4358C28.9424 56.4795 29.2936 56.6543 29.2936 53.5524C29.2936 52.1107 29.4252 51.9797 30.9175 51.9797C31.8831 51.9797 32.8926 51.9797 33.9021 51.9797C34.1216 51.9797 34.3849 51.936 34.5605 52.0234C36.1405 52.8097 35.0872 54.2514 35.3066 55.3873C35.4822 56.0863 34.9116 56.4358 34.2093 56.4358C33.551 56.4358 32.8926 56.4358 32.2343 56.4358Z" fill="#F58B71"/>
<path fill-rule="evenodd" clip-rule="evenodd" d="M32.2343 56.4358C28.9424 56.4795 29.2936 56.6543 29.2936 53.5524C29.2936 52.1107 29.4252 51.9797 30.9175 51.9797C31.8831 51.9797 32.8926 51.9797 33.9021 51.9797C34.1216 51.9797 34.3849 51.936 34.5605 52.0234C36.1405 52.8097 35.0872 54.2514 35.3066 55.3873C35.4822 56.0863 34.9116 56.4358 34.2093 56.4358C33.551 56.4358 32.8926 56.4358 32.2343 56.4358Z" stroke="#F58B71" stroke-width="0.0135276"/>
<path fill-rule="evenodd" clip-rule="evenodd" d="M38.4871 90.8332C44.2752 93.0264 50.606 94.235 57.2404 94.235C65.448 94.235 73.1729 92.3564 80.02 89.0798C71.6806 95.3708 61.2784 99.128 49.9544 99.128C43.5438 99.128 37.4152 97.9199 31.7859 95.72L38.4871 90.8332ZM24.4408 82.7547C14.0097 74.2467 7.42371 61.7523 7.42371 47.8383C7.42371 22.2372 29.7205 1.4417 57.2404 1.4417C59.2594 1.4417 61.2784 1.57277 63.2096 1.79121C58.996 0.611632 54.563 0 49.9544 0C22.4784 0 0.181641 22.1935 0.181641 49.5858C0.181641 67.0372 9.26045 82.3895 22.9705 91.2157L24.4408 82.7547Z" fill="#F47D5C"/>
<path d="M28.4568 79.6162L21.522 102.072L39.9124 85.1209L28.4568 79.6162Z" fill="#377044"/>
<path fill-rule="evenodd" clip-rule="evenodd" d="M15.8337 48.6527C15.8337 69.754 33.0391 86.836 54.1946 86.836C68.271 86.836 80.567 79.3047 87.2409 68.0663H92.0541C84.9836 81.709 70.6895 91.0301 54.1946 91.0301C30.6689 91.0301 11.6201 72.0695 11.6201 48.6527C11.6201 25.236 30.6689 6.27539 54.1946 6.27539C69.8798 6.27539 83.5748 14.7037 90.9611 27.2617H85.9828C79.0886 17.1261 67.4284 10.4694 54.1946 10.4694C33.0391 10.4694 15.8337 27.5514 15.8337 48.6527Z" fill="#377044"/>
<path d="M61.6807 37.5162V48.1324C61.5051 48.176 61.3296 48.2197 61.154 48.2634C60.9345 48.3071 60.6712 48.3508 60.4078 48.3508C59.7495 48.3508 59.3106 48.2197 59.0911 48.0013C58.8716 47.8265 58.74 47.477 58.74 46.9965V37.5162H57.3793C57.0721 37.5162 56.8526 37.4288 56.721 37.2104C56.5893 37.0356 56.5454 36.7735 56.5454 36.3803C56.5454 36.2492 56.5454 36.0745 56.5893 35.856C56.6332 35.6376 56.6771 35.4628 56.721 35.3755H58.5644C58.4327 35.157 58.3888 34.9386 58.3011 34.7201C58.2572 34.458 58.2572 34.1959 58.2572 33.8901C58.2572 33.2784 58.3888 32.7105 58.6961 32.1862C59.0472 31.662 59.4861 31.2251 60.1006 30.8319C60.759 30.4387 61.5051 30.1766 62.4268 29.9582C63.3486 29.7397 64.4458 29.6523 65.6309 29.6523C66.7282 29.6523 67.8255 29.696 68.835 29.8271C69.8883 30.0018 70.854 30.1766 71.7318 30.395C72.6535 30.6135 73.4435 30.8756 74.1458 31.1814C74.8919 31.4872 75.4625 31.7931 75.9014 32.0552C76.2526 32.2736 76.5159 32.4921 76.6915 32.7105C76.8671 32.8853 76.9548 33.1037 76.9548 33.3221C76.9548 33.6279 76.8671 33.8901 76.6476 34.0648C76.4281 34.2833 76.1209 34.4143 75.7259 34.458C75.1114 34.1522 74.453 33.8027 73.7069 33.5406C73.0046 33.2348 72.2146 32.9726 71.3806 32.7105C70.5467 32.4921 69.6689 32.3173 68.7472 32.1862C67.8255 32.0552 66.8598 31.9678 65.8942 31.9678C64.358 31.9678 63.173 32.1862 62.3829 32.6231C61.6368 33.0163 61.2418 33.5843 61.2418 34.2833C61.2418 34.458 61.2857 34.6765 61.3296 34.8512C61.3734 35.026 61.4612 35.2007 61.549 35.3755H62.9974C63.568 35.3755 63.8314 35.725 63.8314 36.424C63.8314 36.5987 63.8314 36.7735 63.7875 36.9919C63.7436 37.2104 63.6997 37.3851 63.6119 37.5162H61.6807Z" fill="#377044"/>
<path d="M72.416 44.6349C72.021 44.766 71.5382 44.8097 71.0554 44.8097C70.5726 44.8097 70.2214 44.7223 70.002 44.4602C69.7386 44.2417 69.6509 43.8922 69.6509 43.4553C69.6509 42.8874 69.7386 42.3631 69.9142 41.8826C69.607 41.7515 69.2997 41.6641 68.9486 41.6641C68.2902 41.6641 67.8074 41.8826 67.5002 42.2758C67.1491 42.6689 66.9735 43.1495 66.9735 43.7175C66.9735 44.198 67.0613 44.5912 67.2368 44.897C67.4124 45.2465 67.6319 45.5087 67.9391 45.7271C68.2024 45.9455 68.5097 46.0766 68.8608 46.2077C69.1681 46.3387 69.5192 46.4261 69.8703 46.4698C69.8703 46.5135 69.8703 46.6009 69.8703 46.6882C69.8703 46.7319 69.8703 46.8193 69.8703 46.9067C69.8703 47.3436 69.7825 47.6931 69.5192 47.9989C69.2558 48.3047 68.8169 48.4794 68.1586 48.4794C67.6758 48.4794 67.1491 48.3484 66.6663 48.1299C66.1396 47.9115 65.7006 47.6057 65.3056 47.2125C64.9106 46.7756 64.6034 46.295 64.34 45.6834C64.0767 45.1155 63.945 44.4165 63.945 43.6738C63.945 42.9748 64.0767 42.3631 64.2961 41.7952C64.5595 41.2709 64.8667 40.7904 65.2617 40.4409C65.6568 40.0914 66.1396 39.7855 66.6224 39.6108C67.1491 39.436 67.6758 39.3487 68.2463 39.3487C68.8608 39.3487 69.4314 39.436 69.8703 39.6108C70.3092 39.7855 70.7042 39.9603 71.0554 40.2224C71.4065 39.9603 71.8015 39.7418 72.2404 39.5671C72.6794 39.3923 73.2061 39.3487 73.7327 39.3487C73.9083 39.3487 74.0839 39.3487 74.2156 39.3487C74.3472 39.3487 74.5228 39.3923 74.6545 39.436V37.5138H63.3305C63.0233 37.5138 62.8038 37.4264 62.6721 37.2079C62.5405 37.0332 62.4966 36.7711 62.4966 36.3779C62.4966 36.2468 62.4966 36.0721 62.5405 35.8536C62.5844 35.6352 62.6283 35.4604 62.6721 35.373H78.9119C79.4825 35.373 79.7458 35.7226 79.7458 36.4216C79.7458 36.5963 79.7458 36.7711 79.702 36.9895C79.6581 37.2079 79.6142 37.3827 79.5264 37.5138H77.5952V48.1299C77.4196 48.1736 77.2879 48.2173 77.0685 48.261C76.849 48.3047 76.6296 48.3484 76.3223 48.3484C75.664 48.3484 75.225 48.2173 75.0056 47.9989C74.7861 47.8241 74.6545 47.4746 74.6545 46.9941V41.7078C74.6106 41.7078 74.5667 41.6641 74.5228 41.6641C74.4789 41.6641 74.435 41.6641 74.3472 41.6641C73.6889 41.6641 73.2061 41.8826 72.8988 42.3631C72.5916 42.8 72.416 43.5427 72.416 44.6349Z" fill="#377044"/>
<path d="M89.2487 41.9699C89.2487 42.3631 89.4243 42.6253 89.6876 42.8437C89.9949 43.0621 90.346 43.1932 90.7849 43.1932C91.0921 43.1932 91.3994 43.1495 91.6188 43.0621C91.8822 42.9748 92.1016 42.8874 92.2772 42.7563V37.5138H85.079C85.3424 37.8196 85.5618 38.1691 85.6935 38.5186C85.8252 38.9118 85.913 39.3487 85.913 39.7855C85.913 40.703 85.6496 41.4894 85.1668 42.0573C84.684 42.6689 84.0256 43.0621 83.2356 43.3243C83.6306 44.1106 84.289 44.7223 85.1229 45.1592C85.9569 45.6397 86.9225 45.9019 87.9759 45.9455C88.0636 46.2077 88.1075 46.4261 88.1075 46.6882C88.1075 47.1688 87.932 47.6057 87.6247 47.8678C87.3175 48.1736 86.8786 48.3047 86.308 48.3047C85.6496 48.3047 85.0351 48.1736 84.4207 47.9552C83.8501 47.6931 83.3234 47.3872 82.8406 46.9504C82.3578 46.5572 81.9627 46.0766 81.5677 45.5087C81.2166 44.9407 80.9094 44.3291 80.6899 43.6738C80.3388 43.6738 79.9876 43.5427 79.7682 43.3679C79.5048 43.1495 79.4171 42.8 79.4171 42.3631C79.4171 42.101 79.4609 41.8826 79.5487 41.6641C79.6365 41.4457 79.7243 41.2709 79.856 41.1399C80.0315 41.1399 80.1632 41.1836 80.3827 41.2272C80.5582 41.2272 80.7777 41.2709 80.9971 41.2709C81.6116 41.2709 82.0944 41.0962 82.4017 40.7467C82.7528 40.3972 82.8845 39.9603 82.8845 39.436C82.8845 39.0428 82.8406 38.6496 82.665 38.3438C82.4894 37.9943 82.3139 37.7322 82.0505 37.5138H79.1537C78.8026 37.5138 78.5831 37.4264 78.4514 37.2079C78.3637 37.0332 78.2759 36.7711 78.2759 36.3779C78.2759 36.2468 78.3198 36.0721 78.3198 35.8536C78.3637 35.6352 78.4076 35.4604 78.4514 35.373H96.5347C97.1052 35.373 97.3686 35.7226 97.3686 36.4216C97.3686 36.5963 97.3686 36.7711 97.3247 36.9895C97.2808 37.2079 97.2369 37.3827 97.1491 37.5138H95.2179V48.1299C95.0424 48.1736 94.8668 48.2173 94.6912 48.261C94.4718 48.3047 94.2084 48.3484 93.9451 48.3484C93.2867 48.3484 92.8478 48.2173 92.6283 47.9989C92.4089 47.8241 92.2772 47.4746 92.2772 46.9941V44.9407C91.7505 45.1592 91.0921 45.2902 90.346 45.2902C89.8193 45.2902 89.3804 45.2028 88.9415 45.0281C88.4587 44.897 88.0636 44.6786 87.7125 44.3728C87.3614 44.1106 87.098 43.7611 86.8786 43.3243C86.6591 42.8874 86.5713 42.4068 86.5713 41.8389C86.5713 41.3146 86.6591 40.834 86.8347 40.4409C87.0102 40.0477 87.2297 39.6982 87.5369 39.436C87.8442 39.1739 88.1953 38.9555 88.5903 38.8244C88.9854 38.6933 89.4243 38.6496 89.8632 38.6496C90.4338 38.6496 90.8727 38.737 91.1799 38.9992C91.4872 39.2176 91.6188 39.5234 91.6188 39.8729C91.6188 40.3098 91.4872 40.6156 91.2677 40.8777C91.0482 40.7904 90.8288 40.7467 90.5654 40.7467C90.2143 40.7467 89.9071 40.8777 89.6437 41.0525C89.3804 41.2709 89.2487 41.5767 89.2487 41.9699Z" fill="#377044"/>
<path d="M101.161 37.5155V48.1317C101.029 48.1754 100.81 48.2191 100.634 48.2628C100.415 48.3064 100.195 48.3501 99.8882 48.3501C99.2298 48.3501 98.7909 48.2191 98.5714 48.0006C98.352 47.8259 98.2203 47.4764 98.2203 46.9958V37.5155H96.8597C96.5524 37.5155 96.333 37.4281 96.2013 37.2097C96.0696 37.0349 96.0258 36.7728 96.0258 36.3796C96.0258 36.2486 96.0258 36.0738 96.0696 35.8554C96.1135 35.6369 96.1574 35.4622 96.2013 35.3748H98.2642C98.0448 34.9379 97.7375 34.5447 97.3425 34.1952C96.9914 33.8457 96.5963 33.5399 96.2013 33.2778C95.8063 32.972 95.3674 32.7535 94.9724 32.5351C94.5335 32.3603 94.1384 32.1856 93.7873 32.0982C93.7873 32.0108 93.7434 31.9671 93.7434 31.8798C93.7434 31.8361 93.7434 31.7924 93.7434 31.705C93.7434 31.2244 93.919 30.7876 94.1823 30.4381C94.4457 30.0886 94.8407 29.8701 95.4113 29.8701C95.938 29.8701 96.4647 30.0449 96.9914 30.3507C97.5181 30.6565 98.0009 31.0934 98.4837 31.5739C98.9665 32.0982 99.4054 32.7098 99.8443 33.3215C100.239 33.9768 100.547 34.6758 100.81 35.3748H102.478C103.048 35.3748 103.356 35.7243 103.356 36.4233C103.356 36.5981 103.312 36.7728 103.268 36.9913C103.224 37.2097 103.18 37.3845 103.092 37.5155H101.161Z" fill="#377044"/>
<path d="M72.8642 59.3272C73.0836 59.2835 73.347 59.2398 73.6103 59.1961C73.8298 59.1525 74.0931 59.1088 74.4004 59.1088C75.1904 59.1088 75.8049 59.2835 76.2438 59.633C76.6827 59.9825 76.8582 60.4631 76.8582 61.031C76.8582 61.3805 76.8144 61.6864 76.6388 61.9485C76.5071 62.2106 76.2877 62.4291 76.0243 62.6038C75.761 62.7786 75.4537 62.9096 75.0587 62.9533C74.7076 63.0407 74.3126 63.0844 73.8737 63.0844C73.8298 63.0844 73.7859 63.0844 73.742 63.0844C73.6981 63.0844 73.6542 63.0844 73.6103 63.0844C73.8737 63.3028 74.0931 63.4776 74.3565 63.696C74.6198 63.8708 74.8832 64.0455 75.1904 64.2203C75.1904 64.5261 75.1026 64.7445 74.9271 64.9193C74.7515 65.094 74.532 65.1814 74.2248 65.1814C73.9176 65.1814 73.6103 65.094 73.3909 64.8756C73.1275 64.6571 72.8642 64.3076 72.6008 63.8708L72.0742 62.9533C71.6352 62.8222 71.328 62.6912 71.0647 62.4727C70.8452 62.298 70.7135 62.0359 70.7135 61.7737C70.7135 61.599 70.7574 61.4242 70.8891 61.2932C70.9769 61.1621 71.1524 61.0747 71.2841 60.9874C71.5914 61.2495 71.9425 61.4679 72.3814 61.6427C72.7764 61.8174 73.3031 61.9048 73.8298 61.9048C74.3126 61.9048 74.6637 61.8611 74.9271 61.6864C75.1465 61.5116 75.2782 61.3369 75.2782 61.0747C75.2782 60.5505 74.8393 60.2883 73.9615 60.2883C73.742 60.2883 73.4787 60.2883 73.2592 60.332C72.9959 60.3757 72.7764 60.4631 72.5569 60.5068C72.3375 60.4631 72.1619 60.3757 71.9425 60.2447C71.7669 60.1573 71.5914 60.0262 71.4158 59.8515C71.2402 59.6767 71.1086 59.502 70.9769 59.2835C70.8891 59.0651 70.8452 58.8466 70.8452 58.5845C70.8452 58.0603 71.0208 57.6671 71.3719 57.3613C71.723 57.0118 72.2497 56.8807 72.952 56.8807H74.7515V55.8759H70.143C69.8357 55.8759 69.6602 55.6574 69.6602 55.2642C69.6602 55.1769 69.704 55.0895 69.704 54.9584C69.704 54.871 69.7479 54.7837 69.7918 54.6963H77.3849C77.7361 54.6963 77.8677 54.9147 77.8677 55.3079C77.8677 55.3516 77.8677 55.4827 77.8677 55.57C77.8238 55.7011 77.8238 55.7885 77.78 55.8759H76.3316V57.4049C76.3316 57.7981 76.1121 58.0166 75.6732 58.0166H73.3031C72.9959 58.0166 72.7764 58.0603 72.6447 58.1913C72.5131 58.3224 72.4253 58.4535 72.4253 58.6719C72.4253 58.803 72.4692 58.9777 72.5569 59.0651C72.6447 59.1961 72.7325 59.2835 72.8642 59.3272Z" fill="#373435"/>
<path d="M74.5439 52.6281C74.5439 52.366 74.6317 52.1476 74.8073 51.9728C74.9829 51.7981 75.2462 51.667 75.5534 51.667C75.8607 51.667 76.0801 51.7981 76.2557 51.9728C76.4313 52.1476 76.519 52.366 76.519 52.6281C76.519 52.8903 76.4313 53.1087 76.2557 53.2834C76.0801 53.5019 75.8607 53.5893 75.5534 53.5893C75.2462 53.5893 74.9829 53.5019 74.8073 53.2834C74.6317 53.1087 74.5439 52.8903 74.5439 52.6281Z" fill="#373435"/>
<path d="M80.0195 55.8743V62.9517C79.9317 62.9954 79.8439 62.9954 79.7561 63.0391C79.6244 63.0391 79.4928 63.0391 79.3611 63.0391C79.01 63.0391 78.7905 62.9954 78.6588 62.908C78.5272 62.777 78.4833 62.6022 78.4833 62.3401V55.8743H77.4738C77.2982 55.8743 77.1665 55.8306 77.0787 55.6995C77.0349 55.6122 76.991 55.4811 76.991 55.2627C76.991 55.1753 76.991 55.0879 76.991 54.9568C77.0349 54.8695 77.0349 54.7821 77.0787 54.6947H78.3955C78.3077 54.5637 78.2638 54.4326 78.2199 54.2141C78.176 54.0394 78.1321 53.821 78.1321 53.6462C78.1321 52.8598 78.4394 52.2482 79.0539 51.7676C79.7122 51.3307 80.5462 51.1123 81.6873 51.1123C82.4335 51.1123 83.0918 51.1997 83.7063 51.3307C84.2769 51.5055 84.8036 51.7239 85.2425 51.9861C85.6814 52.2045 86.0326 52.4666 86.252 52.7288C86.5154 52.9909 86.6031 53.2093 86.6031 53.3841C86.6031 53.5588 86.5154 53.6899 86.3398 53.821C86.2081 53.952 85.9448 53.9957 85.6814 53.9957C85.1986 53.5151 84.6719 53.0783 84.0136 52.8161C83.3991 52.5103 82.6529 52.3356 81.819 52.3356C81.1606 52.3356 80.6339 52.4666 80.2828 52.7288C79.9317 52.9909 79.7561 53.3841 79.7561 53.8646C79.7561 53.9957 79.7561 54.1705 79.8 54.3015C79.8439 54.4763 79.8878 54.6073 79.9317 54.6947H80.9851C81.3362 54.6947 81.4679 54.9132 81.4679 55.3063C81.4679 55.35 81.4679 55.4811 81.424 55.5685C81.424 55.6995 81.3801 55.7869 81.3801 55.8743H80.0195Z" fill="#373435"/>
<path d="M83.7939 59.3272C84.0134 59.2835 84.2767 59.2398 84.5401 59.1961C84.7595 59.1525 85.0229 59.1088 85.3301 59.1088C86.1202 59.1088 86.7785 59.2835 87.1736 59.633C87.6125 59.9825 87.788 60.4631 87.788 61.031C87.788 61.7301 87.5247 62.2543 86.998 62.6038C86.4274 62.9533 85.7251 63.1281 84.8034 63.1281C84.3645 63.1281 83.9695 63.1281 83.6184 63.0407C83.2233 62.9533 82.8722 62.8659 82.6088 62.7786C82.3016 62.6475 82.0822 62.5164 81.9066 62.3417C81.731 62.1669 81.6432 61.9922 81.6432 61.7737C81.6432 61.5553 81.6871 61.4242 81.8188 61.2932C81.9505 61.1621 82.0822 61.0747 82.2138 60.9874C82.5211 61.2495 82.8722 61.4679 83.2672 61.6427C83.7061 61.8174 84.2328 61.9048 84.7595 61.9048C85.2423 61.9048 85.5935 61.8611 85.8568 61.6864C86.0763 61.5116 86.2079 61.3369 86.2079 61.0747C86.2079 60.5505 85.769 60.2883 84.8912 60.2883C84.6717 60.2883 84.4084 60.2883 84.1889 60.332C83.9256 60.3757 83.7061 60.4631 83.4867 60.5068C83.2672 60.4631 83.0917 60.3757 82.8722 60.2447C82.6966 60.1573 82.5211 60.0262 82.3455 59.8515C82.1699 59.6767 82.0383 59.502 81.9066 59.2835C81.8188 59.0651 81.7749 58.8466 81.7749 58.5845C81.7749 58.0603 81.9505 57.6671 82.3016 57.3613C82.6527 57.0118 83.1794 56.8807 83.8817 56.8807H85.6812V55.8759H81.0726C80.7654 55.8759 80.5898 55.6574 80.5898 55.2642C80.5898 55.1769 80.6337 55.0895 80.6337 54.9584C80.6337 54.871 80.6776 54.7837 80.7215 54.6963H88.3586C88.6659 54.6963 88.8414 54.9147 88.8414 55.3079C88.8414 55.3516 88.7975 55.4827 88.7975 55.57C88.7975 55.7011 88.7536 55.7885 88.7098 55.8759H87.2613V57.4049C87.2613 57.7981 87.0419 58.0166 86.603 58.0166H84.2328C83.9256 58.0166 83.7061 58.0603 83.5745 58.1913C83.4428 58.3224 83.355 58.4535 83.355 58.6719C83.355 58.803 83.3989 58.9777 83.4867 59.0651C83.5745 59.1961 83.6622 59.2835 83.7939 59.3272Z" fill="#373435"/>
<path d="M95.7771 55.8759V62.9533C95.7332 62.997 95.6455 62.997 95.5138 63.0407C95.3821 63.0407 95.2943 63.0407 95.1188 63.0407C94.8115 63.0407 94.5482 62.997 94.4604 62.9096C94.3287 62.7786 94.2409 62.6038 94.2409 62.3417V60.9874C94.0215 61.1621 93.7143 61.3369 93.407 61.4242C93.0998 61.5116 92.7487 61.5553 92.3097 61.5553C91.6514 61.5553 91.0808 61.4242 90.598 61.1621C90.0713 60.9 89.6763 60.5068 89.4129 60.0699C89.2374 59.8515 89.1057 59.5457 89.0179 59.2835C88.9301 58.9777 88.8863 58.7593 88.8863 58.5408C88.8863 58.4535 88.8863 58.3224 88.9301 58.235C88.974 58.1913 89.0618 58.1039 89.1935 58.1039C89.7641 58.0603 90.1591 57.9292 90.4224 57.7544C90.6858 57.536 90.8175 57.2739 90.8175 56.9244C90.8175 56.6622 90.7297 56.4875 90.6419 56.3127C90.5102 56.0943 90.3347 55.9632 90.1152 55.8759H88.4035C88.0962 55.8759 87.9207 55.6574 87.9207 55.2642C87.9207 55.1769 87.9207 55.0895 87.9645 54.9584C87.9645 54.871 88.0084 54.7837 88.0523 54.6963H96.7427C96.9183 54.6963 97.05 54.74 97.1377 54.871C97.1816 54.9584 97.2255 55.0895 97.2255 55.3079C97.2255 55.3516 97.2255 55.4827 97.2255 55.57C97.1816 55.7011 97.1816 55.7885 97.1377 55.8759H95.7771ZM92.4853 60.2883C92.8803 60.2883 93.2315 60.201 93.5387 60.0699C93.8459 59.8952 94.0654 59.7641 94.2409 59.5457V55.8759H91.7831C91.9586 56.0069 92.0903 56.1817 92.222 56.4001C92.3536 56.6186 92.4414 56.837 92.4414 57.0991C92.4414 57.4049 92.3536 57.6234 92.2659 57.8418C92.1781 58.0603 92.0464 58.235 91.8708 58.4098C91.6953 58.5408 91.4758 58.6719 91.2564 58.7593C90.993 58.8466 90.7736 58.934 90.4663 58.9777C90.598 59.3272 90.8175 59.633 91.1686 59.8952C91.4758 60.1573 91.9147 60.2883 92.4853 60.2883Z" fill="#373435"/>
<path d="M99.4758 55.8759V62.9533C99.388 62.997 99.3002 62.997 99.1685 63.0407C99.0807 63.0407 98.9491 63.0407 98.7735 63.0407C98.4662 63.0407 98.2468 62.997 98.1151 62.9096C97.9834 62.7786 97.8956 62.6038 97.8956 62.3417V55.8759H96.8861C96.7106 55.8759 96.5789 55.8322 96.535 55.7011C96.4472 55.6137 96.4033 55.4827 96.4033 55.2642C96.4033 55.1769 96.4472 55.0895 96.4472 54.9584C96.4472 54.871 96.4911 54.7837 96.4911 54.6963H100.441C100.749 54.6963 100.924 54.9147 100.924 55.3079C100.924 55.3516 100.88 55.4827 100.88 55.57C100.836 55.7011 100.836 55.7885 100.793 55.8759H99.4758Z" fill="#373435"/>
</svg>
