<svg width="122" height="103" viewBox="0 0 122 103" fill="none" xmlns="http://www.w3.org/2000/svg">
<path fill-rule="evenodd" clip-rule="evenodd" d="M39.1343 90.8191C44.9263 93.0212 51.262 94.235 57.9 94.235C66.1077 94.235 73.8764 92.3564 80.7234 89.0798C72.3402 95.3709 61.938 99.128 50.6579 99.128C44.2278 99.128 38.0829 97.9164 32.4409 95.7105L39.1343 90.8191ZM25.1098 82.7322C14.7017 74.2247 8.12726 61.74 8.12726 47.8383C8.12726 22.2372 30.424 1.4417 57.9 1.4417C59.919 1.4417 61.938 1.57277 63.9131 1.79121C59.6995 0.611632 55.2226 0 50.6579 0C23.1381 0 0.841309 22.1935 0.841309 49.5859C0.841309 67.0349 9.91773 82.3855 23.6362 91.2123L25.1098 82.7322Z" fill="#F47D5C"/>
<path d="M29.1653 79.6162L22.2305 102.072L40.577 85.1209L29.1653 79.6162Z" fill="#377044"/>
<path fill-rule="evenodd" clip-rule="evenodd" d="M16.5031 48.6527C16.5031 69.754 33.6646 86.836 54.8641 86.836C68.9117 86.836 81.2176 79.3043 87.9011 68.0653H92.6814C85.6138 81.7085 71.3286 91.0301 54.8641 91.0301C31.3384 91.0301 12.2896 72.0695 12.2896 48.6527C12.2896 25.236 31.3384 6.27539 54.8641 6.27539C70.5196 6.27539 84.2046 14.7033 91.5878 27.2607H86.6401C79.7368 17.1257 68.0701 10.4694 54.8641 10.4694C33.6646 10.4694 16.5031 27.5514 16.5031 48.6527Z" fill="#377044"/>
<path fill-rule="evenodd" clip-rule="evenodd" d="M36.132 60.0204C33.7619 60.0204 31.4796 60.0641 29.1533 59.9767C27.5294 59.933 26.3882 58.7098 26.3882 57.0496C26.3882 49.9722 26.3882 42.8947 26.3882 35.8609C26.3882 34.2008 27.661 32.9775 29.285 32.9775C34.9909 32.9775 40.6967 32.9775 46.4026 32.9775C47.9388 32.9775 49.2116 34.0697 49.2555 35.5551C49.2994 39.3123 49.2555 43.0695 49.2555 46.8703C48.3777 46.3898 47.4999 45.9966 46.622 45.516C46.4904 45.4286 46.4465 45.0354 46.4465 44.7733C46.4465 42.0646 46.4465 39.356 46.4465 36.6473V35.8173H29.3289V57.137C30.909 57.137 32.4891 57.137 34.0691 57.137C34.5081 57.137 34.7714 57.2244 34.947 57.7049C35.2981 58.4476 35.6931 59.1466 36.132 60.0204Z" fill="#F58B71"/>
<path fill-rule="evenodd" clip-rule="evenodd" d="M36.132 60.0204C33.7619 60.0204 31.4796 60.0641 29.1533 59.9767C27.5294 59.933 26.3882 58.7098 26.3882 57.0496C26.3882 49.9722 26.3882 42.8947 26.3882 35.8609C26.3882 34.2008 27.661 32.9775 29.285 32.9775C34.9909 32.9775 40.6967 32.9775 46.4026 32.9775C47.9388 32.9775 49.2116 34.0697 49.2555 35.5551C49.2994 39.3123 49.2555 43.0695 49.2555 46.8703C48.3777 46.3898 47.4999 45.9966 46.622 45.516C46.4904 45.4286 46.4465 45.0354 46.4465 44.7733C46.4465 42.0646 46.4465 39.356 46.4465 36.6473V35.8173H29.3289V57.137C30.909 57.137 32.4891 57.137 34.0691 57.137C34.5081 57.137 34.7714 57.2244 34.947 57.7049C35.2981 58.4476 35.6931 59.1466 36.132 60.0204Z" stroke="#F58B71" stroke-width="0.0116378"/>
<path fill-rule="evenodd" clip-rule="evenodd" d="M47.916 54.342C47.8721 51.9829 45.9409 50.0169 43.5708 50.0169C41.2884 50.0169 39.2694 51.9829 39.2694 54.2546C39.2694 56.6575 41.2445 58.6234 43.6147 58.6234C45.9409 58.5798 47.916 56.6138 47.916 54.342ZM49.54 58.2739C50.9006 59.5846 52.2612 60.8515 53.5341 62.0748C52.8318 62.7738 52.1735 63.4291 51.4712 64.1281C50.5934 63.2981 49.5839 62.3806 48.6622 61.3758C47.9599 60.5894 47.4332 60.371 46.292 60.8515C43.6585 61.9874 41.069 61.5505 38.8744 59.6283C36.6798 57.6623 35.9337 55.1721 36.7237 52.3761C37.5138 49.58 39.4889 47.7888 42.3857 47.3083C45.1947 46.8277 47.5649 47.7888 49.2766 50.0606C50.9884 52.3761 51.164 54.8663 50.0228 57.4439C49.8911 57.706 49.7594 57.9244 49.54 58.2739Z" fill="#F58B71"/>
<path fill-rule="evenodd" clip-rule="evenodd" d="M47.916 54.342C47.8721 51.9829 45.9409 50.0169 43.5708 50.0169C41.2884 50.0169 39.2694 51.9829 39.2694 54.2546C39.2694 56.6575 41.2445 58.6234 43.6147 58.6234C45.9409 58.5798 47.916 56.6138 47.916 54.342ZM49.54 58.2739C50.9006 59.5846 52.2612 60.8515 53.5341 62.0748C52.8318 62.7738 52.1735 63.4291 51.4712 64.1281C50.5934 63.2981 49.5839 62.3806 48.6622 61.3758C47.9599 60.5894 47.4332 60.371 46.292 60.8515C43.6585 61.9874 41.069 61.5505 38.8744 59.6283C36.6798 57.6623 35.9337 55.1721 36.7237 52.3761C37.5138 49.58 39.4889 47.7888 42.3857 47.3083C45.1947 46.8277 47.5649 47.7888 49.2766 50.0606C50.9884 52.3761 51.164 54.8663 50.0228 57.4439C49.8911 57.706 49.7594 57.9244 49.54 58.2739Z" stroke="#F58B71" stroke-width="0.0116378"/>
<path d="M74.6385 48.3603C73.9801 48.3603 73.4095 48.273 72.8829 48.0545C72.3562 47.8798 71.9611 47.6176 71.61 47.2681C70.82 48.0108 69.8105 48.3603 68.4937 48.3603C67.572 48.3603 66.782 48.1856 66.1675 47.7487C65.5091 47.3118 64.9824 46.6565 64.5874 45.7827L64.1924 44.9527C63.9729 44.5158 63.7535 44.21 63.534 43.9915C63.2706 43.7731 63.0073 43.6857 62.6562 43.6857C62.305 43.6857 61.9978 43.8168 61.7783 44.0352C61.5589 44.2973 61.4711 44.6469 61.4711 45.1274C61.4711 45.5643 61.5589 45.9575 61.7344 46.307C61.91 46.7002 62.1295 47.006 62.4367 47.2681C62.3489 47.5739 62.1734 47.8361 61.91 48.0545C61.6906 48.273 61.3833 48.3603 60.9883 48.3603C60.7249 48.3603 60.4177 48.273 60.1544 48.1419C59.8471 47.9671 59.6277 47.7487 59.4082 47.4429C59.1888 47.1808 59.0132 46.8312 58.8815 46.4381C58.7498 46.0449 58.7059 45.608 58.7059 45.1274C58.7059 44.5158 58.7937 43.9915 59.0132 43.5547C59.1888 43.0741 59.4521 42.6809 59.8032 42.3751C60.1544 42.0693 60.5494 41.8071 61.0322 41.6324C61.515 41.4576 62.0417 41.3703 62.6123 41.3703C63.6218 41.3703 64.4118 41.5887 65.0263 42.0693C65.6408 42.5061 66.1236 43.1178 66.5186 43.9042L67.0453 44.9964C67.2209 45.3459 67.4403 45.608 67.6598 45.8264C67.9231 46.0012 68.2304 46.1322 68.5815 46.1322C69.0643 46.1322 69.4154 45.9138 69.6788 45.5206C69.9421 45.1274 70.0738 44.6032 70.0738 43.9042C70.0738 43.2488 69.986 42.6809 69.7666 42.1129C69.5471 41.5887 69.2399 41.1081 68.8887 40.6712C68.4937 40.2344 68.0548 39.8849 67.572 39.6227C67.0892 39.3606 66.5625 39.1422 66.0358 39.0548H58.8815C58.7937 38.88 58.7498 38.7053 58.7059 38.5742C58.6621 38.3995 58.6182 38.2247 58.6182 38.05C58.6182 37.7005 58.7059 37.3946 58.8815 37.2199C59.101 37.0451 59.3204 36.9578 59.6277 36.9578H69.5471C69.9421 36.9578 70.2494 36.8267 70.4688 36.6083C70.6883 36.3898 70.82 36.084 70.82 35.7345C70.82 35.4724 70.7322 35.2103 70.6005 35.0792C70.4688 34.9044 70.2494 34.8607 69.986 34.8607C69.8105 34.8607 69.591 34.9044 69.4593 35.0355C69.2838 35.1666 69.196 35.3413 69.196 35.6034C69.196 35.7345 69.2399 35.8219 69.2399 35.9093C69.196 35.9966 69.0643 36.0403 68.8887 36.084C68.7132 36.084 68.5376 36.1277 68.362 36.1277C68.0109 36.1277 67.7037 36.0403 67.4842 35.8219C67.2648 35.6034 67.177 35.3413 67.177 34.9918C67.177 34.3802 67.4403 33.8996 67.9231 33.5064C68.4059 33.1132 69.1082 32.9385 70.0299 32.9385C70.4249 32.9385 70.82 32.9822 71.215 33.1132C71.5661 33.2443 71.9172 33.419 72.1806 33.6812C72.4878 33.9433 72.7073 34.2054 72.8829 34.5986C73.0145 34.9481 73.1023 35.385 73.1023 35.8219C73.1023 36.6956 72.839 37.3946 72.3123 37.9626C71.7856 38.4868 71.1272 38.8364 70.2494 39.0111C70.6005 39.2295 70.9516 39.5354 71.2589 39.8849C71.61 40.2344 71.8734 40.6276 72.0928 41.0644C72.3562 41.5013 72.5317 41.9819 72.6634 42.4625C72.7951 42.9867 72.8829 43.511 72.8829 44.0352C72.8829 44.2537 72.839 44.4284 72.839 44.6469C72.7951 44.8216 72.7512 44.9964 72.7073 45.1711C72.8829 45.4769 73.1023 45.7391 73.4095 45.8701C73.6729 46.0449 73.9801 46.1322 74.3752 46.1322C74.8141 46.1322 75.2091 46.0012 75.4724 45.6954C75.7358 45.3895 75.8675 44.9964 75.8675 44.4284C75.8675 44.1226 75.8675 43.8605 75.8675 43.5983C75.8675 43.2925 75.8675 43.0304 75.8675 42.7246C75.8675 41.5887 76.043 40.6276 76.3942 39.8412C76.7453 39.0985 77.2281 38.4432 77.7987 37.9626C78.3693 37.482 79.0276 37.1325 79.7738 36.9141C80.5199 36.6956 81.31 36.5646 82.0561 36.5646C83.0218 36.5646 83.8996 36.7393 84.6896 37.0451C85.4797 37.351 86.138 37.7442 86.6647 38.3121C87.2353 38.8364 87.6303 39.5354 87.9376 40.2781C88.2448 41.0208 88.3765 41.8945 88.3765 42.812C88.3765 43.7294 88.2887 44.5158 88.0693 45.1711C87.8498 45.8701 87.5426 46.4381 87.1036 46.9186C86.7086 47.3992 86.2258 47.7487 85.6113 48.0108C85.0408 48.273 84.3824 48.3603 83.6801 48.3603C83.1095 48.3603 82.5828 48.273 82.1 48.1419C81.6172 47.9671 81.1783 47.705 80.8272 47.3992C80.4761 47.0934 80.2127 46.7439 80.0371 46.307C79.8177 45.8701 79.7299 45.3895 79.7299 44.8653C79.7299 44.3847 79.8177 43.9478 79.9494 43.5547C80.1249 43.1615 80.3444 42.812 80.6077 42.5498C80.8711 42.2877 81.1783 42.0693 81.5294 41.9382C81.8806 41.8071 82.2756 41.7198 82.6706 41.7198C83.1973 41.7198 83.5923 41.8508 83.8557 42.0693C84.119 42.2877 84.2946 42.5935 84.2946 42.9867C84.2946 43.2925 84.2068 43.5547 84.0313 43.7731C83.8118 43.7731 83.6362 43.7294 83.5046 43.7294C83.1534 43.7294 82.8901 43.8605 82.6267 44.0352C82.4073 44.2537 82.3195 44.5595 82.3195 44.9527C82.3195 45.3022 82.4512 45.608 82.6706 45.8264C82.934 46.0886 83.2851 46.1759 83.6801 46.1759C84.3385 46.1759 84.8652 45.8701 85.2163 45.3022C85.5674 44.7342 85.743 43.9042 85.743 42.812C85.743 42.2003 85.6552 41.6761 85.4797 41.1518C85.3041 40.6712 85.0846 40.2781 84.7774 39.9286C84.4702 39.579 84.0751 39.2732 83.5923 39.0985C83.1534 38.88 82.6706 38.7927 82.1 38.7927C81.5733 38.7927 81.0905 38.88 80.6516 39.0548C80.2127 39.1859 79.8177 39.448 79.5104 39.7975C79.1593 40.147 78.896 40.5402 78.7204 41.0644C78.5448 41.545 78.4571 42.1566 78.4571 42.8556C78.4571 43.1178 78.4571 43.3799 78.4571 43.642C78.4571 43.9042 78.5009 44.1663 78.5009 44.4284C78.5009 45.7391 78.1498 46.7002 77.4476 47.3555C76.7892 48.0545 75.8675 48.3603 74.6385 48.3603Z" fill="#377044"/>
<path d="M94.4766 42.7652C94.0816 42.7652 93.6865 42.6778 93.2476 42.5468C92.8526 42.4157 92.5015 42.241 92.1942 41.9788L92.2381 42.1536C92.282 42.7215 92.3698 43.2458 92.5893 43.7264C92.7648 44.2506 93.0721 44.6875 93.4232 45.0807C93.7743 45.4302 94.1693 45.736 94.696 45.9544C95.1788 46.2166 95.7494 46.3476 96.3639 46.3476C96.4517 46.435 96.4956 46.5661 96.4956 46.7408C96.4956 46.8719 96.5395 47.0029 96.5395 47.0903C96.5395 47.4835 96.4078 47.7893 96.1883 48.0078C95.9689 48.2699 95.6178 48.3573 95.1349 48.3573C94.4766 48.3573 93.8621 48.2262 93.2476 47.9204C92.5893 47.6146 92.0187 47.1777 91.492 46.6098C91.0092 46.0418 90.5703 45.3865 90.263 44.5564C89.9119 43.77 89.7363 42.8526 89.7363 41.8478C89.7363 41.0614 89.868 40.3187 90.0875 39.6634C90.3069 39.0081 90.6142 38.4401 90.9653 38.0032C91.3603 37.5227 91.8431 37.1732 92.3698 36.9547C92.9404 36.6926 93.511 36.5615 94.1693 36.5615C94.7399 36.5615 95.2227 36.6489 95.6616 36.8237C96.0567 36.9984 96.4517 37.2168 96.7589 37.5227C97.0223 37.8285 97.2856 38.1343 97.4173 38.5275C97.5929 38.9207 97.6367 39.3139 97.6367 39.7507C97.6367 40.1876 97.5929 40.5808 97.4612 40.9303C97.2856 41.2798 97.1101 41.6293 96.8028 41.8915C96.5395 42.1536 96.2322 42.372 95.8372 42.5468C95.4422 42.6778 95.0033 42.7652 94.4766 42.7652ZM94.1255 40.8866C94.4766 40.8866 94.7399 40.7556 94.9594 40.5808C95.1788 40.3624 95.3105 40.1002 95.3105 39.7507C95.3105 39.4449 95.1788 39.1391 94.9594 38.9207C94.7399 38.7022 94.4766 38.6149 94.1255 38.6149C93.7743 38.6149 93.511 38.7022 93.2915 38.9207C93.0721 39.1391 92.9404 39.4012 92.9404 39.7507C92.9404 40.1002 93.0721 40.3624 93.2915 40.5808C93.511 40.7556 93.8182 40.8866 94.1255 40.8866Z" fill="#377044"/>
<path d="M109.4 48.3625C108.654 48.3625 107.996 48.2314 107.469 47.9693C106.898 47.6635 106.503 47.314 106.196 46.7897C105.933 47.314 105.538 47.6635 105.011 47.9693C104.484 48.2314 103.87 48.3625 103.124 48.3625C101.807 48.3625 100.753 47.9693 99.9634 47.1829C99.2173 46.3528 98.8223 45.2606 98.8223 43.7753C98.8223 42.9015 98.9539 42.0714 99.2173 41.3287C99.5245 40.586 99.9195 39.9307 100.402 39.3628C100.051 39.1006 99.744 38.7511 99.4806 38.3143C99.2612 37.8774 99.1295 37.3531 99.1295 36.7852C99.1295 36.2172 99.2612 35.6493 99.5245 35.1687C99.7879 34.6882 100.183 34.295 100.622 33.9018C101.105 33.5523 101.719 33.2901 102.377 33.1154C103.08 32.8969 103.826 32.8096 104.66 32.8096C105.757 32.8096 106.767 32.9843 107.688 33.3338C108.566 33.6833 109.356 34.1639 110.015 34.8192C110.673 35.4308 111.156 36.1735 111.507 37.0036C111.902 37.8774 112.077 38.7948 112.077 39.756C112.077 40.1928 112.034 40.586 111.946 40.9355C111.814 41.285 111.682 41.5472 111.507 41.7656C112.165 42.1151 112.692 42.5083 112.999 43.0326C113.35 43.5568 113.526 44.1684 113.526 44.8238C113.526 45.916 113.131 46.7897 112.429 47.4014C111.682 48.0567 110.673 48.3625 109.4 48.3625ZM103.387 46.1781C103.826 46.1781 104.177 46.047 104.484 45.7412C104.748 45.4791 104.879 45.0859 104.879 44.5616V43.9937C105.055 43.9063 105.274 43.8189 105.494 43.7316C105.713 43.6879 105.933 43.6442 106.152 43.6442C106.415 43.6442 106.635 43.6879 106.854 43.7316C107.074 43.8189 107.293 43.9063 107.469 43.9937V44.5616C107.469 45.0422 107.644 45.4354 107.952 45.7412C108.259 46.0033 108.654 46.1781 109.137 46.1781C109.663 46.1781 110.102 46.0033 110.366 45.6975C110.673 45.4354 110.805 45.0422 110.805 44.6053C110.805 43.9063 110.497 43.3821 109.795 42.9889C109.532 43.0762 109.224 43.1199 108.917 43.1199C108.391 43.1199 107.996 43.0326 107.732 42.8141C107.469 42.5957 107.293 42.2899 107.293 41.853C107.293 41.4598 107.425 41.1103 107.644 40.8482H108.434C108.786 40.8482 109.049 40.8045 109.268 40.6734C109.444 40.5423 109.576 40.3239 109.576 40.0618C109.576 39.9307 109.488 39.7996 109.4 39.6249C109.312 39.4938 109.137 39.3628 108.917 39.2317C108.698 39.1006 108.391 39.0133 108.039 38.9696C107.688 38.8822 107.293 38.8385 106.767 38.8385C106.064 38.8385 105.362 38.9696 104.748 39.188C104.133 39.4065 103.563 39.756 103.08 40.1928C102.597 40.6297 102.246 41.1103 101.939 41.7219C101.675 42.2899 101.544 42.9452 101.544 43.6442C101.544 44.518 101.719 45.1296 102.026 45.5228C102.377 45.9597 102.816 46.1781 103.387 46.1781ZM104.704 34.9503C103.782 34.9503 103.08 35.125 102.553 35.4745C102.07 35.8677 101.807 36.3046 101.807 36.8289C101.807 37.2221 101.939 37.5716 102.158 37.8337C102.729 37.4842 103.387 37.1784 104.045 37.0036C104.704 36.7852 105.406 36.6978 106.108 36.6978C106.503 36.6978 106.854 36.7415 107.162 36.7415C107.469 36.7852 107.732 36.8289 107.996 36.8726C108.259 36.9599 108.478 37.0036 108.698 37.091C108.873 37.1784 109.093 37.3094 109.312 37.3968C108.829 36.6541 108.171 36.0425 107.337 35.6056C106.547 35.1687 105.669 34.9503 104.704 34.9503Z" fill="#377044"/>
<path d="M73.5011 55.8096C73.94 55.8096 74.335 55.8969 74.6861 56.0717C74.9934 56.2464 75.3006 56.4649 75.4762 56.7707C75.6517 56.4649 75.9151 56.2464 76.2223 56.0717C76.5296 55.8969 76.9246 55.8096 77.3635 55.8096C77.7585 55.8096 78.1096 55.8533 78.4169 55.9843C78.7241 56.1154 79.0314 56.3338 79.2508 56.5523C79.4703 56.7707 79.6019 57.0765 79.7336 57.3823C79.8653 57.7318 79.9092 58.0813 79.9092 58.4308C79.9092 59.0425 79.7775 59.6104 79.5581 60.1347C79.2947 60.7026 78.9875 61.1832 78.5924 61.5764C78.768 61.8385 78.8997 62.1006 78.9436 62.3628C79.0314 62.5812 79.0752 62.7996 79.0752 63.0181C79.0752 63.4986 78.8558 63.7608 78.4608 63.7608C78.3291 63.7608 78.2413 63.7608 78.1535 63.7171C78.0658 63.7171 77.978 63.6734 77.8902 63.6297C77.8902 63.4549 77.8902 63.2802 77.8463 63.0618C77.8024 62.8433 77.7585 62.6249 77.6707 62.4064C77.3196 62.6249 76.9685 62.7996 76.6174 62.9307C76.2662 63.0618 75.8273 63.1054 75.3884 63.1054C74.9934 63.1054 74.6861 63.0618 74.3789 62.9744C74.0717 62.887 73.8522 62.7559 73.6328 62.5812C73.4133 62.4501 73.2377 62.2317 73.15 62.0132C73.0183 61.7948 72.9744 61.5327 72.9744 61.2706C72.9744 61.0084 73.0183 60.7463 73.15 60.5279C73.2377 60.3094 73.4133 60.1347 73.5889 59.9599C73.8083 59.8289 74.0278 59.6978 74.2911 59.6104C74.5984 59.523 74.9056 59.4794 75.2567 59.4794C75.7395 59.4794 76.2223 59.5667 76.6612 59.7852C77.1002 59.9599 77.4952 60.2657 77.8463 60.6152C78.0658 60.3094 78.1974 60.0036 78.3291 59.6104C78.4608 59.2609 78.5047 58.8677 78.5047 58.4745C78.5047 57.994 78.4169 57.6445 78.1535 57.3823C77.9341 57.0765 77.6268 56.9455 77.2757 56.9455C76.9246 56.9455 76.6612 57.0765 76.4418 57.295C76.2223 57.4697 76.1345 57.7755 76.1345 58.125V58.4745C75.959 58.6056 75.7395 58.6493 75.5201 58.6493C75.3445 58.6493 75.2567 58.6493 75.1251 58.6056C75.0373 58.6056 74.9495 58.5619 74.8617 58.4745V58.125C74.8617 57.9503 74.8178 57.7755 74.7739 57.6445C74.6861 57.5134 74.5984 57.3823 74.5106 57.295C74.3789 57.1639 74.2911 57.1202 74.1156 57.0328C73.9839 56.9891 73.8522 56.9455 73.6766 56.9455C73.3694 56.9455 73.0622 57.0765 72.8866 57.2513C72.6672 57.4697 72.5794 57.7318 72.5794 58.0813C72.5794 58.3435 72.6233 58.6056 72.7988 58.8677C72.7549 58.9551 72.6672 59.0425 72.5355 59.1298C72.4038 59.2172 72.316 59.2609 72.1405 59.2609C71.8771 59.2609 71.6138 59.1298 71.4382 58.9114C71.2626 58.693 71.2188 58.3435 71.2188 57.9066C71.2188 57.6008 71.2626 57.295 71.3504 57.0765C71.4821 56.8144 71.6577 56.5523 71.8332 56.3775C72.0527 56.2028 72.2721 56.0717 72.5794 55.9406C72.8427 55.8533 73.1938 55.8096 73.5011 55.8096ZM75.4323 62.0132C75.7395 62.0132 76.0468 61.9259 76.3101 61.8385C76.6174 61.7511 76.8807 61.5764 77.144 61.4016C76.9246 61.1395 76.6174 60.9647 76.3101 60.79C76.0029 60.6589 75.6956 60.5715 75.3445 60.5715C75.0373 60.5715 74.7739 60.6152 74.5984 60.7463C74.4228 60.8774 74.335 61.0521 74.335 61.2706C74.335 61.489 74.4228 61.6637 74.5984 61.7948C74.7739 61.9259 75.0812 62.0132 75.4323 62.0132Z" fill="#373435"/>
<path d="M84.3757 63.0963C83.849 63.0963 83.4101 63.0089 82.9711 62.8778C82.5322 62.7031 82.1811 62.4409 81.9178 62.1351C81.6105 61.8293 81.3911 61.4361 81.2155 61.0429C81.0399 60.606 80.9521 60.1255 80.9521 59.6012C80.9521 59.077 81.0399 58.5964 81.2155 58.1595C81.3911 57.7226 81.6105 57.3294 81.9178 57.0236C82.1811 56.7178 82.5322 56.4994 82.9711 56.3246C83.4101 56.1499 83.849 56.0625 84.3757 56.0625C84.8585 56.0625 85.3413 56.1499 85.7802 56.3246C86.1752 56.4994 86.5263 56.7178 86.8336 57.0236C87.1408 57.3294 87.3603 57.7226 87.5358 58.1595C87.6675 58.5964 87.7553 59.077 87.7553 59.6012C87.7553 60.1255 87.6675 60.606 87.5358 61.0429C87.3603 61.4361 87.1408 61.8293 86.8336 62.1351C86.5263 62.4409 86.1752 62.7031 85.7802 62.8778C85.3413 63.0089 84.8585 63.0963 84.3757 63.0963ZM84.3757 61.9604C84.6829 61.9604 84.9462 61.873 85.2096 61.7856C85.429 61.6546 85.6485 61.5235 85.8241 61.305C85.9996 61.0866 86.1313 60.8245 86.2191 60.5624C86.3069 60.2565 86.3508 59.9507 86.3508 59.6012C86.3508 59.2517 86.3069 58.9022 86.2191 58.6401C86.1313 58.3343 85.9996 58.0721 85.8241 57.8537C85.6485 57.679 85.429 57.5042 85.2096 57.3731C84.9462 57.2858 84.6829 57.1984 84.3757 57.1984C84.0684 57.1984 83.7612 57.2858 83.5417 57.3731C83.2784 57.5042 83.1028 57.679 82.9273 57.8537C82.7517 58.0721 82.62 58.3343 82.4883 58.6401C82.4006 58.9022 82.3567 59.2517 82.3567 59.6012C82.3567 59.9507 82.4006 60.2565 82.4883 60.5624C82.62 60.8245 82.7517 61.0866 82.9273 61.305C83.1028 61.5235 83.2784 61.6546 83.5417 61.7856C83.7612 61.873 84.0684 61.9604 84.3757 61.9604Z" fill="#373435"/>
<path d="M95.3778 63.1107C94.895 63.1107 94.4999 63.0233 94.1488 62.8485C93.8416 62.6738 93.5782 62.4553 93.4026 62.1058C93.2271 62.4553 92.9637 62.6738 92.6565 62.8485C92.3493 63.0233 91.9542 63.1107 91.5153 63.1107C91.1203 63.1107 90.7692 63.067 90.4619 62.9359C90.1547 62.8048 89.8474 62.6301 89.628 62.4116C89.4085 62.1495 89.233 61.8874 89.1013 61.5379C88.9696 61.1884 88.8818 60.7952 88.8818 60.3146C88.8818 59.7467 88.9696 59.2224 89.1891 58.7855C89.3646 58.305 89.628 57.8681 89.9352 57.5186C89.7158 57.3438 89.5841 57.1691 89.4524 56.907C89.3207 56.6448 89.233 56.339 89.233 55.9895C89.233 55.64 89.3207 55.2905 89.4963 54.9847C89.628 54.7225 89.8474 54.4604 90.1108 54.242C90.3741 54.0235 90.7253 53.8488 91.1203 53.7177C91.5153 53.6303 91.9542 53.543 92.4809 53.543C93.1393 53.543 93.7099 53.674 94.2805 53.8925C94.8072 54.1109 95.29 54.4604 95.6411 54.8099C96.0361 55.2031 96.3434 55.6837 96.5628 56.1643C96.7823 56.6885 96.8701 57.2128 96.8701 57.7807C96.8701 58.0428 96.8701 58.2613 96.7823 58.4797C96.6945 58.6982 96.6067 58.8292 96.5189 58.9603C96.914 59.1787 97.2212 59.4409 97.4845 59.7467C97.704 60.0962 97.7918 60.4894 97.7918 60.9263C97.7918 61.6253 97.5723 62.1495 97.1334 62.5427C96.6945 62.9359 96.1239 63.1107 95.3778 63.1107ZM91.6031 61.9748C91.9103 61.9748 92.1737 61.8874 92.3931 61.7126C92.6126 61.5379 92.7004 61.2758 92.7004 60.8826V60.4457C92.8759 60.3146 93.0954 60.2272 93.3588 60.2272C93.6221 60.2272 93.8416 60.3146 94.0171 60.4457V60.8826C94.0171 61.2321 94.1488 61.4942 94.3683 61.669C94.6316 61.8874 94.895 61.9748 95.2461 61.9748C95.5972 61.9748 95.9045 61.8874 96.1239 61.669C96.3434 61.4505 96.4311 61.1884 96.4311 60.8389C96.4311 60.5767 96.3434 60.3146 96.2117 60.1399C96.0361 59.9214 95.8606 59.7467 95.5972 59.6156C95.4216 59.703 95.2022 59.7467 95.0266 59.7467C94.7194 59.7467 94.4999 59.6593 94.3683 59.5719C94.1927 59.4409 94.1049 59.2661 94.1049 59.0477C94.1049 58.8292 94.1927 58.6545 94.2805 58.5234H94.7633C95.0266 58.5234 95.2022 58.4797 95.3339 58.3923C95.5094 58.2613 95.5972 58.0865 95.5972 57.9118C95.5972 57.7807 95.5533 57.6933 95.4655 57.5623C95.4216 57.4749 95.29 57.3875 95.1583 57.3001C95.0266 57.2128 94.8072 57.1691 94.5877 57.1254C94.3683 57.0817 94.061 57.038 93.7538 57.038C93.271 57.038 92.8321 57.1254 92.437 57.2565C91.9981 57.4312 91.647 57.6496 91.2959 57.9555C90.9886 58.2176 90.7253 58.5671 90.5497 58.9603C90.3741 59.3098 90.2864 59.7467 90.2864 60.2272C90.2864 60.8389 90.418 61.2758 90.6814 61.5379C90.9447 61.8437 91.252 61.9748 91.6031 61.9748ZM92.4809 54.6789C91.9103 54.6789 91.4275 54.8099 91.1203 55.0284C90.8131 55.2905 90.6375 55.5963 90.6375 55.9895C90.6375 56.2953 90.7253 56.5138 90.8569 56.6885C91.252 56.4264 91.647 56.2516 92.0859 56.1206C92.5248 55.9895 92.9637 55.9021 93.4026 55.9021C93.8854 55.9021 94.3244 55.9458 94.5877 56.0332C94.895 56.1206 95.1583 56.2079 95.4216 56.339C95.2461 56.1206 95.0705 55.9021 94.895 55.6837C94.6755 55.4652 94.456 55.2905 94.1927 55.1594C93.9293 54.9847 93.666 54.8973 93.4026 54.8099C93.0954 54.7225 92.7882 54.6789 92.4809 54.6789Z" fill="#373435"/>
<path d="M117.344 60.984C117.344 61.2898 117.432 61.5519 117.652 61.7267C117.915 61.9014 118.178 61.9888 118.529 61.9888C119.012 61.9888 119.407 61.814 119.671 61.4645C119.978 61.0713 120.11 60.5471 120.11 59.8918C120.11 59.018 119.846 58.319 119.319 57.8821C118.749 57.4016 118.047 57.1394 117.125 57.1394H113.877C114.184 57.4889 114.491 57.8821 114.667 58.3627C114.886 58.7996 115.018 59.3238 115.018 59.8918C115.018 60.416 114.93 60.8966 114.799 61.2898C114.623 61.683 114.448 62.0325 114.14 62.2946C113.877 62.5567 113.57 62.7752 113.175 62.9062C112.824 63.081 112.385 63.1247 111.946 63.1247C111.375 63.1247 110.936 63.0373 110.541 62.9062C110.146 62.7315 109.795 62.513 109.532 62.2509C109.268 62.5567 108.961 62.7752 108.566 62.9062C108.171 63.081 107.776 63.1247 107.293 63.1247C106.679 63.1247 106.152 63.0373 105.757 62.8625C105.362 62.6441 105.055 62.4257 104.791 62.2072C104.484 62.513 104.133 62.7315 103.694 62.9062C103.299 63.081 102.816 63.1247 102.334 63.1247C101.807 63.1247 101.324 63.0373 100.885 62.8625C100.446 62.6878 100.095 62.4694 99.7879 62.1198C99.4806 61.814 99.2173 61.4208 99.0856 60.984C98.91 60.5471 98.8223 60.0228 98.8223 59.4986C98.8223 58.9306 98.91 58.4501 99.0856 58.0132C99.2173 57.5763 99.4806 57.1831 99.7879 56.8773C100.095 56.5278 100.446 56.2657 100.885 56.0909C101.324 55.9162 101.807 55.8288 102.334 55.8288C102.816 55.8288 103.299 55.9162 103.738 56.0909C104.133 56.2657 104.528 56.5278 104.835 56.8336C105.143 57.1831 105.362 57.5326 105.538 58.0132C105.713 58.4501 105.801 58.9306 105.801 59.4986C105.801 59.8044 105.801 60.1102 105.713 60.3723C105.669 60.6781 105.582 60.9403 105.494 61.2024C105.625 61.4208 105.889 61.5956 106.152 61.7703C106.459 61.9014 106.81 61.9888 107.118 61.9888C107.688 61.9888 108.127 61.7703 108.478 61.4208C108.829 61.0277 108.961 60.5034 108.961 59.8044C108.961 59.4549 108.961 59.1491 108.873 58.8869C108.786 58.6248 108.698 58.3627 108.566 58.1442C108.434 57.9258 108.303 57.7511 108.127 57.5763C107.952 57.4452 107.776 57.2705 107.557 57.1394H106.459C106.415 57.0957 106.372 57.0084 106.328 56.921C106.328 56.8336 106.284 56.7462 106.284 56.6152C106.284 56.3967 106.328 56.2657 106.459 56.1783C106.547 56.0909 106.679 56.0472 106.81 56.0472H108.566C108.961 56.0472 109.181 55.8725 109.181 55.523C109.181 55.3482 109.137 55.1735 109.049 54.9987C109.137 54.955 109.224 54.9113 109.312 54.824C109.444 54.7803 109.532 54.7803 109.663 54.7803C109.883 54.7803 110.058 54.824 110.234 54.9987C110.366 55.1735 110.453 55.3919 110.453 55.7414C110.453 56.1346 110.366 56.4404 110.146 56.6589C109.927 56.921 109.62 57.052 109.224 57.1394C109.532 57.4016 109.839 57.7947 110.058 58.2316C110.278 58.7122 110.366 59.2364 110.366 59.8481C110.366 60.3723 110.322 60.8092 110.146 61.2024C110.322 61.4208 110.541 61.6393 110.848 61.7703C111.156 61.9014 111.463 61.9888 111.814 61.9888C112.341 61.9888 112.78 61.814 113.087 61.4208C113.438 61.0713 113.614 60.5471 113.614 59.8918C113.614 59.2364 113.482 58.7122 113.219 58.2753C112.955 57.7947 112.604 57.4452 112.165 57.1394H111.375C111.331 57.0957 111.287 57.0084 111.243 56.921C111.2 56.8336 111.2 56.7462 111.2 56.6152C111.2 56.4404 111.243 56.3094 111.375 56.222C111.463 56.0909 111.595 56.0472 111.726 56.0472H117.432C118.003 56.0472 118.573 56.1783 119.056 56.353C119.583 56.5278 119.978 56.7899 120.329 57.1394C120.68 57.4889 120.987 57.8821 121.163 58.3627C121.382 58.7996 121.47 59.3238 121.47 59.8918C121.47 60.416 121.382 60.8966 121.251 61.2898C121.119 61.683 120.9 62.0325 120.636 62.2946C120.373 62.6004 120.066 62.7752 119.715 62.9499C119.363 63.081 118.968 63.1247 118.529 63.1247C118.178 63.1247 117.827 63.081 117.52 62.9936C117.213 62.9062 116.949 62.7315 116.73 62.5567C116.51 62.382 116.291 62.1198 116.159 61.8577C116.028 61.5956 115.984 61.2461 115.984 60.8966C115.984 60.5908 116.028 60.285 116.115 60.0665C116.247 59.8044 116.379 59.6296 116.554 59.4549C116.73 59.2801 116.949 59.1491 117.169 59.0617C117.388 58.9743 117.608 58.9306 117.871 58.9306C118.178 58.9306 118.398 59.018 118.573 59.1491C118.749 59.2364 118.837 59.4112 118.837 59.6296C118.837 59.8044 118.749 59.9791 118.661 60.1102C118.529 60.0665 118.398 60.0665 118.266 60.0665C118.003 60.0665 117.783 60.1539 117.608 60.285C117.432 60.4597 117.344 60.6781 117.344 60.984ZM102.334 61.9888C102.641 61.9888 102.904 61.9014 103.167 61.814C103.431 61.683 103.65 61.5082 103.87 61.2898C104.045 61.0713 104.177 60.8092 104.265 60.5034C104.396 60.1976 104.44 59.8481 104.44 59.4986C104.44 59.1054 104.396 58.7559 104.265 58.4501C104.177 58.1442 104.045 57.8821 103.87 57.6637C103.65 57.4452 103.431 57.2705 103.167 57.1394C102.904 57.0084 102.641 56.9647 102.334 56.9647C101.982 56.9647 101.719 57.0084 101.456 57.1394C101.192 57.2705 100.973 57.4452 100.797 57.6637C100.622 57.8821 100.446 58.1442 100.358 58.4501C100.271 58.7559 100.227 59.1054 100.227 59.4986C100.227 59.8481 100.271 60.1976 100.358 60.5034C100.446 60.8092 100.622 61.0713 100.797 61.2898C100.973 61.5082 101.192 61.683 101.456 61.814C101.719 61.9014 101.982 61.9888 102.334 61.9888Z" fill="#373435"/>
</svg>
