<svg width="130" height="130" viewBox="0 0 130 130" fill="none" xmlns="http://www.w3.org/2000/svg">
<circle cx="65" cy="65" r="65" fill="#29A5BB"/>
<path fill-rule="evenodd" clip-rule="evenodd" d="M31 34.3212V32H69.381V69.1427H31V34.3212ZM52.5893 38.9641H47.7917L38.1964 62.1785H42.994L44.915 57.5356H55.466L57.3869 62.1785H62.1845L52.5893 38.9641ZM46.8312 52.8927L50.1905 44.7678L53.5497 52.8927H46.8312ZM93.369 64.5H74.1786V59.8571H98.1667V97H59.7857V73.7856H64.5833V92.3571H93.369V64.5ZM89.23 72.9092V69.2762H80.0897V72.9092H82.296V79.8184H77.7974C77.2435 79.321 76.5654 79.0075 75.7631 78.8777C76.7182 78.575 77.4536 78.0235 77.9694 77.2234C78.4851 76.4233 78.743 75.461 78.743 74.3365C78.743 72.693 78.2463 71.4063 77.253 70.4764C76.2597 69.5249 74.8462 69.0492 73.0124 69.0492C71.7325 69.0492 70.6246 69.2546 69.6886 69.6655V73.785C70.7201 73.2444 71.723 72.9741 72.6972 72.9741C74.0343 72.9741 74.7029 73.6228 74.7029 74.9203C74.7029 76.2611 73.9102 76.9315 72.3247 76.9315H71.4365V80.7591H72.6112C73.6427 80.7591 74.3495 80.9645 74.7316 81.3754C75.1327 81.7863 75.3333 82.3377 75.3333 83.0297C75.3333 84.8462 74.4928 85.7544 72.8118 85.7544C71.5702 85.7544 70.3381 85.3868 69.1156 84.6516V88.8684C70.319 89.3442 71.6179 89.5821 73.0124 89.5821C75.0754 89.5821 76.6227 89.0414 77.6542 87.9602C78.7048 86.8789 79.2301 85.4733 79.2301 83.7433V83.5163H82.296V91.0418H86.3647V72.9092H89.23Z" fill="white"/>
</svg>
