<svg width="147" height="103" viewBox="0 0 147 103" fill="none" xmlns="http://www.w3.org/2000/svg">
<path fill-rule="evenodd" clip-rule="evenodd" d="M38.8439 90.8175C44.6304 93.0206 50.9603 94.235 57.5923 94.235C65.7904 94.235 73.5502 92.3564 80.3893 89.0798C72.0158 95.3709 61.6256 99.128 50.3586 99.128C43.9343 99.128 37.7949 97.9158 32.1583 95.7088L38.8439 90.8175ZM24.8392 82.7316C14.4436 74.2241 7.87713 61.7397 7.87713 47.8383C7.87713 22.2372 30.1481 1.4417 57.5923 1.4417C59.6089 1.4417 61.6256 1.57277 63.5984 1.79121C59.3897 0.611632 54.918 0 50.3586 0C22.8706 0 0.599609 22.1935 0.599609 49.5859C0.599609 67.0346 9.66517 82.3849 23.3673 91.2117L24.8392 82.7316Z" fill="#F47D5C"/>
<path d="M28.8907 79.6123L21.9639 102.068L40.2892 85.117L28.8907 79.6123Z" fill="#377044"/>
<path fill-rule="evenodd" clip-rule="evenodd" d="M16.2434 48.6488C16.2434 69.7501 33.385 86.8321 54.5599 86.8321C68.1751 86.8321 80.1522 79.7406 86.9499 69.0516H91.8042C84.5769 82.1537 70.6044 91.0262 54.5599 91.0262C31.0614 91.0262 12.0347 72.0656 12.0347 48.6488C12.0347 25.2321 31.0614 6.27148 54.5599 6.27148C70.6049 6.27148 84.5777 15.1444 91.8048 28.2471H86.9506C80.153 17.5575 68.1756 10.4655 54.5599 10.4655C33.385 10.4655 16.2434 27.5475 16.2434 48.6488Z" fill="#377044"/>
<path fill-rule="evenodd" clip-rule="evenodd" d="M35.8493 60.0214C33.4819 60.0214 31.2022 60.0651 28.8787 59.9777C27.2566 59.934 26.1167 58.7107 26.1167 57.0506C26.1167 49.9731 26.1167 42.8957 26.1167 35.8619C26.1167 34.2018 27.3881 32.9785 29.0102 32.9785C34.7094 32.9785 40.4087 32.9785 46.108 32.9785C47.6424 32.9785 48.9138 34.0707 48.9576 35.5561C49.0014 39.3133 48.9576 43.0704 48.9576 46.8713C48.0808 46.3907 47.204 45.9975 46.3272 45.517C46.1956 45.4296 46.1518 45.0364 46.1518 44.7743C46.1518 42.0656 46.1518 39.357 46.1518 36.6483V35.8182H29.054V57.138C30.6323 57.138 32.2105 57.138 33.7888 57.138C34.2272 57.138 34.4902 57.2253 34.6656 57.7059C35.0163 58.4486 35.4109 59.1476 35.8493 60.0214Z" fill="#F58B71"/>
<path fill-rule="evenodd" clip-rule="evenodd" d="M35.8493 60.0214C33.4819 60.0214 31.2022 60.0651 28.8787 59.9777C27.2566 59.934 26.1167 58.7107 26.1167 57.0506C26.1167 49.9731 26.1167 42.8957 26.1167 35.8619C26.1167 34.2018 27.3881 32.9785 29.0102 32.9785C34.7094 32.9785 40.4087 32.9785 46.108 32.9785C47.6424 32.9785 48.9138 34.0707 48.9576 35.5561C49.0014 39.3133 48.9576 43.0704 48.9576 46.8713C48.0808 46.3907 47.204 45.9975 46.3272 45.517C46.1956 45.4296 46.1518 45.0364 46.1518 44.7743C46.1518 42.0656 46.1518 39.357 46.1518 36.6483V35.8182H29.054V57.138C30.6323 57.138 32.2105 57.138 33.7888 57.138C34.2272 57.138 34.4902 57.2253 34.6656 57.7059C35.0163 58.4486 35.4109 59.1476 35.8493 60.0214Z" stroke="#F58B71" stroke-width="0.0116378"/>
<path fill-rule="evenodd" clip-rule="evenodd" d="M47.62 54.343C47.5761 51.9838 45.6472 50.0179 43.2798 50.0179C41.0001 50.0179 38.9834 51.9838 38.9834 54.2556C38.9834 56.6585 40.9562 58.6244 43.3236 58.6244C45.6472 58.5807 47.62 56.6148 47.62 54.343ZM49.2421 58.2749C50.6011 59.5855 51.9602 60.8525 53.2316 62.0758C52.5301 62.7748 51.8725 63.4301 51.1711 64.1291C50.2943 63.299 49.2859 62.3816 48.3653 61.3768C47.6638 60.5904 47.1377 60.3719 45.9979 60.8525C43.3675 61.9884 40.7809 61.5515 38.5888 59.6292C36.3968 57.6633 35.6515 55.1731 36.4407 52.377C37.2298 49.581 39.2026 47.7898 42.0961 47.3092C44.9019 46.8287 47.2693 47.7898 48.979 50.0616C50.6888 52.377 50.8642 54.8672 49.7243 57.4448C49.5928 57.707 49.4613 57.9254 49.2421 58.2749Z" fill="#F58B71"/>
<path fill-rule="evenodd" clip-rule="evenodd" d="M47.62 54.343C47.5761 51.9838 45.6472 50.0179 43.2798 50.0179C41.0001 50.0179 38.9834 51.9838 38.9834 54.2556C38.9834 56.6585 40.9562 58.6244 43.3236 58.6244C45.6472 58.5807 47.62 56.6148 47.62 54.343ZM49.2421 58.2749C50.6011 59.5855 51.9602 60.8525 53.2316 62.0758C52.5301 62.7748 51.8725 63.4301 51.1711 64.1291C50.2943 63.299 49.2859 62.3816 48.3653 61.3768C47.6638 60.5904 47.1377 60.3719 45.9979 60.8525C43.3675 61.9884 40.7809 61.5515 38.5888 59.6292C36.3968 57.6633 35.6515 55.1731 36.4407 52.377C37.2298 49.581 39.2026 47.7898 42.0961 47.3092C44.9019 46.8287 47.2693 47.7898 48.979 50.0616C50.6888 52.377 50.8642 54.8672 49.7243 57.4448C49.5928 57.707 49.4613 57.9254 49.2421 58.2749Z" stroke="#F58B71" stroke-width="0.0116378"/>
<path d="M64.6195 39.4843C64.6195 39.7464 64.6633 39.9649 64.8387 40.0959C64.9702 40.227 65.1894 40.3144 65.4086 40.3144C65.6278 40.3144 65.847 40.227 65.9785 40.0959C66.1101 39.9649 66.1977 39.7464 66.1977 39.4843C66.1977 39.2659 66.1101 39.0474 65.9785 38.9164C65.8032 38.7416 65.6278 38.6979 65.4086 38.6979C65.1894 38.6979 64.9702 38.7416 64.8387 38.9164C64.6633 39.0474 64.6195 39.2659 64.6195 39.4843ZM58.438 42.5425C58.438 41.7124 58.6134 40.926 58.8764 40.1833C59.1833 39.4843 59.6217 38.8727 60.1478 38.3921C60.7177 37.8678 61.3753 37.4747 62.1206 37.2125C62.8659 36.9504 63.7427 36.8193 64.6633 36.8193C65.2333 36.8193 65.7593 36.863 66.1977 36.9941C66.68 37.1252 67.0746 37.2999 67.4253 37.562C67.776 37.7805 68.039 38.0863 68.2144 38.4358C68.3898 38.7853 68.4774 39.1785 68.4774 39.6154C68.4774 40.0522 68.3898 40.4017 68.2144 40.7076C68.0829 41.0571 67.8198 41.3192 67.5568 41.5376C67.2499 41.7561 66.943 41.8871 66.5923 42.0182C66.2416 42.1056 65.847 42.1493 65.4525 42.1493C65.0579 42.1493 64.7072 42.1056 64.4003 42.0182C64.0496 41.8871 63.7865 41.7561 63.5235 41.5813C63.3043 41.3629 63.0851 41.1444 62.9536 40.8823C62.822 40.5765 62.7344 40.2707 62.7344 39.9212C62.7344 39.7464 62.7782 39.5717 62.822 39.3969C62.8659 39.2222 62.9536 39.0911 63.0412 38.96L62.9536 38.9164C62.3836 39.2659 61.9452 39.7027 61.5945 40.3144C61.2438 40.926 61.1123 41.6687 61.1123 42.5425C61.1123 43.4599 61.2438 44.2026 61.5945 44.8142C61.9452 45.3822 62.3836 45.8627 62.9536 46.2123L62.9974 46.0812C62.9097 45.9501 62.8659 45.8191 62.822 45.688C62.7782 45.5132 62.7344 45.3822 62.7344 45.2074C62.7344 44.8579 62.822 44.5521 62.9536 44.29C63.0851 43.9842 63.3043 43.7657 63.5235 43.591C63.7865 43.3725 64.0496 43.2415 64.4003 43.1104C64.7072 43.023 65.0579 42.9793 65.4525 42.9793C65.847 42.9793 66.2416 43.023 66.5923 43.1104C66.943 43.2415 67.2499 43.3725 67.5568 43.591C67.8198 43.8094 68.0829 44.0715 68.2144 44.3774C68.3898 44.7269 68.4774 45.0764 68.4774 45.5132C68.4774 45.9501 68.3898 46.3433 68.2144 46.6928C67.9952 47.0423 67.7322 47.3044 67.4253 47.5666C67.0746 47.8287 66.68 48.0035 66.1977 48.1345C65.7593 48.2656 65.2333 48.3093 64.6633 48.3093C63.7427 48.3093 62.8659 48.1782 62.1206 47.9161C61.3753 47.6103 60.7177 47.2608 60.1478 46.7365C59.6217 46.2123 59.1833 45.6443 58.8764 44.9016C58.6134 44.2026 58.438 43.4162 58.438 42.5425ZM64.6195 45.6006C64.6195 45.8627 64.6633 46.0812 64.8387 46.2123C64.9702 46.387 65.1894 46.4307 65.4086 46.4307C65.6278 46.4307 65.8032 46.387 65.9785 46.2123C66.1101 46.0812 66.1977 45.8627 66.1977 45.6006C66.1977 45.3822 66.1101 45.1637 65.9785 45.0327C65.847 44.9016 65.6278 44.8142 65.4086 44.8142C65.1894 44.8142 64.9702 44.9016 64.8387 45.0327C64.6633 45.1637 64.6195 45.3822 64.6195 45.6006Z" fill="#377044"/>
<path d="M76.972 41.101C76.972 40.5331 76.7966 40.0525 76.4898 39.703C76.2267 39.3535 75.7883 39.1787 75.2184 39.1787C74.5169 39.1787 73.947 39.4846 73.5086 40.0962C73.0702 40.7078 72.851 41.5379 72.851 42.6301C72.851 43.5912 73.0264 44.3776 73.4209 45.0766C73.8593 45.8193 74.3854 46.3873 75.1307 46.8678C75.043 47.2173 74.9115 47.5231 74.6485 47.7853C74.3854 48.0911 74.0347 48.2222 73.5963 48.2222C73.2017 48.2222 72.851 48.1348 72.5441 47.96C72.2372 47.829 71.9303 47.5668 71.6673 47.3047C71.1851 46.7368 70.7466 46.0814 70.4398 45.2514C70.1329 44.465 69.9575 43.5912 69.9575 42.6301C69.9575 41.7126 70.089 40.9263 70.3082 40.1836C70.5713 39.4846 70.922 38.8729 71.3604 38.3924C71.7988 37.9118 72.3687 37.5186 72.9825 37.2565C73.5963 36.9943 74.2539 36.8633 74.9992 36.8633C75.7006 36.8633 76.3144 36.9943 76.9282 37.2565C77.5419 37.5186 78.0242 37.9555 78.3749 38.4797C78.7695 37.9555 79.2517 37.5186 79.8216 37.2565C80.4354 36.9943 81.093 36.8633 81.7506 36.8633C82.4959 36.8633 83.1973 36.9943 83.8111 37.2565C84.4249 37.5186 84.951 37.9118 85.3894 38.3924C85.8278 38.8729 86.1785 39.4846 86.4415 40.1836C86.7046 40.9263 86.7923 41.7126 86.7923 42.6301C86.7923 43.5912 86.6607 44.465 86.3539 45.2514C86.047 46.0814 85.6086 46.7368 85.0825 47.3047C84.8194 47.5668 84.5564 47.829 84.2057 47.96C83.8988 48.1348 83.5481 48.2222 83.1535 48.2222C82.7589 48.2222 82.4082 48.0911 82.1452 47.7853C81.8821 47.5231 81.7068 47.2173 81.6629 46.8678C82.3644 46.3873 82.9343 45.8193 83.3289 45.0766C83.7234 44.3776 83.9426 43.5912 83.9426 42.6301C83.9426 41.5379 83.7234 40.7078 83.2412 40.0962C82.8028 39.4846 82.2329 39.1787 81.5314 39.1787C81.0053 39.1787 80.5669 39.3535 80.26 39.703C79.9532 40.0525 79.7778 40.5331 79.7778 41.101V48.0037C79.6901 48.0474 79.4709 48.0911 79.2079 48.1348C78.9887 48.1785 78.7256 48.1785 78.5064 48.1785C77.9803 48.1785 77.6296 48.0911 77.3666 47.9163C77.1035 47.7416 76.972 47.3921 76.972 46.8241V41.101Z" fill="#377044"/>
<path d="M90.2628 45.9504C90.9642 45.9504 91.578 45.6446 91.9726 45.0766C92.411 44.5087 92.5863 43.6786 92.5863 42.5427C92.5863 41.4505 92.411 40.6204 91.9726 40.0525C91.5342 39.4846 90.9642 39.1787 90.1751 39.1787C89.8244 39.1787 89.5175 39.2661 89.2545 39.3972C88.9914 39.5282 88.7722 39.6593 88.5092 39.7904C88.3338 39.6593 88.2023 39.5282 88.0708 39.3098C87.9392 39.1351 87.8516 38.9166 87.8516 38.6545C87.8516 38.2176 88.0269 37.8681 88.3338 37.606C88.553 37.3875 88.8599 37.2128 89.2983 37.0817C89.6929 36.9507 90.1751 36.8633 90.7012 36.8633C91.4026 36.8633 92.0603 36.9943 92.6302 37.2565C93.2439 37.5186 93.7262 37.8681 94.1646 38.3487C94.603 38.8292 94.9099 39.4409 95.1729 40.1399C95.3921 40.8389 95.5237 41.669 95.5237 42.5427C95.5237 43.4602 95.3921 44.2902 95.1729 44.9892C94.9537 45.6883 94.603 46.2999 94.2084 46.7805C93.77 47.261 93.2439 47.6105 92.674 47.8727C92.1041 48.1348 91.4465 48.2658 90.745 48.2658C90.2189 48.2658 89.8244 48.2222 89.4298 48.0911C89.0353 48.0037 88.7284 47.8727 88.5092 47.6979C88.0708 47.3921 87.8516 46.9989 87.8516 46.5183C87.8516 46.2999 87.9392 46.0378 88.0269 45.8193C88.1584 45.6009 88.29 45.4261 88.5092 45.2951C88.7284 45.4698 88.9914 45.6009 89.2545 45.7319C89.5613 45.863 89.9121 45.9504 90.2628 45.9504Z" fill="#377044"/>
<path d="M106.05 48.2219C105.48 48.2219 104.998 48.1345 104.515 48.0035C104.033 47.8287 103.639 47.6103 103.244 47.2608C102.981 47.5229 102.63 47.7413 102.192 47.9598C101.753 48.1345 101.184 48.2219 100.57 48.2219C100.131 48.2219 99.7368 48.1782 99.2984 48.0471C98.86 47.9161 98.4655 47.6976 98.0709 47.4355C97.7202 47.1297 97.4571 46.7802 97.1941 46.2996C96.9749 45.8627 96.8872 45.3385 96.8872 44.6832C96.8872 44.1152 96.9749 43.6347 97.1502 43.1978C97.3695 42.7609 97.6325 42.3677 97.9832 42.0619C98.3339 41.7561 98.7723 41.5376 99.2546 41.3629C99.7368 41.2318 100.263 41.1444 100.877 41.1444H101.71C101.71 40.4454 101.841 39.8338 102.06 39.3096C102.28 38.7853 102.586 38.3047 102.937 37.9552C103.332 37.562 103.77 37.2999 104.296 37.1252C104.778 36.9067 105.305 36.8193 105.874 36.8193C106.707 36.8193 107.409 36.9941 108.023 37.2999C108.636 37.6057 109.119 38.0863 109.469 38.6979C109.995 38.0863 110.609 37.6057 111.355 37.2999C112.144 37.0378 112.889 36.863 113.722 36.863C114.643 36.863 115.519 36.9941 116.309 37.2999C117.054 37.6057 117.711 37.9989 118.281 38.5232C118.851 39.0911 119.246 39.7464 119.553 40.5328C119.86 41.3192 120.035 42.2366 120.035 43.2415C120.035 44.1152 119.903 44.9453 119.64 45.688C119.421 46.4744 119.07 47.0423 118.632 47.5229C118.413 47.7413 118.194 47.9161 117.974 48.0471C117.711 48.1345 117.448 48.2219 117.141 48.2219C116.791 48.2219 116.484 48.0908 116.221 47.8724C116.002 47.6976 115.826 47.4355 115.695 47.086C116.133 46.6928 116.484 46.1686 116.747 45.5132C117.01 44.9016 117.141 44.1589 117.141 43.2415C117.141 42.5425 117.054 41.9745 116.878 41.4503C116.703 40.926 116.44 40.4891 116.133 40.1833C115.782 39.8338 115.432 39.5717 114.993 39.3969C114.555 39.2659 114.073 39.1785 113.59 39.1785C112.845 39.1785 112.144 39.3532 111.618 39.7027C111.048 40.0522 110.653 40.5328 110.39 41.1444H111.179C111.793 41.1444 112.319 41.2318 112.801 41.3629C113.284 41.5376 113.722 41.7561 114.073 42.0619C114.423 42.3677 114.686 42.7609 114.906 43.1978C115.081 43.6347 115.169 44.1152 115.169 44.6832C115.169 45.3385 115.081 45.8627 114.862 46.2996C114.643 46.7802 114.336 47.1297 113.985 47.4355C113.634 47.6976 113.24 47.9161 112.801 48.0471C112.363 48.1782 111.924 48.2219 111.486 48.2219C110.872 48.2219 110.302 48.1345 109.864 47.9598C109.426 47.7413 109.075 47.5229 108.768 47.2608C108.067 47.9161 107.146 48.2219 106.05 48.2219ZM106.05 46.0375C106.532 46.0375 106.971 45.8191 107.277 45.3822C107.584 44.9453 107.76 44.2026 107.76 43.1541H104.296C104.296 44.2026 104.472 44.9453 104.735 45.3822C105.042 45.8191 105.48 46.0375 106.05 46.0375ZM110.346 43.1541C110.346 43.6784 110.302 44.1152 110.215 44.5521C110.127 44.989 110.039 45.3822 109.908 45.7317C110.215 46.0375 110.653 46.1686 111.135 46.1686C111.53 46.1686 111.881 46.0375 112.188 45.7754C112.451 45.5132 112.582 45.1637 112.582 44.6395C112.582 44.1589 112.451 43.8094 112.188 43.5473C111.881 43.2852 111.486 43.1541 111.048 43.1541H110.346ZM102.192 45.7317C101.841 45.0327 101.71 44.1589 101.71 43.1541H101.008C100.57 43.1541 100.175 43.2852 99.9122 43.5473C99.6053 43.8094 99.4738 44.1589 99.4738 44.6395C99.4738 45.1637 99.6053 45.5132 99.9122 45.7754C100.175 46.0375 100.526 46.1686 100.964 46.1686C101.184 46.1686 101.403 46.1249 101.622 46.0375C101.841 45.9938 102.017 45.8627 102.192 45.7317ZM106.05 39.0037C105.524 39.0037 105.129 39.1785 104.778 39.528C104.472 39.8775 104.296 40.4454 104.296 41.1444H107.76C107.716 40.4454 107.54 39.8775 107.234 39.528C106.883 39.1785 106.488 39.0037 106.05 39.0037Z" fill="#377044"/>
<path d="M120.301 48.8301C120.301 48.0438 120.52 47.3884 120.959 46.8205C121.353 46.2525 121.967 45.903 122.712 45.6846C122.844 45.4225 122.976 45.1167 123.151 44.7672C123.282 44.4176 123.414 44.0245 123.502 43.6313C123.633 43.2381 123.721 42.8012 123.765 42.408C123.852 41.9711 123.852 41.5779 123.852 41.1847C123.852 40.442 123.721 39.9178 123.458 39.5683C123.195 39.2625 122.844 39.0877 122.406 39.0877C122.23 39.0877 122.055 39.0877 121.923 39.1314C121.748 39.1751 121.616 39.2188 121.485 39.3062C121.353 39.1751 121.266 39.0003 121.178 38.8256C121.134 38.6508 121.09 38.4324 121.09 38.214C121.09 37.9955 121.134 37.7771 121.266 37.646C121.353 37.4713 121.529 37.3402 121.704 37.2091C121.88 37.0781 122.099 37.0344 122.362 36.947C122.581 36.9033 122.8 36.9033 123.063 36.9033C123.502 36.9033 123.94 36.947 124.335 37.1218C124.773 37.2965 125.124 37.515 125.431 37.8645C125.737 38.1703 126.001 38.6072 126.176 39.0877C126.351 39.612 126.439 40.2236 126.439 40.9226C126.439 41.7527 126.351 42.6264 126.132 43.4565C125.957 44.2866 125.65 45.0293 125.255 45.6846C126.001 45.903 126.57 46.2525 127.009 46.8205C127.447 47.3884 127.623 48.0438 127.623 48.8301C127.623 49.3107 127.535 49.7913 127.36 50.1845C127.184 50.5777 126.965 50.9272 126.614 51.233C126.307 51.5388 125.913 51.7572 125.474 51.932C125.036 52.1067 124.51 52.1941 123.984 52.1941C123.414 52.1941 122.932 52.1067 122.493 51.932C122.011 51.7572 121.66 51.5388 121.31 51.233C121.003 50.9272 120.74 50.5777 120.564 50.1845C120.389 49.7913 120.301 49.3107 120.301 48.8301ZM122.756 48.8301C122.756 49.2233 122.888 49.5728 123.107 49.7913C123.37 50.0097 123.633 50.1408 123.984 50.1408C124.335 50.1408 124.598 50.0097 124.817 49.7913C125.08 49.5728 125.168 49.2233 125.168 48.8301C125.168 48.3933 125.08 48.0874 124.817 47.8253C124.598 47.5632 124.335 47.4321 123.984 47.4321C123.633 47.4321 123.37 47.5632 123.107 47.8253C122.888 48.0874 122.756 48.3933 122.756 48.8301Z" fill="#377044"/>
<path d="M141.601 43.1541C141.601 43.9842 141.513 44.7269 141.294 45.3822C141.075 45.9938 140.768 46.5181 140.374 46.9549C140.023 47.3918 139.541 47.6976 139.015 47.9161C138.488 48.1345 137.919 48.2219 137.261 48.2219C136.735 48.2219 136.209 48.1345 135.77 48.0035C135.288 47.8287 134.894 47.6103 134.499 47.2608C134.236 47.5229 133.885 47.7413 133.447 47.9598C133.008 48.1345 132.482 48.2219 131.825 48.2219C131.386 48.2219 130.948 48.1782 130.509 48.0471C130.115 47.9161 129.72 47.6976 129.326 47.4355C128.975 47.1297 128.712 46.7802 128.449 46.2996C128.23 45.8627 128.142 45.3385 128.142 44.6832C128.142 44.1152 128.23 43.6347 128.405 43.1978C128.624 42.7609 128.887 42.3677 129.238 42.0619C129.589 41.7561 130.027 41.5376 130.509 41.3629C130.992 41.2318 131.518 41.1444 132.132 41.1444H132.965C132.965 40.4454 133.052 39.8338 133.315 39.3096C133.534 38.7853 133.841 38.3047 134.236 37.9552C134.63 37.562 135.113 37.2999 135.639 37.1252C136.165 36.9067 136.691 36.8193 137.261 36.8193C137.875 36.8193 138.401 36.9067 138.927 37.1252C139.453 37.2999 139.891 37.562 140.286 37.9552C140.68 38.3047 140.987 38.7853 141.25 39.3096C141.47 39.8338 141.601 40.4454 141.601 41.1444H142.346C142.916 41.1444 143.442 41.2318 143.925 41.3629C144.451 41.5376 144.845 41.7561 145.24 42.0619C145.591 42.3677 145.854 42.7609 146.029 43.1978C146.248 43.6347 146.336 44.1589 146.336 44.7705C146.336 45.2948 146.248 45.7754 146.117 46.2123C145.941 46.6054 145.766 46.9986 145.503 47.2608C145.24 47.5666 144.933 47.8287 144.582 47.9598C144.232 48.1345 143.881 48.2219 143.486 48.2219C142.434 48.2219 141.908 47.785 141.908 46.8676C141.908 46.6491 141.952 46.4307 141.996 46.2559C142.609 46.2559 143.048 46.1249 143.311 45.8627C143.574 45.5569 143.705 45.2074 143.705 44.6832C143.705 44.2026 143.574 43.8094 143.311 43.5473C143.004 43.2852 142.653 43.1541 142.171 43.1541H141.601ZM137.261 46.0375C137.787 46.0375 138.225 45.8191 138.532 45.3822C138.839 44.9453 139.015 44.2026 139.015 43.1541H135.551C135.551 44.2026 135.683 44.9453 136.033 45.3822C136.34 45.8191 136.735 46.0375 137.261 46.0375ZM133.403 45.7317C133.271 45.3822 133.14 45.0327 133.052 44.5958C133.008 44.1589 132.965 43.6784 132.965 43.1541H132.263C131.825 43.1541 131.43 43.2852 131.167 43.5473C130.86 43.8094 130.729 44.1589 130.729 44.6395C130.729 45.1637 130.86 45.5132 131.123 45.7754C131.43 46.0375 131.781 46.1686 132.175 46.1686C132.438 46.1686 132.658 46.1249 132.877 46.0375C133.052 45.9938 133.228 45.8627 133.403 45.7317ZM137.261 39.0037C136.779 39.0037 136.384 39.1785 136.033 39.528C135.727 39.8775 135.551 40.4454 135.551 41.1444H139.015C138.971 40.4454 138.795 39.8775 138.488 39.528C138.138 39.1785 137.743 39.0037 137.261 39.0037Z" fill="#377044"/>
<path d="M76.6367 58.6116C76.6367 57.9562 76.4613 57.432 76.0668 57.0825C75.6284 56.733 75.1461 56.5582 74.5323 56.5582C74.0063 56.5582 73.5679 56.6456 73.2171 56.9077C72.8664 57.1699 72.6472 57.4757 72.5157 57.8252C72.6472 57.7378 72.8226 57.6504 72.9979 57.563C73.2171 57.432 73.4363 57.3883 73.6994 57.3883C73.9624 57.3883 74.1816 57.432 74.4008 57.5194C74.62 57.6067 74.8392 57.7378 75.0146 57.9126C75.1461 58.0873 75.2776 58.2621 75.3653 58.4805C75.453 58.6989 75.4968 58.9611 75.4968 59.2232C75.4968 59.4853 75.453 59.7474 75.3215 60.0096C75.2338 60.228 75.1023 60.4465 74.8831 60.6212C74.7077 60.7523 74.4885 60.8833 74.2255 60.9707C73.9186 61.1018 73.6555 61.1455 73.3048 61.1455C72.6472 61.1455 72.1211 60.927 71.7266 60.4901C71.2882 60.0969 71.1128 59.4853 71.1128 58.6552C71.1128 58.1747 71.1566 57.7378 71.332 57.3009C71.5074 56.9077 71.7266 56.5582 72.0334 56.2961C72.3403 55.9903 72.691 55.7718 73.1295 55.5971C73.5679 55.4223 74.0063 55.335 74.5323 55.335C75.1461 55.335 75.716 55.466 76.1983 55.6845C76.6367 55.9029 77.0313 56.2524 77.2943 56.6893C77.4258 56.4708 77.5573 56.2524 77.6889 56.0777C77.8642 55.9466 78.0396 55.7718 78.2588 55.6845C78.4341 55.5534 78.6533 55.466 78.8725 55.4223C79.0918 55.3786 79.3548 55.335 79.574 55.335C80.0124 55.335 80.407 55.4223 80.8015 55.5971C81.1523 55.7282 81.4591 55.9466 81.7222 56.2524C81.9852 56.5582 82.2044 56.9077 82.3359 57.3446C82.5113 57.7815 82.5551 58.2621 82.5551 58.83C82.5551 59.4853 82.4675 60.0533 82.2921 60.5338C82.0729 61.0581 81.8099 61.495 81.4591 61.8445C81.0646 62.194 80.6262 62.4998 80.1001 62.6745C79.574 62.893 78.9602 62.9804 78.3026 62.9804H73.3048C73.0856 62.9804 72.9541 63.024 72.8226 63.1114C72.7349 63.1988 72.691 63.3299 72.691 63.5046C72.691 63.6357 72.7349 63.7667 72.8226 63.8978C72.9541 63.9852 73.0856 64.0289 73.3048 64.0289H81.5468C81.766 64.0289 81.9414 64.0726 82.0729 64.1599C82.2044 64.291 82.2483 64.4657 82.2483 64.6842C82.2483 64.8152 82.2483 64.9026 82.2044 64.99C82.1606 65.1211 82.1167 65.1648 82.0729 65.2521H73.1733C72.5595 65.2521 72.0334 65.0774 71.6827 64.7716C71.2882 64.5094 71.1128 64.0726 71.1128 63.5046C71.1128 62.9804 71.2882 62.5435 71.6827 62.2377C72.0334 61.9318 72.5595 61.8008 73.1733 61.8008H78.0396C79.0041 61.8008 79.7055 61.5387 80.2316 61.0144C80.7138 60.4901 80.9769 59.7474 80.9769 58.83C80.9769 58.0873 80.8454 57.563 80.5385 57.2135C80.2754 56.8204 79.8809 56.6456 79.4425 56.6456C79.0918 56.6456 78.7849 56.7767 78.5657 57.0388C78.3026 57.3009 78.2149 57.6504 78.2149 58.131V60.6649C77.9957 60.8396 77.7327 60.8833 77.4258 60.8833C77.0751 60.8833 76.812 60.8396 76.6367 60.6649V58.6116ZM72.5157 59.1795C72.5157 59.4416 72.6034 59.6601 72.7349 59.7911C72.8664 59.9222 73.0856 60.0096 73.3048 60.0096C73.5679 60.0096 73.7432 59.9222 73.8747 59.7911C74.0501 59.6601 74.0939 59.4416 74.0939 59.1795C74.0939 58.9611 74.0501 58.7426 73.8747 58.6116C73.7432 58.4805 73.5679 58.3931 73.3048 58.3931C73.0856 58.3931 72.8664 58.4805 72.7349 58.6116C72.6034 58.7426 72.5157 58.9611 72.5157 59.1795Z" fill="#373435"/>
<path d="M87.159 55.335C87.6851 55.335 88.1674 55.466 88.6058 55.6845C89.0442 55.9029 89.3511 56.2524 89.5703 56.733C89.8333 56.2524 90.2279 55.9466 90.7101 55.6845C91.1485 55.466 91.6746 55.335 92.2445 55.335C92.946 55.335 93.5598 55.5097 94.1297 55.8592C94.4366 55.6845 94.7434 55.5534 95.0503 55.466C95.4011 55.3786 95.7518 55.335 96.1025 55.335C96.7163 55.335 97.2424 55.466 97.7246 55.6408C98.2069 55.8592 98.6453 56.1213 98.996 56.4708C99.3029 56.864 99.6098 57.3009 99.7851 57.8252C99.9605 58.3494 100.048 58.9611 100.048 59.6164C100.048 60.1843 99.9605 60.7523 99.829 61.2765C99.6536 61.7571 99.4344 62.194 99.1713 62.4998C99.0398 62.6745 98.8645 62.8056 98.6891 62.893C98.5137 62.9803 98.3384 63.0677 98.163 63.0677C97.9438 63.0677 97.7684 62.9803 97.5931 62.8493C97.4616 62.7619 97.3739 62.5872 97.33 62.4124C97.5931 62.1503 97.8561 61.7571 98.0753 61.3202C98.3384 60.8396 98.4261 60.2717 98.4261 59.6164C98.4261 59.1358 98.3822 58.7426 98.2507 58.3494C98.163 57.9562 97.9877 57.6504 97.7684 57.3883C97.5492 57.1262 97.2862 56.9077 96.9793 56.7767C96.6724 56.6456 96.3217 56.5582 95.9271 56.5582C95.7956 56.5582 95.6641 56.5582 95.5764 56.5582C95.4449 56.6019 95.3134 56.6019 95.2257 56.6456C95.6641 56.9951 96.0587 57.4757 96.3217 58.0873C96.5848 58.6552 96.7163 59.3106 96.7163 60.0533C96.7163 61.0144 96.4971 61.7571 96.0587 62.325C95.6203 62.8493 94.9627 63.1114 94.1297 63.1114C93.2967 63.1114 92.6391 62.8493 92.2007 62.325C91.7623 61.7571 91.5869 61.0144 91.5869 60.0533C91.5869 59.3106 91.7185 58.6552 91.9815 58.0873C92.2445 57.4757 92.5953 56.9951 93.0775 56.6456C92.946 56.6019 92.8583 56.6019 92.7268 56.5582C92.5953 56.5582 92.5076 56.5582 92.3761 56.5582C92.113 56.5582 91.8061 56.6019 91.5869 56.733C91.3239 56.8204 91.0608 56.9514 90.8855 57.1699C90.6663 57.3446 90.5348 57.6067 90.4032 57.8689C90.3156 58.1747 90.2279 58.4805 90.2279 58.83V62.9367C90.184 62.9367 90.0525 62.9803 89.921 62.9803C89.7895 63.024 89.6579 63.024 89.4826 63.024C89.2195 63.024 89.0003 62.9803 88.8688 62.8493C88.7373 62.7619 88.6496 62.5435 88.6496 62.2377V58.1747C88.6496 57.6941 88.5181 57.3446 88.2989 57.0825C88.0358 56.7767 87.729 56.6456 87.2906 56.6456C86.7645 56.6456 86.3261 56.864 85.9753 57.3446C85.6246 57.7815 85.4492 58.3931 85.4492 59.2232C85.4492 59.9222 85.6246 60.4901 85.9315 61.0144C86.1945 61.5386 86.6329 61.9318 87.1152 62.2813C87.1152 62.4998 87.0275 62.6745 86.8521 62.8056C86.7206 62.9803 86.5453 63.0677 86.2822 63.0677C86.063 63.0677 85.8438 63.024 85.6685 62.9367C85.4931 62.8493 85.3177 62.6745 85.1424 62.4998C84.7478 62.1503 84.4409 61.6697 84.1779 61.1018C83.9587 60.5338 83.8271 59.9222 83.8271 59.2232C83.8271 58.6116 83.9148 58.0436 84.0902 57.563C84.2656 57.0825 84.4848 56.6893 84.7916 56.3398C85.0985 56.034 85.4492 55.7718 85.8438 55.5971C86.2384 55.4223 86.6768 55.335 87.159 55.335ZM95.1819 60.0533C95.1819 59.4416 95.0942 58.8737 94.875 58.3931C94.6996 57.9125 94.4366 57.5194 94.1297 57.2135C93.8228 57.5194 93.6036 57.9125 93.4282 58.3931C93.209 58.8737 93.1213 59.4416 93.1213 60.0533C93.1213 60.6212 93.209 61.0581 93.3844 61.3639C93.5598 61.6697 93.8228 61.8445 94.1297 61.8445C94.4804 61.8445 94.7434 61.6697 94.9188 61.3639C95.0942 61.0581 95.1819 60.6212 95.1819 60.0533Z" fill="#373435"/>
<path d="M103.805 55.7718C103.629 56.0777 103.454 56.4272 103.322 56.9077C103.191 57.3883 103.103 57.9562 103.103 58.6116C103.103 59.1358 103.147 59.6601 103.235 60.097C103.322 60.5338 103.454 60.9707 103.542 61.4076C103.629 61.8445 103.761 62.2377 103.848 62.6309C103.936 63.0677 103.98 63.5046 103.98 63.9415C103.98 64.3347 103.936 64.6842 103.805 64.9463C103.673 65.2521 103.498 65.5143 103.279 65.689C103.059 65.9075 102.796 66.0385 102.489 66.1696C102.183 66.257 101.832 66.3006 101.481 66.3006C101.13 66.3006 100.78 66.257 100.517 66.1696C100.21 66.0822 99.9466 65.9511 99.7274 65.7764C99.5082 65.6453 99.3767 65.4269 99.2452 65.2084C99.1137 64.99 99.0698 64.7279 99.0698 64.4657C99.0698 64.2036 99.1575 63.9852 99.289 63.8541C99.4205 63.6794 99.6398 63.592 99.9028 63.592C100.034 63.592 100.122 63.6357 100.21 63.6357C100.341 63.6794 100.385 63.7231 100.473 63.7667V64.0289C100.473 64.3347 100.56 64.5968 100.736 64.7716C100.911 64.9463 101.174 65.0337 101.437 65.0337C101.7 65.0337 101.963 64.9463 102.139 64.7716C102.358 64.5968 102.446 64.3347 102.446 63.8978C102.446 63.5483 102.402 63.1988 102.314 62.8056C102.226 62.4561 102.095 62.0192 102.007 61.5823C101.876 61.1892 101.788 60.7086 101.7 60.228C101.613 59.7038 101.525 59.1358 101.525 58.5679C101.525 58.0873 101.569 57.6504 101.656 57.2135C101.744 56.7767 101.876 56.3835 102.095 56.034C102.226 55.7718 102.358 55.6408 102.489 55.5097C102.621 55.4223 102.796 55.335 103.015 55.335C103.191 55.335 103.366 55.3786 103.498 55.466C103.629 55.5534 103.717 55.6408 103.805 55.7718Z" fill="#373435"/>
</svg>
