<svg width="104" height="103" viewBox="0 0 104 103" fill="none" xmlns="http://www.w3.org/2000/svg">
<path fill-rule="evenodd" clip-rule="evenodd" d="M25.4509 22.6309C25.8482 23.6357 27.4816 33.6402 26.996 34.5577C26.1131 36.3489 26.687 37.7906 27.8789 39.1449C28.5852 39.8876 29.3799 40.5866 30.1303 41.373C30.5718 41.8536 31.1015 42.3341 31.4988 42.8584C32.8673 44.6059 32.5142 45.8729 30.4393 46.7029C30.2186 46.7903 29.9979 46.8777 29.7772 46.9651C29.3357 47.1835 29.1591 47.6204 29.3357 48.0573C29.4681 48.3631 29.6447 48.6252 29.7772 48.931C30.1745 49.8048 29.9979 50.5475 29.1591 51.0717C28.7618 51.2902 28.2762 51.4649 27.8789 51.6397C27.4816 51.8144 27.1284 51.9455 26.7753 52.2513C27.1284 52.3387 27.4816 52.3824 27.8348 52.4697C28.3645 52.6008 28.9384 52.6445 29.424 52.8629C30.2628 53.1687 30.4835 53.8678 30.1303 54.6104C30.0862 54.7852 29.9979 54.9163 29.9096 55.0473C28.9825 56.1832 28.9825 57.4502 29.424 58.7608C29.8213 59.9841 29.4681 60.8141 28.2762 61.3821C26.7311 62.0811 25.0536 62.1685 23.4202 62.2558C22.9346 62.2995 22.4049 62.2558 21.9193 62.2558C20.904 62.2995 20.4625 63.0859 20.1976 63.8286C19.8445 64.9208 19.5796 66.0567 19.3147 67.1926C19.1823 67.5858 19.1381 67.979 18.5643 67.9353C18.0787 67.8479 17.8579 67.4984 17.9904 66.9305C18.2552 65.8383 18.5201 64.7461 18.8291 63.6539C18.9616 63.1733 19.2706 62.7364 19.5355 62.2995C20.1535 61.2073 21.1688 60.9452 22.3608 60.9015C23.8175 60.8578 25.2743 60.6831 26.7311 60.5083C26.9519 60.4646 27.1726 60.3773 27.3933 60.3336C28.2321 59.9841 28.3204 59.8093 28.0555 58.9356C27.614 57.3628 27.614 55.79 28.7177 54.392C28.7618 54.3483 28.806 54.2609 28.8501 54.1736C28.8501 54.1736 28.8501 54.1299 28.8501 53.9988C28.3645 53.9114 27.8789 53.9114 27.4375 53.7367C26.7311 53.5182 26.0248 53.2561 25.4509 52.9066C24.8329 52.5134 24.8329 51.8581 25.4068 51.3775C25.8041 51.0717 26.3338 50.8533 26.7753 50.6348C27.2609 50.4164 27.7465 50.2417 28.2321 50.0669C28.5852 49.9358 28.7177 49.7174 28.4969 49.3679C28.3645 49.1495 28.2762 48.931 28.1879 48.7563C27.614 47.7077 28.0555 46.135 29.424 45.6544C29.6447 45.567 29.9096 45.4797 30.1303 45.3923C31.0574 44.9991 31.1898 44.6496 30.5276 43.8632C29.7772 42.9458 28.8943 42.072 28.0113 41.1982C26.7753 40.0187 25.6275 38.7954 25.2743 37.0479C25.186 36.5236 25.2302 35.9557 25.3185 35.4314C25.4068 34.9509 25.6275 34.514 25.7599 34.0771C26.0248 33.3781 24.4797 23.7667 24.1266 23.0677L25.4509 22.6309Z" fill="#F58B71" stroke="#F58B71" stroke-width="0.0135276"/>
<path fill-rule="evenodd" clip-rule="evenodd" d="M51.601 52.2823C51.5128 56.7822 50.0118 60.7141 46.9658 64.0344C46.7892 64.2092 46.6568 64.3839 46.436 64.5587C46.0387 64.9082 45.5973 64.9082 45.2 64.5587C44.8027 64.1655 44.8027 63.6849 45.1558 63.2917C45.509 62.8548 45.9505 62.4616 46.3036 62.0248C49.9677 57.2628 50.7623 52.0202 48.6433 46.4282C47.8928 44.5496 46.7892 42.9331 45.4207 41.4477C45.1558 41.1856 44.9351 40.705 44.9793 40.3992C45.0675 39.6565 45.9505 39.5255 46.5685 40.0934C48.1136 41.6225 49.2613 43.37 50.1443 45.2923C51.1154 47.5204 51.601 49.8795 51.601 52.2823Z" fill="#F58B71"/>
<path fill-rule="evenodd" clip-rule="evenodd" d="M51.601 52.2823C51.5128 56.7822 50.0118 60.7141 46.9658 64.0344C46.7892 64.2092 46.6568 64.3839 46.436 64.5587C46.0387 64.9082 45.5973 64.9082 45.2 64.5587C44.8027 64.1655 44.8027 63.6849 45.1558 63.2917C45.509 62.8548 45.9505 62.4616 46.3036 62.0248C49.9677 57.2628 50.7623 52.0202 48.6433 46.4282C47.8928 44.5496 46.7892 42.9331 45.4207 41.4477C45.1558 41.1856 44.9351 40.705 44.9793 40.3992C45.0675 39.6565 45.9505 39.5255 46.5685 40.0934C48.1136 41.6225 49.2613 43.37 50.1443 45.2923C51.1154 47.5204 51.601 49.8795 51.601 52.2823Z" stroke="#F58B71" stroke-width="0.0135276"/>
<path fill-rule="evenodd" clip-rule="evenodd" d="M45.5771 53.5544C45.5329 55.7825 44.341 58.8844 41.9572 61.5057C41.8689 61.6367 41.7806 61.7241 41.6482 61.8552C41.2067 62.292 40.7211 62.4231 40.2355 61.9425C39.7499 61.5057 39.9265 61.0251 40.3238 60.5882C41.5599 59.3649 42.5311 57.9232 43.0608 56.2194C44.5176 51.8069 43.723 47.7876 40.5887 44.2052C40.4562 44.0742 40.2796 43.9431 40.1914 43.7683C39.8823 43.3752 39.8382 42.9383 40.2355 42.5888C40.5887 42.283 41.0743 42.1519 41.5157 42.5451C41.913 42.9383 42.3103 43.3752 42.6635 43.812C44.5617 46.3022 45.5771 49.142 45.5771 53.5544Z" fill="#F58B71"/>
<path fill-rule="evenodd" clip-rule="evenodd" d="M45.5771 53.5544C45.5329 55.7825 44.341 58.8844 41.9572 61.5057C41.8689 61.6367 41.7806 61.7241 41.6482 61.8552C41.2067 62.292 40.7211 62.4231 40.2355 61.9425C39.7499 61.5057 39.9265 61.0251 40.3238 60.5882C41.5599 59.3649 42.5311 57.9232 43.0608 56.2194C44.5176 51.8069 43.723 47.7876 40.5887 44.2052C40.4562 44.0742 40.2796 43.9431 40.1914 43.7683C39.8823 43.3752 39.8382 42.9383 40.2355 42.5888C40.5887 42.283 41.0743 42.1519 41.5157 42.5451C41.913 42.9383 42.3103 43.3752 42.6635 43.812C44.5617 46.3022 45.5771 49.142 45.5771 53.5544Z" stroke="#F58B71" stroke-width="0.0135276"/>
<path fill-rule="evenodd" clip-rule="evenodd" d="M37.7707 52.0921C37.7265 49.9951 36.9319 48.1165 35.431 46.5C34.8129 45.8447 34.9012 45.1457 35.6958 44.9273C36.0049 44.8399 36.4905 45.0147 36.7112 45.2331C38.786 47.3738 39.7131 49.9514 39.5365 52.8785C39.4041 55.2813 38.477 57.3784 36.8436 59.1696C36.4022 59.6064 35.9607 59.9123 35.3427 59.4317C34.9012 59.0822 34.9454 58.5142 35.5193 57.9026C36.9761 56.2862 37.7265 54.4076 37.7707 52.0921Z" fill="#F58B71"/>
<path fill-rule="evenodd" clip-rule="evenodd" d="M37.7707 52.0921C37.7265 49.9951 36.9319 48.1165 35.431 46.5C34.8129 45.8447 34.9012 45.1457 35.6958 44.9273C36.0049 44.8399 36.4905 45.0147 36.7112 45.2331C38.786 47.3738 39.7131 49.9514 39.5365 52.8785C39.4041 55.2813 38.477 57.3784 36.8436 59.1696C36.4022 59.6064 35.9607 59.9123 35.3427 59.4317C34.9012 59.0822 34.9454 58.5142 35.5193 57.9026C36.9761 56.2862 37.7265 54.4076 37.7707 52.0921Z" stroke="#F58B71" stroke-width="0.0135276"/>
<path fill-rule="evenodd" clip-rule="evenodd" d="M39.5052 90.8579C45.3212 93.0497 51.6841 94.2574 58.3546 94.2574C66.6097 94.2574 74.4235 92.3788 81.3101 89.1022C72.8784 95.3933 62.4159 99.1505 51.0706 99.1505C44.615 99.1505 38.4452 97.9432 32.779 95.7449L39.5052 90.8579ZM25.3779 82.7718C14.9022 74.264 8.29382 61.7718 8.29382 47.8608C8.29382 22.2596 30.6755 1.46416 58.3546 1.46416C60.3853 1.46416 62.4159 1.59523 64.4025 1.81367C60.1645 0.634093 55.6617 0.0224609 51.0706 0.0224609C23.3915 0.0224609 0.965698 22.216 0.965698 49.6083C0.965698 67.0598 10.0971 82.4121 23.8981 91.2383L25.3779 82.7718Z" fill="#F47D5C"/>
<path d="M29.4057 79.6738L22.4749 102.129L40.9276 85.1785L29.4057 79.6738Z" fill="#377044"/>
<path fill-rule="evenodd" clip-rule="evenodd" d="M16.716 48.7104C16.716 69.8116 33.9768 86.8936 55.299 86.8936C69.4422 86.8936 81.8106 79.3467 88.5149 68.0888H93.3529C86.2506 81.7506 71.8726 91.0877 55.299 91.0877C31.6371 91.0877 12.478 72.1271 12.478 48.7104C12.478 25.2936 31.6371 6.33301 55.299 6.33301C71.0307 6.33301 84.7842 14.7456 92.2149 27.2842H87.2053C80.272 17.1683 68.5664 10.5271 55.299 10.5271C33.9768 10.5271 16.716 27.6091 16.716 48.7104Z" fill="#377044"/>
<path d="M69.5733 37.4425V48.1023C69.3967 48.146 69.2201 48.1897 68.9994 48.2334C68.8228 48.2771 68.5579 48.2771 68.2931 48.2771C67.6309 48.2771 67.1894 48.1897 66.9687 47.9713C66.7038 47.7528 66.5714 47.447 66.5714 46.9665V46.049C66.2182 46.2674 65.8209 46.4422 65.3353 46.5296C64.8497 46.6606 64.32 46.748 63.6578 46.748C63.0398 46.748 62.4659 46.6606 61.892 46.4422C61.3623 46.2674 60.8767 46.0053 60.4794 45.6558C60.082 45.2626 59.7289 44.8257 59.5082 44.3452C59.2874 43.8209 59.155 43.253 59.155 42.5977C59.155 41.986 59.2874 41.4181 59.5082 40.9375C59.7289 40.4569 59.9938 40.0201 60.3911 39.6706C60.7884 39.3211 61.2298 39.0589 61.7596 38.8842C62.2893 38.6657 62.8632 38.5784 63.5254 38.5784C64.2317 38.5784 64.7614 38.7094 65.0705 38.9715C65.4236 39.2337 65.6002 39.6269 65.6002 40.0637C65.6002 40.2385 65.6002 40.4133 65.5119 40.588C65.4678 40.7628 65.4236 40.8938 65.3353 41.0249C65.2029 41.0249 65.0705 40.9812 64.8939 40.9375C64.7173 40.9375 64.4966 40.8938 64.2758 40.8938C63.9227 40.8938 63.6137 40.9375 63.3929 41.0249L66.5714 43.4277V37.4425H58.4928C58.1838 37.4425 57.9631 37.3551 57.8306 37.1803C57.6982 37.0056 57.6541 36.6998 57.6541 36.3503C57.6541 36.1755 57.6541 36.0008 57.6982 35.7823C57.7423 35.6076 57.7865 35.4328 57.8306 35.3018H70.8976C71.4274 35.3018 71.7364 35.6513 71.7364 36.394C71.7364 36.525 71.6923 36.6998 71.6481 36.9182C71.6481 37.1367 71.604 37.3114 71.5157 37.4425H69.5733ZM64.2317 44.3889C64.7173 44.3889 65.2029 44.3452 65.5561 44.1704L62.4217 41.7676C62.2452 42.0297 62.1569 42.3355 62.1569 42.685C62.1569 43.2093 62.3335 43.6462 62.7308 43.952C63.1281 44.2578 63.6578 44.3889 64.2317 44.3889Z" fill="#377044"/>
<path d="M75.5099 37.4445V48.1044C75.3333 48.148 75.1567 48.1917 74.936 48.2354C74.7594 48.2791 74.4945 48.2791 74.2297 48.2791C73.5675 48.2791 73.126 48.1917 72.9053 47.9733C72.6404 47.7549 72.5521 47.449 72.5521 46.9685V37.4445H71.1836C70.8746 37.4445 70.6539 37.3571 70.5215 37.1824C70.389 37.0076 70.3007 36.7018 70.3007 36.3523C70.3007 36.1775 70.3449 36.0028 70.389 35.7843C70.389 35.6096 70.4332 35.4348 70.5215 35.3038H72.5521C72.3314 34.9106 72.0224 34.5174 71.6692 34.1679C71.3161 33.8184 70.9188 33.5126 70.5215 33.2067C70.08 32.9446 69.6827 32.6825 69.2412 32.5077C68.8439 32.2893 68.4466 32.1582 68.0493 32.0272C68.0493 31.9835 68.0493 31.8961 68.0493 31.8524C68.0493 31.8087 68.0493 31.7214 68.0493 31.634C68.0493 31.1534 68.1818 30.7602 68.4466 30.367C68.7115 30.0175 69.1529 29.8428 69.7268 29.8428C70.2124 29.8428 70.7422 29.9738 71.2719 30.3233C71.8017 30.6292 72.3314 31.0223 72.817 31.5466C73.3026 32.0709 73.7441 32.6388 74.1414 33.2941C74.5387 33.9494 74.8918 34.6048 75.1567 35.3038H76.8342C77.4081 35.3038 77.673 35.6533 77.673 36.396C77.673 36.527 77.673 36.7018 77.6288 36.9202C77.5847 37.1387 77.5406 37.3134 77.4523 37.4445H75.5099Z" fill="#377044"/>
<path d="M86.3004 44.5636C85.859 44.6947 85.4175 44.782 84.9319 44.782C84.4463 44.782 84.049 44.651 83.8283 44.4325C83.6076 44.1704 83.4751 43.8209 83.4751 43.4277C83.4751 42.8161 83.6076 42.2918 83.7842 41.8113C83.4751 41.6802 83.122 41.6365 82.813 41.6365C82.1508 41.6365 81.6652 41.8113 81.312 42.2045C81.003 42.5976 80.8264 43.1219 80.8264 43.6898C80.8264 44.1267 80.9147 44.5199 81.0913 44.8694C81.2679 45.1752 81.4886 45.4374 81.7535 45.6558C82.0625 45.8742 82.3715 46.049 82.6805 46.1801C83.0337 46.2674 83.3869 46.3548 83.74 46.3985C83.74 46.4859 83.74 46.5296 83.74 46.6169C83.74 46.7043 83.74 46.748 83.74 46.8354C83.74 47.2723 83.6076 47.6655 83.3427 47.9713C83.122 48.2771 82.6364 48.4081 82.0183 48.4081C81.4886 48.4081 81.003 48.3208 80.4733 48.1023C79.9877 47.8839 79.5462 47.5781 79.1489 47.1412C78.7516 46.748 78.3984 46.2238 78.1777 45.6558C77.9128 45.0442 77.7804 44.3889 77.7804 43.6462C77.7804 42.9035 77.9128 42.2918 78.1336 41.7676C78.3543 41.1996 78.7075 40.7628 79.1048 40.3696C79.5021 40.0201 79.9435 39.7579 80.4733 39.5832C81.003 39.3647 81.5327 39.2774 82.1066 39.2774C82.7247 39.2774 83.2544 39.3647 83.74 39.5395C84.1815 39.7142 84.5788 39.9327 84.9319 40.1948C85.2851 39.889 85.6824 39.6706 86.1239 39.5395C86.5653 39.3647 87.0509 39.2774 87.6248 39.2774C87.8014 39.2774 87.9338 39.2774 88.1104 39.3211C88.2428 39.3211 88.3753 39.3211 88.5518 39.3647V37.4425H77.1624C76.8534 37.4425 76.6326 37.3551 76.5002 37.1803C76.3678 37.0056 76.3236 36.6998 76.3236 36.3503C76.3236 36.1755 76.3236 36.0008 76.3678 35.7823C76.4119 35.6076 76.456 35.4328 76.5002 35.3018H92.8339C93.3637 35.3018 93.6727 35.6513 93.6727 36.394C93.6727 36.525 93.6727 36.6998 93.6286 36.9182C93.5844 37.1367 93.5403 37.3114 93.452 37.4425H91.4654V48.1023C91.333 48.146 91.1564 48.1897 90.9798 48.2334C90.7591 48.2771 90.4942 48.2771 90.2294 48.2771C89.5672 48.2771 89.1257 48.1897 88.905 47.9713C88.6401 47.7528 88.5518 47.447 88.5518 46.9664V41.6365C88.4636 41.6365 88.4194 41.6365 88.3753 41.6365C88.3311 41.6365 88.287 41.6365 88.2428 41.6365C87.5807 41.6365 87.0951 41.855 86.786 42.2918C86.4329 42.7724 86.3004 43.5151 86.3004 44.5636Z" fill="#377044"/>
<path d="M97.479 37.4425V48.1023C97.3024 48.146 97.1258 48.1897 96.9492 48.2334C96.7285 48.2771 96.4636 48.2771 96.1988 48.2771C95.5366 48.2771 95.0951 48.1897 94.8744 47.9713C94.6095 47.7528 94.5212 47.447 94.5212 46.9665V37.4425H93.1527C92.8437 37.4425 92.623 37.3551 92.4905 37.1803C92.3581 37.0056 92.314 36.6998 92.314 36.3503C92.314 36.1755 92.314 36.0008 92.3581 35.7823C92.4023 35.6076 92.4464 35.4328 92.4905 35.3018H98.8033C99.3772 35.3018 99.6421 35.6513 99.6421 36.394C99.6421 36.525 99.6421 36.6998 99.5979 36.9182C99.5538 37.1367 99.5097 37.3114 99.4214 37.4425H97.479Z" fill="#377044"/>
<path d="M74.2905 59.6029C74.5113 59.5592 74.7761 59.5155 74.9969 59.4718C75.2176 59.4281 75.4825 59.4281 75.7473 59.4281C76.5861 59.4281 77.2483 59.6029 77.6897 59.9524C78.1312 60.3019 78.3519 60.7824 78.3519 61.3504C78.3519 61.6999 78.2636 62.0057 78.087 62.2678C77.9546 62.5737 77.7339 62.7921 77.4249 62.9668C77.16 63.1416 76.8068 63.2727 76.4095 63.36C76.0564 63.4474 75.6149 63.4911 75.1734 63.4911C75.3942 63.6659 75.6149 63.8843 75.8798 64.059C76.1446 64.1901 76.3654 64.3649 76.6302 64.5396C76.6302 64.8454 76.4978 65.1076 76.3212 65.326C76.1005 65.5444 75.8356 65.6755 75.4825 65.6755C75.1734 65.6755 74.8644 65.5444 74.5996 65.3697C74.3788 65.1512 74.114 64.8454 73.8491 64.4085L73.3193 63.36C72.8337 63.229 72.4806 63.0979 72.2157 62.8795C71.9508 62.661 71.8184 62.3989 71.8184 62.0931C71.8184 61.8746 71.9067 61.6562 72.0391 61.5251C72.1716 61.3504 72.3482 61.263 72.5247 61.1756C72.7896 61.4378 73.1428 61.6125 73.5842 61.831C73.9815 62.0494 74.5113 62.1368 75.0852 62.1368C75.5266 62.1368 75.8356 62.0494 76.0564 61.9183C76.2771 61.831 76.3654 61.6125 76.3654 61.3941C76.3654 60.9572 75.9681 60.7388 75.1734 60.7388C74.9527 60.7388 74.732 60.7824 74.5113 60.8261C74.2905 60.8698 74.0698 60.9135 73.8491 61.0009C73.6725 60.9135 73.4518 60.8261 73.2311 60.7388C73.0103 60.6077 72.7896 60.4766 72.613 60.3019C72.4364 60.1708 72.304 59.9524 72.1716 59.7339C72.0391 59.5155 71.995 59.2534 71.995 58.9475C71.995 58.4233 72.1716 57.9864 72.5689 57.6806C72.9662 57.3748 73.4959 57.2437 74.1581 57.2437H75.8356V56.4136H71.4211C71.2004 56.4136 71.0679 56.3263 70.9796 56.2389C70.8914 56.1078 70.8914 55.9331 70.8914 55.6709C70.8914 55.5836 70.8914 55.4525 70.8914 55.3214C70.9355 55.1904 70.9355 55.103 70.9796 55.0156H78.7492C79.1024 55.0156 79.3231 55.2341 79.3231 55.7146C79.3231 55.802 79.279 55.9331 79.279 56.0641C79.2348 56.1952 79.1907 56.3263 79.1465 56.4136H77.7339V57.8553C77.7339 58.2922 77.5131 58.5107 77.0276 58.5107H74.732C74.423 58.5107 74.2464 58.5544 74.114 58.6417C74.0257 58.7728 73.9815 58.9039 73.9815 59.0786C73.9815 59.2097 73.9815 59.297 74.0698 59.3844C74.114 59.4718 74.2023 59.5592 74.2905 59.6029Z" fill="#373435"/>
<path d="M75.637 52.9899C75.637 52.6841 75.7694 52.422 75.946 52.2472C76.1667 52.0288 76.4316 51.9414 76.7847 51.9414C77.0938 51.9414 77.4028 52.0288 77.5794 52.2472C77.8001 52.422 77.8884 52.6841 77.8884 52.9899C77.8884 53.2521 77.8001 53.5142 77.5794 53.7326C77.4028 53.9511 77.0938 54.0384 76.7847 54.0384C76.4316 54.0384 76.1667 53.9511 75.946 53.7326C75.7694 53.5142 75.637 53.2521 75.637 52.9899Z" fill="#373435"/>
<path d="M81.6608 56.4152V63.3179C81.5284 63.3179 81.4401 63.3616 81.3077 63.3616C81.1752 63.4053 80.9986 63.4053 80.8221 63.4053C80.3806 63.4053 80.1157 63.3616 79.9392 63.2305C79.8067 63.0995 79.7184 62.881 79.7184 62.5752V56.4152H78.8355C78.6589 56.4152 78.4824 56.3278 78.4382 56.2405C78.3499 56.1094 78.3058 55.9346 78.3058 55.6725C78.3058 55.5851 78.3058 55.4541 78.3499 55.323C78.3499 55.1919 78.3941 55.1046 78.4382 55.0172H79.6301C79.5419 54.8861 79.4977 54.7114 79.4536 54.5366C79.4094 54.3619 79.4094 54.1434 79.4094 53.9687C79.4094 53.5318 79.4977 53.1823 79.6743 52.8328C79.8067 52.527 80.0716 52.2648 80.3806 52.0027C80.6896 51.7843 81.0869 51.6095 81.5284 51.5222C81.9698 51.3911 82.4996 51.3037 83.0735 51.3037C83.8239 51.3037 84.5744 51.3911 85.1925 51.5658C85.8546 51.7406 86.3844 51.9153 86.87 52.1775C87.3114 52.3959 87.6646 52.658 87.9295 52.9202C88.1943 53.1823 88.3268 53.4444 88.3268 53.6192C88.3268 53.8813 88.1943 54.0561 87.9736 54.1871C87.797 54.3182 87.488 54.4056 87.0907 54.4056C86.6051 53.8813 86.0754 53.4881 85.4573 53.226C84.8393 52.9639 84.0888 52.8328 83.2501 52.8328C82.632 52.8328 82.1464 52.9639 81.8374 53.1823C81.5284 53.4007 81.3518 53.7502 81.3518 54.1871C81.3518 54.5366 81.4401 54.7987 81.5725 55.0172H82.4996C82.8969 55.0172 83.0735 55.2356 83.0735 55.7162C83.0735 55.8036 83.0293 55.9346 83.0293 56.0657C82.9852 56.1968 82.941 56.3278 82.8969 56.4152H81.6608Z" fill="#373435"/>
<path d="M85.5429 59.6029C85.7637 59.5592 85.9844 59.5155 86.2493 59.4718C86.47 59.4281 86.6907 59.4281 86.9556 59.4281C87.8385 59.4281 88.5007 59.6029 88.898 59.9524C89.3394 60.3019 89.5601 60.7824 89.5601 61.3504C89.5601 61.6999 89.4719 62.0494 89.3394 62.3115C89.1628 62.5737 88.9421 62.7921 88.6772 63.0105C88.4124 63.1853 88.0592 63.3163 87.6619 63.4037C87.2646 63.4911 86.8231 63.5348 86.3375 63.5348C85.8961 63.5348 85.4988 63.5348 85.1015 63.4474C84.7042 63.36 84.351 63.2727 84.042 63.1416C83.733 63.0542 83.5123 62.8795 83.3357 62.7047C83.1591 62.53 83.0708 62.3115 83.0708 62.0931C83.0708 61.8746 83.1149 61.6562 83.2915 61.5251C83.424 61.3504 83.6005 61.263 83.7771 61.1756C83.9096 61.3067 84.042 61.4378 84.2186 61.5251C84.3952 61.6562 84.5717 61.7436 84.7925 61.831C85.0132 61.9183 85.2339 62.0057 85.4988 62.0494C85.7637 62.0931 86.0285 62.1368 86.3375 62.1368C86.7349 62.1368 87.088 62.0494 87.3087 61.9183C87.4853 61.831 87.6178 61.6125 87.6178 61.3941C87.6178 60.9572 87.2205 60.7388 86.4258 60.7388C86.2051 60.7388 85.9402 60.7824 85.7195 60.8261C85.4988 60.8698 85.2781 60.9135 85.1015 61.0009C84.8808 60.9135 84.66 60.8261 84.4393 60.7388C84.2186 60.6077 84.042 60.4766 83.8654 60.3019C83.6888 60.1708 83.5123 59.9524 83.424 59.7339C83.2915 59.5155 83.2032 59.2534 83.2032 58.9475C83.2032 58.4233 83.424 57.9864 83.8213 57.6806C84.1744 57.3748 84.7042 57.2437 85.4105 57.2437H87.088V56.4136H82.6735C82.4528 56.4136 82.3203 56.3263 82.232 56.2389C82.1438 56.1078 82.0996 55.9331 82.0996 55.6709C82.0996 55.5836 82.0996 55.4525 82.1438 55.3214C82.1438 55.1904 82.1879 55.103 82.232 55.0156H90.0016C90.3548 55.0156 90.5313 55.2341 90.5313 55.7146C90.5313 55.802 90.5313 55.9331 90.5313 56.0641C90.4872 56.1952 90.4431 56.3263 90.3989 56.4136H88.9863V57.8553C88.9863 58.2922 88.7655 58.5107 88.2799 58.5107H85.9402C85.6754 58.5107 85.4546 58.5544 85.3664 58.6417C85.2339 58.7728 85.1898 58.9039 85.1898 59.0786C85.1898 59.2097 85.2339 59.2971 85.2781 59.3844C85.3664 59.4718 85.4105 59.5592 85.5429 59.6029Z" fill="#373435"/>
<path d="M97.7255 56.4136V63.3163C97.6372 63.3163 97.5489 63.36 97.3723 63.36C97.2399 63.4037 97.1074 63.4037 96.9309 63.4037C96.4894 63.4037 96.2245 63.36 96.048 63.229C95.9155 63.0979 95.8272 62.8795 95.8272 62.5736V61.5251C95.6065 61.6562 95.3416 61.7873 95.0326 61.8746C94.7236 61.962 94.4146 62.0057 94.0173 62.0057C93.3992 62.0057 92.8253 61.8746 92.2956 61.6125C91.81 61.3941 91.3686 61.0446 91.1037 60.6077C90.883 60.3019 90.7064 59.9961 90.6181 59.6902C90.5298 59.3844 90.4856 59.1223 90.4856 58.9475C90.4856 58.8165 90.4856 58.7291 90.5298 58.598C90.5739 58.5107 90.6622 58.467 90.8388 58.467C91.3686 58.3796 91.7217 58.2922 91.9424 58.1175C92.2073 57.9427 92.2956 57.6806 92.2956 57.3748C92.2956 57.1563 92.2515 56.9816 92.1632 56.8068C92.0307 56.6321 91.8983 56.501 91.7217 56.4136H90.0883C89.9118 56.4136 89.7352 56.3263 89.6469 56.2389C89.6027 56.1078 89.5586 55.9331 89.5586 55.6709C89.5586 55.5836 89.5586 55.4525 89.5586 55.3214C89.6027 55.1904 89.6469 55.103 89.6469 55.0156H98.6084C98.9615 55.0156 99.1381 55.2341 99.1381 55.7146C99.1381 55.802 99.1381 55.9331 99.094 56.0641C99.094 56.1952 99.0498 56.3263 99.0057 56.4136H97.7255ZM94.238 60.4766C94.5912 60.4766 94.9002 60.4329 95.165 60.3019C95.4299 60.1708 95.6506 59.9961 95.8272 59.8213V56.4136H93.7083C93.8407 56.5447 93.9731 56.7195 94.1056 56.9379C94.1938 57.1126 94.2821 57.3748 94.2821 57.5932C94.2821 58.1175 94.1056 58.5107 93.7524 58.8165C93.4434 59.1223 93.0019 59.297 92.4722 59.3844C92.5605 59.6902 92.7812 59.9524 93.0461 60.1708C93.3551 60.3892 93.7524 60.4766 94.238 60.4766Z" fill="#373435"/>
<path d="M101.62 56.4136V63.3163C101.488 63.3163 101.4 63.36 101.267 63.36C101.135 63.4037 100.958 63.4037 100.782 63.4037C100.34 63.4037 100.075 63.36 99.8987 63.229C99.7663 63.0979 99.678 62.8795 99.678 62.5736V56.4136H98.7951C98.6185 56.4136 98.442 56.3263 98.3978 56.2389C98.3095 56.1078 98.2654 55.9331 98.2654 55.6709C98.2654 55.5836 98.2654 55.4525 98.3095 55.3214C98.3095 55.1904 98.3537 55.103 98.3978 55.0156H102.459C102.812 55.0156 103.033 55.2341 103.033 55.7146C103.033 55.802 102.989 55.9331 102.989 56.0641C102.945 56.1952 102.901 56.3263 102.856 56.4136H101.62Z" fill="#373435"/>
</svg>
