<svg width="44" height="44" viewBox="0 0 44 44" fill="none" xmlns="http://www.w3.org/2000/svg">
<path d="M22 44C34.1503 44 44 34.1503 44 22C44 9.84974 34.1503 0 22 0C9.84973 0 0 9.84974 0 22C0 34.1503 9.84973 44 22 44Z" fill="#2A8908" fill-opacity="0.15"/>
<path d="M13.1992 15.5103V15.2903" stroke="#2A8908" stroke-width="2" stroke-linecap="round"/>
<path d="M30.8008 15.5103V15.2903" stroke="#2A8908" stroke-width="2" stroke-linecap="round"/>
<path d="M21.9992 35.2C24.3331 35.2 26.5714 34.2729 28.2218 32.6225C29.8721 30.9722 30.7992 28.7339 30.7992 26.4H13.1992C13.1992 28.7339 14.1264 30.9722 15.7767 32.6225C17.427 34.2729 19.6653 35.2 21.9992 35.2Z" stroke="#2A8908" stroke-linecap="round" stroke-linejoin="round"/>
</svg>
