<svg width="46" height="46" viewBox="0 0 46 46" fill="none" xmlns="http://www.w3.org/2000/svg">
<path d="M23 45C35.1503 45 45 35.1503 45 23C45 10.8497 35.1503 1 23 1C10.8497 1 1 10.8497 1 23C1 35.1503 10.8497 45 23 45Z" fill="#2A8908" fill-opacity="0.15" stroke="#2A8908" stroke-width="2" stroke-linecap="round"/>
<path d="M14.1992 16.5103V16.2903" stroke="#2A8908" stroke-width="4" stroke-linecap="round"/>
<path d="M31.8008 16.5103V16.2903" stroke="#2A8908" stroke-width="4" stroke-linecap="round"/>
<path d="M22.9992 36.2C25.3331 36.2 27.5714 35.2729 29.2218 33.6225C30.8721 31.9722 31.7992 29.7339 31.7992 27.4H14.1992C14.1992 29.7339 15.1264 31.9722 16.7767 33.6225C18.427 35.2729 20.6653 36.2 22.9992 36.2Z" stroke="#2A8908" stroke-width="2" stroke-linecap="round" stroke-linejoin="round"/>
</svg>
