<?xml version="1.0" encoding="UTF-8"?>
<!DOCTYPE svg PUBLIC "-//W3C//DTD SVG 1.1//EN" "http://www.w3.org/Graphics/SVG/1.1/DTD/svg11.dtd">
<!-- Creator: CorelDRAW X7 -->
<svg xmlns="http://www.w3.org/2000/svg" xml:space="preserve" width="484px" height="611px" version="1.1" style="shape-rendering:geometricPrecision; text-rendering:geometricPrecision; image-rendering:optimizeQuality; fill-rule:evenodd; clip-rule:evenodd"
viewBox="0 0 9575 12084"
 xmlns:xlink="http://www.w3.org/1999/xlink">
 <defs>
  <style type="text/css">
   <![CDATA[
    .fil3 {fill:none}
    .fil5 {fill:#70342D}
    .fil16 {fill:#7A1C09}
    .fil14 {fill:#C4491C}
    .fil18 {fill:white}
    .fil19 {fill:#7A1C09;fill-rule:nonzero}
    .fil11 {fill:#F6DFB4;fill-rule:nonzero}
    .fil6 {fill:#FFEBBF;fill-rule:nonzero}
    .fil22 {fill:#FFF5DF;fill-rule:nonzero}
    .fil7 {fill:#FFF7EB;fill-rule:nonzero}
    .fil21 {fill:white;fill-rule:nonzero}
    .fil1 {fill:#FFF0D4;fill-rule:nonzero;fill-opacity:0.501961}
    .fil13 {fill:url(#id0)}
    .fil10 {fill:url(#id1)}
    .fil4 {fill:url(#id2)}
    .fil12 {fill:url(#id3)}
    .fil9 {fill:url(#id4)}
    .fil8 {fill:url(#id5)}
    .fil0 {fill:url(#id6)}
    .fil2 {fill:url(#id7)}
    .fil17 {fill:url(#id8)}
    .fil15 {fill:url(#id9)}
    .fil23 {fill:url(#id10)}
    .fil20 {fill:url(#id11);fill-rule:nonzero}
   ]]>
  </style>
  <linearGradient id="id0" gradientUnits="userSpaceOnUse" x1="4787.75" y1="2098.23" x2="4787.75" y2="7751.59">
   <stop offset="0" style="stop-opacity:1; stop-color:#F4D8BA"/>
   <stop offset="0.278431" style="stop-opacity:1; stop-color:#F28F1D"/>
   <stop offset="0.541176" style="stop-opacity:1; stop-color:#BF391B"/>
   <stop offset="1" style="stop-opacity:1; stop-color:#D9601F"/>
  </linearGradient>
  <linearGradient id="id1" gradientUnits="userSpaceOnUse" x1="4787.66" y1="2119.2" x2="4787.75" y2="8000.71">
   <stop offset="0" style="stop-opacity:1; stop-color:#F08B18"/>
   <stop offset="0.470588" style="stop-opacity:1; stop-color:#AB1916"/>
   <stop offset="1" style="stop-opacity:1; stop-color:#D95E1C"/>
  </linearGradient>
  <linearGradient id="id2" gradientUnits="userSpaceOnUse" x1="4805.57" y1="424.21" x2="4805.57" y2="9554.04">
   <stop offset="0" style="stop-opacity:1; stop-color:#FFD991"/>
   <stop offset="0.258824" style="stop-opacity:1; stop-color:#EC9A3E"/>
   <stop offset="0.611765" style="stop-opacity:1; stop-color:#A12224"/>
   <stop offset="1" style="stop-opacity:1; stop-color:#CF5A1B"/>
  </linearGradient>
  <linearGradient id="id3" gradientUnits="userSpaceOnUse" x1="4786.47" y1="8304.46" x2="4786.56" y2="4787.66">
   <stop offset="0" style="stop-opacity:1; stop-color:#F6DFB4"/>
   <stop offset="1" style="stop-opacity:1; stop-color:#BC3416"/>
  </linearGradient>
  <linearGradient id="id4" gradientUnits="userSpaceOnUse" x1="8924.1" y1="4009.32" x2="8928.82" y2="5373.27">
   <stop offset="0" style="stop-opacity:1; stop-color:#FCE0AB"/>
   <stop offset="1" style="stop-opacity:1; stop-color:#D15C1E"/>
  </linearGradient>
  <linearGradient id="id5" gradientUnits="userSpaceOnUse" xlink:href="#id4" x1="797.671" y1="4009.32" x2="802.388" y2="5373.27">
  </linearGradient>
  <linearGradient id="id6" gradientUnits="userSpaceOnUse" x1="7235.93" y1="8774.07" x2="4822.83" y2="9123.48">
   <stop offset="0" style="stop-opacity:1; stop-color:red"/>
   <stop offset="1" style="stop-opacity:1; stop-color:#B00205"/>
  </linearGradient>
  <linearGradient id="id7" gradientUnits="userSpaceOnUse" x1="2405.76" y1="9569.62" x2="4350.28" y2="8330.36">
   <stop offset="0" style="stop-opacity:1; stop-color:#B00205"/>
   <stop offset="1" style="stop-opacity:1; stop-color:red"/>
  </linearGradient>
  <linearGradient id="id8" gradientUnits="userSpaceOnUse" x1="3554.66" y1="5756.68" x2="3554.92" y2="2908.3">
   <stop offset="0" style="stop-opacity:1; stop-color:#E3A96A"/>
   <stop offset="1" style="stop-opacity:1; stop-color:#FCE0AB"/>
  </linearGradient>
  <linearGradient id="id9" gradientUnits="userSpaceOnUse" x1="5069.59" y1="2119.09" x2="5069.69" y2="7519.71">
   <stop offset="0" style="stop-opacity:1; stop-color:#FFF4DF"/>
   <stop offset="1" style="stop-opacity:1; stop-color:#D65B1E"/>
  </linearGradient>
  <radialGradient id="id10" gradientUnits="userSpaceOnUse" gradientTransform="matrix(-0.0190227 0.512673 -1.12133 3.8207E-005 13643 5424)" cx="4743.17" cy="7856.29" r="2441.22" fx="4743.17" fy="7856.29">
   <stop offset="0" style="stop-opacity:1; stop-color:#FEFEFE"/>
   <stop offset="0.878431" style="stop-opacity:1; stop-color:#F2D5B8"/>
   <stop offset="1" style="stop-opacity:1; stop-color:#E6AC73"/>
  </radialGradient>
  <linearGradient id="id11" gradientUnits="userSpaceOnUse" x1="4562.54" y1="1003.35" x2="4562.54" y2="322.852">
   <stop offset="0" style="stop-opacity:1; stop-color:#F4D8BA"/>
   <stop offset="0.560784" style="stop-opacity:1; stop-color:#F9EBDC"/>
   <stop offset="1" style="stop-opacity:1; stop-color:white"/>
  </linearGradient>
 </defs>
 <g id="Layer_x0020_1">
  <metadata id="CorelCorpID_0Corel-Layer"/>
  <g id="_939602360">
   <g>
    <g>
     <path class="fil0" d="M4728 9283l-456 94 -126 25 -85 18 -76 15 -37 8 -10 2 36 63 757 1315 694 1205c39,60 84,75 139,25l937 -1143c25,-47 62,-81 128,-87l1453 -242c95,-6 117,-54 67,-144l-880 -1552 -30 -52 -4 -8 -16 -28 -12 -21 -16 3 -125 25 -67 14 -43 9 -2228 456z"/>
     <path class="fil1" d="M6993 8891l36 -21 -41 -71 -36 21 41 71zm-2853 520l-36 21 41 71 36 -20 -41 -72zm82 143l-36 21 41 71 36 -20 -41 -72zm82 143l-36 21 41 71 36 -20 -41 -72zm82 143l-35 21 41 71 35 -20 -41 -72zm82 143l-35 20 41 72 35 -21 -41 -71zm83 143l-36 20 41 72 36 -21 -41 -71zm82 143l-36 20 41 72 36 -21 -41 -71zm82 143l-36 20 41 72 36 -21 -41 -71zm82 142l-36 21 41 71 36 -20 -41 -72zm82 143l-36 21 41 71 36 -20 -41 -72zm82 143l-36 21 41 71 36 -20 -41 -72zm82 143l-36 21 42 71 35 -20 -41 -72zm82 143l-35 21 41 71 35 -21 -41 -71zm82 143l-35 20 41 72 35 -21 -41 -71zm83 143l-36 20 41 72 36 -21 -41 -71zm82 143l-36 20 41 72 36 -21 -41 -71zm82 142l-36 21 41 71 36 -20 -41 -72zm50 120l32 26 52 -63 -31 -26 -53 63zm106 -126l31 26 53 -63 -32 -27 -52 64zm105 -127l32 26 53 -63 -32 -26 -53 63zm106 -126l31 26 53 -63 -31 -27 -53 64zm105 -127l32 26 53 -63 -32 -26 -53 63zm106 -126l32 26 52 -63 -31 -27 -53 64zm106 -127l31 26 53 -63 -32 -26 -52 63zm105 -126l32 26 53 -63 -32 -27 -53 64zm106 -127l31 26 53 -63 -31 -26 -53 63zm105 -126l6 5 15 26 79 -13 -7 -40 -86 13 -7 9zm175 -35l6 40 82 -13 -7 -40 -81 13zm162 -27l7 41 81 -13 -6 -41 -82 13zm163 -26l7 41 81 -13 -7 -41 -81 13zm163 -26l6 41 82 -13 -7 -41 -81 13zm163 -26l6 41 81 -13 -6 -41 -81 13zm162 -26l7 41 81 -13 -6 -41 -82 13zm163 -26l6 41 82 -13 -7 -41 -81 13zm163 -26l6 41 81 -13 -6 -41 -81 13zm134 -2l36 -20 -41 -72 -36 21 41 71zm-82 -142l35 -21 -41 -71 -36 20 42 72zm-83 -143l36 -20 -42 -72 -35 21 41 71zm-83 -142l36 -21 -41 -71 -36 20 41 72zm-82 -143l35 -21 -41 -71 -36 21 42 71zm-83 -143l36 -20 -42 -72 -35 21 41 71zm-83 -142l36 -21 -41 -71 -36 21 41 71zm-82 -143l35 -20 -41 -72 -36 21 42 71zm-83 -142l36 -21 -42 -71 -35 20 41 72zm-82 -143l35 -20 -41 -72 -36 21 42 71zm-83 -142l36 -21 -42 -71 -35 20 41 72z"/>
     <path class="fil2" d="M2254 8777c-314,553 -627,1107 -941,1661 -51,90 -29,138 67,144 484,81 968,161 1452,242 66,6 104,40 128,88 313,381 625,762 938,1143 54,49 100,35 139,-26 495,-861 991,-1722 1487,-2583 -1090,-223 -2180,-446 -3270,-669z"/>
     <path class="fil1" d="M2457 8870l-36 -21 41 -71 36 21 -41 71zm2853 520l36 21 -41 71 -36 -20 41 -72zm-82 143l36 21 -41 71 -36 -20 41 -72zm-82 143l36 21 -41 71 -36 -21 41 -71zm-82 143l35 20 -41 72 -35 -21 41 -71zm-82 143l35 20 -41 72 -35 -21 41 -71zm-82 143l35 20 -41 72 -36 -21 42 -71zm-83 143l36 20 -41 72 -36 -21 41 -71zm-82 142l36 21 -41 71 -36 -20 41 -72zm-82 143l36 21 -41 71 -36 -20 41 -72zm-82 143l36 21 -41 71 -36 -20 41 -72zm-82 143l36 21 -41 71 -36 -20 41 -72zm-82 143l36 20 -41 72 -36 -21 41 -71zm-82 143l35 20 -41 72 -35 -21 41 -71zm-82 143l35 20 -41 72 -35 -21 41 -71zm-83 143l36 20 -41 72 -36 -21 41 -71zm-82 142l36 21 -41 71 -36 -20 41 -72zm-82 143l36 21 -41 71 -36 -20 41 -72zm-50 120l-31 26 -53 -63 31 -26 53 63zm-105 -127l-32 27 -53 -63 32 -27 53 63zm-106 -126l-32 26 -52 -63 31 -26 53 63zm-106 -127l-31 27 -53 -63 32 -27 52 63zm-105 -126l-32 26 -53 -63 32 -26 53 63zm-106 -127l-32 27 -52 -63 31 -27 53 63zm-106 -126l-31 26 -53 -63 32 -26 52 63zm-105 -127l-32 27 -53 -63 32 -27 53 63zm-106 -126l-31 26 -53 -63 31 -26 53 63zm-105 -127l-6 6 -15 26 -79 -13 7 -41 86 14 7 8zm-175 -35l-6 41 -81 -13 6 -41 81 13zm-162 -26l-7 41 -81 -13 6 -41 82 13zm-163 -26l-7 41 -81 -13 7 -41 81 13zm-163 -26l-6 41 -82 -13 7 -41 81 13zm-163 -26l-6 41 -81 -13 6 -41 81 13zm-162 -26l-7 41 -81 -13 6 -41 82 13zm-163 -26l-6 41 -82 -13 7 -41 81 13zm-163 -26l-6 41 -81 -13 6 -41 81 13zm-134 -2l-36 -20 42 -72 35 21 -41 71zm83 -142l-36 -21 41 -71 36 20 -41 72zm82 -143l-35 -21 41 -71 35 21 -41 71zm83 -143l-36 -20 41 -72 36 21 -41 71zm82 -142l-35 -21 41 -71 36 21 -42 71zm83 -143l-36 -20 42 -72 35 21 -41 71zm83 -142l-36 -21 41 -71 36 20 -41 72zm82 -143l-35 -21 41 -71 36 21 -42 71zm83 -142l-36 -21 42 -71 35 20 -41 72zm83 -143l-36 -21 41 -71 36 21 -41 71zm82 -143l-35 -20 41 -71 35 20 -41 71z"/>
    </g>
    <g>
     <circle class="fil3" cx="4788" cy="4751" r="4751"/>
     <path class="fil4" d="M4788 0c2644,0 4787,2143 4787,4788 0,2644 -2143,4787 -4787,4787 -2645,0 -4788,-2143 -4788,-4787 0,-2645 2143,-4788 4788,-4788zm0 1306c1923,0 3482,1559 3482,3482 0,1923 -1559,3482 -3482,3482 -1923,0 -3482,-1559 -3482,-3482 0,-1923 1559,-3482 3482,-3482z"/>
     <path class="fil5" d="M828 5588c-26,-131 -46,-264 -59,-397 -13,-133 -19,-267 -19,-401 0,-134 6,-268 19,-401 13,-133 33,-266 59,-397 5,-21 -9,-42 -31,-46 -21,-5 -42,9 -46,31 -27,133 -47,268 -60,404 -14,136 -20,273 -20,409 0,137 6,273 20,409 13,136 33,271 60,404 4,22 25,36 46,32 22,-5 36,-26 31,-47z"/>
     <path class="fil6" d="M4788 60c1305,0 2487,529 3343,1385 855,855 1385,2037 1385,3343 0,1305 -530,2487 -1385,3343 -856,855 -2038,1385 -3343,1385 -1306,0 -2488,-530 -3343,-1385 -856,-856 -1385,-2038 -1385,-3343 0,-1306 529,-2488 1385,-3343 855,-856 2037,-1385 3343,-1385zm3314 1414c-848,-848 -2020,-1373 -3314,-1373 -1295,0 -2466,525 -3314,1373 -848,848 -1373,2019 -1373,3314 0,1294 525,2465 1373,3314 848,848 2019,1372 3314,1372 1294,0 2466,-524 3314,-1372 848,-849 1372,-2020 1372,-3314 0,-1295 -524,-2466 -1372,-3314z"/>
     <path class="fil7" d="M4788 131c1286,0 2450,521 3293,1364 842,842 1364,2007 1364,3293 0,1286 -522,2450 -1364,3293 -843,842 -2007,1364 -3293,1364 -1286,0 -2451,-522 -3293,-1364 -843,-843 -1364,-2007 -1364,-3293 0,-1286 521,-2451 1364,-3293 842,-843 2007,-1364 3293,-1364zm3264 1393c-836,-836 -1990,-1352 -3264,-1352 -1275,0 -2429,516 -3264,1352 -836,835 -1352,1989 -1352,3264 0,1274 516,2428 1352,3264 835,835 1989,1352 3264,1352 1274,0 2428,-517 3264,-1352 835,-836 1352,-1990 1352,-3264 0,-1275 -517,-2429 -1352,-3264z"/>
     <path class="fil5" d="M8803 3992c26,131 46,264 59,397 13,133 19,267 19,401 0,134 -6,268 -19,401 -13,134 -33,266 -59,397 -4,21 10,42 31,47 22,4 42,-10 47,-31 26,-134 46,-269 60,-405 13,-136 20,-272 20,-409 0,-136 -7,-273 -20,-409 -14,-136 -34,-271 -60,-404 -5,-22 -25,-36 -47,-31 -21,4 -35,25 -31,46z"/>
     <path class="fil8" d="M803 5586c-26,-132 -46,-264 -59,-397 -13,-133 -20,-267 -20,-401 0,-134 7,-268 20,-402 13,-133 33,-265 59,-396 4,-22 -10,-43 -31,-47 -22,-4 -42,10 -47,31 -26,134 -46,269 -60,405 -13,136 -20,272 -20,409 0,136 7,273 20,409 14,135 34,270 60,404 5,21 25,35 47,31 21,-4 35,-25 31,-46z"/>
     <path class="fil9" d="M8772 3990c27,131 46,263 59,396 14,134 20,268 20,402 0,134 -6,268 -20,401 -13,133 -32,265 -59,397 -4,21 10,42 31,46 22,4 43,-10 47,-31 27,-134 47,-269 60,-404 13,-136 20,-273 20,-409 0,-137 -7,-273 -20,-409 -13,-136 -33,-271 -60,-405 -4,-21 -25,-35 -47,-31 -21,4 -35,25 -31,47z"/>
     <circle class="fil10" cx="4788" cy="4788" r="3485"/>
     <path class="fil11" d="M7664 3663c-15,-38 -74,-29 -74,14 0,5 1,9 3,14 9,23 18,47 26,70 17,45 84,25 73,-22l-1 -4c-9,-24 -18,-48 -27,-72zm-5672 4c6,-17 1,-34 -14,-45 -21,-14 -47,-6 -57,17 -10,24 -19,48 -28,72 -15,39 37,72 66,36 2,-3 4,-6 6,-10 8,-23 17,-46 27,-70zm-119 357c12,-40 -45,-68 -69,-29 -2,4 -3,6 -4,10 -7,25 -13,50 -19,75 -10,46 58,67 74,19 6,-25 12,-50 18,-75zm-72 369c6,-46 -62,-62 -75,-14l-1 4c-3,26 -6,51 -9,77 -1,14 5,27 16,35 23,17 57,1 60,-27 3,-25 6,-50 9,-75zm-26 375c0,-40 -55,-54 -73,-16 -2,6 -3,10 -3,15 0,26 0,52 0,78 2,48 72,50 76,1 1,-26 0,-52 0,-78zm21 375c-6,-47 -76,-44 -76,6 2,26 7,54 11,80 1,8 5,17 12,22 27,24 68,2 63,-33 -4,-25 -7,-50 -10,-75zm68 370c-13,-48 -83,-32 -74,17 6,25 13,51 20,76 11,43 77,34 74,-13 0,-3 0,-5 -1,-8 -7,-24 -13,-48 -19,-72zm113 358c-14,-37 -71,-29 -73,13 0,5 0,10 2,15 10,24 19,48 29,71 8,18 27,28 45,22 22,-6 34,-30 25,-51 -9,-23 -19,-47 -28,-70zm157 342c-22,-41 -84,-14 -70,30 1,2 2,4 3,6 12,23 25,45 37,68 20,35 77,18 71,-26 -1,-5 -2,-8 -5,-12 -12,-19 -25,-46 -36,-66zm198 319c-23,-33 -78,-10 -68,32 1,5 3,8 6,13 15,21 30,41 45,62 28,36 84,2 65,-39 -1,-2 -2,-5 -4,-7 -15,-20 -30,-40 -44,-61zm236 293c-30,-32 -82,3 -62,44 2,3 4,5 6,8 17,18 35,37 53,56 32,32 84,-8 58,-49 -1,-1 -2,-3 -4,-4 -17,-18 -34,-37 -51,-55zm271 260c-25,-22 -66,-1 -63,32 1,11 6,20 14,27 19,16 39,33 59,49 18,14 44,10 56,-10 11,-16 7,-38 -8,-50 -20,-16 -39,-31 -58,-48zm301 225c-16,-11 -37,-8 -49,7 -15,17 -11,45 8,57 21,14 43,27 65,41 35,22 77,-22 49,-58 -3,-3 -6,-5 -9,-7 -22,-13 -43,-26 -64,-40zm327 185c-40,-19 -75,35 -40,64 2,2 5,3 7,5 23,11 47,22 70,32 43,19 75,-39 37,-66 -1,-1 -3,-2 -6,-3 -22,-10 -45,-21 -68,-32zm348 144c-44,-15 -71,46 -31,69 2,1 4,2 6,3 25,8 49,16 74,24 42,13 70,-47 29,-70 -2,-1 -4,-2 -7,-3 -24,-8 -47,-15 -71,-23zm362 99c-39,-9 -65,45 -27,70 4,2 7,3 12,5 25,5 50,10 76,14 44,8 64,-55 20,-73 -2,-1 -5,-1 -7,-2 -24,-4 -49,-9 -74,-14zm372 53c-43,-4 -58,60 -14,75 3,0 6,1 8,1 26,2 52,4 78,5 42,2 56,-57 15,-74 -4,-1 -8,-2 -12,-2 -25,-1 -50,-3 -75,-5zm376 6c-42,2 -50,63 -8,75 4,1 7,1 12,1 26,-1 51,-2 77,-4 46,-4 48,-72 -1,-76 -1,0 -3,0 -5,0 -25,2 -50,3 -75,4zm374 -41c-44,8 -41,74 6,76 2,0 5,0 7,-1 25,-4 51,-9 76,-14 48,-11 35,-81 -14,-75 -25,5 -50,10 -75,14zm366 -87c-46,15 -30,83 18,74 26,-6 53,-16 77,-24 39,-13 33,-72 -11,-74 -5,0 -8,0 -13,2 -24,7 -48,15 -71,22zm352 -131c-39,16 -25,77 20,72 4,0 7,-1 11,-3 23,-10 47,-21 70,-32 8,-4 15,-11 19,-20 13,-33 -21,-64 -52,-49 -23,11 -45,21 -68,32zm333 -175c-39,25 -11,83 32,69 3,-1 5,-2 7,-4 22,-13 44,-26 66,-40 34,-22 15,-76 -27,-70 -5,1 -10,3 -15,6 -21,13 -42,26 -63,39zm308 -214c-32,26 -5,80 38,66 4,-2 6,-4 10,-6 20,-16 40,-32 60,-49 11,-10 16,-25 12,-39 -8,-27 -40,-37 -61,-19 -20,16 -39,32 -59,47zm280 -251c-30,30 7,82 47,59 3,-2 5,-3 7,-6 18,-18 36,-37 54,-55 31,-35 -14,-84 -51,-57 -2,2 -3,3 -5,5 -17,18 -34,36 -52,54zm246 -284c-25,32 13,78 51,55 4,-3 7,-6 10,-9 15,-21 31,-41 46,-62 26,-39 -24,-81 -58,-50 -2,2 -3,4 -4,5 -15,21 -30,41 -45,61zm208 -313c-23,42 36,80 65,41 13,-22 26,-47 39,-70 21,-39 -32,-78 -63,-43 -1,2 -3,4 -4,6 -12,22 -24,44 -37,66zm168 -336c-17,39 36,73 65,38 2,-3 4,-5 5,-9 10,-23 20,-47 30,-71 16,-42 -41,-72 -67,-36 -2,3 -3,5 -4,8 -10,22 -19,47 -29,70zm125 -355c-4,17 2,34 17,43 21,13 50,2 57,-22 7,-25 13,-50 20,-75 10,-37 -39,-65 -67,-33 -3,5 -5,9 -7,15 -6,24 -13,48 -20,72zm80 -367c-5,41 47,60 70,26 3,-4 5,-9 5,-15 4,-25 8,-51 11,-76 6,-43 -54,-61 -73,-20 -1,4 -2,7 -2,10 -4,25 -7,50 -11,75zm34 -374c-2,40 54,54 72,17 3,-6 4,-10 4,-16 0,-25 1,-51 1,-77 0,-39 -53,-53 -72,-16 -3,5 -4,10 -4,16 0,25 -1,50 -1,76zm-14 -376c4,42 68,47 76,2 0,-3 0,-6 0,-10 -2,-25 -5,-51 -8,-76 -6,-46 -74,-44 -76,4 0,2 0,3 0,5 3,25 6,50 8,75zm-60 -371c10,45 79,36 75,-13l-1 -4c-5,-25 -11,-50 -18,-75 -12,-47 -83,-32 -74,17 6,25 13,50 18,75z"/>
     <path class="fil12" d="M4788 1291c965,0 1839,392 2472,1024 633,633 1024,1507 1024,2473 0,965 -391,1839 -1024,2472 -633,633 -1507,1024 -2472,1024 -966,0 -1840,-391 -2473,-1024 -632,-633 -1024,-1507 -1024,-2472 0,-966 392,-1840 1024,-2473 633,-632 1507,-1024 2473,-1024zm0 42c1908,0 3455,1546 3455,3455 0,1908 -1547,3455 -3455,3455 -1908,0 -3455,-1547 -3455,-3455 0,-1909 1547,-3455 3455,-3455z"/>
     <circle class="fil13" cx="4788" cy="4788" r="2689"/>
     <path class="fil14" d="M4788 1291c1929,0 3494,1561 3494,3486 0,14 -1,29 -1,43 -23,-1905 -1578,-3442 -3493,-3442 -1916,0 -3471,1537 -3494,3442 0,-14 0,-29 0,-43 0,-1925 1564,-3486 3494,-3486z"/>
    </g>
   </g>
   <path class="fil15" d="M4788 2101c741,0 1413,301 1899,787 486,486 787,1158 787,1900 0,741 -301,1413 -787,1899 -486,486 -1158,787 -1899,787 -742,0 -1414,-301 -1900,-787 -486,-486 -787,-1158 -787,-1899 0,-742 301,-1414 787,-1900 486,-486 1158,-787 1900,-787zm0 41c1461,0 2645,1185 2645,2646 0,1461 -1184,2645 -2645,2645 -1461,0 -2646,-1184 -2646,-2645 0,-1461 1185,-2646 2646,-2646z"/>
  </g>
  <g id="_939608480">
   <path class="fil16" d="M6713 5014l0 149c-2,1 -6,1 -11,2 -4,1 -9,1 -13,1 -11,0 -18,-2 -24,-5 -5,-4 -8,-11 -8,-21l0 -126 -71 0 0 251c-2,1 -6,2 -11,2 -4,1 -9,1 -14,1 -10,0 -18,-2 -23,-5 -6,-4 -9,-11 -9,-21l0 -89 -58 0c-3,24 -10,43 -21,56 -10,14 -23,21 -38,21 -11,0 -19,-3 -25,-9 -6,-5 -10,-13 -11,-23 11,-9 20,-21 28,-37 8,-15 11,-32 11,-52 0,-15 -1,-29 -5,-41 -9,4 -19,10 -31,18 -11,8 -22,18 -33,29 -4,20 -11,35 -21,46 -9,11 -21,17 -34,17 -10,0 -18,-3 -24,-9 -6,-6 -10,-13 -11,-22 10,-10 19,-21 27,-35 7,-13 11,-30 11,-51 0,-10 -1,-18 -2,-26 -1,-7 -4,-14 -7,-21l-31 0 -11 0 -39 0 0 251c-2,1 -6,2 -11,2 -5,1 -9,1 -14,1 -10,0 -18,-2 -24,-5 -5,-4 -8,-11 -8,-21l0 -228 -25 0 -8 0 -1 0 -33 0c-1,8 -2,15 -5,22 -2,8 -5,15 -9,21 -3,7 -7,13 -11,19 -5,5 -9,10 -13,13 11,7 21,17 30,30 9,13 13,29 13,48 0,16 -3,30 -10,43 -7,13 -16,24 -27,33 -12,10 -26,17 -43,22 -16,5 -34,8 -54,8 -38,0 -66,-7 -86,-21 -19,-13 -29,-30 -29,-51 0,-19 7,-33 20,-44 13,-10 30,-15 52,-15 13,0 25,1 35,4 11,4 21,8 29,14 9,5 17,12 23,20 7,7 13,15 17,24 5,-5 10,-10 13,-17 2,-7 4,-15 4,-23 0,-13 -3,-25 -10,-34 -6,-9 -13,-15 -22,-19 -10,3 -21,5 -31,6 -11,2 -23,2 -38,2 -23,0 -40,-2 -51,-6 -11,-5 -16,-13 -16,-26 0,-5 1,-9 2,-13 2,-4 4,-7 7,-9 23,1 45,1 66,1 21,1 42,1 63,2 4,-5 9,-13 14,-22 4,-10 7,-20 9,-32l-193 0 -6 0 -1 0 -39 0 0 90c0,10 -3,17 -7,22 -4,4 -11,6 -22,6l-68 0c-10,0 -20,1 -29,4 -8,3 -16,6 -22,10 -7,5 -13,10 -17,15 -4,6 -7,12 -9,18 4,13 15,24 31,32 15,9 34,13 54,13 21,0 38,-3 52,-9 13,-5 24,-11 31,-17 6,3 10,6 14,10 4,5 5,10 5,17 0,6 -1,11 -4,15 -3,5 -7,9 -12,12 -9,6 -21,10 -35,14 -15,4 -32,6 -54,6 -19,0 -37,-3 -54,-7 -16,-5 -30,-12 -42,-20 -13,-8 -23,-18 -31,-29 -8,-11 -13,-23 -16,-36 3,-15 10,-29 21,-43 11,-13 24,-24 39,-32 -12,-7 -23,-18 -32,-33 -9,-16 -15,-35 -17,-58l-70 0 0 251c-3,1 -6,2 -11,2 -5,1 -10,1 -14,1 -10,0 -18,-2 -24,-5 -5,-4 -8,-11 -8,-21l0 -228 -33 0c-7,0 -12,-1 -14,-5 -3,-4 -4,-9 -4,-16 0,-3 0,-7 1,-11 1,-4 2,-7 3,-10l47 0 0 -41c0,-31 8,-54 26,-71 17,-16 41,-24 71,-24 15,0 29,2 41,6 12,5 22,10 30,17 9,7 15,15 19,24 5,9 7,19 7,29 0,12 -3,22 -8,28 -6,6 -13,9 -22,9 -6,0 -11,-1 -16,-3 -5,-1 -9,-3 -12,-5 1,-2 1,-5 1,-9 0,-3 0,-6 0,-10 0,-11 -3,-21 -11,-28 -7,-7 -17,-11 -30,-11 -12,0 -21,4 -28,12 -8,7 -11,19 -11,36l0 41 319 0 7 0 285 0 8 0 40 0 0 -42c0,-16 -4,-28 -12,-35 -8,-8 -18,-12 -30,-12 -13,0 -23,4 -29,12 -7,7 -10,16 -10,27 0,4 0,7 0,10 1,4 1,7 1,9 -3,2 -7,4 -12,5 -4,2 -10,3 -15,3 -10,0 -17,-3 -23,-9 -5,-6 -8,-16 -8,-28 0,-10 2,-20 7,-29 4,-9 10,-17 18,-24 8,-7 18,-12 30,-17 12,-4 26,-6 41,-6 30,0 54,8 72,24 17,16 26,39 26,69l0 43 25 0 11 0 85 0c5,6 9,16 14,29 4,13 8,29 10,48 15,-13 31,-23 47,-31 16,-8 31,-14 45,-17 8,10 16,25 22,44 6,18 9,39 10,62l56 0 0 -107c0,-10 2,-17 6,-21 5,-5 12,-7 22,-7l190 0c11,0 17,7 17,22 0,3 0,6 -1,10 -1,4 -2,8 -3,10l-47 0zm-920 -797c0,-4 0,-7 0,-11 0,-17 -5,-29 -15,-38 -10,-9 -23,-13 -41,-13 -9,0 -20,0 -32,1 -12,1 -24,1 -35,1 -41,0 -72,-9 -92,-27 -21,-18 -32,-41 -32,-69 0,-25 7,-42 20,-52 13,-10 27,-15 44,-15 8,0 15,1 22,4 7,2 13,5 18,8 -1,3 -2,6 -2,11 -1,5 -1,8 -1,11 0,28 17,42 52,42 12,0 24,-1 38,-3 14,-2 26,-3 38,-3 35,0 64,9 87,27 22,18 33,44 33,78 0,12 -1,23 -4,33 -1,6 -3,11 -4,15l114 0c12,0 20,4 25,11 5,8 7,18 7,32 0,6 -1,13 -2,21 -1,8 -3,15 -5,19l-131 0c-2,16 -5,33 -8,51 -4,17 -10,34 -17,49 14,5 28,12 41,21 13,9 25,20 35,33 10,13 18,28 24,45 7,17 10,37 10,59 0,25 -5,47 -14,66 -9,19 -21,35 -35,48 -13,13 -28,22 -44,29 -16,6 -31,10 -45,10 -19,0 -33,-6 -43,-17 -10,-10 -15,-23 -15,-38 0,-2 0,-6 0,-10 0,-4 0,-8 1,-11 9,-1 19,-3 28,-7 10,-3 18,-8 25,-15 8,-6 14,-14 18,-25 5,-10 7,-22 7,-36 0,-20 -4,-36 -13,-49 -9,-13 -20,-22 -32,-28 -14,17 -30,31 -48,44 -19,12 -36,20 -53,24 -16,-4 -33,-12 -51,-24 -18,-12 -35,-27 -49,-43 -12,6 -23,15 -32,28 -9,12 -13,28 -13,48 0,14 2,26 6,36 5,10 11,18 19,25 7,7 16,12 25,16 9,4 18,6 27,8 1,3 2,6 2,9 0,4 0,7 0,9 0,16 -5,29 -16,39 -10,11 -24,17 -43,17 -15,0 -30,-4 -46,-10 -17,-6 -31,-15 -45,-28 -13,-13 -25,-29 -33,-48 -9,-19 -13,-42 -13,-67 0,-22 3,-42 9,-59 6,-17 14,-32 24,-45 10,-13 21,-24 34,-33 13,-9 27,-16 41,-21 -7,-15 -13,-31 -18,-49 -5,-18 -8,-35 -9,-51l-90 0 -14 0 0 0 -62 0 0 400c-4,1 -11,2 -21,4 -10,2 -19,3 -29,3 -19,0 -35,-4 -46,-11 -11,-6 -17,-20 -17,-41l0 -18c-11,4 -24,8 -39,10 -14,3 -29,4 -45,4 -58,0 -106,-12 -144,-36 -39,-24 -65,-55 -78,-94 4,-19 12,-37 25,-56 13,-18 29,-32 47,-41 -19,-11 -35,-27 -47,-48 -12,-22 -18,-47 -19,-76l-38 0c-11,0 -19,-4 -23,-11 -5,-7 -7,-18 -7,-32 0,-5 1,-12 2,-20 1,-8 3,-15 5,-20l367 0c1,-4 1,-7 1,-11 0,-17 -5,-29 -15,-38 -10,-9 -24,-13 -42,-13 -9,0 -20,0 -32,1 -12,1 -23,1 -34,1 -41,0 -72,-9 -93,-27 -21,-18 -31,-41 -31,-69 0,-25 6,-42 19,-52 13,-10 28,-15 44,-15 8,0 16,1 23,4 7,2 13,5 17,8 -1,3 -1,6 -2,11 0,5 -1,8 -1,11 0,28 18,42 52,42 12,0 25,-1 39,-3 13,-2 26,-3 37,-3 36,0 65,9 87,27 23,18 34,44 34,78 0,12 -2,23 -4,33 -2,6 -3,11 -5,15l50 0 14 0 372 0zm-614 350c31,0 56,-4 78,-14l0 -83 -111 0c-21,0 -37,4 -49,13 -13,9 -21,20 -25,33 6,14 18,26 35,36 18,10 42,15 72,15zm-105 -267c1,23 5,42 13,56 8,15 17,25 25,31l145 0 0 -87 -183 0zm646 149c19,-14 35,-35 46,-62 11,-27 18,-56 19,-87l-140 0c1,15 4,30 8,46 4,15 9,30 16,43 6,14 14,26 22,36 9,11 18,19 29,24zm-1891 1507l-229 750 581 -539c191,82 402,128 623,128 609,0 1136,-346 1397,-852l-178 0c-246,417 -700,697 -1219,697 -576,0 -1071,-344 -1292,-837 2,-6 4,-12 6,-18 10,-28 25,-57 62,-58 19,0 37,0 55,0 61,-4 122,-6 178,-33 44,-20 57,-52 42,-97 -15,-49 -16,-96 18,-138 4,-5 6,-10 9,-15 12,-29 4,-55 -26,-66 -18,-8 -39,-10 -59,-14 -13,-3 -26,-6 -39,-8 14,-11 27,-16 40,-22 16,-7 33,-13 48,-22 30,-19 38,-47 23,-79 -5,-11 -11,-21 -16,-32 -7,-17 -1,-33 15,-41 8,-4 17,-7 26,-10 75,-31 87,-78 38,-142 -15,-20 -33,-38 -51,-56 -27,-28 -56,-54 -82,-83 -44,-49 -64,-103 -32,-169 14,-28 -22,-275 -44,-388 259,-308 647,-503 1081,-503 487,0 917,247 1172,622l183 0c-272,-465 -777,-777 -1355,-777 -867,0 -1571,703 -1571,1570 0,500 233,945 596,1232zm-343 -716c-63,-160 -97,-334 -97,-516 0,-324 109,-622 292,-861 20,115 48,301 41,319 -6,16 -14,33 -17,50 -3,20 -4,41 -1,60 13,64 55,110 100,154 32,32 64,64 93,99 24,29 19,41 -16,56 -8,4 -17,7 -25,10 -50,19 -67,76 -46,115 4,7 7,15 11,22 9,13 4,21 -8,27 -18,7 -36,12 -54,20 -17,8 -36,17 -51,29 -20,16 -20,42 2,56 22,14 47,23 72,31 17,6 36,7 53,10 0,4 0,5 -1,7 -1,2 -2,5 -4,7 -41,51 -40,109 -24,169 9,31 6,39 -25,51 -8,3 -16,6 -24,7 -53,5 -106,13 -160,15 -44,1 -81,11 -104,51 -3,4 -5,8 -7,12zm1430 1173c-244,0 -476,-45 -690,-126l-247 182c207,81 433,126 670,126 416,0 801,-139 1109,-373 -252,122 -538,191 -842,191zm-1209 -426c-385,-315 -628,-778 -628,-1293 0,-950 823,-1720 1837,-1720 75,0 149,5 222,13 -156,-43 -320,-66 -489,-66 -1015,0 -1838,822 -1838,1837 0,647 335,1216 841,1544l55 -315zm454 -1136c-1,-77 -29,-148 -85,-208 -22,-24 -19,-50 10,-58 10,-3 28,3 36,12 76,79 112,174 105,284 -5,88 -39,166 -99,232 -16,16 -33,28 -55,10 -17,-13 -14,-34 6,-56 54,-60 82,-130 82,-216zm287 54c-1,83 -44,197 -131,294 -4,4 -8,8 -12,12 -17,17 -35,22 -53,5 -17,-17 -11,-35 4,-50 45,-47 81,-100 101,-162 53,-165 23,-314 -91,-446 -5,-5 -11,-11 -16,-17 -11,-15 -12,-31 2,-43 14,-12 32,-16 47,-1 15,15 29,30 42,47 70,92 108,196 107,361zm220 -47c-2,166 -57,312 -170,435 -6,7 -11,13 -18,19 -15,13 -31,14 -46,0 -15,-15 -14,-31 -1,-47 13,-16 29,-30 42,-47 134,-177 163,-370 85,-578 -27,-70 -68,-129 -119,-184 -9,-10 -16,-27 -15,-40 4,-27 36,-32 58,-10 56,56 99,121 131,193 36,83 54,169 53,259zm1059 228l0 -72 -108 0c1,17 6,31 13,44 7,13 17,23 30,29 7,-1 14,-1 21,-1l44 0zm-15 -138c-7,0 -14,-3 -19,-7 -5,-5 -8,-14 -8,-26 0,-10 2,-18 6,-26 3,-7 8,-14 14,-19 7,-6 14,-10 22,-13 9,-3 18,-4 27,-4 10,0 19,2 27,5 9,2 16,7 22,12 6,6 11,12 15,20 3,7 5,16 5,25 0,12 -2,21 -8,26 -5,4 -11,7 -18,7 -7,0 -13,-3 -18,-7 1,-1 1,-4 2,-7 0,-3 1,-6 1,-8 0,-9 -3,-16 -8,-21 -6,-5 -12,-8 -20,-8 -8,0 -14,3 -19,8 -5,5 -8,12 -8,21 0,2 0,5 1,8 1,3 1,6 2,7 -5,4 -11,7 -18,7zm235 281c4,0 9,0 14,-1 5,0 9,-1 14,-2 -6,-14 -14,-24 -24,-31 -11,-8 -23,-11 -36,-11 -6,0 -11,1 -16,4 -4,3 -7,8 -7,14 0,8 5,14 14,19 8,6 22,8 41,8z"/>
   <path class="fil17" d="M6713 4989l0 148c-2,1 -6,2 -11,2 -4,1 -9,2 -13,2 -11,0 -18,-2 -24,-6 -5,-3 -8,-11 -8,-21l0 -125 -71 0 0 251c-2,0 -6,1 -11,2 -4,0 -9,1 -14,1 -10,0 -18,-2 -23,-6 -6,-4 -9,-10 -9,-21l0 -89 -58 0c-3,24 -10,43 -21,57 -10,13 -23,20 -38,20 -11,0 -19,-3 -25,-8 -6,-6 -10,-14 -11,-23 11,-10 20,-22 28,-37 8,-16 11,-33 11,-52 0,-16 -1,-30 -5,-42 -9,4 -19,11 -31,18 -11,8 -22,18 -33,30 -4,19 -11,34 -21,45 -9,11 -21,17 -34,17 -10,0 -18,-3 -24,-9 -6,-6 -10,-13 -11,-22 10,-9 19,-21 27,-34 7,-14 11,-31 11,-52 0,-9 -1,-18 -2,-25 -1,-8 -4,-15 -7,-21l-31 0 -11 0 -39 0 0 251c-2,0 -6,1 -11,2 -5,0 -9,1 -14,1 -10,0 -18,-2 -24,-6 -5,-4 -8,-10 -8,-21l0 -227 -25 0 -8 0 -1 0 -33 0c-1,7 -2,14 -5,22 -2,7 -5,14 -9,21 -3,6 -7,12 -11,18 -5,6 -9,10 -13,13 11,7 21,17 30,30 9,13 13,29 13,49 0,15 -3,30 -10,43 -7,13 -16,24 -27,33 -12,9 -26,16 -43,21 -16,5 -34,8 -54,8 -38,0 -66,-7 -86,-20 -19,-14 -29,-31 -29,-52 0,-18 7,-33 20,-43 13,-11 30,-16 52,-16 13,0 25,2 35,5 11,3 21,8 29,13 9,6 17,12 23,20 7,8 13,16 17,25 5,-5 10,-11 13,-18 2,-7 4,-15 4,-23 0,-13 -3,-24 -10,-33 -6,-9 -13,-16 -22,-19 -10,2 -21,4 -31,6 -11,1 -23,2 -38,2 -23,0 -40,-3 -51,-7 -11,-5 -16,-13 -16,-26 0,-5 1,-9 2,-13 2,-4 4,-7 7,-9 23,1 45,1 66,2 21,0 42,0 63,1 4,-5 9,-13 14,-22 4,-10 7,-20 9,-31l-193 0 -6 0 -1 0 -39 0 0 90c0,10 -3,17 -7,21 -4,4 -11,6 -22,6l-68 0c-10,0 -20,2 -29,4 -8,3 -16,7 -22,11 -7,4 -13,9 -17,15 -4,5 -7,11 -9,17 4,14 15,24 31,33 15,8 34,12 54,12 21,0 38,-3 52,-8 13,-6 24,-12 31,-17 6,2 10,5 14,10 4,4 5,9 5,16 0,6 -1,11 -4,16 -3,4 -7,8 -12,11 -9,6 -21,11 -35,14 -15,4 -32,6 -54,6 -19,0 -37,-2 -54,-7 -16,-5 -30,-11 -42,-19 -13,-9 -23,-18 -31,-29 -8,-12 -13,-24 -16,-37 3,-15 10,-29 21,-43 11,-13 24,-24 39,-31 -12,-8 -23,-19 -32,-34 -9,-16 -15,-35 -17,-57l-70 0 0 251c-3,0 -6,1 -11,2 -5,0 -10,1 -14,1 -10,0 -18,-2 -24,-6 -5,-4 -8,-10 -8,-21l0 -227 -33 0c-7,0 -12,-2 -14,-6 -3,-3 -4,-9 -4,-16 0,-3 0,-7 1,-10 1,-4 2,-8 3,-11l47 0 0 -41c0,-31 8,-54 26,-70 17,-16 41,-24 71,-24 15,0 29,2 41,6 12,4 22,9 30,16 9,7 15,15 19,24 5,9 7,19 7,29 0,13 -3,22 -8,28 -6,6 -13,9 -22,9 -6,0 -11,-1 -16,-2 -5,-2 -9,-4 -12,-6 1,-2 1,-5 1,-8 0,-4 0,-7 0,-10 0,-12 -3,-21 -11,-29 -7,-7 -17,-10 -30,-10 -12,0 -21,3 -28,11 -8,8 -11,20 -11,36l0 41 319 0 7 0 285 0 8 0 40 0 0 -42c0,-16 -4,-27 -12,-35 -8,-8 -18,-11 -30,-11 -13,0 -23,3 -29,11 -7,8 -10,17 -10,28 0,3 0,6 0,10 1,3 1,6 1,8 -3,2 -7,4 -12,6 -4,1 -10,2 -15,2 -10,0 -17,-3 -23,-9 -5,-6 -8,-15 -8,-28 0,-10 2,-20 7,-29 4,-9 10,-17 18,-24 8,-7 18,-12 30,-16 12,-4 26,-6 41,-6 30,0 54,7 72,23 17,16 26,39 26,69l0 43 25 0 11 0 85 0c5,7 9,16 14,29 4,13 8,29 10,48 15,-12 31,-22 47,-30 16,-8 31,-14 45,-18 8,11 16,25 22,44 6,19 9,39 10,62l56 0 0 -107c0,-10 2,-17 6,-21 5,-5 12,-7 22,-7l190 0c11,0 17,7 17,22 0,3 0,6 -1,11 -1,4 -2,7 -3,10l-47 0zm-920 -797c0,-4 0,-8 0,-12 0,-16 -5,-29 -15,-38 -10,-8 -23,-13 -41,-13 -9,0 -20,1 -32,2 -12,0 -24,1 -35,1 -41,0 -72,-9 -92,-28 -21,-18 -32,-41 -32,-69 0,-24 7,-42 20,-52 13,-10 27,-15 44,-15 8,0 15,1 22,4 7,2 13,5 18,8 -1,3 -2,7 -2,11 -1,5 -1,9 -1,11 0,28 17,42 52,42 12,0 24,-1 38,-3 14,-2 26,-3 38,-3 35,0 64,9 87,27 22,18 33,44 33,78 0,13 -1,24 -4,34 -1,5 -3,10 -4,15l114 0c12,0 20,3 25,11 5,7 7,17 7,31 0,6 -1,14 -2,22 -1,8 -3,14 -5,18l-131 0c-2,17 -5,33 -8,51 -4,17 -10,34 -17,50 14,5 28,11 41,20 13,9 25,20 35,33 10,13 18,28 24,46 7,17 10,36 10,58 0,25 -5,47 -14,67 -9,19 -21,35 -35,47 -13,13 -28,23 -44,29 -16,7 -31,10 -45,10 -19,0 -33,-6 -43,-16 -10,-11 -15,-24 -15,-38 0,-3 0,-6 0,-11 0,-4 0,-7 1,-10 9,-2 19,-4 28,-7 10,-4 18,-9 25,-15 8,-7 14,-15 18,-25 5,-11 7,-23 7,-37 0,-20 -4,-36 -13,-49 -9,-13 -20,-22 -32,-28 -14,17 -30,32 -48,44 -19,12 -36,20 -53,24 -16,-4 -33,-12 -51,-24 -18,-12 -35,-26 -49,-43 -12,6 -23,15 -32,28 -9,13 -13,29 -13,48 0,14 2,26 6,36 5,10 11,19 19,25 7,7 16,12 25,16 9,4 18,7 27,8 1,3 2,6 2,9 0,4 0,7 0,10 0,15 -5,28 -16,39 -10,10 -24,16 -43,16 -15,0 -30,-3 -46,-9 -17,-7 -31,-16 -45,-29 -13,-12 -25,-28 -33,-48 -9,-19 -13,-41 -13,-67 0,-22 3,-41 9,-58 6,-18 14,-33 24,-46 10,-13 21,-24 34,-33 13,-9 27,-15 41,-20 -7,-15 -13,-32 -18,-50 -5,-18 -8,-35 -9,-51l-90 0 -14 0 0 0 -62 0 0 400c-4,1 -11,3 -21,4 -10,2 -19,3 -29,3 -19,0 -35,-4 -46,-10 -11,-7 -17,-21 -17,-42l0 -18c-11,4 -24,8 -39,11 -14,2 -29,4 -45,4 -58,0 -106,-12 -144,-36 -39,-24 -65,-56 -78,-95 4,-19 12,-37 25,-56 13,-18 29,-32 47,-41 -19,-11 -35,-27 -47,-48 -12,-21 -18,-47 -19,-76l-38 0c-11,0 -19,-3 -23,-11 -5,-7 -7,-18 -7,-32 0,-5 1,-12 2,-20 1,-8 3,-14 5,-19l367 0c1,-4 1,-8 1,-12 0,-16 -5,-29 -15,-38 -10,-8 -24,-13 -42,-13 -9,0 -20,1 -32,2 -12,0 -23,1 -34,1 -41,0 -72,-9 -93,-28 -21,-18 -31,-41 -31,-69 0,-24 6,-42 19,-52 13,-10 28,-15 44,-15 8,0 16,1 23,4 7,2 13,5 17,8 -1,3 -1,7 -2,11 0,5 -1,9 -1,11 0,28 18,42 52,42 12,0 25,-1 39,-3 13,-2 26,-3 37,-3 36,0 65,9 87,27 23,18 34,44 34,78 0,13 -2,24 -4,34 -2,5 -3,10 -5,15l50 0 14 0 372 0zm-614 350c31,0 56,-5 78,-14l0 -84 -111 0c-21,0 -37,5 -49,14 -13,9 -21,20 -25,33 6,14 18,26 35,36 18,10 42,15 72,15zm-105 -268c1,24 5,42 13,57 8,14 17,24 25,30l145 0 0 -87 -183 0zm646 149c19,-14 35,-34 46,-62 11,-27 18,-56 19,-87l-140 0c1,15 4,31 8,46 4,15 9,30 16,43 6,14 14,26 22,36 9,11 18,19 29,24zm-1891 1508l-229 749 581 -539c191,83 402,129 623,129 609,0 1136,-346 1397,-852l-178 0c-246,417 -700,696 -1219,696 -576,0 -1071,-344 -1292,-837 2,-6 4,-12 6,-18 10,-28 25,-57 62,-58 19,0 37,1 55,0 61,-3 122,-6 178,-33 44,-20 57,-52 42,-97 -15,-49 -16,-96 18,-138 4,-4 6,-10 9,-15 12,-28 4,-54 -26,-66 -18,-7 -39,-9 -59,-14 -13,-3 -26,-5 -39,-8 14,-11 27,-16 40,-22 16,-7 33,-13 48,-22 30,-19 38,-47 23,-79 -5,-11 -11,-21 -16,-32 -7,-17 -1,-33 15,-41 8,-4 17,-6 26,-10 75,-31 87,-77 38,-141 -15,-21 -33,-39 -51,-57 -27,-28 -56,-54 -82,-83 -44,-49 -64,-103 -32,-168 14,-29 -22,-275 -44,-389 259,-307 647,-503 1081,-503 487,0 917,247 1172,622l183 0c-272,-465 -777,-777 -1355,-777 -867,0 -1571,703 -1571,1571 0,499 233,944 596,1232zm-343 -717c-63,-159 -97,-333 -97,-515 0,-324 109,-623 292,-861 20,114 48,300 41,318 -6,17 -14,33 -17,50 -3,20 -4,41 -1,61 13,64 55,110 100,154 32,31 64,63 93,98 24,29 19,42 -16,57 -8,3 -17,6 -25,9 -50,19 -67,76 -46,115 4,7 7,15 11,22 9,13 4,22 -8,27 -18,7 -36,12 -54,21 -17,8 -36,16 -51,28 -20,17 -20,42 2,56 22,14 47,23 72,32 17,5 36,6 53,9 0,4 0,6 -1,7 -1,3 -2,5 -4,7 -41,52 -40,110 -24,169 9,31 6,39 -25,51 -8,3 -16,6 -24,7 -53,6 -106,14 -160,15 -44,1 -81,11 -104,52 -3,3 -5,7 -7,11zm1430 1173c-244,0 -476,-44 -690,-125l-247 181c207,82 433,126 670,126 416,0 801,-139 1109,-372 -252,121 -538,190 -842,190zm-1209 -425c-385,-315 -628,-778 -628,-1294 0,-950 823,-1719 1837,-1719 75,0 149,4 222,12 -156,-43 -320,-66 -489,-66 -1015,0 -1838,823 -1838,1837 0,648 335,1217 841,1544l55 -314zm454 -1137c-1,-77 -29,-147 -85,-207 -22,-24 -19,-51 10,-58 10,-3 28,3 36,11 76,79 112,174 105,284 -5,89 -39,166 -99,232 -16,17 -33,28 -55,11 -17,-14 -14,-34 6,-57 54,-60 82,-130 82,-216zm287 54c-1,83 -44,197 -131,294 -4,5 -8,9 -12,13 -17,17 -35,22 -53,4 -17,-17 -11,-34 4,-50 45,-47 81,-100 101,-162 53,-165 23,-314 -91,-445 -5,-6 -11,-11 -16,-17 -11,-15 -12,-32 2,-44 14,-12 32,-16 47,-1 15,15 29,30 42,47 70,92 108,196 107,361zm220 -47c-2,167 -57,312 -170,436 -6,6 -11,12 -18,18 -15,13 -31,14 -46,0 -15,-14 -14,-31 -1,-46 13,-17 29,-31 42,-48 134,-176 163,-370 85,-578 -27,-69 -68,-129 -119,-184 -9,-10 -16,-27 -15,-40 4,-27 36,-32 58,-10 56,56 99,121 131,193 36,83 54,169 53,259zm1059 228l0 -71 -108 0c1,16 6,30 13,43 7,13 17,23 30,29 7,-1 14,-1 21,-1l44 0zm-15 -138c-7,0 -14,-2 -19,-7 -5,-5 -8,-13 -8,-26 0,-9 2,-18 6,-26 3,-7 8,-14 14,-19 7,-5 14,-10 22,-12 9,-3 18,-5 27,-5 10,0 19,2 27,5 9,3 16,7 22,12 6,6 11,12 15,20 3,8 5,16 5,25 0,13 -2,21 -8,26 -5,5 -11,7 -18,7 -7,0 -13,-2 -18,-7 1,-1 1,-3 2,-6 0,-3 1,-6 1,-9 0,-9 -3,-16 -8,-21 -6,-5 -12,-8 -20,-8 -8,0 -14,3 -19,8 -5,6 -8,13 -8,21 0,3 0,6 1,9 1,3 1,5 2,6 -5,5 -11,7 -18,7zm235 281c4,0 9,0 14,0 5,-1 9,-2 14,-3 -6,-14 -14,-24 -24,-31 -11,-7 -23,-11 -36,-11 -6,0 -11,1 -16,4 -4,3 -7,8 -7,15 0,7 5,13 14,19 8,5 22,7 41,7z"/>
   <path class="fil18" d="M6383 5192c-4,-5 -6,-12 -7,-19 11,-10 20,-22 28,-37 6,-12 10,-26 11,-40 0,4 0,9 0,13 0,20 -3,37 -11,52 -6,12 -13,22 -21,31zm-119 -52c-5,-6 -7,-12 -8,-19 10,-9 19,-21 27,-34 6,-11 9,-24 11,-39 0,4 0,8 0,13 0,21 -4,38 -11,51 -6,11 -12,20 -19,28zm-208 -66c6,5 11,12 16,19 9,13 13,29 13,49 0,4 0,8 -1,12 -1,-14 -5,-25 -12,-35 -9,-13 -19,-23 -30,-30 4,-3 8,-8 13,-13l1 -2zm-218 114c-1,-4 -2,-8 -2,-13 0,-18 7,-33 20,-43 10,-8 22,-13 37,-15 10,1 21,2 35,2l10 0 5 2c11,3 21,8 29,13 9,6 17,12 23,20 7,8 13,16 17,25 5,-5 10,-11 13,-18 1,-3 2,-7 3,-10 1,4 1,8 1,13 0,8 -2,16 -4,23 -3,7 -8,12 -13,17 -4,-9 -10,-17 -17,-24 -6,-8 -14,-15 -23,-20 -8,-6 -18,-10 -29,-14 -10,-3 -22,-4 -35,-4 -22,0 -39,5 -52,15 -10,8 -16,18 -18,31zm25 -114c-1,-3 -2,-8 -2,-13 0,-5 1,-9 2,-13 2,-4 4,-7 7,-9 23,1 45,1 66,2 21,0 42,0 63,1 4,-5 9,-13 14,-22l2 -6 7 0c-2,12 -5,22 -9,32 -5,9 -10,17 -14,22 -21,-1 -42,-1 -63,-2 -21,0 -43,0 -66,-1 -3,2 -5,5 -7,9l0 0zm-248 91c6,8 14,15 25,21 15,8 34,12 54,12 21,0 38,-3 52,-8 13,-6 24,-12 31,-17 6,2 10,5 14,10 4,4 5,9 5,16 0,5 -1,9 -3,13 0,-1 -1,-2 -2,-4 -4,-4 -8,-7 -14,-10 -7,6 -18,12 -31,17 -14,6 -31,9 -52,9 -20,0 -39,-4 -54,-13 -16,-8 -27,-19 -31,-32 1,-5 3,-9 6,-14zm-63 2c-2,-4 -3,-8 -4,-13 3,-15 10,-29 21,-43 6,-8 13,-14 21,-20 6,6 12,11 18,14 -15,8 -28,19 -39,32 -8,10 -13,20 -17,30zm-169 -188c-2,-3 -2,-7 -2,-12 0,-3 0,-7 1,-10 1,-4 2,-8 3,-11l47 0 0 26 -47 0c-1,2 -2,5 -2,7zm49 -50l0 -24c0,-31 8,-54 26,-70 17,-16 41,-24 71,-24 15,0 29,2 41,6 12,4 22,9 30,16 9,7 15,15 19,24 5,9 7,19 7,29 0,5 -1,9 -1,13 -2,-5 -3,-11 -6,-16 -4,-9 -10,-17 -19,-24 -8,-7 -18,-12 -30,-17 -12,-4 -26,-6 -41,-6 -30,0 -54,8 -71,24 -17,16 -26,39 -26,69zm137 -13l-1 -1 0 -1 1 2zm-80 30l90 0 1 0c5,2 10,3 16,3 5,0 9,-1 13,-3l94 0c3,1 6,2 9,2 4,0 7,-1 9,-2l66 0c3,1 6,2 10,2 3,0 6,-1 9,-2l2 0 7 0 213 0c3,2 8,3 13,3 5,0 11,-1 15,-3l1 0 43 0 8 0 40 0 0 26 -40 0 -8 0 -285 0 -7 0 -319 0 0 -26zm579 -33l0 2 -1 1 1 -3zm-57 -14c0,-4 -1,-8 -1,-13 0,-10 2,-20 7,-29 4,-9 10,-17 18,-24 8,-7 18,-12 30,-16 12,-4 26,-6 41,-6 30,0 54,7 72,23 17,16 26,39 26,69l0 24c0,-29 -9,-51 -26,-67 -18,-16 -42,-24 -72,-24 -15,0 -29,2 -41,6 -12,5 -22,10 -30,17 -8,7 -14,15 -18,24 -3,5 -5,11 -6,16zm193 47l25 0 11 0 85 0c5,7 9,16 14,29 4,13 8,29 10,48 15,-12 31,-22 47,-30 16,-8 31,-14 45,-18 8,11 16,25 22,44 6,19 9,39 10,62l56 0 0 26 -56 0c-1,-23 -4,-44 -10,-62 -6,-19 -14,-34 -22,-44 -14,3 -29,9 -45,17 -16,8 -32,18 -47,31 -2,-19 -6,-35 -10,-48 -5,-13 -9,-23 -14,-29l-85 0 -11 0 -25 0 0 -26zm325 53l0 -25c0,-10 2,-17 6,-21 5,-5 12,-7 22,-7l190 0c11,0 17,7 17,22 0,3 0,6 -1,11l-1 3c-2,-7 -8,-10 -15,-10l-190 0c-10,0 -17,2 -22,7 -4,4 -6,11 -6,20zm-982 -951c0,-4 -1,-8 -1,-13 0,-24 7,-42 20,-52 13,-10 27,-15 44,-15 8,0 15,1 22,4 7,2 13,5 18,8 -1,3 -2,7 -2,11 -1,5 -1,9 -1,11l0 2c-4,-2 -9,-5 -15,-6 -7,-3 -14,-4 -22,-4 -17,0 -31,5 -44,15 -11,8 -17,21 -19,39zm101 -34c5,20 21,30 51,30 12,0 24,-1 38,-3 14,-2 26,-3 38,-3 35,0 64,9 87,27 22,18 33,44 33,78 0,5 0,9 0,13 -3,-28 -14,-49 -33,-65 -23,-18 -52,-27 -87,-27 -12,0 -24,1 -38,3 -14,2 -26,3 -38,3 -35,0 -52,-14 -52,-42 0,-3 0,-6 1,-11l0 -3zm246 178l107 0c12,0 20,3 25,11 5,7 7,17 7,31 0,4 0,8 -1,13 -1,-8 -3,-14 -6,-19 -5,-7 -13,-11 -25,-11l-114 0c1,-4 3,-9 4,-15 1,-3 2,-7 3,-10zm-15 186c11,5 22,10 32,17 13,9 25,20 35,33 10,13 18,28 24,46 7,17 10,36 10,58 0,4 -1,8 -1,12 -1,-16 -4,-31 -9,-45 -6,-17 -14,-32 -24,-45 -10,-13 -22,-24 -35,-33 -13,-9 -27,-16 -41,-21 3,-7 6,-14 9,-22zm-95 261c0,-3 0,-5 0,-8 0,-3 0,-6 0,-11 0,-4 0,-7 1,-10 9,-2 19,-4 28,-7 10,-4 18,-9 25,-15 8,-7 14,-15 18,-25 3,-7 5,-15 6,-24 1,4 1,8 1,13 0,14 -2,26 -7,36 -4,11 -10,19 -18,25 -7,7 -15,12 -25,15 -9,4 -19,6 -28,7 0,2 0,3 -1,4zm-212 -100c1,9 3,16 6,23 5,10 11,19 19,25 7,7 16,12 25,16 9,4 18,7 27,8 1,3 2,6 2,9 0,4 0,7 0,10 0,3 0,6 -1,10 0,-1 0,-2 -1,-3 -9,-2 -18,-4 -27,-8 -9,-4 -18,-9 -25,-16 -8,-7 -14,-15 -19,-25 -4,-10 -6,-22 -6,-36 0,-5 0,-9 0,-13zm-117 6c0,-4 0,-9 0,-13 0,-22 3,-41 9,-58 6,-18 14,-33 24,-46 10,-13 21,-24 34,-33 10,-7 21,-12 32,-17 3,8 6,15 9,22 -14,5 -28,12 -41,21 -13,9 -24,20 -34,33 -10,13 -18,28 -24,45 -5,14 -8,29 -9,46zm-500 -39c-1,-3 -3,-7 -4,-11 4,-19 12,-37 25,-56 8,-11 18,-21 28,-29 5,6 12,10 19,14 -18,9 -34,23 -47,41 -9,14 -16,27 -21,41zm-65 -261c-1,-4 -1,-9 -1,-14 0,-5 1,-12 2,-20 1,-8 3,-14 5,-19l366 0c1,4 2,9 2,14 0,4 0,7 -1,11l-367 0c-2,5 -4,12 -5,20l-1 8zm128 -197c-1,-4 -1,-8 -1,-13 0,-24 6,-42 19,-52 13,-10 28,-15 44,-15 8,0 16,1 23,4 7,2 13,5 17,8 -1,3 -1,7 -2,11 0,5 -1,9 -1,11l0 2c-4,-2 -9,-5 -14,-6 -7,-3 -15,-4 -23,-4 -16,0 -31,5 -44,15 -10,8 -16,21 -18,39zm100 -34c5,20 22,30 51,30 12,0 25,-1 39,-3 13,-2 26,-3 37,-3 36,0 65,9 87,27 23,18 34,44 34,78 0,5 0,9 -1,13 -2,-28 -13,-50 -33,-65 -22,-18 -51,-27 -87,-27 -11,0 -24,1 -37,3 -14,2 -27,3 -39,3 -34,0 -52,-14 -52,-42 0,-3 1,-6 1,-11l0 -3zm246 178l43 0 14 0 371 0c1,4 1,9 1,14 0,4 0,7 0,11l-372 0 -14 0 -50 0c2,-4 3,-9 5,-15 1,-3 1,-7 2,-10zm-185 350c31,0 56,-5 78,-14l0 25c-22,10 -47,14 -78,14 -30,0 -54,-5 -72,-15 -17,-10 -29,-22 -35,-36 2,-5 4,-9 7,-14 6,9 16,17 28,25 18,10 42,15 72,15zm-102 -242c2,12 5,22 10,31 8,14 17,24 25,30l145 0 0 26 -145 0c-8,-6 -17,-16 -25,-31 -8,-14 -12,-33 -13,-56l3 0zm643 123c19,-14 35,-34 46,-62 8,-19 14,-40 17,-61l2 0c-1,31 -8,60 -19,87 -11,27 -27,48 -46,62 -11,-5 -20,-13 -29,-24 -8,-10 -16,-22 -22,-36 -7,-13 -12,-28 -16,-43 -4,-16 -7,-31 -8,-46l3 0c2,7 3,13 5,20 4,15 9,30 16,43 6,14 14,26 22,36 9,11 18,19 29,24zm-1897 1528l-223 729 11 -10 218 -714 -6 -5zm2364 -508c5,-8 10,-17 14,-25l-178 0c-246,417 -700,696 -1219,696 -571,0 -1064,-339 -1287,-826 -2,5 -4,10 -5,15 221,493 716,837 1292,837 519,0 973,-280 1219,-697l164 0zm-2327 -327c2,-13 1,-28 -5,-45 -5,-15 -8,-31 -9,-45 -2,23 2,46 9,71 2,6 4,13 5,19zm26 -209c6,-24 -4,-45 -30,-55 -18,-7 -39,-9 -59,-14l-6 -1c-11,5 -22,10 -33,19 13,2 26,5 39,8 20,4 41,6 59,14 16,6 26,16 30,29zm-11 -158c3,-13 1,-27 -6,-42 -5,-11 -11,-21 -16,-32l0 -1c-4,8 -4,17 0,27 5,11 11,21 16,32 3,5 5,11 6,16zm85 -186c5,-23 -4,-50 -28,-80 -15,-21 -33,-39 -51,-57 -27,-28 -56,-54 -82,-83 -26,-29 -43,-59 -47,-92 -5,43 15,82 47,118 26,29 55,55 82,83 18,18 36,36 51,56 16,20 25,39 28,55zm-190 -405c4,-59 -23,-244 -43,-351l-4 5c18,90 44,264 47,346zm2374 -253l15 0c-272,-465 -777,-777 -1355,-777 -867,0 -1571,703 -1571,1571l0 16c5,-863 707,-1561 1571,-1561 567,0 1064,300 1340,751zm-2658 1309c-61,-156 -96,-325 -97,-502l0 12c0,182 34,356 97,516 2,-4 4,-8 7,-12 23,-40 60,-50 104,-51 54,-2 107,-10 160,-15 8,-1 16,-4 24,-7 28,-11 33,-18 27,-44 -3,7 -12,12 -27,18 -8,3 -16,6 -24,7 -53,6 -106,14 -160,15 -44,1 -81,11 -104,52 -3,3 -5,7 -7,11zm236 -1059l0 1c-6,17 -14,33 -17,50 -2,16 -4,33 -2,49 0,-8 1,-16 2,-23 3,-17 11,-34 17,-50 1,-4 1,-13 0,-27zm185 404c-4,6 -13,11 -26,17 -8,3 -17,6 -25,9 -41,15 -60,56 -54,92 4,-28 23,-54 54,-66 8,-3 17,-6 25,-10 29,-12 37,-22 26,-42zm-87 186c-2,2 -5,3 -7,4 -18,7 -36,12 -54,21 -17,8 -36,16 -51,28 -14,12 -18,28 -12,41 3,-5 7,-10 12,-15 15,-12 34,-21 51,-29 18,-8 36,-13 54,-20 12,-6 17,-14 8,-27l-1 -3zm3 174c-22,32 -29,67 -27,103 2,-31 12,-60 34,-87 2,-2 3,-5 4,-7 1,-2 1,-3 1,-7 -4,-1 -8,-2 -12,-2zm1093 1468c-244,0 -476,-44 -690,-125l-247 181 23 9 224 -165c214,81 446,126 690,126 265,0 516,-52 743,-146 34,-23 67,-46 99,-70 -252,121 -538,190 -842,190zm-1209 -425c-381,-312 -622,-768 -628,-1278l0 10c0,514 242,975 624,1290l4 -22zm1266 -3013c56,2 111,6 165,12 -156,-43 -320,-66 -489,-66 -1015,0 -1838,823 -1838,1837l1 16c5,-1010 825,-1827 1837,-1827 110,0 219,10 324,28zm-909 1651c-7,-18 0,-34 22,-40 10,-3 28,3 36,11 74,76 109,168 106,272 -3,-94 -38,-176 -106,-246 -8,-9 -26,-15 -36,-12 -11,3 -18,9 -22,15zm1 488c-7,-13 -2,-29 14,-47 51,-57 79,-122 82,-201l0 11c0,86 -28,156 -82,216 -6,7 -11,14 -14,21zm383 -209l0 6c-2,-153 -39,-253 -107,-341 -13,-17 -27,-32 -42,-47 -15,-15 -33,-11 -47,1 -3,3 -5,6 -7,9 -6,-13 -4,-25 7,-35 14,-12 32,-16 47,-1 15,15 29,30 42,47 70,92 108,196 107,361zm-203 302c-7,-14 -1,-28 11,-41 45,-47 81,-100 101,-162 15,-48 23,-95 25,-141 1,54 -7,109 -25,167 -20,62 -56,115 -101,162 -4,5 -8,10 -11,15zm423 -349l0 7c-1,-83 -20,-163 -53,-240 -32,-72 -75,-137 -131,-193 -19,-20 -47,-18 -56,2 -2,-6 -3,-12 -2,-18 4,-27 36,-32 58,-10 56,56 99,121 131,193 36,83 54,169 53,259zm-242 443c-6,-11 -3,-24 7,-35 13,-17 29,-31 42,-48 82,-108 125,-222 127,-342 3,130 -39,252 -127,368 -13,17 -29,31 -42,47 -3,4 -5,7 -7,10zm1198 -261c2,7 5,13 8,18 7,13 17,23 30,29 7,-1 14,-1 21,-1l44 0 0 26 -44 0c-7,0 -14,0 -21,1 -13,-6 -23,-16 -30,-29 -7,-13 -12,-27 -13,-44l5 0zm62 -112c-1,-4 -1,-8 -1,-13 0,-9 2,-18 6,-26 3,-7 8,-14 14,-19 7,-5 14,-10 22,-12 9,-3 18,-5 27,-5 10,0 19,2 27,5 9,3 16,7 22,12 6,6 11,12 15,20 3,8 5,16 5,25 0,5 0,10 -1,13 -1,-4 -2,-8 -4,-12 -4,-8 -9,-14 -15,-20 -6,-5 -13,-10 -22,-12 -8,-3 -17,-5 -27,-5 -9,0 -18,1 -27,4 -8,3 -15,7 -22,13 -6,5 -11,12 -14,19 -2,4 -4,8 -5,13zm95 15l-2 -2 0 -1c1,1 1,2 2,3zm-52 -4l1 2 -2 2c0,-1 1,-2 1,-4zm218 290c4,0 9,0 13,0 6,6 11,14 15,23 -5,1 -9,2 -14,2 -5,1 -10,1 -14,1 -19,0 -33,-2 -41,-8 -9,-5 -14,-11 -14,-19 0,-5 2,-10 6,-13 2,2 4,5 8,7 8,5 22,7 41,7z"/>
  </g>
  <g id="_939609872">
   <g>
    <path class="fil19" d="M7066 1239c-25,36 -54,70 -86,100 -31,29 -64,55 -101,76 -2,32 -8,64 -18,95 -10,28 -22,56 -38,81 -12,18 -32,44 -54,51 -19,5 -37,0 -54,-11 -9,-5 -17,-12 -24,-19 -7,-7 -13,-14 -17,-23 6,-8 11,-15 16,-23 6,-8 11,-17 16,-25 7,-11 13,-22 19,-34 7,-12 14,-25 19,-38 -26,8 -54,10 -81,7 -30,-3 -59,-13 -86,-28 -23,-13 -45,-28 -63,-48 -16,-17 -29,-37 -37,-60 -8,-22 -11,-45 -10,-68 2,-26 9,-51 20,-74 11,-23 26,-44 46,-61 18,-16 38,-27 61,-33 24,-7 49,-7 74,-3 27,4 54,14 78,27 30,16 56,38 76,65 19,25 33,53 40,84 16,-17 31,-35 44,-54 14,-19 28,-39 41,-59 -116,-70 -235,-134 -358,-193 -3,3 -74,-34 -82,-38 -69,154 -138,308 -208,462 -7,-1 -15,-3 -22,-5 -10,-2 -20,-5 -29,-9 -16,-7 -32,-16 -40,-31 -10,-17 -2,-41 4,-57 7,-15 13,-31 19,-46 -17,2 -36,0 -53,-3 -21,-3 -40,-9 -60,-16 -52,-20 -98,-50 -131,-96 -29,-44 -44,-92 -45,-145 22,-21 42,-44 59,-69 19,-28 34,-58 44,-90 4,-11 7,-21 9,-32 3,-12 5,-23 5,-34 -16,-6 -33,-11 -50,-16l-5 -2 -6 -1c-25,-8 -49,-15 -74,-22 -31,109 -62,219 -92,328 -13,46 -37,88 -79,115 -44,28 -97,26 -146,15 -30,-7 -58,-19 -84,-35 -25,-16 -47,-36 -64,-61 -17,-25 -29,-53 -37,-83 -8,-34 -8,-70 -2,-104 8,-48 26,-95 68,-124 41,-28 92,-30 140,-20 47,10 94,21 141,32 8,-32 16,-65 24,-97 -141,-35 -282,-62 -424,-82 -23,167 -47,335 -70,502 -8,1 -16,1 -24,2 -10,1 -20,0 -30,-1 -17,-2 -34,-7 -46,-19 -14,-13 -14,-38 -12,-56 6,-57 12,-115 18,-172 -51,-5 -103,-10 -154,-13 -8,40 -21,90 -45,123 -18,24 -42,39 -72,38 -23,0 -43,-7 -58,-25 -14,-17 -21,-36 -23,-58 25,-20 42,-50 54,-79 17,-41 23,-88 25,-132 1,-25 0,-50 -2,-74 -1,-25 -4,-50 -12,-73 -6,0 -117,-2 -118,-2 -1,0 -29,0 -33,0 2,169 3,338 4,507 -7,2 -15,3 -22,5 -10,2 -20,3 -31,4 -17,0 -35,-2 -49,-12 -16,-11 -20,-36 -20,-54 -3,-55 -5,-110 -7,-165 -51,2 -102,6 -153,10 -3,61 -17,160 -94,168 -22,3 -42,-3 -59,-17 -17,-14 -28,-32 -34,-53 22,-24 34,-55 42,-86 11,-43 11,-90 6,-134 -3,-24 -8,-48 -13,-72 -5,-24 -13,-49 -23,-72 -25,3 -49,6 -73,9 -12,2 -24,0 -32,-9 -9,-11 -13,-26 -15,-39 -1,-9 -1,-17 -1,-26 0,-8 1,-17 4,-25 206,-29 395,-42 603,-43 1,-1 22,0 28,0 65,0 129,2 194,5 8,15 14,30 20,46 7,20 12,41 16,62 4,25 7,50 9,76 2,28 1,57 -1,85 51,3 101,8 151,13 7,-68 14,-135 21,-203 2,-16 6,-34 19,-45 12,-11 31,-11 47,-9 45,5 89,11 134,18 193,29 384,71 571,127 204,65 388,130 583,220l14 6c196,95 376,194 557,315 10,6 18,16 18,28 0,14 -7,27 -15,38 -5,7 -10,14 -17,21 -5,6 -12,12 -19,16 -21,-14 -42,-28 -64,-42zm-4127 -232c15,32 28,66 35,102 5,28 9,58 8,86 20,10 37,22 52,37 18,16 31,36 42,57 14,28 23,58 25,89 2,29 -2,57 -13,84 -11,28 -27,53 -48,75 -23,25 -51,46 -81,63 -30,18 -61,32 -95,41 -24,7 -52,12 -78,9 -12,-1 -25,-4 -36,-10 -10,-6 -18,-14 -24,-24 -9,-13 -13,-27 -13,-42 0,-14 3,-28 11,-40 26,4 53,4 80,2 33,-3 66,-17 95,-34 32,-19 63,-45 75,-81 10,-31 8,-61 -7,-90 -3,-5 -5,-9 -8,-13 -3,-4 -6,-7 -9,-11 -5,26 -17,50 -32,71 -19,25 -43,44 -69,60 -20,12 -42,22 -64,28 -20,5 -40,7 -61,5 -19,-2 -37,-8 -54,-18 -19,-11 -33,-27 -45,-44 -23,-35 -32,-73 -19,-114 13,-44 48,-76 87,-100 27,-16 57,-28 88,-33 25,-4 52,-5 77,-1 -4,-15 -9,-30 -15,-45 -6,-16 -13,-32 -21,-48 -118,64 -233,133 -344,208 -10,7 -22,11 -33,6 -13,-5 -23,-17 -31,-28 -4,-7 -9,-15 -12,-23 -4,-7 -7,-16 -8,-24 164,-113 336,-214 515,-302 271,-135 557,-240 851,-314 84,-22 169,-40 255,-56 12,-2 24,-1 33,8 9,10 13,24 15,37 2,9 2,18 3,27 0,8 0,17 -2,25 -27,5 -54,10 -81,16 20,99 40,198 59,297 -7,3 -15,7 -22,10 -10,4 -20,7 -30,9 -17,4 -37,6 -54,-1 -18,-7 -26,-32 -30,-49 -19,-79 -37,-158 -56,-238 -41,10 -82,20 -123,31 44,163 87,326 131,490 -7,3 -14,7 -21,10 -9,5 -18,9 -28,11 -16,5 -34,7 -51,1 -17,-7 -27,-30 -32,-47 -16,-52 -32,-105 -48,-158 -53,16 -106,34 -158,52 12,60 24,159 -48,187 -21,8 -41,7 -61,-2 -20,-10 -35,-24 -46,-43 15,-28 19,-62 18,-93 0,-45 -12,-90 -28,-131 -9,-23 -20,-45 -31,-66 -11,-23 -24,-45 -41,-65 -43,17 -87,35 -130,54 40,93 81,185 121,278 -7,5 -14,10 -21,15 -8,6 -17,11 -27,15 -16,7 -35,13 -52,10 -20,-3 -33,-25 -41,-42 -34,-73 -69,-147 -104,-220 -14,7 -77,37 -90,44zm-137 337c15,-9 29,-21 40,-35 12,-15 19,-32 24,-50 -19,-5 -38,-6 -57,-4 -18,3 -35,8 -50,17 -13,7 -25,18 -29,32 -3,11 -2,22 4,32 6,11 15,18 27,19 14,3 29,-4 41,-11zm843 -438c-16,-54 -32,-107 -49,-161 -60,18 -121,38 -181,59 8,13 16,26 23,39 7,14 14,28 20,42 6,13 12,26 18,39 5,11 9,22 13,33 52,-18 104,-35 156,-51zm-74 300c-6,-18 -7,-37 0,-55 7,-17 19,-28 37,-34 17,-5 34,-4 49,6 16,10 26,26 32,44 6,18 6,36 -1,54 -6,17 -18,28 -35,34 -17,5 -33,3 -49,-6 -16,-10 -27,-25 -33,-43zm1066 -467c-2,-57 -4,-113 -7,-169 -58,2 -117,6 -176,11 5,14 9,29 12,43 3,15 7,30 9,45 3,15 6,29 8,43 1,12 3,24 4,36 50,-4 100,-7 150,-9zm994 324c18,4 38,5 54,-6 15,-10 23,-26 27,-43 10,-40 20,-80 30,-120 -38,-10 -75,-18 -113,-26 -20,-5 -40,-4 -55,10 -14,13 -22,29 -26,47 -3,17 -4,35 -1,52 3,15 9,28 17,41 8,11 18,21 30,29 11,8 23,13 37,16zm544 57c18,7 37,12 57,13 16,1 32,1 48,-3 10,-25 20,-50 30,-74 -63,-26 -127,-51 -191,-73 -6,7 -12,15 -19,21 -6,7 -13,13 -20,19 4,18 16,37 27,51 17,22 42,36 68,46zm-8 -227c61,22 121,45 181,70 12,-28 23,-56 35,-84 -63,-26 -127,-50 -191,-73 -3,11 -5,22 -8,33 -3,11 -6,22 -9,32 -3,7 -6,15 -8,22zm479 458c20,10 41,15 63,13 21,-1 41,-7 60,-17 0,-23 -6,-45 -18,-65 -11,-19 -26,-34 -45,-45 -19,-10 -40,-17 -60,-12 -18,4 -32,14 -40,31 -9,16 -10,33 -3,51 8,20 25,34 43,44z"/>
    <path class="fil20" d="M7066 1213c-25,36 -54,70 -86,100 -31,29 -64,55 -101,76 -2,33 -8,65 -18,96 -10,28 -22,55 -38,80 -12,19 -32,45 -54,51 -19,5 -37,0 -54,-10 -9,-6 -17,-12 -24,-20 -7,-6 -13,-14 -17,-23 6,-7 11,-15 16,-23 6,-8 11,-17 16,-25 7,-11 13,-22 19,-33 7,-13 14,-26 19,-39 -26,8 -54,10 -81,7 -30,-3 -59,-13 -86,-28 -23,-12 -45,-28 -63,-47 -16,-18 -29,-38 -37,-60 -8,-23 -11,-46 -10,-69 2,-26 9,-50 20,-73 11,-24 26,-45 46,-62 18,-15 38,-27 61,-33 24,-7 49,-7 74,-3 27,4 54,14 78,28 30,16 56,37 76,64 19,25 33,53 40,84 16,-16 31,-35 44,-53 14,-20 28,-40 41,-60 -116,-70 -235,-134 -358,-192 -3,3 -74,-35 -82,-38 -69,153 -138,307 -208,461 -7,-1 -15,-3 -22,-4 -10,-2 -20,-6 -29,-10 -16,-6 -32,-16 -40,-31 -10,-17 -2,-41 4,-57 7,-15 13,-30 19,-45 -17,2 -36,0 -53,-3 -21,-4 -40,-9 -60,-17 -52,-19 -98,-49 -131,-96 -29,-44 -44,-92 -45,-145 22,-20 42,-44 59,-69 19,-27 34,-58 44,-90 4,-10 7,-21 9,-32 3,-11 5,-23 5,-34 -16,-5 -33,-10 -50,-16l-5 -1 -6 -2c-25,-7 -49,-15 -74,-22 -31,110 -62,219 -92,328 -13,47 -37,89 -79,116 -44,28 -97,25 -146,14 -30,-7 -58,-18 -84,-35 -25,-16 -47,-36 -64,-61 -17,-25 -29,-53 -37,-83 -8,-34 -8,-69 -2,-104 8,-48 26,-95 68,-123 41,-29 92,-31 140,-21 47,10 94,21 141,32 8,-32 16,-65 24,-97 -141,-35 -282,-62 -424,-81 -23,167 -47,334 -70,501 -8,1 -16,2 -24,2 -10,1 -20,1 -30,-1 -17,-2 -34,-7 -46,-18 -14,-14 -14,-39 -12,-56 6,-58 12,-115 18,-173 -51,-5 -103,-9 -154,-13 -8,41 -21,90 -45,123 -18,25 -42,40 -72,39 -23,-1 -43,-8 -58,-26 -14,-17 -21,-36 -23,-57 25,-21 42,-50 54,-80 17,-41 23,-88 25,-132 1,-24 0,-49 -2,-74 -1,-24 -4,-50 -12,-73 -6,0 -117,-1 -118,-1 -1,-1 -29,0 -33,0 2,168 3,337 4,506 -7,2 -15,4 -22,5 -10,3 -20,4 -31,4 -17,0 -35,-2 -49,-12 -16,-11 -20,-36 -20,-53 -3,-55 -5,-110 -7,-165 -51,2 -102,5 -153,9 -3,62 -17,160 -94,169 -22,2 -42,-4 -59,-18 -17,-14 -28,-31 -34,-53 22,-23 34,-55 42,-86 11,-43 11,-90 6,-133 -3,-25 -8,-49 -13,-72 -5,-25 -13,-50 -23,-73 -25,3 -49,6 -73,9 -12,2 -24,1 -32,-9 -9,-10 -13,-26 -15,-39 -1,-8 -1,-17 -1,-26 0,-8 1,-17 4,-25 206,-29 395,-42 603,-43 1,0 22,0 28,0 65,0 129,2 194,6 8,14 14,30 20,45 7,20 12,41 16,62 4,25 7,51 9,76 2,28 1,57 -1,85 51,4 101,8 151,13 7,-67 14,-135 21,-203 2,-15 6,-34 19,-45 12,-10 31,-11 47,-9 45,5 89,11 134,18 193,29 384,72 571,127 204,65 388,130 583,220l14 7c196,94 376,193 557,314 10,7 18,16 18,29 0,13 -7,27 -15,37 -5,8 -10,15 -17,21 -5,6 -12,12 -19,17 -21,-15 -42,-29 -64,-43zm-4127 -232c15,33 28,67 35,102 5,28 9,58 8,87 20,9 37,21 52,36 18,16 31,36 42,57 14,28 23,58 25,89 2,29 -2,57 -13,84 -11,28 -27,53 -48,75 -23,25 -51,46 -81,64 -30,17 -61,31 -95,40 -24,7 -52,12 -78,9 -12,-1 -25,-4 -36,-10 -10,-6 -18,-14 -24,-24 -9,-12 -13,-27 -13,-42 0,-14 3,-28 11,-40 26,5 53,4 80,2 33,-2 66,-16 95,-33 32,-19 63,-45 75,-82 10,-31 8,-61 -7,-90 -3,-4 -5,-9 -8,-13 -3,-4 -6,-7 -9,-10 -5,26 -17,49 -32,70 -19,25 -43,45 -69,60 -20,12 -42,22 -64,28 -20,6 -40,8 -61,6 -19,-2 -37,-9 -54,-19 -19,-11 -33,-26 -45,-44 -23,-35 -32,-73 -19,-113 13,-45 48,-77 87,-100 27,-16 57,-29 88,-34 25,-4 52,-5 77,0 -4,-16 -9,-31 -15,-46 -6,-16 -13,-32 -21,-48 -118,64 -233,133 -344,208 -10,7 -22,12 -33,7 -13,-6 -23,-18 -31,-29 -4,-7 -9,-15 -12,-22 -4,-8 -7,-16 -8,-25 164,-112 336,-213 515,-302 271,-134 557,-240 851,-314 84,-21 169,-40 255,-56 12,-2 24,-1 33,8 9,10 13,25 15,37 2,9 2,19 3,28 0,7 0,17 -2,24 -27,5 -54,10 -81,16 20,99 40,198 59,297 -7,4 -15,7 -22,10 -10,4 -20,7 -30,10 -17,3 -37,5 -54,-2 -18,-7 -26,-31 -30,-49 -19,-79 -37,-158 -56,-237 -41,10 -82,20 -123,31 44,163 87,326 131,489 -7,4 -14,7 -21,11 -9,4 -18,8 -28,11 -16,4 -34,7 -51,1 -17,-7 -27,-31 -32,-47 -16,-53 -32,-106 -48,-158 -53,16 -106,33 -158,51 12,60 24,159 -48,187 -21,8 -41,7 -61,-2 -20,-9 -35,-23 -46,-42 15,-29 19,-63 18,-94 0,-44 -12,-90 -28,-131 -9,-22 -20,-45 -31,-66 -11,-23 -24,-45 -41,-64 -43,17 -87,35 -130,53 40,93 81,186 121,279 -7,5 -14,9 -21,14 -8,6 -17,11 -27,16 -16,7 -35,12 -52,9 -20,-3 -33,-25 -41,-41 -34,-74 -69,-147 -104,-221 -14,7 -77,37 -90,44zm-137 338c15,-10 29,-21 40,-36 12,-15 19,-31 24,-50 -19,-5 -38,-6 -57,-3 -18,2 -35,7 -50,16 -13,8 -25,18 -29,32 -3,11 -2,22 4,32 6,11 15,18 27,20 14,2 29,-4 41,-11zm843 -438c-16,-54 -32,-108 -49,-162 -60,18 -121,38 -181,59 8,13 16,26 23,40 7,13 14,27 20,41 6,13 12,26 18,39 5,11 9,22 13,34 52,-18 104,-35 156,-51zm-74 299c-6,-18 -7,-36 0,-54 7,-17 19,-29 37,-34 17,-6 34,-5 49,5 16,10 26,26 32,44 6,18 6,36 -1,54 -6,17 -18,28 -35,34 -17,6 -33,4 -49,-6 -16,-10 -27,-25 -33,-43zm1066 -467c-2,-56 -4,-113 -7,-169 -58,2 -117,6 -176,11 5,14 9,29 12,44 3,15 7,30 9,45 3,14 6,28 8,42 1,12 3,24 4,36 50,-4 100,-7 150,-9zm994 324c18,5 38,6 54,-5 15,-10 23,-26 27,-44 10,-40 20,-80 30,-120 -38,-9 -75,-18 -113,-26 -20,-4 -40,-4 -55,10 -14,13 -22,29 -26,47 -3,17 -4,35 -1,52 3,15 9,29 17,41 8,12 18,22 30,29 11,8 23,13 37,16zm544 57c18,7 37,12 57,13 16,1 32,1 48,-3 10,-25 20,-49 30,-74 -63,-26 -127,-50 -191,-73 -6,8 -12,15 -19,22 -6,6 -13,13 -20,19 4,18 16,36 27,50 17,22 42,37 68,46zm-8 -227c61,22 121,46 181,70 12,-28 23,-55 35,-83 -63,-26 -127,-51 -191,-73 -3,11 -5,22 -8,33 -3,10 -6,21 -9,31 -3,8 -6,15 -8,22zm479 458c20,11 41,15 63,14 21,-2 41,-7 60,-18 0,-23 -6,-45 -18,-64 -11,-19 -26,-35 -45,-46 -19,-10 -40,-16 -60,-12 -18,4 -32,14 -40,31 -9,16 -10,34 -3,51 8,20 25,34 43,44z"/>
    <path class="fil21" d="M6682 1578c-3,-5 -6,-10 -8,-15 6,-7 11,-15 16,-23 6,-8 11,-17 16,-25 7,-11 13,-22 19,-33l5 -10c5,-1 9,-2 14,-3 -5,13 -12,26 -19,38 -6,12 -12,23 -19,34 -5,8 -10,17 -16,25 -2,4 -5,8 -8,12zm-214 -309c-1,-8 -1,-15 -1,-23 2,-26 9,-50 20,-73 11,-24 26,-45 46,-62 18,-15 38,-27 61,-33 24,-7 49,-7 74,-3 27,4 54,14 78,28 30,16 56,37 76,64 19,25 33,53 40,84 16,-16 31,-35 44,-53 10,-14 19,-28 29,-41l12 7c-13,20 -27,40 -41,59 -13,19 -28,37 -44,54 -7,-31 -21,-59 -40,-84 -20,-27 -46,-49 -76,-65 -24,-13 -51,-23 -78,-27 -25,-4 -50,-4 -74,3 -23,6 -43,17 -61,33 -20,17 -35,38 -46,61 -11,23 -18,46 -19,71zm-263 48c-5,-16 2,-36 7,-50l8 -19c4,0 8,0 11,-1 -6,15 -12,31 -19,46 -2,7 -5,15 -7,24zm-262 -331c-1,-8 -1,-16 -1,-25 22,-20 42,-44 59,-69 19,-27 34,-58 44,-90 4,-10 7,-21 9,-32l2 -9 3 1c0,11 -2,22 -5,34 -2,11 -5,21 -9,32 -10,32 -25,62 -44,90 -17,25 -36,48 -58,68zm-527 -55c-1,-20 1,-41 4,-61 8,-48 26,-95 68,-123 41,-29 92,-31 140,-21 47,10 94,21 141,32l18 -73 6 2c-8,32 -16,65 -24,97 -47,-11 -94,-22 -141,-32 -48,-10 -99,-8 -140,20 -42,29 -60,76 -68,124 -2,11 -3,23 -4,35zm-229 105c-2,-10 -1,-20 0,-28l15 -147 3 0c-6,57 -12,115 -18,172l0 3zm-330 -113c-2,-7 -4,-15 -4,-22 25,-21 42,-50 54,-80 17,-41 23,-88 25,-132l0 -9c0,12 0,23 0,35 -2,44 -8,91 -25,132 -11,28 -27,56 -50,76zm-89 -357l3 481 0 0 -4 -481 1 0zm-459 385c-3,-6 -5,-12 -7,-18 22,-23 34,-55 42,-86 5,-21 8,-42 9,-64 1,30 -1,61 -9,90 -7,27 -18,56 -35,78zm-116 -429c0,-6 0,-12 0,-18 0,-8 1,-17 4,-25 206,-29 395,-42 603,-43 1,0 22,0 28,0 65,0 129,2 194,6 8,14 14,30 20,45 7,20 12,41 16,62 4,25 7,51 9,76 1,17 1,35 1,52 0,-9 -1,-18 -1,-26 -2,-26 -5,-51 -9,-76 -4,-21 -9,-42 -16,-62 -6,-16 -12,-31 -20,-46 -65,-3 -129,-5 -194,-5 -6,0 -27,-1 -28,0 -208,1 -397,14 -603,43 -2,5 -3,11 -4,17zm875 188c49,4 99,8 149,13 7,-67 14,-135 21,-203 2,-15 6,-34 19,-45 12,-10 31,-11 47,-9 45,5 89,11 134,18 193,29 384,72 571,127 204,65 388,130 583,220l14 7c196,94 376,193 557,314 10,7 18,16 18,29 0,4 -1,9 -2,13 -3,-6 -9,-12 -16,-16 -181,-121 -361,-220 -557,-315l-14 -6c-195,-90 -379,-155 -583,-220 -187,-56 -378,-98 -571,-127 -45,-7 -89,-13 -134,-18 -16,-2 -35,-2 -47,9 -13,11 -17,29 -19,45 -7,68 -14,135 -21,203 -50,-5 -100,-10 -151,-13 1,-8 1,-17 2,-26zm-2120 292c11,26 20,53 26,81 5,28 9,58 8,87 20,9 37,21 52,36 18,16 31,36 42,57 14,28 23,58 25,89 1,9 1,17 0,26 -2,-31 -11,-61 -25,-89 -11,-21 -24,-41 -42,-57 -15,-15 -32,-27 -52,-37 1,-28 -3,-58 -8,-86 -7,-36 -20,-70 -35,-102l9 -5zm-234 559c-1,-4 -1,-9 -1,-13 0,-14 3,-28 11,-40 26,5 53,4 80,2 33,-2 66,-16 95,-33 32,-19 63,-45 75,-82 2,-9 4,-17 5,-25 2,16 0,33 -5,51 -12,36 -43,62 -75,81 -29,17 -62,31 -95,34 -27,2 -54,2 -80,-2 -6,8 -9,18 -10,27zm-113 -242c-2,-16 0,-32 5,-49 13,-45 48,-77 87,-100 27,-16 57,-29 88,-34 23,-3 46,-5 69,-1 3,8 6,17 8,26 -25,-4 -52,-3 -77,1 -31,5 -61,17 -88,33 -39,24 -74,56 -87,100 -3,8 -4,16 -5,24zm-201 -116c-3,-7 -5,-15 -6,-22 164,-112 336,-213 515,-302 271,-134 557,-240 851,-314 84,-21 169,-40 255,-56 12,-2 24,-1 33,8 9,10 13,25 15,37 2,9 2,19 3,28 0,4 0,10 -1,15 0,-5 -1,-11 -2,-17 -2,-13 -6,-27 -15,-37 -9,-9 -21,-10 -33,-8 -86,16 -171,34 -255,56 -294,74 -580,179 -851,314 -176,87 -346,187 -509,298zm1588 -556l54 272 -4 2 -55 -273 5 -1zm-255 59l125 465 -6 3 -125 -467 6 -1zm-208 358c3,21 5,45 4,68 -1,-24 -5,-47 -9,-66l5 -2zm-153 129c-3,-3 -5,-7 -7,-10 12,-24 17,-51 18,-78l0 10c1,26 -2,53 -11,78zm-209 -290l111 257 -9 6 -112 -259 10 -4zm-361 416c15,-10 29,-21 40,-36 7,-8 12,-17 16,-26 2,1 5,1 8,2 -5,18 -12,35 -24,50 -11,14 -25,26 -40,35 -12,7 -27,14 -41,11 -12,-1 -21,-8 -27,-19 -6,-10 -7,-21 -4,-32l0 -1c1,2 2,5 4,7 6,11 15,18 27,20 14,2 29,-4 41,-11zm626 -519c3,6 6,12 10,18 7,13 14,27 20,41 6,13 12,26 18,39 5,11 9,22 13,34 49,-18 99,-34 149,-49l7 23c-52,16 -104,33 -156,51 -4,-11 -8,-22 -13,-33 -6,-13 -12,-26 -18,-39 -6,-14 -13,-28 -20,-42 -7,-13 -15,-26 -23,-39l13 -4zm139 365c-2,-13 -1,-26 4,-39 7,-17 19,-29 37,-34 17,-6 34,-5 49,5 16,10 26,26 32,44 4,13 6,27 3,40 0,-5 -2,-10 -3,-14 -6,-18 -16,-34 -32,-44 -15,-10 -32,-11 -49,-6 -18,6 -30,17 -37,34 -2,5 -3,9 -4,14zm894 -585c2,6 4,12 5,19 3,15 7,30 9,45 3,14 6,28 8,42 1,12 3,24 4,36 50,-4 99,-7 149,-9l1 26c-50,2 -100,5 -150,9 -1,-12 -3,-24 -4,-36 -2,-14 -5,-28 -8,-43 -2,-15 -6,-30 -9,-45 -3,-14 -7,-29 -12,-43l7 -1zm1170 457c18,5 38,6 54,-5 15,-10 23,-26 27,-44l24 -96 6 2c-10,40 -20,80 -30,120 -4,17 -12,33 -27,43 -16,11 -36,10 -54,6 -14,-3 -26,-8 -37,-16 -12,-8 -22,-18 -30,-29 -8,-13 -14,-26 -17,-41 -2,-12 -2,-24 -1,-36 0,3 1,7 1,10 3,15 9,29 17,41 8,12 18,22 30,29 11,8 23,13 37,16zm544 57c18,7 37,12 57,13 16,1 32,1 48,-3l21 -52 9 4c-10,24 -20,49 -30,74 -16,4 -32,4 -48,3 -20,-1 -39,-6 -57,-13 -26,-10 -51,-24 -68,-46 -11,-14 -23,-33 -27,-51l7 -6c5,11 13,22 20,31 17,22 42,37 68,46zm0 -224c58,21 116,44 173,67l26 -61 9 3c-12,28 -23,56 -35,84 -60,-25 -120,-48 -181,-70 2,-7 5,-15 8,-22l0 -1zm471 455c20,11 41,15 63,14 20,-2 40,-7 58,-17 1,8 2,16 2,25 -19,10 -39,16 -60,17 -22,2 -43,-3 -63,-13 -18,-10 -35,-24 -43,-44 -5,-12 -6,-24 -3,-36 1,3 2,7 3,10 8,20 25,34 43,44z"/>
   </g>
   <path class="fil22" d="M4281 1716c3,20 4,40 1,59 -3,17 -8,34 -15,49 10,8 19,16 26,27 7,11 12,23 14,36 3,17 2,33 -4,49 -6,16 -16,30 -28,41 -14,14 -31,25 -49,33 -22,10 -45,18 -68,23 -23,6 -48,10 -72,10 -17,1 -36,0 -53,-5 -12,-3 -25,-10 -28,-23 -2,-7 -1,-15 2,-21 4,-7 9,-13 16,-17 16,7 34,10 51,12 24,3 49,-1 72,-6 26,-6 55,-16 73,-36 14,-15 23,-32 19,-53 -2,-7 -5,-15 -10,-21 -11,15 -25,27 -41,36 -19,11 -39,18 -60,23 -16,4 -33,6 -49,7 -13,0 -27,-1 -40,-5 -11,-4 -21,-9 -30,-16 -8,-8 -14,-17 -17,-28 -6,-23 1,-44 17,-61 20,-22 50,-35 78,-41 22,-5 45,-8 67,-6 18,2 36,5 53,12 2,-10 3,-20 2,-31 0,-11 -1,-22 -3,-33 -94,18 -189,41 -281,68 -6,2 -14,3 -20,0 -6,-4 -9,-10 -11,-16 -1,-4 -1,-8 -2,-12 0,-4 0,-8 1,-12 137,-41 277,-73 418,-94 6,-1 14,-1 19,3 5,5 7,11 8,18 0,3 0,7 0,11 -1,4 -1,8 -2,12 -18,2 -36,5 -54,8zm-163 169c15,-4 29,-9 41,-17 13,-7 23,-16 31,-27 -13,-7 -27,-11 -41,-12 -15,-2 -30,-1 -44,2 -11,3 -25,8 -33,16 -6,6 -10,14 -8,22 3,9 9,14 17,17 12,3 26,1 37,-1zm324 -191c6,54 13,109 19,163 -5,2 -10,3 -14,4 -6,2 -12,3 -18,4 -10,1 -22,1 -31,-2 -9,-4 -13,-13 -14,-22 -6,-46 -13,-92 -19,-138 -15,2 -30,5 -45,7 -16,2 -25,-4 -28,-20 0,-4 0,-8 0,-12 0,-4 0,-8 1,-12 63,-10 127,-18 190,-24 16,-2 25,6 27,22 0,4 0,8 -1,11 0,4 -1,8 -2,12 -22,2 -43,4 -65,7zm179 -15c5,92 10,185 14,278 -4,1 -9,2 -13,3 -6,1 -12,1 -18,2 -9,0 -21,0 -30,-4 -8,-4 -11,-13 -12,-22 -6,-84 -13,-168 -20,-252 -15,1 -31,3 -46,4 -6,1 -15,0 -20,-4 -4,-4 -6,-11 -7,-17 0,-4 0,-8 1,-12 0,-4 1,-8 2,-12 22,-2 44,-4 66,-6 -1,-15 -3,-30 -4,-45 -2,-32 7,-60 32,-81 28,-23 67,-31 102,-32 21,-1 42,0 61,5 16,4 32,10 45,18 3,2 6,5 8,6 6,3 16,15 19,21 6,10 10,20 9,32 0,11 -2,23 -11,31 -4,3 -12,7 -17,8 -5,0 -9,2 -15,2 -7,0 -15,-1 -22,-3 -5,-1 -11,-3 -16,-5 0,-4 0,-7 1,-10 0,-4 0,-7 0,-11 0,-13 -6,-24 -17,-31 -12,-9 -28,-11 -43,-11 -15,1 -30,4 -41,14 -12,11 -15,26 -14,41 1,15 2,31 2,46 17,-1 34,-2 51,-3 7,0 15,1 20,6 4,4 6,11 6,18 0,4 -1,8 -1,12 -1,3 -2,7 -3,11 -23,1 -46,2 -69,3zm420 7c-8,92 -16,184 -24,277 -4,0 -9,1 -14,1 -6,0 -12,0 -17,0 -10,-1 -21,-3 -29,-8 -8,-6 -10,-15 -9,-24 2,-33 4,-66 5,-99 -44,-2 -88,-4 -133,-5 -3,23 -11,49 -26,67 -2,2 -9,9 -12,11 -14,6 -17,10 -34,10 -12,0 -23,-2 -33,-10 -8,-6 -14,-14 -16,-24 15,-11 26,-26 35,-43 11,-23 13,-52 13,-77 0,-14 -2,-29 -4,-43 -2,-15 -5,-30 -11,-44 -19,0 -38,1 -57,1 -16,1 -25,-7 -25,-23 0,-4 0,-8 1,-11 0,-4 1,-8 3,-12 43,-2 85,-3 128,-3 107,1 207,6 313,16 7,1 14,3 18,9 4,5 5,11 4,18 -1,4 -2,8 -3,12 -1,3 -2,7 -4,10 -23,-2 -46,-5 -69,-6zm-216 91c44,1 88,3 131,5 3,-34 5,-68 7,-102 -51,-3 -101,-5 -151,-5 5,16 8,32 10,49 2,15 3,31 3,46 0,2 0,5 0,7zm8 131c0,-10 4,-18 12,-24 9,-7 19,-10 30,-9 10,0 21,3 29,10 7,7 10,15 9,25 0,10 -4,18 -12,25 -8,6 -18,9 -28,8 -11,0 -21,-3 -29,-10 -7,-7 -11,-15 -11,-25zm453 -192c11,23 31,39 51,52 27,16 57,26 87,33 5,1 10,2 15,3 1,3 2,6 2,9 0,4 0,7 -1,11 -2,8 -6,14 -14,18 -9,5 -22,3 -32,1 -5,-1 -10,-2 -15,-4 -6,-1 -11,-3 -17,-5 -16,21 -32,42 -47,63 -11,-9 -22,-15 -34,-21 -12,-6 -26,-10 -39,-12 -15,-3 -30,-2 -45,2 -12,3 -23,9 -30,19 8,18 23,32 40,42 20,13 44,20 67,25 21,3 44,6 65,3 15,-2 30,-6 44,-12 6,4 11,9 15,15 3,6 5,12 3,19 -3,12 -12,19 -23,23 -15,6 -31,8 -47,9 -23,1 -47,-2 -70,-6 -22,-4 -45,-10 -66,-19 -18,-8 -36,-17 -51,-29 -14,-11 -26,-24 -36,-38 -9,-13 -16,-27 -20,-43 7,-12 16,-22 26,-30 11,-9 23,-16 36,-21 13,-6 27,-9 42,-11 15,-1 31,-1 46,2 9,1 18,3 27,6 7,3 14,6 21,9 5,-6 10,-13 15,-20 -23,-12 -44,-27 -62,-45 -18,-17 -30,-37 -39,-61 -35,-5 -70,-9 -105,-12 -16,-2 -23,-11 -22,-27 1,-4 1,-8 3,-11 1,-4 2,-8 4,-11 137,13 273,35 407,67 16,3 22,13 18,29 -1,4 -2,7 -4,11 -2,4 -4,7 -6,10 -69,-17 -139,-31 -209,-43zm213 334c-9,-2 -20,-6 -27,-13 -7,-7 -7,-16 -4,-25 20,-81 41,-163 62,-245 -16,-3 -31,-7 -46,-11 -6,-1 -14,-4 -17,-10 -3,-5 -3,-12 -1,-18 1,-4 2,-8 4,-12 2,-3 4,-7 6,-10 22,5 44,10 66,16 4,-15 8,-30 12,-45 4,-15 3,-30 -7,-42 -10,-12 -25,-19 -40,-23 -14,-3 -31,-4 -44,3 -10,6 -17,15 -20,27 -1,4 -1,8 -2,11 0,4 -1,7 -1,10 -5,2 -12,2 -17,2 -8,1 -15,0 -22,-2 -11,-2 -22,-6 -30,-15 -7,-10 -7,-22 -5,-33 2,-11 7,-21 15,-30 8,-9 19,-16 31,-21 15,-6 31,-8 47,-9 20,-1 41,2 60,7 35,8 71,23 95,51 22,24 26,52 17,83 -4,16 -8,31 -13,46 16,5 32,9 48,14 6,2 14,5 17,11 2,6 1,13 0,19 -2,4 -3,8 -5,11 -2,4 -4,7 -6,10 -22,-7 -44,-13 -66,-19 -26,89 -51,178 -76,268 -4,-1 -9,-1 -14,-2 -6,-1 -11,-2 -17,-4z"/>
  </g>
  <path class="fil19" d="M6358 8450c123,-52 244,-109 361,-173l1 0c115,-62 226,-130 335,-203l4 -3 3 -2 2 -2 1 0c50,-34 99,-69 148,-105 16,-12 29,-4 39,10 3,4 6,8 8,13 2,4 4,9 6,14 -18,13 -36,27 -55,40 42,58 84,115 126,173 -4,4 -8,8 -12,12 -5,5 -10,10 -16,14 -9,7 -21,14 -33,14 -12,1 -22,-9 -28,-18 -34,-49 -69,-98 -103,-148 -10,7 -20,14 -30,21l-5 4 -3 1 0 1 -2 1 0 0c-11,7 -22,15 -33,22 13,22 23,45 28,69 5,22 7,45 2,67 17,1 34,5 49,12 19,9 33,23 45,40 12,19 21,40 22,62 1,22 -3,43 -12,62 -10,22 -25,41 -43,58 -20,20 -42,37 -66,51 -25,15 -52,28 -79,36 -18,5 -39,10 -58,9 -10,0 -23,-2 -32,-7 -7,-4 -13,-10 -17,-17 -5,-9 -7,-18 -4,-28 2,-8 7,-16 13,-22 8,1 16,2 24,3 10,1 21,0 32,-1 13,-2 26,-5 39,-9 15,-5 30,-13 44,-21 16,-10 32,-21 44,-34 9,-10 18,-22 22,-35 4,-11 5,-22 3,-33 -2,-11 -5,-21 -11,-30 -6,-9 -14,-18 -23,-23 -8,-6 -17,-9 -27,-9 -10,13 -22,25 -34,36 -14,12 -29,22 -45,32 -21,12 -53,29 -78,30 -18,0 -32,-7 -41,-22 -4,-7 -6,-14 -7,-21 0,-6 0,-13 2,-19 54,-29 108,-60 162,-91 3,-16 1,-32 -4,-47 -6,-17 -13,-34 -23,-51 -76,49 -154,95 -233,138l0 0 -1 1 -12 6 -1 1c-16,8 -32,17 -48,25 39,74 77,147 116,221 16,30 20,62 7,95 -15,38 -55,64 -91,82 -24,11 -49,19 -75,22 -23,3 -47,2 -70,-4 -23,-6 -43,-16 -60,-30 -19,-16 -33,-36 -42,-58 -14,-32 -17,-64 -3,-96 15,-34 45,-55 78,-70 35,-17 70,-34 105,-51 -12,-25 -24,-49 -37,-74 -76,38 -153,74 -231,107 -5,2 -9,4 -14,6 -12,5 -25,11 -37,16 11,29 19,60 24,92 4,29 5,59 1,89 19,15 36,32 50,52 13,17 25,36 33,57 6,13 13,34 6,49 -6,12 -18,20 -30,25 -8,3 -15,5 -22,6 -7,1 -14,2 -20,1 -2,-7 -4,-14 -7,-21 -2,-7 -5,-14 -8,-21 -4,-10 -8,-20 -12,-30 -5,-11 -11,-22 -17,-32 -10,20 -25,39 -42,54 -21,19 -46,33 -73,42 -20,7 -42,12 -63,12 -19,1 -37,-1 -55,-8 -15,-5 -29,-14 -41,-26 -11,-13 -19,-28 -24,-44 -5,-17 -7,-34 -5,-51 3,-16 8,-31 17,-45 10,-15 23,-27 37,-37 16,-12 34,-21 53,-27 26,-9 52,-13 79,-12 24,2 48,7 70,18 -1,-19 -5,-38 -10,-56 -5,-19 -11,-38 -19,-56 -96,37 -186,68 -286,98 -62,19 -124,36 -187,52 6,22 11,45 17,67 21,-1 41,1 62,6 19,5 38,12 56,22 17,10 32,23 44,39 14,16 24,36 30,56 5,18 8,37 6,56 -2,16 -6,32 -13,47 -7,13 -15,24 -27,33 -10,9 -21,15 -34,18 -12,4 -26,4 -37,-3 -10,-7 -16,-16 -19,-28 -1,-1 -1,-3 -1,-4 6,-4 12,-9 17,-14 6,-6 11,-13 16,-21 4,-9 7,-18 9,-28 1,-12 -1,-25 -4,-37 -3,-13 -10,-25 -19,-36 -9,-10 -20,-18 -32,-25 -12,-6 -25,-10 -38,-13 -11,-1 -31,-3 -41,0 -10,2 -28,13 -36,19 -11,8 -20,18 -28,30 -8,11 -13,23 -16,36 -3,13 -3,27 0,40 2,12 6,24 13,34 6,8 13,15 21,21 8,5 15,9 24,12 7,2 14,3 22,4 0,1 0,3 1,5 2,11 2,22 -3,32 -5,12 -19,18 -31,21 -13,3 -26,2 -39,0 -14,-3 -28,-9 -40,-17 -13,-9 -24,-22 -33,-35 -11,-16 -17,-35 -21,-55 -4,-20 -5,-42 0,-63 4,-19 11,-37 22,-54 10,-17 23,-32 39,-45 15,-14 32,-25 51,-34 -5,-22 -11,-45 -16,-67 -51,12 -103,23 -154,33l0 0c-22,4 -44,8 -66,12 12,70 24,141 37,211 -6,2 -11,4 -16,6 -7,2 -13,4 -20,5 -12,2 -26,3 -37,-2 -11,-5 -15,-17 -17,-28 -9,-60 -18,-119 -27,-178 -34,5 -66,9 -100,14 6,44 12,89 17,133 2,11 2,25 -5,33 -7,9 -21,12 -32,14 -66,8 -133,14 -199,19 2,20 7,41 17,58 9,15 20,27 34,36 13,9 28,15 44,17 17,3 34,4 51,2 13,-2 26,-4 38,-8 9,-3 19,-7 27,-12 8,-5 14,-10 20,-16 5,-5 10,-10 15,-15 9,1 17,6 24,12 7,6 12,14 13,23 2,18 -8,32 -21,44 -13,11 -28,19 -43,25 -21,8 -45,12 -67,14 -27,3 -54,3 -81,-2 -25,-4 -49,-12 -70,-26 -22,-13 -40,-32 -54,-53 -17,-26 -25,-56 -30,-86 -14,-1 -27,-6 -37,-16 -12,-10 -17,-23 -18,-38 0,-20 5,-37 20,-50 15,-14 33,-20 53,-21 9,-1 18,0 27,2 6,2 13,4 19,8 2,13 4,25 6,37 55,-4 110,-9 164,-15 -4,-36 -8,-73 -12,-110 -99,11 -183,18 -283,22 -24,1 -48,2 -72,2 3,121 6,241 9,361 -6,2 -12,3 -17,4 -8,1 -15,1 -23,1 -12,1 -26,-1 -37,-7 -10,-6 -13,-19 -13,-30 0,-109 -1,-218 -1,-328 -2,0 -16,0 -16,0 -4,2 -79,0 -88,-1 -2,85 -4,170 -6,254 -1,33 -11,63 -37,84 -28,24 -70,28 -106,26 -25,-1 -49,-6 -71,-16 -20,-9 -39,-22 -54,-38 -14,-16 -25,-35 -31,-55 -7,-22 -9,-45 -7,-68 3,-34 15,-67 42,-89 27,-22 62,-28 96,-26 30,2 59,4 89,5 1,-26 2,-53 3,-79 -75,-3 -149,-8 -224,-15l0 0c-24,-3 -48,-5 -71,-8 -14,120 -27,239 -41,359 -6,1 -12,1 -18,1 -7,0 -14,0 -22,-1 -12,-2 -25,-5 -35,-13 -9,-7 -10,-20 -9,-31 8,-58 16,-116 23,-174 -31,-4 -61,-8 -92,-13 -8,50 -16,99 -23,149 -10,3 -22,3 -32,4 -15,0 -30,-2 -44,-4 -47,-8 -92,-26 -128,-56 -33,-28 -54,-62 -62,-105 18,-15 32,-33 44,-52 13,-22 22,-45 27,-70 2,-10 4,-20 5,-30 1,-10 1,-20 1,-31 -20,-4 -39,-8 -59,-13 -19,-4 -21,-19 -17,-36 1,-5 3,-10 5,-14 2,-5 4,-10 7,-14 133,32 268,56 403,74 1,-3 2,-7 2,-11 4,-32 -12,-49 -43,-53 -10,-2 -20,-3 -30,-4 -10,-1 -21,-2 -31,-4 -26,-4 -54,-13 -71,-35 -14,-18 -18,-39 -14,-62 3,-13 8,-29 21,-37 10,-6 20,-8 31,-6 6,1 10,3 15,5 4,3 8,6 11,9 -1,3 -2,7 -3,10 -1,3 -2,6 -3,10 -5,29 13,42 40,46 11,1 22,2 33,2 11,0 22,1 33,2 25,4 49,13 67,32 17,18 22,41 19,66 -1,9 -3,18 -6,26 -1,4 -3,8 -5,12 15,2 29,4 44,5l0 0c143,15 278,22 422,22 6,2 114,-1 131,-2 148,-5 295,-18 440,-38l2 0c53,-8 107,-17 160,-27 145,-26 279,-58 420,-100 142,-42 281,-92 417,-149zm-3591 -152c-7,-4 -35,-20 -42,-24l-32 -19c-17,27 -36,52 -59,75 -21,21 -44,40 -70,55 -1,24 -4,48 -11,71 -6,21 -14,42 -25,61 -8,12 -21,31 -36,34 -14,3 -27,-2 -39,-9 -6,-4 -13,-9 -18,-14 -5,-4 -10,-10 -13,-15 5,-6 9,-12 13,-18 4,-7 8,-13 12,-20 6,-9 11,-18 16,-27 6,-11 11,-22 16,-34 -23,5 -47,4 -70,0 -27,-6 -53,-18 -77,-33 -18,-12 -35,-27 -49,-44 -12,-14 -21,-30 -27,-48 -5,-16 -6,-33 -4,-49 3,-17 10,-33 20,-46 10,-14 23,-26 38,-35 15,-7 30,-12 47,-13 17,-1 35,2 52,7 19,6 37,15 54,26 23,16 42,34 57,57 14,20 24,42 29,66 14,-12 27,-26 38,-41 13,-16 24,-32 34,-49 -89,-55 -176,-114 -261,-176 -15,-11 -12,-26 -1,-40 3,-4 6,-7 10,-11 3,-3 7,-7 11,-10 122,90 248,172 379,248l1 0c49,29 98,56 149,82 121,63 245,120 372,171l0 0 2 1 0 0 8 3 1 1 1 0 0 0c17,7 34,13 51,20 7,-19 15,-38 22,-57 6,-16 10,-36 3,-53 -7,-15 -19,-24 -33,-30 -15,-6 -30,-8 -43,0 -13,7 -22,18 -28,32 -2,4 -3,9 -5,13 -1,4 -3,8 -4,12 -6,2 -12,2 -18,1 -7,-1 -14,-3 -21,-5 -11,-5 -20,-13 -24,-25 -4,-13 0,-28 6,-41 5,-13 14,-25 24,-34 11,-10 24,-17 37,-22 15,-5 31,-7 47,-7 18,1 37,6 54,13 33,13 62,34 78,66 16,34 12,71 0,106 -7,19 -14,39 -21,58 16,6 31,11 47,16 7,3 14,7 16,14 2,8 0,17 -2,24 -2,5 -4,10 -6,15 -2,4 -5,9 -8,12 -23,-7 -45,-15 -68,-23 -40,113 -81,226 -121,340 -6,-1 -12,-2 -18,-3 -7,-2 -14,-4 -21,-7 -11,-4 -24,-10 -31,-20 -8,-9 -5,-22 -1,-32 38,-102 77,-204 116,-306l-33 -13 -1 -1 -1 0 -2 -1 -1 0 -1 -1 -1 0 -2 -1 -2 0 -1 -1 0 0c-18,-7 -36,-14 -54,-22 -46,112 -92,223 -137,334 -6,-1 -12,-2 -18,-4 -7,-2 -14,-4 -20,-7 -11,-4 -24,-11 -31,-21 -7,-10 -4,-22 0,-33 17,-39 34,-78 51,-117 -43,-19 -87,-39 -130,-60 -16,24 -38,52 -64,65 -21,10 -42,11 -62,1 -14,-7 -24,-16 -29,-30 -5,-12 -6,-25 -2,-37 23,-4 43,-16 61,-30 26,-21 45,-53 59,-82 9,-17 16,-35 23,-52 6,-18 12,-37 15,-56 -13,-7 -27,-14 -40,-21l-1 0 0 0 -2 -1 -1 -1 -4 -1 -1 -1c-17,-9 -34,-18 -51,-27 -34,63 -67,126 -101,188 -5,-1 -11,-3 -16,-5 -7,-2 -13,-5 -19,-8 -10,-6 -22,-14 -27,-24 -6,-11 -2,-23 4,-33 29,-52 59,-105 88,-157zm3939 392c15,-7 33,-19 40,-35 6,-15 3,-30 -4,-44 -14,-29 -29,-58 -43,-87 -32,16 -65,32 -97,47 -16,7 -30,18 -35,35 -5,15 -3,29 3,43 6,13 14,24 25,33 10,9 22,14 34,18 13,3 26,3 39,2 13,-2 26,-6 38,-12zm-487 125c20,-8 38,-19 52,-35 12,-14 22,-30 26,-48 -7,-6 -16,-10 -25,-13 -9,-4 -19,-6 -29,-8 -10,-1 -20,-1 -30,0 -10,1 -20,2 -29,6 -18,6 -36,15 -46,31 -8,13 -10,27 -6,42 5,15 15,24 30,29 18,6 40,2 57,-4zm-3841 -487c18,12 38,19 59,21 19,1 38,-1 55,-8 0,-9 -2,-19 -5,-28 -3,-9 -7,-19 -12,-28 -5,-8 -11,-17 -18,-24 -7,-8 -14,-15 -23,-20 -15,-10 -34,-19 -53,-18 -15,1 -27,8 -36,21 -9,13 -11,26 -6,41 7,18 23,33 39,43zm474 -108c-12,-7 -21,-17 -24,-31 -4,-14 -2,-27 5,-39 8,-13 18,-21 32,-25 13,-3 25,-1 37,5 11,6 19,16 23,28 4,14 2,27 -5,39 -7,13 -16,22 -30,27 -13,4 -25,3 -38,-4zm117 332c41,20 83,39 125,57 17,-41 35,-82 53,-122 -45,-20 -90,-40 -134,-61 -5,21 -11,41 -18,62 -6,19 -13,37 -21,55 -2,3 -3,6 -5,9zm1087 340c2,-9 5,-22 14,-27 8,-6 21,-5 30,-4 43,8 86,14 130,20 4,-30 8,-60 12,-90 -83,-11 -165,-24 -246,-40 0,11 0,21 0,32 -1,10 -2,20 -3,29 -5,26 -13,53 -26,76 -9,17 -20,34 -33,48 6,18 19,33 34,44 19,15 43,24 68,28 7,-39 13,-77 20,-116zm498 230c33,2 52,-12 54,-45 1,-36 3,-72 4,-108 -25,-1 -50,-2 -74,-4 -16,0 -31,3 -43,13 -13,12 -18,28 -19,45 -1,13 0,26 4,39 4,11 9,22 17,31 7,9 16,16 26,21 10,5 20,7 31,8z"/>
  <path class="fil23" d="M6358 8424c123,-51 244,-109 361,-173l1 0c115,-62 226,-130 335,-203l4 -2 3 -2 2 -2 1 0c50,-35 99,-70 148,-106 16,-12 29,-3 39,10 3,4 6,9 8,13 2,5 4,9 6,14 -18,14 -36,27 -55,41 42,57 84,115 126,172 -4,5 -8,9 -12,13 -5,5 -10,9 -16,13 -9,7 -21,14 -33,15 -12,0 -22,-9 -28,-18 -34,-50 -69,-99 -103,-148 -10,7 -20,14 -30,21l-5 3 -3 2 0 0 -2 1 0 0c-11,8 -22,15 -33,23 13,21 23,44 28,69 5,22 7,45 2,67 17,0 34,5 49,12 19,8 33,22 45,39 12,19 21,40 22,63 1,21 -3,42 -12,61 -10,22 -25,42 -43,59 -20,19 -42,36 -66,51 -25,14 -52,28 -79,36 -18,5 -39,9 -58,9 -10,-1 -23,-2 -32,-8 -7,-4 -13,-9 -17,-17 -5,-8 -7,-18 -4,-27 2,-9 7,-17 13,-23 8,2 16,3 24,3 10,1 21,0 32,-1 13,-1 26,-5 39,-9 15,-5 30,-13 44,-21 16,-9 32,-21 44,-34 9,-10 18,-22 22,-35 4,-10 5,-22 3,-33 -2,-11 -5,-21 -11,-30 -6,-9 -14,-17 -23,-23 -8,-5 -17,-9 -27,-9 -10,13 -22,25 -34,36 -14,12 -29,23 -45,32 -21,13 -53,30 -78,30 -18,1 -32,-6 -41,-22 -4,-7 -6,-14 -7,-21 0,-6 0,-13 2,-18 54,-30 108,-60 162,-92 3,-15 1,-31 -4,-46 -6,-18 -13,-35 -23,-51 -76,48 -154,94 -233,138l0 0 -1 0 -12 7 -1 0c-16,9 -32,17 -48,26 39,73 77,147 116,220 16,31 20,62 7,95 -15,38 -55,65 -91,82 -24,11 -49,19 -75,23 -23,3 -47,2 -70,-4 -23,-6 -43,-17 -60,-31 -19,-15 -33,-36 -42,-58 -14,-31 -17,-64 -3,-96 15,-33 45,-55 78,-70 35,-17 70,-34 105,-51 -12,-24 -24,-49 -37,-73 -76,38 -153,73 -231,107 -5,2 -9,4 -14,6 -12,5 -25,10 -37,15 11,30 19,60 24,92 4,30 5,60 1,89 19,15 36,32 50,52 13,18 25,37 33,57 6,13 13,35 6,49 -6,13 -18,20 -30,25 -8,3 -15,5 -22,7 -7,1 -14,1 -20,0 -2,-7 -4,-14 -7,-21 -2,-7 -5,-14 -8,-21 -4,-10 -8,-20 -12,-29 -5,-12 -11,-23 -17,-33 -10,21 -25,39 -42,54 -21,19 -46,33 -73,42 -20,7 -42,12 -63,13 -19,0 -37,-2 -55,-8 -15,-6 -29,-15 -41,-27 -11,-13 -19,-28 -24,-44 -5,-16 -7,-33 -5,-51 3,-16 8,-31 17,-45 10,-14 23,-27 37,-37 16,-12 34,-20 53,-27 26,-9 52,-13 79,-11 24,1 48,7 70,17 -1,-19 -5,-37 -10,-55 -5,-20 -11,-39 -19,-57 -96,37 -186,68 -286,98 -62,19 -124,37 -187,53 6,22 11,44 17,66 21,0 41,2 62,6 19,5 38,12 56,22 17,11 32,24 44,39 14,17 24,36 30,56 5,19 8,38 6,57 -2,16 -6,31 -13,46 -7,13 -15,24 -27,34 -10,8 -21,14 -34,18 -12,3 -26,4 -37,-4 -10,-6 -16,-16 -19,-27 -1,-2 -1,-4 -1,-5 6,-4 12,-9 17,-14 6,-6 11,-13 16,-21 4,-8 7,-18 9,-28 1,-12 -1,-25 -4,-36 -3,-14 -10,-26 -19,-37 -9,-10 -20,-18 -32,-24 -12,-7 -25,-11 -38,-13 -11,-2 -31,-4 -41,-1 -10,2 -28,13 -36,19 -11,9 -20,18 -28,30 -8,11 -13,23 -16,36 -3,14 -3,27 0,41 2,12 6,23 13,33 6,8 13,16 21,22 8,5 15,9 24,11 7,2 14,4 22,4 0,2 0,3 1,5 2,11 2,22 -3,32 -5,13 -19,18 -31,21 -13,3 -26,2 -39,0 -14,-3 -28,-9 -40,-17 -13,-9 -24,-21 -33,-35 -11,-16 -17,-35 -21,-54 -4,-21 -5,-42 0,-63 4,-20 11,-38 22,-55 10,-17 23,-32 39,-45 15,-13 32,-25 51,-34 -5,-22 -11,-44 -16,-66 -51,11 -103,22 -154,32l0 0c-22,5 -44,9 -66,13 12,70 24,140 37,210 -6,2 -11,4 -16,6 -7,2 -13,4 -20,5 -12,2 -26,3 -37,-2 -11,-4 -15,-17 -17,-28 -9,-59 -18,-119 -27,-178 -34,5 -66,10 -100,14 6,45 12,89 17,134 2,10 2,24 -5,33 -7,9 -21,12 -32,13 -66,8 -133,14 -199,19 2,20 7,41 17,59 9,14 20,26 34,36 13,8 28,14 44,17 17,2 34,3 51,1 13,-1 26,-3 38,-8 9,-3 19,-7 27,-12 8,-5 14,-10 20,-16 5,-5 10,-10 15,-15 9,2 17,6 24,12 7,6 12,14 13,23 2,18 -8,33 -21,44 -13,11 -28,19 -43,25 -21,8 -45,12 -67,15 -27,2 -54,2 -81,-2 -25,-4 -49,-13 -70,-26 -22,-14 -40,-32 -54,-54 -17,-25 -25,-56 -30,-86 -14,-1 -27,-6 -37,-15 -12,-10 -17,-24 -18,-39 0,-20 5,-36 20,-50 15,-14 33,-20 53,-21 9,0 18,0 27,2 6,2 13,5 19,9 2,12 4,24 6,36 55,-3 110,-8 164,-15 -4,-36 -8,-73 -12,-109 -99,11 -183,18 -283,21 -24,1 -48,2 -72,3 3,120 6,240 9,361 -6,1 -12,2 -17,3 -8,1 -15,2 -23,2 -12,0 -26,-1 -37,-8 -10,-6 -13,-18 -13,-30 0,-109 -1,-218 -1,-327 -2,0 -16,0 -16,0 -4,1 -79,-1 -88,-1 -2,84 -4,169 -6,253 -1,33 -11,63 -37,84 -28,24 -70,28 -106,27 -25,-2 -49,-7 -71,-17 -20,-9 -39,-21 -54,-38 -14,-16 -25,-34 -31,-55 -7,-22 -9,-45 -7,-68 3,-34 15,-66 42,-89 27,-22 62,-27 96,-25 30,2 59,3 89,4 1,-26 2,-52 3,-79 -75,-3 -149,-8 -224,-15l0 0c-24,-2 -48,-5 -71,-8 -14,120 -27,240 -41,359 -6,1 -12,1 -18,1 -7,0 -14,0 -22,-1 -12,-1 -25,-5 -35,-12 -9,-8 -10,-20 -9,-32 8,-58 16,-116 23,-173 -31,-5 -61,-9 -92,-14 -8,50 -16,100 -23,149 -10,3 -22,4 -32,4 -15,0 -30,-1 -44,-4 -47,-8 -92,-25 -128,-56 -33,-28 -54,-62 -62,-104 18,-15 32,-33 44,-53 13,-22 22,-45 27,-70 2,-9 4,-19 5,-29 1,-11 1,-21 1,-31 -20,-5 -39,-9 -59,-13 -19,-5 -21,-20 -17,-37 1,-5 3,-9 5,-14 2,-5 4,-10 7,-14 133,32 268,57 403,75 1,-4 2,-8 2,-12 4,-32 -12,-49 -43,-53 -10,-2 -20,-3 -30,-3 -10,-1 -21,-3 -31,-4 -26,-4 -54,-14 -71,-35 -14,-19 -18,-40 -14,-62 3,-14 8,-30 21,-38 10,-5 20,-8 31,-6 6,1 10,3 15,6 4,2 8,5 11,9 -1,2 -2,6 -3,9 -1,3 -2,7 -3,10 -5,29 13,42 40,46 11,2 22,2 33,3 11,0 22,0 33,2 25,3 49,12 67,31 17,18 22,41 19,66 -1,9 -3,18 -6,27 -1,4 -3,8 -5,12 15,1 29,3 44,4l0 0c143,15 278,22 422,22 6,3 114,-1 131,-2 148,-4 295,-17 440,-38l2 0c53,-8 107,-17 160,-26 145,-27 279,-59 420,-101 142,-42 281,-92 417,-149zm-3591 -152c-7,-4 -35,-20 -42,-24l-32 -18c-17,27 -36,51 -59,74 -21,21 -44,40 -70,55 -1,24 -4,48 -11,71 -6,21 -14,42 -25,61 -8,13 -21,31 -36,34 -14,3 -27,-2 -39,-9 -6,-4 -13,-9 -18,-14 -5,-4 -10,-9 -13,-15 5,-6 9,-12 13,-18 4,-6 8,-13 12,-19 6,-9 11,-19 16,-28 6,-11 11,-22 16,-33 -23,5 -47,3 -70,-1 -27,-5 -53,-17 -77,-33 -18,-12 -35,-27 -49,-44 -12,-14 -21,-30 -27,-48 -5,-16 -6,-32 -4,-49 3,-17 10,-32 20,-46 10,-14 23,-26 38,-34 15,-8 30,-13 47,-14 17,-1 35,2 52,7 19,6 37,16 54,27 23,15 42,33 57,56 14,21 24,43 29,67 14,-13 27,-27 38,-42 13,-16 24,-32 34,-49 -89,-55 -176,-113 -261,-175 -15,-12 -12,-27 -1,-40 3,-4 6,-8 10,-12 3,-3 7,-7 11,-10 122,90 248,173 379,248l1 1c49,28 98,55 149,81 121,64 245,121 372,171l0 0 2 1 0 0 8 4 1 0 1 0 0 0c17,7 34,14 51,20 7,-19 15,-38 22,-56 6,-17 10,-37 3,-54 -7,-14 -19,-24 -33,-30 -15,-6 -30,-7 -43,0 -13,7 -22,19 -28,32 -2,5 -3,9 -5,13 -1,4 -3,9 -4,13 -6,1 -12,1 -18,0 -7,0 -14,-2 -21,-5 -11,-5 -20,-12 -24,-24 -4,-14 0,-29 6,-41 5,-14 14,-25 24,-35 11,-10 24,-17 37,-22 15,-5 31,-7 47,-6 18,0 37,5 54,12 33,13 62,34 78,67 16,33 12,71 0,105 -7,20 -14,39 -21,58 16,6 31,11 47,17 7,2 14,6 16,14 2,7 0,16 -2,24 -2,4 -4,9 -6,14 -2,4 -5,9 -8,13 -23,-8 -45,-16 -68,-24 -40,113 -81,227 -121,340 -6,-1 -12,-2 -18,-3 -7,-2 -14,-4 -21,-6 -11,-4 -24,-11 -31,-20 -8,-10 -5,-22 -1,-33 38,-102 77,-204 116,-306l-33 -13 -1 0 -1 -1 -2 0 -1 -1 -1 0 -1 -1 -2 0 -2 -1 -1 0 0 -1c-18,-7 -36,-14 -54,-21 -46,111 -92,222 -137,334 -6,-1 -12,-3 -18,-4 -7,-2 -14,-5 -20,-7 -11,-5 -24,-12 -31,-22 -7,-10 -4,-22 0,-32 17,-40 34,-79 51,-118 -43,-19 -87,-39 -130,-59 -16,24 -38,52 -64,64 -21,10 -42,11 -62,1 -14,-7 -24,-16 -29,-30 -5,-12 -6,-24 -2,-37 23,-4 43,-15 61,-30 26,-20 45,-53 59,-82 9,-17 16,-34 23,-52 6,-18 12,-37 15,-56 -13,-6 -27,-13 -40,-20l-1 -1 0 0 -2 -1 -1 0 -4 -2 -1 -1c-17,-9 -34,-18 -51,-27 -34,63 -67,126 -101,189 -5,-2 -11,-4 -16,-5 -7,-3 -13,-5 -19,-9 -10,-5 -22,-13 -27,-24 -6,-10 -2,-23 4,-33 29,-52 59,-104 88,-157zm3939 393c15,-8 33,-19 40,-36 6,-15 3,-30 -4,-44 -14,-29 -29,-58 -43,-87 -32,16 -65,32 -97,47 -16,7 -30,18 -35,35 -5,15 -3,29 3,43 6,13 14,25 25,34 10,8 22,14 34,17 13,3 26,4 39,2 13,-2 26,-6 38,-11zm-487 124c20,-7 38,-19 52,-35 12,-14 22,-30 26,-48 -7,-6 -16,-10 -25,-13 -9,-4 -19,-6 -29,-7 -10,-2 -20,-2 -30,-1 -10,1 -20,3 -29,6 -18,6 -36,16 -46,31 -8,13 -10,27 -6,42 5,15 15,24 30,29 18,6 40,2 57,-4zm-3841 -486c18,12 38,19 59,20 19,1 38,0 55,-8 0,-9 -2,-18 -5,-28 -3,-9 -7,-18 -12,-27 -5,-9 -11,-17 -18,-25 -7,-8 -14,-14 -23,-20 -15,-10 -34,-19 -53,-18 -15,2 -27,8 -36,21 -9,13 -11,27 -6,41 7,19 23,33 39,44zm474 -109c-12,-7 -21,-17 -24,-31 -4,-14 -2,-27 5,-39 8,-13 18,-21 32,-24 13,-3 25,-2 37,4 11,7 19,16 23,29 4,13 2,26 -5,39 -7,12 -16,21 -30,26 -13,4 -25,3 -38,-4zm117 333c41,19 83,38 125,56 17,-41 35,-81 53,-122 -45,-20 -90,-40 -134,-61 -5,21 -11,42 -18,62 -6,19 -13,38 -21,56 -2,3 -3,6 -5,9zm1087 340c2,-10 5,-22 14,-28 8,-6 21,-5 30,-3 43,7 86,13 130,19 4,-30 8,-60 12,-90 -83,-11 -165,-24 -246,-40 0,11 0,22 0,33 -1,9 -2,19 -3,29 -5,26 -13,52 -26,76 -9,16 -20,33 -33,47 6,18 19,33 34,44 19,16 43,24 68,28 7,-38 13,-77 20,-115zm498 229c33,2 52,-11 54,-45 1,-36 3,-72 4,-108 -25,-1 -50,-2 -74,-3 -16,-1 -31,2 -43,13 -13,11 -18,28 -19,44 -1,13 0,27 4,39 4,12 9,22 17,31 7,9 16,16 26,21 10,5 20,8 31,8z"/>
  <path class="fil18" d="M6358 8424c123,-51 244,-109 361,-173l1 0c115,-62 226,-130 335,-203l4 -2 3 -2 2 -2 1 0c50,-35 99,-70 148,-106 16,-12 29,-3 39,10 3,4 6,9 8,13 2,5 4,9 6,14l-9 7c-2,-3 -3,-6 -5,-8 -10,-14 -23,-22 -39,-10 -49,36 -98,71 -148,105l-1 0 -2 2 -3 2 -4 3c-109,73 -220,141 -335,203l-1 0c-117,64 -238,121 -361,173 -136,57 -275,107 -417,149 -141,42 -275,74 -420,100 -53,10 -107,19 -160,27l-2 0c-145,20 -292,33 -440,38 -17,1 -125,4 -131,2 -144,0 -279,-7 -422,-22l0 0c-15,-1 -29,-3 -44,-5 2,-4 4,-8 5,-12 2,-4 3,-8 4,-12l35 3 0 0c143,15 278,22 422,22 6,3 114,-1 131,-2 148,-4 295,-17 440,-38l2 0c53,-8 107,-17 160,-26 145,-27 279,-59 420,-101 142,-42 281,-92 417,-149zm865 -394l114 156c-3,4 -7,8 -11,12l-115 -159 12 -9zm-141 99c8,16 14,33 18,51 4,17 6,34 4,52 0,-9 -2,-18 -4,-27 -5,-24 -15,-47 -28,-69l10 -7zm23 118c16,0 32,5 46,12 19,8 33,22 45,39 12,19 21,40 22,63 0,6 0,13 0,19 -3,-20 -11,-39 -22,-56 -12,-17 -26,-31 -45,-40 -15,-7 -32,-11 -49,-12 2,-8 3,-17 3,-25zm-197 299c-2,-7 -3,-14 -1,-21 2,-9 7,-17 13,-23 8,2 16,3 24,3 10,1 21,0 32,-1 13,-1 26,-5 39,-9 15,-5 30,-13 44,-21 16,-9 32,-21 44,-34 9,-10 18,-22 22,-35 1,-3 2,-6 3,-10l0 3c2,11 1,22 -3,33 -4,13 -13,25 -22,35 -12,13 -28,24 -44,34 -14,8 -29,16 -44,21 -13,4 -26,7 -39,9 -11,1 -22,2 -32,1 -8,-1 -16,-2 -24,-3 -6,5 -9,11 -12,18zm-44 -174c-1,-2 -1,-5 -2,-7 0,-6 0,-13 2,-18 54,-30 108,-60 162,-92l0 -3c2,10 2,19 0,29 -54,31 -108,62 -162,91zm-149 -23l105 200c12,22 17,45 14,68 -2,-14 -7,-28 -14,-42 -39,-74 -77,-147 -116,-221l11 -5zm-237 267c-3,-19 0,-37 8,-56 15,-33 45,-55 78,-70 32,-15 63,-30 95,-46l10 21c-35,17 -70,34 -105,51 -33,15 -63,36 -78,70 -4,10 -7,20 -8,30zm-120 -100c7,23 12,46 16,70 3,21 4,42 3,63 0,-12 -2,-25 -3,-37 -5,-32 -13,-63 -24,-92l8 -4zm19 161c18,14 34,31 48,50 13,18 25,37 33,57 5,13 12,33 7,47 -2,-8 -4,-15 -7,-21 -8,-21 -20,-40 -33,-57 -14,-20 -31,-37 -50,-52 1,-8 2,-16 2,-24zm-332 91c-1,-9 -1,-18 0,-28 3,-16 8,-31 17,-45 10,-14 23,-27 37,-37 16,-12 34,-20 53,-27 26,-9 52,-13 79,-11 23,1 45,6 66,15 2,9 3,18 4,28 -22,-11 -46,-16 -70,-18 -27,-1 -53,3 -79,12 -19,6 -37,15 -53,27 -14,10 -27,22 -37,37 -9,14 -14,29 -17,45l0 2zm-240 -68l11 42c21,0 41,2 62,6 19,5 38,12 56,22 17,11 32,24 44,39 14,17 24,36 30,56 5,19 8,38 6,57l0 0c-1,-11 -4,-21 -6,-31 -6,-20 -16,-40 -30,-56 -12,-16 -27,-29 -44,-39 -18,-10 -37,-17 -56,-22 -21,-5 -41,-7 -62,-6 -6,-22 -11,-45 -17,-67l6 -1zm85 304c-3,-5 -5,-10 -6,-15 -1,-2 -1,-4 -1,-5 6,-4 12,-9 17,-14 6,-6 11,-13 16,-21 4,-8 7,-16 8,-25 1,7 2,15 1,23 -2,10 -5,19 -9,28 -5,8 -10,15 -16,21 -3,3 -6,5 -10,8zm-181 -75c1,2 1,5 2,7 2,12 6,23 13,33 6,8 13,16 21,22 8,5 15,9 24,11 7,2 14,4 22,4 0,2 0,3 1,5 2,9 2,17 0,25l-1 -4c-8,-1 -15,-2 -22,-4 -9,-3 -16,-7 -24,-12 -8,-6 -15,-13 -21,-21 -7,-10 -11,-22 -13,-34 -3,-10 -3,-21 -2,-32zm-87 9c-1,-14 0,-29 3,-43 4,-20 11,-38 22,-55 10,-17 23,-32 39,-45 14,-12 29,-22 45,-31l6 23c-19,9 -36,20 -51,34 -16,13 -29,28 -39,45 -11,17 -18,35 -22,54 -1,6 -2,12 -3,18zm-117 -173l33 185 -5 2 -32 -187 4 0zm-181 27l14 109c1,6 2,15 0,22l-17 -130 3 -1zm-218 200c3,11 7,22 13,33 9,14 20,26 34,36 13,8 28,14 44,17 17,2 34,3 51,1 13,-1 26,-3 38,-8 9,-3 19,-7 27,-12 8,-5 14,-10 20,-16 5,-5 10,-10 15,-15 9,2 17,6 24,12 7,6 12,14 13,23 1,7 0,13 -2,18 -2,-6 -6,-11 -11,-15 -7,-6 -15,-11 -24,-12 -5,5 -10,10 -15,15 -6,6 -12,11 -20,16 -8,5 -18,9 -27,12 -12,4 -25,6 -38,8 -17,2 -34,1 -51,-2 -16,-2 -31,-8 -44,-17 -14,-9 -25,-21 -34,-36 -10,-17 -15,-38 -17,-58l4 0zm-141 -58c0,-3 0,-6 -1,-9 0,-20 5,-36 20,-50 15,-14 33,-20 53,-21 9,0 18,0 27,2 6,2 13,5 19,9 2,12 4,24 6,36 54,-3 108,-8 162,-14l2 25c-54,6 -109,11 -164,15 -2,-12 -4,-24 -6,-37 -6,-4 -13,-6 -19,-8 -9,-2 -18,-3 -27,-2 -20,1 -38,7 -53,21 -10,9 -16,21 -19,33zm-78 -108l8 336 -1 0 -8 -336 1 0zm-499 192c-1,-10 -1,-21 0,-31 3,-34 15,-66 42,-89 27,-22 62,-27 96,-25 30,2 59,3 89,4l2 -53 1 0c-1,26 -2,53 -3,79 -30,-1 -59,-3 -89,-5 -34,-2 -69,4 -96,26 -27,22 -39,55 -42,89l0 5zm-189 91c-2,-6 -2,-12 -1,-19l20 -148 3 0 -22 167zm-354 -196c-2,-7 -4,-14 -5,-21 18,-15 32,-33 44,-53 13,-22 22,-45 27,-70 2,-9 4,-19 5,-29l0 -6 1 0c0,11 0,21 -1,31 -1,10 -3,20 -5,30 -5,25 -14,48 -27,70 -11,17 -24,34 -39,48zm-3 -230c-3,-6 -3,-15 -1,-24 1,-5 3,-9 5,-14 2,-5 4,-10 7,-14 133,32 268,57 403,75l2 -8c1,7 1,14 0,22 0,4 -1,8 -2,11 -135,-18 -270,-42 -403,-74 -3,4 -5,9 -7,14 -2,4 -3,8 -4,12zm227 -117c-2,-10 -2,-19 0,-29 3,-14 8,-30 21,-38 10,-5 20,-8 31,-6 6,1 10,3 15,6 4,2 8,5 11,9 -1,2 -2,6 -3,9 -1,3 -2,7 -3,10l0 1c-1,-1 -3,-3 -5,-4 -5,-2 -9,-4 -15,-5 -11,-2 -21,0 -31,6 -13,8 -18,24 -21,37l0 4zm73 -18c5,15 20,22 39,25 11,2 22,2 33,3 11,0 22,0 33,2 25,3 49,12 67,31 17,18 22,41 19,66l0 1c-2,-15 -8,-29 -19,-41 -18,-19 -42,-28 -67,-32 -11,-1 -22,-2 -33,-2 -11,0 -22,-1 -33,-2 -27,-4 -45,-17 -40,-46l1 -5zm-1710 -49c-4,-3 -7,-8 -10,-12 5,-6 9,-12 13,-18 4,-6 8,-13 12,-19 6,-9 11,-19 16,-28l3 -6c4,0 9,-1 13,-2 -5,12 -10,23 -16,34 -5,9 -10,18 -16,27 -4,7 -8,13 -12,20l-3 4zm-180 -255c-1,-10 -1,-20 0,-30 3,-17 10,-32 20,-46 10,-14 23,-26 38,-34 15,-8 30,-13 47,-14 17,-1 35,2 52,7 19,6 37,16 54,27 23,15 42,33 57,56 14,21 24,43 29,67 14,-13 27,-27 38,-42 8,-10 16,-20 23,-30l11 7c-10,17 -21,33 -34,49 -11,15 -24,29 -38,41 -5,-24 -15,-46 -29,-66 -15,-23 -34,-41 -57,-57 -17,-11 -35,-20 -54,-26 -17,-5 -35,-8 -52,-7 -17,1 -32,6 -47,13 -15,9 -28,21 -38,35 -10,13 -17,29 -20,46l0 4zm102 -240c-8,-10 -4,-22 5,-33 3,-4 6,-8 10,-12 3,-3 7,-7 11,-10 122,90 248,173 379,248l1 1c49,28 98,55 149,81 121,64 245,121 372,171l0 0 2 1 0 0 8 4 1 0 1 0 0 0c17,7 34,14 51,20 7,-19 15,-38 22,-56 2,-7 4,-13 5,-20 4,15 0,31 -5,45 -7,19 -15,38 -22,57 -17,-7 -34,-13 -51,-20l0 0 -1 0 -1 -1 -8 -3 0 0 -2 -1 0 0c-127,-51 -251,-108 -372,-171 -51,-26 -100,-53 -149,-82l-1 0c-131,-76 -257,-158 -379,-248 -4,3 -8,7 -11,10 -4,4 -7,7 -10,11 -2,3 -4,6 -5,8zm839 360l0 0c-4,-14 0,-29 6,-41 5,-14 14,-25 24,-35 11,-10 24,-17 37,-22 15,-5 31,-7 47,-6 18,0 37,5 54,12 33,13 62,34 78,67 10,20 12,41 10,62 -1,-13 -4,-25 -10,-37 -16,-32 -45,-53 -78,-66 -17,-7 -36,-12 -54,-13 -16,0 -32,2 -47,7 -13,5 -26,12 -37,22 -10,9 -19,21 -24,34 -2,5 -4,10 -6,16zm233 141c13,5 26,9 39,14 7,2 14,6 16,14 2,6 0,15 -2,22 -3,-5 -9,-9 -14,-11 -16,-5 -31,-10 -47,-16l8 -23zm-223 362c-4,-9 -2,-20 2,-29l108 -284 8 4c-39,102 -78,204 -116,306l-2 3zm-188 -75c-5,-10 -3,-21 1,-30l42 -97 9 5c-17,39 -34,78 -51,117l-1 5zm-236 -180c-3,-10 -2,-19 1,-29 23,-4 43,-15 61,-30 26,-20 45,-53 59,-82 9,-17 16,-34 23,-52 4,-10 7,-21 10,-32l5 2c-3,19 -9,38 -15,56 -7,17 -14,35 -23,52 -14,29 -33,61 -59,82 -18,14 -38,26 -61,30l-1 3zm-104 -149l0 -1c-6,-10 -2,-23 4,-33l77 -137 11 6c-29,52 -59,105 -88,157 -2,3 -3,5 -4,8zm4031 202c15,-8 33,-19 40,-36 0,-2 1,-3 1,-5 3,10 3,20 -1,31 -7,16 -25,28 -40,35 -12,6 -25,10 -38,12 -13,1 -26,1 -39,-2 -12,-4 -24,-9 -34,-18 -11,-9 -19,-20 -25,-33 -6,-13 -7,-26 -4,-39 1,4 2,9 4,13 6,13 14,25 25,34 10,8 22,14 34,17 13,3 26,4 39,2 13,-2 26,-6 38,-11zm-487 124c20,-7 38,-19 52,-35 7,-8 14,-17 19,-27 2,1 5,3 7,5 -4,18 -14,34 -26,48 -14,16 -32,27 -52,35 -17,6 -39,10 -57,4 -15,-5 -25,-14 -30,-29 -3,-10 -3,-19 0,-28l0 2c5,15 15,24 30,29 18,6 40,2 57,-4zm-3841 -486c18,12 38,19 59,20 17,1 35,0 51,-6 2,8 4,16 4,24 -17,7 -36,9 -55,8 -21,-2 -41,-9 -59,-21 -16,-10 -32,-25 -39,-43 -3,-10 -3,-20 -1,-29l1 3c7,19 23,33 39,44zm450 -140l0 0c-4,-14 -2,-27 5,-39 8,-13 18,-21 32,-24 13,-3 25,-2 37,4 11,7 19,16 23,29 3,9 3,18 0,26l0 -1c-4,-12 -12,-22 -23,-28 -12,-6 -24,-8 -37,-5 -14,4 -24,12 -32,25 -2,4 -4,9 -5,13zm151 368c38,18 76,35 115,52l43 -100 10 4c-18,40 -36,81 -53,122 -42,-18 -84,-37 -125,-57 2,-3 3,-6 5,-9 1,-4 3,-8 5,-12zm1077 336c2,-10 5,-22 14,-28 8,-6 21,-5 30,-3 43,7 86,13 130,19l8 -64 4 0c-4,30 -8,60 -12,90 -44,-6 -87,-12 -130,-20 -9,-1 -22,-2 -30,4 -9,5 -12,18 -14,27 -7,39 -13,77 -20,116 -25,-4 -49,-13 -68,-28 -15,-11 -28,-26 -34,-44 3,-3 5,-6 8,-9 7,11 16,20 26,27 19,16 43,24 68,28 7,-38 13,-77 20,-115zm-60 -116l0 1 0 -1 0 0zm558 345c33,2 52,-11 54,-45l3 -82 1 0c-1,36 -3,72 -4,108 -2,33 -21,47 -54,45 -11,-1 -21,-3 -31,-8 -10,-5 -19,-12 -26,-21 -8,-9 -13,-20 -17,-31 -4,-13 -5,-26 -4,-39l0 -5c1,6 2,12 4,18 4,12 9,22 17,31 7,9 16,16 26,21 10,5 20,8 31,8z"/>
 </g>
</svg>
