<svg width="170" height="170" viewBox="0 0 170 170" fill="none" xmlns="http://www.w3.org/2000/svg">
<g filter="url(#filter0_d)">
<circle cx="85" cy="85" r="65" fill="#42B2C6"/>
</g>
<path fill-rule="evenodd" clip-rule="evenodd" d="M41.8074 74.9662C41.0055 75.7681 41.0499 77.0702 41.7505 77.9621C43.4237 80.0919 44.4216 82.7774 44.4216 85.6959C44.4216 88.4109 43.558 90.9243 42.0905 92.9763C41.4505 93.8712 41.4392 95.1236 42.2172 95.9016C43.0017 96.6861 44.2856 96.6892 44.9652 95.8123C47.1319 93.0165 48.4216 89.5068 48.4216 85.6959C48.4216 81.6152 46.9428 77.8798 44.492 74.9965C43.7979 74.1799 42.5652 74.2084 41.8074 74.9662ZM49.115 99.9851C48.411 100.833 48.4056 102.09 49.1848 102.869C49.9678 103.652 51.2445 103.655 51.9634 102.812C55.8952 98.2058 58.2689 92.2291 58.2689 85.698C58.2689 78.9091 55.7041 72.7191 51.4905 68.0444C50.7637 67.2381 49.5171 67.2565 48.7495 68.0241C47.9558 68.8178 47.9799 70.1045 48.7201 70.9483C52.1747 74.8865 54.2689 80.0477 54.2689 85.698C54.2689 91.1297 52.3336 96.1093 49.115 99.9851ZM56.5999 107.465C55.8707 108.292 55.8672 109.552 56.647 110.331C57.4294 111.114 58.7028 111.116 59.44 110.291C65.2739 103.761 68.8202 95.1433 68.8202 85.6977C68.8202 76.0003 65.0822 67.1759 58.9685 60.5868C58.2261 59.7868 56.9735 59.8001 56.2017 60.5719C55.4118 61.3618 55.4279 62.6422 56.1824 63.466C61.5469 69.3239 64.8202 77.1286 64.8202 85.6977C64.8202 94.0422 61.7162 101.662 56.5999 107.465Z" fill="white"/>
<mask id="mask0" style="mask-type:alpha" maskUnits="userSpaceOnUse" x="20" y="20" width="130" height="130">
<circle cx="85" cy="85" r="65" fill="#E5E5E5"/>
</mask>
<g mask="url(#mask0)">
<path fill-rule="evenodd" clip-rule="evenodd" d="M172.291 25.5701H118.898V27.4272H120.755C118.898 27.4272 118.898 27.4284 118.898 27.4284V61.7183C114.833 58.9827 110.723 57.7855 106.82 57.8309C101.944 57.8877 97.5767 59.8817 94.2121 62.8971C87.5828 68.8385 84.4562 79.2022 89.4575 87.3622C93.8813 94.5798 97.7235 100.518 100.461 104.653C101.83 106.721 102.923 108.339 103.675 109.441C104.051 109.992 104.341 110.414 104.538 110.699C104.637 110.842 104.712 110.95 104.763 111.023L104.841 111.135C104.864 111.168 104.887 111.199 104.912 111.23C107.232 114.13 110.698 115.103 113.785 114.1C115.261 113.62 116.577 112.715 117.609 111.455L126.778 143.963H172.291V25.5701ZM108.782 95.2116C106.721 93.151 105.56 90.359 105.551 87.4451C105.532 85.2709 106.157 83.1397 107.345 81.3192C108.534 79.4988 110.235 78.0702 112.233 77.2129C111.602 75.9543 110.563 74.9466 109.285 74.3541C108.008 73.7616 106.568 73.6193 105.199 73.9503C103.831 74.2813 102.615 75.0662 101.749 76.177C100.884 77.2877 100.421 78.6588 100.434 80.0668C100.434 80.5283 100.251 80.9709 99.9247 81.2973C99.5984 81.6236 99.1558 81.8069 98.6943 81.8069C98.2327 81.8069 97.7901 81.6236 97.4638 81.2973C97.1374 80.9709 96.9541 80.5283 96.9541 80.0668C96.9597 77.6588 97.8566 75.3383 99.4718 73.5525C101.087 71.7667 103.306 70.6421 105.702 70.3957C108.097 70.1492 110.499 70.7983 112.444 72.2178C114.389 73.6373 115.739 75.7266 116.235 78.083C116.319 78.5295 116.229 78.9913 115.983 79.3733C115.737 79.7553 115.354 80.0284 114.913 80.1364C113.133 80.5638 111.57 81.6259 110.518 83.1235C109.465 84.621 108.995 86.4511 109.196 88.2704C109.397 90.0897 110.254 91.7733 111.608 93.0054C112.962 94.2375 114.718 94.9334 116.548 94.9626C117.01 94.9626 117.452 95.1459 117.779 95.4722C118.105 95.7986 118.288 96.2412 118.288 96.7027C118.28 97.1615 118.093 97.5989 117.769 97.9233C117.445 98.2478 117.007 98.434 116.548 98.4429C113.634 98.4337 110.842 97.2721 108.782 95.2116Z" fill="white"/>
</g>
<defs>
<filter id="filter0_d" x="0" y="0" width="170" height="170" filterUnits="userSpaceOnUse" color-interpolation-filters="sRGB">
<feFlood flood-opacity="0" result="BackgroundImageFix"/>
<feColorMatrix in="SourceAlpha" type="matrix" values="0 0 0 0 0 0 0 0 0 0 0 0 0 0 0 0 0 0 127 0" result="hardAlpha"/>
<feMorphology radius="8" operator="dilate" in="SourceAlpha" result="effect1_dropShadow"/>
<feOffset/>
<feGaussianBlur stdDeviation="6"/>
<feColorMatrix type="matrix" values="0 0 0 0 0.258824 0 0 0 0 0.698039 0 0 0 0 0.776471 0 0 0 0.12 0"/>
<feBlend mode="normal" in2="BackgroundImageFix" result="effect1_dropShadow"/>
<feBlend mode="normal" in="SourceGraphic" in2="effect1_dropShadow" result="shape"/>
</filter>
</defs>
</svg>
