<svg width="130" height="103" viewBox="0 0 130 103" fill="none" xmlns="http://www.w3.org/2000/svg">
<path fill-rule="evenodd" clip-rule="evenodd" d="M24.3467 22.5703C24.7418 23.5751 26.3657 33.5797 25.8829 34.4971C25.0051 36.2883 25.5757 37.73 26.7608 39.0844C27.463 39.8271 28.2531 40.5261 28.9992 41.3125C29.4381 41.793 29.9648 42.2736 30.3599 42.7978C31.7205 44.5454 31.3694 45.8123 29.3065 46.6424C29.087 46.7298 28.8675 46.8171 28.6481 46.9045C28.2092 47.123 28.0336 47.5598 28.2092 47.9967C28.3409 48.3025 28.5164 48.5647 28.6481 48.8705C29.0431 49.7442 28.8675 50.4869 28.0336 51.0112C27.6386 51.2296 27.1558 51.4044 26.7608 51.5791C26.3657 51.7539 26.0146 51.8849 25.6635 52.1908C26.0146 52.2781 26.3657 52.3218 26.7169 52.4092C27.2436 52.5403 27.8142 52.5839 28.297 52.8024C29.1309 53.1082 29.3504 53.8072 28.9992 54.5499C28.9553 54.7247 28.8675 54.8557 28.7798 54.9868C27.858 56.1227 27.858 57.3896 28.297 58.7003C28.692 59.9235 28.3409 60.7536 27.1558 61.3215C25.6196 62.0205 23.9517 62.1079 22.3277 62.1953C21.8449 62.239 21.3182 62.1953 20.8354 62.1953C19.8259 62.239 19.387 63.0254 19.1237 63.7681C18.7725 64.8603 18.5092 65.9962 18.2459 67.132C18.1142 67.5252 18.0703 67.9184 17.4997 67.8747C17.0169 67.7874 16.7974 67.4379 16.9291 66.8699C17.1925 65.7777 17.4558 64.6855 17.763 63.5933C17.8947 63.1127 18.202 62.6759 18.4653 62.239C19.0798 61.1468 20.0893 60.8847 21.2744 60.841C22.7228 60.7973 24.1712 60.6225 25.6196 60.4478C25.839 60.4041 26.0585 60.3167 26.278 60.273C27.1119 59.9235 27.1997 59.7488 26.9363 58.875C26.4974 57.3022 26.4974 55.7295 27.5947 54.3315C27.6386 54.2878 27.6825 54.2004 27.7264 54.113C27.7264 54.113 27.7264 54.0693 27.7264 53.9383C27.2436 53.8509 26.7608 53.8509 26.3219 53.6761C25.6196 53.4577 24.9173 53.1956 24.3467 52.8461C23.7323 52.4529 23.7323 51.7976 24.3029 51.317C24.6979 51.0112 25.2246 50.7927 25.6635 50.5743C26.1463 50.3559 26.6291 50.1811 27.1119 50.0064C27.463 49.8753 27.5947 49.6569 27.3752 49.3073C27.2436 49.0889 27.1558 48.8705 27.068 48.6957C26.4974 47.6472 26.9363 46.0744 28.297 45.5939C28.5164 45.5065 28.7798 45.4191 28.9992 45.3317C29.9209 44.9386 30.0526 44.589 29.3942 43.8027C28.6481 42.8852 27.7703 42.0115 26.8924 41.1377C25.6635 39.9581 24.5223 38.7349 24.1712 36.9873C24.0834 36.4631 24.1273 35.8951 24.2151 35.3709C24.3029 34.8903 24.5223 34.4534 24.654 34.0166C24.9173 33.3176 23.3811 23.7062 23.03 23.0072L24.3467 22.5703Z" fill="#F58B71" stroke="#F58B71" stroke-width="0.0135276"/>
<path fill-rule="evenodd" clip-rule="evenodd" d="M50.3452 52.2218C50.2575 56.7216 48.7652 60.6536 45.7367 63.9738C45.5611 64.1486 45.4294 64.3234 45.21 64.4981C44.8149 64.8476 44.376 64.8476 43.981 64.4981C43.586 64.1049 43.586 63.6243 43.9371 63.2312C44.2882 62.7943 44.7272 62.4011 45.0783 61.9642C48.7213 57.2022 49.5113 51.9597 47.4045 46.3676C46.6584 44.489 45.5611 42.8726 44.2005 41.3872C43.9371 41.125 43.7177 40.6445 43.7616 40.3387C43.8493 39.596 44.7272 39.4649 45.3416 40.0328C46.8778 41.5619 48.019 43.3094 48.8968 45.2317C49.8624 47.4598 50.3452 49.819 50.3452 52.2218Z" fill="#F58B71"/>
<path fill-rule="evenodd" clip-rule="evenodd" d="M50.3452 52.2218C50.2575 56.7216 48.7652 60.6536 45.7367 63.9738C45.5611 64.1486 45.4294 64.3234 45.21 64.4981C44.8149 64.8476 44.376 64.8476 43.981 64.4981C43.586 64.1049 43.586 63.6243 43.9371 63.2312C44.2882 62.7943 44.7272 62.4011 45.0783 61.9642C48.7213 57.2022 49.5113 51.9597 47.4045 46.3676C46.6584 44.489 45.5611 42.8726 44.2005 41.3872C43.9371 41.125 43.7177 40.6445 43.7616 40.3387C43.8493 39.596 44.7272 39.4649 45.3416 40.0328C46.8778 41.5619 48.019 43.3094 48.8968 45.2317C49.8624 47.4598 50.3452 49.819 50.3452 52.2218Z" stroke="#F58B71" stroke-width="0.0135276"/>
<path fill-rule="evenodd" clip-rule="evenodd" d="M44.3932 53.4929C44.3493 55.721 43.1642 58.8229 40.7941 61.4441C40.7063 61.5752 40.6185 61.6626 40.4868 61.7936C40.0479 62.2305 39.5651 62.3616 39.0823 61.881C38.5995 61.4441 38.7751 60.9636 39.1701 60.5267C40.3991 59.3034 41.3647 57.8617 41.8914 56.1579C43.3398 51.7454 42.5497 47.7261 39.4335 44.1437C39.3018 44.0126 39.1262 43.8816 39.0384 43.7068C38.7312 43.3136 38.6873 42.8767 39.0823 42.5272C39.4335 42.2214 39.9163 42.0904 40.3552 42.4836C40.7502 42.8767 41.1452 43.3136 41.4963 43.7505C43.3837 46.2407 44.3932 49.0804 44.3932 53.4929Z" fill="#F58B71"/>
<path fill-rule="evenodd" clip-rule="evenodd" d="M44.3932 53.4929C44.3493 55.721 43.1642 58.8229 40.7941 61.4441C40.7063 61.5752 40.6185 61.6626 40.4868 61.7936C40.0479 62.2305 39.5651 62.3616 39.0823 61.881C38.5995 61.4441 38.7751 60.9636 39.1701 60.5267C40.3991 59.3034 41.3647 57.8617 41.8914 56.1579C43.3398 51.7454 42.5497 47.7261 39.4335 44.1437C39.3018 44.0126 39.1262 43.8816 39.0384 43.7068C38.7312 43.3136 38.6873 42.8767 39.0823 42.5272C39.4335 42.2214 39.9163 42.0904 40.3552 42.4836C40.7502 42.8767 41.1452 43.3136 41.4963 43.7505C43.3837 46.2407 44.3932 49.0804 44.3932 53.4929Z" stroke="#F58B71" stroke-width="0.0135276"/>
<path fill-rule="evenodd" clip-rule="evenodd" d="M36.5915 52.0696C36.5476 49.9726 35.7576 48.094 34.2653 46.4776C33.6508 45.8223 33.7386 45.1233 34.5286 44.9048C34.8358 44.8174 35.3186 44.9922 35.5381 45.2106C37.601 47.3513 38.5227 49.9289 38.3471 52.856C38.2155 55.2589 37.2938 57.3559 35.6698 59.1471C35.2309 59.584 34.7919 59.8898 34.1775 59.4092C33.7386 59.0597 33.7824 58.4918 34.353 57.8801C35.8014 56.2637 36.5476 54.3851 36.5915 52.0696Z" fill="#F58B71"/>
<path fill-rule="evenodd" clip-rule="evenodd" d="M36.5915 52.0696C36.5476 49.9726 35.7576 48.094 34.2653 46.4776C33.6508 45.8223 33.7386 45.1233 34.5286 44.9048C34.8358 44.8174 35.3186 44.9922 35.5381 45.2106C37.601 47.3513 38.5227 49.9289 38.3471 52.856C38.2155 55.2589 37.2938 57.3559 35.6698 59.1471C35.2309 59.584 34.7919 59.8898 34.1775 59.4092C33.7386 59.0597 33.7824 58.4918 34.353 57.8801C35.8014 56.2637 36.5476 54.3851 36.5915 52.0696Z" stroke="#F58B71" stroke-width="0.0135276"/>
<path fill-rule="evenodd" clip-rule="evenodd" d="M38.2868 90.8237C44.0777 93.0229 50.4147 94.235 57.0587 94.235C65.2663 94.235 73.0351 92.3564 79.8821 89.0798C71.4989 95.3709 61.0967 99.128 49.8166 99.128C43.3865 99.128 37.2416 97.9164 31.5996 95.7105L38.2868 90.8237ZM24.2663 82.745C13.854 74.2372 7.28595 61.747 7.28595 47.8383C7.28595 22.2372 29.5388 1.4417 57.0587 1.4417C59.0777 1.4417 61.0967 1.57277 63.0718 1.79121C58.8582 0.611632 54.3813 0 49.8166 0C22.2968 0 0 22.1935 0 49.5859C0 67.035 9.07645 82.3855 22.7949 91.2123L24.2663 82.745Z" fill="#F47D5C"/>
<path d="M28.2756 79.6172L21.3847 102.073L39.7313 85.1219L28.2756 79.6172Z" fill="#377044"/>
<path fill-rule="evenodd" clip-rule="evenodd" d="M15.6577 48.6537C15.6577 69.755 32.8192 86.837 54.0186 86.837C67.6517 86.837 79.626 79.7433 86.4181 69.0516H91.3088C84.0739 82.1564 70.0837 91.031 54.0186 91.031C30.4929 91.031 11.4441 72.0705 11.4441 48.6537C11.4441 25.2369 30.4929 6.27637 54.0186 6.27637C70.0802 6.27637 84.0677 15.1471 91.304 28.2471H86.4125C79.6195 17.5602 67.648 10.4704 54.0186 10.4704C32.8192 10.4704 15.6577 27.5524 15.6577 48.6537Z" fill="#377044"/>
<path d="M57.9058 40.6218C57.9058 39.5296 58.0813 38.481 58.4325 37.5636C58.8275 36.6461 59.3542 35.8598 60.0125 35.1608C60.6709 34.5054 61.5048 33.9812 62.4266 33.6317C63.3922 33.2822 64.4017 33.1074 65.5428 33.1074C66.3768 33.1074 67.1668 33.1948 67.8252 33.3695C68.4836 33.588 69.0542 33.8501 69.537 34.1996C70.0198 34.5491 70.3709 34.9423 70.6342 35.4666C70.8976 35.9471 71.0293 36.4714 71.0293 37.083C71.0293 37.5636 70.9415 38.0005 70.7659 38.3937C70.5903 38.8305 70.3709 39.1364 70.0198 39.4422C69.7125 39.748 69.3175 39.9664 68.8347 40.0975C68.3958 40.2723 67.8691 40.3596 67.2985 40.3596C66.8157 40.3596 66.3329 40.2723 65.894 40.1412C65.499 39.9664 65.1039 39.748 64.7967 39.4859C64.4895 39.2237 64.2261 38.9179 64.0944 38.5247C63.9189 38.1752 63.8311 37.782 63.8311 37.3015C63.8311 36.8646 63.9189 36.4277 64.1383 36.0345C64.3139 35.6413 64.5772 35.3792 64.9284 35.2044C64.3578 35.2481 63.8311 35.3792 63.3483 35.6413C62.8655 35.9035 62.4266 36.253 62.0315 36.6898C61.6365 37.1704 61.3732 37.7383 61.1098 38.3937C60.8904 39.049 60.8026 39.7917 60.8026 40.6218C60.8026 41.4955 60.9343 42.2819 61.1537 42.9372C61.3732 43.6362 61.6804 44.2042 62.0754 44.641C62.4705 45.1216 62.9094 45.4711 63.3922 45.7332C63.875 45.9954 64.3578 46.1264 64.8406 46.1701C64.5333 45.9517 64.27 45.6459 64.0505 45.2964C63.8311 44.9032 63.7433 44.51 63.7433 44.0731C63.7433 43.6362 63.8311 43.1993 63.9628 42.8498C64.1383 42.4566 64.4017 42.1508 64.7089 41.8887C65.0162 41.6266 65.3673 41.4081 65.8062 41.2771C66.2451 41.1023 66.7279 41.0586 67.2546 41.0586C67.7813 41.0586 68.308 41.146 68.7908 41.2771C69.2297 41.4518 69.6247 41.6703 69.9759 41.9761C70.2831 42.2819 70.5465 42.6314 70.722 43.0246C70.8976 43.4178 70.9854 43.8984 70.9854 44.3789C70.9854 44.9469 70.8537 45.5148 70.5903 45.9954C70.3709 46.4759 69.9759 46.8691 69.4931 47.2186C69.0542 47.5681 68.4836 47.8303 67.7813 48.005C67.1229 48.1798 66.3768 48.2672 65.5428 48.2672C64.4017 48.2672 63.3922 48.0924 62.4266 47.6992C61.5048 47.3497 60.6709 46.8254 60.0125 46.1701C59.3542 45.5148 58.8275 44.6847 58.4325 43.7673C58.0813 42.8062 57.9058 41.8013 57.9058 40.6218ZM67.2985 43.1993C66.9035 43.1993 66.6401 43.2867 66.3768 43.5488C66.1573 43.7673 66.0695 44.1168 66.0695 44.4663C66.0695 44.8595 66.1573 45.1653 66.3768 45.4274C66.6401 45.6459 66.9035 45.7769 67.2985 45.7769C67.6935 45.7769 68.0008 45.6459 68.2202 45.4274C68.4836 45.1653 68.5713 44.8595 68.5713 44.4663C68.5713 44.1168 68.4836 43.7673 68.2202 43.5488C68.0008 43.2867 67.6935 43.1993 67.2985 43.1993ZM67.3863 35.5976C66.9913 35.5976 66.684 35.7287 66.4646 35.9471C66.2012 36.2093 66.1134 36.5151 66.1134 36.952C66.1134 37.3015 66.2012 37.6073 66.4646 37.8257C66.684 38.0879 66.9913 38.1752 67.3863 38.1752C67.7374 38.1752 68.0447 38.0879 68.2641 37.8257C68.4836 37.6073 68.6152 37.3015 68.6152 36.952C68.6152 36.5151 68.4836 36.2093 68.2641 35.9471C68.0447 35.7287 67.7374 35.5976 67.3863 35.5976Z" fill="#377044"/>
<path d="M74.269 36.9922C75.2785 36.9922 75.7613 37.4728 75.7613 38.4339V45.6861H82.0377V37.1233C82.2572 37.1233 82.4766 37.0796 82.74 37.0359C83.0033 36.9922 83.2228 36.9922 83.4861 36.9922C84.4517 36.9922 84.9345 37.4728 84.9345 38.4339V46.5598C84.9345 47.521 84.4517 48.0015 83.4422 48.0015H74.3567C73.3472 48.0015 72.8644 47.521 72.8644 46.5598V37.1233C73.0839 37.1233 73.3034 37.0796 73.5667 37.0359C73.83 36.9922 74.0495 36.9922 74.269 36.9922Z" fill="#377044"/>
<path d="M101.99 41.2712C102.122 41.5333 102.165 41.8828 102.165 42.276C102.165 43.1061 101.77 43.4993 100.893 43.4993H100.278V47.9554C99.8831 48.0428 99.4881 48.0865 99.0931 48.0865C98.2153 48.0865 97.7764 47.6496 97.7764 46.8196V43.4556H96.0646V44.0235C96.0646 44.6789 95.9329 45.2468 95.7135 45.7711C95.494 46.2516 95.1429 46.6885 94.7479 47.0817C94.309 47.4312 93.7823 47.6933 93.1678 47.9118C92.5533 48.0865 91.8949 48.1739 91.1049 48.1739C90.4465 48.1739 89.832 48.0865 89.3053 47.9554C88.7348 47.7807 88.2958 47.5623 87.9008 47.2564C87.5497 46.9506 87.2425 46.6011 87.023 46.1642C86.8035 45.7711 86.7158 45.2905 86.7158 44.7662C86.7158 44.1109 86.8913 43.4993 87.2425 43.0187C87.5497 42.4945 88.0325 42.1013 88.647 41.8391V38.781C88.647 38.2567 88.8225 37.8198 89.0859 37.514C89.3492 37.2519 89.7443 37.0771 90.271 37.0771H99.1809C99.2687 37.2519 99.3565 37.4267 99.3565 37.6014C99.4003 37.7762 99.4003 37.9509 99.4003 38.082C99.4003 38.4752 99.3126 38.7373 99.137 38.9557C98.9614 39.1305 98.6103 39.2179 98.1275 39.2179H96.0207V41.2712H101.99ZM91.2366 41.3149C91.3682 41.2712 91.5438 41.2712 91.7194 41.2712C91.851 41.2712 92.0266 41.2712 92.2022 41.2712H93.5189V39.2179H91.2366V41.3149ZM89.3931 44.7662C89.3931 45.1594 89.5687 45.4652 89.8759 45.7274C90.1832 45.9458 90.666 46.0332 91.1927 46.0332C91.9388 46.0332 92.4655 45.8584 92.9044 45.4652C93.2995 45.072 93.5189 44.5478 93.5189 43.8488V43.3245H91.6316C90.9293 43.3245 90.4026 43.4556 89.9637 43.674C89.5687 43.8488 89.3931 44.242 89.3931 44.7662Z" fill="#377044"/>
<path d="M76.7367 54.0186C77.7023 54.0186 78.5802 54.1496 79.3263 54.4117C80.0725 54.7176 80.7308 55.1108 81.2575 55.5913C81.7842 56.0719 82.2231 56.6835 82.4865 57.3388C82.7937 58.0379 82.9254 58.7369 82.9254 59.5669C82.9254 60.0912 82.8376 60.4844 82.7059 60.7465C82.5743 61.0086 82.3109 61.1397 82.0037 61.1397C81.872 61.1397 81.7403 61.096 81.6087 61.096C81.477 61.0523 81.3453 60.9649 81.2575 60.9213C81.3014 60.7028 81.3453 60.5281 81.3453 60.3533C81.3453 60.1786 81.3892 59.9601 81.3892 59.7417C81.3892 59.0864 81.2575 58.4747 81.0381 57.9068C80.8186 57.3388 80.5114 56.902 80.1164 56.5088C79.7213 56.1156 79.2385 55.8098 78.6241 55.5913C78.0535 55.3729 77.439 55.2855 76.7367 55.2855C76.0784 55.2855 75.4639 55.3729 74.9372 55.5913C74.3666 55.8098 73.8838 56.1156 73.4888 56.5088C73.0938 56.8583 72.7865 57.3388 72.5671 57.8631C72.3476 58.431 72.2598 59.0427 72.2598 59.698C72.2598 59.9164 72.2598 60.1786 72.3037 60.5281C72.3915 60.8776 72.4793 61.1834 72.611 61.4892C72.7426 61.4455 72.8304 61.3581 72.9621 61.3144C73.0938 61.2708 73.1815 61.2271 73.3132 61.1834C73.2693 61.0523 73.2693 60.8776 73.2693 60.7028C73.2254 60.5718 73.2254 60.397 73.2254 60.2223C73.2254 59.698 73.3132 59.2174 73.4888 58.7805C73.6205 58.3437 73.8838 57.9505 74.1472 57.6447C74.4544 57.3388 74.8055 57.1204 75.2444 56.9457C75.6395 56.7709 76.1223 56.6835 76.6051 56.6835C77.1756 56.6835 77.6584 56.7709 78.0974 56.9457C78.5363 57.1204 78.8874 57.3825 79.1946 57.732C79.5019 58.0379 79.7213 58.431 79.8969 58.9116C80.0725 59.3485 80.1603 59.8727 80.1603 60.4844C80.1603 60.6154 80.1603 60.7028 80.1603 60.8339C80.1603 60.9213 80.1603 61.0523 80.1164 61.1834C80.8625 61.4018 81.477 61.7513 81.9159 62.2756C82.3548 62.7562 82.5743 63.3678 82.5743 64.0668C82.5743 64.5037 82.4865 64.8532 82.3548 65.2027C82.1792 65.5522 82.0037 65.8143 81.7403 66.0764C81.4331 66.2949 81.1259 66.4696 80.7308 66.6007C80.3358 66.7318 79.8969 66.8191 79.4141 66.8191C78.9752 66.8191 78.5802 66.7318 78.1851 66.6007C77.7901 66.4696 77.439 66.2949 77.1756 66.1201C76.7806 66.3386 76.3417 66.5133 75.8589 66.6444C75.3761 66.7318 74.9372 66.7754 74.4544 66.7754C73.2693 66.7754 72.3915 66.557 71.777 66.0764C71.1625 65.5959 70.8114 64.8969 70.8114 64.0231C70.8114 63.6736 70.8992 63.3678 70.987 63.062C71.1187 62.7562 71.2503 62.494 71.4698 62.2756C71.2503 62.0135 71.1187 61.6203 70.9431 61.1834C70.8114 60.7465 70.7236 60.1786 70.7236 59.5232C70.7236 58.6495 70.8992 57.8631 71.2064 57.1641C71.5137 56.4651 71.9526 55.8971 72.5232 55.4166C73.0499 54.9797 73.7082 54.6302 74.4105 54.3681C75.1566 54.1496 75.9028 54.0186 76.7367 54.0186ZM72.3476 63.9357C72.3476 64.46 72.5232 64.8532 72.8743 65.1153C73.2693 65.3774 73.796 65.5085 74.4544 65.5085C74.9811 65.5085 75.4639 65.4648 75.9028 65.2901C76.3856 65.159 76.7806 64.9406 77.1318 64.6347C77.4829 64.3726 77.834 63.9794 78.0535 63.5862C78.3168 63.1493 78.4924 62.6688 78.6241 62.1445C78.4046 62.1008 78.1851 62.0571 77.8779 62.0135C77.7901 62.5377 77.5707 62.9309 77.1756 63.2367C76.7806 63.5425 76.2978 63.6736 75.7272 63.6736C75.2444 63.6736 74.8055 63.5862 74.4544 63.3241C74.1033 63.1057 73.796 62.7562 73.6205 62.3193C73.2254 62.4503 72.8743 62.6688 72.6548 62.9746C72.4354 63.2367 72.3476 63.5862 72.3476 63.9357ZM78.7557 60.4844C78.7557 59.698 78.5802 59.0864 78.229 58.6495C77.834 58.2126 77.3073 57.9942 76.6051 57.9942C75.9906 57.9942 75.4639 58.2126 75.0689 58.6495C74.6738 59.0427 74.4983 59.6543 74.4983 60.397C74.63 60.1786 74.8494 59.9601 75.1128 59.8291C75.3761 59.698 75.6395 59.6106 75.9906 59.6106C76.4295 59.6106 76.7806 59.698 77.0879 59.9164C77.3951 60.1349 77.6146 60.4407 77.7901 60.8339C77.9218 60.8339 78.0974 60.8339 78.2729 60.8776C78.4046 60.8776 78.5802 60.8776 78.7557 60.9213C78.7557 60.8339 78.7557 60.7902 78.7557 60.7028C78.7557 60.6591 78.7557 60.5718 78.7557 60.4844ZM78.4046 65.2901C78.7118 65.4648 79.063 65.5085 79.4141 65.5085C79.9408 65.5085 80.3358 65.3774 80.5992 65.1153C80.9064 64.8532 81.0381 64.46 81.0381 63.9794C81.0381 63.6299 80.9503 63.2804 80.7308 63.0183C80.5553 62.7562 80.2919 62.5814 79.9408 62.4503C79.8091 62.9746 79.5897 63.4988 79.3702 63.9794C79.1069 64.46 78.7996 64.8969 78.4046 65.2901ZM75.0689 61.6203C75.0689 61.795 75.1566 61.9698 75.2883 62.1008C75.3761 62.2319 75.5517 62.2756 75.7711 62.2756C75.9467 62.2756 76.1223 62.2319 76.2539 62.1008C76.3856 61.9698 76.4295 61.795 76.4295 61.6203C76.4295 61.4018 76.3856 61.2271 76.2539 61.096C76.1223 61.0086 75.9467 60.9213 75.7711 60.9213C75.5956 60.9213 75.42 61.0086 75.2883 61.096C75.1566 61.2271 75.0689 61.4018 75.0689 61.6203Z" fill="#373435"/>
<path d="M91.4669 58.6306C91.818 58.6306 92.1692 58.7179 92.4764 58.849C92.7836 58.9801 93.047 59.1548 93.2665 59.3732C93.4859 59.6354 93.6176 59.8975 93.7493 60.247C93.8809 60.5965 93.9248 60.946 93.9248 61.3829C93.9248 62.1256 93.7931 62.7809 93.5298 63.3925C93.2226 63.9605 92.8275 64.441 92.3008 64.8779C91.7741 65.2711 91.1597 65.5769 90.4135 65.7954C89.6235 66.0138 88.7895 66.1012 87.8239 66.1012H84.4882C84.4004 66.0138 84.3565 65.9264 84.3126 65.7954C84.2687 65.6643 84.2687 65.5332 84.2687 65.4022C84.2687 65.1837 84.3126 65.009 84.4882 64.8779C84.6199 64.7469 84.7954 64.7032 85.0588 64.7032C85.4977 64.7032 85.9366 64.7032 86.3316 64.7032C86.7705 64.7032 87.2533 64.7032 87.6923 64.7032C89.1407 64.7032 90.2818 64.441 91.0719 63.8731C91.8619 63.3052 92.257 62.5188 92.257 61.4703C92.257 61.0334 92.1692 60.6402 91.9936 60.3781C91.818 60.1159 91.5108 59.9412 91.0719 59.9412C90.8524 59.9412 90.633 60.0286 90.4135 60.1159C90.238 60.247 90.0624 60.4218 89.9307 60.5965V63.1741C89.799 63.2178 89.7113 63.2615 89.5796 63.2615C89.4479 63.3052 89.3162 63.3052 89.1407 63.3052C88.5701 63.3052 88.2628 63.043 88.2628 62.4751V57.1015H86.1561V63.1741C86.0244 63.2178 85.8927 63.2615 85.8049 63.2615C85.6733 63.3052 85.5416 63.3052 85.366 63.3052C84.7954 63.3052 84.4882 63.043 84.4882 62.4751V56.8393C84.4882 56.4462 84.576 56.184 84.7515 56.0093C84.9271 55.8782 85.1905 55.7908 85.4538 55.7908H92.4764C92.5642 56.0093 92.6081 56.2277 92.6081 56.4462C92.6081 56.6646 92.5642 56.8393 92.4325 56.9704C92.3008 57.0578 92.0814 57.1015 91.818 57.1015H89.9307V59.1985C90.0624 59.0237 90.2818 58.8927 90.5452 58.8053C90.8085 58.6742 91.1158 58.6306 91.4669 58.6306ZM89.1407 52.7764C89.4479 52.7764 89.6674 52.9074 89.8868 53.0822C90.0624 53.2569 90.1502 53.5191 90.1502 53.8249C90.1502 54.1307 90.0624 54.3928 89.8868 54.5676C89.6674 54.786 89.4479 54.8734 89.1407 54.8734C88.8334 54.8734 88.5701 54.786 88.3945 54.5676C88.1751 54.3928 88.0873 54.1307 88.0873 53.8249C88.0873 53.5191 88.1751 53.2569 88.3945 53.0822C88.5701 52.9074 88.8334 52.7764 89.1407 52.7764Z" fill="#373435"/>
<path d="M103.456 55.7727C103.5 55.8601 103.544 55.9475 103.544 56.0786C103.544 56.1659 103.588 56.2533 103.588 56.3407C103.588 56.6028 103.5 56.7339 103.412 56.8649C103.281 56.996 103.061 57.0397 102.798 57.0397H101.174V58.6998C101.657 58.7435 102.139 58.8309 102.534 59.0056C102.929 59.1804 103.281 59.3988 103.588 59.661C103.895 59.9668 104.114 60.2726 104.246 60.6658C104.422 61.059 104.51 61.4522 104.51 61.9327C104.51 62.5881 104.378 63.1997 104.114 63.6803C103.851 64.2045 103.456 64.6414 102.973 64.9909C102.491 65.3404 101.876 65.6462 101.174 65.821C100.472 65.9957 99.6376 66.0831 98.7159 66.0831H95.1607C95.1168 65.9957 95.0729 65.9083 95.029 65.7773C94.9851 65.6462 94.9412 65.5151 94.9412 65.3841C94.9412 65.1656 95.029 64.9909 95.1607 64.8598C95.2924 64.7288 95.4679 64.6851 95.7313 64.6851C96.2141 64.6851 96.6969 64.6851 97.1358 64.6851C97.6186 64.6851 98.1014 64.6851 98.6281 64.6851C99.9887 64.6851 100.998 64.4666 101.744 63.9424C102.447 63.4618 102.842 62.7628 102.842 61.8454C102.842 61.2774 102.666 60.8405 102.359 60.5347C102.052 60.2289 101.657 60.0542 101.174 59.9668V60.5347C101.174 61.4085 100.867 62.1075 100.296 62.5881C99.7254 63.1123 98.9353 63.3744 97.8819 63.3744C97.443 63.3744 97.048 63.2871 96.6969 63.1997C96.3019 63.0686 95.9946 62.9376 95.7752 62.7191C95.5118 62.5444 95.2924 62.2822 95.1607 61.9764C95.029 61.7143 94.9412 61.4085 94.9412 61.059C94.9412 60.5784 95.0729 60.1415 95.3362 59.792C95.5557 59.4425 95.9068 59.1804 96.3896 59.0056V56.8212C96.3896 56.4717 96.4335 56.2096 96.6091 56.0349C96.7847 55.8601 97.0041 55.7727 97.3552 55.7727H99.462C99.3742 55.4232 99.2865 55.0737 99.2865 54.6805C99.2865 54.2437 99.3742 53.8505 99.5498 53.501C99.7254 53.1515 99.9887 52.8456 100.34 52.6272C100.647 52.3651 101.042 52.1903 101.481 52.0156C101.964 51.8845 102.447 51.8408 103.017 51.8408C103.676 51.8408 104.29 51.9282 104.861 52.1466C105.431 52.3214 105.87 52.6272 106.265 52.9767C106.66 53.3262 106.967 53.7631 107.187 54.2873C107.406 54.8116 107.494 55.3795 107.494 56.0349V63.1997C107.231 63.2434 106.967 63.2871 106.704 63.2871C106.133 63.2871 105.826 63.0249 105.826 62.457V56.0786C105.826 55.1611 105.607 54.4621 105.08 53.9815C104.597 53.4573 103.895 53.1951 103.017 53.1951C102.359 53.1951 101.832 53.3699 101.481 53.6757C101.086 53.9815 100.91 54.3747 100.91 54.9427C100.91 55.2485 100.954 55.5106 101.042 55.7727H103.456ZM96.5213 61.0153C96.5213 61.3648 96.653 61.6269 96.9163 61.8017C97.1358 61.9764 97.4869 62.0638 97.9258 62.0638C98.4525 62.0638 98.8914 61.9327 99.1987 61.6269C99.5059 61.3648 99.6815 60.9279 99.6815 60.4037V59.8794H98.277C98.0136 59.8794 97.7942 59.9231 97.5747 59.9231C97.3552 59.9668 97.1797 60.0542 97.0041 60.1415C96.8724 60.2289 96.7408 60.3163 96.653 60.491C96.5652 60.6221 96.5213 60.7969 96.5213 61.0153ZM97.8819 58.6998C98.0136 58.6998 98.1453 58.6561 98.2331 58.6561C98.3647 58.6561 98.5403 58.6561 98.672 58.6561H99.6815V57.0397H97.8819V58.6998Z" fill="#373435"/>
<path d="M114.035 55.7217C114.605 55.7217 114.869 55.9838 114.869 56.5518V61.8817H118.424V55.8091C118.512 55.7654 118.643 55.7654 118.819 55.7217C118.951 55.7217 119.082 55.7217 119.214 55.7217C119.785 55.7217 120.092 55.9838 120.092 56.5518V62.4059C120.092 62.9302 119.785 63.236 119.214 63.236H114.605C114.298 63.236 114.079 63.1486 113.903 63.0613C113.772 62.9302 113.64 62.7554 113.596 62.5807C113.42 62.7991 113.201 62.9739 112.894 63.105C112.586 63.2797 112.235 63.3671 111.796 63.3671C111.094 63.3671 110.524 63.1486 110.129 62.7554C109.69 62.3623 109.514 61.838 109.514 61.0953V55.8091C109.646 55.7654 109.777 55.7654 109.909 55.7217C110.041 55.7217 110.172 55.7217 110.304 55.7217C110.875 55.7217 111.138 55.9838 111.138 56.5518V60.9642C111.138 61.2701 111.226 61.5322 111.445 61.7506C111.621 61.9254 111.84 62.0128 112.191 62.0128C112.411 62.0128 112.63 61.9254 112.806 61.7943C112.982 61.6632 113.113 61.4885 113.201 61.2264V55.8091C113.333 55.7654 113.464 55.7654 113.596 55.7217C113.728 55.7217 113.903 55.7217 114.035 55.7217Z" fill="#373435"/>
<path d="M129.138 55.7656C129.225 55.9841 129.269 56.2025 129.269 56.4209C129.269 56.6394 129.225 56.8141 129.094 56.9452C128.962 57.0326 128.787 57.0763 128.479 57.0763H127.689V63.1926C127.426 63.2363 127.206 63.28 126.943 63.28C126.329 63.28 126.021 63.0178 126.021 62.4499V57.0763H123.783V63.1926C123.564 63.2363 123.3 63.28 122.993 63.28C122.422 63.28 122.159 63.0178 122.159 62.4499V56.8141C122.159 56.4209 122.247 56.1588 122.422 55.9841C122.598 55.853 122.817 55.7656 123.081 55.7656H129.138Z" fill="#373435"/>
</svg>
