<svg width="131" height="103" viewBox="0 0 131 103" fill="none" xmlns="http://www.w3.org/2000/svg">
<path fill-rule="evenodd" clip-rule="evenodd" d="M39.1342 90.8192C44.9262 93.0212 51.2618 94.235 57.8998 94.235C66.1075 94.235 73.8762 92.3564 80.7233 89.0798C72.34 95.3709 61.9378 99.128 50.6577 99.128C44.2277 99.128 38.0828 97.9164 32.4408 95.7105L39.1342 90.8192ZM25.1097 82.7323C14.7015 74.2247 8.12708 61.74 8.12708 47.8383C8.12708 22.2372 30.4239 1.4417 57.8998 1.4417C59.9188 1.4417 61.9378 1.57277 63.9129 1.79121C59.6993 0.611632 55.2224 0 50.6577 0C23.1379 0 0.841125 22.1935 0.841125 49.5859C0.841125 67.035 9.91757 82.3855 23.636 91.2123L25.1097 82.7323Z" fill="#F47D5C"/>
<path d="M29.1606 79.6172L22.2258 102.073L40.5724 85.1219L29.1606 79.6172Z" fill="#377044"/>
<path fill-rule="evenodd" clip-rule="evenodd" d="M16.4988 48.6537C16.4988 69.755 33.6603 86.837 54.8598 86.837C68.4928 86.837 80.4854 79.7433 87.2904 69.0516H92.1499C84.915 82.1564 70.9248 91.031 54.8598 91.031C31.334 91.031 12.2852 72.0705 12.2852 48.6537C12.2852 25.2369 31.334 6.27637 54.8598 6.27637C70.9213 6.27637 84.9088 15.1471 92.1451 28.2471H87.2848C80.4789 17.5602 68.4891 10.4704 54.8598 10.4704C33.6603 10.4704 16.4988 27.5524 16.4988 48.6537Z" fill="#377044"/>
<path fill-rule="evenodd" clip-rule="evenodd" d="M36.132 60.0214C33.7618 60.0214 31.4795 60.0651 29.1533 59.9777C27.5293 59.934 26.3881 58.7107 26.3881 57.0506C26.3881 49.9731 26.3881 42.8957 26.3881 35.8619C26.3881 34.2018 27.661 32.9785 29.2849 32.9785C34.9908 32.9785 40.6967 32.9785 46.4025 32.9785C47.9387 32.9785 49.2116 34.0707 49.2555 35.5561C49.2993 39.3133 49.2555 43.0704 49.2555 46.8713C48.3776 46.3907 47.4998 45.9975 46.622 45.517C46.4903 45.4296 46.4464 45.0364 46.4464 44.7743C46.4464 42.0656 46.4464 39.357 46.4464 36.6483V35.8182H29.3288V57.138C30.9089 57.138 32.489 57.138 34.0691 57.138C34.508 57.138 34.7713 57.2253 34.9469 57.7059C35.298 58.4486 35.6931 59.1476 36.132 60.0214Z" fill="#F58B71"/>
<path fill-rule="evenodd" clip-rule="evenodd" d="M36.132 60.0214C33.7618 60.0214 31.4795 60.0651 29.1533 59.9777C27.5293 59.934 26.3881 58.7107 26.3881 57.0506C26.3881 49.9731 26.3881 42.8957 26.3881 35.8619C26.3881 34.2018 27.661 32.9785 29.2849 32.9785C34.9908 32.9785 40.6967 32.9785 46.4025 32.9785C47.9387 32.9785 49.2116 34.0707 49.2555 35.5561C49.2993 39.3133 49.2555 43.0704 49.2555 46.8713C48.3776 46.3907 47.4998 45.9975 46.622 45.517C46.4903 45.4296 46.4464 45.0364 46.4464 44.7743C46.4464 42.0656 46.4464 39.357 46.4464 36.6483V35.8182H29.3288V57.138C30.9089 57.138 32.489 57.138 34.0691 57.138C34.508 57.138 34.7713 57.2253 34.9469 57.7059C35.298 58.4486 35.6931 59.1476 36.132 60.0214Z" stroke="#F58B71" stroke-width="0.0116378"/>
<path fill-rule="evenodd" clip-rule="evenodd" d="M47.9115 54.343C47.8677 51.9838 45.9364 50.0179 43.5663 50.0179C41.284 50.0179 39.265 51.9838 39.265 54.2556C39.265 56.6585 41.2401 58.6244 43.6102 58.6244C45.9364 58.5807 47.9115 56.6148 47.9115 54.343ZM49.5355 58.2749C50.8962 59.5856 52.2568 60.8525 53.5296 62.0758C52.8274 62.7748 52.169 63.4301 51.4667 64.1291C50.5889 63.299 49.5794 62.3816 48.6577 61.3768C47.9554 60.5904 47.4287 60.3719 46.2876 60.8525C43.6541 61.9884 41.0645 61.5515 38.8699 59.6292C36.6754 57.6633 35.9292 55.1731 36.7193 52.377C37.5093 49.581 39.4844 47.7898 42.3812 47.3092C45.1903 46.8287 47.5604 47.7898 49.2722 50.0616C50.9839 52.377 51.1595 54.8673 50.0183 57.4448C49.8867 57.707 49.755 57.9254 49.5355 58.2749Z" fill="#F58B71"/>
<path fill-rule="evenodd" clip-rule="evenodd" d="M47.9115 54.343C47.8677 51.9838 45.9364 50.0179 43.5663 50.0179C41.284 50.0179 39.265 51.9838 39.265 54.2556C39.265 56.6585 41.2401 58.6244 43.6102 58.6244C45.9364 58.5807 47.9115 56.6148 47.9115 54.343ZM49.5355 58.2749C50.8962 59.5856 52.2568 60.8525 53.5296 62.0758C52.8274 62.7748 52.169 63.4301 51.4667 64.1291C50.5889 63.299 49.5794 62.3816 48.6577 61.3768C47.9554 60.5904 47.4287 60.3719 46.2876 60.8525C43.6541 61.9884 41.0645 61.5515 38.8699 59.6292C36.6754 57.6633 35.9292 55.1731 36.7193 52.377C37.5093 49.581 39.4844 47.7898 42.3812 47.3092C45.1903 46.8287 47.5604 47.7898 49.2722 50.0616C50.9839 52.377 51.1595 54.8673 50.0183 57.4448C49.8867 57.707 49.755 57.9254 49.5355 58.2749Z" stroke="#F58B71" stroke-width="0.0116378"/>
<path d="M60.7102 37.0322C61.7197 37.0322 62.2025 37.5128 62.2025 38.5176V45.7261H68.479V37.207C68.6985 37.1633 68.9179 37.1196 69.1813 37.0759C69.4007 37.0759 69.6641 37.0322 69.8835 37.0322C70.893 37.0322 71.3758 37.5128 71.3758 38.5176V46.5999C71.3758 47.561 70.8491 48.0416 69.8835 48.0416H60.7541C59.7885 48.0416 59.3057 47.561 59.3057 46.5999V37.207C59.5252 37.1633 59.7446 37.1196 60.008 37.0759C60.2274 37.0759 60.4908 37.0322 60.7102 37.0322Z" fill="#377044"/>
<path d="M84.713 37.1211C84.8447 37.5143 84.9325 37.9075 84.9325 38.257C84.9325 38.6065 84.8447 38.9123 84.6253 39.0871C84.4497 39.3055 84.0986 39.3929 83.6158 39.3929H82.694V47.9557C82.2551 48.0868 81.8162 48.1305 81.3334 48.1305C80.3678 48.1305 79.885 47.6499 79.885 46.7324V39.3929H76.9443V47.9557C76.7248 48.0431 76.5054 48.0868 76.2859 48.1305C76.0665 48.1305 75.847 48.1305 75.6276 48.1305C74.6181 48.1305 74.0914 47.6499 74.0914 46.7324V38.8686C74.0914 38.2133 74.2669 37.7764 74.5742 37.5143C74.8814 37.2522 75.2325 37.1211 75.6715 37.1211H84.713Z" fill="#377044"/>
<path d="M97.1885 37.1342C97.3202 37.5274 97.408 37.9206 97.408 38.2701C97.408 38.6196 97.3202 38.9254 97.1007 39.1001C96.9252 39.3186 96.574 39.4059 96.0912 39.4059H95.1695V47.9688L91.1754 51.4638C90.7365 51.3328 90.3415 51.1143 89.9904 50.8522C89.6392 50.5901 89.4637 50.2406 89.4637 49.8474C89.4637 49.6289 89.5076 49.4542 89.6392 49.2794C89.727 49.1047 89.8587 48.9736 89.9904 48.8426L92.3166 46.9203V39.4059H89.332V47.9688C89.1125 48.0562 88.8931 48.0999 88.6736 48.1435C88.4542 48.1435 88.2347 48.1435 88.0153 48.1435C87.0058 48.1435 86.4791 47.663 86.4791 46.7018V38.8817C86.4791 38.3137 86.6107 37.8769 86.918 37.6147C87.1813 37.3089 87.5763 37.1342 88.0591 37.1342H97.1885ZM91.9216 32.7217C92.4044 32.7217 92.7994 32.8527 93.1066 33.1586C93.4139 33.4644 93.5455 33.8576 93.5455 34.3381C93.5455 34.8187 93.4139 35.1682 93.1066 35.474C92.7994 35.7798 92.4044 35.9109 91.9216 35.9109C91.4388 35.9109 91.0437 35.7798 90.7804 35.474C90.4732 35.1682 90.2976 34.8187 90.2976 34.3381C90.2976 33.8576 90.4732 33.4644 90.7804 33.1586C91.0437 32.8527 91.4388 32.7217 91.9216 32.7217Z" fill="#377044"/>
<path d="M77.5293 53.7617C78.4949 53.7617 79.3727 53.8928 80.1189 54.1549C80.9089 54.4607 81.5673 54.8539 82.094 55.3345C82.6207 55.8151 83.0157 56.4267 83.279 57.082C83.5863 57.781 83.718 58.48 83.718 59.2664C83.718 59.8343 83.6741 60.2275 83.4985 60.4897C83.3668 60.7518 83.1474 60.8829 82.7962 60.8829C82.6646 60.8829 82.5329 60.8392 82.4012 60.7955C82.2696 60.7955 82.1379 60.7081 82.094 60.6644C82.094 60.446 82.1379 60.2712 82.1379 60.0965C82.1818 59.878 82.1818 59.7033 82.1818 59.4848C82.1818 58.8295 82.0501 58.1742 81.8306 57.6499C81.6112 57.082 81.3039 56.6014 80.9089 56.2519C80.5139 55.8587 80.0311 55.5529 79.4605 55.3345C78.8899 55.116 78.2316 55.0287 77.5293 55.0287C76.8709 55.0287 76.2565 55.116 75.7298 55.3345C75.1592 55.5529 74.7203 55.8587 74.3253 56.2082C73.9302 56.6014 73.623 57.082 73.4035 57.6063C73.1402 58.1742 73.0524 58.7421 73.0524 59.4412C73.0524 59.6596 73.0963 59.9217 73.1402 60.2712C73.1841 60.6207 73.2719 60.9265 73.4035 61.2324C73.5352 61.145 73.6669 61.1013 73.7547 61.0576C73.8863 61.0139 74.018 60.9702 74.1058 60.9265C74.1058 60.7955 74.0619 60.6207 74.0619 60.446C74.0619 60.2712 74.0619 60.1402 74.0619 59.9654C74.0619 59.4412 74.1058 58.9606 74.2814 58.5237C74.4569 58.0868 74.6764 57.6936 74.9836 57.3878C75.247 57.082 75.5981 56.8636 76.037 56.6888C76.4759 56.5141 76.9148 56.4267 77.4415 56.4267C77.9682 56.4267 78.451 56.5141 78.8899 56.6888C79.3288 56.8636 79.68 57.1257 79.9872 57.4315C80.2945 57.781 80.5578 58.1742 80.7334 58.6548C80.9089 59.0916 80.9528 59.6159 80.9528 60.2275C80.9528 60.3586 80.9528 60.446 80.9528 60.577C80.9528 60.6644 80.9528 60.7955 80.9528 60.8829C81.699 61.145 82.2696 61.4945 82.7085 61.9751C83.1474 62.4993 83.3668 63.1109 83.3668 63.8099C83.3668 64.2468 83.279 64.5963 83.1474 64.9458C83.0157 65.2953 82.7962 65.5575 82.5329 65.8196C82.2696 66.038 81.9184 66.2128 81.5234 66.3438C81.1723 66.4749 80.7334 66.5623 80.2506 66.5623C79.7678 66.5623 79.3727 66.4749 78.9777 66.3438C78.5827 66.2128 78.2755 66.038 78.0121 65.8633C77.5732 66.0817 77.1343 66.2565 76.6954 66.3875C76.2126 66.4749 75.7298 66.5186 75.247 66.5186C74.1058 66.5186 73.1841 66.3002 72.5696 65.8196C71.9551 65.339 71.6479 64.64 71.6479 63.7663C71.6479 63.4168 71.6918 63.0673 71.8235 62.8051C71.9112 62.4993 72.0868 62.2372 72.2624 62.0187C72.0868 61.7566 71.9112 61.3634 71.7796 60.9265C71.604 60.4897 71.5601 59.9217 71.5601 59.2664C71.5601 58.3926 71.6918 57.5626 72.0429 56.9073C72.3502 56.2082 72.7891 55.6403 73.3158 55.1597C73.8425 54.6792 74.5008 54.3297 75.247 54.1112C75.9492 53.8491 76.7393 53.7617 77.5293 53.7617ZM73.1402 63.6789C73.1402 64.2031 73.3158 64.5963 73.7108 64.8585C74.0619 65.1206 74.5886 65.2516 75.247 65.2516C75.7737 65.2516 76.2565 65.208 76.7393 65.0332C77.1782 64.9021 77.5732 64.6837 77.9682 64.3779C78.3194 64.0721 78.6266 63.7226 78.8899 63.3294C79.1094 62.8925 79.3288 62.4119 79.4166 61.844C79.2411 61.8003 78.9777 61.8003 78.7144 61.7566C78.5827 62.2809 78.3632 62.6741 77.9682 62.9799C77.6171 63.2857 77.1343 63.4168 76.5198 63.4168C76.037 63.4168 75.5981 63.2857 75.247 63.0673C74.8958 62.8051 74.6325 62.4993 74.4569 62.0624C74.018 62.1935 73.7108 62.4119 73.4913 62.7177C73.2719 62.9799 73.1402 63.3294 73.1402 63.6789ZM79.5483 60.2275C79.5483 59.4412 79.3727 58.8295 79.0216 58.3926C78.6705 57.9558 78.1438 57.7373 77.4415 57.7373C76.7832 57.7373 76.2565 57.9558 75.8614 58.3926C75.5103 58.7858 75.2909 59.3975 75.2909 60.1402C75.4225 59.9217 75.642 59.7033 75.9053 59.5722C76.1687 59.3975 76.4759 59.3538 76.7832 59.3538C77.2221 59.3538 77.5732 59.4412 77.9243 59.6596C78.2316 59.878 78.451 60.1838 78.5827 60.5333C78.7583 60.577 78.8899 60.577 79.0655 60.6207C79.2411 60.6207 79.3727 60.6207 79.5483 60.6644C79.5483 60.577 79.5483 60.4897 79.5483 60.446C79.5483 60.4023 79.5483 60.3149 79.5483 60.2275ZM79.1972 65.0332C79.5044 65.1643 79.8555 65.2516 80.2067 65.2516C80.7334 65.2516 81.1284 65.1206 81.4356 64.8585C81.699 64.5963 81.8745 64.2031 81.8745 63.7226C81.8745 63.3731 81.7429 63.0236 81.5673 62.7614C81.3478 62.4993 81.0845 62.3246 80.7334 62.1935C80.6017 62.7177 80.4261 63.242 80.1628 63.7226C79.8994 64.2031 79.5922 64.64 79.1972 65.0332ZM75.9053 61.3634C75.9053 61.5382 75.9492 61.7129 76.0809 61.844C76.2126 61.9751 76.3881 62.0187 76.5637 62.0187C76.7832 62.0187 76.9148 61.9751 77.0465 61.844C77.1782 61.7129 77.266 61.5382 77.266 61.3634C77.266 61.145 77.1782 60.9702 77.0465 60.8392C76.9148 60.7518 76.7393 60.6644 76.5637 60.6644C76.3881 60.6644 76.2126 60.7518 76.0809 60.8392C75.9492 60.9702 75.9053 61.145 75.9053 61.3634Z" fill="#373435"/>
<path d="M92.2635 58.3337C92.6147 58.3337 92.9658 58.4211 93.273 58.5084C93.5803 58.6395 93.8436 58.8579 94.0631 59.0764C94.2825 59.3385 94.4581 59.6006 94.5459 59.9501C94.6776 60.2996 94.7653 60.6491 94.7653 61.086C94.7653 61.8287 94.5898 62.484 94.3264 63.0957C94.0631 63.6636 93.6242 64.1442 93.0975 64.5811C92.6147 64.9743 91.9563 65.2801 91.2102 65.4985C90.464 65.717 89.5862 65.8043 88.6645 65.8043H85.2848C85.2409 65.717 85.197 65.5859 85.1532 65.4985C85.1093 65.3674 85.0654 65.2364 85.0654 65.1053C85.0654 64.8869 85.1532 64.7121 85.2848 64.5811C85.4165 64.45 85.5921 64.3626 85.8554 64.3626C86.2943 64.3626 86.7332 64.4063 87.1722 64.4063C87.6111 64.4063 88.05 64.4063 88.5328 64.4063C89.9812 64.4063 91.0785 64.1442 91.9124 63.5762C92.7025 63.0083 93.0975 62.1782 93.0975 61.1734C93.0975 60.7365 93.0097 60.3433 92.7902 60.0812C92.6147 59.8191 92.3074 59.6443 91.8685 59.6443C91.6491 59.6443 91.4296 59.7317 91.254 59.8191C91.0346 59.9501 90.859 60.1249 90.7712 60.2996V62.8772C90.6396 62.9209 90.5079 62.9646 90.3762 62.9646C90.2445 63.0083 90.1129 63.0083 89.9373 63.0083C89.3667 63.0083 89.1034 62.7462 89.1034 62.1782V56.8046H86.9527V62.8772C86.821 62.9209 86.7332 62.9646 86.6016 62.9646C86.4699 63.0083 86.3382 63.0083 86.1627 63.0083C85.5921 63.0083 85.2848 62.7462 85.2848 62.1782V56.5425C85.2848 56.1493 85.4165 55.8872 85.5921 55.7124C85.7676 55.5813 85.9871 55.494 86.2504 55.494H93.273C93.4047 55.7124 93.4486 55.9308 93.4486 56.1493C93.4486 56.3677 93.3608 56.5425 93.2292 56.6299C93.1414 56.7609 92.9219 56.8046 92.6147 56.8046H90.7273V58.9016C90.859 58.7269 91.0785 58.5958 91.3418 58.5084C91.6052 58.3774 91.9124 58.3337 92.2635 58.3337ZM89.9373 52.4795C90.2445 52.4795 90.5079 52.5669 90.6835 52.7853C90.9029 52.9601 90.9907 53.2222 90.9907 53.528C90.9907 53.8338 90.9029 54.0959 90.6835 54.2707C90.5079 54.4455 90.2445 54.5765 89.9373 54.5765C89.6301 54.5765 89.3667 54.4455 89.1912 54.2707C89.0156 54.0959 88.9278 53.8338 88.9278 53.528C88.9278 53.2222 89.0156 52.9601 89.1912 52.7853C89.3667 52.5669 89.6301 52.4795 89.9373 52.4795Z" fill="#373435"/>
<path d="M104.253 55.5159C104.297 55.6033 104.341 55.6907 104.341 55.778C104.385 55.9091 104.385 55.9965 104.385 56.0839C104.385 56.3023 104.341 56.477 104.209 56.6081C104.078 56.6955 103.858 56.7829 103.595 56.7829H101.971V58.443C102.498 58.4867 102.937 58.5741 103.332 58.7488C103.771 58.9236 104.122 59.142 104.385 59.4041C104.692 59.71 104.912 60.0158 105.087 60.409C105.219 60.8022 105.307 61.1953 105.307 61.6759C105.307 62.3312 105.175 62.9429 104.912 63.4234C104.648 63.9477 104.297 64.3846 103.814 64.7341C103.288 65.0836 102.717 65.3457 101.971 65.5642C101.269 65.7389 100.435 65.8263 99.513 65.8263H95.9579C95.914 65.7389 95.8701 65.6078 95.8262 65.5205C95.7823 65.3894 95.7823 65.2583 95.7823 65.1273C95.7823 64.9088 95.8262 64.7341 95.9579 64.603C96.0895 64.4719 96.309 64.3846 96.5284 64.3846C97.0112 64.3846 97.494 64.4283 97.9769 64.4283C98.4158 64.4283 98.9425 64.4283 99.4692 64.4283C100.786 64.4283 101.795 64.1661 102.542 63.6856C103.288 63.205 103.639 62.506 103.639 61.5885C103.639 61.0206 103.463 60.5837 103.2 60.2779C102.893 59.9721 102.498 59.7536 101.971 59.71V60.2342C101.971 61.1517 101.708 61.8507 101.093 62.3312C100.523 62.8555 99.7325 63.1176 98.6791 63.1176C98.2402 63.1176 97.8452 63.0302 97.494 62.9429C97.1429 62.8118 96.8357 62.6807 96.5723 62.4623C96.309 62.2439 96.1334 62.0254 96.0017 61.7196C95.8262 61.4575 95.7823 61.1517 95.7823 60.8022C95.7823 60.3216 95.914 59.8847 96.1334 59.5352C96.3968 59.1857 96.7479 58.9236 97.1868 58.7488V56.5644C97.1868 56.2149 97.2746 55.9528 97.4502 55.778C97.5818 55.6033 97.8452 55.5159 98.1524 55.5159H100.303C100.171 55.1664 100.128 54.8169 100.128 54.4237C100.128 53.9868 100.215 53.5936 100.391 53.2441C100.566 52.8946 100.786 52.5888 101.137 52.3267C101.444 52.1082 101.839 51.8898 102.322 51.7587C102.761 51.6277 103.288 51.584 103.814 51.584C104.517 51.584 105.131 51.6714 105.658 51.8461C106.228 52.0646 106.711 52.3267 107.106 52.7199C107.501 53.0694 107.809 53.5063 107.984 54.0305C108.204 54.5548 108.335 55.1227 108.335 55.778V62.9429C108.072 62.9866 107.809 63.0302 107.545 63.0302C106.931 63.0302 106.667 62.7244 106.667 62.1565V55.8217C106.667 54.9043 106.404 54.2053 105.921 53.681C105.438 53.2004 104.736 52.9383 103.814 52.9383C103.2 52.9383 102.673 53.1131 102.278 53.4189C101.883 53.7247 101.708 54.1179 101.708 54.6421C101.708 54.9916 101.752 55.2538 101.883 55.5159H104.253ZM97.3624 60.7585C97.3624 61.108 97.4502 61.3701 97.7135 61.5449C97.9769 61.7196 98.328 61.807 98.723 61.807C99.2936 61.807 99.6886 61.6759 99.9959 61.3701C100.303 61.0643 100.479 60.6711 100.479 60.1468V59.6226H99.118C98.8547 59.6226 98.5913 59.6226 98.3719 59.6663C98.1963 59.71 97.9769 59.7973 97.8452 59.8847C97.6696 59.9721 97.5379 60.0595 97.4502 60.2342C97.4063 60.3653 97.3624 60.54 97.3624 60.7585ZM98.6791 58.443C98.8108 58.3993 98.9425 58.3993 99.0741 58.3993C99.2058 58.3993 99.3375 58.3993 99.4692 58.3993H100.479V56.7829H98.6791V58.443Z" fill="#373435"/>
<path d="M114.832 55.4248C115.402 55.4248 115.709 55.7306 115.709 56.2986V61.6285H119.221V55.5559C119.352 55.5122 119.484 55.4685 119.616 55.4685C119.747 55.4685 119.879 55.4248 120.011 55.4248C120.581 55.4248 120.889 55.7306 120.889 56.2986V62.1527C120.889 62.677 120.581 62.9828 120.011 62.9828H115.402C115.139 62.9828 114.875 62.8954 114.744 62.8081C114.568 62.677 114.48 62.5023 114.393 62.3275C114.217 62.5459 113.998 62.7207 113.69 62.8518C113.427 63.0265 113.032 63.1139 112.637 63.1139C111.891 63.1139 111.32 62.8954 110.925 62.5023C110.53 62.1091 110.311 61.5411 110.311 60.8421V55.5559C110.442 55.5122 110.574 55.4685 110.706 55.4685C110.837 55.4685 111.013 55.4248 111.145 55.4248C111.671 55.4248 111.979 55.7306 111.979 56.2986V60.711C111.979 61.0169 112.066 61.279 112.242 61.4537C112.418 61.6722 112.681 61.7596 112.988 61.7596C113.208 61.7596 113.427 61.6722 113.603 61.5411C113.822 61.4101 113.954 61.1916 113.998 60.9732V55.5559C114.129 55.5122 114.261 55.4685 114.437 55.4685C114.568 55.4685 114.7 55.4248 114.832 55.4248Z" fill="#373435"/>
<path d="M129.934 55.5088C130.066 55.7272 130.11 55.9457 130.11 56.1641C130.11 56.3825 130.022 56.5573 129.89 56.6447C129.803 56.7757 129.583 56.8194 129.276 56.8194H128.53V62.9357C128.266 62.9794 128.003 63.0231 127.74 63.0231C127.169 63.0231 126.862 62.761 126.862 62.1931V56.8194H124.624V62.9357C124.36 62.9794 124.097 63.0231 123.833 63.0231C123.219 63.0231 122.956 62.761 122.956 62.1931V56.5573C122.956 56.1641 123.043 55.902 123.219 55.7272C123.395 55.5962 123.614 55.5088 123.921 55.5088H129.934Z" fill="#373435"/>
</svg>
