<svg width="130" height="103" viewBox="0 0 130 103" fill="none" xmlns="http://www.w3.org/2000/svg">
<path fill-rule="evenodd" clip-rule="evenodd" d="M40.0534 55.6066C40.0534 58.1405 40.0095 60.7181 40.0534 63.252C40.0534 64.3005 39.8779 65.1742 38.7806 65.5674C37.6833 65.9606 36.9371 65.4364 36.2349 64.6937C35.3571 63.6888 34.5231 62.6403 33.5136 61.7666C33.0747 61.4171 32.1969 61.1986 31.6702 61.3734C31.2313 61.5044 30.7924 62.2908 30.7485 62.8151C30.7046 63.2956 31.1874 63.8636 31.5385 64.3005C34.0842 67.1839 36.586 70.0673 38.0783 73.6934C38.7367 75.3535 40.0973 76.3583 41.8969 76.5768C42.9941 76.7515 44.1792 76.8389 45.3204 76.8389C49.1389 76.7952 52.0796 74.6982 52.4307 70.941C52.8697 66.6159 52.6941 62.2471 52.6941 57.8783C52.6941 57.0046 51.9479 56.4803 51.0701 56.4803C50.2362 56.4803 49.6217 57.0483 49.49 57.922C49.4023 58.5773 49.5339 59.32 49.4023 60.019C49.3584 60.3686 49.0511 60.9802 48.7878 61.0239C48.0416 61.1112 48.0416 60.4559 48.0416 59.9317C48.0416 58.3589 48.0855 56.7861 48.0416 55.2134C47.9977 53.9027 47.0321 53.1163 45.9348 53.4222C45.057 53.728 44.7498 54.3833 44.7498 55.2134C44.7498 56.8735 44.7498 58.49 44.7059 60.1064C44.7059 60.4122 44.4864 60.7617 44.267 61.0239C44.2231 61.1112 43.7403 61.0239 43.6964 60.9365C43.5208 60.587 43.3892 60.1938 43.3892 59.8443C43.3453 56.3493 43.3453 52.8979 43.3453 49.4466C43.3453 48.6602 43.5208 47.8301 43.3014 47.1311C43.1258 46.5632 42.5552 45.8641 42.0285 45.6894C41.5896 45.5146 40.7996 45.9078 40.4484 46.301C40.1412 46.6505 40.0534 47.3495 40.0534 47.8738C40.0095 50.4514 40.0534 53.029 40.0534 55.6066ZM44.7498 52.2426C47.6466 51.5436 49.0072 52.4173 49.5778 55.3444C49.8412 55.3007 50.0606 55.2134 50.2801 55.1697C52.2991 54.6891 54.1425 55.9998 54.1425 58.1405C54.1864 62.2471 54.2303 66.3538 54.0108 70.4168C53.7914 74.6982 50.7629 77.5816 46.5493 78.1496C44.4864 78.4117 42.4674 78.3243 40.4923 77.7127C38.9561 77.2321 37.6394 76.271 37.0249 74.7856C35.4448 71.0284 32.8991 67.9266 30.1779 64.9558C28.9489 63.5578 28.9928 61.6355 30.2657 60.4996C31.6263 59.32 33.5136 59.4948 34.7865 60.9365C35.6204 61.8539 36.4543 62.7714 37.3322 63.6888C37.5955 63.9073 37.9466 64.0383 38.2539 64.2131C38.3856 63.8636 38.6489 63.5141 38.6489 63.1646C38.6928 58.9705 38.6928 54.7328 38.6928 50.5388C38.6928 49.3592 38.6489 48.1796 38.6928 47C38.7367 45.3836 40.0095 44.204 41.6335 44.1603C43.2575 44.1166 44.6181 45.3399 44.7059 47C44.7498 47.8738 44.7498 48.7476 44.7498 49.6213C44.7498 50.4951 44.7498 51.3251 44.7498 52.2426Z" fill="#F58B71"/>
<path fill-rule="evenodd" clip-rule="evenodd" d="M40.0534 55.6066C40.0534 58.1405 40.0095 60.7181 40.0534 63.252C40.0534 64.3005 39.8779 65.1742 38.7806 65.5674C37.6833 65.9606 36.9371 65.4364 36.2349 64.6937C35.3571 63.6888 34.5231 62.6403 33.5136 61.7666C33.0747 61.4171 32.1969 61.1986 31.6702 61.3734C31.2313 61.5044 30.7924 62.2908 30.7485 62.8151C30.7046 63.2956 31.1874 63.8636 31.5385 64.3005C34.0842 67.1839 36.586 70.0673 38.0783 73.6934C38.7367 75.3535 40.0973 76.3583 41.8969 76.5768C42.9941 76.7515 44.1792 76.8389 45.3204 76.8389C49.1389 76.7952 52.0796 74.6982 52.4307 70.941C52.8697 66.6159 52.6941 62.2471 52.6941 57.8783C52.6941 57.0046 51.9479 56.4803 51.0701 56.4803C50.2362 56.4803 49.6217 57.0483 49.49 57.922C49.4023 58.5773 49.5339 59.32 49.4023 60.019C49.3584 60.3686 49.0511 60.9802 48.7878 61.0239C48.0416 61.1112 48.0416 60.4559 48.0416 59.9317C48.0416 58.3589 48.0855 56.7861 48.0416 55.2134C47.9977 53.9027 47.0321 53.1163 45.9348 53.4222C45.057 53.728 44.7498 54.3833 44.7498 55.2134C44.7498 56.8735 44.7498 58.49 44.7059 60.1064C44.7059 60.4122 44.4864 60.7617 44.267 61.0239C44.2231 61.1112 43.7403 61.0239 43.6964 60.9365C43.5208 60.587 43.3892 60.1938 43.3892 59.8443C43.3453 56.3493 43.3453 52.8979 43.3453 49.4466C43.3453 48.6602 43.5208 47.8301 43.3014 47.1311C43.1258 46.5632 42.5552 45.8641 42.0285 45.6894C41.5896 45.5146 40.7996 45.9078 40.4484 46.301C40.1412 46.6505 40.0534 47.3495 40.0534 47.8738C40.0095 50.4514 40.0534 53.029 40.0534 55.6066ZM44.7498 52.2426C47.6466 51.5436 49.0072 52.4173 49.5778 55.3444C49.8412 55.3007 50.0606 55.2134 50.2801 55.1697C52.2991 54.6891 54.1425 55.9998 54.1425 58.1405C54.1864 62.2471 54.2303 66.3538 54.0108 70.4168C53.7914 74.6982 50.7629 77.5816 46.5493 78.1496C44.4864 78.4117 42.4674 78.3243 40.4923 77.7127C38.9561 77.2321 37.6394 76.271 37.0249 74.7856C35.4448 71.0284 32.8991 67.9266 30.1779 64.9558C28.9489 63.5578 28.9928 61.6355 30.2657 60.4996C31.6263 59.32 33.5136 59.4948 34.7865 60.9365C35.6204 61.8539 36.4543 62.7714 37.3322 63.6888C37.5955 63.9073 37.9466 64.0383 38.2539 64.2131C38.3856 63.8636 38.6489 63.5141 38.6489 63.1646C38.6928 58.9705 38.6928 54.7328 38.6928 50.5388C38.6928 49.3592 38.6489 48.1796 38.6928 47C38.7367 45.3836 40.0095 44.204 41.6335 44.1603C43.2575 44.1166 44.6181 45.3399 44.7059 47C44.7498 47.8738 44.7498 48.7476 44.7498 49.6213C44.7498 50.4951 44.7498 51.3251 44.7498 52.2426Z" stroke="#F58B71" stroke-width="0.0135276"/>
<path fill-rule="evenodd" clip-rule="evenodd" d="M23.0259 36.32C26.1421 36.2763 26.0104 36.2326 25.9666 39.2471C25.9666 40.6888 25.791 40.8636 24.2987 40.9072C23.3331 40.9072 22.3236 40.9072 21.3141 40.8636C21.0947 40.8636 20.8313 40.9509 20.6558 40.8199C19.2074 40.0335 19.9974 38.6355 19.8657 37.4559C19.7779 36.6695 20.3924 36.32 21.1386 36.32C21.7969 36.32 22.4114 36.32 23.0259 36.32Z" fill="#F58B71"/>
<path fill-rule="evenodd" clip-rule="evenodd" d="M23.0259 36.32C26.1421 36.2763 26.0104 36.2326 25.9666 39.2471C25.9666 40.6888 25.791 40.8636 24.2987 40.9072C23.3331 40.9072 22.3236 40.9072 21.3141 40.8636C21.0947 40.8636 20.8313 40.9509 20.6558 40.8199C19.2074 40.0335 19.9974 38.6355 19.8657 37.4559C19.7779 36.6695 20.3924 36.32 21.1386 36.32C21.7969 36.32 22.4114 36.32 23.0259 36.32Z" stroke="#F58B71" stroke-width="0.0135276"/>
<path fill-rule="evenodd" clip-rule="evenodd" d="M32.2345 40.9162C28.9427 40.9162 29.2938 41.091 29.2938 37.9018C29.2938 36.5911 29.5133 36.329 30.83 36.329C31.8834 36.2853 32.9807 36.329 34.034 36.329C34.9557 36.329 35.3947 36.7222 35.3508 37.6833C35.3069 38.2513 35.3508 38.8629 35.3508 39.4308C35.3069 40.6541 35.0874 40.8725 33.8146 40.9162C33.2879 40.9162 32.7612 40.9162 32.2345 40.9162Z" fill="#F58B71"/>
<path fill-rule="evenodd" clip-rule="evenodd" d="M32.2345 40.9162C28.9427 40.9162 29.2938 41.091 29.2938 37.9018C29.2938 36.5911 29.5133 36.329 30.83 36.329C31.8834 36.2853 32.9807 36.329 34.034 36.329C34.9557 36.329 35.3947 36.7222 35.3508 37.6833C35.3069 38.2513 35.3508 38.8629 35.3508 39.4308C35.3069 40.6541 35.0874 40.8725 33.8146 40.9162C33.2879 40.9162 32.7612 40.9162 32.2345 40.9162Z" stroke="#F58B71" stroke-width="0.0135276"/>
<path fill-rule="evenodd" clip-rule="evenodd" d="M41.5753 40.9017C38.3713 40.9017 38.6785 41.0764 38.6785 37.9309C38.6785 36.5329 38.8979 36.3145 40.3463 36.3145C41.3997 36.3145 42.4092 36.3145 43.4626 36.3145C44.2526 36.3145 44.7354 36.664 44.6915 37.494C44.6915 38.193 44.7354 38.892 44.7354 39.5911C44.7354 40.5085 44.2526 40.9454 43.3309 40.9017C42.7603 40.858 42.1459 40.9017 41.5753 40.9017Z" fill="#F58B71"/>
<path fill-rule="evenodd" clip-rule="evenodd" d="M41.5753 40.9017C38.3713 40.9017 38.6785 41.0764 38.6785 37.9309C38.6785 36.5329 38.8979 36.3145 40.3463 36.3145C41.3997 36.3145 42.4092 36.3145 43.4626 36.3145C44.2526 36.3145 44.7354 36.664 44.6915 37.494C44.6915 38.193 44.7354 38.892 44.7354 39.5911C44.7354 40.5085 44.2526 40.9454 43.3309 40.9017C42.7603 40.858 42.1459 40.9017 41.5753 40.9017Z" stroke="#F58B71" stroke-width="0.0135276"/>
<path fill-rule="evenodd" clip-rule="evenodd" d="M22.9029 48.6394H22.7712C19.5671 48.6831 19.8305 48.9015 19.8744 45.2754C19.8744 44.5764 20.2694 44.1395 21.0594 44.1395C22.2884 44.1395 23.5613 44.0958 24.7902 44.1395C25.8875 44.1395 26.0192 44.5327 26.0192 47.154C25.9753 47.9841 25.8875 48.6831 24.7902 48.6394C24.1318 48.6394 23.5174 48.6394 22.9029 48.6394Z" fill="#F58B71"/>
<path fill-rule="evenodd" clip-rule="evenodd" d="M22.9029 48.6394H22.7712C19.5671 48.6831 19.8305 48.9015 19.8744 45.2754C19.8744 44.5764 20.2694 44.1395 21.0594 44.1395C22.2884 44.1395 23.5613 44.0958 24.7902 44.1395C25.8875 44.1395 26.0192 44.5327 26.0192 47.154C25.9753 47.9841 25.8875 48.6831 24.7902 48.6394C24.1318 48.6394 23.5174 48.6394 22.9029 48.6394Z" stroke="#F58B71" stroke-width="0.0135276"/>
<path fill-rule="evenodd" clip-rule="evenodd" d="M22.7993 56.4279C22.2726 56.4279 21.702 56.3843 21.1314 56.4279C20.1658 56.5153 19.8147 55.9911 19.8147 55.1173C19.8147 51.666 19.5953 51.9718 22.7993 51.9718C23.4577 51.9718 24.116 51.9718 24.7744 51.9718C25.6522 51.9718 26.0033 52.365 25.9594 53.195C25.9594 56.7338 26.3984 56.4716 22.7993 56.4279Z" fill="#F58B71"/>
<path fill-rule="evenodd" clip-rule="evenodd" d="M22.7993 56.4279C22.2726 56.4279 21.702 56.3843 21.1314 56.4279C20.1658 56.5153 19.8147 55.9911 19.8147 55.1173C19.8147 51.666 19.5953 51.9718 22.7993 51.9718C23.4577 51.9718 24.116 51.9718 24.7744 51.9718C25.6522 51.9718 26.0033 52.365 25.9594 53.195C25.9594 56.7338 26.3984 56.4716 22.7993 56.4279Z" stroke="#F58B71" stroke-width="0.0135276"/>
<path fill-rule="evenodd" clip-rule="evenodd" d="M32.2381 48.6588C29.1219 48.6588 29.2535 49.052 29.2974 45.7754C29.2974 44.4211 29.5169 44.1589 30.8775 44.1152C31.9309 44.1152 32.9843 44.1152 34.0815 44.1589C34.9155 44.1589 35.3983 44.5084 35.3544 45.4259C35.3105 46.0375 35.3105 46.6491 35.3544 47.3045C35.4422 48.353 34.9155 48.7462 33.906 48.7025C33.3354 48.6588 32.7648 48.6588 32.2381 48.6588Z" fill="#F58B71"/>
<path fill-rule="evenodd" clip-rule="evenodd" d="M32.2381 48.6588C29.1219 48.6588 29.2535 49.052 29.2974 45.7754C29.2974 44.4211 29.5169 44.1589 30.8775 44.1152C31.9309 44.1152 32.9843 44.1152 34.0815 44.1589C34.9155 44.1589 35.3983 44.5084 35.3544 45.4259C35.3105 46.0375 35.3105 46.6491 35.3544 47.3045C35.4422 48.353 34.9155 48.7462 33.906 48.7025C33.3354 48.6588 32.7648 48.6588 32.2381 48.6588Z" stroke="#F58B71" stroke-width="0.0135276"/>
<path fill-rule="evenodd" clip-rule="evenodd" d="M32.2345 56.4319C28.9427 56.4756 29.2938 56.6504 29.2938 53.5485C29.2938 52.1068 29.4255 51.9758 30.9178 51.9758C31.8834 51.9758 32.8929 51.9758 33.9024 51.9758C34.1219 51.9758 34.3852 51.9321 34.5608 52.0195C36.1409 52.8058 35.0875 54.2475 35.3069 55.3834C35.4825 56.0824 34.9119 56.4319 34.2096 56.4319C33.5513 56.4319 32.8929 56.4319 32.2345 56.4319Z" fill="#F58B71"/>
<path fill-rule="evenodd" clip-rule="evenodd" d="M32.2345 56.4319C28.9427 56.4756 29.2938 56.6504 29.2938 53.5485C29.2938 52.1068 29.4255 51.9758 30.9178 51.9758C31.8834 51.9758 32.8929 51.9758 33.9024 51.9758C34.1219 51.9758 34.3852 51.9321 34.5608 52.0195C36.1409 52.8058 35.0875 54.2475 35.3069 55.3834C35.4825 56.0824 34.9119 56.4319 34.2096 56.4319C33.5513 56.4319 32.8929 56.4319 32.2345 56.4319Z" stroke="#F58B71" stroke-width="0.0135276"/>
<path fill-rule="evenodd" clip-rule="evenodd" d="M38.4873 90.8332C44.2754 93.0264 50.6062 94.235 57.2407 94.235C65.4483 94.235 73.1732 92.3564 80.0203 89.0798C71.6809 95.3709 61.2787 99.128 49.9547 99.128C43.5441 99.128 37.4154 97.9199 31.7861 95.72L38.4873 90.8332ZM24.441 82.7546C14.0099 74.2466 7.42396 61.7522 7.42396 47.8383C7.42396 22.2372 29.7208 1.4417 57.2407 1.4417C59.2597 1.4417 61.2787 1.57277 63.2099 1.79121C58.9963 0.611632 54.5633 0 49.9547 0C22.4787 0 0.181885 22.1935 0.181885 49.5859C0.181885 67.0372 9.26065 82.3894 22.9706 91.2157L24.441 82.7546Z" fill="#F47D5C"/>
<path d="M28.4617 79.6172L21.5269 102.073L39.9173 85.1219L28.4617 79.6172Z" fill="#377044"/>
<path fill-rule="evenodd" clip-rule="evenodd" d="M15.8386 48.6537C15.8386 69.755 33.0439 86.837 54.1995 86.837C67.8608 86.837 79.8452 79.7433 86.6408 69.0516H91.5322C84.2942 82.1564 70.2946 91.031 54.1995 91.031C30.6738 91.031 11.625 72.0705 11.625 48.6537C11.625 25.2369 30.6738 6.27637 54.1995 6.27637C70.2911 6.27637 84.288 15.1471 91.5274 28.2471H86.6353C79.8387 17.5602 67.8571 10.4704 54.1995 10.4704C33.0439 10.4704 15.8386 27.5524 15.8386 48.6537Z" fill="#377044"/>
<path d="M72.8346 31.0586C73.0102 31.4081 73.098 31.8013 73.098 32.1508C73.098 32.5003 72.9663 32.8061 72.7907 32.9809C72.5713 33.1993 72.2201 33.2867 71.7373 33.2867H70.7278V41.8932C70.5084 41.9369 70.2889 41.9806 70.0695 42.0243C69.8061 42.0243 69.5867 42.068 69.3672 42.068C68.3577 42.068 67.8749 41.5437 67.8749 40.5826V33.2867H64.8464C63.6174 33.2867 62.6079 33.5488 61.8618 34.0294C61.1156 34.5536 60.6767 35.2526 60.6328 36.1264C60.8962 35.8643 61.2034 35.6458 61.5545 35.4711C61.9057 35.2963 62.3007 35.2526 62.7396 35.2526C63.2663 35.2526 63.7052 35.2963 64.1441 35.4711C64.583 35.6458 64.9342 35.8643 65.2414 36.1701C65.5048 36.4759 65.7681 36.8254 65.8998 37.2186C66.0753 37.6555 66.1631 38.0924 66.1631 38.6166C66.1631 39.1409 66.0753 39.6214 65.8998 40.0583C65.7242 40.4515 65.4609 40.8447 65.1097 41.1505C64.8025 41.4563 64.3636 41.7185 63.9247 41.8932C63.4419 42.068 62.9152 42.1553 62.3885 42.1553C61.7301 42.1553 61.1156 42.0243 60.5889 41.7621C60.0183 41.5437 59.5794 41.1942 59.1844 40.7573C58.8333 40.2768 58.526 39.7525 58.3066 39.0972C58.131 38.4856 58.0432 37.7865 58.0432 37.0002C58.0432 36.039 58.1749 35.209 58.4821 34.4663C58.7894 33.7672 59.2283 33.1119 59.7989 32.6314C60.4133 32.1071 61.1156 31.7139 61.9495 31.4518C62.7835 31.1897 63.7491 31.0586 64.8025 31.0586H72.8346ZM62.2129 37.2623C61.8179 37.2623 61.5106 37.3934 61.2473 37.6555C61.0278 37.8739 60.8962 38.2234 60.8962 38.6166C60.8962 39.0098 61.0278 39.3593 61.2473 39.5778C61.5106 39.8399 61.8179 39.9709 62.2129 39.9709C62.6079 39.9709 62.959 39.8399 63.1785 39.5778C63.4419 39.3593 63.5296 39.0098 63.5296 38.6166C63.5296 38.2234 63.398 37.8739 63.1785 37.6555C62.9152 37.3934 62.6079 37.2623 62.2129 37.2623Z" fill="#377044"/>
<path d="M82.3252 30.8974C83.2908 30.8974 83.7298 31.378 83.7298 32.3391V39.6787H86.4949C86.451 39.1544 86.4071 38.6302 86.3632 38.0622C86.3193 37.4943 86.3193 36.97 86.3193 36.4021C86.3193 34.4361 86.7144 32.9944 87.5044 32.1207C88.3383 31.2469 89.4356 30.81 90.884 30.81C91.5863 30.81 92.2008 30.8974 92.7713 31.1595C93.3419 31.378 93.8247 31.7275 94.2637 32.1644C94.6587 32.6012 94.9659 33.1255 95.1854 33.7371C95.4487 34.3488 95.5365 35.0478 95.5365 35.7905C95.5365 37.5817 95.0976 38.9797 94.2198 40.0719C93.3419 41.1204 91.9813 41.732 90.1818 41.8631C90.4012 42.2563 90.7085 42.5184 91.1035 42.6932C91.4985 42.8242 91.9374 42.9116 92.4641 42.9116C92.5958 42.9116 92.7275 42.9116 92.8591 42.9116C92.9908 42.9116 93.1225 42.9116 93.2103 42.9116C93.298 42.999 93.3419 43.13 93.3858 43.3048C93.4297 43.4795 93.4736 43.6543 93.4736 43.7854C93.4736 44.2659 93.3419 44.5717 93.0786 44.7902C92.8152 44.9649 92.4202 45.0523 91.9374 45.0523C91.8496 45.0523 91.718 45.0523 91.6302 45.0523C91.5424 45.0523 91.4546 45.0523 91.4107 45.0523C90.6646 46.0134 89.6551 46.7561 88.3822 47.3241C87.0655 47.892 85.5732 48.1542 83.8175 48.1542C82.3252 48.1542 81.0085 47.9357 79.7795 47.4988C78.5945 47.0183 77.5411 46.4066 76.7072 45.5766C75.8293 44.7465 75.171 43.7854 74.732 42.6058C74.2492 41.4699 74.0298 40.1593 74.0298 38.7176C74.0298 37.8875 74.0737 37.1448 74.2054 36.4895C74.2931 35.7905 74.4687 35.1788 74.6443 34.6546C74.8637 34.0866 75.0832 33.6061 75.3465 33.1692C75.566 32.776 75.8293 32.3828 76.1366 32.077C76.3999 31.7275 76.751 31.378 77.1022 31.1158C77.4533 30.8537 77.8483 30.7227 78.2872 30.7227C78.6823 30.7227 78.9456 30.8537 79.209 31.1595C79.4284 31.4217 79.604 31.7712 79.6918 32.208C79.2967 32.5139 78.9456 32.8634 78.5945 33.3002C78.2433 33.6934 77.98 34.1303 77.7167 34.6546C77.4533 35.1788 77.2777 35.7905 77.1461 36.4895C76.9705 37.1885 76.9266 37.9312 76.9266 38.8486C76.9266 39.8971 77.1022 40.8146 77.4094 41.6883C77.7167 42.5621 78.1995 43.3048 78.8139 43.9164C79.3845 44.5281 80.1307 45.0086 80.9646 45.3144C81.8424 45.6639 82.7641 45.8387 83.8175 45.8387C85.0465 45.8387 86.0999 45.6639 86.9777 45.3144C87.8994 45.0086 88.5578 44.5717 89.0406 44.1349C88.2067 43.5669 87.5483 42.8679 87.0655 41.9068H82.4569C81.4474 41.9068 80.9207 41.4262 80.9207 40.4214V31.0722C81.1402 31.0285 81.3596 30.9848 81.623 30.9411C81.8424 30.9411 82.1058 30.8974 82.3252 30.8974ZM89.3039 39.6787C90.3573 39.6787 91.1474 39.3292 91.7619 38.7176C92.3324 38.0622 92.6397 37.1011 92.6397 35.8341C92.6397 34.873 92.4641 34.2177 92.1569 33.7808C91.8935 33.3439 91.4546 33.1255 90.884 33.1255C90.5768 33.1255 90.2695 33.2129 90.0501 33.3876C89.8306 33.5624 89.6551 33.7808 89.5234 34.0866C89.3917 34.3924 89.3039 34.742 89.26 35.1351C89.2162 35.572 89.1723 36.0089 89.1723 36.4895C89.1723 37.1448 89.1723 37.7127 89.2162 38.237C89.2162 38.7612 89.26 39.2418 89.3039 39.6787Z" fill="#377044"/>
<path d="M114.526 30.9297C115.535 30.9297 116.018 31.4103 116.018 32.3714V43.5555C116.018 44.5166 115.535 45.0409 114.526 45.0409H110.576C109.961 46.3515 108.996 47.4001 107.679 48.0991C106.362 48.8418 104.694 49.1913 102.807 49.1913C101.885 49.1913 101.051 49.1039 100.305 48.9291C99.5591 48.7544 98.9007 48.5359 98.4179 48.2301C97.8912 47.8806 97.4962 47.4874 97.189 47.0506C96.9256 46.57 96.7939 46.0894 96.7939 45.4778C96.7939 44.6914 97.0573 44.0798 97.584 43.6429C98.1107 43.206 98.8568 42.9876 99.7785 42.9876H108.293C108.381 42.6818 108.425 42.4196 108.425 42.1575C108.469 41.8954 108.469 41.5896 108.469 41.2837C108.469 40.2789 108.293 39.4488 107.898 38.8372C107.503 38.1819 106.933 37.7887 106.231 37.6139V37.9635C106.231 38.6188 106.099 39.1867 105.879 39.711C105.66 40.2352 105.309 40.6721 104.914 41.0216C104.475 41.3711 103.948 41.6769 103.334 41.8517C102.719 42.0701 102.017 42.1575 101.271 42.1575C100.612 42.1575 99.998 42.0701 99.4713 41.8954C98.9007 41.7206 98.4618 41.5022 98.0668 41.1964C97.6718 40.9342 97.4084 40.541 97.189 40.1479C96.9695 39.711 96.8817 39.2304 96.8817 38.7498C96.8817 38.0508 97.0573 37.4829 97.3645 36.9586C97.7157 36.4781 98.1985 36.0849 98.8129 35.8227V32.7646C98.8129 32.1966 98.9446 31.8034 99.2518 31.4976C99.5152 31.1918 99.9102 31.0608 100.437 31.0608H109.435C109.522 31.1918 109.61 31.3666 109.61 31.5413C109.654 31.7161 109.654 31.8908 109.654 32.0656C109.654 32.4151 109.566 32.7209 109.391 32.8956C109.215 33.1141 108.864 33.2015 108.381 33.2015H106.187V35.4295C107.021 35.4732 107.723 35.6917 108.337 35.9975C108.996 36.3033 109.522 36.6965 109.961 37.2208C110.4 37.7013 110.751 38.313 110.971 39.012C111.19 39.711 111.322 40.4537 111.322 41.3274C111.322 41.5896 111.322 41.8517 111.278 42.1575C111.234 42.4196 111.19 42.6818 111.146 42.9876H113.165V31.1044C113.385 31.0608 113.604 31.0171 113.824 30.9734C114.043 30.9734 114.306 30.9297 114.526 30.9297ZM100.13 45.0409C99.9102 45.0409 99.7346 45.0846 99.603 45.2157C99.4713 45.303 99.3835 45.4778 99.3835 45.6525C99.3835 46.0457 99.6908 46.3952 100.349 46.6137C100.964 46.8758 101.841 47.0069 102.983 47.0069C104.036 47.0069 105.002 46.8321 105.792 46.4826C106.582 46.1331 107.152 45.6525 107.547 44.9972C107.064 44.9972 106.582 45.0409 106.055 45.0409C105.572 45.0409 105.089 45.0409 104.563 45.0409H100.13ZM101.403 35.2548C101.534 35.2548 101.71 35.2548 101.841 35.2548C102.017 35.2548 102.193 35.2548 102.368 35.2548H103.685V33.2015H101.403V35.2548ZM99.5591 38.7061C99.5591 39.143 99.7346 39.4488 100.042 39.6673C100.349 39.8857 100.788 40.0168 101.359 40.0168C102.061 40.0168 102.631 39.7983 103.07 39.4488C103.465 39.0557 103.685 38.4877 103.685 37.7887V37.3081H101.798C101.095 37.3081 100.525 37.3955 100.13 37.6139C99.7346 37.8324 99.5591 38.1819 99.5591 38.7061Z" fill="#377044"/>
<path d="M76.8742 53.6729C77.8398 53.6729 78.7176 53.8039 79.4638 54.1097C80.2099 54.3719 80.8683 54.7651 81.395 55.2456C81.9217 55.7262 82.3606 56.3378 82.624 56.9931C82.8873 57.6921 83.0629 58.4348 83.0629 59.2212C83.0629 59.7455 82.9751 60.1824 82.8434 60.4008C82.7117 60.6629 82.4484 60.794 82.1411 60.794C82.0095 60.794 81.8778 60.794 81.7461 60.7503C81.5706 60.7066 81.4828 60.6629 81.395 60.5756C81.4389 60.4008 81.4828 60.1824 81.4828 60.0076C81.4828 59.8329 81.5267 59.6144 81.5267 59.396C81.5267 58.7407 81.395 58.129 81.1755 57.5611C80.9561 57.0368 80.6488 56.5563 80.2538 56.1631C79.8588 55.7699 79.3321 55.4641 78.7615 55.2456C78.1909 55.0709 77.5765 54.9398 76.8303 54.9398C76.2158 54.9398 75.6013 55.0709 75.0308 55.2456C74.5041 55.4641 74.0213 55.7699 73.6262 56.1631C73.2312 56.5563 72.924 56.9931 72.7045 57.5611C72.4851 58.0853 72.3534 58.697 72.3534 59.3523C72.3534 59.5707 72.3973 59.8765 72.4412 60.226C72.4851 60.5319 72.6167 60.8814 72.7484 61.1435C72.8801 61.0998 72.9679 61.0124 73.0995 60.9687C73.2312 60.9251 73.319 60.8814 73.4507 60.8377C73.4068 60.7066 73.4068 60.5319 73.4068 60.3571C73.3629 60.226 73.3629 60.0513 73.3629 59.9202C73.3629 59.3523 73.4507 58.8717 73.6262 58.4348C73.7579 57.998 73.9774 57.6485 74.2846 57.3426C74.5918 56.9931 74.943 56.7747 75.3819 56.5999C75.7769 56.4689 76.2597 56.3815 76.7425 56.3815C77.3131 56.3815 77.7959 56.4689 78.2348 56.6436C78.6298 56.8184 79.0249 57.0368 79.3321 57.3863C79.6393 57.6921 79.8588 58.0853 80.0344 58.5659C80.2099 59.0465 80.2977 59.5707 80.2977 60.1387C80.2977 60.2697 80.2977 60.4008 80.2977 60.4882C80.2977 60.6192 80.2977 60.7066 80.2538 60.8377C81 61.0561 81.6145 61.4056 82.0534 61.9299C82.4923 62.4104 82.7117 63.0221 82.7117 63.7211C82.7117 64.158 82.624 64.5512 82.4923 64.857C82.3167 65.2065 82.1411 65.5123 81.8339 65.7307C81.5706 65.9492 81.2633 66.1676 80.8683 66.2987C80.4733 66.3861 80.0344 66.4734 79.5516 66.4734C79.1126 66.4734 78.7176 66.3861 78.3226 66.255C77.9276 66.1239 77.5765 65.9492 77.3131 65.7744C76.9181 65.9929 76.4792 66.1676 75.9964 66.2987C75.5136 66.3861 75.0308 66.4734 74.5918 66.4734C73.4068 66.4734 72.529 66.2113 71.9145 65.7307C71.2561 65.2502 70.9489 64.5512 70.9489 63.6774C70.9489 63.3279 71.0366 63.0221 71.1244 62.7163C71.2561 62.4104 71.3878 62.1483 71.5633 61.9299C71.3878 61.6677 71.2561 61.3182 71.0805 60.8377C70.9489 60.4008 70.8611 59.8765 70.8611 59.1775C70.8611 58.3038 71.0366 57.5174 71.3439 56.8184C71.6511 56.1194 72.09 55.5514 72.6606 55.0709C73.1873 54.634 73.8018 54.2845 74.548 54.0224C75.2941 53.8039 76.0403 53.6729 76.8742 53.6729ZM72.4851 63.6337C72.4851 64.1143 72.6606 64.5075 73.0118 64.7696C73.4068 65.0317 73.9335 65.2065 74.5918 65.2065C75.1185 65.2065 75.6013 65.1191 76.0403 64.9443C76.5231 64.8133 76.9181 64.5948 77.2692 64.289C77.6203 64.0269 77.9276 63.6774 78.1909 63.2405C78.4543 62.8036 78.6298 62.3231 78.7615 61.7988C78.5421 61.7551 78.3226 61.7114 78.0154 61.7114C77.9276 62.192 77.6642 62.5852 77.3131 62.891C76.9181 63.1968 76.4353 63.3279 75.8647 63.3279C75.338 63.3279 74.943 63.2405 74.5918 62.9784C74.1968 62.7599 73.9335 62.4104 73.7579 62.0173C73.319 62.1046 73.0118 62.3231 72.7923 62.6289C72.5728 62.891 72.4851 63.2405 72.4851 63.6337ZM78.8932 60.1387C78.8932 59.3523 78.7176 58.7843 78.3665 58.3038C77.9715 57.8669 77.4448 57.6485 76.7425 57.6485C76.0841 57.6485 75.6013 57.8669 75.2063 58.3038C74.8113 58.697 74.6357 59.3086 74.6357 60.0513C74.7674 59.8329 74.9869 59.6581 75.2502 59.4834C75.5136 59.3523 75.7769 59.2649 76.128 59.2649C76.5231 59.2649 76.9181 59.3523 77.2253 59.5707C77.5326 59.7892 77.752 60.095 77.9276 60.4882C78.0593 60.4882 78.2348 60.5319 78.4104 60.5319C78.5421 60.5319 78.7176 60.5756 78.8932 60.5756C78.8932 60.4882 78.8932 60.4445 78.8932 60.3571C78.8932 60.3134 78.8932 60.226 78.8932 60.1387ZM78.5421 64.9443C78.8493 65.1191 79.2004 65.2065 79.5516 65.2065C80.0783 65.2065 80.4733 65.0754 80.7366 64.7696C81.0439 64.5075 81.1755 64.1143 81.1755 63.6337C81.1755 63.2842 81.0878 62.9784 80.8683 62.7163C80.6927 62.4541 80.3855 62.2357 80.0783 62.1046C79.9466 62.6289 79.7271 63.1531 79.5077 63.6337C79.2443 64.1143 78.8932 64.5512 78.5421 64.9443ZM75.2063 61.2746C75.2063 61.4493 75.2941 61.6241 75.3819 61.7551C75.5136 61.8862 75.6891 61.9299 75.9086 61.9299C76.0841 61.9299 76.2597 61.8862 76.3914 61.7551C76.5231 61.6241 76.567 61.4493 76.567 61.2746C76.567 61.0561 76.5231 60.8814 76.3475 60.794C76.2158 60.6629 76.0841 60.6192 75.9086 60.6192C75.733 60.6192 75.5575 60.6629 75.4258 60.794C75.2941 60.8814 75.2063 61.0561 75.2063 61.2746Z" fill="#373435"/>
<path d="M91.6045 58.2509C91.9556 58.2509 92.3067 58.3383 92.614 58.4694C92.8773 58.6004 93.1407 58.7752 93.3601 58.9936C93.5796 59.2558 93.7551 59.5616 93.8868 59.8674C94.0185 60.2169 94.0624 60.6101 94.0624 61.0033C94.0624 61.746 93.9307 62.4013 93.6674 63.0129C93.3601 63.5809 92.9651 64.1051 92.4384 64.4983C91.9117 64.8915 91.2972 65.1973 90.5072 65.4158C89.761 65.6342 88.9271 65.7216 87.9615 65.7216H84.5818C84.5379 65.6342 84.494 65.5468 84.4501 65.4158C84.4062 65.2847 84.4062 65.1536 84.4062 65.0226C84.4062 64.8041 84.4501 64.6294 84.5818 64.4983C84.7135 64.3673 84.9329 64.3236 85.1963 64.3236C85.6352 64.3236 86.0302 64.3236 86.4692 64.3236C86.9081 64.3236 87.3909 64.3236 87.8298 64.3236C89.2782 64.3236 90.4194 64.0614 91.2094 63.4935C91.9995 62.9255 92.3945 62.1392 92.3945 61.0907C92.3945 60.6538 92.3067 60.3043 92.1312 59.9985C91.9556 59.7363 91.6483 59.6053 91.2094 59.6053C90.9461 59.6053 90.7705 59.6489 90.5511 59.78C90.3755 59.8674 90.1999 60.0421 90.0683 60.2606V62.8382C89.9366 62.8382 89.8049 62.8819 89.7171 62.9255C89.5854 62.9255 89.4538 62.9255 89.2343 62.9255C88.7076 62.9255 88.4004 62.6634 88.4004 62.0955V56.7219H86.2936V62.8382C86.1619 62.8382 86.0302 62.8819 85.9425 62.9255C85.8108 62.9255 85.6352 62.9255 85.5035 62.9255C84.9329 62.9255 84.6257 62.6634 84.6257 62.0955V56.4597C84.6257 56.0665 84.7135 55.8044 84.8891 55.6297C85.0646 55.4986 85.2841 55.4112 85.5913 55.4112H92.614C92.7017 55.6297 92.7456 55.8481 92.7456 56.0665C92.7456 56.285 92.7017 56.4597 92.5701 56.5908C92.4384 56.6782 92.2189 56.7655 91.9556 56.7655H90.0244V58.8189C90.1999 58.6441 90.3755 58.5131 90.6827 58.4257C90.9461 58.3383 91.2533 58.2509 91.6045 58.2509ZM89.2782 52.4404C89.5854 52.4404 89.8049 52.5278 90.0244 52.7026C90.1999 52.8773 90.2877 53.1394 90.2877 53.4453C90.2877 53.7511 90.1999 54.0132 90.0244 54.1879C89.8049 54.4064 89.5854 54.4938 89.2782 54.4938C88.971 54.4938 88.7076 54.4064 88.5321 54.1879C88.3126 54.0132 88.2248 53.7511 88.2248 53.4453C88.2248 53.1394 88.3126 52.8773 88.5321 52.7026C88.7076 52.5278 88.971 52.4404 89.2782 52.4404Z" fill="#373435"/>
<path d="M103.55 55.4309C103.637 55.5183 103.681 55.6057 103.681 55.7368C103.681 55.8241 103.725 55.9115 103.725 55.9989C103.725 56.261 103.637 56.4358 103.506 56.5231C103.418 56.6542 103.199 56.6979 102.891 56.6979H101.311V58.4017C101.794 58.4017 102.277 58.5328 102.672 58.6639C103.067 58.8386 103.418 59.057 103.725 59.3629C104.032 59.625 104.252 59.9308 104.384 60.324C104.559 60.7172 104.647 61.1541 104.647 61.591C104.647 62.29 104.515 62.8579 104.252 63.3822C103.989 63.8627 103.594 64.2996 103.111 64.6491C102.628 65.0423 102.013 65.3044 101.311 65.4792C100.609 65.6539 99.775 65.7413 98.8533 65.7413H95.2981C95.2103 65.6539 95.1664 65.5666 95.1664 65.4355C95.1225 65.3044 95.0786 65.1734 95.0786 65.0423C95.0786 64.8239 95.1664 64.6491 95.2981 64.518C95.4297 64.387 95.6053 64.3433 95.8687 64.3433C96.3515 64.3433 96.8343 64.3433 97.2732 64.3433C97.756 64.3433 98.2388 64.3433 98.7655 64.3433C100.082 64.3433 101.136 64.1249 101.882 63.6006C102.584 63.12 102.935 62.421 102.935 61.5036C102.935 60.9356 102.804 60.4988 102.496 60.1929C102.189 59.8871 101.794 59.7124 101.311 59.6687V60.1929C101.311 61.0667 101.004 61.7657 100.433 62.2463C99.8628 62.7705 99.0289 63.0327 98.0193 63.0327C97.5804 63.0327 97.1854 62.989 96.7904 62.8579C96.4393 62.7268 96.132 62.5958 95.9126 62.3773C95.6492 62.2026 95.4297 61.9405 95.2981 61.6783C95.1664 61.3725 95.0786 61.0667 95.0786 60.7172C95.0786 60.2366 95.2103 59.7997 95.4736 59.4502C95.6931 59.1007 96.0442 58.8386 96.4831 58.6639V56.4795C96.4831 56.13 96.5709 55.8678 96.7465 55.6931C96.9221 55.5183 97.1415 55.4309 97.4488 55.4309H99.5994C99.4678 55.1251 99.4239 54.7319 99.4239 54.3387C99.4239 53.9019 99.5117 53.5087 99.6872 53.1592C99.8628 52.8097 100.126 52.5038 100.433 52.2854C100.785 52.0233 101.18 51.8485 101.618 51.7175C102.101 51.5427 102.584 51.499 103.155 51.499C103.813 51.499 104.428 51.5864 104.998 51.8048C105.525 51.9796 106.008 52.2854 106.403 52.6349C106.798 52.9844 107.105 53.465 107.324 53.9456C107.544 54.4698 107.632 55.0378 107.632 55.6931V62.8579C107.368 62.9016 107.105 62.9453 106.842 62.9453C106.271 62.9453 105.964 62.6832 105.964 62.1152V55.7804C105.964 54.863 105.744 54.1203 105.218 53.6397C104.735 53.1155 104.032 52.8534 103.155 52.8534C102.496 52.8534 101.97 53.0281 101.618 53.3339C101.223 53.6397 101.004 54.0766 101.004 54.6009C101.004 54.9067 101.092 55.1688 101.18 55.4309H103.55ZM96.6587 60.6735C96.6587 61.023 96.7904 61.2851 97.0537 61.4599C97.2732 61.6346 97.6243 61.7657 98.0632 61.7657C98.5899 61.7657 99.0289 61.591 99.3361 61.2851C99.6433 61.023 99.8189 60.5861 99.8189 60.0619V59.5376H98.4144C98.151 59.5376 97.9316 59.5813 97.7121 59.625C97.4926 59.625 97.3171 59.7124 97.1415 59.7997C97.0098 59.8871 96.8782 60.0182 96.7904 60.1492C96.7026 60.2803 96.6587 60.4551 96.6587 60.6735ZM98.0193 58.358C98.151 58.358 98.2388 58.358 98.3705 58.3144C98.5022 58.3144 98.6777 58.3144 98.8094 58.3144H99.8189V56.6979H98.0193V58.358Z" fill="#373435"/>
<path d="M114.172 55.3799C114.743 55.3799 115.006 55.642 115.006 56.21V61.5399H118.518V55.4673C118.649 55.4236 118.781 55.4236 118.957 55.3799C119.088 55.3799 119.22 55.3799 119.352 55.3799C119.922 55.3799 120.229 55.642 120.229 56.21V62.0641C120.229 62.6321 119.922 62.8942 119.308 62.8942H114.743C114.436 62.8942 114.216 62.8505 114.041 62.7195C113.909 62.5884 113.777 62.4137 113.734 62.2389C113.558 62.4573 113.339 62.6321 113.031 62.8068C112.724 62.9379 112.373 63.0253 111.934 63.0253C111.232 63.0253 110.661 62.8068 110.266 62.4137C109.827 62.0205 109.652 61.4962 109.652 60.7972V55.4673C109.739 55.4236 109.871 55.4236 110.047 55.3799C110.178 55.3799 110.31 55.3799 110.442 55.3799C111.012 55.3799 111.276 55.642 111.276 56.21V60.6224C111.276 60.9719 111.363 61.2341 111.539 61.4088C111.758 61.5836 111.978 61.671 112.285 61.671C112.548 61.671 112.768 61.5836 112.943 61.4525C113.119 61.3215 113.251 61.1467 113.339 60.8846V55.4673C113.47 55.4236 113.602 55.4236 113.734 55.3799C113.865 55.3799 113.997 55.3799 114.172 55.3799Z" fill="#373435"/>
<path d="M129.275 55.4248C129.363 55.6432 129.406 55.8617 129.406 56.0801C129.406 56.2986 129.363 56.4733 129.231 56.6044C129.099 56.6918 128.88 56.7791 128.616 56.7791H127.826V62.8518C127.563 62.8954 127.3 62.9391 127.036 62.9391C126.466 62.9391 126.159 62.677 126.159 62.1091V56.7354H123.92V62.8518C123.657 62.8954 123.393 62.9391 123.13 62.9391C122.559 62.9391 122.252 62.677 122.252 62.1091V56.4733C122.252 56.0801 122.34 55.818 122.559 55.6432C122.735 55.5122 122.954 55.4248 123.218 55.4248H129.275Z" fill="#373435"/>
</svg>
