<svg width="116" height="103" viewBox="0 0 116 103" fill="none" xmlns="http://www.w3.org/2000/svg">
<path fill-rule="evenodd" clip-rule="evenodd" d="M40.0532 55.6407C40.0532 58.1746 40.0093 60.7522 40.0532 63.2861C40.0532 64.3346 39.8776 65.2084 38.7803 65.6016C37.683 65.9948 36.9369 65.4705 36.2346 64.7278C35.3568 63.723 34.5229 62.6745 33.5134 61.8007C33.0745 61.4512 32.1966 61.2328 31.67 61.4076C31.231 61.5386 30.7921 62.325 30.7482 62.8493C30.7043 63.3298 31.1871 63.8978 31.5383 64.3346C34.084 67.2181 36.5858 70.1015 38.0781 73.7276C38.7364 75.3877 40.0971 76.3925 41.8966 76.611C42.9939 76.7857 44.179 76.8731 45.3201 76.8731C49.1387 76.8294 52.0794 74.7324 52.4305 70.9752C52.8694 66.6501 52.6939 62.2813 52.6939 57.9125C52.6939 57.0388 51.9477 56.5145 51.0699 56.5145C50.2359 56.5145 49.6215 57.0824 49.4898 57.9562C49.402 58.6115 49.5337 59.3542 49.402 60.0532C49.3581 60.4027 49.0509 61.0144 48.7875 61.0581C48.0414 61.1454 48.0414 60.4901 48.0414 59.9659C48.0414 58.3931 48.0853 56.8203 48.0414 55.2475C47.9975 53.9369 47.0319 53.1505 45.9346 53.4563C45.0568 53.7622 44.7495 54.4175 44.7495 55.2475C44.7495 56.9077 44.7495 58.5241 44.7056 60.1406C44.7056 60.4464 44.4862 60.7959 44.2667 61.0581C44.2228 61.1454 43.74 61.0581 43.6961 60.9707C43.5206 60.6212 43.3889 60.228 43.3889 59.8785C43.345 56.3834 43.345 52.9321 43.345 49.4807C43.345 48.6944 43.5206 47.8643 43.3011 47.1653C43.1256 46.5973 42.555 45.8983 42.0283 45.7236C41.5894 45.5488 40.7993 45.942 40.4482 46.3352C40.141 46.6847 40.0532 47.3837 40.0532 47.908C40.0093 50.4856 40.0532 53.0632 40.0532 55.6407ZM44.7495 52.2768C47.6464 51.5778 49.007 52.4515 49.5776 55.3786C49.8409 55.3349 50.0604 55.2475 50.2798 55.2039C52.2988 54.7233 54.1423 56.0339 54.1423 58.1746C54.1862 62.2813 54.23 66.388 54.0106 70.451C53.7911 74.7324 50.7626 77.6158 46.5491 78.1837C44.4862 78.4459 42.4672 78.3585 40.4921 77.7469C38.9559 77.2663 37.6392 76.3052 37.0247 74.8198C35.4446 71.0626 32.8989 67.9607 30.1776 64.99C28.9487 63.592 28.9926 61.6697 30.2654 60.5338C31.6261 59.3542 33.5134 59.529 34.7862 60.9707C35.6202 61.8881 36.4541 62.8056 37.3319 63.723C37.5953 63.9415 37.9464 64.0725 38.2536 64.2473C38.3853 63.8978 38.6487 63.5483 38.6487 63.1988C38.6925 59.0047 38.6925 54.767 38.6925 50.5729C38.6925 49.3934 38.6487 48.2138 38.6925 47.0342C38.7364 45.4178 40.0093 44.2382 41.6333 44.1945C43.2572 44.1508 44.6179 45.3741 44.7056 47.0342C44.7495 47.908 44.7495 48.7817 44.7495 49.6555C44.7495 50.5292 44.7495 51.3593 44.7495 52.2768Z" fill="#F58B71"/>
<path fill-rule="evenodd" clip-rule="evenodd" d="M40.0532 55.6407C40.0532 58.1746 40.0093 60.7522 40.0532 63.2861C40.0532 64.3346 39.8776 65.2084 38.7803 65.6016C37.683 65.9948 36.9369 65.4705 36.2346 64.7278C35.3568 63.723 34.5229 62.6745 33.5134 61.8007C33.0745 61.4512 32.1966 61.2328 31.67 61.4076C31.231 61.5386 30.7921 62.325 30.7482 62.8493C30.7043 63.3298 31.1871 63.8978 31.5383 64.3346C34.084 67.2181 36.5858 70.1015 38.0781 73.7276C38.7364 75.3877 40.0971 76.3925 41.8966 76.611C42.9939 76.7857 44.179 76.8731 45.3201 76.8731C49.1387 76.8294 52.0794 74.7324 52.4305 70.9752C52.8694 66.6501 52.6939 62.2813 52.6939 57.9125C52.6939 57.0388 51.9477 56.5145 51.0699 56.5145C50.2359 56.5145 49.6215 57.0824 49.4898 57.9562C49.402 58.6115 49.5337 59.3542 49.402 60.0532C49.3581 60.4027 49.0509 61.0144 48.7875 61.0581C48.0414 61.1454 48.0414 60.4901 48.0414 59.9659C48.0414 58.3931 48.0853 56.8203 48.0414 55.2475C47.9975 53.9369 47.0319 53.1505 45.9346 53.4563C45.0568 53.7622 44.7495 54.4175 44.7495 55.2475C44.7495 56.9077 44.7495 58.5241 44.7056 60.1406C44.7056 60.4464 44.4862 60.7959 44.2667 61.0581C44.2228 61.1454 43.74 61.0581 43.6961 60.9707C43.5206 60.6212 43.3889 60.228 43.3889 59.8785C43.345 56.3834 43.345 52.9321 43.345 49.4807C43.345 48.6944 43.5206 47.8643 43.3011 47.1653C43.1256 46.5973 42.555 45.8983 42.0283 45.7236C41.5894 45.5488 40.7993 45.942 40.4482 46.3352C40.141 46.6847 40.0532 47.3837 40.0532 47.908C40.0093 50.4856 40.0532 53.0632 40.0532 55.6407ZM44.7495 52.2768C47.6464 51.5778 49.007 52.4515 49.5776 55.3786C49.8409 55.3349 50.0604 55.2475 50.2798 55.2039C52.2988 54.7233 54.1423 56.0339 54.1423 58.1746C54.1862 62.2813 54.23 66.388 54.0106 70.451C53.7911 74.7324 50.7626 77.6158 46.5491 78.1837C44.4862 78.4459 42.4672 78.3585 40.4921 77.7469C38.9559 77.2663 37.6392 76.3052 37.0247 74.8198C35.4446 71.0626 32.8989 67.9607 30.1776 64.99C28.9487 63.592 28.9926 61.6697 30.2654 60.5338C31.6261 59.3542 33.5134 59.529 34.7862 60.9707C35.6202 61.8881 36.4541 62.8056 37.3319 63.723C37.5953 63.9415 37.9464 64.0725 38.2536 64.2473C38.3853 63.8978 38.6487 63.5483 38.6487 63.1988C38.6925 59.0047 38.6925 54.767 38.6925 50.5729C38.6925 49.3934 38.6487 48.2138 38.6925 47.0342C38.7364 45.4178 40.0093 44.2382 41.6333 44.1945C43.2572 44.1508 44.6179 45.3741 44.7056 47.0342C44.7495 47.908 44.7495 48.7817 44.7495 49.6555C44.7495 50.5292 44.7495 51.3593 44.7495 52.2768Z" stroke="#F58B71" stroke-width="0.0135276"/>
<path fill-rule="evenodd" clip-rule="evenodd" d="M23.026 36.3591C26.1422 36.3154 26.0106 36.2717 25.9667 39.2862C25.9667 40.7279 25.7911 40.9026 24.2988 40.9463C23.3332 40.9463 22.3237 40.9463 21.3142 40.9026C21.0948 40.9026 20.8314 40.99 20.6559 40.8589C19.2075 40.0726 19.9975 38.6745 19.8658 37.495C19.7781 36.7086 20.3925 36.3591 21.1387 36.3591C21.797 36.3591 22.4115 36.3591 23.026 36.3591Z" fill="#F58B71"/>
<path fill-rule="evenodd" clip-rule="evenodd" d="M23.026 36.3591C26.1422 36.3154 26.0106 36.2717 25.9667 39.2862C25.9667 40.7279 25.7911 40.9026 24.2988 40.9463C23.3332 40.9463 22.3237 40.9463 21.3142 40.9026C21.0948 40.9026 20.8314 40.99 20.6559 40.8589C19.2075 40.0726 19.9975 38.6745 19.8658 37.495C19.7781 36.7086 20.3925 36.3591 21.1387 36.3591C21.797 36.3591 22.4115 36.3591 23.026 36.3591Z" stroke="#F58B71" stroke-width="0.0135276"/>
<path fill-rule="evenodd" clip-rule="evenodd" d="M32.2343 40.9504C28.9424 40.9504 29.2936 41.1252 29.2936 37.9359C29.2936 36.6253 29.513 36.3632 30.8298 36.3632C31.8831 36.3195 32.9804 36.3632 34.0338 36.3632C34.9555 36.3632 35.3944 36.7564 35.3505 37.7175C35.3066 38.2854 35.3505 38.8971 35.3505 39.465C35.3066 40.6883 35.0872 40.9067 33.8143 40.9504C33.2876 40.9504 32.761 40.9504 32.2343 40.9504Z" fill="#F58B71"/>
<path fill-rule="evenodd" clip-rule="evenodd" d="M32.2343 40.9504C28.9424 40.9504 29.2936 41.1252 29.2936 37.9359C29.2936 36.6253 29.513 36.3632 30.8298 36.3632C31.8831 36.3195 32.9804 36.3632 34.0338 36.3632C34.9555 36.3632 35.3944 36.7564 35.3505 37.7175C35.3066 38.2854 35.3505 38.8971 35.3505 39.465C35.3066 40.6883 35.0872 40.9067 33.8143 40.9504C33.2876 40.9504 32.761 40.9504 32.2343 40.9504Z" stroke="#F58B71" stroke-width="0.0135276"/>
<path fill-rule="evenodd" clip-rule="evenodd" d="M41.5752 40.9359C38.3711 40.9359 38.6784 41.1106 38.6784 37.9651C38.6784 36.5671 38.8978 36.3486 40.3462 36.3486C41.3996 36.3486 42.4091 36.3486 43.4625 36.3486C44.2525 36.3486 44.7353 36.6981 44.6914 37.5282C44.6914 38.2272 44.7353 38.9262 44.7353 39.6252C44.7353 40.5427 44.2525 40.9796 43.3308 40.9359C42.7602 40.8922 42.1457 40.9359 41.5752 40.9359Z" fill="#F58B71"/>
<path fill-rule="evenodd" clip-rule="evenodd" d="M41.5752 40.9359C38.3711 40.9359 38.6784 41.1106 38.6784 37.9651C38.6784 36.5671 38.8978 36.3486 40.3462 36.3486C41.3996 36.3486 42.4091 36.3486 43.4625 36.3486C44.2525 36.3486 44.7353 36.6981 44.6914 37.5282C44.6914 38.2272 44.7353 38.9262 44.7353 39.6252C44.7353 40.5427 44.2525 40.9796 43.3308 40.9359C42.7602 40.8922 42.1457 40.9359 41.5752 40.9359Z" stroke="#F58B71" stroke-width="0.0135276"/>
<path fill-rule="evenodd" clip-rule="evenodd" d="M22.9026 48.6736H22.771C19.5669 48.7173 19.8302 48.9357 19.8741 45.3096C19.8741 44.6106 20.2692 44.1737 21.0592 44.1737C22.2882 44.1737 23.561 44.13 24.79 44.1737C25.8872 44.1737 26.0189 44.5669 26.0189 47.1882C25.975 48.0182 25.8872 48.7173 24.79 48.6736C24.1316 48.6736 23.5171 48.6736 22.9026 48.6736Z" fill="#F58B71"/>
<path fill-rule="evenodd" clip-rule="evenodd" d="M22.9026 48.6736H22.771C19.5669 48.7173 19.8302 48.9357 19.8741 45.3096C19.8741 44.6106 20.2692 44.1737 21.0592 44.1737C22.2882 44.1737 23.561 44.13 24.79 44.1737C25.8872 44.1737 26.0189 44.5669 26.0189 47.1882C25.975 48.0182 25.8872 48.7173 24.79 48.6736C24.1316 48.6736 23.5171 48.6736 22.9026 48.6736Z" stroke="#F58B71" stroke-width="0.0135276"/>
<path fill-rule="evenodd" clip-rule="evenodd" d="M22.7993 56.467C22.2726 56.467 21.702 56.4233 21.1314 56.467C20.1658 56.5544 19.8147 56.0301 19.8147 55.1564C19.8147 51.705 19.5953 52.0108 22.7993 52.0108C23.4577 52.0108 24.116 52.0108 24.7744 52.0108C25.6522 52.0108 26.0033 52.404 25.9594 53.2341C25.9594 56.7728 26.3984 56.5107 22.7993 56.467Z" fill="#F58B71"/>
<path fill-rule="evenodd" clip-rule="evenodd" d="M22.7993 56.467C22.2726 56.467 21.702 56.4233 21.1314 56.467C20.1658 56.5544 19.8147 56.0301 19.8147 55.1564C19.8147 51.705 19.5953 52.0108 22.7993 52.0108C23.4577 52.0108 24.116 52.0108 24.7744 52.0108C25.6522 52.0108 26.0033 52.404 25.9594 53.2341C25.9594 56.7728 26.3984 56.5107 22.7993 56.467Z" stroke="#F58B71" stroke-width="0.0135276"/>
<path fill-rule="evenodd" clip-rule="evenodd" d="M32.2379 48.6969C29.1216 48.6969 29.2533 49.0901 29.2972 45.8135C29.2972 44.4591 29.5166 44.197 30.8773 44.1533C31.9306 44.1533 32.984 44.1533 34.0813 44.197C34.9152 44.197 35.398 44.5465 35.3541 45.464C35.3102 46.0756 35.3102 46.6872 35.3541 47.3425C35.4419 48.3911 34.9152 48.7842 33.9057 48.7406C33.3351 48.6969 32.7646 48.6969 32.2379 48.6969Z" fill="#F58B71"/>
<path fill-rule="evenodd" clip-rule="evenodd" d="M32.2379 48.6969C29.1216 48.6969 29.2533 49.0901 29.2972 45.8135C29.2972 44.4591 29.5166 44.197 30.8773 44.1533C31.9306 44.1533 32.984 44.1533 34.0813 44.197C34.9152 44.197 35.398 44.5465 35.3541 45.464C35.3102 46.0756 35.3102 46.6872 35.3541 47.3425C35.4419 48.3911 34.9152 48.7842 33.9057 48.7406C33.3351 48.6969 32.7646 48.6969 32.2379 48.6969Z" stroke="#F58B71" stroke-width="0.0135276"/>
<path fill-rule="evenodd" clip-rule="evenodd" d="M32.2343 56.471C28.9424 56.5147 29.2936 56.6894 29.2936 53.5876C29.2936 52.1459 29.4252 52.0148 30.9175 52.0148C31.8832 52.0148 32.8927 52.0148 33.9022 52.0148C34.1216 52.0148 34.385 51.9711 34.5605 52.0585C36.1406 52.8449 35.0872 54.2866 35.3067 55.4225C35.4822 56.1215 34.9117 56.471 34.2094 56.471C33.551 56.471 32.8927 56.471 32.2343 56.471Z" fill="#F58B71"/>
<path fill-rule="evenodd" clip-rule="evenodd" d="M32.2343 56.471C28.9424 56.5147 29.2936 56.6894 29.2936 53.5876C29.2936 52.1459 29.4252 52.0148 30.9175 52.0148C31.8832 52.0148 32.8927 52.0148 33.9022 52.0148C34.1216 52.0148 34.385 51.9711 34.5605 52.0585C36.1406 52.8449 35.0872 54.2866 35.3067 55.4225C35.4822 56.1215 34.9117 56.471 34.2094 56.471C33.551 56.471 32.8927 56.471 32.2343 56.471Z" stroke="#F58B71" stroke-width="0.0135276"/>
<path fill-rule="evenodd" clip-rule="evenodd" d="M38.518 90.8449C44.2977 93.0307 50.6178 94.235 57.2404 94.235C65.4481 94.235 73.173 92.3564 80.02 89.0798C71.6807 95.3709 61.2784 99.128 49.9544 99.128C43.5554 99.128 37.4374 97.9243 31.8164 95.7319L38.518 90.8449ZM24.446 82.7589C14.0119 74.2508 7.42372 61.7546 7.42372 47.8383C7.42372 22.2372 29.7205 1.4417 57.2404 1.4417C59.2594 1.4417 61.2784 1.57277 63.2096 1.79121C58.9961 0.611632 54.563 0 49.9544 0C22.4785 0 0.181641 22.1935 0.181641 49.5859C0.181641 67.0395 9.26281 82.3935 22.9758 91.2192L24.446 82.7589Z" fill="#F47D5C"/>
<path d="M28.4617 79.6514L21.5269 102.107L39.9173 85.1561L28.4617 79.6514Z" fill="#377044"/>
<path fill-rule="evenodd" clip-rule="evenodd" d="M15.8337 48.6879C15.8337 69.7892 33.039 86.8712 54.1946 86.8712C67.1716 86.8712 78.6355 80.4703 85.5761 70.6649H90.61C83.146 82.8984 69.6345 91.0652 54.1946 91.0652C30.6689 91.0652 11.6201 72.1046 11.6201 48.6879C11.6201 25.2711 30.6689 6.31055 54.1946 6.31055C70.9246 6.31055 85.3906 15.8992 92.352 29.8604H87.5818C80.9915 18.2985 68.5142 10.5046 54.1946 10.5046C33.039 10.5046 15.8337 27.5866 15.8337 48.6879Z" fill="#377044"/>
<path d="M69.5046 39.2514C70.2068 39.7319 70.7335 40.3873 71.1286 41.13C71.5236 41.8727 71.6992 42.7464 71.6992 43.7076C71.6992 44.4939 71.6114 45.1493 71.3919 45.7609C71.1725 46.3725 70.8652 46.8531 70.4702 47.2463C70.0752 47.6395 69.6363 47.9453 69.0657 48.1637C68.539 48.3385 67.9245 48.4695 67.2661 48.4695C66.5639 48.4695 65.9933 48.3385 65.5105 48.0764C65.0277 47.8579 64.6326 47.5521 64.3254 47.1589C64.0182 47.5521 63.6231 47.8579 63.1403 48.0764C62.6575 48.3385 62.0869 48.4695 61.4286 48.4695C60.858 48.4695 60.3313 48.3822 59.8924 48.2074C59.4535 48.0327 59.0584 47.7705 58.7512 47.4647C58.4001 47.1589 58.1806 46.8094 58.005 46.3725C57.8295 45.9793 57.7417 45.4988 57.7417 45.0182C57.7417 44.5376 57.8295 44.0571 58.005 43.6639C58.1806 43.227 58.4001 42.8338 58.7512 42.528C59.0584 42.2222 59.4535 42.0037 59.9363 41.829C60.4191 41.6542 60.9458 41.5668 61.5164 41.5668C62.6136 41.5668 63.4476 41.829 64.0621 42.3969C64.6765 42.9649 65.1154 43.6639 65.291 44.5813C65.3788 45.1929 65.6421 45.6298 65.9494 45.892C66.3005 46.1978 66.6955 46.3725 67.1783 46.3725C67.705 46.3725 68.1878 46.1541 68.5829 45.7172C68.934 45.2803 69.1535 44.625 69.1535 43.7076C69.1535 43.0522 69.0218 42.4843 68.8023 41.9163C68.5829 41.3921 68.2756 40.9115 67.8367 40.5183C67.3978 40.1251 66.8272 39.8193 66.1688 39.5572C65.5105 39.3387 64.7204 39.2514 63.7987 39.2514H58.6195C58.5317 38.9892 58.4879 38.7271 58.4879 38.465C58.4879 38.1592 58.5756 37.8534 58.7512 37.6786C58.9268 37.4602 59.234 37.3291 59.6729 37.3291H74.7277C75.5177 37.3291 76.2639 37.4602 76.8783 37.7223C77.4928 37.9844 78.0195 38.3339 78.4145 38.7708C78.8534 39.2077 79.1607 39.6883 79.3801 40.2999C79.5996 40.9115 79.6874 41.5668 79.6874 42.2658C79.6874 43.4017 79.424 44.3192 78.8096 44.8871C78.1951 45.4988 77.405 45.8046 76.4394 45.8046C75.9566 45.8046 75.5616 45.7172 75.1666 45.5861C74.7715 45.4551 74.4204 45.2803 74.1571 45.0182C73.8498 44.7561 73.6304 44.4502 73.4987 44.1007C73.3231 43.7512 73.2353 43.358 73.2353 42.9212C73.2353 42.528 73.3231 42.1785 73.4548 41.829C73.5865 41.5232 73.762 41.2173 74.0254 40.9989C74.2449 40.7805 74.5082 40.6057 74.8593 40.4746C75.1666 40.3436 75.5177 40.2999 75.8688 40.2999C76.1761 40.2999 76.4833 40.3436 76.7028 40.431C76.9661 40.5183 77.1417 40.6057 77.3172 40.7368C77.1417 40.2562 76.7905 39.863 76.3516 39.6446C75.9127 39.3824 75.3421 39.2514 74.6399 39.2514H69.5046ZM60.1118 45.0182C60.1118 45.4551 60.2435 45.8483 60.5069 46.0667C60.7263 46.3288 61.0774 46.4599 61.5164 46.4599C61.9553 46.4599 62.2625 46.3288 62.5259 46.0667C62.7892 45.8483 62.9209 45.4551 62.9209 45.0182C62.9209 44.5376 62.7892 44.1881 62.5259 43.926C62.2625 43.6639 61.9553 43.5328 61.5164 43.5328C61.0774 43.5328 60.7263 43.6639 60.5069 43.926C60.2435 44.1881 60.1118 44.5376 60.1118 45.0182ZM75.4299 42.8775C75.4299 43.227 75.5177 43.4891 75.7372 43.6639C75.9127 43.8386 76.1761 43.926 76.4394 43.926C76.7028 43.926 76.9222 43.8386 77.1417 43.6639C77.3611 43.4891 77.4489 43.227 77.4489 42.8775C77.4489 42.528 77.3611 42.3095 77.1417 42.1348C76.9222 41.96 76.7028 41.8727 76.4394 41.8727C76.1761 41.8727 75.9127 41.96 75.7372 42.1348C75.5177 42.3095 75.4299 42.528 75.4299 42.8775Z" fill="#377044"/>
<path d="M64.5893 51.8469C65.8182 51.8469 66.8716 51.6285 67.7933 51.2353C68.715 50.8421 69.549 50.2305 70.3829 49.4004C70.734 49.4004 70.9974 49.4878 71.1729 49.6625C71.3485 49.8373 71.4363 50.0994 71.4363 50.3615C71.4363 50.5363 71.3485 50.711 71.2607 50.8858C71.129 51.0605 70.9974 51.2353 70.8218 51.41C70.5585 51.7159 70.2073 51.978 69.7684 52.2401C69.3734 52.5022 68.8906 52.7207 68.3639 52.8954C67.8372 53.1139 67.2666 53.2449 66.6083 53.376C65.9938 53.5071 65.3354 53.5508 64.5893 53.5508C63.887 53.5508 63.2286 53.5071 62.5703 53.376C61.9558 53.2449 61.3852 53.1139 60.8585 52.8954C60.3318 52.677 59.8929 52.4586 59.454 52.1964C59.059 51.978 58.7078 51.6722 58.4006 51.41C57.9617 51.0605 57.7861 50.711 57.7861 50.3615C57.7861 50.0994 57.8739 49.8373 58.0495 49.6625C58.225 49.4878 58.4884 49.4004 58.7956 49.4004C59.2345 49.7936 59.6296 50.1868 60.0685 50.4926C60.5074 50.7984 60.9463 51.0605 61.4291 51.2353C61.868 51.4537 62.3947 51.5848 62.9214 51.7159C63.4042 51.8032 63.9748 51.8469 64.5893 51.8469Z" fill="#377044"/>
<path d="M94.0477 46.3725C94.7938 46.3725 95.4522 46.0667 95.935 45.5424C96.4178 44.9745 96.6811 44.1881 96.6811 43.1396C96.6811 42.528 96.5495 41.96 96.3739 41.4795C96.1545 40.9989 95.8911 40.562 95.5839 40.2125C95.2766 39.9067 94.9255 39.6009 94.5305 39.4261C94.1354 39.2514 93.7404 39.1203 93.3015 39.0329C93.3015 38.9892 93.3015 38.9019 93.3015 38.8582C93.3015 38.7708 93.3015 38.7271 93.3015 38.6397C93.3015 38.2902 93.3893 37.9407 93.6088 37.7223C93.8282 37.4602 94.1793 37.3291 94.6183 37.3291C95.145 37.3291 95.6278 37.4602 96.1983 37.7223C96.725 37.9844 97.2078 38.3339 97.6906 38.8145C98.1296 39.3387 98.4807 39.9504 98.7879 40.6494C99.0952 41.3921 99.2268 42.2222 99.2268 43.1396C99.2268 43.5765 99.2268 44.0134 99.1391 44.4066C99.0952 44.7998 98.9635 45.1493 98.8318 45.4988C99.0952 45.7609 99.4024 45.9793 99.7535 46.1104C100.105 46.2851 100.5 46.3725 100.939 46.3725C101.685 46.3725 102.343 46.0667 102.826 45.5424C103.309 44.9745 103.572 44.1881 103.572 43.1396C103.572 42.528 103.484 41.96 103.265 41.4795C103.045 40.9989 102.782 40.562 102.475 40.2125C102.168 39.9067 101.816 39.6009 101.421 39.4261C101.026 39.2514 100.631 39.1203 100.236 39.0329C100.192 38.9892 100.192 38.9019 100.192 38.8582C100.192 38.7708 100.192 38.7271 100.192 38.6397C100.192 38.2902 100.28 37.9407 100.5 37.7223C100.763 37.4602 101.07 37.3291 101.553 37.3291C102.036 37.3291 102.519 37.4602 103.089 37.7223C103.616 37.9844 104.099 38.3339 104.582 38.8145C105.021 39.3387 105.416 39.9504 105.679 40.6494C105.986 41.3921 106.162 42.2222 106.162 43.1396C106.162 43.9697 106.03 44.7124 105.811 45.3677C105.547 45.9793 105.24 46.5473 104.801 47.0278C104.406 47.4647 103.879 47.8142 103.265 48.0764C102.694 48.3385 101.992 48.4695 101.29 48.4695C99.7974 48.4695 98.6124 48.0327 97.6906 47.2463C96.8128 48.0327 95.7155 48.4695 94.3988 48.4695C92.8187 48.4695 91.5898 47.989 90.6241 47.1152C90.1852 47.5521 89.6146 47.8579 89.0002 48.12C88.3418 48.3385 87.5956 48.4695 86.8056 48.4695C85.9278 48.4695 85.1377 48.2948 84.4355 48.0327C83.7332 47.7268 83.1626 47.3337 82.6798 46.8094C82.197 46.3288 81.802 45.7172 81.5825 45.0619C81.3192 44.3629 81.1875 43.6639 81.1875 42.9212C81.1875 42.1348 81.3192 41.4358 81.5825 40.7368C81.8459 40.0814 82.197 39.4698 82.6798 38.9892C83.1626 38.465 83.7771 38.0718 84.4794 37.766C85.1377 37.5039 85.9278 37.3291 86.8056 37.3291C87.6834 37.3291 88.4735 37.5039 89.1318 37.766C89.8341 38.0718 90.4047 38.465 90.8875 38.9892C91.3703 39.4698 91.7214 40.0378 91.9848 40.7368C92.2481 41.3921 92.3798 42.1348 92.3798 42.9212C92.3798 43.7949 92.2042 44.625 91.8531 45.4114C92.1164 45.6735 92.4237 45.9356 92.8187 46.1104C93.1698 46.2851 93.6088 46.3725 94.0477 46.3725ZM89.7902 42.9212C89.7902 42.3532 89.7463 41.8727 89.5707 41.4358C89.4391 40.9552 89.2196 40.6057 88.9563 40.2999C88.649 39.9941 88.3418 39.7756 87.9907 39.6009C87.5956 39.4261 87.2006 39.3387 86.8056 39.3387C86.3667 39.3387 85.9717 39.4261 85.5766 39.6009C85.2255 39.7756 84.9183 39.9941 84.6549 40.2999C84.3477 40.6057 84.1721 40.9989 83.9965 41.4358C83.8649 41.8727 83.7771 42.3532 83.7771 42.9212C83.7771 43.4891 83.8649 43.9697 83.9965 44.4066C84.1721 44.8434 84.3477 45.2366 84.6549 45.5424C84.9183 45.8483 85.2255 46.0667 85.5766 46.2415C85.9717 46.3725 86.3667 46.4599 86.8056 46.4599C87.6834 46.4599 88.4296 46.1541 89.0002 45.5424C89.5269 44.9308 89.7902 44.0571 89.7902 42.9212Z" fill="#377044"/>
<path d="M79.9989 57.9154C79.9989 58.5707 79.8672 59.226 79.6039 59.794C79.3405 60.4056 78.9894 60.9298 78.5505 61.3667C78.77 61.6725 78.9016 61.9347 78.9894 62.2405C79.0772 62.5026 79.1211 62.7211 79.1211 62.9395C79.1211 63.4637 78.8577 63.7259 78.3749 63.7259C78.2872 63.7259 78.1555 63.7259 78.0677 63.6822C77.9799 63.6822 77.8921 63.6385 77.8044 63.5948C77.8044 63.2016 77.7166 62.7211 77.541 62.2405C77.1899 62.4589 76.7949 62.6774 76.3998 62.8084C75.9609 62.9395 75.522 63.0269 74.9953 63.0269C74.6003 63.0269 74.2492 62.9395 73.9419 62.8521C73.5908 62.7647 73.3275 62.6337 73.108 62.4589C72.8447 62.2842 72.6691 62.0657 72.5374 61.8036C72.4496 61.5415 72.3619 61.2793 72.3619 60.9298C72.3619 60.624 72.4496 60.3619 72.5374 60.0998C72.6691 59.8376 72.8447 59.6629 73.0641 59.4881C73.2836 59.3134 73.5469 59.1823 73.8542 59.095C74.1614 59.0076 74.5125 58.9639 74.8637 58.9639C75.522 58.9639 76.0926 59.095 76.5754 59.3571C77.0582 59.6192 77.4532 59.925 77.7605 60.2745C78.2433 59.5755 78.4627 58.7891 78.4627 57.9154C78.4627 57.3911 78.331 56.9979 78.1116 56.6921C77.8482 56.3863 77.4971 56.2552 77.0582 56.2552C76.7071 56.2552 76.3998 56.3863 76.1804 56.6047C75.9609 56.8232 75.8731 57.0853 75.8731 57.4785V57.9591C75.6976 58.0901 75.4342 58.1338 75.127 58.1338C74.8637 58.1338 74.6003 58.0901 74.4247 57.9591V57.4785C74.4247 57.0853 74.337 56.8232 74.0736 56.6047C73.8103 56.3863 73.5469 56.2552 73.1519 56.2552C72.7569 56.2552 72.4496 56.3863 72.2302 56.6047C72.0107 56.8669 71.923 57.1727 71.923 57.4785C71.923 57.6532 71.923 57.828 72.0107 57.9591C72.0546 58.1338 72.1424 58.2649 72.1863 58.3523C72.1424 58.4396 72.0546 58.5707 71.923 58.6581C71.7913 58.7018 71.6596 58.7454 71.484 58.7454C71.1768 58.7454 70.9135 58.6581 70.7379 58.3959C70.5184 58.1775 70.4307 57.7843 70.4307 57.3037C70.4307 56.9542 70.4746 56.6047 70.6062 56.3426C70.7379 56.0805 70.9135 55.8184 71.1768 55.5999C71.3963 55.4252 71.6596 55.2504 71.9668 55.163C72.2741 55.032 72.6252 54.9883 72.9763 54.9883C73.4591 54.9883 73.8981 55.0757 74.2492 55.2504C74.6442 55.4688 74.9075 55.731 75.127 56.0368C75.3465 55.731 75.6098 55.4688 75.9609 55.2504C76.3121 55.0757 76.751 54.9883 77.2338 54.9883C77.6727 54.9883 78.0677 55.0757 78.4188 55.2067C78.77 55.3815 79.0333 55.5562 79.2528 55.8184C79.5161 56.0805 79.6917 56.3863 79.8233 56.7358C79.9111 57.0853 79.9989 57.4785 79.9989 57.9154ZM75.0831 61.8036C75.4781 61.8036 75.8293 61.7599 76.1365 61.6289C76.4437 61.4978 76.7071 61.323 76.9265 61.1483C76.7071 60.8425 76.4437 60.624 76.1365 60.4056C75.7854 60.2308 75.4342 60.1435 74.9953 60.1435C74.6442 60.1435 74.337 60.2308 74.1614 60.3619C73.9419 60.5367 73.8542 60.7114 73.8542 60.9735C73.8542 61.2357 73.9419 61.4541 74.1614 61.5852C74.3809 61.7162 74.6881 61.8036 75.0831 61.8036Z" fill="#373435"/>
<path d="M83.6042 59.421C83.2531 59.421 82.9898 59.5521 82.7703 59.7705C82.5947 59.9889 82.4631 60.2511 82.4631 60.6443C82.4631 61.0375 82.5947 61.387 82.8142 61.6491C82.9898 61.8675 83.297 62.086 83.6042 62.217C83.6042 62.4355 83.5603 62.6539 83.4287 62.785C83.297 62.9597 83.1214 63.0471 82.8142 63.0471C82.6386 63.0471 82.4192 62.9597 82.1997 62.8724C81.9803 62.7413 81.7608 62.5665 81.5852 62.3481C81.4097 62.1297 81.278 61.9112 81.1902 61.6054C81.0585 61.2996 81.0146 60.9938 81.0146 60.6443C81.0146 60.2511 81.0585 59.9016 81.1902 59.5958C81.3658 59.2899 81.5413 59.0278 81.7608 58.8094C81.9803 58.6346 82.2436 58.4599 82.5947 58.3288C82.902 58.2414 83.2092 58.1977 83.5603 58.1977C84.2187 58.1977 84.7454 58.3288 85.1404 58.6346C85.5793 58.9404 85.9305 59.3773 86.2377 59.9016L86.5888 60.4695C86.8083 60.9064 87.0278 61.2122 87.2472 61.4307C87.4667 61.6491 87.73 61.7365 88.0811 61.7365C88.4323 61.7365 88.7834 61.5617 89.0029 61.1685C89.2662 60.819 89.3979 60.2074 89.3979 59.3773C89.3979 58.722 89.3101 58.1541 89.1784 57.6298C89.0029 57.1055 88.7834 56.625 88.5201 56.1881C88.2567 55.7512 87.9056 55.358 87.5545 55.0085C87.1594 54.7027 86.7644 54.3969 86.3694 54.1784C86.3694 54.4406 86.3255 54.7027 86.2377 54.9211C86.1499 55.1396 86.0183 55.358 85.8866 55.5328C85.711 55.6638 85.4916 55.7949 85.2282 55.926C85.0088 56.0133 84.7015 56.057 84.3943 56.057C84.087 56.057 83.8237 56.0133 83.6042 55.926C83.3409 55.8386 83.1214 55.7512 82.9459 55.5765C82.7703 55.4454 82.6386 55.2706 82.5508 55.0522C82.4192 54.8338 82.3753 54.5716 82.3753 54.3095C82.3753 53.7853 82.5508 53.3921 82.9459 53.0426C83.297 52.6494 83.8676 52.4746 84.526 52.4746H84.6137C85.0965 52.5183 85.5793 52.562 86.0621 52.7367C86.545 52.8678 87.0278 53.0862 87.5106 53.3921C87.9934 53.6542 88.4323 54.0037 88.8273 54.3969C89.2662 54.7901 89.6173 55.227 89.9246 55.7512C90.2318 56.2318 90.4952 56.7997 90.6707 57.4114C90.8463 58.023 90.9341 58.6783 90.9341 59.3773C90.9341 60.0326 90.8902 60.5569 90.7146 61.0375C90.583 61.518 90.3635 61.8675 90.144 62.1734C89.8807 62.4792 89.5735 62.6976 89.2223 62.8287C88.8712 62.9597 88.5201 63.0471 88.125 63.0471C87.7739 63.0471 87.4667 63.0034 87.2033 62.916C86.94 62.8287 86.6766 62.6976 86.5011 62.5229C86.2816 62.3918 86.0621 62.1734 85.8866 61.9112C85.711 61.6928 85.5355 61.4307 85.3599 61.1248L85.0088 60.5132C84.7893 60.1637 84.6137 59.8579 84.3943 59.6831C84.1748 59.5084 83.9115 59.421 83.6042 59.421ZM84.4382 55.0522C84.6576 55.0522 84.8771 54.9648 85.0088 54.8338C85.1404 54.7027 85.1843 54.5279 85.1843 54.3095C85.1843 54.0474 85.1404 53.8726 85.0088 53.7416C84.8771 53.6105 84.6576 53.5231 84.4382 53.5231C84.2187 53.5231 83.9993 53.6105 83.8676 53.7416C83.7359 53.8726 83.6481 54.0911 83.6481 54.3095C83.6481 54.5279 83.7359 54.7027 83.8676 54.8338C83.9993 54.9648 84.2187 55.0522 84.4382 55.0522Z" fill="#373435"/>
<path d="M87.3825 68.8037C87.0753 68.8037 86.8119 68.76 86.5486 68.6289C86.3291 68.5415 86.1097 68.4105 85.978 68.192C85.8463 68.4105 85.6269 68.5415 85.4074 68.6289C85.188 68.76 84.9246 68.8037 84.6613 68.8037C84.0907 68.8037 83.6518 68.6289 83.3006 68.3231C82.9495 67.9736 82.7739 67.493 82.7739 66.8377C82.7739 66.4008 82.8617 65.964 83.0373 65.6144C83.2128 65.2213 83.4323 64.9154 83.7395 64.6533C84.0468 64.3912 84.3979 64.2164 84.8368 64.0417C85.2318 63.9106 85.6708 63.8232 86.1536 63.8232C86.5047 63.8232 86.8119 63.8669 87.0753 63.9543C87.3825 63.998 87.602 64.0854 87.8214 64.2164C88.0409 64.3038 88.1726 64.4349 88.3043 64.5659C88.4359 64.6533 88.4798 64.7844 88.4798 64.9154C88.4798 65.0465 88.4359 65.1339 88.3481 65.2213C88.2604 65.3086 88.1726 65.3523 88.0848 65.396C87.8653 65.2649 87.6459 65.1339 87.2947 65.0028C86.9875 64.8718 86.5925 64.7844 86.1975 64.7844C85.8902 64.7844 85.583 64.8281 85.3196 64.9154C85.0563 65.0028 84.7929 65.1339 84.6174 65.3086C84.3979 65.4834 84.2223 65.7018 84.0907 65.964C84.0029 66.2261 83.9151 66.4882 83.9151 66.8377C83.9151 67.1872 84.0029 67.4493 84.1346 67.6241C84.2662 67.7988 84.4857 67.8862 84.749 67.8862C84.9246 67.8862 85.1002 67.8425 85.2318 67.7115C85.3635 67.6241 85.4074 67.4493 85.4513 67.2309V66.8814C85.4952 66.8377 85.583 66.794 85.6708 66.794C85.7585 66.7503 85.8463 66.7066 85.978 66.7066C86.0658 66.7066 86.1975 66.7503 86.2852 66.794C86.373 66.794 86.4608 66.8377 86.5047 66.8814V67.1435C86.5047 67.362 86.5925 67.5367 86.7242 67.7115C86.8997 67.8425 87.0753 67.8862 87.3386 67.8862C87.5581 67.8862 87.7337 67.8425 87.8214 67.7552C87.9531 67.6678 87.997 67.5367 87.997 67.362C87.997 67.1872 87.9531 67.0998 87.9092 67.0125C87.8214 66.9251 87.6898 66.8814 87.602 66.8814C87.4703 66.8814 87.3386 66.9251 87.2509 66.9688C87.1192 66.8814 87.0753 66.7066 87.0753 66.5319C87.0753 66.4008 87.1192 66.2698 87.2509 66.1824C87.3386 66.0513 87.5142 66.0076 87.7776 66.0076C88.1287 66.0076 88.4798 66.1387 88.6993 66.4008C88.9626 66.6193 89.0943 66.9688 89.0943 67.362C89.0943 67.5804 89.0504 67.7988 88.9626 67.9736C88.8748 68.192 88.7432 68.3231 88.5676 68.4542C88.4359 68.5415 88.2604 68.6726 88.0409 68.7163C87.8214 68.76 87.602 68.8037 87.3825 68.8037Z" fill="#373435"/>
<path d="M108.705 56.162C109.056 56.4678 109.408 56.9047 109.627 57.3852C109.89 57.9095 110.022 58.5211 110.022 59.2201C110.022 59.7881 109.934 60.3123 109.759 60.7929C109.627 61.2298 109.364 61.6667 109.1 61.9725C108.793 62.322 108.442 62.5841 108.003 62.7589C107.564 62.9336 107.081 63.0647 106.599 63.0647C106.072 63.0647 105.589 62.9773 105.15 62.8025C104.711 62.6715 104.36 62.453 104.053 62.1909C103.746 62.453 103.394 62.6715 102.999 62.8025C102.648 62.9773 102.209 63.0647 101.727 63.0647C100.585 63.0647 99.7076 62.7152 99.0493 62.0162C98.6981 62.322 98.3031 62.5841 97.8203 62.7589C97.3814 62.9336 96.8547 63.0647 96.2402 63.0647C95.6258 63.0647 95.0552 62.9336 94.5724 62.7152C94.0896 62.4967 93.6507 62.2346 93.3434 61.8414C92.9923 61.4919 92.7289 61.055 92.5534 60.5745C92.3778 60.0939 92.29 59.5696 92.29 59.0017C92.29 58.4774 92.3778 57.9532 92.5534 57.4726C92.7289 56.9484 92.9923 56.5552 93.3434 56.162C93.6946 55.8125 94.1335 55.5067 94.6163 55.2882C95.0991 55.0698 95.6258 54.9824 96.2402 54.9824C96.8547 54.9824 97.4253 55.0698 97.9081 55.2882C98.3909 55.5067 98.8298 55.8125 99.1809 56.162C99.5321 56.5115 99.7954 56.9484 99.971 57.4289C100.147 57.9095 100.234 58.4337 100.234 59.0017C100.234 59.7444 100.103 60.356 99.7954 60.9677C99.971 61.2298 100.234 61.4045 100.542 61.5356C100.849 61.7103 101.156 61.754 101.551 61.754C102.166 61.754 102.648 61.5356 103.043 61.0987C103.438 60.6618 103.614 60.0065 103.614 59.1764C103.614 58.7396 103.57 58.3027 103.438 57.9532C103.307 57.6037 103.131 57.3415 102.912 57.0794C102.692 56.8173 102.473 56.5989 102.209 56.4241C101.946 56.293 101.683 56.162 101.419 56.0309C101.2 55.9435 100.937 55.7688 100.585 55.463C100.234 55.1571 99.7515 54.6766 99.1809 54.1086C99.1809 53.8902 99.2687 53.6718 99.4004 53.497C99.5321 53.3223 99.7076 53.2786 99.9271 53.2786C100.059 53.2786 100.19 53.2786 100.322 53.3659C100.454 53.4096 100.585 53.5407 100.761 53.6718C100.893 53.8028 101.068 53.9776 101.244 54.196C101.419 54.4145 101.639 54.6766 101.858 54.9824C102.078 54.6329 102.385 54.196 102.78 53.7154C103.219 53.2349 103.614 52.6669 104.097 52.099L104.448 51.6621C104.755 51.6621 104.975 51.7058 105.194 51.8369C105.37 52.0116 105.457 52.1864 105.457 52.4048C105.457 52.5359 105.413 52.7106 105.326 52.8417C105.238 53.0164 105.106 53.1912 104.931 53.3659C104.492 53.8902 104.097 54.2834 103.789 54.6329C103.438 54.9387 103.175 55.2008 102.956 55.4193C103.219 55.5503 103.482 55.7251 103.746 55.9435C104.009 56.162 104.272 56.4241 104.448 56.7299C104.667 57.0357 104.843 57.4289 104.975 57.8221C105.106 58.259 105.15 58.6959 105.15 59.2201C105.15 59.9191 105.018 60.5308 104.799 61.1424C104.975 61.3172 105.194 61.4919 105.501 61.5793C105.765 61.7103 106.072 61.754 106.379 61.754C106.994 61.754 107.476 61.5356 107.871 61.0987C108.266 60.6618 108.442 60.0065 108.442 59.1764C108.442 58.6959 108.398 58.259 108.222 57.9095C108.091 57.5163 107.871 57.2105 107.652 56.9484C107.389 56.6862 107.125 56.4678 106.818 56.3367C106.511 56.162 106.203 56.0746 105.896 56.0309C105.896 55.9872 105.852 55.9435 105.852 55.8998C105.852 55.8562 105.852 55.8125 105.852 55.7688C105.852 55.5503 105.94 55.3319 106.072 55.2008C106.203 55.0698 106.423 54.9824 106.686 54.9824H112.173C112.743 54.9824 113.27 55.0698 113.709 55.2445C114.148 55.4193 114.499 55.6377 114.806 55.9435C115.113 56.2493 115.333 56.6425 115.464 57.0357C115.64 57.4726 115.728 57.9532 115.728 58.4337C115.728 59.2638 115.508 59.8755 115.069 60.3123C114.631 60.7055 114.104 60.924 113.446 60.924C113.138 60.924 112.831 60.8803 112.568 60.7929C112.304 60.6618 112.041 60.5308 111.865 60.356C111.69 60.1813 111.514 59.9628 111.427 59.7444C111.295 59.4823 111.251 59.2201 111.251 58.9143C111.251 58.6085 111.295 58.3464 111.383 58.1279C111.47 57.9095 111.602 57.6911 111.778 57.5163C111.953 57.3415 112.173 57.2105 112.392 57.1231C112.612 57.0357 112.875 56.992 113.138 56.992C113.402 56.992 113.621 57.0357 113.797 57.1231C114.016 57.2105 114.148 57.3415 114.279 57.4289C113.972 56.5552 113.226 56.162 112.129 56.162H108.705ZM98.6981 59.0017C98.6981 58.5648 98.6103 58.1716 98.4787 57.8658C98.3909 57.5163 98.2153 57.2105 97.9959 56.992C97.7764 56.7299 97.5131 56.5552 97.2058 56.4241C96.8986 56.293 96.5914 56.2057 96.2402 56.2057C95.8891 56.2057 95.5819 56.293 95.2746 56.4241C94.9674 56.5552 94.704 56.7299 94.5285 56.992C94.309 57.2105 94.1335 57.5163 94.0018 57.8658C93.8701 58.2153 93.8262 58.5648 93.8262 59.0017C93.8262 59.4823 93.8701 59.8755 94.0018 60.225C94.1335 60.5745 94.309 60.8366 94.5285 61.0987C94.704 61.3172 94.9674 61.4919 95.2746 61.623C95.5819 61.754 95.8891 61.7977 96.2402 61.7977C96.5914 61.7977 96.9425 61.754 97.2497 61.623C97.557 61.4919 97.7764 61.3172 97.9959 61.0987C98.2153 60.8366 98.3909 60.5745 98.5226 60.225C98.6103 59.8755 98.6981 59.4823 98.6981 59.0017ZM112.568 58.8706C112.568 59.1764 112.655 59.3949 112.831 59.5259C113.007 59.657 113.226 59.7444 113.446 59.7444C113.709 59.7444 113.884 59.657 114.06 59.5259C114.236 59.3949 114.323 59.1764 114.323 58.8706C114.323 58.6085 114.236 58.3901 114.06 58.2153C113.884 58.0842 113.709 57.9969 113.446 57.9969C113.226 57.9969 113.007 58.0842 112.831 58.2153C112.655 58.3901 112.568 58.6085 112.568 58.8706Z" fill="#373435"/>
</svg>
