<svg xmlns="http://www.w3.org/2000/svg" width="130" height="130" fill="none" xmlns:v="https://vecta.io/nano"><circle cx="65" cy="65" r="65" fill="#42b2c6"/><path fill-rule="evenodd" d="M21.807 54.966c-.802.802-.758 2.104-.057 2.996 1.673 2.13 2.671 4.815 2.671 7.734a12.47 12.47 0 0 1-2.331 7.28c-.64.895-.651 2.147.127 2.925.785.784 2.068.788 2.748-.089 2.167-2.796 3.456-6.305 3.456-10.116 0-4.081-1.479-7.816-3.93-10.699-.694-.817-1.927-.788-2.685-.03zm7.308 25.019c-.704.848-.709 2.105.07 2.884s2.06.786 2.779-.057a26.27 26.27 0 0 0 6.306-17.114 26.28 26.28 0 0 0-6.778-17.654c-.727-.806-1.973-.788-2.741-.02-.794.794-.77 2.08-.029 2.924a22.29 22.29 0 0 1 5.549 14.75c0 5.432-1.935 10.411-5.154 14.287zm7.485 7.48c-.729.827-.733 2.087.047 2.867s2.056.784 2.793-.041c5.834-6.53 9.38-15.147 9.38-24.593 0-9.697-3.738-18.522-9.852-25.111-.742-.8-1.995-.787-2.767-.015-.79.79-.774 2.07-.019 2.894 5.365 5.858 8.638 13.663 8.638 22.232a32.8 32.8 0 0 1-8.22 21.767z" fill="#fff"/><mask id="A" maskUnits="userSpaceOnUse" x="0" y="0" width="130" height="130" mask-type="alpha"><circle cx="65" cy="65" r="65" fill="#e5e5e5"/></mask><g mask="url(#A)"><path fill-rule="evenodd" d="M152.291 5.57H98.898v1.857h1.857l-1.857.001v34.29c-4.065-2.736-8.175-3.933-12.079-3.887-4.876.057-9.243 2.051-12.607 5.066-6.629 5.941-9.756 16.305-4.755 24.465a593.44 593.44 0 0 0 11.004 17.291l3.214 4.787.864 1.258.225.324.078.112c.023.032.046.064.071.095 2.32 2.9 5.786 3.873 8.872 2.87 1.477-.48 2.793-1.384 3.825-2.645l9.169 32.508h45.513V5.57zM88.782 75.212c-2.061-2.061-3.222-4.853-3.231-7.767-.018-2.174.606-4.305 1.795-6.126s2.889-3.249 4.887-4.106a6.23 6.23 0 0 0-7.033-3.263 6.23 6.23 0 0 0-4.765 6.117 1.74 1.74 0 0 1-1.74 1.74 1.74 1.74 0 0 1-1.74-1.74c.006-2.408.903-4.729 2.518-6.514s3.834-2.91 6.23-3.157 4.797.403 6.742 1.822 3.296 3.509 3.791 5.865c.084.447-.006.908-.252 1.29s-.629.655-1.071.763c-1.78.427-3.343 1.489-4.395 2.987s-1.522 3.328-1.322 5.147a7.52 7.52 0 0 0 7.352 6.692 1.74 1.74 0 0 1 1.74 1.74c-.009.459-.195.896-.52 1.221s-.762.511-1.221.52c-2.914-.009-5.706-1.171-7.766-3.231z" fill="#fff"/></g></svg>