<svg xmlns="http://www.w3.org/2000/svg" fill="none" width="130" height="130" viewBox="0 0 130 130"><circle fill="#42B2C6" cx="65" cy="65" r="65"/><path d="M21.807 54.966c-.801.802-.757 2.104-.056 2.996a12.476 12.476 0 0 1 2.67 7.734c0 2.715-.863 5.228-2.33 7.28-.64.895-.652 2.148.126 2.926.785.784 2.069.787 2.748-.09a16.458 16.458 0 0 0 3.457-10.116c0-4.08-1.48-7.816-3.93-10.7-.694-.816-1.927-.788-2.685-.03zm7.308 25.02c-.704.847-.71 2.104.07 2.883.783.783 2.06.786 2.778-.056a26.272 26.272 0 0 0 6.306-17.115 26.28 26.28 0 0 0-6.778-17.653c-.727-.807-1.974-.788-2.741-.02-.794.793-.77 2.08-.03 2.923a22.29 22.29 0 0 1 5.549 14.75 22.286 22.286 0 0 1-5.154 14.287zm7.485 7.479c-.73.827-.733 2.087.047 2.866.782.783 2.056.785 2.793-.04a36.79 36.79 0 0 0 9.38-24.593c0-9.698-3.738-18.522-9.852-25.111-.742-.8-1.995-.787-2.766-.015-.79.79-.774 2.07-.02 2.894a32.808 32.808 0 0 1 8.638 22.232 32.802 32.802 0 0 1-8.22 21.767z" fill="#fff" fill-rule="evenodd" clip-rule="evenodd"/><mask id="a" width="130" height="130" x="0" y="0" maskUnits="userSpaceOnUse" style="mask-type:alpha"><circle fill="#E5E5E5" cx="65" cy="65" r="65"/></mask><g mask="url(#a)"><path d="M152.291 5.57H98.898v1.857h1.857l-1.857.001v34.29c-4.065-2.735-8.175-3.933-12.078-3.887-4.876.057-9.243 2.05-12.608 5.066-6.63 5.942-9.756 16.305-4.755 24.465a593.44 593.44 0 0 0 11.004 17.291 418.868 418.868 0 0 0 4.077 6.046l.225.324.078.112c.023.032.046.064.071.095 2.32 2.9 5.786 3.873 8.872 2.87 1.477-.48 2.793-1.385 3.825-2.645l9.169 32.508h45.513V5.57zm-63.51 69.642a11.033 11.033 0 0 1-3.23-7.767 11.033 11.033 0 0 1 6.682-10.232 6.23 6.23 0 0 0-11.799 2.854 1.74 1.74 0 1 1-3.48 0 9.745 9.745 0 0 1 19.281-1.984 1.775 1.775 0 0 1-1.322 2.053 7.517 7.517 0 0 0 1.635 14.827 1.74 1.74 0 0 1 1.74 1.74 1.774 1.774 0 0 1-1.74 1.74 11.033 11.033 0 0 1-7.766-3.231z" fill="#fff" fill-rule="evenodd" clip-rule="evenodd"/></g></svg>