<svg xmlns="http://www.w3.org/2000/svg" width="1357.792" height="632.6" viewBox="0 0 1357.792 632.6"><defs><style>.a{fill:#5374fc;}.b,.c,.d,.f,.h,.i,.j{fill:none;}.b,.h{stroke:#5374fc;}.b,.d,.h{stroke-linecap:round;stroke-linejoin:round;}.b,.d,.f,.h,.i,.j{stroke-miterlimit:10;}.b{stroke-width:3.6px;}.d,.i{stroke:#4080ff;}.d{stroke-width:3px;}.e,.l{fill:#c5d9ff;}.g{fill:#4080ff;}.h,.i,.j{stroke-width:4px;}.i{opacity:0.276;}.j{stroke:#c5d9ff;}.k,.l{stroke:none;}</style></defs><g transform="translate(2)"><circle class="a" cx="7" cy="7" r="7" transform="translate(16)"/><path class="b" d="M0,2A6.416,6.416,0,0,1,8.816,2C13.578,6,17,2,17,2" transform="translate(1298.828 466) rotate(45)"/><circle class="c" cx="4" cy="4" r="4" transform="translate(567 577)"/><circle class="d" cx="4" cy="4" r="4" transform="translate(567 577)"/><path class="b" d="M0,2A6.416,6.416,0,0,1,8.816,2C13.578,6,17,2,17,2" transform="translate(60 224.021) rotate(-45)"/><path class="e" d="M8.5,12.75l-5,2.627.954-5.563L.416,5.873,6,5.062,8.5,0,11,5.062l5.586.812-4.042,3.94.954,5.563Z" transform="translate(180.021 49) rotate(45)"/><g class="f" transform="translate(1155.021 549) rotate(45)"><path class="k" d="M8.5,12.75l-5,2.627.954-5.563L.416,5.873,6,5.062,8.5,0,11,5.062l5.586.812-4.042,3.94.954,5.563Z"/><path class="l" d="M 9.51177978515625 9.892602920532227 L 9.318550109863281 8.765961647033691 L 10.13708972930908 7.968078136444092 L 9.005900382995605 7.803711891174316 L 8.5 6.778656005859375 L 7.994100093841553 7.803711891174316 L 6.862910270690918 7.968078136444092 L 7.681449890136719 8.765961647033691 L 7.48822021484375 9.892602920532227 L 8.5 9.360671997070312 L 9.51177978515625 9.892602920532227 M 13.49617004394531 15.37664222717285 L 8.5 12.75000190734863 L 3.503829956054688 15.37664222717285 L 4.458010196685791 9.813322067260742 L 0.416020005941391 5.87335205078125 L 6.001910209655762 5.061682224273682 L 8.5 2.067260766125401e-06 L 10.99808979034424 5.061682224273682 L 16.58398056030273 5.87335205078125 L 12.54199028015137 9.813322067260742 L 13.49617004394531 15.37664222717285 Z"/></g><g class="f" transform="translate(1230.5 49.479) rotate(45)"><path class="k" d="M8.5,12.75l-5,2.627.954-5.563L.416,5.873,6,5.062,8.5,0,11,5.062l5.586.812-4.042,3.94.954,5.563Z"/><path class="l" d="M 9.51177978515625 9.892602920532227 L 9.318550109863281 8.765961647033691 L 10.13708972930908 7.968078136444092 L 9.005900382995605 7.803711891174316 L 8.5 6.778656005859375 L 7.994100093841553 7.803711891174316 L 6.862910270690918 7.968078136444092 L 7.681449890136719 8.765961647033691 L 7.48822021484375 9.892602920532227 L 8.5 9.360671997070312 L 9.51177978515625 9.892602920532227 M 13.49617004394531 15.37664222717285 L 8.5 12.75000190734863 L 3.503829956054688 15.37664222717285 L 4.458010196685791 9.813322067260742 L 0.416020005941391 5.87335205078125 L 6.001910209655762 5.061682224273682 L 8.5 2.067260766125401e-06 L 10.99808979034424 5.061682224273682 L 16.58398056030273 5.87335205078125 L 12.54199028015137 9.813322067260742 L 13.49617004394531 15.37664222717285 Z"/></g><path class="g" d="M5.5,13V9.5H2a2,2,0,0,1,0-4H5.5V2a2,2,0,0,1,4,0V5.5H13a2,2,0,1,1,0,4H9.5V13a2,2,0,1,1-4,0Z" transform="translate(390.5 86.893) rotate(45)"/><path class="e" d="M4.033,9.534V6.967H1.467a1.467,1.467,0,1,1,0-2.934H4.033V1.467a1.467,1.467,0,1,1,2.934,0V4.033H9.534a1.467,1.467,0,0,1,0,2.934H6.967V9.534a1.467,1.467,0,0,1-2.934,0Z" transform="matrix(0.819, 0.574, -0.574, 0.819, 359.149, 9.84)"/><path class="c" d="M0,1.5C.972,0,2.581,1.472,2.581,1.472S3.988,3,5.042,3,7.494,1.418,7.494,1.418A4.3,4.3,0,0,1,10.012,0a4.133,4.133,0,0,1,2.475,1.418S13.788,3,15.019,3s2.453-1.582,2.453-1.582A4.392,4.392,0,0,1,20.01,0a4.116,4.116,0,0,1,2.466,1.418S23.2,2.5,24,2.5" transform="translate(181.758 466.069) rotate(25)"/><path class="d" d="M0,1.5C.972,0,2.581,1.472,2.581,1.472S3.988,3,5.042,3,7.494,1.418,7.494,1.418A4.3,4.3,0,0,1,10.012,0a4.133,4.133,0,0,1,2.475,1.418S13.788,3,15.019,3s2.453-1.582,2.453-1.582A4.392,4.392,0,0,1,20.01,0a4.116,4.116,0,0,1,2.466,1.418S23.2,2.5,24,2.5" transform="translate(181.758 466.069) rotate(25)"/><path class="h" d="M0,1.5C.972,0,2.581,1.472,2.581,1.472S3.988,3,5.042,3,7.494,1.418,7.494,1.418A4.3,4.3,0,0,1,10.012,0a4.133,4.133,0,0,1,2.475,1.418S13.788,3,15.019,3s2.453-1.582,2.453-1.582A4.392,4.392,0,0,1,20.01,0a4.116,4.116,0,0,1,2.466,1.418S23.2,2.5,24,2.5" transform="translate(1290 259.143) rotate(-25)"/><circle class="i" cx="8" cy="8" r="8" transform="translate(0 368)"/><circle class="j" cx="8" cy="8" r="8" transform="translate(1258 594)"/><rect class="j" width="12" height="12" transform="matrix(0.995, 0.105, -0.105, 0.995, 1341.66, 338.406)"/><path class="b" d="M0,2A6.416,6.416,0,0,1,8.816,2C13.578,6,17,2,17,2" transform="translate(1132.828 370) rotate(45)"/><path class="e" d="M8.5,12.75l-5,2.627.954-5.563L.416,5.873,6,5.062,8.5,0,11,5.062l5.586.812-4.042,3.94.954,5.563Z" transform="translate(243.021 250) rotate(45)"/><path class="e" d="M8.5,12.75l-5,2.627.954-5.563L.416,5.873,6,5.062,8.5,0,11,5.062l5.586.812-4.042,3.94.954,5.563Z" transform="translate(987.021 14) rotate(45)"/><path class="e" d="M8.5,12.75l-5,2.627.954-5.563L.416,5.873,6,5.062,8.5,0,11,5.062l5.586.812-4.042,3.94.954,5.563Z" transform="translate(301.021 610) rotate(45)"/></g></svg>