<svg xmlns="http://www.w3.org/2000/svg" width="538.893" height="138.894"><rect id="backgroundrect" width="100%" height="100%" x="0" y="0" fill="none" stroke="none"/><defs><style>.a{opacity:0.3;}.b{opacity:0.45;}.c{fill:#fff;}.d{fill:#234561;}.e{fill:#f7f7f7;}.f{fill:#3f80ff;}.g{fill:#7da7fa;}.h{fill:#bcd3ff;}</style></defs><g class="currentLayer" style=""><title>Layer 1</title><g class="a" id="svg_2" transform="rotate(90 267.4362182617188,67.41729736328128) "><path class="b" d="M270.8869133300782,-150.94649505615234 a46,46 0 0 0 -26.58,83.6 a26.9,26.9 0 0 0 -0.6220000000000004,5.667 l-0.5700000000000004,369.424 a27.064,27.064 0 0 0 54.128,0.08400000000000007 l0.5700000000000004,-369.424 a26.766000000000002,26.766000000000002 0 0 0 -0.6000000000000004,-5.67 A46,46 0 0 0 270.8869133300782,-150.94649505615234 z" id="svg_3"/><rect class="b" width="12.178999900817871" height="29.770000457763672" transform="matrix(0.782,-0.623,0.623,0.782,0,24.109) " y="-31.783211681557987" x="281.09955773229353" id="svg_4"/><rect class="b" width="12.178999900817866" height="29.77000045776366" transform="matrix(0.999,-0.045,0.045,0.999,61.714,0.544) " y="-190.7737052927505" x="208.8125425497662" id="svg_5"/><rect class="b" width="29.770999908447266" height="12.178999900817871" transform="rotate(-52.63800048828125 307.10693359375006,-158.2274932861328) " y="-158.22749710083008" x="307.1069107055664" id="svg_6"/></g><g id="svg_8" transform="rotate(90 246.9667510986328,74.8526306152344) " class=""><path class="c" d="M273.3651085662842,-84.35763034057618 a26.766000000000002,26.766000000000002 0 0 1 0.6000000000000006,5.67 l-0.5700000000000006,369.424 a27.064,27.064 0 1 1 -54.128,-0.0840000000000001 l0.5700000000000006,-369.424 a26.9,26.9 0 0 1 0.6220000000000007,-5.667 a46.009,46.009 0 1 1 52.9,0.08100000000000009 z" id="svg_9"/><g id="svg_10"><rect class="d" width="9.472000122070312" height="2.7060000896453857" rx="0.5" y="293.4023628234863" x="260.2001094818115" id="svg_11"/><rect class="d" width="8.119000434875488" height="2.7060000896453857" rx="0.5" y="252.80537796020508" x="261.5531095266342" id="svg_12"/><rect class="d" width="9.472000122070312" height="2.7060000896453857" rx="0.5" y="212.20936965942383" x="260.2001094818115" id="svg_13"/><rect class="d" width="8.119000434875488" height="2.7060000896453857" rx="0.5" y="171.61337661743164" x="261.5531095266342" id="svg_14"/><rect class="d" width="9.472000122070312" height="2.7060000896453857" rx="0.5" y="131.0173683166504" x="260.2001094818115" id="svg_15"/><rect class="d" width="8.119000434875488" height="2.7060000896453857" rx="0.5" y="90.4213752746582" x="261.5531095266342" id="svg_16"/><rect class="d" width="9.472000122070312" height="2.7060000896453857" rx="0.5" y="49.82536697387695" x="260.2001094818115" id="svg_17"/><rect class="d" width="8.119000434875488" height="2.7060000896453857" rx="0.5" y="9.229366302490234" x="261.5531095266342" id="svg_18"/><rect class="d" width="9.472000122070312" height="2.7060000896453857" rx="0.5" y="-30.013629913330078" x="260.2001094818115" id="svg_19"/><rect class="d" width="8.119000434875488" height="2.7060000896453857" rx="0.5" y="-70.6096305847168" x="261.5531095266342" id="svg_20"/></g></g><path class="e" d="M463.47227847290037,62.374295684814456 A30.447,30.447 0 1 0 424.2252784729004,91.52729568481445 V118.52729568481445 H441.82527847290044 V91.52729568481445 A30.457,30.457 0 0 0 463.47227847290037,62.374295684814456 z" id="svg_21" transform="rotate(90 433.0252990722656,75.2300186157227) "/><rect class="e" width="17.591999053955078" height="79.83899688720703" y="35.311485290527344" x="341.0075149536133" id="svg_22" transform="rotate(90 349.80352783203125,75.23098754882817) "/><rect class="e" width="17.591999053955078" height="288.96976934380854" y="-69.25390625" x="156.60316467285156" id="svg_23" transform="rotate(90 165.39915466308597,75.23096466064455) "/><g id="svg_29" transform="rotate(90 506.9386901855469,18.095306396484407) " class=""><rect class="c" width="12.178999900817871" height="29.770000457763672" transform="matrix(0.782,-0.623,0.623,0.782,0,7.592) " y="309.2638781376436" x="383.9283601515469" id="svg_30"/></g><g id="svg_31" transform="rotate(90 523.7509765625001,72.52249145507817) " class=""><rect class="c" width="12.178999900817871" height="29.770000457763672" transform="rotate(-2.561000108718872 517.0025024414062,57.92445373535142) " y="57.92445504665375" x="517.0024757385254" id="svg_32"/></g><g id="svg_33" transform="rotate(90 505.2773742675781,125.02078247070317) " class=""><rect class="c" width="12.178999900817871" height="29.770999908447266" transform="rotate(37.36199951171875 509.4705810546874,109.49414062500004) " y="109.49414443969727" x="509.47057914733887" id="svg_34"/></g></g></svg>