<svg width="106" height="103" viewBox="0 0 106 103" fill="none" xmlns="http://www.w3.org/2000/svg">
<path fill-rule="evenodd" clip-rule="evenodd" d="M24.3469 22.5752C24.7419 23.58 26.3659 33.5846 25.8831 34.502C25.0052 36.2932 25.5758 37.7349 26.7609 39.0893C27.4631 39.8319 28.2532 40.531 28.9993 41.3173C29.4383 41.7979 29.965 42.2785 30.36 42.8027C31.7206 44.5502 31.3695 45.8172 29.3066 46.6473C29.0871 46.7346 28.8677 46.822 28.6482 46.9094C28.2093 47.1278 28.0337 47.5647 28.2093 48.0016C28.341 48.3074 28.5165 48.5695 28.6482 48.8754C29.0432 49.7491 28.8677 50.4918 28.0337 51.0161C27.6387 51.2345 27.1559 51.4093 26.7609 51.584C26.3659 51.7588 26.0147 51.8898 25.6636 52.1956C26.0147 52.283 26.3659 52.3267 26.717 52.4141C27.2437 52.5451 27.8143 52.5888 28.2971 52.8073C29.131 53.1131 29.3505 53.8121 28.9993 54.5548C28.9555 54.7295 28.8677 54.8606 28.7799 54.9917C27.8582 56.1276 27.8582 57.3945 28.2971 58.7052C28.6921 59.9284 28.341 60.7585 27.1559 61.3264C25.6197 62.0254 23.9518 62.1128 22.3279 62.2002C21.8451 62.2439 21.3184 62.2002 20.8356 62.2002C19.8261 62.2439 19.3871 63.0303 19.1238 63.773C18.7727 64.8652 18.5093 66.001 18.246 67.1369C18.1143 67.5301 18.0704 67.9233 17.4998 67.8796C17.017 67.7923 16.7976 67.4427 16.9292 66.8748C17.1926 65.7826 17.4559 64.6904 17.7632 63.5982C17.8948 63.1176 18.2021 62.6808 18.4654 62.2439C19.0799 61.1517 20.0894 60.8896 21.2745 60.8459C22.7229 60.8022 24.1713 60.6274 25.6197 60.4527C25.8392 60.409 26.0586 60.3216 26.2781 60.2779C27.112 59.9284 27.1998 59.7537 26.9365 58.8799C26.4975 57.3071 26.4975 55.7344 27.5948 54.3364C27.6387 54.2927 27.6826 54.2053 27.7265 54.1179C27.7265 54.1179 27.7265 54.0742 27.7265 53.9432C27.2437 53.8558 26.7609 53.8558 26.322 53.681C25.6197 53.4626 24.9175 53.2005 24.3469 52.851C23.7324 52.4578 23.7324 51.8025 24.303 51.3219C24.698 51.0161 25.2247 50.7976 25.6636 50.5792C26.1464 50.3607 26.6292 50.186 27.112 50.0112C27.4631 49.8802 27.5948 49.6617 27.3754 49.3122C27.2437 49.0938 27.1559 48.8754 27.0681 48.7006C26.4975 47.6521 26.9365 46.0793 28.2971 45.5988C28.5165 45.5114 28.7799 45.424 28.9993 45.3366C29.9211 44.9434 30.0527 44.5939 29.3944 43.8076C28.6482 42.8901 27.7704 42.0163 26.8926 41.1426C25.6636 39.963 24.5224 38.7397 24.1713 36.9922C24.0835 36.468 24.1274 35.9 24.2152 35.3758C24.303 34.8952 24.5224 34.4583 24.6541 34.0214C24.9175 33.3224 23.3813 23.7111 23.0301 23.0121L24.3469 22.5752Z" fill="#F58B71" stroke="#F58B71" stroke-width="0.0135276"/>
<path fill-rule="evenodd" clip-rule="evenodd" d="M50.3452 52.2267C50.2574 56.7265 48.7651 60.6585 45.7366 63.9787C45.561 64.1535 45.4294 64.3282 45.2099 64.503C44.8149 64.8525 44.376 64.8525 43.9809 64.503C43.5859 64.1098 43.5859 63.6292 43.9371 63.236C44.2882 62.7992 44.7271 62.406 45.0782 61.9691C48.7212 57.2071 49.5112 51.9645 47.4045 46.3725C46.6583 44.4939 45.561 42.8774 44.2004 41.3921C43.9371 41.1299 43.7176 40.6494 43.7615 40.3435C43.8493 39.6009 44.7271 39.4698 45.3416 40.0377C46.8778 41.5668 48.0189 43.3143 48.8968 45.2366C49.8624 47.4647 50.3452 49.8238 50.3452 52.2267Z" fill="#F58B71"/>
<path fill-rule="evenodd" clip-rule="evenodd" d="M50.3452 52.2267C50.2574 56.7265 48.7651 60.6585 45.7366 63.9787C45.561 64.1535 45.4294 64.3282 45.2099 64.503C44.8149 64.8525 44.376 64.8525 43.9809 64.503C43.5859 64.1098 43.5859 63.6292 43.9371 63.236C44.2882 62.7992 44.7271 62.406 45.0782 61.9691C48.7212 57.2071 49.5112 51.9645 47.4045 46.3725C46.6583 44.4939 45.561 42.8774 44.2004 41.3921C43.9371 41.1299 43.7176 40.6494 43.7615 40.3435C43.8493 39.6009 44.7271 39.4698 45.3416 40.0377C46.8778 41.5668 48.0189 43.3143 48.8968 45.2366C49.8624 47.4647 50.3452 49.8238 50.3452 52.2267Z" stroke="#F58B71" stroke-width="0.0135276"/>
<path fill-rule="evenodd" clip-rule="evenodd" d="M44.3932 53.4978C44.3493 55.7259 43.1642 58.8277 40.7941 61.449C40.7063 61.5801 40.6185 61.6674 40.4868 61.7985C40.0479 62.2354 39.5651 62.3665 39.0823 61.8859C38.5995 61.449 38.7751 60.9684 39.1701 60.5316C40.3991 59.3083 41.3647 57.8666 41.8914 56.1628C43.3398 51.7503 42.5497 47.731 39.4335 44.1486C39.3018 44.0175 39.1262 43.8865 39.0384 43.7117C38.7312 43.3185 38.6873 42.8816 39.0823 42.5321C39.4335 42.2263 39.9163 42.0952 40.3552 42.4884C40.7502 42.8816 41.1452 43.3185 41.4963 43.7554C43.3837 46.2456 44.3932 49.0853 44.3932 53.4978Z" fill="#F58B71"/>
<path fill-rule="evenodd" clip-rule="evenodd" d="M44.3932 53.4978C44.3493 55.7259 43.1642 58.8277 40.7941 61.449C40.7063 61.5801 40.6185 61.6674 40.4868 61.7985C40.0479 62.2354 39.5651 62.3665 39.0823 61.8859C38.5995 61.449 38.7751 60.9684 39.1701 60.5316C40.3991 59.3083 41.3647 57.8666 41.8914 56.1628C43.3398 51.7503 42.5497 47.731 39.4335 44.1486C39.3018 44.0175 39.1262 43.8865 39.0384 43.7117C38.7312 43.3185 38.6873 42.8816 39.0823 42.5321C39.4335 42.2263 39.9163 42.0952 40.3552 42.4884C40.7502 42.8816 41.1452 43.3185 41.4963 43.7554C43.3837 46.2456 44.3932 49.0853 44.3932 53.4978Z" stroke="#F58B71" stroke-width="0.0135276"/>
<path fill-rule="evenodd" clip-rule="evenodd" d="M36.5962 52.0745C36.5523 49.9775 35.7623 48.0989 34.27 46.4825C33.6555 45.8271 33.7433 45.1281 34.5333 44.9097C34.8405 44.8223 35.3233 44.9971 35.5428 45.2155C37.6057 47.3562 38.5274 49.9338 38.3518 52.8609C38.2202 55.2637 37.2985 57.3608 35.6745 59.152C35.2356 59.5889 34.7966 59.8947 34.1822 59.4141C33.7433 59.0646 33.7871 58.4967 34.3577 57.885C35.8061 56.2686 36.5523 54.39 36.5962 52.0745Z" fill="#F58B71"/>
<path fill-rule="evenodd" clip-rule="evenodd" d="M36.5962 52.0745C36.5523 49.9775 35.7623 48.0989 34.27 46.4825C33.6555 45.8271 33.7433 45.1281 34.5333 44.9097C34.8405 44.8223 35.3233 44.9971 35.5428 45.2155C37.6057 47.3562 38.5274 49.9338 38.3518 52.8609C38.2202 55.2637 37.2985 57.3608 35.6745 59.152C35.2356 59.5889 34.7966 59.8947 34.1822 59.4141C33.7433 59.0646 33.7871 58.4967 34.3577 57.885C35.8061 56.2686 36.5523 54.39 36.5962 52.0745Z" stroke="#F58B71" stroke-width="0.0135276"/>
<path fill-rule="evenodd" clip-rule="evenodd" d="M38.2869 90.8238C44.0778 93.0229 50.4147 94.235 57.0587 94.235C65.2663 94.235 73.0351 92.3564 79.8821 89.0798C71.4989 95.3708 61.0967 99.128 49.8166 99.128C43.3866 99.128 37.2417 97.9164 31.5998 95.7106L38.2869 90.8238ZM24.2665 82.7451C13.8541 74.2373 7.28595 61.747 7.28595 47.8383C7.28595 22.2372 29.5388 1.4417 57.0587 1.4417C59.0777 1.4417 61.0967 1.57277 63.0718 1.79121C58.8582 0.611632 54.3813 0 49.8166 0C22.2968 0 0 22.1935 0 49.5858C0 67.035 9.07652 82.3856 22.7951 91.2124L24.2665 82.7451Z" fill="#F47D5C"/>
<path d="M28.2803 79.6172L21.3894 102.073L39.736 85.1219L28.2803 79.6172Z" fill="#377044"/>
<path fill-rule="evenodd" clip-rule="evenodd" d="M15.6623 48.6537C15.6623 69.755 32.8238 86.837 54.0233 86.837C67.3809 86.837 79.1462 80.027 86.0047 69.6952H90.9508C83.6175 82.4461 69.824 91.031 54.0233 91.031C30.4976 91.031 11.4487 72.0705 11.4487 48.6537C11.4487 25.2369 30.4976 6.27637 54.0233 6.27637C70.3465 6.27637 84.5275 15.4385 91.6569 28.8906H86.8173C80.1009 17.8458 67.9244 10.4704 54.0233 10.4704C32.8238 10.4704 15.6623 27.5524 15.6623 48.6537Z" fill="#377044"/>
<path d="M65.2405 39.1712C65.5039 38.8653 65.7672 38.6469 66.1622 38.4285C66.5134 38.2537 66.9962 38.1663 67.5229 38.1663C67.9179 38.1663 68.269 38.21 68.6201 38.3411C68.9713 38.4721 69.2785 38.6469 69.498 38.909C69.7613 39.1712 69.9808 39.477 70.1125 39.8702C70.288 40.2634 70.3319 40.7002 70.3319 41.2245V45.5933C70.2441 45.637 70.0686 45.6807 69.893 45.6807C69.7174 45.7244 69.498 45.7244 69.2785 45.7244C68.7957 45.7244 68.4885 45.6807 68.2251 45.5059C68.0057 45.3749 67.874 45.069 67.874 44.5448V41.2245C67.874 40.9624 67.8301 40.7876 67.6984 40.6129C67.5229 40.4818 67.3473 40.3944 67.084 40.3944C66.8645 40.3944 66.6889 40.4818 66.5134 40.6129C66.3817 40.7876 66.2939 41.0061 66.2939 41.3119V45.5933C66.1622 45.637 66.0306 45.6807 65.8111 45.6807C65.6355 45.7244 65.4161 45.7244 65.1966 45.7244C64.7577 45.7244 64.4505 45.6807 64.231 45.5496C64.0116 45.3749 63.8799 45.069 63.8799 44.6322V44.1516C63.6165 44.3263 63.1776 44.4574 62.5193 44.4574C62.1242 44.4574 61.7731 44.37 61.3781 44.2827C61.027 44.1516 60.6758 43.9768 60.4125 43.7147C60.1052 43.4526 59.8419 43.1468 59.6663 42.7536C59.4908 42.3604 59.403 41.8798 59.403 41.3556V41.2245C58.9641 40.9624 58.569 40.5255 58.2179 40.0012C57.9107 39.477 57.7351 38.778 57.7351 37.9479C57.7351 37.0304 57.9546 36.2004 58.3057 35.4577C58.7007 34.715 59.2274 34.0597 59.9297 33.5354C60.588 33.0111 61.422 32.618 62.3437 32.3121C63.3093 32.05 64.3188 31.9189 65.46 31.9189C66.7767 31.9189 68.0057 32.0937 69.0591 32.4432C70.1125 32.7927 70.9903 33.2733 71.7364 33.9286C72.4826 34.5402 73.0532 35.2829 73.4482 36.1567C73.8432 36.9868 74.0188 37.9479 74.0188 38.9527C74.0188 39.8702 73.8432 40.5255 73.4921 40.9624C73.1409 41.3992 72.702 41.6177 72.1753 41.6177C71.9559 41.6177 71.6925 41.5303 71.4731 41.3992C71.2536 41.2682 71.0781 41.1371 70.9464 40.9624C71.0781 40.7002 71.1658 40.3507 71.2097 40.0012C71.2975 39.6517 71.2975 39.3022 71.2975 38.9964C71.2975 38.3411 71.1658 37.7295 70.9025 37.1615C70.6391 36.5936 70.288 36.0693 69.7613 35.6324C69.2785 35.1955 68.664 34.846 67.9179 34.5839C67.2156 34.3218 66.3817 34.1907 65.46 34.1907C64.6699 34.1907 63.9677 34.3218 63.3532 34.4965C62.7387 34.715 62.212 34.9771 61.7731 35.2829C61.3781 35.6324 61.027 36.0256 60.8075 36.4625C60.588 36.8994 60.5003 37.3799 60.5003 37.8605C60.5003 38.079 60.5003 38.2974 60.5441 38.4721C60.588 38.6469 60.6758 38.8217 60.7636 38.9527C61.2464 38.4285 61.9487 38.1663 62.8704 38.1663C63.441 38.1663 63.8799 38.2537 64.3188 38.4721C64.7138 38.6469 65.0211 38.909 65.2405 39.1712ZM61.817 41.3992C61.817 41.7487 61.9048 42.0546 62.1242 42.2293C62.3437 42.4478 62.5631 42.5351 62.8704 42.5351C63.1776 42.5351 63.441 42.4478 63.6604 42.2293C63.836 42.0546 63.9238 41.7487 63.9238 41.3992C63.9238 41.0497 63.836 40.7876 63.6604 40.5692C63.441 40.3507 63.1776 40.2634 62.8704 40.2634C62.5631 40.2634 62.3437 40.3507 62.1242 40.5692C61.9048 40.7876 61.817 41.0497 61.817 41.3992Z" fill="#377044"/>
<path d="M70.3172 46.5164C70.3172 47.0844 70.3172 47.6086 70.2734 48.0455C70.2295 48.4824 70.1856 48.8319 70.0539 49.0503C70.4928 49.2688 70.9317 49.4872 71.4584 49.6183C71.9412 49.7493 72.4679 49.793 72.9507 49.793C73.1263 49.793 73.3019 49.793 73.4335 49.793C73.5652 49.7493 73.6969 49.7493 73.8724 49.7057C73.9163 49.793 73.9602 49.9678 74.0041 50.1425C74.048 50.361 74.0919 50.5357 74.0919 50.7542C74.0919 51.1474 73.9602 51.4532 73.6969 51.6716C73.4335 51.89 73.0385 52.0211 72.4679 52.0211C71.7218 52.0211 71.0634 51.89 70.4928 51.6716C69.9222 51.4095 69.3955 51.1037 68.9566 50.7542C68.6055 51.1474 68.1227 51.4969 67.5521 51.8027C66.9376 52.1085 66.2353 52.2832 65.4892 52.2832C64.9625 52.2832 64.5236 52.1959 64.0847 52.1085C63.6897 51.9774 63.3385 51.8027 63.0313 51.5405C62.724 51.3221 62.5046 51.0163 62.329 50.7105C62.1535 50.361 62.0657 49.9678 62.0657 49.5309C62.0657 48.7008 62.3729 48.0892 62.8996 47.6086C63.4702 47.1281 64.2163 46.8659 65.1381 46.8659C66.1037 46.8659 66.9815 47.1281 67.7715 47.6523C67.8154 47.4776 67.8593 47.3028 67.8593 47.1717C67.8593 46.997 67.8593 46.8222 67.8593 46.6475V44.4194C67.991 44.3757 68.1666 44.3757 68.3421 44.332C68.5616 44.332 68.7372 44.332 68.9127 44.332C69.3516 44.332 69.7467 44.3757 69.9661 44.4631C70.2295 44.5505 70.3172 44.7689 70.3172 45.1184V46.5164ZM65.6209 50.2736C65.9281 50.2736 66.1915 50.2299 66.4548 50.0988C66.762 49.9678 66.9815 49.7493 67.1571 49.4435C66.8937 49.2251 66.6304 49.0503 66.367 48.9193C66.1037 48.8319 65.8403 48.7882 65.5331 48.7882C65.2258 48.7882 65.0064 48.8319 64.8308 49.0066C64.6992 49.1377 64.6114 49.3125 64.6114 49.5309C64.6114 49.7493 64.6992 49.9241 64.8747 50.0988C65.0503 50.2299 65.3136 50.2736 65.6209 50.2736Z" fill="#377044"/>
<path d="M82.6918 44.1079L79.7511 45.3312C80.1022 45.5059 80.4973 45.6807 80.9801 45.8554C81.419 46.0302 81.9457 46.2049 82.4724 46.336C82.9991 46.5107 83.5696 46.6418 84.1402 46.7729C84.7108 46.9039 85.3253 47.035 85.8959 47.166C85.9837 47.3408 85.9837 47.5592 85.9837 47.8214C85.9837 48.1709 85.8959 48.4767 85.6764 48.6951C85.457 48.9136 85.1497 49.0446 84.7547 49.0446C84.4475 49.0446 84.0963 49.0009 83.7013 48.9136C83.3063 48.8262 82.9552 48.7388 82.604 48.6514C82.1651 48.5204 81.6823 48.3893 81.1995 48.2146C80.6728 48.0398 80.2339 47.8214 79.7511 47.6466C79.3122 47.4282 78.8733 47.2097 78.4783 47.035C78.0832 46.8165 77.7321 46.5981 77.4249 46.3797C77.381 46.2486 77.3371 46.0738 77.2932 45.8991C77.2493 45.768 77.2493 45.5496 77.2493 45.3748C77.2493 45.1564 77.2493 44.938 77.2932 44.7632C77.3371 44.5448 77.381 44.3263 77.4688 44.1516L79.3122 43.4963C78.7855 43.3215 78.3905 43.0157 78.0832 42.6225C77.776 42.2293 77.6004 41.7924 77.5127 41.2682C76.8104 41.0497 76.2398 40.6129 75.757 39.9575C75.3181 39.3022 75.0986 38.5158 75.0986 37.511C75.0986 36.7246 75.2303 35.9819 75.5814 35.2829C75.9326 34.6276 76.3715 34.016 76.986 33.4917C77.5565 33.0111 78.3027 32.618 79.1366 32.3121C79.9706 32.05 80.8923 31.9189 81.9018 31.9189C83.1746 31.9189 84.2719 32.0937 85.2375 32.4869C86.1592 32.8801 86.9493 33.3606 87.5637 34.016C88.1782 34.6276 88.661 35.3703 88.9683 36.2004C89.2755 36.9868 89.4072 37.8168 89.4072 38.6469C89.4072 39.0401 89.4072 39.3459 89.3633 39.608C89.3194 39.8265 89.2755 40.0449 89.1877 40.2197C89.0561 40.6565 88.8805 41.006 88.5732 41.2245C88.266 41.4429 87.9149 41.5303 87.476 41.5303C87.2126 41.5303 86.9493 41.4429 86.7298 41.3555C86.5542 41.2245 86.3787 41.0497 86.2909 40.9187C86.4226 40.6565 86.5104 40.3507 86.5981 39.9575C86.6859 39.608 86.7298 39.1275 86.7298 38.6032C86.7298 38.079 86.642 37.511 86.4226 36.9868C86.247 36.4625 85.9398 35.9819 85.5448 35.5887C85.1497 35.1519 84.6669 34.8024 84.0524 34.5839C83.4819 34.3218 82.7796 34.1907 81.9896 34.1907C81.3312 34.1907 80.7167 34.2781 80.2339 34.4965C79.7072 34.6713 79.2683 34.8897 78.8733 35.2392C78.5222 35.545 78.2588 35.8946 78.0393 36.2877C77.8638 36.7246 77.776 37.1615 77.776 37.5984C77.776 38.079 77.8638 38.5595 78.1271 38.9527C78.2588 38.5595 78.4783 38.2537 78.7855 37.9916C79.0488 37.7731 79.3561 37.6421 79.6633 37.6421C80.0145 37.6421 80.2778 37.7294 80.4973 37.9479C80.6728 38.1663 80.8484 38.4285 80.9801 38.7343C80.7167 38.9964 80.4534 39.2585 80.2778 39.5643C80.0583 39.8702 79.9706 40.2197 79.9706 40.6565C79.9706 41.0934 80.1022 41.4429 80.3656 41.7487C80.6289 42.0109 80.9801 42.1856 81.4629 42.1856C82.0335 42.1856 82.4285 42.0109 82.6918 41.7051V38.1226C82.8235 38.079 82.9991 38.079 83.1746 38.0353C83.3502 37.9916 83.5696 37.9916 83.7452 37.9916C84.1841 37.9916 84.5353 38.079 84.7986 38.21C85.0619 38.3848 85.1497 38.6906 85.1497 39.1711V45.637C85.0181 45.637 84.8425 45.6807 84.6669 45.7243C84.4475 45.7243 84.228 45.7243 84.0524 45.7243C83.5696 45.7243 83.2624 45.6807 83.0429 45.5059C82.8235 45.3748 82.6918 45.069 82.6918 44.5448V44.1079Z" fill="#377044"/>
<path d="M71.3425 60.8795C71.3425 60.7484 71.3425 60.6173 71.3425 60.4863C71.3864 60.3552 71.3864 60.2241 71.4303 60.0494C71.2108 59.8746 70.9913 59.6125 70.8158 59.263C70.6402 58.9135 70.5085 58.4766 70.5085 57.9087C70.5085 57.2971 70.6402 56.7291 70.9036 56.2485C71.1669 55.7243 71.518 55.3311 71.957 54.9816C72.4398 54.6321 72.9665 54.3263 73.6248 54.1515C74.2393 53.9768 74.9416 53.8457 75.6877 53.8457C76.4778 53.8457 77.2678 53.9768 77.9701 54.2389C78.6723 54.4573 79.2868 54.8068 79.8135 55.2437C80.3402 55.7243 80.7791 56.2485 81.0864 56.9039C81.3936 57.5592 81.5253 58.3019 81.5253 59.0883C81.5253 59.6125 81.4814 60.0931 81.3497 60.6173C81.218 61.0979 81.0425 61.5348 80.8669 61.928L82.4031 63.2823C82.3592 63.5444 82.3153 63.7629 82.1836 63.8939C82.0081 64.0687 81.8325 64.1561 81.5692 64.1561C81.4375 64.1561 81.3058 64.1124 81.1741 64.0687C81.0425 64.025 80.9108 63.8939 80.7352 63.7629C80.6035 63.6318 80.428 63.4571 80.2524 63.2386C80.033 62.9765 79.8574 62.6707 79.594 62.3212C79.5063 62.1901 79.4624 62.059 79.4624 61.9717C79.4624 61.8406 79.5063 61.7095 79.5502 61.5348C79.6818 61.229 79.7696 60.8358 79.8574 60.4426C79.9013 60.0494 79.9452 59.6562 79.9452 59.263C79.9452 58.6514 79.8574 58.0834 79.6379 57.5592C79.4185 57.0349 79.1112 56.6417 78.7162 56.2922C78.3212 55.9427 77.8823 55.6806 77.3556 55.4622C76.8289 55.2874 76.3022 55.2 75.6877 55.2C75.1171 55.2 74.5904 55.2874 74.1515 55.4185C73.7126 55.5495 73.3176 55.768 73.0103 55.9864C72.7031 56.2485 72.4837 56.5544 72.352 56.9039C72.1764 57.2534 72.0886 57.6029 72.0886 57.9961C72.0886 58.1708 72.1325 58.3456 72.1325 58.4766C72.1764 58.6514 72.2642 58.7824 72.3081 58.8698C72.4837 58.7388 72.6592 58.6077 72.8787 58.5203C73.0981 58.4766 73.3176 58.4329 73.5809 58.4329C73.9321 58.4329 74.2393 58.4766 74.5027 58.6514C74.766 58.8261 74.9416 59.0009 75.1171 59.263C75.2488 59.0009 75.4683 58.8261 75.7755 58.6514C76.0389 58.5203 76.3461 58.4329 76.6972 58.4329C77.3117 58.4329 77.8384 58.6514 78.2334 59.0446C78.5845 59.4815 78.804 60.0931 78.804 60.8795C78.804 61.3163 78.7162 61.7095 78.6284 62.0154C78.4968 62.3212 78.3651 62.5833 78.1895 62.8017C77.9701 62.9765 77.7506 63.1512 77.4873 63.2386C77.2678 63.326 76.9606 63.3697 76.6972 63.3697C76.3022 63.3697 75.9511 63.2823 75.6877 63.1076C75.4244 62.9765 75.2049 62.7581 75.1171 62.5396C74.9855 62.7144 74.8099 62.9328 74.5465 63.1076C74.2832 63.2823 73.8882 63.3697 73.4493 63.3697C73.142 63.3697 72.8787 63.326 72.6153 63.2386C72.352 63.1076 72.1325 62.9765 71.957 62.7581C71.7375 62.5833 71.6058 62.3212 71.4742 62.0154C71.3864 61.7095 71.3425 61.3163 71.3425 60.8795ZM75.6877 61.2727C75.7316 61.5348 75.8194 61.7532 75.9511 61.928C76.1266 62.1027 76.3022 62.1464 76.5217 62.1464C76.785 62.1464 76.9606 62.059 77.1361 61.8843C77.3117 61.6659 77.3995 61.3163 77.3995 60.8358C77.3995 60.3989 77.3117 60.0931 77.1361 59.9183C77.0045 59.6999 76.785 59.6125 76.5655 59.6125C76.3461 59.6125 76.1705 59.6999 75.995 59.8746C75.8194 60.0494 75.7316 60.3989 75.7316 60.8795L75.6877 61.2727ZM74.4149 60.53C74.371 60.2241 74.2393 59.962 74.1076 59.831C73.976 59.6999 73.7565 59.6125 73.5809 59.6125C73.3615 59.6125 73.142 59.6999 72.9665 59.9183C72.7909 60.0931 72.7031 60.4426 72.7031 60.8795C72.7031 61.36 72.7909 61.7095 72.9665 61.8843C73.142 62.059 73.3176 62.1464 73.5809 62.1464C73.8004 62.1464 73.976 62.1027 74.1076 61.928C74.2832 61.7532 74.371 61.4474 74.371 61.0105L74.4149 60.53Z" fill="#373435"/>
<path d="M86.8987 64.1976C86.9426 64.4597 86.9865 64.6782 87.1181 64.9403C87.2498 65.1587 87.3815 65.3772 87.557 65.5519C87.7765 65.7267 87.996 65.8577 88.2593 65.9888C88.5227 66.0762 88.8299 66.1636 89.1371 66.1636C88.9177 65.9888 88.786 65.8141 88.6104 65.5519C88.4788 65.2898 88.391 64.984 88.391 64.6345C88.391 64.1976 88.5227 63.8481 88.786 63.5423C89.0055 63.2802 89.3127 63.1054 89.6199 62.9743V55.4163C89.5322 55.3726 89.4005 55.3289 89.2249 55.2852C89.0493 55.2416 88.8738 55.1979 88.6543 55.1979C88.4349 55.1979 88.2593 55.2416 88.0837 55.2852C87.8643 55.3726 87.7326 55.46 87.557 55.5911C87.4254 55.7221 87.2937 55.8532 87.2059 56.0279C87.1181 56.2027 87.0742 56.4211 87.0742 56.6833C87.3815 56.727 87.6009 56.8143 87.7765 56.9891C87.9521 57.1201 88.0398 57.2949 88.0398 57.426C88.0398 57.6007 87.996 57.7318 87.9082 57.8628C87.8643 57.9939 87.7326 58.0813 87.6448 58.1687C87.4693 58.0813 87.2498 57.9939 87.0303 57.9065C86.767 57.8192 86.5037 57.8192 86.2403 57.8192C86.0647 57.8192 85.8892 57.8192 85.6697 57.8628C85.4942 57.9065 85.3186 57.9939 85.143 58.0813C84.9675 58.1687 84.7919 58.2997 84.6602 58.4745C84.5285 58.6055 84.3969 58.824 84.3091 59.0424C84.4408 58.9987 84.6163 58.9987 84.748 58.955C84.9236 58.955 85.0552 58.955 85.2308 58.955C85.7136 58.955 86.1964 58.9987 86.5914 59.1298C86.9426 59.2609 87.2937 59.3919 87.557 59.6104C87.8204 59.8288 88.0398 60.0909 88.1715 60.3531C88.3032 60.6589 88.391 60.9647 88.391 61.3142C88.391 61.62 88.3471 61.9258 88.2154 62.1443C88.1276 62.4064 87.9521 62.6248 87.7326 62.8433C87.5132 63.018 87.2937 63.1491 86.9865 63.2802C86.6353 63.3675 86.2842 63.4112 85.8892 63.4112C85.4503 63.4112 85.0552 63.3675 84.6602 63.1928C84.3091 63.0617 83.958 62.8433 83.6507 62.5811C83.3435 62.2753 83.124 61.9258 82.9485 61.5326C82.7729 61.0958 82.729 60.6152 82.729 60.0472C82.729 59.4793 82.7729 58.9987 82.9485 58.5619C83.124 58.1687 83.3874 57.8192 83.6507 57.5133C83.9141 57.2512 84.2213 57.0328 84.5724 56.858C84.9236 56.727 85.2747 56.6396 85.6258 56.5959V56.4211C85.6258 56.0279 85.6697 55.6784 85.8453 55.4163C86.0208 55.1105 86.2403 54.8484 86.5037 54.6299C86.767 54.4115 87.1181 54.2367 87.4693 54.1494C87.8204 54.0183 88.2154 53.9746 88.6543 53.9746C89.181 53.9746 89.6199 54.0183 89.9711 54.1494C90.3222 54.2367 90.6294 54.3678 90.805 54.4989C90.9806 54.6299 91.0683 54.761 91.1122 54.8921C91.1561 55.0231 91.2 55.1542 91.2 55.3289V63.0617C91.5073 63.1928 91.7706 63.3675 91.9462 63.6733C92.1656 63.9355 92.2973 64.3287 92.2973 64.7655C92.2973 65.1151 92.2095 65.4209 92.0778 65.7267C91.9462 66.0325 91.7267 66.2946 91.4634 66.5131C91.2 66.7315 90.8489 66.8626 90.4539 66.9936C90.1027 67.1247 89.6638 67.1684 89.1371 67.1684C88.5665 67.1684 88.0837 67.1247 87.6448 66.9499C87.2059 66.8189 86.8548 66.6004 86.5914 66.382C86.3281 66.1636 86.1086 65.9014 85.977 65.5956C85.8014 65.3335 85.7575 65.0277 85.7575 64.7655C85.7575 64.5471 85.8014 64.3724 85.9331 64.2413C86.1086 64.1539 86.2403 64.0665 86.4598 64.0665C86.5475 64.0665 86.6353 64.1102 86.7231 64.1102C86.767 64.1539 86.8548 64.1539 86.8987 64.1976ZM85.0552 60.1783C84.7919 60.1783 84.4847 60.1783 84.1774 60.2657C84.1774 60.5715 84.2213 60.8773 84.3091 61.0958C84.3969 61.3579 84.5285 61.5326 84.7041 61.7074C84.8797 61.8385 85.0552 61.9695 85.2747 62.0569C85.4503 62.1443 85.6697 62.1443 85.8892 62.1443C86.1964 62.1443 86.4598 62.1006 86.6353 61.9258C86.8109 61.7948 86.8987 61.5763 86.8987 61.3142C86.8987 61.1831 86.8987 61.0084 86.8109 60.8773C86.767 60.7463 86.6353 60.6152 86.5037 60.5278C86.3281 60.3967 86.1525 60.3094 85.9331 60.2657C85.6697 60.1783 85.4064 60.1783 85.0552 60.1783ZM89.6199 64.7219C89.6199 64.984 89.7077 65.2024 89.8394 65.3772C89.9711 65.5956 90.1466 65.7267 90.3222 65.8141C90.4978 65.7267 90.6294 65.5956 90.805 65.4209C90.9367 65.2461 91.0245 64.984 91.0245 64.7219C91.0245 64.5034 90.9367 64.285 90.8489 64.1539C90.7172 63.9792 90.5417 63.8918 90.3222 63.8918C90.1027 63.8918 89.9711 63.9792 89.8394 64.1539C89.7077 64.285 89.6199 64.4597 89.6199 64.7219Z" fill="#373435"/>
<path d="M87.4121 51.1973C87.8072 51.1973 88.2022 51.241 88.5533 51.2846C88.9483 51.372 89.2995 51.4157 89.6067 51.5468C89.9578 51.6341 90.2212 51.7215 90.4845 51.8526C90.7918 51.9836 91.0112 52.1147 91.1868 52.2458C91.3624 52.3768 91.494 52.5079 91.5818 52.5953C91.7135 52.7263 91.7574 52.8137 91.7574 52.9885C91.7574 53.1632 91.7135 53.2943 91.5818 53.4253C91.494 53.5127 91.3624 53.6438 91.1868 53.6875C90.704 53.2943 90.1334 53.0321 89.5189 52.8137C88.8606 52.5953 88.2022 52.4642 87.4121 52.4642C86.6221 52.4642 85.9198 52.5953 85.3054 52.8137C84.6909 53.0321 84.1203 53.338 83.6375 53.6875C83.5058 53.6438 83.3741 53.5564 83.2425 53.4253C83.1547 53.2943 83.0669 53.1632 83.0669 52.9885C83.0669 52.8574 83.1108 52.7263 83.1986 52.5953C83.2425 52.5079 83.3741 52.3768 83.5058 52.2895C83.9008 51.9836 84.4275 51.7215 85.0859 51.5031C85.7004 51.2846 86.4904 51.1973 87.4121 51.1973Z" fill="#373435"/>
<path d="M105.263 63.2367C105.219 63.2804 105.132 63.2804 105 63.2804C104.868 63.3241 104.737 63.3241 104.605 63.3241C104.341 63.3241 104.122 63.2804 103.99 63.193C103.859 63.1057 103.771 62.8872 103.771 62.6251V54.1933C103.815 54.1933 103.903 54.1496 104.034 54.1496C104.166 54.1059 104.298 54.1059 104.429 54.1059C104.693 54.1059 104.912 54.1496 105.044 54.237C105.219 54.3244 105.263 54.4991 105.263 54.8049V63.2367ZM92.842 55.8971C92.842 55.5913 92.8859 55.2855 93.0176 55.0671C93.1053 54.8049 93.237 54.6302 93.4126 54.4554C93.5881 54.2807 93.8076 54.1933 93.9832 54.1059C94.2026 54.0622 94.4221 54.0186 94.6415 54.0186C95.0366 54.0186 95.3438 54.1059 95.5632 54.237C95.7827 54.4117 95.9583 54.5865 96.0899 54.8049C96.1777 54.5865 96.3533 54.3681 96.6166 54.237C96.8361 54.0622 97.1433 54.0186 97.4506 54.0186C97.67 54.0186 97.8895 54.0622 98.1528 54.1496C98.3723 54.1933 98.5479 54.3244 98.7234 54.5428C98.899 54.7176 99.0307 54.936 99.1623 55.1981C99.2501 55.5039 99.294 55.8534 99.294 56.2466C99.294 56.7272 99.2501 57.1204 99.1184 57.4699C98.9868 57.8194 98.7673 58.0815 98.5479 58.3437C98.2845 58.5621 97.9773 58.7805 97.5822 58.9116C97.2311 59.0427 96.8361 59.1737 96.3533 59.2174L96.0022 59.2611C95.4755 59.3048 95.0804 59.4796 94.8171 59.6543C94.5537 59.8727 94.466 60.1786 94.466 60.5718C94.466 61.0086 94.6415 61.3581 95.0366 61.6203C95.3877 61.8824 96.046 62.0571 96.88 62.0571C97.275 62.0571 97.6261 62.0135 97.9773 61.9261C98.3284 61.8387 98.6356 61.7513 98.899 61.6203C99.1623 61.4892 99.4257 61.3581 99.6012 61.2271C99.8207 61.0523 99.9963 60.8776 100.128 60.7465V54.1933C100.172 54.1933 100.304 54.1496 100.391 54.1496C100.523 54.1059 100.655 54.1059 100.786 54.1059C101.05 54.1059 101.269 54.1496 101.445 54.237C101.576 54.3244 101.664 54.4991 101.664 54.8049V63.2367C101.576 63.2804 101.489 63.2804 101.357 63.2804C101.225 63.3241 101.137 63.3241 101.006 63.3241C100.699 63.3241 100.479 63.2804 100.347 63.193C100.216 63.1057 100.128 62.9309 100.128 62.6688V62.4066C99.9524 62.5377 99.7768 62.6688 99.5574 62.7562C99.3379 62.8872 99.0745 62.9746 98.8112 63.062C98.504 63.1493 98.1967 63.2367 97.8456 63.2804C97.4506 63.3678 97.0994 63.3678 96.6605 63.3678C95.4316 63.3678 94.466 63.1493 93.8076 62.6688C93.1492 62.1882 92.7981 61.4892 92.7981 60.5718C92.7981 59.7417 93.0614 59.13 93.5881 58.7369C94.1148 58.3 94.9049 58.0378 95.8705 57.9505H96.0899C96.7044 57.8631 97.1872 57.6883 97.4506 57.4262C97.7578 57.1204 97.8895 56.6835 97.8895 56.1156C97.8895 55.7224 97.8456 55.5039 97.7139 55.3292C97.5822 55.1981 97.4506 55.1544 97.275 55.1544C97.0994 55.1544 96.9678 55.1981 96.8361 55.3292C96.7483 55.4166 96.6605 55.635 96.6605 55.8971V56.902C96.6166 56.9456 96.5289 56.9893 96.3972 56.9893C96.2655 57.033 96.1777 57.033 96.0899 57.033C95.9583 57.033 95.8266 57.033 95.7388 56.9893C95.6071 56.9893 95.5194 56.9456 95.4755 56.902V55.8534C95.4755 55.5913 95.3877 55.4166 95.2999 55.3292C95.1682 55.1981 95.0366 55.1544 94.9049 55.1544C94.7293 55.1544 94.5976 55.1981 94.466 55.3292C94.3343 55.4603 94.2465 55.6787 94.2465 55.9845C94.2465 56.203 94.2904 56.4214 94.3782 56.5525C94.4221 56.7272 94.5099 56.8583 94.5976 56.9456C94.5537 57.033 94.466 57.1204 94.3343 57.2078C94.2465 57.2952 94.0709 57.3388 93.8954 57.3388C93.7637 57.3388 93.632 57.3388 93.5004 57.2952C93.4126 57.2078 93.2809 57.1204 93.1931 57.033C93.1053 56.902 93.0176 56.7709 92.9298 56.5525C92.8859 56.3777 92.842 56.1593 92.842 55.8971Z" fill="#373435"/>
</svg>
