<svg xmlns="http://www.w3.org/2000/svg" xmlns:xlink="http://www.w3.org/1999/xlink" width="451.064" height="493.375" viewBox="0 0 451.064 493.375"><defs><style>.a{opacity:0.5;mix-blend-mode:overlay;isolation:isolate;}.b,.c,.d,.e,.f,.g,.h{fill:#fcfdfd;}.b{opacity:0.8;}.c{opacity:0.667;}.d{opacity:0.533;}.e{opacity:0.4;}.f{opacity:0.267;}.g{opacity:0.133;}.h,.j{opacity:0;}.i{opacity:0.482;}.j{fill:url(#a);}.k{opacity:0.05;fill:url(#b);}.l,.w{opacity:0.1;}.l{fill:url(#c);}.m{opacity:0.15;fill:url(#d);}.n,.q{opacity:0.2;}.n{fill:url(#e);}.o{opacity:0.25;fill:url(#f);}.p{fill:#fff;opacity:0.3;}.r{fill:#8fedff;}.s{fill:#c5f9ff;}.t{fill:#3f80ff;}.u{fill:#efb185;}.v{fill:#471bce;}.x{fill:#111114;}.y{fill:#5fb9e6;}.z{fill:#77d2ff;}.aa{fill:#632bee;}.ab{fill:#dd9569;}.ac{fill:#e6a376;}.ad{fill:#221101;}.ae{fill:#341c09;}.af{fill:#def0f9;}</style><linearGradient id="a" y1="0.5" x2="1" y2="0.5" gradientUnits="objectBoundingBox"><stop offset="0" stop-color="#390154"/><stop offset="0.169" stop-color="#3e0259"/><stop offset="0.394" stop-color="#4e076a"/><stop offset="0.652" stop-color="#690e86"/><stop offset="0.932" stop-color="#8d19ad"/><stop offset="1" stop-color="#981cb8"/></linearGradient><linearGradient id="b" y1="0.5" x2="1" y2="0.5" gradientUnits="objectBoundingBox"><stop offset="0" stop-color="#5a2b71"/><stop offset="0.19" stop-color="#5f2c76"/><stop offset="0.443" stop-color="#6f3187"/><stop offset="0.732" stop-color="#8a39a3"/><stop offset="1" stop-color="#a942c4"/></linearGradient><linearGradient id="c" y1="0.5" x2="1" y2="0.5" gradientUnits="objectBoundingBox"><stop offset="0" stop-color="#7b568d"/><stop offset="0.217" stop-color="#805792"/><stop offset="0.508" stop-color="#905ca3"/><stop offset="0.838" stop-color="#aa63bf"/><stop offset="1" stop-color="#ba68d0"/></linearGradient><linearGradient id="d" y1="0.5" x2="1" y2="0.5" gradientUnits="objectBoundingBox"><stop offset="0" stop-color="#9c80aa"/><stop offset="0.261" stop-color="#a181af"/><stop offset="0.611" stop-color="#b286c0"/><stop offset="1" stop-color="#cc8edc"/></linearGradient><linearGradient id="e" y1="0.5" x2="1" y2="0.5" gradientUnits="objectBoundingBox"><stop offset="0" stop-color="#bdaac6"/><stop offset="0.34" stop-color="#c2abcb"/><stop offset="0.793" stop-color="#d3b0dc"/><stop offset="1" stop-color="#ddb3e7"/></linearGradient><linearGradient id="f" y1="0.5" x2="1" y2="0.5" gradientUnits="objectBoundingBox"><stop offset="0" stop-color="#ded5e2"/><stop offset="0.516" stop-color="#e3d6e7"/><stop offset="1" stop-color="#eed9f3"/></linearGradient></defs><g transform="translate(-1165 -260.852)"><g class="a" transform="translate(1321.976 465.047)"><path class="b" d="M1381.974,677.481c28.048,16.188,73.371,16.188,101.256,0s27.715-42.459-.322-58.651c-28.073-16.183-73.387-16.183-101.278,0-27.864,16.192-27.7,42.448.343,58.656" transform="translate(-1285.392 -400.442)"/><path class="c" d="M1375.089,657.476c32.98,18.238,86.265,18.238,119.039,0s32.584-47.833-.38-66.072c-33-18.235-86.275-18.235-119.056,0-32.761,18.239-32.568,47.818.4,66.076" transform="translate(-1287.371 -405.853)"/><path class="d" d="M1368.2,637.473c37.912,20.285,99.158,20.285,136.822,0,37.665-20.3,37.453-53.208-.438-73.494-37.919-20.285-99.163-20.285-136.834,0s-37.44,53.19.451,73.5" transform="translate(-1289.35 -411.263)"/><path class="e" d="M1361.321,617.468c42.843,22.335,112.05,22.335,154.6,0,42.56-22.355,42.323-58.582-.5-80.917-42.841-22.336-112.05-22.336-154.613,0s-42.312,58.562.505,80.919" transform="translate(-1291.33 -416.674)"/><path class="f" d="M1354.436,597.464c47.774,24.383,124.945,24.383,172.388,0,47.456-24.4,47.192-63.957-.555-88.338-47.764-24.388-124.938-24.388-172.391,0s-47.183,63.933.559,88.34" transform="translate(-1293.309 -422.085)"/><path class="g" d="M1347.552,577.459c52.7,26.431,137.837,26.431,190.17,0,52.351-26.456,52.062-69.332-.614-95.761s-137.826-26.437-190.17,0-52.055,69.305.614,95.761" transform="translate(-1295.288 -427.495)"/><path class="h" d="M1340.667,557.456c57.637,28.48,150.732,28.48,207.954,0,57.247-28.507,56.93-74.707-.673-103.184s-150.713-28.488-207.948,0-56.927,74.676.667,103.184" transform="translate(-1297.267 -432.906)"/></g><g class="i" transform="translate(1197.538 350.449)"><path class="j" d="M1324.418,402.334a66,66,0,1,1-65.988-65.988A66.006,66.006,0,0,1,1324.418,402.334Z" transform="translate(-1192.416 -336.346)"/><path class="k" d="M1312.5,401.305a55.7,55.7,0,1,1-55.69-55.692A55.705,55.705,0,0,1,1312.5,401.305Z" transform="translate(-1190.795 -334.615)"/><path class="l" d="M1300.579,400.275a45.406,45.406,0,1,1-45.391-45.4A45.4,45.4,0,0,1,1300.579,400.275Z" transform="translate(-1189.175 -332.884)"/><path class="m" d="M1288.66,399.247a35.108,35.108,0,1,1-35.093-35.1A35.1,35.1,0,0,1,1288.66,399.247Z" transform="translate(-1187.554 -331.152)"/><path class="n" d="M1276.742,398.217a24.811,24.811,0,1,1-24.8-24.8A24.8,24.8,0,0,1,1276.742,398.217Z" transform="translate(-1185.933 -329.421)"/><path class="o" d="M1264.823,397.189a14.513,14.513,0,1,1-14.5-14.508A14.5,14.5,0,0,1,1264.823,397.189Z" transform="translate(-1184.312 -327.69)"/><path class="p" d="M1252.9,396.159a4.216,4.216,0,1,1-4.2-4.212A4.2,4.2,0,0,1,1252.9,396.159Z" transform="translate(-1182.691 -325.959)"/></g><g class="q" transform="translate(1165 529.353)"><path d="M1182.891,555.666c-23.725,13.692-23.888,35.915-.287,49.625l77.865,45.25c23.606,13.714,61.968,13.7,85.685,0L1447.12,592.25c23.747-13.7,23.865-35.924.286-49.62l-77.877-45.254c-23.592-13.714-61.93-13.714-85.677,0Z" transform="translate(-1165 -487.09)"/></g><path class="r" d="M1374.378,335.718a15.415,15.415,0,0,1,3.03-.654c.077-.013.171-.013.235-.018a10.569,10.569,0,0,1,2.988.146.5.5,0,0,1,.1.03,8.96,8.96,0,0,1,2.684,1.01c-.043-.021-.077-.046-.115-.068l-3.883-2.251-5.508-3.2a.317.317,0,0,0-.1-.059,8.967,8.967,0,0,0-.92-.458c-.317-.121-.642-.228-.967-.338-.215-.056-.437-.1-.665-.146-.046-.013-.094-.025-.14-.034-.082-.021-.154-.043-.228-.056a10.284,10.284,0,0,0-1.112-.128c-.394-.021-.788-.03-1.2-.013-.141.008-.291.034-.437.047-.073,0-.145.021-.222.026-.235.025-.463.033-.711.068a14.921,14.921,0,0,0-1.609.347c-.24.061-.492.167-.719.244q-.308.1-.616.218c-.282.094-.552.158-.834.282a18.793,18.793,0,0,0-2.56,1.279l-105.442,60.869a29.961,29.961,0,0,0-3.437,2.384c-.376.291-.719.633-1.074.946-.548.475-1.1.9-1.619,1.416-.235.236-.466.5-.7.749-.192.207-.394.412-.586.63-.24.256-.484.491-.719.762-.506.582-1,1.189-1.486,1.815-.162.2-.32.419-.479.642-.081.12-.175.243-.265.355-.154.214-.322.437-.48.655-.359.509-.711,1.044-1.053,1.583-.325.506-.642,1.019-.946,1.545a.683.683,0,0,0-.073.133.506.506,0,0,0-.064.12c-.252.424-.491.847-.731,1.279-.266.53-.527,1.053-.775,1.567-.227.466-.445.938-.647,1.4a.517.517,0,0,0-.054.125.237.237,0,0,0-.035.064c-.231.547-.463,1.1-.668,1.647-.227.578-.437,1.148-.625,1.721-.094.3-.171.578-.256.878a2.7,2.7,0,0,0-.12.381c-.073.214-.133.414-.2.62-.2.7-.36,1.4-.514,2.11-.081.415-.145.849-.222,1.276-.03.218-.074.424-.1.642-.033.2-.085.411-.11.621a28.507,28.507,0,0,0-.231,3.595l.069,25.4c0,.013,0,.227.033.621a20.178,20.178,0,0,0,.441,3.771c1.066,6.391,4.511,18.2,15.678,24.688l9.5,5.527c-11.176-6.49-14.613-18.307-15.674-24.7a19.809,19.809,0,0,1-.45-3.753c-.03-.394-.03-.621-.03-.634l-.077-25.4a29.409,29.409,0,0,1,.343-4.189c.034-.24.077-.453.115-.681a37.043,37.043,0,0,1,.933-4.01c.026-.107.061-.227.1-.338a42.305,42.305,0,0,1,3.839-8.753.082.082,0,0,1,.018-.047,44.258,44.258,0,0,1,2.581-3.946c.077-.115.163-.218.243-.333.852-1.138,1.755-2.222,2.7-3.261.188-.2.376-.39.573-.595a30.626,30.626,0,0,1,2.363-2.218c.347-.3.672-.6,1.028-.885a27.748,27.748,0,0,1,3.445-2.406L1370.359,337.5a21.374,21.374,0,0,1,3.373-1.557C1373.95,335.877,1374.168,335.8,1374.378,335.718Z" transform="translate(13.479 12.818)"/><g transform="translate(1260.118 347.809)"><path class="s" d="M1368.865,336.633c10.114-5.838,18.358-1.155,18.387,10.491l.077,25.4c.035,11.646-8.153,25.81-18.285,31.647l-95.537,55.163a51.842,51.842,0,0,0,4.871,28.853c-25.1-.929-31.2-20.323-32.675-29.23a19.809,19.809,0,0,1-.45-3.753c-.03-.394-.03-.621-.03-.634l-.077-25.4c-.021-11.641,8.145-25.813,18.282-31.664Z" transform="translate(-1245.146 -334.122)"/></g><g transform="translate(1264.519 448.132)"><path class="r" d="M1382.56,528.438c.039-.351.069-.758.1-1.148.016-.248.051-.505.059-.762.039-.488.077-.985.1-1.524a4.3,4.3,0,0,0,.035-.475c.026-.565.043-1.118.069-1.7v-.608c.013-.56.025-1.13.025-1.72,0-.146-.012-.284-.012-.438-.013-.667-.039-1.322-.074-1.994,0-.141-.008-.269-.017-.389-.047-.647-.09-1.3-.159-1.952-.012-.158-.03-.347-.051-.5a35.008,35.008,0,0,0-.766-4.532c-.044-.154-.069-.3-.116-.453-.171-.621-.347-1.228-.548-1.811-.038-.107-.068-.205-.1-.312a19.684,19.684,0,0,0-.818-1.931c-.085-.171-.179-.329-.274-.488a11.768,11.768,0,0,0-.731-1.211,13.087,13.087,0,0,0-.959-1.208c-.189-.2-.338-.419-.54-.606a8.437,8.437,0,0,0-1.823-1.4l8.132,4.725a8.538,8.538,0,0,1,1.841,1.409c.18.171.317.371.484.56a11.108,11.108,0,0,1,1.005,1.254,2.548,2.548,0,0,0,.189.235c.171.269.3.578.475.857.112.23.231.44.364.667.025.051.046.082.064.128.24.5.462,1.023.654,1.55a.53.53,0,0,0,.048.115c.074.192.125.4.189.573.1.291.205.586.287.882.064.207.107.437.171.668.051.2.107.394.166.6a1.8,1.8,0,0,0,.082.325c.12.565.235,1.125.333,1.7l0,.021c.043.244.064.466.094.719.064.347.107.69.163,1.044.009.12.026.261.043.386.039.371.077.749.12,1.117,0,.133.018.266.018.394.038.218.038.437.056.659.025.394.043.78.085,1.169v.24c.008.33.008.667.016,1,.021.347.039.69.039,1.04v.167c0,.381,0,.728-.018,1.1,0,.346,0,.7-.021,1.036v.214c-.008.278-.016.517-.016.8-.043.475-.052.946-.085,1.386v.274c-.018.163-.035.279-.056.432-.035.69-.1,1.31-.138,1.893,0,.038-.012.094-.012.136a.15.15,0,0,1-.021.082c-.082.821-.151,1.527-.218,2.076v.012c-.031.172-.031.282-.052.412a1.375,1.375,0,0,0-.038.3c-.034.231-.064.4-.077.488l-8.128-4.725c.03-.21.128-.925.258-1.939C1382.487,529.126,1382.522,528.822,1382.56,528.438Z" transform="translate(-1225.109 -403.22)"/><path class="r" d="M1248.871,551.78c.021-.629.056-1.255.095-1.892.017-.283.046-.59.063-.885a1.639,1.639,0,0,1,.018-.3c.026-.236.034-.471.059-.706.065-.625.146-1.267.218-1.91s.167-1.3.274-1.951a.386.386,0,0,1,.013-.061v-.051c.112-.612.214-1.233.33-1.849.125-.677.269-1.361.406-2.033.065-.248.121-.5.172-.749a3.279,3.279,0,0,0,.089-.356,9.549,9.549,0,0,1,.231-.933c.154-.7.342-1.374.531-2.063.138-.5.292-1,.437-1.5.034-.094.056-.2.095-.291.021-.085.043-.171.068-.265.205-.663.42-1.34.647-2.012.222-.647.445-1.318.685-1.982a2.246,2.246,0,0,0,.1-.282c.074-.158.138-.322.2-.493.133-.368.278-.749.415-1.126.256-.629.5-1.258.77-1.879.176-.47.371-.907.57-1.352.033-.077.056-.159.089-.227.047-.095.082-.2.138-.3.27-.625.56-1.25.852-1.874.316-.694.65-1.358.976-2.046.064-.112.128-.223.192-.33a3.246,3.246,0,0,1,.15-.312c.287-.565.578-1.122.873-1.678.338-.637.7-1.25,1.036-1.867.235-.419.48-.83.71-1.237.052-.107.112-.218.172-.317.278-.479.6-.946.9-1.421.57-.946,1.143-1.888,1.737-2.787.082-.133.159-.261.253-.389.783-1.19,1.614-2.355,2.448-3.514.573-.754,1.138-1.516,1.733-2.251.5-.642,1-1.241,1.494-1.875.5-.586,1.006-1.164,1.5-1.741.509-.57,1-1.126,1.519-1.675.081-.1.158-.171.243-.26s.2-.2.291-.3c.348-.377.706-.754,1.049-1.118.539-.547,1.092-1.082,1.652-1.618.159-.158.335-.309.5-.471.132-.12.261-.24.389-.371.269-.231.534-.5.821-.754.57-.5,1.148-1.01,1.724-1.511.266-.215.519-.419.8-.634.115-.1.24-.214.364-.312.183-.15.376-.3.577-.463.553-.445,1.121-.882,1.7-1.3.44-.317.885-.629,1.34-.941a.456.456,0,0,1,.1-.082c.09-.064.176-.116.256-.176.544-.381,1.1-.745,1.644-1.1.548-.338,1.087-.677,1.653-1,.132-.085.26-.159.38-.222l108.1-62.423c.419-.231.83-.458,1.227-.7.545-.279,1.071-.552,1.6-.818.337-.163.68-.317,1.009-.475.1-.039.177-.085.271-.125a3.154,3.154,0,0,0,.291-.145c.527-.231,1.036-.45,1.55-.652s1.056-.406,1.57-.586a2.635,2.635,0,0,1,.3-.1.882.882,0,0,0,.166-.064c.361-.115.732-.24,1.092-.347.54-.171,1.075-.309,1.606-.45.256-.059.514-.11.766-.176.12-.02.21-.038.33-.059.167-.034.338-.077.5-.107.573-.115,1.143-.215,1.7-.282.36-.056.685-.077,1.036-.107a3.2,3.2,0,0,1,.325-.039c.123-.008.248-.026.358-.034.634-.043,1.233-.068,1.837-.064.274,0,.522.021.779.039.214,0,.419.017.612.033s.424,0,.624.031a21.564,21.564,0,0,1,2.24.317.387.387,0,0,0,.051.013,2.822,2.822,0,0,0,.368.1,21.132,21.132,0,0,1,2.3.647c.059.021.11.056.174.077a20,20,0,0,1,2.971,1.37l8.125,4.729a18.1,18.1,0,0,0-2.984-1.383,20.356,20.356,0,0,0-2.359-.685c-.158-.034-.317-.1-.465-.123a20.758,20.758,0,0,0-2.933-.368c-.18,0-.381-.023-.573-.031a27.87,27.87,0,0,0-2.975.047c-.107.021-.222.034-.346.056a29.567,29.567,0,0,0-3.232.483c-.1.021-.209.056-.325.074-1.13.265-2.255.565-3.424.963-.072.021-.146.056-.24.077q-1.81.63-3.7,1.494a2.084,2.084,0,0,0-.2.076c-1.279.6-2.577,1.272-3.887,2.029l-108.1,62.4c-1.3.757-2.6,1.58-3.877,2.473-.1.047-.185.125-.274.18-1.19.839-2.368,1.724-3.514,2.667a4.346,4.346,0,0,0-.351.273c-1.13.929-2.243,1.9-3.342,2.92-.121.107-.244.231-.369.333-1.112,1.044-2.209,2.153-3.278,3.283-.056.074-.125.138-.176.2-1.135,1.19-2.213,2.423-3.279,3.706,0,0-.013.018-.025.031-.047.051-.09.107-.133.153a94.293,94.293,0,0,0-5.808,7.867c-.531.8-1.023,1.614-1.524,2.432-.45.74-.929,1.455-1.353,2.2-.184.3-.333.595-.5.895-.719,1.263-1.412,2.526-2.076,3.818-.035.081-.081.158-.124.248-.762,1.507-1.481,3.043-2.158,4.583-.017.044-.051.1-.069.159-.642,1.468-1.237,2.94-1.789,4.439-.047.145-.112.3-.167.44-.552,1.507-1.066,3.026-1.519,4.542-.043.123-.077.248-.112.376-.445,1.468-.843,2.946-1.177,4.4-.034.141-.059.273-.09.424-.358,1.493-.646,3.013-.885,4.495-.013.059-.017.136-.03.2-.231,1.511-.424,3.005-.548,4.49a4.836,4.836,0,0,0-.035.484c-.12,1.5-.176,2.971-.176,4.434s.069,2.9.193,4.276c.025.167.043.313.055.45.133,1.263.313,2.5.545,3.672.017.154.064.308.094.466.231,1.139.527,2.251.852,3.314.068.205.132.411.214.633a28.9,28.9,0,0,0,1.057,2.723c.077.138.1.3.192.437a23.471,23.471,0,0,0,1.6,2.933,22.024,22.024,0,0,0,2.731,3.385c.253.271.509.51.779.762a19.563,19.563,0,0,0,3.309,2.522l-8.132-4.731a18.132,18.132,0,0,1-3.314-2.534c-.261-.231-.509-.479-.762-.732a21.716,21.716,0,0,1-2.752-3.416h0a26.561,26.561,0,0,1-1.524-2.734,1.479,1.479,0,0,1-.081-.184c-.051-.125-.112-.266-.176-.411-.24-.574-.509-1.143-.732-1.747-.128-.342-.222-.685-.347-1.027-.072-.21-.123-.412-.2-.6s-.119-.35-.166-.534c-.21-.663-.369-1.353-.54-2.059-.046-.214-.081-.453-.132-.68-.048-.18-.074-.361-.108-.545-.051-.24-.11-.466-.149-.71-.1-.625-.205-1.263-.291-1.923-.048-.342-.064-.7-.1-1.048a2.724,2.724,0,0,1-.034-.364,4.292,4.292,0,0,1-.051-.475c-.056-.608-.085-1.228-.12-1.857-.03-.608-.038-1.228-.038-1.888v-.115C1248.854,552.949,1248.854,552.363,1248.871,551.78Z" transform="translate(-1248.854 -418.653)"/><g transform="translate(8.127 4.73)"><path class="s" d="M1294.46,490.373c-21.487,12.4-38.825,42.455-38.758,67.143.056,23.923,16.531,35.235,37.122,23.349.625-.356,1.258-.745,1.893-1.148,16.589-10.6,44.414-30.432,68.773-44.476,13.773-7.965,26.456-14.085,35.329-15.618,19.136-3.347,14.228,29.444,13.975,31.173,18.469-41.239,25.562-76.867,27.65-89.461.227-1.151.393-2.234.544-3.36.136-1,.21-1.545.21-1.575.192-2.059.358-4.151.358-6.184-.072-24.688-17.54-34.644-39-22.244Z" transform="translate(-1255.702 -422.638)"/></g></g><g transform="translate(1415.588 304.408)"><path class="r" d="M1467.166,372.283c.021-.231.047-.506.069-.783.017-.163.03-.342.034-.509.025-.325.051-.668.077-1.036.008-.115.008-.222.008-.33.025-.385.033-.762.051-1.16,0-.125,0-.269.008-.407,0-.389,0-.774,0-1.176,0-.1,0-.2,0-.3-.008-.455-.026-.9-.043-1.358,0-.094-.017-.184-.017-.265-.034-.445-.069-.882-.1-1.332-.013-.1-.021-.231-.038-.342a26.161,26.161,0,0,0-.522-3.077c-.026-.1-.056-.215-.082-.317-.107-.42-.235-.834-.368-1.233a1.132,1.132,0,0,1-.064-.21c-.171-.453-.359-.89-.565-1.314-.056-.115-.133-.214-.189-.338a6.944,6.944,0,0,0-.5-.821,8.694,8.694,0,0,0-.646-.818c-.125-.141-.24-.282-.368-.4a5.8,5.8,0,0,0-1.246-.976l5.544,3.214a6.674,6.674,0,0,1,1.249.977,4.479,4.479,0,0,1,.33.381,8.149,8.149,0,0,1,.69.843.682.682,0,0,0,.123.158c.116.193.21.4.322.591l.248.445a.743.743,0,0,1,.038.1,9.949,9.949,0,0,1,.455,1.057.225.225,0,0,0,.03.072c.047.133.085.269.12.394a4.979,4.979,0,0,1,.2.595c.052.141.078.3.125.445a3.087,3.087,0,0,0,.112.412c0,.085.03.158.038.23a11.68,11.68,0,0,1,.24,1.156l0,.013c.03.159.043.325.069.488.038.236.077.476.107.719q.012.128.025.256c.034.258.052.509.074.767.008.085.025.184.025.269a3.683,3.683,0,0,1,.034.44c.021.271.026.54.056.8,0,.061,0,.1,0,.164.008.23.008.462.017.68.008.24.026.475.026.711v.115c0,.248,0,.488-.018.749,0,.235,0,.471-.008.7v.145c-.008.189-.017.356-.021.548-.03.325-.034.642-.056.942v.179a2.833,2.833,0,0,1-.034.3c-.025.471-.064.9-.1,1.3v.09a.111.111,0,0,1-.017.047c-.056.569-.1,1.044-.15,1.421v0c-.021.12-.021.188-.039.282-.017.072-.021.15-.03.2a2.768,2.768,0,0,1-.051.325l-5.534-3.214c.025-.141.1-.629.176-1.315C1467.106,372.754,1467.131,372.552,1467.166,372.283Z" transform="translate(-1359.981 -287.047)"/><path class="r" d="M1376.157,388.172c.016-.424.034-.856.068-1.276.009-.205.034-.407.034-.611,0-.069.018-.138.018-.2.017-.154.025-.312.043-.484.043-.419.1-.86.145-1.3s.121-.885.189-1.322c0-.013,0-.034.008-.039V382.9c.072-.42.15-.839.227-1.259.09-.457.18-.928.271-1.391a3.293,3.293,0,0,0,.12-.5c.021-.077.038-.159.059-.24.051-.214.1-.432.159-.634.11-.466.235-.938.36-1.4.1-.342.2-.69.3-1.036.018-.059.034-.12.059-.184a.669.669,0,0,0,.044-.176c.153-.462.3-.915.448-1.365s.3-.911.471-1.357c.021-.061.038-.125.069-.193a3.6,3.6,0,0,0,.128-.342c.094-.253.192-.5.3-.757.166-.428.333-.857.513-1.284.125-.317.258-.612.39-.924a.979.979,0,0,1,.068-.151.948.948,0,0,1,.087-.192c.188-.437.385-.864.582-1.284.214-.462.442-.938.667-1.4a2.094,2.094,0,0,1,.125-.227,1.72,1.72,0,0,1,.1-.209c.2-.381.389-.767.59-1.148.236-.419.479-.834.711-1.268.162-.278.322-.56.488-.843a1.72,1.72,0,0,1,.116-.218c.188-.325.4-.642.611-.963.386-.642.767-1.276,1.182-1.9.055-.085.11-.176.176-.261.526-.813,1.091-1.609,1.66-2.388.389-.522.779-1.041,1.181-1.545l1.018-1.263c.335-.407.677-.8,1.02-1.19s.68-.762,1.036-1.138a2.11,2.11,0,0,1,.158-.18c.069-.064.138-.141.2-.209.243-.253.48-.519.719-.745.358-.376.736-.749,1.12-1.113.112-.11.228-.209.343-.312.09-.081.171-.171.265-.253.185-.166.369-.35.553-.509.393-.351.779-.7,1.173-1.035.179-.146.35-.287.548-.437a2.929,2.929,0,0,1,.251-.2,4.637,4.637,0,0,1,.386-.32q.578-.45,1.155-.895c.309-.218.609-.424.916-.634.013-.026.044-.038.069-.056a.811.811,0,0,0,.167-.128c.376-.248.744-.5,1.13-.736s.745-.466,1.113-.685c.1-.056.192-.1.27-.159l73.576-42.481c.286-.158.57-.322.839-.479.373-.184.732-.376,1.087-.552.222-.115.462-.214.685-.32.064-.031.123-.061.189-.09s.132-.069.2-.1c.351-.154.7-.291,1.062-.428a10.491,10.491,0,0,1,1.061-.406.627.627,0,0,1,.205-.065.961.961,0,0,1,.1-.046c.256-.082.5-.167.752-.236.369-.123.732-.222,1.092-.307.171-.039.343-.087.522-.12.074-.008.146-.03.219-.043a3.39,3.39,0,0,1,.338-.077c.394-.082.788-.138,1.159-.189.248-.038.476-.046.711-.077a2.022,2.022,0,0,1,.223-.021c.086-.008.171-.013.24-.025.427-.031.839-.047,1.258-.047.179,0,.351.025.517.034.141,0,.292.013.424.025s.3,0,.42.013a15.028,15.028,0,0,1,1.527.218.341.341,0,0,0,.034,0c.077.017.167.059.253.072a15.761,15.761,0,0,1,1.57.432c.044.013.069.043.116.056a11.46,11.46,0,0,1,2.007.942l5.544,3.214a13.014,13.014,0,0,0-2.025-.946,15.272,15.272,0,0,0-1.606-.453c-.123-.031-.222-.077-.333-.1a14.64,14.64,0,0,0-1.985-.244c-.129,0-.258-.021-.381-.021a19.286,19.286,0,0,0-2.038.043c-.077,0-.15.017-.24.017a18.5,18.5,0,0,0-2.191.348,1.259,1.259,0,0,0-.223.043,22.542,22.542,0,0,0-2.328.655c-.059.017-.112.03-.167.051-.821.282-1.669.624-2.529,1.015a.4.4,0,0,0-.128.056c-.869.411-1.751.869-2.65,1.381l-73.576,42.469c-.89.522-1.772,1.082-2.644,1.695a.922.922,0,0,0-.18.12c-.809.565-1.614,1.177-2.4,1.815-.085.064-.154.12-.235.188-.77.635-1.529,1.289-2.273,1.982l-.253.228c-.757.718-1.511,1.46-2.234,2.238-.039.046-.082.085-.125.136-.762.8-1.5,1.644-2.23,2.512a.03.03,0,0,1-.016.026.68.68,0,0,1-.086.1,64.036,64.036,0,0,0-3.956,5.36c-.36.547-.7,1.108-1.036,1.652-.3.5-.633.993-.928,1.5-.112.2-.227.411-.335.612-.491.86-.958,1.716-1.411,2.6-.023.051-.061.1-.087.158-.517,1.031-1.01,2.076-1.468,3.117a.916.916,0,0,1-.047.115c-.44,1-.838,2.016-1.215,3.026-.033.094-.077.205-.11.3-.386,1.028-.737,2.059-1.036,3.09-.026.085-.056.184-.077.256-.3,1.006-.574,2.012-.8,2.992a3.009,3.009,0,0,0-.061.3c-.24,1.01-.45,2.041-.608,3.056,0,.038-.018.094-.018.123-.166,1.031-.291,2.046-.371,3.056a2.279,2.279,0,0,0-.031.338c-.072,1.01-.107,2.02-.107,3.013,0,1.01.039,1.977.125,2.91.013.112.026.215.043.313a23.136,23.136,0,0,0,.368,2.5c.013.1.03.205.047.307.166.775.373,1.529.595,2.248.043.15.09.282.141.436.218.642.463,1.263.727,1.862a1.371,1.371,0,0,0,.128.291,16.992,16.992,0,0,0,1.083,2,14.974,14.974,0,0,0,1.866,2.3c.171.18.351.347.532.522a12.507,12.507,0,0,0,2.247,1.7l-5.539-3.206a13.274,13.274,0,0,1-2.256-1.724c-.175-.163-.342-.33-.509-.506a13.79,13.79,0,0,1-1.874-2.324h0a15.736,15.736,0,0,1-1.049-1.862.731.731,0,0,0-.047-.123c-.038-.09-.077-.184-.115-.279-.167-.385-.351-.783-.5-1.19-.087-.23-.151-.475-.24-.7a3.623,3.623,0,0,0-.133-.406c-.039-.121-.074-.24-.1-.361-.141-.458-.256-.925-.363-1.4-.034-.154-.065-.312-.1-.466a2.662,2.662,0,0,1-.069-.376,4.411,4.411,0,0,1-.1-.479c-.082-.424-.142-.852-.206-1.3-.03-.235-.038-.484-.059-.719-.018-.085-.026-.176-.034-.253-.008-.107-.026-.209-.026-.32-.043-.407-.068-.839-.085-1.259s-.03-.846-.03-1.284v-.085C1376.144,388.972,1376.144,388.57,1376.157,388.172Z" transform="translate(-1376.144 -297.552)"/><g transform="translate(5.542 3.229)"><path class="s" d="M1407.188,346.369c-14.63,8.449-26.425,28.9-26.375,45.708.035,16.277,11.253,23.982,25.266,15.9.424-.243.852-.513,1.276-.782,11.3-7.222,30.24-20.707,46.813-30.274,9.39-5.423,18.011-9.587,24.054-10.641,13.025-2.273,9.69,20.049,9.511,21.221a258.994,258.994,0,0,0,18.824-60.894c.163-.77.274-1.524.364-2.281.1-.676.15-1.054.15-1.066a41.465,41.465,0,0,0,.243-4.217c-.051-16.8-11.937-23.57-26.55-15.139Z" transform="translate(-1380.814 -300.273)"/></g></g><g class="i" transform="translate(1489.172 260.852)"><path class="j" d="M1528,305.773a44.927,44.927,0,1,1-44.921-44.921A44.935,44.935,0,0,1,1528,305.773Z" transform="translate(-1438.146 -260.852)"/><path class="k" d="M1519.888,305.071a37.919,37.919,0,1,1-37.911-37.91A37.925,37.925,0,0,1,1519.888,305.071Z" transform="translate(-1437.043 -259.673)"/><path class="l" d="M1511.777,304.371a30.91,30.91,0,1,1-30.9-30.9A30.915,30.915,0,0,1,1511.777,304.371Z" transform="translate(-1435.94 -258.495)"/><path class="m" d="M1503.665,303.67a23.9,23.9,0,1,1-23.894-23.893A23.906,23.906,0,0,1,1503.665,303.67Z" transform="translate(-1434.837 -257.317)"/><path class="n" d="M1495.552,302.968a16.893,16.893,0,1,1-16.885-16.882A16.9,16.9,0,0,1,1495.552,302.968Z" transform="translate(-1433.734 -256.138)"/><path class="o" d="M1487.441,302.267a9.885,9.885,0,1,1-9.877-9.873A9.887,9.887,0,0,1,1487.441,302.267Z" transform="translate(-1432.63 -254.96)"/><path class="p" d="M1479.328,301.566a2.876,2.876,0,1,1-2.867-2.864A2.876,2.876,0,0,1,1479.328,301.566Z" transform="translate(-1431.527 -253.781)"/></g><g class="i" transform="translate(1368.381 398.795)"><path class="j" d="M1468.365,443.065a66,66,0,1,1-65.993-65.983A66,66,0,0,1,1468.365,443.065Z" transform="translate(-1336.368 -377.082)"/><path class="k" d="M1456.448,442.037a55.7,55.7,0,1,1-55.7-55.689A55.706,55.706,0,0,1,1456.448,442.037Z" transform="translate(-1334.747 -375.351)"/><path class="l" d="M1444.53,441.008a45.4,45.4,0,1,1-45.4-45.394A45.406,45.406,0,0,1,1444.53,441.008Z" transform="translate(-1333.127 -373.62)"/><path class="m" d="M1432.613,439.98a35.108,35.108,0,1,1-35.1-35.1A35.107,35.107,0,0,1,1432.613,439.98Z" transform="translate(-1331.506 -371.889)"/><path class="n" d="M1420.695,438.951a24.811,24.811,0,1,1-24.806-24.805A24.809,24.809,0,0,1,1420.695,438.951Z" transform="translate(-1329.885 -370.158)"/><path class="o" d="M1408.777,437.923a14.515,14.515,0,1,1-14.509-14.51A14.51,14.51,0,0,1,1408.777,437.923Z" transform="translate(-1328.264 -368.427)"/><path class="p" d="M1396.86,436.895a4.218,4.218,0,1,1-4.212-4.216A4.211,4.211,0,0,1,1396.86,436.895Z" transform="translate(-1326.643 -366.696)"/></g><g transform="translate(1433.689 321.678)"><g transform="translate(7.554 59.953)"><path class="t" d="M1399.653,362.62l.026,8.145-1.9,1.1-.021-8.15Z" transform="translate(-1397.761 -362.62)"/></g><g transform="translate(0 64.314)"><path class="t" d="M1393.283,366.295l.026,8.162-1.888,1.083-.025-8.158Z" transform="translate(-1391.396 -366.295)"/></g><g transform="translate(17.634 54.132)"><path class="t" d="M1408.146,357.715l.03,8.158-1.892,1.091-.03-8.154Z" transform="translate(-1406.254 -357.715)"/></g><g transform="translate(13.85 51.247)"><path class="t" d="M1404.941,355.284l.047,18.092-1.871,1.091-.051-18.092Z" transform="translate(-1403.066 -355.284)"/></g><g transform="translate(3.762 57.068)"><path class="t" d="M1396.466,360.189l.052,18.092-1.9,1.091-.056-18.088Z" transform="translate(-1394.566 -360.189)"/></g><g transform="translate(10.704 49.076)"><path class="t" d="M1402.282,353.455l.085,26.781-1.883,1.1-.069-26.79Z" transform="translate(-1400.415 -353.455)"/></g><g transform="translate(78.717 18.503)"><path class="t" d="M1459.61,327.695l.034,8.171-1.9,1.083-.026-8.154Z" transform="translate(-1457.722 -327.695)"/></g><g transform="translate(71.162 22.869)"><path class="t" d="M1453.244,331.373l.021,8.162-1.892,1.1-.017-8.171Z" transform="translate(-1451.357 -331.373)"/></g><g transform="translate(88.796 12.686)"><path class="t" d="M1468.111,322.793l.022,8.167-1.9,1.087-.017-8.162Z" transform="translate(-1466.215 -322.793)"/></g><g transform="translate(85.004 9.81)"><path class="t" d="M1464.907,320.37l.047,18.092-1.883,1.083-.052-18.1Z" transform="translate(-1463.02 -320.37)"/></g><g transform="translate(74.929 15.622)"><path class="t" d="M1456.409,325.267l.047,18.093-1.875,1.083-.051-18.092Z" transform="translate(-1454.531 -325.267)"/></g><g transform="translate(81.85 7.653)"><path class="t" d="M1462.241,318.552l.068,26.764-1.866,1.074-.081-26.764Z" transform="translate(-1460.362 -318.552)"/></g><g transform="translate(92.571 10.867)"><path class="t" d="M1471.292,321.261l.03,12.669-1.892,1.083-.035-12.661Z" transform="translate(-1469.396 -321.261)"/></g><g transform="translate(102.638 5.055)"><path class="t" d="M1479.775,316.363l.034,8.15-1.9,1.1-.034-8.163Z" transform="translate(-1477.879 -316.363)"/></g><g transform="translate(98.855 2.17)"><path class="t" d="M1476.578,313.932l.047,18.088-1.892,1.087-.043-18.088Z" transform="translate(-1474.69 -313.932)"/></g><g transform="translate(95.709)"><path class="t" d="M1473.91,312.1l.086,26.781-1.888,1.087-.068-26.781Z" transform="translate(-1472.04 -312.104)"/></g><g transform="translate(25.167 42.537)"><path class="t" d="M1414.489,347.945l.039,15.391-1.875,1.091-.052-15.4Z" transform="translate(-1412.602 -347.945)"/></g><g transform="translate(35.268 43.953)"><path class="t" d="M1423,349.139l.039,15.563-1.883,1.083-.043-15.555Z" transform="translate(-1421.113 -349.139)"/></g><g transform="translate(31.468 41.068)"><path class="t" d="M1419.807,346.708l.051,18.088-1.888,1.1-.06-18.088Z" transform="translate(-1417.91 -346.708)"/></g><g transform="translate(42.793 30.543)"><path class="t" d="M1429.349,337.84l.043,17.206-1.9,1.087-.043-17.211Z" transform="translate(-1427.453 -337.84)"/></g><g transform="translate(39.031 36.703)"><path class="t" d="M1426.179,343.029l.056,18.084-1.9,1.1-.056-18.084Z" transform="translate(-1424.283 -343.029)"/></g><g transform="translate(21.392 46.885)"><path class="t" d="M1411.313,351.609l.059,18.1-1.892,1.083-.06-18.084Z" transform="translate(-1409.421 -351.609)"/></g><g transform="translate(28.326 38.907)"><path class="t" d="M1417.138,344.887l.073,26.777-1.862,1.079-.086-26.777Z" transform="translate(-1415.263 -344.887)"/></g><g transform="translate(50.373 35.23)"><path class="t" d="M1435.745,341.789l.017,8.145-1.892,1.1-.03-8.15Z" transform="translate(-1433.84 -341.789)"/></g><g transform="translate(60.462 29.409)"><path class="t" d="M1444.232,336.884l.034,15.55-1.892,1.091-.034-15.55Z" transform="translate(-1442.341 -336.884)"/></g><g transform="translate(56.665 26.524)"><path class="t" d="M1441.029,334.453l.051,18.1-1.879,1.083-.06-18.092Z" transform="translate(-1439.142 -334.453)"/></g><g transform="translate(68.016 25.047)"><path class="t" d="M1450.589,333.209l.03,8.162-1.883,1.083-.03-8.158Z" transform="translate(-1448.706 -333.209)"/></g><g transform="translate(64.25 31.198)"><path class="t" d="M1447.424,338.391l.021,9.057-1.888,1.092-.026-9.053Z" transform="translate(-1445.532 -338.391)"/></g><g transform="translate(46.589 32.341)"><path class="t" d="M1432.531,339.354l.06,18.1-1.887,1.083-.052-18.1Z" transform="translate(-1430.652 -339.354)"/></g><g transform="translate(53.515 24.367)"><path class="t" d="M1438.353,332.635l.086,26.769-1.875,1.087-.077-26.781Z" transform="translate(-1436.487 -332.635)"/></g></g><g transform="translate(1273.194 374.509)"><g transform="translate(8.235 65.341)"><path class="t" d="M1265.157,411.675l.03,8.877-2.063,1.194-.021-8.881Z" transform="translate(-1263.103 -411.675)"/></g><g transform="translate(0 70.092)"><path class="t" d="M1258.218,415.678l.026,8.894-2.05,1.181-.03-8.89Z" transform="translate(-1256.164 -415.678)"/></g><g transform="translate(19.214 58.998)"><path class="t" d="M1274.421,406.33l.034,8.886-2.068,1.19-.034-8.886Z" transform="translate(-1272.354 -406.33)"/></g><g transform="translate(15.096 55.852)"><path class="t" d="M1270.922,403.679l.056,19.714-2.042,1.194-.051-19.719Z" transform="translate(-1268.884 -403.679)"/></g><g transform="translate(4.1 62.195)"><path class="t" d="M1261.686,409.024l.056,19.715-2.063,1.19-.06-19.715Z" transform="translate(-1259.619 -409.024)"/></g><g transform="translate(11.663 53.489)"><path class="t" d="M1268.025,401.689l.094,29.182-2.05,1.194-.077-29.2Z" transform="translate(-1265.992 -401.689)"/></g><g transform="translate(85.788 20.168)"><path class="t" d="M1330.507,373.612l.034,8.9-2.063,1.181-.03-8.89Z" transform="translate(-1328.448 -373.612)"/></g><g transform="translate(77.557 24.919)"><path class="t" d="M1323.563,377.615l.03,8.9-2.063,1.2-.017-8.907Z" transform="translate(-1321.513 -377.615)"/></g><g transform="translate(96.771 13.825)"><path class="t" d="M1339.774,368.267l.021,8.9-2.076,1.186-.017-8.9Z" transform="translate(-1337.703 -368.267)"/></g><g transform="translate(92.636 10.692)"><path class="t" d="M1336.282,365.627l.052,19.719-2.055,1.177-.06-19.723Z" transform="translate(-1334.219 -365.627)"/></g><g transform="translate(81.662 17.027)"><path class="t" d="M1327.013,370.965l.056,19.719-2.046,1.181-.051-19.719Z" transform="translate(-1324.972 -370.965)"/></g><g transform="translate(89.203 8.338)"><path class="t" d="M1333.372,363.644l.077,29.174-2.037,1.169-.086-29.17Z" transform="translate(-1331.326 -363.644)"/></g><g transform="translate(100.884 11.843)"><path class="t" d="M1343.24,366.6l.03,13.808-2.059,1.182-.042-13.8Z" transform="translate(-1341.169 -366.597)"/></g><g transform="translate(111.859 5.513)"><path class="t" d="M1352.483,361.264l.034,8.877-2.063,1.194-.039-8.89Z" transform="translate(-1350.416 -361.264)"/></g><g transform="translate(107.736 2.367)"><path class="t" d="M1349,358.613l.047,19.71-2.059,1.186-.047-19.71Z" transform="translate(-1346.942 -358.613)"/></g><g transform="translate(104.304)"><path class="t" d="M1346.092,356.619l.09,29.187-2.055,1.186-.077-29.187Z" transform="translate(-1344.05 -356.619)"/></g><g transform="translate(27.427 46.358)"><path class="t" d="M1281.333,395.68l.043,16.774-2.05,1.19-.051-16.783Z" transform="translate(-1279.274 -395.68)"/></g><g transform="translate(38.432 47.904)"><path class="t" d="M1290.609,396.982l.039,16.958-2.05,1.186-.052-16.958Z" transform="translate(-1288.546 -396.982)"/></g><g transform="translate(34.293 44.758)"><path class="t" d="M1287.126,394.331l.051,19.715-2.05,1.194-.068-19.714Z" transform="translate(-1285.059 -394.331)"/></g><g transform="translate(46.632 33.287)"><path class="t" d="M1297.528,384.666l.047,18.751-2.067,1.186-.052-18.756Z" transform="translate(-1295.456 -384.666)"/></g><g transform="translate(42.532 40.002)"><path class="t" d="M1294.073,390.324l.056,19.71-2.063,1.194L1292,391.523Z" transform="translate(-1292.001 -390.324)"/></g><g transform="translate(23.314 51.097)"><path class="t" d="M1277.871,399.672l.065,19.723-2.067,1.181-.06-19.714Z" transform="translate(-1275.808 -399.672)"/></g><g transform="translate(30.869 42.404)"><path class="t" d="M1284.216,392.348l.085,29.182-2.033,1.173-.094-29.182Z" transform="translate(-1282.174 -392.348)"/></g><g transform="translate(54.898 38.393)"><path class="t" d="M1304.5,388.969l.017,8.877-2.059,1.2-.034-8.886Z" transform="translate(-1302.421 -388.969)"/></g><g transform="translate(65.894 32.05)"><path class="t" d="M1313.744,383.624l.038,16.95-2.063,1.19-.034-16.945Z" transform="translate(-1311.686 -383.624)"/></g><g transform="translate(61.754 28.908)"><path class="t" d="M1310.257,380.977l.056,19.727-2.05,1.177-.064-19.714Z" transform="translate(-1308.198 -380.977)"/></g><g transform="translate(74.124 27.295)"><path class="t" d="M1320.675,379.617l.03,8.9-2.046,1.181-.039-8.894Z" transform="translate(-1318.621 -379.617)"/></g><g transform="translate(70.02 34.006)"><path class="t" d="M1317.225,385.272l.021,9.862-2.055,1.194-.03-9.866Z" transform="translate(-1315.162 -385.272)"/></g><g transform="translate(50.776 35.247)"><path class="t" d="M1300.993,386.318l.06,19.723-2.05,1.181-.056-19.723Z" transform="translate(-1298.947 -386.318)"/></g><g transform="translate(58.318 26.559)"><path class="t" d="M1307.344,379l.085,29.169-2.037,1.186-.09-29.182Z" transform="translate(-1305.302 -378.997)"/></g></g><g transform="translate(1293.277 473.406)"><g transform="translate(11.086 87.937)"><path class="t" d="M1285.192,514.044l.038,11.95-2.778,1.609-.026-11.955Z" transform="translate(-1282.426 -514.044)"/></g><g transform="translate(0 94.331)"><path class="t" d="M1275.855,519.432l.034,11.972L1273.124,533l-.039-11.963Z" transform="translate(-1273.085 -519.432)"/></g><g transform="translate(25.861 79.402)"><path class="t" d="M1297.658,506.853l.043,11.963-2.778,1.6-.047-11.954Z" transform="translate(-1294.876 -506.853)"/></g><g transform="translate(20.314 75.169)"><path class="t" d="M1292.949,503.286l.073,26.533-2.743,1.605-.077-26.537Z" transform="translate(-1290.202 -503.286)"/></g><g transform="translate(5.522 83.708)"><path class="t" d="M1280.52,510.481l.073,26.528-2.778,1.609-.077-26.533Z" transform="translate(-1277.738 -510.481)"/></g><g transform="translate(15.696 71.988)"><path class="t" d="M1289.054,500.606l.12,39.275-2.757,1.609-.107-39.3Z" transform="translate(-1286.311 -500.606)"/></g><g transform="translate(115.458 27.145)"><path class="t" d="M1373.144,462.822l.047,11.98-2.778,1.592-.043-11.968Z" transform="translate(-1370.37 -462.822)"/></g><g transform="translate(104.381 33.54)"><path class="t" d="M1363.8,468.21l.043,11.976-2.778,1.614-.026-11.989Z" transform="translate(-1361.036 -468.21)"/></g><g transform="translate(130.246 18.606)"><path class="t" d="M1385.617,455.627l.026,11.976-2.791,1.6-.022-11.976Z" transform="translate(-1382.83 -455.627)"/></g><g transform="translate(124.678 14.386)"><path class="t" d="M1380.916,452.071l.064,26.541-2.76,1.584-.081-26.542Z" transform="translate(-1378.138 -452.071)"/></g><g transform="translate(109.907 22.917)"><path class="t" d="M1368.444,459.259l.073,26.537-2.752,1.588-.073-26.542Z" transform="translate(-1365.692 -459.259)"/></g><g transform="translate(120.055 11.219)"><path class="t" d="M1377,449.4l.1,39.266-2.739,1.571-.12-39.254Z" transform="translate(-1374.243 -449.402)"/></g><g transform="translate(135.781 15.94)"><path class="t" d="M1390.28,453.38l.038,18.58-2.769,1.588-.056-18.572Z" transform="translate(-1387.493 -453.38)"/></g><g transform="translate(150.551 7.418)"><path class="t" d="M1402.717,446.2l.051,11.95-2.778,1.605-.051-11.963Z" transform="translate(-1399.939 -446.199)"/></g><g transform="translate(145.004 3.185)"><path class="t" d="M1398.031,442.633l.068,26.529-2.774,1.6-.06-26.533Z" transform="translate(-1395.265 -442.633)"/></g><g transform="translate(140.386)"><path class="t" d="M1394.118,439.949l.124,39.284-2.769,1.592-.1-39.284Z" transform="translate(-1391.374 -439.949)"/></g><g transform="translate(36.913 62.388)"><path class="t" d="M1306.961,492.517l.06,22.578-2.761,1.605-.073-22.591Z" transform="translate(-1304.188 -492.517)"/></g><g transform="translate(51.726 64.468)"><path class="t" d="M1319.443,494.27l.056,22.831-2.761,1.592-.068-22.822Z" transform="translate(-1316.67 -494.27)"/></g><g transform="translate(46.158 60.24)"><path class="t" d="M1314.756,490.707l.073,26.533-2.761,1.6-.09-26.533Z" transform="translate(-1311.978 -490.707)"/></g><g transform="translate(62.765 44.796)"><path class="t" d="M1328.757,477.695l.06,25.236-2.777,1.6-.069-25.245Z" transform="translate(-1325.971 -477.695)"/></g><g transform="translate(57.248 53.836)"><path class="t" d="M1324.1,485.311l.081,26.529-2.782,1.605-.082-26.52Z" transform="translate(-1321.322 -485.311)"/></g><g transform="translate(31.374 68.77)"><path class="t" d="M1302.3,497.895l.081,26.546-2.773,1.588-.09-26.533Z" transform="translate(-1299.521 -497.895)"/></g><g transform="translate(41.552 57.064)"><path class="t" d="M1310.836,488.031l.116,39.279-2.735,1.579-.12-39.275Z" transform="translate(-1308.097 -488.031)"/></g><g transform="translate(73.889 51.675)"><path class="t" d="M1338.131,483.49l.03,11.946-2.769,1.609-.047-11.955Z" transform="translate(-1335.344 -483.49)"/></g><g transform="translate(88.686 43.136)"><path class="t" d="M1350.585,476.3l.051,22.809-2.782,1.605-.043-22.813Z" transform="translate(-1347.812 -476.295)"/></g><g transform="translate(83.113 38.907)"><path class="t" d="M1345.894,472.732l.073,26.55-2.765,1.584-.085-26.533Z" transform="translate(-1343.116 -472.732)"/></g><g transform="translate(99.763 36.733)"><path class="t" d="M1359.915,470.9l.039,11.98-2.757,1.584-.052-11.967Z" transform="translate(-1357.145 -470.9)"/></g><g transform="translate(94.237 45.764)"><path class="t" d="M1355.271,478.51l.025,13.277-2.769,1.6-.038-13.273Z" transform="translate(-1352.489 -478.51)"/></g><g transform="translate(68.342 47.433)"><path class="t" d="M1333.422,479.916l.082,26.55-2.761,1.588-.073-26.546Z" transform="translate(-1330.67 -479.916)"/></g><g transform="translate(78.49 35.744)"><path class="t" d="M1341.969,470.067l.115,39.258-2.743,1.592-.12-39.275Z" transform="translate(-1339.221 -470.067)"/></g></g><g transform="translate(1414.745 483.541)"><path class="u" d="M1463.514,479c-5.629-.184-9.459,18.045-14.96,32.5l-26.742-11.745a38.889,38.889,0,0,1-4.4-6.189c-1.163-2.491-2.388-2.706-2.936-2.637-.552.09.125,1.7.262,2.821.089,1.151,1.922,3.291.478,3.009s-8.089-4.125-9.8-2.841c-.779.6-2.158.158,2.046,4.866,2.966,3.373,8.06,5.508,10.709,6.442,12.759,12.318,30.839,19.706,30.839,19.706v-.013a7.8,7.8,0,0,0,4.229-.218c8.955-7.109,13.684-21.662,15.477-35.242C1469.994,479.762,1463.514,479,1463.514,479Z" transform="translate(-1369.992 -442.789)"/><path class="v" d="M1454.017,478.237c2.906-.877,8.441-.2,8.441,8.7s-.291,11.95-3.317,19.187c-1.476,3.583-12.185,1.949-15.006-3.881C1442.5,498.838,1448.222,480,1454.017,478.237Z" transform="translate(-1362.653 -442.985)"/><g transform="translate(9.887 203.365)"><path class="w" d="M1399.832,629.072c-21.31,12.3-21.453,32.281-.244,44.587,21.175,12.313,55.63,12.313,76.954,0s21.422-32.286.248-44.558C1455.581,616.762,1421.139,616.762,1399.832,629.072Z" transform="translate(-1383.765 -619.843)"/></g><path class="x" d="M1436.969,628.252s-5.27.78-3.972,3.8c1.263,3.051,7.319,7.653,8.094,9.57.817,1.9,5.752,8.766,7.331,8.145,1.622-.655,5.752.312,5.256-7.5C1453.207,634.441,1443.983,627.906,1436.969,628.252Z" transform="translate(-1364.719 -414.91)"/><path class="x" d="M1433.723,652.757s2.552,7.486-3.818,9.242-4.472-2.226-18.332,1.288-15.461-3.68-15.152-5.265,9.579-4.477,12.622-5.265c3.01-.792,8.749-2.229,8.749-2.229h16.445Z" transform="translate(-1371.52 -410.746)"/><path class="y" d="M1453.588,541.6s.077,45.241.077,50.339c0,5.081,5.7,45.229,2.289,62.774,0,0-9.879,9.883-18.589,0,0,0-2.8-50.271-5.32-61.6s-1.687-46.038-1.687-46.038Z" transform="translate(-1365.198 -431.095)"/><path class="y" d="M1439.79,548.016s-2.248,29.229-4.568,58.18c0,0-1.489,57.5-2.824,65.791,0,0-18.542,4.614-20.4-4.135,0,0,.488-50.613,0-61.188-.445-10.569-1.545-40.063,2.641-57.094C1418.808,532.568,1439.79,548.016,1439.79,548.016Z" transform="translate(-1368.692 -431.097)"/><path class="z" d="M1430.976,669.661c1.335-8.286,2.824-65.791,2.824-65.791,1.558-19.491,3.082-39.09,3.9-49.834l-11.454,2.8s-8.247,21.68-6.984,54.2c.98,25.163,1.383,49.9,1.506,59.828A46.835,46.835,0,0,0,1430.976,669.661Z" transform="translate(-1367.271 -428.772)"/><path class="z" d="M1454.064,654.661c3.411-17.545-2.289-57.693-2.289-62.774,0-4.866-.069-46.12-.077-50.026l-9.956,7.657s-3.133,32.345,0,50.767c2.885,16.787,1.044,49.415,2.435,58.78C1449.694,659.066,1454.064,654.661,1454.064,654.661Z" transform="translate(-1363.307 -431.046)"/><path class="aa" d="M1461.539,476.891s8.5,4.464,3.339,18.987-8.774,23.9-8.611,29.345c.189,5.444,1.819,23.832,2.9,27.573,0,0,1.2,12.065-26.434,18.683,0,0-22.686,1.828-18.658-12.991s5.923-38.847,5.453-44.591c-.441-5.752-3.665-17.275,10.824-24.726S1452.406,476.141,1461.539,476.891Z" transform="translate(-1368.305 -443.196)"/><path class="v" d="M1419.53,511.543c.47,5.744-1.438,29.769-5.453,44.591-2.787,10.294,7.242,12.554,13.688,12.961,2.179-6.6-1.053-18.53,4.011-32.949,6.224-17.818,5.637-29.692,2.657-39.326-1.908-6.219-5.646-6.468-8.268-7.4C1416.563,496.75,1419.127,506.424,1419.53,511.543Z" transform="translate(-1368.305 -440.842)"/><path class="aa" d="M1455.723,552.785c-1.082-3.741-2.713-22.129-2.9-27.573-.163-5.449,3.578-14.8,8.611-29.345,4.777-13.774-.411-17.5-3.339-18.987-1.644,7.147-26.529,9.669-26.049,14.476.586,5.345,7.119,10.465,7.306,20.023s-1.317,23.665-3.141,30.7c-1.558,6.125-1.121,20.986.138,27.386C1456.712,562.7,1455.723,552.785,1455.723,552.785Z" transform="translate(-1364.86 -443.185)"/><g transform="translate(67.726 25.509)"><path class="u" d="M1447.976,470.751s-1.071,7.618,1.459,12.446c2.307,4.392-15.755,7.991-16.1,3.954a17.307,17.307,0,0,0-.646-14.8C1430.491,468.221,1447.976,470.751,1447.976,470.751Z" transform="translate(-1432.5 -469.983)"/></g><g transform="translate(69.724 27.882)"><path class="ab" d="M1449.035,483.085c-1.87-3.608-1.78-8.718-1.583-11.1l-13.269,6.25v.038c.5.115,9.3,2.542,11.086,8.976C1448.012,486.183,1449.857,484.694,1449.035,483.085Z" transform="translate(-1434.183 -471.982)"/></g><g transform="translate(61.921 3.037)"><path class="u" d="M1430.36,453.632s-2.931,6.891-2.5,12.853c.475,6.442-.527,7.726-.176,10.589.154,1.217.227,3.066,1.387,4.233,1.959,1.956,6.038,2.731,11.6.836,6.715-2.328,13.966-11.386,11.282-19.724C1449.248,454.077,1440.568,447.083,1430.36,453.632Z" transform="translate(-1427.609 -451.048)"/></g><g transform="translate(63.183 3.049)"><path class="ac" d="M1451.268,471.358c-2.53-7.5-9.005-16.574-8.928-17.062.03-.281-2.166-1.7-4.632-3.239a15.153,15.153,0,0,0-7.546,2.572,37.308,37.308,0,0,0-1.489,4.447c1.571,1.806,4.78,3.9,5.256,5.419a19.43,19.43,0,0,1-.809,11.368c-1.1,2.362,3.107,5.94,2.192,8.055a.325.325,0,0,0-.048.274,19.1,19.1,0,0,0,5.214-1.053C1444.788,480.65,1449.264,476.4,1451.268,471.358Z" transform="translate(-1428.672 -451.058)"/></g><g transform="translate(57.803 0.327)"><path class="ad" d="M1424.139,451.486s5.38,6.012,9.661,8.594c3.339,2.033,3.046,7.452,2.854,8.5-.167,1.054-1.314,5.83-.895,6.434.8,1.186,3.617-2.422,4.931-2.149,3.321.706,1.939,3.793-1.156,6.986-3.278,3.4,5.163,4.974,9.134,2.209,2.119-1.473,2.885-2.366,5.744-7.756,4.127-7.854,4.516-17.361-4.755-22.638C1440.412,446.414,1427.683,449.513,1424.139,451.486Z" transform="translate(-1424.139 -448.765)"/></g><g transform="translate(57.803)"><path class="ae" d="M1448.668,482.115c2.119-1.473,3.746-2.008,6.554-7.4,4.135-7.846,5.128-21.1-5.488-24.68-10.114-3.407-23.373-.373-25.595,1.507,0,0,6.262,1.869,6.463,3.239,2.948.548,9.523,1.139,11.548,4.683,2.5,4.34,5.393,3.026,5.063,8.35-.312,5.145.886,11.92-7.815,14.664C1442.582,484.829,1447.132,483.185,1448.668,482.115Z" transform="translate(-1424.139 -448.489)"/></g><path class="af" d="M1435.026,483.207l-5.949,4.824s18.131,5.59,23.648-3.248c.766-1.254-.069-5.509-3.21-6.352C1449.514,478.431,1448.734,485.69,1435.026,483.207Z" transform="translate(-1365.413 -442.895)"/><path class="u" d="M1434.392,490.227c-5.636-.167-9.472,18.05-14.972,32.521l-26.742-11.774a37.819,37.819,0,0,1-4.388-6.176c-1.177-2.461-2.4-2.7-2.953-2.619s.166,1.695.248,2.82c.1,1.122,1.939,3.279.492,2.979-1.43-.291-8.086-4.1-9.8-2.812-.783.586-2.122.154,2.021,4.866,3.009,3.347,8.094,5.488,10.756,6.429,12.738,12.323,30.83,19.706,30.83,19.706v-.008a7.847,7.847,0,0,0,4.233-.24c8.933-7.105,13.662-21.653,15.451-35.221C1440.847,491,1434.392,490.227,1434.392,490.227Z" transform="translate(-1375.434 -440.692)"/><path class="aa" d="M1424.889,489.468c2.905-.873,8.444-.205,8.444,8.693s-.291,11.945-3.312,19.2c-1.473,3.59-12.2,1.93-15.024-3.9C1413.383,510.069,1419.105,491.219,1424.889,489.468Z" transform="translate(-1368.095 -440.887)"/></g></g></svg>