<svg xmlns="http://www.w3.org/2000/svg" width="456.297" height="296.601"><defs><linearGradient id="a" y1=".5" x2="1" y2=".5" gradientUnits="objectBoundingBox"><stop offset="0" stop-color="#e3d969"/><stop offset=".154" stop-color="#e4be70"/><stop offset=".404" stop-color="#e6997b"/><stop offset=".636" stop-color="#e77e83"/><stop offset=".842" stop-color="#e86d88"/><stop offset="1" stop-color="#e9688a"/></linearGradient><style>.b{fill:#8fedff}.d{fill:#3f80ff}.h{fill:#d66767}.i{fill:url(#a)}.j{fill:#842c22}.k,.m{isolation:isolate}.l{fill:#993328}.m{mix-blend-mode:overlay}.n,.p,.r,.t,.v,.x,.z{fill:#fff}.n{opacity:.3}.o{opacity:.833}.p{opacity:.417}.q{opacity:.667}.r{opacity:.533}.s{opacity:.5}.t{opacity:.65}.u{opacity:.333}.v{opacity:.767}.w{opacity:.167}.x{opacity:.883}.y{opacity:0}.aa{fill:#ffc0c8}.ab{fill:#fddbde}.ac{fill:#f1b287}.ad{fill:#5fb9e6}</style></defs><path d="M390.087 140.884c5.818 3.332 5.841 8.739.1 12.1l-11.431 6.695-211.981 124.039-17.688 10.352c-5.733 3.351-15.057 3.378-20.848.058L4.368 223.105c-5.783-3.316-5.834-8.727-.1-12.078L245.346 69.941c5.748-3.359 15.084-3.394 20.887-.074z"/><path class="b" d="M372.471 128.247a5.194 5.194 0 01-.217 1.373.229.229 0 00-.043.14 5.992 5.992 0 01-.655 1.245 1.318 1.318 0 00-.132.206 8.3 8.3 0 01-1.067 1.179c-.271.237-.617.462-.935.694-.287.2-.52.4-.83.582l-10.337 6.008-.043 17.388 10.329-6a1.166 1.166 0 01.171-.1c.237-.151.415-.314.636-.465a9.2 9.2 0 00.958-.718.247.247 0 00.081-.074 7.174 7.174 0 00.838-.888 1.851 1.851 0 00.144-.213c.054-.078.093-.136.132-.2a4 4 0 00.264-.38c.132-.248.252-.508.357-.756a.3.3 0 00.016-.12.31.31 0 00.05-.132 2.3 2.3 0 00.14-.5 5.2 5.2 0 00.1-.768v-.112c.008-5.05.008-10.112.035-15.158l.008-2.106zm-221.79 132.06a15.482 15.482 0 01-2.634 1.16c-.314.112-.648.206-.993.314-.438.112-.88.225-1.319.318-.543.109-1.078.217-1.641.287-.124.016-.252.047-.376.054-.749.078-1.5.116-2.254.124-.124 0-.217.008-.322 0a21.672 21.672 0 01-2.246-.124 3.505 3.505 0 01-.3-.039 17.206 17.206 0 01-2.161-.368c-.116-.027-.244-.062-.365-.089a16.933 16.933 0 01-1.873-.566c-.1-.035-.21-.066-.318-.1a15.444 15.444 0 01-2.005-.97l-111.583-64.4c-2.626-1.524-3.937-3.514-3.929-5.5l-.047 17.377c-.023 1.99 1.3 3.976 3.937 5.5l111.556 64.406a16.915 16.915 0 001.924.915c.039.019.078.027.109.043.1.039.213.066.322.1.392.147.772.279 1.2.4a6.7 6.7 0 00.667.163c.12.035.24.066.368.093a2.478 2.478 0 00.353.085c.427.093.869.171 1.315.233.151.016.314.031.465.054.12.016.229.019.349.039.147.008.314.035.473.05.434.027.877.066 1.307.074h1.358c.5-.016.989-.058 1.482-.116a.6.6 0 00.175-.027c.116 0 .248-.027.372-.043.384-.043.768-.093 1.14-.155.171-.035.326-.093.485-.12.458-.1.9-.213 1.346-.334.221-.062.465-.1.7-.167a1.662 1.662 0 01.307-.132 17.26 17.26 0 002.626-1.16l15.965-9.3.058-17.373z"/><path d="M368.541 122.767c5.217 3.01 5.24 7.889.05 10.9l-10.337 6.008-191.585 111.35-15.988 9.282c-5.186 3.014-13.607 3.014-18.808 0l-111.583-64.4c-5.217-3.025-5.244-7.9-.054-10.911l217.9-126.633c5.182-3.022 13.614-3.022 18.847-.008z" fill="#c5f9ff"/><path class="d" d="M227.815 64.363L36.215 175.71l130.456 75.313 191.585-111.347z"/><path d="M325.193 107.189c1.4.811 1.435 2.451-.617 3.522-1.424.741-3.219 1.323-4.616.524L279.4 88.199c-1.4-.807.4-2.711 1.788-3.518a5.538 5.538 0 015.023 0z" fill="#65d2e0"/><path class="b" d="M323.968 108.239c1.4.8 1.412 2.118.035 2.913a5.587 5.587 0 01-5.046 0l-39-22.508c-1.389-.8-1.381-2.114 0-2.921a5.551 5.551 0 015.023 0z"/><path d="M358.255 139.676l-.041 17.39-191.6 111.332.057-17.375z" fill="#2b6be8"/><path class="b" d="M97.062 215.503c4.7 2.723 4.732 7.137.066 9.856-4.686 2.711-12.292 2.7-16.985 0-4.713-2.731-4.759-7.129-.085-9.852s12.299-2.714 17.004-.004z"/><path d="M206.182 155.51c5.81 3.355 5.853 8.8.074 12.156l-6.8 3.952c-5.783 3.359-15.178 3.355-20.992 0l-81.76-47.2c-5.826-3.359-5.857-8.8-.074-12.164l6.8-3.945c5.783-3.363 15.174-3.363 20.992 0zm37.911 16.736c7.711 4.453 7.754 11.663.093 16.112s-20.107 4.453-27.811 0-7.746-11.659-.1-16.112 20.115-4.445 27.818 0z"/><path class="h" d="M212.45 152.186c-.019.054-.031.112-.047.163a6.64 6.64 0 01-.706 1.381c-.054.081-.1.167-.167.244a9.057 9.057 0 01-1.175 1.3 10.221 10.221 0 01-1.051.776 9.35 9.35 0 01-.915.652l-6.8 3.952a16.771 16.771 0 01-2.925 1.288c-.365.12-.737.233-1.113.341-.492.132-.981.26-1.489.365-.6.128-1.206.24-1.823.314-.132.019-.275.047-.419.062a24.611 24.611 0 01-2.513.136h-.376a23.016 23.016 0 01-2.479-.136c-.12-.012-.244-.027-.361-.043a23.248 23.248 0 01-2.4-.407c-.136-.031-.271-.066-.411-.1a17.806 17.806 0 01-2.083-.64c-.116-.035-.233-.07-.337-.112a15.853 15.853 0 01-2.273-1.067l-81.76-47.2c-2.925-1.7-4.391-3.91-4.383-6.124l-.016 6.051c0 2.219 1.454 4.433 4.379 6.121l81.769 47.197a15.627 15.627 0 002.145 1.028c.035.016.074.023.116.039.124.05.264.085.392.132.419.155.849.31 1.3.438.24.066.485.12.733.178.143.035.283.078.43.109.128.023.252.066.384.089.481.1.974.186 1.47.256.174.027.357.043.539.062.116.016.229.031.349.039.182.019.365.047.555.062.489.043.977.07 1.458.078.155.008.31 0 .458 0h1.063c.555-.019 1.1-.058 1.652-.109.058-.008.116-.023.178-.031.147-.012.295-.043.442-.058.427-.054.861-.1 1.272-.178.175-.031.341-.1.528-.132.5-.1 1-.229 1.485-.368.264-.074.539-.116.791-.2.12-.043.221-.109.333-.147a16.669 16.669 0 002.928-1.284l6.799-3.951a3.33 3.33 0 01.186-.109c.287-.175.5-.376.76-.562a11.814 11.814 0 001.012-.756c.031-.027.074-.047.1-.074a7.754 7.754 0 00.915-.993 1.523 1.523 0 00.151-.225c.074-.085.116-.175.182-.264.085-.128.186-.26.264-.4a6.167 6.167 0 00.4-.842.732.732 0 01.031-.124c.02-.062.031-.12.047-.175a4.319 4.319 0 00.155-.535 5.272 5.272 0 00.1-.857v-.123q.006-3.025.016-6.051a5.366 5.366 0 01-.245 1.524z"/><path class="i" d="M208.328 144.545c5.81 3.347 5.845 8.793.062 12.152l-6.8 3.952c-5.787 3.359-15.189 3.355-21 0l-81.76-47.2c-5.818-3.359-5.849-8.8-.062-12.16l6.8-3.949c5.776-3.367 15.17-3.367 20.988 0z"/><path class="j" d="M192.862 139.005a1.079 1.079 0 01.012 2.04l-15.011 8.716a3.863 3.863 0 01-3.522 0 1.078 1.078 0 01-.012-2.04l15.005-8.716a3.847 3.847 0 013.528 0zm-17.369 3.104c.927.535.946 1.416.023 1.951l-3.832 2.234a3.751 3.751 0 01-3.371-.008 1.029 1.029 0 01-.008-1.947l3.836-2.23a3.706 3.706 0 013.352 0zm-1.946-5.562c.931.539.939 1.408.012 1.943l-7.672 4.457a3.706 3.706 0 01-3.355 0 1.033 1.033 0 01-.019-1.951l7.668-4.453a3.694 3.694 0 013.366.004zm.794-7.405c.892.52.9 1.342.008 1.858l-14.685 8.537a3.538 3.538 0 01-3.2 0 .981.981 0 01-.012-1.854l14.681-8.529a3.517 3.517 0 013.208-.012zm-18.637 3.855a.932.932 0 01.008 1.765l-2.071 1.206a3.361 3.361 0 01-3.041 0c-.846-.493-.853-1.276-.012-1.765l2.071-1.206a3.368 3.368 0 013.045 0zm-.667-6.31a.928.928 0 01.008 1.753l-7.2 4.181a3.336 3.336 0 01-3.029 0 .923.923 0 01-.008-1.749l7.2-4.185a3.336 3.336 0 013.029 0z"/><g class="k"><path class="j" d="M128.393 101.502a1.179 1.179 0 010 2.23l-14.844 8.626a4.24 4.24 0 01-3.84 0 1.181 1.181 0 01-.016-2.234l14.836-8.622a4.256 4.256 0 013.864 0zm1.774 6.032c1.078.617 1.09 1.606.027 2.23l-10.531 6.121a4.24 4.24 0 01-3.851-.008 1.177 1.177 0 01-.016-2.223l10.538-6.121a4.188 4.188 0 013.833.001zm9.949.927a1.175 1.175 0 01.012 2.223l-14.84 8.626a4.228 4.228 0 01-3.84 0 1.175 1.175 0 01-.016-2.226l14.84-8.622a4.248 4.248 0 013.844-.001zm-2.121 7.466a1.033 1.033 0 01.023 1.951l-7.672 4.453a3.718 3.718 0 01-3.367-.008 1.026 1.026 0 01-.008-1.943l7.664-4.453a3.69 3.69 0 013.36 0zm19.307 2.455c.974.57.981 1.482.019 2.04l-15.007 8.719a3.9 3.9 0 01-3.526 0 1.08 1.08 0 01-.012-2.044l15-8.719a3.9 3.9 0 013.526.004z"/></g><path class="j" d="M139.955 121.49a1.031 1.031 0 010 1.951l-3.824 2.223a3.69 3.69 0 01-3.359 0c-.931-.535-.946-1.408-.027-1.947l3.832-2.223a3.742 3.742 0 013.378-.004zm51.302 32.116a.93.93 0 010 1.761l-2.071 1.214a3.369 3.369 0 01-3.045 0 .932.932 0 01-.008-1.765l2.075-1.21a3.369 3.369 0 013.049 0zm-.67-6.295a.927.927 0 01.008 1.753l-7.2 4.189a3.348 3.348 0 01-3.018 0c-.842-.489-.85-1.276-.016-1.761l7.2-4.181a3.328 3.328 0 013.026 0z"/><path class="h" d="M249.857 169.54c-.023.206-.039.415-.074.624-.031.167-.082.334-.128.5a4.581 4.581 0 01-.171.586c-.054.163-.132.322-.2.481a7.03 7.03 0 01-.287.613c-.074.143-.171.295-.264.446-.143.221-.291.45-.454.667-.1.14-.217.272-.322.407a11.655 11.655 0 01-.826.888c-.112.109-.217.221-.341.33-.178.159-.384.318-.582.477s-.365.31-.574.458-.438.3-.663.446c-.256.171-.508.337-.783.5a21.328 21.328 0 01-2.75 1.3c-.252.1-.5.2-.752.287-.6.217-1.234.4-1.866.566s-1.28.349-1.939.485c-.8.167-1.6.318-2.416.419-.19.027-.38.058-.57.078a32.385 32.385 0 01-3.312.182c-.171 0-.349.008-.524 0a34.054 34.054 0 01-3.258-.182c-.159-.016-.33-.031-.493-.054a31 31 0 01-3.157-.539l-.57-.14q-1.4-.355-2.734-.83c-.151-.062-.318-.1-.477-.163a20.794 20.794 0 01-2.991-1.416c-3.882-2.234-5.822-5.174-5.814-8.11q-.012 3.025-.008 6.051c-.012 2.932 1.92 5.868 5.8 8.114a22.086 22.086 0 002.843 1.358.89.89 0 00.163.054c.151.058.318.1.477.159.57.213 1.144.423 1.741.6.322.089.656.155.981.237.194.043.372.093.562.14.175.035.341.089.516.124.636.136 1.284.244 1.943.337.237.035.465.05.694.074.178.019.341.043.516.058.233.027.469.066.7.081.652.05 1.292.085 1.947.1h1.143c.287-.008.586.008.873-.008.729-.023 1.458-.07 2.176-.143.085-.008.167-.027.248-.035.2-.019.384-.054.59-.085.562-.07 1.121-.132 1.676-.233.24-.043.465-.124.71-.175.671-.14 1.323-.3 1.97-.489.341-.1.71-.151 1.043-.26.271-.089.524-.206.8-.3.252-.093.512-.19.764-.287a21.773 21.773 0 002.742-1.3l.244-.147c.175-.109.33-.217.5-.337.244-.155.489-.31.714-.473.2-.14.376-.295.566-.442s.4-.322.582-.485l.132-.1c.078-.078.136-.155.209-.233a10 10 0 00.814-.873c.062-.07.136-.136.194-.2s.085-.144.14-.213c.159-.221.31-.442.454-.667.058-.1.14-.2.194-.295.031-.054.047-.109.074-.159.1-.19.182-.392.272-.578.058-.132.132-.256.182-.384.016-.047.019-.089.035-.136a5.7 5.7 0 00.159-.559c.039-.144.093-.275.12-.411a.793.793 0 01.012-.109c.035-.209.054-.415.07-.624.016-.132.047-.264.054-.4v-.171l.016-6.055c-.008.193-.039.383-.055.573z"/><path class="i" d="M244.093 160.854c7.711 4.453 7.754 11.663.093 16.112s-20.107 4.449-27.811 0-7.746-11.659-.1-16.112 20.115-4.445 27.818 0z"/><path class="l" d="M231.72 162.482l6.878 11.216-19.393-3.945z"/><path d="M341.375 172.044c5.81 3.351 5.849 8.8.066 12.16l-6.8 3.952c-5.776 3.363-15.181 3.355-20.988 0l-81.767-47.206c-5.818-3.363-5.849-8.8-.066-12.16l6.8-3.952c5.779-3.359 15.174-3.359 21 0zm-114.011-67.148c7.7 4.449 7.746 11.663.085 16.112-7.645 4.453-20.1 4.453-27.81 0s-7.746-11.663-.085-16.112 20.107-4.448 27.81 0z"/><path class="h" d="M233.12 102.185a4.93 4.93 0 01-.07.628c-.031.167-.081.337-.124.5-.054.194-.1.388-.167.586-.058.163-.136.322-.206.485-.093.2-.178.4-.287.6-.078.151-.182.3-.271.45a7.909 7.909 0 01-.454.675c-.1.132-.209.272-.318.4a11.715 11.715 0 01-.83.884 3.865 3.865 0 01-.338.33c-.178.167-.384.322-.578.481s-.372.306-.574.454-.446.3-.667.446c-.26.171-.5.341-.787.5a20.173 20.173 0 01-2.75 1.3c-.24.1-.493.2-.745.287-.605.221-1.245.4-1.87.57-.64.178-1.28.349-1.935.485-.8.163-1.6.314-2.42.419-.19.023-.376.054-.574.078-1.094.116-2.2.175-3.3.186h-.527a34.075 34.075 0 01-3.766-.24 30.684 30.684 0 01-3.142-.539c-.2-.043-.38-.093-.57-.136a26.648 26.648 0 01-2.731-.83c-.163-.062-.33-.1-.481-.163a21.79 21.79 0 01-3-1.416c-3.871-2.238-5.814-5.174-5.807-8.11 0 2.013-.008 4.034-.012 6.047-.016 2.936 1.928 5.872 5.806 8.114a21.216 21.216 0 002.832 1.361c.054.019.109.035.159.05.155.062.322.109.473.159.582.213 1.156.427 1.757.6.318.089.652.159.977.237.194.047.38.1.57.14.167.039.334.093.5.124.64.136 1.3.248 1.947.337.229.035.465.05.694.081.171.019.345.039.52.054.233.027.465.062.7.078.644.058 1.292.093 1.939.109h1.139c.291 0 .582 0 .873-.008a31.726 31.726 0 002.184-.147c.078 0 .163-.023.244-.031.2-.019.388-.058.59-.081.555-.074 1.121-.136 1.672-.233.248-.047.469-.128.714-.178.675-.14 1.323-.306 1.97-.493.345-.1.706-.147 1.036-.26.283-.085.539-.2.8-.3s.508-.19.768-.287a21.375 21.375 0 002.75-1.3c.078-.047.159-.093.233-.144.182-.109.334-.225.508-.334.233-.159.489-.314.7-.473s.384-.3.574-.446.4-.318.578-.485c.047-.039.093-.07.132-.1.085-.078.14-.159.214-.233a10.053 10.053 0 00.814-.877c.058-.066.136-.132.19-.2s.093-.143.143-.209c.167-.221.306-.442.45-.667.058-.1.144-.2.2-.3.027-.05.047-.1.078-.155.1-.19.186-.388.268-.582.058-.128.136-.252.182-.38a1.01 1.01 0 00.035-.136 5.51 5.51 0 00.159-.562c.039-.14.093-.271.12-.407.008-.039.008-.074.012-.109a5.7 5.7 0 00.074-.624c.008-.132.039-.264.043-.4v-.171l.019-6.055a5.552 5.552 0 01-.039.566z"/><path class="i" d="M227.364 93.504c7.7 4.453 7.746 11.663.085 16.112-7.645 4.449-20.1 4.449-27.81 0s-7.746-11.659-.085-16.112 20.107-4.448 27.81 0z"/><path class="h" d="M345.502 166.975c-.016.05-.027.109-.047.167a6.367 6.367 0 01-.71 1.377 2.415 2.415 0 01-.163.244 8.669 8.669 0 01-1.179 1.3 12.5 12.5 0 01-1.051.772c-.306.217-.558.446-.911.652l-6.8 3.949a16.358 16.358 0 01-2.921 1.288 17.47 17.47 0 01-1.113.341 23.168 23.168 0 01-3.309.678c-.14.019-.279.047-.423.062-.834.085-1.668.132-2.513.136h-.38c-.826 0-1.652-.05-2.471-.132l-.365-.047a22.991 22.991 0 01-2.393-.407c-.14-.027-.279-.066-.411-.1a19.758 19.758 0 01-2.087-.636c-.1-.043-.233-.074-.334-.112a14.884 14.884 0 01-2.269-1.071l-81.764-47.2c-2.932-1.691-4.4-3.906-4.391-6.125l-.012 6.055c-.012 2.211 1.458 4.43 4.383 6.117l81.763 47.206a16.565 16.565 0 002.145 1.024c.039.012.074.019.112.035.12.05.264.093.392.14.423.151.853.31 1.3.438.237.058.489.112.733.175.143.035.287.078.434.1.132.031.248.07.38.093.485.1.981.186 1.478.264.175.019.353.035.528.054.124.016.237.027.357.039.182.019.369.047.559.066.477.039.974.066 1.455.074.151.008.306 0 .454 0h1.074c.547-.019 1.1-.058 1.648-.109.058-.008.12-.023.171-.031.155-.012.3-.039.45-.058.431-.054.849-.1 1.268-.178.182-.031.345-.1.528-.132.508-.1.993-.233 1.489-.365.264-.078.535-.12.791-.2.124-.039.217-.1.334-.147a16.586 16.586 0 002.917-1.28l6.8-3.952c.062-.031.12-.07.182-.1.287-.178.5-.38.756-.566a9.8 9.8 0 001.028-.76 1.047 1.047 0 00.1-.066 9.092 9.092 0 00.923-.993c.054-.078.1-.147.147-.229.07-.081.12-.175.182-.26.081-.132.19-.264.268-.4a6.11 6.11 0 00.392-.842 1.01 1.01 0 00.035-.128 1.142 1.142 0 00.054-.175c.054-.178.116-.353.155-.531a4.881 4.881 0 00.093-.853v-.132q.012-3.025.012-6.055a5.2 5.2 0 01-.253 1.526z"/><path class="i" d="M341.375 159.33c5.81 3.351 5.849 8.8.066 12.16l-6.8 3.949c-5.776 3.359-15.181 3.355-20.988 0l-81.767-47.205c-5.818-3.359-5.849-8.8-.066-12.16l6.8-3.952c5.779-3.363 15.174-3.363 21 0z"/><path class="j" d="M325.914 153.79a1.083 1.083 0 01.012 2.044l-15.007 8.723a3.919 3.919 0 01-3.526 0 1.082 1.082 0 01-.012-2.048l15.007-8.719a3.9 3.9 0 013.526 0zm-17.368 3.109c.931.539.95 1.412.027 1.951l-3.844 2.23a3.718 3.718 0 01-3.367-.008 1.029 1.029 0 01-.016-1.947l3.844-2.226a3.706 3.706 0 013.356 0zm-1.948-5.565c.923.543.931 1.412 0 1.943l-7.659 4.465a3.714 3.714 0 01-3.359 0 1.035 1.035 0 01-.016-1.955l7.661-4.453a3.746 3.746 0 013.373 0zm.788-7.402c.9.52.9 1.346.012 1.862l-14.677 8.533a3.518 3.518 0 01-3.208-.008.975.975 0 01-.008-1.846l14.681-8.533a3.526 3.526 0 013.2-.008zm-18.633 3.852c.838.485.857 1.28.012 1.765l-2.071 1.2a3.369 3.369 0 01-3.045 0c-.842-.489-.85-1.276 0-1.761l2.071-1.206a3.352 3.352 0 013.033.002zm-.668-6.307a.927.927 0 01.016 1.753l-7.207 4.185a3.328 3.328 0 01-3.025 0 .928.928 0 010-1.753l7.2-4.185a3.336 3.336 0 013.016 0z"/><g class="k"><path class="j" d="M261.439 116.292a1.175 1.175 0 01.008 2.226l-14.836 8.626a4.24 4.24 0 01-3.84 0c-1.071-.617-1.078-1.617-.027-2.226l14.844-8.626a4.24 4.24 0 013.851 0zm1.784 6.028c1.071.617 1.082 1.614.023 2.23l-10.531 6.121a4.252 4.252 0 01-3.852 0 1.176 1.176 0 01-.016-2.223l10.535-6.121a4.228 4.228 0 013.841-.007zm9.941.931a1.178 1.178 0 01.016 2.226l-14.84 8.622a4.236 4.236 0 01-3.844 0 1.173 1.173 0 01-.008-2.223l14.828-8.626a4.244 4.244 0 013.848.001zm-2.119 7.462a1.036 1.036 0 01.019 1.955l-7.664 4.449a3.715 3.715 0 01-3.371 0 1.027 1.027 0 01-.008-1.943l7.664-4.457a3.69 3.69 0 013.36-.004zm19.31 2.46c.974.566.981 1.482.019 2.036l-15.007 8.723a3.879 3.879 0 01-3.53 0 1.079 1.079 0 01-.008-2.04l15.011-8.719a3.871 3.871 0 013.515 0z"/></g><path class="j" d="M273.009 136.283a1.03 1.03 0 010 1.947l-3.832 2.226a3.682 3.682 0 01-3.355 0c-.931-.539-.943-1.416-.023-1.951l3.828-2.223a3.739 3.739 0 013.382.001zm51.292 32.117c.853.489.849 1.276.012 1.757l-2.071 1.21a3.357 3.357 0 01-3.045 0 .934.934 0 01-.012-1.765l2.075-1.2a3.36 3.36 0 013.041-.002zm-.665-6.3a.924.924 0 01.012 1.749l-7.2 4.189a3.32 3.32 0 01-3.021 0c-.838-.489-.846-1.272-.012-1.753l7.207-4.185a3.312 3.312 0 013.014 0z"/><path class="l" d="M214.99 95.131l6.879 11.22-19.4-3.947z"/><path d="M226.095 241.734c5.81 3.355 5.849 8.8.062 12.164l-6.792 3.949c-5.783 3.359-15.189 3.359-21 0l-81.767-47.208c-5.814-3.355-5.841-8.8-.062-12.152l6.8-3.952c5.783-3.363 15.181-3.363 21 0zm-114.011-67.145c7.711 4.449 7.75 11.663.093 16.112s-20.111 4.449-27.814 0-7.75-11.663-.093-16.112 20.107-4.445 27.814 0z"/><path class="h" d="M117.844 171.878c-.019.213-.035.419-.07.632a8.98 8.98 0 01-.128.5 5.931 5.931 0 01-.171.593 5.112 5.112 0 01-.206.481c-.085.206-.171.4-.275.605-.085.151-.179.295-.276.45a7.8 7.8 0 01-.454.671c-.1.132-.213.268-.326.4a10.158 10.158 0 01-.818.884c-.116.112-.221.225-.337.334-.178.163-.388.318-.586.481s-.369.306-.57.454-.442.295-.667.442c-.26.167-.508.341-.784.5a21.059 21.059 0 01-2.746 1.307 23.267 23.267 0 01-2.622.857 30.42 30.42 0 01-1.947.485c-.8.159-1.594.31-2.416.411-.19.023-.372.062-.559.081-1.1.116-2.2.175-3.312.186h-.531a34.2 34.2 0 01-3.258-.182c-.163-.019-.333-.035-.5-.054a31.935 31.935 0 01-3.142-.539c-.194-.043-.384-.1-.578-.14a27.808 27.808 0 01-2.727-.83c-.155-.062-.322-.1-.481-.167a21.458 21.458 0 01-2.994-1.416c-3.879-2.238-5.814-5.174-5.807-8.107q-.012 3.025-.019 6.051c-.008 2.932 1.932 5.872 5.807 8.11a21.8 21.8 0 002.839 1.365 1.306 1.306 0 01.163.05c.155.062.318.1.477.159.578.209 1.144.419 1.757.59.318.1.648.159.974.244.186.047.372.093.566.136.171.039.334.089.5.124.64.132 1.292.248 1.951.337.225.035.45.05.69.078.167.023.341.043.512.062.237.023.469.058.71.074.636.058 1.288.089 1.932.1h2.019c.729-.027 1.454-.07 2.176-.147a2.84 2.84 0 00.248-.035c.194-.016.388-.05.582-.078.566-.07 1.129-.136 1.68-.237.244-.039.469-.124.706-.175.683-.14 1.33-.31 1.978-.493.345-.1.706-.147 1.04-.26.275-.085.531-.2.8-.3s.512-.186.764-.291a21.327 21.327 0 002.75-1.3c.074-.047.163-.093.237-.143.178-.1.333-.221.5-.334.244-.155.485-.31.714-.473.2-.147.376-.3.558-.446.206-.163.407-.322.594-.485.031-.035.085-.07.124-.1.078-.074.14-.159.217-.229a10.625 10.625 0 00.811-.88c.054-.066.132-.132.186-.206s.093-.136.147-.206c.163-.221.31-.446.446-.671.062-.1.144-.194.2-.291.027-.054.043-.109.074-.159.1-.19.186-.388.271-.582.058-.124.132-.252.178-.376.016-.047.023-.1.039-.144a4.5 4.5 0 00.159-.555c.039-.14.093-.279.124-.419v-.1a5.726 5.726 0 00.074-.624c.012-.132.047-.264.047-.4v-.175l.019-6.047a5.576 5.576 0 01-.033.562z"/><path class="i" d="M112.084 163.197c7.711 4.449 7.75 11.659.093 16.108s-20.111 4.453-27.814 0-7.75-11.659-.093-16.108 20.107-4.448 27.814 0z"/><path class="h" d="M230.222 236.664a1.662 1.662 0 00-.047.171 5.735 5.735 0 01-.71 1.377l-.155.244a8.958 8.958 0 01-1.183 1.3 12.053 12.053 0 01-1.051.772c-.3.213-.566.446-.919.652l-6.792 3.949a17.169 17.169 0 01-2.921 1.292 30.56 30.56 0 01-1.121.337c-.489.136-.981.26-1.485.368-.6.12-1.206.233-1.815.314-.144.019-.283.043-.423.054a24.775 24.775 0 01-2.521.143h-.372a22.972 22.972 0 01-2.479-.14c-.116-.012-.244-.023-.361-.039a23.434 23.434 0 01-2.389-.411c-.144-.039-.279-.062-.415-.1a19.227 19.227 0 01-2.087-.64c-.116-.043-.225-.07-.341-.109a16.889 16.889 0 01-2.265-1.074l-81.767-47.2c-2.925-1.691-4.387-3.914-4.379-6.125l-.012 6.051c-.008 2.215 1.451 4.43 4.379 6.125l81.76 47.2a16.352 16.352 0 002.145 1.032.418.418 0 01.113.035c.128.05.264.085.4.132.423.151.849.314 1.3.434.237.07.485.12.733.182.147.035.291.078.438.109.12.027.245.062.376.089.481.1.974.186 1.47.264.178.019.361.035.539.054.113.016.233.031.349.039.186.019.372.05.555.062.489.043.977.07 1.462.078.151.008.3 0 .458 0h.392c.233-.008.45 0 .675-.008a26.4 26.4 0 001.645-.1c.062-.008.12-.019.182-.027.151-.016.295-.047.45-.066.419-.047.845-.1 1.26-.178.19-.031.353-.089.528-.132.508-.1 1-.225 1.489-.368.26-.07.535-.112.791-.2.128-.035.217-.1.341-.14a17.394 17.394 0 002.917-1.288l6.8-3.945a1.1 1.1 0 01.178-.109c.295-.175.493-.38.76-.566a10.162 10.162 0 001.016-.756c.031-.031.074-.043.109-.074a8.313 8.313 0 00.916-.989c.062-.078.093-.155.155-.225.062-.089.109-.178.171-.268.089-.132.19-.256.264-.392a5.118 5.118 0 00.4-.849c.016-.039.023-.085.035-.12.019-.066.031-.112.043-.171a3.213 3.213 0 00.155-.547 3.929 3.929 0 00.1-.846v-.132l.023-6.051a5.144 5.144 0 01-.262 1.526z"/><path class="i" d="M226.095 229.019c5.81 3.355 5.849 8.8.062 12.164l-6.792 3.949c-5.783 3.363-15.189 3.355-21 0l-81.767-47.2c-5.814-3.359-5.841-8.8-.062-12.16l6.8-3.949c5.783-3.363 15.181-3.363 21 0z"/><path class="j" d="M210.639 223.481a1.085 1.085 0 010 2.048l-15.007 8.719a3.9 3.9 0 01-3.518 0 1.079 1.079 0 01-.012-2.044l15-8.723a3.952 3.952 0 013.537 0zm-17.364 3.111a1.035 1.035 0 01.019 1.955l-3.84 2.223a3.66 3.66 0 01-3.367-.008 1.023 1.023 0 01-.008-1.939l3.836-2.23a3.69 3.69 0 013.36-.001zm-1.96-5.563c.931.543.939 1.4.012 1.943l-7.661 4.464a3.771 3.771 0 01-3.363 0c-.927-.543-.943-1.423-.016-1.955l7.664-4.457a3.71 3.71 0 013.364.005zm.794-7.402c.9.516.9 1.338.008 1.854l-14.681 8.533a3.5 3.5 0 01-3.2 0 .978.978 0 01-.008-1.85l14.685-8.533a3.482 3.482 0 013.196-.004zm-18.633 3.85a.932.932 0 01.008 1.765l-2.067 1.206a3.369 3.369 0 01-3.045 0 .932.932 0 01-.016-1.765l2.075-1.206a3.344 3.344 0 013.045 0zm-.671-6.306a.924.924 0 01.016 1.749l-7.2 4.189a3.3 3.3 0 01-3.025 0 .926.926 0 01-.008-1.753l7.195-4.185a3.32 3.32 0 013.022 0z"/><g class="k"><path class="j" d="M146.163 185.989a1.173 1.173 0 010 2.226l-14.836 8.626a4.272 4.272 0 01-3.844 0c-1.067-.621-1.074-1.621-.019-2.23l14.844-8.622a4.225 4.225 0 013.855 0zm1.784 6.027c1.071.617 1.082 1.61.019 2.226l-10.535 6.125a4.272 4.272 0 01-3.844-.008 1.177 1.177 0 01-.019-2.223l10.535-6.121a4.224 4.224 0 013.844.001zm9.937.927a1.176 1.176 0 01.012 2.226l-14.84 8.626a4.272 4.272 0 01-3.844 0 1.174 1.174 0 01-.008-2.223l14.844-8.63a4.232 4.232 0 013.836.001zm-2.117 7.459a1.032 1.032 0 01.016 1.951l-7.664 4.457a3.71 3.71 0 01-3.363-.008 1.025 1.025 0 01-.016-1.943l7.668-4.457a3.714 3.714 0 013.359 0zm19.311 2.467a1.076 1.076 0 01.012 2.036l-15 8.723a3.919 3.919 0 01-3.526 0 1.08 1.08 0 01-.008-2.044l15-8.719a3.9 3.9 0 013.522.004z"/></g><path class="j" d="M157.725 205.972a1.033 1.033 0 010 1.951l-3.824 2.226a3.73 3.73 0 01-3.367 0 1.033 1.033 0 01-.016-1.951l3.832-2.226a3.738 3.738 0 013.375 0zm51.305 32.117a.932.932 0 010 1.765l-2.075 1.21a3.385 3.385 0 01-3.041 0 .935.935 0 01-.012-1.765l2.079-1.21a3.393 3.393 0 013.049 0zm-.66-6.292a.922.922 0 010 1.745l-7.2 4.185a3.289 3.289 0 01-3.018 0 .92.92 0 01-.016-1.745l7.2-4.185a3.368 3.368 0 013.034 0z"/><path class="l" d="M99.703 164.823l6.883 11.22-19.394-3.943z"/><g class="m"><path class="n" d="M208.32 144.545c5.81 3.347 5.845 8.793.062 12.152l-6.8 3.952c-5.787 3.359-15.185 3.355-21 0l-81.76-47.2c-5.814-3.359-5.841-8.8-.058-12.16l6.8-3.949c5.779-3.367 15.17-3.367 20.992 0z"/><g class="o"><path class="p" d="M208.32 134.917c5.81 3.347 5.845 8.8.062 12.156l-6.8 3.949c-5.787 3.363-15.185 3.359-21 0l-81.76-47.2c-5.814-3.359-5.841-8.8-.058-12.156l6.8-3.952c5.779-3.363 15.17-3.363 20.992 0z"/></g><g class="q"><path class="r" d="M208.32 125.294c5.81 3.347 5.845 8.8.062 12.156l-6.8 3.949c-5.787 3.363-15.185 3.359-21 0l-81.76-47.2c-5.814-3.359-5.841-8.8-.058-12.16l6.8-3.949c5.779-3.363 15.17-3.363 20.992 0z"/></g><g class="s"><path class="t" d="M208.32 115.668c5.81 3.351 5.845 8.8.062 12.156l-6.8 3.952c-5.787 3.359-15.185 3.355-21 0l-81.76-47.2c-5.814-3.363-5.841-8.8-.058-12.16l6.8-3.952c5.779-3.359 15.17-3.359 20.992 0z"/></g><g class="u"><path class="v" d="M208.32 106.044c5.81 3.347 5.845 8.8.062 12.156l-6.8 3.952c-5.787 3.359-15.185 3.355-21 0L98.823 74.944c-5.814-3.359-5.841-8.8-.058-12.16l6.8-3.949c5.779-3.363 15.17-3.363 20.992 0z"/></g><g class="w"><path class="x" d="M208.32 96.413c5.81 3.351 5.845 8.8.062 12.16l-6.8 3.952c-5.787 3.359-15.185 3.355-21 0L98.823 65.321c-5.814-3.359-5.841-8.8-.058-12.16l6.8-3.952c5.779-3.359 15.17-3.359 20.992 0z"/></g><g class="y"><path class="z" d="M208.32 86.795c5.81 3.351 5.845 8.8.062 12.16l-6.8 3.949c-5.787 3.359-15.185 3.355-21 0L98.823 55.695c-5.814-3.359-5.841-8.8-.058-12.156l6.8-3.952c5.779-3.359 15.17-3.359 20.992 0z"/></g></g><g class="m"><path class="n" d="M226.096 228.454c5.81 3.351 5.849 8.8.062 12.164l-6.792 3.952c-5.783 3.355-15.189 3.355-21 0l-81.767-47.212c-5.814-3.359-5.841-8.8-.062-12.156l6.8-3.956c5.783-3.355 15.178-3.355 21 0z"/><g class="o"><path class="p" d="M226.096 218.831c5.81 3.351 5.849 8.8.062 12.164l-6.792 3.949c-5.783 3.355-15.189 3.355-21 0l-81.767-47.208c-5.814-3.359-5.841-8.8-.062-12.16l6.8-3.952c5.783-3.355 15.178-3.355 21 0z"/></g><g class="q"><path class="r" d="M226.096 209.204c5.81 3.355 5.849 8.8.062 12.164l-6.792 3.949c-5.783 3.359-15.189 3.355-21 0l-81.767-47.208c-5.814-3.355-5.841-8.8-.062-12.156l6.8-3.952c5.783-3.359 15.178-3.359 21 0z"/></g><g class="s"><path class="t" d="M226.096 199.582c5.81 3.351 5.849 8.8.062 12.16l-6.792 3.952c-5.783 3.359-15.189 3.355-21 0l-81.762-47.212c-5.814-3.359-5.841-8.8-.062-12.156l6.8-3.956c5.783-3.355 15.178-3.355 21 0z"/></g><g class="u"><path class="v" d="M226.096 189.957c5.81 3.351 5.849 8.8.062 12.16l-6.792 3.949c-5.783 3.363-15.189 3.359-21 0l-81.767-47.2c-5.814-3.359-5.841-8.8-.062-12.16l6.8-3.952c5.783-3.359 15.178-3.359 21 0z"/></g><g class="w"><path class="x" d="M226.096 180.33c5.81 3.351 5.849 8.8.062 12.16l-6.792 3.949c-5.783 3.367-15.189 3.359-21 0l-81.767-47.2c-5.814-3.363-5.841-8.8-.062-12.16l6.8-3.952c5.783-3.359 15.178-3.359 21 0z"/></g><g class="y"><path class="z" d="M226.096 170.708c5.81 3.351 5.849 8.8.062 12.156l-6.792 3.952c-5.783 3.363-15.189 3.355-21 0l-81.767-47.2c-5.814-3.363-5.841-8.8-.062-12.164l6.8-3.949c5.783-3.359 15.178-3.359 21 0z"/></g></g><path d="M418.662 185.649c15.635 9.022 15.724 23.66.194 32.686s-40.808 9.022-56.439 0-15.721-23.664-.182-32.694 40.788-9.019 56.427.008z" opacity=".2"/><path d="M389.852 177.638s.718 5.225 3.142 7.944 13.273 8.727 12.649 11.656c-.632 2.909-8.192 3.5-13.157-1.082-5-4.592-6.3-5.256-8.343-5.613-2.032-.337-5.038-2.754-3.146-7.288 0-.001 6.388-2.122 8.855-5.617zm-12.877 10.48s1.086 5.438 3.8 8.134 14.495 8.25 14.018 11.357c-.45 3.1-8.324 4.232-13.851-.244-5.523-4.453-6.912-5.089-9.092-5.314-2.145-.248-5.461-2.568-3.793-7.424.004 0 6.552-2.657 8.918-6.509z"/><path class="aa" d="M344.754 111.04s39.094 19.041 41.778 25.588c3.84 9.4 3.6 15.957 3.4 39.85l.415 5.582s-4.62 4.243-10.065 1.87c-1.7-.737-.923-16.5-4.069-25.057 0 0-1.416-10.306-.784-13.106 0 0-31.166-8.82-38.682-14.972-7.531-6.122 8.007-19.755 8.007-19.755z"/><path class="ab" d="M313.751 120.845s-2.99 14.091 13.525 21.442c17.516 7.8 33.074 16 33.074 16s.151 10.783 1.866 17.191c2.316 8.688 5.644 19.991 5.644 19.991s7.459 2.529 11.345-1.722c0 0-2.052-42.216-7.284-46.665-5.252-4.488-31.123-21.888-31.123-21.888l3.956-14.153z"/><path class="aa" d="M327.276 142.287c17.516 7.8 33.074 16 33.074 16s.151 10.783 1.866 17.191c2.316 8.688 4.232 19.65 4.232 19.65a21.658 21.658 0 004.511.659c-3.192-11.175-5.771-36.309-7.207-40.878-1.757-5.663-20.072-10.779-33.206-16.779-13.149-5.989-14.51-19.37-14.51-19.378l-2.835 2.409s-2.441 13.776 14.075 21.126z"/><path class="ab" d="M391.167 175.613c.205-23.889-.8-29.583-4.635-38.985-2.68-6.547-41.78-25.588-41.78-25.588a50.024 50.024 0 00-4.185 4.27c10.5 4.445 35.723 15.732 40.777 24.052 5.818 9.542 3.487 37.189 4.468 45.024a24.572 24.572 0 005.44-1.713z"/><path class="ac" d="M379.104 61.575s1.315-5.492 4.189-6.865c2.859-1.408 4.243-2.859 6.66-2.979 2.4-.109 2.956 1.478 2.114 3.126a17.789 17.789 0 01-5.756 5.9c-2.773 1.873-2.56 2.436-3.083 3.212s-3.542.736-4.124-2.394z"/><path class="ad" d="M328.298 66.387c.8-2.622 4.007-5.989 10.829-2.917s25.8 11.9 25.8 11.9 12.73-14.844 14.5-16.318a5.111 5.111 0 004.2 4.868s-8.169 19.941-14.669 21.4c-6.493 1.447-43.884-8.261-40.66-18.933z"/><path d="M306.246 77.505s5.562-11.058 29.9-15.965c0 0 3.821-1.866 4.185 10.857.047 1.842 2.145 4.856 3.51 6.435 1.385 1.579 5.17 7.746-1.877 15.79 0 0 .078 8.952 3.952 16.066 3.468 6.377-14.611 16.244-28.454 15.72-1.679-.074-5.508-.974-4.36-6.947 1.133-5.989 4.026-16.523.636-27.221-3.385-10.724-9.028-9.103-7.492-14.735z" fill="#77d2ff"/><path class="ad" d="M306.246 77.506c-1.536 5.632 4.108 4.011 7.494 14.735 3.39 10.7.5 21.232-.636 27.221-1.148 5.973 2.68 6.873 4.36 6.947a45.394 45.394 0 006.943-.357c-5.446-10.275-.384-29.781-.687-40.366-.322-11.221-10.713-15.011-10.74-15.022-5.175 3.692-6.734 6.842-6.734 6.842z"/><path class="ac" d="M352.895 98.795s4.049-3.933 7.214-3.545c3.169.341 5.116-.144 7.222 1.055 2.083 1.195 1.7 2.831.1 3.774a17.749 17.749 0 01-8.021 1.893c-3.347.093-3.464.683-4.325 1.055s-3.381-1.276-2.19-4.232z"/><path d="M307.432 75.609c2.075-1.788 6.59-2.909 10.7 3.343 4.092 6.26 15.391 23.881 15.391 23.881s18.707-5.7 21-6a5.107 5.107 0 00.923 6.361s-17.586 12.447-23.858 10.193c-6.247-2.252-32.6-30.502-24.156-37.778z" fill="#92e3fc"/><path d="M333.766 57.785s-3.96 6.179-.95 11.83c.814 1.544 3.227 8.06-7.3 6.7 0 0-11.31-3.933-8.564-7.54 1.815-2.424 3.452-5.768-1.14-16.26z" fill="#e8a476"/><path d="M316.952 68.777a1.642 1.642 0 00-.388 1.133c9.972.621 15.713-7.121 15.713-7.121l-14.115-9.445s-.574.52-1.439 1.365c3.421 8.782 1.91 11.83.229 14.068z" fill="#d69061"/><path class="ac" d="M332 40.525s2.781.908 3.056 9.138c.016.911 1.5 2.087 1.936 4.333.411 2.288 1.105 11.438-4.177 12.517-3.832.784-13.409-1.451-16.787-10.624-3.352-9.173 4.289-21.244 15.972-15.364z"/><path class="ac" d="M320.694 57.288s-1.536-4.5-4.1-3.08c-.822.462-1.7 1.416-.4 3.724s3.925 4.375 5.969 4.077z"/><path d="M319.934 48.934a10.575 10.575 0 00-5.054-4.907 3.171 3.171 0 00-1.788-.38c-.477.081-.725-3.219-1.156-2.987-7.4 4.142-7 24.537-5.946 27.489.749 2.157 3.444 8.428 5.946 9.293 5.969 2.06 6.307 28.52 17.206 4.887 1.959-4.212-6.722-13.455-7.366-15.069-.981-2.416-3.227-3.033-3.1-5.636.1-2.731-.047-7.211 2.494-8.339 2.7-1.214 1.815-3.068 2.13-3.153.411-.12 12.963-3.464 13.319-5.194.648-3.173-.772-4.724-3.406-7.222-3.724-3.561-10.29-4.042-14.972-2.808-4.053 1.055-8.176 5.058-8.518 8.983-.493 5.407.915 12.54 7.148 16.136 2.32 1.342-1.42-4.7 1.757-4.806.791-.043 1.2-1.04 1.687-1.61z" fill="#231202"/><path class="ac" d="M319.798 55.664c1.451 1.482 1.908 3.394 1.032 4.243-.9.873-2.789.372-4.232-1.1-1.427-1.489-1.9-3.378-1.028-4.251.903-.874 2.793-.354 4.228 1.108z"/><path class="d" d="M355.495 63.268l.046 14.5-3.375 1.947-.033-14.497zm-13.435 7.765l.03 14.5-3.337 1.932-.038-14.5zm31.34-18.102l.053 14.488-3.375 1.943-.034-14.489zm-6.746-5.118l.087 32.151-3.348 1.932-.091-32.159zm-17.898 10.33l.087 32.155-3.364 1.943-.083-32.159zm12.295-14.189l.129 47.59-3.337 1.932-.14-47.6zm25.735-11.648l.076 27.371-3.337 1.932-.076-27.371zm17.959 2.53l.072 27.651-3.345 1.929-.08-27.648zm-6.743-5.129l.1 32.162-3.36 1.947-.106-32.166zm20.132-18.719l.076 30.586-3.352 1.942-.1-30.586zm-6.69 10.962l.1 32.159-3.386 1.947-.079-32.17zm-31.355 18.099l.091 32.162-3.36 1.935-.1-32.159zm12.299-14.19l.132 47.6-3.329 1.924-.132-47.609zm39.234-6.545l.038 14.5-3.36 1.951-.045-14.5zM449.52 8.981l.1 27.636-3.371 1.951-.083-27.647zm-6.746-5.121l.095 32.159-3.345 1.928-.087-32.151zm13.487 8.303l.034 16.1-3.36 1.943-.034-16.1zm-31.4 2.04l.095 32.162-3.345 1.924-.1-32.17zM437.157 0l.133 47.609-3.33 1.924-.125-47.606z"/><g class="m"><path class="n" d="M340.946 158.803c5.814 3.351 5.849 8.8.074 12.16l-6.8 3.952c-5.783 3.359-15.181 3.355-21 0l-81.764-47.2c-5.81-3.363-5.845-8.8-.062-12.16l6.8-3.956c5.783-3.355 15.17-3.355 21 0z"/><g class="o"><path class="p" d="M340.946 149.175c5.814 3.351 5.849 8.8.074 12.16l-6.8 3.949c-5.783 3.359-15.181 3.355-21 0l-81.764-47.2c-5.81-3.359-5.845-8.8-.062-12.16l6.8-3.952c5.783-3.355 15.17-3.355 21 0z"/></g><g class="q"><path class="r" d="M340.946 139.556c5.814 3.351 5.849 8.8.074 12.16l-6.8 3.949c-5.783 3.359-15.181 3.355-21 0l-81.764-47.2c-5.81-3.363-5.845-8.8-.062-12.16l6.8-3.952c5.783-3.359 15.17-3.359 21 0z"/></g><g class="s"><path class="t" d="M340.946 129.93c5.814 3.355 5.849 8.8.074 12.16l-6.8 3.949c-5.783 3.363-15.181 3.359-21 0l-81.764-47.2c-5.81-3.363-5.845-8.8-.062-12.164l6.8-3.949c5.783-3.359 15.17-3.359 21 0z"/></g><g class="u"><path class="v" d="M340.946 120.307c5.814 3.351 5.849 8.8.074 12.16l-6.8 3.949c-5.783 3.363-15.181 3.355-21 0l-81.764-47.2c-5.81-3.359-5.845-8.8-.062-12.16l6.8-3.952c5.783-3.359 15.17-3.359 21 0z"/></g><g class="w"><path class="x" d="M340.946 110.683c5.814 3.351 5.849 8.8.074 12.16l-6.8 3.945c-5.783 3.367-15.181 3.363-21 0l-81.764-47.2c-5.81-3.363-5.845-8.8-.062-12.16l6.8-3.952c5.783-3.359 15.17-3.359 21 0z"/></g><g class="y"><path class="z" d="M340.946 101.057c5.814 3.351 5.849 8.793.074 12.156l-6.8 3.949c-5.783 3.363-15.181 3.359-21 0l-81.764-47.2c-5.81-3.363-5.845-8.8-.062-12.164l6.8-3.949c5.783-3.363 15.17-3.363 21 0z"/></g></g></svg>