<svg width="150" height="150" viewBox="0 0 150 150" fill="none" xmlns="http://www.w3.org/2000/svg">
    <g filter="url(#filter0_dd)">
        <circle cx="76" cy="78" r="50" fill="#89D6E3"/>
    </g>
    <g clip-path="url(#clip0)">
        <path d="M95.2898 82.4769L89.1246 69.1572C89.0521 63.7871 86.6132 58.6961 82.24 54.7973C77.9063 50.9623 72.3285 48.8295 66.5419 48.7954C57.0658 48.7954 48.0852 54.5836 45.1621 62.5674C43.0461 66.9941 44.2772 75.5685 45.2671 82.4645C45.5208 84.23 45.7604 85.8981 45.9199 87.3326L46.0243 105.85C46.0292 106.451 46.5182 106.934 47.118 106.933L74.8172 107.269H74.8312C75.1293 107.276 75.4187 107.169 75.6393 106.969C75.8579 106.772 75.9877 106.495 75.9996 106.2V98.6878L82.7512 98.8966C84.3728 98.9442 85.9452 98.3362 87.1135 97.2111C88.2819 96.0855 88.9472 94.5369 88.9602 92.9147L89.044 84.1737L94.313 84.0504C94.6856 84.0412 95.0291 83.8449 95.226 83.5279C95.4234 83.2109 95.4472 82.8161 95.2898 82.4775V82.4769ZM87.9173 81.9842C87.3202 81.9982 86.842 82.4834 86.8361 83.0806L86.7371 92.892C86.7268 93.9219 86.3027 94.9042 85.5595 95.6171C84.8169 96.33 83.8184 96.7141 82.789 96.6827L67.0033 96.1969C66.3926 96.1796 65.882 96.6594 65.862 97.2701C65.8576 97.8878 66.3482 98.3952 66.9654 98.4114L73.784 98.6197V105.078L48.2637 104.751L48.1501 87.2618C48.1474 87.2234 48.1431 87.185 48.136 87.1466C47.9727 85.6634 47.7239 83.9563 47.4642 82.1486C46.5122 75.5263 45.3271 67.283 47.1808 63.4847C47.1976 63.449 47.2127 63.4128 47.2257 63.376C48.473 59.9332 51.105 56.7905 54.6388 54.5279C58.1952 52.2556 62.3218 51.0364 66.5419 51.011C71.7854 51.0423 76.8391 52.975 80.7655 56.4503C84.7287 59.9835 86.9107 64.5833 86.9107 69.4038C86.9107 69.5645 86.9459 69.7235 87.0135 69.8696L92.5696 81.8738L87.9173 81.9842Z" fill="white"/>
        <path d="M95.4155 86.6621C94.9817 87.0937 94.98 87.7953 95.4122 88.2285C98.1416 90.9806 98.1416 95.4182 95.4122 98.1703C95.1299 98.45 95.0195 98.8594 95.1223 99.2429C95.2251 99.627 95.5258 99.9261 95.9099 100.028C96.2939 100.129 96.7028 100.017 96.9819 99.7335C100.57 96.1165 100.57 90.2823 96.9819 86.6653C96.5503 86.2321 95.8487 86.2304 95.4155 86.6621Z" fill="white"/>
        <path d="M102.177 82.9125C101.744 83.3446 101.744 84.0462 102.177 84.4789C106.993 89.2951 106.99 97.1972 102.17 102.092C101.885 102.373 101.774 102.785 101.878 103.171C101.983 103.557 102.287 103.857 102.675 103.955C103.062 104.054 103.473 103.936 103.749 103.646C109.42 97.8863 109.416 88.5855 103.743 82.9119C103.31 82.4792 102.609 82.4797 102.177 82.9125Z" fill="white"/>
    </g>
    <defs>
        <filter id="filter0_dd" x="0" y="0" width="152" height="156" filterUnits="userSpaceOnUse" color-interpolation-filters="sRGB">
            <feFlood flood-opacity="0" result="BackgroundImageFix"/>
            <feColorMatrix in="SourceAlpha" type="matrix" values="0 0 0 0 0 0 0 0 0 0 0 0 0 0 0 0 0 0 127 0"/>
            <feOffset dx="2" dy="4"/>
            <feGaussianBlur stdDeviation="2"/>
            <feColorMatrix type="matrix" values="0 0 0 0 0.254902 0 0 0 0 0.752941 0 0 0 0 0.992157 0 0 0 0.2 0"/>
            <feBlend mode="normal" in2="BackgroundImageFix" result="effect1_dropShadow"/>
            <feColorMatrix in="SourceAlpha" type="matrix" values="0 0 0 0 0 0 0 0 0 0 0 0 0 0 0 0 0 0 127 0"/>
            <feOffset dx="-2" dy="-4"/>
            <feGaussianBlur stdDeviation="2"/>
            <feColorMatrix type="matrix" values="0 0 0 0 0.4 0 0 0 0 0.690196 0 0 0 0 1 0 0 0 0.5 0"/>
            <feBlend mode="normal" in2="effect1_dropShadow" result="effect2_dropShadow"/>
            <feBlend mode="normal" in="SourceGraphic" in2="effect2_dropShadow" result="shape"/>
        </filter>
        <clipPath id="clip0">
            <rect width="64" height="64" fill="white" transform="translate(44 46)"/>
        </clipPath>
    </defs>
</svg>
