<svg xmlns="http://www.w3.org/2000/svg" viewBox="0 0 137.62 139.96"><defs><style>.cls-1{fill:#231f20;}</style></defs><title>Asset 1mdpi</title><g id="Layer_2" data-name="Layer 2"><g id="Layer_1-2" data-name="Layer 1"><path class="cls-1" d="M129.78,21.51a12.81,12.81,0,0,0-8.17-10.86A13.31,13.31,0,0,0,108.58,0H13.3A13.32,13.32,0,0,0,0,13.3H3.6a9.71,9.71,0,0,1,9.7-9.7h95.28a9.71,9.71,0,0,1,9.7,9.7v97.31a9.72,9.72,0,0,1-9.7,9.71H13.3a9.72,9.72,0,0,1-9.7-9.71H0a13.32,13.32,0,0,0,10.34,13A12.75,12.75,0,0,0,21.17,132,12.47,12.47,0,0,0,32.79,140h92.34a12.5,12.5,0,0,0,12.49-12.49V33.1A12.42,12.42,0,0,0,129.78,21.51ZM13.48,123.91h95.1a13.31,13.31,0,0,0,13.3-13.3V13.79a10.06,10.06,0,0,1,5.2,8.81v96.7a10.06,10.06,0,0,1-10,10H22.4A10,10,0,0,1,13.48,123.91Zm121.46,3.56a9.82,9.82,0,0,1-9.81,9.81H32.79a9.82,9.82,0,0,1-8.65-5.18H117a12.82,12.82,0,0,0,12.8-12.8V24.52a9.72,9.72,0,0,1,5.11,8.58Z"/><path class="cls-1" d="M18.83,82.81H31.28v2.61H21.83v6.71h7.69v2.61H21.83v6.9h10v2.61h-13Z"/><path class="cls-1" d="M35,82.81H38V94.53h2.16l4.19-5.65h3.34l-5.1,6.78v.06l5.68,8.53H44.79L40.17,97H38v7.23H35Z"/><path class="cls-1" d="M51.07,99.51a8.47,8.47,0,0,0,5.47,2.31c2,0,3.7-1.12,3.7-3.16C60.24,94,49.86,95,49.86,88.43c0-3.34,2.88-6,6.92-6a8.78,8.78,0,0,1,6.07,2.15l-1.36,2.49a7.59,7.59,0,0,0-4.71-1.85c-2.28,0-3.89,1.43-3.89,3.13,0,4.43,10.39,3.25,10.39,10.2,0,3.31-2.55,6-6.8,6a10,10,0,0,1-7.11-2.82Z"/><path class="cls-1" d="M66.92,91.47h-2V89.1H67V84.66h2.85V89.1h3.71v2.37H69.86V98.3c0,3.06,2.16,3.46,3.28,3.46a3.55,3.55,0,0,0,.7-.06v2.61a8.05,8.05,0,0,1-1,.06c-2,0-5.89-.61-5.89-5.74Z"/><path class="cls-1" d="M83.16,88.52c4.34,0,6.65,3.22,6.65,7.2,0,.39-.09,1.27-.09,1.27H78.51a5,5,0,0,0,5.29,5.07,7.31,7.31,0,0,0,4.55-1.79l1.22,2.16a9.17,9.17,0,0,1-5.95,2.18,7.82,7.82,0,0,1-8.14-8C75.48,91.68,78.79,88.52,83.16,88.52Zm3.64,6.26c-.09-2.65-1.73-3.92-3.7-3.92a4.39,4.39,0,0,0-4.49,3.92Z"/><path class="cls-1" d="M92.78,88.88h2.71v1.31a9.22,9.22,0,0,1-.07,1.12h.07a5.56,5.56,0,0,1,5.16-2.79c4.13,0,6.74,3.28,6.74,8s-3,8-7,8a5.33,5.33,0,0,1-4.7-2.52h-.06s.06.55.06,1.34v6.89h-3Zm7.2,13.21c2.43,0,4.43-2,4.43-5.49,0-3.34-1.79-5.5-4.34-5.5-2.31,0-4.43,1.61-4.43,5.53C95.64,99.36,97.16,102.09,100,102.09Z"/><path class="cls-1" d="M3.6,107.23H0v-2.54H3.6Zm0-7.62H0V97.07H3.6ZM3.6,92H0V89.46H3.6Zm0-7.62H0V81.84H3.6Zm0-7.62H0V74.23H3.6Zm0-7.61H0V66.61H3.6Zm0-7.62H0V59H3.6Zm0-7.61H0V51.38H3.6Zm0-7.62H0V43.76H3.6Zm0-7.61H0V36.15H3.6Zm0-7.62H0V28.53H3.6Zm0-7.62H0V20.92H3.6Zm0-7.61H0V13.3H3.6Z"/></g></g></svg>