<svg xmlns="http://www.w3.org/2000/svg" width="614.8" height="759.548"><defs><clipPath id="a"><path class="a" d="M720.29 898.627a3.878 3.878 0 012.257 3.188l.012-7.743a3.889 3.889 0 00-2.259-3.172q-.008 3.861-.01 7.732 0-3.873.01-7.732a12.184 12.184 0 00-11.07-.042c0 2.568 0 5.15-.01 7.727.01-2.577 0-5.159.01-7.727a3.9 3.9 0 00-2.322 3.209l-.021 7.738c0-1.173.784-2.338 2.333-3.22a12.23 12.23 0 0111.07.042z"/></clipPath><clipPath id="b"><path class="a" d="M706.908 894.062l-.021 7.724a3.9 3.9 0 002.262 3.2 12.168 12.168 0 0011.065.052c1.543-.892 2.333-2.057 2.333-3.225q0-3.864.012-7.743a3.946 3.946 0 01-2.34 3.235 12.191 12.191 0 01-11.06-.047 3.916 3.916 0 01-2.251-3.196z"/></clipPath><linearGradient id="c" y1=".5" x2="1" y2=".5" gradientUnits="objectBoundingBox"><stop offset="0" stop-color="#2f95e4"/><stop offset="1" stop-color="#7133de"/></linearGradient><style>.a{fill:none}.b{fill:#3f80ff}.c{opacity:.5;mix-blend-mode:overlay}.ar,.c{isolation:isolate}.d,.e,.f,.g,.h,.i,.j{fill:#fcfdfd}.d{opacity:.8}.e{opacity:.667}.f{opacity:.533}.am,.g{opacity:.4}.ak,.h{opacity:.267}.ai,.i{opacity:.133}.ag,.j{opacity:0}.aj{opacity:.2}.l{fill:#8fedff}.m{fill:#c5f9ff}.ag,.ah,.ai,.aj,.ak,.al,.am{fill:#fff}.p{fill:#efb185}.q{fill:#471bce}.s{fill:#111114}.t{fill:#5fb9e6}.u{fill:#77d2ff}.v{fill:#632bee}.w{fill:#dd9569}.x{fill:#e6a376}.aa{fill:#def0f9}.ac{fill:#ff61cb}.ad{fill:#231202}.ah{opacity:.067}.al{opacity:.333}.aw{fill:#818f94}.ax{fill:#859499}.ay{fill:#8a999e}.az{fill:#8e9da3}.ba{fill:#93a2a8}.bb{fill:#97a7ad}.bc{fill:#9bacb3}.bf{fill:#376a80}.bg{fill:#396e85}.bh{fill:#3b7189}.bi{fill:#3d758d}.bj{fill:#3f7992}.bk{fill:#417c96}.bl{fill:#43809b}.bw{fill:#dd3eb0}.bx{fill:#4bbbe8}</style></defs><path class="b" d="M611.005 7.699s18.663-37.884-26.782 54.426-112.044 123.162-240.647 173.119-305.732-6.851-285.8 163.789 258.849 49.038 216.239 194.092 336.99 166.424 336.99 166.424z"/><g class="c"><path class="d" d="M472.684 363.859c14.8 8.544 38.724 8.544 53.441 0s14.627-22.41-.169-30.955c-14.817-8.542-38.733-8.542-53.453 0s-14.618 22.4.181 30.957"/><path class="e" d="M468.006 350.445c17.406 9.625 45.529 9.625 62.827 0s17.2-25.246-.2-34.872c-17.415-9.624-45.535-9.624-62.836 0s-17.189 25.238.21 34.874"/><path class="f" d="M463.328 337.032c20.008 10.706 52.333 10.706 72.212 0s19.767-28.082-.231-38.789c-20.014-10.707-52.337-10.707-72.219 0s-19.761 28.073.238 38.791"/><path class="g" d="M458.65 323.618c22.611 11.788 59.138 11.788 81.6 0s22.338-30.919-.262-42.707-59.138-11.788-81.6 0-22.331 30.908.267 42.708"/><path class="h" d="M453.972 310.204c25.214 12.869 65.943 12.869 90.983 0s24.905-33.756-.295-46.624-65.941-12.871-90.986 0-24.9 33.743.3 46.624"/><path class="i" d="M449.294 296.791c27.817 13.95 72.748 13.95 100.368 0s27.477-36.592-.324-50.54-72.742-13.954-100.368 0-27.474 36.578.324 50.541"/><path class="j" d="M444.616 283.377c30.419 15.032 79.553 15.032 109.754 0s30.047-39.429-.355-54.458-79.544-15.036-109.752 0-30.045 39.413.353 54.458"/></g><path d="M348.303 287.776c-12.522 7.226-12.608 18.955-.152 26.19l41.1 23.883c12.459 7.238 32.706 7.229 45.223 0l53.286-30.766c12.533-7.231 12.6-18.96.151-26.188l-41.1-23.885c-12.452-7.238-32.686-7.238-45.219 0z"/><path class="l" d="M456.48 156.15a8.112 8.112 0 011.6-.346 1.182 1.182 0 01.124-.009 5.584 5.584 0 011.577.077.236.236 0 01.052.016 4.721 4.721 0 011.417.533c-.023-.012-.041-.025-.061-.036l-2.049-1.189-2.908-1.689a.166.166 0 00-.052-.032 4.865 4.865 0 00-.485-.242c-.167-.063-.339-.119-.511-.178a5.134 5.134 0 00-.35-.077l-.074-.018c-.043-.011-.082-.023-.12-.029a5.2 5.2 0 00-.588-.068 6.344 6.344 0 00-.634-.007c-.075 0-.154.018-.231.025-.038 0-.077.011-.117.013-.124.014-.244.018-.375.037a7.61 7.61 0 00-.85.183c-.126.031-.259.088-.379.128s-.217.073-.326.116a4.567 4.567 0 00-.44.149 9.842 9.842 0 00-1.351.675l-55.651 32.125a15.876 15.876 0 00-1.814 1.259c-.2.153-.379.334-.567.5-.289.251-.58.474-.853.748-.125.124-.247.264-.371.395-.1.108-.208.217-.309.332-.127.136-.256.26-.38.4-.267.307-.529.628-.784.958a6.793 6.793 0 00-.253.339 2.6 2.6 0 01-.14.187c-.081.113-.169.231-.253.346-.19.269-.375.551-.556.836q-.257.4-.5.815a.336.336 0 00-.038.07.245.245 0 00-.034.064c-.133.223-.26.447-.386.675q-.211.42-.409.827c-.12.246-.235.495-.341.741a.27.27 0 00-.03.065.248.248 0 00-.018.034c-.122.289-.244.581-.352.87-.12.3-.231.6-.33.908-.05.156-.09.3-.136.463a1.511 1.511 0 00-.063.2c-.038.113-.07.219-.1.328-.1.37-.19.738-.271 1.113-.043.219-.077.448-.117.674-.016.115-.039.223-.055.338s-.045.217-.058.328a14.93 14.93 0 00-.122 1.9l.036 13.4c0 .007 0 .12.018.328a10.629 10.629 0 00.233 1.99c.562 3.373 2.381 9.608 8.274 13.03l5.013 2.917c-5.9-3.425-7.712-9.662-8.273-13.037a10.428 10.428 0 01-.237-1.981c-.015-.208-.015-.328-.015-.335l-.047-13.403a15.429 15.429 0 01.181-2.211c.018-.127.04-.24.061-.36a19.42 19.42 0 01.492-2.116c.014-.057.032-.12.052-.179a22.3 22.3 0 012.026-4.619.041.041 0 01.009-.025 23.6 23.6 0 011.363-2.083c.04-.061.085-.115.128-.176.45-.6.926-1.173 1.426-1.722.1-.1.2-.205.3-.314a16.294 16.294 0 011.248-1.17c.183-.158.354-.318.542-.467a14.708 14.708 0 011.818-1.27l55.654-32.125a11.246 11.246 0 011.78-.823c.114-.036.229-.076.34-.119z"/><path class="m" d="M454.36 157.092c5.338-3.082 9.689-.61 9.7 5.537l.041 13.4c.018 6.147-4.3 13.622-9.651 16.7l-50.42 29.122a27.356 27.356 0 002.571 15.228c-13.249-.491-16.468-10.726-17.246-15.427a10.428 10.428 0 01-.237-1.981c-.015-.208-.015-.328-.015-.335l-.043-13.407c-.011-6.144 4.3-13.624 9.648-16.712z"/><path class="l" d="M474.484 274.799c.02-.185.036-.4.054-.605.01-.132.028-.267.032-.4.02-.257.041-.519.052-.8a2.112 2.112 0 00.018-.25c.014-.3.023-.59.036-.9v-.32c.007-.3.014-.6.014-.908 0-.077-.007-.15-.007-.231-.007-.352-.02-.7-.038-1.053 0-.074 0-.142-.009-.205-.025-.341-.048-.685-.084-1.03a5.656 5.656 0 00-.027-.265 18.371 18.371 0 00-.4-2.392c-.022-.081-.036-.156-.061-.239-.09-.328-.183-.649-.289-.956-.02-.056-.036-.108-.054-.165a10.3 10.3 0 00-.431-1.019 4.193 4.193 0 00-.145-.257 6.284 6.284 0 00-.386-.64 6.871 6.871 0 00-.506-.637c-.1-.1-.179-.221-.285-.32a4.46 4.46 0 00-.962-.741l4.292 2.494a4.491 4.491 0 01.971.743c.1.09.167.2.256.3a5.841 5.841 0 01.53.662c.028.049.071.081.1.124.09.142.16.305.251.452.058.122.122.232.192.352a.7.7 0 01.033.068c.127.264.244.54.346.818a.292.292 0 00.025.061c.038.1.065.21.1.3.052.154.109.31.152.466.034.108.056.23.09.352l.088.317a.932.932 0 00.043.171c.063.3.124.594.176.9v.011c.023.129.034.247.05.38.034.183.057.364.086.551.005.063.014.138.023.2.02.2.04.395.063.589 0 .07.009.14.009.208.02.115.02.23.029.348.014.208.023.411.046.617v.126c0 .174 0 .352.009.526s.02.364.02.549v.088c0 .2 0 .384-.009.581s0 .368-.011.547v.113c-.005.146-.009.273-.009.42-.023.251-.028.5-.046.732v.144c-.009.086-.018.147-.029.228-.018.364-.052.692-.072 1 0 .02-.007.05-.007.072a.077.077 0 01-.011.043c-.043.434-.079.807-.116 1.1v.007c-.015.09-.015.149-.027.216a.717.717 0 00-.02.158c-.018.123-.034.211-.041.258l-4.29-2.494c.016-.111.068-.488.136-1.023.012-.175.026-.336.05-.542zm-83.091 4.178c.012-.332.03-.662.05-1 .009-.149.025-.312.034-.467a.9.9 0 01.009-.156c.013-.125.018-.249.031-.373.034-.33.077-.669.116-1.008s.088-.684.144-1.03a.172.172 0 01.007-.031v-.027c.059-.323.113-.651.174-.976.066-.357.142-.719.215-1.073.034-.131.063-.262.09-.4a1.7 1.7 0 00.047-.187c.032-.161.073-.332.122-.493.082-.368.181-.725.28-1.089.073-.264.154-.528.231-.79.018-.05.029-.1.05-.154s.022-.09.036-.14c.108-.35.221-.707.341-1.062s.235-.7.361-1.046a1.3 1.3 0 00.055-.149 4.11 4.11 0 00.106-.259c.07-.2.147-.4.219-.595.135-.332.266-.664.406-.991.093-.249.2-.479.3-.714.018-.041.029-.084.047-.12s.043-.1.073-.158c.142-.33.3-.659.449-.989.167-.366.344-.716.515-1.08l.1-.174a1.542 1.542 0 01.079-.165c.151-.3.3-.592.461-.886.178-.336.368-.659.546-.984.125-.222.254-.439.375-.653.027-.057.059-.115.091-.168.147-.253.316-.5.474-.749.3-.5.6-1 .917-1.471.043-.07.084-.138.134-.206a53 53 0 011.292-1.854c.3-.4.6-.8.915-1.188.264-.339.528-.656.788-.99.264-.31.531-.614.791-.919s.528-.595.8-.884c.043-.052.083-.09.128-.137l.154-.156c.183-.2.373-.4.554-.59.284-.289.576-.572.871-.854.084-.084.177-.163.263-.248.07-.064.137-.127.205-.2.142-.122.282-.264.434-.4.3-.265.6-.534.91-.8.14-.113.274-.221.423-.334.061-.054.126-.113.192-.165a23.017 23.017 0 011.194-.931c.233-.167.468-.332.707-.5a.318.318 0 01.054-.043c.048-.034.093-.061.136-.092.287-.2.578-.394.868-.581s.573-.357.872-.526c.069-.046.137-.084.2-.118l57.051-32.945c.221-.122.438-.242.648-.368.287-.147.565-.292.845-.432.179-.086.359-.167.533-.251.052-.02.093-.045.143-.065s.1-.05.153-.077a21.767 21.767 0 011.647-.653 1.443 1.443 0 01.156-.052.545.545 0 00.088-.034c.19-.061.386-.126.576-.183.285-.09.567-.162.847-.237.136-.031.271-.059.405-.093l.173-.031c.089-.018.179-.041.265-.056.3-.062.6-.114.9-.15.19-.029.362-.04.547-.056a1.684 1.684 0 01.172-.02c.065-.005.131-.014.19-.019.334-.022.65-.036.969-.034.144 0 .275.012.411.021.113 0 .221.009.323.018s.224 0 .33.016a11.258 11.258 0 011.181.167.254.254 0 00.027.007 1.5 1.5 0 00.195.052 11.177 11.177 0 011.213.341c.031.011.059.029.092.041a10.55 10.55 0 011.568.722l4.288 2.5a9.485 9.485 0 00-1.575-.73 10.756 10.756 0 00-1.245-.362c-.083-.018-.167-.052-.246-.065a10.9 10.9 0 00-1.547-.194c-.1 0-.2-.012-.3-.016a14.794 14.794 0 00-1.57.025c-.056.011-.117.018-.183.029a15.784 15.784 0 00-1.706.255c-.051.012-.11.03-.171.039-.6.14-1.191.3-1.807.508-.039.011-.077.029-.127.041q-.956.332-1.954.788c-.041.014-.07.025-.106.041q-1.012.474-2.051 1.07l-57.052 32.935c-.686.4-1.371.833-2.046 1.3-.05.025-.1.066-.145.1-.628.443-1.249.911-1.855 1.408a2.3 2.3 0 00-.185.144c-.6.49-1.184 1-1.764 1.541-.063.056-.129.122-.194.176a41.005 41.005 0 00-1.731 1.733c-.029.038-.065.072-.092.1-.6.628-1.168 1.278-1.731 1.956l-.013.016c-.025.027-.048.056-.07.081a49.757 49.757 0 00-3.066 4.152c-.28.42-.54.852-.8 1.283-.237.391-.49.768-.714 1.164-.1.158-.176.314-.264.472-.38.666-.746 1.333-1.1 2.015-.018.043-.043.083-.065.131-.4.795-.782 1.606-1.139 2.419-.009.023-.027.055-.036.084a42.409 42.409 0 00-.944 2.342c-.025.077-.059.156-.088.233a39.693 39.693 0 00-.859 2.6 34.903 34.903 0 00-.621 2.322c-.018.074-.032.145-.048.224a32.13 32.13 0 00-.467 2.372c-.007.031-.009.072-.016.1-.122.8-.224 1.586-.289 2.37a2.493 2.493 0 00-.018.256c-.064.79-.093 1.567-.093 2.34s.036 1.531.1 2.257c.013.088.022.165.029.237.07.666.165 1.319.287 1.938.009.081.034.163.05.246.122.6.278 1.188.449 1.749.036.108.07.217.113.334.165.5.355.983.558 1.437.041.072.054.158.1.23a12.356 12.356 0 00.845 1.548 11.594 11.594 0 001.441 1.786c.133.143.269.269.411.4a10.272 10.272 0 001.746 1.33l-4.292-2.5a9.569 9.569 0 01-1.748-1.338 7.248 7.248 0 01-.4-.386 11.369 11.369 0 01-1.453-1.8 13.842 13.842 0 01-.8-1.443.578.578 0 01-.043-.1 8.83 8.83 0 00-.093-.217c-.126-.3-.269-.6-.386-.922-.068-.18-.118-.361-.183-.542-.038-.111-.066-.217-.1-.314s-.063-.185-.088-.282c-.111-.35-.194-.714-.285-1.087-.025-.113-.043-.239-.07-.359-.024-.095-.038-.19-.056-.287-.027-.126-.059-.246-.079-.375-.054-.33-.109-.666-.154-1.014-.025-.181-.034-.368-.054-.554a1.366 1.366 0 01-.018-.192 2.365 2.365 0 01-.027-.25c-.03-.321-.045-.649-.063-.981s-.021-.648-.021-1v-.031a21.81 21.81 0 01.005-.922z"/><path class="m" d="M416.129 246.96c-11.34 6.546-20.491 22.407-20.455 35.437.029 12.625 8.724 18.6 19.592 12.323.33-.188.665-.393 1-.606 8.756-5.595 23.442-16.061 36.3-23.473 7.269-4.2 13.963-7.434 18.646-8.243 10.1-1.767 7.509 15.539 7.375 16.452a201.06 201.06 0 0014.594-47.216c.119-.607.207-1.179.286-1.773.073-.526.111-.815.111-.831.1-1.087.19-2.191.19-3.264-.039-13.03-9.258-18.285-20.584-11.741z"/><path class="l" d="M527.686 177.845c.011-.122.025-.266.036-.413.009-.086.016-.181.018-.269.014-.172.027-.353.041-.547.005-.061.005-.117.005-.174.013-.2.018-.4.027-.612v-.992c0-.239-.013-.476-.022-.716 0-.049-.009-.1-.009-.14l-.055-.7c-.007-.055-.011-.122-.02-.181a13.53 13.53 0 00-.276-1.624l-.042-.167a7.461 7.461 0 00-.2-.651.677.677 0 01-.034-.111q-.135-.359-.3-.693c-.029-.061-.07-.113-.1-.179a3.637 3.637 0 00-.265-.433 4.352 4.352 0 00-.341-.432 2.861 2.861 0 00-.194-.212 3.02 3.02 0 00-.657-.515l2.925 1.7a3.556 3.556 0 01.66.515c.061.059.113.129.174.2a4.327 4.327 0 01.363.445.382.382 0 00.066.084c.061.1.111.21.169.312l.131.235a.474.474 0 01.021.052 5.319 5.319 0 01.239.558.141.141 0 00.016.038c.025.07.045.142.063.208a2.571 2.571 0 01.106.314c.027.074.041.158.066.235a1.5 1.5 0 00.059.217c0 .045.016.083.02.122a5.96 5.96 0 01.126.61v.006c.015.084.022.172.036.258.02.124.041.251.056.379l.014.136c.018.135.027.269.038.4a1.389 1.389 0 01.014.142 2.307 2.307 0 01.018.233c.011.143.013.285.029.421v.085c.005.122.005.244.01.36s.013.25.013.375v.06c0 .132 0 .258-.009.4s0 .248 0 .368v.077c-.005.1-.01.187-.012.289-.016.172-.018.339-.029.5v.1a2.07 2.07 0 01-.018.156c-.014.248-.034.474-.052.686v.048a.064.064 0 01-.009.025c-.029.3-.054.551-.079.75-.012.063-.012.1-.021.149s-.011.079-.015.106a1.4 1.4 0 01-.028.172l-2.92-1.7c.013-.074.054-.332.092-.693.025-.118.038-.23.056-.372zm-56.563 2.842c.009-.224.018-.452.036-.673 0-.109.018-.215.018-.323 0-.036.009-.073.009-.106.009-.082.014-.165.023-.256.022-.221.052-.454.076-.686s.064-.468.1-.7v-.041c.039-.221.079-.443.12-.664.048-.242.1-.49.142-.734a1.653 1.653 0 00.064-.267l.031-.126c.027-.113.052-.229.084-.335.059-.246.124-.495.19-.741l.158-.546c.009-.032.018-.064.031-.1a.3.3 0 00.023-.092c.081-.244.158-.484.237-.721s.161-.481.249-.716c.011-.032.02-.065.036-.1a1.773 1.773 0 00.068-.18c.049-.134.1-.265.156-.4a27.3 27.3 0 01.27-.678c.066-.167.136-.323.206-.488a.468.468 0 01.036-.079.507.507 0 01.045-.1c.1-.23.2-.456.308-.677.113-.244.232-.495.352-.737a1.156 1.156 0 01.065-.119.881.881 0 01.055-.111c.106-.2.2-.4.311-.6.125-.222.253-.441.376-.669.085-.147.169-.3.257-.445a.923.923 0 01.061-.115c.1-.172.212-.339.323-.509.2-.339.4-.673.623-1 .03-.046.059-.093.093-.138.278-.429.576-.85.877-1.261.205-.275.411-.549.623-.815l.538-.667a25.323 25.323 0 011.084-1.228 1.013 1.013 0 01.084-.094c.036-.034.072-.075.106-.111.129-.134.253-.273.379-.393.19-.2.389-.4.592-.588.059-.058.12-.11.181-.165s.09-.09.14-.133c.1-.088.194-.185.291-.269.208-.185.412-.368.62-.546.094-.077.185-.151.289-.231a1.49 1.49 0 01.133-.106 2.294 2.294 0 01.2-.169c.2-.158.407-.317.61-.472.163-.116.321-.224.483-.335a.1.1 0 01.037-.029.45.45 0 00.088-.068c.2-.131.393-.264.6-.389s.393-.246.588-.361c.051-.029.1-.054.142-.083l38.832-22.421c.152-.084.3-.17.443-.253.2-.1.386-.2.574-.292.117-.06.244-.112.361-.169l.1-.047.1-.052c.185-.082.37-.154.56-.226a5.594 5.594 0 01.56-.215.331.331 0 01.108-.034.668.668 0 01.055-.025c.135-.043.264-.088.4-.124a6.57 6.57 0 01.576-.162c.091-.021.181-.046.276-.064.038 0 .077-.016.115-.022.061-.016.122-.032.179-.041.207-.043.415-.072.612-.1.131-.021.25-.025.375-.041a.926.926 0 01.117-.011c.045-.005.091-.007.127-.014.226-.016.443-.025.664-.025.1 0 .185.014.273.018s.154.007.224.014.156 0 .221.007a7.923 7.923 0 01.807.115h.018c.041.009.088.032.133.038a8.364 8.364 0 01.829.229c.023.006.036.022.061.029a6.077 6.077 0 011.06.5l2.925 1.7a6.815 6.815 0 00-1.069-.5 8.146 8.146 0 00-.847-.239c-.065-.016-.117-.041-.176-.052a7.677 7.677 0 00-1.048-.129c-.068 0-.136-.011-.2-.011a10.223 10.223 0 00-1.075.022c-.041 0-.079.009-.127.009a10.068 10.068 0 00-1.156.183.649.649 0 00-.118.023 11.9 11.9 0 00-1.229.346.819.819 0 00-.088.027c-.434.149-.881.33-1.335.535a.232.232 0 00-.068.03q-.687.324-1.4.729l-38.829 22.405a20.12 20.12 0 00-1.4.9.454.454 0 00-.094.063 22.501 22.501 0 00-1.39 1.058c-.406.334-.806.68-1.2 1.046l-.134.12c-.4.379-.8.77-1.179 1.181-.02.025-.043.045-.065.072-.4.425-.791.868-1.177 1.327a.015.015 0 01-.009.013.347.347 0 01-.045.054 33.627 33.627 0 00-2.088 2.829c-.19.289-.368.585-.547.872-.16.262-.334.524-.49.79-.058.106-.12.217-.176.323-.26.454-.506.906-.745 1.374-.012.027-.032.054-.046.083-.273.545-.533 1.1-.774 1.645a.551.551 0 01-.025.061 28.695 28.695 0 00-.701 1.758c-.2.542-.388 1.087-.546 1.631l-.041.136a28.34 28.34 0 00-.422 1.579c-.009.052-.027.1-.032.158a21.589 21.589 0 00-.321 1.613c0 .02-.009.049-.009.065-.088.545-.153 1.08-.2 1.613a1.248 1.248 0 00-.016.179c-.039.533-.057 1.066-.057 1.59s.021 1.044.066 1.536c.007.059.013.113.023.165a12.211 12.211 0 00.194 1.322c.007.054.016.108.025.162.088.409.2.807.314 1.186.022.079.047.149.074.231.115.339.244.666.384.982a.736.736 0 00.068.154 8.938 8.938 0 00.572 1.057 7.854 7.854 0 00.985 1.213c.09.095.185.183.28.276a6.565 6.565 0 001.186.9l-2.924-1.692a7.06 7.06 0 01-1.19-.91 5.641 5.641 0 01-.269-.267 7.276 7.276 0 01-.989-1.227 8.247 8.247 0 01-.554-.982.461.461 0 00-.025-.066c-.02-.047-.04-.1-.061-.147-.088-.2-.185-.413-.266-.628-.045-.122-.079-.25-.127-.37a1.816 1.816 0 00-.07-.215 3.157 3.157 0 01-.054-.19 9.725 9.725 0 01-.192-.738l-.052-.246a1.422 1.422 0 01-.036-.2 2.187 2.187 0 01-.054-.253c-.043-.224-.075-.45-.109-.685-.016-.124-.02-.255-.031-.379a1.4 1.4 0 01-.018-.133c-.005-.057-.014-.111-.014-.17a16.604 16.604 0 01-.061-1.342v-.045c.01-.215.01-.425.017-.637z"/><path class="m" d="M487.96 158.892c-7.721 4.459-13.947 15.253-13.92 24.124.018 8.591 5.939 12.657 13.335 8.39.224-.129.45-.271.674-.413 5.966-3.811 15.959-10.929 24.706-15.978 4.957-2.862 9.506-5.061 12.7-5.616 6.874-1.2 5.114 10.581 5.019 11.2a136.711 136.711 0 009.936-32.139c.086-.407.144-.8.192-1.2.054-.357.079-.556.079-.563a21.869 21.869 0 00.128-2.225c-.027-8.869-6.3-12.44-14.012-7.99z"/><g opacity=".8"><path d="M483.26 219.725a2.227 2.227 0 11-2.223-2.225 2.223 2.223 0 012.223 2.225z" opacity=".3" fill="#fff"/></g><path class="b" d="M485.655 173.616l.014 4.3-1 .581-.011-4.3zm-3.989 2.302l.014 4.308-1 .572-.013-4.306zm9.309-5.374l.016 4.306-1 .576-.016-4.3zm-2.006-1.522l.025 9.549-.987.576-.027-9.549zm-5.309 3.072l.027 9.549-1 .576-.029-9.546zm3.644-4.218l.045 14.135-.994.578-.036-14.139zm35.907-16.136l.018 4.312-1 .572-.014-4.3zm-3.987 2.304l.011 4.308-1 .58-.009-4.312zm9.311-5.374l.011 4.31-1 .574-.009-4.308zm-2.006-1.518l.025 9.549-.994.572-.027-9.551zm-5.322 3.068l.025 9.549-.989.571-.027-9.549zm3.653-4.206l.036 14.125-.985.567-.043-14.125zm5.668 1.696l.016 6.687-1 .572-.018-6.682zm5.313-3.068l.018 4.3-1 .581-.018-4.308zm-2.001-1.522l.025 9.546-1 .574-.023-9.547zm-1.67-1.146l.045 14.135-1 .574-.036-14.135zm-37.221 22.45l.02 8.123-.989.576-.027-8.128zm5.331.748l.02 8.214-.994.572-.023-8.209zm-2.002-1.522l.027 9.546-1 .578-.032-9.546zm5.982-5.551l.023 9.081-1 .574-.023-9.084zm-1.99 3.246l.029 9.544-1 .581-.029-9.544zm-9.31 5.374l.031 9.551-1 .571-.031-9.542zm3.649-4.21l.038 14.132-.983.569-.045-14.132zm11.651-1.941l.009 4.3-1 .578-.016-4.3zm5.319-3.069l.018 8.207-1 .576-.018-8.207zm-2.006-1.526l.027 9.553-.992.572-.031-9.549zm5.987-.779l.016 4.308-.994.572-.016-4.306zm-1.982 3.246l.011 4.78-1 .576-.014-4.778zm-9.328.603l.032 9.553-1 .571-.027-9.551zm3.649-4.208l.045 14.128-.989.574-.041-14.135zm-108.505 49.508l.016 4.685-1.089.63-.011-4.687zm-4.347 2.508l.014 4.694-1.082.623-.016-4.692zm10.148-5.852l.018 4.69-1.091.628-.018-4.69zm-2.189-1.664l.029 10.4-1.078.63-.027-10.407zm-5.788 3.348l.029 10.405-1.089.628-.032-10.405zm3.974-4.595l.05 15.4-1.082.63-.041-15.409zm39.135-17.589l.018 4.7-1.089.623-.016-4.692zm-4.348 2.51l.016 4.7-1.089.632-.009-4.7zm10.151-5.855l.011 4.7-1.1.626-.009-4.7zm-2.186-1.655l.027 10.407-1.084.621-.032-10.41zm-5.804 3.345l.029 10.407-1.08.623-.027-10.407zm3.983-4.586l.041 15.4-1.075.617-.045-15.4zm6.178 1.85l.016 7.288-1.087.624-.022-7.283zm5.79-3.341l.018 4.685-1.089.63-.02-4.692zm-2.18-1.661l.025 10.4-1.086.626-.025-10.4zm-1.82-1.249l.047 15.4-1.084.626-.041-15.4zm-40.566 24.468l.023 8.853-1.082.628-.027-8.858zm5.811.815l.02 8.95-1.082.626-.027-8.95zm-2.182-1.66l.027 10.405-1.082.63-.036-10.4zm6.515-6.054l.025 9.9-1.091.626-.027-9.9zm-2.165 3.544l.029 10.4-1.089.63-.034-10.4zm-10.144 5.855l.034 10.41-1.091.623-.032-10.4zm3.973-4.588l.045 15.4-1.073.619-.05-15.4zm12.7-2.116l.009 4.685-1.086.633-.018-4.69zm5.794-3.348l.02 8.946-1.089.628-.018-8.943zm-2.184-1.658l.029 10.412-1.082.621-.034-10.4zm6.526-.852l.016 4.7-1.08.623-.02-4.694zm-2.162 3.542l.011 5.2-1.084.63-.016-5.207zm-10.165.655l.032 10.409-1.082.623-.029-10.409zm3.978-4.585l.04 15.395-1.075.626-.047-15.4zm-13.947 84.59l.02 6.307-1.466.849-.014-6.31zm-5.849 3.375l.018 6.318-1.459.84-.02-6.314zm13.656-7.879l.022 6.314-1.466.843-.025-6.309zm-2.946-2.234l.038 14-1.448.847-.041-14.006zm-7.789 4.507l.039 14-1.466.849-.041-14zm5.349-6.186l.063 20.729-1.455.849-.056-20.74zm52.666-23.667l.025 6.323-1.466.84-.023-6.316zm-5.85 3.375l.023 6.321-1.466.852-.014-6.328zm13.665-7.882l.013 6.321-1.473.842-.011-6.321zm-2.944-2.227l.034 14.008-1.457.836-.043-14.008zm-7.809 4.502l.038 14.006-1.452.838-.038-14.008zm5.361-6.174l.052 20.724-1.446.829-.063-20.718zm8.313 2.492l.02 9.806-1.461.838-.029-9.8zm7.791-4.498l.027 6.307-1.466.847-.027-6.314zm-2.934-2.234l.036 14-1.464.843-.032-14zm-2.449-1.681l.065 20.733-1.461.84-.048-20.728zm-54.596 32.927l.032 11.916-1.457.847-.038-11.923zm7.818 1.098l.029 12.05-1.457.84-.038-12.045zm-2.936-2.232l.038 14-1.457.847-.047-14zm8.77-8.148l.031 13.319-1.466.845-.036-13.324zm-2.915 4.769l.043 14-1.468.847-.043-14zm-13.656 7.882l.043 14.01-1.464.838-.047-14zm5.35-6.179l.061 20.731-1.444.833-.063-20.729zm17.092-2.844l.016 6.3-1.461.849-.025-6.31zm7.802-4.507l.027 12.039-1.468.847-.023-12.041zm-2.939-2.232l.038 14.013-1.459.836-.045-14zm8.783-1.147l.02 6.323-1.455.836-.027-6.316zm-2.909 4.766l.013 7.007-1.461.845-.02-7.005zm-13.683.881l.043 14.013-1.457.838-.038-14.01zm5.354-6.169l.061 20.72-1.448.84-.063-20.729z"/><path class="p" d="M520.03 246.515c-2.97-.1-4.992 9.524-7.895 17.155l-14.114-6.2a20.37 20.37 0 01-2.322-3.267c-.615-1.314-1.261-1.427-1.55-1.391s.065.9.138 1.489c.047.607 1.014 1.737.253 1.588s-4.27-2.178-5.171-1.5c-.411.318-1.139.083 1.08 2.568a14.329 14.329 0 005.652 3.4c6.734 6.5 16.276 10.4 16.276 10.4v-.006a4.117 4.117 0 002.232-.116c4.726-3.752 7.222-11.433 8.168-18.6.674-5.118-2.747-5.52-2.747-5.52z"/><path class="q" d="M518.892 246.009c1.534-.464 4.455-.1 4.455 4.59s-.154 6.307-1.751 10.127c-.78 1.891-6.431 1.028-7.92-2.049-.861-1.796 2.157-11.74 5.216-12.668z"/><path d="M484.37 339.606c-11.248 6.493-11.323 17.038-.129 23.532 11.175 6.5 29.36 6.5 40.615 0s11.306-17.039.131-23.516c-11.194-6.513-29.372-6.513-40.617-.016z" opacity=".1"/><path class="s" d="M508.803 339.999s-2.781.411-2.1 2.006c.666 1.61 3.863 4.039 4.272 5.051.431 1.005 3.036 4.626 3.869 4.3.856-.346 3.036.165 2.774-3.96s-5.112-7.577-8.815-7.397zm-5.302 15.133s1.347 3.951-2.015 4.878-2.36-1.175-9.675.68-8.16-1.943-8-2.779 5.056-2.363 6.662-2.779a582.039 582.039 0 014.617-1.176h8.679z"/><path class="t" d="M517.322 285.724s.041 23.878.041 26.569 3.008 23.87 1.208 33.13c0 0-5.214 5.216-9.811 0 0 0-1.479-26.532-2.808-32.514s-.89-24.3-.89-24.3z"/><path class="t" d="M508.196 289.111s-1.186 15.426-2.411 30.706c0 0-.786 30.35-1.491 34.724 0 0-9.786 2.435-10.769-2.183 0 0 .258-26.712 0-32.294-.235-5.578-.815-21.145 1.394-30.133s13.277-.82 13.277-.82z"/><path class="u" d="M504.294 354.541c.7-4.374 1.491-34.724 1.491-34.724a8379.752 8379.752 0 002.06-26.3l-6.045 1.482s-4.353 11.442-3.686 28.6c.517 13.281.729 26.336.795 31.576a24.759 24.759 0 005.385-.634zm14.277-9.118c1.8-9.26-1.208-30.449-1.208-33.13 0-2.569-.037-24.341-.041-26.4l-5.255 4.042s-1.653 17.071 0 26.794c1.523 8.86.552 26.08 1.286 31.023a8.341 8.341 0 005.218-2.329z"/><path class="v" d="M519.879 245.186s4.489 2.356 1.762 10.021-4.631 12.612-4.545 15.492.96 12.578 1.531 14.553c0 0 .635 6.368-13.951 9.86 0 0-11.973.965-9.847-6.856s3.126-20.5 2.878-23.534c-.233-3.036-1.934-9.118 5.713-13.051s11.64-6.88 16.459-6.485z"/><path class="q" d="M497.707 264.718c.248 3.031-.759 15.711-2.878 23.534-1.471 5.433 3.822 6.626 7.224 6.841 1.15-3.484-.555-9.78 2.117-17.39 3.285-9.405 2.975-15.671 1.4-20.756-1.008-3.283-2.98-3.414-4.365-3.9-5.064 3.864-3.71 8.969-3.498 11.671z"/><path class="v" d="M518.627 285.248c-.571-1.975-1.432-11.679-1.531-14.553s1.888-7.812 4.545-15.488c2.521-7.269-.217-9.235-1.762-10.021-.868 3.773-14 5.1-13.748 7.64.309 2.822 3.756 5.524 3.856 10.568a74.049 74.049 0 01-1.658 16.2c-.823 3.233-.592 11.076.072 14.454 10.748-3.566 10.226-8.8 10.226-8.8z"/><path class="p" d="M514.584 241.272s-.565 4.02.77 6.569c1.218 2.318-8.315 4.217-8.5 2.087a9.133 9.133 0 00-.341-7.814c-1.153-2.178 8.071-.842 8.071-.842z"/><path class="w" d="M515.309 247.979a11.883 11.883 0 01-.836-5.86l-7 3.3v.02c.262.061 4.907 1.342 5.851 4.737 1.445-.562 2.419-1.348 1.985-2.197z"/><path class="p" d="M504.805 230.37a17.378 17.378 0 00-1.32 6.783c.251 3.4-.278 4.078-.092 5.589a3.684 3.684 0 00.732 2.234c1.034 1.033 3.187 1.442 6.124.441 3.544-1.229 7.371-6.009 5.955-10.41s-6.012-8.094-11.399-4.637z"/><path class="x" d="M515.944 239.726c-1.335-3.96-4.753-8.747-4.712-9a12.185 12.185 0 00-2.445-1.71 8 8 0 00-3.982 1.358 19.482 19.482 0 00-.786 2.347c.829.953 2.523 2.06 2.774 2.859a10.266 10.266 0 01-.427 6c-.581 1.247 1.64 3.136 1.156 4.252a.173.173 0 00-.025.144 10.1 10.1 0 002.752-.555 10.278 10.278 0 005.695-5.695z"/><path d="M501.179 229.012a29.588 29.588 0 005.1 4.536c1.762 1.073 1.608 3.933 1.506 4.489s-.693 3.076-.472 3.395c.425.626 1.909-1.279 2.6-1.134 1.753.373 1.024 2-.609 3.687-1.731 1.795 2.724 2.625 4.82 1.165 1.118-.777 1.523-1.249 3.032-4.093 2.178-4.145 2.383-9.163-2.51-11.948s-11.597-1.139-13.467-.097z" fill="#221101"/><path d="M514.125 245.15a7.936 7.936 0 003.459-3.908c2.182-4.141 2.706-11.137-2.9-13.025-5.338-1.8-12.337-.2-13.509.795 0 0 3.305.987 3.411 1.71 1.556.289 5.026.6 6.1 2.471 1.321 2.291 2.846 1.6 2.672 4.407-.165 2.716.468 6.292-4.125 7.74 1.68 1.242 4.081.375 4.892-.19z" fill="#341c09"/><path class="aa" d="M507.412 248.679l-3.14 2.546s9.569 2.95 12.481-1.715a2.75 2.75 0 00-1.7-3.352s-.406 3.831-7.641 2.521z"/><path class="p" d="M501.789 253.547c-2.975-.088-5 9.526-7.9 17.164l-14.116-6.212a19.881 19.881 0 01-2.316-3.259c-.621-1.3-1.269-1.424-1.559-1.383s.088.895.131 1.489 1.024 1.73.26 1.572-4.267-2.166-5.171-1.484c-.413.309-1.12.081 1.067 2.568a14.715 14.715 0 005.675 3.391c6.723 6.5 16.272 10.4 16.272 10.4v-.005a4.144 4.144 0 002.234-.126c4.715-3.75 7.211-11.428 8.155-18.589.674-5.119-2.732-5.526-2.732-5.526z"/><path class="v" d="M500.646 253.043c1.534-.461 4.457-.108 4.457 4.588s-.154 6.3-1.749 10.132c-.777 1.895-6.438 1.019-7.929-2.058-.851-1.789 2.169-11.738 5.221-12.662z"/><path d="M0 299.904l68.46 38.058c4.332 2.394 13.025 2.038 17.4-.375 30.258-16.724 119.426-66.488 119.426-66.488 4.379-2.438 4.4-6.33.07-8.73l-69.2-38.474z"/><path class="l" d="M74.2 341.199l-.34-119.095-4.569-2.659.338 119.1a3.1 3.1 0 001.294 2.83q2.285 1.329 4.57 2.654a3.1 3.1 0 01-1.293-2.83z"/><path class="l" d="M73.86 222.104l-4.569-2.659-.047-16.111 4.576 2.665z"/><path class="m" d="M247.96 121.605L73.86 222.104l.34 119.095c.015 2.816 1.995 3.936 4.43 2.532l165.264-95.432a9.667 9.667 0 004.4-7.6z"/><path d="M243.48 102.976c2.432-1.41 4.419-.282 4.422 2.518l.054 16.111L73.86 222.104l-.04-16.105a9.714 9.714 0 014.4-7.613z" fill="#70d8e5"/><path class="l" d="M244.451 102.537a3.223 3.223 0 01.719-.149.164.164 0 01.06-.014 2.486 2.486 0 01.724.042h.018a2.089 2.089 0 01.653.253c-.008-.011-.025-.011-.032-.024l-4.573-2.646a1.478 1.478 0 00-.229-.113c-.076-.028-.146-.061-.225-.086a.759.759 0 01-.152-.03.061.061 0 01-.044-.011c-.019 0-.029-.011-.052-.011a1.242 1.242 0 00-.262-.025 1.66 1.66 0 00-.3-.019.155.155 0 01-.088.019h-.083c-.048.014-.093.014-.146.025a7.228 7.228 0 00-.395.077c-.055.02-.113.047-.161.061a1.257 1.257 0 00-.161.061 1.3 1.3 0 00-.192.058c-.194.093-.416.19-.621.306l-165.27 95.416a7.947 7.947 0 00-.819.573c-.091.078-.187.169-.28.246-.124.107-.248.207-.36.32a2.062 2.062 0 00-.165.176c-.054.053-.108.114-.164.166s-.1.116-.149.171c-.127.149-.254.289-.366.439-.048.052-.081.107-.128.165a.237.237 0 01-.059.077c-.035.053-.075.1-.108.16-.1.127-.164.251-.263.375-.068.124-.141.246-.221.384 0 .005-.012.019-.021.03a.074.074 0 01-.026.019 3.37 3.37 0 01-.158.312c-.061.135-.142.256-.2.378s-.1.229-.139.345c-.014 0-.014.016-.014.019s-.014.011-.014.022c-.053.13-.11.262-.154.392a3.033 3.033 0 00-.16.419 1.408 1.408 0 00-.054.2c-.007.038-.032.074-.038.1-.017.044-.023.1-.047.151-.042.169-.089.337-.116.505-.026.1-.033.2-.061.3a1 1 0 01-.026.155c0 .05-.018.1-.021.154a6.649 6.649 0 00-.06.855L73.823 206a6.6 6.6 0 01.093-1.015c0-.052.012-.1.019-.155.061-.317.134-.639.229-.962.01-.03.01-.063.028-.083a8.286 8.286 0 01.384-1.034.051.051 0 01.016-.047 9.733 9.733 0 01.507-1c.007-.017.021-.03.023-.041a10.525 10.525 0 01.613-.941c.016-.031.048-.055.054-.088.214-.268.43-.53.642-.773.054-.047.1-.1.148-.151.189-.185.375-.356.576-.522.075-.077.157-.146.24-.223a8.6 8.6 0 01.832-.574l165.26-95.41a4.337 4.337 0 01.808-.373.86.86 0 01.156-.071z"/><path class="m" d="M84.775 209.684a8.856 8.856 0 004.021-6.965c0-2.567-1.816-3.585-4.05-2.3a8.833 8.833 0 00-4.024 6.945c.005 2.576 1.831 3.594 4.053 2.317zm12.219-7.078a8.868 8.868 0 004.03-6.961c-.01-2.563-1.822-3.589-4.06-2.3a8.88 8.88 0 00-4.027 6.953c.018 2.56 1.843 3.592 4.057 2.306zm11.917-6.907a8.9 8.9 0 004.034-6.973c-.013-2.552-1.829-3.58-4.066-2.29a8.862 8.862 0 00-4.019 6.955c0 2.56 1.83 3.586 4.051 2.309z"/><path class="b" d="M64.11 273.841l.06 19.639-4.565 2.634-.059-19.639zm-18.204 10.522l.047 19.639-4.529 2.623-.047-19.647zm42.48-24.523l.059 19.63-4.563 2.629-.054-19.639zm-9.152-6.941l.125 43.572-4.544 2.618-.125-43.575zm-24.245 14l.113 43.572-4.555 2.631-.116-43.583zm16.653-19.228l.178 64.479-4.528 2.626-.186-64.5zm163.874-73.672l.074 19.675-4.577 2.629-.059-19.672zm-18.204 10.516l.061 19.674-4.573 2.634-.045-19.669zm42.474-24.524l.06 19.672-4.562 2.628-.054-19.664zm-9.145-6.939l.11 43.572-4.514 2.62-.139-43.569zm-24.281 14.011l.132 43.578-4.545 2.623-.126-43.583zm16.654-19.2l.188 64.471-4.5 2.6-.187-64.469zm25.87 7.757l.084 30.492-4.556 2.637-.091-30.492zm24.27-14.012l.051 19.63-4.555 2.632-.051-19.625zm-9.146-6.94l.109 43.569-4.529 2.623-.117-43.577zm-7.603-5.232l.189 64.5-4.529 2.62-.177-64.5zM106.517 231.891l.1 37.087-4.529 2.612-.094-37.082zm24.33 3.431l.1 37.454-4.533 2.62-.113-37.463zm-9.132-6.959l.121 43.58-4.554 2.634-.131-43.586zm27.275-25.364l.1 41.445-4.545 2.634-.123-41.454zm-9.063 14.852l.131 43.569-4.576 2.642-.117-43.578zM97.44 242.383l.125 43.569-4.555 2.647-.135-43.586zm16.661-19.228l.185 64.488-4.519 2.615-.174-64.51zm53.168-8.87l.045 19.639-4.547 2.643-.063-19.636zm24.258-14.007l.124 37.457-4.568 2.634-.114-37.46zm-9.152-6.936l.131 43.577-4.53 2.615-.123-43.575zm27.346-3.556l.052 19.639-4.532 2.606-.063-19.644zm-9.067 14.813l.052 21.8-4.551 2.634-.06-21.8zm-42.547 2.76l.126 43.572-4.528 2.609-.138-43.58zm16.653-19.247l.192 64.507-4.519 2.609-.167-64.5z"/><g class="c"><path class="d" d="M188.16 340.643c18.083 10.437 47.3 10.437 65.271-.006s17.867-27.367-.208-37.8c-18.094-10.442-47.3-10.442-65.282 0-17.956 10.432-17.86 27.359.219 37.8"/><path class="e" d="M182.444 324.26c21.261 11.758 55.609 11.758 76.736 0s21.005-30.832-.246-42.584c-21.269-11.764-55.614-11.764-76.745 0-21.113 11.752-21 30.823.255 42.589"/><path class="f" d="M176.731 307.877c24.438 13.079 63.919 13.079 88.2 0s24.144-34.3-.284-47.369c-24.443-13.085-63.922-13.085-88.206 0s-24.138 34.286.291 47.373"/><path class="g" d="M171.017 291.494c27.615 14.4 72.23 14.4 99.664 0s27.282-37.761-.322-52.155-72.231-14.406-99.669 0-27.277 37.75.327 52.158"/><path class="h" d="M165.303 275.111c30.793 15.721 80.541 15.721 111.128 0s30.421-41.225-.36-56.94-80.538-15.727-111.13 0-30.416 41.213.362 56.942"/><path class="i" d="M159.59 258.728c33.97 17.043 88.851 17.043 122.592 0s33.558-44.69-.4-61.725-88.847-17.049-122.593 0-33.555 44.676.4 61.726"/><path class="j" d="M153.876 242.344c37.148 18.365 97.162 18.365 134.056 0s36.7-48.153-.436-66.509-97.155-18.37-134.054 0-36.695 48.14.434 66.509"/></g><path d="M245.96 308.633c12.75 7.354 12.82 19.289.162 26.648s-33.269 7.353-46.013 0-12.818-19.294-.15-26.65 33.254-7.351 46.001.002z"/><path class="p" d="M213.774 189.452s-1.094-4.548-1.7-5.356c-.589-.808-3.05-4.295-6.517-4.444-1.863-.091-.59 1.7 1.38 3.658.9.871 1.748 1.326 1.77 3.447a14.316 14.316 0 001.2 4.825c.483 1.031 3.867-2.13 3.867-2.13z"/><path class="x" d="M209.77 191.399c-.484-1.018-.941-3.263-2-4.38-1.245-1.355.059-2.836-.838-3.707-1.533-1.52-2.632-3-2.168-3.5 1.077 1.236 3.205.527 4.875 4.449a26.331 26.331 0 011.355 6.918c-.811.4-1.034.626-1.224.22z"/><path class="q" d="M245.233 206.429s.35 5.826-7.211 4.747-21.393-4.752-23.516-8.051-5.047-12.545-5.047-12.545 3.69.726 4.657-2.341l7.279 10.991s23.689 3.117 23.838 7.199z"/><path class="p" d="M211.155 191.035s-3.722-3.718-4.692-5.017-1.105-2.593-.7-2.521c.387.061 3.436 3.721 4.4 2.312.515-.742.572 4.57.992 5.226z"/><path class="s" d="M224.993 321.36s2.506 4.008-.975 4.967-2.427-1.219-9.992.69-6.68-2.342-6.508-3.224c.17-.861 3.462-2.077 5.114-2.516s8.258-1.955 8.258-1.955l4.044.744zm4.583-11.11s-2.888.435-2.187 2.1 4.035 4.207 4.462 5.274c.443 1.051 3.108 4.311 4.039 4.471 1.568.271 3.169.182 2.9-4.129s-5.351-7.907-9.214-7.716z"/><path class="p" d="M242.032 236.787s5.62 8.343 1.961 22.424c0 0-6.3 21.252-5.166 25.431 1.115 4.168 5.489 9.359 2.432 22.8 0 0-2.352 7.925-2.541 10.134-.2 2.262-3.94 2.474-4.49-.063-1.174-5.379-.288-13.389-1.108-17.366-2.66-13.027-4.047-19.827-3.2-28.689s-.184-28.942-.184-28.942 10.044 1.048 12.296-5.729z"/><path class="p" d="M235.734 241.848s4.832 8.84-.119 22.513c0 0-8.251 20.576-7.515 24.838s4.223 7.031.295 22.937c0 0-3.208 7.657-3.45 9.856-.407 3.5-3.936 3.935-4.31 1.368-.763-5.23.784-15.2.348-19.247-1.433-13.215-2.2-20.114-.528-28.857s2.508-28.84 2.508-28.84 9.897 1.983 12.771-4.568z"/><path class="v" d="M221.78 212.773s15.77-15.487 21.12-10.98c0 0 4.787 3.66 2.823 16.323s-5.073 14.928-1.978 22.526c0 0-6.2 12.4-21.965 6.764 0 0 2.424-12.558.565-16.277-4.641-9.276-4.932-14.028-1.19-17.622z"/><path class="ac" d="M243.745 240.642s6.627 5.622 3.565 25.2c-2.077 13.258-.059 39.553-.059 39.553s-16.668 10.335-30.174 4.134c0 0-.556-25.6.947-41.93s3.756-20.2 3.756-20.2 12.205 5.33 21.965-6.757z"/><path class="s" d="M219.506 320.464s2.031 4.338 5.528.965c0 0 .555 4.634-2.761 4.027s-4.647-4.036-2.767-4.992z"/><path class="p" d="M193.093 224.438s-3.793-.086-5.132-1.691-3.163-3.274-3.6-4.774-.14-2.036 1.055-1.741a21.248 21.248 0 016.059 3.771 4.667 4.667 0 002.585 1.496c.566.208 1.013 2.128-.967 2.939z"/><path class="p" d="M194.06 221.499a4.667 4.667 0 01-2.584-1.495 21.248 21.248 0 00-6.059-3.771 1.748 1.748 0 00-.447-.074c.96.981 2.581 2.656 4.036 4.085a11.533 11.533 0 005.5 2.612c.109-.652-.146-1.248-.446-1.357z"/><path class="q" d="M226.332 215.038c-1.066-1.473-3.806-2.952-7.313.394s-13.19 12.768-13.19 12.768-11.174-6.752-12.578-7.334a2.623 2.623 0 01-1.19 3.588s9.211 11.251 13.544 10.846c4.312-.419 25.107-14.191 20.727-20.262z"/><path class="p" d="M193.589 221.751s-2.2-3.417-3.034-4.349c-.814-.93-1.775-1.25-1.792-.935s2.264 3.205 1.043 3.7c-.646.263 3.354 1.16 3.783 1.584zm32.954-18.48l-.6 7.207s6.616 3.616 11.315-2.093l-.777-7.765a16.754 16.754 0 01-9.938 2.651z"/><path class="ad" d="M229.177 181.44c-2.2.2-4.773.543-7.823 4.164-3.394 4.025-3.644 8.3-.679 14.029 3.156 6.09-.594 14.481-1.939 15.7s16.54.836 23.468-9.5c0-.002 3.276-25.908-13.027-24.393z"/><path class="s" d="M217.615 320.464s1.891-.607 2.193-3.986c0 0 2.3 1.644 6.606.692 0 0 .178 6.339-.809 8.038 0 0-8.976-1.327-7.99-4.744zm16.137-6.309s2.688 3.525 5.188 2.058c0 0-.092 3.053-.165 3.561s-2.782 1.332-3.838.179a8.057 8.057 0 01-1.185-5.798z"/><path class="l" d="M331.328 410.028l-3.393-1.971c.181-.532 3.553-10.742 1.221-16.2l3.39 1.973c2.332 5.456-1.039 15.669-1.218 16.198zm8.866-63.856c.168.1.339.2.506.294l2.887 1.68c-1.034-.6-2.464-.515-4.041.393l-3.395-1.973c1.582-.911 3.009-.994 4.043-.394zm-43.019 66.136l-3.4-1.973a3.984 3.984 0 01-1.653-3.64l3.393 1.971a3.977 3.977 0 001.66 3.642z"/><path class="l" d="M295.52 408.666l-3.393-1.967-.076-28.11 3.387 1.971zm5.594-37.939l-3.393-1.971 38.43-22.19 3.4 1.973z"/><path class="l" d="M295.438 380.556l-3.387-1.97a12.48 12.48 0 015.67-9.83l3.393 1.971a12.5 12.5 0 00-5.676 9.829z"/><path class="m" d="M339.546 348.539c3.144-1.815 5.689-.351 5.7 3.262l.076 28.107c-.026.9-.551 18-14 30.12.179-.533 3.55-10.742 1.218-16.2l-31.314 18.074c-3.144 1.818-5.705.375-5.712-3.241l-.082-28.11a12.5 12.5 0 015.676-9.829z"/><path d="M333.671 360.699c1.126-.649 2.052-.142 2.055 1.17a4.525 4.525 0 01-2.044 3.539l-26.586 15.348c-1.133.655-2.052.128-2.06-1.168a4.5 4.5 0 012.044-3.535zm0 9.621c1.126-.651 2.052-.134 2.055 1.176a4.516 4.516 0 01-2.044 3.534l-26.586 15.348c-1.133.655-2.052.128-2.06-1.168a4.5 4.5 0 012.044-3.535zm0 9.627c1.126-.656 2.052-.139 2.055 1.171a4.509 4.509 0 01-2.044 3.534l-26.586 15.355c-1.133.648-2.052.118-2.06-1.17a4.5 4.5 0 012.044-3.54z" fill="#d66767"/><g style="isolation:isolate;mix-blend-mode:overlay" opacity=".8"><path class="ag" d="M195.675 482.214a40.163 40.163 0 11-40.162-40.164 40.163 40.163 0 0140.162 40.164z"/><path class="ah" d="M189.643 482.346a34.09 34.09 0 11-34.089-34.091 34.089 34.089 0 0134.089 34.091z"/><path class="ai" d="M183.612 482.477a28.017 28.017 0 11-28.017-28.017 28.017 28.017 0 0128.017 28.017z"/><path class="aj" d="M177.58 482.609a21.943 21.943 0 11-21.943-21.944 21.944 21.944 0 0121.943 21.944z"/><path class="ak" d="M171.549 482.741a15.87 15.87 0 11-15.871-15.871 15.871 15.871 0 0115.871 15.871z"/><path class="al" d="M165.517 482.872a9.8 9.8 0 11-9.8-9.8 9.8 9.8 0 019.8 9.8z"/><path class="am" d="M159.486 482.999a3.723 3.723 0 11-3.726-3.724 3.725 3.725 0 013.726 3.724z"/></g><g style="isolation:isolate;mix-blend-mode:overlay" opacity=".14"><path class="ag" d="M225.994 554.109a40.165 40.165 0 11-40.164-40.161 40.163 40.163 0 0140.164 40.161z"/><path class="ah" d="M219.96 554.241a34.092 34.092 0 11-34.091-34.089 34.09 34.09 0 0134.091 34.089z"/><path class="ai" d="M213.931 554.373a28.02 28.02 0 11-28.018-28.016 28.017 28.017 0 0128.018 28.016z"/><path class="aj" d="M207.899 554.505a21.946 21.946 0 11-21.944-21.943 21.944 21.944 0 0121.944 21.943z"/><path class="ak" d="M201.868 554.637a15.874 15.874 0 11-15.872-15.871 15.871 15.871 0 0115.872 15.871z"/><path class="al" d="M195.837 554.77a9.8 9.8 0 11-9.8-9.8 9.8 9.8 0 019.8 9.8z"/><path class="am" d="M189.805 554.899a3.727 3.727 0 11-3.726-3.726 3.725 3.725 0 013.726 3.726z"/></g><path d="M141.893 502.652l112.694-64.38a11.839 11.839 0 0110.745.055l150.7 88.5c2.958 1.745 2.926 4.524-.068 6.232l-112.675 64.368a11.808 11.808 0 01-10.748-.044l-150.7-88.51c-2.961-1.732-2.932-4.521.052-6.221z" opacity=".2"/><path d="M155.521 484.106l-.01 7.741 107.307-61.3.016-7.727z" fill="#778489"/><path d="M262.834 422.814l-.016 7.727L390.86 505.74l.005-7.727z" fill="#abbec5"/><g clip-path="url(#a)" transform="translate(-363.14 -360.301)"><g class="ar"><path d="M706.908 894.062l-.021 7.724c0-1.159.784-2.324 2.333-3.206a7.872 7.872 0 011.133-.533v-7.738a8.374 8.374 0 00-1.128.544 3.9 3.9 0 00-2.322 3.209z" fill="#738085"/><path d="M710.358 890.309v7.738c.307-.12.625-.23.947-.32l.011-7.73a8.6 8.6 0 00-.953.312z" fill="#78858a"/><path d="M711.311 890l-.011 7.73c.268-.071.544-.144.816-.2l.019-7.725a7.878 7.878 0 00-.824.194z" fill="#7c8a8f"/><path class="aw" d="M712.135 889.8l-.019 7.725c.266-.047.523-.1.788-.131l.015-7.733a7.832 7.832 0 00-.784.139z"/><path class="ax" d="M712.919 889.664l-.019 7.736c.251-.029.508-.061.768-.081l.006-7.728c-.25.018-.512.045-.759.076z"/><path class="ay" d="M713.678 889.588l-.006 7.728c.247-.019.509-.032.769-.035l.011-7.74c-.255.01-.512.021-.774.047z"/><path class="az" d="M714.452 889.541l-.011 7.74c.273-.005.525-.005.8 0l.016-7.733c-.273-.01-.538-.01-.8-.01z"/><path class="ba" d="M715.257 889.551l-.016 7.733c.292.013.586.037.866.065l.021-7.735a24.428 24.428 0 00-.871-.063z"/><path class="bb" d="M716.128 889.614l-.021 7.735c.349.029.667.084 1 .132l.016-7.722a10.242 10.242 0 00-.995-.145z"/><path class="bc" d="M717.123 889.759l-.016 7.722a12.186 12.186 0 011.472.388l.016-7.733a10.073 10.073 0 00-1.472-.377z"/><path d="M718.595 890.136l-.016 7.733a8.471 8.471 0 011.711.758c.026.016.063.032.092.053l.01-7.738a.71.71 0 00-.092-.047 8.025 8.025 0 00-1.705-.759z" fill="#a0b1b8"/><path class="bc" d="M720.392 890.942l-.01 7.738a6.83 6.83 0 01.989.734l.011-7.722a5.281 5.281 0 00-.99-.75z"/><path class="bb" d="M721.382 891.692l-.011 7.722a6.168 6.168 0 01.477.52l.011-7.73a3.412 3.412 0 00-.477-.512z"/><path class="ba" d="M721.859 892.2l-.011 7.73c.124.17.221.32.313.472l.01-7.727a2.525 2.525 0 00-.312-.475z"/><path class="az" d="M722.171 892.679l-.01 7.727a4.456 4.456 0 01.21.447l.01-7.728a2.084 2.084 0 00-.21-.446z"/><path class="ay" d="M722.381 893.125l-.01 7.728a1.819 1.819 0 01.112.435l.021-7.727a2.387 2.387 0 00-.123-.436z"/><path class="ax" d="M722.5 893.561l-.021 7.727a1.78 1.78 0 01.064.464l.012-7.743a4.602 4.602 0 00-.055-.448z"/><path class="aw" d="M722.559 894.009l-.012 7.743v.063l.012-7.743v-.063z"/></g></g><g clip-path="url(#b)" transform="translate(-363.14 -360.301)"><g class="ar"><path class="bf" d="M706.908 894.062l-.021 7.724a.2.2 0 00.01.077l.011-7.733v-.068z"/><path class="bg" d="M706.908 894.13l-.011 7.733a2.792 2.792 0 00.043.456l.015-7.746a2.039 2.039 0 01-.047-.443z"/><path class="bh" d="M706.955 894.573l-.015 7.746a4.122 4.122 0 00.128.436l.013-7.738a3.065 3.065 0 01-.126-.444z"/><path class="bi" d="M707.081 895.017l-.013 7.738a2.711 2.711 0 00.205.446l.021-7.733a2.132 2.132 0 01-.213-.451z"/><path class="bj" d="M707.294 895.468l-.021 7.733a3.275 3.275 0 00.307.472l.021-7.738a2.652 2.652 0 01-.307-.467z"/><path class="bk" d="M707.6 895.935l-.021 7.738a5.139 5.139 0 00.49.528l.011-7.736a5.226 5.226 0 01-.48-.53z"/><path class="bl" d="M708.081 896.465l-.011 7.736a6.385 6.385 0 00.984.726l.016-7.727a6.375 6.375 0 01-.989-.735z"/><path d="M709.07 897.2l-.016 7.727a.355.355 0 00.095.061 9.664 9.664 0 001.705.766l.021-7.738a10.594 10.594 0 01-1.716-.756c-.031-.023-.063-.042-.089-.06z" fill="#44849f"/><path class="bl" d="M710.875 898.016l-.021 7.738a10.407 10.407 0 001.493.362v-7.733a9.112 9.112 0 01-1.475-.367z"/><path class="bk" d="M712.35 898.383v7.733a7.6 7.6 0 00.992.149l.011-7.735a10.049 10.049 0 01-1-.147z"/><path class="bj" d="M713.35 898.53l-.011 7.735c.294.021.575.056.869.066l.008-7.733c-.3-.01-.583-.031-.866-.068z"/><path class="bi" d="M714.216 898.6l-.008 7.733c.265.011.532.011.792.011l.021-7.738c-.265 0-.533 0-.8-.006z"/><path class="bh" d="M715.021 898.6l-.021 7.742c.257-.011.514-.029.764-.04l.021-7.738c-.247.024-.512.04-.764.04z"/><path class="bg" d="M715.785 898.564l-.021 7.738c.262-.026.519-.052.768-.092l.011-7.724c-.242.036-.5.055-.758.078z"/><path class="bf" d="M716.543 898.486l-.011 7.724c.263-.031.525-.078.785-.118l.005-7.735c-.252.047-.506.092-.779.129z"/><path d="M717.322 898.357l-.005 7.735c.268-.068.543-.123.811-.2l.016-7.736c-.273.074-.544.142-.822.2z" fill="#35667c"/><path d="M718.144 898.16l-.016 7.736c.322-.1.645-.2.952-.318l.021-7.738a9.183 9.183 0 01-.957.32z" fill="#336377"/><path d="M719.1 897.84l-.021 7.738a8.873 8.873 0 001.134-.538c1.543-.892 2.333-2.057 2.333-3.225l.012-7.743a3.946 3.946 0 01-2.34 3.235 8.837 8.837 0 01-1.118.533z" fill="#315f73"/></g></g><path d="M283.576 559.305l-.018 7.735 107.302-61.3.005-7.727z" fill="#336277"/><path d="M346.095 530.552c-3.08 1.755-3.111 4.615-.076 6.407a12.191 12.191 0 0011.06.047c3.075-1.752 3.12-4.638.081-6.412a12.174 12.174 0 00-11.065-.042z" fill="#68daea"/><path d="M155.521 484.106l-.01 7.741L283.56 567.04l.018-7.735z" fill="#498dab"/><path d="M518.661 844.407l128.055 75.2 107.294-61.293-128.036-75.2z" fill="url(#c)" transform="translate(-363.14 -360.301)"/><path d="M185.827 482.899l94.988 55.776 79.586-45.464-94.972-55.779z" fill="#def6ff"/><path class="l" d="M246.253 463.631l26.961 15.83 22.571-12.9-26.937-15.825zM140.688 484.46c.011.021.011.055.021.068a2.613 2.613 0 00.365.717c.024.042.05.073.071.118a4.119 4.119 0 00.6.671c.166.142.37.287.559.428.15.1.283.213.441.31l150.72 88.515-.021 7.722-150.701-88.51c-.034-.018-.061-.037-.1-.058a2.744 2.744 0 01-.349-.257 4.565 4.565 0 01-.558-.42c-.013-.013-.04-.026-.045-.034a5.06 5.06 0 01-.472-.506.712.712 0 01-.076-.129.491.491 0 01-.092-.121c-.047-.076-.1-.147-.139-.207a3.775 3.775 0 01-.2-.436.3.3 0 00-.015-.068.424.424 0 01-.026-.081 1.7 1.7 0 01-.077-.281 3.109 3.109 0 01-.047-.435l.005-7.725v-.079a2.71 2.71 0 00.136.798z"/><path d="M255.51 416.176a11.832 11.832 0 0110.742.047l150.715 88.509c2.952 1.732 2.913 4.521-.076 6.217l-112.676 64.382a11.877 11.877 0 01-10.747-.044l-150.72-88.515c-2.947-1.737-2.926-4.521.068-6.227zm28.066 143.129l107.294-61.292-128.036-75.2-107.313 61.293 128.055 75.2zm73.5-22.3c3.075-1.752 3.12-4.638.081-6.412a12.184 12.184 0 00-11.07-.042c-3.075 1.755-3.106 4.615-.071 6.407a12.191 12.191 0 0011.06.047z" fill="#d4fafc"/><path class="l" d="M293.468 575.287a7.609 7.609 0 001.493.65 6.007 6.007 0 00.572.184 7.676 7.676 0 00.755.192c.3.07.614.115.921.162a2.154 2.154 0 00.231.032c.42.05.84.073 1.262.081h.226a11.769 11.769 0 001.254-.068 1.8 1.8 0 00.189-.013c.4-.047.806-.118 1.21-.2.084-.026.165-.041.241-.063a8.145 8.145 0 001.016-.307c.07-.029.144-.041.22-.065a9.254 9.254 0 001.157-.541l112.676-64.382a3.765 3.765 0 002.264-3.112c-.005 2.574-.01 5.161-.01 7.729a3.787 3.787 0 01-2.259 3.126l-112.689 64.364a8.856 8.856 0 01-1.1.533c-.016 0-.037.01-.058.01-.066.026-.129.042-.2.071-.221.079-.431.16-.661.22-.129.037-.252.061-.376.09a1.067 1.067 0 01-.231.044 1.153 1.153 0 01-.194.058 7.527 7.527 0 01-.748.123c-.086.013-.194.024-.275.034a1.2 1.2 0 00-.187.021c-.091.011-.188.024-.275.027-.252.021-.5.039-.753.042a1.175 1.175 0 01-.236-.011 1.119 1.119 0 01-.192 0c-.113 0-.233.011-.346 0-.289-.021-.559-.031-.848-.058-.029 0-.065-.01-.1-.01a1.915 1.915 0 00-.21-.034c-.215-.021-.435-.06-.661-.1-.1-.018-.168-.05-.265-.071-.257-.055-.509-.126-.758-.191a4.025 4.025 0 01-.407-.1c-.065-.026-.113-.053-.178-.084a8.022 8.022 0 01-1.493-.661zm-86.833-87.388l4.085 2.393 36.42-20.642-4.217-2.477zm11.172 6.4l4.085 2.4 36.417-20.645-4.219-2.477zm9.971 6.71l4.078 2.4 36.417-20.645-4.214-2.477zm118.317 30.335c-3.08 1.758-3.111 4.621-.076 6.408a12.176 12.176 0 0011.06.047c3.075-1.758 3.12-4.639.081-6.408a12.186 12.186 0 00-11.065-.047z"/><path class="b" d="M221.499 454.246c-13.943 8.047 36.617 22.424 26.043 33.153a26.065 26.065 0 01-5.574 4.392c-11.8 6.815-22.337-1.965-31.027 3.055-9.7 5.6 9.427 18.249 1.222 22.99a8.451 8.451 0 01-.942.457c-9.356 3.849-24.7.564-32.093 4.83-8.425 4.865 8.958 13.954 1 18.551-1.642.948-4.355 1.706-8.587 2.194a22.459 22.459 0 00-8.762 2.692c-7.056 4.072-7.245 10.622-7.255 10.968.415-.22 8.3-4.44 17.431-9.711 6.966-4.02 18.367-3.878 25.984-3.55 5.445.236 8.777-.394 10.847-1.587 3.383-1.95 3.388-5.419 3.724-9.071s1.015-7.513 5.751-10.247a25.691 25.691 0 018.4-2.752c10.028-1.771 22.51 7.8 35.228.462 8.4-4.849 5.978-11.155 4.005-19.068-1.089-4.33-.441-7.72 2.287-9.3 2.43-1.4 6.513-1.354 12.485.769 10.824 3.852 23.245 11.419 29.026 8.079a5.581 5.581 0 002.319-2.692c4.065-9.139-14.345-17.84-4.489-24 .212-.134.42-.257.63-.38 13.337-7.7 29.435 2.931 42.719-1.517a23.906 23.906 0 004.264-1.821c5.429-3.141 3.005-6.864-1.724-12.39-4.626-5.379-6.6-11.417.6-15.578a27.426 27.426 0 016.612-2.566 26.677 26.677 0 006.537-2.609c3.542-2.047 5.641-4.594 7.754-7.15a27.874 27.874 0 017.845-7.208 24.8 24.8 0 012.745-1.351c1.766-.745 2.629-1.113 2.791-1.21.945-.543-20.946 8.006-26.564 8.785-5.478.758-15.224-.226-21.448 3.366a10.888 10.888 0 00-4.348 4.45c-3.348 6.45-2.479 10.465-6.509 12.789a18.582 18.582 0 01-6.662 1.9c-11.876 1.661-33.888-9.242-45.376-3.073-10.981 6.329 4.34 11.677-1.317 16.342-6.859 3.988-42.111-19.168-55.572-11.393z"/><path class="s" d="M364.974 565.872s-3.314 1.055-2.125 2.75 5.675 3.834 6.423 4.9 4.771 4.691 5.728 4.127 3.753-.449 2.511-5.127-8.034-7.623-12.537-6.65z"/><path class="ac" d="M377.46 498.509s4.919 8.078 2.185 20.219-1.915 29.189-1.915 29.189 2.151 21.8.317 25.751a9.835 9.835 0 01-10.703-.969l-3.637-40.4-1.4-29.671s12.027-1.429 15.153-4.119z"/><path class="bw" d="M363.707 532.299l-1.1-23.274 4.663-.986s2.563 20.918 1.076 25.853c-1.163 3.878 2.4 28.317 2.207 40.511a9.758 9.758 0 01-3.209-1.704z"/><path class="s" d="M338.171 563.358s-1.65 3.469-4.668 2-.9-2.249-7.368-5.568-4.439-6.24-3.883-6.817c1.3-1.326 5.174 1.569 6.6 2.282a38.171 38.171 0 004.763 1.638l5.536 5.843z"/><path class="ac" d="M370.039 501.836s3.678 10.33-2.638 14.518-13.319 11.92-15.035 15.378-11.246 31.283-11.246 31.283-6.761 2.652-11.681-2.259c0 0 7.659-32.624 10.341-36.971s14.686-24.951 14.686-24.951a39.663 39.663 0 0015.573 3.002z"/><path class="bw" d="M329.439 560.756s7.659-32.624 10.341-36.971c2.5-4.062 13.114-22.246 14.523-24.678l4.508 8.365s-8.266 9.525-9.879 12.406c-1.517 2.7-12.191 28.382-14.495 43.6a9.853 9.853 0 01-4.998-2.722z"/><path class="x" d="M376.947 454.634s-5.36-.64-3.206 7.675a82.786 82.786 0 006.916 16.8s4.4 16.612 4.327 19.663a5.515 5.515 0 01-.787 2.724 4.452 4.452 0 00-.359 3.188 4.373 4.373 0 01-.362 2.564.653.653 0 00.758 1.015 3.628 3.628 0 001.3-3.172s.588.811.779 4.857c.079 1.71 1.53 2.246 3.2-.207a11.91 11.91 0 00.155-7.187 17.382 17.382 0 01-.819-5.713c-.1-2.212.31-14.006-2.351-23.565-1.377-4.971-5.08-19.02-9.551-18.642z"/><path class="bx" d="M375.772 454.193c7.281-1.645 13.211 22.684 13.411 29.063 0 0-2.27 1.322-7.759-.076 0 0-14.041-27.108-5.652-28.987z"/><path class="bx" d="M389.183 483.256l.487 15.851s-2.495 1.629-6.137-.105l-2.254-16.675z"/><path class="u" d="M377.126 453.768s5.056.486 2.547 9.722-3.778 19.283-3.439 22.652a109.125 109.125 0 002.967 14.526s.735 7.029-15.793 12.372c0 0-13.741.942-11.936-8.431s1.923-24.378 1.4-27.915-2.981-10.554 5.5-15.818 13.154-7.171 18.754-7.108z"/><path class="bx" d="M352.873 476.694c.522 3.537.4 18.54-1.4 27.915-1.255 6.5 4.941 8.392 8.861 8.368 1.057-4.2.181-12.577 2.634-21.755 3.036-11.327.556-18.485-1.669-24.318-1.438-3.787-3.707-3.771-5.35-4.23-5.53 4.975-3.543 10.865-3.076 14.02z"/><path class="p" d="M372.56 449.426s-.858 4.568.472 7.562c1.226 2.708-9.566 4.324-9.648 1.884a10.589 10.589 0 00.082-8.953c-1.168-2.556 9.094-.493 9.094-.493z"/><path class="w" d="M372.977 457.14c-1.005-2.228-.782-5.313-.6-6.751l-8.03 3.361v.024c.279.086 5.419 1.821 6.277 5.741 1.645-.546 2.791-1.391 2.353-2.375z"/><path class="p" d="M362.238 436.399a20.182 20.182 0 00-1.874 7.681c.079 3.9-.535 4.641-.422 6.37a4.184 4.184 0 00.679 2.606c1.1 1.239 3.474 1.837 6.835.855 4.057-1.191 8.618-6.441 7.282-11.553-1.354-5.115-6.261-9.597-12.5-5.959z"/><path class="x" d="M374.171 447.749c-1.262-4.61-4.825-10.28-4.762-10.566a13.147 13.147 0 00-2.643-2.1 8.845 8.845 0 00-4.528 1.317 22.9 22.9 0 00-1.018 2.64c.871 1.141 2.7 2.5 2.933 3.437a11.971 11.971 0 01-.824 6.828c-.724 1.388 1.669 3.679 1.042 4.917a.371.371 0 00-.032.173 10.869 10.869 0 003.117-.483 11.572 11.572 0 006.715-6.163z"/><path class="ad" d="M361.188 434.599a5.216 5.216 0 002.506 5.516c2 1.188 1.579 4.586 1.433 5.221-.14.62-.961 3.451-.73 3.839.436.751 2.22-1.346 2.986-1.139 1.931.536 1.034 2.349-.892 4.183-2.049 1.942 2.894 3.159 5.327 1.608 1.3-.821 1.786-1.338 3.628-4.5 2.692-4.6 3.215-10.333-2.1-13.786s-8.823.694-12.158-.942z"/><path class="ad" d="M371.818 453.831c1.3-.821 1.786-1.338 3.628-4.5 2.692-4.6 3.215-10.333-2.1-13.786s-8.822.692-12.157-.94a5.134 5.134 0 00-.076 1.436c1.734.422 6.457 1.734 7.549 3.93 1.346 2.7 3.091 1.989 2.731 5.193-.335 3.1.163 7.216-5.069 8.6 1.799 1.526 4.551.671 5.494.067z"/><path class="aa" d="M363.796 457.171l-4.143 2.719s11.023 3.933 14.555-1.225a3.168 3.168 0 00-1.7-3.942s-.677 4.361-8.712 2.448z"/><path class="x" d="M334.897 509.944c.343 2.854.679 3.014 1.351 2.825 3.251-.913 6.058-6.36 6.037-6.958a5.482 5.482 0 01.5-2.69c.047-.1.112-.218.178-.343l-3.393-1.486a13.65 13.65 0 01-2.293 3.107 8.378 8.378 0 00-2.38 5.545z"/><path class="u" d="M358.115 462.432c6.416 2.732-3.311 24.476-6.767 29.567l-8.126 13.153s-2.8-.091-4.565-3.453l7.365-13.613c.296-1.763 4.951-28.687 12.093-25.654z"/><g style="isolation:isolate;mix-blend-mode:overlay" opacity=".265"><path class="d" d="M332.622 603.788c17.194 9.926 44.984 9.926 62.071 0s16.995-26.029-.194-35.953c-17.211-9.923-44.99-9.923-62.085 0s-16.984 26.022.208 35.956"/><path class="e" d="M327.189 588.208c20.216 11.182 52.886 11.182 72.972 0s19.979-29.324-.231-40.5c-20.228-11.181-52.89-11.181-72.983 0s-19.971 29.314.242 40.5"/><path class="f" d="M321.76 572.628c23.239 12.437 60.789 12.437 83.874 0s22.963-32.618-.268-45.053c-23.246-12.438-60.79-12.438-83.883 0s-22.956 32.607.277 45.055"/><path class="g" d="M316.323 557.048c26.262 13.693 68.691 13.693 94.776 0s25.946-35.914-.3-49.6-68.691-13.7-94.783 0-25.941 35.9.312 49.6"/><path class="h" d="M310.89 541.468c29.284 14.949 76.594 14.949 105.677 0s28.931-39.208-.341-54.154-76.592-14.952-105.683 0-28.927 39.194.347 54.155"/><path class="i" d="M305.46 525.888c32.306 16.2 84.5 16.2 116.578 0s31.914-42.5-.378-58.7-84.492-16.21-116.583 0-31.912 42.486.383 58.7"/></g></svg>