<svg width="180" height="180" viewBox="0 0 180 180" fill="none" xmlns="http://www.w3.org/2000/svg">
    <g filter="url(#filter0_d)">
        <circle cx="90" cy="90" r="70" fill="#4D82F7"/>
    </g>
    <path fill-rule="evenodd" clip-rule="evenodd" d="M43.5913 79.0873C42.7894 79.8892 42.8317 81.1914 43.5452 82.0729C45.4637 84.4433 46.6128 87.462 46.6128 90.749C46.6128 93.8133 45.6142 96.6443 43.9245 98.9344C43.2713 99.8198 43.2615 101.073 44.0395 101.851C44.8239 102.635 46.1067 102.638 46.7939 101.767C49.1855 98.7366 50.6128 94.9095 50.6128 90.749C50.6128 86.3001 48.9808 82.2324 46.2827 79.112C45.5815 78.301 44.3494 78.3292 43.5913 79.0873ZM51.4778 106.474C50.7674 107.316 50.7626 108.574 51.5419 109.353C52.3248 110.136 53.6008 110.139 54.3243 109.3C58.6201 104.323 61.2179 97.8396 61.2179 90.7493C61.2179 83.3832 58.4141 76.672 53.8156 71.6246C53.0845 70.8222 51.8383 70.8403 51.0706 71.608C50.2769 72.4017 50.3001 73.6886 51.0465 74.527C54.8854 78.839 57.2179 84.5218 57.2179 90.7493C57.2179 96.74 55.0595 102.227 51.4778 106.474ZM59.5347 114.526C58.8013 115.349 58.7983 116.61 59.5781 117.389C60.3604 118.172 61.6334 118.174 62.3738 117.351C68.7188 110.305 72.5805 100.978 72.5805 90.7497C72.5805 80.2509 68.5121 70.7024 61.8659 63.5945C61.1205 62.7973 59.8682 62.8104 59.0964 63.5822C58.3064 64.3722 58.322 65.6528 59.0805 66.4731C64.9771 72.8503 68.5805 81.3792 68.5805 90.7497C68.5805 99.8772 65.1616 108.206 59.5347 114.526Z" fill="white"/>
    <mask id="mask0" style="mask-type:alpha" maskUnits="userSpaceOnUse" x="20" y="20" width="140" height="140">
        <circle cx="90" cy="90" r="70" fill="#4D82F7"/>
    </mask>
    <g mask="url(#mask0)">
        <path fill-rule="evenodd" clip-rule="evenodd" d="M184 26H126.5V28H128.5C126.5 28 126.5 28.0013 126.5 28.0013V64.9288C122.122 61.9828 117.696 60.6936 113.492 60.7425C108.241 60.8036 103.538 62.9509 99.9149 66.1983C92.7757 72.5968 89.4085 83.7577 94.7946 92.5454C99.5586 100.318 103.696 106.713 106.645 111.167C108.119 113.394 109.296 115.136 110.105 116.322C110.51 116.916 110.823 117.37 111.035 117.677C111.141 117.831 111.222 117.948 111.277 118.026L111.361 118.147C111.386 118.182 111.411 118.216 111.438 118.249C113.936 121.372 117.669 122.42 120.993 121.34C122.583 120.823 124.001 119.849 125.112 118.492L134.986 153.5H184V26ZM115.609 100.998C113.39 98.7786 112.139 95.7718 112.129 92.6337C112.11 90.2922 112.782 87.9971 114.063 86.0366C115.343 84.0761 117.174 82.5376 119.326 81.6144C118.646 80.259 117.527 79.1738 116.152 78.5357C114.776 77.8976 113.225 77.7444 111.751 78.1008C110.277 78.4573 108.968 79.3026 108.036 80.4988C107.104 81.695 106.605 83.1716 106.62 84.6878C106.62 85.1848 106.422 85.6615 106.071 86.0129C105.72 86.3644 105.243 86.5618 104.746 86.5618C104.249 86.5618 103.772 86.3644 103.421 86.0129C103.069 85.6615 102.872 85.1848 102.872 84.6878C102.878 82.0947 103.844 79.5956 105.583 77.6724C107.323 75.7492 109.713 74.5382 112.292 74.2728C114.872 74.0074 117.458 74.7064 119.553 76.2351C121.648 77.7638 123.102 80.0138 123.636 82.5514C123.727 83.0323 123.63 83.5296 123.365 83.941C123.1 84.3524 122.687 84.6465 122.212 84.7628C120.295 85.2231 118.612 86.3669 117.479 87.9796C116.345 89.5924 115.839 91.5632 116.055 93.5225C116.272 95.4818 117.195 97.2949 118.653 98.6217C120.111 99.9486 122.002 100.698 123.973 100.729C124.47 100.729 124.947 100.927 125.298 101.278C125.65 101.63 125.847 102.106 125.847 102.603C125.838 103.097 125.637 103.569 125.288 103.918C124.938 104.267 124.467 104.468 123.973 104.477C120.835 104.468 117.828 103.217 115.609 100.998Z" fill="white"/>
    </g>
    <defs>
        <filter id="filter0_d" x="0" y="0" width="180" height="180" filterUnits="userSpaceOnUse" color-interpolation-filters="sRGB">
            <feFlood flood-opacity="0" result="BackgroundImageFix"/>
            <feColorMatrix in="SourceAlpha" type="matrix" values="0 0 0 0 0 0 0 0 0 0 0 0 0 0 0 0 0 0 127 0"/>
            <feMorphology radius="8" operator="dilate" in="SourceAlpha" result="effect1_dropShadow"/>
            <feOffset/>
            <feGaussianBlur stdDeviation="6"/>
            <feColorMatrix type="matrix" values="0 0 0 0 0.4 0 0 0 0 0.690196 0 0 0 0 1 0 0 0 0.4 0"/>
            <feBlend mode="normal" in2="BackgroundImageFix" result="effect1_dropShadow"/>
            <feBlend mode="normal" in="SourceGraphic" in2="effect1_dropShadow" result="shape"/>
        </filter>
    </defs>
</svg>
