<svg width="140" height="140" viewBox="0 0 140 140" fill="none" xmlns="http://www.w3.org/2000/svg">
    <path fill-rule="evenodd" clip-rule="evenodd" d="M23.5913 59.0873C22.7894 59.8892 22.8317 61.1914 23.5452 62.0729C25.4637 64.4433 26.6128 67.462 26.6128 70.749C26.6128 73.8133 25.6142 76.6443 23.9245 78.9344C23.2713 79.8198 23.2615 81.0728 24.0395 81.8508C24.8239 82.6352 26.1067 82.6382 26.7939 81.7674C29.1855 78.7366 30.6128 74.9095 30.6128 70.749C30.6128 66.3001 28.9808 62.2324 26.2827 59.112C25.5815 58.301 24.3494 58.3292 23.5913 59.0873ZM31.4778 86.4737C30.7674 87.3162 30.7626 88.5739 31.5419 89.3532C32.3248 90.1362 33.6008 90.1385 34.3243 89.3003C38.6201 84.3233 41.2179 77.8396 41.2179 70.7493C41.2179 63.3832 38.4141 56.672 33.8156 51.6246C33.0845 50.8222 31.8383 50.8403 31.0706 51.608C30.2769 52.4017 30.3001 53.6886 31.0465 54.527C34.8854 58.839 37.2179 64.5218 37.2179 70.7493C37.2179 76.74 35.0595 82.2265 31.4778 86.4737ZM39.5347 94.5258C38.8013 95.3494 38.7983 96.6096 39.5781 97.3894C40.3604 98.1717 41.6334 98.1736 42.3738 97.3514C48.7188 90.305 52.5805 80.9783 52.5805 70.7497C52.5805 60.2509 48.5121 50.7024 41.8659 43.5945C41.1205 42.7973 39.8682 42.8104 39.0964 43.5822C38.3064 44.3722 38.322 45.6528 39.0805 46.4731C44.9771 52.8503 48.5805 61.3792 48.5805 70.7497C48.5805 79.8772 45.1616 88.2061 39.5347 94.5258Z" fill="white"/>
    <mask id="mask0" mask-type="alpha" maskUnits="userSpaceOnUse" x="0" y="0" width="140" height="140">
        <circle cx="70" cy="70" r="70" fill="#4D82F7"/>
    </mask>
    <g mask="url(#mask0)">
        <path fill-rule="evenodd" clip-rule="evenodd" d="M164 6H106.5V8H108.5C106.5 8 106.5 8.0013 106.5 8.0013V44.9288C102.122 41.9828 97.696 40.6936 93.4926 40.7425C88.2417 40.8036 83.5388 42.9509 79.9154 46.1983C72.7761 52.5968 69.409 63.7577 74.795 72.5454C79.5591 80.3182 83.6968 86.7129 86.6451 91.1666C88.1193 93.3936 89.2963 95.1356 90.1059 96.3224C90.5106 96.9158 90.8236 97.3704 91.0358 97.6774C91.1419 97.8309 91.2229 97.9475 91.2776 98.0261L91.3618 98.1469C91.3863 98.1819 91.4118 98.216 91.4385 98.2493C93.9368 101.372 97.6693 102.42 100.993 101.34C102.583 100.823 104.001 99.8488 105.112 98.4917L114.986 133.5H164V6ZM95.6099 80.9976C93.3909 78.7786 92.1399 75.7718 92.13 72.6337C92.1102 70.2922 92.7827 67.9971 94.063 66.0366C95.3433 64.0761 97.1744 62.5376 99.3262 61.6144C98.6465 60.259 97.5277 59.1738 96.1522 58.5357C94.7766 57.8976 93.2255 57.7444 91.7517 58.1008C90.2779 58.4573 88.9683 59.3026 88.0364 60.4988C87.1046 61.695 86.6054 63.1716 86.6204 64.6878C86.6204 65.1848 86.4229 65.6615 86.0715 66.0129C85.72 66.3644 85.2434 66.5618 84.7463 66.5618C84.2493 66.5618 83.7727 66.3644 83.4212 66.0129C83.0698 65.6615 82.8723 65.1848 82.8723 64.6878C82.8783 62.0947 83.8442 59.5956 85.5837 57.6724C87.3232 55.7492 89.7132 54.5382 92.2927 54.2728C94.8722 54.0074 97.4587 54.7064 99.5534 56.2351C101.648 57.7638 103.103 60.0138 103.636 62.5514C103.727 63.0323 103.63 63.5296 103.365 63.941C103.1 64.3524 102.688 64.6465 102.212 64.7628C100.296 65.2231 98.6127 66.3669 97.4792 67.9796C96.3458 69.5924 95.8397 71.5632 96.0559 73.5225C96.2721 75.4818 97.1956 77.2949 98.6534 78.6217C100.111 79.9486 102.003 80.698 103.974 80.7294C104.471 80.7294 104.947 80.9269 105.299 81.2783C105.65 81.6298 105.848 82.1064 105.848 82.6034C105.838 83.0975 105.638 83.5686 105.288 83.918C104.939 84.2673 104.468 84.4679 103.974 84.4775C100.836 84.4676 97.8289 83.2166 95.6099 80.9976Z" fill="white"/>
    </g>
</svg>
