<svg xmlns="http://www.w3.org/2000/svg" width="38.643" height="185.88" viewBox="0 0 38.643 185.88"><defs><style>.a{fill:#c3d9fd;}.b{fill:#b6cff5;}.c{fill:#e8f1ff;}.d{fill:#4e88f8;}.e{fill:#6398fd;}.f{fill:#3f80ff;}</style></defs><g transform="translate(-101.667 -301.888)"><path class="a" d="M120.989,301.888l-19.321,11.156,19.32,11.156,19.322-11.154Z" transform="translate(0)"/><path class="b" d="M101.668,308.418V419.969l19.321,11.156V319.574Z" transform="translate(0 4.626)"/><path class="c" d="M112.977,319.573,132.3,308.419v111.55l-19.322,11.156Z" transform="translate(8.011 4.626)"/><path class="d" d="M101.668,373.717v52.017l19.321,11.156V384.874Z" transform="translate(0 50.878)"/><path class="e" d="M112.977,384.874,132.3,373.717v52.017L112.977,436.89Z" transform="translate(8.011 50.878)"/><path class="f" d="M140.31,378.342l-19.322-11.154-19.32,11.154,19.32,11.157Z" transform="translate(0 46.253)"/><path class="f" d="M120.988,367.187V389.5l-19.32-11.157Z" transform="translate(0 46.253)"/></g></svg>