<svg xmlns="http://www.w3.org/2000/svg" width="18.572" height="129.181" viewBox="0 0 18.572 129.181"><defs><style>.a{fill:#eff8fa;}.b{fill:#c2e1f0;}.c{fill:#4080ff;}.d{fill:#215bce;}</style></defs><g transform="translate(-584.964 -24.833)"><path class="a" d="M603.527,119.568V30.194H584.965v89.48c0,1.372.906,2.744,2.72,3.791a14.509,14.509,0,0,0,13.131,0C602.677,122.391,603.576,120.975,603.527,119.568Z"/><path class="b" d="M587.684,33.985c-3.627-2.093-3.627-5.488,0-7.582a14.515,14.515,0,0,1,13.131,0c3.627,2.094,3.627,5.488,0,7.582A14.511,14.511,0,0,1,587.684,33.985Z"/><g transform="translate(0 -26.394)"><path class="c" d="M603.527,170.76V119.5H584.965v51.445a9.518,9.518,0,0,0,2.72,6.69,9.162,9.162,0,0,0,13.131,0A9.514,9.514,0,0,0,603.527,170.76Z" transform="translate(0 0)"/><path class="d" d="M587.684,123.292c-3.627-2.094-3.627-5.488,0-7.582a14.509,14.509,0,0,1,13.131,0c3.627,2.094,3.627,5.488,0,7.582A14.511,14.511,0,0,1,587.684,123.292Z"/></g></g></svg>