<svg width="180" height="180" viewBox="0 0 180 180" fill="none" xmlns="http://www.w3.org/2000/svg">
    <g filter="url(#filter0_d)">
        <circle cx="90" cy="90" r="70" fill="#42B2C6"/>
    </g>
    <mask id="mask0" style="mask-type:alpha" maskUnits="userSpaceOnUse" x="20" y="20" width="140" height="140">
        <circle cx="90" cy="90" r="70" fill="#69CBDC"/>
    </mask>
    <g mask="url(#mask0)">
        <path d="M53.1744 17.7382L53.1759 17.7403L53.526 18.2562C53.7553 18.5942 54.0919 19.0905 54.5209 19.7238C55.3791 20.9902 56.6072 22.8042 58.0874 24.995C61.0476 29.3764 65.0164 35.2652 69.0498 41.2938C73.0827 47.3217 77.1825 53.4929 80.4041 58.4379C82.0144 60.9098 83.4086 63.0804 84.4664 64.7757C85.5027 66.4365 86.2683 67.7228 86.5695 68.3753C86.6785 68.6115 86.7181 68.8739 86.6838 69.1318C86.5466 70.1609 85.9799 71.0589 85.3034 71.8063C84.6169 72.5648 83.7219 73.2735 82.7367 73.9275C80.765 75.2363 78.2498 76.4442 75.8176 77.4648C73.3738 78.4904 70.9589 79.3495 69.1592 79.9512C68.5433 80.1571 67.9981 80.3333 67.5469 80.4762C67.8003 81.16 68.141 82.0599 68.5417 83.0711C69.4373 85.3313 70.6147 88.1023 71.7768 90.2605C72.4133 91.4425 72.0493 92.6018 71.4156 93.4536C70.8188 94.2557 69.8812 94.9603 68.8593 95.5768C66.7854 96.828 63.8534 98.013 60.94 99.0273C58.2918 99.9493 55.5888 100.754 53.4238 101.358C54.2143 101.625 55.0716 101.917 55.9606 102.224C59.678 103.506 64.0352 105.072 66.3396 106.136C68.7388 107.243 69.9234 108.601 70.0086 110.137C70.0483 110.85 69.8293 111.427 69.6222 111.805C69.5176 111.996 69.4097 112.148 69.3237 112.257C69.2804 112.312 69.2415 112.357 69.2097 112.393L69.1908 112.414C69.1801 112.427 69.1629 112.448 69.14 112.477C69.0896 112.54 69.0117 112.642 68.9155 112.78C68.7226 113.055 68.4586 113.469 68.1931 114.001C67.6599 115.067 67.137 116.571 67.137 118.362C67.137 118.922 67.151 119.619 67.167 120.414L67.167 120.415V120.416C67.207 122.402 67.2592 124.996 67.1354 127.564C66.9641 131.119 66.4507 135.05 64.8745 137.611C64.4829 138.247 63.8316 138.634 63.2541 138.885C62.642 139.152 61.9024 139.356 61.0938 139.518C59.4718 139.843 57.3692 140.039 54.9952 140.145C50.2348 140.357 44.18 140.215 38.2489 139.935C32.3096 139.656 26.4602 139.236 22.0979 138.887C19.9162 138.712 18.1049 138.555 16.8386 138.442C16.2054 138.385 15.7084 138.339 15.3693 138.307C15.1997 138.291 15.0697 138.279 14.9818 138.271L14.9143 138.264H-15.5591C-16.3171 138.264 -16.9316 137.65 -16.9316 136.892V19.8818C-16.9316 19.1346 -16.334 18.5247 -15.587 18.5096L52.0111 17.137C52.4756 17.1276 52.9134 17.3538 53.1744 17.7382Z" fill="white"/>
        <path fill-rule="evenodd" clip-rule="evenodd" d="M97.5913 79.0873C96.7894 79.8892 96.8317 81.1914 97.5452 82.0729C99.4637 84.4433 100.613 87.462 100.613 90.749C100.613 93.8133 99.6142 96.6443 97.9245 98.9344C97.2713 99.8198 97.2615 101.073 98.0395 101.851C98.8239 102.635 100.107 102.638 100.794 101.767C103.186 98.7366 104.613 94.9095 104.613 90.749C104.613 86.3001 102.981 82.2324 100.283 79.112C99.5815 78.301 98.3494 78.3292 97.5913 79.0873ZM105.478 106.474C104.767 107.316 104.763 108.574 105.542 109.353C106.325 110.136 107.601 110.139 108.324 109.3C112.62 104.323 115.218 97.8396 115.218 90.7493C115.218 83.3832 112.414 76.672 107.816 71.6246C107.085 70.8222 105.838 70.8403 105.071 71.608C104.277 72.4017 104.3 73.6886 105.046 74.527C108.885 78.839 111.218 84.5218 111.218 90.7493C111.218 96.74 109.059 102.227 105.478 106.474ZM113.535 114.526C112.801 115.349 112.798 116.61 113.578 117.389C114.36 118.172 115.633 118.174 116.374 117.351C122.719 110.305 126.58 100.978 126.58 90.7497C126.58 80.2509 122.512 70.7024 115.866 63.5945C115.12 62.7973 113.868 62.8104 113.096 63.5822C112.306 64.3722 112.322 65.6528 113.08 66.4731C118.977 72.8503 122.58 81.3792 122.58 90.7497C122.58 99.8772 119.162 108.206 113.535 114.526Z" fill="white"/>
    </g>
    <defs>
        <filter id="filter0_d" x="0" y="0" width="180" height="180" filterUnits="userSpaceOnUse" color-interpolation-filters="sRGB">
            <feFlood flood-opacity="0" result="BackgroundImageFix"/>
            <feColorMatrix in="SourceAlpha" type="matrix" values="0 0 0 0 0 0 0 0 0 0 0 0 0 0 0 0 0 0 127 0"/>
            <feMorphology radius="8" operator="dilate" in="SourceAlpha" result="effect1_dropShadow"/>
            <feOffset/>
            <feGaussianBlur stdDeviation="6"/>
            <feColorMatrix type="matrix" values="0 0 0 0 0.413281 0 0 0 0 0.797613 0 0 0 0 0.8625 0 0 0 0.4 0"/>
            <feBlend mode="normal" in2="BackgroundImageFix" result="effect1_dropShadow"/>
            <feBlend mode="normal" in="SourceGraphic" in2="effect1_dropShadow" result="shape"/>
        </filter>
    </defs>
</svg>
