<svg xmlns="http://www.w3.org/2000/svg" xmlns:xlink="http://www.w3.org/1999/xlink" width="375.209" height="218.525" viewBox="0 0 375.209 218.525"><defs><style>.a{fill:url(#a);}.b{isolation:isolate;}.c,.o{fill:#3f80ff;}.d{fill:url(#b);}.e{fill:#4e88f8;}.f{fill:#b1c9f8;}.g{fill:#96b7f8;}.h{fill:#bcd2fd;}.i{fill:#b6cff5;}.j{fill:#c3d9fd;}.k{fill:#e8f1ff;}.l{fill:#3559a0;}.m,.p{fill:#3a63b2;}.n,.q,.r{fill:none;stroke-linecap:round;stroke-linejoin:round;stroke-width:0.928px;}.n{stroke:#3f80ff;}.o,.p{font-size:14px;font-family:Lato-Regular, Lato;}.q{stroke:#c3d9fd;}.r{stroke:#3a63b2;}</style><linearGradient id="a" x1="0.379" y1="0.861" x2="0.621" y2="0.134" gradientUnits="objectBoundingBox"><stop offset="0" stop-color="#e8f1ff" stop-opacity="0"/><stop offset="1" stop-color="#c3d9fd"/></linearGradient><linearGradient id="b" x1="-0.037" y1="0.968" x2="1.037" y2="0.032" gradientUnits="objectBoundingBox"><stop offset="0" stop-color="#0db2c2"/><stop offset="1" stop-color="#58d4c7"/></linearGradient></defs><g transform="translate(-159.269 -1057.785)"><g transform="translate(202.488 1097.51)"><path class="a" d="M-350.108,507.862l-90.78,52.13,97.725,56.315,90.831-52.628Z" transform="translate(440.888 -437.507)"/><g transform="translate(43.951)"><g transform="translate(24.688 8.392)"><g class="b"><g transform="translate(0.096)"><path class="c" d="M-278.552,484.245l-59.879,34.8-60.271-34.8C-365.634,465.028-311.836,465.028-278.552,484.245Z" transform="translate(398.702 -469.833)"/></g><g transform="translate(60.27 14.413)"><path class="d" d="M-301.8,478.678l-.1,34.024-59.879,34.8.1-34.024Z" transform="translate(361.771 -478.678)"/></g><g transform="translate(0 14.413)"><path class="e" d="M-338.394,513.476l-.1,34.024-60.27-34.8.1-34.024Z" transform="translate(398.761 -478.679)"/></g></g></g><g transform="translate(0 34.143)"><g class="b"><g transform="translate(0 34.547)"><path class="f" d="M-413.913,529.522l.064-22.682c-.036,12.675,8.333,25.371,25.084,35.043l-.065,22.682C-405.582,554.893-413.949,542.2-413.913,529.522Z" transform="translate(413.913 -506.84)"/></g><g transform="translate(0.065)"><path class="g" d="M-328.922,520.433l-59.869,34.793c-33.284-19.217-33.468-50.373-.4-69.59Z" transform="translate(413.873 -485.637)"/></g><g transform="translate(25.082 34.797)"><path class="h" d="M-338.585,506.993l-.064,22.682-59.87,34.793.064-22.683Z" transform="translate(398.519 -506.993)"/></g></g></g><g transform="translate(84.72)"><g class="b"><g transform="translate(60.262 35.033)"><path class="i" d="M-300.084,486.183l-.16,56.706c-.036,12.513-8.259,25.011-24.688,34.557l.161-56.706C-308.342,511.193-300.119,498.7-300.084,486.183Z" transform="translate(324.932 -486.183)"/></g><g transform="translate(0.161)"><path class="j" d="M-301.939,464.682c33.275,19.212,33.451,50.373.383,69.589l-60.262-34.791Z" transform="translate(361.818 -464.682)"/></g><g transform="translate(0 34.798)"><path class="k" d="M-301.495,520.831l-.161,56.706-60.261-34.792.161-56.706Z" transform="translate(361.917 -486.039)"/></g></g></g><g transform="translate(24.877 80.166)"><g class="b"><g transform="translate(0.031)"><path class="l" d="M-338.756,513.883l60.262,34.792c-33.068,19.217-86.856,19.212-120.132,0Z" transform="translate(398.626 -513.883)"/></g><g transform="translate(0 34.792)"><path class="m" d="M-278.482,535.236l-.033,11.342c-33.068,19.217-86.856,19.212-120.13,0l.031-11.342C-365.338,554.448-311.55,554.453-278.482,535.236Z" transform="translate(398.645 -535.236)"/></g></g></g></g></g><path class="n" d="M644.544,373.041l-24.351-24.355H553.218" transform="translate(-393.299 780.717)"/><path class="n" d="M644.544,373.041l-24.351-24.355H553.218" transform="translate(-302.299 727.717)"/><text class="o" transform="translate(224.269 1124.785)"><tspan x="-64.05" y="0">Age 10-20</tspan></text><text class="o" transform="translate(315.269 1071.785)"><tspan x="-64.05" y="0">Age 30-40</tspan></text><text class="p" transform="translate(472.107 1259.785)"><tspan x="-64.05" y="0">Age 40-50</tspan></text><text class="o" transform="translate(531.366 1094.785)"><tspan x="-64.05" y="0">Age 20-30</tspan></text><path class="q" d="M674.047,393.326,698.4,368.973h66.977" transform="translate(-231.361 732.384)"/><path class="r" d="M647.542,430.956l24.351,24.353h66.979" transform="translate(-266.939 811.53)"/></g></svg>