<svg xmlns="http://www.w3.org/2000/svg" xmlns:xlink="http://www.w3.org/1999/xlink" width="283.509" height="245.525" viewBox="0 0 283.509 245.525"><defs><style>.a{fill:url(#a);}.b{isolation:isolate;}.c{fill:#c3d9fd;}.d{fill:#b6cff5;}.e{fill:#e8f1ff;}.f,.p{fill:#3f80ff;}.g{fill:#6398fd;}.h{fill:#4e88f8;}.i{fill:#96b7f8;}.j{fill:#bcd2fd;}.k{fill:#b1c9f8;}.l{fill:#3559a0;}.m,.q{fill:#3a63b2;}.n{fill:#4f7bce;}.o,.r,.s{fill:none;}.o{stroke:#3f80ff;}.o,.s{stroke-linecap:round;stroke-linejoin:round;stroke-width:0.928px;}.p,.q{font-size:14px;font-family:Lato-Regular, Lato;}.r{stroke:#c3d9fd;}.s{stroke:#3a63b2;}</style><linearGradient id="a" x1="0.379" y1="0.861" x2="0.621" y2="0.134" gradientUnits="objectBoundingBox"><stop offset="0" stop-color="#e8f1ff" stop-opacity="0"/><stop offset="1" stop-color="#c3d9fd"/></linearGradient></defs><g transform="translate(-644.923 -1030.785)"><g transform="translate(698.002 1058.5)"><path class="a" d="M-174.174,443.878l-51.034,29.306,54.939,31.659,51.063-29.586Z" transform="translate(225.208 -287.033)"/><g transform="translate(42.71)"><g transform="translate(27.229)"><g class="b"><g transform="translate(0.031)"><path class="c" d="M-105.809,314.491l-27.221,15.82-27.4-15.819,27.221-15.819Z" transform="translate(160.43 -298.672)"/></g><g transform="translate(27.4 15.819)"><path class="d" d="M-107.839,313.317l-.031,131.8-27.222,15.819.031-131.8Z" transform="translate(135.092 -313.317)"/></g><g transform="translate(0 15.819)"><path class="e" d="M-133.028,329.137l-.031,131.8-27.4-15.819.031-131.8Z" transform="translate(160.459 -313.318)"/></g></g></g><g transform="translate(0 48.912)"><g class="b"><g transform="translate(0.031)"><path class="f" d="M-131.017,359.773l-27.221,15.819-27.4-15.819,27.222-15.819Z" transform="translate(185.638 -343.954)"/></g><g transform="translate(27.4 15.819)"><path class="g" d="M-133.048,358.6l-.031,96.771L-160.3,471.19l.031-96.771Z" transform="translate(160.301 -358.6)"/></g><g transform="translate(0 15.819)"><path class="h" d="M-158.236,374.419l-.031,96.771-27.4-15.819.031-96.771Z" transform="translate(185.667 -358.6)"/></g></g></g><g transform="translate(54.652 89.903)"><g class="b"><g transform="translate(0.031)"><path class="i" d="M-80.42,397.723l-27.221,15.819-27.4-15.819L-107.82,381.9Z" transform="translate(135.041 -381.903)"/></g><g transform="translate(27.4 15.819)"><path class="j" d="M-82.451,396.549l-.031,55.78L-109.7,468.148l.031-55.78Z" transform="translate(109.704 -396.549)"/></g><g transform="translate(0 15.819)"><path class="k" d="M-107.639,412.368l-.031,55.78-27.4-15.819.031-55.78Z" transform="translate(135.07 -396.549)"/></g></g></g><g transform="translate(27.43 131.878)"><g class="b"><g transform="translate(0.031)"><path class="l" d="M-105.622,436.583-132.844,452.4l-27.4-15.819,27.221-15.819Z" transform="translate(160.243 -420.764)"/></g><g transform="translate(27.4 15.819)"><path class="m" d="M-107.653,435.41l-.031,29.624-27.222,15.819.031-29.624Z" transform="translate(134.906 -435.41)"/></g><g transform="translate(0 15.819)"><path class="n" d="M-132.841,451.229l-.031,29.624-27.4-15.819.031-29.624Z" transform="translate(160.272 -435.41)"/></g></g></g></g></g><path class="o" d="M631.426,373.041l-20.853-24.355H553.218" transform="translate(92.169 837.717)"/><text class="p" transform="translate(695.789 1181.785)"><tspan x="-49.042" y="0">Marathi</tspan></text><text class="q" transform="translate(742.189 1258.785)"><tspan x="-45.598" y="0">Bengali</tspan></text><text class="p" transform="translate(882.464 1044.785)"><tspan x="-33.362" y="0">Hindi</tspan></text><text class="p" transform="translate(928.432 1175.785)"><tspan x="-43.232" y="0">Others</tspan></text><path class="r" d="M674.047,393.326l20.378-24.353h56.049" transform="translate(130.67 683.384)"/><path class="r" d="M674.047,393.326l20.378-24.353h56.049" transform="translate(177.041 814.384)"/><path class="s" d="M731.68,430.956l-22.433,24.353h-61.7" transform="translate(50.021 810.53)"/></g></svg>