<svg xmlns="http://www.w3.org/2000/svg" xmlns:xlink="http://www.w3.org/1999/xlink" width="163.883" height="145.095" viewBox="0 0 163.883 145.095"><defs><style>.a{fill:url(#a);}.b{fill:url(#b);}.c{isolation:isolate;}.d{fill:#b1c9f8;}.e{fill:#aec7f7;}.f{fill:#b6cff5;}.g{fill:#e8f1ff;}.h{fill:#3d62ac;}.i{fill:#3559a0;}.j{fill:#4e74bf;}.k{fill:#6b8cce;}.l{fill:#2b6be8;}.m{fill:#3f80ff;}.n{fill:#4e88f8;}.o{fill:#6398fd;}.p{fill:#3a63b2;font-size:14px;font-family:Lato-Regular, Lato;}</style><linearGradient id="a" x1="0.364" y1="0.901" x2="0.639" y2="0.098" gradientUnits="objectBoundingBox"><stop offset="0" stop-color="#e8f1ff" stop-opacity="0"/><stop offset="0.088" stop-color="#e6f0fe" stop-opacity="0.027"/><stop offset="0.218" stop-color="#e3eefe" stop-opacity="0.11"/><stop offset="0.375" stop-color="#dfebfe" stop-opacity="0.239"/><stop offset="0.553" stop-color="#d8e6fe" stop-opacity="0.424"/><stop offset="0.748" stop-color="#cfe1fd" stop-opacity="0.655"/><stop offset="0.955" stop-color="#c5dafd" stop-opacity="0.937"/><stop offset="1" stop-color="#c3d9fd"/></linearGradient><linearGradient id="b" x1="0.364" y1="0.901" x2="0.64" y2="0.098" xlink:href="#a"/></defs><g transform="translate(-1126.756 -1083.785)"><g transform="translate(1126.756 1105.881)"><path class="a" d="M-135.818,664.9l-45.951,27.154L-221.806,668.7l46.347-27.661Z" transform="translate(236.104 -569.053)"/><path class="b" d="M-78.33,630.242-124.266,657.4-164.3,634.041l46.347-27.662Z" transform="translate(236.104 -569.053)"/><path class="b" d="M-150.131,614.248-196.067,641.4-236.1,618.047l46.347-27.661Z" transform="translate(236.104 -569.053)"/><g transform="translate(46.281 4.517)"><g class="c"><g transform="translate(39.692 9.708)"><path class="d" d="M-144.022,583.277l-.05,17.708-6.059,13.263.05-17.708Z" transform="translate(150.131 -583.277)"/></g><g transform="translate(0.05)"><path class="e" d="M-144.022,583.277l-6.059,13.263-22.878,3.553-16.814-9.708,6.059-13.263,22.878-3.553Z" transform="translate(189.773 -573.57)"/></g><g transform="translate(16.814 22.971)"><path class="f" d="M-150.081,596.541l-.05,17.708-22.878,3.553.05-17.708Z" transform="translate(173.009 -596.541)"/></g><g transform="translate(0 16.816)"><path class="g" d="M-172.959,600.093l-.05,17.708-16.814-9.708.05-17.708Z" transform="translate(189.823 -590.386)"/></g></g></g><g transform="translate(60.595 39.073)"><g class="c"><g transform="translate(39.692 9.708)"><path class="h" d="M-129.076,617.833l-.05,17.708-6.692,29.356.684-33.8Z" transform="translate(135.818 -617.833)"/></g><g transform="translate(0.684)"><path class="i" d="M-129.076,617.833l-6.059,13.263-22.878,3.553-16.814-9.708,6.059-13.263,22.878-3.553Z" transform="translate(174.826 -608.125)"/></g><g transform="translate(16.814 22.971)"><path class="j" d="M-135.134,631.1l-.684,33.8L-158.7,668.45l.684-33.8Z" transform="translate(158.696 -631.096)"/></g><g transform="translate(0 16.816)"><path class="k" d="M-158.012,634.649l-.684,33.8-16.814-9.708.684-33.8Z" transform="translate(175.51 -624.941)"/></g></g></g><g transform="translate(118.082)"><g class="c"><g transform="translate(39.692 9.708)"><path class="l" d="M-72.221,578.761l-.05,38.218-6.059,13.263.05-38.218Z" transform="translate(78.33 -578.761)"/></g><g transform="translate(0.05)"><path class="m" d="M-72.221,578.761l-6.059,13.263-22.878,3.553-16.814-9.708,6.059-13.263,22.878-3.553Z" transform="translate(117.972 -569.053)"/></g><g transform="translate(16.814 22.971)"><path class="n" d="M-78.28,592.024l-.05,38.218-22.878,3.553.05-38.218Z" transform="translate(101.208 -592.024)"/></g><g transform="translate(0 16.816)"><path class="o" d="M-101.158,595.577l-.05,38.218-16.814-9.708.05-38.218Z" transform="translate(118.022 -585.869)"/></g></g></g></g><text class="p" transform="translate(1234.973 1221.785)"><tspan x="-46.984" y="0">Female </tspan></text><text class="p" transform="translate(1285.973 1188.785)"><tspan x="-30.898" y="0">Male</tspan></text><text class="p" transform="translate(1212.973 1097.785)"><tspan x="-43.232" y="0">Others</tspan></text></g></svg>