<svg xmlns="http://www.w3.org/2000/svg" xmlns:xlink="http://www.w3.org/1999/xlink" width="412" height="179.969" viewBox="0 0 412 179.969"><defs><style>.a{fill:none;}.b{fill:#f4f3f3;}.c{fill:#fddbde;}.d{fill:#4080ff;}.e{fill:#281710;}.f{fill:#9c6a40;}.g{clip-path:url(#a);}.h{fill:#fdfdfd;}</style><clipPath id="a"><path class="a" d="M0,0H5.772V6.959H0Z" transform="translate(0.1 0.031)"/></clipPath></defs><g transform="translate(0 -0.031)"><path class="b" d="M1.731,17.251c12.886,2.486,25.783,4.92,38.651,7.5,3.264.653,6.508.231,9.757.4-4,14.2-3.181,28.737-2.819,43.213a13.447,13.447,0,0,0,2.4,7.3c5.869,8.569,16.08,8.249,23.679,4.332,1.782-.918,3.037-1.453,4.878-.369,5.429,3.2,11.043,2.4,16.421.029,9.476-4.182,16.747-11.255,23.848-18.57,1.815-1.869,1.186-3.447.783-5.3l1.014-1.01c3.7,1.806,3.874-.6,3.864-3.221.7-1.345,2.357-.776,3.289-1.654,2.109,1.1,4.168.12,6.215-.226,1.094-.185,2.457-.651,2.225-2.089-.165-1.024-1.4-1.253-2.361-1.383-3.237-.438-6.5-.7-9.717-1.264-2.461-.43-3.141,1.055-3.727,2.855-1.773,1.12-3.522,2.28-5.326,3.347-1.99,1.177-1.008,2.3-.036,3.47-7.039-1.356-12.017,3.258-17.366,6.346-2.64,1.524-4.281,1.628-6.212-.484,2.351-3.6,4.091-7.909,9.383-8.127,1.429-.374,2.893-.652,4.275-1.154,1.031-.374,2.452-.86,2.154-2.239-.3-1.406-1.81-1.183-2.923-1.186-3.127-.011-6.256.109-9.382.075-2.062-.022-3,1-3.179,2.928L89.9,51.9c-1.77-1.15-1.921-3.407-1.752-4.779,1-8.1-.933-15.962-1.448-23.928,11.279-.347,22.248-3.048,33.4-4.373,6.786-.806,13.543-2.121,20.349-2.436,9.8-.454,12.232-3.3,9.725-12.755a13.469,13.469,0,0,1-.231-1.946A21.4,21.4,0,0,0,154.656.612c3.388-1.618,3.523.209,3.254,2.728-.386,3.62-2.747,6.184-4.906,8.779-2.317,2.785-2.821,5.37-.081,8.1-5.349,19.931-8.816,40.117-7.846,60.846.282,6.024,1.305,12.012.952,18.073-11.488-.155-22.693,2.368-34.039,3.515-17.505,1.77-34.634,6.131-52.365,6.554-12.394.3-24.767,1.949-37.214,1.78-5.559-.076-11.034-1.584-16.633-.979q0-2.431-.007-4.863c.433-.666,1.2-1.306,1.249-2,.817-10.6,2.218-21.212,2.077-31.8-.118-8.943-2.51-17.78-4.161-26.629C3.35,36.21.35,27.978,0,19.242c1.229-.1,1.684-.868,1.731-1.991" transform="translate(102 49)"/><path class="c" d="M45.395,122A15.5,15.5,0,0,1,32.1,115.032a13.523,13.523,0,0,1-2.4-7.293c-.031-1.249-.066-2.517-.1-3.744-.18-6.506-.367-13.233-.048-19.82a87.655,87.655,0,0,1,2.962-19.627A135.5,135.5,0,0,1,30.3,48c-.2-3.62-1.453-5.164-4.195-5.164a13.331,13.331,0,0,0-3.225.488c-6.1,1.556-11.606,3.075-16.844,4.644a6.828,6.828,0,0,1-1.925.359c-1.156,0-1.88-.6-2.348-1.957l-.373-.518-.057-.079L.005,43.93c-.088-1.576.959-1.923,1.972-2.259a5.786,5.786,0,0,0,1.032-.416c4.074-2.329,8.227-4.678,12.244-6.949l.006,0c5.05-2.856,10.269-5.808,15.382-8.748,5.131-2.952,10.9-4.157,16.472-5.322l.2-.043c1.044,1.357,2.01,2.016,2.955,2.016,1.25,0,2.307-1.167,3.329-2.3.322-.356.655-.723.99-1.049,3.372-1.988,6.969-3.693,10.448-5.343A92.009,92.009,0,0,0,79.733,5.413a16.02,16.02,0,0,0,8.087-4.126A3.66,3.66,0,0,1,90.305,0a3.747,3.747,0,0,1,2.722,1.643c.125,1.168.642,1.736,1.579,1.736a3.47,3.47,0,0,0,.963-.159c.658,3.212-1.346,4.9-3.284,6.535-.486.41-.988.833-1.433,1.271-.274.269-.562.528-.84.778-1.164,1.047-2.264,2.036-2.441,3.772a11.444,11.444,0,0,0-5.249,2.938,20.4,20.4,0,0,0-4.112,5.523,24.084,24.084,0,0,0-2.342,6.891,18.244,18.244,0,0,0,.06,7.042c0,1.151-.025,2.324-.05,3.458a63.772,63.772,0,0,0,.141,7.774,8.03,8.03,0,0,1-.877,5.173,6.908,6.908,0,0,1-4.268,2.842c-1.582.443-2.543,1.118-2.855,2.007s.017,2.025.98,3.37c.167,2.592.49,5.218.8,7.756.647,5.26,1.316,10.7.642,16.159-.1.79-.259,3.47,1.748,4.776A8.149,8.149,0,0,0,71.1,95.826a5.917,5.917,0,0,0,2.379,4.018,4,4,0,0,0,2.99,1.608,6.624,6.624,0,0,0,3.21-1.124c1.04-.6,2.084-1.272,3.094-1.921,3.569-2.293,7.259-4.664,11.729-4.664a13.253,13.253,0,0,1,2.5.243,7.327,7.327,0,0,0,3.756,1.088c.261.026.531.054.794.086.042.193.086.384.129.569.382,1.641.712,3.057-.911,4.732-7.184,7.413-14.41,14.411-23.8,18.56A21.556,21.556,0,0,1,68.25,121.1a14.877,14.877,0,0,1-7.653-2.112,3.84,3.84,0,0,0-1.966-.6,6.517,6.517,0,0,0-2.9.972A22.733,22.733,0,0,1,45.395,122Zm4.73-30.668h0A22.525,22.525,0,0,0,47.8,99.255c-.117.762-.228,1.479-.37,2.2l-.012.063c-.262,1.337-.588,3,.792,4.036a2.018,2.018,0,0,0,1.224.4,2.727,2.727,0,0,0,1.55-.524A3.418,3.418,0,0,0,52,101a21.824,21.824,0,0,1-1.871-9.669Z" transform="translate(119 10)"/><path class="b" d="M63,102.617c-5.475-.919-10.684,1.437-16.18,1.382-2.231-.022-4.431-1.1-6.662-.432-.926-3.91-3.105-6.638-7.2-7.562l-.066-.014c-.019-.953.313-2.111-.111-2.827-3.73-6.307-6.865-12.926-10.354-19.347A145.062,145.062,0,0,1,8.512,38.2C7.267,33,5.874,27.837,4.548,22.659c4.13-2.689,4.266-5.693.964-9.245C2.13,9.776-.422,5.7.058,0,6.513,3.164,12.18,7.044,17.9,10.82c1.97,1.3,3.932,2.361,6.369,2.191,4.013,3.972,5.117,4.146,7.344,1.154,6.456-1,12.688.656,19,1.519a52.786,52.786,0,0,0,6.411.126l2.271,6.356c-.155,2.551,3.812,3.192,2.6,6.606-1.408,3.97-1.906,8.279-2.612,12.473-2.121,12.592-5.065,25.172-2.124,38.02,1.79,7.82,3.885,15.571,5.843,23.353" transform="translate(290 47)"/><path class="d" d="M7.006,87.125C5.069,79.3,3,71.5,1.225,63.633c-2.909-12.924,0-25.579,2.1-38.247.7-4.218,1.191-8.554,2.584-12.547C7.109,9.4,3.184,8.76,3.336,6.191c3.107-.408,5.189-3.029,8.371-3.609C23.783.379,35.8-1.706,47.924,2.143c-.255.393-.451,1.066-.774,1.136-5.481,1.182-7.074,4.247-4.564,9.386.88,4.343,1.772,8.683,2.64,13.029q3.859,19.313,7.7,38.629c1.2,7.073,2.38,14.15,3.619,21.216.34,1.941.846,3.849-.05,5.764-3.044-.427-6.129-1.042-8.47,1.846-2.439.191-3.689-1.031-4.5-3.326-1.609-4.575-3.472-9.058-5.23-13.58L24.964,33.129a160.33,160.33,0,0,0-3.186,40.152c.073,2.5-.833,5.108.842,7.419q-.16,1.145-.32,2.289c-1.917,3.988.736,8.6-1.65,12.518A12.681,12.681,0,0,0,12.095,97c-3.169-.151-2.266-3.124-3.162-4.809a40.6,40.6,0,0,1-1.927-5.066" transform="translate(346 64)"/><path class="d" d="M82.844,6.82c.351,8.659,3.368,16.817,4.963,25.244,1.66,8.771,4.064,17.53,4.183,26.393.141,10.5-1.268,21.018-2.089,31.522-.054.689-.82,1.324-1.256,1.983L80.886,92c-1.389-.528-1.2-1.776-1.356-2.869Q77.566,75.447,75.6,61.763C73.942,50.128,69.7,39.382,64.2,28.318c-1.606,4.75-2.873,8.773-4.324,12.731A72.6,72.6,0,0,1,49.352,60.761C42,70.285,32.63,73.314,21.036,70.305c-5.792-2.581-11.744-4.875-16.944-8.561C2.55,60.651.621,59.827,0,57.769c3.2-.717,4.042-3.676,5.735-5.825l1.312-.382c2.064.589,4.111,1.24,6.193,1.753,9.716,2.39,16.273-.121,19.587-8.407A184.583,184.583,0,0,0,43.16,10.858a42.06,42.06,0,0,0,2.057-4.908,4.663,4.663,0,0,1,3.995-3.692C56.494.932,63.806-.426,71.23.127,76.036.484,81.34.634,82.844,6.82" transform="translate(19 62)"/><path class="c" d="M48.582,3.754c1.324,5.175,2.716,10.334,3.959,15.529a145.049,145.049,0,0,0,13.9,35.6c3.485,6.418,6.616,13.033,10.341,19.337.423.715.092,1.873.111,2.826-1.084-1.543-2.225-2.109-3.854-.562-1.258,1.194-2.722,2.173-4.095,3.247a4.041,4.041,0,0,1-2.637-.98C61.585,75.3,58.9,70.1,55.046,65.914,43.744,53.62,36.423,38.924,29.867,23.8c-.51-1.176-.354-2.829-2.086-2.81-1.7.018-1.655,1.7-2.152,2.866-7.87,18.49-10.7,38.068-12.649,57.842a3.145,3.145,0,0,1-2.339,3.1L3.319,86l-2.2-4.312C1.469,75.63.445,69.647.163,63.626c-.971-20.714,2.5-40.886,7.854-60.8,3.547.126,5.889-4.078,10-2.446,6.019,2.391,12.448-.762,18.585.945.125.035.3-.106.452-.169,4.47-1.888,8.044.163,11.53,2.6" transform="translate(247 67)"/><path class="c" d="M66.678,59.959C54.317,56.115,42.067,58.2,29.755,60.4c-3.244.58-5.366,3.2-8.534,3.6q-1.143-3.188-2.289-6.381c-2.659-9.366-5.277-18.784-10.293-27.23C3.675,22.029,1.8,12.8.094,3.478-.188,1.945.091.487,1.976,0A4.153,4.153,0,0,0,5.534,1c2.985.188,3.995,2.447,5.2,4.663,3.861,7.1,8.331,13.578,16.233,17,3.569,1.546,7.281,1.685,10.974,2.253.131,1.454-.024,3.2,2.075,3.3,2.3.115,3.614-1.295,4.35-3.325,12.287.088,20.1-5.625,25.663-18.589.961-2.238,1.151-5.472,4.948-5.133,1.254,2.472,2.667.136,4,.131.331,10.968-3.169,21.223-6.1,31.561-2.273,8.017-4.633,15.988-5.117,24.372a9.379,9.379,0,0,1-1.083,2.719" transform="translate(328 6)"/><path class="d" d="M61.394,47c-3.51-2.42-7.108-4.456-11.607-2.582-.151.063-.329.2-.455.168-6.177-1.694-12.649,1.435-18.708-.938-4.137-1.62-6.494,2.552-10.065,2.427-2.76-2.708-2.253-5.272.082-8.034,2.175-2.574,4.555-5.117,4.944-8.707.271-2.5.135-4.31-3.279-2.706a21.859,21.859,0,0,1-4.752,1.065A19.391,19.391,0,0,1,0,9.575c1.531-.228,2.387-1.363,3.323-2.391,2.36-.8,3.584.96,5.082,2.151,6.1,4.85,8.39,4.914,13.633-.579C25.55,5.076,30.161,3.054,34.059,0c.791,1.363,2.048,1.209,3.326.987C39.823,2.4,42.263,4.276,44.67.943c5.823.2,10.608,2.608,14.973,6.3,2.546,2.155,4.18,5.381,7.663,6.453,3.329,5.989,8.937,10.12,13.059,15.464,1.425,1.847,3.8,3.378,1.968,6.211-.922.4-1.032,1.218-1.11,2.055-2.45.168-4.423-.884-6.4-2.174C69.067,31.511,63.37,27.663,56.88,24.524c-.483,5.658,2.083,9.7,5.483,13.305,3.32,3.524,3.183,6.5-.969,9.171" transform="translate(233 23)"/><path class="c" d="M60.972,61.944C59.48,55.73,54.218,55.579,49.45,55.22c-7.365-.555-14.619.809-21.844,2.141a4.65,4.65,0,0,0-3.963,3.709A42.07,42.07,0,0,1,21.6,66c-2.463-2.338-.8-5.327-1.273-7.979,3.174-3.754,2.263-8.9,4.439-13.253-6.111,2.536-11.372,6.3-16.52,10.164-1.794,1.346-3.382,2.421-5.659,2.084-.195-1.716-1.057-2.063-2.5-1.21-.651-4.286,2.569-6.725,4.88-9.368C9.974,40.709,15.34,35.289,20.581,29.762c.913-.963,1.776-1.909,1.746-3.341,5.251-1.915,9.615-6.165,15.686-5.919,1.976,1.94,3.948,4.17,6.006.081l5.287-.119C62.734,22.037,67.921,12.5,73.02,2.915c.758-1.424.925-3.233,3.2-2.867C77.426.73,78.63,1.446,80,.4c-.21,11.732-2.089,22.871-11.239,31.426a12.866,12.866,0,0,1-6.894,3.53c-2.938.43-3.473,2.319-3.07,4.579,1.193,6.694,2.586,13.352,3.9,20.024-.047,1.118-.5,1.884-1.726,1.982" transform="translate(41 6)"/><path class="b" d="M0,60.816C1.946,41.007,4.782,21.394,12.658,2.871c.5-1.17.451-2.853,2.153-2.871,1.733-.018,1.577,1.638,2.088,2.816C23.461,17.965,30.787,32.687,42.1,45c3.856,4.2,6.544,9.4,11.272,12.861a4.044,4.044,0,0,0,2.64.982c.134,2.087,2.3,2.856,2.99,4.579-7.536,2.658-15.263,1.2-22.916.976C23.978,64.051,12.2,60.336,0,60.816" transform="translate(259 87)"/><path class="b" d="M1.153,42.328c11.593,3.033,20.963-.021,28.315-9.622A73.4,73.4,0,0,0,40,12.834C41.447,8.844,42.714,4.789,44.32,0c5.493,11.153,9.738,21.986,11.394,33.716q1.949,13.8,3.932,27.59c.157,1.1-.034,2.36,1.355,2.891q-.052,1.9-.1,3.8c-14.924-1.525-29.582-4.332-43.109-10.976A58.275,58.275,0,0,1,.4,44.525c-1.232-1.335.777-1.379.753-2.2" transform="translate(38 90)"/><path class="b" d="M34.747.1C35.213,2.77,33.576,5.783,36,8.139A191.791,191.791,0,0,1,25.911,42.616c-3.238,8.389-9.642,10.931-19.132,8.512-2.034-.519-4.034-1.179-6.049-1.775.587-6.828-1.49-13.46-.415-20.507C1.7,19.779,7.019,13.8,13.357,9.039,18.742,4.993,25.61,2.985,31.869.184,32.684-.18,33.781.111,34.747.1" transform="translate(25 64)"/><path class="e" d="M36.521,19.975l-5.395.121a5.045,5.045,0,0,1,1.829-4.558c2.461-2.4,1.6-5.774.487-8.769C32.964,5.476,32.1,4.446,30.5,4.58c-3.242.27-3.067,3.525-4.653,5.245-.73.792-.237,1.444.057,2.209a8.7,8.7,0,0,1-.9,7.979c-6.195-.248-10.647,4.05-16,5.987C1.341,22.194-1.7,15.692.924,8.73,3.481,1.937,10.491,0,15.851,4.8c2.452,2.193,4.516,1.513,6.7-.062A53.337,53.337,0,0,1,27.269,1.1c4.481-2.517,7.9-.59,7.9,4.474a5.252,5.252,0,0,0,.987,3.135,10.4,10.4,0,0,1,.363,11.266" transform="translate(54 7)"/><path class="e" d="M3.331,20.988c-1.28.228-2.539.385-3.331-1.01,2.186-2.741,3.029-5.492,1.619-9.112C.4,7.743,1.844,5.02,5.019,3.519c.3-.141.624-.218.922-.356,10.969-5.092,10.932-4.957,12.207,7.313.463,4.459,4.361,4.634,8.1,4.436,8.489-.448,13.26,5.235,11.326,13.141-.644,2.632-2.557,4.182-4.28,5.946-3.487-1.1-5.124-4.4-7.673-6.606-4.371-3.782-9.162-6.249-15-6.452-1.106-2.516,1.2-3.369,2.247-4.922,2.076-3.083,1.7-6.406-.169-9.412-.848-1.366-2.977-1.861-3.9-.532C7.138,8.484,3,9.908,5.174,14.194c1.356,2.672-.617,4.69-1.843,6.793" transform="translate(268 3)"/><path class="b" d="M.14,40.263A158.075,158.075,0,0,1,3.392,0L17,43.234C13.065,49.081,6.214,47.967.678,50c.1-.768.213-1.533.321-2.3-.314-2.477.961-5.135-.859-7.438" transform="translate(368 97)"/><path class="b" d="M10.417,52Q6.539,32.557,2.659,13.115C1.785,8.741.887,4.372,0,0,7.346,4.409,13.462,9.774,15.631,18.711a47.677,47.677,0,0,1-2.77,30.695c-.521,1.227-.708,2.611-2.444,2.594" transform="translate(389 76)"/><path class="e" d="M35,8.28C27.22,14.011,18.037,17.072,9.834,22a6.234,6.234,0,0,1-2.379-5.267C7.924,10.275,6.209,8.048,0,7.273.844,5.156,4.393,5.2,3.857,1.644,3.66.334,6.258-.375,7.961.2a2.94,2.94,0,0,1,2.05,3.518c-.246,1.364-1.549,2.678.45,3.832a4.042,4.042,0,0,0,5.017-.448C22.366,1.324,28.775,3.04,35,8.28" transform="translate(164 7)"/><path class="e" d="M.383,22C-1.65,13.207,4.7,1.625,12.452,0,14.7,11.167,9.9,19.91.383,22" transform="translate(195 25)"/><path class="f" d="M10.786,14.7c-.73,2.014-2.033,3.412-4.316,3.3-2.083-.1-1.929-1.835-2.059-3.278a1.608,1.608,0,0,0-.646-2.068C-.728,9.426-1.241,4.257,2.449,0,7.048.111,7.339,5.539,11,6.809c-3.378,2.541-1.6,5.219-.214,7.887" transform="translate(362 16)"/><path class="f" d="M1.517,0C7.5.727,9.158,2.813,8.705,8.865A5.775,5.775,0,0,0,11,13.8c-2.053,1.982-3.849,5.354-7.021,1.27.163-1.142,1.171-2.4-.375-3.329C-1.6,8.608-.095,4.316,1.517,0" transform="translate(162 15)"/><path class="f" d="M0,2.211C2.4-.675,5.57-.061,8.695.367,9.889,5.5,10.679,10.775,14,15.169c-1.556.87-.085,2.868-1.459,3.831-2.874-.608-4.692-2.511-6.178-4.829C5.051,9.766,2.24,6.136,0,2.211" transform="translate(395 154)"/><path class="f" d="M3.016,8.745C2.315,7.023.135,6.254,0,4.168,1.385,3.092,2.863,2.113,4.133.917c1.644-1.549,2.8-.982,3.89.563,0,0,.066.014.067.013a21.061,21.061,0,0,0,4.088,8.656q.163.791.326,1.582c-.095,2.767,3.124,5.379.4,8.27l-1.519-3A42.491,42.491,0,0,0,3.42,9.2a.494.494,0,0,0-.4-.454" transform="translate(314 142)"/><path class="f" d="M0,1.189,7.371,0,8,1.8l-.123.989q-.6,5.465-1.2,10.93c-1.892.645-2.818,2.423-4.312,3.534C1.676,17.77.843,18.789.6,16.925L.8,15.5c.737-2,.031-3.944-.211-5.907A2.28,2.28,0,0,0,.03,7.067L.369,6.9s-.048-.367-.05-.366Q.226,5.673.139,4.8.069,3,0,1.189" transform="translate(249 151)"/><path class="e" d="M8.309,16C4.752,14.687,4.469,9.073,0,8.959,1.227,7.38,3.049,6.444,2.691,3.6,2.359.96,4.7-.12,6.947.011c2.289.134,4.809,2.084,3.84,4.052C8.872,7.953,9.923,12.241,8.309,16" transform="translate(365 7)"/><path class="f" d="M0,1.72A13.547,13.547,0,0,1,8.967.189Q9.478,7.1,10,14.006c-2.37-.779-4.7,2.526-7.086.069C3.927,9.5.818,5.874,0,1.72" transform="translate(358 158)"/><path class="f" d="M0,3.908Q.051,1.973.1.038L7.992,0Q8,2.474,8,4.946q-.678,6-1.357,11.992C4.027,17.5,3.521,14.083,1.2,14.089L.72,9.961.395,6.819,0,3.908" transform="translate(99 154)"/><path class="f" d="M17,5.533C15.363,7.551,14.545,10.327,11.455,11,7.722,7.495,4.545,3.423,0,.747c2.376-2.064,4.735.9,7.106.02L14.5,4.488c.055.529.293.834.908.677L17,5.533" transform="translate(7 108)"/><path class="e" d="M1.14.087c2.216-.006,2.7,3.317,5.2,2.77C8.769,4.03,10.147,6.2,11.318,8.479c.478.93,1.188,2.21.138,3.127-1.166,1.019-2.085-.178-2.837-.879C5.7,8.008,2.866,5.2,0,2.428A2.47,2.47,0,0,0,.832,0Z" transform="translate(99 168)"/><path class="e" d="M8.558.182C10.94,2.524,13.265-.626,15.63.116c.511,1.464.827,2.828-1.393,3.284C10.3,4.209,6.382,5.079,2.442,5.867c-.778.155-1.8.341-2.253-.5-.567-1.055.243-1.81,1.048-2.4A12.332,12.332,0,0,1,8.558.182" transform="translate(353 172)"/><path class="e" d="M5.039,3.224c.247,1.877,1.082.85,1.774.334C8.312,2.44,9.241.649,11.138,0c.882,1.476,1.5,2.793-.295,4.239C8.292,6.291,5.967,8.615,3.5,10.767c-.831.723-1.873,1.82-2.981.851-1.005-.88-.322-2.163.23-3.149C1.614,6.915,2.612,5.43,3.555,3.916l1.484-.692" transform="translate(245 165)"/><path class="e" d="M15,5.824c-2.508.919-5-2.176-7.515-.021a3.271,3.271,0,0,1-1-.056C3.825,4.7-.723,4.167.1,1.136.758-1.3,4.9.867,7.248,1.394c2.9.65,7.259-.211,7.752,4.43" transform="translate(0 103)"/><path class="e" d="M.391,8.817C3.054,5.734-.09,2.95,0,0L3.657,1.523,4.87,6.653c.313,2.036.687,4.064.914,6.111.124,1.114.691,2.637-.732,3.144-1.316.468-2.006-.939-2.515-1.922-.85-1.642-1.445-3.438-2.147-5.169" transform="translate(328 153)"/><path class="e" d="M0,0C1.436,2.48,3.193,4.516,5.971,5.167,7.3,4.137,5.878,2,7.381,1.068c1.2,3.415,3.128,8.082-.391,9.738C4.3,12.074,2.93,6.813,1.252,4.236.5,3.083.4,1.427,0,0" transform="translate(401 168)"/><path class="f" d="M5.978,6.578C5.032,7.619,4.167,8.769,2.619,9A20.983,20.983,0,0,0,1.527,6.311C.459,4.43-.629,2.57.437.36.564.1,1.633-.023,1.642,0,2.412,2.175,7.125,1.31,5.75,5.141c-.145.4.142.954.228,1.437" transform="translate(231 24)"/><path class="f" d="M9.225,0,11,2.4C3.555,4.675,3.555,4.675,0,1.43,2.943-.26,6.5,2.149,9.225,0" transform="translate(110 53)"/><path class="f" d="M2.656,7.844C1.156,8.26.181,7.879,0,6.3,1.276,5.123,2.978,4.359,3.207,2.3A2.572,2.572,0,0,1,6.014,0c-.094,1.486,2.1,2.84.222,4.45C4.984,5.521,3.845,6.708,2.656,7.844" transform="translate(212 5)"/><g transform="translate(116)"><path class="a" d="M0,0H5.772V6.959H0Z" transform="translate(0.1 0.031)"/><g class="g"><path class="f" d="M3.929,6.471c-1.424.968-2.675.3-3.929-.329A5.709,5.709,0,0,0,.139,4.366C-.506,1.683,2.35,1.446,3.759.232a1.062,1.062,0,0,1,1.63.417,4.355,4.355,0,0,1-.441,4.282c-.311.526-.677,1.027-1.018,1.54" transform="translate(0.1 0.031)"/></g></g><path class="f" d="M0,2.352C.075,1.394.179.455,1.053,0,2.75,1.873,5.457,1.437,7,3.663c-2.123,3.4-3.175,3.2-7-1.31" transform="translate(315 58)"/><path class="f" d="M3.875,3.11C2.582,3.115,1.213,5.185,0,2.995,2.464.613,5.122-1.105,9,.848,8.082,3.225,5.77,2.787,3.875,3.11" transform="translate(403 4)"/><path class="f" d="M8,5.928A3.664,3.664,0,0,1,4.643,4.881c-.549-1-1.543-.981-2.4-1.28C1.287,3.27-.514,3.247.14,1.784.629.689,2.247-.914,3.907.655,5.51,2.17,7.245,3.6,8,5.928" transform="translate(325 1)"/><path class="f" d="M5.369.464C6.889-.42,7.8-.061,8,1.718,5.738,3.809,3.683,6.57,0,3.9.272.72,3.665,1.793,5.369.464" transform="translate(35 62)"/><path class="c" d="M3.944,8A19.118,19.118,0,0,1,0,0C3.979.855,6.1,3.378,7,7L3.944,8" transform="translate(324 144)"/><path class="b" d="M.039,0A43.016,43.016,0,0,1,8,8C3.639,7.081-.441,5.873.039,0" transform="translate(319 151)"/><path class="c" d="M1.228,5,0,.03C1.907-.1,3.657.1,3.966,2.558,4.237,4.706,2.838,5.017,1.228,5" transform="translate(332 155)"/><path class="b" d="M1.658,0,2,3C-.579,2.229-.632,1.223,1.658,0" transform="translate(98 161)"/><path class="b" d="M1.846,1.35.723,2C.305,1.7-.2,1.3.079.682.482-.232,1.313.056,2,0L1.846,1.35" transform="translate(248 167)"/><path class="b" d="M1.816,0Q1.907.974,2,1.947c-.776,0-1.885.375-1.992-.835C-.107-.179,1.065.122,1.816,0" transform="translate(248 155)"/><path class="b" d="M.177,0c1.013.554.9,1.269.663,2A1.392,1.392,0,0,1,.177,0" transform="translate(249 158)"/><path class="b" d="M.984,0A1.783,1.783,0,0,1,.079,2,1.519,1.519,0,0,1,.984,0" transform="translate(99 168)"/><path class="b" d="M1,.942C.322,1.162.061.736,0,0L1,.942" transform="translate(22 113)"/><path class="c" d="M0,1Q.177.5.354,0C.588.246.913.489,1,.742,1.024.813.352.913,0,1" transform="translate(257 153)"/><path class="f" d="M5.743,8c-1.589-.194-3.231-.186-4.611-1.176-.982-1.167-1.975-2.3.037-3.474C2.992,2.282,4.761,1.12,6.553,0,8.971.924,12.308-1.323,14,2.108c-.942.879-2.622.31-3.325,1.657Q8.722,5.379,6.768,6.989L5.743,8" transform="translate(215 97)"/><path class="e" d="M7.444,5.449C5.753,1.741,2.417,4.169,0,3.17.593,1.223,1.28-.384,3.767.081c3.249.607,6.549.893,9.82,1.368.972.141,2.22.389,2.386,1.5C16.208,4.5,14.83,5,13.725,5.2c-2.069.374-4.149,1.439-6.281.244" transform="translate(222 94)"/><path class="f" d="M2.251,10C-.556,7.481-.469,4.485,1.044,1.254L2.557.091C5.25,1.39,8.656-1.787,11,1.7,6.065,1.923,4.443,6.321,2.251,10" transform="translate(191 100)"/><path class="e" d="M9.333,5C6.742,1.28,2.977,4.669,0,3.284.182,1.179,1.152.069,3.277.093,6.5.13,9.723,0,12.946.012c1.147,0,2.7-.239,3.012,1.292.307,1.5-1.157,2.031-2.22,2.439C12.314,4.29,10.805,4.593,9.333,5" transform="translate(193 96)"/><path class="c" d="M0,2.51,3,0c.007,2.046-.131,3.918-3,2.51" transform="translate(222 101)"/><path class="b" d="M3.387,0A20.353,20.353,0,0,0,5.542,9.916a3.292,3.292,0,0,1-1.168,4.546,2.959,2.959,0,0,1-3.2.126c-1.616-1.08-1.2-2.842-.9-4.2C.987,7.175,1.075,3.79,3.387,0" transform="translate(166 101)"/><path class="h" d="M.155,0C1.687,2.168.614,4.669.878,7-.561,4.821.217,2.356.155,0" transform="translate(368 137)"/><path class="f" d="M0,15.2C1.232,13.158,3.216,11.2,1.853,8.617-.334,4.467,3.828,3.088,5.5.756c.925-1.287,3.065-.807,3.918.515,1.876,2.911,2.257,6.129.17,9.114-1.052,1.5-3.371,2.33-2.259,4.766C4.911,18.455,2.454,16.6,0,15.2" transform="translate(271 8)"/><path class="f" d="M0,14.708a8.355,8.355,0,0,0,.851-7.6C.574,6.381.109,5.76.8,5.006,2.293,3.368,2.129.268,5.186.011A2.656,2.656,0,0,1,7.963,2.095C9.01,4.947,9.825,8.158,7.5,10.446a4.828,4.828,0,0,0-1.725,4.341C3.8,18.725,1.9,16.576,0,14.708" transform="translate(79 12)"/></g></svg>