<svg xmlns="http://www.w3.org/2000/svg" width="538.893" height="138.894" viewBox="0 0 538.893 138.894"><defs><style>.a{opacity:0.3;}.b{opacity:0.45;}.c{fill:#fff;}.d{fill:#234561;}.e{fill:#f7f7f7;}.f{fill:#3f80ff;}.g{fill:#7da7fa;}.h{fill:#bcd3ff;}</style></defs><g transform="translate(598.658 -33.359) rotate(90)"><g class="a" transform="translate(33.359 63.825)"><path class="b" d="M97.757,99a46,46,0,0,0-26.58,83.6,26.9,26.9,0,0,0-.622,5.667l-.57,369.424a27.064,27.064,0,0,0,54.128.084l.57-369.424a26.766,26.766,0,0,0-.6-5.67A46,46,0,0,0,97.757,99Z" transform="translate(-26.889 -49.967)"/><rect class="b" width="12.179" height="29.77" transform="matrix(0.782, -0.623, 0.623, 0.782, 0, 24.109)"/><rect class="b" width="12.179" height="29.77" transform="matrix(0.999, -0.045, 0.045, 0.999, 61.714, 0.544)"/><rect class="b" width="29.771" height="12.179" transform="translate(107.088 41.752) rotate(-52.638)"/></g><g transform="translate(37.419 59.765)"><g transform="translate(24.789 49.033)"><path class="c" d="M127.08,179.683a26.766,26.766,0,0,1,.6,5.67l-.57,369.424a27.064,27.064,0,1,1-54.128-.084l.57-369.424a26.9,26.9,0,0,1,.622-5.667,46.009,46.009,0,1,1,52.9.081Z" transform="translate(-54.678 -96)"/><g transform="translate(59.237 97.431)"><rect class="d" width="9.472" height="2.706" rx="0.5" transform="translate(0 364.012)"/><rect class="d" width="8.119" height="2.706" rx="0.5" transform="translate(1.353 323.415)"/><rect class="d" width="9.472" height="2.706" rx="0.5" transform="translate(0 282.819)"/><rect class="d" width="8.119" height="2.706" rx="0.5" transform="translate(1.353 242.223)"/><rect class="d" width="9.472" height="2.706" rx="0.5" transform="translate(0 201.627)"/><rect class="d" width="8.119" height="2.706" rx="0.5" transform="translate(1.353 161.031)"/><rect class="d" width="9.472" height="2.706" rx="0.5" transform="translate(0 120.435)"/><rect class="d" width="8.119" height="2.706" rx="0.5" transform="translate(1.353 79.839)"/><rect class="d" width="9.472" height="2.706" rx="0.5" transform="translate(0 40.596)"/><rect class="d" width="8.119" height="2.706" rx="0.5" transform="translate(1.353)"/></g></g><path class="e" d="M127.347,136.447A30.447,30.447,0,1,0,88.1,165.6V192.6H105.7V165.6A30.457,30.457,0,0,0,127.347,136.447Z" transform="translate(-25.73 -43.435)"/><rect class="e" width="17.592" height="79.839" transform="translate(62.375 149.17)"/><rect class="e" width="17.592" height="81.192" transform="translate(62.375 229.009)"/><rect class="f" width="17.592" height="81.192" transform="translate(62.375 310.201)"/><rect class="g" width="17.592" height="81.192" transform="translate(62.375 391.393)"/><g transform="translate(62.374 472.586)"><path class="h" d="M100.045,409H82.453v36.208h.035c.346-4.05,4.131-7.242,8.761-7.242s8.416,3.192,8.762,7.242h.034Z" transform="translate(-82.453 -409)"/><path class="h" d="M91.249,430.405c-4.629,0-8.414,3.192-8.761,7.242-.018.2-.035.4-.035.6,0,4.333,3.938,7.845,8.8,7.845s8.8-3.512,8.8-7.845c0-.2-.016-.4-.034-.6C99.664,433.6,95.878,430.405,91.249,430.405Z" transform="translate(-82.453 -401.44)"/></g><g transform="translate(0 16.516)"><rect class="c" width="12.179" height="29.77" transform="matrix(0.782, -0.623, 0.623, 0.782, 0, 7.592)"/></g><g transform="translate(61.714 0)"><rect class="c" width="12.179" height="29.77" transform="translate(0 0.544) rotate(-2.561)"/></g><g transform="translate(107.088 18.089)"><rect class="c" width="12.179" height="29.771" transform="translate(18.066 0) rotate(37.362)"/></g></g></g></svg>