<svg width="150" height="150" viewBox="0 0 150 150" fill="none" xmlns="http://www.w3.org/2000/svg">
    <g filter="url(#filter0_dd)">
        <circle cx="78" cy="78" r="50" fill="#4D82F7"/>
    </g>
    <g clip-path="url(#clip0)">
        <path d="M71.0625 69.4688C71.0625 60.9393 78.0018 54 86.5312 54C95.0607 54 102 60.9393 102 69.4688C102 73.3783 101.273 77.2653 100.57 81.0242C99.8902 84.6571 99.1875 88.4137 99.1875 92.0625C99.1875 97.542 94.7716 102 89.3438 102C83.9159 102 79.5 97.542 79.5 92.0625C79.5 91.3642 79.5728 90.6074 79.7001 89.9863C80.3862 86.6332 77.9166 82.7302 75.5932 80.4067C72.6715 77.4851 71.0625 73.6006 71.0625 69.4688ZM82.4554 90.5502C82.3659 90.9875 82.3125 91.5528 82.3125 92.0625C82.3125 95.9912 85.4667 99.1875 89.3438 99.1875C93.2208 99.1875 96.375 95.9912 96.375 92.0625C96.375 88.1529 97.1021 84.266 97.8053 80.5071C98.4848 76.8742 99.1875 73.1175 99.1875 69.4688C99.1875 62.4901 93.5099 56.8125 86.5312 56.8125C79.5526 56.8125 73.875 62.4901 73.875 69.4688C73.875 72.8494 75.1914 76.0276 77.5819 78.418C80.534 81.3702 83.3646 86.1076 82.4554 90.5502Z" fill="white"/>
        <path d="M84.6921 59.7935C90.8722 58.6617 96.3749 63.3895 96.3749 69.4688C96.3749 72.8539 95.7277 76.2938 95.0409 79.9438C94.8203 81.1156 94.5922 82.3274 94.3875 83.5347C93.9731 85.9772 91.9036 87.75 89.4667 87.75C87.0976 87.75 85.041 86.064 84.5765 83.7411C84.573 83.3088 82.8797 78.7698 86.3982 74.478C88.1717 72.3147 90.7464 71.023 93.5223 70.887C93.5485 70.4099 93.5624 69.9373 93.5624 69.4688C93.5624 65.2297 89.7411 61.7282 85.1987 62.56C79.6804 63.5706 77.5729 70.4523 81.5591 74.4419L79.5694 76.4297C74.0338 70.8892 76.8757 61.225 84.6921 59.7935ZM88.5732 76.2611C85.9929 79.4084 87.3252 82.708 87.3344 83.1895C87.537 84.2024 88.4338 84.9375 89.4667 84.9375C90.5271 84.9375 91.4304 84.1497 91.6145 83.0643C91.8235 81.8321 92.054 80.6077 92.2783 79.4155C92.6464 77.4595 93.003 75.5641 93.2467 73.7287C91.4238 73.9259 89.7511 74.8243 88.5732 76.2611Z" fill="white"/>
        <path d="M53.9997 76.5H68.1559V79.3125H53.9997V76.5Z" fill="white"/>
        <path d="M66.1232 87.8974L67.3809 90.4128L56.132 96.0373L54.8742 93.5219L66.1232 87.8974Z" fill="white"/>
        <path d="M56.1294 59.7739L67.3784 65.3984L66.1207 67.9139L54.8717 62.2894L56.1294 59.7739Z" fill="white"/>
    </g>
    <defs>
        <filter id="filter0_dd" x="0" y="0" width="156" height="156" filterUnits="userSpaceOnUse" color-interpolation-filters="sRGB">
            <feFlood flood-opacity="0" result="BackgroundImageFix"/>
            <feColorMatrix in="SourceAlpha" type="matrix" values="0 0 0 0 0 0 0 0 0 0 0 0 0 0 0 0 0 0 127 0"/>
            <feOffset dx="-4" dy="4"/>
            <feGaussianBlur stdDeviation="2"/>
            <feColorMatrix type="matrix" values="0 0 0 0 0.254902 0 0 0 0 0.752941 0 0 0 0 0.992157 0 0 0 0.2 0"/>
            <feBlend mode="normal" in2="BackgroundImageFix" result="effect1_dropShadow"/>
            <feColorMatrix in="SourceAlpha" type="matrix" values="0 0 0 0 0 0 0 0 0 0 0 0 0 0 0 0 0 0 127 0"/>
            <feOffset dx="4" dy="-4"/>
            <feGaussianBlur stdDeviation="2"/>
            <feColorMatrix type="matrix" values="0 0 0 0 0.4 0 0 0 0 0.690196 0 0 0 0 1 0 0 0 0.5 0"/>
            <feBlend mode="normal" in2="effect1_dropShadow" result="effect2_dropShadow"/>
            <feBlend mode="normal" in="SourceGraphic" in2="effect2_dropShadow" result="shape"/>
        </filter>
        <clipPath id="clip0">
            <rect width="48" height="48" fill="white" transform="matrix(-1 0 0 1 102 54)"/>
        </clipPath>
    </defs>
</svg>
