<svg xmlns="http://www.w3.org/2000/svg" width="451.064" height="493.375"><defs><linearGradient id="a" y1=".5" x2="1" y2=".5" gradientUnits="objectBoundingBox"><stop offset="0" stop-color="#390154"/><stop offset=".169" stop-color="#3e0259"/><stop offset=".394" stop-color="#4e076a"/><stop offset=".652" stop-color="#690e86"/><stop offset=".932" stop-color="#8d19ad"/><stop offset="1" stop-color="#981cb8"/></linearGradient><linearGradient id="b" y1=".5" x2="1" y2=".5" gradientUnits="objectBoundingBox"><stop offset="0" stop-color="#5a2b71"/><stop offset=".19" stop-color="#5f2c76"/><stop offset=".443" stop-color="#6f3187"/><stop offset=".732" stop-color="#8a39a3"/><stop offset="1" stop-color="#a942c4"/></linearGradient><linearGradient id="c" y1=".5" x2="1" y2=".5" gradientUnits="objectBoundingBox"><stop offset="0" stop-color="#7b568d"/><stop offset=".217" stop-color="#805792"/><stop offset=".508" stop-color="#905ca3"/><stop offset=".838" stop-color="#aa63bf"/><stop offset="1" stop-color="#ba68d0"/></linearGradient><linearGradient id="d" y1=".5" x2="1" y2=".5" gradientUnits="objectBoundingBox"><stop offset="0" stop-color="#9c80aa"/><stop offset=".261" stop-color="#a181af"/><stop offset=".611" stop-color="#b286c0"/><stop offset="1" stop-color="#cc8edc"/></linearGradient><linearGradient id="e" y1=".5" x2="1" y2=".5" gradientUnits="objectBoundingBox"><stop offset="0" stop-color="#bdaac6"/><stop offset=".34" stop-color="#c2abcb"/><stop offset=".793" stop-color="#d3b0dc"/><stop offset="1" stop-color="#ddb3e7"/></linearGradient><linearGradient id="f" y1=".5" x2="1" y2=".5" gradientUnits="objectBoundingBox"><stop offset="0" stop-color="#ded5e2"/><stop offset=".516" stop-color="#e3d6e7"/><stop offset="1" stop-color="#eed9f3"/></linearGradient><style>.j{opacity:0}.i{opacity:.482}.j{fill:url(#a)}.k{opacity:.05;fill:url(#b)}.l{opacity:.1;fill:url(#c)}.m{opacity:.15;fill:url(#d)}.n{opacity:.2;fill:url(#e)}.o{opacity:.25;fill:url(#f)}.p{fill:#fff;opacity:.3}.r{fill:#8fedff}.s{fill:#c5f9ff}.u{fill:#efb185}.v{fill:#471bce}.y{fill:#5fb9e6}.aa{fill:#632bee}</style></defs><g style="mix-blend-mode:overlay;isolation:isolate" opacity=".5" fill="#fcfdfd"><path d="M253.558 481.234c28.048 16.188 73.371 16.188 101.256 0s27.715-42.459-.322-58.651c-28.073-16.183-73.387-16.183-101.278 0-27.864 16.192-27.7 42.448.343 58.656" opacity=".8"/><path d="M244.694 455.818c32.98 18.238 86.265 18.238 119.039 0s32.584-47.833-.38-66.072c-33-18.235-86.275-18.235-119.056 0-32.761 18.239-32.568 47.818.4 66.076" opacity=".667"/><path d="M235.826 430.405c37.912 20.285 99.158 20.285 136.822 0 37.665-20.3 37.453-53.208-.438-73.494-37.919-20.285-99.163-20.285-136.834 0s-37.44 53.19.451 73.5" opacity=".533"/><path d="M226.967 404.989c42.843 22.335 112.05 22.335 154.6 0 42.56-22.355 42.323-58.582-.5-80.917-42.841-22.336-112.05-22.336-154.613 0s-42.312 58.562.505 80.919" opacity=".4"/><path d="M218.103 379.574c47.774 24.383 124.945 24.383 172.388 0 47.456-24.4 47.192-63.957-.555-88.338-47.764-24.388-124.938-24.388-172.391 0s-47.183 63.933.559 88.34" opacity=".267"/><path d="M209.24 354.159c52.7 26.431 137.837 26.431 190.17 0 52.351-26.456 52.062-69.332-.614-95.761s-137.826-26.437-190.17 0-52.055 69.305.614 95.761" opacity=".133"/></g><g class="i"><path class="j" d="M164.54 155.585a66 66 0 11-65.988-65.988 66.006 66.006 0 0165.988 65.988z"/><path class="k" d="M154.243 156.287a55.7 55.7 0 11-55.69-55.692 55.705 55.705 0 0155.69 55.692z"/><path class="l" d="M143.942 156.988a45.406 45.406 0 11-45.391-45.4 45.4 45.4 0 0145.391 45.4z"/><path class="m" d="M133.644 157.692a35.108 35.108 0 11-35.093-35.1 35.1 35.1 0 0135.093 35.1z"/><path class="n" d="M123.347 158.393a24.811 24.811 0 11-24.8-24.8 24.8 24.8 0 0124.8 24.8z"/><path class="o" d="M113.049 159.096a14.513 14.513 0 11-14.5-14.508 14.5 14.5 0 0114.5 14.508z"/><path class="p" d="M102.747 159.797a4.216 4.216 0 11-4.2-4.212 4.2 4.2 0 014.2 4.212z"/></g><path d="M17.891 337.077c-23.725 13.692-23.888 35.915-.287 49.625l77.865 45.25c23.606 13.714 61.968 13.7 85.685 0l100.966-58.291c23.747-13.7 23.865-35.924.286-49.62l-77.877-45.254c-23.592-13.714-61.93-13.714-85.677 0z" opacity=".2"/><path class="r" d="M222.857 87.684a15.415 15.415 0 013.03-.654c.077-.013.171-.013.235-.018a10.569 10.569 0 012.988.146.5.5 0 01.1.03 8.96 8.96 0 012.684 1.01c-.043-.021-.077-.046-.115-.068l-3.883-2.251-5.508-3.2a.317.317 0 00-.1-.059 8.967 8.967 0 00-.92-.458c-.317-.121-.642-.228-.967-.338-.215-.056-.437-.1-.665-.146a1.78 1.78 0 00-.14-.034c-.082-.021-.154-.043-.228-.056a10.284 10.284 0 00-1.112-.128c-.394-.021-.788-.03-1.2-.013-.141.008-.291.034-.437.047-.073 0-.145.021-.222.026-.235.025-.463.033-.711.068a14.921 14.921 0 00-1.609.347c-.24.061-.492.167-.719.244q-.308.1-.616.218c-.282.094-.552.158-.834.282a18.793 18.793 0 00-2.56 1.279l-105.442 60.869a29.961 29.961 0 00-3.437 2.384c-.376.291-.719.633-1.074.946-.548.475-1.1.9-1.619 1.416-.235.236-.466.5-.7.749-.192.207-.394.412-.586.63-.24.256-.484.491-.719.762-.506.582-1 1.189-1.486 1.815-.162.2-.32.419-.479.642-.081.12-.175.243-.265.355-.154.214-.322.437-.48.655a39.163 39.163 0 00-1.053 1.583 38.59 38.59 0 00-.946 1.545.683.683 0 00-.073.133.506.506 0 00-.064.12 50.28 50.28 0 00-.731 1.279c-.266.53-.527 1.053-.775 1.567a37.73 37.73 0 00-.647 1.4.517.517 0 00-.054.125.237.237 0 00-.035.064c-.231.547-.463 1.1-.668 1.647a31.978 31.978 0 00-.625 1.721c-.094.3-.171.578-.256.878a2.7 2.7 0 00-.12.381c-.073.214-.133.414-.2.62-.2.7-.36 1.4-.514 2.11-.081.415-.145.849-.222 1.276-.03.218-.074.424-.1.642-.033.2-.085.411-.11.621a28.507 28.507 0 00-.231 3.595l.069 25.4c0 .013 0 .227.033.621a20.178 20.178 0 00.441 3.771c1.066 6.391 4.511 18.2 15.678 24.688l9.5 5.527c-11.176-6.49-14.613-18.307-15.674-24.7a19.809 19.809 0 01-.45-3.753c-.03-.394-.03-.621-.03-.634l-.077-25.4a29.409 29.409 0 01.343-4.189c.034-.24.077-.453.115-.681a37.043 37.043 0 01.933-4.01c.026-.107.061-.227.1-.338a42.305 42.305 0 013.839-8.753.082.082 0 01.018-.047 44.258 44.258 0 012.581-3.946c.077-.115.163-.218.243-.333a44.358 44.358 0 012.7-3.261c.188-.2.376-.39.573-.595a30.626 30.626 0 012.363-2.218c.347-.3.672-.6 1.028-.885a27.748 27.748 0 013.445-2.406l105.43-60.88a21.374 21.374 0 013.373-1.557c.218-.066.436-.143.646-.225z"/><path class="s" d="M218.837 89.468c10.114-5.838 18.358-1.155 18.387 10.491l.077 25.4c.035 11.646-8.153 25.81-18.285 31.647l-95.537 55.163a51.842 51.842 0 004.871 28.853c-25.1-.929-31.2-20.323-32.675-29.23a19.809 19.809 0 01-.45-3.753c-.03-.394-.03-.621-.03-.634l-.077-25.4c-.021-11.641 8.145-25.813 18.282-31.664z"/><path class="r" d="M256.97 312.498c.039-.351.069-.758.1-1.148.016-.248.051-.505.059-.762.039-.488.077-.985.1-1.524a4.3 4.3 0 00.035-.475c.026-.565.043-1.118.069-1.7v-.608c.013-.56.025-1.13.025-1.72 0-.146-.012-.284-.012-.438a60.885 60.885 0 00-.074-1.994c0-.141-.008-.269-.017-.389-.047-.647-.09-1.3-.159-1.952a8.901 8.901 0 00-.051-.5 35.008 35.008 0 00-.766-4.532c-.044-.154-.069-.3-.116-.453a30.048 30.048 0 00-.548-1.811 6.263 6.263 0 01-.1-.312 19.684 19.684 0 00-.818-1.931 7.156 7.156 0 00-.274-.488 11.768 11.768 0 00-.731-1.211 13.087 13.087 0 00-.959-1.208c-.189-.2-.338-.419-.54-.606a8.437 8.437 0 00-1.823-1.4l8.132 4.725a8.538 8.538 0 011.841 1.409c.18.171.317.371.484.56a11.108 11.108 0 011.005 1.254 2.548 2.548 0 00.189.235c.171.269.3.578.475.857.112.23.231.44.364.667.025.051.046.082.064.128.24.5.462 1.023.654 1.55a.53.53 0 00.048.115c.074.192.125.4.189.573.1.291.205.586.287.882.064.207.107.437.171.668.051.2.107.394.166.6a1.8 1.8 0 00.082.325c.12.565.235 1.125.333 1.7v.021c.043.244.064.466.094.719.064.347.107.69.163 1.044.009.12.026.261.043.386.039.371.077.749.12 1.117 0 .133.018.266.018.394.038.218.038.437.056.659.025.394.043.78.085 1.169v.24c.008.33.008.667.016 1 .021.347.039.69.039 1.04v.167c0 .381 0 .728-.018 1.1 0 .346 0 .7-.021 1.036v.214c-.008.278-.016.517-.016.8-.043.475-.052.946-.085 1.386v.274c-.018.163-.035.279-.056.432-.035.69-.1 1.31-.138 1.893 0 .038-.012.094-.012.136a.15.15 0 01-.021.082c-.082.821-.151 1.527-.218 2.076v.012c-.031.172-.031.282-.052.412a1.375 1.375 0 00-.038.3c-.034.231-.064.4-.077.488l-8.128-4.725c.03-.21.128-.925.258-1.939.031-.331.066-.635.104-1.019zm-157.434 7.909c.021-.629.056-1.255.095-1.892.017-.283.046-.59.063-.885a1.639 1.639 0 01.018-.3c.026-.236.034-.471.059-.706.065-.625.146-1.267.218-1.91s.167-1.3.274-1.951a.386.386 0 01.013-.061v-.051c.112-.612.214-1.233.33-1.849.125-.677.269-1.361.406-2.033.065-.248.121-.5.172-.749a3.279 3.279 0 00.089-.356 9.549 9.549 0 01.231-.933c.154-.7.342-1.374.531-2.063.138-.5.292-1 .437-1.5.034-.094.056-.2.095-.291l.068-.265c.205-.663.42-1.34.647-2.012.222-.647.445-1.318.685-1.982a2.246 2.246 0 00.1-.282c.074-.158.138-.322.2-.493.133-.368.278-.749.415-1.126.256-.629.5-1.258.77-1.879.176-.47.371-.907.57-1.352.033-.077.056-.159.089-.227.047-.095.082-.2.138-.3.27-.625.56-1.25.852-1.874.316-.694.65-1.358.976-2.046.064-.112.128-.223.192-.33a3.246 3.246 0 01.15-.312c.287-.565.578-1.122.873-1.678.338-.637.7-1.25 1.036-1.867.235-.419.48-.83.71-1.237a4 4 0 01.172-.317c.278-.479.6-.946.9-1.421a79.489 79.489 0 011.737-2.787c.082-.133.159-.261.253-.389.783-1.19 1.614-2.355 2.448-3.514.573-.754 1.138-1.516 1.733-2.251.5-.642 1-1.241 1.494-1.875.5-.586 1.006-1.164 1.5-1.741.509-.57 1-1.126 1.519-1.675.081-.1.158-.171.243-.26s.2-.2.291-.3c.348-.377.706-.754 1.049-1.118a79.034 79.034 0 011.652-1.618c.159-.158.335-.309.5-.471.132-.12.261-.24.389-.371.269-.231.534-.5.821-.754.57-.5 1.148-1.01 1.724-1.511.266-.215.519-.419.8-.634.115-.1.24-.214.364-.312.183-.15.376-.3.577-.463a41 41 0 011.7-1.3c.44-.317.885-.629 1.34-.941a.456.456 0 01.1-.082c.09-.064.176-.116.256-.176.544-.381 1.1-.745 1.644-1.1.548-.338 1.087-.677 1.653-1 .132-.085.26-.159.38-.222l108.1-62.423c.419-.231.83-.458 1.227-.7.545-.279 1.071-.552 1.6-.818.337-.163.68-.317 1.009-.475.1-.039.177-.085.271-.125a3.154 3.154 0 00.291-.145c.527-.231 1.036-.45 1.55-.652s1.056-.406 1.57-.586a2.635 2.635 0 01.3-.1.882.882 0 00.166-.064c.361-.115.732-.24 1.092-.347.54-.171 1.075-.309 1.606-.45.256-.059.514-.11.766-.176.12-.02.21-.038.33-.059.167-.034.338-.077.5-.107a22.133 22.133 0 011.7-.282c.36-.056.685-.077 1.036-.107a3.2 3.2 0 01.325-.039c.123-.008.248-.026.358-.034a24.527 24.527 0 011.837-.064c.274 0 .522.021.779.039.214 0 .419.017.612.033s.424 0 .624.031a21.564 21.564 0 012.24.317.387.387 0 00.051.013 2.822 2.822 0 00.368.1 21.132 21.132 0 012.3.647c.059.021.11.056.174.077a20 20 0 012.971 1.37l8.125 4.729a18.1 18.1 0 00-2.984-1.383 20.356 20.356 0 00-2.359-.685c-.158-.034-.317-.1-.465-.123a20.758 20.758 0 00-2.933-.368c-.18 0-.381-.023-.573-.031a27.87 27.87 0 00-2.975.047c-.107.021-.222.034-.346.056a29.567 29.567 0 00-3.232.483c-.1.021-.209.056-.325.074-1.13.265-2.255.565-3.424.963-.072.021-.146.056-.24.077q-1.81.63-3.7 1.494a2.084 2.084 0 00-.2.076 51.345 51.345 0 00-3.887 2.029l-108.1 62.4c-1.3.757-2.6 1.58-3.877 2.473-.1.047-.185.125-.274.18a59.292 59.292 0 00-3.514 2.667 4.346 4.346 0 00-.351.273c-1.13.929-2.243 1.9-3.342 2.92-.121.107-.244.231-.369.333a78.688 78.688 0 00-3.278 3.283c-.056.074-.125.138-.176.2a72.058 72.058 0 00-3.279 3.706s-.013.018-.025.031c-.047.051-.09.107-.133.153a94.293 94.293 0 00-5.808 7.867c-.531.8-1.023 1.614-1.524 2.432-.45.74-.929 1.455-1.353 2.2-.184.3-.333.595-.5.895a101.273 101.273 0 00-2.076 3.818c-.035.081-.081.158-.124.248a94.055 94.055 0 00-2.158 4.583c-.017.044-.051.1-.069.159a80.333 80.333 0 00-1.789 4.439c-.047.145-.112.3-.167.44a79.048 79.048 0 00-1.519 4.542c-.043.123-.077.248-.112.376a66.757 66.757 0 00-1.177 4.4c-.034.141-.059.273-.09.424a61.05 61.05 0 00-.885 4.495c-.013.059-.017.136-.03.2a66.192 66.192 0 00-.548 4.49 4.836 4.836 0 00-.035.484c-.12 1.5-.176 2.971-.176 4.434s.069 2.9.193 4.276c.025.167.043.313.055.45.133 1.263.313 2.5.545 3.672.017.154.064.308.094.466.231 1.139.527 2.251.852 3.314.068.205.132.411.214.633a28.9 28.9 0 001.057 2.723c.077.138.1.3.192.437a23.471 23.471 0 001.6 2.933 22.024 22.024 0 002.731 3.385c.253.271.509.51.779.762a19.563 19.563 0 003.309 2.522l-8.132-4.731a18.132 18.132 0 01-3.314-2.534c-.261-.231-.509-.479-.762-.732a21.716 21.716 0 01-2.752-3.416 26.561 26.561 0 01-1.524-2.734 1.479 1.479 0 01-.081-.184 16.317 16.317 0 00-.176-.411c-.24-.574-.509-1.143-.732-1.747-.128-.342-.222-.685-.347-1.027-.072-.21-.123-.412-.2-.6s-.119-.35-.166-.534c-.21-.663-.369-1.353-.54-2.059-.046-.214-.081-.453-.132-.68-.048-.18-.074-.361-.108-.545-.051-.24-.11-.466-.149-.71-.1-.625-.205-1.263-.291-1.923-.048-.342-.064-.7-.1-1.048a2.724 2.724 0 01-.034-.364 4.292 4.292 0 01-.051-.475c-.056-.608-.085-1.228-.12-1.857a38.284 38.284 0 01-.038-1.888v-.115a41.447 41.447 0 01.01-1.721z"/><path class="s" d="M146.404 259.745c-21.487 12.4-38.825 42.455-38.758 67.143.056 23.923 16.531 35.235 37.122 23.349a46.678 46.678 0 001.893-1.148c16.589-10.6 44.414-30.432 68.773-44.476 13.773-7.965 26.456-14.085 35.329-15.618 19.136-3.347 14.228 29.444 13.975 31.173 18.469-41.239 25.562-76.867 27.65-89.461a54.38 54.38 0 00.544-3.36c.136-1 .21-1.545.21-1.575.192-2.059.358-4.151.358-6.184-.072-24.688-17.54-34.644-39-22.244z"/><path class="r" d="M357.773 128.792c.021-.231.047-.506.069-.783.017-.163.03-.342.034-.509.025-.325.051-.668.077-1.036a4.64 4.64 0 00.008-.33c.025-.385.033-.762.051-1.16 0-.125 0-.269.008-.407v-1.476c-.008-.455-.026-.9-.043-1.358 0-.094-.017-.184-.017-.265-.034-.445-.069-.882-.1-1.332-.013-.1-.021-.231-.038-.342a26.161 26.161 0 00-.522-3.077l-.082-.317c-.107-.42-.235-.834-.368-1.233a1.132 1.132 0 01-.064-.21c-.171-.453-.359-.89-.565-1.314-.056-.115-.133-.214-.189-.338a6.944 6.944 0 00-.5-.821 8.694 8.694 0 00-.646-.818c-.125-.141-.24-.282-.368-.4a5.8 5.8 0 00-1.246-.976l5.544 3.214a6.674 6.674 0 011.249.977 4.479 4.479 0 01.33.381 8.149 8.149 0 01.69.843.682.682 0 00.123.158c.116.193.21.4.322.591l.248.445a.743.743 0 01.038.1 9.949 9.949 0 01.455 1.057.225.225 0 00.03.072c.047.133.085.269.12.394a4.979 4.979 0 01.2.595c.052.141.078.3.125.445a3.087 3.087 0 00.112.412c0 .085.03.158.038.23a11.68 11.68 0 01.24 1.156v.013c.03.159.043.325.069.488.038.236.077.476.107.719l.025.256c.034.258.052.509.074.767.008.085.025.184.025.269a3.683 3.683 0 01.034.44c.021.271.026.54.056.8v.164c.008.23.008.462.017.68.008.24.026.475.026.711v.115c0 .248 0 .488-.018.749 0 .235 0 .471-.008.7v.145c-.008.189-.017.356-.021.548-.03.325-.034.642-.056.942v.179a2.833 2.833 0 01-.034.3c-.025.471-.064.9-.1 1.3v.09a.111.111 0 01-.017.047c-.056.569-.1 1.044-.15 1.421-.021.12-.021.188-.039.282-.017.072-.021.15-.03.2a2.768 2.768 0 01-.051.325l-5.534-3.214c.025-.141.1-.629.176-1.315.026-.218.051-.42.086-.689zm-107.172 5.384c.016-.424.034-.856.068-1.276.009-.205.034-.407.034-.611 0-.069.018-.138.018-.2.017-.154.025-.312.043-.484.043-.419.1-.86.145-1.3s.121-.885.189-1.322c0-.013 0-.034.008-.039v-.04c.072-.42.15-.839.227-1.259l.271-1.391a3.293 3.293 0 00.12-.5c.021-.077.038-.159.059-.24.051-.214.1-.432.159-.634.11-.466.235-.938.36-1.4l.3-1.036c.018-.059.034-.12.059-.184a.669.669 0 00.044-.176c.153-.462.3-.915.448-1.365s.3-.911.471-1.357c.021-.061.038-.125.069-.193a3.6 3.6 0 00.128-.342c.094-.253.192-.5.3-.757.166-.428.333-.857.513-1.284.125-.317.258-.612.39-.924a.979.979 0 01.068-.151.948.948 0 01.087-.192 80.725 80.725 0 011.249-2.684 2.094 2.094 0 01.125-.227 1.72 1.72 0 01.1-.209c.2-.381.389-.767.59-1.148.236-.419.479-.834.711-1.268.162-.278.322-.56.488-.843a1.72 1.72 0 01.116-.218c.188-.325.4-.642.611-.963.386-.642.767-1.276 1.182-1.9.055-.085.11-.176.176-.261a51.54 51.54 0 011.66-2.388 59.3 59.3 0 011.181-1.545l1.018-1.263c.335-.407.677-.8 1.02-1.19s.68-.762 1.036-1.138a2.11 2.11 0 01.158-.18c.069-.064.138-.141.2-.209.243-.253.48-.519.719-.745.358-.376.736-.749 1.12-1.113.112-.11.228-.209.343-.312.09-.081.171-.171.265-.253.185-.166.369-.35.553-.509.393-.351.779-.7 1.173-1.035.179-.146.35-.287.548-.437a2.929 2.929 0 01.251-.2 4.637 4.637 0 01.386-.32q.578-.45 1.155-.895c.309-.218.609-.424.916-.634.013-.026.044-.038.069-.056a.811.811 0 00.167-.128c.376-.248.744-.5 1.13-.736s.745-.466 1.113-.685c.1-.056.192-.1.27-.159l73.576-42.481c.286-.158.57-.322.839-.479.373-.184.732-.376 1.087-.552.222-.115.462-.214.685-.32.064-.031.123-.061.189-.09s.132-.069.2-.1c.351-.154.7-.291 1.062-.428a10.491 10.491 0 011.061-.406.627.627 0 01.205-.065.961.961 0 01.1-.046c.256-.082.5-.167.752-.236.369-.123.732-.222 1.092-.307.171-.039.343-.087.522-.12.074-.008.146-.03.219-.043a3.39 3.39 0 01.338-.077c.394-.082.788-.138 1.159-.189.248-.038.476-.046.711-.077a2.022 2.022 0 01.223-.021c.086-.008.171-.013.24-.025.427-.031.839-.047 1.258-.047.179 0 .351.025.517.034.141 0 .292.013.424.025s.3 0 .42.013a15.028 15.028 0 011.527.218.341.341 0 00.034 0c.077.017.167.059.253.072a15.761 15.761 0 011.57.432c.044.013.069.043.116.056a11.46 11.46 0 012.007.942l5.544 3.214a13.014 13.014 0 00-2.025-.946 15.272 15.272 0 00-1.606-.453c-.123-.031-.222-.077-.333-.1a14.64 14.64 0 00-1.985-.244c-.129 0-.258-.021-.381-.021a19.286 19.286 0 00-2.038.043c-.077 0-.15.017-.24.017a18.5 18.5 0 00-2.191.348 1.259 1.259 0 00-.223.043 22.542 22.542 0 00-2.328.655c-.059.017-.112.03-.167.051-.821.282-1.669.624-2.529 1.015a.4.4 0 00-.128.056 39.32 39.32 0 00-2.65 1.381l-73.576 42.469a38.102 38.102 0 00-2.644 1.695.922.922 0 00-.18.12 41.872 41.872 0 00-2.4 1.815 5.37 5.37 0 00-.235.188 49.87 49.87 0 00-2.273 1.982l-.253.228a50.17 50.17 0 00-2.234 2.238c-.039.046-.082.085-.125.136-.762.8-1.5 1.644-2.23 2.512a.03.03 0 01-.016.026.68.68 0 01-.086.1 64.036 64.036 0 00-3.956 5.36c-.36.547-.7 1.108-1.036 1.652-.3.5-.633.993-.928 1.5-.112.2-.227.411-.335.612-.491.86-.958 1.716-1.411 2.6-.023.051-.061.1-.087.158a68.662 68.662 0 00-1.468 3.117.916.916 0 01-.047.115c-.44 1-.838 2.016-1.215 3.026-.033.094-.077.205-.11.3a42.445 42.445 0 00-1.036 3.09 49.37 49.37 0 00-.877 3.248 3.009 3.009 0 00-.061.3c-.24 1.01-.45 2.041-.608 3.056 0 .038-.018.094-.018.123a38.145 38.145 0 00-.371 3.056 2.279 2.279 0 00-.031.338 42.477 42.477 0 00-.107 3.013c0 1.01.039 1.977.125 2.91.013.112.026.215.043.313a23.136 23.136 0 00.368 2.5c.013.1.03.205.047.307.166.775.373 1.529.595 2.248.043.15.09.282.141.436.218.642.463 1.263.727 1.862a1.371 1.371 0 00.128.291 16.992 16.992 0 001.083 2 14.974 14.974 0 001.866 2.3c.171.18.351.347.532.522a12.507 12.507 0 002.247 1.7l-5.539-3.206a13.274 13.274 0 01-2.256-1.724c-.175-.163-.342-.33-.509-.506a13.79 13.79 0 01-1.874-2.324 15.736 15.736 0 01-1.049-1.862.731.731 0 00-.047-.123 15.93 15.93 0 01-.115-.279c-.167-.385-.351-.783-.5-1.19-.087-.23-.151-.475-.24-.7a3.623 3.623 0 00-.133-.406 3.736 3.736 0 01-.1-.361 18.761 18.761 0 01-.363-1.4c-.034-.154-.065-.312-.1-.466a2.662 2.662 0 01-.069-.376 4.411 4.411 0 01-.1-.479c-.082-.424-.142-.852-.206-1.3-.03-.235-.038-.484-.059-.719-.018-.085-.026-.176-.034-.253-.008-.107-.026-.209-.026-.32-.043-.407-.068-.839-.085-1.259s-.03-.846-.03-1.284v-.085c-.01-.374-.01-.776.003-1.174z"/><path class="s" d="M282.504 92.881c-14.63 8.449-26.425 28.9-26.375 45.708.035 16.277 11.253 23.982 25.266 15.9a33.68 33.68 0 001.276-.782c11.3-7.222 30.24-20.707 46.813-30.274 9.39-5.423 18.011-9.587 24.054-10.641 13.025-2.273 9.69 20.049 9.511 21.221a258.994 258.994 0 0018.824-60.894c.163-.77.274-1.524.364-2.281.1-.676.15-1.054.15-1.066a41.465 41.465 0 00.243-4.217c-.051-16.8-11.937-23.57-26.55-15.139z"/><g class="i"><path class="j" d="M414.026 44.921A44.927 44.927 0 11369.105 0a44.935 44.935 0 0144.921 44.921z"/><path class="k" d="M407.017 45.398a37.919 37.919 0 11-37.911-37.91 37.925 37.925 0 0137.911 37.91z"/><path class="l" d="M400.009 45.876a30.91 30.91 0 11-30.9-30.9 30.915 30.915 0 0130.9 30.9z"/><path class="m" d="M393 46.353a23.9 23.9 0 11-23.894-23.893A23.906 23.906 0 01393 46.353z"/><path class="n" d="M385.99 46.83a16.893 16.893 0 11-16.885-16.882A16.9 16.9 0 01385.99 46.83z"/><path class="o" d="M378.983 47.307a9.885 9.885 0 11-9.877-9.873 9.887 9.887 0 019.877 9.873z"/><path class="p" d="M371.973 47.785a2.876 2.876 0 11-2.867-2.864 2.876 2.876 0 012.867 2.864z"/></g><g class="i"><path class="j" d="M335.378 203.926a66 66 0 11-65.993-65.983 66 66 0 0165.993 65.983z"/><path class="k" d="M325.082 204.629a55.7 55.7 0 11-55.7-55.689 55.706 55.706 0 0155.7 55.689z"/><path class="l" d="M314.784 205.331a45.4 45.4 0 11-45.4-45.394 45.406 45.406 0 0145.4 45.394z"/><path class="m" d="M304.488 206.034a35.108 35.108 0 11-35.1-35.1 35.107 35.107 0 0135.1 35.1z"/><path class="n" d="M294.191 206.736a24.811 24.811 0 11-24.806-24.805 24.809 24.809 0 0124.806 24.805z"/><path class="o" d="M283.894 207.439a14.515 14.515 0 11-14.509-14.51 14.51 14.51 0 0114.509 14.51z"/><path class="p" d="M273.598 208.142a4.218 4.218 0 11-4.212-4.216 4.211 4.211 0 014.212 4.216z"/></g><path d="M278.135 120.779l.026 8.145-1.9 1.1-.021-8.15zm-7.559 4.361l.026 8.162-1.888 1.083-.025-8.158zm17.639-10.182l.03 8.158-1.892 1.091-.03-8.154zm-3.801-2.885l.047 18.092-1.871 1.091-.051-18.092zm-10.063 5.821l.052 18.092-1.9 1.091-.056-18.088zm6.909-7.992l.085 26.781-1.883 1.1-.069-26.79zm68.034-30.573l.034 8.171-1.9 1.083-.026-8.154zm-7.556 4.366l.021 8.162-1.892 1.1-.017-8.171zm17.643-10.183l.022 8.167-1.9 1.087-.017-8.162zm-3.801-2.876l.047 18.092-1.883 1.083-.052-18.1zm-10.084 5.812l.047 18.093-1.875 1.083-.051-18.092zm6.922-7.969l.068 26.764-1.866 1.074-.081-26.764zm10.738 3.214l.03 12.669-1.892 1.083-.035-12.661zm10.067-5.812l.034 8.15-1.9 1.1-.034-8.163zm-3.791-2.885l.047 18.088-1.892 1.087-.043-18.088zm-3.164-2.174l.086 26.781-1.888 1.087-.068-26.781zm-70.525 42.541l.039 15.391-1.875 1.091-.052-15.4zm10.101 1.416l.039 15.563-1.883 1.083-.043-15.555zm-3.79-2.885l.051 18.088-1.888 1.1-.06-18.088zm11.324-10.525l.043 17.206-1.9 1.087-.043-17.211zm-3.762 6.16l.056 18.084-1.9 1.1-.056-18.084zm-17.643 10.182l.059 18.1-1.892 1.083-.06-18.084zm6.917-7.978l.073 26.777-1.862 1.079-.086-26.777zm22.077-3.677l.017 8.145-1.892 1.1-.03-8.15zm10.075-5.821l.034 15.55-1.892 1.091-.034-15.55zm-3.801-2.885l.051 18.1-1.879 1.083-.06-18.092zm11.347-1.477l.03 8.162-1.883 1.083-.03-8.158zm-3.757 6.151l.021 9.057-1.888 1.092-.026-9.053zm-17.674 1.143l.06 18.1-1.887 1.083-.052-18.1zm6.913-7.974l.086 26.769-1.875 1.087-.077-26.781zm-205.587 93.805l.03 8.877-2.063 1.194-.021-8.881zm-8.235 4.751l.026 8.894-2.05 1.181-.03-8.89zm19.227-11.094l.034 8.886-2.068 1.19-.034-8.886zm-4.147-3.146l.056 19.714-2.042 1.194-.051-19.719zm-10.967 6.343l.056 19.715-2.063 1.19-.06-19.715zm7.529-8.706l.094 29.182-2.05 1.194-.077-29.2zm74.151-33.321l.034 8.9-2.063 1.181-.03-8.89zm-8.24 4.751l.03 8.9-2.063 1.2-.017-8.907zm19.235-11.094l.021 8.9-2.076 1.186-.017-8.9zm-4.143-3.133l.052 19.719-2.055 1.177-.06-19.723zm-10.996 6.335l.056 19.719-2.046 1.181-.051-19.719zm7.546-8.689l.077 29.174-2.037 1.169-.086-29.17zm11.706 3.508l.03 13.808-2.059 1.182-.042-13.8zm10.971-6.333l.034 8.877-2.063 1.194-.039-8.89zm-4.132-3.146l.047 19.71-2.059 1.186-.047-19.71zm-3.448-2.367l.09 29.187-2.055 1.186-.077-29.187zm-76.86 46.358l.043 16.774-2.05 1.19-.051-16.783zm11.009 1.546l.039 16.958-2.05 1.186-.052-16.958zm-4.135-3.146l.051 19.715-2.05 1.194-.068-19.714zm12.344-11.471l.047 18.751-2.067 1.186-.052-18.756zm-4.1 6.715l.056 19.71-2.063 1.194-.066-19.705zm-19.227 11.095l.065 19.723-2.067 1.181-.06-19.714zm7.534-8.693l.085 29.182-2.033 1.173-.094-29.182zm24.066-4.011l.017 8.877-2.059 1.2-.034-8.886zm10.975-6.343l.038 16.95-2.063 1.19-.034-16.945zm-4.139-3.142l.056 19.727-2.05 1.177-.064-19.714zm12.365-1.613l.03 8.9-2.046 1.181-.039-8.894zm-4.095 6.711l.021 9.862-2.055 1.194-.03-9.866zm-19.261 1.241l.06 19.723-2.05 1.181-.056-19.723zm7.538-8.685l.085 29.169-2.037 1.186-.09-29.182zm-26.425 160.272l.038 11.95-2.778 1.609-.026-11.955zm-11.082 6.394l.034 11.972-2.765 1.596-.039-11.963zm25.873-14.929l.043 11.963-2.778 1.6-.047-11.954zm-5.582-4.233l.073 26.533-2.743 1.605-.077-26.537zm-14.757 8.539l.073 26.528-2.778 1.609-.077-26.533zm10.135-11.72l.12 39.275-2.757 1.609-.107-39.3zm99.793-44.843l.047 11.98-2.778 1.592-.043-11.968zm-11.087 6.395l.043 11.976-2.778 1.614-.026-11.989zm25.888-14.934l.026 11.976-2.791 1.6-.022-11.976zm-5.577-4.22l.064 26.541-2.76 1.584-.081-26.542zm-14.797 8.531l.073 26.537-2.752 1.588-.073-26.542zm10.153-11.7l.1 39.266-2.739 1.571-.12-39.254zm15.756 4.723l.038 18.58-2.769 1.588-.056-18.572zm14.761-8.521l.051 11.95-2.778 1.605-.051-11.963zm-5.559-4.234l.068 26.529-2.774 1.6-.06-26.533zm-4.64-3.185l.124 39.284-2.769 1.592-.1-39.284zm-103.444 62.388l.06 22.578-2.761 1.605-.073-22.591zm14.813 2.08l.056 22.831-2.761 1.592-.068-22.822zm-5.563-4.228l.073 26.533-2.761 1.6-.09-26.533zm16.615-15.444l.06 25.236-2.777 1.6-.069-25.245zm-5.525 9.04l.081 26.529-2.782 1.605-.082-26.52zm-25.873 14.934l.081 26.546-2.773 1.588-.09-26.533zm10.138-11.706l.116 39.279-2.735 1.579-.12-39.275zm32.385-5.389l.03 11.946-2.769 1.609-.047-11.955zm14.783-8.534l.051 22.809-2.782 1.605-.043-22.813zm-5.568-4.234l.073 26.55-2.765 1.584-.085-26.533zm16.642-2.174l.039 11.98-2.757 1.584-.052-11.967zm-5.514 9.031l.025 13.277-2.769 1.6-.038-13.273zm-25.925 1.669l.082 26.55-2.761 1.588-.073-26.546zm10.144-11.689l.115 39.258-2.743 1.592-.12-39.275z" fill="#3f80ff"/><path class="u" d="M343.267 258.9c-5.629-.184-9.459 18.045-14.96 32.5l-26.742-11.745a38.889 38.889 0 01-4.4-6.189c-1.163-2.491-2.388-2.706-2.936-2.637-.552.09.125 1.7.262 2.821.089 1.151 1.922 3.291.478 3.009s-8.089-4.125-9.8-2.841c-.779.6-2.158.158 2.046 4.866 2.966 3.373 8.06 5.508 10.709 6.442 12.759 12.318 30.839 19.706 30.839 19.706v-.013a7.8 7.8 0 004.229-.218c8.955-7.109 13.684-21.662 15.477-35.242 1.278-9.697-5.202-10.459-5.202-10.459z"/><path class="v" d="M341.109 257.941c2.906-.877 8.441-.2 8.441 8.7s-.291 11.95-3.317 19.187c-1.476 3.583-12.185 1.949-15.006-3.881-1.635-3.405 4.087-22.243 9.882-24.006z"/><path d="M275.699 435.283c-21.31 12.3-21.453 32.281-.244 44.587 21.175 12.313 55.63 12.313 76.954 0s21.422-32.286.248-44.558c-21.209-12.339-55.651-12.339-76.958-.029z" opacity=".1"/><path d="M321.995 436.031s-5.27.78-3.972 3.8c1.263 3.051 7.319 7.653 8.094 9.57.817 1.9 5.752 8.766 7.331 8.145 1.622-.655 5.752.312 5.256-7.5-.471-7.826-9.695-14.361-16.709-14.015zM311.948 464.7s2.552 7.486-3.818 9.242-4.472-2.226-18.332 1.288-15.461-3.68-15.152-5.265 9.579-4.477 12.622-5.265c3.01-.792 8.749-2.229 8.749-2.229h16.445z" fill="#111114"/><path class="y" d="M338.135 333.194s.077 45.241.077 50.339c0 5.081 5.7 45.229 2.289 62.774 0 0-9.879 9.883-18.589 0 0 0-2.8-50.271-5.32-61.6s-1.687-46.038-1.687-46.038z"/><path class="y" d="M320.843 339.608s-2.248 29.229-4.568 58.18c0 0-1.489 57.5-2.824 65.791 0 0-18.542 4.614-20.4-4.135 0 0 .488-50.613 0-61.188-.445-10.569-1.545-40.063 2.641-57.094 4.169-17.002 25.151-1.554 25.151-1.554z"/><path d="M313.45 463.578c1.335-8.286 2.824-65.791 2.824-65.791 1.558-19.491 3.082-39.09 3.9-49.834l-11.454 2.8s-8.247 21.68-6.984 54.2c.98 25.163 1.383 49.9 1.506 59.828a46.835 46.835 0 0010.208-1.203zm27.052-17.274c3.411-17.545-2.289-57.693-2.289-62.774 0-4.866-.069-46.12-.077-50.026l-9.956 7.657s-3.133 32.345 0 50.767c2.885 16.787 1.044 49.415 2.435 58.78 5.517.001 9.887-4.404 9.887-4.404z" fill="#77d2ff"/><path class="aa" d="M342.979 256.384s8.5 4.464 3.339 18.987-8.774 23.9-8.611 29.345c.189 5.444 1.819 23.832 2.9 27.573 0 0 1.2 12.065-26.434 18.683 0 0-22.686 1.828-18.658-12.991s5.923-38.847 5.453-44.591c-.441-5.752-3.665-17.275 10.824-24.726s22.054-13.03 31.187-12.28z"/><path class="v" d="M300.97 293.39c.47 5.744-1.438 29.769-5.453 44.591-2.787 10.294 7.242 12.554 13.688 12.961 2.179-6.6-1.053-18.53 4.011-32.949 6.224-17.818 5.637-29.692 2.657-39.326-1.908-6.219-5.646-6.468-8.268-7.4-9.602 7.33-7.038 17.004-6.635 22.123z"/><path class="aa" d="M340.608 332.289c-1.082-3.741-2.713-22.129-2.9-27.573-.163-5.449 3.578-14.8 8.611-29.345 4.777-13.774-.411-17.5-3.339-18.987-1.644 7.147-26.529 9.669-26.049 14.476.586 5.345 7.119 10.465 7.306 20.023s-1.317 23.665-3.141 30.7c-1.558 6.125-1.121 20.986.138 27.386 20.363-6.765 19.374-16.68 19.374-16.68z"/><path class="u" d="M332.947 248.966s-1.071 7.618 1.459 12.446c2.307 4.392-15.755 7.991-16.1 3.954a17.307 17.307 0 00-.646-14.8c-2.198-4.13 15.287-1.6 15.287-1.6z"/><path d="M334.321 261.674c-1.87-3.608-1.78-8.718-1.583-11.1l-13.269 6.25v.038c.5.115 9.3 2.542 11.086 8.976 2.743-1.066 4.588-2.555 3.766-4.164z" fill="#dd9569"/><path class="u" d="M314.417 228.31s-2.931 6.891-2.5 12.853c.475 6.442-.527 7.726-.176 10.589.154 1.217.227 3.066 1.387 4.233 1.959 1.956 6.038 2.731 11.6.836 6.715-2.328 13.966-11.386 11.282-19.724-2.705-8.342-11.385-15.336-21.593-8.787z"/><path d="M335.524 246.038c-2.53-7.5-9.005-16.574-8.928-17.062.03-.281-2.166-1.7-4.632-3.239a15.153 15.153 0 00-7.546 2.572 37.308 37.308 0 00-1.489 4.447c1.571 1.806 4.78 3.9 5.256 5.419a19.43 19.43 0 01-.809 11.368c-1.1 2.362 3.107 5.94 2.192 8.055a.325.325 0 00-.048.274 19.1 19.1 0 005.214-1.053c4.31-1.489 8.786-5.739 10.79-10.781z" fill="#e6a376"/><path d="M307.548 225.737s5.38 6.012 9.661 8.594c3.339 2.033 3.046 7.452 2.854 8.5-.167 1.054-1.314 5.83-.895 6.434.8 1.186 3.617-2.422 4.931-2.149 3.321.706 1.939 3.793-1.156 6.986-3.278 3.4 5.163 4.974 9.134 2.209 2.119-1.473 2.885-2.366 5.744-7.756 4.127-7.854 4.516-17.361-4.755-22.638-9.245-5.252-21.974-2.153-25.518-.18z" fill="#221101"/><path d="M332.077 256.315c2.119-1.473 3.746-2.008 6.554-7.4 4.135-7.846 5.128-21.1-5.488-24.68-10.114-3.407-23.373-.373-25.595 1.507 0 0 6.262 1.869 6.463 3.239 2.948.548 9.523 1.139 11.548 4.683 2.5 4.34 5.393 3.026 5.063 8.35-.312 5.145.886 11.92-7.815 14.664 3.184 2.351 7.734.707 9.27-.363z" fill="#341c09"/><path d="M319.358 263.001l-5.949 4.824s18.131 5.59 23.648-3.248c.766-1.254-.069-5.509-3.21-6.352-.001 0-.781 7.259-14.489 4.776z" fill="#def0f9"/><path class="u" d="M308.703 272.224c-5.636-.167-9.472 18.05-14.972 32.521l-26.742-11.774a37.819 37.819 0 01-4.388-6.176c-1.177-2.461-2.4-2.7-2.953-2.619s.166 1.695.248 2.82c.1 1.122 1.939 3.279.492 2.979-1.43-.291-8.086-4.1-9.8-2.812-.783.586-2.122.154 2.021 4.866 3.009 3.347 8.094 5.488 10.756 6.429 12.738 12.323 30.83 19.706 30.83 19.706v-.008a7.847 7.847 0 004.233-.24c8.933-7.105 13.662-21.653 15.451-35.221 1.279-9.698-5.176-10.471-5.176-10.471z"/><path class="aa" d="M306.539 271.27c2.905-.873 8.444-.205 8.444 8.693s-.291 11.945-3.312 19.2c-1.473 3.59-12.2 1.93-15.024-3.9-1.614-3.392 4.108-22.242 9.892-23.993z"/></svg>