<svg xmlns="http://www.w3.org/2000/svg" xmlns:xlink="http://www.w3.org/1999/xlink" width="456.297" height="296.601" viewBox="0 0 456.297 296.601"><defs><style>.a{opacity:0.2;}.b{fill:#8fedff;}.c{fill:#c5f9ff;}.d{fill:#3f80ff;}.e{fill:#65d2e0;}.f{fill:#2b6be8;}.g{opacity:0.1;}.h{fill:#d66767;}.i{fill:url(#a);}.j{fill:#842c22;}.k,.m{isolation:isolate;}.l{fill:#993328;}.m{mix-blend-mode:overlay;}.n,.p,.r,.t,.v,.x,.z{fill:#fff;}.n{opacity:0.3;}.o{opacity:0.833;}.p{opacity:0.417;}.q{opacity:0.667;}.r{opacity:0.533;}.s{opacity:0.5;}.t{opacity:0.65;}.u{opacity:0.333;}.v{opacity:0.767;}.w{opacity:0.167;}.x{opacity:0.883;}.y{opacity:0;}.aa{fill:#ffc0c8;}.ab{fill:#fddbde;}.ac{fill:#f1b287;}.ad{fill:#5fb9e6;}.ae{fill:#77d2ff;}.af{fill:#92e3fc;}.ag{fill:#e8a476;}.ah{fill:#d69061;}.ai{fill:#231202;}</style><linearGradient id="a" y1="0.5" x2="1" y2="0.5" gradientUnits="objectBoundingBox"><stop offset="0" stop-color="#e3d969"/><stop offset="0.154" stop-color="#e4be70"/><stop offset="0.404" stop-color="#e6997b"/><stop offset="0.636" stop-color="#e77e83"/><stop offset="0.842" stop-color="#e86d88"/><stop offset="1" stop-color="#e9688a"/></linearGradient></defs><g transform="translate(-260.713 -47.839)"><g class="a" transform="translate(260.713 115.239)"><path d="M650.8,138.7c5.818,3.332,5.841,8.739.1,12.1l-11.431,6.695L427.488,281.534,409.8,291.886c-5.733,3.351-15.057,3.378-20.848.058L265.081,220.921c-5.783-3.316-5.834-8.727-.1-12.078L506.059,67.757c5.748-3.359,15.084-3.394,20.887-.074Z" transform="translate(-260.713 -65.216)"/></g><g transform="translate(277.027 103.932)"><path class="b" d="M367.324,80.9a5.194,5.194,0,0,1-.217,1.373.229.229,0,0,0-.043.14,5.992,5.992,0,0,1-.655,1.245,1.318,1.318,0,0,0-.132.206,8.3,8.3,0,0,1-1.067,1.179c-.271.237-.617.462-.935.694-.287.2-.52.4-.83.582l-10.337,6.008-.043,17.388,10.329-6a1.166,1.166,0,0,1,.171-.1c.237-.151.415-.314.636-.465a9.2,9.2,0,0,0,.958-.718.247.247,0,0,0,.081-.074,7.174,7.174,0,0,0,.838-.888,1.851,1.851,0,0,0,.144-.213c.054-.078.093-.136.132-.2a4,4,0,0,0,.264-.38c.132-.248.252-.508.357-.756a.3.3,0,0,0,.016-.12.31.31,0,0,0,.05-.132,2.3,2.3,0,0,0,.14-.5,5.2,5.2,0,0,0,.1-.768v-.112c.008-5.05.008-10.112.035-15.158l.008-2.106Z" transform="translate(-11.167 -8.746)"/><path class="b" d="M399.286,166.828a15.482,15.482,0,0,1-2.634,1.16c-.314.112-.648.206-.993.314-.438.112-.88.225-1.319.318-.543.109-1.078.217-1.641.287-.124.016-.252.047-.376.054-.749.078-1.5.116-2.254.124-.124,0-.217.008-.322,0a21.672,21.672,0,0,1-2.246-.124c-.1-.008-.206-.023-.3-.039a17.206,17.206,0,0,1-2.161-.368c-.116-.027-.244-.062-.365-.089a16.933,16.933,0,0,1-1.873-.566c-.1-.035-.21-.066-.318-.1a15.444,15.444,0,0,1-2.005-.97l-111.583-64.4c-2.626-1.524-3.937-3.514-3.929-5.5l-.047,17.377c-.023,1.99,1.3,3.976,3.937,5.5l111.556,64.406a16.915,16.915,0,0,0,1.924.915c.039.019.078.027.109.043.1.039.213.066.322.1.392.147.772.279,1.2.4a6.7,6.7,0,0,0,.667.163c.12.035.24.066.368.093a2.478,2.478,0,0,0,.353.085c.427.093.869.171,1.315.233.151.016.314.031.465.054.12.016.229.019.349.039.147.008.314.035.473.05.434.027.877.066,1.307.074h1.358c.5-.016.989-.058,1.482-.116a.6.6,0,0,0,.175-.027c.116,0,.248-.027.372-.043.384-.043.768-.093,1.14-.155.171-.035.326-.093.485-.12.458-.1.9-.213,1.346-.334.221-.062.465-.1.7-.167a1.662,1.662,0,0,1,.307-.132,17.26,17.26,0,0,0,2.626-1.16l15.965-9.3.058-17.373Z" transform="translate(-264.919 37.386)"/><g transform="translate(0.046)"><path class="c" d="M617.112,128.974c5.217,3.01,5.24,7.889.05,10.9l-10.337,6.008L415.24,257.232l-15.988,9.282c-5.186,3.014-13.607,3.014-18.808,0l-111.583-64.4c-5.217-3.025-5.244-7.9-.054-10.911l217.9-126.633c5.182-3.022,13.614-3.022,18.847-.008Z" transform="translate(-264.931 -62.3)"/></g><path class="d" d="M461.652,64.433l-191.6,111.347,130.456,75.313L592.093,139.746Z" transform="translate(-250.151 -56.163)"/><g transform="translate(262.579 27.986)"><path class="e" d="M378.916,92.626c1.4.811,1.435,2.451-.617,3.522-1.424.741-3.219,1.323-4.616.524l-40.56-23.036c-1.4-.807.4-2.711,1.788-3.518a5.538,5.538,0,0,1,5.023,0Z" transform="translate(-332.616 -69.516)"/></g><g transform="translate(262.607 29.031)"><path class="b" d="M377.67,92.9c1.4.8,1.412,2.118.035,2.913a5.587,5.587,0,0,1-5.046,0l-39-22.508c-1.389-.8-1.381-2.114,0-2.921a5.551,5.551,0,0,1,5.023,0Z" transform="translate(-332.623 -69.785)"/></g><g transform="translate(150.297 83.583)"><path class="f" d="M495.312,83.85l-.041,17.39-191.6,111.332.057-17.375Z" transform="translate(-303.668 -83.85)"/></g><g transform="translate(60.266 157.374)"><path class="b" d="M300.938,104.91c4.7,2.723,4.732,7.137.066,9.856-4.686,2.711-12.292,2.7-16.985,0-4.713-2.731-4.759-7.129-.085-9.852S296.233,102.2,300.938,104.91Z" transform="translate(-280.456 -102.874)"/></g></g><g transform="translate(353.024 142.651)"><g class="g" transform="translate(0 10.972)"><path d="M398.383,124.838c5.81,3.355,5.853,8.8.074,12.156l-6.8,3.952c-5.783,3.359-15.178,3.355-20.992,0l-81.76-47.2c-5.826-3.359-5.857-8.8-.074-12.164l6.8-3.945c5.783-3.363,15.174-3.363,20.992,0Z" transform="translate(-284.512 -75.112)"/></g><g class="g" transform="translate(118.258 74.101)"><path d="M348.525,94.721c7.711,4.453,7.754,11.663.093,16.112s-20.107,4.453-27.811,0-7.746-11.659-.1-16.112S340.822,90.276,348.525,94.721Z" transform="translate(-315.001 -91.388)"/></g><path class="h" d="M403.074,120.373c-.019.054-.031.112-.047.163a6.64,6.64,0,0,1-.706,1.381c-.054.081-.1.167-.167.244a9.057,9.057,0,0,1-1.175,1.3,10.221,10.221,0,0,1-1.051.776,9.35,9.35,0,0,1-.915.652l-6.8,3.952a16.771,16.771,0,0,1-2.925,1.288c-.365.12-.737.233-1.113.341-.492.132-.981.26-1.489.365-.6.128-1.206.24-1.823.314-.132.019-.275.047-.419.062a24.611,24.611,0,0,1-2.513.136c-.128,0-.248,0-.376,0a23.016,23.016,0,0,1-2.479-.136c-.12-.012-.244-.027-.361-.043a23.248,23.248,0,0,1-2.4-.407c-.136-.031-.271-.066-.411-.1a17.806,17.806,0,0,1-2.083-.64c-.116-.035-.233-.07-.337-.112a15.853,15.853,0,0,1-2.273-1.067l-81.76-47.2c-2.925-1.7-4.391-3.91-4.383-6.124l-.016,6.051c0,2.219,1.454,4.433,4.379,6.121L371.2,134.887a15.627,15.627,0,0,0,2.145,1.028c.035.016.074.023.116.039.124.05.264.085.392.132.419.155.849.31,1.3.438.24.066.485.12.733.178.143.035.283.078.43.109.128.023.252.066.384.089.481.1.974.186,1.47.256.174.027.357.043.539.062.116.016.229.031.349.039.182.019.365.047.555.062.489.043.977.07,1.458.078.155.008.31,0,.458,0h.4c.225,0,.442,0,.663,0,.555-.019,1.1-.058,1.652-.109.058-.008.116-.023.178-.031.147-.012.295-.043.442-.058.427-.054.861-.1,1.272-.178.175-.031.341-.1.528-.132.5-.1,1-.229,1.485-.368.264-.074.539-.116.791-.2.12-.043.221-.109.333-.147a16.669,16.669,0,0,0,2.928-1.284L399,130.939c.054-.035.116-.07.186-.109.287-.175.5-.376.76-.562a11.814,11.814,0,0,0,1.012-.756c.031-.027.074-.047.1-.074a7.754,7.754,0,0,0,.915-.993,1.523,1.523,0,0,0,.151-.225c.074-.085.116-.175.182-.264.085-.128.186-.26.264-.4a6.167,6.167,0,0,0,.4-.842.732.732,0,0,1,.031-.124c.02-.062.031-.12.047-.175a4.319,4.319,0,0,0,.155-.535,5.272,5.272,0,0,0,.1-.857V124.9q.006-3.025.016-6.051A5.366,5.366,0,0,1,403.074,120.373Z" transform="translate(-282.935 -62.999)"/><g transform="translate(2.141)"><path class="i" d="M398.94,122.016c5.81,3.347,5.845,8.793.062,12.152l-6.8,3.952c-5.787,3.359-15.189,3.355-21,0l-81.76-47.2c-5.818-3.359-5.849-8.8-.062-12.16l6.8-3.949c5.776-3.367,15.17-3.367,20.988,0Z" transform="translate(-285.064 -72.283)"/></g><g transform="translate(16.598 6.228)"><g transform="translate(64.696 37.538)"><path class="j" d="M324.728,83.994a1.079,1.079,0,0,1,.012,2.04L309.729,94.75a3.863,3.863,0,0,1-3.522,0,1.078,1.078,0,0,1-.012-2.04L321.2,83.994A3.847,3.847,0,0,1,324.728,83.994Z" transform="translate(-305.471 -83.567)"/></g><g transform="translate(58.7 40.667)"><path class="j" d="M311.809,84.775c.927.535.946,1.416.023,1.951L308,88.96a3.751,3.751,0,0,1-3.371-.008,1.029,1.029,0,0,1-.008-1.947l3.836-2.23A3.706,3.706,0,0,1,311.809,84.775Z" transform="translate(-303.925 -84.373)"/></g><g transform="translate(52.92 35.099)"><path class="j" d="M314.153,83.346c.931.539.939,1.408.012,1.943l-7.672,4.457a3.706,3.706,0,0,1-3.355,0,1.033,1.033,0,0,1-.019-1.951l7.668-4.453A3.694,3.694,0,0,1,314.153,83.346Z" transform="translate(-302.435 -82.938)"/></g><g transform="translate(46.889 27.719)"><path class="j" d="M319.423,81.418c.892.52.9,1.342.008,1.858l-14.685,8.537a3.538,3.538,0,0,1-3.2,0,.981.981,0,0,1-.012-1.854l14.681-8.529A3.517,3.517,0,0,1,319.423,81.418Z" transform="translate(-300.88 -81.035)"/></g><g transform="translate(41.052 31.59)"><path class="j" d="M305.118,82.4a.932.932,0,0,1,.008,1.765l-2.071,1.206a3.361,3.361,0,0,1-3.041,0c-.846-.493-.853-1.276-.012-1.765l2.071-1.206A3.368,3.368,0,0,1,305.118,82.4Z" transform="translate(-299.375 -82.033)"/></g><g transform="translate(35.279 25.283)"><path class="j" d="M308.736,80.771a.928.928,0,0,1,.008,1.753l-7.2,4.181a3.336,3.336,0,0,1-3.029,0,.923.923,0,0,1-.008-1.749l7.2-4.185A3.336,3.336,0,0,1,308.736,80.771Z" transform="translate(-297.887 -80.407)"/></g><g class="k"><path class="j" d="M308.276,74.351a1.179,1.179,0,0,1,0,2.23l-14.844,8.626a4.24,4.24,0,0,1-3.84,0,1.181,1.181,0,0,1-.016-2.234l14.836-8.622A4.256,4.256,0,0,1,308.276,74.351Z" transform="translate(-288.792 -73.889)"/><g transform="translate(6.105 6.03)"><path class="j" d="M305.518,75.907c1.078.617,1.09,1.606.027,2.23l-10.531,6.121a4.24,4.24,0,0,1-3.851-.008,1.177,1.177,0,0,1-.016-2.223l10.538-6.121A4.188,4.188,0,0,1,305.518,75.907Z" transform="translate(-290.365 -75.443)"/></g><g transform="translate(11.732 6.961)"><path class="j" d="M311.291,76.143a1.175,1.175,0,0,1,.012,2.223l-14.84,8.626a4.228,4.228,0,0,1-3.84,0,1.175,1.175,0,0,1-.016-2.226l14.84-8.622A4.248,4.248,0,0,1,311.291,76.143Z" transform="translate(-291.816 -75.683)"/></g><g transform="translate(17.369 14.483)"><path class="j" d="M304.986,78.027a1.033,1.033,0,0,1,.023,1.951l-7.672,4.453a3.718,3.718,0,0,1-3.367-.008,1.026,1.026,0,0,1-.008-1.943l7.664-4.453A3.69,3.69,0,0,1,304.986,78.027Z" transform="translate(-293.269 -77.623)"/></g><g transform="translate(29.144 16.92)"><path class="j" d="M315.554,78.673c.974.57.981,1.482.019,2.04l-15.007,8.719a3.9,3.9,0,0,1-3.526,0,1.08,1.08,0,0,1-.012-2.044l15-8.719A3.9,3.9,0,0,1,315.554,78.673Z" transform="translate(-296.305 -78.251)"/></g></g><g transform="translate(23.156 20.049)"><path class="j" d="M302.652,79.459a1.031,1.031,0,0,1,0,1.951l-3.824,2.223a3.69,3.69,0,0,1-3.359,0c-.931-.535-.946-1.408-.027-1.947l3.832-2.223A3.742,3.742,0,0,1,302.652,79.459Z" transform="translate(-294.762 -79.058)"/></g><g transform="translate(76.6 52.202)"><path class="j" d="M314.288,87.711a.93.93,0,0,1,0,1.761l-2.071,1.214a3.369,3.369,0,0,1-3.045,0,.932.932,0,0,1-.008-1.765l2.075-1.21A3.369,3.369,0,0,1,314.288,87.711Z" transform="translate(-308.54 -87.347)"/></g><g transform="translate(70.831 45.907)"><path class="j" d="M317.9,86.088a.927.927,0,0,1,.008,1.753l-7.2,4.189a3.348,3.348,0,0,1-3.018,0c-.842-.489-.85-1.276-.016-1.761l7.2-4.181A3.328,3.328,0,0,1,317.9,86.088Z" transform="translate(-307.053 -85.724)"/></g></g><g transform="translate(118.243 62.709)"><path class="h" d="M354.3,92.056c-.023.206-.039.415-.074.624-.031.167-.082.334-.128.5a4.581,4.581,0,0,1-.171.586c-.054.163-.132.322-.2.481-.085.206-.178.407-.287.613-.074.143-.171.295-.264.446-.143.221-.291.45-.454.667-.1.14-.217.272-.322.407a11.655,11.655,0,0,1-.826.888c-.112.109-.217.221-.341.33-.178.159-.384.318-.582.477s-.365.31-.574.458-.438.3-.663.446c-.256.171-.508.337-.783.5a21.328,21.328,0,0,1-2.75,1.3c-.252.1-.5.2-.752.287-.6.217-1.234.4-1.866.566s-1.28.349-1.939.485c-.8.167-1.6.318-2.416.419-.19.027-.38.058-.57.078a32.385,32.385,0,0,1-3.312.182c-.171,0-.349.008-.524,0-1.094-.012-2.172-.066-3.258-.182-.159-.016-.33-.031-.493-.054a31,31,0,0,1-3.157-.539l-.57-.14q-1.4-.355-2.734-.83c-.151-.062-.318-.1-.477-.163a20.794,20.794,0,0,1-2.991-1.416c-3.882-2.234-5.822-5.174-5.814-8.11q-.012,3.025-.008,6.051c-.012,2.932,1.92,5.868,5.8,8.114a22.086,22.086,0,0,0,2.843,1.358.89.89,0,0,0,.163.054c.151.058.318.1.477.159.57.213,1.144.423,1.741.6.322.089.656.155.981.237.194.043.372.093.562.14.175.035.341.089.516.124.636.136,1.284.244,1.943.337.237.035.465.05.694.074.178.019.341.043.516.058.233.027.469.066.7.081.652.05,1.292.085,1.947.1.194,0,.4,0,.6,0h.543c.287-.008.586.008.873-.008.729-.023,1.458-.07,2.176-.143.085-.008.167-.027.248-.035.2-.019.384-.054.59-.085.562-.07,1.121-.132,1.676-.233.24-.043.465-.124.71-.175.671-.14,1.323-.3,1.97-.489.341-.1.71-.151,1.043-.26.271-.089.524-.206.8-.3.252-.093.512-.19.764-.287a21.773,21.773,0,0,0,2.742-1.3l.244-.147c.175-.109.33-.217.5-.337.244-.155.489-.31.714-.473.2-.14.376-.295.566-.442s.4-.322.582-.485l.132-.1c.078-.078.136-.155.209-.233a10,10,0,0,0,.814-.873c.062-.07.136-.136.194-.2s.085-.144.14-.213c.159-.221.31-.442.454-.667.058-.1.14-.2.194-.295.031-.054.047-.109.074-.159.1-.19.182-.392.272-.578.058-.132.132-.256.182-.384.016-.047.019-.089.035-.136a5.7,5.7,0,0,0,.159-.559c.039-.144.093-.275.12-.411a.793.793,0,0,1,.012-.109c.035-.209.054-.415.07-.624.016-.132.047-.264.054-.4v-.171l.016-6.055C354.347,91.676,354.316,91.866,354.3,92.056Z" transform="translate(-314.997 -80.037)"/><g transform="translate(0.015)"><path class="i" d="M348.525,91.784c7.711,4.453,7.754,11.663.093,16.112s-20.107,4.449-27.811,0-7.746-11.659-.1-16.112S340.822,87.339,348.525,91.784Z" transform="translate(-315.001 -88.451)"/></g><g transform="translate(8.651 4.961)"><path class="l" d="M329.743,89.729l6.878,11.216L317.228,97Z" transform="translate(-317.228 -89.729)"/></g></g></g><g transform="translate(454.534 138.007)"><g class="g" transform="translate(33.682 32.15)"><path d="M433.239,129.1c5.81,3.351,5.849,8.8.066,12.16l-6.8,3.952c-5.776,3.363-15.181,3.355-20.988,0L323.75,98.006c-5.818-3.363-5.849-8.8-.066-12.16l6.8-3.952c5.779-3.359,15.174-3.359,21,0Z" transform="translate(-319.367 -79.374)"/></g><g class="g" transform="translate(0.014 11.392)"><path d="M344.216,77.359c7.7,4.449,7.746,11.663.085,16.112-7.645,4.453-20.1,4.453-27.81,0s-7.746-11.663-.085-16.112S336.513,72.911,344.216,77.359Z" transform="translate(-310.687 -74.023)"/></g><path class="h" d="M349.982,74.688a4.93,4.93,0,0,1-.07.628c-.031.167-.081.337-.124.5-.054.194-.1.388-.167.586-.058.163-.136.322-.206.485-.093.2-.178.4-.287.6-.078.151-.182.3-.271.45a7.909,7.909,0,0,1-.454.675c-.1.132-.209.272-.318.4a11.715,11.715,0,0,1-.83.884,3.865,3.865,0,0,1-.338.33c-.178.167-.384.322-.578.481s-.372.306-.574.454-.446.3-.667.446c-.26.171-.5.341-.787.5a20.173,20.173,0,0,1-2.75,1.3c-.24.1-.493.2-.745.287-.605.221-1.245.4-1.87.57-.64.178-1.28.349-1.935.485-.8.163-1.6.314-2.42.419-.19.023-.376.054-.574.078-1.094.116-2.2.175-3.3.186h-.527c-1.094-.008-2.188-.07-3.266-.182-.167-.016-.33-.035-.5-.058a30.684,30.684,0,0,1-3.142-.539c-.2-.043-.38-.093-.57-.136a26.648,26.648,0,0,1-2.731-.83c-.163-.062-.33-.1-.481-.163a21.79,21.79,0,0,1-3-1.416c-3.871-2.238-5.814-5.174-5.807-8.11,0,2.013-.008,4.034-.012,6.047-.016,2.936,1.928,5.872,5.806,8.114a21.216,21.216,0,0,0,2.832,1.361c.054.019.109.035.159.05.155.062.322.109.473.159.582.213,1.156.427,1.757.6.318.089.652.159.977.237.194.047.38.1.57.14.167.039.334.093.5.124.64.136,1.3.248,1.947.337.229.035.465.05.694.081.171.019.345.039.52.054.233.027.465.062.7.078.644.058,1.292.093,1.939.109.2,0,.4,0,.6,0,.186,0,.365,0,.539,0,.291,0,.582,0,.873-.008.729-.023,1.462-.074,2.184-.147.078,0,.163-.023.244-.031.2-.019.388-.058.59-.081.555-.074,1.121-.136,1.672-.233.248-.047.469-.128.714-.178.675-.14,1.323-.306,1.97-.493.345-.1.706-.147,1.036-.26.283-.085.539-.2.8-.3s.508-.19.768-.287a21.375,21.375,0,0,0,2.75-1.3c.078-.047.159-.093.233-.144.182-.109.334-.225.508-.334.233-.159.489-.314.7-.473s.384-.3.574-.446.4-.318.578-.485c.047-.039.093-.07.132-.1.085-.078.14-.159.214-.233a10.053,10.053,0,0,0,.814-.877c.058-.066.136-.132.19-.2s.093-.143.143-.209c.167-.221.306-.442.45-.667.058-.1.144-.2.2-.3.027-.05.047-.1.078-.155.1-.19.186-.388.268-.582.058-.128.136-.252.182-.38a1.01,1.01,0,0,0,.035-.136,5.51,5.51,0,0,0,.159-.562c.039-.14.093-.271.12-.407.008-.039.008-.074.012-.109a5.7,5.7,0,0,0,.074-.624c.008-.132.039-.264.043-.4v-.171l.019-6.055A5.552,5.552,0,0,1,349.982,74.688Z" transform="translate(-310.683 -62.671)"/><g transform="translate(0.014)"><path class="i" d="M344.216,74.422c7.7,4.453,7.746,11.663.085,16.112-7.645,4.449-20.1,4.449-27.81,0s-7.746-11.659-.085-16.112S336.513,69.974,344.216,74.422Z" transform="translate(-310.687 -71.086)"/></g><path class="h" d="M437.38,124.186c-.016.05-.027.109-.047.167a6.367,6.367,0,0,1-.71,1.377,2.415,2.415,0,0,1-.163.244,8.669,8.669,0,0,1-1.179,1.3,12.5,12.5,0,0,1-1.051.772c-.306.217-.558.446-.911.652l-6.8,3.949a16.358,16.358,0,0,1-2.921,1.288c-.357.124-.733.237-1.113.341-.485.132-.977.264-1.49.368-.6.124-1.2.237-1.819.31-.14.019-.279.047-.423.062-.834.085-1.668.132-2.513.136-.124,0-.252,0-.38,0-.826,0-1.652-.05-2.471-.132l-.365-.047a22.991,22.991,0,0,1-2.393-.407c-.14-.027-.279-.066-.411-.1a19.758,19.758,0,0,1-2.087-.636c-.1-.043-.233-.074-.334-.112a14.884,14.884,0,0,1-2.269-1.071l-81.764-47.2c-2.932-1.691-4.4-3.906-4.391-6.125l-.012,6.055c-.012,2.211,1.458,4.43,4.383,6.117L405.509,138.7a16.565,16.565,0,0,0,2.145,1.024c.039.012.074.019.112.035.12.05.264.093.392.14.423.151.853.31,1.3.438.237.058.489.112.733.175.143.035.287.078.434.1.132.031.248.07.38.093.485.1.981.186,1.478.264.175.019.353.035.528.054.124.016.237.027.357.039.182.019.369.047.559.066.477.039.974.066,1.455.074.151.008.306,0,.454,0h.407c.217,0,.442,0,.667,0,.547-.019,1.1-.058,1.648-.109.058-.008.12-.023.171-.031.155-.012.3-.039.45-.058.431-.054.849-.1,1.268-.178.182-.031.345-.1.528-.132.508-.1.993-.233,1.489-.365.264-.078.535-.12.791-.2.124-.039.217-.1.334-.147a16.586,16.586,0,0,0,2.917-1.28l6.8-3.952c.062-.031.12-.07.182-.1.287-.178.5-.38.756-.566a9.8,9.8,0,0,0,1.028-.76,1.047,1.047,0,0,0,.1-.066,9.092,9.092,0,0,0,.923-.993c.054-.078.1-.147.147-.229.07-.081.12-.175.182-.26.081-.132.19-.264.268-.4a6.11,6.11,0,0,0,.392-.842,1.01,1.01,0,0,0,.035-.128,1.142,1.142,0,0,0,.054-.175c.054-.178.116-.353.155-.531a4.881,4.881,0,0,0,.093-.853c0-.047,0-.089,0-.132q.012-3.025.012-6.055A5.2,5.2,0,0,1,437.38,124.186Z" transform="translate(-285.699 -47.379)"/><g transform="translate(33.682 19.432)"><path class="i" d="M433.239,125.826c5.81,3.351,5.849,8.8.066,12.16l-6.8,3.949c-5.776,3.359-15.181,3.355-20.988,0L323.75,94.73c-5.818-3.359-5.849-8.8-.066-12.16l6.8-3.952c5.779-3.363,15.174-3.363,21,0Z" transform="translate(-319.367 -76.096)"/></g><g transform="translate(48.14 25.662)"><g transform="translate(64.695 37.54)"><path class="j" d="M359.032,87.8a1.083,1.083,0,0,1,.012,2.044l-15.007,8.723a3.919,3.919,0,0,1-3.526,0,1.082,1.082,0,0,1-.012-2.048L355.506,87.8A3.9,3.9,0,0,1,359.032,87.8Z" transform="translate(-339.774 -87.38)"/></g><g transform="translate(58.697 40.667)"><path class="j" d="M346.115,88.588c.931.539.95,1.412.027,1.951l-3.844,2.23a3.718,3.718,0,0,1-3.367-.008,1.029,1.029,0,0,1-.016-1.947l3.844-2.226A3.706,3.706,0,0,1,346.115,88.588Z" transform="translate(-338.227 -88.186)"/></g><g transform="translate(52.915 35.102)"><path class="j" d="M348.459,87.153c.923.543.931,1.412,0,1.943L340.8,93.561a3.714,3.714,0,0,1-3.359,0,1.035,1.035,0,0,1-.016-1.955l7.661-4.453A3.746,3.746,0,0,1,348.459,87.153Z" transform="translate(-336.737 -86.751)"/></g><g transform="translate(46.888 27.722)"><path class="j" d="M353.72,85.229c.9.52.9,1.346.012,1.862l-14.677,8.533a3.518,3.518,0,0,1-3.208-.008.975.975,0,0,1-.008-1.846l14.681-8.533A3.526,3.526,0,0,1,353.72,85.229Z" transform="translate(-335.183 -84.849)"/></g><g transform="translate(41.053 31.59)"><path class="j" d="M339.417,86.21c.838.485.857,1.28.012,1.765l-2.071,1.2a3.369,3.369,0,0,1-3.045,0c-.842-.489-.85-1.276,0-1.761l2.071-1.206A3.352,3.352,0,0,1,339.417,86.21Z" transform="translate(-333.678 -85.846)"/></g><g transform="translate(35.282 25.286)"><path class="j" d="M343.033,84.582a.927.927,0,0,1,.016,1.753l-7.207,4.185a3.328,3.328,0,0,1-3.025,0,.928.928,0,0,1,0-1.753l7.2-4.185A3.336,3.336,0,0,1,343.033,84.582Z" transform="translate(-332.191 -84.221)"/></g><g class="k"><path class="j" d="M342.572,78.164a1.175,1.175,0,0,1,.008,2.226l-14.836,8.626a4.24,4.24,0,0,1-3.84,0c-1.071-.617-1.078-1.617-.027-2.226l14.844-8.626A4.24,4.24,0,0,1,342.572,78.164Z" transform="translate(-323.094 -77.702)"/><g transform="translate(6.104 6.031)"><path class="j" d="M339.826,79.716c1.071.617,1.082,1.614.023,2.23l-10.531,6.121a4.252,4.252,0,0,1-3.852,0,1.176,1.176,0,0,1-.016-2.223l10.535-6.121A4.228,4.228,0,0,1,339.826,79.716Z" transform="translate(-324.668 -79.257)"/></g><g transform="translate(11.732 6.96)"><path class="j" d="M345.59,79.957a1.178,1.178,0,0,1,.016,2.226l-14.84,8.622a4.236,4.236,0,0,1-3.844,0,1.173,1.173,0,0,1-.008-2.223l14.828-8.626A4.244,4.244,0,0,1,345.59,79.957Z" transform="translate(-326.119 -79.496)"/></g><g transform="translate(17.37 14.479)"><path class="j" d="M339.287,81.839a1.036,1.036,0,0,1,.019,1.955l-7.664,4.449a3.715,3.715,0,0,1-3.371,0,1.027,1.027,0,0,1-.008-1.943l7.664-4.457A3.69,3.69,0,0,1,339.287,81.839Z" transform="translate(-327.573 -81.435)"/></g><g transform="translate(29.145 16.921)"><path class="j" d="M349.857,82.486c.974.566.981,1.482.019,2.036l-15.007,8.723a3.879,3.879,0,0,1-3.53,0,1.079,1.079,0,0,1-.008-2.04l15.011-8.719A3.871,3.871,0,0,1,349.857,82.486Z" transform="translate(-330.608 -82.064)"/></g></g><g transform="translate(23.155 20.049)"><path class="j" d="M336.957,83.275a1.03,1.03,0,0,1,0,1.947l-3.832,2.226a3.682,3.682,0,0,1-3.355,0c-.931-.539-.943-1.416-.023-1.951l3.828-2.223A3.739,3.739,0,0,1,336.957,83.275Z" transform="translate(-329.064 -82.871)"/></g><g transform="translate(76.603 52.206)"><path class="j" d="M348.581,91.525c.853.489.849,1.276.012,1.757l-2.071,1.21a3.357,3.357,0,0,1-3.045,0,.934.934,0,0,1-.012-1.765l2.075-1.2A3.36,3.36,0,0,1,348.581,91.525Z" transform="translate(-342.844 -91.161)"/></g><g transform="translate(70.831 45.907)"><path class="j" d="M352.2,89.9a.924.924,0,0,1,.012,1.749l-7.2,4.189a3.32,3.32,0,0,1-3.021,0c-.838-.489-.846-1.272-.012-1.753l7.207-4.185A3.312,3.312,0,0,1,352.2,89.9Z" transform="translate(-341.356 -89.537)"/></g></g><g transform="translate(8.65 4.963)"><path class="l" d="M325.432,72.365l6.879,11.22-19.4-3.947Z" transform="translate(-312.913 -72.365)"/></g></g><g transform="translate(339.25 207.7)"><g class="g" transform="translate(33.687 32.151)"><path d="M403.517,147.065c5.81,3.355,5.849,8.8.062,12.164l-6.792,3.949c-5.783,3.359-15.189,3.359-21,0l-81.767-47.208c-5.814-3.355-5.841-8.8-.062-12.152l6.8-3.952c5.783-3.363,15.181-3.363,21,0Z" transform="translate(-289.646 -97.343)"/></g><g class="g" transform="translate(0.018 11.395)"><path d="M314.495,95.325c7.711,4.449,7.75,11.663.093,16.112s-20.111,4.449-27.814,0-7.75-11.663-.093-16.112S306.788,90.88,314.495,95.325Z" transform="translate(-280.966 -91.992)"/></g><path class="h" d="M320.268,92.656c-.019.213-.035.419-.07.632-.035.163-.081.33-.128.5a5.931,5.931,0,0,1-.171.593,5.112,5.112,0,0,1-.206.481c-.085.206-.171.4-.275.605-.085.151-.179.295-.276.45a7.8,7.8,0,0,1-.454.671c-.1.132-.213.268-.326.4a10.158,10.158,0,0,1-.818.884c-.116.112-.221.225-.337.334-.178.163-.388.318-.586.481s-.369.306-.57.454-.442.295-.667.442c-.26.167-.508.341-.784.5a21.059,21.059,0,0,1-2.746,1.307c-.252.1-.5.194-.756.283-.6.221-1.233.4-1.866.574s-1.284.349-1.947.485c-.8.159-1.594.31-2.416.411-.19.023-.372.062-.559.081-1.1.116-2.2.175-3.312.186h-.531c-1.082-.008-2.176-.07-3.258-.182-.163-.019-.333-.035-.5-.054-1.063-.128-2.118-.31-3.142-.539-.194-.043-.384-.1-.578-.14a27.808,27.808,0,0,1-2.727-.83c-.155-.062-.322-.1-.481-.167a21.458,21.458,0,0,1-2.994-1.416c-3.879-2.238-5.814-5.174-5.807-8.107q-.012,3.025-.019,6.051c-.008,2.932,1.932,5.872,5.807,8.11a21.8,21.8,0,0,0,2.839,1.365,1.306,1.306,0,0,1,.163.05c.155.062.318.1.477.159.578.209,1.144.419,1.757.59.318.1.648.159.974.244.186.047.372.093.566.136.171.039.334.089.5.124.64.132,1.292.248,1.951.337.225.035.45.05.69.078.167.023.341.043.512.062.237.023.469.058.71.074.636.058,1.288.089,1.932.1.209,0,.4,0,.6,0s.361,0,.539,0c.295,0,.586,0,.88,0,.729-.027,1.454-.07,2.176-.147.085-.008.159-.019.248-.035.194-.016.388-.05.582-.078.566-.07,1.129-.136,1.68-.237.244-.039.469-.124.706-.175.683-.14,1.33-.31,1.978-.493.345-.1.706-.147,1.04-.26.275-.085.531-.2.8-.3s.512-.186.764-.291a21.327,21.327,0,0,0,2.75-1.3c.074-.047.163-.093.237-.143.178-.1.333-.221.5-.334.244-.155.485-.31.714-.473.2-.147.376-.3.558-.446.206-.163.407-.322.594-.485.031-.035.085-.07.124-.1.078-.074.14-.159.217-.229a10.625,10.625,0,0,0,.811-.88c.054-.066.132-.132.186-.206s.093-.136.147-.206c.163-.221.31-.446.446-.671.062-.1.144-.194.2-.291.027-.054.043-.109.074-.159.1-.19.186-.388.271-.582.058-.124.132-.252.178-.376.016-.047.023-.1.039-.144a4.5,4.5,0,0,0,.159-.555c.039-.14.093-.279.124-.419l0-.1a5.726,5.726,0,0,0,.074-.624c.012-.132.047-.264.047-.4,0-.054,0-.112,0-.175l.019-6.047A5.576,5.576,0,0,1,320.268,92.656Z" transform="translate(-280.961 -80.639)"/><g transform="translate(0.018)"><path class="i" d="M314.495,92.39c7.711,4.449,7.75,11.659.093,16.108s-20.111,4.453-27.814,0-7.75-11.659-.093-16.108S306.788,87.942,314.495,92.39Z" transform="translate(-280.966 -89.054)"/></g><path class="h" d="M407.653,142.15a1.662,1.662,0,0,0-.047.171,5.735,5.735,0,0,1-.71,1.377c-.05.078-.1.159-.155.244a8.958,8.958,0,0,1-1.183,1.3,12.053,12.053,0,0,1-1.051.772c-.3.213-.566.446-.919.652l-6.792,3.949a17.169,17.169,0,0,1-2.921,1.292c-.368.116-.741.233-1.121.337-.489.136-.981.26-1.485.368-.6.12-1.206.233-1.815.314-.144.019-.283.043-.423.054a24.775,24.775,0,0,1-2.521.143c-.12,0-.244,0-.372,0a22.972,22.972,0,0,1-2.479-.14c-.116-.012-.244-.023-.361-.039a23.434,23.434,0,0,1-2.389-.411c-.144-.039-.279-.062-.415-.1a19.227,19.227,0,0,1-2.087-.64c-.116-.043-.225-.07-.341-.109a16.889,16.889,0,0,1-2.265-1.074l-81.767-47.2c-2.925-1.691-4.387-3.914-4.379-6.125l-.012,6.051c-.008,2.215,1.451,4.43,4.379,6.125l81.76,47.2a16.352,16.352,0,0,0,2.145,1.032.418.418,0,0,1,.113.035c.128.05.264.085.4.132.423.151.849.314,1.3.434.237.07.485.12.733.182.147.035.291.078.438.109.12.027.245.062.376.089.481.1.974.186,1.47.264.178.019.361.035.539.054.113.016.233.031.349.039.186.019.372.05.555.062.489.043.977.07,1.462.078.151.008.3,0,.458,0h.392c.233-.008.45,0,.675-.008.551-.016,1.1-.05,1.645-.1.062-.008.12-.019.182-.027.151-.016.295-.047.45-.066.419-.047.845-.1,1.26-.178.19-.031.353-.089.528-.132.508-.1,1-.225,1.489-.368.26-.07.535-.112.791-.2.128-.035.217-.1.341-.14a17.394,17.394,0,0,0,2.917-1.288l6.8-3.945a1.1,1.1,0,0,1,.178-.109c.295-.175.493-.38.76-.566a10.162,10.162,0,0,0,1.016-.756c.031-.031.074-.043.109-.074a8.313,8.313,0,0,0,.916-.989c.062-.078.093-.155.155-.225.062-.089.109-.178.171-.268.089-.132.19-.256.264-.392a5.118,5.118,0,0,0,.4-.849c.016-.039.023-.085.035-.12.019-.066.031-.112.043-.171a3.213,3.213,0,0,0,.155-.547,3.929,3.929,0,0,0,.1-.846v-.132q.012-3.025.023-6.051A5.144,5.144,0,0,1,407.653,142.15Z" transform="translate(-255.968 -65.347)"/><g transform="translate(33.687 19.436)"><path class="i" d="M403.517,143.787c5.81,3.355,5.849,8.8.062,12.164l-6.792,3.949c-5.783,3.363-15.189,3.355-21,0l-81.767-47.2c-5.814-3.359-5.841-8.8-.062-12.16l6.8-3.949c5.783-3.363,15.181-3.363,21,0Z" transform="translate(-289.646 -94.065)"/></g><g transform="translate(48.144 25.663)"><g transform="translate(64.698 37.541)"><path class="j" d="M329.313,105.765a1.085,1.085,0,0,1,0,2.048l-15.007,8.719a3.9,3.9,0,0,1-3.518,0,1.079,1.079,0,0,1-.012-2.044l15-8.723A3.952,3.952,0,0,1,329.313,105.765Z" transform="translate(-310.053 -105.349)"/></g><g transform="translate(58.701 40.664)"><path class="j" d="M316.4,106.558a1.035,1.035,0,0,1,.019,1.955l-3.84,2.223a3.66,3.66,0,0,1-3.367-.008,1.023,1.023,0,0,1-.008-1.939l3.836-2.23A3.69,3.69,0,0,1,316.4,106.558Z" transform="translate(-308.507 -106.154)"/></g><g transform="translate(52.919 35.101)"><path class="j" d="M318.732,105.124c.931.543.939,1.4.012,1.943l-7.661,4.464a3.771,3.771,0,0,1-3.363,0c-.927-.543-.943-1.423-.016-1.955l7.664-4.457A3.71,3.71,0,0,1,318.732,105.124Z" transform="translate(-307.017 -104.72)"/></g><g transform="translate(46.891 27.719)"><path class="j" d="M324,103.2c.9.516.9,1.338.008,1.854l-14.681,8.533a3.5,3.5,0,0,1-3.2,0,.978.978,0,0,1-.008-1.85l14.685-8.533A3.482,3.482,0,0,1,324,103.2Z" transform="translate(-305.463 -102.816)"/></g><g transform="translate(41.052 31.586)"><path class="j" d="M309.7,104.18a.932.932,0,0,1,.008,1.765l-2.067,1.206a3.369,3.369,0,0,1-3.045,0,.932.932,0,0,1-.016-1.765l2.075-1.206A3.344,3.344,0,0,1,309.7,104.18Z" transform="translate(-303.957 -103.813)"/></g><g transform="translate(35.283 25.283)"><path class="j" d="M313.311,102.552a.924.924,0,0,1,.016,1.749l-7.2,4.189a3.3,3.3,0,0,1-3.025,0,.926.926,0,0,1-.008-1.753l7.195-4.185A3.32,3.32,0,0,1,313.311,102.552Z" transform="translate(-302.47 -102.188)"/></g><g class="k"><path class="j" d="M312.855,96.135a1.173,1.173,0,0,1,0,2.226l-14.836,8.626a4.272,4.272,0,0,1-3.844,0c-1.067-.621-1.074-1.621-.019-2.23L309,96.135A4.225,4.225,0,0,1,312.855,96.135Z" transform="translate(-293.373 -95.67)"/><g transform="translate(6.109 6.03)"><path class="j" d="M310.105,97.687c1.071.617,1.082,1.61.019,2.226l-10.535,6.125a4.272,4.272,0,0,1-3.844-.008,1.177,1.177,0,0,1-.019-2.223l10.535-6.121A4.224,4.224,0,0,1,310.105,97.687Z" transform="translate(-294.948 -97.225)"/></g><g transform="translate(11.731 6.96)"><path class="j" d="M315.87,97.924a1.176,1.176,0,0,1,.012,2.226l-14.84,8.626a4.272,4.272,0,0,1-3.844,0,1.174,1.174,0,0,1-.008-2.223l14.844-8.63A4.232,4.232,0,0,1,315.87,97.924Z" transform="translate(-296.398 -97.465)"/></g><g transform="translate(17.368 14.481)"><path class="j" d="M309.569,99.8a1.032,1.032,0,0,1,.016,1.951l-7.664,4.457a3.71,3.71,0,0,1-3.363-.008,1.025,1.025,0,0,1-.016-1.943L306.21,99.8A3.714,3.714,0,0,1,309.569,99.8Z" transform="translate(-297.851 -99.403)"/></g><g transform="translate(29.146 16.923)"><path class="j" d="M320.139,100.455a1.076,1.076,0,0,1,.012,2.036l-15,8.723a3.919,3.919,0,0,1-3.526,0,1.08,1.08,0,0,1-.008-2.044l15-8.719A3.9,3.9,0,0,1,320.139,100.455Z" transform="translate(-300.888 -100.033)"/></g></g><g transform="translate(23.155 20.047)"><path class="j" d="M307.232,101.24a1.033,1.033,0,0,1,0,1.951l-3.824,2.226a3.73,3.73,0,0,1-3.367,0,1.033,1.033,0,0,1-.016-1.951l3.832-2.226A3.738,3.738,0,0,1,307.232,101.24Z" transform="translate(-299.343 -100.839)"/></g><g transform="translate(76.605 52.204)"><path class="j" d="M318.867,109.49a.932.932,0,0,1,0,1.765l-2.075,1.21a3.385,3.385,0,0,1-3.041,0,.935.935,0,0,1-.012-1.765l2.079-1.21A3.393,3.393,0,0,1,318.867,109.49Z" transform="translate(-313.123 -109.129)"/></g><g transform="translate(70.836 45.912)"><path class="j" d="M322.489,107.868a.922.922,0,0,1,0,1.745l-7.2,4.185a3.289,3.289,0,0,1-3.018,0,.92.92,0,0,1-.016-1.745l7.2-4.185A3.368,3.368,0,0,1,322.489,107.868Z" transform="translate(-311.636 -107.507)"/></g></g><g transform="translate(8.659 4.962)"><path class="l" d="M295.7,90.333l6.883,11.22-19.394-3.943Z" transform="translate(-283.193 -90.333)"/></g></g><g class="m" transform="translate(355.158 84.906)"><path class="n" d="M398.937,122.016c5.81,3.347,5.845,8.793.062,12.152l-6.8,3.952c-5.787,3.359-15.185,3.355-21,0l-81.76-47.2c-5.814-3.359-5.841-8.8-.058-12.16l6.8-3.949c5.779-3.367,15.17-3.367,20.992,0Z" transform="translate(-285.062 -14.538)"/><g class="o" transform="translate(0 48.12)"><path class="p" d="M398.937,119.532c5.81,3.347,5.845,8.8.062,12.156l-6.8,3.949c-5.787,3.363-15.185,3.359-21,0l-81.76-47.2c-5.814-3.359-5.841-8.8-.058-12.156l6.8-3.952c5.779-3.363,15.17-3.363,20.992,0Z" transform="translate(-285.062 -69.802)"/></g><g class="q" transform="translate(0 38.497)"><path class="r" d="M398.937,117.051c5.81,3.347,5.845,8.8.062,12.156l-6.8,3.949c-5.787,3.363-15.185,3.359-21,0l-81.76-47.2c-5.814-3.359-5.841-8.8-.058-12.16l6.8-3.949c5.779-3.363,15.17-3.363,20.992,0Z" transform="translate(-285.062 -67.321)"/></g><g class="s" transform="translate(0 28.873)"><path class="t" d="M398.937,114.567c5.81,3.351,5.845,8.8.062,12.156l-6.8,3.952c-5.787,3.359-15.185,3.355-21,0l-81.76-47.2c-5.814-3.363-5.841-8.8-.058-12.16l6.8-3.952c5.779-3.359,15.17-3.359,20.992,0Z" transform="translate(-285.062 -64.839)"/></g><g class="u" transform="translate(0 19.247)"><path class="v" d="M398.937,112.088c5.81,3.347,5.845,8.8.062,12.156l-6.8,3.952c-5.787,3.359-15.185,3.355-21,0L289.44,80.988c-5.814-3.359-5.841-8.8-.058-12.16l6.8-3.949c5.779-3.363,15.17-3.363,20.992,0Z" transform="translate(-285.062 -62.358)"/></g><g class="w" transform="translate(0 9.623)"><path class="x" d="M398.937,109.6c5.81,3.351,5.845,8.8.062,12.16l-6.8,3.952c-5.787,3.359-15.185,3.355-21,0L289.44,78.508c-5.814-3.359-5.841-8.8-.058-12.16l6.8-3.952c5.779-3.359,15.17-3.359,20.992,0Z" transform="translate(-285.062 -59.877)"/></g><g class="y"><path class="z" d="M398.937,107.123c5.81,3.351,5.845,8.8.062,12.16l-6.8,3.949c-5.787,3.359-15.185,3.355-21,0L289.44,76.023c-5.814-3.359-5.841-8.8-.058-12.156l6.8-3.952c5.779-3.359,15.17-3.359,20.992,0Z" transform="translate(-285.062 -57.395)"/></g></g><g class="m" transform="translate(372.938 168.823)"><path class="n" d="M403.517,143.643c5.81,3.351,5.849,8.8.062,12.164l-6.792,3.952c-5.783,3.355-15.189,3.355-21,0l-81.767-47.212c-5.814-3.359-5.841-8.8-.062-12.156l6.8-3.956c5.783-3.355,15.178-3.355,21,0Z" transform="translate(-289.646 -36.173)"/><g class="o" transform="translate(0 48.122)"><path class="p" d="M403.517,141.162c5.81,3.351,5.849,8.8.062,12.164l-6.792,3.949c-5.783,3.355-15.189,3.355-21,0l-81.767-47.208c-5.814-3.359-5.841-8.8-.062-12.16l6.8-3.952c5.783-3.355,15.178-3.355,21,0Z" transform="translate(-289.646 -91.437)"/></g><g class="q" transform="translate(0 38.496)"><path class="r" d="M403.517,138.679c5.81,3.355,5.849,8.8.062,12.164l-6.792,3.949c-5.783,3.359-15.189,3.355-21,0l-81.767-47.208c-5.814-3.355-5.841-8.8-.062-12.156l6.8-3.952c5.783-3.359,15.178-3.359,21,0Z" transform="translate(-289.646 -88.955)"/></g><g class="s" transform="translate(0 28.872)"><path class="t" d="M403.517,136.2c5.81,3.351,5.849,8.8.062,12.16l-6.792,3.952c-5.783,3.359-15.189,3.355-21,0L294.025,105.1c-5.814-3.359-5.841-8.8-.062-12.156l6.8-3.956c5.783-3.355,15.178-3.355,21,0Z" transform="translate(-289.646 -86.474)"/></g><g class="u" transform="translate(0 19.246)"><path class="v" d="M403.517,133.72c5.81,3.351,5.849,8.8.062,12.16l-6.792,3.949c-5.783,3.363-15.189,3.359-21,0l-81.767-47.2c-5.814-3.359-5.841-8.8-.062-12.16l6.8-3.952c5.783-3.359,15.178-3.359,21,0Z" transform="translate(-289.646 -83.993)"/></g><g class="w" transform="translate(0 9.623)"><path class="x" d="M403.517,131.235c5.81,3.351,5.849,8.8.062,12.16l-6.792,3.949c-5.783,3.367-15.189,3.359-21,0l-81.767-47.2c-5.814-3.363-5.841-8.8-.062-12.16l6.8-3.952c5.783-3.359,15.178-3.359,21,0Z" transform="translate(-289.646 -81.512)"/></g><g class="y"><path class="z" d="M403.517,128.754c5.81,3.351,5.849,8.8.062,12.156l-6.792,3.952c-5.783,3.363-15.189,3.355-21,0l-81.767-47.2c-5.814-3.363-5.841-8.8-.062-12.164l6.8-3.949c5.783-3.359,15.178-3.359,21,0Z" transform="translate(-289.646 -79.03)"/></g></g><g class="a" transform="translate(611.349 226.717)"><path d="M419.139,100.727c15.635,9.022,15.724,23.66.194,32.686s-40.808,9.022-56.439,0-15.721-23.664-.182-32.694S403.5,91.7,419.139,100.727Z" transform="translate(-351.113 -93.956)"/></g><g transform="translate(566.125 82.135)"><path d="M368.241,93.637s.718,5.225,3.142,7.944,13.273,8.727,12.649,11.656c-.632,2.909-8.192,3.5-13.157-1.082-5-4.592-6.3-5.256-8.343-5.613-2.032-.337-5.038-2.754-3.146-7.288C359.386,99.253,365.774,97.132,368.241,93.637Z" transform="translate(-283.801 49.705)"/><path d="M364.855,96.339s1.086,5.438,3.8,8.134,14.495,8.25,14.018,11.357c-.45,3.1-8.324,4.232-13.851-.244-5.523-4.453-6.912-5.089-9.092-5.314-2.145-.248-5.461-2.568-3.793-7.424C355.941,102.848,362.489,100.191,364.855,96.339Z" transform="translate(-293.292 57.483)"/><path class="aa" d="M357.067,76.467s39.094,19.041,41.778,25.588c3.84,9.4,3.6,15.957,3.4,39.85l.415,5.582s-4.62,4.243-10.065,1.87c-1.7-.737-.923-16.5-4.069-25.057,0,0-1.416-10.306-.784-13.106,0,0-31.166-8.82-38.682-14.972C341.529,90.1,357.067,76.467,357.067,76.467Z" transform="translate(-317.725 0.277)"/><path class="ab" d="M341.76,86.272s-2.99,14.091,13.525,21.442c17.516,7.8,33.074,16,33.074,16s.151,10.783,1.866,17.191c2.316,8.688,5.644,19.991,5.644,19.991s7.459,2.529,11.345-1.722c0,0-2.052-42.216-7.284-46.665-5.252-4.488-31.123-21.888-31.123-21.888l3.956-14.153Z" transform="translate(-333.421 0.277)"/><path class="aa" d="M355.631,101.991c17.516,7.8,33.074,16,33.074,16s.151,10.783,1.866,17.191c2.316,8.688,4.232,19.65,4.232,19.65a21.658,21.658,0,0,0,4.511.659c-3.192-11.175-5.771-36.309-7.207-40.878-1.757-5.663-20.072-10.779-33.206-16.779-13.149-5.989-14.51-19.37-14.51-19.378l-2.835,2.409S339.115,94.641,355.631,101.991Z" transform="translate(-333.767 6)"/><path class="ab" d="M399.115,141.04c.205-23.889-.8-29.583-4.635-38.985C391.8,95.508,352.7,76.467,352.7,76.467a50.024,50.024,0,0,0-4.185,4.27c10.5,4.445,35.723,15.732,40.777,24.052,5.818,9.542,3.487,37.189,4.468,45.024A24.572,24.572,0,0,0,399.2,148.1Z" transform="translate(-313.36 0.277)"/><path class="ac" d="M358.452,71.024s1.315-5.492,4.189-6.865c2.859-1.408,4.243-2.859,6.66-2.979,2.4-.109,2.956,1.478,2.114,3.126a17.789,17.789,0,0,1-5.756,5.9c-2.773,1.873-2.56,2.436-3.083,3.212S359.034,74.154,358.452,71.024Z" transform="translate(-284.76 -43.745)"/><path class="ad" d="M345.5,70.4c.8-2.622,4.007-5.989,10.829-2.917s25.8,11.9,25.8,11.9,12.73-14.844,14.5-16.318a5.111,5.111,0,0,0,4.2,4.868s-8.169,19.941-14.669,21.4C379.667,90.78,342.276,81.072,345.5,70.4Z" transform="translate(-322.614 -38.309)"/><path class="ae" d="M339.861,79.741s5.562-11.058,29.9-15.965c0,0,3.821-1.866,4.185,10.857.047,1.842,2.145,4.856,3.51,6.435,1.385,1.579,5.17,7.746-1.877,15.79,0,0,.078,8.952,3.952,16.066,3.468,6.377-14.611,16.244-28.454,15.72-1.679-.074-5.508-.974-4.36-6.947,1.133-5.989,4.026-16.523.636-27.221C343.968,83.752,338.325,85.373,339.861,79.741Z" transform="translate(-339.027 -36.532)"/><path class="ad" d="M339.861,72.9c-1.536,5.632,4.108,4.011,7.494,14.735,3.39,10.7.5,21.232-.636,27.221-1.148,5.973,2.68,6.873,4.36,6.947a45.394,45.394,0,0,0,6.943-.357c-5.446-10.275-.384-29.781-.687-40.366-.322-11.221-10.713-15.011-10.74-15.022C341.42,69.75,339.861,72.9,339.861,72.9Z" transform="translate(-339.027 -29.69)"/><path class="ac" d="M351.928,75.961s4.049-3.933,7.214-3.545c3.169.341,5.116-.144,7.222,1.055,2.083,1.195,1.7,2.831.1,3.774a17.749,17.749,0,0,1-8.021,1.893c-3.347.093-3.464.683-4.325,1.055S350.737,78.917,351.928,75.961Z" transform="translate(-304.445 -11.462)"/><path class="af" d="M341.2,68.374c2.075-1.788,6.59-2.909,10.7,3.343,4.092,6.26,15.391,23.881,15.391,23.881s18.707-5.7,21-6a5.107,5.107,0,0,0,.923,6.361s-17.586,12.447-23.858,10.193C359.109,103.9,332.756,75.65,341.2,68.374Z" transform="translate(-339.18 -27.061)"/><g transform="translate(10.399 18.222)"><path class="ag" d="M360.089,66.646s-3.96,6.179-.95,11.83c.814,1.544,3.227,8.06-7.3,6.7,0,0-11.31-3.933-8.564-7.54,1.815-2.424,3.452-5.768-1.14-16.26Z" transform="translate(-342.134 -61.379)"/><g transform="translate(0.749 0.826)"><path class="ah" d="M342.719,77.025a1.642,1.642,0,0,0-.388,1.133c9.972.621,15.713-7.121,15.713-7.121l-14.115-9.445h0s-.574.52-1.439,1.365C345.911,71.739,344.4,74.787,342.719,77.025Z" transform="translate(-342.327 -61.592)"/></g></g><g transform="translate(9.823 4.677)"><path class="ac" d="M358.751,59.439s2.781.908,3.056,9.138c.016.911,1.5,2.087,1.936,4.333.411,2.288,1.105,11.438-4.177,12.517-3.832.784-13.409-1.451-16.787-10.624C339.427,65.63,347.068,53.559,358.751,59.439Z" transform="translate(-341.986 -57.887)"/></g><g transform="translate(10.124 19.635)"><path class="ac" d="M347.221,65.1s-1.536-4.5-4.1-3.08c-.822.462-1.7,1.416-.4,3.724s3.925,4.375,5.969,4.077Z" transform="translate(-342.063 -61.743)"/></g><path class="ai" d="M353.975,71.319a10.575,10.575,0,0,0-5.054-4.907,3.171,3.171,0,0,0-1.788-.38c-.477.081-.725-3.219-1.156-2.987-7.4,4.142-7,24.537-5.946,27.489.749,2.157,3.444,8.428,5.946,9.293,5.969,2.06,6.307,28.52,17.206,4.887,1.959-4.212-6.722-13.455-7.366-15.069-.981-2.416-3.227-3.033-3.1-5.636.1-2.731-.047-7.211,2.494-8.339,2.7-1.214,1.815-3.068,2.13-3.153.411-.12,12.963-3.464,13.319-5.194.648-3.173-.772-4.724-3.406-7.222-3.724-3.561-10.29-4.042-14.972-2.808-4.053,1.055-8.176,5.058-8.518,8.983-.493,5.407.915,12.54,7.148,16.136,2.32,1.342-1.42-4.7,1.757-4.806.791-.043,1.2-1.04,1.687-1.61Z" transform="translate(-339.453 -56.681)"/><path class="ac" d="M346.625,63.328c1.451,1.482,1.908,3.394,1.032,4.243-.9.873-2.789.372-4.232-1.1-1.427-1.489-1.9-3.378-1.028-4.251C343.3,61.346,345.19,61.866,346.625,63.328Z" transform="translate(-332.239 -41.96)"/></g><g transform="translate(599.428 47.839)"><g transform="translate(13.416 63.268)"><path class="d" d="M354.862,64.15l.046,14.5-3.375,1.947L351.5,66.1Z" transform="translate(-351.498 -64.15)"/></g><g transform="translate(0 71.033)"><path class="d" d="M351.384,66.152l.03,14.5-3.337,1.932-.038-14.5Z" transform="translate(-348.039 -66.152)"/></g><g transform="translate(31.329 52.931)"><path class="d" d="M359.472,61.485l.053,14.488-3.375,1.943-.034-14.489Z" transform="translate(-356.116 -61.485)"/></g><g transform="translate(24.587 47.813)"><path class="d" d="M357.73,60.166l.087,32.151-3.348,1.932-.091-32.159Z" transform="translate(-354.378 -60.166)"/></g><g transform="translate(6.681 58.143)"><path class="d" d="M353.122,62.829l.087,32.155-3.364,1.943-.083-32.159Z" transform="translate(-349.762 -62.829)"/></g><g transform="translate(18.988 43.954)"><path class="d" d="M356.283,59.171l.129,47.59-3.337,1.932-.14-47.6Z" transform="translate(-352.935 -59.171)"/></g><g transform="translate(44.734 32.306)"><path class="d" d="M362.909,56.168l.076,27.371-3.337,1.932L359.572,58.1Z" transform="translate(-359.572 -56.168)"/></g><g transform="translate(62.677 34.836)"><path class="d" d="M367.551,56.82l.072,27.651L364.278,86.4l-.08-27.648Z" transform="translate(-364.198 -56.82)"/></g><g transform="translate(55.92 29.704)"><path class="d" d="M365.823,55.5l.1,32.162-3.36,1.947-.106-32.166Z" transform="translate(-362.456 -55.497)"/></g><g transform="translate(76.044 10.988)"><path class="d" d="M371.019,50.672l.076,30.586L367.743,83.2l-.1-30.586Z" transform="translate(-367.644 -50.672)"/></g><g transform="translate(69.366 21.947)"><path class="d" d="M369.286,53.5l.1,32.159L366,87.606l-.079-32.17Z" transform="translate(-365.923 -53.497)"/></g><g transform="translate(38.003 40.049)"><path class="d" d="M361.208,58.164l.091,32.162-3.36,1.935-.1-32.159Z" transform="translate(-357.837 -58.164)"/></g><g transform="translate(50.344 25.859)"><path class="d" d="M364.348,54.506l.132,47.6-3.329,1.924-.132-47.609Z" transform="translate(-361.019 -54.506)"/></g><g transform="translate(89.54 19.314)"><path class="d" d="M374.491,52.818l.038,14.5-3.36,1.951-.045-14.5Z" transform="translate(-371.124 -52.818)"/></g><g transform="translate(107.445 8.981)"><path class="d" d="M379.1,50.154l.1,27.636-3.371,1.951-.083-27.647Z" transform="translate(-375.74 -50.154)"/></g><g transform="translate(100.722 3.86)"><path class="d" d="M377.344,48.834l.095,32.159-3.345,1.928-.087-32.151Z" transform="translate(-374.007 -48.834)"/></g><g transform="translate(114.187 12.163)"><path class="d" d="M380.838,50.975l.034,16.1-3.36,1.943-.034-16.1Z" transform="translate(-377.479 -50.975)"/></g><g transform="translate(82.794 14.204)"><path class="d" d="M372.737,51.5l.095,32.162-3.345,1.924-.1-32.17Z" transform="translate(-369.385 -51.501)"/></g><g transform="translate(95.12)"><path class="d" d="M375.884,47.839l.133,47.609-3.33,1.924-.125-47.606Z" transform="translate(-372.562 -47.839)"/></g></g><g class="m" transform="translate(487.791 99.169)"><path class="n" d="M433.125,125.686c5.814,3.351,5.849,8.8.074,12.16l-6.8,3.952c-5.783,3.359-15.181,3.355-21,0l-81.764-47.2c-5.81-3.363-5.845-8.8-.062-12.16l6.8-3.956c5.783-3.355,15.17-3.355,21,0Z" transform="translate(-319.257 -18.213)"/><g class="o" transform="translate(0 48.125)"><path class="p" d="M433.125,123.2c5.814,3.351,5.849,8.8.074,12.16l-6.8,3.949c-5.783,3.359-15.181,3.355-21,0l-81.764-47.2c-5.81-3.359-5.845-8.8-.062-12.16l6.8-3.952c5.783-3.355,15.17-3.355,21,0Z" transform="translate(-319.257 -73.48)"/></g><g class="q" transform="translate(0 38.499)"><path class="r" d="M433.125,120.726c5.814,3.351,5.849,8.8.074,12.16l-6.8,3.949c-5.783,3.359-15.181,3.355-21,0l-81.764-47.2c-5.81-3.363-5.845-8.8-.062-12.16l6.8-3.952c5.783-3.359,15.17-3.359,21,0Z" transform="translate(-319.257 -70.999)"/></g><g class="s" transform="translate(0 28.876)"><path class="t" d="M433.125,118.241c5.814,3.355,5.849,8.8.074,12.16l-6.8,3.949c-5.783,3.363-15.181,3.359-21,0l-81.764-47.2c-5.81-3.363-5.845-8.8-.062-12.164l6.8-3.949c5.783-3.359,15.17-3.359,21,0Z" transform="translate(-319.257 -68.517)"/></g><g class="u" transform="translate(0 19.249)"><path class="v" d="M433.125,115.763c5.814,3.351,5.849,8.8.074,12.16l-6.8,3.949c-5.783,3.363-15.181,3.355-21,0l-81.764-47.2c-5.81-3.359-5.845-8.8-.062-12.16l6.8-3.952c5.783-3.359,15.17-3.359,21,0Z" transform="translate(-319.257 -66.035)"/></g><g class="w" transform="translate(0 9.626)"><path class="x" d="M433.125,113.282c5.814,3.351,5.849,8.8.074,12.16l-6.8,3.945c-5.783,3.367-15.181,3.363-21,0l-81.764-47.2c-5.81-3.363-5.845-8.8-.062-12.16l6.8-3.952c5.783-3.359,15.17-3.359,21,0Z" transform="translate(-319.257 -63.555)"/></g><g class="y"><path class="z" d="M433.125,110.8c5.814,3.351,5.849,8.793.074,12.156l-6.8,3.949c-5.783,3.363-15.181,3.359-21,0l-81.764-47.2c-5.81-3.363-5.845-8.8-.062-12.164l6.8-3.949c5.783-3.363,15.17-3.363,21,0Z" transform="translate(-319.257 -61.073)"/></g></g></g></svg>