<?xml version="1.0" encoding="UTF-8"?>
<!DOCTYPE svg PUBLIC "-//W3C//DTD SVG 1.1//EN" "http://www.w3.org/Graphics/SVG/1.1/DTD/svg11.dtd">
<!-- Creator: CorelDRAW X7 -->
<svg xmlns="http://www.w3.org/2000/svg" xml:space="preserve" width="484px" height="611px" version="1.1" style="shape-rendering:geometricPrecision; text-rendering:geometricPrecision; image-rendering:optimizeQuality; fill-rule:evenodd; clip-rule:evenodd"
viewBox="0 0 19851 25049"
 xmlns:xlink="http://www.w3.org/1999/xlink">
 <defs>
  <style type="text/css">
   <![CDATA[
    .fil3 {fill:none}
    .fil5 {fill:#70342D}
    .fil16 {fill:#70352E}
    .fil15 {fill:#BD8617}
    .fil21 {fill:#FFFBC2}
    .fil23 {fill:white}
    .fil19 {fill:#70342D;fill-rule:nonzero}
    .fil11 {fill:#F0E673;fill-rule:nonzero}
    .fil6 {fill:#FFEEC2;fill-rule:nonzero}
    .fil7 {fill:#FFF7EB;fill-rule:nonzero}
    .fil18 {fill:white;fill-rule:nonzero}
    .fil1 {fill:#FFF0D4;fill-rule:nonzero;fill-opacity:0.501961}
    .fil13 {fill:url(#id0)}
    .fil10 {fill:url(#id1)}
    .fil12 {fill:url(#id2)}
    .fil8 {fill:url(#id3)}
    .fil2 {fill:url(#id4)}
    .fil4 {fill:url(#id5)}
    .fil9 {fill:url(#id6)}
    .fil14 {fill:url(#id7)}
    .fil0 {fill:url(#id8)}
    .fil22 {fill:url(#id9)}
    .fil20 {fill:url(#id10);fill-rule:nonzero}
    .fil17 {fill:url(#id11);fill-rule:nonzero}
   ]]>
  </style>
  <linearGradient id="id0" gradientUnits="userSpaceOnUse" x1="9925.61" y1="5260.23" x2="9925.61" y2="16070">
   <stop offset="0" style="stop-opacity:1; stop-color:#F0E673"/>
   <stop offset="0.278431" style="stop-opacity:1; stop-color:#AF813C"/>
   <stop offset="0.501961" style="stop-opacity:1; stop-color:#7E3D30"/>
   <stop offset="1" style="stop-opacity:1; stop-color:#CC983B"/>
  </linearGradient>
  <linearGradient id="id1" gradientUnits="userSpaceOnUse" x1="9925.61" y1="2762.7" x2="9925.8" y2="17759.6">
   <stop offset="0" style="stop-opacity:1; stop-color:#F5E534"/>
   <stop offset="0.521569" style="stop-opacity:1; stop-color:#80210E"/>
   <stop offset="1" style="stop-opacity:1; stop-color:#DDB343"/>
  </linearGradient>
  <linearGradient id="id2" gradientUnits="userSpaceOnUse" x1="9930.64" y1="10002.9" x2="9930.64" y2="17146.7">
   <stop offset="0" style="stop-opacity:1; stop-color:#BD8617"/>
   <stop offset="0.568627" style="stop-opacity:1; stop-color:#DEBF61"/>
   <stop offset="1" style="stop-opacity:1; stop-color:#FFF9AB"/>
  </linearGradient>
  <linearGradient id="id3" gradientUnits="userSpaceOnUse" x1="1653.67" y1="8311.78" x2="1663.45" y2="11139.5">
   <stop offset="0" style="stop-opacity:1; stop-color:#ECDF56"/>
   <stop offset="1" style="stop-opacity:1; stop-color:#CC983B"/>
  </linearGradient>
  <linearGradient id="id4" gradientUnits="userSpaceOnUse" x1="4987.74" y1="19835.9" x2="9018.96" y2="17266.8">
   <stop offset="0" style="stop-opacity:1; stop-color:#B00205"/>
   <stop offset="1" style="stop-opacity:1; stop-color:red"/>
  </linearGradient>
  <linearGradient id="id5" gradientUnits="userSpaceOnUse" x1="9962.55" y1="879.44" x2="9962.55" y2="19806.7">
   <stop offset="0" style="stop-opacity:1; stop-color:#FFF9AB"/>
   <stop offset="0.211765" style="stop-opacity:1; stop-color:#E8DA3A"/>
   <stop offset="0.639216" style="stop-opacity:1; stop-color:#782211"/>
   <stop offset="1" style="stop-opacity:1; stop-color:#CF8D1B"/>
  </linearGradient>
  <linearGradient id="id6" gradientUnits="userSpaceOnUse" xlink:href="#id3" x1="18500.8" y1="8311.78" x2="18510.6" y2="11139.5">
  </linearGradient>
  <linearGradient id="id7" gradientUnits="userSpaceOnUse" x1="10509.9" y1="4393.13" x2="10510.1" y2="15589.3">
   <stop offset="0" style="stop-opacity:1; stop-color:#FFF9AB"/>
   <stop offset="1" style="stop-opacity:1; stop-color:#C18A3A"/>
  </linearGradient>
  <linearGradient id="id8" gradientUnits="userSpaceOnUse" x1="15001.3" y1="18186.7" x2="9998.62" y2="18911">
   <stop offset="0" style="stop-opacity:1; stop-color:red"/>
   <stop offset="1" style="stop-opacity:1; stop-color:#B00205"/>
  </linearGradient>
  <radialGradient id="id9" gradientUnits="userSpaceOnUse" gradientTransform="matrix(4.63064E-005 0.47953 -1.29027 -0.0434302 31185 12673)" cx="9738.86" cy="16621.5" r="4242.9" fx="9738.86" fy="16621.5">
   <stop offset="0" style="stop-opacity:1; stop-color:#FEFEFE"/>
   <stop offset="0.921569" style="stop-opacity:1; stop-color:#EDD8A0"/>
   <stop offset="1" style="stop-opacity:1; stop-color:#DDB343"/>
  </radialGradient>
  <linearGradient id="id10" gradientUnits="userSpaceOnUse" x1="9422.37" y1="2451.19" x2="9422.37" y2="933.812">
   <stop offset="0" style="stop-opacity:1; stop-color:#ECDF56"/>
   <stop offset="0.560784" style="stop-opacity:1; stop-color:#F3E971"/>
   <stop offset="1" style="stop-opacity:1; stop-color:#FBF38C"/>
  </linearGradient>
  <linearGradient id="id11" gradientUnits="userSpaceOnUse" x1="9104.7" y1="12218.8" x2="9104.75" y2="6843.26">
   <stop offset="0" style="stop-opacity:1; stop-color:#DDB343"/>
   <stop offset="1" style="stop-opacity:1; stop-color:#ECDF56"/>
  </linearGradient>
 </defs>
 <g id="Layer_x0020_1">
  <metadata id="CorelCorpID_0Corel-Layer"/>
  <g id="_874639336">
   <g>
    <path class="fil0" d="M9801 19242l-945 194 -261 53 -176 36 -158 32 -75 16 -23 5 76 130 1569 2726 1438 2498c81,126 175,155 288,53l1943 -2370c52,-98 130,-169 267,-181l3010 -502c198,-12 244,-112 139,-299l-1824 -3217 -61 -108 -9 -16 -33 -59 -25 -43 -32 6 -260 53 -140 29 -88 18 -4620 946z"/>
    <path class="fil1" d="M14498 18429l74 -43 -86 -147 -73 42 85 148zm-5915 1079l-74 42 85 149 74 -43 -85 -148zm170 296l-74 43 85 148 74 -43 -85 -148zm170 296l-74 43 85 148 74 -43 -85 -148zm171 297l-74 42 85 148 74 -42 -85 -148zm170 296l-74 42 85 148 74 -42 -85 -148zm170 296l-74 43 85 148 74 -43 -85 -148zm170 296l-74 43 85 148 74 -43 -85 -148zm171 296l-75 43 86 148 74 -42 -85 -149zm170 297l-74 42 85 148 74 -42 -85 -148zm170 296l-74 42 85 148 74 -42 -85 -148zm170 296l-74 43 85 148 74 -43 -85 -148zm170 296l-74 43 86 148 74 -43 -86 -148zm171 296l-74 43 85 148 74 -42 -85 -149zm170 297l-74 42 85 148 74 -42 -85 -148zm170 296l-74 42 85 148 74 -42 -85 -148zm170 296l-74 43 85 148 74 -43 -85 -148zm170 296l-74 43 85 148 75 -43 -86 -148zm105 248l65 55 110 -131 -66 -55 -109 131zm218 -262l66 55 110 -132 -66 -54 -110 131zm219 -262l66 54 109 -131 -65 -55 -110 132zm219 -263l66 55 109 -131 -65 -55 -110 131zm219 -262l66 55 109 -131 -65 -55 -110 131zm219 -262l66 55 109 -132 -65 -54 -110 131zm219 -262l66 54 109 -131 -65 -55 -110 132zm219 -263l66 55 109 -131 -65 -55 -110 131zm219 -262l66 55 109 -131 -65 -55 -110 131zm219 -262l13 11 30 54 163 -26 -13 -85 -179 29 -14 17zm361 -73l14 85 168 -27 -13 -85 -169 27zm338 -54l13 85 169 -27 -14 -85 -168 27zm337 -54l13 85 169 -27 -13 -85 -169 27zm337 -54l14 85 169 -27 -14 -85 -169 27zm338 -54l13 85 169 -27 -14 -85 -168 27zm337 -54l14 84 168 -27 -13 -84 -169 27zm337 -54l14 85 168 -27 -13 -85 -169 27zm338 -54l13 85 169 -27 -14 -85 -168 27zm279 -4l73 -42 -85 -148 -74 43 86 147zm-172 -295l74 -43 -86 -148 -73 43 85 148zm-171 -296l74 -43 -86 -147 -74 42 86 148zm-171 -295l73 -43 -85 -148 -74 43 86 148zm-172 -296l74 -43 -86 -148 -73 43 85 148zm-171 -296l74 -42 -86 -148 -74 43 86 147zm-171 -295l74 -43 -86 -148 -74 43 86 148zm-172 -296l74 -42 -85 -148 -74 43 85 147zm-171 -295l74 -43 -86 -148 -74 43 86 148zm-171 -296l74 -43 -86 -147 -74 42 86 148zm-172 -295l74 -43 -85 -148 -74 43 85 148z"/>
    <path class="fil2" d="M4674 18192c-651,1148 -1302,2296 -1952,3444 -106,187 -59,286 138,299 1004,167 2007,334 3011,501 137,13 215,84 267,182 647,790 1295,1580 1942,2370 113,102 208,72 289,-54 1027,-1784 2055,-3569 3082,-5354 -2259,-463 -4518,-925 -6777,-1388z"/>
    <path class="fil1" d="M5094 18385l-74 -42 85 -148 74 43 -85 147zm5915 1079l74 43 -85 148 -74 -43 85 -148zm-170 296l74 43 -85 148 -75 -43 86 -148zm-171 297l74 42 -85 148 -74 -42 85 -148zm-170 296l74 42 -85 148 -74 -42 85 -148zm-170 296l74 42 -85 149 -74 -43 85 -148zm-170 296l74 43 -85 148 -74 -43 85 -148zm-171 296l74 43 -85 148 -74 -42 85 -149zm-170 297l74 42 -85 148 -74 -42 85 -148zm-170 296l74 42 -85 148 -74 -42 85 -148zm-170 296l74 43 -85 148 -74 -43 85 -148zm-171 296l75 43 -86 148 -74 -43 85 -148zm-170 296l74 43 -85 148 -74 -42 85 -149zm-170 297l74 42 -85 148 -74 -42 85 -148zm-170 296l74 42 -85 149 -74 -43 85 -148zm-170 296l74 43 -86 148 -74 -43 86 -148zm-171 296l74 43 -85 148 -74 -43 85 -148zm-170 296l74 43 -85 148 -74 -43 85 -148zm-104 248l-65 55 -110 -131 66 -55 109 131zm-219 -262l-65 55 -110 -131 66 -55 109 131zm-219 -262l-65 54 -110 -131 66 -54 109 131zm-219 -263l-65 55 -110 -131 66 -55 109 131zm-219 -262l-65 55 -110 -131 66 -55 109 131zm-219 -262l-65 55 -110 -131 66 -55 109 131zm-218 -262l-66 55 -110 -132 66 -54 110 131zm-219 -262l-66 54 -109 -131 65 -55 110 132zm-219 -263l-66 55 -109 -131 65 -55 110 131zm-219 -262l-13 11 -31 54 -162 -26 13 -84 178 28 15 17zm-362 -73l-13 85 -169 -27 14 -85 168 27zm-337 -54l-13 85 -169 -27 13 -85 169 27zm-337 -54l-14 85 -168 -27 13 -85 169 27zm-338 -54l-13 85 -169 -27 14 -85 168 27zm-337 -54l-14 85 -168 -27 13 -85 169 27zm-337 -54l-14 85 -168 -27 13 -85 169 27zm-338 -54l-13 85 -169 -27 14 -85 168 27zm-337 -54l-13 85 -169 -27 13 -85 169 27zm-279 -3l-74 -43 86 -148 74 43 -86 148zm172 -296l-74 -43 85 -148 74 43 -85 148zm171 -296l-74 -42 86 -148 73 43 -85 147zm171 -295l-74 -43 86 -148 74 43 -86 148zm171 -296l-73 -43 85 -147 74 42 -86 148zm172 -295l-74 -43 86 -148 73 43 -85 148zm171 -296l-74 -43 86 -148 74 43 -86 148zm171 -296l-74 -42 86 -148 74 43 -86 147zm172 -295l-74 -43 85 -148 74 43 -85 148zm171 -296l-74 -42 86 -148 74 43 -86 147zm171 -295l-74 -43 86 -148 74 43 -86 148z"/>
   </g>
   <circle class="fil3" cx="9925" cy="9849" r="9849"/>
   <path class="fil4" d="M9925 0c5482,0 9926,4444 9926,9925 0,5482 -4444,9926 -9926,9926 -5481,0 -9925,-4444 -9925,-9926 0,-5481 4444,-9925 9925,-9925zm0 2707c3987,0 7219,3232 7219,7218 0,3987 -3232,7219 -7219,7219 -3986,0 -7218,-3232 -7218,-7219 0,-3986 3232,-7218 7218,-7218z"/>
   <path class="fil5" d="M1717 11585c-54,-272 -95,-547 -122,-823 -27,-276 -40,-554 -40,-831 0,-278 13,-556 40,-832 27,-276 68,-551 122,-823 9,-44 -20,-87 -64,-96 -45,-9 -88,20 -97,64 -55,277 -96,557 -124,839 -28,281 -42,564 -42,848 0,283 14,566 42,847 28,282 69,562 124,839 9,44 52,73 97,64 44,-9 73,-52 64,-96z"/>
   <path class="fil6" d="M9925 124c2707,0 5157,1097 6931,2871 1774,1773 2871,4224 2871,6930 0,2707 -1097,5157 -2871,6931 -1774,1774 -4224,2871 -6931,2871 -2706,0 -5157,-1097 -6930,-2871 -1774,-1774 -2871,-4224 -2871,-6931 0,-2706 1097,-5157 2871,-6930 1773,-1774 4224,-2871 6930,-2871zm6871 2931c-1759,-1758 -4188,-2846 -6871,-2846 -2683,0 -5112,1088 -6870,2846 -1758,1758 -2846,4187 -2846,6870 0,2683 1088,5112 2846,6871 1758,1758 4187,2845 6870,2845 2683,0 5112,-1087 6871,-2845 1758,-1759 2845,-4188 2845,-6871 0,-2683 -1087,-5112 -2845,-6870z"/>
   <path class="fil7" d="M9925 271c2666,0 5080,1080 6827,2827 1747,1748 2828,4161 2828,6827 0,2667 -1081,5080 -2828,6827 -1747,1747 -4160,2828 -6827,2828 -2666,0 -5079,-1081 -6827,-2828 -1747,-1747 -2827,-4161 -2827,-6827 0,-2666 1080,-5079 2827,-6827 1748,-1747 4161,-2827 6827,-2827zm6767 2888c-1732,-1732 -4124,-2803 -6767,-2803 -2642,0 -5034,1071 -6766,2803 -1732,1732 -2803,4124 -2803,6766 0,2643 1071,5035 2803,6767 1732,1732 4124,2803 6766,2803 2643,0 5035,-1071 6767,-2803 1732,-1732 2803,-4124 2803,-6767 0,-2642 -1071,-5034 -2803,-6766z"/>
   <path class="fil5" d="M18250 8276c54,272 95,547 122,823 27,276 40,554 40,832 0,277 -13,555 -40,831 -27,276 -68,551 -122,823 -9,44 20,87 64,96 45,9 88,-20 97,-64 55,-277 96,-557 124,-838 28,-282 42,-565 42,-848 0,-284 -14,-567 -42,-848 -28,-282 -69,-561 -124,-839 -9,-44 -52,-73 -97,-64 -44,9 -73,52 -64,96z"/>
   <path class="fil8" d="M1665 11580c-55,-272 -96,-547 -123,-823 -27,-276 -40,-554 -40,-832 0,-277 13,-555 40,-831 27,-276 68,-551 123,-823 8,-44 -20,-87 -65,-96 -44,-9 -88,20 -96,64 -56,277 -97,557 -125,838 -27,282 -41,565 -41,848 0,284 14,567 41,848 28,282 69,561 125,839 8,44 52,73 96,64 44,-9 73,-52 65,-96z"/>
   <path class="fil9" d="M18186 8271c54,272 95,547 123,823 27,276 40,554 40,831 0,278 -13,556 -40,832 -28,276 -69,551 -123,823 -9,44 20,87 65,96 44,9 87,-20 96,-64 55,-278 97,-557 124,-839 28,-281 42,-564 42,-848 0,-283 -14,-566 -42,-848 -27,-281 -69,-561 -124,-838 -9,-44 -52,-73 -96,-64 -45,9 -74,52 -65,96z"/>
   <circle class="fil10" cx="9925" cy="9925" r="7226"/>
   <path class="fil11" d="M15888 7594c-30,-80 -152,-60 -152,30 0,10 1,18 5,27 19,49 37,98 55,147 35,91 173,51 151,-47l-3 -8c-18,-50 -37,-100 -56,-149zm-11759 9c13,-35 2,-72 -28,-94 -44,-29 -98,-13 -119,35 -20,50 -39,99 -57,149 -31,81 76,149 136,76 5,-6 9,-13 12,-21 18,-48 37,-97 56,-145zm-245 739c23,-83 -94,-140 -145,-59 -3,7 -6,12 -8,20 -13,51 -26,103 -39,155 -21,96 120,140 153,40 13,-52 26,-104 39,-156zm-151 765c13,-95 -128,-128 -155,-28l-1 8c-7,53 -14,105 -19,158 -3,30 9,57 33,73 48,35 119,2 124,-56 5,-52 11,-104 18,-155zm-53 777c0,-83 -114,-111 -152,-32 -4,11 -6,20 -6,32 -1,53 0,106 1,159 4,101 148,104 157,4 2,-54 -1,-109 0,-163zm44 778c-13,-97 -158,-90 -158,12 5,54 14,112 22,166 2,17 12,35 25,47 56,49 141,4 131,-70 -7,-52 -14,-103 -20,-155zm140 766c-26,-98 -172,-65 -153,36 12,52 26,106 41,158 24,88 159,71 155,-27 -1,-6 -2,-10 -3,-16 -14,-50 -27,-100 -40,-151zm235 743c-30,-77 -148,-61 -152,27 0,12 1,20 5,31 19,50 39,99 59,148 16,37 56,57 95,46 45,-13 69,-64 51,-107 -20,-48 -39,-96 -58,-145zm325 709c-46,-84 -175,-28 -144,63 1,4 3,8 5,12 25,47 51,93 77,140 40,73 160,39 147,-53 -2,-10 -5,-17 -10,-26 -25,-37 -53,-95 -75,-136zm410 663c-47,-69 -162,-23 -141,65 3,10 6,17 13,26 30,44 62,87 94,129 58,75 173,5 134,-80 -2,-5 -5,-10 -8,-14 -31,-42 -62,-84 -92,-126zm490 606c-63,-66 -170,6 -128,90 4,7 7,11 12,17 36,39 72,78 109,116 66,67 175,-15 122,-100 -3,-3 -6,-7 -9,-10 -36,-37 -71,-75 -106,-113zm561 540c-51,-46 -136,-3 -129,66 1,21 12,41 28,54 40,35 81,69 123,102 38,30 91,21 116,-20 21,-33 13,-79 -17,-103 -41,-33 -81,-66 -121,-99zm625 465c-34,-21 -76,-15 -102,15 -32,35 -24,92 16,118 45,29 90,57 135,85 73,46 161,-46 101,-119 -5,-6 -11,-11 -18,-15 -44,-28 -88,-55 -132,-84zm678 384c-83,-40 -156,72 -83,133 5,4 9,7 15,9 48,24 96,46 144,68 88,38 155,-81 78,-136 -4,-3 -8,-6 -13,-8 -47,-21 -94,-43 -141,-66zm721 298c-92,-30 -147,95 -64,144 5,2 8,4 13,5 50,17 101,34 152,50 88,28 145,-96 62,-144 -5,-3 -10,-5 -15,-7 -50,-15 -99,-32 -148,-48zm751 206c-81,-19 -135,93 -57,144 9,5 15,8 25,10 52,11 105,21 157,31 92,16 133,-115 42,-152 -5,-2 -9,-3 -14,-4 -51,-9 -102,-19 -153,-29zm772 110c-91,-8 -122,123 -30,154 6,2 11,3 17,3 54,4 107,8 160,11 88,4 117,-119 31,-153 -7,-3 -15,-4 -23,-5 -52,-3 -104,-6 -155,-10zm778 13c-87,3 -104,130 -17,155 9,2 16,3 25,2 53,-2 107,-5 160,-9 95,-8 99,-149 -2,-158 -3,0 -7,0 -10,0 -52,4 -104,7 -156,10zm775 -85c-91,16 -85,152 13,157 5,0 10,-1 15,-2 52,-9 104,-18 157,-29 99,-23 73,-169 -29,-155 -52,10 -104,20 -156,29zm758 -181c-94,30 -60,171 39,153 52,-13 109,-33 160,-50 80,-26 69,-150 -24,-154 -10,0 -17,1 -26,4 -49,17 -99,33 -149,47zm730 -273c-79,34 -52,160 42,151 8,-1 15,-3 23,-6 48,-22 97,-45 145,-67 18,-9 31,-23 39,-42 27,-67 -42,-132 -107,-101 -47,22 -94,44 -142,65zm691 -361c-80,51 -23,172 67,142 5,-2 9,-4 15,-7 45,-27 90,-56 135,-84 71,-45 31,-157 -54,-145 -12,2 -21,5 -31,12 -44,28 -88,55 -132,82zm640 -444c-68,53 -11,166 77,136 8,-4 14,-7 21,-12 42,-34 83,-67 124,-101 24,-21 34,-51 25,-82 -15,-55 -82,-76 -126,-39 -40,33 -81,66 -121,98zm579 -521c-63,63 15,171 98,123 6,-3 10,-7 15,-12 38,-38 74,-77 111,-116 64,-72 -28,-173 -106,-116 -3,3 -6,5 -10,9 -35,38 -71,75 -108,112zm510 -589c-52,66 28,162 106,114 8,-5 14,-11 20,-19 32,-42 64,-85 95,-128 55,-80 -49,-168 -119,-103 -3,3 -7,7 -9,11 -31,42 -62,84 -93,125zm432 -648c-48,88 74,166 134,84 28,-46 55,-97 81,-145 45,-81 -66,-161 -130,-88 -3,4 -6,8 -8,13 -25,45 -51,90 -77,136zm348 -697c-35,81 75,152 135,79 5,-6 8,-11 11,-18 21,-49 40,-99 60,-148 33,-87 -83,-150 -138,-74 -3,5 -6,10 -9,16 -20,46 -39,98 -59,145zm260 -735c-10,34 4,69 34,88 44,27 104,5 117,-45 15,-52 28,-103 42,-155 21,-77 -79,-136 -137,-69 -8,10 -12,18 -16,30 -13,50 -26,101 -40,151zm165 -762c-11,85 98,125 144,55 6,-10 11,-20 12,-31 8,-53 16,-106 22,-159 12,-87 -112,-126 -151,-40 -2,7 -4,13 -5,21 -7,51 -14,103 -22,154zm70 -776c-4,83 113,114 150,36 5,-11 7,-20 7,-32 2,-53 3,-106 3,-160 0,-81 -110,-111 -150,-35 -5,12 -8,22 -8,35 0,52 -1,104 -2,156zm-28 -779c7,89 139,99 156,5 1,-7 2,-13 1,-20 -5,-53 -11,-106 -18,-159 -12,-95 -152,-92 -157,8 0,4 0,8 1,11 6,52 12,104 17,155zm-125 -769c22,93 165,76 156,-27l-2 -8c-12,-52 -24,-104 -37,-156 -27,-98 -172,-65 -154,36 12,52 25,103 37,155z"/>
   <path class="fil12" d="M9925 2677c2002,0 3814,812 5126,2123 1311,1312 2123,3124 2123,5125 0,2002 -812,3814 -2123,5126 -1312,1311 -3124,2123 -5126,2123 -2001,0 -3813,-812 -5125,-2123 -1311,-1312 -2123,-3124 -2123,-5126 0,-2001 812,-3813 2123,-5125 1312,-1311 3124,-2123 5125,-2123zm0 86c3956,0 7163,3207 7163,7162 0,3956 -3207,7163 -7163,7163 -3955,0 -7162,-3207 -7162,-7163 0,-3955 3207,-7162 7162,-7162z"/>
   <circle class="fil13" cx="9925" cy="9925" r="5576"/>
   <path class="fil14" d="M9925 4356c1538,0 2931,623 3939,1631 1007,1008 1631,2401 1631,3938 0,1538 -624,2931 -1631,3938 -1008,1008 -2401,1632 -3939,1632 -1537,0 -2930,-624 -3938,-1632 -1007,-1007 -1631,-2400 -1631,-3938 0,-1537 624,-2930 1631,-3938 1008,-1007 2401,-1631 3938,-1631zm0 85c3029,0 5484,2456 5484,5484 0,3029 -2455,5484 -5484,5484 -3028,0 -5483,-2455 -5483,-5484 0,-3028 2455,-5484 5483,-5484z"/>
   <path class="fil15" d="M9925 2677c4001,0 7244,3235 7244,7226 0,30 -1,60 -1,90 -49,-3950 -3272,-7136 -7243,-7136 -3970,0 -7194,3186 -7242,7136 0,-30 -1,-60 -1,-90 0,-3991 3243,-7226 7243,-7226z"/>
   <path class="fil3" d="M9925 3882c3338,0 6044,2706 6044,6043 0,3338 -2706,6044 -6044,6044 -3337,0 -6043,-2706 -6043,-6044 0,-3337 2706,-6043 6043,-6043z"/>
  </g>
  <g id="_874643032">
   <path class="fil16" d="M10246 13300c-506,0 -989,-93 -1430,-261l-514 377c430,168 899,261 1389,261 864,0 1661,-288 2300,-773 -523,253 -1116,396 -1745,396zm2827 -2397c0,-20 7,-36 20,-48 13,-12 29,-18 49,-18 20,0 36,6 48,19 13,12 19,28 19,47 0,18 -6,34 -19,47 -12,12 -28,19 -48,19 -20,0 -36,-7 -49,-19 -13,-13 -20,-29 -20,-47zm476 -555l0 552c-5,5 -13,10 -24,14 -11,3 -23,5 -38,5 -5,0 -10,0 -16,-2 -35,-23 -68,-44 -101,-64 -32,-19 -65,-38 -97,-55 -33,-18 -66,-34 -99,-50 -33,-16 -68,-31 -104,-46 -6,-10 -11,-23 -14,-38 -4,-15 -6,-30 -6,-46 0,-4 0,-7 0,-12 0,-4 1,-7 1,-11 11,-6 24,-13 40,-21 16,-9 33,-17 50,-25 17,-8 34,-16 50,-24 16,-7 30,-14 40,-19l-182 -80c-10,-5 -19,-10 -24,-15 -5,-5 -7,-13 -7,-23 0,-8 1,-15 4,-22 2,-6 6,-13 9,-18l-18 0 -27 0 -415 0 0 119c0,12 0,25 -1,40 -1,15 -2,30 -4,44 -1,14 -3,28 -4,40 -2,12 -4,22 -5,29 18,-20 40,-40 64,-60 24,-20 50,-38 77,-55 26,-17 54,-32 82,-45 28,-12 55,-22 82,-28 11,6 23,15 35,28 12,14 21,27 26,40 -5,16 -11,33 -16,51 -6,19 -11,39 -15,62 -4,23 -8,49 -11,77 -3,28 -4,60 -4,95 0,29 1,55 4,79 3,24 7,46 11,67 -5,7 -12,12 -20,16 -7,4 -17,6 -29,6 -11,0 -22,-2 -32,-7 -10,-6 -19,-14 -26,-26 -8,-12 -14,-28 -18,-49 -4,-20 -6,-46 -6,-77 0,-27 2,-54 6,-79 4,-26 8,-50 14,-71 6,-22 12,-41 18,-58 6,-16 12,-30 18,-40 -23,10 -46,22 -69,37 -23,15 -45,32 -67,50 -23,19 -44,38 -64,59 -21,21 -39,42 -56,62 -7,2 -15,3 -23,3 -16,0 -31,-3 -46,-9 -15,-7 -25,-16 -31,-27l0 -127c-9,-9 -18,-19 -30,-29 -11,-9 -23,-17 -37,-25 -13,-7 -27,-13 -43,-17 -15,-5 -30,-7 -45,-7 -30,0 -54,8 -71,23 -16,15 -25,35 -25,59 0,7 1,14 3,20 2,7 4,13 6,18 -2,8 -8,14 -16,20 -9,6 -19,9 -32,9 -18,0 -34,-7 -47,-21 -13,-13 -19,-34 -19,-61 0,-25 5,-48 14,-67 10,-20 24,-36 41,-49 16,-13 36,-23 58,-29 23,-7 47,-10 72,-10 37,0 69,6 98,17 28,12 53,26 73,41l0 -138 -359 0 -31 0 -2 0 -98 0 0 566c-4,2 -10,3 -18,4 -8,2 -18,2 -28,2 -19,0 -34,-3 -46,-10 -12,-7 -18,-21 -18,-42l0 -520 -43 0 -32 0 -242 0c25,3 48,10 69,20 21,10 39,23 55,39 15,17 28,36 36,58 9,23 14,47 14,75 0,35 -7,65 -20,91 -14,26 -32,48 -55,66 -22,18 -49,31 -79,40 -30,10 -62,15 -95,16 49,19 96,38 139,56 42,17 76,32 100,43 15,7 27,15 36,24 9,9 13,20 13,34 0,15 -4,28 -12,39 -9,10 -19,18 -31,24 -43,-24 -82,-44 -117,-62 -34,-18 -68,-35 -101,-51 -33,-16 -66,-32 -101,-47 -34,-16 -73,-33 -116,-52 -5,-9 -7,-20 -7,-33 0,-11 1,-22 5,-31 4,-10 9,-17 14,-23 16,3 34,5 54,6 21,2 40,2 58,2 64,0 114,-13 149,-39 35,-26 52,-61 52,-105 0,-35 -9,-62 -28,-80 -18,-19 -41,-28 -68,-28 -26,0 -48,8 -65,24 -16,16 -25,38 -25,66 0,9 1,18 3,25 2,8 5,15 8,20 -13,18 -31,27 -56,27 -18,0 -34,-7 -48,-21 -14,-14 -22,-36 -22,-66 0,-21 4,-40 12,-58 8,-17 19,-33 33,-47 14,-13 31,-25 50,-34 19,-8 40,-15 62,-18l-227 0c-27,0 -40,-15 -40,-45 0,-8 0,-15 2,-23 2,-7 4,-14 7,-19l410 0c4,-6 6,-11 8,-17 2,-6 2,-13 2,-20 0,-17 -6,-30 -18,-40 -12,-10 -34,-15 -64,-15 -11,0 -21,1 -30,1 -8,0 -17,1 -26,1 -8,0 -17,1 -28,1 -10,0 -23,1 -38,1 -55,0 -98,-13 -130,-37 -31,-24 -46,-56 -46,-95 0,-25 6,-45 17,-59 12,-14 28,-21 47,-21 12,0 22,2 29,5 8,4 14,7 19,11 -1,4 -2,9 -2,14 0,6 0,12 0,18 0,51 30,76 91,76 20,0 40,0 60,-1 19,-1 40,-2 63,-2 52,0 92,11 119,33 27,22 41,51 41,88 0,12 -1,23 -5,32 -3,10 -6,18 -10,26l45 0 32 0 65 0c-8,-10 -15,-22 -20,-37 -5,-15 -7,-32 -7,-50 0,-30 6,-56 20,-80 13,-24 32,-44 57,-61 24,-17 54,-30 88,-39 35,-10 73,-14 116,-14 38,0 74,3 107,9 34,7 64,15 91,23 26,9 49,19 69,29 19,10 34,18 45,25 19,13 31,24 37,34 7,9 10,19 10,28 0,14 -4,25 -12,34 -8,8 -17,15 -28,19 -41,-29 -89,-54 -142,-76 -54,-21 -112,-32 -174,-32 -53,0 -94,10 -125,31 -30,21 -46,49 -46,84 0,18 3,33 9,45 5,12 12,21 19,28l73 0 31 0 0 0 1 0 0 0 883 0 27 0 606 0 62 0 1 0 51 0c21,0 40,4 56,12 16,8 28,20 35,36 6,-17 15,-29 28,-37 14,-7 29,-11 46,-11l62 0c12,0 22,3 29,10 7,7 11,18 11,34 0,7 -1,15 -3,22 -2,8 -4,15 -7,21l-81 0c-15,0 -27,4 -36,11 -8,7 -13,20 -13,39l0 518c-4,2 -10,3 -18,4 -9,2 -18,2 -28,2 -19,0 -35,-3 -46,-10 -12,-7 -18,-21 -18,-42l0 -487c0,-23 -11,-35 -32,-35l-7 0 -61 0 -1 0 -69 0zm-214 114c2,5 3,12 4,19 0,7 1,14 1,22 0,9 -1,18 -2,27 -2,8 -3,15 -5,21 -12,6 -25,13 -40,21 -15,8 -29,16 -44,24 -15,8 -29,15 -43,23 -14,7 -26,14 -34,19 41,19 86,42 135,69 50,27 96,54 139,83 0,-10 -1,-22 -2,-35 -1,-14 -2,-27 -3,-41 0,-13 -1,-27 -1,-40 -1,-13 -1,-24 -1,-33l0 -293 -329 0c14,6 32,14 52,24 21,9 42,19 63,30 22,11 42,22 62,33 19,10 35,19 48,27zm-465 -1538l0 829c-22,24 -61,37 -117,37 -11,0 -21,-1 -32,-4 -50,-38 -97,-73 -143,-104 -45,-32 -91,-62 -137,-89 -46,-27 -93,-54 -141,-79 -48,-26 -99,-50 -154,-75 -14,-20 -24,-45 -31,-75 -7,-30 -11,-61 -11,-91 0,-8 0,-15 0,-21 0,-6 1,-12 2,-17 39,-27 81,-52 127,-77 45,-25 92,-48 140,-70 48,-22 97,-41 146,-59 49,-18 97,-33 144,-45l0 -60 -548 0 -53 0 -1 0 -63 0c-23,0 -42,5 -56,17 -14,11 -22,32 -22,64l0 780c-6,2 -17,4 -34,7 -16,3 -34,4 -54,4 -37,0 -67,-7 -89,-20 -22,-13 -33,-40 -33,-82l0 -718c0,-16 -5,-28 -13,-38 -8,-9 -19,-14 -32,-14l-1 0 0 0 -100 0 -1 0 -1 0 -526 0 0 92 231 54c89,20 156,50 202,89 46,40 69,100 69,180 0,58 -11,113 -34,164 -22,52 -53,96 -92,134 -38,38 -83,68 -134,90 -50,22 -104,32 -160,32 -97,0 -170,-24 -219,-72 -50,-49 -74,-119 -74,-210l0 -553 -14 0 -78 0 -1 0 -1 0 -39 0c-18,9 -37,26 -58,50 -21,24 -40,53 -57,87 -18,34 -32,73 -43,116 -11,43 -17,87 -17,134 0,49 6,94 18,133 11,39 27,74 47,105 20,30 43,57 68,79 25,22 51,40 78,54 1,5 2,10 2,16 0,5 0,10 0,15 0,32 -9,58 -28,77 -18,19 -44,28 -77,28 -35,0 -71,-11 -108,-32 -38,-22 -73,-53 -104,-95 -32,-41 -58,-91 -79,-151 -20,-60 -31,-127 -31,-202 0,-89 13,-169 38,-240 24,-72 55,-132 92,-182 36,-50 75,-88 116,-115 41,-27 79,-40 113,-40l19 0 76 0 1 0 1 0 752 0 105 0 1 0 1 0 77 0c34,0 65,6 93,19 28,12 50,32 64,58 12,-27 29,-47 51,-59 22,-12 48,-18 78,-18l28 0 53 0 1 0 840 0 110 0 1 0 1 0 72 0c34,0 65,6 93,19 28,12 50,32 64,58 12,-27 29,-47 51,-59 22,-12 48,-18 78,-18l81 0c22,0 40,6 53,19 13,12 20,33 20,63 0,16 -2,31 -6,44 -4,14 -8,26 -13,37l-118 0c-23,0 -42,5 -56,17 -14,11 -22,32 -22,64l0 780c-6,2 -17,4 -34,7 -16,3 -34,4 -54,4 -37,0 -67,-7 -89,-20 -22,-13 -33,-40 -33,-82l0 -718c0,-16 -5,-28 -13,-38 -8,-9 -19,-14 -32,-14l-1 0 0 0 -100 0 -1 0 -1 0 -84 0zm-209 254c-60,14 -119,35 -176,61 -57,26 -108,52 -152,80 29,15 59,31 89,48 30,18 60,35 89,52 29,18 57,35 84,53 27,17 52,34 74,50 -1,-14 -2,-30 -3,-47 -1,-18 -2,-35 -3,-52 0,-18 -1,-35 -1,-51 -1,-17 -1,-31 -1,-44l0 -150zm-515 578c-9,-19 -13,-37 -13,-55 0,-27 8,-50 23,-72 15,-21 38,-34 69,-41 45,21 90,45 133,70 43,25 78,47 105,65 20,14 35,27 44,40 10,12 14,28 14,47 0,21 -7,40 -20,57 -14,17 -33,28 -57,34l-298 -145zm-1110 -556l0 280c0,35 6,60 18,75 12,15 34,22 66,22 22,0 45,-6 69,-18 24,-12 46,-28 66,-48 20,-21 36,-44 49,-71 12,-27 19,-55 19,-83 0,-36 -10,-61 -29,-76 -19,-14 -46,-26 -81,-35l-177 -46zm-1430 1339c104,100 206,198 304,292 -54,54 -103,103 -157,157 -67,-65 -145,-135 -215,-212 -54,-61 -95,-78 -182,-41 -203,88 -401,55 -568,-95 -167,-149 -223,-339 -163,-554 61,-217 212,-352 433,-390 213,-36 396,35 527,212 130,176 143,367 56,566 -9,20 -20,38 -35,65zm-126 -304c-2,-181 -152,-331 -331,-332 -176,0 -330,151 -330,326 -1,183 152,337 333,334 178,-3 329,-154 328,-328zm-898 436c-182,0 -358,4 -535,-1 -126,-4 -211,-100 -211,-227 -1,-543 -1,-1086 0,-1628 0,-128 95,-221 222,-221 436,-1 872,-1 1307,0 118,0 217,84 219,198 4,289 1,579 1,868 -68,-34 -136,-64 -201,-101 -12,-7 -15,-38 -15,-57 -1,-208 0,-417 0,-625l0 -66 -1310 0 0 1640c123,0 243,1 363,-1 35,-1 54,9 69,43 24,59 57,114 91,178zm-589 1682l-477 1554 1205 -1118c396,172 833,267 1292,267 1230,0 2300,-682 2854,-1689l-374 0c-520,822 -1436,1367 -2480,1367 -1620,0 -2934,-1314 -2934,-2935 0,-1620 1314,-2934 2934,-2934 1044,0 1960,545 2480,1366l375 0c-554,-1006 -1625,-1688 -2855,-1688 -1799,0 -3256,1458 -3256,3256 0,1035 483,1958 1236,2554zm-255 64c-797,-653 -1301,-1612 -1301,-2682 0,-1968 1706,-3564 3809,-3564 156,0 309,9 460,26 -323,-89 -664,-137 -1015,-137 -2104,0 -3809,1705 -3809,3808 0,1343 694,2522 1743,3201l113 -652z"/>
   <path class="fil17" d="M10246 13241c-506,0 -989,-92 -1430,-260l-514 377c430,168 899,261 1389,261 864,0 1661,-288 2300,-773 -523,253 -1116,395 -1745,395zm2827 -2396c0,-20 7,-36 20,-48 13,-12 29,-18 49,-18 20,0 36,6 48,19 13,12 19,28 19,47 0,18 -6,34 -19,47 -12,12 -28,18 -48,18 -20,0 -36,-6 -49,-18 -13,-13 -20,-29 -20,-47zm476 -555l0 552c-5,5 -13,10 -24,14 -11,3 -23,5 -38,5 -5,0 -10,0 -16,-2 -35,-23 -68,-44 -101,-64 -32,-19 -65,-38 -97,-55 -33,-18 -66,-34 -99,-50 -33,-16 -68,-31 -104,-46 -6,-10 -11,-23 -14,-38 -4,-15 -6,-31 -6,-46 0,-4 0,-7 0,-12 0,-4 1,-8 1,-11 11,-6 24,-13 40,-21 16,-9 33,-17 50,-25 17,-8 34,-16 50,-24 16,-7 30,-14 40,-19l-182 -80c-10,-5 -19,-10 -24,-15 -5,-5 -7,-13 -7,-23 0,-8 1,-15 4,-22 2,-7 6,-13 9,-18l-18 0 -27 0 -415 0 0 119c0,11 0,25 -1,40 -1,15 -2,30 -4,44 -1,14 -3,28 -4,40 -2,12 -4,22 -5,29 18,-20 40,-40 64,-60 24,-20 50,-38 77,-55 26,-17 54,-32 82,-45 28,-12 55,-22 82,-28 11,5 23,15 35,28 12,14 21,27 26,40 -5,15 -11,33 -16,51 -6,18 -11,39 -15,62 -4,23 -8,49 -11,77 -3,28 -4,60 -4,95 0,29 1,55 4,79 3,24 7,46 11,67 -5,6 -12,12 -20,16 -7,4 -17,6 -29,6 -11,0 -22,-2 -32,-8 -10,-5 -19,-13 -26,-25 -8,-12 -14,-28 -18,-49 -4,-20 -6,-46 -6,-77 0,-27 2,-54 6,-79 4,-26 8,-50 14,-71 6,-22 12,-41 18,-58 6,-16 12,-30 18,-40 -23,9 -46,22 -69,37 -23,15 -45,32 -67,50 -23,19 -44,38 -64,59 -21,21 -39,42 -56,62 -7,2 -15,3 -23,3 -16,0 -31,-3 -46,-10 -15,-6 -25,-15 -31,-26l0 -127c-9,-9 -18,-19 -30,-29 -11,-9 -23,-18 -37,-25 -13,-7 -27,-13 -43,-17 -15,-5 -30,-7 -45,-7 -30,0 -54,8 -71,23 -16,15 -25,35 -25,59 0,7 1,14 3,20 2,7 4,13 6,18 -2,8 -8,14 -16,20 -9,6 -19,9 -32,9 -18,0 -34,-7 -47,-21 -13,-13 -19,-34 -19,-61 0,-26 5,-48 14,-67 10,-20 24,-36 41,-49 16,-13 36,-23 58,-29 23,-7 47,-10 72,-10 37,0 69,6 98,17 28,12 53,26 73,41l0 -138 -359 0 -31 0 -2 0 -98 0 0 566c-4,2 -10,3 -18,4 -8,2 -18,2 -28,2 -19,0 -34,-3 -46,-10 -12,-7 -18,-21 -18,-42l0 -520 -43 0 -32 0 -242 0c25,3 48,10 69,20 21,10 39,23 55,39 15,17 28,36 36,58 9,23 14,47 14,75 0,35 -7,65 -20,91 -14,26 -32,48 -55,66 -22,17 -49,31 -79,40 -30,9 -62,15 -95,16 49,19 96,38 139,55 42,18 76,33 100,44 15,7 27,15 36,24 9,9 13,20 13,34 0,15 -4,28 -12,39 -9,10 -19,18 -31,24 -43,-24 -82,-44 -117,-62 -34,-18 -68,-35 -101,-51 -33,-16 -66,-32 -101,-47 -34,-16 -73,-33 -116,-52 -5,-9 -7,-21 -7,-34 0,-11 1,-21 5,-30 4,-10 9,-17 14,-23 16,3 34,5 54,6 21,2 40,2 58,2 64,0 114,-13 149,-39 35,-27 52,-62 52,-105 0,-35 -9,-62 -28,-80 -18,-19 -41,-28 -68,-28 -26,0 -48,8 -65,24 -16,16 -25,38 -25,66 0,9 1,17 3,25 2,8 5,15 8,20 -13,18 -31,27 -56,27 -18,0 -34,-7 -48,-21 -14,-14 -22,-36 -22,-66 0,-21 4,-40 12,-58 8,-17 19,-33 33,-47 14,-14 31,-25 50,-34 19,-9 40,-15 62,-18l-227 0c-27,0 -40,-15 -40,-45 0,-8 0,-15 2,-23 2,-7 4,-14 7,-19l410 0c4,-6 6,-11 8,-17 2,-6 2,-13 2,-20 0,-17 -6,-30 -18,-40 -12,-10 -34,-15 -64,-15 -11,0 -21,1 -30,1 -8,0 -17,1 -26,1 -8,0 -17,1 -28,1 -10,0 -23,0 -38,0 -55,0 -98,-12 -130,-36 -31,-24 -46,-56 -46,-95 0,-25 6,-45 17,-59 12,-14 28,-21 47,-21 12,0 22,2 29,5 8,4 14,7 19,10 -1,5 -2,10 -2,15 0,5 0,11 0,18 0,51 30,76 91,76 20,0 40,0 60,-1 19,-1 40,-2 63,-2 52,0 92,11 119,33 27,22 41,51 41,88 0,12 -1,22 -5,32 -3,10 -6,18 -10,26l45 0 32 0 65 0c-8,-10 -15,-22 -20,-37 -5,-15 -7,-32 -7,-51 0,-29 6,-55 20,-79 13,-24 32,-44 57,-61 24,-17 54,-30 88,-40 35,-9 73,-13 116,-13 38,0 74,3 107,9 34,7 64,15 91,23 26,9 49,19 69,29 19,10 34,18 45,25 19,13 31,24 37,34 7,9 10,19 10,28 0,14 -4,25 -12,34 -8,8 -17,15 -28,19 -41,-29 -89,-54 -142,-76 -54,-21 -112,-32 -174,-32 -53,0 -94,10 -125,31 -30,21 -46,49 -46,84 0,18 3,32 9,44 5,12 12,22 19,29l73 0 31 0 0 0 1 0 0 0 883 0 27 0 606 0 62 0 1 0 51 0c21,0 40,4 56,12 16,8 28,20 35,36 6,-17 15,-30 28,-37 14,-8 29,-11 46,-11l62 0c12,0 22,3 29,10 7,7 11,18 11,34 0,7 -1,15 -3,22 -2,8 -4,15 -7,21l-81 0c-15,0 -27,3 -36,11 -8,7 -13,20 -13,39l0 518c-4,2 -10,3 -18,4 -9,2 -18,2 -28,2 -19,0 -35,-3 -46,-10 -12,-7 -18,-21 -18,-42l0 -487c0,-24 -11,-35 -32,-35l-7 0 -61 0 -1 0 -69 0zm-214 114c2,5 3,12 4,19 0,7 1,14 1,22 0,9 -1,18 -2,26 -2,9 -3,16 -5,22 -12,6 -25,13 -40,21 -15,8 -29,16 -44,24 -15,7 -29,15 -43,23 -14,7 -26,14 -34,19 41,19 86,42 135,69 50,27 96,54 139,83 0,-10 -1,-22 -2,-35 -1,-14 -2,-27 -3,-41 0,-14 -1,-27 -1,-40 -1,-13 -1,-24 -1,-33l0 -293 -329 0c14,6 32,14 52,23 21,10 42,20 63,31 22,11 42,22 62,33 19,10 35,19 48,27zm-465 -1538l0 829c-22,24 -61,37 -117,37 -11,0 -21,-2 -32,-4 -50,-38 -97,-73 -143,-104 -45,-32 -91,-62 -137,-89 -46,-28 -93,-54 -141,-79 -48,-26 -99,-51 -154,-75 -14,-20 -24,-45 -31,-75 -7,-30 -11,-61 -11,-91 0,-8 0,-15 0,-21 0,-6 1,-12 2,-17 39,-27 81,-52 127,-77 45,-25 92,-48 140,-70 48,-22 97,-42 146,-60 49,-17 97,-32 144,-44l0 -60 -548 0 -53 0 -1 0 -63 0c-23,0 -42,5 -56,16 -14,12 -22,33 -22,65l0 780c-6,2 -17,4 -34,7 -16,3 -34,4 -54,4 -37,0 -67,-7 -89,-20 -22,-13 -33,-40 -33,-82l0 -718c0,-16 -5,-28 -13,-38 -8,-9 -19,-14 -32,-14l-1 0 0 0 -100 0 -1 0 -1 0 -526 0 0 92 231 54c89,20 156,50 202,89 46,40 69,100 69,180 0,58 -11,113 -34,164 -22,52 -53,96 -92,134 -38,38 -83,68 -134,90 -50,22 -104,32 -160,32 -97,0 -170,-24 -219,-73 -50,-48 -74,-118 -74,-209l0 -553 -14 0 -78 0 -1 0 -1 0 -39 0c-18,9 -37,26 -58,50 -21,24 -40,53 -57,87 -18,34 -32,73 -43,116 -11,43 -17,87 -17,134 0,49 6,94 18,133 11,39 27,74 47,104 20,31 43,58 68,80 25,22 51,40 78,54 1,5 2,10 2,16 0,5 0,10 0,15 0,32 -9,57 -28,77 -18,19 -44,28 -77,28 -35,0 -71,-11 -108,-32 -38,-22 -73,-54 -104,-95 -32,-41 -58,-91 -79,-151 -20,-60 -31,-127 -31,-202 0,-89 13,-169 38,-241 24,-71 55,-131 92,-181 36,-50 75,-88 116,-115 41,-27 79,-40 113,-40l19 0 76 0 1 0 1 0 752 0 105 0 1 0 1 0 77 0c34,0 65,6 93,19 28,12 50,32 64,58 12,-27 29,-47 51,-59 22,-12 48,-18 78,-18l28 0 53 0 1 0 840 0 110 0 1 0 1 0 72 0c34,0 65,6 93,19 28,12 50,32 64,58 12,-27 29,-47 51,-59 22,-12 48,-18 78,-18l81 0c22,0 40,6 53,19 13,12 20,33 20,63 0,16 -2,31 -6,44 -4,14 -8,26 -13,37l-118 0c-23,0 -42,5 -56,16 -14,12 -22,33 -22,65l0 780c-6,2 -17,4 -34,7 -16,3 -34,4 -54,4 -37,0 -67,-7 -89,-20 -22,-13 -33,-40 -33,-82l0 -718c0,-16 -5,-28 -13,-38 -8,-9 -19,-14 -32,-14l-1 0 0 0 -100 0 -1 0 -1 0 -84 0zm-209 254c-60,14 -119,35 -176,61 -57,25 -108,52 -152,80 29,14 59,31 89,48 30,17 60,35 89,52 29,18 57,35 84,53 27,17 52,34 74,50 -1,-14 -2,-30 -3,-47 -1,-18 -2,-35 -3,-53 0,-17 -1,-34 -1,-50 -1,-17 -1,-31 -1,-44l0 -150zm-515 578c-9,-19 -13,-37 -13,-55 0,-27 8,-50 23,-72 15,-21 38,-35 69,-41 45,21 90,45 133,70 43,25 78,47 105,65 20,14 35,27 44,40 10,12 14,28 14,47 0,21 -7,40 -20,57 -14,17 -33,28 -57,33l-298 -144zm-1110 -556l0 280c0,35 6,60 18,75 12,15 34,22 66,22 22,0 45,-6 69,-18 24,-12 46,-28 66,-49 20,-20 36,-43 49,-70 12,-27 19,-55 19,-83 0,-36 -10,-61 -29,-76 -19,-14 -46,-26 -81,-35l-177 -46zm-1430 1339c104,99 206,198 304,292 -54,54 -103,103 -157,157 -67,-65 -145,-135 -215,-212 -54,-61 -95,-79 -182,-41 -203,88 -401,55 -568,-95 -167,-149 -223,-339 -163,-554 61,-217 212,-352 433,-390 213,-36 396,35 527,212 130,176 143,367 56,566 -9,20 -20,37 -35,65zm-126 -304c-2,-181 -152,-331 -331,-332 -176,0 -330,151 -330,326 -1,183 152,337 333,334 178,-3 329,-154 328,-328zm-898 436c-182,0 -358,4 -535,-1 -126,-4 -211,-100 -211,-227 -1,-543 -1,-1086 0,-1628 0,-128 95,-221 222,-221 436,-1 872,-1 1307,0 118,0 217,84 219,198 4,289 1,579 1,868 -68,-34 -136,-65 -201,-101 -12,-7 -15,-38 -15,-57 -1,-209 0,-417 0,-625l0 -66 -1310 0 0 1640c123,0 243,1 363,-1 35,-1 54,8 69,43 24,59 57,114 91,178zm-589 1682l-477 1554 1205 -1118c396,172 833,267 1292,267 1230,0 2300,-682 2854,-1689l-374 0c-520,822 -1436,1367 -2480,1367 -1620,0 -2934,-1314 -2934,-2935 0,-1620 1314,-2934 2934,-2934 1044,0 1960,545 2480,1366l375 0c-554,-1006 -1625,-1688 -2855,-1688 -1799,0 -3256,1458 -3256,3256 0,1035 483,1958 1236,2554zm-255 64c-797,-653 -1301,-1612 -1301,-2682 0,-1968 1706,-3564 3809,-3564 156,0 309,9 460,26 -323,-89 -664,-137 -1015,-137 -2104,0 -3809,1705 -3809,3808 0,1342 694,2522 1743,3201l113 -652z"/>
   <path class="fil18" d="M10246 13241c-506,0 -989,-92 -1430,-260l-514 377c17,6 35,13 52,20l462 -339c441,168 924,261 1430,261 540,0 1054,-106 1520,-296 77,-50 152,-103 225,-158 -523,253 -1116,395 -1745,395zm2827 -2396c0,-20 7,-36 20,-48 13,-12 29,-18 49,-18 20,0 36,6 48,19 13,12 19,28 19,47 0,10 -2,20 -6,29 -3,-7 -7,-13 -13,-18 -12,-13 -28,-19 -48,-19 -20,0 -36,6 -49,18 -6,5 -11,11 -14,18 -4,-8 -6,-18 -6,-28zm-20 -251c-2,-11 -3,-23 -3,-34 0,-4 0,-7 0,-12 0,-4 1,-8 1,-11 11,-6 24,-13 40,-21 16,-9 33,-17 50,-25l27 -13 63 28c-10,5 -24,12 -40,19 -16,8 -33,16 -50,24 -17,8 -34,16 -50,25 -15,7 -28,14 -38,20zm-26 -239l-2 -2c-1,-2 -2,-3 -3,-5l9 0 -4 7zm-461 197c16,-16 35,-33 55,-50 24,-20 50,-38 77,-55 26,-17 54,-32 82,-45 28,-12 55,-22 82,-28 11,5 23,15 35,28 12,14 21,27 26,40 -4,11 -8,23 -12,36 -4,-6 -8,-12 -14,-18 -12,-13 -24,-22 -35,-28 -27,6 -54,16 -82,28 -28,13 -56,28 -82,45 -27,17 -53,35 -77,55 -24,20 -46,40 -64,60 1,-7 3,-17 5,-29 1,-12 3,-25 4,-39zm311 201c1,19 2,36 4,53 3,24 7,46 11,67 -2,3 -5,6 -9,9l-2 -18c-3,-24 -4,-50 -4,-79l0 -32zm-115 12c-1,-9 -1,-19 -1,-29 0,-27 2,-54 6,-79 4,-26 8,-50 14,-71 3,-10 5,-18 8,-27 9,-5 18,-9 28,-13 -6,10 -12,24 -18,40 -6,17 -12,36 -18,58 -6,21 -10,45 -14,71 -3,16 -4,33 -5,50zm-547 -197c2,4 3,7 4,10 -1,5 -4,10 -9,14 1,-9 3,-17 5,-24zm-108 -16c-2,-8 -2,-17 -2,-27 0,-26 5,-48 14,-67 10,-20 24,-36 41,-49 16,-13 36,-23 58,-29 23,-7 47,-10 72,-10 37,0 69,6 98,17 28,12 53,26 73,41l0 58c-20,-15 -45,-29 -73,-41 -29,-11 -61,-17 -98,-17 -25,0 -49,3 -72,10 -22,6 -42,16 -58,29 -17,13 -31,29 -41,49 -5,11 -9,23 -12,36zm-441 -204l2 1c15,17 28,36 36,58 9,23 14,47 14,75 0,10 -1,20 -2,29 -2,-16 -6,-31 -12,-46 -8,-22 -21,-41 -36,-58 -16,-16 -34,-29 -55,-39 -21,-10 -44,-17 -69,-20l122 0zm-96 387l38 15c42,18 76,33 100,44 15,7 27,15 36,24 9,9 13,20 13,34 0,12 -3,22 -8,31 -1,-2 -3,-5 -5,-7 -9,-9 -21,-17 -36,-24 -24,-11 -58,-26 -100,-43 -43,-18 -90,-37 -139,-56 33,-1 65,-6 95,-16l6 -2zm-293 -37c-4,-8 -5,-18 -5,-29 0,-11 1,-21 5,-30 4,-10 9,-17 14,-23 16,3 34,5 54,6 21,2 40,2 58,2 64,0 114,-13 149,-39 27,-21 43,-46 49,-77 2,9 3,19 3,30 0,44 -17,79 -52,105 -35,26 -85,39 -149,39 -18,0 -37,0 -58,-2 -20,-1 -38,-3 -54,-6 -5,6 -10,13 -14,23l0 1zm145 -208c2,7 4,13 7,17 -3,5 -7,9 -11,12 0,-11 2,-20 4,-29zm-116 -14c-2,-9 -3,-18 -3,-29 0,-21 4,-40 12,-58 7,-15 16,-29 27,-41l118 0c-22,3 -43,10 -62,18 -19,9 -36,21 -50,34 -14,14 -25,30 -33,47 -4,10 -7,19 -9,29zm-108 -205c-4,-7 -5,-16 -5,-26 0,-8 0,-15 2,-23 2,-7 4,-14 7,-19l410 0 3 -6c5,8 7,17 7,27 0,7 0,14 -2,20 -2,6 -4,11 -8,17l-410 0c-2,3 -3,6 -4,10zm47 -259c-2,-9 -3,-19 -3,-29 0,-25 6,-45 17,-59 12,-14 28,-21 47,-21 12,0 22,2 29,5 8,4 14,7 19,10 -1,5 -2,10 -2,15 0,5 0,11 0,18 0,51 30,76 91,76 20,0 40,0 60,-1 19,-1 40,-2 63,-2 52,0 92,11 119,33 27,22 41,51 41,88 0,10 -1,20 -3,28 -6,-23 -19,-42 -38,-58 -27,-22 -67,-33 -119,-33 -23,0 -44,1 -63,2 -20,1 -40,1 -60,1 -61,0 -91,-25 -91,-76 0,-6 0,-12 0,-18 0,-5 1,-10 2,-14 -5,-4 -11,-7 -19,-11 -7,-3 -17,-5 -29,-5 -19,0 -35,7 -47,21 -6,8 -11,18 -14,30zm481 191l30 0 32 0 40 0c1,7 3,14 5,21 5,15 12,27 20,37l-65 0 -32 0 -45 0c4,-8 7,-16 10,-26 4,-9 5,-20 5,-32l0 0zm102 -59c-2,-9 -2,-18 -2,-29 0,-29 6,-55 20,-79 13,-24 32,-44 57,-61 24,-17 54,-30 88,-40 35,-9 73,-13 116,-13 38,0 74,3 107,9 34,7 64,15 91,23 26,9 49,19 69,29 19,10 34,18 45,25 19,13 31,24 37,34 7,9 10,19 10,28 0,12 -3,22 -9,30l-1 0c-6,-10 -18,-21 -37,-34 -11,-7 -26,-15 -45,-25 -20,-10 -43,-20 -69,-29 -27,-8 -57,-16 -91,-23 -33,-6 -69,-9 -107,-9 -43,0 -81,4 -116,14 -34,9 -64,22 -88,39 -25,17 -44,37 -57,61 -9,16 -15,32 -18,50zm115 17c1,5 3,9 5,13 5,12 12,22 19,29l73 0 31 0 0 0 1 0 0 0 883 0 27 0 606 0 62 0 1 0 51 0c21,0 40,4 56,12 16,8 28,20 35,36 6,-17 15,-30 28,-37 14,-8 29,-11 46,-11l62 0c12,0 22,3 29,10 7,7 11,18 11,34 0,7 -1,15 -3,22 -1,4 -2,7 -2,10 -2,-3 -4,-6 -6,-8 -7,-7 -17,-10 -29,-10l-62 0c-17,0 -32,4 -46,11 -13,8 -22,20 -28,37 -7,-16 -19,-28 -35,-36 -16,-8 -35,-12 -56,-12l-51 0 -1 0 -62 0 -606 0 -27 0 -883 0 0 0 -1 0 0 0 -31 0 -73 0c-7,-7 -14,-16 -19,-28 -6,-12 -9,-27 -9,-45 0,-10 2,-19 4,-27zm1392 243c2,5 3,12 4,19 0,7 1,14 1,22 0,9 -1,18 -2,26l0 1c-1,-3 -2,-7 -3,-10 -13,-8 -29,-17 -48,-27 -20,-11 -40,-22 -62,-33 -21,-11 -42,-21 -63,-30 -20,-10 -38,-18 -52,-24l123 0c19,10 37,19 54,29 19,10 35,19 48,27zm-108 203c26,13 52,27 80,42 48,26 93,52 135,80l2 26c1,13 2,25 2,35 -43,-29 -89,-56 -139,-83 -49,-27 -94,-50 -135,-69 8,-5 20,-12 34,-19l21 -12zm-1122 -1367c0,-9 -1,-17 -1,-25 0,-8 0,-15 0,-21 0,-6 1,-12 2,-17 39,-27 81,-52 127,-77 45,-25 92,-48 140,-70 48,-22 97,-42 146,-60 49,-17 97,-32 144,-44l0 58c-47,12 -95,27 -144,45 -49,18 -98,37 -146,59 -48,22 -95,45 -140,70 -46,25 -88,50 -127,77l-1 5zm-1069 -282l231 54c89,20 156,50 202,89 46,40 69,100 69,180 0,10 0,20 -1,30 -5,-66 -27,-117 -68,-152 -46,-39 -113,-69 -202,-89l-231 -54 0 -58zm-518 324c2,38 7,73 17,104 11,39 27,74 47,104 20,31 43,58 68,80 25,22 51,40 78,54 1,5 2,10 2,16 0,5 0,10 0,15 0,10 -1,18 -3,26 -27,-13 -53,-31 -77,-53 -25,-22 -48,-49 -68,-79 -20,-31 -36,-66 -47,-105 -12,-39 -18,-84 -18,-133 0,-10 1,-20 1,-29zm-214 25c-1,-9 -1,-18 -1,-27 0,-89 13,-169 38,-241 24,-71 55,-131 92,-181 36,-50 75,-88 116,-115 41,-27 79,-40 113,-40l19 0 76 0 1 0 1 0 752 0 105 0 1 0 1 0 77 0c34,0 65,6 93,19 28,12 50,32 64,58 12,-27 29,-47 51,-59 22,-12 48,-18 78,-18l28 0 53 0 1 0 840 0 110 0 1 0 1 0 72 0c34,0 65,6 93,19 28,12 50,32 64,58 12,-27 29,-47 51,-59 22,-12 48,-18 78,-18l81 0c22,0 40,6 53,19 13,12 20,33 20,63 0,10 -1,20 -3,30 -3,-15 -9,-27 -17,-35 -13,-13 -31,-19 -53,-19l-81 0c-30,0 -56,6 -78,18 -22,12 -39,32 -51,59 -14,-26 -36,-46 -64,-58 -28,-13 -59,-19 -93,-19l-72 0 -1 0 -1 0 -110 0 -840 0 -1 0 -53 0 -28 0c-30,0 -56,6 -78,18 -22,12 -39,32 -51,59 -14,-26 -36,-46 -64,-58 -28,-13 -59,-19 -93,-19l-77 0 -1 0 -1 0 -105 0 -752 0 -1 0 -1 0 -76 0 -19 0c-34,0 -72,13 -113,40 -41,27 -80,65 -116,115 -37,50 -68,110 -92,182 -22,63 -35,133 -37,209zm2081 -19c13,7 25,14 37,21 30,17 60,35 89,52 29,18 57,35 84,53 25,16 49,32 70,47l1 14c1,17 2,33 3,47 -22,-16 -47,-33 -74,-50 -27,-18 -55,-35 -84,-53 -29,-17 -59,-34 -89,-52 -30,-17 -60,-33 -89,-48 16,-11 34,-21 52,-31zm-249 383c-2,-9 -3,-19 -3,-28 0,-27 8,-50 23,-72 15,-21 38,-35 69,-41 45,21 90,45 133,70 43,25 78,47 105,65 20,14 35,27 44,40 10,12 14,28 14,47 0,10 -1,20 -4,29 -3,-7 -6,-13 -10,-18 -9,-13 -24,-26 -44,-40 -27,-18 -62,-40 -105,-65 -43,-25 -88,-49 -133,-70 -31,7 -54,20 -69,41 -9,13 -16,27 -20,42zm-1100 -245c0,33 6,57 18,71 12,15 34,22 66,22 22,0 45,-6 69,-18 24,-12 46,-28 66,-49 20,-20 36,-43 49,-70 8,-18 13,-35 16,-53 2,8 3,17 3,28 0,28 -7,56 -19,83 -13,27 -29,50 -49,71 -20,20 -42,36 -66,48 -24,12 -47,18 -69,18 -32,0 -54,-7 -66,-22 -12,-15 -18,-40 -18,-75l0 -54zm-1409 1075l283 272 -29 29 -275 -263c8,-15 15,-27 21,-38zm-1025 -282c-3,-61 4,-125 23,-191 61,-217 212,-352 433,-390 213,-36 396,35 527,212 82,111 117,228 111,349 -6,-101 -42,-198 -111,-291 -131,-177 -314,-248 -527,-212 -221,38 -372,173 -433,390 -13,46 -20,90 -23,133zm218 -18c15,170 162,307 332,304 167,-2 311,-136 326,-297 1,9 1,18 2,27 1,174 -150,325 -328,328 -181,3 -334,-151 -333,-334 0,-10 0,-19 1,-28zm-238 412l-31 0c-23,-41 -43,-79 -60,-120 -15,-34 -34,-44 -69,-43 -120,2 -240,1 -363,1l0 -58c123,0 243,1 363,-1 35,-1 54,8 69,43 24,59 57,114 91,178zm-747 -1271c0,-195 0,-390 1,-585 0,-128 95,-221 222,-221 436,-1 872,-1 1307,0 118,0 217,84 219,198 2,131 2,262 2,393 0,-111 0,-223 -2,-335 -2,-114 -101,-198 -219,-198 -435,-1 -871,-1 -1307,0 -127,0 -222,93 -222,221 0,175 -1,351 -1,527zm143 3000l-462 1507 25 -23 452 -1473 -15 -11zm4857 -975c11,-19 22,-38 32,-58l-374 0c-520,822 -1436,1367 -2480,1367 -1611,0 -2918,-1298 -2934,-2906l0 29c0,1621 1314,2935 2934,2935 1044,0 1960,-545 2480,-1367l342 0zm0 -3194l33 0c-554,-1006 -1625,-1688 -2855,-1688 -1799,0 -3256,1458 -3256,3256l0 37c11,-1788 1464,-3235 3256,-3235 1206,0 2259,656 2822,1630zm-5097 4186c-788,-645 -1289,-1590 -1300,-2645l-1 21c0,1066 500,2022 1292,2675l9 -51zm2593 -6245c127,2 252,11 375,25 -323,-89 -664,-137 -1015,-137 -2104,0 -3809,1705 -3809,3808l0 37c12,-2094 1713,-3787 3809,-3787 218,0 432,18 640,54z"/>
  </g>
  <g id="_874643464">
   <g>
    <path class="fil19" d="M14581 2719c-21,31 -42,63 -64,94 62,45 119,96 167,155 41,50 76,107 99,169 19,55 27,111 21,169 -7,59 -31,110 -67,156 -28,36 -62,69 -102,91 -33,20 -69,33 -108,38 -35,5 -69,3 -103,-6 -32,-9 -62,-23 -89,-42 -29,-21 -54,-48 -61,-84 -6,-33 4,-64 23,-91 13,-18 30,-38 51,-47 9,6 18,12 27,19 28,20 60,32 96,28 36,-4 63,-25 84,-54 36,-49 36,-103 14,-158 -30,-74 -96,-138 -157,-187 -151,224 -301,448 -452,672 -41,9 -84,-12 -117,-33 -5,-3 -10,-7 -14,-10 -3,-3 -7,-7 -10,-11 -21,-71 -45,-142 -71,-212 -25,-65 -54,-129 -85,-192 -31,-62 -65,-123 -101,-182 -38,-63 -78,-125 -120,-185 -2,-28 3,-56 9,-82 8,-31 20,-60 34,-89 3,-6 7,-13 10,-19 3,-6 7,-13 12,-18 64,-10 130,-15 195,-16 71,-1 141,2 212,9 71,6 142,16 212,30 67,14 133,31 197,53 20,-32 40,-63 60,-94 -233,-148 -473,-284 -719,-408 -5,-2 -9,-4 -13,-7l-1 1c-84,-42 -168,-83 -253,-122 -154,337 -309,674 -463,1010 -39,16 -84,3 -121,-13 -9,-4 -18,-10 -26,-16 -42,-74 -87,-146 -137,-215 -46,-65 -95,-128 -147,-188 -52,-61 -107,-119 -165,-174 -61,-58 -126,-114 -192,-167 -4,-20 -4,-43 -2,-64 2,-28 8,-55 16,-82 4,-15 10,-28 16,-42 5,-11 11,-22 17,-32 46,7 91,16 136,24 86,17 200,30 284,-3 66,-25 113,-70 138,-137 16,-44 23,-93 -2,-135 -22,-36 -53,-61 -93,-75 -40,-14 -79,-15 -118,2 -39,16 -62,48 -75,88 -6,18 -11,39 -10,58 0,17 2,33 4,49 -37,30 -81,30 -125,16 -38,-12 -65,-38 -85,-72 -26,-43 -22,-96 -8,-142 13,-42 33,-81 62,-113 30,-33 66,-57 106,-73 45,-17 92,-24 140,-24 54,1 108,12 160,30 53,18 104,44 149,79 40,32 74,69 97,114 23,43 34,89 36,137 2,52 -8,103 -28,151 -38,94 -104,161 -198,200 -104,43 -219,47 -330,33 42,37 82,76 121,117 39,42 77,85 114,130 35,43 68,86 100,131 28,39 54,79 80,120 6,-23 14,-45 21,-66 10,-26 20,-52 29,-78 9,-25 19,-50 29,-75 8,-21 16,-41 24,-61 78,-183 156,-366 234,-549 17,-40 45,-70 84,-89 46,-21 97,-10 142,10 87,39 173,79 258,121 5,2 9,5 12,7l1 -1c551,272 1072,603 1552,986 19,15 34,34 38,57 5,25 -9,50 -24,68 -10,12 -21,23 -33,32 -12,9 -24,17 -38,23 -192,-156 -391,-304 -596,-442zm-9065 -180c21,-5 45,-6 65,3 15,7 28,17 37,32 8,13 14,27 14,42 0,13 0,25 -1,37 -12,3 -24,6 -36,10 -13,4 -27,12 -39,20 -24,14 -41,36 -52,62 -13,30 -5,60 13,87 16,26 39,43 69,49 33,7 65,-4 93,-22 27,-17 51,-41 71,-66 31,-38 60,-85 85,-127 22,-36 43,-73 65,-109 28,2 56,8 83,15 36,10 70,24 102,42 38,20 73,47 104,77 36,34 65,75 89,119 30,57 49,119 51,184 2,61 -8,121 -30,178 -23,59 -57,111 -99,159 -45,51 -99,95 -157,131 -69,43 -142,75 -221,95 -76,19 -154,26 -233,21 -82,-6 -162,-25 -239,-55 -86,-34 -161,-78 -235,-133 -24,-18 -46,-36 -67,-57 -20,-21 -39,-42 -56,-65 -24,-30 -40,-66 -31,-105 7,-36 29,-65 58,-86 15,-11 31,-22 49,-27 13,-5 27,-8 41,-11 17,19 35,39 53,58 60,69 130,133 209,180 63,38 132,68 205,83 64,13 128,15 192,2 62,-12 119,-34 173,-67 32,-20 61,-45 86,-73 25,-27 45,-58 59,-91 13,-33 20,-68 19,-104 -1,-40 -14,-77 -33,-111 -29,-50 -68,-97 -123,-118 -26,46 -54,91 -86,133 -33,45 -78,81 -125,110 -34,22 -70,37 -109,47 -37,9 -75,13 -113,8 -38,-4 -74,-17 -107,-36 -36,-22 -66,-51 -90,-86 -34,-50 -52,-104 -47,-164 5,-57 24,-108 60,-153 -204,133 -401,275 -592,425 -18,14 -40,24 -64,23 -25,-2 -46,-20 -61,-39 -10,-12 -18,-25 -24,-39 -6,-13 -11,-27 -13,-40 407,-326 844,-614 1303,-860l2 -1 3 -2 9 -5 1 0c69,-37 139,-73 209,-108 38,-19 80,-31 122,-32 37,0 72,9 101,32 -3,-34 4,-66 25,-94 22,-27 51,-47 83,-62 41,-18 83,-36 125,-54 5,-2 10,-4 16,-6l0 -1c425,-180 865,-326 1313,-435l0 0 9 -2 4 -1 21 -5 9 -3 8 -1 20 -5 6 -2 0 0 8 -2 5 -1 5 -1 36 -8 3 -1c37,-8 75,-16 112,-24 42,-9 84,-11 126,-1 36,9 67,27 90,56 5,-34 20,-63 48,-84 28,-21 61,-34 95,-40 45,-7 90,-14 135,-21 23,-4 47,-2 67,11 22,14 30,40 33,64 2,15 3,30 1,46 -1,14 -4,29 -8,43 -59,8 -117,17 -175,27 -26,4 -54,14 -73,34 -20,22 -19,56 -14,83 61,343 122,685 183,1027 -10,6 -22,10 -33,14 -16,6 -33,11 -50,14 -29,5 -61,7 -89,-4 -30,-11 -43,-47 -49,-76 -66,-320 -133,-640 -199,-961 -10,-46 -38,-64 -84,-54l-26 6 -2 0 -10 3 -1 0c-35,8 -69,16 -104,24l-3 0c-48,12 -96,23 -144,36 91,359 182,718 274,1077 -9,15 -23,28 -37,38 -19,14 -42,23 -65,29 -10,3 -20,4 -30,4 -72,-27 -145,-50 -219,-71 -70,-19 -141,-36 -212,-50 -71,-13 -142,-24 -213,-32 -75,-8 -150,-13 -225,-15 -21,-17 -39,-38 -54,-60 -18,-26 -33,-54 -44,-83 -3,-7 -6,-14 -9,-21 -2,-7 -5,-15 -6,-22 19,-24 39,-47 59,-70 26,-28 52,-55 78,-82 27,-27 54,-54 82,-80 22,-21 44,-43 65,-65 -138,-10 -276,-16 -414,-18 -18,-1 -41,-2 -58,-9 -17,-6 -27,-21 -33,-37 -6,-14 -9,-28 -8,-43 0,-14 1,-29 4,-42 -26,10 -52,21 -78,32 -5,2 -11,4 -16,5l0 1c-54,23 -108,46 -161,70 -25,11 -49,27 -62,51 -15,26 -5,59 6,84 145,317 290,633 434,949 -8,8 -18,15 -28,22 -14,10 -29,18 -45,26 -26,12 -57,22 -86,18 -33,-3 -54,-35 -67,-61 -145,-294 -289,-587 -433,-881 -21,-42 -53,-52 -95,-31l-43 22 0 0 -4 2 0 0 -4 2 -4 2 -1 0 -14 8 -3 1 -2 1 -5 3 0 0 -3 1 -3 2 0 0 -10 5 -3 2 -7 3 -25 13 -2 2c-172,90 -340,186 -505,287zm2362 -75c-8,-23 -16,-45 -25,-67 -9,-26 -18,-52 -27,-77 -8,-26 -17,-51 -25,-77 -6,-21 -13,-42 -19,-63 -7,-26 -14,-52 -22,-78 -79,-13 -157,-26 -236,-37 -22,22 -43,44 -64,66 -24,25 -48,50 -72,75 -23,24 -45,48 -68,73 -18,19 -36,39 -52,60 101,9 202,24 301,43 105,20 208,47 309,82zm-934 -629c46,2 93,5 139,8 69,4 139,10 208,18 75,8 150,17 225,27 64,9 128,18 191,27 -29,-101 -58,-202 -87,-304 -228,65 -454,140 -676,224zm3480 -527c-23,373 -46,746 -69,1119 -11,3 -24,5 -35,5 -17,2 -34,2 -51,1 -30,-2 -63,-7 -88,-25 -27,-18 -32,-54 -31,-83 6,-163 11,-327 16,-490 -26,-16 -64,-20 -94,-21 -62,1 -112,30 -163,64 -4,1 -51,39 -57,44 -58,49 -124,100 -190,135 -52,27 -106,44 -164,48 -3,0 -6,0 -8,0 -34,2 -69,-3 -97,-23 -27,-19 -38,-48 -41,-80 -2,-30 3,-60 15,-88 25,-2 49,-3 74,-5 61,-3 118,-20 165,-60 45,-38 64,-88 62,-146 -1,-50 -16,-94 -47,-132 -36,-44 -95,-77 -147,-98 -27,-11 -55,-22 -83,-32 -16,-7 -33,-16 -45,-28 -12,-11 -17,-29 -18,-45 -1,-20 4,-39 14,-57 -38,3 -77,6 -116,9 -59,5 -90,-24 -95,-83 -1,-15 -1,-31 1,-46 3,-14 6,-27 12,-40 258,-23 506,-34 765,-35 44,-15 657,25 747,33 6,1 12,1 17,3l1 -1c503,45 1001,135 1488,268 57,16 77,53 61,109 -4,15 -10,29 -18,42 -7,13 -15,25 -25,36 -90,-25 -181,-49 -273,-72 -89,363 -178,726 -268,1089 -11,1 -24,0 -35,-1 -17,-2 -33,-5 -49,-8 -29,-7 -60,-19 -82,-40 -23,-23 -21,-59 -15,-88 19,-87 38,-174 57,-260 -15,-38 -32,-73 -54,-107 -21,-33 -45,-63 -74,-90 -27,-26 -58,-49 -91,-68 -32,-18 -66,-30 -102,-36 -45,-8 -98,-8 -137,19 -31,22 -51,51 -56,89 -5,35 3,67 27,93 25,29 60,43 98,49 22,4 46,6 69,3 18,-2 37,-5 55,-11 22,32 27,67 20,104 -7,36 -30,59 -61,74 -43,22 -101,18 -147,10 -43,-6 -85,-19 -123,-39 -36,-18 -68,-42 -95,-73 -26,-30 -45,-66 -58,-104 -14,-42 -17,-87 -12,-131 6,-51 21,-101 52,-143 28,-36 62,-66 103,-88 -20,-30 -34,-65 -45,-99 -14,-45 -16,-94 -10,-141 4,-35 12,-69 25,-102 12,-28 27,-56 48,-78 -74,-10 -148,-18 -222,-25 -6,-1 -12,-2 -17,-3l-1 1c-94,-9 -189,-16 -283,-22zm-348 306c19,0 38,2 57,5 13,3 27,7 40,12 4,-112 7,-223 11,-334 -28,-1 -272,-4 -275,-5 -11,-4 -275,4 -309,6 34,13 66,31 97,51 33,23 62,50 88,80 27,32 48,68 65,106 18,41 25,84 25,129 0,5 0,10 0,14 4,-2 34,-20 34,-20 4,-5 52,-24 60,-27 35,-12 71,-18 107,-17zm1150 119c76,13 147,42 209,89 52,40 101,88 136,143 35,-161 70,-323 105,-484 -159,-35 -319,-64 -479,-89 -22,19 -38,44 -50,70 -14,31 -22,64 -27,98 -9,56 -6,114 16,167 29,-2 60,1 90,6zm2702 -282c27,15 49,35 63,61 13,25 14,50 2,75 -16,31 -68,46 -99,52 -33,8 -65,15 -98,22 -47,11 -94,22 -140,33 -49,11 -97,22 -145,33 -37,8 -73,17 -110,23 -36,-15 -64,-39 -81,-74 -15,-31 -18,-63 -5,-95 4,-9 9,-20 15,-28 43,-10 86,-20 129,-29 55,-11 110,-21 166,-30 55,-9 111,-18 167,-26 45,-6 91,-12 136,-17zm282 1406c-88,-28 -180,-46 -272,-55 -87,-9 -175,-11 -262,-4 58,92 110,188 155,288 37,79 71,160 97,243 11,-20 22,-40 33,-60 12,-24 25,-47 38,-70 13,-23 26,-46 39,-68 12,-19 23,-38 34,-56 46,-73 92,-145 138,-218z"/>
    <path class="fil20" d="M14581 2666c-21,31 -42,63 -64,94 62,44 119,96 167,154 41,51 76,108 99,170 19,55 27,111 21,169 -7,58 -31,110 -67,156 -28,36 -62,68 -102,91 -33,19 -69,33 -108,38 -35,4 -69,3 -103,-7 -32,-8 -62,-22 -89,-42 -29,-20 -54,-48 -61,-84 -6,-33 4,-63 23,-90 13,-19 30,-38 51,-48 9,7 18,13 27,19 28,21 60,32 96,29 36,-4 63,-25 84,-54 36,-49 36,-103 14,-158 -30,-74 -96,-138 -157,-187 -151,224 -301,448 -452,671 -41,10 -84,-11 -117,-33 -5,-3 -10,-6 -14,-10 -3,-3 -7,-6 -10,-10 -21,-71 -45,-142 -71,-212 -25,-65 -54,-130 -85,-192 -31,-62 -65,-123 -101,-183 -38,-63 -78,-124 -120,-184 -2,-28 3,-56 9,-83 8,-30 20,-60 34,-88 3,-6 7,-13 10,-19 3,-7 7,-13 12,-19 64,-9 130,-14 195,-15 71,-1 141,2 212,8 71,7 142,17 212,31 67,13 133,30 197,52 20,-31 40,-62 60,-94 -233,-147 -473,-283 -719,-407 -5,-2 -9,-5 -13,-7l-1 0c-84,-41 -168,-82 -253,-121 -154,337 -309,673 -463,1010 -39,16 -84,3 -121,-13 -9,-4 -18,-10 -26,-16 -42,-74 -87,-146 -137,-215 -46,-65 -95,-128 -147,-189 -52,-60 -107,-118 -165,-173 -61,-58 -126,-114 -192,-167 -4,-20 -4,-43 -2,-64 2,-28 8,-56 16,-83 4,-14 10,-28 16,-41 5,-11 11,-22 17,-33 46,8 91,16 136,25 86,17 200,30 284,-3 66,-26 113,-70 138,-138 16,-43 23,-92 -2,-134 -22,-37 -53,-61 -93,-75 -40,-14 -79,-15 -118,1 -39,17 -62,49 -75,88 -6,19 -11,40 -10,59 0,16 2,32 4,48 -37,30 -81,30 -125,17 -38,-12 -65,-38 -85,-72 -26,-44 -22,-96 -8,-143 13,-42 33,-80 62,-113 30,-32 66,-56 106,-72 45,-18 92,-25 140,-24 54,0 108,12 160,30 53,18 104,44 149,79 40,31 74,69 97,114 23,43 34,89 36,137 2,52 -8,102 -28,150 -38,95 -104,162 -198,201 -104,43 -219,46 -330,33 42,37 82,76 121,117 39,42 77,85 114,130 35,42 68,86 100,131 28,39 54,79 80,119 6,-22 14,-44 21,-66 10,-26 20,-51 29,-77 9,-26 19,-51 29,-76 8,-20 16,-40 24,-60 78,-183 156,-366 234,-549 17,-40 45,-70 84,-89 46,-22 97,-11 142,9 87,40 173,80 258,122 5,2 9,4 12,6l1 0c551,272 1072,603 1552,986 19,15 34,33 38,57 5,25 -9,49 -24,68 -10,12 -21,22 -33,32 -12,9 -24,16 -38,22 -192,-156 -391,-303 -596,-441zm-9065 -180c21,-5 45,-7 65,3 15,7 28,17 37,32 8,12 14,27 14,42 0,12 0,25 -1,37 -12,3 -24,6 -36,10 -13,4 -27,12 -39,19 -24,15 -41,37 -52,62 -13,31 -5,61 13,88 16,26 39,43 69,49 33,6 65,-5 93,-22 27,-17 51,-41 71,-66 31,-38 60,-85 85,-127 22,-37 43,-73 65,-109 28,2 56,8 83,15 36,9 70,24 102,42 38,20 73,47 104,76 36,35 65,76 89,119 30,58 49,120 51,185 2,61 -8,121 -30,178 -23,58 -57,111 -99,158 -45,52 -99,95 -157,132 -69,43 -142,75 -221,95 -76,19 -154,26 -233,21 -82,-6 -162,-25 -239,-55 -86,-34 -161,-78 -235,-133 -24,-18 -46,-36 -67,-57 -20,-21 -39,-42 -56,-65 -24,-30 -40,-66 -31,-105 7,-36 29,-65 58,-87 15,-11 31,-21 49,-26 13,-5 27,-9 41,-11 17,19 35,39 53,58 60,69 130,132 209,179 63,38 132,69 205,84 64,13 128,14 192,2 62,-12 119,-34 173,-68 32,-20 61,-44 86,-72 25,-27 45,-58 59,-91 13,-34 20,-69 19,-105 -1,-39 -14,-76 -33,-111 -29,-50 -68,-96 -123,-117 -26,46 -54,91 -86,133 -33,45 -78,81 -125,110 -34,21 -70,37 -109,47 -37,9 -75,12 -113,8 -38,-5 -74,-17 -107,-36 -36,-22 -66,-52 -90,-86 -34,-50 -52,-104 -47,-165 5,-56 24,-108 60,-152 -204,133 -401,274 -592,425 -18,14 -40,24 -64,23 -25,-2 -46,-20 -61,-40 -10,-12 -18,-25 -24,-39 -6,-12 -11,-26 -13,-40 407,-325 844,-613 1303,-860l2 0 3 -2 9 -5 1 0c69,-37 139,-73 209,-108 38,-19 80,-32 122,-32 37,-1 72,9 101,32 -3,-34 4,-66 25,-94 22,-28 51,-48 83,-62 41,-18 83,-37 125,-54 5,-3 10,-5 16,-6l0 -1c425,-181 865,-326 1313,-436l0 0 9 -2 4 -1 21 -5 9 -2 8 -2 20 -4 6 -2 0 0 8 -2 5 -1 5 -1 36 -8 3 -1c37,-8 75,-17 112,-25 42,-8 84,-10 126,0 36,9 67,27 90,56 5,-34 20,-63 48,-84 28,-22 61,-34 95,-40 45,-7 90,-15 135,-21 23,-4 47,-2 67,11 22,13 30,40 33,64 2,15 3,30 1,45 -1,15 -4,29 -8,43 -59,9 -117,18 -175,27 -26,5 -54,14 -73,35 -20,21 -19,55 -14,83 61,342 122,685 183,1027 -10,6 -22,10 -33,14 -16,6 -33,11 -50,14 -29,5 -61,7 -89,-4 -30,-11 -43,-47 -49,-76 -66,-320 -133,-641 -199,-961 -10,-46 -38,-64 -84,-54l-26 6 -2 0 -10 2 -1 1c-35,7 -69,15 -104,23l-3 1c-48,11 -96,23 -144,35 91,359 182,718 274,1077 -9,16 -23,29 -37,39 -19,13 -42,22 -65,29 -10,2 -20,4 -30,4 -72,-27 -145,-51 -219,-71 -70,-20 -141,-36 -212,-50 -71,-14 -142,-24 -213,-32 -75,-8 -150,-13 -225,-15 -21,-17 -39,-38 -54,-61 -18,-26 -33,-53 -44,-82 -3,-7 -6,-14 -9,-21 -2,-7 -5,-15 -6,-22 19,-24 39,-48 59,-70 26,-28 52,-56 78,-82 27,-28 54,-54 82,-81 22,-21 44,-42 65,-64 -138,-10 -276,-16 -414,-19 -18,0 -41,-1 -58,-8 -17,-7 -27,-21 -33,-37 -6,-14 -9,-29 -8,-44 0,-14 1,-28 4,-42 -26,11 -52,22 -78,32 -5,3 -11,5 -16,6l0 1c-54,23 -108,46 -161,69 -25,11 -49,28 -62,52 -15,26 -5,59 6,84 145,316 290,633 434,949 -8,8 -18,15 -28,22 -14,10 -29,18 -45,25 -26,13 -57,22 -86,19 -33,-4 -54,-35 -67,-62 -145,-293 -289,-586 -433,-880 -21,-42 -53,-52 -95,-31l-43 22 0 0 -4 2 0 0 -4 2 -4 1 -1 1 -14 7 -3 2 -2 1 -5 2 0 1 -3 1 -3 1 0 1 -10 5 -3 1 -7 4 -25 13 -2 1c-172,90 -340,186 -505,288zm2362 -75c-8,-23 -16,-45 -25,-68 -9,-25 -18,-51 -27,-77 -8,-25 -17,-51 -25,-76 -6,-21 -13,-42 -19,-64 -7,-25 -14,-51 -22,-77 -79,-14 -157,-26 -236,-37 -22,21 -43,44 -64,66 -24,25 -48,50 -72,75 -23,24 -45,48 -68,73 -18,19 -36,39 -52,60 101,9 202,24 301,43 105,20 208,47 309,82zm-934 -629c46,2 93,4 139,7 69,5 139,11 208,18 75,8 150,17 225,28 64,8 128,18 191,27 -29,-101 -58,-203 -87,-304 -228,65 -454,140 -676,224zm3480 -527c-23,373 -46,746 -69,1119 -11,3 -24,4 -35,5 -17,1 -34,1 -51,1 -30,-2 -63,-8 -88,-25 -27,-18 -32,-54 -31,-84 6,-163 11,-326 16,-489 -26,-16 -64,-20 -94,-21 -62,1 -112,30 -163,63 -4,2 -51,39 -57,45 -58,48 -124,100 -190,135 -52,27 -106,44 -164,47 -3,1 -6,1 -8,1 -34,2 -69,-3 -97,-23 -27,-20 -38,-48 -41,-80 -2,-31 3,-60 15,-88 25,-2 49,-3 74,-5 61,-4 118,-21 165,-60 45,-38 64,-88 62,-147 -1,-49 -16,-93 -47,-131 -36,-44 -95,-77 -147,-98 -27,-12 -55,-22 -83,-33 -16,-6 -33,-15 -45,-27 -12,-11 -17,-29 -18,-45 -1,-20 4,-39 14,-57 -38,3 -77,6 -116,9 -59,5 -90,-25 -95,-83 -1,-16 -1,-31 1,-46 3,-14 6,-28 12,-40 258,-23 506,-34 765,-35 44,-15 657,25 747,33 6,0 12,1 17,2l1 -1c503,46 1001,136 1488,269 57,15 77,52 61,109 -4,15 -10,29 -18,42 -7,13 -15,25 -25,36 -90,-26 -181,-50 -273,-72 -89,363 -178,726 -268,1089 -11,1 -24,0 -35,-1 -17,-2 -33,-5 -49,-9 -29,-6 -60,-18 -82,-39 -23,-23 -21,-59 -15,-88 19,-87 38,-174 57,-261 -15,-37 -32,-72 -54,-106 -21,-33 -45,-63 -74,-91 -27,-26 -58,-48 -91,-67 -32,-18 -66,-30 -102,-37 -45,-7 -98,-8 -137,20 -31,21 -51,51 -56,89 -5,35 3,66 27,93 25,29 60,43 98,49 22,3 46,6 69,3 18,-2 37,-6 55,-11 22,32 27,67 20,104 -7,36 -30,59 -61,74 -43,21 -101,17 -147,10 -43,-7 -85,-19 -123,-39 -36,-19 -68,-43 -95,-73 -26,-31 -45,-66 -58,-104 -14,-43 -17,-87 -12,-131 6,-51 21,-102 52,-143 28,-37 62,-67 103,-88 -20,-30 -34,-66 -45,-100 -14,-45 -16,-93 -10,-140 4,-35 12,-70 25,-102 12,-29 27,-56 48,-79 -74,-9 -148,-17 -222,-24 -6,-1 -12,-2 -17,-3l-1 1c-94,-9 -189,-17 -283,-22zm-348 306c19,0 38,1 57,5 13,3 27,7 40,12 4,-112 7,-223 11,-335 -28,-1 -272,-3 -275,-4 -11,-4 -275,4 -309,5 34,14 66,32 97,52 33,23 62,49 88,80 27,32 48,67 65,106 18,41 25,84 25,129 0,4 0,9 0,14 4,-3 34,-20 34,-21 4,-4 52,-23 60,-26 35,-13 71,-18 107,-17zm1150 119c76,13 147,42 209,89 52,40 101,87 136,143 35,-161 70,-323 105,-485 -159,-34 -319,-64 -479,-89 -22,20 -38,45 -50,71 -14,31 -22,64 -27,97 -9,57 -6,114 16,168 29,-2 60,1 90,6zm2702 -282c27,14 49,34 63,61 13,25 14,50 2,75 -16,31 -68,46 -99,52 -33,7 -65,15 -98,22 -47,11 -94,22 -140,33 -49,11 -97,22 -145,33 -37,8 -73,17 -110,23 -36,-16 -64,-39 -81,-75 -15,-31 -18,-62 -5,-95 4,-9 9,-19 15,-27 43,-11 86,-20 129,-29 55,-11 110,-21 166,-30 55,-9 111,-18 167,-26 45,-6 91,-12 136,-17zm282 1406c-88,-28 -180,-46 -272,-55 -87,-9 -175,-12 -262,-4 58,92 110,188 155,288 37,78 71,160 97,243 11,-20 22,-41 33,-61 12,-23 25,-46 38,-70 13,-22 26,-45 39,-68 12,-18 23,-37 34,-55 46,-73 92,-146 138,-218z"/>
    <path class="fil18" d="M14541 2778c52,40 101,85 143,136 41,51 76,108 99,170 18,50 26,103 22,156 -3,-35 -10,-69 -22,-103 -23,-62 -58,-119 -99,-169 -48,-59 -105,-110 -167,-155l24 -35zm-265 634l-2 -7c-6,-33 4,-63 23,-90 13,-19 30,-38 51,-48 9,7 18,13 27,19 28,21 60,32 96,29 36,-4 63,-25 84,-54 14,-19 23,-40 27,-61 7,40 -1,79 -27,114 -21,29 -48,50 -84,54 -36,4 -68,-8 -96,-28 -9,-7 -18,-13 -27,-19 -21,9 -38,29 -51,47 -10,14 -17,29 -21,44zm-832 -645l-2 -4c-2,-28 3,-56 9,-83 8,-30 20,-60 34,-88 3,-6 7,-13 10,-19 3,-7 7,-13 12,-19 64,-9 130,-14 195,-15 71,-1 141,2 212,8 71,7 142,17 212,31 67,13 133,30 197,52l35 -56 25 16c-20,31 -40,62 -60,94 -64,-22 -130,-39 -197,-53 -70,-14 -141,-24 -212,-30 -71,-7 -141,-10 -212,-9 -65,1 -131,6 -195,16 -5,5 -9,12 -12,18 -3,6 -7,13 -10,19 -14,29 -26,58 -34,89 -2,10 -5,21 -7,33zm-1300 -541c-2,-17 -1,-35 0,-52 2,-28 8,-56 16,-83 4,-14 10,-28 16,-41 5,-11 11,-22 17,-33 46,8 91,16 136,25 86,17 200,30 284,-3 66,-26 113,-70 138,-138 5,-14 10,-29 12,-44 7,32 0,66 -12,98 -25,67 -72,112 -138,137 -84,33 -198,20 -284,3 -45,-8 -90,-17 -136,-24 -6,10 -12,21 -17,32 -6,14 -12,27 -16,42 -8,26 -14,54 -16,81zm310 -358c1,7 2,14 3,20l-4 4c-1,-8 0,-16 1,-24zm-224 -82c-5,-32 0,-65 9,-96 13,-42 33,-80 62,-113 30,-32 66,-56 106,-72 45,-18 92,-25 140,-24 54,0 108,12 160,30 53,18 104,44 149,79 40,31 74,69 97,114 23,43 34,89 36,137 1,13 1,27 -1,40 -3,-44 -15,-85 -35,-124 -23,-45 -57,-82 -97,-114 -45,-35 -96,-61 -149,-79 -52,-18 -106,-29 -160,-30 -48,0 -95,7 -140,24 -40,16 -76,40 -106,73 -29,32 -49,71 -62,113 -4,13 -7,28 -9,42zm267 498c19,19 38,38 57,58 39,42 77,85 114,130 35,42 68,86 100,131 28,39 54,79 80,119 6,-22 14,-44 21,-66 10,-26 20,-51 29,-77 9,-26 19,-51 29,-76 8,-20 16,-40 24,-60 78,-183 156,-366 234,-549 17,-40 45,-70 84,-89 46,-22 97,-11 142,9 87,40 173,80 258,122 5,2 9,4 12,6l1 0c551,272 1072,603 1552,986 19,15 34,33 38,57 3,13 0,25 -5,37 -7,-16 -19,-30 -33,-41 -480,-383 -1001,-714 -1552,-986l-1 1c-3,-2 -7,-5 -12,-7 -85,-42 -171,-82 -258,-121 -45,-20 -96,-31 -142,-10 -39,19 -67,49 -84,89 -78,183 -156,366 -234,549 -8,20 -16,40 -24,61 -10,25 -20,50 -29,75 -9,26 -19,52 -29,78 -7,21 -15,43 -21,66 -26,-41 -52,-81 -80,-120 -32,-45 -65,-88 -100,-131 -37,-45 -75,-88 -114,-130 -39,-41 -79,-80 -121,-117 21,3 43,5 64,6zm-6907 210c12,7 21,15 28,27 8,12 14,27 14,42 0,12 0,25 -1,37l-1 0c-3,-9 -7,-18 -12,-26 -9,-15 -22,-25 -37,-32 -20,-9 -44,-8 -65,-3l74 -45zm-88 256c3,10 8,20 15,29 16,26 39,43 69,49 33,6 65,-5 93,-22 27,-17 51,-41 71,-66 31,-38 60,-85 85,-127 22,-37 43,-73 65,-109 28,2 56,8 83,15 36,9 70,24 102,42 38,20 73,47 104,76 36,35 65,76 89,119 30,58 49,120 51,185 0,15 0,29 -1,43 -3,-61 -21,-120 -50,-174 -24,-44 -53,-85 -89,-119 -31,-30 -66,-57 -104,-77 -32,-18 -66,-32 -102,-42 -27,-7 -55,-13 -83,-15 -22,36 -43,73 -65,109 -25,42 -54,89 -85,127 -20,25 -44,49 -71,66 -28,18 -60,29 -93,22 -30,-6 -53,-23 -69,-49 -17,-25 -25,-53 -15,-82zm-540 408c-4,-16 -5,-31 -1,-48 7,-36 29,-65 58,-87 15,-11 31,-21 49,-26 13,-5 27,-9 41,-11 17,19 35,39 53,58 60,69 130,132 209,179 63,38 132,69 205,84 64,13 128,14 192,2 62,-12 119,-34 173,-68 32,-20 61,-44 86,-72 25,-27 45,-58 59,-91 9,-23 15,-47 17,-71 1,7 2,13 2,20 1,36 -6,71 -19,104 -14,33 -34,64 -59,91 -25,28 -54,53 -86,73 -54,33 -111,55 -173,67 -64,13 -128,11 -192,-2 -73,-15 -142,-45 -205,-83 -79,-47 -149,-111 -209,-180 -18,-19 -36,-39 -53,-58 -14,3 -28,6 -41,11 -18,5 -34,16 -49,27 -28,20 -48,47 -57,81zm310 -355c-1,-15 -2,-31 0,-47 2,-24 7,-47 14,-69l46 -30c-34,43 -54,92 -60,146zm-680 173l-1 -3c-6,-12 -11,-26 -13,-40 407,-325 844,-613 1303,-860l2 0 3 -2 9 -5 1 0c69,-37 139,-73 209,-108 38,-19 80,-32 122,-32 37,-1 72,9 101,32 -3,-34 4,-66 25,-94 22,-28 51,-48 83,-62 41,-18 83,-37 125,-54 5,-3 10,-5 16,-6l0 -1c425,-181 865,-326 1313,-436l0 0 9 -2 4 -1 21 -5 9 -2 8 -2 20 -4 6 -2 0 0 8 -2 5 -1 5 -1 36 -8 3 -1c37,-8 75,-17 112,-25 42,-8 84,-10 126,0 36,9 67,27 90,56 5,-34 20,-63 48,-84 28,-22 61,-34 95,-40 45,-7 90,-15 135,-21 23,-4 47,-2 67,11 22,13 30,40 33,64 2,15 3,30 1,45l-1 8c-3,-24 -11,-51 -33,-64 -20,-13 -44,-15 -67,-11 -45,7 -90,14 -135,21 -34,6 -67,19 -95,40 -28,21 -43,50 -48,84 -23,-29 -54,-47 -90,-56 -42,-10 -84,-8 -126,1 -37,8 -75,16 -112,24l-3 1 -36 8 -5 1 -5 1 -8 2 0 0 -6 2 -20 5 -8 1 -9 3 -21 5 -4 1 -9 2 0 0c-448,109 -888,255 -1313,435l0 1c-6,2 -11,4 -16,6 -42,18 -84,36 -125,54 -32,15 -61,35 -83,62 -21,28 -28,60 -25,94 -29,-23 -64,-32 -101,-32 -42,1 -84,13 -122,32 -70,35 -140,71 -209,108l-1 0 -9 5 -3 2 -2 1c-454,243 -886,527 -1289,849zm3869 -1510l0 2c61,342 122,685 183,1027 -3,1 -6,3 -9,4l-174 -978c-3,-17 -5,-37 0,-55zm-598 80l261 1027c-3,5 -6,10 -10,15l-264 -1038 13 -4zm-840 782l-7 -15c-2,-7 -5,-15 -6,-22 19,-24 39,-48 59,-70 26,-28 52,-56 78,-82 27,-28 54,-54 82,-81l15 -14 50 3c-21,22 -43,44 -65,65 -28,26 -55,53 -82,80 -26,27 -52,54 -78,82 -16,18 -31,36 -46,54zm-240 -417c-1,-4 -1,-8 -2,-12l4 -1c-1,4 -1,8 -2,13zm-318 152c2,9 6,17 9,25 145,316 290,633 434,949 -5,5 -11,10 -17,14l-417 -910c-10,-23 -19,-53 -9,-78zm845 227c87,9 173,23 259,39 97,19 193,43 287,74 7,20 14,41 22,61 -101,-35 -204,-62 -309,-82 -99,-19 -200,-34 -301,-43 13,-17 27,-33 42,-49zm-239 -501l12 0c69,5 139,11 208,18 75,8 150,17 225,28 59,8 117,16 175,25l16 55c-63,-9 -127,-18 -191,-27 -75,-10 -150,-19 -225,-27 -69,-8 -139,-14 -208,-18 -46,-3 -93,-6 -139,-8 43,-16 85,-31 127,-46zm3080 509c-1,-9 -1,-18 -1,-27l15 -437 1 1 -15 463zm-797 -337c-1,-4 -1,-8 -2,-12 -2,-31 3,-60 15,-88 25,-2 49,-3 74,-5 61,-4 118,-21 165,-60 36,-30 56,-69 61,-113 1,6 1,13 1,20 2,58 -17,108 -62,146 -47,40 -104,57 -165,60 -25,2 -49,3 -74,5 -7,15 -11,31 -13,47zm-22 -625c-2,-7 -3,-14 -4,-21l0 -3 14 -1c-4,8 -8,16 -10,25zm-200 -142l-1 -10c-1,-16 -1,-31 1,-46 3,-14 6,-28 12,-40 258,-23 506,-34 765,-35 44,-15 657,25 747,33 6,0 12,1 17,2l1 -1c503,46 1001,136 1488,269 55,15 76,50 63,103 -8,-24 -29,-41 -63,-50 -487,-133 -985,-223 -1488,-268l-1 1c-5,-2 -11,-2 -17,-3 -90,-8 -703,-48 -747,-33 -259,1 -507,12 -765,35 -6,13 -9,26 -12,40l0 3zm2325 1299c-5,-20 -3,-41 1,-60l49 -226 8 19c-19,86 -38,173 -57,260l-1 7zm-455 -468c4,17 13,33 26,48 25,29 60,43 98,49 22,3 46,6 69,3 18,-2 37,-6 55,-11 21,31 26,65 20,102 -3,-17 -10,-34 -20,-49 -18,6 -37,9 -55,11 -23,3 -47,1 -69,-3 -38,-6 -73,-20 -98,-49 -24,-26 -32,-58 -27,-93l1 -8zm-229 -4c-2,-22 -1,-44 1,-66 6,-51 21,-102 52,-143 23,-30 50,-55 81,-75 6,14 13,27 22,40 -41,22 -75,52 -103,88 -31,42 -46,92 -52,143l-1 13zm99 -462c-2,-25 -1,-50 2,-75 4,-35 12,-70 25,-102 4,-10 9,-20 14,-30l34 5c-21,22 -36,50 -48,78 -13,33 -21,67 -25,102 -1,7 -2,15 -2,22zm-796 2c19,0 38,1 57,5 13,3 27,7 40,12l9 -282 2 1c-4,111 -7,222 -11,334 -13,-5 -27,-9 -40,-12 -19,-3 -38,-5 -57,-5 -36,-1 -72,5 -107,17 -8,3 -56,22 -60,27 0,0 -30,18 -34,20 0,-4 0,-9 0,-14 0,-45 -7,-88 -25,-129 -17,-38 -38,-74 -65,-106 -26,-30 -55,-57 -88,-80 -31,-20 -63,-38 -97,-51l94 -3 3 1c33,23 62,49 88,80 27,32 48,67 65,106 18,41 25,84 25,129 0,4 0,9 0,14 4,-3 34,-20 34,-21 4,-4 52,-23 60,-26 35,-13 71,-18 107,-17zm1150 119c76,13 147,42 209,89 52,40 101,87 136,143l94 -434 11 3c-35,161 -70,323 -105,484 -35,-55 -84,-103 -136,-143 -62,-47 -133,-76 -209,-89 -30,-5 -61,-8 -90,-6 -18,-44 -23,-91 -20,-137 2,28 9,57 20,84 29,-2 60,1 90,6zm2702 -282c27,14 49,34 63,61 12,22 14,44 6,66 -2,-4 -4,-8 -6,-13 -14,-26 -36,-46 -63,-61 -45,5 -91,11 -136,17 -56,8 -112,17 -167,26 -56,9 -111,19 -166,30 -43,9 -86,19 -129,29 -6,8 -11,19 -15,28 -2,5 -3,9 -5,14 -5,-22 -4,-45 5,-68 4,-9 9,-19 15,-27 43,-11 86,-20 129,-29 55,-11 110,-21 166,-30 55,-9 111,-18 167,-26 45,-6 91,-12 136,-17zm-221 1398c46,76 87,155 124,237 37,78 71,160 97,243 11,-20 22,-41 33,-61 12,-23 25,-46 38,-70 13,-22 26,-45 39,-68 12,-18 23,-37 34,-55l110 -173 28 8c-46,73 -92,145 -138,218 -11,18 -22,37 -34,56 -13,22 -26,45 -39,68 -13,23 -26,46 -38,70 -11,20 -22,40 -33,60 -26,-83 -60,-164 -97,-243 -45,-100 -97,-196 -155,-288 10,-1 21,-2 31,-2z"/>
   </g>
   <path class="fil21" d="M9783 3420c-36,1 -92,3 -147,6 11,224 22,448 34,673 -7,2 -14,4 -21,6 -10,2 -21,3 -31,4 -18,1 -38,0 -54,-9 -17,-9 -22,-30 -24,-48 -15,-206 -30,-412 -45,-618 -32,3 -64,5 -74,6 -11,1 -46,4 -80,8 -16,1 -33,6 -45,17 -13,12 -13,32 -11,49 22,204 44,408 66,613 -7,3 -14,5 -21,7 -10,3 -20,4 -31,6 -18,2 -37,1 -54,-6 -18,-8 -24,-29 -26,-47 -25,-192 -50,-383 -75,-575 -4,-28 -19,-39 -47,-36 -29,4 -57,8 -42,6 -99,14 -241,38 -382,67 12,2 26,6 35,15 7,7 12,15 14,25 2,9 2,18 -1,26 -2,7 -5,14 -8,21 -7,-1 -14,-2 -21,-2 -9,0 -18,1 -26,3 -17,3 -30,12 -42,24 -13,14 -15,32 -11,51 4,18 13,32 29,41 17,11 37,11 56,7 19,-4 37,-13 53,-22 26,-15 51,-36 74,-54 19,-16 38,-32 57,-48 15,6 30,15 44,25 18,12 34,27 49,43 17,19 32,40 43,63 14,26 22,54 27,83 6,38 4,77 -8,113 -11,35 -29,67 -53,94 -25,28 -55,51 -89,69 -36,20 -76,34 -117,42 -48,11 -96,14 -145,9 -47,-5 -93,-17 -136,-37 -45,-20 -86,-48 -122,-80 -41,-37 -72,-77 -101,-124 -10,-15 -18,-29 -25,-45 -7,-16 -12,-32 -17,-48 -6,-22 -8,-45 5,-65 12,-18 30,-29 51,-35 10,-3 21,-5 32,-4 8,0 17,1 25,2 6,15 11,29 17,44 19,51 44,100 78,143 27,34 59,66 96,89 33,20 69,34 108,40 37,6 74,5 111,-2 23,-5 44,-13 65,-23 19,-11 36,-24 51,-40 15,-15 25,-34 32,-54 8,-22 8,-45 4,-68 -6,-34 -19,-68 -45,-90 -24,20 -49,40 -75,57 -28,18 -61,29 -93,36 -23,5 -47,6 -71,4 -22,-3 -44,-9 -65,-19 -20,-10 -37,-25 -51,-42 -16,-19 -26,-42 -32,-66 -9,-35 -8,-69 8,-101 14,-30 35,-55 64,-72 -139,32 -277,68 -413,109 -13,4 -27,5 -40,-1 -13,-7 -21,-21 -25,-35 -3,-9 -4,-18 -5,-27 0,-8 0,-16 2,-25 320,-98 647,-172 934,-212 5,-1 54,-9 103,-15 24,-3 50,-3 74,5 20,7 38,19 50,37 5,-20 14,-36 31,-48 18,-11 38,-17 58,-19 27,-3 53,-5 57,-6 20,-1 62,-5 104,-8 -13,-12 -22,-27 -29,-42 -9,-18 -14,-39 -15,-59 -3,-34 3,-66 19,-96 17,-32 42,-58 71,-78 36,-25 77,-42 118,-54 51,-14 105,-21 158,-22 38,-1 73,1 111,5 7,0 28,4 37,5 41,7 82,16 123,28 31,10 63,22 93,36 20,10 41,20 59,32 16,10 39,27 49,43 7,10 12,22 11,34 -1,16 -6,29 -17,39 -12,10 -24,17 -39,21 -57,-39 -121,-70 -186,-95 -45,-16 -82,-25 -129,-31 -20,-6 -83,-6 -106,-6 -56,1 -118,11 -166,43 -36,25 -58,58 -55,103 1,18 5,37 14,52 7,12 16,24 27,32 45,-2 90,-4 115,-4 44,-2 108,-4 173,-4 239,-1 463,10 701,33 34,4 48,24 44,58 -1,9 -3,18 -6,26 -3,8 -6,16 -10,24 -55,-6 -110,-12 -166,-16 -18,218 -36,436 -53,654 -9,7 -19,12 -29,15 -14,4 -29,4 -43,3 -7,0 -13,-1 -19,-4 -36,-28 -74,-56 -112,-82 -36,-25 -73,-48 -111,-70 -38,-22 -76,-42 -115,-61 -26,-13 -51,-24 -78,-35 -9,-6 -36,-15 -47,-20 -8,-13 -14,-29 -18,-45 -4,-17 -7,-36 -7,-54 0,-5 0,-9 0,-14 0,-4 0,-9 1,-13 15,-10 32,-18 48,-27 5,-2 18,-8 22,-11 7,-5 30,-14 39,-18 21,-10 41,-19 62,-28 17,-7 34,-15 50,-22 -50,-23 -101,-44 -152,-65 -14,-9 -57,-23 -76,-31 -10,-4 -22,-9 -30,-17 -8,-7 -11,-17 -11,-27 0,-9 1,-17 5,-26 3,-7 6,-15 11,-22 -17,1 -33,1 -30,1zm530 535c0,-14 0,-29 0,-43 -1,-16 -1,-32 0,-48 0,-16 0,-32 1,-48 0,-13 0,-26 1,-39 1,-15 2,-31 3,-47 -42,-23 -84,-46 -126,-67 -17,7 -33,15 -50,23 -18,10 -37,19 -55,28 -18,8 -36,17 -54,26 -14,7 -28,15 -42,23 56,26 110,55 162,85 56,32 109,68 160,107zm-399 -537c26,10 51,21 76,32 38,17 75,34 112,52 41,20 81,40 121,60 34,18 68,36 102,53 4,-62 7,-124 11,-186 -140,-9 -281,-12 -422,-11zm1457 160c-17,-5 -70,-17 -124,-28 -45,217 -91,433 -136,649 -6,1 -15,1 -22,0 -10,-1 -20,-2 -31,-4 -17,-4 -36,-10 -50,-23 -14,-13 -13,-34 -10,-51 30,-163 60,-326 90,-489 -5,-16 -12,-32 -21,-46 -9,-16 -20,-30 -33,-42 -13,-13 -28,-24 -45,-32 -17,-10 -36,-16 -55,-19 -36,-5 -71,-1 -102,20 -32,21 -47,53 -52,90 -5,35 3,67 26,95 24,27 54,42 90,48 8,1 17,2 25,1 6,-1 11,-1 17,-2 3,6 5,14 6,21 2,10 1,20 0,29 -4,21 -14,37 -31,49 -21,14 -52,12 -76,9 -28,-4 -54,-13 -78,-26 -26,-13 -49,-31 -69,-53 -20,-23 -35,-51 -46,-81 -12,-35 -13,-72 -9,-109 4,-37 14,-72 34,-103 18,-28 41,-52 70,-70 29,-18 60,-29 93,-35 34,-6 68,-6 101,-1 45,6 89,21 126,47 28,21 54,46 72,75 8,-20 22,-35 41,-46 22,-12 49,-12 73,-7 50,10 99,21 110,24 13,2 63,14 113,26 -9,-50 -24,-98 -50,-141 -23,-41 -53,-77 -88,-108 -36,-30 -75,-55 -118,-74 -45,-19 -92,-33 -140,-41 -31,-5 -63,-9 -95,-9 -23,1 -47,2 -70,8 -15,4 -31,9 -44,18 -7,6 -15,14 -17,24 -3,26 27,33 47,36 95,14 191,30 286,47 37,7 50,30 43,66 -1,8 -4,15 -8,22 -3,6 -6,12 -10,17 -119,-24 -239,-43 -359,-60 -40,-6 -86,-18 -117,-47 -27,-24 -37,-54 -33,-90 3,-27 17,-50 36,-69 23,-23 53,-40 84,-51 40,-15 83,-22 125,-25 52,-3 104,1 156,9 71,12 141,34 206,66 58,30 112,67 158,114 43,43 77,93 102,149 24,55 39,113 45,174 47,12 94,26 142,39 13,4 25,11 33,23 8,12 6,29 2,42 -3,9 -7,17 -12,25 -5,7 -9,14 -14,21 -54,-16 -108,-31 -163,-46 -58,217 -116,434 -174,651 -7,1 -15,0 -22,-1 -10,-1 -21,-3 -31,-5 -17,-5 -35,-12 -48,-25 -14,-14 -12,-36 -8,-53 49,-201 98,-401 147,-602 -41,-10 -83,-20 -88,-20z"/>
  </g>
  <g id="_874644256">
   <path class="fil16" d="M6992 17967c3,8 3,18 2,26 0,12 -3,25 -7,36 -8,23 -23,42 -46,52 -27,13 -63,5 -90,-5 -30,-11 -57,-28 -81,-49 -26,-22 -46,-50 -61,-81 -16,-34 -23,-71 -24,-109 -1,-45 10,-90 27,-132 17,-41 40,-80 71,-112 27,-28 58,-51 94,-66 33,-14 68,-21 104,-22 34,-1 68,5 101,17 43,15 84,39 113,75 25,29 46,62 58,99 12,-23 28,-40 51,-52 24,-13 50,-11 76,-3 48,15 96,30 145,45 38,11 42,42 32,77 -3,10 -8,21 -13,31 -5,9 -10,18 -17,26 -55,-16 -109,-33 -164,-50 -82,259 -165,518 -247,778 -9,0 -19,-2 -28,-4 -13,-2 -26,-5 -38,-9 -22,-8 -45,-18 -60,-36 -16,-18 -11,-44 -4,-65 65,-193 130,-387 195,-580 -2,-20 -7,-40 -13,-59 -6,-19 -15,-38 -26,-55 -10,-17 -23,-32 -39,-46 -15,-13 -33,-23 -53,-30 -37,-14 -74,-13 -110,4 -41,19 -65,56 -81,96 -15,40 -17,81 1,120 17,37 47,62 85,76 9,3 19,6 28,7 6,0 13,0 19,0zm2026 151c-29,268 -58,536 -87,804 -25,20 -62,20 -92,17 -8,-1 -16,-3 -24,-6 -41,-40 -82,-80 -124,-120 -38,-36 -78,-72 -117,-107 -39,-34 -79,-67 -119,-100 -41,-34 -83,-66 -125,-99 -7,-18 -9,-39 -10,-59 -1,-23 1,-46 5,-68 1,-6 2,-11 3,-16 1,-5 3,-10 4,-15 41,-21 83,-39 125,-55 45,-18 91,-33 137,-48 46,-14 92,-27 138,-39 43,-10 87,-19 130,-26 4,-26 7,-53 11,-80 -171,-22 -341,-48 -509,-80 -41,-7 -47,-39 -40,-75 2,-11 5,-21 10,-32 3,-9 8,-18 14,-26 255,49 512,86 771,112 215,20 423,32 638,37 12,4 164,2 189,2 40,0 53,28 53,64 0,11 -1,23 -3,33 -2,11 -5,21 -9,31 -58,0 -116,0 -174,-1 -4,270 -8,539 -12,809 -19,17 -38,22 -63,24 -3,1 -24,1 -28,1 -4,0 -8,0 -12,-1 -4,0 -8,-1 -12,-2 -44,-37 -88,-73 -134,-108 -42,-33 -85,-65 -128,-96 -42,-30 -85,-59 -128,-88 -45,-30 -89,-59 -134,-87 -9,-18 -14,-38 -17,-58 -2,-23 -3,-46 -1,-69 1,-5 2,-10 2,-15 1,-6 3,-11 4,-16 38,-24 78,-46 119,-66 44,-22 88,-42 133,-61 44,-18 89,-35 134,-51 42,-15 85,-28 128,-38 1,-27 2,-54 3,-81 -160,-5 -319,-15 -477,-28l0 0 -7 -1 -24 -2c-47,-5 -94,-9 -141,-14zm639 682c-2,-21 -2,-42 -3,-63 -1,-26 -1,-52 -3,-78 -84,-58 -168,-117 -250,-177 -18,8 -36,17 -54,27 -16,8 -33,17 -48,28 34,23 68,46 102,70 33,23 66,47 98,71 29,22 58,44 87,66 24,19 48,37 71,56zm1 -412c-30,7 -60,16 -89,26 -31,11 -61,22 -92,34 58,44 117,86 176,128 1,-63 3,-125 5,-188zm-814 -57c-64,9 -126,25 -188,44 -59,19 -118,40 -175,65 32,26 63,52 94,79 29,25 59,51 88,77 26,24 52,48 78,72 21,20 42,40 63,61 0,-17 1,-34 2,-50 1,-19 3,-39 4,-58 2,-19 3,-38 5,-57 2,-16 3,-31 5,-47 8,-62 16,-124 24,-186zm1170 317c-14,-39 -24,-81 -24,-122 0,-27 5,-54 23,-75 15,-18 36,-26 60,-27 10,0 21,1 31,3 7,2 15,5 21,8 2,14 5,27 7,41 9,59 23,119 49,173 21,43 48,83 83,115 31,28 66,50 105,63 37,12 75,17 114,15 30,-2 62,-8 90,-21 22,-10 43,-24 59,-42 16,-17 26,-37 33,-59 6,-22 8,-44 6,-67 -1,-9 -3,-19 -5,-29 -3,-8 -6,-16 -10,-24 -19,10 -39,19 -59,27 -22,10 -44,19 -66,27 -21,8 -41,15 -63,21 -16,4 -33,8 -50,9 -24,2 -49,-3 -68,-18 -20,-16 -33,-43 -41,-67 -11,-35 -18,-72 -24,-109 -6,-43 -10,-87 -13,-132 -27,-12 -53,-27 -78,-45 -24,-17 -46,-37 -67,-59 -18,-20 -34,-42 -47,-66 -11,-21 -18,-44 -18,-67 0,-23 5,-44 21,-61 15,-16 34,-23 56,-24 10,0 20,1 29,4 26,68 64,137 117,187 8,-58 28,-112 66,-157 39,-45 93,-63 151,-67 29,-2 58,0 85,8 25,8 47,20 67,36 19,16 34,35 45,57 12,23 18,47 21,73 3,31 1,63 -11,93 -11,25 -26,47 -48,65 -22,18 -48,32 -75,41 -30,10 -62,16 -94,18 -25,1 -51,1 -76,-5 2,30 6,59 11,88 4,24 9,49 17,72 32,-10 66,-23 98,-37 58,-24 116,-49 173,-75 12,8 23,19 33,29 13,14 24,29 34,44 12,19 22,38 30,58 9,23 14,48 17,72 4,46 1,91 -14,134 -15,40 -36,75 -67,104 -31,32 -69,54 -111,71 -47,18 -97,28 -147,31 -52,3 -104,-2 -154,-15 -49,-14 -95,-35 -137,-64 -43,-29 -80,-65 -111,-107 -33,-44 -57,-94 -74,-146zm489 -520c-13,1 -24,4 -35,9 -13,5 -23,14 -31,24 -10,13 -17,28 -22,44 -6,21 -7,44 -6,66 12,2 24,4 35,5 12,1 25,2 37,1 25,-2 49,-9 70,-23 22,-15 28,-37 26,-62 -1,-19 -8,-36 -23,-48 -15,-13 -32,-18 -51,-16zm593 -42c38,274 76,548 114,822 -8,4 -18,7 -26,10 -13,4 -27,6 -40,8 -23,3 -48,3 -69,-6 -22,-10 -30,-36 -33,-58 -30,-252 -61,-505 -91,-757 -34,4 -67,8 -101,12 -40,4 -55,-25 -58,-61 -1,-11 -1,-22 0,-33 1,-10 2,-20 5,-29 43,-5 85,-10 127,-15 -14,-14 -24,-32 -32,-50 -10,-23 -15,-48 -18,-72 -5,-41 -2,-81 12,-119 13,-37 33,-70 60,-98 29,-30 65,-54 103,-72 44,-21 91,-34 139,-42 45,-7 90,-10 135,-8 39,2 78,6 117,13 32,6 63,13 93,23 21,8 43,15 63,25 18,9 44,23 57,39 10,11 18,24 21,38 4,17 4,35 -4,51 -7,14 -17,26 -30,35 -64,-32 -132,-55 -201,-73 -74,-18 -149,-20 -225,-8 -55,9 -111,28 -150,69 -35,36 -48,80 -42,129 3,22 9,45 20,64 8,14 18,27 31,37 44,-6 89,-13 134,-19 15,-3 28,-1 40,8 14,11 19,31 22,47 2,11 2,22 2,33 0,11 -2,21 -4,31 -57,10 -114,18 -171,26zm578 211c6,5 11,14 15,21 6,11 10,23 12,35 5,24 2,47 -12,68 -17,25 -51,36 -80,42 -31,6 -63,5 -95,0 -34,-6 -65,-19 -93,-38 -32,-22 -57,-50 -77,-81 -25,-38 -38,-83 -45,-127 -7,-44 -8,-90 3,-133 9,-38 24,-73 47,-105 21,-29 47,-53 77,-72 30,-19 61,-32 96,-38 45,-9 92,-9 136,6 36,13 71,30 100,55 -2,-25 4,-49 17,-71 14,-23 38,-35 63,-41 37,-9 73,-18 110,-27l5 -1 33 -8 1 -1c248,-63 493,-137 735,-223l1 0 73 -27c24,-8 50,-12 75,-8 25,4 45,15 63,33 -2,-23 1,-46 15,-64 13,-18 30,-30 50,-37l29 -12 1 -1 2 0 2 -1 1 -1 2 -1 3 -1 2 0 2 -1 2 -1 1 0 2 -1 3 -1 1 -1 8 -3 1 0 4 -2 0 0 6 -2 1 -1 1 0 1 -1c281,-114 555,-243 822,-387l2 -1 1 -1 19 -10 6 -3 7 -4 2 -1 0 0 3 -2 7 -3 1 -1 80 -44c22,-13 47,-21 73,-21 25,0 47,7 67,22 -6,-22 -6,-45 5,-66 10,-19 25,-33 43,-45 23,-13 47,-28 70,-42 12,-7 26,-11 41,-7 16,4 29,21 38,35 6,9 11,19 14,30 4,9 7,20 9,30 -31,19 -62,38 -93,56 -15,9 -28,22 -34,39 -6,19 5,42 14,59 129,218 257,436 386,654 -6,7 -14,13 -21,19 -10,9 -22,16 -33,23 -20,11 -44,21 -67,21 -24,-1 -41,-22 -52,-41 -118,-208 -235,-415 -352,-622 -15,-26 -35,-39 -64,-23l-16 10 -4 1 -1 1 -3 1 -4 3 -1 1 0 0 -12 6 -1 1 -37 20 -2 1c-74,40 -148,79 -222,117 27,-9 56,-12 84,-11 33,2 65,10 95,23 35,15 66,37 94,62 34,31 61,68 82,108 29,54 50,112 54,173 4,55 -3,109 -22,160 -19,51 -49,97 -88,135 -41,42 -89,75 -141,100 -54,26 -110,44 -169,50 -55,7 -109,4 -162,-9 -53,-14 -102,-37 -146,-68 -52,-36 -84,-72 -124,-121 -16,-20 -29,-37 -42,-60 -13,-22 -24,-44 -33,-67 -10,-23 -15,-50 -5,-75 8,-22 25,-37 46,-46 11,-5 23,-8 34,-10 9,0 18,0 28,2 8,15 17,30 26,46 31,55 68,110 114,155 36,35 77,65 124,85 40,17 82,25 126,22 43,-2 84,-13 123,-32 33,-16 64,-37 89,-64 24,-26 42,-55 53,-88 11,-34 13,-70 9,-105 -5,-42 -19,-82 -38,-118 -23,-44 -55,-91 -101,-113 -35,-16 -70,-19 -106,-2 -29,15 -52,37 -59,70 -7,34 0,66 15,96 8,17 18,34 31,48 11,10 22,20 34,29 1,14 -5,28 -12,40 -10,15 -24,26 -40,33 -27,13 -55,10 -81,-2 -38,-16 -63,-57 -79,-92 -12,-26 -19,-52 -21,-80 -3,-28 -1,-55 5,-82 7,-27 18,-52 34,-76 16,-24 37,-45 61,-62 -165,80 -332,155 -501,225l-2 1 -7 2 0 1 -33 13 -3 1 -52 21c-16,6 -30,16 -38,32 -10,18 -3,43 4,61 92,235 183,471 275,707 -7,6 -15,11 -23,16 -12,7 -24,12 -37,17 -21,8 -45,14 -68,10 -24,-5 -38,-28 -45,-49 -83,-224 -165,-447 -247,-671 -11,-28 -29,-44 -59,-33l-18 7 -2 1 -3 1 -5 1 0 1 -1 0 -2 1 -5 1 -2 1 -2 1 -8 3 -5 1 0 1 -3 1 -1 0 -3 1 -2 1 -2 0 -2 1 -3 1 0 0 -3 1 -1 1 -2 0 -1 0 -6 3 -1 0 -2 1 -2 0c-161,57 -324,109 -489,155 16,56 32,112 48,168 5,19 9,38 14,57 4,21 9,42 13,64 3,19 6,38 9,58 2,14 4,28 6,42 18,-37 38,-73 61,-108 24,-37 49,-73 77,-108 27,-34 56,-66 87,-96 29,-27 59,-52 93,-73 20,3 41,13 58,24 19,11 38,26 53,43 0,26 1,52 3,78 1,31 5,62 9,93 6,37 14,75 22,112 11,45 24,89 39,133 12,37 26,73 43,108 14,30 29,59 47,87 -5,13 -12,23 -21,33 -10,10 -23,17 -37,22 -16,5 -32,6 -49,4 -18,-3 -34,-13 -48,-24 -19,-16 -34,-39 -46,-61 -18,-32 -31,-69 -42,-104 -12,-38 -21,-76 -28,-114 -6,-35 -10,-70 -12,-105 -2,-29 -3,-59 -2,-88 0,-21 1,-43 5,-64 -27,25 -52,52 -74,81 -24,31 -47,64 -68,98 -22,35 -42,71 -61,108 -18,36 -35,72 -50,109 -10,6 -21,10 -32,14 -21,6 -44,7 -66,3 -20,-3 -39,-11 -53,-26 -46,-176 -93,-352 -140,-529l-46 12 0 0 -10 3 -1 0 -10 3 -2 0 -8 2 -8 2c-43,11 -85,22 -128,32 63,265 126,529 189,794 -8,5 -17,9 -26,12 -12,4 -25,8 -38,11 -22,5 -48,8 -69,0 -23,-8 -33,-32 -37,-53 -44,-200 -88,-399 -132,-598 -12,-16 -26,-31 -41,-44 -15,-13 -32,-25 -50,-34 -18,-9 -37,-15 -57,-19 -20,-3 -41,-3 -61,1 -39,8 -71,27 -93,60 -25,38 -27,82 -19,125 7,41 26,77 61,102 35,23 73,29 113,21 9,-2 19,-4 27,-9 6,-3 11,-6 17,-9zm-6087 -1325c-23,0 -48,9 -69,18 -30,14 -59,31 -87,50 -33,23 -64,50 -92,78 -32,32 -59,67 -83,105 -23,39 -44,80 -56,123 -11,37 -17,75 -17,113 0,33 5,67 15,98 9,29 21,56 37,81 -1,4 -3,8 -5,12 -2,4 -5,8 -7,12 -11,18 -27,32 -48,38 -23,6 -44,-1 -64,-12 -29,-18 -49,-46 -64,-75 -19,-39 -29,-81 -32,-124 -4,-52 3,-105 16,-156 15,-61 43,-119 77,-172 40,-62 88,-121 145,-169 47,-40 99,-77 154,-104 43,-21 91,-39 138,-45 32,-4 70,-3 98,13l9 6 0 0 27 16 0 0 9 5 1 1 3 1 0 1 2 1 1 0 3 2 1 1 0 0 2 1 1 1 1 0 2 1 1 1 5 3 0 0 7 4 1 0c234,137 475,262 722,375l2 1 62 28c23,11 44,26 59,47 15,19 22,42 22,67 15,-18 33,-32 56,-36 21,-3 41,0 61,9 25,10 50,20 75,30 13,6 24,15 30,29 6,16 0,36 -6,51 -4,10 -9,20 -15,29 -6,9 -12,17 -20,25 -33,-13 -66,-27 -99,-41 -16,-7 -34,-10 -50,-4 -20,7 -32,29 -39,47 -100,233 -199,465 -298,698 -9,0 -18,-3 -27,-5 -13,-3 -26,-8 -38,-13 -21,-9 -43,-22 -56,-41 -14,-20 -7,-46 2,-67 97,-217 194,-434 291,-652 12,-27 10,-51 -19,-64l-10 -5 -2 -1 0 0 -5 -2c-50,-23 -99,-46 -149,-70 -118,246 -235,491 -353,737 -8,-1 -18,-4 -26,-7 -13,-4 -25,-9 -36,-15 -21,-10 -43,-24 -56,-44 -13,-20 -6,-45 4,-65 53,-106 107,-213 160,-319 -11,-18 -33,-32 -52,-41 -47,-24 -122,-10 -170,1 -52,12 -111,22 -165,20 -42,-2 -82,-12 -118,-33 -2,-1 -4,-2 -6,-3 -21,-12 -40,-29 -49,-52 -8,-23 -3,-44 9,-65 11,-19 26,-35 44,-47 15,9 30,17 45,26 37,21 77,31 119,24 42,-8 71,-34 91,-70 16,-31 25,-64 22,-99 -4,-38 -22,-79 -42,-111 -11,-16 -21,-32 -32,-49 -5,-9 -11,-21 -12,-32 -2,-12 3,-24 9,-34 7,-12 17,-22 30,-29l-2 -2 -2 0 -1 -1 0 0 -6 -4 -2 -1 0 0 -3 -2 -2 0 -3 -2 -2 -2 -5 -3 -2 -1 -1 0 0 0 -7 -4 -1 -1 -1 -1 -1 0 -3 -2 -1 0 -1 -1 -10 -6 -2 -1 0 0 -2 -1 0 0 -2 -1 -2 -1 -33 -20zm388 480c11,6 22,12 32,19 7,6 14,12 20,19 36,-73 73,-145 109,-218 -106,-53 -211,-108 -315,-166 13,20 23,41 32,63 10,25 16,52 19,78 4,29 3,59 -1,88 -4,31 -14,62 -29,90 -2,3 -4,6 -5,9 23,-3 47,-4 70,-2 24,2 47,9 68,20z"/>
   <path class="fil22" d="M6992 17914c3,8 3,18 2,26 0,12 -3,24 -7,36 -8,23 -23,41 -46,52 -27,13 -63,5 -90,-5 -30,-11 -57,-28 -81,-49 -26,-23 -46,-50 -61,-81 -16,-34 -23,-71 -24,-109 -1,-45 10,-90 27,-132 17,-41 40,-80 71,-112 27,-28 58,-51 94,-66 33,-14 68,-22 104,-22 34,-1 68,4 101,16 43,16 84,40 113,76 25,29 46,62 58,98 12,-22 28,-40 51,-51 24,-13 50,-11 76,-3 48,15 96,30 145,45 38,11 42,42 32,76 -3,11 -8,21 -13,31 -5,10 -10,18 -17,27 -55,-17 -109,-33 -164,-51 -82,260 -165,519 -247,779 -9,0 -19,-2 -28,-4 -13,-2 -26,-6 -38,-10 -22,-7 -45,-18 -60,-35 -16,-19 -11,-44 -4,-65 65,-194 130,-387 195,-580 -2,-20 -7,-40 -13,-59 -6,-20 -15,-38 -26,-55 -10,-17 -23,-32 -39,-46 -15,-13 -33,-23 -53,-31 -37,-13 -74,-12 -110,5 -41,19 -65,55 -81,96 -15,40 -17,80 1,119 17,38 47,63 85,77 9,3 19,6 28,6 6,1 13,1 19,1zm2026 151c-29,268 -58,536 -87,804 -25,20 -62,20 -92,17 -8,-1 -16,-3 -24,-6 -41,-40 -82,-80 -124,-120 -38,-36 -78,-72 -117,-107 -39,-34 -79,-68 -119,-100 -41,-34 -83,-67 -125,-99 -7,-19 -9,-39 -10,-59 -1,-23 1,-46 5,-69 1,-5 2,-10 3,-15 1,-5 3,-10 4,-15 41,-21 83,-39 125,-55 45,-18 91,-34 137,-48 46,-14 92,-28 138,-39 43,-11 87,-20 130,-26 4,-27 7,-54 11,-80 -171,-22 -341,-48 -509,-80 -41,-8 -47,-39 -40,-75 2,-11 5,-22 10,-32 3,-9 8,-18 14,-26 255,49 512,86 771,111 215,21 423,33 638,38 12,4 164,2 189,2 40,0 53,28 53,64 0,11 -1,22 -3,33 -2,10 -5,21 -9,30 -58,1 -116,1 -174,0 -4,269 -8,539 -12,809 -19,17 -38,21 -63,24 -3,1 -24,1 -28,1 -4,0 -8,0 -12,-1 -4,-1 -8,-2 -12,-3 -44,-36 -88,-72 -134,-107 -42,-33 -85,-65 -128,-96 -42,-30 -85,-60 -128,-89 -45,-29 -89,-58 -134,-86 -9,-18 -14,-38 -17,-58 -2,-23 -3,-46 -1,-69 1,-5 2,-10 2,-16 1,-5 3,-10 4,-15 38,-24 78,-46 119,-67 44,-21 88,-41 133,-60 44,-18 89,-36 134,-51 42,-15 85,-28 128,-38 1,-27 2,-54 3,-82 -160,-4 -319,-14 -477,-28l0 0 -7 0 -24 -2c-47,-5 -94,-9 -141,-14zm639 682c-2,-21 -2,-42 -3,-63 -1,-26 -1,-52 -3,-79 -84,-57 -168,-116 -250,-176 -18,8 -36,17 -54,26 -16,9 -33,18 -48,29 34,22 68,46 102,70 33,23 66,47 98,71 29,22 58,44 87,66 24,18 48,37 71,56zm1 -412c-30,7 -60,16 -89,26 -31,11 -61,22 -92,34 58,43 117,86 176,128 1,-63 3,-126 5,-188zm-814 -58c-64,10 -126,25 -188,45 -59,18 -118,40 -175,65 32,26 63,52 94,78 29,26 59,52 88,78 26,24 52,48 78,72 21,20 42,40 63,60 0,-16 1,-33 2,-49 1,-20 3,-39 4,-58 2,-19 3,-38 5,-57 2,-16 3,-31 5,-47 8,-62 16,-125 24,-187zm1170 317c-14,-38 -24,-80 -24,-121 0,-27 5,-54 23,-75 15,-18 36,-27 60,-27 10,0 21,0 31,3 7,2 15,4 21,8 2,13 5,27 7,40 9,59 23,120 49,174 21,42 48,83 83,115 31,28 66,50 105,63 37,11 75,17 114,14 30,-1 62,-7 90,-20 22,-10 43,-24 59,-43 16,-17 26,-36 33,-58 6,-22 8,-44 6,-67 -1,-10 -3,-20 -5,-29 -3,-8 -6,-16 -10,-24 -19,9 -39,18 -59,27 -22,10 -44,19 -66,27 -21,7 -41,14 -63,20 -16,5 -33,9 -50,10 -24,1 -49,-3 -68,-18 -20,-17 -33,-43 -41,-67 -11,-35 -18,-73 -24,-109 -6,-44 -10,-88 -13,-132 -27,-12 -53,-28 -78,-45 -24,-18 -46,-37 -67,-59 -18,-20 -34,-42 -47,-66 -11,-21 -18,-44 -18,-68 0,-22 5,-43 21,-60 15,-16 34,-23 56,-24 10,0 20,1 29,4 26,67 64,137 117,187 8,-58 28,-112 66,-157 39,-45 93,-64 151,-68 29,-2 58,1 85,9 25,8 47,20 67,36 19,16 34,35 45,57 12,23 18,47 21,72 3,32 1,64 -11,93 -11,26 -26,48 -48,66 -22,18 -48,31 -75,40 -30,11 -62,16 -94,18 -25,2 -51,2 -76,-4 2,30 6,59 11,88 4,24 9,48 17,72 32,-10 66,-24 98,-37 58,-24 116,-49 173,-76 12,9 23,19 33,30 13,14 24,29 34,44 12,18 22,38 30,58 9,23 14,48 17,72 4,45 1,91 -14,134 -15,39 -36,74 -67,104 -31,31 -69,54 -111,70 -47,19 -97,29 -147,32 -52,3 -104,-2 -154,-16 -49,-13 -95,-34 -137,-63 -43,-29 -80,-66 -111,-107 -33,-45 -57,-94 -74,-147zm489 -520c-13,1 -24,4 -35,10 -13,5 -23,14 -31,24 -10,13 -17,28 -22,44 -6,20 -7,44 -6,65 12,3 24,5 35,6 12,1 25,1 37,1 25,-2 49,-9 70,-23 22,-15 28,-37 26,-63 -1,-19 -8,-35 -23,-48 -15,-12 -32,-17 -51,-16zm593 -41c38,274 76,548 114,822 -8,4 -18,7 -26,10 -13,4 -27,6 -40,8 -23,3 -48,3 -69,-6 -22,-10 -30,-36 -33,-59 -30,-252 -61,-504 -91,-756 -34,4 -67,8 -101,11 -40,5 -55,-25 -58,-60 -1,-11 -1,-22 0,-33 1,-10 2,-20 5,-30 43,-4 85,-9 127,-14 -14,-14 -24,-32 -32,-51 -10,-22 -15,-47 -18,-72 -5,-40 -2,-80 12,-118 13,-37 33,-70 60,-98 29,-30 65,-54 103,-72 44,-21 91,-34 139,-42 45,-7 90,-10 135,-8 39,2 78,5 117,13 32,5 63,13 93,23 21,7 43,15 63,25 18,9 44,23 57,38 10,11 18,24 21,39 4,17 4,35 -4,51 -7,14 -17,26 -30,35 -64,-32 -132,-56 -201,-73 -74,-19 -149,-21 -225,-8 -55,8 -111,28 -150,69 -35,36 -48,79 -42,129 3,22 9,44 20,63 8,14 18,28 31,38 44,-6 89,-13 134,-20 15,-2 28,0 40,9 14,11 19,31 22,47 2,11 2,22 2,33 0,11 -2,21 -4,31 -57,9 -114,18 -171,26zm578 211c6,5 11,14 15,21 6,11 10,23 12,35 5,24 2,47 -12,68 -17,25 -51,36 -80,42 -31,6 -63,5 -95,0 -34,-6 -65,-19 -93,-39 -32,-21 -57,-49 -77,-81 -25,-38 -38,-82 -45,-126 -7,-45 -8,-90 3,-133 9,-38 24,-74 47,-105 21,-29 47,-54 77,-73 30,-18 61,-31 96,-37 45,-9 92,-10 136,6 36,12 71,30 100,55 -2,-25 4,-49 17,-71 14,-23 38,-35 63,-41 37,-9 73,-18 110,-27l5 -1 33 -9 1 0c248,-63 493,-138 735,-223l1 -1 73 -26c24,-9 50,-13 75,-8 25,4 45,15 63,32 -2,-22 1,-45 15,-64 13,-17 30,-29 50,-37l29 -12 1 0 2 -1 2 -1 1 0 2 -1 3 -1 2 0 2 -1 2 -1 1 -1 2 0 3 -2 1 0 8 -3 1 -1 4 -1 0 0 6 -3 1 0 1 -1 1 0c281,-114 555,-243 822,-387l2 -1 1 -1 19 -10 6 -4 7 -3 2 -2 0 0 3 -1 7 -4 1 -1 80 -44c22,-12 47,-20 73,-20 25,-1 47,7 67,22 -6,-22 -6,-45 5,-66 10,-19 25,-34 43,-45 23,-14 47,-28 70,-42 12,-8 26,-11 41,-7 16,4 29,20 38,34 6,10 11,20 14,30 4,10 7,20 9,31 -31,19 -62,37 -93,56 -15,9 -28,21 -34,38 -6,20 5,43 14,59 129,218 257,436 386,655 -6,6 -14,13 -21,19 -10,8 -22,16 -33,23 -20,11 -44,21 -67,20 -24,0 -41,-21 -52,-41 -118,-207 -235,-414 -352,-621 -15,-26 -35,-39 -64,-23l-16 9 -4 2 -1 1 -3 1 -4 3 -1 0 0 0 -12 7 -1 0 -37 21 -2 1c-74,40 -148,79 -222,117 27,-9 56,-12 84,-11 33,2 65,10 95,23 35,15 66,37 94,62 34,30 61,68 82,108 29,53 50,112 54,173 4,55 -3,109 -22,160 -19,51 -49,96 -88,135 -41,42 -89,75 -141,100 -54,26 -110,43 -169,50 -55,6 -109,4 -162,-10 -53,-13 -102,-36 -146,-67 -52,-36 -84,-73 -124,-121 -16,-20 -29,-38 -42,-61 -13,-21 -24,-43 -33,-66 -10,-23 -15,-50 -5,-75 8,-22 25,-37 46,-46 11,-5 23,-9 34,-10 9,-1 18,0 28,1 8,16 17,31 26,47 31,55 68,110 114,155 36,34 77,65 124,85 40,16 82,25 126,22 43,-2 84,-14 123,-32 33,-16 64,-37 89,-65 24,-25 42,-54 53,-87 11,-34 13,-70 9,-106 -5,-41 -19,-81 -38,-118 -23,-43 -55,-90 -101,-112 -35,-17 -70,-20 -106,-2 -29,15 -52,37 -59,70 -7,33 0,66 15,96 8,17 18,34 31,47 11,11 22,21 34,30 1,14 -5,28 -12,39 -10,16 -24,26 -40,34 -27,13 -55,9 -81,-2 -38,-16 -63,-57 -79,-92 -12,-26 -19,-53 -21,-81 -3,-27 -1,-54 5,-81 7,-27 18,-52 34,-76 16,-25 37,-45 61,-63 -165,81 -332,156 -501,226l-2 1 -7 2 0 0 -33 14 -3 1 -52 21c-16,6 -30,16 -38,32 -10,18 -3,43 4,60 92,236 183,472 275,708 -7,6 -15,11 -23,15 -12,7 -24,13 -37,18 -21,8 -45,13 -68,9 -24,-4 -38,-28 -45,-49 -83,-223 -165,-446 -247,-670 -11,-28 -29,-44 -59,-33l-18 7 -2 0 -3 1 -5 2 0 0 -1 1 -2 0 -5 2 -2 1 -2 0 -8 4 -5 1 0 0 -3 1 -1 1 -3 1 -2 0 -2 1 -2 1 -3 1 0 0 -3 1 -1 0 -2 1 -1 0 -6 2 -1 1 -2 0 -2 1c-161,57 -324,108 -489,155 16,56 32,112 48,168 5,19 9,38 14,57 4,21 9,42 13,63 3,20 6,39 9,59 2,14 4,28 6,42 18,-38 38,-74 61,-108 24,-38 49,-74 77,-108 27,-34 56,-66 87,-96 29,-27 59,-52 93,-74 20,3 41,14 58,24 19,12 38,26 53,43 0,27 1,53 3,79 1,31 5,62 9,93 6,37 14,74 22,111 11,46 24,90 39,134 12,37 26,73 43,108 14,30 29,59 47,87 -5,12 -12,23 -21,32 -10,11 -23,18 -37,23 -16,5 -32,6 -49,4 -18,-3 -34,-13 -48,-24 -19,-16 -34,-39 -46,-61 -18,-32 -31,-69 -42,-105 -12,-37 -21,-75 -28,-113 -6,-35 -10,-70 -12,-105 -2,-29 -3,-59 -2,-88 0,-21 1,-43 5,-64 -27,24 -52,52 -74,80 -24,32 -47,65 -68,98 -22,36 -42,72 -61,109 -18,35 -35,72 -50,109 -10,6 -21,10 -32,13 -21,6 -44,7 -66,4 -20,-4 -39,-11 -53,-26 -46,-176 -93,-353 -140,-529l-46 12 0 0 -10 3 -1 0 -10 3 -2 0 -8 2 -8 2c-43,11 -85,21 -128,32 63,264 126,529 189,794 -8,5 -17,8 -26,11 -12,5 -25,9 -38,12 -22,5 -48,7 -69,0 -23,-8 -33,-32 -37,-54 -44,-199 -88,-398 -132,-597 -12,-16 -26,-31 -41,-44 -15,-14 -32,-25 -50,-34 -18,-9 -37,-16 -57,-19 -20,-4 -41,-3 -61,1 -39,7 -71,27 -93,60 -25,37 -27,82 -19,124 7,42 26,78 61,102 35,23 73,30 113,22 9,-2 19,-5 27,-9 6,-3 11,-6 17,-9zm-6087 -1326c-23,1 -48,10 -69,19 -30,13 -59,31 -87,50 -33,23 -64,50 -92,78 -32,32 -59,67 -83,105 -23,38 -44,80 -56,123 -11,37 -17,75 -17,113 0,33 5,66 15,98 9,28 21,56 37,80 -1,5 -3,9 -5,13 -2,3 -5,7 -7,11 -11,19 -27,33 -48,38 -23,7 -44,0 -64,-12 -29,-17 -49,-45 -64,-75 -19,-38 -29,-81 -32,-123 -4,-52 3,-105 16,-156 15,-61 43,-119 77,-172 40,-63 88,-121 145,-169 47,-40 99,-77 154,-105 43,-21 91,-39 138,-44 32,-4 70,-4 98,13l9 6 0 0 27 15 0 1 9 5 1 0 3 2 0 0 2 2 1 0 3 2 1 1 0 0 2 1 1 0 1 1 2 1 1 0 5 3 0 1 7 4 1 0c234,137 475,262 722,375l2 1 62 28c23,11 44,26 59,46 15,20 22,43 22,67 15,-17 33,-31 56,-35 21,-3 41,0 61,8 25,11 50,21 75,31 13,6 24,14 30,28 6,16 0,36 -6,52 -4,10 -9,20 -15,29 -6,9 -12,17 -20,25 -33,-14 -66,-27 -99,-41 -16,-7 -34,-10 -50,-4 -20,6 -32,29 -39,46 -100,233 -199,466 -298,699 -9,-1 -18,-3 -27,-5 -13,-3 -26,-8 -38,-13 -21,-9 -43,-22 -56,-41 -14,-20 -7,-46 2,-67 97,-217 194,-435 291,-652 12,-27 10,-51 -19,-65l-10 -4 -2 -1 0 0 -5 -2c-50,-23 -99,-46 -149,-70 -118,246 -235,491 -353,737 -8,-1 -18,-5 -26,-7 -13,-4 -25,-10 -36,-15 -21,-10 -43,-25 -56,-44 -13,-21 -6,-45 4,-65 53,-107 107,-213 160,-319 -11,-18 -33,-32 -52,-41 -47,-24 -122,-10 -170,1 -52,12 -111,22 -165,19 -42,-1 -82,-11 -118,-32 -2,-1 -4,-2 -6,-3 -21,-12 -40,-29 -49,-52 -8,-23 -3,-45 9,-65 11,-19 26,-35 44,-47 15,8 30,17 45,26 37,21 77,31 119,23 42,-7 71,-33 91,-70 16,-30 25,-63 22,-98 -4,-38 -22,-79 -42,-111 -11,-16 -21,-32 -32,-49 -5,-10 -11,-21 -12,-32 -2,-12 3,-24 9,-34 7,-12 17,-22 30,-30l-2 -1 -2 -1 -1 0 0 0 -6 -4 -2 -1 0 0 -3 -2 -2 -1 -3 -2 -2 -1 -5 -3 -2 -1 -1 0 0 -1 -7 -3 -1 -1 -1 -1 -1 -1 -3 -1 -1 -1 -1 0 -10 -6 -2 -1 0 -1 -2 0 0 0 -2 -2 -2 -1 -33 -20zm388 481c11,5 22,12 32,19 7,6 14,12 20,19 36,-73 73,-146 109,-218 -106,-53 -211,-109 -315,-166 13,20 23,41 32,63 10,25 16,51 19,78 4,29 3,58 -1,87 -4,32 -14,62 -29,91 -2,3 -4,6 -5,9 23,-3 47,-4 70,-2 24,2 47,9 68,20z"/>
   <path class="fil23" d="M6992 17914c3,8 3,18 2,26 0,9 -2,18 -4,27l-17 0c-9,-1 -19,-4 -28,-7 -38,-14 -68,-39 -85,-76 -13,-28 -16,-57 -11,-85 2,10 6,21 11,31 17,38 47,63 85,77 9,3 19,6 28,6 6,1 13,1 19,1zm-306 -110c0,-6 -1,-13 -1,-20 -1,-45 10,-90 27,-132 17,-41 40,-80 71,-112 27,-28 58,-51 94,-66 33,-14 68,-22 104,-22 34,-1 68,4 101,16 43,16 84,40 113,76 25,29 46,62 58,98 12,-22 28,-40 51,-51 24,-13 50,-11 76,-3 48,15 96,30 145,45 38,11 42,42 32,76l0 1c-6,-11 -16,-19 -32,-24 -49,-15 -97,-30 -145,-45 -26,-8 -52,-10 -76,3 -23,12 -39,29 -51,52 -12,-37 -33,-70 -58,-99 -29,-36 -70,-60 -113,-75 -33,-12 -67,-18 -101,-17 -36,1 -71,8 -104,22 -36,15 -67,38 -94,66 -31,32 -54,71 -71,112 -13,32 -22,65 -26,99zm298 634c-8,-18 -4,-39 2,-57l189 -562c2,11 4,23 6,35 -65,193 -130,387 -195,580l-2 4zm1337 -26c-1,-6 -1,-11 -1,-17 -1,-23 1,-46 5,-69 1,-5 2,-10 3,-15 1,-5 3,-10 4,-15 41,-21 83,-39 125,-55 45,-18 91,-34 137,-48 46,-14 92,-28 138,-39 43,-11 87,-20 130,-26l4 -28 7 1c-4,27 -7,54 -11,80 -43,7 -87,16 -130,26 -46,12 -92,25 -138,39 -46,15 -92,30 -137,48 -42,16 -84,34 -125,55 -1,5 -3,10 -4,15 -1,5 -2,10 -3,16 -2,10 -3,21 -4,32zm4 -472c-5,-13 -4,-30 -1,-47 2,-11 5,-22 10,-32 3,-9 8,-18 14,-26 255,49 512,86 771,111 215,21 423,33 638,38 12,4 164,2 189,2 40,0 53,28 53,64 0,10 -1,20 -2,29 -6,-24 -20,-40 -51,-40 -25,0 -177,2 -189,-2 -215,-5 -423,-17 -638,-37 -259,-26 -516,-63 -771,-112 -6,8 -11,17 -14,26 -4,9 -7,17 -9,26zm819 554c-1,-19 -1,-37 0,-56 1,-5 2,-10 2,-16 1,-5 3,-10 4,-15 38,-24 78,-46 119,-67 44,-21 88,-41 133,-60 44,-18 89,-36 134,-51 42,-15 85,-28 128,-38l1 -28 2 0c-1,27 -2,54 -3,81 -43,10 -86,23 -128,38 -45,16 -90,33 -134,51 -45,19 -89,39 -133,61 -41,20 -81,42 -119,66 -1,5 -3,10 -4,16 0,5 -1,10 -2,15l0 3zm197 18c20,14 40,28 60,42 33,23 66,47 98,71 29,22 58,44 87,66 23,18 46,35 68,54 1,18 2,37 3,55 -23,-19 -47,-37 -71,-56 -29,-22 -58,-44 -87,-66 -32,-24 -65,-48 -98,-71 -34,-24 -68,-47 -102,-70 13,-9 27,-17 42,-25zm183 -82c43,31 85,62 129,93l4 -134 1 -1c-2,63 -4,125 -5,188 -59,-42 -118,-84 -176,-128 16,-6 32,-12 47,-18zm-1000 -8c17,14 34,29 51,43 29,26 59,52 88,78 26,24 52,48 78,72 21,20 42,40 63,60 0,-16 1,-33 2,-49 1,-20 3,-39 4,-58 2,-19 3,-38 5,-57 2,-16 3,-31 5,-47l17 -132 7 -1c-8,62 -16,124 -24,186 -2,16 -3,31 -5,47 -2,19 -3,38 -5,57 -1,19 -3,39 -4,58 -1,16 -2,33 -2,50 -21,-21 -42,-41 -63,-61 -26,-24 -52,-48 -78,-72 -29,-26 -59,-52 -88,-77 -31,-27 -62,-53 -94,-79 14,-6 29,-12 43,-18zm1467 79c-1,-10 -1,-19 -1,-28 0,-27 5,-54 23,-75 15,-18 36,-27 60,-27 10,0 21,0 31,3 7,2 15,4 21,8 2,13 5,27 7,40 9,59 23,120 49,174 21,42 48,83 83,115 31,28 66,50 105,63 37,11 75,17 114,14 30,-1 62,-7 90,-20 22,-10 43,-24 59,-43 16,-17 26,-36 33,-58 2,-8 4,-16 5,-24l1 10c2,23 0,45 -6,67 -7,22 -17,42 -33,59 -16,18 -37,32 -59,42 -28,13 -60,19 -90,21 -39,2 -77,-3 -114,-15 -39,-13 -74,-35 -105,-63 -35,-32 -62,-72 -83,-115 -26,-54 -40,-114 -49,-173 -2,-14 -5,-27 -7,-41 -6,-3 -14,-6 -21,-8 -10,-2 -21,-3 -31,-3 -24,1 -45,9 -60,27 -13,14 -19,32 -22,50zm74 -408c-2,-8 -3,-17 -3,-26 0,-22 5,-43 21,-60 15,-16 34,-23 56,-24 10,0 20,1 29,4 26,67 64,137 117,187 8,-58 28,-112 66,-157 39,-45 93,-64 151,-68 29,-2 58,1 85,9 25,8 47,20 67,36 19,16 34,35 45,57 12,23 18,47 21,72 1,17 1,34 -1,51 -2,-24 -9,-48 -20,-70 -11,-22 -26,-41 -45,-57 -20,-16 -42,-28 -67,-36 -27,-8 -56,-10 -85,-8 -58,4 -112,22 -151,67 -38,45 -58,99 -66,157 -53,-50 -91,-119 -117,-187 -9,-3 -19,-4 -29,-4 -22,1 -41,8 -56,24 -9,10 -15,21 -18,33zm357 297c2,12 3,23 5,34 4,24 9,48 17,72 32,-10 66,-24 98,-37 58,-24 116,-49 173,-76 12,9 23,19 33,30 13,14 24,29 34,44 12,18 22,38 30,58 9,23 14,48 17,72 2,21 2,42 0,63l0 -10c-3,-24 -8,-49 -17,-72 -8,-20 -18,-39 -30,-58 -10,-15 -21,-30 -34,-44 -10,-10 -21,-21 -33,-29 -57,26 -115,51 -173,75 -32,14 -66,27 -98,37 -8,-23 -13,-48 -17,-72 -5,-29 -9,-58 -11,-88l6 1zm-10 -172c11,2 22,4 32,5 12,1 25,1 37,1 25,-2 49,-9 70,-23 11,-8 18,-18 22,-29 3,6 4,13 4,20 2,25 -4,47 -26,62 -21,14 -45,21 -70,23 -12,1 -25,0 -37,-1 -11,-1 -23,-3 -35,-5 -1,-18 0,-36 3,-53zm691 -133l107 770 -7 3 -107 -772 7 -1zm-310 -73l-1 -9c-1,-11 -1,-22 0,-33 1,-10 2,-20 5,-30 32,-3 64,-6 96,-10 8,18 18,35 31,49 -42,5 -84,10 -127,15 -2,6 -3,12 -4,18zm80 -216c-3,-38 0,-75 13,-111 13,-37 33,-70 60,-98 29,-30 65,-54 103,-72 44,-21 91,-34 139,-42 45,-7 90,-10 135,-8 39,2 78,5 117,13 32,5 63,13 93,23 21,7 43,15 63,25 18,9 44,23 57,38 10,11 18,24 21,39 3,15 4,31 -2,46 -4,-12 -10,-22 -19,-31 -13,-16 -39,-30 -57,-39 -20,-10 -42,-17 -63,-25 -30,-10 -61,-17 -93,-23 -39,-7 -78,-11 -117,-13 -45,-2 -90,1 -135,8 -48,8 -95,21 -139,42 -38,18 -74,42 -103,72 -27,28 -47,61 -60,98 -7,19 -11,38 -13,58zm150 13c3,21 8,42 19,60 8,14 18,28 31,38 44,-6 89,-13 134,-20 15,-2 28,0 40,9 14,11 19,31 22,47 2,11 2,22 2,33 0,7 -1,14 -2,20 -3,-16 -8,-36 -22,-47 -12,-9 -25,-11 -40,-8 -45,6 -90,13 -134,19 -13,-10 -23,-23 -31,-37 -11,-19 -17,-42 -20,-64 -2,-17 -2,-34 1,-50zm651 435c6,5 11,14 15,21 6,11 10,23 12,35 3,16 3,31 -1,46 -3,-10 -6,-19 -11,-28 -4,-7 -9,-16 -15,-21 -6,3 -11,6 -17,9 -8,5 -18,7 -27,9 -40,8 -78,2 -113,-21 -35,-25 -54,-61 -61,-102 -4,-23 -6,-45 -3,-67l3 13c7,42 26,78 61,102 35,23 73,30 113,22 9,-2 19,-5 27,-9 6,-3 11,-6 17,-9zm-379 -116c-3,-32 -1,-65 7,-97 9,-38 24,-74 47,-105 21,-29 47,-54 77,-73 30,-18 61,-31 96,-37 45,-9 92,-10 136,6 36,12 71,30 100,55 -2,-25 4,-49 17,-71 14,-23 38,-35 63,-41 37,-9 73,-18 110,-27l5 -1 33 -9 1 0c248,-63 493,-138 735,-223l1 -1 73 -26c24,-9 50,-13 75,-8 25,4 45,15 63,32 -2,-22 1,-45 15,-64 13,-17 30,-29 50,-37l29 -12 1 0 2 -1 2 -1 1 0 2 -1 3 -1 2 0 2 -1 2 -1 1 -1 2 0 3 -2 1 0 8 -3 1 -1 4 -1 0 0 6 -3 1 0 1 -1 1 0c281,-114 555,-243 822,-387l2 -1 1 -1 19 -10 6 -4 7 -3 2 -2 0 0 3 -1 7 -4 1 -1 80 -44c22,-12 47,-20 73,-20 24,-1 47,7 67,22 -6,17 -5,35 0,53 -20,-15 -42,-22 -67,-22 -26,0 -51,8 -73,21l-80 44 -1 1 -7 3 -3 2 0 0 -2 1 -7 4 -6 3 -19 10 -1 1 -2 1c-267,144 -541,273 -822,387l-1 1 -1 0 -1 1 -6 2 0 0 -4 2 -1 0 -8 3 -1 1 -3 1 -2 1 -1 0 -2 1 -2 1 -2 0 -3 1 -2 1 -1 1 -2 1 -2 0 -1 1 -29 12c-20,7 -37,19 -50,37 -14,18 -17,41 -15,64 -18,-18 -38,-29 -63,-33 -25,-4 -51,0 -75,8l-73 27 -1 0c-242,86 -487,160 -735,223l-1 1 -33 8 -5 1c-37,9 -73,18 -110,27 -25,6 -49,18 -63,41 -13,22 -19,46 -17,71 -29,-25 -64,-42 -100,-55 -44,-15 -91,-15 -136,-6 -35,6 -66,19 -96,38 -30,19 -56,43 -77,72 -23,32 -38,67 -47,105 -4,14 -6,29 -7,44zm2869 -1213c-6,-23 -6,-45 5,-66 10,-19 25,-34 43,-45 23,-14 47,-28 70,-42 12,-8 26,-11 41,-7 16,4 29,20 38,34 6,10 11,20 14,30 4,10 7,20 9,31l-15 8c-2,-5 -5,-10 -8,-15 -9,-14 -22,-31 -38,-35 -15,-4 -29,0 -41,7 -23,14 -47,29 -70,42 -18,12 -33,26 -43,45 -2,4 -4,8 -5,13zm99 71c2,6 5,12 8,17 129,218 257,436 386,655 -6,6 -14,13 -20,18l-366 -619c-9,-17 -20,-40 -14,-59 2,-5 3,-8 6,-12zm-382 204c22,3 43,10 63,19 35,15 66,37 94,62 34,30 61,68 82,108 29,53 50,112 54,173 2,19 2,37 0,55l0 -2c-4,-61 -25,-119 -54,-173 -21,-40 -48,-77 -82,-108 -28,-25 -59,-47 -94,-62 -30,-13 -62,-21 -95,-23 -28,-1 -57,2 -84,11 39,-20 78,-40 116,-60zm-640 463c-5,-18 -6,-37 1,-56 8,-22 25,-37 46,-46 11,-5 23,-9 34,-10 9,-1 18,0 28,1 8,16 17,31 26,47 31,55 68,110 114,155 36,34 77,65 124,85 40,16 82,25 126,22 43,-2 84,-14 123,-32 33,-16 64,-37 89,-65 24,-25 42,-54 53,-87 5,-16 8,-31 10,-47 3,34 0,68 -10,100 -11,33 -29,62 -53,88 -25,27 -56,48 -89,64 -39,19 -80,30 -123,32 -44,3 -86,-5 -126,-22 -47,-20 -88,-50 -124,-85 -46,-45 -83,-100 -114,-155 -9,-16 -18,-31 -26,-46 -10,-2 -19,-2 -28,-2 -11,2 -23,5 -34,10 -21,9 -38,24 -46,46l-1 3zm469 -200c3,14 8,28 15,42 8,17 18,34 31,47 11,11 22,21 34,30 1,14 -5,28 -12,39l-2 3c-7,-6 -14,-12 -20,-18 -13,-14 -23,-31 -31,-48 -15,-30 -22,-62 -15,-95zm-153 20l0 -3c-3,-27 -1,-54 5,-81 4,-17 10,-33 18,-48 26,-13 51,-25 77,-37 -24,17 -45,38 -61,62 -16,24 -27,49 -34,76 -2,10 -4,20 -5,31zm-535 125l3 9c92,236 183,472 275,708 -5,4 -11,8 -16,11l-259 -665c-7,-18 -14,-43 -4,-61l1 -2zm-763 242l34 119c5,19 9,38 14,57 4,21 9,42 13,63 3,20 6,39 9,59 2,14 4,28 6,42 18,-38 38,-74 61,-108 24,-38 49,-74 77,-108 27,-34 56,-66 87,-96 29,-27 59,-52 93,-74 20,3 41,14 58,24 19,12 38,26 53,43 0,27 1,53 3,79 1,31 5,62 9,93 6,37 14,74 22,111 11,46 24,90 39,134 12,37 26,73 43,108 14,30 29,59 47,87 -4,10 -9,19 -16,27 -11,-20 -22,-40 -31,-61 -17,-35 -31,-71 -43,-108 -15,-44 -28,-88 -39,-133 -8,-37 -16,-75 -22,-112 -4,-31 -8,-62 -9,-93 -2,-26 -3,-52 -3,-78 -15,-17 -34,-32 -53,-43 -17,-11 -38,-21 -58,-24 -34,21 -64,46 -93,73 -31,30 -60,62 -87,96 -28,35 -53,71 -77,108 -23,35 -43,71 -61,108 -2,-14 -4,-28 -6,-42 -3,-20 -6,-39 -9,-58 -4,-22 -9,-43 -13,-64 -5,-19 -9,-38 -14,-57 -16,-56 -32,-112 -48,-168l14 -4zm383 241c0,-15 0,-30 0,-45l0 -7 5 -4c-3,19 -4,38 -5,56zm-740 -147l177 744c-3,2 -7,4 -11,6l-178 -747 12 -3zm-6718 -504c2,25 6,50 14,74 9,28 21,56 37,80 -1,5 -3,9 -5,13 -2,3 -5,7 -7,11l-3 4c-9,-17 -16,-36 -22,-55 -10,-31 -15,-65 -15,-98 0,-10 0,-19 1,-29zm-169 2c-4,-51 3,-103 16,-152 15,-61 43,-119 77,-172 40,-63 88,-121 145,-169 47,-40 99,-77 154,-105 43,-21 91,-39 138,-44 32,-4 70,-4 98,13l9 6 0 0 27 15 0 1 9 5 1 0 3 2 0 0 2 2 1 0 3 2 1 1 0 0 2 1 1 0 1 1 2 1 1 0 5 3 0 1 7 4 1 0c234,137 475,262 722,375l2 1 62 28c23,11 44,26 59,46 15,20 22,43 22,67 15,-17 33,-31 56,-35 21,-3 41,0 61,8 25,11 50,21 75,31 13,6 24,14 30,28 5,15 2,32 -4,47 -6,-10 -15,-17 -26,-22 -25,-10 -50,-20 -75,-30 -20,-9 -40,-12 -61,-9 -23,4 -41,18 -56,36 0,-25 -7,-48 -22,-67 -15,-21 -36,-36 -59,-47l-62 -28 -2 -1c-247,-113 -488,-238 -722,-375l-1 0 -7 -4 0 0 -5 -3 -1 -1 -2 -1 -1 0 -1 -1 -2 -1 0 0 -1 -1 -3 -2 -1 0 -2 -1 0 -1 -3 -1 -1 -1 -9 -5 0 0 -27 -16 0 0 -9 -6c-28,-16 -66,-17 -98,-13 -47,6 -95,24 -138,45 -55,27 -107,64 -154,104 -57,48 -105,107 -145,169 -34,53 -62,111 -77,172 -8,32 -14,65 -16,99zm1143 708c-12,-19 -5,-43 4,-63l290 -650c11,13 9,31 1,51 -97,218 -194,435 -291,652 -2,4 -3,7 -4,10zm-361 -187c-13,-21 -5,-45 4,-64l143 -285c6,6 12,12 17,19 -53,106 -107,213 -160,319 -1,3 -3,7 -4,11zm-394 -488l-2 -3c-8,-23 -3,-45 9,-65 11,-19 26,-35 44,-47 15,8 30,17 45,26 37,21 77,31 119,23 42,-7 71,-33 91,-70 10,-18 17,-37 20,-57 1,4 1,8 2,12 3,35 -6,68 -22,99 -20,36 -49,62 -91,70 -42,7 -82,-3 -119,-24 -15,-9 -30,-17 -45,-26 -18,12 -33,28 -44,47 -3,5 -5,10 -7,15zm249 -404c-3,-7 -6,-15 -7,-22 -2,-10 2,-20 6,-29l2 1 0 0 1 0 2 1 5 3 2 2 3 2 2 0 3 2 0 0 2 1 6 4 0 0 1 1 2 0 2 2c-13,7 -23,17 -30,29l-2 3zm323 338c11,5 22,12 32,19 7,6 14,12 20,19l88 -176 21 11c-36,73 -73,145 -109,218 -6,-7 -13,-13 -20,-19 -10,-7 -21,-13 -32,-19 -21,-11 -44,-18 -68,-20 -23,-2 -47,-1 -70,2 1,-3 3,-6 5,-9 8,-15 14,-30 20,-47 15,-1 30,0 45,1 24,2 47,9 68,20zm-118 -273c7,22 12,45 15,68 3,22 3,44 2,66l-2 -13c-3,-26 -9,-53 -19,-78 -9,-22 -19,-43 -32,-63l36 20z"/>
  </g>
 </g>
</svg>
