<svg xmlns="http://www.w3.org/2000/svg" width="1357.792" height="632.6"><defs><style>.b,.c,.d,.f,.j{fill:none}.b{stroke:#5374fc}.b,.d{stroke-linecap:round;stroke-linejoin:round}.b,.d,.f,.j{stroke-miterlimit:10}.b{stroke-width:3.6px}.d{stroke:#4080ff;stroke-width:3px}.e,.l{fill:#c5d9ff}.j{stroke-width:4px;stroke:#c5d9ff}.k,.l{stroke:none}</style></defs><g transform="translate(2)"><circle cx="7" cy="7" r="7" transform="translate(16)" fill="#5374fc"/><path class="b" d="M1297.414 467.414a6.416 6.416 0 016.234 6.234c.538 6.196 5.787 5.787 5.787 5.787"/><circle class="c" cx="4" cy="4" r="4" transform="translate(567 577)"/><circle class="d" cx="4" cy="4" r="4" transform="translate(567 577)"/><path class="b" d="M61.414 225.435a6.416 6.416 0 016.234-6.234c6.196-.538 5.787-5.787 5.787-5.787"/><path class="e" d="M177.016 64.026l-5.393-1.678 4.608-3.259-.069-5.642 4.522 3.375 5.347-1.812-1.811 5.348 3.376 4.524-5.645-.073-3.259 4.609z"/><g class="f"><path class="k" d="M1152.016 564.026l-5.393-1.678 4.608-3.259-.069-5.642 4.522 3.375 5.347-1.812-1.811 5.348 3.376 4.524-5.645-.073-3.259 4.609z"/><path class="l" d="M1154.752 562.721l.66-.933 1.143.014-.684-.916.367-1.082-1.082.367-.916-.684.014 1.143-.933.66 1.091.34.34 1.091m-1.06 6.695l-1.676-5.39-5.39-1.675 4.608-3.26-.072-5.644 4.524 3.376 5.345-1.813-1.812 5.346 3.376 4.524-5.645-.072-3.259 4.608z"/></g><g class="f"><path class="k" d="M1227.495 64.505l-5.393-1.678 4.608-3.259-.069-5.642 4.522 3.375 5.347-1.812-1.811 5.348 3.376 4.524-5.645-.073-3.259 4.609z"/><path class="l" d="M1230.23 63.2l.66-.933 1.144.014-.684-.916.367-1.082-1.082.367-.916-.684.014 1.143-.933.66 1.091.34.34 1.091m-1.06 6.695l-1.676-5.39-5.39-1.675 4.608-3.26-.072-5.644 4.524 3.376 5.345-1.813-1.812 5.346 3.376 4.524-5.645-.072-3.259 4.608z"/></g><path d="M385.197 99.974l2.475-2.474-2.475-2.475a2 2 0 012.828-2.829l2.475 2.475 2.475-2.475a2 2 0 012.828 2.829l-2.475 2.475 2.475 2.474a2 2 0 11-2.828 2.829l-2.475-2.475-2.475 2.475a2 2 0 11-2.828-2.829z" fill="#4080ff"/><path class="e" d="M356.98 19.963l1.473-2.102-2.102-1.473a1.467 1.467 0 111.685-2.403l2.101 1.473 1.473-2.102a1.467 1.467 0 112.403 1.685l-1.473 2.101 2.102 1.474a1.467 1.467 0 01-1.684 2.402l-2.102-1.473-1.474 2.102a1.467 1.467 0 01-2.402-1.684z"/><path class="c" d="M181.124 467.428c1.515-.948 2.351 1.066 2.351 1.066s.63 1.98 1.585 2.425 2.89-.398 2.89-.398a4.3 4.3 0 012.882-.22 4.133 4.133 0 011.644 2.33s.51 1.984 1.626 2.504 2.892-.397 2.892-.397a4.392 4.392 0 012.9-.212 4.116 4.116 0 011.635 2.327s.199 1.287.924 1.625"/><path class="d" d="M181.124 467.428c1.515-.948 2.351 1.066 2.351 1.066s.63 1.98 1.585 2.425 2.89-.398 2.89-.398a4.3 4.3 0 012.882-.22 4.133 4.133 0 011.644 2.33s.51 1.984 1.626 2.504 2.892-.397 2.892-.397a4.392 4.392 0 012.9-.212 4.116 4.116 0 011.635 2.327s.199 1.287.924 1.625"/><path d="M1290.634 260.502c.247-1.77 2.327-1.116 2.327-1.116s1.921.79 2.876.345 1.554-2.47 1.554-2.47a4.3 4.3 0 011.683-2.35 4.133 4.133 0 012.842.24s1.848.884 2.964.364 1.554-2.47 1.554-2.47a4.392 4.392 0 011.701-2.359 4.116 4.116 0 012.834.243s1.114.675 1.839.337" stroke-width="4" stroke-miterlimit="10" stroke-linecap="round" stroke-linejoin="round" stroke="#5374fc" fill="none"/><circle cx="8" cy="8" r="8" transform="translate(0 368)" opacity=".276" stroke-width="4" stroke="#4080ff" stroke-miterlimit="10" fill="none"/><circle class="j" cx="8" cy="8" r="8" transform="translate(1258 594)"/><path class="j" d="M1341.66 338.406l11.94 1.26-1.26 11.94-11.94-1.26z"/><path class="b" d="M1131.414 371.414a6.416 6.416 0 016.234 6.234c.538 6.196 5.787 5.787 5.787 5.787"/><path class="e" d="M240.016 265.026l-5.393-1.678 4.608-3.259-.069-5.642 4.522 3.375 5.347-1.812-1.811 5.348 3.376 4.524-5.645-.073-3.259 4.609zm744-236l-5.393-1.678 4.608-3.259-.069-5.642 4.522 3.375 5.347-1.812-1.811 5.348 3.376 4.524-5.645-.073-3.259 4.609zm-686 596l-5.393-1.678 4.608-3.259-.069-5.642 4.522 3.375 5.347-1.812-1.811 5.348 3.376 4.524-5.645-.073-3.259 4.609z"/></g></svg>