<svg xmlns="http://www.w3.org/2000/svg" viewBox="0 0 137.62 139.96"><defs><style>.cls-1{fill:#231f20}</style></defs><g id="Layer_2" data-name="Layer 2"><g id="Layer_1-2" data-name="Layer 1"><path class="cls-1" d="M129.78 21.51a12.81 12.81 0 00-8.17-10.86A13.31 13.31 0 00108.58 0H13.3A13.32 13.32 0 000 13.3h3.6a9.71 9.71 0 019.7-9.7h95.28a9.71 9.71 0 019.7 9.7v97.31a9.72 9.72 0 01-9.7 9.71H13.3a9.72 9.72 0 01-9.7-9.71H0a13.32 13.32 0 0010.34 13A12.75 12.75 0 0021.17 132a12.47 12.47 0 0011.62 8h92.34a12.5 12.5 0 0012.49-12.49V33.1a12.42 12.42 0 00-7.84-11.59zm-116.3 102.4h95.1a13.31 13.31 0 0013.3-13.3V13.79a10.06 10.06 0 015.2 8.81v96.7a10.06 10.06 0 01-10 10H22.4a10 10 0 01-8.92-5.39zm121.46 3.56a9.82 9.82 0 01-9.81 9.81H32.79a9.82 9.82 0 01-8.65-5.18H117a12.82 12.82 0 0012.8-12.8V24.52a9.72 9.72 0 015.11 8.58z"/><path class="cls-1" d="M18.83 82.81h12.45v2.61h-9.45v6.71h7.69v2.61h-7.69v6.9h10v2.61h-13zm16.17 0h3v11.72h2.16l4.19-5.65h3.34l-5.1 6.78v.06l5.68 8.53h-3.48L40.17 97H38v7.23h-3zm16.07 16.7a8.47 8.47 0 005.47 2.31c2 0 3.7-1.12 3.7-3.16 0-4.66-10.38-3.66-10.38-10.23 0-3.34 2.88-6 6.92-6a8.78 8.78 0 016.07 2.15l-1.36 2.49a7.59 7.59 0 00-4.71-1.85c-2.28 0-3.89 1.43-3.89 3.13 0 4.43 10.39 3.25 10.39 10.2 0 3.31-2.55 6-6.8 6a10 10 0 01-7.11-2.82zm15.85-8.04h-2V89.1H67v-4.44h2.85v4.44h3.71v2.37h-3.7v6.83c0 3.06 2.16 3.46 3.28 3.46a3.55 3.55 0 00.7-.06v2.61a8.05 8.05 0 01-1 .06c-2 0-5.89-.61-5.89-5.74zm16.24-2.95c4.34 0 6.65 3.22 6.65 7.2 0 .39-.09 1.27-.09 1.27H78.51a5 5 0 005.29 5.07 7.31 7.31 0 004.55-1.79l1.22 2.16a9.17 9.17 0 01-5.95 2.18 7.82 7.82 0 01-8.14-8c0-4.93 3.31-8.09 7.68-8.09zm3.64 6.26c-.09-2.65-1.73-3.92-3.7-3.92a4.39 4.39 0 00-4.49 3.92zm5.98-5.9h2.71v1.31a9.22 9.22 0 01-.07 1.12h.07a5.56 5.56 0 015.16-2.79c4.13 0 6.74 3.28 6.74 8s-3 8-7 8a5.33 5.33 0 01-4.7-2.52h-.06s.06.55.06 1.34v6.89h-3zm7.2 13.21c2.43 0 4.43-2 4.43-5.49 0-3.34-1.79-5.5-4.34-5.5-2.31 0-4.43 1.61-4.43 5.53 0 2.73 1.52 5.46 4.36 5.46zM3.6 107.23H0v-2.54h3.6zm0-7.62H0v-2.54h3.6zm0-7.61H0v-2.54h3.6zm0-7.62H0v-2.54h3.6zm0-7.62H0v-2.53h3.6zm0-7.61H0v-2.54h3.6zm0-7.62H0V59h3.6zm0-7.61H0v-2.54h3.6zm0-7.62H0v-2.54h3.6zm0-7.61H0v-2.54h3.6zm0-7.62H0v-2.54h3.6zm0-7.62H0v-2.53h3.6zm0-7.61H0V13.3h3.6z"/></g></g></svg>