<svg width="105" height="138" viewBox="0 0 105 138" fill="none" xmlns="http://www.w3.org/2000/svg">
<path d="M1 112L19.5 84C33.3721 100.25 56.0412 98.3363 61.3574 97.2962L61.5 97C77.5 93 79.5833 88 85 85L103.5 113.5H77L63 136.5L51.75 117.25L40.5 136.5L30 112H1Z" fill="#C4C4C4"/>
<path d="M61.5 97L51.75 117.25M61.5 97C77.5 93 79.5833 88 85 85L103.5 113.5H77L63 136.5L51.75 117.25M61.5 97C68.5 96.0929 37 104.5 19.5 84L1 112H30L40.5 136.5L51.75 117.25" stroke="white"/>
<circle cx="53" cy="50" r="49.5" fill="#C4C4C4" stroke="white"/>
</svg>
