<?xml version="1.0" encoding="UTF-8"?>
<!DOCTYPE svg PUBLIC "-//W3C//DTD SVG 1.1//EN" "http://www.w3.org/Graphics/SVG/1.1/DTD/svg11.dtd">
<!-- Creator: CorelDRAW X7 -->
<svg xmlns="http://www.w3.org/2000/svg" xml:space="preserve" width="484px" height="611px" version="1.1" style="shape-rendering:geometricPrecision; text-rendering:geometricPrecision; image-rendering:optimizeQuality; fill-rule:evenodd; clip-rule:evenodd"
viewBox="0 0 9575 12084"
 xmlns:xlink="http://www.w3.org/1999/xlink">
 <defs>
  <style type="text/css">
   <![CDATA[
    .fil3 {fill:none}
    .fil5 {fill:#70342D}
    .fil14 {fill:#C4491C}
    .fil21 {fill:#70342D;fill-rule:nonzero}
    .fil15 {fill:#7A1C09;fill-rule:nonzero}
    .fil18 {fill:#7A1C09;fill-rule:nonzero}
    .fil11 {fill:#F6DFB4;fill-rule:nonzero}
    .fil23 {fill:#FEFEFE;fill-rule:nonzero}
    .fil6 {fill:#FFEBBF;fill-rule:nonzero}
    .fil7 {fill:#FFF7EB;fill-rule:nonzero}
    .fil17 {fill:white;fill-rule:nonzero}
    .fil1 {fill:#FFF0D4;fill-rule:nonzero;fill-opacity:0.501961}
    .fil13 {fill:url(#id0)}
    .fil10 {fill:url(#id1)}
    .fil4 {fill:url(#id2)}
    .fil12 {fill:url(#id3)}
    .fil9 {fill:url(#id4)}
    .fil8 {fill:url(#id5)}
    .fil0 {fill:url(#id6)}
    .fil2 {fill:url(#id7)}
    .fil22 {fill:url(#id8)}
    .fil20 {fill:url(#id9)}
    .fil16 {fill:url(#id10);fill-rule:nonzero}
    .fil19 {fill:url(#id11);fill-rule:nonzero}
   ]]>
  </style>
  <linearGradient id="id0" gradientUnits="userSpaceOnUse" x1="4787.75" y1="2098.23" x2="4787.75" y2="7751.59">
   <stop offset="0" style="stop-opacity:1; stop-color:#F4D8BA"/>
   <stop offset="0.278431" style="stop-opacity:1; stop-color:#F28F1D"/>
   <stop offset="0.541176" style="stop-opacity:1; stop-color:#BF391B"/>
   <stop offset="1" style="stop-opacity:1; stop-color:#D9601F"/>
  </linearGradient>
  <linearGradient id="id1" gradientUnits="userSpaceOnUse" x1="4787.66" y1="2119.2" x2="4787.75" y2="8000.71">
   <stop offset="0" style="stop-opacity:1; stop-color:#F08B18"/>
   <stop offset="0.470588" style="stop-opacity:1; stop-color:#AB1916"/>
   <stop offset="1" style="stop-opacity:1; stop-color:#D95E1C"/>
  </linearGradient>
  <linearGradient id="id2" gradientUnits="userSpaceOnUse" x1="4805.57" y1="424.21" x2="4805.57" y2="9554.04">
   <stop offset="0" style="stop-opacity:1; stop-color:#FFD991"/>
   <stop offset="0.258824" style="stop-opacity:1; stop-color:#EC9A3E"/>
   <stop offset="0.611765" style="stop-opacity:1; stop-color:#A12224"/>
   <stop offset="1" style="stop-opacity:1; stop-color:#CF5A1B"/>
  </linearGradient>
  <linearGradient id="id3" gradientUnits="userSpaceOnUse" x1="4786.47" y1="8304.46" x2="4786.56" y2="4787.66">
   <stop offset="0" style="stop-opacity:1; stop-color:#F6DFB4"/>
   <stop offset="1" style="stop-opacity:1; stop-color:#BC3416"/>
  </linearGradient>
  <linearGradient id="id4" gradientUnits="userSpaceOnUse" x1="8924.1" y1="4009.32" x2="8928.82" y2="5373.27">
   <stop offset="0" style="stop-opacity:1; stop-color:#FCE0AB"/>
   <stop offset="1" style="stop-opacity:1; stop-color:#D15C1E"/>
  </linearGradient>
  <linearGradient id="id5" gradientUnits="userSpaceOnUse" xlink:href="#id4" x1="797.671" y1="4009.32" x2="802.388" y2="5373.27">
  </linearGradient>
  <linearGradient id="id6" gradientUnits="userSpaceOnUse" x1="7235.93" y1="8774.07" x2="4822.83" y2="9123.48">
   <stop offset="0" style="stop-opacity:1; stop-color:red"/>
   <stop offset="1" style="stop-opacity:1; stop-color:#B00205"/>
  </linearGradient>
  <linearGradient id="id7" gradientUnits="userSpaceOnUse" x1="2405.76" y1="9569.62" x2="4350.28" y2="8330.36">
   <stop offset="0" style="stop-opacity:1; stop-color:#B00205"/>
   <stop offset="1" style="stop-opacity:1; stop-color:red"/>
  </linearGradient>
  <linearGradient id="id8" gradientUnits="userSpaceOnUse" x1="3476.28" y1="5657.94" x2="3476.45" y2="3051.79">
   <stop offset="0" style="stop-opacity:1; stop-color:#E3A96A"/>
   <stop offset="1" style="stop-opacity:1; stop-color:#FCE0AB"/>
  </linearGradient>
  <linearGradient id="id9" gradientUnits="userSpaceOnUse" x1="5069.59" y1="2119.09" x2="5069.69" y2="7519.71">
   <stop offset="0" style="stop-opacity:1; stop-color:#FFF4DF"/>
   <stop offset="1" style="stop-opacity:1; stop-color:#D65B1E"/>
  </linearGradient>
  <linearGradient id="id10" gradientUnits="objectBoundingBox" x1="45.2859%" y1="50.2103%" x2="45.2859%" y2="0%">
   <stop offset="0" style="stop-opacity:1; stop-color:#F4D8BA"/>
   <stop offset="0.560784" style="stop-opacity:1; stop-color:#F9EBDC"/>
   <stop offset="1" style="stop-opacity:1; stop-color:white"/>
  </linearGradient>
  <radialGradient id="id11" gradientUnits="userSpaceOnUse" gradientTransform="matrix(0.0400302 1.26148 -1.18505 5.98437E-005 9677 -1544)" cx="4687.28" cy="4368.91" r="3735.49" fx="4687.28" fy="4368.91">
   <stop offset="0" style="stop-opacity:1; stop-color:#FEFEFE"/>
   <stop offset="0.878431" style="stop-opacity:1; stop-color:#F2D5B8"/>
   <stop offset="1" style="stop-opacity:1; stop-color:#E6AC73"/>
  </radialGradient>
 </defs>
 <g id="Layer_x0020_1">
  <metadata id="CorelCorpID_0Corel-Layer"/>
  <g id="_481763584">
   <g>
    <path class="fil0" d="M4728 9283l-456 94 -126 25 -85 18 -76 15 -37 8 -10 2 36 63 757 1315 694 1205c39,60 84,75 139,25l937 -1143c25,-47 62,-81 128,-87l1453 -242c95,-6 117,-54 67,-144l-880 -1552 -30 -52 -4 -8 -16 -28 -12 -21 -16 3 -125 25 -67 14 -43 9 -2228 456z"/>
    <path class="fil1" d="M6993 8891l36 -21 -41 -71 -36 21 41 71zm-2853 520l-36 21 41 71 36 -20 -41 -72zm82 143l-36 21 41 71 36 -20 -41 -72zm82 143l-36 21 41 71 36 -20 -41 -72zm82 143l-35 21 41 71 35 -20 -41 -72zm82 143l-35 20 41 72 35 -21 -41 -71zm83 143l-36 20 41 72 36 -21 -41 -71zm82 143l-36 20 41 72 36 -21 -41 -71zm82 143l-36 20 41 72 36 -21 -41 -71zm82 142l-36 21 41 71 36 -20 -41 -72zm82 143l-36 21 41 71 36 -20 -41 -72zm82 143l-36 21 41 71 36 -20 -41 -72zm82 143l-36 21 42 71 35 -20 -41 -72zm82 143l-35 21 41 71 35 -21 -41 -71zm82 143l-35 20 41 72 35 -21 -41 -71zm83 143l-36 20 41 72 36 -21 -41 -71zm82 143l-36 20 41 72 36 -21 -41 -71zm82 142l-36 21 41 71 36 -20 -41 -72zm50 120l32 26 52 -63 -31 -26 -53 63zm106 -126l31 26 53 -63 -32 -27 -52 64zm105 -127l32 26 53 -63 -32 -26 -53 63zm106 -126l31 26 53 -63 -31 -27 -53 64zm105 -127l32 26 53 -63 -32 -26 -53 63zm106 -126l32 26 52 -63 -31 -27 -53 64zm106 -127l31 26 53 -63 -32 -26 -52 63zm105 -126l32 26 53 -63 -32 -27 -53 64zm106 -127l31 26 53 -63 -31 -26 -53 63zm105 -126l6 5 15 26 79 -13 -7 -40 -86 13 -7 9zm175 -35l6 40 82 -13 -7 -40 -81 13zm162 -27l7 41 81 -13 -6 -41 -82 13zm163 -26l7 41 81 -13 -7 -41 -81 13zm163 -26l6 41 82 -13 -7 -41 -81 13zm163 -26l6 41 81 -13 -6 -41 -81 13zm162 -26l7 41 81 -13 -6 -41 -82 13zm163 -26l6 41 82 -13 -7 -41 -81 13zm163 -26l6 41 81 -13 -6 -41 -81 13zm134 -2l36 -20 -41 -72 -36 21 41 71zm-82 -142l35 -21 -41 -71 -36 20 42 72zm-83 -143l36 -20 -42 -72 -35 21 41 71zm-83 -142l36 -21 -41 -71 -36 20 41 72zm-82 -143l35 -21 -41 -71 -36 21 42 71zm-83 -143l36 -20 -42 -72 -35 21 41 71zm-83 -142l36 -21 -41 -71 -36 21 41 71zm-82 -143l35 -20 -41 -72 -36 21 42 71zm-83 -142l36 -21 -42 -71 -35 20 41 72zm-82 -143l35 -20 -41 -72 -36 21 42 71zm-83 -142l36 -21 -42 -71 -35 20 41 72z"/>
    <path class="fil2" d="M2254 8777c-314,553 -627,1107 -941,1661 -51,90 -29,138 67,144 484,81 968,161 1452,242 66,6 104,40 128,88 313,381 625,762 938,1143 54,49 100,35 139,-26 495,-861 991,-1722 1487,-2583 -1090,-223 -2180,-446 -3270,-669z"/>
    <path class="fil1" d="M2457 8870l-36 -21 41 -71 36 21 -41 71zm2853 520l36 21 -41 71 -36 -20 41 -72zm-82 143l36 21 -41 71 -36 -20 41 -72zm-82 143l36 21 -41 71 -36 -21 41 -71zm-82 143l35 20 -41 72 -35 -21 41 -71zm-82 143l35 20 -41 72 -35 -21 41 -71zm-82 143l35 20 -41 72 -36 -21 42 -71zm-83 143l36 20 -41 72 -36 -21 41 -71zm-82 142l36 21 -41 71 -36 -20 41 -72zm-82 143l36 21 -41 71 -36 -20 41 -72zm-82 143l36 21 -41 71 -36 -20 41 -72zm-82 143l36 21 -41 71 -36 -20 41 -72zm-82 143l36 20 -41 72 -36 -21 41 -71zm-82 143l35 20 -41 72 -35 -21 41 -71zm-82 143l35 20 -41 72 -35 -21 41 -71zm-83 143l36 20 -41 72 -36 -21 41 -71zm-82 142l36 21 -41 71 -36 -20 41 -72zm-82 143l36 21 -41 71 -36 -20 41 -72zm-50 120l-31 26 -53 -63 31 -26 53 63zm-105 -127l-32 27 -53 -63 32 -27 53 63zm-106 -126l-32 26 -52 -63 31 -26 53 63zm-106 -127l-31 27 -53 -63 32 -27 52 63zm-105 -126l-32 26 -53 -63 32 -26 53 63zm-106 -127l-32 27 -52 -63 31 -27 53 63zm-106 -126l-31 26 -53 -63 32 -26 52 63zm-105 -127l-32 27 -53 -63 32 -27 53 63zm-106 -126l-31 26 -53 -63 31 -26 53 63zm-105 -127l-6 6 -15 26 -79 -13 7 -41 86 14 7 8zm-175 -35l-6 41 -81 -13 6 -41 81 13zm-162 -26l-7 41 -81 -13 6 -41 82 13zm-163 -26l-7 41 -81 -13 7 -41 81 13zm-163 -26l-6 41 -82 -13 7 -41 81 13zm-163 -26l-6 41 -81 -13 6 -41 81 13zm-162 -26l-7 41 -81 -13 6 -41 82 13zm-163 -26l-6 41 -82 -13 7 -41 81 13zm-163 -26l-6 41 -81 -13 6 -41 81 13zm-134 -2l-36 -20 42 -72 35 21 -41 71zm83 -142l-36 -21 41 -71 36 20 -41 72zm82 -143l-35 -21 41 -71 35 21 -41 71zm83 -143l-36 -20 41 -72 36 21 -41 71zm82 -142l-35 -21 41 -71 36 21 -42 71zm83 -143l-36 -20 42 -72 35 21 -41 71zm83 -142l-36 -21 41 -71 36 20 -41 72zm82 -143l-35 -21 41 -71 36 21 -42 71zm83 -142l-36 -21 42 -71 35 20 -41 72zm83 -143l-36 -21 41 -71 36 21 -41 71zm82 -143l-35 -20 41 -71 35 20 -41 71z"/>
   </g>
   <g>
    <circle class="fil3" cx="4788" cy="4751" r="4751"/>
    <path class="fil4" d="M4788 0c2644,0 4787,2143 4787,4788 0,2644 -2143,4787 -4787,4787 -2645,0 -4788,-2143 -4788,-4787 0,-2645 2143,-4788 4788,-4788zm0 1306c1923,0 3482,1559 3482,3482 0,1923 -1559,3482 -3482,3482 -1923,0 -3482,-1559 -3482,-3482 0,-1923 1559,-3482 3482,-3482z"/>
    <path class="fil5" d="M828 5588c-26,-131 -46,-264 -59,-397 -13,-133 -19,-267 -19,-401 0,-134 6,-268 19,-401 13,-133 33,-266 59,-397 5,-21 -9,-42 -31,-46 -21,-5 -42,9 -46,31 -27,133 -47,268 -60,404 -14,136 -20,273 -20,409 0,137 6,273 20,409 13,136 33,271 60,404 4,22 25,36 46,32 22,-5 36,-26 31,-47z"/>
    <path class="fil6" d="M4788 60c1305,0 2487,529 3343,1385 855,855 1385,2037 1385,3343 0,1305 -530,2487 -1385,3343 -856,855 -2038,1385 -3343,1385 -1306,0 -2488,-530 -3343,-1385 -856,-856 -1385,-2038 -1385,-3343 0,-1306 529,-2488 1385,-3343 855,-856 2037,-1385 3343,-1385zm3314 1414c-848,-848 -2020,-1373 -3314,-1373 -1295,0 -2466,525 -3314,1373 -848,848 -1373,2019 -1373,3314 0,1294 525,2465 1373,3314 848,848 2019,1372 3314,1372 1294,0 2466,-524 3314,-1372 848,-849 1372,-2020 1372,-3314 0,-1295 -524,-2466 -1372,-3314z"/>
    <path class="fil7" d="M4788 131c1286,0 2450,521 3293,1364 842,842 1364,2007 1364,3293 0,1286 -522,2450 -1364,3293 -843,842 -2007,1364 -3293,1364 -1286,0 -2451,-522 -3293,-1364 -843,-843 -1364,-2007 -1364,-3293 0,-1286 521,-2451 1364,-3293 842,-843 2007,-1364 3293,-1364zm3264 1393c-836,-836 -1990,-1352 -3264,-1352 -1275,0 -2429,516 -3264,1352 -836,835 -1352,1989 -1352,3264 0,1274 516,2428 1352,3264 835,835 1989,1352 3264,1352 1274,0 2428,-517 3264,-1352 835,-836 1352,-1990 1352,-3264 0,-1275 -517,-2429 -1352,-3264z"/>
    <path class="fil5" d="M8803 3992c26,131 46,264 59,397 13,133 19,267 19,401 0,134 -6,268 -19,401 -13,134 -33,266 -59,397 -4,21 10,42 31,47 22,4 42,-10 47,-31 26,-134 46,-269 60,-405 13,-136 20,-272 20,-409 0,-136 -7,-273 -20,-409 -14,-136 -34,-271 -60,-404 -5,-22 -25,-36 -47,-31 -21,4 -35,25 -31,46z"/>
    <path class="fil8" d="M803 5586c-26,-132 -46,-264 -59,-397 -13,-133 -20,-267 -20,-401 0,-134 7,-268 20,-402 13,-133 33,-265 59,-396 4,-22 -10,-43 -31,-47 -22,-4 -42,10 -47,31 -26,134 -46,269 -60,405 -13,136 -20,272 -20,409 0,136 7,273 20,409 14,135 34,270 60,404 5,21 25,35 47,31 21,-4 35,-25 31,-46z"/>
    <path class="fil9" d="M8772 3990c27,131 46,263 59,396 14,134 20,268 20,402 0,134 -6,268 -20,401 -13,133 -32,265 -59,397 -4,21 10,42 31,46 22,4 43,-10 47,-31 27,-134 47,-269 60,-404 13,-136 20,-273 20,-409 0,-137 -7,-273 -20,-409 -13,-136 -33,-271 -60,-405 -4,-21 -25,-35 -47,-31 -21,4 -35,25 -31,47z"/>
    <circle class="fil10" cx="4788" cy="4788" r="3485"/>
    <path class="fil11" d="M7664 3663c-15,-38 -74,-29 -74,14 0,5 1,9 3,14 9,23 18,47 26,70 17,45 84,25 73,-22l-1 -4c-9,-24 -18,-48 -27,-72zm-5672 4c6,-17 1,-34 -14,-45 -21,-14 -47,-6 -57,17 -10,24 -19,48 -28,72 -15,39 37,72 66,36 2,-3 4,-6 6,-10 8,-23 17,-46 27,-70zm-119 357c12,-40 -45,-68 -69,-29 -2,4 -3,6 -4,10 -7,25 -13,50 -19,75 -10,46 58,67 74,19 6,-25 12,-50 18,-75zm-72 369c6,-46 -62,-62 -75,-14l-1 4c-3,26 -6,51 -9,77 -1,14 5,27 16,35 23,17 57,1 60,-27 3,-25 6,-50 9,-75zm-26 375c0,-40 -55,-54 -73,-16 -2,6 -3,10 -3,15 0,26 0,52 0,78 2,48 72,50 76,1 1,-26 0,-52 0,-78zm21 375c-6,-47 -76,-44 -76,6 2,26 7,54 11,80 1,8 5,17 12,22 27,24 68,2 63,-33 -4,-25 -7,-50 -10,-75zm68 370c-13,-48 -83,-32 -74,17 6,25 13,51 20,76 11,43 77,34 74,-13 0,-3 0,-5 -1,-8 -7,-24 -13,-48 -19,-72zm113 358c-14,-37 -71,-29 -73,13 0,5 0,10 2,15 10,24 19,48 29,71 8,18 27,28 45,22 22,-6 34,-30 25,-51 -9,-23 -19,-47 -28,-70zm157 342c-22,-41 -84,-14 -70,30 1,2 2,4 3,6 12,23 25,45 37,68 20,35 77,18 71,-26 -1,-5 -2,-8 -5,-12 -12,-19 -25,-46 -36,-66zm198 319c-23,-33 -78,-10 -68,32 1,5 3,8 6,13 15,21 30,41 45,62 28,36 84,2 65,-39 -1,-2 -2,-5 -4,-7 -15,-20 -30,-40 -44,-61zm236 293c-30,-32 -82,3 -62,44 2,3 4,5 6,8 17,18 35,37 53,56 32,32 84,-8 58,-49 -1,-1 -2,-3 -4,-4 -17,-18 -34,-37 -51,-55zm271 260c-25,-22 -66,-1 -63,32 1,11 6,20 14,27 19,16 39,33 59,49 18,14 44,10 56,-10 11,-16 7,-38 -8,-50 -20,-16 -39,-31 -58,-48zm301 225c-16,-11 -37,-8 -49,7 -15,17 -11,45 8,57 21,14 43,27 65,41 35,22 77,-22 49,-58 -3,-3 -6,-5 -9,-7 -22,-13 -43,-26 -64,-40zm327 185c-40,-19 -75,35 -40,64 2,2 5,3 7,5 23,11 47,22 70,32 43,19 75,-39 37,-66 -1,-1 -3,-2 -6,-3 -22,-10 -45,-21 -68,-32zm348 144c-44,-15 -71,46 -31,69 2,1 4,2 6,3 25,8 49,16 74,24 42,13 70,-47 29,-70 -2,-1 -4,-2 -7,-3 -24,-8 -47,-15 -71,-23zm362 99c-39,-9 -65,45 -27,70 4,2 7,3 12,5 25,5 50,10 76,14 44,8 64,-55 20,-73 -2,-1 -5,-1 -7,-2 -24,-4 -49,-9 -74,-14zm372 53c-43,-4 -58,60 -14,75 3,0 6,1 8,1 26,2 52,4 78,5 42,2 56,-57 15,-74 -4,-1 -8,-2 -12,-2 -25,-1 -50,-3 -75,-5zm376 6c-42,2 -50,63 -8,75 4,1 7,1 12,1 26,-1 51,-2 77,-4 46,-4 48,-72 -1,-76 -1,0 -3,0 -5,0 -25,2 -50,3 -75,4zm374 -41c-44,8 -41,74 6,76 2,0 5,0 7,-1 25,-4 51,-9 76,-14 48,-11 35,-81 -14,-75 -25,5 -50,10 -75,14zm366 -87c-46,15 -30,83 18,74 26,-6 53,-16 77,-24 39,-13 33,-72 -11,-74 -5,0 -8,0 -13,2 -24,7 -48,15 -71,22zm352 -131c-39,16 -25,77 20,72 4,0 7,-1 11,-3 23,-10 47,-21 70,-32 8,-4 15,-11 19,-20 13,-33 -21,-64 -52,-49 -23,11 -45,21 -68,32zm333 -175c-39,25 -11,83 32,69 3,-1 5,-2 7,-4 22,-13 44,-26 66,-40 34,-22 15,-76 -27,-70 -5,1 -10,3 -15,6 -21,13 -42,26 -63,39zm308 -214c-32,26 -5,80 38,66 4,-2 6,-4 10,-6 20,-16 40,-32 60,-49 11,-10 16,-25 12,-39 -8,-27 -40,-37 -61,-19 -20,16 -39,32 -59,47zm280 -251c-30,30 7,82 47,59 3,-2 5,-3 7,-6 18,-18 36,-37 54,-55 31,-35 -14,-84 -51,-57 -2,2 -3,3 -5,5 -17,18 -34,36 -52,54zm246 -284c-25,32 13,78 51,55 4,-3 7,-6 10,-9 15,-21 31,-41 46,-62 26,-39 -24,-81 -58,-50 -2,2 -3,4 -4,5 -15,21 -30,41 -45,61zm208 -313c-23,42 36,80 65,41 13,-22 26,-47 39,-70 21,-39 -32,-78 -63,-43 -1,2 -3,4 -4,6 -12,22 -24,44 -37,66zm168 -336c-17,39 36,73 65,38 2,-3 4,-5 5,-9 10,-23 20,-47 30,-71 16,-42 -41,-72 -67,-36 -2,3 -3,5 -4,8 -10,22 -19,47 -29,70zm125 -355c-4,17 2,34 17,43 21,13 50,2 57,-22 7,-25 13,-50 20,-75 10,-37 -39,-65 -67,-33 -3,5 -5,9 -7,15 -6,24 -13,48 -20,72zm80 -367c-5,41 47,60 70,26 3,-4 5,-9 5,-15 4,-25 8,-51 11,-76 6,-43 -54,-61 -73,-20 -1,4 -2,7 -2,10 -4,25 -7,50 -11,75zm34 -374c-2,40 54,54 72,17 3,-6 4,-10 4,-16 0,-25 1,-51 1,-77 0,-39 -53,-53 -72,-16 -3,5 -4,10 -4,16 0,25 -1,50 -1,76zm-14 -376c4,42 68,47 76,2 0,-3 0,-6 0,-10 -2,-25 -5,-51 -8,-76 -6,-46 -74,-44 -76,4 0,2 0,3 0,5 3,25 6,50 8,75zm-60 -371c10,45 79,36 75,-13l-1 -4c-5,-25 -11,-50 -18,-75 -12,-47 -83,-32 -74,17 6,25 13,50 18,75z"/>
    <path class="fil12" d="M4788 1291c965,0 1839,392 2472,1024 633,633 1024,1507 1024,2473 0,965 -391,1839 -1024,2472 -633,633 -1507,1024 -2472,1024 -966,0 -1840,-391 -2473,-1024 -632,-633 -1024,-1507 -1024,-2472 0,-966 392,-1840 1024,-2473 633,-632 1507,-1024 2473,-1024zm0 42c1908,0 3455,1546 3455,3455 0,1908 -1547,3455 -3455,3455 -1908,0 -3455,-1547 -3455,-3455 0,-1909 1547,-3455 3455,-3455z"/>
    <circle class="fil13" cx="4788" cy="4788" r="2689"/>
    <path class="fil14" d="M4788 1291c1929,0 3494,1561 3494,3486 0,14 -1,29 -1,43 -23,-1905 -1578,-3442 -3493,-3442 -1916,0 -3471,1537 -3494,3442 0,-14 0,-29 0,-43 0,-1925 1564,-3486 3494,-3486z"/>
   </g>
  </g>
  <path class="fil15" d="M1063 2944c24,11 43,28 55,49 13,21 18,47 18,78 25,-27 51,-44 79,-51 28,-6 57,-3 85,10 53,23 83,60 91,109 8,50 -4,111 -37,183 -4,10 -10,21 -16,33 -5,11 -12,23 -19,35 -7,11 -14,22 -22,33 -8,11 -16,21 -24,30 -21,23 -43,28 -67,18l-403 -183c-11,-5 -18,-11 -21,-19 -3,-8 -4,-18 -2,-29 2,-21 8,-45 16,-71 9,-26 20,-52 32,-79 30,-67 65,-113 104,-139 39,-26 83,-28 131,-7zm184 193c-22,-10 -43,-10 -63,0 -19,10 -36,30 -50,60l-43 96 138 63c7,-10 15,-21 22,-35 8,-15 15,-29 22,-43 15,-34 21,-63 18,-87 -4,-24 -18,-42 -44,-54zm-235 121l38 -84c14,-29 17,-54 12,-74 -6,-20 -19,-35 -41,-45 -43,-20 -80,4 -110,71 -7,14 -12,27 -16,40 -5,13 -8,24 -11,34l128 58zm564 -401c-2,5 -5,13 -9,22 -4,9 -9,19 -15,29 -13,19 -25,30 -37,34 -12,3 -27,-1 -44,-12l-421 -270c1,-5 4,-12 8,-22 4,-10 9,-19 15,-28 12,-18 23,-29 36,-34 12,-4 27,-1 45,11l150 96 122 -191 -191 -122c2,-5 5,-12 9,-22 4,-10 9,-19 15,-28 11,-18 23,-29 36,-33 12,-5 27,-1 45,10l421 270c-2,5 -4,13 -8,22 -4,9 -9,19 -15,29 -13,19 -25,30 -37,34 -12,3 -27,-1 -44,-12l-152 -97 -122 191 193 123zm393 -746l-133 154c13,19 26,40 39,61 13,22 24,40 33,54 -2,6 -5,12 -8,18 -3,7 -8,14 -15,22 -13,15 -27,25 -40,28 -14,3 -27,0 -38,-10 -5,-5 -10,-10 -14,-16 -4,-6 -8,-14 -13,-22 -10,-14 -21,-33 -34,-55 -12,-21 -26,-45 -41,-70 -15,-26 -31,-53 -46,-80 -16,-28 -31,-55 -45,-81 -15,-26 -29,-50 -41,-73 -12,-24 -23,-43 -32,-60 2,-9 6,-20 13,-35 7,-14 16,-27 26,-39 14,-16 29,-29 45,-38 16,-9 31,-11 45,-5 33,13 71,28 113,45 42,17 85,35 130,54 44,19 88,38 130,56 42,18 80,35 114,50 1,9 0,19 -4,30 -3,10 -10,21 -19,32 -14,16 -27,25 -38,27 -12,2 -25,-1 -40,-8l-87 -39zm-311 -136c7,14 16,30 26,47 10,17 21,35 31,53 11,19 22,38 33,57 11,19 22,37 33,56l103 -120 -223 -96 -3 3zm678 -145c28,-22 44,-43 48,-64 5,-21 1,-39 -12,-55 -12,-15 -26,-23 -43,-24 -17,-1 -38,4 -63,14l-57 21c-22,9 -44,15 -64,20 -20,4 -40,5 -58,4 -18,-2 -35,-7 -51,-15 -16,-9 -31,-22 -45,-40 -30,-39 -40,-81 -28,-126 11,-45 42,-88 92,-127 20,-16 40,-29 59,-39 19,-10 37,-17 54,-22 16,-4 31,-5 45,-2 13,3 23,9 31,19 8,9 12,19 13,30 1,10 -1,20 -4,30 -18,1 -38,6 -62,14 -23,9 -46,22 -68,40 -25,19 -40,38 -46,57 -6,19 -3,36 9,51 10,13 21,19 35,19 14,-1 33,-5 57,-14l51 -19c51,-20 96,-29 136,-25 39,3 74,23 102,60 16,19 26,40 31,62 5,23 5,45 0,68 -6,23 -17,46 -33,70 -17,23 -39,46 -66,67 -22,17 -44,31 -65,42 -21,10 -41,18 -60,22 -18,4 -34,4 -49,1 -14,-3 -25,-9 -33,-20 -9,-11 -13,-23 -13,-36 1,-12 3,-24 9,-35 20,2 43,-1 70,-8 26,-6 52,-20 78,-40zm436 -223c-4,4 -10,9 -18,16 -8,6 -16,12 -26,18 -20,11 -36,16 -49,13 -12,-2 -23,-12 -33,-30l-250 -434c4,-4 9,-9 18,-16 8,-6 17,-12 25,-18 19,-10 35,-15 48,-13 13,1 25,11 35,30l89 154 196 -112 -112 -197c3,-3 9,-8 17,-15 9,-7 17,-13 26,-18 19,-11 35,-16 48,-14 13,2 24,12 35,31l249 433c-4,4 -10,9 -17,16 -8,6 -17,13 -27,18 -20,12 -36,16 -48,13 -13,-2 -24,-12 -34,-29l-90 -157 -196 113 114 198zm695 -482l-189 75c2,23 4,47 6,73 1,25 3,46 4,62 -4,4 -10,9 -16,13 -5,4 -13,8 -23,12 -19,8 -35,10 -49,6 -13,-3 -23,-12 -29,-26 -2,-7 -4,-14 -4,-21 -1,-7 -2,-15 -2,-25 -2,-17 -3,-39 -4,-64 -2,-25 -3,-53 -5,-82 -1,-30 -2,-60 -3,-92 -1,-32 -2,-63 -3,-93 -1,-29 -2,-57 -2,-84 0,-26 -1,-48 -1,-67 6,-7 15,-15 28,-25 13,-9 26,-17 41,-23 20,-7 39,-12 58,-12 18,-1 32,5 42,16 23,26 50,57 79,92 29,35 59,71 90,108 31,37 60,74 90,110 29,36 55,68 78,97 -3,8 -9,16 -17,24 -8,9 -19,15 -33,21 -19,7 -35,9 -46,6 -11,-4 -21,-13 -32,-26l-58 -75zm-214 -264c1,16 1,34 2,53 1,20 2,41 3,62 1,22 2,43 3,65 1,22 2,44 3,65l147 -58 -154 -189 -4 2zm998 122c35,-4 60,-14 74,-29 15,-16 21,-34 18,-54 -2,-19 -10,-33 -24,-42 -14,-10 -35,-17 -62,-21l-59 -11c-24,-4 -46,-10 -65,-17 -20,-6 -37,-15 -52,-25 -15,-11 -27,-24 -36,-40 -9,-15 -16,-34 -19,-57 -6,-49 8,-90 41,-123 33,-33 81,-53 144,-61 26,-4 49,-5 71,-3 22,1 41,4 57,9 17,5 30,12 40,21 10,9 16,20 17,32 2,12 0,23 -4,32 -5,10 -11,18 -19,24 -16,-8 -36,-15 -60,-19 -25,-5 -51,-5 -79,-2 -32,4 -55,13 -69,26 -15,13 -21,29 -19,49 2,15 9,26 21,33 12,7 31,13 56,18l53 10c54,9 98,25 130,48 32,23 51,58 57,104 3,25 1,48 -6,70 -7,21 -19,40 -35,57 -17,17 -38,32 -64,43 -26,12 -57,20 -92,24 -27,4 -53,5 -76,3 -24,-2 -45,-6 -63,-12 -18,-6 -32,-14 -42,-24 -11,-10 -17,-21 -19,-34 -2,-14 1,-27 8,-37 6,-11 15,-20 25,-26 17,11 38,21 64,29 26,8 56,10 88,5zm678 -72l-203 -5c-7,22 -14,45 -23,69 -8,24 -14,44 -20,59 -6,2 -12,4 -19,6 -7,2 -16,2 -26,2 -21,0 -37,-5 -48,-13 -11,-9 -17,-21 -16,-36 0,-7 1,-14 3,-21 3,-7 5,-15 9,-24 5,-16 12,-37 21,-60 9,-24 18,-50 28,-78 10,-27 21,-56 33,-86 11,-29 22,-58 33,-86 11,-28 21,-54 31,-78 10,-24 19,-45 26,-62 8,-4 19,-8 35,-12 15,-4 31,-6 47,-5 21,0 40,4 57,11 18,6 29,17 33,31 11,33 24,72 37,115 14,44 27,89 41,135 13,46 27,92 39,136 13,45 24,85 34,120 -6,6 -14,12 -25,16 -11,4 -23,6 -38,6 -21,-1 -36,-5 -44,-13 -9,-7 -15,-19 -20,-36l-25 -91zm-93 -327c-6,15 -12,32 -19,50 -7,19 -14,38 -21,58 -8,20 -15,41 -23,61 -8,21 -15,41 -22,61l157 4 -67 -234 -5 0zm747 405c-7,4 -16,6 -26,7 -10,0 -21,-1 -33,-3 -16,-4 -28,-9 -37,-15 -10,-6 -15,-15 -17,-26 -11,-65 -19,-121 -26,-168 -6,-46 -11,-85 -14,-117l-5 -1c-11,39 -21,75 -30,107 -9,33 -18,65 -26,96 -9,31 -17,63 -26,95 -9,32 -19,66 -30,104 -6,0 -14,0 -23,0 -10,0 -19,-2 -29,-4 -40,-9 -56,-28 -49,-58 2,-9 6,-24 11,-43 6,-20 12,-43 20,-68 7,-26 15,-55 25,-85 9,-31 18,-62 28,-93 9,-32 19,-62 28,-93 10,-30 18,-58 26,-85 6,-4 16,-8 30,-12 14,-3 32,-2 51,2 23,6 40,13 52,24 12,11 20,25 23,44 4,20 7,42 11,66 3,23 7,48 10,73 4,25 7,49 11,73 3,24 6,47 10,68l3 1c33,-51 65,-100 97,-147 31,-47 59,-87 82,-120 8,-2 17,-2 29,-2 12,0 24,2 35,4 22,5 39,13 50,22 12,9 17,21 17,35 0,11 -1,30 -4,55 -3,25 -6,53 -10,85 -5,32 -9,66 -15,102 -5,36 -10,71 -15,104 -5,33 -10,64 -15,91 -4,28 -8,49 -11,64 -9,3 -17,5 -27,5 -9,1 -19,0 -32,-3 -15,-4 -28,-10 -38,-19 -10,-9 -13,-22 -11,-39 6,-38 13,-75 19,-111 7,-36 13,-70 19,-102 6,-32 12,-61 17,-88 5,-27 9,-51 13,-70l-4 -1c-16,25 -37,57 -63,96 -27,39 -60,89 -101,150zm688 241l-189 -75c-15,19 -30,38 -46,57 -15,20 -29,36 -39,49 -6,0 -13,0 -20,-1 -7,-1 -16,-3 -25,-7 -19,-7 -33,-17 -40,-29 -8,-12 -9,-25 -4,-39 3,-6 7,-13 11,-18 5,-6 10,-13 16,-20 11,-14 24,-30 41,-50 16,-19 34,-40 53,-62 19,-23 39,-46 60,-70 21,-24 41,-47 61,-70 19,-22 38,-43 56,-62 17,-20 33,-36 45,-50 9,-1 21,-1 37,1 16,1 31,5 46,11 20,8 37,18 51,30 14,12 20,26 20,41 -1,35 -3,75 -5,121 -3,45 -5,92 -9,140 -3,49 -6,96 -9,142 -3,46 -6,87 -9,124 -8,4 -18,6 -29,6 -12,1 -24,-2 -38,-7 -20,-8 -32,-17 -37,-27 -6,-10 -8,-24 -6,-41l8 -94zm24 -339c-10,12 -22,25 -35,40 -13,16 -26,31 -40,48 -14,16 -28,32 -42,49 -15,17 -28,33 -42,49l147 58 17 -243 -5 -1zm282 640c-5,-1 -12,-4 -22,-7 -9,-4 -19,-8 -29,-14 -20,-11 -32,-23 -36,-35 -4,-12 -1,-27 9,-44l227 -394c6,-10 13,-16 21,-19 8,-2 18,-2 29,0 20,4 42,12 67,22 24,11 48,23 72,37 69,40 113,84 131,133 18,48 13,97 -16,148 -19,33 -44,56 -76,71 -31,14 -66,19 -103,15 5,43 11,84 17,123 6,39 9,70 11,91 -12,11 -25,17 -40,19 -15,2 -29,-1 -41,-9 -17,-9 -27,-20 -31,-32 -5,-12 -8,-27 -9,-45l-12 -183 -73 -42 -96 165zm205 -209c30,17 57,24 83,21 26,-2 46,-17 61,-44 31,-53 11,-99 -60,-140 -11,-6 -21,-11 -31,-16 -11,-4 -20,-9 -29,-12l-89 154 65 37zm814 265c-1,6 -3,13 -6,21 -3,8 -7,16 -13,24 -10,12 -21,20 -32,22 -11,2 -22,-1 -32,-10l-99 -77 -280 356c-4,-2 -11,-5 -20,-10 -9,-5 -18,-11 -27,-17 -18,-15 -28,-28 -30,-41 -3,-12 2,-26 14,-42l251 -319 -120 -94c1,-6 3,-13 6,-21 2,-8 7,-15 13,-23 10,-13 21,-21 32,-22 11,-2 21,1 32,9l311 244zm-161 618c-4,-3 -11,-8 -18,-14 -8,-7 -16,-14 -24,-23 -15,-17 -22,-32 -22,-45 1,-12 8,-25 23,-38l379 -328c4,2 10,7 19,14 8,7 16,14 22,22 14,16 22,31 23,44 1,13 -7,26 -23,40l-135 117 148 171 172 -148c4,3 10,8 18,14 8,7 16,14 23,22 14,17 21,31 22,45 0,13 -7,26 -23,40l-378 327c-5,-3 -11,-8 -19,-14 -8,-6 -16,-14 -23,-23 -15,-17 -22,-32 -22,-44 0,-13 8,-26 23,-39l136 -118 -148 -171 -173 149zm598 596l-110 -171c-22,6 -45,13 -70,20 -24,6 -44,12 -60,16 -6,-3 -11,-8 -16,-13 -5,-5 -11,-11 -16,-20 -11,-17 -17,-33 -16,-47 1,-14 7,-25 20,-33 6,-4 13,-7 20,-9 7,-2 15,-4 24,-7 17,-5 38,-10 62,-16 25,-6 51,-13 80,-20 29,-7 59,-15 90,-22 31,-7 61,-13 90,-20 29,-7 56,-13 82,-18 25,-6 47,-10 66,-14 8,4 17,12 29,22 12,11 22,23 31,36 11,18 19,36 23,54 4,18 2,33 -7,45 -22,28 -47,60 -75,95 -29,36 -59,72 -89,109 -31,38 -61,74 -91,110 -29,35 -56,67 -80,95 -8,-2 -18,-6 -27,-12 -10,-6 -18,-16 -26,-28 -12,-18 -16,-32 -15,-44 2,-11 8,-23 19,-36l62 -72zm218 -261c-15,4 -33,8 -52,13 -19,5 -39,10 -60,15 -21,5 -42,10 -63,15 -22,5 -43,10 -63,15l85 133 156 -187 -3 -4zm68 595l-214 97c-4,-5 -9,-11 -14,-20 -6,-8 -11,-17 -16,-28 -9,-21 -12,-37 -8,-49 3,-12 14,-22 33,-31l457 -206c3,4 7,10 13,19 6,9 12,18 16,27 9,20 12,36 9,49 -3,13 -14,23 -33,32l-171 77 308 100c12,26 15,48 10,64 -5,17 -15,28 -29,35 -11,5 -23,7 -35,5 -11,-2 -26,-6 -42,-12l-202 -77c-25,63 -47,118 -67,167 -20,48 -36,88 -46,120 -19,8 -36,8 -51,1 -15,-6 -26,-18 -34,-34 -7,-16 -9,-31 -5,-46 3,-15 8,-30 15,-45l106 -245z"/>
  <path class="fil16" d="M1067 2918c25,11 43,28 55,49 12,21 18,47 17,78 25,-27 52,-44 80,-50 28,-7 57,-3 85,10 52,24 82,61 90,110 8,50 -5,110 -38,182 -5,11 -10,21 -16,33 -6,12 -13,23 -20,35 -6,11 -14,22 -22,33 -8,11 -16,21 -24,30 -21,22 -43,28 -67,17l-402 -185c-11,-5 -17,-11 -20,-19 -3,-9 -4,-18 -3,-29 3,-22 8,-46 17,-71 9,-26 20,-53 32,-80 31,-66 66,-112 105,-138 40,-25 83,-27 131,-5zm183 194c-22,-10 -43,-10 -63,-1 -20,10 -36,30 -50,59l-44 97 137 63c8,-9 15,-21 23,-35 8,-14 15,-28 22,-42 15,-34 21,-63 18,-87 -3,-24 -17,-42 -43,-54zm-235 119l38 -83c14,-30 18,-55 12,-75 -5,-20 -18,-35 -40,-45 -43,-20 -80,4 -111,71 -6,13 -12,27 -16,39 -5,13 -8,24 -11,34l128 59z"/>
  <path id="1" class="fil16" d="M1575 2831c-2,5 -5,13 -9,22 -4,9 -9,19 -15,29 -12,19 -24,30 -37,34 -12,3 -26,-1 -43,-11l-423 -268c2,-5 4,-12 9,-22 4,-10 8,-19 14,-28 12,-18 23,-30 36,-34 12,-5 27,-1 45,10l150 95 121 -191 -191 -121c2,-5 5,-12 9,-22 4,-10 9,-19 14,-28 12,-18 24,-30 36,-34 12,-4 28,-1 45,11l423 267c-2,5 -5,13 -9,22 -3,10 -9,19 -15,29 -12,19 -24,31 -36,34 -12,3 -27,0 -44,-11l-152 -96 -121 191 193 122z"/>
  <path id="2" class="fil16" d="M1969 2086l-133 153c13,20 26,40 39,62 13,21 24,39 33,53 -2,6 -5,12 -8,19 -3,6 -8,13 -15,21 -13,16 -27,25 -40,28 -14,4 -27,0 -38,-10 -5,-4 -10,-10 -14,-16 -4,-6 -8,-13 -13,-21 -10,-15 -21,-33 -34,-55 -12,-22 -26,-45 -41,-71 -15,-25 -31,-52 -46,-80 -15,-28 -31,-54 -45,-80 -15,-26 -28,-51 -41,-74 -12,-23 -23,-43 -32,-59 2,-9 7,-20 13,-35 7,-14 16,-27 26,-39 14,-16 29,-29 45,-38 17,-9 32,-11 45,-5 33,13 71,27 113,45 42,17 85,35 130,54 44,19 87,37 130,56 42,18 80,35 114,49 1,9 0,19 -4,30 -3,11 -10,22 -19,33 -14,16 -27,25 -38,27 -12,1 -25,-1 -41,-9l-86 -38zm-311 -136c8,14 17,30 27,47 10,17 20,35 31,53 10,19 21,37 32,56 11,19 22,38 33,56l103 -119 -223 -96 -3 3z"/>
  <path id="3" class="fil16" d="M2336 1804c27,-22 43,-43 48,-64 4,-20 0,-39 -13,-55 -11,-15 -26,-22 -42,-23 -17,-1 -38,3 -64,13l-56 22c-23,8 -44,15 -64,19 -21,5 -40,6 -58,5 -18,-2 -35,-7 -51,-15 -16,-9 -31,-22 -45,-40 -31,-38 -40,-80 -29,-126 11,-45 42,-87 92,-127 20,-16 40,-29 59,-39 19,-10 37,-17 54,-21 16,-5 31,-6 44,-3 14,3 24,9 32,19 7,9 12,19 13,30 1,10 -1,20 -4,30 -18,1 -38,6 -62,14 -23,9 -46,22 -68,40 -25,19 -40,38 -46,57 -6,19 -3,36 9,51 10,13 22,19 36,18 14,0 33,-4 56,-13l51 -19c51,-20 96,-29 136,-25 39,3 74,23 102,59 16,20 26,40 31,63 5,22 5,44 0,67 -5,23 -16,46 -33,70 -16,23 -38,46 -66,67 -22,18 -43,32 -64,42 -22,11 -42,18 -60,22 -18,4 -34,5 -49,2 -14,-3 -25,-10 -33,-20 -9,-11 -13,-23 -13,-36 0,-13 3,-25 9,-35 20,1 43,-2 69,-8 27,-7 53,-20 79,-41z"/>
  <path id="4" class="fil16" d="M2772 1582c-4,4 -10,9 -18,15 -8,7 -17,13 -26,19 -20,11 -36,15 -49,13 -12,-3 -23,-13 -33,-30l-249 -435c4,-3 10,-8 18,-15 8,-7 17,-13 26,-18 18,-11 34,-15 47,-14 13,2 25,12 35,30l89 155 196 -112 -112 -197c3,-3 9,-8 17,-15 9,-7 17,-13 26,-18 19,-11 35,-15 48,-13 13,2 25,12 35,30l248 434c-4,4 -10,9 -17,15 -8,7 -17,13 -27,19 -20,11 -36,15 -48,13 -12,-3 -24,-13 -34,-30l-89 -157 -196 113 113 198z"/>
  <path id="5" class="fil16" d="M3469 1102l-190 73c2,24 4,48 5,73 2,25 3,46 5,63 -5,4 -10,8 -16,12 -6,5 -14,8 -23,12 -20,8 -36,10 -50,6 -13,-4 -23,-12 -28,-26 -3,-7 -4,-14 -5,-21 0,-8 -1,-16 -1,-26 -2,-17 -3,-38 -4,-64 -1,-25 -2,-52 -4,-82 -1,-29 -2,-60 -2,-92 -1,-32 -2,-62 -2,-92 -1,-30 -2,-58 -2,-84 0,-26 0,-49 0,-68 6,-6 15,-15 28,-24 13,-9 27,-17 41,-23 20,-7 39,-11 58,-11 19,-1 33,5 42,16 23,27 50,57 79,93 29,34 58,71 88,108 31,38 60,75 89,111 29,36 55,69 77,97 -3,9 -9,17 -17,25 -8,8 -19,15 -33,20 -19,7 -35,9 -45,5 -11,-4 -22,-12 -32,-26l-58 -75zm-211 -266c0,16 1,34 1,54 1,20 2,40 3,62 1,21 1,43 2,65 1,22 1,43 3,64l147 -56 -152 -191 -4 2z"/>
  <path id="6" class="fil16" d="M4251 957c35,-5 59,-15 74,-30 14,-16 20,-34 17,-54 -2,-19 -10,-33 -24,-42 -14,-10 -35,-16 -61,-21l-60 -10c-24,-5 -46,-10 -65,-17 -20,-6 -38,-15 -52,-25 -15,-11 -27,-24 -36,-39 -10,-16 -16,-35 -19,-58 -6,-48 7,-89 40,-122 33,-34 81,-54 144,-63 25,-3 49,-4 71,-3 22,1 41,4 57,9 17,5 30,12 40,21 10,9 16,20 17,32 2,12 0,23 -4,32 -5,10 -11,18 -18,24 -16,-8 -37,-14 -61,-19 -25,-4 -51,-4 -79,-1 -31,4 -54,13 -69,26 -15,13 -21,29 -18,49 2,15 9,26 21,33 12,7 31,13 56,18l53 9c54,9 97,25 130,48 32,23 51,58 57,104 3,25 1,48 -6,69 -6,22 -18,41 -34,59 -17,17 -38,31 -64,43 -26,11 -57,19 -92,24 -27,3 -53,4 -76,3 -24,-2 -45,-6 -63,-12 -18,-6 -32,-14 -43,-24 -10,-9 -17,-21 -18,-34 -2,-14 0,-26 7,-37 7,-11 15,-20 26,-26 16,11 38,21 64,29 26,7 55,9 88,5z"/>
  <path id="7" class="fil16" d="M4930 888l-203 -6c-7,22 -15,45 -23,69 -9,23 -15,43 -21,59 -6,2 -13,4 -20,5 -6,2 -15,3 -25,2 -21,0 -37,-5 -48,-14 -11,-8 -16,-20 -16,-35 0,-7 2,-14 4,-21 2,-7 5,-15 8,-24 6,-17 13,-37 22,-60 9,-24 19,-50 29,-77 10,-28 21,-57 33,-86 12,-30 23,-58 34,-86 11,-28 22,-54 32,-78 10,-24 19,-45 26,-62 8,-4 20,-8 35,-11 16,-4 32,-6 47,-5 21,1 41,4 58,11 17,7 28,18 32,32 11,33 23,72 36,116 13,43 26,88 40,135 13,46 26,91 38,136 12,45 23,85 33,120 -6,6 -15,12 -25,16 -11,4 -24,6 -38,5 -21,0 -36,-5 -45,-13 -8,-7 -15,-20 -19,-36l-24 -92zm-90 -327c-6,15 -13,32 -20,50 -7,19 -14,38 -21,58 -8,20 -16,40 -24,61 -8,20 -15,40 -23,60l158 5 -66 -234 -4 0z"/>
  <path id="8" class="fil16" d="M5583 964c-7,3 -16,5 -26,6 -10,1 -21,0 -34,-3 -15,-4 -27,-9 -37,-15 -9,-6 -15,-15 -16,-25 -11,-66 -19,-122 -26,-168 -6,-46 -11,-86 -14,-118l-5 -1c-11,39 -21,75 -30,108 -9,32 -18,64 -26,95 -9,31 -17,63 -26,95 -9,32 -19,67 -30,104 -6,0 -14,0 -23,0 -10,0 -19,-2 -29,-4 -40,-9 -56,-28 -49,-58 2,-9 6,-23 11,-43 5,-19 12,-42 20,-68 7,-26 15,-54 25,-85 9,-31 18,-62 28,-93 9,-31 19,-62 28,-92 9,-31 18,-59 26,-85 6,-5 16,-9 30,-12 14,-3 31,-3 51,2 23,5 40,13 52,24 12,10 20,25 23,43 3,20 7,42 10,66 4,24 7,48 11,73 4,25 7,50 10,74 4,24 7,46 10,68l4 0c33,-50 65,-99 96,-147 32,-47 60,-87 82,-119 8,-2 18,-3 30,-3 12,1 23,2 35,5 22,5 39,12 50,21 11,10 17,21 17,35 0,12 -2,30 -4,55 -3,25 -6,54 -11,86 -4,32 -9,66 -14,102 -5,35 -10,70 -15,103 -6,34 -10,64 -15,91 -4,28 -8,49 -11,65 -9,3 -18,4 -27,5 -9,0 -20,-1 -32,-4 -15,-4 -28,-10 -38,-18 -10,-9 -14,-22 -11,-40 6,-37 13,-74 19,-110 7,-36 13,-70 19,-102 6,-32 12,-62 17,-89 5,-27 9,-50 13,-70l-4 -1c-16,26 -37,58 -64,97 -26,39 -59,89 -100,150z"/>
  <path id="9" class="fil16" d="M6270 1201l-189 -73c-14,19 -29,38 -45,58 -15,19 -28,36 -39,49 -6,0 -13,-1 -20,-1 -7,-1 -16,-3 -25,-7 -19,-8 -33,-17 -40,-29 -8,-12 -9,-25 -4,-39 3,-6 6,-13 11,-18 4,-6 9,-13 16,-20 10,-14 23,-31 40,-50 16,-19 33,-40 52,-63 19,-23 39,-46 60,-70 21,-24 41,-48 60,-70 20,-23 38,-44 56,-63 17,-20 32,-36 45,-50 9,-1 21,-1 37,0 16,2 31,6 46,11 19,8 36,18 50,30 14,12 21,26 21,41 -1,35 -2,75 -4,121 -2,45 -5,92 -8,140 -2,48 -5,95 -8,142 -3,46 -6,87 -8,124 -8,4 -18,6 -30,6 -11,1 -23,-2 -37,-7 -20,-8 -32,-17 -38,-27 -5,-10 -7,-23 -6,-40l7 -95zm23 -339c-11,13 -22,26 -35,41 -13,15 -26,31 -40,48 -13,16 -27,33 -42,49 -14,17 -28,34 -41,50l147 57 15 -243 -4 -2z"/>
  <path id="10" class="fil16" d="M6578 1506c-6,-2 -13,-4 -23,-8 -9,-3 -19,-8 -29,-14 -20,-11 -32,-23 -36,-35 -4,-12 -1,-26 9,-44l227 -394c6,-10 13,-16 21,-18 8,-2 18,-3 29,0 20,4 43,11 67,22 24,11 48,23 72,37 69,39 113,84 131,132 18,48 13,98 -16,148 -19,33 -44,57 -76,71 -31,15 -66,19 -104,15 6,43 12,84 18,124 6,39 9,69 11,90 -12,11 -25,18 -40,19 -15,2 -29,-1 -41,-8 -17,-9 -27,-20 -31,-33 -5,-12 -8,-27 -9,-44l-12 -184 -73 -42 -95 166zm204 -210c30,17 57,24 83,22 25,-3 46,-18 61,-44 31,-53 11,-100 -60,-141 -11,-6 -21,-11 -31,-16 -11,-4 -20,-8 -29,-12l-89 154 65 37z"/>
  <path id="11" class="fil16" d="M7595 1564c0,6 -2,13 -5,21 -3,8 -7,16 -13,23 -10,13 -21,21 -32,22 -11,2 -22,-1 -33,-9l-98 -77 -280 354c-5,-2 -12,-5 -21,-10 -9,-5 -18,-11 -27,-18 -18,-14 -28,-27 -30,-40 -2,-13 3,-27 15,-42l251 -318 -119 -94c1,-6 3,-13 6,-21 2,-8 7,-15 13,-23 10,-13 21,-21 32,-22 11,-2 21,1 32,9l309 245z"/>
  <path id="12" class="fil16" d="M7435 2180c-5,-4 -11,-9 -19,-15 -8,-6 -15,-14 -23,-22 -15,-18 -22,-33 -22,-45 0,-13 8,-26 23,-39l379 -327c4,3 10,8 19,15 8,6 15,14 22,21 14,17 22,31 23,44 0,13 -7,27 -23,40l-135 117 148 171 171 -148c4,3 10,8 18,15 9,7 16,14 23,22 14,16 22,31 22,44 1,13 -7,27 -23,40l-378 327c-5,-3 -11,-8 -19,-15 -8,-6 -15,-13 -23,-22 -15,-18 -22,-33 -22,-45 0,-13 8,-25 23,-39l136 -117 -148 -171 -172 149z"/>
  <path id="13" class="fil16" d="M8031 2777l-108 -171c-23,6 -46,12 -71,19 -24,6 -44,12 -60,16 -5,-4 -11,-8 -16,-13 -5,-5 -10,-12 -16,-20 -11,-18 -16,-34 -15,-48 1,-14 7,-25 20,-33 6,-4 13,-7 20,-8 7,-2 15,-4 24,-7 17,-5 38,-10 62,-16 25,-6 51,-12 80,-19 29,-7 59,-14 90,-21 31,-7 61,-13 90,-20 29,-6 57,-12 82,-17 26,-6 48,-10 66,-14 8,5 18,12 30,23 11,11 21,23 30,36 11,18 19,36 23,54 4,18 1,33 -8,45 -22,28 -47,59 -76,94 -28,36 -58,72 -89,109 -31,37 -61,73 -91,108 -30,36 -57,67 -81,95 -9,-1 -18,-6 -27,-12 -10,-6 -18,-16 -26,-28 -11,-18 -16,-33 -15,-44 2,-12 9,-24 20,-37l62 -71zm220 -259c-16,4 -33,8 -52,13 -19,4 -39,9 -60,14 -21,5 -42,10 -64,15 -21,5 -42,10 -62,15l84 133 156 -186 -2 -4z"/>
  <path id="14" class="fil16" d="M8319 3108l-213 97c-4,-4 -9,-10 -15,-19 -5,-8 -10,-18 -15,-28 -9,-21 -13,-37 -9,-49 4,-12 15,-22 33,-31l456 -208c3,3 7,10 13,19 6,9 12,18 16,27 9,20 12,36 9,48 -3,13 -14,24 -33,33l-170 77 308 98c12,27 16,48 11,65 -5,16 -15,28 -29,34 -11,6 -23,8 -35,6 -11,-2 -26,-6 -42,-12l-203 -76c-24,63 -46,119 -66,167 -19,48 -35,89 -45,121 -18,7 -35,8 -51,1 -15,-6 -26,-17 -34,-33 -7,-16 -9,-32 -5,-47 3,-15 8,-30 14,-45l105 -245z"/>
  <path class="fil17" d="M1063 2919c24,11 43,27 55,48 13,21 18,47 18,78 25,-27 51,-44 79,-50 28,-7 57,-4 85,9 53,24 83,60 91,110 2,14 3,28 2,44 0,-6 -1,-13 -2,-19 -8,-49 -38,-86 -91,-109 -28,-13 -57,-16 -85,-10 -28,7 -54,24 -79,51 0,-31 -5,-57 -18,-78 -12,-21 -31,-38 -55,-49 -48,-21 -92,-19 -131,7 -39,26 -74,72 -104,139 -12,27 -23,53 -32,79 -8,24 -13,46 -16,67 -1,-7 -1,-14 0,-22 2,-21 8,-45 16,-71 9,-26 20,-52 32,-79 30,-67 65,-113 104,-139 39,-26 83,-28 131,-6zm37 353l129 58c7,-9 15,-21 22,-35 8,-14 15,-28 22,-43 10,-22 16,-42 18,-60 3,24 -3,53 -18,86 -7,14 -14,28 -22,43 -7,14 -15,25 -22,35l-138 -63 9 -21zm-88 -40l38 -83c7,-16 12,-30 13,-43 4,19 -1,42 -13,68l-38 84 -128 -58c2,-7 4,-14 7,-23l121 55zm564 -401c-2,5 -5,12 -9,21l-184 -118 12 -18 181 115zm-518 -192l-8 -5c1,-4 4,-12 8,-22 4,-9 9,-19 15,-27 12,-19 23,-30 36,-34 12,-5 27,-1 45,10l150 96 110 -172 12 7 -122 191 -150 -96c-18,-12 -33,-15 -45,-11 -13,5 -24,16 -36,34 -6,9 -11,18 -15,28l0 1zm185 -289l-8 -6c2,-4 5,-12 9,-22 4,-9 9,-19 15,-27 11,-19 23,-30 36,-34 12,-4 27,-1 45,11l421 270c-1,5 -4,11 -8,20l-413 -265c-18,-11 -33,-15 -45,-10 -13,4 -25,15 -36,33 -6,9 -11,18 -15,28l-1 2zm603 -96c9,15 19,30 29,47 13,21 24,39 33,53 -2,5 -4,10 -6,15l-27 -43c-13,-21 -26,-42 -39,-61l10 -11zm-300 -289l-5 -10c2,-8 6,-20 13,-34 7,-15 16,-28 26,-40 14,-16 29,-28 45,-37 16,-9 31,-11 45,-6 33,13 71,28 113,45 42,17 85,36 130,54 44,19 88,38 130,56 42,19 80,35 114,50 1,8 0,16 -2,25 -33,-15 -71,-31 -112,-49 -42,-18 -86,-37 -130,-56 -45,-19 -88,-37 -130,-54 -42,-17 -80,-32 -113,-45 -14,-6 -29,-4 -45,5 -16,9 -31,22 -45,38 -10,12 -19,25 -26,39 -3,7 -6,13 -8,19zm127 12l11 19c10,17 21,35 31,54 11,18 22,37 33,56 11,19 22,38 33,56l87 -101 16 7 -103 120c-11,-19 -22,-37 -33,-56 -11,-19 -22,-38 -33,-57 -10,-18 -21,-36 -31,-53 -10,-17 -19,-33 -26,-47l3 -3 12 5zm663 -173c28,-22 44,-43 48,-64l1 -2c2,9 2,18 -1,28 -4,21 -20,42 -48,64 -26,20 -52,34 -78,40 -27,7 -50,10 -70,8 -4,7 -6,15 -7,22 -1,-4 -2,-8 -2,-12 1,-13 3,-25 9,-35 20,1 43,-2 70,-8 26,-7 52,-20 78,-41zm-377 -216c-2,-16 -1,-32 4,-49 11,-45 42,-87 92,-127 20,-16 40,-29 59,-39 19,-10 37,-17 54,-21 16,-5 31,-5 45,-3 13,3 23,9 31,19 8,10 12,20 13,30 0,7 0,14 -1,20 -2,-8 -6,-16 -12,-24 -8,-10 -18,-16 -31,-19 -14,-3 -29,-2 -45,2 -17,5 -35,12 -54,22 -19,10 -39,23 -59,39 -50,39 -81,82 -92,127 -2,8 -4,16 -4,23zm116 -18c2,7 6,14 11,21 10,12 21,18 35,18 14,0 33,-5 57,-14l51 -19c51,-20 96,-28 136,-25 39,4 74,24 102,60 16,20 26,41 31,63 3,15 5,30 3,45 0,-6 -2,-13 -3,-20 -5,-22 -15,-43 -31,-62 -28,-37 -63,-57 -102,-60 -40,-4 -85,5 -136,25l-51 19c-24,9 -43,13 -57,14 -14,0 -25,-6 -35,-19 -11,-13 -15,-29 -11,-46zm697 11l-10 9 -104 -181 11 -6 103 178zm-366 -400l-10 -17c4,-3 9,-8 18,-15 8,-7 17,-13 25,-18 19,-11 35,-16 48,-14 13,2 25,12 35,30l89 155 185 -107 11 20 -196 112 -89 -154c-10,-19 -22,-29 -35,-30 -13,-2 -29,3 -48,13 -8,6 -17,12 -25,18l-8 7zm298 -172l-9 -17c3,-3 9,-8 17,-15 9,-7 17,-13 26,-18 19,-11 35,-15 48,-13 13,2 24,12 35,30l249 434c-2,2 -5,5 -9,8l-240 -416c-11,-19 -22,-29 -35,-31 -13,-2 -29,3 -48,14 -9,5 -17,11 -26,18l-8 6zm576 190c1,16 2,32 4,48 1,25 3,46 4,62l-2 2 -2 -38c-2,-26 -4,-50 -6,-73l2 -1zm-132 -387l-1 -26c6,-7 15,-15 28,-24 13,-10 26,-18 41,-23 20,-8 39,-12 58,-13 18,0 32,5 42,16 23,27 50,57 79,92 29,35 59,71 90,108 31,38 60,74 90,110 29,36 55,68 78,97 -2,5 -5,10 -9,15 -21,-26 -44,-55 -69,-86 -30,-36 -59,-73 -90,-110 -31,-37 -61,-73 -90,-108 -29,-35 -56,-66 -79,-92 -10,-11 -24,-17 -42,-16 -19,0 -38,5 -58,12 -15,6 -28,14 -41,23 -13,10 -22,18 -27,25zm106 48l1 29c1,20 2,40 3,61 1,22 2,44 3,66 1,22 2,43 3,64l131 -51 16 19 -147 58c-1,-21 -2,-43 -3,-65 -1,-22 -2,-43 -3,-65 -1,-21 -2,-42 -3,-62 -1,-19 -1,-37 -2,-53l1 -1zm997 98c35,-5 60,-15 74,-30 9,-10 15,-21 18,-32l0 4c3,20 -3,38 -18,54 -14,15 -39,25 -74,29 -32,5 -62,3 -88,-5 -26,-8 -47,-18 -64,-29 -10,6 -19,15 -25,26 -4,5 -6,10 -7,16 -1,-2 -1,-3 -1,-5 -2,-14 1,-26 8,-37 6,-11 15,-20 25,-26 17,11 38,21 64,29 26,8 56,10 88,6zm-225 -306c-4,-45 10,-82 41,-113 33,-34 81,-54 144,-62 26,-3 49,-4 71,-3 22,1 41,4 57,9 17,5 30,12 40,21 10,9 16,20 17,32 1,8 1,15 -1,22 -2,-11 -7,-20 -16,-28 -10,-9 -23,-16 -40,-21 -16,-5 -35,-8 -57,-9 -22,-2 -45,-1 -71,3 -63,8 -111,28 -144,61 -25,25 -39,54 -41,88zm121 -1c3,13 10,23 20,29 12,7 31,13 56,17l53 10c54,9 98,25 130,48 32,24 51,58 57,105 1,12 2,23 1,35 0,-3 -1,-7 -1,-10 -6,-46 -25,-81 -57,-104 -32,-23 -76,-39 -130,-48l-53 -10c-25,-5 -44,-11 -56,-18 -12,-7 -19,-18 -21,-33 -1,-8 -1,-14 1,-21zm428 330c-1,-4 -1,-9 -1,-13 0,-8 1,-15 3,-22 3,-6 5,-14 9,-23 5,-17 12,-37 21,-61 9,-24 18,-49 28,-77 10,-28 21,-57 33,-86 11,-30 22,-59 33,-87 11,-28 21,-54 31,-78 10,-24 19,-45 26,-62 8,-4 19,-8 35,-12 15,-4 31,-5 47,-5 21,0 40,4 57,11 18,7 29,17 33,31 11,34 24,72 37,116 14,43 27,88 41,135 13,46 27,91 39,136 13,44 24,84 34,119 -1,2 -3,4 -5,5l-29 -99c-12,-44 -26,-90 -39,-136 -14,-46 -27,-91 -41,-135 -13,-43 -26,-82 -37,-115 -4,-14 -15,-25 -33,-31 -17,-7 -36,-11 -57,-11 -16,-1 -32,1 -47,5 -16,4 -27,8 -35,12 -7,17 -16,38 -26,62 -10,24 -20,50 -31,78 -11,28 -22,57 -33,86 -12,30 -23,59 -33,86 -10,28 -19,54 -28,78 -9,23 -16,44 -21,60 -4,9 -6,17 -9,24 -1,3 -1,6 -2,9zm185 -193l141 4 7 26 -157 -4 9 -26zm452 217c-2,-7 -2,-16 0,-25 2,-9 6,-23 11,-43 6,-20 12,-42 20,-68 7,-26 15,-54 25,-85 9,-31 18,-62 28,-93 9,-31 19,-62 28,-93 10,-30 18,-58 26,-84 6,-5 16,-9 30,-12 14,-4 32,-3 51,2 23,5 40,13 52,23 12,11 20,26 23,44 4,20 7,42 11,66 3,24 7,48 10,73 4,25 7,50 11,74 3,24 6,46 10,67l3 1c33,-50 65,-99 97,-147 31,-47 59,-87 82,-119 8,-2 17,-3 29,-3 12,0 24,2 35,5 22,5 39,12 50,21 12,10 17,21 17,35 0,5 0,10 0,17 -2,-10 -8,-19 -17,-26 -11,-9 -28,-17 -50,-22 -11,-2 -23,-4 -35,-4 -12,0 -21,0 -29,2 -23,33 -51,73 -82,120 -32,47 -64,96 -97,147l-3 -1c-4,-21 -7,-44 -10,-68 -4,-24 -7,-48 -11,-73 -3,-25 -7,-50 -10,-73 -4,-24 -7,-46 -11,-66 -3,-19 -11,-33 -23,-44 -12,-11 -29,-18 -52,-24 -19,-4 -37,-5 -51,-2 -14,4 -24,8 -30,12 -8,27 -16,55 -26,85 -9,31 -19,61 -28,93 -10,31 -19,62 -28,93 -10,30 -18,59 -25,85 -8,25 -14,48 -20,68 -5,18 -9,32 -11,42zm472 107c-2,-7 -2,-14 -1,-23 6,-37 13,-74 19,-110 7,-36 13,-70 19,-102 6,-32 12,-62 17,-89l8 -44 1 -1 4 1c-4,19 -8,43 -13,70 -5,27 -11,56 -17,88 -6,32 -12,66 -19,102 -6,35 -12,71 -18,108zm223 77c-3,-9 -3,-19 1,-29 3,-7 7,-13 11,-19 5,-6 10,-12 16,-20 11,-14 24,-30 41,-49 16,-20 34,-40 53,-63 19,-23 39,-46 60,-70 21,-24 41,-47 61,-69 19,-23 38,-44 56,-63 17,-19 33,-36 45,-50 9,-1 21,-1 37,1 16,2 31,6 46,11 20,8 37,18 51,30 14,13 20,26 20,41l-1 17c-2,-11 -8,-22 -19,-32 -14,-12 -31,-22 -51,-30 -15,-6 -30,-10 -46,-11 -16,-2 -28,-2 -37,-1 -12,14 -28,30 -45,50 -18,19 -37,40 -56,62 -20,23 -40,46 -61,70 -21,24 -41,47 -60,70 -19,22 -37,43 -53,62 -17,20 -30,36 -41,50 -6,7 -11,14 -16,20 -4,5 -8,12 -11,18l-1 4zm356 132c-1,-7 -1,-14 0,-23l6 -69 2 1 -8 91zm-111 -263l131 51 15 -217 2 0 -17 243 -147 -58 16 -19zm339 392l-1 -1c-4,-12 -1,-26 9,-44l227 -394c6,-10 13,-16 21,-18 8,-3 18,-3 29,0 20,4 42,11 67,22 24,10 48,23 72,37 69,39 113,83 131,132 8,23 12,46 10,69 -1,-15 -5,-29 -10,-43 -18,-49 -62,-93 -131,-133 -24,-14 -48,-26 -72,-37 -25,-10 -47,-18 -67,-22 -11,-2 -21,-2 -29,0 -8,3 -15,9 -21,19l-227 394c-4,7 -7,13 -8,19zm363 -6c5,34 9,66 14,98 6,39 9,69 11,90l-2 2c-2,-18 -5,-40 -9,-67 -6,-39 -12,-80 -17,-123l3 0zm-72 -148c30,17 57,24 83,22 26,-3 46,-18 61,-44 7,-12 11,-23 13,-34 3,19 -1,39 -13,59 -15,27 -35,42 -61,44 -26,3 -53,-4 -83,-21l-65 -37 11 -20 54 31zm814 266c-1,5 -3,12 -6,20l0 1 -305 -240c-11,-8 -21,-11 -32,-9 -11,1 -22,9 -32,22 -6,8 -11,15 -13,23l-6 -4c1,-7 3,-14 6,-21 2,-8 7,-16 13,-24 10,-13 21,-20 32,-22 11,-2 21,1 32,10l311 244zm-538 274c0,-2 -1,-4 -1,-6 -3,-13 2,-27 14,-43l238 -302 13 9 -251 319c-6,8 -10,16 -13,23zm316 275c-2,-5 -3,-9 -3,-13 1,-13 8,-26 23,-39l379 -328c4,3 10,8 19,14 8,7 16,14 22,22 14,17 22,31 23,44 0,5 -1,10 -3,14 -3,-10 -10,-20 -20,-32 -6,-8 -14,-15 -22,-22 -9,-7 -15,-12 -19,-14l-379 328c-10,9 -17,18 -20,26zm318 -128l135 156 172 -148c4,3 10,8 18,15 8,6 16,14 23,21 14,17 21,32 22,45 0,4 -1,9 -2,13 -4,-10 -10,-20 -20,-32 -7,-8 -15,-15 -23,-22 -8,-6 -14,-11 -18,-14l-172 148 -148 -171 13 -11zm-93 389c-1,-5 -2,-10 -2,-14 0,-13 8,-26 23,-39l123 -107 13 15 -136 118c-11,9 -17,18 -21,27zm148 204c-2,-5 -2,-11 -2,-16 1,-14 7,-25 20,-33 6,-4 13,-7 20,-9 7,-2 15,-4 24,-6 17,-5 38,-11 62,-17 25,-6 51,-13 80,-20 29,-7 59,-14 90,-21 31,-7 61,-14 90,-21 29,-7 56,-13 82,-18 25,-5 47,-10 66,-14 8,5 17,12 29,23 12,10 22,22 31,36 11,17 19,35 23,54 2,10 3,20 1,28l-1 -3c-4,-18 -12,-36 -23,-54 -9,-13 -19,-25 -31,-36 -12,-10 -21,-18 -29,-22 -19,4 -41,8 -66,14 -26,5 -53,11 -82,18 -29,7 -59,13 -90,20 -31,7 -61,15 -90,22 -29,7 -55,14 -80,20 -24,6 -45,11 -62,16 -9,3 -17,5 -24,7 -7,2 -14,5 -20,9 -9,6 -16,14 -18,23zm207 325c-2,-6 -3,-12 -2,-18 2,-11 8,-23 19,-36l52 -61 10 15 -62 72c-8,10 -14,19 -17,28zm73 -306l71 110 134 -160 19 -5 3 4 -156 187 -85 -133 14 -3zm40 539c-2,-10 -2,-18 0,-25 3,-12 14,-22 33,-30l457 -207c3,4 7,11 13,19 6,9 12,18 16,28 9,20 12,36 9,48l-1 2c-1,-7 -4,-16 -8,-25 -4,-9 -10,-18 -16,-27 -6,-9 -10,-15 -13,-19l-457 206c-18,9 -29,18 -33,30zm358 -47l274 89c11,24 15,44 11,60 -1,-10 -5,-22 -11,-34l-308 -100 34 -15zm-228 340c-1,-9 -1,-18 1,-28 3,-14 8,-30 15,-45l92 -213 14 -6 -106 245c-7,15 -12,30 -15,45l-1 2z"/>
  <path class="fil3" d="M4788 1872c1610,0 2915,1306 2915,2916 0,1610 -1305,2915 -2915,2915 -1610,0 -2916,-1305 -2916,-2915 0,-1610 1306,-2916 2916,-2916z"/>
  <path class="fil6" d="M3777 1835c6,16 8,31 4,46 -4,15 -13,30 -27,44 23,-2 43,3 58,12 16,10 27,24 35,43 13,34 10,64 -8,90 -19,26 -51,48 -98,66 -7,3 -14,5 -22,8 -8,2 -16,5 -24,7 -9,2 -17,4 -25,5 -9,2 -17,3 -25,3 -19,1 -32,-6 -38,-22l-101 -263c-3,-6 -3,-12 -1,-17 2,-5 6,-10 12,-15 11,-8 24,-17 39,-24 16,-8 32,-16 50,-22 43,-17 80,-23 109,-17 29,6 50,24 62,56zm-2 169c-6,-14 -15,-23 -29,-28 -13,-4 -30,-3 -49,5l-63 24 35 90c7,-1 16,-3 26,-6 9,-3 19,-6 28,-9 22,-9 38,-19 47,-32 10,-12 11,-27 5,-44zm-161 -50l55 -21c19,-7 32,-17 38,-28 7,-12 7,-25 2,-39 -11,-28 -38,-34 -82,-17 -9,4 -17,7 -25,11 -8,4 -14,7 -20,11l32 83z"/>
  <path id="1" class="fil6" d="M4022 2029c-3,1 -8,3 -14,6 -6,2 -12,4 -19,6 -15,3 -25,3 -32,-1 -7,-4 -12,-12 -15,-25l-71 -310c3,-2 7,-4 14,-6 6,-3 12,-5 19,-6 13,-3 24,-3 31,0 7,4 13,12 16,25l25 111 140 -33 -32 -140c3,-1 8,-3 14,-6 6,-3 13,-5 19,-6 14,-3 24,-3 32,1 7,3 12,12 15,25l71 310c-3,1 -7,3 -13,6 -6,2 -13,4 -20,6 -14,3 -25,3 -32,-1 -7,-4 -12,-12 -15,-24l-25 -112 -141 32 33 142z"/>
  <path id="2" class="fil6" d="M4506 1857l-129 16c-2,15 -4,30 -7,46 -3,16 -5,29 -7,40 -4,2 -8,3 -12,5 -4,2 -9,3 -16,4 -13,2 -23,0 -31,-4 -8,-4 -13,-11 -14,-20 -1,-5 0,-9 0,-14 1,-5 2,-10 3,-16 2,-11 4,-24 7,-40 4,-16 7,-33 10,-51 4,-19 8,-38 12,-58 5,-20 9,-39 13,-57 4,-19 8,-36 12,-52 4,-17 7,-31 10,-42 4,-3 11,-7 21,-11 9,-4 19,-7 28,-8 14,-2 26,-1 38,1 11,3 19,8 24,17 10,20 21,43 34,69 13,26 26,53 39,80 13,28 26,55 38,82 13,27 24,51 34,72 -4,4 -8,9 -15,12 -6,4 -14,7 -23,8 -13,2 -23,0 -29,-4 -6,-4 -11,-11 -16,-20l-24 -55zm-91 -197c-3,10 -5,21 -7,34 -3,12 -5,25 -8,38 -3,14 -6,27 -8,41 -3,14 -6,27 -9,40l100 -13 -66 -140 -2 0z"/>
  <path id="3" class="fil6" d="M4772 1874c22,0 38,-5 48,-14 10,-9 15,-20 15,-33 -1,-12 -5,-21 -13,-28 -8,-7 -21,-13 -38,-17l-37 -11c-14,-4 -28,-9 -40,-14 -12,-5 -22,-12 -31,-20 -9,-7 -16,-16 -20,-27 -5,-10 -8,-23 -8,-37 -1,-31 10,-56 32,-75 23,-19 55,-29 96,-30 16,-1 31,0 45,2 13,2 25,5 35,9 10,5 18,10 24,16 6,7 9,14 9,22 0,7 -1,14 -5,20 -3,5 -8,10 -13,14 -9,-7 -22,-12 -37,-16 -15,-4 -32,-6 -50,-6 -20,1 -35,5 -45,12 -10,8 -15,17 -15,30 0,10 4,17 11,22 8,5 19,10 35,15l33 9c33,9 60,22 79,39 19,17 29,40 29,69 1,16 -2,31 -8,44 -5,13 -14,25 -25,34 -12,10 -26,18 -43,24 -18,5 -38,8 -60,9 -17,1 -34,0 -49,-3 -15,-3 -27,-6 -38,-11 -11,-5 -20,-11 -26,-18 -6,-7 -9,-15 -10,-23 0,-9 3,-17 8,-23 5,-7 11,-11 17,-15 10,8 23,16 39,22 16,7 34,10 56,9z"/>
  <path id="4" class="fil6" d="M5056 1939c-4,0 -9,0 -15,1 -7,0 -14,0 -21,-1 -14,-2 -24,-6 -29,-12 -6,-7 -7,-16 -6,-28l42 -316c4,-1 9,-1 15,-1 7,0 14,0 20,1 14,2 24,5 30,11 5,6 7,16 6,29l-15 112 142 19 19 -142c4,-1 9,-1 15,-1 7,0 14,0 20,1 14,1 24,5 30,11 5,6 7,16 6,29l-42 316c-4,0 -9,0 -15,1 -7,0 -14,0 -21,-1 -14,-2 -24,-6 -29,-12 -6,-7 -7,-16 -6,-28l15 -114 -142 -19 -19 144z"/>
  <path id="5" class="fil6" d="M5398 1997c-14,-3 -24,-8 -29,-15 -4,-6 -5,-16 -2,-28l71 -311c4,0 9,0 15,1 7,0 14,1 20,2 13,4 23,8 28,15 5,6 6,16 3,29l-71 310c-4,0 -9,0 -15,0 -7,0 -13,-1 -20,-3z"/>
  <path id="6" class="fil6" d="M5556 2032c-13,-5 -22,-10 -26,-17 -4,-7 -4,-16 0,-28l97 -291c6,-4 13,-6 22,-6 9,-1 18,1 27,4 12,4 21,9 29,16 7,7 13,18 16,32l31 168c3,15 6,31 8,48 2,16 3,31 5,44l2 0c5,-22 11,-43 17,-64 7,-20 13,-40 19,-60l42 -124c3,0 8,1 14,2 6,1 13,3 19,5 13,4 22,10 26,17 4,7 4,16 0,27l-98 296c-5,3 -12,4 -20,4 -9,-1 -18,-3 -28,-6 -11,-4 -20,-9 -28,-16 -7,-6 -13,-17 -16,-31l-31 -168c-3,-16 -6,-31 -8,-48 -2,-17 -3,-32 -5,-45l-3 -1c-5,21 -11,42 -17,63 -7,22 -13,42 -19,61l-42 124c-3,0 -7,-1 -14,-2 -6,0 -12,-2 -19,-4z"/>
  <path id="7" class="fil6" d="M5920 2165c-13,-6 -22,-12 -25,-20 -3,-7 -2,-17 3,-28l133 -290c4,1 9,2 15,4 7,2 13,4 19,6 12,6 21,13 24,20 4,7 3,17 -2,29l-134 290c-3,-1 -8,-2 -14,-4 -7,-1 -13,-4 -19,-7z"/>
  <path class="fil18" d="M1446 6933c-18,11 -37,15 -55,13 -19,-1 -38,-9 -57,-24 6,28 4,52 -4,73 -9,21 -23,37 -44,49 -39,23 -75,25 -110,8 -35,-17 -68,-52 -98,-105 -5,-7 -9,-16 -14,-25 -5,-9 -9,-18 -13,-27 -4,-10 -8,-19 -11,-29 -4,-10 -7,-20 -9,-29 -4,-23 2,-40 19,-50l296 -172c8,-4 15,-6 21,-4 7,2 13,5 20,11 12,11 25,26 37,43 12,17 24,35 36,55 28,49 42,91 41,128 -2,36 -20,65 -55,85zm-204 30c16,-10 26,-23 28,-40 3,-17 -2,-36 -15,-58l-41 -71 -101 59c2,9 6,19 12,30 5,11 11,22 17,33 14,24 30,41 46,50 17,9 35,8 54,-3zm29 -202l36 61c13,22 26,35 42,41 15,5 30,4 46,-6 32,-18 33,-52 5,-101 -6,-10 -12,-20 -18,-28 -6,-9 -12,-16 -17,-22l-94 55zm82 585c-3,-2 -8,-6 -14,-11 -6,-5 -12,-12 -17,-18 -11,-14 -16,-26 -16,-36 1,-10 7,-19 19,-29l275 -219c7,-5 14,-8 21,-7 6,1 13,4 21,8 13,9 27,20 41,35 14,15 28,30 41,47 39,48 58,92 57,132 -1,40 -19,74 -54,102 -23,18 -48,28 -74,30 -27,1 -53,-5 -79,-19 -8,33 -16,64 -23,94 -7,29 -13,52 -17,68 -12,5 -24,5 -35,2 -11,-3 -20,-9 -27,-17 -9,-12 -13,-23 -13,-33 0,-10 3,-21 7,-34l43 -136 -40 -51 -116 92zm206 -92c17,21 35,34 54,39 19,5 38,1 57,-14 36,-30 35,-69 -4,-118 -6,-8 -12,-14 -18,-20 -6,-7 -12,-12 -17,-18l-107 86 35 45zm510 562c-25,26 -51,46 -78,59 -27,12 -54,19 -81,20 -27,0 -53,-5 -78,-16 -26,-11 -49,-27 -71,-48 -22,-21 -39,-44 -52,-69 -12,-25 -18,-51 -19,-78 0,-27 5,-54 17,-82 11,-27 30,-54 55,-81 25,-26 51,-45 78,-58 28,-12 55,-19 82,-19 26,0 53,5 78,16 25,11 49,27 70,47 22,21 39,44 51,69 12,24 18,50 19,77 1,27 -5,54 -16,82 -11,28 -29,55 -55,81zm-67 -64c34,-36 52,-70 53,-103 2,-34 -10,-63 -36,-88 -26,-25 -56,-36 -89,-33 -33,4 -66,23 -100,58 -34,36 -52,70 -54,103 -2,33 10,62 37,87 26,26 56,37 89,33 33,-3 66,-22 100,-57zm108 385c-14,-10 -22,-19 -24,-29 -3,-9 1,-19 9,-32l217 -303c8,-3 17,-3 28,0 10,3 20,8 30,15 12,8 21,18 27,29 6,11 9,25 7,43l-23 206c-2,19 -5,38 -8,58 -4,20 -7,37 -11,53l3 1c14,-23 28,-46 43,-68 14,-21 29,-42 44,-63l92 -129c3,1 9,4 16,7 7,4 13,8 20,13 14,10 22,19 24,29 2,9 -1,20 -9,32l-220 308c-7,1 -15,0 -25,-3 -9,-4 -19,-9 -30,-17 -11,-8 -20,-17 -27,-28 -6,-10 -9,-25 -7,-42l23 -207c2,-18 5,-38 9,-58 3,-20 7,-38 10,-54l-4 -1c-13,22 -27,44 -42,67 -15,22 -30,43 -44,63l-92 129c-4,-1 -9,-3 -16,-7 -7,-3 -14,-7 -20,-12zm445 300c-2,-7 -3,-16 -3,-24 1,-9 4,-18 9,-26 5,-8 11,-15 19,-20 9,-6 18,-11 27,-15l296 -119 -176 -102c0,-5 0,-11 2,-17 1,-6 3,-13 7,-20 7,-11 14,-18 23,-21 8,-2 17,-1 26,4l232 134c7,19 5,36 -4,53 -5,8 -11,15 -19,20 -7,5 -16,10 -26,14l-296 120 184 106c0,5 -1,11 -2,17 -1,6 -3,13 -7,20 -7,11 -14,18 -22,21 -8,2 -17,1 -26,-4l-244 -141zm500 260c-14,-6 -24,-14 -28,-26 -5,-11 -5,-24 1,-37l122 -306c6,-14 14,-23 25,-28 12,-5 24,-5 38,1l215 86c1,5 1,10 1,16 -1,7 -2,13 -5,20 -5,11 -11,19 -18,23 -8,4 -16,4 -26,1l-157 -63 -37 92 159 63c1,5 1,10 1,16 -1,6 -2,13 -5,20 -9,23 -24,31 -44,23l-138 -55 -40 101 181 72c0,4 1,10 0,16 0,7 -2,14 -5,21 -9,23 -24,31 -43,23l-197 -79zm1094 -67c-2,9 -6,17 -12,22 -6,6 -13,10 -20,13 -10,-10 -23,-20 -36,-29 -13,-9 -31,-16 -53,-20 -39,-7 -72,0 -100,21 -28,21 -46,55 -55,103 -9,49 -4,87 16,116 19,29 49,47 89,54 22,4 40,5 57,2 16,-3 31,-7 44,-13 6,6 10,12 13,20 3,8 4,16 2,26 -2,7 -5,14 -10,20 -6,5 -13,10 -24,13 -10,4 -24,7 -42,9 -17,1 -39,0 -63,-5 -31,-5 -58,-15 -82,-29 -25,-13 -45,-31 -61,-53 -16,-22 -27,-47 -33,-77 -6,-29 -5,-63 2,-100 6,-36 18,-66 34,-92 16,-25 35,-45 58,-60 22,-15 47,-25 74,-30 27,-5 55,-5 84,0 20,4 37,9 53,15 15,7 28,14 38,22 11,8 18,17 23,26 4,9 6,17 4,26zm544 209c-3,36 -10,68 -23,95 -13,27 -30,50 -50,67 -20,17 -44,30 -71,37 -26,8 -55,11 -85,8 -30,-2 -58,-9 -84,-20 -25,-12 -46,-28 -64,-48 -17,-20 -30,-45 -39,-74 -8,-28 -11,-61 -8,-97 2,-37 10,-68 23,-95 13,-27 30,-49 51,-66 20,-18 44,-30 70,-38 27,-7 55,-10 85,-8 30,2 57,9 82,21 25,11 47,27 64,48 18,20 31,44 40,73 9,28 12,61 9,97zm-93 -7c4,-48 -4,-86 -24,-113 -19,-27 -48,-42 -84,-45 -36,-3 -65,8 -89,31 -23,24 -37,60 -41,109 -4,49 4,87 24,113 19,27 47,42 84,45 36,2 66,-8 89,-31 24,-24 38,-60 41,-109zm328 215c-17,2 -29,-1 -37,-6 -7,-6 -11,-16 -13,-31l-28 -372c5,-7 12,-13 22,-18 9,-4 20,-7 32,-8 15,-1 28,1 40,5 12,4 22,14 32,28l115 174c10,16 21,32 31,50 10,17 18,33 26,47l3 -1c-5,-27 -8,-54 -11,-79 -2,-26 -5,-52 -7,-77l-12 -158c4,-1 10,-3 17,-5 8,-1 15,-3 23,-3 18,-2 30,1 38,6 7,6 12,16 13,31l29 377c-5,6 -12,10 -21,14 -10,4 -21,6 -34,7 -14,1 -27,-1 -39,-5 -11,-4 -22,-13 -32,-28l-115 -173c-10,-16 -20,-32 -30,-50 -10,-18 -19,-34 -27,-48l-4 1c4,25 8,52 11,78 2,27 5,53 6,77l12 159c-3,1 -9,3 -16,4 -7,2 -15,4 -24,4zm735 -539c3,3 6,7 10,13 3,6 6,12 7,20 3,12 2,22 -2,29 -4,8 -11,13 -21,15l-94 22 78 341c-3,2 -8,5 -16,8 -7,3 -15,5 -23,7 -17,4 -30,4 -39,-1 -9,-4 -15,-14 -19,-29l-70 -305 -115 26c-3,-3 -6,-8 -10,-13 -3,-6 -6,-12 -7,-19 -3,-13 -2,-23 2,-31 4,-7 11,-12 21,-14l298 -69zm374 336c-4,2 -9,5 -16,9 -7,4 -15,7 -23,10 -17,5 -30,6 -39,2 -9,-4 -16,-13 -20,-28l-110 -334c-3,-8 -3,-15 0,-21 3,-6 8,-12 15,-17 13,-10 28,-19 47,-27 19,-8 38,-16 59,-22 58,-20 106,-22 143,-7 38,14 63,43 77,85 9,28 10,55 2,80 -8,26 -23,48 -45,68 28,19 55,36 80,53 26,17 45,31 58,41 0,12 -3,23 -10,33 -7,9 -15,16 -26,19 -14,5 -25,5 -35,1 -9,-4 -19,-10 -29,-18l-113 -88 -61 21 46 140zm-16 -226c26,-8 44,-20 56,-36 11,-17 14,-36 6,-58 -15,-45 -52,-58 -112,-38 -9,3 -17,6 -25,10 -8,3 -15,7 -22,10l43 130 54 -18zm480 51c-16,7 -29,9 -39,6 -9,-3 -17,-11 -23,-25l-160 -353c4,-3 9,-6 15,-11 7,-4 14,-8 21,-11 15,-7 28,-10 38,-7 9,2 18,10 24,25l160 353c-4,3 -8,6 -15,11 -6,4 -13,8 -21,12zm363 -557c10,18 15,36 13,55 -2,19 -10,38 -24,57 28,-6 52,-5 73,4 20,9 37,23 49,44 22,39 25,75 8,110 -17,35 -52,67 -105,98 -8,5 -16,9 -25,14 -9,4 -18,9 -28,13 -9,4 -19,8 -29,11 -10,4 -19,6 -28,8 -23,5 -40,-1 -50,-18l-172 -296c-5,-8 -6,-15 -4,-21 1,-7 5,-13 11,-20 11,-12 25,-25 42,-37 17,-13 36,-25 56,-36 48,-28 91,-42 127,-41 37,1 65,20 86,55zm29 204c-9,-16 -22,-26 -39,-28 -17,-3 -37,2 -58,15l-71 41 59 101c9,-2 19,-6 30,-12 11,-5 22,-11 32,-17 25,-14 42,-30 50,-47 9,-16 8,-34 -3,-53zm-202 -30l62 -35c21,-13 35,-27 41,-42 5,-15 3,-30 -6,-46 -18,-32 -52,-34 -102,-5 -10,6 -19,12 -28,18 -8,6 -15,12 -21,17l54 93zm660 -124c-22,17 -44,30 -66,37 -22,8 -43,11 -64,9 -21,-1 -40,-8 -59,-18 -19,-11 -35,-26 -51,-45l-170 -214c2,-3 6,-8 11,-14 6,-6 12,-12 18,-17 13,-10 25,-16 34,-16 10,0 20,7 30,19l146 183c18,23 38,35 61,37 22,3 44,-4 63,-20 20,-16 31,-35 34,-57 3,-23 -4,-45 -23,-68l-168 -212c3,-3 7,-8 12,-14 6,-6 11,-11 17,-16 14,-11 25,-16 35,-16 10,-1 20,6 30,19l148 185c15,19 26,39 32,59 6,21 8,42 5,62 -4,21 -11,41 -24,61 -12,20 -29,38 -51,56zm202 -778c5,1 10,3 16,6 6,2 12,6 17,12 9,8 14,17 15,26 0,8 -3,17 -10,24l-67 70 253 242c-2,3 -5,8 -10,15 -4,7 -9,13 -15,19 -12,13 -23,20 -33,21 -10,1 -21,-4 -32,-15l-226 -217 -81 85c-5,-1 -10,-3 -16,-5 -6,-3 -11,-7 -17,-12 -9,-9 -14,-18 -15,-27 0,-8 3,-16 10,-24l211 -220zm507 -288c29,22 51,46 67,72 15,26 25,52 28,78 3,27 1,53 -8,80 -8,26 -22,52 -40,76 -19,24 -40,43 -64,58 -23,15 -48,24 -75,27 -26,3 -54,1 -83,-8 -28,-9 -57,-24 -86,-47 -29,-22 -51,-46 -66,-72 -15,-25 -24,-52 -28,-78 -3,-27 0,-54 8,-80 8,-26 22,-51 40,-75 18,-23 39,-42 63,-57 23,-15 48,-24 75,-27 27,-4 54,-1 83,7 29,8 57,24 86,46zm-57 74c-38,-30 -74,-44 -108,-43 -33,2 -61,17 -83,46 -22,28 -30,59 -23,91 6,33 29,64 68,94 38,30 74,45 107,43 33,-1 61,-17 83,-45 23,-29 31,-60 24,-92 -7,-33 -29,-64 -68,-94zm380 -194c-1,4 -3,9 -6,17 -2,7 -6,15 -10,22 -9,16 -18,25 -27,28 -10,3 -21,1 -34,-7l-305 -176c-7,-4 -12,-10 -14,-16 -1,-7 -1,-14 0,-23 3,-15 9,-32 17,-51 9,-19 18,-37 29,-56 31,-53 65,-87 102,-101 38,-14 76,-10 115,13 25,15 44,34 55,58 11,24 15,51 11,80 33,-4 65,-8 95,-13 31,-4 54,-7 71,-8 8,9 13,19 14,31 1,11 -1,22 -6,32 -8,12 -16,20 -25,24 -10,3 -21,5 -35,6l-142 9 -33 57 128 74zm-161 -159c13,-23 19,-44 17,-64 -3,-20 -14,-35 -34,-47 -41,-24 -78,-8 -109,46 -5,8 -9,16 -12,24 -4,8 -7,16 -10,22l119 69 29 -50z"/>
  <path class="fil3" d="M8524 4788c0,2087 -1692,3779 -3779,3779 -2087,0 -3779,-1692 -3779,-3779"/>
  <path class="fil19" d="M1446 6907c-18,11 -37,15 -56,13 -18,-1 -37,-9 -56,-24 6,28 4,52 -4,73 -9,21 -24,37 -45,49 -38,23 -74,25 -109,8 -35,-17 -68,-52 -98,-105 -5,-7 -10,-16 -14,-24 -5,-9 -9,-19 -13,-28 -5,-10 -8,-19 -12,-29 -3,-10 -6,-20 -8,-29 -5,-23 2,-39 19,-49l296 -173c8,-4 15,-6 21,-4 7,2 13,6 20,11 12,12 25,26 37,43 12,17 24,35 36,55 28,49 42,92 40,128 -1,36 -19,65 -54,85zm-204 30c16,-10 25,-23 28,-40 3,-17 -2,-36 -15,-58l-41 -71 -101 59c2,9 6,19 11,30 6,11 12,22 18,33 14,24 30,41 46,50 17,9 35,8 54,-3zm29 -202l36 61c12,22 26,36 41,41 16,6 31,4 47,-5 32,-19 33,-53 5,-102 -6,-10 -12,-20 -18,-28 -6,-9 -12,-16 -17,-22l-94 55zm83 585c-4,-3 -8,-7 -14,-12 -6,-5 -12,-11 -17,-18 -11,-14 -16,-26 -16,-36 1,-9 7,-19 19,-29l277 -217c7,-5 13,-8 20,-7 7,1 14,4 21,8 13,9 27,21 41,35 14,15 28,31 41,48 39,48 57,92 56,132 -1,40 -19,74 -54,102 -23,18 -48,28 -75,29 -26,1 -52,-5 -78,-19 -9,32 -16,64 -23,93 -8,30 -14,53 -19,68 -11,5 -23,6 -34,3 -11,-4 -20,-10 -27,-18 -9,-12 -13,-22 -13,-33 1,-10 3,-21 7,-34l44 -135 -40 -51 -116 91zm207 -92c16,21 34,34 53,40 19,5 38,1 57,-14 37,-29 36,-69 -3,-118 -6,-7 -12,-14 -18,-20 -6,-7 -12,-12 -17,-18l-108 85 36 45zm508 562c-25,27 -51,46 -78,59 -27,13 -54,19 -81,20 -27,0 -53,-5 -78,-16 -26,-11 -49,-27 -71,-48 -22,-21 -39,-44 -52,-69 -12,-25 -18,-51 -19,-78 0,-27 5,-54 17,-81 11,-28 30,-55 55,-81 25,-27 51,-46 78,-58 28,-13 55,-19 81,-20 27,0 53,5 79,16 25,11 49,27 70,48 22,20 39,43 51,68 12,25 18,51 19,77 1,27 -5,55 -16,82 -11,28 -29,55 -55,81zm-67 -64c34,-35 51,-70 53,-103 2,-33 -10,-63 -36,-88 -26,-25 -56,-35 -89,-32 -33,3 -66,22 -100,58 -34,35 -52,69 -54,102 -2,33 10,62 36,88 27,25 56,36 90,33 33,-4 66,-23 100,-58zm108 386c-15,-10 -23,-20 -25,-29 -2,-9 2,-20 10,-32l217 -304c8,-3 17,-2 27,0 11,3 21,8 31,15 12,9 21,18 27,29 6,11 9,25 7,43l-23 206c-2,19 -5,39 -9,58 -3,20 -6,38 -10,54l3 1c14,-24 28,-47 43,-68 14,-22 29,-43 43,-63l93 -130c3,2 9,4 16,8 6,3 13,7 20,12 14,10 22,20 24,29 2,9 -1,20 -10,32l-219 308c-7,1 -16,0 -25,-3 -9,-3 -19,-9 -30,-16 -12,-9 -20,-18 -27,-29 -6,-10 -9,-24 -7,-42l23 -206c2,-19 5,-38 9,-58 3,-20 7,-38 10,-54l-4 -2c-13,22 -27,44 -42,67 -15,22 -30,43 -44,63l-92 130c-4,-2 -9,-4 -16,-7 -7,-4 -14,-8 -20,-12zm445 299c-3,-7 -3,-15 -3,-24 1,-9 4,-17 9,-26 4,-8 11,-15 19,-20 8,-6 18,-10 27,-14l296 -120 -177 -102c1,-5 1,-10 2,-17 2,-6 4,-13 8,-19 7,-12 14,-19 22,-21 9,-3 18,-2 27,3l232 135c7,18 5,35 -4,52 -5,8 -11,15 -19,20 -7,5 -16,10 -26,14l-296 120 184 106c0,5 -1,11 -2,17 -1,7 -3,13 -7,20 -7,12 -14,18 -22,21 -9,3 -17,1 -26,-4l-244 -141zm499 260c-13,-5 -23,-14 -27,-25 -5,-12 -5,-24 1,-38l122 -306c6,-14 14,-23 25,-28 12,-5 24,-4 38,1l215 86c1,5 1,10 1,16 -1,7 -3,13 -5,20 -5,12 -11,19 -19,23 -7,4 -16,4 -25,1l-157 -63 -37 92 159 64c0,4 1,9 0,15 0,7 -1,13 -4,20 -9,24 -24,31 -44,23l-138 -55 -40 101 181 72c0,5 0,10 0,17 0,6 -2,13 -5,20 -9,23 -24,31 -44,23l-197 -79zm1095 -67c-2,9 -6,17 -12,23 -6,5 -13,9 -20,12 -11,-10 -23,-20 -36,-29 -14,-9 -31,-15 -53,-19 -39,-8 -72,-1 -100,20 -28,21 -46,56 -55,103 -9,49 -4,88 16,116 19,29 49,47 89,55 21,4 40,4 57,1 16,-3 31,-7 44,-13 6,6 10,12 13,20 3,8 3,17 2,26 -2,8 -5,14 -10,20 -6,6 -14,10 -24,13 -10,4 -24,7 -42,9 -18,2 -39,0 -64,-4 -30,-6 -57,-16 -82,-29 -24,-14 -44,-32 -60,-54 -16,-21 -27,-47 -33,-77 -6,-29 -5,-62 2,-100 6,-35 18,-66 34,-91 16,-26 35,-46 57,-61 23,-15 48,-25 75,-30 27,-5 55,-5 84,1 19,3 37,8 52,15 16,6 29,13 39,21 11,8 18,17 23,26 4,9 6,18 4,26zm544 209c-3,37 -11,68 -23,95 -13,28 -30,50 -50,67 -20,18 -44,30 -71,38 -26,7 -55,10 -85,8 -31,-3 -58,-10 -84,-21 -25,-12 -46,-28 -64,-48 -17,-20 -30,-45 -39,-73 -8,-29 -11,-62 -9,-98 3,-36 11,-68 24,-95 13,-27 30,-49 50,-66 21,-18 45,-30 71,-38 27,-7 55,-10 85,-8 29,3 57,10 82,21 25,12 46,28 64,48 18,20 31,45 40,73 9,29 12,61 9,97zm-93 -7c4,-48 -4,-86 -24,-113 -20,-27 -48,-42 -84,-45 -36,-2 -66,8 -89,32 -24,23 -37,59 -41,108 -4,49 4,87 24,114 19,26 47,41 83,44 37,3 67,-8 90,-31 24,-24 37,-60 41,-109zm328 216c-17,1 -29,-1 -37,-7 -7,-6 -12,-16 -13,-31l-28 -372c5,-7 12,-13 22,-17 9,-5 20,-7 32,-8 15,-1 28,0 40,4 11,5 22,14 32,29l115 173c10,16 21,33 30,50 10,17 19,33 27,48l3 -1c-5,-28 -8,-54 -11,-80 -3,-26 -5,-51 -7,-76l-12 -159c4,-1 9,-3 17,-4 8,-2 15,-3 23,-4 17,-1 30,1 38,7 7,6 12,16 13,31l29 377c-5,5 -12,10 -22,13 -9,4 -20,6 -33,7 -14,1 -27,0 -39,-4 -11,-4 -22,-14 -32,-28l-115 -174c-10,-15 -21,-32 -31,-50 -10,-17 -18,-33 -26,-48l-4 1c4,26 8,52 10,79 3,27 5,52 7,77l12 158c-3,1 -9,3 -16,5 -8,2 -15,3 -24,4zm735 -540c3,3 6,8 9,13 4,6 6,13 8,20 3,12 2,22 -2,30 -4,7 -11,12 -21,15l-94 22 78 341c-3,1 -8,4 -16,7 -7,3 -15,6 -23,8 -18,4 -31,3 -39,-1 -9,-5 -15,-15 -19,-30l-70 -305 -115 26c-3,-3 -6,-8 -10,-13 -3,-5 -6,-12 -7,-19 -3,-13 -3,-23 2,-30 4,-8 11,-13 21,-15l298 -69zm373 336c-3,2 -9,5 -15,9 -7,4 -15,7 -23,10 -17,6 -30,7 -39,3 -9,-4 -16,-13 -21,-28l-112 -333c-3,-8 -3,-16 0,-22 3,-5 8,-11 15,-16 12,-10 28,-19 47,-28 18,-8 38,-16 58,-23 58,-19 106,-22 144,-8 37,14 63,43 77,85 9,28 10,55 3,80 -8,26 -23,48 -45,68 28,19 55,36 81,53 25,17 45,30 58,40 0,13 -3,24 -10,33 -6,10 -15,16 -26,20 -13,4 -25,5 -34,1 -10,-4 -20,-10 -30,-18l-113 -87 -62 21 47 140zm-17 -226c26,-8 44,-20 55,-37 12,-16 14,-35 6,-58 -15,-44 -52,-57 -112,-37 -9,3 -17,7 -25,10 -8,4 -15,8 -22,11l44 130 54 -19zm482 51c-16,7 -29,9 -39,6 -9,-2 -17,-11 -23,-25l-160 -353c3,-2 9,-6 15,-10 7,-5 14,-9 21,-12 15,-7 28,-9 38,-7 9,2 18,11 24,26l160 352c-4,3 -9,7 -15,11 -6,4 -13,8 -21,12zm363 -557c10,18 15,37 13,56 -2,18 -10,37 -24,56 28,-5 52,-4 73,4 20,9 37,24 49,45 22,38 25,74 8,109 -17,35 -52,68 -105,99 -8,4 -16,9 -25,13 -9,5 -18,9 -28,13 -9,5 -19,8 -29,12 -10,3 -19,6 -28,8 -23,5 -40,-2 -50,-19l-172 -296c-5,-8 -6,-15 -4,-21 1,-7 5,-13 11,-20 11,-12 25,-25 42,-37 17,-12 36,-24 56,-36 48,-28 91,-42 127,-40 37,1 65,19 86,54zm29 204c-9,-16 -22,-25 -39,-28 -17,-3 -37,2 -58,15l-71 41 59 101c8,-2 18,-6 30,-11 11,-6 22,-12 32,-18 25,-14 41,-30 50,-46 9,-17 8,-35 -3,-54zm-202 -29l61 -36c22,-12 36,-26 41,-41 6,-16 4,-31 -5,-47 -19,-32 -52,-33 -102,-5 -10,6 -19,12 -28,18 -8,6 -15,12 -21,17l54 94zm660 -125c-22,17 -44,30 -66,38 -22,7 -43,10 -64,9 -21,-2 -40,-8 -59,-19 -19,-10 -36,-25 -51,-45l-170 -214c2,-3 6,-8 11,-14 6,-6 12,-12 18,-17 13,-10 25,-15 34,-15 10,0 20,6 30,19l146 182c18,23 38,36 61,38 22,2 43,-5 63,-21 20,-15 31,-34 34,-57 3,-22 -4,-45 -23,-68l-168 -211c3,-4 7,-8 12,-15 5,-6 11,-11 17,-16 14,-10 25,-16 35,-16 10,0 20,6 30,19l148 185c15,19 26,39 32,60 6,20 8,41 5,62 -4,20 -11,41 -24,60 -12,20 -29,39 -51,56zm202 -778c5,1 10,3 16,6 6,3 12,7 17,12 9,9 14,17 15,26 0,9 -3,17 -10,24l-67 70 253 242c-2,4 -5,9 -10,15 -4,7 -9,13 -15,20 -12,12 -23,19 -33,20 -10,1 -21,-4 -32,-15l-226 -216 -81 85c-5,-1 -10,-3 -16,-6 -6,-3 -11,-7 -17,-12 -9,-9 -14,-18 -15,-26 0,-9 3,-17 10,-24l211 -221zm507 -288c29,23 51,47 67,72 15,26 25,52 28,79 3,26 1,53 -8,79 -8,27 -22,52 -40,76 -19,24 -40,43 -64,58 -23,15 -48,24 -75,27 -26,4 -54,1 -83,-8 -28,-8 -57,-24 -86,-46 -29,-23 -51,-47 -66,-72 -15,-26 -24,-52 -28,-79 -3,-27 0,-53 8,-80 8,-26 22,-51 40,-74 18,-24 39,-43 63,-58 23,-14 48,-23 75,-27 27,-3 54,-1 83,7 29,9 57,24 86,46zm-57 74c-38,-30 -74,-44 -108,-42 -33,1 -61,16 -83,45 -22,28 -30,59 -23,92 6,32 29,64 68,94 38,30 74,44 107,42 33,-1 61,-16 83,-45 23,-29 31,-59 24,-92 -7,-33 -29,-64 -68,-94zm380 -194c-1,4 -3,10 -6,17 -2,7 -6,15 -10,23 -9,15 -18,24 -27,27 -10,3 -21,1 -34,-7l-305 -176c-7,-4 -12,-10 -14,-16 -1,-6 -1,-14 0,-23 3,-15 9,-32 17,-51 9,-18 18,-37 29,-56 31,-53 65,-87 102,-101 38,-14 76,-9 115,13 25,15 44,34 55,58 11,25 15,51 11,81 33,-5 65,-9 95,-14 31,-4 54,-7 71,-8 8,9 13,20 14,31 1,12 -1,22 -6,32 -8,12 -16,20 -25,24 -10,3 -21,5 -35,6l-142 10 -33 56 128 74zm-161 -158c13,-23 19,-45 17,-65 -3,-19 -14,-35 -34,-47 -41,-24 -78,-8 -109,46 -5,9 -9,17 -12,24 -4,8 -7,16 -10,23l119 68 29 -49z"/>
  <path class="fil17" d="M1337 6925c0,6 0,11 0,17 -1,-7 -2,-13 -3,-20l3 3zm-306 -114c-4,-23 2,-39 19,-49l296 -173c8,-4 15,-5 21,-4 7,2 13,6 20,12 12,11 25,25 37,42 12,17 24,36 36,55 28,49 42,92 41,128 0,3 -1,5 -1,8 -3,-32 -16,-69 -40,-110 -12,-20 -24,-38 -36,-55 -12,-17 -25,-32 -37,-43 -7,-6 -13,-9 -20,-11 -6,-2 -13,0 -21,4l-296 172c-10,6 -16,14 -19,24zm211 126c15,-9 24,-21 28,-36 1,8 1,15 0,22 -2,17 -12,30 -28,40 -19,11 -37,12 -54,3 -16,-9 -32,-26 -46,-50 -6,-11 -12,-22 -17,-33 -6,-11 -10,-21 -12,-30l7 -4 5 8c5,12 11,22 17,33 14,24 30,41 46,50 17,9 35,8 54,-3zm41 -183l24 42c13,22 26,36 42,41 15,6 30,4 46,-5 13,-8 21,-18 24,-30 4,25 -3,43 -24,55 -16,10 -31,11 -46,6 -16,-6 -29,-19 -42,-41l-36 -61 12 -7zm26 516c-2,-5 -3,-10 -3,-15 1,-9 7,-19 19,-29l275 -219c7,-5 14,-7 21,-7 6,1 13,4 21,9 13,8 27,20 41,34 14,15 28,31 41,47 39,49 58,93 57,133 0,3 0,7 -1,10 -3,-36 -22,-75 -56,-117 -13,-17 -27,-32 -41,-47 -14,-15 -28,-26 -41,-35 -8,-4 -15,-7 -21,-8 -7,-1 -14,2 -21,7l-275 219c-7,6 -13,12 -16,18zm152 191c-1,-4 -2,-8 -2,-11 0,-10 3,-22 7,-35l37 -117 6 7 -43 136c-3,7 -4,14 -5,20zm98 -233c17,21 35,34 54,39 19,6 38,1 57,-14 13,-11 22,-23 25,-37 5,24 -4,45 -25,63 -19,15 -38,19 -57,14 -19,-5 -37,-18 -54,-39l-35 -45 12 -10 23 29zm132 439c-1,-3 -1,-6 -1,-9 0,-26 5,-54 17,-81 11,-28 30,-55 55,-81 25,-27 51,-46 78,-58 28,-13 55,-19 82,-20 26,0 53,5 78,16 25,11 49,27 70,48 22,20 39,43 51,68 12,25 18,51 19,78 0,5 0,11 0,17 -2,-24 -8,-47 -19,-69 -12,-25 -29,-48 -51,-69 -21,-20 -45,-36 -70,-47 -25,-11 -52,-16 -78,-16 -27,0 -54,7 -82,19 -27,13 -53,32 -78,58 -25,27 -44,54 -55,81 -9,22 -15,44 -16,65zm311 59c32,-33 49,-65 53,-97 1,7 1,13 0,20 -1,33 -19,67 -53,103 -34,35 -67,54 -100,57 -33,4 -63,-7 -89,-33 -27,-25 -39,-54 -37,-87 0,-2 0,-4 1,-6 3,25 15,48 36,68 26,25 56,36 89,33 33,-3 66,-23 100,-58zm86 363c-1,-2 -2,-4 -2,-6 -3,-9 1,-20 9,-32l217 -304c8,-2 17,-2 28,1 10,2 20,7 30,14 12,9 21,18 27,29 6,11 9,25 7,43l0 2c-1,-7 -4,-14 -7,-19 -6,-11 -15,-21 -27,-29 -10,-7 -20,-12 -30,-15 -11,-3 -20,-3 -28,0l-217 303c-3,5 -5,9 -7,13zm280 58c13,-22 27,-42 40,-62 14,-22 29,-43 44,-63l92 -130c3,2 9,4 16,8 7,3 13,7 20,12 14,10 22,20 24,29 2,6 1,12 -2,19 -4,-7 -11,-15 -22,-22 -7,-5 -13,-9 -20,-13 -7,-3 -13,-6 -16,-7l-92 129c-15,21 -30,42 -44,63 -15,22 -29,45 -43,68l-3 -1c2,-9 4,-19 6,-30zm-82 67c-1,-7 -1,-15 0,-23l23 -206c2,-19 5,-38 9,-58l5 -28 1 -2 4 1c-3,16 -7,34 -10,54 -4,20 -7,40 -9,58l-23 204zm268 191c-2,-5 -2,-12 -2,-18 1,-9 4,-17 9,-26 5,-8 11,-15 19,-20 9,-6 18,-10 27,-14l270 -109 26 15 -296 119c-9,4 -18,9 -27,15 -8,5 -14,12 -19,20 -4,6 -6,12 -7,18zm176 -298l-3 -2c0,-5 0,-10 2,-17 1,-6 3,-12 7,-19 7,-12 14,-19 23,-21 8,-3 17,-2 26,4l232 134c5,12 5,23 3,35 -1,-3 -2,-7 -3,-10l-232 -134c-9,-5 -18,-6 -26,-4 -9,3 -16,10 -23,21 -2,5 -4,9 -6,13zm-32 300l158 92c0,4 -1,10 -2,16 0,3 -1,5 -1,7l-181 -104 26 -11zm327 235c-3,-11 -2,-22 3,-34l122 -306c6,-14 14,-23 25,-28 12,-5 24,-4 38,1l215 87c1,4 1,9 1,16 -1,3 -1,6 -2,9l-214 -86c-14,-6 -26,-6 -38,-1 -11,5 -19,14 -25,28l-122 306c-1,2 -2,5 -3,8zm170 -188l150 60c1,4 1,9 1,15 -1,4 -1,7 -2,10l-158 -63 9 -22zm-67 167l172 69c0,5 1,10 0,17 0,3 0,6 -1,9l-180 -72 9 -23zm1021 -17c0,2 -1,4 -1,6 -1,-2 -2,-4 -3,-6 -5,-9 -12,-18 -23,-26 -10,-8 -23,-15 -38,-22 -16,-6 -33,-11 -53,-15 -29,-5 -57,-5 -84,0 -27,5 -52,15 -74,30 -23,15 -42,35 -58,60 -16,26 -28,56 -34,92 -3,15 -5,30 -5,43 -1,-21 0,-44 5,-69 6,-35 18,-66 34,-91 16,-26 35,-46 58,-61 22,-15 47,-25 74,-30 27,-5 55,-5 84,1 20,3 37,8 53,15 15,6 28,13 38,21 11,8 18,17 23,26 4,9 6,18 4,26zm-280 166c2,24 8,44 20,61 19,28 49,46 89,54 22,4 40,4 57,1 16,-3 31,-7 44,-12 6,5 10,11 13,19 3,8 4,17 2,26l-1 3 -1 -3c-3,-8 -7,-14 -13,-20 -13,6 -28,10 -44,13 -17,3 -35,2 -57,-2 -40,-7 -70,-25 -89,-54 -15,-22 -22,-51 -20,-86zm399 49c-1,-12 0,-25 1,-38 2,-36 10,-68 23,-95 13,-27 30,-49 51,-66 20,-18 44,-30 70,-38 27,-7 55,-10 85,-8 30,3 57,10 82,21 25,12 47,28 64,48 18,20 31,45 40,73 8,25 11,54 10,85 -1,-21 -4,-41 -10,-59 -9,-29 -22,-53 -40,-73 -17,-21 -39,-37 -64,-48 -25,-12 -52,-19 -82,-21 -30,-2 -58,1 -85,8 -26,8 -50,20 -70,38 -21,17 -38,39 -51,66 -13,27 -21,58 -23,95 -1,4 -1,8 -1,12zm332 -13l1 -9c0,11 0,23 -1,35 -3,49 -17,85 -41,109 -23,23 -53,33 -89,31 -37,-3 -65,-18 -84,-45 -18,-25 -26,-59 -24,-104 1,33 9,59 24,79 19,26 47,41 84,44 36,3 66,-8 89,-31 24,-24 38,-60 41,-109zm252 -171l-2 -23c5,-7 12,-13 22,-17 9,-5 20,-7 32,-8 15,-1 28,0 40,4 12,5 22,14 32,29l115 173c10,16 21,33 31,50 9,16 17,31 25,45 1,9 2,18 4,27l-3 1c-8,-14 -16,-30 -26,-47 -10,-18 -21,-34 -31,-50l-115 -174c-10,-14 -20,-24 -32,-28 -12,-4 -25,-6 -40,-5 -12,1 -23,4 -32,8 -9,4 -15,9 -20,15zm271 -35l-2 -25c4,-1 10,-3 17,-4 8,-2 15,-3 23,-4 18,-1 30,1 38,7 7,5 12,16 13,31l29 377 -2 2 -27 -354c-1,-15 -6,-25 -13,-31 -8,-5 -20,-8 -38,-6 -8,0 -15,2 -23,3 -6,2 -11,3 -15,4zm-180 124c2,18 5,35 7,54 2,27 5,52 6,76l12 159 -1 1 -11 -134c-1,-24 -4,-50 -6,-77 -3,-26 -7,-53 -11,-78l4 -1zm720 -242c3,3 6,8 10,13 3,6 6,13 7,20 3,10 3,18 0,25 -1,-7 -4,-13 -7,-19 -4,-6 -7,-10 -10,-13l-298 69c-10,2 -17,7 -21,14 -1,2 -2,3 -2,5 -3,-13 -2,-23 2,-30 4,-8 11,-13 21,-15l298 -69zm-95 124l73 317 -5 2 -73 -318 5 -1zm469 212l-7 4 -39 -118 7 -3 39 117zm-207 -338l-1 -3c-3,-8 -3,-15 0,-21 3,-6 8,-11 15,-17 13,-9 28,-18 47,-27 19,-8 38,-15 59,-22 58,-19 106,-22 143,-7 38,14 63,43 77,86 7,19 9,38 7,56 -1,-10 -3,-20 -7,-31 -14,-42 -39,-71 -77,-85 -37,-15 -85,-13 -143,7 -21,6 -40,14 -59,22 -19,8 -34,17 -47,27 -6,5 -11,10 -14,15zm313 146c22,15 43,30 64,44 26,17 45,30 58,40 0,8 -1,16 -4,23 -13,-10 -31,-22 -54,-38 -25,-17 -52,-34 -80,-53 6,-5 11,-10 16,-16zm-122 -33c26,-9 44,-21 56,-37 4,-6 8,-13 9,-21 4,18 0,33 -9,47 -12,16 -30,28 -56,36l-54 18 -43 -130 7 -4 36 108 54 -17zm267 -302l-9 -20c4,-2 9,-6 15,-10 7,-5 14,-9 21,-12 15,-7 28,-9 38,-7 9,2 18,11 24,26l160 352 -9 7 -151 -334c-6,-15 -15,-23 -24,-25 -10,-3 -23,0 -38,7 -7,3 -14,7 -21,11l-6 5zm576 -205c10,18 15,37 13,56l-1 4c-2,-11 -6,-23 -12,-34 -21,-35 -49,-54 -86,-55 -36,-1 -79,13 -127,41 -20,11 -39,23 -56,36 -17,12 -31,25 -42,37 -4,4 -7,8 -9,12 -3,-6 -4,-13 -2,-18 1,-7 5,-13 11,-20 11,-12 25,-25 42,-37 17,-12 36,-24 56,-36 48,-28 91,-42 127,-41 37,2 65,20 86,55zm5 110c21,-3 40,0 57,6 20,9 37,24 49,45 15,26 21,51 18,76 -2,-17 -8,-34 -18,-51 -12,-21 -29,-35 -49,-44 -21,-9 -45,-10 -73,-4 7,-9 13,-19 16,-28zm-133 141l48 82c9,-2 19,-6 30,-11 11,-6 22,-12 32,-18 25,-14 42,-30 50,-46 2,-4 4,-7 5,-11 3,13 1,25 -5,36 -8,17 -25,33 -50,47 -10,6 -21,12 -32,17 -11,6 -21,10 -30,12l-59 -101 11 -7zm-45 -76l62 -36c21,-12 35,-26 41,-41 0,-2 1,-3 1,-5 3,10 2,20 -1,30 -6,15 -20,29 -41,42l-62 35 -54 -93c3,-3 6,-6 10,-9l44 77zm260 -343l-10 -13c2,-3 6,-8 11,-14 6,-6 12,-12 18,-17 13,-10 25,-15 34,-15 10,0 20,6 30,19l146 182c18,23 38,36 61,38 22,2 44,-5 63,-21 19,-15 30,-33 34,-54 1,8 1,15 0,23 -3,22 -14,41 -34,57 -19,16 -41,23 -63,20 -23,-2 -43,-14 -61,-37l-146 -183c-10,-12 -20,-19 -30,-19 -9,0 -21,6 -34,16 -6,5 -12,11 -18,17l-1 1zm207 -164l-11 -13c3,-4 7,-8 12,-15 6,-6 11,-11 17,-16 14,-10 25,-16 35,-16 10,0 20,6 30,19l148 185c15,19 26,39 32,60 6,18 7,35 6,53 -1,-9 -3,-18 -6,-28 -6,-20 -17,-40 -32,-59l-148 -185c-10,-13 -20,-20 -30,-19 -10,0 -21,5 -35,16 -6,5 -11,10 -17,16l-1 2zm395 -396c5,1 10,3 16,6 6,3 12,7 17,12 9,9 14,17 15,26 0,5 -1,10 -3,15 -3,-5 -7,-10 -12,-15 -5,-6 -11,-10 -17,-12 -6,-3 -11,-5 -16,-6l-211 220c-3,3 -5,7 -7,10 -1,-4 -3,-8 -3,-11 0,-9 3,-17 10,-24l211 -221zm-16 150l240 230c-2,4 -5,9 -10,15l0 1 -243 -232 13 -14zm523 -438c29,23 51,47 67,72 15,26 25,52 28,79 1,11 2,23 1,35 0,-3 -1,-6 -1,-10 -3,-26 -13,-52 -28,-78 -16,-26 -38,-50 -67,-72 -29,-22 -57,-38 -86,-46 -29,-8 -56,-11 -83,-7 -27,3 -52,12 -75,27 -24,15 -45,34 -63,57 -18,24 -32,49 -40,75 -5,15 -7,30 -8,45 -2,-24 1,-47 8,-71 8,-26 22,-51 40,-74 18,-24 39,-43 63,-58 23,-14 48,-23 75,-27 27,-3 54,-1 83,7 29,9 57,24 86,46zm-273 159c0,3 1,6 2,10 6,32 29,63 68,94 38,30 74,44 107,42 33,-1 61,-16 83,-45 15,-18 23,-37 25,-57 4,29 -4,57 -25,83 -22,28 -50,44 -83,45 -33,2 -69,-13 -107,-43 -39,-30 -62,-61 -68,-94 -3,-12 -3,-23 -2,-35zm596 -279c-1,4 -3,10 -6,17l-1 4 -121 -69 12 -20 116 68zm-395 -130l-1 -2c-1,-6 -1,-14 0,-23 3,-15 9,-32 17,-51 9,-18 18,-37 29,-56 31,-53 65,-87 102,-101 38,-14 76,-9 115,13 25,15 44,34 55,58 10,23 14,47 12,73 -2,-16 -6,-32 -12,-47 -11,-24 -30,-43 -55,-58 -39,-23 -77,-27 -115,-13 -37,14 -71,48 -102,101 -11,19 -20,37 -29,56 -8,18 -13,34 -16,50zm329 -81c33,-5 65,-9 94,-14 31,-4 54,-7 71,-8 8,9 13,20 14,31 1,7 1,13 -1,19 -2,-9 -7,-17 -13,-24 -17,1 -40,4 -71,8 -30,5 -62,9 -95,13 1,-8 1,-17 1,-25zm-95 53c8,-15 14,-30 16,-43l1 4c2,20 -4,41 -17,64l-29 50 -119 -69 9 -20 110 63 29 -49z"/>
  <path class="fil20" d="M4788 2101c741,0 1413,301 1899,787 486,486 787,1158 787,1900 0,741 -301,1413 -787,1899 -486,486 -1158,787 -1899,787 -742,0 -1414,-301 -1900,-787 -486,-486 -787,-1158 -787,-1899 0,-742 301,-1414 787,-1900 486,-486 1158,-787 1900,-787zm0 41c1461,0 2645,1185 2645,2646 0,1461 -1184,2645 -2645,2645 -1461,0 -2646,-1184 -2646,-2645 0,-1461 1185,-2646 2646,-2646z"/>
  <g id="_481770856">
   <path class="fil21" d="M4612 6269c-223,0 -435,-41 -630,-115l-227 166c190,74 397,115 614,115 380,0 732,-126 1015,-340 -230,109 -493,174 -772,174zm1347 -1097c20,0 36,-8 53,-28l0 -57c-69,8 -89,29 -89,53 0,24 12,32 36,32zm53 -121c0,-29 -13,-49 -45,-49 -24,0 -48,8 -73,25l-20 -41c28,-20 65,-32 105,-32 65,0 93,36 93,109l0 150 -48 0 -4 -29 0 0c-25,21 -53,37 -81,37 -45,0 -77,-33 -77,-77 0,-53 48,-81 150,-93l0 0zm-267 -93l60 0 0 255 -60 0 0 -255zm-9 -77c0,-20 17,-37 37,-37 24,0 36,17 36,37 0,20 -12,32 -36,32 -20,0 -37,-12 -37,-32zm-174 291c17,0 37,-8 53,-28l0 -122c-20,-16 -36,-20 -53,-20 -32,0 -60,29 -60,85 0,53 20,85 60,85l0 0zm-12 -218c29,0 45,8 65,28l0 -44 0 -94 61 0 0 369 -53 0 -4 -25 0 0c-20,17 -44,33 -73,33 -64,0 -105,-49 -105,-134 0,-85 53,-133 109,-133l0 0zm-380 4l49 0 4 36 4 0c24,-24 48,-40 85,-40 52,0 77,36 77,101l0 158 -61 0 0 -150c0,-45 -12,-61 -41,-61 -20,0 -36,12 -56,33l0 178 -61 0 0 -255 0 0zm-133 -85l60 0 0 340 -60 0 0 -340zm-348 -259l28 0c101,0 146,-45 146,-134 0,-101 -45,-153 -142,-153l-32 0 0 287zm-61 105c-33,0 -53,-8 -53,-44l0 -405c0,-36 20,-45 53,-45l89 0c85,0 146,21 190,69 45,45 69,109 69,186 0,69 -20,126 -65,170 -44,49 -113,69 -206,69l-77 0 0 0zm534 -105l174 0c36,0 57,20 57,52 0,37 -21,53 -57,53l-235 0c-40,0 -52,-8 -52,-44l0 -405c0,-36 12,-45 52,-45l231 0c32,0 52,17 52,49 0,36 -20,53 -52,53l-170 0 0 89 154 0c32,0 52,20 52,52 0,37 -20,53 -52,53l-154 0 0 93 0 0zm413 -89l0 125c0,49 -25,69 -57,69 -36,0 -57,-20 -57,-69l0 -360c0,-44 21,-65 57,-65 32,0 57,21 57,65l0 122 149 -154c33,-37 65,-37 85,-20 25,20 29,52 -4,85l-149 145 161 150c17,16 29,32 29,48 0,17 -8,29 -16,41 -9,8 -21,12 -37,12 -16,0 -32,-8 -48,-24l-170 -170 0 0zm449 -4l0 129c0,49 -25,69 -57,69 -32,0 -57,-20 -57,-69l0 -360c0,-44 25,-65 57,-65 32,0 57,21 57,65l0 126 166 0 0 -126c0,-44 24,-65 56,-65 37,0 57,21 57,65l0 360c0,49 -20,69 -57,69 -32,0 -56,-20 -56,-69l0 -129 -166 0zm607 97c40,0 72,-12 97,-41 28,-24 40,-60 40,-105 0,-44 -12,-81 -40,-109 -25,-24 -57,-40 -97,-40 -41,0 -77,16 -102,40 -24,28 -36,65 -36,109 0,45 12,81 36,105 25,29 61,41 102,41zm0 113c-73,0 -134,-24 -187,-73 -48,-48 -72,-109 -72,-186 0,-77 24,-137 77,-186 48,-48 109,-73 182,-73 72,0 133,25 182,73 48,49 77,109 77,186 0,77 -29,138 -77,186 -49,49 -110,73 -182,73l0 0zm-2355 186c-4,-81 -69,-149 -146,-149 -81,0 -149,68 -149,145 0,81 68,150 149,146 77,0 146,-65 146,-142zm52 134c49,44 94,85 138,129 -24,25 -49,45 -73,69 -28,-28 -60,-61 -93,-93 -24,-28 -40,-36 -81,-20 -89,40 -178,24 -251,-41 -72,-64 -97,-149 -72,-247 28,-93 93,-153 194,-169 93,-17 174,16 230,93 57,76 65,161 25,250 -4,9 -8,17 -17,29l0 0zm-449 56c-81,0 -161,5 -238,0 -53,0 -93,-44 -93,-101 0,-238 0,-477 0,-716 0,-56 44,-97 97,-97 194,-4 388,-4 578,0 53,0 97,36 97,85 0,129 0,255 0,384 -28,-16 -60,-28 -89,-44 -4,-4 -4,-16 -4,-24 -4,-93 -4,-187 -4,-280l0 -28 -574 0 0 724c52,0 105,0 158,0 16,0 24,4 32,21 8,24 24,48 40,76zm-262 743l-211 686 532 -494c176,75 369,117 573,117 555,0 1037,-315 1276,-776l-162 0c-225,380 -639,635 -1114,635 -717,0 -1295,-579 -1295,-1295 0,-716 578,-1295 1295,-1295 445,0 838,225 1071,567l167 0c-250,-424 -711,-708 -1238,-708 -798,0 -1441,643 -1441,1436 0,457 214,864 547,1127zm-112 28c-351,-288 -572,-711 -572,-1183 0,-870 752,-1574 1679,-1574 68,0 137,4 202,12 -142,-40 -291,-61 -445,-61 -931,0 -1683,753 -1683,1683 0,591 306,1112 769,1411l50 -288z"/>
   <path class="fil22" d="M4612 6236c-223,0 -435,-41 -630,-115l-227 166c190,74 397,115 614,115 380,0 732,-126 1015,-340 -230,109 -493,174 -772,174zm1347 -1096c20,0 36,-9 53,-29l0 -56c-69,8 -89,28 -89,52 0,24 12,33 36,33zm53 -122c0,-28 -13,-48 -45,-48 -24,0 -48,8 -73,24l-20 -41c28,-20 65,-32 105,-32 65,0 93,36 93,109l0 150 -48 0 -4 -28 0 0c-25,20 -53,36 -81,36 -45,0 -77,-32 -77,-77 0,-52 48,-81 150,-93l0 0zm-267 -93l60 0 0 255 -60 0 0 -255zm-9 -77c0,-20 17,-36 37,-36 24,0 36,16 36,36 0,20 -12,33 -36,33 -20,0 -37,-13 -37,-33zm-174 292c17,0 37,-9 53,-29l0 -121c-20,-16 -36,-20 -53,-20 -32,0 -60,28 -60,85 0,52 20,85 60,85l0 0zm-12 -219c29,0 45,8 65,28l0 -44 0 -93 61 0 0 368 -53 0 -4 -24 0 0c-20,16 -44,32 -73,32 -64,0 -105,-48 -105,-133 0,-85 53,-134 109,-134l0 0zm-380 4l49 0 4 36 4 0c24,-24 48,-40 85,-40 52,0 77,36 77,101l0 158 -61 0 0 -150c0,-44 -12,-60 -41,-60 -20,0 -36,12 -56,32l0 178 -61 0 0 -255 0 0zm-133 -85l60 0 0 340 -60 0 0 -340zm-348 -259l28 0c101,0 146,-44 146,-133 0,-102 -45,-154 -142,-154l-32 0 0 287zm-61 105c-33,0 -53,-8 -53,-44l0 -405c0,-36 20,-44 53,-44l89 0c85,0 146,20 190,69 45,44 69,109 69,186 0,68 -20,125 -65,170 -44,48 -113,68 -206,68l-77 0 0 0zm534 -105l174 0c36,0 57,20 57,53 0,36 -21,52 -57,52l-235 0c-40,0 -52,-8 -52,-44l0 -405c0,-36 12,-44 52,-44l231 0c32,0 52,16 52,48 0,37 -20,53 -52,53l-170 0 0 89 154 0c32,0 52,20 52,53 0,36 -20,52 -52,52l-154 0 0 93 0 0zm413 -89l0 126c0,48 -25,68 -57,68 -36,0 -57,-20 -57,-68l0 -361c0,-44 21,-64 57,-64 32,0 57,20 57,64l0 122 149 -154c33,-36 65,-36 85,-20 25,20 29,52 -4,85l-149 146 161 149c17,16 29,33 29,49 0,16 -8,28 -16,40 -9,8 -21,12 -37,12 -16,0 -32,-8 -48,-24l-170 -170 0 0zm449 -4l0 130c0,48 -25,68 -57,68 -32,0 -57,-20 -57,-68l0 -361c0,-44 25,-64 57,-64 32,0 57,20 57,64l0 126 166 0 0 -126c0,-44 24,-64 56,-64 37,0 57,20 57,64l0 361c0,48 -20,68 -57,68 -32,0 -56,-20 -56,-68l0 -130 -166 0zm607 97c40,0 72,-12 97,-40 28,-25 40,-61 40,-105 0,-45 -12,-81 -40,-110 -25,-24 -57,-40 -97,-40 -41,0 -77,16 -102,40 -24,29 -36,65 -36,110 0,44 12,80 36,105 25,28 61,40 102,40zm0 113c-73,0 -134,-24 -187,-72 -48,-49 -72,-110 -72,-186 0,-77 24,-138 77,-187 48,-48 109,-72 182,-72 72,0 133,24 182,72 48,49 77,110 77,187 0,76 -29,137 -77,186 -49,48 -110,72 -182,72l0 0zm-2355 187c-4,-81 -69,-150 -146,-150 -81,0 -149,69 -149,146 0,80 68,149 149,145 77,0 146,-65 146,-141zm52 133c49,45 94,85 138,130 -24,24 -49,44 -73,68 -28,-28 -60,-60 -93,-93 -24,-28 -40,-36 -81,-20 -89,41 -178,24 -251,-40 -72,-65 -97,-150 -72,-247 28,-93 93,-154 194,-170 93,-16 174,16 230,93 57,77 65,162 25,251 -4,8 -8,16 -17,28l0 0zm-449 57c-81,0 -161,4 -238,0 -53,0 -93,-45 -93,-101 0,-239 0,-478 0,-717 0,-56 44,-97 97,-97 194,-4 388,-4 578,0 53,0 97,37 97,85 0,130 0,255 0,385 -28,-16 -60,-29 -89,-45 -4,-4 -4,-16 -4,-24 -4,-93 -4,-186 -4,-279l0 -29 -574 0 0 725c52,0 105,0 158,0 16,0 24,4 32,20 8,24 24,48 40,77zm-262 743l-211 685 532 -494c176,76 369,118 573,118 555,0 1037,-316 1276,-777l-162 0c-225,380 -639,635 -1114,635 -717,0 -1295,-578 -1295,-1295 0,-716 578,-1294 1295,-1294 445,0 838,224 1071,566l167 0c-250,-424 -711,-708 -1238,-708 -798,0 -1441,643 -1441,1436 0,457 214,865 547,1128zm-112 27c-351,-288 -572,-711 -572,-1183 0,-870 752,-1574 1679,-1574 68,0 137,4 202,12 -142,-40 -291,-60 -445,-60 -931,0 -1683,752 -1683,1683 0,591 306,1111 769,1410l50 -288z"/>
   <path class="fil23" d="M4612 6236c-223,0 -435,-41 -630,-115l-227 166 21 8 206 -150c195,74 407,114 630,114 244,0 476,-49 685,-135 30,-20 59,-40 87,-62 -230,109 -493,174 -772,174zm1347 -1096c20,0 36,-9 53,-29l0 24c-17,20 -33,28 -53,28 -24,0 -36,-8 -36,-33 0,-3 0,-7 1,-10 4,14 16,20 35,20zm-76 -169l-9 -18c28,-20 65,-32 105,-32 65,0 93,36 93,109l0 150 0 0 0 -126c0,-73 -28,-110 -93,-110 -36,0 -69,10 -96,27zm-20 152c-1,-4 -1,-8 -1,-12 0,-52 47,-80 146,-92 2,6 4,14 4,22l0 0c-94,12 -143,37 -149,82zm-118 -198l60 0 0 23 -60 0 0 232 0 0 0 -255zm-9 -77c0,-20 17,-36 37,-36 24,0 36,16 36,36 0,4 0,8 -1,12 -4,-15 -16,-25 -35,-25 -16,0 -30,10 -35,25 -1,-4 -2,-8 -2,-12zm-174 292c17,0 37,-9 53,-29l0 24c-16,20 -36,28 -53,28l0 0c-40,0 -60,-33 -60,-85 0,-4 0,-8 0,-11 3,45 23,73 60,73l0 0zm-12 -219c29,0 45,8 65,28l0 24c-20,-21 -36,-29 -65,-29l0 0c-54,0 -104,45 -109,123 0,-4 0,-8 0,-12 0,-85 53,-134 109,-134l0 0zm65 -86l0 -23 61 0 0 368 0 0 0 -345 -61 0zm-445 90l49 0 4 36 4 0c24,-24 48,-40 85,-40 52,0 77,36 77,101l0 158 0 0 0 -134c0,-65 -25,-102 -77,-102 -37,0 -61,17 -85,41l-4 0 -4 -37 -49 0 0 -23 0 0zm-133 -85l60 0 0 23 -60 0 0 -23zm-348 -259l28 0c97,0 142,-41 145,-123 0,4 1,9 1,13 0,89 -45,134 -146,134l-28 0 0 -24zm-114 -320l0 -24c0,-36 20,-44 53,-44l89 0c85,0 146,20 190,69 45,44 69,109 69,186 0,4 0,7 0,11 -3,-72 -27,-132 -69,-174 -44,-49 -105,-69 -190,-69l-89 0c-33,0 -53,8 -53,45zm587 320l174 0c36,0 57,20 57,53 0,4 -1,8 -1,12 -5,-26 -24,-41 -56,-41l-174 0 0 0 0 -94 0 0 0 70 0 0zm-113 -322l0 -22c0,-36 12,-44 52,-44l231 0c32,0 52,16 52,48 0,5 0,9 0,13 -5,-25 -24,-38 -52,-38l-231 0c-40,0 -52,8 -52,43zm113 58l0 66 154 0c32,0 52,20 52,53 0,4 0,8 -1,12 -4,-26 -23,-42 -51,-42l-154 0 0 -89 0 0zm413 199l0 102 0 2 0 -104 0 0 0 0zm-114 -235l0 -24c0,-44 21,-64 57,-64 32,0 57,20 57,64l0 122 149 -154c33,-36 65,-36 85,-20 16,13 23,30 18,50 -3,-10 -9,-19 -18,-27 -20,-16 -52,-16 -85,20l-149 154 0 -121c0,-45 -25,-65 -57,-65 -36,0 -57,20 -57,65zm207 166l149 138c17,16 29,33 29,49 0,4 -1,8 -2,12 -4,-12 -14,-25 -27,-37l-161 -150 12 -12zm242 -168l0 -22c0,-44 25,-64 57,-64 32,0 57,20 57,64l0 24c0,-45 -25,-65 -57,-65 -32,0 -56,20 -57,63zm114 104l166 0 0 23 -166 0 0 -23zm166 -104l0 -22c0,-44 24,-64 56,-64 37,0 57,20 57,64l0 361 0 2 0 -339c0,-45 -20,-65 -57,-65 -32,0 -56,20 -56,63zm441 306c40,0 72,-12 97,-40 25,-22 38,-54 40,-93 0,3 0,7 0,11 0,44 -12,81 -40,105 -25,28 -57,41 -97,41 -41,0 -77,-13 -102,-41 -24,-24 -36,-61 -36,-105 0,-4 0,-8 0,-12 2,40 14,72 36,94 25,28 61,40 102,40zm-259 -134l0 -11c0,-77 24,-138 77,-187 48,-48 109,-72 182,-72 72,0 133,24 182,72 48,49 77,110 77,187 0,3 -1,7 -1,11 -2,-71 -30,-128 -76,-174 -49,-49 -110,-73 -182,-73 -73,0 -134,24 -182,73 -50,46 -75,103 -77,174zm-2391 442c6,75 72,137 149,133 72,0 137,-57 145,-127 0,3 1,6 1,9 0,77 -69,142 -146,142 -81,4 -149,-65 -149,-146 0,-4 0,-8 0,-11zm357 134c45,41 86,79 128,121 -4,4 -8,7 -12,11 -40,-40 -81,-77 -126,-118l0 0c4,-5 7,-10 10,-14zm-451 -129c-2,-26 1,-54 9,-82 28,-93 93,-154 194,-170 93,-16 174,16 230,93 36,48 52,100 50,154 -3,-46 -19,-89 -50,-131 -56,-77 -137,-109 -230,-93 -101,16 -166,77 -194,170 -5,20 -8,40 -9,59zm-8 177l-13 0c-11,-19 -21,-36 -27,-54 -8,-16 -16,-20 -32,-20 -53,0 -106,0 -158,0l0 -23c52,0 105,0 158,0 16,0 24,4 32,20 8,24 24,48 40,77zm-331 -100l0 -1c0,-239 0,-478 0,-717 0,-56 44,-97 97,-97 194,-4 388,-4 578,0 53,0 97,37 97,85l0 24c0,-49 -44,-85 -97,-85 -190,-4 -384,-4 -578,0 -53,0 -97,40 -97,97l0 694zm64 861l-206 667 10 -9 201 -653 -5 -5zm2162 -463c4,-8 9,-15 13,-23l-162 0c-225,380 -639,635 -1114,635 -713,0 -1289,-573 -1295,-1284l0 13c0,716 578,1294 1295,1294 475,0 889,-254 1114,-635l149 0zm-40 -1411l15 0c-250,-424 -711,-708 -1238,-708 -798,0 -1441,643 -1441,1436l0 15c5,-789 646,-1428 1441,-1428 517,0 971,274 1223,685zm-2229 1883c-347,-285 -568,-702 -572,-1168l0 8c0,471 220,893 568,1181l4 -21zm1159 -2756c51,2 102,5 150,11 -142,-40 -291,-60 -445,-60 -931,0 -1683,752 -1683,1683l0 14c5,-926 755,-1674 1683,-1674 101,0 199,9 295,26z"/>
  </g>
 </g>
</svg>
