<svg width="102" height="103" viewBox="0 0 102 103" fill="none" xmlns="http://www.w3.org/2000/svg">
<path fill-rule="evenodd" clip-rule="evenodd" d="M31.1215 30.123C36.3446 30.1666 40.8215 33.2685 42.7088 38.1179C44.5522 42.8799 43.411 48.035 39.4169 51.4427C36.7396 53.7145 35.5984 56.5542 35.2473 59.9182C34.8523 63.3258 31.9554 65.9908 28.6636 66.0345C25.1962 66.0782 22.2555 63.6316 21.6849 60.1366C21.641 59.8308 21.5093 59.4376 21.641 59.1755C21.8166 58.826 22.2116 58.3017 22.4749 58.3017C22.87 58.3017 23.3528 58.6512 23.5722 59.0007C23.7917 59.3065 23.7039 59.7871 23.7917 60.1803C24.2745 62.4521 26.3813 64.1122 28.6197 63.9812C31.0337 63.8938 32.9649 62.0589 33.2722 59.6997C33.36 58.6949 33.5355 57.7338 33.755 56.7289C34.2817 54.1514 35.6862 52.0543 37.7052 50.3505C39.7681 48.6904 40.9092 46.5496 41.3482 43.9284C42.2699 38.5984 38.2319 33.0501 32.8333 32.3074C29.1903 31.8268 26.074 32.7879 23.5283 35.5403C23.0894 36.0208 22.6505 36.414 22.036 35.8024C21.4654 35.2781 21.5532 34.7102 22.036 34.1423C23.9672 31.652 27.5224 30.0793 31.1215 30.123Z" fill="#F58B71"/>
<path fill-rule="evenodd" clip-rule="evenodd" d="M31.1215 30.123C36.3446 30.1666 40.8215 33.2685 42.7088 38.1179C44.5522 42.8799 43.411 48.035 39.4169 51.4427C36.7396 53.7145 35.5984 56.5542 35.2473 59.9182C34.8523 63.3258 31.9554 65.9908 28.6636 66.0345C25.1962 66.0782 22.2555 63.6316 21.6849 60.1366C21.641 59.8308 21.5093 59.4376 21.641 59.1755C21.8166 58.826 22.2116 58.3017 22.4749 58.3017C22.87 58.3017 23.3528 58.6512 23.5722 59.0007C23.7917 59.3065 23.7039 59.7871 23.7917 60.1803C24.2745 62.4521 26.3813 64.1122 28.6197 63.9812C31.0337 63.8938 32.9649 62.0589 33.2722 59.6997C33.36 58.6949 33.5355 57.7338 33.755 56.7289C34.2817 54.1514 35.6862 52.0543 37.7052 50.3505C39.7681 48.6904 40.9092 46.5496 41.3482 43.9284C42.2699 38.5984 38.2319 33.0501 32.8333 32.3074C29.1903 31.8268 26.074 32.7879 23.5283 35.5403C23.0894 36.0208 22.6505 36.414 22.036 35.8024C21.4654 35.2781 21.5532 34.7102 22.036 34.1423C23.9672 31.652 27.5224 30.0793 31.1215 30.123Z" stroke="#F58B71" stroke-width="0.0135276"/>
<path fill-rule="evenodd" clip-rule="evenodd" d="M31.0224 49.8004C31.0224 48.4024 31.2858 47.8782 32.0319 47.9218C33.3048 48.0092 32.9976 49.014 33.0853 49.7567C33.3487 52.8586 31.3297 55.6983 28.5645 56.3099C27.0722 56.5721 25.7994 56.2662 24.8338 55.174C23.8243 53.9508 23.5609 52.5528 24.2193 51.1547C24.6143 50.281 25.2288 49.4946 25.8872 48.8393C26.9844 47.7034 27.0722 47.4413 26.1505 46.1306C25.9749 45.8248 25.7555 45.519 25.536 45.2569C23.6048 43.0288 24.1754 40.6259 25.536 38.66C27.7745 35.3397 32.6025 34.7281 35.6749 37.3057C38.6595 39.8396 38.879 44.6452 36.0261 47.4413C35.7627 47.7034 35.4116 48.0092 35.0605 48.0092C34.7532 48.0529 34.1826 47.7471 34.1387 47.4413C34.0071 47.0918 34.1387 46.5238 34.4021 46.2617C35.4116 45.1695 36.07 43.9462 36.07 42.4172C36.0261 40.1017 34.1826 38.0484 31.8125 37.7425C29.7057 37.4804 27.16 39.0969 26.5455 41.0628C26.2383 42.024 26.4139 42.854 26.9844 43.6404C27.4672 44.3831 27.9939 45.0821 28.4329 45.8685C29.1351 47.1355 29.0034 48.3587 28.0378 49.4509C27.555 49.9752 27.0722 50.4557 26.5894 51.0237C25.8433 51.8538 25.7555 53.0333 26.3261 53.7323C26.8967 54.4313 28.0378 54.5187 29.0912 53.9071C30.3202 53.2081 31.0663 51.679 31.0224 49.8004Z" fill="#F58B71"/>
<path fill-rule="evenodd" clip-rule="evenodd" d="M31.0224 49.8004C31.0224 48.4024 31.2858 47.8782 32.0319 47.9218C33.3048 48.0092 32.9976 49.014 33.0853 49.7567C33.3487 52.8586 31.3297 55.6983 28.5645 56.3099C27.0722 56.5721 25.7994 56.2662 24.8338 55.174C23.8243 53.9508 23.5609 52.5528 24.2193 51.1548C24.6143 50.281 25.2288 49.4946 25.8872 48.8393C26.9844 47.7034 27.0722 47.4413 26.1505 46.1306C25.9749 45.8248 25.7555 45.519 25.536 45.2569C23.6048 43.0288 24.1754 40.6259 25.536 38.66C27.7745 35.3397 32.6025 34.7281 35.6749 37.3057C38.6595 39.8396 38.879 44.6452 36.0261 47.4413C35.7627 47.7034 35.4116 48.0092 35.0605 48.0092C34.7532 48.0529 34.1826 47.7471 34.1387 47.4413C34.0071 47.0918 34.1387 46.5238 34.4021 46.2617C35.4116 45.1695 36.07 43.9462 36.07 42.4172C36.0261 40.1017 34.1826 38.0484 31.8125 37.7425C29.7057 37.4804 27.16 39.0969 26.5455 41.0628C26.2383 42.024 26.4139 42.854 26.9844 43.6404C27.4672 44.3831 27.9939 45.0821 28.4329 45.8685C29.1351 47.1355 29.0034 48.3587 28.0378 49.4509C27.555 49.9752 27.0722 50.4557 26.5894 51.0237C25.8433 51.8538 25.7555 53.0333 26.3261 53.7323C26.8967 54.4313 28.0378 54.5187 29.0912 53.9071C30.3202 53.2081 31.0663 51.679 31.0224 49.8004Z" stroke="#F58B71" stroke-width="0.0135276"/>
<path fill-rule="evenodd" clip-rule="evenodd" d="M53.4576 53.4104C53.4576 59.1772 49.5513 64.114 43.8893 65.2935C42.9236 65.512 41.8703 65.512 40.8607 65.3809C40.5096 65.3372 40.0268 64.7256 39.939 64.3324C39.8512 63.7208 40.3341 63.4587 40.9924 63.4587C48.7173 63.2402 53.1942 56.8181 50.7802 49.3911C50.5608 48.6484 50.2096 47.9494 49.9024 47.2504C49.639 46.5951 49.7268 46.0708 50.3852 45.7213C51.0875 45.4155 51.5264 45.765 51.7897 46.4203C52.8431 48.6047 53.5015 50.9202 53.4576 53.4104Z" fill="#F58B71"/>
<path fill-rule="evenodd" clip-rule="evenodd" d="M53.4576 53.4104C53.4576 59.1772 49.5513 64.114 43.8893 65.2935C42.9236 65.512 41.8703 65.512 40.8607 65.3809C40.5096 65.3372 40.0268 64.7256 39.939 64.3324C39.8512 63.7208 40.3341 63.4587 40.9924 63.4587C48.7173 63.2402 53.1942 56.8181 50.7802 49.3911C50.5608 48.6484 50.2096 47.9494 49.9024 47.2504C49.639 46.5951 49.7268 46.0708 50.3852 45.7213C51.0875 45.4155 51.5264 45.765 51.7897 46.4203C52.8431 48.6047 53.5015 50.9202 53.4576 53.4104Z" stroke="#F58B71" stroke-width="0.0135276"/>
<path fill-rule="evenodd" clip-rule="evenodd" d="M49.3304 52.9227C49.2426 57.6847 45.2485 61.4419 40.5961 61.0487C39.8938 61.005 39.4988 60.6118 39.4988 60.0002C39.4988 59.3886 39.8938 59.0391 40.5522 59.0391C41.2544 58.9954 42.0006 58.9517 42.7028 58.7332C46.1702 57.8595 47.8381 54.5829 46.7847 50.8694C46.653 50.4325 46.4775 50.0393 46.3019 49.6025C46.0824 48.9034 46.2141 48.3355 46.9603 48.0297C47.7064 47.7676 48.0575 48.2918 48.2331 48.8161C48.6281 50.1704 48.9354 51.5684 49.3304 52.9227Z" fill="#F58B71"/>
<path fill-rule="evenodd" clip-rule="evenodd" d="M49.3304 52.9227C49.2426 57.6847 45.2485 61.4419 40.5961 61.0487C39.8938 61.005 39.4988 60.6118 39.4988 60.0002C39.4988 59.3886 39.8938 59.0391 40.5522 59.0391C41.2544 58.9954 42.0006 58.9517 42.7028 58.7332C46.1702 57.8595 47.8381 54.5829 46.7847 50.8694C46.653 50.4325 46.4775 50.0393 46.3019 49.6025C46.0824 48.9034 46.2141 48.3355 46.9603 48.0297C47.7064 47.7676 48.0575 48.2918 48.2331 48.8161C48.6281 50.1704 48.9354 51.5684 49.3304 52.9227Z" stroke="#F58B71" stroke-width="0.0135276"/>
<path fill-rule="evenodd" clip-rule="evenodd" d="M44.6341 53.0829C44.5024 55.2237 42.7906 56.8838 40.7716 56.8838C40.0255 56.8838 39.5427 56.5343 39.4988 55.7916C39.4988 55.0926 39.9816 54.8741 40.64 54.8305C42.3517 54.6557 42.9223 53.6946 42.1323 52.1655C41.825 51.5102 41.825 51.0296 42.5273 50.6801C43.1857 50.2869 43.7124 50.6364 43.9757 51.248C44.283 51.816 44.4146 52.4713 44.6341 53.0829Z" fill="#F58B71"/>
<path fill-rule="evenodd" clip-rule="evenodd" d="M44.6341 53.0829C44.5024 55.2237 42.7906 56.8838 40.7716 56.8838C40.0255 56.8838 39.5427 56.5343 39.4988 55.7916C39.4988 55.0926 39.9816 54.8741 40.64 54.8305C42.3517 54.6557 42.9223 53.6946 42.1323 52.1655C41.825 51.5102 41.825 51.0296 42.5273 50.6801C43.1857 50.2869 43.7124 50.6364 43.9757 51.248C44.283 51.816 44.4146 52.4713 44.6341 53.0829Z" stroke="#F58B71" stroke-width="0.0135276"/>
<path fill-rule="evenodd" clip-rule="evenodd" d="M39.2143 90.8192C45.0063 93.0212 51.3419 94.235 57.9798 94.235C66.1875 94.235 73.9562 92.3564 80.8033 89.0798C72.42 95.3708 62.0178 99.128 50.7378 99.128C44.3077 99.128 38.1629 97.9164 32.5209 95.7106L39.2143 90.8192ZM25.1898 82.7324C14.7816 74.2249 8.2071 61.7401 8.2071 47.8383C8.2071 22.2372 30.5039 1.4417 57.9798 1.4417C59.9988 1.4417 62.0178 1.57277 63.9929 1.79121C59.7794 0.611632 55.3024 0 50.7378 0C23.2179 0 0.921143 22.1935 0.921143 49.5858C0.921143 67.035 9.99766 82.3856 23.7162 91.2124L25.1898 82.7324Z" fill="#F47D5C"/>
<path d="M29.2453 79.6162L22.3105 102.072L40.657 85.1209L29.2453 79.6162Z" fill="#377044"/>
<path fill-rule="evenodd" clip-rule="evenodd" d="M16.5834 48.6527C16.5834 69.754 33.7449 86.836 54.9444 86.836C68.9916 86.836 81.2972 79.3047 87.9808 68.0663H92.7956C85.715 81.709 71.4086 91.0301 54.9444 91.0301C31.4187 91.0301 12.3699 72.0695 12.3699 48.6527C12.3699 25.236 31.4187 6.27539 54.9444 6.27539C70.6003 6.27539 84.3051 14.7037 91.7012 27.2617H86.721C79.8178 17.1261 68.1508 10.4694 54.9444 10.4694C33.7449 10.4694 16.5834 27.5514 16.5834 48.6527Z" fill="#377044"/>
<path d="M71.4615 37.3858V48.002C71.3298 48.0457 71.1543 48.0894 70.9348 48.1331C70.7154 48.1768 70.4959 48.2205 70.1887 48.2205C69.5742 48.2205 69.1353 48.0894 68.8719 47.9146C68.6525 47.6962 68.5208 47.3467 68.5208 46.8661V43.3274C68.3013 43.3711 68.0819 43.4148 67.8624 43.4585C67.643 43.4585 67.3796 43.5022 67.1163 43.5022C66.6335 43.5022 66.1068 43.4148 65.5362 43.2837C64.9656 43.1526 64.4389 42.9342 64 42.6721C63.7367 42.8031 63.4733 42.9342 63.21 43.0216C62.9027 43.1526 62.5955 43.1963 62.2444 43.24C62.6833 43.9827 63.2539 44.5944 63.9122 45.1186C64.6145 45.6429 65.2729 46.0361 65.9312 46.2982C65.9312 46.8224 65.7557 47.2593 65.4484 47.6525C65.1412 48.0457 64.6584 48.2205 64.0439 48.2205C63.6489 48.2205 63.21 48.1331 62.7711 47.9146C62.376 47.6962 61.981 47.3904 61.586 46.9972C61.191 46.5603 60.8399 46.0797 60.5326 45.4681C60.2254 44.8565 59.9181 44.1575 59.7426 43.3711C59.3037 43.3274 58.9964 43.1963 58.8209 42.9342C58.6014 42.6721 58.5136 42.41 58.5136 42.0168C58.5136 41.7983 58.5575 41.5799 58.6453 41.3614C58.7331 41.143 58.8647 40.9682 58.9964 40.8372C59.172 40.8809 59.3914 40.8809 59.6548 40.9246C59.9181 40.9246 60.1815 40.9246 60.4887 40.9246C61.2349 40.9246 61.8055 40.7498 62.1566 40.444C62.5516 40.0945 62.7272 39.6576 62.7272 39.0897C62.7272 38.7838 62.6833 38.478 62.5516 38.1722C62.4638 37.9101 62.3322 37.648 62.2005 37.3858H58.1186C57.8114 37.3858 57.5919 37.2985 57.4602 37.08C57.3286 36.9053 57.2847 36.6431 57.2847 36.2499C57.2847 36.1189 57.2847 35.9441 57.3286 35.7257C57.3725 35.5072 57.4163 35.3325 57.4602 35.2451H72.7782C73.3488 35.2451 73.6561 35.5946 73.6561 36.2936C73.6561 36.4684 73.6122 36.6431 73.5683 36.8616C73.5244 37.08 73.4805 37.2548 73.4366 37.3858H71.4615ZM66.6335 41.143C67.3796 41.143 67.9941 41.0119 68.5208 40.7498V37.3858H65.1412C65.3167 37.6916 65.4484 38.0412 65.5362 38.3907C65.6679 38.7402 65.7118 39.1334 65.7118 39.5702C65.7118 40.0508 65.624 40.5314 65.4484 41.0119C65.7996 41.0993 66.2385 41.143 66.6335 41.143Z" fill="#377044"/>
<path d="M69.8541 47.6133C70.3808 47.6133 70.9075 47.7007 71.3464 47.8317C71.8292 48.0065 72.2242 48.2249 72.5753 48.5307C72.9264 48.8365 73.2337 49.186 73.4092 49.6229C73.6287 50.0161 73.7604 50.4967 73.7604 51.0209C73.7604 51.5452 73.6287 52.0258 73.4531 52.4626C73.2337 52.8995 72.9703 53.249 72.5753 53.5548C72.1803 53.9043 71.6975 54.1228 71.1269 54.2975C70.6002 54.516 69.9418 54.6034 69.2396 54.6034C68.5373 54.6034 67.9229 54.516 67.2645 54.3849C66.65 54.2102 66.0794 54.0354 65.5966 53.7733C65.1138 53.5112 64.7188 53.2053 64.4116 52.8558C64.1043 52.5063 63.9727 52.1131 63.9727 51.6763C63.9727 51.2831 64.1043 50.9773 64.3677 50.7151C64.631 50.453 64.9383 50.2782 65.2894 50.2346C65.7283 50.8025 66.2989 51.2831 66.9573 51.6763C67.6156 52.0695 68.3618 52.2442 69.1957 52.2442C69.7224 52.2442 70.1174 52.1131 70.3808 51.8947C70.6441 51.6326 70.7758 51.3704 70.7758 50.9773C70.7758 50.7151 70.688 50.4967 70.5124 50.2782C70.293 50.0598 70.0296 49.9724 69.6785 49.9724C69.1957 49.9724 68.8007 50.1909 68.4496 50.7151C67.9667 50.6278 67.5717 50.453 67.3084 50.1909C67.0011 49.9287 66.8695 49.6666 66.8695 49.3171C66.8695 49.0113 66.9573 48.7492 67.1328 48.5307C67.3084 48.3123 67.5717 48.1375 67.8351 48.0065C68.1423 47.8754 68.4496 47.7443 68.8007 47.7007C69.1518 47.657 69.5029 47.6133 69.8541 47.6133Z" fill="#377044"/>
<path d="M83.6153 37.3858V48.002C83.4398 48.0457 83.2642 48.0894 83.0447 48.1331C82.8692 48.1768 82.6058 48.2205 82.3425 48.2205C81.6841 48.2205 81.2452 48.0894 81.0257 47.9146C80.7624 47.6962 80.6746 47.3467 80.6746 46.8661V42.5847H77.6022C77.0755 42.5847 76.8122 42.8905 76.8122 43.4148V44.3759C76.6366 44.507 76.4172 44.5944 76.2416 44.638C76.0221 44.6817 75.8466 44.7254 75.5832 44.7254C75.1004 44.7254 74.6176 44.5507 74.2226 44.1575C73.8276 43.808 73.652 43.24 73.652 42.541C73.652 41.842 73.8715 41.2741 74.2665 40.8809C74.7054 40.4877 75.276 40.2692 76.0221 40.2692H80.6746V37.3858H73.0375C72.7303 37.3858 72.5109 37.2985 72.3792 37.08C72.2475 36.9053 72.2036 36.6431 72.2036 36.2499C72.2036 36.1189 72.2036 35.9441 72.2475 35.7257C72.2914 35.5072 72.3353 35.3325 72.3792 35.2451H84.9321C85.5026 35.2451 85.766 35.5946 85.766 36.2936C85.766 36.4684 85.766 36.6431 85.7221 36.8616C85.6782 37.08 85.6343 37.2548 85.5904 37.3858H83.6153Z" fill="#377044"/>
<path d="M89.5231 37.3866V48.0028C89.3475 48.0465 89.172 48.0902 88.9964 48.1339C88.7769 48.1775 88.5136 48.2212 88.2502 48.2212C87.5919 48.2212 87.153 48.0902 86.9335 47.9154C86.6702 47.697 86.5824 47.3475 86.5824 46.8669V37.3866H85.2217C84.9145 37.3866 84.6951 37.2992 84.5634 37.0808C84.4317 36.906 84.3878 36.6439 84.3878 36.2507C84.3878 36.1197 84.3878 35.9449 84.4317 35.7265C84.4756 35.508 84.5195 35.3333 84.5634 35.2459H86.6263C86.3629 34.809 86.0996 34.4158 85.7046 34.0663C85.3534 33.7168 84.9584 33.411 84.5634 33.1489C84.1245 32.8431 83.7294 32.6246 83.2905 32.4062C82.8955 32.2314 82.5005 32.0567 82.1494 31.9693C82.1055 31.8819 82.1055 31.8382 82.1055 31.7945C82.1055 31.7072 82.1055 31.6635 82.1055 31.5761C82.1055 31.0955 82.2371 30.6587 82.5005 30.3092C82.8077 29.9597 83.2028 29.7412 83.7733 29.7412C84.3 29.7412 84.7828 29.916 85.3095 30.2218C85.8362 30.5276 86.3629 30.9645 86.8457 31.445C87.3285 31.9693 87.7674 32.5809 88.1625 33.2362C88.6014 33.8916 88.9086 34.5469 89.172 35.2459H90.8398C91.4104 35.2459 91.6738 35.5954 91.6738 36.2944C91.6738 36.4692 91.6738 36.6439 91.6299 36.8624C91.586 37.0808 91.5421 37.2555 91.4543 37.3866H89.5231Z" fill="#377044"/>
<path d="M73.6479 59.4148C73.8674 59.3275 74.0868 59.2838 74.3502 59.2401C74.6135 59.1964 74.8769 59.1527 75.1402 59.1527C75.9742 59.1527 76.5887 59.3275 77.0276 59.7207C77.4226 60.0702 77.642 60.507 77.642 61.075C77.642 61.4245 77.5543 61.7303 77.4226 61.9924C77.247 62.2546 77.0715 62.473 76.8081 62.6478C76.5448 62.8225 76.1936 62.9536 75.8425 63.0409C75.4475 63.1283 75.0525 63.172 74.6135 63.172C74.5696 63.172 74.5258 63.172 74.5258 63.172C74.4819 63.172 74.438 63.172 74.3941 63.1283C74.6135 63.3468 74.8769 63.5652 75.1402 63.74C75.3597 63.9147 75.6669 64.1331 75.9742 64.3079C75.9303 64.57 75.8425 64.7885 75.6669 64.9632C75.5353 65.1817 75.2719 65.269 74.9647 65.269C74.6574 65.269 74.3941 65.138 74.1307 64.9195C73.8674 64.7011 73.604 64.3953 73.3407 63.9147L72.814 62.9973C72.419 62.9099 72.0678 62.7351 71.8484 62.5167C71.585 62.3419 71.4534 62.1235 71.4534 61.8614C71.4534 61.6429 71.5411 61.4682 71.6289 61.3371C71.7606 61.206 71.8923 61.1187 72.0678 61.0313C72.3312 61.2934 72.6823 61.5119 73.1212 61.7303C73.5601 61.9051 74.0429 61.9924 74.6135 61.9924C75.0963 61.9924 75.4475 61.9051 75.6669 61.7303C75.9303 61.5992 76.0181 61.3808 76.0181 61.1187C76.0181 60.5944 75.5791 60.3323 74.7452 60.3323C74.4819 60.3323 74.2624 60.3323 73.9991 60.4197C73.7357 60.4634 73.5162 60.507 73.2968 60.5944C73.1212 60.507 72.9018 60.4197 72.7262 60.3323C72.5067 60.2012 72.3312 60.0702 72.1556 59.8954C72.0239 59.7643 71.8484 59.5459 71.7606 59.3712C71.6289 59.1527 71.585 58.8906 71.585 58.6285C71.585 58.1042 71.7606 57.711 72.1117 57.4052C72.4629 57.0994 73.0334 56.9246 73.7357 56.9246H75.5353V55.9198H70.9267C70.5755 55.9198 70.4438 55.7014 70.4438 55.3082C70.4438 55.2208 70.4438 55.1334 70.4438 55.046C70.4877 54.915 70.4877 54.8276 70.5316 54.7402H78.1687C78.476 54.7402 78.6516 54.9587 78.6516 55.3519C78.6516 55.4392 78.6516 55.5266 78.6077 55.6577C78.6077 55.7451 78.5638 55.8324 78.5199 55.9198H77.0715V57.4926C77.0715 57.8421 76.852 58.0605 76.4131 58.0605H74.0868C73.7357 58.0605 73.5162 58.1042 73.3846 58.2353C73.2529 58.3663 73.209 58.4974 73.209 58.7158C73.209 58.8906 73.2529 59.0217 73.3407 59.109C73.4285 59.2401 73.5162 59.3275 73.6479 59.4148Z" fill="#373435"/>
<path d="M75.3325 52.6733C75.3325 52.4112 75.4203 52.1927 75.5959 52.018C75.7714 51.8432 75.9909 51.7559 76.2982 51.7559C76.6054 51.7559 76.8688 51.8432 77.0443 52.018C77.2199 52.1927 77.3077 52.4112 77.3077 52.6733C77.3077 52.9354 77.2199 53.1539 77.0443 53.3723C76.8688 53.5471 76.6054 53.6344 76.2982 53.6344C75.9909 53.6344 75.7714 53.5471 75.5959 53.3723C75.4203 53.1539 75.3325 52.9354 75.3325 52.6733Z" fill="#373435"/>
<path d="M80.8029 55.9192V63.0403C80.7151 63.0403 80.6273 63.0403 80.4956 63.084C80.4078 63.084 80.2762 63.1277 80.1006 63.1277C79.7934 63.1277 79.5739 63.0403 79.4422 62.953C79.3106 62.8219 79.2228 62.6472 79.2228 62.4287V55.9192H78.2133C78.0377 55.9192 77.906 55.8755 77.8621 55.7881C77.7744 55.6571 77.7305 55.526 77.7305 55.3076C77.7305 55.2202 77.7744 55.1328 77.7744 55.0455C77.7744 54.9144 77.8183 54.827 77.8183 54.7396H79.135C79.0472 54.6523 79.0033 54.4775 78.9594 54.3028C78.9155 54.0843 78.9155 53.9096 78.9155 53.6911C78.9155 52.9047 79.2228 52.2931 79.8373 51.8562C80.4517 51.3757 81.3296 51.1572 82.4269 51.1572C83.173 51.1572 83.8314 51.2446 84.4459 51.4194C85.0603 51.5941 85.587 51.7689 86.026 52.031C86.4649 52.2494 86.7721 52.5116 87.0355 52.7737C87.2549 53.0358 87.3866 53.2542 87.3866 53.429C87.3866 53.6038 87.2988 53.7785 87.1232 53.8659C86.9477 53.9969 86.7282 54.0843 86.421 54.0843C85.9821 53.5601 85.4115 53.1669 84.797 52.8611C84.1386 52.5552 83.3925 52.4242 82.5585 52.4242C81.9002 52.4242 81.4174 52.5552 81.0223 52.8174C80.6712 53.0358 80.4956 53.429 80.4956 53.9096C80.4956 54.0843 80.5395 54.2154 80.5395 54.3901C80.5834 54.5212 80.6273 54.6523 80.7151 54.7396H81.7685C82.0757 54.7396 82.2513 54.9581 82.2513 55.3513C82.2513 55.4386 82.2074 55.526 82.2074 55.6571C82.1635 55.7445 82.1635 55.8318 82.1196 55.9192H80.8029Z" fill="#373435"/>
<path d="M84.5776 59.4148C84.797 59.3275 85.0165 59.2838 85.2798 59.2401C85.5432 59.1964 85.8065 59.1527 86.0699 59.1527C86.9038 59.1527 87.5183 59.3275 87.9572 59.7207C88.3522 60.0702 88.5717 60.507 88.5717 61.075C88.5717 61.774 88.3083 62.2982 87.7377 62.6477C87.2111 63.0409 86.4649 63.2157 85.5432 63.2157C85.1482 63.2157 84.7532 63.172 84.3581 63.0846C83.9631 63.0409 83.6559 62.9536 83.3486 62.8225C83.0853 62.6914 82.8219 62.5604 82.6464 62.3856C82.4708 62.2109 82.383 62.0361 82.383 61.8177C82.383 61.6429 82.4708 61.4682 82.5586 61.3371C82.6903 61.206 82.8219 61.1187 82.9975 61.0313C83.2609 61.2934 83.612 61.5119 84.0509 61.6866C84.4898 61.9051 84.9726 61.9924 85.5432 61.9924C86.026 61.9924 86.3771 61.9051 86.5966 61.7303C86.8599 61.5992 86.9477 61.3808 86.9477 61.1187C86.9477 60.5944 86.5088 60.3323 85.6749 60.3323C85.4115 60.3323 85.1921 60.3323 84.9287 60.4197C84.6654 60.4634 84.4459 60.507 84.2265 60.5944C84.0509 60.507 83.8753 60.4197 83.6559 60.3323C83.4364 60.2012 83.2609 60.0702 83.0853 59.8954C82.9536 59.7643 82.7781 59.5459 82.6903 59.3712C82.5586 59.1527 82.5147 58.8906 82.5147 58.6285C82.5147 58.1042 82.6903 57.711 83.0414 57.4052C83.3925 57.0994 83.9631 56.9246 84.6654 56.9246H86.4649V55.9198H81.8563C81.5491 55.9198 81.3735 55.7014 81.3735 55.3082C81.3735 55.2208 81.3735 55.1334 81.3735 55.046C81.4174 54.915 81.4174 54.8276 81.4613 54.7402H89.0984C89.4056 54.7402 89.5812 54.9587 89.5812 55.3519C89.5812 55.4392 89.5812 55.5266 89.5812 55.6577C89.5373 55.7451 89.5373 55.8324 89.4934 55.9198H88.0011V57.4926C88.0011 57.8421 87.7816 58.0605 87.3427 58.0605H85.0165C84.6654 58.0605 84.4459 58.1042 84.3142 58.2353C84.1826 58.3663 84.1387 58.4974 84.1387 58.7158C84.1387 58.8906 84.1826 59.0217 84.2703 59.109C84.3581 59.2401 84.4459 59.3275 84.5776 59.4148Z" fill="#373435"/>
<path d="M96.5611 55.9198V63.0409C96.4733 63.0409 96.3855 63.0409 96.2539 63.0846C96.1661 63.0846 96.0344 63.1283 95.9027 63.1283C95.5516 63.1283 95.3322 63.0409 95.2005 62.9536C95.0688 62.8225 95.0249 62.6478 95.0249 62.4293V61.0313C94.7616 61.2497 94.4982 61.3808 94.191 61.4682C93.8837 61.5556 93.4887 61.6429 93.0937 61.6429C92.4353 61.6429 91.8648 61.4682 91.3381 61.206C90.8553 60.9439 90.4602 60.5944 90.153 60.1575C89.9774 59.8954 89.8458 59.6333 89.758 59.3275C89.6702 59.0653 89.6263 58.8032 89.6263 58.5848C89.6263 58.4974 89.6702 58.41 89.7141 58.3226C89.758 58.2353 89.8458 58.1916 89.9774 58.1479C90.548 58.1042 90.943 58.0168 91.2064 57.7984C91.4258 57.58 91.5575 57.3178 91.5575 57.012C91.5575 56.7499 91.5136 56.5314 91.382 56.3567C91.2503 56.1819 91.0747 56.0509 90.8553 55.9198H89.1874C88.8363 55.9198 88.7046 55.7014 88.7046 55.3082C88.7046 55.2208 88.7046 55.1334 88.7046 55.046C88.7485 54.915 88.7485 54.8276 88.7924 54.7402H97.5267C97.7023 54.7402 97.834 54.8276 97.8778 54.915C97.9656 55.0024 98.0095 55.1334 98.0095 55.3519C98.0095 55.4392 98.0095 55.5266 97.9656 55.6577C97.9656 55.7451 97.9217 55.8324 97.9217 55.9198H96.5611ZM93.2693 60.3323C93.6643 60.3323 94.0154 60.2886 94.2788 60.1139C94.586 59.9828 94.8494 59.808 95.0249 59.5896V55.9198H92.567C92.7426 56.0509 92.8743 56.2256 93.0059 56.4441C93.1376 56.6625 93.1815 56.9246 93.1815 57.1868C93.1815 57.4489 93.1376 57.711 93.0498 57.8858C92.9181 58.1042 92.7865 58.279 92.6109 58.4537C92.4353 58.6285 92.2598 58.7158 91.9964 58.8469C91.777 58.9343 91.5136 58.978 91.2503 59.0217C91.382 59.4148 91.6014 59.7207 91.9086 59.9391C92.2598 60.2012 92.6987 60.3323 93.2693 60.3323Z" fill="#373435"/>
<path d="M100.22 55.9198V63.0409C100.133 63.0409 100.045 63.0409 99.9571 63.0846C99.8254 63.0846 99.6937 63.1283 99.562 63.1283C99.2109 63.1283 98.9914 63.0409 98.8598 62.9536C98.7281 62.8225 98.6842 62.6478 98.6842 62.4293V55.9198H97.6747C97.4991 55.9198 97.3675 55.8761 97.2797 55.7887C97.2358 55.6577 97.1919 55.5266 97.1919 55.3082C97.1919 55.2208 97.1919 55.1334 97.1919 55.046C97.2358 54.915 97.2358 54.8276 97.2797 54.7402H101.186C101.493 54.7402 101.669 54.9587 101.669 55.3519C101.669 55.4392 101.669 55.5266 101.625 55.6577C101.625 55.7451 101.581 55.8324 101.581 55.9198H100.22Z" fill="#373435"/>
</svg>
