<?xml version="1.0" encoding="UTF-8"?>
<!DOCTYPE svg PUBLIC "-//W3C//DTD SVG 1.1//EN" "http://www.w3.org/Graphics/SVG/1.1/DTD/svg11.dtd">
<!-- Creator: CorelDRAW X7 -->
<svg xmlns="http://www.w3.org/2000/svg" xml:space="preserve" width="484px" height="611px" version="1.1" style="shape-rendering:geometricPrecision; text-rendering:geometricPrecision; image-rendering:optimizeQuality; fill-rule:evenodd; clip-rule:evenodd"
viewBox="0 0 9575 12084"
 xmlns:xlink="http://www.w3.org/1999/xlink">
 <defs>
  <style type="text/css">
   <![CDATA[
    .fil3 {fill:none}
    .fil5 {fill:#70342D}
    .fil16 {fill:#7A1C09}
    .fil14 {fill:#C4491C}
    .fil18 {fill:white}
    .fil19 {fill:#7A1C09;fill-rule:nonzero}
    .fil11 {fill:#F6DFB4;fill-rule:nonzero}
    .fil6 {fill:#FFEBBF;fill-rule:nonzero}
    .fil22 {fill:#FFF5DF;fill-rule:nonzero}
    .fil7 {fill:#FFF7EB;fill-rule:nonzero}
    .fil21 {fill:white;fill-rule:nonzero}
    .fil1 {fill:#FFF0D4;fill-rule:nonzero;fill-opacity:0.501961}
    .fil13 {fill:url(#id0)}
    .fil10 {fill:url(#id1)}
    .fil4 {fill:url(#id2)}
    .fil12 {fill:url(#id3)}
    .fil9 {fill:url(#id4)}
    .fil8 {fill:url(#id5)}
    .fil0 {fill:url(#id6)}
    .fil2 {fill:url(#id7)}
    .fil17 {fill:url(#id8)}
    .fil15 {fill:url(#id9)}
    .fil23 {fill:url(#id10)}
    .fil20 {fill:url(#id11);fill-rule:nonzero}
   ]]>
  </style>
  <linearGradient id="id0" gradientUnits="userSpaceOnUse" x1="4787.75" y1="2098.23" x2="4787.75" y2="7751.59">
   <stop offset="0" style="stop-opacity:1; stop-color:#F4D8BA"/>
   <stop offset="0.278431" style="stop-opacity:1; stop-color:#F28F1D"/>
   <stop offset="0.541176" style="stop-opacity:1; stop-color:#BF391B"/>
   <stop offset="1" style="stop-opacity:1; stop-color:#D9601F"/>
  </linearGradient>
  <linearGradient id="id1" gradientUnits="userSpaceOnUse" x1="4787.66" y1="2119.2" x2="4787.75" y2="8000.71">
   <stop offset="0" style="stop-opacity:1; stop-color:#F08B18"/>
   <stop offset="0.470588" style="stop-opacity:1; stop-color:#AB1916"/>
   <stop offset="1" style="stop-opacity:1; stop-color:#D95E1C"/>
  </linearGradient>
  <linearGradient id="id2" gradientUnits="userSpaceOnUse" x1="4805.57" y1="424.21" x2="4805.57" y2="9554.04">
   <stop offset="0" style="stop-opacity:1; stop-color:#FFD991"/>
   <stop offset="0.258824" style="stop-opacity:1; stop-color:#EC9A3E"/>
   <stop offset="0.611765" style="stop-opacity:1; stop-color:#A12224"/>
   <stop offset="1" style="stop-opacity:1; stop-color:#CF5A1B"/>
  </linearGradient>
  <linearGradient id="id3" gradientUnits="userSpaceOnUse" x1="4786.47" y1="8304.46" x2="4786.56" y2="4787.66">
   <stop offset="0" style="stop-opacity:1; stop-color:#F6DFB4"/>
   <stop offset="1" style="stop-opacity:1; stop-color:#BC3416"/>
  </linearGradient>
  <linearGradient id="id4" gradientUnits="userSpaceOnUse" x1="8924.1" y1="4009.32" x2="8928.82" y2="5373.27">
   <stop offset="0" style="stop-opacity:1; stop-color:#FCE0AB"/>
   <stop offset="1" style="stop-opacity:1; stop-color:#D15C1E"/>
  </linearGradient>
  <linearGradient id="id5" gradientUnits="userSpaceOnUse" xlink:href="#id4" x1="797.671" y1="4009.32" x2="802.388" y2="5373.27">
  </linearGradient>
  <linearGradient id="id6" gradientUnits="userSpaceOnUse" x1="7235.93" y1="8774.07" x2="4822.83" y2="9123.48">
   <stop offset="0" style="stop-opacity:1; stop-color:red"/>
   <stop offset="1" style="stop-opacity:1; stop-color:#B00205"/>
  </linearGradient>
  <linearGradient id="id7" gradientUnits="userSpaceOnUse" x1="2405.76" y1="9569.62" x2="4350.28" y2="8330.36">
   <stop offset="0" style="stop-opacity:1; stop-color:#B00205"/>
   <stop offset="1" style="stop-opacity:1; stop-color:red"/>
  </linearGradient>
  <linearGradient id="id8" gradientUnits="userSpaceOnUse" x1="3628.34" y1="5756.68" x2="3628.6" y2="2908.3">
   <stop offset="0" style="stop-opacity:1; stop-color:#E3A96A"/>
   <stop offset="1" style="stop-opacity:1; stop-color:#FCE0AB"/>
  </linearGradient>
  <linearGradient id="id9" gradientUnits="userSpaceOnUse" x1="5069.59" y1="2119.09" x2="5069.69" y2="7519.71">
   <stop offset="0" style="stop-opacity:1; stop-color:#FFF4DF"/>
   <stop offset="1" style="stop-opacity:1; stop-color:#D65B1E"/>
  </linearGradient>
  <radialGradient id="id10" gradientUnits="userSpaceOnUse" gradientTransform="matrix(7.92932E-017 1.29496 -1.29498 7.9295E-017 13319 305)" cx="4827.99" cy="6556.87" r="2548.2" fx="4827.99" fy="6556.87">
   <stop offset="0" style="stop-opacity:1; stop-color:#FEFEFE"/>
   <stop offset="0.878431" style="stop-opacity:1; stop-color:#F2D5B8"/>
   <stop offset="1" style="stop-opacity:1; stop-color:#E6AC73"/>
  </radialGradient>
  <linearGradient id="id11" gradientUnits="userSpaceOnUse" x1="4563.88" y1="1064.05" x2="4563.88" y2="428.414">
   <stop offset="0" style="stop-opacity:1; stop-color:#F4D8BA"/>
   <stop offset="0.560784" style="stop-opacity:1; stop-color:#F9EBDC"/>
   <stop offset="1" style="stop-opacity:1; stop-color:white"/>
  </linearGradient>
 </defs>
 <g id="Layer_x0020_1">
  <metadata id="CorelCorpID_0Corel-Layer"/>
  <g id="_874645600">
   <g>
    <g>
     <path class="fil0" d="M4728 9283l-456 94 -126 25 -85 18 -76 15 -37 8 -10 2 36 63 757 1315 694 1205c39,60 84,75 139,25l937 -1143c25,-47 62,-81 128,-87l1453 -242c95,-6 117,-54 67,-144l-880 -1552 -30 -52 -4 -8 -16 -28 -12 -21 -16 3 -125 25 -67 14 -43 9 -2228 456z"/>
     <path class="fil1" d="M6993 8891l36 -21 -41 -71 -36 21 41 71zm-2853 520l-36 21 41 71 36 -20 -41 -72zm82 143l-36 21 41 71 36 -20 -41 -72zm82 143l-36 21 41 71 36 -20 -41 -72zm82 143l-35 21 41 71 35 -20 -41 -72zm82 143l-35 20 41 72 35 -21 -41 -71zm83 143l-36 20 41 72 36 -21 -41 -71zm82 143l-36 20 41 72 36 -21 -41 -71zm82 143l-36 20 41 72 36 -21 -41 -71zm82 142l-36 21 41 71 36 -20 -41 -72zm82 143l-36 21 41 71 36 -20 -41 -72zm82 143l-36 21 41 71 36 -20 -41 -72zm82 143l-36 21 42 71 35 -20 -41 -72zm82 143l-35 21 41 71 35 -21 -41 -71zm82 143l-35 20 41 72 35 -21 -41 -71zm83 143l-36 20 41 72 36 -21 -41 -71zm82 143l-36 20 41 72 36 -21 -41 -71zm82 142l-36 21 41 71 36 -20 -41 -72zm50 120l32 26 52 -63 -31 -26 -53 63zm106 -126l31 26 53 -63 -32 -27 -52 64zm105 -127l32 26 53 -63 -32 -26 -53 63zm106 -126l31 26 53 -63 -31 -27 -53 64zm105 -127l32 26 53 -63 -32 -26 -53 63zm106 -126l32 26 52 -63 -31 -27 -53 64zm106 -127l31 26 53 -63 -32 -26 -52 63zm105 -126l32 26 53 -63 -32 -27 -53 64zm106 -127l31 26 53 -63 -31 -26 -53 63zm105 -126l6 5 15 26 79 -13 -7 -40 -86 13 -7 9zm175 -35l6 40 82 -13 -7 -40 -81 13zm162 -27l7 41 81 -13 -6 -41 -82 13zm163 -26l7 41 81 -13 -7 -41 -81 13zm163 -26l6 41 82 -13 -7 -41 -81 13zm163 -26l6 41 81 -13 -6 -41 -81 13zm162 -26l7 41 81 -13 -6 -41 -82 13zm163 -26l6 41 82 -13 -7 -41 -81 13zm163 -26l6 41 81 -13 -6 -41 -81 13zm134 -2l36 -20 -41 -72 -36 21 41 71zm-82 -142l35 -21 -41 -71 -36 20 42 72zm-83 -143l36 -20 -42 -72 -35 21 41 71zm-83 -142l36 -21 -41 -71 -36 20 41 72zm-82 -143l35 -21 -41 -71 -36 21 42 71zm-83 -143l36 -20 -42 -72 -35 21 41 71zm-83 -142l36 -21 -41 -71 -36 21 41 71zm-82 -143l35 -20 -41 -72 -36 21 42 71zm-83 -142l36 -21 -42 -71 -35 20 41 72zm-82 -143l35 -20 -41 -72 -36 21 42 71zm-83 -142l36 -21 -42 -71 -35 20 41 72z"/>
     <path class="fil2" d="M2254 8777c-314,553 -627,1107 -941,1661 -51,90 -29,138 67,144 484,81 968,161 1452,242 66,6 104,40 128,88 313,381 625,762 938,1143 54,49 100,35 139,-26 495,-861 991,-1722 1487,-2583 -1090,-223 -2180,-446 -3270,-669z"/>
     <path class="fil1" d="M2457 8870l-36 -21 41 -71 36 21 -41 71zm2853 520l36 21 -41 71 -36 -20 41 -72zm-82 143l36 21 -41 71 -36 -20 41 -72zm-82 143l36 21 -41 71 -36 -21 41 -71zm-82 143l35 20 -41 72 -35 -21 41 -71zm-82 143l35 20 -41 72 -35 -21 41 -71zm-82 143l35 20 -41 72 -36 -21 42 -71zm-83 143l36 20 -41 72 -36 -21 41 -71zm-82 142l36 21 -41 71 -36 -20 41 -72zm-82 143l36 21 -41 71 -36 -20 41 -72zm-82 143l36 21 -41 71 -36 -20 41 -72zm-82 143l36 21 -41 71 -36 -20 41 -72zm-82 143l36 20 -41 72 -36 -21 41 -71zm-82 143l35 20 -41 72 -35 -21 41 -71zm-82 143l35 20 -41 72 -35 -21 41 -71zm-83 143l36 20 -41 72 -36 -21 41 -71zm-82 142l36 21 -41 71 -36 -20 41 -72zm-82 143l36 21 -41 71 -36 -20 41 -72zm-50 120l-31 26 -53 -63 31 -26 53 63zm-105 -127l-32 27 -53 -63 32 -27 53 63zm-106 -126l-32 26 -52 -63 31 -26 53 63zm-106 -127l-31 27 -53 -63 32 -27 52 63zm-105 -126l-32 26 -53 -63 32 -26 53 63zm-106 -127l-32 27 -52 -63 31 -27 53 63zm-106 -126l-31 26 -53 -63 32 -26 52 63zm-105 -127l-32 27 -53 -63 32 -27 53 63zm-106 -126l-31 26 -53 -63 31 -26 53 63zm-105 -127l-6 6 -15 26 -79 -13 7 -41 86 14 7 8zm-175 -35l-6 41 -81 -13 6 -41 81 13zm-162 -26l-7 41 -81 -13 6 -41 82 13zm-163 -26l-7 41 -81 -13 7 -41 81 13zm-163 -26l-6 41 -82 -13 7 -41 81 13zm-163 -26l-6 41 -81 -13 6 -41 81 13zm-162 -26l-7 41 -81 -13 6 -41 82 13zm-163 -26l-6 41 -82 -13 7 -41 81 13zm-163 -26l-6 41 -81 -13 6 -41 81 13zm-134 -2l-36 -20 42 -72 35 21 -41 71zm83 -142l-36 -21 41 -71 36 20 -41 72zm82 -143l-35 -21 41 -71 35 21 -41 71zm83 -143l-36 -20 41 -72 36 21 -41 71zm82 -142l-35 -21 41 -71 36 21 -42 71zm83 -143l-36 -20 42 -72 35 21 -41 71zm83 -142l-36 -21 41 -71 36 20 -41 72zm82 -143l-35 -21 41 -71 36 21 -42 71zm83 -142l-36 -21 42 -71 35 20 -41 72zm83 -143l-36 -21 41 -71 36 21 -41 71zm82 -143l-35 -20 41 -71 35 20 -41 71z"/>
    </g>
    <g>
     <circle class="fil3" cx="4788" cy="4751" r="4751"/>
     <path class="fil4" d="M4788 0c2644,0 4787,2143 4787,4788 0,2644 -2143,4787 -4787,4787 -2645,0 -4788,-2143 -4788,-4787 0,-2645 2143,-4788 4788,-4788zm0 1306c1923,0 3482,1559 3482,3482 0,1923 -1559,3482 -3482,3482 -1923,0 -3482,-1559 -3482,-3482 0,-1923 1559,-3482 3482,-3482z"/>
     <path class="fil5" d="M828 5588c-26,-131 -46,-264 -59,-397 -13,-133 -19,-267 -19,-401 0,-134 6,-268 19,-401 13,-133 33,-266 59,-397 5,-21 -9,-42 -31,-46 -21,-5 -42,9 -46,31 -27,133 -47,268 -60,404 -14,136 -20,273 -20,409 0,137 6,273 20,409 13,136 33,271 60,404 4,22 25,36 46,32 22,-5 36,-26 31,-47z"/>
     <path class="fil6" d="M4788 60c1305,0 2487,529 3343,1385 855,855 1385,2037 1385,3343 0,1305 -530,2487 -1385,3343 -856,855 -2038,1385 -3343,1385 -1306,0 -2488,-530 -3343,-1385 -856,-856 -1385,-2038 -1385,-3343 0,-1306 529,-2488 1385,-3343 855,-856 2037,-1385 3343,-1385zm3314 1414c-848,-848 -2020,-1373 -3314,-1373 -1295,0 -2466,525 -3314,1373 -848,848 -1373,2019 -1373,3314 0,1294 525,2465 1373,3314 848,848 2019,1372 3314,1372 1294,0 2466,-524 3314,-1372 848,-849 1372,-2020 1372,-3314 0,-1295 -524,-2466 -1372,-3314z"/>
     <path class="fil7" d="M4788 131c1286,0 2450,521 3293,1364 842,842 1364,2007 1364,3293 0,1286 -522,2450 -1364,3293 -843,842 -2007,1364 -3293,1364 -1286,0 -2451,-522 -3293,-1364 -843,-843 -1364,-2007 -1364,-3293 0,-1286 521,-2451 1364,-3293 842,-843 2007,-1364 3293,-1364zm3264 1393c-836,-836 -1990,-1352 -3264,-1352 -1275,0 -2429,516 -3264,1352 -836,835 -1352,1989 -1352,3264 0,1274 516,2428 1352,3264 835,835 1989,1352 3264,1352 1274,0 2428,-517 3264,-1352 835,-836 1352,-1990 1352,-3264 0,-1275 -517,-2429 -1352,-3264z"/>
     <path class="fil5" d="M8803 3992c26,131 46,264 59,397 13,133 19,267 19,401 0,134 -6,268 -19,401 -13,134 -33,266 -59,397 -4,21 10,42 31,47 22,4 42,-10 47,-31 26,-134 46,-269 60,-405 13,-136 20,-272 20,-409 0,-136 -7,-273 -20,-409 -14,-136 -34,-271 -60,-404 -5,-22 -25,-36 -47,-31 -21,4 -35,25 -31,46z"/>
     <path class="fil8" d="M803 5586c-26,-132 -46,-264 -59,-397 -13,-133 -20,-267 -20,-401 0,-134 7,-268 20,-402 13,-133 33,-265 59,-396 4,-22 -10,-43 -31,-47 -22,-4 -42,10 -47,31 -26,134 -46,269 -60,405 -13,136 -20,272 -20,409 0,136 7,273 20,409 14,135 34,270 60,404 5,21 25,35 47,31 21,-4 35,-25 31,-46z"/>
     <path class="fil9" d="M8772 3990c27,131 46,263 59,396 14,134 20,268 20,402 0,134 -6,268 -20,401 -13,133 -32,265 -59,397 -4,21 10,42 31,46 22,4 43,-10 47,-31 27,-134 47,-269 60,-404 13,-136 20,-273 20,-409 0,-137 -7,-273 -20,-409 -13,-136 -33,-271 -60,-405 -4,-21 -25,-35 -47,-31 -21,4 -35,25 -31,47z"/>
     <circle class="fil10" cx="4788" cy="4788" r="3485"/>
     <path class="fil11" d="M7664 3663c-15,-38 -74,-29 -74,14 0,5 1,9 3,14 9,23 18,47 26,70 17,45 84,25 73,-22l-1 -4c-9,-24 -18,-48 -27,-72zm-5672 4c6,-17 1,-34 -14,-45 -21,-14 -47,-6 -57,17 -10,24 -19,48 -28,72 -15,39 37,72 66,36 2,-3 4,-6 6,-10 8,-23 17,-46 27,-70zm-119 357c12,-40 -45,-68 -69,-29 -2,4 -3,6 -4,10 -7,25 -13,50 -19,75 -10,46 58,67 74,19 6,-25 12,-50 18,-75zm-72 369c6,-46 -62,-62 -75,-14l-1 4c-3,26 -6,51 -9,77 -1,14 5,27 16,35 23,17 57,1 60,-27 3,-25 6,-50 9,-75zm-26 375c0,-40 -55,-54 -73,-16 -2,6 -3,10 -3,15 0,26 0,52 0,78 2,48 72,50 76,1 1,-26 0,-52 0,-78zm21 375c-6,-47 -76,-44 -76,6 2,26 7,54 11,80 1,8 5,17 12,22 27,24 68,2 63,-33 -4,-25 -7,-50 -10,-75zm68 370c-13,-48 -83,-32 -74,17 6,25 13,51 20,76 11,43 77,34 74,-13 0,-3 0,-5 -1,-8 -7,-24 -13,-48 -19,-72zm113 358c-14,-37 -71,-29 -73,13 0,5 0,10 2,15 10,24 19,48 29,71 8,18 27,28 45,22 22,-6 34,-30 25,-51 -9,-23 -19,-47 -28,-70zm157 342c-22,-41 -84,-14 -70,30 1,2 2,4 3,6 12,23 25,45 37,68 20,35 77,18 71,-26 -1,-5 -2,-8 -5,-12 -12,-19 -25,-46 -36,-66zm198 319c-23,-33 -78,-10 -68,32 1,5 3,8 6,13 15,21 30,41 45,62 28,36 84,2 65,-39 -1,-2 -2,-5 -4,-7 -15,-20 -30,-40 -44,-61zm236 293c-30,-32 -82,3 -62,44 2,3 4,5 6,8 17,18 35,37 53,56 32,32 84,-8 58,-49 -1,-1 -2,-3 -4,-4 -17,-18 -34,-37 -51,-55zm271 260c-25,-22 -66,-1 -63,32 1,11 6,20 14,27 19,16 39,33 59,49 18,14 44,10 56,-10 11,-16 7,-38 -8,-50 -20,-16 -39,-31 -58,-48zm301 225c-16,-11 -37,-8 -49,7 -15,17 -11,45 8,57 21,14 43,27 65,41 35,22 77,-22 49,-58 -3,-3 -6,-5 -9,-7 -22,-13 -43,-26 -64,-40zm327 185c-40,-19 -75,35 -40,64 2,2 5,3 7,5 23,11 47,22 70,32 43,19 75,-39 37,-66 -1,-1 -3,-2 -6,-3 -22,-10 -45,-21 -68,-32zm348 144c-44,-15 -71,46 -31,69 2,1 4,2 6,3 25,8 49,16 74,24 42,13 70,-47 29,-70 -2,-1 -4,-2 -7,-3 -24,-8 -47,-15 -71,-23zm362 99c-39,-9 -65,45 -27,70 4,2 7,3 12,5 25,5 50,10 76,14 44,8 64,-55 20,-73 -2,-1 -5,-1 -7,-2 -24,-4 -49,-9 -74,-14zm372 53c-43,-4 -58,60 -14,75 3,0 6,1 8,1 26,2 52,4 78,5 42,2 56,-57 15,-74 -4,-1 -8,-2 -12,-2 -25,-1 -50,-3 -75,-5zm376 6c-42,2 -50,63 -8,75 4,1 7,1 12,1 26,-1 51,-2 77,-4 46,-4 48,-72 -1,-76 -1,0 -3,0 -5,0 -25,2 -50,3 -75,4zm374 -41c-44,8 -41,74 6,76 2,0 5,0 7,-1 25,-4 51,-9 76,-14 48,-11 35,-81 -14,-75 -25,5 -50,10 -75,14zm366 -87c-46,15 -30,83 18,74 26,-6 53,-16 77,-24 39,-13 33,-72 -11,-74 -5,0 -8,0 -13,2 -24,7 -48,15 -71,22zm352 -131c-39,16 -25,77 20,72 4,0 7,-1 11,-3 23,-10 47,-21 70,-32 8,-4 15,-11 19,-20 13,-33 -21,-64 -52,-49 -23,11 -45,21 -68,32zm333 -175c-39,25 -11,83 32,69 3,-1 5,-2 7,-4 22,-13 44,-26 66,-40 34,-22 15,-76 -27,-70 -5,1 -10,3 -15,6 -21,13 -42,26 -63,39zm308 -214c-32,26 -5,80 38,66 4,-2 6,-4 10,-6 20,-16 40,-32 60,-49 11,-10 16,-25 12,-39 -8,-27 -40,-37 -61,-19 -20,16 -39,32 -59,47zm280 -251c-30,30 7,82 47,59 3,-2 5,-3 7,-6 18,-18 36,-37 54,-55 31,-35 -14,-84 -51,-57 -2,2 -3,3 -5,5 -17,18 -34,36 -52,54zm246 -284c-25,32 13,78 51,55 4,-3 7,-6 10,-9 15,-21 31,-41 46,-62 26,-39 -24,-81 -58,-50 -2,2 -3,4 -4,5 -15,21 -30,41 -45,61zm208 -313c-23,42 36,80 65,41 13,-22 26,-47 39,-70 21,-39 -32,-78 -63,-43 -1,2 -3,4 -4,6 -12,22 -24,44 -37,66zm168 -336c-17,39 36,73 65,38 2,-3 4,-5 5,-9 10,-23 20,-47 30,-71 16,-42 -41,-72 -67,-36 -2,3 -3,5 -4,8 -10,22 -19,47 -29,70zm125 -355c-4,17 2,34 17,43 21,13 50,2 57,-22 7,-25 13,-50 20,-75 10,-37 -39,-65 -67,-33 -3,5 -5,9 -7,15 -6,24 -13,48 -20,72zm80 -367c-5,41 47,60 70,26 3,-4 5,-9 5,-15 4,-25 8,-51 11,-76 6,-43 -54,-61 -73,-20 -1,4 -2,7 -2,10 -4,25 -7,50 -11,75zm34 -374c-2,40 54,54 72,17 3,-6 4,-10 4,-16 0,-25 1,-51 1,-77 0,-39 -53,-53 -72,-16 -3,5 -4,10 -4,16 0,25 -1,50 -1,76zm-14 -376c4,42 68,47 76,2 0,-3 0,-6 0,-10 -2,-25 -5,-51 -8,-76 -6,-46 -74,-44 -76,4 0,2 0,3 0,5 3,25 6,50 8,75zm-60 -371c10,45 79,36 75,-13l-1 -4c-5,-25 -11,-50 -18,-75 -12,-47 -83,-32 -74,17 6,25 13,50 18,75z"/>
     <path class="fil12" d="M4788 1291c965,0 1839,392 2472,1024 633,633 1024,1507 1024,2473 0,965 -391,1839 -1024,2472 -633,633 -1507,1024 -2472,1024 -966,0 -1840,-391 -2473,-1024 -632,-633 -1024,-1507 -1024,-2472 0,-966 392,-1840 1024,-2473 633,-632 1507,-1024 2473,-1024zm0 42c1908,0 3455,1546 3455,3455 0,1908 -1547,3455 -3455,3455 -1908,0 -3455,-1547 -3455,-3455 0,-1909 1547,-3455 3455,-3455z"/>
     <circle class="fil13" cx="4788" cy="4788" r="2689"/>
     <path class="fil14" d="M4788 1291c1929,0 3494,1561 3494,3486 0,14 -1,29 -1,43 -23,-1905 -1578,-3442 -3493,-3442 -1916,0 -3471,1537 -3494,3442 0,-14 0,-29 0,-43 0,-1925 1564,-3486 3494,-3486z"/>
    </g>
   </g>
   <path class="fil15" d="M4788 2101c741,0 1413,301 1899,787 486,486 787,1158 787,1900 0,741 -301,1413 -787,1899 -486,486 -1158,787 -1899,787 -742,0 -1414,-301 -1900,-787 -486,-486 -787,-1158 -787,-1899 0,-742 301,-1414 787,-1900 486,-486 1158,-787 1900,-787zm0 41c1461,0 2645,1185 2645,2646 0,1461 -1184,2645 -2645,2645 -1461,0 -2646,-1184 -2646,-2645 0,-1461 1185,-2646 2646,-2646z"/>
  </g>
  <path class="fil16" d="M6593 5003l0 264c-3,0 -7,1 -11,2 -4,1 -9,1 -14,1 -12,0 -21,-2 -26,-6 -4,-4 -7,-11 -7,-20l0 -241 -28 0 -9 0 0 0 -41 0 0 264c-2,0 -6,1 -10,2 -4,1 -8,1 -14,1 -12,0 -20,-2 -25,-6 -5,-4 -7,-11 -7,-20l0 -51c-9,7 -20,13 -31,16 -12,4 -25,6 -40,6 -25,0 -46,-5 -64,-15 -19,-10 -33,-24 -44,-40 -6,-9 -11,-19 -14,-30 -4,-10 -5,-20 -5,-27 0,-4 0,-8 2,-11 2,-3 5,-5 10,-5 20,-2 35,-7 45,-14 9,-7 14,-17 14,-30 0,-9 -2,-17 -7,-24 -5,-6 -11,-12 -19,-16l-51 0 -12 0 -43 0 0 58c0,14 -8,22 -24,22l-87 0c-11,0 -20,2 -25,6 -4,5 -7,11 -7,18 0,6 2,11 5,15 3,4 7,7 11,10 9,-2 18,-4 27,-6 9,-2 19,-2 30,-2 30,0 52,6 68,19 15,14 23,31 23,51 0,27 -10,46 -30,59 -20,14 -47,20 -81,20 -15,0 -30,-1 -44,-4 -14,-2 -26,-6 -37,-10 -11,-4 -19,-10 -26,-16 -6,-6 -10,-13 -10,-20 0,-8 3,-14 7,-19 4,-5 9,-8 15,-11 10,10 23,18 39,25 16,7 34,10 55,10 18,0 31,-3 40,-9 8,-6 13,-14 13,-23 0,-20 -16,-29 -48,-29 -9,0 -18,1 -27,2 -9,2 -18,4 -26,7 -7,-2 -14,-5 -21,-10 -8,-4 -14,-9 -21,-15 -6,-6 -11,-12 -15,-20 -4,-8 -6,-17 -6,-27 0,-19 6,-34 20,-46 13,-12 33,-17 59,-17l66 0 0 -38 -159 0 -11 0 -39 0 0 264c-3,0 -6,1 -10,2 -4,1 -9,1 -15,1 -12,0 -20,-2 -25,-6 -5,-4 -7,-11 -7,-20l0 -241 -26 0 -11 0 -1 0 -42 0 0 58c0,14 -8,22 -24,22l-87 0c-12,0 -20,2 -25,6 -5,5 -7,11 -7,18 0,6 2,11 5,15 3,4 7,7 11,10 8,-2 17,-4 27,-6 9,-2 19,-2 29,-2 30,0 53,6 69,19 15,14 23,31 23,51 0,13 -3,25 -8,34 -6,10 -14,18 -23,25 -10,6 -22,11 -36,14 -13,3 -28,5 -45,5 -1,0 -3,0 -4,0 -1,0 -2,-1 -4,-1 9,8 18,15 27,22 9,7 20,14 31,21 -1,10 -4,18 -10,25 -6,7 -15,10 -26,10 -12,0 -22,-4 -32,-12 -9,-7 -19,-20 -28,-37l-20 -34c-15,-4 -27,-10 -36,-17 -9,-8 -14,-16 -14,-26 0,-7 2,-14 7,-19 4,-5 9,-8 15,-11 10,10 24,18 39,25 16,7 34,10 55,10 17,0 31,-3 39,-9 9,-6 13,-14 13,-23 0,-20 -15,-29 -47,-29 -9,0 -18,1 -27,2 -10,2 -18,4 -26,7 -7,-2 -14,-5 -22,-10 -7,-4 -14,-9 -20,-15 -6,-6 -11,-12 -15,-20 -4,-8 -6,-17 -6,-27 0,-19 6,-34 19,-46 14,-12 33,-17 59,-17l67 0 0 -38 -170 0c-12,0 -18,-7 -18,-22 0,-3 0,-6 1,-10 1,-5 2,-8 3,-11l269 0 12 0 36 0c-2,-4 -5,-10 -6,-17 -2,-7 -3,-15 -3,-22 0,-29 12,-52 35,-69 23,-17 55,-25 96,-25 27,0 52,3 74,9 23,6 42,14 58,23 16,9 28,18 37,28 9,9 13,17 13,24 0,7 -3,13 -9,17 -7,4 -15,7 -26,7 -17,-19 -37,-34 -60,-45 -24,-11 -51,-17 -82,-17 -25,0 -43,5 -57,15 -13,9 -19,23 -19,41 0,6 0,11 1,17 2,6 3,10 6,14l28 0 11 0 259 0 12 0 301 0 9 0 135 0c12,0 18,8 18,22 0,3 0,7 -1,11 -1,4 -2,8 -3,10l-49 0zm-2361 151c-88,0 -173,2 -258,0 -61,-2 -102,-48 -102,-110 -1,-261 -1,-523 0,-785 0,-62 46,-106 107,-107 210,0 420,0 631,0 57,1 104,41 105,96 2,140 1,279 1,419 -33,-17 -66,-31 -97,-49 -6,-4 -7,-18 -7,-28 -1,-100 -1,-201 -1,-301l0 -32 -631 0 0 791c59,0 117,1 174,0 18,-1 27,4 34,21 12,28 27,54 44,85zm433 -210c-1,-87 -73,-160 -160,-160 -85,0 -159,73 -159,157 0,89 74,163 161,161 86,-1 158,-74 158,-158zm61 147c50,48 99,95 147,140 -27,27 -50,50 -76,76 -33,-31 -70,-65 -104,-102 -26,-29 -46,-38 -88,-20 -98,43 -193,27 -274,-45 -80,-72 -108,-164 -79,-268 30,-105 103,-170 209,-188 103,-17 192,17 255,102 62,85 68,177 27,273 -5,10 -10,18 -17,32zm196 1058c-782,0 -1415,-633 -1415,-1415 0,-782 633,-1416 1415,-1416 487,0 917,247 1172,622l184 0c-273,-465 -778,-777 -1356,-777 -867,0 -1571,703 -1571,1571 0,499 233,944 597,1232l-230 749 581 -539c191,83 402,129 623,129 609,0 1136,-346 1397,-852l-178 0c-246,417 -700,696 -1219,696zm112 273c-244,0 -476,-44 -690,-125l-247 181c207,82 433,126 670,126 416,0 801,-139 1109,-372 -252,121 -538,190 -842,190zm-1209 -425c-385,-315 -628,-778 -628,-1294 0,-950 823,-1719 1837,-1719 76,0 149,4 222,12 -156,-43 -320,-66 -489,-66 -1015,0 -1837,823 -1837,1837 0,648 334,1217 840,1544l55 -314zm1570 -1679l0 103c0,24 -13,36 -39,36l-88 0c-28,0 -50,6 -67,19 -17,13 -25,32 -25,58 0,26 8,46 24,60 16,14 36,21 60,21 31,0 47,-12 47,-35 0,-6 -1,-12 -2,-18 -1,-6 -3,-12 -4,-18 5,-7 13,-12 23,-16 10,-3 21,-5 33,-5 19,0 36,6 50,19 14,13 21,30 21,53 0,15 -3,28 -10,39 -6,12 -14,22 -24,31 12,20 23,38 34,52 12,15 22,27 33,37 -3,17 -10,29 -22,39 -12,9 -27,13 -43,13 -18,0 -33,-5 -44,-17 -12,-11 -20,-27 -25,-48l-10 -46 -10 2c-6,1 -13,2 -20,3 -7,2 -16,2 -26,2 -28,0 -53,-3 -77,-10 -24,-7 -44,-18 -62,-32 -17,-14 -31,-32 -42,-53 -10,-21 -15,-46 -15,-74 0,-23 4,-44 12,-63 7,-20 19,-37 34,-52 16,-14 35,-26 58,-34 23,-9 50,-13 80,-13l38 0 0 -53 -247 0c-12,0 -20,-3 -25,-10 -4,-7 -6,-17 -6,-31 0,-5 0,-12 1,-20 2,-7 3,-13 5,-18l272 0c-8,-12 -16,-24 -27,-35 -14,-14 -28,-27 -45,-39 -16,-11 -32,-21 -48,-29 -17,-8 -32,-14 -46,-18 -1,-2 -1,-5 -1,-7 0,-2 0,-5 0,-7 0,-18 5,-34 15,-47 9,-14 25,-21 46,-21 20,0 40,7 60,19 20,13 40,29 58,49 19,21 35,44 50,69 12,22 23,44 31,66l63 0 12 0 642 0 13 0 63 0c-9,-15 -20,-30 -34,-43 -13,-12 -27,-24 -43,-35 -15,-10 -30,-19 -45,-26 -16,-8 -30,-13 -44,-17 0,-2 0,-5 0,-7 0,-2 0,-5 0,-7 0,-18 5,-34 15,-47 9,-14 25,-21 46,-21 19,0 38,6 57,17 20,12 38,27 56,46 18,19 34,41 49,65 15,25 27,49 37,75l62 0c20,0 31,13 31,40 0,5 -1,12 -2,20 -2,9 -4,15 -6,19l-72 0 0 395c-6,2 -13,3 -20,5 -8,1 -17,2 -27,2 -24,0 -40,-4 -49,-11 -9,-8 -13,-21 -13,-38l0 -353 -38 0 -12 0 0 0 -60 0 0 395c-6,2 -12,3 -20,5 -8,1 -17,2 -27,2 -24,0 -40,-4 -49,-11 -8,-8 -13,-21 -13,-38l0 -77c-19,8 -43,13 -72,13 -17,0 -35,-3 -51,-9 -17,-5 -32,-13 -45,-24 -13,-11 -23,-24 -31,-40 -7,-16 -11,-34 -11,-54 0,-20 3,-37 10,-52 6,-15 15,-27 26,-37 11,-10 24,-18 39,-23 14,-5 30,-7 46,-7 22,0 38,4 49,13 11,8 17,19 17,33 0,15 -5,27 -14,36 -7,-2 -16,-4 -26,-4 -13,0 -25,4 -34,12 -9,7 -14,19 -14,33 0,14 6,25 16,33 11,8 25,13 41,13 11,0 21,-2 31,-5 9,-3 17,-7 23,-12l0 -195 -265 0c10,12 17,25 22,39 6,15 9,30 9,46 0,34 -10,63 -28,85 -18,22 -42,37 -72,46 16,29 39,52 70,69 32,17 67,26 106,29 3,9 4,18 4,27 0,19 -6,33 -17,44 -11,11 -28,16 -49,16 -24,0 -47,-4 -69,-13 -21,-9 -41,-21 -58,-36 -18,-16 -33,-34 -47,-55 -13,-21 -24,-43 -32,-67 -15,-1 -26,-5 -35,-13 -9,-7 -14,-19 -14,-36 0,-10 2,-19 5,-26 4,-8 8,-15 12,-20 6,1 12,2 19,3 7,1 14,2 23,2 23,0 41,-7 53,-20 12,-13 18,-29 18,-48 0,-15 -3,-28 -9,-41 -6,-12 -14,-22 -23,-31l-96 0 -12 0 0 0 -72 0zm279 566c0,-10 3,-18 10,-25 6,-7 15,-10 26,-10 12,0 20,3 27,10 7,7 10,15 10,25 0,10 -3,18 -10,25 -7,7 -15,10 -27,10 -11,0 -20,-3 -26,-10 -7,-7 -10,-15 -10,-25zm662 283c15,0 27,-2 38,-8 11,-5 20,-12 27,-19l0 -137 -90 0c5,6 11,12 15,20 5,8 7,17 7,27 0,10 -2,19 -5,27 -4,8 -9,14 -15,20 -7,6 -14,11 -23,14 -9,4 -18,6 -28,8 4,13 13,25 25,34 12,10 28,14 49,14z"/>
  <path class="fil17" d="M6593 4968l0 264c-3,0 -7,1 -11,2 -4,1 -9,1 -14,1 -12,0 -21,-2 -26,-6 -4,-4 -7,-11 -7,-20l0 -241 -28 0 -9 0 0 0 -41 0 0 264c-2,0 -6,1 -10,2 -4,1 -8,1 -14,1 -12,0 -20,-2 -25,-6 -5,-4 -7,-11 -7,-20l0 -51c-9,7 -20,13 -31,16 -12,4 -25,6 -40,6 -25,0 -46,-5 -64,-15 -19,-10 -33,-24 -44,-40 -6,-9 -11,-19 -14,-30 -4,-10 -5,-20 -5,-27 0,-4 0,-8 2,-11 2,-3 5,-5 10,-5 20,-2 35,-7 45,-14 9,-8 14,-17 14,-30 0,-9 -2,-17 -7,-24 -5,-6 -11,-12 -19,-16l-51 0 -12 0 -43 0 0 58c0,14 -8,22 -24,22l-87 0c-11,0 -20,2 -25,6 -4,5 -7,11 -7,18 0,6 2,11 5,15 3,4 7,7 11,10 9,-2 18,-4 27,-6 9,-2 19,-2 30,-2 30,0 52,6 68,19 15,14 23,31 23,51 0,26 -10,46 -30,59 -20,14 -47,20 -81,20 -15,0 -30,-1 -44,-4 -14,-2 -26,-6 -37,-10 -11,-4 -19,-10 -26,-16 -6,-6 -10,-13 -10,-20 0,-8 3,-14 7,-19 4,-5 9,-8 15,-11 10,10 23,18 39,25 16,7 34,10 55,10 18,0 31,-3 40,-9 8,-6 13,-14 13,-23 0,-20 -16,-29 -48,-29 -9,0 -18,1 -27,2 -9,2 -18,4 -26,7 -7,-2 -14,-5 -21,-10 -8,-4 -14,-9 -21,-15 -6,-6 -11,-12 -15,-20 -4,-8 -6,-17 -6,-27 0,-19 6,-34 20,-46 13,-12 33,-17 59,-17l66 0 0 -38 -159 0 -11 0 -39 0 0 264c-3,0 -6,1 -10,2 -4,1 -9,1 -15,1 -12,0 -20,-2 -25,-6 -5,-4 -7,-11 -7,-20l0 -241 -26 0 -11 0 -1 0 -42 0 0 58c0,14 -8,22 -24,22l-87 0c-12,0 -20,2 -25,6 -5,5 -7,11 -7,18 0,6 2,11 5,15 3,4 7,7 11,10 8,-2 17,-4 27,-6 9,-2 19,-2 29,-2 30,0 53,6 69,19 15,14 23,31 23,51 0,13 -3,25 -8,34 -6,10 -14,18 -23,25 -10,6 -22,11 -36,14 -13,3 -28,5 -45,5 -1,0 -3,0 -4,0 -1,0 -2,-1 -4,-1 9,8 18,15 27,22 9,7 20,14 31,21 -1,10 -4,18 -10,25 -6,7 -15,10 -26,10 -12,0 -22,-4 -32,-12 -9,-7 -19,-20 -28,-37l-20 -34c-15,-4 -27,-10 -36,-17 -9,-8 -14,-16 -14,-26 0,-7 2,-14 7,-19 4,-5 9,-8 15,-11 10,10 24,18 39,25 16,7 34,10 55,10 17,0 31,-3 39,-9 9,-6 13,-14 13,-23 0,-20 -15,-29 -47,-29 -9,0 -18,1 -27,2 -10,2 -18,4 -26,7 -7,-2 -14,-5 -22,-10 -7,-4 -14,-9 -20,-15 -6,-6 -11,-12 -15,-20 -4,-8 -6,-17 -6,-27 0,-19 6,-34 19,-46 14,-12 33,-17 59,-17l67 0 0 -38 -170 0c-12,0 -18,-7 -18,-22 0,-3 0,-6 1,-11 1,-4 2,-7 3,-10l269 0 12 0 36 0c-2,-4 -5,-10 -6,-17 -2,-7 -3,-15 -3,-22 0,-29 12,-52 35,-69 23,-17 55,-25 96,-25 27,0 52,3 74,9 23,6 42,14 58,23 16,9 28,18 37,28 9,9 13,17 13,24 0,7 -3,12 -9,17 -7,4 -15,7 -26,7 -17,-19 -37,-34 -60,-45 -24,-11 -51,-17 -82,-17 -25,0 -43,5 -57,15 -13,9 -19,23 -19,41 0,6 0,11 1,17 2,6 3,10 6,14l28 0 11 0 259 0 12 0 301 0 9 0 135 0c12,0 18,8 18,22 0,3 0,7 -1,11 -1,4 -2,8 -3,10l-49 0zm-2361 151c-88,0 -173,2 -258,0 -61,-2 -102,-48 -102,-110 -1,-261 -1,-523 0,-785 0,-62 46,-106 107,-107 210,0 420,0 631,0 57,1 104,41 105,96 2,140 1,279 1,419 -33,-17 -66,-31 -97,-49 -6,-4 -7,-18 -7,-28 -1,-100 -1,-201 -1,-301l0 -32 -631 0 0 791c59,0 117,1 174,0 18,-1 27,4 34,21 12,28 27,54 44,85zm433 -210c-1,-87 -73,-160 -160,-160 -85,0 -159,73 -159,157 0,88 74,163 161,161 86,-1 158,-74 158,-158zm61 147c50,48 99,95 147,140 -27,27 -50,50 -76,76 -33,-31 -70,-65 -104,-102 -26,-29 -46,-38 -88,-20 -98,43 -193,27 -274,-45 -80,-72 -108,-164 -79,-268 30,-105 103,-170 209,-188 103,-17 192,17 255,102 62,85 68,177 27,273 -5,10 -10,18 -17,32zm196 1058c-782,0 -1415,-633 -1415,-1415 0,-782 633,-1416 1415,-1416 487,0 917,247 1172,622l184 0c-273,-465 -778,-777 -1356,-777 -867,0 -1571,703 -1571,1571 0,499 233,944 597,1232l-230 749 581 -539c191,83 402,129 623,129 609,0 1136,-346 1397,-852l-178 0c-246,417 -700,696 -1219,696zm112 273c-244,0 -476,-44 -690,-125l-247 181c207,82 433,126 670,126 416,0 801,-139 1109,-372 -252,121 -538,190 -842,190zm-1209 -425c-385,-315 -628,-778 -628,-1294 0,-950 823,-1719 1837,-1719 76,0 149,4 222,12 -156,-43 -320,-66 -489,-66 -1015,0 -1837,823 -1837,1837 0,648 334,1217 840,1544l55 -314zm1570 -1679l0 103c0,24 -13,36 -39,36l-88 0c-28,0 -50,6 -67,19 -17,13 -25,32 -25,58 0,26 8,46 24,60 16,14 36,21 60,21 31,0 47,-12 47,-35 0,-6 -1,-12 -2,-18 -1,-6 -3,-12 -4,-18 5,-7 13,-12 23,-16 10,-3 21,-5 33,-5 19,0 36,6 50,19 14,13 21,30 21,53 0,15 -3,28 -10,39 -6,12 -14,22 -24,31 12,20 23,38 34,52 12,15 22,27 33,37 -3,17 -10,29 -22,39 -12,9 -27,13 -43,13 -18,0 -33,-5 -44,-17 -12,-11 -20,-27 -25,-48l-10 -46 -10 2c-6,1 -13,2 -20,3 -7,2 -16,2 -26,2 -28,0 -53,-3 -77,-10 -24,-7 -44,-18 -62,-32 -17,-14 -31,-32 -42,-53 -10,-21 -15,-46 -15,-74 0,-23 4,-44 12,-64 7,-19 19,-36 34,-51 16,-14 35,-26 58,-34 23,-9 50,-13 80,-13l38 0 0 -53 -247 0c-12,0 -20,-3 -25,-10 -4,-7 -6,-17 -6,-31 0,-5 0,-12 1,-20 2,-7 3,-14 5,-18l272 0c-8,-12 -16,-24 -27,-35 -14,-14 -28,-27 -45,-39 -16,-11 -32,-21 -48,-29 -17,-8 -32,-14 -46,-18 -1,-2 -1,-5 -1,-7 0,-2 0,-5 0,-7 0,-18 5,-34 15,-47 9,-14 25,-21 46,-21 20,0 40,6 60,19 20,12 40,29 58,49 19,21 35,44 50,69 12,22 23,44 31,66l63 0 12 0 642 0 13 0 63 0c-9,-15 -20,-30 -34,-43 -13,-13 -27,-24 -43,-35 -15,-10 -30,-19 -45,-26 -16,-8 -30,-13 -44,-17 0,-2 0,-5 0,-7 0,-2 0,-5 0,-7 0,-18 5,-34 15,-47 9,-14 25,-21 46,-21 19,0 38,6 57,17 20,12 38,27 56,46 18,19 34,41 49,65 15,25 27,49 37,75l62 0c20,0 31,13 31,40 0,5 -1,12 -2,20 -2,8 -4,15 -6,19l-72 0 0 395c-6,2 -13,3 -20,5 -8,1 -17,2 -27,2 -24,0 -40,-4 -49,-12 -9,-7 -13,-20 -13,-37l0 -353 -38 0 -12 0 0 0 -60 0 0 395c-6,2 -12,3 -20,5 -8,1 -17,2 -27,2 -24,0 -40,-4 -49,-12 -8,-7 -13,-20 -13,-37l0 -77c-19,8 -43,13 -72,13 -17,0 -35,-3 -51,-9 -17,-5 -32,-13 -45,-24 -13,-11 -23,-24 -31,-40 -7,-16 -11,-34 -11,-54 0,-20 3,-37 10,-52 6,-15 15,-27 26,-37 11,-10 24,-18 39,-23 14,-5 30,-8 46,-8 22,0 38,5 49,14 11,8 17,19 17,33 0,15 -5,27 -14,36 -7,-2 -16,-4 -26,-4 -13,0 -25,4 -34,12 -9,7 -14,19 -14,33 0,14 6,25 16,33 11,8 25,13 41,13 11,0 21,-2 31,-5 9,-3 17,-7 23,-12l0 -195 -265 0c10,12 17,25 22,39 6,15 9,30 9,46 0,34 -10,63 -28,85 -18,22 -42,37 -72,46 16,29 39,52 70,69 32,17 67,26 106,29 3,9 4,18 4,27 0,19 -6,33 -17,44 -11,11 -28,16 -49,16 -24,0 -47,-4 -69,-13 -21,-9 -41,-21 -58,-37 -18,-15 -33,-33 -47,-54 -13,-21 -24,-43 -32,-67 -15,-1 -26,-5 -35,-13 -9,-7 -14,-19 -14,-36 0,-10 2,-19 5,-26 4,-8 8,-15 12,-20 6,1 12,2 19,3 7,1 14,2 23,2 23,0 41,-7 53,-20 12,-13 18,-29 18,-48 0,-15 -3,-28 -9,-41 -6,-12 -14,-22 -23,-31l-96 0 -12 0 0 0 -72 0zm279 566c0,-10 3,-18 10,-25 6,-7 15,-10 26,-10 12,0 20,3 27,10 7,7 10,15 10,25 0,10 -3,18 -10,25 -7,7 -15,10 -27,10 -11,0 -20,-3 -26,-10 -7,-7 -10,-15 -10,-25zm662 283c15,0 27,-3 38,-8 11,-5 20,-12 27,-19l0 -137 -90 0c5,6 11,12 15,20 5,8 7,17 7,27 0,10 -2,19 -5,27 -4,8 -9,14 -15,20 -7,6 -14,11 -23,14 -9,3 -18,6 -28,8 4,13 13,25 25,34 12,9 28,14 49,14z"/>
  <path class="fil18" d="M6205 5085c-2,-6 -2,-12 -2,-17 0,-4 0,-8 2,-11 2,-3 5,-5 10,-5 20,-2 35,-7 45,-14 6,-5 9,-10 12,-16 1,4 2,9 2,14 0,13 -5,23 -14,30 -10,7 -25,12 -45,14 -5,0 -8,2 -10,5l0 0zm-202 1l1 1c3,4 7,7 11,10 9,-2 18,-4 27,-6 9,-2 19,-2 30,-2 30,0 52,6 68,19 15,14 23,31 23,51 0,6 0,10 -1,15 -3,-15 -10,-27 -22,-38 -16,-13 -38,-19 -68,-19 -11,0 -21,0 -30,2 -9,2 -18,4 -27,6 -4,-3 -8,-6 -11,-10 -3,-4 -5,-9 -5,-15 0,-6 2,-10 4,-14zm-64 115c-2,-4 -4,-9 -4,-13 0,-8 3,-14 7,-19 4,-5 9,-8 15,-11 10,10 23,18 39,25 16,7 34,10 55,10 18,0 31,-3 40,-9 4,-3 7,-6 9,-9 2,4 4,8 4,14 0,9 -5,17 -13,23 -9,6 -22,9 -40,9 -21,0 -39,-3 -55,-10 -16,-7 -29,-15 -39,-25 -6,3 -11,6 -15,11 -1,1 -2,3 -3,4zm2 -119c-1,-4 -1,-8 -1,-13 0,-19 6,-34 20,-46 13,-12 33,-17 59,-17l66 0 0 28 -66 0c-26,0 -46,5 -59,17 -10,9 -16,19 -19,31zm-341 4l1 1c3,4 7,7 11,10 8,-2 17,-4 27,-6 9,-2 19,-2 29,-2 30,0 53,6 69,19 15,14 23,31 23,51 0,5 -1,10 -1,15 -3,-15 -11,-27 -22,-38 -16,-13 -39,-19 -69,-19 -10,0 -20,0 -29,2 -10,2 -19,4 -27,6 -4,-3 -8,-6 -11,-10 -3,-4 -5,-9 -5,-15 0,-6 1,-10 4,-14zm74 177c7,6 15,11 24,16 -1,9 -3,16 -8,23 -8,-5 -16,-10 -23,-16 -9,-7 -18,-14 -27,-22 2,0 3,1 4,1 1,0 3,0 4,0 9,0 18,-1 26,-2zm-138 -61c-3,-5 -4,-9 -4,-14 0,-7 2,-14 7,-19 4,-5 9,-8 15,-11 10,10 24,18 39,25 16,7 34,10 55,10 17,0 31,-3 39,-9 4,-3 7,-6 10,-9 2,4 3,8 3,14 0,9 -4,17 -13,23 -8,6 -22,9 -39,9 -21,0 -39,-3 -55,-10 -15,-7 -29,-15 -39,-25 -6,3 -11,6 -15,11 -2,2 -3,3 -3,5zm2 -120c-1,-4 -1,-8 -1,-13 0,-19 6,-34 19,-46 14,-12 33,-17 59,-17l67 0 0 28 -67 0c-26,0 -45,5 -59,17 -9,9 -15,19 -18,31zm-42 -123c-1,-4 -2,-8 -2,-13 0,-3 0,-6 1,-11 1,-4 2,-7 3,-10l269 0 12 0 28 0c0,4 1,7 2,11 1,7 4,13 6,17l-36 0 -12 0 -269 0c-1,2 -1,4 -2,6zm311 -59c0,-5 -1,-9 -1,-14 0,-29 12,-52 35,-69 23,-17 55,-25 96,-25 27,0 52,3 74,9 23,6 42,14 58,23 16,9 28,18 37,28 9,9 13,17 13,24 0,5 -2,10 -5,13 -2,-3 -5,-6 -8,-9 -9,-10 -21,-19 -37,-28 -16,-9 -35,-17 -58,-23 -22,-6 -47,-9 -74,-9 -41,0 -73,8 -96,25 -19,14 -31,32 -34,55zm60 9l0 2c2,6 3,10 6,14l28 0 11 0 170 0 2 3c7,0 12,-1 17,-3l70 0 12 0 301 0 9 0 135 0c12,0 18,8 18,22 0,3 0,7 -1,11l-1 5c-3,-7 -8,-10 -16,-10l-135 0 -9 0 -301 0 -12 0 -259 0 -11 0 -28 0c-3,-4 -4,-8 -6,-14 -1,-6 -1,-11 -1,-17 0,-5 0,-9 1,-13zm-1635 210l-15 0c-11,-19 -21,-38 -29,-57 -7,-17 -16,-22 -34,-21 -57,1 -115,0 -174,0l0 -28c59,0 117,1 174,0 18,-1 27,4 34,21 12,28 27,54 44,85zm-360 -613c0,-94 0,-188 0,-282 0,-62 46,-106 107,-107 210,0 420,0 631,0 57,1 104,41 105,96 1,63 1,126 1,190 0,-54 0,-108 -1,-162 -1,-55 -48,-95 -105,-96 -211,0 -421,0 -631,0 -61,1 -107,45 -107,107 0,85 0,169 0,254zm475 415c7,82 78,148 160,146 81,-1 150,-66 157,-143 1,4 1,9 1,13 0,84 -72,157 -158,158 -87,2 -161,-72 -161,-161 0,-5 0,-9 1,-13zm389 144l137 131 -15 15 -132 -127c4,-7 7,-13 10,-19zm-494 -136c-2,-29 2,-60 10,-92 30,-105 103,-170 209,-188 103,-17 192,17 255,102 39,54 56,110 53,169 -3,-49 -20,-96 -53,-141 -63,-85 -152,-119 -255,-102 -106,18 -179,83 -209,188 -6,22 -9,43 -10,64zm680 1185c-777,0 -1407,-626 -1415,-1401l0 14c0,782 633,1415 1415,1415 519,0 973,-279 1219,-696l163 0c5,-10 10,-19 15,-28l-178 0c-246,417 -700,696 -1219,696zm1339 -2209l17 0c-273,-465 -778,-777 -1356,-777 -867,0 -1571,703 -1571,1571l0 18c6,-863 707,-1561 1571,-1561 566,0 1062,300 1339,749zm-2320 2048l-223 727 12 -11 218 -710 -7 -6zm1093 434c-244,0 -476,-44 -690,-125l-247 181c8,4 16,7 25,10l222 -163c214,81 446,125 690,125 261,0 509,-51 734,-142 37,-24 73,-50 108,-76 -252,121 -538,190 -842,190zm-1209 -425c-380,-312 -622,-768 -628,-1276l0 10c0,514 241,975 623,1290l5 -24zm1251 -3013c61,1 121,5 180,12 -156,-43 -320,-66 -489,-66 -1015,0 -1837,823 -1837,1837l0 18c5,-1010 826,-1827 1837,-1827 105,0 208,9 309,26zm101 1564c2,20 10,35 23,46 16,14 36,21 60,21 26,0 41,-8 45,-23 1,5 2,11 2,16 0,23 -16,35 -47,35 -24,0 -44,-7 -60,-21 -16,-14 -24,-34 -24,-60 0,-5 0,-9 1,-14zm129 19l-1 -5c-1,-6 -3,-12 -4,-18 5,-7 13,-12 23,-16 10,-3 21,-5 33,-5 19,0 36,6 50,19 14,13 21,30 21,53 0,5 -1,10 -1,14 -3,-16 -9,-29 -20,-39 -14,-13 -31,-19 -50,-19 -12,0 -23,2 -33,5 -7,3 -13,7 -18,11zm99 116c8,13 16,24 23,34 12,15 22,27 33,37 -2,8 -4,15 -7,21 -8,-8 -17,-18 -26,-30 -11,-14 -22,-32 -34,-52 4,-3 7,-7 11,-10zm-339 -135c-1,-5 -1,-10 -1,-15 0,-23 4,-44 12,-64 7,-19 19,-36 34,-51 16,-14 35,-26 58,-34 23,-9 50,-13 80,-13l38 0 0 28 -38 0c-30,0 -57,4 -80,13 -23,8 -42,20 -58,34 -15,15 -27,32 -34,52 -6,15 -10,32 -11,50zm-56 -257c-1,-4 -1,-9 -1,-14 0,-5 0,-12 1,-20 2,-7 3,-14 5,-18l251 0c8,9 15,18 21,28l-272 0c-2,5 -3,11 -5,18l0 6zm111 -173l0 0c-1,-2 -1,-5 -1,-7 0,-2 0,-5 0,-7 0,-18 5,-34 15,-47 9,-14 25,-21 46,-21 20,0 40,6 60,19 20,12 40,29 58,49 19,21 35,44 50,69 12,22 23,44 31,66l63 0 12 0 642 0 13 0 43 0c7,9 14,18 20,28l-63 0 -13 0 -642 0 -12 0 -63 0c-8,-22 -19,-44 -31,-66 -15,-25 -31,-48 -50,-69 -18,-20 -38,-37 -58,-49 -20,-12 -40,-19 -60,-19 -21,0 -37,7 -46,21 -7,10 -12,21 -14,33zm887 0l-1 0c0,-2 0,-5 0,-7 0,-2 0,-5 0,-7 0,-18 5,-34 15,-47 9,-14 25,-21 46,-21 19,0 38,6 57,17 20,12 38,27 56,46 18,19 34,41 49,65 15,25 27,49 37,75l62 0c20,0 31,13 31,40 0,4 0,8 -1,14 -4,-17 -14,-26 -30,-26l-62 0c-10,-26 -22,-50 -37,-75 -15,-24 -31,-46 -49,-65 -18,-19 -36,-34 -56,-46 -19,-11 -38,-17 -57,-17 -21,0 -37,7 -46,21 -8,10 -12,21 -14,33zm-265 375c-1,-4 -1,-9 -1,-13 0,-20 3,-37 10,-52 6,-15 15,-27 26,-37 11,-10 24,-18 39,-23 14,-5 30,-8 46,-8 22,0 38,5 49,14 11,8 17,19 17,33 0,6 -1,11 -2,15 -3,-8 -8,-15 -15,-20 -11,-9 -27,-13 -49,-13 -16,0 -32,2 -46,7 -15,5 -28,13 -39,23 -11,10 -20,22 -26,37 -5,11 -8,23 -9,37zm100 5c3,7 7,14 14,19 11,8 25,13 41,13 11,0 21,-2 31,-5 9,-3 17,-7 23,-12l0 28c-6,5 -14,9 -23,12 -10,3 -20,5 -31,5 -16,0 -30,-5 -41,-13 -10,-8 -16,-19 -16,-33 0,-5 1,-10 2,-14zm-138 -152c2,4 3,7 4,11 6,15 9,30 9,46 0,5 -1,10 -1,15 -1,-12 -4,-22 -8,-33 -5,-14 -12,-27 -22,-39l18 0zm-72 211c15,19 33,34 55,46 32,17 67,26 106,29 3,9 4,18 4,27 0,5 -1,9 -1,13 -1,-4 -2,-8 -3,-12 -39,-3 -74,-12 -106,-29 -31,-17 -54,-40 -70,-69 5,-1 10,-3 15,-5zm-154 -44c-1,-4 -2,-9 -2,-14 0,-10 2,-19 5,-26 4,-8 8,-15 12,-20 6,1 12,2 19,3 7,1 14,2 23,2 23,0 41,-7 53,-20 9,-10 14,-21 17,-35 0,5 1,10 1,15 0,19 -6,35 -18,48 -12,13 -30,20 -53,20 -9,0 -16,-1 -23,-2 -7,-1 -13,-2 -19,-3 -4,5 -8,12 -12,20 -1,4 -3,8 -3,12zm195 371c0,-10 3,-18 10,-25 6,-7 15,-10 26,-10 12,0 20,3 27,10 7,7 10,15 10,25 0,5 -1,10 -3,14 -1,-4 -4,-8 -7,-11 -7,-7 -15,-10 -27,-10 -11,0 -20,3 -26,10 -4,3 -6,7 -8,11 -1,-4 -2,-9 -2,-14zm662 283c15,0 27,-3 38,-8 11,-5 20,-12 27,-19l0 28c-7,7 -16,14 -27,19 -11,5 -23,8 -38,8 -21,0 -37,-4 -49,-14 -12,-9 -21,-21 -25,-34 5,-1 10,-2 14,-3 3,3 7,6 11,9 12,9 28,14 49,14zm-6 -136c2,6 3,12 3,19 0,5 0,10 -1,15 -1,-5 -3,-9 -6,-14 -4,-8 -10,-14 -15,-20l19 0z"/>
  <g id="_874648888">
   <g>
    <path class="fil19" d="M4071 715c28,154 56,307 84,461 -7,3 -14,6 -22,9 -9,4 -19,7 -30,9 -16,3 -42,7 -58,-2 -14,-8 -21,-25 -24,-40 -30,-136 -60,-272 -90,-409 -16,4 -32,8 -49,12l0 0 -1 0 0 0 -1 0 0 0 -1 0 -1 1 0 0 -1 0 0 0 -1 0 -1 0 0 0 -1 1 -1 0 -1 0 0 0 -1 0 0 0 -1 0 -1 1 0 0 -1 0 0 0 -1 0 0 0c-26,6 -52,13 -77,19 39,151 78,302 116,453 -6,4 -13,8 -20,11 -9,5 -19,8 -29,11 -16,4 -42,10 -58,2 -15,-7 -23,-23 -27,-38 -11,-38 -22,-76 -33,-113 -13,13 -28,24 -44,33 -17,11 -35,19 -55,25 -49,16 -101,21 -151,0 -51,-21 -82,-67 -101,-117 -16,-40 -32,-81 -48,-122l-24 9 0 0 -1 1 -1 0 0 0 0 0 -2 1 0 0 -1 0 0 0 -1 0 0 1 -1 0 0 0 0 0 -1 0 0 1 -1 0 -1 0 0 0 0 0 -1 1 0 0 -1 0 0 0 0 0 -2 1 0 0 -1 0 0 0 0 0 -1 1 -1 0 0 0 0 0 -1 0 0 0 -1 1 -1 0 -1 1 0 0 -1 0 0 0 0 0c-22,9 -44,18 -66,27 61,144 122,287 183,431 -6,5 -13,9 -19,14 -9,6 -18,11 -28,15 -15,7 -40,16 -57,11 -16,-5 -26,-20 -32,-34 -59,-126 -118,-253 -177,-379 -15,7 -30,14 -44,21l0 0 -1 0 -1 1 0 0 -1 0 0 0 -1 1 0 0 -1 0 -1 1 0 0 -1 0 0 0 -1 1 0 0 -1 0 0 0 -1 1 0 0 -1 0 0 0 -1 1 -1 0 0 0 -1 1 0 0 -1 0 0 0 0 0 -1 1 0 0 -1 0 0 0c-23,11 -46,23 -69,35 71,138 142,277 213,416 -6,6 -12,11 -18,16 -8,6 -17,12 -27,16 -15,8 -39,20 -56,16 -16,-4 -27,-18 -35,-32 -24,-43 -48,-87 -73,-131 -42,24 -84,49 -126,74 7,22 7,45 -2,66 -9,24 -27,41 -47,55 -23,15 -50,27 -78,23 -22,-4 -40,-15 -53,-34 -12,-16 -16,-35 -17,-55 6,-4 13,-9 19,-13 10,-7 18,-16 21,-27 2,-13 -2,-24 -9,-34 -24,-37 -48,-74 -72,-110 -5,-8 -12,-14 -21,-15 -9,0 -17,3 -24,7 -7,5 -13,11 -15,18 -3,8 -2,15 1,21 -4,5 -9,10 -15,14 -14,10 -31,17 -49,16 -16,-2 -29,-10 -38,-24 -8,-10 -12,-22 -13,-34 -1,-13 2,-26 7,-38 6,-14 15,-26 25,-37 12,-13 26,-24 40,-34 36,-24 81,-46 126,-43 39,3 67,24 87,57 27,44 53,88 80,132 41,-25 82,-49 124,-73 -27,-48 -54,-97 -81,-146 -17,9 -34,19 -51,29 -10,6 -23,10 -34,5 -12,-5 -21,-16 -27,-27 -4,-6 -7,-14 -10,-21 -2,-7 -4,-15 -5,-22 83,-49 167,-95 253,-137l0 0 3 -2 1 0 3 -2 1 0 4 -2 0 0 4 -2 0 0c81,-39 162,-76 245,-110l1 -1 4 -2 4 -1 1 0 5 -2 3 -2 1 0 5 -2 1 0c185,-75 376,-136 570,-183l4 -2 2 0 1 0 1 0c95,-23 191,-43 287,-59 30,-5 45,12 49,40 1,8 1,17 1,25 0,8 -1,16 -4,24 -32,4 -63,10 -94,15zm2709 467c-15,25 -30,51 -44,76 18,0 36,3 53,8 21,6 42,16 60,28 22,13 40,29 56,49 14,18 25,38 31,61 6,22 7,44 3,67 -4,25 -15,48 -30,69 -14,21 -31,39 -52,52 -18,12 -38,21 -59,25 -20,3 -40,3 -60,-1 -20,-4 -39,-12 -56,-23 -36,-22 -62,-52 -38,-94 5,-7 10,-13 16,-19 5,-4 11,-9 18,-12 6,6 14,11 22,16 15,9 32,13 50,11 20,-3 34,-17 44,-33 11,-17 15,-35 9,-54 -7,-21 -22,-36 -40,-47 -13,-7 -27,-13 -41,-15 -13,-1 -26,0 -38,3 -46,79 -92,159 -137,239 -8,-2 -15,-4 -23,-7 -10,-3 -19,-8 -29,-13 -15,-8 -36,-22 -43,-39 -6,-15 0,-32 7,-46 7,-14 15,-28 22,-41 -17,1 -35,-1 -51,-4 -20,-4 -40,-11 -58,-20 -21,-10 -39,-23 -55,-39 -15,-16 -28,-33 -36,-54 -10,-21 -14,-43 -14,-66 -1,-26 6,-52 16,-76 10,-22 24,-43 42,-60 17,-15 35,-26 56,-32 21,-6 43,-8 64,-6 23,2 44,9 65,19 21,10 45,25 56,47 8,17 8,34 -1,51 -7,15 -18,26 -33,33 -4,-3 -7,-6 -11,-9 -5,-5 -12,-8 -18,-11 -17,-9 -35,-12 -54,-8 -20,5 -33,19 -41,37 -9,18 -10,36 -2,55 8,20 24,33 42,42 14,7 29,12 44,13 13,1 25,-1 37,-5 42,-78 84,-157 125,-236 -96,-51 -193,-97 -293,-140l-1 0 -2 -1 0 0 -1 -1 -1 0 -2 -1 -1 0 -5 -2 -1 -1 -1 0 -1 -1 -2 0 0 0 0 -1 -1 0 0 0 0 0c-23,-10 -46,-19 -69,-28 -58,144 -116,289 -174,434 -8,-1 -15,-2 -23,-3 -10,-2 -20,-5 -30,-9 -16,-6 -39,-17 -48,-32 -8,-15 -5,-33 0,-48 7,-19 15,-39 22,-59 -22,3 -44,3 -65,2 -26,-2 -51,-8 -76,-16 -45,-14 -87,-36 -121,-68 -31,-30 -53,-62 -66,-103 -5,-17 -9,-34 -11,-52 -1,-16 -1,-32 3,-47 1,-8 5,-14 11,-19 7,-5 19,-5 28,-3 24,3 50,5 75,6 21,0 42,-1 63,-5 16,-4 32,-10 46,-20 12,-9 21,-22 25,-37 4,-13 5,-26 -2,-38 -6,-11 -15,-18 -27,-21 -12,-3 -23,-4 -34,2 -11,6 -17,16 -20,28 -2,7 -4,14 -3,21 0,6 1,11 2,16 -8,6 -19,8 -29,9 -14,0 -28,-2 -41,-5 -10,-3 -19,-7 -28,-12 -8,-5 -15,-12 -21,-20 -6,-8 -10,-18 -12,-28 -1,-12 0,-25 3,-37 4,-16 11,-31 23,-43 12,-14 27,-23 44,-30 20,-8 42,-11 64,-11 27,-1 54,4 80,11 27,8 53,19 76,36 18,13 35,29 47,49 11,18 17,37 19,58 1,22 -2,42 -9,63 -8,22 -19,41 -37,57 -16,15 -36,27 -57,35 -23,9 -47,14 -71,16 -27,2 -54,2 -81,-1 4,23 17,42 33,57 21,21 48,34 75,43 24,8 48,12 72,11 21,-1 42,-5 61,-13 33,-94 67,-187 100,-280 4,-10 10,-17 19,-21 2,-1 4,-2 7,-2l-12 -4c-13,-22 -21,-45 -24,-70 -3,-25 -1,-49 7,-72 6,-18 16,-35 30,-49 13,-14 30,-23 48,-29 20,-7 42,-8 63,-7 25,1 50,8 73,17 25,9 64,27 77,51 10,17 12,35 5,53 -6,14 -16,26 -31,32 -6,-5 -13,-10 -20,-14 -7,-5 -15,-9 -24,-12 -19,-8 -39,-10 -59,-3 -21,6 -33,21 -41,41 -6,17 -8,35 -5,53 3,15 7,30 12,45 22,8 44,17 66,26l1 1 3 1 7 3 1 0 2 1 2 1 3 1 1 1c263,110 513,247 747,409 25,17 23,39 7,62 -5,7 -11,13 -16,18 -6,6 -12,11 -20,14 -99,-70 -203,-135 -308,-196zm-1785 -526c-8,156 -16,312 -24,467 -8,2 -16,4 -23,5 -11,1 -21,1 -32,1 -17,-1 -43,-3 -56,-15 -12,-11 -15,-29 -15,-45 1,-52 2,-104 3,-156 -10,2 -21,3 -31,4 -4,1 -27,3 -29,2 0,0 -4,0 -4,0 -25,0 -50,-3 -74,-8 -24,-5 -49,-13 -71,-25 -11,7 -23,13 -36,18 -14,6 -28,9 -42,12 21,31 48,57 79,78 28,20 59,37 91,50 0,22 -6,42 -20,60 -15,19 -37,25 -60,26 -19,1 -38,-3 -55,-11 -20,-9 -38,-22 -54,-37 -20,-19 -37,-41 -52,-64 -18,-27 -32,-57 -43,-88 -16,0 -34,-3 -45,-15 -10,-11 -15,-24 -16,-38 -1,-10 0,-20 3,-30 2,-9 6,-18 12,-25 11,1 22,1 32,1 13,-1 26,-1 39,-2 26,-3 57,-9 77,-29 17,-16 24,-37 23,-60 -1,-14 -4,-27 -10,-39 -5,-12 -12,-24 -20,-35 -66,4 -131,10 -197,17 -11,2 -25,1 -33,-8 -9,-9 -12,-23 -14,-35 -1,-8 -1,-16 0,-24 0,-8 1,-16 4,-23 165,-19 319,-28 486,-29 14,-4 199,5 261,9l0 0 8 0 3 1 0 0 2 0 2 0 2 0c215,15 429,46 639,95 30,6 37,27 30,55 -1,8 -5,16 -8,23 -3,7 -7,15 -12,21 -31,-8 -62,-15 -92,-21 -33,152 -66,305 -98,457 -8,1 -16,1 -24,1 -10,0 -21,-2 -31,-3 -16,-4 -42,-10 -53,-24 -10,-13 -10,-31 -7,-47 9,-49 17,-98 26,-147 -52,-9 -104,-17 -156,-24 -20,51 -59,70 -113,64 -26,-3 -55,-10 -74,-31 -15,-17 -22,-37 -20,-60 1,-20 9,-37 21,-53 8,0 15,1 23,2 12,1 23,-1 33,-9 9,-8 13,-20 14,-32 6,-54 11,-108 16,-163 -30,-3 -60,-6 -91,-8l0 0 -1 0 -5 0 -1 0 0 0 -3 -1 0 0 -2 0 0 0 -1 0 -1 0 0 0 -1 0 0 0 -1 0 0 0 0 0c-26,-2 -52,-3 -78,-5zm-234 160c3,0 25,-1 27,-2 23,-2 40,-6 62,-15 1,-49 1,-98 2,-148 -7,0 -62,0 -64,0 -5,-2 -89,1 -101,1 8,14 15,29 20,44 6,17 9,34 9,52 0,22 -4,43 -12,63 19,4 38,5 57,5zm539 37c51,7 102,15 153,24 10,-55 20,-110 29,-165 -53,-10 -106,-18 -160,-25 -7,55 -15,110 -22,166zm-1663 201c15,-5 30,-12 42,-21 11,-8 21,-17 27,-29 -69,-25 -139,-48 -210,-69 6,19 13,37 19,56 8,24 23,53 48,64 23,11 51,7 74,-1zm52 -120c-12,-40 -24,-79 -36,-119 -57,17 -113,35 -170,54 69,20 138,41 206,65z"/>
    <path class="fil20" d="M4071 690c28,153 56,307 84,460 -7,3 -14,7 -22,10 -9,3 -19,6 -30,8 -16,3 -42,7 -58,-2 -14,-8 -21,-25 -24,-40 -30,-136 -60,-272 -90,-408 -16,3 -32,7 -49,11l0 0 -1 0 0 0 -1 0 0 0 -1 1 -1 0 0 0 -1 0 0 0 -1 0 -1 1 0 0 -1 0 -1 0 -1 0 0 0 -1 1 0 0 -1 0 -1 0 0 0 -1 0 0 0 -1 0 0 0c-26,7 -52,13 -77,19 39,152 78,303 116,454 -6,4 -13,7 -20,10 -9,5 -19,8 -29,11 -16,5 -42,10 -58,2 -15,-7 -23,-23 -27,-38 -11,-38 -22,-75 -33,-113 -13,13 -28,24 -44,33 -17,11 -35,19 -55,25 -49,17 -101,22 -151,1 -51,-22 -82,-67 -101,-117 -16,-41 -32,-82 -48,-123l-24 10 0 0 -1 0 -1 0 0 0 0 1 -2 0 0 0 -1 0 0 1 -1 0 0 0 -1 0 0 0 0 0 -1 1 0 0 -1 0 -1 0 0 0 0 1 -1 0 0 0 -1 0 0 0 0 1 -2 0 0 0 -1 0 0 1 0 0 -1 0 -1 0 0 0 0 0 -1 1 0 0 -1 0 -1 1 -1 0 0 0 -1 0 0 0 0 0c-22,9 -44,18 -66,27 61,144 122,288 183,431 -6,5 -13,10 -19,14 -9,6 -18,11 -28,15 -15,7 -40,16 -57,11 -16,-5 -26,-20 -32,-34 -59,-126 -118,-252 -177,-379 -15,7 -30,14 -44,21l0 0 -1 1 -1 0 0 0 -1 1 0 0 -1 0 0 0 -1 1 -1 0 0 0 -1 0 0 1 -1 0 0 0 -1 0 0 1 -1 0 0 0 -1 1 0 0 -1 0 -1 0 0 1 -1 0 0 0 -1 0 0 1 0 0 -1 0 0 0 -1 0 0 0c-23,12 -46,23 -69,35 71,139 142,278 213,417 -6,5 -12,10 -18,15 -8,6 -17,12 -27,17 -15,8 -39,19 -56,15 -16,-4 -27,-18 -35,-32 -24,-43 -48,-87 -73,-130 -42,23 -84,48 -126,73 7,23 7,45 -2,67 -9,23 -27,41 -47,54 -23,15 -50,27 -78,23 -22,-4 -40,-14 -53,-33 -12,-17 -16,-36 -17,-56 6,-4 13,-9 19,-13 10,-7 18,-15 21,-27 2,-12 -2,-24 -9,-34 -24,-37 -48,-73 -72,-110 -5,-7 -12,-14 -21,-14 -9,-1 -17,2 -24,7 -7,4 -13,10 -15,18 -3,7 -2,14 1,21 -4,5 -9,9 -15,13 -14,10 -31,18 -49,16 -16,-1 -29,-10 -38,-23 -8,-11 -12,-22 -13,-35 -1,-13 2,-26 7,-38 6,-14 15,-26 25,-37 12,-13 26,-24 40,-34 36,-24 81,-45 126,-42 39,2 67,24 87,56 27,44 53,88 80,132 41,-25 82,-49 124,-72 -27,-49 -54,-98 -81,-147 -17,10 -34,19 -51,29 -10,6 -23,11 -34,6 -12,-5 -21,-17 -27,-27 -4,-7 -7,-15 -10,-22 -2,-7 -4,-15 -5,-22 83,-49 167,-94 253,-137l0 0 3 -1 1 -1 3 -1 1 -1 4 -1 0 -1 4 -2 0 0c81,-39 162,-76 245,-110l1 0 4 -2 4 -2 1 0 5 -2 3 -1 1 -1 5 -2 1 0c185,-75 376,-136 570,-183l4 -1 2 -1 1 0 1 0c95,-23 191,-42 287,-58 30,-5 45,11 49,40 1,8 1,16 1,24 0,8 -1,17 -4,24 -32,5 -63,10 -94,16zm2709 466c-15,26 -30,51 -44,76 18,0 36,3 53,8 21,7 42,17 60,28 22,13 40,30 56,49 14,18 25,38 31,61 6,22 7,45 3,67 -4,25 -15,49 -30,69 -14,21 -31,39 -52,53 -18,11 -38,20 -59,24 -20,4 -40,3 -60,-1 -20,-4 -39,-12 -56,-23 -36,-22 -62,-52 -38,-94 5,-7 10,-13 16,-18 5,-5 11,-9 18,-13 6,6 14,12 22,16 15,10 32,14 50,11 20,-3 34,-17 44,-33 11,-17 15,-35 9,-54 -7,-21 -22,-36 -40,-47 -13,-7 -27,-13 -41,-14 -13,-2 -26,-1 -38,2 -46,80 -92,159 -137,239 -8,-2 -15,-4 -23,-7 -10,-3 -19,-8 -29,-13 -15,-8 -36,-22 -43,-39 -6,-15 0,-32 7,-46 7,-14 15,-27 22,-41 -17,1 -35,0 -51,-4 -20,-4 -40,-11 -58,-20 -21,-10 -39,-23 -55,-39 -15,-15 -28,-33 -36,-53 -10,-21 -14,-44 -14,-66 -1,-26 6,-52 16,-76 10,-23 24,-44 42,-61 17,-14 35,-25 56,-32 21,-6 43,-8 64,-6 23,3 44,9 65,19 21,10 45,26 56,47 8,17 8,35 -1,52 -7,14 -18,26 -33,33 -4,-4 -7,-7 -11,-10 -5,-4 -12,-8 -18,-11 -17,-9 -35,-12 -54,-7 -20,4 -33,19 -41,36 -9,18 -10,37 -2,55 8,20 24,33 42,43 14,6 29,12 44,12 13,1 25,0 37,-4 42,-79 84,-158 125,-237 -96,-50 -193,-97 -293,-140l-1 0 -2 -1 0 0 -1 0 -1 -1 -2 -1 -1 0 -5 -2 -1 0 -1 -1 -1 -1 -2 0 0 0 0 0 -1 0 0 -1 0 0c-23,-9 -46,-19 -69,-28 -58,145 -116,290 -174,434 -8,0 -15,-2 -23,-3 -10,-2 -20,-5 -30,-9 -16,-6 -39,-16 -48,-32 -8,-15 -5,-32 0,-47 7,-20 15,-40 22,-60 -22,3 -44,4 -65,2 -26,-2 -51,-8 -76,-16 -45,-14 -87,-35 -121,-68 -31,-29 -53,-62 -66,-103 -5,-17 -9,-34 -11,-52 -1,-15 -1,-32 3,-47 1,-7 5,-14 11,-19 7,-5 19,-4 28,-3 24,4 50,6 75,6 21,0 42,-1 63,-5 16,-4 32,-9 46,-20 12,-9 21,-22 25,-37 4,-13 5,-26 -2,-38 -6,-11 -15,-17 -27,-21 -12,-3 -23,-3 -34,2 -11,6 -17,16 -20,28 -2,7 -4,14 -3,21 0,6 1,11 2,17 -8,5 -19,7 -29,8 -14,1 -28,-1 -41,-5 -10,-2 -19,-6 -28,-12 -8,-5 -15,-12 -21,-20 -6,-8 -10,-18 -12,-28 -1,-12 0,-25 3,-37 4,-16 11,-30 23,-43 12,-13 27,-23 44,-29 20,-8 42,-11 64,-12 27,-1 54,4 80,12 27,8 53,19 76,35 18,13 35,29 47,49 11,18 17,38 19,58 1,22 -2,43 -9,63 -8,22 -19,42 -37,58 -16,15 -36,26 -57,35 -23,9 -47,14 -71,16 -27,2 -54,1 -81,-1 4,22 17,41 33,57 21,20 48,34 75,43 24,7 48,11 72,10 21,-1 42,-5 61,-13 33,-93 67,-187 100,-280 4,-9 10,-16 19,-21 2,-1 4,-1 7,-2l-12 -4c-13,-21 -21,-45 -24,-70 -3,-24 -1,-48 7,-71 6,-19 16,-36 30,-50 13,-13 30,-23 48,-29 20,-6 42,-8 63,-7 25,2 50,8 73,17 25,10 64,28 77,52 10,16 12,34 5,52 -6,14 -16,27 -31,32 -6,-5 -13,-10 -20,-14 -7,-5 -15,-8 -24,-12 -19,-7 -39,-9 -59,-3 -21,6 -33,21 -41,41 -6,17 -8,35 -5,53 3,16 7,31 12,45 22,9 44,17 66,26l1 1 3 1 7 3 1 1 2 0 2 1 3 1 1 1c263,110 513,247 747,409 25,17 23,39 7,62 -5,7 -11,13 -16,19 -6,5 -12,11 -20,14 -99,-70 -203,-136 -308,-197zm-1785 -526c-8,156 -16,312 -24,468 -8,2 -16,3 -23,4 -11,2 -21,2 -32,1 -17,0 -43,-3 -56,-15 -12,-11 -15,-29 -15,-45 1,-51 2,-103 3,-155 -10,1 -21,3 -31,4 -4,0 -27,2 -29,1 0,0 -4,0 -4,0 -25,0 -50,-3 -74,-7 -24,-5 -49,-13 -71,-26 -11,7 -23,13 -36,19 -14,5 -28,9 -42,11 21,31 48,57 79,79 28,19 59,36 91,49 0,22 -6,42 -20,60 -15,19 -37,26 -60,27 -19,0 -38,-4 -55,-11 -20,-9 -38,-23 -54,-38 -20,-19 -37,-41 -52,-63 -18,-28 -32,-58 -43,-89 -16,0 -34,-3 -45,-15 -10,-10 -15,-23 -16,-38 -1,-10 0,-20 3,-30 2,-9 6,-18 12,-25 11,1 22,1 32,1 13,0 26,-1 39,-2 26,-2 57,-9 77,-28 17,-17 24,-37 23,-61 -1,-13 -4,-26 -10,-39 -5,-12 -12,-24 -20,-34 -66,4 -131,9 -197,17 -11,1 -25,0 -33,-9 -9,-9 -12,-23 -14,-35 -1,-8 -1,-16 0,-24 0,-7 1,-15 4,-22 165,-19 319,-28 486,-29 14,-5 199,5 261,8l0 0 8 1 3 0 0 0 2 0 2 0 2 0c215,15 429,47 639,95 30,7 37,28 30,55 -1,8 -5,16 -8,24 -3,7 -7,14 -12,20 -31,-7 -62,-14 -92,-21 -33,153 -66,305 -98,458 -8,0 -16,0 -24,0 -10,0 -21,-1 -31,-3 -16,-3 -42,-10 -53,-24 -10,-13 -10,-31 -7,-47 9,-49 17,-98 26,-147 -52,-9 -104,-17 -156,-24 -20,52 -59,70 -113,64 -26,-3 -55,-10 -74,-31 -15,-17 -22,-37 -20,-59 1,-20 9,-38 21,-54 8,1 15,1 23,2 12,1 23,-1 33,-9 9,-8 13,-19 14,-31 6,-55 11,-109 16,-164 -30,-3 -60,-5 -91,-8l0 0 -1 0 -5 0 -1 0 0 0 -3 0 0 0 -2 0 0 0 -1 -1 -1 0 0 0 -1 0 0 0 -1 0 0 0 0 0c-26,-2 -52,-3 -78,-5zm-234 160c3,0 25,0 27,-1 23,-3 40,-7 62,-16 1,-49 1,-98 2,-147 -7,-1 -62,0 -64,-1 -5,-1 -89,1 -101,1 8,14 15,29 20,44 6,17 9,34 9,52 0,22 -4,43 -12,64 19,3 38,4 57,4zm539 37c51,7 102,15 153,24 10,-55 20,-110 29,-165 -53,-10 -106,-18 -160,-25 -7,55 -15,111 -22,166zm-1663 202c15,-5 30,-12 42,-22 11,-8 21,-17 27,-28 -69,-26 -139,-49 -210,-70 6,19 13,38 19,56 8,24 23,54 48,65 23,10 51,6 74,-1zm52 -121c-12,-39 -24,-79 -36,-119 -57,17 -113,35 -170,55 69,19 138,41 206,64z"/>
    <path class="fil21" d="M4076 715l79 435 -4 2 -80 -437 5 0zm-280 61l110 429 -5 3 -111 -431 6 -1zm-558 187l173 409 -8 7 -175 -412 10 -4zm-260 120l203 397c-3,2 -6,5 -9,7l-204 -398 10 -6zm-127 378c0,7 0,14 -1,21 -1,-6 -2,-12 -4,-18l5 -3zm-199 56c-2,-8 -3,-16 -3,-24 6,-4 13,-9 19,-13 9,-6 15,-13 19,-22 2,7 3,14 2,21 -3,11 -11,20 -21,27l-16 11zm-217 -197c0,-3 -1,-5 -1,-8 -1,-13 2,-26 7,-38 6,-14 15,-26 25,-37 12,-13 26,-24 40,-34 36,-24 81,-45 126,-42 39,2 67,24 87,56 27,44 53,88 80,132 37,-23 75,-45 113,-66l11 19c-42,24 -83,48 -124,73 -27,-44 -53,-88 -80,-132 -20,-33 -48,-54 -87,-57 -45,-3 -90,19 -126,43 -14,10 -28,21 -40,34 -10,11 -19,23 -25,37 -3,6 -5,13 -6,20zm286 -204l-1 0c-2,-7 -4,-15 -5,-22 83,-49 167,-94 253,-137l0 0 3 -1 1 -1 3 -1 1 -1 4 -1 0 -1 4 -2 0 0c81,-39 162,-76 245,-110l1 0 4 -2 4 -2 1 0 5 -2 3 -1 1 -1 5 -2 1 0c185,-75 376,-136 570,-183l4 -1 2 -1 1 0 1 0c95,-23 191,-42 287,-58 30,-5 45,11 49,40 1,8 1,16 1,24l0 5 -1 -4c-4,-28 -19,-45 -49,-40 -96,16 -192,36 -287,59l-1 0 -1 0 -2 0 -4 2c-194,47 -385,108 -570,183l-1 0 -5 2 -1 0 -3 2 -5 2 -1 0 -4 1 -4 2 -1 1c-83,34 -164,71 -245,110l0 0 -4 2 0 0 -4 2 -1 0 -3 2 -1 0 -3 2 0 0c-84,42 -166,86 -247,133zm4029 117c13,1 26,4 39,7 21,7 42,17 60,28 22,13 40,30 56,49 14,18 25,38 31,61 5,17 6,35 5,52 -1,-9 -2,-18 -5,-26 -6,-23 -17,-43 -31,-61 -16,-20 -34,-36 -56,-49 -18,-12 -39,-22 -60,-28 -17,-5 -35,-8 -53,-8l14 -25zm-114 285c-3,-14 -1,-28 8,-45 5,-7 10,-13 16,-18 5,-5 11,-9 18,-13 6,6 14,12 22,16 15,10 32,14 50,11 20,-3 34,-17 44,-33 5,-8 9,-15 10,-23 4,17 0,33 -10,49 -10,16 -24,30 -44,33 -18,2 -35,-2 -50,-11 -8,-5 -16,-10 -22,-16 -7,3 -13,8 -18,12 -6,6 -11,12 -16,19 -3,6 -6,13 -8,19zm-184 -16c-5,-15 0,-32 7,-45l8 -15c5,0 9,0 14,0 -7,13 -15,27 -22,41 -3,5 -6,12 -7,19zm-185 -257c0,-4 0,-8 0,-11 -1,-26 6,-52 16,-76 10,-23 24,-44 42,-61 17,-14 35,-25 56,-32 21,-6 43,-8 64,-6 23,3 44,9 65,19 21,10 45,26 56,47 6,13 7,25 4,38 -1,-4 -2,-8 -4,-12 -11,-22 -35,-37 -56,-47 -21,-10 -42,-17 -65,-19 -21,-2 -43,0 -64,6 -21,6 -39,17 -56,32 -18,17 -32,38 -42,60 -8,20 -14,41 -16,62zm135 17c1,4 2,7 4,11 8,20 24,33 42,43 14,6 29,12 44,12 13,1 25,0 37,-4l115 -217 10 6c-41,79 -83,158 -125,236 -12,4 -24,6 -37,5 -15,-1 -30,-6 -44,-13 -18,-9 -34,-22 -42,-42 -6,-12 -7,-25 -4,-37zm-407 31c-4,-13 -1,-27 3,-39l12 -33c3,0 7,-1 10,-1 -7,20 -15,40 -22,59 -1,5 -2,9 -3,14zm-314 -341c-1,-14 -1,-28 3,-42 1,-7 5,-14 11,-19 7,-5 19,-4 28,-3 24,4 50,6 75,6 21,0 42,-1 63,-5 16,-4 32,-9 46,-20 12,-9 21,-22 25,-37l2 -5c3,10 1,21 -2,31 -4,15 -13,28 -25,37 -14,10 -30,16 -46,20 -21,4 -42,5 -63,5 -25,-1 -51,-3 -75,-6 -9,-2 -21,-2 -28,3 -6,5 -10,11 -11,19 -2,5 -3,10 -3,16zm166 -117c0,2 1,4 1,6l-2 1c0,-2 1,-5 1,-7zm-129 -51l-1 0c-1,-9 -1,-19 1,-28 4,-5 7,-11 9,-17 3,-7 7,-15 8,-23l1 -4c2,-3 4,-5 7,-8 12,-13 27,-23 44,-29 20,-8 42,-11 64,-12 27,-1 54,4 80,12 27,8 53,19 76,35 18,13 35,29 47,49 11,18 17,38 19,58 0,8 0,16 -1,24 -1,-20 -8,-39 -18,-56 -12,-20 -29,-36 -47,-49 -23,-17 -49,-28 -76,-36 -26,-7 -53,-12 -80,-11 -22,0 -44,3 -64,11 -17,7 -32,16 -44,30 -12,12 -19,27 -23,43 -1,4 -2,8 -2,11zm110 230c6,11 14,22 23,31 21,20 48,34 75,43 24,7 48,11 72,10 21,-1 42,-5 61,-13 33,-93 67,-187 100,-280 2,-5 5,-9 8,-13 2,4 4,8 6,12l12 4c-3,0 -5,1 -7,2 -9,4 -15,11 -19,21 -33,93 -67,186 -100,280 -19,8 -40,12 -61,13 -24,1 -48,-3 -72,-11 -27,-9 -54,-22 -75,-43 -16,-15 -29,-34 -33,-57l10 1zm320 -314c-1,-22 1,-43 8,-63 6,-19 16,-36 30,-50 13,-13 30,-23 48,-29 20,-6 42,-8 63,-7 25,2 50,8 73,17 25,10 64,28 77,52 8,14 11,29 8,44 -2,-7 -4,-13 -8,-19 -13,-24 -52,-42 -77,-51 -23,-9 -48,-16 -73,-17 -21,-1 -43,0 -63,7 -18,6 -35,15 -48,29 -14,14 -24,31 -30,49 -4,13 -7,25 -8,38zm123 65l1 4c3,16 7,31 12,45 22,9 44,17 66,26l1 1 3 1 7 3 1 1 2 0 2 1 3 1 1 1c263,110 513,247 747,409 19,13 22,28 17,44 -3,-6 -9,-13 -17,-18 -234,-162 -484,-299 -747,-409l-1 -1 -3 -1 -2 -1 -2 -1 -1 0 -7 -3 -3 -1 -1 -1c-22,-9 -44,-18 -66,-26 -5,-15 -9,-30 -12,-45 -2,-10 -2,-20 -1,-30zm-1425 288c0,-3 -1,-6 -1,-10l3 -130 0 0 -2 140zm-268 -141c18,22 39,40 62,57 28,19 59,36 91,49 0,9 -1,17 -3,25 -31,-13 -61,-30 -88,-49 -31,-21 -58,-47 -79,-78 6,-1 11,-2 17,-4zm-191 -56l-1 -5c-1,-10 0,-20 3,-30 2,-9 6,-18 12,-25 11,1 22,1 32,1 13,0 26,-1 39,-2 26,-2 57,-9 77,-28 12,-13 20,-27 22,-43 0,2 1,5 1,8 1,23 -6,44 -23,60 -20,20 -51,26 -77,29 -13,1 -26,1 -39,2 -10,0 -21,0 -32,-1 -6,7 -10,16 -12,25 -1,3 -2,6 -2,9zm-89 -251c-1,-8 -1,-15 0,-23 0,-7 1,-15 4,-22 165,-19 319,-28 486,-29 14,-5 199,5 261,8l0 0 8 1 3 0 0 0 2 0 2 0 2 0c215,15 429,47 639,95 29,6 36,26 31,51 -3,-12 -13,-21 -31,-25 -210,-49 -424,-80 -639,-95l-2 0 -2 0 -2 0 0 0 -3 -1 -8 0 0 0c-62,-4 -247,-13 -261,-9 -167,1 -321,10 -486,29 -2,6 -3,13 -4,20zm1111 521c-1,-9 -1,-19 1,-29l21 -122 5 1c-9,49 -17,98 -26,147l-1 3zm-336 -207c-1,-6 -1,-13 0,-19 1,-20 9,-38 21,-54 8,1 15,1 23,2 12,1 23,-1 33,-9 9,-8 13,-19 14,-31l14 -138 2 0c-5,55 -10,109 -16,163 -1,12 -5,24 -14,32 -10,8 -21,10 -33,9 -8,-1 -15,-2 -23,-2 -11,14 -18,29 -21,47zm-312 -129c3,0 25,0 27,-1 23,-3 40,-7 62,-16l2 -122 0 0c-1,50 -1,99 -2,148 -22,9 -39,13 -62,15 -2,1 -24,2 -27,2 -19,0 -38,-1 -57,-5 3,-8 6,-16 8,-24 16,2 33,3 49,3zm-61 -138c2,6 5,12 7,18 6,17 9,34 9,52 0,5 0,10 0,15 -1,-14 -4,-28 -9,-41 -5,-15 -12,-30 -20,-44l13 0zm603 176c51,6 101,14 150,23l25 -140 4 1c-9,55 -19,110 -29,165 -51,-9 -102,-17 -153,-24l3 -25zm-1666 201c15,-5 30,-12 42,-22 4,-2 8,-5 11,-9l16 6c-6,12 -16,21 -27,29 -12,9 -27,16 -42,21 -23,8 -51,12 -74,1 -25,-11 -40,-40 -48,-64 -6,-19 -13,-37 -19,-56l10 3 9 27c8,24 23,54 48,65 23,10 51,6 74,-1zm-113 -174c53,16 105,33 156,50l9 29c-68,-24 -137,-45 -206,-65 14,-4 28,-9 41,-14z"/>
   </g>
   <path class="fil22" d="M4246 1717c17,97 35,195 52,292 -3,2 -7,3 -11,5 -5,2 -10,3 -16,4 -9,2 -22,4 -30,-1 -8,-4 -11,-12 -13,-20 -7,-34 -14,-68 -21,-102 -35,7 -70,15 -104,23 0,14 -3,27 -12,38 -9,12 -22,19 -36,23 -15,3 -32,6 -46,-2 -11,-5 -19,-14 -22,-26 -3,-10 -2,-21 0,-31 6,-2 12,-3 17,-5 7,-2 13,-5 17,-11 4,-6 4,-13 2,-20 -9,-31 -17,-62 -25,-93 -2,-6 -5,-11 -11,-14 -6,-2 -12,-2 -18,0 -11,3 -21,10 -18,23 -4,2 -8,4 -12,5 -9,3 -19,4 -28,1 -8,-3 -13,-10 -15,-18 -5,-16 0,-29 11,-40 13,-14 31,-22 49,-27 23,-7 50,-9 73,-1 22,7 33,23 38,45 9,34 17,68 25,103 35,-9 70,-17 105,-24 -8,-38 -16,-76 -23,-114 -17,4 -33,7 -50,11 -16,3 -24,-4 -28,-20 -1,-4 -1,-8 -1,-12 0,-4 0,-8 1,-12 62,-14 125,-26 188,-36 16,-3 25,5 27,20 1,4 1,9 0,13 0,4 0,8 -1,12 -21,3 -43,7 -64,11zm173 -26c12,98 23,197 35,295 -4,1 -8,3 -11,4 -6,2 -11,3 -17,3 -9,2 -22,3 -30,-2 -8,-5 -11,-13 -12,-22 -13,-89 -26,-179 -39,-269 -16,3 -31,5 -47,8 -6,1 -14,1 -19,-3 -5,-5 -7,-12 -8,-18 -1,-4 -1,-8 -1,-12 0,-4 1,-8 1,-12 63,-11 126,-19 189,-26 16,-1 24,7 25,22 1,4 0,9 0,13 -1,4 -1,8 -3,12 -21,2 -42,4 -63,7zm174 -16c6,99 12,198 18,297 -4,1 -8,2 -12,3 -5,1 -11,2 -16,3 -9,0 -23,0 -30,-5 -8,-5 -10,-14 -11,-22 -8,-90 -15,-180 -23,-271 -16,2 -32,3 -48,5 -6,1 -14,0 -19,-4 -4,-5 -6,-12 -7,-19 0,-4 0,-8 0,-12 1,-4 1,-8 2,-11 22,-3 44,-5 66,-7 -5,-5 -8,-12 -10,-19 -3,-8 -5,-16 -5,-24 -2,-15 1,-30 7,-44 7,-15 18,-27 31,-36 16,-12 36,-20 55,-26 26,-8 53,-11 79,-12 37,-1 73,2 108,10 1,0 4,1 5,1 17,1 63,18 80,26 19,9 39,20 55,33 6,6 19,18 18,27 0,9 -5,16 -13,20 -10,5 -21,7 -32,6 -12,-11 -26,-21 -40,-30 -17,-9 -34,-17 -52,-23 -4,-1 -12,-3 -16,-5 -8,-3 -34,-7 -43,-9 -21,-3 -42,-4 -63,-3 -25,1 -56,5 -77,20 -16,12 -25,27 -24,47 1,7 2,13 4,20 2,5 4,11 8,15 16,-1 32,-1 49,-2 16,-1 23,8 24,23 0,4 0,9 -1,13 -1,4 -2,8 -3,12 -21,0 -43,2 -64,3zm370 -1c-6,99 -12,198 -18,297 -4,1 -8,1 -12,2 -5,1 -11,1 -16,0 -10,0 -23,-1 -30,-8 -7,-6 -8,-14 -8,-23 1,-28 2,-56 3,-84 -11,6 -23,10 -35,13 -14,3 -28,4 -42,4 -5,0 -18,0 -22,-1 -26,-4 -46,-10 -67,-27 -26,-21 -35,-53 -36,-86 -1,-30 -2,-60 -3,-90 -12,0 -23,1 -35,1 -6,1 -14,0 -18,-5 -5,-5 -6,-12 -6,-19 -1,-4 0,-8 0,-12 1,-4 2,-8 3,-11 54,-3 108,-5 162,-5 77,1 152,3 229,9 16,1 23,10 21,26 0,4 -1,8 -2,12 -1,4 -2,8 -5,12 -21,-2 -42,-4 -63,-5zm-142 148c12,1 24,-1 35,-5 10,-2 19,-7 27,-13 -33,-25 -66,-50 -100,-74 -6,-5 -24,-16 -32,-22 0,16 0,32 0,48 1,18 4,40 19,52 2,2 10,7 13,8 13,5 25,6 38,6zm64 -60c1,-31 2,-61 3,-91 -35,-1 -70,-2 -105,-2 -6,-1 -22,0 -29,0 8,5 22,16 29,20 35,23 68,48 102,73zm557 -21c-21,97 -43,193 -64,290 -4,0 -8,0 -12,0 -6,0 -11,-1 -17,-2 -9,-2 -22,-5 -28,-13 -5,-6 -5,-15 -4,-24 18,-88 35,-177 52,-266 -25,-5 -51,-10 -77,-14 -1,19 -3,38 -5,57 -3,18 -5,36 -8,54 -3,16 -8,31 -17,44 -8,11 -18,21 -30,28 -12,7 -26,11 -40,13 -15,3 -32,2 -47,0 -16,-2 -32,-5 -46,-11 -13,-6 -25,-13 -36,-23 -10,-10 -17,-21 -21,-34 -6,-16 -7,-32 -6,-48 2,-18 4,-36 6,-55 3,-19 5,-37 9,-56 -13,-1 -26,-2 -39,-3 -6,-1 -14,-3 -18,-8 -4,-5 -4,-13 -4,-19 1,-4 2,-8 3,-12 0,-4 2,-8 4,-11 168,11 336,37 501,76 16,4 21,14 17,29 -1,4 -2,8 -4,12 -2,4 -4,7 -7,10 -20,-5 -41,-10 -62,-14zm-291 114c13,2 26,1 36,-7 11,-8 16,-20 17,-33 6,-38 11,-76 17,-114 -33,-5 -66,-9 -98,-13 -5,38 -9,77 -13,115 -2,13 0,26 9,36 8,10 20,15 32,16zm461 -72c-27,96 -54,191 -81,287 -4,-1 -8,-1 -12,-1 -6,-1 -12,-2 -17,-3 -9,-3 -21,-7 -27,-15 -5,-7 -5,-16 -2,-24 22,-87 44,-175 67,-263 -16,-4 -31,-8 -47,-11 -6,-2 -13,-5 -16,-10 -3,-6 -2,-14 -1,-20 1,-4 3,-8 4,-12 2,-3 4,-7 6,-10 22,5 44,10 66,16 1,-5 3,-11 4,-16 5,-20 9,-46 1,-65 -8,-16 -21,-25 -37,-29 -13,-3 -25,-2 -37,3 -13,7 -19,18 -22,31 -1,6 -2,11 -3,16 -4,0 -7,0 -10,0 -8,1 -15,0 -23,-2 -11,-2 -21,-6 -30,-13 -9,-7 -10,-18 -8,-29 3,-12 8,-23 16,-32 8,-10 19,-17 31,-22 13,-6 28,-9 43,-9 18,-1 36,1 54,5 35,9 69,26 90,57 21,32 18,72 8,108 -2,5 -3,11 -5,16 15,5 31,9 46,14 15,4 20,15 15,30 -1,4 -3,8 -5,11 -2,4 -4,7 -7,11 -20,-7 -41,-13 -61,-19z"/>
  </g>
  <g id="_874649608">
   <path class="fil19" d="M3806 8666c-33,129 -67,257 -101,386 -5,0 -10,0 -15,-1 -7,0 -14,-1 -21,-3 -11,-3 -27,-9 -33,-19 -7,-10 -5,-22 -2,-32 7,-25 14,-50 21,-75 -16,8 -32,11 -50,12 -19,1 -39,-3 -58,-9 -31,-10 -59,-26 -81,-50 -21,-24 -32,-47 -39,-78 -2,-7 -3,-14 -4,-21 -17,-2 -34,-6 -50,-12 -18,-7 -35,-16 -51,-27 -16,-10 -30,-24 -41,-40 -23,6 -47,4 -70,-2 1,16 3,32 7,48 4,16 9,31 15,46 7,14 14,28 23,41 8,12 17,23 27,34 -6,13 -14,25 -27,32 -13,9 -28,7 -43,1 -14,-6 -26,-16 -35,-28 -12,-15 -20,-33 -26,-51 -7,-22 -10,-46 -12,-69 -1,-26 1,-53 5,-79 -9,-5 -19,-13 -22,-23 -2,-11 -1,-21 4,-30 2,-6 6,-12 11,-17 5,-5 10,-9 15,-12 6,4 12,8 18,12 8,4 16,8 24,12 20,9 44,14 65,5 20,-8 32,-24 40,-44 5,-12 8,-25 9,-38 1,-12 1,-25 -1,-37 -38,-15 -75,-31 -113,-48l-1 -1 0 0 -1 0 -1 -1 0 0 -1 0 -1 0 0 0 0 -1 -1 0 -1 0 0 -1 -1 0 -1 0 0 -1 -1 0 -1 0 0 0 -1 -1 0 0 -1 0 0 0 0 0c-16,-8 -32,-15 -47,-22 -57,120 -113,241 -170,361 -5,-1 -10,-2 -16,-4 -6,-1 -13,-4 -20,-7 -10,-5 -25,-14 -29,-25 -5,-10 -1,-22 4,-32 54,-109 108,-218 162,-327l-32 -16 -1 0 -1 0 0 -1 -1 0 -1 0 0 0 0 -1 -1 0 -1 0 -1 -1 0 0 0 0 -1 -1 -1 0 0 0 -1 -1 0 0 -1 0 0 0 -1 -1 -1 0 0 0 0 0 -1 0 0 0 0 -1c-67,-34 -133,-70 -198,-108 -14,25 -29,51 -44,76 13,-2 26,-1 39,1 16,3 31,9 44,17 15,8 29,19 39,33 11,13 18,27 23,43 4,17 5,34 3,51 -2,20 -9,38 -18,56 -9,17 -21,34 -36,47 -13,11 -28,20 -44,25 -16,5 -32,6 -48,4 -17,-2 -32,-7 -46,-15 -26,-14 -46,-35 -29,-65 3,-5 6,-10 10,-14 4,-3 8,-6 12,-8 3,2 6,5 9,7 3,2 7,4 10,6 15,9 31,12 48,8 19,-5 32,-20 40,-36 9,-16 13,-33 8,-51 -5,-18 -17,-31 -33,-40 -11,-6 -23,-9 -35,-9 -12,0 -23,1 -34,5 -40,67 -80,135 -120,203 -5,-2 -10,-3 -15,-5 -6,-2 -13,-5 -19,-9 -10,-6 -24,-16 -28,-28 -3,-11 1,-22 7,-31 10,-16 20,-32 30,-48 -14,1 -29,-1 -42,-4 -17,-4 -33,-12 -48,-22 -15,-9 -27,-21 -38,-35 -10,-14 -18,-30 -22,-47 -3,-18 -3,-35 0,-53 4,-21 14,-40 26,-57 11,-16 24,-31 41,-41 14,-10 29,-16 45,-20 16,-3 31,-3 47,0 15,3 30,9 43,18 13,8 28,20 33,36 4,12 2,24 -5,35 -6,9 -14,17 -25,21 -2,-3 -5,-7 -9,-10 -3,-4 -8,-7 -12,-10 -15,-9 -31,-13 -48,-11 -18,4 -32,16 -42,32 -10,15 -15,32 -11,51 4,19 16,33 32,43 13,8 26,14 41,14 11,0 23,-1 34,-6 40,-65 81,-131 121,-197 -67,-41 -132,-84 -196,-129 -17,-12 -10,-28 0,-42 3,-4 6,-8 10,-12 4,-4 8,-8 12,-10 147,104 300,197 460,279l3 2 2 1 0 0 1 0c52,27 104,52 157,77l2 0c213,97 434,175 661,231 7,2 14,6 16,13 3,8 1,17 -1,25 -1,5 -3,11 -5,16 -2,5 -4,10 -7,14 -21,-5 -43,-10 -65,-16zm3270 -616c78,108 156,216 235,323 -4,4 -7,8 -11,12 -5,5 -10,10 -16,14 -10,7 -24,16 -37,14 -11,-1 -20,-10 -26,-19 -69,-99 -139,-199 -208,-299l-31 22 0 0 0 0 -1 0 0 0 0 1 -2 0 0 0 0 1 -1 0 0 0 0 0 -1 1 0 0 0 0 -1 1 0 0 -1 0 0 0 0 0 -1 1 0 0 -1 0 0 0 0 1 -1 0 0 0 0 1 -1 0 0 0 0 0 0 0 0 0c-15,10 -30,20 -45,30 74,111 147,222 220,333 -4,4 -8,8 -12,12 -5,5 -10,9 -16,13 -10,6 -25,14 -37,12 -11,-2 -20,-11 -25,-20 -37,-57 -73,-115 -109,-173 -10,4 -20,8 -30,12 -11,4 -21,9 -30,15 -22,13 -40,31 -50,55 -10,26 -2,53 12,76 12,22 29,40 51,53 20,11 42,20 64,26 2,10 2,20 -2,30 -4,11 -12,19 -22,24 -12,7 -25,8 -39,6 -16,-2 -31,-8 -46,-16 -16,-9 -31,-22 -45,-35 -15,-15 -27,-32 -37,-51 -12,-21 -21,-43 -24,-67 -2,-20 -1,-40 5,-60 6,-19 16,-37 30,-52 15,-17 33,-31 52,-42 12,-8 24,-14 37,-20 12,-5 24,-10 36,-14 -16,-25 -32,-50 -48,-75 -73,46 -147,89 -223,130l-3 2 0 0 -3 2 -1 0 0 0c-68,36 -137,71 -208,104 13,26 25,53 37,80 6,-12 14,-23 24,-32 11,-11 24,-20 38,-27 16,-7 32,-12 50,-13 16,-1 32,1 48,7 16,5 31,14 44,26 14,13 26,29 35,46 9,18 16,37 18,57 2,17 1,34 -4,51 -5,15 -13,29 -24,41 -11,12 -24,22 -39,29 -26,13 -55,18 -69,-13 -3,-6 -5,-11 -6,-17 0,-4 -1,-9 0,-14 4,-1 7,-2 11,-3 4,-2 7,-3 11,-5 15,-8 27,-19 33,-35 7,-18 2,-37 -6,-54 -8,-16 -20,-29 -38,-35 -17,-6 -35,-3 -51,5 -11,5 -21,13 -28,23 -7,10 -12,20 -15,31 33,71 66,143 99,214 -4,3 -8,6 -13,9 -5,4 -11,8 -17,11 -11,4 -28,10 -39,7 -11,-4 -18,-14 -22,-24 -8,-17 -15,-34 -23,-51 -7,12 -16,23 -26,32 -13,11 -29,20 -45,26 -16,7 -33,11 -51,11 -17,1 -34,-2 -50,-9 -16,-6 -31,-17 -43,-30 -15,-15 -25,-34 -32,-53 -7,-19 -12,-38 -11,-57 0,-17 3,-33 10,-49 6,-14 15,-27 26,-38 11,-11 24,-19 38,-25 14,-6 33,-11 48,-7 12,4 21,12 26,24 5,10 6,21 4,33 -5,0 -9,1 -14,1 -5,1 -10,3 -15,5 -16,7 -28,17 -35,33 -8,17 -5,35 1,52 7,17 18,32 36,39 18,7 36,5 54,-2 13,-6 25,-14 34,-26 7,-9 12,-19 14,-30 -31,-71 -62,-142 -93,-213 -67,30 -134,57 -202,82l-1 1 -1 0 -1 1 -1 0 0 0 -1 0 -1 1 -1 0 0 0 -1 0 -1 1 -1 0 0 0 -1 0 -1 1 -1 0 -1 1 0 0 -1 0 0 0c-16,6 -32,12 -48,17 44,126 89,251 133,377 -4,2 -9,5 -13,8 -6,3 -12,6 -19,8 -11,4 -27,8 -39,3 -10,-4 -16,-15 -19,-25 -18,-54 -36,-109 -54,-163 -36,12 -73,23 -109,34 -7,3 -14,6 -18,13 -4,8 -2,18 0,26 4,11 7,22 10,33 -4,4 -9,8 -14,12 -6,3 -12,6 -18,8 -16,4 -31,2 -45,-7 -18,-10 -27,-29 -32,-48 -6,-20 -6,-40 5,-58 11,-18 29,-28 49,-33 50,-15 100,-30 149,-47 -12,-39 -25,-77 -38,-116 -74,25 -149,47 -225,67l-1 0 -1 1 0 0 -1 0 -1 0 -1 0 -1 1 0 0 -1 0 -1 0 -1 0 0 1 -1 0 -1 0 -1 0 -1 1 0 0 -1 0 0 0c-16,4 -33,9 -50,13 32,129 64,258 96,387 -4,2 -9,5 -14,7 -6,3 -13,5 -20,7 -11,2 -28,5 -39,-1 -10,-5 -14,-17 -17,-27 -27,-119 -54,-237 -80,-356l-34 8 -1 0 0 0 0 0 -1 0 0 0 -1 0 -1 1 0 0 0 0 -1 0 0 0 -1 0 0 0 -1 0 0 0 0 0 -1 1 0 0 -1 0 0 0 -1 0 0 0 -1 0 0 0 -1 0 0 0 -1 1 0 0 0 0 -1 0 0 0 -1 0 0 0 0 0 -1 0c-19,4 -39,8 -59,12 7,33 13,67 20,100 2,8 2,18 -3,26 -5,7 -15,11 -23,12 -26,5 -53,10 -79,14 -24,4 -45,14 -62,32 -17,19 -20,43 -16,67 2,13 6,26 12,37 6,10 14,18 23,25 10,7 20,11 31,13 12,2 24,2 36,0 12,-2 27,-6 36,-15 9,-9 9,-21 7,-32 -1,-7 -3,-13 -5,-19 -2,-5 -4,-11 -7,-17 4,-6 9,-12 15,-16 8,-5 16,-8 25,-9 7,-2 15,-2 22,0 8,1 15,4 21,8 7,5 13,11 18,17 5,8 8,18 10,27 3,14 3,27 -1,40 -4,11 -9,22 -17,31 13,16 27,31 42,44 13,11 26,22 39,32 1,13 -2,25 -10,35 -8,10 -19,16 -32,18 -14,3 -28,1 -40,-7 -14,-10 -23,-25 -31,-39 -7,-16 -15,-31 -22,-47 -8,5 -15,8 -23,11 -11,5 -23,7 -34,9 -23,4 -47,5 -70,1 -22,-4 -42,-11 -61,-23 -18,-11 -33,-27 -45,-45 -12,-21 -19,-45 -22,-69 -3,-21 -2,-42 2,-62 4,-20 12,-37 24,-53 12,-16 27,-29 44,-39 21,-12 44,-19 67,-23 15,-2 30,-5 45,-7 -4,-21 -8,-42 -11,-62 -71,12 -142,23 -213,31l-1 0 -1 0 -1 0 0 0 -1 1 -2 0 0 0 -2 0 -1 0 -1 0 0 0 -1 0 -1 1 -1 0 0 0 -1 0 0 0c-17,2 -34,4 -51,5 14,133 27,265 41,397 -5,2 -10,4 -15,5 -6,2 -13,4 -20,4 -12,1 -29,2 -39,-6 -10,-6 -13,-18 -14,-29 -10,-121 -20,-242 -30,-363 -38,3 -77,5 -115,7 12,18 21,38 28,59 8,23 12,47 14,72 1,22 0,44 -5,66 -4,17 -11,34 -22,49 -10,13 -22,23 -37,30 -15,8 -30,11 -47,12 -15,0 -31,-2 -43,-11 -11,-9 -16,-20 -16,-34 0,-12 2,-23 6,-34 7,1 13,2 20,2 19,-1 35,-8 46,-24 15,-20 16,-50 15,-73 -1,-21 -5,-42 -12,-62 -6,-17 -14,-33 -25,-48 -20,0 -39,1 -59,1l0 0 -1 0 -1 0 0 0 -1 0 0 0 -1 0 0 0 -1 0 0 0 -1 0 0 0 -1 0 -1 0 -2 0 0 0 -1 0 0 1 -1 0 0 0 -1 0 0 0 -1 0 0 0 -1 0 0 0 -1 0c-17,0 -34,0 -51,0 0,133 0,266 0,399 0,0 -3,1 -3,1 -1,0 -11,2 -12,2 -7,2 -15,2 -22,2 -12,0 -29,-1 -38,-10 -8,-7 -10,-19 -10,-30 3,-122 5,-243 7,-365 -12,0 -25,0 -37,-1l0 0 -1 0 0 0 -1 0 0 0 -1 0 0 0 -1 0 0 0 -1 0 0 0 -1 0 0 0 -1 0 0 0 -1 0 0 0 0 0 -1 0 0 0 -1 0 0 0 -1 0 0 0 0 0 -1 0 0 0 -1 0 0 0 0 0 -1 0 0 0 0 0 0 0c-18,-1 -36,-1 -54,-2 -6,133 -12,266 -18,399 -5,1 -10,1 -15,2 -7,1 -14,1 -21,1 -12,-1 -29,-3 -38,-12 -8,-8 -9,-20 -8,-31 1,-25 3,-51 5,-77 -14,11 -30,18 -46,22 -20,4 -40,5 -59,3 -33,-3 -64,-13 -91,-32 -25,-18 -42,-40 -55,-68 -7,-15 -12,-30 -14,-47 -2,-13 -3,-28 -1,-42 0,-5 2,-11 5,-16 3,-4 9,-6 14,-6 22,0 46,0 65,-13 15,-10 22,-25 24,-43 2,-12 0,-25 -5,-37 -5,-10 -13,-19 -23,-26 -28,-4 -55,-7 -83,-11 -20,-3 -21,-21 -19,-37 1,-5 2,-11 4,-16 1,-5 3,-10 6,-15 136,20 273,33 411,38l1 0 1 0 1 0 1 0 1 0 1 0 1 0 1 0 1 0 1 0 1 0 1 0 1 1 0 0 0 0 0 0 1 0 0 0 0 0 0 0c19,0 37,1 56,1 -7,-17 -17,-32 -28,-46 -11,-14 -22,-27 -35,-39 -12,-11 -25,-22 -39,-31 -11,-7 -23,-14 -36,-18 0,-2 0,-4 0,-6 0,-3 0,-5 0,-7 1,-13 4,-26 12,-37 8,-11 19,-15 32,-14 15,1 31,8 43,18 17,12 32,28 45,44 16,20 29,41 41,63 13,23 23,48 31,74 1,0 5,0 6,0 1,0 22,0 36,0l0 0 10 -1 0 0 1 0 1 0 0 0 1 0 0 0 0 0 1 0 0 0 0 0 1 0c125,-1 250,-9 374,-23l0 0 1 0 4 -1 2 0 4 0 2 -1c115,-13 229,-31 342,-55 58,-12 116,-25 174,-40l2 -1 1 0 2 -1 3 -1 1 0 2 0 1 -1 0 0c115,-30 228,-65 339,-105l3 -1 5 -2 0 0 6 -2c162,-60 320,-131 473,-212l5 -3 2 -1c112,-60 222,-126 328,-197l0 0 1 0 1 -1 1 0 1 -1 1 -1 0 0 1 0 0 -1 1 0 1 -1 1 -1 1 0 1 -1 0 0c15,-10 31,-21 46,-32 -17,-3 -33,-11 -47,-21 -16,-10 -29,-24 -40,-40 -16,-24 -25,-50 -22,-78 4,-28 18,-49 40,-65 12,-8 29,-19 45,-16 12,2 22,9 29,19 7,8 11,17 11,28 -4,1 -9,2 -13,4 -5,2 -10,5 -14,8 -11,8 -16,19 -18,32 -2,16 4,31 13,44 9,12 19,22 31,29 12,8 25,14 39,18 15,-11 31,-22 46,-34 15,-11 29,-1 39,12 3,5 6,10 8,15 3,4 5,9 7,14 -18,14 -36,27 -54,40zm-2649 975c19,2 38,0 56,-8 14,-6 28,-14 39,-26 5,-69 9,-138 14,-206 -41,-3 -81,-6 -121,-10 8,9 14,20 18,32 6,13 7,27 6,41 -1,14 -5,27 -11,40 -6,11 -14,21 -24,28 -10,9 -21,14 -34,18 -13,4 -27,7 -41,7 5,22 15,40 30,56 18,18 43,26 68,28zm-1290 -803c6,-12 15,-23 28,-28 13,-6 25,-5 37,1 12,6 21,15 24,28 3,14 1,27 -5,40 -6,12 -15,22 -27,28 -13,6 -26,6 -38,0 -13,-6 -21,-16 -24,-30 -3,-13 -1,-27 5,-39zm440 637c18,5 37,8 56,4 15,-4 30,-9 44,-18 18,-66 37,-133 56,-199 -39,-11 -77,-23 -115,-35 5,11 9,23 11,35 2,14 1,28 -3,42 -4,13 -10,26 -19,37 -8,9 -18,17 -29,23 -12,6 -24,9 -37,10 -14,1 -28,1 -41,-1 -1,22 5,42 17,60 14,22 36,34 60,42zm-197 -331c2,13 2,27 1,41 -1,15 -5,30 -10,45 -8,20 -19,38 -35,53 15,10 31,19 48,25 8,3 16,5 24,7 8,2 16,4 23,4 2,-4 5,-9 9,-11 4,-3 9,-4 14,-3 21,5 44,10 66,1 16,-7 27,-20 32,-37 4,-12 6,-24 3,-37 -3,-12 -9,-22 -17,-31 -53,-18 -105,-37 -158,-57z"/>
   <path class="fil23" d="M3806 8641c-33,129 -67,258 -101,386 -5,0 -10,0 -15,0 -7,0 -14,-2 -21,-4 -11,-3 -27,-8 -33,-19 -7,-9 -5,-21 -2,-32 7,-25 14,-49 21,-74 -16,7 -32,11 -50,11 -19,1 -39,-3 -58,-9 -31,-9 -59,-25 -81,-50 -21,-23 -32,-46 -39,-77 -2,-8 -3,-14 -4,-22 -17,-2 -34,-6 -50,-12 -18,-6 -35,-15 -51,-26 -16,-11 -30,-24 -41,-40 -23,5 -47,4 -70,-3 1,17 3,33 7,49 4,15 9,31 15,45 7,14 14,28 23,41 8,12 17,24 27,34 -6,14 -14,25 -27,33 -13,8 -28,6 -43,1 -14,-6 -26,-17 -35,-29 -12,-15 -20,-33 -26,-51 -7,-22 -10,-45 -12,-68 -1,-27 1,-53 5,-79 -9,-6 -19,-13 -22,-24 -2,-10 -1,-20 4,-29 2,-7 6,-12 11,-17 5,-5 10,-9 15,-13 6,5 12,9 18,12 8,5 16,9 24,12 20,9 44,14 65,6 20,-9 32,-25 40,-44 5,-13 8,-25 9,-38 1,-13 1,-25 -1,-37 -38,-16 -75,-32 -113,-49l-1 0 0 0 -1 -1 -1 0 0 0 -1 -1 -1 0 0 0 0 0 -1 -1 -1 0 0 0 -1 -1 -1 0 0 0 -1 0 -1 -1 0 0 -1 0 0 -1 -1 0 0 0 0 0c-16,-7 -32,-14 -47,-22 -57,121 -113,241 -170,361 -5,-1 -10,-2 -16,-3 -6,-2 -13,-5 -20,-8 -10,-5 -25,-13 -29,-25 -5,-10 -1,-22 4,-31 54,-109 108,-218 162,-327l-32 -16 -1 -1 -1 0 0 0 -1 -1 -1 0 0 0 0 0 -1 -1 -1 0 -1 0 0 -1 0 0 -1 0 -1 0 0 -1 -1 0 0 0 -1 0 0 -1 -1 0 -1 -1 0 0 0 0 -1 0 0 0 0 0c-67,-34 -133,-71 -198,-109 -14,26 -29,51 -44,77 13,-2 26,-2 39,1 16,2 31,9 44,16 15,9 29,20 39,33 11,13 18,28 23,44 4,16 5,33 3,51 -2,19 -9,38 -18,55 -9,18 -21,34 -36,47 -13,12 -28,20 -44,25 -16,5 -32,7 -48,5 -17,-3 -32,-8 -46,-16 -26,-14 -46,-35 -29,-65 3,-5 6,-9 10,-13 4,-4 8,-7 12,-9 3,3 6,5 9,7 3,3 7,5 10,7 15,8 31,11 48,7 19,-4 32,-19 40,-36 9,-15 13,-33 8,-50 -5,-19 -17,-31 -33,-40 -11,-6 -23,-10 -35,-10 -12,0 -23,2 -34,5 -40,68 -80,136 -120,203 -5,-1 -10,-3 -15,-5 -6,-2 -13,-5 -19,-9 -10,-6 -24,-16 -28,-28 -3,-10 1,-22 7,-31 10,-16 20,-32 30,-48 -14,1 -29,0 -42,-3 -17,-5 -33,-13 -48,-22 -15,-10 -27,-22 -38,-36 -10,-14 -18,-29 -22,-46 -3,-18 -3,-36 0,-54 4,-20 14,-40 26,-57 11,-16 24,-30 41,-41 14,-9 29,-16 45,-19 16,-3 31,-3 47,0 15,3 30,9 43,17 13,9 28,21 33,36 4,12 2,24 -5,35 -6,10 -14,17 -25,22 -2,-4 -5,-7 -9,-11 -3,-3 -8,-7 -12,-9 -15,-10 -31,-14 -48,-11 -18,3 -32,16 -42,31 -10,16 -15,33 -11,51 4,19 16,33 32,43 13,8 26,14 41,14 11,1 23,-1 34,-5 40,-66 81,-132 121,-198 -67,-41 -132,-84 -196,-129 -17,-11 -10,-28 0,-41 3,-5 6,-9 10,-13 4,-3 8,-7 12,-10 147,104 300,198 460,280l3 1 2 1 0 1 1 0c52,26 104,52 157,76l2 1c213,97 434,174 661,231 7,2 14,5 16,12 3,8 1,18 -1,26 -1,5 -3,10 -5,15 -2,5 -4,10 -7,15 -21,-5 -43,-11 -65,-17zm3270 -615c78,107 156,215 235,323 -4,4 -7,7 -11,11 -5,6 -10,10 -16,14 -10,7 -24,16 -37,15 -11,-2 -20,-10 -26,-19 -69,-100 -139,-200 -208,-299l-31 21 0 0 0 0 -1 1 0 0 0 0 -2 1 0 0 0 0 -1 0 0 1 0 0 -1 0 0 1 0 0 -1 0 0 0 -1 1 0 0 0 0 -1 0 0 0 -1 1 0 0 0 0 -1 0 0 1 0 0 -1 0 0 0 0 1 0 0 0 0c-15,10 -30,19 -45,29 74,111 147,222 220,334 -4,4 -8,7 -12,11 -5,5 -10,9 -16,13 -10,6 -25,15 -37,13 -11,-2 -20,-11 -25,-20 -37,-58 -73,-116 -109,-173 -10,3 -20,7 -30,11 -11,5 -21,10 -30,16 -22,13 -40,30 -50,55 -10,26 -2,52 12,75 12,22 29,41 51,53 20,12 42,21 64,27 2,10 2,20 -2,30 -4,10 -12,18 -22,24 -12,7 -25,8 -39,6 -16,-3 -31,-9 -46,-17 -16,-9 -31,-21 -45,-35 -15,-15 -27,-32 -37,-50 -12,-21 -21,-44 -24,-67 -2,-21 -1,-41 5,-60 6,-20 16,-37 30,-52 15,-17 33,-31 52,-43 12,-7 24,-14 37,-19 12,-6 24,-11 36,-15 -16,-25 -32,-50 -48,-75 -73,46 -147,90 -223,131l-3 1 0 0 -3 2 -1 0 0 0c-68,37 -137,72 -208,104 13,27 25,54 37,80 6,-12 14,-22 24,-32 11,-11 24,-19 38,-26 16,-8 32,-12 50,-14 16,-1 32,2 48,7 16,6 31,15 44,26 14,13 26,30 35,47 9,17 16,37 18,56 2,18 1,35 -4,51 -5,16 -13,30 -24,42 -11,12 -24,22 -39,29 -26,13 -55,17 -69,-14 -3,-5 -5,-11 -6,-16 0,-5 -1,-10 0,-14 4,-1 7,-2 11,-4 4,-1 7,-3 11,-5 15,-7 27,-18 33,-35 7,-18 2,-36 -6,-53 -8,-16 -20,-29 -38,-35 -17,-7 -35,-4 -51,4 -11,6 -21,13 -28,23 -7,10 -12,20 -15,32 33,71 66,142 99,213 -4,4 -8,7 -13,10 -5,4 -11,7 -17,10 -11,5 -28,11 -39,7 -11,-3 -18,-14 -22,-23 -8,-18 -15,-35 -23,-52 -7,12 -16,23 -26,32 -13,12 -29,20 -45,27 -16,7 -33,10 -51,11 -17,0 -34,-2 -50,-9 -16,-7 -31,-17 -43,-30 -15,-15 -25,-34 -32,-54 -7,-18 -12,-37 -11,-57 0,-17 3,-33 10,-48 6,-15 15,-27 26,-38 11,-11 24,-20 38,-26 14,-5 33,-11 48,-6 12,4 21,12 26,23 5,11 6,22 4,33 -5,1 -9,1 -14,2 -5,1 -10,3 -15,4 -16,7 -28,18 -35,33 -8,17 -5,36 1,53 7,17 18,31 36,38 18,8 36,5 54,-2 13,-5 25,-13 34,-25 7,-9 12,-20 14,-31 -31,-71 -62,-142 -93,-212 -67,29 -134,56 -202,82l-1 0 -1 1 -1 0 -1 0 0 0 -1 1 -1 0 -1 0 0 0 -1 1 -1 0 -1 1 0 0 -1 0 -1 0 -1 1 -1 0 0 0 -1 0 0 0c-16,6 -32,12 -48,18 44,125 89,251 133,376 -4,3 -9,6 -13,8 -6,4 -12,6 -19,9 -11,4 -27,8 -39,3 -10,-4 -16,-15 -19,-26 -18,-54 -36,-108 -54,-163 -36,12 -73,24 -109,35 -7,2 -14,6 -18,13 -4,7 -2,17 0,25 4,11 7,22 10,33 -4,4 -9,9 -14,12 -6,4 -12,6 -18,8 -16,5 -31,2 -45,-6 -18,-10 -27,-30 -32,-49 -6,-19 -6,-40 5,-57 11,-18 29,-28 49,-34 50,-14 100,-30 149,-47 -12,-38 -25,-77 -38,-116 -74,25 -149,47 -225,68l-1 0 -1 0 0 0 -1 0 -1 1 -1 0 -1 0 0 0 -1 0 -1 1 -1 0 0 0 -1 0 -1 0 -1 1 -1 0 0 0 -1 0 0 0c-16,5 -33,9 -50,13 32,129 64,258 96,387 -4,3 -9,5 -14,7 -6,3 -13,6 -20,7 -11,3 -28,6 -39,0 -10,-6 -14,-17 -17,-28 -27,-118 -54,-237 -80,-355l-34 7 -1 0 0 1 0 0 -1 0 0 0 -1 0 -1 0 0 0 0 0 -1 0 0 0 -1 1 0 0 -1 0 0 0 0 0 -1 0 0 0 -1 0 0 0 -1 0 0 1 -1 0 0 0 -1 0 0 0 -1 0 0 0 0 0 -1 0 0 0 -1 1 0 0 0 0 -1 0c-19,4 -39,8 -59,12 7,33 13,66 20,99 2,9 2,19 -3,26 -5,8 -15,11 -23,13 -26,5 -53,10 -79,14 -24,4 -45,13 -62,31 -17,19 -20,44 -16,68 2,13 6,25 12,36 6,10 14,19 23,26 10,6 20,10 31,13 12,2 24,2 36,0 12,-2 27,-6 36,-15 9,-9 9,-22 7,-33 -1,-6 -3,-12 -5,-18 -2,-6 -4,-12 -7,-17 4,-7 9,-12 15,-16 8,-5 16,-8 25,-10 7,-1 15,-1 22,0 8,2 15,4 21,9 7,4 13,10 18,17 5,8 8,17 10,27 3,13 3,26 -1,39 -4,12 -9,23 -17,32 13,15 27,30 42,44 13,11 26,22 39,32 1,12 -2,24 -10,34 -8,10 -19,16 -32,19 -14,3 -28,1 -40,-8 -14,-10 -23,-24 -31,-39 -7,-15 -15,-31 -22,-46 -8,4 -15,8 -23,11 -11,4 -23,7 -34,9 -23,4 -47,4 -70,0 -22,-3 -42,-11 -61,-22 -18,-12 -33,-27 -45,-46 -12,-21 -19,-44 -22,-69 -3,-20 -2,-41 2,-62 4,-19 12,-37 24,-53 12,-16 27,-29 44,-39 21,-12 44,-19 67,-22 15,-3 30,-5 45,-8 -4,-21 -8,-41 -11,-62 -71,12 -142,23 -213,32l-1 0 -1 0 -1 0 0 0 -1 0 -2 0 0 0 -2 0 -1 1 -1 0 0 0 -1 0 -1 0 -1 0 0 0 -1 0 0 0c-17,2 -34,4 -51,6 14,132 27,265 41,397 -5,2 -10,3 -15,5 -6,2 -13,3 -20,4 -12,1 -29,1 -39,-6 -10,-7 -13,-19 -14,-30 -10,-121 -20,-242 -30,-363 -38,3 -77,6 -115,8 12,18 21,38 28,58 8,23 12,48 14,72 1,22 0,45 -5,66 -4,18 -11,35 -22,49 -10,13 -22,24 -37,31 -15,7 -30,11 -47,11 -15,1 -31,-1 -43,-11 -11,-8 -16,-20 -16,-34 0,-11 2,-23 6,-33 7,1 13,2 20,1 19,0 35,-8 46,-24 15,-19 16,-50 15,-73 -1,-21 -5,-42 -12,-61 -6,-17 -14,-34 -25,-49 -20,1 -39,1 -59,2l0 0 -1 0 -1 0 0 0 -1 0 0 0 -1 0 0 0 -1 0 0 0 -1 0 0 0 -1 0 -1 0 -2 0 0 0 -1 0 0 0 -1 0 0 0 -1 0 0 0 -1 0 0 0 -1 0 0 0 -1 0c-17,0 -34,0 -51,0 0,133 0,267 0,400 0,0 -3,0 -3,0 -1,1 -11,3 -12,3 -7,1 -15,2 -22,2 -12,0 -29,-2 -38,-10 -8,-8 -10,-20 -10,-31 3,-121 5,-243 7,-364 -12,-1 -25,-1 -37,-1l0 0 -1 0 0 0 -1 0 0 0 -1 0 0 0 -1 0 0 0 -1 0 0 0 -1 0 0 0 -1 0 0 0 -1 0 0 0 0 0 -1 0 0 0 -1 0 0 0 -1 -1 0 0 0 0 -1 0 0 0 -1 0 0 0 0 0 -1 0 0 0 0 0 0 0c-18,0 -36,-1 -54,-2 -6,133 -12,266 -18,399 -5,1 -10,2 -15,3 -7,1 -14,1 -21,0 -12,0 -29,-2 -38,-11 -8,-8 -9,-20 -8,-31 1,-26 3,-52 5,-77 -14,10 -30,17 -46,21 -20,5 -40,5 -59,4 -33,-3 -64,-13 -91,-33 -25,-18 -42,-39 -55,-67 -7,-16 -12,-30 -14,-47 -2,-14 -3,-29 -1,-42 0,-6 2,-11 5,-16 3,-5 9,-7 14,-7 22,1 46,0 65,-12 15,-11 22,-26 24,-43 2,-13 0,-26 -5,-37 -5,-11 -13,-20 -23,-27 -28,-3 -55,-7 -83,-11 -20,-3 -21,-20 -19,-37 1,-5 2,-10 4,-15 1,-5 3,-11 6,-15 136,20 273,32 411,38l1 0 1 0 1 0 1 0 1 0 1 0 1 0 1 0 1 0 1 0 1 0 1 0 1 0 0 0 0 0 0 0 1 0 0 0 0 0 0 0c19,1 37,1 56,1 -7,-16 -17,-32 -28,-46 -11,-14 -22,-27 -35,-39 -12,-11 -25,-21 -39,-30 -11,-7 -23,-14 -36,-19 0,-2 0,-4 0,-6 0,-2 0,-4 0,-7 1,-13 4,-26 12,-36 8,-11 19,-15 32,-15 15,1 31,9 43,18 17,13 32,28 45,45 16,19 29,40 41,62 13,24 23,49 31,74 1,0 5,0 6,0 1,1 22,0 36,0l0 0 10 0 0 0 1 0 1 0 0 0 1 0 0 0 0 0 1 0 0 0 0 0 1 0c125,-2 250,-10 374,-24l0 0 1 0 4 0 2 0 4 -1 2 0c115,-13 229,-32 342,-55 58,-13 116,-26 174,-41l2 -1 1 0 2 0 3 -1 1 0 2 -1 1 0 0 0c115,-30 228,-65 339,-106l3 -1 5 -2 0 0 6 -2c162,-60 320,-130 473,-212l5 -2 2 -1c112,-60 222,-126 328,-197l0 0 1 -1 1 0 1 -1 1 -1 1 0 0 -1 1 0 0 0 1 -1 1 -1 1 0 1 -1 1 0 0 -1c15,-10 31,-20 46,-31 -17,-4 -33,-11 -47,-21 -16,-11 -29,-25 -40,-41 -16,-23 -25,-49 -22,-78 4,-27 18,-48 40,-64 12,-9 29,-19 45,-17 12,3 22,9 29,19 7,8 11,18 11,28 -4,1 -9,3 -13,5 -5,2 -10,5 -14,8 -11,8 -16,19 -18,32 -2,16 4,31 13,43 9,12 19,22 31,30 12,8 25,14 39,17 15,-11 31,-22 46,-33 15,-12 29,-1 39,12 3,4 6,9 8,14 3,5 5,10 7,15 -18,13 -36,27 -54,40zm-2649 975c19,1 38,0 56,-8 14,-7 28,-15 39,-26 5,-69 9,-138 14,-207 -41,-3 -81,-6 -121,-10 8,10 14,21 18,32 6,13 7,27 6,41 -1,14 -5,28 -11,40 -6,11 -14,21 -24,29 -10,8 -21,14 -34,18 -13,4 -27,6 -41,7 5,21 15,40 30,56 18,18 43,25 68,28zm-1290 -804c6,-12 15,-22 28,-28 13,-6 25,-5 37,1 12,6 21,15 24,29 3,13 1,27 -5,39 -6,13 -15,23 -27,29 -13,6 -26,5 -38,-1 -13,-6 -21,-16 -24,-29 -3,-14 -1,-27 5,-40zm440 637c18,6 37,8 56,4 15,-3 30,-9 44,-17 18,-67 37,-133 56,-200 -39,-11 -77,-22 -115,-34 5,11 9,23 11,35 2,14 1,28 -3,41 -4,14 -10,26 -19,37 -8,10 -18,17 -29,23 -12,6 -24,9 -37,11 -14,1 -28,0 -41,-2 -1,22 5,42 17,61 14,21 36,34 60,41zm-197 -331c2,14 2,27 1,41 -1,16 -5,31 -10,45 -8,20 -19,38 -35,53 15,11 31,19 48,25 8,3 16,6 24,8 8,2 16,3 23,3 2,-4 5,-8 9,-11 4,-3 9,-3 14,-2 21,4 44,9 66,1 16,-7 27,-20 32,-37 4,-12 6,-25 3,-38 -3,-11 -9,-21 -17,-30 -53,-18 -105,-38 -158,-58z"/>
   <path class="fil18" d="M3633 8999c-3,-8 -2,-18 1,-27l13 -46c2,-1 5,-2 8,-4 -7,25 -14,50 -21,75l-1 2zm-419 -304c1,8 2,16 4,24 4,15 9,31 15,45 7,14 14,28 23,41 8,12 17,24 27,34 -3,6 -5,11 -8,16 -7,-8 -14,-17 -19,-25 -9,-13 -16,-27 -23,-41 -6,-15 -11,-30 -15,-46 -4,-16 -6,-32 -7,-48l3 0zm-74 24c-1,-17 0,-34 2,-50l3 1c-3,17 -4,33 -5,49zm-16 -95l-1 -2c-2,-10 -1,-20 4,-29 2,-7 6,-12 11,-17 5,-5 10,-9 15,-13 6,5 12,9 18,12 8,5 16,9 24,12 20,9 44,14 65,6 20,-9 32,-25 40,-44 5,-13 8,-25 9,-38 1,8 1,16 0,24 -1,13 -4,26 -9,38 -8,20 -20,36 -40,44 -21,9 -45,4 -65,-5 -8,-4 -16,-8 -24,-12 -6,-4 -12,-8 -18,-12 -5,3 -10,7 -15,12 -5,5 -9,11 -11,17 -1,2 -2,5 -3,7zm-224 100l0 -2c-5,-10 -1,-22 4,-31l152 -307 10 4c-54,109 -108,218 -162,327 -2,3 -3,6 -4,9zm-107 -417c8,0 16,1 24,3 16,2 31,9 44,16 15,9 29,20 39,33 11,13 18,28 23,44 4,15 5,30 3,46 0,-8 -2,-15 -3,-22 -5,-16 -12,-30 -23,-43 -10,-14 -24,-25 -39,-33 -13,-8 -28,-14 -44,-17 -13,-2 -26,-3 -39,-1l15 -26zm-92 232c-4,-10 -3,-21 4,-34 3,-5 6,-9 10,-13 4,-4 8,-7 12,-9 3,3 6,5 9,7 3,3 7,5 10,7 15,8 31,11 48,7 19,-4 32,-19 40,-36 5,-7 8,-14 9,-22 3,16 0,32 -9,47 -8,16 -21,31 -40,36 -17,4 -33,1 -48,-8 -3,-2 -7,-4 -10,-6 -3,-2 -6,-5 -9,-7 -4,2 -8,5 -12,8 -4,4 -7,9 -10,14 -2,3 -3,6 -4,9zm-141 -1c-1,-1 -1,-2 -2,-4 -3,-10 1,-22 7,-31l14 -23c5,0 11,0 16,0 -10,16 -20,32 -30,48 -2,3 -4,6 -5,10zm-117 -205c-1,-13 0,-26 2,-39 4,-20 14,-40 26,-57 11,-16 24,-30 41,-41 14,-9 29,-16 45,-19 16,-3 31,-3 47,0 15,3 30,9 43,17 13,9 28,21 33,36 3,9 3,17 0,25l0 0c-5,-16 -20,-28 -33,-36 -13,-9 -28,-15 -43,-18 -16,-3 -31,-3 -47,0 -16,4 -31,10 -45,20 -17,10 -30,25 -41,41 -12,17 -22,36 -26,57 -1,5 -1,10 -2,14zm85 5l0 0c4,19 16,33 32,43 13,8 26,14 41,14 11,1 23,-1 34,-5l110 -180 11 7c-40,66 -81,132 -121,197 -11,5 -23,6 -34,6 -15,0 -28,-6 -41,-14 -16,-10 -28,-24 -32,-43 -2,-9 -2,-17 0,-25zm25 -281c-7,-11 -1,-24 7,-35 3,-5 6,-9 10,-13 4,-3 8,-7 12,-10 147,104 300,198 460,280l3 1 2 1 0 1 1 0c52,26 104,52 157,76l2 1c213,97 434,174 661,231 7,2 14,5 16,12 3,7 2,16 0,24 -3,-7 -9,-10 -16,-12 -227,-56 -448,-134 -661,-231l-2 0c-53,-25 -105,-50 -157,-77l-1 0 0 0 -2 -1 -3 -2c-160,-82 -313,-175 -460,-279 -4,2 -8,6 -12,10 -4,4 -7,8 -10,12 -3,4 -5,7 -7,11zm4535 -15l223 307 -10 11 -225 -310 12 -8zm-150 104l208 317c-3,3 -7,6 -10,9l-210 -318 12 -8zm-104 279c2,14 8,27 15,39 12,22 29,41 51,53 20,12 42,21 64,27 2,8 2,16 0,24 -23,-6 -44,-15 -64,-26 -22,-13 -39,-31 -51,-53 -11,-20 -19,-42 -15,-64zm-85 2c-2,-17 0,-35 5,-52 6,-20 16,-37 30,-52 15,-17 33,-31 52,-43 12,-7 24,-14 37,-19 8,-4 15,-7 23,-10l13 20c-12,4 -24,9 -36,14 -13,6 -25,12 -37,20 -19,11 -37,25 -52,42 -14,15 -24,33 -30,52 -3,9 -5,19 -5,28zm-316 2l27 60c6,-12 14,-22 24,-32 11,-11 24,-19 38,-26 16,-8 32,-12 50,-14 16,-1 32,2 48,7 16,6 31,15 44,26 14,13 26,30 35,47 9,17 16,37 18,56 1,9 1,18 0,27l0 -2c-2,-20 -9,-39 -18,-57 -9,-17 -21,-33 -35,-46 -13,-12 -28,-21 -44,-26 -16,-6 -32,-8 -48,-7 -18,1 -34,6 -50,13 -14,7 -27,16 -38,27 -10,9 -18,20 -24,32 -12,-27 -24,-54 -37,-80l10 -5zm145 225c-1,-3 -2,-6 -3,-9 0,-5 -1,-10 0,-14 4,-1 7,-2 11,-4 4,-1 7,-3 11,-5 15,-7 27,-18 33,-35 1,-2 2,-4 2,-6 2,10 2,21 -2,31 -6,16 -18,27 -33,35 -4,2 -7,3 -11,5 -3,1 -5,2 -8,2zm-81 -85l94 202 -8 7 -91 -196c1,-5 3,-9 5,-13zm-278 88c0,-4 0,-9 0,-14 0,-17 3,-33 10,-48 6,-15 15,-27 26,-38 11,-11 24,-20 38,-26 14,-5 33,-11 48,-6 12,4 21,12 26,23 5,11 6,22 4,33l-1 0c-1,-3 -2,-5 -3,-8 -5,-12 -14,-20 -26,-24 -15,-4 -34,1 -48,7 -14,6 -27,14 -38,25 -11,11 -20,24 -26,38 -6,13 -9,25 -10,38zm84 -2c1,6 3,12 5,18 7,17 18,31 36,38 18,8 36,5 54,-2 13,-5 25,-13 34,-25 4,-5 7,-11 10,-17l4 11c-2,11 -7,21 -14,30 -9,12 -21,20 -34,26 -18,7 -36,9 -54,2 -18,-7 -29,-22 -36,-39 -5,-13 -8,-28 -5,-42zm-207 -87l125 354 -7 5 -126 -357 8 -2zm-146 257l0 1c4,11 7,22 10,33 -2,2 -4,4 -6,5l-4 -13c-2,-8 -4,-18 0,-26zm-102 -12c-2,-16 -1,-32 8,-46 11,-18 29,-28 49,-34 47,-14 95,-28 142,-44l7 22c-49,17 -99,32 -149,47 -20,5 -38,15 -49,33 -4,7 -7,14 -8,22zm-115 -136l90 364 -5 3 -91 -365 6 -2zm-184 41l15 76c1,7 2,15 -1,22l-19 -97 5 -1zm-169 223l1 5c2,13 6,25 12,36 6,10 14,19 23,26 10,6 20,10 31,13 12,2 24,2 36,0 12,-2 27,-6 36,-15 3,-4 5,-7 7,-11l0 3c2,11 2,23 -7,32 -9,9 -24,13 -36,15 -12,2 -24,2 -36,0 -11,-2 -21,-6 -31,-13 -9,-7 -17,-15 -23,-25 -6,-11 -10,-24 -12,-37 -2,-10 -2,-19 -1,-29zm141 13c-2,-6 -5,-11 -7,-16 4,-7 9,-12 15,-16 8,-5 16,-8 25,-10 7,-1 15,-1 22,0 8,2 15,4 21,9 7,4 13,10 18,17 5,8 8,17 10,27 2,10 3,20 1,30l-1 -6c-2,-9 -5,-19 -10,-27 -5,-6 -11,-12 -18,-17 -6,-4 -13,-7 -21,-8 -7,-2 -15,-2 -22,0 -9,1 -17,4 -25,9 -3,2 -6,5 -8,8zm95 93c11,11 21,22 33,33 13,11 26,22 39,32 1,8 0,15 -3,22 -12,-9 -24,-19 -36,-30 -15,-13 -29,-28 -42,-44 4,-4 7,-9 9,-13zm-319 -104c-1,-17 0,-33 3,-50 4,-19 12,-37 24,-53 12,-16 27,-29 44,-39 21,-12 44,-19 67,-22 14,-3 27,-5 40,-7l5 24c-15,2 -30,5 -45,7 -23,4 -46,11 -67,23 -17,10 -32,23 -44,39 -12,16 -20,33 -24,53 -2,8 -3,17 -3,25zm-104 -171l39 373 -3 1 -38 -374 2 0zm-181 15c6,11 11,22 15,34 8,23 12,48 14,72 1,10 1,20 0,30l0 -5c-2,-25 -6,-49 -14,-72 -7,-21 -16,-41 -28,-59l13 0zm-140 228c-1,-3 -1,-6 -1,-10 0,-11 2,-23 6,-33 7,1 13,2 20,1 19,0 35,-8 46,-24 10,-13 14,-32 15,-50l0 2c1,23 0,53 -15,73 -11,16 -27,23 -46,24 -7,0 -13,-1 -20,-2 -2,6 -4,13 -5,19zm-77 -222l0 13 0 -13 0 0zm0 362l0 13 0 0 0 -13zm-85 -14c0,-3 0,-6 0,-9l7 -340 0 0 -7 349zm-198 -3c-1,-4 -1,-9 0,-14l3 -52 2 -1 -5 67zm-262 -228c-1,-9 -1,-18 1,-27 0,-6 2,-11 5,-16 3,-5 9,-7 14,-7 22,1 46,0 65,-12 14,-10 21,-24 24,-40 1,7 1,14 0,21 -2,18 -9,33 -24,43 -19,13 -43,13 -65,13 -5,0 -11,2 -14,6 -3,5 -5,11 -5,16l-1 3zm-21 -195c-1,-7 -1,-14 0,-22 1,-5 2,-10 4,-15 1,-5 3,-11 6,-15 136,20 273,32 411,38l1 0 1 0 1 0 1 0 1 0 1 0 1 0 1 0 1 0 1 0 1 0 1 0 1 0 0 0 0 0 0 0 1 0 0 0 0 0 0 0c14,1 29,1 43,1 5,8 9,16 13,25 -19,0 -37,-1 -56,-1l0 0 0 0 0 0 -1 0 0 0 0 0 0 0 -1 -1 -1 0 -1 0 -1 0 -1 0 -1 0 -1 0 -1 0 -1 0 -1 0 -1 0 -1 0 -1 0c-138,-5 -275,-18 -411,-38 -3,5 -5,10 -6,15 -2,4 -3,9 -4,13zm354 -146l-1 -1c0,-2 0,-4 0,-6 0,-2 0,-4 0,-7 1,-13 4,-26 12,-36 8,-11 19,-15 32,-15 15,1 31,9 43,18 17,13 32,28 45,45 16,19 29,40 41,62 13,24 23,49 31,74 1,0 5,0 6,0 1,1 22,0 36,0l0 0 10 0 0 0 1 0 1 0 0 0 1 0 0 0 0 0 1 0 0 0 0 0 1 0c125,-2 250,-10 374,-24l0 0 1 0 4 0 2 0 4 -1 2 0c115,-13 229,-32 342,-55 58,-13 116,-26 174,-41l2 -1 1 0 2 0 3 -1 1 0 2 -1 1 0 0 0c115,-30 228,-65 339,-106l3 -1 5 -2 0 0 6 -2c162,-60 320,-130 473,-212l5 -2 2 -1c112,-60 222,-126 328,-197l0 0 1 -1 1 0 1 -1 1 -1 1 0 0 -1 1 0 0 0 1 -1 1 -1 1 0 1 -1 1 0 0 -1 22 -15c8,4 16,7 24,8 -15,11 -31,22 -46,32l0 0 -1 1 -1 0 -1 1 -1 1 -1 0 0 1 -1 0 0 0 -1 1 -1 1 -1 0 -1 1 -1 0 0 0c-106,71 -216,137 -328,197l-2 1 -5 3c-153,81 -311,152 -473,212l-6 2 0 0 -5 2 -3 1c-111,40 -224,75 -339,105l0 0 -1 1 -2 0 -1 0 -3 1 -2 1 -1 0 -2 1c-58,15 -116,28 -174,40 -113,24 -227,42 -342,55l-2 1 -4 0 -2 0 -4 1 -1 0 0 0c-124,14 -249,22 -374,23l-1 0 0 0 0 0 -1 0 0 0 0 0 -1 0 0 0 -1 0 -1 0 0 0 -10 1 0 0c-14,0 -35,0 -36,0 -1,0 -5,0 -6,0 -8,-26 -18,-51 -31,-74 -12,-22 -25,-43 -41,-63 -13,-16 -28,-32 -45,-44 -12,-10 -28,-17 -43,-18 -13,-1 -24,3 -32,14 -5,8 -9,17 -11,26zm2285 -668c-1,-8 -1,-16 -1,-24 4,-27 18,-48 40,-64 12,-9 29,-19 45,-17 12,3 22,9 29,19 7,8 11,18 11,28 -2,1 -5,2 -7,2 -1,-2 -2,-4 -4,-5 -7,-10 -17,-17 -29,-19 -16,-3 -33,8 -45,16 -22,16 -36,37 -39,64zm80 5c2,9 7,18 12,25 9,12 19,22 31,30 12,8 25,14 39,17 15,-11 31,-22 46,-33 15,-12 29,-1 39,12 3,4 6,9 8,14 3,5 5,10 7,15l-9 6c-2,-4 -4,-7 -6,-11 -10,-13 -24,-23 -39,-12 -15,12 -31,23 -46,34 -14,-4 -27,-10 -39,-18 -12,-7 -22,-17 -31,-29 -9,-13 -15,-28 -13,-44 0,-2 1,-4 1,-6zm-2521 1095c19,1 38,0 56,-8 14,-7 28,-15 39,-26l12 -183 2 1c-5,68 -9,137 -14,206 -11,12 -25,20 -39,26 -18,8 -37,10 -56,8 -25,-2 -50,-10 -68,-28 -15,-16 -25,-34 -30,-56l8 0c5,11 13,22 22,32 18,18 43,25 68,28zm4 -225l2 6c6,13 7,27 6,41l0 4c-1,-7 -3,-14 -6,-20 -4,-12 -10,-23 -18,-32l16 1zm-1294 -579c6,-12 15,-22 28,-28 13,-6 25,-5 37,1 12,6 21,15 24,29 2,8 2,17 0,25l0 -1c-3,-13 -12,-22 -24,-28 -12,-6 -24,-7 -37,-1 -13,5 -22,16 -28,28 -2,5 -4,10 -5,15 -3,-14 -1,-27 5,-40zm440 637c18,6 37,8 56,4 15,-3 30,-9 44,-17l50 -177 6 2c-19,66 -38,133 -56,199 -14,9 -29,14 -44,18 -19,4 -38,1 -56,-4 -24,-8 -46,-20 -60,-42 -12,-18 -18,-38 -17,-60l2 0c3,13 8,24 15,36 14,21 36,34 60,41zm50 -220l2 8c1,9 2,18 0,26l0 -2c-2,-12 -6,-24 -11,-35l9 3zm-245 -86c0,4 0,8 -1,12 0,-4 0,-8 -1,-12l2 0zm-32 123c11,7 22,12 34,16 8,3 16,6 24,8 8,2 16,3 23,3 2,-4 5,-8 9,-11 4,-3 9,-3 14,-2 21,4 44,9 66,1 16,-7 27,-20 32,-37 1,-4 2,-8 3,-11 2,12 1,24 -3,35 -5,17 -16,30 -32,37 -22,9 -45,4 -66,-1 -5,-1 -10,0 -14,3 -4,2 -7,7 -9,11 -7,0 -15,-2 -23,-4 -8,-2 -16,-4 -24,-7 -17,-6 -33,-15 -48,-25 5,-5 10,-10 14,-16z"/>
  </g>
 </g>
</svg>
