<svg width="200" height="65" viewBox="0 0 200 65" fill="none" xmlns="http://www.w3.org/2000/svg">
<rect width="200" height="65" fill="#C4C4C4"/>
<path d="M35.1133 35.3525H39.4678V37H33.0625V27.0469H35.1133V35.3525ZM48.3887 32.249C48.3887 33.2288 48.2155 34.0879 47.8691 34.8262C47.5228 35.5645 47.026 36.1341 46.3789 36.5352C45.7363 36.9362 44.998 37.1367 44.1641 37.1367C43.3392 37.1367 42.6032 36.9385 41.9561 36.542C41.3089 36.1455 40.8076 35.5804 40.4521 34.8467C40.0967 34.1084 39.9167 33.2607 39.9121 32.3037V31.8115C39.9121 30.8317 40.0876 29.9704 40.4385 29.2275C40.7939 28.4801 41.293 27.9082 41.9355 27.5117C42.5827 27.1107 43.321 26.9102 44.1504 26.9102C44.9798 26.9102 45.7158 27.1107 46.3584 27.5117C47.0055 27.9082 47.5046 28.4801 47.8555 29.2275C48.2109 29.9704 48.3887 30.8294 48.3887 31.8047V32.249ZM46.3105 31.7979C46.3105 30.7542 46.1237 29.9613 45.75 29.4189C45.3763 28.8766 44.8431 28.6055 44.1504 28.6055C43.4622 28.6055 42.9313 28.8743 42.5576 29.4121C42.1839 29.9453 41.9948 30.7292 41.9902 31.7637V32.249C41.9902 33.2653 42.1771 34.0537 42.5508 34.6143C42.9245 35.1748 43.4622 35.4551 44.1641 35.4551C44.8522 35.4551 45.3809 35.1862 45.75 34.6484C46.1191 34.1061 46.306 33.3177 46.3105 32.2832V31.7979ZM57.7539 35.7422C57.3848 36.1842 56.863 36.5283 56.1885 36.7744C55.514 37.016 54.7666 37.1367 53.9463 37.1367C53.085 37.1367 52.3285 36.9499 51.6768 36.5762C51.0296 36.1979 50.5283 35.651 50.1729 34.9355C49.8219 34.2201 49.6419 33.3792 49.6328 32.4131V31.7363C49.6328 30.7428 49.7992 29.8838 50.1318 29.1592C50.4691 28.43 50.9521 27.874 51.5811 27.4912C52.2145 27.1038 52.9551 26.9102 53.8027 26.9102C54.9831 26.9102 55.9059 27.1927 56.5713 27.7578C57.2367 28.3184 57.6309 29.1364 57.7539 30.2119H55.7578C55.6667 29.6423 55.4639 29.2253 55.1494 28.9609C54.8395 28.6966 54.4111 28.5645 53.8643 28.5645C53.167 28.5645 52.6361 28.8265 52.2715 29.3506C51.9069 29.8747 51.7223 30.654 51.7178 31.6885V32.3242C51.7178 33.3678 51.916 34.1562 52.3125 34.6895C52.709 35.2227 53.29 35.4893 54.0557 35.4893C54.8258 35.4893 55.375 35.3252 55.7031 34.9971V33.2812H53.8369V31.7705H57.7539V35.7422ZM67.5977 32.249C67.5977 33.2288 67.4245 34.0879 67.0781 34.8262C66.7318 35.5645 66.235 36.1341 65.5879 36.5352C64.9453 36.9362 64.207 37.1367 63.373 37.1367C62.5482 37.1367 61.8122 36.9385 61.165 36.542C60.5179 36.1455 60.0166 35.5804 59.6611 34.8467C59.3057 34.1084 59.1257 33.2607 59.1211 32.3037V31.8115C59.1211 30.8317 59.2965 29.9704 59.6475 29.2275C60.0029 28.4801 60.502 27.9082 61.1445 27.5117C61.7917 27.1107 62.5299 26.9102 63.3594 26.9102C64.1888 26.9102 64.9248 27.1107 65.5674 27.5117C66.2145 27.9082 66.7135 28.4801 67.0645 29.2275C67.4199 29.9704 67.5977 30.8294 67.5977 31.8047V32.249ZM65.5195 31.7979C65.5195 30.7542 65.3327 29.9613 64.959 29.4189C64.5853 28.8766 64.0521 28.6055 63.3594 28.6055C62.6712 28.6055 62.1403 28.8743 61.7666 29.4121C61.3929 29.9453 61.2038 30.7292 61.1992 31.7637V32.249C61.1992 33.2653 61.3861 34.0537 61.7598 34.6143C62.1335 35.1748 62.6712 35.4551 63.373 35.4551C64.0612 35.4551 64.5898 35.1862 64.959 34.6484C65.3281 34.1061 65.515 33.3177 65.5195 32.2832V31.7979ZM74.625 33.4932V37H72.5742V27.0469H76.457C77.2044 27.0469 77.8607 27.1836 78.4258 27.457C78.9954 27.7305 79.4329 28.1201 79.7383 28.626C80.0436 29.1273 80.1963 29.6992 80.1963 30.3418C80.1963 31.3171 79.8613 32.0872 79.1914 32.6523C78.526 33.2129 77.6032 33.4932 76.4229 33.4932H74.625ZM74.625 31.832H76.457C76.9993 31.832 77.4118 31.7044 77.6943 31.4492C77.9814 31.194 78.125 30.8294 78.125 30.3555C78.125 29.8678 77.9814 29.4736 77.6943 29.1729C77.4072 28.8721 77.0107 28.7171 76.5049 28.708H74.625V31.832ZM83.6621 35.3525H88.0166V37H81.6113V27.0469H83.6621V35.3525ZM94.9551 34.9492H91.3594L90.6758 37H88.4951L92.2002 27.0469H94.1006L97.8262 37H95.6455L94.9551 34.9492ZM91.9131 33.2881H94.4014L93.1504 29.5625L91.9131 33.2881ZM106.419 33.6846C106.341 34.7555 105.945 35.5986 105.229 36.2139C104.519 36.8291 103.58 37.1367 102.413 37.1367C101.137 37.1367 100.132 36.7083 99.3984 35.8516C98.6693 34.9902 98.3047 33.8099 98.3047 32.3105V31.7021C98.3047 30.7451 98.4733 29.902 98.8105 29.1729C99.1478 28.4437 99.6286 27.8854 100.253 27.498C100.882 27.1061 101.611 26.9102 102.44 26.9102C103.589 26.9102 104.514 27.2178 105.216 27.833C105.918 28.4482 106.323 29.3118 106.433 30.4238H104.382C104.332 29.7812 104.152 29.3164 103.842 29.0293C103.536 28.7376 103.069 28.5918 102.44 28.5918C101.757 28.5918 101.244 28.8379 100.902 29.3301C100.565 29.8177 100.392 30.5765 100.383 31.6064V32.3584C100.383 33.4339 100.545 34.2201 100.868 34.7168C101.196 35.2135 101.711 35.4619 102.413 35.4619C103.047 35.4619 103.518 35.3184 103.828 35.0312C104.143 34.7396 104.323 34.2907 104.368 33.6846H106.419ZM113.754 32.6865H109.816V35.3525H114.438V37H107.766V27.0469H114.424V28.708H109.816V31.0801H113.754V32.6865ZM123.741 37H121.69V32.7344H117.691V37H115.641V27.0469H117.691V31.0801H121.69V27.0469H123.741V37ZM133.715 32.249C133.715 33.2288 133.542 34.0879 133.195 34.8262C132.849 35.5645 132.352 36.1341 131.705 36.5352C131.062 36.9362 130.324 37.1367 129.49 37.1367C128.665 37.1367 127.929 36.9385 127.282 36.542C126.635 36.1455 126.134 35.5804 125.778 34.8467C125.423 34.1084 125.243 33.2607 125.238 32.3037V31.8115C125.238 30.8317 125.414 29.9704 125.765 29.2275C126.12 28.4801 126.619 27.9082 127.262 27.5117C127.909 27.1107 128.647 26.9102 129.477 26.9102C130.306 26.9102 131.042 27.1107 131.685 27.5117C132.332 27.9082 132.831 28.4801 133.182 29.2275C133.537 29.9704 133.715 30.8294 133.715 31.8047V32.249ZM131.637 31.7979C131.637 30.7542 131.45 29.9613 131.076 29.4189C130.702 28.8766 130.169 28.6055 129.477 28.6055C128.788 28.6055 128.257 28.8743 127.884 29.4121C127.51 29.9453 127.321 30.7292 127.316 31.7637V32.249C127.316 33.2653 127.503 34.0537 127.877 34.6143C128.251 35.1748 128.788 35.4551 129.49 35.4551C130.178 35.4551 130.707 35.1862 131.076 34.6484C131.445 34.1061 131.632 33.3177 131.637 32.2832V31.7979ZM137.256 35.3525H141.61V37H135.205V27.0469H137.256V35.3525ZM142.793 37V27.0469H145.855C146.73 27.0469 147.512 27.2451 148.2 27.6416C148.893 28.0335 149.433 28.5941 149.82 29.3232C150.208 30.0479 150.401 30.8727 150.401 31.7979V32.2559C150.401 33.181 150.21 34.0036 149.827 34.7236C149.449 35.4437 148.913 36.002 148.221 36.3984C147.528 36.7949 146.746 36.9954 145.876 37H142.793ZM144.844 28.708V35.3525H145.835C146.637 35.3525 147.25 35.0905 147.674 34.5664C148.098 34.0423 148.314 33.2926 148.323 32.3174V31.791C148.323 30.7793 148.114 30.0137 147.694 29.4941C147.275 28.9701 146.662 28.708 145.855 28.708H144.844ZM157.887 32.6865H153.949V35.3525H158.57V37H151.898V27.0469H158.557V28.708H153.949V31.0801H157.887V32.6865ZM163.458 33.3564H161.824V37H159.773V27.0469H163.472C164.647 27.0469 165.554 27.3089 166.192 27.833C166.83 28.3571 167.149 29.0977 167.149 30.0547C167.149 30.7337 167.001 31.3011 166.705 31.7568C166.413 32.208 165.969 32.568 165.372 32.8369L167.525 36.9043V37H165.324L163.458 33.3564ZM161.824 31.6953H163.479C163.993 31.6953 164.392 31.5654 164.675 31.3057C164.957 31.0413 165.099 30.679 165.099 30.2188C165.099 29.7493 164.964 29.3802 164.695 29.1113C164.431 28.8424 164.023 28.708 163.472 28.708H161.824V31.6953Z" fill="white"/>
</svg>
