<svg width="218" height="268" viewBox="0 0 218 268" fill="none" xmlns="http://www.w3.org/2000/svg">
<path d="M86.0059 29.7983C84.9045 29.7983 84.0234 30.669 84.0234 31.7573V50.0412C84.0234 51.1295 84.9045 52.0002 86.0059 52.0002H131.381C132.483 52.0002 133.364 51.1295 133.364 50.0412V31.7573C133.364 30.669 132.483 29.7983 131.381 29.7983H86.0059ZM129.399 44.1642C129.399 45.2526 128.518 46.1232 127.416 46.1232H90.191C89.0896 46.1232 88.2086 45.2526 88.2086 44.1642V35.893C88.2086 34.8046 89.0896 33.934 90.191 33.934H127.416C128.518 33.934 129.399 34.8046 129.399 35.893V44.1642Z" fill="#D1D4D8"/>
<path d="M140.045 0L114.918 37.8775H127.37L155.388 0H140.045Z" fill="#0FA711"/>
<path d="M127.377 0L102.473 37.8775H114.925L140.052 0H127.377Z" fill="white"/>
<path d="M114.92 0L90.0156 37.8775H102.468L127.373 0H114.92Z" fill="#FF7600"/>
<path d="M90.0177 37.8775H102.47L77.343 0H62L90.0177 37.8775Z" fill="#FF7600"/>
<path d="M102.471 37.8775H114.923L90.0184 0H77.3438L102.471 37.8775Z" fill="white"/>
<path opacity="0.5" d="M110.695 6.27979L104.469 15.6931L119.145 37.8818H127.372L129.596 34.744L110.695 6.27979Z" fill="#3E4347"/>
<path d="M114.92 37.8775H127.373L102.468 0H90.0156L114.92 37.8775Z" fill="#0FA711"/>
<g filter="url(#filter0_ii)">
<path d="M218 159C218 219.199 169.199 268 109 268C48.801 268 0 219.199 0 159C0 98.801 48.801 50 109 50C169.199 50 218 98.801 218 159Z" fill="#34373C" fill-opacity="0.4"/>
</g>
<path d="M214.5 159C214.5 217.266 167.266 264.5 109 264.5C50.734 264.5 3.5 217.266 3.5 159C3.5 100.734 50.734 53.5 109 53.5C167.266 53.5 214.5 100.734 214.5 159Z" stroke="#DFDFDF" stroke-width="7"/>
<path d="M214.5 159C214.5 217.266 167.266 264.5 109 264.5C50.734 264.5 3.5 217.266 3.5 159C3.5 100.734 50.734 53.5 109 53.5C167.266 53.5 214.5 100.734 214.5 159Z" stroke="url(#paint0_linear)" stroke-width="7"/>
<path d="M214.5 159C214.5 217.266 167.266 264.5 109 264.5C50.734 264.5 3.5 217.266 3.5 159C3.5 100.734 50.734 53.5 109 53.5C167.266 53.5 214.5 100.734 214.5 159Z" stroke="url(#paint1_linear)" stroke-width="7"/>
<path d="M196 159C196 207.049 157.049 246 109 246C60.9512 246 22 207.049 22 159C22 110.951 60.9512 72 109 72C157.049 72 196 110.951 196 159Z" fill="#5C686B"/>
<path fill-rule="evenodd" clip-rule="evenodd" d="M109 87C69.2355 87 37 119.235 37 159C37 198.764 69.2355 231 109 231C148.764 231 181 198.764 181 159C181 119.235 148.764 87 109 87ZM7 159C7 102.667 52.667 57 109 57C165.333 57 211 102.667 211 159C211 215.333 165.333 261 109 261C52.667 261 7 215.333 7 159Z" fill="#6F7A7D"/>
<path d="M109.001 82C66.5595 82 32 116.357 32 159.001C32 201.645 66.3574 236.002 109.001 236.002C151.645 236.002 186.002 201.645 186.002 159.001C186.002 116.357 151.442 82 109.001 82ZM93.6412 89.4778C93.8433 89.4778 93.8433 89.4778 93.6412 89.4778C95.0559 92.5093 97.6833 94.3282 100.311 93.7219C102.938 93.3177 105.565 91.4988 105.767 87.861C106.172 87.861 106.576 87.861 106.98 87.861C106.98 98.7745 106.172 110.496 104.959 123.229C104.757 124.441 104.757 125.654 104.757 126.867C104.353 125.856 103.948 124.644 103.544 123.229C99.3001 112.517 95.4601 100.998 92.4286 89.6799C93.0349 89.6799 93.237 89.4778 93.6412 89.4778ZM76.0583 95.743C78.2814 98.3703 81.1109 99.3808 83.5361 98.1682C86.3655 96.9556 87.9823 94.1261 87.376 91.0946C87.7802 90.8925 88.1844 90.8925 88.5886 90.6904C91.216 101.2 93.8433 112.72 95.8643 125.452C96.0664 126.867 96.2685 127.877 96.6727 129.09C96.0664 128.079 95.4601 127.069 94.4496 125.856C87.5781 116.559 80.9088 106.454 75.0478 96.3493C75.2499 96.1472 75.6541 95.9451 76.0583 95.743ZM60.4964 106.656C63.3259 108.475 66.3574 108.678 68.3784 107.061C69.9952 105.848 70.8036 104.029 70.8036 102.21C70.8036 101.2 70.6015 100.189 69.9952 99.3808C70.3994 99.1787 70.6015 98.9766 71.0057 98.7745C76.4625 108.071 81.7172 118.783 87.1739 130.302C87.7802 131.515 88.3865 132.526 88.7907 133.536C87.9823 132.728 86.9718 131.919 85.9613 131.111C77.0688 123.633 67.9742 115.549 59.688 107.465C59.8901 107.061 60.2943 106.859 60.4964 106.656ZM48.3703 121.006C48.5724 121.006 48.5724 121.006 48.3703 121.006C51.6039 122.016 54.6355 121.612 56.0502 119.389C56.4544 118.783 57.4649 117.166 57.4649 115.549C57.4649 114.538 57.0607 112.922 55.8481 111.507C56.0502 111.305 56.4544 110.901 56.6565 110.699C64.3364 118.378 72.2184 127.271 80.5046 136.972C81.313 137.982 82.1214 138.791 82.9298 139.599C81.9193 138.993 80.7067 138.589 79.494 137.982C68.9847 133.132 58.0712 127.675 47.764 122.016C47.9661 121.612 48.1682 121.41 48.3703 121.006ZM40.4883 137.982C40.4883 137.982 40.4883 137.78 40.4883 137.982C43.924 138.184 46.5514 136.972 47.5619 134.344C47.764 133.738 47.9661 132.93 47.9661 131.717C47.9661 130.505 47.5619 128.281 45.1367 126.665C45.3388 126.26 45.5409 126.058 45.743 125.654C55.0397 131.111 65.1448 137.578 75.452 144.854C76.4625 145.662 77.6751 146.269 78.4835 146.875C77.473 146.673 76.0583 146.471 74.6436 146.066C63.3259 144.45 51.4018 142.024 39.882 138.993C40.2862 138.791 40.4883 138.387 40.4883 137.982ZM37.2547 156.374C37.2547 156.374 37.2547 156.172 37.2547 156.374C40.4883 155.767 42.9135 153.746 43.1156 151.119C43.1156 150.917 43.1156 150.715 43.1156 150.311C43.1156 147.885 41.903 145.258 38.8715 144.248C38.8715 143.843 39.0736 143.439 39.0736 143.035C49.5829 145.864 60.9006 149.704 72.8247 153.948C74.0373 154.353 75.2499 154.757 76.2604 154.959C75.0478 154.959 73.8352 155.161 72.4205 155.161C61.1027 156.576 48.7745 157.182 37.0526 157.384C37.2547 157.182 37.2547 156.778 37.2547 156.374ZM38.8715 175.169C38.8715 174.967 38.8715 174.967 38.8715 175.169C41.4988 173.754 43.1156 171.733 43.1156 169.308C43.1156 169.106 43.1156 168.702 43.1156 168.5C42.7114 165.872 40.8925 163.245 37.2547 163.043C37.2547 162.639 37.2547 162.235 37.2547 161.83C48.1682 161.83 59.8901 162.437 72.6226 163.447C74.0373 163.649 75.2499 163.649 76.2604 163.649C75.2499 164.054 74.0373 164.458 72.6226 164.862C61.9111 169.106 50.3913 172.946 39.0736 176.18C39.0736 175.978 39.0736 175.573 38.8715 175.169ZM45.3387 192.752C45.3387 192.752 45.3387 192.55 45.3387 192.752C47.1577 191.135 48.1682 189.316 48.1682 187.295C48.1682 186.487 47.9661 185.881 47.764 185.274C46.7535 182.849 44.3282 180.828 40.6904 181.636C40.4883 181.232 40.4883 180.828 40.2862 180.424C50.7955 177.594 62.3153 175.169 74.8457 172.946C76.2604 172.744 77.2709 172.34 78.4835 172.138C77.473 172.744 76.4625 173.35 75.2499 174.361C65.9532 181.232 55.8481 187.902 45.743 193.965C45.743 193.358 45.5409 193.156 45.3387 192.752ZM56.2523 208.112C57.2628 206.495 57.667 205.08 57.667 203.463C57.667 202.251 57.2628 201.038 56.4544 200.23C54.8376 198.209 51.806 196.794 48.5724 198.411C48.3703 198.007 48.1682 197.805 47.9661 197.4C57.2628 191.944 67.9742 186.487 79.494 181.03C80.7067 180.424 81.7172 179.818 82.7277 179.413C81.9193 180.222 81.1109 181.232 80.3024 182.243C73.2289 191.337 65.1448 200.432 57.0607 208.92C56.8586 208.718 56.4544 208.516 56.2523 208.112ZM70.6015 220.036C70.8036 218.823 71.0057 217.813 71.0057 216.802C71.0057 214.781 70.1973 213.164 68.7826 212.356C66.7616 210.941 63.528 210.133 60.9006 212.76C60.4964 212.558 60.2943 212.154 60.0922 211.952C67.7721 204.272 76.4625 196.188 86.1634 188.104C87.1739 187.295 87.9823 186.487 88.7907 185.678C88.1844 186.689 87.7802 187.902 87.1739 189.114C82.7277 199.624 77.473 210.537 71.612 220.642C71.4099 220.44 71.0057 220.238 70.6015 220.036ZM87.5781 227.918C87.7802 224.482 86.3655 221.855 83.9403 220.844C81.5151 220.036 78.2814 220.238 76.2604 223.27C75.8562 223.067 75.6541 222.865 75.2499 222.663C80.7066 213.367 86.9718 203.261 94.2475 192.752C95.0559 191.539 95.6622 190.529 96.2685 189.721C96.0664 190.731 95.8643 192.146 95.4601 193.56C93.8433 204.878 91.4181 216.802 88.5886 228.322C88.3865 228.12 87.9823 228.12 87.5781 227.918ZM105.969 230.949C105.363 227.716 103.342 225.291 100.715 225.088C98.0874 224.886 95.0559 225.897 94.0454 229.333C93.6412 229.333 93.237 229.13 92.8328 229.13C95.6622 218.621 99.3001 207.303 103.544 195.379C103.948 194.167 104.353 192.954 104.555 191.944C104.555 193.156 104.757 194.369 104.757 195.784C106.172 207.101 106.98 219.43 107.182 231.151C106.778 231.151 106.374 231.151 105.969 230.949ZM178.928 144.45C176.301 145.864 174.482 147.885 174.482 150.311C174.482 150.513 174.482 150.917 174.482 151.119C174.886 153.746 176.705 156.374 180.343 156.576C180.343 156.98 180.343 157.384 180.343 157.788C169.632 157.788 157.708 156.98 144.975 155.767C143.56 155.565 142.348 155.565 141.337 155.565C142.348 155.161 143.56 154.757 144.975 154.353C155.687 150.108 167.206 146.269 178.524 143.237C178.726 143.641 178.726 144.045 178.928 144.45ZM172.663 126.867C172.663 126.867 172.663 127.069 172.663 126.867C170.844 128.484 169.834 130.302 169.834 132.323C169.834 133.132 170.036 133.738 170.238 134.344C171.248 136.77 173.674 138.791 177.312 138.184C177.514 138.589 177.514 138.993 177.716 139.397C167.206 142.024 155.485 144.45 142.954 146.673C141.539 146.875 140.529 147.077 139.316 147.481C140.327 146.875 141.337 146.269 142.55 145.46C151.847 138.387 161.952 131.717 172.057 125.856C172.259 126.26 172.461 126.463 172.663 126.867ZM162.154 111.709C161.143 113.326 160.537 114.943 160.537 116.357C160.537 117.57 160.941 118.783 161.75 119.591C163.366 121.612 166.196 123.027 169.43 121.41C169.632 121.814 169.834 122.016 170.036 122.42C160.537 127.675 150.028 133.132 138.306 138.184C137.093 138.791 136.083 139.195 135.072 139.801C135.881 138.993 136.689 137.982 137.7 136.972C144.975 128.079 153.059 118.985 161.345 110.699C161.548 111.103 161.952 111.305 162.154 111.709ZM147.603 99.1787C147.603 99.1787 147.805 99.3808 147.603 99.1787C147.4 100.391 146.996 101.402 146.996 102.412C146.996 104.231 147.805 105.848 149.219 106.859C151.24 108.273 154.474 109.082 157.101 106.656C157.303 106.859 157.708 107.263 157.91 107.465C150.23 115.145 141.337 123.027 131.434 131.111C130.424 131.919 129.413 132.728 128.807 133.536C129.413 132.526 129.818 131.515 130.424 130.1C135.072 119.591 140.529 108.678 146.39 98.5724C146.996 98.7745 147.198 98.9766 147.603 99.1787ZM130.626 91.2967C130.828 91.2967 130.828 91.2967 130.626 91.2967C130.424 94.7324 131.839 97.3598 134.264 98.3703C136.689 99.3808 139.923 99.1787 141.944 95.9451C142.348 96.1472 142.55 96.3493 142.954 96.5514C137.497 105.848 131.03 115.751 123.552 126.26C122.744 127.271 122.138 128.281 121.531 129.292C121.733 128.281 122.138 126.867 122.34 125.452C124.159 114.134 126.584 102.21 129.413 90.8925C130.02 90.8925 130.222 91.0946 130.626 91.2967ZM112.437 87.861C112.437 87.861 112.639 87.861 112.437 87.861C113.043 91.0946 115.064 93.5198 117.691 93.7219C120.319 93.924 123.35 92.9135 124.563 89.4778C124.967 89.4778 125.371 89.6799 125.775 89.6799C122.946 100.189 119.106 111.507 114.66 123.229C114.256 124.441 113.851 125.654 113.447 126.665C113.447 125.452 113.245 124.239 113.245 122.825C112.033 111.507 111.224 99.1787 111.224 87.4568C111.628 87.861 112.033 87.861 112.437 87.861ZM124.361 229.333C122.744 226.301 120.319 224.684 117.691 225.088C115.064 225.493 112.437 227.312 112.235 230.949C111.83 230.949 111.426 230.949 111.022 230.949C111.022 220.036 111.628 208.314 112.841 195.581C113.043 194.369 113.043 193.358 113.043 192.348C113.043 192.146 113.043 192.146 113.043 191.944C113.447 192.954 113.851 194.167 114.256 195.581C118.5 206.293 122.34 217.813 125.573 229.13C125.169 229.333 124.765 229.333 124.361 229.333ZM141.742 223.067C141.742 223.067 141.539 223.067 141.742 223.067C139.518 220.44 136.689 219.43 134.264 220.642C131.434 221.855 129.818 224.684 130.626 227.716C130.222 227.918 129.818 227.918 129.413 228.12C126.584 217.611 124.159 206.091 122.138 193.56C121.936 192.146 121.733 191.135 121.329 189.923C121.936 190.933 122.542 191.944 123.552 193.156C130.424 202.453 137.093 212.558 142.954 222.663C142.348 222.865 142.146 222.865 141.742 223.067ZM157.303 212.154C157.303 212.356 157.303 212.356 157.303 212.154C154.474 210.335 151.442 210.133 149.421 211.75C147.805 212.962 146.996 214.781 146.996 216.6C146.996 217.611 147.198 218.621 147.805 219.43C147.4 219.632 147.198 219.834 146.794 220.036C141.337 210.739 135.881 200.028 130.626 188.508C130.02 187.295 129.413 186.285 129.009 185.274C129.818 186.083 130.828 186.891 131.839 187.699C140.933 194.773 150.028 202.857 158.314 211.143C157.91 211.75 157.708 211.952 157.303 212.154ZM169.227 198.007C169.227 198.007 169.227 198.209 169.227 198.007C165.994 196.996 162.962 197.4 161.548 199.624C161.143 200.23 160.133 201.847 160.133 203.463C160.133 204.474 160.537 206.091 161.75 207.506C161.548 207.708 161.143 208.112 160.941 208.314C153.261 200.634 145.379 191.742 137.295 182.041C136.487 181.03 135.678 180.02 134.87 179.413C135.881 180.02 137.093 180.424 138.306 181.03C148.815 185.678 159.729 191.135 170.036 196.794C169.632 197.4 169.43 197.603 169.227 198.007ZM177.109 181.03C177.109 181.232 177.109 181.232 177.109 181.03C173.674 180.828 171.046 182.041 170.036 184.668C169.834 185.274 169.632 186.083 169.632 187.295C169.632 188.508 170.036 190.731 172.461 192.348C172.259 192.752 172.057 192.954 171.855 193.358C162.558 187.902 152.453 181.434 142.146 174.159C141.135 173.35 139.923 172.744 139.114 172.138C140.125 172.34 141.539 172.744 142.954 172.946C154.272 174.563 166.196 176.988 177.514 180.02C177.312 180.424 177.312 180.828 177.109 181.03ZM180.343 162.841C177.109 163.447 174.684 165.266 174.482 167.893C174.482 168.096 174.482 168.298 174.482 168.702C174.482 171.127 175.695 173.754 178.726 174.765C178.726 175.169 178.524 175.573 178.524 175.978C168.015 173.148 156.697 169.51 144.773 165.064C143.56 164.66 142.348 164.256 141.337 164.054C142.55 164.054 143.763 163.851 145.177 163.851C156.495 162.639 168.823 161.83 180.545 161.83C180.545 162.033 180.343 162.437 180.343 162.841Z" fill="#D1D4D8"/>
<circle cx="109" cy="159" r="77" stroke="url(#paint2_linear)" stroke-width="2"/>
<circle cx="109" cy="159" r="101" stroke="url(#paint3_linear)" stroke-width="2"/>
<g filter="url(#filter1_i)">
<circle cx="109" cy="159" r="50" fill="#6F7A7D"/>
</g>
<g filter="url(#filter2_d)">
<path fill-rule="evenodd" clip-rule="evenodd" d="M83.168 135.786V134H112.692V162.571H83.168V135.786ZM99.7751 139.357H96.0846L88.7037 157.214H92.3942L93.8718 153.643H101.988L103.466 157.214H107.156L99.7751 139.357ZM95.3458 150.071L97.9299 143.821L100.514 150.071H95.3458ZM131.144 159H116.382V155.429H134.835V184H105.311V166.143H109.001V180.429H131.144V159ZM127.96 165.47V162.676H120.929V165.47H122.626V170.785H119.165C118.739 170.402 118.218 170.161 117.601 170.061C118.335 169.829 118.901 169.404 119.298 168.789C119.694 168.173 119.893 167.433 119.893 166.568C119.893 165.304 119.511 164.314 118.747 163.599C117.983 162.867 116.895 162.501 115.485 162.501C114.5 162.501 113.648 162.659 112.928 162.975V166.144C113.721 165.728 114.493 165.52 115.242 165.52C116.271 165.52 116.785 166.019 116.785 167.017C116.785 168.049 116.175 168.564 114.956 168.564H114.272V171.509H115.176C115.97 171.509 116.513 171.667 116.807 171.983C117.116 172.299 117.27 172.723 117.27 173.255C117.27 174.653 116.623 175.351 115.33 175.351C114.375 175.351 113.427 175.068 112.487 174.503V177.747C113.413 178.113 114.412 178.296 115.485 178.296C117.072 178.296 118.262 177.88 119.055 177.048C119.863 176.216 120.267 175.135 120.267 173.804V173.63H122.626V179.418H125.756V165.47H127.96Z" fill="white"/>
</g>
<path d="M56.5992 92.2002L51.1992 84.9002L53.5992 83.1002C54.3992 82.5002 55.0992 82.2002 55.6992 82.3002C56.2992 82.3002 56.8992 82.7002 57.3992 83.3002C57.6992 83.6002 57.7992 84.0002 57.7992 84.4002C57.7992 84.8002 57.6992 85.2002 57.4992 85.6002C57.9992 85.4002 58.3992 85.4002 58.8992 85.5002C59.3992 85.6002 59.6992 85.9002 60.0992 86.4002C60.5992 87.1002 60.7992 87.7002 60.5992 88.4002C60.4992 89.1002 59.9992 89.7002 59.1992 90.3002L56.5992 92.2002ZM54.4992 87.4002L55.9992 86.3002C56.3992 86.0002 56.6992 85.6002 56.7992 85.2002C56.8992 84.8002 56.7992 84.4002 56.4992 84.1002C56.1992 83.7002 55.8992 83.5002 55.4992 83.5002C55.0992 83.5002 54.6992 83.7002 54.1992 84.0002L52.7992 85.0002L54.4992 87.4002ZM55.0992 88.1002L56.9992 90.7002L58.5992 89.5002C58.9992 89.2002 59.2992 88.8002 59.3992 88.4002C59.4992 88.0002 59.3992 87.6002 59.0992 87.2002C58.4992 86.3002 57.5992 86.2002 56.6992 86.9002L55.0992 88.1002Z" fill="white"/>
<path d="M60.4976 82.3002C60.5976 81.5002 60.9976 80.9002 61.6976 80.5002C62.8976 79.8002 63.8976 80.1002 64.7976 81.4002L67.0977 85.2002L66.0977 85.8002L63.7976 82.0002C63.4976 81.6002 63.2976 81.3002 62.9976 81.3002C62.6976 81.2002 62.2976 81.3002 61.9976 81.5002C61.6976 81.7002 61.4976 82.0002 61.2976 82.3002C61.1976 82.6002 61.0977 83.0002 61.0977 83.3002L63.5977 87.4002L62.5977 88.0002L57.5977 79.8002L58.5977 79.2002L60.4976 82.3002Z" fill="white"/>
<path d="M72.1009 82.6002C72.0009 82.5002 71.8009 82.3001 71.6009 82.0001C71.4009 82.7001 70.9008 83.3002 70.3008 83.6002C69.7008 83.9002 69.1009 84.0002 68.6009 83.8002C68.0009 83.7002 67.6008 83.3002 67.4008 82.8002C67.1008 82.2002 67.1008 81.6001 67.4008 81.0001C67.7008 80.4001 68.3009 79.9001 69.1009 79.5001L70.1009 79.0001L69.9008 78.5001C69.7008 78.1001 69.5009 77.9002 69.1009 77.8002C68.8009 77.7002 68.4008 77.8001 68.0008 78.0001C67.6008 78.2001 67.4008 78.4002 67.2008 78.7002C67.0008 79.0002 67.0008 79.3002 67.2008 79.6002L66.2008 80.1002C66.0008 79.8002 66.0009 79.5002 66.1009 79.1002C66.2009 78.7002 66.3009 78.3001 66.6009 78.0001C66.9009 77.7001 67.2008 77.4002 67.7008 77.1002C68.4008 76.7002 69.0009 76.6002 69.6009 76.8002C70.2009 77.0002 70.6008 77.3002 70.9008 77.9002L72.3008 80.7002C72.6008 81.3002 72.9008 81.7002 73.2008 81.9002V82.0001L72.1009 82.6002ZM69.9008 82.7002C70.2008 82.5002 70.5008 82.3001 70.7008 82.0001C70.9008 81.7001 71.0008 81.4001 71.0008 81.0001L70.4008 79.8002L69.6009 80.2002C68.3009 80.8002 67.9008 81.5002 68.3008 82.3002C68.5008 82.6002 68.7008 82.8002 69.0008 82.9002C69.3008 82.9002 69.6008 82.8002 69.9008 82.7002Z" fill="white"/>
<path d="M77.1996 78.4001C77.0996 78.1001 76.8996 77.9001 76.5996 77.9001C76.2996 77.9001 75.8995 77.9001 75.2995 78.0001C74.6995 78.1001 74.1995 78.2001 73.7995 78.1001C73.3995 78.1001 73.0996 78.0002 72.8996 77.8002C72.6996 77.6002 72.4995 77.4001 72.2995 77.1001C72.0995 76.6001 72.0996 76.1001 72.3996 75.5001C72.6996 74.9001 73.1995 74.6002 73.7995 74.3002C74.4995 74.0002 75.1996 73.9001 75.6996 74.1001C76.2996 74.3001 76.6996 74.7001 76.8996 75.2001L75.7995 75.6001C75.6995 75.3001 75.3996 75.1001 75.0996 75.0001C74.7996 74.9001 74.3995 74.9001 73.9995 75.1001C73.5995 75.3001 73.2996 75.5001 73.1996 75.7001C73.0996 76.0001 72.9996 76.2001 73.0996 76.5001C73.1996 76.8001 73.3996 76.9001 73.5996 77.0001C73.8996 77.0001 74.2996 77.0001 74.8996 76.9001C75.4996 76.8001 75.9996 76.8002 76.3996 76.8002C76.7996 76.8002 77.0996 76.9001 77.3996 77.1001C77.6996 77.3001 77.8995 77.5002 77.9995 77.8002C78.1995 78.4002 78.1996 78.9001 77.8996 79.4001C77.5996 79.9001 77.0996 80.3001 76.3996 80.6001C75.8996 80.8001 75.3995 80.9001 74.9995 80.9001C74.4995 80.9001 74.0995 80.8001 73.7995 80.5001C73.4995 80.2001 73.1995 80.0001 72.9995 79.6001L74.0996 79.2001C74.2996 79.5001 74.4996 79.8001 74.8996 79.9001C75.2996 80.0001 75.5996 80.0002 76.0996 79.8002C76.4996 79.6002 76.7995 79.4001 76.9995 79.1001C77.1995 78.9001 77.2996 78.6001 77.1996 78.4001Z" fill="white"/>
<path d="M79.1984 73.1999C79.4984 72.3999 79.9984 71.8999 80.7984 71.6999C82.1984 71.2999 83.0984 71.7999 83.5984 73.2999L84.9984 77.4999L83.8984 77.8999L82.4984 73.6999C82.2984 73.1999 82.0984 72.8999 81.7984 72.7999C81.4984 72.6999 81.1984 72.5999 80.6984 72.7999C80.2984 72.8999 80.0984 73.0999 79.8984 73.3999C79.6984 73.6999 79.5984 73.9999 79.4984 74.3999L80.9984 78.9999L79.8984 79.3999L76.8984 70.2999L77.9984 69.8999L79.1984 73.1999Z" fill="white"/>
<path d="M84.1992 68.9C84.1992 68.7 84.1992 68.6 84.1992 68.4C84.2992 68.2 84.3992 68.1 84.5992 68.1C84.7992 68 84.9992 68.1 85.0992 68.2C85.1992 68.3 85.2992 68.4 85.3992 68.6C85.3992 68.8 85.3992 68.9 85.3992 69.1C85.2992 69.3 85.1992 69.4 84.9992 69.4C84.7992 69.5 84.5992 69.4 84.4992 69.4C84.3992 69.2 84.2992 69.1 84.1992 68.9ZM87.6992 76.8L86.5992 77.1L84.7992 70.6L85.8992 70.3L87.6992 76.8Z" fill="white"/>
<path d="M88.8984 69.5999L89.0984 70.3999C89.4984 69.6999 90.0984 69.1998 90.8984 68.9998C92.2984 68.6998 93.1984 69.2999 93.4984 70.8999L94.3984 75.2999L93.2984 75.4998L92.3984 71.0999C92.2984 70.5999 92.0984 70.2999 91.8984 70.0999C91.6984 69.8999 91.2984 69.8998 90.7984 69.9998C90.3984 70.0998 90.0984 70.1998 89.8984 70.4998C89.6984 70.7998 89.4984 71.0999 89.3984 71.3999L90.3984 76.0999L89.2984 76.2999L87.8984 69.6998L88.8984 69.5999Z" fill="white"/>
<path d="M94.5977 66.6999C94.5977 66.4999 94.5976 66.3999 94.6976 66.1999C94.7976 66.0999 94.9976 65.9999 95.1976 65.8999C95.3976 65.8999 95.5976 65.8999 95.6976 65.9999C95.7976 66.0999 95.8976 66.2999 95.8976 66.3999C95.8976 66.5999 95.8976 66.6999 95.7976 66.8999C95.6976 66.9999 95.4976 67.0999 95.2976 67.1999C95.0976 67.1999 94.8976 67.1999 94.7976 67.0999C94.6976 66.9999 94.5977 66.7999 94.5977 66.6999ZM97.0977 74.8999L95.9976 75.0999L94.9976 68.3999L96.0977 68.1999L97.0977 74.8999Z" fill="white"/>
<path d="M101.398 69.5998C101.398 69.1998 101.498 68.8998 101.698 68.6998C101.898 68.4998 102.198 68.2998 102.598 68.2998C102.998 68.2998 103.298 68.3998 103.498 68.5998C103.698 68.7998 103.898 69.0998 103.898 69.4998V69.6998C103.898 70.0998 103.798 70.3998 103.598 70.5998C103.398 70.7998 103.098 70.9998 102.698 70.9998C102.298 70.9998 101.998 70.8998 101.798 70.6998C101.598 70.4998 101.398 70.1998 101.398 69.7998V69.5998Z" fill="white"/>
<path d="M110.098 73.1L114.398 73.2V74.2L108.898 74.1L109.098 65H110.298L110.098 73.1Z" fill="white"/>
<path d="M116.6 74.4001L115.5 74.3001L116 67.6001L117.1 67.7001L116.6 74.4001ZM116 65.8001C116 65.6001 116.1 65.5001 116.2 65.3001C116.3 65.1001 116.5 65.1001 116.7 65.1001C116.9 65.1001 117.1 65.2001 117.2 65.3001C117.3 65.4001 117.4 65.6001 117.3 65.8001C117.3 66.0001 117.2 66.1001 117.1 66.3001C117 66.4001 116.8 66.5001 116.6 66.4001C116.4 66.3001 116.2 66.3001 116.1 66.2001C116 66.1001 116 66.0001 116 65.8001Z" fill="white"/>
<path d="M120.399 71.7L119.599 72.4L119.299 74.7L118.199 74.5L119.499 65L120.599 65.2L119.799 70.9L120.499 70.2L122.899 68.3L124.299 68.5L121.299 70.9L123.699 75.2L122.399 75L120.399 71.7Z" fill="white"/>
<path d="M126.601 69.8C127.201 69.3 127.901 69.1 128.701 69.3C130.101 69.6 130.601 70.5 130.301 72.1L129.401 76.5L128.301 76.3L129.201 71.9C129.301 71.4 129.301 71 129.101 70.8C128.901 70.6 128.601 70.3 128.201 70.2C127.801 70.1 127.501 70.2 127.201 70.3C126.901 70.4 126.601 70.6 126.401 70.9L125.401 75.6L124.301 75.4L126.301 66L127.401 66.2L126.601 69.8Z" fill="white"/>
<path d="M131.401 73.4002C131.601 72.8002 131.901 72.2002 132.301 71.8002C132.701 71.4002 133.201 71.1002 133.701 70.9002C134.201 70.8002 134.801 70.8002 135.301 70.9002C136.201 71.2002 136.801 71.7002 137.201 72.4002C137.601 73.2002 137.601 74.1002 137.301 75.1002V75.2002C137.101 75.8002 136.801 76.4002 136.401 76.8002C136.001 77.2002 135.601 77.5002 135.001 77.7002C134.501 77.8002 133.901 77.8002 133.301 77.7002C132.401 77.4002 131.801 76.9002 131.401 76.2002C131.101 75.4002 131.101 74.5002 131.401 73.4002ZM132.501 73.9002C132.301 74.6002 132.301 75.2002 132.501 75.8002C132.701 76.3002 133.101 76.7002 133.601 76.8002C134.201 77.0002 134.701 76.9002 135.101 76.5002C135.601 76.2002 135.901 75.6002 136.101 74.8002C136.301 74.1002 136.301 73.5002 136.101 72.9002C135.901 72.3002 135.501 72.0002 135.001 71.8002C134.501 71.6002 134.001 71.7002 133.501 72.1002C133.001 72.5002 132.701 73.1002 132.501 73.9002Z" fill="white"/>
<path d="M141.6 80.5001L140.5 80.0001L143.9 71.6001L145 72.1001L141.6 80.5001Z" fill="white"/>
<path d="M147.101 75.4999L146.801 76.2999C147.501 75.8999 148.301 75.8999 149.001 76.2999C150.301 76.8999 150.601 77.8999 149.901 79.3999L148.001 83.3999L147.001 82.8999L148.901 78.8999C149.101 78.4999 149.201 78.0999 149.101 77.7999C149.001 77.4999 148.701 77.1999 148.301 76.9999C148.001 76.7999 147.601 76.7999 147.301 76.7999C147.001 76.8999 146.601 76.9999 146.401 77.1999L144.301 81.4999L143.301 80.9999L146.201 74.8999L147.101 75.4999Z" fill="white"/>
<path d="M150.701 80.8998C151.201 79.9998 151.801 79.3998 152.601 79.0998C153.301 78.7998 154.101 78.8998 154.701 79.1998C155.401 79.5998 155.801 80.0998 155.901 80.7998L157.701 77.7998L158.701 78.3998L153.901 86.6998L153.001 86.1998L153.301 85.4998C152.601 85.7998 151.901 85.6998 151.201 85.2998C150.501 84.8998 150.101 84.2998 150.001 83.4998C149.901 82.7998 150.101 81.8998 150.701 80.8998ZM151.601 81.5998C151.201 82.2998 151.101 82.8998 151.101 83.3998C151.201 83.8998 151.401 84.2998 151.901 84.5998C152.501 84.9998 153.201 84.9998 153.801 84.5998L155.401 81.8998C155.401 81.1998 155.101 80.5998 154.501 80.2998C154.001 79.9998 153.501 79.9998 153.001 80.1998C152.501 80.3998 152.001 80.8998 151.601 81.5998Z" fill="white"/>
<path d="M156.199 88.3002L155.199 87.7002L158.899 82.1002L159.899 82.7002L156.199 88.3002ZM159.799 80.5002C159.899 80.3002 159.999 80.2002 160.199 80.2002C160.399 80.2002 160.499 80.2002 160.699 80.3002C160.899 80.4002 160.999 80.6002 160.999 80.7002C160.999 80.9002 160.999 81.0002 160.899 81.2002C160.799 81.4002 160.699 81.5002 160.499 81.5002C160.299 81.5002 160.199 81.5002 159.999 81.4002C159.799 81.3002 159.699 81.1002 159.699 81.0002C159.699 80.8002 159.699 80.7002 159.799 80.5002Z" fill="white"/>
<path d="M160.898 91.7001C160.898 91.6001 160.998 91.3 161.198 91C160.398 91.1 159.798 91 159.198 90.5C158.698 90.1 158.298 89.6001 158.198 89.1001C158.098 88.6001 158.198 88.0001 158.498 87.6001C158.898 87.0001 159.498 86.8001 160.098 86.8001C160.698 86.8001 161.498 87.1001 162.298 87.7001L163.198 88.4001L163.498 88C163.698 87.7 163.798 87.3 163.798 87C163.798 86.7 163.498 86.4001 163.198 86.1001C162.898 85.9001 162.498 85.7001 162.198 85.7001C161.898 85.7001 161.598 85.8001 161.398 86.1001L160.498 85.4001C160.698 85.1001 160.998 84.9001 161.398 84.8001C161.798 84.7001 162.198 84.7001 162.598 84.8001C162.998 84.9001 163.498 85.1001 163.798 85.4001C164.398 85.9001 164.798 86.4 164.898 87C164.998 87.6 164.898 88.1001 164.498 88.7001L162.698 91.2001C162.298 91.7001 162.098 92.1 161.998 92.5L161.898 92.6001L160.898 91.7001ZM159.898 89.8001C160.198 90.0001 160.498 90.1001 160.898 90.2001C161.298 90.3001 161.598 90.2 161.898 90L162.698 88.9001L161.998 88.4001C160.898 87.6001 160.098 87.5001 159.598 88.1001C159.398 88.4001 159.298 88.7 159.398 89C159.398 89.3 159.498 89.6001 159.898 89.8001Z" fill="white"/>
<path d="M18 181L26.7 178.6L27.5 181.5C27.8 182.4 27.8 183.2 27.5 183.8C27.2 184.4 26.7 184.8 26 185C25.6 185.1 25.2 185.1 24.8 185C24.4 184.9 24.1 184.6 23.8 184.3C23.8 184.8 23.7 185.3 23.4 185.6C23.1 185.9 22.7 186.2 22.2 186.4C21.4 186.6 20.7 186.5 20.1 186.2C19.5 185.9 19.1 185.2 18.8 184.2L18 181ZM22.4 181L19.3 181.9L19.8 183.8C19.9 184.3 20.2 184.7 20.6 185C21 185.2 21.4 185.3 21.9 185.1C23 184.8 23.3 184.1 23 182.9L22.4 181ZM23.4 180.8L23.9 182.5C24 183 24.3 183.4 24.6 183.6C24.9 183.8 25.3 183.9 25.8 183.8C26.3 183.7 26.6 183.4 26.7 183.1C26.8 182.8 26.8 182.3 26.7 181.7L26.2 180L23.4 180.8Z" fill="white"/>
<path d="M26.3008 187.9C27.1008 188.2 27.6008 188.7 27.9008 189.4C28.4008 190.7 27.9008 191.7 26.4008 192.3L22.2008 193.8L21.8008 192.7L26.0008 191.2C26.5008 191 26.8008 190.8 26.9008 190.5C27.0008 190.2 27.0008 189.9 26.9008 189.4C26.8008 189 26.6008 188.8 26.3008 188.6C26.0008 188.4 25.7008 188.3 25.3008 188.3L20.7008 189.9L20.3008 188.8L29.3008 185.5L29.7008 186.6L26.3008 187.9Z" fill="white"/>
<path d="M24.7012 199.499C24.8012 199.399 25.0012 199.199 25.3012 199.099C24.6012 198.799 24.0012 198.399 23.7012 197.699C23.4012 197.099 23.4012 196.499 23.5012 195.999C23.6012 195.499 24.0012 195.099 24.5012 194.799C25.1012 194.499 25.7012 194.499 26.3012 194.799C26.9012 195.099 27.4012 195.699 27.8012 196.599L28.3012 197.599L28.8012 197.399C29.2012 197.199 29.4012 196.999 29.5012 196.699C29.6012 196.399 29.6012 195.999 29.4012 195.599C29.2012 195.199 29.0012 194.999 28.7012 194.799C28.4012 194.599 28.1012 194.599 27.8012 194.699L27.3012 193.599C27.6012 193.499 27.9012 193.399 28.3012 193.499C28.7012 193.599 29.0012 193.799 29.4012 194.099C29.7012 194.399 30.0012 194.799 30.2012 195.199C30.5012 195.899 30.6012 196.499 30.4012 197.099C30.2012 197.699 29.8012 198.099 29.2012 198.399L26.4012 199.699C25.8012 199.999 25.4012 200.199 25.2012 200.499H25.1012L24.7012 199.499ZM24.7012 197.399C24.9012 197.699 25.1012 197.999 25.4012 198.199C25.7012 198.399 26.0012 198.499 26.4012 198.499L27.7012 197.899L27.3012 197.099C26.7012 195.799 26.0012 195.399 25.3012 195.699C25.0012 195.899 24.8012 196.099 24.7012 196.399C24.5012 196.699 24.5012 197.099 24.7012 197.399Z" fill="white"/>
<path d="M29.6008 204.9C29.9008 204.7 30.0008 204.5 30.1008 204.2C30.1008 203.9 30.1008 203.5 29.9008 202.9C29.7008 202.3 29.6008 201.9 29.6008 201.5C29.6008 201.1 29.6008 200.8 29.8008 200.5C29.9008 200.2 30.1008 200 30.4008 199.9C30.9008 199.6 31.4008 199.6 32.0008 199.8C32.6008 200 33.0008 200.4 33.4008 201.1C33.8008 201.8 33.9008 202.4 33.8008 203C33.7008 203.6 33.4008 204.1 32.8008 204.4L32.2008 203.4C32.5008 203.2 32.6008 203 32.7008 202.7C32.8008 202.4 32.7008 202 32.5008 201.6C32.3008 201.2 32.1008 201 31.8008 200.9C31.5008 200.8 31.3008 200.8 31.0008 200.9C30.8008 201 30.6008 201.2 30.6008 201.5C30.6008 201.8 30.7008 202.2 30.8008 202.7C31.0008 203.3 31.1008 203.7 31.1008 204.1C31.1008 204.5 31.1008 204.8 30.9008 205.1C30.8008 205.4 30.5008 205.6 30.2008 205.8C29.7008 206.1 29.1008 206.1 28.6008 205.9C28.0008 205.7 27.6008 205.2 27.2008 204.5C26.9008 204 26.8008 203.6 26.8008 203.1C26.8008 202.6 26.8008 202.2 27.0008 201.9C27.2008 201.5 27.5008 201.2 27.8008 201L28.4008 202C28.1008 202.2 27.9008 202.5 27.8008 202.9C27.7008 203.3 27.8008 203.7 28.1008 204.1C28.3008 204.5 28.6008 204.7 28.8008 204.9C29.0008 205 29.3008 205 29.6008 204.9Z" fill="white"/>
<path d="M35.1016 206C35.9016 206.1 36.5015 206.5 37.0015 207.1C37.8015 208.3 37.5015 209.3 36.2015 210.2L32.5015 212.7L31.9016 211.7L35.6016 209.2C36.0016 208.9 36.2015 208.6 36.3015 208.3C36.4015 208 36.3015 207.6 36.0015 207.3C35.8015 207 35.5015 206.8 35.2015 206.6C34.9015 206.4 34.5015 206.4 34.2015 206.5L30.2015 209.2L29.6016 208.2L37.6016 202.9L38.2015 203.9L35.1016 206Z" fill="white"/>
<path d="M36.2984 217.7C36.3984 217.6 36.4984 217.4 36.7984 217.1C35.9984 217 35.3984 216.7 34.9984 216.1C34.5984 215.6 34.3984 215 34.3984 214.5C34.3984 213.9 34.6984 213.5 35.0984 213.1C35.6984 212.7 36.1984 212.5 36.8984 212.7C37.4984 212.9 38.0984 213.4 38.6984 214.1L39.3984 215L39.7984 214.7C40.0984 214.5 40.2984 214.2 40.2984 213.8C40.2984 213.5 40.1984 213.1 39.8984 212.7C39.5984 212.4 39.3984 212.2 38.9984 212.1C38.5984 212 38.3984 212.1 38.0984 212.2L37.3984 211.3C37.6984 211.1 37.9984 211 38.3984 211C38.7984 211 39.1984 211.1 39.5984 211.3C39.9984 211.5 40.2984 211.8 40.5984 212.2C41.0984 212.8 41.2984 213.4 41.2984 214C41.2984 214.6 40.9984 215.1 40.4984 215.5L38.0984 217.4C37.5984 217.8 37.2984 218.1 37.0984 218.5L36.9984 218.6L36.2984 217.7ZM35.7984 215.7C35.9984 216 36.2984 216.2 36.6984 216.3C36.9984 216.4 37.3984 216.5 37.6984 216.4L38.7984 215.5L38.1984 214.8C37.2984 213.7 36.5984 213.4 35.8984 213.9C35.5984 214.1 35.4984 214.4 35.4984 214.7C35.3984 215.1 35.4984 215.4 35.7984 215.7Z" fill="white"/>
<path d="M45.2986 221.8C44.7986 220.9 44.4986 220.1 44.4986 219.4C44.4986 218.8 44.6986 218.2 45.0986 217.8C45.5986 217.3 46.1986 217.1 46.9986 217.2C47.6986 217.3 48.3986 217.6 49.0986 218.3C49.4986 218.7 49.7986 219.2 49.9986 219.7C50.1986 220.2 50.1986 220.7 50.0986 221.2C49.9986 221.7 49.7986 222.1 49.3986 222.5L48.5986 221.6C48.9986 221.2 49.1986 220.8 49.1986 220.3C49.1986 219.8 48.8986 219.4 48.4986 218.9C48.0986 218.5 47.6986 218.2 47.2986 218.2C46.8986 218.2 46.4986 218.3 46.1986 218.6C45.8986 218.9 45.7986 219.2 45.8986 219.6C45.8986 220 46.0986 220.5 46.4986 221.2C46.8986 221.9 47.0986 222.5 47.1986 223C47.2986 223.5 47.2986 223.9 47.1986 224.3C47.0986 224.7 46.8986 225 46.5986 225.4C46.0986 225.9 45.4986 226.1 44.6986 226C43.9986 225.9 43.2986 225.5 42.5986 224.8C42.1986 224.4 41.7986 223.9 41.5986 223.3C41.3986 222.7 41.2986 222.2 41.3986 221.7C41.4986 221.2 41.6986 220.8 42.0986 220.4L42.8986 221.3C42.4986 221.7 42.2986 222.1 42.3986 222.6C42.4986 223.1 42.6986 223.6 43.1986 224.1C43.5986 224.5 44.0986 224.8 44.4986 224.9C44.8986 225 45.2986 224.8 45.5986 224.5C45.8986 224.2 46.0986 223.8 45.9986 223.4C45.9986 223.1 45.6986 222.5 45.2986 221.8Z" fill="white"/>
<path d="M49.3018 230.9C49.3018 230.8 49.4018 230.5 49.6018 230.3C48.8018 230.4 48.2018 230.2 47.6018 229.7C47.1018 229.3 46.8018 228.8 46.7018 228.2C46.6018 227.6 46.8018 227.1 47.1018 226.7C47.6018 226.2 48.1018 225.9 48.8018 226C49.5018 226.1 50.2018 226.4 50.9018 227L51.8018 227.7L52.1018 227.3C52.4018 227 52.5018 226.7 52.5018 226.3C52.5018 225.9 52.3018 225.6 51.9018 225.3C51.6018 225 51.3018 224.9 50.9018 224.9C50.6018 224.9 50.3018 225 50.1018 225.2L49.2018 224.4C49.4018 224.1 49.7018 224 50.1018 223.9C50.5018 223.8 50.9018 223.8 51.3018 224C51.7018 224.1 52.1018 224.4 52.5018 224.7C53.1018 225.2 53.4018 225.7 53.5018 226.3C53.6018 226.9 53.4018 227.4 53.0018 228L51.0018 230.4C50.6018 230.9 50.3018 231.3 50.2018 231.7L50.1018 231.8L49.3018 230.9ZM48.4018 229C48.7018 229.2 49.0018 229.4 49.4018 229.5C49.8018 229.6 50.1018 229.5 50.4018 229.4L51.3018 228.4L50.6018 227.8C49.5018 226.9 48.7018 226.7 48.2018 227.4C48.0018 227.7 47.9018 228 47.9018 228.3C47.9018 228.5 48.1018 228.7 48.4018 229Z" fill="white"/>
<path d="M56.4992 228.1L56.0992 228.7C56.7992 228.5 57.5992 228.6 58.1992 229.1C58.9992 229.6 59.2992 230.3 59.1992 231.1C59.5992 231 59.9992 230.9 60.3992 231C60.7992 231 61.1992 231.2 61.5992 231.5C62.7992 232.3 62.9992 233.4 62.0992 234.7L59.4992 238.4L58.5992 237.7L61.0992 234.1C61.3992 233.7 61.4992 233.3 61.3992 233C61.3992 232.7 61.0992 232.4 60.6992 232.1C60.2992 231.9 59.9992 231.8 59.5992 231.8C59.1992 231.8 58.8992 232 58.5992 232.4L55.9992 236.1L54.9992 235.4L57.4992 231.8C58.0992 231 57.8992 230.3 57.1992 229.8C56.5992 229.4 55.9992 229.3 55.3992 229.7L52.5992 233.7L51.6992 233L55.5992 227.5L56.4992 228.1Z" fill="white"/>
<path d="M64.9981 241.5C64.9981 241.4 65.0981 241.1 65.1981 240.8C64.4981 241 63.7981 241 63.0981 240.6C62.4981 240.3 62.0981 239.8 61.8981 239.3C61.6981 238.8 61.7981 238.2 61.9981 237.7C62.2981 237.1 62.7981 236.7 63.4981 236.7C64.1981 236.6 64.8981 236.8 65.7981 237.3L66.7981 237.8L67.0981 237.3C67.2981 236.9 67.2981 236.6 67.2981 236.3C67.1981 236 66.9981 235.7 66.4981 235.5C66.0981 235.3 65.7981 235.2 65.3981 235.3C65.0981 235.3 64.7981 235.5 64.6981 235.8L63.6981 235.2C63.8981 234.9 64.0981 234.7 64.4981 234.5C64.8981 234.3 65.2981 234.3 65.6981 234.3C66.0981 234.3 66.5981 234.5 66.9981 234.7C67.6981 235.1 68.0981 235.5 68.2981 236.1C68.4981 236.7 68.3981 237.2 68.0981 237.8L66.5981 240.5C66.2981 241 66.0981 241.5 66.0981 241.9V242L64.9981 241.5ZM63.7981 239.8C64.0981 240 64.4981 240.1 64.7981 240.1C65.0981 240.1 65.4981 240 65.7981 239.8L66.4981 238.6L65.6981 238.2C64.4981 237.5 63.5981 237.5 63.1981 238.3C62.9981 238.6 62.9981 238.9 63.0981 239.2C63.2981 239.4 63.4981 239.6 63.7981 239.8Z" fill="white"/>
<path d="M73.2008 239.099C73.1008 238.999 72.9008 238.899 72.7008 238.799C72.0008 238.499 71.4008 238.499 70.9008 238.999L68.8008 243.299L67.8008 242.799L70.7008 236.699L71.7008 237.199L71.4008 237.899C72.0008 237.499 72.6008 237.499 73.2008 237.799C73.4008 237.899 73.5008 237.999 73.6008 238.099L73.2008 239.099Z" fill="white"/>
<path d="M76.7993 237.8L76.1993 239.3L77.3993 239.8L77.0993 240.6L75.8993 240.1L74.2993 244C74.1993 244.2 74.1993 244.5 74.1993 244.6C74.2993 244.8 74.3993 244.9 74.6993 245C74.7993 245.1 74.9993 245.1 75.1993 245.1L74.7993 246C74.4993 246 74.1993 245.9 73.8993 245.8C73.3993 245.6 73.0993 245.3 72.9993 244.9C72.8993 244.5 72.8993 244.1 73.0993 243.5L74.6993 239.6L73.5993 239.1L73.8993 238.3L74.9993 238.8L75.5993 237.3L76.7993 237.8Z" fill="white"/>
<path d="M79.2992 241.4C79.9992 241 80.6992 240.9 81.4992 241.2C82.7992 241.7 83.2992 242.7 82.7992 244.2L81.3992 248.4L80.2992 248L81.6992 243.8C81.8992 243.3 81.8992 243 81.6992 242.7C81.5992 242.4 81.2992 242.2 80.7992 242C80.3992 241.9 80.0992 241.9 79.7992 242C79.4992 242.1 79.1992 242.3 78.8992 242.5L77.2992 247L76.1992 246.6L79.2992 237.5L80.3992 237.9L79.2992 241.4Z" fill="white"/>
<path d="M87.2984 249.899C87.2984 249.799 87.2984 249.499 87.2984 249.199C86.5984 249.599 85.9985 249.699 85.1985 249.499C84.5985 249.299 84.0984 248.999 83.7984 248.499C83.4984 247.999 83.3984 247.499 83.4984 246.999C83.6984 246.299 84.0985 245.899 84.6985 245.599C85.2985 245.399 86.0984 245.399 86.9984 245.599L88.0985 245.899L88.1985 245.399C88.2985 244.999 88.2985 244.699 88.0985 244.399C87.8985 244.099 87.5985 243.899 87.1985 243.799C86.7985 243.699 86.3985 243.699 86.0985 243.799C85.7985 243.899 85.5984 244.099 85.4984 244.399L84.3985 244.099C84.4985 243.799 84.6984 243.499 84.9984 243.199C85.2984 242.999 85.6985 242.799 86.0985 242.699C86.4985 242.599 86.9984 242.599 87.4984 242.799C88.2984 242.999 88.7985 243.299 89.0985 243.799C89.3985 244.299 89.4985 244.899 89.3985 245.499L88.5985 248.499C88.3985 249.099 88.3984 249.599 88.4984 249.999V250.099L87.2984 249.899ZM85.6985 248.599C86.0985 248.699 86.3984 248.699 86.7984 248.599C87.1984 248.499 87.3985 248.299 87.6985 248.099L87.9984 246.799L87.0985 246.599C85.6985 246.299 84.8985 246.499 84.6985 247.299C84.5985 247.599 84.6984 247.999 84.7984 248.199C84.8984 248.399 85.2985 248.499 85.6985 248.599Z" fill="white"/>
<path d="M92.8 247.899L92 248.499L91.6 250.799L90.5 250.599L92.2 241.199L93.3 241.399L92.3 247.099L93 246.499L95.5 244.699L96.9 244.899L93.8 247.199L96 251.599L94.7 251.399L92.8 247.899Z" fill="white"/>
<path d="M100.702 247.3C100.702 246.9 100.902 246.7 101.102 246.4C101.302 246.2 101.702 246.1 102.002 246.1C102.402 246.1 102.702 246.3 102.902 246.5C103.102 246.7 103.202 247.1 103.202 247.4V247.6C103.202 248 103.002 248.2 102.802 248.5C102.602 248.7 102.202 248.8 101.802 248.8C101.402 248.8 101.102 248.6 100.902 248.4C100.702 248.2 100.602 247.8 100.602 247.5L100.702 247.3Z" fill="white"/>
<path d="M109.601 248.899L109.701 252.399H108.501L108.301 243.299L111.601 243.199C112.601 243.199 113.401 243.399 113.901 243.899C114.401 244.399 114.801 245.099 114.801 245.899C114.801 246.799 114.601 247.499 114.001 247.999C113.401 248.499 112.701 248.899 111.701 248.899H109.601ZM109.501 247.999L111.601 247.899C112.201 247.899 112.701 247.699 113.101 247.399C113.501 247.099 113.601 246.599 113.601 246.099C113.601 245.599 113.401 245.099 113.101 244.799C112.801 244.499 112.301 244.299 111.701 244.299L109.501 244.399V247.999Z" fill="white"/>
<path d="M117.798 252.1L116.698 252.2L115.898 242.7L116.998 242.6L117.798 252.1Z" fill="white"/>
<path d="M124.002 251.299C123.902 251.199 123.802 250.999 123.702 250.599C123.202 251.199 122.702 251.599 121.902 251.699C121.202 251.799 120.702 251.699 120.202 251.399C119.702 251.099 119.402 250.599 119.402 250.099C119.302 249.399 119.502 248.799 120.002 248.399C120.502 247.899 121.202 247.599 122.102 247.499L123.202 247.299L123.102 246.799C123.002 246.399 122.902 246.099 122.602 245.899C122.302 245.699 122.002 245.599 121.502 245.699C121.102 245.799 120.802 245.899 120.502 246.199C120.302 246.399 120.202 246.699 120.202 246.999L119.102 247.199C119.102 246.899 119.102 246.499 119.302 246.199C119.502 245.899 119.802 245.599 120.202 245.299C120.602 245.099 121.002 244.899 121.502 244.799C122.302 244.699 122.902 244.799 123.402 245.099C123.902 245.399 124.202 245.899 124.302 246.599L124.702 249.699C124.802 250.299 124.902 250.799 125.102 251.099V251.199L124.002 251.299ZM122.002 250.699C122.402 250.599 122.702 250.499 123.002 250.299C123.302 250.099 123.502 249.799 123.602 249.499L123.402 248.099L122.502 248.199C121.102 248.399 120.502 248.899 120.602 249.699C120.702 250.099 120.802 250.299 121.102 250.499C121.302 250.699 121.602 250.799 122.002 250.699Z" fill="white"/>
<path d="M126.898 242.3L127.198 243.9L128.398 243.6L128.598 244.5L127.398 244.8L128.198 248.9C128.298 249.2 128.398 249.4 128.498 249.5C128.598 249.6 128.798 249.6 129.098 249.6C129.198 249.6 129.398 249.5 129.598 249.4L129.798 250.3C129.498 250.4 129.198 250.5 128.998 250.6C128.498 250.7 128.098 250.6 127.798 250.4C127.498 250.2 127.298 249.7 127.098 249.2L126.298 245.1L125.098 245.3L124.898 244.4L126.098 244.2L125.798 242.6L126.898 242.3Z" fill="white"/>
<path d="M129.199 241.599C129.199 241.399 129.199 241.299 129.299 241.099C129.399 240.899 129.499 240.799 129.699 240.799C129.899 240.699 130.099 240.799 130.199 240.899C130.299 240.999 130.399 241.099 130.499 241.299C130.499 241.499 130.499 241.599 130.399 241.799C130.299 241.899 130.199 242.099 129.899 242.099C129.699 242.199 129.499 242.099 129.399 241.999C129.399 241.899 129.299 241.799 129.199 241.599ZM132.499 249.499L131.399 249.799L129.799 243.299L130.899 242.999L132.499 249.499Z" fill="white"/>
<path d="M133.498 242.4L133.798 243.1C134.098 242.4 134.598 241.9 135.398 241.6C136.298 241.3 136.998 241.4 137.598 242C137.698 241.6 137.898 241.3 138.198 241C138.498 240.7 138.798 240.5 139.298 240.3C140.698 239.8 141.698 240.3 142.198 241.8L143.598 246.1L142.498 246.5L141.098 242.3C140.898 241.8 140.698 241.5 140.398 241.4C140.098 241.2 139.698 241.2 139.198 241.4C138.798 241.5 138.498 241.8 138.298 242.1C138.098 242.4 138.098 242.8 138.198 243.2L139.598 247.4L138.498 247.8L137.098 243.6C136.798 242.7 136.198 242.4 135.298 242.7C134.598 242.9 134.198 243.4 134.098 244.1L135.698 248.8L134.598 249.2L132.398 242.8L133.498 242.4Z" fill="white"/>
<path d="M149.201 242.8C149.001 243.5 148.501 244 147.701 244.3C147.001 244.6 146.501 244.6 145.901 244.4C145.401 244.2 145.001 243.7 144.601 243L142.801 239L143.801 238.5L145.601 242.5C146.001 243.4 146.601 243.7 147.401 243.4C148.201 243 148.601 242.5 148.601 241.8L146.601 237.3L147.601 236.8L150.401 242.9L149.401 243.4L149.201 242.8Z" fill="white"/>
<path d="M149.999 235.7L150.399 236.3C150.499 235.5 150.999 235 151.699 234.5C152.499 234 153.199 234 153.899 234.5C153.899 234.1 153.999 233.7 154.299 233.4C154.499 233 154.799 232.7 155.199 232.5C156.499 231.8 157.499 232 158.299 233.4L160.599 237.3L159.599 237.9L157.299 234.1C157.099 233.7 156.799 233.4 156.499 233.3C156.199 233.2 155.799 233.3 155.399 233.6C154.999 233.8 154.799 234.1 154.699 234.5C154.599 234.9 154.599 235.2 154.799 235.6L157.099 239.5L156.099 240.1L153.899 236.3C153.399 235.5 152.699 235.3 151.899 235.8C151.199 236.2 150.999 236.7 151.099 237.4L153.599 241.6L152.599 242.2L149.199 236.4L149.999 235.7Z" fill="white"/>
<path d="M168.7 227.5C169.2 228.3 169.4 229.1 169.3 229.9C169.2 230.7 168.7 231.4 167.9 232C167.1 232.7 166.2 232.9 165.2 232.7C164.2 232.5 163.3 231.9 162.5 230.9L162 230.2C161.5 229.5 161.1 228.9 161 228.2C160.8 227.5 160.9 226.9 161.1 226.3C161.3 225.7 161.7 225.2 162.3 224.7C163.1 224.1 163.8 223.8 164.6 223.9C165.4 224 166.1 224.3 166.8 225L165.9 225.8C165.4 225.3 164.9 225 164.4 225C163.9 225 163.4 225.1 163 225.5C162.4 226 162.1 226.6 162.1 227.3C162.1 228 162.4 228.8 163.1 229.6L163.6 230.3C164.2 231.1 164.9 231.6 165.6 231.7C166.3 231.8 166.9 231.8 167.5 231.3C168 230.9 168.3 230.4 168.4 230C168.5 229.5 168.3 229 168 228.3L168.7 227.5Z" fill="white"/>
<path d="M169.3 226.2C168.8 225.7 168.5 225.2 168.4 224.6C168.2 224 168.2 223.5 168.3 223C168.4 222.5 168.7 222 169.2 221.6C169.9 221 170.6 220.7 171.5 220.8C172.4 220.9 173.1 221.3 173.9 222L174 222.1C174.5 222.6 174.8 223.1 174.9 223.6C175.1 224.2 175.1 224.7 175 225.2C174.9 225.7 174.6 226.2 174.1 226.6C173.4 227.2 172.7 227.5 171.8 227.4C170.9 227.3 170 227 169.3 226.2ZM170.2 225.5C170.7 226 171.3 226.4 171.8 226.4C172.4 226.5 172.9 226.3 173.3 225.9C173.7 225.5 173.9 225 173.8 224.4C173.7 223.8 173.4 223.2 172.8 222.6C172.3 222.1 171.7 221.8 171.2 221.7C170.6 221.6 170.1 221.8 169.7 222.2C169.3 222.6 169.1 223.1 169.2 223.6C169.3 224.3 169.6 224.9 170.2 225.5Z" fill="white"/>
<path d="M173.001 217.8L173.701 218.3C173.601 217.5 173.801 216.8 174.301 216.1C175.201 215 176.301 215 177.501 216.1L180.801 219.1L180.001 220L176.701 217C176.301 216.7 176.001 216.5 175.701 216.5C175.401 216.5 175.101 216.7 174.801 217C174.601 217.3 174.401 217.6 174.401 217.9C174.401 218.2 174.401 218.6 174.501 218.9L178.101 222.1L177.301 223L172.301 218.5L173.001 217.8Z" fill="white"/>
<path d="M176.499 211.2L177.799 212.2L178.599 211.2L179.299 211.8L178.499 212.8L181.799 215.4C181.999 215.6 182.199 215.6 182.399 215.6C182.599 215.6 182.699 215.5 182.899 215.3C182.999 215.2 183.099 215 183.199 214.8L183.899 215.4C183.799 215.7 183.599 215.9 183.399 216.2C183.099 216.6 182.699 216.8 182.299 216.8C181.899 216.8 181.499 216.6 180.999 216.3L177.699 213.7L176.899 214.7L176.199 214.1L176.999 213.1L175.699 212.1L176.499 211.2Z" fill="white"/>
<path d="M181.999 208.2C181.899 208.3 181.799 208.5 181.599 208.6C181.199 209.2 181.099 209.8 181.499 210.4L185.399 213.2L184.699 214.1L179.199 210.2L179.899 209.3L180.499 209.7C180.199 209 180.299 208.4 180.699 207.9C180.799 207.7 180.999 207.6 181.099 207.5L181.999 208.2Z" fill="white"/>
<path d="M180.198 205.8C179.998 205.7 179.898 205.6 179.898 205.4C179.898 205.2 179.898 205.1 179.998 204.9C180.098 204.7 180.298 204.6 180.398 204.6C180.598 204.6 180.698 204.6 180.898 204.7C181.098 204.8 181.198 204.9 181.198 205.1C181.198 205.3 181.198 205.4 181.098 205.6C180.998 205.8 180.798 205.9 180.698 205.9C180.498 205.9 180.398 205.9 180.198 205.8ZM187.998 209.4L187.398 210.4L181.798 206.7L182.398 205.7L187.998 209.4Z" fill="white"/>
<path d="M189.198 201C190.098 201.5 190.698 202.1 190.998 202.9C191.298 203.7 191.298 204.3 190.898 205C190.498 205.7 189.898 206.2 189.098 206.3L189.698 206.7L189.198 207.6L180.898 202.8L181.498 201.8L184.598 203.6C184.298 202.9 184.398 202.2 184.798 201.5C185.198 200.8 185.798 200.4 186.598 200.3C187.298 200.2 188.198 200.5 189.198 201ZM188.498 202C187.798 201.6 187.198 201.4 186.698 201.5C186.198 201.5 185.798 201.8 185.498 202.3C185.098 203 185.198 203.6 185.598 204.2L188.098 205.6C188.898 205.6 189.498 205.3 189.798 204.7C190.098 204.2 190.098 203.7 189.898 203.3C189.698 202.9 189.198 202.4 188.498 202Z" fill="white"/>
<path d="M193.999 197C194.299 197.6 194.199 198.3 193.899 199.1C193.599 199.7 193.199 200.2 192.599 200.3C192.099 200.5 191.399 200.4 190.699 200L186.699 198.1L187.199 197.1L191.099 199C191.999 199.4 192.699 199.3 192.999 198.5C193.399 197.7 193.299 197 192.899 196.5L188.499 194.4L188.999 193.4L195.099 196.3L194.599 197.3L193.999 197Z" fill="white"/>
<path d="M188.699 189.9L190.199 190.5L190.699 189.3L191.499 189.6L190.999 190.8L194.899 192.3C195.199 192.4 195.399 192.4 195.499 192.4C195.699 192.3 195.799 192.2 195.899 191.9C195.899 191.8 195.999 191.6 195.999 191.4L196.899 191.7C196.899 192 196.799 192.3 196.699 192.6C196.499 193.1 196.199 193.4 195.799 193.5C195.399 193.6 194.999 193.6 194.399 193.4L190.499 191.9L189.999 193L189.199 192.7L189.699 191.6L188.199 191L188.699 189.9Z" fill="white"/>
<path d="M194.099 189.6C193.499 189.4 192.898 189.1 192.498 188.7C192.098 188.3 191.799 187.8 191.699 187.3C191.599 186.8 191.598 186.2 191.798 185.7C192.098 184.8 192.599 184.2 193.399 183.9C194.199 183.6 195.099 183.5 196.099 183.9H196.199C196.799 184.1 197.298 184.4 197.798 184.8C198.198 185.2 198.499 185.7 198.599 186.2C198.699 186.7 198.698 187.3 198.498 187.9C198.198 188.8 197.699 189.4 196.899 189.7C196.099 190 195.199 190 194.099 189.6ZM194.599 188.5C195.299 188.7 195.898 188.8 196.498 188.6C196.998 188.4 197.399 188 197.599 187.5C197.799 186.9 197.699 186.4 197.399 186C197.099 185.5 196.499 185.2 195.699 184.9C194.999 184.7 194.398 184.7 193.798 184.8C193.298 185 192.899 185.4 192.699 185.9C192.499 186.4 192.599 186.9 192.899 187.4C193.199 187.9 193.799 188.3 194.599 188.5Z" fill="white"/>
<path d="M194.999 178.6C194.899 178.8 194.899 178.9 194.799 179.1C194.599 179.8 194.799 180.4 195.399 180.8L199.999 182L199.699 183.1L193.199 181.4L193.499 180.3L194.299 180.5C193.799 180 193.599 179.4 193.799 178.7C193.899 178.5 193.899 178.3 193.999 178.2L194.999 178.6Z" fill="white"/>
<defs>
<filter id="filter0_ii" x="0" y="50" width="218" height="218" filterUnits="userSpaceOnUse" color-interpolation-filters="sRGB">
<feFlood flood-opacity="0" result="BackgroundImageFix"/>
<feBlend mode="normal" in="SourceGraphic" in2="BackgroundImageFix" result="shape"/>
<feColorMatrix in="SourceAlpha" type="matrix" values="0 0 0 0 0 0 0 0 0 0 0 0 0 0 0 0 0 0 127 0" result="hardAlpha"/>
<feOffset/>
<feGaussianBlur stdDeviation="4"/>
<feComposite in2="hardAlpha" operator="arithmetic" k2="-1" k3="1"/>
<feColorMatrix type="matrix" values="0 0 0 0 0.9875 0 0 0 0 0.722843 0 0 0 0 0.386771 0 0 0 1 0"/>
<feBlend mode="normal" in2="shape" result="effect1_innerShadow"/>
<feColorMatrix in="SourceAlpha" type="matrix" values="0 0 0 0 0 0 0 0 0 0 0 0 0 0 0 0 0 0 127 0" result="hardAlpha"/>
<feOffset/>
<feGaussianBlur stdDeviation="6"/>
<feComposite in2="hardAlpha" operator="arithmetic" k2="-1" k3="1"/>
<feColorMatrix type="matrix" values="0 0 0 0 0 0 0 0 0 0 0 0 0 0 0 0 0 0 0.2 0"/>
<feBlend mode="normal" in2="effect1_innerShadow" result="effect2_innerShadow"/>
</filter>
<filter id="filter1_i" x="59" y="109" width="100" height="100" filterUnits="userSpaceOnUse" color-interpolation-filters="sRGB">
<feFlood flood-opacity="0" result="BackgroundImageFix"/>
<feBlend mode="normal" in="SourceGraphic" in2="BackgroundImageFix" result="shape"/>
<feColorMatrix in="SourceAlpha" type="matrix" values="0 0 0 0 0 0 0 0 0 0 0 0 0 0 0 0 0 0 127 0" result="hardAlpha"/>
<feOffset/>
<feGaussianBlur stdDeviation="6"/>
<feComposite in2="hardAlpha" operator="arithmetic" k2="-1" k3="1"/>
<feColorMatrix type="matrix" values="0 0 0 0 0 0 0 0 0 0 0 0 0 0 0 0 0 0 0.4 0"/>
<feBlend mode="normal" in2="shape" result="effect1_innerShadow"/>
</filter>
<filter id="filter2_d" x="82.168" y="133" width="53.6667" height="52" filterUnits="userSpaceOnUse" color-interpolation-filters="sRGB">
<feFlood flood-opacity="0" result="BackgroundImageFix"/>
<feColorMatrix in="SourceAlpha" type="matrix" values="0 0 0 0 0 0 0 0 0 0 0 0 0 0 0 0 0 0 127 0"/>
<feOffset/>
<feGaussianBlur stdDeviation="0.5"/>
<feColorMatrix type="matrix" values="0 0 0 0 0.320833 0 0 0 0 0.320833 0 0 0 0 0.320833 0 0 0 0.25 0"/>
<feBlend mode="normal" in2="BackgroundImageFix" result="effect1_dropShadow"/>
<feBlend mode="normal" in="SourceGraphic" in2="effect1_dropShadow" result="shape"/>
</filter>
<linearGradient id="paint0_linear" x1="51.775" y1="57.4938" x2="322.848" y2="328.729" gradientUnits="userSpaceOnUse">
<stop stop-color="#F2F2F2"/>
<stop offset="1" stop-color="#3D485C"/>
</linearGradient>
<linearGradient id="paint1_linear" x1="-158.31" y1="-176.824" x2="234.09" y2="291.357" gradientUnits="userSpaceOnUse">
<stop stop-color="white"/>
<stop offset="1" stop-color="white" stop-opacity="0"/>
</linearGradient>
<linearGradient id="paint2_linear" x1="174.52" y1="213.6" x2="38.8" y2="107.52" gradientUnits="userSpaceOnUse">
<stop stop-color="white"/>
<stop offset="1" stop-color="#203A41" stop-opacity="0.4"/>
</linearGradient>
<linearGradient id="paint3_linear" x1="194.68" y1="230.4" x2="17.2" y2="91.68" gradientUnits="userSpaceOnUse">
<stop stop-color="white"/>
<stop offset="1" stop-color="#203A41" stop-opacity="0.24"/>
</linearGradient>
</defs>
</svg>
