<svg width="218" height="268" viewBox="0 0 218 268" fill="none" xmlns="http://www.w3.org/2000/svg">
<path d="M86.0059 29.7983C84.9045 29.7983 84.0234 30.669 84.0234 31.7573V50.0412C84.0234 51.1295 84.9045 52.0002 86.0059 52.0002H131.381C132.483 52.0002 133.364 51.1295 133.364 50.0412V31.7573C133.364 30.669 132.483 29.7983 131.381 29.7983H86.0059ZM129.399 44.1642C129.399 45.2526 128.518 46.1232 127.416 46.1232H90.191C89.0896 46.1232 88.2086 45.2526 88.2086 44.1642V35.893C88.2086 34.8046 89.0896 33.934 90.191 33.934H127.416C128.518 33.934 129.399 34.8046 129.399 35.893V44.1642Z" fill="#BABABA"/>
<path d="M140.045 0L114.918 37.8775H127.37L155.388 0H140.045Z" fill="#0FA711"/>
<path d="M127.377 0L102.473 37.8775H114.925L140.052 0H127.377Z" fill="white"/>
<path d="M114.924 0L90.0195 37.8775H102.472L127.376 0H114.924Z" fill="#FF7600"/>
<path d="M90.0177 37.8775H102.47L77.343 0H62L90.0177 37.8775Z" fill="#FF7600"/>
<path d="M102.471 37.8775H114.923L90.0184 0H77.3438L102.471 37.8775Z" fill="white"/>
<path opacity="0.5" d="M110.695 6.27979L104.469 15.6931L119.145 37.8818H127.372L129.596 34.744L110.695 6.27979Z" fill="#3E4347"/>
<path d="M114.924 37.8775H127.376L102.472 0H90.0195L114.924 37.8775Z" fill="#0FA711"/>
<g filter="url(#filter0_ii)">
<path d="M218 159C218 219.199 169.199 268 109 268C48.801 268 0 219.199 0 159C0 98.801 48.801 50 109 50C169.199 50 218 98.801 218 159Z" fill="#D5D5D5" fill-opacity="0.8"/>
</g>
<path d="M214.5 159C214.5 217.266 167.266 264.5 109 264.5C50.734 264.5 3.5 217.266 3.5 159C3.5 100.734 50.734 53.5 109 53.5C167.266 53.5 214.5 100.734 214.5 159Z" stroke="#DFDFDF" stroke-width="7"/>
<path d="M214.5 159C214.5 217.266 167.266 264.5 109 264.5C50.734 264.5 3.5 217.266 3.5 159C3.5 100.734 50.734 53.5 109 53.5C167.266 53.5 214.5 100.734 214.5 159Z" stroke="url(#paint0_linear)" stroke-width="7"/>
<path d="M196 159C196 207.049 157.049 246 109 246C60.9512 246 22 207.049 22 159C22 110.951 60.9512 72 109 72C157.049 72 196 110.951 196 159Z" fill="#A0A0A0"/>
<path fill-rule="evenodd" clip-rule="evenodd" d="M109 87C69.2355 87 37 119.235 37 159C37 198.764 69.2355 231 109 231C148.764 231 181 198.764 181 159C181 119.235 148.764 87 109 87ZM7 159C7 102.667 52.667 57 109 57C165.333 57 211 102.667 211 159C211 215.333 165.333 261 109 261C52.667 261 7 215.333 7 159Z" fill="#BABABA"/>
<path d="M109.001 82C66.5595 82 32 116.357 32 159.001C32 201.645 66.3574 236.002 109.001 236.002C151.645 236.002 186.002 201.645 186.002 159.001C186.002 116.357 151.442 82 109.001 82ZM93.6412 89.4778C93.8433 89.4778 93.8433 89.4778 93.6412 89.4778C95.0559 92.5093 97.6833 94.3282 100.311 93.7219C102.938 93.3177 105.565 91.4988 105.767 87.861C106.172 87.861 106.576 87.861 106.98 87.861C106.98 98.7745 106.172 110.496 104.959 123.229C104.757 124.441 104.757 125.654 104.757 126.867C104.353 125.856 103.948 124.644 103.544 123.229C99.3001 112.517 95.4601 100.998 92.4286 89.6799C93.0349 89.6799 93.237 89.4778 93.6412 89.4778ZM76.0583 95.743C78.2814 98.3703 81.1109 99.3808 83.5361 98.1682C86.3655 96.9556 87.9823 94.1261 87.376 91.0946C87.7802 90.8925 88.1844 90.8925 88.5886 90.6904C91.216 101.2 93.8433 112.72 95.8643 125.452C96.0664 126.867 96.2685 127.877 96.6727 129.09C96.0664 128.079 95.4601 127.069 94.4496 125.856C87.5781 116.559 80.9088 106.454 75.0478 96.3493C75.2499 96.1472 75.6541 95.9451 76.0583 95.743ZM60.4964 106.656C63.3259 108.475 66.3574 108.678 68.3784 107.061C69.9952 105.848 70.8036 104.029 70.8036 102.21C70.8036 101.2 70.6015 100.189 69.9952 99.3808C70.3994 99.1787 70.6015 98.9766 71.0057 98.7745C76.4625 108.071 81.7172 118.783 87.1739 130.302C87.7802 131.515 88.3865 132.526 88.7907 133.536C87.9823 132.728 86.9718 131.919 85.9613 131.111C77.0688 123.633 67.9742 115.549 59.688 107.465C59.8901 107.061 60.2943 106.859 60.4964 106.656ZM48.3703 121.006C48.5724 121.006 48.5724 121.006 48.3703 121.006C51.6039 122.016 54.6355 121.612 56.0502 119.389C56.4544 118.783 57.4649 117.166 57.4649 115.549C57.4649 114.538 57.0607 112.922 55.8481 111.507C56.0502 111.305 56.4544 110.901 56.6565 110.699C64.3364 118.378 72.2184 127.271 80.5046 136.972C81.313 137.982 82.1214 138.791 82.9298 139.599C81.9193 138.993 80.7067 138.589 79.494 137.982C68.9847 133.132 58.0712 127.675 47.764 122.016C47.9661 121.612 48.1682 121.41 48.3703 121.006ZM40.4883 137.982C40.4883 137.982 40.4883 137.78 40.4883 137.982C43.924 138.184 46.5514 136.972 47.5619 134.344C47.764 133.738 47.9661 132.93 47.9661 131.717C47.9661 130.505 47.5619 128.281 45.1367 126.665C45.3388 126.26 45.5409 126.058 45.743 125.654C55.0397 131.111 65.1448 137.578 75.452 144.854C76.4625 145.662 77.6751 146.269 78.4835 146.875C77.473 146.673 76.0583 146.471 74.6436 146.066C63.3259 144.45 51.4018 142.024 39.882 138.993C40.2862 138.791 40.4883 138.387 40.4883 137.982ZM37.2547 156.374C37.2547 156.374 37.2547 156.172 37.2547 156.374C40.4883 155.767 42.9135 153.746 43.1156 151.119C43.1156 150.917 43.1156 150.715 43.1156 150.311C43.1156 147.885 41.903 145.258 38.8715 144.248C38.8715 143.843 39.0736 143.439 39.0736 143.035C49.5829 145.864 60.9006 149.704 72.8247 153.948C74.0373 154.353 75.2499 154.757 76.2604 154.959C75.0478 154.959 73.8352 155.161 72.4205 155.161C61.1027 156.576 48.7745 157.182 37.0526 157.384C37.2547 157.182 37.2547 156.778 37.2547 156.374ZM38.8715 175.169C38.8715 174.967 38.8715 174.967 38.8715 175.169C41.4988 173.754 43.1156 171.733 43.1156 169.308C43.1156 169.106 43.1156 168.702 43.1156 168.5C42.7114 165.872 40.8925 163.245 37.2547 163.043C37.2547 162.639 37.2547 162.235 37.2547 161.83C48.1682 161.83 59.8901 162.437 72.6226 163.447C74.0373 163.649 75.2499 163.649 76.2604 163.649C75.2499 164.054 74.0373 164.458 72.6226 164.862C61.9111 169.106 50.3913 172.946 39.0736 176.18C39.0736 175.978 39.0736 175.573 38.8715 175.169ZM45.3387 192.752C45.3387 192.752 45.3387 192.55 45.3387 192.752C47.1577 191.135 48.1682 189.316 48.1682 187.295C48.1682 186.487 47.9661 185.881 47.764 185.274C46.7535 182.849 44.3282 180.828 40.6904 181.636C40.4883 181.232 40.4883 180.828 40.2862 180.424C50.7955 177.594 62.3153 175.169 74.8457 172.946C76.2604 172.744 77.2709 172.34 78.4835 172.138C77.473 172.744 76.4625 173.35 75.2499 174.361C65.9532 181.232 55.8481 187.902 45.743 193.965C45.743 193.358 45.5409 193.156 45.3387 192.752ZM56.2523 208.112C57.2628 206.495 57.667 205.08 57.667 203.463C57.667 202.251 57.2628 201.038 56.4544 200.23C54.8376 198.209 51.806 196.794 48.5724 198.411C48.3703 198.007 48.1682 197.805 47.9661 197.4C57.2628 191.944 67.9742 186.487 79.494 181.03C80.7067 180.424 81.7172 179.818 82.7277 179.413C81.9193 180.222 81.1109 181.232 80.3024 182.243C73.2289 191.337 65.1448 200.432 57.0607 208.92C56.8586 208.718 56.4544 208.516 56.2523 208.112ZM70.6015 220.036C70.8036 218.823 71.0057 217.813 71.0057 216.802C71.0057 214.781 70.1973 213.164 68.7826 212.356C66.7616 210.941 63.528 210.133 60.9006 212.76C60.4964 212.558 60.2943 212.154 60.0922 211.952C67.7721 204.272 76.4625 196.188 86.1634 188.104C87.1739 187.295 87.9823 186.487 88.7907 185.678C88.1844 186.689 87.7802 187.902 87.1739 189.114C82.7277 199.624 77.473 210.537 71.612 220.642C71.4099 220.44 71.0057 220.238 70.6015 220.036ZM87.5781 227.918C87.7802 224.482 86.3655 221.855 83.9403 220.844C81.5151 220.036 78.2814 220.238 76.2604 223.27C75.8562 223.067 75.6541 222.865 75.2499 222.663C80.7066 213.367 86.9718 203.261 94.2475 192.752C95.0559 191.539 95.6622 190.529 96.2685 189.721C96.0664 190.731 95.8643 192.146 95.4601 193.56C93.8433 204.878 91.4181 216.802 88.5886 228.322C88.3865 228.12 87.9823 228.12 87.5781 227.918ZM105.969 230.949C105.363 227.716 103.342 225.291 100.715 225.088C98.0874 224.886 95.0559 225.897 94.0454 229.333C93.6412 229.333 93.237 229.13 92.8328 229.13C95.6622 218.621 99.3001 207.303 103.544 195.379C103.948 194.167 104.353 192.954 104.555 191.944C104.555 193.156 104.757 194.369 104.757 195.784C106.172 207.101 106.98 219.43 107.182 231.151C106.778 231.151 106.374 231.151 105.969 230.949ZM178.928 144.45C176.301 145.864 174.482 147.885 174.482 150.311C174.482 150.513 174.482 150.917 174.482 151.119C174.886 153.746 176.705 156.374 180.343 156.576C180.343 156.98 180.343 157.384 180.343 157.788C169.632 157.788 157.708 156.98 144.975 155.767C143.56 155.565 142.348 155.565 141.337 155.565C142.348 155.161 143.56 154.757 144.975 154.353C155.687 150.108 167.206 146.269 178.524 143.237C178.726 143.641 178.726 144.045 178.928 144.45ZM172.663 126.867C172.663 126.867 172.663 127.069 172.663 126.867C170.844 128.484 169.834 130.302 169.834 132.323C169.834 133.132 170.036 133.738 170.238 134.344C171.248 136.77 173.674 138.791 177.312 138.184C177.514 138.589 177.514 138.993 177.716 139.397C167.206 142.024 155.485 144.45 142.954 146.673C141.539 146.875 140.529 147.077 139.316 147.481C140.327 146.875 141.337 146.269 142.55 145.46C151.847 138.387 161.952 131.717 172.057 125.856C172.259 126.26 172.461 126.463 172.663 126.867ZM162.154 111.709C161.143 113.326 160.537 114.943 160.537 116.357C160.537 117.57 160.941 118.783 161.75 119.591C163.366 121.612 166.196 123.027 169.43 121.41C169.632 121.814 169.834 122.016 170.036 122.42C160.537 127.675 150.028 133.132 138.306 138.184C137.093 138.791 136.083 139.195 135.072 139.801C135.881 138.993 136.689 137.982 137.7 136.972C144.975 128.079 153.059 118.985 161.345 110.699C161.548 111.103 161.952 111.305 162.154 111.709ZM147.603 99.1787C147.603 99.1787 147.805 99.3808 147.603 99.1787C147.4 100.391 146.996 101.402 146.996 102.412C146.996 104.231 147.805 105.848 149.219 106.859C151.24 108.273 154.474 109.082 157.101 106.656C157.303 106.859 157.708 107.263 157.91 107.465C150.23 115.145 141.337 123.027 131.434 131.111C130.424 131.919 129.413 132.728 128.807 133.536C129.413 132.526 129.818 131.515 130.424 130.1C135.072 119.591 140.529 108.678 146.39 98.5724C146.996 98.7745 147.198 98.9766 147.603 99.1787ZM130.626 91.2967C130.828 91.2967 130.828 91.2967 130.626 91.2967C130.424 94.7324 131.839 97.3598 134.264 98.3703C136.689 99.3808 139.923 99.1787 141.944 95.9451C142.348 96.1472 142.55 96.3493 142.954 96.5514C137.497 105.848 131.03 115.751 123.552 126.26C122.744 127.271 122.138 128.281 121.531 129.292C121.733 128.281 122.138 126.867 122.34 125.452C124.159 114.134 126.584 102.21 129.413 90.8925C130.02 90.8925 130.222 91.0946 130.626 91.2967ZM112.437 87.861C112.437 87.861 112.639 87.861 112.437 87.861C113.043 91.0946 115.064 93.5198 117.691 93.7219C120.319 93.924 123.35 92.9135 124.563 89.4778C124.967 89.4778 125.371 89.6799 125.775 89.6799C122.946 100.189 119.106 111.507 114.66 123.229C114.256 124.441 113.851 125.654 113.447 126.665C113.447 125.452 113.245 124.239 113.245 122.825C112.033 111.507 111.224 99.1787 111.224 87.4568C111.628 87.861 112.033 87.861 112.437 87.861ZM124.361 229.333C122.744 226.301 120.319 224.684 117.691 225.088C115.064 225.493 112.437 227.312 112.235 230.949C111.83 230.949 111.426 230.949 111.022 230.949C111.022 220.036 111.628 208.314 112.841 195.581C113.043 194.369 113.043 193.358 113.043 192.348C113.043 192.146 113.043 192.146 113.043 191.944C113.447 192.954 113.851 194.167 114.256 195.581C118.5 206.293 122.34 217.813 125.573 229.13C125.169 229.333 124.765 229.333 124.361 229.333ZM141.742 223.067C141.742 223.067 141.539 223.067 141.742 223.067C139.518 220.44 136.689 219.43 134.264 220.642C131.434 221.855 129.818 224.684 130.626 227.716C130.222 227.918 129.818 227.918 129.413 228.12C126.584 217.611 124.159 206.091 122.138 193.56C121.936 192.146 121.733 191.135 121.329 189.923C121.936 190.933 122.542 191.944 123.552 193.156C130.424 202.453 137.093 212.558 142.954 222.663C142.348 222.865 142.146 222.865 141.742 223.067ZM157.303 212.154C157.303 212.356 157.303 212.356 157.303 212.154C154.474 210.335 151.442 210.133 149.421 211.75C147.805 212.962 146.996 214.781 146.996 216.6C146.996 217.611 147.198 218.621 147.805 219.43C147.4 219.632 147.198 219.834 146.794 220.036C141.337 210.739 135.881 200.028 130.626 188.508C130.02 187.295 129.413 186.285 129.009 185.274C129.818 186.083 130.828 186.891 131.839 187.699C140.933 194.773 150.028 202.857 158.314 211.143C157.91 211.75 157.708 211.952 157.303 212.154ZM169.227 198.007C169.227 198.007 169.227 198.209 169.227 198.007C165.994 196.996 162.962 197.4 161.548 199.624C161.143 200.23 160.133 201.847 160.133 203.463C160.133 204.474 160.537 206.091 161.75 207.506C161.548 207.708 161.143 208.112 160.941 208.314C153.261 200.634 145.379 191.742 137.295 182.041C136.487 181.03 135.678 180.02 134.87 179.413C135.881 180.02 137.093 180.424 138.306 181.03C148.815 185.678 159.729 191.135 170.036 196.794C169.632 197.4 169.43 197.603 169.227 198.007ZM177.109 181.03C177.109 181.232 177.109 181.232 177.109 181.03C173.674 180.828 171.046 182.041 170.036 184.668C169.834 185.274 169.632 186.083 169.632 187.295C169.632 188.508 170.036 190.731 172.461 192.348C172.259 192.752 172.057 192.954 171.855 193.358C162.558 187.902 152.453 181.434 142.146 174.159C141.135 173.35 139.923 172.744 139.114 172.138C140.125 172.34 141.539 172.744 142.954 172.946C154.272 174.563 166.196 176.988 177.514 180.02C177.312 180.424 177.312 180.828 177.109 181.03ZM180.343 162.841C177.109 163.447 174.684 165.266 174.482 167.893C174.482 168.096 174.482 168.298 174.482 168.702C174.482 171.127 175.695 173.754 178.726 174.765C178.726 175.169 178.524 175.573 178.524 175.978C168.015 173.148 156.697 169.51 144.773 165.064C143.56 164.66 142.348 164.256 141.337 164.054C142.55 164.054 143.763 163.851 145.177 163.851C156.495 162.639 168.823 161.83 180.545 161.83C180.545 162.033 180.343 162.437 180.343 162.841Z" fill="#D1D1D1"/>
<circle cx="109" cy="159" r="77" stroke="url(#paint1_linear)" stroke-width="2"/>
<circle cx="109" cy="159" r="101" stroke="url(#paint2_linear)" stroke-width="2"/>
<g filter="url(#filter1_i)">
<circle cx="109" cy="159" r="50" fill="#AEAEAE"/>
</g>
<g filter="url(#filter2_d)">
<path fill-rule="evenodd" clip-rule="evenodd" d="M83.168 135.786V134H112.692V162.571H83.168V135.786ZM99.7751 139.357H96.0846L88.7037 157.214H92.3942L93.8718 153.643H101.988L103.466 157.214H107.156L99.7751 139.357ZM95.3458 150.071L97.9299 143.821L100.514 150.071H95.3458ZM131.144 159H116.382V155.429H134.835V184H105.311V166.143H109.001V180.429H131.144V159ZM127.96 165.47V162.676H120.929V165.47H122.626V170.785H119.165C118.739 170.402 118.218 170.161 117.601 170.061C118.335 169.829 118.901 169.404 119.298 168.789C119.694 168.173 119.893 167.433 119.893 166.568C119.893 165.304 119.511 164.314 118.747 163.599C117.983 162.867 116.895 162.501 115.485 162.501C114.5 162.501 113.648 162.659 112.928 162.975V166.144C113.721 165.728 114.493 165.52 115.242 165.52C116.271 165.52 116.785 166.019 116.785 167.017C116.785 168.049 116.175 168.564 114.956 168.564H114.272V171.509H115.176C115.97 171.509 116.513 171.667 116.807 171.983C117.116 172.299 117.27 172.723 117.27 173.255C117.27 174.653 116.623 175.351 115.33 175.351C114.375 175.351 113.427 175.068 112.487 174.503V177.747C113.413 178.113 114.412 178.296 115.485 178.296C117.072 178.296 118.262 177.88 119.055 177.048C119.863 176.216 120.267 175.135 120.267 173.804V173.63H122.626V179.418H125.756V165.47H127.96Z" fill="white"/>
</g>
<path d="M57.4 92.2998L52 84.9998L54.4 83.1998C55.2 82.5998 55.9 82.2998 56.5 82.3998C57.1 82.3998 57.7 82.7998 58.2 83.3998C58.5 83.6998 58.6 84.0998 58.6 84.4998C58.6 84.8998 58.5 85.2998 58.3 85.6998C58.8 85.4998 59.2 85.4998 59.7 85.5998C60.2 85.6998 60.5 85.9998 60.9 86.4998C61.4 87.1998 61.5 87.7998 61.4 88.4998C61.3 89.1998 60.8 89.7998 60 90.3998L57.4 92.2998ZM55.3 87.3998L56.8 86.2998C57.2 85.9998 57.5 85.5998 57.6 85.1998C57.7 84.7998 57.6 84.3998 57.3 84.0998C57 83.6998 56.7 83.4998 56.3 83.4998C55.9 83.4998 55.5 83.6998 55 83.9998L53.6 84.9998L55.3 87.3998ZM55.9 88.0998L57.8 90.6998L59.4 89.4998C59.8 89.1998 60.1 88.7998 60.2 88.3998C60.3 87.9998 60.2 87.5998 59.9 87.1998C59.3 86.2998 58.5 86.1998 57.5 86.8998L55.9 88.0998Z" fill="white"/>
<path d="M61.3008 82.3002C61.4008 81.5002 61.8008 80.9002 62.5008 80.5002C63.7008 79.8002 64.7008 80.1002 65.6008 81.4002L67.9008 85.2002L66.9008 85.8002L64.6008 82.0002C64.3008 81.6002 64.1008 81.3002 63.8008 81.3002C63.5008 81.2002 63.1008 81.3002 62.7008 81.5002C62.4008 81.7002 62.2008 82.0002 62.0008 82.3002C61.9008 82.6002 61.8008 83.0002 61.8008 83.3002L64.3008 87.4002L63.3008 88.0002L58.3008 79.8002L59.3008 79.2002L61.3008 82.3002Z" fill="white"/>
<path d="M72.9016 82.6002C72.8016 82.5002 72.6016 82.3002 72.4016 82.0002C72.2016 82.7002 71.7016 83.3002 71.1016 83.6002C70.5016 83.9002 69.9016 84.0002 69.4016 83.8002C68.8016 83.7002 68.4016 83.3002 68.2016 82.8002C67.9016 82.2002 67.9016 81.6002 68.2016 81.0002C68.5016 80.4002 69.1016 79.9002 69.9016 79.5002L70.9016 79.0002L70.7016 78.5002C70.5016 78.1002 70.3016 77.9002 69.9016 77.8002C69.6016 77.7002 69.2016 77.8002 68.8016 78.0002C68.4016 78.2002 68.2016 78.4002 68.0016 78.7002C67.8016 79.0002 67.8016 79.3002 68.0016 79.6002L67.0016 80.1002C66.8016 79.8002 66.8016 79.5002 66.9016 79.1002C67.0016 78.7002 67.1016 78.3002 67.4016 78.0002C67.7016 77.7002 68.0016 77.4002 68.5016 77.1002C69.2016 76.7002 69.8016 76.6002 70.4016 76.8002C71.0016 76.9002 71.4016 77.3002 71.7016 77.9002L73.1016 80.7002C73.4016 81.3002 73.7016 81.7002 74.0016 81.9002V82.0002L72.9016 82.6002ZM70.8016 82.7002C71.1016 82.5002 71.4016 82.3002 71.6016 82.0002C71.8016 81.7002 71.9016 81.4002 71.9016 81.0002L71.3016 79.8002L70.5016 80.2002C69.2016 80.8002 68.8016 81.5002 69.2016 82.3002C69.4016 82.6002 69.6016 82.8002 69.9016 82.9002C70.2016 83.0002 70.4016 82.9002 70.8016 82.7002Z" fill="white"/>
<path d="M78.0003 78.4001C77.9003 78.1001 77.7003 77.9001 77.4003 77.9001C77.1003 77.8001 76.7003 77.9001 76.1003 78.0001C75.5003 78.1001 75.0003 78.2002 74.6003 78.1002C74.2003 78.0002 73.9003 78.0001 73.7003 77.8001C73.5003 77.6001 73.3003 77.4002 73.1003 77.1002C72.9003 76.6002 72.9003 76.1001 73.2003 75.5001C73.5003 74.9001 74.0003 74.6001 74.6003 74.3001C75.3003 74.0001 76.0003 73.9002 76.5003 74.1002C77.1003 74.3002 77.5003 74.7001 77.7003 75.2001L76.6003 75.6002C76.5003 75.3002 76.2003 75.1001 75.9003 75.0001C75.6003 74.9001 75.2003 74.9002 74.8003 75.1002C74.4003 75.3002 74.1003 75.5001 74.0003 75.7001C73.9003 76.0001 73.8003 76.2001 73.9003 76.5001C74.0003 76.8001 74.2003 76.9001 74.4003 77.0001C74.7003 77.0001 75.1003 77.0001 75.7003 76.9001C76.3003 76.8001 76.8003 76.8001 77.2003 76.8001C77.6003 76.8001 77.9003 76.9002 78.2003 77.1002C78.5003 77.3002 78.7003 77.5001 78.8003 77.8001C79.0003 78.4001 79.0003 78.9001 78.7003 79.4001C78.4003 79.9001 77.9003 80.3002 77.2003 80.6002C76.7003 80.8002 76.2003 80.9001 75.8003 80.9001C75.3003 80.9001 74.9003 80.8001 74.6003 80.5001C74.3003 80.2001 74.0003 80.0002 73.8003 79.6002L74.9003 79.2001C75.1003 79.5001 75.3003 79.8001 75.7003 79.9001C76.1003 80.0001 76.4003 80.0001 76.9003 79.8001C77.3003 79.6001 77.6003 79.4002 77.8003 79.1002C78.0003 78.9002 78.1003 78.7001 78.0003 78.4001Z" fill="white"/>
<path d="M79.9992 73.1999C80.2992 72.3999 80.7992 71.8999 81.5992 71.6999C82.9992 71.2999 83.8992 71.7999 84.3992 73.2999L85.7992 77.4999L84.6992 77.8999L83.2992 73.6999C83.0992 73.1999 82.8992 72.8999 82.5992 72.7999C82.2992 72.5999 81.9992 72.5999 81.4992 72.7999C81.0992 72.8999 80.8992 73.0999 80.6992 73.3999C80.4992 73.6999 80.3992 73.9999 80.2992 74.3999L81.7992 78.9999L80.6992 79.3999L77.6992 70.2999L78.7992 69.8999L79.9992 73.1999Z" fill="white"/>
<path d="M85 68.9C85 68.7 85 68.6 85 68.4C85.1 68.2 85.2 68.1 85.4 68.1C85.6 68 85.8 68.1 85.9 68.2C86 68.3 86.1 68.4 86.2 68.6C86.2 68.8 86.2 68.9 86.2 69.1C86.1 69.3 86 69.4 85.8 69.4C85.6 69.5 85.4 69.4 85.3 69.4C85.2 69.2 85.1 69.1 85 68.9ZM88.5 76.8L87.4 77.1L85.6 70.6L86.7 70.3L88.5 76.8Z" fill="white"/>
<path d="M89.6992 69.5999L89.8992 70.3999C90.2992 69.6999 90.8992 69.1998 91.6992 68.9998C93.0992 68.6998 93.9992 69.2999 94.2992 70.8999L95.1992 75.2998L94.0992 75.4998L93.1992 71.0999C93.0992 70.5999 92.8992 70.2999 92.6992 70.0999C92.4992 69.8999 92.0992 69.8998 91.5992 69.9998C91.1992 70.0998 90.8992 70.1998 90.6992 70.4998C90.4992 70.7998 90.2992 71.0999 90.1992 71.3999L91.1992 76.0999L90.0992 76.2998L88.6992 69.6998L89.6992 69.5999Z" fill="white"/>
<path d="M95.3984 66.6999C95.3984 66.4999 95.3984 66.3999 95.4984 66.1999C95.5984 66.0999 95.7984 65.9999 95.9984 65.8999C96.1984 65.8999 96.3984 65.8999 96.4984 65.9999C96.5984 66.0999 96.6985 66.2999 96.6985 66.3999C96.6985 66.5999 96.6984 66.6999 96.5984 66.8999C96.4984 66.9999 96.2984 67.0999 96.0984 67.1999C95.8984 67.1999 95.6984 67.1999 95.5984 67.0999C95.4984 66.9999 95.3984 66.8999 95.3984 66.6999ZM97.8984 74.8999L96.7985 75.0999L95.7985 68.3999L96.8984 68.1999L97.8984 74.8999Z" fill="white"/>
<path d="M102.199 69.5999C102.199 69.1999 102.299 68.8998 102.499 68.6998C102.699 68.4998 102.999 68.2998 103.399 68.2998C103.799 68.2998 104.099 68.3999 104.299 68.5999C104.599 68.7999 104.699 69.0998 104.699 69.4998V69.6998C104.699 70.0998 104.599 70.3999 104.399 70.5999C104.199 70.7999 103.899 70.9998 103.499 70.9998C103.099 70.9998 102.799 70.8998 102.599 70.6998C102.399 70.4998 102.199 70.1998 102.199 69.7998V69.5999Z" fill="white"/>
<path d="M110.899 73.1L115.199 73.2V74.2L109.699 74.1L109.899 65H111.099L110.899 73.1Z" fill="white"/>
<path d="M117.401 74.4001L116.301 74.3L116.801 67.6001L117.901 67.7001L117.401 74.4001ZM116.801 65.8C116.801 65.6 116.901 65.5 117.001 65.3C117.101 65.1 117.301 65.1001 117.501 65.1001C117.701 65.1001 117.901 65.2 118.001 65.3C118.101 65.4 118.201 65.6 118.101 65.8C118.101 66 118.001 66.1 117.901 66.3C117.801 66.4 117.601 66.5001 117.401 66.4001C117.201 66.3001 117.001 66.3001 116.901 66.2001C116.901 66.1001 116.801 66 116.801 65.8Z" fill="white"/>
<path d="M121.2 71.7L120.4 72.4L120.1 74.7L119 74.5L120.3 65L121.4 65.2L120.6 70.9L121.3 70.2L123.7 68.3L125.1 68.5L122.1 70.9L124.5 75.2L123.2 75L121.2 71.7Z" fill="white"/>
<path d="M127.402 69.8C128.002 69.3 128.702 69.1 129.502 69.3C130.902 69.6 131.402 70.5 131.102 72.1L130.202 76.5L129.102 76.3L130.002 71.9C130.102 71.4 130.102 71 129.902 70.8C129.702 70.6 129.402 70.3 129.002 70.2C128.602 70.1 128.302 70.2 128.002 70.3C127.702 70.4 127.402 70.6 127.202 70.9L126.202 75.6L125.102 75.4L127.102 66L128.202 66.2L127.402 69.8Z" fill="white"/>
<path d="M132.201 73.4002C132.401 72.8002 132.701 72.2002 133.101 71.8002C133.501 71.4002 134.001 71.1002 134.501 70.9002C135.001 70.8002 135.601 70.8002 136.101 70.9002C137.001 71.2002 137.601 71.7002 138.001 72.4002C138.401 73.2002 138.401 74.1002 138.101 75.1002V75.2002C137.901 75.8002 137.601 76.4002 137.201 76.8002C136.801 77.2002 136.401 77.5002 135.801 77.7002C135.301 77.8002 134.701 77.8002 134.101 77.7002C133.201 77.4002 132.601 76.9002 132.201 76.2002C132.001 75.4002 131.901 74.5002 132.201 73.4002ZM133.301 73.9002C133.101 74.6002 133.101 75.2002 133.301 75.8002C133.501 76.3002 133.901 76.7002 134.401 76.8002C135.001 77.0002 135.501 76.9002 135.901 76.5002C136.401 76.2002 136.701 75.6002 136.901 74.8002C137.101 74.1002 137.101 73.5002 136.901 72.9002C136.701 72.3002 136.301 72.0002 135.801 71.8002C135.301 71.6002 134.801 71.7002 134.301 72.1002C133.801 72.5002 133.601 73.1002 133.301 73.9002Z" fill="white"/>
<path d="M142.401 80.5001L141.301 80.0001L144.701 71.6001L145.801 72.1001L142.401 80.5001Z" fill="white"/>
<path d="M147.902 75.4999L147.602 76.2999C148.302 75.8999 149.102 75.8999 149.802 76.2999C151.102 76.8999 151.402 77.8999 150.702 79.3999L148.802 83.3999L147.802 82.8999L149.702 78.8999C149.902 78.4999 150.002 78.0999 149.902 77.7999C149.802 77.4999 149.502 77.1999 149.102 76.9999C148.802 76.7999 148.402 76.7999 148.102 76.7999C147.802 76.8999 147.402 76.9999 147.202 77.1999L145.102 81.4999L144.102 80.9999L147.002 74.8999L147.902 75.4999Z" fill="white"/>
<path d="M151.502 80.9999C152.002 80.0999 152.602 79.4999 153.402 79.1999C154.102 78.8999 154.902 78.9999 155.502 79.2999C156.202 79.6999 156.602 80.1999 156.702 80.8999L158.502 77.8999L159.502 78.4999L154.702 86.7999L153.802 86.2999L154.102 85.5999C153.402 85.8999 152.702 85.7999 152.002 85.3999C151.302 84.9999 150.902 84.3999 150.802 83.5999C150.702 82.7999 150.902 81.8999 151.502 80.9999ZM152.402 81.6999C152.002 82.3999 151.902 82.9999 151.902 83.4999C152.002 83.9999 152.202 84.3999 152.702 84.6999C153.302 85.0999 154.002 85.0999 154.602 84.6999L156.202 81.9999C156.202 81.2999 155.902 80.6999 155.302 80.3999C154.802 80.0999 154.302 80.0999 153.802 80.2999C153.302 80.3999 152.802 80.8999 152.402 81.6999Z" fill="white"/>
<path d="M157 88.3002L156 87.7002L159.7 82.1002L160.7 82.7002L157 88.3002ZM160.6 80.5002C160.7 80.3002 160.8 80.2002 161 80.2002C161.2 80.2002 161.3 80.2002 161.5 80.3002C161.7 80.4002 161.8 80.6002 161.8 80.7002C161.8 80.9002 161.8 81.0002 161.7 81.2002C161.6 81.4002 161.5 81.5002 161.3 81.5002C161.1 81.5002 161 81.5002 160.8 81.4002C160.6 81.3002 160.5 81.1002 160.5 81.0002C160.5 80.8002 160.5 80.7002 160.6 80.5002Z" fill="white"/>
<path d="M161.698 91.7001C161.698 91.6001 161.798 91.3001 161.998 91.0001C161.198 91.1001 160.598 91.0001 159.998 90.5001C159.498 90.1001 159.098 89.6001 158.998 89.1001C158.898 88.6001 158.998 88.0001 159.298 87.6001C159.698 87.0001 160.298 86.8001 160.898 86.8001C161.498 86.8001 162.298 87.1001 163.098 87.7001L163.998 88.4001L164.298 88.0001C164.498 87.7001 164.598 87.3001 164.598 87.0001C164.598 86.7001 164.298 86.4001 163.998 86.1001C163.698 85.9001 163.298 85.7001 162.998 85.7001C162.698 85.7001 162.398 85.8001 162.198 86.1001L161.298 85.4001C161.498 85.1001 161.798 84.9001 162.198 84.8001C162.598 84.7001 162.998 84.7001 163.398 84.8001C163.798 84.9001 164.298 85.1001 164.598 85.4001C165.198 85.9001 165.598 86.4001 165.698 87.0001C165.798 87.6001 165.698 88.1001 165.298 88.7001L163.498 91.2001C163.098 91.7001 162.898 92.1001 162.798 92.5001L162.698 92.6001L161.698 91.7001ZM160.698 89.8001C160.998 90.0001 161.298 90.1001 161.698 90.2001C162.098 90.3001 162.398 90.2001 162.698 90.0001L163.498 88.9001L162.798 88.4001C161.698 87.6001 160.898 87.5001 160.398 88.1001C160.198 88.4001 160.098 88.7001 160.198 89.0001C160.198 89.3001 160.398 89.6001 160.698 89.8001Z" fill="white"/>
<path d="M22 193L30.3 189.4L31.5 192.1C31.9 193 32 193.8 31.8 194.4C31.6 195 31.2 195.5 30.4 195.8C30 196 29.6 196 29.2 195.9C28.8 195.8 28.4 195.6 28.1 195.3C28.2 195.8 28.1 196.3 27.8 196.7C27.6 197.1 27.2 197.4 26.7 197.6C26 197.9 25.3 197.9 24.6 197.6C23.9 197.3 23.5 196.7 23.1 195.8L22 193ZM26.4 192.4L23.4 193.7L24.2 195.5C24.4 196 24.7 196.4 25.1 196.5C25.5 196.7 25.9 196.7 26.4 196.5C27.4 196.1 27.7 195.3 27.2 194.2L26.4 192.4ZM27.2 192L27.9 193.7C28.1 194.2 28.4 194.5 28.8 194.7C29.2 194.9 29.6 194.9 30 194.7C30.5 194.5 30.7 194.2 30.8 193.9C30.9 193.5 30.8 193.1 30.6 192.5L29.9 190.9L27.2 192Z" fill="white"/>
<path d="M31.1 198.701C31.9 198.901 32.5 199.3 32.9 200C33.6 201.3 33.2 202.3 31.8 203L27.9 205.101L27.4 204.101L31.3 202C31.7 201.8 32 201.501 32.1 201.201C32.2 200.901 32.1 200.501 31.9 200.101C31.7 199.801 31.5 199.501 31.2 199.401C30.9 199.201 30.6 199.201 30.2 199.201L26 201.5L25.5 200.5L33.9 196L34.4 197L31.1 198.701Z" fill="white"/>
<path d="M31.1009 210.4C31.2009 210.3 31.3009 210.1 31.6009 209.9C30.8009 209.7 30.3009 209.4 29.9009 208.7C29.5009 208.1 29.4009 207.6 29.5009 207C29.6009 206.4 29.9009 206 30.4009 205.7C31.0009 205.3 31.6009 205.3 32.2009 205.5C32.8009 205.7 33.4009 206.3 33.9009 207.1L34.5009 208L34.9009 207.7C35.2009 207.5 35.4009 207.2 35.5009 206.9C35.6009 206.6 35.5009 206.2 35.2009 205.8C35.0009 205.5 34.7009 205.2 34.4009 205.1C34.1009 205 33.8009 205 33.5009 205.2L32.9009 204.2C33.2009 204 33.5009 203.9 33.9009 204C34.3009 204 34.7009 204.2 35.0009 204.4C35.4009 204.6 35.7009 205 36.0009 205.4C36.4009 206.1 36.6009 206.7 36.5009 207.3C36.4009 207.9 36.1009 208.4 35.5009 208.7L32.9009 210.4C32.4009 210.7 32.0009 211.1 31.8009 211.4L31.7009 211.5L31.1009 210.4ZM30.8009 208.3C31.0009 208.6 31.3009 208.8 31.6009 209C31.9009 209.2 32.3009 209.2 32.6009 209.2L33.8009 208.5L33.3009 207.7C32.5009 206.5 31.8009 206.1 31.1009 206.6C30.8009 206.8 30.6009 207 30.6009 207.4C30.5009 207.7 30.6009 208 30.8009 208.3Z" fill="white"/>
<path d="M36.6016 215.001C36.8016 214.801 37.0016 214.601 37.0016 214.301C37.0016 214.001 36.9016 213.601 36.6016 213.101C36.4016 212.601 36.2016 212.101 36.1016 211.701C36.0016 211.301 36.0016 211.001 36.1016 210.701C36.2016 210.401 36.4016 210.201 36.6016 210.001C37.0016 209.701 37.6016 209.601 38.1016 209.701C38.6016 209.801 39.2016 210.201 39.6016 210.801C40.1016 211.401 40.3016 212.001 40.2016 212.601C40.2016 213.201 39.9016 213.701 39.4016 214.101L38.7016 213.201C39.0016 213.001 39.1016 212.701 39.1016 212.401C39.1016 212.001 39.0016 211.701 38.8016 211.401C38.5016 211.101 38.3016 210.901 38.0016 210.801C37.7016 210.701 37.4016 210.801 37.2016 210.901C37.0016 211.101 36.9016 211.301 36.9016 211.501C36.9016 211.801 37.0016 212.201 37.3016 212.701C37.5016 213.201 37.7016 213.701 37.8016 214.101C37.9016 214.501 37.9016 214.801 37.8016 215.101C37.7016 215.401 37.5016 215.601 37.2016 215.901C36.7016 216.301 36.2016 216.401 35.6016 216.201C35.0016 216.001 34.5016 215.601 34.0016 215.001C33.7016 214.601 33.5016 214.101 33.4016 213.701C33.3016 213.301 33.3016 212.801 33.5016 212.401C33.6016 212.001 33.9016 211.701 34.2016 211.501L34.9016 212.401C34.6016 212.601 34.5016 213.001 34.4016 213.301C34.4016 213.701 34.5016 214.001 34.8016 214.401C35.1016 214.701 35.3016 215.001 35.6016 215.101C36.1016 215.301 36.4016 215.201 36.6016 215.001Z" fill="white"/>
<path d="M42.3 215.401C43.1 215.401 43.8 215.701 44.3 216.301C45.2 217.401 45.1 218.401 43.9 219.501L40.5 222.401L39.7 221.501L43.1 218.601C43.5 218.301 43.7 218.001 43.7 217.601C43.7 217.301 43.6 217.001 43.3 216.601C43.1 216.301 42.8 216.101 42.4 216.101C42 216.101 41.7 216.001 41.4 216.101L37.8 219.301L37 218.401L44.2 212.101L45 213.001L42.3 215.401Z" fill="white"/>
<path d="M44.9 226.901C44.9 226.801 45.1 226.601 45.3 226.301C44.5 226.301 43.9 226.101 43.3 225.601C42.8 225.101 42.6 224.601 42.5 224.101C42.5 223.501 42.6 223.001 43 222.601C43.5 222.101 44.1 221.901 44.7 222.001C45.4 222.101 46 222.501 46.7 223.201L47.5 224.001L47.9 223.601C48.2 223.301 48.3 223.001 48.3 222.701C48.3 222.401 48.1 222.001 47.8 221.701C47.5 221.401 47.2 221.201 46.8 221.201C46.5 221.201 46.2 221.201 46 221.401L45.2 220.601C45.4 220.401 45.7 220.201 46.1 220.201C46.5 220.101 46.9 220.201 47.3 220.301C47.7 220.501 48.1 220.701 48.5 221.001C49.1 221.501 49.4 222.101 49.4 222.701C49.4 223.301 49.2 223.801 48.8 224.301L46.6 226.501C46.2 226.901 45.9 227.301 45.7 227.701L45.6 227.801L44.9 226.901ZM44.2 224.901C44.5 225.201 44.8 225.301 45.1 225.401C45.4 225.501 45.8 225.501 46.1 225.401L47.1 224.401L46.5 223.801C45.5 222.801 44.7 222.601 44.1 223.201C43.8 223.501 43.7 223.701 43.8 224.101C43.8 224.401 43.9 224.601 44.2 224.901Z" fill="white"/>
<path d="M54.5 229.7C53.9 228.8 53.5 228.1 53.4 227.5C53.3 226.9 53.4 226.3 53.8 225.8C54.2 225.2 54.8 224.9 55.6 224.9C56.3 224.9 57.1 225.1 57.8 225.7C58.3 226.1 58.7 226.5 58.9 227C59.1 227.5 59.2 228 59.2 228.5C59.2 229 59 229.4 58.7 229.8L57.7 229.1C58 228.7 58.2 228.2 58.1 227.8C58 227.3 57.7 226.9 57.2 226.5C56.7 226.1 56.3 226 55.9 226C55.5 226 55.1 226.2 54.8 226.6C54.6 226.9 54.5 227.2 54.6 227.6C54.7 228 55 228.5 55.4 229.1C55.9 229.7 56.2 230.3 56.4 230.7C56.6 231.2 56.6 231.6 56.6 232C56.6 232.4 56.4 232.8 56.1 233.1C55.7 233.7 55.1 234 54.3 234C53.6 234 52.8 233.7 52.1 233.1C51.6 232.7 51.2 232.3 50.9 231.8C50.6 231.3 50.5 230.8 50.5 230.3C50.5 229.8 50.7 229.3 51 228.9L52 229.6C51.7 230 51.6 230.5 51.7 231C51.8 231.5 52.2 232 52.7 232.4C53.2 232.8 53.7 233 54.1 233C54.5 233 54.9 232.8 55.1 232.5C55.4 232.1 55.5 231.8 55.4 231.4C55.3 231 55 230.4 54.5 229.7Z" fill="white"/>
<path d="M59.6017 238.201C59.6017 238.101 59.7017 237.801 59.9017 237.501C59.1017 237.701 58.5017 237.601 57.8017 237.201C57.2017 236.801 56.9017 236.401 56.7017 235.801C56.5017 235.201 56.6017 234.701 56.9017 234.301C57.3017 233.701 57.8017 233.401 58.5017 233.401C59.2017 233.401 59.9017 233.601 60.7017 234.101L61.6017 234.701L61.9017 234.301C62.1017 234.001 62.2017 233.601 62.1017 233.301C62.0017 233.001 61.8017 232.701 61.4017 232.401C61.1017 232.201 60.7017 232.101 60.4017 232.101C60.1017 232.101 59.8017 232.301 59.6017 232.501L58.6017 231.901C58.8017 231.601 59.1017 231.401 59.4017 231.301C59.8017 231.201 60.2017 231.101 60.6017 231.201C61.0017 231.301 61.5017 231.401 61.9017 231.701C62.6017 232.101 63.0017 232.601 63.1017 233.201C63.3017 233.801 63.2017 234.301 62.8017 234.901L61.1017 237.501C60.8017 238.001 60.6017 238.501 60.5017 238.901L60.4017 239.001L59.6017 238.201ZM58.5017 236.501C58.8017 236.701 59.1017 236.801 59.5017 236.801C59.9017 236.801 60.2017 236.701 60.5017 236.601L61.3017 235.401L60.5017 234.901C59.3017 234.101 58.5017 234.101 58.0017 234.801C57.8017 235.101 57.7017 235.401 57.8017 235.701C58.0017 236.001 58.2017 236.201 58.5017 236.501Z" fill="white"/>
<path d="M66.3984 234.5L66.0984 235.2C66.7984 234.9 67.4984 235 68.2984 235.3C69.0984 235.7 69.4984 236.3 69.4984 237.1C69.7984 236.9 70.1984 236.8 70.5984 236.8C70.9984 236.8 71.3984 236.9 71.8984 237.1C73.1984 237.8 73.4984 238.8 72.7984 240.2L70.6985 244.2L69.6985 243.7L71.6985 239.7C71.8985 239.3 71.9984 238.9 71.8984 238.6C71.7984 238.3 71.4984 238 71.0984 237.8C70.6985 237.6 70.2984 237.6 69.9984 237.7C69.5984 237.8 69.2984 238 69.0984 238.4L67.0984 242.4L66.0984 241.9L68.0984 238C68.4984 237.1 68.2984 236.5 67.4984 236C66.7984 235.7 66.1985 235.7 65.6985 236.1L63.3984 240.5L62.3984 240L65.4984 234L66.3984 234.5Z" fill="white"/>
<path d="M76.6019 246.6C76.6019 246.5 76.6019 246.2 76.7019 245.9C76.0019 246.2 75.3019 246.2 74.6019 246C74.0019 245.8 73.5019 245.4 73.3019 244.9C73.0019 244.4 73.0019 243.9 73.2019 243.3C73.5019 242.6 73.9019 242.2 74.5019 242.1C75.1019 241.9 75.9019 242 76.8019 242.4L77.8019 242.8L78.0019 242.3C78.1019 241.9 78.2019 241.6 78.0019 241.3C77.9019 241 77.6019 240.7 77.1019 240.6C76.7019 240.5 76.4019 240.4 76.0019 240.5C75.7019 240.6 75.4019 240.8 75.3019 241L74.2019 240.6C74.3019 240.3 74.6019 240 74.9019 239.8C75.2019 239.6 75.6019 239.5 76.1019 239.5C76.5019 239.5 77.0019 239.6 77.5019 239.7C78.2019 240 78.7019 240.4 79.0019 240.9C79.3019 241.4 79.3019 242 79.1019 242.6L78.0019 245.5C77.8019 246.1 77.7019 246.6 77.7019 247V247.1L76.6019 246.6ZM75.2019 245.1C75.5019 245.2 75.9019 245.3 76.3019 245.2C76.7019 245.1 77.0019 245 77.2019 244.8L77.7019 243.5L76.9019 243.2C75.6019 242.7 74.8019 242.8 74.5019 243.6C74.4019 243.9 74.4019 244.2 74.5019 244.5C74.6019 244.8 74.8019 245 75.2019 245.1Z" fill="white"/>
<path d="M84.4 243.201C84.2 243.101 84.1 243.001 83.9 243.001C83.2 242.801 82.6 242.901 82.1 243.501L80.6 248.101L79.5 247.701L81.6 241.301L82.7 241.601L82.5 242.301C83 241.801 83.6 241.701 84.3 241.901C84.5 242.001 84.7 242.001 84.8 242.101L84.4 243.201Z" fill="white"/>
<path d="M87.8016 241.401L87.4016 243.001L88.6016 243.301L88.4016 244.201L87.2016 243.901L86.1016 247.901C86.0016 248.201 86.0016 248.401 86.1016 248.501C86.2016 248.701 86.3016 248.801 86.6016 248.801C86.7016 248.801 86.9016 248.901 87.1016 248.901L86.9016 249.801C86.6016 249.801 86.3016 249.801 86.0016 249.701C85.5016 249.601 85.2016 249.301 85.0016 249.001C84.8016 248.601 84.8016 248.201 85.0016 247.601L86.1016 243.601L84.9016 243.301L85.1016 242.401L86.3016 242.701L86.7016 241.101L87.8016 241.401Z" fill="white"/>
<path d="M90.8015 244.6C91.4015 244.1 92.1016 243.9 92.9016 244.1C94.3016 244.4 94.8016 245.3 94.5016 246.9L93.6016 251.3L92.5016 251.1L93.4016 246.7C93.5016 246.2 93.5015 245.8 93.3015 245.6C93.1015 245.3 92.8016 245.1 92.4016 245.1C92.0016 245 91.7016 245.1 91.4016 245.2C91.1016 245.3 90.8016 245.6 90.6016 245.8L89.7016 250.5L88.6016 250.3L90.5016 240.9L91.6016 241.1L90.8015 244.6Z" fill="white"/>
<path d="M99.8992 252C99.7992 251.9 99.7992 251.6 99.7992 251.3C99.1992 251.8 98.4992 252 97.7992 251.9C97.0992 251.8 96.5992 251.6 96.1992 251.1C95.7992 250.6 95.6992 250.2 95.6992 249.6C95.7992 248.9 96.0992 248.4 96.6992 248.1C97.2992 247.8 97.9992 247.7 98.9992 247.8L100.099 247.9L100.199 247.4C100.199 247 100.199 246.7 99.9992 246.4C99.7992 246.1 99.3992 246 98.9992 245.9C98.5992 245.9 98.1992 245.9 97.8992 246.1C97.5992 246.3 97.3992 246.5 97.3992 246.8L96.1992 246.7C96.1992 246.4 96.3992 246.1 96.6992 245.8C96.9992 245.5 97.2992 245.3 97.7992 245.2C98.1992 245.1 98.6992 245 99.1992 245.1C99.9992 245.2 100.599 245.5 100.899 245.9C101.299 246.3 101.499 246.9 101.399 247.6L100.999 250.7C100.899 251.3 100.899 251.8 101.099 252.2V252.3L99.8992 252ZM98.0992 250.9C98.4992 250.9 98.7992 250.9 99.1992 250.7C99.4992 250.6 99.7992 250.3 99.9992 250.1L100.199 248.7L99.2992 248.6C97.8992 248.4 97.0992 248.8 97.0992 249.6C97.0992 250 97.0992 250.3 97.3992 250.5C97.3992 250.8 97.6992 250.9 98.0992 250.9Z" fill="white"/>
<path d="M104.998 249.301L104.198 250.001L104.098 252.401H102.898L103.298 242.801H104.498L104.298 248.601L104.898 247.901L107.098 245.801L108.498 245.901L105.798 248.601L108.598 252.601L107.198 252.501L104.998 249.301Z" fill="white"/>
<path d="M112.801 247.601C112.801 247.201 112.901 246.901 113.101 246.701C113.301 246.501 113.601 246.301 114.001 246.301C114.401 246.301 114.701 246.401 114.901 246.601C115.101 246.801 115.301 247.101 115.301 247.501V247.701C115.301 248.101 115.201 248.401 115.001 248.601C114.801 248.801 114.501 249.001 114.101 249.001C113.701 249.001 113.401 248.901 113.201 248.701C113.001 248.501 112.801 248.201 112.801 247.801V247.601Z" fill="white"/>
<path d="M123.098 247.4C121.998 247.3 121.198 247 120.698 246.7C120.198 246.3 119.898 245.9 119.798 245.2C119.698 244.5 119.898 243.9 120.398 243.3C120.898 242.8 121.598 242.4 122.498 242.3C123.098 242.2 123.698 242.2 124.198 242.4C124.698 242.6 125.098 242.8 125.498 243.2C125.898 243.6 125.998 244 126.098 244.5L124.898 244.7C124.798 244.2 124.598 243.8 124.198 243.5C123.798 243.2 123.298 243.2 122.698 243.3C122.098 243.4 121.698 243.6 121.398 243.9C121.098 244.2 120.998 244.6 121.098 245C121.198 245.4 121.398 245.7 121.698 245.9C121.998 246.1 122.598 246.3 123.398 246.3C124.198 246.4 124.798 246.5 125.298 246.7C125.798 246.9 126.098 247.1 126.398 247.4C126.698 247.7 126.798 248.1 126.898 248.5C126.998 249.2 126.798 249.9 126.298 250.4C125.798 250.9 125.098 251.3 124.098 251.4C123.498 251.5 122.898 251.5 122.298 251.3C121.698 251.1 121.298 250.9 120.898 250.5C120.498 250.1 120.298 249.7 120.198 249.2L121.398 249C121.498 249.5 121.798 249.9 122.198 250.2C122.598 250.5 123.198 250.5 123.898 250.4C124.498 250.3 124.998 250.1 125.298 249.8C125.598 249.5 125.698 249.1 125.598 248.7C125.498 248.3 125.298 247.9 124.998 247.8C124.698 247.7 123.998 247.5 123.098 247.4Z" fill="white"/>
<path d="M126.898 242.2C126.898 242 126.898 241.9 126.998 241.7C127.098 241.6 127.198 241.5 127.498 241.4C127.698 241.4 127.898 241.4 127.998 241.5C128.098 241.6 128.198 241.7 128.298 241.9C128.298 242.1 128.298 242.2 128.198 242.4C128.098 242.6 127.998 242.6 127.698 242.7C127.498 242.7 127.298 242.7 127.198 242.6C127.098 242.5 126.898 242.4 126.898 242.2ZM129.898 250.2L128.798 250.4L127.398 243.8L128.498 243.6L129.898 250.2Z" fill="white"/>
<path d="M133.102 249.5L132.002 249.8L129.602 240.5L130.702 240.2L133.102 249.5Z" fill="white"/>
<path d="M136.7 246.801L136.8 241.401L137.9 241.101L137.6 248.301L136.8 248.601L132.5 242.901L133.6 242.601L136.7 246.801Z" fill="white"/>
<path d="M143.801 246.1C142.901 246.4 142.101 246.4 141.401 246.1C140.601 245.8 140.101 245.1 139.701 244.2L139.601 244C139.401 243.4 139.301 242.8 139.301 242.2C139.301 241.6 139.501 241.1 139.801 240.7C140.101 240.3 140.501 239.9 141.001 239.7C141.801 239.4 142.601 239.4 143.201 239.8C143.801 240.2 144.401 240.8 144.801 241.8L145.001 242.2L140.701 243.9C141.001 244.5 141.301 244.9 141.801 245.2C142.301 245.4 142.801 245.5 143.301 245.3C143.701 245.2 144.001 244.9 144.201 244.7C144.401 244.5 144.601 244.1 144.601 243.8L145.501 244.1C145.501 245 144.901 245.7 143.801 246.1ZM141.501 240.5C141.101 240.7 140.801 241 140.601 241.4C140.401 241.8 140.401 242.3 140.601 242.9L143.701 241.7V241.6C143.501 241.1 143.101 240.7 142.801 240.5C142.401 240.3 141.901 240.3 141.501 240.5Z" fill="white"/>
<path d="M148.3 237.801C148.1 237.801 148 237.901 147.8 238.001C147.1 238.301 146.8 238.801 146.8 239.501L148.8 243.801L147.8 244.301L145 238.201L146 237.701L146.3 238.401C146.4 237.701 146.7 237.201 147.4 236.901C147.6 236.801 147.8 236.801 147.9 236.801L148.3 237.801Z" fill="white"/>
<path d="M159.201 234.801C159.601 235.701 159.701 236.501 159.401 237.201C159.201 238.001 158.601 238.601 157.801 239.101C156.901 239.701 155.901 239.801 155.001 239.401C154.101 239.001 153.201 238.401 152.601 237.301L152.201 236.601C151.801 235.901 151.501 235.201 151.401 234.501C151.301 233.801 151.401 233.201 151.701 232.601C152.001 232.001 152.501 231.501 153.101 231.201C153.901 230.701 154.701 230.501 155.501 230.701C156.301 230.901 156.901 231.301 157.501 232.101L156.501 232.701C156.001 232.101 155.601 231.801 155.101 231.701C154.601 231.601 154.101 231.701 153.601 232.001C152.901 232.401 152.601 232.901 152.501 233.701C152.401 234.501 152.601 235.201 153.201 236.101L153.701 236.901C154.201 237.701 154.801 238.301 155.401 238.601C156.101 238.901 156.701 238.801 157.301 238.501C157.901 238.201 158.201 237.801 158.401 237.301C158.501 236.901 158.501 236.301 158.201 235.601L159.201 234.801Z" fill="white"/>
<path d="M160.001 233.601C159.601 233.101 159.401 232.5 159.301 231.9C159.201 231.3 159.301 230.8 159.501 230.3C159.701 229.8 160.001 229.4 160.501 229C161.201 228.5 162.001 228.3 162.901 228.5C163.801 228.7 164.501 229.2 165.101 230V230.101C165.501 230.601 165.701 231.2 165.801 231.7C165.901 232.2 165.901 232.8 165.601 233.3C165.401 233.8 165.001 234.201 164.601 234.601C163.901 235.101 163.101 235.301 162.201 235.101C161.301 235.101 160.601 234.501 160.001 233.601ZM161.001 233.101C161.401 233.701 161.901 234.1 162.501 234.2C163.001 234.4 163.601 234.3 164.001 233.9C164.501 233.6 164.701 233.1 164.701 232.5C164.701 231.9 164.501 231.301 164.001 230.601C163.601 230.001 163.101 229.6 162.501 229.5C161.901 229.3 161.401 229.4 161.001 229.8C160.501 230.1 160.301 230.6 160.301 231.2C160.301 231.8 160.501 232.401 161.001 233.101Z" fill="white"/>
<path d="M164.801 225.8L165.401 226.4C165.401 225.6 165.701 224.9 166.301 224.3C167.401 223.4 168.401 223.5 169.501 224.7L172.401 228.1L171.501 228.9L168.601 225.5C168.301 225.1 168.001 224.9 167.601 224.9C167.301 224.9 167.001 225 166.601 225.3C166.301 225.5 166.101 225.8 166.001 226.2C165.901 226.5 165.901 226.9 166.001 227.2L169.101 230.8L168.201 231.6L163.801 226.5L164.801 225.8Z" fill="white"/>
<path d="M169.099 219.7L170.199 220.9L171.099 220L171.699 220.6L170.799 221.5L173.699 224.5C173.899 224.7 174.099 224.8 174.199 224.8C174.299 224.8 174.599 224.7 174.799 224.5C174.899 224.4 174.999 224.3 175.099 224.1L175.699 224.8C175.499 225.1 175.399 225.3 175.199 225.5C174.799 225.9 174.399 226 173.999 226C173.599 226 173.199 225.7 172.799 225.3L169.899 222.3L168.999 223.2L168.399 222.6L169.299 221.7L168.199 220.5L169.099 219.7Z" fill="white"/>
<path d="M175.002 217.5C174.902 217.6 174.702 217.7 174.602 217.9C174.102 218.5 174.002 219 174.302 219.7L177.802 223L177.002 223.8L172.102 219.2L172.902 218.4L173.502 218.9C173.302 218.2 173.502 217.6 173.902 217.1C174.102 216.9 174.202 216.8 174.302 216.8L175.002 217.5Z" fill="white"/>
<path d="M173.501 214.801C173.401 214.701 173.301 214.501 173.301 214.401C173.301 214.201 173.301 214.101 173.501 213.901C173.601 213.701 173.801 213.601 174.001 213.601C174.201 213.601 174.301 213.701 174.501 213.801C174.601 213.901 174.701 214.101 174.701 214.201C174.701 214.301 174.701 214.501 174.501 214.701C174.301 214.901 174.201 215.001 174.001 215.001C173.801 215.001 173.701 215.001 173.501 214.801ZM180.801 219.501L180.001 220.401L174.901 216.001L175.701 215.101L180.801 219.501Z" fill="white"/>
<path d="M183.002 211.3C183.802 211.9 184.302 212.6 184.502 213.4C184.702 214.2 184.602 214.9 184.102 215.5C183.602 216.2 182.902 216.5 182.202 216.5L182.802 217L182.202 217.8L174.602 212L175.302 211.1L178.102 213.3C177.902 212.6 178.102 211.9 178.602 211.2C179.102 210.6 179.702 210.2 180.502 210.2C181.302 210.3 182.102 210.6 183.002 211.3ZM182.202 212.2C181.602 211.7 181.002 211.5 180.502 211.5C180.002 211.5 179.502 211.7 179.202 212.1C178.702 212.7 178.702 213.4 179.002 214L181.302 215.8C182.102 215.9 182.702 215.7 183.102 215.1C183.402 214.7 183.502 214.2 183.402 213.7C183.302 213.2 182.902 212.7 182.202 212.2Z" fill="white"/>
<path d="M188.4 208C188.6 208.7 188.5 209.4 188 210.1C187.6 210.7 187.1 211 186.6 211.1C186.1 211.2 185.4 211 184.7 210.6L181 208.2L181.6 207.2L185.3 209.6C186.2 210.2 186.8 210.1 187.3 209.4C187.8 208.7 187.8 208 187.4 207.4L183.3 204.7L183.9 203.7L189.6 207.4L189 208.3L188.4 208Z" fill="white"/>
<path d="M184 200.2L185.4 201L186 199.9L186.8 200.3L186.2 201.4L189.8 203.4C190 203.5 190.2 203.6 190.4 203.6C190.6 203.6 190.7 203.4 190.9 203.2C191 203.1 191 202.9 191.1 202.7L191.9 203.2C191.8 203.5 191.7 203.8 191.6 204C191.3 204.4 191 204.7 190.6 204.8C190.2 204.9 189.8 204.8 189.3 204.5L185.7 202.5L185.1 203.6L184.3 203.2L184.9 202.1L183.5 201.3L184 200.2Z" fill="white"/>
<path d="M189.498 200.6C188.898 200.3 188.398 199.9 188.098 199.5C187.698 199 187.498 198.5 187.498 198C187.398 197.5 187.498 196.9 187.798 196.4C188.198 195.6 188.798 195 189.598 194.8C190.398 194.6 191.298 194.7 192.298 195.1H192.398C192.998 195.4 193.498 195.8 193.798 196.2C194.198 196.7 194.398 197.2 194.398 197.7C194.498 198.2 194.398 198.8 194.098 199.3C193.698 200.1 193.098 200.7 192.298 200.9C191.298 201.2 190.498 201.1 189.498 200.6ZM190.098 199.7C190.798 200 191.398 200.1 191.898 200C192.398 199.9 192.898 199.6 193.098 199C193.398 198.5 193.298 198 193.098 197.4C192.798 196.9 192.298 196.5 191.598 196.1C190.898 195.8 190.298 195.7 189.798 195.8C189.198 195.9 188.798 196.2 188.598 196.8C188.398 197.3 188.398 197.8 188.598 198.3C188.798 198.9 189.298 199.3 190.098 199.7Z" fill="white"/>
<path d="M191.8 189.801C191.7 190.001 191.6 190.101 191.5 190.301C191.2 191.001 191.3 191.601 191.8 192.101L196.2 193.901L195.8 195.001L189.5 192.501L189.9 191.501L190.6 191.801C190.2 191.201 190.1 190.601 190.4 190.001C190.5 189.801 190.6 189.601 190.7 189.601L191.8 189.801Z" fill="white"/>
<defs>
<filter id="filter0_ii" x="0" y="50" width="218" height="218" filterUnits="userSpaceOnUse" color-interpolation-filters="sRGB">
<feFlood flood-opacity="0" result="BackgroundImageFix"/>
<feBlend mode="normal" in="SourceGraphic" in2="BackgroundImageFix" result="shape"/>
<feColorMatrix in="SourceAlpha" type="matrix" values="0 0 0 0 0 0 0 0 0 0 0 0 0 0 0 0 0 0 127 0" result="hardAlpha"/>
<feOffset/>
<feGaussianBlur stdDeviation="4"/>
<feComposite in2="hardAlpha" operator="arithmetic" k2="-1" k3="1"/>
<feColorMatrix type="matrix" values="0 0 0 0 0.9875 0 0 0 0 0.722843 0 0 0 0 0.386771 0 0 0 1 0"/>
<feBlend mode="normal" in2="shape" result="effect1_innerShadow"/>
<feColorMatrix in="SourceAlpha" type="matrix" values="0 0 0 0 0 0 0 0 0 0 0 0 0 0 0 0 0 0 127 0" result="hardAlpha"/>
<feOffset/>
<feGaussianBlur stdDeviation="6"/>
<feComposite in2="hardAlpha" operator="arithmetic" k2="-1" k3="1"/>
<feColorMatrix type="matrix" values="0 0 0 0 0 0 0 0 0 0 0 0 0 0 0 0 0 0 0.2 0"/>
<feBlend mode="normal" in2="effect1_innerShadow" result="effect2_innerShadow"/>
</filter>
<filter id="filter1_i" x="59" y="109" width="100" height="100" filterUnits="userSpaceOnUse" color-interpolation-filters="sRGB">
<feFlood flood-opacity="0" result="BackgroundImageFix"/>
<feBlend mode="normal" in="SourceGraphic" in2="BackgroundImageFix" result="shape"/>
<feColorMatrix in="SourceAlpha" type="matrix" values="0 0 0 0 0 0 0 0 0 0 0 0 0 0 0 0 0 0 127 0" result="hardAlpha"/>
<feOffset/>
<feGaussianBlur stdDeviation="6"/>
<feComposite in2="hardAlpha" operator="arithmetic" k2="-1" k3="1"/>
<feColorMatrix type="matrix" values="0 0 0 0 0.34902 0 0 0 0 0.360784 0 0 0 0 0.364706 0 0 0 1 0"/>
<feBlend mode="normal" in2="shape" result="effect1_innerShadow"/>
</filter>
<filter id="filter2_d" x="82.168" y="133" width="53.6667" height="52" filterUnits="userSpaceOnUse" color-interpolation-filters="sRGB">
<feFlood flood-opacity="0" result="BackgroundImageFix"/>
<feColorMatrix in="SourceAlpha" type="matrix" values="0 0 0 0 0 0 0 0 0 0 0 0 0 0 0 0 0 0 127 0"/>
<feOffset/>
<feGaussianBlur stdDeviation="0.5"/>
<feColorMatrix type="matrix" values="0 0 0 0 0.320833 0 0 0 0 0.320833 0 0 0 0 0.320833 0 0 0 0.25 0"/>
<feBlend mode="normal" in2="BackgroundImageFix" result="effect1_dropShadow"/>
<feBlend mode="normal" in="SourceGraphic" in2="effect1_dropShadow" result="shape"/>
</filter>
<linearGradient id="paint0_linear" x1="51.775" y1="57.4938" x2="322.848" y2="328.729" gradientUnits="userSpaceOnUse">
<stop stop-color="white"/>
<stop offset="1" stop-color="#969696" stop-opacity="0"/>
</linearGradient>
<linearGradient id="paint1_linear" x1="174.52" y1="213.6" x2="38.8" y2="107.52" gradientUnits="userSpaceOnUse">
<stop stop-color="white"/>
<stop offset="1" stop-color="#383838" stop-opacity="0"/>
</linearGradient>
<linearGradient id="paint2_linear" x1="194.68" y1="230.4" x2="17.2" y2="91.68" gradientUnits="userSpaceOnUse">
<stop stop-color="white"/>
<stop offset="1" stop-color="#383838" stop-opacity="0"/>
</linearGradient>
</defs>
</svg>
