<svg width="100" height="100" viewBox="0 0 100 100" fill="none" xmlns="http://www.w3.org/2000/svg">
<circle cx="50" cy="50" r="50" fill="#C4C4C4"/>
<path d="M33.4229 45H31.3721V35.0469H33.4229V45ZM37.0527 37.6035L37.1143 38.4307C37.6383 37.7881 38.347 37.4668 39.2402 37.4668C40.1927 37.4668 40.8467 37.8428 41.2021 38.5947C41.7217 37.8428 42.4622 37.4668 43.4238 37.4668C44.2259 37.4668 44.8229 37.7015 45.2148 38.1709C45.6068 38.6357 45.8027 39.3376 45.8027 40.2764V45H43.8203V40.2832C43.8203 39.8639 43.7383 39.5586 43.5742 39.3672C43.4102 39.1712 43.1208 39.0732 42.7061 39.0732C42.1136 39.0732 41.7035 39.3558 41.4756 39.9209L41.4824 45H39.5068V40.29C39.5068 39.8617 39.4225 39.5518 39.2539 39.3604C39.0853 39.1689 38.7982 39.0732 38.3926 39.0732C37.832 39.0732 37.4264 39.3057 37.1758 39.7705V45H35.2002V37.6035H37.0527ZM51.6133 45C51.5221 44.8223 51.4561 44.6012 51.415 44.3369C50.9365 44.8701 50.3145 45.1367 49.5488 45.1367C48.8242 45.1367 48.2227 44.9271 47.7441 44.5078C47.2702 44.0885 47.0332 43.5599 47.0332 42.9219C47.0332 42.138 47.3226 41.5365 47.9014 41.1172C48.4847 40.6979 49.3255 40.486 50.4238 40.4814H51.333V40.0576C51.333 39.7158 51.2441 39.4424 51.0664 39.2373C50.8932 39.0322 50.6175 38.9297 50.2393 38.9297C49.9066 38.9297 49.6445 39.0094 49.4531 39.1689C49.2663 39.3285 49.1729 39.5472 49.1729 39.8252H47.1973C47.1973 39.3968 47.3294 39.0003 47.5938 38.6357C47.8581 38.2712 48.2318 37.9863 48.7148 37.7812C49.1979 37.5716 49.7402 37.4668 50.3418 37.4668C51.2533 37.4668 51.9756 37.6969 52.5088 38.1572C53.0465 38.613 53.3154 39.2555 53.3154 40.085V43.291C53.32 43.9928 53.418 44.5238 53.6094 44.8838V45H51.6133ZM49.9795 43.626C50.2712 43.626 50.54 43.5622 50.7861 43.4346C51.0322 43.3024 51.2145 43.127 51.333 42.9082V41.6367H50.5947C49.6058 41.6367 49.0794 41.9785 49.0156 42.6621L49.0088 42.7783C49.0088 43.0244 49.0954 43.2272 49.2686 43.3867C49.4417 43.5462 49.6787 43.626 49.9795 43.626ZM54.5459 41.2471C54.5459 40.1123 54.8148 39.1986 55.3525 38.5059C55.8949 37.8132 56.624 37.4668 57.54 37.4668C58.3512 37.4668 58.9824 37.7448 59.4336 38.3008L59.5156 37.6035H61.3066V44.7539C61.3066 45.401 61.1585 45.9639 60.8623 46.4424C60.5706 46.9209 60.1582 47.2855 59.625 47.5361C59.0918 47.7868 58.4674 47.9121 57.752 47.9121C57.2096 47.9121 56.681 47.8027 56.166 47.584C55.651 47.3698 55.2614 47.0918 54.9971 46.75L55.8721 45.5469C56.3643 46.0983 56.9613 46.374 57.6631 46.374C58.1872 46.374 58.5951 46.2327 58.8867 45.9502C59.1784 45.6722 59.3242 45.2757 59.3242 44.7607V44.3643C58.8685 44.8792 58.2692 45.1367 57.5264 45.1367C56.6377 45.1367 55.9176 44.7904 55.3662 44.0977C54.8193 43.4004 54.5459 42.4775 54.5459 41.3291V41.2471ZM56.5215 41.3906C56.5215 42.0605 56.6559 42.5869 56.9248 42.9697C57.1937 43.348 57.5628 43.5371 58.0322 43.5371C58.6338 43.5371 59.0645 43.3115 59.3242 42.8604V39.75C59.0599 39.2988 58.6338 39.0732 58.0459 39.0732C57.5719 39.0732 57.1982 39.2669 56.9248 39.6543C56.6559 40.0417 56.5215 40.6204 56.5215 41.3906ZM66.2354 45.1367C65.1507 45.1367 64.2666 44.804 63.583 44.1387C62.904 43.4733 62.5645 42.5869 62.5645 41.4795V41.2881C62.5645 40.5452 62.708 39.8822 62.9951 39.2988C63.2822 38.7109 63.6878 38.2598 64.2119 37.9453C64.7406 37.6263 65.3421 37.4668 66.0166 37.4668C67.0283 37.4668 67.8236 37.7858 68.4023 38.4238C68.9857 39.0618 69.2773 39.9665 69.2773 41.1377V41.9443H64.5674C64.6312 42.4274 64.8226 42.8148 65.1416 43.1064C65.4652 43.3981 65.873 43.5439 66.3652 43.5439C67.1263 43.5439 67.721 43.2682 68.1494 42.7168L69.1201 43.8037C68.8239 44.223 68.4229 44.5511 67.917 44.7881C67.4111 45.0205 66.8506 45.1367 66.2354 45.1367ZM66.0098 39.0664C65.6178 39.0664 65.2988 39.1986 65.0527 39.4629C64.8112 39.7272 64.6562 40.1055 64.5879 40.5977H67.3359V40.4404C67.3268 40.0029 67.2083 39.6657 66.9805 39.4287C66.7526 39.1872 66.429 39.0664 66.0098 39.0664ZM15.3486 57.4932V61H13.2979V51.0469H17.1807C17.9281 51.0469 18.5843 51.1836 19.1494 51.457C19.7191 51.7305 20.1566 52.1201 20.4619 52.626C20.7673 53.1273 20.9199 53.6992 20.9199 54.3418C20.9199 55.3171 20.585 56.0872 19.915 56.6523C19.2497 57.2129 18.3268 57.4932 17.1465 57.4932H15.3486ZM15.3486 55.832H17.1807C17.723 55.832 18.1354 55.7044 18.418 55.4492C18.7051 55.194 18.8486 54.8294 18.8486 54.3555C18.8486 53.8678 18.7051 53.4736 18.418 53.1729C18.1309 52.8721 17.7344 52.7171 17.2285 52.708H15.3486V55.832ZM24.29 61H22.3076V50.5H24.29V61ZM30.21 61C30.1188 60.8223 30.0527 60.6012 30.0117 60.3369C29.5332 60.8701 28.9111 61.1367 28.1455 61.1367C27.4209 61.1367 26.8193 60.9271 26.3408 60.5078C25.8669 60.0885 25.6299 59.5599 25.6299 58.9219C25.6299 58.138 25.9193 57.5365 26.498 57.1172C27.0814 56.6979 27.9222 56.486 29.0205 56.4814H29.9297V56.0576C29.9297 55.7158 29.8408 55.4424 29.6631 55.2373C29.4899 55.0322 29.2142 54.9297 28.8359 54.9297C28.5033 54.9297 28.2412 55.0094 28.0498 55.1689C27.863 55.3285 27.7695 55.5472 27.7695 55.8252H25.7939C25.7939 55.3968 25.9261 55.0003 26.1904 54.6357C26.4548 54.2712 26.8285 53.9863 27.3115 53.7812C27.7946 53.5716 28.3369 53.4668 28.9385 53.4668C29.8499 53.4668 30.5723 53.6969 31.1055 54.1572C31.6432 54.613 31.9121 55.2555 31.9121 56.085V59.291C31.9167 59.9928 32.0146 60.5238 32.2061 60.8838V61H30.21ZM28.5762 59.626C28.8678 59.626 29.1367 59.5622 29.3828 59.4346C29.6289 59.3024 29.8112 59.127 29.9297 58.9082V57.6367H29.1914C28.2025 57.6367 27.6761 57.9785 27.6123 58.6621L27.6055 58.7783C27.6055 59.0244 27.6921 59.2272 27.8652 59.3867C28.0384 59.5462 28.2754 59.626 28.5762 59.626ZM36.5059 59.5439C36.8704 59.5439 37.1667 59.4437 37.3945 59.2432C37.6224 59.0426 37.7409 58.776 37.75 58.4434H39.6025C39.598 58.9447 39.4613 59.4049 39.1924 59.8242C38.9235 60.2389 38.5544 60.5625 38.085 60.7949C37.6201 61.0228 37.1051 61.1367 36.54 61.1367C35.4827 61.1367 34.6488 60.8018 34.0381 60.1318C33.4274 59.4574 33.1221 58.5277 33.1221 57.3428V57.2129C33.1221 56.0736 33.4251 55.1644 34.0312 54.4854C34.6374 53.8063 35.4691 53.4668 36.5264 53.4668C37.4515 53.4668 38.1921 53.7311 38.748 54.2598C39.3086 54.7839 39.5934 55.4834 39.6025 56.3584H37.75C37.7409 55.9756 37.6224 55.6657 37.3945 55.4287C37.1667 55.1872 36.8659 55.0664 36.4922 55.0664C36.0319 55.0664 35.6833 55.235 35.4463 55.5723C35.2139 55.9049 35.0977 56.4473 35.0977 57.1992V57.4043C35.0977 58.1654 35.2139 58.7122 35.4463 59.0449C35.6787 59.3776 36.0319 59.5439 36.5059 59.5439ZM44.1348 61.1367C43.0501 61.1367 42.166 60.804 41.4824 60.1387C40.8034 59.4733 40.4639 58.5869 40.4639 57.4795V57.2881C40.4639 56.5452 40.6074 55.8822 40.8945 55.2988C41.1816 54.7109 41.5872 54.2598 42.1113 53.9453C42.64 53.6263 43.2415 53.4668 43.916 53.4668C44.9277 53.4668 45.723 53.7858 46.3018 54.4238C46.8851 55.0618 47.1768 55.9665 47.1768 57.1377V57.9443H42.4668C42.5306 58.4274 42.722 58.8148 43.041 59.1064C43.3646 59.3981 43.7725 59.5439 44.2646 59.5439C45.0257 59.5439 45.6204 59.2682 46.0488 58.7168L47.0195 59.8037C46.7233 60.223 46.3223 60.5511 45.8164 60.7881C45.3105 61.0205 44.75 61.1367 44.1348 61.1367ZM43.9092 55.0664C43.5173 55.0664 43.1982 55.1986 42.9521 55.4629C42.7106 55.7272 42.5557 56.1055 42.4873 56.5977H45.2354V56.4404C45.2262 56.0029 45.1077 55.6657 44.8799 55.4287C44.652 55.1872 44.3285 55.0664 43.9092 55.0664ZM50.2324 54.4102C50.7565 53.7812 51.415 53.4668 52.208 53.4668C53.8122 53.4668 54.6257 54.3988 54.6484 56.2627V61H52.6729V56.3174C52.6729 55.8936 52.5817 55.5814 52.3994 55.3809C52.2171 55.1758 51.9141 55.0732 51.4902 55.0732C50.9115 55.0732 50.4922 55.2965 50.2324 55.7432V61H48.2568V50.5H50.2324V54.4102ZM55.8311 57.2334C55.8311 56.4997 55.9723 55.8457 56.2549 55.2715C56.5374 54.6973 56.943 54.2529 57.4717 53.9385C58.0049 53.624 58.6224 53.4668 59.3242 53.4668C60.3223 53.4668 61.1357 53.7721 61.7646 54.3828C62.3981 54.9935 62.7513 55.8229 62.8242 56.8711L62.8379 57.377C62.8379 58.5117 62.5212 59.4232 61.8877 60.1113C61.2542 60.7949 60.4043 61.1367 59.3379 61.1367C58.2715 61.1367 57.4193 60.7949 56.7812 60.1113C56.1478 59.4277 55.8311 58.498 55.8311 57.3223V57.2334ZM57.8066 57.377C57.8066 58.0788 57.9388 58.6165 58.2031 58.9902C58.4674 59.3594 58.8457 59.5439 59.3379 59.5439C59.8164 59.5439 60.1901 59.3617 60.459 58.9971C60.7279 58.6279 60.8623 58.04 60.8623 57.2334C60.8623 56.5452 60.7279 56.012 60.459 55.6338C60.1901 55.2555 59.8118 55.0664 59.3242 55.0664C58.8411 55.0664 58.4674 55.2555 58.2031 55.6338C57.9388 56.0075 57.8066 56.5885 57.8066 57.377ZM66.1396 61H64.1572V50.5H66.1396V61ZM67.4658 57.2471C67.4658 56.0941 67.7233 55.1758 68.2383 54.4922C68.7578 53.8086 69.4665 53.4668 70.3643 53.4668C71.0843 53.4668 71.679 53.7357 72.1484 54.2734V50.5H74.1309V61H72.3467L72.251 60.2139C71.7588 60.8291 71.1253 61.1367 70.3506 61.1367C69.4801 61.1367 68.7806 60.7949 68.252 60.1113C67.7279 59.4232 67.4658 58.4684 67.4658 57.2471ZM69.4414 57.3906C69.4414 58.0833 69.5622 58.6143 69.8037 58.9834C70.0452 59.3525 70.3962 59.5371 70.8564 59.5371C71.4671 59.5371 71.8978 59.2796 72.1484 58.7646V55.8457C71.9023 55.3307 71.4762 55.0732 70.8701 55.0732C69.9176 55.0732 69.4414 55.8457 69.4414 57.3906ZM79.0664 61.1367C77.9818 61.1367 77.0977 60.804 76.4141 60.1387C75.735 59.4733 75.3955 58.5869 75.3955 57.4795V57.2881C75.3955 56.5452 75.5391 55.8822 75.8262 55.2988C76.1133 54.7109 76.5189 54.2598 77.043 53.9453C77.5716 53.6263 78.1732 53.4668 78.8477 53.4668C79.8594 53.4668 80.6546 53.7858 81.2334 54.4238C81.8167 55.0618 82.1084 55.9665 82.1084 57.1377V57.9443H77.3984C77.4622 58.4274 77.6536 58.8148 77.9727 59.1064C78.2962 59.3981 78.7041 59.5439 79.1963 59.5439C79.9574 59.5439 80.5521 59.2682 80.9805 58.7168L81.9512 59.8037C81.6549 60.223 81.2539 60.5511 80.748 60.7881C80.2422 61.0205 79.6816 61.1367 79.0664 61.1367ZM78.8408 55.0664C78.4489 55.0664 78.1299 55.1986 77.8838 55.4629C77.6423 55.7272 77.4873 56.1055 77.4189 56.5977H80.167V56.4404C80.1579 56.0029 80.0394 55.6657 79.8115 55.4287C79.5837 55.1872 79.2601 55.0664 78.8408 55.0664ZM87.3926 55.4561C87.1237 55.4196 86.8867 55.4014 86.6816 55.4014C85.9342 55.4014 85.4443 55.6543 85.2119 56.1602V61H83.2363V53.6035H85.1025L85.1572 54.4854C85.5537 53.8063 86.1029 53.4668 86.8047 53.4668C87.0234 53.4668 87.2285 53.4964 87.4199 53.5557L87.3926 55.4561Z" fill="white"/>
</svg>
