<svg width="140" height="140" viewBox="0 0 140 140" fill="none" xmlns="http://www.w3.org/2000/svg">
    <mask id="mask0" mask-type="alpha" maskUnits="userSpaceOnUse" x="0" y="0" width="140" height="140">
        <circle cx="70" cy="70" r="70" fill="#69CBDC"/>
    </mask>
    <g mask="url(#mask0)">
        <path d="M33.1744 -2.26183L33.1759 -2.2597L33.526 -1.74382C33.7553 -1.40577 34.0919 -0.909451 34.5209 -0.276237C35.3791 0.990185 36.6072 2.80424 38.0874 4.995C41.0476 9.37638 45.0164 15.2652 49.0498 21.2938C53.0827 27.3217 57.1825 33.4929 60.4041 38.4379C62.0144 40.9098 63.4086 43.0804 64.4664 44.7757C65.5027 46.4365 66.2683 47.7228 66.5695 48.3753C66.6785 48.6115 66.7181 48.8739 66.6838 49.1318C66.5466 50.1609 65.9799 51.0589 65.3034 51.8063C64.6169 52.5648 63.7219 53.2735 62.7367 53.9275C60.765 55.2363 58.2498 56.4442 55.8176 57.4648C53.3738 58.4904 50.9589 59.3495 49.1592 59.9512C48.5433 60.1571 47.9981 60.3333 47.5469 60.4762C47.8003 61.16 48.141 62.0599 48.5417 63.0711C49.4373 65.3313 50.6147 68.1023 51.7768 70.2605C52.4133 71.4425 52.0493 72.6018 51.4156 73.4536C50.8188 74.2557 49.8812 74.9603 48.8593 75.5768C46.7854 76.828 43.8534 78.013 40.94 79.0273C38.2918 79.9493 35.5888 80.7539 33.4238 81.3585C34.2143 81.6255 35.0716 81.9174 35.9606 82.224C39.678 83.5058 44.0352 85.072 46.3396 86.1356C48.7388 87.2429 49.9234 88.6012 50.0086 90.1366C50.0483 90.8495 49.8293 91.4268 49.6222 91.8049C49.5176 91.996 49.4097 92.1481 49.3237 92.2571C49.2804 92.3121 49.2415 92.3575 49.2097 92.3928L49.1908 92.4137C49.1801 92.4265 49.1629 92.4476 49.14 92.4765C49.0896 92.5404 49.0117 92.6424 48.9155 92.7798C48.7226 93.0554 48.4586 93.4694 48.1931 94.0005C47.6599 95.0668 47.137 96.5712 47.137 98.3622C47.137 98.9218 47.151 99.6192 47.167 100.414L47.167 100.415V100.416C47.207 102.402 47.2592 104.996 47.1354 107.564C46.9641 111.119 46.4507 115.05 44.8745 117.611C44.4829 118.247 43.8316 118.634 43.2541 118.885C42.642 119.152 41.9024 119.356 41.0938 119.518C39.4718 119.843 37.3692 120.039 34.9952 120.145C30.2348 120.357 24.18 120.215 18.2489 119.935C12.3096 119.656 6.46016 119.236 2.09793 118.887C-0.0838432 118.712 -1.8951 118.555 -3.16143 118.442C-3.79462 118.385 -4.29165 118.339 -4.63073 118.307C-4.80027 118.291 -4.93033 118.279 -5.01818 118.271L-5.08569 118.264H-35.5591C-36.3171 118.264 -36.9316 117.65 -36.9316 116.892V-0.118182C-36.9316 -0.865361 -36.334 -1.47528 -35.587 -1.49045L32.0111 -2.863C32.4756 -2.87243 32.9134 -2.64621 33.1744 -2.26183Z" fill="white"/>
        <path fill-rule="evenodd" clip-rule="evenodd" d="M77.5913 59.0873C76.7894 59.8892 76.8317 61.1914 77.5452 62.0729C79.4637 64.4433 80.6128 67.462 80.6128 70.749C80.6128 73.8133 79.6142 76.6443 77.9245 78.9344C77.2713 79.8198 77.2615 81.0728 78.0395 81.8508C78.8239 82.6352 80.1067 82.6382 80.7939 81.7674C83.1855 78.7366 84.6128 74.9095 84.6128 70.749C84.6128 66.3001 82.9808 62.2324 80.2827 59.112C79.5815 58.301 78.3494 58.3292 77.5913 59.0873ZM85.4778 86.4737C84.7674 87.3162 84.7626 88.5739 85.5419 89.3532C86.3248 90.1362 87.6008 90.1385 88.3243 89.3003C92.6201 84.3233 95.2179 77.8396 95.2179 70.7493C95.2179 63.3832 92.4141 56.672 87.8156 51.6246C87.0845 50.8222 85.8383 50.8403 85.0706 51.608C84.2769 52.4017 84.3001 53.6886 85.0465 54.527C88.8854 58.839 91.2179 64.5218 91.2179 70.7493C91.2179 76.74 89.0595 82.2265 85.4778 86.4737ZM93.5347 94.5258C92.8013 95.3494 92.7983 96.6096 93.5781 97.3894C94.3604 98.1717 95.6334 98.1736 96.3738 97.3514C102.719 90.305 106.58 80.9783 106.58 70.7497C106.58 60.2509 102.512 50.7024 95.8659 43.5945C95.1205 42.7973 93.8682 42.8104 93.0964 43.5822C92.3064 44.3722 92.322 45.6528 93.0805 46.4731C98.9771 52.8503 102.58 61.3792 102.58 70.7497C102.58 79.8772 99.1616 88.2061 93.5347 94.5258Z" fill="white"/>
    </g>
</svg>
