<svg xmlns="http://www.w3.org/2000/svg" width="538.893" height="138.894"><rect id="backgroundrect" width="100%" height="100%" x="0" y="0" fill="none" stroke="none"/><defs><style>.b{opacity:.45}.c{fill:#fff}.d{fill:#234561}.e{fill:#f7f7f7}</style></defs><g class="currentLayer"><g id="svg_2" transform="rotate(90 267.436 67.417)" opacity=".3"><path class="b" d="M270.887-150.946a46 46 0 00-26.58 83.6 26.9 26.9 0 00-.622 5.667l-.57 369.424a27.064 27.064 0 0054.128.084l.57-369.424a26.766 26.766 0 00-.6-5.67 46 46 0 00-26.326-83.681z" id="svg_3"/><path class="b" transform="rotate(-38.56 34.477 12.064)" id="svg_4" d="M281.1-31.783h12.179v29.77H281.1z"/><path class="b" transform="rotate(-2.56 42.544 -1370.477)" id="svg_5" d="M208.813-190.774h12.179v29.77h-12.179z"/><path class="b" transform="rotate(-52.638 307.107 -158.227)" id="svg_6" d="M307.107-158.227h29.771v12.179h-29.771z"/></g><g id="svg_8" transform="rotate(90 246.967 74.853)"><path class="c" d="M273.365-84.358a26.766 26.766 0 01.6 5.67l-.57 369.424a27.064 27.064 0 11-54.128-.084l.57-369.424a26.9 26.9 0 01.622-5.667 46.009 46.009 0 1152.9.081z" id="svg_9"/><g id="svg_10"><rect class="d" width="9.472" height="2.706" rx=".5" y="293.402" x="260.2" id="svg_11"/><rect class="d" width="8.119" height="2.706" rx=".5" y="252.805" x="261.553" id="svg_12"/><rect class="d" width="9.472" height="2.706" rx=".5" y="212.209" x="260.2" id="svg_13"/><rect class="d" width="8.119" height="2.706" rx=".5" y="171.613" x="261.553" id="svg_14"/><rect class="d" width="9.472" height="2.706" rx=".5" y="131.017" x="260.2" id="svg_15"/><rect class="d" width="8.119" height="2.706" rx=".5" y="90.421" x="261.553" id="svg_16"/><rect class="d" width="9.472" height="2.706" rx=".5" y="49.825" x="260.2" id="svg_17"/><rect class="d" width="8.119" height="2.706" rx=".5" y="9.229" x="261.553" id="svg_18"/><rect class="d" width="9.472" height="2.706" rx=".5" y="-30.014" x="260.2" id="svg_19"/><rect class="d" width="8.119" height="2.706" rx=".5" y="-70.61" x="261.553" id="svg_20"/></g></g><path class="e" d="M463.472 62.374a30.447 30.447 0 10-39.247 29.153v27h17.6v-27a30.457 30.457 0 0021.647-29.153z" id="svg_21" transform="rotate(90 433.025 75.23)"/><path class="e" id="svg_22" transform="rotate(90 349.804 75.231)" d="M341.008 35.311H358.6v79.839h-17.592z"/><path class="e" id="svg_23" transform="rotate(90 165.4 75.231)" d="M156.603-69.254h17.592v288.97h-17.592z"/><g id="svg_29" transform="rotate(90 506.939 18.095)"><path class="c" transform="rotate(-38.56 10.857 3.799)" id="svg_30" d="M383.928 309.264h12.179v29.77h-12.179z"/></g><g id="svg_31" transform="rotate(90 523.751 72.522)"><path class="c" transform="rotate(-2.561 517.003 57.924)" id="svg_32" d="M517.002 57.924h12.179v29.77h-12.179z"/></g><g id="svg_33" transform="rotate(90 505.277 125.02)"><path class="c" transform="rotate(37.362 509.47 109.494)" id="svg_34" d="M509.471 109.494h12.179v29.771h-12.179z"/></g></g></svg>