<svg width="105" height="103" viewBox="0 0 105 103" fill="none" xmlns="http://www.w3.org/2000/svg">
<path fill-rule="evenodd" clip-rule="evenodd" d="M24.4074 22.9844C24.8027 23.9947 26.428 34.0537 25.9448 34.9761C25.0663 36.7771 25.6373 38.2266 26.8233 39.5883C27.5261 40.3351 28.3168 41.0379 29.0636 41.8285C29.5028 42.3117 30.0299 42.7949 30.4253 43.322C31.787 45.0791 31.4355 46.3529 29.371 47.1875C29.1514 47.2754 28.9318 47.3632 28.7121 47.4511C28.2729 47.6707 28.0972 48.1099 28.2729 48.5492C28.4047 48.8567 28.5804 49.1202 28.7121 49.4277C29.1075 50.3062 28.9318 51.053 28.0972 51.5801C27.7019 51.7997 27.2187 51.9754 26.8233 52.1511C26.428 52.3268 26.0766 52.4586 25.7252 52.7661C26.0766 52.8539 26.428 52.8979 26.7794 52.9857C27.3065 53.1175 27.8776 53.1614 28.3607 53.381C29.1953 53.6885 29.415 54.3913 29.0636 55.1381C29.0196 55.3138 28.9318 55.4456 28.8439 55.5773C27.9215 56.7194 27.9215 57.9932 28.3607 59.311C28.7561 60.5409 28.4047 61.3755 27.2187 61.9466C25.6813 62.6494 24.0121 62.7372 22.3868 62.8251C21.9036 62.869 21.3765 62.8251 20.8933 62.8251C19.8831 62.869 19.4438 63.6597 19.1802 64.4064C18.8288 65.5046 18.5653 66.6466 18.3017 67.7887C18.1699 68.184 18.126 68.5794 17.555 68.5354C17.0718 68.4476 16.8522 68.0962 16.984 67.5252C17.2475 66.427 17.5111 65.3289 17.8185 64.2307C17.9503 63.7475 18.2578 63.3083 18.5214 62.869C19.1363 61.7709 20.1466 61.5073 21.3326 61.4634C22.7822 61.4195 24.2317 61.2438 25.6813 61.0681C25.9009 61.0241 26.1205 60.9363 26.3402 60.8924C27.1747 60.5409 27.2626 60.3652 26.999 59.4867C26.5598 57.9054 26.5598 56.3241 27.6579 54.9184C27.7019 54.8745 27.7458 54.7867 27.7897 54.6988C27.7897 54.6988 27.7897 54.6549 27.7897 54.5231C27.3065 54.4353 26.8233 54.4353 26.3841 54.2596C25.6813 54.0399 24.9785 53.7764 24.4074 53.425C23.7925 53.0296 23.7925 52.3707 24.3635 51.8876C24.7588 51.5801 25.2859 51.3605 25.7252 51.1408C26.2084 50.9212 26.6916 50.7455 27.1747 50.5698C27.5261 50.438 27.6579 50.2184 27.4383 49.867C27.3065 49.6473 27.2187 49.4277 27.1308 49.252C26.5598 48.1978 26.999 46.6165 28.3607 46.1333C28.5804 46.0454 28.8439 45.9576 29.0636 45.8697C29.986 45.4744 30.1178 45.123 29.4589 44.3323C28.7121 43.4099 27.8336 42.5314 26.9551 41.6528C25.7252 40.4668 24.5831 39.2369 24.2317 37.4799C24.1439 36.9528 24.1878 36.3817 24.2756 35.8546C24.3635 35.3715 24.5831 34.9322 24.7149 34.4929C24.9785 33.7901 23.441 24.1264 23.0896 23.4236L24.4074 22.9844Z" fill="#F58B71" stroke="#F58B71" stroke-width="0.0135276"/>
<path fill-rule="evenodd" clip-rule="evenodd" d="M50.3805 52.836C50.2926 57.3603 48.7991 61.3136 45.7682 64.652C45.5925 64.8277 45.4608 65.0034 45.2411 65.1791C44.8458 65.5305 44.4065 65.5305 44.0112 65.1791C43.6159 64.7838 43.6159 64.3006 43.9673 63.9053C44.3187 63.466 44.758 63.0707 45.1094 62.6314C48.7552 57.8435 49.5459 52.5724 47.4374 46.9499C46.6907 45.0611 45.5925 43.4358 44.2308 41.9424C43.9673 41.6788 43.7477 41.1956 43.7916 40.8881C43.8794 40.1414 44.758 40.0096 45.3729 40.5807C46.9103 42.1181 48.0524 43.8751 48.9309 45.8078C49.8973 48.0481 50.3805 50.42 50.3805 52.836Z" fill="#F58B71"/>
<path fill-rule="evenodd" clip-rule="evenodd" d="M50.3805 52.836C50.2926 57.3603 48.7991 61.3136 45.7682 64.652C45.5925 64.8277 45.4608 65.0034 45.2411 65.1791C44.8458 65.5305 44.4065 65.5305 44.0112 65.1791C43.6159 64.7838 43.6159 64.3006 43.9673 63.9053C44.3187 63.466 44.758 63.0707 45.1094 62.6314C48.7552 57.8435 49.5459 52.5724 47.4374 46.9499C46.6907 45.0611 45.5925 43.4358 44.2308 41.9424C43.9673 41.6788 43.7477 41.1956 43.7916 40.8881C43.8794 40.1414 44.758 40.0096 45.3729 40.5807C46.9103 42.1181 48.0524 43.8751 48.9309 45.8078C49.8973 48.0481 50.3805 50.42 50.3805 52.836Z" stroke="#F58B71" stroke-width="0.0135276"/>
<path fill-rule="evenodd" clip-rule="evenodd" d="M44.4281 54.0727C44.3842 56.313 43.1982 59.4317 40.8262 62.0672C40.7383 62.199 40.6505 62.2869 40.5187 62.4187C40.0794 62.8579 39.5963 62.9897 39.1131 62.5065C38.6299 62.0672 38.8056 61.5841 39.2009 61.1448C40.4308 59.9149 41.3972 58.4653 41.9243 56.7522C43.3739 52.3157 42.5832 48.2745 39.4645 44.6726C39.3327 44.5408 39.157 44.4091 39.0691 44.2334C38.7617 43.838 38.7177 43.3988 39.1131 43.0474C39.4645 42.7399 39.9477 42.6081 40.3869 43.0034C40.7822 43.3988 41.1776 43.838 41.529 44.2773C43.4178 46.7811 44.4281 49.6362 44.4281 54.0727Z" fill="#F58B71"/>
<path fill-rule="evenodd" clip-rule="evenodd" d="M44.4281 54.0727C44.3842 56.313 43.1982 59.4317 40.8262 62.0672C40.7383 62.199 40.6505 62.2869 40.5187 62.4187C40.0794 62.8579 39.5963 62.9897 39.1131 62.5065C38.6299 62.0672 38.8056 61.5841 39.2009 61.1448C40.4308 59.9149 41.3972 58.4653 41.9243 56.7522C43.3739 52.3157 42.5832 48.2745 39.4645 44.6726C39.3327 44.5408 39.157 44.4091 39.0691 44.2334C38.7617 43.838 38.7177 43.3988 39.1131 43.0474C39.4645 42.7399 39.9477 42.6081 40.3869 43.0034C40.7822 43.3988 41.1776 43.838 41.529 44.2773C43.4178 46.7811 44.4281 49.6362 44.4281 54.0727Z" stroke="#F58B71" stroke-width="0.0135276"/>
<path fill-rule="evenodd" clip-rule="evenodd" d="M36.6633 52.6439C36.6194 50.5355 35.8287 48.6467 34.3352 47.0214C33.7202 46.3625 33.8081 45.6597 34.5988 45.4401C34.9062 45.3522 35.3894 45.5279 35.6091 45.7476C37.6736 47.8999 38.596 50.4916 38.4203 53.4346C38.2885 55.8505 37.3661 57.959 35.7408 59.7599C35.3016 60.1992 34.8623 60.5067 34.2474 60.0235C33.8081 59.6721 33.852 59.101 34.4231 58.4861C35.8726 56.8608 36.6194 54.972 36.6633 52.6439Z" fill="#F58B71"/>
<path fill-rule="evenodd" clip-rule="evenodd" d="M36.6633 52.6439C36.6194 50.5355 35.8287 48.6467 34.3352 47.0214C33.7202 46.3625 33.8081 45.6597 34.5988 45.4401C34.9062 45.3522 35.3894 45.5279 35.6091 45.7476C37.6736 47.8999 38.596 50.4916 38.4203 53.4346C38.2885 55.8505 37.3661 57.959 35.7408 59.7599C35.3016 60.1992 34.8623 60.5067 34.2474 60.0235C33.8081 59.6721 33.852 59.101 34.4231 58.4861C35.8726 56.8608 36.6194 54.972 36.6633 52.6439Z" stroke="#F58B71" stroke-width="0.0135276"/>
<path fill-rule="evenodd" clip-rule="evenodd" d="M38.3793 91.631C44.1579 93.8271 50.4782 95.037 57.1036 95.037C65.3177 95.037 73.0926 93.1482 79.945 89.8538C71.5551 96.1791 61.1447 99.9567 49.8558 99.9567C43.4441 99.9567 37.3158 98.7474 31.6863 96.5449L38.3793 91.631ZM24.3293 83.5205C13.8833 74.9656 7.29168 62.3918 7.29168 48.3878C7.29168 22.6473 29.5621 1.73861 57.1036 1.73861C59.1241 1.73861 61.1447 1.87039 63.1214 2.09002C58.9045 0.904024 54.4241 0.289062 49.8558 0.289062C22.3143 0.289062 0 22.6034 0 50.1449C0 67.7082 9.10348 83.1569 22.8579 92.027L24.3293 83.5205Z" fill="#F47D5C"/>
<path d="M28.3016 80.376L21.4053 102.954L39.7663 85.9106L28.3016 80.376Z" fill="#377044"/>
<path fill-rule="evenodd" clip-rule="evenodd" d="M15.7159 49.2047C15.7159 70.4209 32.8909 87.5959 54.1071 87.5959C67.75 87.5959 79.7332 80.4644 86.5308 69.7155H91.4256C84.1846 82.8906 70.184 91.8128 54.1071 91.8128C30.5628 91.8128 11.499 72.749 11.499 49.2047C11.499 25.6605 30.5628 6.59668 54.1071 6.59668C70.182 6.59668 84.181 15.5165 91.4227 28.6888H86.5276C79.7294 17.9428 67.7479 10.8136 54.1071 10.8136C32.8909 10.8136 15.7159 27.9886 15.7159 49.2047Z" fill="#377044"/>
<path d="M62.9626 37.7022C62.699 37.8339 62.4794 38.0536 62.1719 38.3611C61.9084 38.6685 61.6887 39.0639 61.4252 39.5031C61.2055 39.9424 61.0298 40.4256 60.8981 40.9966C60.7224 41.5676 60.6784 42.1387 60.6784 42.7536C60.6784 43.4125 60.7224 43.9836 60.8981 44.5107C61.0298 44.9939 61.2495 45.477 61.513 45.8724C61.7766 46.2677 62.0841 46.6191 62.3915 46.9266C62.743 47.1901 63.0504 47.4537 63.4458 47.6294C63.4458 47.6733 63.4458 47.7612 63.4458 47.8051C63.4458 47.893 63.4458 47.9369 63.4458 48.0247C63.4458 48.464 63.314 48.7715 63.0944 49.035C62.8308 49.2547 62.5233 49.3864 62.0841 49.3864C61.6009 49.3864 61.1616 49.2547 60.6345 48.9911C60.1513 48.6836 59.7121 48.2883 59.3167 47.7173C58.8775 47.1901 58.5261 46.5313 58.2625 45.7406C57.999 44.9939 57.8672 44.1153 57.8672 43.105C57.8672 41.963 58.0429 40.9088 58.3504 39.9863C58.6579 39.0199 59.0971 38.2293 59.5364 37.6143C60.0196 36.9554 60.5467 36.4283 61.0738 36.0769C61.6009 35.7255 62.128 35.5498 62.5672 35.5498H63.7972C64.1047 35.5498 64.3243 35.6377 64.5 35.8134C64.6757 35.9891 64.7635 36.2526 64.7635 36.648C64.7635 36.8676 64.7196 37.0433 64.6757 37.219C64.6318 37.3947 64.5878 37.5704 64.5 37.7022H62.9626Z" fill="#377044"/>
<path d="M73.6562 37.7022V38.4928C74.4029 38.5368 75.1057 38.6246 75.7646 38.8003C76.4235 38.976 76.9945 39.2396 77.5217 39.591C78.0048 39.9424 78.4002 40.3816 78.7076 40.8648C78.9712 41.348 79.103 41.963 79.103 42.6219C79.103 43.149 79.0591 43.6322 78.8834 44.0275C78.7076 44.4228 78.488 44.7742 78.2245 45.0378C77.9609 45.3013 77.6534 45.477 77.3459 45.6088C76.9945 45.7406 76.6871 45.8284 76.3357 45.8284C75.8525 45.8284 75.4571 45.6527 75.1936 45.3892C74.8861 45.1256 74.7543 44.7742 74.7543 44.335C74.7543 44.2032 74.7983 44.0275 74.7983 43.8518C74.8422 43.72 74.8861 43.5882 74.974 43.5004H75.2814C75.545 43.5004 75.7646 43.4125 75.9842 43.2368C76.2039 43.105 76.2917 42.8415 76.2917 42.4901C76.2917 42.0069 76.0721 41.6555 75.6768 41.348C75.2375 41.0405 74.5786 40.8648 73.6562 40.777V48.5518C73.3487 48.8593 72.8655 49.035 72.1188 49.035C72.0309 49.035 71.9431 49.035 71.8552 48.9911C71.8113 48.9911 71.7674 48.9911 71.6795 48.9911C71.0646 48.464 70.4496 48.0247 69.8786 47.6294C69.3075 47.2341 68.7365 46.8387 68.1655 46.4873C67.5505 46.1359 66.9795 45.7845 66.3645 45.477C65.7495 45.1256 65.0906 44.7742 64.3439 44.4228C64.1682 44.1593 64.0364 43.8518 63.9486 43.4565C63.8607 43.0611 63.8168 42.6658 63.8168 42.2705C63.8168 42.1826 63.8168 42.0948 63.8168 42.0069C63.8168 41.919 63.8607 41.8312 63.8607 41.7433C64.3439 41.4359 64.871 41.0845 65.486 40.777C66.057 40.4256 66.628 40.1181 67.243 39.8545C67.858 39.5471 68.4729 39.2835 69.0879 39.0639C69.7468 38.8442 70.3178 38.6246 70.9328 38.4928V37.7022H63.4215C63.1579 37.7022 62.9383 37.6143 62.7626 37.4386C62.5869 37.2629 62.499 36.9994 62.499 36.604C62.499 36.3844 62.499 36.2087 62.5429 36.033C62.6308 35.8573 62.6747 35.6816 62.7187 35.5498H79.8936C80.2011 35.5498 80.4208 35.6377 80.5965 35.8134C80.7722 35.9891 80.86 36.2526 80.86 36.648C80.86 36.8676 80.86 37.0433 80.7722 37.219C80.7282 37.3947 80.6843 37.5704 80.5965 37.7022H73.6562ZM70.8889 40.9966C70.1421 41.2162 69.3954 41.4798 68.6926 41.8312C67.9898 42.1387 67.3748 42.4901 66.8038 42.8415C67.5066 43.2807 68.2533 43.72 69 44.1593C69.7468 44.6424 70.4057 45.0817 71.0206 45.521C70.9767 45.3453 70.9767 45.1256 70.9328 44.906C70.9328 44.6864 70.9328 44.4667 70.9328 44.2032C70.9328 43.9836 70.8889 43.7639 70.8889 43.5443C70.8889 43.3247 70.8889 43.149 70.8889 42.9733V40.9966Z" fill="#377044"/>
<path d="M79.1666 37.7022C78.903 37.7022 78.6834 37.6143 78.5077 37.4386C78.332 37.2629 78.2441 36.9994 78.2441 36.604C78.2441 36.3844 78.2441 36.2087 78.332 36.033C78.3759 35.8573 78.4198 35.6816 78.5077 35.5498H80.9236C81.3629 35.5498 81.7582 35.6377 82.1096 35.8134C82.5049 35.9891 82.7685 36.2526 82.9442 36.5601C83.1199 36.2087 83.3395 35.9451 83.6031 35.8134C83.9106 35.6377 84.262 35.5498 84.6573 35.5498H85.7115C85.9751 35.5498 86.2386 35.6377 86.4143 35.8134C86.5461 35.9891 86.634 36.2526 86.634 36.648C86.634 36.8676 86.634 37.0433 86.59 37.219C86.5461 37.3947 86.4583 37.5704 86.4143 37.7022H84.8769C84.5695 37.7022 84.3059 37.79 84.1302 37.9218C83.9545 38.0536 83.8666 38.3611 83.8666 38.7564V48.9472C83.7788 48.9911 83.6031 49.035 83.4274 49.035C83.2078 49.079 82.9442 49.1229 82.6806 49.1229C82.1975 49.1229 81.8021 49.035 81.5386 48.8593C81.2311 48.6836 81.0993 48.3322 81.0993 47.7612V38.3611C81.0993 38.1854 81.0554 38.0097 80.9236 37.8779C80.8358 37.7461 80.6601 37.7022 80.4844 37.7022H79.1666Z" fill="#377044"/>
<path d="M96.3162 37.7022V48.5518C96.0087 48.8593 95.4816 49.035 94.7788 49.035C94.6031 49.035 94.4713 48.9911 94.3395 48.9911C93.6806 48.464 93.0657 48.0247 92.4946 47.6294C91.8797 47.1901 91.2647 46.7948 90.6937 46.4434C90.0787 46.092 89.4637 45.7406 88.8488 45.4331C88.1899 45.0817 87.531 44.7742 86.8282 44.4228C86.6525 44.1593 86.5207 43.8518 86.4329 43.4565C86.3011 43.0611 86.2571 42.6658 86.2571 42.2705C86.2571 42.1826 86.2571 42.0948 86.2571 42.0069C86.2571 41.919 86.3011 41.8312 86.3011 41.7433C86.8282 41.4359 87.3553 41.0845 87.9703 40.777C88.5413 40.4256 89.1563 40.1181 89.7712 39.8545C90.4301 39.5471 91.0451 39.2835 91.704 39.0639C92.3628 38.8442 92.9778 38.6246 93.5928 38.4928V37.7022H85.73C85.4226 37.7022 85.2029 37.6143 85.0272 37.4386C84.8515 37.2629 84.7637 36.9994 84.7637 36.604C84.7637 36.3844 84.8076 36.2087 84.8515 36.033C84.8954 35.8573 84.9833 35.6816 85.0272 35.5498H98.161C98.4685 35.5498 98.6882 35.6377 98.8639 35.8134C99.0396 35.9891 99.1274 36.2526 99.1274 36.648C99.1274 36.8676 99.0835 37.0433 99.0396 37.219C98.9956 37.3947 98.9517 37.5704 98.8639 37.7022H96.3162ZM86.8282 48.5958C86.6964 48.3322 86.6525 48.1126 86.6525 47.849C86.6525 47.4976 86.7403 47.1901 86.96 46.9266C87.1357 46.663 87.4431 46.4873 87.8385 46.3995C88.4534 46.663 89.0245 46.9705 89.5955 47.3219C90.1665 47.6294 90.6058 47.9369 90.9572 48.1565C91.2208 48.3322 91.4404 48.5079 91.5282 48.6836C91.66 48.8154 91.7479 49.035 91.7479 49.2986C91.7479 49.5621 91.66 49.8257 91.4404 50.0453C91.2647 50.265 91.0451 50.3967 90.6937 50.4846L86.8282 48.5958ZM93.5488 40.9966C92.7582 41.2162 92.0114 41.4798 91.2647 41.8312C90.518 42.1387 89.8591 42.4901 89.2441 42.8415C89.6394 43.0611 90.0348 43.2807 90.4301 43.5004C90.8254 43.72 91.2208 43.9396 91.6161 44.1593C91.9675 44.4228 92.3628 44.6424 92.7142 44.8621C93.0657 45.0817 93.3731 45.3013 93.6806 45.521C93.6367 45.3453 93.6367 45.1256 93.6367 44.906C93.5928 44.6864 93.5928 44.4667 93.5928 44.2032C93.5928 43.9836 93.5928 43.7639 93.5488 43.5443C93.5488 43.3247 93.5488 43.149 93.5488 42.9733V40.9966Z" fill="#377044"/>
<path d="M97.3961 37.7022C97.0886 37.7022 96.8689 37.6143 96.6932 37.4386C96.5175 37.2629 96.4297 36.9994 96.4297 36.604C96.4297 36.3844 96.4736 36.2087 96.5175 36.033C96.5615 35.8573 96.6493 35.6816 96.6932 35.5498H99.1092C99.5484 35.5498 99.9438 35.6377 100.339 35.8134C100.69 35.9891 100.998 36.2526 101.174 36.5601C101.305 36.2087 101.525 35.9451 101.833 35.8134C102.14 35.6377 102.448 35.5498 102.843 35.5498H103.897C104.205 35.5498 104.424 35.6377 104.6 35.8134C104.776 35.9891 104.863 36.2526 104.863 36.648C104.863 36.8676 104.82 37.0433 104.776 37.219C104.732 37.3947 104.688 37.5704 104.6 37.7022H103.062C102.755 37.7022 102.535 37.79 102.36 37.9218C102.14 38.0536 102.052 38.3611 102.052 38.7564V48.9472C101.964 48.9911 101.833 49.035 101.613 49.035C101.393 49.079 101.174 49.1229 100.91 49.1229C100.427 49.1229 100.032 49.035 99.7241 48.8593C99.4606 48.6836 99.2849 48.3322 99.2849 47.7612V38.3611C99.2849 38.1854 99.2409 38.0097 99.1531 37.8779C99.0213 37.7461 98.8895 37.7022 98.7138 37.7022H97.3961Z" fill="#377044"/>
<path d="M73.5485 56.6831C73.4167 56.7709 73.241 56.9027 73.0653 57.1223C72.8896 57.342 72.7578 57.6055 72.5821 57.913C72.4504 58.2205 72.3186 58.5719 72.2307 58.9233C72.1429 59.3186 72.0989 59.714 72.0989 60.1093C72.0989 60.5486 72.1429 60.9439 72.2307 61.2953C72.3625 61.6467 72.4943 61.9981 72.67 62.2617C72.8457 62.5252 73.0214 62.7448 73.241 62.9206C73.4606 63.0963 73.6803 63.272 73.8999 63.3598C73.8999 63.4037 73.8999 63.4477 73.8999 63.4916C73.8999 63.5355 73.8999 63.5794 73.8999 63.6234C73.8999 63.7991 73.856 63.9748 73.7242 64.1065C73.5924 64.2383 73.4167 64.3262 73.1532 64.3262C72.9335 64.3262 72.6261 64.2383 72.3186 64.0626C72.055 63.8869 71.7475 63.6234 71.5279 63.272C71.2644 62.9206 71.0447 62.5252 70.869 61.9981C70.6933 61.5149 70.6055 60.9878 70.6055 60.3729C70.6055 59.6261 70.7372 58.9672 70.9129 58.3962C71.0887 57.7812 71.3522 57.298 71.6158 56.8588C71.9232 56.4195 72.2307 56.1121 72.5382 55.8485C72.8896 55.6289 73.1532 55.541 73.4606 55.541H74.3392C74.6466 55.541 74.8223 55.7167 74.8223 56.1121C74.8223 56.1999 74.8223 56.2878 74.8223 56.3756C74.7784 56.5074 74.7345 56.5952 74.7345 56.6831H73.5485Z" fill="#373435"/>
<path d="M76.2937 56.6831V58.2205C76.2937 58.3523 76.2937 58.528 76.2937 58.7476C76.2497 58.9233 76.2497 59.1429 76.2497 59.3186C76.2058 59.4943 76.2058 59.67 76.1619 59.8457C76.1619 60.0214 76.118 60.1093 76.118 60.1972C76.3376 59.9775 76.6451 59.714 76.9525 59.4504C77.26 59.1869 77.6114 58.9233 77.9628 58.7037C78.3142 58.484 78.6656 58.3083 79.0171 58.1326C79.4124 57.9569 79.7638 57.8252 80.1152 57.7812C80.247 57.8252 80.4227 57.9569 80.5545 58.1326C80.7302 58.3083 80.818 58.484 80.9059 58.6597C80.818 58.8355 80.7741 59.099 80.6862 59.3186C80.6423 59.5822 80.5545 59.8457 80.5105 60.1093C80.4227 60.4168 80.3788 60.7682 80.3788 61.1196C80.3348 61.5149 80.2909 61.9103 80.2909 62.3934C80.2909 62.7448 80.3348 63.0963 80.3788 63.4037C80.3788 63.7112 80.4227 64.0187 80.5105 64.2823C80.4227 64.3701 80.3348 64.458 80.247 64.5019C80.1591 64.5458 80.0273 64.5897 79.8516 64.5897C79.7199 64.5897 79.5881 64.5458 79.4563 64.458C79.3245 64.414 79.1928 64.2823 79.1049 64.1505C79.0171 63.9748 78.9292 63.7551 78.8853 63.4916C78.7974 63.228 78.7974 62.9206 78.7974 62.4813C78.7974 62.1299 78.7974 61.7785 78.8414 61.471C78.9292 61.1196 78.9731 60.8121 79.061 60.5486C79.1049 60.2411 79.1928 60.0214 79.2806 59.8018C79.3685 59.5822 79.4563 59.4065 79.5002 59.2308C79.2367 59.3626 78.9292 59.5383 78.6217 59.714C78.3142 59.9336 78.0068 60.1532 77.7432 60.3729C77.4357 60.6364 77.1722 60.9 76.9086 61.1635C76.6451 61.4271 76.3815 61.6906 76.1619 61.9981C76.074 61.9981 75.9862 61.9981 75.8544 61.9981C75.6348 61.9981 75.4591 61.9542 75.2834 61.9103C75.0637 61.8224 74.932 61.6906 74.8441 61.5589V56.6831H73.9656C73.6142 56.6831 73.4385 56.4635 73.4385 56.0681C73.4385 55.9803 73.4385 55.8924 73.4824 55.7606C73.4824 55.6728 73.5263 55.5849 73.5703 55.541H81.6526C82.004 55.541 82.1797 55.7167 82.1797 56.1121C82.1797 56.1999 82.1797 56.2878 82.1797 56.3756C82.1358 56.5074 82.0919 56.5952 82.0919 56.6831H76.2937Z" fill="#373435"/>
<path d="M82.3108 60.3729C82.3108 59.4943 82.4426 58.7915 82.7062 58.1766C82.9697 57.5616 83.2772 57.0345 83.6286 56.6831H81.2566C80.9052 56.6831 80.7295 56.4635 80.7295 56.0681C80.7295 55.9803 80.7734 55.8924 80.7734 55.7606C80.8173 55.6728 80.8173 55.5849 80.8613 55.541H86.1763C86.5277 55.541 86.7034 55.7167 86.7034 56.1121C86.7034 56.1999 86.6595 56.2878 86.6595 56.3756C86.6156 56.5074 86.6156 56.5952 86.5716 56.6831H85.166C85.0342 56.7709 84.8585 56.9027 84.7267 57.1223C84.551 57.342 84.4193 57.6055 84.2875 57.8691C84.1557 58.1766 84.0239 58.528 83.9361 58.8794C83.8482 59.2747 83.8043 59.67 83.8043 60.0654C83.8043 60.5486 83.8482 60.9439 83.98 61.2953C84.0679 61.6906 84.1996 61.9981 84.3753 62.2617C84.551 62.5252 84.7267 62.7448 84.9464 62.9206C85.166 63.1402 85.3856 63.272 85.6053 63.3598C85.6053 63.4037 85.6053 63.4477 85.6053 63.4916C85.6053 63.5355 85.6053 63.5794 85.6053 63.6234C85.6053 63.7991 85.5613 63.9748 85.4296 64.1065C85.2978 64.2383 85.1221 64.3262 84.8585 64.3262C84.6389 64.3262 84.3314 64.2383 84.0239 64.0626C83.7604 63.8869 83.4529 63.6234 83.1893 63.272C82.9697 62.9206 82.7501 62.5252 82.5744 62.042C82.3987 61.5589 82.3108 60.9878 82.3108 60.3729Z" fill="#373435"/>
<path d="M92.2587 64.1094C91.8194 63.758 91.3802 63.4505 90.9409 63.187C90.5016 62.8795 90.0624 62.6159 89.5792 62.3524C89.1399 62.0888 88.6568 61.8692 88.1736 61.6056C87.6904 61.386 87.1633 61.1664 86.6362 60.9028C86.5483 60.815 86.5044 60.6832 86.5044 60.5075C86.4605 60.3318 86.4165 60.1561 86.4165 59.9804C86.4165 59.8925 86.4165 59.8047 86.4605 59.6729C86.4605 59.585 86.4605 59.4972 86.5044 59.4533L87.4268 59.2776C88.0857 59.1458 88.6128 58.9262 88.9642 58.6626C89.3156 58.399 89.4914 58.0476 89.4914 57.6523C89.4914 57.5205 89.4474 57.3888 89.4035 57.257C89.3596 57.1691 89.3156 57.0813 89.2717 56.9934C89.0082 57.213 88.7007 57.3888 88.3932 57.5645C88.0418 57.7402 87.6904 57.7841 87.2511 57.7841C86.6801 57.7841 86.2408 57.6962 85.9334 57.4327C85.582 57.1691 85.4062 56.8177 85.4062 56.3785C85.4062 56.071 85.4941 55.8513 85.6698 55.7196C85.8455 55.5878 86.0212 55.4999 86.2408 55.4999C86.4165 55.4999 86.5483 55.4999 86.6362 55.5439C86.6801 55.8953 86.768 56.1588 86.8997 56.2906C87.0315 56.4663 87.2511 56.5542 87.5147 56.5542C87.8661 56.5542 88.1736 56.4224 88.4811 56.2467C88.7446 56.0271 89.1399 55.7196 89.5353 55.3682C89.711 55.4999 89.8867 55.6317 90.0624 55.7635C90.2381 55.9392 90.3699 56.1149 90.5016 56.2906C90.6334 56.5102 90.7652 56.7299 90.8531 56.9495C90.897 57.1691 90.9409 57.4327 90.9409 57.6523C90.9409 58.0476 90.897 58.3551 90.7652 58.6187C90.6334 58.9262 90.4138 59.1458 90.1942 59.3654C89.9745 59.585 89.6671 59.7607 89.3596 59.8925C89.0082 60.0243 88.6568 60.1561 88.2614 60.2439C88.5689 60.3757 88.8764 60.5075 89.1839 60.6832C89.5353 60.8589 89.8428 61.0346 90.1942 61.2103C90.5016 61.386 90.8091 61.6056 91.1166 61.7813C91.4241 62.001 91.6876 62.1767 91.9073 62.3524C91.9073 62.0449 91.8633 61.7374 91.8633 61.386C91.8194 61.0346 91.8194 60.7271 91.8194 60.4196V56.5981C91.8194 56.2906 91.9073 56.071 92.083 55.8513C92.2587 55.6317 92.5222 55.5439 92.8736 55.5439H94.5428C94.8942 55.5439 95.0699 55.7196 95.0699 56.1149C95.0699 56.2028 95.0699 56.2906 95.026 56.3785C95.026 56.5102 94.9821 56.5981 94.9382 56.6859H93.269V63.8898C93.0933 64.0655 92.8297 64.1094 92.4783 64.1094C92.3905 64.1094 92.3026 64.1094 92.2587 64.1094Z" fill="#373435"/>
<path d="M94.2136 56.6831C93.8622 56.6831 93.6865 56.4635 93.6865 56.0681C93.6865 55.9803 93.6865 55.8924 93.6865 55.7606C93.7304 55.6728 93.7744 55.5849 93.7744 55.541H95.2679C95.5753 55.541 95.795 55.5849 96.0146 55.6728C96.2342 55.8046 96.366 55.9363 96.4978 56.156C96.5417 55.9363 96.6735 55.7606 96.8492 55.6728C97.0249 55.5849 97.2006 55.541 97.4641 55.541H98.2548C98.4305 55.541 98.5184 55.5849 98.6501 55.6728C98.738 55.7606 98.7819 55.8924 98.7819 56.1121C98.7819 56.1999 98.7819 56.2878 98.738 56.3756C98.738 56.5074 98.6941 56.5952 98.6501 56.6831H97.5959C97.3763 56.6831 97.2445 56.727 97.1127 56.8149C97.0249 56.9027 96.937 57.0784 96.937 57.298V64.1066C96.8931 64.1066 96.8053 64.1505 96.7174 64.1505C96.5856 64.1505 96.4978 64.1944 96.366 64.1944C96.1024 64.1944 95.8828 64.1505 95.751 64.0626C95.5753 63.9748 95.5314 63.7551 95.5314 63.4916V57.1223C95.5314 56.8149 95.3557 56.6831 95.0921 56.6831H94.2136Z" fill="#373435"/>
</svg>
