<svg width="108" height="103" viewBox="0 0 108 103" fill="none" xmlns="http://www.w3.org/2000/svg">
<path fill-rule="evenodd" clip-rule="evenodd" d="M24.3444 22.5742C24.7395 23.579 26.3634 33.5836 25.8806 34.501C25.0028 36.2922 25.5734 37.7339 26.7585 39.0883C27.4607 39.831 28.2508 40.53 28.9969 41.3164C29.4358 41.7969 29.9625 42.2775 30.3575 42.8018C31.7182 44.5493 31.367 45.8162 29.3041 46.6463C29.0847 46.7337 28.8652 46.821 28.6458 46.9084C28.2069 47.1269 28.0313 47.5637 28.2069 48.0006C28.3385 48.3064 28.5141 48.5686 28.6458 48.8744C29.0408 49.7481 28.8652 50.4908 28.0313 51.0151C27.6363 51.2335 27.1535 51.4083 26.7585 51.583C26.3634 51.7578 26.0123 51.8889 25.6612 52.1947C26.0123 52.282 26.3634 52.3257 26.7146 52.4131C27.2413 52.5442 27.8118 52.5879 28.2946 52.8063C29.1286 53.1121 29.348 53.8111 28.9969 54.5538C28.953 54.7286 28.8652 54.8596 28.7775 54.9907C27.8557 56.1266 27.8557 57.3935 28.2946 58.7042C28.6897 59.9274 28.3385 60.7575 27.1535 61.3255C25.6173 62.0245 23.9494 62.1118 22.3254 62.1992C21.8426 62.2429 21.3159 62.1992 20.8331 62.1992C19.8236 62.2429 19.3847 63.0293 19.1214 63.772C18.7702 64.8642 18.5069 66.0001 18.2435 67.136C18.1119 67.5291 18.068 67.9223 17.4974 67.8787C17.0146 67.7913 16.7951 67.4418 16.9268 66.8738C17.1901 65.7816 17.4535 64.6894 17.7607 63.5972C17.8924 63.1167 18.1996 62.6798 18.463 62.2429C19.0775 61.1507 20.087 60.8886 21.272 60.8449C22.7204 60.8012 24.1689 60.6264 25.6173 60.4517C25.8367 60.408 26.0562 60.3206 26.2756 60.2769C27.1096 59.9274 27.1974 59.7527 26.934 58.8789C26.4951 57.3062 26.4951 55.7334 27.5924 54.3354C27.6363 54.2917 27.6802 54.2043 27.7241 54.1169C27.7241 54.1169 27.7241 54.0733 27.7241 53.9422C27.2413 53.8548 26.7585 53.8548 26.3195 53.6801C25.6173 53.4616 24.915 53.1995 24.3444 52.85C23.7299 52.4568 23.7299 51.8015 24.3005 51.3209C24.6956 51.0151 25.2223 50.7967 25.6612 50.5782C26.144 50.3598 26.6268 50.185 27.1096 50.0103C27.4607 49.8792 27.5924 49.6608 27.3729 49.3113C27.2413 49.0928 27.1535 48.8744 27.0657 48.6996C26.4951 47.6511 26.934 46.0784 28.2946 45.5978C28.5141 45.5104 28.7775 45.423 28.9969 45.3357C29.9186 44.9425 30.0503 44.593 29.3919 43.8066C28.6458 42.8891 27.768 42.0154 26.8901 41.1416C25.6612 39.962 24.52 38.7388 24.1689 36.9913C24.0811 36.467 24.125 35.8991 24.2128 35.3748C24.3005 34.8942 24.52 34.4573 24.6517 34.0205C24.915 33.3215 23.3788 23.7101 23.0277 23.0111L24.3444 22.5742Z" fill="#F58B71" stroke="#F58B71" stroke-width="0.0135276"/>
<path fill-rule="evenodd" clip-rule="evenodd" d="M50.3429 52.2257C50.2551 56.7256 48.7628 60.6575 45.7343 63.9778C45.5588 64.1525 45.4271 64.3273 45.2076 64.502C44.8126 64.8515 44.3737 64.8515 43.9787 64.502C43.5837 64.1088 43.5837 63.6283 43.9348 63.2351C44.2859 62.7982 44.7248 62.405 45.076 61.9681C48.7189 57.2061 49.509 51.9636 47.4022 46.3715C46.6561 44.4929 45.5588 42.8765 44.1981 41.3911C43.9348 41.129 43.7153 40.6484 43.7592 40.3426C43.847 39.5999 44.7248 39.4688 45.3393 40.0368C46.8755 41.5658 48.0167 43.3134 48.8945 45.2356C49.8601 47.4637 50.3429 49.8229 50.3429 52.2257Z" fill="#F58B71"/>
<path fill-rule="evenodd" clip-rule="evenodd" d="M50.3429 52.2257C50.2551 56.7256 48.7628 60.6575 45.7343 63.9778C45.5588 64.1525 45.4271 64.3273 45.2076 64.502C44.8126 64.8515 44.3737 64.8515 43.9787 64.502C43.5837 64.1088 43.5837 63.6283 43.9348 63.2351C44.2859 62.7982 44.7248 62.405 45.076 61.9681C48.7189 57.2061 49.509 51.9636 47.4022 46.3715C46.6561 44.4929 45.5588 42.8765 44.1981 41.3911C43.9348 41.129 43.7153 40.6484 43.7592 40.3426C43.847 39.5999 44.7248 39.4688 45.3393 40.0368C46.8755 41.5658 48.0167 43.3134 48.8945 45.2356C49.8601 47.4637 50.3429 49.8229 50.3429 52.2257Z" stroke="#F58B71" stroke-width="0.0135276"/>
<path fill-rule="evenodd" clip-rule="evenodd" d="M44.3908 53.4968C44.347 55.7249 43.1619 58.8268 40.7918 61.448C40.704 61.5791 40.6162 61.6665 40.4845 61.7975C40.0456 62.2344 39.5628 62.3655 39.08 61.8849C38.5972 61.448 38.7728 60.9675 39.1678 60.5306C40.3967 59.3073 41.3623 57.8656 41.889 56.1618C43.3375 51.7493 42.5474 47.73 39.4311 44.1476C39.2995 44.0165 39.1239 43.8855 39.0361 43.7107C38.7289 43.3175 38.685 42.8807 39.08 42.5311C39.4311 42.2253 39.9139 42.0943 40.3528 42.4875C40.7479 42.8807 41.1429 43.3175 41.494 43.7544C43.3813 46.2446 44.3908 49.0843 44.3908 53.4968Z" fill="#F58B71"/>
<path fill-rule="evenodd" clip-rule="evenodd" d="M44.3908 53.4968C44.347 55.7249 43.1619 58.8268 40.7918 61.448C40.704 61.5791 40.6162 61.6665 40.4845 61.7975C40.0456 62.2344 39.5628 62.3655 39.08 61.8849C38.5972 61.448 38.7728 60.9675 39.1678 60.5306C40.3967 59.3073 41.3623 57.8656 41.889 56.1618C43.3375 51.7493 42.5474 47.73 39.4311 44.1476C39.2995 44.0165 39.1239 43.8855 39.0361 43.7107C38.7289 43.3175 38.685 42.8807 39.08 42.5311C39.4311 42.2253 39.9139 42.0943 40.3528 42.4875C40.7479 42.8807 41.1429 43.3175 41.494 43.7544C43.3813 46.2446 44.3908 49.0843 44.3908 53.4968Z" stroke="#F58B71" stroke-width="0.0135276"/>
<path fill-rule="evenodd" clip-rule="evenodd" d="M36.5938 52.0735C36.5499 49.9765 35.7599 48.0979 34.2676 46.4815C33.6531 45.8262 33.7409 45.1272 34.5309 44.9087C34.8382 44.8213 35.321 44.9961 35.5404 45.2145C37.6033 47.3552 38.525 49.9328 38.3495 52.8599C38.2178 55.2628 37.2961 57.3598 35.6721 59.151C35.2332 59.5879 34.7943 59.8937 34.1798 59.4131C33.7409 59.0636 33.7848 58.4957 34.3554 57.884C35.8038 56.2676 36.5499 54.389 36.5938 52.0735Z" fill="#F58B71"/>
<path fill-rule="evenodd" clip-rule="evenodd" d="M36.5938 52.0735C36.5499 49.9765 35.7599 48.0979 34.2676 46.4815C33.6531 45.8262 33.7409 45.1272 34.5309 44.9087C34.8382 44.8213 35.321 44.9961 35.5404 45.2145C37.6033 47.3552 38.525 49.9328 38.3495 52.8599C38.2178 55.2628 37.2961 57.3598 35.6721 59.151C35.2332 59.5879 34.7943 59.8937 34.1798 59.4131C33.7409 59.0636 33.7848 58.4957 34.3554 57.884C35.8038 56.2676 36.5499 54.389 36.5938 52.0735Z" stroke="#F58B71" stroke-width="0.0135276"/>
<path fill-rule="evenodd" clip-rule="evenodd" d="M38.2868 90.8237C44.0777 93.0229 50.4147 94.235 57.0587 94.235C65.2663 94.235 73.0351 92.3564 79.8821 89.0798C71.4989 95.3708 61.0967 99.128 49.8166 99.128C43.3865 99.128 37.2416 97.9164 31.5996 95.7105L38.2868 90.8237ZM24.2663 82.745C13.854 74.2372 7.28595 61.747 7.28595 47.8383C7.28595 22.2372 29.5388 1.4417 57.0587 1.4417C59.0777 1.4417 61.0967 1.57277 63.0718 1.79121C58.8582 0.611632 54.3813 0 49.8166 0C22.2968 0 0 22.1935 0 49.5858C0 67.035 9.07645 82.3855 22.7949 91.2123L24.2663 82.745Z" fill="#F47D5C"/>
<path d="M28.278 79.6162L21.387 102.072L39.7336 85.1209L28.278 79.6162Z" fill="#377044"/>
<path fill-rule="evenodd" clip-rule="evenodd" d="M15.6599 48.6527C15.6599 69.754 32.8214 86.836 54.0209 86.836C68.0681 86.836 80.3544 79.3047 87.025 68.0663H91.8377C84.7699 81.709 70.4851 91.0301 54.0209 91.0301C30.4952 91.0301 11.4464 72.0695 11.4464 48.6527C11.4464 25.236 30.4952 6.27539 54.0209 6.27539C69.6768 6.27539 83.3621 14.7037 90.7452 27.2617H85.7676C78.8773 17.1261 67.2273 10.4694 54.0209 10.4694C32.8214 10.4694 15.6599 27.5514 15.6599 48.6527Z" fill="#377044"/>
<path d="M64.0025 46.6957C62.4663 46.6957 61.1495 46.3462 60.0961 45.7345C59.0427 45.0792 58.3405 44.2055 57.9893 43.157C58.121 42.6764 58.3405 42.1521 58.6916 41.6716C59.0427 41.191 59.4378 40.7978 59.9206 40.5357C59.4378 40.2736 58.9988 39.8367 58.6916 39.2687C58.3844 38.6571 58.2088 38.0018 58.1649 37.2154H57.1115C56.8482 37.2154 56.6287 37.128 56.497 36.9096C56.3654 36.7348 56.3215 36.429 56.3215 36.0358C56.3215 35.9048 56.3215 35.73 56.3654 35.5116C56.4093 35.2931 56.4531 35.1184 56.497 34.9873H70.7178C71.069 34.9873 71.2884 35.0747 71.4201 35.2931C71.5518 35.4679 71.5957 35.7737 71.5957 36.1232C71.5957 36.2979 71.5957 36.4727 71.5518 36.6911C71.5079 36.9096 71.464 37.0843 71.4201 37.2154H69.3572V48.0063C69.2255 48.05 69.05 48.05 68.7866 48.0937C68.5233 48.1374 68.2599 48.1811 67.9966 48.1811C67.4699 48.1811 67.031 48.0937 66.7676 47.9189C66.4604 47.7005 66.2848 47.351 66.2848 46.7831V46.3025C65.9776 46.4336 65.6264 46.5209 65.2314 46.5646C64.8364 46.652 64.4414 46.6957 64.0025 46.6957ZM64.178 44.4239C65.012 44.4239 65.7142 44.2928 66.2848 44.0307V41.8026H63.2563C62.7296 41.8026 62.2907 41.9337 61.9396 42.1521C61.6323 42.4143 61.4129 42.6764 61.2812 43.0259C61.4568 43.4191 61.764 43.7249 62.2468 44.0307C62.6857 44.2928 63.3441 44.4239 64.178 44.4239ZM61.3251 37.2154C61.369 37.827 61.4568 38.3513 61.6762 38.7445C61.8957 39.094 62.159 39.3998 62.3785 39.5309H66.2848V37.2154H61.3251Z" fill="#377044"/>
<path d="M66.3315 35.9588C66.3754 35.7404 66.4193 35.5219 66.4193 35.3035C66.4631 35.0851 66.4631 34.8666 66.4631 34.6919C66.4631 34.255 66.3315 33.9055 66.0681 33.6434C65.8048 33.4249 65.4098 33.2939 64.927 33.2939C64.7075 33.2939 64.4003 33.3375 64.093 33.3375C63.7419 33.3812 63.4347 33.3812 63.1274 33.3812C62.0301 33.3812 61.1962 33.1191 60.6256 32.6385C60.055 32.158 59.7917 31.5026 59.7917 30.76C59.7917 30.1046 59.9673 29.6241 60.3184 29.3619C60.6695 29.0998 61.0645 28.9688 61.5034 28.9688C61.7229 28.9688 61.9424 29.0124 62.1179 29.0561C62.2935 29.1435 62.469 29.1872 62.6007 29.2746C62.5568 29.3619 62.5568 29.4493 62.5129 29.5804C62.5129 29.7114 62.5129 29.7988 62.5129 29.8862C62.5129 30.6289 62.9957 31.0221 63.9175 31.0221C64.2247 31.0221 64.5758 30.9784 64.9708 30.9347C65.322 30.891 65.6731 30.8473 65.9803 30.8473C66.946 30.8473 67.736 31.0658 68.3505 31.59C68.9211 32.0706 69.2283 32.7696 69.2283 33.687C69.2283 34.0365 69.2283 34.2987 69.1405 34.6045C69.0527 34.8666 69.0088 35.0851 68.9211 35.2161L66.3315 35.9588Z" fill="#377044"/>
<path d="M82.1084 48.2685C81.6256 48.2685 81.2305 48.1374 80.9672 47.8316C80.66 47.5694 80.5283 47.2199 80.5283 46.8268C80.5283 46.7394 80.5283 46.652 80.5283 46.5646C80.5283 46.4336 80.5722 46.3462 80.5722 46.2588C80.8355 46.2151 81.0989 46.1714 81.3622 46.0841C81.5817 45.953 81.845 45.8219 82.0206 45.6472C82.24 45.4724 82.3717 45.254 82.5034 44.9919C82.6351 44.7297 82.679 44.3802 82.679 43.987C82.679 43.4628 82.5912 43.0259 82.3278 42.6764C82.1084 42.3269 81.8011 42.1084 81.45 41.9337C81.0989 42.3706 80.66 42.7638 80.1771 43.1133C79.6505 43.4628 79.2115 43.6812 78.7287 43.7686C78.2898 43.6375 77.8509 43.4191 77.3681 43.1133C76.8414 42.8075 76.4025 42.4143 76.0075 41.9337C75.7002 42.1084 75.4369 42.3706 75.1735 42.7201C74.9102 43.0259 74.7785 43.4628 74.7785 43.987C74.7785 44.3802 74.8663 44.686 74.998 44.9919C75.0858 45.254 75.2613 45.4724 75.4808 45.6472C75.7002 45.8219 75.9197 45.9967 76.1391 46.0841C76.4025 46.1714 76.6658 46.2588 76.8853 46.3025C76.9292 46.3899 76.9292 46.4336 76.9292 46.5646C76.9292 46.652 76.9292 46.7394 76.9292 46.7831C76.9292 47.2199 76.7975 47.5694 76.5342 47.8316C76.2708 48.1374 75.8758 48.2685 75.3491 48.2685C74.9541 48.2685 74.5152 48.1811 74.0763 48.05C73.6373 47.8753 73.2423 47.6131 72.8912 47.2636C72.5401 46.9141 72.2328 46.4772 71.9695 45.9967C71.75 45.4724 71.6183 44.8608 71.6183 44.1618C71.6183 43.5938 71.7061 43.0696 71.8817 42.589C72.0573 42.1084 72.2328 41.7153 72.5401 41.3658C72.8034 41.0162 73.1106 40.7104 73.4618 40.492C73.8129 40.2299 74.164 40.0551 74.5591 39.924C74.3835 39.5309 74.2079 39.0503 74.0763 38.5697C73.9446 38.0892 73.8568 37.6523 73.8129 37.2154H71.0039C70.6966 37.2154 70.4333 37.128 70.3016 36.9096C70.1699 36.7348 70.126 36.429 70.126 36.0358C70.126 35.9048 70.126 35.73 70.1699 35.5116C70.2138 35.2931 70.2577 35.1184 70.3455 34.9873H86.4097C86.7608 34.9873 86.9803 35.0747 87.112 35.2931C87.2436 35.4679 87.2875 35.7737 87.2875 36.1232C87.2875 36.2979 87.2875 36.4727 87.2436 36.6911C87.1998 36.9096 87.1559 37.0843 87.112 37.2154H83.5568C83.5129 37.6523 83.4251 38.0892 83.3373 38.5697C83.2495 39.0503 83.074 39.4872 82.8545 39.924C83.2495 40.0551 83.6446 40.2299 83.9957 40.492C84.3468 40.7104 84.6541 41.0162 84.9613 41.3658C85.2246 41.7153 85.4441 42.1084 85.6197 42.589C85.7513 43.0696 85.8391 43.5938 85.8391 44.1618C85.8391 44.8608 85.7513 45.4287 85.488 45.953C85.2246 46.4772 84.9174 46.9141 84.5663 47.2636C84.1713 47.5694 83.7762 47.8316 83.3373 48.0063C82.8984 48.1811 82.5034 48.2685 82.1084 48.2685ZM78.8165 41.2347C79.3432 40.8415 79.7382 40.2736 80.0455 39.5745C80.3527 38.8318 80.5283 38.0455 80.5722 37.2154H76.7975C76.8414 37.6086 76.8853 38.0455 77.017 38.4387C77.1048 38.8755 77.2364 39.2687 77.412 39.6182C77.5876 39.9677 77.807 40.3172 78.0265 40.5794C78.2898 40.8852 78.5532 41.1036 78.8165 41.2347Z" fill="#377044"/>
<path d="M80.6893 35.9588C80.7332 35.7404 80.7771 35.5219 80.7771 35.3035C80.8209 35.0851 80.8209 34.8666 80.8209 34.6919C80.8209 34.255 80.6893 33.9055 80.4259 33.6434C80.1626 33.4249 79.7676 33.2939 79.2847 33.2939C79.0653 33.2939 78.7581 33.3375 78.4508 33.3375C78.0997 33.3812 77.7924 33.3812 77.4852 33.3812C76.3879 33.3812 75.554 33.1191 74.9834 32.6385C74.4128 32.158 74.1495 31.5026 74.1495 30.76C74.1495 30.1046 74.325 29.6241 74.6762 29.3619C75.0273 29.0998 75.4223 28.9688 75.8612 28.9688C76.0807 28.9688 76.3001 29.0124 76.4757 29.0561C76.6513 29.1435 76.8268 29.1872 76.9585 29.2746C76.9146 29.3619 76.9146 29.4493 76.8707 29.5804C76.8707 29.7114 76.8707 29.7988 76.8707 29.8862C76.8707 30.6289 77.3535 31.0221 78.2753 31.0221C78.5825 31.0221 78.9336 30.9784 79.3286 30.9347C79.6798 30.891 80.0309 30.8473 80.3381 30.8473C81.3037 30.8473 82.0938 31.0658 82.7083 31.59C83.2789 32.0706 83.5861 32.7696 83.5861 33.687C83.5861 34.0365 83.5861 34.2987 83.4983 34.6045C83.4105 34.8666 83.3666 35.0851 83.2789 35.2161L80.6893 35.9588Z" fill="#377044"/>
<path d="M78.0347 63.4191C77.508 63.4191 77.0252 63.3317 76.5863 63.2006C76.1473 63.0695 75.7523 62.9385 75.4451 62.72C75.0939 62.5016 74.8306 62.2395 74.6111 61.9337C74.3917 61.6278 74.26 61.2783 74.1722 60.9288C74.26 60.5356 74.4356 60.1425 74.7428 59.793C75.0062 59.3998 75.3573 59.1376 75.7962 58.9192C75.489 58.7444 75.1817 58.4386 74.9184 58.0017C74.655 57.6086 74.5234 57.0843 74.4795 56.4727H72.5921V63.2443C72.5044 63.2443 72.4166 63.288 72.2849 63.288C72.1532 63.3317 72.0216 63.3317 71.8899 63.3317C71.6265 63.3317 71.4071 63.288 71.2315 63.1569C71.0998 63.0695 71.0121 62.8948 71.0121 62.6327V56.4727H70.1342C69.9587 56.4727 69.827 56.429 69.7392 56.3416C69.6514 56.2105 69.6514 56.0795 69.6514 55.9047C69.6514 55.8173 69.6514 55.73 69.6514 55.5989C69.6953 55.5115 69.6953 55.4242 69.7392 55.3368H71.0121V54.2009C71.0121 53.3708 71.2315 52.7592 71.7143 52.3223C72.1971 51.8854 72.8116 51.667 73.6455 51.667C74.0844 51.667 74.4356 51.7107 74.7428 51.8417C75.0939 51.9291 75.3573 52.1039 75.5768 52.2786C75.7962 52.4534 75.9718 52.6718 76.1034 52.9339C76.2351 53.1524 76.279 53.4145 76.279 53.7203C76.279 54.0261 76.1912 54.2883 76.0596 54.463C75.9279 54.6378 75.7084 54.6815 75.4451 54.6815C75.3134 54.6815 75.1817 54.6815 75.0501 54.6378C74.9184 54.5941 74.7867 54.5504 74.6989 54.5067C74.7428 54.4193 74.7428 54.332 74.7428 54.2446C74.7428 54.1572 74.7428 54.0698 74.7428 53.9825C74.7428 53.6766 74.655 53.4145 74.4356 53.2398C74.26 53.0213 73.9528 52.9339 73.6455 52.9339C73.2944 52.9339 73.0311 53.0213 72.8555 53.2398C72.636 53.4582 72.5483 53.764 72.5483 54.2009V55.3368H81.4143C81.7215 55.3368 81.8532 55.5115 81.8532 55.9047C81.8532 55.9921 81.8532 56.0795 81.8532 56.2105C81.8093 56.2979 81.8093 56.3853 81.7654 56.4727H80.5365V58.9192C80.5365 59.1813 80.4487 59.3561 80.3609 59.4871C80.2292 59.5745 80.0537 59.6619 79.7464 59.6619H77.903C77.6396 59.6619 77.3763 59.7056 77.1129 59.7493C76.8935 59.8366 76.674 59.924 76.4985 60.0551C76.3229 60.1425 76.1912 60.2735 76.0596 60.4483C75.9279 60.5793 75.8401 60.7541 75.7962 60.8852C75.9279 61.2783 76.2351 61.5842 76.6301 61.8026C77.0691 62.021 77.5519 62.1084 78.1224 62.1084C78.693 62.1084 79.1758 62.0647 79.527 61.89C79.8781 61.7589 80.1853 61.5842 80.3609 61.4531C80.5365 61.4968 80.6681 61.5842 80.7559 61.7152C80.8437 61.8026 80.8876 61.9773 80.8876 62.1521C80.8876 62.3269 80.8437 62.4579 80.7998 62.5453C80.712 62.6764 80.5804 62.8074 80.4487 62.8948C80.1853 63.0259 79.8781 63.1569 79.4831 63.2443C79.0881 63.3754 78.6491 63.4191 78.0347 63.4191ZM79.0003 58.3949V56.4727H76.1034C76.1473 56.9095 76.2351 57.3027 76.4546 57.6522C76.6301 58.0017 76.8935 58.2639 77.2446 58.4386C77.4202 58.3949 77.6396 58.3949 77.8152 58.3949H79.0003Z" fill="#373435"/>
<path d="M78.6236 54.6752C78.448 54.6752 78.2724 54.5879 78.0969 54.4568C77.9652 54.3694 77.9213 54.1073 77.9213 53.8015C77.9213 53.5394 77.9652 53.2772 78.053 53.1025C78.1408 52.884 78.2724 52.7093 78.448 52.5782C78.6236 52.4035 78.7991 52.3161 79.0625 52.2287C79.2819 52.1413 79.5014 52.0977 79.7647 52.0977C80.0281 52.0977 80.2914 52.1413 80.5109 52.2287C80.7303 52.3161 80.9498 52.4472 81.0815 52.5782C81.257 52.7093 81.3887 52.884 81.4765 53.1025C81.6082 53.3209 81.6521 53.5394 81.6521 53.8015C81.6521 54.1073 81.5643 54.3694 81.4326 54.4568C81.3009 54.5879 81.1254 54.6752 80.9498 54.6752C80.7303 54.6752 80.5548 54.5879 80.4231 54.5005C80.467 54.4568 80.467 54.3694 80.5109 54.282C80.5109 54.2384 80.5109 54.151 80.5109 54.0636C80.5109 53.8452 80.4231 53.6267 80.2914 53.4957C80.1598 53.3646 79.9842 53.3209 79.7647 53.3209C79.5453 53.3209 79.3697 53.3646 79.238 53.4957C79.1064 53.6704 79.0186 53.8452 79.0186 54.0636C79.0186 54.151 79.0625 54.2384 79.0625 54.282C79.0625 54.3694 79.1064 54.4568 79.1064 54.5005C78.9747 54.5879 78.843 54.6752 78.6236 54.6752Z" fill="#373435"/>
<path d="M88.6033 56.4757C88.5594 56.6505 88.5155 56.8689 88.4277 57.0874C88.3838 57.2621 88.296 57.4369 88.2082 57.6553C88.1204 57.8301 87.9888 57.9611 87.901 58.1359C87.7693 58.2669 87.6376 58.398 87.5499 58.4854C87.8571 58.6601 88.1204 58.9659 88.3399 59.2718C88.6033 59.6213 88.691 60.0581 88.691 60.5824C88.691 61.0193 88.6033 61.4125 88.4277 61.762C88.2521 62.1115 88.0327 62.4173 87.6815 62.6357C87.3743 62.8979 86.9793 63.1163 86.5404 63.2474C86.1014 63.3784 85.6186 63.4221 85.0919 63.4221C84.0386 63.4221 83.2924 63.2474 82.7657 62.8979C82.239 62.5484 81.9757 62.0678 81.9757 61.4998C81.9757 61.0193 82.1512 60.6261 82.5024 60.3203C82.8535 60.0581 83.3363 59.9271 83.9069 59.9271C84.258 59.9271 84.5653 59.9708 84.8725 60.0581C85.1797 60.1455 85.3992 60.2329 85.6625 60.4076C85.882 60.5387 86.1014 60.7135 86.277 60.9319C86.4526 61.1503 86.6281 61.3688 86.7159 61.5872C86.8915 61.4562 86.9793 61.3251 87.0671 61.1067C87.1548 60.9319 87.1987 60.7135 87.1987 60.495C87.1987 60.1455 87.1109 59.8397 86.9354 59.6213C86.7598 59.3591 86.5404 59.1844 86.3209 59.097C86.0576 59.1844 85.7503 59.2281 85.487 59.2718C85.1797 59.2718 84.8286 59.3154 84.4775 59.3154C83.8191 59.3154 83.3802 59.2281 83.0729 59.1407C82.7657 59.0096 82.634 58.7912 82.634 58.4417C82.634 58.3106 82.6779 58.1796 82.7218 58.0922C82.7657 57.9611 82.8096 57.8737 82.8535 57.8301C83.5119 57.8737 84.1263 57.8737 84.6969 57.8737C85.2675 57.8737 85.7942 57.9174 86.3648 57.9174C86.4965 57.7864 86.6281 57.5679 86.7598 57.3058C86.8915 57.0437 86.9793 56.7815 87.0232 56.4757H81.5806C81.4051 56.4757 81.3173 56.432 81.2295 56.3447C81.1417 56.2136 81.0978 56.0825 81.0978 55.9078C81.0978 55.8204 81.1417 55.733 81.1417 55.602C81.1417 55.5146 81.1856 55.4272 81.2295 55.3398H89.3055C89.6566 55.3398 89.7883 55.5146 89.7883 55.9078C89.7883 55.9952 89.7883 56.0825 89.7883 56.2136C89.7444 56.301 89.7444 56.3884 89.7005 56.4757H88.6033ZM84.9603 62.2862C85.0919 62.2862 85.2236 62.2425 85.3553 62.2425C85.487 62.2425 85.6186 62.1989 85.7503 62.1552C85.5748 61.8057 85.3553 61.5435 85.0481 61.3251C84.7847 61.1503 84.4775 61.0193 84.1263 61.0193C83.9508 61.0193 83.7752 61.063 83.6874 61.1503C83.5558 61.2377 83.5119 61.3688 83.5119 61.5435C83.5119 61.762 83.5996 61.893 83.863 62.0678C84.0824 62.1989 84.4775 62.2862 84.9603 62.2862Z" fill="#373435"/>
<path d="M91.236 63.3317C90.9727 63.3317 90.7532 63.288 90.6216 63.1569C90.4899 63.0696 90.4021 62.8948 90.4021 62.6327V56.4727H89.4804C89.3048 56.4727 89.1732 56.429 89.1293 56.3416C89.0415 56.2105 88.9976 56.0795 88.9976 55.9047C88.9976 55.8173 88.9976 55.73 89.0415 55.5989C89.0415 55.5115 89.0854 55.4242 89.1293 55.3368H90.446V54.2009C90.446 53.764 90.3143 53.4582 90.0949 53.2398C89.8754 53.0213 89.6121 52.9339 89.2609 52.9339C88.9098 52.9339 88.6465 53.0213 88.4709 53.2398C88.2953 53.4582 88.2076 53.6766 88.2076 53.9825C88.2076 54.0698 88.2076 54.1572 88.2514 54.2446C88.2514 54.332 88.2514 54.4193 88.2514 54.5067C88.1637 54.5504 88.0759 54.5941 87.9442 54.6378C87.8125 54.6815 87.6809 54.6815 87.5053 54.6815C87.2419 54.6815 87.0664 54.6378 86.8908 54.463C86.7591 54.2883 86.6714 54.0261 86.6714 53.7203C86.6714 53.4145 86.7591 53.1524 86.8469 52.9339C86.9786 52.6718 87.1542 52.4534 87.3736 52.2786C87.5931 52.1039 87.8564 51.9291 88.1637 51.8417C88.5148 51.7107 88.8659 51.667 89.3048 51.667C90.0949 51.667 90.7532 51.8854 91.236 52.3223C91.7189 52.7155 91.9383 53.3708 91.9383 54.1572V55.3368H92.9039C93.0795 55.3368 93.2112 55.3805 93.255 55.4678C93.3428 55.5552 93.3867 55.73 93.3867 55.9047C93.3867 55.9921 93.3867 56.0795 93.3428 56.2105C93.3428 56.2979 93.3428 56.3853 93.2989 56.4727H91.9383V63.2443C91.8505 63.2443 91.7627 63.288 91.6311 63.288C91.4994 63.3317 91.3677 63.3317 91.236 63.3317Z" fill="#373435"/>
<path d="M105.75 56.4757V60.495C105.706 60.495 105.618 60.5387 105.487 60.5387C105.355 60.5824 105.223 60.5824 105.091 60.5824C104.828 60.5824 104.609 60.5387 104.477 60.4077C104.301 60.3203 104.258 60.1455 104.258 59.8397V56.4757H102.326V63.2474C102.239 63.2474 102.151 63.2911 102.019 63.2911C101.887 63.3347 101.756 63.3347 101.668 63.3347C101.361 63.3347 101.141 63.2911 101.01 63.16C100.878 63.0726 100.79 62.8979 100.79 62.6357V60.2329H99.2101C99.1223 60.8445 98.9028 61.3688 98.6395 61.7183C98.3322 62.1115 97.9811 62.2862 97.5861 62.2862C97.3227 62.2862 97.1033 62.1989 96.9277 62.0678C96.7521 61.893 96.6644 61.7183 96.6205 61.4562C96.9277 61.194 97.1911 60.8445 97.3666 60.4513C97.5861 60.0145 97.7177 59.5776 97.7177 59.0533C97.7177 58.6164 97.63 58.2233 97.5422 57.9174C97.3227 58.0485 97.0155 58.1796 96.7082 58.398C96.401 58.6164 96.0938 58.8786 95.8304 59.1844C95.6987 59.7086 95.5232 60.1455 95.2598 60.4513C94.9965 60.7135 94.6892 60.8882 94.3381 60.8882C94.0309 60.8882 93.8114 60.8008 93.6797 60.6261C93.5042 60.495 93.4164 60.2766 93.3725 60.0581C93.6359 59.796 93.8992 59.4902 94.1187 59.097C94.2942 58.7475 94.4259 58.3106 94.4259 57.7427C94.4259 57.4806 94.382 57.2621 94.3381 57.0437C94.2942 56.8252 94.2503 56.6505 94.1626 56.4757H93.0214C92.7141 56.4757 92.5386 56.2573 92.5386 55.8641C92.5386 55.7767 92.5825 55.6893 92.5825 55.602C92.5825 55.4709 92.6264 55.3835 92.6702 55.3398H95.2598C95.3476 55.5146 95.4793 55.7767 95.611 56.1262C95.7426 56.4757 95.8304 56.8689 95.8743 57.3932C96.3132 57.0874 96.7082 56.7815 97.1472 56.5631C97.63 56.3884 98.025 56.2136 98.3761 56.0825C98.5956 56.3884 98.815 56.7815 98.9906 57.3058C99.1223 57.7864 99.2539 58.3543 99.2539 58.9659H100.79V56.0825C100.79 55.8204 100.834 55.6457 100.966 55.5146C101.053 55.3835 101.273 55.3398 101.536 55.3398H106.672C106.979 55.3398 107.154 55.5146 107.154 55.9078C107.154 55.9952 107.11 56.0825 107.11 56.2136C107.11 56.301 107.067 56.3884 107.023 56.4757H105.75Z" fill="#373435"/>
</svg>
