<svg width="108" height="103" viewBox="0 0 108 103" fill="none" xmlns="http://www.w3.org/2000/svg">
<path fill-rule="evenodd" clip-rule="evenodd" d="M40.0533 55.6066C40.0533 58.1405 40.0094 60.7181 40.0533 63.252C40.0533 64.3005 39.8777 65.1742 38.7805 65.5674C37.6832 65.9606 36.937 65.4364 36.2348 64.6937C35.3569 63.6888 34.523 62.6403 33.5135 61.7666C33.0746 61.4171 32.1968 61.1986 31.6701 61.3734C31.2312 61.5044 30.7922 62.2908 30.7484 62.8151C30.7045 63.2956 31.1873 63.8636 31.5384 64.3005C34.0841 67.1839 36.5859 70.0673 38.0782 73.6934C38.7366 75.3535 40.0972 76.3583 41.8967 76.5768C42.994 76.7515 44.1791 76.8389 45.3202 76.8389C49.1388 76.7952 52.0795 74.6982 52.4306 70.941C52.8695 66.6159 52.694 62.2471 52.694 57.8783C52.694 57.0046 51.9478 56.4803 51.07 56.4803C50.2361 56.4803 49.6216 57.0483 49.4899 57.922C49.4021 58.5773 49.5338 59.32 49.4021 60.019C49.3582 60.3686 49.051 60.9802 48.7877 61.0239C48.0415 61.1112 48.0415 60.4559 48.0415 59.9317C48.0415 58.3589 48.0854 56.7861 48.0415 55.2134C47.9976 53.9027 47.032 53.1163 45.9347 53.4222C45.0569 53.728 44.7497 54.3833 44.7497 55.2134C44.7497 56.8735 44.7497 58.49 44.7058 60.1064C44.7058 60.4122 44.4863 60.7617 44.2669 61.0239C44.223 61.1112 43.7402 61.0239 43.6963 60.9365C43.5207 60.587 43.389 60.1938 43.389 59.8443C43.3451 56.3493 43.3451 52.8979 43.3451 49.4466C43.3451 48.6602 43.5207 47.8301 43.3013 47.1311C43.1257 46.5632 42.5551 45.8641 42.0284 45.6894C41.5895 45.5146 40.7994 45.9078 40.4483 46.301C40.1411 46.6505 40.0533 47.3495 40.0533 47.8738C40.0094 50.4514 40.0533 53.029 40.0533 55.6066ZM44.7497 52.2426C47.6465 51.5436 49.0071 52.4173 49.5777 55.3444C49.841 55.3007 50.0605 55.2134 50.28 55.1697C52.299 54.6891 54.1424 55.9998 54.1424 58.1405C54.1863 62.2471 54.2302 66.3538 54.0107 70.4168C53.7913 74.6982 50.7628 77.5816 46.5492 78.1496C44.4863 78.4117 42.4673 78.3243 40.4922 77.7127C38.956 77.2321 37.6393 76.271 37.0248 74.7856C35.4447 71.0284 32.899 67.9266 30.1778 64.9558C28.9488 63.5578 28.9927 61.6355 30.2656 60.4996C31.6262 59.32 33.5135 59.4948 34.7864 60.9365C35.6203 61.8539 36.4542 62.7714 37.332 63.6888C37.5954 63.9073 37.9465 64.0383 38.2538 64.2131C38.3854 63.8636 38.6488 63.5141 38.6488 63.1646C38.6927 58.9705 38.6927 54.7328 38.6927 50.5388C38.6927 49.3592 38.6488 48.1796 38.6927 47C38.7366 45.3836 40.0094 44.204 41.6334 44.1603C43.2574 44.1166 44.618 45.3399 44.7058 47C44.7497 47.8738 44.7497 48.7476 44.7497 49.6213C44.7497 50.4951 44.7497 51.3251 44.7497 52.2426Z" fill="#F58B71"/>
<path fill-rule="evenodd" clip-rule="evenodd" d="M40.0533 55.6066C40.0533 58.1405 40.0094 60.7181 40.0533 63.252C40.0533 64.3005 39.8777 65.1742 38.7805 65.5674C37.6832 65.9606 36.937 65.4364 36.2348 64.6937C35.3569 63.6888 34.523 62.6403 33.5135 61.7666C33.0746 61.4171 32.1968 61.1986 31.6701 61.3734C31.2312 61.5044 30.7922 62.2908 30.7484 62.8151C30.7045 63.2956 31.1873 63.8636 31.5384 64.3005C34.0841 67.1839 36.5859 70.0673 38.0782 73.6934C38.7366 75.3535 40.0972 76.3583 41.8967 76.5768C42.994 76.7515 44.1791 76.8389 45.3202 76.8389C49.1388 76.7952 52.0795 74.6982 52.4306 70.941C52.8695 66.6159 52.694 62.2471 52.694 57.8783C52.694 57.0046 51.9478 56.4803 51.07 56.4803C50.2361 56.4803 49.6216 57.0483 49.4899 57.922C49.4021 58.5773 49.5338 59.32 49.4021 60.019C49.3582 60.3686 49.051 60.9802 48.7877 61.0239C48.0415 61.1112 48.0415 60.4559 48.0415 59.9317C48.0415 58.3589 48.0854 56.7861 48.0415 55.2134C47.9976 53.9027 47.032 53.1163 45.9347 53.4222C45.0569 53.728 44.7497 54.3833 44.7497 55.2134C44.7497 56.8735 44.7497 58.49 44.7058 60.1064C44.7058 60.4122 44.4863 60.7617 44.2669 61.0239C44.223 61.1112 43.7402 61.0239 43.6963 60.9365C43.5207 60.587 43.389 60.1938 43.389 59.8443C43.3451 56.3493 43.3451 52.8979 43.3451 49.4466C43.3451 48.6602 43.5207 47.8301 43.3013 47.1311C43.1257 46.5632 42.5551 45.8641 42.0284 45.6894C41.5895 45.5146 40.7994 45.9078 40.4483 46.301C40.1411 46.6505 40.0533 47.3495 40.0533 47.8738C40.0094 50.4514 40.0533 53.029 40.0533 55.6066ZM44.7497 52.2426C47.6465 51.5436 49.0071 52.4173 49.5777 55.3444C49.841 55.3007 50.0605 55.2134 50.28 55.1697C52.299 54.6891 54.1424 55.9998 54.1424 58.1405C54.1863 62.2471 54.2302 66.3538 54.0107 70.4168C53.7913 74.6982 50.7628 77.5816 46.5492 78.1496C44.4863 78.4117 42.4673 78.3243 40.4922 77.7127C38.956 77.2321 37.6393 76.271 37.0248 74.7856C35.4447 71.0284 32.899 67.9266 30.1778 64.9558C28.9488 63.5578 28.9927 61.6355 30.2656 60.4996C31.6262 59.32 33.5135 59.4948 34.7864 60.9365C35.6203 61.8539 36.4542 62.7714 37.332 63.6888C37.5954 63.9073 37.9465 64.0383 38.2538 64.2131C38.3854 63.8636 38.6488 63.5141 38.6488 63.1646C38.6927 58.9705 38.6927 54.7328 38.6927 50.5388C38.6927 49.3592 38.6488 48.1796 38.6927 47C38.7366 45.3836 40.0094 44.204 41.6334 44.1603C43.2574 44.1166 44.618 45.3399 44.7058 47C44.7497 47.8738 44.7497 48.7476 44.7497 49.6213C44.7497 50.4951 44.7497 51.3251 44.7497 52.2426Z" stroke="#F58B71" stroke-width="0.0135276"/>
<path fill-rule="evenodd" clip-rule="evenodd" d="M23.0258 36.3249C26.1421 36.2812 26.0104 36.2375 25.9665 39.252C25.9665 40.6937 25.7909 40.8684 24.2986 40.9121C23.333 40.9121 22.3236 40.9121 21.3141 40.8684C21.0946 40.8684 20.8313 40.9558 20.6557 40.8248C19.2073 40.0384 19.9973 38.6404 19.8657 37.4608C19.7779 36.6744 20.3924 36.3249 21.1385 36.3249C21.7969 36.3249 22.4113 36.3249 23.0258 36.3249Z" fill="#F58B71"/>
<path fill-rule="evenodd" clip-rule="evenodd" d="M23.0258 36.3249C26.1421 36.2812 26.0104 36.2375 25.9665 39.252C25.9665 40.6937 25.7909 40.8684 24.2986 40.9121C23.333 40.9121 22.3236 40.9121 21.3141 40.8684C21.0946 40.8684 20.8313 40.9558 20.6557 40.8248C19.2073 40.0384 19.9973 38.6404 19.8657 37.4608C19.7779 36.6744 20.3924 36.3249 21.1385 36.3249C21.7969 36.3249 22.4113 36.3249 23.0258 36.3249Z" stroke="#F58B71" stroke-width="0.0135276"/>
<path fill-rule="evenodd" clip-rule="evenodd" d="M32.2369 40.9162C28.945 40.9162 29.2961 41.091 29.2961 37.9018C29.2961 36.5911 29.5156 36.329 30.8323 36.329C31.8857 36.2853 32.983 36.329 34.0364 36.329C34.9581 36.329 35.397 36.7222 35.3531 37.6833C35.3093 38.2513 35.3531 38.8629 35.3531 39.4308C35.3093 40.6541 35.0898 40.8725 33.8169 40.9162C33.2903 40.9162 32.7636 40.9162 32.2369 40.9162Z" fill="#F58B71"/>
<path fill-rule="evenodd" clip-rule="evenodd" d="M32.2369 40.9162C28.945 40.9162 29.2961 41.091 29.2961 37.9018C29.2961 36.5911 29.5156 36.329 30.8323 36.329C31.8857 36.2853 32.983 36.329 34.0364 36.329C34.9581 36.329 35.397 36.7222 35.3531 37.6833C35.3093 38.2513 35.3531 38.8629 35.3531 39.4308C35.3093 40.6541 35.0898 40.8725 33.8169 40.9162C33.2903 40.9162 32.7636 40.9162 32.2369 40.9162Z" stroke="#F58B71" stroke-width="0.0135276"/>
<path fill-rule="evenodd" clip-rule="evenodd" d="M41.5775 40.9359C38.3735 40.9359 38.6807 41.1106 38.6807 37.9651C38.6807 36.5671 38.9002 36.3486 40.3486 36.3486C41.402 36.3486 42.4115 36.3486 43.4648 36.3486C44.2549 36.3486 44.7377 36.6981 44.6938 37.5282C44.6938 38.2272 44.7377 38.9262 44.7377 39.6252C44.7377 40.5427 44.2549 40.9796 43.3332 40.9359C42.7626 40.8922 42.1481 40.9359 41.5775 40.9359Z" fill="#F58B71"/>
<path fill-rule="evenodd" clip-rule="evenodd" d="M41.5775 40.9359C38.3735 40.9359 38.6807 41.1106 38.6807 37.9651C38.6807 36.5671 38.9002 36.3486 40.3486 36.3486C41.402 36.3486 42.4115 36.3486 43.4648 36.3486C44.2549 36.3486 44.7377 36.6981 44.6938 37.5282C44.6938 38.2272 44.7377 38.9262 44.7377 39.6252C44.7377 40.5427 44.2549 40.9796 43.3332 40.9359C42.7626 40.8922 42.1481 40.9359 41.5775 40.9359Z" stroke="#F58B71" stroke-width="0.0135276"/>
<path fill-rule="evenodd" clip-rule="evenodd" d="M22.9052 48.6384H22.7735C19.5695 48.6821 19.8328 48.9005 19.8767 45.2744C19.8767 44.5754 20.2717 44.1386 21.0618 44.1386C22.2907 44.1386 23.5636 44.0949 24.7925 44.1386C25.8898 44.1386 26.0215 44.5317 26.0215 47.153C25.9776 47.9831 25.8898 48.6821 24.7925 48.6384C24.1342 48.6384 23.5197 48.6384 22.9052 48.6384Z" fill="#F58B71"/>
<path fill-rule="evenodd" clip-rule="evenodd" d="M22.9052 48.6384H22.7735C19.5695 48.6821 19.8328 48.9005 19.8767 45.2744C19.8767 44.5754 20.2717 44.1386 21.0618 44.1386C22.2907 44.1386 23.5636 44.0949 24.7925 44.1386C25.8898 44.1386 26.0215 44.5317 26.0215 47.153C25.9776 47.9831 25.8898 48.6821 24.7925 48.6384C24.1342 48.6384 23.5197 48.6384 22.9052 48.6384Z" stroke="#F58B71" stroke-width="0.0135276"/>
<path fill-rule="evenodd" clip-rule="evenodd" d="M22.7992 56.4318C22.2725 56.4318 21.702 56.3882 21.1314 56.4318C20.1658 56.5192 19.8146 55.995 19.8146 55.1212C19.8146 51.6699 19.5952 51.9757 22.7992 51.9757C23.4576 51.9757 24.116 51.9757 24.7743 51.9757C25.6521 51.9757 26.0033 52.3689 25.9594 53.1989C25.9594 56.7377 26.3983 56.4755 22.7992 56.4318Z" fill="#F58B71"/>
<path fill-rule="evenodd" clip-rule="evenodd" d="M22.7992 56.4318C22.2725 56.4318 21.702 56.3882 21.1314 56.4318C20.1658 56.5192 19.8146 55.995 19.8146 55.1212C19.8146 51.6699 19.5952 51.9757 22.7992 51.9757C23.4576 51.9757 24.116 51.9757 24.7743 51.9757C25.6521 51.9757 26.0033 52.3689 25.9594 53.1989C25.9594 56.7377 26.3983 56.4755 22.7992 56.4318Z" stroke="#F58B71" stroke-width="0.0135276"/>
<path fill-rule="evenodd" clip-rule="evenodd" d="M32.2381 48.6578C29.1218 48.6578 29.2535 49.051 29.2974 45.7744C29.2974 44.4201 29.5168 44.1579 30.8774 44.1143C31.9308 44.1143 32.9842 44.1143 34.0815 44.1579C34.9154 44.1579 35.3982 44.5074 35.3543 45.4249C35.3104 46.0365 35.3104 46.6482 35.3543 47.3035C35.4421 48.352 34.9154 48.7452 33.9059 48.7015C33.3353 48.6578 32.7647 48.6578 32.2381 48.6578Z" fill="#F58B71"/>
<path fill-rule="evenodd" clip-rule="evenodd" d="M32.2381 48.6578C29.1218 48.6578 29.2535 49.051 29.2974 45.7744C29.2974 44.4201 29.5168 44.1579 30.8774 44.1143C31.9308 44.1143 32.9842 44.1143 34.0815 44.1579C34.9154 44.1579 35.3982 44.5074 35.3543 45.4249C35.3104 46.0365 35.3104 46.6482 35.3543 47.3035C35.4421 48.352 34.9154 48.7452 33.9059 48.7015C33.3353 48.6578 32.7647 48.6578 32.2381 48.6578Z" stroke="#F58B71" stroke-width="0.0135276"/>
<path fill-rule="evenodd" clip-rule="evenodd" d="M32.2368 56.4358C28.945 56.4795 29.2961 56.6543 29.2961 53.5524C29.2961 52.1107 29.4278 51.9797 30.9201 51.9797C31.8857 51.9797 32.8952 51.9797 33.9047 51.9797C34.1242 51.9797 34.3875 51.936 34.5631 52.0234C36.1432 52.8097 35.0898 54.2514 35.3092 55.3873C35.4848 56.0863 34.9142 56.4358 34.212 56.4358C33.5536 56.4358 32.8952 56.4358 32.2368 56.4358Z" fill="#F58B71"/>
<path fill-rule="evenodd" clip-rule="evenodd" d="M32.2368 56.4358C28.945 56.4795 29.2961 56.6543 29.2961 53.5524C29.2961 52.1107 29.4278 51.9797 30.9201 51.9797C31.8857 51.9797 32.8952 51.9797 33.9047 51.9797C34.1242 51.9797 34.3875 51.936 34.5631 52.0234C36.1432 52.8097 35.0898 54.2514 35.3092 55.3873C35.4848 56.0863 34.9142 56.4358 34.212 56.4358C33.5536 56.4358 32.8952 56.4358 32.2368 56.4358Z" stroke="#F58B71" stroke-width="0.0135276"/>
<path fill-rule="evenodd" clip-rule="evenodd" d="M38.4873 90.8332C44.2753 93.0264 50.6062 94.235 57.2406 94.235C65.4483 94.235 73.1732 92.3564 80.0202 89.0798C71.6808 95.3708 61.2786 99.128 49.9546 99.128C43.544 99.128 37.4154 97.9199 31.786 95.72L38.4873 90.8332ZM24.4409 82.7546C14.0099 74.2466 7.4239 61.7522 7.4239 47.8383C7.4239 22.2372 29.7207 1.4417 57.2406 1.4417C59.2596 1.4417 61.2786 1.57277 63.2098 1.79121C58.9962 0.611632 54.5632 0 49.9546 0C22.4786 0 0.181824 22.1935 0.181824 49.5858C0.181824 67.0372 9.26059 82.3894 22.9706 91.2157L24.4409 82.7546Z" fill="#F47D5C"/>
<path d="M28.4616 79.6162L21.5268 102.072L39.9172 85.1209L28.4616 79.6162Z" fill="#377044"/>
<path fill-rule="evenodd" clip-rule="evenodd" d="M15.8362 48.6527C15.8362 69.754 33.0415 86.836 54.1971 86.836C68.2734 86.836 80.5695 79.3047 87.2433 68.0663H92.0565C84.986 81.709 70.692 91.0301 54.1971 91.0301C30.6714 91.0301 11.6226 72.0695 11.6226 48.6527C11.6226 25.236 30.6714 6.27539 54.1971 6.27539C69.8822 6.27539 83.5773 14.7037 90.9636 27.2617H85.9853C79.0911 17.1261 67.4309 10.4694 54.1971 10.4694C33.0415 10.4694 15.8362 27.5514 15.8362 48.6527Z" fill="#377044"/>
<path d="M61.8111 37.3132V48.1041C61.6794 48.1478 61.46 48.1915 61.1966 48.2351C60.9772 48.2788 60.7138 48.2788 60.4505 48.2788C59.9238 48.2788 59.4848 48.1915 59.1776 48.0167C58.8704 47.842 58.7387 47.4488 58.7387 46.8371V37.3132H57.5097C57.2025 37.3132 56.983 37.2258 56.8514 37.051C56.7197 36.8763 56.6319 36.5705 56.6319 36.221C56.6319 36.0462 56.6758 35.8714 56.7197 35.653C56.7636 35.3909 56.8075 35.2161 56.8514 35.0851H58.7387V33.3375C58.7387 31.9395 59.1337 30.891 59.9677 30.1046C60.8016 29.3619 61.9428 28.9688 63.3912 28.9688C64.1812 28.9688 64.8396 29.0561 65.4541 29.2309C66.0247 29.4493 66.5075 29.7114 66.9464 30.0173C67.3414 30.3231 67.6487 30.7163 67.8242 31.1095C68.0437 31.5463 68.1315 31.9832 68.1315 32.4201C68.1315 33.0754 67.9998 33.556 67.6926 33.8181C67.3853 34.1239 66.9903 34.255 66.4636 34.255C66.1564 34.255 65.8491 34.2113 65.5858 34.1676C65.3224 34.0802 65.1468 33.9929 64.9713 33.8618C64.9713 33.7744 64.9713 33.5997 65.0152 33.4249C65.0152 33.2502 65.0152 33.1191 65.0152 32.9444C65.0152 32.5075 64.8835 32.158 64.5763 31.8522C64.3129 31.59 63.9179 31.4153 63.3912 31.4153C62.8645 31.4153 62.4695 31.59 62.2061 31.8958C61.9428 32.2453 61.7672 32.7259 61.7672 33.3375V35.0851H63.1717C63.479 35.0851 63.6984 35.2161 63.8301 35.3909C63.9618 35.6093 64.0496 35.8714 64.0496 36.221C64.0496 36.3957 64.0057 36.5705 64.0057 36.8326C63.9618 37.051 63.9179 37.2258 63.8301 37.3132H61.8111Z" fill="#377044"/>
<path d="M74.6101 48.3961C74.1273 48.3961 73.7322 48.2651 73.4689 47.9593C73.1617 47.6534 73.03 47.3039 73.03 46.9107C73.03 46.8671 73.03 46.7797 73.03 46.6486C73.03 46.5612 73.0739 46.4302 73.0739 46.3428C73.3372 46.3428 73.6006 46.2554 73.8639 46.168C74.0834 46.0807 74.3467 45.9496 74.5223 45.7749C74.7417 45.6001 74.8734 45.3817 75.0051 45.0758C75.1368 44.8137 75.1807 44.5079 75.1807 44.1147C75.1807 43.5905 75.0929 43.1099 74.8295 42.8041C74.6101 42.4546 74.3028 42.1924 73.9517 42.0177C73.6006 42.4983 73.1617 42.8914 72.6789 43.1973C72.1522 43.5468 71.7132 43.7652 71.2304 43.8526C70.7915 43.7652 70.3526 43.5468 69.8698 43.1973C69.3431 42.8914 68.9042 42.4983 68.5092 42.0614C68.2019 42.2361 67.9386 42.4546 67.6752 42.8041C67.4119 43.1536 67.2802 43.5905 67.2802 44.1147C67.2802 44.5079 67.368 44.8137 67.4997 45.0758C67.5875 45.338 67.763 45.5564 67.9825 45.7749C68.2019 45.9496 68.4214 46.0807 68.6409 46.168C68.9042 46.2991 69.1676 46.3428 69.387 46.3865C69.4309 46.4739 69.4309 46.5612 69.4309 46.6486C69.4309 46.736 69.4309 46.8234 69.4309 46.9107C69.4309 47.3039 69.2992 47.6534 69.0359 47.9593C68.7725 48.2651 68.3775 48.3961 67.8508 48.3961C67.4558 48.3961 67.0169 48.3088 66.578 48.134C66.1391 47.9593 65.744 47.6971 65.3929 47.3913C65.0418 47.0418 64.7345 46.6049 64.4712 46.0807C64.2517 45.5564 64.1201 44.9448 64.1201 44.2458C64.1201 43.6778 64.2078 43.1536 64.3834 42.673C64.559 42.2361 64.7345 41.7992 65.0418 41.4497C65.3051 41.1002 65.6124 40.8381 65.9635 40.576C66.3146 40.3575 66.6657 40.1391 67.0608 40.008C66.8852 39.6148 66.7096 39.178 66.578 38.6974C66.4463 38.1731 66.3585 37.7363 66.3146 37.2994H63.5056C63.1983 37.2994 62.935 37.212 62.8033 37.0372C62.6716 36.8188 62.6277 36.5567 62.6277 36.1635C62.6277 36.0324 62.6277 35.814 62.6716 35.5955C62.7155 35.3771 62.7594 35.2024 62.8472 35.0713H78.9114C79.2626 35.0713 79.482 35.2024 79.6137 35.3771C79.7454 35.5955 79.7892 35.8577 79.7892 36.2072C79.7892 36.3819 79.7892 36.6004 79.7454 36.8188C79.7015 37.0372 79.6576 37.212 79.6137 37.2994H76.0585C76.0146 37.7363 75.9268 38.2168 75.839 38.6974C75.7512 39.1343 75.5757 39.6148 75.3562 40.008C75.7512 40.1391 76.1463 40.3575 76.4974 40.576C76.8485 40.8381 77.1558 41.1002 77.463 41.4497C77.7264 41.7992 77.9458 42.2361 78.1214 42.673C78.2531 43.1536 78.3408 43.6778 78.3408 44.2458C78.3408 44.9448 78.2531 45.5564 77.9897 46.0807C77.7264 46.5612 77.4191 46.9981 77.068 47.3476C76.673 47.6971 76.2779 47.9593 75.839 48.134C75.4001 48.3088 75.0051 48.3961 74.6101 48.3961ZM71.3182 41.3187C71.8449 40.9692 72.2399 40.4012 72.5472 39.6585C72.8544 38.9158 73.03 38.1295 73.0739 37.2994H69.2992C69.3431 37.7363 69.387 38.1295 69.5187 38.5663C69.6065 38.9595 69.7381 39.3527 69.9137 39.7022C70.0893 40.0954 70.3087 40.4012 70.5282 40.707C70.7915 40.9692 71.0549 41.1876 71.3182 41.3187Z" fill="#377044"/>
<path d="M89.9499 48.2651C89.4232 48.2651 89.0282 48.1777 88.721 48.0029C88.4137 47.8282 88.282 47.435 88.282 46.8234V45.6875C88.0187 45.8185 87.6237 45.9059 87.1848 45.9933C86.702 46.0807 86.2192 46.1244 85.7364 46.1244C84.2002 46.1244 82.8834 45.7749 81.8739 45.1195C80.8205 44.4642 80.1183 43.5905 79.7232 42.4983C80.0744 42.0177 80.3816 41.4497 80.6011 40.7944C80.8205 40.1828 80.9522 39.4838 80.9522 38.7848C80.9522 38.5226 80.9522 38.2605 80.9083 37.9984C80.8644 37.6926 80.8205 37.4741 80.7766 37.2994H79.2404C78.9332 37.2994 78.6698 37.212 78.5382 37.0372C78.4065 36.8188 78.3626 36.5567 78.3626 36.1635C78.3626 35.9887 78.3626 35.814 78.4065 35.5955C78.4504 35.3771 78.4943 35.2024 78.5821 35.0713H83.2345C83.454 35.4645 83.6735 35.9887 83.849 36.6441C83.9807 37.2994 84.0685 37.9984 84.0685 38.7411H88.282V36.3819C88.282 35.945 88.3698 35.5955 88.5893 35.3771C88.7649 35.2024 89.116 35.0713 89.5549 35.0713H92.7151C93.0223 35.0713 93.2418 35.2024 93.3734 35.3771C93.5051 35.5955 93.5929 35.8577 93.5929 36.2072C93.5929 36.3819 93.549 36.5567 93.5051 36.8188C93.4612 37.0372 93.4173 37.212 93.3734 37.2994H91.3544V48.0903C91.2228 48.134 91.0033 48.1777 90.74 48.2214C90.4766 48.2651 90.2133 48.2651 89.9499 48.2651ZM85.9119 43.5468C86.4386 43.5468 86.9214 43.5031 87.3164 43.372C87.7115 43.2846 88.0187 43.1536 88.282 42.9788V40.9255H83.7612C83.7174 41.1876 83.6296 41.4061 83.4979 41.6245C83.4101 41.8866 83.2784 42.1051 83.1468 42.2798C83.3223 42.5856 83.6735 42.8478 84.1563 43.1536C84.5952 43.4157 85.2097 43.5468 85.9119 43.5468Z" fill="#377044"/>
<path d="M88.3305 36.0428C88.3744 35.8681 88.4183 35.6496 88.4183 35.3875C88.4622 35.169 88.4622 34.9506 88.4622 34.7759C88.4622 34.339 88.3305 33.9895 88.0672 33.771C87.8039 33.5526 87.4088 33.4215 86.926 33.4215C86.7066 33.4215 86.3993 33.4215 86.0921 33.4652C85.741 33.4652 85.4337 33.4652 85.1265 33.4652C84.0292 33.4652 83.1953 33.2468 82.6247 32.7225C82.0541 32.242 81.7908 31.6303 81.7908 30.8876C81.7908 30.2323 81.9663 29.7517 82.3175 29.4896C82.6686 29.1838 83.0636 29.0527 83.5025 29.0527C83.722 29.0527 83.9414 29.0964 84.117 29.1838C84.2926 29.2275 84.4681 29.3149 84.5998 29.4022C84.5559 29.4896 84.5559 29.577 84.512 29.7081C84.512 29.7954 84.512 29.9265 84.512 29.9702C84.512 30.7566 84.9948 31.1061 85.9165 31.1061C86.2238 31.1061 86.5749 31.1061 86.9699 31.0187C87.321 30.975 87.6722 30.9313 87.9794 30.9313C88.945 30.9313 89.7351 31.1934 90.3495 31.674C90.9201 32.1546 91.2274 32.8536 91.2274 33.771C91.2274 34.1205 91.2274 34.4264 91.1396 34.6885C91.0518 34.9506 91.0079 35.169 90.9201 35.3438L88.3305 36.0428Z" fill="#377044"/>
<path d="M78.1762 63.0773C77.6495 63.0773 77.1667 63.0336 76.7278 62.9025C76.2889 62.7714 75.8939 62.5967 75.5428 62.3783C75.2355 62.1598 74.9722 61.8977 74.7527 61.5919C74.5333 61.2861 74.4016 60.9366 74.3138 60.6307C74.4016 60.1939 74.5772 59.8007 74.8844 59.4512C75.1477 59.1017 75.4989 58.7958 75.9378 58.5774C75.5867 58.4026 75.3233 58.0968 75.06 57.66C74.7966 57.2668 74.6649 56.7425 74.6211 56.1309H72.6898V62.9025C72.646 62.9025 72.5143 62.9462 72.4265 62.9462C72.2948 62.9899 72.1632 62.9899 72.0315 62.9899C71.7242 62.9899 71.5487 62.9462 71.3731 62.8588C71.2414 62.7278 71.1537 62.553 71.1537 62.2909V56.1309H70.2319C70.0564 56.1309 69.9686 56.0872 69.8808 55.9998C69.793 55.9124 69.7491 55.7377 69.7491 55.5629C69.7491 55.4756 69.793 55.3882 69.793 55.2571C69.8369 55.1697 69.8369 55.0824 69.8808 54.995H71.1537V53.9028C71.1537 53.0727 71.3731 52.4174 71.8559 51.9805C72.3387 51.5436 72.9532 51.3252 73.7871 51.3252C74.1821 51.3252 74.5772 51.3689 74.8844 51.4999C75.2355 51.631 75.4989 51.7621 75.7183 51.9368C75.9378 52.1553 76.1133 52.33 76.245 52.5921C76.3328 52.8543 76.4206 53.1164 76.4206 53.3785C76.4206 53.728 76.3328 53.9465 76.2011 54.1212C76.0695 54.296 75.85 54.3834 75.5867 54.3834C75.455 54.3834 75.2794 54.3397 75.1477 54.296C75.06 54.2523 74.9283 54.2086 74.8405 54.1649C74.8405 54.0775 74.8844 53.9902 74.8844 53.9028C74.8844 53.8154 74.8844 53.728 74.8844 53.6407C74.8844 53.3348 74.7966 53.0727 74.5772 52.898C74.3577 52.6795 74.0944 52.5921 73.7871 52.5921C73.436 52.5921 73.1726 52.7232 72.9971 52.898C72.7776 53.1164 72.6898 53.4222 72.6898 53.9028V54.995H81.5119C81.8631 54.995 81.9948 55.1697 81.9948 55.5629C81.9948 55.6503 81.9948 55.7377 81.9948 55.8687C81.9509 55.9561 81.9509 56.0872 81.907 56.1309H80.678V58.5774C80.678 58.8395 80.5902 59.0143 80.5025 59.1453C80.3708 59.2764 80.1952 59.3201 79.888 59.3201H78.0446C77.7373 59.3201 77.5179 59.3638 77.2545 59.4075C77.0351 59.4948 76.8156 59.5822 76.64 59.7133C76.4645 59.8007 76.3328 59.9317 76.2011 60.1065C76.0695 60.2375 75.9817 60.4123 75.9378 60.587C76.0695 60.9366 76.3328 61.2424 76.7717 61.4608C77.2106 61.6792 77.6934 61.7666 78.264 61.7666C78.8346 61.7666 79.3174 61.7229 79.6685 61.5482C80.0197 61.4171 80.3269 61.2424 80.5025 61.1113C80.678 61.155 80.8097 61.2424 80.8975 61.3734C80.9853 61.5045 81.0291 61.6356 81.0291 61.8103C81.0291 61.9851 80.9853 62.1161 80.8975 62.2472C80.8536 62.3346 80.7219 62.4656 80.5902 62.553C80.3269 62.6841 80.0197 62.8151 79.6246 62.9462C79.2296 63.0336 78.7468 63.0773 78.1762 63.0773ZM79.1418 58.0531V56.1309H76.2011C76.245 56.5678 76.3767 56.9609 76.5962 57.3104C76.7717 57.66 77.0351 57.9221 77.3862 58.0968C77.5618 58.0531 77.7812 58.0531 77.9568 58.0531H79.1418Z" fill="#373435"/>
<path d="M78.7651 54.3298C78.5895 54.3298 78.4139 54.2424 78.2384 54.1551C78.1067 54.024 78.0189 53.7619 78.0189 53.456C78.0189 53.1939 78.1067 52.9755 78.1945 52.757C78.2823 52.5386 78.4139 52.3638 78.5895 52.2328C78.7651 52.058 78.9407 51.9707 79.204 51.8833C79.4235 51.7959 79.6429 51.7959 79.9063 51.7959C80.1696 51.7959 80.433 51.7959 80.6524 51.8833C80.8719 51.9707 81.0475 52.1017 81.223 52.2328C81.3986 52.3638 81.5303 52.5386 81.6181 52.757C81.7497 52.9755 81.7936 53.1939 81.7936 53.456C81.7936 53.7619 81.7059 54.024 81.5742 54.1551C81.4425 54.2424 81.2669 54.3298 81.0475 54.3298C80.8719 54.3298 80.6963 54.2861 80.5647 54.1551C80.6086 54.1114 80.6086 54.0677 80.6524 53.9803C80.6524 53.8929 80.6524 53.8055 80.6524 53.7182C80.6524 53.4997 80.5647 53.325 80.433 53.1502C80.3013 53.0192 80.1257 52.9755 79.9063 52.9755C79.6868 52.9755 79.5113 53.0192 79.3796 53.1939C79.2479 53.325 79.1601 53.4997 79.1601 53.7182C79.1601 53.8055 79.204 53.8929 79.204 53.9803C79.204 54.0677 79.2479 54.1114 79.2479 54.1551C79.1162 54.2861 78.9407 54.3298 78.7651 54.3298Z" fill="#373435"/>
<path d="M88.7795 56.1339C88.7356 56.3524 88.6917 56.5271 88.604 56.7456C88.5601 56.9203 88.4723 57.1388 88.3845 57.3135C88.2967 57.4883 88.165 57.663 88.0773 57.7941C87.9456 57.9688 87.8139 58.0562 87.7261 58.1436C88.0334 58.362 88.2967 58.6242 88.5162 58.9737C88.7795 59.3232 88.8673 59.76 88.8673 60.2843C88.8673 60.6775 88.7795 61.0707 88.604 61.4202C88.4284 61.7697 88.165 62.0755 87.8578 62.3376C87.5506 62.5561 87.1555 62.7745 86.7166 62.9056C86.2777 63.0366 85.7949 63.124 85.2243 63.124C84.2148 63.124 83.4686 62.9056 82.9419 62.5561C82.4152 62.2066 82.1519 61.726 82.1519 61.1581C82.1519 60.6775 82.3274 60.2843 82.6786 59.9785C83.0297 59.7164 83.5125 59.5853 84.0831 59.5853C84.4342 59.5853 84.7415 59.629 85.0487 59.7164C85.3121 59.8037 85.5754 59.9348 85.8388 60.0659C86.0582 60.1969 86.2777 60.4154 86.4533 60.5901C86.6288 60.8086 86.8044 61.027 86.8922 61.2891C87.0677 61.1144 87.1555 60.9833 87.2433 60.8086C87.3311 60.5901 87.375 60.4154 87.375 60.1532C87.375 59.8037 87.2872 59.4979 87.1116 59.2795C86.9361 59.0173 86.7166 58.8426 86.4972 58.7552C86.2338 58.8426 85.9266 58.8863 85.6632 58.93C85.356 58.9737 85.0048 58.9737 84.6098 58.9737C83.9953 58.9737 83.5564 58.93 83.2492 58.7989C82.9419 58.6678 82.8103 58.4494 82.8103 58.0999C82.8103 57.9688 82.8103 57.8378 82.898 57.7504C82.9419 57.6193 82.9858 57.5756 83.0297 57.4883C83.6881 57.532 84.3026 57.532 84.8293 57.532C85.3999 57.532 85.9705 57.5756 86.541 57.5756C86.6727 57.4446 86.8044 57.2261 86.9361 56.964C87.0677 56.7456 87.1116 56.4398 87.1555 56.1339H81.7569C81.5813 56.1339 81.4496 56.0902 81.4057 56.0029C81.3179 55.9155 81.274 55.7407 81.274 55.566C81.274 55.4786 81.3179 55.3912 81.3179 55.2602C81.3179 55.1728 81.3618 55.0854 81.3618 54.998H89.4818C89.789 54.998 89.9646 55.1728 89.9646 55.566C89.9646 55.6534 89.9646 55.7844 89.9207 55.8718C89.9207 56.0029 89.8768 56.0902 89.8768 56.1339H88.7795ZM85.1365 61.9444C85.2682 61.9444 85.3999 61.9444 85.5315 61.9008C85.6632 61.9008 85.7949 61.8571 85.8827 61.8571C85.751 61.4639 85.5315 61.2017 85.2243 60.9833C84.9609 60.8086 84.6537 60.7212 84.2587 60.7212C84.127 60.7212 83.9514 60.7649 83.8637 60.8086C83.732 60.8959 83.6442 61.027 83.6442 61.2017C83.6442 61.4202 83.7759 61.5949 84.0392 61.726C84.2587 61.8571 84.6098 61.9444 85.1365 61.9444Z" fill="#373435"/>
<path d="M91.4123 62.9899C91.149 62.9899 90.9295 62.9462 90.7978 62.8588C90.6223 62.7277 90.5784 62.553 90.5784 62.2909V56.1309H89.6566C89.4811 56.1309 89.3494 56.0872 89.2616 55.9998C89.2177 55.9124 89.1738 55.7377 89.1738 55.5629C89.1738 55.4755 89.1738 55.3882 89.2177 55.2571C89.2177 55.1697 89.2616 55.0824 89.2616 54.995H90.5784V53.8591C90.5784 53.4222 90.4906 53.1164 90.2711 52.898C90.0517 52.7232 89.7883 52.5921 89.4372 52.5921C89.0861 52.5921 88.8227 52.7232 88.6471 52.898C88.4716 53.1164 88.3838 53.3785 88.3838 53.6407C88.3838 53.728 88.3838 53.8154 88.3838 53.9028C88.4277 53.9902 88.4277 54.0775 88.4277 54.1649C88.3399 54.2086 88.2521 54.2523 88.1204 54.296C87.9888 54.3397 87.8571 54.3834 87.6815 54.3834C87.4182 54.3834 87.2426 54.296 87.0671 54.1212C86.9354 53.9465 86.8476 53.728 86.8476 53.3785C86.8476 53.1164 86.8915 52.8543 87.0232 52.5921C87.1548 52.33 87.3304 52.1553 87.5499 51.9368C87.7693 51.7621 88.0327 51.631 88.3399 51.4999C88.6471 51.3689 89.0422 51.3252 89.4372 51.3252C90.2711 51.3252 90.9295 51.5436 91.4123 51.9805C91.8512 52.4174 92.1146 53.029 92.1146 53.8154V54.995H93.0802C93.2557 54.995 93.3874 55.0387 93.4313 55.126C93.5191 55.2134 93.563 55.3882 93.563 55.5629C93.563 55.6503 93.5191 55.7377 93.5191 55.8687C93.5191 55.9561 93.4752 56.0872 93.4752 56.1309H92.1146V62.9025C92.0268 62.9025 91.939 62.9462 91.8073 62.9462C91.6757 62.9899 91.544 62.9899 91.4123 62.9899Z" fill="#373435"/>
<path d="M105.89 56.1339V60.1532C105.846 60.1532 105.714 60.1969 105.626 60.1969C105.495 60.2406 105.363 60.2406 105.231 60.2406C104.968 60.2406 104.748 60.1969 104.617 60.1095C104.441 59.9785 104.353 59.8037 104.353 59.4979V56.1339H102.466V62.9056C102.378 62.9056 102.291 62.9493 102.159 62.9493C102.027 62.993 101.896 62.993 101.808 62.993C101.5 62.993 101.281 62.9493 101.149 62.8619C100.974 62.7308 100.93 62.5561 100.93 62.2939V59.8911H99.3498C99.262 60.5464 99.0426 61.027 98.7792 61.4202C98.472 61.7697 98.1209 61.9444 97.7258 61.9444C97.4625 61.9444 97.243 61.8571 97.0675 61.726C96.8919 61.5512 96.8041 61.3765 96.7602 61.1144C97.0675 60.8522 97.3308 60.5027 97.5064 60.1095C97.7258 59.7164 97.8136 59.2358 97.8136 58.7115C97.8136 58.2746 97.7697 57.9251 97.6819 57.5756C97.4625 57.7067 97.1553 57.8815 96.848 58.0562C96.5408 58.2746 96.2335 58.5368 95.9702 58.8863C95.8385 59.4105 95.663 59.8037 95.3996 60.1095C95.1363 60.4154 94.829 60.5464 94.4779 60.5464C94.1706 60.5464 93.9512 60.459 93.8195 60.328C93.644 60.1532 93.5562 59.9348 93.5123 59.7164C93.7756 59.4542 94.039 59.1484 94.2145 58.7989C94.434 58.4057 94.5657 57.9688 94.5657 57.4009C94.5657 57.1388 94.5218 56.9203 94.4779 56.7019C94.434 56.5271 94.3901 56.3087 94.3023 56.1339H93.1611C92.8539 56.1339 92.6783 55.9592 92.6783 55.5223C92.6783 55.4786 92.7222 55.3476 92.7222 55.2602C92.7222 55.1728 92.7661 55.0854 92.7661 54.998H95.3557C95.4874 55.1728 95.6191 55.4349 95.7507 55.7844C95.8824 56.1339 95.9702 56.5708 96.0141 57.0514C96.453 56.7456 96.848 56.4834 97.2869 56.265C97.7258 56.0466 98.1648 55.8718 98.5159 55.7844C98.7353 56.0466 98.9548 56.4398 99.1304 56.964C99.262 57.4446 99.3498 58.0125 99.3937 58.6242H100.93V55.7407C100.93 55.4786 100.974 55.3039 101.062 55.1728C101.193 55.0417 101.369 54.998 101.676 54.998H106.811C107.119 54.998 107.25 55.1728 107.25 55.566C107.25 55.6534 107.25 55.7407 107.25 55.8718C107.206 55.9592 107.206 56.0902 107.162 56.1339H105.89Z" fill="#373435"/>
</svg>
