<svg width="109" height="103" viewBox="0 0 109 103" fill="none" xmlns="http://www.w3.org/2000/svg">
<path fill-rule="evenodd" clip-rule="evenodd" d="M31.1217 30.123C36.3447 30.1666 40.8216 33.2685 42.709 38.1179C44.5524 42.8799 43.4112 48.035 39.4171 51.4427C36.7398 53.7145 35.5986 56.5542 35.2475 59.9182C34.8524 63.3258 31.9556 65.9908 28.6638 66.0345C25.1964 66.0782 22.2557 63.6316 21.6851 60.1366C21.6412 59.8308 21.5095 59.4376 21.6412 59.1755C21.8167 58.826 22.2118 58.3017 22.4751 58.3017C22.8701 58.3017 23.3529 58.6512 23.5724 59.0007C23.7919 59.3065 23.7041 59.7871 23.7919 60.1803C24.2747 62.4521 26.3814 64.1122 28.6199 63.9812C31.0339 63.8938 32.9651 62.0589 33.2724 59.6997C33.3601 58.6949 33.5357 57.7338 33.7552 56.7289C34.2819 54.1514 35.6864 52.0543 37.7054 50.3505C39.7683 48.6904 40.9094 46.5496 41.3483 43.9284C42.2701 38.5984 38.2321 33.0501 32.8334 32.3074C29.1905 31.8268 26.0742 32.7879 23.5285 35.5403C23.0896 36.0208 22.6507 36.414 22.0362 35.8024C21.4656 35.2781 21.5534 34.7102 22.0362 34.1423C23.9674 31.652 27.5226 30.0793 31.1217 30.123Z" fill="#F58B71"/>
<path fill-rule="evenodd" clip-rule="evenodd" d="M31.1217 30.123C36.3447 30.1666 40.8216 33.2685 42.709 38.1179C44.5524 42.8799 43.4112 48.035 39.4171 51.4427C36.7398 53.7145 35.5986 56.5542 35.2475 59.9182C34.8524 63.3258 31.9556 65.9908 28.6638 66.0345C25.1964 66.0782 22.2557 63.6316 21.6851 60.1366C21.6412 59.8308 21.5095 59.4376 21.6412 59.1755C21.8167 58.826 22.2118 58.3017 22.4751 58.3017C22.8701 58.3017 23.3529 58.6512 23.5724 59.0007C23.7919 59.3065 23.7041 59.7871 23.7919 60.1803C24.2747 62.4521 26.3814 64.1122 28.6199 63.9812C31.0339 63.8938 32.9651 62.0589 33.2724 59.6997C33.3601 58.6949 33.5357 57.7338 33.7552 56.7289C34.2819 54.1514 35.6864 52.0543 37.7054 50.3505C39.7683 48.6904 40.9094 46.5496 41.3483 43.9284C42.2701 38.5984 38.2321 33.0501 32.8334 32.3074C29.1905 31.8268 26.0742 32.7879 23.5285 35.5403C23.0896 36.0208 22.6507 36.414 22.0362 35.8024C21.4656 35.2781 21.5534 34.7102 22.0362 34.1423C23.9674 31.652 27.5226 30.0793 31.1217 30.123Z" stroke="#F58B71" stroke-width="0.0135276"/>
<path fill-rule="evenodd" clip-rule="evenodd" d="M31.0226 49.8004C31.0226 48.4024 31.2859 47.8782 32.0321 47.9218C33.3049 48.0092 32.9977 49.014 33.0855 49.7567C33.3488 52.8586 31.3298 55.6983 28.5646 56.3099C27.0723 56.5721 25.7995 56.2662 24.8339 55.174C23.8244 53.9508 23.561 52.5528 24.2194 51.1548C24.6144 50.281 25.2289 49.4946 25.8873 48.8393C26.9845 47.7034 27.0723 47.4413 26.1506 46.1306C25.975 45.8248 25.7556 45.519 25.5361 45.2569C23.6049 43.0288 24.1755 40.6259 25.5361 38.66C27.7746 35.3397 32.6026 34.7281 35.675 37.3057C38.6597 39.8396 38.8791 44.6452 36.0262 47.4413C35.7628 47.7034 35.4117 48.0092 35.0606 48.0092C34.7533 48.0529 34.1827 47.7471 34.1388 47.4413C34.0072 47.0918 34.1388 46.5238 34.4022 46.2617C35.4117 45.1695 36.0701 43.9462 36.0701 42.4172C36.0262 40.1017 34.1827 38.0484 31.8126 37.7425C29.7058 37.4804 27.1601 39.0969 26.5456 41.0628C26.2384 42.024 26.414 42.854 26.9845 43.6404C27.4673 44.3831 27.994 45.0821 28.433 45.8685C29.1352 47.1355 29.0035 48.3587 28.0379 49.4509C27.5551 49.9752 27.0723 50.4557 26.5895 51.0237C25.8434 51.8538 25.7556 53.0333 26.3262 53.7323C26.8968 54.4313 28.0379 54.5187 29.0913 53.9071C30.3203 53.2081 31.0664 51.679 31.0226 49.8004Z" fill="#F58B71"/>
<path fill-rule="evenodd" clip-rule="evenodd" d="M31.0226 49.8004C31.0226 48.4024 31.2859 47.8782 32.0321 47.9218C33.3049 48.0092 32.9977 49.014 33.0855 49.7567C33.3488 52.8586 31.3298 55.6983 28.5646 56.3099C27.0723 56.5721 25.7995 56.2662 24.8339 55.174C23.8244 53.9508 23.561 52.5528 24.2194 51.1548C24.6144 50.281 25.2289 49.4946 25.8873 48.8393C26.9845 47.7034 27.0723 47.4413 26.1506 46.1306C25.975 45.8248 25.7556 45.519 25.5361 45.2569C23.6049 43.0288 24.1755 40.6259 25.5361 38.66C27.7746 35.3397 32.6026 34.7281 35.675 37.3057C38.6597 39.8396 38.8791 44.6452 36.0262 47.4413C35.7628 47.7034 35.4117 48.0092 35.0606 48.0092C34.7533 48.0529 34.1827 47.7471 34.1388 47.4413C34.0072 47.0918 34.1388 46.5238 34.4022 46.2617C35.4117 45.1695 36.0701 43.9462 36.0701 42.4172C36.0262 40.1017 34.1827 38.0484 31.8126 37.7425C29.7058 37.4804 27.1601 39.0969 26.5456 41.0628C26.2384 42.024 26.414 42.854 26.9845 43.6404C27.4673 44.3831 27.994 45.0821 28.433 45.8685C29.1352 47.1355 29.0035 48.3587 28.0379 49.4509C27.5551 49.9752 27.0723 50.4557 26.5895 51.0237C25.8434 51.8538 25.7556 53.0333 26.3262 53.7323C26.8968 54.4313 28.0379 54.5187 29.0913 53.9071C30.3203 53.2081 31.0664 51.679 31.0226 49.8004Z" stroke="#F58B71" stroke-width="0.0135276"/>
<path fill-rule="evenodd" clip-rule="evenodd" d="M53.4601 53.4104C53.4601 59.1772 49.5538 64.114 43.8918 65.2935C42.9261 65.512 41.8728 65.512 40.8632 65.3809C40.5121 65.3372 40.0293 64.7256 39.9415 64.3324C39.8537 63.7208 40.3366 63.4587 40.9949 63.4587C48.7198 63.2402 53.1967 56.8181 50.7827 49.3911C50.5633 48.6484 50.2121 47.9494 49.9049 47.2504C49.6415 46.5951 49.7293 46.0708 50.3877 45.7213C51.09 45.4155 51.5289 45.765 51.7922 46.4203C52.8456 48.6047 53.504 50.9202 53.4601 53.4104Z" fill="#F58B71"/>
<path fill-rule="evenodd" clip-rule="evenodd" d="M53.4601 53.4104C53.4601 59.1772 49.5538 64.114 43.8918 65.2935C42.9261 65.512 41.8728 65.512 40.8632 65.3809C40.5121 65.3372 40.0293 64.7256 39.9415 64.3324C39.8537 63.7208 40.3366 63.4587 40.9949 63.4587C48.7198 63.2402 53.1967 56.8181 50.7827 49.3911C50.5633 48.6484 50.2121 47.9494 49.9049 47.2504C49.6415 46.5951 49.7293 46.0708 50.3877 45.7213C51.09 45.4155 51.5289 45.765 51.7922 46.4203C52.8456 48.6047 53.504 50.9202 53.4601 53.4104Z" stroke="#F58B71" stroke-width="0.0135276"/>
<path fill-rule="evenodd" clip-rule="evenodd" d="M49.3329 52.9227C49.2452 57.6847 45.2511 61.4419 40.5986 61.0487C39.8963 61.005 39.5013 60.6118 39.5013 60.0002C39.5013 59.3886 39.8963 59.0391 40.5547 59.0391C41.2569 58.9954 42.0031 58.9517 42.7054 58.7332C46.1728 57.8595 47.8406 54.5829 46.7872 50.8694C46.6556 50.4325 46.48 50.0393 46.3044 49.6025C46.085 48.9034 46.2167 48.3355 46.9628 48.0297C47.709 47.7676 48.0601 48.2918 48.2357 48.8161C48.6307 50.1704 48.9379 51.5684 49.3329 52.9227Z" fill="#F58B71"/>
<path fill-rule="evenodd" clip-rule="evenodd" d="M49.3329 52.9227C49.2452 57.6847 45.2511 61.4419 40.5986 61.0487C39.8963 61.005 39.5013 60.6118 39.5013 60.0002C39.5013 59.3886 39.8963 59.0391 40.5547 59.0391C41.2569 58.9954 42.0031 58.9517 42.7054 58.7332C46.1728 57.8595 47.8406 54.5829 46.7872 50.8694C46.6556 50.4325 46.48 50.0393 46.3044 49.6025C46.085 48.9034 46.2167 48.3355 46.9628 48.0297C47.709 47.7676 48.0601 48.2918 48.2357 48.8161C48.6307 50.1704 48.9379 51.5684 49.3329 52.9227Z" stroke="#F58B71" stroke-width="0.0135276"/>
<path fill-rule="evenodd" clip-rule="evenodd" d="M44.6366 53.0829C44.5049 55.2237 42.7932 56.8838 40.7741 56.8838C40.028 56.8838 39.5452 56.5343 39.5013 55.7916C39.5013 55.0926 39.9841 54.8741 40.6425 54.8305C42.3542 54.6557 42.9248 53.6946 42.1348 52.1655C41.8275 51.5102 41.8275 51.0296 42.5298 50.6801C43.1882 50.2869 43.7149 50.6364 43.9782 51.248C44.2855 51.816 44.4171 52.4713 44.6366 53.0829Z" fill="#F58B71"/>
<path fill-rule="evenodd" clip-rule="evenodd" d="M44.6366 53.0829C44.5049 55.2237 42.7932 56.8838 40.7741 56.8838C40.028 56.8838 39.5452 56.5343 39.5013 55.7916C39.5013 55.0926 39.9841 54.8741 40.6425 54.8305C42.3542 54.6557 42.9248 53.6946 42.1348 52.1655C41.8275 51.5102 41.8275 51.0296 42.5298 50.6801C43.1882 50.2869 43.7149 50.6364 43.9782 51.248C44.2855 51.816 44.4171 52.4713 44.6366 53.0829Z" stroke="#F58B71" stroke-width="0.0135276"/>
<path fill-rule="evenodd" clip-rule="evenodd" d="M39.219 90.8191C45.011 93.0212 51.3466 94.235 57.9846 94.235C66.1923 94.235 73.961 92.3564 80.808 89.0798C72.4248 95.3708 62.0226 99.128 50.7425 99.128C44.3125 99.128 38.1676 97.9164 32.5256 95.7105L39.219 90.8191ZM25.1945 82.7323C14.7863 74.2247 8.21188 61.74 8.21188 47.8383C8.21188 22.2372 30.5086 1.4417 57.9846 1.4417C60.0036 1.4417 62.0226 1.57277 63.9977 1.79121C59.7841 0.611632 55.3072 0 50.7425 0C23.2227 0 0.925934 22.1935 0.925934 49.5858C0.925934 67.035 10.0024 82.3855 23.7208 91.2123L25.1945 82.7323Z" fill="#F47D5C"/>
<path d="M29.2477 79.6162L22.3129 102.072L40.6594 85.1209L29.2477 79.6162Z" fill="#377044"/>
<path fill-rule="evenodd" clip-rule="evenodd" d="M16.5836 48.6527C16.5836 69.754 33.7451 86.836 54.9445 86.836C68.9918 86.836 81.2974 79.3047 87.9809 68.0663H92.7958C85.7151 81.709 71.4087 91.0301 54.9445 91.0301C31.4188 91.0301 12.37 72.0695 12.37 48.6527C12.37 25.236 31.4188 6.27539 54.9445 6.27539C70.6004 6.27539 84.3052 14.7037 91.7013 27.2617H86.7212C79.818 17.1261 68.1509 10.4694 54.9445 10.4694C33.7451 10.4694 16.5836 27.5514 16.5836 48.6527Z" fill="#377044"/>
<path d="M67.0315 43.2004H63.3446C62.9935 45.4722 62.0718 46.5644 60.6234 46.5644C60.0528 46.5644 59.6139 46.4333 59.2189 46.0838C58.8238 45.7343 58.6044 45.3411 58.5605 44.8605C59.0872 44.4673 59.4822 43.8994 59.8333 43.1567C60.1406 42.414 60.3161 41.4529 60.3161 40.317C60.3161 39.8801 60.2723 39.3995 60.2284 38.7879C60.1406 38.1763 60.0528 37.652 59.8772 37.1714H58.2533C57.9021 37.1714 57.6827 37.0841 57.551 36.9093C57.4193 36.6909 57.3315 36.4288 57.3315 36.0356C57.3315 35.9045 57.3315 35.6861 57.3754 35.4676C57.4193 35.2492 57.4632 35.0744 57.551 34.9434H71.4645C71.8157 34.9434 72.0351 35.0744 72.1668 35.2492C72.2985 35.4676 72.3423 35.7297 72.3423 36.0792C72.3423 36.254 72.3423 36.4724 72.2985 36.6909C72.2546 36.9093 72.2107 37.0841 72.1668 37.1714H70.1039V47.9624C69.9722 48.0061 69.7967 48.0498 69.5333 48.0934C69.27 48.1371 69.0066 48.1371 68.7433 48.1371C68.2166 48.1371 67.7777 48.0498 67.4704 47.875C67.1632 47.7003 67.0315 47.3071 67.0315 46.6954V43.2004ZM67.0315 40.7975V37.1714H63.0813C63.1252 37.4773 63.213 37.8268 63.2569 38.1326C63.3008 38.4821 63.3446 38.7879 63.3885 39.0937C63.4324 39.4432 63.4324 39.749 63.4763 40.0112C63.4763 40.317 63.5202 40.5791 63.5202 40.7975H67.0315Z" fill="#377044"/>
<path d="M65.27 52.2078C63.9533 52.2078 62.9438 52.033 62.2415 51.6398C61.5392 51.2903 61.232 50.8535 61.232 50.2855C61.232 49.9797 61.2759 49.7176 61.4515 49.4991C61.5831 49.2807 61.7587 49.1059 61.9343 49.0186C62.1976 49.237 62.6365 49.4117 63.2071 49.5865C63.7777 49.7613 64.4799 49.8486 65.27 49.8486C66.06 49.8486 66.7184 49.7613 67.289 49.5865C67.8596 49.4117 68.2546 49.237 68.5618 49.0186C68.7374 49.1059 68.913 49.2807 69.0446 49.4991C69.2202 49.7176 69.308 49.9797 69.308 50.2855C69.308 50.8535 68.9569 51.2903 68.2985 51.6398C67.6401 52.033 66.6306 52.2078 65.27 52.2078Z" fill="#377044"/>
<path d="M78.3844 37.1714C78.6916 37.7831 79.2622 38.2636 80.0961 38.5695C80.9301 38.8753 81.8518 39.05 82.9491 39.05H83.388C83.4319 39.1811 83.4319 39.3122 83.4758 39.4432C83.5197 39.5743 83.5636 39.749 83.5636 39.9675C83.5636 40.3607 83.4319 40.6665 83.1685 40.9286C82.9052 41.1471 82.5541 41.2781 82.0274 41.2781C81.6762 41.2781 81.369 41.2344 81.0618 41.1907L79.9206 43.9431C79.5256 43.7246 79.0866 43.5499 78.6477 43.4188C78.2088 43.2878 77.7699 43.2004 77.2871 43.2004C76.8043 43.2004 76.3654 43.3314 76.0143 43.5062C75.6192 43.681 75.3998 43.9431 75.2681 44.2489C75.5753 44.7732 76.0581 45.1663 76.7165 45.4722C77.331 45.778 78.121 45.9527 78.9989 45.9527C79.7889 45.9527 80.4912 45.8217 81.0618 45.6032C81.6762 45.3848 82.159 45.1227 82.5541 44.8168C82.8174 44.9479 83.0369 45.1227 83.2124 45.3411C83.4319 45.5595 83.5197 45.8217 83.5197 46.1275C83.5197 46.3896 83.4758 46.608 83.388 46.7828C83.3002 47.0012 83.1246 47.176 82.9052 47.3507C82.5541 47.6566 81.9835 47.9187 81.2812 48.1371C80.5789 48.3119 79.745 48.3993 78.7794 48.3993C77.8577 48.3993 77.0238 48.3119 76.2776 48.0934C75.5314 47.875 74.8731 47.5692 74.3025 47.176C73.7319 46.8265 73.2491 46.3896 72.898 45.8654C72.5029 45.3411 72.1957 44.8168 72.0201 44.2052C72.3713 43.2004 72.9419 42.414 73.8197 41.8461C74.6536 41.2344 75.6631 40.9286 76.7604 40.9286C77.0238 40.9286 77.2871 40.9723 77.5504 41.016C77.8138 41.0597 78.0333 41.1471 78.2527 41.1907L78.4722 40.5354C76.7604 39.8364 75.6631 38.7442 75.0925 37.1714H71.8007C71.4496 37.1714 71.2301 37.0841 71.0984 36.9093C70.9667 36.6909 70.879 36.4288 70.879 36.0356C70.879 35.9045 70.879 35.6861 70.9229 35.4676C70.9667 35.2492 71.0106 35.0744 71.0984 34.9434H84.0903C84.3975 34.9434 84.6608 35.0744 84.7925 35.2492C84.9242 35.4676 84.9681 35.7297 84.9681 36.0792C84.9681 36.254 84.9681 36.4724 84.9242 36.6909C84.8803 36.9093 84.8364 37.0841 84.7925 37.1714H78.3844Z" fill="#377044"/>
<path d="M80.5453 35.9139C80.5892 35.7392 80.5892 35.5207 80.633 35.2586C80.6769 35.0401 80.6769 34.8217 80.6769 34.647C80.6769 34.2101 80.5453 33.8606 80.2819 33.6421C80.0186 33.4237 79.6236 33.2926 79.1408 33.2926C78.8774 33.2926 78.6141 33.2926 78.2629 33.3363C77.9557 33.3363 77.6485 33.3363 77.3412 33.3363C76.2439 33.3363 75.41 33.1179 74.8394 32.5936C74.2688 32.113 74.0055 31.5014 74.0055 30.7587C74.0055 30.1034 74.1811 29.6228 74.5322 29.3607C74.8833 29.0986 75.2783 28.9238 75.7172 28.9238C75.9367 28.9238 76.1123 28.9675 76.3317 29.0549C76.5073 29.0986 76.6828 29.186 76.8145 29.2733C76.7706 29.3607 76.7267 29.4481 76.7267 29.5791C76.7267 29.7102 76.7267 29.7976 76.7267 29.8413C76.7267 30.6277 77.1657 30.9772 78.1313 30.9772C78.4385 30.9772 78.7896 30.9772 79.1408 30.8898C79.5358 30.8461 79.8869 30.8024 80.1941 30.8024C81.1597 30.8024 81.9059 31.0645 82.5204 31.5451C83.1348 32.0257 83.4421 32.7247 83.4421 33.6421C83.4421 33.9916 83.3982 34.2974 83.3543 34.5596C83.2665 34.8217 83.1787 35.0401 83.1348 35.2149L80.5453 35.9139Z" fill="#377044"/>
<path d="M78.9624 63.1222C78.4357 63.1222 77.909 63.0785 77.4701 62.9474C77.0312 62.8164 76.6362 62.6416 76.3289 62.4232C75.9778 62.2047 75.7144 61.9426 75.495 61.6368C75.2755 61.331 75.1439 61.0252 75.0561 60.6757C75.1439 60.2388 75.3633 59.8893 75.6267 59.4961C75.9339 59.1466 76.285 58.8408 76.6801 58.666C76.3728 58.4476 76.0656 58.1418 75.8022 57.7486C75.5828 57.3117 75.4072 56.8311 75.3633 56.1758H73.476V62.9474C73.3882 62.9911 73.3004 62.9911 73.1688 63.0348C73.0371 63.0348 72.9054 63.0348 72.7737 63.0348C72.5104 63.0348 72.2909 62.9911 72.1593 62.9037C71.9837 62.8164 71.9398 62.5979 71.9398 62.3358V56.1758H71.0181C70.8425 56.1758 70.7108 56.1321 70.6231 56.0447C70.5792 55.9574 70.5353 55.8263 70.5353 55.6079C70.5353 55.5205 70.5353 55.4331 70.5792 55.3457C70.5792 55.2147 70.6231 55.1273 70.6231 55.0399H71.8959V53.9477C71.8959 53.1176 72.1593 52.4623 72.5982 52.0254C73.081 51.5886 73.7393 51.3701 74.5294 51.3701C74.9683 51.3701 75.3194 51.4575 75.6706 51.5449C75.9778 51.6759 76.285 51.807 76.5045 52.0254C76.7239 52.2002 76.8995 52.4186 76.9873 52.6371C77.119 52.8992 77.1629 53.1613 77.1629 53.4235C77.1629 53.773 77.119 54.0351 76.9434 54.1661C76.8117 54.3409 76.5923 54.4283 76.3728 54.4283C76.1973 54.4283 76.0656 54.3846 75.9339 54.3409C75.8022 54.3409 75.7144 54.2535 75.6267 54.2098C75.6267 54.1661 75.6267 54.0788 75.6267 53.9914C75.6267 53.904 75.6267 53.8166 75.6267 53.7293C75.6267 53.4235 75.5389 53.1613 75.3194 52.9429C75.1439 52.7681 74.8805 52.6808 74.5294 52.6808C74.2221 52.6808 73.9588 52.7681 73.7393 52.9866C73.5638 53.1613 73.476 53.5108 73.476 53.9477V55.0399H82.2981C82.6054 55.0399 82.7809 55.2583 82.7809 55.6079C82.7809 55.6952 82.7371 55.8263 82.7371 55.9137C82.7371 56.0447 82.6932 56.1321 82.6493 56.1758H81.4203V58.6223C81.4203 58.8845 81.3764 59.1029 81.2447 59.1903C81.157 59.3213 80.9375 59.365 80.6303 59.365H78.7868C78.5235 59.365 78.2601 59.4087 78.0407 59.4961C77.7773 59.5398 77.6018 59.6271 77.4262 59.7582C77.2506 59.8893 77.0751 60.0203 76.9434 60.1514C76.8556 60.3262 76.7678 60.4572 76.7239 60.632C76.8556 60.9815 77.119 61.2873 77.5579 61.5057C77.9968 61.7242 78.4796 61.8552 79.0502 61.8552C79.6208 61.8552 80.0597 61.7679 80.4108 61.6368C80.8058 61.462 81.0692 61.331 81.2886 61.1562C81.4203 61.2436 81.552 61.331 81.6398 61.4184C81.7276 61.5494 81.8153 61.6805 81.8153 61.8552C81.8153 62.03 81.7714 62.161 81.6837 62.2921C81.5959 62.4232 81.4642 62.5106 81.3325 62.5979C81.1131 62.7727 80.8058 62.9037 80.4108 62.9911C80.0158 63.0785 79.533 63.1222 78.9624 63.1222ZM79.928 58.0981V56.1758H76.9873C77.0312 56.6127 77.1629 57.0059 77.3384 57.3554C77.5579 57.7049 77.8212 57.967 78.1724 58.1418C78.3479 58.1418 78.5235 58.0981 78.6991 58.0981H79.928Z" fill="#373435"/>
<path d="M79.5513 54.3747C79.3318 54.3747 79.1562 54.331 79.0246 54.2C78.849 54.0689 78.8051 53.8505 78.8051 53.501C78.8051 53.2388 78.849 53.0204 78.9368 52.802C79.0246 52.5835 79.2001 52.4088 79.3318 52.2777C79.5074 52.1466 79.7268 52.0156 79.9463 51.9282C80.1657 51.8845 80.4291 51.8408 80.6924 51.8408C80.9558 51.8408 81.1752 51.8845 81.3947 51.9719C81.6141 52.0156 81.8336 52.1466 82.0091 52.2777C82.1847 52.4525 82.3164 52.6272 82.4042 52.802C82.4919 53.0204 82.5358 53.2388 82.5358 53.501C82.5358 53.8505 82.4919 54.0689 82.3164 54.2C82.1847 54.331 82.0091 54.3747 81.8336 54.3747C81.6141 54.3747 81.4824 54.331 81.3508 54.2C81.3508 54.1563 81.3947 54.1126 81.3947 54.0252C81.3947 53.9378 81.3947 53.8505 81.3947 53.8068C81.3947 53.5447 81.3508 53.3699 81.2191 53.2388C81.0435 53.1078 80.868 53.0204 80.6924 53.0204C80.473 53.0204 80.2974 53.1078 80.1657 53.2388C79.9902 53.3699 79.9463 53.5447 79.9463 53.8068C79.9463 53.8505 79.9463 53.9378 79.9463 54.0252C79.9902 54.1126 79.9902 54.1563 80.0341 54.2C79.9024 54.331 79.7268 54.3747 79.5513 54.3747Z" fill="#373435"/>
<path d="M89.4852 56.174C89.4413 56.3924 89.3974 56.5672 89.3535 56.7856C89.2658 57.004 89.178 57.1788 89.0902 57.3536C89.0024 57.5283 88.9146 57.7031 88.783 57.8341C88.6513 58.0089 88.5635 58.1399 88.4318 58.2273C88.7391 58.4021 89.0463 58.6642 89.2658 59.0137C89.4852 59.3632 89.6169 59.8001 89.6169 60.3243C89.6169 60.7612 89.5291 61.1544 89.3535 61.4602C89.178 61.8097 88.9146 62.1155 88.6074 62.3777C88.2563 62.6398 87.9051 62.8146 87.4662 62.9456C86.9834 63.0767 86.5006 63.1641 85.9739 63.1641C84.9644 63.1641 84.1744 62.9893 83.6477 62.5961C83.121 62.2466 82.8577 61.8097 82.8577 61.2418C82.8577 60.7175 83.0332 60.3243 83.3844 60.0622C83.7355 59.7564 84.2183 59.6253 84.8328 59.6253C85.1839 59.6253 85.4911 59.669 85.7545 59.7564C86.0617 59.8438 86.3251 59.9748 86.5445 60.1059C86.8079 60.2806 86.9834 60.4554 87.159 60.6738C87.3785 60.8486 87.5101 61.067 87.6418 61.3292C87.7735 61.1981 87.9051 61.0233 87.949 60.8486C88.0368 60.6738 88.0807 60.4554 88.0807 60.237C88.0807 59.8875 87.9929 59.5816 87.8174 59.3195C87.6418 59.1011 87.4662 58.9263 87.2468 58.7953C86.9395 58.8826 86.6762 58.9263 86.369 58.97C86.1056 59.0137 85.7545 59.0137 85.3595 59.0137C84.745 59.0137 84.2622 58.97 83.9988 58.8389C83.6916 58.7079 83.516 58.4894 83.516 58.1399C83.516 58.0089 83.5599 57.9215 83.6038 57.7904C83.6477 57.7031 83.6916 57.6157 83.7794 57.572C84.3939 57.572 85.0083 57.572 85.5789 57.6157C86.1495 57.6157 86.7201 57.6157 87.2907 57.6157C87.3785 57.4846 87.5101 57.3099 87.6418 57.0477C87.7735 56.7856 87.8613 56.4798 87.9051 56.174H82.5065C82.331 56.174 82.1993 56.1303 82.1115 56.0429C82.0676 55.9555 82.0237 55.8245 82.0237 55.606C82.0237 55.5187 82.0237 55.4313 82.0237 55.3439C82.0676 55.2128 82.0676 55.1255 82.1115 55.0381H90.2314C90.5386 55.0381 90.7142 55.2565 90.7142 55.6497C90.7142 55.7371 90.6703 55.8245 90.6703 55.9118C90.6264 56.0429 90.6264 56.1303 90.5825 56.174H89.4852ZM85.8862 61.9845C85.9739 61.9845 86.1056 61.9845 86.2373 61.9845C86.369 61.9408 86.5006 61.9408 86.6323 61.8971C86.4567 61.5476 86.2373 61.2418 85.9739 61.067C85.6667 60.8486 85.3595 60.7612 85.0083 60.7612C84.8328 60.7612 84.7011 60.8049 84.5694 60.8923C84.4378 60.9797 84.3939 61.1107 84.3939 61.2855C84.3939 61.4602 84.5255 61.635 84.745 61.766C84.9644 61.8971 85.3595 61.9845 85.8862 61.9845Z" fill="#373435"/>
<path d="M92.1596 63.0348C91.8524 63.0348 91.6768 62.9911 91.5013 62.9037C91.3696 62.8164 91.2818 62.5979 91.2818 62.3358V56.1758H90.3601C90.1845 56.1758 90.0968 56.1321 90.009 56.0447C89.9212 55.9574 89.8773 55.8263 89.8773 55.6079C89.8773 55.5205 89.9212 55.4331 89.9212 55.3457C89.9651 55.2147 89.9651 55.1273 90.009 55.0399H91.3257V53.904C91.3257 53.4671 91.194 53.1613 91.0185 52.9866C90.799 52.7681 90.4918 52.6808 90.1845 52.6808C89.8334 52.6808 89.5701 52.7681 89.3945 52.9866C89.2189 53.1613 89.1312 53.4235 89.1312 53.7293C89.1312 53.8166 89.1312 53.904 89.1312 53.9914C89.1312 54.0788 89.1312 54.1661 89.1312 54.2098C89.0873 54.2535 88.9556 54.3409 88.8239 54.3409C88.6922 54.3846 88.5606 54.4283 88.4289 54.4283C88.1656 54.4283 87.9461 54.3409 87.8144 54.1661C87.6389 54.0351 87.595 53.773 87.595 53.4235C87.595 53.1613 87.6389 52.8992 87.7705 52.6371C87.8583 52.4186 88.0339 52.2002 88.2533 52.0254C88.4728 51.807 88.7361 51.6759 89.0873 51.5449C89.3945 51.4575 89.7456 51.3701 90.1845 51.3701C90.9746 51.3701 91.633 51.5886 92.1158 52.0254C92.5986 52.4623 92.818 53.0739 92.818 53.904V55.0399H93.7836C93.9592 55.0399 94.0909 55.0836 94.1786 55.2147C94.2225 55.302 94.2664 55.4331 94.2664 55.6515C94.2664 55.6952 94.2664 55.8263 94.2664 55.9137C94.2225 56.0447 94.2225 56.1321 94.1786 56.1758H92.818V62.9474C92.7741 62.9911 92.6424 62.9911 92.5547 63.0348C92.423 63.0348 92.2913 63.0348 92.1596 63.0348Z" fill="#373435"/>
<path d="M106.673 56.174V60.1933C106.586 60.2369 106.498 60.2369 106.366 60.2806C106.235 60.2806 106.103 60.2806 106.015 60.2806C105.708 60.2806 105.488 60.2369 105.357 60.1496C105.225 60.0622 105.137 59.8438 105.137 59.5816V56.174H103.206V62.9456C103.162 62.9893 103.03 62.9893 102.943 63.033C102.811 63.033 102.679 63.033 102.548 63.033C102.284 63.033 102.065 62.9893 101.889 62.9019C101.758 62.8145 101.67 62.5961 101.67 62.334V59.9311H100.09C100.002 60.5865 99.8264 61.1107 99.5192 61.4602C99.2558 61.8097 98.9047 61.9845 98.4658 61.9845C98.2024 61.9845 97.983 61.9408 97.8074 61.766C97.6318 61.635 97.5441 61.4165 97.5002 61.1544C97.8074 60.8923 98.0708 60.5865 98.2902 60.1496C98.5097 59.7564 98.5975 59.2758 98.5975 58.7516C98.5975 58.3147 98.5536 57.9652 98.4658 57.6157C98.2024 57.7467 97.9391 57.9215 97.6318 58.1399C97.2807 58.3584 97.0174 58.6205 96.7101 58.9263C96.6223 59.4506 96.4029 59.8438 96.1395 60.1496C95.8762 60.4554 95.5689 60.5865 95.2178 60.5865C94.9545 60.5865 94.735 60.4991 94.5594 60.368C94.3839 60.1933 94.2961 60.0185 94.2522 59.7564C94.5594 59.4943 94.7789 59.1884 94.9984 58.8389C95.2178 58.4894 95.3056 58.0089 95.3056 57.4409C95.3056 57.1788 95.3056 56.9604 95.2617 56.7419C95.2178 56.5672 95.13 56.3924 95.0861 56.174H93.945C93.5938 56.174 93.4622 55.9992 93.4622 55.606C93.4622 55.5187 93.4622 55.4313 93.4622 55.3002C93.506 55.2128 93.506 55.1255 93.5499 55.0381H96.1395C96.2712 55.2128 96.4029 55.475 96.5346 55.8245C96.6223 56.174 96.7101 56.6109 96.7979 57.1351C97.1929 56.7856 97.6318 56.5235 98.0708 56.305C98.5097 56.0866 98.9047 55.9118 99.2997 55.8245C99.5192 56.1303 99.6947 56.5235 99.8703 57.004C100.046 57.5283 100.134 58.0962 100.134 58.7079H101.67V55.7808C101.67 55.5187 101.714 55.3439 101.845 55.2128C101.977 55.1255 102.153 55.0381 102.416 55.0381H107.551C107.859 55.0381 108.034 55.2565 108.034 55.6497C108.034 55.6934 108.034 55.8245 107.99 55.9118C107.99 56.0429 107.946 56.1303 107.946 56.174H106.673Z" fill="#373435"/>
</svg>
